<?xml version="1.0" encoding="UTF-8" ?>
<!DOCTYPE svg PUBLIC "-//W3C//DTD SVG 1.1//EN" "http://www.w3.org/Graphics/SVG/1.1/DTD/svg11.dtd">
<svg width="60pt" height="60pt" viewBox="0 0 60 60" version="1.1" xmlns="http://www.w3.org/2000/svg">
<g id="#ffffffff">
<path fill="#ffffff" opacity="1.00" d=" M 0.00 0.00 L 60.00 0.00 L 60.00 60.00 L 0.00 60.00 L 0.00 0.00 M 24.43 6.65 C 17.56 8.28 11.52 13.08 8.45 19.44 C 5.09 26.20 5.22 34.56 8.79 41.22 C 12.34 48.00 19.32 52.86 26.92 53.78 C 33.72 54.69 40.88 52.52 45.95 47.90 C 51.27 43.21 54.31 36.08 53.96 28.99 C 53.73 22.32 50.51 15.86 45.39 11.60 C 39.71 6.75 31.68 4.91 24.43 6.65 Z" />
<path fill="#ffffff" opacity="1.00" d=" M 27.11 10.21 C 33.73 9.20 40.76 11.80 45.10 16.91 C 49.85 22.25 51.28 30.23 48.75 36.91 C 46.36 43.57 40.16 48.69 33.16 49.73 C 26.46 50.88 19.30 48.25 14.89 43.09 C 10.18 37.76 8.72 29.83 11.21 23.17 C 13.60 16.36 19.96 11.19 27.11 10.21 M 23.79 23.67 C 23.80 24.63 23.80 26.53 23.80 27.48 C 25.49 26.32 27.18 25.16 28.88 24.01 C 28.89 29.29 28.88 34.58 28.88 39.87 C 30.26 39.87 31.64 39.87 33.01 39.87 C 33.02 33.28 33.02 26.69 33.01 20.10 C 29.34 19.28 26.51 21.62 23.79 23.67 Z" />
</g>
<g id="#000000ff">
<path fill="#968176" opacity="1.00" d=" M 24.43 6.65 C 31.68 4.91 39.71 6.75 45.39 11.60 C 50.51 15.86 53.73 22.32 53.96 28.99 C 54.31 36.08 51.27 43.21 45.95 47.90 C 40.88 52.52 33.72 54.69 26.92 53.78 C 19.32 52.86 12.34 48.00 8.79 41.22 C 5.22 34.56 5.09 26.20 8.45 19.44 C 11.52 13.08 17.56 8.28 24.43 6.65 M 27.11 10.21 C 19.96 11.19 13.60 16.36 11.21 23.17 C 8.72 29.83 10.18 37.76 14.89 43.09 C 19.30 48.25 26.46 50.88 33.16 49.73 C 40.16 48.69 46.36 43.57 48.75 36.91 C 51.28 30.23 49.85 22.25 45.10 16.91 C 40.76 11.80 33.73 9.20 27.11 10.21 Z" />
<path fill="#968176" opacity="1.00" d=" M 23.79 23.67 C 26.51 21.62 29.34 19.28 33.01 20.10 C 33.02 26.69 33.02 33.28 33.01 39.87 C 31.64 39.87 30.26 39.87 28.88 39.87 C 28.88 34.58 28.89 29.29 28.88 24.01 C 27.18 25.16 25.49 26.32 23.80 27.48 C 23.80 26.53 23.80 24.63 23.79 23.67 Z" />
</g>
</svg>
