<?xml version="1.0" encoding="UTF-8" ?>
<!DOCTYPE svg PUBLIC "-//W3C//DTD SVG 1.1//EN" "http://www.w3.org/Graphics/SVG/1.1/DTD/svg11.dtd">
<svg width="60pt" height="60pt" viewBox="0 0 60 60" version="1.1" xmlns="http://www.w3.org/2000/svg">
<g id="#ffffffff">
<path fill="#ffffff" opacity="1.00" d=" M 0.00 0.00 L 60.00 0.00 L 60.00 60.00 L 0.00 60.00 L 0.00 0.00 M 10.35 8.38 C 8.62 9.15 7.80 11.10 8.00 12.92 C 8.03 24.65 7.93 36.39 8.05 48.13 C 7.95 50.64 10.59 52.33 12.90 52.00 C 24.62 51.97 36.33 52.06 48.05 51.96 C 50.57 52.03 52.37 49.43 52.00 47.06 C 52.01 35.68 52.00 24.31 52.00 12.94 C 52.33 10.60 50.64 7.93 48.10 8.05 C 37.07 7.92 26.03 8.06 15.00 7.98 C 13.46 8.08 11.81 7.77 10.35 8.38 Z" />
<path fill="#ffffff" opacity="1.00" d=" M 23.04 20.13 C 27.70 20.13 32.36 20.13 37.02 20.14 C 36.92 21.82 37.13 23.62 36.19 25.12 C 33.69 30.03 31.20 34.94 28.72 39.86 C 27.27 39.86 25.83 39.87 24.39 39.87 C 27.23 34.42 30.12 29.00 32.94 23.55 C 29.65 23.53 26.35 23.53 23.06 23.54 C 23.05 22.40 23.04 21.27 23.04 20.13 Z" />
</g>
<g id="#000000ff">
<path fill="#968176" opacity="1.00" d=" M 10.35 8.38 C 11.81 7.77 13.46 8.08 15.00 7.98 C 26.03 8.06 37.07 7.92 48.10 8.05 C 50.64 7.93 52.33 10.60 52.00 12.94 C 52.00 24.31 52.01 35.68 52.00 47.06 C 52.37 49.43 50.57 52.03 48.05 51.96 C 36.33 52.06 24.62 51.97 12.90 52.00 C 10.59 52.33 7.95 50.64 8.05 48.13 C 7.93 36.39 8.03 24.65 8.00 12.92 C 7.80 11.10 8.62 9.15 10.35 8.38 M 23.04 20.13 C 23.04 21.27 23.05 22.40 23.06 23.54 C 26.35 23.53 29.65 23.53 32.94 23.55 C 30.12 29.00 27.23 34.42 24.39 39.87 C 25.83 39.87 27.27 39.86 28.72 39.86 C 31.20 34.94 33.69 30.03 36.19 25.12 C 37.13 23.62 36.92 21.82 37.02 20.14 C 32.36 20.13 27.70 20.13 23.04 20.13 Z" />
</g>
</svg>
