<?xml version="1.0" encoding="UTF-8" ?>
<!DOCTYPE svg PUBLIC "-//W3C//DTD SVG 1.1//EN" "http://www.w3.org/Graphics/SVG/1.1/DTD/svg11.dtd">
<svg width="60pt" height="60pt" viewBox="0 0 60 60" version="1.1" xmlns="http://www.w3.org/2000/svg">
<g id="#ffffffff">
<path fill="#ffffff" opacity="1.00" d=" M 0.00 0.00 L 60.00 0.00 L 60.00 29.37 C 59.65 24.71 58.95 19.73 56.06 15.90 C 54.45 15.68 52.64 17.08 53.56 18.76 C 55.06 23.04 56.45 27.50 55.88 32.10 C 55.80 35.78 53.90 39.05 53.31 42.61 C 53.73 44.00 55.56 44.58 56.60 43.46 C 58.95 39.66 59.69 35.09 60.00 30.69 L 60.00 60.00 L 0.00 60.00 L 0.00 30.65 C 0.29 35.09 1.05 39.69 3.43 43.52 C 4.91 45.04 7.49 43.15 6.46 41.29 C 5.10 37.32 3.70 33.24 4.04 28.97 C 4.00 25.16 5.64 21.69 6.58 18.08 C 7.20 16.12 3.66 15.06 3.05 17.07 C 1.03 20.80 0.26 25.08 0.00 29.28 L 0.00 0.00 M 24.49 8.71 C 15.01 11.03 7.81 20.27 8.01 30.05 C 7.92 38.49 13.24 46.62 20.94 50.02 C 27.70 53.17 36.05 52.47 42.20 48.27 C 48.22 44.30 52.05 37.21 51.98 29.99 C 52.05 23.03 48.49 16.19 42.83 12.16 C 37.63 8.35 30.72 7.07 24.49 8.71 Z" />
<path fill="#ffffff" opacity="1.00" d=" M 25.40 12.59 C 31.21 11.04 37.76 12.61 42.17 16.73 C 46.65 20.78 48.81 27.19 47.71 33.13 C 46.67 39.39 42.05 44.87 36.05 46.94 C 29.69 49.29 22.08 47.60 17.32 42.77 C 13.14 38.72 11.24 32.55 12.28 26.83 C 13.39 20.06 18.75 14.26 25.40 12.59 M 18.23 24.05 C 17.01 28.05 15.69 32.03 14.54 36.05 C 16.47 36.30 17.47 35.26 17.81 33.49 C 18.83 33.48 19.85 33.46 20.87 33.45 C 21.03 34.05 21.36 35.25 21.52 35.85 C 22.15 35.86 23.41 35.88 24.04 35.88 C 22.86 32.02 21.54 28.19 20.51 24.28 C 19.94 24.22 18.80 24.11 18.23 24.05 M 26.66 24.06 C 26.65 28.02 26.65 31.98 26.66 35.93 C 28.92 35.65 31.73 36.42 33.53 34.66 C 34.69 33.12 33.87 31.23 33.23 29.68 C 33.77 28.31 34.36 26.75 33.48 25.37 C 31.68 23.62 28.91 24.33 26.66 24.06 M 37.07 26.05 C 35.67 29.40 39.77 30.51 41.75 32.08 C 42.09 33.42 41.57 34.10 40.16 34.11 C 39.05 32.74 37.93 31.55 36.04 32.43 C 36.83 35.89 42.28 37.55 43.94 34.00 C 45.30 30.56 41.33 29.33 39.23 27.78 C 38.94 24.30 42.43 27.29 43.85 28.13 C 45.17 24.00 38.49 22.46 37.07 26.05 Z" />
<path fill="#ffffff" opacity="1.00" d=" M 29.16 25.76 C 30.57 26.07 32.25 26.63 31.51 28.43 C 30.88 28.65 29.63 29.10 29.00 29.33 C 29.04 28.44 29.12 26.65 29.16 25.76 Z" />
<path fill="#ffffff" opacity="1.00" d=" M 18.71 28.48 C 20.17 27.33 20.83 30.12 20.39 31.11 C 19.93 31.25 19.01 31.55 18.55 31.70 C 17.90 30.64 17.95 29.56 18.71 28.48 Z" />
<path fill="#ffffff" opacity="1.00" d=" M 28.88 30.60 C 30.81 30.53 32.26 31.39 31.82 33.54 C 31.16 33.67 29.82 33.95 29.16 34.09 C 29.09 33.22 28.95 31.47 28.88 30.60 Z" />
</g>
<g id="#000000ff">
<path fill="#968176" opacity="1.00" d=" M 24.49 8.71 C 30.72 7.07 37.63 8.35 42.83 12.16 C 48.49 16.19 52.05 23.03 51.98 29.99 C 52.05 37.21 48.22 44.30 42.20 48.27 C 36.05 52.47 27.70 53.17 20.94 50.02 C 13.24 46.62 7.92 38.49 8.01 30.05 C 7.81 20.27 15.01 11.03 24.49 8.71 M 25.40 12.59 C 18.75 14.26 13.39 20.06 12.28 26.83 C 11.24 32.55 13.14 38.72 17.32 42.77 C 22.08 47.60 29.69 49.29 36.05 46.94 C 42.05 44.87 46.67 39.39 47.71 33.13 C 48.81 27.19 46.65 20.78 42.17 16.73 C 37.76 12.61 31.21 11.04 25.40 12.59 Z" />
<path fill="#968176" opacity="1.00" d=" M 3.05 17.07 C 3.66 15.06 7.20 16.12 6.58 18.08 C 5.64 21.69 4.00 25.16 4.04 28.97 C 3.70 33.24 5.10 37.32 6.46 41.29 C 7.49 43.15 4.91 45.04 3.43 43.52 C 1.05 39.69 0.29 35.09 0.00 30.65 L 0.00 29.28 C 0.26 25.08 1.03 20.80 3.05 17.07 Z" />
<path fill="#968176" opacity="1.00" d=" M 53.56 18.76 C 52.64 17.08 54.45 15.68 56.06 15.90 C 58.95 19.73 59.65 24.71 60.00 29.37 L 60.00 30.69 C 59.69 35.09 58.95 39.66 56.60 43.46 C 55.56 44.58 53.73 44.00 53.31 42.61 C 53.90 39.05 55.80 35.78 55.88 32.10 C 56.45 27.50 55.06 23.04 53.56 18.76 Z" />
<path fill="#968176" opacity="1.00" d=" M 18.23 24.05 C 18.80 24.11 19.94 24.22 20.51 24.28 C 21.54 28.19 22.86 32.02 24.04 35.88 C 23.41 35.88 22.15 35.86 21.52 35.85 C 21.36 35.25 21.03 34.05 20.87 33.45 C 19.85 33.46 18.83 33.48 17.81 33.49 C 17.47 35.26 16.47 36.30 14.54 36.05 C 15.69 32.03 17.01 28.05 18.23 24.05 M 18.71 28.48 C 17.95 29.56 17.90 30.64 18.55 31.70 C 19.01 31.55 19.93 31.25 20.39 31.11 C 20.83 30.12 20.17 27.33 18.71 28.48 Z" />
<path fill="#968176" opacity="1.00" d=" M 26.66 24.06 C 28.91 24.33 31.68 23.62 33.48 25.37 C 34.36 26.75 33.77 28.31 33.23 29.68 C 33.87 31.23 34.69 33.12 33.53 34.66 C 31.73 36.42 28.92 35.65 26.66 35.93 C 26.65 31.98 26.65 28.02 26.66 24.06 M 29.16 25.76 C 29.12 26.65 29.04 28.44 29.00 29.33 C 29.63 29.10 30.88 28.65 31.51 28.43 C 32.25 26.63 30.57 26.07 29.16 25.76 M 28.88 30.60 C 28.95 31.47 29.09 33.22 29.16 34.09 C 29.82 33.95 31.16 33.67 31.82 33.54 C 32.26 31.39 30.81 30.53 28.88 30.60 Z" />
<path fill="#968176" opacity="1.00" d=" M 37.07 26.05 C 38.49 22.46 45.17 24.00 43.85 28.13 C 42.43 27.29 38.94 24.30 39.23 27.78 C 41.33 29.33 45.30 30.56 43.94 34.00 C 42.28 37.55 36.83 35.89 36.04 32.43 C 37.93 31.55 39.05 32.74 40.16 34.11 C 41.57 34.10 42.09 33.42 41.75 32.08 C 39.77 30.51 35.67 29.40 37.07 26.05 Z" />
</g>
</svg>
