<?xml version="1.0" encoding="UTF-8" ?>
<!DOCTYPE svg PUBLIC "-//W3C//DTD SVG 1.1//EN" "http://www.w3.org/Graphics/SVG/1.1/DTD/svg11.dtd">
<svg width="60pt" height="60pt" viewBox="0 0 60 60" version="1.1" xmlns="http://www.w3.org/2000/svg">
<g id="#ffffffff">
<path fill="#ffffff" opacity="1.00" d=" M 0.00 0.00 L 60.00 0.00 L 60.00 60.00 L 0.00 60.00 L 0.00 0.00 M 8.00 12.90 C 8.01 24.95 7.97 37.01 8.03 49.07 C 21.78 35.47 35.44 21.77 49.07 8.04 C 36.67 7.98 24.27 7.96 11.87 8.04 C 9.41 8.01 7.64 10.57 8.00 12.90 M 51.97 10.93 C 38.25 24.57 24.55 38.23 10.93 51.97 C 23.33 52.00 35.73 52.05 48.13 51.95 C 50.59 51.98 52.34 49.44 52.00 47.11 C 51.99 35.05 52.04 22.99 51.97 10.93 Z" />
<path fill="#ffffff" opacity="1.00" d=" M 13.25 14.23 C 14.93 13.60 16.30 15.78 18.01 15.98 C 20.04 15.42 21.86 14.15 24.00 13.99 C 26.25 14.15 28.46 15.37 29.83 17.16 C 30.46 18.50 29.38 19.96 27.98 20.05 C 26.63 19.43 25.42 18.50 24.01 18.01 C 21.08 18.99 17.85 21.14 14.85 19.09 C 12.89 18.50 10.44 15.45 13.25 14.23 Z" />
<path fill="#ffffff" opacity="1.00" d=" M 33.09 36.18 C 37.38 35.82 41.72 35.99 46.02 36.07 C 48.13 35.85 48.74 39.14 46.80 39.83 C 42.54 40.18 38.25 40.01 33.98 39.94 C 31.92 40.15 31.29 37.02 33.09 36.18 Z" />
<path fill="#ffffff" opacity="1.00" d=" M 33.15 44.16 C 34.79 43.83 38.03 43.55 37.93 45.99 C 38.15 48.05 35.51 48.21 34.06 47.99 C 31.92 48.17 31.23 44.98 33.15 44.16 Z" />
<path fill="#ffffff" opacity="1.00" d=" M 43.18 44.15 C 44.84 43.82 48.08 43.57 47.93 46.05 C 48.09 48.10 45.46 48.19 44.01 47.98 C 41.89 48.13 41.24 44.93 43.18 44.15 Z" />
</g>
<g id="#000000ff">
<path fill="#968176" opacity="1.00" d=" M 8.00 12.90 C 7.64 10.57 9.41 8.01 11.87 8.04 C 24.27 7.96 36.67 7.98 49.07 8.04 C 35.44 21.77 21.78 35.47 8.03 49.07 C 7.97 37.01 8.01 24.95 8.00 12.90 M 13.25 14.23 C 10.44 15.45 12.89 18.50 14.85 19.09 C 17.85 21.14 21.08 18.99 24.01 18.01 C 25.42 18.50 26.63 19.43 27.98 20.05 C 29.38 19.96 30.46 18.50 29.83 17.16 C 28.46 15.37 26.25 14.15 24.00 13.99 C 21.86 14.15 20.04 15.42 18.01 15.98 C 16.30 15.78 14.93 13.60 13.25 14.23 Z" />
<path fill="#968176" opacity="1.00" d=" M 51.97 10.93 C 52.04 22.99 51.99 35.05 52.00 47.11 C 52.34 49.44 50.59 51.98 48.13 51.95 C 35.73 52.05 23.33 52.00 10.93 51.97 C 24.55 38.23 38.25 24.57 51.97 10.93 M 33.09 36.18 C 31.29 37.02 31.92 40.15 33.98 39.94 C 38.25 40.01 42.54 40.18 46.80 39.83 C 48.74 39.14 48.13 35.85 46.02 36.07 C 41.72 35.99 37.38 35.82 33.09 36.18 M 33.15 44.16 C 31.23 44.98 31.92 48.17 34.06 47.99 C 35.51 48.21 38.15 48.05 37.93 45.99 C 38.03 43.55 34.79 43.83 33.15 44.16 M 43.18 44.15 C 41.24 44.93 41.89 48.13 44.01 47.98 C 45.46 48.19 48.09 48.10 47.93 46.05 C 48.08 43.57 44.84 43.82 43.18 44.15 Z" />
</g>
</svg>
