<?xml version="1.0" encoding="UTF-8" ?>
<!DOCTYPE svg PUBLIC "-//W3C//DTD SVG 1.1//EN" "http://www.w3.org/Graphics/SVG/1.1/DTD/svg11.dtd">
<svg width="60pt" height="60pt" viewBox="0 0 60 60" version="1.1" xmlns="http://www.w3.org/2000/svg">
<g id="#ffffffff">
<path fill="#ffffff" opacity="1.00" d=" M 0.00 0.00 L 60.00 0.00 L 60.00 45.68 C 59.90 38.34 53.40 31.86 46.02 32.04 C 38.56 31.82 31.84 38.51 32.04 45.97 C 31.83 53.31 38.23 59.80 45.52 60.00 L 0.00 60.00 L 0.00 0.00 M 25.72 10.63 C 22.05 11.98 18.81 14.64 17.24 18.28 C 15.21 22.63 16.42 27.54 15.80 32.14 C 15.11 37.21 12.66 42.39 8.14 45.10 C 7.70 46.34 8.41 48.07 9.92 47.91 C 15.95 48.14 22.00 47.92 28.03 48.00 C 26.90 38.39 34.45 29.10 44.01 28.03 C 44.03 24.52 44.18 20.78 42.43 17.60 C 40.80 14.26 37.70 11.92 34.28 10.64 C 33.90 8.44 32.59 5.82 29.97 6.01 C 27.42 5.91 26.06 8.45 25.72 10.63 M 23.81 52.03 C 24.17 56.12 28.23 58.98 32.22 57.77 C 31.02 55.92 29.93 54.00 28.99 52.00 C 27.27 52.01 25.54 52.01 23.81 52.03 Z" />
<path fill="#ffffff" opacity="1.00" d=" M 45.17 38.10 C 48.73 37.30 47.99 41.81 48.02 43.98 C 49.95 44.24 52.58 43.27 53.89 45.15 C 54.72 48.72 50.19 47.99 48.02 48.02 C 47.77 50.00 48.93 53.68 46.02 53.99 C 43.06 53.74 44.23 50.00 43.98 48.02 C 42.04 47.76 39.42 48.73 38.11 46.85 C 37.26 43.26 41.80 44.01 43.98 43.98 C 44.24 42.05 43.26 39.38 45.17 38.10 Z" />
<path fill="#ffffff" opacity="1.00" d=" M 46.39 60.00 C 53.57 59.84 59.78 53.67 60.00 46.49 L 60.00 60.00 L 46.39 60.00 Z" />
</g>
<g id="#000000ff">
<path fill="#968176" opacity="1.00" d=" M 25.72 10.63 C 26.06 8.45 27.42 5.91 29.97 6.01 C 32.59 5.82 33.90 8.44 34.28 10.64 C 37.70 11.92 40.80 14.26 42.43 17.60 C 44.18 20.78 44.03 24.52 44.01 28.03 C 34.45 29.10 26.90 38.39 28.03 48.00 C 22.00 47.92 15.95 48.14 9.92 47.91 C 8.41 48.07 7.70 46.34 8.14 45.10 C 12.66 42.39 15.11 37.21 15.80 32.14 C 16.42 27.54 15.21 22.63 17.24 18.28 C 18.81 14.64 22.05 11.98 25.72 10.63 Z" />
<path fill="#968176" opacity="1.00" d=" M 32.04 45.97 C 31.84 38.51 38.56 31.82 46.02 32.04 C 53.40 31.86 59.90 38.34 60.00 45.68 L 60.00 46.49 C 59.78 53.67 53.57 59.84 46.39 60.00 L 45.52 60.00 C 38.23 59.80 31.83 53.31 32.04 45.97 M 45.17 38.10 C 43.26 39.38 44.24 42.05 43.98 43.98 C 41.80 44.01 37.26 43.26 38.11 46.85 C 39.42 48.73 42.04 47.76 43.98 48.02 C 44.23 50.00 43.06 53.74 46.02 53.99 C 48.93 53.68 47.77 50.00 48.02 48.02 C 50.19 47.99 54.72 48.72 53.89 45.15 C 52.58 43.27 49.95 44.24 48.02 43.98 C 47.99 41.81 48.73 37.30 45.17 38.10 Z" />
<path fill="#968176" opacity="1.00" d=" M 23.81 52.03 C 25.54 52.01 27.27 52.01 28.99 52.00 C 29.93 54.00 31.02 55.92 32.22 57.77 C 28.23 58.98 24.17 56.12 23.81 52.03 Z" />
</g>
</svg>
