<?xml version="1.0" encoding="UTF-8" ?>
<!DOCTYPE svg PUBLIC "-//W3C//DTD SVG 1.1//EN" "http://www.w3.org/Graphics/SVG/1.1/DTD/svg11.dtd">
<svg width="60pt" height="60pt" viewBox="0 0 60 60" version="1.1" xmlns="http://www.w3.org/2000/svg">
<g id="#ffffffff">
<path fill="#ffffff" opacity="1.00" d=" M 0.00 0.00 L 60.00 0.00 L 60.00 45.63 C 59.89 37.91 52.65 31.26 44.93 32.08 C 37.45 32.45 31.25 39.70 32.09 47.15 C 32.49 54.05 38.67 59.78 45.52 60.00 L 0.00 60.00 L 0.00 53.98 C 9.92 54.03 19.83 53.97 29.75 54.01 C 28.85 51.49 28.23 48.88 27.86 46.23 C 24.51 44.38 19.41 42.97 19.79 38.18 C 22.96 37.96 26.11 37.30 28.93 35.79 C 26.76 28.61 29.42 20.70 26.25 13.77 C 24.82 10.51 20.91 10.31 18.11 8.85 C 14.10 6.73 8.75 9.12 6.92 13.11 C 3.43 20.17 5.91 28.44 3.20 35.71 C 5.93 37.36 9.07 37.94 12.21 38.17 C 12.64 43.02 7.45 44.25 4.18 46.24 C 1.73 47.45 0.45 50.02 0.00 52.62 L 0.00 0.00 M 31.53 10.54 C 29.73 12.79 31.25 15.47 31.53 17.94 C 32.43 22.74 31.00 28.17 34.18 32.33 C 38.11 29.26 43.09 27.53 48.10 28.14 C 50.17 28.83 51.78 26.92 51.84 24.99 C 50.24 20.04 53.55 14.37 50.23 9.80 C 45.65 4.04 35.97 5.29 31.53 10.54 Z" />
<path fill="#ffffff" opacity="1.00" d=" M 43.97 43.97 C 44.06 41.83 43.23 37.35 46.76 38.09 C 48.79 39.29 47.71 42.04 48.04 43.97 C 49.96 44.28 52.60 43.25 53.89 45.16 C 54.72 48.73 50.20 47.97 48.03 48.03 C 47.74 50.02 48.94 53.71 45.99 54.00 C 43.05 53.68 44.26 50.02 43.97 48.03 C 41.82 47.95 37.34 48.76 38.09 45.22 C 39.31 43.20 42.04 44.29 43.97 43.97 Z" />
<path fill="#ffffff" opacity="1.00" d=" M 46.38 60.00 C 53.57 59.84 59.77 53.69 60.00 46.51 L 60.00 60.00 L 46.38 60.00 Z" />
</g>
<g id="#000000ff">
<path fill="#968176" opacity="1.00" d=" M 31.53 10.54 C 35.97 5.29 45.65 4.04 50.23 9.80 C 53.55 14.37 50.24 20.04 51.84 24.99 C 51.78 26.92 50.17 28.83 48.10 28.14 C 43.09 27.53 38.11 29.26 34.18 32.33 C 31.00 28.17 32.43 22.74 31.53 17.94 C 31.25 15.47 29.73 12.79 31.53 10.54 Z" />
<path fill="#968176" opacity="1.00" d=" M 6.92 13.11 C 8.75 9.12 14.10 6.73 18.11 8.85 C 20.91 10.31 24.82 10.51 26.25 13.77 C 29.42 20.70 26.76 28.61 28.93 35.79 C 26.11 37.30 22.96 37.96 19.79 38.18 C 19.41 42.97 24.51 44.38 27.86 46.23 C 28.23 48.88 28.85 51.49 29.75 54.01 C 19.83 53.97 9.92 54.03 0.00 53.98 L 0.00 52.62 C 0.45 50.02 1.73 47.45 4.18 46.24 C 7.45 44.25 12.64 43.02 12.21 38.17 C 9.07 37.94 5.93 37.36 3.20 35.71 C 5.91 28.44 3.43 20.17 6.92 13.11 Z" />
<path fill="#968176" opacity="1.00" d=" M 32.09 47.15 C 31.25 39.70 37.45 32.45 44.93 32.08 C 52.65 31.26 59.89 37.91 60.00 45.63 L 60.00 46.51 C 59.77 53.69 53.57 59.84 46.38 60.00 L 45.52 60.00 C 38.67 59.78 32.49 54.05 32.09 47.15 M 43.97 43.97 C 42.04 44.29 39.31 43.20 38.09 45.22 C 37.34 48.76 41.82 47.95 43.97 48.03 C 44.26 50.02 43.05 53.68 45.99 54.00 C 48.94 53.71 47.74 50.02 48.03 48.03 C 50.20 47.97 54.72 48.73 53.89 45.16 C 52.60 43.25 49.96 44.28 48.04 43.97 C 47.71 42.04 48.79 39.29 46.76 38.09 C 43.23 37.35 44.06 41.83 43.97 43.97 Z" />
</g>
</svg>
