<?xml version="1.0" encoding="UTF-8" ?>
<!DOCTYPE svg PUBLIC "-//W3C//DTD SVG 1.1//EN" "http://www.w3.org/Graphics/SVG/1.1/DTD/svg11.dtd">
<svg width="60pt" height="60pt" viewBox="0 0 60 60" version="1.1" xmlns="http://www.w3.org/2000/svg">
<g id="#ffffffff">
<path fill="#ffffff" opacity="1.00" d=" M 0.00 0.00 L 60.00 0.00 L 60.00 60.00 L 0.00 60.00 L 0.00 0.00 M 24.49 6.64 C 17.60 8.25 11.55 13.07 8.46 19.43 C 5.30 25.77 5.20 33.53 8.17 39.95 C 11.07 46.38 16.96 51.36 23.77 53.16 C 31.19 55.20 39.56 53.39 45.41 48.37 C 50.80 43.90 54.04 36.98 53.98 29.97 C 54.03 22.76 50.57 15.64 44.90 11.20 C 39.27 6.65 31.51 4.97 24.49 6.64 Z" />
<path fill="#ffffff" opacity="1.00" d=" M 24.80 17.00 C 26.34 17.00 27.87 17.00 29.41 17.00 C 29.41 23.67 29.41 30.33 29.41 36.99 C 32.67 37.00 35.93 37.00 39.20 37.00 C 39.20 38.33 39.20 39.67 39.20 41.00 C 34.40 41.00 29.60 41.00 24.80 41.00 C 24.80 33.00 24.80 25.00 24.80 17.00 Z" />
</g>
<g id="#000000ff">
<path fill="#968176" opacity="1.00" d=" M 24.49 6.64 C 31.51 4.97 39.27 6.65 44.90 11.20 C 50.57 15.64 54.03 22.76 53.98 29.97 C 54.04 36.98 50.80 43.90 45.41 48.37 C 39.56 53.39 31.19 55.20 23.77 53.16 C 16.96 51.36 11.07 46.38 8.17 39.95 C 5.20 33.53 5.30 25.77 8.46 19.43 C 11.55 13.07 17.60 8.25 24.49 6.64 M 24.80 17.00 C 24.80 25.00 24.80 33.00 24.80 41.00 C 29.60 41.00 34.40 41.00 39.20 41.00 C 39.20 39.67 39.20 38.33 39.20 37.00 C 35.93 37.00 32.67 37.00 29.41 36.99 C 29.41 30.33 29.41 23.67 29.41 17.00 C 27.87 17.00 26.34 17.00 24.80 17.00 Z" />
</g>
</svg>
