<?xml version="1.0" encoding="UTF-8" ?>
<!DOCTYPE svg PUBLIC "-//W3C//DTD SVG 1.1//EN" "http://www.w3.org/Graphics/SVG/1.1/DTD/svg11.dtd">
<svg width="60pt" height="60pt" viewBox="0 0 60 60" version="1.1" xmlns="http://www.w3.org/2000/svg">
<g id="#ffffffff">
<path fill="#ffffff" opacity="1.00" d=" M 0.00 0.00 L 60.00 0.00 L 60.00 60.00 L 0.00 60.00 L 0.00 0.00 M 24.45 6.66 C 17.11 8.37 10.74 13.76 7.87 20.74 C 4.71 28.13 5.64 37.08 10.28 43.64 C 15.24 50.92 24.42 55.04 33.15 53.77 C 42.81 52.62 51.19 44.99 53.34 35.52 C 55.36 27.35 52.61 18.27 46.44 12.56 C 40.74 7.03 32.16 4.79 24.45 6.66 Z" />
<path fill="#ffffff" opacity="1.00" d=" M 27.17 10.20 C 33.54 9.27 40.28 11.60 44.62 16.36 C 49.73 21.70 51.35 29.96 48.78 36.86 C 46.40 43.55 40.20 48.70 33.17 49.73 C 26.47 50.87 19.31 48.28 14.90 43.12 C 10.16 37.78 8.72 29.80 11.22 23.12 C 13.62 16.31 20.01 11.14 27.17 10.20 M 19.43 22.68 C 14.29 25.46 15.11 34.65 21.03 35.90 C 25.76 36.77 29.03 31.21 27.76 27.07 C 27.11 23.46 22.85 20.64 19.43 22.68 M 35.48 22.65 C 30.33 25.38 31.07 34.53 36.93 35.87 C 41.68 36.86 45.04 31.27 43.76 27.10 C 43.13 23.49 38.90 20.66 35.48 22.65 M 23.85 40.09 C 25.29 42.14 27.22 44.25 30.00 43.99 C 32.77 44.24 34.71 42.15 36.14 40.08 C 32.05 39.96 27.95 39.95 23.85 40.09 Z" />
<path fill="#ffffff" opacity="1.00" d=" M 21.18 26.08 C 23.61 25.15 25.14 28.83 22.80 29.89 C 20.39 30.86 18.89 27.20 21.18 26.08 Z" />
<path fill="#ffffff" opacity="1.00" d=" M 37.17 26.11 C 39.59 25.14 41.17 28.84 38.77 29.91 C 36.36 30.81 34.88 27.18 37.17 26.11 Z" />
<path fill="#ffffff" opacity="1.00" d=" M 22.17 32.17 C 23.79 31.65 24.34 32.20 23.82 33.82 C 22.20 34.34 21.65 33.79 22.17 32.17 Z" />
<path fill="#ffffff" opacity="1.00" d=" M 38.17 32.17 C 39.79 31.65 40.34 32.20 39.82 33.82 C 38.20 34.34 37.65 33.79 38.17 32.17 Z" />
</g>
<g id="#000000ff">
<path fill="#968176" opacity="1.00" d=" M 24.45 6.66 C 32.16 4.79 40.74 7.03 46.44 12.56 C 52.61 18.27 55.36 27.35 53.34 35.52 C 51.19 44.99 42.81 52.62 33.15 53.77 C 24.42 55.04 15.24 50.92 10.28 43.64 C 5.64 37.08 4.71 28.13 7.87 20.74 C 10.74 13.76 17.11 8.37 24.45 6.66 M 27.17 10.20 C 20.01 11.14 13.62 16.31 11.22 23.12 C 8.72 29.80 10.16 37.78 14.90 43.12 C 19.31 48.28 26.47 50.87 33.17 49.73 C 40.20 48.70 46.40 43.55 48.78 36.86 C 51.35 29.96 49.73 21.70 44.62 16.36 C 40.28 11.60 33.54 9.27 27.17 10.20 Z" />
<path fill="#968176" opacity="1.00" d=" M 19.43 22.68 C 22.85 20.64 27.11 23.46 27.76 27.07 C 29.03 31.21 25.76 36.77 21.03 35.90 C 15.11 34.65 14.29 25.46 19.43 22.68 M 21.18 26.08 C 18.89 27.20 20.39 30.86 22.80 29.89 C 25.14 28.83 23.61 25.15 21.18 26.08 M 22.17 32.17 C 21.65 33.79 22.20 34.34 23.82 33.82 C 24.34 32.20 23.79 31.65 22.17 32.17 Z" />
<path fill="#968176" opacity="1.00" d=" M 35.48 22.65 C 38.90 20.66 43.13 23.49 43.76 27.10 C 45.04 31.27 41.68 36.86 36.93 35.87 C 31.07 34.53 30.33 25.38 35.48 22.65 M 37.17 26.11 C 34.88 27.18 36.36 30.81 38.77 29.91 C 41.17 28.84 39.59 25.14 37.17 26.11 M 38.17 32.17 C 37.65 33.79 38.20 34.34 39.82 33.82 C 40.34 32.20 39.79 31.65 38.17 32.17 Z" />
<path fill="#968176" opacity="1.00" d=" M 23.85 40.09 C 27.95 39.95 32.05 39.96 36.14 40.08 C 34.71 42.15 32.77 44.24 30.00 43.99 C 27.22 44.25 25.29 42.14 23.85 40.09 Z" />
</g>
</svg>
