<?xml version="1.0" encoding="UTF-8" ?>
<!DOCTYPE svg PUBLIC "-//W3C//DTD SVG 1.1//EN" "http://www.w3.org/Graphics/SVG/1.1/DTD/svg11.dtd">
<svg width="60pt" height="60pt" viewBox="0 0 60 60" version="1.1" xmlns="http://www.w3.org/2000/svg">
<g id="#ffffffff">
<path fill="#ffffff" opacity="1.00" d=" M 0.00 0.00 L 60.00 0.00 L 60.00 60.00 L 0.00 60.00 L 0.00 0.00 M 18.05 3.94 C 17.38 7.78 18.24 12.00 22.01 13.87 C 22.20 15.83 21.75 18.11 23.18 19.71 C 24.50 21.39 26.75 21.60 28.70 21.98 C 26.99 22.42 25.32 22.99 23.66 23.59 C 21.63 22.57 19.59 21.56 17.56 20.55 C 16.14 17.26 15.17 13.74 13.36 10.63 C 12.57 9.09 9.57 10.40 10.09 12.07 C 11.26 15.94 12.76 19.77 14.62 23.36 C 17.24 25.00 20.15 26.15 22.70 27.91 C 19.56 28.18 16.36 27.69 13.26 28.26 C 10.29 29.50 7.36 30.94 4.62 32.65 C 3.19 33.81 4.34 35.95 5.99 36.03 C 9.04 35.07 11.65 33.04 14.71 32.09 C 18.18 31.86 21.68 31.92 25.15 32.26 C 21.20 34.40 16.60 34.71 12.57 36.60 C 10.68 41.55 9.32 46.75 8.12 51.91 C 7.45 54.04 11.37 54.99 11.73 52.73 C 13.32 48.46 14.26 43.97 15.62 39.63 C 17.41 39.12 19.20 38.61 20.97 38.05 C 18.08 44.47 22.64 53.62 29.96 54.00 C 37.40 53.68 41.88 44.44 39.05 37.96 C 40.82 38.55 42.60 39.11 44.39 39.65 C 45.74 43.98 46.68 48.45 48.26 52.72 C 48.60 54.99 52.50 54.07 51.89 51.92 C 50.66 46.75 49.33 41.54 47.41 36.59 C 43.42 34.72 38.86 34.41 34.95 32.30 C 38.38 31.91 41.86 31.86 45.30 32.09 C 48.35 33.05 50.96 35.06 54.01 36.03 C 55.64 35.91 56.78 33.91 55.44 32.68 C 52.72 30.87 49.72 29.47 46.70 28.24 C 43.60 27.71 40.42 28.17 37.29 27.93 C 39.87 26.19 42.81 25.08 45.38 23.35 C 47.26 19.74 48.73 15.88 49.95 12.01 C 50.20 9.96 46.83 9.10 46.28 11.17 C 44.79 14.21 43.73 17.43 42.44 20.55 C 40.40 21.56 38.36 22.58 36.33 23.60 C 34.77 23.03 33.20 22.49 31.62 21.99 C 33.42 21.53 35.50 21.32 36.75 19.78 C 38.22 18.19 37.82 15.88 38.03 13.91 C 39.89 12.44 42.13 10.78 41.98 8.10 C 42.05 5.91 42.76 1.28 39.17 2.06 C 36.58 4.17 39.61 8.87 35.99 10.37 C 34.78 8.80 33.56 7.24 32.35 5.67 C 32.24 6.29 32.02 7.53 31.92 8.15 C 30.64 8.13 29.36 8.12 28.08 8.12 C 27.98 7.51 27.76 6.28 27.66 5.67 C 26.45 7.23 25.25 8.79 24.05 10.36 C 21.08 9.11 22.34 5.63 21.79 3.12 C 21.03 1.22 17.91 1.86 18.05 3.94 Z" />
</g>
<g id="#000000ff">
<path fill="#968176" opacity="1.00" d=" M 18.05 3.94 C 17.91 1.86 21.03 1.22 21.79 3.12 C 22.34 5.63 21.08 9.11 24.05 10.36 C 25.25 8.79 26.45 7.23 27.66 5.67 C 27.76 6.28 27.98 7.51 28.08 8.12 C 29.36 8.12 30.64 8.13 31.92 8.15 C 32.02 7.53 32.24 6.29 32.35 5.67 C 33.56 7.24 34.78 8.80 35.99 10.37 C 39.61 8.87 36.58 4.17 39.17 2.06 C 42.76 1.28 42.05 5.91 41.98 8.10 C 42.13 10.78 39.89 12.44 38.03 13.91 C 37.82 15.88 38.22 18.19 36.75 19.78 C 35.50 21.32 33.42 21.53 31.62 21.99 C 33.20 22.49 34.77 23.03 36.33 23.60 C 38.36 22.58 40.40 21.56 42.44 20.55 C 43.73 17.43 44.79 14.21 46.28 11.17 C 46.83 9.10 50.20 9.96 49.95 12.01 C 48.73 15.88 47.26 19.74 45.38 23.35 C 42.81 25.08 39.87 26.19 37.29 27.93 C 40.42 28.17 43.60 27.71 46.70 28.24 C 49.72 29.47 52.72 30.87 55.44 32.68 C 56.78 33.91 55.64 35.91 54.01 36.03 C 50.96 35.06 48.35 33.05 45.30 32.09 C 41.86 31.86 38.38 31.91 34.95 32.30 C 38.86 34.41 43.42 34.72 47.41 36.59 C 49.33 41.54 50.66 46.75 51.89 51.92 C 52.50 54.07 48.60 54.99 48.26 52.72 C 46.68 48.45 45.74 43.98 44.39 39.65 C 42.60 39.11 40.82 38.55 39.05 37.96 C 41.88 44.44 37.40 53.68 29.96 54.00 C 22.64 53.62 18.08 44.47 20.97 38.05 C 19.20 38.61 17.41 39.12 15.62 39.63 C 14.26 43.97 13.32 48.46 11.73 52.73 C 11.37 54.99 7.45 54.04 8.12 51.91 C 9.32 46.75 10.68 41.55 12.57 36.60 C 16.60 34.71 21.20 34.40 25.15 32.26 C 21.68 31.92 18.18 31.86 14.71 32.09 C 11.65 33.04 9.04 35.07 5.99 36.03 C 4.34 35.95 3.19 33.81 4.62 32.65 C 7.36 30.94 10.29 29.50 13.26 28.26 C 16.36 27.69 19.56 28.18 22.70 27.91 C 20.15 26.15 17.24 25.00 14.62 23.36 C 12.76 19.77 11.26 15.94 10.09 12.07 C 9.57 10.40 12.57 9.09 13.36 10.63 C 15.17 13.74 16.14 17.26 17.56 20.55 C 19.59 21.56 21.63 22.57 23.66 23.59 C 25.32 22.99 26.99 22.42 28.70 21.98 C 26.75 21.60 24.50 21.39 23.18 19.71 C 21.75 18.11 22.20 15.83 22.01 13.87 C 18.24 12.00 17.38 7.78 18.05 3.94 Z" />
</g>
</svg>
