<?xml version="1.0" encoding="UTF-8" ?>
<!DOCTYPE svg PUBLIC "-//W3C//DTD SVG 1.1//EN" "http://www.w3.org/Graphics/SVG/1.1/DTD/svg11.dtd">
<svg width="60pt" height="60pt" viewBox="0 0 60 60" version="1.1" xmlns="http://www.w3.org/2000/svg">
<g id="#ffffffff">
<path fill="#ffffff" opacity="1.00" d=" M 0.00 0.00 L 60.00 0.00 L 60.00 60.00 L 0.00 60.00 L 0.00 0.00 M 10.33 8.38 C 8.59 9.16 7.84 11.11 8.00 12.92 C 8.03 24.64 7.93 36.36 8.05 48.08 C 7.92 50.62 10.55 52.30 12.89 52.00 C 24.31 52.00 35.73 52.01 47.16 52.00 C 49.49 52.31 52.00 50.57 51.94 48.09 C 52.10 37.06 51.93 26.03 52.02 15.00 C 51.92 13.03 52.37 10.68 50.79 9.16 C 49.01 7.39 46.23 8.18 43.99 7.98 C 32.79 8.28 21.47 7.47 10.33 8.38 Z" />
<path fill="#ffffff" opacity="1.00" d=" M 20.55 17.30 C 19.06 15.75 20.95 13.29 22.86 14.13 C 26.24 17.06 27.31 22.79 32.21 23.68 C 35.61 24.63 38.81 22.64 42.08 22.05 C 43.75 21.93 44.72 24.39 43.39 25.37 C 40.28 27.23 36.60 27.69 33.07 28.13 C 34.40 29.91 35.70 31.72 36.99 33.54 C 39.07 33.20 41.41 31.26 43.44 32.56 C 45.50 35.31 41.39 36.38 39.49 37.10 C 40.80 39.81 45.67 42.81 42.99 45.91 C 40.89 46.55 39.93 44.41 38.86 43.07 C 32.81 34.44 26.54 25.96 20.55 17.30 Z" />
<path fill="#ffffff" opacity="1.00" d=" M 16.10 26.85 C 15.27 24.42 18.18 23.96 19.73 23.13 C 20.59 24.33 21.44 25.54 22.29 26.75 C 20.33 27.07 17.60 29.14 16.10 26.85 Z" />
<path fill="#ffffff" opacity="1.00" d=" M 16.55 34.59 C 19.46 33.00 22.78 32.44 26.01 31.90 C 27.18 33.58 28.38 35.25 29.64 36.86 C 25.99 35.23 22.23 36.69 18.67 37.80 C 16.76 38.71 15.06 36.01 16.55 34.59 Z" />
</g>
<g id="#000000ff">
<path fill="#968176" opacity="1.00" d=" M 10.33 8.38 C 21.47 7.47 32.79 8.28 43.99 7.98 C 46.23 8.18 49.01 7.39 50.79 9.16 C 52.37 10.68 51.92 13.03 52.02 15.00 C 51.93 26.03 52.10 37.06 51.94 48.09 C 52.00 50.57 49.49 52.31 47.16 52.00 C 35.73 52.01 24.31 52.00 12.89 52.00 C 10.55 52.30 7.92 50.62 8.05 48.08 C 7.93 36.36 8.03 24.64 8.00 12.92 C 7.84 11.11 8.59 9.16 10.33 8.38 M 20.55 17.30 C 26.54 25.96 32.81 34.44 38.86 43.07 C 39.93 44.41 40.89 46.55 42.99 45.91 C 45.67 42.81 40.80 39.81 39.49 37.10 C 41.39 36.38 45.50 35.31 43.44 32.56 C 41.41 31.26 39.07 33.20 36.99 33.54 C 35.70 31.72 34.40 29.91 33.07 28.13 C 36.60 27.69 40.28 27.23 43.39 25.37 C 44.72 24.39 43.75 21.93 42.08 22.05 C 38.81 22.64 35.61 24.63 32.21 23.68 C 27.31 22.79 26.24 17.06 22.86 14.13 C 20.95 13.29 19.06 15.75 20.55 17.30 M 16.10 26.85 C 17.60 29.14 20.33 27.07 22.29 26.75 C 21.44 25.54 20.59 24.33 19.73 23.13 C 18.18 23.96 15.27 24.42 16.10 26.85 M 16.55 34.59 C 15.06 36.01 16.76 38.71 18.67 37.80 C 22.23 36.69 25.99 35.23 29.64 36.86 C 28.38 35.25 27.18 33.58 26.01 31.90 C 22.78 32.44 19.46 33.00 16.55 34.59 Z" />
</g>
</svg>
