<?xml version="1.0" encoding="UTF-8" ?>
<!DOCTYPE svg PUBLIC "-//W3C//DTD SVG 1.1//EN" "http://www.w3.org/Graphics/SVG/1.1/DTD/svg11.dtd">
<svg width="60pt" height="60pt" viewBox="0 0 60 60" version="1.1" xmlns="http://www.w3.org/2000/svg">
<g id="#ffffffff">
<path fill="#ffffff" opacity="1.00" d=" M 0.00 0.00 L 60.00 0.00 L 60.00 60.00 L 0.00 60.00 L 0.00 0.00 M 8.03 17.99 C 7.94 19.52 9.53 20.29 10.85 19.89 C 12.48 18.95 11.73 16.84 12.58 15.44 C 13.92 12.30 18.21 10.99 21.07 12.90 C 23.78 14.74 25.09 17.96 26.03 20.98 C 28.71 30.42 27.81 40.34 28.02 50.02 C 27.91 52.06 30.96 52.75 31.77 50.91 C 32.73 39.16 30.23 26.18 36.44 15.46 C 38.43 11.38 44.84 10.75 47.10 14.87 C 48.41 16.31 47.26 18.97 49.26 19.85 C 50.42 20.43 52.06 19.39 51.96 18.07 C 52.30 11.36 44.63 5.96 38.44 8.73 C 33.45 10.77 31.19 16.11 30.01 21.00 C 28.73 15.70 25.98 9.68 20.15 8.29 C 14.20 6.68 7.84 11.88 8.03 17.99 Z" />
</g>
<g id="#000000ff">
<path fill="#968176" opacity="1.00" d=" M 8.03 17.99 C 7.84 11.88 14.20 6.68 20.15 8.29 C 25.98 9.68 28.73 15.70 30.01 21.00 C 31.19 16.11 33.45 10.77 38.44 8.73 C 44.63 5.96 52.30 11.36 51.96 18.07 C 52.06 19.39 50.42 20.43 49.26 19.85 C 47.26 18.97 48.41 16.31 47.10 14.87 C 44.84 10.75 38.43 11.38 36.44 15.46 C 30.23 26.18 32.73 39.16 31.77 50.91 C 30.96 52.75 27.91 52.06 28.02 50.02 C 27.81 40.34 28.71 30.42 26.03 20.98 C 25.09 17.96 23.78 14.74 21.07 12.90 C 18.21 10.99 13.92 12.30 12.58 15.44 C 11.73 16.84 12.48 18.95 10.85 19.89 C 9.53 20.29 7.94 19.52 8.03 17.99 Z" />
</g>
</svg>
