<?xml version="1.0" encoding="UTF-8" ?>
<!DOCTYPE svg PUBLIC "-//W3C//DTD SVG 1.1//EN" "http://www.w3.org/Graphics/SVG/1.1/DTD/svg11.dtd">
<svg width="60pt" height="60pt" viewBox="0 0 60 60" version="1.1" xmlns="http://www.w3.org/2000/svg">
<g id="#ffffffff">
<path fill="#ffffff" opacity="1.00" d=" M 0.00 0.00 L 60.00 0.00 L 60.00 60.00 L 0.00 60.00 L 0.00 0.00 M 10.01 21.82 C 12.24 22.32 14.65 22.92 16.10 24.85 C 18.37 27.34 17.98 30.90 18.03 34.00 C 26.01 34.00 33.99 34.00 41.97 34.00 C 42.03 30.90 41.62 27.35 43.88 24.86 C 45.34 22.92 47.75 22.32 49.99 21.82 C 49.96 19.01 50.28 16.12 49.54 13.38 C 48.41 9.86 44.71 7.71 41.10 8.00 C 32.75 8.16 24.37 7.66 16.05 8.26 C 9.87 9.60 9.49 16.72 10.01 21.82 M 7.77 26.71 C 5.60 28.08 6.03 30.86 5.97 33.04 C 6.10 38.69 5.84 44.34 6.08 49.98 C 5.94 51.52 7.53 52.32 8.86 51.89 C 10.23 51.04 9.82 49.33 10.15 48.00 C 23.39 48.00 36.62 48.00 49.85 48.00 C 49.16 50.47 51.94 53.78 53.80 50.86 C 54.17 43.60 54.07 36.28 53.86 29.01 C 53.14 25.45 47.76 24.97 46.40 28.33 C 45.56 31.45 46.16 34.79 46.01 38.00 C 35.34 38.00 24.66 38.00 13.99 38.00 C 13.97 35.00 14.17 31.98 13.85 28.99 C 13.26 26.42 9.90 25.06 7.77 26.71 Z" />
</g>
<g id="#000000ff">
<path fill="#968176" opacity="1.00" d=" M 10.01 21.82 C 9.49 16.72 9.87 9.60 16.05 8.26 C 24.37 7.66 32.75 8.16 41.10 8.00 C 44.71 7.71 48.41 9.86 49.54 13.38 C 50.28 16.12 49.96 19.01 49.99 21.82 C 47.75 22.32 45.34 22.92 43.88 24.86 C 41.62 27.35 42.03 30.90 41.97 34.00 C 33.99 34.00 26.01 34.00 18.03 34.00 C 17.98 30.90 18.37 27.34 16.10 24.85 C 14.65 22.92 12.24 22.32 10.01 21.82 Z" />
<path fill="#968176" opacity="1.00" d=" M 7.77 26.71 C 9.90 25.06 13.26 26.42 13.85 28.99 C 14.17 31.98 13.97 35.00 13.99 38.00 C 24.66 38.00 35.34 38.00 46.01 38.00 C 46.16 34.79 45.56 31.45 46.40 28.33 C 47.76 24.97 53.14 25.45 53.86 29.01 C 54.07 36.28 54.17 43.60 53.80 50.86 C 51.94 53.78 49.16 50.47 49.85 48.00 C 36.62 48.00 23.39 48.00 10.15 48.00 C 9.82 49.33 10.23 51.04 8.86 51.89 C 7.53 52.32 5.94 51.52 6.08 49.98 C 5.84 44.34 6.10 38.69 5.97 33.04 C 6.03 30.86 5.60 28.08 7.77 26.71 Z" />
</g>
</svg>
