<?xml version="1.0" encoding="UTF-8" ?>
<!DOCTYPE svg PUBLIC "-//W3C//DTD SVG 1.1//EN" "http://www.w3.org/Graphics/SVG/1.1/DTD/svg11.dtd">
<svg width="60pt" height="60pt" viewBox="0 0 60 60" version="1.1" xmlns="http://www.w3.org/2000/svg">
<g id="#ffffffff">
<path fill="#ffffff" opacity="1.00" d=" M 0.00 0.00 L 60.00 0.00 L 60.00 60.00 L 0.00 60.00 L 0.00 0.00 M 18.95 7.70 C 21.62 12.05 25.57 15.40 30.00 17.87 C 34.46 15.44 38.35 12.02 41.05 7.70 C 39.45 7.16 37.85 6.61 36.24 6.08 C 34.52 8.91 31.17 10.29 30.00 13.52 C 28.80 10.32 25.53 8.86 23.75 6.08 C 22.14 6.62 20.55 7.16 18.95 7.70 M 5.89 15.89 C 8.00 19.27 10.03 22.70 12.05 26.14 C 16.92 25.58 20.76 22.35 24.07 18.99 C 20.51 16.27 17.42 12.98 15.19 9.09 C 11.38 10.15 7.61 12.15 5.89 15.89 M 35.95 18.97 C 39.21 22.38 43.09 25.56 47.94 26.14 C 49.97 22.70 52.01 19.26 54.12 15.87 C 52.34 12.16 48.62 10.14 44.81 9.09 C 42.57 12.96 39.52 16.28 35.95 18.97 M 27.53 21.07 C 23.86 25.11 19.43 28.68 13.99 29.93 C 14.17 34.00 14.65 38.07 15.87 41.97 C 20.62 43.12 25.22 44.87 30.01 45.85 C 34.79 44.91 39.39 43.22 44.11 42.01 C 45.34 38.09 45.82 34.01 46.01 29.92 C 40.57 28.69 36.14 25.10 32.46 21.07 C 31.64 21.43 30.82 21.78 30.00 22.14 C 29.18 21.78 28.36 21.42 27.53 21.07 M 15.16 46.11 C 13.65 46.73 13.50 49.32 15.23 49.74 C 20.18 51.26 25.17 52.80 30.23 53.90 C 35.13 52.87 39.97 51.38 44.73 49.76 C 46.91 49.29 46.01 45.54 43.88 46.10 C 39.23 46.93 34.86 48.96 30.21 49.76 C 25.10 48.98 20.32 46.46 15.16 46.11 Z" />
</g>
<g id="#000000ff">
<path fill="#968176" opacity="1.00" d=" M 18.95 7.70 C 20.55 7.16 22.14 6.62 23.75 6.08 C 25.53 8.86 28.80 10.32 30.00 13.52 C 31.17 10.29 34.52 8.91 36.24 6.08 C 37.85 6.61 39.45 7.16 41.05 7.70 C 38.35 12.02 34.46 15.44 30.00 17.87 C 25.57 15.40 21.62 12.05 18.95 7.70 Z" />
<path fill="#968176" opacity="1.00" d=" M 5.89 15.89 C 7.61 12.15 11.38 10.15 15.19 9.09 C 17.42 12.98 20.51 16.27 24.07 18.99 C 20.76 22.35 16.92 25.58 12.05 26.14 C 10.03 22.70 8.00 19.27 5.89 15.89 Z" />
<path fill="#968176" opacity="1.00" d=" M 35.95 18.97 C 39.52 16.28 42.57 12.96 44.81 9.09 C 48.62 10.14 52.34 12.16 54.12 15.87 C 52.01 19.26 49.97 22.70 47.94 26.14 C 43.09 25.56 39.21 22.38 35.95 18.97 Z" />
<path fill="#968176" opacity="1.00" d=" M 27.53 21.07 C 28.36 21.42 29.18 21.78 30.00 22.14 C 30.82 21.78 31.64 21.43 32.46 21.07 C 36.14 25.10 40.57 28.69 46.01 29.92 C 45.82 34.01 45.34 38.09 44.11 42.01 C 39.39 43.22 34.79 44.91 30.01 45.85 C 25.22 44.87 20.62 43.12 15.87 41.97 C 14.65 38.07 14.17 34.00 13.99 29.93 C 19.43 28.68 23.86 25.11 27.53 21.07 Z" />
<path fill="#968176" opacity="1.00" d=" M 15.16 46.11 C 20.32 46.46 25.10 48.98 30.21 49.76 C 34.86 48.96 39.23 46.93 43.88 46.10 C 46.01 45.54 46.91 49.29 44.73 49.76 C 39.97 51.38 35.13 52.87 30.23 53.90 C 25.17 52.80 20.18 51.26 15.23 49.74 C 13.50 49.32 13.65 46.73 15.16 46.11 Z" />
</g>
</svg>
