<?xml version="1.0" encoding="UTF-8" ?>
<!DOCTYPE svg PUBLIC "-//W3C//DTD SVG 1.1//EN" "http://www.w3.org/Graphics/SVG/1.1/DTD/svg11.dtd">
<svg width="60pt" height="60pt" viewBox="0 0 60 60" version="1.1" xmlns="http://www.w3.org/2000/svg">
<g id="#ffffffff">
<path fill="#ffffff" opacity="1.00" d=" M 0.00 0.00 L 60.00 0.00 L 60.00 60.00 L 0.00 60.00 L 0.00 0.00 M 6.43 10.40 C 3.70 11.24 4.08 14.65 3.96 16.90 C 4.18 26.86 3.66 36.85 4.20 46.80 C 4.37 49.69 7.65 50.07 9.90 50.02 C 23.30 50.00 36.70 50.00 50.10 50.02 C 52.36 50.11 55.57 49.63 55.79 46.79 C 56.36 39.89 55.82 32.93 56.00 26.00 C 55.86 21.49 56.47 16.89 55.59 12.43 C 55.02 10.00 52.07 10.08 50.10 9.98 C 37.71 9.96 25.33 10.07 12.95 9.95 C 10.78 10.00 8.55 9.84 6.43 10.40 Z" />
<path fill="#ffffff" opacity="1.00" d=" M 8.30 14.30 C 11.47 14.04 14.68 13.68 17.85 14.10 C 19.56 14.01 19.85 15.97 20.57 17.07 C 17.84 17.71 15.06 18.12 12.26 18.28 C 11.99 20.91 12.19 23.73 10.88 26.13 C 9.51 26.50 8.66 26.02 8.33 24.67 C 7.52 21.26 8.05 17.73 8.30 14.30 Z" />
<path fill="#ffffff" opacity="1.00" d=" M 49.05 33.76 C 50.38 33.59 51.26 34.11 51.71 35.33 C 52.44 38.75 51.96 42.26 51.70 45.70 C 48.26 45.96 44.74 46.46 41.33 45.69 C 40.05 45.29 39.55 44.41 39.81 43.06 C 42.28 41.90 45.07 41.97 47.74 41.74 C 47.96 39.06 47.94 36.27 49.05 33.76 Z" />
</g>
<g id="#000000ff">
<path fill="#968176" opacity="1.00" d=" M 6.43 10.40 C 8.55 9.84 10.78 10.00 12.95 9.95 C 25.33 10.07 37.71 9.96 50.10 9.98 C 52.07 10.08 55.02 10.00 55.59 12.43 C 56.47 16.89 55.86 21.49 56.00 26.00 C 55.82 32.93 56.36 39.89 55.79 46.79 C 55.57 49.63 52.36 50.11 50.10 50.02 C 36.70 50.00 23.30 50.00 9.90 50.02 C 7.65 50.07 4.37 49.69 4.20 46.80 C 3.66 36.85 4.18 26.86 3.96 16.90 C 4.08 14.65 3.70 11.24 6.43 10.40 M 8.30 14.30 C 8.05 17.73 7.52 21.26 8.33 24.67 C 8.66 26.02 9.51 26.50 10.88 26.13 C 12.19 23.73 11.99 20.91 12.26 18.28 C 15.06 18.12 17.84 17.71 20.57 17.07 C 19.85 15.97 19.56 14.01 17.85 14.10 C 14.68 13.68 11.47 14.04 8.30 14.30 M 49.05 33.76 C 47.94 36.27 47.96 39.06 47.74 41.74 C 45.07 41.97 42.28 41.90 39.81 43.06 C 39.55 44.41 40.05 45.29 41.33 45.69 C 44.74 46.46 48.26 45.96 51.70 45.70 C 51.96 42.26 52.44 38.75 51.71 35.33 C 51.26 34.11 50.38 33.59 49.05 33.76 Z" />
</g>
</svg>
