<?xml version="1.0" encoding="UTF-8" ?>
<!DOCTYPE svg PUBLIC "-//W3C//DTD SVG 1.1//EN" "http://www.w3.org/Graphics/SVG/1.1/DTD/svg11.dtd">
<svg width="60pt" height="60pt" viewBox="0 0 60 60" version="1.1" xmlns="http://www.w3.org/2000/svg">
<g id="#ffffffff">
<path fill="#ffffff" opacity="1.00" d=" M 0.00 0.00 L 60.00 0.00 L 60.00 60.00 L 0.00 60.00 L 0.00 0.00 M 12.00 9.98 C 12.88 12.24 14.06 14.47 13.97 16.98 C 14.50 21.69 10.76 25.32 10.20 29.82 C 9.25 34.68 11.98 39.17 12.00 43.99 C 10.67 44.00 9.33 44.00 8.00 44.01 C 10.00 46.67 12.00 49.34 14.00 52.00 C 16.00 49.34 18.00 46.67 20.00 44.01 C 18.65 44.00 17.31 44.00 15.96 43.99 C 15.93 40.26 14.68 36.74 14.02 33.12 C 13.44 27.98 17.81 24.07 17.93 19.03 C 18.09 15.46 17.74 11.50 15.40 8.62 C 14.33 7.26 11.86 8.20 12.00 9.98 M 28.02 10.05 C 28.90 12.28 30.06 14.48 29.97 16.96 C 30.51 21.67 26.79 25.30 26.20 29.79 C 25.24 34.66 27.97 39.16 28.00 43.99 C 26.67 44.00 25.33 44.00 24.00 44.01 C 26.00 46.67 28.00 49.34 30.00 52.00 C 32.00 49.34 34.00 46.67 36.00 44.01 C 34.65 44.00 33.31 44.00 31.96 43.99 C 31.93 40.25 30.67 36.72 30.02 33.08 C 29.46 27.96 33.80 24.06 33.93 19.05 C 34.09 15.47 33.74 11.51 31.40 8.62 C 30.32 7.24 27.76 8.24 28.02 10.05 M 40.10 9.11 C 39.47 13.48 45.41 11.66 48.00 11.99 C 48.00 13.29 48.00 14.58 48.00 15.88 C 46.48 16.04 44.02 15.85 43.96 18.01 C 44.07 20.15 46.48 19.95 48.00 20.12 C 48.00 21.38 48.00 22.63 48.00 23.88 C 46.62 24.06 43.87 23.83 44.07 25.94 C 43.79 28.13 46.57 27.96 48.00 28.12 C 48.00 29.37 48.00 30.63 48.00 31.88 C 46.58 32.04 43.78 31.87 44.07 34.05 C 43.87 36.16 46.62 35.93 48.00 36.12 C 48.00 37.37 48.00 38.63 48.00 39.88 C 46.49 40.04 44.03 39.84 43.97 42.00 C 44.04 44.15 46.49 43.95 48.00 44.12 C 48.00 45.42 48.00 46.71 48.00 48.01 C 45.72 47.99 43.42 47.85 41.16 48.19 C 39.61 48.80 39.62 51.19 41.16 51.80 C 43.75 52.17 46.39 52.11 48.99 51.85 C 51.08 51.31 52.27 49.10 52.00 47.04 C 51.97 35.32 52.07 23.60 51.95 11.89 C 51.99 9.37 49.37 7.65 47.02 7.99 C 44.76 8.22 41.81 7.20 40.10 9.11 Z" />
</g>
<g id="#000000ff">
<path fill="#968176" opacity="1.00" d=" M 12.00 9.98 C 11.86 8.20 14.33 7.26 15.40 8.62 C 17.74 11.50 18.09 15.46 17.93 19.03 C 17.81 24.07 13.44 27.98 14.02 33.12 C 14.68 36.74 15.93 40.26 15.96 43.99 C 17.31 44.00 18.65 44.00 20.00 44.01 C 18.00 46.67 16.00 49.34 14.00 52.00 C 12.00 49.34 10.00 46.67 8.00 44.01 C 9.33 44.00 10.67 44.00 12.00 43.99 C 11.98 39.17 9.25 34.68 10.20 29.82 C 10.76 25.32 14.50 21.69 13.97 16.98 C 14.06 14.47 12.88 12.24 12.00 9.98 Z" />
<path fill="#968176" opacity="1.00" d=" M 28.02 10.05 C 27.76 8.24 30.32 7.24 31.40 8.62 C 33.74 11.51 34.09 15.47 33.93 19.05 C 33.80 24.06 29.46 27.96 30.02 33.08 C 30.67 36.72 31.93 40.25 31.96 43.99 C 33.31 44.00 34.65 44.00 36.00 44.01 C 34.00 46.67 32.00 49.34 30.00 52.00 C 28.00 49.34 26.00 46.67 24.00 44.01 C 25.33 44.00 26.67 44.00 28.00 43.99 C 27.97 39.16 25.24 34.66 26.20 29.79 C 26.79 25.30 30.51 21.67 29.97 16.96 C 30.06 14.48 28.90 12.28 28.02 10.05 Z" />
<path fill="#968176" opacity="1.00" d=" M 40.10 9.11 C 41.81 7.20 44.76 8.22 47.02 7.99 C 49.37 7.65 51.99 9.37 51.95 11.89 C 52.07 23.60 51.97 35.32 52.00 47.04 C 52.27 49.10 51.08 51.31 48.99 51.85 C 46.39 52.11 43.75 52.17 41.16 51.80 C 39.62 51.19 39.61 48.80 41.16 48.19 C 43.42 47.85 45.72 47.99 48.00 48.01 C 48.00 46.71 48.00 45.42 48.00 44.12 C 46.49 43.95 44.04 44.15 43.97 42.00 C 44.03 39.84 46.49 40.04 48.00 39.88 C 48.00 38.63 48.00 37.37 48.00 36.12 C 46.62 35.93 43.87 36.16 44.07 34.05 C 43.78 31.87 46.58 32.04 48.00 31.88 C 48.00 30.63 48.00 29.37 48.00 28.12 C 46.57 27.96 43.79 28.13 44.07 25.94 C 43.87 23.83 46.62 24.06 48.00 23.88 C 48.00 22.63 48.00 21.38 48.00 20.12 C 46.48 19.95 44.07 20.15 43.96 18.01 C 44.02 15.85 46.48 16.04 48.00 15.88 C 48.00 14.58 48.00 13.29 48.00 11.99 C 45.41 11.66 39.47 13.48 40.10 9.11 Z" />
</g>
</svg>
