<?xml version="1.0" encoding="UTF-8" ?>
<!DOCTYPE svg PUBLIC "-//W3C//DTD SVG 1.1//EN" "http://www.w3.org/Graphics/SVG/1.1/DTD/svg11.dtd">
<svg width="60pt" height="60pt" viewBox="0 0 60 60" version="1.1" xmlns="http://www.w3.org/2000/svg">
<g id="#ffffffff">
<path fill="#ffffff" opacity="1.00" d=" M 0.00 0.00 L 60.00 0.00 L 60.00 60.00 L 0.00 60.00 L 0.00 0.00 M 5.19 17.24 C 1.97 23.34 0.83 30.96 3.50 37.45 C 4.95 40.88 8.10 44.06 12.06 44.00 C 15.23 44.01 17.33 41.33 19.18 39.14 C 19.99 41.51 20.20 44.96 23.05 45.83 C 24.82 46.48 26.28 45.04 27.74 44.30 C 29.15 46.71 30.69 50.03 33.97 49.93 C 36.00 50.13 36.88 46.94 34.79 46.39 C 32.16 45.25 31.71 42.01 29.53 40.43 C 27.60 39.23 25.68 40.85 24.04 41.75 C 23.17 39.03 23.23 34.90 19.92 33.99 C 16.09 33.98 15.52 39.42 11.98 40.01 C 8.82 39.86 7.24 36.56 6.51 33.90 C 5.26 28.11 6.58 21.68 10.18 16.94 C 11.73 14.91 14.52 13.15 17.06 14.50 C 19.50 15.96 19.43 19.14 20.64 21.41 C 21.61 22.84 24.28 21.68 23.97 19.94 C 23.69 15.53 20.83 10.71 16.12 10.10 C 11.25 9.34 7.30 13.29 5.19 17.24 M 51.37 10.50 C 49.51 11.39 49.17 13.63 48.30 15.28 C 51.25 16.21 54.21 17.10 57.16 18.02 C 57.48 16.69 57.93 15.37 57.99 13.98 C 57.73 10.96 54.01 9.01 51.37 10.50 M 47.10 19.10 C 44.63 26.22 42.12 33.33 39.66 40.45 C 38.60 43.49 39.08 47.44 41.10 49.91 C 44.30 49.37 47.20 46.42 48.23 43.31 C 50.74 36.14 53.21 28.94 55.73 21.76 C 52.85 20.87 49.97 20.00 47.10 19.10 Z" />
</g>
<g id="#000000ff">
<path fill="#968176" opacity="1.00" d=" M 5.19 17.24 C 7.30 13.29 11.25 9.34 16.12 10.10 C 20.83 10.71 23.69 15.53 23.97 19.94 C 24.28 21.68 21.61 22.84 20.64 21.41 C 19.43 19.14 19.50 15.96 17.06 14.50 C 14.52 13.15 11.73 14.91 10.18 16.94 C 6.58 21.68 5.26 28.11 6.51 33.90 C 7.24 36.56 8.82 39.86 11.98 40.01 C 15.52 39.42 16.09 33.98 19.92 33.99 C 23.23 34.90 23.17 39.03 24.04 41.75 C 25.68 40.85 27.60 39.23 29.53 40.43 C 31.71 42.01 32.16 45.25 34.79 46.39 C 36.88 46.94 36.00 50.13 33.97 49.93 C 30.69 50.03 29.15 46.71 27.74 44.30 C 26.28 45.04 24.82 46.48 23.05 45.83 C 20.20 44.96 19.99 41.51 19.18 39.14 C 17.33 41.33 15.23 44.01 12.06 44.00 C 8.10 44.06 4.95 40.88 3.50 37.45 C 0.83 30.96 1.97 23.34 5.19 17.24 Z" />
<path fill="#968176" opacity="1.00" d=" M 51.37 10.50 C 54.01 9.01 57.73 10.96 57.99 13.98 C 57.93 15.37 57.48 16.69 57.16 18.02 C 54.21 17.10 51.25 16.21 48.30 15.28 C 49.17 13.63 49.51 11.39 51.37 10.50 Z" />
<path fill="#968176" opacity="1.00" d=" M 47.10 19.10 C 49.97 20.00 52.85 20.87 55.73 21.76 C 53.21 28.94 50.74 36.14 48.23 43.31 C 47.20 46.42 44.30 49.37 41.10 49.91 C 39.08 47.44 38.60 43.49 39.66 40.45 C 42.12 33.33 44.63 26.22 47.10 19.10 Z" />
</g>
</svg>
