<?xml version="1.0" encoding="UTF-8" ?>
<!DOCTYPE svg PUBLIC "-//W3C//DTD SVG 1.1//EN" "http://www.w3.org/Graphics/SVG/1.1/DTD/svg11.dtd">
<svg width="60pt" height="60pt" viewBox="0 0 60 60" version="1.1" xmlns="http://www.w3.org/2000/svg">
<g id="#ffffffff">
<path fill="#ffffff" opacity="1.00" d=" M 0.00 0.00 L 60.00 0.00 L 60.00 60.00 L 0.00 60.00 L 0.00 0.00 M 26.09 8.24 C 20.34 12.61 15.71 18.46 10.36 23.36 C 8.35 24.85 7.01 27.92 9.04 29.97 C 15.80 36.89 22.70 43.68 29.53 50.52 C 31.01 52.33 33.99 52.46 35.54 50.68 C 40.61 45.69 45.64 40.64 50.64 35.59 C 52.47 34.01 52.33 31.00 50.49 29.49 C 44.00 22.95 37.44 16.46 30.95 9.92 C 29.74 8.59 27.93 7.50 26.09 8.24 M 38.60 11.31 C 41.77 13.45 45.16 15.54 47.05 19.02 C 47.91 20.54 49.48 23.26 51.44 21.38 C 52.69 18.48 51.77 14.98 51.82 11.86 C 50.47 12.26 49.14 12.74 47.86 13.31 C 45.48 11.26 43.13 8.91 40.04 7.99 C 38.33 7.72 37.18 10.33 38.60 11.31 M 8.16 39.13 C 7.76 42.12 8.03 45.13 8.17 48.13 C 9.53 47.74 10.86 47.27 12.14 46.68 C 14.50 48.77 16.89 51.02 19.93 52.05 C 22.06 52.08 22.83 48.96 20.77 48.22 C 16.98 46.09 13.89 42.99 11.77 39.20 C 11.22 37.56 8.85 37.63 8.16 39.13 Z" />
<path fill="#ffffff" opacity="1.00" d=" M 19.05 28.99 C 22.37 25.68 25.68 22.37 28.99 19.05 C 29.80 19.87 30.62 20.69 31.43 21.50 C 30.28 22.66 29.13 23.80 27.98 24.95 C 31.16 28.06 34.17 31.34 37.51 34.30 C 36.51 35.37 35.50 36.44 34.51 37.52 C 31.31 34.35 28.13 31.17 24.94 27.98 C 23.80 29.13 22.66 30.28 21.51 31.42 C 20.69 30.62 19.87 29.81 19.05 28.99 Z" />
</g>
<g id="#000000ff">
<path fill="#968176" opacity="1.00" d=" M 26.09 8.24 C 27.93 7.50 29.74 8.59 30.95 9.92 C 37.44 16.46 44.00 22.95 50.49 29.49 C 52.33 31.00 52.47 34.01 50.64 35.59 C 45.64 40.64 40.61 45.69 35.54 50.68 C 33.99 52.46 31.01 52.33 29.53 50.52 C 22.70 43.68 15.80 36.89 9.04 29.97 C 7.01 27.92 8.35 24.85 10.36 23.36 C 15.71 18.46 20.34 12.61 26.09 8.24 M 19.05 28.99 C 19.87 29.81 20.69 30.62 21.51 31.42 C 22.66 30.28 23.80 29.13 24.94 27.98 C 28.13 31.17 31.31 34.35 34.51 37.52 C 35.50 36.44 36.51 35.37 37.51 34.30 C 34.17 31.34 31.16 28.06 27.98 24.95 C 29.13 23.80 30.28 22.66 31.43 21.50 C 30.62 20.69 29.80 19.87 28.99 19.05 C 25.68 22.37 22.37 25.68 19.05 28.99 Z" />
<path fill="#968176" opacity="1.00" d=" M 38.60 11.31 C 37.18 10.33 38.33 7.72 40.04 7.99 C 43.13 8.91 45.48 11.26 47.86 13.31 C 49.14 12.74 50.47 12.26 51.82 11.86 C 51.77 14.98 52.69 18.48 51.44 21.38 C 49.48 23.26 47.91 20.54 47.05 19.02 C 45.16 15.54 41.77 13.45 38.60 11.31 Z" />
<path fill="#968176" opacity="1.00" d=" M 8.16 39.13 C 8.85 37.63 11.22 37.56 11.77 39.20 C 13.89 42.99 16.98 46.09 20.77 48.22 C 22.83 48.96 22.06 52.08 19.93 52.05 C 16.89 51.02 14.50 48.77 12.14 46.68 C 10.86 47.27 9.53 47.74 8.17 48.13 C 8.03 45.13 7.76 42.12 8.16 39.13 Z" />
</g>
</svg>
