<?xml version="1.0" encoding="UTF-8" ?>
<!DOCTYPE svg PUBLIC "-//W3C//DTD SVG 1.1//EN" "http://www.w3.org/Graphics/SVG/1.1/DTD/svg11.dtd">
<svg width="60pt" height="60pt" viewBox="0 0 60 60" version="1.1" xmlns="http://www.w3.org/2000/svg">
<g id="#ffffffff">
<path fill="#ffffff" opacity="1.00" d=" M 0.00 0.00 L 60.00 0.00 L 60.00 29.61 C 59.33 27.06 57.05 25.49 55.33 23.65 C 50.90 19.41 46.79 14.83 42.22 10.74 C 38.94 7.92 33.89 12.97 36.78 16.24 C 41.12 21.00 45.87 25.37 50.35 30.00 C 46.29 34.07 42.23 38.15 38.14 42.20 C 36.93 43.40 35.54 44.91 36.02 46.78 C 36.38 49.52 40.06 51.09 42.21 49.26 C 45.61 46.34 48.56 42.95 51.80 39.86 C 54.51 36.84 58.02 34.44 60.00 30.82 L 60.00 60.00 L 0.00 60.00 L 0.00 30.32 C 0.71 33.13 3.33 34.77 5.17 36.81 C 9.63 41.00 13.60 45.75 18.33 49.63 C 21.79 51.63 25.89 46.75 23.23 43.74 C 18.91 38.97 14.13 34.63 9.67 30.00 C 13.56 26.09 17.46 22.18 21.39 18.30 C 22.70 16.93 24.45 15.36 23.96 13.24 C 23.60 10.50 19.98 8.98 17.81 10.72 C 14.40 13.64 11.45 17.06 8.21 20.16 C 5.49 23.17 2.01 25.58 0.00 29.16 L 0.00 0.00 Z" />
</g>
<g id="#000000ff">
<path fill="#968176" opacity="1.00" d=" M 17.81 10.72 C 19.98 8.98 23.60 10.50 23.96 13.24 C 24.45 15.36 22.70 16.93 21.39 18.30 C 17.46 22.18 13.56 26.09 9.67 30.00 C 14.13 34.63 18.91 38.97 23.23 43.74 C 25.89 46.75 21.79 51.63 18.33 49.63 C 13.60 45.75 9.63 41.00 5.17 36.81 C 3.33 34.77 0.71 33.13 0.00 30.32 L 0.00 29.16 C 2.01 25.58 5.49 23.17 8.21 20.16 C 11.45 17.06 14.40 13.64 17.81 10.72 Z" />
<path fill="#968176" opacity="1.00" d=" M 36.78 16.24 C 33.89 12.97 38.94 7.92 42.22 10.74 C 46.79 14.83 50.90 19.41 55.33 23.65 C 57.05 25.49 59.33 27.06 60.00 29.61 L 60.00 30.82 C 58.02 34.44 54.51 36.84 51.80 39.86 C 48.56 42.95 45.61 46.34 42.21 49.26 C 40.06 51.09 36.38 49.52 36.02 46.78 C 35.54 44.91 36.93 43.40 38.14 42.20 C 42.23 38.15 46.29 34.07 50.35 30.00 C 45.87 25.37 41.12 21.00 36.78 16.24 Z" />
</g>
</svg>
