<?xml version="1.0" encoding="UTF-8" ?>
<!DOCTYPE svg PUBLIC "-//W3C//DTD SVG 1.1//EN" "http://www.w3.org/Graphics/SVG/1.1/DTD/svg11.dtd">
<svg width="60pt" height="60pt" viewBox="0 0 60 60" version="1.1" xmlns="http://www.w3.org/2000/svg">
<g id="#ffffffff">
<path fill="#ffffff" opacity="1.00" d=" M 0.00 0.00 L 60.00 0.00 L 60.00 60.00 L 0.00 60.00 L 0.00 0.00 M 42.32 8.33 C 41.58 22.85 42.20 37.44 42.00 51.99 C 46.00 52.01 50.00 52.01 54.00 51.99 C 53.79 37.44 54.43 22.86 53.67 8.34 C 49.91 7.81 46.08 7.84 42.32 8.33 M 6.32 16.33 C 5.59 28.19 6.20 40.11 6.00 51.99 C 10.00 52.01 14.00 52.01 18.00 51.99 C 17.80 40.11 18.42 28.19 17.67 16.33 C 13.91 15.82 10.08 15.83 6.32 16.33 M 24.32 24.33 C 23.60 33.52 24.19 42.77 24.00 51.99 C 28.00 52.01 32.00 52.01 36.00 51.99 C 35.81 42.78 36.40 33.53 35.68 24.34 C 31.91 23.82 28.08 23.83 24.32 24.33 Z" />
</g>
<g id="#000000ff">
<path fill="#968176" opacity="1.00" d=" M 42.32 8.33 C 46.08 7.84 49.91 7.81 53.67 8.34 C 54.43 22.86 53.79 37.44 54.00 51.99 C 50.00 52.01 46.00 52.01 42.00 51.99 C 42.20 37.44 41.58 22.85 42.32 8.33 Z" />
<path fill="#968176" opacity="1.00" d=" M 6.32 16.33 C 10.08 15.83 13.91 15.82 17.67 16.33 C 18.42 28.19 17.80 40.11 18.00 51.99 C 14.00 52.01 10.00 52.01 6.00 51.99 C 6.20 40.11 5.59 28.19 6.32 16.33 Z" />
<path fill="#968176" opacity="1.00" d=" M 24.32 24.33 C 28.08 23.83 31.91 23.82 35.68 24.34 C 36.40 33.53 35.81 42.78 36.00 51.99 C 32.00 52.01 28.00 52.01 24.00 51.99 C 24.19 42.77 23.60 33.52 24.32 24.33 Z" />
</g>
</svg>
