<?xml version="1.0" encoding="UTF-8" ?>
<!DOCTYPE svg PUBLIC "-//W3C//DTD SVG 1.1//EN" "http://www.w3.org/Graphics/SVG/1.1/DTD/svg11.dtd">
<svg width="60pt" height="60pt" viewBox="0 0 60 60" version="1.1" xmlns="http://www.w3.org/2000/svg">
<g id="#ffffffff">
<path fill="#ffffff" opacity="1.00" d=" M 0.00 0.00 L 60.00 0.00 L 60.00 60.00 L 0.00 60.00 L 0.00 0.00 M 25.43 6.27 C 21.54 6.96 17.62 8.02 14.39 10.38 C 8.99 14.06 6.21 20.62 6.06 27.01 C 5.84 34.78 5.23 43.83 11.18 49.83 C 13.94 52.99 18.42 51.91 21.96 50.96 C 28.53 49.16 35.38 50.14 41.85 51.79 C 45.42 52.82 48.88 50.60 50.64 47.60 C 55.18 40.60 54.11 31.77 53.62 23.87 C 52.64 14.21 43.92 7.14 34.57 6.27 C 32.24 3.34 27.75 3.32 25.43 6.27 Z" />
<path fill="#ffffff" opacity="1.00" d=" M 29.91 11.47 C 30.78 13.17 31.49 14.95 32.15 16.74 C 34.04 16.81 35.93 16.90 37.81 17.05 C 36.44 18.40 34.95 19.62 33.44 20.82 C 33.97 22.64 34.48 24.47 34.87 26.32 C 33.20 25.39 31.61 24.34 30.00 23.31 C 28.40 24.36 26.79 25.41 25.12 26.35 C 25.52 24.49 26.02 22.65 26.55 20.82 C 25.05 19.60 23.57 18.35 22.17 17.00 C 24.08 16.89 25.99 16.81 27.90 16.74 C 28.52 14.97 29.18 13.20 29.91 11.47 Z" />
<path fill="#ffffff" opacity="1.00" d=" M 9.92 33.42 C 23.23 31.58 36.77 31.57 50.08 33.42 C 50.02 38.51 49.43 44.75 44.79 47.83 C 39.83 47.93 35.06 45.58 30.02 46.00 C 24.94 45.54 20.11 48.02 15.13 47.77 C 10.57 44.66 9.96 38.48 9.92 33.42 Z" />
</g>
<g id="#000000ff">
<path fill="#968176" opacity="1.00" d=" M 25.43 6.27 C 27.75 3.32 32.24 3.34 34.57 6.27 C 43.92 7.14 52.64 14.21 53.62 23.87 C 54.11 31.77 55.18 40.60 50.64 47.60 C 48.88 50.60 45.42 52.82 41.85 51.79 C 35.38 50.14 28.53 49.16 21.96 50.96 C 18.42 51.91 13.94 52.99 11.18 49.83 C 5.23 43.83 5.84 34.78 6.06 27.01 C 6.21 20.62 8.99 14.06 14.39 10.38 C 17.62 8.02 21.54 6.96 25.43 6.27 M 29.91 11.47 C 29.18 13.20 28.52 14.97 27.90 16.74 C 25.99 16.81 24.08 16.89 22.17 17.00 C 23.57 18.35 25.05 19.60 26.55 20.82 C 26.02 22.65 25.52 24.49 25.12 26.35 C 26.79 25.41 28.40 24.36 30.00 23.31 C 31.61 24.34 33.20 25.39 34.87 26.32 C 34.48 24.47 33.97 22.64 33.44 20.82 C 34.95 19.62 36.44 18.40 37.81 17.05 C 35.93 16.90 34.04 16.81 32.15 16.74 C 31.49 14.95 30.78 13.17 29.91 11.47 M 9.92 33.42 C 9.96 38.48 10.57 44.66 15.13 47.77 C 20.11 48.02 24.94 45.54 30.02 46.00 C 35.06 45.58 39.83 47.93 44.79 47.83 C 49.43 44.75 50.02 38.51 50.08 33.42 C 36.77 31.57 23.23 31.58 9.92 33.42 Z" />
</g>
</svg>
