<?xml version="1.0" encoding="UTF-8" ?>
<!DOCTYPE svg PUBLIC "-//W3C//DTD SVG 1.1//EN" "http://www.w3.org/Graphics/SVG/1.1/DTD/svg11.dtd">
<svg width="60pt" height="60pt" viewBox="0 0 60 60" version="1.1" xmlns="http://www.w3.org/2000/svg">
<g id="#ffffffff">
<path fill="#ffffff" opacity="1.00" d=" M 0.00 0.00 L 60.00 0.00 L 60.00 60.00 L 0.00 60.00 L 0.00 0.00 M 28.46 6.69 C 25.25 8.41 25.23 13.53 28.42 15.27 C 31.52 17.38 36.09 14.74 36.01 11.06 C 36.19 7.34 31.61 4.60 28.46 6.69 M 37.77 19.50 C 39.09 20.78 40.38 22.10 41.70 23.39 C 43.73 21.38 45.75 19.34 47.77 17.32 C 46.45 16.02 45.13 14.71 43.82 13.41 C 41.78 15.42 39.78 17.46 37.77 19.50 M 26.04 21.05 C 22.35 24.27 19.22 28.10 15.51 31.29 C 12.33 32.78 8.73 33.08 5.57 34.64 C 3.90 35.66 3.83 37.80 4.42 39.47 C 5.62 43.32 6.47 47.29 7.88 51.06 C 8.56 52.97 11.90 52.06 11.46 50.06 C 11.20 46.01 10.38 42.03 9.93 38.00 C 14.27 37.77 18.75 38.52 23.01 37.56 C 26.39 35.33 29.06 32.20 32.15 29.59 C 35.43 30.75 38.48 32.77 41.96 33.25 C 44.92 30.69 47.81 27.95 50.27 24.89 C 51.26 23.32 48.83 21.38 47.48 22.55 C 45.24 24.08 43.28 25.97 41.17 27.66 C 38.07 25.48 35.07 23.16 31.96 21.01 C 30.25 19.74 27.68 19.60 26.04 21.05 M 48.97 30.71 C 50.26 32.05 51.61 33.34 52.88 34.69 C 54.91 32.67 56.94 30.65 58.96 28.62 C 57.65 27.31 56.34 25.99 55.03 24.68 C 53.03 26.70 50.99 28.70 48.97 30.71 M 24.07 41.92 C 20.72 42.16 17.35 41.92 14.00 42.01 C 14.25 43.34 14.51 44.67 14.76 46.00 C 18.45 45.86 22.18 46.32 25.83 45.77 C 29.98 42.76 33.73 39.22 37.72 36.00 C 36.35 35.42 34.98 34.84 33.60 34.26 C 30.34 36.71 27.52 39.75 24.07 41.92 Z" />
</g>
<g id="#000000ff">
<path fill="#968176" opacity="1.00" d=" M 28.46 6.69 C 31.61 4.60 36.19 7.34 36.01 11.06 C 36.09 14.74 31.52 17.38 28.42 15.27 C 25.23 13.53 25.25 8.41 28.46 6.69 Z" />
<path fill="#968176" opacity="1.00" d=" M 37.77 19.50 C 39.78 17.46 41.78 15.42 43.82 13.41 C 45.13 14.71 46.45 16.02 47.77 17.32 C 45.75 19.34 43.73 21.38 41.70 23.39 C 40.38 22.10 39.09 20.78 37.77 19.50 Z" />
<path fill="#968176" opacity="1.00" d=" M 26.04 21.05 C 27.68 19.60 30.25 19.74 31.96 21.01 C 35.07 23.16 38.07 25.48 41.17 27.66 C 43.28 25.97 45.24 24.08 47.48 22.55 C 48.83 21.38 51.26 23.32 50.27 24.89 C 47.81 27.95 44.92 30.69 41.96 33.25 C 38.48 32.77 35.43 30.75 32.15 29.59 C 29.06 32.20 26.39 35.33 23.01 37.56 C 18.75 38.52 14.27 37.77 9.93 38.00 C 10.38 42.03 11.20 46.01 11.46 50.06 C 11.90 52.06 8.56 52.97 7.88 51.06 C 6.47 47.29 5.62 43.32 4.42 39.47 C 3.83 37.80 3.90 35.66 5.57 34.64 C 8.73 33.08 12.33 32.78 15.51 31.29 C 19.22 28.10 22.35 24.27 26.04 21.05 Z" />
<path fill="#968176" opacity="1.00" d=" M 48.97 30.71 C 50.99 28.70 53.03 26.70 55.03 24.68 C 56.34 25.99 57.65 27.31 58.96 28.62 C 56.94 30.65 54.91 32.67 52.88 34.69 C 51.61 33.34 50.26 32.05 48.97 30.71 Z" />
<path fill="#968176" opacity="1.00" d=" M 24.07 41.92 C 27.52 39.75 30.34 36.71 33.60 34.26 C 34.98 34.84 36.35 35.42 37.72 36.00 C 33.73 39.22 29.98 42.76 25.83 45.77 C 22.18 46.32 18.45 45.86 14.76 46.00 C 14.51 44.67 14.25 43.34 14.00 42.01 C 17.35 41.92 20.72 42.16 24.07 41.92 Z" />
</g>
</svg>
