<?xml version="1.0" encoding="UTF-8" ?>
<!DOCTYPE svg PUBLIC "-//W3C//DTD SVG 1.1//EN" "http://www.w3.org/Graphics/SVG/1.1/DTD/svg11.dtd">
<svg width="60pt" height="60pt" viewBox="0 0 60 60" version="1.1" xmlns="http://www.w3.org/2000/svg">
<g id="#ffffffff">
<path fill="#ffffff" opacity="1.00" d=" M 0.00 0.00 L 60.00 0.00 L 60.00 60.00 L 0.00 60.00 L 0.00 0.00 M 24.51 6.64 C 16.90 8.39 10.34 14.10 7.60 21.41 C 5.04 27.99 5.60 35.69 9.12 41.81 C 12.75 48.27 19.52 52.88 26.88 53.78 C 33.70 54.70 40.89 52.52 45.98 47.87 C 51.56 42.96 54.59 35.33 53.89 27.92 C 53.34 20.90 49.45 14.25 43.65 10.26 C 38.16 6.42 31.03 5.10 24.51 6.64 Z" />
<path fill="#ffffff" opacity="1.00" d=" M 28.00 16.00 C 29.33 16.00 30.66 16.00 32.00 16.00 C 32.00 17.27 32.00 18.54 32.00 19.81 C 34.48 20.27 37.65 21.22 37.88 24.23 C 38.38 26.80 36.32 28.61 34.19 29.50 C 37.38 29.64 39.80 32.86 38.66 35.95 C 37.92 38.95 34.64 39.75 32.00 40.18 C 32.00 41.45 32.00 42.73 32.00 44.00 C 30.66 44.00 29.33 44.00 28.00 44.00 C 28.00 42.67 28.00 41.33 28.00 40.00 C 26.33 40.00 24.66 40.00 23.00 40.00 C 23.00 33.33 23.00 26.67 23.00 20.00 C 24.66 20.00 26.33 20.00 28.00 20.00 C 28.00 18.67 28.00 17.33 28.00 16.00 M 27.18 23.14 C 27.20 24.87 27.20 26.60 27.19 28.33 C 29.59 28.25 34.32 28.83 33.75 25.09 C 32.77 22.41 29.35 23.46 27.18 23.14 M 27.19 31.08 C 27.18 33.00 27.20 34.93 27.18 36.85 C 29.16 36.71 31.22 37.00 33.13 36.37 C 35.01 35.56 35.15 32.63 33.35 31.65 C 31.41 30.87 29.24 31.23 27.19 31.08 Z" />
</g>
<g id="#000000ff">
<path fill="#968176" opacity="1.00" d=" M 24.51 6.64 C 31.03 5.10 38.16 6.42 43.65 10.26 C 49.45 14.25 53.34 20.90 53.89 27.92 C 54.59 35.33 51.56 42.96 45.98 47.87 C 40.89 52.52 33.70 54.70 26.88 53.78 C 19.52 52.88 12.75 48.27 9.12 41.81 C 5.60 35.69 5.04 27.99 7.60 21.41 C 10.34 14.10 16.90 8.39 24.51 6.64 M 28.00 16.00 C 28.00 17.33 28.00 18.67 28.00 20.00 C 26.33 20.00 24.66 20.00 23.00 20.00 C 23.00 26.67 23.00 33.33 23.00 40.00 C 24.66 40.00 26.33 40.00 28.00 40.00 C 28.00 41.33 28.00 42.67 28.00 44.00 C 29.33 44.00 30.66 44.00 32.00 44.00 C 32.00 42.73 32.00 41.45 32.00 40.18 C 34.64 39.75 37.92 38.95 38.66 35.95 C 39.80 32.86 37.38 29.64 34.19 29.50 C 36.32 28.61 38.38 26.80 37.88 24.23 C 37.65 21.22 34.48 20.27 32.00 19.81 C 32.00 18.54 32.00 17.27 32.00 16.00 C 30.66 16.00 29.33 16.00 28.00 16.00 Z" />
<path fill="#968176" opacity="1.00" d=" M 27.18 23.14 C 29.35 23.46 32.77 22.41 33.75 25.09 C 34.32 28.83 29.59 28.25 27.19 28.33 C 27.20 26.60 27.20 24.87 27.18 23.14 Z" />
<path fill="#968176" opacity="1.00" d=" M 27.19 31.08 C 29.24 31.23 31.41 30.87 33.35 31.65 C 35.15 32.63 35.01 35.56 33.13 36.37 C 31.22 37.00 29.16 36.71 27.18 36.85 C 27.20 34.93 27.18 33.00 27.19 31.08 Z" />
</g>
</svg>
