<?xml version="1.0" encoding="UTF-8" ?>
<!DOCTYPE svg PUBLIC "-//W3C//DTD SVG 1.1//EN" "http://www.w3.org/Graphics/SVG/1.1/DTD/svg11.dtd">
<svg width="60pt" height="60pt" viewBox="0 0 60 60" version="1.1" xmlns="http://www.w3.org/2000/svg">
<g id="#ffffffff">
<path fill="#ffffff" opacity="1.00" d=" M 0.00 0.00 L 60.00 0.00 L 60.00 60.00 L 0.00 60.00 L 0.00 0.00 M 43.03 4.51 C 42.41 6.18 42.92 6.72 44.55 6.11 C 45.15 4.43 44.64 3.89 43.03 4.51 M 37.33 7.99 C 36.31 8.16 34.27 8.49 33.24 8.65 C 33.35 8.00 33.55 6.70 33.65 6.06 C 31.69 6.79 27.85 5.44 28.14 8.83 C 29.01 8.49 30.75 7.82 31.61 7.48 C 31.37 9.45 31.23 11.43 31.13 13.41 C 29.23 13.42 27.32 13.41 25.43 13.28 C 26.45 12.47 27.50 11.71 28.58 10.99 C 28.11 9.29 27.62 7.60 27.17 5.90 C 26.39 7.15 25.73 8.48 25.20 9.88 C 25.23 9.02 25.29 7.31 25.32 6.46 C 24.63 6.72 23.24 7.25 22.55 7.52 C 22.81 8.24 23.19 8.91 23.56 9.59 C 22.34 9.52 21.12 9.47 19.90 9.44 C 19.87 10.85 19.86 12.27 19.85 13.69 C 16.88 13.48 13.93 13.90 11.01 14.42 C 10.48 14.17 9.41 13.69 8.88 13.45 L 8.76 15.32 C 10.42 15.40 12.09 15.40 13.75 15.44 C 14.72 16.03 16.29 16.00 16.90 17.01 C 16.21 17.39 14.84 18.15 14.16 18.53 C 14.01 20.28 14.94 20.92 16.94 20.47 C 16.95 21.51 16.88 22.55 16.73 23.58 C 15.63 23.34 14.58 22.89 13.58 22.24 L 14.62 24.01 C 15.02 24.10 15.83 24.27 16.23 24.36 C 16.86 26.17 18.28 27.30 19.92 28.17 C 19.05 28.40 17.33 28.84 16.47 29.06 C 17.01 30.69 18.42 31.49 19.86 32.21 C 18.90 32.64 17.94 33.05 16.97 33.44 C 16.81 35.52 16.76 37.61 16.85 39.69 C 13.53 39.07 14.29 42.23 14.14 44.41 C 14.69 44.43 15.81 44.46 16.37 44.47 C 16.42 45.01 16.51 46.09 16.55 46.63 C 17.37 46.53 19.02 46.32 19.84 46.22 C 19.73 47.68 19.64 49.14 19.56 50.60 C 21.30 50.41 23.04 50.20 24.79 49.98 C 25.59 49.65 27.20 48.97 28.00 48.64 C 27.91 48.01 27.73 46.77 27.64 46.15 C 28.57 46.24 29.51 46.34 30.44 46.44 C 30.62 47.63 30.80 48.81 30.99 49.99 L 30.52 50.05 C 30.43 49.30 30.23 47.81 30.13 47.07 C 29.88 47.09 29.36 47.15 29.11 47.18 C 28.64 48.47 28.36 49.80 28.27 51.19 C 29.08 51.01 30.70 50.65 31.51 50.47 L 31.54 51.85 C 32.27 51.66 33.73 51.30 34.46 51.11 C 34.15 52.18 33.86 53.25 33.59 54.33 C 34.30 54.30 35.73 54.23 36.44 54.19 C 36.37 53.59 36.24 52.39 36.17 51.80 C 36.98 51.90 38.59 52.12 39.40 52.22 C 39.38 50.68 39.38 49.14 39.35 47.60 C 42.68 47.68 46.74 47.71 48.88 44.67 C 51.02 41.42 50.31 37.25 49.04 33.81 C 47.80 33.71 46.56 33.61 45.32 33.52 C 45.32 32.94 45.30 31.78 45.30 31.20 C 43.55 30.66 41.82 30.07 40.13 29.37 C 42.22 27.99 44.69 27.22 46.59 25.56 C 48.61 23.65 49.08 20.77 49.12 18.13 C 48.98 17.31 48.52 17.12 47.73 17.57 C 46.31 18.61 45.36 17.55 44.56 16.37 C 46.06 16.26 47.55 16.22 49.05 16.26 C 47.37 14.62 45.47 13.22 43.89 11.48 C 45.85 11.29 49.62 9.99 46.13 8.78 L 44.69 8.84 L 42.75 8.97 C 43.06 10.48 43.87 11.79 44.62 13.11 C 41.97 12.12 39.06 12.41 36.30 11.91 C 37.21 11.03 38.19 10.25 39.25 9.56 C 39.17 7.91 39.11 6.26 39.05 4.61 C 37.38 5.19 36.63 6.29 37.33 7.99 M 39.68 5.35 C 39.74 7.34 39.26 10.05 42.19 9.77 C 42.03 9.14 41.71 7.88 41.55 7.25 C 41.82 6.50 42.35 4.99 42.62 4.24 C 41.88 4.52 40.42 5.07 39.68 5.35 M 13.43 7.50 C 14.21 9.19 15.83 8.89 17.37 8.67 C 17.37 9.50 17.38 11.15 17.38 11.97 C 16.47 11.91 14.65 11.78 13.73 11.72 C 14.28 13.64 15.34 13.78 16.69 12.49 C 17.31 12.73 18.53 13.22 19.14 13.47 C 19.21 11.35 19.26 9.24 19.34 7.13 C 17.37 7.27 15.40 7.35 13.43 7.50 M 45.47 6.97 L 45.60 7.67 C 45.97 7.67 46.71 7.68 47.08 7.69 L 47.16 6.81 L 46.32 6.43 L 45.47 6.97 M 41.77 11.57 C 41.64 11.13 41.37 10.24 41.24 9.80 C 39.14 9.59 40.16 13.00 41.77 11.57 M 5.81 13.71 C 4.70 15.06 7.13 16.35 8.11 15.27 C 9.23 13.93 6.78 12.64 5.81 13.71 M 8.79 15.98 C 8.28 17.56 8.87 18.09 10.56 17.59 C 11.05 16.00 10.46 15.47 8.79 15.98 M 6.21 18.55 C 6.64 21.99 9.13 16.69 6.21 18.55 M 12.03 18.41 L 11.64 19.14 C 12.65 21.52 14.60 17.57 12.03 18.41 M 6.24 20.74 C 6.38 24.19 9.32 19.15 6.24 20.74 M 11.88 20.91 C 11.99 22.39 14.66 21.91 15.70 21.65 L 15.70 21.18 C 14.45 20.43 13.18 20.34 11.88 20.91 M 8.98 23.01 C 8.95 26.41 12.15 21.61 8.98 23.01 M 5.78 26.09 C 6.45 27.15 8.84 26.46 8.18 25.09 C 7.50 24.00 5.17 24.72 5.78 26.09 M 9.22 25.30 C 9.61 26.84 12.88 26.66 13.70 25.53 C 12.39 24.93 10.47 24.32 9.22 25.30 M 10.69 28.54 C 11.64 28.49 13.53 28.37 14.48 28.32 C 14.48 29.11 14.47 30.69 14.47 31.48 C 13.50 31.69 11.57 32.11 10.61 32.32 C 11.20 32.51 12.37 32.89 12.96 33.08 C 13.83 33.10 15.56 33.12 16.43 33.13 C 16.34 31.07 16.30 29.02 16.38 26.96 C 15.76 26.93 14.51 26.86 13.89 26.83 L 12.99 26.84 C 11.87 26.96 11.10 27.53 10.69 28.54 M 8.51 29.23 C 7.37 30.75 10.03 32.18 10.99 30.77 C 12.14 29.27 9.45 27.84 8.51 29.23 M 6.20 33.75 C 5.67 35.31 6.26 35.82 7.98 35.30 C 8.52 33.76 7.92 33.24 6.20 33.75 M 9.09 33.93 C 9.03 35.46 13.23 35.36 13.64 34.19 C 12.25 33.67 10.48 33.15 9.09 33.93 M 15.22 35.59 C 13.89 36.22 13.86 36.90 15.14 37.61 C 16.51 36.98 16.53 36.30 15.22 35.59 M 6.23 36.31 C 6.37 39.69 9.34 34.78 6.23 36.31 M 9.12 35.88 C 9.45 39.25 12.09 34.17 9.12 35.88 M 8.60 37.45 C 8.64 39.73 8.65 42.00 8.63 44.28 C 9.44 44.05 11.06 43.57 11.86 43.34 L 11.43 44.71 L 14.09 44.24 C 13.67 42.24 12.49 41.73 10.54 42.72 C 10.55 41.89 10.55 40.21 10.55 39.38 C 12.42 39.47 14.29 39.45 16.15 39.32 C 16.06 39.05 15.89 38.51 15.80 38.24 C 13.85 38.05 11.88 37.97 9.94 37.58 L 8.60 37.45 M 5.58 44.34 C 5.86 45.57 6.40 48.01 6.68 49.23 C 8.80 47.70 8.77 44.01 5.58 44.34 M 12.14 45.37 C 12.89 46.01 12.89 46.01 12.14 45.37 M 9.09 47.39 C 9.17 49.06 11.94 48.00 12.97 48.23 C 13.52 48.21 17.25 47.64 15.35 46.81 C 13.29 47.03 11.07 47.17 9.09 47.39 M 17.13 47.30 C 16.93 49.49 20.64 47.29 18.06 46.85 L 17.13 47.30 M 40.19 48.40 C 39.75 49.81 40.24 50.29 41.66 49.83 C 42.09 48.43 41.60 47.95 40.19 48.40 M 12.17 49.39 C 12.94 50.01 12.94 50.01 12.17 49.39 M 17.29 49.13 C 17.52 52.11 20.22 47.73 17.29 49.13 M 42.17 48.57 C 42.32 51.29 45.68 50.46 47.49 51.31 C 47.50 50.82 47.53 49.84 47.54 49.35 C 45.75 49.08 43.97 48.77 42.17 48.57 M 16.76 51.65 C 17.68 53.30 18.55 53.26 19.37 51.52 C 18.44 50.46 17.57 50.50 16.76 51.65 M 18.98 52.55 C 21.04 52.73 23.11 52.83 25.16 53.10 C 25.26 52.36 25.47 50.89 25.58 50.15 C 23.31 50.73 20.44 50.32 18.98 52.55 M 26.04 51.46 C 25.57 53.11 26.14 53.66 27.74 53.13 C 28.20 51.47 27.63 50.92 26.04 51.46 M 39.64 54.69 C 40.40 54.95 41.91 55.47 42.67 55.74 C 42.39 55.00 41.83 53.51 41.54 52.77 C 41.73 52.10 42.10 50.76 42.28 50.09 C 39.51 50.03 39.77 52.71 39.64 54.69 M 32.08 52.05 L 31.55 52.90 C 31.95 55.47 34.39 51.98 32.08 52.05 M 42.93 53.79 C 42.50 55.44 43.09 56.04 44.67 55.60 C 45.09 53.94 44.51 53.34 42.93 53.79 Z" />
<path fill="#ffffff" opacity="1.00" d=" M 22.49 16.38 C 23.81 15.96 26.05 15.10 24.88 17.44 C 22.90 17.32 20.00 18.66 19.40 15.83 C 20.17 15.97 21.72 16.24 22.49 16.38 Z" />
<path fill="#ffffff" opacity="1.00" d=" M 26.94 18.96 C 29.99 18.86 33.05 18.47 36.09 18.81 C 39.16 19.14 38.90 23.53 37.16 25.21 C 34.32 27.53 30.35 26.91 26.95 27.25 C 26.95 24.48 26.95 21.72 26.94 18.96 Z" />
<path fill="#ffffff" opacity="1.00" d=" M 19.01 20.50 C 20.70 19.98 21.28 20.51 20.75 22.09 C 19.06 22.58 18.49 22.05 19.01 20.50 Z" />
<path fill="#ffffff" opacity="1.00" d=" M 45.56 21.42 C 47.22 20.88 47.79 21.41 47.25 23.02 C 45.60 23.58 45.04 23.05 45.56 21.42 Z" />
<path fill="#ffffff" opacity="1.00" d=" M 22.17 22.35 C 23.55 21.31 25.64 23.43 23.94 24.49 C 22.59 25.57 20.46 23.35 22.17 22.35 Z" />
<path fill="#ffffff" opacity="1.00" d=" M 21.64 29.20 C 22.65 27.77 25.24 29.35 24.02 30.82 C 23.02 32.22 20.45 30.65 21.64 29.20 Z" />
<path fill="#ffffff" opacity="1.00" d=" M 26.95 32.83 C 30.35 33.00 33.88 32.73 37.16 33.80 C 40.42 34.94 40.54 40.23 37.10 41.29 C 36.47 41.83 35.84 42.37 35.21 42.91 L 37.45 44.21 C 36.27 44.29 35.10 44.35 33.92 44.36 C 34.11 43.56 34.50 41.97 34.70 41.18 C 33.45 41.16 30.94 41.12 29.69 41.10 C 29.55 41.71 29.25 42.93 29.10 43.55 C 25.80 40.91 27.21 36.47 26.95 32.83 Z" />
<path fill="#ffffff" opacity="1.00" d=" M 20.18 36.37 C 20.89 37.05 20.89 37.05 20.18 36.37 Z" />
<path fill="#ffffff" opacity="1.00" d=" M 20.17 38.38 C 20.90 39.03 20.90 39.03 20.17 38.38 Z" />
<path fill="#ffffff" opacity="1.00" d=" M 17.00 42.22 C 17.99 40.79 20.56 42.40 19.36 43.84 C 18.35 45.24 15.75 43.68 17.00 42.22 Z" />
<path fill="#ffffff" opacity="1.00" d=" M 22.76 46.52 C 23.66 45.70 25.78 46.31 25.32 47.76 C 24.66 48.78 23.80 48.98 22.73 48.35 C 22.74 47.89 22.75 46.98 22.76 46.52 Z" />
</g>
<g id="#000000ff">
<path fill="#968176" opacity="1.00" d=" M 43.03 4.51 C 44.64 3.89 45.15 4.43 44.55 6.11 C 42.92 6.72 42.41 6.18 43.03 4.51 Z" />
<path fill="#968176" opacity="1.00" d=" M 37.33 7.99 C 36.63 6.29 37.38 5.19 39.05 4.61 C 39.11 6.26 39.17 7.91 39.25 9.56 C 38.19 10.25 37.21 11.03 36.30 11.91 C 39.06 12.41 41.97 12.12 44.62 13.11 C 43.87 11.79 43.06 10.48 42.75 8.97 L 44.69 8.84 L 46.13 8.78 C 49.62 9.99 45.85 11.29 43.89 11.48 C 45.47 13.22 47.37 14.62 49.05 16.26 C 47.55 16.22 46.06 16.26 44.56 16.37 C 45.36 17.55 46.31 18.61 47.73 17.57 C 48.52 17.12 48.98 17.31 49.12 18.13 C 49.08 20.77 48.61 23.65 46.59 25.56 C 44.69 27.22 42.22 27.99 40.13 29.37 C 41.82 30.07 43.55 30.66 45.30 31.20 C 45.30 31.78 45.32 32.94 45.32 33.52 C 46.56 33.61 47.80 33.71 49.04 33.81 C 50.31 37.25 51.02 41.42 48.88 44.67 C 46.74 47.71 42.68 47.68 39.35 47.60 C 39.38 49.14 39.38 50.68 39.40 52.22 C 38.59 52.12 36.98 51.90 36.17 51.80 C 36.24 52.39 36.37 53.59 36.44 54.19 C 35.73 54.23 34.30 54.30 33.59 54.33 C 33.86 53.25 34.15 52.18 34.46 51.11 C 33.73 51.30 32.27 51.66 31.54 51.85 L 31.51 50.47 C 30.70 50.65 29.08 51.01 28.27 51.19 C 28.36 49.80 28.64 48.47 29.11 47.18 C 29.36 47.15 29.88 47.09 30.13 47.07 C 30.23 47.81 30.43 49.30 30.52 50.05 L 30.99 49.99 C 30.80 48.81 30.62 47.63 30.44 46.44 C 29.51 46.34 28.57 46.24 27.64 46.15 C 27.73 46.77 27.91 48.01 28.00 48.64 C 27.20 48.97 25.59 49.65 24.79 49.98 C 23.04 50.20 21.30 50.41 19.56 50.60 C 19.64 49.14 19.73 47.68 19.84 46.22 C 19.02 46.32 17.37 46.53 16.55 46.63 C 16.51 46.09 16.42 45.01 16.37 44.47 C 15.81 44.46 14.69 44.43 14.14 44.41 C 14.29 42.23 13.53 39.07 16.85 39.69 C 16.76 37.61 16.81 35.52 16.97 33.44 C 17.94 33.05 18.90 32.64 19.86 32.21 C 18.42 31.49 17.01 30.69 16.47 29.06 C 17.33 28.84 19.05 28.40 19.92 28.17 C 18.28 27.30 16.86 26.17 16.23 24.36 C 15.83 24.27 15.02 24.10 14.62 24.01 L 13.58 22.24 C 14.58 22.89 15.63 23.34 16.73 23.58 C 16.88 22.55 16.95 21.51 16.94 20.47 C 14.94 20.92 14.01 20.28 14.16 18.53 C 14.84 18.15 16.21 17.39 16.90 17.01 C 16.29 16.00 14.72 16.03 13.75 15.44 C 12.09 15.40 10.42 15.40 8.76 15.32 L 8.88 13.45 C 9.41 13.69 10.48 14.17 11.01 14.42 C 13.93 13.90 16.88 13.48 19.85 13.69 C 19.86 12.27 19.87 10.85 19.90 9.44 C 21.12 9.47 22.34 9.52 23.56 9.59 C 23.19 8.91 22.81 8.24 22.55 7.52 C 23.24 7.25 24.63 6.72 25.32 6.46 C 25.29 7.31 25.23 9.02 25.20 9.88 C 25.73 8.48 26.39 7.15 27.17 5.90 C 27.62 7.60 28.11 9.29 28.58 10.99 C 27.50 11.71 26.45 12.47 25.43 13.28 C 27.32 13.41 29.23 13.42 31.13 13.41 C 31.23 11.43 31.37 9.45 31.61 7.48 C 30.75 7.82 29.01 8.49 28.14 8.83 C 27.85 5.44 31.69 6.79 33.65 6.06 C 33.55 6.70 33.35 8.00 33.24 8.65 C 34.27 8.49 36.31 8.16 37.33 7.99 M 22.49 16.38 C 21.72 16.24 20.17 15.97 19.40 15.83 C 20.00 18.66 22.90 17.32 24.88 17.44 C 26.05 15.10 23.81 15.96 22.49 16.38 M 26.94 18.96 C 26.95 21.72 26.95 24.48 26.95 27.25 C 30.35 26.91 34.32 27.53 37.16 25.21 C 38.90 23.53 39.16 19.14 36.09 18.81 C 33.05 18.47 29.99 18.86 26.94 18.96 M 19.01 20.50 C 18.49 22.05 19.06 22.58 20.75 22.09 C 21.28 20.51 20.70 19.98 19.01 20.50 M 45.56 21.42 C 45.04 23.05 45.60 23.58 47.25 23.02 C 47.79 21.41 47.22 20.88 45.56 21.42 M 22.17 22.35 C 20.46 23.35 22.59 25.57 23.94 24.49 C 25.64 23.43 23.55 21.31 22.17 22.35 M 21.64 29.20 C 20.45 30.65 23.02 32.22 24.02 30.82 C 25.24 29.35 22.65 27.77 21.64 29.20 M 26.95 32.83 C 27.21 36.47 25.80 40.91 29.10 43.55 C 29.25 42.93 29.55 41.71 29.69 41.10 C 30.94 41.12 33.45 41.16 34.70 41.18 C 34.50 41.97 34.11 43.56 33.92 44.36 C 35.10 44.35 36.27 44.29 37.45 44.21 L 35.21 42.91 C 35.84 42.37 36.47 41.83 37.10 41.29 C 40.54 40.23 40.42 34.94 37.16 33.80 C 33.88 32.73 30.35 33.00 26.95 32.83 M 20.18 36.37 C 20.89 37.05 20.89 37.05 20.18 36.37 M 20.17 38.38 C 20.90 39.03 20.90 39.03 20.17 38.38 M 17.00 42.22 C 15.75 43.68 18.35 45.24 19.36 43.84 C 20.56 42.40 17.99 40.79 17.00 42.22 M 22.76 46.52 C 22.75 46.98 22.74 47.89 22.73 48.35 C 23.80 48.98 24.66 48.78 25.32 47.76 C 25.78 46.31 23.66 45.70 22.76 46.52 Z" />
<path fill="#968176" opacity="1.00" d=" M 39.68 5.35 C 40.42 5.07 41.88 4.52 42.62 4.24 C 42.35 4.99 41.82 6.50 41.55 7.25 C 41.71 7.88 42.03 9.14 42.19 9.77 C 39.26 10.05 39.74 7.34 39.68 5.35 Z" />
<path fill="#968176" opacity="1.00" d=" M 13.43 7.50 C 15.40 7.35 17.37 7.27 19.34 7.13 C 19.26 9.24 19.21 11.35 19.14 13.47 C 18.53 13.22 17.31 12.73 16.69 12.49 C 15.34 13.78 14.28 13.64 13.73 11.72 C 14.65 11.78 16.47 11.91 17.38 11.97 C 17.38 11.15 17.37 9.50 17.37 8.67 C 15.83 8.89 14.21 9.19 13.43 7.50 Z" />
<path fill="#968176" opacity="1.00" d=" M 45.47 6.97 L 46.32 6.43 L 47.16 6.81 L 47.08 7.69 C 46.71 7.68 45.97 7.67 45.60 7.67 L 45.47 6.97 Z" />
<path fill="#968176" opacity="1.00" d=" M 41.77 11.57 C 40.16 13.00 39.14 9.59 41.24 9.80 C 41.37 10.24 41.64 11.13 41.77 11.57 Z" />
<path fill="#968176" opacity="1.00" d=" M 5.81 13.71 C 6.78 12.64 9.23 13.93 8.11 15.27 C 7.13 16.35 4.70 15.06 5.81 13.71 Z" />
<path fill="#968176" opacity="1.00" d=" M 8.79 15.98 C 10.46 15.47 11.05 16.00 10.56 17.59 C 8.87 18.09 8.28 17.56 8.79 15.98 Z" />
<path fill="#968176" opacity="1.00" d=" M 6.21 18.55 C 9.13 16.69 6.64 21.99 6.21 18.55 Z" />
<path fill="#968176" opacity="1.00" d=" M 12.03 18.41 C 14.60 17.57 12.65 21.52 11.64 19.14 L 12.03 18.41 Z" />
<path fill="#968176" opacity="1.00" d=" M 6.24 20.74 C 9.32 19.15 6.38 24.19 6.24 20.74 Z" />
<path fill="#968176" opacity="1.00" d=" M 11.88 20.91 C 13.18 20.34 14.45 20.43 15.70 21.18 L 15.70 21.65 C 14.66 21.91 11.99 22.39 11.88 20.91 Z" />
<path fill="#968176" opacity="1.00" d=" M 8.98 23.01 C 12.15 21.61 8.95 26.41 8.98 23.01 Z" />
<path fill="#968176" opacity="1.00" d=" M 5.78 26.09 C 5.17 24.72 7.50 24.00 8.18 25.09 C 8.84 26.46 6.45 27.15 5.78 26.09 Z" />
<path fill="#968176" opacity="1.00" d=" M 9.22 25.30 C 10.47 24.32 12.39 24.93 13.70 25.53 C 12.88 26.66 9.61 26.84 9.22 25.30 Z" />
<path fill="#968176" opacity="1.00" d=" M 10.69 28.54 C 11.10 27.53 11.87 26.96 12.99 26.84 L 13.89 26.83 C 14.51 26.86 15.76 26.93 16.38 26.96 C 16.30 29.02 16.34 31.07 16.43 33.13 C 15.56 33.12 13.83 33.10 12.96 33.08 C 12.37 32.89 11.20 32.51 10.61 32.32 C 11.57 32.11 13.50 31.69 14.47 31.48 C 14.47 30.69 14.48 29.11 14.48 28.32 C 13.53 28.37 11.64 28.49 10.69 28.54 Z" />
<path fill="#968176" opacity="1.00" d=" M 8.51 29.23 C 9.45 27.84 12.14 29.27 10.99 30.77 C 10.03 32.18 7.37 30.75 8.51 29.23 Z" />
<path fill="#968176" opacity="1.00" d=" M 6.20 33.75 C 7.92 33.24 8.52 33.76 7.98 35.30 C 6.26 35.82 5.67 35.31 6.20 33.75 Z" />
<path fill="#968176" opacity="1.00" d=" M 9.09 33.93 C 10.48 33.15 12.25 33.67 13.64 34.19 C 13.23 35.36 9.03 35.46 9.09 33.93 Z" />
<path fill="#968176" opacity="1.00" d=" M 15.22 35.59 C 16.53 36.30 16.51 36.98 15.14 37.61 C 13.86 36.90 13.89 36.22 15.22 35.59 Z" />
<path fill="#968176" opacity="1.00" d=" M 6.23 36.31 C 9.34 34.78 6.37 39.69 6.23 36.31 Z" />
<path fill="#968176" opacity="1.00" d=" M 9.12 35.88 C 12.09 34.17 9.45 39.25 9.12 35.88 Z" />
<path fill="#968176" opacity="1.00" d=" M 8.60 37.45 L 9.94 37.58 C 11.88 37.97 13.85 38.05 15.80 38.24 C 15.89 38.51 16.06 39.05 16.15 39.32 C 14.29 39.45 12.42 39.47 10.55 39.38 C 10.55 40.21 10.55 41.89 10.54 42.72 C 12.49 41.73 13.67 42.24 14.09 44.24 L 11.43 44.71 L 11.86 43.34 C 11.06 43.57 9.44 44.05 8.63 44.28 C 8.65 42.00 8.64 39.73 8.60 37.45 Z" />
<path fill="#968176" opacity="1.00" d=" M 5.58 44.34 C 8.77 44.01 8.80 47.70 6.68 49.23 C 6.40 48.01 5.86 45.57 5.58 44.34 Z" />
<path fill="#968176" opacity="1.00" d=" M 12.14 45.37 C 12.89 46.01 12.89 46.01 12.14 45.37 Z" />
<path fill="#968176" opacity="1.00" d=" M 9.09 47.39 C 11.07 47.17 13.29 47.03 15.35 46.81 C 17.25 47.64 13.52 48.21 12.97 48.23 C 11.94 48.00 9.17 49.06 9.09 47.39 Z" />
<path fill="#968176" opacity="1.00" d=" M 17.13 47.30 L 18.06 46.85 C 20.64 47.29 16.93 49.49 17.13 47.30 Z" />
<path fill="#968176" opacity="1.00" d=" M 40.19 48.40 C 41.60 47.95 42.09 48.43 41.66 49.83 C 40.24 50.29 39.75 49.81 40.19 48.40 Z" />
<path fill="#968176" opacity="1.00" d=" M 12.17 49.39 C 12.94 50.01 12.94 50.01 12.17 49.39 Z" />
<path fill="#968176" opacity="1.00" d=" M 17.29 49.13 C 20.22 47.73 17.52 52.11 17.29 49.13 Z" />
<path fill="#968176" opacity="1.00" d=" M 42.17 48.57 C 43.97 48.77 45.75 49.08 47.54 49.35 C 47.53 49.84 47.50 50.82 47.49 51.31 C 45.68 50.46 42.32 51.29 42.17 48.57 Z" />
<path fill="#968176" opacity="1.00" d=" M 16.76 51.65 C 17.57 50.50 18.44 50.46 19.37 51.52 C 18.55 53.26 17.68 53.30 16.76 51.65 Z" />
<path fill="#968176" opacity="1.00" d=" M 18.98 52.55 C 20.44 50.32 23.31 50.73 25.58 50.15 C 25.47 50.89 25.26 52.36 25.16 53.10 C 23.11 52.83 21.04 52.73 18.98 52.55 Z" />
<path fill="#968176" opacity="1.00" d=" M 26.04 51.46 C 27.63 50.92 28.20 51.47 27.74 53.13 C 26.14 53.66 25.57 53.11 26.04 51.46 Z" />
<path fill="#968176" opacity="1.00" d=" M 39.64 54.69 C 39.77 52.71 39.51 50.03 42.28 50.09 C 42.10 50.76 41.73 52.10 41.54 52.77 C 41.83 53.51 42.39 55.00 42.67 55.74 C 41.91 55.47 40.40 54.95 39.64 54.69 Z" />
<path fill="#968176" opacity="1.00" d=" M 32.08 52.05 C 34.39 51.98 31.95 55.47 31.55 52.90 L 32.08 52.05 Z" />
<path fill="#968176" opacity="1.00" d=" M 42.93 53.79 C 44.51 53.34 45.09 53.94 44.67 55.60 C 43.09 56.04 42.50 55.44 42.93 53.79 Z" />
</g>
</svg>
