<?xml version="1.0" encoding="UTF-8" ?>
<!DOCTYPE svg PUBLIC "-//W3C//DTD SVG 1.1//EN" "http://www.w3.org/Graphics/SVG/1.1/DTD/svg11.dtd">
<svg width="60pt" height="60pt" viewBox="0 0 60 60" version="1.1" xmlns="http://www.w3.org/2000/svg">
<g id="#ffffffff">
<path fill="#ffffff" opacity="1.00" d=" M 0.00 0.00 L 60.00 0.00 L 60.00 60.00 L 0.00 60.00 L 0.00 0.00 M 15.49 10.40 C 9.02 15.01 5.30 23.15 6.11 31.06 C 6.77 39.77 12.92 47.70 21.14 50.60 C 26.22 52.54 31.86 52.27 36.99 50.63 C 38.87 53.28 41.52 55.67 44.92 55.93 C 50.58 56.69 56.09 51.76 55.97 46.06 C 56.16 42.23 53.62 39.05 50.63 36.99 C 54.38 26.89 50.17 14.60 40.76 9.24 C 33.09 4.58 22.69 5.01 15.49 10.40 Z" />
<path fill="#ffffff" opacity="1.00" d=" M 43.41 40.58 C 47.56 38.35 52.96 42.47 51.89 47.06 C 51.33 51.37 45.61 53.53 42.31 50.73 C 38.84 48.25 39.46 42.25 43.41 40.58 Z" />
</g>
<g id="#000000ff">
<path fill="#968176" opacity="1.00" d=" M 15.49 10.40 C 22.69 5.01 33.09 4.58 40.76 9.24 C 50.17 14.60 54.38 26.89 50.63 36.99 C 53.62 39.05 56.16 42.23 55.97 46.06 C 56.09 51.76 50.58 56.69 44.92 55.93 C 41.52 55.67 38.87 53.28 36.99 50.63 C 31.86 52.27 26.22 52.54 21.14 50.60 C 12.92 47.70 6.77 39.77 6.11 31.06 C 5.30 23.15 9.02 15.01 15.49 10.40 M 43.41 40.58 C 39.46 42.25 38.84 48.25 42.31 50.73 C 45.61 53.53 51.33 51.37 51.89 47.06 C 52.96 42.47 47.56 38.35 43.41 40.58 Z" />
</g>
</svg>
