<?xml version="1.0" encoding="UTF-8" ?>
<!DOCTYPE svg PUBLIC "-//W3C//DTD SVG 1.1//EN" "http://www.w3.org/Graphics/SVG/1.1/DTD/svg11.dtd">
<svg width="60pt" height="60pt" viewBox="0 0 60 60" version="1.1" xmlns="http://www.w3.org/2000/svg">
<g id="#ffffffff">
<path fill="#ffffff" opacity="1.00" d=" M 0.00 0.00 L 60.00 0.00 L 60.00 40.42 C 59.38 38.91 58.88 37.28 57.75 36.05 C 56.21 34.94 54.65 36.38 53.24 36.95 C 50.99 35.75 48.80 36.61 46.99 38.13 C 44.43 36.64 41.86 37.71 39.94 39.66 C 38.36 36.34 37.26 32.77 35.33 29.62 C 33.24 26.71 28.30 29.69 29.89 32.89 C 32.67 39.87 35.79 46.70 38.73 53.62 C 34.89 53.46 30.50 52.78 27.22 55.30 C 26.15 56.08 26.31 57.55 26.04 58.70 C 28.88 59.17 31.73 59.62 34.58 60.00 L 0.00 60.00 L 0.00 0.00 M 5.17 10.23 C 3.48 10.92 4.21 13.09 3.86 14.49 C 3.10 15.49 1.93 16.42 2.05 17.84 C 1.95 27.91 1.98 38.00 2.04 48.08 C 1.94 50.15 3.86 51.97 5.88 51.95 C 11.97 52.04 18.08 52.04 24.17 51.96 C 26.92 51.00 29.56 49.58 32.54 49.33 C 32.06 48.26 31.57 47.19 31.08 46.13 C 23.57 44.03 15.58 43.17 8.00 45.49 C 7.97 34.88 8.07 24.27 7.95 13.67 C 14.50 11.66 21.49 11.67 28.05 13.66 C 27.94 17.85 28.05 22.05 27.96 26.24 C 29.25 25.53 30.59 24.93 31.96 24.39 C 32.05 20.76 31.92 17.12 32.10 13.49 C 38.63 11.78 45.40 11.74 51.93 13.51 C 52.09 19.88 51.97 26.26 52.00 32.63 C 53.94 32.00 55.94 31.52 58.00 31.68 C 57.94 27.09 58.10 22.51 57.95 17.93 C 58.04 16.43 56.70 15.45 56.16 14.18 C 55.74 12.91 56.40 10.89 54.86 10.24 C 49.04 8.68 42.91 7.35 36.89 8.54 C 33.54 9.02 30.17 10.49 26.81 9.27 C 19.68 7.24 12.17 8.17 5.17 10.23 Z" />
</g>
<g id="#000000ff">
<path fill="#968176" opacity="1.00" d=" M 5.17 10.23 C 12.17 8.17 19.68 7.24 26.81 9.27 C 30.17 10.49 33.54 9.02 36.89 8.54 C 42.91 7.35 49.04 8.68 54.86 10.24 C 56.40 10.89 55.74 12.91 56.16 14.18 C 56.70 15.45 58.04 16.43 57.95 17.93 C 58.10 22.51 57.94 27.09 58.00 31.68 C 55.94 31.52 53.94 32.00 52.00 32.63 C 51.97 26.26 52.09 19.88 51.93 13.51 C 45.40 11.74 38.63 11.78 32.10 13.49 C 31.92 17.12 32.05 20.76 31.96 24.39 C 30.59 24.93 29.25 25.53 27.96 26.24 C 28.05 22.05 27.94 17.85 28.05 13.66 C 21.49 11.67 14.50 11.66 7.95 13.67 C 8.07 24.27 7.97 34.88 8.00 45.49 C 15.58 43.17 23.57 44.03 31.08 46.13 C 31.57 47.19 32.06 48.26 32.54 49.33 C 29.56 49.58 26.92 51.00 24.17 51.96 C 18.08 52.04 11.97 52.04 5.88 51.95 C 3.86 51.97 1.94 50.15 2.04 48.08 C 1.98 38.00 1.95 27.91 2.05 17.84 C 1.93 16.42 3.10 15.49 3.86 14.49 C 4.21 13.09 3.48 10.92 5.17 10.23 Z" />
<path fill="#968176" opacity="1.00" d=" M 29.89 32.89 C 28.30 29.69 33.24 26.71 35.33 29.62 C 37.26 32.77 38.36 36.34 39.94 39.66 C 41.86 37.71 44.43 36.64 46.99 38.13 C 48.80 36.61 50.99 35.75 53.24 36.95 C 54.65 36.38 56.21 34.94 57.75 36.05 C 58.88 37.28 59.38 38.91 60.00 40.42 L 60.00 60.00 L 34.58 60.00 C 31.73 59.62 28.88 59.17 26.04 58.70 C 26.31 57.55 26.15 56.08 27.22 55.30 C 30.50 52.78 34.89 53.46 38.73 53.62 C 35.79 46.70 32.67 39.87 29.89 32.89 Z" />
</g>
</svg>
