<?xml version="1.0" encoding="UTF-8" ?>
<!DOCTYPE svg PUBLIC "-//W3C//DTD SVG 1.1//EN" "http://www.w3.org/Graphics/SVG/1.1/DTD/svg11.dtd">
<svg width="60pt" height="60pt" viewBox="0 0 60 60" version="1.1" xmlns="http://www.w3.org/2000/svg">
<g id="#ffffffff">
<path fill="#ffffff" opacity="1.00" d=" M 0.00 0.00 L 60.00 0.00 L 60.00 60.00 L 0.00 60.00 L 0.00 0.00 M 8.05 11.90 C 7.91 19.93 8.06 27.97 7.98 36.01 C 7.79 38.45 8.86 40.80 10.47 42.58 C 12.45 44.57 15.48 43.85 18.00 44.04 C 18.00 42.71 18.00 41.38 18.00 40.05 C 16.38 40.00 14.76 40.04 13.15 39.84 C 11.51 39.08 12.12 37.25 12.81 36.05 C 14.54 36.21 16.27 36.36 18.00 36.50 C 18.05 30.96 17.90 25.41 18.05 19.88 C 17.98 16.06 21.09 12.49 24.91 12.13 C 29.97 11.80 35.05 12.10 40.12 12.00 C 40.30 9.43 39.26 5.93 36.10 6.05 C 28.69 5.96 21.28 5.96 13.87 6.05 C 10.75 5.97 7.96 8.78 8.05 11.90 M 25.42 16.59 C 22.97 17.68 21.77 20.42 22.00 23.00 C 22.01 31.02 21.96 39.05 22.02 47.08 C 22.21 50.19 24.36 53.95 27.86 53.95 C 35.90 54.02 43.95 54.09 51.99 53.91 C 54.51 54.25 54.63 49.88 52.12 50.10 C 44.75 49.83 37.36 50.08 29.99 50.01 C 28.64 49.88 26.82 50.35 26.11 48.79 C 25.67 47.56 26.53 45.86 27.98 46.07 C 35.35 45.83 42.74 46.16 50.11 45.95 C 52.15 45.97 54.00 44.11 53.95 42.07 C 54.08 35.03 53.97 27.98 54.00 20.94 C 54.33 18.59 52.63 15.92 50.07 16.05 C 43.71 15.90 37.35 16.08 30.99 15.98 C 29.14 16.05 27.16 15.81 25.42 16.59 Z" />
<path fill="#ffffff" opacity="1.00" d=" M 31.16 24.16 C 35.44 23.84 39.75 23.95 44.03 24.08 C 46.10 23.87 46.69 26.97 44.91 27.82 C 40.60 28.17 36.25 28.04 31.94 27.92 C 29.87 28.11 29.29 24.91 31.16 24.16 Z" />
</g>
<g id="#000000ff">
<path fill="#968176" opacity="1.00" d=" M 8.05 11.90 C 7.96 8.78 10.75 5.97 13.87 6.05 C 21.28 5.96 28.69 5.96 36.10 6.05 C 39.26 5.93 40.30 9.43 40.12 12.00 C 35.05 12.10 29.97 11.80 24.91 12.13 C 21.09 12.49 17.98 16.06 18.05 19.88 C 17.90 25.41 18.05 30.96 18.00 36.50 C 16.27 36.36 14.54 36.21 12.81 36.05 C 12.12 37.25 11.51 39.08 13.15 39.84 C 14.76 40.04 16.38 40.00 18.00 40.05 C 18.00 41.38 18.00 42.71 18.00 44.04 C 15.48 43.85 12.45 44.57 10.47 42.58 C 8.86 40.80 7.79 38.45 7.98 36.01 C 8.06 27.97 7.91 19.93 8.05 11.90 Z" />
<path fill="#968176" opacity="1.00" d=" M 25.42 16.59 C 27.16 15.81 29.14 16.05 30.99 15.98 C 37.35 16.08 43.71 15.90 50.07 16.05 C 52.63 15.92 54.33 18.59 54.00 20.94 C 53.97 27.98 54.08 35.03 53.95 42.07 C 54.00 44.11 52.15 45.97 50.11 45.95 C 42.74 46.16 35.35 45.83 27.98 46.07 C 26.53 45.86 25.67 47.56 26.11 48.79 C 26.82 50.35 28.64 49.88 29.99 50.01 C 37.36 50.08 44.75 49.83 52.12 50.10 C 54.63 49.88 54.51 54.25 51.99 53.91 C 43.95 54.09 35.90 54.02 27.86 53.95 C 24.36 53.95 22.21 50.19 22.02 47.08 C 21.96 39.05 22.01 31.02 22.00 23.00 C 21.77 20.42 22.97 17.68 25.42 16.59 M 31.16 24.16 C 29.29 24.91 29.87 28.11 31.94 27.92 C 36.25 28.04 40.60 28.17 44.91 27.82 C 46.69 26.97 46.10 23.87 44.03 24.08 C 39.75 23.95 35.44 23.84 31.16 24.16 Z" />
</g>
</svg>
