<?xml version="1.0" encoding="UTF-8" ?>
<!DOCTYPE svg PUBLIC "-//W3C//DTD SVG 1.1//EN" "http://www.w3.org/Graphics/SVG/1.1/DTD/svg11.dtd">
<svg width="60pt" height="60pt" viewBox="0 0 60 60" version="1.1" xmlns="http://www.w3.org/2000/svg">
<g id="#ffffffff">
<path fill="#ffffff" opacity="1.00" d=" M 0.00 0.00 L 60.00 0.00 L 60.00 60.00 L 0.00 60.00 L 0.00 0.00 M 7.96 16.00 C 14.26 15.88 20.57 16.24 26.85 15.83 C 28.67 14.10 28.68 9.90 26.85 8.16 C 21.58 7.87 16.27 7.89 11.00 8.15 C 7.46 9.04 7.95 13.20 7.96 16.00 M 33.18 8.16 C 31.30 9.83 31.37 14.04 33.10 15.83 C 39.40 16.24 45.73 15.88 52.04 16.00 C 51.83 13.73 52.58 10.99 50.81 9.18 C 49.61 7.79 47.61 8.05 45.98 7.98 C 41.71 8.08 37.43 7.79 33.18 8.16 M 8.00 19.99 C 8.00 22.66 8.00 25.34 8.00 28.01 C 10.29 28.00 12.60 28.13 14.88 27.83 C 16.84 26.31 15.87 23.33 15.84 21.19 C 14.07 18.92 10.52 20.42 8.00 19.99 M 21.15 20.16 C 19.31 21.86 19.34 26.08 21.13 27.83 C 27.03 28.12 32.97 28.13 38.87 27.83 C 40.57 26.81 39.88 24.57 40.02 22.94 C 40.18 21.69 39.60 19.90 38.04 20.07 C 32.42 19.99 26.77 19.83 21.15 20.16 M 45.09 20.17 C 43.15 21.75 44.14 24.74 44.18 26.91 C 46.09 29.00 49.47 27.61 52.00 28.01 C 52.00 25.34 52.00 22.66 52.00 19.99 C 49.70 20.00 47.38 19.88 45.09 20.17 M 8.00 32.00 C 8.00 34.67 8.00 37.33 8.00 40.00 C 14.29 39.88 20.59 40.25 26.87 39.83 C 28.59 38.81 27.87 36.52 28.01 34.88 C 28.15 33.68 27.62 31.94 26.11 32.08 C 20.08 31.86 14.04 32.07 8.00 32.00 M 33.11 32.17 C 31.35 33.94 31.34 38.06 33.12 39.83 C 39.40 40.24 45.71 39.88 52.00 40.00 C 52.00 37.33 52.00 34.67 52.00 32.00 C 45.71 32.12 39.39 31.76 33.11 32.17 M 7.96 43.99 C 8.11 46.60 7.31 50.27 10.29 51.58 C 12.06 52.23 15.74 52.73 15.95 50.07 C 15.83 48.15 16.77 45.45 14.86 44.17 C 12.57 43.87 10.26 44.01 7.96 43.99 M 21.08 44.17 C 19.37 45.98 19.30 50.13 21.16 51.84 C 26.76 52.17 32.40 52.02 38.01 51.93 C 40.15 52.04 40.09 49.50 40.04 48.01 C 40.10 46.54 40.14 43.91 38.00 44.07 C 32.36 43.99 26.71 43.82 21.08 44.17 M 45.13 44.17 C 43.24 45.44 44.17 48.10 44.04 50.01 C 44.19 52.71 47.86 52.23 49.65 51.61 C 52.64 50.28 51.93 46.62 52.04 43.99 C 49.74 44.01 47.42 43.87 45.13 44.17 Z" />
</g>
<g id="#000000ff">
<path fill="#968176" opacity="1.00" d=" M 7.96 16.00 C 7.95 13.20 7.46 9.04 11.00 8.15 C 16.27 7.89 21.58 7.87 26.85 8.16 C 28.68 9.90 28.67 14.10 26.85 15.83 C 20.57 16.24 14.26 15.88 7.96 16.00 Z" />
<path fill="#968176" opacity="1.00" d=" M 33.18 8.16 C 37.43 7.79 41.71 8.08 45.98 7.98 C 47.61 8.05 49.61 7.79 50.81 9.18 C 52.58 10.99 51.83 13.73 52.04 16.00 C 45.73 15.88 39.40 16.24 33.10 15.83 C 31.37 14.04 31.30 9.83 33.18 8.16 Z" />
<path fill="#968176" opacity="1.00" d=" M 8.00 19.99 C 10.52 20.42 14.07 18.92 15.84 21.19 C 15.87 23.33 16.84 26.31 14.88 27.83 C 12.60 28.13 10.29 28.00 8.00 28.01 C 8.00 25.34 8.00 22.66 8.00 19.99 Z" />
<path fill="#968176" opacity="1.00" d=" M 21.15 20.16 C 26.77 19.83 32.42 19.99 38.04 20.07 C 39.60 19.90 40.18 21.69 40.02 22.94 C 39.88 24.57 40.57 26.81 38.87 27.83 C 32.97 28.13 27.03 28.12 21.13 27.83 C 19.34 26.08 19.31 21.86 21.15 20.16 Z" />
<path fill="#968176" opacity="1.00" d=" M 45.09 20.17 C 47.38 19.88 49.70 20.00 52.00 19.99 C 52.00 22.66 52.00 25.34 52.00 28.01 C 49.47 27.61 46.09 29.00 44.18 26.91 C 44.14 24.74 43.15 21.75 45.09 20.17 Z" />
<path fill="#968176" opacity="1.00" d=" M 8.00 32.00 C 14.04 32.07 20.08 31.86 26.11 32.08 C 27.62 31.94 28.15 33.68 28.01 34.88 C 27.87 36.52 28.59 38.81 26.87 39.83 C 20.59 40.25 14.29 39.88 8.00 40.00 C 8.00 37.33 8.00 34.67 8.00 32.00 Z" />
<path fill="#968176" opacity="1.00" d=" M 33.11 32.17 C 39.39 31.76 45.71 32.12 52.00 32.00 C 52.00 34.67 52.00 37.33 52.00 40.00 C 45.71 39.88 39.40 40.24 33.12 39.83 C 31.34 38.06 31.35 33.94 33.11 32.17 Z" />
<path fill="#968176" opacity="1.00" d=" M 7.96 43.99 C 10.26 44.01 12.57 43.87 14.86 44.17 C 16.77 45.45 15.83 48.15 15.95 50.07 C 15.74 52.73 12.06 52.23 10.29 51.58 C 7.31 50.27 8.11 46.60 7.96 43.99 Z" />
<path fill="#968176" opacity="1.00" d=" M 21.08 44.17 C 26.71 43.82 32.36 43.99 38.00 44.07 C 40.14 43.91 40.10 46.54 40.04 48.01 C 40.09 49.50 40.15 52.04 38.01 51.93 C 32.40 52.02 26.76 52.17 21.16 51.84 C 19.30 50.13 19.37 45.98 21.08 44.17 Z" />
<path fill="#968176" opacity="1.00" d=" M 45.13 44.17 C 47.42 43.87 49.74 44.01 52.04 43.99 C 51.93 46.62 52.64 50.28 49.65 51.61 C 47.86 52.23 44.19 52.71 44.04 50.01 C 44.17 48.10 43.24 45.44 45.13 44.17 Z" />
</g>
</svg>
