<?xml version="1.0" encoding="UTF-8" ?>
<!DOCTYPE svg PUBLIC "-//W3C//DTD SVG 1.1//EN" "http://www.w3.org/Graphics/SVG/1.1/DTD/svg11.dtd">
<svg width="60pt" height="60pt" viewBox="0 0 60 60" version="1.1" xmlns="http://www.w3.org/2000/svg">
<g id="#ffffffff">
<path fill="#ffffff" opacity="1.00" d=" M 0.00 0.00 L 60.00 0.00 L 60.00 60.00 L 0.00 60.00 L 0.00 0.00 M 14.33 2.38 C 12.59 3.18 11.82 5.12 12.00 6.95 C 11.98 21.98 12.03 37.01 11.98 52.05 C 12.07 53.65 11.80 55.60 13.15 56.79 C 14.68 58.39 17.06 57.91 19.03 58.02 C 27.37 57.93 35.71 58.10 44.04 57.95 C 46.58 58.04 48.34 55.45 48.00 53.08 C 47.97 37.36 48.07 21.64 47.95 5.92 C 48.02 3.36 45.43 1.62 43.03 2.00 C 33.48 2.24 23.81 1.50 14.33 2.38 Z" />
<path fill="#ffffff" opacity="1.00" d=" M 26.22 4.01 C 28.07 4.00 29.92 4.01 31.78 4.01 C 31.78 4.50 31.78 5.49 31.78 5.99 C 29.92 5.99 28.07 5.99 26.21 5.99 C 26.21 5.49 26.22 4.50 26.22 4.01 Z" />
<path fill="#ffffff" opacity="1.00" d=" M 34.17 4.15 C 35.81 3.65 36.36 4.21 35.82 5.84 C 34.18 6.35 33.63 5.78 34.17 4.15 Z" />
<path fill="#ffffff" opacity="1.00" d=" M 16.00 5.99 C 17.92 6.00 19.85 6.00 21.77 6.04 C 24.77 9.03 29.24 7.79 33.02 8.01 C 35.02 8.29 36.75 7.25 38.23 6.04 C 40.15 6.01 42.08 6.00 44.00 5.99 C 44.00 21.99 44.00 38.00 44.00 54.00 C 34.67 54.00 25.33 54.00 16.00 54.00 C 16.00 43.80 16.00 33.60 16.00 23.41 C 19.73 25.37 23.41 27.41 27.11 29.42 C 25.91 30.99 24.72 32.58 23.57 34.19 C 27.86 37.70 33.03 40.30 38.26 42.09 C 36.50 38.11 31.93 36.51 28.86 33.67 C 29.87 31.82 32.12 30.21 31.93 27.99 C 27.00 23.94 21.26 20.92 16.00 17.31 C 16.00 13.54 16.00 9.76 16.00 5.99 Z" />
</g>
<g id="#000000ff">
<path fill="#968176" opacity="1.00" d=" M 14.33 2.38 C 23.81 1.50 33.48 2.24 43.03 2.00 C 45.43 1.62 48.02 3.36 47.95 5.92 C 48.07 21.64 47.97 37.36 48.00 53.08 C 48.34 55.45 46.58 58.04 44.04 57.95 C 35.71 58.10 27.37 57.93 19.03 58.02 C 17.06 57.91 14.68 58.39 13.15 56.79 C 11.80 55.60 12.07 53.65 11.98 52.05 C 12.03 37.01 11.98 21.98 12.00 6.95 C 11.82 5.12 12.59 3.18 14.33 2.38 M 26.22 4.01 C 26.22 4.50 26.21 5.49 26.21 5.99 C 28.07 5.99 29.92 5.99 31.78 5.99 C 31.78 5.49 31.78 4.50 31.78 4.01 C 29.92 4.01 28.07 4.00 26.22 4.01 M 34.17 4.15 C 33.63 5.78 34.18 6.35 35.82 5.84 C 36.36 4.21 35.81 3.65 34.17 4.15 M 16.00 5.99 C 16.00 9.76 16.00 13.54 16.00 17.31 C 21.26 20.92 27.00 23.94 31.93 27.99 C 32.12 30.21 29.87 31.82 28.86 33.67 C 31.93 36.51 36.50 38.11 38.26 42.09 C 33.03 40.30 27.86 37.70 23.57 34.19 C 24.72 32.58 25.91 30.99 27.11 29.42 C 23.41 27.41 19.73 25.37 16.00 23.41 C 16.00 33.60 16.00 43.80 16.00 54.00 C 25.33 54.00 34.67 54.00 44.00 54.00 C 44.00 38.00 44.00 21.99 44.00 5.99 C 42.08 6.00 40.15 6.01 38.23 6.04 C 36.75 7.25 35.02 8.29 33.02 8.01 C 29.24 7.79 24.77 9.03 21.77 6.04 C 19.85 6.00 17.92 6.00 16.00 5.99 Z" />
</g>
</svg>
