<?xml version="1.0" encoding="UTF-8" ?>
<!DOCTYPE svg PUBLIC "-//W3C//DTD SVG 1.1//EN" "http://www.w3.org/Graphics/SVG/1.1/DTD/svg11.dtd">
<svg width="60pt" height="60pt" viewBox="0 0 60 60" version="1.1" xmlns="http://www.w3.org/2000/svg">
<g id="#ffffffff">
<path fill="#ffffff" opacity="1.00" d=" M 0.00 0.00 L 60.00 0.00 L 60.00 60.00 L 0.00 60.00 L 0.00 0.00 M 32.39 8.59 C 29.20 9.63 26.23 11.67 24.48 14.57 C 23.04 16.95 25.28 19.58 27.44 20.49 C 32.17 22.44 37.58 22.30 42.51 21.24 C 45.18 20.61 48.66 18.41 47.81 15.24 C 45.10 9.86 38.20 6.74 32.39 8.59 M 13.35 10.50 C 10.16 12.42 13.35 17.65 16.53 15.56 C 19.96 13.71 16.59 8.18 13.35 10.50 M 7.15 18.08 C 4.89 19.23 6.38 22.82 8.79 21.87 C 11.19 20.83 9.58 17.15 7.15 18.08 M 29.24 24.09 C 26.82 25.12 28.38 28.89 30.84 27.88 C 33.09 26.80 31.63 23.18 29.24 24.09 M 45.11 24.09 C 42.89 25.35 44.47 28.86 46.88 27.90 C 49.14 26.64 47.51 23.16 45.11 24.09 M 12.44 26.69 C 9.67 27.85 6.79 29.85 5.97 32.88 C 6.62 37.43 12.29 37.94 15.95 37.99 C 19.63 37.95 25.26 37.47 26.04 32.94 C 24.30 27.69 17.58 24.64 12.44 26.69 M 35.15 28.10 C 32.84 29.18 34.45 32.94 36.78 31.81 C 39.23 30.88 37.54 27.09 35.15 28.10 M 43.25 36.19 C 40.23 36.89 36.83 38.71 35.96 41.90 C 36.34 44.25 38.85 45.23 40.91 45.63 C 44.47 46.17 48.35 46.30 51.70 44.77 C 53.21 44.12 54.78 42.17 53.56 40.58 C 51.34 37.34 47.14 35.45 43.25 36.19 M 9.20 40.10 C 6.80 41.04 8.47 44.99 10.73 43.81 C 13.23 42.97 11.58 39.10 9.20 40.10 M 17.20 42.07 C 14.86 43.18 16.38 46.85 18.81 45.88 C 21.14 44.81 19.61 41.20 17.20 42.07 M 11.23 48.22 C 8.66 48.93 10.60 53.16 12.78 51.77 C 15.33 51.02 13.40 46.88 11.23 48.22 M 39.19 48.08 C 36.83 49.12 38.42 52.93 40.77 51.82 C 43.21 50.86 41.57 47.16 39.19 48.08 M 47.19 50.23 C 44.25 51.27 47.41 55.77 49.37 53.38 C 51.15 52.06 48.97 49.06 47.19 50.23 Z" />
<path fill="#ffffff" opacity="1.00" d=" M 31.18 12.07 C 33.60 11.18 35.15 14.81 32.81 15.88 C 30.41 16.87 28.87 13.20 31.18 12.07 Z" />
</g>
<g id="#000000ff">
<path fill="#968176" opacity="1.00" d=" M 32.39 8.59 C 38.20 6.74 45.10 9.86 47.81 15.24 C 48.66 18.41 45.18 20.61 42.51 21.24 C 37.58 22.30 32.17 22.44 27.44 20.49 C 25.28 19.58 23.04 16.95 24.48 14.57 C 26.23 11.67 29.20 9.63 32.39 8.59 M 31.18 12.07 C 28.87 13.20 30.41 16.87 32.81 15.88 C 35.15 14.81 33.60 11.18 31.18 12.07 Z" />
<path fill="#968176" opacity="1.00" d=" M 13.35 10.50 C 16.59 8.18 19.96 13.71 16.53 15.56 C 13.35 17.65 10.16 12.42 13.35 10.50 Z" />
<path fill="#968176" opacity="1.00" d=" M 7.15 18.08 C 9.58 17.15 11.19 20.83 8.79 21.87 C 6.38 22.82 4.89 19.23 7.15 18.08 Z" />
<path fill="#968176" opacity="1.00" d=" M 29.24 24.09 C 31.63 23.18 33.09 26.80 30.84 27.88 C 28.38 28.89 26.82 25.12 29.24 24.09 Z" />
<path fill="#968176" opacity="1.00" d=" M 45.11 24.09 C 47.51 23.16 49.14 26.64 46.88 27.90 C 44.47 28.86 42.89 25.35 45.11 24.09 Z" />
<path fill="#968176" opacity="1.00" d=" M 12.44 26.69 C 17.58 24.64 24.30 27.69 26.04 32.94 C 25.26 37.47 19.63 37.95 15.95 37.99 C 12.29 37.94 6.62 37.43 5.97 32.88 C 6.79 29.85 9.67 27.85 12.44 26.69 Z" />
<path fill="#968176" opacity="1.00" d=" M 35.15 28.10 C 37.54 27.09 39.23 30.88 36.78 31.81 C 34.45 32.94 32.84 29.18 35.15 28.10 Z" />
<path fill="#968176" opacity="1.00" d=" M 43.25 36.19 C 47.14 35.45 51.34 37.34 53.56 40.58 C 54.78 42.17 53.21 44.12 51.70 44.77 C 48.35 46.30 44.47 46.17 40.91 45.63 C 38.85 45.23 36.34 44.25 35.96 41.90 C 36.83 38.71 40.23 36.89 43.25 36.19 Z" />
<path fill="#968176" opacity="1.00" d=" M 9.20 40.10 C 11.58 39.10 13.23 42.97 10.73 43.81 C 8.47 44.99 6.80 41.04 9.20 40.10 Z" />
<path fill="#968176" opacity="1.00" d=" M 17.20 42.07 C 19.61 41.20 21.14 44.81 18.81 45.88 C 16.38 46.85 14.86 43.18 17.20 42.07 Z" />
<path fill="#968176" opacity="1.00" d=" M 11.23 48.22 C 13.40 46.88 15.33 51.02 12.78 51.77 C 10.60 53.16 8.66 48.93 11.23 48.22 Z" />
<path fill="#968176" opacity="1.00" d=" M 39.19 48.08 C 41.57 47.16 43.21 50.86 40.77 51.82 C 38.42 52.93 36.83 49.12 39.19 48.08 Z" />
<path fill="#968176" opacity="1.00" d=" M 47.19 50.23 C 48.97 49.06 51.15 52.06 49.37 53.38 C 47.41 55.77 44.25 51.27 47.19 50.23 Z" />
</g>
</svg>
