<?xml version="1.0" encoding="UTF-8" ?>
<!DOCTYPE svg PUBLIC "-//W3C//DTD SVG 1.1//EN" "http://www.w3.org/Graphics/SVG/1.1/DTD/svg11.dtd">
<svg width="60pt" height="60pt" viewBox="0 0 60 60" version="1.1" xmlns="http://www.w3.org/2000/svg">
<g id="#ffffffff">
<path fill="#ffffff" opacity="1.00" d=" M 0.00 0.00 L 60.00 0.00 L 60.00 60.00 L 0.00 60.00 L 0.00 0.00 M 39.57 8.16 C 36.03 9.32 33.34 12.05 32.14 15.56 C 30.87 16.36 29.81 17.37 29.93 18.99 C 30.42 19.28 31.40 19.86 31.89 20.15 C 32.05 21.55 31.90 24.08 33.97 23.92 C 39.34 24.06 44.72 24.08 50.09 23.91 C 52.12 24.02 51.93 21.52 52.12 20.16 C 52.60 19.86 53.58 19.28 54.06 18.98 C 54.18 17.36 53.12 16.35 51.85 15.55 C 50.65 12.05 47.96 9.34 44.44 8.16 C 43.54 5.47 40.45 5.45 39.57 8.16 M 9.16 14.19 C 7.25 14.92 7.88 18.12 9.97 17.91 C 14.28 18.03 18.62 18.21 22.91 17.78 C 24.74 16.97 24.09 13.87 22.01 14.08 C 17.73 13.96 13.43 13.81 9.16 14.19 M 9.11 20.20 C 7.27 20.98 7.90 24.13 9.97 23.91 C 14.27 24.04 18.60 24.20 22.88 23.79 C 24.76 22.99 24.09 19.87 21.99 20.08 C 17.70 19.97 13.38 19.80 9.11 20.20 M 4.05 31.90 C 3.96 35.57 3.84 39.26 4.17 42.92 C 9.17 46.76 16.30 46.55 21.99 44.30 C 27.12 46.41 32.86 46.41 37.99 44.30 C 43.67 46.53 50.95 46.82 55.83 42.84 C 56.16 39.21 56.04 35.55 55.95 31.91 C 55.97 29.88 54.17 27.96 52.09 28.05 C 37.71 27.93 23.32 28.03 8.93 28.00 C 6.58 27.65 3.99 29.39 4.05 31.90 M 7.92 48.15 C 8.25 50.05 7.12 53.92 10.04 53.93 C 12.46 54.03 11.87 50.91 12.09 49.33 C 10.71 48.88 9.33 48.48 7.92 48.15 M 47.92 49.33 C 48.10 50.95 47.56 54.11 50.04 53.93 C 52.88 53.81 51.74 50.03 52.07 48.15 C 50.67 48.48 49.29 48.88 47.92 49.33 Z" />
<path fill="#ffffff" opacity="1.00" d=" M 41.17 16.10 C 43.61 15.14 45.16 18.85 42.79 19.89 C 40.38 20.83 38.87 17.18 41.17 16.10 Z" />
</g>
<g id="#000000ff">
<path fill="#968176" opacity="1.00" d=" M 39.57 8.16 C 40.45 5.45 43.54 5.47 44.44 8.16 C 47.96 9.34 50.65 12.05 51.85 15.55 C 53.12 16.35 54.18 17.36 54.06 18.98 C 53.58 19.28 52.60 19.86 52.12 20.16 C 51.93 21.52 52.12 24.02 50.09 23.91 C 44.72 24.08 39.34 24.06 33.97 23.92 C 31.90 24.08 32.05 21.55 31.89 20.15 C 31.40 19.86 30.42 19.28 29.93 18.99 C 29.81 17.37 30.87 16.36 32.14 15.56 C 33.34 12.05 36.03 9.32 39.57 8.16 M 41.17 16.10 C 38.87 17.18 40.38 20.83 42.79 19.89 C 45.16 18.85 43.61 15.14 41.17 16.10 Z" />
<path fill="#968176" opacity="1.00" d=" M 9.16 14.19 C 13.43 13.81 17.73 13.96 22.01 14.08 C 24.09 13.87 24.74 16.97 22.91 17.78 C 18.62 18.21 14.28 18.03 9.97 17.91 C 7.88 18.12 7.25 14.92 9.16 14.19 Z" />
<path fill="#968176" opacity="1.00" d=" M 9.11 20.20 C 13.38 19.80 17.70 19.97 21.99 20.08 C 24.09 19.87 24.76 22.99 22.88 23.79 C 18.60 24.20 14.27 24.04 9.97 23.91 C 7.90 24.13 7.27 20.98 9.11 20.20 Z" />
<path fill="#968176" opacity="1.00" d=" M 4.05 31.90 C 3.99 29.39 6.58 27.65 8.93 28.00 C 23.32 28.03 37.71 27.93 52.09 28.05 C 54.17 27.96 55.97 29.88 55.95 31.91 C 56.04 35.55 56.16 39.21 55.83 42.84 C 50.95 46.82 43.67 46.53 37.99 44.30 C 32.86 46.41 27.12 46.41 21.99 44.30 C 16.30 46.55 9.17 46.76 4.17 42.92 C 3.84 39.26 3.96 35.57 4.05 31.90 Z" />
<path fill="#968176" opacity="1.00" d=" M 7.92 48.15 C 9.33 48.48 10.71 48.88 12.09 49.33 C 11.87 50.91 12.46 54.03 10.04 53.93 C 7.12 53.92 8.25 50.05 7.92 48.15 Z" />
<path fill="#968176" opacity="1.00" d=" M 47.92 49.33 C 49.29 48.88 50.67 48.48 52.07 48.15 C 51.74 50.03 52.88 53.81 50.04 53.93 C 47.56 54.11 48.10 50.95 47.92 49.33 Z" />
</g>
</svg>
