<?xml version="1.0" encoding="UTF-8" ?>
<!DOCTYPE svg PUBLIC "-//W3C//DTD SVG 1.1//EN" "http://www.w3.org/Graphics/SVG/1.1/DTD/svg11.dtd">
<svg width="60pt" height="60pt" viewBox="0 0 60 60" version="1.1" xmlns="http://www.w3.org/2000/svg">
<g id="#ffffffff">
<path fill="#ffffff" opacity="1.00" d=" M 0.00 0.00 L 60.00 0.00 L 60.00 60.00 L 0.00 60.00 L 0.00 0.00 M 2.24 14.24 C 1.91 26.15 1.71 38.10 2.36 50.00 C 5.13 49.00 7.92 47.83 10.92 47.97 C 23.64 48.01 36.36 48.01 49.07 47.97 C 52.08 47.83 54.87 49.00 57.64 50.00 C 58.30 38.10 58.09 26.15 57.76 14.24 C 39.26 13.84 20.74 13.85 2.24 14.24 Z" />
<path fill="#ffffff" opacity="1.00" d=" M 22.00 18.01 C 27.33 17.99 32.67 17.99 38.00 18.01 C 38.00 20.00 38.00 22.00 38.00 23.99 C 32.67 24.00 27.33 24.00 22.00 23.99 C 22.00 22.00 22.00 20.00 22.00 18.01 Z" />
<path fill="#ffffff" opacity="1.00" d=" M 13.57 28.61 C 15.00 28.46 16.42 28.30 17.85 28.16 C 17.70 29.58 17.54 31.00 17.37 32.42 C 15.47 31.84 14.16 30.50 13.57 28.61 Z" />
<path fill="#ffffff" opacity="1.00" d=" M 22.00 28.01 C 27.33 27.99 32.67 27.99 38.00 28.01 C 38.00 30.00 38.00 32.00 38.00 33.99 C 32.67 34.00 27.33 34.00 22.00 33.99 C 22.00 32.00 22.00 30.00 22.00 28.01 Z" />
<path fill="#ffffff" opacity="1.00" d=" M 41.95 27.96 C 43.41 28.28 44.88 28.59 46.26 29.16 C 46.04 30.85 44.87 32.08 43.15 32.26 C 42.62 30.87 42.28 29.41 41.95 27.96 Z" />
<path fill="#ffffff" opacity="1.00" d=" M 22.00 38.01 C 27.33 37.99 32.67 37.99 38.00 38.01 C 38.00 40.00 38.00 42.00 38.00 43.99 C 32.67 44.00 27.33 44.00 22.00 43.99 C 22.00 42.00 22.00 40.00 22.00 38.01 Z" />
</g>
<g id="#000000ff">
<path fill="#968176" opacity="1.00" d=" M 2.24 14.24 C 20.74 13.85 39.26 13.84 57.76 14.24 C 58.09 26.15 58.30 38.10 57.64 50.00 C 54.87 49.00 52.08 47.83 49.07 47.97 C 36.36 48.01 23.64 48.01 10.92 47.97 C 7.92 47.83 5.13 49.00 2.36 50.00 C 1.71 38.10 1.91 26.15 2.24 14.24 M 22.00 18.01 C 22.00 20.00 22.00 22.00 22.00 23.99 C 27.33 24.00 32.67 24.00 38.00 23.99 C 38.00 22.00 38.00 20.00 38.00 18.01 C 32.67 17.99 27.33 17.99 22.00 18.01 M 13.57 28.61 C 14.16 30.50 15.47 31.84 17.37 32.42 C 17.54 31.00 17.70 29.58 17.85 28.16 C 16.42 28.30 15.00 28.46 13.57 28.61 M 22.00 28.01 C 22.00 30.00 22.00 32.00 22.00 33.99 C 27.33 34.00 32.67 34.00 38.00 33.99 C 38.00 32.00 38.00 30.00 38.00 28.01 C 32.67 27.99 27.33 27.99 22.00 28.01 M 41.95 27.96 C 42.28 29.41 42.62 30.87 43.15 32.26 C 44.87 32.08 46.04 30.85 46.26 29.16 C 44.88 28.59 43.41 28.28 41.95 27.96 M 22.00 38.01 C 22.00 40.00 22.00 42.00 22.00 43.99 C 27.33 44.00 32.67 44.00 38.00 43.99 C 38.00 42.00 38.00 40.00 38.00 38.01 C 32.67 37.99 27.33 37.99 22.00 38.01 Z" />
</g>
</svg>
