<?xml version="1.0" encoding="UTF-8" ?>
<!DOCTYPE svg PUBLIC "-//W3C//DTD SVG 1.1//EN" "http://www.w3.org/Graphics/SVG/1.1/DTD/svg11.dtd">
<svg width="60pt" height="60pt" viewBox="0 0 60 60" version="1.1" xmlns="http://www.w3.org/2000/svg">
<g id="#ffffffff">
<path fill="#ffffff" opacity="1.00" d=" M 0.00 0.00 L 60.00 0.00 L 60.00 60.00 L 0.00 60.00 L 0.00 0.00 M 24.11 3.85 C 21.25 7.37 19.04 11.52 15.33 14.26 C 11.55 17.39 6.74 20.50 6.19 25.84 C 5.80 31.23 6.04 36.66 6.03 42.06 C 5.93 46.29 9.72 50.06 13.95 49.97 C 25.63 50.06 37.31 49.95 48.98 50.02 C 50.50 49.95 52.52 50.22 53.44 48.68 C 54.85 46.92 53.36 43.94 51.09 44.07 C 46.90 43.87 42.70 44.07 38.50 44.00 C 38.94 37.97 39.60 31.96 39.94 25.93 C 40.08 22.79 37.21 19.96 34.09 20.04 C 30.21 19.91 26.34 20.05 22.46 20.00 C 24.36 16.77 26.65 13.68 27.83 10.10 C 28.70 7.28 26.78 4.62 24.11 3.85 Z" />
</g>
<g id="#000000ff">
<path fill="#968176" opacity="1.00" d=" M 24.11 3.85 C 26.78 4.62 28.70 7.28 27.83 10.10 C 26.65 13.68 24.36 16.77 22.46 20.00 C 26.34 20.05 30.21 19.91 34.09 20.04 C 37.21 19.96 40.08 22.79 39.94 25.93 C 39.60 31.96 38.94 37.97 38.50 44.00 C 42.70 44.07 46.90 43.87 51.09 44.07 C 53.36 43.94 54.85 46.92 53.44 48.68 C 52.52 50.22 50.50 49.95 48.98 50.02 C 37.31 49.95 25.63 50.06 13.95 49.97 C 9.72 50.06 5.93 46.29 6.03 42.06 C 6.04 36.66 5.80 31.23 6.19 25.84 C 6.74 20.50 11.55 17.39 15.33 14.26 C 19.04 11.52 21.25 7.37 24.11 3.85 Z" />
</g>
</svg>
