<?xml version="1.0" encoding="UTF-8" ?>
<!DOCTYPE svg PUBLIC "-//W3C//DTD SVG 1.1//EN" "http://www.w3.org/Graphics/SVG/1.1/DTD/svg11.dtd">
<svg width="60pt" height="60pt" viewBox="0 0 60 60" version="1.1" xmlns="http://www.w3.org/2000/svg">
<g id="#ffffffff">
<path fill="#ffffff" opacity="1.00" d=" M 0.00 0.00 L 60.00 0.00 L 60.00 60.00 L 0.00 60.00 L 0.00 0.00 M 14.35 6.53 C 11.23 7.46 9.27 10.41 8.21 13.33 C 6.07 19.29 6.04 25.75 6.07 32.01 C 6.28 38.14 6.54 44.73 9.95 50.06 C 11.98 53.30 16.22 54.63 19.84 53.71 C 21.03 53.35 22.81 52.63 22.46 51.05 C 21.70 47.43 20.79 43.83 19.63 40.32 C 18.03 38.27 14.13 39.43 12.95 36.95 C 12.17 32.66 12.25 28.24 12.77 23.93 C 13.00 20.01 19.06 22.31 19.93 18.88 C 20.79 15.27 22.33 11.68 22.38 7.98 C 20.63 5.52 16.95 5.75 14.35 6.53 M 46.36 6.52 C 41.16 8.29 39.56 14.31 38.74 19.16 C 37.75 27.82 37.45 36.79 39.74 45.27 C 40.84 49.57 44.06 53.92 48.90 53.97 C 50.89 54.06 54.49 53.73 54.46 51.07 C 53.70 47.45 52.80 43.84 51.64 40.34 C 49.95 38.07 44.93 39.62 44.76 35.97 C 44.25 31.68 44.16 27.26 44.97 23.00 C 46.23 20.30 51.07 22.03 51.92 18.90 C 52.81 15.30 54.25 11.73 54.42 8.02 C 52.66 5.52 48.98 5.75 46.36 6.52 M 27.13 24.05 C 25.50 24.98 26.04 26.78 26.86 28.05 C 24.30 28.01 21.71 27.82 19.17 28.19 C 17.61 28.81 17.60 31.24 19.20 31.81 C 21.73 32.19 24.31 31.98 26.86 31.96 C 25.28 33.48 26.29 36.87 28.72 35.79 C 30.65 33.96 34.05 32.20 33.85 29.23 C 31.88 27.33 30.19 23.96 27.13 24.05 Z" />
</g>
<g id="#000000ff">
<path fill="#968176" opacity="1.00" d=" M 14.35 6.53 C 16.95 5.75 20.63 5.52 22.38 7.98 C 22.33 11.68 20.79 15.27 19.93 18.88 C 19.06 22.31 13.00 20.01 12.77 23.93 C 12.25 28.24 12.17 32.66 12.95 36.95 C 14.13 39.43 18.03 38.27 19.63 40.32 C 20.79 43.83 21.70 47.43 22.46 51.05 C 22.81 52.63 21.03 53.35 19.84 53.71 C 16.22 54.63 11.98 53.30 9.95 50.06 C 6.54 44.73 6.28 38.14 6.07 32.01 C 6.04 25.75 6.07 19.29 8.21 13.33 C 9.27 10.41 11.23 7.46 14.35 6.53 Z" />
<path fill="#968176" opacity="1.00" d=" M 46.36 6.52 C 48.98 5.75 52.66 5.52 54.42 8.02 C 54.25 11.73 52.81 15.30 51.92 18.90 C 51.07 22.03 46.23 20.30 44.97 23.00 C 44.16 27.26 44.25 31.68 44.76 35.97 C 44.93 39.62 49.95 38.07 51.64 40.34 C 52.80 43.84 53.70 47.45 54.46 51.07 C 54.49 53.73 50.89 54.06 48.90 53.97 C 44.06 53.92 40.84 49.57 39.74 45.27 C 37.45 36.79 37.75 27.82 38.74 19.16 C 39.56 14.31 41.16 8.29 46.36 6.52 Z" />
<path fill="#968176" opacity="1.00" d=" M 27.13 24.05 C 30.19 23.96 31.88 27.33 33.85 29.23 C 34.05 32.20 30.65 33.96 28.72 35.79 C 26.29 36.87 25.28 33.48 26.86 31.96 C 24.31 31.98 21.73 32.19 19.20 31.81 C 17.60 31.24 17.61 28.81 19.17 28.19 C 21.71 27.82 24.30 28.01 26.86 28.05 C 26.04 26.78 25.50 24.98 27.13 24.05 Z" />
</g>
</svg>
