<?xml version="1.0" encoding="UTF-8" ?>
<!DOCTYPE svg PUBLIC "-//W3C//DTD SVG 1.1//EN" "http://www.w3.org/Graphics/SVG/1.1/DTD/svg11.dtd">
<svg width="60pt" height="60pt" viewBox="0 0 60 60" version="1.1" xmlns="http://www.w3.org/2000/svg">
<g id="#ffffffff">
<path fill="#ffffff" opacity="1.00" d=" M 0.00 0.00 L 60.00 0.00 L 60.00 60.00 L 0.00 60.00 L 0.00 0.00 M 6.43 10.40 C 4.05 11.05 4.05 13.91 3.98 15.90 C 3.97 24.97 4.03 34.04 3.96 43.10 C 4.08 45.04 3.81 47.26 5.11 48.89 C 6.75 50.16 8.95 49.93 10.89 50.04 C 23.63 49.98 36.37 49.98 49.11 50.04 C 51.03 49.91 53.27 50.21 54.84 48.85 C 56.02 47.56 55.91 45.71 56.02 44.10 C 56.03 35.03 55.97 25.96 56.04 16.89 C 55.92 14.95 56.17 12.74 54.88 11.12 C 53.27 9.80 51.04 10.08 49.10 9.96 C 36.71 10.01 24.31 10.04 11.91 9.95 C 10.08 9.99 8.21 9.90 6.43 10.40 Z" />
<path fill="#ffffff" opacity="1.00" d=" M 10.15 16.15 C 23.37 15.89 36.63 15.89 49.85 16.15 C 50.13 25.37 50.13 34.63 49.85 43.85 C 36.63 44.11 23.37 44.11 10.15 43.85 C 9.87 34.63 9.88 25.37 10.15 16.15 M 14.06 20.06 C 13.90 22.15 13.94 24.26 14.12 26.35 C 17.24 25.60 19.60 23.25 20.35 20.12 C 18.26 19.94 16.15 19.90 14.06 20.06 M 39.65 20.12 C 40.39 23.25 42.76 25.60 45.88 26.35 C 46.06 24.26 46.10 22.15 45.94 20.06 C 43.85 19.90 41.74 19.94 39.65 20.12 M 14.12 33.65 C 13.94 35.74 13.90 37.84 14.06 39.94 C 16.15 40.10 18.26 40.06 20.35 39.88 C 19.60 36.76 17.25 34.39 14.12 33.65 M 39.65 39.88 C 41.74 40.06 43.84 40.10 45.94 39.94 C 46.10 37.84 46.06 35.74 45.88 33.65 C 42.75 34.39 40.39 36.75 39.65 39.88 Z" />
</g>
<g id="#000000ff">
<path fill="#968176" opacity="1.00" d=" M 6.43 10.40 C 8.21 9.90 10.08 9.99 11.91 9.95 C 24.31 10.04 36.71 10.01 49.10 9.96 C 51.04 10.08 53.27 9.80 54.88 11.12 C 56.17 12.74 55.92 14.95 56.04 16.89 C 55.97 25.96 56.03 35.03 56.02 44.10 C 55.91 45.71 56.02 47.56 54.84 48.85 C 53.27 50.21 51.03 49.91 49.11 50.04 C 36.37 49.98 23.63 49.98 10.89 50.04 C 8.95 49.93 6.75 50.16 5.11 48.89 C 3.81 47.26 4.08 45.04 3.96 43.10 C 4.03 34.04 3.97 24.97 3.98 15.90 C 4.05 13.91 4.05 11.05 6.43 10.40 M 10.15 16.15 C 9.88 25.37 9.87 34.63 10.15 43.85 C 23.37 44.11 36.63 44.11 49.85 43.85 C 50.13 34.63 50.13 25.37 49.85 16.15 C 36.63 15.89 23.37 15.89 10.15 16.15 Z" />
<path fill="#968176" opacity="1.00" d=" M 14.06 20.06 C 16.15 19.90 18.26 19.94 20.35 20.12 C 19.60 23.25 17.24 25.60 14.12 26.35 C 13.94 24.26 13.90 22.15 14.06 20.06 Z" />
<path fill="#968176" opacity="1.00" d=" M 39.65 20.12 C 41.74 19.94 43.85 19.90 45.94 20.06 C 46.10 22.15 46.06 24.26 45.88 26.35 C 42.76 25.60 40.39 23.25 39.65 20.12 Z" />
<path fill="#968176" opacity="1.00" d=" M 14.12 33.65 C 17.25 34.39 19.60 36.76 20.35 39.88 C 18.26 40.06 16.15 40.10 14.06 39.94 C 13.90 37.84 13.94 35.74 14.12 33.65 Z" />
<path fill="#968176" opacity="1.00" d=" M 39.65 39.88 C 40.39 36.75 42.75 34.39 45.88 33.65 C 46.06 35.74 46.10 37.84 45.94 39.94 C 43.84 40.10 41.74 40.06 39.65 39.88 Z" />
</g>
</svg>
