<?xml version="1.0" encoding="UTF-8" ?>
<!DOCTYPE svg PUBLIC "-//W3C//DTD SVG 1.1//EN" "http://www.w3.org/Graphics/SVG/1.1/DTD/svg11.dtd">
<svg width="300pt" height="300pt" viewBox="0 0 300 300" version="1.1" xmlns="http://www.w3.org/2000/svg">
<g id="#ffffffff">
<path fill="#ffffff" opacity="1.00" d=" M 0.00 0.00 L 300.00 0.00 L 300.00 243.58 C 299.63 231.31 296.71 218.66 289.09 208.78 C 279.82 196.02 264.19 189.37 248.74 188.54 C 247.25 172.90 241.34 157.52 230.96 145.61 C 241.55 139.82 248.60 128.17 248.59 116.06 C 258.14 114.01 267.03 108.83 272.90 100.94 C 279.93 91.20 282.67 78.10 278.68 66.59 C 273.98 50.52 257.75 38.81 240.99 39.67 C 236.35 40.01 234.04 44.90 233.56 48.97 C 233.25 53.61 232.53 58.31 233.04 62.95 C 233.66 67.52 239.70 70.00 243.39 67.27 C 247.90 64.56 246.26 58.39 246.97 54.01 C 256.04 55.72 263.99 63.06 265.91 72.17 C 268.90 82.98 263.08 95.15 253.08 100.03 C 243.71 104.94 231.16 102.77 224.14 94.80 C 220.03 90.93 218.51 85.40 217.17 80.12 C 220.73 81.84 225.16 84.26 229.06 82.08 C 233.48 79.67 233.65 72.22 228.93 70.08 C 223.82 68.10 218.65 65.43 213.01 65.74 C 210.20 66.11 207.04 67.19 205.65 69.88 C 202.23 75.82 203.61 83.13 205.35 89.39 C 208.80 101.97 219.64 111.81 232.11 115.12 C 231.71 119.57 230.58 124.15 227.43 127.49 C 224.97 130.74 220.80 131.52 217.29 133.08 C 208.16 126.96 197.98 122.33 187.08 120.58 C 191.64 113.41 188.74 102.55 180.79 99.17 C 173.44 95.57 163.48 99.04 160.55 106.82 C 158.59 110.84 159.10 115.55 160.85 119.54 C 154.75 119.47 148.65 119.47 142.55 119.54 C 144.26 115.89 144.89 111.59 143.35 107.77 C 141.39 101.85 135.32 97.49 129.05 97.78 C 123.31 97.69 117.75 101.32 115.50 106.59 C 113.55 110.90 114.12 115.92 115.93 120.18 C 104.22 121.68 93.17 126.39 83.42 132.97 C 80.12 131.59 76.34 130.93 73.72 128.31 C 70.33 124.79 68.88 119.83 68.51 115.05 C 86.31 110.71 99.27 92.13 96.58 73.90 C 95.84 68.99 90.89 65.36 86.02 65.72 C 79.78 65.89 74.44 69.73 68.26 70.30 C 67.93 62.72 68.11 55.05 66.71 47.56 C 66.16 43.98 63.82 40.16 59.93 39.70 C 42.24 38.60 24.99 51.72 21.14 69.00 C 18.22 81.40 21.60 95.37 30.65 104.50 C 36.27 110.59 43.99 114.24 51.99 116.04 C 52.51 127.88 58.48 140.13 69.57 145.35 C 63.32 153.44 57.85 162.34 54.95 172.21 C 53.45 177.56 52.36 183.02 51.82 188.55 C 40.22 189.30 28.53 192.85 19.52 200.42 C 6.19 210.86 0.36 228.50 0.60 244.97 C 0.49 250.51 6.68 255.01 11.84 252.81 C 16.19 251.23 17.53 246.16 17.37 241.98 C 17.48 230.54 22.15 218.45 31.96 211.94 C 37.90 207.49 45.37 206.06 52.58 205.31 C 53.85 212.33 55.67 219.31 58.83 225.74 C 47.76 228.74 37.59 235.51 31.55 245.38 C 26.85 252.60 24.26 261.34 24.71 269.95 C 25.13 275.94 32.98 279.62 37.72 275.79 C 40.66 273.80 41.36 270.23 41.43 266.92 C 42.19 253.02 54.90 241.06 68.92 241.56 C 82.56 258.15 103.66 268.07 125.09 268.42 C 140.39 268.63 155.70 268.42 171.01 268.53 C 173.91 268.50 177.14 268.45 179.52 266.55 C 182.28 264.10 183.70 259.73 181.69 256.39 C 180.16 253.16 176.45 251.72 173.04 251.77 C 156.78 251.67 140.51 251.85 124.24 251.69 C 107.73 251.36 91.98 243.04 81.44 230.52 C 68.11 214.52 64.70 190.96 72.87 171.83 C 78.78 156.56 92.07 144.58 107.48 139.32 C 115.94 136.19 125.10 135.90 134.03 136.00 C 147.68 136.07 161.33 135.88 174.98 136.09 C 184.86 136.30 194.54 139.07 203.20 143.75 C 215.89 151.29 225.98 163.56 229.82 177.92 C 236.53 199.34 228.36 224.02 211.31 238.30 C 209.12 240.27 206.32 241.97 205.53 245.03 C 204.37 249.46 207.70 254.51 212.25 255.16 C 216.34 256.13 219.58 252.90 222.54 250.61 C 226.01 248.02 228.26 244.15 231.75 241.61 C 243.51 241.23 254.57 249.71 257.91 260.87 C 259.48 264.96 258.59 269.65 260.71 273.58 C 262.63 276.52 266.62 278.31 270.02 276.94 C 273.51 276.06 275.75 272.52 275.91 269.05 C 276.07 256.28 270.04 243.82 260.51 235.43 C 255.06 230.66 248.36 227.65 241.42 225.76 C 244.63 219.33 246.75 212.39 247.83 205.29 C 256.39 205.98 265.16 208.34 271.56 214.36 C 280.63 221.74 283.18 234.03 283.36 245.16 C 283.36 250.37 288.90 254.63 293.90 253.04 C 297.50 252.23 299.52 248.57 300.00 245.17 L 300.00 300.00 L 0.00 300.00 L 0.00 0.00 M 121.25 199.29 C 120.34 199.93 119.18 200.65 119.13 201.90 C 119.05 207.62 121.19 213.67 125.93 217.15 C 132.32 223.14 141.36 225.30 149.92 225.15 C 158.71 224.80 167.98 221.91 173.86 215.04 C 176.83 211.75 178.08 207.32 178.44 202.99 C 178.42 200.38 175.64 197.79 173.04 199.03 C 169.08 200.23 170.81 205.27 168.65 207.97 C 164.29 214.15 156.36 216.77 149.03 216.71 C 141.42 216.86 132.98 214.30 128.68 207.58 C 126.86 205.14 128.00 201.48 125.56 199.43 C 124.40 198.53 122.48 198.53 121.25 199.29 Z" />
<path fill="#ffffff" opacity="1.00" d=" M 34.10 79.06 C 33.22 67.30 42.28 56.10 53.79 53.96 C 53.90 60.98 54.17 68.02 55.05 75.00 C 55.25 78.02 56.82 81.02 59.42 82.62 C 67.13 85.88 75.63 83.56 83.00 80.49 C 82.27 88.62 77.20 96.31 69.81 99.88 C 64.05 102.81 57.06 103.63 50.92 101.41 C 41.46 98.40 34.19 89.06 34.10 79.06 Z" />
</g>
<g id="#000000ff">
<path fill="#968176" opacity="1.00" d=" M 21.14 69.00 C 24.99 51.72 42.24 38.60 59.93 39.70 C 63.82 40.16 66.16 43.98 66.71 47.56 C 68.11 55.05 67.93 62.72 68.26 70.30 C 74.44 69.73 79.78 65.89 86.02 65.72 C 90.89 65.36 95.84 68.99 96.58 73.90 C 99.27 92.13 86.31 110.71 68.51 115.05 C 68.88 119.83 70.33 124.79 73.72 128.31 C 76.34 130.93 80.12 131.59 83.42 132.97 C 93.17 126.39 104.22 121.68 115.93 120.18 C 114.12 115.92 113.55 110.90 115.50 106.59 C 117.75 101.32 123.31 97.69 129.05 97.78 C 135.32 97.49 141.39 101.85 143.35 107.77 C 144.89 111.59 144.26 115.89 142.55 119.54 C 148.65 119.47 154.75 119.47 160.85 119.54 C 159.10 115.55 158.59 110.84 160.55 106.82 C 163.48 99.04 173.44 95.57 180.79 99.17 C 188.74 102.55 191.64 113.41 187.08 120.58 C 197.98 122.33 208.16 126.96 217.29 133.08 C 220.80 131.52 224.97 130.74 227.43 127.49 C 230.58 124.15 231.71 119.57 232.11 115.12 C 219.64 111.81 208.80 101.97 205.35 89.39 C 203.61 83.13 202.23 75.82 205.65 69.88 C 207.04 67.19 210.20 66.11 213.01 65.74 C 218.65 65.43 223.82 68.10 228.93 70.08 C 233.65 72.22 233.48 79.67 229.06 82.08 C 225.16 84.26 220.73 81.84 217.17 80.12 C 218.51 85.40 220.03 90.93 224.14 94.80 C 231.16 102.77 243.71 104.94 253.08 100.03 C 263.08 95.15 268.90 82.98 265.91 72.17 C 263.99 63.06 256.04 55.72 246.97 54.01 C 246.26 58.39 247.90 64.56 243.39 67.27 C 239.70 70.00 233.66 67.52 233.04 62.95 C 232.53 58.31 233.25 53.61 233.56 48.97 C 234.04 44.90 236.35 40.01 240.99 39.67 C 257.75 38.81 273.98 50.52 278.68 66.59 C 282.67 78.10 279.93 91.20 272.90 100.94 C 267.03 108.83 258.14 114.01 248.59 116.06 C 248.60 128.17 241.55 139.82 230.96 145.61 C 241.34 157.52 247.25 172.90 248.74 188.54 C 264.19 189.37 279.82 196.02 289.09 208.78 C 296.71 218.66 299.63 231.31 300.00 243.58 L 300.00 245.17 C 299.52 248.57 297.50 252.23 293.90 253.04 C 288.90 254.63 283.36 250.37 283.36 245.16 C 283.18 234.03 280.63 221.74 271.56 214.36 C 265.16 208.34 256.39 205.98 247.83 205.29 C 246.75 212.39 244.63 219.33 241.42 225.76 C 248.36 227.65 255.06 230.66 260.51 235.43 C 270.04 243.82 276.07 256.28 275.91 269.05 C 275.75 272.52 273.51 276.06 270.02 276.94 C 266.62 278.31 262.63 276.52 260.71 273.58 C 258.59 269.65 259.48 264.96 257.91 260.87 C 254.57 249.71 243.51 241.23 231.75 241.61 C 228.26 244.15 226.01 248.02 222.54 250.61 C 219.58 252.90 216.34 256.13 212.25 255.16 C 207.70 254.51 204.37 249.46 205.53 245.03 C 206.32 241.97 209.12 240.27 211.31 238.30 C 228.36 224.02 236.53 199.34 229.82 177.92 C 225.98 163.56 215.89 151.29 203.20 143.75 C 194.54 139.07 184.86 136.30 174.98 136.09 C 161.33 135.88 147.68 136.07 134.03 136.00 C 125.10 135.90 115.94 136.19 107.48 139.32 C 92.07 144.58 78.78 156.56 72.87 171.83 C 64.70 190.96 68.11 214.52 81.44 230.52 C 91.98 243.04 107.73 251.36 124.24 251.69 C 140.51 251.85 156.78 251.67 173.04 251.77 C 176.45 251.72 180.16 253.16 181.69 256.39 C 183.70 259.73 182.28 264.10 179.52 266.55 C 177.14 268.45 173.91 268.50 171.01 268.53 C 155.70 268.42 140.39 268.63 125.09 268.42 C 103.66 268.07 82.56 258.15 68.92 241.56 C 54.90 241.06 42.19 253.02 41.43 266.92 C 41.36 270.23 40.66 273.80 37.72 275.79 C 32.98 279.62 25.13 275.94 24.71 269.95 C 24.26 261.34 26.85 252.60 31.55 245.38 C 37.59 235.51 47.76 228.74 58.83 225.74 C 55.67 219.31 53.85 212.33 52.58 205.31 C 45.37 206.06 37.90 207.49 31.96 211.94 C 22.15 218.45 17.48 230.54 17.37 241.98 C 17.53 246.16 16.19 251.23 11.84 252.81 C 6.68 255.01 0.49 250.51 0.60 244.97 C 0.36 228.50 6.19 210.86 19.52 200.42 C 28.53 192.85 40.22 189.30 51.82 188.55 C 52.36 183.02 53.45 177.56 54.95 172.21 C 57.85 162.34 63.32 153.44 69.57 145.35 C 58.48 140.13 52.51 127.88 51.99 116.04 C 43.99 114.24 36.27 110.59 30.65 104.50 C 21.60 95.37 18.22 81.40 21.14 69.00 M 34.10 79.06 C 34.19 89.06 41.46 98.40 50.92 101.41 C 57.06 103.63 64.05 102.81 69.81 99.88 C 77.20 96.31 82.27 88.62 83.00 80.49 C 75.63 83.56 67.13 85.88 59.42 82.62 C 56.82 81.02 55.25 78.02 55.05 75.00 C 54.17 68.02 53.90 60.98 53.79 53.96 C 42.28 56.10 33.22 67.30 34.10 79.06 Z" />
<path fill="#968176" opacity="1.00" d=" M 121.25 199.29 C 122.48 198.53 124.40 198.53 125.56 199.43 C 128.00 201.48 126.86 205.14 128.68 207.58 C 132.98 214.30 141.42 216.86 149.03 216.71 C 156.36 216.77 164.29 214.15 168.65 207.97 C 170.81 205.27 169.08 200.23 173.04 199.03 C 175.64 197.79 178.42 200.38 178.44 202.99 C 178.08 207.32 176.83 211.75 173.86 215.04 C 167.98 221.91 158.71 224.80 149.92 225.15 C 141.36 225.30 132.32 223.14 125.93 217.15 C 121.19 213.67 119.05 207.62 119.13 201.90 C 119.18 200.65 120.34 199.93 121.25 199.29 Z" />
</g>
</svg>
