<?xml version="1.0" encoding="UTF-8" ?>
<!DOCTYPE svg PUBLIC "-//W3C//DTD SVG 1.1//EN" "http://www.w3.org/Graphics/SVG/1.1/DTD/svg11.dtd">
<svg width="60pt" height="60pt" viewBox="0 0 60 60" version="1.1" xmlns="http://www.w3.org/2000/svg">
<g id="#ffffffff">
<path fill="#ffffff" opacity="1.00" d=" M 0.00 0.00 L 60.00 0.00 L 60.00 60.00 L 0.00 60.00 L 0.00 0.00 M 35.53 11.10 C 34.97 13.66 35.74 16.24 36.29 18.72 C 35.11 21.36 35.09 24.25 35.91 26.99 C 34.98 28.60 34.23 30.31 33.73 32.11 C 31.98 33.27 30.09 34.17 28.14 34.93 C 26.51 34.62 24.85 34.41 23.19 34.36 C 20.76 33.06 19.00 30.97 17.27 28.89 C 16.03 24.66 16.76 20.32 16.51 16.01 C 16.12 13.29 12.73 13.79 11.13 15.06 C 6.66 17.98 7.07 24.00 4.00 27.97 C 5.00 30.47 7.11 32.77 6.50 35.66 C 6.58 36.86 5.77 38.26 6.51 39.33 C 7.19 39.60 8.55 40.15 9.23 40.42 C 9.64 41.67 10.05 42.92 10.45 44.18 C 9.19 46.71 11.21 48.84 13.77 47.52 C 16.15 47.89 18.13 49.19 19.79 50.88 C 20.29 51.91 20.25 54.45 22.06 53.95 C 22.88 53.58 23.66 53.14 24.40 52.64 C 28.12 52.26 31.95 51.94 35.41 53.67 C 37.20 54.77 37.77 52.31 38.52 51.22 C 40.05 50.20 41.69 49.38 43.43 48.81 C 44.09 49.11 45.40 49.72 46.05 50.03 C 48.18 49.88 47.93 47.73 47.62 46.23 C 48.96 43.20 50.47 40.17 53.74 38.88 C 54.28 34.09 52.82 29.31 53.69 24.58 C 54.24 24.12 55.34 23.19 55.90 22.73 C 56.47 21.02 54.74 20.34 53.66 19.47 C 52.02 13.62 46.67 9.85 44.90 4.05 C 40.59 3.65 36.39 6.89 35.53 11.10 Z" />
<path fill="#ffffff" opacity="1.00" d=" M 41.22 12.21 C 43.50 10.96 45.23 14.94 42.78 15.89 C 40.46 16.92 38.75 13.03 41.22 12.21 Z" />
<path fill="#ffffff" opacity="1.00" d=" M 45.61 20.64 C 46.86 19.87 47.92 18.83 49.03 17.87 C 49.67 20.42 49.89 23.05 49.80 25.67 C 47.67 25.75 43.79 24.57 43.81 27.91 C 44.73 30.01 47.75 29.18 49.38 30.49 C 50.55 32.40 49.51 34.64 49.23 36.65 C 47.26 35.13 43.47 31.48 41.61 34.91 C 41.13 37.67 45.96 37.54 45.96 40.16 C 46.08 42.49 44.29 44.12 42.77 45.60 C 41.86 43.80 41.37 41.61 39.67 40.35 C 38.37 39.10 37.17 40.79 36.28 41.59 C 37.05 43.07 37.90 44.51 38.51 46.07 C 37.23 48.17 34.71 48.57 32.53 49.14 C 32.94 47.00 33.38 43.33 30.04 43.83 C 28.98 45.37 28.55 47.36 27.07 48.59 C 24.89 48.90 22.87 47.87 20.89 47.13 C 21.50 46.52 22.73 45.31 23.34 44.71 C 22.74 43.77 22.34 42.56 21.15 42.25 C 19.72 42.88 18.44 43.79 17.00 44.39 C 15.57 44.16 14.58 43.00 13.45 42.21 C 14.63 41.11 16.94 40.21 15.67 38.25 C 13.90 37.47 11.97 37.13 10.26 36.21 C 10.97 35.16 11.62 34.09 12.22 32.98 C 11.55 31.30 9.55 30.55 8.97 28.83 C 9.61 25.29 10.88 21.86 12.45 18.63 C 12.06 22.64 12.63 26.60 13.50 30.51 C 14.73 32.05 15.85 33.67 16.78 35.42 C 18.76 36.41 20.68 37.53 22.11 39.26 C 22.86 39.03 24.38 38.55 25.14 38.31 C 26.12 38.97 27.12 39.64 28.11 40.30 C 28.98 39.57 29.84 38.83 30.70 38.09 C 31.27 38.18 32.41 38.37 32.98 38.46 C 34.10 36.67 35.74 35.42 37.67 34.60 C 37.65 31.81 39.28 29.96 41.12 28.11 C 39.85 25.70 38.65 23.17 39.70 20.42 C 41.64 20.62 43.78 21.86 45.61 20.64 Z" />
</g>
<g id="#000000ff">
<path fill="#968176" opacity="1.00" d=" M 35.53 11.10 C 36.39 6.89 40.59 3.65 44.90 4.05 C 46.67 9.85 52.02 13.62 53.66 19.47 C 54.74 20.34 56.47 21.02 55.90 22.73 C 55.34 23.19 54.24 24.12 53.69 24.58 C 52.82 29.31 54.28 34.09 53.74 38.88 C 50.47 40.17 48.96 43.20 47.62 46.23 C 47.93 47.73 48.18 49.88 46.05 50.03 C 45.40 49.72 44.09 49.11 43.43 48.81 C 41.69 49.38 40.05 50.20 38.52 51.22 C 37.77 52.31 37.20 54.77 35.41 53.67 C 31.95 51.94 28.12 52.26 24.40 52.64 C 23.66 53.14 22.88 53.58 22.06 53.95 C 20.25 54.45 20.29 51.91 19.79 50.88 C 18.13 49.19 16.15 47.89 13.77 47.52 C 11.21 48.84 9.19 46.71 10.45 44.18 C 10.05 42.92 9.64 41.67 9.23 40.42 C 8.55 40.15 7.19 39.60 6.51 39.33 C 5.77 38.26 6.58 36.86 6.50 35.66 C 7.11 32.77 5.00 30.47 4.00 27.97 C 7.07 24.00 6.66 17.98 11.13 15.06 C 12.73 13.79 16.12 13.29 16.51 16.01 C 16.76 20.32 16.03 24.66 17.27 28.89 C 19.00 30.97 20.76 33.06 23.19 34.36 C 24.85 34.41 26.51 34.62 28.14 34.93 C 30.09 34.17 31.98 33.27 33.73 32.11 C 34.23 30.31 34.98 28.60 35.91 26.99 C 35.09 24.25 35.11 21.36 36.29 18.72 C 35.74 16.24 34.97 13.66 35.53 11.10 M 41.22 12.21 C 38.75 13.03 40.46 16.92 42.78 15.89 C 45.23 14.94 43.50 10.96 41.22 12.21 M 45.61 20.64 C 43.78 21.86 41.64 20.62 39.70 20.42 C 38.65 23.17 39.85 25.70 41.12 28.11 C 39.28 29.96 37.65 31.81 37.67 34.60 C 35.74 35.42 34.10 36.67 32.98 38.46 C 32.41 38.37 31.27 38.18 30.70 38.09 C 29.84 38.83 28.98 39.57 28.11 40.30 C 27.12 39.64 26.12 38.97 25.14 38.31 C 24.38 38.55 22.86 39.03 22.11 39.26 C 20.68 37.53 18.76 36.41 16.78 35.42 C 15.85 33.67 14.73 32.05 13.50 30.51 C 12.63 26.60 12.06 22.64 12.45 18.63 C 10.88 21.86 9.61 25.29 8.97 28.83 C 9.55 30.55 11.55 31.30 12.22 32.98 C 11.62 34.09 10.97 35.16 10.26 36.21 C 11.97 37.13 13.90 37.47 15.67 38.25 C 16.94 40.21 14.63 41.11 13.45 42.21 C 14.58 43.00 15.57 44.16 17.00 44.39 C 18.44 43.79 19.72 42.88 21.15 42.25 C 22.34 42.56 22.74 43.77 23.34 44.71 C 22.73 45.31 21.50 46.52 20.89 47.13 C 22.87 47.87 24.89 48.90 27.07 48.59 C 28.55 47.36 28.98 45.37 30.04 43.83 C 33.38 43.33 32.94 47.00 32.53 49.14 C 34.71 48.57 37.23 48.17 38.51 46.07 C 37.90 44.51 37.05 43.07 36.28 41.59 C 37.17 40.79 38.37 39.10 39.67 40.35 C 41.37 41.61 41.86 43.80 42.77 45.60 C 44.29 44.12 46.08 42.49 45.96 40.16 C 45.96 37.54 41.13 37.67 41.61 34.91 C 43.47 31.48 47.26 35.13 49.23 36.65 C 49.51 34.64 50.55 32.40 49.38 30.49 C 47.75 29.18 44.73 30.01 43.81 27.91 C 43.79 24.57 47.67 25.75 49.80 25.67 C 49.89 23.05 49.67 20.42 49.03 17.87 C 47.92 18.83 46.86 19.87 45.61 20.64 Z" />
</g>
</svg>
