<?xml version="1.0" encoding="UTF-8" ?>
<!DOCTYPE svg PUBLIC "-//W3C//DTD SVG 1.1//EN" "http://www.w3.org/Graphics/SVG/1.1/DTD/svg11.dtd">
<svg width="60pt" height="60pt" viewBox="0 0 60 60" version="1.1" xmlns="http://www.w3.org/2000/svg">
<g id="#ffffffff">
<path fill="#ffffff" opacity="1.00" d=" M 0.00 0.00 L 60.00 0.00 L 60.00 60.00 L 0.00 60.00 L 0.00 0.00 M 24.47 6.65 C 17.35 8.32 11.14 13.42 8.15 20.10 C 4.98 26.97 5.37 35.33 9.17 41.88 C 12.97 48.60 20.18 53.27 27.89 53.88 C 35.80 54.66 43.95 51.12 48.81 44.84 C 55.64 36.51 55.67 23.56 48.86 15.21 C 43.31 7.91 33.36 4.46 24.47 6.65 Z" />
<path fill="#ffffff" opacity="1.00" d=" M 27.19 10.20 C 33.07 9.36 39.29 11.25 43.62 15.35 C 48.46 19.78 50.82 26.69 49.73 33.16 C 48.70 40.20 43.55 46.40 36.85 48.78 C 29.73 51.45 21.18 49.59 15.86 44.14 C 10.66 39.06 8.69 31.02 10.90 24.10 C 13.02 16.82 19.67 11.17 27.19 10.20 M 23.36 15.47 C 19.64 17.15 16.63 20.32 15.14 24.12 C 14.36 25.49 14.21 27.60 16.06 28.17 C 19.24 28.06 18.93 23.70 21.06 22.01 C 22.77 19.41 26.63 19.40 28.20 16.90 C 28.44 13.99 25.00 14.29 23.36 15.47 M 27.38 22.45 C 21.65 24.13 20.14 32.51 24.88 36.12 C 29.07 39.95 36.61 37.47 37.74 31.93 C 39.50 26.08 33.05 20.18 27.38 22.45 M 41.51 34.25 C 39.73 37.29 37.34 39.76 34.27 41.52 C 32.41 42.43 34.02 45.32 35.81 44.82 C 39.89 43.29 43.27 39.90 44.82 35.83 C 45.28 34.08 42.46 32.39 41.51 34.25 Z" />
<path fill="#ffffff" opacity="1.00" d=" M 29.11 28.12 C 31.56 27.10 33.18 30.79 30.80 31.89 C 28.41 32.83 26.90 29.28 29.11 28.12 Z" />
</g>
<g id="#000000ff">
<path fill="#968176" opacity="1.00" d=" M 24.47 6.65 C 33.36 4.46 43.31 7.91 48.86 15.21 C 55.67 23.56 55.64 36.51 48.81 44.84 C 43.95 51.12 35.80 54.66 27.89 53.88 C 20.18 53.27 12.97 48.60 9.17 41.88 C 5.37 35.33 4.98 26.97 8.15 20.10 C 11.14 13.42 17.35 8.32 24.47 6.65 M 27.19 10.20 C 19.67 11.17 13.02 16.82 10.90 24.10 C 8.69 31.02 10.66 39.06 15.86 44.14 C 21.18 49.59 29.73 51.45 36.85 48.78 C 43.55 46.40 48.70 40.20 49.73 33.16 C 50.82 26.69 48.46 19.78 43.62 15.35 C 39.29 11.25 33.07 9.36 27.19 10.20 Z" />
<path fill="#968176" opacity="1.00" d=" M 23.36 15.47 C 25.00 14.29 28.44 13.99 28.20 16.90 C 26.63 19.40 22.77 19.41 21.06 22.01 C 18.93 23.70 19.24 28.06 16.06 28.17 C 14.21 27.60 14.36 25.49 15.14 24.12 C 16.63 20.32 19.64 17.15 23.36 15.47 Z" />
<path fill="#968176" opacity="1.00" d=" M 27.38 22.45 C 33.05 20.18 39.50 26.08 37.74 31.93 C 36.61 37.47 29.07 39.95 24.88 36.12 C 20.14 32.51 21.65 24.13 27.38 22.45 M 29.11 28.12 C 26.90 29.28 28.41 32.83 30.80 31.89 C 33.18 30.79 31.56 27.10 29.11 28.12 Z" />
<path fill="#968176" opacity="1.00" d=" M 41.51 34.25 C 42.46 32.39 45.28 34.08 44.82 35.83 C 43.27 39.90 39.89 43.29 35.81 44.82 C 34.02 45.32 32.41 42.43 34.27 41.52 C 37.34 39.76 39.73 37.29 41.51 34.25 Z" />
</g>
</svg>
