<?xml version="1.0" encoding="UTF-8" ?>
<!DOCTYPE svg PUBLIC "-//W3C//DTD SVG 1.1//EN" "http://www.w3.org/Graphics/SVG/1.1/DTD/svg11.dtd">
<svg width="60pt" height="60pt" viewBox="0 0 60 60" version="1.1" xmlns="http://www.w3.org/2000/svg">
<g id="#ffffffff">
<path fill="#ffffff" opacity="1.00" d=" M 0.00 0.00 L 60.00 0.00 L 60.00 45.47 C 59.74 38.59 53.99 32.44 47.06 32.09 C 39.24 31.23 31.79 38.16 32.04 46.01 C 31.86 53.30 38.17 59.70 45.38 60.00 L 0.00 60.00 L 0.00 0.00 M 20.67 7.63 C 16.46 11.11 15.66 16.84 15.97 21.97 C 13.18 21.93 9.03 21.48 8.15 25.01 C 7.83 33.33 8.03 41.68 8.04 50.01 C 7.92 52.09 9.80 53.95 11.85 53.94 C 17.83 54.12 23.82 53.92 29.80 54.01 C 26.47 46.99 27.91 37.97 33.81 32.77 C 38.60 28.14 45.85 27.02 52.08 28.97 C 51.87 27.03 52.38 24.71 50.82 23.20 C 49.06 21.37 46.27 22.20 44.03 21.97 C 44.07 18.01 44.07 13.73 41.65 10.38 C 37.30 3.50 26.59 1.87 20.67 7.63 Z" />
<path fill="#ffffff" opacity="1.00" d=" M 22.03 11.98 C 25.53 7.00 33.65 6.71 37.50 11.42 C 40.23 14.24 40.04 18.37 40.04 22.00 C 33.35 22.00 26.66 22.00 19.97 22.00 C 20.00 18.59 19.72 14.79 22.03 11.98 Z" />
<path fill="#ffffff" opacity="1.00" d=" M 51.23 40.15 C 53.21 39.23 54.99 42.02 53.33 43.43 C 50.54 46.30 47.81 49.26 44.76 51.85 C 42.21 52.28 40.81 49.33 39.10 47.92 C 37.41 46.84 37.83 44.01 40.02 43.96 C 41.72 44.43 42.73 46.06 44.03 47.14 C 46.46 44.84 48.62 42.25 51.23 40.15 Z" />
<path fill="#ffffff" opacity="1.00" d=" M 46.58 60.00 C 53.66 59.72 59.69 53.70 60.00 46.62 L 60.00 60.00 L 46.58 60.00 Z" />
</g>
<g id="#000000ff">
<path fill="#968176" opacity="1.00" d=" M 20.67 7.63 C 26.59 1.87 37.30 3.50 41.65 10.38 C 44.07 13.73 44.07 18.01 44.03 21.97 C 46.27 22.20 49.06 21.37 50.82 23.20 C 52.38 24.71 51.87 27.03 52.08 28.97 C 45.85 27.02 38.60 28.14 33.81 32.77 C 27.91 37.97 26.47 46.99 29.80 54.01 C 23.82 53.92 17.83 54.12 11.85 53.94 C 9.80 53.95 7.92 52.09 8.04 50.01 C 8.03 41.68 7.83 33.33 8.15 25.01 C 9.03 21.48 13.18 21.93 15.97 21.97 C 15.66 16.84 16.46 11.11 20.67 7.63 M 22.03 11.98 C 19.72 14.79 20.00 18.59 19.97 22.00 C 26.66 22.00 33.35 22.00 40.04 22.00 C 40.04 18.37 40.23 14.24 37.50 11.42 C 33.65 6.71 25.53 7.00 22.03 11.98 Z" />
<path fill="#968176" opacity="1.00" d=" M 32.04 46.01 C 31.79 38.16 39.24 31.23 47.06 32.09 C 53.99 32.44 59.74 38.59 60.00 45.47 L 60.00 46.62 C 59.69 53.70 53.66 59.72 46.58 60.00 L 45.38 60.00 C 38.17 59.70 31.86 53.30 32.04 46.01 M 51.23 40.15 C 48.62 42.25 46.46 44.84 44.03 47.14 C 42.73 46.06 41.72 44.43 40.02 43.96 C 37.83 44.01 37.41 46.84 39.10 47.92 C 40.81 49.33 42.21 52.28 44.76 51.85 C 47.81 49.26 50.54 46.30 53.33 43.43 C 54.99 42.02 53.21 39.23 51.23 40.15 Z" />
</g>
</svg>
