<?xml version="1.0" encoding="UTF-8" ?>
<!DOCTYPE svg PUBLIC "-//W3C//DTD SVG 1.1//EN" "http://www.w3.org/Graphics/SVG/1.1/DTD/svg11.dtd">
<svg width="60pt" height="60pt" viewBox="0 0 60 60" version="1.1" xmlns="http://www.w3.org/2000/svg">
<g id="#ffffffff">
<path fill="#ffffff" opacity="1.00" d=" M 0.00 0.00 L 60.00 0.00 L 60.00 60.00 L 0.00 60.00 L 0.00 0.00 M 28.55 16.65 C 21.40 22.44 14.27 28.28 7.17 34.15 C 5.27 35.46 6.14 38.09 6.04 40.04 C 5.85 41.74 8.26 42.67 9.36 41.42 C 16.31 35.89 23.11 30.19 30.01 24.60 C 37.14 30.26 44.01 36.25 51.22 41.80 C 54.99 42.75 54.06 37.44 53.84 35.22 C 47.43 29.21 40.24 24.03 33.57 18.29 C 32.15 17.29 30.34 14.92 28.55 16.65 Z" />
</g>
<g id="#000000ff">
<path fill="#968176" opacity="1.00" d=" M 28.55 16.65 C 30.34 14.92 32.15 17.29 33.57 18.29 C 40.24 24.03 47.43 29.21 53.84 35.22 C 54.06 37.44 54.99 42.75 51.22 41.80 C 44.01 36.25 37.14 30.26 30.01 24.60 C 23.11 30.19 16.31 35.89 9.36 41.42 C 8.26 42.67 5.85 41.74 6.04 40.04 C 6.14 38.09 5.27 35.46 7.17 34.15 C 14.27 28.28 21.40 22.44 28.55 16.65 Z" />
</g>
</svg>
