<?xml version="1.0" encoding="UTF-8" ?>
<!DOCTYPE svg PUBLIC "-//W3C//DTD SVG 1.1//EN" "http://www.w3.org/Graphics/SVG/1.1/DTD/svg11.dtd">
<svg width="60pt" height="60pt" viewBox="0 0 60 60" version="1.1" xmlns="http://www.w3.org/2000/svg">
<g id="#ffffffff">
<path fill="#ffffff" opacity="1.00" d=" M 0.00 0.00 L 60.00 0.00 L 60.00 60.00 L 0.00 60.00 L 0.00 0.00 M 28.16 5.89 C 25.70 6.76 23.05 7.34 21.04 9.11 C 15.47 13.41 14.41 21.64 16.96 27.89 C 18.42 31.56 21.80 33.80 24.99 35.84 C 19.93 36.67 14.85 37.32 9.77 38.06 C 10.25 41.24 12.61 43.66 15.78 44.22 C 16.34 47.65 19.17 50.06 22.63 50.22 C 24.62 52.18 27.03 54.08 29.99 53.96 C 32.97 54.09 35.38 52.16 37.40 50.22 C 40.84 50.05 43.66 47.64 44.21 44.22 C 47.41 43.66 49.79 41.21 50.23 37.98 C 45.12 37.26 40.01 36.59 34.92 35.75 C 37.61 33.88 40.60 32.09 42.15 29.05 C 46.82 20.89 42.92 8.13 32.92 6.49 C 35.12 6.29 37.36 3.75 34.90 2.14 C 31.89 1.37 29.86 3.90 28.16 5.89 Z" />
<path fill="#ffffff" opacity="1.00" d=" M 23.18 22.19 C 25.50 20.92 27.28 25.05 24.73 25.82 C 22.50 26.99 20.77 23.06 23.18 22.19 Z" />
<path fill="#ffffff" opacity="1.00" d=" M 35.18 22.10 C 37.56 21.06 39.24 24.99 36.72 25.82 C 34.42 26.94 32.85 23.08 35.18 22.10 Z" />
<path fill="#ffffff" opacity="1.00" d=" M 25.67 30.09 C 28.55 29.97 31.45 29.96 34.33 30.09 C 33.15 31.72 31.65 33.06 30.00 34.20 C 28.35 33.06 26.84 31.72 25.67 30.09 Z" />
</g>
<g id="#000000ff">
<path fill="#968176" opacity="1.00" d=" M 28.16 5.89 C 29.86 3.90 31.89 1.37 34.90 2.14 C 37.36 3.75 35.12 6.29 32.92 6.49 C 42.92 8.13 46.82 20.89 42.15 29.05 C 40.60 32.09 37.61 33.88 34.92 35.75 C 40.01 36.59 45.12 37.26 50.23 37.98 C 49.79 41.21 47.41 43.66 44.21 44.22 C 43.66 47.64 40.84 50.05 37.40 50.22 C 35.38 52.16 32.97 54.09 29.99 53.96 C 27.03 54.08 24.62 52.18 22.63 50.22 C 19.17 50.06 16.34 47.65 15.78 44.22 C 12.61 43.66 10.25 41.24 9.77 38.06 C 14.85 37.32 19.93 36.67 24.99 35.84 C 21.80 33.80 18.42 31.56 16.96 27.89 C 14.41 21.64 15.47 13.41 21.04 9.11 C 23.05 7.34 25.70 6.76 28.16 5.89 M 23.18 22.19 C 20.77 23.06 22.50 26.99 24.73 25.82 C 27.28 25.05 25.50 20.92 23.18 22.19 M 35.18 22.10 C 32.85 23.08 34.42 26.94 36.72 25.82 C 39.24 24.99 37.56 21.06 35.18 22.10 M 25.67 30.09 C 26.84 31.72 28.35 33.06 30.00 34.20 C 31.65 33.06 33.15 31.72 34.33 30.09 C 31.45 29.96 28.55 29.97 25.67 30.09 Z" />
</g>
</svg>
