<?xml version="1.0" encoding="UTF-8" ?>
<!DOCTYPE svg PUBLIC "-//W3C//DTD SVG 1.1//EN" "http://www.w3.org/Graphics/SVG/1.1/DTD/svg11.dtd">
<svg width="60pt" height="60pt" viewBox="0 0 60 60" version="1.1" xmlns="http://www.w3.org/2000/svg">
<g id="#ffffffff">
<path fill="#ffffff" opacity="1.00" d=" M 0.00 0.00 L 60.00 0.00 L 60.00 60.00 L 0.00 60.00 L 0.00 0.00 M 15.19 9.20 C 10.93 11.82 8.95 16.79 8.05 21.50 C 5.35 23.20 5.37 27.26 8.48 28.50 C 8.87 29.74 9.27 30.98 9.68 32.21 C 11.38 32.50 13.08 32.80 14.78 33.12 C 11.35 28.04 11.18 21.21 14.10 15.86 C 16.92 15.65 19.72 15.12 22.36 14.08 C 23.27 14.39 24.18 14.71 25.09 15.03 C 22.79 16.84 21.07 19.23 19.59 21.74 C 17.58 22.79 15.94 24.49 15.90 26.90 C 16.43 27.16 17.48 27.67 18.01 27.93 C 18.04 30.03 18.16 32.13 18.36 34.23 C 19.92 34.85 21.48 35.49 23.04 36.14 C 21.47 31.45 21.73 26.23 24.10 21.86 C 26.94 21.63 29.78 21.16 32.41 20.01 C 33.44 20.45 34.52 20.83 35.46 21.46 C 38.47 25.69 38.47 31.32 36.95 36.12 C 38.52 35.45 40.08 34.79 41.66 34.15 C 41.84 32.08 41.95 30.01 41.99 27.93 C 42.52 27.67 43.57 27.14 44.10 26.88 C 43.75 25.66 43.76 24.15 42.58 23.36 C 39.61 21.42 38.34 17.93 35.59 15.76 C 37.90 15.45 40.19 14.93 42.34 14.00 C 43.53 14.60 45.12 14.80 45.87 16.02 C 48.95 21.22 48.54 28.05 45.26 33.07 C 46.94 32.76 48.62 32.48 50.31 32.21 C 50.72 30.97 51.13 29.73 51.53 28.49 C 54.61 27.27 54.66 23.20 51.96 21.49 C 50.98 15.83 47.89 9.53 41.77 8.19 C 37.44 7.14 33.37 9.74 31.09 13.25 C 30.07 15.17 28.62 12.98 27.85 12.09 C 25.03 8.26 19.39 6.75 15.19 9.20 M 13.60 19.94 C 15.20 19.98 16.80 19.98 18.40 19.94 C 17.36 17.57 14.63 17.57 13.60 19.94 M 41.58 19.93 C 43.19 19.98 44.80 19.98 46.42 19.93 C 45.26 17.58 42.73 17.56 41.58 19.93 M 23.60 25.94 C 25.20 25.98 26.80 25.98 28.40 25.94 C 27.35 23.58 24.63 23.55 23.60 25.94 M 31.58 25.93 C 33.19 25.98 34.80 25.98 36.42 25.93 C 35.26 23.59 32.73 23.56 31.58 25.93 M 25.75 33.00 C 28.46 34.26 31.56 34.29 34.25 32.97 C 33.84 30.77 32.64 27.97 29.98 28.02 C 27.36 28.02 26.13 30.79 25.75 33.00 M 8.04 36.08 C 8.07 40.36 7.79 44.66 8.15 48.93 C 8.51 51.12 10.91 52.21 12.95 52.00 C 24.34 52.00 35.73 52.01 47.12 52.00 C 49.16 52.22 51.43 51.05 51.85 48.92 C 52.22 44.65 51.92 40.36 51.97 36.08 C 43.98 36.63 36.60 40.20 29.99 44.51 C 23.35 40.28 16.00 36.71 8.04 36.08 Z" />
</g>
<g id="#000000ff">
<path fill="#968176" opacity="1.00" d=" M 15.19 9.20 C 19.39 6.75 25.03 8.26 27.85 12.09 C 28.62 12.98 30.07 15.17 31.09 13.25 C 33.37 9.74 37.44 7.14 41.77 8.19 C 47.89 9.53 50.98 15.83 51.96 21.49 C 54.66 23.20 54.61 27.27 51.53 28.49 C 51.13 29.73 50.72 30.97 50.31 32.21 C 48.62 32.48 46.94 32.76 45.26 33.07 C 48.54 28.05 48.95 21.22 45.87 16.02 C 45.12 14.80 43.53 14.60 42.34 14.00 C 40.19 14.93 37.90 15.45 35.59 15.76 C 38.34 17.93 39.61 21.42 42.58 23.36 C 43.76 24.15 43.75 25.66 44.10 26.88 C 43.57 27.14 42.52 27.67 41.99 27.93 C 41.95 30.01 41.84 32.08 41.66 34.15 C 40.08 34.79 38.52 35.45 36.95 36.12 C 38.47 31.32 38.47 25.69 35.46 21.46 C 34.52 20.83 33.44 20.45 32.41 20.01 C 29.78 21.16 26.94 21.63 24.10 21.86 C 21.73 26.23 21.47 31.45 23.04 36.14 C 21.48 35.49 19.92 34.85 18.36 34.23 C 18.16 32.13 18.04 30.03 18.01 27.93 C 17.48 27.67 16.43 27.16 15.90 26.90 C 15.94 24.49 17.58 22.79 19.59 21.74 C 21.07 19.23 22.79 16.84 25.09 15.03 C 24.18 14.71 23.27 14.39 22.36 14.08 C 19.72 15.12 16.92 15.65 14.10 15.86 C 11.18 21.21 11.35 28.04 14.78 33.12 C 13.08 32.80 11.38 32.50 9.68 32.21 C 9.27 30.98 8.87 29.74 8.48 28.50 C 5.37 27.26 5.35 23.20 8.05 21.50 C 8.95 16.79 10.93 11.82 15.19 9.20 Z" />
<path fill="#968176" opacity="1.00" d=" M 13.60 19.94 C 14.63 17.57 17.36 17.57 18.40 19.94 C 16.80 19.98 15.20 19.98 13.60 19.94 Z" />
<path fill="#968176" opacity="1.00" d=" M 41.58 19.93 C 42.73 17.56 45.26 17.58 46.42 19.93 C 44.80 19.98 43.19 19.98 41.58 19.93 Z" />
<path fill="#968176" opacity="1.00" d=" M 23.60 25.94 C 24.63 23.55 27.35 23.58 28.40 25.94 C 26.80 25.98 25.20 25.98 23.60 25.94 Z" />
<path fill="#968176" opacity="1.00" d=" M 31.58 25.93 C 32.73 23.56 35.26 23.59 36.42 25.93 C 34.80 25.98 33.19 25.98 31.58 25.93 Z" />
<path fill="#968176" opacity="1.00" d=" M 25.75 33.00 C 26.13 30.79 27.36 28.02 29.98 28.02 C 32.64 27.97 33.84 30.77 34.25 32.97 C 31.56 34.29 28.46 34.26 25.75 33.00 Z" />
<path fill="#968176" opacity="1.00" d=" M 8.04 36.08 C 16.00 36.71 23.35 40.28 29.99 44.51 C 36.60 40.20 43.98 36.63 51.97 36.08 C 51.92 40.36 52.22 44.65 51.85 48.92 C 51.43 51.05 49.16 52.22 47.12 52.00 C 35.73 52.01 24.34 52.00 12.95 52.00 C 10.91 52.21 8.51 51.12 8.15 48.93 C 7.79 44.66 8.07 40.36 8.04 36.08 Z" />
</g>
</svg>
