<?xml version="1.0" encoding="UTF-8" ?>
<!DOCTYPE svg PUBLIC "-//W3C//DTD SVG 1.1//EN" "http://www.w3.org/Graphics/SVG/1.1/DTD/svg11.dtd">
<svg width="60pt" height="60pt" viewBox="0 0 60 60" version="1.1" xmlns="http://www.w3.org/2000/svg">
<g id="#ffffffff">
<path fill="#ffffff" opacity="1.00" d=" M 0.00 0.00 L 60.00 0.00 L 60.00 60.00 L 0.00 60.00 L 0.00 0.00 M 12.06 11.98 C 11.89 22.99 12.08 34.01 11.98 45.02 C 12.09 46.96 11.67 49.24 13.11 50.81 C 15.83 53.83 20.19 53.99 23.97 54.02 C 24.04 40.68 23.98 27.33 24.00 13.98 C 22.10 13.89 20.15 14.02 18.31 13.43 C 17.31 13.06 15.72 12.83 16.34 11.38 C 19.17 9.89 22.58 9.67 25.64 10.54 C 26.73 10.88 28.28 11.43 27.98 12.91 C 28.02 26.30 28.02 39.69 27.97 53.08 C 29.70 53.82 31.46 54.48 33.25 55.02 C 37.29 42.34 41.48 29.70 45.58 17.04 C 42.79 16.23 40.06 15.03 38.18 12.71 C 42.38 11.01 47.09 12.92 50.14 15.95 C 45.90 29.10 41.52 42.21 37.36 55.39 C 39.72 54.85 42.35 53.76 42.89 51.11 C 46.50 40.01 50.18 28.92 53.71 17.78 C 54.86 14.01 51.21 11.02 48.16 9.64 C 44.38 7.96 39.29 6.88 35.84 9.78 C 33.73 12.73 33.36 16.52 32.32 19.91 C 31.92 16.73 32.30 13.45 31.61 10.32 C 29.36 6.32 24.00 5.73 19.87 6.14 C 16.61 6.52 12.22 8.12 12.06 11.98 Z" />
</g>
<g id="#000000ff">
<path fill="#968176" opacity="1.00" d=" M 12.06 11.98 C 12.22 8.12 16.61 6.52 19.87 6.14 C 24.00 5.73 29.36 6.32 31.61 10.32 C 32.30 13.45 31.92 16.73 32.32 19.91 C 33.36 16.52 33.73 12.73 35.84 9.78 C 39.29 6.88 44.38 7.96 48.16 9.64 C 51.21 11.02 54.86 14.01 53.71 17.78 C 50.18 28.92 46.50 40.01 42.89 51.11 C 42.35 53.76 39.72 54.85 37.36 55.39 C 41.52 42.21 45.90 29.10 50.14 15.95 C 47.09 12.92 42.38 11.01 38.18 12.71 C 40.06 15.03 42.79 16.23 45.58 17.04 C 41.48 29.70 37.29 42.34 33.25 55.02 C 31.46 54.48 29.70 53.82 27.97 53.08 C 28.02 39.69 28.02 26.30 27.98 12.91 C 28.28 11.43 26.73 10.88 25.64 10.54 C 22.58 9.67 19.17 9.89 16.34 11.38 C 15.72 12.83 17.31 13.06 18.31 13.43 C 20.15 14.02 22.10 13.89 24.00 13.98 C 23.98 27.33 24.04 40.68 23.97 54.02 C 20.19 53.99 15.83 53.83 13.11 50.81 C 11.67 49.24 12.09 46.96 11.98 45.02 C 12.08 34.01 11.89 22.99 12.06 11.98 Z" />
</g>
</svg>
