<?xml version="1.0" encoding="UTF-8" ?>
<!DOCTYPE svg PUBLIC "-//W3C//DTD SVG 1.1//EN" "http://www.w3.org/Graphics/SVG/1.1/DTD/svg11.dtd">
<svg width="60pt" height="60pt" viewBox="0 0 60 60" version="1.1" xmlns="http://www.w3.org/2000/svg">
<g id="#ffffffff">
<path fill="#ffffff" opacity="1.00" d=" M 0.00 0.00 L 60.00 0.00 L 60.00 60.00 L 0.00 60.00 L 0.00 0.00 M 24.50 6.64 C 17.39 8.29 11.17 13.38 8.17 20.05 C 5.18 26.49 5.31 34.28 8.49 40.63 C 11.95 47.70 19.08 52.84 26.91 53.78 C 33.71 54.70 40.87 52.52 45.95 47.91 C 51.27 43.22 54.31 36.08 53.96 29.00 C 53.72 22.10 50.29 15.40 44.86 11.16 C 39.23 6.64 31.51 4.98 24.50 6.64 Z" />
<path fill="#ffffff" opacity="1.00" d=" M 30.18 22.81 C 29.16 20.90 32.07 18.93 33.42 20.66 C 36.30 23.44 39.24 26.20 41.87 29.23 C 41.86 29.62 41.84 30.41 41.84 30.81 C 39.20 33.84 36.25 36.59 33.37 39.39 C 31.94 40.95 29.27 39.18 30.14 37.22 C 31.65 35.33 33.48 33.73 35.17 32.01 C 30.11 31.93 25.05 32.13 20.00 31.93 C 17.91 32.18 17.25 28.92 19.16 28.16 C 24.48 27.76 29.84 28.13 35.18 27.99 C 33.49 26.28 31.67 24.69 30.18 22.81 Z" />
</g>
<g id="#000000ff">
<path fill="#968176" opacity="1.00" d=" M 24.50 6.64 C 31.51 4.98 39.23 6.64 44.86 11.16 C 50.29 15.40 53.72 22.10 53.96 29.00 C 54.31 36.08 51.27 43.22 45.95 47.91 C 40.87 52.52 33.71 54.70 26.91 53.78 C 19.08 52.84 11.95 47.70 8.49 40.63 C 5.31 34.28 5.18 26.49 8.17 20.05 C 11.17 13.38 17.39 8.29 24.50 6.64 M 30.18 22.81 C 31.67 24.69 33.49 26.28 35.18 27.99 C 29.84 28.13 24.48 27.76 19.16 28.16 C 17.25 28.92 17.91 32.18 20.00 31.93 C 25.05 32.13 30.11 31.93 35.17 32.01 C 33.48 33.73 31.65 35.33 30.14 37.22 C 29.27 39.18 31.94 40.95 33.37 39.39 C 36.25 36.59 39.20 33.84 41.84 30.81 C 41.84 30.41 41.86 29.62 41.87 29.23 C 39.24 26.20 36.30 23.44 33.42 20.66 C 32.07 18.93 29.16 20.90 30.18 22.81 Z" />
</g>
</svg>
