<?xml version="1.0" encoding="UTF-8" ?>
<!DOCTYPE svg PUBLIC "-//W3C//DTD SVG 1.1//EN" "http://www.w3.org/Graphics/SVG/1.1/DTD/svg11.dtd">
<svg width="60pt" height="60pt" viewBox="0 0 60 60" version="1.1" xmlns="http://www.w3.org/2000/svg">
<g id="#ffffffff">
<path fill="#ffffff" opacity="1.00" d=" M 0.00 0.00 L 60.00 0.00 L 60.00 60.00 L 0.00 60.00 L 0.00 0.00 M 24.46 6.65 C 16.86 8.41 10.33 14.13 7.59 21.43 C 4.56 29.16 5.96 38.42 11.19 44.88 C 16.47 51.66 25.55 55.18 34.02 53.65 C 42.80 52.26 50.40 45.54 52.93 37.04 C 55.72 28.30 52.88 18.14 45.98 12.10 C 40.27 6.91 31.95 4.84 24.46 6.65 Z" />
<path fill="#ffffff" opacity="1.00" d=" M 28.06 12.01 C 27.81 9.91 31.04 9.26 31.84 11.13 C 32.23 18.07 31.88 25.05 32.00 32.00 C 26.67 31.94 21.33 32.12 16.00 31.94 C 13.88 32.19 13.24 28.84 15.21 28.15 C 19.46 27.78 23.74 28.10 28.00 28.00 C 28.06 22.67 27.89 17.34 28.06 12.01 Z" />
</g>
<g id="#000000ff">
<path fill="#968176" opacity="1.00" d=" M 24.46 6.65 C 31.95 4.84 40.27 6.91 45.98 12.10 C 52.88 18.14 55.72 28.30 52.93 37.04 C 50.40 45.54 42.80 52.26 34.02 53.65 C 25.55 55.18 16.47 51.66 11.19 44.88 C 5.96 38.42 4.56 29.16 7.59 21.43 C 10.33 14.13 16.86 8.41 24.46 6.65 M 28.06 12.01 C 27.89 17.34 28.06 22.67 28.00 28.00 C 23.74 28.10 19.46 27.78 15.21 28.15 C 13.24 28.84 13.88 32.19 16.00 31.94 C 21.33 32.12 26.67 31.94 32.00 32.00 C 31.88 25.05 32.23 18.07 31.84 11.13 C 31.04 9.26 27.81 9.91 28.06 12.01 Z" />
</g>
</svg>
