<?xml version="1.0" encoding="UTF-8" ?>
<!DOCTYPE svg PUBLIC "-//W3C//DTD SVG 1.1//EN" "http://www.w3.org/Graphics/SVG/1.1/DTD/svg11.dtd">
<svg width="60pt" height="60pt" viewBox="0 0 60 60" version="1.1" xmlns="http://www.w3.org/2000/svg">
<g id="#ffffffff">
<path fill="#ffffff" opacity="1.00" d=" M 0.00 0.00 L 60.00 0.00 L 60.00 60.00 L 0.00 60.00 L 0.00 0.00 M 28.16 3.12 C 27.83 6.07 28.04 9.04 28.01 12.00 C 26.02 12.00 24.03 12.00 22.04 12.00 C 24.69 14.66 27.37 17.31 30.00 20.00 C 32.66 17.33 35.33 14.67 38.00 12.00 C 35.99 12.00 33.99 12.00 31.99 12.00 C 31.96 9.05 32.17 6.08 31.84 3.14 C 31.16 1.61 28.85 1.61 28.16 3.12 M 12.01 21.97 C 12.00 23.98 12.00 25.99 12.00 28.01 C 9.05 28.06 6.09 27.79 3.16 28.19 C 1.63 28.80 1.63 31.21 3.17 31.81 C 6.09 32.22 9.06 31.94 12.00 31.99 C 12.00 34.00 12.00 36.00 12.00 38.00 C 14.67 35.33 17.35 32.66 20.01 29.98 C 17.32 27.34 14.66 24.66 12.01 21.97 M 40.02 29.98 C 42.65 32.69 45.35 35.32 48.00 38.00 C 48.00 36.00 48.00 34.00 48.00 31.99 C 50.95 31.94 53.93 32.22 56.86 31.80 C 58.38 31.15 58.37 28.81 56.83 28.18 C 53.90 27.80 50.94 28.05 48.00 28.01 C 48.00 26.00 48.00 24.00 48.00 22.00 C 45.34 24.66 42.68 27.32 40.02 29.98 M 27.43 24.58 C 23.48 26.26 22.83 32.24 26.32 34.72 C 29.61 37.54 35.31 35.36 35.89 31.07 C 36.97 26.50 31.57 22.34 27.43 24.58 M 22.00 48.00 C 24.00 48.00 26.00 48.00 28.01 48.00 C 28.06 50.96 27.78 53.94 28.20 56.88 C 28.86 58.37 31.21 58.36 31.81 56.82 C 32.21 53.90 31.94 50.94 31.99 48.00 C 34.00 48.00 36.02 48.00 38.03 47.99 C 35.36 45.32 32.69 42.65 30.02 39.98 C 27.34 42.65 24.67 45.33 22.00 48.00 Z" />
</g>
<g id="#000000ff">
<path fill="#968176" opacity="1.00" d=" M 28.16 3.12 C 28.85 1.61 31.16 1.61 31.84 3.14 C 32.17 6.08 31.96 9.05 31.99 12.00 C 33.99 12.00 35.99 12.00 38.00 12.00 C 35.33 14.67 32.66 17.33 30.00 20.00 C 27.37 17.31 24.69 14.66 22.04 12.00 C 24.03 12.00 26.02 12.00 28.01 12.00 C 28.04 9.04 27.83 6.07 28.16 3.12 Z" />
<path fill="#968176" opacity="1.00" d=" M 12.01 21.97 C 14.66 24.66 17.32 27.34 20.01 29.98 C 17.35 32.66 14.67 35.33 12.00 38.00 C 12.00 36.00 12.00 34.00 12.00 31.99 C 9.06 31.94 6.09 32.22 3.17 31.81 C 1.63 31.21 1.63 28.80 3.16 28.19 C 6.09 27.79 9.05 28.06 12.00 28.01 C 12.00 25.99 12.00 23.98 12.01 21.97 Z" />
<path fill="#968176" opacity="1.00" d=" M 40.02 29.98 C 42.68 27.32 45.34 24.66 48.00 22.00 C 48.00 24.00 48.00 26.00 48.00 28.01 C 50.94 28.05 53.90 27.80 56.83 28.18 C 58.37 28.81 58.38 31.15 56.86 31.80 C 53.93 32.22 50.95 31.94 48.00 31.99 C 48.00 34.00 48.00 36.00 48.00 38.00 C 45.35 35.32 42.65 32.69 40.02 29.98 Z" />
<path fill="#968176" opacity="1.00" d=" M 27.43 24.58 C 31.57 22.34 36.97 26.50 35.89 31.07 C 35.31 35.36 29.61 37.54 26.32 34.72 C 22.83 32.24 23.48 26.26 27.43 24.58 Z" />
<path fill="#968176" opacity="1.00" d=" M 22.00 48.00 C 24.67 45.33 27.34 42.65 30.02 39.98 C 32.69 42.65 35.36 45.32 38.03 47.99 C 36.02 48.00 34.00 48.00 31.99 48.00 C 31.94 50.94 32.21 53.90 31.81 56.82 C 31.21 58.36 28.86 58.37 28.20 56.88 C 27.78 53.94 28.06 50.96 28.01 48.00 C 26.00 48.00 24.00 48.00 22.00 48.00 Z" />
</g>
</svg>
