<?xml version="1.0" encoding="UTF-8" ?>
<!DOCTYPE svg PUBLIC "-//W3C//DTD SVG 1.1//EN" "http://www.w3.org/Graphics/SVG/1.1/DTD/svg11.dtd">
<svg width="159pt" height="116pt" viewBox="0 0 159 116" version="1.1" xmlns="http://www.w3.org/2000/svg">
<g id="#fffffff">
<path fill="#ffffff" opacity="1.00" d=" M 0.00 0.00 L 159.00 0.00 L 159.00 116.00 L 0.00 116.00 L 0.00 0.00 M 30.20 31.06 C 30.20 49.88 30.19 68.69 30.20 87.51 C 63.07 87.50 95.93 87.51 128.80 87.51 C 128.81 68.69 128.80 49.87 128.80 31.05 C 95.94 31.06 63.07 31.04 30.20 31.06 Z" />
<path fill="#ffffff" opacity="1.00" d=" M 62.74 33.88 C 63.01 33.57 63.53 32.95 63.80 32.63 C 74.38 32.69 84.96 32.73 95.54 32.61 L 95.44 33.50 L 96.28 33.59 C 96.17 50.90 96.23 68.21 96.25 85.52 C 85.08 85.74 73.91 85.71 62.74 85.53 C 62.79 68.32 62.78 51.10 62.74 33.88 M 70.57 61.15 C 72.04 64.56 74.84 68.13 78.97 67.82 C 83.46 68.55 86.90 64.98 88.42 61.15 C 89.19 55.71 84.74 49.81 78.97 50.42 C 73.59 50.50 69.90 56.09 70.57 61.15 M 67.35 61.63 C 67.87 65.48 70.78 68.36 73.86 70.43 C 77.47 72.01 81.57 71.99 85.18 70.42 C 89.10 67.98 91.95 63.90 91.97 59.17 C 91.45 59.26 90.42 59.45 89.91 59.55 C 89.76 61.08 89.55 62.61 89.08 64.08 C 87.82 66.12 86.12 67.73 84.05 68.93 C 81.10 69.92 77.88 69.94 74.94 68.93 C 70.87 67.01 69.15 62.74 68.29 58.60 C 67.24 59.29 66.99 60.47 67.35 61.63 Z" />
<path fill="#ffffff" opacity="1.00" d=" M 74.67 64.42 C 70.84 60.95 72.46 54.84 76.65 52.45 C 78.52 52.42 80.40 52.41 82.27 52.42 C 84.62 54.28 87.17 56.69 86.45 60.02 C 86.25 65.65 78.53 68.40 74.67 64.42 Z" />
</g>
<g id="#000000ff">
<path fill="#968176" opacity="1.00" d=" M 30.20 31.06 C 63.07 31.04 95.94 31.06 128.80 31.05 C 128.80 49.87 128.81 68.69 128.80 87.51 C 95.93 87.51 63.07 87.50 30.20 87.51 C 30.19 68.69 30.20 49.88 30.20 31.06 M 62.74 33.88 C 62.78 51.10 62.79 68.32 62.74 85.53 C 73.91 85.71 85.08 85.74 96.25 85.52 C 96.23 68.21 96.17 50.90 96.28 33.59 L 95.44 33.50 L 95.54 32.61 C 84.96 32.73 74.38 32.69 63.80 32.63 C 63.53 32.95 63.01 33.57 62.74 33.88 Z" />
<path fill="#968176" opacity="1.00" d=" M 70.57 61.15 C 69.90 56.09 73.59 50.50 78.97 50.42 C 84.74 49.81 89.19 55.71 88.42 61.15 C 86.90 64.98 83.46 68.55 78.97 67.82 C 74.84 68.13 72.04 64.56 70.57 61.15 M 74.67 64.42 C 78.53 68.40 86.25 65.65 86.45 60.02 C 87.17 56.69 84.62 54.28 82.27 52.42 C 80.40 52.41 78.52 52.42 76.65 52.45 C 72.46 54.84 70.84 60.95 74.67 64.42 Z" />
<path fill="#968176" opacity="1.00" d=" M 67.35 61.63 C 66.99 60.47 67.24 59.29 68.29 58.60 C 69.15 62.74 70.87 67.01 74.94 68.93 C 77.88 69.94 81.10 69.92 84.05 68.93 C 86.12 67.73 87.82 66.12 89.08 64.08 C 89.55 62.61 89.76 61.08 89.91 59.55 C 90.42 59.45 91.45 59.26 91.97 59.17 C 91.95 63.90 89.10 67.98 85.18 70.42 C 81.57 71.99 77.47 72.01 73.86 70.43 C 70.78 68.36 67.87 65.48 67.35 61.63 Z" />
</g>
</svg>
