<?xml version="1.0" encoding="UTF-8" ?>
<!DOCTYPE svg PUBLIC "-//W3C//DTD SVG 1.1//EN" "http://www.w3.org/Graphics/SVG/1.1/DTD/svg11.dtd">
<svg width="60pt" height="60pt" viewBox="0 0 60 60" version="1.1" xmlns="http://www.w3.org/2000/svg">
<g id="#ffffffff">
<path fill="#ffffff" opacity="1.00" d=" M 0.00 0.00 L 60.00 0.00 L 60.00 60.00 L 0.00 60.00 L 0.00 0.00 M 27.88 5.88 C 26.51 6.06 23.81 5.90 24.07 8.00 C 23.83 10.13 26.60 9.93 27.99 10.14 C 28.01 10.89 28.03 12.38 28.04 13.12 C 25.38 14.77 22.70 16.40 20.00 17.99 C 20.00 19.67 20.00 21.35 20.00 23.03 C 16.56 24.93 12.94 26.54 9.61 28.64 C 7.79 30.26 10.07 32.55 12.00 32.04 C 12.00 39.36 12.00 46.68 12.00 54.00 C 24.00 54.00 36.00 54.00 48.00 54.00 C 48.00 46.68 48.00 39.36 48.00 32.04 C 49.92 32.53 52.19 30.30 50.41 28.66 C 47.12 26.47 43.45 24.90 40.00 22.96 C 40.00 21.30 40.00 19.63 40.01 17.97 C 37.33 16.36 34.67 14.72 31.98 13.15 C 31.98 12.40 32.00 10.89 32.00 10.14 C 33.49 9.95 36.07 10.11 36.00 7.94 C 35.96 5.88 33.55 6.07 32.12 5.88 C 31.97 4.48 32.07 1.80 29.97 2.07 C 27.89 1.83 28.05 4.50 27.88 5.88 Z" />
<path fill="#ffffff" opacity="1.00" d=" M 28.44 30.26 C 30.66 28.80 33.46 28.68 35.95 27.91 C 35.95 29.60 35.97 31.28 36.00 32.97 C 34.00 33.57 31.99 34.17 29.99 34.78 C 29.88 38.35 30.42 42.04 29.46 45.53 C 28.38 48.85 22.25 48.93 22.03 45.06 C 21.38 41.58 25.22 40.75 27.60 39.68 C 28.74 36.70 27.24 33.22 28.44 30.26 Z" />
</g>
<g id="#000000ff">
<path fill="#968176" opacity="1.00" d=" M 27.88 5.88 C 28.05 4.50 27.89 1.83 29.97 2.07 C 32.07 1.80 31.97 4.48 32.12 5.88 C 33.55 6.07 35.96 5.88 36.00 7.94 C 36.07 10.11 33.49 9.95 32.00 10.14 C 32.00 10.89 31.98 12.40 31.98 13.15 C 34.67 14.72 37.33 16.36 40.01 17.97 C 40.00 19.63 40.00 21.30 40.00 22.96 C 43.45 24.90 47.12 26.47 50.41 28.66 C 52.19 30.30 49.92 32.53 48.00 32.04 C 48.00 39.36 48.00 46.68 48.00 54.00 C 36.00 54.00 24.00 54.00 12.00 54.00 C 12.00 46.68 12.00 39.36 12.00 32.04 C 10.07 32.55 7.79 30.26 9.61 28.64 C 12.94 26.54 16.56 24.93 20.00 23.03 C 20.00 21.35 20.00 19.67 20.00 17.99 C 22.70 16.40 25.38 14.77 28.04 13.12 C 28.03 12.38 28.01 10.89 27.99 10.14 C 26.60 9.93 23.83 10.13 24.07 8.00 C 23.81 5.90 26.51 6.06 27.88 5.88 M 28.44 30.26 C 27.24 33.22 28.74 36.70 27.60 39.68 C 25.22 40.75 21.38 41.58 22.03 45.06 C 22.25 48.93 28.38 48.85 29.46 45.53 C 30.42 42.04 29.88 38.35 29.99 34.78 C 31.99 34.17 34.00 33.57 36.00 32.97 C 35.97 31.28 35.95 29.60 35.95 27.91 C 33.46 28.68 30.66 28.80 28.44 30.26 Z" />
</g>
</svg>
