<?xml version="1.0" encoding="UTF-8" ?>
<!DOCTYPE svg PUBLIC "-//W3C//DTD SVG 1.1//EN" "http://www.w3.org/Graphics/SVG/1.1/DTD/svg11.dtd">
<svg width="60pt" height="60pt" viewBox="0 0 60 60" version="1.1" xmlns="http://www.w3.org/2000/svg">
<g id="#ffffffff">
<path fill="#ffffff" opacity="1.00" d=" M 0.00 0.00 L 60.00 0.00 L 60.00 60.00 L 0.00 60.00 L 0.00 0.00 M 24.42 6.66 C 17.10 8.39 10.75 13.76 7.89 20.71 C 5.20 27.00 5.42 34.46 8.48 40.58 C 11.92 47.67 19.06 52.82 26.90 53.78 C 33.92 54.74 41.31 52.35 46.43 47.44 C 51.47 42.74 54.32 35.79 53.95 28.90 C 53.69 21.78 49.97 14.95 44.27 10.72 C 38.68 6.52 31.21 5.03 24.42 6.66 Z" />
<path fill="#ffffff" opacity="1.00" d=" M 27.20 10.19 C 33.80 9.24 40.78 11.80 45.10 16.89 C 50.02 22.42 51.35 30.78 48.50 37.59 C 45.95 43.94 39.91 48.75 33.13 49.74 C 26.66 50.82 19.76 48.44 15.34 43.60 C 10.27 38.27 8.63 30.02 11.22 23.14 C 13.61 16.31 20.02 11.13 27.20 10.19 M 15.13 26.18 C 11.64 29.95 15.85 37.03 21.03 36.04 C 26.19 37.01 30.37 29.86 26.83 26.17 C 22.94 25.85 19.02 25.85 15.13 26.18 M 33.12 26.18 C 31.29 27.40 32.01 30.02 32.30 31.84 C 33.79 36.68 40.91 37.37 44.27 34.19 C 46.13 32.21 47.08 28.08 44.83 26.18 C 40.94 25.85 37.01 25.85 33.12 26.18 M 22.24 40.12 C 20.75 40.31 20.29 42.63 21.49 43.40 C 25.60 46.34 31.26 46.67 35.90 44.85 C 37.53 44.14 39.89 43.27 39.12 41.03 C 36.81 38.61 33.83 42.07 31.13 41.93 C 27.96 42.57 25.26 40.41 22.24 40.12 Z" />
</g>
<g id="#000000ff">
<path fill="#968176" opacity="1.00" d=" M 24.42 6.66 C 31.21 5.03 38.68 6.52 44.27 10.72 C 49.97 14.95 53.69 21.78 53.95 28.90 C 54.32 35.79 51.47 42.74 46.43 47.44 C 41.31 52.35 33.92 54.74 26.90 53.78 C 19.06 52.82 11.92 47.67 8.48 40.58 C 5.42 34.46 5.20 27.00 7.89 20.71 C 10.75 13.76 17.10 8.39 24.42 6.66 M 27.20 10.19 C 20.02 11.13 13.61 16.31 11.22 23.14 C 8.63 30.02 10.27 38.27 15.34 43.60 C 19.76 48.44 26.66 50.82 33.13 49.74 C 39.91 48.75 45.95 43.94 48.50 37.59 C 51.35 30.78 50.02 22.42 45.10 16.89 C 40.78 11.80 33.80 9.24 27.20 10.19 Z" />
<path fill="#968176" opacity="1.00" d=" M 15.13 26.18 C 19.02 25.85 22.94 25.85 26.83 26.17 C 30.37 29.86 26.19 37.01 21.03 36.04 C 15.85 37.03 11.64 29.95 15.13 26.18 Z" />
<path fill="#968176" opacity="1.00" d=" M 33.12 26.18 C 37.01 25.85 40.94 25.85 44.83 26.18 C 47.08 28.08 46.13 32.21 44.27 34.19 C 40.91 37.37 33.79 36.68 32.30 31.84 C 32.01 30.02 31.29 27.40 33.12 26.18 Z" />
<path fill="#968176" opacity="1.00" d=" M 22.24 40.12 C 25.26 40.41 27.96 42.57 31.13 41.93 C 33.83 42.07 36.81 38.61 39.12 41.03 C 39.89 43.27 37.53 44.14 35.90 44.85 C 31.26 46.67 25.60 46.34 21.49 43.40 C 20.29 42.63 20.75 40.31 22.24 40.12 Z" />
</g>
</svg>
