<?xml version="1.0" encoding="UTF-8" ?>
<!DOCTYPE svg PUBLIC "-//W3C//DTD SVG 1.1//EN" "http://www.w3.org/Graphics/SVG/1.1/DTD/svg11.dtd">
<svg width="60pt" height="60pt" viewBox="0 0 60 60" version="1.1" xmlns="http://www.w3.org/2000/svg">
<g id="#ffffffff">
<path fill="#ffffff" opacity="1.00" d=" M 0.00 0.00 L 60.00 0.00 L 60.00 7.10 C 59.27 3.37 54.90 3.47 52.78 5.94 C 54.54 7.72 56.31 9.49 58.09 11.24 C 58.72 10.18 59.40 9.15 60.00 8.06 L 60.00 60.00 L 0.00 60.00 L 0.00 0.00 M 8.00 12.98 C 8.03 24.68 7.94 36.38 8.04 48.08 C 7.92 50.60 10.57 52.35 12.90 52.00 C 24.63 51.97 36.36 52.06 48.08 51.96 C 50.10 52.00 51.99 50.13 51.95 48.10 C 52.08 39.63 51.95 31.15 52.01 22.68 C 50.68 24.07 49.01 25.22 48.07 26.92 C 47.89 33.94 48.06 40.97 48.00 48.00 C 36.00 48.00 24.00 48.00 12.00 48.00 C 12.00 38.67 12.00 29.33 12.00 20.00 C 18.68 19.99 25.37 20.02 32.05 20.00 C 33.48 20.30 34.34 18.99 35.25 18.17 C 38.56 14.74 41.98 11.40 45.33 8.00 C 34.19 8.03 23.04 7.94 11.89 8.04 C 9.39 7.99 7.60 10.62 8.00 12.98 M 28.95 30.05 C 28.63 32.03 28.32 34.01 28.00 36.00 C 29.98 35.68 31.97 35.37 33.95 35.05 C 40.99 28.01 48.04 20.96 55.08 13.92 C 53.42 12.22 51.77 10.51 49.98 8.94 C 43.04 16.05 35.95 23.00 28.95 30.05 Z" />
</g>
<g id="#000000ff">
<path fill="#968176" opacity="1.00" d=" M 52.78 5.94 C 54.90 3.47 59.27 3.37 60.00 7.10 L 60.00 8.06 C 59.40 9.15 58.72 10.18 58.09 11.24 C 56.31 9.49 54.54 7.72 52.78 5.94 Z" />
<path fill="#968176" opacity="1.00" d=" M 8.00 12.98 C 7.60 10.62 9.39 7.99 11.89 8.04 C 23.04 7.94 34.19 8.03 45.33 8.00 C 41.98 11.40 38.56 14.74 35.25 18.17 C 34.34 18.99 33.48 20.30 32.05 20.00 C 25.37 20.02 18.68 19.99 12.00 20.00 C 12.00 29.33 12.00 38.67 12.00 48.00 C 24.00 48.00 36.00 48.00 48.00 48.00 C 48.06 40.97 47.89 33.94 48.07 26.92 C 49.01 25.22 50.68 24.07 52.01 22.68 C 51.95 31.15 52.08 39.63 51.95 48.10 C 51.99 50.13 50.10 52.00 48.08 51.96 C 36.36 52.06 24.63 51.97 12.90 52.00 C 10.57 52.35 7.92 50.60 8.04 48.08 C 7.94 36.38 8.03 24.68 8.00 12.98 Z" />
<path fill="#968176" opacity="1.00" d=" M 28.95 30.05 C 35.95 23.00 43.04 16.05 49.98 8.94 C 51.77 10.51 53.42 12.22 55.08 13.92 C 48.04 20.96 40.99 28.01 33.95 35.05 C 31.97 35.37 29.98 35.68 28.00 36.00 C 28.32 34.01 28.63 32.03 28.95 30.05 Z" />
</g>
</svg>
