<?xml version="1.0" encoding="UTF-8" ?>
<!DOCTYPE svg PUBLIC "-//W3C//DTD SVG 1.1//EN" "http://www.w3.org/Graphics/SVG/1.1/DTD/svg11.dtd">
<svg width="60pt" height="60pt" viewBox="0 0 60 60" version="1.1" xmlns="http://www.w3.org/2000/svg">
<g id="#ffffffff">
<path fill="#ffffff" opacity="1.00" d=" M 0.00 0.00 L 60.00 0.00 L 60.00 60.00 L 0.00 60.00 L 0.00 0.00 M 6.32 8.46 C 4.92 10.87 8.02 12.70 7.98 15.03 C 8.04 26.02 7.99 37.01 7.99 48.00 C 8.04 50.74 7.61 53.63 8.91 56.17 C 9.56 56.03 10.88 55.74 11.53 55.60 C 11.77 54.40 12.00 53.19 12.21 51.99 C 24.07 52.01 35.93 52.01 47.79 51.99 C 48.00 53.20 48.23 54.40 48.47 55.61 C 49.13 55.75 50.44 56.03 51.10 56.17 C 52.38 53.62 51.97 50.74 52.01 48.01 C 52.01 37.01 51.96 26.02 52.02 15.03 C 51.98 12.70 55.04 10.86 53.67 8.47 C 52.63 5.56 48.28 5.12 46.71 7.79 C 44.59 10.55 48.08 13.12 48.32 15.92 C 36.11 16.05 23.89 16.05 11.68 15.92 C 11.93 13.12 15.36 10.55 13.30 7.79 C 11.74 5.08 7.40 5.60 6.32 8.46 Z" />
<path fill="#ffffff" opacity="1.00" d=" M 12.01 20.00 C 13.34 20.00 14.66 20.00 15.99 20.00 C 16.01 26.00 15.99 32.00 16.01 38.00 C 17.34 38.00 18.66 38.00 19.99 38.00 C 20.01 32.00 19.99 26.00 20.01 20.00 C 21.34 20.00 22.66 20.00 23.99 20.00 C 24.01 26.00 23.99 32.00 24.01 38.00 C 25.34 38.00 26.66 38.00 27.99 38.00 C 28.01 32.00 27.99 26.00 28.01 20.00 C 29.34 20.00 30.66 20.00 31.99 20.00 C 32.01 26.00 31.99 32.00 32.01 38.00 C 33.34 38.00 34.66 38.00 35.99 38.00 C 36.01 32.00 35.99 26.00 36.01 20.00 C 37.34 20.00 38.66 20.00 39.99 20.00 C 40.01 26.00 39.99 32.00 40.01 38.00 C 41.34 38.00 42.66 38.00 43.99 38.00 C 44.01 32.00 43.99 26.00 44.01 20.00 C 45.34 20.00 46.66 20.00 47.99 20.00 C 48.01 27.33 48.00 34.66 48.00 42.00 C 36.00 42.00 24.00 42.00 12.00 42.00 C 12.00 34.66 11.99 27.33 12.01 20.00 Z" />
</g>
<g id="#000000ff">
<path fill="#968176" opacity="1.00" d=" M 6.32 8.46 C 7.40 5.60 11.74 5.08 13.30 7.79 C 15.36 10.55 11.93 13.12 11.68 15.92 C 23.89 16.05 36.11 16.05 48.32 15.92 C 48.08 13.12 44.59 10.55 46.71 7.79 C 48.28 5.12 52.63 5.56 53.67 8.47 C 55.04 10.86 51.98 12.70 52.02 15.03 C 51.96 26.02 52.01 37.01 52.01 48.01 C 51.97 50.74 52.38 53.62 51.10 56.17 C 50.44 56.03 49.13 55.75 48.47 55.61 C 48.23 54.40 48.00 53.20 47.79 51.99 C 35.93 52.01 24.07 52.01 12.21 51.99 C 12.00 53.19 11.77 54.40 11.53 55.60 C 10.88 55.74 9.56 56.03 8.91 56.17 C 7.61 53.63 8.04 50.74 7.99 48.00 C 7.99 37.01 8.04 26.02 7.98 15.03 C 8.02 12.70 4.92 10.87 6.32 8.46 M 12.01 20.00 C 11.99 27.33 12.00 34.66 12.00 42.00 C 24.00 42.00 36.00 42.00 48.00 42.00 C 48.00 34.66 48.01 27.33 47.99 20.00 C 46.66 20.00 45.34 20.00 44.01 20.00 C 43.99 26.00 44.01 32.00 43.99 38.00 C 42.66 38.00 41.34 38.00 40.01 38.00 C 39.99 32.00 40.01 26.00 39.99 20.00 C 38.66 20.00 37.34 20.00 36.01 20.00 C 35.99 26.00 36.01 32.00 35.99 38.00 C 34.66 38.00 33.34 38.00 32.01 38.00 C 31.99 32.00 32.01 26.00 31.99 20.00 C 30.66 20.00 29.34 20.00 28.01 20.00 C 27.99 26.00 28.01 32.00 27.99 38.00 C 26.66 38.00 25.34 38.00 24.01 38.00 C 23.99 32.00 24.01 26.00 23.99 20.00 C 22.66 20.00 21.34 20.00 20.01 20.00 C 19.99 26.00 20.01 32.00 19.99 38.00 C 18.66 38.00 17.34 38.00 16.01 38.00 C 15.99 32.00 16.01 26.00 15.99 20.00 C 14.66 20.00 13.34 20.00 12.01 20.00 Z" />
</g>
</svg>
