<?xml version="1.0" encoding="UTF-8" ?>
<!DOCTYPE svg PUBLIC "-//W3C//DTD SVG 1.1//EN" "http://www.w3.org/Graphics/SVG/1.1/DTD/svg11.dtd">
<svg width="60pt" height="60pt" viewBox="0 0 60 60" version="1.1" xmlns="http://www.w3.org/2000/svg">
<g id="#ffffffff">
<path fill="#ffffff" opacity="1.00" d=" M 0.00 0.00 L 60.00 0.00 L 60.00 60.00 L 0.00 60.00 L 0.00 0.00 M 29.23 2.14 C 27.36 2.88 27.96 5.24 29.41 6.07 C 25.47 6.10 21.68 7.38 18.17 9.09 C 18.52 10.44 18.87 11.79 19.21 13.14 C 26.60 8.44 36.72 9.19 43.28 15.03 C 43.72 13.68 44.16 12.32 44.60 10.97 C 41.50 8.79 38.04 7.19 34.34 6.38 C 33.76 4.09 31.99 1.34 29.23 2.14 M 8.36 6.35 C 4.96 7.68 5.49 13.18 9.09 13.88 C 10.96 14.27 14.19 16.53 15.22 13.99 C 14.75 10.50 13.15 4.52 8.36 6.35 M 50.34 10.36 C 47.81 12.03 46.60 16.11 47.20 18.85 C 49.70 19.55 52.61 18.11 54.81 16.81 C 57.98 13.96 54.20 8.39 50.34 10.36 M 23.29 16.18 C 20.99 16.80 18.68 17.49 16.57 18.62 C 15.31 19.68 16.29 22.17 17.99 21.94 C 20.56 21.42 23.10 20.58 25.43 19.39 C 27.02 18.05 25.22 15.23 23.29 16.18 M 35.25 16.09 C 33.62 16.64 33.47 19.31 35.24 19.76 C 37.43 20.69 39.69 21.51 42.03 21.95 C 44.14 22.15 44.78 18.73 42.70 18.21 C 40.30 17.33 37.85 16.09 35.25 16.09 M 6.12 26.22 C 3.29 28.40 0.79 31.98 2.53 35.65 C 3.53 39.28 8.34 39.01 9.57 42.39 C 14.14 50.51 23.95 55.05 33.12 53.76 C 40.53 52.89 47.34 48.24 50.88 41.68 C 52.01 39.15 55.54 39.33 56.81 36.86 C 59.41 33.28 57.42 28.36 53.79 26.38 C 53.44 24.99 53.07 23.61 52.71 22.22 C 51.74 22.47 49.81 22.97 48.85 23.22 C 49.39 25.24 49.56 27.40 50.45 29.31 C 52.04 30.34 54.82 31.45 53.81 33.88 C 53.27 36.57 49.35 35.15 48.54 37.55 C 46.42 42.15 42.91 46.24 38.16 48.24 C 30.81 51.61 21.51 49.92 15.87 44.11 C 13.55 41.99 12.45 38.98 10.73 36.44 C 8.83 35.85 5.97 35.64 5.98 33.00 C 5.80 30.20 9.88 30.49 10.06 27.93 C 10.60 24.87 11.59 21.91 13.13 19.20 C 11.77 18.86 10.42 18.52 9.06 18.17 C 7.77 20.74 7.03 23.51 6.12 26.22 M 22.01 25.09 C 19.39 27.29 18.28 30.67 17.85 33.97 C 25.95 34.02 34.05 34.02 42.14 33.97 C 41.72 30.43 40.38 26.80 37.41 24.61 C 33.05 21.02 26.15 21.23 22.01 25.09 Z" />
</g>
<g id="#000000ff">
<path fill="#968176" opacity="1.00" d=" M 29.23 2.14 C 31.99 1.34 33.76 4.09 34.34 6.38 C 38.04 7.19 41.50 8.79 44.60 10.97 C 44.16 12.32 43.72 13.68 43.28 15.03 C 36.72 9.19 26.60 8.44 19.21 13.14 C 18.87 11.79 18.52 10.44 18.17 9.09 C 21.68 7.38 25.47 6.10 29.41 6.07 C 27.96 5.24 27.36 2.88 29.23 2.14 Z" />
<path fill="#968176" opacity="1.00" d=" M 8.36 6.35 C 13.15 4.52 14.75 10.50 15.22 13.99 C 14.19 16.53 10.96 14.27 9.09 13.88 C 5.49 13.18 4.96 7.68 8.36 6.35 Z" />
<path fill="#968176" opacity="1.00" d=" M 50.34 10.36 C 54.20 8.39 57.98 13.96 54.81 16.81 C 52.61 18.11 49.70 19.55 47.20 18.85 C 46.60 16.11 47.81 12.03 50.34 10.36 Z" />
<path fill="#968176" opacity="1.00" d=" M 23.29 16.18 C 25.22 15.23 27.02 18.05 25.43 19.39 C 23.10 20.58 20.56 21.42 17.99 21.94 C 16.29 22.17 15.31 19.68 16.57 18.62 C 18.68 17.49 20.99 16.80 23.29 16.18 Z" />
<path fill="#968176" opacity="1.00" d=" M 35.25 16.09 C 37.85 16.09 40.30 17.33 42.70 18.21 C 44.78 18.73 44.14 22.15 42.03 21.95 C 39.69 21.51 37.43 20.69 35.24 19.76 C 33.47 19.31 33.62 16.64 35.25 16.09 Z" />
<path fill="#968176" opacity="1.00" d=" M 6.12 26.22 C 7.03 23.51 7.77 20.74 9.06 18.17 C 10.42 18.52 11.77 18.86 13.13 19.20 C 11.59 21.91 10.60 24.87 10.06 27.93 C 9.88 30.49 5.80 30.20 5.98 33.00 C 5.97 35.64 8.83 35.85 10.73 36.44 C 12.45 38.98 13.55 41.99 15.87 44.11 C 21.51 49.92 30.81 51.61 38.16 48.24 C 42.91 46.24 46.42 42.15 48.54 37.55 C 49.35 35.15 53.27 36.57 53.81 33.88 C 54.82 31.45 52.04 30.34 50.45 29.31 C 49.56 27.40 49.39 25.24 48.85 23.22 C 49.81 22.97 51.74 22.47 52.71 22.22 C 53.07 23.61 53.44 24.99 53.79 26.38 C 57.42 28.36 59.41 33.28 56.81 36.86 C 55.54 39.33 52.01 39.15 50.88 41.68 C 47.34 48.24 40.53 52.89 33.12 53.76 C 23.95 55.05 14.14 50.51 9.57 42.39 C 8.34 39.01 3.53 39.28 2.53 35.65 C 0.79 31.98 3.29 28.40 6.12 26.22 Z" />
<path fill="#968176" opacity="1.00" d=" M 22.01 25.09 C 26.15 21.23 33.05 21.02 37.41 24.61 C 40.38 26.80 41.72 30.43 42.14 33.97 C 34.05 34.02 25.95 34.02 17.85 33.97 C 18.28 30.67 19.39 27.29 22.01 25.09 Z" />
</g>
</svg>
