<?xml version="1.0" encoding="UTF-8" ?>
<!DOCTYPE svg PUBLIC "-//W3C//DTD SVG 1.1//EN" "http://www.w3.org/Graphics/SVG/1.1/DTD/svg11.dtd">
<svg width="60pt" height="60pt" viewBox="0 0 60 60" version="1.1" xmlns="http://www.w3.org/2000/svg">
<g id="#ffffffff">
<path fill="#ffffff" opacity="1.00" d=" M 0.00 0.00 L 29.06 0.00 C 25.69 0.99 24.94 5.69 27.99 7.58 C 28.03 9.08 28.01 10.58 27.98 12.08 C 22.54 12.65 17.46 15.53 14.10 19.85 C 12.15 18.70 10.24 17.47 8.29 16.32 C 7.79 14.53 6.96 12.45 4.88 12.08 C 2.70 11.52 0.78 13.15 0.00 15.05 L 0.00 0.00 Z" />
<path fill="#ffffff" opacity="1.00" d=" M 30.91 0.00 L 60.00 0.00 L 60.00 13.25 C 59.40 10.60 56.02 8.93 53.77 10.74 C 52.37 11.53 52.12 13.18 51.75 14.58 C 49.53 15.97 47.43 17.55 45.25 19.00 C 41.85 15.19 37.12 12.61 32.02 12.07 C 32.00 10.56 31.95 9.05 32.03 7.54 C 35.06 5.69 34.30 0.91 30.91 0.00 Z" />
<path fill="#ffffff" opacity="1.00" d=" M 54.19 17.70 C 56.58 18.67 59.17 17.27 60.00 14.92 L 60.00 60.00 L 0.00 60.00 L 0.00 16.73 C 0.56 19.35 3.59 20.73 5.99 19.60 C 8.01 20.79 9.99 22.04 11.98 23.27 C 8.77 29.89 9.64 38.08 13.98 43.98 C 11.65 45.96 9.59 48.34 7.08 50.07 C 3.35 49.00 0.21 54.11 3.15 56.80 C 5.85 59.74 10.75 56.78 10.05 53.05 C 12.21 50.96 14.44 48.94 16.70 46.96 C 24.07 53.67 35.99 53.48 43.42 46.98 C 45.78 49.87 50.35 51.54 50.35 55.68 C 51.53 58.38 55.70 58.83 57.25 56.23 C 59.56 53.37 56.24 49.01 52.82 50.07 C 50.43 48.20 48.30 45.98 46.03 43.96 C 50.61 37.77 51.24 29.05 47.52 22.30 C 49.74 20.76 51.95 19.21 54.19 17.70 Z" />
<path fill="#ffffff" opacity="1.00" d=" M 25.64 19.67 C 29.80 15.29 38.24 20.69 35.60 26.36 C 35.67 27.00 35.81 28.28 35.88 28.92 C 34.59 31.16 31.66 33.77 33.63 36.38 C 35.91 37.89 39.08 38.82 39.61 41.97 C 33.20 42.02 26.80 42.02 20.39 41.97 C 20.88 38.77 24.16 37.91 26.41 36.33 C 28.31 33.72 25.40 31.16 24.13 28.93 C 24.63 25.85 23.08 22.23 25.64 19.67 Z" />
</g>
<g id="#000000ff">
<path fill="#968176" opacity="1.00" d=" M 29.06 0.00 L 30.91 0.00 C 34.30 0.91 35.06 5.69 32.03 7.54 C 31.95 9.05 32.00 10.56 32.02 12.07 C 37.12 12.61 41.85 15.19 45.25 19.00 C 47.43 17.55 49.53 15.97 51.75 14.58 C 52.12 13.18 52.37 11.53 53.77 10.74 C 56.02 8.93 59.40 10.60 60.00 13.25 L 60.00 14.92 C 59.17 17.27 56.58 18.67 54.19 17.70 C 51.95 19.21 49.74 20.76 47.52 22.30 C 51.24 29.05 50.61 37.77 46.03 43.96 C 48.30 45.98 50.43 48.20 52.82 50.07 C 56.24 49.01 59.56 53.37 57.25 56.23 C 55.70 58.83 51.53 58.38 50.35 55.68 C 50.35 51.54 45.78 49.87 43.42 46.98 C 35.99 53.48 24.07 53.67 16.70 46.96 C 14.44 48.94 12.21 50.96 10.05 53.05 C 10.75 56.78 5.85 59.74 3.15 56.80 C 0.21 54.11 3.35 49.00 7.08 50.07 C 9.59 48.34 11.65 45.96 13.98 43.98 C 9.64 38.08 8.77 29.89 11.98 23.27 C 9.99 22.04 8.01 20.79 5.99 19.60 C 3.59 20.73 0.56 19.35 0.00 16.73 L 0.00 15.05 C 0.78 13.15 2.70 11.52 4.88 12.08 C 6.96 12.45 7.79 14.53 8.29 16.32 C 10.24 17.47 12.15 18.70 14.10 19.85 C 17.46 15.53 22.54 12.65 27.98 12.08 C 28.01 10.58 28.03 9.08 27.99 7.58 C 24.94 5.69 25.69 0.99 29.06 0.00 M 25.64 19.67 C 23.08 22.23 24.63 25.85 24.13 28.93 C 25.40 31.16 28.31 33.72 26.41 36.33 C 24.16 37.91 20.88 38.77 20.39 41.97 C 26.80 42.02 33.20 42.02 39.61 41.97 C 39.08 38.82 35.91 37.89 33.63 36.38 C 31.66 33.77 34.59 31.16 35.88 28.92 C 35.81 28.28 35.67 27.00 35.60 26.36 C 38.24 20.69 29.80 15.29 25.64 19.67 Z" />
</g>
</svg>
