<?xml version="1.0" encoding="UTF-8" ?>
<!DOCTYPE svg PUBLIC "-//W3C//DTD SVG 1.1//EN" "http://www.w3.org/Graphics/SVG/1.1/DTD/svg11.dtd">
<svg width="60pt" height="60pt" viewBox="0 0 60 60" version="1.1" xmlns="http://www.w3.org/2000/svg">
<g id="#ffffffff">
<path fill="#ffffff" opacity="1.00" d=" M 0.00 0.00 L 60.00 0.00 L 60.00 60.00 L 0.00 60.00 L 0.00 0.00 M 10.36 8.34 C 8.55 9.08 7.84 11.11 8.00 12.94 C 8.03 24.62 7.94 36.31 8.04 47.99 C 7.93 50.55 10.55 52.35 12.94 52.00 C 24.62 51.97 36.31 52.06 48.00 51.96 C 50.55 52.06 52.35 49.46 52.00 47.06 C 51.97 35.38 52.06 23.69 51.96 12.00 C 52.06 9.45 49.46 7.64 47.06 8.00 C 34.84 8.23 22.53 7.54 10.36 8.34 Z" />
<path fill="#ffffff" opacity="1.00" d=" M 12.00 12.00 C 14.00 12.00 16.00 12.00 18.00 12.00 C 18.00 14.00 18.00 16.00 18.00 18.00 C 16.00 18.00 14.00 18.00 12.00 18.00 C 12.00 16.00 12.00 14.00 12.00 12.00 M 14.17 14.17 C 13.65 15.80 14.20 16.35 15.83 15.83 C 16.35 14.20 15.80 13.65 14.17 14.17 Z" />
<path fill="#ffffff" opacity="1.00" d=" M 22.00 12.00 C 24.00 12.00 26.00 12.00 28.00 12.00 C 28.00 14.00 28.00 16.00 28.00 18.00 C 26.00 18.00 24.00 18.00 22.00 18.00 C 22.00 16.00 22.00 14.00 22.00 12.00 M 24.17 14.17 C 23.65 15.80 24.20 16.35 25.83 15.83 C 26.35 14.20 25.80 13.65 24.17 14.17 Z" />
<path fill="#ffffff" opacity="1.00" d=" M 32.00 12.00 C 34.00 12.00 36.00 12.00 38.00 12.00 C 38.00 14.00 38.00 16.00 38.00 18.00 C 36.00 18.00 34.00 18.00 32.00 18.00 C 32.00 16.00 32.00 14.00 32.00 12.00 M 34.17 14.16 C 33.64 15.79 34.20 16.35 35.83 15.84 C 36.35 14.21 35.80 13.65 34.17 14.16 Z" />
<path fill="#ffffff" opacity="1.00" d=" M 42.00 12.00 C 44.00 12.00 46.00 12.00 48.00 12.00 C 48.00 14.00 48.00 16.00 48.00 18.00 C 46.00 18.00 44.00 18.00 42.00 18.00 C 42.00 16.00 42.00 14.00 42.00 12.00 M 44.17 14.17 C 43.65 15.80 44.20 16.35 45.83 15.83 C 46.35 14.20 45.80 13.65 44.17 14.17 Z" />
<path fill="#ffffff" opacity="1.00" d=" M 12.00 22.00 C 14.00 22.00 16.00 22.00 18.00 22.00 C 18.00 24.00 18.00 26.00 18.00 28.00 C 16.00 28.00 14.00 28.00 12.00 28.00 C 12.00 26.00 12.00 24.00 12.00 22.00 M 14.17 24.17 C 13.65 25.80 14.20 26.35 15.83 25.83 C 16.35 24.20 15.80 23.65 14.17 24.17 Z" />
<path fill="#ffffff" opacity="1.00" d=" M 22.00 22.00 C 24.00 22.00 26.00 22.00 28.00 22.00 C 28.00 24.00 28.00 26.00 28.00 28.00 C 26.00 28.00 24.00 28.00 22.00 28.00 C 22.00 26.00 22.00 24.00 22.00 22.00 Z" />
<path fill="#ffffff" opacity="1.00" d=" M 32.00 22.00 C 34.00 22.00 36.00 22.00 38.00 22.00 C 38.00 24.00 38.00 26.00 38.00 28.00 C 36.00 28.00 34.00 28.00 32.00 28.00 C 32.00 26.00 32.00 24.00 32.00 22.00 Z" />
<path fill="#ffffff" opacity="1.00" d=" M 42.00 22.00 C 44.00 22.00 46.00 22.00 48.00 22.00 C 48.00 24.00 48.00 26.00 48.00 28.00 C 46.00 28.00 44.00 28.00 42.00 28.00 C 42.00 26.00 42.00 24.00 42.00 22.00 Z" />
<path fill="#ffffff" opacity="1.00" d=" M 12.00 32.00 C 14.00 32.00 16.00 32.00 18.00 32.00 C 18.00 34.00 18.00 36.00 18.00 38.00 C 16.00 38.00 14.00 38.00 12.00 38.00 C 12.00 36.00 12.00 34.00 12.00 32.00 M 14.16 34.17 C 13.65 35.80 14.21 36.35 15.84 35.83 C 16.35 34.20 15.79 33.64 14.16 34.17 Z" />
<path fill="#ffffff" opacity="1.00" d=" M 22.00 32.00 C 24.00 32.00 26.00 32.00 28.00 32.00 C 28.00 34.00 28.00 36.00 28.00 38.00 C 26.00 38.00 24.00 38.00 22.00 38.00 C 22.00 36.00 22.00 34.00 22.00 32.00 Z" />
<path fill="#ffffff" opacity="1.00" d=" M 32.00 32.00 C 34.00 32.00 36.00 32.00 38.00 32.00 C 38.00 34.00 38.00 36.00 38.00 38.00 C 36.00 38.00 34.00 38.00 32.00 38.00 C 32.00 36.00 32.00 34.00 32.00 32.00 Z" />
<path fill="#ffffff" opacity="1.00" d=" M 42.00 32.00 C 44.00 32.00 46.00 32.00 48.00 32.00 C 48.00 34.00 48.00 36.00 48.00 38.00 C 46.00 38.00 44.00 38.00 42.00 38.00 C 42.00 36.00 42.00 34.00 42.00 32.00 Z" />
<path fill="#ffffff" opacity="1.00" d=" M 12.00 42.00 C 14.00 42.00 16.00 42.00 18.00 42.00 C 18.00 44.00 18.00 46.00 18.00 48.00 C 16.00 48.00 14.00 48.00 12.00 48.00 C 12.00 46.00 12.00 44.00 12.00 42.00 M 14.17 44.17 C 13.65 45.80 14.20 46.35 15.83 45.83 C 16.35 44.20 15.80 43.65 14.17 44.17 Z" />
<path fill="#ffffff" opacity="1.00" d=" M 22.00 42.00 C 24.00 42.00 26.00 42.00 28.00 42.00 C 28.00 44.00 28.00 46.00 28.00 48.00 C 26.00 48.00 24.00 48.00 22.00 48.00 C 22.00 46.00 22.00 44.00 22.00 42.00 Z" />
<path fill="#ffffff" opacity="1.00" d=" M 32.00 42.00 C 34.00 42.00 36.00 42.00 38.00 42.00 C 38.00 44.00 38.00 46.00 38.00 48.00 C 36.00 48.00 34.00 48.00 32.00 48.00 C 32.00 46.00 32.00 44.00 32.00 42.00 Z" />
<path fill="#ffffff" opacity="1.00" d=" M 42.00 42.00 C 44.00 42.00 46.00 42.00 48.00 42.00 C 48.00 44.00 48.00 46.00 48.00 48.00 C 46.00 48.00 44.00 48.00 42.00 48.00 C 42.00 46.00 42.00 44.00 42.00 42.00 Z" />
</g>
<g id="#000000ff">
<path fill="#968176" opacity="1.00" d=" M 10.36 8.34 C 22.53 7.54 34.84 8.23 47.06 8.00 C 49.46 7.64 52.06 9.45 51.96 12.00 C 52.06 23.69 51.97 35.38 52.00 47.06 C 52.35 49.46 50.55 52.06 48.00 51.96 C 36.31 52.06 24.62 51.97 12.94 52.00 C 10.55 52.35 7.93 50.55 8.04 47.99 C 7.94 36.31 8.03 24.62 8.00 12.94 C 7.84 11.11 8.55 9.08 10.36 8.34 M 12.00 12.00 C 12.00 14.00 12.00 16.00 12.00 18.00 C 14.00 18.00 16.00 18.00 18.00 18.00 C 18.00 16.00 18.00 14.00 18.00 12.00 C 16.00 12.00 14.00 12.00 12.00 12.00 M 22.00 12.00 C 22.00 14.00 22.00 16.00 22.00 18.00 C 24.00 18.00 26.00 18.00 28.00 18.00 C 28.00 16.00 28.00 14.00 28.00 12.00 C 26.00 12.00 24.00 12.00 22.00 12.00 M 32.00 12.00 C 32.00 14.00 32.00 16.00 32.00 18.00 C 34.00 18.00 36.00 18.00 38.00 18.00 C 38.00 16.00 38.00 14.00 38.00 12.00 C 36.00 12.00 34.00 12.00 32.00 12.00 M 42.00 12.00 C 42.00 14.00 42.00 16.00 42.00 18.00 C 44.00 18.00 46.00 18.00 48.00 18.00 C 48.00 16.00 48.00 14.00 48.00 12.00 C 46.00 12.00 44.00 12.00 42.00 12.00 M 12.00 22.00 C 12.00 24.00 12.00 26.00 12.00 28.00 C 14.00 28.00 16.00 28.00 18.00 28.00 C 18.00 26.00 18.00 24.00 18.00 22.00 C 16.00 22.00 14.00 22.00 12.00 22.00 M 22.00 22.00 C 22.00 24.00 22.00 26.00 22.00 28.00 C 24.00 28.00 26.00 28.00 28.00 28.00 C 28.00 26.00 28.00 24.00 28.00 22.00 C 26.00 22.00 24.00 22.00 22.00 22.00 M 32.00 22.00 C 32.00 24.00 32.00 26.00 32.00 28.00 C 34.00 28.00 36.00 28.00 38.00 28.00 C 38.00 26.00 38.00 24.00 38.00 22.00 C 36.00 22.00 34.00 22.00 32.00 22.00 M 42.00 22.00 C 42.00 24.00 42.00 26.00 42.00 28.00 C 44.00 28.00 46.00 28.00 48.00 28.00 C 48.00 26.00 48.00 24.00 48.00 22.00 C 46.00 22.00 44.00 22.00 42.00 22.00 M 12.00 32.00 C 12.00 34.00 12.00 36.00 12.00 38.00 C 14.00 38.00 16.00 38.00 18.00 38.00 C 18.00 36.00 18.00 34.00 18.00 32.00 C 16.00 32.00 14.00 32.00 12.00 32.00 M 22.00 32.00 C 22.00 34.00 22.00 36.00 22.00 38.00 C 24.00 38.00 26.00 38.00 28.00 38.00 C 28.00 36.00 28.00 34.00 28.00 32.00 C 26.00 32.00 24.00 32.00 22.00 32.00 M 32.00 32.00 C 32.00 34.00 32.00 36.00 32.00 38.00 C 34.00 38.00 36.00 38.00 38.00 38.00 C 38.00 36.00 38.00 34.00 38.00 32.00 C 36.00 32.00 34.00 32.00 32.00 32.00 M 42.00 32.00 C 42.00 34.00 42.00 36.00 42.00 38.00 C 44.00 38.00 46.00 38.00 48.00 38.00 C 48.00 36.00 48.00 34.00 48.00 32.00 C 46.00 32.00 44.00 32.00 42.00 32.00 M 12.00 42.00 C 12.00 44.00 12.00 46.00 12.00 48.00 C 14.00 48.00 16.00 48.00 18.00 48.00 C 18.00 46.00 18.00 44.00 18.00 42.00 C 16.00 42.00 14.00 42.00 12.00 42.00 M 22.00 42.00 C 22.00 44.00 22.00 46.00 22.00 48.00 C 24.00 48.00 26.00 48.00 28.00 48.00 C 28.00 46.00 28.00 44.00 28.00 42.00 C 26.00 42.00 24.00 42.00 22.00 42.00 M 32.00 42.00 C 32.00 44.00 32.00 46.00 32.00 48.00 C 34.00 48.00 36.00 48.00 38.00 48.00 C 38.00 46.00 38.00 44.00 38.00 42.00 C 36.00 42.00 34.00 42.00 32.00 42.00 M 42.00 42.00 C 42.00 44.00 42.00 46.00 42.00 48.00 C 44.00 48.00 46.00 48.00 48.00 48.00 C 48.00 46.00 48.00 44.00 48.00 42.00 C 46.00 42.00 44.00 42.00 42.00 42.00 Z" />
<path fill="#968176" opacity="1.00" d=" M 14.17 14.17 C 15.80 13.65 16.35 14.20 15.83 15.83 C 14.20 16.35 13.65 15.80 14.17 14.17 Z" />
<path fill="#968176" opacity="1.00" d=" M 24.17 14.17 C 25.80 13.65 26.35 14.20 25.83 15.83 C 24.20 16.35 23.65 15.80 24.17 14.17 Z" />
<path fill="#968176" opacity="1.00" d=" M 34.17 14.16 C 35.80 13.65 36.35 14.21 35.83 15.84 C 34.20 16.35 33.64 15.79 34.17 14.16 Z" />
<path fill="#968176" opacity="1.00" d=" M 44.17 14.17 C 45.80 13.65 46.35 14.20 45.83 15.83 C 44.20 16.35 43.65 15.80 44.17 14.17 Z" />
<path fill="#968176" opacity="1.00" d=" M 14.17 24.17 C 15.80 23.65 16.35 24.20 15.83 25.83 C 14.20 26.35 13.65 25.80 14.17 24.17 Z" />
<path fill="#968176" opacity="1.00" d=" M 14.16 34.17 C 15.79 33.64 16.35 34.20 15.84 35.83 C 14.21 36.35 13.65 35.80 14.16 34.17 Z" />
<path fill="#968176" opacity="1.00" d=" M 14.17 44.17 C 15.80 43.65 16.35 44.20 15.83 45.83 C 14.20 46.35 13.65 45.80 14.17 44.17 Z" />
</g>
</svg>
