<?xml version="1.0" encoding="UTF-8" ?>
<!DOCTYPE svg PUBLIC "-//W3C//DTD SVG 1.1//EN" "http://www.w3.org/Graphics/SVG/1.1/DTD/svg11.dtd">
<svg width="60pt" height="60pt" viewBox="0 0 60 60" version="1.1" xmlns="http://www.w3.org/2000/svg">
<g id="#ffffffff">
<path fill="#ffffff" opacity="1.00" d=" M 0.00 0.00 L 60.00 0.00 L 60.00 60.00 L 0.00 60.00 L 0.00 0.00 M 27.28 7.18 C 22.78 11.54 21.83 18.05 19.81 23.71 C 17.54 26.88 13.47 28.09 10.90 30.99 C 10.08 31.74 9.87 32.64 10.27 33.69 C 12.63 35.06 15.46 34.06 18.01 34.04 C 17.41 38.01 16.95 42.01 16.53 46.00 C 25.42 46.00 34.32 46.00 43.21 46.00 C 42.37 40.08 41.35 34.19 40.21 28.32 C 43.32 26.17 46.40 23.52 47.61 19.81 C 48.02 18.42 48.34 15.93 46.32 15.79 C 43.84 17.76 41.21 19.56 38.02 20.10 C 36.75 15.88 35.93 11.33 33.22 7.73 C 31.89 5.80 28.91 5.40 27.28 7.18 M 15.15 50.19 C 13.26 50.93 13.89 54.15 15.99 53.91 C 25.32 54.07 34.67 54.06 44.00 53.91 C 46.57 54.19 46.62 49.85 44.05 50.10 C 34.43 49.99 24.76 49.81 15.15 50.19 Z" />
<path fill="#ffffff" opacity="1.00" d=" M 28.33 14.35 C 29.84 13.68 31.69 14.01 32.85 15.18 C 33.65 17.99 29.43 18.70 27.72 17.29 C 26.40 16.44 27.07 14.81 28.33 14.35 Z" />
<path fill="#ffffff" opacity="1.00" d=" M 27.53 22.67 C 29.70 21.29 33.71 22.10 34.00 25.01 C 33.57 28.33 28.54 28.92 26.62 26.54 C 25.35 25.37 26.17 23.36 27.53 22.67 Z" />
<path fill="#ffffff" opacity="1.00" d=" M 28.20 34.18 C 31.13 33.55 35.55 34.48 36.02 37.99 C 34.95 43.15 26.21 43.34 24.12 38.83 C 23.42 36.33 26.06 34.54 28.20 34.18 Z" />
</g>
<g id="#000000ff">
<path fill="#968176" opacity="1.00" d=" M 27.28 7.18 C 28.91 5.40 31.89 5.80 33.22 7.73 C 35.93 11.33 36.75 15.88 38.02 20.10 C 41.21 19.56 43.84 17.76 46.32 15.79 C 48.34 15.93 48.02 18.42 47.61 19.81 C 46.40 23.52 43.32 26.17 40.21 28.32 C 41.35 34.19 42.37 40.08 43.21 46.00 C 34.32 46.00 25.42 46.00 16.53 46.00 C 16.95 42.01 17.41 38.01 18.01 34.04 C 15.46 34.06 12.63 35.06 10.27 33.69 C 9.87 32.64 10.08 31.74 10.90 30.99 C 13.47 28.09 17.54 26.88 19.81 23.71 C 21.83 18.05 22.78 11.54 27.28 7.18 M 28.33 14.35 C 27.07 14.81 26.40 16.44 27.72 17.29 C 29.43 18.70 33.65 17.99 32.85 15.18 C 31.69 14.01 29.84 13.68 28.33 14.35 M 27.53 22.67 C 26.17 23.36 25.35 25.37 26.62 26.54 C 28.54 28.92 33.57 28.33 34.00 25.01 C 33.71 22.10 29.70 21.29 27.53 22.67 M 28.20 34.18 C 26.06 34.54 23.42 36.33 24.12 38.83 C 26.21 43.34 34.95 43.15 36.02 37.99 C 35.55 34.48 31.13 33.55 28.20 34.18 Z" />
<path fill="#968176" opacity="1.00" d=" M 15.15 50.19 C 24.76 49.81 34.43 49.99 44.05 50.10 C 46.62 49.85 46.57 54.19 44.00 53.91 C 34.67 54.06 25.32 54.07 15.99 53.91 C 13.89 54.15 13.26 50.93 15.15 50.19 Z" />
</g>
</svg>
