<?xml version="1.0" encoding="UTF-8" ?>
<!DOCTYPE svg PUBLIC "-//W3C//DTD SVG 1.1//EN" "http://www.w3.org/Graphics/SVG/1.1/DTD/svg11.dtd">
<svg width="60pt" height="60pt" viewBox="0 0 60 60" version="1.1" xmlns="http://www.w3.org/2000/svg">
<g id="#ffffffff">
<path fill="#ffffff" opacity="1.00" d=" M 0.00 0.00 L 60.00 0.00 L 60.00 60.00 L 0.00 60.00 L 0.00 0.00 M 14.08 14.01 C 10.52 13.27 7.38 11.25 4.00 9.98 C 4.00 15.31 4.00 20.65 4.00 25.98 C 8.38 27.12 12.46 30.02 17.06 29.86 C 22.84 27.93 28.26 25.05 33.92 22.78 C 35.53 21.97 38.14 21.27 37.95 18.98 C 38.12 17.59 36.67 16.86 36.06 15.80 C 42.08 16.81 47.21 20.57 53.10 21.97 C 56.30 22.02 57.01 17.16 54.03 16.14 C 47.69 12.80 41.66 8.74 35.06 5.98 C 27.90 8.17 21.29 11.99 14.08 14.01 M 28.95 39.71 C 26.24 41.07 26.65 44.77 29.72 45.28 C 31.85 49.43 36.27 52.56 41.09 51.92 C 45.16 51.65 48.42 48.73 50.29 45.28 C 53.34 44.76 53.75 41.08 51.05 39.70 C 50.15 34.43 45.57 29.88 40.05 30.03 C 34.49 29.84 29.84 34.40 28.95 39.71 Z" />
<path fill="#ffffff" opacity="1.00" d=" M 35.26 38.16 C 37.53 37.02 39.22 40.98 36.79 41.79 C 34.50 43.09 32.73 38.95 35.26 38.16 Z" />
<path fill="#ffffff" opacity="1.00" d=" M 43.18 38.20 C 45.48 36.93 47.27 41.01 44.75 41.82 C 42.51 43.00 40.77 39.05 43.18 38.20 Z" />
<path fill="#ffffff" opacity="1.00" d=" M 35.39 46.11 C 38.46 45.94 41.54 45.95 44.61 46.11 C 41.99 48.50 38.01 48.52 35.39 46.11 Z" />
</g>
<g id="#000000ff">
<path fill="#968176" opacity="1.00" d=" M 14.08 14.01 C 21.29 11.99 27.90 8.17 35.06 5.98 C 41.66 8.74 47.69 12.80 54.03 16.14 C 57.01 17.16 56.30 22.02 53.10 21.97 C 47.21 20.57 42.08 16.81 36.06 15.80 C 36.67 16.86 38.12 17.59 37.95 18.98 C 38.14 21.27 35.53 21.97 33.92 22.78 C 28.26 25.05 22.84 27.93 17.06 29.86 C 12.46 30.02 8.38 27.12 4.00 25.98 C 4.00 20.65 4.00 15.31 4.00 9.98 C 7.38 11.25 10.52 13.27 14.08 14.01 Z" />
<path fill="#968176" opacity="1.00" d=" M 28.95 39.71 C 29.84 34.40 34.49 29.84 40.05 30.03 C 45.57 29.88 50.15 34.43 51.05 39.70 C 53.75 41.08 53.34 44.76 50.29 45.28 C 48.42 48.73 45.16 51.65 41.09 51.92 C 36.27 52.56 31.85 49.43 29.72 45.28 C 26.65 44.77 26.24 41.07 28.95 39.71 M 35.26 38.16 C 32.73 38.95 34.50 43.09 36.79 41.79 C 39.22 40.98 37.53 37.02 35.26 38.16 M 43.18 38.20 C 40.77 39.05 42.51 43.00 44.75 41.82 C 47.27 41.01 45.48 36.93 43.18 38.20 M 35.39 46.11 C 38.01 48.52 41.99 48.50 44.61 46.11 C 41.54 45.95 38.46 45.94 35.39 46.11 Z" />
</g>
</svg>
