<?xml version="1.0" encoding="UTF-8" ?>
<!DOCTYPE svg PUBLIC "-//W3C//DTD SVG 1.1//EN" "http://www.w3.org/Graphics/SVG/1.1/DTD/svg11.dtd">
<svg width="60pt" height="60pt" viewBox="0 0 60 60" version="1.1" xmlns="http://www.w3.org/2000/svg">
<g id="#ffffffff">
<path fill="#ffffff" opacity="1.00" d=" M 0.00 0.00 L 60.00 0.00 L 60.00 60.00 L 0.00 60.00 L 0.00 0.00 M 24.08 7.92 C 23.87 12.99 24.05 18.06 24.02 23.13 C 22.52 21.97 21.36 19.62 19.16 20.06 C 18.11 20.72 17.78 21.63 18.16 22.80 C 19.91 24.99 22.07 26.81 24.01 28.83 C 23.99 34.99 24.00 41.15 24.01 47.30 C 22.67 47.60 21.34 47.90 20.00 48.16 C 19.88 43.16 20.26 38.13 19.82 33.14 C 17.55 31.28 14.19 30.33 11.27 30.14 C 8.78 32.08 10.45 36.04 10.04 38.82 C 8.81 38.18 6.87 37.40 6.13 39.16 C 5.60 41.74 8.68 43.06 10.01 44.86 C 10.00 46.49 10.01 48.11 10.00 49.73 C 8.64 50.09 5.83 49.88 6.06 52.00 C 5.80 53.54 7.68 54.19 8.91 53.96 C 17.06 53.52 24.85 50.63 32.98 50.05 C 39.32 49.53 44.72 53.87 51.00 53.95 C 52.23 54.22 54.26 53.57 53.93 51.97 C 54.16 49.88 51.34 50.10 50.00 49.72 C 50.00 46.76 50.00 43.80 50.00 40.83 C 51.38 39.07 54.21 37.80 53.95 35.24 C 53.19 33.45 51.23 34.11 49.95 34.82 C 49.98 31.59 50.20 28.34 49.82 25.13 C 47.74 22.58 44.13 25.65 42.21 27.10 C 41.71 33.86 42.14 40.66 42.01 47.44 C 40.02 46.91 38.02 46.45 36.00 46.04 C 35.99 38.31 36.01 30.58 35.99 22.85 C 37.37 21.07 40.27 19.78 39.94 17.20 C 39.14 15.46 37.26 16.12 35.98 16.81 C 35.77 14.79 36.61 12.31 35.32 10.60 C 32.62 8.83 29.64 7.50 26.69 6.22 C 25.60 5.52 23.90 6.66 24.08 7.92 Z" />
</g>
<g id="#000000ff">
<path fill="#968176" opacity="1.00" d=" M 24.08 7.92 C 23.90 6.66 25.60 5.52 26.69 6.22 C 29.64 7.50 32.62 8.83 35.32 10.60 C 36.61 12.31 35.77 14.79 35.98 16.81 C 37.26 16.12 39.14 15.46 39.94 17.20 C 40.27 19.78 37.37 21.07 35.99 22.85 C 36.01 30.58 35.99 38.31 36.00 46.04 C 38.02 46.45 40.02 46.91 42.01 47.44 C 42.14 40.66 41.71 33.86 42.21 27.10 C 44.13 25.65 47.74 22.58 49.82 25.13 C 50.20 28.34 49.98 31.59 49.95 34.82 C 51.23 34.11 53.19 33.45 53.95 35.24 C 54.21 37.80 51.38 39.07 50.00 40.83 C 50.00 43.80 50.00 46.76 50.00 49.72 C 51.34 50.10 54.16 49.88 53.93 51.97 C 54.26 53.57 52.23 54.22 51.00 53.95 C 44.72 53.87 39.32 49.53 32.98 50.05 C 24.85 50.63 17.06 53.52 8.91 53.96 C 7.68 54.19 5.80 53.54 6.06 52.00 C 5.83 49.88 8.64 50.09 10.00 49.73 C 10.01 48.11 10.00 46.49 10.01 44.86 C 8.68 43.06 5.60 41.74 6.13 39.16 C 6.87 37.40 8.81 38.18 10.04 38.82 C 10.45 36.04 8.78 32.08 11.27 30.14 C 14.19 30.33 17.55 31.28 19.82 33.14 C 20.26 38.13 19.88 43.16 20.00 48.16 C 21.34 47.90 22.67 47.60 24.01 47.30 C 24.00 41.15 23.99 34.99 24.01 28.83 C 22.07 26.81 19.91 24.99 18.16 22.80 C 17.78 21.63 18.11 20.72 19.16 20.06 C 21.36 19.62 22.52 21.97 24.02 23.13 C 24.05 18.06 23.87 12.99 24.08 7.92 Z" />
</g>
</svg>
