<?xml version="1.0" encoding="UTF-8" ?>
<!DOCTYPE svg PUBLIC "-//W3C//DTD SVG 1.1//EN" "http://www.w3.org/Graphics/SVG/1.1/DTD/svg11.dtd">
<svg width="60pt" height="60pt" viewBox="0 0 60 60" version="1.1" xmlns="http://www.w3.org/2000/svg">
<g id="#ffffffff">
<path fill="#ffffff" opacity="1.00" d=" M 0.00 0.00 L 60.00 0.00 L 60.00 60.00 L 0.00 60.00 L 0.00 0.00 M 9.16 8.19 C 7.28 8.89 7.85 12.06 9.91 11.92 C 22.94 12.10 35.99 11.96 49.02 11.99 C 50.25 12.13 52.26 11.59 51.93 9.97 C 52.17 7.88 49.46 7.96 48.07 7.98 C 35.10 8.15 22.11 7.73 9.16 8.19 M 9.12 16.17 C 8.88 16.40 8.42 16.85 8.18 17.08 C 7.73 27.04 8.16 37.05 7.98 47.02 C 8.20 48.62 7.42 50.85 9.12 51.83 C 14.75 52.18 20.42 52.01 26.06 51.93 C 30.24 51.50 25.76 44.38 29.98 44.07 C 34.26 44.33 29.75 51.52 33.95 51.93 C 39.33 52.06 44.74 52.06 50.13 51.92 C 51.68 52.03 52.14 50.26 51.99 49.04 C 51.96 38.66 52.10 28.28 51.92 17.92 C 52.00 15.78 49.43 15.97 47.97 15.98 C 35.02 16.13 22.05 15.76 9.12 16.17 Z" />
<path fill="#ffffff" opacity="1.00" d=" M 12.00 24.00 C 16.67 24.00 21.33 24.00 26.00 24.00 C 25.96 27.58 26.13 31.16 25.85 34.73 C 23.62 35.75 21.45 36.88 19.27 38.00 C 16.89 36.79 14.48 35.65 12.04 34.55 C 11.98 31.04 12.00 27.52 12.00 24.00 Z" />
<path fill="#ffffff" opacity="1.00" d=" M 34.00 24.00 C 38.67 24.00 43.33 24.00 48.00 24.00 C 47.99 27.55 48.06 31.10 47.91 34.65 C 45.69 35.74 43.47 36.87 41.27 38.00 C 38.88 36.80 36.45 35.65 34.02 34.52 C 33.99 31.02 34.00 27.51 34.00 24.00 Z" />
</g>
<g id="#000000ff">
<path fill="#968176" opacity="1.00" d=" M 9.16 8.19 C 22.11 7.73 35.10 8.15 48.07 7.98 C 49.46 7.96 52.17 7.88 51.93 9.97 C 52.26 11.59 50.25 12.13 49.02 11.99 C 35.99 11.96 22.94 12.10 9.91 11.92 C 7.85 12.06 7.28 8.89 9.16 8.19 Z" />
<path fill="#968176" opacity="1.00" d=" M 9.12 16.17 C 22.05 15.76 35.02 16.13 47.97 15.98 C 49.43 15.97 52.00 15.78 51.92 17.92 C 52.10 28.28 51.96 38.66 51.99 49.04 C 52.14 50.26 51.68 52.03 50.13 51.92 C 44.74 52.06 39.33 52.06 33.95 51.93 C 29.75 51.52 34.26 44.33 29.98 44.07 C 25.76 44.38 30.24 51.50 26.06 51.93 C 20.42 52.01 14.75 52.18 9.12 51.83 C 7.42 50.85 8.20 48.62 7.98 47.02 C 8.16 37.05 7.73 27.04 8.18 17.08 C 8.42 16.85 8.88 16.40 9.12 16.17 M 12.00 24.00 C 12.00 27.52 11.98 31.04 12.04 34.55 C 14.48 35.65 16.89 36.79 19.27 38.00 C 21.45 36.88 23.62 35.75 25.85 34.73 C 26.13 31.16 25.96 27.58 26.00 24.00 C 21.33 24.00 16.67 24.00 12.00 24.00 M 34.00 24.00 C 34.00 27.51 33.99 31.02 34.02 34.52 C 36.45 35.65 38.88 36.80 41.27 38.00 C 43.47 36.87 45.69 35.74 47.91 34.65 C 48.06 31.10 47.99 27.55 48.00 24.00 C 43.33 24.00 38.67 24.00 34.00 24.00 Z" />
</g>
</svg>
