<?xml version="1.0" encoding="UTF-8" ?>
<!DOCTYPE svg PUBLIC "-//W3C//DTD SVG 1.1//EN" "http://www.w3.org/Graphics/SVG/1.1/DTD/svg11.dtd">
<svg width="60pt" height="60pt" viewBox="0 0 60 60" version="1.1" xmlns="http://www.w3.org/2000/svg">
<g id="#ffffffff">
<path fill="#ffffff" opacity="1.00" d=" M 0.00 0.00 L 60.00 0.00 L 60.00 60.00 L 0.00 60.00 L 0.00 0.00 M 3.99 17.99 C 3.99 26.68 4.03 35.37 3.97 44.06 C 7.00 46.74 10.92 48.26 14.98 48.01 C 20.53 47.78 26.20 48.49 31.68 47.61 C 35.32 46.08 32.84 41.90 34.19 39.17 C 35.44 36.53 33.96 33.31 36.10 31.01 C 37.78 28.95 36.33 26.41 35.95 24.17 C 41.62 23.72 47.33 24.29 53.00 23.85 C 56.92 23.12 56.86 16.90 52.95 16.21 C 42.71 15.70 32.42 16.17 22.16 15.98 C 19.70 13.63 16.54 11.53 12.96 12.07 C 9.09 12.28 6.48 15.41 3.99 17.99 M 48.70 46.26 C 50.69 49.47 56.10 47.77 55.99 44.04 C 55.50 41.02 53.49 38.55 52.00 35.97 C 50.45 39.08 46.67 42.60 48.70 46.26 Z" />
</g>
<g id="#000000ff">
<path fill="#968176" opacity="1.00" d=" M 3.99 17.99 C 6.48 15.41 9.09 12.28 12.96 12.07 C 16.54 11.53 19.70 13.63 22.16 15.98 C 32.42 16.17 42.71 15.70 52.95 16.21 C 56.86 16.90 56.92 23.12 53.00 23.85 C 47.33 24.29 41.62 23.72 35.95 24.17 C 36.33 26.41 37.78 28.95 36.10 31.01 C 33.96 33.31 35.44 36.53 34.19 39.17 C 32.84 41.90 35.32 46.08 31.68 47.61 C 26.20 48.49 20.53 47.78 14.98 48.01 C 10.92 48.26 7.00 46.74 3.97 44.06 C 4.03 35.37 3.99 26.68 3.99 17.99 Z" />
<path fill="#968176" opacity="1.00" d=" M 48.70 46.26 C 46.67 42.60 50.45 39.08 52.00 35.97 C 53.49 38.55 55.50 41.02 55.99 44.04 C 56.10 47.77 50.69 49.47 48.70 46.26 Z" />
</g>
</svg>
