<?xml version="1.0" encoding="UTF-8" ?>
<!DOCTYPE svg PUBLIC "-//W3C//DTD SVG 1.1//EN" "http://www.w3.org/Graphics/SVG/1.1/DTD/svg11.dtd">
<svg width="60pt" height="60pt" viewBox="0 0 60 60" version="1.1" xmlns="http://www.w3.org/2000/svg">
<g id="#ffffffff">
<path fill="#ffffff" opacity="1.00" d=" M 0.00 0.00 L 60.00 0.00 L 60.00 60.00 L 0.00 60.00 L 0.00 0.00 M 3.99 18.00 C 3.99 26.68 4.04 35.36 3.97 44.04 C 9.60 49.60 17.93 47.67 25.02 48.01 C 28.09 47.92 32.80 48.91 33.87 44.96 C 32.98 40.86 35.37 37.18 34.93 33.07 C 37.23 30.49 37.15 27.21 35.92 24.16 C 41.59 23.73 47.29 24.28 52.96 23.85 C 56.88 23.16 56.89 16.95 52.99 16.22 C 42.74 15.69 32.43 16.18 22.15 15.98 C 19.69 13.61 16.51 11.52 12.91 12.08 C 9.06 12.31 6.47 15.42 3.99 18.00 M 48.35 45.65 C 49.75 49.03 55.07 48.52 55.89 44.97 C 56.20 41.56 53.51 38.81 52.00 35.97 C 50.48 38.96 47.21 42.05 48.35 45.65 Z" />
</g>
<g id="#000000ff">
<path fill="#968176" opacity="1.00" d=" M 3.99 18.00 C 6.47 15.42 9.06 12.31 12.91 12.08 C 16.51 11.52 19.69 13.61 22.15 15.98 C 32.43 16.18 42.74 15.69 52.99 16.22 C 56.89 16.95 56.88 23.16 52.96 23.85 C 47.29 24.28 41.59 23.73 35.92 24.16 C 37.15 27.21 37.23 30.49 34.93 33.07 C 35.37 37.18 32.98 40.86 33.87 44.96 C 32.80 48.91 28.09 47.92 25.02 48.01 C 17.93 47.67 9.60 49.60 3.97 44.04 C 4.04 35.36 3.99 26.68 3.99 18.00 Z" />
<path fill="#968176" opacity="1.00" d=" M 48.35 45.65 C 47.21 42.05 50.48 38.96 52.00 35.97 C 53.51 38.81 56.20 41.56 55.89 44.97 C 55.07 48.52 49.75 49.03 48.35 45.65 Z" />
</g>
</svg>
