<?xml version="1.0" encoding="UTF-8" ?>
<!DOCTYPE svg PUBLIC "-//W3C//DTD SVG 1.1//EN" "http://www.w3.org/Graphics/SVG/1.1/DTD/svg11.dtd">
<svg width="60pt" height="60pt" viewBox="0 0 60 60" version="1.1" xmlns="http://www.w3.org/2000/svg">
<g id="#ffffffff">
<path fill="#ffffff" opacity="1.00" d=" M 0.00 0.00 L 60.00 0.00 L 60.00 60.00 L 0.00 60.00 L 0.00 38.00 C 2.10 39.59 4.26 41.11 6.34 42.73 C 10.49 45.88 12.77 50.87 16.98 53.94 C 20.75 56.62 25.61 55.91 29.96 56.01 C 34.94 55.88 40.76 57.04 44.56 52.94 C 35.11 43.33 25.53 33.86 16.01 24.33 C 15.99 29.39 16.00 34.46 16.00 39.52 C 12.78 37.63 9.70 35.32 6.10 34.19 C 3.53 33.35 0.96 34.96 0.00 37.35 L 0.00 0.00 M 0.74 3.66 C 19.14 21.80 37.28 40.21 55.63 58.41 C 56.94 60.07 58.24 57.44 59.32 56.84 C 55.21 51.98 50.42 47.74 46.00 43.16 C 45.95 34.42 46.10 25.67 45.94 16.93 C 46.13 13.75 41.14 12.96 40.21 15.94 C 39.75 19.27 40.09 22.65 40.00 26.00 C 39.50 26.00 38.50 26.00 38.00 26.00 C 37.86 20.65 38.29 15.27 37.79 9.94 C 36.97 7.43 33.00 7.43 32.20 9.96 C 31.72 15.29 32.14 20.66 32.00 26.00 C 31.50 26.00 30.50 26.00 30.00 26.00 C 29.94 19.63 30.12 13.25 29.93 6.89 C 30.09 3.72 25.08 2.98 24.21 5.97 C 23.70 11.01 24.17 16.09 23.96 21.15 C 23.30 20.48 22.64 19.82 21.99 19.15 C 21.98 16.40 22.11 13.64 21.93 10.88 C 22.04 8.64 19.11 7.18 17.34 8.52 C 15.78 9.50 16.11 11.55 15.83 13.11 C 11.90 8.86 7.61 4.96 3.66 0.72 C 2.47 1.47 1.46 2.44 0.74 3.66 Z" />
</g>
<g id="#000000ff">
<path fill="#968176" opacity="1.00" d=" M 0.74 3.66 C 1.46 2.44 2.47 1.47 3.66 0.72 C 7.61 4.96 11.90 8.86 15.83 13.11 C 16.11 11.55 15.78 9.50 17.34 8.52 C 19.11 7.18 22.04 8.64 21.93 10.88 C 22.11 13.64 21.98 16.40 21.99 19.15 C 22.64 19.82 23.30 20.48 23.96 21.15 C 24.17 16.09 23.70 11.01 24.21 5.97 C 25.08 2.98 30.09 3.72 29.93 6.89 C 30.12 13.25 29.94 19.63 30.00 26.00 C 30.50 26.00 31.50 26.00 32.00 26.00 C 32.14 20.66 31.72 15.29 32.20 9.96 C 33.00 7.43 36.97 7.43 37.79 9.94 C 38.29 15.27 37.86 20.65 38.00 26.00 C 38.50 26.00 39.50 26.00 40.00 26.00 C 40.09 22.65 39.75 19.27 40.21 15.94 C 41.14 12.96 46.13 13.75 45.94 16.93 C 46.10 25.67 45.95 34.42 46.00 43.16 C 50.42 47.74 55.21 51.98 59.32 56.84 C 58.24 57.44 56.94 60.07 55.63 58.41 C 37.28 40.21 19.14 21.80 0.74 3.66 Z" />
<path fill="#968176" opacity="1.00" d=" M 16.01 24.33 C 25.53 33.86 35.11 43.33 44.56 52.94 C 40.76 57.04 34.94 55.88 29.96 56.01 C 25.61 55.91 20.75 56.62 16.98 53.94 C 12.77 50.87 10.49 45.88 6.34 42.73 C 4.26 41.11 2.10 39.59 0.00 38.00 L 0.00 37.35 C 0.96 34.96 3.53 33.35 6.10 34.19 C 9.70 35.32 12.78 37.63 16.00 39.52 C 16.00 34.46 15.99 29.39 16.01 24.33 Z" />
</g>
</svg>
