<?xml version="1.0" encoding="UTF-8" ?>
<!DOCTYPE svg PUBLIC "-//W3C//DTD SVG 1.1//EN" "http://www.w3.org/Graphics/SVG/1.1/DTD/svg11.dtd">
<svg width="60pt" height="60pt" viewBox="0 0 60 60" version="1.1" xmlns="http://www.w3.org/2000/svg">
<g id="#ffffffff">
<path fill="#ffffff" opacity="1.00" d=" M 0.00 0.00 L 60.00 0.00 L 60.00 29.76 C 59.58 28.70 59.13 27.64 58.68 26.59 C 51.78 28.32 44.86 29.95 38.02 31.89 C 38.83 33.03 39.64 34.18 40.44 35.33 C 47.22 35.83 53.70 33.76 60.00 31.54 L 60.00 60.00 L 0.00 60.00 L 0.00 47.27 C 0.62 48.37 1.25 49.47 1.91 50.55 C 7.58 48.45 13.02 45.80 18.54 43.34 C 20.06 37.86 22.58 32.74 24.30 27.33 C 16.61 31.02 8.26 33.76 1.41 38.95 C 1.83 40.32 2.26 41.70 2.70 43.07 C 5.59 41.93 8.52 40.86 11.51 40.00 C 7.70 42.08 3.85 44.08 0.00 46.09 L 0.00 0.00 M 26.40 9.36 C 25.55 11.31 23.37 13.64 25.35 15.63 C 26.12 17.31 27.99 16.60 29.41 16.56 C 30.76 14.66 31.70 12.54 31.60 10.17 C 31.05 9.74 29.95 8.90 29.40 8.48 C 28.65 8.70 27.15 9.14 26.40 9.36 M 12.14 26.15 C 10.36 27.18 8.21 28.09 7.65 30.30 C 16.12 29.69 23.44 24.85 31.50 22.62 C 36.93 20.60 42.91 20.08 48.05 17.35 C 47.09 16.17 46.13 15.00 45.16 13.84 C 33.81 16.87 22.50 20.51 12.14 26.15 M 30.77 25.77 C 32.95 27.01 34.73 28.78 36.30 30.71 C 41.92 28.44 47.67 26.40 53.02 23.53 C 52.15 22.12 51.24 20.73 50.22 19.42 C 43.74 21.56 37.13 23.31 30.77 25.77 M 22.98 47.19 C 21.25 46.57 19.57 45.85 18.00 44.88 C 16.71 45.78 15.48 46.78 14.32 47.86 C 14.86 49.12 15.40 50.37 15.95 51.62 C 22.44 49.05 28.56 45.67 34.94 42.88 C 34.46 39.47 33.14 36.26 30.31 34.13 C 28.51 38.84 25.29 42.75 22.98 47.19 Z" />
</g>
<g id="#000000ff">
<path fill="#968176" opacity="1.00" d=" M 26.40 9.36 C 27.15 9.14 28.65 8.70 29.40 8.48 C 29.95 8.90 31.05 9.74 31.60 10.17 C 31.70 12.54 30.76 14.66 29.41 16.56 C 27.99 16.60 26.12 17.31 25.35 15.63 C 23.37 13.64 25.55 11.31 26.40 9.36 Z" />
<path fill="#968176" opacity="1.00" d=" M 12.14 26.15 C 22.50 20.51 33.81 16.87 45.16 13.84 C 46.13 15.00 47.09 16.17 48.05 17.35 C 42.91 20.08 36.93 20.60 31.50 22.62 C 23.44 24.85 16.12 29.69 7.65 30.30 C 8.21 28.09 10.36 27.18 12.14 26.15 Z" />
<path fill="#968176" opacity="1.00" d=" M 30.77 25.77 C 37.13 23.31 43.74 21.56 50.22 19.42 C 51.24 20.73 52.15 22.12 53.02 23.53 C 47.67 26.40 41.92 28.44 36.30 30.71 C 34.73 28.78 32.95 27.01 30.77 25.77 Z" />
<path fill="#968176" opacity="1.00" d=" M 38.02 31.89 C 44.86 29.95 51.78 28.32 58.68 26.59 C 59.13 27.64 59.58 28.70 60.00 29.76 L 60.00 31.54 C 53.70 33.76 47.22 35.83 40.44 35.33 C 39.64 34.18 38.83 33.03 38.02 31.89 Z" />
<path fill="#968176" opacity="1.00" d=" M 1.41 38.95 C 8.26 33.76 16.61 31.02 24.30 27.33 C 22.58 32.74 20.06 37.86 18.54 43.34 C 13.02 45.80 7.58 48.45 1.91 50.55 C 1.25 49.47 0.62 48.37 0.00 47.27 L 0.00 46.09 C 3.85 44.08 7.70 42.08 11.51 40.00 C 8.52 40.86 5.59 41.93 2.70 43.07 C 2.26 41.70 1.83 40.32 1.41 38.95 Z" />
<path fill="#968176" opacity="1.00" d=" M 22.98 47.19 C 25.29 42.75 28.51 38.84 30.31 34.13 C 33.14 36.26 34.46 39.47 34.94 42.88 C 28.56 45.67 22.44 49.05 15.95 51.62 C 15.40 50.37 14.86 49.12 14.32 47.86 C 15.48 46.78 16.71 45.78 18.00 44.88 C 19.57 45.85 21.25 46.57 22.98 47.19 Z" />
</g>
</svg>
