<?xml version="1.0" encoding="UTF-8" ?>
<!DOCTYPE svg PUBLIC "-//W3C//DTD SVG 1.1//EN" "http://www.w3.org/Graphics/SVG/1.1/DTD/svg11.dtd">
<svg width="60pt" height="60pt" viewBox="0 0 60 60" version="1.1" xmlns="http://www.w3.org/2000/svg">
<g id="#ffffffff">
<path fill="#ffffff" opacity="1.00" d=" M 0.00 0.00 L 60.00 0.00 L 60.00 60.00 L 0.00 60.00 L 0.00 0.00 M 18.00 8.12 C 18.00 22.71 18.00 37.29 18.00 51.88 C 22.07 51.96 25.23 54.69 28.93 55.89 C 33.72 56.37 37.16 51.71 42.00 51.88 C 42.00 42.59 42.00 33.29 42.00 24.00 C 46.38 23.92 50.76 24.15 55.13 23.92 C 57.38 24.02 58.76 21.16 57.51 19.37 C 56.78 18.09 55.18 18.15 53.93 17.95 C 53.27 18.64 52.62 19.33 51.96 20.01 C 48.64 19.99 45.32 20.01 42.00 20.00 C 42.00 16.04 42.00 12.08 42.00 8.12 C 37.17 8.29 33.74 3.66 28.96 4.11 C 25.24 5.29 22.08 8.04 18.00 8.12 Z" />
<path fill="#ffffff" opacity="1.00" d=" M 26.00 24.01 C 25.95 21.93 27.82 20.01 29.92 20.06 C 33.94 19.85 37.97 20.07 42.00 20.00 C 42.00 21.33 42.00 22.67 42.00 24.00 C 39.45 23.99 36.90 23.99 34.35 24.02 C 33.56 25.30 33.12 27.07 31.55 27.66 C 29.11 28.89 25.87 26.72 26.00 24.01 Z" />
<path fill="#ffffff" opacity="1.00" d=" M 28.43 38.45 C 30.53 36.99 33.86 39.33 32.70 41.79 C 31.55 43.77 32.96 47.57 29.98 48.04 C 27.61 47.85 28.21 45.12 27.76 43.51 C 27.20 41.84 26.48 39.52 28.43 38.45 Z" />
</g>
<g id="#000000ff">
<path fill="#968176" opacity="1.00" d=" M 18.00 8.12 C 22.08 8.04 25.24 5.29 28.96 4.11 C 33.74 3.66 37.17 8.29 42.00 8.12 C 42.00 12.08 42.00 16.04 42.00 20.00 C 37.97 20.07 33.94 19.85 29.92 20.06 C 27.82 20.01 25.95 21.93 26.00 24.01 C 25.87 26.72 29.11 28.89 31.55 27.66 C 33.12 27.07 33.56 25.30 34.35 24.02 C 36.90 23.99 39.45 23.99 42.00 24.00 C 42.00 33.29 42.00 42.59 42.00 51.88 C 37.16 51.71 33.72 56.37 28.93 55.89 C 25.23 54.69 22.07 51.96 18.00 51.88 C 18.00 37.29 18.00 22.71 18.00 8.12 M 28.43 38.45 C 26.48 39.52 27.20 41.84 27.76 43.51 C 28.21 45.12 27.61 47.85 29.98 48.04 C 32.96 47.57 31.55 43.77 32.70 41.79 C 33.86 39.33 30.53 36.99 28.43 38.45 Z" />
<path fill="#968176" opacity="1.00" d=" M 51.96 20.01 C 52.62 19.33 53.27 18.64 53.93 17.95 C 55.18 18.15 56.78 18.09 57.51 19.37 C 58.76 21.16 57.38 24.02 55.13 23.92 C 50.76 24.15 46.38 23.92 42.00 24.00 C 42.00 22.67 42.00 21.33 42.00 20.00 C 45.32 20.01 48.64 19.99 51.96 20.01 Z" />
</g>
</svg>
