<?xml version="1.0" encoding="UTF-8" ?>
<!DOCTYPE svg PUBLIC "-//W3C//DTD SVG 1.1//EN" "http://www.w3.org/Graphics/SVG/1.1/DTD/svg11.dtd">
<svg width="60pt" height="60pt" viewBox="0 0 60 60" version="1.1" xmlns="http://www.w3.org/2000/svg">
<g id="#ffffffff">
<path fill="#ffffff" opacity="1.00" d=" M 0.00 0.00 L 60.00 0.00 L 60.00 60.00 L 0.00 60.00 L 0.00 0.00 M 9.07 7.73 C 13.69 8.32 18.29 9.99 21.55 13.44 C 27.93 19.85 29.60 29.31 29.98 38.00 C 27.03 38.04 24.07 37.84 21.13 38.15 C 19.57 38.89 19.77 41.05 21.09 41.91 C 25.83 46.53 30.35 51.39 35.22 55.88 C 36.87 56.41 37.88 54.89 38.93 53.94 C 43.04 49.73 47.30 45.66 51.37 41.41 C 52.66 40.38 51.80 37.83 50.05 38.06 C 47.37 37.91 44.68 38.02 41.99 38.00 C 41.65 30.46 40.03 22.68 35.45 16.51 C 29.71 8.44 19.71 4.15 9.97 4.03 C 7.98 3.85 7.23 6.96 9.07 7.73 Z" />
</g>
<g id="#000000ff">
<path fill="#968176" opacity="1.00" d=" M 9.07 7.73 C 7.23 6.96 7.98 3.85 9.97 4.03 C 19.71 4.15 29.71 8.44 35.45 16.51 C 40.03 22.68 41.65 30.46 41.99 38.00 C 44.68 38.02 47.37 37.91 50.05 38.06 C 51.80 37.83 52.66 40.38 51.37 41.41 C 47.30 45.66 43.04 49.73 38.93 53.94 C 37.88 54.89 36.87 56.41 35.22 55.88 C 30.35 51.39 25.83 46.53 21.09 41.91 C 19.77 41.05 19.57 38.89 21.13 38.15 C 24.07 37.84 27.03 38.04 29.98 38.00 C 29.60 29.31 27.93 19.85 21.55 13.44 C 18.29 9.99 13.69 8.32 9.07 7.73 Z" />
</g>
</svg>
