<?xml version="1.0" encoding="UTF-8" ?>
<!DOCTYPE svg PUBLIC "-//W3C//DTD SVG 1.1//EN" "http://www.w3.org/Graphics/SVG/1.1/DTD/svg11.dtd">
<svg width="60pt" height="60pt" viewBox="0 0 60 60" version="1.1" xmlns="http://www.w3.org/2000/svg">
<g id="#ffffffff">
<path fill="#ffffff" opacity="1.00" d=" M 0.00 0.00 L 60.00 0.00 L 60.00 60.00 L 0.00 60.00 L 0.00 0.00 M 24.16 8.07 C 23.13 11.45 27.10 12.53 29.61 11.69 C 27.78 12.31 26.02 13.13 24.45 14.26 C 18.87 11.01 12.40 8.84 5.89 9.28 C 4.10 9.47 1.41 10.51 2.10 12.79 C 3.31 16.95 7.91 18.64 11.40 20.49 C 8.13 21.39 3.95 21.87 2.16 25.20 C 1.43 27.65 4.48 28.97 6.26 29.81 C 13.44 32.09 21.07 29.82 28.01 27.66 C 28.06 30.71 27.79 33.77 28.18 36.80 C 28.76 38.37 31.17 38.37 31.80 36.85 C 32.21 33.81 31.95 30.72 31.99 27.66 C 37.16 29.38 42.53 30.75 48.00 30.76 C 51.15 30.74 54.52 30.07 56.91 27.88 C 58.04 27.13 58.40 25.56 57.42 24.52 C 55.35 21.78 51.68 21.32 48.58 20.50 C 52.07 18.64 56.67 16.96 57.90 12.80 C 58.59 10.50 55.88 9.46 54.09 9.27 C 47.57 8.84 41.12 11.03 35.54 14.26 C 33.97 13.13 32.23 12.31 30.42 11.69 C 32.29 11.92 35.14 12.38 35.78 9.97 C 36.82 7.41 33.80 6.05 32.20 4.78 C 29.26 2.65 25.86 5.78 24.16 8.07 M 29.13 40.08 C 27.29 41.44 28.13 44.05 28.05 46.01 C 27.86 48.55 32.05 48.62 31.94 46.07 C 32.11 43.87 32.72 39.24 29.13 40.08 M 29.18 50.06 C 27.29 51.37 27.31 55.67 29.99 56.06 C 33.21 55.73 32.76 49.00 29.18 50.06 Z" />
<path fill="#ffffff" opacity="1.00" d=" M 6.87 13.12 C 13.45 13.33 20.12 15.51 25.10 19.89 C 18.62 19.16 12.03 17.27 6.87 13.12 Z" />
<path fill="#ffffff" opacity="1.00" d=" M 34.89 19.89 C 39.87 15.50 46.55 13.34 53.13 13.12 C 47.97 17.27 41.37 19.15 34.89 19.89 Z" />
<path fill="#ffffff" opacity="1.00" d=" M 7.69 25.63 C 13.55 23.65 19.85 23.61 25.96 24.04 C 20.18 25.73 13.54 28.25 7.69 25.63 Z" />
<path fill="#ffffff" opacity="1.00" d=" M 34.05 24.04 C 40.18 23.63 46.50 23.61 52.36 25.69 C 46.44 28.17 39.85 25.79 34.05 24.04 Z" />
</g>
<g id="#000000ff">
<path fill="#968176" opacity="1.00" d=" M 24.16 8.07 C 25.86 5.78 29.26 2.65 32.20 4.78 C 33.80 6.05 36.82 7.41 35.78 9.97 C 35.14 12.38 32.29 11.92 30.42 11.69 C 32.23 12.31 33.97 13.13 35.54 14.26 C 41.12 11.03 47.57 8.84 54.09 9.27 C 55.88 9.46 58.59 10.50 57.90 12.80 C 56.67 16.96 52.07 18.64 48.58 20.50 C 51.68 21.32 55.35 21.78 57.42 24.52 C 58.40 25.56 58.04 27.13 56.91 27.88 C 54.52 30.07 51.15 30.74 48.00 30.76 C 42.53 30.75 37.16 29.38 31.99 27.66 C 31.95 30.72 32.21 33.81 31.80 36.85 C 31.17 38.37 28.76 38.37 28.18 36.80 C 27.79 33.77 28.06 30.71 28.01 27.66 C 21.07 29.82 13.44 32.09 6.26 29.81 C 4.48 28.97 1.43 27.65 2.16 25.20 C 3.95 21.87 8.13 21.39 11.40 20.49 C 7.91 18.64 3.31 16.95 2.10 12.79 C 1.41 10.51 4.10 9.47 5.89 9.28 C 12.40 8.84 18.87 11.01 24.45 14.26 C 26.02 13.13 27.78 12.31 29.61 11.69 C 27.10 12.53 23.13 11.45 24.16 8.07 M 6.87 13.12 C 12.03 17.27 18.62 19.16 25.10 19.89 C 20.12 15.51 13.45 13.33 6.87 13.12 M 34.89 19.89 C 41.37 19.15 47.97 17.27 53.13 13.12 C 46.55 13.34 39.87 15.50 34.89 19.89 M 7.69 25.63 C 13.54 28.25 20.18 25.73 25.96 24.04 C 19.85 23.61 13.55 23.65 7.69 25.63 M 34.05 24.04 C 39.85 25.79 46.44 28.17 52.36 25.69 C 46.50 23.61 40.18 23.63 34.05 24.04 Z" />
<path fill="#968176" opacity="1.00" d=" M 29.13 40.08 C 32.72 39.24 32.11 43.87 31.94 46.07 C 32.05 48.62 27.86 48.55 28.05 46.01 C 28.13 44.05 27.29 41.44 29.13 40.08 Z" />
<path fill="#968176" opacity="1.00" d=" M 29.18 50.06 C 32.76 49.00 33.21 55.73 29.99 56.06 C 27.31 55.67 27.29 51.37 29.18 50.06 Z" />
</g>
</svg>
