<?xml version="1.0" encoding="UTF-8" ?>
<!DOCTYPE svg PUBLIC "-//W3C//DTD SVG 1.1//EN" "http://www.w3.org/Graphics/SVG/1.1/DTD/svg11.dtd">
<svg width="60pt" height="60pt" viewBox="0 0 60 60" version="1.1" xmlns="http://www.w3.org/2000/svg">
<g id="#ffffffff">
<path fill="#ffffff" opacity="1.00" d=" M 0.00 0.00 L 60.00 0.00 L 60.00 60.00 L 0.00 60.00 L 0.00 0.00 M 19.90 8.03 C 20.21 12.76 21.79 17.28 22.11 22.00 C 27.37 22.00 32.63 22.00 37.89 22.00 C 38.21 17.26 39.80 12.74 40.10 8.00 C 38.74 7.38 37.42 6.70 36.11 6.00 C 35.72 7.87 35.89 10.02 34.61 11.59 C 33.06 12.95 31.52 14.30 30.00 15.70 C 28.48 14.30 26.93 12.94 25.38 11.58 C 24.12 10.02 24.27 7.90 23.89 6.04 C 22.58 6.74 21.25 7.41 19.90 8.03 M 21.34 26.47 C 17.09 33.11 15.50 41.14 14.33 48.84 C 14.21 50.48 13.34 53.74 15.87 53.89 C 24.59 54.17 33.34 53.89 42.08 54.02 C 43.53 54.04 46.07 54.08 45.86 51.96 C 45.47 44.28 43.53 36.66 40.50 29.60 C 39.67 28.24 39.21 25.81 37.16 26.01 C 31.93 26.27 26.34 25.38 21.34 26.47 Z" />
</g>
<g id="#000000ff">
<path fill="#968176" opacity="1.00" d=" M 19.90 8.03 C 21.25 7.41 22.58 6.74 23.89 6.04 C 24.27 7.90 24.12 10.02 25.38 11.58 C 26.93 12.94 28.48 14.30 30.00 15.70 C 31.52 14.30 33.06 12.95 34.61 11.59 C 35.89 10.02 35.72 7.87 36.11 6.00 C 37.42 6.70 38.74 7.38 40.10 8.00 C 39.80 12.74 38.21 17.26 37.89 22.00 C 32.63 22.00 27.37 22.00 22.11 22.00 C 21.79 17.28 20.21 12.76 19.90 8.03 Z" />
<path fill="#968176" opacity="1.00" d=" M 21.34 26.47 C 26.34 25.38 31.93 26.27 37.16 26.01 C 39.21 25.81 39.67 28.24 40.50 29.60 C 43.53 36.66 45.47 44.28 45.86 51.96 C 46.07 54.08 43.53 54.04 42.08 54.02 C 33.34 53.89 24.59 54.17 15.87 53.89 C 13.34 53.74 14.21 50.48 14.33 48.84 C 15.50 41.14 17.09 33.11 21.34 26.47 Z" />
</g>
</svg>
