<?xml version="1.0" encoding="UTF-8" ?>
<!DOCTYPE svg PUBLIC "-//W3C//DTD SVG 1.1//EN" "http://www.w3.org/Graphics/SVG/1.1/DTD/svg11.dtd">
<svg width="60pt" height="60pt" viewBox="0 0 60 60" version="1.1" xmlns="http://www.w3.org/2000/svg">
<g id="#ffffffff">
<path fill="#ffffff" opacity="1.00" d=" M 0.00 0.00 L 60.00 0.00 L 60.00 60.00 L 0.00 60.00 L 0.00 0.00 M 11.55 7.96 C 9.44 8.01 7.31 7.88 5.22 8.19 C 3.63 8.72 3.61 11.20 5.16 11.80 C 7.41 12.16 9.69 11.98 11.96 12.00 C 12.08 14.84 11.61 18.03 13.41 20.48 C 14.58 22.38 16.73 23.19 18.66 24.07 C 19.11 25.36 19.57 26.66 20.02 27.95 C 18.04 28.01 16.03 27.90 14.07 28.27 C 10.62 29.04 7.99 32.38 8.04 35.92 C 7.97 40.62 7.91 45.32 8.08 50.01 C 7.83 52.10 11.09 52.74 11.81 50.84 C 12.50 45.36 11.39 39.74 12.36 34.30 C 13.95 30.96 18.24 32.22 21.16 32.02 C 23.41 34.63 26.94 33.95 29.99 34.03 C 33.04 33.95 36.58 34.63 38.83 32.02 C 41.76 32.22 46.03 30.96 47.62 34.29 C 48.62 39.73 47.50 45.36 48.19 50.85 C 48.95 52.75 52.11 52.12 51.92 50.02 C 51.88 44.48 52.49 38.82 51.52 33.36 C 50.02 28.46 44.41 27.51 39.98 27.95 C 40.44 26.65 40.89 25.36 41.35 24.07 C 43.26 23.19 45.39 22.39 46.56 20.51 C 48.39 18.06 47.92 14.86 48.04 12.00 C 50.59 11.52 55.25 13.44 56.05 9.95 C 55.18 6.66 50.84 8.46 48.38 7.97 C 47.42 5.58 44.57 5.56 43.60 7.97 C 41.17 8.35 37.92 7.06 36.11 9.15 C 35.51 13.51 41.46 11.61 44.05 12.01 C 44.01 14.78 44.58 19.08 40.98 19.84 C 33.67 20.11 26.31 20.11 19.00 19.84 C 15.40 19.06 16.00 14.78 15.95 12.01 C 18.53 11.60 22.03 13.04 23.91 10.79 C 24.43 6.56 18.72 8.35 16.18 8.00 C 15.88 7.45 15.27 6.35 14.96 5.80 C 13.50 5.96 12.39 6.80 11.55 7.96 Z" />
</g>
<g id="#000000ff">
<path fill="#968176" opacity="1.00" d=" M 11.55 7.96 C 12.39 6.80 13.50 5.96 14.96 5.80 C 15.27 6.35 15.88 7.45 16.18 8.00 C 18.72 8.35 24.43 6.56 23.91 10.79 C 22.03 13.04 18.53 11.60 15.95 12.01 C 16.00 14.78 15.40 19.06 19.00 19.84 C 26.31 20.11 33.67 20.11 40.98 19.84 C 44.58 19.08 44.01 14.78 44.05 12.01 C 41.46 11.61 35.51 13.51 36.11 9.15 C 37.92 7.06 41.17 8.35 43.60 7.97 C 44.57 5.56 47.42 5.58 48.38 7.97 C 50.84 8.46 55.18 6.66 56.05 9.95 C 55.25 13.44 50.59 11.52 48.04 12.00 C 47.92 14.86 48.39 18.06 46.56 20.51 C 45.39 22.39 43.26 23.19 41.35 24.07 C 40.89 25.36 40.44 26.65 39.98 27.95 C 44.41 27.51 50.02 28.46 51.52 33.36 C 52.49 38.82 51.88 44.48 51.92 50.02 C 52.11 52.12 48.95 52.75 48.19 50.85 C 47.50 45.36 48.62 39.73 47.62 34.29 C 46.03 30.96 41.76 32.22 38.83 32.02 C 36.58 34.63 33.04 33.95 29.99 34.03 C 26.94 33.95 23.41 34.63 21.16 32.02 C 18.24 32.22 13.95 30.96 12.36 34.30 C 11.39 39.74 12.50 45.36 11.81 50.84 C 11.09 52.74 7.83 52.10 8.08 50.01 C 7.91 45.32 7.97 40.62 8.04 35.92 C 7.99 32.38 10.62 29.04 14.07 28.27 C 16.03 27.90 18.04 28.01 20.02 27.95 C 19.57 26.66 19.11 25.36 18.66 24.07 C 16.73 23.19 14.58 22.38 13.41 20.48 C 11.61 18.03 12.08 14.84 11.96 12.00 C 9.69 11.98 7.41 12.16 5.16 11.80 C 3.61 11.20 3.63 8.72 5.22 8.19 C 7.31 7.88 9.44 8.01 11.55 7.96 Z" />
</g>
</svg>
