<?xml version="1.0" encoding="UTF-8" ?>
<!DOCTYPE svg PUBLIC "-//W3C//DTD SVG 1.1//EN" "http://www.w3.org/Graphics/SVG/1.1/DTD/svg11.dtd">
<svg width="60pt" height="60pt" viewBox="0 0 60 60" version="1.1" xmlns="http://www.w3.org/2000/svg">
<g id="#ffffffff">
<path fill="#ffffff" opacity="1.00" d=" M 0.00 0.00 L 60.00 0.00 L 60.00 60.00 L 0.00 60.00 L 0.00 0.00 M 5.22 11.17 C 3.59 12.65 4.10 15.03 3.98 16.98 C 4.14 25.66 3.76 34.35 4.16 43.02 C 4.72 45.86 7.99 46.08 10.32 46.15 C 10.67 44.76 11.02 43.38 11.37 42.00 C 10.53 42.00 8.84 42.00 8.00 42.00 C 8.00 32.67 8.00 23.33 8.00 14.00 C 22.67 14.00 37.33 14.00 52.00 14.00 C 52.00 23.33 52.00 32.66 52.00 41.98 C 51.13 42.00 49.40 42.03 48.53 42.05 C 48.94 43.38 49.29 44.74 49.83 46.03 C 52.44 46.49 56.01 45.32 55.94 42.15 C 56.08 33.07 55.97 24.00 55.99 14.92 C 56.32 12.61 54.67 9.97 52.15 10.06 C 38.10 9.91 24.03 10.06 9.97 9.98 C 8.34 10.04 6.42 9.83 5.22 11.17 M 30.00 18.88 C 30.00 20.58 30.00 22.29 30.00 24.00 C 32.67 24.00 35.33 24.00 38.00 24.00 C 38.00 22.00 38.00 20.00 38.00 18.00 C 35.33 18.29 32.67 18.58 30.00 18.88 M 20.00 19.97 C 20.00 21.31 20.00 22.66 20.00 24.00 C 22.67 24.00 25.33 24.00 28.00 24.00 C 28.00 22.37 28.00 20.73 27.99 19.10 C 25.33 19.39 22.67 19.68 20.00 19.97 M 20.00 26.00 C 20.00 27.34 20.00 28.69 20.00 30.03 C 22.67 30.32 25.33 30.61 28.00 30.90 C 28.00 29.27 28.00 27.63 28.00 26.00 C 25.33 26.00 22.67 26.00 20.00 26.00 M 30.00 26.00 C 30.00 27.71 30.00 29.42 30.00 31.12 C 32.67 31.42 35.33 31.71 38.00 32.00 C 38.00 30.00 38.00 28.00 38.00 26.00 C 35.33 26.00 32.67 26.00 30.00 26.00 M 17.07 38.06 C 15.60 41.55 14.34 45.22 14.03 49.01 C 13.86 53.47 18.72 57.15 22.96 55.70 C 25.74 55.04 27.14 52.39 28.20 50.00 C 29.40 49.99 30.60 49.99 31.79 50.00 C 32.78 51.98 33.70 54.28 35.87 55.24 C 39.14 57.00 43.57 55.51 45.18 52.20 C 46.90 48.90 45.30 45.16 44.38 41.86 C 43.57 39.64 42.99 36.28 40.05 36.10 C 34.37 35.84 28.68 36.09 22.99 35.98 C 20.92 36.01 18.06 35.74 17.07 38.06 Z" />
<path fill="#ffffff" opacity="1.00" d=" M 20.00 44.00 C 20.50 44.00 21.50 44.00 22.00 44.00 C 22.00 44.50 22.00 45.50 22.00 46.00 C 22.50 46.00 23.50 46.00 24.00 46.00 C 24.00 46.50 24.00 47.50 24.00 48.00 C 23.50 48.00 22.50 48.00 22.00 48.00 C 22.00 48.50 22.00 49.50 22.00 50.00 C 21.50 50.00 20.50 50.00 20.00 50.00 C 20.00 49.50 20.00 48.50 20.00 48.00 C 19.50 48.00 18.50 48.00 18.00 48.00 C 18.00 47.50 18.00 46.50 18.00 46.00 C 18.50 46.00 19.50 46.00 20.00 46.00 C 20.00 45.50 20.00 44.50 20.00 44.00 Z" />
<path fill="#ffffff" opacity="1.00" d=" M 37.59 44.69 C 38.26 44.43 39.61 43.91 40.28 43.65 L 39.31 45.17 C 40.31 45.66 41.31 46.17 42.28 46.71 C 41.99 47.11 41.41 47.90 41.11 48.30 C 39.97 47.07 38.77 45.89 37.59 44.69 Z" />
<path fill="#ffffff" opacity="1.00" d=" M 36.25 46.24 C 37.87 45.53 38.50 48.09 39.79 48.65 C 40.16 51.75 35.39 47.64 36.25 46.24 Z" />
</g>
<g id="#000000ff">
<path fill="#968176" opacity="1.00" d=" M 5.22 11.17 C 6.42 9.83 8.34 10.04 9.97 9.98 C 24.03 10.06 38.10 9.91 52.15 10.06 C 54.67 9.97 56.32 12.61 55.99 14.92 C 55.97 24.00 56.08 33.07 55.94 42.15 C 56.01 45.32 52.44 46.49 49.83 46.03 C 49.29 44.74 48.94 43.38 48.53 42.05 C 49.40 42.03 51.13 42.00 52.00 41.98 C 52.00 32.66 52.00 23.33 52.00 14.00 C 37.33 14.00 22.67 14.00 8.00 14.00 C 8.00 23.33 8.00 32.67 8.00 42.00 C 8.84 42.00 10.53 42.00 11.37 42.00 C 11.02 43.38 10.67 44.76 10.32 46.15 C 7.99 46.08 4.72 45.86 4.16 43.02 C 3.76 34.35 4.14 25.66 3.98 16.98 C 4.10 15.03 3.59 12.65 5.22 11.17 Z" />
<path fill="#968176" opacity="1.00" d=" M 30.00 18.88 C 32.67 18.58 35.33 18.29 38.00 18.00 C 38.00 20.00 38.00 22.00 38.00 24.00 C 35.33 24.00 32.67 24.00 30.00 24.00 C 30.00 22.29 30.00 20.58 30.00 18.88 Z" />
<path fill="#968176" opacity="1.00" d=" M 20.00 19.97 C 22.67 19.68 25.33 19.39 27.99 19.10 C 28.00 20.73 28.00 22.37 28.00 24.00 C 25.33 24.00 22.67 24.00 20.00 24.00 C 20.00 22.66 20.00 21.31 20.00 19.97 Z" />
<path fill="#968176" opacity="1.00" d=" M 20.00 26.00 C 22.67 26.00 25.33 26.00 28.00 26.00 C 28.00 27.63 28.00 29.27 28.00 30.90 C 25.33 30.61 22.67 30.32 20.00 30.03 C 20.00 28.69 20.00 27.34 20.00 26.00 Z" />
<path fill="#968176" opacity="1.00" d=" M 30.00 26.00 C 32.67 26.00 35.33 26.00 38.00 26.00 C 38.00 28.00 38.00 30.00 38.00 32.00 C 35.33 31.71 32.67 31.42 30.00 31.12 C 30.00 29.42 30.00 27.71 30.00 26.00 Z" />
<path fill="#968176" opacity="1.00" d=" M 17.07 38.06 C 18.06 35.74 20.92 36.01 22.99 35.98 C 28.68 36.09 34.37 35.84 40.05 36.10 C 42.99 36.28 43.57 39.64 44.38 41.86 C 45.30 45.16 46.90 48.90 45.18 52.20 C 43.57 55.51 39.14 57.00 35.87 55.24 C 33.70 54.28 32.78 51.98 31.79 50.00 C 30.60 49.99 29.40 49.99 28.20 50.00 C 27.14 52.39 25.74 55.04 22.96 55.70 C 18.72 57.15 13.86 53.47 14.03 49.01 C 14.34 45.22 15.60 41.55 17.07 38.06 M 20.00 44.00 C 20.00 44.50 20.00 45.50 20.00 46.00 C 19.50 46.00 18.50 46.00 18.00 46.00 C 18.00 46.50 18.00 47.50 18.00 48.00 C 18.50 48.00 19.50 48.00 20.00 48.00 C 20.00 48.50 20.00 49.50 20.00 50.00 C 20.50 50.00 21.50 50.00 22.00 50.00 C 22.00 49.50 22.00 48.50 22.00 48.00 C 22.50 48.00 23.50 48.00 24.00 48.00 C 24.00 47.50 24.00 46.50 24.00 46.00 C 23.50 46.00 22.50 46.00 22.00 46.00 C 22.00 45.50 22.00 44.50 22.00 44.00 C 21.50 44.00 20.50 44.00 20.00 44.00 M 37.59 44.69 C 38.77 45.89 39.97 47.07 41.11 48.30 C 41.41 47.90 41.99 47.11 42.28 46.71 C 41.31 46.17 40.31 45.66 39.31 45.17 L 40.28 43.65 C 39.61 43.91 38.26 44.43 37.59 44.69 M 36.25 46.24 C 35.39 47.64 40.16 51.75 39.79 48.65 C 38.50 48.09 37.87 45.53 36.25 46.24 Z" />
</g>
</svg>
