<?xml version="1.0" encoding="UTF-8" ?>
<!DOCTYPE svg PUBLIC "-//W3C//DTD SVG 1.1//EN" "http://www.w3.org/Graphics/SVG/1.1/DTD/svg11.dtd">
<svg width="60pt" height="60pt" viewBox="0 0 60 60" version="1.1" xmlns="http://www.w3.org/2000/svg">
<g id="#ffffffff">
<path fill="#ffffff" opacity="1.00" d=" M 0.00 0.00 L 60.00 0.00 L 60.00 60.00 L 0.00 60.00 L 0.00 0.00 M 15.12 2.11 C 12.90 3.26 14.40 6.84 16.80 5.90 C 19.16 4.80 17.57 1.11 15.12 2.11 M 15.22 10.16 C 13.95 10.62 13.53 12.51 14.62 13.39 C 15.55 14.71 18.27 13.71 17.92 12.03 C 18.27 10.66 16.37 9.55 15.22 10.16 M 14.17 19.09 C 13.78 22.69 14.09 26.31 14.00 29.92 C 10.92 29.68 7.30 30.79 6.33 34.06 C 5.67 37.32 6.11 40.69 6.01 44.00 C 22.04 43.99 38.08 44.03 54.11 43.98 C 53.77 35.07 45.13 29.13 36.92 28.19 C 38.72 26.67 37.95 23.17 35.21 24.13 C 32.72 26.34 30.30 28.68 28.16 31.24 C 27.43 32.67 28.88 33.68 29.97 34.23 C 30.49 33.92 31.52 33.32 32.04 33.02 C 32.41 35.85 31.69 39.97 28.06 39.96 C 24.73 39.83 19.36 41.25 18.13 36.96 C 17.70 31.04 18.32 25.09 17.85 19.18 C 17.22 17.61 14.90 17.61 14.17 19.09 M 5.10 48.17 C 3.26 49.02 3.93 52.18 6.03 51.94 C 21.70 52.07 37.37 51.97 53.04 51.99 C 54.61 52.40 56.67 50.96 55.83 49.25 C 55.27 47.62 53.33 48.12 52.03 47.99 C 36.39 48.13 20.72 47.76 5.10 48.17 Z" />
</g>
<g id="#000000ff">
<path fill="#968176" opacity="1.00" d=" M 15.12 2.11 C 17.57 1.11 19.16 4.80 16.80 5.90 C 14.40 6.84 12.90 3.26 15.12 2.11 Z" />
<path fill="#968176" opacity="1.00" d=" M 15.22 10.16 C 16.37 9.55 18.27 10.66 17.92 12.03 C 18.27 13.71 15.55 14.71 14.62 13.39 C 13.53 12.51 13.95 10.62 15.22 10.16 Z" />
<path fill="#968176" opacity="1.00" d=" M 14.17 19.09 C 14.90 17.61 17.22 17.61 17.85 19.18 C 18.32 25.09 17.70 31.04 18.13 36.96 C 19.36 41.25 24.73 39.83 28.06 39.96 C 31.69 39.97 32.41 35.85 32.04 33.02 C 31.52 33.32 30.49 33.92 29.97 34.23 C 28.88 33.68 27.43 32.67 28.16 31.24 C 30.30 28.68 32.72 26.34 35.21 24.13 C 37.95 23.17 38.72 26.67 36.92 28.19 C 45.13 29.13 53.77 35.07 54.11 43.98 C 38.08 44.03 22.04 43.99 6.01 44.00 C 6.11 40.69 5.67 37.32 6.33 34.06 C 7.30 30.79 10.92 29.68 14.00 29.92 C 14.09 26.31 13.78 22.69 14.17 19.09 Z" />
<path fill="#968176" opacity="1.00" d=" M 5.10 48.17 C 20.72 47.76 36.39 48.13 52.03 47.99 C 53.33 48.12 55.27 47.62 55.83 49.25 C 56.67 50.96 54.61 52.40 53.04 51.99 C 37.37 51.97 21.70 52.07 6.03 51.94 C 3.93 52.18 3.26 49.02 5.10 48.17 Z" />
</g>
</svg>
