<?xml version="1.0" encoding="UTF-8" ?>
<!DOCTYPE svg PUBLIC "-//W3C//DTD SVG 1.1//EN" "http://www.w3.org/Graphics/SVG/1.1/DTD/svg11.dtd">
<svg width="60pt" height="60pt" viewBox="0 0 60 60" version="1.1" xmlns="http://www.w3.org/2000/svg">
<g id="#ffffffff">
<path fill="#ffffff" opacity="1.00" d=" M 0.00 0.00 L 60.00 0.00 L 60.00 60.00 L 0.00 60.00 L 0.00 0.00 M 10.41 9.38 C 6.90 11.74 8.25 16.45 8.00 20.00 C 8.28 24.06 7.26 28.39 8.86 32.24 C 11.25 35.92 14.88 38.57 17.80 41.81 C 23.55 34.10 36.45 34.10 42.20 41.81 C 45.68 37.47 52.17 34.37 51.99 28.06 C 51.95 23.00 52.18 17.91 51.86 12.86 C 51.38 9.83 48.26 8.34 45.62 7.57 C 38.90 5.76 31.86 5.96 24.97 6.11 C 20.02 6.43 14.70 6.64 10.41 9.38 M 26.39 40.53 C 22.41 41.54 18.93 45.68 20.30 49.91 C 23.14 58.36 38.04 57.94 39.90 49.03 C 40.78 42.05 32.08 38.48 26.39 40.53 Z" />
<path fill="#ffffff" opacity="1.00" d=" M 19.50 12.72 C 26.45 11.74 33.57 11.73 40.52 12.73 C 43.10 13.29 46.26 13.78 47.77 16.22 C 48.10 19.16 48.43 22.34 47.39 25.17 C 45.45 28.98 40.52 28.09 37.04 27.79 C 33.45 27.11 33.52 22.48 30.88 20.78 C 27.96 19.81 27.30 23.47 26.09 25.24 C 24.11 29.05 18.99 28.11 15.48 27.71 C 10.85 25.94 11.90 20.09 12.22 16.20 C 13.76 13.77 16.91 13.28 19.50 12.72 Z" />
<path fill="#ffffff" opacity="1.00" d=" M 28.27 46.24 C 30.16 45.77 34.31 45.94 33.79 48.71 C 31.62 50.39 28.41 50.38 26.22 48.75 C 25.63 47.21 27.06 46.60 28.27 46.24 Z" />
</g>
<g id="#000000ff">
<path fill="#968176" opacity="1.00" d=" M 10.41 9.38 C 14.70 6.64 20.02 6.43 24.97 6.11 C 31.86 5.96 38.90 5.76 45.62 7.57 C 48.26 8.34 51.38 9.83 51.86 12.86 C 52.18 17.91 51.95 23.00 51.99 28.06 C 52.17 34.37 45.68 37.47 42.20 41.81 C 36.45 34.10 23.55 34.10 17.80 41.81 C 14.88 38.57 11.25 35.92 8.86 32.24 C 7.26 28.39 8.28 24.06 8.00 20.00 C 8.25 16.45 6.90 11.74 10.41 9.38 M 19.50 12.72 C 16.91 13.28 13.76 13.77 12.22 16.20 C 11.90 20.09 10.85 25.94 15.48 27.71 C 18.99 28.11 24.11 29.05 26.09 25.24 C 27.30 23.47 27.96 19.81 30.88 20.78 C 33.52 22.48 33.45 27.11 37.04 27.79 C 40.52 28.09 45.45 28.98 47.39 25.17 C 48.43 22.34 48.10 19.16 47.77 16.22 C 46.26 13.78 43.10 13.29 40.52 12.73 C 33.57 11.73 26.45 11.74 19.50 12.72 Z" />
<path fill="#968176" opacity="1.00" d=" M 26.39 40.53 C 32.08 38.48 40.78 42.05 39.90 49.03 C 38.04 57.94 23.14 58.36 20.30 49.91 C 18.93 45.68 22.41 41.54 26.39 40.53 M 28.27 46.24 C 27.06 46.60 25.63 47.21 26.22 48.75 C 28.41 50.38 31.62 50.39 33.79 48.71 C 34.31 45.94 30.16 45.77 28.27 46.24 Z" />
</g>
</svg>
