<?xml version="1.0" encoding="UTF-8" ?>
<!DOCTYPE svg PUBLIC "-//W3C//DTD SVG 1.1//EN" "http://www.w3.org/Graphics/SVG/1.1/DTD/svg11.dtd">
<svg width="60pt" height="60pt" viewBox="0 0 60 60" version="1.1" xmlns="http://www.w3.org/2000/svg">
<g id="#ffffffff">
<path fill="#ffffff" opacity="1.00" d=" M 0.00 0.00 L 60.00 0.00 L 60.00 60.00 L 0.00 60.00 L 0.00 0.00 M 20.16 7.14 C 17.11 11.16 16.00 16.23 14.49 20.94 C 24.78 19.62 35.24 19.68 45.53 20.99 C 43.76 15.93 42.86 10.04 38.83 6.20 C 35.02 5.08 31.55 9.20 27.82 7.41 C 25.45 6.77 22.09 4.72 20.16 7.14 M 6.57 27.50 C 4.79 28.31 3.23 30.56 4.40 32.47 C 5.80 34.86 8.78 35.32 11.17 36.20 C 10.10 40.08 9.76 44.16 10.21 48.16 C 10.44 50.42 12.67 52.15 14.91 51.98 C 19.27 52.06 23.63 51.66 27.98 52.03 C 22.92 50.99 18.87 46.14 20.13 40.84 C 20.95 33.39 29.22 31.46 34.47 27.87 C 37.17 30.99 40.81 33.76 41.88 37.93 C 42.33 42.28 42.59 48.62 37.18 49.97 C 41.21 49.33 46.86 51.56 49.51 47.45 C 50.75 43.81 49.70 39.82 49.28 36.11 C 51.87 35.14 55.71 34.34 56.00 30.99 C 55.67 27.65 51.83 26.72 49.15 25.94 C 40.27 23.86 31.05 23.75 21.98 24.30 C 16.77 24.77 11.36 25.21 6.57 27.50 Z" />
</g>
<g id="#000000ff">
<path fill="#968176" opacity="1.00" d=" M 20.16 7.14 C 22.09 4.72 25.45 6.77 27.82 7.41 C 31.55 9.20 35.02 5.08 38.83 6.20 C 42.86 10.04 43.76 15.93 45.53 20.99 C 35.24 19.68 24.78 19.62 14.49 20.94 C 16.00 16.23 17.11 11.16 20.16 7.14 Z" />
<path fill="#968176" opacity="1.00" d=" M 6.57 27.50 C 11.36 25.21 16.77 24.77 21.98 24.30 C 31.05 23.75 40.27 23.86 49.15 25.94 C 51.83 26.72 55.67 27.65 56.00 30.99 C 55.71 34.34 51.87 35.14 49.28 36.11 C 49.70 39.82 50.75 43.81 49.51 47.45 C 46.86 51.56 41.21 49.33 37.18 49.97 C 42.59 48.62 42.33 42.28 41.88 37.93 C 40.81 33.76 37.17 30.99 34.47 27.87 C 29.22 31.46 20.95 33.39 20.13 40.84 C 18.87 46.14 22.92 50.99 27.98 52.03 C 23.63 51.66 19.27 52.06 14.91 51.98 C 12.67 52.15 10.44 50.42 10.21 48.16 C 9.76 44.16 10.10 40.08 11.17 36.20 C 8.78 35.32 5.80 34.86 4.40 32.47 C 3.23 30.56 4.79 28.31 6.57 27.50 Z" />
</g>
</svg>
