<?xml version="1.0" encoding="UTF-8" ?>
<!DOCTYPE svg PUBLIC "-//W3C//DTD SVG 1.1//EN" "http://www.w3.org/Graphics/SVG/1.1/DTD/svg11.dtd">
<svg width="60pt" height="60pt" viewBox="0 0 60 60" version="1.1" xmlns="http://www.w3.org/2000/svg">
<g id="#ffffffff">
<path fill="#ffffff" opacity="1.00" d=" M 0.00 0.00 L 60.00 0.00 L 60.00 60.00 L 0.00 60.00 L 0.00 0.00 M 8.04 15.92 C 7.93 26.61 8.03 37.31 8.00 48.00 C 7.00 48.00 5.00 48.00 4.00 48.01 C 6.01 50.00 8.00 52.00 10.01 53.99 C 12.00 52.00 14.00 50.00 16.00 48.00 C 15.00 48.00 13.00 48.00 12.00 48.00 C 12.04 37.31 11.92 26.62 12.05 15.93 C 11.95 13.83 13.84 11.93 15.95 12.05 C 25.32 11.96 34.69 11.96 44.05 12.05 C 46.13 11.94 48.02 13.81 47.95 15.89 C 48.11 24.26 47.92 32.64 48.03 41.02 C 47.90 42.97 48.39 45.33 46.83 46.84 C 45.31 48.31 42.99 47.82 41.09 48.25 C 39.23 49.03 39.94 52.08 41.96 51.96 C 46.79 52.92 52.09 49.18 51.95 44.07 C 52.04 34.70 52.03 25.31 51.96 15.93 C 52.05 11.73 48.30 7.96 44.09 8.04 C 34.71 7.97 25.32 7.97 15.95 8.04 C 11.73 7.93 7.94 11.70 8.04 15.92 M 17.79 23.97 C 25.93 24.02 34.07 24.02 42.21 23.97 C 41.71 21.30 40.03 18.49 37.09 18.14 C 32.38 17.89 27.62 17.89 22.91 18.14 C 19.97 18.48 18.28 21.30 17.79 23.97 M 18.00 28.00 C 18.00 29.33 18.00 30.67 18.00 32.00 C 26.00 32.00 34.00 32.00 42.00 32.00 C 42.00 30.67 42.00 29.33 42.00 28.00 C 40.68 28.00 39.36 28.00 38.05 28.00 C 36.70 28.99 35.35 30.00 34.00 30.99 C 32.66 30.00 31.33 28.99 30.00 27.99 C 26.00 28.01 22.00 28.00 18.00 28.00 M 17.96 36.00 C 17.99 37.62 17.95 39.25 18.17 40.87 C 19.14 42.57 21.37 41.79 22.97 42.03 C 28.93 41.85 34.91 42.27 40.86 41.82 C 42.77 40.57 41.71 37.90 42.04 36.00 C 34.01 36.00 25.99 36.00 17.96 36.00 M 25.19 48.16 C 22.83 49.12 24.42 52.87 26.76 51.90 C 29.18 50.92 27.58 47.04 25.19 48.16 M 33.22 48.12 C 30.83 49.11 32.38 52.87 34.80 51.90 C 37.13 50.86 35.61 47.13 33.22 48.12 Z" />
</g>
<g id="#000000ff">
<path fill="#968176" opacity="1.00" d=" M 8.04 15.92 C 7.94 11.70 11.73 7.93 15.95 8.04 C 25.32 7.97 34.71 7.97 44.09 8.04 C 48.30 7.96 52.05 11.73 51.96 15.93 C 52.03 25.31 52.04 34.70 51.95 44.07 C 52.09 49.18 46.79 52.92 41.96 51.96 C 39.94 52.08 39.23 49.03 41.09 48.25 C 42.99 47.82 45.31 48.31 46.83 46.84 C 48.39 45.33 47.90 42.97 48.03 41.02 C 47.92 32.64 48.11 24.26 47.95 15.89 C 48.02 13.81 46.13 11.94 44.05 12.05 C 34.69 11.96 25.32 11.96 15.95 12.05 C 13.84 11.93 11.95 13.83 12.05 15.93 C 11.92 26.62 12.04 37.31 12.00 48.00 C 13.00 48.00 15.00 48.00 16.00 48.00 C 14.00 50.00 12.00 52.00 10.01 53.99 C 8.00 52.00 6.01 50.00 4.00 48.01 C 5.00 48.00 7.00 48.00 8.00 48.00 C 8.03 37.31 7.93 26.61 8.04 15.92 Z" />
<path fill="#968176" opacity="1.00" d=" M 17.79 23.97 C 18.28 21.30 19.97 18.48 22.91 18.14 C 27.62 17.89 32.38 17.89 37.09 18.14 C 40.03 18.49 41.71 21.30 42.21 23.97 C 34.07 24.02 25.93 24.02 17.79 23.97 Z" />
<path fill="#968176" opacity="1.00" d=" M 18.00 28.00 C 22.00 28.00 26.00 28.01 30.00 27.99 C 31.33 28.99 32.66 30.00 34.00 30.99 C 35.35 30.00 36.70 28.99 38.05 28.00 C 39.36 28.00 40.68 28.00 42.00 28.00 C 42.00 29.33 42.00 30.67 42.00 32.00 C 34.00 32.00 26.00 32.00 18.00 32.00 C 18.00 30.67 18.00 29.33 18.00 28.00 Z" />
<path fill="#968176" opacity="1.00" d=" M 17.96 36.00 C 25.99 36.00 34.01 36.00 42.04 36.00 C 41.71 37.90 42.77 40.57 40.86 41.82 C 34.91 42.27 28.93 41.85 22.97 42.03 C 21.37 41.79 19.14 42.57 18.17 40.87 C 17.95 39.25 17.99 37.62 17.96 36.00 Z" />
<path fill="#968176" opacity="1.00" d=" M 25.19 48.16 C 27.58 47.04 29.18 50.92 26.76 51.90 C 24.42 52.87 22.83 49.12 25.19 48.16 Z" />
<path fill="#968176" opacity="1.00" d=" M 33.22 48.12 C 35.61 47.13 37.13 50.86 34.80 51.90 C 32.38 52.87 30.83 49.11 33.22 48.12 Z" />
</g>
</svg>
