<?xml version="1.0" encoding="UTF-8" ?>
<!DOCTYPE svg PUBLIC "-//W3C//DTD SVG 1.1//EN" "http://www.w3.org/Graphics/SVG/1.1/DTD/svg11.dtd">
<svg width="60pt" height="60pt" viewBox="0 0 60 60" version="1.1" xmlns="http://www.w3.org/2000/svg">
<g id="#ffffffff">
<path fill="#ffffff" opacity="1.00" d=" M 0.00 0.00 L 60.00 0.00 L 60.00 45.57 C 59.84 37.88 52.61 31.27 44.91 32.08 C 37.44 32.48 31.26 39.71 32.08 47.15 C 32.52 54.02 38.62 59.74 45.46 60.00 L 0.00 60.00 L 0.00 0.00 M 10.00 8.90 C 10.03 23.28 9.95 37.67 10.04 52.06 C 9.92 54.14 11.88 55.99 13.91 55.96 C 19.58 56.10 25.25 55.91 30.91 56.05 C 27.36 50.21 26.91 42.45 30.65 36.60 C 34.51 30.07 42.65 26.76 50.01 28.39 C 49.33 24.35 51.71 18.99 47.95 16.08 C 44.25 12.43 40.61 8.73 36.91 5.09 C 36.04 3.81 34.44 4.02 33.10 3.98 C 26.69 4.05 20.27 3.92 13.87 4.04 C 11.42 4.00 9.62 6.57 10.00 8.90 Z" />
<path fill="#ffffff" opacity="1.00" d=" M 34.00 7.81 C 38.07 11.86 42.13 15.93 46.18 19.99 C 42.50 19.90 38.79 20.23 35.12 19.83 C 34.88 19.59 34.41 19.13 34.18 18.90 C 33.76 15.22 34.11 11.50 34.00 7.81 Z" />
<path fill="#ffffff" opacity="1.00" d=" M 39.94 38.06 C 43.22 35.49 48.10 35.34 51.54 37.70 C 46.83 42.25 42.28 46.96 37.61 51.55 C 34.88 47.28 35.77 41.09 39.94 38.06 Z" />
<path fill="#ffffff" opacity="1.00" d=" M 40.44 54.47 C 45.02 49.71 49.76 45.11 54.42 40.43 C 56.79 44.37 56.45 49.84 53.03 53.08 C 49.80 56.45 44.38 56.77 40.44 54.47 Z" />
<path fill="#ffffff" opacity="1.00" d=" M 46.47 60.00 C 53.59 59.79 59.74 53.67 60.00 46.55 L 60.00 60.00 L 46.47 60.00 Z" />
</g>
<g id="#000000ff">
<path fill="#968176" opacity="1.00" d=" M 10.00 8.90 C 9.62 6.57 11.42 4.00 13.87 4.04 C 20.27 3.92 26.69 4.05 33.10 3.98 C 34.44 4.02 36.04 3.81 36.91 5.09 C 40.61 8.73 44.25 12.43 47.95 16.08 C 51.71 18.99 49.33 24.35 50.01 28.39 C 42.65 26.76 34.51 30.07 30.65 36.60 C 26.91 42.45 27.36 50.21 30.91 56.05 C 25.25 55.91 19.58 56.10 13.91 55.96 C 11.88 55.99 9.92 54.14 10.04 52.06 C 9.95 37.67 10.03 23.28 10.00 8.90 M 34.00 7.81 C 34.11 11.50 33.76 15.22 34.18 18.90 C 34.41 19.13 34.88 19.59 35.12 19.83 C 38.79 20.23 42.50 19.90 46.18 19.99 C 42.13 15.93 38.07 11.86 34.00 7.81 Z" />
<path fill="#968176" opacity="1.00" d=" M 32.08 47.15 C 31.26 39.71 37.44 32.48 44.91 32.08 C 52.61 31.27 59.84 37.88 60.00 45.57 L 60.00 46.55 C 59.74 53.67 53.59 59.79 46.47 60.00 L 45.46 60.00 C 38.62 59.74 32.52 54.02 32.08 47.15 M 39.94 38.06 C 35.77 41.09 34.88 47.28 37.61 51.55 C 42.28 46.96 46.83 42.25 51.54 37.70 C 48.10 35.34 43.22 35.49 39.94 38.06 M 40.44 54.47 C 44.38 56.77 49.80 56.45 53.03 53.08 C 56.45 49.84 56.79 44.37 54.42 40.43 C 49.76 45.11 45.02 49.71 40.44 54.47 Z" />
</g>
</svg>
