<?xml version="1.0" encoding="UTF-8" ?>
<!DOCTYPE svg PUBLIC "-//W3C//DTD SVG 1.1//EN" "http://www.w3.org/Graphics/SVG/1.1/DTD/svg11.dtd">
<svg width="60pt" height="60pt" viewBox="0 0 60 60" version="1.1" xmlns="http://www.w3.org/2000/svg">
<g id="#ffffffff">
<path fill="#ffffff" opacity="1.00" d=" M 0.00 0.00 L 60.00 0.00 L 60.00 60.00 L 0.00 60.00 L 0.00 37.99 C 3.53 40.79 7.58 43.07 10.32 46.73 C 13.40 50.52 16.56 55.28 21.88 55.79 C 27.26 56.21 32.67 56.00 38.06 55.95 C 42.27 56.06 46.05 52.30 45.95 48.09 C 46.05 42.68 46.06 37.25 45.94 31.84 C 46.07 29.85 44.52 27.94 42.50 27.79 C 35.69 27.00 28.83 26.60 22.00 25.98 C 21.92 20.29 22.16 14.60 21.92 8.92 C 22.06 6.66 19.18 5.22 17.38 6.49 C 15.83 7.40 16.07 9.39 15.98 10.92 C 16.01 20.45 15.99 29.99 16.01 39.52 C 12.76 37.62 9.67 35.30 6.04 34.17 C 3.47 33.39 0.90 34.98 0.00 37.40 L 0.00 0.00 Z" />
</g>
<g id="#000000ff">
<path fill="#968176" opacity="1.00" d=" M 17.38 6.49 C 19.18 5.22 22.06 6.66 21.92 8.92 C 22.16 14.60 21.92 20.29 22.00 25.98 C 28.83 26.60 35.69 27.00 42.50 27.79 C 44.52 27.94 46.07 29.85 45.94 31.84 C 46.06 37.25 46.05 42.68 45.95 48.09 C 46.05 52.30 42.27 56.06 38.06 55.95 C 32.67 56.00 27.26 56.21 21.88 55.79 C 16.56 55.28 13.40 50.52 10.32 46.73 C 7.58 43.07 3.53 40.79 0.00 37.99 L 0.00 37.40 C 0.90 34.98 3.47 33.39 6.04 34.17 C 9.67 35.30 12.76 37.62 16.01 39.52 C 15.99 29.99 16.01 20.45 15.98 10.92 C 16.07 9.39 15.83 7.40 17.38 6.49 Z" />
</g>
</svg>
