<?xml version="1.0" encoding="UTF-8" ?>
<!DOCTYPE svg PUBLIC "-//W3C//DTD SVG 1.1//EN" "http://www.w3.org/Graphics/SVG/1.1/DTD/svg11.dtd">
<svg width="60pt" height="60pt" viewBox="0 0 60 60" version="1.1" xmlns="http://www.w3.org/2000/svg">
<g id="#ffffffff">
<path fill="#ffffff" opacity="1.00" d=" M 0.00 0.00 L 60.00 0.00 L 60.00 60.00 L 0.00 60.00 L 0.00 0.00 M 11.51 10.66 C 6.10 14.14 5.44 21.33 6.29 27.15 C 7.49 35.24 9.86 44.09 16.80 49.16 C 18.83 50.87 21.47 48.69 23.80 49.40 C 29.88 50.53 37.05 50.36 41.74 45.75 C 44.06 43.76 44.93 40.77 46.24 38.12 C 48.29 35.56 50.97 33.45 52.37 30.40 C 55.14 25.65 54.29 18.63 49.59 15.42 C 44.69 12.49 37.05 14.18 34.73 19.67 C 33.63 21.98 34.15 24.57 34.43 26.99 C 28.57 25.88 22.68 29.65 21.84 35.66 C 20.01 29.37 11.67 26.33 13.09 18.94 C 14.61 19.34 16.12 20.07 17.72 19.82 C 19.54 18.81 21.39 16.58 20.69 14.38 C 18.62 11.70 15.05 8.63 11.51 10.66 Z" />
</g>
<g id="#000000ff">
<path fill="#968176" opacity="1.00" d=" M 11.51 10.66 C 15.05 8.63 18.62 11.70 20.69 14.38 C 21.39 16.58 19.54 18.81 17.72 19.82 C 16.12 20.07 14.61 19.34 13.09 18.94 C 11.67 26.33 20.01 29.37 21.84 35.66 C 22.68 29.65 28.57 25.88 34.43 26.99 C 34.15 24.57 33.63 21.98 34.73 19.67 C 37.05 14.18 44.69 12.49 49.59 15.42 C 54.29 18.63 55.14 25.65 52.37 30.40 C 50.97 33.45 48.29 35.56 46.24 38.12 C 44.93 40.77 44.06 43.76 41.74 45.75 C 37.05 50.36 29.88 50.53 23.80 49.40 C 21.47 48.69 18.83 50.87 16.80 49.16 C 9.86 44.09 7.49 35.24 6.29 27.15 C 5.44 21.33 6.10 14.14 11.51 10.66 Z" />
</g>
</svg>
