<?xml version="1.0" encoding="UTF-8" ?>
<!DOCTYPE svg PUBLIC "-//W3C//DTD SVG 1.1//EN" "http://www.w3.org/Graphics/SVG/1.1/DTD/svg11.dtd">
<svg width="200pt" height="200pt" viewBox="0 0 200 200" version="1.1" xmlns="http://www.w3.org/2000/svg">
<g id="#ffffffff">
<path fill="#ffffff" opacity="1.00" d=" M 0.00 0.00 L 200.00 0.00 L 200.00 200.00 L 0.00 200.00 L 0.00 0.00 M 64.75 27.69 C 61.14 35.09 61.81 43.81 64.42 51.41 C 68.64 63.60 76.52 74.08 84.88 83.73 C 84.56 83.98 83.91 84.47 83.58 84.72 C 74.93 77.31 65.73 70.27 55.15 65.84 C 47.44 62.59 38.55 60.85 30.42 63.63 C 23.94 65.89 17.57 70.77 16.23 77.86 C 14.80 85.88 18.70 93.65 23.24 100.00 C 18.69 106.34 14.80 114.11 16.24 122.13 C 17.52 128.98 23.56 133.78 29.78 136.12 C 37.85 139.12 46.81 137.55 54.57 134.38 C 65.37 129.91 74.87 122.86 83.58 115.17 C 83.89 115.48 84.50 116.11 84.81 116.42 C 77.06 125.15 69.97 134.72 65.52 145.59 C 62.38 153.31 60.87 162.21 63.86 170.22 C 66.21 176.43 71.00 182.45 77.85 183.74 C 85.87 185.17 93.65 181.28 100.00 176.74 C 106.33 181.28 114.09 185.16 122.09 183.74 C 128.94 182.47 133.75 176.45 136.11 170.24 C 139.12 162.17 137.56 153.22 134.40 145.46 C 129.94 134.65 122.88 125.13 115.18 116.42 C 115.46 116.10 116.02 115.46 116.30 115.14 C 125.29 122.95 134.99 130.26 146.14 134.67 C 153.71 137.65 162.39 139.03 170.20 136.12 C 176.42 133.78 182.43 128.99 183.73 122.16 C 185.18 114.13 181.29 106.35 176.74 100.00 C 181.28 93.66 185.16 85.89 183.74 77.88 C 182.52 71.28 176.86 66.56 170.92 64.14 C 163.00 60.89 154.03 62.20 146.27 65.26 C 135.12 69.66 125.34 76.90 116.42 84.80 C 116.10 84.52 115.46 83.97 115.14 83.69 C 122.45 75.24 129.32 66.21 133.81 55.92 C 137.26 48.00 139.21 38.82 136.34 30.41 C 134.09 23.94 129.22 17.59 122.15 16.24 C 114.13 14.79 106.34 18.69 99.99 23.24 C 93.92 18.88 86.61 15.19 78.92 16.05 C 72.39 16.78 67.38 21.97 64.75 27.69 Z" />
<path fill="#ffffff" opacity="1.00" d=" M 96.46 90.64 C 103.47 87.59 111.76 94.77 109.76 102.13 C 108.51 109.35 98.65 112.60 93.38 107.49 C 87.75 102.94 89.58 92.90 96.46 90.64 Z" />
</g>
<g id="#000000ff">
<path fill="#968176" opacity="1.00" d=" M 64.75 27.69 C 67.38 21.97 72.39 16.78 78.92 16.05 C 86.61 15.19 93.92 18.88 99.99 23.24 C 106.34 18.69 114.13 14.79 122.15 16.24 C 129.22 17.59 134.09 23.94 136.34 30.41 C 139.21 38.82 137.26 48.00 133.81 55.92 C 129.32 66.21 122.45 75.24 115.14 83.69 C 115.46 83.97 116.10 84.52 116.42 84.80 C 125.34 76.90 135.12 69.66 146.27 65.26 C 154.03 62.20 163.00 60.89 170.92 64.14 C 176.86 66.56 182.52 71.28 183.74 77.88 C 185.16 85.89 181.28 93.66 176.74 100.00 C 181.29 106.35 185.18 114.13 183.73 122.16 C 182.43 128.99 176.42 133.78 170.20 136.12 C 162.39 139.03 153.71 137.65 146.14 134.67 C 134.99 130.26 125.29 122.95 116.30 115.14 C 116.02 115.46 115.46 116.10 115.18 116.42 C 122.88 125.13 129.94 134.65 134.40 145.46 C 137.56 153.22 139.12 162.17 136.11 170.24 C 133.75 176.45 128.94 182.47 122.09 183.74 C 114.09 185.16 106.33 181.28 100.00 176.74 C 93.65 181.28 85.87 185.17 77.85 183.74 C 71.00 182.45 66.21 176.43 63.86 170.22 C 60.87 162.21 62.38 153.31 65.52 145.59 C 69.97 134.72 77.06 125.15 84.81 116.42 C 84.50 116.11 83.89 115.48 83.58 115.17 C 74.87 122.86 65.37 129.91 54.57 134.38 C 46.81 137.55 37.85 139.12 29.78 136.12 C 23.56 133.78 17.52 128.98 16.24 122.13 C 14.80 114.11 18.69 106.34 23.24 100.00 C 18.70 93.65 14.80 85.88 16.23 77.86 C 17.57 70.77 23.94 65.89 30.42 63.63 C 38.55 60.85 47.44 62.59 55.15 65.84 C 65.73 70.27 74.93 77.31 83.58 84.72 C 83.91 84.47 84.56 83.98 84.88 83.73 C 76.52 74.08 68.64 63.60 64.42 51.41 C 61.81 43.81 61.14 35.09 64.75 27.69 M 96.46 90.64 C 89.58 92.90 87.75 102.94 93.38 107.49 C 98.65 112.60 108.51 109.35 109.76 102.13 C 111.76 94.77 103.47 87.59 96.46 90.64 Z" />
</g>
</svg>
