<?xml version="1.0" encoding="UTF-8" ?>
<!DOCTYPE svg PUBLIC "-//W3C//DTD SVG 1.1//EN" "http://www.w3.org/Graphics/SVG/1.1/DTD/svg11.dtd">
<svg width="60pt" height="60pt" viewBox="0 0 60 60" version="1.1" xmlns="http://www.w3.org/2000/svg">
<g id="#ffffffff">
<path fill="#ffffff" opacity="1.00" d=" M 0.00 0.00 L 27.93 0.00 C 22.90 0.71 20.91 6.25 22.67 10.57 C 20.98 12.95 20.13 15.75 19.80 18.62 C 17.62 19.92 16.30 22.02 15.73 24.45 C 7.20 27.43 3.38 38.52 7.84 46.24 C 10.31 50.29 14.79 52.76 19.30 53.85 C 20.85 54.41 22.59 52.88 21.82 51.28 C 20.17 49.44 16.67 47.41 18.52 44.53 C 21.22 41.39 25.86 42.13 29.56 42.02 C 30.79 42.57 32.25 44.19 33.36 42.53 C 33.84 41.52 34.24 40.48 34.67 39.45 C 35.66 39.61 37.64 39.94 38.63 40.10 C 39.59 42.76 42.51 42.52 43.72 40.18 C 45.58 40.10 47.44 40.30 49.24 40.82 C 42.93 46.42 33.79 45.31 26.00 46.12 C 24.65 45.98 23.94 47.56 24.24 48.68 C 25.13 50.42 27.33 49.80 28.91 50.15 C 29.69 51.42 30.46 52.68 31.24 53.94 C 31.41 52.93 31.75 50.90 31.91 49.88 C 36.50 49.59 41.05 48.95 45.51 47.83 C 44.29 49.44 41.74 50.55 42.04 52.90 C 42.98 53.87 44.35 54.55 45.47 53.42 C 48.40 51.85 49.34 48.50 50.22 45.55 C 51.46 43.97 53.23 42.37 52.98 40.15 C 52.71 38.32 50.72 37.65 49.31 36.95 C 51.01 33.88 53.09 30.36 51.37 26.80 C 49.87 22.43 44.82 22.14 41.07 21.01 C 37.26 19.79 33.23 20.14 29.32 20.58 C 27.77 19.10 25.86 18.14 23.81 17.53 C 24.34 16.17 24.89 14.82 25.45 13.48 C 28.76 14.31 32.97 14.18 34.89 10.88 C 37.61 6.83 35.12 0.91 30.32 0.00 L 60.00 0.00 L 60.00 60.00 L 0.00 60.00 L 0.00 0.00 Z" />
<path fill="#ffffff" opacity="1.00" d=" M 27.28 4.47 C 28.77 3.41 31.39 4.06 31.81 5.98 C 32.57 7.83 31.06 10.26 28.96 10.01 C 26.05 10.28 24.95 5.91 27.28 4.47 M 28.18 6.15 C 27.64 7.77 28.18 8.33 29.81 7.84 C 30.36 6.22 29.81 5.66 28.18 6.15 Z" />
<path fill="#ffffff" opacity="1.00" d=" M 41.60 26.66 C 44.16 24.80 48.30 26.74 47.96 30.05 C 48.13 32.71 45.35 34.71 42.85 33.89 C 39.69 33.21 39.08 28.46 41.60 26.66 M 44.18 28.16 C 43.64 29.78 44.19 30.33 45.81 29.83 C 46.35 28.21 45.80 27.66 44.18 28.16 Z" />
<path fill="#ffffff" opacity="1.00" d=" M 22.38 28.44 C 25.20 27.28 30.11 28.14 29.96 31.99 C 30.11 37.43 19.89 37.44 20.03 32.01 C 19.93 30.45 20.91 28.95 22.38 28.44 M 26.16 30.17 C 25.65 31.80 26.21 32.34 27.83 31.82 C 28.34 30.20 27.79 29.65 26.16 30.17 Z" />
<path fill="#ffffff" opacity="1.00" d=" M 32.81 37.12 C 34.92 35.43 38.80 35.44 40.02 38.16 C 37.59 38.06 34.95 38.59 32.81 37.12 Z" />
</g>
<g id="#000000ff">
<path fill="#968176" opacity="1.00" d=" M 27.93 0.00 L 30.32 0.00 C 35.12 0.91 37.61 6.83 34.89 10.88 C 32.97 14.18 28.76 14.31 25.45 13.48 C 24.89 14.82 24.34 16.17 23.81 17.53 C 25.86 18.14 27.77 19.10 29.32 20.58 C 33.23 20.14 37.26 19.79 41.07 21.01 C 44.82 22.14 49.87 22.43 51.37 26.80 C 53.09 30.36 51.01 33.88 49.31 36.95 C 50.72 37.65 52.71 38.32 52.98 40.15 C 53.23 42.37 51.46 43.97 50.22 45.55 C 49.34 48.50 48.40 51.85 45.47 53.42 C 44.35 54.55 42.98 53.87 42.04 52.90 C 41.74 50.55 44.29 49.44 45.51 47.83 C 41.05 48.95 36.50 49.59 31.91 49.88 C 31.75 50.90 31.41 52.93 31.24 53.94 C 30.46 52.68 29.69 51.42 28.91 50.15 C 27.33 49.80 25.13 50.42 24.24 48.68 C 23.94 47.56 24.65 45.98 26.00 46.12 C 33.79 45.31 42.93 46.42 49.24 40.82 C 47.44 40.30 45.58 40.10 43.72 40.18 C 42.51 42.52 39.59 42.76 38.63 40.10 C 37.64 39.94 35.66 39.61 34.67 39.45 C 34.24 40.48 33.84 41.52 33.36 42.53 C 32.25 44.19 30.79 42.57 29.56 42.02 C 25.86 42.13 21.22 41.39 18.52 44.53 C 16.67 47.41 20.17 49.44 21.82 51.28 C 22.59 52.88 20.85 54.41 19.30 53.85 C 14.79 52.76 10.31 50.29 7.84 46.24 C 3.38 38.52 7.20 27.43 15.73 24.45 C 16.30 22.02 17.62 19.92 19.80 18.62 C 20.13 15.75 20.98 12.95 22.67 10.57 C 20.91 6.25 22.90 0.71 27.93 0.00 M 27.28 4.47 C 24.95 5.91 26.05 10.28 28.96 10.01 C 31.06 10.26 32.57 7.83 31.81 5.98 C 31.39 4.06 28.77 3.41 27.28 4.47 M 41.60 26.66 C 39.08 28.46 39.69 33.21 42.85 33.89 C 45.35 34.71 48.13 32.71 47.96 30.05 C 48.30 26.74 44.16 24.80 41.60 26.66 M 22.38 28.44 C 20.91 28.95 19.93 30.45 20.03 32.01 C 19.89 37.44 30.11 37.43 29.96 31.99 C 30.11 28.14 25.20 27.28 22.38 28.44 M 32.81 37.12 C 34.95 38.59 37.59 38.06 40.02 38.16 C 38.80 35.44 34.92 35.43 32.81 37.12 Z" />
<path fill="#968176" opacity="1.00" d=" M 28.18 6.15 C 29.81 5.66 30.36 6.22 29.81 7.84 C 28.18 8.33 27.64 7.77 28.18 6.15 Z" />
<path fill="#968176" opacity="1.00" d=" M 44.18 28.16 C 45.80 27.66 46.35 28.21 45.81 29.83 C 44.19 30.33 43.64 29.78 44.18 28.16 Z" />
<path fill="#968176" opacity="1.00" d=" M 26.16 30.17 C 27.79 29.65 28.34 30.20 27.83 31.82 C 26.21 32.34 25.65 31.80 26.16 30.17 Z" />
</g>
</svg>
