<?xml version="1.0" encoding="UTF-8" ?>
<!DOCTYPE svg PUBLIC "-//W3C//DTD SVG 1.1//EN" "http://www.w3.org/Graphics/SVG/1.1/DTD/svg11.dtd">
<svg width="60pt" height="60pt" viewBox="0 0 60 60" version="1.1" xmlns="http://www.w3.org/2000/svg">
<g id="#ffffffff">
<path fill="#ffffff" opacity="1.00" d=" M 0.00 0.00 L 60.00 0.00 L 60.00 60.00 L 0.00 60.00 L 0.00 0.00 M 15.68 9.63 C 9.66 15.74 4.96 24.27 6.14 33.10 C 6.61 39.61 10.87 45.30 15.94 49.13 C 22.30 53.63 30.46 54.86 38.05 53.53 C 44.77 52.92 50.14 47.66 52.81 41.75 C 54.95 35.17 53.96 28.05 51.96 21.56 C 44.68 22.27 37.55 23.93 30.54 25.97 C 28.81 22.16 28.80 17.93 27.90 13.91 C 27.71 11.87 24.70 12.09 23.54 12.99 C 23.70 18.10 26.84 22.35 28.90 26.83 C 23.37 28.61 17.26 28.86 12.35 32.29 C 13.12 33.58 13.85 34.88 14.55 36.19 C 17.33 36.43 19.53 34.55 21.50 32.85 C 23.88 31.37 26.61 30.57 29.17 29.44 C 31.37 34.24 32.04 39.54 33.89 44.47 C 34.55 44.08 35.87 43.29 36.53 42.90 C 36.59 37.78 34.93 32.82 32.38 28.43 C 38.21 26.45 44.39 27.60 50.37 26.76 C 51.93 36.07 48.07 48.38 37.66 50.38 C 30.01 53.05 22.66 48.79 16.43 44.79 C 13.28 43.63 11.49 40.68 10.48 37.65 C 8.58 31.52 9.30 24.77 11.83 18.93 C 14.18 13.71 19.11 9.48 24.95 9.00 C 30.62 8.08 35.51 11.58 40.56 13.49 C 43.49 14.52 45.55 17.03 47.08 19.62 C 48.50 19.00 49.93 18.38 51.34 17.75 C 51.18 15.68 50.37 13.62 48.53 12.51 C 43.37 8.96 37.45 5.82 31.01 5.98 C 25.75 5.92 19.70 5.59 15.68 9.63 Z" />
</g>
<g id="#000000ff">
<path fill="#968176" opacity="1.00" d=" M 15.68 9.63 C 19.70 5.59 25.75 5.92 31.01 5.98 C 37.45 5.82 43.37 8.96 48.53 12.51 C 50.37 13.62 51.18 15.68 51.34 17.75 C 49.93 18.38 48.50 19.00 47.08 19.62 C 45.55 17.03 43.49 14.52 40.56 13.49 C 35.51 11.58 30.62 8.08 24.95 9.00 C 19.11 9.48 14.18 13.71 11.83 18.93 C 9.30 24.77 8.58 31.52 10.48 37.65 C 11.49 40.68 13.28 43.63 16.43 44.79 C 22.66 48.79 30.01 53.05 37.66 50.38 C 48.07 48.38 51.93 36.07 50.37 26.76 C 44.39 27.60 38.21 26.45 32.38 28.43 C 34.93 32.82 36.59 37.78 36.53 42.90 C 35.87 43.29 34.55 44.08 33.89 44.47 C 32.04 39.54 31.37 34.24 29.17 29.44 C 26.61 30.57 23.88 31.37 21.50 32.85 C 19.53 34.55 17.33 36.43 14.55 36.19 C 13.85 34.88 13.12 33.58 12.35 32.29 C 17.26 28.86 23.37 28.61 28.90 26.83 C 26.84 22.35 23.70 18.10 23.54 12.99 C 24.70 12.09 27.71 11.87 27.90 13.91 C 28.80 17.93 28.81 22.16 30.54 25.97 C 37.55 23.93 44.68 22.27 51.96 21.56 C 53.96 28.05 54.95 35.17 52.81 41.75 C 50.14 47.66 44.77 52.92 38.05 53.53 C 30.46 54.86 22.30 53.63 15.94 49.13 C 10.87 45.30 6.61 39.61 6.14 33.10 C 4.96 24.27 9.66 15.74 15.68 9.63 Z" />
</g>
</svg>
