<?xml version="1.0" encoding="UTF-8" ?>
<!DOCTYPE svg PUBLIC "-//W3C//DTD SVG 1.1//EN" "http://www.w3.org/Graphics/SVG/1.1/DTD/svg11.dtd">
<svg width="60pt" height="60pt" viewBox="0 0 60 60" version="1.1" xmlns="http://www.w3.org/2000/svg">
<g id="#ffffffff">
<path fill="#ffffff" opacity="1.00" d=" M 0.00 0.00 L 60.00 0.00 L 60.00 60.00 L 0.00 60.00 L 0.00 0.00 M 28.88 6.06 C 27.07 11.18 28.45 16.81 29.02 22.06 C 28.48 22.20 27.40 22.47 26.85 22.60 C 24.85 17.68 22.91 12.48 19.14 8.60 C 18.57 8.94 17.43 9.64 16.86 9.99 C 18.48 15.12 21.87 19.44 25.19 23.59 C 24.79 23.99 23.99 24.79 23.59 25.19 C 19.46 21.87 15.13 18.54 10.04 16.84 C 9.68 17.41 8.95 18.55 8.59 19.13 C 12.47 22.91 17.67 24.85 22.60 26.85 C 22.47 27.40 22.20 28.48 22.06 29.02 C 16.81 28.44 11.18 27.07 6.06 28.89 C 6.07 29.44 6.07 30.56 6.07 31.12 C 11.19 32.93 16.81 31.56 22.06 30.97 C 22.20 31.51 22.47 32.60 22.60 33.14 C 17.68 35.14 12.48 37.08 8.60 40.86 C 8.95 41.43 9.64 42.56 9.98 43.12 C 15.13 41.53 19.43 38.11 23.60 34.81 C 23.99 35.21 24.79 36.00 25.19 36.40 C 21.87 40.56 18.47 44.88 16.85 50.03 C 17.43 50.36 18.60 51.04 19.19 51.37 C 22.91 47.47 24.87 42.31 26.85 37.40 C 27.40 37.53 28.48 37.80 29.02 37.93 C 28.44 43.18 27.08 48.81 28.88 53.93 C 29.44 53.93 30.56 53.93 31.12 53.92 C 32.93 48.80 31.54 43.18 30.97 37.93 C 31.52 37.80 32.60 37.53 33.15 37.40 C 35.13 42.33 37.10 47.50 40.85 51.40 C 41.42 51.04 42.58 50.32 43.15 49.96 C 41.47 44.86 38.12 40.55 34.81 36.40 C 35.21 36.00 36.00 35.21 36.40 34.81 C 40.16 37.80 44.04 40.84 48.53 42.64 C 50.28 43.94 52.05 40.86 50.36 39.84 C 46.53 36.79 41.91 34.93 37.40 33.14 C 37.53 32.60 37.80 31.51 37.93 30.97 C 42.73 31.65 47.66 32.42 52.48 31.65 C 54.63 31.80 54.62 28.19 52.47 28.34 C 47.65 27.59 42.72 28.34 37.93 29.02 C 37.80 28.48 37.53 27.39 37.40 26.85 C 42.32 24.85 47.52 22.91 51.39 19.13 C 51.04 18.56 50.35 17.42 50.00 16.85 C 44.87 18.49 40.55 21.88 36.39 25.19 C 36.00 24.79 35.21 23.99 34.81 23.59 C 38.11 19.43 41.53 15.13 43.13 9.98 C 42.56 9.64 41.42 8.95 40.86 8.60 C 37.09 12.49 35.14 17.68 33.14 22.60 C 32.60 22.47 31.52 22.20 30.97 22.06 C 31.55 16.81 32.92 11.19 31.12 6.07 C 30.56 6.07 29.44 6.07 28.88 6.06 M 22.79 7.11 C 21.91 10.38 25.24 12.86 26.19 15.78 C 26.06 13.21 26.16 10.63 25.94 8.06 C 25.33 6.62 24.28 6.31 22.79 7.11 M 33.81 15.78 C 34.97 13.50 36.33 11.32 37.46 9.01 C 37.63 7.33 36.83 6.54 35.07 6.65 C 32.86 9.09 34.44 12.82 33.81 15.78 M 12.25 13.94 C 13.45 16.99 17.22 17.60 19.56 19.57 C 18.19 17.45 17.02 15.21 15.58 13.13 C 14.27 12.03 13.16 12.30 12.25 13.94 M 40.44 19.57 C 42.54 18.20 44.78 17.03 46.85 15.61 C 47.97 14.29 47.71 13.17 46.06 12.26 C 43.02 13.47 42.40 17.23 40.44 19.57 M 6.63 24.89 C 9.07 27.15 12.85 25.56 15.83 26.20 C 13.52 25.04 11.33 23.68 9.01 22.54 C 7.36 22.35 6.57 23.14 6.63 24.89 M 44.17 26.20 C 46.76 26.06 49.37 26.15 51.96 25.93 C 53.40 25.28 53.69 24.22 52.83 22.76 C 49.57 21.98 47.10 25.26 44.17 26.20 M 7.11 37.19 C 10.38 38.12 12.88 34.73 15.83 33.80 C 13.24 33.94 10.64 33.84 8.06 34.07 C 6.62 34.67 6.30 35.71 7.11 37.19 M 44.17 33.80 C 46.48 34.96 48.68 36.32 51.00 37.47 C 52.66 37.62 53.44 36.81 53.35 35.06 C 50.87 32.88 47.15 34.43 44.17 33.80 M 13.14 44.39 C 12.02 45.71 12.28 46.82 13.93 47.73 C 17.00 46.55 17.60 42.77 19.56 40.43 C 17.46 41.80 15.22 42.97 13.14 44.39 M 40.44 40.43 C 41.81 42.54 42.97 44.77 44.38 46.85 C 45.70 47.97 46.82 47.71 47.73 46.06 C 46.55 43.00 42.77 42.40 40.44 40.43 M 22.53 51.00 C 22.37 52.64 23.15 53.42 24.88 53.35 C 27.18 50.96 25.54 47.17 26.19 44.22 C 25.02 46.50 23.66 48.69 22.53 51.00 M 33.81 44.22 C 33.94 46.79 33.84 49.38 34.06 51.95 C 34.70 53.37 35.75 53.68 37.21 52.86 C 38.07 49.61 34.76 47.13 33.81 44.22 Z" />
<path fill="#ffffff" opacity="1.00" d=" M 28.31 26.36 C 30.82 25.09 34.11 27.16 34.00 29.98 C 34.18 33.10 30.19 35.18 27.71 33.29 C 25.19 31.71 25.56 27.47 28.31 26.36 Z" />
</g>
<g id="#000000ff">
<path fill="#968176" opacity="1.00" d=" M 28.88 6.06 C 29.44 6.07 30.56 6.07 31.12 6.07 C 32.92 11.19 31.55 16.81 30.97 22.06 C 31.52 22.20 32.60 22.47 33.14 22.60 C 35.14 17.68 37.09 12.49 40.86 8.60 C 41.42 8.95 42.56 9.64 43.13 9.98 C 41.53 15.13 38.11 19.43 34.81 23.59 C 35.21 23.99 36.00 24.79 36.39 25.19 C 40.55 21.88 44.87 18.49 50.00 16.85 C 50.35 17.42 51.04 18.56 51.39 19.13 C 47.52 22.91 42.32 24.85 37.40 26.85 C 37.53 27.39 37.80 28.48 37.93 29.02 C 42.72 28.34 47.65 27.59 52.47 28.34 C 54.62 28.19 54.63 31.80 52.48 31.65 C 47.66 32.42 42.73 31.65 37.93 30.97 C 37.80 31.51 37.53 32.60 37.40 33.14 C 41.91 34.93 46.53 36.79 50.36 39.84 C 52.05 40.86 50.28 43.94 48.53 42.64 C 44.04 40.84 40.16 37.80 36.40 34.81 C 36.00 35.21 35.21 36.00 34.81 36.40 C 38.12 40.55 41.47 44.86 43.15 49.96 C 42.58 50.32 41.42 51.04 40.85 51.40 C 37.10 47.50 35.13 42.33 33.15 37.40 C 32.60 37.53 31.52 37.80 30.97 37.93 C 31.54 43.18 32.93 48.80 31.12 53.92 C 30.56 53.93 29.44 53.93 28.88 53.93 C 27.08 48.81 28.44 43.18 29.02 37.93 C 28.48 37.80 27.40 37.53 26.85 37.40 C 24.87 42.31 22.91 47.47 19.19 51.37 C 18.60 51.04 17.43 50.36 16.85 50.03 C 18.47 44.88 21.87 40.56 25.19 36.40 C 24.79 36.00 23.99 35.21 23.60 34.81 C 19.43 38.11 15.13 41.53 9.98 43.12 C 9.64 42.56 8.95 41.43 8.60 40.86 C 12.48 37.08 17.68 35.14 22.60 33.14 C 22.47 32.60 22.20 31.51 22.06 30.97 C 16.81 31.56 11.19 32.93 6.07 31.12 C 6.07 30.56 6.07 29.44 6.06 28.89 C 11.18 27.07 16.81 28.44 22.06 29.02 C 22.20 28.48 22.47 27.40 22.60 26.85 C 17.67 24.85 12.47 22.91 8.59 19.13 C 8.95 18.55 9.68 17.41 10.04 16.84 C 15.13 18.54 19.46 21.87 23.59 25.19 C 23.99 24.79 24.79 23.99 25.19 23.59 C 21.87 19.44 18.48 15.12 16.86 9.99 C 17.43 9.64 18.57 8.94 19.14 8.60 C 22.91 12.48 24.85 17.68 26.85 22.60 C 27.40 22.47 28.48 22.20 29.02 22.06 C 28.45 16.81 27.07 11.18 28.88 6.06 M 28.31 26.36 C 25.56 27.47 25.19 31.71 27.71 33.29 C 30.19 35.18 34.18 33.10 34.00 29.98 C 34.11 27.16 30.82 25.09 28.31 26.36 Z" />
<path fill="#968176" opacity="1.00" d=" M 22.79 7.11 C 24.28 6.31 25.33 6.62 25.94 8.06 C 26.16 10.63 26.06 13.21 26.19 15.78 C 25.24 12.86 21.91 10.38 22.79 7.11 Z" />
<path fill="#968176" opacity="1.00" d=" M 33.81 15.78 C 34.44 12.82 32.86 9.09 35.07 6.65 C 36.83 6.54 37.63 7.33 37.46 9.01 C 36.33 11.32 34.97 13.50 33.81 15.78 Z" />
<path fill="#968176" opacity="1.00" d=" M 12.25 13.94 C 13.16 12.30 14.27 12.03 15.58 13.13 C 17.02 15.21 18.19 17.45 19.56 19.57 C 17.22 17.60 13.45 16.99 12.25 13.94 Z" />
<path fill="#968176" opacity="1.00" d=" M 40.44 19.57 C 42.40 17.23 43.02 13.47 46.06 12.26 C 47.71 13.17 47.97 14.29 46.85 15.61 C 44.78 17.03 42.54 18.20 40.44 19.57 Z" />
<path fill="#968176" opacity="1.00" d=" M 6.63 24.89 C 6.57 23.14 7.36 22.35 9.01 22.54 C 11.33 23.68 13.52 25.04 15.83 26.20 C 12.85 25.56 9.07 27.15 6.63 24.89 Z" />
<path fill="#968176" opacity="1.00" d=" M 44.17 26.20 C 47.10 25.26 49.57 21.98 52.83 22.76 C 53.69 24.22 53.40 25.28 51.96 25.93 C 49.37 26.15 46.76 26.06 44.17 26.20 Z" />
<path fill="#968176" opacity="1.00" d=" M 7.11 37.19 C 6.30 35.71 6.62 34.67 8.06 34.07 C 10.64 33.84 13.24 33.94 15.83 33.80 C 12.88 34.73 10.38 38.12 7.11 37.19 Z" />
<path fill="#968176" opacity="1.00" d=" M 44.17 33.80 C 47.15 34.43 50.87 32.88 53.35 35.06 C 53.44 36.81 52.66 37.62 51.00 37.47 C 48.68 36.32 46.48 34.96 44.17 33.80 Z" />
<path fill="#968176" opacity="1.00" d=" M 13.14 44.39 C 15.22 42.97 17.46 41.80 19.56 40.43 C 17.60 42.77 17.00 46.55 13.93 47.73 C 12.28 46.82 12.02 45.71 13.14 44.39 Z" />
<path fill="#968176" opacity="1.00" d=" M 40.44 40.43 C 42.77 42.40 46.55 43.00 47.73 46.06 C 46.82 47.71 45.70 47.97 44.38 46.85 C 42.97 44.77 41.81 42.54 40.44 40.43 Z" />
<path fill="#968176" opacity="1.00" d=" M 22.53 51.00 C 23.66 48.69 25.02 46.50 26.19 44.22 C 25.54 47.17 27.18 50.96 24.88 53.35 C 23.15 53.42 22.37 52.64 22.53 51.00 Z" />
<path fill="#968176" opacity="1.00" d=" M 33.81 44.22 C 34.76 47.13 38.07 49.61 37.21 52.86 C 35.75 53.68 34.70 53.37 34.06 51.95 C 33.84 49.38 33.94 46.79 33.81 44.22 Z" />
</g>
</svg>
