<?xml version="1.0" encoding="UTF-8" ?>
<!DOCTYPE svg PUBLIC "-//W3C//DTD SVG 1.1//EN" "http://www.w3.org/Graphics/SVG/1.1/DTD/svg11.dtd">
<svg width="60pt" height="60pt" viewBox="0 0 60 60" version="1.1" xmlns="http://www.w3.org/2000/svg">
<g id="#ffffffff">
<path fill="#ffffff" opacity="1.00" d=" M 0.00 0.00 L 60.00 0.00 L 60.00 60.00 L 0.00 60.00 L 0.00 0.00 M 4.58 10.67 C 3.29 11.67 4.30 14.28 5.99 13.93 C 8.12 13.39 9.49 11.36 11.52 10.57 C 14.84 8.92 17.66 12.42 20.42 13.78 C 18.97 14.13 17.03 13.66 16.11 15.16 C 15.70 16.44 16.48 18.06 17.98 17.91 C 27.69 18.20 37.43 17.79 47.14 18.09 C 50.37 17.88 51.00 23.12 47.91 23.81 C 39.27 24.25 30.58 23.89 21.91 23.98 C 20.59 24.10 18.87 23.75 18.11 25.17 C 17.68 26.48 18.50 28.06 20.01 27.92 C 23.33 28.16 26.67 27.92 30.00 28.00 C 30.00 30.00 30.00 32.00 30.00 34.00 C 26.99 34.06 23.96 33.84 20.95 34.09 C 19.04 33.77 18.18 37.13 20.14 37.58 C 22.08 38.14 24.72 39.31 23.85 41.86 C 23.23 45.01 18.43 42.81 17.92 46.00 C 18.20 47.78 20.19 47.88 21.45 48.67 C 22.44 49.60 22.01 51.18 20.93 51.81 C 15.69 52.40 10.40 51.60 5.16 52.18 C 3.23 52.92 3.90 56.16 6.01 55.92 C 11.03 56.05 16.07 56.13 21.09 55.86 C 25.15 55.29 27.38 50.15 24.87 46.83 C 27.53 44.69 28.71 41.22 27.42 37.97 C 28.06 37.98 29.35 38.00 30.00 38.01 C 30.20 41.89 29.54 45.88 30.37 49.69 C 31.59 52.41 34.93 52.05 37.37 51.99 C 39.97 49.47 44.03 49.48 46.63 51.99 C 48.68 51.87 51.18 52.50 52.78 50.81 C 54.40 49.33 53.91 46.97 54.03 45.02 C 53.87 33.68 54.21 22.33 53.86 11.00 C 53.07 7.70 49.29 7.83 46.61 8.02 C 44.04 10.54 39.96 10.54 37.39 8.02 C 35.32 8.11 32.81 7.49 31.21 9.19 C 29.83 10.40 30.08 12.36 29.90 14.00 C 29.11 14.00 27.53 14.00 26.74 13.99 C 23.04 11.00 19.38 7.62 14.77 6.14 C 10.84 5.53 7.23 8.04 4.58 10.67 Z" />
</g>
<g id="#000000ff">
<path fill="#968176" opacity="1.00" d=" M 4.58 10.67 C 7.23 8.04 10.84 5.53 14.77 6.14 C 19.38 7.62 23.04 11.00 26.74 13.99 C 27.53 14.00 29.11 14.00 29.90 14.00 C 30.08 12.36 29.83 10.40 31.21 9.19 C 32.81 7.49 35.32 8.11 37.39 8.02 C 39.96 10.54 44.04 10.54 46.61 8.02 C 49.29 7.83 53.07 7.70 53.86 11.00 C 54.21 22.33 53.87 33.68 54.03 45.02 C 53.91 46.97 54.40 49.33 52.78 50.81 C 51.18 52.50 48.68 51.87 46.63 51.99 C 44.03 49.48 39.97 49.47 37.37 51.99 C 34.93 52.05 31.59 52.41 30.37 49.69 C 29.54 45.88 30.20 41.89 30.00 38.01 C 29.35 38.00 28.06 37.98 27.42 37.97 C 28.71 41.22 27.53 44.69 24.87 46.83 C 27.38 50.15 25.15 55.29 21.09 55.86 C 16.07 56.13 11.03 56.05 6.01 55.92 C 3.90 56.16 3.23 52.92 5.16 52.18 C 10.40 51.60 15.69 52.40 20.93 51.81 C 22.01 51.18 22.44 49.60 21.45 48.67 C 20.19 47.88 18.20 47.78 17.92 46.00 C 18.43 42.81 23.23 45.01 23.85 41.86 C 24.72 39.31 22.08 38.14 20.14 37.58 C 18.18 37.13 19.04 33.77 20.95 34.09 C 23.96 33.84 26.99 34.06 30.00 34.00 C 30.00 32.00 30.00 30.00 30.00 28.00 C 26.67 27.92 23.33 28.16 20.01 27.92 C 18.50 28.06 17.68 26.48 18.11 25.17 C 18.87 23.75 20.59 24.10 21.91 23.98 C 30.58 23.89 39.27 24.25 47.91 23.81 C 51.00 23.12 50.37 17.88 47.14 18.09 C 37.43 17.79 27.69 18.20 17.98 17.91 C 16.48 18.06 15.70 16.44 16.11 15.16 C 17.03 13.66 18.97 14.13 20.42 13.78 C 17.66 12.42 14.84 8.92 11.52 10.57 C 9.49 11.36 8.12 13.39 5.99 13.93 C 4.30 14.28 3.29 11.67 4.58 10.67 Z" />
</g>
</svg>
