<?xml version="1.0" encoding="UTF-8" ?>
<!DOCTYPE svg PUBLIC "-//W3C//DTD SVG 1.1//EN" "http://www.w3.org/Graphics/SVG/1.1/DTD/svg11.dtd">
<svg width="60pt" height="60pt" viewBox="0 0 60 60" version="1.1" xmlns="http://www.w3.org/2000/svg">
<g id="#ffffffff">
<path fill="#ffffff" opacity="1.00" d=" M 0.00 0.00 L 60.00 0.00 L 60.00 60.00 L 0.00 60.00 L 0.00 0.00 M 10.34 6.38 C 9.02 7.02 8.03 8.38 8.06 9.88 C 7.93 12.91 7.84 15.97 8.17 18.99 C 8.55 21.12 10.91 22.20 12.91 22.00 C 24.31 22.01 35.71 22.00 47.12 22.00 C 49.14 22.21 51.39 21.08 51.83 18.98 C 52.17 15.97 52.07 12.93 51.94 9.91 C 51.97 7.85 50.16 5.95 48.07 6.05 C 37.07 5.90 26.07 6.07 15.07 5.98 C 13.50 6.05 11.84 5.82 10.34 6.38 M 25.48 26.78 C 20.98 28.30 17.37 32.26 16.38 36.92 C 14.30 44.87 20.71 53.51 28.88 53.90 C 37.11 54.85 44.82 47.16 43.91 38.94 C 43.57 30.15 33.72 23.63 25.48 26.78 Z" />
<path fill="#ffffff" opacity="1.00" d=" M 17.26 12.17 C 19.56 11.06 21.23 14.98 18.76 15.82 C 16.47 17.03 14.75 12.94 17.26 12.17 Z" />
<path fill="#ffffff" opacity="1.00" d=" M 25.23 12.08 C 27.60 11.10 29.22 15.03 26.71 15.81 C 24.43 16.97 22.82 13.03 25.23 12.08 Z" />
<path fill="#ffffff" opacity="1.00" d=" M 33.09 12.11 C 35.54 11.11 37.17 14.74 34.83 15.89 C 32.42 16.85 30.93 13.33 33.09 12.11 Z" />
<path fill="#ffffff" opacity="1.00" d=" M 41.17 12.09 C 43.59 11.18 45.12 14.72 42.86 15.88 C 40.41 16.88 38.86 13.23 41.17 12.09 Z" />
<path fill="#ffffff" opacity="1.00" d=" M 35.22 34.18 C 37.17 33.23 38.97 35.93 37.38 37.36 C 34.59 40.26 31.84 43.26 28.75 45.85 C 26.41 46.33 25.15 43.70 23.58 42.45 C 22.18 41.43 21.21 39.08 23.19 38.10 C 25.39 37.64 26.54 39.99 28.04 41.14 C 30.46 38.85 32.60 36.25 35.22 34.18 Z" />
</g>
<g id="#000000ff">
<path fill="#968176" opacity="1.00" d=" M 10.34 6.38 C 11.84 5.82 13.50 6.05 15.07 5.98 C 26.07 6.07 37.07 5.90 48.07 6.05 C 50.16 5.95 51.97 7.85 51.94 9.91 C 52.07 12.93 52.17 15.97 51.83 18.98 C 51.39 21.08 49.14 22.21 47.12 22.00 C 35.71 22.00 24.31 22.01 12.91 22.00 C 10.91 22.20 8.55 21.12 8.17 18.99 C 7.84 15.97 7.93 12.91 8.06 9.88 C 8.03 8.38 9.02 7.02 10.34 6.38 M 17.26 12.17 C 14.75 12.94 16.47 17.03 18.76 15.82 C 21.23 14.98 19.56 11.06 17.26 12.17 M 25.23 12.08 C 22.82 13.03 24.43 16.97 26.71 15.81 C 29.22 15.03 27.60 11.10 25.23 12.08 M 33.09 12.11 C 30.93 13.33 32.42 16.85 34.83 15.89 C 37.17 14.74 35.54 11.11 33.09 12.11 M 41.17 12.09 C 38.86 13.23 40.41 16.88 42.86 15.88 C 45.12 14.72 43.59 11.18 41.17 12.09 Z" />
<path fill="#968176" opacity="1.00" d=" M 25.48 26.78 C 33.72 23.63 43.57 30.15 43.91 38.94 C 44.82 47.16 37.11 54.85 28.88 53.90 C 20.71 53.51 14.30 44.87 16.38 36.92 C 17.37 32.26 20.98 28.30 25.48 26.78 M 35.22 34.18 C 32.60 36.25 30.46 38.85 28.04 41.14 C 26.54 39.99 25.39 37.64 23.19 38.10 C 21.21 39.08 22.18 41.43 23.58 42.45 C 25.15 43.70 26.41 46.33 28.75 45.85 C 31.84 43.26 34.59 40.26 37.38 37.36 C 38.97 35.93 37.17 33.23 35.22 34.18 Z" />
</g>
</svg>
