<?xml version="1.0" encoding="UTF-8" ?>
<!DOCTYPE svg PUBLIC "-//W3C//DTD SVG 1.1//EN" "http://www.w3.org/Graphics/SVG/1.1/DTD/svg11.dtd">
<svg width="60pt" height="60pt" viewBox="0 0 60 60" version="1.1" xmlns="http://www.w3.org/2000/svg">
<g id="#ffffffff">
<path fill="#ffffff" opacity="1.00" d=" M 0.00 0.00 L 60.00 0.00 L 60.00 60.00 L 0.00 60.00 L 0.00 0.00 M 40.14 6.76 C 41.64 8.68 43.48 10.29 45.20 12.00 C 43.47 13.70 41.65 15.33 40.15 17.24 C 39.39 18.79 41.22 20.63 42.72 19.80 C 44.70 18.39 46.31 16.53 48.01 14.81 C 49.70 16.52 51.30 18.35 53.22 19.82 C 54.80 20.57 56.61 18.85 55.83 17.24 C 54.36 15.31 52.55 13.69 50.83 12.00 C 52.54 10.30 54.36 8.68 55.86 6.77 C 56.58 5.12 54.88 3.42 53.23 4.15 C 51.32 5.63 49.71 7.47 48.02 9.19 C 46.31 7.47 44.69 5.66 42.78 4.16 C 41.12 3.38 39.44 5.11 40.14 6.76 M 8.25 19.67 C 4.14 28.89 5.95 40.58 13.56 47.45 C 20.52 54.27 31.57 55.63 40.34 51.72 C 41.60 51.77 43.33 52.45 43.92 50.83 C 44.53 49.19 42.82 48.14 41.94 47.06 C 31.68 36.95 21.62 26.62 11.30 16.58 C 9.14 14.66 7.35 17.62 8.25 19.67 M 32.39 22.36 C 27.61 24.19 30.96 31.95 35.57 29.64 C 40.41 27.85 37.02 19.98 32.39 22.36 Z" />
</g>
<g id="#000000ff">
<path fill="#968176" opacity="1.00" d=" M 40.14 6.76 C 39.44 5.11 41.12 3.38 42.78 4.16 C 44.69 5.66 46.31 7.47 48.02 9.19 C 49.71 7.47 51.32 5.63 53.23 4.15 C 54.88 3.42 56.58 5.12 55.86 6.77 C 54.36 8.68 52.54 10.30 50.83 12.00 C 52.55 13.69 54.36 15.31 55.83 17.24 C 56.61 18.85 54.80 20.57 53.22 19.82 C 51.30 18.35 49.70 16.52 48.01 14.81 C 46.31 16.53 44.70 18.39 42.72 19.80 C 41.22 20.63 39.39 18.79 40.15 17.24 C 41.65 15.33 43.47 13.70 45.20 12.00 C 43.48 10.29 41.64 8.68 40.14 6.76 Z" />
<path fill="#968176" opacity="1.00" d=" M 8.25 19.67 C 7.35 17.62 9.14 14.66 11.30 16.58 C 21.62 26.62 31.68 36.95 41.94 47.06 C 42.82 48.14 44.53 49.19 43.92 50.83 C 43.33 52.45 41.60 51.77 40.34 51.72 C 31.57 55.63 20.52 54.27 13.56 47.45 C 5.95 40.58 4.14 28.89 8.25 19.67 Z" />
<path fill="#968176" opacity="1.00" d=" M 32.39 22.36 C 37.02 19.98 40.41 27.85 35.57 29.64 C 30.96 31.95 27.61 24.19 32.39 22.36 Z" />
</g>
</svg>
