<?xml version="1.0" encoding="UTF-8" ?>
<!DOCTYPE svg PUBLIC "-//W3C//DTD SVG 1.1//EN" "http://www.w3.org/Graphics/SVG/1.1/DTD/svg11.dtd">
<svg width="60pt" height="60pt" viewBox="0 0 60 60" version="1.1" xmlns="http://www.w3.org/2000/svg">
<g id="#ffffffff">
<path fill="#ffffff" opacity="1.00" d=" M 0.00 0.00 L 60.00 0.00 L 60.00 60.00 L 0.00 60.00 L 0.00 0.00 M 11.86 11.85 C 16.61 9.56 21.75 7.69 27.12 8.04 C 33.98 8.34 39.98 12.67 44.06 17.95 C 45.97 16.03 47.89 14.11 49.80 12.19 C 49.27 25.47 48.48 38.75 48.08 52.04 C 47.84 53.43 49.63 54.57 50.81 53.88 C 52.34 53.21 51.87 51.25 52.11 49.94 C 52.59 35.69 53.65 21.43 53.85 7.18 C 52.48 4.60 49.62 6.69 49.68 9.00 C 41.86 5.78 33.38 3.38 24.84 4.21 C 19.64 4.74 14.93 7.67 11.86 11.85 M 12.80 18.85 C 9.82 22.11 8.52 26.56 8.14 30.88 C 7.57 36.29 9.66 41.47 10.00 46.82 C 9.34 47.59 8.72 48.39 8.14 49.22 C 7.40 51.94 10.28 54.41 12.90 54.00 C 20.63 53.97 28.36 54.08 36.09 53.95 C 38.23 54.03 40.04 52.01 40.00 49.93 C 39.67 47.84 38.40 46.03 38.05 43.94 C 38.50 39.91 40.31 36.07 39.92 31.96 C 39.55 25.48 36.26 18.84 30.34 15.78 C 24.72 12.53 17.07 14.06 12.80 18.85 Z" />
<path fill="#ffffff" opacity="1.00" d=" M 11.96 29.27 C 18.06 22.48 29.90 22.16 35.82 29.31 C 36.89 33.53 33.68 36.84 32.50 40.59 C 31.65 42.23 29.52 41.84 28.01 42.13 C 27.99 42.84 27.96 44.27 27.94 44.98 C 25.42 46.20 22.56 46.20 20.05 44.97 C 20.04 44.26 20.01 42.84 19.99 42.13 C 18.48 41.85 16.37 42.23 15.50 40.62 C 14.16 36.85 11.43 33.52 11.96 29.27 M 16.84 37.06 C 18.70 39.07 21.60 37.47 22.22 35.17 C 21.06 34.07 19.93 32.94 18.83 31.78 C 16.59 32.39 14.97 35.16 16.84 37.06 M 29.18 31.78 C 28.07 32.93 26.94 34.07 25.78 35.17 C 26.42 37.44 29.22 39.06 31.12 37.11 C 33.04 35.20 31.44 32.41 29.18 31.78 M 21.93 41.28 C 23.32 41.25 24.72 41.25 26.11 41.29 C 25.49 39.96 24.78 38.68 24.00 37.44 C 23.18 38.65 22.53 39.96 21.93 41.28 Z" />
</g>
<g id="#000000ff">
<path fill="#968176" opacity="1.00" d=" M 11.86 11.85 C 14.93 7.67 19.64 4.74 24.84 4.21 C 33.38 3.38 41.86 5.78 49.68 9.00 C 49.62 6.69 52.48 4.60 53.85 7.18 C 53.65 21.43 52.59 35.69 52.11 49.94 C 51.87 51.25 52.34 53.21 50.81 53.88 C 49.63 54.57 47.84 53.43 48.08 52.04 C 48.48 38.75 49.27 25.47 49.80 12.19 C 47.89 14.11 45.97 16.03 44.06 17.95 C 39.98 12.67 33.98 8.34 27.12 8.04 C 21.75 7.69 16.61 9.56 11.86 11.85 Z" />
<path fill="#968176" opacity="1.00" d=" M 12.80 18.85 C 17.07 14.06 24.72 12.53 30.34 15.78 C 36.26 18.84 39.55 25.48 39.92 31.96 C 40.31 36.07 38.50 39.91 38.05 43.94 C 38.40 46.03 39.67 47.84 40.00 49.93 C 40.04 52.01 38.23 54.03 36.09 53.95 C 28.36 54.08 20.63 53.97 12.90 54.00 C 10.28 54.41 7.40 51.94 8.14 49.22 C 8.72 48.39 9.34 47.59 10.00 46.82 C 9.66 41.47 7.57 36.29 8.14 30.88 C 8.52 26.56 9.82 22.11 12.80 18.85 M 11.96 29.27 C 11.43 33.52 14.16 36.85 15.50 40.62 C 16.37 42.23 18.48 41.85 19.99 42.13 C 20.01 42.84 20.04 44.26 20.05 44.97 C 22.56 46.20 25.42 46.20 27.94 44.98 C 27.96 44.27 27.99 42.84 28.01 42.13 C 29.52 41.84 31.65 42.23 32.50 40.59 C 33.68 36.84 36.89 33.53 35.82 29.31 C 29.90 22.16 18.06 22.48 11.96 29.27 Z" />
<path fill="#968176" opacity="1.00" d=" M 16.84 37.06 C 14.97 35.16 16.59 32.39 18.83 31.78 C 19.93 32.94 21.06 34.07 22.22 35.17 C 21.60 37.47 18.70 39.07 16.84 37.06 Z" />
<path fill="#968176" opacity="1.00" d=" M 29.18 31.78 C 31.44 32.41 33.04 35.20 31.12 37.11 C 29.22 39.06 26.42 37.44 25.78 35.17 C 26.94 34.07 28.07 32.93 29.18 31.78 Z" />
<path fill="#968176" opacity="1.00" d=" M 21.93 41.28 C 22.53 39.96 23.18 38.65 24.00 37.44 C 24.78 38.68 25.49 39.96 26.11 41.29 C 24.72 41.25 23.32 41.25 21.93 41.28 Z" />
</g>
</svg>
