<?xml version="1.0" encoding="UTF-8" ?>
<!DOCTYPE svg PUBLIC "-//W3C//DTD SVG 1.1//EN" "http://www.w3.org/Graphics/SVG/1.1/DTD/svg11.dtd">
<svg width="60pt" height="60pt" viewBox="0 0 60 60" version="1.1" xmlns="http://www.w3.org/2000/svg">
<g id="#ffffffff">
<path fill="#ffffff" opacity="1.00" d=" M 0.00 0.00 L 60.00 0.00 L 60.00 60.00 L 0.00 60.00 L 0.00 0.00 M 11.43 8.58 C 7.52 10.24 6.82 16.16 10.25 18.67 C 13.56 21.58 19.39 19.35 19.91 14.98 C 20.90 10.43 15.54 6.38 11.43 8.58 M 43.41 8.59 C 39.50 10.27 38.83 16.19 42.28 18.69 C 45.58 21.57 51.36 19.35 51.90 15.01 C 52.93 10.44 47.52 6.36 43.41 8.59 M 27.49 18.56 C 23.53 20.18 22.80 26.14 26.25 28.67 C 29.56 31.59 35.41 29.34 35.91 24.96 C 36.88 20.44 31.58 16.41 27.49 18.56 M 11.38 28.61 C 7.49 30.30 6.84 36.22 10.29 38.70 C 13.61 41.57 19.40 39.32 19.91 34.96 C 20.90 30.39 15.48 26.35 11.38 28.61 M 43.47 28.56 C 39.55 30.19 38.80 36.10 42.21 38.64 C 45.50 41.59 51.38 39.38 51.90 34.99 C 52.90 30.46 47.58 26.40 43.47 28.56 M 12.27 44.13 C 8.72 44.72 5.16 46.14 2.55 48.67 C 1.28 49.69 2.36 52.16 3.99 51.94 C 10.65 52.05 17.33 52.05 23.99 51.94 C 25.59 52.10 26.76 49.72 25.41 48.64 C 21.97 45.41 16.98 43.65 12.27 44.13 M 44.29 44.13 C 40.74 44.71 37.18 46.14 34.57 48.65 C 33.29 49.64 34.36 52.23 36.00 51.93 C 42.67 52.05 49.36 52.06 56.03 51.93 C 57.64 52.15 58.67 49.66 57.43 48.66 C 53.99 45.42 49.01 43.66 44.29 44.13 Z" />
</g>
<g id="#000000ff">
<path fill="#968176" opacity="1.00" d=" M 11.43 8.58 C 15.54 6.38 20.90 10.43 19.91 14.98 C 19.39 19.35 13.56 21.58 10.25 18.67 C 6.82 16.16 7.52 10.24 11.43 8.58 Z" />
<path fill="#968176" opacity="1.00" d=" M 43.41 8.59 C 47.52 6.36 52.93 10.44 51.90 15.01 C 51.36 19.35 45.58 21.57 42.28 18.69 C 38.83 16.19 39.50 10.27 43.41 8.59 Z" />
<path fill="#968176" opacity="1.00" d=" M 27.49 18.56 C 31.58 16.41 36.88 20.44 35.91 24.96 C 35.41 29.34 29.56 31.59 26.25 28.67 C 22.80 26.14 23.53 20.18 27.49 18.56 Z" />
<path fill="#968176" opacity="1.00" d=" M 11.38 28.61 C 15.48 26.35 20.90 30.39 19.91 34.96 C 19.40 39.32 13.61 41.57 10.29 38.70 C 6.84 36.22 7.49 30.30 11.38 28.61 Z" />
<path fill="#968176" opacity="1.00" d=" M 43.47 28.56 C 47.58 26.40 52.90 30.46 51.90 34.99 C 51.38 39.38 45.50 41.59 42.21 38.64 C 38.80 36.10 39.55 30.19 43.47 28.56 Z" />
<path fill="#968176" opacity="1.00" d=" M 12.27 44.13 C 16.98 43.65 21.97 45.41 25.41 48.64 C 26.76 49.72 25.59 52.10 23.99 51.94 C 17.33 52.05 10.65 52.05 3.99 51.94 C 2.36 52.16 1.28 49.69 2.55 48.67 C 5.16 46.14 8.72 44.72 12.27 44.13 Z" />
<path fill="#968176" opacity="1.00" d=" M 44.29 44.13 C 49.01 43.66 53.99 45.42 57.43 48.66 C 58.67 49.66 57.64 52.15 56.03 51.93 C 49.36 52.06 42.67 52.05 36.00 51.93 C 34.36 52.23 33.29 49.64 34.57 48.65 C 37.18 46.14 40.74 44.71 44.29 44.13 Z" />
</g>
</svg>
