<?xml version="1.0" encoding="UTF-8" ?>
<!DOCTYPE svg PUBLIC "-//W3C//DTD SVG 1.1//EN" "http://www.w3.org/Graphics/SVG/1.1/DTD/svg11.dtd">
<svg width="60pt" height="60pt" viewBox="0 0 60 60" version="1.1" xmlns="http://www.w3.org/2000/svg">
<g id="#ffffffff">
<path fill="#ffffff" opacity="1.00" d=" M 0.00 0.00 L 60.00 0.00 L 60.00 60.00 L 0.00 60.00 L 0.00 0.00 M 23.70 12.33 C 18.36 10.72 12.81 14.58 11.96 19.96 C 8.04 20.74 4.43 23.81 4.08 27.96 C 3.34 33.03 7.73 38.06 12.87 37.95 C 24.26 38.04 35.66 38.03 47.06 37.96 C 52.22 38.10 56.66 33.08 55.92 27.97 C 55.56 23.84 52.03 20.77 48.12 19.99 C 48.13 14.79 45.46 9.47 40.57 7.29 C 34.65 4.28 27.16 6.82 23.70 12.33 M 13.85 47.00 C 14.90 48.56 15.95 50.13 17.00 51.69 C 18.06 50.12 19.11 48.56 20.16 46.99 C 19.10 45.43 18.05 43.87 17.00 42.31 C 15.95 43.87 14.90 45.43 13.85 47.00 M 39.85 47.00 C 40.90 48.56 41.94 50.13 43.00 51.69 C 44.06 50.13 45.11 48.55 46.15 46.98 C 45.10 45.42 44.05 43.87 43.00 42.31 C 41.95 43.87 40.90 45.44 39.85 47.00 M 25.84 50.00 C 27.28 51.83 28.15 54.46 30.00 55.75 C 31.86 54.48 32.72 51.82 34.16 49.99 C 32.83 47.88 31.44 45.81 30.00 43.77 C 28.57 45.81 27.18 47.89 25.84 50.00 Z" />
</g>
<g id="#000000ff">
<path fill="#968176" opacity="1.00" d=" M 23.70 12.33 C 27.16 6.82 34.65 4.28 40.57 7.29 C 45.46 9.47 48.13 14.79 48.12 19.99 C 52.03 20.77 55.56 23.84 55.92 27.97 C 56.66 33.08 52.22 38.10 47.06 37.96 C 35.66 38.03 24.26 38.04 12.87 37.95 C 7.73 38.06 3.34 33.03 4.08 27.96 C 4.43 23.81 8.04 20.74 11.96 19.96 C 12.81 14.58 18.36 10.72 23.70 12.33 Z" />
<path fill="#968176" opacity="1.00" d=" M 13.85 47.00 C 14.90 45.43 15.95 43.87 17.00 42.31 C 18.05 43.87 19.10 45.43 20.16 46.99 C 19.11 48.56 18.06 50.12 17.00 51.69 C 15.95 50.13 14.90 48.56 13.85 47.00 Z" />
<path fill="#968176" opacity="1.00" d=" M 39.85 47.00 C 40.90 45.44 41.95 43.87 43.00 42.31 C 44.05 43.87 45.10 45.42 46.15 46.98 C 45.11 48.55 44.06 50.13 43.00 51.69 C 41.94 50.13 40.90 48.56 39.85 47.00 Z" />
<path fill="#968176" opacity="1.00" d=" M 25.84 50.00 C 27.18 47.89 28.57 45.81 30.00 43.77 C 31.44 45.81 32.83 47.88 34.16 49.99 C 32.72 51.82 31.86 54.48 30.00 55.75 C 28.15 54.46 27.28 51.83 25.84 50.00 Z" />
</g>
</svg>
