<?xml version="1.0" encoding="UTF-8" ?>
<!DOCTYPE svg PUBLIC "-//W3C//DTD SVG 1.1//EN" "http://www.w3.org/Graphics/SVG/1.1/DTD/svg11.dtd">
<svg width="60pt" height="60pt" viewBox="0 0 60 60" version="1.1" xmlns="http://www.w3.org/2000/svg">
<g id="#ffffffff">
<path fill="#ffffff" opacity="1.00" d=" M 0.00 0.00 L 60.00 0.00 L 60.00 60.00 L 0.00 60.00 L 0.00 0.00 M 27.32 6.50 C 25.75 7.06 24.67 8.41 23.72 9.71 C 15.96 20.65 11.05 33.67 10.05 47.06 C 9.76 50.79 13.17 54.20 16.90 53.97 C 25.63 54.02 34.37 54.02 43.10 53.97 C 47.26 54.23 50.73 50.03 49.89 45.99 C 48.46 32.59 43.37 19.57 35.22 8.82 C 33.51 6.37 30.10 5.31 27.32 6.50 Z" />
<path fill="#ffffff" opacity="1.00" d=" M 27.15 11.81 C 28.59 11.91 30.04 13.29 28.82 14.68 C 27.30 17.51 25.52 20.21 24.35 23.22 C 23.64 24.28 24.61 25.80 25.80 25.91 C 30.54 26.25 35.31 25.73 40.05 26.12 C 42.23 28.48 42.71 31.99 43.70 34.98 C 44.34 36.12 43.57 37.97 42.15 37.91 C 34.82 38.27 27.46 37.68 20.14 38.17 C 17.63 40.32 19.57 44.73 16.98 46.89 C 15.74 47.10 14.10 46.39 14.32 44.90 C 15.55 32.99 20.22 21.54 27.15 11.81 Z" />
</g>
<g id="#000000ff">
<path fill="#968176" opacity="1.00" d=" M 27.32 6.50 C 30.10 5.31 33.51 6.37 35.22 8.82 C 43.37 19.57 48.46 32.59 49.89 45.99 C 50.73 50.03 47.26 54.23 43.10 53.97 C 34.37 54.02 25.63 54.02 16.90 53.97 C 13.17 54.20 9.76 50.79 10.05 47.06 C 11.05 33.67 15.96 20.65 23.72 9.71 C 24.67 8.41 25.75 7.06 27.32 6.50 M 27.15 11.81 C 20.22 21.54 15.55 32.99 14.32 44.90 C 14.10 46.39 15.74 47.10 16.98 46.89 C 19.57 44.73 17.63 40.32 20.14 38.17 C 27.46 37.68 34.82 38.27 42.15 37.91 C 43.57 37.97 44.34 36.12 43.70 34.98 C 42.71 31.99 42.23 28.48 40.05 26.12 C 35.31 25.73 30.54 26.25 25.80 25.91 C 24.61 25.80 23.64 24.28 24.35 23.22 C 25.52 20.21 27.30 17.51 28.82 14.68 C 30.04 13.29 28.59 11.91 27.15 11.81 Z" />
</g>
</svg>
