<?xml version="1.0" encoding="UTF-8" ?>
<!DOCTYPE svg PUBLIC "-//W3C//DTD SVG 1.1//EN" "http://www.w3.org/Graphics/SVG/1.1/DTD/svg11.dtd">
<svg width="60pt" height="60pt" viewBox="0 0 60 60" version="1.1" xmlns="http://www.w3.org/2000/svg">
<g id="#ffffffff">
<path fill="#ffffff" opacity="1.00" d=" M 0.00 0.00 L 60.00 0.00 L 60.00 60.00 L 38.01 60.00 C 37.64 56.02 36.49 52.06 36.99 48.05 C 38.37 40.67 40.74 33.48 41.84 26.06 C 41.44 19.03 40.69 11.98 39.78 4.99 C 39.08 1.07 32.86 1.14 32.15 5.04 C 31.51 12.04 33.55 19.27 31.20 26.08 C 30.36 29.79 28.20 32.96 25.99 35.98 C 24.21 32.42 23.02 28.55 20.82 25.22 C 18.62 22.58 13.74 24.62 14.08 28.01 C 14.53 32.05 15.75 35.96 16.49 39.95 C 17.64 44.54 17.68 50.09 21.95 53.09 C 22.00 55.39 22.01 57.70 22.00 60.00 L 0.00 60.00 L 0.00 0.00 Z" />
</g>
<g id="#000000ff">
<path fill="#968176" opacity="1.00" d=" M 32.15 5.04 C 32.86 1.14 39.08 1.07 39.78 4.99 C 40.69 11.98 41.44 19.03 41.84 26.06 C 40.74 33.48 38.37 40.67 36.99 48.05 C 36.49 52.06 37.64 56.02 38.01 60.00 L 22.00 60.00 C 22.01 57.70 22.00 55.39 21.95 53.09 C 17.68 50.09 17.64 44.54 16.49 39.95 C 15.75 35.96 14.53 32.05 14.08 28.01 C 13.74 24.62 18.62 22.58 20.82 25.22 C 23.02 28.55 24.21 32.42 25.99 35.98 C 28.20 32.96 30.36 29.79 31.20 26.08 C 33.55 19.27 31.51 12.04 32.15 5.04 Z" />
</g>
</svg>
