<?xml version="1.0" encoding="UTF-8" ?>
<!DOCTYPE svg PUBLIC "-//W3C//DTD SVG 1.1//EN" "http://www.w3.org/Graphics/SVG/1.1/DTD/svg11.dtd">
<svg width="60pt" height="60pt" viewBox="0 0 60 60" version="1.1" xmlns="http://www.w3.org/2000/svg">
<g id="#ffffffff">
<path fill="#ffffff" opacity="1.00" d=" M 0.00 0.00 L 60.00 0.00 L 60.00 37.33 C 59.75 32.49 56.39 28.60 52.18 26.57 C 52.09 19.28 47.14 12.18 39.91 10.48 C 32.81 8.53 25.33 12.32 21.70 18.48 C 18.64 17.99 15.23 17.67 12.59 19.63 C 10.04 21.08 8.97 23.93 7.91 26.49 C 3.71 28.54 0.31 32.35 0.00 37.19 L 0.00 0.00 Z" />
<path fill="#ffffff" opacity="1.00" d=" M 21.34 26.53 C 23.22 25.13 26.12 26.75 26.00 29.06 C 26.00 31.29 23.24 32.82 21.39 31.51 C 19.61 30.48 19.59 27.59 21.34 26.53 Z" />
<path fill="#ffffff" opacity="1.00" d=" M 37.36 26.51 C 40.53 24.21 43.91 29.55 40.64 31.49 C 37.47 33.79 34.09 28.45 37.36 26.51 Z" />
<path fill="#ffffff" opacity="1.00" d=" M 19.22 37.15 C 20.77 36.53 21.82 38.30 22.98 38.99 C 26.25 41.93 31.15 42.75 35.25 41.23 C 37.60 40.45 39.31 38.61 41.28 37.22 C 43.26 36.18 44.95 39.09 43.37 40.45 C 37.33 47.51 25.44 47.75 19.10 40.97 C 17.79 40.07 17.51 37.78 19.22 37.15 Z" />
<path fill="#ffffff" opacity="1.00" d=" M 0.00 38.45 C 0.20 44.66 5.66 50.04 11.90 49.95 C 23.97 50.04 36.04 50.04 48.10 49.95 C 54.30 50.08 59.64 44.75 60.00 38.65 L 60.00 60.00 L 0.00 60.00 L 0.00 38.45 Z" />
</g>
<g id="#000000ff">
<path fill="#968176" opacity="1.00" d=" M 21.70 18.48 C 25.33 12.32 32.81 8.53 39.91 10.48 C 47.14 12.18 52.09 19.28 52.18 26.57 C 56.39 28.60 59.75 32.49 60.00 37.33 L 60.00 38.65 C 59.64 44.75 54.30 50.08 48.10 49.95 C 36.04 50.04 23.97 50.04 11.90 49.95 C 5.66 50.04 0.20 44.66 0.00 38.45 L 0.00 37.19 C 0.31 32.35 3.71 28.54 7.91 26.49 C 8.97 23.93 10.04 21.08 12.59 19.63 C 15.23 17.67 18.64 17.99 21.70 18.48 M 21.34 26.53 C 19.59 27.59 19.61 30.48 21.39 31.51 C 23.24 32.82 26.00 31.29 26.00 29.06 C 26.12 26.75 23.22 25.13 21.34 26.53 M 37.36 26.51 C 34.09 28.45 37.47 33.79 40.64 31.49 C 43.91 29.55 40.53 24.21 37.36 26.51 M 19.22 37.15 C 17.51 37.78 17.79 40.07 19.10 40.97 C 25.44 47.75 37.33 47.51 43.37 40.45 C 44.95 39.09 43.26 36.18 41.28 37.22 C 39.31 38.61 37.60 40.45 35.25 41.23 C 31.15 42.75 26.25 41.93 22.98 38.99 C 21.82 38.30 20.77 36.53 19.22 37.15 Z" />
</g>
</svg>
