<?xml version="1.0" encoding="UTF-8" ?>
<!DOCTYPE svg PUBLIC "-//W3C//DTD SVG 1.1//EN" "http://www.w3.org/Graphics/SVG/1.1/DTD/svg11.dtd">
<svg width="60pt" height="60pt" viewBox="0 0 60 60" version="1.1" xmlns="http://www.w3.org/2000/svg">
<g id="#ffffffff">
<path fill="#ffffff" opacity="1.00" d=" M 0.00 0.00 L 60.00 0.00 L 60.00 60.00 L 0.00 60.00 L 0.00 0.00 M 24.50 6.65 C 17.13 8.35 10.75 13.75 7.87 20.75 C 5.01 27.47 5.49 35.50 9.14 41.84 C 12.93 48.56 20.12 53.25 27.83 53.88 C 35.53 54.64 43.45 51.35 48.37 45.39 C 55.80 36.88 55.80 23.10 48.36 14.59 C 42.74 7.71 33.12 4.53 24.50 6.65 Z" />
<path fill="#ffffff" opacity="1.00" d=" M 27.20 10.20 C 33.80 9.23 40.78 11.81 45.11 16.90 C 50.01 22.42 51.35 30.76 48.51 37.56 C 45.96 43.93 39.92 48.75 33.13 49.74 C 26.45 50.86 19.31 48.27 14.91 43.12 C 10.17 37.80 8.73 29.84 11.20 23.17 C 13.60 16.33 20.01 11.13 27.20 10.20 M 19.47 26.43 C 16.05 28.28 19.39 33.79 22.63 31.51 C 25.84 29.59 22.66 24.36 19.47 26.43 M 37.43 26.46 C 35.31 27.62 35.71 31.26 38.10 31.81 C 40.24 32.71 42.70 30.23 41.82 28.10 C 41.37 26.27 38.98 25.45 37.43 26.46 M 22.65 38.61 C 21.71 39.44 22.00 41.16 23.12 41.71 C 26.45 44.18 31.12 44.68 34.87 42.89 C 36.44 42.13 38.49 41.13 37.75 39.02 C 35.44 36.39 32.73 40.51 29.96 39.99 C 27.37 40.47 24.98 36.84 22.65 38.61 Z" />
</g>
<g id="#000000ff">
<path fill="#968176" opacity="1.00" d=" M 24.50 6.65 C 33.12 4.53 42.74 7.71 48.36 14.59 C 55.80 23.10 55.80 36.88 48.37 45.39 C 43.45 51.35 35.53 54.64 27.83 53.88 C 20.12 53.25 12.93 48.56 9.14 41.84 C 5.49 35.50 5.01 27.47 7.87 20.75 C 10.75 13.75 17.13 8.35 24.50 6.65 M 27.20 10.20 C 20.01 11.13 13.60 16.33 11.20 23.17 C 8.73 29.84 10.17 37.80 14.91 43.12 C 19.31 48.27 26.45 50.86 33.13 49.74 C 39.92 48.75 45.96 43.93 48.51 37.56 C 51.35 30.76 50.01 22.42 45.11 16.90 C 40.78 11.81 33.80 9.23 27.20 10.20 Z" />
<path fill="#968176" opacity="1.00" d=" M 19.47 26.43 C 22.66 24.36 25.84 29.59 22.63 31.51 C 19.39 33.79 16.05 28.28 19.47 26.43 Z" />
<path fill="#968176" opacity="1.00" d=" M 37.43 26.46 C 38.98 25.45 41.37 26.27 41.82 28.10 C 42.70 30.23 40.24 32.71 38.10 31.81 C 35.71 31.26 35.31 27.62 37.43 26.46 Z" />
<path fill="#968176" opacity="1.00" d=" M 22.65 38.61 C 24.98 36.84 27.37 40.47 29.96 39.99 C 32.73 40.51 35.44 36.39 37.75 39.02 C 38.49 41.13 36.44 42.13 34.87 42.89 C 31.12 44.68 26.45 44.18 23.12 41.71 C 22.00 41.16 21.71 39.44 22.65 38.61 Z" />
</g>
</svg>
