<?xml version="1.0" encoding="UTF-8" ?>
<!DOCTYPE svg PUBLIC "-//W3C//DTD SVG 1.1//EN" "http://www.w3.org/Graphics/SVG/1.1/DTD/svg11.dtd">
<svg width="200pt" height="200pt" viewBox="0 0 200 200" version="1.1" xmlns="http://www.w3.org/2000/svg">
<g id="#ffffffff">
<path fill="#ffffff" opacity="1.00" d=" M 0.00 0.00 L 200.00 0.00 L 200.00 200.00 L 0.00 200.00 L 0.00 0.00 M 33.92 10.00 C 33.93 19.33 33.90 28.66 33.93 37.98 C 33.98 47.62 38.20 57.12 45.24 63.69 C 51.83 69.96 60.87 73.55 69.97 73.51 C 78.11 73.53 86.24 73.53 94.38 73.50 C 82.96 61.91 71.30 50.55 59.93 38.91 C 57.74 37.29 61.18 33.81 62.84 35.99 C 74.49 47.32 85.78 59.04 97.43 70.37 C 97.40 61.20 97.63 52.02 97.31 42.86 C 96.15 25.74 81.18 10.97 64.03 10.10 C 54.00 9.87 43.96 10.06 33.92 10.00 M 111.84 21.85 C 105.90 28.35 102.51 37.09 102.54 45.90 C 102.53 54.06 102.51 62.23 102.55 70.39 C 114.20 59.04 125.50 47.34 137.14 35.99 C 138.76 33.83 142.24 37.25 140.06 38.89 C 128.71 50.54 117.02 61.88 105.63 73.50 C 114.77 73.45 123.91 73.69 133.05 73.38 C 149.88 72.29 164.53 57.88 165.87 41.07 C 166.30 30.72 165.95 20.36 166.06 10.00 C 156.69 10.01 147.31 9.98 137.94 10.01 C 128.09 10.09 118.41 14.53 111.84 21.85 M 96.64 76.07 C 96.51 86.16 96.64 96.24 96.59 106.33 C 82.77 107.26 69.50 114.09 60.77 124.85 C 86.92 124.87 113.07 124.87 139.22 124.85 C 130.35 113.98 116.89 107.08 102.88 106.28 C 102.77 95.91 103.08 85.51 102.73 75.15 C 101.83 71.93 96.41 72.63 96.64 76.07 M 39.04 129.13 C 41.79 149.42 44.54 169.70 47.27 189.99 C 82.42 190.00 117.57 190.01 152.71 189.99 C 155.44 169.70 158.20 149.41 160.94 129.13 C 120.30 129.12 79.67 129.11 39.04 129.13 Z" />
</g>
<g id="#000000ff">
<path fill="#968176" opacity="1.00" d=" M 33.92 10.00 C 43.96 10.06 54.00 9.87 64.03 10.10 C 81.18 10.97 96.15 25.74 97.31 42.86 C 97.63 52.02 97.40 61.20 97.43 70.37 C 85.78 59.04 74.49 47.32 62.84 35.99 C 61.18 33.81 57.74 37.29 59.93 38.91 C 71.30 50.55 82.96 61.91 94.38 73.50 C 86.24 73.53 78.11 73.53 69.97 73.51 C 60.87 73.55 51.83 69.96 45.24 63.69 C 38.20 57.12 33.98 47.62 33.93 37.98 C 33.90 28.66 33.93 19.33 33.92 10.00 Z" />
<path fill="#968176" opacity="1.00" d=" M 111.84 21.85 C 118.41 14.53 128.09 10.09 137.94 10.01 C 147.31 9.98 156.69 10.01 166.06 10.00 C 165.95 20.36 166.30 30.72 165.87 41.07 C 164.53 57.88 149.88 72.29 133.05 73.38 C 123.91 73.69 114.77 73.45 105.63 73.50 C 117.02 61.88 128.71 50.54 140.06 38.89 C 142.24 37.25 138.76 33.83 137.14 35.99 C 125.50 47.34 114.20 59.04 102.55 70.39 C 102.51 62.23 102.53 54.06 102.54 45.90 C 102.51 37.09 105.90 28.35 111.84 21.85 Z" />
<path fill="#968176" opacity="1.00" d=" M 96.64 76.07 C 96.41 72.63 101.83 71.93 102.73 75.15 C 103.08 85.51 102.77 95.91 102.88 106.28 C 116.89 107.08 130.35 113.98 139.22 124.85 C 113.07 124.87 86.92 124.87 60.77 124.85 C 69.50 114.09 82.77 107.26 96.59 106.33 C 96.64 96.24 96.51 86.16 96.64 76.07 Z" />
<path fill="#968176" opacity="1.00" d=" M 39.04 129.13 C 79.67 129.11 120.30 129.12 160.94 129.13 C 158.20 149.41 155.44 169.70 152.71 189.99 C 117.57 190.01 82.42 190.00 47.27 189.99 C 44.54 169.70 41.79 149.42 39.04 129.13 Z" />
</g>
</svg>
