<?xml version="1.0" encoding="UTF-8" ?>
<!DOCTYPE svg PUBLIC "-//W3C//DTD SVG 1.1//EN" "http://www.w3.org/Graphics/SVG/1.1/DTD/svg11.dtd">
<svg width="60pt" height="60pt" viewBox="0 0 60 60" version="1.1" xmlns="http://www.w3.org/2000/svg">
<g id="#ffffffff">
<path fill="#ffffff" opacity="1.00" d=" M 0.00 0.00 L 60.00 0.00 L 60.00 60.00 L 0.00 60.00 L 0.00 0.00 M 8.04 11.92 C 7.91 17.28 8.05 22.64 8.00 28.00 C 11.32 28.25 16.55 26.71 17.85 30.98 C 18.20 34.64 17.92 38.33 18.00 42.00 C 20.00 42.00 22.00 42.00 24.00 42.00 C 24.04 33.97 23.92 25.94 24.04 17.91 C 23.98 15.37 26.62 13.65 28.98 13.98 C 32.05 14.05 36.75 13.07 37.85 16.98 C 38.20 20.64 37.92 24.33 38.00 28.00 C 40.00 28.00 42.00 28.00 44.00 28.00 C 44.00 26.66 44.00 25.31 44.01 23.97 C 46.01 25.97 48.01 27.98 49.99 30.00 C 48.00 32.00 46.00 34.00 44.00 35.99 C 44.00 34.99 44.00 32.99 44.00 31.99 C 40.81 31.70 36.23 33.21 34.37 29.69 C 33.55 25.88 34.20 21.88 34.00 18.00 C 32.00 18.00 30.00 18.00 28.00 18.00 C 27.95 26.04 28.09 34.09 27.95 42.13 C 28.03 44.70 25.35 46.36 22.99 46.01 C 20.10 45.88 16.00 46.90 14.38 43.71 C 13.54 39.90 14.20 35.89 14.00 32.00 C 12.00 32.00 10.00 32.00 8.00 32.00 C 8.05 37.35 7.91 42.70 8.04 48.05 C 7.91 50.62 10.59 52.35 12.95 52.00 C 24.33 52.00 35.70 52.00 47.08 52.00 C 49.44 52.35 52.03 50.56 51.95 48.05 C 52.07 36.35 51.97 24.64 52.00 12.93 C 52.33 10.61 50.65 7.95 48.12 8.05 C 36.39 7.93 24.65 8.03 12.92 8.00 C 10.56 7.64 7.98 9.42 8.04 11.92 Z" />
</g>
<g id="#000000ff">
<path fill="#968176" opacity="1.00" d=" M 8.04 11.92 C 7.98 9.42 10.56 7.64 12.92 8.00 C 24.65 8.03 36.39 7.93 48.12 8.05 C 50.65 7.95 52.33 10.61 52.00 12.93 C 51.97 24.64 52.07 36.35 51.95 48.05 C 52.03 50.56 49.44 52.35 47.08 52.00 C 35.70 52.00 24.33 52.00 12.95 52.00 C 10.59 52.35 7.91 50.62 8.04 48.05 C 7.91 42.70 8.05 37.35 8.00 32.00 C 10.00 32.00 12.00 32.00 14.00 32.00 C 14.20 35.89 13.54 39.90 14.38 43.71 C 16.00 46.90 20.10 45.88 22.99 46.01 C 25.35 46.36 28.03 44.70 27.95 42.13 C 28.09 34.09 27.95 26.04 28.00 18.00 C 30.00 18.00 32.00 18.00 34.00 18.00 C 34.20 21.88 33.55 25.88 34.37 29.69 C 36.23 33.21 40.81 31.70 44.00 31.99 C 44.00 32.99 44.00 34.99 44.00 35.99 C 46.00 34.00 48.00 32.00 49.99 30.00 C 48.01 27.98 46.01 25.97 44.01 23.97 C 44.00 25.31 44.00 26.66 44.00 28.00 C 42.00 28.00 40.00 28.00 38.00 28.00 C 37.92 24.33 38.20 20.64 37.85 16.98 C 36.75 13.07 32.05 14.05 28.98 13.98 C 26.62 13.65 23.98 15.37 24.04 17.91 C 23.92 25.94 24.04 33.97 24.00 42.00 C 22.00 42.00 20.00 42.00 18.00 42.00 C 17.92 38.33 18.20 34.64 17.85 30.98 C 16.55 26.71 11.32 28.25 8.00 28.00 C 8.05 22.64 7.91 17.28 8.04 11.92 Z" />
</g>
</svg>
