<?xml version="1.0" encoding="UTF-8" ?>
<!DOCTYPE svg PUBLIC "-//W3C//DTD SVG 1.1//EN" "http://www.w3.org/Graphics/SVG/1.1/DTD/svg11.dtd">
<svg width="60pt" height="60pt" viewBox="0 0 60 60" version="1.1" xmlns="http://www.w3.org/2000/svg">
<g id="#ffffffff">
<path fill="#ffffff" opacity="1.00" d=" M 0.00 0.00 L 60.00 0.00 L 60.00 38.86 C 59.00 37.58 57.97 35.88 56.09 36.07 C 50.70 35.92 45.28 35.92 39.88 36.08 C 37.82 36.02 36.00 37.87 36.07 39.93 C 35.92 45.30 35.92 50.68 36.07 56.04 C 35.86 57.94 37.56 58.95 38.81 60.00 L 0.00 60.00 L 0.00 0.00 M 8.29 12.40 C 4.57 13.94 5.80 20.08 9.86 19.94 C 22.23 20.10 34.61 19.92 46.98 20.02 C 49.13 19.95 51.92 20.40 53.26 18.24 C 55.17 15.91 53.14 11.91 50.14 12.06 C 37.76 11.90 25.38 12.07 13.01 11.98 C 11.44 12.07 9.78 11.81 8.29 12.40 M 6.41 28.29 C 5.01 30.74 7.17 34.07 9.94 33.95 C 17.32 34.06 24.72 34.01 32.10 33.97 C 34.21 33.97 35.75 31.99 37.89 32.05 C 43.24 31.86 48.60 32.18 53.94 31.86 C 53.82 30.26 54.16 28.35 52.80 27.17 C 51.60 25.77 49.59 26.07 47.95 25.98 C 35.59 26.03 23.23 25.98 10.86 26.01 C 9.08 25.84 7.19 26.60 6.41 28.29 M 9.03 47.84 C 16.67 48.23 24.35 47.89 32.00 48.00 C 32.00 45.33 32.00 42.67 32.00 40.00 C 24.35 40.11 16.67 39.78 9.03 40.15 C 5.12 40.90 5.07 47.13 9.03 47.84 Z" />
<path fill="#ffffff" opacity="1.00" d=" M 43.30 40.29 C 44.72 39.30 45.64 41.21 46.48 42.00 C 47.49 42.00 48.50 42.00 49.52 42.01 C 51.55 36.82 59.17 44.44 53.99 46.49 C 54.00 47.47 54.01 48.46 54.02 49.44 C 54.97 50.36 55.75 51.42 56.28 52.63 C 54.69 54.01 53.12 55.49 51.19 56.37 C 50.84 55.77 50.16 54.58 49.82 53.99 C 48.70 53.99 47.59 54.00 46.48 54.01 C 45.61 54.88 44.73 56.56 43.22 55.82 C 41.79 54.48 40.23 53.11 39.67 51.15 C 40.26 50.81 41.44 50.15 42.02 49.81 C 42.01 48.73 41.99 47.64 41.97 46.55 C 41.04 45.64 40.27 44.60 39.74 43.41 C 40.89 42.33 42.04 41.25 43.30 40.29 M 46.00 46.00 C 46.00 47.33 46.00 48.67 46.00 50.00 C 47.33 50.00 48.67 50.00 50.00 50.00 C 50.00 48.67 50.00 47.33 50.00 46.00 C 48.67 46.00 47.33 46.00 46.00 46.00 Z" />
<path fill="#ffffff" opacity="1.00" d=" M 57.33 60.00 C 57.68 58.74 58.74 57.67 60.00 57.31 L 60.00 60.00 L 57.33 60.00 Z" />
</g>
<g id="#000000ff">
<path fill="#968176" opacity="1.00" d=" M 8.29 12.40 C 9.78 11.81 11.44 12.07 13.01 11.98 C 25.38 12.07 37.76 11.90 50.14 12.06 C 53.14 11.91 55.17 15.91 53.26 18.24 C 51.92 20.40 49.13 19.95 46.98 20.02 C 34.61 19.92 22.23 20.10 9.86 19.94 C 5.80 20.08 4.57 13.94 8.29 12.40 Z" />
<path fill="#968176" opacity="1.00" d=" M 6.41 28.29 C 7.19 26.60 9.08 25.84 10.86 26.01 C 23.23 25.98 35.59 26.03 47.95 25.98 C 49.59 26.07 51.60 25.77 52.80 27.17 C 54.16 28.35 53.82 30.26 53.94 31.86 C 48.60 32.18 43.24 31.86 37.89 32.05 C 35.75 31.99 34.21 33.97 32.10 33.97 C 24.72 34.01 17.32 34.06 9.94 33.95 C 7.17 34.07 5.01 30.74 6.41 28.29 Z" />
<path fill="#968176" opacity="1.00" d=" M 36.07 39.93 C 36.00 37.87 37.82 36.02 39.88 36.08 C 45.28 35.92 50.70 35.92 56.09 36.07 C 57.97 35.88 59.00 37.58 60.00 38.86 L 60.00 57.31 C 58.74 57.67 57.68 58.74 57.33 60.00 L 38.81 60.00 C 37.56 58.95 35.86 57.94 36.07 56.04 C 35.92 50.68 35.92 45.30 36.07 39.93 M 43.30 40.29 C 42.04 41.25 40.89 42.33 39.74 43.41 C 40.27 44.60 41.04 45.64 41.97 46.55 C 41.99 47.64 42.01 48.73 42.02 49.81 C 41.44 50.15 40.26 50.81 39.67 51.15 C 40.23 53.11 41.79 54.48 43.22 55.82 C 44.73 56.56 45.61 54.88 46.48 54.01 C 47.59 54.00 48.70 53.99 49.82 53.99 C 50.16 54.58 50.84 55.77 51.19 56.37 C 53.12 55.49 54.69 54.01 56.28 52.63 C 55.75 51.42 54.97 50.36 54.02 49.44 C 54.01 48.46 54.00 47.47 53.99 46.49 C 59.17 44.44 51.55 36.82 49.52 42.01 C 48.50 42.00 47.49 42.00 46.48 42.00 C 45.64 41.21 44.72 39.30 43.30 40.29 Z" />
<path fill="#968176" opacity="1.00" d=" M 9.03 47.84 C 5.07 47.13 5.12 40.90 9.03 40.15 C 16.67 39.78 24.35 40.11 32.00 40.00 C 32.00 42.67 32.00 45.33 32.00 48.00 C 24.35 47.89 16.67 48.23 9.03 47.84 Z" />
<path fill="#968176" opacity="1.00" d=" M 46.00 46.00 C 47.33 46.00 48.67 46.00 50.00 46.00 C 50.00 47.33 50.00 48.67 50.00 50.00 C 48.67 50.00 47.33 50.00 46.00 50.00 C 46.00 48.67 46.00 47.33 46.00 46.00 Z" />
</g>
</svg>
