<?xml version="1.0" encoding="UTF-8" ?>
<!DOCTYPE svg PUBLIC "-//W3C//DTD SVG 1.1//EN" "http://www.w3.org/Graphics/SVG/1.1/DTD/svg11.dtd">
<svg width="60pt" height="60pt" viewBox="0 0 60 60" version="1.1" xmlns="http://www.w3.org/2000/svg">
<g id="#ffffffff">
<path fill="#ffffff" opacity="1.00" d=" M 0.00 0.00 L 60.00 0.00 L 60.00 60.00 L 0.00 60.00 L 0.00 0.00 M 14.16 4.19 C 12.16 4.72 11.42 6.89 10.38 8.45 C 9.11 10.95 7.14 13.20 6.61 16.01 C 7.17 18.82 9.12 21.09 10.41 23.60 C 11.51 25.31 12.46 27.84 14.86 27.91 C 18.26 28.09 21.68 28.09 25.09 27.91 C 26.96 27.94 28.04 26.24 28.87 24.82 C 30.34 22.23 32.02 19.75 33.20 17.01 C 33.80 14.19 31.37 11.94 30.27 9.55 C 28.87 7.55 28.00 4.26 25.11 4.08 C 21.47 3.95 17.79 3.82 14.16 4.19 M 38.14 18.19 C 36.16 18.74 35.41 20.88 34.38 22.44 C 33.11 24.94 31.14 27.19 30.61 30.00 C 31.15 32.79 33.10 35.05 34.38 37.54 C 35.49 39.27 36.44 41.85 38.87 41.91 C 42.28 42.09 45.71 42.09 49.12 41.91 C 51.56 41.84 52.52 39.26 53.64 37.52 C 54.91 35.04 56.88 32.79 57.36 30.00 C 56.89 27.21 54.92 24.98 53.66 22.50 C 52.52 20.75 51.55 18.11 49.07 18.08 C 45.44 17.95 41.77 17.82 38.14 18.19 M 14.09 32.21 C 12.15 32.79 11.41 34.89 10.39 36.43 C 9.11 38.95 7.11 41.21 6.61 44.04 C 7.19 46.84 9.12 49.10 10.41 51.60 C 11.52 53.33 12.49 55.88 14.91 55.91 C 18.30 56.09 21.70 56.09 25.08 55.91 C 27.54 55.87 28.51 53.27 29.64 51.53 C 30.91 49.04 32.88 46.79 33.37 44.00 C 32.87 41.18 30.88 38.92 29.61 36.42 C 28.50 34.69 27.52 32.11 25.09 32.08 C 21.43 31.96 17.73 31.81 14.09 32.21 Z" />
</g>
<g id="#000000ff">
<path fill="#968176" opacity="1.00" d=" M 14.16 4.19 C 17.79 3.82 21.47 3.95 25.11 4.08 C 28.00 4.26 28.87 7.55 30.27 9.55 C 31.37 11.94 33.80 14.19 33.20 17.01 C 32.02 19.75 30.34 22.23 28.87 24.82 C 28.04 26.24 26.96 27.94 25.09 27.91 C 21.68 28.09 18.26 28.09 14.86 27.91 C 12.46 27.84 11.51 25.31 10.41 23.60 C 9.12 21.09 7.17 18.82 6.61 16.01 C 7.14 13.20 9.11 10.95 10.38 8.45 C 11.42 6.89 12.16 4.72 14.16 4.19 Z" />
<path fill="#968176" opacity="1.00" d=" M 38.14 18.19 C 41.77 17.82 45.44 17.95 49.07 18.08 C 51.55 18.11 52.52 20.75 53.66 22.50 C 54.92 24.98 56.89 27.21 57.36 30.00 C 56.88 32.79 54.91 35.04 53.64 37.52 C 52.52 39.26 51.56 41.84 49.12 41.91 C 45.71 42.09 42.28 42.09 38.87 41.91 C 36.44 41.85 35.49 39.27 34.38 37.54 C 33.10 35.05 31.15 32.79 30.61 30.00 C 31.14 27.19 33.11 24.94 34.38 22.44 C 35.41 20.88 36.16 18.74 38.14 18.19 Z" />
<path fill="#968176" opacity="1.00" d=" M 14.09 32.21 C 17.73 31.81 21.43 31.96 25.09 32.08 C 27.52 32.11 28.50 34.69 29.61 36.42 C 30.88 38.92 32.87 41.18 33.37 44.00 C 32.88 46.79 30.91 49.04 29.64 51.53 C 28.51 53.27 27.54 55.87 25.08 55.91 C 21.70 56.09 18.30 56.09 14.91 55.91 C 12.49 55.88 11.52 53.33 10.41 51.60 C 9.12 49.10 7.19 46.84 6.61 44.04 C 7.11 41.21 9.11 38.95 10.39 36.43 C 11.41 34.89 12.15 32.79 14.09 32.21 Z" />
</g>
</svg>
