<?xml version="1.0" encoding="UTF-8" ?>
<!DOCTYPE svg PUBLIC "-//W3C//DTD SVG 1.1//EN" "http://www.w3.org/Graphics/SVG/1.1/DTD/svg11.dtd">
<svg width="60pt" height="60pt" viewBox="0 0 60 60" version="1.1" xmlns="http://www.w3.org/2000/svg">
<g id="#ffffffff">
<path fill="#ffffff" opacity="1.00" d=" M 0.00 0.00 L 60.00 0.00 L 60.00 60.00 L 0.00 60.00 L 0.00 0.00 M 24.11 6.03 C 23.22 14.48 16.18 20.19 12.68 27.51 C 9.14 34.16 8.80 43.11 13.85 49.10 C 18.24 54.36 25.46 56.03 32.04 55.99 C 37.96 56.09 44.02 53.27 47.17 48.16 C 50.06 43.72 50.42 38.17 49.56 33.07 C 48.63 27.71 47.87 22.22 45.77 17.17 C 45.26 15.63 42.64 15.51 42.33 17.26 C 41.28 19.73 40.07 22.17 38.16 24.10 C 37.54 16.39 33.20 9.39 27.32 4.54 C 26.15 3.32 23.95 4.29 24.11 6.03 Z" />
<path fill="#ffffff" opacity="1.00" d=" M 22.24 28.17 C 25.00 26.67 28.85 28.73 28.66 32.01 C 29.10 35.04 26.02 37.64 23.11 36.69 C 19.33 35.85 18.90 29.85 22.24 28.17 M 25.12 34.54 C 25.24 33.12 25.89 31.50 24.81 30.27 C 22.26 30.29 22.75 34.40 25.12 34.54 Z" />
<path fill="#ffffff" opacity="1.00" d=" M 33.67 28.22 C 35.06 28.09 36.46 28.11 37.85 28.13 C 33.63 33.74 29.58 39.49 26.41 45.78 C 25.03 45.80 23.66 45.82 22.29 45.80 C 26.44 40.18 30.46 34.45 33.67 28.22 Z" />
<path fill="#ffffff" opacity="1.00" d=" M 33.46 37.65 C 36.06 36.12 39.90 37.87 39.96 41.02 C 40.53 43.90 37.95 46.87 34.95 46.21 C 30.87 45.80 30.08 39.52 33.46 37.65 M 36.01 44.18 C 36.64 42.71 37.47 40.74 35.91 39.51 C 33.64 40.35 34.43 43.09 36.01 44.18 Z" />
</g>
<g id="#000000ff">
<path fill="#968176" opacity="1.00" d=" M 24.11 6.03 C 23.95 4.29 26.15 3.32 27.32 4.54 C 33.20 9.39 37.54 16.39 38.16 24.10 C 40.07 22.17 41.28 19.73 42.33 17.26 C 42.64 15.51 45.26 15.63 45.77 17.17 C 47.87 22.22 48.63 27.71 49.56 33.07 C 50.42 38.17 50.06 43.72 47.17 48.16 C 44.02 53.27 37.96 56.09 32.04 55.99 C 25.46 56.03 18.24 54.36 13.85 49.10 C 8.80 43.11 9.14 34.16 12.68 27.51 C 16.18 20.19 23.22 14.48 24.11 6.03 M 22.24 28.17 C 18.90 29.85 19.33 35.85 23.11 36.69 C 26.02 37.64 29.10 35.04 28.66 32.01 C 28.85 28.73 25.00 26.67 22.24 28.17 M 33.67 28.22 C 30.46 34.45 26.44 40.18 22.29 45.80 C 23.66 45.82 25.03 45.80 26.41 45.78 C 29.58 39.49 33.63 33.74 37.85 28.13 C 36.46 28.11 35.06 28.09 33.67 28.22 M 33.46 37.65 C 30.08 39.52 30.87 45.80 34.95 46.21 C 37.95 46.87 40.53 43.90 39.96 41.02 C 39.90 37.87 36.06 36.12 33.46 37.65 Z" />
<path fill="#968176" opacity="1.00" d=" M 25.12 34.54 C 22.75 34.40 22.26 30.29 24.81 30.27 C 25.89 31.50 25.24 33.12 25.12 34.54 Z" />
<path fill="#968176" opacity="1.00" d=" M 36.01 44.18 C 34.43 43.09 33.64 40.35 35.91 39.51 C 37.47 40.74 36.64 42.71 36.01 44.18 Z" />
</g>
</svg>
