<?xml version="1.0" encoding="UTF-8" ?>
<!DOCTYPE svg PUBLIC "-//W3C//DTD SVG 1.1//EN" "http://www.w3.org/Graphics/SVG/1.1/DTD/svg11.dtd">
<svg width="200pt" height="200pt" viewBox="0 0 200 200" version="1.1" xmlns="http://www.w3.org/2000/svg">
<g id="#ffffffff">
<path fill="#ffffff" opacity="1.00" d=" M 0.00 0.00 L 200.00 0.00 L 200.00 97.86 C 199.15 87.80 194.21 77.85 185.59 72.28 C 176.37 66.01 164.70 65.58 153.95 66.30 C 130.08 68.13 106.87 75.10 82.91 76.09 C 66.27 76.92 47.51 73.98 35.90 60.88 C 40.51 60.30 45.63 59.48 48.83 55.74 C 52.43 51.44 53.43 45.49 53.36 40.03 C 52.52 37.71 49.80 37.86 48.07 39.00 C 41.36 42.67 32.02 38.52 26.71 45.23 C 22.45 39.73 15.05 41.46 9.08 40.33 C 6.02 39.78 2.52 36.37 0.00 39.81 L 0.00 0.00 Z" />
<path fill="#ffffff" opacity="1.00" d=" M 0.00 41.71 C 0.49 46.98 1.42 52.81 5.48 56.60 C 9.06 59.95 14.18 60.49 18.84 60.93 C 19.15 76.07 23.81 91.10 32.36 103.62 C 46.71 124.78 69.72 138.78 93.92 145.95 C 93.25 149.93 91.77 153.70 89.72 157.16 C 87.98 159.28 90.57 162.58 93.03 161.76 C 102.36 160.12 111.24 156.26 118.92 150.73 C 135.12 151.99 151.79 150.31 166.90 144.12 C 180.04 138.89 191.74 129.05 197.08 115.72 C 186.40 117.03 175.15 115.50 165.63 110.34 C 177.29 108.87 189.06 107.07 200.00 102.58 L 200.00 200.00 L 0.00 200.00 L 0.00 41.71 Z" />
<path fill="#ffffff" opacity="1.00" d=" M 174.99 86.07 C 178.95 84.76 183.08 89.15 181.54 93.02 C 180.41 96.95 174.63 98.02 172.21 94.69 C 169.72 91.87 171.32 86.91 174.99 86.07 Z" />
</g>
<g id="#000000ff">
<path fill="#968176" opacity="1.00" d=" M 0.00 39.81 C 2.52 36.37 6.02 39.78 9.08 40.33 C 15.05 41.46 22.45 39.73 26.71 45.23 C 32.02 38.52 41.36 42.67 48.07 39.00 C 49.80 37.86 52.52 37.71 53.36 40.03 C 53.43 45.49 52.43 51.44 48.83 55.74 C 45.63 59.48 40.51 60.30 35.90 60.88 C 47.51 73.98 66.27 76.92 82.91 76.09 C 106.87 75.10 130.08 68.13 153.95 66.30 C 164.70 65.58 176.37 66.01 185.59 72.28 C 194.21 77.85 199.15 87.80 200.00 97.86 L 200.00 102.58 C 189.06 107.07 177.29 108.87 165.63 110.34 C 175.15 115.50 186.40 117.03 197.08 115.72 C 191.74 129.05 180.04 138.89 166.90 144.12 C 151.79 150.31 135.12 151.99 118.92 150.73 C 111.24 156.26 102.36 160.12 93.03 161.76 C 90.57 162.58 87.98 159.28 89.72 157.16 C 91.77 153.70 93.25 149.93 93.92 145.95 C 69.72 138.78 46.71 124.78 32.36 103.62 C 23.81 91.10 19.15 76.07 18.84 60.93 C 14.18 60.49 9.06 59.95 5.48 56.60 C 1.42 52.81 0.49 46.98 0.00 41.71 L 0.00 39.81 M 174.99 86.07 C 171.32 86.91 169.72 91.87 172.21 94.69 C 174.63 98.02 180.41 96.95 181.54 93.02 C 183.08 89.15 178.95 84.76 174.99 86.07 Z" />
</g>
</svg>
