<?xml version="1.0" encoding="UTF-8" ?>
<!DOCTYPE svg PUBLIC "-//W3C//DTD SVG 1.1//EN" "http://www.w3.org/Graphics/SVG/1.1/DTD/svg11.dtd">
<svg width="60pt" height="60pt" viewBox="0 0 60 60" version="1.1" xmlns="http://www.w3.org/2000/svg">
<g id="#ffffffff">
<path fill="#ffffff" opacity="1.00" d=" M 0.00 0.00 L 60.00 0.00 L 60.00 60.00 L 0.00 60.00 L 0.00 0.00 M 16.43 15.54 C 15.66 16.33 13.74 16.57 14.07 18.01 C 13.97 20.44 17.26 20.17 18.89 19.84 C 20.78 17.94 19.86 14.64 21.62 12.56 C 24.90 7.10 33.49 6.48 37.51 11.43 C 39.74 13.54 39.50 16.80 40.62 19.40 C 42.17 20.52 45.77 20.50 46.06 18.00 C 45.96 16.64 44.48 16.24 43.56 15.55 C 42.36 9.60 37.32 4.39 31.08 4.08 C 24.11 3.33 17.69 8.81 16.43 15.54 M 13.60 24.62 C 13.45 24.94 13.15 25.59 13.00 25.91 C 15.84 33.56 19.46 40.90 22.55 48.45 C 23.74 51.01 24.57 54.20 27.33 55.52 C 30.56 57.25 34.78 55.32 35.93 51.93 C 39.57 43.28 43.61 34.77 46.96 26.01 C 45.93 22.40 40.81 24.49 38.02 24.06 C 34.49 24.03 37.49 29.93 34.03 29.93 C 30.79 29.96 33.09 25.32 30.80 24.15 C 26.56 23.79 22.29 24.09 18.03 23.98 C 16.60 24.17 14.79 23.61 13.60 24.62 Z" />
</g>
<g id="#000000ff">
<path fill="#968176" opacity="1.00" d=" M 16.43 15.54 C 17.69 8.81 24.11 3.33 31.08 4.08 C 37.32 4.39 42.36 9.60 43.56 15.55 C 44.48 16.24 45.96 16.64 46.06 18.00 C 45.77 20.50 42.17 20.52 40.62 19.40 C 39.50 16.80 39.74 13.54 37.51 11.43 C 33.49 6.48 24.90 7.10 21.62 12.56 C 19.86 14.64 20.78 17.94 18.89 19.84 C 17.26 20.17 13.97 20.44 14.07 18.01 C 13.74 16.57 15.66 16.33 16.43 15.54 Z" />
<path fill="#968176" opacity="1.00" d=" M 13.60 24.62 C 14.79 23.61 16.60 24.17 18.03 23.98 C 22.29 24.09 26.56 23.79 30.80 24.15 C 33.09 25.32 30.79 29.96 34.03 29.93 C 37.49 29.93 34.49 24.03 38.02 24.06 C 40.81 24.49 45.93 22.40 46.96 26.01 C 43.61 34.77 39.57 43.28 35.93 51.93 C 34.78 55.32 30.56 57.25 27.33 55.52 C 24.57 54.20 23.74 51.01 22.55 48.45 C 19.46 40.90 15.84 33.56 13.00 25.91 C 13.15 25.59 13.45 24.94 13.60 24.62 Z" />
</g>
</svg>
