<?xml version="1.0" encoding="UTF-8" ?>
<!DOCTYPE svg PUBLIC "-//W3C//DTD SVG 1.1//EN" "http://www.w3.org/Graphics/SVG/1.1/DTD/svg11.dtd">
<svg width="60pt" height="60pt" viewBox="0 0 60 60" version="1.1" xmlns="http://www.w3.org/2000/svg">
<g id="#ffffffff">
<path fill="#ffffff" opacity="1.00" d=" M 0.00 0.00 L 60.00 0.00 L 60.00 60.00 L 0.00 60.00 L 0.00 0.00 M 6.51 23.65 C 3.75 24.06 3.19 27.29 5.89 28.31 C 6.14 33.46 9.09 37.96 9.25 43.14 C 9.93 45.57 9.25 50.18 12.94 49.99 C 15.81 50.03 20.37 50.93 20.71 46.85 C 25.47 48.18 30.47 48.25 35.33 47.39 C 37.02 51.20 41.58 49.98 44.89 49.80 C 47.04 48.28 45.20 45.32 45.10 43.26 C 46.99 41.75 48.66 40.00 50.14 38.10 C 51.48 37.84 53.19 38.30 54.11 37.00 C 55.05 34.78 55.59 32.38 55.93 30.00 C 56.07 27.56 53.08 27.42 51.44 26.64 C 50.63 24.14 49.50 21.77 48.03 19.60 C 49.19 17.21 49.87 14.65 50.09 12.00 C 47.47 12.84 44.85 13.71 42.24 14.57 C 37.04 11.57 31.04 9.90 25.03 10.06 C 16.94 10.40 8.56 15.44 6.51 23.65 Z" />
<path fill="#ffffff" opacity="1.00" d=" M 20.03 26.09 C 19.80 21.78 23.74 17.84 28.05 18.02 C 32.32 17.92 36.11 21.78 35.98 26.04 C 36.04 29.16 33.72 31.52 32.12 33.97 C 29.37 34.01 26.62 34.02 23.88 33.97 C 22.30 31.53 19.99 29.19 20.03 26.09 Z" />
<path fill="#ffffff" opacity="1.00" d=" M 23.79 36.04 C 26.59 35.95 29.39 36.01 32.19 36.07 C 31.54 37.97 30.27 40.09 27.96 40.01 C 25.65 40.09 24.32 38.00 23.79 36.04 Z" />
</g>
<g id="#000000ff">
<path fill="#968176" opacity="1.00" d=" M 6.51 23.65 C 8.56 15.44 16.94 10.40 25.03 10.06 C 31.04 9.90 37.04 11.57 42.24 14.57 C 44.85 13.71 47.47 12.84 50.09 12.00 C 49.87 14.65 49.19 17.21 48.03 19.60 C 49.50 21.77 50.63 24.14 51.44 26.64 C 53.08 27.42 56.07 27.56 55.93 30.00 C 55.59 32.38 55.05 34.78 54.11 37.00 C 53.19 38.30 51.48 37.84 50.14 38.10 C 48.66 40.00 46.99 41.75 45.10 43.26 C 45.20 45.32 47.04 48.28 44.89 49.80 C 41.58 49.98 37.02 51.20 35.33 47.39 C 30.47 48.25 25.47 48.18 20.71 46.85 C 20.37 50.93 15.81 50.03 12.94 49.99 C 9.25 50.18 9.93 45.57 9.25 43.14 C 9.09 37.96 6.14 33.46 5.89 28.31 C 3.19 27.29 3.75 24.06 6.51 23.65 M 20.03 26.09 C 19.99 29.19 22.30 31.53 23.88 33.97 C 26.62 34.02 29.37 34.01 32.12 33.97 C 33.72 31.52 36.04 29.16 35.98 26.04 C 36.11 21.78 32.32 17.92 28.05 18.02 C 23.74 17.84 19.80 21.78 20.03 26.09 M 23.79 36.04 C 24.32 38.00 25.65 40.09 27.96 40.01 C 30.27 40.09 31.54 37.97 32.19 36.07 C 29.39 36.01 26.59 35.95 23.79 36.04 Z" />
</g>
</svg>
