<?xml version="1.0" encoding="UTF-8" ?>
<!DOCTYPE svg PUBLIC "-//W3C//DTD SVG 1.1//EN" "http://www.w3.org/Graphics/SVG/1.1/DTD/svg11.dtd">
<svg width="200pt" height="200pt" viewBox="0 0 200 200" version="1.1" xmlns="http://www.w3.org/2000/svg">
<g id="#ffffffff">
<path fill="#ffffff" opacity="1.00" d=" M 0.00 0.00 L 200.00 0.00 L 200.00 200.00 L 0.00 200.00 L 0.00 0.00 M 148.44 10.48 C 137.66 18.05 125.78 24.55 112.84 27.44 C 97.37 29.64 83.31 20.42 68.03 19.99 C 59.77 19.47 51.84 22.63 44.79 26.65 C 36.96 31.22 29.88 37.07 23.81 43.79 C 22.68 44.83 22.84 46.45 23.24 47.78 C 35.23 92.41 47.22 137.05 59.21 181.69 C 59.86 184.02 60.31 186.43 61.29 188.66 C 62.41 190.24 64.73 190.03 65.95 188.68 C 67.21 187.35 66.44 185.55 66.08 184.05 C 53.83 138.37 41.62 92.67 29.39 46.98 C 34.42 41.75 39.99 37.00 46.16 33.16 C 53.01 28.98 60.83 25.47 69.04 26.21 C 84.27 27.35 98.53 36.11 114.10 33.56 C 126.47 30.92 137.90 24.95 148.40 18.02 C 155.79 45.69 163.20 73.35 170.59 101.01 C 160.27 107.81 149.14 113.82 137.02 116.60 C 122.17 118.86 108.61 110.36 94.04 109.32 C 81.61 107.96 69.90 114.15 60.32 121.47 C 57.36 123.35 60.53 128.33 63.46 126.45 C 71.87 120.60 81.33 114.52 92.02 115.17 C 107.55 116.10 122.04 125.21 137.88 122.52 C 150.90 119.62 162.90 113.26 173.88 105.83 C 175.33 104.80 177.58 103.52 176.77 101.37 C 168.96 71.90 161.06 42.45 153.21 12.98 C 153.13 10.69 150.35 9.11 148.44 10.48 M 95.38 46.58 C 89.98 48.52 85.87 54.09 86.25 59.91 C 87.05 62.11 90.42 62.88 91.66 60.64 C 92.38 57.33 93.56 53.51 97.15 52.32 C 102.45 49.74 109.79 54.93 108.00 60.86 C 105.88 68.67 101.98 76.63 104.11 84.89 C 104.35 87.02 107.06 88.31 108.80 86.94 C 110.89 85.56 109.60 82.89 109.58 80.91 C 108.79 72.58 114.71 65.27 113.94 56.97 C 112.61 48.79 103.06 43.44 95.38 46.58 M 108.53 90.52 C 105.65 91.17 104.55 95.24 106.76 97.23 C 108.88 99.59 113.30 98.14 113.56 94.96 C 114.14 92.21 111.15 89.69 108.53 90.52 Z" />
</g>
<g id="#000000ff">
<path fill="#968176" opacity="1.00" d=" M 148.44 10.48 C 150.35 9.11 153.13 10.69 153.21 12.98 C 161.06 42.45 168.96 71.90 176.77 101.37 C 177.58 103.52 175.33 104.80 173.88 105.83 C 162.90 113.26 150.90 119.62 137.88 122.52 C 122.04 125.21 107.55 116.10 92.02 115.17 C 81.33 114.52 71.87 120.60 63.46 126.45 C 60.53 128.33 57.36 123.35 60.32 121.47 C 69.90 114.15 81.61 107.96 94.04 109.32 C 108.61 110.36 122.17 118.86 137.02 116.60 C 149.14 113.82 160.27 107.81 170.59 101.01 C 163.20 73.35 155.79 45.69 148.40 18.02 C 137.90 24.95 126.47 30.92 114.10 33.56 C 98.53 36.11 84.27 27.35 69.04 26.21 C 60.83 25.47 53.01 28.98 46.16 33.16 C 39.99 37.00 34.42 41.75 29.39 46.98 C 41.62 92.67 53.83 138.37 66.08 184.05 C 66.44 185.55 67.21 187.35 65.95 188.68 C 64.73 190.03 62.41 190.24 61.29 188.66 C 60.31 186.43 59.86 184.02 59.21 181.69 C 47.22 137.05 35.23 92.41 23.24 47.78 C 22.84 46.45 22.68 44.83 23.81 43.79 C 29.88 37.07 36.96 31.22 44.79 26.65 C 51.84 22.63 59.77 19.47 68.03 19.99 C 83.31 20.42 97.37 29.64 112.84 27.44 C 125.78 24.55 137.66 18.05 148.44 10.48 Z" />
<path fill="#968176" opacity="1.00" d=" M 95.38 46.58 C 103.06 43.44 112.61 48.79 113.94 56.97 C 114.71 65.27 108.79 72.58 109.58 80.91 C 109.60 82.89 110.89 85.56 108.80 86.94 C 107.06 88.31 104.35 87.02 104.11 84.89 C 101.98 76.63 105.88 68.67 108.00 60.86 C 109.79 54.93 102.45 49.74 97.15 52.32 C 93.56 53.51 92.38 57.33 91.66 60.64 C 90.42 62.88 87.05 62.11 86.25 59.91 C 85.87 54.09 89.98 48.52 95.38 46.58 Z" />
<path fill="#968176" opacity="1.00" d=" M 108.53 90.52 C 111.15 89.69 114.14 92.21 113.56 94.96 C 113.30 98.14 108.88 99.59 106.76 97.23 C 104.55 95.24 105.65 91.17 108.53 90.52 Z" />
</g>
</svg>
