<?xml version="1.0" encoding="UTF-8" ?>
<!DOCTYPE svg PUBLIC "-//W3C//DTD SVG 1.1//EN" "http://www.w3.org/Graphics/SVG/1.1/DTD/svg11.dtd">
<svg width="60pt" height="60pt" viewBox="0 0 60 60" version="1.1" xmlns="http://www.w3.org/2000/svg">
<g id="#ffffffff">
<path fill="#ffffff" opacity="1.00" d=" M 0.00 0.00 L 60.00 0.00 L 60.00 60.00 L 0.00 60.00 L 0.00 0.00 M 35.09 9.39 C 28.38 8.24 21.07 9.38 15.50 13.45 C 10.35 17.18 7.62 23.48 7.25 29.71 C 12.53 22.96 19.10 16.73 27.26 13.71 C 24.91 15.88 22.21 17.63 19.92 19.86 C 12.53 26.87 7.38 36.15 5.02 46.02 C 4.15 49.89 5.82 55.13 10.21 55.86 C 15.92 56.50 21.21 53.59 25.81 50.55 C 31.31 50.98 37.12 51.02 42.15 48.44 C 47.37 45.93 51.07 41.08 53.08 35.75 C 47.98 35.73 42.87 35.72 37.77 35.75 C 36.46 39.23 32.76 41.42 29.08 40.45 C 25.43 39.89 23.83 36.09 23.62 32.81 C 33.51 32.79 43.40 32.81 53.29 32.80 C 53.46 27.97 52.87 22.90 50.17 18.76 C 47.26 13.95 42.09 11.16 36.84 9.63 C 41.32 7.27 46.65 4.02 51.82 6.11 C 55.41 8.24 53.65 12.95 53.25 16.25 C 54.62 12.55 56.43 6.49 51.71 4.49 C 45.74 2.85 40.04 6.48 35.09 9.39 Z" />
<path fill="#ffffff" opacity="1.00" d=" M 23.58 25.91 C 23.81 22.08 27.07 18.80 31.03 19.24 C 34.87 18.91 37.70 22.29 37.91 25.90 C 33.13 25.95 28.36 25.94 23.58 25.91 Z" />
<path fill="#ffffff" opacity="1.00" d=" M 9.73 52.35 C 7.54 48.95 9.49 44.87 11.02 41.62 C 14.38 46.23 19.58 48.94 24.99 50.35 C 20.43 52.42 14.49 55.56 9.73 52.35 Z" />
</g>
<g id="#000000ff">
<path fill="#968176" opacity="1.00" d=" M 35.09 9.39 C 40.04 6.48 45.74 2.85 51.71 4.49 C 56.43 6.49 54.62 12.55 53.25 16.25 C 53.65 12.95 55.41 8.24 51.82 6.11 C 46.65 4.02 41.32 7.27 36.84 9.63 C 42.09 11.16 47.26 13.95 50.17 18.76 C 52.87 22.90 53.46 27.97 53.29 32.80 C 43.40 32.81 33.51 32.79 23.62 32.81 C 23.83 36.09 25.43 39.89 29.08 40.45 C 32.76 41.42 36.46 39.23 37.77 35.75 C 42.87 35.72 47.98 35.73 53.08 35.75 C 51.07 41.08 47.37 45.93 42.15 48.44 C 37.12 51.02 31.31 50.98 25.81 50.55 C 21.21 53.59 15.92 56.50 10.21 55.86 C 5.82 55.13 4.15 49.89 5.02 46.02 C 7.38 36.15 12.53 26.87 19.92 19.86 C 22.21 17.63 24.91 15.88 27.26 13.71 C 19.10 16.73 12.53 22.96 7.25 29.71 C 7.62 23.48 10.35 17.18 15.50 13.45 C 21.07 9.38 28.38 8.24 35.09 9.39 M 23.58 25.91 C 28.36 25.94 33.13 25.95 37.91 25.90 C 37.70 22.29 34.87 18.91 31.03 19.24 C 27.07 18.80 23.81 22.08 23.58 25.91 M 9.73 52.35 C 14.49 55.56 20.43 52.42 24.99 50.35 C 19.58 48.94 14.38 46.23 11.02 41.62 C 9.49 44.87 7.54 48.95 9.73 52.35 Z" />
</g>
</svg>
