<?xml version="1.0" encoding="UTF-8" ?>
<!DOCTYPE svg PUBLIC "-//W3C//DTD SVG 1.1//EN" "http://www.w3.org/Graphics/SVG/1.1/DTD/svg11.dtd">
<svg width="60pt" height="60pt" viewBox="0 0 60 60" version="1.1" xmlns="http://www.w3.org/2000/svg">
<g id="#ffffffff">
<path fill="#ffffff" opacity="1.00" d=" M 0.00 0.00 L 60.00 0.00 L 60.00 60.00 L 0.00 60.00 L 0.00 0.00 M 0.98 3.10 C 1.01 4.37 2.41 5.03 3.10 5.96 C 20.66 23.40 38.08 40.99 55.64 58.43 C 56.92 60.07 58.19 57.70 59.05 56.87 C 58.92 55.64 57.64 54.97 56.94 54.08 C 53.58 50.78 50.26 47.44 46.94 44.09 C 48.11 40.44 48.33 36.50 47.18 32.81 C 44.36 22.94 39.14 13.96 33.53 5.44 C 32.37 4.01 31.37 1.53 29.10 2.17 C 25.45 6.73 23.06 12.17 20.02 17.14 C 14.57 11.69 9.01 6.33 3.71 0.74 C 2.72 1.42 1.65 2.07 0.98 3.10 M 16.24 24.59 C 14.37 28.88 12.29 33.26 12.03 38.01 C 11.81 46.49 18.52 54.39 26.87 55.71 C 32.52 56.82 38.36 54.75 42.59 50.98 C 38.40 46.77 34.21 42.57 30.01 38.39 C 29.99 42.96 30.01 47.52 29.99 52.09 C 23.70 51.88 17.71 47.42 16.40 41.15 C 15.15 36.44 17.50 31.89 19.25 27.65 C 18.24 26.64 17.24 25.62 16.24 24.59 Z" />
<path fill="#ffffff" opacity="1.00" d=" M 22.97 20.14 C 25.22 15.98 27.54 11.86 29.98 7.80 C 30.02 14.25 30.00 20.70 30.00 27.14 C 27.64 24.82 25.31 22.47 22.97 20.14 Z" />
</g>
<g id="#000000ff">
<path fill="#968176" opacity="1.00" d=" M 0.98 3.10 C 1.65 2.07 2.72 1.42 3.71 0.74 C 9.01 6.33 14.57 11.69 20.02 17.14 C 23.06 12.17 25.45 6.73 29.10 2.17 C 31.37 1.53 32.37 4.01 33.53 5.44 C 39.14 13.96 44.36 22.94 47.18 32.81 C 48.33 36.50 48.11 40.44 46.94 44.09 C 50.26 47.44 53.58 50.78 56.94 54.08 C 57.64 54.97 58.92 55.64 59.05 56.87 C 58.19 57.70 56.92 60.07 55.64 58.43 C 38.08 40.99 20.66 23.40 3.10 5.96 C 2.41 5.03 1.01 4.37 0.98 3.10 M 22.97 20.14 C 25.31 22.47 27.64 24.82 30.00 27.14 C 30.00 20.70 30.02 14.25 29.98 7.80 C 27.54 11.86 25.22 15.98 22.97 20.14 Z" />
<path fill="#968176" opacity="1.00" d=" M 16.24 24.59 C 17.24 25.62 18.24 26.64 19.25 27.65 C 17.50 31.89 15.15 36.44 16.40 41.15 C 17.71 47.42 23.70 51.88 29.99 52.09 C 30.01 47.52 29.99 42.96 30.01 38.39 C 34.21 42.57 38.40 46.77 42.59 50.98 C 38.36 54.75 32.52 56.82 26.87 55.71 C 18.52 54.39 11.81 46.49 12.03 38.01 C 12.29 33.26 14.37 28.88 16.24 24.59 Z" />
</g>
</svg>
