<?xml version="1.0" encoding="UTF-8" ?>
<!DOCTYPE svg PUBLIC "-//W3C//DTD SVG 1.1//EN" "http://www.w3.org/Graphics/SVG/1.1/DTD/svg11.dtd">
<svg width="60pt" height="60pt" viewBox="0 0 60 60" version="1.1" xmlns="http://www.w3.org/2000/svg">
<g id="#ffffffff">
<path fill="#ffffff" opacity="1.00" d=" M 0.00 0.00 L 60.00 0.00 L 60.00 60.00 L 0.00 60.00 L 0.00 0.00 M 23.26 5.96 C 17.62 20.76 11.84 35.50 6.25 50.31 C 5.20 52.35 7.58 54.76 9.62 53.77 C 24.48 48.23 39.22 42.38 54.04 36.74 C 53.93 28.45 50.54 20.21 44.47 14.51 C 38.85 9.03 31.06 6.08 23.26 5.96 Z" />
<path fill="#ffffff" opacity="1.00" d=" M 23.32 20.52 C 25.15 19.19 28.13 20.67 27.94 22.98 C 28.12 24.91 25.90 26.54 24.12 25.81 C 21.76 25.28 21.32 21.77 23.32 20.52 Z" />
<path fill="#ffffff" opacity="1.00" d=" M 35.45 24.57 C 39.57 22.37 44.92 26.47 43.90 31.01 C 43.36 35.34 37.61 37.56 34.30 34.71 C 30.82 32.22 31.49 26.23 35.45 24.57 Z" />
<path fill="#ffffff" opacity="1.00" d=" M 16.34 36.39 C 19.44 34.62 23.33 38.56 21.61 41.65 C 20.66 43.81 17.67 44.78 15.75 43.27 C 13.15 41.74 13.60 37.52 16.34 36.39 Z" />
</g>
<g id="#000000ff">
<path fill="#968176" opacity="1.00" d=" M 23.26 5.96 C 31.06 6.08 38.85 9.03 44.47 14.51 C 50.54 20.21 53.93 28.45 54.04 36.74 C 39.22 42.38 24.48 48.23 9.62 53.77 C 7.58 54.76 5.20 52.35 6.25 50.31 C 11.84 35.50 17.62 20.76 23.26 5.96 M 23.32 20.52 C 21.32 21.77 21.76 25.28 24.12 25.81 C 25.90 26.54 28.12 24.91 27.94 22.98 C 28.13 20.67 25.15 19.19 23.32 20.52 M 35.45 24.57 C 31.49 26.23 30.82 32.22 34.30 34.71 C 37.61 37.56 43.36 35.34 43.90 31.01 C 44.92 26.47 39.57 22.37 35.45 24.57 M 16.34 36.39 C 13.60 37.52 13.15 41.74 15.75 43.27 C 17.67 44.78 20.66 43.81 21.61 41.65 C 23.33 38.56 19.44 34.62 16.34 36.39 Z" />
</g>
</svg>
