<?xml version="1.0" encoding="UTF-8" ?>
<!DOCTYPE svg PUBLIC "-//W3C//DTD SVG 1.1//EN" "http://www.w3.org/Graphics/SVG/1.1/DTD/svg11.dtd">
<svg width="60pt" height="60pt" viewBox="0 0 60 60" version="1.1" xmlns="http://www.w3.org/2000/svg">
<g id="#ffffffff">
<path fill="#ffffff" opacity="1.00" d=" M 0.00 0.00 L 60.00 0.00 L 60.00 60.00 L 0.00 60.00 L 0.00 0.00 M 10.61 9.51 C 8.54 11.58 5.38 13.75 6.00 17.11 C 6.02 19.97 9.01 22.73 11.90 21.82 C 13.78 21.43 14.75 19.69 15.61 18.15 C 16.29 20.78 19.09 22.77 21.79 21.75 C 23.54 21.30 24.33 19.62 25.05 18.15 C 25.82 19.83 26.97 21.54 28.94 21.89 C 31.71 22.60 34.27 20.49 34.95 17.91 C 35.54 20.17 37.45 22.25 39.97 21.99 C 42.20 21.93 43.74 20.13 44.38 18.15 C 45.32 20.03 46.77 21.96 49.08 22.00 C 53.30 22.11 55.64 16.26 52.97 13.22 C 51.45 11.41 49.83 9.55 47.73 8.39 C 37.18 7.74 26.57 8.06 15.99 8.13 C 14.13 8.20 11.98 7.96 10.61 9.51 M 9.91 26.24 C 9.54 31.81 9.54 37.39 9.78 42.97 C 9.98 45.52 10.13 48.25 11.51 50.49 C 17.52 52.03 23.82 51.83 29.98 51.99 C 36.16 51.82 42.50 52.05 48.51 50.46 C 49.99 47.90 50.08 44.85 50.26 41.98 C 50.41 36.73 50.50 31.46 50.00 26.22 C 47.86 26.05 46.00 25.07 44.52 23.53 C 42.26 26.88 37.26 26.73 34.94 23.53 C 32.52 26.85 27.39 26.84 24.96 23.53 C 22.64 26.75 17.66 26.84 15.38 23.54 C 13.92 25.09 12.04 26.02 9.91 26.24 Z" />
<path fill="#ffffff" opacity="1.00" d=" M 16.65 34.83 C 17.43 32.37 19.03 29.27 22.00 29.29 C 23.68 29.04 25.04 30.14 26.40 30.91 C 28.80 30.89 31.20 30.89 33.61 30.92 C 36.07 28.66 40.46 28.62 42.06 31.93 C 44.04 36.01 45.21 40.56 45.81 45.05 C 45.91 47.57 42.72 47.50 41.00 47.09 C 38.44 46.64 37.07 44.25 36.51 41.93 C 32.18 42.44 27.82 42.45 23.49 41.93 C 22.93 44.25 21.57 46.63 19.02 47.08 C 17.30 47.49 14.13 47.59 14.18 45.09 C 14.45 41.57 15.69 38.20 16.65 34.83 M 26.09 37.19 C 26.66 37.23 27.79 37.31 28.35 37.35 C 28.33 37.78 28.30 38.64 28.28 39.07 C 29.13 39.07 30.84 39.07 31.69 39.07 C 31.70 38.62 31.70 37.73 31.70 37.28 C 32.26 37.26 33.36 37.24 33.91 37.22 C 32.60 35.89 31.29 34.54 30.00 33.19 C 28.72 34.55 27.41 35.87 26.09 37.19 Z" />
</g>
<g id="#000000ff">
<path fill="#968176" opacity="1.00" d=" M 10.61 9.51 C 11.98 7.96 14.13 8.20 15.99 8.13 C 26.57 8.06 37.18 7.74 47.73 8.39 C 49.83 9.55 51.45 11.41 52.97 13.22 C 55.64 16.26 53.30 22.11 49.08 22.00 C 46.77 21.96 45.32 20.03 44.38 18.15 C 43.74 20.13 42.20 21.93 39.97 21.99 C 37.45 22.25 35.54 20.17 34.95 17.91 C 34.27 20.49 31.71 22.60 28.94 21.89 C 26.97 21.54 25.82 19.83 25.05 18.15 C 24.33 19.62 23.54 21.30 21.79 21.75 C 19.09 22.77 16.29 20.78 15.61 18.15 C 14.75 19.69 13.78 21.43 11.90 21.82 C 9.01 22.73 6.02 19.97 6.00 17.11 C 5.38 13.75 8.54 11.58 10.61 9.51 Z" />
<path fill="#968176" opacity="1.00" d=" M 9.91 26.24 C 12.04 26.02 13.92 25.09 15.38 23.54 C 17.66 26.84 22.64 26.75 24.96 23.53 C 27.39 26.84 32.52 26.85 34.94 23.53 C 37.26 26.73 42.26 26.88 44.52 23.53 C 46.00 25.07 47.86 26.05 50.00 26.22 C 50.50 31.46 50.41 36.73 50.26 41.98 C 50.08 44.85 49.99 47.90 48.51 50.46 C 42.50 52.05 36.16 51.82 29.98 51.99 C 23.82 51.83 17.52 52.03 11.51 50.49 C 10.13 48.25 9.98 45.52 9.78 42.97 C 9.54 37.39 9.54 31.81 9.91 26.24 M 16.65 34.83 C 15.69 38.20 14.45 41.57 14.18 45.09 C 14.13 47.59 17.30 47.49 19.02 47.08 C 21.57 46.63 22.93 44.25 23.49 41.93 C 27.82 42.45 32.18 42.44 36.51 41.93 C 37.07 44.25 38.44 46.64 41.00 47.09 C 42.72 47.50 45.91 47.57 45.81 45.05 C 45.21 40.56 44.04 36.01 42.06 31.93 C 40.46 28.62 36.07 28.66 33.61 30.92 C 31.20 30.89 28.80 30.89 26.40 30.91 C 25.04 30.14 23.68 29.04 22.00 29.29 C 19.03 29.27 17.43 32.37 16.65 34.83 Z" />
<path fill="#968176" opacity="1.00" d=" M 26.09 37.19 C 27.41 35.87 28.72 34.55 30.00 33.19 C 31.29 34.54 32.60 35.89 33.91 37.22 C 33.36 37.24 32.26 37.26 31.70 37.28 C 31.70 37.73 31.70 38.62 31.69 39.07 C 30.84 39.07 29.13 39.07 28.28 39.07 C 28.30 38.64 28.33 37.78 28.35 37.35 C 27.79 37.31 26.66 37.23 26.09 37.19 Z" />
</g>
</svg>
