<?xml version="1.0" encoding="UTF-8" ?>
<!DOCTYPE svg PUBLIC "-//W3C//DTD SVG 1.1//EN" "http://www.w3.org/Graphics/SVG/1.1/DTD/svg11.dtd">
<svg width="60pt" height="60pt" viewBox="0 0 60 60" version="1.1" xmlns="http://www.w3.org/2000/svg">
<g id="#ffffffff">
<path fill="#ffffff" opacity="1.00" d=" M 0.00 0.00 L 60.00 0.00 L 60.00 60.00 L 0.00 60.00 L 0.00 0.00 M 17.15 6.17 C 15.83 6.97 16.21 8.80 15.71 10.06 C 14.49 13.69 11.14 16.30 10.09 19.99 C 9.93 30.00 9.96 40.02 10.07 50.02 C 9.92 51.58 11.66 52.17 12.92 51.99 C 24.32 52.01 35.73 52.02 47.13 51.98 C 48.38 52.16 50.09 51.55 49.93 50.02 C 50.12 40.66 49.93 31.29 50.02 21.94 C 50.34 16.82 44.85 13.86 44.07 9.06 C 43.81 7.94 43.77 5.85 42.05 6.08 C 33.76 6.00 25.44 5.82 17.15 6.17 Z" />
<path fill="#ffffff" opacity="1.00" d=" M 19.44 12.06 C 26.29 11.94 33.14 12.02 39.99 12.01 C 38.66 14.01 37.32 16.01 35.99 18.01 C 29.22 17.99 22.45 18.01 15.68 18.00 C 16.96 16.03 18.22 14.06 19.44 12.06 Z" />
<path fill="#ffffff" opacity="1.00" d=" M 14.00 22.00 C 21.33 22.00 28.67 22.00 36.00 22.00 C 36.00 30.67 36.00 39.33 36.00 48.00 C 28.67 48.00 21.33 48.00 14.00 48.00 C 14.00 39.33 14.00 30.67 14.00 22.00 M 17.18 30.19 C 14.76 31.07 16.52 35.01 18.76 33.81 C 21.29 33.00 19.47 28.93 17.18 30.19 M 31.26 30.18 C 28.72 30.91 30.51 35.11 32.77 33.79 C 35.26 33.02 33.49 28.98 31.26 30.18 M 20.70 36.04 C 21.39 37.94 22.69 40.14 25.03 39.99 C 27.36 40.11 28.54 37.87 29.31 36.05 C 26.44 35.98 23.57 35.98 20.70 36.04 Z" />
</g>
<g id="#000000ff">
<path fill="#968176" opacity="1.00" d=" M 17.15 6.17 C 25.44 5.82 33.76 6.00 42.05 6.08 C 43.77 5.85 43.81 7.94 44.07 9.06 C 44.85 13.86 50.34 16.82 50.02 21.94 C 49.93 31.29 50.12 40.66 49.93 50.02 C 50.09 51.55 48.38 52.16 47.13 51.98 C 35.73 52.02 24.32 52.01 12.92 51.99 C 11.66 52.17 9.92 51.58 10.07 50.02 C 9.96 40.02 9.93 30.00 10.09 19.99 C 11.14 16.30 14.49 13.69 15.71 10.06 C 16.21 8.80 15.83 6.97 17.15 6.17 M 19.44 12.06 C 18.22 14.06 16.96 16.03 15.68 18.00 C 22.45 18.01 29.22 17.99 35.99 18.01 C 37.32 16.01 38.66 14.01 39.99 12.01 C 33.14 12.02 26.29 11.94 19.44 12.06 M 14.00 22.00 C 14.00 30.67 14.00 39.33 14.00 48.00 C 21.33 48.00 28.67 48.00 36.00 48.00 C 36.00 39.33 36.00 30.67 36.00 22.00 C 28.67 22.00 21.33 22.00 14.00 22.00 Z" />
<path fill="#968176" opacity="1.00" d=" M 17.18 30.19 C 19.47 28.93 21.29 33.00 18.76 33.81 C 16.52 35.01 14.76 31.07 17.18 30.19 Z" />
<path fill="#968176" opacity="1.00" d=" M 31.26 30.18 C 33.49 28.98 35.26 33.02 32.77 33.79 C 30.51 35.11 28.72 30.91 31.26 30.18 Z" />
<path fill="#968176" opacity="1.00" d=" M 20.70 36.04 C 23.57 35.98 26.44 35.98 29.31 36.05 C 28.54 37.87 27.36 40.11 25.03 39.99 C 22.69 40.14 21.39 37.94 20.70 36.04 Z" />
</g>
</svg>
