<?xml version="1.0" encoding="UTF-8" ?>
<!DOCTYPE svg PUBLIC "-//W3C//DTD SVG 1.1//EN" "http://www.w3.org/Graphics/SVG/1.1/DTD/svg11.dtd">
<svg width="60pt" height="60pt" viewBox="0 0 60 60" version="1.1" xmlns="http://www.w3.org/2000/svg">
<g id="#ffffffff">
<path fill="#ffffff" opacity="1.00" d=" M 0.00 0.00 L 60.00 0.00 L 60.00 60.00 L 0.00 60.00 L 0.00 0.00 M 38.64 4.65 C 36.54 7.74 35.14 11.25 33.30 14.50 C 30.18 13.55 26.93 14.17 24.33 16.10 C 20.35 15.31 16.70 17.27 14.50 20.51 C 11.46 22.63 9.37 26.01 10.10 29.85 C 8.54 30.07 6.16 29.82 5.91 31.95 C 6.56 33.42 8.16 34.40 8.19 36.14 C 8.79 41.81 12.86 46.49 17.88 48.90 C 18.10 50.07 18.23 52.04 19.91 51.91 C 26.62 52.07 33.34 52.07 40.05 51.91 C 41.76 52.06 41.92 50.09 42.10 48.89 C 47.82 46.29 51.73 40.63 52.11 34.35 C 53.19 33.54 54.40 32.63 53.90 31.08 C 52.94 29.83 51.27 30.11 49.90 29.85 C 50.26 27.04 49.35 24.38 47.77 22.09 C 46.83 23.07 45.90 24.06 45.00 25.06 C 45.73 26.56 45.95 28.20 45.96 29.85 C 35.35 30.12 24.72 30.05 14.11 29.89 C 14.23 28.38 13.71 26.37 15.21 25.37 C 17.03 24.17 18.38 22.50 19.73 20.82 C 21.36 19.28 23.60 20.74 25.50 20.61 C 26.73 19.81 27.74 18.66 29.12 18.09 C 31.35 17.45 32.81 19.56 34.48 20.57 C 35.95 20.88 37.39 20.11 38.82 19.87 C 37.77 21.40 35.74 22.76 36.06 24.84 C 36.81 26.44 38.98 26.29 39.84 24.89 C 44.38 19.76 48.93 14.63 53.36 9.41 C 54.99 7.95 53.23 5.19 51.21 6.13 C 47.78 9.41 44.92 13.25 41.70 16.74 C 40.17 16.40 38.62 16.10 37.07 15.82 C 38.74 12.57 40.77 9.46 42.00 6.00 C 42.10 4.30 39.62 3.20 38.64 4.65 Z" />
<path fill="#ffffff" opacity="1.00" d=" M 19.18 36.09 C 21.57 35.18 23.11 38.70 20.87 39.89 C 18.45 40.89 16.83 37.24 19.18 36.09 Z" />
<path fill="#ffffff" opacity="1.00" d=" M 39.20 36.09 C 41.61 35.16 43.10 38.77 40.85 39.88 C 38.40 40.88 36.83 37.17 39.20 36.09 Z" />
<path fill="#ffffff" opacity="1.00" d=" M 25.70 40.05 C 28.57 39.98 31.44 39.98 34.31 40.05 C 33.55 41.88 32.34 44.13 30.02 43.99 C 27.69 44.14 26.39 41.94 25.70 40.05 Z" />
</g>
<g id="#000000ff">
<path fill="#968176" opacity="1.00" d=" M 38.64 4.65 C 39.62 3.20 42.10 4.30 42.00 6.00 C 40.77 9.46 38.74 12.57 37.07 15.82 C 38.62 16.10 40.17 16.40 41.70 16.74 C 44.92 13.25 47.78 9.41 51.21 6.13 C 53.23 5.19 54.99 7.95 53.36 9.41 C 48.93 14.63 44.38 19.76 39.84 24.89 C 38.98 26.29 36.81 26.44 36.06 24.84 C 35.74 22.76 37.77 21.40 38.82 19.87 C 37.39 20.11 35.95 20.88 34.48 20.57 C 32.81 19.56 31.35 17.45 29.12 18.09 C 27.74 18.66 26.73 19.81 25.50 20.61 C 23.60 20.74 21.36 19.28 19.73 20.82 C 18.38 22.50 17.03 24.17 15.21 25.37 C 13.71 26.37 14.23 28.38 14.11 29.89 C 24.72 30.05 35.35 30.12 45.96 29.85 C 45.95 28.20 45.73 26.56 45.00 25.06 C 45.90 24.06 46.83 23.07 47.77 22.09 C 49.35 24.38 50.26 27.04 49.90 29.85 C 51.27 30.11 52.94 29.83 53.90 31.08 C 54.40 32.63 53.19 33.54 52.11 34.35 C 51.73 40.63 47.82 46.29 42.10 48.89 C 41.92 50.09 41.76 52.06 40.05 51.91 C 33.34 52.07 26.62 52.07 19.91 51.91 C 18.23 52.04 18.10 50.07 17.88 48.90 C 12.86 46.49 8.79 41.81 8.19 36.14 C 8.16 34.40 6.56 33.42 5.91 31.95 C 6.16 29.82 8.54 30.07 10.10 29.85 C 9.37 26.01 11.46 22.63 14.50 20.51 C 16.70 17.27 20.35 15.31 24.33 16.10 C 26.93 14.17 30.18 13.55 33.30 14.50 C 35.14 11.25 36.54 7.74 38.64 4.65 M 19.18 36.09 C 16.83 37.24 18.45 40.89 20.87 39.89 C 23.11 38.70 21.57 35.18 19.18 36.09 M 39.20 36.09 C 36.83 37.17 38.40 40.88 40.85 39.88 C 43.10 38.77 41.61 35.16 39.20 36.09 M 25.70 40.05 C 26.39 41.94 27.69 44.14 30.02 43.99 C 32.34 44.13 33.55 41.88 34.31 40.05 C 31.44 39.98 28.57 39.98 25.70 40.05 Z" />
</g>
</svg>
