<?xml version="1.0" encoding="UTF-8" ?>
<!DOCTYPE svg PUBLIC "-//W3C//DTD SVG 1.1//EN" "http://www.w3.org/Graphics/SVG/1.1/DTD/svg11.dtd">
<svg width="60pt" height="60pt" viewBox="0 0 60 60" version="1.1" xmlns="http://www.w3.org/2000/svg">
<g id="#ffffffff">
<path fill="#ffffff" opacity="1.00" d=" M 0.00 0.00 L 17.77 0.00 C 15.23 0.81 13.70 3.27 14.00 5.91 C 14.04 19.63 13.91 33.37 14.06 47.09 C 13.74 51.73 20.50 53.88 23.00 50.03 C 24.83 46.74 23.74 42.69 23.98 39.08 C 25.33 37.75 26.67 36.42 28.00 35.07 C 31.12 40.02 33.87 45.22 37.14 50.07 C 38.90 52.67 43.14 52.56 44.93 50.06 C 46.39 48.32 46.21 45.81 45.01 43.98 C 41.83 38.55 38.51 33.20 35.30 27.78 C 38.03 24.79 41.41 22.33 43.62 18.90 C 45.72 14.76 40.29 9.99 36.50 12.71 C 32.05 16.46 28.23 20.91 24.00 24.92 C 23.93 18.25 24.13 11.57 23.94 4.91 C 24.09 2.59 22.32 0.94 20.42 0.00 L 60.00 0.00 L 60.00 60.00 L 0.00 60.00 L 0.00 0.00 M 51.53 29.65 C 48.22 31.34 48.21 36.60 51.50 38.32 C 54.61 40.36 59.12 37.68 59.01 34.02 C 59.16 30.36 54.67 27.65 51.53 29.65 Z" />
</g>
<g id="#000000ff">
<path fill="#968176" opacity="1.00" d=" M 17.77 0.00 L 20.42 0.00 C 22.32 0.94 24.09 2.59 23.94 4.91 C 24.13 11.57 23.93 18.25 24.00 24.92 C 28.23 20.91 32.05 16.46 36.50 12.71 C 40.29 9.99 45.72 14.76 43.62 18.90 C 41.41 22.33 38.03 24.79 35.30 27.78 C 38.51 33.20 41.83 38.55 45.01 43.98 C 46.21 45.81 46.39 48.32 44.93 50.06 C 43.14 52.56 38.90 52.67 37.14 50.07 C 33.87 45.22 31.12 40.02 28.00 35.07 C 26.67 36.42 25.33 37.75 23.98 39.08 C 23.74 42.69 24.83 46.74 23.00 50.03 C 20.50 53.88 13.74 51.73 14.06 47.09 C 13.91 33.37 14.04 19.63 14.00 5.91 C 13.70 3.27 15.23 0.81 17.77 0.00 Z" />
<path fill="#968176" opacity="1.00" d=" M 51.53 29.65 C 54.67 27.65 59.16 30.36 59.01 34.02 C 59.12 37.68 54.61 40.36 51.50 38.32 C 48.21 36.60 48.22 31.34 51.53 29.65 Z" />
</g>
</svg>
