<?xml version="1.0" encoding="UTF-8" ?>
<!DOCTYPE svg PUBLIC "-//W3C//DTD SVG 1.1//EN" "http://www.w3.org/Graphics/SVG/1.1/DTD/svg11.dtd">
<svg width="60pt" height="60pt" viewBox="0 0 60 60" version="1.1" xmlns="http://www.w3.org/2000/svg">
<g id="#ffffffff">
<path fill="#ffffff" opacity="1.00" d=" M 0.00 0.00 L 60.00 0.00 L 60.00 60.00 L 0.00 60.00 L 0.00 0.00 M 24.46 6.65 C 17.82 8.21 11.95 12.75 8.79 18.79 C 5.08 25.66 5.10 34.36 8.80 41.23 C 12.34 47.98 19.27 52.83 26.84 53.77 C 33.87 54.74 41.30 52.39 46.42 47.47 C 51.74 42.54 54.58 35.10 53.89 27.89 C 53.34 21.12 49.71 14.69 44.24 10.68 C 38.66 6.52 31.22 5.03 24.46 6.65 Z" />
<path fill="#ffffff" opacity="1.00" d=" M 27.52 16.39 C 32.38 14.74 38.11 17.87 38.75 23.11 C 37.79 23.11 35.86 23.11 34.90 23.10 C 33.92 20.09 30.09 18.22 27.46 20.53 C 24.72 23.35 24.72 28.73 27.53 31.51 C 30.08 33.66 33.88 32.04 34.89 29.09 C 35.86 29.09 37.79 29.10 38.76 29.10 C 37.92 36.41 27.33 38.39 23.31 32.66 C 19.86 27.56 20.87 18.32 27.52 16.39 Z" />
<path fill="#ffffff" opacity="1.00" d=" M 20.00 40.00 C 26.67 40.00 33.33 40.00 40.00 40.00 C 40.00 41.33 40.00 42.67 40.00 44.00 C 33.33 44.00 26.67 44.00 20.00 44.00 C 20.00 42.67 20.00 41.33 20.00 40.00 Z" />
</g>
<g id="#000000ff">
<path fill="#968176" opacity="1.00" d=" M 24.46 6.65 C 31.22 5.03 38.66 6.52 44.24 10.68 C 49.71 14.69 53.34 21.12 53.89 27.89 C 54.58 35.10 51.74 42.54 46.42 47.47 C 41.30 52.39 33.87 54.74 26.84 53.77 C 19.27 52.83 12.34 47.98 8.80 41.23 C 5.10 34.36 5.08 25.66 8.79 18.79 C 11.95 12.75 17.82 8.21 24.46 6.65 M 27.52 16.39 C 20.87 18.32 19.86 27.56 23.31 32.66 C 27.33 38.39 37.92 36.41 38.76 29.10 C 37.79 29.10 35.86 29.09 34.89 29.09 C 33.88 32.04 30.08 33.66 27.53 31.51 C 24.72 28.73 24.72 23.35 27.46 20.53 C 30.09 18.22 33.92 20.09 34.90 23.10 C 35.86 23.11 37.79 23.11 38.75 23.11 C 38.11 17.87 32.38 14.74 27.52 16.39 M 20.00 40.00 C 20.00 41.33 20.00 42.67 20.00 44.00 C 26.67 44.00 33.33 44.00 40.00 44.00 C 40.00 42.67 40.00 41.33 40.00 40.00 C 33.33 40.00 26.67 40.00 20.00 40.00 Z" />
</g>
</svg>
