<?xml version="1.0" encoding="UTF-8" ?>
<!DOCTYPE svg PUBLIC "-//W3C//DTD SVG 1.1//EN" "http://www.w3.org/Graphics/SVG/1.1/DTD/svg11.dtd">
<svg width="300pt" height="300pt" viewBox="0 0 300 300" version="1.1" xmlns="http://www.w3.org/2000/svg">
<g id="#ffffffff">
<path fill="#ffffff" opacity="1.00" d=" M 0.00 0.00 L 300.00 0.00 L 300.00 300.00 L 0.00 300.00 L 0.00 0.00 M 67.72 47.71 C 66.91 52.64 67.03 57.67 66.48 62.61 C 65.42 66.38 60.78 65.57 57.85 65.15 C 51.80 65.70 45.75 68.15 41.19 72.19 C 35.71 78.38 28.84 83.69 25.52 91.48 C 24.57 94.39 21.65 95.76 19.08 96.96 C 16.62 96.94 14.18 96.55 11.73 96.30 C 11.72 99.25 11.87 102.21 11.67 105.16 C 11.11 107.07 9.88 108.69 9.13 110.53 C 9.54 116.26 13.28 121.21 12.35 127.11 C 15.68 126.59 19.52 126.86 22.19 124.43 C 25.72 124.64 29.43 125.15 32.82 123.84 C 35.67 122.84 38.76 123.73 41.72 123.50 C 42.37 124.05 43.03 124.60 43.68 125.15 C 46.24 125.12 48.77 125.54 51.16 126.46 C 51.75 126.34 52.95 126.10 53.54 125.98 C 55.13 128.63 57.96 129.99 59.99 132.20 C 62.01 134.11 64.26 135.87 66.97 136.67 C 67.07 137.12 67.26 138.04 67.36 138.50 C 67.61 138.45 68.10 138.33 68.34 138.28 C 69.54 138.57 70.76 138.79 71.98 138.93 C 73.67 139.84 75.15 141.07 75.87 142.92 C 78.27 143.74 80.69 144.49 83.12 145.22 C 83.36 142.92 83.51 140.61 83.20 138.31 C 83.58 134.82 83.29 131.30 83.08 127.82 C 83.35 127.34 83.89 126.40 84.16 125.92 C 87.89 126.11 91.53 127.15 94.41 129.61 C 96.94 131.94 100.23 133.05 103.10 134.87 C 104.73 133.33 106.15 131.58 106.90 129.45 C 108.35 130.46 109.80 131.50 111.38 132.31 C 112.62 131.04 113.86 129.76 115.12 128.49 C 116.75 129.64 118.36 130.84 120.24 131.56 C 120.93 134.07 123.38 135.26 125.10 136.98 C 127.34 138.99 129.07 141.53 131.45 143.38 C 134.22 145.06 137.11 146.52 140.00 147.95 C 139.34 145.97 138.54 144.05 138.00 142.03 C 140.40 141.98 141.46 144.01 142.46 145.83 C 144.10 146.37 145.74 146.89 147.39 147.40 C 147.54 148.55 147.69 149.71 147.85 150.86 C 150.66 152.05 153.72 152.84 156.23 154.62 C 160.08 158.22 165.19 160.05 168.94 163.78 C 169.45 161.70 170.19 159.69 171.33 157.87 C 171.79 159.58 172.35 161.26 173.02 162.91 C 172.82 163.23 172.43 163.86 172.24 164.18 C 174.72 164.87 176.91 166.19 178.65 168.10 C 179.95 168.93 181.23 169.79 182.47 170.71 C 181.45 172.10 180.52 173.57 180.03 175.24 C 181.65 176.82 183.29 178.37 184.96 179.91 C 184.07 180.55 183.20 181.22 182.34 181.89 C 182.98 182.23 184.25 182.90 184.89 183.23 C 185.54 185.23 186.20 187.22 186.85 189.22 C 188.01 189.98 189.17 190.73 190.34 191.47 C 189.53 192.41 188.73 193.35 187.94 194.30 C 189.04 195.90 188.97 197.83 188.96 199.69 C 187.38 199.88 185.80 200.10 184.24 200.36 C 184.84 202.48 185.69 204.64 185.13 206.89 C 184.23 206.68 182.42 206.28 181.52 206.08 C 180.55 207.55 179.49 209.04 177.54 209.14 C 177.50 209.88 177.47 210.62 177.45 211.36 C 179.35 212.97 178.39 214.94 177.24 216.62 C 174.75 217.27 172.71 218.82 170.72 220.36 C 170.74 221.33 170.77 222.31 170.83 223.29 C 169.13 222.52 167.89 223.80 166.68 224.78 C 167.91 225.13 169.16 225.40 170.42 225.61 C 171.49 226.97 173.05 227.71 174.61 228.38 C 175.29 229.36 175.97 230.35 176.66 231.33 C 175.87 231.82 175.09 232.32 174.31 232.81 C 172.86 233.60 172.18 235.09 171.47 236.50 C 169.91 235.95 168.48 236.60 167.08 237.22 C 164.07 234.10 159.40 233.79 155.55 232.18 C 154.50 231.79 153.48 231.07 152.31 231.22 C 151.28 232.27 150.81 233.70 150.16 235.00 C 151.89 237.50 153.05 240.70 155.96 242.10 C 157.85 242.61 157.85 244.32 157.58 245.93 C 159.66 245.97 161.74 245.75 163.83 245.66 C 165.83 245.95 164.90 248.62 165.77 249.92 C 167.32 249.47 168.31 248.26 169.01 246.88 C 169.65 248.32 170.30 249.76 170.95 251.21 C 170.17 252.38 169.37 253.54 168.48 254.63 C 168.67 255.49 169.05 257.20 169.24 258.05 C 171.15 256.56 173.30 255.19 175.79 255.07 C 175.75 253.93 175.73 252.80 175.71 251.68 C 176.42 251.69 177.86 251.72 178.57 251.74 C 179.12 251.31 180.21 250.45 180.76 250.02 C 180.03 248.91 179.25 247.86 178.34 246.91 C 177.93 245.71 177.51 244.53 177.05 243.36 C 176.47 242.20 175.89 241.04 175.31 239.88 C 176.23 239.75 178.07 239.50 178.99 239.37 C 179.18 238.82 179.56 237.72 179.75 237.17 C 180.87 237.26 182.00 237.34 183.12 237.41 C 183.21 235.84 184.25 234.72 185.22 233.61 C 186.32 233.37 187.42 233.10 188.53 232.84 C 189.07 234.63 190.82 235.15 192.25 236.02 C 192.36 238.49 192.46 240.97 192.69 243.44 C 194.16 243.86 195.63 244.28 197.11 244.69 C 197.54 244.30 198.39 243.52 198.82 243.13 C 198.78 243.71 198.71 244.85 198.67 245.42 C 201.90 246.05 205.15 246.57 208.43 245.89 C 208.85 246.19 209.68 246.77 210.10 247.07 C 210.36 248.64 210.52 250.27 211.24 251.72 C 212.09 253.31 214.13 253.20 215.60 253.84 C 214.96 253.92 213.67 254.08 213.02 254.16 C 213.43 255.76 213.75 257.38 214.16 258.99 C 215.17 260.79 213.35 261.57 212.09 262.44 C 214.99 264.74 218.39 267.15 222.16 267.50 C 222.49 267.68 223.14 268.03 223.47 268.21 C 226.97 268.80 230.06 267.30 233.03 265.68 C 232.55 264.38 232.09 263.08 231.65 261.78 C 234.25 262.17 236.97 262.78 239.49 261.63 C 242.15 261.01 241.21 257.66 241.62 255.68 C 239.76 255.17 238.40 253.88 237.25 252.40 C 237.78 252.35 238.84 252.27 239.37 252.23 C 240.06 250.26 240.98 246.32 243.84 247.80 C 245.90 248.98 247.88 247.42 249.92 247.04 C 250.45 247.82 251.51 249.36 252.04 250.13 C 254.04 247.20 250.52 245.07 250.73 242.14 L 249.90 241.76 C 250.38 240.27 250.88 238.79 251.38 237.31 C 251.85 236.97 252.79 236.30 253.26 235.97 C 252.59 234.87 251.90 233.79 251.21 232.70 C 252.03 233.03 253.67 233.67 254.49 233.99 C 254.69 233.43 255.09 232.31 255.29 231.74 C 253.33 229.40 250.88 227.63 247.71 227.55 C 248.59 226.96 249.49 226.38 250.39 225.80 C 251.05 224.52 252.11 223.44 252.54 222.06 C 252.16 220.04 251.28 218.05 251.88 215.98 C 255.05 216.09 258.44 215.47 261.35 217.08 C 262.06 218.08 262.85 219.03 263.68 219.94 C 265.96 219.67 268.29 219.82 270.56 219.43 C 272.23 219.30 273.90 219.12 275.57 218.93 C 274.61 216.85 273.35 214.93 272.04 213.06 C 273.30 210.86 275.32 212.10 277.13 212.70 C 278.87 212.16 280.64 211.65 282.49 211.80 C 283.89 211.75 285.29 211.75 286.70 211.81 C 287.21 211.49 288.24 210.85 288.75 210.52 C 288.75 209.00 288.75 207.48 288.76 205.97 C 288.41 205.62 287.72 204.94 287.37 204.60 C 287.14 202.64 286.98 200.68 286.79 198.73 C 287.79 198.24 288.81 197.76 289.84 197.29 C 291.12 194.27 288.99 191.21 290.35 188.24 C 288.82 187.40 287.24 186.65 285.47 186.55 C 284.31 185.20 282.79 184.30 281.29 183.39 C 280.98 183.75 280.37 184.48 280.06 184.85 C 278.18 183.37 277.07 181.13 275.22 179.67 C 271.97 178.68 268.84 177.32 265.51 176.63 C 265.37 175.30 265.22 173.98 265.09 172.66 C 262.73 171.77 260.20 172.26 257.75 172.27 C 257.41 172.07 256.72 171.68 256.38 171.48 C 256.27 171.89 256.06 172.72 255.95 173.13 C 255.36 172.82 254.20 172.19 253.61 171.88 C 254.18 173.57 254.01 175.09 253.11 176.44 C 254.00 177.65 254.00 179.17 254.23 180.61 C 253.70 180.56 252.65 180.46 252.13 180.41 C 251.25 181.91 250.42 183.44 249.51 184.91 C 250.30 185.27 251.08 185.67 251.89 186.04 C 251.68 187.51 251.46 188.98 251.23 190.46 C 253.43 190.53 255.50 191.31 257.62 191.80 C 258.26 193.17 260.17 194.39 259.36 196.10 C 258.88 197.68 257.95 199.26 258.76 200.94 C 257.78 201.82 256.79 202.70 255.74 203.50 C 254.46 203.31 253.39 202.38 252.15 202.06 C 248.82 203.32 251.78 207.69 251.50 210.34 C 250.66 211.21 249.82 212.09 248.98 212.96 C 248.04 211.46 247.03 210.01 246.14 208.48 C 245.64 208.94 244.63 209.85 244.13 210.31 C 243.94 209.45 243.58 207.74 243.39 206.88 C 242.13 206.72 240.85 206.56 239.59 206.48 C 238.63 205.00 237.22 203.61 237.59 201.66 C 236.98 201.97 235.78 202.59 235.18 202.90 C 234.45 202.59 233.72 202.29 232.99 201.99 C 232.08 200.34 231.19 198.67 230.41 196.96 C 230.87 196.41 231.78 195.31 232.24 194.75 C 232.73 194.61 233.70 194.31 234.19 194.16 C 233.71 189.22 230.10 185.51 228.41 181.02 C 229.09 180.59 230.46 179.74 231.15 179.31 C 229.05 177.25 227.42 174.56 224.45 173.67 C 223.70 172.42 223.03 171.11 222.09 169.99 C 220.64 169.97 219.17 170.51 217.84 169.64 C 218.64 168.38 219.41 167.12 220.16 165.84 C 216.80 165.52 213.41 165.29 210.07 165.91 C 206.02 162.38 202.75 157.18 197.03 156.39 C 196.71 154.63 196.45 152.86 196.15 151.10 C 197.24 150.52 198.34 149.93 199.43 149.34 C 198.72 147.36 197.95 145.41 197.09 143.49 C 199.85 141.83 202.82 140.45 205.33 138.40 C 206.39 136.66 207.10 134.74 207.93 132.88 C 208.75 132.54 209.57 132.21 210.39 131.88 C 210.57 130.66 210.75 129.44 210.93 128.23 C 210.06 126.76 209.20 125.29 208.33 123.82 C 208.52 123.16 208.90 121.84 209.10 121.18 C 208.44 120.88 207.13 120.26 206.48 119.96 C 203.05 120.82 199.58 121.60 196.27 122.85 C 193.89 124.50 191.86 126.58 189.58 128.36 C 186.33 127.47 182.96 126.78 180.03 125.03 C 176.41 126.58 172.58 127.55 168.71 128.27 C 170.32 129.76 171.90 131.27 173.47 132.80 C 171.88 134.44 170.33 136.12 169.02 137.99 C 167.75 137.88 166.49 137.79 165.22 137.70 C 163.76 136.88 162.24 136.15 160.69 135.52 C 159.27 133.89 157.77 132.28 157.47 130.06 C 156.63 130.53 155.79 130.99 154.93 131.43 C 153.91 130.53 152.73 129.92 151.44 129.52 C 151.51 126.85 151.51 124.18 151.51 121.51 C 149.70 121.50 147.89 121.50 146.09 121.47 C 145.39 119.85 143.81 119.23 142.27 118.71 C 141.87 117.52 141.47 116.33 141.07 115.14 C 138.60 114.43 136.23 113.39 134.16 111.86 C 132.12 110.15 129.34 110.91 126.92 110.68 C 128.92 107.37 132.06 105.21 135.09 102.97 C 136.58 99.87 138.30 96.88 140.80 94.46 C 141.01 92.00 140.36 89.28 138.21 87.84 C 135.96 87.09 133.59 86.84 131.28 86.41 C 128.55 90.16 123.60 86.55 120.16 88.86 C 116.78 89.91 115.05 93.06 112.70 95.40 C 110.47 95.75 108.21 95.75 105.96 95.85 C 106.63 93.30 107.32 90.74 107.89 88.17 C 102.96 83.96 98.12 79.67 94.47 74.25 C 95.88 72.64 97.28 71.03 98.68 69.42 C 94.70 60.80 90.86 52.13 86.93 43.49 C 85.02 43.95 83.12 45.00 81.11 44.49 C 76.50 43.64 71.25 44.42 67.72 47.71 Z" />
<path fill="#ffffff" opacity="1.00" d=" M 241.21 208.04 C 244.27 206.54 241.22 211.34 241.21 208.04 Z" />
</g>
<g id="#000000ff">
<path fill="#968176" opacity="1.00" d=" M 67.72 47.71 C 71.25 44.42 76.50 43.64 81.11 44.49 C 83.12 45.00 85.02 43.95 86.93 43.49 C 90.86 52.13 94.70 60.80 98.68 69.42 C 97.28 71.03 95.88 72.64 94.47 74.25 C 98.12 79.67 102.96 83.96 107.89 88.17 C 107.32 90.74 106.63 93.30 105.96 95.85 C 108.21 95.75 110.47 95.75 112.70 95.40 C 115.05 93.06 116.78 89.91 120.16 88.86 C 123.60 86.55 128.55 90.16 131.28 86.41 C 133.59 86.84 135.96 87.09 138.21 87.84 C 140.36 89.28 141.01 92.00 140.80 94.46 C 138.30 96.88 136.58 99.87 135.09 102.97 C 132.06 105.21 128.92 107.37 126.92 110.68 C 129.34 110.91 132.12 110.15 134.16 111.86 C 136.23 113.39 138.60 114.43 141.07 115.14 C 141.47 116.33 141.87 117.52 142.27 118.71 C 143.81 119.23 145.39 119.85 146.09 121.47 C 147.89 121.50 149.70 121.50 151.51 121.51 C 151.51 124.18 151.51 126.85 151.44 129.52 C 152.73 129.92 153.91 130.53 154.93 131.43 C 155.79 130.99 156.63 130.53 157.47 130.06 C 157.77 132.28 159.27 133.89 160.69 135.52 C 162.24 136.15 163.76 136.88 165.22 137.70 C 166.49 137.79 167.75 137.88 169.02 137.99 C 170.33 136.12 171.88 134.44 173.47 132.80 C 171.90 131.27 170.32 129.76 168.71 128.27 C 172.58 127.55 176.41 126.58 180.03 125.03 C 182.96 126.78 186.33 127.47 189.58 128.36 C 191.86 126.58 193.89 124.50 196.27 122.85 C 199.58 121.60 203.05 120.82 206.48 119.96 C 207.13 120.26 208.44 120.88 209.10 121.18 C 208.90 121.84 208.52 123.16 208.33 123.82 C 209.20 125.29 210.06 126.76 210.93 128.23 C 210.75 129.44 210.57 130.66 210.39 131.88 C 209.57 132.21 208.75 132.54 207.93 132.88 C 207.10 134.74 206.39 136.66 205.33 138.40 C 202.82 140.45 199.85 141.83 197.09 143.49 C 197.95 145.41 198.72 147.36 199.43 149.34 C 198.34 149.93 197.24 150.52 196.15 151.10 C 196.45 152.86 196.71 154.63 197.03 156.39 C 202.75 157.18 206.02 162.38 210.07 165.91 C 213.41 165.29 216.80 165.52 220.16 165.84 C 219.41 167.12 218.64 168.38 217.84 169.64 C 219.17 170.51 220.64 169.97 222.09 169.99 C 223.03 171.11 223.70 172.42 224.45 173.67 C 227.42 174.56 229.05 177.25 231.15 179.31 C 230.46 179.74 229.09 180.59 228.41 181.02 C 230.10 185.51 233.71 189.22 234.19 194.16 C 233.70 194.31 232.73 194.61 232.24 194.75 C 231.78 195.31 230.87 196.41 230.41 196.96 C 231.19 198.67 232.08 200.34 232.99 201.99 C 233.72 202.29 234.45 202.59 235.18 202.90 C 235.78 202.59 236.98 201.97 237.59 201.66 C 237.22 203.61 238.63 205.00 239.59 206.48 C 240.85 206.56 242.13 206.72 243.39 206.88 C 243.58 207.74 243.94 209.45 244.13 210.31 C 244.63 209.85 245.64 208.94 246.14 208.48 C 247.03 210.01 248.04 211.46 248.98 212.96 C 249.82 212.09 250.66 211.21 251.50 210.34 C 251.78 207.69 248.82 203.32 252.15 202.06 C 253.39 202.38 254.46 203.31 255.74 203.50 C 256.79 202.70 257.78 201.82 258.76 200.94 C 257.95 199.26 258.88 197.68 259.36 196.10 C 260.17 194.39 258.26 193.17 257.62 191.80 C 255.50 191.31 253.43 190.53 251.23 190.46 C 251.46 188.98 251.68 187.51 251.89 186.04 C 251.08 185.67 250.30 185.27 249.51 184.91 C 250.42 183.44 251.25 181.91 252.13 180.41 C 252.65 180.46 253.70 180.56 254.23 180.61 C 254.00 179.17 254.00 177.65 253.11 176.44 C 254.01 175.09 254.18 173.57 253.61 171.88 C 254.20 172.19 255.36 172.82 255.95 173.13 C 256.06 172.72 256.27 171.89 256.38 171.48 C 256.72 171.68 257.41 172.07 257.75 172.27 C 260.20 172.26 262.73 171.77 265.09 172.66 C 265.22 173.98 265.37 175.30 265.51 176.63 C 268.84 177.32 271.97 178.68 275.22 179.67 C 277.07 181.13 278.18 183.37 280.06 184.85 C 280.37 184.48 280.98 183.75 281.29 183.39 C 282.79 184.30 284.31 185.20 285.47 186.55 C 287.24 186.65 288.82 187.40 290.35 188.24 C 288.99 191.21 291.12 194.27 289.84 197.29 C 288.81 197.76 287.79 198.24 286.79 198.73 C 286.98 200.68 287.14 202.64 287.37 204.60 C 287.72 204.94 288.41 205.62 288.76 205.97 C 288.75 207.48 288.75 209.00 288.75 210.52 C 288.24 210.85 287.21 211.49 286.70 211.81 C 285.29 211.75 283.89 211.75 282.49 211.80 C 280.64 211.65 278.87 212.16 277.13 212.70 C 275.32 212.10 273.30 210.86 272.04 213.06 C 273.35 214.93 274.61 216.85 275.57 218.93 C 273.90 219.12 272.23 219.30 270.56 219.43 C 268.29 219.82 265.96 219.67 263.68 219.94 C 262.85 219.03 262.06 218.08 261.35 217.08 C 258.44 215.47 255.05 216.09 251.88 215.98 C 251.28 218.05 252.16 220.04 252.54 222.06 C 252.11 223.44 251.05 224.52 250.39 225.80 C 249.49 226.38 248.59 226.96 247.71 227.55 C 250.88 227.63 253.33 229.40 255.29 231.74 C 255.09 232.31 254.69 233.43 254.49 233.99 C 253.67 233.67 252.03 233.03 251.21 232.70 C 251.90 233.79 252.59 234.87 253.26 235.97 C 252.79 236.30 251.85 236.97 251.38 237.31 C 250.88 238.79 250.38 240.27 249.90 241.76 L 250.73 242.14 C 250.52 245.07 254.04 247.20 252.04 250.13 C 251.51 249.36 250.45 247.82 249.92 247.04 C 247.88 247.42 245.90 248.98 243.84 247.80 C 240.98 246.32 240.06 250.26 239.37 252.23 C 238.84 252.27 237.78 252.35 237.25 252.40 C 238.40 253.88 239.76 255.17 241.62 255.68 C 241.21 257.66 242.15 261.01 239.49 261.63 C 236.97 262.78 234.25 262.17 231.65 261.78 C 232.09 263.08 232.55 264.38 233.03 265.68 C 230.06 267.30 226.97 268.80 223.47 268.21 C 223.14 268.03 222.49 267.68 222.16 267.50 C 218.39 267.15 214.99 264.74 212.09 262.44 C 213.35 261.57 215.17 260.79 214.16 258.99 C 213.75 257.38 213.43 255.76 213.02 254.16 C 213.67 254.08 214.96 253.92 215.60 253.84 C 214.13 253.20 212.09 253.31 211.24 251.72 C 210.52 250.27 210.36 248.64 210.10 247.07 C 209.68 246.77 208.85 246.19 208.43 245.89 C 205.15 246.57 201.90 246.05 198.67 245.42 C 198.71 244.85 198.78 243.71 198.82 243.13 C 198.39 243.52 197.54 244.30 197.11 244.69 C 195.63 244.28 194.16 243.86 192.69 243.44 C 192.46 240.97 192.36 238.49 192.25 236.02 C 190.82 235.15 189.07 234.63 188.53 232.84 C 187.42 233.10 186.32 233.37 185.22 233.61 C 184.25 234.72 183.21 235.84 183.12 237.41 C 182.00 237.34 180.87 237.26 179.75 237.17 C 179.56 237.72 179.18 238.82 178.99 239.37 C 178.07 239.50 176.23 239.75 175.31 239.88 C 175.89 241.04 176.47 242.20 177.05 243.36 C 177.51 244.53 177.93 245.71 178.34 246.91 C 179.25 247.86 180.03 248.91 180.76 250.02 C 180.21 250.45 179.12 251.31 178.57 251.74 C 177.86 251.72 176.42 251.69 175.71 251.68 C 175.73 252.80 175.75 253.93 175.79 255.07 C 173.30 255.19 171.15 256.56 169.24 258.05 C 169.05 257.20 168.67 255.49 168.48 254.63 C 169.37 253.54 170.17 252.38 170.95 251.21 C 170.30 249.76 169.65 248.32 169.01 246.88 C 168.31 248.26 167.32 249.47 165.77 249.92 C 164.90 248.62 165.83 245.95 163.83 245.66 C 161.74 245.75 159.66 245.97 157.58 245.93 C 157.85 244.32 157.85 242.61 155.96 242.10 C 153.05 240.70 151.89 237.50 150.16 235.00 C 150.81 233.70 151.28 232.27 152.31 231.22 C 153.48 231.07 154.50 231.79 155.55 232.18 C 159.40 233.79 164.07 234.10 167.08 237.22 C 168.48 236.60 169.91 235.95 171.47 236.50 C 172.18 235.09 172.86 233.60 174.31 232.81 C 175.09 232.32 175.87 231.82 176.66 231.33 C 175.97 230.35 175.29 229.36 174.61 228.38 C 173.05 227.71 171.49 226.97 170.42 225.61 C 169.16 225.40 167.91 225.13 166.68 224.78 C 167.89 223.80 169.13 222.52 170.83 223.29 C 170.77 222.31 170.74 221.33 170.72 220.36 C 172.71 218.82 174.75 217.27 177.24 216.62 C 178.39 214.94 179.35 212.97 177.45 211.36 C 177.47 210.62 177.50 209.88 177.54 209.14 C 179.49 209.04 180.55 207.55 181.52 206.08 C 182.42 206.28 184.23 206.68 185.13 206.89 C 185.69 204.64 184.84 202.48 184.24 200.36 C 185.80 200.10 187.38 199.88 188.96 199.69 C 188.97 197.83 189.04 195.90 187.94 194.30 C 188.73 193.35 189.53 192.41 190.34 191.47 C 189.17 190.73 188.01 189.98 186.85 189.22 C 186.20 187.22 185.54 185.23 184.89 183.23 C 184.25 182.90 182.98 182.23 182.34 181.89 C 183.20 181.22 184.07 180.55 184.96 179.91 C 183.29 178.37 181.65 176.82 180.03 175.24 C 180.52 173.57 181.45 172.10 182.47 170.71 C 181.23 169.79 179.95 168.93 178.65 168.10 C 176.91 166.19 174.72 164.87 172.24 164.18 C 172.43 163.86 172.82 163.23 173.02 162.91 C 172.35 161.26 171.79 159.58 171.33 157.87 C 170.19 159.69 169.45 161.70 168.94 163.78 C 165.19 160.05 160.08 158.22 156.23 154.62 C 153.72 152.84 150.66 152.05 147.85 150.86 C 147.69 149.71 147.54 148.55 147.39 147.40 C 145.74 146.89 144.10 146.37 142.46 145.83 C 141.46 144.01 140.40 141.98 138.00 142.03 C 138.54 144.05 139.34 145.97 140.00 147.95 C 137.11 146.52 134.22 145.06 131.45 143.38 C 129.07 141.53 127.34 138.99 125.10 136.98 C 123.38 135.26 120.93 134.07 120.24 131.56 C 118.36 130.84 116.75 129.64 115.12 128.49 C 113.86 129.76 112.62 131.04 111.38 132.31 C 109.80 131.50 108.35 130.46 106.90 129.45 C 106.15 131.58 104.73 133.33 103.10 134.87 C 100.23 133.05 96.94 131.94 94.41 129.61 C 91.53 127.15 87.89 126.11 84.16 125.92 C 83.89 126.40 83.35 127.34 83.08 127.82 C 83.29 131.30 83.58 134.82 83.20 138.31 C 83.51 140.61 83.36 142.92 83.12 145.22 C 80.69 144.49 78.27 143.74 75.87 142.92 C 75.15 141.07 73.67 139.84 71.98 138.93 C 70.76 138.79 69.54 138.57 68.34 138.28 C 68.10 138.33 67.61 138.45 67.36 138.50 C 67.26 138.04 67.07 137.12 66.97 136.67 C 64.26 135.87 62.01 134.11 59.99 132.20 C 57.96 129.99 55.13 128.63 53.54 125.98 C 52.95 126.10 51.75 126.34 51.16 126.46 C 48.77 125.54 46.24 125.12 43.68 125.15 C 43.03 124.60 42.37 124.05 41.72 123.50 C 38.76 123.73 35.67 122.84 32.82 123.84 C 29.43 125.15 25.72 124.64 22.19 124.43 C 19.52 126.86 15.68 126.59 12.35 127.11 C 13.28 121.21 9.54 116.26 9.13 110.53 C 9.88 108.69 11.11 107.07 11.67 105.16 C 11.87 102.21 11.72 99.25 11.73 96.30 C 14.18 96.55 16.62 96.94 19.08 96.96 C 21.65 95.76 24.57 94.39 25.52 91.48 C 28.84 83.69 35.71 78.38 41.19 72.19 C 45.75 68.15 51.80 65.70 57.85 65.15 C 60.78 65.57 65.42 66.38 66.48 62.61 C 67.03 57.67 66.91 52.64 67.72 47.71 M 241.21 208.04 C 241.22 211.34 244.27 206.54 241.21 208.04 Z" />
</g>
</svg>
