<?xml version="1.0" encoding="UTF-8" ?>
<!DOCTYPE svg PUBLIC "-//W3C//DTD SVG 1.1//EN" "http://www.w3.org/Graphics/SVG/1.1/DTD/svg11.dtd">
<svg width="60pt" height="60pt" viewBox="0 0 60 60" version="1.1" xmlns="http://www.w3.org/2000/svg">
<g id="#ffffffff">
<path fill="#ffffff" opacity="1.00" d=" M 0.00 0.00 L 60.00 0.00 L 60.00 60.00 L 0.00 60.00 L 0.00 0.00 M 42.53 8.33 C 33.54 12.04 24.66 16.02 15.68 19.78 C 11.47 20.41 10.69 26.75 14.98 27.89 C 24.43 31.85 33.75 36.15 43.27 39.92 C 47.33 41.11 49.99 34.90 46.35 32.79 C 39.78 29.56 32.88 27.03 26.22 24.00 C 32.44 21.24 38.77 18.69 44.99 15.93 C 46.61 15.31 48.08 13.87 48.02 12.02 C 48.17 9.27 45.03 7.14 42.53 8.33 M 14.27 44.38 C 10.90 45.71 11.41 51.20 14.98 51.86 C 24.68 52.15 34.41 51.98 44.12 51.95 C 47.23 52.11 49.26 48.03 47.26 45.63 C 45.59 43.31 42.42 44.15 39.99 43.99 C 31.43 44.27 22.75 43.49 14.27 44.38 Z" />
</g>
<g id="#000000ff">
<path fill="#968176" opacity="1.00" d=" M 42.53 8.33 C 45.03 7.14 48.17 9.27 48.02 12.02 C 48.08 13.87 46.61 15.31 44.99 15.93 C 38.77 18.69 32.44 21.24 26.22 24.00 C 32.88 27.03 39.78 29.56 46.35 32.79 C 49.99 34.90 47.33 41.11 43.27 39.92 C 33.75 36.15 24.43 31.85 14.98 27.89 C 10.69 26.75 11.47 20.41 15.68 19.78 C 24.66 16.02 33.54 12.04 42.53 8.33 Z" />
<path fill="#968176" opacity="1.00" d=" M 14.27 44.38 C 22.75 43.49 31.43 44.27 39.99 43.99 C 42.42 44.15 45.59 43.31 47.26 45.63 C 49.26 48.03 47.23 52.11 44.12 51.95 C 34.41 51.98 24.68 52.15 14.98 51.86 C 11.41 51.20 10.90 45.71 14.27 44.38 Z" />
</g>
</svg>
