<?xml version="1.0" encoding="UTF-8" ?>
<!DOCTYPE svg PUBLIC "-//W3C//DTD SVG 1.1//EN" "http://www.w3.org/Graphics/SVG/1.1/DTD/svg11.dtd">
<svg width="60pt" height="60pt" viewBox="0 0 60 60" version="1.1" xmlns="http://www.w3.org/2000/svg">
<g id="#ffffffff">
<path fill="#ffffff" opacity="1.00" d=" M 0.00 0.00 L 60.00 0.00 L 60.00 60.00 L 0.00 60.00 L 0.00 0.00 M 21.76 6.75 C 19.98 14.47 18.23 22.19 16.41 29.89 C 16.13 31.23 15.54 33.10 17.17 33.84 C 21.10 34.21 25.06 33.90 29.00 34.00 C 28.08 40.66 26.82 47.28 26.09 53.95 C 25.71 56.05 29.14 56.83 29.76 54.79 C 34.45 46.41 38.92 37.89 43.46 29.42 C 44.30 28.38 44.09 26.80 42.86 26.17 C 38.92 25.77 34.95 26.10 31.00 26.00 C 33.18 19.80 35.43 13.64 37.60 7.44 C 38.15 6.33 38.12 4.79 36.86 4.16 C 32.60 3.83 28.30 3.98 24.02 4.06 C 22.41 3.79 22.07 5.62 21.76 6.75 Z" />
</g>
<g id="#000000ff">
<path fill="#968176" opacity="1.00" d=" M 21.76 6.75 C 22.07 5.62 22.41 3.79 24.02 4.06 C 28.30 3.98 32.60 3.83 36.86 4.16 C 38.12 4.79 38.15 6.33 37.60 7.44 C 35.43 13.64 33.18 19.80 31.00 26.00 C 34.95 26.10 38.92 25.77 42.86 26.17 C 44.09 26.80 44.30 28.38 43.46 29.42 C 38.92 37.89 34.45 46.41 29.76 54.79 C 29.14 56.83 25.71 56.05 26.09 53.95 C 26.82 47.28 28.08 40.66 29.00 34.00 C 25.06 33.90 21.10 34.21 17.17 33.84 C 15.54 33.10 16.13 31.23 16.41 29.89 C 18.23 22.19 19.98 14.47 21.76 6.75 Z" />
</g>
</svg>
