<?xml version="1.0" encoding="UTF-8" ?>
<!DOCTYPE svg PUBLIC "-//W3C//DTD SVG 1.1//EN" "http://www.w3.org/Graphics/SVG/1.1/DTD/svg11.dtd">
<svg width="60pt" height="60pt" viewBox="0 0 60 60" version="1.1" xmlns="http://www.w3.org/2000/svg">
<g id="#ffffffff">
<path fill="#ffffff" opacity="1.00" d=" M 0.00 0.00 L 60.00 0.00 L 60.00 60.00 L 0.00 60.00 L 0.00 0.00 M 20.38 18.60 C 15.42 19.90 10.63 21.71 5.86 23.56 C 4.48 24.20 2.65 24.62 2.19 26.30 C 1.37 28.42 3.30 30.07 4.57 31.46 C 11.50 38.55 20.83 44.39 31.08 43.96 C 40.55 43.55 48.97 38.07 55.41 31.46 C 56.51 30.18 58.19 28.90 57.96 27.00 C 57.79 24.81 55.49 24.09 53.79 23.38 C 48.31 21.36 42.85 19.11 37.07 18.12 C 34.50 17.48 32.30 19.18 29.99 19.94 C 26.99 18.46 23.70 17.30 20.38 18.60 Z" />
<path fill="#ffffff" opacity="1.00" d=" M 8.28 27.57 C 14.84 28.39 21.34 29.94 27.99 29.94 C 35.99 30.35 43.84 28.67 51.71 27.56 C 50.60 29.77 48.10 30.32 46.01 31.16 C 35.80 34.92 24.26 34.93 14.04 31.18 C 11.93 30.34 9.41 29.78 8.28 27.57 Z" />
</g>
<g id="#000000ff">
<path fill="#968176" opacity="1.00" d=" M 20.38 18.60 C 23.70 17.30 26.99 18.46 29.99 19.94 C 32.30 19.18 34.50 17.48 37.07 18.12 C 42.85 19.11 48.31 21.36 53.79 23.38 C 55.49 24.09 57.79 24.81 57.96 27.00 C 58.19 28.90 56.51 30.18 55.41 31.46 C 48.97 38.07 40.55 43.55 31.08 43.96 C 20.83 44.39 11.50 38.55 4.57 31.46 C 3.30 30.07 1.37 28.42 2.19 26.30 C 2.65 24.62 4.48 24.20 5.86 23.56 C 10.63 21.71 15.42 19.90 20.38 18.60 M 8.28 27.57 C 9.41 29.78 11.93 30.34 14.04 31.18 C 24.26 34.93 35.80 34.92 46.01 31.16 C 48.10 30.32 50.60 29.77 51.71 27.56 C 43.84 28.67 35.99 30.35 27.99 29.94 C 21.34 29.94 14.84 28.39 8.28 27.57 Z" />
</g>
</svg>
