<?xml version="1.0" encoding="UTF-8" ?>
<!DOCTYPE svg PUBLIC "-//W3C//DTD SVG 1.1//EN" "http://www.w3.org/Graphics/SVG/1.1/DTD/svg11.dtd">
<svg width="157pt" height="116pt" viewBox="0 0 157 116" version="1.1" xmlns="http://www.w3.org/2000/svg">
<g id="#fffffff">
<path fill="#ffffff" opacity="1.00" d=" M 0.00 0.00 L 157.00 0.00 L 157.00 116.00 L 0.00 116.00 L 0.00 0.00 M 48.44 21.01 C 48.26 24.69 52.10 26.07 54.80 27.40 C 55.98 27.44 58.34 27.54 59.53 27.59 C 58.50 26.09 57.30 24.68 56.57 23.00 C 56.90 21.79 57.29 20.59 57.73 19.40 C 59.21 19.29 60.68 19.30 62.15 19.44 C 64.37 20.97 65.80 23.32 67.48 25.38 C 69.68 18.54 62.00 13.56 55.98 14.47 C 52.55 14.97 48.31 16.93 48.44 21.01 M 73.45 25.27 C 75.19 23.29 76.64 20.97 78.84 19.45 C 80.32 19.30 81.79 19.29 83.28 19.41 C 83.71 20.62 84.09 21.83 84.42 23.07 C 83.64 24.75 82.38 26.14 81.23 27.58 C 82.92 27.51 84.61 27.44 86.31 27.37 C 88.43 26.16 91.22 25.39 92.22 22.91 C 93.40 19.86 91.43 16.38 88.38 15.46 C 81.96 12.01 71.17 17.07 73.45 25.27 M 32.64 18.61 C 32.62 20.22 32.57 21.82 32.49 23.43 C 37.27 23.48 42.05 23.67 46.83 23.83 C 46.76 22.09 46.71 20.35 46.66 18.60 C 41.99 18.65 37.31 18.65 32.64 18.61 M 94.33 18.60 C 94.28 20.35 94.23 22.09 94.17 23.83 C 98.94 23.67 103.72 23.48 108.50 23.43 C 108.42 21.82 108.37 20.22 108.36 18.61 C 103.68 18.65 99.01 18.65 94.33 18.60 M 17.14 25.04 C 15.93 27.88 16.63 31.89 19.63 33.29 C 21.48 33.93 23.26 32.76 24.96 32.21 C 23.79 29.99 21.03 27.48 22.79 24.83 C 25.36 23.42 28.34 23.15 31.11 22.32 C 30.82 21.12 30.67 19.85 30.08 18.75 C 27.67 18.14 25.18 18.31 22.73 18.40 C 20.53 20.28 18.02 22.16 17.14 25.04 M 110.86 18.75 C 110.38 19.90 110.15 21.12 109.88 22.32 C 112.63 23.15 115.60 23.41 118.15 24.81 C 120.02 27.42 117.16 30.02 116.04 32.23 C 117.69 32.73 119.34 33.82 121.15 33.41 C 124.24 32.12 125.10 28.06 123.88 25.17 C 123.05 22.22 120.49 20.29 118.27 18.40 C 115.79 18.31 113.28 18.15 110.86 18.75 M 25.19 34.24 C 24.68 34.32 23.64 34.48 23.12 34.55 L 23.48 35.99 C 32.50 43.83 41.91 51.24 51.04 58.97 C 53.29 60.75 55.34 62.87 57.98 64.09 C 58.16 63.51 58.52 62.36 58.70 61.79 C 48.65 52.99 38.26 44.54 28.14 35.80 C 27.21 35.25 26.43 33.94 25.19 34.24 M 113.96 34.94 C 103.75 43.45 93.67 52.15 83.45 60.65 C 81.88 61.75 81.98 62.86 83.73 63.99 C 91.38 57.94 98.76 51.53 106.34 45.39 C 110.41 41.81 114.92 38.73 118.57 34.70 C 117.08 34.79 115.17 33.54 113.96 34.94 M 69.59 42.30 C 68.96 44.40 68.40 46.52 67.96 48.67 C 69.23 48.66 71.77 48.66 73.04 48.66 C 72.59 46.51 72.02 44.39 71.38 42.28 C 70.94 42.29 70.04 42.30 69.59 42.30 M 57.15 45.38 C 54.69 46.59 58.52 48.53 59.58 46.89 C 60.47 45.44 58.11 44.89 57.15 45.38 M 82.07 45.35 C 79.59 46.53 83.37 48.55 84.47 46.92 C 85.35 45.50 83.03 44.92 82.07 45.35 M 58.80 53.64 C 59.54 52.02 60.29 50.41 61.00 48.78 C 58.25 48.75 55.50 48.76 52.75 48.85 C 53.72 51.57 56.13 52.97 58.80 53.64 M 70.99 57.59 C 75.25 57.57 80.64 52.69 77.63 48.39 C 73.32 51.21 67.65 51.18 63.34 48.39 C 60.21 53.06 66.42 58.18 70.99 57.59 M 79.98 48.78 C 80.70 50.41 81.45 52.03 82.20 53.65 C 84.94 53.06 87.23 51.50 88.27 48.85 C 85.51 48.76 82.75 48.76 79.98 48.78 M 16.75 53.40 C 16.45 53.81 15.86 54.63 15.56 55.04 C 16.02 55.55 16.49 56.07 16.94 56.60 C 18.34 56.62 19.73 56.63 21.12 56.63 C 21.31 59.80 22.06 62.89 22.45 66.04 C 22.38 68.55 21.31 71.83 24.12 73.31 C 27.52 73.95 30.92 73.07 34.07 71.85 C 41.21 72.64 48.43 72.27 55.60 72.52 C 55.64 71.57 55.71 69.67 55.74 68.73 C 48.15 68.59 40.55 68.57 32.96 68.26 C 30.56 67.83 27.28 67.45 26.36 64.76 C 24.90 60.87 23.16 57.10 21.18 53.45 C 19.70 53.42 18.23 53.40 16.75 53.40 M 119.84 53.39 C 117.83 57.06 116.10 60.86 114.62 64.77 C 113.70 67.47 110.41 67.83 108.02 68.25 C 100.44 68.57 92.85 68.59 85.26 68.72 C 85.30 69.99 85.34 71.25 85.38 72.52 C 92.90 72.56 100.43 71.99 107.94 72.37 C 111.39 72.92 117.00 75.42 118.78 70.96 C 118.08 66.15 119.40 61.49 119.87 56.72 C 122.32 56.67 125.45 57.14 125.08 53.61 C 123.34 53.48 121.59 53.41 119.84 53.39 M 60.73 53.90 C 61.10 57.88 63.92 61.10 67.17 63.17 C 70.25 64.36 74.13 63.91 76.30 61.15 C 78.80 65.01 78.55 69.68 78.31 74.07 C 76.55 77.63 76.07 81.48 77.75 85.18 C 86.06 79.40 85.64 65.61 77.31 60.05 C 78.78 58.35 79.90 56.39 80.95 54.41 C 80.54 54.47 79.70 54.58 79.28 54.64 C 76.70 58.12 72.16 60.31 67.85 59.00 C 64.85 58.33 62.91 55.83 60.73 53.90 M 63.24 85.17 C 64.81 81.53 64.56 77.72 62.71 74.24 C 62.60 71.50 62.37 68.71 62.95 65.99 C 63.15 64.30 64.12 62.33 62.27 61.01 C 55.37 67.21 55.40 79.72 63.24 85.17 M 64.84 64.29 C 64.17 68.69 64.24 73.19 65.42 77.50 C 66.92 76.75 68.35 75.79 70.00 75.38 C 72.11 75.09 73.73 76.75 75.44 77.68 C 76.75 73.33 76.85 68.76 76.16 64.29 C 72.52 65.91 68.47 65.91 64.84 64.29 M 15.09 75.71 C 16.48 77.83 18.35 79.71 21.03 79.90 C 22.74 81.67 24.48 83.42 26.29 85.09 C 26.41 85.64 26.64 86.73 26.76 87.28 C 28.07 87.76 29.37 88.25 30.69 88.68 C 31.80 88.08 32.91 87.51 34.04 86.97 C 40.84 83.37 48.33 81.27 55.61 78.92 C 55.67 77.63 55.70 76.35 55.73 75.07 C 51.73 76.21 47.84 77.69 43.92 79.06 C 42.94 79.45 41.97 79.84 41.00 80.25 C 36.85 82.14 32.22 81.73 27.79 81.57 C 25.03 80.25 22.30 78.45 20.77 75.71 C 18.96 74.55 16.79 73.94 15.09 75.71 M 118.62 77.93 C 117.24 78.99 115.87 80.07 114.60 81.26 C 110.86 81.77 106.99 81.96 103.26 81.35 C 97.25 79.28 91.38 76.82 85.26 75.07 C 85.29 76.03 85.34 77.93 85.37 78.89 C 90.84 80.42 96.10 82.57 101.49 84.36 C 105.14 85.52 108.20 88.55 112.18 88.54 C 113.61 87.81 114.20 86.19 115.06 84.93 C 116.73 83.18 118.44 81.45 120.07 79.66 C 120.74 79.59 122.09 79.46 122.76 79.39 C 123.84 78.19 124.87 76.96 125.86 75.69 C 123.33 73.01 120.05 75.44 118.62 77.93 M 65.10 86.28 C 68.53 87.91 72.47 87.90 75.90 86.28 C 75.63 82.92 74.96 77.97 70.97 77.23 C 66.32 76.95 65.30 82.73 65.10 86.28 M 44.99 90.99 C 36.70 94.49 27.69 90.33 19.17 91.80 C 19.52 93.32 20.10 94.82 22.02 94.50 C 26.52 94.05 30.95 94.88 35.27 96.12 C 37.40 96.65 38.55 99.39 41.01 98.82 C 42.56 98.90 43.52 97.50 44.56 96.59 C 48.88 91.71 54.36 88.11 59.29 83.90 C 58.63 83.00 57.97 82.09 57.31 81.19 C 53.21 84.46 49.32 88.03 44.99 90.99 M 81.68 83.90 C 87.31 88.44 93.09 92.81 98.06 98.07 C 100.30 100.53 102.69 98.16 104.57 96.62 C 109.84 94.38 115.60 94.36 121.21 94.32 C 121.31 93.69 121.51 92.43 121.61 91.80 C 113.17 90.39 104.23 94.47 96.01 91.00 C 91.68 88.04 87.79 84.47 83.69 81.19 C 83.02 82.09 82.35 82.99 81.68 83.90 M 61.60 88.53 C 59.24 91.60 57.23 94.94 54.88 98.03 C 53.27 100.09 50.68 100.97 48.44 102.16 C 45.28 101.66 42.09 101.82 38.91 101.62 C 36.32 101.25 33.56 100.24 31.14 101.77 C 31.21 102.41 31.36 103.69 31.43 104.33 C 33.67 104.34 35.93 104.31 38.15 103.95 C 43.17 104.92 48.12 106.33 53.22 106.90 C 55.94 103.56 57.47 99.44 60.23 96.11 C 61.96 93.23 65.52 90.80 64.62 87.03 C 63.62 87.49 62.19 87.40 61.60 88.53 M 76.30 87.08 C 76.32 87.77 76.35 89.16 76.36 89.85 C 78.86 94.10 82.40 97.69 84.65 102.10 C 85.47 103.75 86.49 105.29 87.56 106.78 C 89.04 106.69 90.51 106.57 91.98 106.38 C 95.56 105.38 99.24 104.77 102.86 103.93 C 105.21 104.13 108.59 105.39 110.07 102.84 C 109.82 100.55 106.70 100.80 105.03 101.12 C 100.93 102.11 96.69 101.46 92.56 102.16 C 90.31 100.96 87.71 100.10 86.11 98.02 C 83.57 94.71 81.47 91.09 78.84 87.85 C 78.01 87.53 77.17 87.28 76.30 87.08 Z" />
</g>
<g id="#010101ff">
<path fill="#010101" opacity="1.00" d=" M 48.44 21.01 C 48.31 16.93 52.55 14.97 55.98 14.47 C 62.00 13.56 69.68 18.54 67.48 25.38 C 65.80 23.32 64.37 20.97 62.15 19.44 C 60.68 19.30 59.21 19.29 57.73 19.40 C 57.29 20.59 56.90 21.79 56.57 23.00 C 57.30 24.68 58.50 26.09 59.53 27.59 C 58.34 27.54 55.98 27.44 54.80 27.40 C 52.10 26.07 48.26 24.69 48.44 21.01 Z" />
<path fill="#010101" opacity="1.00" d=" M 73.45 25.27 C 71.17 17.07 81.96 12.01 88.38 15.46 C 91.43 16.38 93.40 19.86 92.22 22.91 C 91.22 25.39 88.43 26.16 86.31 27.37 C 84.61 27.44 82.92 27.51 81.23 27.58 C 82.38 26.14 83.64 24.75 84.42 23.07 C 84.09 21.83 83.71 20.62 83.28 19.41 C 81.79 19.29 80.32 19.30 78.84 19.45 C 76.64 20.97 75.19 23.29 73.45 25.27 Z" />
<path fill="#010101" opacity="1.00" d=" M 32.64 18.61 C 37.31 18.65 41.99 18.65 46.66 18.60 C 46.71 20.35 46.76 22.09 46.83 23.83 C 42.05 23.67 37.27 23.48 32.49 23.43 C 32.57 21.82 32.62 20.22 32.64 18.61 Z" />
<path fill="#010101" opacity="1.00" d=" M 94.33 18.60 C 99.01 18.65 103.68 18.65 108.36 18.61 C 108.37 20.22 108.42 21.82 108.50 23.43 C 103.72 23.48 98.94 23.67 94.17 23.83 C 94.23 22.09 94.28 20.35 94.33 18.60 Z" />
<path fill="#010101" opacity="1.00" d=" M 17.14 25.04 C 18.02 22.16 20.53 20.28 22.73 18.40 C 25.18 18.31 27.67 18.14 30.08 18.75 C 30.67 19.85 30.82 21.12 31.11 22.32 C 28.34 23.15 25.36 23.42 22.79 24.83 C 21.03 27.48 23.79 29.99 24.96 32.21 C 23.26 32.76 21.48 33.93 19.63 33.29 C 16.63 31.89 15.93 27.88 17.14 25.04 Z" />
<path fill="#010101" opacity="1.00" d=" M 110.86 18.75 C 113.28 18.15 115.79 18.31 118.27 18.40 C 120.49 20.29 123.05 22.22 123.88 25.17 C 125.10 28.06 124.24 32.12 121.15 33.41 C 119.34 33.82 117.69 32.73 116.04 32.23 C 117.16 30.02 120.02 27.42 118.15 24.81 C 115.60 23.41 112.63 23.15 109.88 22.32 C 110.15 21.12 110.38 19.90 110.86 18.75 Z" />
<path fill="#010101" opacity="1.00" d=" M 25.19 34.24 C 26.43 33.94 27.21 35.25 28.14 35.80 C 38.26 44.54 48.65 52.99 58.70 61.79 C 58.52 62.36 58.16 63.51 57.98 64.09 C 55.34 62.87 53.29 60.75 51.04 58.97 C 41.91 51.24 32.50 43.83 23.48 35.99 L 23.12 34.55 C 23.64 34.48 24.68 34.32 25.19 34.24 Z" />
<path fill="#010101" opacity="1.00" d=" M 113.96 34.94 C 115.17 33.54 117.08 34.79 118.57 34.70 C 114.92 38.73 110.41 41.81 106.34 45.39 C 98.76 51.53 91.38 57.94 83.73 63.99 C 81.98 62.86 81.88 61.75 83.45 60.65 C 93.67 52.15 103.75 43.45 113.96 34.94 Z" />
<path fill="#010101" opacity="1.00" d=" M 69.59 42.30 C 70.04 42.30 70.94 42.29 71.38 42.28 C 72.02 44.39 72.59 46.51 73.04 48.66 C 71.77 48.66 69.23 48.66 67.96 48.67 C 68.40 46.52 68.96 44.40 69.59 42.30 Z" />
<path fill="#010101" opacity="1.00" d=" M 57.15 45.38 C 58.11 44.89 60.47 45.44 59.58 46.89 C 58.52 48.53 54.69 46.59 57.15 45.38 Z" />
<path fill="#010101" opacity="1.00" d=" M 82.07 45.35 C 83.03 44.92 85.35 45.50 84.47 46.92 C 83.37 48.55 79.59 46.53 82.07 45.35 Z" />
<path fill="#010101" opacity="1.00" d=" M 58.80 53.64 C 56.13 52.97 53.72 51.57 52.75 48.85 C 55.50 48.76 58.25 48.75 61.00 48.78 C 60.29 50.41 59.54 52.02 58.80 53.64 Z" />
<path fill="#010101" opacity="1.00" d=" M 70.99 57.59 C 66.42 58.18 60.21 53.06 63.34 48.39 C 67.65 51.18 73.32 51.21 77.63 48.39 C 80.64 52.69 75.25 57.57 70.99 57.59 Z" />
<path fill="#010101" opacity="1.00" d=" M 79.98 48.78 C 82.75 48.76 85.51 48.76 88.27 48.85 C 87.23 51.50 84.94 53.06 82.20 53.65 C 81.45 52.03 80.70 50.41 79.98 48.78 Z" />
<path fill="#010101" opacity="1.00" d=" M 16.75 53.40 C 18.23 53.40 19.70 53.42 21.18 53.45 C 23.16 57.10 24.90 60.87 26.36 64.76 C 27.28 67.45 30.56 67.83 32.96 68.26 C 40.55 68.57 48.15 68.59 55.74 68.73 C 55.71 69.67 55.64 71.57 55.60 72.52 C 48.43 72.27 41.21 72.64 34.07 71.85 C 30.92 73.07 27.52 73.95 24.12 73.31 C 21.31 71.83 22.38 68.55 22.45 66.04 C 22.06 62.89 21.31 59.80 21.12 56.63 C 19.73 56.63 18.34 56.62 16.94 56.60 C 16.49 56.07 16.02 55.55 15.56 55.04 C 15.86 54.63 16.45 53.81 16.75 53.40 Z" />
<path fill="#010101" opacity="1.00" d=" M 119.84 53.39 C 121.59 53.41 123.34 53.48 125.08 53.61 C 125.45 57.14 122.32 56.67 119.87 56.72 C 119.40 61.49 118.08 66.15 118.78 70.96 C 117.00 75.42 111.39 72.92 107.94 72.37 C 100.43 71.99 92.90 72.56 85.38 72.52 C 85.34 71.25 85.30 69.99 85.26 68.72 C 92.85 68.59 100.44 68.57 108.02 68.25 C 110.41 67.83 113.70 67.47 114.62 64.77 C 116.10 60.86 117.83 57.06 119.84 53.39 Z" />
<path fill="#010101" opacity="1.00" d=" M 60.73 53.90 C 62.91 55.83 64.85 58.33 67.85 59.00 C 72.16 60.31 76.70 58.12 79.28 54.64 C 79.70 54.58 80.54 54.47 80.95 54.41 C 79.90 56.39 78.78 58.35 77.31 60.05 C 85.64 65.61 86.06 79.40 77.75 85.18 C 76.07 81.48 76.55 77.63 78.31 74.07 C 78.55 69.68 78.80 65.01 76.30 61.15 C 74.13 63.91 70.25 64.36 67.17 63.17 C 63.92 61.10 61.10 57.88 60.73 53.90 Z" />
<path fill="#010101" opacity="1.00" d=" M 63.24 85.17 C 55.40 79.72 55.37 67.21 62.27 61.01 C 64.12 62.33 63.15 64.30 62.95 65.99 C 62.37 68.71 62.60 71.50 62.71 74.24 C 64.56 77.72 64.81 81.53 63.24 85.17 Z" />
<path fill="#010101" opacity="1.00" d=" M 64.84 64.29 C 68.47 65.91 72.52 65.91 76.16 64.29 C 76.85 68.76 76.75 73.33 75.44 77.68 C 73.73 76.75 72.11 75.09 70.00 75.38 C 68.35 75.79 66.92 76.75 65.42 77.50 C 64.24 73.19 64.17 68.69 64.84 64.29 Z" />
<path fill="#010101" opacity="1.00" d=" M 15.09 75.71 C 16.79 73.94 18.96 74.55 20.77 75.71 C 22.30 78.45 25.03 80.25 27.79 81.57 C 32.22 81.73 36.85 82.14 41.00 80.25 C 41.97 79.84 42.94 79.45 43.92 79.06 C 47.84 77.69 51.73 76.21 55.73 75.07 C 55.70 76.35 55.67 77.63 55.61 78.92 C 48.33 81.27 40.84 83.37 34.04 86.97 C 32.91 87.51 31.80 88.08 30.69 88.68 C 29.37 88.25 28.07 87.76 26.76 87.28 C 26.64 86.73 26.41 85.64 26.29 85.09 C 24.48 83.42 22.74 81.67 21.03 79.90 C 18.35 79.71 16.48 77.83 15.09 75.71 Z" />
<path fill="#010101" opacity="1.00" d=" M 118.62 77.93 C 120.05 75.44 123.33 73.01 125.86 75.69 C 124.87 76.96 123.84 78.19 122.76 79.39 C 122.09 79.46 120.74 79.59 120.07 79.66 C 118.44 81.45 116.73 83.18 115.06 84.93 C 114.20 86.19 113.61 87.81 112.18 88.54 C 108.20 88.55 105.14 85.52 101.49 84.36 C 96.10 82.57 90.84 80.42 85.37 78.89 C 85.34 77.93 85.29 76.03 85.26 75.07 C 91.38 76.82 97.25 79.28 103.26 81.35 C 106.99 81.96 110.86 81.77 114.60 81.26 C 115.87 80.07 117.24 78.99 118.62 77.93 Z" />
<path fill="#010101" opacity="1.00" d=" M 65.10 86.28 C 65.30 82.73 66.32 76.95 70.97 77.23 C 74.96 77.97 75.63 82.92 75.90 86.28 C 72.47 87.90 68.53 87.91 65.10 86.28 Z" />
<path fill="#010101" opacity="1.00" d=" M 44.99 90.99 C 49.32 88.03 53.21 84.46 57.31 81.19 C 57.97 82.09 58.63 83.00 59.29 83.90 C 54.36 88.11 48.88 91.71 44.56 96.59 C 43.52 97.50 42.56 98.90 41.01 98.82 C 38.55 99.39 37.40 96.65 35.27 96.12 C 30.95 94.88 26.52 94.05 22.02 94.50 C 20.10 94.82 19.52 93.32 19.17 91.80 C 27.69 90.33 36.70 94.49 44.99 90.99 Z" />
<path fill="#010101" opacity="1.00" d=" M 81.68 83.90 C 82.35 82.99 83.02 82.09 83.69 81.19 C 87.79 84.47 91.68 88.04 96.01 91.00 C 104.23 94.47 113.17 90.39 121.61 91.80 C 121.51 92.43 121.31 93.69 121.21 94.32 C 115.60 94.36 109.84 94.38 104.57 96.62 C 102.69 98.16 100.30 100.53 98.06 98.07 C 93.09 92.81 87.31 88.44 81.68 83.90 Z" />
<path fill="#010101" opacity="1.00" d=" M 61.60 88.53 C 62.19 87.40 63.62 87.49 64.62 87.03 C 65.52 90.80 61.96 93.23 60.23 96.11 C 57.47 99.44 55.94 103.56 53.22 106.90 C 48.12 106.33 43.17 104.92 38.15 103.95 C 35.93 104.31 33.67 104.34 31.43 104.33 C 31.36 103.69 31.21 102.41 31.14 101.77 C 33.56 100.24 36.32 101.25 38.91 101.62 C 42.09 101.82 45.28 101.66 48.44 102.16 C 50.68 100.97 53.27 100.09 54.88 98.03 C 57.23 94.94 59.24 91.60 61.60 88.53 Z" />
<path fill="#010101" opacity="1.00" d=" M 76.30 87.08 C 77.17 87.28 78.01 87.53 78.84 87.85 C 81.47 91.09 83.57 94.71 86.11 98.02 C 87.71 100.10 90.31 100.96 92.56 102.16 C 96.69 101.46 100.93 102.11 105.03 101.12 C 106.70 100.80 109.82 100.55 110.07 102.84 C 108.59 105.39 105.21 104.13 102.86 103.93 C 99.24 104.77 95.56 105.38 91.98 106.38 C 90.51 106.57 89.04 106.69 87.56 106.78 C 86.49 105.29 85.47 103.75 84.65 102.10 C 82.40 97.69 78.86 94.10 76.36 89.85 C 76.35 89.16 76.32 87.77 76.30 87.08 Z" />
</g>
</svg>
