<?xml version="1.0" encoding="UTF-8" ?>
<!DOCTYPE svg PUBLIC "-//W3C//DTD SVG 1.1//EN" "http://www.w3.org/Graphics/SVG/1.1/DTD/svg11.dtd">
<svg width="60pt" height="60pt" viewBox="0 0 60 60" version="1.1" xmlns="http://www.w3.org/2000/svg">
<g id="#ffffffff">
<path fill="#ffffff" opacity="1.00" d=" M 0.00 0.00 L 60.00 0.00 L 60.00 60.00 L 0.00 60.00 L 0.00 0.00 M 29.81 13.58 C 36.48 13.46 41.32 6.92 41.25 0.59 C 34.79 1.12 29.35 7.02 29.81 13.58 M 7.53 29.03 C 7.16 38.58 11.06 48.51 18.37 54.77 C 21.68 57.41 25.60 54.89 29.02 53.96 C 33.91 52.38 38.43 57.92 43.15 55.18 C 47.78 51.94 50.41 46.57 52.54 41.48 C 47.97 39.07 44.42 34.18 45.13 28.83 C 45.40 24.87 48.10 21.67 51.12 19.35 C 48.86 16.57 45.70 14.37 42.02 14.16 C 37.81 13.60 34.05 16.08 29.98 16.54 C 26.33 15.58 22.76 13.21 18.84 14.38 C 12.14 15.74 7.69 22.42 7.53 29.03 Z" />
</g>
<g id="#000000ff">
<path fill="#968176" opacity="1.00" d=" M 29.81 13.58 C 29.35 7.02 34.79 1.12 41.25 0.59 C 41.32 6.92 36.48 13.46 29.81 13.58 Z" />
<path fill="#968176" opacity="1.00" d=" M 7.53 29.03 C 7.69 22.42 12.14 15.74 18.84 14.38 C 22.76 13.21 26.33 15.58 29.98 16.54 C 34.05 16.08 37.81 13.60 42.02 14.16 C 45.70 14.37 48.86 16.57 51.12 19.35 C 48.10 21.67 45.40 24.87 45.13 28.83 C 44.42 34.18 47.97 39.07 52.54 41.48 C 50.41 46.57 47.78 51.94 43.15 55.18 C 38.43 57.92 33.91 52.38 29.02 53.96 C 25.60 54.89 21.68 57.41 18.37 54.77 C 11.06 48.51 7.16 38.58 7.53 29.03 Z" />
</g>
</svg>
