<?xml version="1.0" encoding="UTF-8" ?>
<!DOCTYPE svg PUBLIC "-//W3C//DTD SVG 1.1//EN" "http://www.w3.org/Graphics/SVG/1.1/DTD/svg11.dtd">
<svg width="60pt" height="60pt" viewBox="0 0 60 60" version="1.1" xmlns="http://www.w3.org/2000/svg">
<g id="#ffffffff">
<path fill="#ffffff" opacity="1.00" d=" M 0.00 0.00 L 60.00 0.00 L 60.00 60.00 L 0.00 60.00 L 0.00 0.00 M 25.82 6.22 C 23.78 7.15 21.61 7.53 19.38 7.38 C 19.54 9.61 19.14 11.78 18.21 13.82 C 17.68 14.18 16.61 14.92 16.08 15.28 C 15.46 16.91 17.19 17.41 18.21 18.17 C 19.13 20.22 19.56 22.38 19.38 24.62 C 21.61 24.51 23.79 24.81 25.82 25.78 C 26.19 26.32 26.92 27.39 27.29 27.92 C 28.91 28.53 29.41 26.80 30.17 25.79 C 32.21 24.86 34.36 24.44 36.59 24.62 C 36.58 22.40 36.77 20.19 37.79 18.18 C 38.32 17.81 39.39 17.08 39.92 16.71 C 40.53 15.09 38.80 14.58 37.78 13.82 C 36.86 11.78 36.43 9.62 36.63 7.37 C 34.38 7.57 32.22 7.12 30.17 6.21 C 29.81 5.68 29.07 4.61 28.70 4.08 C 27.08 3.47 26.58 5.20 25.82 6.22 M 44.90 17.74 C 44.13 20.18 42.56 22.01 40.06 22.70 C 40.50 24.14 40.91 25.58 41.30 27.04 C 40.77 27.72 40.24 28.40 39.71 29.09 C 42.09 29.87 43.85 31.45 44.78 33.77 C 46.20 33.47 47.60 33.06 49.04 32.78 C 49.72 33.28 50.40 33.77 51.09 34.26 C 51.86 31.90 53.45 30.13 55.78 29.24 C 55.49 27.80 55.04 26.41 54.77 24.97 C 55.27 24.29 55.77 23.60 56.27 22.92 C 53.89 22.15 52.15 20.54 51.22 18.24 C 49.78 18.54 48.38 18.95 46.94 19.23 C 46.26 18.73 45.58 18.23 44.90 17.74 M 4.00 34.00 C 4.00 39.34 4.00 44.67 4.00 50.01 C 7.37 48.70 10.53 46.77 14.08 45.98 C 21.28 48.05 27.92 51.81 35.08 54.03 C 38.39 52.98 41.22 50.87 44.28 49.29 C 47.87 47.17 51.73 45.48 55.11 43.03 C 57.33 41.25 55.05 37.15 52.35 38.17 C 46.74 39.89 41.68 43.19 35.86 44.27 C 36.66 43.43 37.46 42.59 38.26 41.75 C 37.76 40.43 37.57 38.67 35.98 38.21 C 31.17 35.87 26.15 33.97 21.29 31.74 C 19.05 30.83 16.61 29.37 14.14 30.35 C 10.71 31.43 7.39 32.81 4.00 34.00 Z" />
<path fill="#ffffff" opacity="1.00" d=" M 25.47 10.56 C 29.22 8.61 34.16 11.79 33.99 16.00 C 34.20 20.50 28.60 23.65 24.87 21.11 C 20.84 18.89 21.22 12.31 25.47 10.56 M 27.17 14.07 C 24.80 15.16 26.50 19.00 28.74 17.78 C 31.27 16.95 29.54 13.13 27.17 14.07 Z" />
<path fill="#ffffff" opacity="1.00" d=" M 46.45 23.45 C 49.66 21.30 52.88 26.68 49.57 28.54 C 46.34 30.74 43.08 25.29 46.45 23.45 Z" />
</g>
<g id="#000000ff">
<path fill="#968176" opacity="1.00" d=" M 25.82 6.22 C 26.58 5.20 27.08 3.47 28.70 4.08 C 29.07 4.61 29.81 5.68 30.17 6.21 C 32.22 7.12 34.38 7.57 36.63 7.37 C 36.43 9.62 36.86 11.78 37.78 13.82 C 38.80 14.58 40.53 15.09 39.92 16.71 C 39.39 17.08 38.32 17.81 37.79 18.18 C 36.77 20.19 36.58 22.40 36.59 24.62 C 34.36 24.44 32.21 24.86 30.17 25.79 C 29.41 26.80 28.91 28.53 27.29 27.92 C 26.92 27.39 26.19 26.32 25.82 25.78 C 23.79 24.81 21.61 24.51 19.38 24.62 C 19.56 22.38 19.13 20.22 18.21 18.17 C 17.19 17.41 15.46 16.91 16.08 15.28 C 16.61 14.92 17.68 14.18 18.21 13.82 C 19.14 11.78 19.54 9.61 19.38 7.38 C 21.61 7.53 23.78 7.15 25.82 6.22 M 25.47 10.56 C 21.22 12.31 20.84 18.89 24.87 21.11 C 28.60 23.65 34.20 20.50 33.99 16.00 C 34.16 11.79 29.22 8.61 25.47 10.56 Z" />
<path fill="#968176" opacity="1.00" d=" M 27.17 14.07 C 29.54 13.13 31.27 16.95 28.74 17.78 C 26.50 19.00 24.80 15.16 27.17 14.07 Z" />
<path fill="#968176" opacity="1.00" d=" M 44.90 17.74 C 45.58 18.23 46.26 18.73 46.94 19.23 C 48.38 18.95 49.78 18.54 51.22 18.24 C 52.15 20.54 53.89 22.15 56.27 22.92 C 55.77 23.60 55.27 24.29 54.77 24.97 C 55.04 26.41 55.49 27.80 55.78 29.24 C 53.45 30.13 51.86 31.90 51.09 34.26 C 50.40 33.77 49.72 33.28 49.04 32.78 C 47.60 33.06 46.20 33.47 44.78 33.77 C 43.85 31.45 42.09 29.87 39.71 29.09 C 40.24 28.40 40.77 27.72 41.30 27.04 C 40.91 25.58 40.50 24.14 40.06 22.70 C 42.56 22.01 44.13 20.18 44.90 17.74 M 46.45 23.45 C 43.08 25.29 46.34 30.74 49.57 28.54 C 52.88 26.68 49.66 21.30 46.45 23.45 Z" />
<path fill="#968176" opacity="1.00" d=" M 4.00 34.00 C 7.39 32.81 10.71 31.43 14.14 30.35 C 16.61 29.37 19.05 30.83 21.29 31.74 C 26.15 33.97 31.17 35.87 35.98 38.21 C 37.57 38.67 37.76 40.43 38.26 41.75 C 37.46 42.59 36.66 43.43 35.86 44.27 C 41.68 43.19 46.74 39.89 52.35 38.17 C 55.05 37.15 57.33 41.25 55.11 43.03 C 51.73 45.48 47.87 47.17 44.28 49.29 C 41.22 50.87 38.39 52.98 35.08 54.03 C 27.92 51.81 21.28 48.05 14.08 45.98 C 10.53 46.77 7.37 48.70 4.00 50.01 C 4.00 44.67 4.00 39.34 4.00 34.00 Z" />
</g>
</svg>
