<?xml version="1.0" encoding="UTF-8" ?>
<!DOCTYPE svg PUBLIC "-//W3C//DTD SVG 1.1//EN" "http://www.w3.org/Graphics/SVG/1.1/DTD/svg11.dtd">
<svg width="60pt" height="60pt" viewBox="0 0 60 60" version="1.1" xmlns="http://www.w3.org/2000/svg">
<g id="#ffffffff">
<path fill="#ffffff" opacity="1.00" d=" M 0.00 0.00 L 60.00 0.00 L 60.00 60.00 L 0.00 60.00 L 0.00 0.00 M 29.14 6.11 C 21.51 9.13 13.99 12.42 6.37 15.49 C 5.00 15.92 3.35 17.08 4.26 18.73 C 8.61 29.56 13.19 40.31 17.60 51.11 C 18.07 52.44 19.17 54.46 20.89 53.43 C 28.43 50.46 35.88 47.27 43.38 44.21 C 44.44 43.62 45.92 43.38 46.44 42.13 C 46.48 40.62 45.69 39.26 45.19 37.88 C 40.88 27.76 36.81 17.54 32.50 7.42 C 32.09 5.85 30.52 5.23 29.14 6.11 M 37.12 8.11 C 34.88 9.31 36.44 12.87 38.87 11.90 C 41.13 10.67 39.52 7.13 37.12 8.11 M 45.24 8.13 C 42.80 9.05 44.39 12.90 46.79 11.86 C 49.17 10.92 47.60 7.12 45.24 8.13 M 53.17 8.10 C 50.88 9.19 52.37 12.83 54.80 11.89 C 57.14 10.84 55.61 7.14 53.17 8.10 M 53.17 16.10 C 50.84 17.14 52.43 20.93 54.78 19.82 C 57.20 18.88 55.55 15.08 53.17 16.10 M 53.09 24.11 C 50.83 25.26 52.55 29.02 54.81 27.78 C 57.26 26.81 55.44 23.03 53.09 24.11 M 53.12 32.10 C 50.92 33.25 52.38 36.82 54.77 35.88 C 57.20 34.83 55.54 31.08 53.12 32.10 M 53.13 40.10 C 50.85 41.19 52.49 44.98 54.79 43.81 C 57.24 42.86 55.51 39.08 53.13 40.10 M 37.21 48.15 C 34.83 49.10 36.37 52.83 38.77 51.90 C 41.16 50.95 39.61 47.06 37.21 48.15 M 45.24 48.18 C 42.77 49.03 44.44 52.93 46.81 51.89 C 49.16 50.91 47.56 47.04 45.24 48.18 M 53.15 48.10 C 50.85 49.17 52.45 52.96 54.80 51.82 C 57.20 50.84 55.53 47.08 53.15 48.10 Z" />
<path fill="#ffffff" opacity="1.00" d=" M 22.45 15.98 C 23.10 14.31 25.42 14.40 25.81 16.15 C 27.85 20.76 29.66 25.46 31.61 30.10 C 32.27 28.61 32.84 27.06 33.70 25.66 C 34.92 24.63 36.46 25.73 37.77 25.90 C 36.00 30.13 34.32 34.40 32.51 38.62 C 31.00 42.86 25.55 45.18 21.44 43.45 C 18.57 42.23 17.59 39.05 16.47 36.42 C 15.73 34.54 14.71 32.16 16.31 30.40 C 19.18 28.05 22.70 26.67 25.87 24.77 C 24.68 21.86 23.28 19.02 22.45 15.98 Z" />
</g>
<g id="#000000ff">
<path fill="#968176" opacity="1.00" d=" M 29.14 6.11 C 30.52 5.23 32.09 5.85 32.50 7.42 C 36.81 17.54 40.88 27.76 45.19 37.88 C 45.69 39.26 46.48 40.62 46.44 42.13 C 45.92 43.38 44.44 43.62 43.38 44.21 C 35.88 47.27 28.43 50.46 20.89 53.43 C 19.17 54.46 18.07 52.44 17.60 51.11 C 13.19 40.31 8.61 29.56 4.26 18.73 C 3.35 17.08 5.00 15.92 6.37 15.49 C 13.99 12.42 21.51 9.13 29.14 6.11 M 22.45 15.98 C 23.28 19.02 24.68 21.86 25.87 24.77 C 22.70 26.67 19.18 28.05 16.31 30.40 C 14.71 32.16 15.73 34.54 16.47 36.42 C 17.59 39.05 18.57 42.23 21.44 43.45 C 25.55 45.18 31.00 42.86 32.51 38.62 C 34.32 34.40 36.00 30.13 37.77 25.90 C 36.46 25.73 34.92 24.63 33.70 25.66 C 32.84 27.06 32.27 28.61 31.61 30.10 C 29.66 25.46 27.85 20.76 25.81 16.15 C 25.42 14.40 23.10 14.31 22.45 15.98 Z" />
<path fill="#968176" opacity="1.00" d=" M 37.12 8.11 C 39.52 7.13 41.13 10.67 38.87 11.90 C 36.44 12.87 34.88 9.31 37.12 8.11 Z" />
<path fill="#968176" opacity="1.00" d=" M 45.24 8.13 C 47.60 7.12 49.17 10.92 46.79 11.86 C 44.39 12.90 42.80 9.05 45.24 8.13 Z" />
<path fill="#968176" opacity="1.00" d=" M 53.17 8.10 C 55.61 7.14 57.14 10.84 54.80 11.89 C 52.37 12.83 50.88 9.19 53.17 8.10 Z" />
<path fill="#968176" opacity="1.00" d=" M 53.17 16.10 C 55.55 15.08 57.20 18.88 54.78 19.82 C 52.43 20.93 50.84 17.14 53.17 16.10 Z" />
<path fill="#968176" opacity="1.00" d=" M 53.09 24.11 C 55.44 23.03 57.26 26.81 54.81 27.78 C 52.55 29.02 50.83 25.26 53.09 24.11 Z" />
<path fill="#968176" opacity="1.00" d=" M 53.12 32.10 C 55.54 31.08 57.20 34.83 54.77 35.88 C 52.38 36.82 50.92 33.25 53.12 32.10 Z" />
<path fill="#968176" opacity="1.00" d=" M 53.13 40.10 C 55.51 39.08 57.24 42.86 54.79 43.81 C 52.49 44.98 50.85 41.19 53.13 40.10 Z" />
<path fill="#968176" opacity="1.00" d=" M 37.21 48.15 C 39.61 47.06 41.16 50.95 38.77 51.90 C 36.37 52.83 34.83 49.10 37.21 48.15 Z" />
<path fill="#968176" opacity="1.00" d=" M 45.24 48.18 C 47.56 47.04 49.16 50.91 46.81 51.89 C 44.44 52.93 42.77 49.03 45.24 48.18 Z" />
<path fill="#968176" opacity="1.00" d=" M 53.15 48.10 C 55.53 47.08 57.20 50.84 54.80 51.82 C 52.45 52.96 50.85 49.17 53.15 48.10 Z" />
</g>
</svg>
