<?xml version="1.0" encoding="UTF-8" ?>
<!DOCTYPE svg PUBLIC "-//W3C//DTD SVG 1.1//EN" "http://www.w3.org/Graphics/SVG/1.1/DTD/svg11.dtd">
<svg width="60pt" height="60pt" viewBox="0 0 60 60" version="1.1" xmlns="http://www.w3.org/2000/svg">
<g id="#ffffffff">
<path fill="#ffffff" opacity="1.00" d=" M 0.00 0.00 L 60.00 0.00 L 60.00 60.00 L 0.00 60.00 L 0.00 0.00 M 24.56 4.58 C 21.15 8.22 17.35 11.49 14.12 15.28 C 13.30 18.70 17.57 18.29 18.88 16.15 C 21.14 16.12 23.56 14.88 25.72 16.04 C 23.66 17.57 22.19 19.60 21.79 22.17 C 20.26 23.13 18.46 23.80 17.47 25.41 C 15.59 27.87 16.06 31.13 15.98 34.03 C 16.14 38.99 15.77 43.96 16.14 48.91 C 16.50 51.11 18.92 52.22 20.97 52.00 C 27.36 51.97 33.75 52.09 40.14 51.94 C 42.64 51.98 44.34 49.39 44.00 47.05 C 43.94 41.02 44.17 34.97 43.87 28.95 C 43.66 25.71 41.02 23.44 38.26 22.19 C 37.66 20.46 37.36 18.43 35.73 17.31 C 34.14 15.84 31.62 16.55 29.98 15.14 C 28.99 14.37 28.15 13.42 27.34 12.47 C 27.76 10.63 27.95 8.75 28.14 6.87 C 29.45 5.65 31.09 3.27 28.84 2.07 C 26.90 1.58 25.82 3.51 24.56 4.58 M 35.18 6.06 C 34.90 6.32 34.36 6.85 34.08 7.11 C 33.83 10.54 38.57 11.76 38.64 15.37 C 41.47 15.83 43.17 18.08 45.20 19.83 C 46.86 20.54 48.57 18.88 47.83 17.21 C 45.28 14.13 42.18 11.54 39.47 8.60 C 38.19 7.54 37.11 5.60 35.18 6.06 Z" />
</g>
<g id="#000000ff">
<path fill="#968176" opacity="1.00" d=" M 24.56 4.58 C 25.82 3.51 26.90 1.58 28.84 2.07 C 31.09 3.27 29.45 5.65 28.14 6.87 C 27.95 8.75 27.76 10.63 27.34 12.47 C 28.15 13.42 28.99 14.37 29.98 15.14 C 31.62 16.55 34.14 15.84 35.73 17.31 C 37.36 18.43 37.66 20.46 38.26 22.19 C 41.02 23.44 43.66 25.71 43.87 28.95 C 44.17 34.97 43.94 41.02 44.00 47.05 C 44.34 49.39 42.64 51.98 40.14 51.94 C 33.75 52.09 27.36 51.97 20.97 52.00 C 18.92 52.22 16.50 51.11 16.14 48.91 C 15.77 43.96 16.14 38.99 15.98 34.03 C 16.06 31.13 15.59 27.87 17.47 25.41 C 18.46 23.80 20.26 23.13 21.79 22.17 C 22.19 19.60 23.66 17.57 25.72 16.04 C 23.56 14.88 21.14 16.12 18.88 16.15 C 17.57 18.29 13.30 18.70 14.12 15.28 C 17.35 11.49 21.15 8.22 24.56 4.58 Z" />
<path fill="#968176" opacity="1.00" d=" M 35.18 6.06 C 37.11 5.60 38.19 7.54 39.47 8.60 C 42.18 11.54 45.28 14.13 47.83 17.21 C 48.57 18.88 46.86 20.54 45.20 19.83 C 43.17 18.08 41.47 15.83 38.64 15.37 C 38.57 11.76 33.83 10.54 34.08 7.11 C 34.36 6.85 34.90 6.32 35.18 6.06 Z" />
</g>
</svg>
