<?xml version="1.0" encoding="UTF-8" ?>
<!DOCTYPE svg PUBLIC "-//W3C//DTD SVG 1.1//EN" "http://www.w3.org/Graphics/SVG/1.1/DTD/svg11.dtd">
<svg width="60pt" height="60pt" viewBox="0 0 60 60" version="1.1" xmlns="http://www.w3.org/2000/svg">
<g id="#ffffffff">
<path fill="#ffffff" opacity="1.00" d=" M 0.00 0.00 L 60.00 0.00 L 60.00 60.00 L 0.00 60.00 L 0.00 0.00 M 18.16 4.10 C 9.22 12.35 4.65 25.12 6.37 37.19 C 6.94 41.06 8.32 45.06 11.16 47.86 C 11.59 47.82 12.44 47.75 12.87 47.71 L 13.59 46.93 C 12.34 39.54 10.41 31.36 14.30 24.38 C 15.00 26.34 17.14 29.18 19.46 27.47 C 21.99 24.87 20.58 20.98 20.17 17.86 C 24.24 21.99 24.94 28.48 22.76 33.71 C 22.01 35.20 21.53 37.67 23.81 38.01 C 28.69 36.39 33.21 31.36 31.70 25.93 C 29.61 18.93 24.53 13.39 21.43 6.87 C 20.72 5.54 20.12 3.46 18.16 4.10 M 26.95 41.00 C 24.15 42.12 19.96 41.02 18.38 44.28 C 16.86 46.80 19.13 50.24 22.00 50.00 C 25.18 49.94 26.48 46.53 28.60 44.74 C 37.36 39.70 46.44 35.19 55.15 30.08 C 56.82 28.90 55.48 27.09 54.15 26.30 C 44.99 31.01 36.06 36.17 26.95 41.00 Z" />
</g>
<g id="#000000ff">
<path fill="#968176" opacity="1.00" d=" M 18.16 4.10 C 20.12 3.46 20.72 5.54 21.43 6.87 C 24.53 13.39 29.61 18.93 31.70 25.93 C 33.21 31.36 28.69 36.39 23.81 38.01 C 21.53 37.67 22.01 35.20 22.76 33.71 C 24.94 28.48 24.24 21.99 20.17 17.86 C 20.58 20.98 21.99 24.87 19.46 27.47 C 17.14 29.18 15.00 26.34 14.30 24.38 C 10.41 31.36 12.34 39.54 13.59 46.93 L 12.87 47.71 C 12.44 47.75 11.59 47.82 11.16 47.86 C 8.32 45.06 6.94 41.06 6.37 37.19 C 4.65 25.12 9.22 12.35 18.16 4.10 Z" />
<path fill="#968176" opacity="1.00" d=" M 26.95 41.00 C 36.06 36.17 44.99 31.01 54.15 26.30 C 55.48 27.09 56.82 28.90 55.15 30.08 C 46.44 35.19 37.36 39.70 28.60 44.74 C 26.48 46.53 25.18 49.94 22.00 50.00 C 19.13 50.24 16.86 46.80 18.38 44.28 C 19.96 41.02 24.15 42.12 26.95 41.00 Z" />
</g>
</svg>
