<?xml version="1.0" encoding="UTF-8" ?>
<!DOCTYPE svg PUBLIC "-//W3C//DTD SVG 1.1//EN" "http://www.w3.org/Graphics/SVG/1.1/DTD/svg11.dtd">
<svg width="60pt" height="60pt" viewBox="0 0 60 60" version="1.1" xmlns="http://www.w3.org/2000/svg">
<g id="#ffffffff">
<path fill="#ffffff" opacity="1.00" d=" M 0.00 0.00 L 60.00 0.00 L 60.00 60.00 L 0.00 60.00 L 0.00 0.00 M 8.40 8.40 C 5.69 9.29 6.08 12.66 5.96 14.92 C 6.11 23.27 5.81 31.63 6.09 39.98 C 5.87 42.70 8.51 44.22 10.94 43.98 C 23.32 44.06 35.70 43.97 48.08 44.02 C 50.34 44.11 53.55 43.65 53.79 40.82 C 54.36 34.90 53.84 28.94 54.00 23.00 C 53.89 18.81 54.44 14.54 53.60 10.40 C 52.93 8.02 50.07 8.04 48.08 7.98 C 37.05 7.96 26.01 8.07 14.97 7.95 C 12.78 8.00 10.54 7.84 8.40 8.40 M 19.28 48.28 C 17.02 48.93 17.91 52.06 20.11 51.86 C 26.96 52.08 33.88 52.30 40.71 51.72 C 42.98 51.05 42.12 47.94 39.89 48.14 C 33.04 47.92 26.11 47.70 19.28 48.28 Z" />
<path fill="#ffffff" opacity="1.00" d=" M 10.29 18.23 C 13.42 17.97 16.58 17.98 19.71 18.24 C 19.98 23.99 20.56 29.84 19.53 35.53 C 16.52 36.42 13.36 35.94 10.29 35.73 C 9.82 29.91 9.83 24.05 10.29 18.23 M 14.17 32.17 C 13.65 33.79 14.20 34.35 15.83 33.83 C 16.35 32.21 15.80 31.65 14.17 32.17 Z" />
<path fill="#ffffff" opacity="1.00" d=" M 24.29 18.28 C 32.75 17.82 41.25 17.81 49.71 18.28 C 50.00 24.01 50.54 29.85 49.53 35.53 C 41.19 36.52 32.68 36.01 24.30 35.72 C 23.81 29.92 23.82 24.08 24.29 18.28 M 26.17 26.17 C 25.65 27.80 26.20 28.35 27.83 27.83 C 28.35 26.20 27.80 25.65 26.17 26.17 Z" />
</g>
<g id="#000000ff">
<path fill="#968176" opacity="1.00" d=" M 8.40 8.40 C 10.54 7.84 12.78 8.00 14.97 7.95 C 26.01 8.07 37.05 7.96 48.08 7.98 C 50.07 8.04 52.93 8.02 53.60 10.40 C 54.44 14.54 53.89 18.81 54.00 23.00 C 53.84 28.94 54.36 34.90 53.79 40.82 C 53.55 43.65 50.34 44.11 48.08 44.02 C 35.70 43.97 23.32 44.06 10.94 43.98 C 8.51 44.22 5.87 42.70 6.09 39.98 C 5.81 31.63 6.11 23.27 5.96 14.92 C 6.08 12.66 5.69 9.29 8.40 8.40 M 10.29 18.23 C 9.83 24.05 9.82 29.91 10.29 35.73 C 13.36 35.94 16.52 36.42 19.53 35.53 C 20.56 29.84 19.98 23.99 19.71 18.24 C 16.58 17.98 13.42 17.97 10.29 18.23 M 24.29 18.28 C 23.82 24.08 23.81 29.92 24.30 35.72 C 32.68 36.01 41.19 36.52 49.53 35.53 C 50.54 29.85 50.00 24.01 49.71 18.28 C 41.25 17.81 32.75 17.82 24.29 18.28 Z" />
<path fill="#968176" opacity="1.00" d=" M 26.17 26.17 C 27.80 25.65 28.35 26.20 27.83 27.83 C 26.20 28.35 25.65 27.80 26.17 26.17 Z" />
<path fill="#968176" opacity="1.00" d=" M 14.17 32.17 C 15.80 31.65 16.35 32.21 15.83 33.83 C 14.20 34.35 13.65 33.79 14.17 32.17 Z" />
<path fill="#968176" opacity="1.00" d=" M 19.28 48.28 C 26.11 47.70 33.04 47.92 39.89 48.14 C 42.12 47.94 42.98 51.05 40.71 51.72 C 33.88 52.30 26.96 52.08 20.11 51.86 C 17.91 52.06 17.02 48.93 19.28 48.28 Z" />
</g>
</svg>
