<?xml version="1.0" encoding="UTF-8" ?>
<!DOCTYPE svg PUBLIC "-//W3C//DTD SVG 1.1//EN" "http://www.w3.org/Graphics/SVG/1.1/DTD/svg11.dtd">
<svg width="60pt" height="60pt" viewBox="0 0 60 60" version="1.1" xmlns="http://www.w3.org/2000/svg">
<g id="#ffffffff">
<path fill="#ffffff" opacity="1.00" d=" M 0.00 0.00 L 60.00 0.00 L 60.00 60.00 L 0.00 60.00 L 0.00 0.00 M 9.74 13.73 C 4.19 21.67 4.92 33.37 11.53 40.48 C 13.22 42.42 15.56 44.17 15.84 46.93 C 16.15 49.94 15.99 52.98 15.99 56.00 C 22.64 56.00 29.28 55.99 35.93 56.01 C 36.18 54.06 35.57 51.70 37.10 50.16 C 40.05 47.66 44.84 48.35 47.37 45.24 C 48.59 42.18 47.81 38.70 48.00 35.46 C 49.99 34.49 53.52 34.62 54.02 32.00 C 52.70 28.21 48.14 26.24 47.64 22.04 C 46.77 14.70 41.96 7.62 34.81 5.16 C 25.78 1.87 15.00 5.79 9.74 13.73 Z" />
<path fill="#ffffff" opacity="1.00" d=" M 20.54 22.06 C 20.81 17.81 24.80 14.77 28.98 15.33 C 33.01 15.13 37.11 18.89 35.85 23.09 C 35.13 27.08 29.31 27.52 29.54 31.95 C 28.28 31.93 27.02 31.93 25.76 31.92 C 26.05 30.15 25.78 27.88 27.47 26.72 C 29.20 25.10 32.43 23.87 31.64 20.92 C 30.26 17.45 24.92 18.52 24.38 22.04 C 23.10 22.04 21.82 22.05 20.54 22.06 Z" />
<path fill="#ffffff" opacity="1.00" d=" M 26.21 37.16 C 27.83 35.82 30.87 36.89 30.75 39.18 C 30.91 41.07 28.81 42.38 27.12 41.73 C 25.09 41.37 24.62 38.33 26.21 37.16 Z" />
</g>
<g id="#000000ff">
<path fill="#968176" opacity="1.00" d=" M 9.74 13.73 C 15.00 5.79 25.78 1.87 34.81 5.16 C 41.96 7.62 46.77 14.70 47.64 22.04 C 48.14 26.24 52.70 28.21 54.02 32.00 C 53.52 34.62 49.99 34.49 48.00 35.46 C 47.81 38.70 48.59 42.18 47.37 45.24 C 44.84 48.35 40.05 47.66 37.10 50.16 C 35.57 51.70 36.18 54.06 35.93 56.01 C 29.28 55.99 22.64 56.00 15.99 56.00 C 15.99 52.98 16.15 49.94 15.84 46.93 C 15.56 44.17 13.22 42.42 11.53 40.48 C 4.92 33.37 4.19 21.67 9.74 13.73 M 20.54 22.06 C 21.82 22.05 23.10 22.04 24.38 22.04 C 24.92 18.52 30.26 17.45 31.64 20.92 C 32.43 23.87 29.20 25.10 27.47 26.72 C 25.78 27.88 26.05 30.15 25.76 31.92 C 27.02 31.93 28.28 31.93 29.54 31.95 C 29.31 27.52 35.13 27.08 35.85 23.09 C 37.11 18.89 33.01 15.13 28.98 15.33 C 24.80 14.77 20.81 17.81 20.54 22.06 M 26.21 37.16 C 24.62 38.33 25.09 41.37 27.12 41.73 C 28.81 42.38 30.91 41.07 30.75 39.18 C 30.87 36.89 27.83 35.82 26.21 37.16 Z" />
</g>
</svg>
