<?xml version="1.0" encoding="UTF-8" ?>
<!DOCTYPE svg PUBLIC "-//W3C//DTD SVG 1.1//EN" "http://www.w3.org/Graphics/SVG/1.1/DTD/svg11.dtd">
<svg width="60pt" height="60pt" viewBox="0 0 60 60" version="1.1" xmlns="http://www.w3.org/2000/svg">
<g id="#ffffffff">
<path fill="#ffffff" opacity="1.00" d=" M 0.00 0.00 L 60.00 0.00 L 60.00 60.00 L 0.00 60.00 L 0.00 0.00 M 20.24 11.13 C 19.37 14.85 19.06 18.67 18.41 22.42 C 19.58 23.60 20.75 24.78 21.93 25.95 C 22.53 21.96 23.12 17.97 23.73 13.99 C 25.15 13.99 26.58 14.00 28.00 14.01 C 28.00 19.99 28.00 25.97 28.00 31.96 C 29.33 33.30 30.67 34.64 31.99 36.00 C 32.00 35.11 32.01 33.32 32.01 32.43 C 32.77 31.62 34.60 30.84 33.76 29.43 C 33.28 28.39 31.68 27.66 32.03 26.39 C 32.57 25.96 33.66 25.10 34.21 24.66 C 33.64 23.31 32.71 22.18 31.90 20.98 C 32.59 19.97 33.45 19.09 34.07 18.03 C 33.28 16.69 32.30 15.47 31.56 14.11 C 33.12 14.04 34.69 13.98 36.25 13.94 C 37.59 22.62 38.87 31.31 40.18 40.00 C 37.07 40.00 33.97 40.00 30.86 40.00 C 23.65 32.90 16.60 25.62 9.32 18.59 C 7.87 16.99 5.16 18.84 6.17 20.80 C 9.55 24.69 13.45 28.10 17.00 31.84 C 16.09 38.54 14.81 45.20 14.10 51.92 C 13.73 53.95 16.33 53.88 17.62 54.21 C 18.81 56.47 21.41 56.32 22.45 54.01 C 27.48 53.99 32.52 54.00 37.56 54.01 C 38.56 56.32 41.20 56.45 42.37 54.21 C 43.55 53.85 45.17 54.07 45.87 52.82 C 45.97 49.88 45.20 47.00 44.82 44.10 C 46.60 43.78 50.16 44.74 50.22 42.00 C 50.01 39.05 46.16 40.27 44.19 39.93 C 42.71 30.34 41.50 20.69 39.76 11.14 C 36.84 8.36 33.54 5.87 30.03 3.88 C 26.48 5.84 23.22 8.41 20.24 11.13 Z" />
<path fill="#ffffff" opacity="1.00" d=" M 20.51 35.33 C 22.07 36.88 23.63 38.44 25.18 40.00 C 23.40 40.00 21.61 40.00 19.82 40.00 C 20.05 38.44 20.28 36.89 20.51 35.33 Z" />
</g>
<g id="#000000ff">
<path fill="#968176" opacity="1.00" d=" M 20.24 11.13 C 23.22 8.41 26.48 5.84 30.03 3.88 C 33.54 5.87 36.84 8.36 39.76 11.14 C 41.50 20.69 42.71 30.34 44.19 39.93 C 46.16 40.27 50.01 39.05 50.22 42.00 C 50.16 44.74 46.60 43.78 44.82 44.10 C 45.20 47.00 45.97 49.88 45.87 52.82 C 45.17 54.07 43.55 53.85 42.37 54.21 C 41.20 56.45 38.56 56.32 37.56 54.01 C 32.52 54.00 27.48 53.99 22.45 54.01 C 21.41 56.32 18.81 56.47 17.62 54.21 C 16.33 53.88 13.73 53.95 14.10 51.92 C 14.81 45.20 16.09 38.54 17.00 31.84 C 13.45 28.10 9.55 24.69 6.17 20.80 C 5.16 18.84 7.87 16.99 9.32 18.59 C 16.60 25.62 23.65 32.90 30.86 40.00 C 33.97 40.00 37.07 40.00 40.18 40.00 C 38.87 31.31 37.59 22.62 36.25 13.94 C 34.69 13.98 33.12 14.04 31.56 14.11 C 32.30 15.47 33.28 16.69 34.07 18.03 C 33.45 19.09 32.59 19.97 31.90 20.98 C 32.71 22.18 33.64 23.31 34.21 24.66 C 33.66 25.10 32.57 25.96 32.03 26.39 C 31.68 27.66 33.28 28.39 33.76 29.43 C 34.60 30.84 32.77 31.62 32.01 32.43 C 32.01 33.32 32.00 35.11 31.99 36.00 C 30.67 34.64 29.33 33.30 28.00 31.96 C 28.00 25.97 28.00 19.99 28.00 14.01 C 26.58 14.00 25.15 13.99 23.73 13.99 C 23.12 17.97 22.53 21.96 21.93 25.95 C 20.75 24.78 19.58 23.60 18.41 22.42 C 19.06 18.67 19.37 14.85 20.24 11.13 M 20.51 35.33 C 20.28 36.89 20.05 38.44 19.82 40.00 C 21.61 40.00 23.40 40.00 25.18 40.00 C 23.63 38.44 22.07 36.88 20.51 35.33 Z" />
</g>
</svg>
