<?xml version="1.0" encoding="UTF-8" ?>
<!DOCTYPE svg PUBLIC "-//W3C//DTD SVG 1.1//EN" "http://www.w3.org/Graphics/SVG/1.1/DTD/svg11.dtd">
<svg width="60pt" height="60pt" viewBox="0 0 60 60" version="1.1" xmlns="http://www.w3.org/2000/svg">
<g id="#ffffffff">
<path fill="#ffffff" opacity="1.00" d=" M 0.00 0.00 L 60.00 0.00 L 60.00 60.00 L 0.00 60.00 L 0.00 0.00 M 41.18 6.09 C 39.64 6.29 38.57 7.51 37.49 8.51 C 27.54 18.54 17.47 28.45 7.54 38.50 C 5.56 40.29 5.52 43.65 7.50 45.45 C 9.99 48.03 12.46 50.65 15.17 53.00 C 16.98 54.52 19.87 54.20 21.44 52.49 C 27.10 47.10 32.43 41.36 38.10 36.00 C 41.44 36.46 44.67 33.38 43.82 29.99 C 47.08 30.54 50.43 27.78 49.93 24.38 C 51.18 22.22 54.10 20.85 53.97 18.02 C 53.92 14.88 50.87 13.11 49.02 10.96 C 46.74 8.97 44.68 5.49 41.18 6.09 Z" />
<path fill="#ffffff" opacity="1.00" d=" M 32.02 21.98 C 34.02 19.99 36.01 17.99 38.00 16.00 C 40.00 18.00 42.00 20.00 44.00 22.00 C 42.00 24.00 40.00 26.00 38.00 28.00 C 36.00 26.00 34.01 23.99 32.02 21.98 Z" />
<path fill="#ffffff" opacity="1.00" d=" M 24.00 30.00 C 26.00 28.00 28.00 26.00 30.00 24.00 C 32.00 26.00 34.00 28.00 36.01 29.99 C 34.00 31.99 32.01 33.99 30.01 35.99 C 28.00 34.00 26.00 31.99 24.00 30.00 Z" />
<path fill="#ffffff" opacity="1.00" d=" M 16.00 38.00 C 18.00 36.00 20.00 34.00 22.00 32.00 C 24.01 33.99 26.01 35.99 28.02 37.98 C 26.01 39.98 24.01 41.99 22.00 44.00 C 20.00 42.00 18.00 40.00 16.00 38.00 Z" />
</g>
<g id="#000000ff">
<path fill="#968176" opacity="1.00" d=" M 41.18 6.09 C 44.68 5.49 46.74 8.97 49.02 10.96 C 50.87 13.11 53.92 14.88 53.97 18.02 C 54.10 20.85 51.18 22.22 49.93 24.38 C 50.43 27.78 47.08 30.54 43.82 29.99 C 44.67 33.38 41.44 36.46 38.10 36.00 C 32.43 41.36 27.10 47.10 21.44 52.49 C 19.87 54.20 16.98 54.52 15.17 53.00 C 12.46 50.65 9.99 48.03 7.50 45.45 C 5.52 43.65 5.56 40.29 7.54 38.50 C 17.47 28.45 27.54 18.54 37.49 8.51 C 38.57 7.51 39.64 6.29 41.18 6.09 M 32.02 21.98 C 34.01 23.99 36.00 26.00 38.00 28.00 C 40.00 26.00 42.00 24.00 44.00 22.00 C 42.00 20.00 40.00 18.00 38.00 16.00 C 36.01 17.99 34.02 19.99 32.02 21.98 M 24.00 30.00 C 26.00 31.99 28.00 34.00 30.01 35.99 C 32.01 33.99 34.00 31.99 36.01 29.99 C 34.00 28.00 32.00 26.00 30.00 24.00 C 28.00 26.00 26.00 28.00 24.00 30.00 M 16.00 38.00 C 18.00 40.00 20.00 42.00 22.00 44.00 C 24.01 41.99 26.01 39.98 28.02 37.98 C 26.01 35.99 24.01 33.99 22.00 32.00 C 20.00 34.00 18.00 36.00 16.00 38.00 Z" />
</g>
</svg>
