<?xml version="1.0" encoding="UTF-8" ?>
<!DOCTYPE svg PUBLIC "-//W3C//DTD SVG 1.1//EN" "http://www.w3.org/Graphics/SVG/1.1/DTD/svg11.dtd">
<svg width="60pt" height="60pt" viewBox="0 0 60 60" version="1.1" xmlns="http://www.w3.org/2000/svg">
<g id="#ffffffff">
<path fill="#ffffff" opacity="1.00" d=" M 0.00 0.00 L 60.00 0.00 L 60.00 60.00 L 0.00 60.00 L 0.00 0.00 M 11.30 11.56 C 10.59 14.01 8.88 17.47 11.71 19.24 C 13.99 21.07 16.82 19.38 17.99 17.15 C 19.51 20.79 24.46 20.77 25.99 17.16 C 27.52 20.79 32.46 20.78 33.99 17.16 C 35.52 20.79 40.46 20.78 41.99 17.16 C 43.11 19.08 45.38 20.89 47.65 19.61 C 49.94 18.66 50.37 15.92 49.40 13.86 C 48.28 11.00 48.08 6.10 44.03 6.07 C 34.68 5.95 25.31 5.95 15.96 6.07 C 12.88 5.89 12.00 9.23 11.30 11.56 M 15.24 24.07 C 14.97 24.34 14.43 24.88 14.15 25.15 C 13.76 31.42 14.15 37.71 13.98 44.00 C 14.08 46.77 13.49 50.11 15.76 52.21 C 17.60 54.23 20.51 54.00 22.99 54.03 C 28.70 53.91 34.41 54.12 40.11 53.95 C 43.22 54.00 46.00 51.23 45.95 48.12 C 46.12 41.74 45.91 35.34 46.03 28.95 C 45.85 27.32 46.45 25.24 44.91 24.11 C 43.65 23.69 41.91 24.42 42.10 25.95 C 41.80 32.99 42.14 40.04 41.98 47.09 C 42.12 48.27 41.66 50.14 40.09 49.90 C 33.40 50.09 26.69 50.05 20.00 49.93 C 18.37 50.15 17.83 48.30 18.02 47.03 C 17.87 40.00 18.18 32.96 17.91 25.93 C 18.12 24.49 16.45 23.69 15.24 24.07 M 29.26 42.17 C 26.73 42.92 28.49 47.07 30.77 45.81 C 33.24 45.01 31.52 41.00 29.26 42.17 Z" />
</g>
<g id="#000000ff">
<path fill="#968176" opacity="1.00" d=" M 11.30 11.56 C 12.00 9.23 12.88 5.89 15.96 6.07 C 25.31 5.95 34.68 5.95 44.03 6.07 C 48.08 6.10 48.28 11.00 49.40 13.86 C 50.37 15.92 49.94 18.66 47.65 19.61 C 45.38 20.89 43.11 19.08 41.99 17.16 C 40.46 20.78 35.52 20.79 33.99 17.16 C 32.46 20.78 27.52 20.79 25.99 17.16 C 24.46 20.77 19.51 20.79 17.99 17.15 C 16.82 19.38 13.99 21.07 11.71 19.24 C 8.88 17.47 10.59 14.01 11.30 11.56 Z" />
<path fill="#968176" opacity="1.00" d=" M 15.24 24.07 C 16.45 23.69 18.12 24.49 17.91 25.93 C 18.18 32.96 17.87 40.00 18.02 47.03 C 17.83 48.30 18.37 50.15 20.00 49.93 C 26.69 50.05 33.40 50.09 40.09 49.90 C 41.66 50.14 42.12 48.27 41.98 47.09 C 42.14 40.04 41.80 32.99 42.10 25.95 C 41.91 24.42 43.65 23.69 44.91 24.11 C 46.45 25.24 45.85 27.32 46.03 28.95 C 45.91 35.34 46.12 41.74 45.95 48.12 C 46.00 51.23 43.22 54.00 40.11 53.95 C 34.41 54.12 28.70 53.91 22.99 54.03 C 20.51 54.00 17.60 54.23 15.76 52.21 C 13.49 50.11 14.08 46.77 13.98 44.00 C 14.15 37.71 13.76 31.42 14.15 25.15 C 14.43 24.88 14.97 24.34 15.24 24.07 Z" />
<path fill="#968176" opacity="1.00" d=" M 29.26 42.17 C 31.52 41.00 33.24 45.01 30.77 45.81 C 28.49 47.07 26.73 42.92 29.26 42.17 Z" />
</g>
</svg>
