<?xml version="1.0" encoding="UTF-8" ?>
<!DOCTYPE svg PUBLIC "-//W3C//DTD SVG 1.1//EN" "http://www.w3.org/Graphics/SVG/1.1/DTD/svg11.dtd">
<svg width="60pt" height="60pt" viewBox="0 0 60 60" version="1.1" xmlns="http://www.w3.org/2000/svg">
<g id="#ffffffff">
<path fill="#ffffff" opacity="1.00" d=" M 0.00 0.00 L 60.00 0.00 L 60.00 60.00 L 0.00 60.00 L 0.00 0.00 M 25.17 4.20 C 23.64 4.77 23.63 7.17 25.13 7.78 C 28.35 8.18 31.64 8.16 34.86 7.79 C 36.38 7.16 36.37 4.81 34.84 4.20 C 31.64 3.85 28.37 3.83 25.17 4.20 M 10.06 16.97 C 10.26 19.85 12.21 22.24 14.45 23.90 C 13.05 24.21 11.03 23.58 10.18 25.12 C 9.73 30.72 10.15 36.36 9.98 41.98 C 10.08 44.21 9.39 47.02 11.73 48.33 C 12.51 50.07 13.74 52.09 15.95 51.95 C 25.31 52.04 34.69 52.04 44.05 51.95 C 46.27 52.10 47.43 50.02 48.27 48.33 C 50.61 47.02 49.91 44.19 50.02 41.96 C 49.85 36.36 50.27 30.75 49.82 25.16 C 49.13 23.76 47.41 24.14 46.15 23.85 C 43.81 19.78 40.22 16.48 35.76 14.88 C 37.18 13.87 39.25 11.41 36.84 10.20 C 30.23 9.77 23.56 10.06 16.92 10.04 C 13.25 9.92 9.85 13.27 10.06 16.97 Z" />
<path fill="#ffffff" opacity="1.00" d=" M 15.29 14.52 C 18.15 13.49 21.37 14.13 24.37 14.05 C 22.06 16.49 18.53 17.37 16.46 20.15 C 14.25 19.20 12.93 16.10 15.29 14.52 Z" />
<path fill="#ffffff" opacity="1.00" d=" M 14.00 28.00 C 24.67 28.00 35.33 28.00 46.00 28.00 C 46.00 33.33 46.00 38.67 46.00 44.00 C 35.33 44.00 24.67 44.00 14.00 44.00 C 14.00 38.67 14.00 33.33 14.00 28.00 M 16.51 32.56 C 15.51 33.62 16.35 34.92 16.77 36.01 C 16.31 37.12 15.59 38.39 16.55 39.49 C 17.66 40.36 18.89 39.66 20.00 39.23 C 21.13 39.70 22.38 40.39 23.49 39.43 C 24.42 38.36 23.63 37.09 23.23 36.01 C 23.60 34.93 24.51 33.58 23.48 32.57 C 22.44 31.49 21.09 32.35 20.00 32.77 C 18.90 32.36 17.55 31.49 16.51 32.56 M 26.54 32.53 C 25.50 33.60 26.34 34.90 26.77 36.01 C 26.30 37.13 25.59 38.40 26.56 39.49 C 27.67 40.36 28.89 39.66 30.00 39.23 C 31.14 39.70 32.39 40.38 33.51 39.42 C 34.40 38.33 33.66 37.10 33.24 36.01 C 33.65 34.91 34.50 33.61 33.47 32.55 C 32.41 31.50 31.10 32.35 29.99 32.76 C 28.91 32.37 27.59 31.50 26.54 32.53 M 36.59 32.48 C 35.48 33.54 36.32 34.88 36.77 36.01 C 36.58 36.51 36.20 37.50 36.01 38.00 C 36.00 40.29 38.60 40.18 40.00 39.23 C 41.13 39.69 42.38 40.38 43.50 39.43 C 44.40 38.34 43.66 37.11 43.24 36.01 C 43.65 34.90 44.51 33.56 43.43 32.51 C 42.38 31.52 41.08 32.37 40.00 32.76 C 38.93 32.39 37.63 31.52 36.59 32.48 Z" />
</g>
<g id="#000000ff">
<path fill="#968176" opacity="1.00" d=" M 25.17 4.20 C 28.37 3.83 31.64 3.85 34.84 4.20 C 36.37 4.81 36.38 7.16 34.86 7.79 C 31.64 8.16 28.35 8.18 25.13 7.78 C 23.63 7.17 23.64 4.77 25.17 4.20 Z" />
<path fill="#968176" opacity="1.00" d=" M 10.06 16.97 C 9.85 13.27 13.25 9.92 16.92 10.04 C 23.56 10.06 30.23 9.77 36.84 10.20 C 39.25 11.41 37.18 13.87 35.76 14.88 C 40.22 16.48 43.81 19.78 46.15 23.85 C 47.41 24.14 49.13 23.76 49.82 25.16 C 50.27 30.75 49.85 36.36 50.02 41.96 C 49.91 44.19 50.61 47.02 48.27 48.33 C 47.43 50.02 46.27 52.10 44.05 51.95 C 34.69 52.04 25.31 52.04 15.95 51.95 C 13.74 52.09 12.51 50.07 11.73 48.33 C 9.39 47.02 10.08 44.21 9.98 41.98 C 10.15 36.36 9.73 30.72 10.18 25.12 C 11.03 23.58 13.05 24.21 14.45 23.90 C 12.21 22.24 10.26 19.85 10.06 16.97 M 15.29 14.52 C 12.93 16.10 14.25 19.20 16.46 20.15 C 18.53 17.37 22.06 16.49 24.37 14.05 C 21.37 14.13 18.15 13.49 15.29 14.52 M 14.00 28.00 C 14.00 33.33 14.00 38.67 14.00 44.00 C 24.67 44.00 35.33 44.00 46.00 44.00 C 46.00 38.67 46.00 33.33 46.00 28.00 C 35.33 28.00 24.67 28.00 14.00 28.00 Z" />
<path fill="#968176" opacity="1.00" d=" M 16.51 32.56 C 17.55 31.49 18.90 32.36 20.00 32.77 C 21.09 32.35 22.44 31.49 23.48 32.57 C 24.51 33.58 23.60 34.93 23.23 36.01 C 23.63 37.09 24.42 38.36 23.49 39.43 C 22.38 40.39 21.13 39.70 20.00 39.23 C 18.89 39.66 17.66 40.36 16.55 39.49 C 15.59 38.39 16.31 37.12 16.77 36.01 C 16.35 34.92 15.51 33.62 16.51 32.56 Z" />
<path fill="#968176" opacity="1.00" d=" M 26.54 32.53 C 27.59 31.50 28.91 32.37 29.99 32.76 C 31.10 32.35 32.41 31.50 33.47 32.55 C 34.50 33.61 33.65 34.91 33.24 36.01 C 33.66 37.10 34.40 38.33 33.51 39.42 C 32.39 40.38 31.14 39.70 30.00 39.23 C 28.89 39.66 27.67 40.36 26.56 39.49 C 25.59 38.40 26.30 37.13 26.77 36.01 C 26.34 34.90 25.50 33.60 26.54 32.53 Z" />
<path fill="#968176" opacity="1.00" d=" M 36.59 32.48 C 37.63 31.52 38.93 32.39 40.00 32.76 C 41.08 32.37 42.38 31.52 43.43 32.51 C 44.51 33.56 43.65 34.90 43.24 36.01 C 43.66 37.11 44.40 38.34 43.50 39.43 C 42.38 40.38 41.13 39.69 40.00 39.23 C 38.60 40.18 36.00 40.29 36.01 38.00 C 36.20 37.50 36.58 36.51 36.77 36.01 C 36.32 34.88 35.48 33.54 36.59 32.48 Z" />
</g>
</svg>
