<?xml version="1.0" encoding="UTF-8" ?>
<!DOCTYPE svg PUBLIC "-//W3C//DTD SVG 1.1//EN" "http://www.w3.org/Graphics/SVG/1.1/DTD/svg11.dtd">
<svg width="60pt" height="60pt" viewBox="0 0 60 60" version="1.1" xmlns="http://www.w3.org/2000/svg">
<g id="#ffffffff">
<path fill="#ffffff" opacity="1.00" d=" M 0.00 0.00 L 60.00 0.00 L 60.00 60.00 L 0.00 60.00 L 0.00 0.00 M 13.67 8.70 C 11.17 10.30 11.54 14.53 14.35 15.58 C 20.84 18.44 27.37 21.21 33.89 24.00 C 27.37 26.77 20.87 29.57 14.38 32.39 C 11.44 33.40 11.05 37.84 13.72 39.40 C 15.59 40.71 17.82 39.60 19.64 38.81 C 28.26 34.98 37.04 31.50 45.63 27.60 C 48.71 26.43 48.71 21.56 45.62 20.39 C 37.05 16.52 28.31 13.02 19.71 9.21 C 17.86 8.39 15.55 7.29 13.67 8.70 M 14.30 44.36 C 11.79 45.38 11.13 49.07 13.17 50.87 C 14.70 52.39 17.03 51.90 18.96 52.02 C 27.64 51.87 36.33 52.21 44.99 51.86 C 49.44 51.08 48.65 43.79 44.12 44.05 C 34.20 44.17 24.16 43.55 14.30 44.36 Z" />
</g>
<g id="#000000ff">
<path fill="#968176" opacity="1.00" d=" M 13.67 8.70 C 15.55 7.29 17.86 8.39 19.71 9.21 C 28.31 13.02 37.05 16.52 45.62 20.39 C 48.71 21.56 48.71 26.43 45.63 27.60 C 37.04 31.50 28.26 34.98 19.64 38.81 C 17.82 39.60 15.59 40.71 13.72 39.40 C 11.05 37.84 11.44 33.40 14.38 32.39 C 20.87 29.57 27.37 26.77 33.89 24.00 C 27.37 21.21 20.84 18.44 14.35 15.58 C 11.54 14.53 11.17 10.30 13.67 8.70 Z" />
<path fill="#968176" opacity="1.00" d=" M 14.30 44.36 C 24.16 43.55 34.20 44.17 44.12 44.05 C 48.65 43.79 49.44 51.08 44.99 51.86 C 36.33 52.21 27.64 51.87 18.96 52.02 C 17.03 51.90 14.70 52.39 13.17 50.87 C 11.13 49.07 11.79 45.38 14.30 44.36 Z" />
</g>
</svg>
