<?xml version="1.0" encoding="UTF-8" ?>
<!DOCTYPE svg PUBLIC "-//W3C//DTD SVG 1.1//EN" "http://www.w3.org/Graphics/SVG/1.1/DTD/svg11.dtd">
<svg width="200pt" height="200pt" viewBox="0 0 200 200" version="1.1" xmlns="http://www.w3.org/2000/svg">
<g id="#ffffffff">
<path fill="#ffffff" opacity="1.00" d=" M 0.00 0.00 L 200.00 0.00 L 200.00 200.00 L 0.00 200.00 L 0.00 0.00 M 36.69 36.34 C 36.65 78.90 36.67 121.46 36.68 164.02 C 79.26 164.14 121.85 164.07 164.44 164.08 C 164.45 121.50 164.43 78.92 164.44 36.33 C 121.86 36.32 79.27 36.32 36.69 36.34 Z" />
<path fill="#ffffff" opacity="1.00" d=" M 43.55 43.48 C 45.90 43.47 48.24 43.47 50.59 43.47 C 50.59 45.76 50.59 48.05 50.59 50.34 C 48.24 50.34 45.90 50.34 43.55 50.34 C 43.55 48.05 43.55 45.76 43.55 43.48 Z" />
<path fill="#ffffff" opacity="1.00" d=" M 59.10 43.39 C 61.37 43.39 63.63 43.39 65.90 43.39 C 65.90 45.69 65.90 47.98 65.91 50.28 C 63.63 50.28 61.36 50.28 59.09 50.28 C 59.09 47.98 59.09 45.69 59.10 43.39 Z" />
<path fill="#ffffff" opacity="1.00" d=" M 90.00 43.41 C 92.32 43.41 94.64 43.41 96.96 43.40 C 96.97 45.71 96.97 48.01 96.97 50.31 C 94.64 50.31 92.32 50.31 89.99 50.31 C 89.99 48.01 89.99 45.71 90.00 43.41 Z" />
<path fill="#ffffff" opacity="1.00" d=" M 104.04 43.45 C 106.37 43.45 108.69 43.46 111.02 43.46 C 111.03 45.75 111.03 48.03 111.02 50.32 C 108.69 50.32 106.36 50.33 104.03 50.32 C 104.03 48.03 104.03 45.74 104.04 43.45 Z" />
<path fill="#ffffff" opacity="1.00" d=" M 119.46 43.47 C 121.78 43.47 124.11 43.47 126.44 43.48 C 126.43 45.76 126.43 48.04 126.43 50.32 C 124.11 50.32 121.78 50.32 119.46 50.32 C 119.46 48.04 119.45 45.76 119.46 43.47 Z" />
<path fill="#ffffff" opacity="1.00" d=" M 134.93 43.41 C 137.28 43.41 139.64 43.40 141.99 43.40 C 142.00 45.70 142.00 48.00 142.00 50.29 C 139.64 50.29 137.29 50.29 134.93 50.29 C 134.93 48.00 134.92 45.71 134.93 43.41 Z" />
<path fill="#ffffff" opacity="1.00" d=" M 150.52 43.51 C 152.76 43.50 155.01 43.50 157.26 43.51 C 157.26 45.78 157.26 48.05 157.26 50.32 C 155.01 50.32 152.77 50.32 150.52 50.32 C 150.52 48.05 150.52 45.78 150.52 43.51 Z" />
<path fill="#ffffff" opacity="1.00" d=" M 74.37 50.31 C 74.36 48.04 74.36 45.77 74.37 43.50 C 76.74 43.50 79.11 43.50 81.48 43.50 C 81.48 45.77 81.48 48.04 81.48 50.31 C 79.11 50.31 76.74 50.31 74.37 50.31 Z" />
<path fill="#ffffff" opacity="1.00" d=" M 43.55 58.77 C 45.88 58.77 48.21 58.77 50.54 58.77 C 50.54 61.14 50.55 63.50 50.55 65.87 C 48.22 65.87 45.88 65.87 43.55 65.87 C 43.55 63.51 43.55 61.14 43.55 58.77 Z" />
<path fill="#ffffff" opacity="1.00" d=" M 59.11 58.80 C 61.39 58.80 63.67 58.80 65.95 58.80 C 65.95 61.14 65.95 63.48 65.95 65.81 C 63.67 65.81 61.39 65.81 59.11 65.81 C 59.11 63.47 59.11 61.14 59.11 58.80 Z" />
<path fill="#ffffff" opacity="1.00" d=" M 74.44 65.84 C 74.44 63.49 74.44 61.15 74.45 58.80 C 76.79 58.80 79.13 58.80 81.48 58.80 C 81.48 61.15 81.48 63.50 81.48 65.84 C 79.13 65.84 76.78 65.84 74.44 65.84 Z" />
<path fill="#ffffff" opacity="1.00" d=" M 89.98 58.71 C 92.29 58.71 94.60 58.71 96.92 58.71 C 96.92 61.09 96.92 63.47 96.92 65.86 C 94.60 65.86 92.29 65.86 89.98 65.86 C 89.97 63.47 89.97 61.09 89.98 58.71 Z" />
<path fill="#ffffff" opacity="1.00" d=" M 103.99 58.79 C 106.31 58.78 108.63 58.78 110.95 58.79 C 110.95 61.14 110.95 63.50 110.95 65.86 C 108.63 65.86 106.31 65.86 103.99 65.86 C 103.99 63.50 103.99 61.14 103.99 58.79 Z" />
<path fill="#ffffff" opacity="1.00" d=" M 119.50 58.75 C 121.80 58.75 124.10 58.75 126.40 58.76 C 126.40 61.13 126.40 63.51 126.40 65.89 C 124.10 65.89 121.80 65.89 119.50 65.89 C 119.50 63.51 119.50 61.13 119.50 58.75 Z" />
<path fill="#ffffff" opacity="1.00" d=" M 134.91 58.79 C 137.28 58.78 139.64 58.78 142.01 58.79 C 142.01 61.12 142.01 63.46 142.01 65.80 C 139.64 65.80 137.28 65.80 134.91 65.79 C 134.91 63.46 134.91 61.12 134.91 58.79 Z" />
<path fill="#ffffff" opacity="1.00" d=" M 150.50 58.80 C 152.78 58.80 155.06 58.80 157.34 58.80 C 157.34 61.14 157.34 63.47 157.34 65.81 C 155.06 65.81 152.78 65.81 150.50 65.81 C 150.50 63.47 150.50 61.14 150.50 58.80 Z" />
<path fill="#ffffff" opacity="1.00" d=" M 43.51 74.31 C 45.87 74.30 48.22 74.30 50.58 74.30 C 50.58 76.64 50.57 78.98 50.57 81.33 C 48.22 81.32 45.87 81.32 43.52 81.32 C 43.52 78.98 43.52 76.64 43.51 74.31 Z" />
<path fill="#ffffff" opacity="1.00" d=" M 59.04 74.33 C 61.34 74.33 63.63 74.33 65.93 74.33 C 65.94 76.65 65.94 78.97 65.94 81.29 C 63.63 81.29 61.33 81.29 59.03 81.29 C 59.03 78.97 59.03 76.65 59.04 74.33 Z" />
<path fill="#ffffff" opacity="1.00" d=" M 74.36 74.35 C 76.73 74.34 79.10 74.35 81.47 74.35 C 81.47 76.63 81.47 78.91 81.46 81.20 C 79.10 81.20 76.73 81.20 74.37 81.20 C 74.36 78.92 74.36 76.63 74.36 74.35 Z" />
<path fill="#ffffff" opacity="1.00" d=" M 89.93 74.35 C 92.25 74.35 94.58 74.34 96.90 74.34 C 96.90 76.67 96.90 79.00 96.90 81.32 C 94.58 81.32 92.25 81.32 89.93 81.32 C 89.92 79.00 89.93 76.67 89.93 74.35 Z" />
<path fill="#ffffff" opacity="1.00" d=" M 104.04 74.31 C 106.36 74.31 108.68 74.31 111.00 74.31 C 111.01 76.63 111.01 78.95 111.01 81.28 C 108.68 81.28 106.36 81.28 104.03 81.28 C 104.03 78.95 104.03 76.63 104.04 74.31 Z" />
<path fill="#ffffff" opacity="1.00" d=" M 119.41 74.33 C 121.73 74.33 124.06 74.33 126.39 74.34 C 126.39 76.67 126.39 79.00 126.38 81.34 C 124.06 81.34 121.74 81.34 119.42 81.34 C 119.41 79.00 119.40 76.67 119.41 74.33 Z" />
<path fill="#ffffff" opacity="1.00" d=" M 134.90 74.36 C 137.26 74.36 139.62 74.36 141.98 74.36 C 141.98 76.66 141.98 78.97 141.98 81.28 C 139.62 81.28 137.26 81.28 134.90 81.28 C 134.89 78.97 134.89 76.67 134.90 74.36 Z" />
<path fill="#ffffff" opacity="1.00" d=" M 150.50 74.38 C 152.79 74.38 155.08 74.38 157.38 74.38 C 157.37 76.68 157.37 78.99 157.37 81.29 C 155.08 81.29 152.79 81.29 150.51 81.29 C 150.50 78.99 150.50 76.68 150.50 74.38 Z" />
<path fill="#ffffff" opacity="1.00" d=" M 43.57 89.76 C 45.91 89.75 48.26 89.75 50.60 89.75 C 50.61 92.07 50.61 94.38 50.61 96.70 C 48.26 96.70 45.91 96.70 43.56 96.69 C 43.56 94.38 43.56 92.07 43.57 89.76 Z" />
<path fill="#ffffff" opacity="1.00" d=" M 59.10 89.74 C 61.38 89.74 63.65 89.74 65.94 89.74 C 65.94 92.09 65.94 94.43 65.93 96.78 C 63.65 96.78 61.37 96.78 59.10 96.78 C 59.09 94.43 59.09 92.09 59.10 89.74 Z" />
<path fill="#ffffff" opacity="1.00" d=" M 74.33 96.73 C 74.33 94.42 74.33 92.11 74.34 89.80 C 76.72 89.80 79.10 89.80 81.48 89.80 C 81.48 92.11 81.48 94.42 81.48 96.74 C 79.09 96.73 76.71 96.73 74.33 96.73 Z" />
<path fill="#ffffff" opacity="1.00" d=" M 89.96 89.86 C 92.29 89.86 94.62 89.86 96.95 89.86 C 96.95 92.15 96.95 94.43 96.95 96.72 C 94.62 96.72 92.29 96.72 89.96 96.72 C 89.96 94.43 89.96 92.15 89.96 89.86 Z" />
<path fill="#ffffff" opacity="1.00" d=" M 103.98 89.82 C 106.32 89.82 108.66 89.81 111.00 89.82 C 111.00 92.13 111.00 94.45 111.00 96.77 C 108.65 96.76 106.31 96.76 103.98 96.76 C 103.97 94.45 103.97 92.13 103.98 89.82 Z" />
<path fill="#ffffff" opacity="1.00" d=" M 119.45 96.74 C 119.45 94.41 119.46 92.08 119.46 89.75 C 121.77 89.75 124.09 89.75 126.40 89.76 C 126.40 92.09 126.40 94.42 126.40 96.75 C 124.08 96.75 121.77 96.75 119.45 96.74 Z" />
<path fill="#ffffff" opacity="1.00" d=" M 134.90 89.76 C 137.26 89.75 139.63 89.75 142.00 89.75 C 142.00 92.07 142.00 94.39 141.99 96.71 C 139.63 96.70 137.26 96.70 134.90 96.70 C 134.89 94.38 134.89 92.07 134.90 89.76 Z" />
<path fill="#ffffff" opacity="1.00" d=" M 150.49 89.74 C 152.77 89.74 155.05 89.74 157.34 89.74 C 157.34 92.07 157.34 94.39 157.33 96.72 C 155.05 96.72 152.77 96.71 150.48 96.71 C 150.48 94.38 150.49 92.06 150.49 89.74 Z" />
<path fill="#ffffff" opacity="1.00" d=" M 43.51 103.82 C 45.88 103.82 48.25 103.81 50.62 103.81 C 50.62 106.13 50.63 108.44 50.62 110.76 C 48.25 110.77 45.87 110.76 43.50 110.76 C 43.50 108.44 43.50 106.13 43.51 103.82 Z" />
<path fill="#ffffff" opacity="1.00" d=" M 59.10 103.82 C 61.37 103.82 63.66 103.81 65.94 103.82 C 65.94 106.14 65.94 108.46 65.93 110.78 C 63.65 110.78 61.38 110.78 59.10 110.78 C 59.09 108.46 59.09 106.14 59.10 103.82 Z" />
<path fill="#ffffff" opacity="1.00" d=" M 74.42 110.82 C 74.42 108.49 74.43 106.15 74.43 103.81 C 76.77 103.81 79.11 103.82 81.45 103.82 C 81.45 106.16 81.45 108.49 81.45 110.83 C 79.10 110.83 76.76 110.83 74.42 110.82 Z" />
<path fill="#ffffff" opacity="1.00" d=" M 89.96 103.83 C 92.29 103.83 94.62 103.83 96.95 103.83 C 96.95 106.15 96.95 108.47 96.95 110.78 C 94.62 110.78 92.29 110.78 89.96 110.78 C 89.96 108.46 89.96 106.15 89.96 103.83 Z" />
<path fill="#ffffff" opacity="1.00" d=" M 104.03 103.80 C 106.35 103.80 108.67 103.80 110.98 103.80 C 110.98 106.14 110.98 108.49 110.98 110.83 C 108.66 110.83 106.35 110.83 104.03 110.83 C 104.03 108.49 104.03 106.14 104.03 103.80 Z" />
<path fill="#ffffff" opacity="1.00" d=" M 119.44 110.76 C 119.44 108.46 119.44 106.16 119.44 103.86 C 121.77 103.86 124.09 103.86 126.42 103.87 C 126.42 106.16 126.42 108.46 126.42 110.77 C 124.09 110.76 121.76 110.76 119.44 110.76 Z" />
<path fill="#ffffff" opacity="1.00" d=" M 134.91 103.83 C 137.28 103.83 139.64 103.83 142.01 103.83 C 142.01 106.16 142.01 108.48 142.01 110.81 C 139.64 110.81 137.28 110.81 134.91 110.81 C 134.91 108.48 134.91 106.16 134.91 103.83 Z" />
<path fill="#ffffff" opacity="1.00" d=" M 150.49 103.80 C 152.77 103.80 155.05 103.80 157.34 103.80 C 157.34 106.13 157.34 108.45 157.34 110.78 C 155.05 110.78 152.77 110.78 150.49 110.78 C 150.49 108.46 150.48 106.13 150.49 103.80 Z" />
<path fill="#ffffff" opacity="1.00" d=" M 43.55 119.32 C 45.90 119.31 48.26 119.31 50.62 119.32 C 50.63 121.66 50.62 124.00 50.62 126.34 C 48.26 126.34 45.91 126.34 43.55 126.34 C 43.55 124.00 43.55 121.66 43.55 119.32 Z" />
<path fill="#ffffff" opacity="1.00" d=" M 59.11 119.27 C 61.37 119.27 63.62 119.27 65.87 119.27 C 65.87 121.64 65.87 124.02 65.87 126.40 C 63.62 126.40 61.36 126.40 59.11 126.40 C 59.11 124.02 59.11 121.64 59.11 119.27 Z" />
<path fill="#ffffff" opacity="1.00" d=" M 74.33 119.35 C 76.70 119.34 79.07 119.35 81.44 119.35 C 81.43 121.68 81.43 124.02 81.43 126.35 C 79.07 126.36 76.70 126.36 74.34 126.36 C 74.33 124.02 74.33 121.68 74.33 119.35 Z" />
<path fill="#ffffff" opacity="1.00" d=" M 90.01 119.33 C 92.32 119.33 94.63 119.33 96.95 119.33 C 96.95 121.68 96.95 124.03 96.95 126.39 C 94.63 126.39 92.32 126.39 90.00 126.39 C 90.00 124.03 90.00 121.68 90.01 119.33 Z" />
<path fill="#ffffff" opacity="1.00" d=" M 104.05 119.33 C 106.35 119.33 108.65 119.33 110.95 119.33 C 110.95 121.69 110.95 124.05 110.95 126.42 C 108.65 126.42 106.35 126.42 104.05 126.42 C 104.05 124.05 104.05 121.69 104.05 119.33 Z" />
<path fill="#ffffff" opacity="1.00" d=" M 119.47 119.29 C 121.79 119.28 124.11 119.28 126.44 119.29 C 126.43 121.65 126.43 124.02 126.43 126.38 C 124.11 126.39 121.79 126.39 119.47 126.39 C 119.47 124.02 119.47 121.65 119.47 119.29 Z" />
<path fill="#ffffff" opacity="1.00" d=" M 134.94 119.30 C 137.28 119.30 139.61 119.30 141.95 119.30 C 141.95 121.66 141.95 124.03 141.95 126.40 C 139.62 126.40 137.28 126.40 134.95 126.40 C 134.94 124.03 134.94 121.67 134.94 119.30 Z" />
<path fill="#ffffff" opacity="1.00" d=" M 150.47 119.31 C 152.76 119.30 155.04 119.30 157.34 119.30 C 157.34 121.66 157.34 124.02 157.34 126.39 C 155.05 126.39 152.76 126.39 150.47 126.39 C 150.47 124.03 150.47 121.66 150.47 119.31 Z" />
<path fill="#ffffff" opacity="1.00" d=" M 43.51 134.90 C 45.88 134.89 48.26 134.89 50.64 134.90 C 50.64 137.17 50.64 139.43 50.64 141.70 C 48.26 141.70 45.88 141.70 43.50 141.69 C 43.50 139.43 43.50 137.16 43.51 134.90 Z" />
<path fill="#ffffff" opacity="1.00" d=" M 59.08 134.85 C 61.38 134.85 63.67 134.85 65.97 134.85 C 65.97 137.13 65.97 139.41 65.96 141.69 C 63.67 141.68 61.38 141.68 59.08 141.69 C 59.08 139.41 59.08 137.13 59.08 134.85 Z" />
<path fill="#ffffff" opacity="1.00" d=" M 74.42 141.68 C 74.42 139.39 74.42 137.09 74.43 134.80 C 76.77 134.80 79.12 134.80 81.46 134.80 C 81.47 137.09 81.47 139.38 81.47 141.68 C 79.12 141.68 76.77 141.69 74.42 141.68 Z" />
<path fill="#ffffff" opacity="1.00" d=" M 89.96 134.85 C 92.30 134.85 94.64 134.85 96.98 134.85 C 96.98 137.12 96.98 139.39 96.98 141.66 C 94.64 141.65 92.30 141.65 89.96 141.65 C 89.96 139.38 89.96 137.12 89.96 134.85 Z" />
<path fill="#ffffff" opacity="1.00" d=" M 104.00 134.82 C 106.33 134.81 108.67 134.81 111.00 134.82 C 111.00 137.11 111.00 139.40 110.99 141.69 C 108.66 141.68 106.33 141.68 104.01 141.69 C 104.00 139.40 104.00 137.11 104.00 134.82 Z" />
<path fill="#ffffff" opacity="1.00" d=" M 119.42 141.67 C 119.42 139.39 119.42 137.11 119.43 134.83 C 121.77 134.83 124.12 134.83 126.46 134.84 C 126.47 137.11 126.46 139.39 126.47 141.66 C 124.12 141.67 121.77 141.67 119.42 141.67 Z" />
<path fill="#ffffff" opacity="1.00" d=" M 134.91 134.83 C 137.28 134.83 139.64 134.83 142.01 134.83 C 142.01 137.12 142.01 139.41 142.00 141.70 C 139.64 141.70 137.28 141.70 134.92 141.70 C 134.91 139.41 134.91 137.12 134.91 134.83 Z" />
<path fill="#ffffff" opacity="1.00" d=" M 150.47 134.85 C 152.77 134.85 155.06 134.85 157.35 134.85 C 157.35 137.13 157.35 139.40 157.36 141.68 C 155.06 141.68 152.76 141.69 150.47 141.68 C 150.47 139.40 150.47 137.13 150.47 134.85 Z" />
<path fill="#ffffff" opacity="1.00" d=" M 43.55 150.09 C 45.89 150.09 48.23 150.09 50.56 150.10 C 50.56 152.47 50.56 154.83 50.55 157.20 C 48.22 157.20 45.89 157.20 43.55 157.20 C 43.55 154.83 43.55 152.46 43.55 150.09 Z" />
<path fill="#ffffff" opacity="1.00" d=" M 59.03 150.16 C 61.33 150.16 63.62 150.16 65.92 150.16 C 65.92 152.51 65.92 154.87 65.92 157.23 C 63.62 157.23 61.33 157.23 59.03 157.23 C 59.03 154.87 59.03 152.51 59.03 150.16 Z" />
<path fill="#ffffff" opacity="1.00" d=" M 74.37 150.15 C 76.73 150.14 79.08 150.14 81.43 150.14 C 81.43 152.50 81.43 154.85 81.43 157.21 C 79.08 157.21 76.73 157.21 74.38 157.22 C 74.38 154.86 74.37 152.50 74.37 150.15 Z" />
<path fill="#ffffff" opacity="1.00" d=" M 89.94 150.16 C 92.27 150.16 94.59 150.16 96.92 150.16 C 96.92 152.52 96.92 154.89 96.92 157.26 C 94.59 157.26 92.27 157.26 89.94 157.26 C 89.94 154.89 89.94 152.52 89.94 150.16 Z" />
<path fill="#ffffff" opacity="1.00" d=" M 104.05 150.11 C 106.35 150.11 108.65 150.11 110.95 150.11 C 110.95 152.49 110.95 154.87 110.95 157.25 C 108.65 157.25 106.35 157.25 104.05 157.25 C 104.05 154.87 104.05 152.49 104.05 150.11 Z" />
<path fill="#ffffff" opacity="1.00" d=" M 119.50 150.11 C 121.80 150.11 124.10 150.11 126.40 150.11 C 126.40 152.48 126.40 154.84 126.40 157.21 C 124.10 157.21 121.80 157.21 119.50 157.21 C 119.50 154.84 119.50 152.48 119.50 150.11 Z" />
<path fill="#ffffff" opacity="1.00" d=" M 135.05 150.17 C 137.37 150.05 139.70 149.97 142.02 150.02 C 142.03 152.41 142.03 154.80 142.02 157.20 C 139.62 157.20 137.22 157.20 134.81 157.20 C 134.74 154.85 134.77 152.50 135.05 150.17 Z" />
<path fill="#ffffff" opacity="1.00" d=" M 150.51 150.18 C 152.76 150.19 155.02 150.19 157.27 150.19 C 157.28 152.55 157.28 154.91 157.28 157.28 C 155.02 157.28 152.76 157.28 150.50 157.28 C 150.50 154.91 150.50 152.55 150.51 150.18 Z" />
</g>
<g id="#000000ff">
<path fill="#968176" opacity="1.00" d=" M 36.69 36.34 C 79.27 36.32 121.86 36.32 164.44 36.33 C 164.43 78.92 164.45 121.50 164.44 164.08 C 121.85 164.07 79.26 164.14 36.68 164.02 C 36.67 121.46 36.65 78.90 36.69 36.34 M 43.55 43.48 C 43.55 45.76 43.55 48.05 43.55 50.34 C 45.90 50.34 48.24 50.34 50.59 50.34 C 50.59 48.05 50.59 45.76 50.59 43.47 C 48.24 43.47 45.90 43.47 43.55 43.48 M 59.10 43.39 C 59.09 45.69 59.09 47.98 59.09 50.28 C 61.36 50.28 63.63 50.28 65.91 50.28 C 65.90 47.98 65.90 45.69 65.90 43.39 C 63.63 43.39 61.37 43.39 59.10 43.39 M 90.00 43.41 C 89.99 45.71 89.99 48.01 89.99 50.31 C 92.32 50.31 94.64 50.31 96.97 50.31 C 96.97 48.01 96.97 45.71 96.96 43.40 C 94.64 43.41 92.32 43.41 90.00 43.41 M 104.04 43.45 C 104.03 45.74 104.03 48.03 104.03 50.32 C 106.36 50.33 108.69 50.32 111.02 50.32 C 111.03 48.03 111.03 45.75 111.02 43.46 C 108.69 43.46 106.37 43.45 104.04 43.45 M 119.46 43.47 C 119.45 45.76 119.46 48.04 119.46 50.32 C 121.78 50.32 124.11 50.32 126.43 50.32 C 126.43 48.04 126.43 45.76 126.44 43.48 C 124.11 43.47 121.78 43.47 119.46 43.47 M 134.93 43.41 C 134.92 45.71 134.93 48.00 134.93 50.29 C 137.29 50.29 139.64 50.29 142.00 50.29 C 142.00 48.00 142.00 45.70 141.99 43.40 C 139.64 43.40 137.28 43.41 134.93 43.41 M 150.52 43.51 C 150.52 45.78 150.52 48.05 150.52 50.32 C 152.77 50.32 155.01 50.32 157.26 50.32 C 157.26 48.05 157.26 45.78 157.26 43.51 C 155.01 43.50 152.76 43.50 150.52 43.51 M 74.37 50.31 C 76.74 50.31 79.11 50.31 81.48 50.31 C 81.48 48.04 81.48 45.77 81.48 43.50 C 79.11 43.50 76.74 43.50 74.37 43.50 C 74.36 45.77 74.36 48.04 74.37 50.31 M 43.55 58.77 C 43.55 61.14 43.55 63.51 43.55 65.87 C 45.88 65.87 48.22 65.87 50.55 65.87 C 50.55 63.50 50.54 61.14 50.54 58.77 C 48.21 58.77 45.88 58.77 43.55 58.77 M 59.11 58.80 C 59.11 61.14 59.11 63.47 59.11 65.81 C 61.39 65.81 63.67 65.81 65.95 65.81 C 65.95 63.48 65.95 61.14 65.95 58.80 C 63.67 58.80 61.39 58.80 59.11 58.80 M 74.44 65.84 C 76.78 65.84 79.13 65.84 81.48 65.84 C 81.48 63.50 81.48 61.15 81.48 58.80 C 79.13 58.80 76.79 58.80 74.45 58.80 C 74.44 61.15 74.44 63.49 74.44 65.84 M 89.98 58.71 C 89.97 61.09 89.97 63.47 89.98 65.86 C 92.29 65.86 94.60 65.86 96.92 65.86 C 96.92 63.47 96.92 61.09 96.92 58.71 C 94.60 58.71 92.29 58.71 89.98 58.71 M 103.99 58.79 C 103.99 61.14 103.99 63.50 103.99 65.86 C 106.31 65.86 108.63 65.86 110.95 65.86 C 110.95 63.50 110.95 61.14 110.95 58.79 C 108.63 58.78 106.31 58.78 103.99 58.79 M 119.50 58.75 C 119.50 61.13 119.50 63.51 119.50 65.89 C 121.80 65.89 124.10 65.89 126.40 65.89 C 126.40 63.51 126.40 61.13 126.40 58.76 C 124.10 58.75 121.80 58.75 119.50 58.75 M 134.91 58.79 C 134.91 61.12 134.91 63.46 134.91 65.79 C 137.28 65.80 139.64 65.80 142.01 65.80 C 142.01 63.46 142.01 61.12 142.01 58.79 C 139.64 58.78 137.28 58.78 134.91 58.79 M 150.50 58.80 C 150.50 61.14 150.50 63.47 150.50 65.81 C 152.78 65.81 155.06 65.81 157.34 65.81 C 157.34 63.47 157.34 61.14 157.34 58.80 C 155.06 58.80 152.78 58.80 150.50 58.80 M 43.51 74.31 C 43.52 76.64 43.52 78.98 43.52 81.32 C 45.87 81.32 48.22 81.32 50.57 81.33 C 50.57 78.98 50.58 76.64 50.58 74.30 C 48.22 74.30 45.87 74.30 43.51 74.31 M 59.04 74.33 C 59.03 76.65 59.03 78.97 59.03 81.29 C 61.33 81.29 63.63 81.29 65.94 81.29 C 65.94 78.97 65.94 76.65 65.93 74.33 C 63.63 74.33 61.34 74.33 59.04 74.33 M 74.36 74.35 C 74.36 76.63 74.36 78.92 74.37 81.20 C 76.73 81.20 79.10 81.20 81.46 81.20 C 81.47 78.91 81.47 76.63 81.47 74.35 C 79.10 74.35 76.73 74.34 74.36 74.35 M 89.93 74.35 C 89.93 76.67 89.92 79.00 89.93 81.32 C 92.25 81.32 94.58 81.32 96.90 81.32 C 96.90 79.00 96.90 76.67 96.90 74.34 C 94.58 74.34 92.25 74.35 89.93 74.35 M 104.04 74.31 C 104.03 76.63 104.03 78.95 104.03 81.28 C 106.36 81.28 108.68 81.28 111.01 81.28 C 111.01 78.95 111.01 76.63 111.00 74.31 C 108.68 74.31 106.36 74.31 104.04 74.31 M 119.41 74.33 C 119.40 76.67 119.41 79.00 119.42 81.34 C 121.74 81.34 124.06 81.34 126.38 81.34 C 126.39 79.00 126.39 76.67 126.39 74.34 C 124.06 74.33 121.73 74.33 119.41 74.33 M 134.90 74.36 C 134.89 76.67 134.89 78.97 134.90 81.28 C 137.26 81.28 139.62 81.28 141.98 81.28 C 141.98 78.97 141.98 76.66 141.98 74.36 C 139.62 74.36 137.26 74.36 134.90 74.36 M 150.50 74.38 C 150.50 76.68 150.50 78.99 150.51 81.29 C 152.79 81.29 155.08 81.29 157.37 81.29 C 157.37 78.99 157.37 76.68 157.38 74.38 C 155.08 74.38 152.79 74.38 150.50 74.38 M 43.57 89.76 C 43.56 92.07 43.56 94.38 43.56 96.69 C 45.91 96.70 48.26 96.70 50.61 96.70 C 50.61 94.38 50.61 92.07 50.60 89.75 C 48.26 89.75 45.91 89.75 43.57 89.76 M 59.10 89.74 C 59.09 92.09 59.09 94.43 59.10 96.78 C 61.37 96.78 63.65 96.78 65.93 96.78 C 65.94 94.43 65.94 92.09 65.94 89.74 C 63.65 89.74 61.38 89.74 59.10 89.74 M 74.33 96.73 C 76.71 96.73 79.09 96.73 81.48 96.74 C 81.48 94.42 81.48 92.11 81.48 89.80 C 79.10 89.80 76.72 89.80 74.34 89.80 C 74.33 92.11 74.33 94.42 74.33 96.73 M 89.96 89.86 C 89.96 92.15 89.96 94.43 89.96 96.72 C 92.29 96.72 94.62 96.72 96.95 96.72 C 96.95 94.43 96.95 92.15 96.95 89.86 C 94.62 89.86 92.29 89.86 89.96 89.86 M 103.98 89.82 C 103.97 92.13 103.97 94.45 103.98 96.76 C 106.31 96.76 108.65 96.76 111.00 96.77 C 111.00 94.45 111.00 92.13 111.00 89.82 C 108.66 89.81 106.32 89.82 103.98 89.82 M 119.45 96.74 C 121.77 96.75 124.08 96.75 126.40 96.75 C 126.40 94.42 126.40 92.09 126.40 89.76 C 124.09 89.75 121.77 89.75 119.46 89.75 C 119.46 92.08 119.45 94.41 119.45 96.74 M 134.90 89.76 C 134.89 92.07 134.89 94.38 134.90 96.70 C 137.26 96.70 139.63 96.70 141.99 96.71 C 142.00 94.39 142.00 92.07 142.00 89.75 C 139.63 89.75 137.26 89.75 134.90 89.76 M 150.49 89.74 C 150.49 92.06 150.48 94.38 150.48 96.71 C 152.77 96.71 155.05 96.72 157.33 96.72 C 157.34 94.39 157.34 92.07 157.34 89.74 C 155.05 89.74 152.77 89.74 150.49 89.74 M 43.51 103.82 C 43.50 106.13 43.50 108.44 43.50 110.76 C 45.87 110.76 48.25 110.77 50.62 110.76 C 50.63 108.44 50.62 106.13 50.62 103.81 C 48.25 103.81 45.88 103.82 43.51 103.82 M 59.10 103.82 C 59.09 106.14 59.09 108.46 59.10 110.78 C 61.38 110.78 63.65 110.78 65.93 110.78 C 65.94 108.46 65.94 106.14 65.94 103.82 C 63.66 103.81 61.37 103.82 59.10 103.82 M 74.42 110.82 C 76.76 110.83 79.10 110.83 81.45 110.83 C 81.45 108.49 81.45 106.16 81.45 103.82 C 79.11 103.82 76.77 103.81 74.43 103.81 C 74.43 106.15 74.42 108.49 74.42 110.82 M 89.96 103.83 C 89.96 106.15 89.96 108.46 89.96 110.78 C 92.29 110.78 94.62 110.78 96.95 110.78 C 96.95 108.47 96.95 106.15 96.95 103.83 C 94.62 103.83 92.29 103.83 89.96 103.83 M 104.03 103.80 C 104.03 106.14 104.03 108.49 104.03 110.83 C 106.35 110.83 108.66 110.83 110.98 110.83 C 110.98 108.49 110.98 106.14 110.98 103.80 C 108.67 103.80 106.35 103.80 104.03 103.80 M 119.44 110.76 C 121.76 110.76 124.09 110.76 126.42 110.77 C 126.42 108.46 126.42 106.16 126.42 103.87 C 124.09 103.86 121.77 103.86 119.44 103.86 C 119.44 106.16 119.44 108.46 119.44 110.76 M 134.91 103.83 C 134.91 106.16 134.91 108.48 134.91 110.81 C 137.28 110.81 139.64 110.81 142.01 110.81 C 142.01 108.48 142.01 106.16 142.01 103.83 C 139.64 103.83 137.28 103.83 134.91 103.83 M 150.49 103.80 C 150.48 106.13 150.49 108.46 150.49 110.78 C 152.77 110.78 155.05 110.78 157.34 110.78 C 157.34 108.45 157.34 106.13 157.34 103.80 C 155.05 103.80 152.77 103.80 150.49 103.80 M 43.55 119.32 C 43.55 121.66 43.55 124.00 43.55 126.34 C 45.91 126.34 48.26 126.34 50.62 126.34 C 50.62 124.00 50.63 121.66 50.62 119.32 C 48.26 119.31 45.90 119.31 43.55 119.32 M 59.11 119.27 C 59.11 121.64 59.11 124.02 59.11 126.40 C 61.36 126.40 63.62 126.40 65.87 126.40 C 65.87 124.02 65.87 121.64 65.87 119.27 C 63.62 119.27 61.37 119.27 59.11 119.27 M 74.33 119.35 C 74.33 121.68 74.33 124.02 74.34 126.36 C 76.70 126.36 79.07 126.36 81.43 126.35 C 81.43 124.02 81.43 121.68 81.44 119.35 C 79.07 119.35 76.70 119.34 74.33 119.35 M 90.01 119.33 C 90.00 121.68 90.00 124.03 90.00 126.39 C 92.32 126.39 94.63 126.39 96.95 126.39 C 96.95 124.03 96.95 121.68 96.95 119.33 C 94.63 119.33 92.32 119.33 90.01 119.33 M 104.05 119.33 C 104.05 121.69 104.05 124.05 104.05 126.42 C 106.35 126.42 108.65 126.42 110.95 126.42 C 110.95 124.05 110.95 121.69 110.95 119.33 C 108.65 119.33 106.35 119.33 104.05 119.33 M 119.47 119.29 C 119.47 121.65 119.47 124.02 119.47 126.39 C 121.79 126.39 124.11 126.39 126.43 126.38 C 126.43 124.02 126.43 121.65 126.44 119.29 C 124.11 119.28 121.79 119.28 119.47 119.29 M 134.94 119.30 C 134.94 121.67 134.94 124.03 134.95 126.40 C 137.28 126.40 139.62 126.40 141.95 126.40 C 141.95 124.03 141.95 121.66 141.95 119.30 C 139.61 119.30 137.28 119.30 134.94 119.30 M 150.47 119.31 C 150.47 121.66 150.47 124.03 150.47 126.39 C 152.76 126.39 155.05 126.39 157.34 126.39 C 157.34 124.02 157.34 121.66 157.34 119.30 C 155.04 119.30 152.76 119.30 150.47 119.31 M 43.51 134.90 C 43.50 137.16 43.50 139.43 43.50 141.69 C 45.88 141.70 48.26 141.70 50.64 141.70 C 50.64 139.43 50.64 137.17 50.64 134.90 C 48.26 134.89 45.88 134.89 43.51 134.90 M 59.08 134.85 C 59.08 137.13 59.08 139.41 59.08 141.69 C 61.38 141.68 63.67 141.68 65.96 141.69 C 65.97 139.41 65.97 137.13 65.97 134.85 C 63.67 134.85 61.38 134.85 59.08 134.85 M 74.42 141.68 C 76.77 141.69 79.12 141.68 81.47 141.68 C 81.47 139.38 81.47 137.09 81.46 134.80 C 79.12 134.80 76.77 134.80 74.43 134.80 C 74.42 137.09 74.42 139.39 74.42 141.68 M 89.96 134.85 C 89.96 137.12 89.96 139.38 89.96 141.65 C 92.30 141.65 94.64 141.65 96.98 141.66 C 96.98 139.39 96.98 137.12 96.98 134.85 C 94.64 134.85 92.30 134.85 89.96 134.85 M 104.00 134.82 C 104.00 137.11 104.00 139.40 104.01 141.69 C 106.33 141.68 108.66 141.68 110.99 141.69 C 111.00 139.40 111.00 137.11 111.00 134.82 C 108.67 134.81 106.33 134.81 104.00 134.82 M 119.42 141.67 C 121.77 141.67 124.12 141.67 126.47 141.66 C 126.46 139.39 126.47 137.11 126.46 134.84 C 124.12 134.83 121.77 134.83 119.43 134.83 C 119.42 137.11 119.42 139.39 119.42 141.67 M 134.91 134.83 C 134.91 137.12 134.91 139.41 134.92 141.70 C 137.28 141.70 139.64 141.70 142.00 141.70 C 142.01 139.41 142.01 137.12 142.01 134.83 C 139.64 134.83 137.28 134.83 134.91 134.83 M 150.47 134.85 C 150.47 137.13 150.47 139.40 150.47 141.68 C 152.76 141.69 155.06 141.68 157.36 141.68 C 157.35 139.40 157.35 137.13 157.35 134.85 C 155.06 134.85 152.77 134.85 150.47 134.85 M 43.55 150.09 C 43.55 152.46 43.55 154.83 43.55 157.20 C 45.89 157.20 48.22 157.20 50.55 157.20 C 50.56 154.83 50.56 152.47 50.56 150.10 C 48.23 150.09 45.89 150.09 43.55 150.09 M 59.03 150.16 C 59.03 152.51 59.03 154.87 59.03 157.23 C 61.33 157.23 63.62 157.23 65.92 157.23 C 65.92 154.87 65.92 152.51 65.92 150.16 C 63.62 150.16 61.33 150.16 59.03 150.16 M 74.37 150.15 C 74.37 152.50 74.38 154.86 74.38 157.22 C 76.73 157.21 79.08 157.21 81.43 157.21 C 81.43 154.85 81.43 152.50 81.43 150.14 C 79.08 150.14 76.73 150.14 74.37 150.15 M 89.94 150.16 C 89.94 152.52 89.94 154.89 89.94 157.26 C 92.27 157.26 94.59 157.26 96.92 157.26 C 96.92 154.89 96.92 152.52 96.92 150.16 C 94.59 150.16 92.27 150.16 89.94 150.16 M 104.05 150.11 C 104.05 152.49 104.05 154.87 104.05 157.25 C 106.35 157.25 108.65 157.25 110.95 157.25 C 110.95 154.87 110.95 152.49 110.95 150.11 C 108.65 150.11 106.35 150.11 104.05 150.11 M 119.50 150.11 C 119.50 152.48 119.50 154.84 119.50 157.21 C 121.80 157.21 124.10 157.21 126.40 157.21 C 126.40 154.84 126.40 152.48 126.40 150.11 C 124.10 150.11 121.80 150.11 119.50 150.11 M 135.05 150.17 C 134.77 152.50 134.74 154.85 134.81 157.20 C 137.22 157.20 139.62 157.20 142.02 157.20 C 142.03 154.80 142.03 152.41 142.02 150.02 C 139.70 149.97 137.37 150.05 135.05 150.17 M 150.51 150.18 C 150.50 152.55 150.50 154.91 150.50 157.28 C 152.76 157.28 155.02 157.28 157.28 157.28 C 157.28 154.91 157.28 152.55 157.27 150.19 C 155.02 150.19 152.76 150.19 150.51 150.18 Z" />
</g>
</svg>
