<?xml version="1.0" encoding="UTF-8" ?>
<!DOCTYPE svg PUBLIC "-//W3C//DTD SVG 1.1//EN" "http://www.w3.org/Graphics/SVG/1.1/DTD/svg11.dtd">
<svg width="200pt" height="200pt" viewBox="0 0 200 200" version="1.1" xmlns="http://www.w3.org/2000/svg">
<g id="#ffffffff">
<path fill="#ffffff" opacity="1.00" d=" M 0.00 0.00 L 200.00 0.00 L 200.00 200.00 L 0.00 200.00 L 0.00 0.00 M 30.35 54.21 C 21.00 58.61 14.46 67.69 11.56 77.44 C 10.31 82.11 9.22 87.22 10.99 91.91 C 12.41 96.84 15.80 101.70 21.03 102.98 C 27.74 104.63 34.55 101.71 40.03 97.99 C 39.32 101.30 38.68 104.61 38.01 107.93 C 42.78 106.12 47.86 105.04 52.97 105.18 C 64.07 105.16 74.39 110.81 85.55 110.07 C 89.13 113.04 93.02 115.61 96.99 118.03 C 87.90 119.27 78.76 122.61 72.18 129.21 C 67.60 133.68 64.80 139.75 63.95 146.06 C 73.76 148.48 84.13 147.31 94.04 145.92 C 98.01 138.22 101.64 130.33 105.84 122.75 C 115.66 128.23 126.89 130.59 138.09 130.18 C 140.07 137.97 145.81 145.09 153.82 147.08 C 165.04 149.91 176.40 145.26 186.09 139.88 C 176.25 135.96 166.42 132.03 156.57 128.12 C 161.74 126.91 166.70 124.97 171.40 122.52 C 176.73 121.07 182.32 120.78 187.70 119.52 C 190.99 118.12 190.54 112.85 187.07 112.01 C 184.65 111.82 182.22 111.92 179.79 111.94 C 178.67 112.90 177.48 113.77 176.15 114.41 C 160.24 122.52 141.62 125.43 124.06 121.98 C 116.46 120.32 109.67 116.18 103.59 111.46 C 93.15 103.20 84.52 92.92 76.71 82.21 C 74.36 84.36 72.58 87.16 72.33 90.41 C 69.12 87.92 65.48 86.09 62.04 83.97 C 61.93 73.39 58.55 61.85 49.73 55.28 C 44.20 51.01 36.43 51.29 30.35 54.21 M 115.93 61.89 C 119.39 69.87 121.60 78.43 121.96 87.14 C 130.34 90.54 138.74 93.88 147.12 97.25 C 152.32 92.10 157.42 86.78 163.32 82.40 C 152.08 68.56 134.16 58.70 115.93 61.89 M 80.00 79.94 C 85.92 88.17 92.55 95.89 99.93 102.84 C 105.01 99.05 109.60 94.65 114.10 90.20 C 114.22 81.02 111.96 71.90 108.00 63.64 C 97.59 66.75 87.35 71.75 80.00 79.94 M 152.10 103.48 C 152.62 108.30 154.47 112.82 156.02 117.38 C 162.99 115.67 169.71 113.07 176.15 109.92 C 175.80 102.19 172.27 95.06 168.14 88.68 C 162.35 93.11 157.27 98.36 152.10 103.48 M 120.42 95.19 C 115.84 99.76 111.13 104.23 105.93 108.09 C 108.79 110.30 111.73 112.41 114.90 114.16 C 124.84 119.90 136.88 120.07 147.99 118.89 C 146.39 114.25 144.75 109.58 144.14 104.68 C 136.24 101.49 128.33 98.34 120.42 95.19 Z" />
<path fill="#ffffff" opacity="1.00" d=" M 42.29 76.34 C 44.79 75.01 48.17 77.15 48.01 79.99 C 48.16 83.06 44.18 85.14 41.75 83.25 C 39.21 81.69 39.57 77.50 42.29 76.34 Z" />
</g>
<g id="#000000ff">
<path fill="#968176" opacity="1.00" d=" M 30.35 54.21 C 36.43 51.29 44.20 51.01 49.73 55.28 C 58.55 61.85 61.93 73.39 62.04 83.97 C 65.48 86.09 69.12 87.92 72.33 90.41 C 72.58 87.16 74.36 84.36 76.71 82.21 C 84.52 92.92 93.15 103.20 103.59 111.46 C 109.67 116.18 116.46 120.32 124.06 121.98 C 141.62 125.43 160.24 122.52 176.15 114.41 C 177.48 113.77 178.67 112.90 179.79 111.94 C 182.22 111.92 184.65 111.82 187.07 112.01 C 190.54 112.85 190.99 118.12 187.70 119.52 C 182.32 120.78 176.73 121.07 171.40 122.52 C 166.70 124.97 161.74 126.91 156.57 128.12 C 166.42 132.03 176.25 135.96 186.09 139.88 C 176.40 145.26 165.04 149.91 153.82 147.08 C 145.81 145.09 140.07 137.97 138.09 130.18 C 126.89 130.59 115.66 128.23 105.84 122.75 C 101.64 130.33 98.01 138.22 94.04 145.92 C 84.13 147.31 73.76 148.48 63.95 146.06 C 64.80 139.75 67.60 133.68 72.18 129.21 C 78.76 122.61 87.90 119.27 96.99 118.03 C 93.02 115.61 89.13 113.04 85.55 110.07 C 74.39 110.81 64.07 105.16 52.97 105.18 C 47.86 105.04 42.78 106.12 38.01 107.93 C 38.68 104.61 39.32 101.30 40.03 97.99 C 34.55 101.71 27.74 104.63 21.03 102.98 C 15.80 101.70 12.41 96.84 10.99 91.91 C 9.22 87.22 10.31 82.11 11.56 77.44 C 14.46 67.69 21.00 58.61 30.35 54.21 M 42.29 76.34 C 39.57 77.50 39.21 81.69 41.75 83.25 C 44.18 85.14 48.16 83.06 48.01 79.99 C 48.17 77.15 44.79 75.01 42.29 76.34 Z" />
<path fill="#968176" opacity="1.00" d=" M 115.93 61.89 C 134.16 58.70 152.08 68.56 163.32 82.40 C 157.42 86.78 152.32 92.10 147.12 97.25 C 138.74 93.88 130.34 90.54 121.96 87.14 C 121.60 78.43 119.39 69.87 115.93 61.89 Z" />
<path fill="#968176" opacity="1.00" d=" M 80.00 79.94 C 87.35 71.75 97.59 66.75 108.00 63.64 C 111.96 71.90 114.22 81.02 114.10 90.20 C 109.60 94.65 105.01 99.05 99.93 102.84 C 92.55 95.89 85.92 88.17 80.00 79.94 Z" />
<path fill="#968176" opacity="1.00" d=" M 152.10 103.48 C 157.27 98.36 162.35 93.11 168.14 88.68 C 172.27 95.06 175.80 102.19 176.15 109.92 C 169.71 113.07 162.99 115.67 156.02 117.38 C 154.47 112.82 152.62 108.30 152.10 103.48 Z" />
<path fill="#968176" opacity="1.00" d=" M 120.42 95.19 C 128.33 98.34 136.24 101.49 144.14 104.68 C 144.75 109.58 146.39 114.25 147.99 118.89 C 136.88 120.07 124.84 119.90 114.90 114.16 C 111.73 112.41 108.79 110.30 105.93 108.09 C 111.13 104.23 115.84 99.76 120.42 95.19 Z" />
</g>
</svg>
