<?xml version="1.0" encoding="UTF-8" ?>
<!DOCTYPE svg PUBLIC "-//W3C//DTD SVG 1.1//EN" "http://www.w3.org/Graphics/SVG/1.1/DTD/svg11.dtd">
<svg width="60pt" height="60pt" viewBox="0 0 60 60" version="1.1" xmlns="http://www.w3.org/2000/svg">
<g id="#ffffffff">
<path fill="#ffffff" opacity="1.00" d=" M 0.00 0.00 L 60.00 0.00 L 60.00 60.00 L 0.00 60.00 L 0.00 0.00 M 26.09 5.08 C 25.71 7.07 27.90 8.13 28.35 9.90 C 26.60 10.00 24.84 9.93 23.11 10.19 C 21.98 10.82 22.01 12.30 21.66 13.38 C 20.57 18.93 19.46 24.47 18.36 30.01 C 15.29 30.04 12.20 29.81 9.14 30.18 C 7.82 30.87 8.15 32.56 7.85 33.77 C 5.81 33.93 3.27 35.47 4.18 37.86 C 5.27 41.08 9.45 39.70 12.00 40.02 C 11.99 42.01 12.01 44.00 12.06 45.98 C 14.06 45.92 16.05 45.68 18.02 45.32 C 18.01 43.54 18.00 41.77 17.99 40.00 C 26.00 40.00 34.00 40.00 42.01 40.00 C 42.00 41.77 41.99 43.54 41.98 45.32 C 43.95 45.69 45.94 45.92 47.94 45.98 C 47.99 44.00 48.01 42.01 48.00 40.02 C 50.76 39.83 55.63 41.05 56.02 37.03 C 55.98 33.88 52.43 33.90 50.16 33.93 C 49.84 32.67 50.23 30.90 48.84 30.18 C 46.46 29.82 44.04 30.04 41.64 29.99 C 40.38 23.99 39.33 17.94 37.98 11.95 C 37.51 8.93 33.71 10.36 31.65 9.90 C 32.13 8.13 35.22 5.88 32.97 4.34 C 30.78 3.88 27.84 3.32 26.09 5.08 M 4.08 49.12 C 3.74 50.33 4.11 51.22 5.17 51.77 C 10.35 54.56 16.63 54.53 22.00 52.29 C 27.10 54.45 32.90 54.44 38.00 52.29 C 43.55 54.60 50.24 54.62 55.41 51.36 C 56.73 50.32 55.68 47.73 53.96 48.09 C 51.30 48.69 48.78 50.00 46.00 49.96 C 43.21 50.00 40.68 48.66 38.00 48.12 C 35.33 48.66 32.81 49.98 30.03 49.96 C 27.23 50.00 24.69 48.67 22.00 48.12 C 18.22 49.12 14.27 50.87 10.34 49.38 C 8.32 49.08 5.61 46.84 4.08 49.12 Z" />
<path fill="#ffffff" opacity="1.00" d=" M 22.43 30.00 C 23.59 24.74 24.36 19.39 25.71 14.18 C 26.28 14.09 27.42 13.91 27.99 13.82 C 28.01 19.21 27.99 24.61 28.00 30.00 C 26.15 30.00 24.29 30.00 22.43 30.00 Z" />
<path fill="#ffffff" opacity="1.00" d=" M 32.01 13.82 C 32.58 13.91 33.71 14.09 34.28 14.18 C 35.64 19.39 36.40 24.74 37.56 30.00 C 35.71 30.00 33.85 30.00 32.00 30.00 C 32.01 24.61 31.99 19.21 32.01 13.82 Z" />
</g>
<g id="#000000ff">
<path fill="#968176" opacity="1.00" d=" M 26.09 5.08 C 27.84 3.32 30.78 3.88 32.97 4.34 C 35.22 5.88 32.13 8.13 31.65 9.90 C 33.71 10.36 37.51 8.93 37.98 11.95 C 39.33 17.94 40.38 23.99 41.64 29.99 C 44.04 30.04 46.46 29.82 48.84 30.18 C 50.23 30.90 49.84 32.67 50.16 33.93 C 52.43 33.90 55.98 33.88 56.02 37.03 C 55.63 41.05 50.76 39.83 48.00 40.02 C 48.01 42.01 47.99 44.00 47.94 45.98 C 45.94 45.92 43.95 45.69 41.98 45.32 C 41.99 43.54 42.00 41.77 42.01 40.00 C 34.00 40.00 26.00 40.00 17.99 40.00 C 18.00 41.77 18.01 43.54 18.02 45.32 C 16.05 45.68 14.06 45.92 12.06 45.98 C 12.01 44.00 11.99 42.01 12.00 40.02 C 9.45 39.70 5.27 41.08 4.18 37.86 C 3.27 35.47 5.81 33.93 7.85 33.77 C 8.15 32.56 7.82 30.87 9.14 30.18 C 12.20 29.81 15.29 30.04 18.36 30.01 C 19.46 24.47 20.57 18.93 21.66 13.38 C 22.01 12.30 21.98 10.82 23.11 10.19 C 24.84 9.93 26.60 10.00 28.35 9.90 C 27.90 8.13 25.71 7.07 26.09 5.08 M 22.43 30.00 C 24.29 30.00 26.15 30.00 28.00 30.00 C 27.99 24.61 28.01 19.21 27.99 13.82 C 27.42 13.91 26.28 14.09 25.71 14.18 C 24.36 19.39 23.59 24.74 22.43 30.00 M 32.01 13.82 C 31.99 19.21 32.01 24.61 32.00 30.00 C 33.85 30.00 35.71 30.00 37.56 30.00 C 36.40 24.74 35.64 19.39 34.28 14.18 C 33.71 14.09 32.58 13.91 32.01 13.82 Z" />
<path fill="#968176" opacity="1.00" d=" M 4.08 49.12 C 5.61 46.84 8.32 49.08 10.34 49.38 C 14.27 50.87 18.22 49.12 22.00 48.12 C 24.69 48.67 27.23 50.00 30.03 49.96 C 32.81 49.98 35.33 48.66 38.00 48.12 C 40.68 48.66 43.21 50.00 46.00 49.96 C 48.78 50.00 51.30 48.69 53.96 48.09 C 55.68 47.73 56.73 50.32 55.41 51.36 C 50.24 54.62 43.55 54.60 38.00 52.29 C 32.90 54.44 27.10 54.45 22.00 52.29 C 16.63 54.53 10.35 54.56 5.17 51.77 C 4.11 51.22 3.74 50.33 4.08 49.12 Z" />
</g>
</svg>
