<?xml version="1.0" encoding="UTF-8" ?>
<!DOCTYPE svg PUBLIC "-//W3C//DTD SVG 1.1//EN" "http://www.w3.org/Graphics/SVG/1.1/DTD/svg11.dtd">
<svg width="60pt" height="60pt" viewBox="0 0 60 60" version="1.1" xmlns="http://www.w3.org/2000/svg">
<g id="#ffffffff">
<path fill="#ffffff" opacity="1.00" d=" M 0.00 0.00 L 60.00 0.00 L 60.00 60.00 L 0.00 60.00 L 0.00 0.00 M 19.41 4.59 C 15.19 6.38 14.88 12.96 18.92 15.14 C 22.65 17.62 28.16 14.49 27.99 10.03 C 28.19 5.80 23.18 2.57 19.41 4.59 M 32.59 12.59 C 34.34 16.60 40.23 17.09 42.77 13.58 C 43.02 13.51 43.52 13.39 43.77 13.33 C 44.75 16.25 47.08 18.09 50.20 18.23 C 49.76 16.64 49.74 14.78 48.51 13.54 C 47.32 12.17 44.83 12.75 43.96 11.07 C 44.29 7.91 42.36 4.59 39.07 4.10 C 34.49 3.03 30.34 8.44 32.59 12.59 M 14.05 25.89 C 13.93 29.62 13.97 33.36 14.01 37.09 C 13.67 38.68 14.95 39.58 15.99 40.48 C 16.10 44.61 15.75 48.77 16.19 52.89 C 16.99 54.29 19.15 54.42 19.88 52.88 C 20.72 47.89 20.46 42.77 21.27 37.77 C 21.66 37.96 22.44 38.36 22.84 38.56 C 23.63 43.26 23.22 48.10 24.11 52.77 C 24.67 54.83 28.10 54.08 27.92 52.04 C 28.13 48.45 27.96 44.86 27.97 41.27 C 29.30 41.64 30.65 41.95 32.00 42.23 C 32.07 45.77 31.78 49.33 32.18 52.85 C 32.90 54.30 35.20 54.41 35.89 52.87 C 36.54 49.17 36.48 45.40 36.84 41.67 C 37.42 41.83 38.58 42.17 39.16 42.34 C 39.65 45.85 39.42 49.43 40.11 52.92 C 40.87 54.40 43.05 54.28 43.81 52.87 C 44.22 49.33 43.93 45.75 44.00 42.19 C 44.71 42.08 46.14 41.85 46.86 41.74 C 48.58 41.10 47.75 39.17 47.59 37.85 C 46.39 33.16 45.78 28.30 44.16 23.73 C 42.16 19.49 36.39 19.07 32.99 21.86 C 29.12 19.24 24.29 20.04 19.89 20.05 C 16.77 19.96 13.95 22.76 14.05 25.89 Z" />
<path fill="#ffffff" opacity="1.00" d=" M 24.17 28.80 C 23.24 26.15 25.74 24.33 27.95 23.65 C 28.05 24.41 28.24 25.91 28.34 26.67 C 29.16 28.54 31.37 27.76 32.88 27.39 C 34.13 29.05 36.34 30.52 35.96 32.89 C 35.62 35.63 31.90 37.03 29.92 35.07 C 27.88 33.13 25.52 31.30 24.17 28.80 Z" />
</g>
<g id="#000000ff">
<path fill="#968176" opacity="1.00" d=" M 19.41 4.59 C 23.18 2.57 28.19 5.80 27.99 10.03 C 28.16 14.49 22.65 17.62 18.92 15.14 C 14.88 12.96 15.19 6.38 19.41 4.59 Z" />
<path fill="#968176" opacity="1.00" d=" M 32.59 12.59 C 30.34 8.44 34.49 3.03 39.07 4.10 C 42.36 4.59 44.29 7.91 43.96 11.07 C 44.83 12.75 47.32 12.17 48.51 13.54 C 49.74 14.78 49.76 16.64 50.20 18.23 C 47.08 18.09 44.75 16.25 43.77 13.33 C 43.52 13.39 43.02 13.51 42.77 13.58 C 40.23 17.09 34.34 16.60 32.59 12.59 Z" />
<path fill="#968176" opacity="1.00" d=" M 14.05 25.89 C 13.95 22.76 16.77 19.96 19.89 20.05 C 24.29 20.04 29.12 19.24 32.99 21.86 C 36.39 19.07 42.16 19.49 44.16 23.73 C 45.78 28.30 46.39 33.16 47.59 37.85 C 47.75 39.17 48.58 41.10 46.86 41.74 C 46.14 41.85 44.71 42.08 44.00 42.19 C 43.93 45.75 44.22 49.33 43.81 52.87 C 43.05 54.28 40.87 54.40 40.11 52.92 C 39.42 49.43 39.65 45.85 39.16 42.34 C 38.58 42.17 37.42 41.83 36.84 41.67 C 36.48 45.40 36.54 49.17 35.89 52.87 C 35.20 54.41 32.90 54.30 32.18 52.85 C 31.78 49.33 32.07 45.77 32.00 42.23 C 30.65 41.95 29.30 41.64 27.97 41.27 C 27.96 44.86 28.13 48.45 27.92 52.04 C 28.10 54.08 24.67 54.83 24.11 52.77 C 23.22 48.10 23.63 43.26 22.84 38.56 C 22.44 38.36 21.66 37.96 21.27 37.77 C 20.46 42.77 20.72 47.89 19.88 52.88 C 19.15 54.42 16.99 54.29 16.19 52.89 C 15.75 48.77 16.10 44.61 15.99 40.48 C 14.95 39.58 13.67 38.68 14.01 37.09 C 13.97 33.36 13.93 29.62 14.05 25.89 M 24.17 28.80 C 25.52 31.30 27.88 33.13 29.92 35.07 C 31.90 37.03 35.62 35.63 35.96 32.89 C 36.34 30.52 34.13 29.05 32.88 27.39 C 31.37 27.76 29.16 28.54 28.34 26.67 C 28.24 25.91 28.05 24.41 27.95 23.65 C 25.74 24.33 23.24 26.15 24.17 28.80 Z" />
</g>
</svg>
