<?xml version="1.0" encoding="UTF-8" ?>
<!DOCTYPE svg PUBLIC "-//W3C//DTD SVG 1.1//EN" "http://www.w3.org/Graphics/SVG/1.1/DTD/svg11.dtd">
<svg width="60pt" height="60pt" viewBox="0 0 60 60" version="1.1" xmlns="http://www.w3.org/2000/svg">
<g id="#ffffffff">
<path fill="#ffffff" opacity="1.00" d=" M 0.00 0.00 L 60.00 0.00 L 60.00 60.00 L 0.00 60.00 L 0.00 0.00 M 28.36 8.44 C 22.87 11.24 17.63 14.50 12.16 17.34 C 10.64 18.29 8.49 19.06 8.17 21.08 C 7.77 24.64 8.09 28.23 7.99 31.81 C 8.52 32.11 9.58 32.71 10.11 33.01 C 10.04 34.49 9.25 35.61 8.03 36.40 C 8.03 40.97 7.89 45.55 8.06 50.11 C 7.94 52.68 10.63 54.32 12.98 54.00 C 24.33 54.00 35.69 54.01 47.04 54.00 C 49.38 54.33 51.98 52.65 51.94 50.13 C 52.12 45.56 51.96 40.98 51.97 36.40 C 49.58 35.41 49.55 32.58 51.97 31.60 C 51.95 28.08 52.22 24.53 51.82 21.02 C 51.53 19.27 49.74 18.48 48.40 17.62 C 43.46 14.92 38.54 12.17 33.64 9.40 C 32.05 8.58 30.14 7.39 28.36 8.44 Z" />
<path fill="#ffffff" opacity="1.00" d=" M 25.73 22.72 C 25.15 19.08 29.08 17.67 32.00 17.86 C 32.00 21.91 32.00 25.96 32.00 30.00 C 31.24 30.00 29.71 30.00 28.95 30.00 C 28.95 26.90 28.95 23.81 28.97 20.72 C 27.90 21.39 26.82 22.06 25.73 22.72 Z" />
<path fill="#ffffff" opacity="1.00" d=" M 26.00 37.99 C 28.30 38.00 30.63 37.83 32.90 38.26 C 35.78 39.12 36.47 43.33 34.34 45.30 C 32.94 46.68 30.83 46.31 29.06 46.59 C 29.05 47.73 29.05 48.86 29.04 50.00 C 28.28 50.00 26.76 50.00 26.00 50.00 C 26.00 46.00 26.00 41.99 26.00 37.99 M 29.13 40.03 C 29.11 41.49 29.07 42.96 29.02 44.42 C 30.31 44.06 33.13 44.09 32.39 41.93 C 32.57 40.17 30.16 40.64 29.13 40.03 Z" />
</g>
<g id="#000000ff">
<path fill="#968176" opacity="1.00" d=" M 28.36 8.44 C 30.14 7.39 32.05 8.58 33.64 9.40 C 38.54 12.17 43.46 14.92 48.40 17.62 C 49.74 18.48 51.53 19.27 51.82 21.02 C 52.22 24.53 51.95 28.08 51.97 31.60 C 49.55 32.58 49.58 35.41 51.97 36.40 C 51.96 40.98 52.12 45.56 51.94 50.13 C 51.98 52.65 49.38 54.33 47.04 54.00 C 35.69 54.01 24.33 54.00 12.98 54.00 C 10.63 54.32 7.94 52.68 8.06 50.11 C 7.89 45.55 8.03 40.97 8.03 36.40 C 9.25 35.61 10.04 34.49 10.11 33.01 C 9.58 32.71 8.52 32.11 7.99 31.81 C 8.09 28.23 7.77 24.64 8.17 21.08 C 8.49 19.06 10.64 18.29 12.16 17.34 C 17.63 14.50 22.87 11.24 28.36 8.44 M 25.73 22.72 C 26.82 22.06 27.90 21.39 28.97 20.72 C 28.95 23.81 28.95 26.90 28.95 30.00 C 29.71 30.00 31.24 30.00 32.00 30.00 C 32.00 25.96 32.00 21.91 32.00 17.86 C 29.08 17.67 25.15 19.08 25.73 22.72 M 26.00 37.99 C 26.00 41.99 26.00 46.00 26.00 50.00 C 26.76 50.00 28.28 50.00 29.04 50.00 C 29.05 48.86 29.05 47.73 29.06 46.59 C 30.83 46.31 32.94 46.68 34.34 45.30 C 36.47 43.33 35.78 39.12 32.90 38.26 C 30.63 37.83 28.30 38.00 26.00 37.99 Z" />
<path fill="#968176" opacity="1.00" d=" M 29.13 40.03 C 30.16 40.64 32.57 40.17 32.39 41.93 C 33.13 44.09 30.31 44.06 29.02 44.42 C 29.07 42.96 29.11 41.49 29.13 40.03 Z" />
</g>
</svg>
