<?xml version="1.0" encoding="UTF-8" ?>
<!DOCTYPE svg PUBLIC "-//W3C//DTD SVG 1.1//EN" "http://www.w3.org/Graphics/SVG/1.1/DTD/svg11.dtd">
<svg width="60pt" height="60pt" viewBox="0 0 60 60" version="1.1" xmlns="http://www.w3.org/2000/svg">
<g id="#ffffffff">
<path fill="#ffffff" opacity="1.00" d=" M 0.00 0.00 L 60.00 0.00 L 60.00 60.00 L 0.00 60.00 L 0.00 0.00 M 12.14 17.35 C 10.63 18.30 8.54 19.04 8.16 21.01 C 7.78 24.54 8.06 28.10 8.02 31.64 C 10.47 32.56 10.43 35.40 8.03 36.37 C 8.02 40.94 7.90 45.51 8.05 50.07 C 7.92 52.63 10.57 54.31 12.92 54.00 C 24.31 54.00 35.70 54.00 47.09 54.00 C 49.45 54.33 52.03 52.58 51.95 50.05 C 52.11 45.49 51.96 40.92 51.98 36.36 C 49.54 35.44 49.55 32.58 51.97 31.63 C 51.69 27.69 52.81 23.40 51.24 19.69 C 46.87 16.20 41.52 14.13 36.78 11.17 C 34.33 10.03 32.01 7.76 29.15 8.12 C 23.31 10.86 17.89 14.43 12.14 17.35 Z" />
<path fill="#ffffff" opacity="1.00" d=" M 21.19 22.14 C 23.51 21.04 25.21 24.89 22.81 25.80 C 20.49 27.01 18.77 23.10 21.19 22.14 Z" />
<path fill="#ffffff" opacity="1.00" d=" M 29.21 22.16 C 31.55 21.03 33.25 25.00 30.74 25.83 C 28.45 26.96 26.78 23.02 29.21 22.16 Z" />
<path fill="#ffffff" opacity="1.00" d=" M 37.24 22.08 C 39.60 21.13 41.20 24.98 38.74 25.82 C 36.41 26.97 34.82 23.00 37.24 22.08 Z" />
<path fill="#ffffff" opacity="1.00" d=" M 26.00 38.00 C 28.28 37.99 30.59 37.85 32.85 38.24 C 35.77 39.07 36.49 43.31 34.34 45.30 C 32.94 46.69 30.83 46.31 29.05 46.58 C 29.05 47.72 29.05 48.86 29.05 50.00 C 28.28 50.00 26.76 50.00 26.00 50.00 C 26.00 46.00 26.00 42.00 26.00 38.00 M 29.10 40.07 C 29.12 41.52 29.10 42.96 29.01 44.41 C 30.38 44.05 33.19 44.09 32.38 41.84 C 32.48 40.14 30.12 40.62 29.10 40.07 Z" />
</g>
<g id="#000000ff">
<path fill="#968176" opacity="1.00" d=" M 12.14 17.35 C 17.89 14.43 23.31 10.86 29.15 8.12 C 32.01 7.76 34.33 10.03 36.78 11.17 C 41.52 14.13 46.87 16.20 51.24 19.69 C 52.81 23.40 51.69 27.69 51.97 31.63 C 49.55 32.58 49.54 35.44 51.98 36.36 C 51.96 40.92 52.11 45.49 51.95 50.05 C 52.03 52.58 49.45 54.33 47.09 54.00 C 35.70 54.00 24.31 54.00 12.92 54.00 C 10.57 54.31 7.92 52.63 8.05 50.07 C 7.90 45.51 8.02 40.94 8.03 36.37 C 10.43 35.40 10.47 32.56 8.02 31.64 C 8.06 28.10 7.78 24.54 8.16 21.01 C 8.54 19.04 10.63 18.30 12.14 17.35 M 21.19 22.14 C 18.77 23.10 20.49 27.01 22.81 25.80 C 25.21 24.89 23.51 21.04 21.19 22.14 M 29.21 22.16 C 26.78 23.02 28.45 26.96 30.74 25.83 C 33.25 25.00 31.55 21.03 29.21 22.16 M 37.24 22.08 C 34.82 23.00 36.41 26.97 38.74 25.82 C 41.20 24.98 39.60 21.13 37.24 22.08 M 26.00 38.00 C 26.00 42.00 26.00 46.00 26.00 50.00 C 26.76 50.00 28.28 50.00 29.05 50.00 C 29.05 48.86 29.05 47.72 29.05 46.58 C 30.83 46.31 32.94 46.69 34.34 45.30 C 36.49 43.31 35.77 39.07 32.85 38.24 C 30.59 37.85 28.28 37.99 26.00 38.00 Z" />
<path fill="#968176" opacity="1.00" d=" M 29.10 40.07 C 30.12 40.62 32.48 40.14 32.38 41.84 C 33.19 44.09 30.38 44.05 29.01 44.41 C 29.10 42.96 29.12 41.52 29.10 40.07 Z" />
</g>
</svg>
