<?xml version="1.0" encoding="UTF-8" ?>
<!DOCTYPE svg PUBLIC "-//W3C//DTD SVG 1.1//EN" "http://www.w3.org/Graphics/SVG/1.1/DTD/svg11.dtd">
<svg width="60pt" height="60pt" viewBox="0 0 60 60" version="1.1" xmlns="http://www.w3.org/2000/svg">
<g id="#ffffffff">
<path fill="#ffffff" opacity="1.00" d=" M 0.00 0.00 L 60.00 0.00 L 60.00 60.00 L 0.00 60.00 L 0.00 0.00 M 27.56 6.14 C 24.03 7.33 21.35 10.05 20.13 13.56 C 18.83 14.34 17.81 15.38 17.95 17.01 C 18.47 17.30 19.50 17.88 20.01 18.18 C 20.01 19.45 20.00 20.73 20.00 22.00 C 21.33 22.00 22.67 22.00 24.00 22.00 C 24.00 20.67 24.00 19.33 24.00 18.00 C 25.33 18.00 26.67 18.00 28.00 18.00 C 28.00 19.33 28.00 20.67 28.00 22.00 C 29.33 22.00 30.67 22.00 32.00 22.00 C 32.00 20.67 32.00 19.33 32.00 18.00 C 33.33 18.00 34.67 18.00 36.00 18.00 C 36.00 19.33 36.00 20.67 36.00 22.00 C 37.33 22.00 38.66 22.00 39.99 22.00 C 40.00 20.77 40.01 19.54 40.02 18.31 C 42.59 17.44 42.38 14.36 39.84 13.58 C 38.67 10.04 35.95 7.34 32.43 6.15 C 31.60 3.45 28.40 3.44 27.56 6.14 M 4.00 26.00 C 4.06 32.70 3.89 39.42 4.06 46.12 C 3.93 48.64 6.59 50.32 8.91 50.00 C 22.95 50.01 36.99 50.00 51.03 50.00 C 53.34 50.35 55.96 48.67 55.93 46.18 C 56.12 39.46 55.93 32.73 56.00 26.00 C 38.67 26.00 21.33 26.00 4.00 26.00 Z" />
<path fill="#ffffff" opacity="1.00" d=" M 8.00 30.00 C 9.33 30.00 10.67 30.00 12.00 30.00 C 12.00 31.33 12.00 32.67 12.00 34.00 C 10.67 34.00 9.33 34.00 8.00 34.00 C 8.00 32.67 8.00 31.33 8.00 30.00 Z" />
<path fill="#ffffff" opacity="1.00" d=" M 16.00 30.00 C 17.33 30.00 18.67 30.00 20.00 30.00 C 20.00 31.33 20.00 32.67 20.00 34.00 C 18.67 34.00 17.33 34.00 16.00 34.00 C 16.00 32.67 16.00 31.33 16.00 30.00 Z" />
<path fill="#ffffff" opacity="1.00" d=" M 24.00 30.00 C 25.33 30.00 26.67 30.00 28.00 30.00 C 28.00 31.33 28.00 32.67 28.00 34.00 C 26.67 34.00 25.33 34.00 24.00 34.00 C 24.00 32.67 24.00 31.33 24.00 30.00 Z" />
<path fill="#ffffff" opacity="1.00" d=" M 32.00 30.00 C 33.33 30.00 34.67 30.00 36.00 30.00 C 36.00 31.33 36.00 32.67 36.00 34.00 C 34.67 34.00 33.33 34.00 32.00 34.00 C 32.00 32.67 32.00 31.33 32.00 30.00 Z" />
<path fill="#ffffff" opacity="1.00" d=" M 40.00 30.00 C 41.33 30.00 42.67 30.00 44.00 30.00 C 44.00 31.33 44.00 32.67 44.00 34.00 C 42.67 34.00 41.33 34.00 40.00 34.00 C 40.00 32.67 40.00 31.33 40.00 30.00 Z" />
<path fill="#ffffff" opacity="1.00" d=" M 48.00 30.00 C 49.33 30.00 50.67 30.00 52.00 30.00 C 52.00 31.33 52.00 32.67 52.00 34.00 C 50.67 34.00 49.33 34.00 48.00 34.00 C 48.00 32.67 48.00 31.33 48.00 30.00 Z" />
<path fill="#ffffff" opacity="1.00" d=" M 8.00 38.00 C 9.33 38.00 10.67 38.00 12.00 38.00 C 12.00 40.67 12.00 43.33 12.00 46.00 C 10.67 46.00 9.33 46.00 8.00 46.00 C 8.00 43.33 8.00 40.67 8.00 38.00 Z" />
<path fill="#ffffff" opacity="1.00" d=" M 16.00 38.00 C 17.33 38.00 18.67 38.00 20.00 38.00 C 20.00 40.67 20.00 43.33 20.00 46.00 C 18.67 46.00 17.33 46.00 16.00 46.00 C 16.00 43.33 16.00 40.67 16.00 38.00 Z" />
<path fill="#ffffff" opacity="1.00" d=" M 24.00 38.00 C 25.33 38.00 26.67 38.00 28.00 38.00 C 28.00 40.67 28.00 43.33 28.00 46.00 C 26.67 46.00 25.33 46.00 24.00 46.00 C 24.00 43.33 24.00 40.67 24.00 38.00 Z" />
<path fill="#ffffff" opacity="1.00" d=" M 32.00 38.00 C 33.33 38.00 34.67 38.00 36.00 38.00 C 36.00 40.67 36.00 43.33 36.00 46.00 C 34.67 46.00 33.33 46.00 32.00 46.00 C 32.00 43.33 32.00 40.67 32.00 38.00 Z" />
<path fill="#ffffff" opacity="1.00" d=" M 40.00 38.00 C 41.33 38.00 42.67 38.00 44.00 38.00 C 44.00 40.67 44.00 43.33 44.00 46.00 C 42.67 46.00 41.33 46.00 40.00 46.00 C 40.00 43.33 40.00 40.67 40.00 38.00 Z" />
<path fill="#ffffff" opacity="1.00" d=" M 48.00 38.00 C 49.33 38.00 50.67 38.00 52.00 38.00 C 52.00 40.67 52.00 43.33 52.00 46.00 C 50.67 46.00 49.33 46.00 48.00 46.00 C 48.00 43.33 48.00 40.67 48.00 38.00 Z" />
</g>
<g id="#000000ff">
<path fill="#968176" opacity="1.00" d=" M 27.56 6.14 C 28.40 3.44 31.60 3.45 32.43 6.15 C 35.95 7.34 38.67 10.04 39.84 13.58 C 42.38 14.36 42.59 17.44 40.02 18.31 C 40.01 19.54 40.00 20.77 39.99 22.00 C 38.66 22.00 37.33 22.00 36.00 22.00 C 36.00 20.67 36.00 19.33 36.00 18.00 C 34.67 18.00 33.33 18.00 32.00 18.00 C 32.00 19.33 32.00 20.67 32.00 22.00 C 30.67 22.00 29.33 22.00 28.00 22.00 C 28.00 20.67 28.00 19.33 28.00 18.00 C 26.67 18.00 25.33 18.00 24.00 18.00 C 24.00 19.33 24.00 20.67 24.00 22.00 C 22.67 22.00 21.33 22.00 20.00 22.00 C 20.00 20.73 20.01 19.45 20.01 18.18 C 19.50 17.88 18.47 17.30 17.95 17.01 C 17.81 15.38 18.83 14.34 20.13 13.56 C 21.35 10.05 24.03 7.33 27.56 6.14 Z" />
<path fill="#968176" opacity="1.00" d=" M 4.00 26.00 C 21.33 26.00 38.67 26.00 56.00 26.00 C 55.93 32.73 56.12 39.46 55.93 46.18 C 55.96 48.67 53.34 50.35 51.03 50.00 C 36.99 50.00 22.95 50.01 8.91 50.00 C 6.59 50.32 3.93 48.64 4.06 46.12 C 3.89 39.42 4.06 32.70 4.00 26.00 M 8.00 30.00 C 8.00 31.33 8.00 32.67 8.00 34.00 C 9.33 34.00 10.67 34.00 12.00 34.00 C 12.00 32.67 12.00 31.33 12.00 30.00 C 10.67 30.00 9.33 30.00 8.00 30.00 M 16.00 30.00 C 16.00 31.33 16.00 32.67 16.00 34.00 C 17.33 34.00 18.67 34.00 20.00 34.00 C 20.00 32.67 20.00 31.33 20.00 30.00 C 18.67 30.00 17.33 30.00 16.00 30.00 M 24.00 30.00 C 24.00 31.33 24.00 32.67 24.00 34.00 C 25.33 34.00 26.67 34.00 28.00 34.00 C 28.00 32.67 28.00 31.33 28.00 30.00 C 26.67 30.00 25.33 30.00 24.00 30.00 M 32.00 30.00 C 32.00 31.33 32.00 32.67 32.00 34.00 C 33.33 34.00 34.67 34.00 36.00 34.00 C 36.00 32.67 36.00 31.33 36.00 30.00 C 34.67 30.00 33.33 30.00 32.00 30.00 M 40.00 30.00 C 40.00 31.33 40.00 32.67 40.00 34.00 C 41.33 34.00 42.67 34.00 44.00 34.00 C 44.00 32.67 44.00 31.33 44.00 30.00 C 42.67 30.00 41.33 30.00 40.00 30.00 M 48.00 30.00 C 48.00 31.33 48.00 32.67 48.00 34.00 C 49.33 34.00 50.67 34.00 52.00 34.00 C 52.00 32.67 52.00 31.33 52.00 30.00 C 50.67 30.00 49.33 30.00 48.00 30.00 M 8.00 38.00 C 8.00 40.67 8.00 43.33 8.00 46.00 C 9.33 46.00 10.67 46.00 12.00 46.00 C 12.00 43.33 12.00 40.67 12.00 38.00 C 10.67 38.00 9.33 38.00 8.00 38.00 M 16.00 38.00 C 16.00 40.67 16.00 43.33 16.00 46.00 C 17.33 46.00 18.67 46.00 20.00 46.00 C 20.00 43.33 20.00 40.67 20.00 38.00 C 18.67 38.00 17.33 38.00 16.00 38.00 M 24.00 38.00 C 24.00 40.67 24.00 43.33 24.00 46.00 C 25.33 46.00 26.67 46.00 28.00 46.00 C 28.00 43.33 28.00 40.67 28.00 38.00 C 26.67 38.00 25.33 38.00 24.00 38.00 M 32.00 38.00 C 32.00 40.67 32.00 43.33 32.00 46.00 C 33.33 46.00 34.67 46.00 36.00 46.00 C 36.00 43.33 36.00 40.67 36.00 38.00 C 34.67 38.00 33.33 38.00 32.00 38.00 M 40.00 38.00 C 40.00 40.67 40.00 43.33 40.00 46.00 C 41.33 46.00 42.67 46.00 44.00 46.00 C 44.00 43.33 44.00 40.67 44.00 38.00 C 42.67 38.00 41.33 38.00 40.00 38.00 M 48.00 38.00 C 48.00 40.67 48.00 43.33 48.00 46.00 C 49.33 46.00 50.67 46.00 52.00 46.00 C 52.00 43.33 52.00 40.67 52.00 38.00 C 50.67 38.00 49.33 38.00 48.00 38.00 Z" />
</g>
</svg>
