<?xml version="1.0" encoding="UTF-8" ?>
<!DOCTYPE svg PUBLIC "-//W3C//DTD SVG 1.1//EN" "http://www.w3.org/Graphics/SVG/1.1/DTD/svg11.dtd">
<svg width="200pt" height="200pt" viewBox="0 0 200 200" version="1.1" xmlns="http://www.w3.org/2000/svg">
<g id="#ffffffff">
<path fill="#ffffff" opacity="1.00" d=" M 0.00 0.00 L 200.00 0.00 L 200.00 98.88 C 199.61 94.80 198.15 90.74 195.30 87.71 C 182.57 74.66 165.96 65.81 148.41 61.19 C 142.89 55.12 136.91 49.12 129.23 45.81 C 123.23 43.07 116.56 41.76 109.97 42.04 C 104.60 42.34 99.75 46.65 98.89 51.96 C 98.49 54.65 98.57 57.37 98.53 60.08 C 93.33 60.97 88.17 62.07 83.05 63.36 C 71.86 57.88 58.57 55.13 46.51 59.39 C 41.59 60.93 37.99 65.81 38.03 70.98 C 37.90 74.10 39.49 76.88 40.83 79.58 C 38.78 80.65 36.72 81.73 34.67 82.81 C 29.09 80.64 23.63 78.13 17.97 76.16 C 12.44 74.22 5.62 76.75 3.18 82.20 C 1.19 86.79 0.48 91.82 0.00 96.77 L 0.00 0.00 Z" />
<path fill="#ffffff" opacity="1.00" d=" M 110.05 53.52 C 116.79 52.97 123.50 55.11 129.15 58.70 C 122.75 58.41 116.34 58.43 109.95 58.96 C 109.99 57.15 110.03 55.33 110.05 53.52 Z" />
<path fill="#ffffff" opacity="1.00" d=" M 49.15 70.72 C 54.16 68.36 59.88 68.46 65.25 69.16 C 60.60 71.06 55.90 72.84 51.32 74.90 C 50.61 73.50 49.89 72.11 49.15 70.72 Z" />
<path fill="#ffffff" opacity="1.00" d=" M 95.56 72.52 C 112.28 69.23 129.76 68.77 146.37 72.92 C 138.81 90.00 139.99 109.82 146.80 126.93 C 130.15 131.15 112.58 130.81 95.80 127.48 C 90.74 115.37 87.74 101.96 90.10 88.87 C 91.03 83.16 93.03 77.69 95.56 72.52 Z" />
<path fill="#ffffff" opacity="1.00" d=" M 42.08 92.12 C 54.60 85.46 67.77 79.95 81.39 75.96 C 75.87 91.51 76.80 108.74 82.08 124.21 C 68.66 120.35 55.69 114.97 43.30 108.52 C 41.89 107.91 41.84 106.17 41.41 104.90 C 40.23 100.69 40.57 96.20 42.08 92.12 Z" />
<path fill="#ffffff" opacity="1.00" d=" M 157.94 123.30 C 151.85 108.53 150.59 91.22 157.57 76.52 C 168.14 80.77 177.88 87.05 186.08 94.96 C 188.85 97.33 189.10 102.00 186.49 104.57 C 178.34 112.62 168.54 118.98 157.94 123.30 M 167.31 95.25 C 163.68 97.12 163.71 102.93 167.37 104.76 C 170.77 106.88 175.67 104.03 175.52 100.03 C 175.73 95.97 170.74 93.06 167.31 95.25 Z" />
<path fill="#ffffff" opacity="1.00" d=" M 13.62 112.92 C 11.05 104.46 10.22 94.93 13.82 86.65 C 19.15 88.87 24.52 90.99 29.86 93.18 C 29.04 97.59 29.17 102.11 30.01 106.51 C 24.51 108.56 19.27 111.35 13.62 112.92 Z" />
<path fill="#ffffff" opacity="1.00" d=" M 194.32 113.30 C 197.64 110.17 199.53 105.81 200.00 101.31 L 200.00 200.00 L 0.00 200.00 L 0.00 101.86 C 0.48 107.20 1.26 112.65 3.40 117.61 C 5.67 122.60 11.69 125.19 16.94 123.92 C 23.03 122.28 28.53 118.91 34.59 117.22 C 36.78 118.04 38.76 119.32 40.82 120.40 C 39.50 123.11 37.89 125.89 38.03 129.01 C 37.99 134.19 41.62 139.07 46.55 140.60 C 58.61 144.84 71.87 142.08 83.06 136.62 C 88.17 137.90 93.32 139.00 98.51 139.89 C 98.65 144.08 98.09 148.73 100.62 152.38 C 103.01 156.17 107.55 158.31 112.00 158.01 C 125.51 158.01 138.24 150.87 146.63 140.51 C 148.16 138.14 151.12 137.92 153.59 137.17 C 168.86 132.71 182.90 124.34 194.32 113.30 Z" />
<path fill="#ffffff" opacity="1.00" d=" M 51.33 125.08 C 55.92 127.13 60.62 128.92 65.27 130.83 C 59.90 131.50 54.17 131.62 49.17 129.26 C 49.90 127.87 50.62 126.48 51.33 125.08 Z" />
<path fill="#ffffff" opacity="1.00" d=" M 109.96 141.01 C 116.34 141.53 122.75 141.56 129.15 141.26 C 123.50 144.85 116.78 147.02 110.03 146.44 C 110.02 144.63 109.99 142.82 109.96 141.01 Z" />
</g>
<g id="#000000ff">
<path fill="#968176" opacity="1.00" d=" M 98.89 51.96 C 99.75 46.65 104.60 42.34 109.97 42.04 C 116.56 41.76 123.23 43.07 129.23 45.81 C 136.91 49.12 142.89 55.12 148.41 61.19 C 165.96 65.81 182.57 74.66 195.30 87.71 C 198.15 90.74 199.61 94.80 200.00 98.88 L 200.00 101.31 C 199.53 105.81 197.64 110.17 194.32 113.30 C 182.90 124.34 168.86 132.71 153.59 137.17 C 151.12 137.92 148.16 138.14 146.63 140.51 C 138.24 150.87 125.51 158.01 112.00 158.01 C 107.55 158.31 103.01 156.17 100.62 152.38 C 98.09 148.73 98.65 144.08 98.51 139.89 C 93.32 139.00 88.17 137.90 83.06 136.62 C 71.87 142.08 58.61 144.84 46.55 140.60 C 41.62 139.07 37.99 134.19 38.03 129.01 C 37.89 125.89 39.50 123.11 40.82 120.40 C 38.76 119.32 36.78 118.04 34.59 117.22 C 28.53 118.91 23.03 122.28 16.94 123.92 C 11.69 125.19 5.67 122.60 3.40 117.61 C 1.26 112.65 0.48 107.20 0.00 101.86 L 0.00 96.77 C 0.48 91.82 1.19 86.79 3.18 82.20 C 5.62 76.75 12.44 74.22 17.97 76.16 C 23.63 78.13 29.09 80.64 34.67 82.81 C 36.72 81.73 38.78 80.65 40.83 79.58 C 39.49 76.88 37.90 74.10 38.03 70.98 C 37.99 65.81 41.59 60.93 46.51 59.39 C 58.57 55.13 71.86 57.88 83.05 63.36 C 88.17 62.07 93.33 60.97 98.53 60.08 C 98.57 57.37 98.49 54.65 98.89 51.96 M 110.05 53.52 C 110.03 55.33 109.99 57.15 109.95 58.96 C 116.34 58.43 122.75 58.41 129.15 58.70 C 123.50 55.11 116.79 52.97 110.05 53.52 M 49.15 70.72 C 49.89 72.11 50.61 73.50 51.32 74.90 C 55.90 72.84 60.60 71.06 65.25 69.16 C 59.88 68.46 54.16 68.36 49.15 70.72 M 95.56 72.52 C 93.03 77.69 91.03 83.16 90.10 88.87 C 87.74 101.96 90.74 115.37 95.80 127.48 C 112.58 130.81 130.15 131.15 146.80 126.93 C 139.99 109.82 138.81 90.00 146.37 72.92 C 129.76 68.77 112.28 69.23 95.56 72.52 M 42.08 92.12 C 40.57 96.20 40.23 100.69 41.41 104.90 C 41.84 106.17 41.89 107.91 43.30 108.52 C 55.69 114.97 68.66 120.35 82.08 124.21 C 76.80 108.74 75.87 91.51 81.39 75.96 C 67.77 79.95 54.60 85.46 42.08 92.12 M 157.94 123.30 C 168.54 118.98 178.34 112.62 186.49 104.57 C 189.10 102.00 188.85 97.33 186.08 94.96 C 177.88 87.05 168.14 80.77 157.57 76.52 C 150.59 91.22 151.85 108.53 157.94 123.30 M 13.62 112.92 C 19.27 111.35 24.51 108.56 30.01 106.51 C 29.17 102.11 29.04 97.59 29.86 93.18 C 24.52 90.99 19.15 88.87 13.82 86.65 C 10.22 94.93 11.05 104.46 13.62 112.92 M 51.33 125.08 C 50.62 126.48 49.90 127.87 49.17 129.26 C 54.17 131.62 59.90 131.50 65.27 130.83 C 60.62 128.92 55.92 127.13 51.33 125.08 M 109.96 141.01 C 109.99 142.82 110.02 144.63 110.03 146.44 C 116.78 147.02 123.50 144.85 129.15 141.26 C 122.75 141.56 116.34 141.53 109.96 141.01 Z" />
<path fill="#968176" opacity="1.00" d=" M 167.31 95.25 C 170.74 93.06 175.73 95.97 175.52 100.03 C 175.67 104.03 170.77 106.88 167.37 104.76 C 163.71 102.93 163.68 97.12 167.31 95.25 Z" />
</g>
</svg>
