<?xml version="1.0" encoding="UTF-8" ?>
<!DOCTYPE svg PUBLIC "-//W3C//DTD SVG 1.1//EN" "http://www.w3.org/Graphics/SVG/1.1/DTD/svg11.dtd">
<svg width="60pt" height="60pt" viewBox="0 0 60 60" version="1.1" xmlns="http://www.w3.org/2000/svg">
<g id="#ffffffff">
<path fill="#ffffff" opacity="1.00" d=" M 0.00 0.00 L 60.00 0.00 L 60.00 60.00 L 0.00 60.00 L 0.00 0.00 M 25.27 19.79 C 23.94 20.12 22.03 20.20 21.94 21.99 C 22.27 24.72 25.56 23.77 27.43 24.10 C 26.78 27.35 26.08 30.60 24.89 33.69 C 23.21 34.06 21.85 34.94 21.82 36.83 C 19.46 38.58 18.06 41.04 17.78 43.99 C 25.92 44.01 34.07 44.01 42.21 43.99 C 41.90 41.07 40.52 38.59 38.17 36.83 C 38.14 34.95 36.79 34.06 35.11 33.69 C 33.86 30.61 33.27 27.33 32.55 24.10 C 34.29 23.76 37.91 24.72 37.94 22.04 C 38.27 20.23 35.91 20.11 34.73 19.79 C 37.68 16.03 34.96 9.87 30.05 10.00 C 25.10 9.79 22.26 16.00 25.27 19.79 M 15.11 48.20 C 13.29 48.95 13.88 52.12 15.94 51.88 C 24.63 52.21 33.36 51.87 42.06 52.03 C 43.53 51.96 45.99 52.16 46.00 50.03 C 45.93 47.43 42.73 48.13 41.01 47.95 C 32.38 48.21 23.73 47.68 15.11 48.20 Z" />
</g>
<g id="#000000ff">
<path fill="#968176" opacity="1.00" d=" M 25.27 19.79 C 22.26 16.00 25.10 9.79 30.05 10.00 C 34.96 9.87 37.68 16.03 34.73 19.79 C 35.91 20.11 38.27 20.23 37.94 22.04 C 37.91 24.72 34.29 23.76 32.55 24.10 C 33.27 27.33 33.86 30.61 35.11 33.69 C 36.79 34.06 38.14 34.95 38.17 36.83 C 40.52 38.59 41.90 41.07 42.21 43.99 C 34.07 44.01 25.92 44.01 17.78 43.99 C 18.06 41.04 19.46 38.58 21.82 36.83 C 21.85 34.94 23.21 34.06 24.89 33.69 C 26.08 30.60 26.78 27.35 27.43 24.10 C 25.56 23.77 22.27 24.72 21.94 21.99 C 22.03 20.20 23.94 20.12 25.27 19.79 Z" />
<path fill="#968176" opacity="1.00" d=" M 15.11 48.20 C 23.73 47.68 32.38 48.21 41.01 47.95 C 42.73 48.13 45.93 47.43 46.00 50.03 C 45.99 52.16 43.53 51.96 42.06 52.03 C 33.36 51.87 24.63 52.21 15.94 51.88 C 13.88 52.12 13.29 48.95 15.11 48.20 Z" />
</g>
</svg>
