<?xml version="1.0" encoding="UTF-8" ?>
<!DOCTYPE svg PUBLIC "-//W3C//DTD SVG 1.1//EN" "http://www.w3.org/Graphics/SVG/1.1/DTD/svg11.dtd">
<svg width="60pt" height="60pt" viewBox="0 0 60 60" version="1.1" xmlns="http://www.w3.org/2000/svg">
<g id="#ffffffff">
<path fill="#ffffff" opacity="1.00" d=" M 0.00 0.00 L 60.00 0.00 L 60.00 60.00 L 0.00 60.00 L 0.00 0.00 M 27.31 6.48 C 21.62 8.21 20.16 16.57 24.90 20.14 C 29.09 23.92 36.58 21.48 37.73 15.96 C 39.54 10.08 33.00 4.12 27.31 6.48 M 12.65 35.47 C 11.39 36.98 9.26 38.70 10.24 40.91 C 12.05 44.93 14.16 48.81 16.16 52.74 C 16.85 54.77 20.24 54.08 19.97 51.90 C 18.81 48.06 17.16 44.39 15.79 40.62 C 17.58 39.40 19.39 38.21 21.20 37.02 C 21.72 42.67 21.89 48.33 22.00 54.00 C 27.33 54.00 32.67 54.00 38.00 54.00 C 38.10 48.34 38.27 42.67 38.80 37.03 C 40.62 38.20 42.42 39.40 44.21 40.63 C 42.81 44.42 41.16 48.13 40.00 52.00 C 39.91 54.13 43.12 54.72 43.83 52.75 C 45.84 48.84 47.94 44.95 49.74 40.94 C 50.74 38.71 48.60 36.97 47.34 35.45 C 43.90 31.94 41.16 27.02 35.93 26.04 C 34.42 30.11 32.85 34.16 31.40 38.25 C 32.15 40.12 32.81 43.67 30.00 44.04 C 27.18 43.68 27.85 40.13 28.59 38.26 C 27.10 34.17 25.49 30.13 23.94 26.06 C 18.76 27.10 16.10 32.01 12.65 35.47 M 26.06 26.01 C 27.35 29.35 28.61 32.70 29.94 36.03 C 31.40 32.75 32.51 29.34 33.80 26.00 C 31.22 26.00 28.64 26.00 26.06 26.01 Z" />
</g>
<g id="#000000ff">
<path fill="#968176" opacity="1.00" d=" M 27.31 6.48 C 33.00 4.12 39.54 10.08 37.73 15.96 C 36.58 21.48 29.09 23.92 24.90 20.14 C 20.16 16.57 21.62 8.21 27.31 6.48 Z" />
<path fill="#968176" opacity="1.00" d=" M 12.65 35.47 C 16.10 32.01 18.76 27.10 23.94 26.06 C 25.49 30.13 27.10 34.17 28.59 38.26 C 27.85 40.13 27.18 43.68 30.00 44.04 C 32.81 43.67 32.15 40.12 31.40 38.25 C 32.85 34.16 34.42 30.11 35.93 26.04 C 41.16 27.02 43.90 31.94 47.34 35.45 C 48.60 36.97 50.74 38.71 49.74 40.94 C 47.94 44.95 45.84 48.84 43.83 52.75 C 43.12 54.72 39.91 54.13 40.00 52.00 C 41.16 48.13 42.81 44.42 44.21 40.63 C 42.42 39.40 40.62 38.20 38.80 37.03 C 38.27 42.67 38.10 48.34 38.00 54.00 C 32.67 54.00 27.33 54.00 22.00 54.00 C 21.89 48.33 21.72 42.67 21.20 37.02 C 19.39 38.21 17.58 39.40 15.79 40.62 C 17.16 44.39 18.81 48.06 19.97 51.90 C 20.24 54.08 16.85 54.77 16.16 52.74 C 14.16 48.81 12.05 44.93 10.24 40.91 C 9.26 38.70 11.39 36.98 12.65 35.47 Z" />
<path fill="#968176" opacity="1.00" d=" M 26.06 26.01 C 28.64 26.00 31.22 26.00 33.80 26.00 C 32.51 29.34 31.40 32.75 29.94 36.03 C 28.61 32.70 27.35 29.35 26.06 26.01 Z" />
</g>
</svg>
