<?xml version="1.0" encoding="UTF-8" ?>
<!DOCTYPE svg PUBLIC "-//W3C//DTD SVG 1.1//EN" "http://www.w3.org/Graphics/SVG/1.1/DTD/svg11.dtd">
<svg width="60pt" height="60pt" viewBox="0 0 60 60" version="1.1" xmlns="http://www.w3.org/2000/svg">
<g id="#ffffffff">
<path fill="#ffffff" opacity="1.00" d=" M 0.00 0.00 L 60.00 0.00 L 60.00 60.00 L 0.00 60.00 L 0.00 0.00 M 7.22 8.12 C 4.93 9.94 6.30 13.56 6.06 16.13 C 6.04 20.85 10.62 23.54 14.49 25.04 C 9.38 29.12 6.61 36.15 8.68 42.53 C 10.26 47.84 15.66 50.94 20.90 51.60 C 24.96 52.03 28.66 55.27 32.89 53.58 C 36.80 51.38 41.56 51.84 45.43 49.54 C 49.65 47.38 52.17 42.67 51.98 37.98 C 52.09 33.10 49.53 28.61 45.96 25.44 C 48.25 24.38 50.64 23.23 52.19 21.16 C 54.54 18.29 53.99 14.34 53.99 10.90 C 54.16 9.59 53.56 7.93 51.98 8.00 C 47.40 9.09 43.69 12.38 41.01 16.13 C 36.70 8.67 25.15 7.92 19.93 14.78 C 16.54 11.41 12.14 8.25 7.22 8.12 Z" />
<path fill="#ffffff" opacity="1.00" d=" M 23.21 20.09 C 25.61 19.18 27.14 22.82 24.81 23.87 C 22.39 24.90 20.84 21.12 23.21 20.09 Z" />
<path fill="#ffffff" opacity="1.00" d=" M 35.20 20.10 C 37.56 19.10 39.21 22.91 36.77 23.81 C 34.43 24.99 32.82 21.05 35.20 20.10 Z" />
<path fill="#ffffff" opacity="1.00" d=" M 22.31 30.47 C 24.81 24.45 35.16 24.44 37.68 30.46 C 38.68 32.51 37.14 34.41 36.08 36.05 C 32.03 35.97 27.98 35.97 23.93 36.05 C 22.86 34.42 21.32 32.52 22.31 30.47 M 25.99 29.88 C 25.05 30.85 24.60 32.43 25.52 33.59 C 28.25 35.50 29.06 29.63 25.99 29.88 M 33.05 29.89 C 31.80 30.89 31.52 33.11 33.08 33.96 C 35.66 34.32 35.60 29.73 33.05 29.89 Z" />
<path fill="#ffffff" opacity="1.00" d=" M 19.96 42.14 C 26.41 39.56 33.58 39.51 39.99 42.25 C 37.38 45.12 34.14 48.03 30.00 47.97 C 25.81 48.04 22.58 45.04 19.96 42.14 Z" />
</g>
<g id="#000000ff">
<path fill="#968176" opacity="1.00" d=" M 7.22 8.12 C 12.14 8.25 16.54 11.41 19.93 14.78 C 25.15 7.92 36.70 8.67 41.01 16.13 C 43.69 12.38 47.40 9.09 51.98 8.00 C 53.56 7.93 54.16 9.59 53.99 10.90 C 53.99 14.34 54.54 18.29 52.19 21.16 C 50.64 23.23 48.25 24.38 45.96 25.44 C 49.53 28.61 52.09 33.10 51.98 37.98 C 52.17 42.67 49.65 47.38 45.43 49.54 C 41.56 51.84 36.80 51.38 32.89 53.58 C 28.66 55.27 24.96 52.03 20.90 51.60 C 15.66 50.94 10.26 47.84 8.68 42.53 C 6.61 36.15 9.38 29.12 14.49 25.04 C 10.62 23.54 6.04 20.85 6.06 16.13 C 6.30 13.56 4.93 9.94 7.22 8.12 M 23.21 20.09 C 20.84 21.12 22.39 24.90 24.81 23.87 C 27.14 22.82 25.61 19.18 23.21 20.09 M 35.20 20.10 C 32.82 21.05 34.43 24.99 36.77 23.81 C 39.21 22.91 37.56 19.10 35.20 20.10 M 22.31 30.47 C 21.32 32.52 22.86 34.42 23.93 36.05 C 27.98 35.97 32.03 35.97 36.08 36.05 C 37.14 34.41 38.68 32.51 37.68 30.46 C 35.16 24.44 24.81 24.45 22.31 30.47 M 19.96 42.14 C 22.58 45.04 25.81 48.04 30.00 47.97 C 34.14 48.03 37.38 45.12 39.99 42.25 C 33.58 39.51 26.41 39.56 19.96 42.14 Z" />
<path fill="#968176" opacity="1.00" d=" M 25.99 29.88 C 29.06 29.63 28.25 35.50 25.52 33.59 C 24.60 32.43 25.05 30.85 25.99 29.88 Z" />
<path fill="#968176" opacity="1.00" d=" M 33.05 29.89 C 35.60 29.73 35.66 34.32 33.08 33.96 C 31.52 33.11 31.80 30.89 33.05 29.89 Z" />
</g>
</svg>
