<?xml version="1.0" encoding="UTF-8" ?>
<!DOCTYPE svg PUBLIC "-//W3C//DTD SVG 1.1//EN" "http://www.w3.org/Graphics/SVG/1.1/DTD/svg11.dtd">
<svg width="60pt" height="60pt" viewBox="0 0 60 60" version="1.1" xmlns="http://www.w3.org/2000/svg">
<g id="#ffffffff">
<path fill="#ffffff" opacity="1.00" d=" M 0.00 0.00 L 60.00 0.00 L 60.00 60.00 L 0.00 60.00 L 0.00 0.00 M 39.20 6.15 C 35.51 10.34 32.82 15.31 29.51 19.80 C 33.08 23.36 36.65 26.93 40.22 30.49 C 44.58 27.40 49.17 24.62 53.37 21.32 C 55.04 19.82 52.94 18.14 51.93 17.04 C 48.15 13.49 44.73 9.57 40.81 6.18 C 40.41 6.17 39.60 6.16 39.20 6.15 M 11.93 25.31 C 15.24 28.65 18.57 31.97 21.89 35.30 C 17.34 39.99 12.49 44.40 8.13 49.26 C 7.24 51.21 9.96 52.93 11.36 51.38 C 15.90 47.06 20.26 42.54 24.70 38.11 C 28.04 41.43 31.35 44.78 34.71 48.08 C 36.96 45.20 38.58 41.58 37.80 37.85 C 36.92 32.44 31.99 29.25 28.52 25.50 C 24.16 20.88 16.48 21.06 11.93 25.31 Z" />
</g>
<g id="#000000ff">
<path fill="#968176" opacity="1.00" d=" M 39.20 6.15 C 39.60 6.16 40.41 6.17 40.81 6.18 C 44.73 9.57 48.15 13.49 51.93 17.04 C 52.94 18.14 55.04 19.82 53.37 21.32 C 49.17 24.62 44.58 27.40 40.22 30.49 C 36.65 26.93 33.08 23.36 29.51 19.80 C 32.82 15.31 35.51 10.34 39.20 6.15 Z" />
<path fill="#968176" opacity="1.00" d=" M 11.93 25.31 C 16.48 21.06 24.16 20.88 28.52 25.50 C 31.99 29.25 36.92 32.44 37.80 37.85 C 38.58 41.58 36.96 45.20 34.71 48.08 C 31.35 44.78 28.04 41.43 24.70 38.11 C 20.26 42.54 15.90 47.06 11.36 51.38 C 9.96 52.93 7.24 51.21 8.13 49.26 C 12.49 44.40 17.34 39.99 21.89 35.30 C 18.57 31.97 15.24 28.65 11.93 25.31 Z" />
</g>
</svg>
