<?xml version="1.0" encoding="UTF-8" ?>
<!DOCTYPE svg PUBLIC "-//W3C//DTD SVG 1.1//EN" "http://www.w3.org/Graphics/SVG/1.1/DTD/svg11.dtd">
<svg width="60pt" height="60pt" viewBox="0 0 60 60" version="1.1" xmlns="http://www.w3.org/2000/svg">
<g id="#ffffffff">
<path fill="#ffffff" opacity="1.00" d=" M 0.00 0.00 L 60.00 0.00 L 60.00 60.00 L 0.00 60.00 L 0.00 0.00 M 24.53 6.63 C 16.92 8.38 10.36 14.08 7.61 21.38 C 4.67 28.86 5.85 37.79 10.68 44.21 C 15.71 51.15 24.63 54.99 33.12 53.78 C 42.52 52.69 50.76 45.44 53.14 36.30 C 55.57 27.74 52.68 17.98 45.99 12.11 C 40.30 6.92 32.01 4.85 24.53 6.63 Z" />
<path fill="#ffffff" opacity="1.00" d=" M 28.17 17.11 C 28.89 15.61 31.25 15.66 31.85 17.23 C 32.20 20.81 31.92 24.41 32.00 28.00 C 35.62 28.08 39.25 27.79 42.86 28.16 C 44.36 28.89 44.35 31.15 42.82 31.84 C 39.23 32.21 35.60 31.92 32.00 32.00 C 31.92 35.59 32.20 39.19 31.85 42.77 C 31.22 44.36 28.91 44.37 28.17 42.87 C 27.79 39.26 28.08 35.62 28.00 32.00 C 24.37 31.92 20.72 32.22 17.09 31.83 C 15.65 31.06 15.65 28.84 17.17 28.16 C 20.77 27.80 24.39 28.07 28.00 28.00 C 28.08 24.37 27.79 20.73 28.17 17.11 Z" />
</g>
<g id="#000000ff">
<path fill="#968176" opacity="1.00" d=" M 24.53 6.63 C 32.01 4.85 40.30 6.92 45.99 12.11 C 52.68 17.98 55.57 27.74 53.14 36.30 C 50.76 45.44 42.52 52.69 33.12 53.78 C 24.63 54.99 15.71 51.15 10.68 44.21 C 5.85 37.79 4.67 28.86 7.61 21.38 C 10.36 14.08 16.92 8.38 24.53 6.63 M 28.17 17.11 C 27.79 20.73 28.08 24.37 28.00 28.00 C 24.39 28.07 20.77 27.80 17.17 28.16 C 15.65 28.84 15.65 31.06 17.09 31.83 C 20.72 32.22 24.37 31.92 28.00 32.00 C 28.08 35.62 27.79 39.26 28.17 42.87 C 28.91 44.37 31.22 44.36 31.85 42.77 C 32.20 39.19 31.92 35.59 32.00 32.00 C 35.60 31.92 39.23 32.21 42.82 31.84 C 44.35 31.15 44.36 28.89 42.86 28.16 C 39.25 27.79 35.62 28.08 32.00 28.00 C 31.92 24.41 32.20 20.81 31.85 17.23 C 31.25 15.66 28.89 15.61 28.17 17.11 Z" />
</g>
</svg>
