<?xml version="1.0" encoding="UTF-8" ?>
<!DOCTYPE svg PUBLIC "-//W3C//DTD SVG 1.1//EN" "http://www.w3.org/Graphics/SVG/1.1/DTD/svg11.dtd">
<svg width="60pt" height="60pt" viewBox="0 0 60 60" version="1.1" xmlns="http://www.w3.org/2000/svg">
<g id="#ffffffff">
<path fill="#ffffff" opacity="1.00" d=" M 0.00 0.00 L 60.00 0.00 L 60.00 60.00 L 0.00 60.00 L 0.00 0.00 M 30.01 5.99 C 30.67 7.32 31.38 8.63 31.94 10.01 C 31.47 11.13 29.88 11.27 28.95 11.95 C 22.35 15.36 15.74 18.76 9.16 22.22 C 6.74 23.09 8.57 27.05 10.77 25.79 C 18.52 21.89 26.22 17.87 33.91 13.84 C 34.60 15.22 35.31 16.59 36.00 17.98 C 37.95 14.28 40.15 10.72 41.89 6.92 C 37.92 6.65 33.97 6.25 30.01 5.99 M 44.05 21.97 C 43.93 31.98 44.03 41.99 44.00 52.00 C 46.67 52.00 49.33 52.00 52.00 52.00 C 51.96 41.98 52.07 31.96 51.95 21.94 C 52.01 19.85 49.52 19.91 48.06 19.96 C 46.56 19.92 43.97 19.79 44.05 21.97 M 32.05 27.95 C 31.93 35.96 32.03 43.98 32.00 52.00 C 34.67 52.00 37.33 52.00 40.00 52.00 C 39.96 43.98 40.08 35.97 39.95 27.96 C 40.01 25.83 37.48 25.91 36.00 25.96 C 34.52 25.92 31.98 25.81 32.05 27.95 M 20.05 33.93 C 19.92 39.95 20.04 45.98 20.00 52.00 C 22.67 52.00 25.33 52.00 28.00 52.00 C 27.96 45.98 28.08 39.97 27.95 33.96 C 28.01 31.83 25.48 31.91 23.99 31.96 C 22.51 31.92 20.00 31.82 20.05 33.93 M 8.16 39.16 C 7.78 43.42 8.11 47.72 8.00 52.00 C 10.67 52.00 13.33 52.00 16.00 52.00 C 15.89 47.73 16.22 43.43 15.84 39.17 C 15.15 37.66 13.32 38.07 12.00 37.96 C 10.68 38.07 8.85 37.65 8.16 39.16 Z" />
</g>
<g id="#000000ff">
<path fill="#968176" opacity="1.00" d=" M 30.01 5.99 C 33.97 6.25 37.92 6.65 41.89 6.92 C 40.15 10.72 37.95 14.28 36.00 17.98 C 35.31 16.59 34.60 15.22 33.91 13.84 C 26.22 17.87 18.52 21.89 10.77 25.79 C 8.57 27.05 6.74 23.09 9.16 22.22 C 15.74 18.76 22.35 15.36 28.95 11.95 C 29.88 11.27 31.47 11.13 31.94 10.01 C 31.38 8.63 30.67 7.32 30.01 5.99 Z" />
<path fill="#968176" opacity="1.00" d=" M 44.05 21.97 C 43.97 19.79 46.56 19.92 48.06 19.96 C 49.52 19.91 52.01 19.85 51.95 21.94 C 52.07 31.96 51.96 41.98 52.00 52.00 C 49.33 52.00 46.67 52.00 44.00 52.00 C 44.03 41.99 43.93 31.98 44.05 21.97 Z" />
<path fill="#968176" opacity="1.00" d=" M 32.05 27.95 C 31.98 25.81 34.52 25.92 36.00 25.96 C 37.48 25.91 40.01 25.83 39.95 27.96 C 40.08 35.97 39.96 43.98 40.00 52.00 C 37.33 52.00 34.67 52.00 32.00 52.00 C 32.03 43.98 31.93 35.96 32.05 27.95 Z" />
<path fill="#968176" opacity="1.00" d=" M 20.05 33.93 C 20.00 31.82 22.51 31.92 23.99 31.96 C 25.48 31.91 28.01 31.83 27.95 33.96 C 28.08 39.97 27.96 45.98 28.00 52.00 C 25.33 52.00 22.67 52.00 20.00 52.00 C 20.04 45.98 19.92 39.95 20.05 33.93 Z" />
<path fill="#968176" opacity="1.00" d=" M 8.16 39.16 C 8.85 37.65 10.68 38.07 12.00 37.96 C 13.32 38.07 15.15 37.66 15.84 39.17 C 16.22 43.43 15.89 47.73 16.00 52.00 C 13.33 52.00 10.67 52.00 8.00 52.00 C 8.11 47.72 7.78 43.42 8.16 39.16 Z" />
</g>
</svg>
