<?xml version="1.0" encoding="UTF-8" ?>
<!DOCTYPE svg PUBLIC "-//W3C//DTD SVG 1.1//EN" "http://www.w3.org/Graphics/SVG/1.1/DTD/svg11.dtd">
<svg width="60pt" height="60pt" viewBox="0 0 60 60" version="1.1" xmlns="http://www.w3.org/2000/svg">
<g id="#ffffffff">
<path fill="#ffffff" opacity="1.00" d=" M 0.00 0.00 L 60.00 0.00 L 60.00 60.00 L 0.00 60.00 L 0.00 0.00 M 39.14 8.93 C 29.11 7.20 17.52 7.64 9.29 14.33 C 4.77 17.96 6.12 24.20 6.05 29.24 C 7.24 32.56 9.26 35.51 10.77 38.69 C 12.91 37.25 14.58 33.12 17.57 34.39 C 19.53 37.14 20.95 40.24 22.60 43.18 C 25.12 40.79 26.63 37.56 29.13 35.16 C 29.55 35.16 30.40 35.15 30.83 35.15 C 33.32 37.57 35.05 40.65 37.26 43.32 C 39.01 40.40 40.42 37.26 42.37 34.46 C 45.36 33.04 47.11 37.23 49.26 38.68 C 50.73 35.48 52.80 32.54 53.95 29.20 C 53.96 24.14 55.05 18.17 50.84 14.34 C 49.53 14.99 48.21 15.62 46.89 16.24 C 48.86 17.85 51.20 20.66 49.26 23.19 C 45.50 28.06 38.87 29.27 33.09 29.85 C 25.73 30.23 17.43 29.46 11.68 24.37 C 9.25 22.43 9.76 18.84 12.18 17.15 C 18.51 12.17 27.16 11.60 34.90 12.30 C 30.84 14.46 26.59 16.27 22.62 18.58 C 21.24 19.73 22.31 22.03 24.01 22.04 C 30.45 19.72 36.00 15.06 42.82 13.89 C 46.43 12.16 50.05 10.43 53.56 8.50 C 56.19 7.19 54.93 2.83 52.03 2.96 C 47.50 4.35 43.59 7.29 39.14 8.93 M 5.99 38.24 C 5.85 41.46 5.82 45.14 8.46 47.46 C 13.68 52.28 21.18 53.53 28.04 53.92 C 35.96 54.06 44.71 53.20 51.03 47.93 C 54.02 45.63 54.25 41.68 54.01 38.23 C 52.94 40.07 52.23 42.18 50.76 43.77 C 47.76 44.51 46.30 40.65 44.04 39.31 C 42.25 42.41 40.78 45.73 38.66 48.64 C 38.26 48.74 37.45 48.94 37.04 49.04 C 34.15 46.66 32.41 43.19 30.00 40.35 C 28.16 42.73 26.42 45.20 24.56 47.57 C 23.93 48.64 22.52 49.52 21.36 48.62 C 19.17 45.74 17.78 42.33 15.88 39.26 C 13.97 40.82 12.57 43.38 10.08 44.02 C 7.69 43.18 7.34 40.10 5.99 38.24 Z" />
</g>
<g id="#000000ff">
<path fill="#968176" opacity="1.00" d=" M 39.14 8.93 C 43.59 7.29 47.50 4.35 52.03 2.96 C 54.93 2.83 56.19 7.19 53.56 8.50 C 50.05 10.43 46.43 12.16 42.82 13.89 C 36.00 15.06 30.45 19.72 24.01 22.04 C 22.31 22.03 21.24 19.73 22.62 18.58 C 26.59 16.27 30.84 14.46 34.90 12.30 C 27.16 11.60 18.51 12.17 12.18 17.15 C 9.76 18.84 9.25 22.43 11.68 24.37 C 17.43 29.46 25.73 30.23 33.09 29.85 C 38.87 29.27 45.50 28.06 49.26 23.19 C 51.20 20.66 48.86 17.85 46.89 16.24 C 48.21 15.62 49.53 14.99 50.84 14.34 C 55.05 18.17 53.96 24.14 53.95 29.20 C 52.80 32.54 50.73 35.48 49.26 38.68 C 47.11 37.23 45.36 33.04 42.37 34.46 C 40.42 37.26 39.01 40.40 37.26 43.32 C 35.05 40.65 33.32 37.57 30.83 35.15 C 30.40 35.15 29.55 35.16 29.13 35.16 C 26.63 37.56 25.12 40.79 22.60 43.18 C 20.95 40.24 19.53 37.14 17.57 34.39 C 14.58 33.12 12.91 37.25 10.77 38.69 C 9.26 35.51 7.24 32.56 6.05 29.24 C 6.12 24.20 4.77 17.96 9.29 14.33 C 17.52 7.64 29.11 7.20 39.14 8.93 Z" />
<path fill="#968176" opacity="1.00" d=" M 5.99 38.24 C 7.34 40.10 7.69 43.18 10.08 44.02 C 12.57 43.38 13.97 40.82 15.88 39.26 C 17.78 42.33 19.17 45.74 21.36 48.62 C 22.52 49.52 23.93 48.64 24.56 47.57 C 26.42 45.20 28.16 42.73 30.00 40.35 C 32.41 43.19 34.15 46.66 37.04 49.04 C 37.45 48.94 38.26 48.74 38.66 48.64 C 40.78 45.73 42.25 42.41 44.04 39.31 C 46.30 40.65 47.76 44.51 50.76 43.77 C 52.23 42.18 52.94 40.07 54.01 38.23 C 54.25 41.68 54.02 45.63 51.03 47.93 C 44.71 53.20 35.96 54.06 28.04 53.92 C 21.18 53.53 13.68 52.28 8.46 47.46 C 5.82 45.14 5.85 41.46 5.99 38.24 Z" />
</g>
</svg>
