<?xml version="1.0" encoding="UTF-8" ?>
<!DOCTYPE svg PUBLIC "-//W3C//DTD SVG 1.1//EN" "http://www.w3.org/Graphics/SVG/1.1/DTD/svg11.dtd">
<svg width="60pt" height="60pt" viewBox="0 0 60 60" version="1.1" xmlns="http://www.w3.org/2000/svg">
<g id="#ffffffff">
<path fill="#ffffff" opacity="1.00" d=" M 0.00 0.00 L 60.00 0.00 L 60.00 60.00 L 0.00 60.00 L 0.00 0.00 M 20.85 5.77 C 21.39 9.51 22.31 13.25 21.93 17.06 C 21.79 21.59 18.99 25.92 20.61 30.47 C 15.43 32.99 12.50 38.41 11.98 43.99 C 10.65 44.00 9.33 44.00 8.00 44.01 C 9.51 46.00 11.00 48.01 12.50 50.00 C 10.06 49.98 7.61 49.86 5.18 50.19 C 3.25 50.89 3.88 54.13 5.98 53.91 C 21.67 54.11 37.38 53.97 53.07 53.98 C 54.78 54.29 56.56 52.99 55.90 51.15 C 54.61 49.34 52.10 50.23 50.22 50.00 C 51.15 48.50 52.42 46.89 51.88 45.00 C 50.97 40.87 47.36 37.99 46.29 33.92 C 45.38 30.31 47.46 26.57 46.17 23.01 C 45.53 20.65 44.53 18.39 44.10 15.98 C 43.63 12.24 45.76 8.67 45.34 4.94 C 44.50 3.46 42.04 3.81 41.82 5.52 C 40.90 10.63 40.28 15.79 39.63 20.94 C 39.27 25.15 38.30 29.65 40.18 33.65 C 41.59 37.65 44.65 41.50 43.78 45.95 C 43.16 48.98 39.73 49.93 37.04 49.97 C 33.76 50.18 29.44 49.39 28.21 45.85 C 27.72 42.58 29.05 39.35 29.54 36.14 C 27.64 36.64 25.74 37.15 23.85 37.69 C 24.02 41.84 23.72 46.15 25.47 50.03 C 22.15 49.99 18.83 49.99 15.50 50.00 C 17.00 48.00 18.49 46.00 20.00 44.02 C 18.66 44.00 17.32 43.98 15.98 43.97 C 16.57 41.24 17.19 38.31 19.33 36.34 C 23.18 32.50 28.97 32.33 34.05 31.91 C 36.11 32.10 36.71 28.92 34.85 28.16 C 33.17 27.95 31.47 28.11 29.79 28.14 C 28.81 20.39 26.95 12.75 24.42 5.36 C 23.96 3.36 20.80 3.66 20.85 5.77 M 33.16 4.09 C 30.87 5.24 32.43 8.87 34.83 7.88 C 37.14 6.77 35.58 3.14 33.16 4.09 M 33.16 12.15 C 30.84 13.21 32.43 16.87 34.81 15.89 C 37.16 14.82 35.58 11.09 33.16 12.15 M 33.24 20.17 C 30.75 20.98 32.49 25.05 34.77 23.81 C 37.24 22.99 35.50 18.98 33.24 20.17 M 34.20 36.16 C 31.80 37.15 33.43 40.89 35.81 39.88 C 38.17 38.87 36.56 35.06 34.20 36.16 M 35.14 44.11 C 32.87 45.17 34.43 48.91 36.75 47.83 C 39.24 46.91 37.55 43.07 35.14 44.11 Z" />
</g>
<g id="#000000ff">
<path fill="#968176" opacity="1.00" d=" M 20.85 5.77 C 20.80 3.66 23.96 3.36 24.42 5.36 C 26.95 12.75 28.81 20.39 29.79 28.14 C 31.47 28.11 33.17 27.95 34.85 28.16 C 36.71 28.92 36.11 32.10 34.05 31.91 C 28.97 32.33 23.18 32.50 19.33 36.34 C 17.19 38.31 16.57 41.24 15.98 43.97 C 17.32 43.98 18.66 44.00 20.00 44.02 C 18.49 46.00 17.00 48.00 15.50 50.00 C 18.83 49.99 22.15 49.99 25.47 50.03 C 23.72 46.15 24.02 41.84 23.85 37.69 C 25.74 37.15 27.64 36.64 29.54 36.14 C 29.05 39.35 27.72 42.58 28.21 45.85 C 29.44 49.39 33.76 50.18 37.04 49.97 C 39.73 49.93 43.16 48.98 43.78 45.95 C 44.65 41.50 41.59 37.65 40.18 33.65 C 38.30 29.65 39.27 25.15 39.63 20.94 C 40.28 15.79 40.90 10.63 41.82 5.52 C 42.04 3.81 44.50 3.46 45.34 4.94 C 45.76 8.67 43.63 12.24 44.10 15.98 C 44.53 18.39 45.53 20.65 46.17 23.01 C 47.46 26.57 45.38 30.31 46.29 33.92 C 47.36 37.99 50.97 40.87 51.88 45.00 C 52.42 46.89 51.15 48.50 50.22 50.00 C 52.10 50.23 54.61 49.34 55.90 51.15 C 56.56 52.99 54.78 54.29 53.07 53.98 C 37.38 53.97 21.67 54.11 5.98 53.91 C 3.88 54.13 3.25 50.89 5.18 50.19 C 7.61 49.86 10.06 49.98 12.50 50.00 C 11.00 48.01 9.51 46.00 8.00 44.01 C 9.33 44.00 10.65 44.00 11.98 43.99 C 12.50 38.41 15.43 32.99 20.61 30.47 C 18.99 25.92 21.79 21.59 21.93 17.06 C 22.31 13.25 21.39 9.51 20.85 5.77 Z" />
<path fill="#968176" opacity="1.00" d=" M 33.16 4.09 C 35.58 3.14 37.14 6.77 34.83 7.88 C 32.43 8.87 30.87 5.24 33.16 4.09 Z" />
<path fill="#968176" opacity="1.00" d=" M 33.16 12.15 C 35.58 11.09 37.16 14.82 34.81 15.89 C 32.43 16.87 30.84 13.21 33.16 12.15 Z" />
<path fill="#968176" opacity="1.00" d=" M 33.24 20.17 C 35.50 18.98 37.24 22.99 34.77 23.81 C 32.49 25.05 30.75 20.98 33.24 20.17 Z" />
<path fill="#968176" opacity="1.00" d=" M 34.20 36.16 C 36.56 35.06 38.17 38.87 35.81 39.88 C 33.43 40.89 31.80 37.15 34.20 36.16 Z" />
<path fill="#968176" opacity="1.00" d=" M 35.14 44.11 C 37.55 43.07 39.24 46.91 36.75 47.83 C 34.43 48.91 32.87 45.17 35.14 44.11 Z" />
</g>
</svg>
