<?xml version="1.0" encoding="UTF-8" ?>
<!DOCTYPE svg PUBLIC "-//W3C//DTD SVG 1.1//EN" "http://www.w3.org/Graphics/SVG/1.1/DTD/svg11.dtd">
<svg width="60pt" height="60pt" viewBox="0 0 60 60" version="1.1" xmlns="http://www.w3.org/2000/svg">
<g id="#ffffffff">
<path fill="#ffffff" opacity="1.00" d=" M 0.00 0.00 L 60.00 0.00 L 60.00 60.00 L 0.00 60.00 L 0.00 0.00 M 26.46 6.69 C 23.23 8.41 23.23 13.57 26.46 15.29 C 29.57 17.37 34.15 14.69 34.00 11.00 C 34.15 7.30 29.58 4.63 26.46 6.69 M 38.08 10.00 C 37.86 11.33 37.69 12.67 37.59 14.02 C 41.34 13.88 45.10 14.24 48.83 13.84 C 50.36 13.16 50.36 10.84 48.83 10.16 C 45.26 9.78 41.66 10.10 38.08 10.00 M 16.40 32.92 C 18.67 36.56 23.34 37.69 26.69 40.16 C 27.93 44.36 28.88 48.67 30.30 52.82 C 30.80 54.85 34.37 54.01 33.88 51.98 C 33.29 47.05 32.71 42.09 31.76 37.22 C 29.81 34.46 27.29 32.16 25.11 29.59 C 25.49 27.61 26.14 25.70 26.76 23.79 C 28.69 25.06 30.04 28.24 32.68 27.86 C 35.70 25.86 38.59 23.65 41.36 21.32 C 42.73 20.24 41.67 17.98 40.00 17.93 C 37.28 19.04 34.95 20.90 32.40 22.32 C 31.60 21.56 30.81 20.80 30.02 20.04 C 26.26 20.29 22.81 18.28 20.85 15.11 C 17.41 20.26 15.22 26.74 16.40 32.92 M 17.43 38.36 C 15.71 42.64 13.89 46.88 12.23 51.19 C 11.18 53.02 13.91 55.02 15.33 53.43 C 17.75 49.60 19.40 45.34 21.58 41.37 C 20.19 40.38 18.80 39.38 17.43 38.36 Z" />
</g>
<g id="#000000ff">
<path fill="#968176" opacity="1.00" d=" M 26.46 6.69 C 29.58 4.63 34.15 7.30 34.00 11.00 C 34.15 14.69 29.57 17.37 26.46 15.29 C 23.23 13.57 23.23 8.41 26.46 6.69 Z" />
<path fill="#968176" opacity="1.00" d=" M 38.08 10.00 C 41.66 10.10 45.26 9.78 48.83 10.16 C 50.36 10.84 50.36 13.16 48.83 13.84 C 45.10 14.24 41.34 13.88 37.59 14.02 C 37.69 12.67 37.86 11.33 38.08 10.00 Z" />
<path fill="#968176" opacity="1.00" d=" M 16.40 32.92 C 15.22 26.74 17.41 20.26 20.85 15.11 C 22.81 18.28 26.26 20.29 30.02 20.04 C 30.81 20.80 31.60 21.56 32.40 22.32 C 34.95 20.90 37.28 19.04 40.00 17.93 C 41.67 17.98 42.73 20.24 41.36 21.32 C 38.59 23.65 35.70 25.86 32.68 27.86 C 30.04 28.24 28.69 25.06 26.76 23.79 C 26.14 25.70 25.49 27.61 25.11 29.59 C 27.29 32.16 29.81 34.46 31.76 37.22 C 32.71 42.09 33.29 47.05 33.88 51.98 C 34.37 54.01 30.80 54.85 30.30 52.82 C 28.88 48.67 27.93 44.36 26.69 40.16 C 23.34 37.69 18.67 36.56 16.40 32.92 Z" />
<path fill="#968176" opacity="1.00" d=" M 17.43 38.36 C 18.80 39.38 20.19 40.38 21.58 41.37 C 19.40 45.34 17.75 49.60 15.33 53.43 C 13.91 55.02 11.18 53.02 12.23 51.19 C 13.89 46.88 15.71 42.64 17.43 38.36 Z" />
</g>
</svg>
