<?xml version="1.0" encoding="UTF-8" ?>
<!DOCTYPE svg PUBLIC "-//W3C//DTD SVG 1.1//EN" "http://www.w3.org/Graphics/SVG/1.1/DTD/svg11.dtd">
<svg width="60pt" height="60pt" viewBox="0 0 60 60" version="1.1" xmlns="http://www.w3.org/2000/svg">
<g id="#ffffffff">
<path fill="#ffffff" opacity="1.00" d=" M 0.00 0.00 L 60.00 0.00 L 60.00 60.00 L 0.00 60.00 L 0.00 0.00 M 12.07 7.94 C 11.89 19.27 12.05 30.61 12.00 41.94 C 10.08 42.31 7.33 41.19 6.11 43.22 C 5.41 48.74 10.32 54.04 15.85 53.95 C 24.61 54.03 33.39 54.04 42.16 53.95 C 47.37 53.99 52.02 49.35 51.96 44.13 C 52.05 32.40 51.99 20.67 51.99 8.94 C 52.16 7.69 51.60 5.91 50.04 6.07 C 38.32 5.91 26.60 6.03 14.88 6.01 C 13.66 5.84 11.90 6.40 12.07 7.94 Z" />
<path fill="#ffffff" opacity="1.00" d=" M 16.00 10.00 C 26.67 10.00 37.33 10.00 48.00 10.00 C 47.95 21.37 48.08 32.75 47.95 44.13 C 48.17 48.92 41.85 51.81 38.28 48.71 C 35.86 47.29 36.72 43.78 34.79 42.16 C 28.54 41.77 22.26 42.12 16.00 42.00 C 16.00 31.33 16.00 20.67 16.00 10.00 M 22.00 16.00 C 22.00 17.33 22.00 18.67 22.00 20.00 C 23.33 20.00 24.67 20.00 26.00 20.00 C 26.00 18.67 26.00 17.33 26.00 16.00 C 24.67 16.00 23.33 16.00 22.00 16.00 M 30.00 16.00 C 30.00 17.33 30.00 18.67 30.00 20.00 C 34.00 20.00 38.00 20.00 42.00 20.00 C 42.00 18.67 42.00 17.33 42.00 16.00 C 38.00 16.00 34.00 16.00 30.00 16.00 M 22.00 24.00 C 22.00 25.33 22.00 26.67 22.00 28.00 C 23.33 28.00 24.67 28.00 26.00 28.00 C 26.00 26.67 26.00 25.33 26.00 24.00 C 24.67 24.00 23.33 24.00 22.00 24.00 M 30.00 24.00 C 30.00 25.33 30.00 26.67 30.00 28.00 C 34.00 28.00 38.00 28.00 42.00 28.00 C 42.00 26.67 42.00 25.33 42.00 24.00 C 38.00 24.00 34.00 24.00 30.00 24.00 M 22.00 32.00 C 22.00 33.33 22.00 34.67 22.00 36.00 C 23.33 36.00 24.67 36.00 26.00 36.00 C 26.00 34.67 26.00 33.33 26.00 32.00 C 24.67 32.00 23.33 32.00 22.00 32.00 M 30.00 32.00 C 30.00 33.33 30.00 34.67 30.00 36.00 C 34.00 36.00 38.00 36.00 42.00 36.00 C 42.00 34.67 42.00 33.33 42.00 32.00 C 38.00 32.00 34.00 32.00 30.00 32.00 Z" />
</g>
<g id="#000000ff">
<path fill="#968176" opacity="1.00" d=" M 12.07 7.94 C 11.90 6.40 13.66 5.84 14.88 6.01 C 26.60 6.03 38.32 5.91 50.04 6.07 C 51.60 5.91 52.16 7.69 51.99 8.94 C 51.99 20.67 52.05 32.40 51.96 44.13 C 52.02 49.35 47.37 53.99 42.16 53.95 C 33.39 54.04 24.61 54.03 15.85 53.95 C 10.32 54.04 5.41 48.74 6.11 43.22 C 7.33 41.19 10.08 42.31 12.00 41.94 C 12.05 30.61 11.89 19.27 12.07 7.94 M 16.00 10.00 C 16.00 20.67 16.00 31.33 16.00 42.00 C 22.26 42.12 28.54 41.77 34.79 42.16 C 36.72 43.78 35.86 47.29 38.28 48.71 C 41.85 51.81 48.17 48.92 47.95 44.13 C 48.08 32.75 47.95 21.37 48.00 10.00 C 37.33 10.00 26.67 10.00 16.00 10.00 Z" />
<path fill="#968176" opacity="1.00" d=" M 22.00 16.00 C 23.33 16.00 24.67 16.00 26.00 16.00 C 26.00 17.33 26.00 18.67 26.00 20.00 C 24.67 20.00 23.33 20.00 22.00 20.00 C 22.00 18.67 22.00 17.33 22.00 16.00 Z" />
<path fill="#968176" opacity="1.00" d=" M 30.00 16.00 C 34.00 16.00 38.00 16.00 42.00 16.00 C 42.00 17.33 42.00 18.67 42.00 20.00 C 38.00 20.00 34.00 20.00 30.00 20.00 C 30.00 18.67 30.00 17.33 30.00 16.00 Z" />
<path fill="#968176" opacity="1.00" d=" M 22.00 24.00 C 23.33 24.00 24.67 24.00 26.00 24.00 C 26.00 25.33 26.00 26.67 26.00 28.00 C 24.67 28.00 23.33 28.00 22.00 28.00 C 22.00 26.67 22.00 25.33 22.00 24.00 Z" />
<path fill="#968176" opacity="1.00" d=" M 30.00 24.00 C 34.00 24.00 38.00 24.00 42.00 24.00 C 42.00 25.33 42.00 26.67 42.00 28.00 C 38.00 28.00 34.00 28.00 30.00 28.00 C 30.00 26.67 30.00 25.33 30.00 24.00 Z" />
<path fill="#968176" opacity="1.00" d=" M 22.00 32.00 C 23.33 32.00 24.67 32.00 26.00 32.00 C 26.00 33.33 26.00 34.67 26.00 36.00 C 24.67 36.00 23.33 36.00 22.00 36.00 C 22.00 34.67 22.00 33.33 22.00 32.00 Z" />
<path fill="#968176" opacity="1.00" d=" M 30.00 32.00 C 34.00 32.00 38.00 32.00 42.00 32.00 C 42.00 33.33 42.00 34.67 42.00 36.00 C 38.00 36.00 34.00 36.00 30.00 36.00 C 30.00 34.67 30.00 33.33 30.00 32.00 Z" />
</g>
</svg>
