<?xml version="1.0" encoding="UTF-8" ?>
<!DOCTYPE svg PUBLIC "-//W3C//DTD SVG 1.1//EN" "http://www.w3.org/Graphics/SVG/1.1/DTD/svg11.dtd">
<svg width="60pt" height="60pt" viewBox="0 0 60 60" version="1.1" xmlns="http://www.w3.org/2000/svg">
<g id="#ffffffff">
<path fill="#ffffff" opacity="1.00" d=" M 0.00 0.00 L 60.00 0.00 L 60.00 60.00 L 30.84 60.00 C 32.43 58.41 31.88 56.02 32.06 54.00 C 35.91 53.85 39.85 54.44 43.64 53.62 C 45.88 52.71 46.10 50.09 46.03 48.01 C 45.96 38.30 46.05 28.59 45.99 18.89 C 46.27 16.56 44.65 13.93 42.10 14.08 C 34.37 13.88 26.62 14.03 18.89 14.01 C 16.55 13.71 14.00 15.37 14.07 17.88 C 13.85 27.58 14.11 37.29 13.96 46.99 C 14.00 49.33 13.67 52.51 16.31 53.60 C 20.11 54.44 24.07 53.85 27.93 54.00 C 28.00 56.03 27.84 58.18 28.92 60.00 L 0.00 60.00 L 0.00 0.00 M 19.05 6.23 C 17.29 7.05 17.92 10.12 19.97 9.91 C 26.33 10.12 32.71 9.97 39.08 9.99 C 40.20 10.03 42.30 9.66 41.92 8.04 C 42.26 5.86 39.43 5.99 38.01 5.98 C 31.70 6.16 25.35 5.68 19.05 6.23 Z" />
<path fill="#ffffff" opacity="1.00" d=" M 23.12 20.15 C 25.51 19.00 27.25 22.90 24.80 23.80 C 22.48 25.00 20.84 21.18 23.12 20.15 Z" />
<path fill="#ffffff" opacity="1.00" d=" M 35.13 20.11 C 37.48 19.10 39.15 22.66 36.91 23.81 C 34.49 25.01 32.83 21.25 35.13 20.11 Z" />
<path fill="#ffffff" opacity="1.00" d=" M 29.12 26.22 C 31.47 24.93 33.21 28.82 30.85 29.86 C 28.50 30.95 26.79 27.21 29.12 26.22 Z" />
<path fill="#ffffff" opacity="1.00" d=" M 23.07 32.17 C 25.50 31.02 27.17 34.71 24.88 35.86 C 22.51 36.90 20.86 33.35 23.07 32.17 Z" />
<path fill="#ffffff" opacity="1.00" d=" M 35.07 32.12 C 37.49 31.07 39.16 34.68 36.86 35.89 C 34.45 36.86 32.92 33.37 35.07 32.12 Z" />
<path fill="#ffffff" opacity="1.00" d=" M 22.01 48.00 C 24.67 45.32 27.35 42.66 30.02 39.98 C 32.68 42.65 35.36 45.32 38.03 47.99 C 36.01 48.00 34.00 47.99 31.98 48.00 C 32.00 50.00 32.01 52.00 32.06 54.00 C 30.69 53.99 29.31 53.99 27.93 54.00 C 27.99 52.00 28.00 50.00 28.01 48.00 C 26.01 48.00 24.01 48.00 22.01 48.00 Z" />
</g>
<g id="#000000ff">
<path fill="#968176" opacity="1.00" d=" M 19.05 6.23 C 25.35 5.68 31.70 6.16 38.01 5.98 C 39.43 5.99 42.26 5.86 41.92 8.04 C 42.30 9.66 40.20 10.03 39.08 9.99 C 32.71 9.97 26.33 10.12 19.97 9.91 C 17.92 10.12 17.29 7.05 19.05 6.23 Z" />
<path fill="#968176" opacity="1.00" d=" M 14.07 17.88 C 14.00 15.37 16.55 13.71 18.89 14.01 C 26.62 14.03 34.37 13.88 42.10 14.08 C 44.65 13.93 46.27 16.56 45.99 18.89 C 46.05 28.59 45.96 38.30 46.03 48.01 C 46.10 50.09 45.88 52.71 43.64 53.62 C 39.85 54.44 35.91 53.85 32.06 54.00 C 32.01 52.00 32.00 50.00 31.98 48.00 C 34.00 47.99 36.01 48.00 38.03 47.99 C 35.36 45.32 32.68 42.65 30.02 39.98 C 27.35 42.66 24.67 45.32 22.01 48.00 C 24.01 48.00 26.01 48.00 28.01 48.00 C 28.00 50.00 27.99 52.00 27.93 54.00 C 24.07 53.85 20.11 54.44 16.31 53.60 C 13.67 52.51 14.00 49.33 13.96 46.99 C 14.11 37.29 13.85 27.58 14.07 17.88 M 23.12 20.15 C 20.84 21.18 22.48 25.00 24.80 23.80 C 27.25 22.90 25.51 19.00 23.12 20.15 M 35.13 20.11 C 32.83 21.25 34.49 25.01 36.91 23.81 C 39.15 22.66 37.48 19.10 35.13 20.11 M 29.12 26.22 C 26.79 27.21 28.50 30.95 30.85 29.86 C 33.21 28.82 31.47 24.93 29.12 26.22 M 23.07 32.17 C 20.86 33.35 22.51 36.90 24.88 35.86 C 27.17 34.71 25.50 31.02 23.07 32.17 M 35.07 32.12 C 32.92 33.37 34.45 36.86 36.86 35.89 C 39.16 34.68 37.49 31.07 35.07 32.12 Z" />
<path fill="#968176" opacity="1.00" d=" M 27.93 54.00 C 29.31 53.99 30.69 53.99 32.06 54.00 C 31.88 56.02 32.43 58.41 30.84 60.00 L 28.92 60.00 C 27.84 58.18 28.00 56.03 27.93 54.00 Z" />
</g>
</svg>
