<?xml version="1.0" encoding="UTF-8" ?>
<!DOCTYPE svg PUBLIC "-//W3C//DTD SVG 1.1//EN" "http://www.w3.org/Graphics/SVG/1.1/DTD/svg11.dtd">
<svg width="60pt" height="60pt" viewBox="0 0 60 60" version="1.1" xmlns="http://www.w3.org/2000/svg">
<g id="#ffffffff">
<path fill="#ffffff" opacity="1.00" d=" M 0.00 0.00 L 60.00 0.00 L 60.00 60.00 L 0.00 60.00 L 0.00 0.00 M 14.60 8.59 C 8.83 13.62 5.73 21.39 5.99 29.00 C 6.04 35.36 5.92 41.73 6.04 48.09 C 5.94 50.14 7.85 51.95 9.85 51.95 C 13.93 52.05 18.01 52.04 22.09 51.96 C 24.12 51.99 25.99 50.13 25.95 48.10 C 25.98 42.38 26.16 36.65 25.85 30.95 C 24.01 26.10 17.79 28.60 13.88 28.00 C 13.90 22.06 14.88 16.06 17.72 10.78 C 18.98 8.95 15.96 6.91 14.60 8.59 M 43.16 8.18 C 38.92 11.46 36.18 16.41 34.78 21.52 C 33.46 27.24 34.18 33.15 34.00 38.96 C 34.17 42.50 33.59 46.15 34.34 49.63 C 36.15 53.23 40.76 51.68 43.96 52.01 C 47.29 51.74 52.48 53.28 53.86 49.03 C 54.10 43.02 54.10 36.96 53.86 30.95 C 52.01 26.09 45.79 28.61 41.89 28.00 C 41.90 22.07 42.87 16.08 45.71 10.81 C 46.79 9.26 44.72 7.30 43.16 8.18 Z" />
</g>
<g id="#000000ff">
<path fill="#968176" opacity="1.00" d=" M 14.60 8.59 C 15.96 6.91 18.98 8.95 17.72 10.78 C 14.88 16.06 13.90 22.06 13.88 28.00 C 17.79 28.60 24.01 26.10 25.85 30.95 C 26.16 36.65 25.98 42.38 25.95 48.10 C 25.99 50.13 24.12 51.99 22.09 51.96 C 18.01 52.04 13.93 52.05 9.85 51.95 C 7.85 51.95 5.94 50.14 6.04 48.09 C 5.92 41.73 6.04 35.36 5.99 29.00 C 5.73 21.39 8.83 13.62 14.60 8.59 Z" />
<path fill="#968176" opacity="1.00" d=" M 43.16 8.18 C 44.72 7.30 46.79 9.26 45.71 10.81 C 42.87 16.08 41.90 22.07 41.89 28.00 C 45.79 28.61 52.01 26.09 53.86 30.95 C 54.10 36.96 54.10 43.02 53.86 49.03 C 52.48 53.28 47.29 51.74 43.96 52.01 C 40.76 51.68 36.15 53.23 34.34 49.63 C 33.59 46.15 34.17 42.50 34.00 38.96 C 34.18 33.15 33.46 27.24 34.78 21.52 C 36.18 16.41 38.92 11.46 43.16 8.18 Z" />
</g>
</svg>
