<?xml version="1.0" encoding="UTF-8" ?>
<!DOCTYPE svg PUBLIC "-//W3C//DTD SVG 1.1//EN" "http://www.w3.org/Graphics/SVG/1.1/DTD/svg11.dtd">
<svg width="142pt" height="135pt" viewBox="0 0 142 135" version="1.1" xmlns="http://www.w3.org/2000/svg">
<g id="#fffffff">
<path fill="#ffffff" opacity="1.00" d=" M 0.00 0.00 L 142.00 0.00 L 142.00 135.00 L 0.00 135.00 L 0.00 0.00 M 26.51 32.75 C 26.58 61.58 26.51 90.42 26.54 119.25 C 26.85 119.84 27.47 121.02 27.77 121.61 C 29.33 121.69 30.89 121.74 32.45 121.76 C 33.23 120.30 33.80 118.72 33.64 117.04 C 33.61 89.68 33.64 62.31 33.63 34.95 C 33.65 33.45 33.49 31.72 32.03 30.89 C 30.04 29.67 27.51 30.76 26.51 32.75 M 40.77 33.86 C 40.65 49.56 40.78 65.26 40.71 80.96 C 40.55 82.87 41.10 84.69 41.79 86.43 C 47.33 86.89 52.89 86.64 58.43 86.63 C 58.40 67.89 58.42 49.16 58.42 30.42 C 53.65 30.40 48.88 30.26 44.12 30.43 C 42.25 30.27 40.69 32.06 40.77 33.86 M 65.52 30.37 C 65.49 49.14 65.53 67.91 65.50 86.68 C 74.89 86.68 84.29 86.69 93.69 86.67 C 93.67 67.91 93.70 49.14 93.67 30.38 C 84.29 30.36 74.90 30.38 65.52 30.37 M 100.76 30.38 C 100.76 49.14 100.76 67.91 100.76 86.68 C 105.52 86.63 110.27 86.79 115.02 86.63 C 116.76 86.92 117.69 85.45 118.52 84.23 C 118.36 67.12 118.57 50.00 118.41 32.89 C 118.08 32.35 117.42 31.28 117.09 30.75 C 111.68 30.00 106.20 30.51 100.76 30.38 Z" />
<path fill="#ffffff" opacity="1.00" d=" M 69.09 58.96 C 68.40 52.55 74.81 46.97 81.07 48.15 C 88.01 48.76 92.14 57.05 89.31 63.19 C 87.91 65.16 86.27 66.95 84.20 68.23 C 83.15 68.54 82.11 68.88 81.08 69.24 C 80.28 69.26 78.70 69.30 77.90 69.32 C 73.24 68.05 68.80 64.16 69.09 58.96 M 77.30 55.88 C 75.50 57.14 76.33 59.48 76.74 61.21 C 77.30 61.45 78.40 61.94 78.95 62.18 C 79.24 62.22 79.82 62.29 80.11 62.33 C 83.17 61.47 83.04 58.23 82.46 55.69 C 80.81 55.68 78.71 54.58 77.30 55.88 Z" />
</g>
<g id="#000000ff">
<path fill="#968176" opacity="1.00" d=" M 26.51 32.75 C 27.51 30.76 30.04 29.67 32.03 30.89 C 33.49 31.72 33.65 33.45 33.63 34.95 C 33.64 62.31 33.61 89.68 33.64 117.04 C 33.80 118.72 33.23 120.30 32.45 121.76 C 30.89 121.74 29.33 121.69 27.77 121.61 C 27.47 121.02 26.85 119.84 26.54 119.25 C 26.51 90.42 26.58 61.58 26.51 32.75 Z" />
<path fill="#968176" opacity="1.00" d=" M 40.77 33.86 C 40.69 32.06 42.25 30.27 44.12 30.43 C 48.88 30.26 53.65 30.40 58.42 30.42 C 58.42 49.16 58.40 67.89 58.43 86.63 C 52.89 86.64 47.33 86.89 41.79 86.43 C 41.10 84.69 40.55 82.87 40.71 80.96 C 40.78 65.26 40.65 49.56 40.77 33.86 Z" />
<path fill="#968176" opacity="1.00" d=" M 65.52 30.37 C 74.90 30.38 84.29 30.36 93.67 30.38 C 93.70 49.14 93.67 67.91 93.69 86.67 C 84.29 86.69 74.89 86.68 65.50 86.68 C 65.53 67.91 65.49 49.14 65.52 30.37 M 69.09 58.96 C 68.80 64.16 73.24 68.05 77.90 69.32 C 78.70 69.30 80.28 69.26 81.08 69.24 C 82.11 68.88 83.15 68.54 84.20 68.23 C 86.27 66.95 87.91 65.16 89.31 63.19 C 92.14 57.05 88.01 48.76 81.07 48.15 C 74.81 46.97 68.40 52.55 69.09 58.96 Z" />
<path fill="#968176" opacity="1.00" d=" M 100.76 30.38 C 106.20 30.51 111.68 30.00 117.09 30.75 C 117.42 31.28 118.08 32.35 118.41 32.89 C 118.57 50.00 118.36 67.12 118.52 84.23 C 117.69 85.45 116.76 86.92 115.02 86.63 C 110.27 86.79 105.52 86.63 100.76 86.68 C 100.76 67.91 100.76 49.14 100.76 30.38 Z" />
<path fill="#968176" opacity="1.00" d=" M 77.30 55.88 C 78.71 54.58 80.81 55.68 82.46 55.69 C 83.04 58.23 83.17 61.47 80.11 62.33 C 79.82 62.29 79.24 62.22 78.95 62.18 C 78.40 61.94 77.30 61.45 76.74 61.21 C 76.33 59.48 75.50 57.14 77.30 55.88 Z" />
</g>
</svg>
