<?xml version="1.0" encoding="UTF-8" ?>
<!DOCTYPE svg PUBLIC "-//W3C//DTD SVG 1.1//EN" "http://www.w3.org/Graphics/SVG/1.1/DTD/svg11.dtd">
<svg width="60pt" height="60pt" viewBox="0 0 60 60" version="1.1" xmlns="http://www.w3.org/2000/svg">
<g id="#ffffffff">
<path fill="#ffffff" opacity="1.00" d=" M 0.00 0.00 L 60.00 0.00 L 60.00 60.00 L 0.00 60.00 L 0.00 0.00 M 24.49 6.64 C 17.60 8.24 11.55 13.07 8.46 19.44 C 5.19 25.99 5.20 34.05 8.47 40.59 C 11.79 47.40 18.50 52.43 25.97 53.64 C 33.04 54.88 40.63 52.74 45.95 47.91 C 51.28 43.21 54.32 36.05 53.96 28.96 C 53.70 22.08 50.29 15.40 44.86 11.17 C 39.24 6.64 31.50 4.97 24.49 6.64 Z" />
<path fill="#ffffff" opacity="1.00" d=" M 22.00 18.00 C 24.67 15.33 27.33 12.67 30.00 10.01 C 32.70 12.65 35.34 15.35 38.03 18.00 C 36.02 18.00 34.01 18.00 32.00 18.00 C 32.00 20.67 32.00 23.33 32.00 26.00 C 30.67 26.00 29.33 26.00 28.00 26.00 C 28.00 23.33 28.00 20.67 28.00 18.00 C 26.00 18.00 24.00 18.00 22.00 18.00 Z" />
<path fill="#ffffff" opacity="1.00" d=" M 18.02 22.01 C 20.70 24.65 23.33 27.34 26.01 29.98 C 23.35 32.65 20.68 35.32 18.00 37.99 C 18.00 35.99 18.00 34.00 18.00 32.00 C 15.33 32.00 12.67 32.00 10.00 32.00 C 10.00 30.67 10.00 29.33 10.00 28.00 C 12.67 28.00 15.33 28.00 18.00 28.00 C 18.00 26.00 18.00 24.01 18.02 22.01 Z" />
<path fill="#ffffff" opacity="1.00" d=" M 34.02 29.98 C 36.68 27.32 39.33 24.66 41.99 22.01 C 42.00 24.01 42.00 26.00 42.00 28.00 C 44.67 28.00 47.33 28.00 50.00 28.00 C 50.00 29.33 50.00 30.67 50.00 32.00 C 47.33 32.00 44.67 32.00 42.00 32.00 C 42.00 34.00 42.00 36.00 42.00 38.00 C 39.36 35.31 36.66 32.67 34.02 29.98 Z" />
<path fill="#ffffff" opacity="1.00" d=" M 28.00 34.00 C 29.33 34.00 30.67 34.00 32.00 34.00 C 32.00 36.67 32.00 39.33 32.00 42.00 C 34.00 42.00 35.99 42.00 37.99 42.00 C 35.33 44.67 32.66 47.34 30.00 50.00 C 27.36 47.32 24.69 44.69 22.04 42.02 C 24.03 42.01 26.01 42.00 28.00 41.99 C 28.00 39.33 28.00 36.67 28.00 34.00 Z" />
</g>
<g id="#000000ff">
<path fill="#968176" opacity="1.00" d=" M 24.49 6.64 C 31.50 4.97 39.24 6.64 44.86 11.17 C 50.29 15.40 53.70 22.08 53.96 28.96 C 54.32 36.05 51.28 43.21 45.95 47.91 C 40.63 52.74 33.04 54.88 25.97 53.64 C 18.50 52.43 11.79 47.40 8.47 40.59 C 5.20 34.05 5.19 25.99 8.46 19.44 C 11.55 13.07 17.60 8.24 24.49 6.64 M 22.00 18.00 C 24.00 18.00 26.00 18.00 28.00 18.00 C 28.00 20.67 28.00 23.33 28.00 26.00 C 29.33 26.00 30.67 26.00 32.00 26.00 C 32.00 23.33 32.00 20.67 32.00 18.00 C 34.01 18.00 36.02 18.00 38.03 18.00 C 35.34 15.35 32.70 12.65 30.00 10.01 C 27.33 12.67 24.67 15.33 22.00 18.00 M 18.02 22.01 C 18.00 24.01 18.00 26.00 18.00 28.00 C 15.33 28.00 12.67 28.00 10.00 28.00 C 10.00 29.33 10.00 30.67 10.00 32.00 C 12.67 32.00 15.33 32.00 18.00 32.00 C 18.00 34.00 18.00 35.99 18.00 37.99 C 20.68 35.32 23.35 32.65 26.01 29.98 C 23.33 27.34 20.70 24.65 18.02 22.01 M 34.02 29.98 C 36.66 32.67 39.36 35.31 42.00 38.00 C 42.00 36.00 42.00 34.00 42.00 32.00 C 44.67 32.00 47.33 32.00 50.00 32.00 C 50.00 30.67 50.00 29.33 50.00 28.00 C 47.33 28.00 44.67 28.00 42.00 28.00 C 42.00 26.00 42.00 24.01 41.99 22.01 C 39.33 24.66 36.68 27.32 34.02 29.98 M 28.00 34.00 C 28.00 36.67 28.00 39.33 28.00 41.99 C 26.01 42.00 24.03 42.01 22.04 42.02 C 24.69 44.69 27.36 47.32 30.00 50.00 C 32.66 47.34 35.33 44.67 37.99 42.00 C 35.99 42.00 34.00 42.00 32.00 42.00 C 32.00 39.33 32.00 36.67 32.00 34.00 C 30.67 34.00 29.33 34.00 28.00 34.00 Z" />
</g>
</svg>
