<?xml version="1.0" encoding="UTF-8" ?>
<!DOCTYPE svg PUBLIC "-//W3C//DTD SVG 1.1//EN" "http://www.w3.org/Graphics/SVG/1.1/DTD/svg11.dtd">
<svg width="200pt" height="200pt" viewBox="0 0 200 200" version="1.1" xmlns="http://www.w3.org/2000/svg">
<g id="#ffffffff">
<path fill="#ffffff" opacity="1.00" d=" M 0.00 0.00 L 200.00 0.00 L 200.00 200.00 L 0.00 200.00 L 0.00 0.00 M 7.77 99.99 C 27.70 121.87 57.55 133.66 86.97 133.14 C 115.36 132.83 142.60 122.34 166.86 108.21 C 172.69 118.12 181.03 127.20 192.08 131.16 C 186.52 121.72 182.58 111.02 182.55 99.96 C 182.60 88.91 186.52 78.23 192.08 68.81 C 181.02 72.76 172.69 81.87 166.86 91.77 C 141.23 76.80 112.12 65.94 82.05 66.88 C 54.28 67.63 26.58 79.35 7.77 99.99 Z" />
<path fill="#ffffff" opacity="1.00" d=" M 58.08 85.30 C 60.71 83.70 62.04 87.15 63.18 88.91 C 68.92 98.51 67.83 111.36 60.83 120.01 C 59.80 121.77 56.60 119.91 57.66 118.11 C 60.71 113.27 63.38 107.88 63.05 101.99 C 63.04 96.47 60.44 91.48 57.42 87.04 C 57.59 86.60 57.91 85.74 58.08 85.30 Z" />
<path fill="#ffffff" opacity="1.00" d=" M 38.44 88.60 C 42.42 86.42 47.52 90.72 46.11 95.01 C 45.25 98.78 40.08 100.43 37.24 97.77 C 34.19 95.41 34.89 90.09 38.44 88.60 Z" />
</g>
<g id="#000000ff">
<path fill="#968176" opacity="1.00" d=" M 7.77 99.99 C 26.58 79.35 54.28 67.63 82.05 66.88 C 112.12 65.94 141.23 76.80 166.86 91.77 C 172.69 81.87 181.02 72.76 192.08 68.81 C 186.52 78.23 182.60 88.91 182.55 99.96 C 182.58 111.02 186.52 121.72 192.08 131.16 C 181.03 127.20 172.69 118.12 166.86 108.21 C 142.60 122.34 115.36 132.83 86.97 133.14 C 57.55 133.66 27.70 121.87 7.77 99.99 M 58.08 85.30 C 57.91 85.74 57.59 86.60 57.42 87.04 C 60.44 91.48 63.04 96.47 63.05 101.99 C 63.38 107.88 60.71 113.27 57.66 118.11 C 56.60 119.91 59.80 121.77 60.83 120.01 C 67.83 111.36 68.92 98.51 63.18 88.91 C 62.04 87.15 60.71 83.70 58.08 85.30 M 38.44 88.60 C 34.89 90.09 34.19 95.41 37.24 97.77 C 40.08 100.43 45.25 98.78 46.11 95.01 C 47.52 90.72 42.42 86.42 38.44 88.60 Z" />
</g>
</svg>
