<?xml version="1.0" encoding="UTF-8" ?>
<!DOCTYPE svg PUBLIC "-//W3C//DTD SVG 1.1//EN" "http://www.w3.org/Graphics/SVG/1.1/DTD/svg11.dtd">
<svg width="60pt" height="60pt" viewBox="0 0 60 60" version="1.1" xmlns="http://www.w3.org/2000/svg">
<g id="#ffffffff">
<path fill="#ffffff" opacity="1.00" d=" M 0.00 0.00 L 60.00 0.00 L 60.00 60.00 L 0.00 60.00 L 0.00 0.00 M 12.40 11.36 C 6.57 16.63 4.43 25.50 7.22 32.85 C 9.94 40.57 17.79 46.09 25.98 45.99 C 30.63 46.11 34.99 44.16 38.69 41.51 C 42.15 44.99 45.65 48.43 49.07 51.93 C 49.99 52.62 50.67 53.97 51.97 53.91 C 53.72 54.31 54.68 51.73 53.40 50.65 C 49.57 46.54 45.43 42.72 41.51 38.69 C 43.93 35.25 45.87 31.31 45.96 27.03 C 46.49 19.01 41.59 11.03 34.24 7.79 C 27.12 4.45 18.10 5.92 12.40 11.36 Z" />
<path fill="#ffffff" opacity="1.00" d=" M 21.44 10.65 C 30.12 7.79 40.13 13.94 41.69 22.88 C 43.67 31.59 36.99 40.89 28.13 41.84 C 19.69 43.22 11.04 36.59 10.14 28.10 C 8.94 20.52 14.12 12.74 21.44 10.65 Z" />
</g>
<g id="#000000ff">
<path fill="#968176" opacity="1.00" d=" M 12.40 11.36 C 18.10 5.92 27.12 4.45 34.24 7.79 C 41.59 11.03 46.49 19.01 45.96 27.03 C 45.87 31.31 43.93 35.25 41.51 38.69 C 45.43 42.72 49.57 46.54 53.40 50.65 C 54.68 51.73 53.72 54.31 51.97 53.91 C 50.67 53.97 49.99 52.62 49.07 51.93 C 45.65 48.43 42.15 44.99 38.69 41.51 C 34.99 44.16 30.63 46.11 25.98 45.99 C 17.79 46.09 9.94 40.57 7.22 32.85 C 4.43 25.50 6.57 16.63 12.40 11.36 M 21.44 10.65 C 14.12 12.74 8.94 20.52 10.14 28.10 C 11.04 36.59 19.69 43.22 28.13 41.84 C 36.99 40.89 43.67 31.59 41.69 22.88 C 40.13 13.94 30.12 7.79 21.44 10.65 Z" />
</g>
</svg>
