<?xml version="1.0" encoding="UTF-8" ?>
<!DOCTYPE svg PUBLIC "-//W3C//DTD SVG 1.1//EN" "http://www.w3.org/Graphics/SVG/1.1/DTD/svg11.dtd">
<svg width="60pt" height="60pt" viewBox="0 0 60 60" version="1.1" xmlns="http://www.w3.org/2000/svg">
<g id="#ffffffff">
<path fill="#ffffff" opacity="1.00" d=" M 0.00 0.00 L 60.00 0.00 L 60.00 60.00 L 0.00 60.00 L 0.00 0.00 M 18.55 6.87 C 15.79 7.28 12.99 7.57 10.33 8.43 C 8.09 9.28 7.89 11.91 7.99 13.96 C 8.14 20.52 7.36 27.32 9.59 33.63 C 12.57 42.40 19.66 49.28 27.81 53.37 C 29.15 54.15 30.81 54.15 32.15 53.40 C 40.13 49.41 47.08 42.74 50.18 34.25 C 52.75 27.43 51.86 20.03 51.99 12.91 C 52.22 10.85 51.10 8.54 48.90 8.17 C 38.96 6.01 28.63 5.32 18.55 6.87 Z" />
<path fill="#ffffff" opacity="1.00" d=" M 40.66 18.59 C 42.38 16.70 45.29 19.66 43.40 21.36 C 38.65 26.30 33.72 31.06 28.90 35.93 C 28.11 36.93 26.48 37.68 25.49 36.49 C 22.94 34.03 20.32 31.60 18.04 28.89 C 17.67 27.39 18.91 26.55 19.98 25.85 C 22.53 27.72 24.65 30.07 26.88 32.29 C 31.50 27.75 35.99 23.07 40.66 18.59 Z" />
</g>
<g id="#000000ff">
<path fill="#968176" opacity="1.00" d=" M 18.55 6.87 C 28.63 5.32 38.96 6.01 48.90 8.17 C 51.10 8.54 52.22 10.85 51.99 12.91 C 51.86 20.03 52.75 27.43 50.18 34.25 C 47.08 42.74 40.13 49.41 32.15 53.40 C 30.81 54.15 29.15 54.15 27.81 53.37 C 19.66 49.28 12.57 42.40 9.59 33.63 C 7.36 27.32 8.14 20.52 7.99 13.96 C 7.89 11.91 8.09 9.28 10.33 8.43 C 12.99 7.57 15.79 7.28 18.55 6.87 M 40.66 18.59 C 35.99 23.07 31.50 27.75 26.88 32.29 C 24.65 30.07 22.53 27.72 19.98 25.85 C 18.91 26.55 17.67 27.39 18.04 28.89 C 20.32 31.60 22.94 34.03 25.49 36.49 C 26.48 37.68 28.11 36.93 28.90 35.93 C 33.72 31.06 38.65 26.30 43.40 21.36 C 45.29 19.66 42.38 16.70 40.66 18.59 Z" />
</g>
</svg>
