<?xml version="1.0" encoding="UTF-8" ?>
<!DOCTYPE svg PUBLIC "-//W3C//DTD SVG 1.1//EN" "http://www.w3.org/Graphics/SVG/1.1/DTD/svg11.dtd">
<svg width="60pt" height="60pt" viewBox="0 0 60 60" version="1.1" xmlns="http://www.w3.org/2000/svg">
<g id="#ffffffff">
<path fill="#ffffff" opacity="1.00" d=" M 0.00 0.00 L 60.00 0.00 L 60.00 60.00 L 0.00 60.00 L 0.00 0.00 M 10.37 8.38 C 8.02 9.10 8.03 11.93 7.99 13.94 C 8.00 24.64 8.01 35.35 7.98 46.06 C 8.09 47.87 7.86 50.23 9.71 51.28 C 11.94 52.41 14.58 51.89 17.00 52.03 C 27.61 51.82 38.25 52.30 48.85 51.81 C 52.12 51.40 52.10 47.55 52.03 45.05 C 51.82 33.75 52.30 22.43 51.81 11.15 C 51.32 7.39 46.76 8.03 44.02 7.96 C 32.82 8.30 21.53 7.46 10.37 8.38 Z" />
<path fill="#ffffff" opacity="1.00" d=" M 12.09 12.09 C 24.02 11.94 35.98 11.94 47.91 12.09 C 48.08 20.69 48.07 29.31 47.91 37.91 C 35.98 38.06 24.02 38.07 12.09 37.91 C 11.93 29.31 11.93 20.69 12.09 12.09 Z" />
<path fill="#ffffff" opacity="1.00" d=" M 12.64 45.26 C 11.19 44.34 12.45 41.81 14.06 42.08 C 18.01 41.89 21.99 41.89 25.94 42.08 C 27.56 41.82 28.79 44.33 27.36 45.26 C 24.92 46.15 22.48 47.09 20.00 47.89 C 17.52 47.08 15.08 46.15 12.64 45.26 Z" />
<path fill="#ffffff" opacity="1.00" d=" M 33.21 42.18 C 37.43 41.81 41.70 41.93 45.94 42.08 C 48.05 41.88 48.75 45.03 46.79 45.81 C 42.57 46.20 38.30 46.08 34.06 45.92 C 31.96 46.13 31.24 42.95 33.21 42.18 Z" />
</g>
<g id="#000000ff">
<path fill="#968176" opacity="1.00" d=" M 10.37 8.38 C 21.53 7.46 32.82 8.30 44.02 7.96 C 46.76 8.03 51.32 7.39 51.81 11.15 C 52.30 22.43 51.82 33.75 52.03 45.05 C 52.10 47.55 52.12 51.40 48.85 51.81 C 38.25 52.30 27.61 51.82 17.00 52.03 C 14.58 51.89 11.94 52.41 9.71 51.28 C 7.86 50.23 8.09 47.87 7.98 46.06 C 8.01 35.35 8.00 24.64 7.99 13.94 C 8.03 11.93 8.02 9.10 10.37 8.38 M 12.09 12.09 C 11.93 20.69 11.93 29.31 12.09 37.91 C 24.02 38.07 35.98 38.06 47.91 37.91 C 48.07 29.31 48.08 20.69 47.91 12.09 C 35.98 11.94 24.02 11.94 12.09 12.09 M 12.64 45.26 C 15.08 46.15 17.52 47.08 20.00 47.89 C 22.48 47.09 24.92 46.15 27.36 45.26 C 28.79 44.33 27.56 41.82 25.94 42.08 C 21.99 41.89 18.01 41.89 14.06 42.08 C 12.45 41.81 11.19 44.34 12.64 45.26 M 33.21 42.18 C 31.24 42.95 31.96 46.13 34.06 45.92 C 38.30 46.08 42.57 46.20 46.79 45.81 C 48.75 45.03 48.05 41.88 45.94 42.08 C 41.70 41.93 37.43 41.81 33.21 42.18 Z" />
</g>
</svg>
