<?xml version="1.0" encoding="UTF-8" ?>
<!DOCTYPE svg PUBLIC "-//W3C//DTD SVG 1.1//EN" "http://www.w3.org/Graphics/SVG/1.1/DTD/svg11.dtd">
<svg width="200pt" height="200pt" viewBox="0 0 200 200" version="1.1" xmlns="http://www.w3.org/2000/svg">
<g id="#ffffffff">
<path fill="#ffffff" opacity="1.00" d=" M 0.00 0.00 L 200.00 0.00 L 200.00 200.00 L 0.00 200.00 L 0.00 0.00 M 41.11 79.58 C 30.78 81.78 19.91 81.49 9.88 85.04 C 19.43 91.41 31.14 85.99 41.63 86.54 C 44.26 87.82 46.66 90.19 49.75 88.53 C 47.07 92.31 43.29 88.44 40.11 87.86 C 31.35 88.14 22.62 90.30 13.83 89.16 C 11.91 88.93 10.01 88.36 8.06 88.43 C 6.10 89.07 5.89 92.30 7.56 93.41 C 11.64 96.56 16.76 97.92 21.57 99.57 C 45.96 106.89 71.50 111.67 97.05 109.76 C 106.79 109.11 116.25 106.56 125.90 105.25 C 138.71 103.39 151.90 103.56 164.53 106.55 C 171.20 108.33 175.60 114.01 180.98 117.93 C 183.26 119.21 182.98 122.13 183.89 124.28 C 185.59 130.29 189.70 136.28 196.26 137.39 C 193.93 135.52 191.48 133.27 191.31 130.06 C 191.09 125.71 191.66 120.77 188.20 117.44 C 188.33 114.81 187.71 112.24 187.32 109.66 C 187.66 107.73 190.45 108.93 191.85 108.53 C 189.54 106.21 186.34 105.29 183.15 106.07 C 177.11 98.76 169.13 93.30 160.43 89.65 C 160.79 89.19 161.51 88.25 161.87 87.79 C 157.23 86.84 152.44 86.97 147.89 85.57 C 132.10 82.52 116.06 80.97 100.08 79.30 C 89.08 78.39 78.04 76.86 67.00 78.02 C 58.36 78.42 49.78 80.32 41.11 79.58 Z" />
<path fill="#ffffff" opacity="1.00" d=" M 46.17 85.16 C 47.79 84.65 48.34 85.20 47.82 86.82 C 46.19 87.33 45.64 86.78 46.17 85.16 Z" />
<path fill="#ffffff" opacity="1.00" d=" M 61.36 90.93 C 62.14 91.38 62.91 91.84 63.68 92.31 C 70.59 90.57 75.50 97.12 82.11 97.28 C 83.45 97.35 84.79 97.37 86.14 97.34 C 86.33 97.63 86.72 98.21 86.91 98.50 C 80.66 101.00 73.75 99.47 67.53 97.68 C 64.46 96.80 60.54 94.78 61.36 90.93 Z" />
</g>
<g id="#000000ff">
<path fill="#968176" opacity="1.00" d=" M 41.11 79.58 C 49.78 80.32 58.36 78.42 67.00 78.02 C 78.04 76.86 89.08 78.39 100.08 79.30 C 116.06 80.97 132.10 82.52 147.89 85.57 C 152.44 86.97 157.23 86.84 161.87 87.79 C 161.51 88.25 160.79 89.19 160.43 89.65 C 169.13 93.30 177.11 98.76 183.15 106.07 C 186.34 105.29 189.54 106.21 191.85 108.53 C 190.45 108.93 187.66 107.73 187.32 109.66 C 187.71 112.24 188.33 114.81 188.20 117.44 C 191.66 120.77 191.09 125.71 191.31 130.06 C 191.48 133.27 193.93 135.52 196.26 137.39 C 189.70 136.28 185.59 130.29 183.89 124.28 C 182.98 122.13 183.26 119.21 180.98 117.93 C 175.60 114.01 171.20 108.33 164.53 106.55 C 151.90 103.56 138.71 103.39 125.90 105.25 C 116.25 106.56 106.79 109.11 97.05 109.76 C 71.50 111.67 45.96 106.89 21.57 99.57 C 16.76 97.92 11.64 96.56 7.56 93.41 C 5.89 92.30 6.10 89.07 8.06 88.43 C 10.01 88.36 11.91 88.93 13.83 89.16 C 22.62 90.30 31.35 88.14 40.11 87.86 C 43.29 88.44 47.07 92.31 49.75 88.53 C 46.66 90.19 44.26 87.82 41.63 86.54 C 31.14 85.99 19.43 91.41 9.88 85.04 C 19.91 81.49 30.78 81.78 41.11 79.58 M 46.17 85.16 C 45.64 86.78 46.19 87.33 47.82 86.82 C 48.34 85.20 47.79 84.65 46.17 85.16 M 61.36 90.93 C 60.54 94.78 64.46 96.80 67.53 97.68 C 73.75 99.47 80.66 101.00 86.91 98.50 C 86.72 98.21 86.33 97.63 86.14 97.34 C 84.79 97.37 83.45 97.35 82.11 97.28 C 75.50 97.12 70.59 90.57 63.68 92.31 C 62.91 91.84 62.14 91.38 61.36 90.93 Z" />
</g>
</svg>
