<?xml version="1.0" encoding="UTF-8" ?>
<!DOCTYPE svg PUBLIC "-//W3C//DTD SVG 1.1//EN" "http://www.w3.org/Graphics/SVG/1.1/DTD/svg11.dtd">
<svg width="60pt" height="60pt" viewBox="0 0 60 60" version="1.1" xmlns="http://www.w3.org/2000/svg">
<g id="#ffffffff">
<path fill="#ffffff" opacity="1.00" d=" M 0.00 0.00 L 60.00 0.00 L 60.00 60.00 L 0.00 60.00 L 0.00 0.00 M 16.25 5.23 C 13.99 9.77 12.36 14.60 10.06 19.12 C 9.85 15.12 10.25 11.10 9.83 7.11 C 9.11 5.62 6.84 5.61 6.16 7.14 C 5.78 11.46 6.06 15.81 6.05 20.14 C 4.89 21.20 3.56 22.03 2.00 22.31 C 2.00 26.21 2.00 30.10 2.00 34.00 C 6.01 35.26 9.84 37.12 13.97 37.95 C 17.28 37.51 20.62 36.94 23.76 35.82 C 26.12 33.81 28.01 31.27 29.77 28.73 C 28.86 26.68 30.17 25.66 31.83 24.84 C 32.48 22.17 29.06 21.01 27.54 19.40 C 25.62 17.41 22.72 18.14 20.26 17.92 C 23.34 15.74 26.58 13.74 29.45 11.27 C 31.12 10.05 28.96 6.94 27.23 8.24 C 23.25 10.64 19.70 13.68 15.81 16.22 C 17.14 12.81 18.92 9.56 19.97 6.04 C 20.25 3.95 16.74 3.07 16.25 5.23 M 36.18 24.21 C 33.54 26.65 31.09 29.49 29.60 32.80 L 31.70 32.92 C 30.53 33.76 29.17 34.32 28.06 35.24 C 27.72 37.90 30.92 38.96 32.49 40.58 C 34.39 42.60 37.32 41.87 39.78 42.06 C 36.69 44.26 33.47 46.29 30.57 48.73 C 28.86 50.02 31.13 52.98 32.78 51.73 C 36.74 49.34 40.34 46.38 44.18 43.80 C 42.84 47.21 41.08 50.46 40.02 53.97 C 39.83 56.08 43.15 56.84 43.76 54.75 C 45.99 50.24 47.69 45.50 49.78 40.94 C 50.24 44.92 49.73 48.94 50.19 52.91 C 51.00 54.69 54.09 54.11 53.92 52.06 C 54.13 47.99 53.98 43.91 53.95 39.84 C 55.12 38.81 56.44 37.96 58.00 37.69 C 58.00 33.79 58.00 29.90 58.00 26.00 C 54.00 24.73 50.16 22.91 46.05 22.04 C 42.73 22.54 39.35 23.05 36.18 24.21 Z" />
<path fill="#ffffff" opacity="1.00" d=" M 16.11 25.06 C 16.91 21.44 21.28 21.80 24.11 22.07 C 25.84 23.10 27.36 24.44 29.04 25.56 C 26.32 26.48 24.11 28.36 21.91 30.12 C 18.92 30.51 15.17 28.57 16.11 25.06 Z" />
<path fill="#ffffff" opacity="1.00" d=" M 31.27 34.85 C 33.64 33.32 35.89 31.62 38.10 29.88 C 40.14 30.02 42.78 30.05 43.64 32.34 C 45.12 35.28 42.17 38.59 39.08 38.03 C 35.91 38.80 33.73 36.31 31.27 34.85 Z" />
</g>
<g id="#000000ff">
<path fill="#968176" opacity="1.00" d=" M 16.25 5.23 C 16.74 3.07 20.25 3.95 19.97 6.04 C 18.92 9.56 17.14 12.81 15.81 16.22 C 19.70 13.68 23.25 10.64 27.23 8.24 C 28.96 6.94 31.12 10.05 29.45 11.27 C 26.58 13.74 23.34 15.74 20.26 17.92 C 22.72 18.14 25.62 17.41 27.54 19.40 C 29.06 21.01 32.48 22.17 31.83 24.84 C 30.17 25.66 28.86 26.68 29.77 28.73 C 28.01 31.27 26.12 33.81 23.76 35.82 C 20.62 36.94 17.28 37.51 13.97 37.95 C 9.84 37.12 6.01 35.26 2.00 34.00 C 2.00 30.10 2.00 26.21 2.00 22.31 C 3.56 22.03 4.89 21.20 6.05 20.14 C 6.06 15.81 5.78 11.46 6.16 7.14 C 6.84 5.61 9.11 5.62 9.83 7.11 C 10.25 11.10 9.85 15.12 10.06 19.12 C 12.36 14.60 13.99 9.77 16.25 5.23 M 16.11 25.06 C 15.17 28.57 18.92 30.51 21.91 30.12 C 24.11 28.36 26.32 26.48 29.04 25.56 C 27.36 24.44 25.84 23.10 24.11 22.07 C 21.28 21.80 16.91 21.44 16.11 25.06 Z" />
<path fill="#968176" opacity="1.00" d=" M 36.18 24.21 C 39.35 23.05 42.73 22.54 46.05 22.04 C 50.16 22.91 54.00 24.73 58.00 26.00 C 58.00 29.90 58.00 33.79 58.00 37.69 C 56.44 37.96 55.12 38.81 53.95 39.84 C 53.98 43.91 54.13 47.99 53.92 52.06 C 54.09 54.11 51.00 54.69 50.19 52.91 C 49.73 48.94 50.24 44.92 49.78 40.94 C 47.69 45.50 45.99 50.24 43.76 54.75 C 43.15 56.84 39.83 56.08 40.02 53.97 C 41.08 50.46 42.84 47.21 44.18 43.80 C 40.34 46.38 36.74 49.34 32.78 51.73 C 31.13 52.98 28.86 50.02 30.57 48.73 C 33.47 46.29 36.69 44.26 39.78 42.06 C 37.32 41.87 34.39 42.60 32.49 40.58 C 30.92 38.96 27.72 37.90 28.06 35.24 C 29.17 34.32 30.53 33.76 31.70 32.92 L 29.60 32.80 C 31.09 29.49 33.54 26.65 36.18 24.21 M 31.27 34.85 C 33.73 36.31 35.91 38.80 39.08 38.03 C 42.17 38.59 45.12 35.28 43.64 32.34 C 42.78 30.05 40.14 30.02 38.10 29.88 C 35.89 31.62 33.64 33.32 31.27 34.85 Z" />
</g>
</svg>
