<?xml version="1.0" encoding="UTF-8" ?>
<!DOCTYPE svg PUBLIC "-//W3C//DTD SVG 1.1//EN" "http://www.w3.org/Graphics/SVG/1.1/DTD/svg11.dtd">
<svg width="60pt" height="60pt" viewBox="0 0 60 60" version="1.1" xmlns="http://www.w3.org/2000/svg">
<g id="#ffffffff">
<path fill="#ffffff" opacity="1.00" d=" M 0.00 0.00 L 60.00 0.00 L 60.00 60.00 L 0.00 60.00 L 0.00 0.00 M 29.23 4.20 C 26.72 5.08 28.52 8.97 30.89 7.89 C 33.14 6.79 31.51 3.04 29.23 4.20 M 8.00 8.00 C 7.99 20.67 8.03 33.35 7.97 46.02 C 7.93 48.10 8.08 50.79 10.38 51.62 C 14.86 52.51 19.47 51.76 24.00 52.01 C 24.00 40.09 23.99 28.17 24.01 16.26 C 22.64 15.85 19.83 16.10 20.06 13.97 C 19.87 11.89 22.66 12.14 24.00 11.75 C 24.00 10.50 24.01 9.25 24.00 8.00 C 18.66 8.00 13.33 8.00 8.00 8.00 M 36.00 8.00 C 35.99 9.25 35.99 10.50 36.00 11.75 C 37.37 12.15 40.08 11.88 39.95 13.99 C 40.10 16.11 37.37 15.86 35.99 16.25 C 36.00 28.17 36.00 40.09 36.00 52.01 C 40.30 51.84 44.64 52.33 48.92 51.80 C 51.17 51.47 52.16 49.04 51.99 47.00 C 52.03 34.00 51.98 21.00 52.00 8.00 C 46.67 8.00 41.33 8.00 36.00 8.00 M 29.13 12.09 C 26.92 13.27 28.40 16.86 30.81 15.89 C 33.17 14.77 31.56 11.13 29.13 12.09 M 29.22 20.20 C 26.71 20.97 28.56 25.11 30.77 23.78 C 33.28 23.02 31.46 18.92 29.22 20.20 M 29.12 28.10 C 26.84 29.35 28.49 32.87 30.92 31.89 C 33.10 30.59 31.51 27.17 29.12 28.10 M 29.23 36.17 C 26.78 37.09 28.42 40.88 30.80 39.91 C 33.17 38.86 31.56 35.07 29.23 36.17 M 29.18 44.08 C 26.81 45.13 28.50 49.04 30.82 47.79 C 33.21 46.80 31.52 43.14 29.18 44.08 M 29.16 52.11 C 26.83 53.25 28.46 56.89 30.89 55.90 C 33.09 54.65 31.56 51.18 29.16 52.11 Z" />
</g>
<g id="#000000ff">
<path fill="#968176" opacity="1.00" d=" M 29.23 4.20 C 31.51 3.04 33.14 6.79 30.89 7.89 C 28.52 8.97 26.72 5.08 29.23 4.20 Z" />
<path fill="#968176" opacity="1.00" d=" M 8.00 8.00 C 13.33 8.00 18.66 8.00 24.00 8.00 C 24.01 9.25 24.00 10.50 24.00 11.75 C 22.66 12.14 19.87 11.89 20.06 13.97 C 19.83 16.10 22.64 15.85 24.01 16.26 C 23.99 28.17 24.00 40.09 24.00 52.01 C 19.47 51.76 14.86 52.51 10.38 51.62 C 8.08 50.79 7.93 48.10 7.97 46.02 C 8.03 33.35 7.99 20.67 8.00 8.00 Z" />
<path fill="#968176" opacity="1.00" d=" M 36.00 8.00 C 41.33 8.00 46.67 8.00 52.00 8.00 C 51.98 21.00 52.03 34.00 51.99 47.00 C 52.16 49.04 51.17 51.47 48.92 51.80 C 44.64 52.33 40.30 51.84 36.00 52.01 C 36.00 40.09 36.00 28.17 35.99 16.25 C 37.37 15.86 40.10 16.11 39.95 13.99 C 40.08 11.88 37.37 12.15 36.00 11.75 C 35.99 10.50 35.99 9.25 36.00 8.00 Z" />
<path fill="#968176" opacity="1.00" d=" M 29.13 12.09 C 31.56 11.13 33.17 14.77 30.81 15.89 C 28.40 16.86 26.92 13.27 29.13 12.09 Z" />
<path fill="#968176" opacity="1.00" d=" M 29.22 20.20 C 31.46 18.92 33.28 23.02 30.77 23.78 C 28.56 25.11 26.71 20.97 29.22 20.20 Z" />
<path fill="#968176" opacity="1.00" d=" M 29.12 28.10 C 31.51 27.17 33.10 30.59 30.92 31.89 C 28.49 32.87 26.84 29.35 29.12 28.10 Z" />
<path fill="#968176" opacity="1.00" d=" M 29.23 36.17 C 31.56 35.07 33.17 38.86 30.80 39.91 C 28.42 40.88 26.78 37.09 29.23 36.17 Z" />
<path fill="#968176" opacity="1.00" d=" M 29.18 44.08 C 31.52 43.14 33.21 46.80 30.82 47.79 C 28.50 49.04 26.81 45.13 29.18 44.08 Z" />
<path fill="#968176" opacity="1.00" d=" M 29.16 52.11 C 31.56 51.18 33.09 54.65 30.89 55.90 C 28.46 56.89 26.83 53.25 29.16 52.11 Z" />
</g>
</svg>
