<?xml version="1.0" encoding="UTF-8" ?>
<!DOCTYPE svg PUBLIC "-//W3C//DTD SVG 1.1//EN" "http://www.w3.org/Graphics/SVG/1.1/DTD/svg11.dtd">
<svg width="60pt" height="60pt" viewBox="0 0 60 60" version="1.1" xmlns="http://www.w3.org/2000/svg">
<g id="#ffffffff">
<path fill="#ffffff" opacity="1.00" d=" M 0.00 0.00 L 60.00 0.00 L 60.00 60.00 L 0.00 60.00 L 0.00 0.00 M 8.39 12.39 C 7.58 16.20 8.07 20.15 8.04 24.01 C 9.93 24.00 11.82 23.99 13.72 23.98 C 14.04 22.53 13.87 20.88 14.70 19.59 C 19.20 16.64 24.79 16.04 30.04 16.03 C 35.03 16.15 40.26 16.67 44.68 19.17 C 46.40 20.09 45.83 22.40 46.28 23.98 C 48.17 23.99 50.07 24.00 51.96 24.01 C 51.93 20.14 52.42 16.20 51.61 12.38 C 50.91 10.01 48.08 10.02 46.07 9.98 C 35.36 10.00 24.64 10.00 13.93 9.98 C 11.91 10.01 9.12 10.04 8.39 12.39 M 6.20 31.16 C 5.69 36.77 6.14 42.42 5.96 48.04 C 6.17 50.02 5.43 52.54 7.22 53.97 C 9.62 54.48 9.81 51.68 10.41 50.10 C 23.48 49.93 36.57 49.94 49.64 50.09 C 50.10 51.53 50.61 52.95 51.17 54.34 C 52.15 53.71 54.08 53.50 53.90 51.93 C 54.05 45.02 54.22 38.06 53.80 31.16 C 53.59 28.29 50.34 27.87 48.07 27.98 C 35.69 28.04 23.32 27.95 10.95 28.02 C 8.91 27.90 6.37 28.80 6.20 31.16 Z" />
</g>
<g id="#000000ff">
<path fill="#968176" opacity="1.00" d=" M 8.39 12.39 C 9.12 10.04 11.91 10.01 13.93 9.98 C 24.64 10.00 35.36 10.00 46.07 9.98 C 48.08 10.02 50.91 10.01 51.61 12.38 C 52.42 16.20 51.93 20.14 51.96 24.01 C 50.07 24.00 48.17 23.99 46.28 23.98 C 45.83 22.40 46.40 20.09 44.68 19.17 C 40.26 16.67 35.03 16.15 30.04 16.03 C 24.79 16.04 19.20 16.64 14.70 19.59 C 13.87 20.88 14.04 22.53 13.72 23.98 C 11.82 23.99 9.93 24.00 8.04 24.01 C 8.07 20.15 7.58 16.20 8.39 12.39 Z" />
<path fill="#968176" opacity="1.00" d=" M 6.20 31.16 C 6.37 28.80 8.91 27.90 10.95 28.02 C 23.32 27.95 35.69 28.04 48.07 27.98 C 50.34 27.87 53.59 28.29 53.80 31.16 C 54.22 38.06 54.05 45.02 53.90 51.93 C 54.08 53.50 52.15 53.71 51.17 54.34 C 50.61 52.95 50.10 51.53 49.64 50.09 C 36.57 49.94 23.48 49.93 10.41 50.10 C 9.81 51.68 9.62 54.48 7.22 53.97 C 5.43 52.54 6.17 50.02 5.96 48.04 C 6.14 42.42 5.69 36.77 6.20 31.16 Z" />
</g>
</svg>
