<?xml version="1.0" encoding="UTF-8" ?>
<!DOCTYPE svg PUBLIC "-//W3C//DTD SVG 1.1//EN" "http://www.w3.org/Graphics/SVG/1.1/DTD/svg11.dtd">
<svg width="60pt" height="60pt" viewBox="0 0 60 60" version="1.1" xmlns="http://www.w3.org/2000/svg">
<g id="#ffffffff">
<path fill="#ffffff" opacity="1.00" d=" M 0.00 0.00 L 60.00 0.00 L 60.00 60.00 L 0.00 60.00 L 0.00 0.00 M 14.21 10.24 C 11.26 11.37 8.96 14.12 8.21 17.17 C 7.40 21.24 9.28 25.21 11.39 28.57 C 15.15 34.33 20.05 39.24 25.14 43.82 C 29.19 47.25 33.60 50.73 38.92 51.81 C 43.16 52.76 47.63 50.23 49.50 46.42 C 50.12 45.35 50.28 43.67 49.07 42.94 C 46.01 40.88 42.79 39.05 39.55 37.31 C 36.43 35.62 33.88 41.09 30.82 39.27 C 26.81 36.31 23.11 32.74 20.37 28.57 C 20.11 26.14 22.47 24.23 23.14 21.95 C 22.30 18.80 20.11 16.22 18.63 13.35 C 17.69 11.81 16.49 9.17 14.21 10.24 M 28.16 13.02 C 27.69 17.10 32.69 17.16 35.40 18.14 C 34.79 19.48 33.58 19.99 32.18 20.10 C 30.96 18.76 29.26 18.45 27.50 18.48 C 28.43 23.81 38.28 23.73 37.98 17.96 C 37.50 14.57 33.25 14.85 30.75 13.84 C 32.09 10.15 35.63 13.79 38.21 13.52 C 37.24 8.79 29.13 8.11 28.16 13.02 M 40.47 9.93 C 40.48 13.93 40.48 17.93 40.47 21.93 C 41.49 21.93 42.51 21.93 43.53 21.93 C 43.52 17.93 43.52 13.93 43.53 9.93 C 42.51 9.93 41.49 9.93 40.47 9.93 M 46.00 9.91 C 46.00 13.92 46.00 17.93 46.00 21.94 C 46.76 21.94 48.29 21.93 49.06 21.93 C 49.05 20.83 49.04 19.73 49.03 18.63 C 50.58 18.39 52.24 18.48 53.68 17.77 C 56.54 16.14 56.08 11.09 52.85 10.21 C 50.59 9.78 48.28 9.96 46.00 9.91 Z" />
<path fill="#ffffff" opacity="1.00" d=" M 49.21 11.99 C 50.25 12.56 52.52 12.23 52.43 13.93 C 53.00 16.10 50.33 15.95 49.02 16.39 C 49.01 14.92 49.07 13.45 49.21 11.99 Z" />
</g>
<g id="#000000ff">
<path fill="#968176" opacity="1.00" d=" M 14.21 10.24 C 16.49 9.17 17.69 11.81 18.63 13.35 C 20.11 16.22 22.30 18.80 23.14 21.95 C 22.47 24.23 20.11 26.14 20.37 28.57 C 23.11 32.74 26.81 36.31 30.82 39.27 C 33.88 41.09 36.43 35.62 39.55 37.31 C 42.79 39.05 46.01 40.88 49.07 42.94 C 50.28 43.67 50.12 45.35 49.50 46.42 C 47.63 50.23 43.16 52.76 38.92 51.81 C 33.60 50.73 29.19 47.25 25.14 43.82 C 20.05 39.24 15.15 34.33 11.39 28.57 C 9.28 25.21 7.40 21.24 8.21 17.17 C 8.96 14.12 11.26 11.37 14.21 10.24 Z" />
<path fill="#968176" opacity="1.00" d=" M 28.16 13.02 C 29.13 8.11 37.24 8.79 38.21 13.52 C 35.63 13.79 32.09 10.15 30.75 13.84 C 33.25 14.85 37.50 14.57 37.98 17.96 C 38.28 23.73 28.43 23.81 27.50 18.48 C 29.26 18.45 30.96 18.76 32.18 20.10 C 33.58 19.99 34.79 19.48 35.40 18.14 C 32.69 17.16 27.69 17.10 28.16 13.02 Z" />
<path fill="#968176" opacity="1.00" d=" M 40.47 9.93 C 41.49 9.93 42.51 9.93 43.53 9.93 C 43.52 13.93 43.52 17.93 43.53 21.93 C 42.51 21.93 41.49 21.93 40.47 21.93 C 40.48 17.93 40.48 13.93 40.47 9.93 Z" />
<path fill="#968176" opacity="1.00" d=" M 46.00 9.91 C 48.28 9.96 50.59 9.78 52.85 10.21 C 56.08 11.09 56.54 16.14 53.68 17.77 C 52.24 18.48 50.58 18.39 49.03 18.63 C 49.04 19.73 49.05 20.83 49.06 21.93 C 48.29 21.93 46.76 21.94 46.00 21.94 C 46.00 17.93 46.00 13.92 46.00 9.91 M 49.21 11.99 C 49.07 13.45 49.01 14.92 49.02 16.39 C 50.33 15.95 53.00 16.10 52.43 13.93 C 52.52 12.23 50.25 12.56 49.21 11.99 Z" />
</g>
</svg>
