<?xml version="1.0" encoding="UTF-8" ?>
<!DOCTYPE svg PUBLIC "-//W3C//DTD SVG 1.1//EN" "http://www.w3.org/Graphics/SVG/1.1/DTD/svg11.dtd">
<svg width="60pt" height="60pt" viewBox="0 0 60 60" version="1.1" xmlns="http://www.w3.org/2000/svg">
<g id="#ffffffff">
<path fill="#ffffff" opacity="1.00" d=" M 0.00 0.00 L 60.00 0.00 L 60.00 60.00 L 0.00 60.00 L 0.00 0.00 M 16.62 12.59 C 14.49 15.31 14.21 18.83 14.07 22.14 C 11.64 22.82 8.76 24.09 8.60 27.02 C 8.10 30.09 10.94 31.89 13.21 33.21 C 10.96 36.99 4.32 36.02 4.00 41.08 C 3.95 44.75 7.71 46.17 10.57 47.18 C 12.28 50.97 16.51 50.10 19.86 50.11 C 23.03 51.84 26.15 54.22 29.97 54.01 C 33.80 54.25 36.95 51.87 40.13 50.12 C 43.48 50.04 47.70 50.96 49.43 47.18 C 51.72 46.20 54.71 45.50 55.65 42.87 C 56.69 40.58 55.30 37.64 52.86 37.03 C 50.49 36.34 48.44 35.05 46.80 33.22 C 49.10 31.91 51.94 30.03 51.38 26.94 C 51.13 24.07 48.33 22.80 45.92 22.07 C 45.76 18.77 45.50 15.26 43.37 12.56 C 37.44 3.76 22.55 3.80 16.62 12.59 Z" />
<path fill="#ffffff" opacity="1.00" d=" M 19.86 14.97 C 24.44 8.06 36.43 8.31 40.53 15.59 C 42.54 19.05 41.60 23.23 41.60 27.02 C 43.71 26.65 46.41 25.62 47.94 27.81 C 46.04 29.04 43.56 29.54 42.02 31.21 C 42.48 36.43 47.68 39.89 52.41 41.13 C 50.68 42.75 48.32 43.13 46.10 43.65 C 45.81 44.51 45.52 45.38 45.24 46.25 C 42.76 46.17 39.98 45.35 37.74 46.84 C 35.29 48.17 32.95 50.19 29.99 49.99 C 26.49 50.20 23.97 47.41 20.94 46.20 C 18.92 45.67 16.82 46.18 14.78 46.28 C 14.49 45.40 14.20 44.52 13.91 43.64 C 11.69 43.13 9.33 42.75 7.60 41.14 C 12.32 39.88 17.49 36.44 18.00 31.24 C 16.46 29.54 13.96 29.01 12.03 27.83 C 13.64 25.74 16.25 26.69 18.41 27.00 C 18.39 22.99 17.37 18.48 19.86 14.97 Z" />
</g>
<g id="#000000ff">
<path fill="#968176" opacity="1.00" d=" M 16.62 12.59 C 22.55 3.80 37.44 3.76 43.37 12.56 C 45.50 15.26 45.76 18.77 45.92 22.07 C 48.33 22.80 51.13 24.07 51.38 26.94 C 51.94 30.03 49.10 31.91 46.80 33.22 C 48.44 35.05 50.49 36.34 52.86 37.03 C 55.30 37.64 56.69 40.58 55.65 42.87 C 54.71 45.50 51.72 46.20 49.43 47.18 C 47.70 50.96 43.48 50.04 40.13 50.12 C 36.95 51.87 33.80 54.25 29.97 54.01 C 26.15 54.22 23.03 51.84 19.86 50.11 C 16.51 50.10 12.28 50.97 10.57 47.18 C 7.71 46.17 3.95 44.75 4.00 41.08 C 4.32 36.02 10.96 36.99 13.21 33.21 C 10.94 31.89 8.10 30.09 8.60 27.02 C 8.76 24.09 11.64 22.82 14.07 22.14 C 14.21 18.83 14.49 15.31 16.62 12.59 M 19.86 14.97 C 17.37 18.48 18.39 22.99 18.41 27.00 C 16.25 26.69 13.64 25.74 12.03 27.83 C 13.96 29.01 16.46 29.54 18.00 31.24 C 17.49 36.44 12.32 39.88 7.60 41.14 C 9.33 42.75 11.69 43.13 13.91 43.64 C 14.20 44.52 14.49 45.40 14.78 46.28 C 16.82 46.18 18.92 45.67 20.94 46.20 C 23.97 47.41 26.49 50.20 29.99 49.99 C 32.95 50.19 35.29 48.17 37.74 46.84 C 39.98 45.35 42.76 46.17 45.24 46.25 C 45.52 45.38 45.81 44.51 46.10 43.65 C 48.32 43.13 50.68 42.75 52.41 41.13 C 47.68 39.89 42.48 36.43 42.02 31.21 C 43.56 29.54 46.04 29.04 47.94 27.81 C 46.41 25.62 43.71 26.65 41.60 27.02 C 41.60 23.23 42.54 19.05 40.53 15.59 C 36.43 8.31 24.44 8.06 19.86 14.97 Z" />
</g>
</svg>
