<?xml version="1.0" encoding="UTF-8" ?>
<!DOCTYPE svg PUBLIC "-//W3C//DTD SVG 1.1//EN" "http://www.w3.org/Graphics/SVG/1.1/DTD/svg11.dtd">
<svg width="60pt" height="60pt" viewBox="0 0 60 60" version="1.1" xmlns="http://www.w3.org/2000/svg">
<g id="#ffffffff">
<path fill="#ffffff" opacity="1.00" d=" M 0.00 0.00 L 60.00 0.00 L 60.00 60.00 L 40.44 60.00 C 40.95 59.53 41.96 58.58 42.47 58.11 C 46.28 58.29 45.18 54.04 45.21 51.59 C 45.12 50.21 43.52 50.21 42.55 49.78 C 41.12 47.71 38.87 47.68 37.46 49.79 C 33.73 49.84 34.83 53.93 34.79 56.40 C 34.85 57.95 36.65 57.74 37.70 58.16 C 38.07 58.62 38.81 59.54 39.18 60.00 L 0.00 60.00 L 0.00 0.00 M 6.08 19.11 C 6.19 21.74 7.68 23.97 9.02 26.13 C 7.74 27.89 6.23 29.67 6.09 31.95 C 5.31 37.05 9.78 42.11 14.94 41.95 C 24.99 42.04 35.04 42.04 45.09 41.95 C 50.23 42.09 54.63 37.09 53.93 32.01 C 53.69 28.55 51.04 25.98 48.16 24.42 C 47.41 18.86 41.90 14.71 36.33 16.28 C 34.16 13.56 31.44 11.01 27.89 10.34 C 24.43 9.41 20.90 10.52 17.76 11.97 C 18.44 10.49 19.11 8.88 18.81 7.22 C 18.19 5.77 16.34 6.09 15.14 6.41 C 9.55 7.69 5.41 13.39 6.08 19.11 M 47.90 13.26 C 48.40 15.72 50.30 17.54 52.72 18.11 C 53.72 16.88 54.84 15.74 56.08 14.74 C 55.59 12.63 54.14 10.66 52.01 10.01 C 50.27 10.52 49.27 12.20 47.90 13.26 M 14.51 46.55 C 13.59 47.61 14.38 48.90 14.68 50.02 C 14.35 51.13 13.68 52.38 14.51 53.47 C 15.61 54.28 16.87 53.63 18.00 53.31 C 19.11 53.63 20.31 54.27 21.41 53.53 C 22.34 52.45 21.69 51.16 21.31 50.02 C 21.60 48.89 22.47 47.53 21.44 46.50 C 20.41 45.55 19.09 46.43 17.99 46.68 C 16.87 46.42 15.52 45.56 14.51 46.55 Z" />
<path fill="#ffffff" opacity="1.00" d=" M 10.26 16.06 C 10.72 13.94 12.43 12.48 13.83 10.95 C 13.56 17.15 18.83 22.45 25.05 22.18 C 22.98 24.40 20.21 26.54 16.96 25.91 C 12.37 25.46 8.97 20.50 10.26 16.06 Z" />
</g>
<g id="#000000ff">
<path fill="#968176" opacity="1.00" d=" M 6.08 19.11 C 5.41 13.39 9.55 7.69 15.14 6.41 C 16.34 6.09 18.19 5.77 18.81 7.22 C 19.11 8.88 18.44 10.49 17.76 11.97 C 20.90 10.52 24.43 9.41 27.89 10.34 C 31.44 11.01 34.16 13.56 36.33 16.28 C 41.90 14.71 47.41 18.86 48.16 24.42 C 51.04 25.98 53.69 28.55 53.93 32.01 C 54.63 37.09 50.23 42.09 45.09 41.95 C 35.04 42.04 24.99 42.04 14.94 41.95 C 9.78 42.11 5.31 37.05 6.09 31.95 C 6.23 29.67 7.74 27.89 9.02 26.13 C 7.68 23.97 6.19 21.74 6.08 19.11 M 10.26 16.06 C 8.97 20.50 12.37 25.46 16.96 25.91 C 20.21 26.54 22.98 24.40 25.05 22.18 C 18.83 22.45 13.56 17.15 13.83 10.95 C 12.43 12.48 10.72 13.94 10.26 16.06 Z" />
<path fill="#968176" opacity="1.00" d=" M 47.90 13.26 C 49.27 12.20 50.27 10.52 52.01 10.01 C 54.14 10.66 55.59 12.63 56.08 14.74 C 54.84 15.74 53.72 16.88 52.72 18.11 C 50.30 17.54 48.40 15.72 47.90 13.26 Z" />
<path fill="#968176" opacity="1.00" d=" M 14.51 46.55 C 15.52 45.56 16.87 46.42 17.99 46.68 C 19.09 46.43 20.41 45.55 21.44 46.50 C 22.47 47.53 21.60 48.89 21.31 50.02 C 21.69 51.16 22.34 52.45 21.41 53.53 C 20.31 54.27 19.11 53.63 18.00 53.31 C 16.87 53.63 15.61 54.28 14.51 53.47 C 13.68 52.38 14.35 51.13 14.68 50.02 C 14.38 48.90 13.59 47.61 14.51 46.55 Z" />
<path fill="#968176" opacity="1.00" d=" M 37.46 49.79 C 38.87 47.68 41.12 47.71 42.55 49.78 C 43.52 50.21 45.12 50.21 45.21 51.59 C 45.18 54.04 46.28 58.29 42.47 58.11 C 41.96 58.58 40.95 59.53 40.44 60.00 L 39.18 60.00 C 38.81 59.54 38.07 58.62 37.70 58.16 C 36.65 57.74 34.85 57.95 34.79 56.40 C 34.83 53.93 33.73 49.84 37.46 49.79 Z" />
</g>
</svg>
