<?xml version="1.0" encoding="UTF-8" ?>
<!DOCTYPE svg PUBLIC "-//W3C//DTD SVG 1.1//EN" "http://www.w3.org/Graphics/SVG/1.1/DTD/svg11.dtd">
<svg width="60pt" height="60pt" viewBox="0 0 60 60" version="1.1" xmlns="http://www.w3.org/2000/svg">
<g id="#ffffffff">
<path fill="#ffffff" opacity="1.00" d=" M 0.00 0.00 L 60.00 0.00 L 60.00 60.00 L 0.00 60.00 L 0.00 0.00 M 14.29 2.41 C 12.57 3.18 11.86 5.12 12.00 6.90 C 12.03 18.62 11.93 30.33 12.05 42.04 C 11.89 44.21 13.88 45.46 15.31 46.70 C 20.31 50.35 24.69 54.88 29.98 58.07 C 34.60 55.54 38.27 51.55 42.53 48.45 C 44.82 46.42 48.51 44.68 48.00 41.03 C 47.96 29.30 48.09 17.56 47.94 5.84 C 47.96 3.28 45.37 1.65 43.01 2.00 C 33.45 2.26 23.76 1.45 14.29 2.41 Z" />
<path fill="#ffffff" opacity="1.00" d=" M 25.93 19.79 C 29.28 17.31 35.03 18.56 35.93 23.01 C 32.95 24.05 30.60 19.78 27.93 22.06 C 27.74 24.78 31.16 24.13 32.86 25.03 C 36.35 25.44 36.85 30.42 34.23 32.22 C 30.75 34.58 24.92 33.60 23.72 29.13 C 24.60 29.08 26.36 28.99 27.23 28.94 C 27.64 29.41 28.44 30.35 28.84 30.81 C 30.54 30.93 31.80 30.33 32.61 29.01 C 30.79 27.16 27.87 27.53 25.77 26.18 C 23.82 24.62 23.96 21.27 25.93 19.79 Z" />
</g>
<g id="#000000ff">
<path fill="#968176" opacity="1.00" d=" M 14.29 2.41 C 23.76 1.45 33.45 2.26 43.01 2.00 C 45.37 1.65 47.96 3.28 47.94 5.84 C 48.09 17.56 47.96 29.30 48.00 41.03 C 48.51 44.68 44.82 46.42 42.53 48.45 C 38.27 51.55 34.60 55.54 29.98 58.07 C 24.69 54.88 20.31 50.35 15.31 46.70 C 13.88 45.46 11.89 44.21 12.05 42.04 C 11.93 30.33 12.03 18.62 12.00 6.90 C 11.86 5.12 12.57 3.18 14.29 2.41 M 25.93 19.79 C 23.96 21.27 23.82 24.62 25.77 26.18 C 27.87 27.53 30.79 27.16 32.61 29.01 C 31.80 30.33 30.54 30.93 28.84 30.81 C 28.44 30.35 27.64 29.41 27.23 28.94 C 26.36 28.99 24.60 29.08 23.72 29.13 C 24.92 33.60 30.75 34.58 34.23 32.22 C 36.85 30.42 36.35 25.44 32.86 25.03 C 31.16 24.13 27.74 24.78 27.93 22.06 C 30.60 19.78 32.95 24.05 35.93 23.01 C 35.03 18.56 29.28 17.31 25.93 19.79 Z" />
</g>
</svg>
