<?xml version="1.0" encoding="UTF-8" ?>
<!DOCTYPE svg PUBLIC "-//W3C//DTD SVG 1.1//EN" "http://www.w3.org/Graphics/SVG/1.1/DTD/svg11.dtd">
<svg width="60pt" height="60pt" viewBox="0 0 60 60" version="1.1" xmlns="http://www.w3.org/2000/svg">
<g id="#ffffffff">
<path fill="#ffffff" opacity="1.00" d=" M 0.00 0.00 L 60.00 0.00 L 60.00 60.00 L 0.00 60.00 L 0.00 0.00 M 28.24 7.13 C 25.91 11.70 25.87 16.99 26.00 22.00 C 28.67 22.00 31.33 22.00 34.00 22.00 C 34.14 16.99 34.06 11.75 31.79 7.16 C 31.24 5.67 28.84 5.67 28.24 7.13 M 9.27 8.16 C 6.73 8.93 8.48 13.08 10.79 11.80 C 13.21 10.96 11.54 7.06 9.27 8.16 M 49.26 8.08 C 46.81 9.07 48.39 12.89 50.82 11.89 C 53.10 10.82 51.64 7.21 49.26 8.08 M 8.17 17.14 C 7.75 20.87 8.15 24.63 7.95 28.37 C 4.65 31.33 6.43 36.13 6.00 39.99 C 6.33 43.18 4.72 47.92 8.41 49.64 C 10.84 50.89 13.14 48.83 14.20 46.77 C 16.13 47.43 18.07 48.10 20.00 48.77 C 19.98 50.78 19.87 52.81 20.19 54.81 C 20.76 56.36 23.22 56.39 23.80 54.83 C 24.00 53.28 24.09 51.72 24.06 50.16 C 27.86 52.24 32.14 52.26 35.94 50.16 C 36.00 52.19 35.34 56.75 38.78 55.87 C 40.96 54.31 39.67 51.05 40.00 48.77 C 41.93 48.10 43.86 47.43 45.80 46.77 C 46.74 47.95 47.46 49.65 49.15 49.87 C 51.47 50.54 54.00 48.46 53.95 46.09 C 54.05 41.37 54.06 36.64 53.94 31.93 C 54.07 30.45 52.87 29.45 52.06 28.40 C 51.85 24.65 52.25 20.89 51.83 17.15 C 51.19 15.62 48.85 15.61 48.17 17.12 C 47.58 20.85 48.48 24.70 47.75 28.40 C 45.76 30.48 45.89 33.33 45.97 36.00 C 43.31 36.00 40.65 36.00 37.99 36.00 C 37.71 32.81 39.20 28.20 35.67 26.36 C 32.19 25.65 28.54 25.97 25.01 26.14 C 20.75 27.43 22.21 32.67 22.01 36.00 C 19.35 36.00 16.69 36.00 14.03 36.00 C 14.01 33.35 14.44 30.27 12.07 28.42 C 11.84 24.66 12.25 20.88 11.83 17.13 C 11.16 15.61 8.82 15.61 8.17 17.14 Z" />
<path fill="#ffffff" opacity="1.00" d=" M 25.75 33.97 C 26.37 32.05 27.70 29.86 30.02 30.01 C 32.36 29.84 33.61 32.07 34.25 33.97 C 31.42 34.01 28.58 34.02 25.75 33.97 Z" />
</g>
<g id="#000000ff">
<path fill="#968176" opacity="1.00" d=" M 28.24 7.13 C 28.84 5.67 31.24 5.67 31.79 7.16 C 34.06 11.75 34.14 16.99 34.00 22.00 C 31.33 22.00 28.67 22.00 26.00 22.00 C 25.87 16.99 25.91 11.70 28.24 7.13 Z" />
<path fill="#968176" opacity="1.00" d=" M 9.27 8.16 C 11.54 7.06 13.21 10.96 10.79 11.80 C 8.48 13.08 6.73 8.93 9.27 8.16 Z" />
<path fill="#968176" opacity="1.00" d=" M 49.26 8.08 C 51.64 7.21 53.10 10.82 50.82 11.89 C 48.39 12.89 46.81 9.07 49.26 8.08 Z" />
<path fill="#968176" opacity="1.00" d=" M 8.17 17.14 C 8.82 15.61 11.16 15.61 11.83 17.13 C 12.25 20.88 11.84 24.66 12.07 28.42 C 14.44 30.27 14.01 33.35 14.03 36.00 C 16.69 36.00 19.35 36.00 22.01 36.00 C 22.21 32.67 20.75 27.43 25.01 26.14 C 28.54 25.97 32.19 25.65 35.67 26.36 C 39.20 28.20 37.71 32.81 37.99 36.00 C 40.65 36.00 43.31 36.00 45.97 36.00 C 45.89 33.33 45.76 30.48 47.75 28.40 C 48.48 24.70 47.58 20.85 48.17 17.12 C 48.85 15.61 51.19 15.62 51.83 17.15 C 52.25 20.89 51.85 24.65 52.06 28.40 C 52.87 29.45 54.07 30.45 53.94 31.93 C 54.06 36.64 54.05 41.37 53.95 46.09 C 54.00 48.46 51.47 50.54 49.15 49.87 C 47.46 49.65 46.74 47.95 45.80 46.77 C 43.86 47.43 41.93 48.10 40.00 48.77 C 39.67 51.05 40.96 54.31 38.78 55.87 C 35.34 56.75 36.00 52.19 35.94 50.16 C 32.14 52.26 27.86 52.24 24.06 50.16 C 24.09 51.72 24.00 53.28 23.80 54.83 C 23.22 56.39 20.76 56.36 20.19 54.81 C 19.87 52.81 19.98 50.78 20.00 48.77 C 18.07 48.10 16.13 47.43 14.20 46.77 C 13.14 48.83 10.84 50.89 8.41 49.64 C 4.72 47.92 6.33 43.18 6.00 39.99 C 6.43 36.13 4.65 31.33 7.95 28.37 C 8.15 24.63 7.75 20.87 8.17 17.14 M 25.75 33.97 C 28.58 34.02 31.42 34.01 34.25 33.97 C 33.61 32.07 32.36 29.84 30.02 30.01 C 27.70 29.86 26.37 32.05 25.75 33.97 Z" />
</g>
</svg>
