<?xml version="1.0" encoding="UTF-8" ?>
<!DOCTYPE svg PUBLIC "-//W3C//DTD SVG 1.1//EN" "http://www.w3.org/Graphics/SVG/1.1/DTD/svg11.dtd">
<svg width="60pt" height="60pt" viewBox="0 0 60 60" version="1.1" xmlns="http://www.w3.org/2000/svg">
<g id="#ffffffff">
<path fill="#ffffff" opacity="1.00" d=" M 0.00 0.00 L 60.00 0.00 L 60.00 60.00 L 0.00 60.00 L 0.00 0.00 M 30.49 6.62 C 25.16 8.20 22.30 14.99 25.31 19.79 C 27.28 23.05 23.16 26.08 24.27 29.44 C 24.77 31.64 25.61 33.75 25.95 35.98 C 26.00 39.44 24.06 42.57 24.01 46.03 C 24.07 48.57 25.95 50.62 28.03 51.85 C 34.51 55.69 43.52 54.15 48.53 48.57 C 52.62 44.13 53.98 37.88 53.99 32.00 C 53.96 25.41 52.96 18.41 48.98 12.95 C 44.91 7.33 37.12 4.79 30.49 6.62 M 11.00 22.06 C 9.50 24.17 6.54 23.43 4.56 24.67 C 3.29 25.67 4.28 28.15 5.95 27.92 C 10.63 28.17 15.32 27.91 20.00 28.00 C 20.00 26.67 20.00 25.34 20.00 24.01 C 18.20 24.00 16.40 23.98 14.60 23.94 C 16.08 22.16 17.65 20.32 19.99 19.70 C 19.99 18.40 19.98 17.09 19.97 15.78 C 15.93 16.05 13.35 19.14 11.00 22.06 M 4.57 35.34 C 6.57 36.56 9.53 35.82 11.01 37.95 C 13.35 40.88 15.94 43.93 19.97 44.22 C 19.98 42.91 19.99 41.60 20.00 40.29 C 17.64 39.70 16.09 37.83 14.60 36.05 C 16.40 36.01 18.20 36.00 20.00 35.99 C 20.00 34.66 20.00 33.33 20.00 32.00 C 15.33 32.08 10.65 31.84 5.98 32.07 C 4.30 31.83 3.26 34.33 4.57 35.34 Z" />
</g>
<g id="#000000ff">
<path fill="#968176" opacity="1.00" d=" M 30.49 6.62 C 37.12 4.79 44.91 7.33 48.98 12.95 C 52.96 18.41 53.96 25.41 53.99 32.00 C 53.98 37.88 52.62 44.13 48.53 48.57 C 43.52 54.15 34.51 55.69 28.03 51.85 C 25.95 50.62 24.07 48.57 24.01 46.03 C 24.06 42.57 26.00 39.44 25.95 35.98 C 25.61 33.75 24.77 31.64 24.27 29.44 C 23.16 26.08 27.28 23.05 25.31 19.79 C 22.30 14.99 25.16 8.20 30.49 6.62 Z" />
<path fill="#968176" opacity="1.00" d=" M 11.00 22.06 C 13.35 19.14 15.93 16.05 19.97 15.78 C 19.98 17.09 19.99 18.40 19.99 19.70 C 17.65 20.32 16.08 22.16 14.60 23.94 C 16.40 23.98 18.20 24.00 20.00 24.01 C 20.00 25.34 20.00 26.67 20.00 28.00 C 15.32 27.91 10.63 28.17 5.95 27.92 C 4.28 28.15 3.29 25.67 4.56 24.67 C 6.54 23.43 9.50 24.17 11.00 22.06 Z" />
<path fill="#968176" opacity="1.00" d=" M 4.57 35.34 C 3.26 34.33 4.30 31.83 5.98 32.07 C 10.65 31.84 15.33 32.08 20.00 32.00 C 20.00 33.33 20.00 34.66 20.00 35.99 C 18.20 36.00 16.40 36.01 14.60 36.05 C 16.09 37.83 17.64 39.70 20.00 40.29 C 19.99 41.60 19.98 42.91 19.97 44.22 C 15.94 43.93 13.35 40.88 11.01 37.95 C 9.53 35.82 6.57 36.56 4.57 35.34 Z" />
</g>
</svg>
