<?xml version="1.0" encoding="UTF-8" ?>
<!DOCTYPE svg PUBLIC "-//W3C//DTD SVG 1.1//EN" "http://www.w3.org/Graphics/SVG/1.1/DTD/svg11.dtd">
<svg width="200pt" height="200pt" viewBox="0 0 200 200" version="1.1" xmlns="http://www.w3.org/2000/svg">
<g id="#ffffffff">
<path fill="#ffffff" opacity="1.00" d=" M 0.00 0.00 L 200.00 0.00 L 200.00 200.00 L 0.00 200.00 L 0.00 0.00 M 161.58 56.46 C 154.96 60.31 149.46 65.96 142.27 68.86 C 144.44 73.96 144.12 79.63 143.27 84.98 C 153.64 80.26 164.56 76.64 175.85 74.91 C 174.89 73.08 171.96 70.96 173.75 68.81 C 176.93 67.37 181.05 67.43 183.48 64.54 C 184.92 62.41 182.90 60.04 181.53 58.45 C 176.68 52.61 167.74 53.12 161.58 56.46 M 99.97 60.34 C 100.50 62.78 101.09 65.20 101.74 67.61 C 105.76 69.77 109.69 72.09 113.67 74.33 C 118.35 70.71 123.06 67.13 127.72 63.49 C 118.77 60.70 109.29 60.11 99.97 60.34 M 66.70 67.87 C 69.48 69.94 71.76 72.94 75.27 73.80 C 80.00 75.30 84.71 76.87 89.42 78.42 C 92.51 75.87 95.53 73.24 98.65 70.72 C 97.13 67.56 96.84 64.01 95.94 60.65 C 85.93 61.82 76.25 64.78 66.70 67.87 M 115.85 77.75 C 115.86 80.47 115.86 83.20 115.86 85.92 C 118.68 89.34 121.50 92.76 124.33 96.18 C 131.34 90.60 136.03 82.78 139.79 74.79 C 138.67 70.66 135.81 67.24 132.08 65.20 C 126.68 69.40 121.25 73.55 115.85 77.75 M 45.06 75.86 C 50.52 78.58 55.85 81.58 61.44 84.05 C 63.86 80.92 66.50 77.98 69.03 74.94 C 66.79 73.05 64.56 71.17 62.32 69.29 C 56.49 71.29 50.74 73.48 45.06 75.86 M 91.82 81.67 C 91.84 89.29 91.82 96.92 91.82 104.55 C 101.89 105.40 112.43 104.02 121.07 98.49 C 118.13 94.59 114.54 91.12 111.93 87.00 C 111.73 83.94 111.92 80.87 111.86 77.80 C 108.78 76.05 105.68 74.32 102.60 72.58 C 99.00 75.60 95.39 78.62 91.82 81.67 M 72.45 77.05 C 69.62 80.59 66.46 83.88 63.79 87.55 C 62.79 91.84 62.52 96.27 61.56 100.57 C 70.23 102.26 79.03 103.29 87.81 104.17 C 87.82 96.83 87.81 89.49 87.82 82.15 C 82.70 80.44 77.58 78.73 72.45 77.05 M 40.21 77.92 C 33.13 81.45 25.82 84.77 19.69 89.85 C 24.65 91.99 29.81 93.61 35.02 95.05 C 38.93 90.44 42.83 85.82 46.73 81.21 C 44.56 80.10 42.38 79.01 40.21 77.92 M 50.37 83.08 C 46.68 87.44 42.97 91.80 39.28 96.16 C 45.37 97.65 51.52 98.90 57.69 100.01 C 58.34 95.94 58.99 91.86 59.64 87.78 C 56.55 86.21 53.46 84.64 50.37 83.08 M 138.97 84.77 C 135.69 92.33 129.86 98.78 122.58 102.67 C 112.71 108.00 101.12 109.08 90.09 108.32 C 73.64 106.92 57.26 104.49 41.18 100.73 C 32.88 98.71 24.57 96.45 16.81 92.81 C 16.51 93.68 16.22 94.54 15.93 95.41 C 34.20 102.81 53.72 106.56 73.13 109.50 C 85.98 111.15 99.02 112.73 111.97 111.34 C 125.55 109.67 137.11 98.34 138.97 84.77 M 137.28 99.78 C 138.81 103.46 141.07 106.88 141.86 110.83 C 142.52 114.17 141.14 117.51 139.24 120.19 C 134.00 127.57 125.85 132.25 120.62 139.64 C 119.22 141.49 118.63 143.75 118.18 145.99 C 131.94 145.03 144.81 136.28 150.96 123.98 C 153.31 119.10 154.72 113.52 153.80 108.12 C 151.57 101.81 145.20 98.64 140.08 95.00 C 139.17 96.61 138.23 98.20 137.28 99.78 M 27.97 118.86 C 24.41 120.43 22.85 124.50 21.91 128.00 C 20.72 133.61 24.91 138.27 28.73 141.74 C 41.17 134.85 52.10 124.34 57.53 111.02 C 54.10 110.33 50.69 109.62 47.27 108.89 C 40.84 112.23 34.42 115.57 27.97 118.86 Z" />
<path fill="#ffffff" opacity="1.00" d=" M 175.15 61.01 C 177.61 59.77 179.24 63.96 176.63 64.78 C 174.32 65.62 172.79 61.92 175.15 61.01 Z" />
</g>
<g id="#000000ff">
<path fill="#968176" opacity="1.00" d=" M 161.58 56.46 C 167.74 53.12 176.68 52.61 181.53 58.45 C 182.90 60.04 184.92 62.41 183.48 64.54 C 181.05 67.43 176.93 67.37 173.75 68.81 C 171.96 70.96 174.89 73.08 175.85 74.91 C 164.56 76.64 153.64 80.26 143.27 84.98 C 144.12 79.63 144.44 73.96 142.27 68.86 C 149.46 65.96 154.96 60.31 161.58 56.46 M 175.15 61.01 C 172.79 61.92 174.32 65.62 176.63 64.78 C 179.24 63.96 177.61 59.77 175.15 61.01 Z" />
<path fill="#968176" opacity="1.00" d=" M 99.97 60.34 C 109.29 60.11 118.77 60.70 127.72 63.49 C 123.06 67.13 118.35 70.71 113.67 74.33 C 109.69 72.09 105.76 69.77 101.74 67.61 C 101.09 65.20 100.50 62.78 99.97 60.34 Z" />
<path fill="#968176" opacity="1.00" d=" M 66.70 67.87 C 76.25 64.78 85.93 61.82 95.94 60.65 C 96.84 64.01 97.13 67.56 98.65 70.72 C 95.53 73.24 92.51 75.87 89.42 78.42 C 84.71 76.87 80.00 75.30 75.27 73.80 C 71.76 72.94 69.48 69.94 66.70 67.87 Z" />
<path fill="#968176" opacity="1.00" d=" M 115.85 77.75 C 121.25 73.55 126.68 69.40 132.08 65.20 C 135.81 67.24 138.67 70.66 139.79 74.79 C 136.03 82.78 131.34 90.60 124.33 96.18 C 121.50 92.76 118.68 89.34 115.86 85.92 C 115.86 83.20 115.86 80.47 115.85 77.75 Z" />
<path fill="#968176" opacity="1.00" d=" M 45.06 75.86 C 50.74 73.48 56.49 71.29 62.32 69.29 C 64.56 71.17 66.79 73.05 69.03 74.94 C 66.50 77.98 63.86 80.92 61.44 84.05 C 55.85 81.58 50.52 78.58 45.06 75.86 Z" />
<path fill="#968176" opacity="1.00" d=" M 91.82 81.67 C 95.39 78.62 99.00 75.60 102.60 72.58 C 105.68 74.32 108.78 76.05 111.86 77.80 C 111.92 80.87 111.73 83.94 111.93 87.00 C 114.54 91.12 118.13 94.59 121.07 98.49 C 112.43 104.02 101.89 105.40 91.82 104.55 C 91.82 96.92 91.84 89.29 91.82 81.67 Z" />
<path fill="#968176" opacity="1.00" d=" M 72.45 77.05 C 77.58 78.73 82.70 80.44 87.82 82.15 C 87.81 89.49 87.82 96.83 87.81 104.17 C 79.03 103.29 70.23 102.26 61.56 100.57 C 62.52 96.27 62.79 91.84 63.79 87.55 C 66.46 83.88 69.62 80.59 72.45 77.05 Z" />
<path fill="#968176" opacity="1.00" d=" M 40.21 77.92 C 42.38 79.01 44.56 80.10 46.73 81.21 C 42.83 85.82 38.93 90.44 35.02 95.05 C 29.81 93.61 24.65 91.99 19.69 89.85 C 25.82 84.77 33.13 81.45 40.21 77.92 Z" />
<path fill="#968176" opacity="1.00" d=" M 50.37 83.08 C 53.46 84.64 56.55 86.21 59.64 87.78 C 58.99 91.86 58.34 95.94 57.69 100.01 C 51.52 98.90 45.37 97.65 39.28 96.16 C 42.97 91.80 46.68 87.44 50.37 83.08 Z" />
<path fill="#968176" opacity="1.00" d=" M 138.97 84.77 C 137.11 98.34 125.55 109.67 111.97 111.34 C 99.02 112.73 85.98 111.15 73.13 109.50 C 53.72 106.56 34.20 102.81 15.93 95.41 C 16.22 94.54 16.51 93.68 16.81 92.81 C 24.57 96.45 32.88 98.71 41.18 100.73 C 57.26 104.49 73.64 106.92 90.09 108.32 C 101.12 109.08 112.71 108.00 122.58 102.67 C 129.86 98.78 135.69 92.33 138.97 84.77 Z" />
<path fill="#968176" opacity="1.00" d=" M 137.28 99.78 C 138.23 98.20 139.17 96.61 140.08 95.00 C 145.20 98.64 151.57 101.81 153.80 108.12 C 154.72 113.52 153.31 119.10 150.96 123.98 C 144.81 136.28 131.94 145.03 118.18 145.99 C 118.63 143.75 119.22 141.49 120.62 139.64 C 125.85 132.25 134.00 127.57 139.24 120.19 C 141.14 117.51 142.52 114.17 141.86 110.83 C 141.07 106.88 138.81 103.46 137.28 99.78 Z" />
<path fill="#968176" opacity="1.00" d=" M 27.97 118.86 C 34.42 115.57 40.84 112.23 47.27 108.89 C 50.69 109.62 54.10 110.33 57.53 111.02 C 52.10 124.34 41.17 134.85 28.73 141.74 C 24.91 138.27 20.72 133.61 21.91 128.00 C 22.85 124.50 24.41 120.43 27.97 118.86 Z" />
</g>
</svg>
