<?xml version="1.0" encoding="UTF-8" ?>
<!DOCTYPE svg PUBLIC "-//W3C//DTD SVG 1.1//EN" "http://www.w3.org/Graphics/SVG/1.1/DTD/svg11.dtd">
<svg width="60pt" height="60pt" viewBox="0 0 60 60" version="1.1" xmlns="http://www.w3.org/2000/svg">
<g id="#ffffffff">
<path fill="#ffffff" opacity="1.00" d=" M 0.00 0.00 L 28.85 0.00 C 27.29 3.79 28.09 8.04 28.10 12.03 C 27.92 14.09 31.00 14.76 31.77 12.88 C 32.09 8.62 32.52 4.16 31.30 0.00 L 60.00 0.00 L 60.00 60.00 L 0.00 60.00 L 0.00 0.00 M 19.23 4.08 C 16.83 5.12 18.38 8.87 20.84 7.91 C 23.08 6.77 21.62 3.19 19.23 4.08 M 39.09 4.11 C 36.91 5.23 38.45 8.90 40.72 7.83 C 43.28 6.92 41.51 3.05 39.09 4.11 M 9.17 6.04 C 8.17 6.67 7.81 7.56 8.10 8.71 C 9.60 10.61 11.32 12.34 13.22 13.82 C 15.20 14.74 16.98 12.09 15.38 10.64 C 13.51 8.96 11.99 5.90 9.17 6.04 M 49.27 6.13 C 47.37 7.62 45.64 9.34 44.16 11.24 C 43.37 12.83 45.20 14.59 46.76 13.80 C 48.68 12.37 50.38 10.63 51.86 8.75 C 52.55 7.10 50.92 5.45 49.27 6.13 M 21.15 10.11 C 18.88 11.24 20.40 14.84 22.82 13.91 C 25.16 12.76 23.55 9.13 21.15 10.11 M 37.15 10.10 C 34.89 11.21 36.37 14.84 38.78 13.88 C 41.20 12.82 39.56 9.13 37.15 10.10 M 5.09 16.17 C 3.23 17.58 4.30 20.32 3.92 22.33 C 3.20 23.44 1.96 24.43 2.06 25.88 C 1.95 32.61 1.97 39.34 2.04 46.06 C 1.95 48.21 3.90 50.08 6.02 50.05 C 12.37 50.56 18.78 51.19 24.88 53.13 C 26.93 53.91 28.36 56.59 30.86 55.90 C 32.47 55.25 33.56 53.73 35.17 53.11 C 41.29 51.16 47.72 50.55 54.09 50.03 C 56.17 50.03 58.04 48.16 57.95 46.06 C 58.03 39.34 58.06 32.62 57.94 25.90 C 58.02 24.44 56.81 23.44 56.09 22.34 C 56.01 20.59 56.05 18.83 55.82 17.10 C 55.04 15.66 53.31 16.11 51.99 16.03 C 44.56 16.25 36.91 16.78 30.00 19.76 C 22.17 16.51 13.47 15.90 5.09 16.17 Z" />
<path fill="#ffffff" opacity="1.00" d=" M 8.01 20.10 C 14.74 20.33 21.59 20.76 27.97 23.14 C 28.04 31.15 27.98 39.17 28.00 47.18 C 21.56 45.03 14.76 44.32 8.00 44.10 C 8.00 36.10 7.99 28.10 8.01 20.10 Z" />
<path fill="#ffffff" opacity="1.00" d=" M 32.03 23.14 C 38.41 20.76 45.26 20.33 51.99 20.10 C 52.01 28.10 52.00 36.10 52.00 44.10 C 45.24 44.32 38.44 45.03 32.00 47.18 C 32.02 39.17 31.96 31.15 32.03 23.14 Z" />
</g>
<g id="#000000ff">
<path fill="#968176" opacity="1.00" d=" M 28.85 0.00 L 31.30 0.00 C 32.52 4.16 32.09 8.62 31.77 12.88 C 31.00 14.76 27.92 14.09 28.10 12.03 C 28.09 8.04 27.29 3.79 28.85 0.00 Z" />
<path fill="#968176" opacity="1.00" d=" M 19.23 4.08 C 21.62 3.19 23.08 6.77 20.84 7.91 C 18.38 8.87 16.83 5.12 19.23 4.08 Z" />
<path fill="#968176" opacity="1.00" d=" M 39.09 4.11 C 41.51 3.05 43.28 6.92 40.72 7.83 C 38.45 8.90 36.91 5.23 39.09 4.11 Z" />
<path fill="#968176" opacity="1.00" d=" M 9.17 6.04 C 11.99 5.90 13.51 8.96 15.38 10.64 C 16.98 12.09 15.20 14.74 13.22 13.82 C 11.32 12.34 9.60 10.61 8.10 8.71 C 7.81 7.56 8.17 6.67 9.17 6.04 Z" />
<path fill="#968176" opacity="1.00" d=" M 49.27 6.13 C 50.92 5.45 52.55 7.10 51.86 8.75 C 50.38 10.63 48.68 12.37 46.76 13.80 C 45.20 14.59 43.37 12.83 44.16 11.24 C 45.64 9.34 47.37 7.62 49.27 6.13 Z" />
<path fill="#968176" opacity="1.00" d=" M 21.15 10.11 C 23.55 9.13 25.16 12.76 22.82 13.91 C 20.40 14.84 18.88 11.24 21.15 10.11 Z" />
<path fill="#968176" opacity="1.00" d=" M 37.15 10.10 C 39.56 9.13 41.20 12.82 38.78 13.88 C 36.37 14.84 34.89 11.21 37.15 10.10 Z" />
<path fill="#968176" opacity="1.00" d=" M 5.09 16.17 C 13.47 15.90 22.17 16.51 30.00 19.76 C 36.91 16.78 44.56 16.25 51.99 16.03 C 53.31 16.11 55.04 15.66 55.82 17.10 C 56.05 18.83 56.01 20.59 56.09 22.34 C 56.81 23.44 58.02 24.44 57.94 25.90 C 58.06 32.62 58.03 39.34 57.95 46.06 C 58.04 48.16 56.17 50.03 54.09 50.03 C 47.72 50.55 41.29 51.16 35.17 53.11 C 33.56 53.73 32.47 55.25 30.86 55.90 C 28.36 56.59 26.93 53.91 24.88 53.13 C 18.78 51.19 12.37 50.56 6.02 50.05 C 3.90 50.08 1.95 48.21 2.04 46.06 C 1.97 39.34 1.95 32.61 2.06 25.88 C 1.96 24.43 3.20 23.44 3.92 22.33 C 4.30 20.32 3.23 17.58 5.09 16.17 M 8.01 20.10 C 7.99 28.10 8.00 36.10 8.00 44.10 C 14.76 44.32 21.56 45.03 28.00 47.18 C 27.98 39.17 28.04 31.15 27.97 23.14 C 21.59 20.76 14.74 20.33 8.01 20.10 M 32.03 23.14 C 31.96 31.15 32.02 39.17 32.00 47.18 C 38.44 45.03 45.24 44.32 52.00 44.10 C 52.00 36.10 52.01 28.10 51.99 20.10 C 45.26 20.33 38.41 20.76 32.03 23.14 Z" />
</g>
</svg>
