<?xml version="1.0" encoding="UTF-8" ?>
<!DOCTYPE svg PUBLIC "-//W3C//DTD SVG 1.1//EN" "http://www.w3.org/Graphics/SVG/1.1/DTD/svg11.dtd">
<svg width="60pt" height="60pt" viewBox="0 0 60 60" version="1.1" xmlns="http://www.w3.org/2000/svg">
<g id="#ffffffff">
<path fill="#ffffff" opacity="1.00" d=" M 0.00 0.00 L 60.00 0.00 L 60.00 60.00 L 0.00 60.00 L 0.00 0.00 M 17.59 11.56 C 15.84 13.03 15.72 14.86 17.38 16.51 C 17.33 17.66 17.27 18.81 17.21 19.95 C 14.77 20.26 9.27 18.78 10.11 22.97 C 11.34 24.40 13.38 23.88 15.04 24.02 C 26.05 23.91 37.06 24.14 48.06 23.91 C 50.13 24.05 50.73 21.00 48.89 20.22 C 46.87 19.88 44.82 20.01 42.79 19.95 C 42.72 18.80 42.67 17.65 42.61 16.51 C 44.29 14.89 44.14 13.01 42.40 11.56 C 41.80 10.37 41.88 7.74 39.98 8.06 C 38.10 7.74 38.20 10.39 37.59 11.56 C 35.86 13.01 35.70 14.88 37.38 16.51 C 37.33 17.67 37.27 18.83 37.20 20.00 C 35.73 20.00 34.26 20.00 32.79 20.00 C 32.73 18.84 32.67 17.67 32.61 16.51 C 34.28 14.85 34.15 13.03 32.41 11.55 C 31.81 10.38 31.89 7.78 30.01 8.06 C 28.11 7.75 28.19 10.38 27.59 11.56 C 25.84 13.03 25.71 14.86 27.38 16.51 C 27.32 17.67 27.26 18.84 27.20 20.00 C 25.73 20.00 24.26 20.00 22.79 20.00 C 22.73 18.84 22.67 17.67 22.61 16.51 C 24.29 14.86 24.15 13.03 22.40 11.55 C 21.81 10.37 21.89 7.77 19.99 8.06 C 18.08 7.71 18.23 10.40 17.59 11.56 M 6.07 29.98 C 5.99 35.62 5.80 41.28 6.19 46.91 C 7.42 48.70 9.94 47.73 11.77 48.01 C 11.65 50.55 12.90 52.30 15.54 52.29 C 16.57 53.08 17.67 53.78 18.82 54.38 C 19.15 53.78 19.82 52.59 20.15 52.00 C 26.72 52.00 33.28 52.00 39.85 52.00 C 40.18 52.59 40.85 53.79 41.18 54.38 C 42.33 53.78 43.42 53.08 44.45 52.29 C 47.08 52.30 48.36 50.54 48.23 48.01 C 50.06 47.75 52.48 48.64 53.80 46.96 C 54.23 41.61 53.94 36.21 53.98 30.85 C 54.11 29.67 53.63 27.94 52.12 28.09 C 38.10 27.87 24.06 28.07 10.03 27.99 C 8.55 27.97 5.94 27.80 6.07 29.98 Z" />
<path fill="#ffffff" opacity="1.00" d=" M 13.16 32.09 C 14.42 31.73 16.02 32.43 15.91 33.92 C 16.06 36.88 16.20 39.89 15.79 42.84 C 15.10 44.76 11.91 44.13 12.08 42.05 C 12.36 38.84 10.85 34.66 13.16 32.09 Z" />
<path fill="#ffffff" opacity="1.00" d=" M 21.12 32.10 C 22.41 31.72 23.98 32.39 23.91 33.91 C 24.10 36.62 24.10 39.35 23.92 42.06 C 24.03 43.56 22.42 44.28 21.14 43.90 C 19.31 42.56 20.22 39.97 19.96 38.04 C 20.22 36.08 19.32 33.50 21.12 32.10 Z" />
<path fill="#ffffff" opacity="1.00" d=" M 29.05 32.10 C 30.35 31.72 32.06 32.40 31.92 33.97 C 32.07 36.93 32.19 39.94 31.79 42.89 C 31.01 44.71 27.92 44.13 28.08 42.07 C 28.31 38.83 26.96 34.83 29.05 32.10 Z" />
<path fill="#ffffff" opacity="1.00" d=" M 37.15 32.09 C 38.43 31.72 40.04 32.45 39.92 33.96 C 40.10 36.64 40.10 39.34 39.92 42.03 C 40.01 43.59 38.42 44.28 37.09 43.90 C 35.36 42.47 36.20 39.97 35.96 38.03 C 36.24 36.08 35.29 33.44 37.15 32.09 Z" />
<path fill="#ffffff" opacity="1.00" d=" M 45.12 32.10 C 46.45 31.69 47.97 32.42 47.92 33.95 C 48.10 36.65 48.10 39.38 47.91 42.08 C 48.02 43.63 46.35 44.24 45.08 43.90 C 43.36 42.46 44.20 39.96 43.96 38.01 C 44.22 36.07 43.32 33.48 45.12 32.10 Z" />
</g>
<g id="#000000ff">
<path fill="#968176" opacity="1.00" d=" M 17.59 11.56 C 18.23 10.40 18.08 7.71 19.99 8.06 C 21.89 7.77 21.81 10.37 22.40 11.55 C 24.15 13.03 24.29 14.86 22.61 16.51 C 22.67 17.67 22.73 18.84 22.79 20.00 C 24.26 20.00 25.73 20.00 27.20 20.00 C 27.26 18.84 27.32 17.67 27.38 16.51 C 25.71 14.86 25.84 13.03 27.59 11.56 C 28.19 10.38 28.11 7.75 30.01 8.06 C 31.89 7.78 31.81 10.38 32.41 11.55 C 34.15 13.03 34.28 14.85 32.61 16.51 C 32.67 17.67 32.73 18.84 32.79 20.00 C 34.26 20.00 35.73 20.00 37.20 20.00 C 37.27 18.83 37.33 17.67 37.38 16.51 C 35.70 14.88 35.86 13.01 37.59 11.56 C 38.20 10.39 38.10 7.74 39.98 8.06 C 41.88 7.74 41.80 10.37 42.40 11.56 C 44.14 13.01 44.29 14.89 42.61 16.51 C 42.67 17.65 42.72 18.80 42.79 19.95 C 44.82 20.01 46.87 19.88 48.89 20.22 C 50.73 21.00 50.13 24.05 48.06 23.91 C 37.06 24.14 26.05 23.91 15.04 24.02 C 13.38 23.88 11.34 24.40 10.11 22.97 C 9.27 18.78 14.77 20.26 17.21 19.95 C 17.27 18.81 17.33 17.66 17.38 16.51 C 15.72 14.86 15.84 13.03 17.59 11.56 Z" />
<path fill="#968176" opacity="1.00" d=" M 6.07 29.98 C 5.94 27.80 8.55 27.97 10.03 27.99 C 24.06 28.07 38.10 27.87 52.12 28.09 C 53.63 27.94 54.11 29.67 53.98 30.85 C 53.94 36.21 54.23 41.61 53.80 46.96 C 52.48 48.64 50.06 47.75 48.23 48.01 C 48.36 50.54 47.08 52.30 44.45 52.29 C 43.42 53.08 42.33 53.78 41.18 54.38 C 40.85 53.79 40.18 52.59 39.85 52.00 C 33.28 52.00 26.72 52.00 20.15 52.00 C 19.82 52.59 19.15 53.78 18.82 54.38 C 17.67 53.78 16.57 53.08 15.54 52.29 C 12.90 52.30 11.65 50.55 11.77 48.01 C 9.94 47.73 7.42 48.70 6.19 46.91 C 5.80 41.28 5.99 35.62 6.07 29.98 M 13.16 32.09 C 10.85 34.66 12.36 38.84 12.08 42.05 C 11.91 44.13 15.10 44.76 15.79 42.84 C 16.20 39.89 16.06 36.88 15.91 33.92 C 16.02 32.43 14.42 31.73 13.16 32.09 M 21.12 32.10 C 19.32 33.50 20.22 36.08 19.96 38.04 C 20.22 39.97 19.31 42.56 21.14 43.90 C 22.42 44.28 24.03 43.56 23.92 42.06 C 24.10 39.35 24.10 36.62 23.91 33.91 C 23.98 32.39 22.41 31.72 21.12 32.10 M 29.05 32.10 C 26.96 34.83 28.31 38.83 28.08 42.07 C 27.92 44.13 31.01 44.71 31.79 42.89 C 32.19 39.94 32.07 36.93 31.92 33.97 C 32.06 32.40 30.35 31.72 29.05 32.10 M 37.15 32.09 C 35.29 33.44 36.24 36.08 35.96 38.03 C 36.20 39.97 35.36 42.47 37.09 43.90 C 38.42 44.28 40.01 43.59 39.92 42.03 C 40.10 39.34 40.10 36.64 39.92 33.96 C 40.04 32.45 38.43 31.72 37.15 32.09 M 45.12 32.10 C 43.32 33.48 44.22 36.07 43.96 38.01 C 44.20 39.96 43.36 42.46 45.08 43.90 C 46.35 44.24 48.02 43.63 47.91 42.08 C 48.10 39.38 48.10 36.65 47.92 33.95 C 47.97 32.42 46.45 31.69 45.12 32.10 Z" />
</g>
</svg>
