<?xml version="1.0" encoding="UTF-8" ?>
<!DOCTYPE svg PUBLIC "-//W3C//DTD SVG 1.1//EN" "http://www.w3.org/Graphics/SVG/1.1/DTD/svg11.dtd">
<svg width="60pt" height="60pt" viewBox="0 0 60 60" version="1.1" xmlns="http://www.w3.org/2000/svg">
<g id="#ffffffff">
<path fill="#ffffff" opacity="1.00" d=" M 0.00 0.00 L 60.00 0.00 L 60.00 17.01 C 57.41 15.34 54.20 16.17 51.31 15.97 C 49.34 14.56 47.76 11.97 45.09 12.03 C 32.70 11.94 20.31 12.03 7.92 11.99 C 6.65 12.13 4.96 11.71 4.21 13.09 C 3.83 16.30 3.80 19.58 4.22 22.79 C 5.38 24.02 8.64 24.44 7.79 26.67 C 5.06 32.95 0.77 38.70 0.00 45.72 L 0.00 0.00 Z" />
<path fill="#ffffff" opacity="1.00" d=" M 38.00 16.00 C 40.40 16.00 42.80 16.00 45.20 16.00 C 46.77 17.32 48.19 18.86 49.98 19.88 C 51.98 20.09 53.99 20.00 56.00 20.02 C 56.00 23.99 56.00 27.96 56.00 31.94 C 54.16 32.33 51.44 31.19 50.28 33.09 C 50.16 33.82 49.92 35.28 49.80 36.01 C 43.99 36.51 38.19 35.37 33.14 32.42 C 36.09 30.94 39.06 29.49 42.00 28.00 C 42.00 25.33 42.00 22.66 42.00 20.00 C 40.68 18.66 39.34 17.33 38.00 16.00 Z" />
<path fill="#ffffff" opacity="1.00" d=" M 31.15 20.11 C 33.56 19.13 35.09 22.65 32.89 23.90 C 30.45 24.88 28.84 21.27 31.15 20.11 Z" />
<path fill="#ffffff" opacity="1.00" d=" M 18.00 23.94 C 19.84 24.34 22.61 23.16 23.73 25.12 C 23.84 25.84 24.08 27.27 24.20 27.98 C 22.13 28.00 20.06 28.00 18.00 28.00 C 18.00 26.65 18.00 25.29 18.00 23.94 Z" />
<path fill="#ffffff" opacity="1.00" d=" M 18.00 31.97 C 20.93 32.24 24.30 31.22 26.85 33.08 C 31.74 36.24 36.95 39.46 42.90 39.91 C 46.22 40.07 49.58 40.21 52.89 39.78 C 54.03 38.98 53.82 37.30 54.31 36.12 C 56.22 35.99 58.15 35.85 60.00 35.33 L 60.00 60.00 L 0.00 60.00 L 0.00 46.99 C 3.34 48.88 7.38 47.69 11.03 48.03 C 13.23 47.71 16.11 48.78 17.80 46.94 C 18.28 41.97 17.88 36.96 18.00 31.97 Z" />
</g>
<g id="#000000ff">
<path fill="#968176" opacity="1.00" d=" M 4.21 13.09 C 4.96 11.71 6.65 12.13 7.92 11.99 C 20.31 12.03 32.70 11.94 45.09 12.03 C 47.76 11.97 49.34 14.56 51.31 15.97 C 54.20 16.17 57.41 15.34 60.00 17.01 L 60.00 35.33 C 58.15 35.85 56.22 35.99 54.31 36.12 C 53.82 37.30 54.03 38.98 52.89 39.78 C 49.58 40.21 46.22 40.07 42.90 39.91 C 36.95 39.46 31.74 36.24 26.85 33.08 C 24.30 31.22 20.93 32.24 18.00 31.97 C 17.88 36.96 18.28 41.97 17.80 46.94 C 16.11 48.78 13.23 47.71 11.03 48.03 C 7.38 47.69 3.34 48.88 0.00 46.99 L 0.00 45.72 C 0.77 38.70 5.06 32.95 7.79 26.67 C 8.64 24.44 5.38 24.02 4.22 22.79 C 3.80 19.58 3.83 16.30 4.21 13.09 M 38.00 16.00 C 39.34 17.33 40.68 18.66 42.00 20.00 C 42.00 22.66 42.00 25.33 42.00 28.00 C 39.06 29.49 36.09 30.94 33.14 32.42 C 38.19 35.37 43.99 36.51 49.80 36.01 C 49.92 35.28 50.16 33.82 50.28 33.09 C 51.44 31.19 54.16 32.33 56.00 31.94 C 56.00 27.96 56.00 23.99 56.00 20.02 C 53.99 20.00 51.98 20.09 49.98 19.88 C 48.19 18.86 46.77 17.32 45.20 16.00 C 42.80 16.00 40.40 16.00 38.00 16.00 M 31.15 20.11 C 28.84 21.27 30.45 24.88 32.89 23.90 C 35.09 22.65 33.56 19.13 31.15 20.11 M 18.00 23.94 C 18.00 25.29 18.00 26.65 18.00 28.00 C 20.06 28.00 22.13 28.00 24.20 27.98 C 24.08 27.27 23.84 25.84 23.73 25.12 C 22.61 23.16 19.84 24.34 18.00 23.94 Z" />
</g>
</svg>
