<?xml version="1.0" encoding="UTF-8" ?>
<!DOCTYPE svg PUBLIC "-//W3C//DTD SVG 1.1//EN" "http://www.w3.org/Graphics/SVG/1.1/DTD/svg11.dtd">
<svg width="60pt" height="60pt" viewBox="0 0 60 60" version="1.1" xmlns="http://www.w3.org/2000/svg">
<g id="#ffffffff">
<path fill="#ffffff" opacity="1.00" d=" M 0.00 0.00 L 60.00 0.00 L 60.00 60.00 L 0.00 60.00 L 0.00 0.00 M 9.82 17.81 C 4.82 27.45 6.20 38.62 6.00 49.08 C 5.62 51.46 7.39 54.00 9.90 53.96 C 16.58 54.10 23.26 53.92 29.94 54.03 C 23.81 51.55 18.31 46.07 18.06 39.15 C 17.92 35.51 18.17 30.83 21.72 28.79 C 26.01 26.68 31.26 27.99 35.42 25.48 C 37.64 24.28 38.91 22.03 40.14 19.93 C 42.13 26.04 42.11 32.61 41.86 38.97 C 40.98 42.50 36.84 42.09 34.03 42.03 C 33.40 41.37 32.78 40.71 32.16 40.05 C 30.28 40.15 27.74 39.46 26.51 41.35 C 25.23 43.14 26.61 46.02 28.87 45.93 C 33.64 46.06 38.42 46.10 43.19 45.88 C 49.12 45.46 54.04 40.00 53.97 34.08 C 54.06 27.77 53.62 20.69 49.16 15.78 C 46.90 13.18 43.47 12.20 40.16 11.91 C 37.89 8.02 33.42 6.11 29.05 6.06 C 20.96 5.45 13.29 10.66 9.82 17.81 Z" />
</g>
<g id="#000000ff">
<path fill="#968176" opacity="1.00" d=" M 9.82 17.81 C 13.29 10.66 20.96 5.45 29.05 6.06 C 33.42 6.11 37.89 8.02 40.16 11.91 C 43.47 12.20 46.90 13.18 49.16 15.78 C 53.62 20.69 54.06 27.77 53.97 34.08 C 54.04 40.00 49.12 45.46 43.19 45.88 C 38.42 46.10 33.64 46.06 28.87 45.93 C 26.61 46.02 25.23 43.14 26.51 41.35 C 27.74 39.46 30.28 40.15 32.16 40.05 C 32.78 40.71 33.40 41.37 34.03 42.03 C 36.84 42.09 40.98 42.50 41.86 38.97 C 42.11 32.61 42.13 26.04 40.14 19.93 C 38.91 22.03 37.64 24.28 35.42 25.48 C 31.26 27.99 26.01 26.68 21.72 28.79 C 18.17 30.83 17.92 35.51 18.06 39.15 C 18.31 46.07 23.81 51.55 29.94 54.03 C 23.26 53.92 16.58 54.10 9.90 53.96 C 7.39 54.00 5.62 51.46 6.00 49.08 C 6.20 38.62 4.82 27.45 9.82 17.81 Z" />
</g>
</svg>
