<?xml version="1.0" encoding="UTF-8" ?>
<!DOCTYPE svg PUBLIC "-//W3C//DTD SVG 1.1//EN" "http://www.w3.org/Graphics/SVG/1.1/DTD/svg11.dtd">
<svg width="60pt" height="60pt" viewBox="0 0 60 60" version="1.1" xmlns="http://www.w3.org/2000/svg">
<g id="#ffffffff">
<path fill="#ffffff" opacity="1.00" d=" M 0.00 0.00 L 60.00 0.00 L 60.00 60.00 L 0.00 60.00 L 0.00 0.00 M 7.19 9.19 C 5.39 10.96 6.17 13.71 5.98 15.94 C 6.22 27.85 5.59 39.80 6.31 51.69 C 13.19 52.36 20.11 51.84 27.00 52.00 C 35.89 51.82 44.81 52.39 53.68 51.68 C 54.40 38.79 53.81 25.85 54.00 12.94 C 54.34 10.54 52.58 7.87 49.99 8.04 C 37.30 7.93 24.60 8.05 11.91 7.98 C 10.29 8.03 8.38 7.83 7.19 9.19 Z" />
<path fill="#ffffff" opacity="1.00" d=" M 10.00 18.00 C 23.33 18.00 36.67 18.00 50.00 18.00 C 50.00 28.00 50.00 38.00 50.00 48.00 C 36.67 48.00 23.33 48.00 10.00 48.00 C 10.00 38.00 10.00 28.00 10.00 18.00 M 15.21 22.16 C 14.18 22.74 13.81 23.61 14.08 24.77 C 15.09 26.51 17.28 25.85 18.93 26.02 C 27.26 25.92 35.60 26.12 43.93 25.94 C 45.38 26.08 46.35 24.53 45.93 23.22 C 44.90 21.50 42.72 22.15 41.07 21.98 C 32.45 22.14 23.81 21.76 15.21 22.16 M 14.31 30.31 C 13.83 34.75 13.82 39.25 14.31 43.69 C 18.75 44.17 23.25 44.18 27.68 43.68 C 28.18 39.25 28.17 34.75 27.69 30.31 C 23.25 29.82 18.75 29.83 14.31 30.31 M 32.31 30.31 C 31.83 34.75 31.82 39.25 32.31 43.69 C 36.75 44.17 41.25 44.18 45.68 43.68 C 46.18 39.25 46.17 34.75 45.69 30.31 C 41.25 29.83 36.75 29.82 32.31 30.31 Z" />
</g>
<g id="#000000ff">
<path fill="#968176" opacity="1.00" d=" M 7.19 9.19 C 8.38 7.83 10.29 8.03 11.91 7.98 C 24.60 8.05 37.30 7.93 49.99 8.04 C 52.58 7.87 54.34 10.54 54.00 12.94 C 53.81 25.85 54.40 38.79 53.68 51.68 C 44.81 52.39 35.89 51.82 27.00 52.00 C 20.11 51.84 13.19 52.36 6.31 51.69 C 5.59 39.80 6.22 27.85 5.98 15.94 C 6.17 13.71 5.39 10.96 7.19 9.19 M 10.00 18.00 C 10.00 28.00 10.00 38.00 10.00 48.00 C 23.33 48.00 36.67 48.00 50.00 48.00 C 50.00 38.00 50.00 28.00 50.00 18.00 C 36.67 18.00 23.33 18.00 10.00 18.00 Z" />
<path fill="#968176" opacity="1.00" d=" M 15.21 22.16 C 23.81 21.76 32.45 22.14 41.07 21.98 C 42.72 22.15 44.90 21.50 45.93 23.22 C 46.35 24.53 45.38 26.08 43.93 25.94 C 35.60 26.12 27.26 25.92 18.93 26.02 C 17.28 25.85 15.09 26.51 14.08 24.77 C 13.81 23.61 14.18 22.74 15.21 22.16 Z" />
<path fill="#968176" opacity="1.00" d=" M 14.31 30.31 C 18.75 29.83 23.25 29.82 27.69 30.31 C 28.17 34.75 28.18 39.25 27.68 43.68 C 23.25 44.18 18.75 44.17 14.31 43.69 C 13.82 39.25 13.83 34.75 14.31 30.31 Z" />
<path fill="#968176" opacity="1.00" d=" M 32.31 30.31 C 36.75 29.82 41.25 29.83 45.69 30.31 C 46.17 34.75 46.18 39.25 45.68 43.68 C 41.25 44.18 36.75 44.17 32.31 43.69 C 31.82 39.25 31.83 34.75 32.31 30.31 Z" />
</g>
</svg>
