<?xml version="1.0" encoding="UTF-8" ?>
<!DOCTYPE svg PUBLIC "-//W3C//DTD SVG 1.1//EN" "http://www.w3.org/Graphics/SVG/1.1/DTD/svg11.dtd">
<svg width="60pt" height="60pt" viewBox="0 0 60 60" version="1.1" xmlns="http://www.w3.org/2000/svg">
<g id="#ffffffff">
<path fill="#ffffff" opacity="1.00" d=" M 0.00 0.00 L 60.00 0.00 L 60.00 60.00 L 0.00 60.00 L 0.00 0.00 M 50.11 6.03 C 49.77 9.15 48.68 13.26 45.06 13.90 C 36.35 14.19 27.63 13.82 18.92 14.08 C 15.28 14.30 11.56 16.47 10.33 20.04 C 9.40 23.41 10.77 26.83 11.95 29.95 C 13.25 28.94 14.57 27.97 15.96 27.09 C 15.97 31.74 16.15 36.40 15.88 41.04 C 14.00 45.85 7.90 43.42 4.00 44.00 C 4.00 46.00 4.00 48.00 4.00 50.00 C 19.04 49.98 34.08 50.04 49.12 49.97 C 52.07 50.03 54.53 46.98 53.92 44.10 C 53.53 42.10 51.87 40.65 50.01 39.97 C 49.99 35.27 49.99 30.57 50.01 25.87 C 52.54 25.24 54.98 23.57 55.59 20.90 C 57.16 15.30 53.56 10.09 50.11 6.03 Z" />
<path fill="#ffffff" opacity="1.00" d=" M 20.00 26.00 C 20.68 26.00 22.04 26.01 22.72 26.01 C 23.16 29.77 23.42 33.55 24.00 37.30 C 24.55 33.55 24.85 29.77 25.28 26.01 C 26.42 26.00 27.57 26.00 28.72 26.01 C 29.18 29.70 29.36 33.43 30.01 37.09 C 30.58 33.41 30.85 29.70 31.28 26.00 C 32.43 26.00 33.57 26.01 34.72 26.01 C 35.15 29.78 35.46 33.57 36.00 37.33 C 36.57 33.57 36.83 29.78 37.28 26.00 C 38.43 26.00 39.57 26.00 40.72 26.01 C 41.15 29.66 41.41 33.34 41.96 36.98 C 42.69 33.36 42.80 29.66 43.28 26.01 C 43.96 26.01 45.32 26.00 46.00 26.00 C 46.00 30.66 46.00 35.33 46.00 40.00 C 37.33 40.00 28.67 40.00 20.00 40.00 C 20.00 35.33 20.00 30.66 20.00 26.00 Z" />
</g>
<g id="#000000ff">
<path fill="#968176" opacity="1.00" d=" M 50.11 6.03 C 53.56 10.09 57.16 15.30 55.59 20.90 C 54.98 23.57 52.54 25.24 50.01 25.87 C 49.99 30.57 49.99 35.27 50.01 39.97 C 51.87 40.65 53.53 42.10 53.92 44.10 C 54.53 46.98 52.07 50.03 49.12 49.97 C 34.08 50.04 19.04 49.98 4.00 50.00 C 4.00 48.00 4.00 46.00 4.00 44.00 C 7.90 43.42 14.00 45.85 15.88 41.04 C 16.15 36.40 15.97 31.74 15.96 27.09 C 14.57 27.97 13.25 28.94 11.95 29.95 C 10.77 26.83 9.40 23.41 10.33 20.04 C 11.56 16.47 15.28 14.30 18.92 14.08 C 27.63 13.82 36.35 14.19 45.06 13.90 C 48.68 13.26 49.77 9.15 50.11 6.03 M 20.00 26.00 C 20.00 30.66 20.00 35.33 20.00 40.00 C 28.67 40.00 37.33 40.00 46.00 40.00 C 46.00 35.33 46.00 30.66 46.00 26.00 C 45.32 26.00 43.96 26.01 43.28 26.01 C 42.80 29.66 42.69 33.36 41.96 36.98 C 41.41 33.34 41.15 29.66 40.72 26.01 C 39.57 26.00 38.43 26.00 37.28 26.00 C 36.83 29.78 36.57 33.57 36.00 37.33 C 35.46 33.57 35.15 29.78 34.72 26.01 C 33.57 26.01 32.43 26.00 31.28 26.00 C 30.85 29.70 30.58 33.41 30.01 37.09 C 29.36 33.43 29.18 29.70 28.72 26.01 C 27.57 26.00 26.42 26.00 25.28 26.01 C 24.85 29.77 24.55 33.55 24.00 37.30 C 23.42 33.55 23.16 29.77 22.72 26.01 C 22.04 26.01 20.68 26.00 20.00 26.00 Z" />
</g>
</svg>
