<?xml version="1.0" encoding="UTF-8" ?>
<!DOCTYPE svg PUBLIC "-//W3C//DTD SVG 1.1//EN" "http://www.w3.org/Graphics/SVG/1.1/DTD/svg11.dtd">
<svg width="200pt" height="200pt" viewBox="0 0 200 200" version="1.1" xmlns="http://www.w3.org/2000/svg">
<g id="#ffffffff">
<path fill="#ffffff" opacity="1.00" d=" M 0.00 0.00 L 200.00 0.00 L 200.00 200.00 L 0.00 200.00 L 0.00 0.00 M 62.89 46.58 C 57.02 48.29 51.30 52.69 50.43 59.09 C 50.03 63.41 53.32 66.70 56.20 69.42 C 58.31 65.66 60.99 62.05 64.71 59.75 C 68.05 57.72 72.17 57.56 75.45 55.42 C 79.36 52.96 84.26 52.59 87.98 49.81 C 88.10 47.84 85.99 47.15 84.59 46.37 C 77.74 43.18 69.85 44.50 62.89 46.58 M 76.27 58.25 C 71.32 62.65 69.46 69.62 69.81 76.07 C 76.90 73.79 83.96 71.26 90.50 67.66 C 92.37 66.48 94.66 65.37 95.48 63.16 C 95.44 60.14 92.75 58.27 90.81 56.36 C 85.94 56.67 80.97 56.83 76.27 58.25 M 93.58 56.51 C 96.02 58.84 98.13 62.14 96.47 65.57 C 101.54 68.71 106.64 72.05 110.38 76.78 C 116.24 74.91 122.61 73.46 127.35 69.32 C 130.00 66.64 127.17 63.05 125.66 60.56 C 115.20 57.77 104.39 56.53 93.58 56.51 M 62.30 64.28 C 57.26 69.18 54.83 77.35 58.33 83.79 C 63.02 92.67 72.00 98.21 80.81 102.39 C 102.99 112.58 128.41 113.19 152.07 108.66 C 160.83 106.80 170.50 103.20 174.76 94.69 C 176.84 91.11 174.21 87.27 172.52 84.13 C 167.27 92.10 157.70 95.40 148.99 97.99 C 130.00 102.83 109.14 103.88 90.75 96.17 C 82.92 92.77 75.13 88.11 70.34 80.83 C 65.73 73.97 68.69 64.94 73.07 58.74 C 69.22 59.96 65.05 61.10 62.30 64.28 M 128.15 60.94 C 129.68 63.81 130.89 67.19 129.07 70.25 C 133.45 72.96 137.16 76.86 138.75 81.85 C 145.35 80.93 153.29 79.90 157.06 73.61 C 148.04 68.12 138.22 64.05 128.15 60.94 M 70.28 77.66 C 77.30 90.30 91.87 95.96 105.28 98.91 C 109.51 92.97 110.01 85.02 108.80 78.04 C 106.00 72.62 100.02 69.84 95.11 66.63 C 87.69 71.99 78.80 74.64 70.28 77.66 M 18.58 70.44 C 13.16 73.41 10.73 79.59 9.97 85.43 C 14.77 84.40 19.93 84.71 24.07 87.56 C 19.91 86.27 15.38 85.34 11.26 87.36 C 15.47 92.48 21.31 96.43 27.87 97.72 C 32.82 98.56 37.79 97.39 42.63 96.44 C 43.91 93.71 45.25 90.43 48.37 89.40 C 51.35 88.59 54.39 87.96 57.33 86.96 C 54.60 82.26 53.71 76.62 55.50 71.41 C 51.03 71.83 46.39 72.21 42.08 70.64 C 34.56 68.44 25.87 66.50 18.58 70.44 M 110.90 78.41 C 111.64 85.47 111.16 92.99 107.55 99.26 C 117.15 100.70 126.89 100.14 136.50 99.01 C 137.25 94.05 137.63 88.99 137.23 83.98 C 136.56 78.44 132.36 74.18 127.82 71.37 C 122.79 74.98 116.84 76.93 110.90 78.41 M 158.63 74.69 C 157.81 75.72 156.97 76.75 156.12 77.76 C 160.07 81.17 163.61 86.07 162.27 91.61 C 165.72 89.40 169.43 87.11 171.20 83.23 C 167.14 80.19 162.92 77.38 158.63 74.69 M 139.13 83.20 C 139.30 88.36 139.05 93.53 138.28 98.63 C 145.06 97.51 151.81 95.92 158.12 93.16 C 160.42 92.43 161.06 89.62 160.86 87.49 C 160.33 83.74 157.35 81.12 154.79 78.63 C 150.01 81.37 144.58 82.67 139.13 83.20 M 48.77 91.59 C 44.44 94.89 44.20 101.05 44.25 106.04 C 45.37 125.41 56.69 143.56 72.71 154.25 C 74.40 155.53 77.77 156.23 78.57 153.61 C 79.66 149.91 78.75 145.95 77.82 142.30 C 74.43 131.87 70.70 121.52 68.10 110.85 C 67.93 109.34 67.16 107.62 68.02 106.20 C 71.85 105.25 75.82 105.10 79.69 104.39 C 71.73 100.61 64.18 95.57 58.73 88.54 C 55.56 90.03 52.06 90.50 48.77 91.59 M 155.40 110.45 C 158.18 112.75 161.07 114.96 164.36 116.47 C 170.56 119.48 176.10 124.23 183.08 125.31 C 185.89 125.75 190.36 124.87 189.93 121.16 C 191.11 111.02 182.73 103.67 175.70 97.84 C 171.08 104.77 163.17 108.34 155.40 110.45 Z" />
<path fill="#ffffff" opacity="1.00" d=" M 22.26 76.46 C 22.66 76.52 23.46 76.63 23.86 76.69 C 24.18 77.26 24.80 78.41 25.12 78.99 C 27.83 81.26 28.66 76.82 30.88 76.14 C 30.77 78.72 29.14 81.73 26.20 81.59 C 23.57 81.46 22.57 78.67 22.26 76.46 Z" />
</g>
<g id="#000000ff">
<path fill="#968176" opacity="1.00" d=" M 62.89 46.58 C 69.85 44.50 77.74 43.18 84.59 46.37 C 85.99 47.15 88.10 47.84 87.98 49.81 C 84.26 52.59 79.36 52.96 75.45 55.42 C 72.17 57.56 68.05 57.72 64.71 59.75 C 60.99 62.05 58.31 65.66 56.20 69.42 C 53.32 66.70 50.03 63.41 50.43 59.09 C 51.30 52.69 57.02 48.29 62.89 46.58 Z" />
<path fill="#968176" opacity="1.00" d=" M 76.27 58.25 C 80.97 56.83 85.94 56.67 90.81 56.36 C 92.75 58.27 95.44 60.14 95.48 63.16 C 94.66 65.37 92.37 66.48 90.50 67.66 C 83.96 71.26 76.90 73.79 69.81 76.07 C 69.46 69.62 71.32 62.65 76.27 58.25 Z" />
<path fill="#968176" opacity="1.00" d=" M 93.58 56.51 C 104.39 56.53 115.20 57.77 125.66 60.56 C 127.17 63.05 130.00 66.64 127.35 69.32 C 122.61 73.46 116.24 74.91 110.38 76.78 C 106.64 72.05 101.54 68.71 96.47 65.57 C 98.13 62.14 96.02 58.84 93.58 56.51 Z" />
<path fill="#968176" opacity="1.00" d=" M 62.30 64.28 C 65.05 61.10 69.22 59.96 73.07 58.74 C 68.69 64.94 65.73 73.97 70.34 80.83 C 75.13 88.11 82.92 92.77 90.75 96.17 C 109.14 103.88 130.00 102.83 148.99 97.99 C 157.70 95.40 167.27 92.10 172.52 84.13 C 174.21 87.27 176.84 91.11 174.76 94.69 C 170.50 103.20 160.83 106.80 152.07 108.66 C 128.41 113.19 102.99 112.58 80.81 102.39 C 72.00 98.21 63.02 92.67 58.33 83.79 C 54.83 77.35 57.26 69.18 62.30 64.28 Z" />
<path fill="#968176" opacity="1.00" d=" M 128.15 60.94 C 138.22 64.05 148.04 68.12 157.06 73.61 C 153.29 79.90 145.35 80.93 138.75 81.85 C 137.16 76.86 133.45 72.96 129.07 70.25 C 130.89 67.19 129.68 63.81 128.15 60.94 Z" />
<path fill="#968176" opacity="1.00" d=" M 70.28 77.66 C 78.80 74.64 87.69 71.99 95.11 66.63 C 100.02 69.84 106.00 72.62 108.80 78.04 C 110.01 85.02 109.51 92.97 105.28 98.91 C 91.87 95.96 77.30 90.30 70.28 77.66 Z" />
<path fill="#968176" opacity="1.00" d=" M 18.58 70.44 C 25.87 66.50 34.56 68.44 42.08 70.64 C 46.39 72.21 51.03 71.83 55.50 71.41 C 53.71 76.62 54.60 82.26 57.33 86.96 C 54.39 87.96 51.35 88.59 48.37 89.40 C 45.25 90.43 43.91 93.71 42.63 96.44 C 37.79 97.39 32.82 98.56 27.87 97.72 C 21.31 96.43 15.47 92.48 11.26 87.36 C 15.38 85.34 19.91 86.27 24.07 87.56 C 19.93 84.71 14.77 84.40 9.97 85.43 C 10.73 79.59 13.16 73.41 18.58 70.44 M 22.26 76.46 C 22.57 78.67 23.57 81.46 26.20 81.59 C 29.14 81.73 30.77 78.72 30.88 76.14 C 28.66 76.82 27.83 81.26 25.12 78.99 C 24.80 78.41 24.18 77.26 23.86 76.69 C 23.46 76.63 22.66 76.52 22.26 76.46 Z" />
<path fill="#968176" opacity="1.00" d=" M 110.90 78.41 C 116.84 76.93 122.79 74.98 127.82 71.37 C 132.36 74.18 136.56 78.44 137.23 83.98 C 137.63 88.99 137.25 94.05 136.50 99.01 C 126.89 100.14 117.15 100.70 107.55 99.26 C 111.16 92.99 111.64 85.47 110.90 78.41 Z" />
<path fill="#968176" opacity="1.00" d=" M 158.63 74.69 C 162.92 77.38 167.14 80.19 171.20 83.23 C 169.43 87.11 165.72 89.40 162.27 91.61 C 163.61 86.07 160.07 81.17 156.12 77.76 C 156.97 76.75 157.81 75.72 158.63 74.69 Z" />
<path fill="#968176" opacity="1.00" d=" M 139.13 83.20 C 144.58 82.67 150.01 81.37 154.79 78.63 C 157.35 81.12 160.33 83.74 160.86 87.49 C 161.06 89.62 160.42 92.43 158.12 93.16 C 151.81 95.92 145.06 97.51 138.28 98.63 C 139.05 93.53 139.30 88.36 139.13 83.20 Z" />
<path fill="#968176" opacity="1.00" d=" M 48.77 91.59 C 52.06 90.50 55.56 90.03 58.73 88.54 C 64.18 95.57 71.73 100.61 79.69 104.39 C 75.82 105.10 71.85 105.25 68.02 106.20 C 67.16 107.62 67.93 109.34 68.10 110.85 C 70.70 121.52 74.43 131.87 77.82 142.30 C 78.75 145.95 79.66 149.91 78.57 153.61 C 77.77 156.23 74.40 155.53 72.71 154.25 C 56.69 143.56 45.37 125.41 44.25 106.04 C 44.20 101.05 44.44 94.89 48.77 91.59 Z" />
<path fill="#968176" opacity="1.00" d=" M 155.40 110.45 C 163.17 108.34 171.08 104.77 175.70 97.84 C 182.73 103.67 191.11 111.02 189.93 121.16 C 190.36 124.87 185.89 125.75 183.08 125.31 C 176.10 124.23 170.56 119.48 164.36 116.47 C 161.07 114.96 158.18 112.75 155.40 110.45 Z" />
</g>
</svg>
