<?xml version="1.0" encoding="UTF-8" ?>
<!DOCTYPE svg PUBLIC "-//W3C//DTD SVG 1.1//EN" "http://www.w3.org/Graphics/SVG/1.1/DTD/svg11.dtd">
<svg width="200pt" height="200pt" viewBox="0 0 200 200" version="1.1" xmlns="http://www.w3.org/2000/svg">
<g id="#ffffffff">
<path fill="#ffffff" opacity="1.00" d=" M 0.00 0.00 L 200.00 0.00 L 200.00 200.00 L 0.00 200.00 L 0.00 0.00 M 95.44 32.74 C 89.08 35.50 84.25 40.95 77.92 43.75 C 72.26 44.42 66.52 43.83 60.84 44.28 C 55.66 44.72 51.01 48.43 49.25 53.29 C 47.06 58.50 45.94 64.20 43.21 69.15 C 38.96 73.33 33.64 76.25 29.22 80.24 C 26.11 83.22 24.57 87.79 25.34 92.03 C 26.61 98.12 29.37 103.84 30.30 110.00 C 29.39 116.16 26.57 121.87 25.38 127.98 C 24.71 132.19 26.17 136.73 29.30 139.66 C 33.73 143.64 39.06 146.55 43.29 150.75 C 46.67 156.54 47.57 163.46 50.70 169.39 C 52.70 172.67 56.21 174.96 59.99 175.57 C 66.26 176.37 72.69 175.30 78.90 176.43 C 84.01 179.34 88.51 183.23 93.53 186.29 C 97.20 188.39 101.89 188.56 105.73 186.83 C 111.53 183.86 116.22 179.04 122.12 176.27 C 128.07 175.50 134.12 176.25 140.09 175.60 C 144.88 174.91 149.12 171.43 150.85 166.91 C 152.62 162.21 154.24 157.44 155.82 152.67 C 156.65 149.55 159.90 148.17 162.17 146.23 C 166.85 142.44 173.31 139.39 174.46 132.83 C 175.69 124.89 170.58 117.76 169.68 110.04 C 170.54 102.53 175.27 95.64 174.60 87.95 C 174.05 82.36 169.30 78.88 165.07 75.92 C 161.29 72.76 156.00 70.49 154.76 65.25 C 151.75 58.35 151.23 48.84 143.39 45.44 C 136.44 42.76 128.73 44.99 121.54 43.66 C 116.21 40.76 111.63 36.62 106.38 33.57 C 103.08 31.75 99.00 31.53 95.44 32.74 M 169.42 147.69 C 161.76 150.48 155.96 158.83 157.40 167.09 C 158.19 172.00 163.15 175.76 168.11 174.92 C 177.16 173.49 184.13 164.01 182.65 154.93 C 181.91 148.87 174.93 145.26 169.42 147.69 Z" />
<path fill="#ffffff" opacity="1.00" d=" M 96.35 39.38 C 98.53 38.09 101.43 38.00 103.62 39.35 C 108.92 42.53 113.57 46.80 119.11 49.57 C 125.94 51.47 133.21 49.73 140.15 50.93 C 144.88 52.29 145.60 57.70 147.14 61.64 C 149.06 66.26 149.66 71.90 153.86 75.16 C 157.75 78.28 161.88 81.09 165.78 84.21 C 167.82 85.74 169.12 88.34 168.68 90.91 C 167.42 97.35 164.41 103.42 163.78 109.98 C 164.47 116.49 167.53 122.48 168.84 128.87 C 169.31 131.51 168.01 134.24 165.91 135.83 C 162.00 138.94 157.89 141.81 153.98 144.93 C 149.76 148.08 149.13 153.66 147.24 158.23 C 145.60 162.18 145.08 167.82 140.27 169.23 C 133.41 170.43 126.26 169.07 119.46 170.68 C 113.35 173.45 108.55 178.48 102.57 181.50 C 98.04 183.30 94.32 179.43 90.85 177.17 C 87.00 174.77 83.62 171.23 79.06 170.25 C 73.11 169.59 67.09 169.98 61.13 169.50 C 58.75 169.27 56.56 167.72 55.49 165.59 C 52.80 159.72 51.63 153.20 48.50 147.54 C 44.02 142.25 37.33 139.36 32.59 134.34 C 29.71 130.64 32.27 126.04 33.31 122.16 C 34.56 117.24 37.31 112.29 36.02 107.10 C 34.68 101.95 32.81 96.96 31.47 91.82 C 30.70 89.03 31.90 85.93 34.19 84.21 C 38.08 81.10 42.21 78.30 46.09 75.17 C 47.85 73.80 49.18 71.94 49.94 69.84 C 51.80 64.95 53.30 59.93 55.22 55.07 C 56.09 52.84 58.17 51.14 60.53 50.76 C 67.16 49.98 74.00 51.25 80.53 49.69 C 86.26 47.03 90.91 42.56 96.35 39.38 M 85.40 51.71 C 82.71 52.98 83.96 57.74 86.98 57.34 C 89.57 57.01 92.30 56.84 94.69 55.73 C 96.82 54.20 95.69 50.40 93.02 50.41 C 90.45 50.49 87.84 50.87 85.40 51.71 M 104.51 51.38 C 102.88 53.03 104.05 56.10 106.32 56.31 C 108.80 56.69 111.42 57.77 113.90 57.08 C 116.67 55.95 115.98 51.46 112.95 51.30 C 110.23 51.03 106.85 49.32 104.51 51.38 M 124.41 56.34 C 122.97 57.44 121.84 60.07 123.76 61.28 C 126.06 62.69 128.35 64.39 131.01 65.02 C 133.99 65.21 135.26 60.83 132.67 59.36 C 130.20 57.99 127.37 54.89 124.41 56.34 M 71.35 57.35 C 69.46 58.43 67.39 59.40 65.95 61.08 C 64.44 63.55 67.59 66.17 69.91 64.91 C 72.20 63.71 74.85 62.66 76.48 60.59 C 77.96 57.51 73.63 55.03 71.35 57.35 M 56.66 68.66 C 54.60 70.48 52.80 72.65 51.43 75.04 C 50.55 77.61 54.13 79.99 56.11 78.18 C 58.02 76.32 59.73 74.23 61.12 71.95 C 61.90 69.52 58.73 67.06 56.66 68.66 M 140.36 68.30 C 137.95 69.30 138.42 72.44 140.12 73.88 C 141.93 75.74 143.69 79.87 146.87 78.18 C 149.44 76.94 148.27 73.85 146.69 72.32 C 145.01 70.55 143.30 67.15 140.36 68.30 M 95.39 83.49 C 91.04 84.91 87.39 88.56 86.23 93.02 C 85.54 95.68 89.80 97.77 91.29 95.35 C 92.77 92.64 94.60 89.63 97.96 89.17 C 103.78 87.59 110.01 94.44 106.98 99.94 C 103.69 105.91 98.75 111.17 97.46 118.09 C 97.21 120.30 96.16 123.21 98.13 124.93 C 99.80 126.45 102.80 125.19 102.96 122.96 C 103.37 118.25 105.19 113.81 107.90 109.96 C 110.90 105.17 115.31 100.01 113.65 93.92 C 112.10 86.00 103.03 80.74 95.39 83.49 M 45.39 85.50 C 43.77 87.71 43.04 90.46 42.33 93.07 C 41.94 95.66 45.69 97.88 47.50 95.67 C 48.74 93.23 49.63 90.63 50.38 88.00 C 50.83 85.41 47.21 83.65 45.39 85.50 M 150.27 85.14 C 147.59 87.85 151.07 91.45 151.82 94.31 C 152.60 96.99 156.71 96.59 157.18 93.92 C 157.39 91.18 155.93 88.59 154.84 86.15 C 154.14 84.38 151.69 84.11 150.27 85.14 M 41.55 104.62 C 39.06 106.21 40.23 109.65 39.99 112.11 C 39.57 114.36 41.60 116.55 43.91 115.95 C 47.06 114.63 45.81 110.62 46.00 107.97 C 46.43 105.61 43.74 103.13 41.55 104.62 M 155.27 104.25 C 152.94 106.46 154.27 110.23 154.07 113.09 C 153.96 116.28 159.07 117.08 159.86 113.96 C 160.14 111.31 160.13 108.61 159.87 105.96 C 159.59 103.90 156.86 103.15 155.27 104.25 M 43.40 124.44 C 41.23 127.12 43.77 130.56 44.76 133.28 C 45.69 136.43 51.14 135.45 50.60 132.04 C 49.79 129.46 48.96 126.85 47.65 124.48 C 46.49 123.47 44.53 123.31 43.40 124.44 M 152.38 124.54 C 150.95 126.89 150.12 129.59 149.40 132.24 C 148.97 134.91 152.95 136.62 154.57 134.44 C 156.04 132.17 156.86 129.53 157.49 126.92 C 157.90 124.18 154.22 122.54 152.38 124.54 M 98.26 129.37 C 95.54 130.52 95.19 134.70 97.70 136.29 C 100.16 138.21 104.16 136.11 104.01 133.00 C 104.14 130.17 100.77 128.02 98.26 129.37 M 144.39 141.38 C 142.20 143.29 140.38 145.66 138.82 148.10 C 138.14 150.52 141.28 152.92 143.31 151.28 C 145.38 149.51 147.12 147.34 148.53 145.02 C 149.11 142.70 146.63 140.34 144.39 141.38 M 52.37 142.32 C 50.24 144.50 52.79 147.00 54.18 148.75 C 55.57 150.25 57.27 152.90 59.67 151.73 C 61.95 150.61 61.59 147.59 59.84 146.16 C 58.00 144.03 55.57 139.36 52.37 142.32 M 67.35 155.43 C 65.79 156.38 65.51 158.90 67.03 160.04 C 69.17 161.69 71.53 163.12 74.09 164.02 C 77.06 164.23 78.37 159.74 75.72 158.37 C 73.15 157.13 70.37 153.91 67.35 155.43 M 129.35 155.28 C 127.26 156.47 124.88 157.45 123.30 159.32 C 121.84 161.49 124.54 164.62 126.83 163.28 C 129.24 162.03 131.99 160.92 133.69 158.72 C 135.07 156.10 131.59 153.55 129.35 155.28 M 85.27 163.08 C 83.54 164.30 83.75 167.38 85.80 168.13 C 88.41 168.94 91.20 169.49 93.93 169.25 C 96.75 168.46 96.63 163.97 93.61 163.70 C 90.90 163.38 87.87 161.84 85.27 163.08 M 106.43 163.69 C 103.40 163.92 103.09 168.81 106.03 169.49 C 108.73 169.65 111.47 169.17 114.05 168.38 C 116.98 167.49 116.12 162.47 113.08 162.57 C 110.84 162.75 108.62 163.20 106.43 163.69 Z" />
<path fill="#ffffff" opacity="1.00" d=" M 170.44 153.66 C 172.51 152.51 175.91 152.62 176.56 155.37 C 177.85 161.17 173.36 167.42 167.75 168.89 C 165.64 169.58 163.40 168.06 163.23 165.86 C 162.61 160.81 166.03 155.86 170.44 153.66 Z" />
</g>
<g id="#000000ff">
<path fill="#968176" opacity="1.00" d=" M 95.44 32.74 C 99.00 31.53 103.08 31.75 106.38 33.57 C 111.63 36.62 116.21 40.76 121.54 43.66 C 128.73 44.99 136.44 42.76 143.39 45.44 C 151.23 48.84 151.75 58.35 154.76 65.25 C 156.00 70.49 161.29 72.76 165.07 75.92 C 169.30 78.88 174.05 82.36 174.60 87.95 C 175.27 95.64 170.54 102.53 169.68 110.04 C 170.58 117.76 175.69 124.89 174.46 132.83 C 173.31 139.39 166.85 142.44 162.17 146.23 C 159.90 148.17 156.65 149.55 155.82 152.67 C 154.24 157.44 152.62 162.21 150.85 166.91 C 149.12 171.43 144.88 174.91 140.09 175.60 C 134.12 176.25 128.07 175.50 122.12 176.27 C 116.22 179.04 111.53 183.86 105.73 186.83 C 101.89 188.56 97.20 188.39 93.53 186.29 C 88.51 183.23 84.01 179.34 78.90 176.43 C 72.69 175.30 66.26 176.37 59.99 175.57 C 56.21 174.96 52.70 172.67 50.70 169.39 C 47.57 163.46 46.67 156.54 43.29 150.75 C 39.06 146.55 33.73 143.64 29.30 139.66 C 26.17 136.73 24.71 132.19 25.38 127.98 C 26.57 121.87 29.39 116.16 30.30 110.00 C 29.37 103.84 26.61 98.12 25.34 92.03 C 24.57 87.79 26.11 83.22 29.22 80.24 C 33.64 76.25 38.96 73.33 43.21 69.15 C 45.94 64.20 47.06 58.50 49.25 53.29 C 51.01 48.43 55.66 44.72 60.84 44.28 C 66.52 43.83 72.26 44.42 77.92 43.75 C 84.25 40.95 89.08 35.50 95.44 32.74 M 96.35 39.38 C 90.91 42.56 86.26 47.03 80.53 49.69 C 74.00 51.25 67.16 49.98 60.53 50.76 C 58.17 51.14 56.09 52.84 55.22 55.07 C 53.30 59.93 51.80 64.95 49.94 69.84 C 49.18 71.94 47.85 73.80 46.09 75.17 C 42.21 78.30 38.08 81.10 34.19 84.21 C 31.90 85.93 30.70 89.03 31.47 91.82 C 32.81 96.96 34.68 101.95 36.02 107.10 C 37.31 112.29 34.56 117.24 33.31 122.16 C 32.27 126.04 29.71 130.64 32.59 134.34 C 37.33 139.36 44.02 142.25 48.50 147.54 C 51.63 153.20 52.80 159.72 55.49 165.59 C 56.56 167.72 58.75 169.27 61.13 169.50 C 67.09 169.98 73.11 169.59 79.06 170.25 C 83.62 171.23 87.00 174.77 90.85 177.17 C 94.32 179.43 98.04 183.30 102.57 181.50 C 108.55 178.48 113.35 173.45 119.46 170.68 C 126.26 169.07 133.41 170.43 140.27 169.23 C 145.08 167.82 145.60 162.18 147.24 158.23 C 149.13 153.66 149.76 148.08 153.98 144.93 C 157.89 141.81 162.00 138.94 165.91 135.83 C 168.01 134.24 169.31 131.51 168.84 128.87 C 167.53 122.48 164.47 116.49 163.78 109.98 C 164.41 103.42 167.42 97.35 168.68 90.91 C 169.12 88.34 167.82 85.74 165.78 84.21 C 161.88 81.09 157.75 78.28 153.86 75.16 C 149.66 71.90 149.06 66.26 147.14 61.64 C 145.60 57.70 144.88 52.29 140.15 50.93 C 133.21 49.73 125.94 51.47 119.11 49.57 C 113.57 46.80 108.92 42.53 103.62 39.35 C 101.43 38.00 98.53 38.09 96.35 39.38 Z" />
<path fill="#968176" opacity="1.00" d=" M 85.40 51.71 C 87.84 50.87 90.45 50.49 93.02 50.41 C 95.69 50.40 96.82 54.20 94.69 55.73 C 92.30 56.84 89.57 57.01 86.98 57.34 C 83.96 57.74 82.71 52.98 85.40 51.71 Z" />
<path fill="#968176" opacity="1.00" d=" M 104.51 51.38 C 106.85 49.32 110.23 51.03 112.95 51.30 C 115.98 51.46 116.67 55.95 113.90 57.08 C 111.42 57.77 108.80 56.69 106.32 56.31 C 104.05 56.10 102.88 53.03 104.51 51.38 Z" />
<path fill="#968176" opacity="1.00" d=" M 124.41 56.34 C 127.37 54.89 130.20 57.99 132.67 59.36 C 135.26 60.83 133.99 65.21 131.01 65.02 C 128.35 64.39 126.06 62.69 123.76 61.28 C 121.84 60.07 122.97 57.44 124.41 56.34 Z" />
<path fill="#968176" opacity="1.00" d=" M 71.35 57.35 C 73.63 55.03 77.96 57.51 76.48 60.59 C 74.85 62.66 72.20 63.71 69.91 64.91 C 67.59 66.17 64.44 63.55 65.95 61.08 C 67.39 59.40 69.46 58.43 71.35 57.35 Z" />
<path fill="#968176" opacity="1.00" d=" M 56.66 68.66 C 58.73 67.06 61.90 69.52 61.12 71.95 C 59.73 74.23 58.02 76.32 56.11 78.18 C 54.13 79.99 50.55 77.61 51.43 75.04 C 52.80 72.65 54.60 70.48 56.66 68.66 Z" />
<path fill="#968176" opacity="1.00" d=" M 140.36 68.30 C 143.30 67.15 145.01 70.55 146.69 72.32 C 148.27 73.85 149.44 76.94 146.87 78.18 C 143.69 79.87 141.93 75.74 140.12 73.88 C 138.42 72.44 137.95 69.30 140.36 68.30 Z" />
<path fill="#968176" opacity="1.00" d=" M 95.39 83.49 C 103.03 80.74 112.10 86.00 113.65 93.92 C 115.31 100.01 110.90 105.17 107.90 109.96 C 105.19 113.81 103.37 118.25 102.96 122.96 C 102.80 125.19 99.80 126.45 98.13 124.93 C 96.16 123.21 97.21 120.30 97.46 118.09 C 98.75 111.17 103.69 105.91 106.98 99.94 C 110.01 94.44 103.78 87.59 97.96 89.17 C 94.60 89.63 92.77 92.64 91.29 95.35 C 89.80 97.77 85.54 95.68 86.23 93.02 C 87.39 88.56 91.04 84.91 95.39 83.49 Z" />
<path fill="#968176" opacity="1.00" d=" M 45.39 85.50 C 47.21 83.65 50.83 85.41 50.38 88.00 C 49.63 90.63 48.74 93.23 47.50 95.67 C 45.69 97.88 41.94 95.66 42.33 93.07 C 43.04 90.46 43.77 87.71 45.39 85.50 Z" />
<path fill="#968176" opacity="1.00" d=" M 150.27 85.14 C 151.69 84.11 154.14 84.38 154.84 86.15 C 155.93 88.59 157.39 91.18 157.18 93.92 C 156.71 96.59 152.60 96.99 151.82 94.31 C 151.07 91.45 147.59 87.85 150.27 85.14 Z" />
<path fill="#968176" opacity="1.00" d=" M 41.55 104.62 C 43.74 103.13 46.43 105.61 46.00 107.97 C 45.81 110.62 47.06 114.63 43.91 115.95 C 41.60 116.55 39.57 114.36 39.99 112.11 C 40.23 109.65 39.06 106.21 41.55 104.62 Z" />
<path fill="#968176" opacity="1.00" d=" M 155.27 104.25 C 156.86 103.15 159.59 103.90 159.87 105.96 C 160.13 108.61 160.14 111.31 159.86 113.96 C 159.07 117.08 153.96 116.28 154.07 113.09 C 154.27 110.23 152.94 106.46 155.27 104.25 Z" />
<path fill="#968176" opacity="1.00" d=" M 43.40 124.44 C 44.53 123.31 46.49 123.47 47.65 124.48 C 48.96 126.85 49.79 129.46 50.60 132.04 C 51.14 135.45 45.69 136.43 44.76 133.28 C 43.77 130.56 41.23 127.12 43.40 124.44 Z" />
<path fill="#968176" opacity="1.00" d=" M 152.38 124.54 C 154.22 122.54 157.90 124.18 157.49 126.92 C 156.86 129.53 156.04 132.17 154.57 134.44 C 152.95 136.62 148.97 134.91 149.40 132.24 C 150.12 129.59 150.95 126.89 152.38 124.54 Z" />
<path fill="#968176" opacity="1.00" d=" M 98.26 129.37 C 100.77 128.02 104.14 130.17 104.01 133.00 C 104.16 136.11 100.16 138.21 97.70 136.29 C 95.19 134.70 95.54 130.52 98.26 129.37 Z" />
<path fill="#968176" opacity="1.00" d=" M 144.39 141.38 C 146.63 140.34 149.11 142.70 148.53 145.02 C 147.12 147.34 145.38 149.51 143.31 151.28 C 141.28 152.92 138.14 150.52 138.82 148.10 C 140.38 145.66 142.20 143.29 144.39 141.38 Z" />
<path fill="#968176" opacity="1.00" d=" M 52.37 142.32 C 55.57 139.36 58.00 144.03 59.84 146.16 C 61.59 147.59 61.95 150.61 59.67 151.73 C 57.27 152.90 55.57 150.25 54.18 148.75 C 52.79 147.00 50.24 144.50 52.37 142.32 Z" />
<path fill="#968176" opacity="1.00" d=" M 169.42 147.69 C 174.93 145.26 181.91 148.87 182.65 154.93 C 184.13 164.01 177.16 173.49 168.11 174.92 C 163.15 175.76 158.19 172.00 157.40 167.09 C 155.96 158.83 161.76 150.48 169.42 147.69 M 170.44 153.66 C 166.03 155.86 162.61 160.81 163.23 165.86 C 163.40 168.06 165.64 169.58 167.75 168.89 C 173.36 167.42 177.85 161.17 176.56 155.37 C 175.91 152.62 172.51 152.51 170.44 153.66 Z" />
<path fill="#968176" opacity="1.00" d=" M 67.35 155.43 C 70.37 153.91 73.15 157.13 75.72 158.37 C 78.37 159.74 77.06 164.23 74.09 164.02 C 71.53 163.12 69.17 161.69 67.03 160.04 C 65.51 158.90 65.79 156.38 67.35 155.43 Z" />
<path fill="#968176" opacity="1.00" d=" M 129.35 155.28 C 131.59 153.55 135.07 156.10 133.69 158.72 C 131.99 160.92 129.24 162.03 126.83 163.28 C 124.54 164.62 121.84 161.49 123.30 159.32 C 124.88 157.45 127.26 156.47 129.35 155.28 Z" />
<path fill="#968176" opacity="1.00" d=" M 85.27 163.08 C 87.87 161.84 90.90 163.38 93.61 163.70 C 96.63 163.97 96.75 168.46 93.93 169.25 C 91.20 169.49 88.41 168.94 85.80 168.13 C 83.75 167.38 83.54 164.30 85.27 163.08 Z" />
<path fill="#968176" opacity="1.00" d=" M 106.43 163.69 C 108.62 163.20 110.84 162.75 113.08 162.57 C 116.12 162.47 116.98 167.49 114.05 168.38 C 111.47 169.17 108.73 169.65 106.03 169.49 C 103.09 168.81 103.40 163.92 106.43 163.69 Z" />
</g>
</svg>
