<?xml version="1.0" encoding="UTF-8" ?>
<!DOCTYPE svg PUBLIC "-//W3C//DTD SVG 1.1//EN" "http://www.w3.org/Graphics/SVG/1.1/DTD/svg11.dtd">
<svg width="141pt" height="117pt" viewBox="0 0 141 117" version="1.1" xmlns="http://www.w3.org/2000/svg">
<g id="#fffffff">
<path fill="#ffffff" opacity="1.00" d=" M 0.00 0.00 L 141.00 0.00 L 141.00 117.00 L 0.00 117.00 L 0.00 0.00 M 66.77 26.05 C 58.11 27.74 50.66 34.26 47.60 42.51 C 47.26 43.63 46.55 45.28 47.94 46.01 C 51.09 48.44 54.44 50.62 57.83 52.71 C 61.42 49.99 65.15 47.45 68.79 44.80 C 69.98 43.97 71.65 42.81 72.97 44.08 C 77.09 46.86 81.13 49.76 85.13 52.70 C 88.76 50.20 93.18 48.24 95.91 44.80 C 93.15 32.29 79.37 23.30 66.77 26.05 M 57.91 59.20 C 53.17 57.92 49.97 53.62 45.48 51.70 C 45.25 57.35 45.26 63.01 45.37 68.66 C 48.77 70.68 53.19 70.36 57.01 71.29 C 63.68 71.54 70.37 72.91 77.03 71.83 C 84.01 71.55 91.05 70.97 97.78 68.97 C 97.63 63.21 97.89 57.44 97.57 51.69 C 93.12 53.67 89.83 58.04 85.10 59.21 C 80.33 56.86 76.50 53.04 71.94 50.35 C 66.77 52.08 63.00 56.97 57.91 59.20 M 17.73 71.94 C 18.54 77.06 19.49 82.34 22.07 86.90 C 22.87 88.49 24.61 89.14 26.25 89.47 C 56.15 96.35 87.62 96.32 117.49 89.28 C 119.19 88.95 120.60 87.82 121.31 86.24 C 123.90 81.05 125.11 75.20 124.77 69.41 C 121.69 66.98 118.11 69.36 114.93 70.24 C 92.64 78.20 68.17 79.79 45.02 74.92 C 37.31 73.46 29.95 70.67 22.47 68.37 C 20.18 67.36 17.22 69.43 17.73 71.94 Z" />
</g>
<g id="#000000ff">
<path fill="#968176" opacity="1.00" d=" M 66.77 26.05 C 79.37 23.30 93.15 32.29 95.91 44.80 C 93.18 48.24 88.76 50.20 85.13 52.70 C 81.13 49.76 77.09 46.86 72.97 44.08 C 71.65 42.81 69.98 43.97 68.79 44.80 C 65.15 47.45 61.42 49.99 57.83 52.71 C 54.44 50.62 51.09 48.44 47.94 46.01 C 46.55 45.28 47.26 43.63 47.60 42.51 C 50.66 34.26 58.11 27.74 66.77 26.05 Z" />
<path fill="#968176" opacity="1.00" d=" M 57.91 59.20 C 63.00 56.97 66.77 52.08 71.94 50.35 C 76.50 53.04 80.33 56.86 85.10 59.21 C 89.83 58.04 93.12 53.67 97.57 51.69 C 97.89 57.44 97.63 63.21 97.78 68.97 C 91.05 70.97 84.01 71.55 77.03 71.83 C 70.37 72.91 63.68 71.54 57.01 71.29 C 53.19 70.36 48.77 70.68 45.37 68.66 C 45.26 63.01 45.25 57.35 45.48 51.70 C 49.97 53.62 53.17 57.92 57.91 59.20 Z" />
<path fill="#968176" opacity="1.00" d=" M 17.73 71.94 C 17.22 69.43 20.18 67.36 22.47 68.37 C 29.95 70.67 37.31 73.46 45.02 74.92 C 68.17 79.79 92.64 78.20 114.93 70.24 C 118.11 69.36 121.69 66.98 124.77 69.41 C 125.11 75.20 123.90 81.05 121.31 86.24 C 120.60 87.82 119.19 88.95 117.49 89.28 C 87.62 96.32 56.15 96.35 26.25 89.47 C 24.61 89.14 22.87 88.49 22.07 86.90 C 19.49 82.34 18.54 77.06 17.73 71.94 Z" />
</g>
</svg>
