<?xml version="1.0" encoding="UTF-8" ?>
<!DOCTYPE svg PUBLIC "-//W3C//DTD SVG 1.1//EN" "http://www.w3.org/Graphics/SVG/1.1/DTD/svg11.dtd">
<svg width="60pt" height="60pt" viewBox="0 0 60 60" version="1.1" xmlns="http://www.w3.org/2000/svg">
<g id="#ffffffff">
<path fill="#ffffff" opacity="1.00" d=" M 0.00 0.00 L 60.00 0.00 L 60.00 60.00 L 0.00 60.00 L 0.00 0.00 M 6.05 25.08 C 6.28 30.36 9.57 34.97 13.84 37.86 C 14.09 43.78 17.40 49.52 22.74 52.24 C 30.27 56.37 40.50 52.91 44.24 45.25 C 46.19 42.42 44.84 38.03 48.18 36.17 C 55.43 30.70 55.90 18.82 49.24 12.70 C 44.33 7.53 36.18 6.75 30.00 10.01 C 27.14 8.82 24.12 7.74 20.97 8.04 C 12.48 8.43 5.24 16.58 6.05 25.08 Z" />
<path fill="#ffffff" opacity="1.00" d=" M 11.77 17.77 C 14.65 12.73 21.13 10.96 26.48 12.70 C 23.82 15.98 22.02 19.89 21.85 24.15 C 18.44 26.45 15.97 29.77 14.44 33.56 C 10.07 29.68 8.51 22.83 11.77 17.77 Z" />
<path fill="#ffffff" opacity="1.00" d=" M 33.45 12.59 C 38.36 11.36 44.17 12.19 47.34 16.51 C 51.56 21.52 50.41 29.32 45.58 33.49 C 44.02 29.73 41.52 26.45 38.14 24.15 C 37.93 19.86 36.16 15.87 33.45 12.59 Z" />
<path fill="#ffffff" opacity="1.00" d=" M 25.93 22.30 C 26.72 19.54 28.06 16.98 30.00 14.85 C 31.94 16.99 33.27 19.54 34.07 22.31 C 31.36 22.05 28.64 22.05 25.93 22.30 Z" />
<path fill="#ffffff" opacity="1.00" d=" M 26.10 26.49 C 28.68 25.98 31.32 25.99 33.90 26.49 C 33.01 28.93 31.72 31.20 30.00 33.16 C 28.27 31.21 26.99 28.94 26.10 26.49 Z" />
<path fill="#ffffff" opacity="1.00" d=" M 18.11 35.51 C 18.99 32.86 20.50 30.51 22.40 28.47 C 23.53 30.88 24.88 33.17 26.46 35.31 C 23.71 35.96 20.88 36.10 18.11 35.51 Z" />
<path fill="#ffffff" opacity="1.00" d=" M 37.59 28.48 C 39.50 30.51 41.00 32.86 41.89 35.51 C 39.12 36.10 36.30 35.96 33.56 35.32 C 35.11 33.16 36.45 30.88 37.59 28.48 Z" />
<path fill="#ffffff" opacity="1.00" d=" M 17.93 39.69 C 22.05 40.35 26.24 39.82 30.00 37.98 C 33.76 39.82 37.95 40.35 42.07 39.69 C 40.90 45.33 35.96 50.14 30.01 49.97 C 24.06 50.14 19.08 45.33 17.93 39.69 Z" />
</g>
<g id="#000000ff">
<path fill="#968176" opacity="1.00" d=" M 6.05 25.08 C 5.24 16.58 12.48 8.43 20.97 8.04 C 24.12 7.74 27.14 8.82 30.00 10.01 C 36.18 6.75 44.33 7.53 49.24 12.70 C 55.90 18.82 55.43 30.70 48.18 36.17 C 44.84 38.03 46.19 42.42 44.24 45.25 C 40.50 52.91 30.27 56.37 22.74 52.24 C 17.40 49.52 14.09 43.78 13.84 37.86 C 9.57 34.97 6.28 30.36 6.05 25.08 M 11.77 17.77 C 8.51 22.83 10.07 29.68 14.44 33.56 C 15.97 29.77 18.44 26.45 21.85 24.15 C 22.02 19.89 23.82 15.98 26.48 12.70 C 21.13 10.96 14.65 12.73 11.77 17.77 M 33.45 12.59 C 36.16 15.87 37.93 19.86 38.14 24.15 C 41.52 26.45 44.02 29.73 45.58 33.49 C 50.41 29.32 51.56 21.52 47.34 16.51 C 44.17 12.19 38.36 11.36 33.45 12.59 M 25.93 22.30 C 28.64 22.05 31.36 22.05 34.07 22.31 C 33.27 19.54 31.94 16.99 30.00 14.85 C 28.06 16.98 26.72 19.54 25.93 22.30 M 26.10 26.49 C 26.99 28.94 28.27 31.21 30.00 33.16 C 31.72 31.20 33.01 28.93 33.90 26.49 C 31.32 25.99 28.68 25.98 26.10 26.49 M 18.11 35.51 C 20.88 36.10 23.71 35.96 26.46 35.31 C 24.88 33.17 23.53 30.88 22.40 28.47 C 20.50 30.51 18.99 32.86 18.11 35.51 M 37.59 28.48 C 36.45 30.88 35.11 33.16 33.56 35.32 C 36.30 35.96 39.12 36.10 41.89 35.51 C 41.00 32.86 39.50 30.51 37.59 28.48 M 17.93 39.69 C 19.08 45.33 24.06 50.14 30.01 49.97 C 35.96 50.14 40.90 45.33 42.07 39.69 C 37.95 40.35 33.76 39.82 30.00 37.98 C 26.24 39.82 22.05 40.35 17.93 39.69 Z" />
</g>
</svg>
