<?xml version="1.0" encoding="UTF-8" ?>
<!DOCTYPE svg PUBLIC "-//W3C//DTD SVG 1.1//EN" "http://www.w3.org/Graphics/SVG/1.1/DTD/svg11.dtd">
<svg width="60pt" height="60pt" viewBox="0 0 60 60" version="1.1" xmlns="http://www.w3.org/2000/svg">
<g id="#ffffffff">
<path fill="#ffffff" opacity="1.00" d=" M 0.00 0.00 L 60.00 0.00 L 60.00 60.00 L 0.00 60.00 L 0.00 0.00 M 9.17 20.38 C 7.07 20.88 8.08 24.35 10.12 23.97 C 17.17 23.86 19.00 14.26 25.94 14.00 C 29.89 13.57 31.43 19.51 28.21 21.40 C 26.24 22.75 24.02 21.24 22.03 20.79 C 19.64 21.15 19.97 24.38 22.02 24.95 C 26.57 27.75 32.45 24.69 33.81 19.79 C 37.22 19.34 39.78 16.57 43.04 16.02 C 46.89 15.71 46.86 22.44 42.97 21.87 C 41.20 21.18 37.72 21.29 38.64 24.11 C 41.39 27.47 47.41 26.01 49.18 22.24 C 51.52 18.21 48.58 12.56 43.97 12.08 C 40.09 11.50 37.16 14.59 33.77 15.86 C 32.30 11.93 28.18 9.02 23.91 10.22 C 17.44 11.16 15.29 18.88 9.17 20.38 M 18.22 30.22 C 15.01 31.19 12.45 33.62 9.14 34.40 C 7.06 34.88 8.08 38.33 10.08 37.95 C 13.54 38.03 16.04 35.27 19.09 34.10 C 22.84 33.64 25.29 37.64 28.96 37.90 C 32.89 38.59 35.78 35.40 39.15 34.08 C 43.20 33.73 45.84 38.32 49.99 37.94 C 51.94 38.30 52.90 34.86 50.85 34.40 C 46.69 33.53 43.58 29.49 39.09 30.08 C 35.36 30.27 32.89 34.33 29.11 33.90 C 25.58 32.43 22.38 29.06 18.22 30.22 M 18.23 42.22 C 15.53 42.86 13.50 44.99 10.86 45.77 C 9.86 46.29 7.69 46.35 8.06 48.02 C 7.80 49.60 9.80 50.28 11.05 49.90 C 14.39 49.56 16.69 46.48 19.95 46.01 C 23.28 46.40 25.58 49.59 28.98 49.90 C 32.90 50.58 35.77 47.41 39.13 46.09 C 42.88 45.67 45.32 49.66 48.99 49.91 C 50.25 50.28 52.20 49.56 51.93 47.99 C 52.27 46.35 50.13 46.28 49.14 45.77 C 45.73 44.69 42.97 41.43 39.10 42.08 C 35.38 42.26 32.91 46.30 29.14 45.91 C 25.60 44.45 22.40 41.06 18.23 42.22 Z" />
</g>
<g id="#000000ff">
<path fill="#968176" opacity="1.00" d=" M 9.17 20.38 C 15.29 18.88 17.44 11.16 23.91 10.22 C 28.18 9.02 32.30 11.93 33.77 15.86 C 37.16 14.59 40.09 11.50 43.97 12.08 C 48.58 12.56 51.52 18.21 49.18 22.24 C 47.41 26.01 41.39 27.47 38.64 24.11 C 37.72 21.29 41.20 21.18 42.97 21.87 C 46.86 22.44 46.89 15.71 43.04 16.02 C 39.78 16.57 37.22 19.34 33.81 19.79 C 32.45 24.69 26.57 27.75 22.02 24.95 C 19.97 24.38 19.64 21.15 22.03 20.79 C 24.02 21.24 26.24 22.75 28.21 21.40 C 31.43 19.51 29.89 13.57 25.94 14.00 C 19.00 14.26 17.17 23.86 10.12 23.97 C 8.08 24.35 7.07 20.88 9.17 20.38 Z" />
<path fill="#968176" opacity="1.00" d=" M 18.22 30.22 C 22.38 29.06 25.58 32.43 29.11 33.90 C 32.89 34.33 35.36 30.27 39.09 30.08 C 43.58 29.49 46.69 33.53 50.85 34.40 C 52.90 34.86 51.94 38.30 49.99 37.94 C 45.84 38.32 43.20 33.73 39.15 34.08 C 35.78 35.40 32.89 38.59 28.96 37.90 C 25.29 37.64 22.84 33.64 19.09 34.10 C 16.04 35.27 13.54 38.03 10.08 37.95 C 8.08 38.33 7.06 34.88 9.14 34.40 C 12.45 33.62 15.01 31.19 18.22 30.22 Z" />
<path fill="#968176" opacity="1.00" d=" M 18.23 42.22 C 22.40 41.06 25.60 44.45 29.14 45.91 C 32.91 46.30 35.38 42.26 39.10 42.08 C 42.97 41.43 45.73 44.69 49.14 45.77 C 50.13 46.28 52.27 46.35 51.93 47.99 C 52.20 49.56 50.25 50.28 48.99 49.91 C 45.32 49.66 42.88 45.67 39.13 46.09 C 35.77 47.41 32.90 50.58 28.98 49.90 C 25.58 49.59 23.28 46.40 19.95 46.01 C 16.69 46.48 14.39 49.56 11.05 49.90 C 9.80 50.28 7.80 49.60 8.06 48.02 C 7.69 46.35 9.86 46.29 10.86 45.77 C 13.50 44.99 15.53 42.86 18.23 42.22 Z" />
</g>
</svg>
