<?xml version="1.0" encoding="UTF-8" ?>
<!DOCTYPE svg PUBLIC "-//W3C//DTD SVG 1.1//EN" "http://www.w3.org/Graphics/SVG/1.1/DTD/svg11.dtd">
<svg width="60pt" height="60pt" viewBox="0 0 60 60" version="1.1" xmlns="http://www.w3.org/2000/svg">
<g id="#ffffffff">
<path fill="#ffffff" opacity="1.00" d=" M 0.00 0.00 L 60.00 0.00 L 60.00 45.52 C 59.81 37.82 52.57 31.22 44.85 32.10 C 37.42 32.48 31.27 39.70 32.09 47.11 C 32.46 54.00 38.60 59.71 45.43 60.00 L 0.00 60.00 L 0.00 0.00 M 1.69 21.70 C 4.04 24.05 6.40 26.39 8.74 28.75 C 13.94 23.83 20.73 20.48 27.93 20.10 C 36.52 19.38 45.08 22.84 51.26 28.75 C 53.60 26.39 55.95 24.05 58.30 21.70 C 51.31 14.82 41.84 10.47 32.00 10.08 C 20.83 9.41 9.64 13.88 1.69 21.70 M 11.58 31.58 C 13.92 33.94 16.28 36.27 18.64 38.62 C 22.37 35.25 27.32 33.47 32.36 34.08 C 35.50 30.88 39.51 28.73 43.95 28.01 C 33.93 21.66 19.94 23.10 11.58 31.58 M 21.43 41.38 C 23.61 43.63 25.84 45.82 28.02 48.08 C 27.80 44.55 28.53 41.11 29.79 37.84 C 26.71 38.25 23.87 39.45 21.43 41.38 Z" />
<path fill="#ffffff" opacity="1.00" d=" M 51.24 40.15 C 53.13 39.24 55.00 41.97 53.38 43.34 C 50.61 46.25 47.86 49.22 44.79 51.82 C 42.69 52.45 41.45 50.05 40.05 48.94 C 38.61 47.79 36.92 45.42 39.14 44.10 C 41.37 43.61 42.53 45.97 44.03 47.14 C 46.46 44.85 48.62 42.25 51.24 40.15 Z" />
<path fill="#ffffff" opacity="1.00" d=" M 46.57 60.00 C 53.65 59.72 59.68 53.70 60.00 46.63 L 60.00 60.00 L 46.57 60.00 Z" />
</g>
<g id="#000000ff">
<path fill="#968176" opacity="1.00" d=" M 1.69 21.70 C 9.64 13.88 20.83 9.41 32.00 10.08 C 41.84 10.47 51.31 14.82 58.30 21.70 C 55.95 24.05 53.60 26.39 51.26 28.75 C 45.08 22.84 36.52 19.38 27.93 20.10 C 20.73 20.48 13.94 23.83 8.74 28.75 C 6.40 26.39 4.04 24.05 1.69 21.70 Z" />
<path fill="#968176" opacity="1.00" d=" M 11.58 31.58 C 19.94 23.10 33.93 21.66 43.95 28.01 C 39.51 28.73 35.50 30.88 32.36 34.08 C 27.32 33.47 22.37 35.25 18.64 38.62 C 16.28 36.27 13.92 33.94 11.58 31.58 Z" />
<path fill="#968176" opacity="1.00" d=" M 32.09 47.11 C 31.27 39.70 37.42 32.48 44.85 32.10 C 52.57 31.22 59.81 37.82 60.00 45.52 L 60.00 46.63 C 59.68 53.70 53.65 59.72 46.57 60.00 L 45.43 60.00 C 38.60 59.71 32.46 54.00 32.09 47.11 M 51.24 40.15 C 48.62 42.25 46.46 44.85 44.03 47.14 C 42.53 45.97 41.37 43.61 39.14 44.10 C 36.92 45.42 38.61 47.79 40.05 48.94 C 41.45 50.05 42.69 52.45 44.79 51.82 C 47.86 49.22 50.61 46.25 53.38 43.34 C 55.00 41.97 53.13 39.24 51.24 40.15 Z" />
<path fill="#968176" opacity="1.00" d=" M 21.43 41.38 C 23.87 39.45 26.71 38.25 29.79 37.84 C 28.53 41.11 27.80 44.55 28.02 48.08 C 25.84 45.82 23.61 43.63 21.43 41.38 Z" />
</g>
</svg>
