<?xml version="1.0" encoding="UTF-8" ?>
<!DOCTYPE svg PUBLIC "-//W3C//DTD SVG 1.1//EN" "http://www.w3.org/Graphics/SVG/1.1/DTD/svg11.dtd">
<svg width="60pt" height="60pt" viewBox="0 0 60 60" version="1.1" xmlns="http://www.w3.org/2000/svg">
<g id="#ffffffff">
<path fill="#ffffff" opacity="1.00" d=" M 0.00 0.00 L 60.00 0.00 L 60.00 60.00 L 0.00 60.00 L 0.00 0.00 M 31.50 10.78 C 31.49 16.52 31.50 22.25 31.49 27.99 C 38.99 28.01 46.50 27.99 54.00 28.00 C 53.87 21.72 54.25 15.42 53.83 9.16 C 53.13 7.60 51.32 8.15 50.00 8.24 C 43.84 9.10 37.67 9.94 31.50 10.78 M 10.14 13.69 C 8.80 14.01 7.02 13.75 6.16 15.10 C 5.77 19.39 6.11 23.70 6.00 28.00 C 13.16 28.00 20.32 28.00 27.49 28.00 C 27.48 22.44 27.49 16.87 27.48 11.31 C 21.71 12.17 15.93 12.97 10.14 13.69 M 6.00 32.00 C 6.11 36.29 5.76 40.60 6.17 44.88 C 6.41 45.10 6.91 45.55 7.15 45.77 C 13.89 46.97 20.73 47.58 27.48 48.69 C 27.49 43.13 27.48 37.56 27.49 32.00 C 20.32 32.00 13.16 32.00 6.00 32.00 M 31.49 32.01 C 31.50 37.74 31.49 43.48 31.50 49.22 C 37.98 50.06 44.44 51.04 50.92 51.85 C 52.23 52.25 54.11 51.66 53.92 50.01 C 54.14 44.01 53.93 38.00 54.00 32.00 C 46.50 32.00 38.99 31.99 31.49 32.01 Z" />
</g>
<g id="#000000ff">
<path fill="#968176" opacity="1.00" d=" M 31.50 10.78 C 37.67 9.94 43.84 9.10 50.00 8.24 C 51.32 8.15 53.13 7.60 53.83 9.16 C 54.25 15.42 53.87 21.72 54.00 28.00 C 46.50 27.99 38.99 28.01 31.49 27.99 C 31.50 22.25 31.49 16.52 31.50 10.78 Z" />
<path fill="#968176" opacity="1.00" d=" M 10.14 13.69 C 15.93 12.97 21.71 12.17 27.48 11.31 C 27.49 16.87 27.48 22.44 27.49 28.00 C 20.32 28.00 13.16 28.00 6.00 28.00 C 6.11 23.70 5.77 19.39 6.16 15.10 C 7.02 13.75 8.80 14.01 10.14 13.69 Z" />
<path fill="#968176" opacity="1.00" d=" M 6.00 32.00 C 13.16 32.00 20.32 32.00 27.49 32.00 C 27.48 37.56 27.49 43.13 27.48 48.69 C 20.73 47.58 13.89 46.97 7.15 45.77 C 6.91 45.55 6.41 45.10 6.17 44.88 C 5.76 40.60 6.11 36.29 6.00 32.00 Z" />
<path fill="#968176" opacity="1.00" d=" M 31.49 32.01 C 38.99 31.99 46.50 32.00 54.00 32.00 C 53.93 38.00 54.14 44.01 53.92 50.01 C 54.11 51.66 52.23 52.25 50.92 51.85 C 44.44 51.04 37.98 50.06 31.50 49.22 C 31.49 43.48 31.50 37.74 31.49 32.01 Z" />
</g>
</svg>
