<?xml version="1.0" encoding="UTF-8" ?>
<!DOCTYPE svg PUBLIC "-//W3C//DTD SVG 1.1//EN" "http://www.w3.org/Graphics/SVG/1.1/DTD/svg11.dtd">
<svg width="60pt" height="60pt" viewBox="0 0 60 60" version="1.1" xmlns="http://www.w3.org/2000/svg">
<g id="#ffffffff">
<path fill="#ffffff" opacity="1.00" d=" M 0.00 0.00 L 60.00 0.00 L 60.00 60.00 L 0.00 60.00 L 0.00 0.00 M 50.51 24.40 C 47.97 25.47 46.01 28.06 43.07 27.98 C 30.09 28.22 17.09 27.69 4.13 28.16 C 1.25 27.98 1.27 32.01 4.13 31.84 C 17.09 32.31 30.09 31.79 43.07 32.02 C 46.56 31.93 48.68 35.59 52.01 36.03 C 55.80 36.09 58.97 32.03 57.78 28.38 C 57.01 25.45 53.42 23.01 50.51 24.40 Z" />
</g>
<g id="#000000ff">
<path fill="#968176" opacity="1.00" d=" M 50.51 24.40 C 53.42 23.01 57.01 25.45 57.78 28.38 C 58.97 32.03 55.80 36.09 52.01 36.03 C 48.68 35.59 46.56 31.93 43.07 32.02 C 30.09 31.79 17.09 32.31 4.13 31.84 C 1.27 32.01 1.25 27.98 4.13 28.16 C 17.09 27.69 30.09 28.22 43.07 27.98 C 46.01 28.06 47.97 25.47 50.51 24.40 Z" />
</g>
</svg>
