<?xml version="1.0" encoding="UTF-8" ?>
<!DOCTYPE svg PUBLIC "-//W3C//DTD SVG 1.1//EN" "http://www.w3.org/Graphics/SVG/1.1/DTD/svg11.dtd">
<svg width="60pt" height="60pt" viewBox="0 0 60 60" version="1.1" xmlns="http://www.w3.org/2000/svg">
<g id="#ffffffff">
<path fill="#ffffff" opacity="1.00" d=" M 0.00 0.00 L 60.00 0.00 L 60.00 60.00 L 0.00 60.00 L 0.00 0.00 M 7.16 11.80 C 14.49 12.40 21.88 11.62 29.21 12.18 C 36.82 11.72 44.46 12.24 52.07 11.91 C 53.52 12.01 54.31 10.45 53.91 9.19 C 52.86 7.47 50.62 8.17 48.95 7.98 C 35.31 8.09 21.66 7.87 8.02 8.08 C 5.91 7.84 5.23 11.07 7.16 11.80 M 28.24 12.97 L 28.57 13.64 C 26.97 15.00 25.47 16.48 24.03 18.00 C 28.04 17.99 32.05 18.03 36.06 17.97 C 34.37 16.39 32.59 14.85 31.37 12.86 C 30.33 12.88 29.28 12.92 28.24 12.97 M 14.07 27.91 C 13.87 33.93 14.07 39.95 14.00 45.97 C 11.44 46.30 7.42 44.94 6.18 48.04 C 5.31 50.36 7.69 52.43 9.93 51.99 C 23.66 51.96 37.40 52.11 51.13 51.92 C 53.92 52.06 55.03 47.89 52.66 46.52 C 50.58 45.61 48.20 46.13 46.00 45.97 C 45.94 39.93 46.12 33.89 45.94 27.85 C 45.97 25.35 43.45 23.71 41.12 24.01 C 33.37 24.02 25.62 23.92 17.88 24.06 C 15.83 24.04 13.99 25.84 14.07 27.91 Z" />
<path fill="#ffffff" opacity="1.00" d=" M 22.34 28.00 C 27.45 28.00 32.55 28.00 37.66 28.00 C 38.29 30.16 39.89 31.64 42.00 32.34 C 42.00 37.56 42.00 42.78 42.00 48.00 C 40.62 48.00 39.25 48.00 37.87 48.00 C 35.51 41.54 26.61 40.14 21.94 44.92 C 21.96 45.69 22.00 47.23 22.03 48.00 C 20.68 48.00 19.34 48.00 18.00 48.00 C 18.00 42.78 18.00 37.56 18.00 32.34 C 20.12 31.65 21.64 30.11 22.34 28.00 M 29.13 32.10 C 26.85 33.31 28.48 36.91 30.91 35.87 C 33.11 34.64 31.52 31.15 29.13 32.10 Z" />
</g>
<g id="#000000ff">
<path fill="#968176" opacity="1.00" d=" M 7.16 11.80 C 5.23 11.07 5.91 7.84 8.02 8.08 C 21.66 7.87 35.31 8.09 48.95 7.98 C 50.62 8.17 52.86 7.47 53.91 9.19 C 54.31 10.45 53.52 12.01 52.07 11.91 C 44.46 12.24 36.82 11.72 29.21 12.18 C 21.88 11.62 14.49 12.40 7.16 11.80 Z" />
<path fill="#968176" opacity="1.00" d=" M 28.24 12.97 C 29.28 12.92 30.33 12.88 31.37 12.86 C 32.59 14.85 34.37 16.39 36.06 17.97 C 32.05 18.03 28.04 17.99 24.03 18.00 C 25.47 16.48 26.97 15.00 28.57 13.64 L 28.24 12.97 Z" />
<path fill="#968176" opacity="1.00" d=" M 14.07 27.91 C 13.99 25.84 15.83 24.04 17.88 24.06 C 25.62 23.92 33.37 24.02 41.12 24.01 C 43.45 23.71 45.97 25.35 45.94 27.85 C 46.12 33.89 45.94 39.93 46.00 45.97 C 48.20 46.13 50.58 45.61 52.66 46.52 C 55.03 47.89 53.92 52.06 51.13 51.92 C 37.40 52.11 23.66 51.96 9.93 51.99 C 7.69 52.43 5.31 50.36 6.18 48.04 C 7.42 44.94 11.44 46.30 14.00 45.97 C 14.07 39.95 13.87 33.93 14.07 27.91 M 22.34 28.00 C 21.64 30.11 20.12 31.65 18.00 32.34 C 18.00 37.56 18.00 42.78 18.00 48.00 C 19.34 48.00 20.68 48.00 22.03 48.00 C 22.00 47.23 21.96 45.69 21.94 44.92 C 26.61 40.14 35.51 41.54 37.87 48.00 C 39.25 48.00 40.62 48.00 42.00 48.00 C 42.00 42.78 42.00 37.56 42.00 32.34 C 39.89 31.64 38.29 30.16 37.66 28.00 C 32.55 28.00 27.45 28.00 22.34 28.00 Z" />
<path fill="#968176" opacity="1.00" d=" M 29.13 32.10 C 31.52 31.15 33.11 34.64 30.91 35.87 C 28.48 36.91 26.85 33.31 29.13 32.10 Z" />
</g>
</svg>
