<?xml version="1.0" encoding="UTF-8" ?>
<!DOCTYPE svg PUBLIC "-//W3C//DTD SVG 1.1//EN" "http://www.w3.org/Graphics/SVG/1.1/DTD/svg11.dtd">
<svg width="60pt" height="60pt" viewBox="0 0 60 60" version="1.1" xmlns="http://www.w3.org/2000/svg">
<g id="#ffffffff">
<path fill="#ffffff" opacity="1.00" d=" M 0.00 0.00 L 60.00 0.00 L 60.00 60.00 L 0.00 60.00 L 0.00 0.00 M 28.04 7.91 C 27.89 11.26 28.05 14.61 28.00 17.97 C 27.44 17.99 26.33 18.05 25.77 18.08 C 26.31 19.99 27.67 22.05 29.91 21.95 C 36.63 22.04 43.35 22.04 50.07 21.96 C 52.33 22.07 53.61 19.96 54.24 18.10 C 53.68 18.06 52.56 18.00 52.00 17.96 C 51.95 14.62 52.11 11.28 51.95 7.94 C 52.00 5.89 50.11 3.99 48.06 4.04 C 42.67 3.96 37.27 3.95 31.88 4.05 C 29.83 3.99 27.97 5.87 28.04 7.91 M 12.39 8.73 C 9.23 10.49 9.26 15.58 12.45 17.29 C 15.56 19.37 20.12 16.71 20.00 13.03 C 20.18 9.29 15.52 6.58 12.39 8.73 M 4.07 19.96 C 4.04 30.94 3.76 41.95 4.21 52.91 C 6.13 55.74 8.86 52.42 8.12 50.00 C 22.71 50.00 37.29 50.00 51.88 50.00 C 52.13 51.34 51.77 53.05 53.14 53.89 C 54.44 54.32 56.04 53.52 55.92 52.01 C 56.05 48.39 56.16 44.74 55.83 41.13 C 55.13 39.62 53.36 40.12 52.04 39.98 C 37.36 40.02 22.68 39.99 8.00 40.00 C 7.94 33.31 8.12 26.61 7.92 19.92 C 8.17 17.37 3.77 17.41 4.07 19.96 M 12.02 25.94 C 12.27 29.37 13.79 32.54 14.44 35.90 C 17.54 36.02 20.64 36.03 23.75 35.99 C 22.43 31.98 21.77 27.72 19.99 23.88 C 17.92 20.57 12.25 22.04 12.02 25.94 M 25.10 26.00 C 26.03 29.34 26.97 32.67 27.91 36.00 C 36.61 36.00 45.32 36.00 54.02 36.00 C 54.47 32.17 53.79 26.81 49.10 26.13 C 41.11 25.81 33.10 26.10 25.10 26.00 Z" />
<path fill="#ffffff" opacity="1.00" d=" M 32.00 8.00 C 37.33 8.00 42.67 8.00 48.00 8.00 C 48.00 11.33 48.00 14.67 48.00 18.00 C 42.67 18.00 37.33 18.00 32.00 18.00 C 32.00 14.67 32.00 11.33 32.00 8.00 Z" />
</g>
<g id="#000000ff">
<path fill="#968176" opacity="1.00" d=" M 28.04 7.91 C 27.97 5.87 29.83 3.99 31.88 4.05 C 37.27 3.95 42.67 3.96 48.06 4.04 C 50.11 3.99 52.00 5.89 51.95 7.94 C 52.11 11.28 51.95 14.62 52.00 17.96 C 52.56 18.00 53.68 18.06 54.24 18.10 C 53.61 19.96 52.33 22.07 50.07 21.96 C 43.35 22.04 36.63 22.04 29.91 21.95 C 27.67 22.05 26.31 19.99 25.77 18.08 C 26.33 18.05 27.44 17.99 28.00 17.97 C 28.05 14.61 27.89 11.26 28.04 7.91 M 32.00 8.00 C 32.00 11.33 32.00 14.67 32.00 18.00 C 37.33 18.00 42.67 18.00 48.00 18.00 C 48.00 14.67 48.00 11.33 48.00 8.00 C 42.67 8.00 37.33 8.00 32.00 8.00 Z" />
<path fill="#968176" opacity="1.00" d=" M 12.39 8.73 C 15.52 6.58 20.18 9.29 20.00 13.03 C 20.12 16.71 15.56 19.37 12.45 17.29 C 9.26 15.58 9.23 10.49 12.39 8.73 Z" />
<path fill="#968176" opacity="1.00" d=" M 4.07 19.96 C 3.77 17.41 8.17 17.37 7.92 19.92 C 8.12 26.61 7.94 33.31 8.00 40.00 C 22.68 39.99 37.36 40.02 52.04 39.98 C 53.36 40.12 55.13 39.62 55.83 41.13 C 56.16 44.74 56.05 48.39 55.92 52.01 C 56.04 53.52 54.44 54.32 53.14 53.89 C 51.77 53.05 52.13 51.34 51.88 50.00 C 37.29 50.00 22.71 50.00 8.12 50.00 C 8.86 52.42 6.13 55.74 4.21 52.91 C 3.76 41.95 4.04 30.94 4.07 19.96 Z" />
<path fill="#968176" opacity="1.00" d=" M 12.02 25.94 C 12.25 22.04 17.92 20.57 19.99 23.88 C 21.77 27.72 22.43 31.98 23.75 35.99 C 20.64 36.03 17.54 36.02 14.44 35.90 C 13.79 32.54 12.27 29.37 12.02 25.94 Z" />
<path fill="#968176" opacity="1.00" d=" M 25.10 26.00 C 33.10 26.10 41.11 25.81 49.10 26.13 C 53.79 26.81 54.47 32.17 54.02 36.00 C 45.32 36.00 36.61 36.00 27.91 36.00 C 26.97 32.67 26.03 29.34 25.10 26.00 Z" />
</g>
</svg>
