<?xml version="1.0" encoding="UTF-8" ?>
<!DOCTYPE svg PUBLIC "-//W3C//DTD SVG 1.1//EN" "http://www.w3.org/Graphics/SVG/1.1/DTD/svg11.dtd">
<svg width="60pt" height="60pt" viewBox="0 0 60 60" version="1.1" xmlns="http://www.w3.org/2000/svg">
<g id="#ffffffff">
<path fill="#ffffff" opacity="1.00" d=" M 0.00 0.00 L 60.00 0.00 L 60.00 60.00 L 0.00 60.00 L 0.00 0.00 M 12.43 10.57 C 7.54 12.02 3.95 16.87 4.03 21.98 C 3.98 30.00 3.98 38.02 4.03 46.04 C 3.90 48.54 6.52 50.36 8.85 50.00 C 20.59 49.98 32.33 50.04 44.07 49.97 C 50.43 50.08 56.09 44.39 55.97 38.03 C 56.02 29.99 56.03 21.95 55.97 13.92 C 55.99 11.90 54.17 9.95 52.11 10.03 C 41.07 9.95 30.03 10.04 18.99 9.99 C 16.80 10.02 14.55 9.90 12.43 10.57 Z" />
<path fill="#ffffff" opacity="1.00" d=" M 16.29 24.00 C 17.18 24.00 18.96 24.00 19.85 24.00 C 20.59 25.36 21.33 26.73 22.08 28.09 C 22.83 26.73 23.57 25.37 24.31 24.01 C 25.16 24.01 26.86 24.00 27.71 24.00 C 26.44 26.00 25.17 27.98 23.90 29.98 C 25.15 31.98 26.42 33.98 27.68 35.99 C 26.83 35.99 25.11 36.00 24.26 36.00 C 23.47 34.69 22.70 33.38 21.89 32.09 C 21.11 33.37 20.34 34.66 19.59 35.95 C 18.76 35.97 17.11 36.00 16.28 36.01 C 17.51 33.99 18.74 31.97 19.96 29.94 C 18.74 27.96 17.52 25.98 16.29 24.00 Z" />
<path fill="#ffffff" opacity="1.00" d=" M 30.83 23.99 C 32.05 24.01 33.27 24.03 34.49 24.05 C 35.43 26.54 36.40 29.03 37.43 31.49 C 38.43 29.00 39.41 26.52 40.38 24.02 C 41.58 24.01 42.79 24.00 44.00 23.99 C 44.00 28.00 44.00 32.00 44.00 36.00 C 43.29 36.00 41.88 36.00 41.18 35.99 C 41.19 33.46 41.22 30.93 41.12 28.41 C 40.16 30.53 39.28 32.69 38.51 34.89 C 37.99 34.89 36.95 34.89 36.43 34.90 C 35.44 32.68 34.64 30.39 33.66 28.18 C 33.64 30.78 33.64 33.39 33.64 36.00 C 32.94 36.00 31.53 36.00 30.83 36.00 C 30.82 31.99 30.83 27.99 30.83 23.99 Z" />
</g>
<g id="#000000ff">
<path fill="#968176" opacity="1.00" d=" M 12.43 10.57 C 14.55 9.90 16.80 10.02 18.99 9.99 C 30.03 10.04 41.07 9.95 52.11 10.03 C 54.17 9.95 55.99 11.90 55.97 13.92 C 56.03 21.95 56.02 29.99 55.97 38.03 C 56.09 44.39 50.43 50.08 44.07 49.97 C 32.33 50.04 20.59 49.98 8.85 50.00 C 6.52 50.36 3.90 48.54 4.03 46.04 C 3.98 38.02 3.98 30.00 4.03 21.98 C 3.95 16.87 7.54 12.02 12.43 10.57 M 16.29 24.00 C 17.52 25.98 18.74 27.96 19.96 29.94 C 18.74 31.97 17.51 33.99 16.28 36.01 C 17.11 36.00 18.76 35.97 19.59 35.95 C 20.34 34.66 21.11 33.37 21.89 32.09 C 22.70 33.38 23.47 34.69 24.26 36.00 C 25.11 36.00 26.83 35.99 27.68 35.99 C 26.42 33.98 25.15 31.98 23.90 29.98 C 25.17 27.98 26.44 26.00 27.71 24.00 C 26.86 24.00 25.16 24.01 24.31 24.01 C 23.57 25.37 22.83 26.73 22.08 28.09 C 21.33 26.73 20.59 25.36 19.85 24.00 C 18.96 24.00 17.18 24.00 16.29 24.00 M 30.83 23.99 C 30.83 27.99 30.82 31.99 30.83 36.00 C 31.53 36.00 32.94 36.00 33.64 36.00 C 33.64 33.39 33.64 30.78 33.66 28.18 C 34.64 30.39 35.44 32.68 36.43 34.90 C 36.95 34.89 37.99 34.89 38.51 34.89 C 39.28 32.69 40.16 30.53 41.12 28.41 C 41.22 30.93 41.19 33.46 41.18 35.99 C 41.88 36.00 43.29 36.00 44.00 36.00 C 44.00 32.00 44.00 28.00 44.00 23.99 C 42.79 24.00 41.58 24.01 40.38 24.02 C 39.41 26.52 38.43 29.00 37.43 31.49 C 36.40 29.03 35.43 26.54 34.49 24.05 C 33.27 24.03 32.05 24.01 30.83 23.99 Z" />
</g>
</svg>
