<?xml version="1.0" encoding="UTF-8" ?>
<!DOCTYPE svg PUBLIC "-//W3C//DTD SVG 1.1//EN" "http://www.w3.org/Graphics/SVG/1.1/DTD/svg11.dtd">
<svg width="60pt" height="60pt" viewBox="0 0 60 60" version="1.1" xmlns="http://www.w3.org/2000/svg">
<g id="#ffffffff">
<path fill="#ffffff" opacity="1.00" d=" M 0.00 0.00 L 60.00 0.00 L 60.00 60.00 L 0.00 60.00 L 0.00 0.00 M 9.46 2.45 C 7.59 3.45 7.57 6.44 9.38 7.52 C 10.95 8.57 13.40 7.73 13.82 5.85 C 14.81 3.40 11.61 0.97 9.46 2.45 M 21.38 10.01 C 17.47 9.57 13.12 11.91 12.38 15.98 C 12.22 17.54 14.01 17.82 15.07 18.33 C 16.23 16.10 18.12 13.41 21.03 14.20 C 24.31 15.34 24.32 10.43 27.15 10.12 C 29.06 9.52 30.54 11.12 32.01 12.03 C 35.45 11.22 37.34 13.83 39.05 16.25 C 42.11 15.60 45.52 16.33 46.29 19.80 C 43.93 19.89 40.73 20.20 40.15 23.03 C 39.67 26.96 40.35 30.94 39.82 34.86 C 39.11 36.35 36.86 36.37 36.18 34.85 C 35.73 32.51 36.47 29.90 35.28 27.74 C 34.11 25.76 31.47 26.26 29.69 25.24 C 27.87 24.14 28.45 21.43 26.86 20.19 C 20.59 19.80 14.27 20.01 7.99 20.07 C 6.46 19.91 5.69 21.61 6.11 22.88 C 7.23 24.33 9.26 23.80 10.82 24.27 C 12.09 24.67 12.40 26.47 11.44 27.36 C 8.75 29.19 4.37 26.52 2.09 29.21 C 1.31 31.67 4.15 32.14 5.92 32.15 C 6.09 37.95 8.30 43.53 12.03 47.95 C 11.19 49.75 8.62 52.34 11.15 53.93 C 13.30 54.61 13.99 52.18 15.11 50.92 C 19.85 52.81 25.04 51.73 29.99 52.00 C 34.93 51.70 40.15 52.89 44.83 50.82 C 45.98 52.11 46.65 54.63 48.85 53.93 C 51.39 52.28 48.73 49.65 47.91 47.81 C 51.62 43.43 53.83 37.91 54.07 32.16 C 55.57 31.93 58.02 32.08 58.04 29.93 C 57.81 27.66 55.20 28.11 53.58 27.88 C 52.72 25.90 52.86 23.89 53.85 21.99 C 54.30 19.95 51.47 20.05 50.16 19.85 C 49.74 15.10 45.44 11.36 40.62 12.00 C 39.09 10.27 37.41 8.39 34.95 8.16 C 32.18 7.85 29.87 5.56 26.99 6.08 C 24.53 6.32 22.93 8.32 21.38 10.01 M 47.18 6.10 C 44.85 7.21 46.42 10.87 48.85 9.89 C 51.12 8.72 49.57 5.15 47.18 6.10 Z" />
</g>
<g id="#000000ff">
<path fill="#000000" opacity="1.00" d=" M 9.46 2.45 C 11.61 0.97 14.81 3.40 13.82 5.85 C 13.40 7.73 10.95 8.57 9.38 7.52 C 7.57 6.44 7.59 3.45 9.46 2.45 Z" />
<path fill="#000000" opacity="1.00" d=" M 21.38 10.01 C 22.93 8.32 24.53 6.32 26.99 6.08 C 29.87 5.56 32.18 7.85 34.95 8.16 C 37.41 8.39 39.09 10.27 40.62 12.00 C 45.44 11.36 49.74 15.10 50.16 19.85 C 51.47 20.05 54.30 19.95 53.85 21.99 C 52.86 23.89 52.72 25.90 53.58 27.88 C 55.20 28.11 57.81 27.66 58.04 29.93 C 58.02 32.08 55.57 31.93 54.07 32.16 C 53.83 37.91 51.62 43.43 47.91 47.81 C 48.73 49.65 51.39 52.28 48.85 53.93 C 46.65 54.63 45.98 52.11 44.83 50.82 C 40.15 52.89 34.93 51.70 29.99 52.00 C 25.04 51.73 19.85 52.81 15.11 50.92 C 13.99 52.18 13.30 54.61 11.15 53.93 C 8.62 52.34 11.19 49.75 12.03 47.95 C 8.30 43.53 6.09 37.95 5.92 32.15 C 4.15 32.14 1.31 31.67 2.09 29.21 C 4.37 26.52 8.75 29.19 11.44 27.36 C 12.40 26.47 12.09 24.67 10.82 24.27 C 9.26 23.80 7.23 24.33 6.11 22.88 C 5.69 21.61 6.46 19.91 7.99 20.07 C 14.27 20.01 20.59 19.80 26.86 20.19 C 28.45 21.43 27.87 24.14 29.69 25.24 C 31.47 26.26 34.11 25.76 35.28 27.74 C 36.47 29.90 35.73 32.51 36.18 34.85 C 36.86 36.37 39.11 36.35 39.82 34.86 C 40.35 30.94 39.67 26.96 40.15 23.03 C 40.73 20.20 43.93 19.89 46.29 19.80 C 45.52 16.33 42.11 15.60 39.05 16.25 C 37.34 13.83 35.45 11.22 32.01 12.03 C 30.54 11.12 29.06 9.52 27.15 10.12 C 24.32 10.43 24.31 15.34 21.03 14.20 C 18.12 13.41 16.23 16.10 15.07 18.33 C 14.01 17.82 12.22 17.54 12.38 15.98 C 13.12 11.91 17.47 9.57 21.38 10.01 Z" />
<path fill="#000000" opacity="1.00" d=" M 47.18 6.10 C 49.57 5.15 51.12 8.72 48.85 9.89 C 46.42 10.87 44.85 7.21 47.18 6.10 Z" />
</g>
</svg>
