<?xml version="1.0" encoding="UTF-8" ?>
<!DOCTYPE svg PUBLIC "-//W3C//DTD SVG 1.1//EN" "http://www.w3.org/Graphics/SVG/1.1/DTD/svg11.dtd">
<svg width="60pt" height="60pt" viewBox="0 0 60 60" version="1.1" xmlns="http://www.w3.org/2000/svg">
<g id="#ffffffff">
<path fill="#ffffff" opacity="1.00" d=" M 0.00 0.00 L 60.00 0.00 L 60.00 60.00 L 0.00 60.00 L 0.00 0.00 M 31.45 2.44 C 32.01 7.84 32.06 13.89 28.56 18.39 C 26.76 20.94 23.88 22.30 21.10 23.50 C 19.59 20.81 18.87 17.84 18.47 14.80 C 15.35 16.83 12.56 19.44 10.75 22.74 C 6.00 30.60 7.68 41.48 14.07 47.93 C 23.11 56.86 39.97 55.85 47.56 45.51 C 53.16 38.43 53.00 28.36 49.49 20.38 C 46.04 12.35 39.12 6.33 31.45 2.44 Z" />
</g>
<g id="#000000ff">
<path fill="#000000" opacity="1.00" d=" M 31.45 2.44 C 39.12 6.33 46.04 12.35 49.49 20.38 C 53.00 28.36 53.16 38.43 47.56 45.51 C 39.97 55.85 23.11 56.86 14.07 47.93 C 7.68 41.48 6.00 30.60 10.75 22.74 C 12.56 19.44 15.35 16.83 18.47 14.80 C 18.87 17.84 19.59 20.81 21.10 23.50 C 23.88 22.30 26.76 20.94 28.56 18.39 C 32.06 13.89 32.01 7.84 31.45 2.44 Z" />
</g>
</svg>
