<?xml version="1.0" encoding="UTF-8" ?>
<!DOCTYPE svg PUBLIC "-//W3C//DTD SVG 1.1//EN" "http://www.w3.org/Graphics/SVG/1.1/DTD/svg11.dtd">
<svg width="60pt" height="60pt" viewBox="0 0 60 60" version="1.1" xmlns="http://www.w3.org/2000/svg">
<g id="#ffffffff">
<path fill="#ffffff" opacity="1.00" d=" M 0.00 0.00 L 60.00 0.00 L 60.00 60.00 L 0.00 60.00 L 0.00 0.00 M 18.34 13.96 C 16.28 14.28 13.51 13.22 12.09 15.18 C 11.80 16.35 12.16 17.23 13.16 17.82 C 15.72 18.17 18.32 17.85 20.89 18.15 C 22.04 19.60 22.90 23.53 25.40 21.40 C 27.19 18.68 24.37 15.74 22.29 14.13 C 23.48 8.51 29.96 10.03 34.13 10.14 C 36.23 10.34 36.88 12.57 37.71 14.13 C 35.62 15.72 32.83 18.67 34.58 21.37 C 37.05 23.55 37.97 19.62 39.10 18.14 C 41.67 17.86 44.27 18.16 46.83 17.82 C 47.84 17.23 48.20 16.35 47.90 15.19 C 46.54 13.21 43.76 14.39 41.76 13.89 C 40.79 11.73 40.31 9.13 38.23 7.70 C 34.73 5.06 30.04 6.16 25.98 6.08 C 21.74 6.22 19.04 10.12 18.34 13.96 M 16.05 24.01 C 15.88 26.82 17.76 29.08 19.67 30.89 C 17.89 37.90 15.67 44.81 14.10 51.88 C 13.52 53.96 17.23 54.92 17.75 52.78 C 19.90 45.93 21.56 38.93 23.50 32.02 C 28.48 31.94 33.46 32.17 38.42 31.79 C 39.16 34.53 39.91 37.26 40.65 40.00 C 35.73 40.08 30.81 39.85 25.89 40.09 C 23.84 39.94 23.29 43.14 25.18 43.81 C 30.69 44.28 36.24 43.86 41.76 44.00 C 42.58 46.94 43.20 49.93 44.26 52.79 C 44.77 54.87 48.37 54.00 47.92 51.95 C 46.23 44.42 43.86 37.05 41.98 29.56 C 42.85 27.81 44.12 26.06 43.96 24.01 C 44.13 22.34 41.80 21.28 40.67 22.54 C 39.94 24.28 39.36 26.10 38.22 27.63 C 34.16 24.52 28.65 26.54 23.93 26.06 C 23.43 26.50 22.43 27.37 21.93 27.80 C 20.70 26.27 20.10 24.41 19.36 22.63 C 18.45 21.19 15.70 22.29 16.05 24.01 Z" />
</g>
<g id="#000000ff">
<path fill="#000000" opacity="1.00" d=" M 18.34 13.96 C 19.04 10.12 21.74 6.22 25.98 6.08 C 30.04 6.16 34.73 5.06 38.23 7.70 C 40.31 9.13 40.79 11.73 41.76 13.89 C 43.76 14.39 46.54 13.21 47.90 15.19 C 48.20 16.35 47.84 17.23 46.83 17.82 C 44.27 18.16 41.67 17.86 39.10 18.14 C 37.97 19.62 37.05 23.55 34.58 21.37 C 32.83 18.67 35.62 15.72 37.71 14.13 C 36.88 12.57 36.23 10.34 34.13 10.14 C 29.96 10.03 23.48 8.51 22.29 14.13 C 24.37 15.74 27.19 18.68 25.40 21.40 C 22.90 23.53 22.04 19.60 20.89 18.15 C 18.32 17.85 15.72 18.17 13.16 17.82 C 12.16 17.23 11.80 16.35 12.09 15.18 C 13.51 13.22 16.28 14.28 18.34 13.96 Z" />
<path fill="#000000" opacity="1.00" d=" M 16.05 24.01 C 15.70 22.29 18.45 21.19 19.36 22.63 C 20.10 24.41 20.70 26.27 21.93 27.80 C 22.43 27.37 23.43 26.50 23.93 26.06 C 28.65 26.54 34.16 24.52 38.22 27.63 C 39.36 26.10 39.94 24.28 40.67 22.54 C 41.80 21.28 44.13 22.34 43.96 24.01 C 44.12 26.06 42.85 27.81 41.98 29.56 C 43.86 37.05 46.23 44.42 47.92 51.95 C 48.37 54.00 44.77 54.87 44.26 52.79 C 43.20 49.93 42.58 46.94 41.76 44.00 C 36.24 43.86 30.69 44.28 25.18 43.81 C 23.29 43.14 23.84 39.94 25.89 40.09 C 30.81 39.85 35.73 40.08 40.65 40.00 C 39.91 37.26 39.16 34.53 38.42 31.79 C 33.46 32.17 28.48 31.94 23.50 32.02 C 21.56 38.93 19.90 45.93 17.75 52.78 C 17.23 54.92 13.52 53.96 14.10 51.88 C 15.67 44.81 17.89 37.90 19.67 30.89 C 17.76 29.08 15.88 26.82 16.05 24.01 Z" />
</g>
</svg>
