<?xml version="1.0" encoding="UTF-8" ?>
<!DOCTYPE svg PUBLIC "-//W3C//DTD SVG 1.1//EN" "http://www.w3.org/Graphics/SVG/1.1/DTD/svg11.dtd">
<svg width="60pt" height="60pt" viewBox="0 0 60 60" version="1.1" xmlns="http://www.w3.org/2000/svg">
<g id="#ffffffff">
<path fill="#ffffff" opacity="1.00" d=" M 0.00 0.00 L 60.00 0.00 L 60.00 60.00 L 0.00 60.00 L 0.00 0.00 M 10.35 8.35 C 8.53 9.12 7.85 11.16 8.00 13.00 C 8.04 24.71 7.91 36.43 8.06 48.14 C 8.02 50.61 10.58 52.31 12.90 52.00 C 24.65 51.96 36.40 52.09 48.15 51.94 C 50.63 51.96 52.31 49.40 52.00 47.08 C 51.89 35.05 52.24 23.00 51.82 10.99 C 50.95 7.50 46.83 7.93 44.05 7.97 C 32.83 8.28 21.52 7.50 10.35 8.35 Z" />
<path fill="#ffffff" opacity="1.00" d=" M 12.00 12.00 C 24.00 12.00 36.00 12.00 48.00 12.00 C 48.00 20.00 48.00 28.00 48.00 36.00 C 44.35 35.99 40.69 36.03 37.04 35.96 C 34.95 33.10 31.64 31.60 28.09 32.04 C 25.10 28.32 22.48 24.29 19.36 20.67 C 18.12 18.82 14.92 20.99 16.31 22.81 C 18.74 26.80 21.93 30.28 24.59 34.12 C 24.20 34.59 23.42 35.53 23.03 36.00 C 19.35 36.00 15.67 35.99 12.00 36.00 C 12.00 28.00 12.00 20.00 12.00 12.00 Z" />
<path fill="#ffffff" opacity="1.00" d=" M 13.11 40.11 C 15.53 39.06 17.17 42.77 14.81 43.88 C 12.40 44.85 10.92 41.28 13.11 40.11 Z" />
<path fill="#ffffff" opacity="1.00" d=" M 28.30 40.40 C 30.81 38.99 34.09 41.25 34.00 44.02 C 34.06 47.04 30.17 49.22 27.73 47.26 C 25.17 45.71 25.60 41.56 28.30 40.40 Z" />
<path fill="#ffffff" opacity="1.00" d=" M 45.18 40.15 C 47.48 39.03 49.20 42.82 46.86 43.78 C 44.54 45.08 42.75 41.11 45.18 40.15 Z" />
</g>
<g id="#000000ff">
<path fill="#968176" opacity="1.00" d=" M 10.35 8.35 C 21.52 7.50 32.83 8.28 44.05 7.97 C 46.83 7.93 50.95 7.50 51.82 10.99 C 52.24 23.00 51.89 35.05 52.00 47.08 C 52.31 49.40 50.63 51.96 48.15 51.94 C 36.40 52.09 24.65 51.96 12.90 52.00 C 10.58 52.31 8.02 50.61 8.06 48.14 C 7.91 36.43 8.04 24.71 8.00 13.00 C 7.85 11.16 8.53 9.12 10.35 8.35 M 12.00 12.00 C 12.00 20.00 12.00 28.00 12.00 36.00 C 15.67 35.99 19.35 36.00 23.03 36.00 C 23.42 35.53 24.20 34.59 24.59 34.12 C 21.93 30.28 18.74 26.80 16.31 22.81 C 14.92 20.99 18.12 18.82 19.36 20.67 C 22.48 24.29 25.10 28.32 28.09 32.04 C 31.64 31.60 34.95 33.10 37.04 35.96 C 40.69 36.03 44.35 35.99 48.00 36.00 C 48.00 28.00 48.00 20.00 48.00 12.00 C 36.00 12.00 24.00 12.00 12.00 12.00 M 13.11 40.11 C 10.92 41.28 12.40 44.85 14.81 43.88 C 17.17 42.77 15.53 39.06 13.11 40.11 M 28.30 40.40 C 25.60 41.56 25.17 45.71 27.73 47.26 C 30.17 49.22 34.06 47.04 34.00 44.02 C 34.09 41.25 30.81 38.99 28.30 40.40 M 45.18 40.15 C 42.75 41.11 44.54 45.08 46.86 43.78 C 49.20 42.82 47.48 39.03 45.18 40.15 Z" />
</g>
</svg>
