<?xml version="1.0" encoding="UTF-8" ?>
<!DOCTYPE svg PUBLIC "-//W3C//DTD SVG 1.1//EN" "http://www.w3.org/Graphics/SVG/1.1/DTD/svg11.dtd">
<svg width="60pt" height="60pt" viewBox="0 0 60 60" version="1.1" xmlns="http://www.w3.org/2000/svg">
<g id="#ffffffff">
<path fill="#ffffff" opacity="1.00" d=" M 0.00 0.00 L 60.00 0.00 L 60.00 60.00 L 0.00 60.00 L 0.00 0.00 M 10.35 8.37 C 8.05 9.18 7.95 11.90 7.99 13.94 C 8.06 25.29 7.90 36.65 8.07 48.01 C 7.92 50.20 9.82 52.04 11.99 51.93 C 23.00 52.12 34.02 51.92 45.04 52.02 C 47.00 51.93 49.26 52.26 50.87 50.86 C 52.44 48.95 51.89 46.30 52.02 44.01 C 51.85 33.05 52.25 22.07 51.84 11.12 C 51.38 7.85 47.57 7.87 45.04 7.98 C 33.49 8.28 21.85 7.49 10.35 8.37 Z" />
<path fill="#ffffff" opacity="1.00" d=" M 23.87 27.01 C 22.77 22.12 28.88 19.67 32.88 20.04 C 33.09 26.66 33.07 33.29 32.90 39.91 C 31.62 39.88 30.33 39.87 29.05 39.89 C 28.62 34.64 28.94 29.38 28.86 24.12 C 27.29 25.23 25.65 26.27 23.87 27.01 Z" />
</g>
<g id="#000000ff">
<path fill="#000000" opacity="1.00" d=" M 10.35 8.37 C 21.85 7.49 33.49 8.28 45.04 7.98 C 47.57 7.87 51.38 7.85 51.84 11.12 C 52.25 22.07 51.85 33.05 52.02 44.01 C 51.89 46.30 52.44 48.95 50.87 50.86 C 49.26 52.26 47.00 51.93 45.04 52.02 C 34.02 51.92 23.00 52.12 11.99 51.93 C 9.82 52.04 7.92 50.20 8.07 48.01 C 7.90 36.65 8.06 25.29 7.99 13.94 C 7.95 11.90 8.05 9.18 10.35 8.37 M 23.87 27.01 C 25.65 26.27 27.29 25.23 28.86 24.12 C 28.94 29.38 28.62 34.64 29.05 39.89 C 30.33 39.87 31.62 39.88 32.90 39.91 C 33.07 33.29 33.09 26.66 32.88 20.04 C 28.88 19.67 22.77 22.12 23.87 27.01 Z" />
</g>
</svg>
