<?xml version="1.0" encoding="UTF-8" ?>
<!DOCTYPE svg PUBLIC "-//W3C//DTD SVG 1.1//EN" "http://www.w3.org/Graphics/SVG/1.1/DTD/svg11.dtd">
<svg width="60pt" height="60pt" viewBox="0 0 60 60" version="1.1" xmlns="http://www.w3.org/2000/svg">
<g id="#ffffffff">
<path fill="#ffffff" opacity="1.00" d=" M 0.00 0.00 L 60.00 0.00 L 60.00 60.00 L 0.00 60.00 L 0.00 0.00 M 11.43 8.62 C 8.65 9.70 4.06 10.10 4.00 13.96 C 3.89 17.11 7.34 18.55 10.01 17.81 C 9.99 21.83 10.00 25.84 10.00 29.86 C 8.19 30.08 5.91 29.89 4.79 31.68 C 3.01 33.78 4.39 37.30 7.03 37.85 C 10.15 38.18 13.29 37.94 16.42 38.03 C 15.20 36.22 13.91 34.23 14.08 31.94 C 14.17 28.90 16.24 26.48 18.00 24.18 C 17.90 19.81 18.23 15.42 17.84 11.06 C 17.33 8.15 13.76 7.43 11.43 8.62 M 35.55 10.69 C 33.23 12.35 33.67 16.47 36.42 17.45 C 39.68 18.96 43.38 13.88 46.18 17.15 C 46.01 17.43 45.68 17.97 45.51 18.24 C 42.93 19.07 39.17 20.43 40.11 23.94 C 41.00 27.54 45.29 26.97 48.13 27.20 C 47.93 30.57 43.57 30.08 41.27 29.52 C 41.98 32.27 42.08 35.11 41.68 37.91 C 46.02 38.22 50.97 37.48 53.91 33.94 C 56.99 30.36 56.42 24.77 53.34 21.37 C 54.46 17.77 54.10 13.48 51.16 10.83 C 46.98 6.71 40.06 7.55 35.55 10.69 M 18.24 31.13 C 17.33 33.89 20.13 36.91 22.95 36.11 C 25.51 35.60 26.00 31.76 28.83 31.98 C 29.92 32.64 30.43 34.42 29.49 35.41 C 26.59 39.20 22.55 41.88 19.21 45.24 C 17.61 46.66 17.65 49.34 19.16 50.79 C 20.67 52.37 23.04 51.91 24.99 52.02 C 28.98 51.91 32.99 52.21 36.96 51.85 C 39.59 51.36 40.94 47.84 39.26 45.74 C 37.86 43.45 34.86 44.13 32.63 43.96 C 34.42 41.99 36.34 40.02 37.37 37.52 C 39.48 32.13 36.00 25.10 30.10 24.22 C 25.09 23.05 19.97 26.48 18.24 31.13 Z" />
</g>
<g id="#000000ff">
<path fill="#000000" opacity="1.00" d=" M 11.43 8.62 C 13.76 7.43 17.33 8.15 17.84 11.06 C 18.23 15.42 17.90 19.81 18.00 24.18 C 16.24 26.48 14.17 28.90 14.08 31.94 C 13.91 34.23 15.20 36.22 16.42 38.03 C 13.29 37.94 10.15 38.18 7.03 37.85 C 4.39 37.30 3.01 33.78 4.79 31.68 C 5.91 29.89 8.19 30.08 10.00 29.86 C 10.00 25.84 9.99 21.83 10.01 17.81 C 7.34 18.55 3.89 17.11 4.00 13.96 C 4.06 10.10 8.65 9.70 11.43 8.62 Z" />
<path fill="#000000" opacity="1.00" d=" M 35.55 10.69 C 40.06 7.55 46.98 6.71 51.16 10.83 C 54.10 13.48 54.46 17.77 53.34 21.37 C 56.42 24.77 56.99 30.36 53.91 33.94 C 50.97 37.48 46.02 38.22 41.68 37.91 C 42.08 35.11 41.98 32.27 41.27 29.52 C 43.57 30.08 47.93 30.57 48.13 27.20 C 45.29 26.97 41.00 27.54 40.11 23.94 C 39.17 20.43 42.93 19.07 45.51 18.24 C 45.68 17.97 46.01 17.43 46.18 17.15 C 43.38 13.88 39.68 18.96 36.42 17.45 C 33.67 16.47 33.23 12.35 35.55 10.69 Z" />
<path fill="#000000" opacity="1.00" d=" M 18.24 31.13 C 19.97 26.48 25.09 23.05 30.10 24.22 C 36.00 25.10 39.48 32.13 37.37 37.52 C 36.34 40.02 34.42 41.99 32.63 43.96 C 34.86 44.13 37.86 43.45 39.26 45.74 C 40.94 47.84 39.59 51.36 36.96 51.85 C 32.99 52.21 28.98 51.91 24.99 52.02 C 23.04 51.91 20.67 52.37 19.16 50.79 C 17.65 49.34 17.61 46.66 19.21 45.24 C 22.55 41.88 26.59 39.20 29.49 35.41 C 30.43 34.42 29.92 32.64 28.83 31.98 C 26.00 31.76 25.51 35.60 22.95 36.11 C 20.13 36.91 17.33 33.89 18.24 31.13 Z" />
</g>
</svg>
