<?xml version="1.0" encoding="UTF-8" ?>
<!DOCTYPE svg PUBLIC "-//W3C//DTD SVG 1.1//EN" "http://www.w3.org/Graphics/SVG/1.1/DTD/svg11.dtd">
<svg width="60pt" height="60pt" viewBox="0 0 60 60" version="1.1" xmlns="http://www.w3.org/2000/svg">
<g id="#ffffffff">
<path fill="#ffffff" opacity="1.00" d=" M 0.00 0.00 L 60.00 0.00 L 60.00 60.00 L 0.00 60.00 L 0.00 0.00 M 24.46 6.65 C 16.61 8.48 9.91 14.52 7.33 22.16 C 4.64 29.72 6.14 38.59 11.18 44.84 C 16.47 51.68 25.65 55.22 34.16 53.62 C 43.15 52.13 50.85 45.04 53.15 36.24 C 55.42 28.14 52.96 18.97 46.97 13.08 C 41.27 7.19 32.40 4.72 24.46 6.65 Z" />
<path fill="#ffffff" opacity="1.00" d=" M 11.22 23.13 C 13.91 15.32 21.80 10.01 29.99 9.92 C 30.11 16.60 29.82 23.29 30.11 29.97 C 33.20 35.88 36.79 41.53 40.01 47.39 C 33.57 50.90 25.28 50.90 19.12 46.78 C 11.41 41.98 7.96 31.60 11.22 23.13 Z" />
</g>
<g id="#000000ff">
<path fill="#000000" opacity="1.00" d=" M 24.46 6.65 C 32.40 4.72 41.27 7.19 46.97 13.08 C 52.96 18.97 55.42 28.14 53.15 36.24 C 50.85 45.04 43.15 52.13 34.16 53.62 C 25.65 55.22 16.47 51.68 11.18 44.84 C 6.14 38.59 4.64 29.72 7.33 22.16 C 9.91 14.52 16.61 8.48 24.46 6.65 M 11.22 23.13 C 7.96 31.60 11.41 41.98 19.12 46.78 C 25.28 50.90 33.57 50.90 40.01 47.39 C 36.79 41.53 33.20 35.88 30.11 29.97 C 29.82 23.29 30.11 16.60 29.99 9.92 C 21.80 10.01 13.91 15.32 11.22 23.13 Z" />
</g>
</svg>
