<?xml version="1.0" encoding="UTF-8" ?>
<!DOCTYPE svg PUBLIC "-//W3C//DTD SVG 1.1//EN" "http://www.w3.org/Graphics/SVG/1.1/DTD/svg11.dtd">
<svg width="60pt" height="60pt" viewBox="0 0 60 60" version="1.1" xmlns="http://www.w3.org/2000/svg">
<g id="#ffffffff">
<path fill="#ffffff" opacity="1.00" d=" M 0.00 0.00 L 60.00 0.00 L 60.00 60.00 L 0.00 60.00 L 0.00 0.00 M 24.44 6.66 C 17.33 8.33 11.14 13.43 8.15 20.10 C 5.20 26.51 5.32 34.24 8.47 40.56 C 11.90 47.64 19.02 52.80 26.84 53.77 C 33.87 54.75 41.27 52.37 46.40 47.47 C 51.44 42.78 54.31 35.84 53.96 28.96 C 53.71 22.08 50.27 15.45 44.88 11.19 C 39.24 6.64 31.47 4.97 24.44 6.66 Z" />
<path fill="#ffffff" opacity="1.00" d=" M 15.85 15.86 C 19.51 12.02 24.77 10.20 29.98 9.88 C 30.01 23.29 30.01 36.71 29.98 50.13 C 23.35 49.85 16.80 46.60 13.23 40.90 C 8.11 33.29 9.23 22.23 15.85 15.86 Z" />
</g>
<g id="#000000ff">
<path fill="#968176" opacity="1.00" d=" M 24.44 6.66 C 31.47 4.97 39.24 6.64 44.88 11.19 C 50.27 15.45 53.71 22.08 53.96 28.96 C 54.31 35.84 51.44 42.78 46.40 47.47 C 41.27 52.37 33.87 54.75 26.84 53.77 C 19.02 52.80 11.90 47.64 8.47 40.56 C 5.32 34.24 5.20 26.51 8.15 20.10 C 11.14 13.43 17.33 8.33 24.44 6.66 M 15.85 15.86 C 9.23 22.23 8.11 33.29 13.23 40.90 C 16.80 46.60 23.35 49.85 29.98 50.13 C 30.01 36.71 30.01 23.29 29.98 9.88 C 24.77 10.20 19.51 12.02 15.85 15.86 Z" />
</g>
</svg>
