<?xml version="1.0" encoding="UTF-8" ?>
<!DOCTYPE svg PUBLIC "-//W3C//DTD SVG 1.1//EN" "http://www.w3.org/Graphics/SVG/1.1/DTD/svg11.dtd">
<svg width="64pt" height="64pt" viewBox="0 0 64 64" version="1.1" xmlns="http://www.w3.org/2000/svg">
<g id="#ffffffff">
<path fill="#ffffff" opacity="1.00" d=" M 0.00 0.00 L 64.00 0.00 L 64.00 64.00 L 0.00 64.00 L 0.00 0.00 M 26.48 8.66 C 18.89 10.44 12.36 16.14 9.61 23.43 C 7.03 30.00 7.62 37.71 11.15 43.81 C 14.95 50.56 22.18 55.25 29.91 55.89 C 37.32 56.60 44.93 53.53 49.86 47.96 C 55.59 41.67 57.54 32.23 54.67 24.21 C 50.98 12.87 38.07 5.62 26.48 8.66 Z" />
<path fill="#ffffff" opacity="1.00" d=" M 14.13 23.06 C 17.39 16.36 24.58 12.03 31.99 11.93 C 32.02 18.62 31.99 25.32 32.00 32.01 C 26.17 35.30 20.47 38.80 14.57 41.97 C 11.50 36.18 11.04 28.94 14.13 23.06 Z" />
</g>
<g id="#000000ff">
<path fill="#000000" opacity="1.00" d=" M 26.48 8.66 C 38.07 5.62 50.98 12.87 54.67 24.21 C 57.54 32.23 55.59 41.67 49.86 47.96 C 44.93 53.53 37.32 56.60 29.91 55.89 C 22.18 55.25 14.95 50.56 11.15 43.81 C 7.62 37.71 7.03 30.00 9.61 23.43 C 12.36 16.14 18.89 10.44 26.48 8.66 M 14.13 23.06 C 11.04 28.94 11.50 36.18 14.57 41.97 C 20.47 38.80 26.17 35.30 32.00 32.01 C 31.99 25.32 32.02 18.62 31.99 11.93 C 24.58 12.03 17.39 16.36 14.13 23.06 Z" />
</g>
</svg>
