<?xml version="1.0" encoding="UTF-8" ?>
<!DOCTYPE svg PUBLIC "-//W3C//DTD SVG 1.1//EN" "http://www.w3.org/Graphics/SVG/1.1/DTD/svg11.dtd">
<svg width="60pt" height="60pt" viewBox="0 0 60 60" version="1.1" xmlns="http://www.w3.org/2000/svg">
<g id="#ffffffff">
<path fill="#ffffff" opacity="1.00" d=" M 0.00 0.00 L 60.00 0.00 L 60.00 60.00 L 0.00 60.00 L 0.00 0.00 M 24.46 6.65 C 17.60 8.26 11.58 13.06 8.48 19.39 C 5.31 25.73 5.19 33.49 8.17 39.93 C 11.37 47.05 18.26 52.38 25.97 53.64 C 32.56 54.79 39.60 53.01 44.82 48.83 C 50.80 44.17 54.35 36.56 53.96 28.98 C 53.72 22.08 50.25 15.41 44.82 11.15 C 39.20 6.63 31.46 4.98 24.46 6.65 Z" />
<path fill="#ffffff" opacity="1.00" d=" M 9.89 29.98 C 9.87 19.23 19.23 9.87 29.98 9.89 C 30.02 16.59 29.99 23.30 30.00 30.00 C 23.30 29.99 16.59 30.02 9.89 29.98 Z" />
</g>
<g id="#000000ff">
<path fill="#000000" opacity="1.00" d=" M 24.46 6.65 C 31.46 4.98 39.20 6.63 44.82 11.15 C 50.25 15.41 53.72 22.08 53.96 28.98 C 54.35 36.56 50.80 44.17 44.82 48.83 C 39.60 53.01 32.56 54.79 25.97 53.64 C 18.26 52.38 11.37 47.05 8.17 39.93 C 5.19 33.49 5.31 25.73 8.48 19.39 C 11.58 13.06 17.60 8.26 24.46 6.65 M 9.89 29.98 C 16.59 30.02 23.30 29.99 30.00 30.00 C 29.99 23.30 30.02 16.59 29.98 9.89 C 19.23 9.87 9.87 19.23 9.89 29.98 Z" />
</g>
</svg>
