<?xml version="1.0" encoding="UTF-8" ?>
<!DOCTYPE svg PUBLIC "-//W3C//DTD SVG 1.1//EN" "http://www.w3.org/Graphics/SVG/1.1/DTD/svg11.dtd">
<svg width="60pt" height="60pt" viewBox="0 0 60 60" version="1.1" xmlns="http://www.w3.org/2000/svg">
<g id="#ffffffff">
<path fill="#ffffff" opacity="1.00" d=" M 0.00 0.00 L 60.00 0.00 L 60.00 60.00 L 0.00 60.00 L 0.00 0.00 M 10.31 8.41 C 8.58 9.15 7.87 11.11 8.00 12.88 C 8.04 24.61 7.92 36.34 8.05 48.07 C 7.93 50.63 10.55 52.29 12.90 52.00 C 24.62 51.96 36.35 52.08 48.07 51.94 C 50.60 52.01 52.31 49.45 52.00 47.09 C 52.01 35.70 52.00 24.32 52.00 12.93 C 52.29 10.58 50.65 7.93 48.08 8.06 C 37.08 7.89 26.06 8.09 15.05 7.97 C 13.47 8.06 11.80 7.80 10.31 8.41 Z" />
<path fill="#ffffff" opacity="1.00" d=" M 22.48 25.70 C 23.02 19.03 32.96 17.50 36.30 22.70 C 37.90 25.40 36.07 28.76 33.21 29.55 C 36.21 30.03 38.59 32.98 37.38 36.03 C 34.72 42.57 23.00 41.60 22.10 34.23 C 23.40 34.25 24.71 34.25 26.02 34.22 C 27.05 37.33 31.82 37.98 33.35 34.98 C 34.22 31.36 29.87 31.15 27.44 31.21 C 27.43 30.49 27.41 29.05 27.40 28.33 C 28.83 28.15 30.34 28.29 31.70 27.73 C 33.69 26.72 33.20 23.39 30.95 23.07 C 28.80 22.30 27.03 23.89 26.21 25.72 C 25.28 25.72 23.41 25.71 22.48 25.70 Z" />
</g>
<g id="#000000ff">
<path fill="#000000" opacity="1.00" d=" M 10.31 8.41 C 11.80 7.80 13.47 8.06 15.05 7.97 C 26.06 8.09 37.08 7.89 48.08 8.06 C 50.65 7.93 52.29 10.58 52.00 12.93 C 52.00 24.32 52.01 35.70 52.00 47.09 C 52.31 49.45 50.60 52.01 48.07 51.94 C 36.35 52.08 24.62 51.96 12.90 52.00 C 10.55 52.29 7.93 50.63 8.05 48.07 C 7.92 36.34 8.04 24.61 8.00 12.88 C 7.87 11.11 8.58 9.15 10.31 8.41 M 22.48 25.70 C 23.41 25.71 25.28 25.72 26.21 25.72 C 27.03 23.89 28.80 22.30 30.95 23.07 C 33.20 23.39 33.69 26.72 31.70 27.73 C 30.34 28.29 28.83 28.15 27.40 28.33 C 27.41 29.05 27.43 30.49 27.44 31.21 C 29.87 31.15 34.22 31.36 33.35 34.98 C 31.82 37.98 27.05 37.33 26.02 34.22 C 24.71 34.25 23.40 34.25 22.10 34.23 C 23.00 41.60 34.72 42.57 37.38 36.03 C 38.59 32.98 36.21 30.03 33.21 29.55 C 36.07 28.76 37.90 25.40 36.30 22.70 C 32.96 17.50 23.02 19.03 22.48 25.70 Z" />
</g>
</svg>
