<?xml version="1.0" encoding="UTF-8" ?>
<!DOCTYPE svg PUBLIC "-//W3C//DTD SVG 1.1//EN" "http://www.w3.org/Graphics/SVG/1.1/DTD/svg11.dtd">
<svg width="60pt" height="60pt" viewBox="0 0 60 60" version="1.1" xmlns="http://www.w3.org/2000/svg">
<g id="#ffffffff">
<path fill="#ffffff" opacity="1.00" d=" M 0.00 0.00 L 60.00 0.00 L 60.00 60.00 L 0.00 60.00 L 0.00 0.00 M 24.50 6.64 C 17.61 8.25 11.56 13.06 8.47 19.42 C 5.19 25.98 5.20 34.06 8.49 40.61 C 11.94 47.67 19.04 52.80 26.85 53.77 C 33.66 54.72 40.82 52.51 45.93 47.91 C 51.51 42.99 54.60 35.37 53.89 27.94 C 53.39 21.67 50.25 15.69 45.44 11.66 C 39.78 6.78 31.75 4.92 24.50 6.64 Z" />
<path fill="#ffffff" opacity="1.00" d=" M 19.99 12.60 C 23.11 11.04 26.50 10.08 29.99 9.93 C 30.01 16.62 30.00 23.30 29.99 29.99 C 26.68 24.18 23.27 18.43 19.99 12.60 Z" />
</g>
<g id="#000000ff">
<path fill="#000000" opacity="1.00" d=" M 24.50 6.64 C 31.75 4.92 39.78 6.78 45.44 11.66 C 50.25 15.69 53.39 21.67 53.89 27.94 C 54.60 35.37 51.51 42.99 45.93 47.91 C 40.82 52.51 33.66 54.72 26.85 53.77 C 19.04 52.80 11.94 47.67 8.49 40.61 C 5.20 34.06 5.19 25.98 8.47 19.42 C 11.56 13.06 17.61 8.25 24.50 6.64 M 19.99 12.60 C 23.27 18.43 26.68 24.18 29.99 29.99 C 30.00 23.30 30.01 16.62 29.99 9.93 C 26.50 10.08 23.11 11.04 19.99 12.60 Z" />
</g>
</svg>
