<?xml version="1.0" encoding="UTF-8" ?>
<!DOCTYPE svg PUBLIC "-//W3C//DTD SVG 1.1//EN" "http://www.w3.org/Graphics/SVG/1.1/DTD/svg11.dtd">
<svg width="64pt" height="64pt" viewBox="0 0 64 64" version="1.1" xmlns="http://www.w3.org/2000/svg">
<g id="#ffffffff">
<path fill="#ffffff" opacity="1.00" d=" M 0.00 0.00 L 64.00 0.00 L 64.00 64.00 L 0.00 64.00 L 0.00 0.00 M 26.50 8.65 C 19.38 10.33 13.17 15.44 10.16 22.11 C 7.19 28.54 7.32 36.29 10.51 42.61 C 14.13 50.01 21.78 55.26 30.01 55.89 C 37.90 56.63 45.98 53.05 50.83 46.80 C 55.85 40.53 57.37 31.67 54.63 24.12 C 50.92 12.83 38.05 5.64 26.50 8.65 Z" />
<path fill="#ffffff" opacity="1.00" d=" M 21.99 14.61 C 25.10 13.02 28.49 12.09 31.99 11.93 C 32.01 18.62 32.00 25.31 31.99 31.99 C 28.67 26.19 25.28 20.43 21.99 14.61 Z" />
</g>
<g id="#000000ff">
<path fill="#000000" opacity="1.00" d=" M 26.50 8.65 C 38.05 5.64 50.92 12.83 54.63 24.12 C 57.37 31.67 55.85 40.53 50.83 46.80 C 45.98 53.05 37.90 56.63 30.01 55.89 C 21.78 55.26 14.13 50.01 10.51 42.61 C 7.32 36.29 7.19 28.54 10.16 22.11 C 13.17 15.44 19.38 10.33 26.50 8.65 M 21.99 14.61 C 25.28 20.43 28.67 26.19 31.99 31.99 C 32.00 25.31 32.01 18.62 31.99 11.93 C 28.49 12.09 25.10 13.02 21.99 14.61 Z" />
</g>
</svg>
