<?xml version="1.0" encoding="UTF-8" ?>
<!DOCTYPE svg PUBLIC "-//W3C//DTD SVG 1.1//EN" "http://www.w3.org/Graphics/SVG/1.1/DTD/svg11.dtd">
<svg width="60pt" height="60pt" viewBox="0 0 60 60" version="1.1" xmlns="http://www.w3.org/2000/svg">
<g id="#ffffffff">
<path fill="#ffffff" opacity="1.00" d=" M 0.00 0.00 L 60.00 0.00 L 60.00 60.00 L 0.00 60.00 L 0.00 0.00 M 14.53 11.49 C 10.98 14.95 7.53 18.51 4.00 22.00 C 7.33 22.00 10.66 22.00 14.00 22.00 C 15.53 19.70 17.09 17.41 18.58 15.08 C 19.47 16.58 20.05 18.33 21.36 19.51 C 23.50 21.09 26.76 18.68 25.85 16.17 C 24.81 14.06 23.59 11.85 21.66 10.44 C 19.36 9.66 16.30 9.54 14.53 11.49 M 34.18 16.14 C 33.17 18.64 36.50 21.11 38.63 19.50 C 39.97 18.35 40.51 16.56 41.41 15.09 C 42.91 17.42 44.49 19.70 46.03 22.00 C 49.36 22.01 52.70 22.00 56.03 21.99 C 52.46 18.53 49.04 14.91 45.46 11.47 C 44.32 10.20 42.60 9.81 40.95 9.96 C 37.30 9.61 35.60 13.47 34.18 16.14 M 3.09 26.17 C 2.86 26.41 2.40 26.89 2.17 27.12 C 1.87 34.35 1.89 41.63 2.17 48.86 C 2.41 49.10 2.90 49.59 3.15 49.83 C 9.47 50.16 15.83 50.04 22.16 49.90 C 25.95 49.68 25.97 43.70 30.03 43.95 C 34.07 43.76 34.08 49.76 37.92 49.91 C 44.22 50.02 50.56 50.17 56.86 49.83 C 57.11 49.59 57.59 49.10 57.83 48.86 C 58.12 41.63 58.12 34.36 57.83 27.13 C 57.58 26.89 57.08 26.40 56.83 26.16 C 49.29 25.80 41.72 26.05 34.17 26.05 C 31.87 28.52 28.12 28.53 25.82 26.05 C 18.24 26.06 10.65 25.78 3.09 26.17 Z" />
<path fill="#ffffff" opacity="1.00" d=" M 6.00 30.00 C 10.66 30.02 15.33 29.98 19.99 29.99 C 22.21 29.78 24.11 31.03 26.01 31.97 C 24.01 36.65 22.00 41.32 20.00 46.00 C 15.33 46.00 10.67 46.00 6.00 46.00 C 6.00 40.67 6.00 35.33 6.00 30.00 Z" />
<path fill="#ffffff" opacity="1.00" d=" M 34.00 32.00 C 35.88 31.09 37.75 29.81 39.94 29.99 C 44.63 29.97 49.32 30.02 54.00 30.00 C 54.00 35.33 54.00 40.67 54.00 46.00 C 49.33 46.00 44.66 46.00 40.00 46.00 C 38.00 41.33 36.01 36.66 34.00 32.00 Z" />
</g>
<g id="#000000ff">
<path fill="#000000" opacity="1.00" d=" M 14.53 11.49 C 16.30 9.54 19.36 9.66 21.66 10.44 C 23.59 11.85 24.81 14.06 25.85 16.17 C 26.76 18.68 23.50 21.09 21.36 19.51 C 20.05 18.33 19.47 16.58 18.58 15.08 C 17.09 17.41 15.53 19.70 14.00 22.00 C 10.66 22.00 7.33 22.00 4.00 22.00 C 7.53 18.51 10.98 14.95 14.53 11.49 Z" />
<path fill="#000000" opacity="1.00" d=" M 34.18 16.14 C 35.60 13.47 37.30 9.61 40.95 9.96 C 42.60 9.81 44.32 10.20 45.46 11.47 C 49.04 14.91 52.46 18.53 56.03 21.99 C 52.70 22.00 49.36 22.01 46.03 22.00 C 44.49 19.70 42.91 17.42 41.41 15.09 C 40.51 16.56 39.97 18.35 38.63 19.50 C 36.50 21.11 33.17 18.64 34.18 16.14 Z" />
<path fill="#000000" opacity="1.00" d=" M 3.09 26.17 C 10.65 25.78 18.24 26.06 25.82 26.05 C 28.12 28.53 31.87 28.52 34.17 26.05 C 41.72 26.05 49.29 25.80 56.83 26.16 C 57.08 26.40 57.58 26.89 57.83 27.13 C 58.12 34.36 58.12 41.63 57.83 48.86 C 57.59 49.10 57.11 49.59 56.86 49.83 C 50.56 50.17 44.22 50.02 37.92 49.91 C 34.08 49.76 34.07 43.76 30.03 43.95 C 25.97 43.70 25.95 49.68 22.16 49.90 C 15.83 50.04 9.47 50.16 3.15 49.83 C 2.90 49.59 2.41 49.10 2.17 48.86 C 1.89 41.63 1.87 34.35 2.17 27.12 C 2.40 26.89 2.86 26.41 3.09 26.17 M 6.00 30.00 C 6.00 35.33 6.00 40.67 6.00 46.00 C 10.67 46.00 15.33 46.00 20.00 46.00 C 22.00 41.32 24.01 36.65 26.01 31.97 C 24.11 31.03 22.21 29.78 19.99 29.99 C 15.33 29.98 10.66 30.02 6.00 30.00 M 34.00 32.00 C 36.01 36.66 38.00 41.33 40.00 46.00 C 44.66 46.00 49.33 46.00 54.00 46.00 C 54.00 40.67 54.00 35.33 54.00 30.00 C 49.32 30.02 44.63 29.97 39.94 29.99 C 37.75 29.81 35.88 31.09 34.00 32.00 Z" />
</g>
</svg>
