<?xml version="1.0" encoding="UTF-8" ?>
<!DOCTYPE svg PUBLIC "-//W3C//DTD SVG 1.1//EN" "http://www.w3.org/Graphics/SVG/1.1/DTD/svg11.dtd">
<svg width="64pt" height="64pt" viewBox="0 0 64 64" version="1.1" xmlns="http://www.w3.org/2000/svg">
<g id="#ffffffff">
<path fill="#ffffff" opacity="1.00" d=" M 0.00 0.00 L 64.00 0.00 L 64.00 64.00 L 0.00 64.00 L 0.00 0.00 M 26.48 8.65 C 19.60 10.26 13.56 15.07 10.47 21.43 C 7.19 27.99 7.21 36.06 10.49 42.62 C 13.95 49.69 21.07 54.82 28.89 55.78 C 35.47 56.67 42.40 54.65 47.45 50.32 C 53.05 45.64 56.32 38.31 55.96 31.01 C 55.73 24.34 52.50 17.87 47.38 13.61 C 41.73 8.76 33.71 6.92 26.48 8.65 Z" />
<path fill="#ffffff" opacity="1.00" d=" M 29.15 12.20 C 35.30 11.30 41.81 13.43 46.16 17.88 C 50.89 22.53 52.97 29.64 51.56 36.12 C 50.06 43.72 43.73 50.06 36.13 51.55 C 29.41 53.04 22.01 50.71 17.36 45.63 C 12.51 40.53 10.77 32.76 12.91 26.06 C 15.05 18.81 21.67 13.18 29.15 12.20 M 15.84 28.99 C 17.15 29.00 18.46 29.00 19.77 29.00 C 20.12 27.88 20.27 25.83 21.96 26.04 C 24.14 25.91 28.70 25.27 27.89 28.82 C 26.62 30.78 23.93 29.71 22.00 30.04 C 22.00 31.35 22.00 32.66 22.00 33.96 C 23.63 33.99 25.27 33.94 26.90 34.15 C 28.77 34.90 28.09 38.10 26.06 37.95 C 23.57 38.18 19.66 38.64 19.77 35.00 C 18.46 35.00 17.15 35.00 15.84 35.01 C 15.85 38.05 17.58 41.35 20.83 41.85 C 24.31 42.16 28.95 42.68 31.06 39.17 C 32.81 36.68 31.79 33.57 30.21 31.30 C 30.67 30.88 31.60 30.04 32.06 29.62 C 31.97 27.59 31.89 25.30 30.27 23.82 C 27.87 21.31 24.03 21.97 20.91 22.13 C 17.62 22.58 15.84 25.92 15.84 28.99 M 34.00 22.00 C 34.00 28.67 34.00 35.33 34.00 42.00 C 38.73 42.22 45.07 42.57 47.26 37.29 C 48.51 32.94 48.90 27.04 45.04 23.83 C 41.98 21.21 37.69 22.16 34.00 22.00 Z" />
<path fill="#ffffff" opacity="1.00" d=" M 38.01 25.89 C 40.07 25.96 42.75 26.03 43.63 28.32 C 44.24 30.68 44.24 33.31 43.63 35.67 C 42.75 37.96 40.07 38.03 38.01 38.11 C 38.00 34.04 38.00 29.96 38.01 25.89 Z" />
</g>
<g id="#000000ff">
<path fill="#000000" opacity="1.00" d=" M 26.48 8.65 C 33.71 6.92 41.73 8.76 47.38 13.61 C 52.50 17.87 55.73 24.34 55.96 31.01 C 56.32 38.31 53.05 45.64 47.45 50.32 C 42.40 54.65 35.47 56.67 28.89 55.78 C 21.07 54.82 13.95 49.69 10.49 42.62 C 7.21 36.06 7.19 27.99 10.47 21.43 C 13.56 15.07 19.60 10.26 26.48 8.65 M 29.15 12.20 C 21.67 13.18 15.05 18.81 12.91 26.06 C 10.77 32.76 12.51 40.53 17.36 45.63 C 22.01 50.71 29.41 53.04 36.13 51.55 C 43.73 50.06 50.06 43.72 51.56 36.12 C 52.97 29.64 50.89 22.53 46.16 17.88 C 41.81 13.43 35.30 11.30 29.15 12.20 Z" />
<path fill="#000000" opacity="1.00" d=" M 15.84 28.99 C 15.84 25.92 17.62 22.58 20.91 22.13 C 24.03 21.97 27.87 21.31 30.27 23.82 C 31.89 25.30 31.97 27.59 32.06 29.62 C 31.60 30.04 30.67 30.88 30.21 31.30 C 31.79 33.57 32.81 36.68 31.06 39.17 C 28.95 42.68 24.31 42.16 20.83 41.85 C 17.58 41.35 15.85 38.05 15.84 35.01 C 17.15 35.00 18.46 35.00 19.77 35.00 C 19.66 38.64 23.57 38.18 26.06 37.95 C 28.09 38.10 28.77 34.90 26.90 34.15 C 25.27 33.94 23.63 33.99 22.00 33.96 C 22.00 32.66 22.00 31.35 22.00 30.04 C 23.93 29.71 26.62 30.78 27.89 28.82 C 28.70 25.27 24.14 25.91 21.96 26.04 C 20.27 25.83 20.12 27.88 19.77 29.00 C 18.46 29.00 17.15 29.00 15.84 28.99 Z" />
<path fill="#000000" opacity="1.00" d=" M 34.00 22.00 C 37.69 22.16 41.98 21.21 45.04 23.83 C 48.90 27.04 48.51 32.94 47.26 37.29 C 45.07 42.57 38.73 42.22 34.00 42.00 C 34.00 35.33 34.00 28.67 34.00 22.00 M 38.01 25.89 C 38.00 29.96 38.00 34.04 38.01 38.11 C 40.07 38.03 42.75 37.96 43.63 35.67 C 44.24 33.31 44.24 30.68 43.63 28.32 C 42.75 26.03 40.07 25.96 38.01 25.89 Z" />
</g>
</svg>
