<?xml version="1.0" encoding="UTF-8" ?>
<!DOCTYPE svg PUBLIC "-//W3C//DTD SVG 1.1//EN" "http://www.w3.org/Graphics/SVG/1.1/DTD/svg11.dtd">
<svg width="64pt" height="64pt" viewBox="0 0 64 64" version="1.1" xmlns="http://www.w3.org/2000/svg">
<g id="#ffffffff">
<path fill="#ffffff" opacity="1.00" d=" M 0.00 0.00 L 64.00 0.00 L 64.00 64.00 L 0.00 64.00 L 0.00 0.00 M 10.00 10.00 C 10.00 24.67 10.00 39.33 10.00 54.00 C 24.67 54.00 39.33 54.00 54.00 54.00 C 54.00 39.33 54.00 24.67 54.00 10.00 C 39.33 10.00 24.67 10.00 10.00 10.00 Z" />
<path fill="#ffffff" opacity="1.00" d=" M 14.00 14.00 C 26.00 14.00 38.00 14.00 50.00 14.00 C 50.00 26.00 50.00 38.00 50.00 50.00 C 38.00 50.00 26.00 50.00 14.00 50.00 C 14.00 38.00 14.00 26.00 14.00 14.00 M 33.09 21.99 C 30.12 25.75 26.93 29.36 24.15 33.27 C 23.93 34.83 23.99 36.41 23.95 37.98 C 27.27 38.00 30.59 38.01 33.92 37.99 C 33.97 39.33 34.03 40.67 34.09 42.01 C 35.32 42.01 36.55 42.00 37.78 42.00 C 37.99 40.23 37.84 38.11 39.86 37.35 C 40.41 35.62 40.16 33.75 37.99 33.52 C 38.03 29.68 37.98 25.84 37.99 22.00 C 36.36 22.00 34.72 22.00 33.09 21.99 Z" />
<path fill="#ffffff" opacity="1.00" d=" M 28.63 33.97 C 30.36 31.72 32.13 29.51 33.97 27.35 C 34.00 29.57 34.00 31.79 34.01 34.01 C 32.22 34.00 30.43 33.99 28.63 33.97 Z" />
</g>
<g id="#000000ff">
<path fill="#000000" opacity="1.00" d=" M 10.00 10.00 C 24.67 10.00 39.33 10.00 54.00 10.00 C 54.00 24.67 54.00 39.33 54.00 54.00 C 39.33 54.00 24.67 54.00 10.00 54.00 C 10.00 39.33 10.00 24.67 10.00 10.00 M 14.00 14.00 C 14.00 26.00 14.00 38.00 14.00 50.00 C 26.00 50.00 38.00 50.00 50.00 50.00 C 50.00 38.00 50.00 26.00 50.00 14.00 C 38.00 14.00 26.00 14.00 14.00 14.00 Z" />
<path fill="#000000" opacity="1.00" d=" M 33.09 21.99 C 34.72 22.00 36.36 22.00 37.99 22.00 C 37.98 25.84 38.03 29.68 37.99 33.52 C 40.16 33.75 40.41 35.62 39.86 37.35 C 37.84 38.11 37.99 40.23 37.78 42.00 C 36.55 42.00 35.32 42.01 34.09 42.01 C 34.03 40.67 33.97 39.33 33.92 37.99 C 30.59 38.01 27.27 38.00 23.95 37.98 C 23.99 36.41 23.93 34.83 24.15 33.27 C 26.93 29.36 30.12 25.75 33.09 21.99 M 28.63 33.97 C 30.43 33.99 32.22 34.00 34.01 34.01 C 34.00 31.79 34.00 29.57 33.97 27.35 C 32.13 29.51 30.36 31.72 28.63 33.97 Z" />
</g>
</svg>
