<?xml version="1.0" encoding="UTF-8" ?>
<!DOCTYPE svg PUBLIC "-//W3C//DTD SVG 1.1//EN" "http://www.w3.org/Graphics/SVG/1.1/DTD/svg11.dtd">
<svg width="60pt" height="60pt" viewBox="0 0 60 60" version="1.1" xmlns="http://www.w3.org/2000/svg">
<g id="#ffffffff">
<path fill="#ffffff" opacity="1.00" d=" M 0.00 0.00 L 60.00 0.00 L 60.00 60.00 L 0.00 60.00 L 0.00 0.00 M 10.32 8.40 C 8.60 9.18 7.77 11.12 8.00 12.93 C 8.02 24.64 7.95 36.35 8.03 48.06 C 7.92 50.16 9.90 52.01 11.96 51.97 C 24.00 52.02 36.06 52.03 48.10 51.96 C 50.54 52.00 52.35 49.47 52.00 47.15 C 51.98 35.40 52.05 23.65 51.96 11.91 C 51.98 9.87 50.13 7.92 48.05 8.03 C 37.03 7.94 26.00 8.05 14.98 7.99 C 13.44 8.11 11.75 7.71 10.32 8.40 Z" />
<path fill="#ffffff" opacity="1.00" d=" M 20.98 32.86 C 23.19 28.38 26.05 24.27 28.78 20.10 C 30.69 20.13 32.59 20.13 34.50 20.14 C 34.50 24.41 34.52 28.68 34.48 32.94 C 35.13 32.97 36.43 33.01 37.09 33.03 C 37.08 33.87 37.08 35.55 37.08 36.39 C 36.44 36.40 35.15 36.41 34.50 36.41 C 34.50 37.56 34.50 38.72 34.50 39.87 C 33.18 39.87 31.87 39.86 30.56 39.86 C 30.56 38.99 30.56 37.27 30.57 36.41 C 27.34 36.40 24.11 36.40 20.88 36.40 C 20.91 35.51 20.96 33.74 20.98 32.86 M 24.51 33.12 C 26.56 33.14 28.62 33.14 30.68 33.09 C 30.64 29.76 30.67 26.43 30.65 23.10 C 28.42 26.32 26.41 29.70 24.51 33.12 Z" />
</g>
<g id="#000000ff">
<path fill="#968176" opacity="1.00" d=" M 10.32 8.40 C 11.75 7.71 13.44 8.11 14.98 7.99 C 26.00 8.05 37.03 7.94 48.05 8.03 C 50.13 7.92 51.98 9.87 51.96 11.91 C 52.05 23.65 51.98 35.40 52.00 47.15 C 52.35 49.47 50.54 52.00 48.10 51.96 C 36.06 52.03 24.00 52.02 11.96 51.97 C 9.90 52.01 7.92 50.16 8.03 48.06 C 7.95 36.35 8.02 24.64 8.00 12.93 C 7.77 11.12 8.60 9.18 10.32 8.40 M 20.98 32.86 C 20.96 33.74 20.91 35.51 20.88 36.40 C 24.11 36.40 27.34 36.40 30.57 36.41 C 30.56 37.27 30.56 38.99 30.56 39.86 C 31.87 39.86 33.18 39.87 34.50 39.87 C 34.50 38.72 34.50 37.56 34.50 36.41 C 35.15 36.41 36.44 36.40 37.08 36.39 C 37.08 35.55 37.08 33.87 37.09 33.03 C 36.43 33.01 35.13 32.97 34.48 32.94 C 34.52 28.68 34.50 24.41 34.50 20.14 C 32.59 20.13 30.69 20.13 28.78 20.10 C 26.05 24.27 23.19 28.38 20.98 32.86 Z" />
<path fill="#968176" opacity="1.00" d=" M 24.51 33.12 C 26.41 29.70 28.42 26.32 30.65 23.10 C 30.67 26.43 30.64 29.76 30.68 33.09 C 28.62 33.14 26.56 33.14 24.51 33.12 Z" />
</g>
</svg>
