<?xml version="1.0" encoding="UTF-8" ?>
<!DOCTYPE svg PUBLIC "-//W3C//DTD SVG 1.1//EN" "http://www.w3.org/Graphics/SVG/1.1/DTD/svg11.dtd">
<svg width="64pt" height="64pt" viewBox="0 0 64 64" version="1.1" xmlns="http://www.w3.org/2000/svg">
<g id="#ffffffff">
<path fill="#ffffff" opacity="1.00" d=" M 0.00 0.00 L 64.00 0.00 L 64.00 64.00 L 0.00 64.00 L 0.00 0.00 M 26.44 8.67 C 18.61 10.52 11.93 16.55 9.34 24.17 C 6.72 31.49 8.06 40.04 12.74 46.24 C 17.79 53.14 26.71 57.02 35.20 55.76 C 44.56 54.61 52.75 47.36 55.14 38.25 C 57.44 30.14 54.94 20.96 48.94 15.07 C 43.21 9.23 34.38 6.69 26.44 8.67 Z" />
<path fill="#ffffff" opacity="1.00" d=" M 17.84 17.92 C 21.52 14.10 26.74 12.13 31.99 11.91 C 32.02 18.61 31.99 25.30 32.00 32.00 C 37.80 28.66 43.59 25.30 49.40 21.99 C 51.61 26.30 52.64 31.31 51.56 36.10 C 49.98 44.04 43.12 50.58 35.10 51.74 C 26.48 53.27 17.33 48.25 13.81 40.27 C 10.32 32.94 12.03 23.59 17.84 17.92 Z" />
</g>
<g id="#000000ff">
<path fill="#000000" opacity="1.00" d=" M 26.44 8.67 C 34.38 6.69 43.21 9.23 48.94 15.07 C 54.94 20.96 57.44 30.14 55.14 38.25 C 52.75 47.36 44.56 54.61 35.20 55.76 C 26.71 57.02 17.79 53.14 12.74 46.24 C 8.06 40.04 6.72 31.49 9.34 24.17 C 11.93 16.55 18.61 10.52 26.44 8.67 M 17.84 17.92 C 12.03 23.59 10.32 32.94 13.81 40.27 C 17.33 48.25 26.48 53.27 35.10 51.74 C 43.12 50.58 49.98 44.04 51.56 36.10 C 52.64 31.31 51.61 26.30 49.40 21.99 C 43.59 25.30 37.80 28.66 32.00 32.00 C 31.99 25.30 32.02 18.61 31.99 11.91 C 26.74 12.13 21.52 14.10 17.84 17.92 Z" />
</g>
</svg>
