<?xml version="1.0" encoding="UTF-8" ?>
<!DOCTYPE svg PUBLIC "-//W3C//DTD SVG 1.1//EN" "http://www.w3.org/Graphics/SVG/1.1/DTD/svg11.dtd">
<svg width="60pt" height="60pt" viewBox="0 0 60 60" version="1.1" xmlns="http://www.w3.org/2000/svg">
<g id="#ffffffff">
<path fill="#ffffff" opacity="1.00" d=" M 0.00 0.00 L 60.00 0.00 L 60.00 60.00 L 0.00 60.00 L 0.00 0.00 M 11.53 10.60 C 8.79 14.88 8.92 21.67 13.15 24.96 C 17.49 28.17 25.29 24.90 24.19 19.00 C 23.70 13.80 16.45 12.56 13.67 16.71 C 14.20 14.86 14.14 12.18 16.32 11.39 C 17.81 10.69 18.99 11.99 20.09 12.75 C 21.50 12.77 22.91 12.77 24.32 12.76 C 22.74 7.34 14.78 6.01 11.53 10.60 M 31.42 8.72 C 27.04 11.54 26.94 17.98 28.77 22.34 C 30.69 26.89 37.72 27.53 40.51 23.51 C 42.81 20.07 42.83 15.35 41.22 11.62 C 39.63 7.99 34.74 6.78 31.42 8.72 M 46.18 15.19 C 44.34 17.01 45.48 20.51 48.12 20.75 C 49.38 21.52 52.04 21.24 52.12 23.14 C 49.81 24.92 47.17 22.30 44.64 22.54 C 45.76 27.23 53.81 27.62 54.95 22.88 C 55.45 18.91 50.41 18.81 47.73 17.91 C 49.14 14.43 52.62 17.64 55.12 17.44 C 54.14 13.54 48.89 12.69 46.18 15.19 M 5.89 30.01 C 6.11 37.98 10.12 45.82 16.94 50.11 C 25.66 55.99 38.22 55.05 45.95 47.91 C 51.10 43.45 53.84 36.75 54.11 30.01 C 49.47 30.00 44.83 30.00 40.18 30.00 C 39.79 35.26 35.50 40.14 29.99 39.97 C 24.49 40.13 20.19 35.26 19.82 30.00 C 15.17 30.00 10.53 30.00 5.89 30.01 M 27.57 30.07 C 28.75 32.42 31.24 32.39 32.43 30.07 C 30.81 30.03 29.19 30.03 27.57 30.07 Z" />
<path fill="#ffffff" opacity="1.00" d=" M 34.23 11.29 C 36.47 10.61 37.54 13.20 37.68 14.99 C 37.86 17.57 38.12 21.00 35.74 22.70 C 33.54 23.37 32.50 20.79 32.35 19.04 C 32.16 16.46 31.84 13.02 34.23 11.29 Z" />
<path fill="#ffffff" opacity="1.00" d=" M 15.25 18.15 C 17.75 15.37 21.94 19.80 19.05 22.10 C 16.65 24.39 12.79 20.51 15.25 18.15 Z" />
</g>
<g id="#000000ff">
<path fill="#000000" opacity="1.00" d=" M 11.53 10.60 C 14.78 6.01 22.74 7.34 24.32 12.76 C 22.91 12.77 21.50 12.77 20.09 12.75 C 18.99 11.99 17.81 10.69 16.32 11.39 C 14.14 12.18 14.20 14.86 13.67 16.71 C 16.45 12.56 23.70 13.80 24.19 19.00 C 25.29 24.90 17.49 28.17 13.15 24.96 C 8.92 21.67 8.79 14.88 11.53 10.60 M 15.25 18.15 C 12.79 20.51 16.65 24.39 19.05 22.10 C 21.94 19.80 17.75 15.37 15.25 18.15 Z" />
<path fill="#000000" opacity="1.00" d=" M 31.42 8.72 C 34.74 6.78 39.63 7.99 41.22 11.62 C 42.83 15.35 42.81 20.07 40.51 23.51 C 37.72 27.53 30.69 26.89 28.77 22.34 C 26.94 17.98 27.04 11.54 31.42 8.72 M 34.23 11.29 C 31.84 13.02 32.16 16.46 32.35 19.04 C 32.50 20.79 33.54 23.37 35.74 22.70 C 38.12 21.00 37.86 17.57 37.68 14.99 C 37.54 13.20 36.47 10.61 34.23 11.29 Z" />
<path fill="#000000" opacity="1.00" d=" M 46.18 15.19 C 48.89 12.69 54.14 13.54 55.12 17.44 C 52.62 17.64 49.14 14.43 47.73 17.91 C 50.41 18.81 55.45 18.91 54.95 22.88 C 53.81 27.62 45.76 27.23 44.64 22.54 C 47.17 22.30 49.81 24.92 52.12 23.14 C 52.04 21.24 49.38 21.52 48.12 20.75 C 45.48 20.51 44.34 17.01 46.18 15.19 Z" />
<path fill="#000000" opacity="1.00" d=" M 5.89 30.01 C 10.53 30.00 15.17 30.00 19.82 30.00 C 20.19 35.26 24.49 40.13 29.99 39.97 C 35.50 40.14 39.79 35.26 40.18 30.00 C 44.83 30.00 49.47 30.00 54.11 30.01 C 53.84 36.75 51.10 43.45 45.95 47.91 C 38.22 55.05 25.66 55.99 16.94 50.11 C 10.12 45.82 6.11 37.98 5.89 30.01 Z" />
<path fill="#000000" opacity="1.00" d=" M 27.57 30.07 C 29.19 30.03 30.81 30.03 32.43 30.07 C 31.24 32.39 28.75 32.42 27.57 30.07 Z" />
</g>
</svg>
