<?xml version="1.0" encoding="UTF-8" ?>
<!DOCTYPE svg PUBLIC "-//W3C//DTD SVG 1.1//EN" "http://www.w3.org/Graphics/SVG/1.1/DTD/svg11.dtd">
<svg width="60pt" height="60pt" viewBox="0 0 60 60" version="1.1" xmlns="http://www.w3.org/2000/svg">
<g id="#ffffffff">
<path fill="#ffffff" opacity="1.00" d=" M 0.00 0.00 L 60.00 0.00 L 60.00 60.00 L 0.00 60.00 L 0.00 0.00 M 10.73 10.73 C 9.26 13.15 11.24 15.65 13.46 16.59 C 10.42 17.26 8.25 20.99 10.41 23.66 C 13.57 27.05 19.67 27.03 23.15 24.13 C 25.87 21.64 23.97 17.15 20.53 16.62 C 22.67 15.63 24.69 13.24 23.30 10.82 C 20.69 6.73 13.41 6.70 10.73 10.73 M 31.49 8.68 C 27.06 11.45 26.94 17.88 28.73 22.26 C 30.60 26.87 37.69 27.56 40.50 23.52 C 42.80 20.09 42.83 15.39 41.24 11.66 C 39.68 8.02 34.83 6.79 31.49 8.68 M 45.31 17.10 C 44.94 21.01 49.80 21.11 52.43 22.13 C 50.82 25.79 47.24 21.96 44.50 22.68 C 46.01 27.10 53.69 27.66 54.94 22.90 C 55.49 18.81 50.36 18.97 47.72 17.81 C 49.22 14.46 52.62 17.71 55.07 17.43 C 54.21 12.78 46.17 12.42 45.31 17.10 M 5.90 30.01 C 6.09 38.00 10.15 45.86 16.98 50.13 C 25.30 55.70 37.10 55.14 44.86 48.83 C 50.63 44.38 53.87 37.23 54.10 30.02 C 49.46 29.99 44.82 30.00 40.18 30.00 C 39.79 35.24 35.53 40.10 30.05 39.98 C 24.54 40.16 20.18 35.29 19.83 30.00 C 15.18 30.00 10.54 29.99 5.90 30.01 M 28.29 30.27 C 27.33 32.47 32.71 32.43 31.70 30.25 C 30.56 29.68 29.42 29.68 28.29 30.27 Z" />
<path fill="#ffffff" opacity="1.00" d=" M 15.37 11.42 C 16.38 10.41 18.52 10.63 19.07 12.08 C 20.35 13.77 17.75 16.01 16.09 14.99 C 14.52 14.64 14.01 12.42 15.37 11.42 Z" />
<path fill="#ffffff" opacity="1.00" d=" M 34.37 11.28 C 36.96 10.70 37.69 13.97 37.77 15.90 C 37.79 18.21 37.93 21.34 35.67 22.72 C 33.05 23.32 32.33 20.01 32.24 18.07 C 32.23 15.78 32.03 12.56 34.37 11.28 Z" />
<path fill="#ffffff" opacity="1.00" d=" M 15.46 18.61 C 18.01 16.79 21.55 20.59 18.76 22.57 C 16.10 24.84 12.15 20.41 15.46 18.61 Z" />
</g>
<g id="#000000ff">
<path fill="#000000" opacity="1.00" d=" M 10.73 10.73 C 13.41 6.70 20.69 6.73 23.30 10.82 C 24.69 13.24 22.67 15.63 20.53 16.62 C 23.97 17.15 25.87 21.64 23.15 24.13 C 19.67 27.03 13.57 27.05 10.41 23.66 C 8.25 20.99 10.42 17.26 13.46 16.59 C 11.24 15.65 9.26 13.15 10.73 10.73 M 15.37 11.42 C 14.01 12.42 14.52 14.64 16.09 14.99 C 17.75 16.01 20.35 13.77 19.07 12.08 C 18.52 10.63 16.38 10.41 15.37 11.42 M 15.46 18.61 C 12.15 20.41 16.10 24.84 18.76 22.57 C 21.55 20.59 18.01 16.79 15.46 18.61 Z" />
<path fill="#000000" opacity="1.00" d=" M 31.49 8.68 C 34.83 6.79 39.68 8.02 41.24 11.66 C 42.83 15.39 42.80 20.09 40.50 23.52 C 37.69 27.56 30.60 26.87 28.73 22.26 C 26.94 17.88 27.06 11.45 31.49 8.68 M 34.37 11.28 C 32.03 12.56 32.23 15.78 32.24 18.07 C 32.33 20.01 33.05 23.32 35.67 22.72 C 37.93 21.34 37.79 18.21 37.77 15.90 C 37.69 13.97 36.96 10.70 34.37 11.28 Z" />
<path fill="#000000" opacity="1.00" d=" M 45.31 17.10 C 46.17 12.42 54.21 12.78 55.07 17.43 C 52.62 17.71 49.22 14.46 47.72 17.81 C 50.36 18.97 55.49 18.81 54.94 22.90 C 53.69 27.66 46.01 27.10 44.50 22.68 C 47.24 21.96 50.82 25.79 52.43 22.13 C 49.80 21.11 44.94 21.01 45.31 17.10 Z" />
<path fill="#000000" opacity="1.00" d=" M 5.90 30.01 C 10.54 29.99 15.18 30.00 19.83 30.00 C 20.18 35.29 24.54 40.16 30.05 39.98 C 35.53 40.10 39.79 35.24 40.18 30.00 C 44.82 30.00 49.46 29.99 54.10 30.02 C 53.87 37.23 50.63 44.38 44.86 48.83 C 37.10 55.14 25.30 55.70 16.98 50.13 C 10.15 45.86 6.09 38.00 5.90 30.01 Z" />
<path fill="#000000" opacity="1.00" d=" M 28.29 30.27 C 29.42 29.68 30.56 29.68 31.70 30.25 C 32.71 32.43 27.33 32.47 28.29 30.27 Z" />
</g>
</svg>
