<?xml version="1.0" encoding="UTF-8" ?>
<!DOCTYPE svg PUBLIC "-//W3C//DTD SVG 1.1//EN" "http://www.w3.org/Graphics/SVG/1.1/DTD/svg11.dtd">
<svg width="60pt" height="60pt" viewBox="0 0 60 60" version="1.1" xmlns="http://www.w3.org/2000/svg">
<g id="#ffffffff">
<path fill="#ffffff" opacity="1.00" d=" M 0.00 0.00 L 60.00 0.00 L 60.00 60.00 L 0.00 60.00 L 0.00 0.00 M 24.46 6.65 C 17.36 8.31 11.16 13.40 8.17 20.06 C 4.99 26.92 5.36 35.28 9.14 41.83 C 12.77 48.28 19.53 52.87 26.89 53.78 C 33.70 54.71 40.85 52.50 45.95 47.89 C 51.27 43.18 54.33 36.02 53.95 28.91 C 53.70 22.03 50.23 15.40 44.83 11.15 C 39.20 6.64 31.46 4.98 24.46 6.65 Z" />
<path fill="#ffffff" opacity="1.00" d=" M 11.50 22.39 C 14.40 14.94 22.08 10.06 29.98 9.89 C 30.02 16.59 29.99 23.30 30.00 30.00 C 36.70 30.01 43.40 29.98 50.10 30.02 C 49.83 35.74 47.51 41.44 43.04 45.15 C 36.23 51.23 25.20 51.59 17.99 46.00 C 10.81 40.79 8.01 30.55 11.50 22.39 Z" />
</g>
<g id="#000000ff">
<path fill="#000000" opacity="1.00" d=" M 24.46 6.65 C 31.46 4.98 39.20 6.64 44.83 11.15 C 50.23 15.40 53.70 22.03 53.95 28.91 C 54.33 36.02 51.27 43.18 45.95 47.89 C 40.85 52.50 33.70 54.71 26.89 53.78 C 19.53 52.87 12.77 48.28 9.14 41.83 C 5.36 35.28 4.99 26.92 8.17 20.06 C 11.16 13.40 17.36 8.31 24.46 6.65 M 11.50 22.39 C 8.01 30.55 10.81 40.79 17.99 46.00 C 25.20 51.59 36.23 51.23 43.04 45.15 C 47.51 41.44 49.83 35.74 50.10 30.02 C 43.40 29.98 36.70 30.01 30.00 30.00 C 29.99 23.30 30.02 16.59 29.98 9.89 C 22.08 10.06 14.40 14.94 11.50 22.39 Z" />
</g>
</svg>
