<?xml version="1.0" encoding="UTF-8" ?>
<!DOCTYPE svg PUBLIC "-//W3C//DTD SVG 1.1//EN" "http://www.w3.org/Graphics/SVG/1.1/DTD/svg11.dtd">
<svg width="60pt" height="60pt" viewBox="0 0 60 60" version="1.1" xmlns="http://www.w3.org/2000/svg">
<g id="#ffffffff">
<path fill="#ffffff" opacity="1.00" d=" M 0.00 0.00 L 60.00 0.00 L 60.00 60.00 L 0.00 60.00 L 0.00 0.00 M 10.05 16.07 C 11.43 20.55 17.75 20.95 20.33 17.29 C 19.79 19.17 19.82 21.90 17.57 22.64 C 16.12 23.24 15.01 21.96 13.90 21.26 C 12.49 21.24 11.08 21.23 9.67 21.23 C 11.25 26.63 19.15 27.96 22.41 23.43 C 25.83 18.55 24.79 9.08 17.96 7.92 C 13.33 6.75 8.23 11.30 10.05 16.07 M 31.45 8.70 C 27.05 11.49 26.95 17.91 28.74 22.28 C 30.62 26.89 37.73 27.55 40.52 23.49 C 42.80 20.05 42.83 15.37 41.24 11.65 C 39.67 8.01 34.79 6.78 31.45 8.70 M 45.31 17.10 C 44.96 20.91 49.77 21.28 52.46 22.05 C 50.97 25.66 47.24 22.35 44.63 22.53 C 45.75 27.25 53.91 27.62 54.96 22.80 C 55.36 18.93 50.40 18.76 47.73 17.93 C 49.09 14.41 52.64 17.64 55.12 17.44 C 54.19 12.82 46.20 12.40 45.31 17.10 M 5.88 30.01 C 6.12 37.74 9.87 45.38 16.37 49.73 C 25.11 56.01 38.06 55.21 45.96 47.90 C 51.11 43.44 53.83 36.74 54.11 30.01 C 49.47 30.00 44.83 30.00 40.18 30.00 C 39.78 35.23 35.54 40.11 30.05 39.97 C 24.53 40.17 20.20 35.28 19.82 30.00 C 15.17 30.00 10.53 30.00 5.88 30.01 M 27.57 30.06 C 28.75 32.43 31.25 32.37 32.43 30.06 C 30.81 30.03 29.19 30.03 27.57 30.06 Z" />
<path fill="#ffffff" opacity="1.00" d=" M 15.46 11.55 C 17.14 10.56 19.68 11.97 19.45 13.99 C 19.68 16.16 16.76 17.42 15.15 16.17 C 13.48 15.16 13.70 12.34 15.46 11.55 Z" />
<path fill="#ffffff" opacity="1.00" d=" M 34.32 11.27 C 36.92 10.67 37.69 13.90 37.76 15.84 C 37.80 18.17 37.93 21.26 35.72 22.71 C 33.10 23.37 32.32 20.05 32.25 18.11 C 32.21 15.79 32.04 12.65 34.32 11.27 Z" />
</g>
<g id="#000000ff">
<path fill="#968176" opacity="1.00" d=" M 10.05 16.07 C 8.23 11.30 13.33 6.75 17.96 7.92 C 24.79 9.08 25.83 18.55 22.41 23.43 C 19.15 27.96 11.25 26.63 9.67 21.23 C 11.08 21.23 12.49 21.24 13.90 21.26 C 15.01 21.96 16.12 23.24 17.57 22.64 C 19.82 21.90 19.79 19.17 20.33 17.29 C 17.75 20.95 11.43 20.55 10.05 16.07 M 15.46 11.55 C 13.70 12.34 13.48 15.16 15.15 16.17 C 16.76 17.42 19.68 16.16 19.45 13.99 C 19.68 11.97 17.14 10.56 15.46 11.55 Z" />
<path fill="#968176" opacity="1.00" d=" M 31.45 8.70 C 34.79 6.78 39.67 8.01 41.24 11.65 C 42.83 15.37 42.80 20.05 40.52 23.49 C 37.73 27.55 30.62 26.89 28.74 22.28 C 26.95 17.91 27.05 11.49 31.45 8.70 M 34.32 11.27 C 32.04 12.65 32.21 15.79 32.25 18.11 C 32.32 20.05 33.10 23.37 35.72 22.71 C 37.93 21.26 37.80 18.17 37.76 15.84 C 37.69 13.90 36.92 10.67 34.32 11.27 Z" />
<path fill="#968176" opacity="1.00" d=" M 45.31 17.10 C 46.20 12.40 54.19 12.82 55.12 17.44 C 52.64 17.64 49.09 14.41 47.73 17.93 C 50.40 18.76 55.36 18.93 54.96 22.80 C 53.91 27.62 45.75 27.25 44.63 22.53 C 47.24 22.35 50.97 25.66 52.46 22.05 C 49.77 21.28 44.96 20.91 45.31 17.10 Z" />
<path fill="#968176" opacity="1.00" d=" M 5.88 30.01 C 10.53 30.00 15.17 30.00 19.82 30.00 C 20.20 35.28 24.53 40.17 30.05 39.97 C 35.54 40.11 39.78 35.23 40.18 30.00 C 44.83 30.00 49.47 30.00 54.11 30.01 C 53.83 36.74 51.11 43.44 45.96 47.90 C 38.06 55.21 25.11 56.01 16.37 49.73 C 9.87 45.38 6.12 37.74 5.88 30.01 Z" />
<path fill="#968176" opacity="1.00" d=" M 27.57 30.06 C 29.19 30.03 30.81 30.03 32.43 30.06 C 31.25 32.37 28.75 32.43 27.57 30.06 Z" />
</g>
</svg>
