<?xml version="1.0" encoding="UTF-8" ?>
<!DOCTYPE svg PUBLIC "-//W3C//DTD SVG 1.1//EN" "http://www.w3.org/Graphics/SVG/1.1/DTD/svg11.dtd">
<svg width="60pt" height="60pt" viewBox="0 0 60 60" version="1.1" xmlns="http://www.w3.org/2000/svg">
<g id="#ffffffff">
<path fill="#ffffff" opacity="1.00" d=" M 0.00 0.00 L 60.00 0.00 L 60.00 60.00 L 0.00 60.00 L 0.00 0.00 M 20.16 12.09 C 19.13 13.69 16.62 16.41 19.21 17.80 C 22.12 18.22 25.07 17.94 28.00 18.00 C 28.00 19.33 28.00 20.67 28.00 22.00 C 25.03 22.05 22.05 21.80 19.10 22.20 C 17.66 22.91 17.62 25.20 19.17 25.80 C 22.10 26.21 25.06 25.94 28.00 26.00 C 28.00 27.33 28.00 28.66 28.00 29.99 C 25.44 30.40 21.94 28.94 20.09 31.23 C 19.60 35.50 25.44 33.60 28.00 34.01 C 28.00 35.27 28.00 36.53 28.00 37.80 C 26.64 38.12 23.77 37.89 24.07 40.03 C 23.82 42.20 26.83 41.85 28.18 42.24 C 27.90 44.03 27.92 46.11 26.47 47.44 C 24.64 49.59 21.68 49.67 19.17 50.35 C 17.44 50.74 17.73 53.30 19.21 53.84 C 23.30 54.49 27.23 52.31 30.00 49.45 C 32.39 51.89 35.48 53.83 38.99 53.95 C 40.29 54.27 42.20 53.54 41.95 51.93 C 42.05 49.81 39.25 50.21 37.91 49.69 C 34.20 49.32 31.57 45.90 31.83 42.23 C 33.21 41.88 36.24 42.16 35.93 39.95 C 36.17 37.87 33.32 38.14 32.00 37.80 C 32.00 36.53 32.00 35.27 32.00 34.01 C 34.56 33.62 37.96 34.99 39.90 32.84 C 40.50 28.51 34.58 30.39 32.00 29.99 C 32.00 28.66 32.00 27.33 32.00 26.00 C 34.95 25.95 37.91 26.20 40.84 25.81 C 42.37 25.14 42.36 22.91 40.88 22.19 C 37.94 21.80 34.96 22.05 32.00 22.00 C 32.00 20.67 32.00 19.33 32.00 18.00 C 34.95 17.94 37.92 18.22 40.85 17.79 C 42.04 17.15 42.37 15.61 41.44 14.59 C 38.79 10.41 35.73 5.68 30.78 4.07 C 25.89 3.87 22.86 8.69 20.16 12.09 M 7.24 16.07 C 5.62 16.71 5.49 19.25 7.24 19.80 C 9.22 20.73 12.12 23.39 13.90 20.82 C 14.28 17.65 9.75 16.43 7.24 16.07 M 51.24 16.22 C 49.27 17.27 45.43 17.95 46.10 20.88 C 47.95 23.31 50.74 20.76 52.71 19.82 C 55.29 19.11 53.61 14.91 51.24 16.22 M 5.18 26.19 C 3.64 26.79 3.61 29.13 5.11 29.78 C 7.66 30.17 10.29 30.14 12.84 29.81 C 14.38 29.15 14.39 26.80 12.82 26.19 C 10.29 25.85 7.70 25.85 5.18 26.19 M 47.13 26.21 C 45.63 26.85 45.63 29.17 47.15 29.79 C 49.69 30.17 52.31 30.15 54.85 29.80 C 56.38 29.17 56.37 26.80 54.83 26.19 C 52.28 25.86 49.67 25.83 47.13 26.21 M 11.26 34.21 C 9.32 35.27 5.49 35.90 6.10 38.79 C 7.85 41.41 10.82 38.71 12.79 37.78 C 15.28 36.98 13.58 32.98 11.26 34.21 M 47.23 34.08 C 45.60 34.73 45.50 37.27 47.26 37.81 C 49.22 38.74 52.21 41.42 53.91 38.76 C 54.23 35.64 49.71 34.41 47.23 34.08 Z" />
</g>
<g id="#000000ff">
<path fill="#000000" opacity="1.00" d=" M 20.16 12.09 C 22.86 8.69 25.89 3.87 30.78 4.07 C 35.73 5.68 38.79 10.41 41.44 14.59 C 42.37 15.61 42.04 17.15 40.85 17.79 C 37.92 18.22 34.95 17.94 32.00 18.00 C 32.00 19.33 32.00 20.67 32.00 22.00 C 34.96 22.05 37.94 21.80 40.88 22.19 C 42.36 22.91 42.37 25.14 40.84 25.81 C 37.91 26.20 34.95 25.95 32.00 26.00 C 32.00 27.33 32.00 28.66 32.00 29.99 C 34.58 30.39 40.50 28.51 39.90 32.84 C 37.96 34.99 34.56 33.62 32.00 34.01 C 32.00 35.27 32.00 36.53 32.00 37.80 C 33.32 38.14 36.17 37.87 35.93 39.95 C 36.24 42.16 33.21 41.88 31.83 42.23 C 31.57 45.90 34.20 49.32 37.91 49.69 C 39.25 50.21 42.05 49.81 41.95 51.93 C 42.20 53.54 40.29 54.27 38.99 53.95 C 35.48 53.83 32.39 51.89 30.00 49.45 C 27.23 52.31 23.30 54.49 19.21 53.84 C 17.73 53.30 17.44 50.74 19.17 50.35 C 21.68 49.67 24.64 49.59 26.47 47.44 C 27.92 46.11 27.90 44.03 28.18 42.24 C 26.83 41.85 23.82 42.20 24.07 40.03 C 23.77 37.89 26.64 38.12 28.00 37.80 C 28.00 36.53 28.00 35.27 28.00 34.01 C 25.44 33.60 19.60 35.50 20.09 31.23 C 21.94 28.94 25.44 30.40 28.00 29.99 C 28.00 28.66 28.00 27.33 28.00 26.00 C 25.06 25.94 22.10 26.21 19.17 25.80 C 17.62 25.20 17.66 22.91 19.10 22.20 C 22.05 21.80 25.03 22.05 28.00 22.00 C 28.00 20.67 28.00 19.33 28.00 18.00 C 25.07 17.94 22.12 18.22 19.21 17.80 C 16.62 16.41 19.13 13.69 20.16 12.09 Z" />
<path fill="#000000" opacity="1.00" d=" M 7.24 16.07 C 9.75 16.43 14.28 17.65 13.90 20.82 C 12.12 23.39 9.22 20.73 7.24 19.80 C 5.49 19.25 5.62 16.71 7.24 16.07 Z" />
<path fill="#000000" opacity="1.00" d=" M 51.24 16.22 C 53.61 14.91 55.29 19.11 52.71 19.82 C 50.74 20.76 47.95 23.31 46.10 20.88 C 45.43 17.95 49.27 17.27 51.24 16.22 Z" />
<path fill="#000000" opacity="1.00" d=" M 5.18 26.19 C 7.70 25.85 10.29 25.85 12.82 26.19 C 14.39 26.80 14.38 29.15 12.84 29.81 C 10.29 30.14 7.66 30.17 5.11 29.78 C 3.61 29.13 3.64 26.79 5.18 26.19 Z" />
<path fill="#000000" opacity="1.00" d=" M 47.13 26.21 C 49.67 25.83 52.28 25.86 54.83 26.19 C 56.37 26.80 56.38 29.17 54.85 29.80 C 52.31 30.15 49.69 30.17 47.15 29.79 C 45.63 29.17 45.63 26.85 47.13 26.21 Z" />
<path fill="#000000" opacity="1.00" d=" M 11.26 34.21 C 13.58 32.98 15.28 36.98 12.79 37.78 C 10.82 38.71 7.85 41.41 6.10 38.79 C 5.49 35.90 9.32 35.27 11.26 34.21 Z" />
<path fill="#000000" opacity="1.00" d=" M 47.23 34.08 C 49.71 34.41 54.23 35.64 53.91 38.76 C 52.21 41.42 49.22 38.74 47.26 37.81 C 45.50 37.27 45.60 34.73 47.23 34.08 Z" />
</g>
</svg>
