<?xml version="1.0" encoding="UTF-8" ?>
<!DOCTYPE svg PUBLIC "-//W3C//DTD SVG 1.1//EN" "http://www.w3.org/Graphics/SVG/1.1/DTD/svg11.dtd">
<svg width="64pt" height="64pt" viewBox="0 0 64 64" version="1.1" xmlns="http://www.w3.org/2000/svg">
<g id="#ffffffff">
<path fill="#ffffff" opacity="1.00" d=" M 0.00 0.00 L 64.00 0.00 L 64.00 64.00 L 0.00 64.00 L 0.00 0.00 M 12.00 6.00 C 12.00 10.67 12.00 15.33 12.00 20.00 C 13.33 20.00 14.67 20.00 16.00 20.00 C 16.00 16.67 16.00 13.33 16.00 10.00 C 26.67 10.00 37.33 10.00 48.00 10.00 C 48.00 13.33 48.00 16.67 48.00 20.00 C 49.33 20.00 50.67 20.00 52.00 20.00 C 52.00 15.33 52.00 10.67 52.00 6.00 C 38.67 6.00 25.33 6.00 12.00 6.00 M 16.30 23.99 C 14.87 29.34 12.40 34.44 11.83 39.99 C 13.21 40.00 14.60 40.00 15.98 40.00 C 16.00 39.50 16.03 38.50 16.05 38.00 C 17.35 38.00 18.65 38.00 19.95 38.00 C 19.97 38.50 20.00 39.50 20.02 40.00 C 21.40 40.00 22.79 40.00 24.17 39.99 C 23.61 34.46 21.12 29.39 19.75 24.05 C 18.60 24.02 17.45 24.00 16.30 23.99 M 30.26 24.02 C 28.89 29.37 26.39 34.45 25.83 39.99 C 27.21 40.00 28.60 40.00 29.98 40.00 C 30.00 39.50 30.03 38.50 30.05 38.00 C 31.36 38.00 32.67 38.00 33.98 38.00 C 33.99 38.50 34.01 39.50 34.01 40.00 C 35.40 40.00 36.79 39.99 38.18 39.98 C 37.50 34.47 34.91 29.45 33.54 24.10 C 32.45 24.05 31.36 24.02 30.26 24.02 M 40.05 28.89 C 40.12 32.49 38.85 37.76 43.01 39.58 C 46.79 41.38 50.40 37.66 50.24 33.94 C 48.17 34.00 45.53 33.39 45.23 36.24 C 44.08 35.53 43.83 34.33 43.96 33.05 C 44.10 31.23 43.37 28.90 45.23 27.75 C 45.53 30.60 48.15 30.02 50.23 30.06 C 49.89 28.05 49.52 25.66 47.47 24.65 C 44.41 22.69 39.88 25.25 40.05 28.89 M 12.00 44.00 C 12.00 48.67 12.00 53.33 12.00 58.00 C 25.33 58.00 38.67 58.00 52.00 58.00 C 52.00 53.33 52.00 48.67 52.00 44.00 C 50.67 44.00 49.33 44.00 48.00 44.00 C 48.00 47.33 48.00 50.67 48.00 54.00 C 37.33 54.00 26.67 54.00 16.00 54.00 C 16.00 50.67 16.00 47.33 16.00 44.00 C 14.67 44.00 13.33 44.00 12.00 44.00 Z" />
</g>
<g id="#000000ff">
<path fill="#000000" opacity="1.00" d=" M 12.00 6.00 C 25.33 6.00 38.67 6.00 52.00 6.00 C 52.00 10.67 52.00 15.33 52.00 20.00 C 50.67 20.00 49.33 20.00 48.00 20.00 C 48.00 16.67 48.00 13.33 48.00 10.00 C 37.33 10.00 26.67 10.00 16.00 10.00 C 16.00 13.33 16.00 16.67 16.00 20.00 C 14.67 20.00 13.33 20.00 12.00 20.00 C 12.00 15.33 12.00 10.67 12.00 6.00 Z" />
<path fill="#000000" opacity="1.00" d=" M 16.30 23.99 C 17.45 24.00 18.60 24.02 19.75 24.05 C 21.12 29.39 23.61 34.46 24.17 39.99 C 22.79 40.00 21.40 40.00 20.02 40.00 C 20.00 39.50 19.97 38.50 19.95 38.00 C 18.65 38.00 17.35 38.00 16.05 38.00 C 16.03 38.50 16.00 39.50 15.98 40.00 C 14.60 40.00 13.21 40.00 11.83 39.99 C 12.40 34.44 14.87 29.34 16.30 23.99 Z" />
<path fill="#000000" opacity="1.00" d=" M 30.26 24.02 C 31.36 24.02 32.45 24.05 33.54 24.10 C 34.91 29.45 37.50 34.47 38.18 39.98 C 36.79 39.99 35.40 40.00 34.01 40.00 C 34.01 39.50 33.99 38.50 33.98 38.00 C 32.67 38.00 31.36 38.00 30.05 38.00 C 30.03 38.50 30.00 39.50 29.98 40.00 C 28.60 40.00 27.21 40.00 25.83 39.99 C 26.39 34.45 28.89 29.37 30.26 24.02 Z" />
<path fill="#000000" opacity="1.00" d=" M 40.05 28.89 C 39.88 25.25 44.41 22.69 47.47 24.65 C 49.52 25.66 49.89 28.05 50.23 30.06 C 48.15 30.02 45.53 30.60 45.23 27.75 C 43.37 28.90 44.10 31.23 43.96 33.05 C 43.83 34.33 44.08 35.53 45.23 36.24 C 45.53 33.39 48.17 34.00 50.24 33.94 C 50.40 37.66 46.79 41.38 43.01 39.58 C 38.85 37.76 40.12 32.49 40.05 28.89 Z" />
<path fill="#000000" opacity="1.00" d=" M 12.00 44.00 C 13.33 44.00 14.67 44.00 16.00 44.00 C 16.00 47.33 16.00 50.67 16.00 54.00 C 26.67 54.00 37.33 54.00 48.00 54.00 C 48.00 50.67 48.00 47.33 48.00 44.00 C 49.33 44.00 50.67 44.00 52.00 44.00 C 52.00 48.67 52.00 53.33 52.00 58.00 C 38.67 58.00 25.33 58.00 12.00 58.00 C 12.00 53.33 12.00 48.67 12.00 44.00 Z" />
</g>
</svg>
