<?xml version="1.0" encoding="UTF-8" ?>
<!DOCTYPE svg PUBLIC "-//W3C//DTD SVG 1.1//EN" "http://www.w3.org/Graphics/SVG/1.1/DTD/svg11.dtd">
<svg width="60pt" height="60pt" viewBox="0 0 60 60" version="1.1" xmlns="http://www.w3.org/2000/svg">
<g id="#ffffffff">
<path fill="#ffffff" opacity="1.00" d=" M 0.00 0.00 L 60.00 0.00 L 60.00 60.00 L 0.00 60.00 L 0.00 0.00 M 50.46 1.45 C 47.06 3.28 50.37 8.76 53.60 6.52 C 56.88 4.64 53.66 -0.68 50.46 1.45 M 19.50 11.47 C 17.71 14.79 17.73 18.74 18.79 22.29 C 17.96 23.79 17.85 25.75 19.01 27.12 C 20.87 29.35 21.80 32.21 24.00 34.18 C 23.90 36.02 24.53 38.41 22.79 39.69 C 18.58 42.61 12.74 42.32 8.96 46.02 C 6.71 48.04 6.20 51.14 5.89 53.98 C 21.96 54.01 38.03 54.01 54.11 53.99 C 53.80 51.13 53.29 48.02 51.02 46.00 C 47.39 42.53 42.03 42.45 37.79 40.14 C 35.54 39.00 35.98 36.26 36.00 34.18 C 38.16 32.21 39.16 29.42 40.93 27.16 C 42.14 25.80 42.04 23.83 41.22 22.31 C 42.07 19.21 42.37 15.83 41.08 12.80 C 39.90 9.26 35.67 9.03 33.27 6.64 C 28.38 4.97 22.02 6.71 19.50 11.47 M 48.07 11.15 C 47.90 12.45 48.37 13.47 49.49 14.21 C 49.09 16.48 48.47 18.71 48.27 21.01 C 48.14 23.80 52.32 25.18 53.92 22.90 C 54.12 21.58 53.65 20.54 52.50 19.79 C 52.92 17.52 53.51 15.27 53.74 12.96 C 53.83 10.15 49.58 8.80 48.07 11.15 Z" />
</g>
<g id="#000000ff">
<path fill="#000000" opacity="1.00" d=" M 50.46 1.45 C 53.66 -0.68 56.88 4.64 53.60 6.52 C 50.37 8.76 47.06 3.28 50.46 1.45 Z" />
<path fill="#000000" opacity="1.00" d=" M 19.50 11.47 C 22.02 6.71 28.38 4.97 33.27 6.64 C 35.67 9.03 39.90 9.26 41.08 12.80 C 42.37 15.83 42.07 19.21 41.22 22.31 C 42.04 23.83 42.14 25.80 40.93 27.16 C 39.16 29.42 38.16 32.21 36.00 34.18 C 35.98 36.26 35.54 39.00 37.79 40.14 C 42.03 42.45 47.39 42.53 51.02 46.00 C 53.29 48.02 53.80 51.13 54.11 53.99 C 38.03 54.01 21.96 54.01 5.89 53.98 C 6.20 51.14 6.71 48.04 8.96 46.02 C 12.74 42.32 18.58 42.61 22.79 39.69 C 24.53 38.41 23.90 36.02 24.00 34.18 C 21.80 32.21 20.87 29.35 19.01 27.12 C 17.85 25.75 17.96 23.79 18.79 22.29 C 17.73 18.74 17.71 14.79 19.50 11.47 Z" />
<path fill="#000000" opacity="1.00" d=" M 48.07 11.15 C 49.58 8.80 53.83 10.15 53.74 12.96 C 53.51 15.27 52.92 17.52 52.50 19.79 C 53.65 20.54 54.12 21.58 53.92 22.90 C 52.32 25.18 48.14 23.80 48.27 21.01 C 48.47 18.71 49.09 16.48 49.49 14.21 C 48.37 13.47 47.90 12.45 48.07 11.15 Z" />
</g>
</svg>
