<?xml version="1.0" encoding="UTF-8" ?>
<!DOCTYPE svg PUBLIC "-//W3C//DTD SVG 1.1//EN" "http://www.w3.org/Graphics/SVG/1.1/DTD/svg11.dtd">
<svg width="60pt" height="60pt" viewBox="0 0 60 60" version="1.1" xmlns="http://www.w3.org/2000/svg">
<g id="#ffffffff">
<path fill="#ffffff" opacity="1.00" d=" M 0.00 0.00 L 60.00 0.00 L 60.00 60.00 L 0.00 60.00 L 0.00 0.00 M 8.61 15.52 C 2.97 22.01 2.40 32.41 7.75 39.23 C 8.96 40.96 10.84 42.68 10.35 45.01 C 10.33 48.72 6.89 50.79 5.75 54.05 C 11.28 54.02 16.38 51.70 20.89 48.67 C 28.15 50.72 36.18 50.44 42.99 47.03 C 49.62 43.88 55.06 37.57 55.85 30.12 C 56.67 23.72 53.77 17.27 49.04 13.03 C 37.88 2.87 18.31 3.77 8.61 15.52 Z" />
<path fill="#ffffff" opacity="1.00" d=" M 28.35 15.50 C 30.52 13.90 33.84 16.37 32.81 18.89 C 32.38 20.76 29.86 21.59 28.33 20.47 C 26.59 19.40 26.62 16.57 28.35 15.50 Z" />
<path fill="#ffffff" opacity="1.00" d=" M 28.00 26.00 C 29.33 26.00 30.67 26.00 32.00 26.00 C 32.00 30.67 32.00 35.33 32.00 40.00 C 30.67 40.00 29.33 40.00 28.00 40.00 C 28.00 35.33 28.00 30.67 28.00 26.00 Z" />
</g>
<g id="#000000ff">
<path fill="#968176" opacity="1.00" d=" M 8.61 15.52 C 18.31 3.77 37.88 2.87 49.04 13.03 C 53.77 17.27 56.67 23.72 55.85 30.12 C 55.06 37.57 49.62 43.88 42.99 47.03 C 36.18 50.44 28.15 50.72 20.89 48.67 C 16.38 51.70 11.28 54.02 5.75 54.05 C 6.89 50.79 10.33 48.72 10.35 45.01 C 10.84 42.68 8.96 40.96 7.75 39.23 C 2.40 32.41 2.97 22.01 8.61 15.52 M 28.35 15.50 C 26.62 16.57 26.59 19.40 28.33 20.47 C 29.86 21.59 32.38 20.76 32.81 18.89 C 33.84 16.37 30.52 13.90 28.35 15.50 M 28.00 26.00 C 28.00 30.67 28.00 35.33 28.00 40.00 C 29.33 40.00 30.67 40.00 32.00 40.00 C 32.00 35.33 32.00 30.67 32.00 26.00 C 30.67 26.00 29.33 26.00 28.00 26.00 Z" />
</g>
</svg>
