<?xml version="1.0" encoding="UTF-8" ?>
<!DOCTYPE svg PUBLIC "-//W3C//DTD SVG 1.1//EN" "http://www.w3.org/Graphics/SVG/1.1/DTD/svg11.dtd">
<svg width="64pt" height="64pt" viewBox="0 0 64 64" version="1.1" xmlns="http://www.w3.org/2000/svg">
<g id="#ffffffff">
<path fill="#ffffff" opacity="1.00" d=" M 0.00 0.00 L 64.00 0.00 L 64.00 64.00 L 0.00 64.00 L 0.00 0.00 M 4.08 20.87 C 3.43 25.48 6.32 29.62 9.97 32.10 C 10.03 37.68 9.99 43.27 10.00 48.85 C 11.98 50.86 13.98 52.85 15.99 54.83 C 18.05 52.88 20.04 50.87 22.01 48.84 C 22.00 43.26 21.98 37.68 22.02 32.10 C 24.47 30.26 26.82 28.00 27.58 24.93 C 29.45 18.53 24.76 11.26 18.19 10.25 C 11.56 8.78 4.55 14.12 4.08 20.87 M 32.00 18.00 C 32.00 22.00 32.00 26.00 32.00 30.00 C 41.33 30.00 50.67 30.00 60.00 30.00 C 60.00 26.00 60.00 22.00 60.00 18.00 C 50.67 18.00 41.33 18.00 32.00 18.00 M 32.00 32.00 C 32.00 36.00 32.00 40.00 32.00 44.00 C 41.33 44.00 50.67 44.00 60.00 44.00 C 60.00 40.00 60.00 36.00 60.00 32.00 C 50.67 32.00 41.33 32.00 32.00 32.00 Z" />
<path fill="#ffffff" opacity="1.00" d=" M 8.08 23.10 C 7.21 18.07 12.03 13.20 17.07 14.09 C 21.94 14.57 25.33 20.13 23.52 24.69 C 22.72 27.30 20.31 28.78 18.02 29.97 C 18.01 31.31 18.00 32.65 18.00 33.99 C 17.50 33.99 16.50 34.01 16.00 34.01 C 16.00 35.34 16.00 36.66 16.00 37.99 C 16.50 37.99 17.50 38.01 18.00 38.01 C 18.00 38.51 18.00 39.49 18.00 39.99 C 17.50 39.99 16.50 40.01 16.00 40.01 C 16.00 41.34 16.00 42.66 16.00 43.99 C 16.50 43.99 17.49 44.01 17.99 44.01 C 17.99 44.79 18.00 46.34 18.00 47.11 C 17.33 47.78 16.66 48.45 16.00 49.13 C 15.34 48.45 14.67 47.77 13.99 47.11 C 14.00 41.39 14.02 35.68 13.98 29.97 C 11.15 28.66 8.39 26.42 8.08 23.10 M 11.75 21.96 C 14.58 22.02 17.41 22.02 20.25 21.96 C 19.59 20.07 18.38 17.83 16.01 18.01 C 13.68 17.85 12.39 20.06 11.75 21.96 Z" />
<path fill="#ffffff" opacity="1.00" d=" M 36.00 22.00 C 42.67 22.00 49.33 22.00 56.00 22.00 C 55.99 23.33 55.99 24.67 56.00 26.00 C 49.33 26.00 42.67 26.00 36.00 26.00 C 36.01 24.67 36.01 23.33 36.00 22.00 Z" />
<path fill="#ffffff" opacity="1.00" d=" M 36.00 36.00 C 42.67 36.00 49.33 36.00 56.00 36.00 C 55.99 37.33 55.99 38.67 56.00 40.00 C 49.33 40.00 42.67 40.00 36.00 40.00 C 36.01 38.67 36.01 37.33 36.00 36.00 Z" />
</g>
<g id="#000000ff">
<path fill="#000000" opacity="1.00" d=" M 4.08 20.87 C 4.55 14.12 11.56 8.78 18.19 10.25 C 24.76 11.26 29.45 18.53 27.58 24.93 C 26.82 28.00 24.47 30.26 22.02 32.10 C 21.98 37.68 22.00 43.26 22.01 48.84 C 20.04 50.87 18.05 52.88 15.99 54.83 C 13.98 52.85 11.98 50.86 10.00 48.85 C 9.99 43.27 10.03 37.68 9.97 32.10 C 6.32 29.62 3.43 25.48 4.08 20.87 M 8.08 23.10 C 8.39 26.42 11.15 28.66 13.98 29.97 C 14.02 35.68 14.00 41.39 13.99 47.11 C 14.67 47.77 15.34 48.45 16.00 49.13 C 16.66 48.45 17.33 47.78 18.00 47.11 C 18.00 46.34 17.99 44.79 17.99 44.01 C 17.49 44.01 16.50 43.99 16.00 43.99 C 16.00 42.66 16.00 41.34 16.00 40.01 C 16.50 40.01 17.50 39.99 18.00 39.99 C 18.00 39.49 18.00 38.51 18.00 38.01 C 17.50 38.01 16.50 37.99 16.00 37.99 C 16.00 36.66 16.00 35.34 16.00 34.01 C 16.50 34.01 17.50 33.99 18.00 33.99 C 18.00 32.65 18.01 31.31 18.02 29.97 C 20.31 28.78 22.72 27.30 23.52 24.69 C 25.33 20.13 21.94 14.57 17.07 14.09 C 12.03 13.20 7.21 18.07 8.08 23.10 Z" />
<path fill="#000000" opacity="1.00" d=" M 11.75 21.96 C 12.39 20.06 13.68 17.85 16.01 18.01 C 18.38 17.83 19.59 20.07 20.25 21.96 C 17.41 22.02 14.58 22.02 11.75 21.96 Z" />
<path fill="#000000" opacity="1.00" d=" M 32.00 18.00 C 41.33 18.00 50.67 18.00 60.00 18.00 C 60.00 22.00 60.00 26.00 60.00 30.00 C 50.67 30.00 41.33 30.00 32.00 30.00 C 32.00 26.00 32.00 22.00 32.00 18.00 M 36.00 22.00 C 36.01 23.33 36.01 24.67 36.00 26.00 C 42.67 26.00 49.33 26.00 56.00 26.00 C 55.99 24.67 55.99 23.33 56.00 22.00 C 49.33 22.00 42.67 22.00 36.00 22.00 Z" />
<path fill="#000000" opacity="1.00" d=" M 32.00 32.00 C 41.33 32.00 50.67 32.00 60.00 32.00 C 60.00 36.00 60.00 40.00 60.00 44.00 C 50.67 44.00 41.33 44.00 32.00 44.00 C 32.00 40.00 32.00 36.00 32.00 32.00 M 36.00 36.00 C 36.01 37.33 36.01 38.67 36.00 40.00 C 42.67 40.00 49.33 40.00 56.00 40.00 C 55.99 38.67 55.99 37.33 56.00 36.00 C 49.33 36.00 42.67 36.00 36.00 36.00 Z" />
</g>
</svg>
