<?xml version="1.0" encoding="UTF-8" ?>
<!DOCTYPE svg PUBLIC "-//W3C//DTD SVG 1.1//EN" "http://www.w3.org/Graphics/SVG/1.1/DTD/svg11.dtd">
<svg width="60pt" height="60pt" viewBox="0 0 60 60" version="1.1" xmlns="http://www.w3.org/2000/svg">
<g id="#ffffffff">
<path fill="#ffffff" opacity="1.00" d=" M 0.00 0.00 L 60.00 0.00 L 60.00 60.00 L 0.00 60.00 L 0.00 0.00 M 21.66 7.98 C 18.41 8.05 15.16 7.90 11.91 8.04 C 9.87 8.00 8.00 9.87 8.04 11.91 C 7.94 23.63 8.03 35.35 8.00 47.07 C 7.73 49.15 8.88 51.33 10.98 51.86 C 14.54 52.20 18.12 51.91 21.69 52.01 C 22.39 53.24 23.29 54.38 24.89 53.90 C 26.20 53.03 25.95 51.39 26.01 50.03 C 25.99 36.67 25.99 23.30 26.01 9.94 C 25.94 8.59 26.23 6.96 24.91 6.09 C 23.30 5.52 22.42 6.79 21.66 7.98 M 29.15 6.08 C 27.73 6.88 28.07 8.57 27.99 9.93 C 28.07 23.94 27.89 37.96 28.07 51.97 C 27.76 54.54 32.14 54.63 31.92 52.05 C 32.10 37.67 31.96 23.28 31.99 8.89 C 32.36 7.16 30.97 5.45 29.15 6.08 M 35.14 6.08 C 34.89 6.34 34.41 6.87 34.17 7.13 C 33.76 21.06 34.14 35.03 33.98 48.98 C 34.17 50.63 33.48 52.82 35.15 53.89 C 36.95 54.53 38.33 52.82 37.98 51.10 C 37.98 36.74 38.08 22.36 37.94 8.00 C 38.12 6.47 36.42 5.66 35.14 6.08 M 40.06 7.97 C 39.97 22.68 39.93 37.40 40.08 52.10 C 39.92 53.73 41.83 53.94 42.98 54.06 C 43.28 53.55 43.88 52.53 44.18 52.02 C 46.39 51.85 49.07 52.57 50.81 50.79 C 52.40 49.29 51.91 46.94 52.02 44.99 C 51.87 33.66 52.22 22.30 51.85 10.97 C 50.98 7.51 46.96 7.92 44.19 7.99 C 43.90 7.47 43.30 6.44 43.01 5.93 C 41.78 5.97 39.87 6.31 40.06 7.97 Z" />
<path fill="#ffffff" opacity="1.00" d=" M 12.00 12.00 C 15.33 12.00 18.67 12.00 22.00 12.00 C 22.00 13.32 22.00 14.65 22.00 15.97 C 20.02 16.00 18.04 16.03 16.06 16.11 C 16.05 17.37 16.05 18.64 16.09 19.90 C 18.06 19.97 20.03 20.00 22.00 20.03 C 22.00 20.51 22.00 21.49 22.00 21.97 C 20.02 22.00 18.04 22.03 16.07 22.10 C 16.05 23.37 16.07 24.64 16.10 25.91 C 18.07 25.97 20.03 26.00 22.00 26.02 C 22.00 28.67 22.00 31.33 22.00 33.98 C 20.03 34.00 18.06 34.03 16.09 34.09 C 16.06 35.35 16.05 36.62 16.07 37.88 C 18.04 37.97 20.02 38.00 22.00 38.03 C 22.00 38.51 22.00 39.49 22.00 39.98 C 20.03 40.00 18.06 40.03 16.08 40.09 C 16.06 41.36 16.07 42.64 16.10 43.91 C 18.06 43.97 20.03 44.00 22.00 44.02 C 22.00 45.35 22.00 46.67 22.00 48.00 C 18.67 48.00 15.33 48.00 12.00 48.00 C 12.00 36.00 12.00 24.00 12.00 12.00 Z" />
<path fill="#ffffff" opacity="1.00" d=" M 45.19 16.18 C 47.50 14.99 49.25 18.95 46.78 19.81 C 44.52 21.03 42.76 17.05 45.19 16.18 Z" />
<path fill="#ffffff" opacity="1.00" d=" M 45.18 24.10 C 47.61 23.17 49.13 26.79 46.81 27.90 C 44.38 28.86 42.87 25.18 45.18 24.10 Z" />
<path fill="#ffffff" opacity="1.00" d=" M 45.13 32.10 C 47.56 31.14 49.14 34.73 46.85 35.88 C 44.45 36.88 42.87 33.28 45.13 32.10 Z" />
<path fill="#ffffff" opacity="1.00" d=" M 45.21 40.09 C 47.64 39.18 49.12 42.82 46.81 43.89 C 44.37 44.86 42.86 41.13 45.21 40.09 Z" />
</g>
<g id="#000000ff">
<path fill="#000000" opacity="1.00" d=" M 21.66 7.98 C 22.42 6.79 23.30 5.52 24.91 6.09 C 26.23 6.96 25.94 8.59 26.01 9.94 C 25.99 23.30 25.99 36.67 26.01 50.03 C 25.95 51.39 26.20 53.03 24.89 53.90 C 23.29 54.38 22.39 53.24 21.69 52.01 C 18.12 51.91 14.54 52.20 10.98 51.86 C 8.88 51.33 7.73 49.15 8.00 47.07 C 8.03 35.35 7.94 23.63 8.04 11.91 C 8.00 9.87 9.87 8.00 11.91 8.04 C 15.16 7.90 18.41 8.05 21.66 7.98 M 12.00 12.00 C 12.00 24.00 12.00 36.00 12.00 48.00 C 15.33 48.00 18.67 48.00 22.00 48.00 C 22.00 46.67 22.00 45.35 22.00 44.02 C 20.03 44.00 18.06 43.97 16.10 43.91 C 16.07 42.64 16.06 41.36 16.08 40.09 C 18.06 40.03 20.03 40.00 22.00 39.98 C 22.00 39.49 22.00 38.51 22.00 38.03 C 20.02 38.00 18.04 37.97 16.07 37.88 C 16.05 36.62 16.06 35.35 16.09 34.09 C 18.06 34.03 20.03 34.00 22.00 33.98 C 22.00 31.33 22.00 28.67 22.00 26.02 C 20.03 26.00 18.07 25.97 16.10 25.91 C 16.07 24.64 16.05 23.37 16.07 22.10 C 18.04 22.03 20.02 22.00 22.00 21.97 C 22.00 21.49 22.00 20.51 22.00 20.03 C 20.03 20.00 18.06 19.97 16.09 19.90 C 16.05 18.64 16.05 17.37 16.06 16.11 C 18.04 16.03 20.02 16.00 22.00 15.97 C 22.00 14.65 22.00 13.32 22.00 12.00 C 18.67 12.00 15.33 12.00 12.00 12.00 Z" />
<path fill="#000000" opacity="1.00" d=" M 29.15 6.08 C 30.97 5.45 32.36 7.16 31.99 8.89 C 31.96 23.28 32.10 37.67 31.92 52.05 C 32.14 54.63 27.76 54.54 28.07 51.97 C 27.89 37.96 28.07 23.94 27.99 9.93 C 28.07 8.57 27.73 6.88 29.15 6.08 Z" />
<path fill="#000000" opacity="1.00" d=" M 35.14 6.08 C 36.42 5.66 38.12 6.47 37.94 8.00 C 38.08 22.36 37.98 36.74 37.98 51.10 C 38.33 52.82 36.95 54.53 35.15 53.89 C 33.48 52.82 34.17 50.63 33.98 48.98 C 34.14 35.03 33.76 21.06 34.17 7.13 C 34.41 6.87 34.89 6.34 35.14 6.08 Z" />
<path fill="#000000" opacity="1.00" d=" M 40.06 7.97 C 39.87 6.31 41.78 5.97 43.01 5.93 C 43.30 6.44 43.90 7.47 44.19 7.99 C 46.96 7.92 50.98 7.51 51.85 10.97 C 52.22 22.30 51.87 33.66 52.02 44.99 C 51.91 46.94 52.40 49.29 50.81 50.79 C 49.07 52.57 46.39 51.85 44.18 52.02 C 43.88 52.53 43.28 53.55 42.98 54.06 C 41.83 53.94 39.92 53.73 40.08 52.10 C 39.93 37.40 39.97 22.68 40.06 7.97 M 45.19 16.18 C 42.76 17.05 44.52 21.03 46.78 19.81 C 49.25 18.95 47.50 14.99 45.19 16.18 M 45.18 24.10 C 42.87 25.18 44.38 28.86 46.81 27.90 C 49.13 26.79 47.61 23.17 45.18 24.10 M 45.13 32.10 C 42.87 33.28 44.45 36.88 46.85 35.88 C 49.14 34.73 47.56 31.14 45.13 32.10 M 45.21 40.09 C 42.86 41.13 44.37 44.86 46.81 43.89 C 49.12 42.82 47.64 39.18 45.21 40.09 Z" />
</g>
</svg>
