<?xml version="1.0" encoding="UTF-8" ?>
<!DOCTYPE svg PUBLIC "-//W3C//DTD SVG 1.1//EN" "http://www.w3.org/Graphics/SVG/1.1/DTD/svg11.dtd">
<svg width="60pt" height="60pt" viewBox="0 0 60 60" version="1.1" xmlns="http://www.w3.org/2000/svg">
<g id="#ffffffff">
<path fill="#ffffff" opacity="1.00" d=" M 0.00 0.00 L 60.00 0.00 L 60.00 60.00 L 0.00 60.00 L 0.00 0.00 M 26.14 11.67 C 23.03 15.73 19.89 19.77 16.72 23.78 C 13.07 23.77 10.83 27.54 12.74 30.69 C 11.07 35.03 9.30 39.34 7.58 43.67 C 6.26 44.57 4.41 45.29 4.14 47.09 C 3.05 50.44 7.55 53.48 10.25 51.25 C 12.39 49.94 12.11 47.31 11.26 45.31 C 12.76 41.39 14.36 37.51 15.92 33.62 C 17.77 37.41 19.18 41.39 20.74 45.31 C 19.91 47.28 19.55 49.98 21.73 51.25 C 24.45 53.50 28.89 50.42 27.87 47.09 C 27.56 45.31 25.78 44.58 24.44 43.69 C 22.71 39.36 20.93 35.05 19.28 30.69 C 19.71 29.30 19.90 27.89 19.85 26.44 C 22.96 22.29 26.09 18.12 29.42 14.15 C 29.70 14.14 30.27 14.10 30.55 14.09 C 33.89 18.07 37.03 22.25 40.14 26.42 C 40.08 27.88 40.27 29.30 40.72 30.68 C 39.08 35.04 37.30 39.35 35.57 43.68 C 34.25 44.58 32.41 45.29 32.14 47.09 C 31.06 50.43 35.54 53.48 38.24 51.26 C 40.39 49.95 40.11 47.31 39.26 45.31 C 40.79 41.32 42.42 37.37 44.00 33.40 C 45.58 37.37 47.22 41.32 48.74 45.31 C 47.92 47.28 47.55 49.96 49.71 51.23 C 52.40 53.49 56.84 50.47 55.88 47.15 C 55.60 45.34 53.79 44.58 52.43 43.69 C 50.70 39.36 48.94 35.04 47.26 30.70 C 49.14 27.57 46.97 23.74 43.30 23.79 C 40.12 19.74 36.92 15.71 33.83 11.59 C 34.57 9.06 32.88 5.90 30.03 6.01 C 27.10 5.90 25.47 9.08 26.14 11.67 Z" />
</g>
<g id="#000000ff">
<path fill="#000000" opacity="1.00" d=" M 26.14 11.67 C 25.47 9.08 27.10 5.90 30.03 6.01 C 32.88 5.90 34.57 9.06 33.83 11.59 C 36.92 15.71 40.12 19.74 43.30 23.79 C 46.97 23.74 49.14 27.57 47.26 30.70 C 48.94 35.04 50.70 39.36 52.43 43.69 C 53.79 44.58 55.60 45.34 55.88 47.15 C 56.84 50.47 52.40 53.49 49.71 51.23 C 47.55 49.96 47.92 47.28 48.74 45.31 C 47.22 41.32 45.58 37.37 44.00 33.40 C 42.42 37.37 40.79 41.32 39.26 45.31 C 40.11 47.31 40.39 49.95 38.24 51.26 C 35.54 53.48 31.06 50.43 32.14 47.09 C 32.41 45.29 34.25 44.58 35.57 43.68 C 37.30 39.35 39.08 35.04 40.72 30.68 C 40.27 29.30 40.08 27.88 40.14 26.42 C 37.03 22.25 33.89 18.07 30.55 14.09 C 30.27 14.10 29.70 14.14 29.42 14.15 C 26.09 18.12 22.96 22.29 19.85 26.44 C 19.90 27.89 19.71 29.30 19.28 30.69 C 20.93 35.05 22.71 39.36 24.44 43.69 C 25.78 44.58 27.56 45.31 27.87 47.09 C 28.89 50.42 24.45 53.50 21.73 51.25 C 19.55 49.98 19.91 47.28 20.74 45.31 C 19.18 41.39 17.77 37.41 15.92 33.62 C 14.36 37.51 12.76 41.39 11.26 45.31 C 12.11 47.31 12.39 49.94 10.25 51.25 C 7.55 53.48 3.05 50.44 4.14 47.09 C 4.41 45.29 6.26 44.57 7.58 43.67 C 9.30 39.34 11.07 35.03 12.74 30.69 C 10.83 27.54 13.07 23.77 16.72 23.78 C 19.89 19.77 23.03 15.73 26.14 11.67 Z" />
</g>
</svg>
