<?xml version="1.0" encoding="UTF-8" ?>
<!DOCTYPE svg PUBLIC "-//W3C//DTD SVG 1.1//EN" "http://www.w3.org/Graphics/SVG/1.1/DTD/svg11.dtd">
<svg width="60pt" height="60pt" viewBox="0 0 60 60" version="1.1" xmlns="http://www.w3.org/2000/svg">
<g id="#ffffffff">
<path fill="#ffffff" opacity="1.00" d=" M 0.00 0.00 L 60.00 0.00 L 60.00 45.66 C 59.85 38.73 54.09 32.47 47.12 32.09 C 39.29 31.20 31.79 38.13 32.05 46.01 C 31.84 53.34 38.26 59.79 45.53 60.00 L 0.00 60.00 L 0.00 0.00 M 6.31 10.40 C 3.61 11.55 3.16 15.70 5.72 17.24 C 7.65 18.80 10.70 17.80 11.64 15.60 C 13.30 12.49 9.39 8.62 6.31 10.40 M 19.11 12.20 C 17.27 12.98 17.89 16.10 19.95 15.91 C 31.30 16.07 42.66 16.05 54.01 15.92 C 56.61 16.16 56.59 11.81 53.99 12.08 C 42.37 12.02 30.72 11.79 19.11 12.20 M 6.37 26.37 C 1.59 28.24 5.00 35.97 9.60 33.63 C 14.40 31.79 10.99 23.97 6.37 26.37 M 19.13 31.82 C 24.29 32.25 29.48 31.91 34.66 31.97 C 37.76 29.57 41.55 28.34 45.48 28.34 C 37.00 27.83 28.50 27.96 20.01 28.07 C 17.90 27.85 17.26 31.01 19.13 31.82 M 6.34 42.38 C 3.64 43.51 3.14 47.65 5.69 49.22 C 7.58 50.79 10.63 49.85 11.60 47.68 C 13.35 44.58 9.46 40.63 6.34 42.38 M 19.10 44.18 C 17.65 44.91 17.64 47.14 19.14 47.82 C 22.10 48.17 25.09 47.98 28.07 47.99 C 28.05 46.66 28.05 45.34 28.07 44.01 C 25.08 44.02 22.08 43.83 19.10 44.18 Z" />
<path fill="#ffffff" opacity="1.00" d=" M 45.20 38.10 C 48.74 37.32 47.92 41.80 48.05 43.95 C 49.97 44.29 52.59 43.27 53.89 45.16 C 54.72 48.73 50.21 47.93 48.05 48.05 C 47.71 49.97 48.73 52.58 46.84 53.89 C 43.27 54.73 44.06 50.21 43.95 48.05 C 42.02 47.69 39.32 48.78 38.09 46.77 C 37.34 43.24 41.80 44.08 43.95 43.95 C 44.31 42.03 43.23 39.34 45.20 38.10 Z" />
<path fill="#ffffff" opacity="1.00" d=" M 46.37 60.00 C 53.58 59.84 59.77 53.69 60.00 46.49 L 60.00 60.00 L 46.37 60.00 Z" />
</g>
<g id="#000000ff">
<path fill="#000000" opacity="1.00" d=" M 6.31 10.40 C 9.39 8.62 13.30 12.49 11.64 15.60 C 10.70 17.80 7.65 18.80 5.72 17.24 C 3.16 15.70 3.61 11.55 6.31 10.40 Z" />
<path fill="#000000" opacity="1.00" d=" M 19.11 12.20 C 30.72 11.79 42.37 12.02 53.99 12.08 C 56.59 11.81 56.61 16.16 54.01 15.92 C 42.66 16.05 31.30 16.07 19.95 15.91 C 17.89 16.10 17.27 12.98 19.11 12.20 Z" />
<path fill="#000000" opacity="1.00" d=" M 6.37 26.37 C 10.99 23.97 14.40 31.79 9.60 33.63 C 5.00 35.97 1.59 28.24 6.37 26.37 Z" />
<path fill="#000000" opacity="1.00" d=" M 19.13 31.82 C 17.26 31.01 17.90 27.85 20.01 28.07 C 28.50 27.96 37.00 27.83 45.48 28.34 C 41.55 28.34 37.76 29.57 34.66 31.97 C 29.48 31.91 24.29 32.25 19.13 31.82 Z" />
<path fill="#000000" opacity="1.00" d=" M 32.05 46.01 C 31.79 38.13 39.29 31.20 47.12 32.09 C 54.09 32.47 59.85 38.73 60.00 45.66 L 60.00 46.49 C 59.77 53.69 53.58 59.84 46.37 60.00 L 45.53 60.00 C 38.26 59.79 31.84 53.34 32.05 46.01 M 45.20 38.10 C 43.23 39.34 44.31 42.03 43.95 43.95 C 41.80 44.08 37.34 43.24 38.09 46.77 C 39.32 48.78 42.02 47.69 43.95 48.05 C 44.06 50.21 43.27 54.73 46.84 53.89 C 48.73 52.58 47.71 49.97 48.05 48.05 C 50.21 47.93 54.72 48.73 53.89 45.16 C 52.59 43.27 49.97 44.29 48.05 43.95 C 47.92 41.80 48.74 37.32 45.20 38.10 Z" />
<path fill="#000000" opacity="1.00" d=" M 6.34 42.38 C 9.46 40.63 13.35 44.58 11.60 47.68 C 10.63 49.85 7.58 50.79 5.69 49.22 C 3.14 47.65 3.64 43.51 6.34 42.38 Z" />
<path fill="#000000" opacity="1.00" d=" M 19.10 44.18 C 22.08 43.83 25.08 44.02 28.07 44.01 C 28.05 45.34 28.05 46.66 28.07 47.99 C 25.09 47.98 22.10 48.17 19.14 47.82 C 17.64 47.14 17.65 44.91 19.10 44.18 Z" />
</g>
</svg>
