<?xml version="1.0" encoding="UTF-8" ?>
<!DOCTYPE svg PUBLIC "-//W3C//DTD SVG 1.1//EN" "http://www.w3.org/Graphics/SVG/1.1/DTD/svg11.dtd">
<svg width="60pt" height="60pt" viewBox="0 0 60 60" version="1.1" xmlns="http://www.w3.org/2000/svg">
<g id="#ffffffff">
<path fill="#ffffff" opacity="1.00" d=" M 0.00 0.00 L 60.00 0.00 L 60.00 45.66 C 59.88 38.33 53.38 31.85 46.00 32.04 C 38.54 31.83 31.82 38.54 32.04 46.01 C 31.85 53.34 38.25 59.80 45.52 60.00 L 0.00 60.00 L 0.00 0.00 M 4.13 12.99 C 3.82 16.71 4.08 20.45 3.99 24.19 C 6.07 25.41 8.08 27.36 8.00 29.97 C 8.11 32.59 6.12 34.55 4.02 35.75 C 4.03 39.20 3.90 42.65 4.05 46.10 C 3.95 48.17 5.89 49.98 7.91 49.95 C 14.73 50.09 21.55 49.95 28.38 50.01 C 27.06 43.57 29.22 36.50 34.35 32.28 C 39.10 28.08 45.99 27.07 51.95 28.97 C 52.62 26.88 54.08 25.28 55.98 24.24 C 55.94 20.52 56.18 16.79 55.87 13.07 C 55.41 10.95 53.22 9.73 51.14 10.00 C 37.07 10.00 23.01 10.00 8.95 10.00 C 6.88 9.72 4.69 10.91 4.13 12.99 Z" />
<path fill="#ffffff" opacity="1.00" d=" M 45.14 38.10 C 48.72 37.27 47.99 41.79 48.02 43.98 C 49.96 44.24 52.51 43.29 53.88 45.11 C 54.77 48.71 50.21 48.01 48.02 48.02 C 48.02 49.64 48.06 51.28 47.82 52.88 C 47.10 54.34 44.86 54.34 44.17 52.86 C 43.94 51.26 43.98 49.64 43.98 48.02 C 41.97 47.76 38.38 48.94 37.97 46.02 C 38.30 43.05 41.97 44.24 43.98 43.98 C 44.24 42.04 43.27 39.44 45.14 38.10 Z" />
<path fill="#ffffff" opacity="1.00" d=" M 46.38 60.00 C 53.57 59.84 59.78 53.68 60.00 46.49 L 60.00 60.00 L 46.38 60.00 Z" />
</g>
<g id="#000000ff">
<path fill="#968176" opacity="1.00" d=" M 4.13 12.99 C 4.69 10.91 6.88 9.72 8.95 10.00 C 23.01 10.00 37.07 10.00 51.14 10.00 C 53.22 9.73 55.41 10.95 55.87 13.07 C 56.18 16.79 55.94 20.52 55.98 24.24 C 54.08 25.28 52.62 26.88 51.95 28.97 C 45.99 27.07 39.10 28.08 34.35 32.28 C 29.22 36.50 27.06 43.57 28.38 50.01 C 21.55 49.95 14.73 50.09 7.91 49.95 C 5.89 49.98 3.95 48.17 4.05 46.10 C 3.90 42.65 4.03 39.20 4.02 35.75 C 6.12 34.55 8.11 32.59 8.00 29.97 C 8.08 27.36 6.07 25.41 3.99 24.19 C 4.08 20.45 3.82 16.71 4.13 12.99 Z" />
<path fill="#968176" opacity="1.00" d=" M 32.04 46.01 C 31.82 38.54 38.54 31.83 46.00 32.04 C 53.38 31.85 59.88 38.33 60.00 45.66 L 60.00 46.49 C 59.78 53.68 53.57 59.84 46.38 60.00 L 45.52 60.00 C 38.25 59.80 31.85 53.34 32.04 46.01 M 45.14 38.10 C 43.27 39.44 44.24 42.04 43.98 43.98 C 41.97 44.24 38.30 43.05 37.97 46.02 C 38.38 48.94 41.97 47.76 43.98 48.02 C 43.98 49.64 43.94 51.26 44.17 52.86 C 44.86 54.34 47.10 54.34 47.82 52.88 C 48.06 51.28 48.02 49.64 48.02 48.02 C 50.21 48.01 54.77 48.71 53.88 45.11 C 52.51 43.29 49.96 44.24 48.02 43.98 C 47.99 41.79 48.72 37.27 45.14 38.10 Z" />
</g>
</svg>
