<?xml version="1.0" encoding="UTF-8" ?>
<!DOCTYPE svg PUBLIC "-//W3C//DTD SVG 1.1//EN" "http://www.w3.org/Graphics/SVG/1.1/DTD/svg11.dtd">
<svg width="60pt" height="60pt" viewBox="0 0 60 60" version="1.1" xmlns="http://www.w3.org/2000/svg">
<g id="#ffffffff">
<path fill="#ffffff" opacity="1.00" d=" M 0.00 0.00 L 60.00 0.00 L 60.00 45.65 C 59.84 38.72 54.06 32.45 47.08 32.09 C 39.25 31.22 31.78 38.15 32.05 46.01 C 31.85 53.34 38.25 59.78 45.52 60.00 L 0.00 60.00 L 0.00 0.00 M 29.62 8.68 C 22.34 16.07 14.97 23.37 7.64 30.72 C 5.56 32.36 5.55 35.63 7.63 37.27 C 12.85 42.46 17.97 47.75 23.28 52.85 C 24.90 54.66 27.43 53.81 29.25 52.83 C 26.91 46.44 27.96 38.80 32.76 33.81 C 37.66 28.28 45.91 26.65 52.73 29.23 C 55.10 24.89 53.62 19.69 54.00 14.97 C 54.40 10.82 51.39 6.54 47.13 6.14 C 42.73 5.87 38.31 5.94 33.90 6.08 C 32.05 5.98 30.86 7.57 29.62 8.68 Z" />
<path fill="#ffffff" opacity="1.00" d=" M 44.36 10.37 C 47.46 8.66 51.30 12.54 49.62 15.63 C 48.58 18.11 45.00 18.83 43.16 16.79 C 41.14 14.98 41.92 11.40 44.36 10.37 Z" />
<path fill="#ffffff" opacity="1.00" d=" M 45.17 38.10 C 48.73 37.29 47.93 41.78 48.05 43.95 C 49.98 44.27 52.55 43.29 53.89 45.13 C 54.74 48.72 50.23 47.94 48.05 48.06 C 47.74 49.98 48.67 52.50 46.90 53.88 C 43.30 54.78 44.04 50.24 43.95 48.05 C 42.02 47.72 39.43 48.71 38.10 46.85 C 37.26 43.28 41.77 44.05 43.94 43.95 C 44.29 42.03 43.27 39.39 45.17 38.10 Z" />
<path fill="#ffffff" opacity="1.00" d=" M 46.39 60.00 C 53.59 59.83 59.76 53.69 60.00 46.50 L 60.00 60.00 L 46.39 60.00 Z" />
</g>
<g id="#000000ff">
<path fill="#968176" opacity="1.00" d=" M 29.62 8.68 C 30.86 7.57 32.05 5.98 33.90 6.08 C 38.31 5.94 42.73 5.87 47.13 6.14 C 51.39 6.54 54.40 10.82 54.00 14.97 C 53.62 19.69 55.10 24.89 52.73 29.23 C 45.91 26.65 37.66 28.28 32.76 33.81 C 27.96 38.80 26.91 46.44 29.25 52.83 C 27.43 53.81 24.90 54.66 23.28 52.85 C 17.97 47.75 12.85 42.46 7.63 37.27 C 5.55 35.63 5.56 32.36 7.64 30.72 C 14.97 23.37 22.34 16.07 29.62 8.68 M 44.36 10.37 C 41.92 11.40 41.14 14.98 43.16 16.79 C 45.00 18.83 48.58 18.11 49.62 15.63 C 51.30 12.54 47.46 8.66 44.36 10.37 Z" />
<path fill="#968176" opacity="1.00" d=" M 32.05 46.01 C 31.78 38.15 39.25 31.22 47.08 32.09 C 54.06 32.45 59.84 38.72 60.00 45.65 L 60.00 46.50 C 59.76 53.69 53.59 59.83 46.39 60.00 L 45.52 60.00 C 38.25 59.78 31.85 53.34 32.05 46.01 M 45.17 38.10 C 43.27 39.39 44.29 42.03 43.94 43.95 C 41.77 44.05 37.26 43.28 38.10 46.85 C 39.43 48.71 42.02 47.72 43.95 48.05 C 44.04 50.24 43.30 54.78 46.90 53.88 C 48.67 52.50 47.74 49.98 48.05 48.06 C 50.23 47.94 54.74 48.72 53.89 45.13 C 52.55 43.29 49.98 44.27 48.05 43.95 C 47.93 41.78 48.73 37.29 45.17 38.10 Z" />
</g>
</svg>
