<?xml version="1.0" encoding="UTF-8" ?>
<!DOCTYPE svg PUBLIC "-//W3C//DTD SVG 1.1//EN" "http://www.w3.org/Graphics/SVG/1.1/DTD/svg11.dtd">
<svg width="60pt" height="60pt" viewBox="0 0 60 60" version="1.1" xmlns="http://www.w3.org/2000/svg">
<g id="#ffffffff">
<path fill="#ffffff" opacity="1.00" d=" M 0.00 0.00 L 60.00 0.00 L 60.00 60.00 L 0.00 60.00 L 0.00 0.00 M 9.20 2.12 C 7.60 2.67 7.51 5.39 9.28 5.77 C 11.44 6.70 13.68 7.50 15.99 7.94 C 18.07 8.23 18.81 4.77 16.76 4.26 C 14.33 3.35 11.84 2.03 9.20 2.12 M 28.17 3.09 C 27.83 6.04 28.02 9.03 28.01 12.00 C 26.01 12.00 24.00 12.00 22.00 12.00 C 24.45 14.57 26.56 17.46 29.19 19.84 C 29.59 19.85 30.38 19.86 30.77 19.87 C 33.44 17.50 35.56 14.60 38.00 12.00 C 35.99 12.00 33.99 12.00 31.99 12.00 C 31.97 9.04 32.18 6.07 31.82 3.12 C 31.15 1.61 28.89 1.62 28.17 3.09 M 49.24 2.19 C 46.96 2.81 44.66 3.48 42.59 4.62 C 41.26 5.62 42.29 8.16 43.99 7.95 C 46.55 7.42 49.07 6.58 51.40 5.41 C 53.09 4.08 51.19 1.18 49.24 2.19 M 5.16 12.19 C 3.62 12.82 3.60 15.27 5.22 15.81 C 7.73 16.17 10.31 16.15 12.82 15.81 C 14.36 15.19 14.39 12.89 12.90 12.21 C 10.34 11.83 7.72 11.85 5.16 12.19 M 47.17 12.19 C 46.13 12.79 45.78 13.69 46.12 14.91 C 47.25 16.44 49.37 15.89 51.00 16.06 C 52.65 15.85 54.88 16.51 55.91 14.80 C 56.20 13.65 55.85 12.78 54.86 12.20 C 52.32 11.84 49.71 11.84 47.17 12.19 M 4.17 25.13 C 3.88 27.78 3.09 31.86 6.74 32.36 C 7.71 37.89 8.44 43.47 9.58 48.97 C 9.97 50.96 12.00 52.13 13.93 51.98 C 24.68 52.02 35.42 52.03 46.16 51.97 C 48.08 52.10 50.08 50.90 50.42 48.93 C 51.56 43.44 52.29 37.88 53.26 32.36 C 56.90 31.86 56.14 27.79 55.82 25.14 C 55.10 23.64 53.31 24.14 51.98 23.99 C 37.32 24.01 22.66 24.01 8.00 23.99 C 6.68 24.12 4.90 23.65 4.17 25.13 Z" />
<path fill="#ffffff" opacity="1.00" d=" M 19.21 32.09 C 20.46 31.71 22.08 32.50 21.92 33.97 C 22.05 37.60 22.17 41.26 21.81 44.88 C 21.10 46.36 18.86 46.35 18.16 44.85 C 17.87 40.95 17.86 37.00 18.18 33.10 C 18.43 32.85 18.95 32.34 19.21 32.09 Z" />
<path fill="#ffffff" opacity="1.00" d=" M 29.18 32.10 C 30.41 31.71 32.11 32.48 31.92 33.96 C 32.06 37.59 32.17 41.25 31.82 44.87 C 31.12 46.36 28.89 46.34 28.17 44.87 C 27.86 40.97 27.87 37.02 28.17 33.12 C 28.42 32.86 28.93 32.35 29.18 32.10 Z" />
<path fill="#ffffff" opacity="1.00" d=" M 39.11 32.11 C 40.38 31.72 42.08 32.42 41.92 33.96 C 42.06 37.59 42.16 41.24 41.83 44.86 C 41.12 46.35 38.84 46.37 38.17 44.84 C 37.85 41.89 37.99 38.91 37.99 35.95 C 38.07 34.60 37.76 32.95 39.11 32.11 Z" />
</g>
<g id="#000000ff">
<path fill="#000000" opacity="1.00" d=" M 9.20 2.12 C 11.84 2.03 14.33 3.35 16.76 4.26 C 18.81 4.77 18.07 8.23 15.99 7.94 C 13.68 7.50 11.44 6.70 9.28 5.77 C 7.51 5.39 7.60 2.67 9.20 2.12 Z" />
<path fill="#000000" opacity="1.00" d=" M 28.17 3.09 C 28.89 1.62 31.15 1.61 31.82 3.12 C 32.18 6.07 31.97 9.04 31.99 12.00 C 33.99 12.00 35.99 12.00 38.00 12.00 C 35.56 14.60 33.44 17.50 30.77 19.87 C 30.38 19.86 29.59 19.85 29.19 19.84 C 26.56 17.46 24.45 14.57 22.00 12.00 C 24.00 12.00 26.01 12.00 28.01 12.00 C 28.02 9.03 27.83 6.04 28.17 3.09 Z" />
<path fill="#000000" opacity="1.00" d=" M 49.24 2.19 C 51.19 1.18 53.09 4.08 51.40 5.41 C 49.07 6.58 46.55 7.42 43.99 7.95 C 42.29 8.16 41.26 5.62 42.59 4.62 C 44.66 3.48 46.96 2.81 49.24 2.19 Z" />
<path fill="#000000" opacity="1.00" d=" M 5.16 12.19 C 7.72 11.85 10.34 11.83 12.90 12.21 C 14.39 12.89 14.36 15.19 12.82 15.81 C 10.31 16.15 7.73 16.17 5.22 15.81 C 3.60 15.27 3.62 12.82 5.16 12.19 Z" />
<path fill="#000000" opacity="1.00" d=" M 47.17 12.19 C 49.71 11.84 52.32 11.84 54.86 12.20 C 55.85 12.78 56.20 13.65 55.91 14.80 C 54.88 16.51 52.65 15.85 51.00 16.06 C 49.37 15.89 47.25 16.44 46.12 14.91 C 45.78 13.69 46.13 12.79 47.17 12.19 Z" />
<path fill="#000000" opacity="1.00" d=" M 4.17 25.13 C 4.90 23.65 6.68 24.12 8.00 23.99 C 22.66 24.01 37.32 24.01 51.98 23.99 C 53.31 24.14 55.10 23.64 55.82 25.14 C 56.14 27.79 56.90 31.86 53.26 32.36 C 52.29 37.88 51.56 43.44 50.42 48.93 C 50.08 50.90 48.08 52.10 46.16 51.97 C 35.42 52.03 24.68 52.02 13.93 51.98 C 12.00 52.13 9.97 50.96 9.58 48.97 C 8.44 43.47 7.71 37.89 6.74 32.36 C 3.09 31.86 3.88 27.78 4.17 25.13 M 19.21 32.09 C 18.95 32.34 18.43 32.85 18.18 33.10 C 17.86 37.00 17.87 40.95 18.16 44.85 C 18.86 46.35 21.10 46.36 21.81 44.88 C 22.17 41.26 22.05 37.60 21.92 33.97 C 22.08 32.50 20.46 31.71 19.21 32.09 M 29.18 32.10 C 28.93 32.35 28.42 32.86 28.17 33.12 C 27.87 37.02 27.86 40.97 28.17 44.87 C 28.89 46.34 31.12 46.36 31.82 44.87 C 32.17 41.25 32.06 37.59 31.92 33.96 C 32.11 32.48 30.41 31.71 29.18 32.10 M 39.11 32.11 C 37.76 32.95 38.07 34.60 37.99 35.95 C 37.99 38.91 37.85 41.89 38.17 44.84 C 38.84 46.37 41.12 46.35 41.83 44.86 C 42.16 41.24 42.06 37.59 41.92 33.96 C 42.08 32.42 40.38 31.72 39.11 32.11 Z" />
</g>
</svg>
