<?xml version="1.0" encoding="UTF-8" ?>
<!DOCTYPE svg PUBLIC "-//W3C//DTD SVG 1.1//EN" "http://www.w3.org/Graphics/SVG/1.1/DTD/svg11.dtd">
<svg width="60pt" height="60pt" viewBox="0 0 60 60" version="1.1" xmlns="http://www.w3.org/2000/svg">
<g id="#ffffffff">
<path fill="#ffffff" opacity="1.00" d=" M 0.00 0.00 L 60.00 0.00 L 60.00 45.57 C 59.82 38.26 53.35 31.84 45.98 32.04 C 38.11 31.81 31.17 39.32 32.10 47.16 C 32.49 54.05 38.64 59.74 45.48 60.00 L 0.00 60.00 L 0.00 0.00 M 24.45 4.63 C 16.35 6.37 9.12 12.24 6.11 19.99 C 4.87 22.10 8.73 23.87 9.53 21.56 C 12.55 15.25 18.13 10.01 25.12 8.58 C 31.79 6.92 38.86 8.90 44.19 13.07 C 45.89 14.82 48.74 11.86 46.82 10.29 C 40.90 4.91 32.22 2.88 24.45 4.63 M 22.59 14.97 C 22.99 17.88 26.02 16.41 27.84 16.29 C 35.39 14.69 42.81 20.70 43.96 28.11 C 45.31 28.05 46.66 27.99 48.02 27.92 C 46.76 18.45 37.50 10.67 27.85 12.17 C 25.97 12.59 22.95 12.49 22.59 14.97 M 49.16 18.69 C 50.43 22.02 51.76 25.35 52.03 28.95 C 53.36 29.68 54.71 30.34 56.10 30.94 C 55.87 26.20 55.14 21.28 52.54 17.21 C 51.51 15.54 48.65 16.85 49.16 18.69 M 16.43 18.43 C 12.89 21.93 11.85 27.19 11.98 32.00 C 12.13 38.28 11.76 44.58 12.16 50.84 C 12.95 52.75 16.15 52.10 15.93 49.98 C 16.21 42.96 15.77 35.92 16.10 28.90 C 16.07 25.53 18.27 22.87 19.49 19.91 C 19.07 18.72 17.67 17.56 16.43 18.43 M 20.13 28.88 C 19.79 36.26 20.13 43.67 19.97 51.06 C 20.22 52.66 19.41 54.97 21.23 55.88 C 22.42 56.34 24.11 55.44 23.91 54.05 C 24.19 46.01 23.83 37.95 24.05 29.90 C 23.89 25.97 28.32 22.89 31.96 24.34 C 34.82 25.19 36.01 28.18 36.16 30.91 C 37.47 30.30 38.75 29.64 40.01 28.93 C 39.25 25.22 36.91 21.66 33.13 20.53 C 27.42 18.40 20.52 22.79 20.13 28.88 M 5.37 26.45 C 5.12 26.65 4.61 27.05 4.35 27.25 C 3.56 31.78 4.22 36.43 3.97 41.02 C 4.16 42.65 3.53 44.78 5.11 45.89 C 6.37 46.28 8.01 45.61 7.89 44.10 C 8.08 38.75 8.10 33.37 7.90 28.03 C 8.01 26.71 6.42 26.14 5.37 26.45 M 28.15 29.20 C 27.74 34.23 28.04 39.28 28.33 44.31 C 28.60 40.78 29.79 37.44 31.98 34.65 C 31.74 32.50 32.80 29.68 30.89 28.11 C 29.66 27.78 28.75 28.14 28.15 29.20 Z" />
<path fill="#ffffff" opacity="1.00" d=" M 43.96 43.96 C 44.28 41.96 43.06 38.38 45.96 37.97 C 48.93 38.28 47.74 41.96 48.04 43.96 C 50.05 44.27 53.59 43.07 54.04 45.96 C 53.68 48.92 50.06 47.75 48.04 48.04 C 47.96 50.23 48.71 54.75 45.11 53.89 C 43.30 52.53 44.26 49.97 43.96 48.04 C 42.03 47.73 39.40 48.73 38.10 46.84 C 37.28 43.26 41.78 44.05 43.96 43.96 Z" />
<path fill="#ffffff" opacity="1.00" d=" M 46.48 60.00 C 53.62 59.77 59.73 53.69 60.00 46.56 L 60.00 60.00 L 46.48 60.00 Z" />
</g>
<g id="#000000ff">
<path fill="#000000" opacity="1.00" d=" M 24.45 4.63 C 32.22 2.88 40.90 4.91 46.82 10.29 C 48.74 11.86 45.89 14.82 44.19 13.07 C 38.86 8.90 31.79 6.92 25.12 8.58 C 18.13 10.01 12.55 15.25 9.53 21.56 C 8.73 23.87 4.87 22.10 6.11 19.99 C 9.12 12.24 16.35 6.37 24.45 4.63 Z" />
<path fill="#000000" opacity="1.00" d=" M 22.59 14.97 C 22.95 12.49 25.97 12.59 27.85 12.17 C 37.50 10.67 46.76 18.45 48.02 27.92 C 46.66 27.99 45.31 28.05 43.96 28.11 C 42.81 20.70 35.39 14.69 27.84 16.29 C 26.02 16.41 22.99 17.88 22.59 14.97 Z" />
<path fill="#000000" opacity="1.00" d=" M 49.16 18.69 C 48.65 16.85 51.51 15.54 52.54 17.21 C 55.14 21.28 55.87 26.20 56.10 30.94 C 54.71 30.34 53.36 29.68 52.03 28.95 C 51.76 25.35 50.43 22.02 49.16 18.69 Z" />
<path fill="#000000" opacity="1.00" d=" M 16.43 18.43 C 17.67 17.56 19.07 18.72 19.49 19.91 C 18.27 22.87 16.07 25.53 16.10 28.90 C 15.77 35.92 16.21 42.96 15.93 49.98 C 16.15 52.10 12.95 52.75 12.16 50.84 C 11.76 44.58 12.13 38.28 11.98 32.00 C 11.85 27.19 12.89 21.93 16.43 18.43 Z" />
<path fill="#000000" opacity="1.00" d=" M 20.13 28.88 C 20.52 22.79 27.42 18.40 33.13 20.53 C 36.91 21.66 39.25 25.22 40.01 28.93 C 38.75 29.64 37.47 30.30 36.16 30.91 C 36.01 28.18 34.82 25.19 31.96 24.34 C 28.32 22.89 23.89 25.97 24.05 29.90 C 23.83 37.95 24.19 46.01 23.91 54.05 C 24.11 55.44 22.42 56.34 21.23 55.88 C 19.41 54.97 20.22 52.66 19.97 51.06 C 20.13 43.67 19.79 36.26 20.13 28.88 Z" />
<path fill="#000000" opacity="1.00" d=" M 5.37 26.45 C 6.42 26.14 8.01 26.71 7.90 28.03 C 8.10 33.37 8.08 38.75 7.89 44.10 C 8.01 45.61 6.37 46.28 5.11 45.89 C 3.53 44.78 4.16 42.65 3.97 41.02 C 4.22 36.43 3.56 31.78 4.35 27.25 C 4.61 27.05 5.12 26.65 5.37 26.45 Z" />
<path fill="#000000" opacity="1.00" d=" M 28.15 29.20 C 28.75 28.14 29.66 27.78 30.89 28.11 C 32.80 29.68 31.74 32.50 31.98 34.65 C 29.79 37.44 28.60 40.78 28.33 44.31 C 28.04 39.28 27.74 34.23 28.15 29.20 Z" />
<path fill="#000000" opacity="1.00" d=" M 32.10 47.16 C 31.17 39.32 38.11 31.81 45.98 32.04 C 53.35 31.84 59.82 38.26 60.00 45.57 L 60.00 46.56 C 59.73 53.69 53.62 59.77 46.48 60.00 L 45.48 60.00 C 38.64 59.74 32.49 54.05 32.10 47.16 M 43.96 43.96 C 41.78 44.05 37.28 43.26 38.10 46.84 C 39.40 48.73 42.03 47.73 43.96 48.04 C 44.26 49.97 43.30 52.53 45.11 53.89 C 48.71 54.75 47.96 50.23 48.04 48.04 C 50.06 47.75 53.68 48.92 54.04 45.96 C 53.59 43.07 50.05 44.27 48.04 43.96 C 47.74 41.96 48.93 38.28 45.96 37.97 C 43.06 38.38 44.28 41.96 43.96 43.96 Z" />
</g>
</svg>
