<?xml version="1.0" encoding="UTF-8" ?>
<!DOCTYPE svg PUBLIC "-//W3C//DTD SVG 1.1//EN" "http://www.w3.org/Graphics/SVG/1.1/DTD/svg11.dtd">
<svg width="60pt" height="60pt" viewBox="0 0 60 60" version="1.1" xmlns="http://www.w3.org/2000/svg">
<g id="#ffffffff">
<path fill="#ffffff" opacity="1.00" d=" M 0.00 0.00 L 60.00 0.00 L 60.00 60.00 L 0.00 60.00 L 0.00 0.00 M 8.00 4.00 C 8.00 7.28 8.00 10.55 8.00 13.83 C 6.63 14.10 3.86 13.85 4.07 15.96 C 3.93 18.47 7.32 17.75 8.91 18.29 C 10.81 19.06 10.02 22.13 7.95 21.86 C 6.61 22.17 3.82 21.87 4.07 23.99 C 3.98 27.46 10.07 24.53 9.93 28.04 C 9.94 31.42 4.06 28.59 4.06 31.94 C 3.92 35.46 10.01 32.54 9.93 36.00 C 10.00 39.44 4.13 36.56 4.03 39.94 C 4.12 43.15 8.56 41.00 9.90 43.15 C 10.41 44.73 9.09 45.56 8.02 46.39 C 7.98 49.59 8.00 52.80 8.00 56.00 C 21.37 55.96 34.74 56.08 48.11 55.95 C 50.60 55.99 52.33 53.43 52.00 51.09 C 52.01 37.05 52.00 23.00 52.00 8.95 C 52.32 6.63 50.68 3.97 48.15 4.05 C 34.77 3.92 21.38 4.05 8.00 4.00 Z" />
<path fill="#ffffff" opacity="1.00" d=" M 22.22 18.21 C 28.11 14.67 36.79 15.30 41.33 20.75 C 44.32 24.53 44.92 30.23 42.55 34.46 C 40.67 37.86 35.25 38.45 33.13 34.98 C 31.80 36.43 30.07 37.77 27.95 37.22 C 21.40 36.03 21.33 24.38 27.97 23.30 C 30.08 22.80 31.73 24.29 33.08 25.67 L 33.07 23.58 C 33.92 23.59 35.62 23.60 36.47 23.61 C 36.49 26.69 36.34 29.77 36.52 32.85 C 36.42 34.59 38.82 35.16 39.70 33.66 C 42.24 29.18 40.68 22.52 35.96 20.10 C 31.37 17.74 24.99 18.44 21.65 22.61 C 17.79 27.46 18.23 35.76 23.55 39.39 C 27.03 41.80 31.50 41.58 35.50 41.03 C 35.49 41.72 35.47 43.09 35.45 43.77 C 30.74 44.56 25.48 44.46 21.46 41.54 C 13.89 36.21 14.26 23.03 22.22 18.21 M 28.22 26.95 C 26.49 28.42 26.58 31.39 27.78 33.18 C 29.46 35.28 32.80 33.46 32.66 30.97 C 33.38 28.44 30.76 24.99 28.22 26.95 Z" />
</g>
<g id="#000000ff">
<path fill="#968176" opacity="1.00" d=" M 8.00 4.00 C 21.38 4.05 34.77 3.92 48.15 4.05 C 50.68 3.97 52.32 6.63 52.00 8.95 C 52.00 23.00 52.01 37.05 52.00 51.09 C 52.33 53.43 50.60 55.99 48.11 55.95 C 34.74 56.08 21.37 55.96 8.00 56.00 C 8.00 52.80 7.98 49.59 8.02 46.39 C 9.09 45.56 10.41 44.73 9.90 43.15 C 8.56 41.00 4.12 43.15 4.03 39.94 C 4.13 36.56 10.00 39.44 9.93 36.00 C 10.01 32.54 3.92 35.46 4.06 31.94 C 4.06 28.59 9.94 31.42 9.93 28.04 C 10.07 24.53 3.98 27.46 4.07 23.99 C 3.82 21.87 6.61 22.17 7.95 21.86 C 10.02 22.13 10.81 19.06 8.91 18.29 C 7.32 17.75 3.93 18.47 4.07 15.96 C 3.86 13.85 6.63 14.10 8.00 13.83 C 8.00 10.55 8.00 7.28 8.00 4.00 M 22.22 18.21 C 14.26 23.03 13.89 36.21 21.46 41.54 C 25.48 44.46 30.74 44.56 35.45 43.77 C 35.47 43.09 35.49 41.72 35.50 41.03 C 31.50 41.58 27.03 41.80 23.55 39.39 C 18.23 35.76 17.79 27.46 21.65 22.61 C 24.99 18.44 31.37 17.74 35.96 20.10 C 40.68 22.52 42.24 29.18 39.70 33.66 C 38.82 35.16 36.42 34.59 36.52 32.85 C 36.34 29.77 36.49 26.69 36.47 23.61 C 35.62 23.60 33.92 23.59 33.07 23.58 L 33.08 25.67 C 31.73 24.29 30.08 22.80 27.97 23.30 C 21.33 24.38 21.40 36.03 27.95 37.22 C 30.07 37.77 31.80 36.43 33.13 34.98 C 35.25 38.45 40.67 37.86 42.55 34.46 C 44.92 30.23 44.32 24.53 41.33 20.75 C 36.79 15.30 28.11 14.67 22.22 18.21 Z" />
<path fill="#968176" opacity="1.00" d=" M 28.22 26.95 C 30.76 24.99 33.38 28.44 32.66 30.97 C 32.80 33.46 29.46 35.28 27.78 33.18 C 26.58 31.39 26.49 28.42 28.22 26.95 Z" />
</g>
</svg>
