<?xml version="1.0" encoding="UTF-8" ?>
<!DOCTYPE svg PUBLIC "-//W3C//DTD SVG 1.1//EN" "http://www.w3.org/Graphics/SVG/1.1/DTD/svg11.dtd">
<svg width="64pt" height="64pt" viewBox="0 0 64 64" version="1.1" xmlns="http://www.w3.org/2000/svg">
<g id="#ffffffff">
<path fill="#ffffff" opacity="1.00" d=" M 0.00 0.00 L 64.00 0.00 L 64.00 64.00 L 0.00 64.00 L 0.00 0.00 M 17.78 9.74 C 11.19 14.12 7.16 22.26 8.19 30.17 C 8.70 34.60 11.04 38.49 12.67 42.57 C 14.81 47.43 13.77 52.86 14.00 58.00 C 15.33 58.00 16.66 58.00 18.00 58.00 C 17.78 52.72 18.73 47.20 16.80 42.14 C 15.26 37.79 12.53 33.81 12.08 29.12 C 11.37 21.34 16.57 13.61 23.91 11.07 C 31.84 8.16 42.18 11.07 45.81 19.13 C 47.82 24.47 50.53 29.48 53.04 34.60 C 51.36 35.09 49.68 35.60 48.00 36.11 C 47.84 39.45 48.85 43.52 46.07 46.09 C 44.02 48.41 40.76 47.98 38.00 48.04 C 38.00 51.36 38.00 54.68 38.00 58.00 C 39.33 58.00 40.67 58.00 42.00 58.00 C 42.00 56.05 42.00 54.10 42.00 52.16 C 48.38 51.64 52.97 45.47 52.07 39.21 C 54.45 38.52 57.53 37.02 56.85 34.00 C 55.39 29.11 52.20 24.95 50.59 20.11 C 48.94 15.38 45.68 11.15 41.24 8.74 C 34.02 4.85 24.60 5.06 17.78 9.74 M 31.71 15.00 C 31.62 15.80 31.42 17.39 31.32 18.18 C 27.78 17.98 23.86 17.63 20.77 19.73 C 18.32 21.25 17.20 24.00 16.05 26.50 C 17.29 26.95 18.52 27.40 19.76 27.85 C 20.71 26.15 21.31 24.04 23.07 22.97 C 25.42 21.60 28.24 22.14 30.82 22.14 C 30.73 22.95 30.55 24.57 30.46 25.38 C 33.64 24.26 36.82 23.13 40.00 22.00 C 37.24 19.66 34.48 17.33 31.71 15.00 M 40.23 26.35 C 39.23 28.19 38.54 30.51 36.48 31.47 C 34.19 32.50 31.60 32.07 29.17 32.05 C 29.26 31.25 29.45 29.63 29.54 28.83 C 26.35 29.93 23.18 31.07 20.01 32.23 C 22.77 34.54 25.50 36.88 28.28 39.16 C 28.38 38.38 28.58 36.81 28.68 36.03 C 32.30 36.21 36.36 36.57 39.47 34.31 C 41.76 32.77 42.80 30.10 43.97 27.72 C 42.72 27.26 41.48 26.81 40.23 26.35 Z" />
</g>
<g id="#000000ff">
<path fill="#000000" opacity="1.00" d=" M 17.78 9.74 C 24.60 5.06 34.02 4.85 41.24 8.74 C 45.68 11.15 48.94 15.38 50.59 20.11 C 52.20 24.95 55.39 29.11 56.85 34.00 C 57.53 37.02 54.45 38.52 52.07 39.21 C 52.97 45.47 48.38 51.64 42.00 52.16 C 42.00 54.10 42.00 56.05 42.00 58.00 C 40.67 58.00 39.33 58.00 38.00 58.00 C 38.00 54.68 38.00 51.36 38.00 48.04 C 40.76 47.98 44.02 48.41 46.07 46.09 C 48.85 43.52 47.84 39.45 48.00 36.11 C 49.68 35.60 51.36 35.09 53.04 34.60 C 50.53 29.48 47.82 24.47 45.81 19.13 C 42.18 11.07 31.84 8.16 23.91 11.07 C 16.57 13.61 11.37 21.34 12.08 29.12 C 12.53 33.81 15.26 37.79 16.80 42.14 C 18.73 47.20 17.78 52.72 18.00 58.00 C 16.66 58.00 15.33 58.00 14.00 58.00 C 13.77 52.86 14.81 47.43 12.67 42.57 C 11.04 38.49 8.70 34.60 8.19 30.17 C 7.16 22.26 11.19 14.12 17.78 9.74 Z" />
<path fill="#000000" opacity="1.00" d=" M 31.71 15.00 C 34.48 17.33 37.24 19.66 40.00 22.00 C 36.82 23.13 33.64 24.26 30.46 25.38 C 30.55 24.57 30.73 22.95 30.82 22.14 C 28.24 22.14 25.42 21.60 23.07 22.97 C 21.31 24.04 20.71 26.15 19.76 27.85 C 18.52 27.40 17.29 26.95 16.05 26.50 C 17.20 24.00 18.32 21.25 20.77 19.73 C 23.86 17.63 27.78 17.98 31.32 18.18 C 31.42 17.39 31.62 15.80 31.71 15.00 Z" />
<path fill="#000000" opacity="1.00" d=" M 40.23 26.35 C 41.48 26.81 42.72 27.26 43.97 27.72 C 42.80 30.10 41.76 32.77 39.47 34.31 C 36.36 36.57 32.30 36.21 28.68 36.03 C 28.58 36.81 28.38 38.38 28.28 39.16 C 25.50 36.88 22.77 34.54 20.01 32.23 C 23.18 31.07 26.35 29.93 29.54 28.83 C 29.45 29.63 29.26 31.25 29.17 32.05 C 31.60 32.07 34.19 32.50 36.48 31.47 C 38.54 30.51 39.23 28.19 40.23 26.35 Z" />
</g>
</svg>
