<?xml version="1.0" encoding="UTF-8" ?>
<!DOCTYPE svg PUBLIC "-//W3C//DTD SVG 1.1//EN" "http://www.w3.org/Graphics/SVG/1.1/DTD/svg11.dtd">
<svg width="64pt" height="64pt" viewBox="0 0 64 64" version="1.1" xmlns="http://www.w3.org/2000/svg">
<g id="#ffffffff">
<path fill="#ffffff" opacity="1.00" d=" M 0.00 0.00 L 64.00 0.00 L 64.00 64.00 L 0.00 64.00 L 0.00 0.00 M 14.06 8.00 C 14.06 9.94 14.06 11.88 14.06 13.82 C 10.99 13.55 7.46 15.40 7.99 18.95 C 7.33 22.54 10.91 24.46 14.00 24.17 C 14.02 34.78 14.04 45.39 14.06 56.00 C 15.40 56.00 16.73 56.00 18.06 56.00 C 18.04 45.39 18.02 34.78 18.00 24.17 C 21.11 24.49 24.57 22.53 24.07 18.99 C 24.72 15.42 21.08 13.54 18.02 13.81 C 18.05 11.87 18.07 9.94 18.07 8.00 C 16.73 8.00 15.40 8.00 14.06 8.00 M 30.06 8.00 C 30.07 17.94 30.06 27.88 30.06 37.82 C 26.98 37.55 23.45 39.42 23.99 42.98 C 23.34 46.55 26.92 48.46 30.00 48.17 C 30.02 50.79 30.04 53.40 30.06 56.02 C 31.40 55.99 32.73 55.95 34.06 55.92 C 34.04 53.33 34.02 50.75 33.99 48.17 C 37.08 48.48 40.54 46.56 40.07 43.04 C 40.74 39.44 37.10 37.54 34.02 37.81 C 34.12 27.87 34.04 17.94 34.06 8.00 C 32.73 8.00 31.39 8.00 30.06 8.00 M 46.06 8.00 C 46.06 12.61 46.06 17.22 46.06 21.82 C 42.95 21.54 39.43 23.45 39.99 27.03 C 39.37 30.58 42.94 32.45 46.00 32.17 C 46.02 40.11 46.04 48.05 46.06 56.00 C 47.39 56.00 48.73 56.00 50.06 56.00 C 50.04 48.06 50.02 40.11 50.00 32.17 C 53.11 32.50 56.56 30.52 56.07 26.99 C 56.72 23.43 53.08 21.54 50.02 21.81 C 50.10 17.21 50.05 12.60 50.06 8.00 C 48.73 8.00 47.39 8.00 46.06 8.00 Z" />
<path fill="#ffffff" opacity="1.00" d=" M 12.03 18.02 C 14.71 18.00 17.39 18.00 20.06 18.00 C 20.05 18.50 20.01 19.50 19.99 20.00 C 17.33 20.00 14.66 20.00 12.00 19.99 C 12.01 19.50 12.02 18.51 12.03 18.02 Z" />
<path fill="#ffffff" opacity="1.00" d=" M 44.03 26.02 C 46.71 26.00 49.39 26.00 52.06 26.00 C 52.05 26.50 52.01 27.50 51.99 28.00 C 49.33 28.00 46.66 28.00 44.00 27.99 C 44.00 27.50 44.02 26.51 44.03 26.02 Z" />
<path fill="#ffffff" opacity="1.00" d=" M 28.03 42.02 C 30.71 42.00 33.39 42.00 36.06 42.00 C 36.05 42.50 36.01 43.50 35.99 44.00 C 33.33 44.00 30.66 44.00 28.00 43.99 C 28.01 43.50 28.02 42.51 28.03 42.02 Z" />
</g>
<g id="#000000ff">
<path fill="#000000" opacity="1.00" d=" M 14.06 8.00 C 15.40 8.00 16.73 8.00 18.07 8.00 C 18.07 9.94 18.05 11.87 18.02 13.81 C 21.08 13.54 24.72 15.42 24.07 18.99 C 24.57 22.53 21.11 24.49 18.00 24.17 C 18.02 34.78 18.04 45.39 18.06 56.00 C 16.73 56.00 15.40 56.00 14.06 56.00 C 14.04 45.39 14.02 34.78 14.00 24.17 C 10.91 24.46 7.33 22.54 7.99 18.95 C 7.46 15.40 10.99 13.55 14.06 13.82 C 14.06 11.88 14.06 9.94 14.06 8.00 M 12.03 18.02 C 12.02 18.51 12.01 19.50 12.00 19.99 C 14.66 20.00 17.33 20.00 19.99 20.00 C 20.01 19.50 20.05 18.50 20.06 18.00 C 17.39 18.00 14.71 18.00 12.03 18.02 Z" />
<path fill="#000000" opacity="1.00" d=" M 30.06 8.00 C 31.39 8.00 32.73 8.00 34.06 8.00 C 34.04 17.94 34.12 27.87 34.02 37.81 C 37.10 37.54 40.74 39.44 40.07 43.04 C 40.54 46.56 37.08 48.48 33.99 48.17 C 34.02 50.75 34.04 53.33 34.06 55.92 C 32.73 55.95 31.40 55.99 30.06 56.02 C 30.04 53.40 30.02 50.79 30.00 48.17 C 26.92 48.46 23.34 46.55 23.99 42.98 C 23.45 39.42 26.98 37.55 30.06 37.82 C 30.06 27.88 30.07 17.94 30.06 8.00 M 28.03 42.02 C 28.02 42.51 28.01 43.50 28.00 43.99 C 30.66 44.00 33.33 44.00 35.99 44.00 C 36.01 43.50 36.05 42.50 36.06 42.00 C 33.39 42.00 30.71 42.00 28.03 42.02 Z" />
<path fill="#000000" opacity="1.00" d=" M 46.06 8.00 C 47.39 8.00 48.73 8.00 50.06 8.00 C 50.05 12.60 50.10 17.21 50.02 21.81 C 53.08 21.54 56.72 23.43 56.07 26.99 C 56.56 30.52 53.11 32.50 50.00 32.17 C 50.02 40.11 50.04 48.06 50.06 56.00 C 48.73 56.00 47.39 56.00 46.06 56.00 C 46.04 48.05 46.02 40.11 46.00 32.17 C 42.94 32.45 39.37 30.58 39.99 27.03 C 39.43 23.45 42.95 21.54 46.06 21.82 C 46.06 17.22 46.06 12.61 46.06 8.00 M 44.03 26.02 C 44.02 26.51 44.00 27.50 44.00 27.99 C 46.66 28.00 49.33 28.00 51.99 28.00 C 52.01 27.50 52.05 26.50 52.06 26.00 C 49.39 26.00 46.71 26.00 44.03 26.02 Z" />
</g>
</svg>
