<?xml version="1.0" encoding="UTF-8" ?>
<!DOCTYPE svg PUBLIC "-//W3C//DTD SVG 1.1//EN" "http://www.w3.org/Graphics/SVG/1.1/DTD/svg11.dtd">
<svg width="60pt" height="60pt" viewBox="0 0 60 60" version="1.1" xmlns="http://www.w3.org/2000/svg">
<g id="#ffffffff">
<path fill="#ffffff" opacity="1.00" d=" M 0.00 0.00 L 60.00 0.00 L 60.00 60.00 L 0.00 60.00 L 0.00 0.00 M 29.29 4.24 C 21.85 8.09 14.51 12.16 7.20 16.25 C 5.15 16.87 5.95 20.19 8.03 19.93 C 22.71 20.04 37.40 20.07 52.08 19.91 C 54.09 20.11 54.79 16.86 52.83 16.27 C 46.22 12.44 39.43 8.92 32.77 5.19 C 31.66 4.84 30.48 3.57 29.29 4.24 M 12.00 24.00 C 12.00 26.67 12.00 29.33 12.00 32.00 C 13.33 32.00 14.67 32.00 16.00 32.00 C 16.00 29.33 16.00 26.67 16.00 24.00 C 14.67 24.00 13.33 24.00 12.00 24.00 M 20.00 24.00 C 20.00 26.67 20.00 29.33 20.00 32.00 C 21.33 32.00 22.67 32.00 24.00 32.00 C 24.00 29.33 24.00 26.67 24.00 24.00 C 22.67 24.00 21.33 24.00 20.00 24.00 M 28.00 24.00 C 28.00 26.67 28.00 29.33 28.00 32.00 C 29.33 32.00 30.67 32.00 32.00 32.00 C 32.00 29.33 32.00 26.67 32.00 24.00 C 30.67 24.00 29.33 24.00 28.00 24.00 M 36.00 24.00 C 36.00 26.67 36.00 29.33 36.00 32.00 C 37.33 32.00 38.67 32.00 40.00 32.00 C 40.00 29.33 40.00 26.67 40.00 24.00 C 38.67 24.00 37.33 24.00 36.00 24.00 M 44.00 24.00 C 44.00 26.67 44.00 29.33 44.00 32.00 C 45.33 32.00 46.67 32.00 48.00 32.00 C 48.00 29.33 48.00 26.67 48.00 24.00 C 46.67 24.00 45.33 24.00 44.00 24.00 M 9.99 37.98 C 9.90 39.70 11.89 39.79 13.02 40.32 C 11.12 45.33 10.13 50.64 9.92 55.99 C 23.31 56.01 36.69 56.01 50.08 55.99 C 49.85 50.64 48.87 45.34 46.98 40.33 C 47.97 39.72 50.31 39.72 49.93 38.00 C 50.27 36.41 48.27 35.90 47.09 36.02 C 35.70 35.98 24.32 35.98 12.94 36.02 C 11.64 35.86 9.96 36.39 9.99 37.98 Z" />
<path fill="#ffffff" opacity="1.00" d=" M 28.35 10.52 C 30.51 8.84 33.94 11.46 32.78 13.96 C 32.32 15.78 29.88 16.56 28.38 15.50 C 26.60 14.46 26.59 11.58 28.35 10.52 Z" />
<path fill="#ffffff" opacity="1.00" d=" M 35.24 40.16 C 37.24 39.23 38.95 42.00 37.34 43.41 C 34.57 46.28 31.84 49.24 28.79 51.82 C 26.42 52.39 25.13 49.67 23.54 48.40 C 22.13 47.39 21.22 44.99 23.24 44.09 C 25.42 43.69 26.56 46.00 28.04 47.14 C 30.46 44.83 32.62 42.25 35.24 40.16 Z" />
</g>
<g id="#000000ff">
<path fill="#968176" opacity="1.00" d=" M 29.29 4.24 C 30.48 3.57 31.66 4.84 32.77 5.19 C 39.43 8.92 46.22 12.44 52.83 16.27 C 54.79 16.86 54.09 20.11 52.08 19.91 C 37.40 20.07 22.71 20.04 8.03 19.93 C 5.95 20.19 5.15 16.87 7.20 16.25 C 14.51 12.16 21.85 8.09 29.29 4.24 M 28.35 10.52 C 26.59 11.58 26.60 14.46 28.38 15.50 C 29.88 16.56 32.32 15.78 32.78 13.96 C 33.94 11.46 30.51 8.84 28.35 10.52 Z" />
<path fill="#968176" opacity="1.00" d=" M 12.00 24.00 C 13.33 24.00 14.67 24.00 16.00 24.00 C 16.00 26.67 16.00 29.33 16.00 32.00 C 14.67 32.00 13.33 32.00 12.00 32.00 C 12.00 29.33 12.00 26.67 12.00 24.00 Z" />
<path fill="#968176" opacity="1.00" d=" M 20.00 24.00 C 21.33 24.00 22.67 24.00 24.00 24.00 C 24.00 26.67 24.00 29.33 24.00 32.00 C 22.67 32.00 21.33 32.00 20.00 32.00 C 20.00 29.33 20.00 26.67 20.00 24.00 Z" />
<path fill="#968176" opacity="1.00" d=" M 28.00 24.00 C 29.33 24.00 30.67 24.00 32.00 24.00 C 32.00 26.67 32.00 29.33 32.00 32.00 C 30.67 32.00 29.33 32.00 28.00 32.00 C 28.00 29.33 28.00 26.67 28.00 24.00 Z" />
<path fill="#968176" opacity="1.00" d=" M 36.00 24.00 C 37.33 24.00 38.67 24.00 40.00 24.00 C 40.00 26.67 40.00 29.33 40.00 32.00 C 38.67 32.00 37.33 32.00 36.00 32.00 C 36.00 29.33 36.00 26.67 36.00 24.00 Z" />
<path fill="#968176" opacity="1.00" d=" M 44.00 24.00 C 45.33 24.00 46.67 24.00 48.00 24.00 C 48.00 26.67 48.00 29.33 48.00 32.00 C 46.67 32.00 45.33 32.00 44.00 32.00 C 44.00 29.33 44.00 26.67 44.00 24.00 Z" />
<path fill="#968176" opacity="1.00" d=" M 9.99 37.98 C 9.96 36.39 11.64 35.86 12.94 36.02 C 24.32 35.98 35.70 35.98 47.09 36.02 C 48.27 35.90 50.27 36.41 49.93 38.00 C 50.31 39.72 47.97 39.72 46.98 40.33 C 48.87 45.34 49.85 50.64 50.08 55.99 C 36.69 56.01 23.31 56.01 9.92 55.99 C 10.13 50.64 11.12 45.33 13.02 40.32 C 11.89 39.79 9.90 39.70 9.99 37.98 M 35.24 40.16 C 32.62 42.25 30.46 44.83 28.04 47.14 C 26.56 46.00 25.42 43.69 23.24 44.09 C 21.22 44.99 22.13 47.39 23.54 48.40 C 25.13 49.67 26.42 52.39 28.79 51.82 C 31.84 49.24 34.57 46.28 37.34 43.41 C 38.95 42.00 37.24 39.23 35.24 40.16 Z" />
</g>
</svg>
