<?xml version="1.0" encoding="UTF-8" ?>
<!DOCTYPE svg PUBLIC "-//W3C//DTD SVG 1.1//EN" "http://www.w3.org/Graphics/SVG/1.1/DTD/svg11.dtd">
<svg width="60pt" height="60pt" viewBox="0 0 60 60" version="1.1" xmlns="http://www.w3.org/2000/svg">
<g id="#ffffffff">
<path fill="#ffffff" opacity="1.00" d=" M 0.00 0.00 L 60.00 0.00 L 60.00 47.78 C 57.77 46.43 57.89 44.23 58.45 42.00 C 55.99 41.58 54.40 39.98 53.99 37.51 C 51.76 38.42 49.76 37.63 48.00 36.18 C 46.25 37.64 44.24 38.41 42.01 37.52 C 41.56 39.97 40.01 41.64 37.50 42.00 C 38.44 44.23 37.64 46.23 36.18 48.00 C 37.65 49.76 38.43 51.77 37.51 54.00 C 39.99 54.39 41.57 55.99 42.01 58.45 C 44.26 57.75 46.43 58.13 48.00 60.00 L 0.00 60.00 L 0.00 0.00 M 19.85 10.89 C 17.71 14.24 17.74 18.45 18.70 22.19 C 18.47 23.55 17.66 25.05 18.60 26.33 C 20.28 29.05 21.88 31.86 24.00 34.26 C 24.00 35.37 24.00 36.48 24.01 37.60 C 23.11 38.58 22.23 39.59 21.39 40.63 C 17.26 42.28 12.52 42.87 9.08 45.88 C 6.73 47.90 6.22 51.08 5.83 53.97 C 12.76 54.03 19.69 53.99 26.62 53.99 C 27.41 51.38 28.21 48.77 29.00 46.16 C 28.24 44.77 27.48 43.39 26.72 42.00 C 28.85 42.01 30.98 41.99 33.11 42.00 C 34.56 39.56 36.44 37.19 36.14 34.16 C 38.30 30.49 43.08 26.88 41.31 22.22 C 42.37 17.95 42.59 11.67 37.90 9.49 C 35.78 8.56 34.06 6.82 31.81 6.19 C 27.43 5.53 22.28 6.90 19.85 10.89 Z" />
<path fill="#ffffff" opacity="1.00" d=" M 45.43 42.58 C 49.19 40.59 54.16 43.77 53.99 47.99 C 54.20 52.48 48.62 55.65 44.88 53.11 C 40.86 50.92 41.21 44.35 45.43 42.58 M 47.12 46.10 C 44.92 47.28 46.39 50.84 48.81 49.89 C 51.18 48.78 49.56 45.13 47.12 46.10 Z" />
<path fill="#ffffff" opacity="1.00" d=" M 58.46 54.00 C 57.71 51.74 58.15 49.57 60.00 47.99 L 60.00 60.00 L 48.22 60.00 C 49.54 57.75 51.78 57.96 53.99 58.44 C 54.44 55.98 55.99 54.42 58.46 54.00 Z" />
</g>
<g id="#000000ff">
<path fill="#000000" opacity="1.00" d=" M 19.85 10.89 C 22.28 6.90 27.43 5.53 31.81 6.19 C 34.06 6.82 35.78 8.56 37.90 9.49 C 42.59 11.67 42.37 17.95 41.31 22.22 C 43.08 26.88 38.30 30.49 36.14 34.16 C 36.44 37.19 34.56 39.56 33.11 42.00 C 30.98 41.99 28.85 42.01 26.72 42.00 C 27.48 43.39 28.24 44.77 29.00 46.16 C 28.21 48.77 27.41 51.38 26.62 53.99 C 19.69 53.99 12.76 54.03 5.83 53.97 C 6.22 51.08 6.73 47.90 9.08 45.88 C 12.52 42.87 17.26 42.28 21.39 40.63 C 22.23 39.59 23.11 38.58 24.01 37.60 C 24.00 36.48 24.00 35.37 24.00 34.26 C 21.88 31.86 20.28 29.05 18.60 26.33 C 17.66 25.05 18.47 23.55 18.70 22.19 C 17.74 18.45 17.71 14.24 19.85 10.89 Z" />
<path fill="#000000" opacity="1.00" d=" M 42.01 37.52 C 44.24 38.41 46.25 37.64 48.00 36.18 C 49.76 37.63 51.76 38.42 53.99 37.51 C 54.40 39.98 55.99 41.58 58.45 42.00 C 57.89 44.23 57.77 46.43 60.00 47.78 L 60.00 47.99 C 58.15 49.57 57.71 51.74 58.46 54.00 C 55.99 54.42 54.44 55.98 53.99 58.44 C 51.78 57.96 49.54 57.75 48.22 60.00 L 48.00 60.00 C 46.43 58.13 44.26 57.75 42.01 58.45 C 41.57 55.99 39.99 54.39 37.51 54.00 C 38.43 51.77 37.65 49.76 36.18 48.00 C 37.64 46.23 38.44 44.23 37.50 42.00 C 40.01 41.64 41.56 39.97 42.01 37.52 M 45.43 42.58 C 41.21 44.35 40.86 50.92 44.88 53.11 C 48.62 55.65 54.20 52.48 53.99 47.99 C 54.16 43.77 49.19 40.59 45.43 42.58 Z" />
<path fill="#000000" opacity="1.00" d=" M 47.12 46.10 C 49.56 45.13 51.18 48.78 48.81 49.89 C 46.39 50.84 44.92 47.28 47.12 46.10 Z" />
</g>
</svg>
