<?xml version="1.0" encoding="UTF-8" ?>
<!DOCTYPE svg PUBLIC "-//W3C//DTD SVG 1.1//EN" "http://www.w3.org/Graphics/SVG/1.1/DTD/svg11.dtd">
<svg width="64pt" height="64pt" viewBox="0 0 64 64" version="1.1" xmlns="http://www.w3.org/2000/svg">
<g id="#ffffffff">
<path fill="#ffffff" opacity="1.00" d=" M 0.00 0.00 L 64.00 0.00 L 64.00 48.00 C 62.63 48.00 61.26 48.00 59.89 47.99 C 59.40 46.84 58.90 45.69 58.38 44.55 C 59.30 43.48 60.32 42.50 61.31 41.49 C 60.36 40.56 59.42 39.63 58.47 38.71 C 57.49 39.67 56.52 40.66 55.53 41.61 C 54.36 41.11 53.19 40.61 52.01 40.11 C 52.00 38.74 52.00 37.37 51.99 36.00 C 50.66 36.00 49.33 36.00 48.00 36.00 C 48.00 37.37 48.00 38.75 48.00 40.12 C 46.78 40.61 45.57 41.11 44.36 41.60 C 43.42 40.62 42.48 39.65 41.53 38.68 C 40.57 39.63 39.62 40.59 38.70 41.57 C 39.66 42.50 40.63 43.43 41.60 44.37 C 41.11 45.58 40.61 46.78 40.13 47.99 C 38.75 48.00 37.38 48.00 36.00 48.00 C 36.00 49.33 36.00 50.66 36.00 51.99 C 37.38 52.00 38.75 52.00 40.13 52.01 C 40.61 53.22 41.11 54.43 41.60 55.65 C 40.63 56.58 39.66 57.52 38.69 58.45 C 39.63 59.42 40.58 60.38 41.55 61.32 C 42.49 60.35 43.43 59.37 44.37 58.40 C 45.58 58.89 46.79 59.39 48.00 59.88 C 48.00 61.25 48.00 62.62 48.00 64.00 L 0.00 64.00 L 0.00 0.00 M 19.57 17.63 C 16.29 23.70 18.43 31.79 24.14 35.60 C 16.94 38.69 11.98 46.15 11.99 53.99 C 13.31 54.00 14.63 54.00 15.94 54.00 C 16.00 49.77 17.75 45.74 20.62 42.66 C 22.50 44.46 23.88 46.71 25.58 48.68 C 28.09 47.01 30.60 45.35 33.10 43.66 C 32.37 42.55 31.63 41.44 30.89 40.34 C 29.40 41.33 27.92 42.32 26.43 43.31 C 25.60 42.26 24.77 41.21 23.96 40.15 C 28.32 37.28 33.85 38.79 38.38 36.43 C 44.59 33.38 49.96 28.86 54.84 24.01 C 49.59 18.79 43.85 13.72 36.90 10.93 C 30.50 8.35 22.60 11.46 19.57 17.63 Z" />
<path fill="#ffffff" opacity="1.00" d=" M 22.08 25.05 C 21.12 18.65 27.70 12.57 34.00 14.29 C 39.76 16.10 44.65 19.89 48.97 24.00 C 44.60 28.04 39.74 31.81 34.01 33.67 C 28.51 35.20 22.48 30.69 22.08 25.05 Z" />
<path fill="#ffffff" opacity="1.00" d=" M 47.49 44.55 C 51.26 42.60 56.18 45.81 56.00 50.03 C 56.16 54.47 50.68 57.62 46.94 55.15 C 42.85 53.00 43.18 46.27 47.49 44.55 M 49.15 48.11 C 46.86 49.23 48.42 52.89 50.85 51.88 C 53.13 50.75 51.57 47.13 49.15 48.11 Z" />
<path fill="#ffffff" opacity="1.00" d=" M 58.38 55.52 C 58.89 54.35 59.39 53.18 59.88 52.01 C 61.25 52.00 62.63 52.00 64.00 52.00 L 64.00 64.00 L 52.00 64.00 C 52.00 62.62 52.00 61.25 52.00 59.87 C 53.21 59.38 54.41 58.89 55.61 58.40 C 56.58 59.38 57.54 60.35 58.51 61.32 C 59.45 60.37 60.38 59.41 61.30 58.45 C 60.33 57.47 59.34 56.51 58.38 55.52 Z" />
</g>
<g id="#000000ff">
<path fill="#000000" opacity="1.00" d=" M 19.57 17.63 C 22.60 11.46 30.50 8.35 36.90 10.93 C 43.85 13.72 49.59 18.79 54.84 24.01 C 49.96 28.86 44.59 33.38 38.38 36.43 C 33.85 38.79 28.32 37.28 23.96 40.15 C 24.77 41.21 25.60 42.26 26.43 43.31 C 27.92 42.32 29.40 41.33 30.89 40.34 C 31.63 41.44 32.37 42.55 33.10 43.66 C 30.60 45.35 28.09 47.01 25.58 48.68 C 23.88 46.71 22.50 44.46 20.62 42.66 C 17.75 45.74 16.00 49.77 15.94 54.00 C 14.63 54.00 13.31 54.00 11.99 53.99 C 11.98 46.15 16.94 38.69 24.14 35.60 C 18.43 31.79 16.29 23.70 19.57 17.63 M 22.08 25.05 C 22.48 30.69 28.51 35.20 34.01 33.67 C 39.74 31.81 44.60 28.04 48.97 24.00 C 44.65 19.89 39.76 16.10 34.00 14.29 C 27.70 12.57 21.12 18.65 22.08 25.05 Z" />
<path fill="#000000" opacity="1.00" d=" M 48.00 36.00 C 49.33 36.00 50.66 36.00 51.99 36.00 C 52.00 37.37 52.00 38.74 52.01 40.11 C 53.19 40.61 54.36 41.11 55.53 41.61 C 56.52 40.66 57.49 39.67 58.47 38.71 C 59.42 39.63 60.36 40.56 61.31 41.49 C 60.32 42.50 59.30 43.48 58.38 44.55 C 58.90 45.69 59.40 46.84 59.89 47.99 C 61.26 48.00 62.63 48.00 64.00 48.00 L 64.00 52.00 C 62.63 52.00 61.25 52.00 59.88 52.01 C 59.39 53.18 58.89 54.35 58.38 55.52 C 59.34 56.51 60.33 57.47 61.30 58.45 C 60.38 59.41 59.45 60.37 58.51 61.32 C 57.54 60.35 56.58 59.38 55.61 58.40 C 54.41 58.89 53.21 59.38 52.00 59.87 C 52.00 61.25 52.00 62.62 52.00 64.00 L 48.00 64.00 C 48.00 62.62 48.00 61.25 48.00 59.88 C 46.79 59.39 45.58 58.89 44.37 58.40 C 43.43 59.37 42.49 60.35 41.55 61.32 C 40.58 60.38 39.63 59.42 38.69 58.45 C 39.66 57.52 40.63 56.58 41.60 55.65 C 41.11 54.43 40.61 53.22 40.13 52.01 C 38.75 52.00 37.38 52.00 36.00 51.99 C 36.00 50.66 36.00 49.33 36.00 48.00 C 37.38 48.00 38.75 48.00 40.13 47.99 C 40.61 46.78 41.11 45.58 41.60 44.37 C 40.63 43.43 39.66 42.50 38.70 41.57 C 39.62 40.59 40.57 39.63 41.53 38.68 C 42.48 39.65 43.42 40.62 44.36 41.60 C 45.57 41.11 46.78 40.61 48.00 40.12 C 48.00 38.75 48.00 37.37 48.00 36.00 M 47.49 44.55 C 43.18 46.27 42.85 53.00 46.94 55.15 C 50.68 57.62 56.16 54.47 56.00 50.03 C 56.18 45.81 51.26 42.60 47.49 44.55 Z" />
<path fill="#000000" opacity="1.00" d=" M 49.15 48.11 C 51.57 47.13 53.13 50.75 50.85 51.88 C 48.42 52.89 46.86 49.23 49.15 48.11 Z" />
</g>
</svg>
