<?xml version="1.0" encoding="UTF-8" ?>
<!DOCTYPE svg PUBLIC "-//W3C//DTD SVG 1.1//EN" "http://www.w3.org/Graphics/SVG/1.1/DTD/svg11.dtd">
<svg width="64pt" height="64pt" viewBox="0 0 64 64" version="1.1" xmlns="http://www.w3.org/2000/svg">
<g id="#ffffffff">
<path fill="#ffffff" opacity="1.00" d=" M 0.00 0.00 L 64.00 0.00 L 64.00 64.00 L 0.00 64.00 L 0.00 0.00 M 5.97 18.81 C 5.99 20.56 6.01 22.31 6.01 24.06 C 7.34 24.06 8.67 24.07 10.00 24.07 C 10.00 30.04 10.00 36.02 10.00 42.00 C 8.67 42.00 7.33 42.00 6.00 42.00 C 6.00 43.33 6.00 44.67 6.00 46.00 C 10.00 46.00 14.00 46.00 18.00 46.00 C 18.00 49.33 18.00 52.67 18.00 56.00 C 27.33 56.00 36.67 56.00 46.00 56.00 C 46.00 52.67 46.00 49.33 46.00 46.00 C 50.00 46.00 54.00 46.00 58.00 46.00 C 58.00 44.67 58.00 43.33 58.00 42.00 C 56.67 42.00 55.33 42.00 54.00 42.00 C 54.00 36.02 53.99 30.04 54.00 24.07 C 55.33 24.07 56.67 24.06 58.00 24.06 C 58.00 22.30 58.00 20.53 58.01 18.76 C 49.37 15.11 40.70 11.51 32.03 7.94 C 23.33 11.55 14.64 15.16 5.97 18.81 Z" />
<path fill="#ffffff" opacity="1.00" d=" M 13.41 20.06 C 19.57 17.38 25.83 14.93 31.99 12.25 C 38.22 14.79 44.43 17.40 50.63 20.04 C 38.22 20.10 25.81 20.05 13.41 20.06 Z" />
<path fill="#ffffff" opacity="1.00" d=" M 14.00 24.07 C 15.33 24.07 16.67 24.07 18.00 24.07 C 18.00 30.04 18.00 36.02 18.00 42.00 C 16.67 42.00 15.33 42.00 14.00 42.00 C 14.00 36.02 14.00 30.04 14.00 24.07 Z" />
<path fill="#ffffff" opacity="1.00" d=" M 22.00 24.07 C 23.33 24.07 24.67 24.07 26.00 24.07 C 26.00 27.38 26.00 30.69 26.00 34.00 C 24.67 34.00 23.33 34.00 22.00 34.00 C 22.00 30.69 22.00 27.38 22.00 24.07 Z" />
<path fill="#ffffff" opacity="1.00" d=" M 30.00 24.06 C 31.33 24.07 32.67 24.07 34.00 24.07 C 34.00 27.38 34.00 30.69 34.00 34.00 C 32.67 34.00 31.33 34.00 30.00 34.00 C 30.00 30.69 30.00 27.38 30.00 24.06 Z" />
<path fill="#ffffff" opacity="1.00" d=" M 38.00 24.07 C 39.33 24.07 40.66 24.07 42.00 24.06 C 42.00 27.38 42.00 30.69 42.00 34.00 C 40.67 34.00 39.33 34.00 38.00 34.00 C 38.00 30.69 38.00 27.38 38.00 24.07 Z" />
<path fill="#ffffff" opacity="1.00" d=" M 46.00 24.06 C 47.33 24.07 48.66 24.07 50.00 24.07 C 50.00 30.04 50.00 36.02 50.00 42.00 C 48.67 42.00 47.33 42.00 46.00 42.00 C 46.00 36.02 46.00 30.04 46.00 24.06 Z" />
<path fill="#ffffff" opacity="1.00" d=" M 22.00 38.00 C 28.67 38.00 35.33 38.00 42.00 38.00 C 42.00 42.67 42.00 47.33 42.00 52.00 C 35.33 52.00 28.67 52.00 22.00 52.00 C 22.00 47.33 22.00 42.67 22.00 38.00 M 31.00 44.55 C 30.14 43.69 29.29 42.83 28.43 41.98 C 27.48 42.91 26.54 43.85 25.59 44.79 C 27.39 46.60 29.20 48.41 31.01 50.21 C 33.50 47.76 35.94 45.27 38.42 42.81 C 37.48 41.86 36.55 40.91 35.62 39.96 C 34.08 41.49 32.54 43.02 31.00 44.55 Z" />
</g>
<g id="#000000ff">
<path fill="#000000" opacity="1.00" d=" M 5.97 18.81 C 14.64 15.16 23.33 11.55 32.03 7.94 C 40.70 11.51 49.37 15.11 58.01 18.76 C 58.00 20.53 58.00 22.30 58.00 24.06 C 56.67 24.06 55.33 24.07 54.00 24.07 C 53.99 30.04 54.00 36.02 54.00 42.00 C 55.33 42.00 56.67 42.00 58.00 42.00 C 58.00 43.33 58.00 44.67 58.00 46.00 C 54.00 46.00 50.00 46.00 46.00 46.00 C 46.00 49.33 46.00 52.67 46.00 56.00 C 36.67 56.00 27.33 56.00 18.00 56.00 C 18.00 52.67 18.00 49.33 18.00 46.00 C 14.00 46.00 10.00 46.00 6.00 46.00 C 6.00 44.67 6.00 43.33 6.00 42.00 C 7.33 42.00 8.67 42.00 10.00 42.00 C 10.00 36.02 10.00 30.04 10.00 24.07 C 8.67 24.07 7.34 24.06 6.01 24.06 C 6.01 22.31 5.99 20.56 5.97 18.81 M 13.41 20.06 C 25.81 20.05 38.22 20.10 50.63 20.04 C 44.43 17.40 38.22 14.79 31.99 12.25 C 25.83 14.93 19.57 17.38 13.41 20.06 M 14.00 24.07 C 14.00 30.04 14.00 36.02 14.00 42.00 C 15.33 42.00 16.67 42.00 18.00 42.00 C 18.00 36.02 18.00 30.04 18.00 24.07 C 16.67 24.07 15.33 24.07 14.00 24.07 M 22.00 24.07 C 22.00 27.38 22.00 30.69 22.00 34.00 C 23.33 34.00 24.67 34.00 26.00 34.00 C 26.00 30.69 26.00 27.38 26.00 24.07 C 24.67 24.07 23.33 24.07 22.00 24.07 M 30.00 24.06 C 30.00 27.38 30.00 30.69 30.00 34.00 C 31.33 34.00 32.67 34.00 34.00 34.00 C 34.00 30.69 34.00 27.38 34.00 24.07 C 32.67 24.07 31.33 24.07 30.00 24.06 M 38.00 24.07 C 38.00 27.38 38.00 30.69 38.00 34.00 C 39.33 34.00 40.67 34.00 42.00 34.00 C 42.00 30.69 42.00 27.38 42.00 24.06 C 40.66 24.07 39.33 24.07 38.00 24.07 M 46.00 24.06 C 46.00 30.04 46.00 36.02 46.00 42.00 C 47.33 42.00 48.67 42.00 50.00 42.00 C 50.00 36.02 50.00 30.04 50.00 24.07 C 48.66 24.07 47.33 24.07 46.00 24.06 M 22.00 38.00 C 22.00 42.67 22.00 47.33 22.00 52.00 C 28.67 52.00 35.33 52.00 42.00 52.00 C 42.00 47.33 42.00 42.67 42.00 38.00 C 35.33 38.00 28.67 38.00 22.00 38.00 Z" />
<path fill="#000000" opacity="1.00" d=" M 31.00 44.55 C 32.54 43.02 34.08 41.49 35.62 39.96 C 36.55 40.91 37.48 41.86 38.42 42.81 C 35.94 45.27 33.50 47.76 31.01 50.21 C 29.20 48.41 27.39 46.60 25.59 44.79 C 26.54 43.85 27.48 42.91 28.43 41.98 C 29.29 42.83 30.14 43.69 31.00 44.55 Z" />
</g>
</svg>
