<?xml version="1.0" encoding="UTF-8" ?>
<!DOCTYPE svg PUBLIC "-//W3C//DTD SVG 1.1//EN" "http://www.w3.org/Graphics/SVG/1.1/DTD/svg11.dtd">
<svg width="60pt" height="60pt" viewBox="0 0 60 60" version="1.1" xmlns="http://www.w3.org/2000/svg">
<g id="#ffffffff">
<path fill="#ffffff" opacity="1.00" d=" M 0.00 0.00 L 60.00 0.00 L 60.00 60.00 L 0.00 60.00 L 0.00 0.00 M 10.35 8.38 C 8.59 9.15 7.82 11.13 8.00 12.95 C 8.03 24.66 7.93 36.37 8.05 48.07 C 7.92 50.61 10.55 52.32 12.89 52.00 C 24.63 51.97 36.37 52.07 48.10 51.95 C 50.59 52.00 52.33 49.44 52.00 47.10 C 52.01 35.72 52.00 24.34 52.00 12.96 C 52.33 10.61 50.65 7.94 48.10 8.05 C 37.06 7.91 26.02 8.07 14.98 7.98 C 13.45 8.06 11.82 7.80 10.35 8.38 Z" />
<path fill="#ffffff" opacity="1.00" d=" M 20.76 20.33 C 22.10 20.29 23.44 20.27 24.79 20.24 C 27.13 26.83 29.47 33.41 31.81 40.00 C 30.87 40.00 28.98 40.00 28.04 40.00 C 27.46 38.30 26.89 36.59 26.29 34.89 C 23.88 34.94 21.48 34.94 19.08 34.93 C 18.54 36.60 18.00 38.26 17.45 39.93 C 16.24 39.97 15.03 40.00 13.82 40.03 C 16.12 33.46 18.52 26.92 20.76 20.33 M 22.68 23.82 C 21.75 26.59 20.84 29.36 19.92 32.13 C 21.78 32.13 23.65 32.13 25.51 32.14 C 24.65 29.34 23.72 26.56 22.68 23.82 Z" />
<path fill="#ffffff" opacity="1.00" d=" M 34.25 28.20 C 36.27 23.99 42.99 23.50 45.70 27.24 C 47.05 28.99 46.98 31.31 47.27 33.40 C 43.66 33.39 40.05 33.37 36.44 33.46 C 37.12 34.82 37.29 36.86 39.03 37.35 C 41.88 38.39 44.09 35.27 46.99 35.65 C 45.78 41.41 36.62 41.87 34.21 36.81 C 32.94 34.14 32.96 30.85 34.25 28.20 M 36.50 31.04 C 39.01 31.13 41.51 31.05 44.01 30.90 C 43.31 29.24 42.24 27.00 40.02 27.47 C 37.96 27.37 37.13 29.47 36.50 31.04 Z" />
</g>
<g id="#000000ff">
<path fill="#968176" opacity="1.00" d=" M 10.35 8.38 C 11.82 7.80 13.45 8.06 14.98 7.98 C 26.02 8.07 37.06 7.91 48.10 8.05 C 50.65 7.94 52.33 10.61 52.00 12.96 C 52.00 24.34 52.01 35.72 52.00 47.10 C 52.33 49.44 50.59 52.00 48.10 51.95 C 36.37 52.07 24.63 51.97 12.89 52.00 C 10.55 52.32 7.92 50.61 8.05 48.07 C 7.93 36.37 8.03 24.66 8.00 12.95 C 7.82 11.13 8.59 9.15 10.35 8.38 M 20.76 20.33 C 18.52 26.92 16.12 33.46 13.82 40.03 C 15.03 40.00 16.24 39.97 17.45 39.93 C 18.00 38.26 18.54 36.60 19.08 34.93 C 21.48 34.94 23.88 34.94 26.29 34.89 C 26.89 36.59 27.46 38.30 28.04 40.00 C 28.98 40.00 30.87 40.00 31.81 40.00 C 29.47 33.41 27.13 26.83 24.79 20.24 C 23.44 20.27 22.10 20.29 20.76 20.33 M 34.25 28.20 C 32.96 30.85 32.94 34.14 34.21 36.81 C 36.62 41.87 45.78 41.41 46.99 35.65 C 44.09 35.27 41.88 38.39 39.03 37.35 C 37.29 36.86 37.12 34.82 36.44 33.46 C 40.05 33.37 43.66 33.39 47.27 33.40 C 46.98 31.31 47.05 28.99 45.70 27.24 C 42.99 23.50 36.27 23.99 34.25 28.20 Z" />
<path fill="#968176" opacity="1.00" d=" M 22.68 23.82 C 23.72 26.56 24.65 29.34 25.51 32.14 C 23.65 32.13 21.78 32.13 19.92 32.13 C 20.84 29.36 21.75 26.59 22.68 23.82 Z" />
<path fill="#968176" opacity="1.00" d=" M 36.50 31.04 C 37.13 29.47 37.96 27.37 40.02 27.47 C 42.24 27.00 43.31 29.24 44.01 30.90 C 41.51 31.05 39.01 31.13 36.50 31.04 Z" />
</g>
</svg>
