<?xml version="1.0" encoding="UTF-8" ?>
<!DOCTYPE svg PUBLIC "-//W3C//DTD SVG 1.1//EN" "http://www.w3.org/Graphics/SVG/1.1/DTD/svg11.dtd">
<svg width="60pt" height="60pt" viewBox="0 0 60 60" version="1.1" xmlns="http://www.w3.org/2000/svg">
<g id="#ffffffff">
<path fill="#ffffff" opacity="1.00" d=" M 0.00 0.00 L 60.00 0.00 L 60.00 60.00 L 0.00 60.00 L 0.00 0.00 M 10.40 8.36 C 8.64 9.09 7.82 11.06 8.00 12.88 C 8.03 24.62 7.92 36.37 8.06 48.11 C 7.94 50.64 10.59 52.31 12.91 52.00 C 24.65 51.97 36.39 52.08 48.12 51.94 C 50.65 51.99 52.34 49.36 52.00 47.01 C 52.01 35.67 52.00 24.33 52.00 12.98 C 52.33 10.62 50.65 7.92 48.06 8.05 C 37.03 7.90 25.98 8.08 14.95 7.97 C 13.43 8.03 11.86 7.85 10.40 8.36 Z" />
<path fill="#ffffff" opacity="1.00" d=" M 37.52 27.68 C 37.39 24.96 37.41 22.24 37.43 19.52 C 38.27 19.53 39.97 19.54 40.81 19.54 C 40.80 26.45 40.80 33.36 40.81 40.27 C 39.98 40.27 38.31 40.26 37.48 40.26 C 37.53 39.66 37.63 38.47 37.68 37.88 C 35.76 39.92 32.84 41.36 30.10 39.94 C 25.89 37.70 25.68 31.57 27.71 27.77 C 29.75 24.11 35.27 24.33 37.52 27.68 M 32.22 28.23 C 29.63 29.53 29.67 33.10 30.47 35.48 C 31.53 38.56 36.53 38.15 37.12 34.96 C 38.46 31.79 36.28 26.49 32.22 28.23 Z" />
<path fill="#ffffff" opacity="1.00" d=" M 19.19 20.54 C 20.07 20.53 21.83 20.53 22.71 20.52 C 22.72 27.11 22.72 33.69 22.71 40.28 C 21.83 40.27 20.07 40.27 19.19 40.26 C 19.19 33.69 19.19 27.11 19.19 20.54 Z" />
</g>
<g id="#000000ff">
<path fill="#968176" opacity="1.00" d=" M 10.40 8.36 C 11.86 7.85 13.43 8.03 14.95 7.97 C 25.98 8.08 37.03 7.90 48.06 8.05 C 50.65 7.92 52.33 10.62 52.00 12.98 C 52.00 24.33 52.01 35.67 52.00 47.01 C 52.34 49.36 50.65 51.99 48.12 51.94 C 36.39 52.08 24.65 51.97 12.91 52.00 C 10.59 52.31 7.94 50.64 8.06 48.11 C 7.92 36.37 8.03 24.62 8.00 12.88 C 7.82 11.06 8.64 9.09 10.40 8.36 M 37.52 27.68 C 35.27 24.33 29.75 24.11 27.71 27.77 C 25.68 31.57 25.89 37.70 30.10 39.94 C 32.84 41.36 35.76 39.92 37.68 37.88 C 37.63 38.47 37.53 39.66 37.48 40.26 C 38.31 40.26 39.98 40.27 40.81 40.27 C 40.80 33.36 40.80 26.45 40.81 19.54 C 39.97 19.54 38.27 19.53 37.43 19.52 C 37.41 22.24 37.39 24.96 37.52 27.68 M 19.19 20.54 C 19.19 27.11 19.19 33.69 19.19 40.26 C 20.07 40.27 21.83 40.27 22.71 40.28 C 22.72 33.69 22.72 27.11 22.71 20.52 C 21.83 20.53 20.07 20.53 19.19 20.54 Z" />
<path fill="#968176" opacity="1.00" d=" M 32.22 28.23 C 36.28 26.49 38.46 31.79 37.12 34.96 C 36.53 38.15 31.53 38.56 30.47 35.48 C 29.67 33.10 29.63 29.53 32.22 28.23 Z" />
</g>
</svg>
