<?xml version="1.0" encoding="UTF-8" ?>
<!DOCTYPE svg PUBLIC "-//W3C//DTD SVG 1.1//EN" "http://www.w3.org/Graphics/SVG/1.1/DTD/svg11.dtd">
<svg width="60pt" height="60pt" viewBox="0 0 60 60" version="1.1" xmlns="http://www.w3.org/2000/svg">
<g id="#ffffffff">
<path fill="#ffffff" opacity="1.00" d=" M 0.00 0.00 L 60.00 0.00 L 60.00 60.00 L 0.00 60.00 L 0.00 0.00 M 10.38 8.38 C 7.68 9.32 8.07 12.66 7.96 14.94 C 8.12 25.95 7.83 36.97 8.09 47.98 C 7.85 50.70 10.52 52.23 12.95 51.98 C 24.31 52.03 35.69 52.03 47.05 51.98 C 49.48 52.25 52.10 50.65 51.91 47.98 C 52.20 38.33 51.87 28.66 52.03 19.01 C 51.97 16.14 52.27 13.21 51.61 10.39 C 50.50 7.31 46.58 8.16 44.04 7.96 C 32.83 8.32 21.54 7.43 10.38 8.38 Z" />
<path fill="#ffffff" opacity="1.00" d=" M 18.29 20.15 C 19.39 20.11 20.50 20.14 21.60 20.26 C 21.99 25.72 21.15 31.23 21.98 36.66 C 24.90 36.88 27.84 36.68 30.74 37.12 C 30.74 37.76 30.76 39.04 30.77 39.68 C 26.61 40.01 22.42 40.01 18.26 39.73 C 18.02 33.21 18.00 26.67 18.29 20.15 Z" />
<path fill="#ffffff" opacity="1.00" d=" M 34.24 25.06 C 37.15 26.28 40.06 25.36 42.98 24.75 C 42.93 25.43 42.83 26.79 42.78 27.47 C 41.12 28.29 38.24 27.84 37.85 30.17 C 37.31 33.33 37.74 36.54 37.55 39.72 C 36.47 39.84 35.40 39.88 34.31 39.85 C 33.99 34.93 34.09 29.98 34.24 25.06 Z" />
</g>
<g id="#000000ff">
<path fill="#000000" opacity="1.00" d=" M 10.38 8.38 C 21.54 7.43 32.83 8.32 44.04 7.96 C 46.58 8.16 50.50 7.31 51.61 10.39 C 52.27 13.21 51.97 16.14 52.03 19.01 C 51.87 28.66 52.20 38.33 51.91 47.98 C 52.10 50.65 49.48 52.25 47.05 51.98 C 35.69 52.03 24.31 52.03 12.95 51.98 C 10.52 52.23 7.85 50.70 8.09 47.98 C 7.83 36.97 8.12 25.95 7.96 14.94 C 8.07 12.66 7.68 9.32 10.38 8.38 M 18.29 20.15 C 18.00 26.67 18.02 33.21 18.26 39.73 C 22.42 40.01 26.61 40.01 30.77 39.68 C 30.76 39.04 30.74 37.76 30.74 37.12 C 27.84 36.68 24.90 36.88 21.98 36.66 C 21.15 31.23 21.99 25.72 21.60 20.26 C 20.50 20.14 19.39 20.11 18.29 20.15 M 34.24 25.06 C 34.09 29.98 33.99 34.93 34.31 39.85 C 35.40 39.88 36.47 39.84 37.55 39.72 C 37.74 36.54 37.31 33.33 37.85 30.17 C 38.24 27.84 41.12 28.29 42.78 27.47 C 42.83 26.79 42.93 25.43 42.98 24.75 C 40.06 25.36 37.15 26.28 34.24 25.06 Z" />
</g>
</svg>
