<?xml version="1.0" encoding="UTF-8" ?>
<!DOCTYPE svg PUBLIC "-//W3C//DTD SVG 1.1//EN" "http://www.w3.org/Graphics/SVG/1.1/DTD/svg11.dtd">
<svg width="64pt" height="64pt" viewBox="0 0 64 64" version="1.1" xmlns="http://www.w3.org/2000/svg">
<g id="#ffffffff">
<path fill="#ffffff" opacity="1.00" d=" M 0.00 0.00 L 64.00 0.00 L 64.00 64.00 L 0.00 64.00 L 0.00 0.00 M 16.19 20.00 C 18.07 20.00 19.96 20.00 21.84 20.00 C 25.23 16.61 28.62 13.22 32.02 9.83 C 35.41 13.22 38.80 16.61 42.19 20.00 C 44.08 20.00 45.96 20.00 47.85 20.00 C 42.56 14.72 37.30 9.43 32.00 4.17 C 26.73 9.45 21.46 14.72 16.19 20.00 M 18.44 24.00 C 16.94 29.34 14.48 34.44 13.82 39.99 C 15.21 39.99 16.59 40.00 17.98 40.00 C 18.00 39.50 18.02 38.50 18.03 38.00 C 19.34 38.00 20.66 38.00 21.97 38.00 C 21.98 38.50 22.00 39.50 22.02 40.00 C 23.40 40.00 24.79 39.99 26.18 39.99 C 25.51 34.45 23.06 29.34 21.56 24.01 C 20.52 24.00 19.48 24.00 18.44 24.00 M 28.00 23.98 C 28.00 29.33 28.00 34.68 28.00 40.03 C 29.99 39.99 32.00 40.11 33.98 39.82 C 35.67 39.30 36.70 37.71 38.01 36.64 C 37.78 33.29 38.62 29.71 37.33 26.53 C 35.48 23.15 31.17 24.13 28.00 23.98 M 40.00 23.98 C 40.00 29.32 40.00 34.66 40.00 40.00 C 41.33 40.00 42.66 40.00 44.00 40.00 C 44.00 37.89 44.00 35.79 44.03 33.68 C 47.25 34.02 45.60 37.84 46.03 40.00 C 47.36 40.00 48.69 40.00 50.03 40.00 C 50.06 37.16 50.17 34.25 49.02 31.58 C 50.75 30.22 50.04 27.58 48.99 26.03 C 46.93 23.16 43.01 24.18 40.00 23.98 M 4.18 32.00 C 6.11 33.94 8.06 35.88 10.00 37.82 C 10.00 33.94 10.00 30.06 10.00 26.18 C 8.06 28.12 6.12 30.06 4.18 32.00 M 54.00 26.18 C 54.00 30.06 53.99 33.94 54.01 37.83 C 55.95 35.89 57.89 33.94 59.83 32.00 C 57.89 30.05 55.94 28.12 54.00 26.18 M 16.19 44.00 C 21.46 49.28 26.74 54.54 32.00 59.83 C 37.29 54.56 42.56 49.28 47.84 44.00 C 45.96 44.00 44.07 44.00 42.19 44.00 C 38.79 47.39 35.41 50.78 32.02 54.17 C 28.63 50.78 25.24 47.39 21.85 44.00 C 19.96 44.00 18.08 44.00 16.19 44.00 Z" />
<path fill="#ffffff" opacity="1.00" d=" M 32.03 27.68 C 35.53 28.36 33.64 33.02 33.83 35.58 C 33.38 35.76 32.48 36.13 32.03 36.32 C 31.98 33.44 31.98 30.56 32.03 27.68 Z" />
<path fill="#ffffff" opacity="1.00" d=" M 44.08 28.15 C 45.70 27.66 46.25 28.21 45.72 29.82 C 44.11 30.36 43.56 29.81 44.08 28.15 Z" />
</g>
<g id="#000000ff">
<path fill="#000000" opacity="1.00" d=" M 16.19 20.00 C 21.46 14.72 26.73 9.45 32.00 4.17 C 37.30 9.43 42.56 14.72 47.85 20.00 C 45.96 20.00 44.08 20.00 42.19 20.00 C 38.80 16.61 35.41 13.22 32.02 9.83 C 28.62 13.22 25.23 16.61 21.84 20.00 C 19.96 20.00 18.07 20.00 16.19 20.00 Z" />
<path fill="#000000" opacity="1.00" d=" M 18.44 24.00 C 19.48 24.00 20.52 24.00 21.56 24.01 C 23.06 29.34 25.51 34.45 26.18 39.99 C 24.79 39.99 23.40 40.00 22.02 40.00 C 22.00 39.50 21.98 38.50 21.97 38.00 C 20.66 38.00 19.34 38.00 18.03 38.00 C 18.02 38.50 18.00 39.50 17.98 40.00 C 16.59 40.00 15.21 39.99 13.82 39.99 C 14.48 34.44 16.94 29.34 18.44 24.00 Z" />
<path fill="#000000" opacity="1.00" d=" M 28.00 23.98 C 31.17 24.13 35.48 23.15 37.33 26.53 C 38.62 29.71 37.78 33.29 38.01 36.64 C 36.70 37.71 35.67 39.30 33.98 39.82 C 32.00 40.11 29.99 39.99 28.00 40.03 C 28.00 34.68 28.00 29.33 28.00 23.98 M 32.03 27.68 C 31.98 30.56 31.98 33.44 32.03 36.32 C 32.48 36.13 33.38 35.76 33.83 35.58 C 33.64 33.02 35.53 28.36 32.03 27.68 Z" />
<path fill="#000000" opacity="1.00" d=" M 40.00 23.98 C 43.01 24.18 46.93 23.16 48.99 26.03 C 50.04 27.58 50.75 30.22 49.02 31.58 C 50.17 34.25 50.06 37.16 50.03 40.00 C 48.69 40.00 47.36 40.00 46.03 40.00 C 45.60 37.84 47.25 34.02 44.03 33.68 C 44.00 35.79 44.00 37.89 44.00 40.00 C 42.66 40.00 41.33 40.00 40.00 40.00 C 40.00 34.66 40.00 29.32 40.00 23.98 M 44.08 28.15 C 43.56 29.81 44.11 30.36 45.72 29.82 C 46.25 28.21 45.70 27.66 44.08 28.15 Z" />
<path fill="#000000" opacity="1.00" d=" M 4.18 32.00 C 6.12 30.06 8.06 28.12 10.00 26.18 C 10.00 30.06 10.00 33.94 10.00 37.82 C 8.06 35.88 6.11 33.94 4.18 32.00 Z" />
<path fill="#000000" opacity="1.00" d=" M 54.00 26.18 C 55.94 28.12 57.89 30.05 59.83 32.00 C 57.89 33.94 55.95 35.89 54.01 37.83 C 53.99 33.94 54.00 30.06 54.00 26.18 Z" />
<path fill="#000000" opacity="1.00" d=" M 16.19 44.00 C 18.08 44.00 19.96 44.00 21.85 44.00 C 25.24 47.39 28.63 50.78 32.02 54.17 C 35.41 50.78 38.79 47.39 42.19 44.00 C 44.07 44.00 45.96 44.00 47.84 44.00 C 42.56 49.28 37.29 54.56 32.00 59.83 C 26.74 54.54 21.46 49.28 16.19 44.00 Z" />
</g>
</svg>
