<?xml version="1.0" encoding="UTF-8" ?>
<!DOCTYPE svg PUBLIC "-//W3C//DTD SVG 1.1//EN" "http://www.w3.org/Graphics/SVG/1.1/DTD/svg11.dtd">
<svg width="60pt" height="60pt" viewBox="0 0 60 60" version="1.1" xmlns="http://www.w3.org/2000/svg">
<g id="#ffffffff">
<path fill="#ffffff" opacity="1.00" d=" M 0.00 0.00 L 60.00 0.00 L 60.00 60.00 L 0.00 60.00 L 0.00 0.00 M 42.61 19.37 C 45.38 22.33 48.35 25.09 51.18 27.99 C 43.46 28.07 35.74 27.88 28.02 28.07 C 25.44 27.75 25.38 32.17 27.96 31.92 C 35.69 32.14 43.44 31.92 51.18 32.01 C 48.21 35.13 44.91 37.94 42.15 41.26 C 41.21 43.12 43.99 45.03 45.33 43.38 C 49.45 39.50 53.43 35.47 57.36 31.40 C 58.49 30.46 57.91 28.81 56.89 28.06 C 53.61 24.69 50.23 21.43 46.93 18.07 C 45.99 17.38 45.30 15.97 43.98 16.05 C 42.23 15.70 41.29 18.32 42.61 19.37 M 3.30 28.14 C 0.79 28.97 2.39 32.92 4.80 31.89 C 7.13 30.91 5.63 27.14 3.30 28.14 M 11.21 28.17 C 8.80 29.13 10.43 32.89 12.82 31.90 C 15.16 30.86 13.57 27.06 11.21 28.17 M 19.18 28.18 C 16.80 29.16 18.46 32.88 20.82 31.89 C 23.17 30.86 21.52 27.00 19.18 28.18 Z" />
</g>
<g id="#000000ff">
<path fill="#000000" opacity="1.00" d=" M 42.61 19.37 C 41.29 18.32 42.23 15.70 43.98 16.05 C 45.30 15.97 45.99 17.38 46.93 18.07 C 50.23 21.43 53.61 24.69 56.89 28.06 C 57.91 28.81 58.49 30.46 57.36 31.40 C 53.43 35.47 49.45 39.50 45.33 43.38 C 43.99 45.03 41.21 43.12 42.15 41.26 C 44.91 37.94 48.21 35.13 51.18 32.01 C 43.44 31.92 35.69 32.14 27.96 31.92 C 25.38 32.17 25.44 27.75 28.02 28.07 C 35.74 27.88 43.46 28.07 51.18 27.99 C 48.35 25.09 45.38 22.33 42.61 19.37 Z" />
<path fill="#000000" opacity="1.00" d=" M 3.30 28.14 C 5.63 27.14 7.13 30.91 4.80 31.89 C 2.39 32.92 0.79 28.97 3.30 28.14 Z" />
<path fill="#000000" opacity="1.00" d=" M 11.21 28.17 C 13.57 27.06 15.16 30.86 12.82 31.90 C 10.43 32.89 8.80 29.13 11.21 28.17 Z" />
<path fill="#000000" opacity="1.00" d=" M 19.18 28.18 C 21.52 27.00 23.17 30.86 20.82 31.89 C 18.46 32.88 16.80 29.16 19.18 28.18 Z" />
</g>
</svg>
