<?xml version="1.0" encoding="UTF-8" ?>
<!DOCTYPE svg PUBLIC "-//W3C//DTD SVG 1.1//EN" "http://www.w3.org/Graphics/SVG/1.1/DTD/svg11.dtd">
<svg width="64pt" height="64pt" viewBox="0 0 64 64" version="1.1" xmlns="http://www.w3.org/2000/svg">
<g id="#ffffffff">
<path fill="#ffffff" opacity="1.00" d=" M 0.00 0.00 L 64.00 0.00 L 64.00 14.00 C 42.67 14.00 21.33 14.00 0.00 14.00 L 0.00 0.00 Z" />
<path fill="#ffffff" opacity="1.00" d=" M 4.00 18.00 C 22.67 18.00 41.33 18.00 60.00 18.00 C 60.00 27.33 60.00 36.67 60.00 46.00 C 41.33 46.00 22.67 46.00 4.00 46.00 C 4.00 36.67 4.00 27.33 4.00 18.00 M 18.43 24.00 C 16.95 29.35 14.51 34.46 13.82 40.00 C 15.21 40.00 16.60 40.00 17.99 40.00 C 17.99 39.50 18.01 38.50 18.02 38.00 C 19.34 38.00 20.66 38.00 21.98 38.00 C 21.99 38.50 22.01 39.50 22.02 40.00 C 23.40 40.00 24.79 40.00 26.18 40.00 C 25.48 34.46 23.05 29.36 21.57 24.01 C 20.52 24.01 19.48 24.00 18.43 24.00 M 28.00 23.95 C 28.00 29.32 28.00 34.68 28.00 40.05 C 31.38 40.14 35.84 40.27 37.41 36.54 C 38.32 33.47 38.50 29.84 37.11 26.89 C 35.30 23.60 31.19 23.96 28.00 23.95 M 39.82 24.00 C 40.51 29.54 42.95 34.64 44.43 39.99 C 45.48 40.00 46.52 40.00 47.57 40.00 C 49.05 34.65 51.48 29.54 52.18 24.00 C 50.86 24.00 49.53 24.00 48.21 24.00 C 47.70 26.65 46.99 29.27 46.01 31.79 C 45.03 29.27 44.26 26.67 43.80 24.00 C 42.47 24.00 41.14 24.00 39.82 24.00 Z" />
<path fill="#ffffff" opacity="1.00" d=" M 32.09 27.59 C 34.97 29.39 34.96 34.60 32.09 36.41 C 31.96 33.47 31.96 30.53 32.09 27.59 Z" />
<path fill="#ffffff" opacity="1.00" d=" M 0.00 50.00 C 21.33 50.00 42.67 50.00 64.00 50.00 L 64.00 64.00 L 0.00 64.00 L 0.00 50.00 Z" />
</g>
<g id="#000000ff">
<path fill="#000000" opacity="1.00" d=" M 0.00 14.00 C 21.33 14.00 42.67 14.00 64.00 14.00 L 64.00 50.00 C 42.67 50.00 21.33 50.00 0.00 50.00 L 0.00 14.00 M 4.00 18.00 C 4.00 27.33 4.00 36.67 4.00 46.00 C 22.67 46.00 41.33 46.00 60.00 46.00 C 60.00 36.67 60.00 27.33 60.00 18.00 C 41.33 18.00 22.67 18.00 4.00 18.00 Z" />
<path fill="#000000" opacity="1.00" d=" M 18.43 24.00 C 19.48 24.00 20.52 24.01 21.57 24.01 C 23.05 29.36 25.48 34.46 26.18 40.00 C 24.79 40.00 23.40 40.00 22.02 40.00 C 22.01 39.50 21.99 38.50 21.98 38.00 C 20.66 38.00 19.34 38.00 18.02 38.00 C 18.01 38.50 17.99 39.50 17.99 40.00 C 16.60 40.00 15.21 40.00 13.82 40.00 C 14.51 34.46 16.95 29.35 18.43 24.00 Z" />
<path fill="#000000" opacity="1.00" d=" M 28.00 23.95 C 31.19 23.96 35.30 23.60 37.11 26.89 C 38.50 29.84 38.32 33.47 37.41 36.54 C 35.84 40.27 31.38 40.14 28.00 40.05 C 28.00 34.68 28.00 29.32 28.00 23.95 M 32.09 27.59 C 31.96 30.53 31.96 33.47 32.09 36.41 C 34.96 34.60 34.97 29.39 32.09 27.59 Z" />
<path fill="#000000" opacity="1.00" d=" M 39.82 24.00 C 41.14 24.00 42.47 24.00 43.80 24.00 C 44.26 26.67 45.03 29.27 46.01 31.79 C 46.99 29.27 47.70 26.65 48.21 24.00 C 49.53 24.00 50.86 24.00 52.18 24.00 C 51.48 29.54 49.05 34.65 47.57 40.00 C 46.52 40.00 45.48 40.00 44.43 39.99 C 42.95 34.64 40.51 29.54 39.82 24.00 Z" />
</g>
</svg>
