<?xml version="1.0" encoding="UTF-8" ?>
<!DOCTYPE svg PUBLIC "-//W3C//DTD SVG 1.1//EN" "http://www.w3.org/Graphics/SVG/1.1/DTD/svg11.dtd">
<svg width="60pt" height="60pt" viewBox="0 0 60 60" version="1.1" xmlns="http://www.w3.org/2000/svg">
<g id="#ffffffff">
<path fill="#ffffff" opacity="1.00" d=" M 0.00 0.00 L 60.00 0.00 L 60.00 60.00 L 0.00 60.00 L 0.00 0.00 M 0.98 3.09 C 0.90 4.38 2.43 4.98 3.09 5.93 C 20.63 23.43 38.13 40.97 55.67 58.47 C 56.88 60.03 58.96 57.47 59.01 56.25 C 55.98 52.99 52.70 49.96 49.62 46.76 C 50.50 36.23 49.75 25.59 50.01 15.01 C 49.85 12.72 50.77 9.32 48.06 8.20 C 45.79 7.29 44.13 9.36 43.71 11.34 C 37.16 13.33 30.63 15.42 24.06 17.36 C 23.03 17.59 22.15 18.14 21.37 18.83 C 16.02 12.79 10.01 7.35 4.39 1.55 C 3.16 -0.09 1.82 2.27 0.98 3.09 M 2.09 22.89 C 1.93 26.30 1.92 29.72 2.10 33.13 C 2.86 36.90 7.44 36.53 10.36 36.79 C 11.42 41.49 11.89 46.31 12.97 51.02 C 14.13 52.67 17.91 52.47 17.95 50.07 C 18.05 42.16 18.00 34.24 17.97 26.33 C 15.51 23.96 13.16 21.50 10.71 19.13 C 7.69 19.56 2.89 18.93 2.09 22.89 M 54.04 22.87 C 53.98 26.29 53.97 29.71 54.05 33.13 C 59.41 32.38 59.41 23.61 54.04 22.87 M 21.99 30.39 C 22.00 32.92 22.00 35.44 22.00 37.97 C 25.65 39.11 29.32 40.20 32.97 41.36 C 29.33 37.69 25.64 34.05 21.99 30.39 Z" />
</g>
<g id="#000000ff">
<path fill="#000000" opacity="1.00" d=" M 0.98 3.09 C 1.82 2.27 3.16 -0.09 4.39 1.55 C 10.01 7.35 16.02 12.79 21.37 18.83 C 22.15 18.14 23.03 17.59 24.06 17.36 C 30.63 15.42 37.16 13.33 43.71 11.34 C 44.13 9.36 45.79 7.29 48.06 8.20 C 50.77 9.32 49.85 12.72 50.01 15.01 C 49.75 25.59 50.50 36.23 49.62 46.76 C 52.70 49.96 55.98 52.99 59.01 56.25 C 58.96 57.47 56.88 60.03 55.67 58.47 C 38.13 40.97 20.63 23.43 3.09 5.93 C 2.43 4.98 0.90 4.38 0.98 3.09 Z" />
<path fill="#000000" opacity="1.00" d=" M 2.09 22.89 C 2.89 18.93 7.69 19.56 10.71 19.13 C 13.16 21.50 15.51 23.96 17.97 26.33 C 18.00 34.24 18.05 42.16 17.95 50.07 C 17.91 52.47 14.13 52.67 12.97 51.02 C 11.89 46.31 11.42 41.49 10.36 36.79 C 7.44 36.53 2.86 36.90 2.10 33.13 C 1.92 29.72 1.93 26.30 2.09 22.89 Z" />
<path fill="#000000" opacity="1.00" d=" M 54.04 22.87 C 59.41 23.61 59.41 32.38 54.05 33.13 C 53.97 29.71 53.98 26.29 54.04 22.87 Z" />
<path fill="#000000" opacity="1.00" d=" M 21.99 30.39 C 25.64 34.05 29.33 37.69 32.97 41.36 C 29.32 40.20 25.65 39.11 22.00 37.97 C 22.00 35.44 22.00 32.92 21.99 30.39 Z" />
</g>
</svg>
