<?xml version="1.0" encoding="UTF-8" ?>
<!DOCTYPE svg PUBLIC "-//W3C//DTD SVG 1.1//EN" "http://www.w3.org/Graphics/SVG/1.1/DTD/svg11.dtd">
<svg width="60pt" height="60pt" viewBox="0 0 60 60" version="1.1" xmlns="http://www.w3.org/2000/svg">
<g id="#ffffffff">
<path fill="#ffffff" opacity="1.00" d=" M 0.00 0.00 L 60.00 0.00 L 60.00 60.00 L 0.00 60.00 L 0.00 0.00 M 6.76 16.76 C 4.95 22.04 6.77 27.77 9.52 32.38 C 14.04 39.71 20.49 45.59 27.21 50.85 C 28.77 52.30 31.22 52.32 32.78 50.87 C 39.53 45.62 45.97 39.70 50.49 32.36 C 53.22 27.74 55.07 21.99 53.21 16.71 C 51.26 10.93 44.86 7.08 38.84 8.22 C 35.25 8.79 32.33 11.18 30.00 13.83 C 27.67 11.20 24.77 8.81 21.20 8.23 C 15.14 7.06 8.70 10.94 6.76 16.76 Z" />
<path fill="#ffffff" opacity="1.00" d=" M 30.32 20.23 C 30.68 20.21 31.40 20.16 31.76 20.13 C 32.19 22.72 31.99 25.35 31.99 27.96 C 33.35 28.01 34.71 28.07 36.08 28.13 C 35.07 32.13 33.39 35.93 31.67 39.66 C 31.28 39.75 30.50 39.93 30.11 40.02 C 30.00 37.36 29.97 34.70 30.00 32.04 C 28.64 31.99 27.29 31.93 25.93 31.87 C 26.90 27.83 28.69 24.04 30.32 20.23 Z" />
</g>
<g id="#000000ff">
<path fill="#000000" opacity="1.00" d=" M 6.76 16.76 C 8.70 10.94 15.14 7.06 21.20 8.23 C 24.77 8.81 27.67 11.20 30.00 13.83 C 32.33 11.18 35.25 8.79 38.84 8.22 C 44.86 7.08 51.26 10.93 53.21 16.71 C 55.07 21.99 53.22 27.74 50.49 32.36 C 45.97 39.70 39.53 45.62 32.78 50.87 C 31.22 52.32 28.77 52.30 27.21 50.85 C 20.49 45.59 14.04 39.71 9.52 32.38 C 6.77 27.77 4.95 22.04 6.76 16.76 M 30.32 20.23 C 28.69 24.04 26.90 27.83 25.93 31.87 C 27.29 31.93 28.64 31.99 30.00 32.04 C 29.97 34.70 30.00 37.36 30.11 40.02 C 30.50 39.93 31.28 39.75 31.67 39.66 C 33.39 35.93 35.07 32.13 36.08 28.13 C 34.71 28.07 33.35 28.01 31.99 27.96 C 31.99 25.35 32.19 22.72 31.76 20.13 C 31.40 20.16 30.68 20.21 30.32 20.23 Z" />
</g>
</svg>
