<?xml version="1.0" encoding="UTF-8" ?>
<!DOCTYPE svg PUBLIC "-//W3C//DTD SVG 1.1//EN" "http://www.w3.org/Graphics/SVG/1.1/DTD/svg11.dtd">
<svg width="64pt" height="64pt" viewBox="0 0 64 64" version="1.1" xmlns="http://www.w3.org/2000/svg">
<g id="#ffffffff">
<path fill="#ffffff" opacity="1.00" d=" M 0.00 0.00 L 64.00 0.00 L 64.00 64.00 L 0.00 64.00 L 0.00 0.00 M 4.00 16.10 C 4.00 17.43 4.00 18.75 4.01 20.08 C 11.81 20.95 17.28 13.27 25.04 14.06 C 33.88 14.64 42.09 18.43 50.80 19.74 C 54.49 20.37 58.23 19.93 61.94 19.97 C 59.33 17.31 56.70 14.67 54.03 12.07 C 54.01 13.07 53.98 15.08 53.96 16.08 C 43.08 15.10 32.94 9.39 21.86 10.15 C 15.40 10.67 10.62 16.42 4.00 16.10 M 4.00 24.10 C 4.00 25.43 4.00 26.76 4.01 28.08 C 11.81 28.95 17.28 21.27 25.04 22.06 C 33.32 22.62 41.06 25.93 49.15 27.48 C 53.37 28.23 57.68 27.99 61.95 27.97 C 59.63 25.64 57.31 23.32 55.07 20.93 C 53.50 20.98 54.14 23.20 53.79 24.08 C 43.00 23.02 32.92 17.42 21.92 18.14 C 15.43 18.64 10.64 24.42 4.00 24.10 M 14.02 31.94 C 14.16 35.82 18.50 37.70 21.87 37.93 C 30.29 38.18 38.43 35.37 46.03 32.01 C 38.44 28.62 30.29 25.83 21.87 26.07 C 18.53 26.30 14.27 28.12 14.02 31.94 M 4.00 35.92 C 4.00 37.25 4.00 38.57 4.00 39.90 C 10.62 39.57 15.40 45.33 21.86 45.85 C 32.88 46.59 42.98 40.97 53.79 39.92 C 54.13 40.87 53.53 42.93 55.05 43.14 C 57.27 40.69 59.63 38.38 61.94 36.02 C 57.59 36.02 53.19 35.76 48.89 36.56 C 40.89 38.15 33.21 41.37 25.01 41.94 C 17.27 42.72 11.80 35.03 4.00 35.92 M 4.00 43.92 C 4.00 45.24 4.00 46.57 4.00 47.90 C 10.64 47.56 15.43 53.36 21.92 53.86 C 32.97 54.58 43.09 48.90 53.94 47.92 C 53.98 48.93 54.04 50.95 54.08 51.96 C 56.68 49.30 59.34 46.70 61.93 44.03 C 58.24 44.07 54.53 43.64 50.87 44.25 C 42.11 45.55 33.85 49.37 24.96 49.94 C 17.24 50.68 11.78 43.04 4.00 43.92 Z" />
</g>
<g id="#000000ff">
<path fill="#000000" opacity="1.00" d=" M 4.00 16.10 C 10.62 16.42 15.40 10.67 21.86 10.15 C 32.94 9.39 43.08 15.10 53.96 16.08 C 53.98 15.08 54.01 13.07 54.03 12.07 C 56.70 14.67 59.33 17.31 61.94 19.97 C 58.23 19.93 54.49 20.37 50.80 19.74 C 42.09 18.43 33.88 14.64 25.04 14.06 C 17.28 13.27 11.81 20.95 4.01 20.08 C 4.00 18.75 4.00 17.43 4.00 16.10 Z" />
<path fill="#000000" opacity="1.00" d=" M 4.00 24.10 C 10.64 24.42 15.43 18.64 21.92 18.14 C 32.92 17.42 43.00 23.02 53.79 24.08 C 54.14 23.20 53.50 20.98 55.07 20.93 C 57.31 23.32 59.63 25.64 61.95 27.97 C 57.68 27.99 53.37 28.23 49.15 27.48 C 41.06 25.93 33.32 22.62 25.04 22.06 C 17.28 21.27 11.81 28.95 4.01 28.08 C 4.00 26.76 4.00 25.43 4.00 24.10 Z" />
<path fill="#000000" opacity="1.00" d=" M 14.02 31.94 C 14.27 28.12 18.53 26.30 21.87 26.07 C 30.29 25.83 38.44 28.62 46.03 32.01 C 38.43 35.37 30.29 38.18 21.87 37.93 C 18.50 37.70 14.16 35.82 14.02 31.94 Z" />
<path fill="#000000" opacity="1.00" d=" M 4.00 35.92 C 11.80 35.03 17.27 42.72 25.01 41.94 C 33.21 41.37 40.89 38.15 48.89 36.56 C 53.19 35.76 57.59 36.02 61.94 36.02 C 59.63 38.38 57.27 40.69 55.05 43.14 C 53.53 42.93 54.13 40.87 53.79 39.92 C 42.98 40.97 32.88 46.59 21.86 45.85 C 15.40 45.33 10.62 39.57 4.00 39.90 C 4.00 38.57 4.00 37.25 4.00 35.92 Z" />
<path fill="#000000" opacity="1.00" d=" M 4.00 43.92 C 11.78 43.04 17.24 50.68 24.96 49.94 C 33.85 49.37 42.11 45.55 50.87 44.25 C 54.53 43.64 58.24 44.07 61.93 44.03 C 59.34 46.70 56.68 49.30 54.08 51.96 C 54.04 50.95 53.98 48.93 53.94 47.92 C 43.09 48.90 32.97 54.58 21.92 53.86 C 15.43 53.36 10.64 47.56 4.00 47.90 C 4.00 46.57 4.00 45.24 4.00 43.92 Z" />
</g>
</svg>
