<?xml version="1.0" encoding="UTF-8" ?>
<!DOCTYPE svg PUBLIC "-//W3C//DTD SVG 1.1//EN" "http://www.w3.org/Graphics/SVG/1.1/DTD/svg11.dtd">
<svg width="131pt" height="97pt" viewBox="0 0 131 97" version="1.1" xmlns="http://www.w3.org/2000/svg">
<g id="#fffffff">
<path fill="#ffffff" opacity="1.00" d=" M 0.00 0.00 L 131.00 0.00 L 131.00 97.00 L 0.00 97.00 L 0.00 0.00 M 10.31 12.41 C 10.43 13.24 10.55 14.06 10.68 14.88 C 14.63 17.23 18.06 20.37 22.04 22.65 C 24.72 22.93 27.42 22.67 30.11 22.58 C 25.53 19.41 21.12 16.01 16.87 12.43 C 14.68 12.36 12.49 12.37 10.31 12.41 M 20.78 12.51 C 24.05 14.96 27.29 17.46 30.49 20.01 C 30.59 17.46 30.61 14.91 30.62 12.36 C 27.34 12.36 24.06 12.33 20.78 12.51 M 33.20 12.36 C 33.20 16.71 33.20 21.06 33.19 25.40 C 25.61 25.50 18.03 25.40 10.45 25.47 C 10.45 27.75 10.46 30.03 10.49 32.31 C 18.06 32.36 25.64 32.25 33.21 32.38 C 33.19 37.10 33.18 41.82 33.22 46.54 C 35.33 46.54 37.45 46.53 39.56 46.53 C 39.59 41.80 39.57 37.06 39.58 32.32 C 47.49 32.32 55.41 32.33 63.32 32.32 C 63.34 30.03 63.35 27.74 63.35 25.45 C 55.43 25.44 47.51 25.44 39.59 25.44 C 39.57 21.09 39.57 16.73 39.59 12.38 C 37.46 12.37 35.33 12.36 33.20 12.36 M 42.11 12.40 C 42.11 14.91 42.10 17.42 42.11 19.94 C 45.58 17.47 49.03 14.98 52.50 12.53 C 49.04 12.33 45.57 12.34 42.11 12.40 M 54.83 13.77 C 50.83 16.72 46.90 19.77 42.77 22.54 C 45.47 22.71 48.18 22.93 50.88 22.64 C 55.13 19.98 59.04 16.77 63.26 14.03 C 63.29 13.61 63.37 12.77 63.40 12.35 C 60.53 12.60 57.12 11.49 54.83 13.77 M 65.72 12.43 C 65.73 24.58 65.68 36.73 65.68 48.88 C 47.27 49.08 28.83 48.50 10.42 49.19 C 10.49 60.53 10.43 71.88 10.45 83.22 C 46.48 83.24 82.51 83.24 118.54 83.22 C 118.55 59.61 118.53 36.00 118.55 12.40 C 100.94 12.37 83.33 12.29 65.72 12.43 M 55.26 22.60 C 57.96 22.72 60.67 22.76 63.37 22.77 C 63.36 20.84 63.34 18.91 63.29 16.98 C 60.66 18.92 57.96 20.77 55.26 22.60 M 10.50 17.86 C 10.47 19.50 10.45 21.14 10.43 22.78 C 12.75 22.74 15.08 22.68 17.40 22.52 C 15.14 20.91 12.82 19.39 10.50 17.86 M 10.50 34.70 C 10.49 36.27 10.48 37.84 10.49 39.41 C 12.12 38.44 13.67 37.34 15.25 36.30 C 15.95 35.75 16.64 35.20 17.34 34.65 C 15.06 34.69 12.78 34.70 10.50 34.70 M 21.93 34.85 C 17.84 37.09 14.41 40.31 10.48 42.80 C 10.47 43.73 10.46 45.58 10.45 46.51 C 11.42 46.51 13.36 46.52 14.33 46.52 C 19.45 42.51 24.77 38.75 29.85 34.68 C 27.21 34.73 24.55 34.51 21.93 34.85 M 42.54 34.71 C 42.92 34.96 43.68 35.46 44.06 35.71 C 48.45 39.54 53.26 42.84 57.76 46.54 C 59.73 46.54 61.70 46.50 63.67 46.44 C 63.49 45.84 63.15 44.65 62.98 44.05 C 59.53 41.09 55.57 38.77 51.94 36.02 C 49.31 33.79 45.66 34.96 42.54 34.71 M 55.48 34.78 C 57.79 37.20 60.45 39.20 63.30 40.94 C 63.33 38.86 63.33 36.77 63.31 34.69 C 60.70 34.69 58.09 34.67 55.48 34.78 M 28.91 38.54 C 25.53 41.31 21.99 43.86 18.47 46.45 C 22.51 46.53 26.55 46.55 30.58 46.54 C 30.60 43.71 30.61 40.89 30.61 38.06 C 30.19 38.18 29.34 38.42 28.91 38.54 M 42.18 37.40 C 42.15 40.45 42.12 43.49 42.14 46.54 C 45.99 46.54 49.83 46.53 53.68 46.50 C 49.87 43.44 45.79 40.72 42.18 37.40 Z" />
<path fill="#ffffff" opacity="1.00" d=" M 91.45 19.45 C 93.56 20.39 94.31 18.60 95.02 16.97 C 95.13 17.69 95.33 19.15 95.43 19.88 C 95.98 19.70 97.08 19.34 97.63 19.17 C 97.60 19.94 97.54 21.48 97.51 22.26 L 99.76 23.06 C 97.14 23.27 96.13 24.48 96.72 26.68 C 95.88 26.04 95.03 25.41 94.17 24.79 C 93.74 25.53 93.30 26.26 92.86 26.99 C 93.21 24.47 92.09 23.19 89.49 23.15 L 91.63 22.31 C 91.58 21.60 91.49 20.17 91.45 19.45 Z" />
<path fill="#ffffff" opacity="1.00" d=" M 110.49 35.61 C 110.68 34.64 110.87 33.68 111.06 32.71 C 111.44 33.49 112.19 35.04 112.56 35.82 C 113.03 35.53 113.97 34.95 114.44 34.66 C 114.44 35.54 114.43 37.30 114.43 38.18 L 116.57 39.27 C 115.74 39.34 114.08 39.48 113.25 39.55 L 113.53 42.55 C 112.95 42.02 111.77 40.96 111.18 40.43 C 110.77 40.99 109.93 42.10 109.52 42.65 C 109.50 41.90 109.46 40.38 109.45 39.63 C 109.14 39.63 108.54 39.62 108.23 39.62 C 108.28 38.48 108.39 36.19 108.44 35.05 C 108.96 35.19 109.98 35.47 110.49 35.61 Z" />
<path fill="#ffffff" opacity="1.00" d=" M 75.23 40.29 C 75.45 39.58 75.87 38.15 76.08 37.44 C 76.45 38.26 77.18 39.91 77.55 40.74 C 78.13 40.41 79.29 39.74 79.87 39.40 C 78.65 41.81 79.26 43.41 81.67 44.19 C 80.83 44.26 79.14 44.38 78.30 44.44 C 78.33 45.34 78.38 47.12 78.41 48.01 C 77.81 47.32 76.62 45.94 76.02 45.25 L 74.82 47.85 C 74.74 45.32 73.44 44.02 70.93 43.95 C 71.67 43.49 73.16 42.58 73.90 42.12 C 73.39 41.66 72.38 40.74 71.88 40.28 C 72.71 40.28 74.39 40.29 75.23 40.29 Z" />
<path fill="#ffffff" opacity="1.00" d=" M 99.43 50.32 C 100.92 50.43 101.61 49.38 102.08 48.15 C 102.68 48.63 103.88 49.59 104.48 50.07 C 104.13 51.27 103.74 52.46 103.35 53.65 C 103.01 53.17 102.31 52.22 101.97 51.74 C 101.75 52.29 101.31 53.38 101.09 53.92 C 100.77 52.62 100.57 51.20 99.43 50.32 Z" />
<path fill="#ffffff" opacity="1.00" d=" M 35.80 55.53 C 36.24 56.66 36.69 57.78 37.16 58.90 C 37.32 59.60 37.63 61.01 37.79 61.71 C 38.58 61.58 40.15 61.32 40.94 61.18 C 42.12 60.75 43.31 60.34 44.51 59.94 C 43.42 61.86 42.30 63.76 41.18 65.66 C 43.05 66.90 44.93 68.12 46.81 69.35 C 44.69 69.55 42.56 69.73 40.43 69.89 C 40.44 72.36 40.57 74.83 40.69 77.30 C 39.16 75.58 37.59 73.89 35.96 72.26 C 34.42 73.84 32.86 75.42 31.33 77.01 C 31.41 74.66 31.53 72.30 31.54 69.95 C 29.34 69.78 27.14 69.56 24.95 69.28 C 26.81 68.15 28.67 67.04 30.54 65.95 C 29.77 64.54 28.99 63.13 28.31 61.67 C 27.96 61.32 27.26 60.61 26.91 60.26 C 28.30 60.44 29.67 60.80 31.02 61.20 C 31.71 61.33 33.08 61.59 33.77 61.72 C 34.41 59.64 35.12 57.59 35.80 55.53 Z" />
<path fill="#ffffff" opacity="1.00" d=" M 94.82 67.31 C 95.16 69.44 95.99 71.21 98.65 70.45 C 98.27 70.88 97.49 71.72 97.10 72.15 L 98.58 72.88 L 99.15 74.22 C 98.56 74.29 97.37 74.44 96.77 74.51 C 96.72 75.35 96.61 77.01 96.55 77.85 C 96.16 77.25 95.37 76.05 94.97 75.44 C 94.38 75.90 93.18 76.80 92.58 77.25 C 92.59 76.54 92.62 75.12 92.64 74.41 C 91.83 74.38 90.21 74.32 89.40 74.29 C 91.46 73.11 92.23 71.28 91.72 68.79 C 92.06 69.37 92.73 70.52 93.06 71.09 C 93.66 69.84 94.24 68.58 94.82 67.31 Z" />
</g>
<g id="#000000ff">
<path fill="#968176" opacity="1.00" d=" M 10.31 12.41 C 12.49 12.37 14.68 12.36 16.87 12.43 C 21.12 16.01 25.53 19.41 30.11 22.58 C 27.42 22.67 24.72 22.93 22.04 22.65 C 18.06 20.37 14.63 17.23 10.68 14.88 C 10.55 14.06 10.43 13.24 10.31 12.41 Z" />
<path fill="#968176" opacity="1.00" d=" M 20.78 12.51 C 24.06 12.33 27.34 12.36 30.62 12.36 C 30.61 14.91 30.59 17.46 30.49 20.01 C 27.29 17.46 24.05 14.96 20.78 12.51 Z" />
<path fill="#968176" opacity="1.00" d=" M 33.20 12.36 C 35.33 12.36 37.46 12.37 39.59 12.38 C 39.57 16.73 39.57 21.09 39.59 25.44 C 47.51 25.44 55.43 25.44 63.35 25.45 C 63.35 27.74 63.34 30.03 63.32 32.32 C 55.41 32.33 47.49 32.32 39.58 32.32 C 39.57 37.06 39.59 41.80 39.56 46.53 C 37.45 46.53 35.33 46.54 33.22 46.54 C 33.18 41.82 33.19 37.10 33.21 32.38 C 25.64 32.25 18.06 32.36 10.49 32.31 C 10.46 30.03 10.45 27.75 10.45 25.47 C 18.03 25.40 25.61 25.50 33.19 25.40 C 33.20 21.06 33.20 16.71 33.20 12.36 Z" />
<path fill="#968176" opacity="1.00" d=" M 42.11 12.40 C 45.57 12.34 49.04 12.33 52.50 12.53 C 49.03 14.98 45.58 17.47 42.11 19.94 C 42.10 17.42 42.11 14.91 42.11 12.40 Z" />
<path fill="#968176" opacity="1.00" d=" M 54.83 13.77 C 57.12 11.49 60.53 12.60 63.40 12.35 C 63.37 12.77 63.29 13.61 63.26 14.03 C 59.04 16.77 55.13 19.98 50.88 22.64 C 48.18 22.93 45.47 22.71 42.77 22.54 C 46.90 19.77 50.83 16.72 54.83 13.77 Z" />
<path fill="#968176" opacity="1.00" d=" M 65.72 12.43 C 83.33 12.29 100.94 12.37 118.55 12.40 C 118.53 36.00 118.55 59.61 118.54 83.22 C 82.51 83.24 46.48 83.24 10.45 83.22 C 10.43 71.88 10.49 60.53 10.42 49.19 C 28.83 48.50 47.27 49.08 65.68 48.88 C 65.68 36.73 65.73 24.58 65.72 12.43 M 91.45 19.45 C 91.49 20.17 91.58 21.60 91.63 22.31 L 89.49 23.15 C 92.09 23.19 93.21 24.47 92.86 26.99 C 93.30 26.26 93.74 25.53 94.17 24.79 C 95.03 25.41 95.88 26.04 96.72 26.68 C 96.13 24.48 97.14 23.27 99.76 23.06 L 97.51 22.26 C 97.54 21.48 97.60 19.94 97.63 19.17 C 97.08 19.34 95.98 19.70 95.43 19.88 C 95.33 19.15 95.13 17.69 95.02 16.97 C 94.31 18.60 93.56 20.39 91.45 19.45 M 110.49 35.61 C 109.98 35.47 108.96 35.19 108.44 35.05 C 108.39 36.19 108.28 38.48 108.23 39.62 C 108.54 39.62 109.14 39.63 109.45 39.63 C 109.46 40.38 109.50 41.90 109.52 42.65 C 109.93 42.10 110.77 40.99 111.18 40.43 C 111.77 40.96 112.95 42.02 113.53 42.55 L 113.25 39.55 C 114.08 39.48 115.74 39.34 116.57 39.27 L 114.43 38.18 C 114.43 37.30 114.44 35.54 114.44 34.66 C 113.97 34.95 113.03 35.53 112.56 35.82 C 112.19 35.04 111.44 33.49 111.06 32.71 C 110.87 33.68 110.68 34.64 110.49 35.61 M 75.23 40.29 C 74.39 40.29 72.71 40.28 71.88 40.28 C 72.38 40.74 73.39 41.66 73.90 42.12 C 73.16 42.58 71.67 43.49 70.93 43.95 C 73.44 44.02 74.74 45.32 74.82 47.85 L 76.02 45.25 C 76.62 45.94 77.81 47.32 78.41 48.01 C 78.38 47.12 78.33 45.34 78.30 44.44 C 79.14 44.38 80.83 44.26 81.67 44.19 C 79.26 43.41 78.65 41.81 79.87 39.40 C 79.29 39.74 78.13 40.41 77.55 40.74 C 77.18 39.91 76.45 38.26 76.08 37.44 C 75.87 38.15 75.45 39.58 75.23 40.29 M 99.43 50.32 C 100.57 51.20 100.77 52.62 101.09 53.92 C 101.31 53.38 101.75 52.29 101.97 51.74 C 102.31 52.22 103.01 53.17 103.35 53.65 C 103.74 52.46 104.13 51.27 104.48 50.07 C 103.88 49.59 102.68 48.63 102.08 48.15 C 101.61 49.38 100.92 50.43 99.43 50.32 M 35.80 55.53 C 35.12 57.59 34.41 59.64 33.77 61.72 C 33.08 61.59 31.71 61.33 31.02 61.20 C 29.67 60.80 28.30 60.44 26.91 60.26 C 27.26 60.61 27.96 61.32 28.31 61.67 C 28.99 63.13 29.77 64.54 30.54 65.95 C 28.67 67.04 26.81 68.15 24.95 69.28 C 27.14 69.56 29.34 69.78 31.54 69.95 C 31.53 72.30 31.41 74.66 31.33 77.01 C 32.86 75.42 34.42 73.84 35.96 72.26 C 37.59 73.89 39.16 75.58 40.69 77.30 C 40.57 74.83 40.44 72.36 40.43 69.89 C 42.56 69.73 44.69 69.55 46.81 69.35 C 44.93 68.12 43.05 66.90 41.18 65.66 C 42.30 63.76 43.42 61.86 44.51 59.94 C 43.31 60.34 42.12 60.75 40.94 61.18 C 40.15 61.32 38.58 61.58 37.79 61.71 C 37.63 61.01 37.32 59.60 37.16 58.90 C 36.69 57.78 36.24 56.66 35.80 55.53 M 94.82 67.31 C 94.24 68.58 93.66 69.84 93.06 71.09 C 92.73 70.52 92.06 69.37 91.72 68.79 C 92.23 71.28 91.46 73.11 89.40 74.29 C 90.21 74.32 91.83 74.38 92.64 74.41 C 92.62 75.12 92.59 76.54 92.58 77.25 C 93.18 76.80 94.38 75.90 94.97 75.44 C 95.37 76.05 96.16 77.25 96.55 77.85 C 96.61 77.01 96.72 75.35 96.77 74.51 C 97.37 74.44 98.56 74.29 99.15 74.22 L 98.58 72.88 L 97.10 72.15 C 97.49 71.72 98.27 70.88 98.65 70.45 C 95.99 71.21 95.16 69.44 94.82 67.31 Z" />
<path fill="#968176" opacity="1.00" d=" M 55.26 22.60 C 57.96 20.77 60.66 18.92 63.29 16.98 C 63.34 18.91 63.36 20.84 63.37 22.77 C 60.67 22.76 57.96 22.72 55.26 22.60 Z" />
<path fill="#968176" opacity="1.00" d=" M 10.50 17.86 C 12.82 19.39 15.14 20.91 17.40 22.52 C 15.08 22.68 12.75 22.74 10.43 22.78 C 10.45 21.14 10.47 19.50 10.50 17.86 Z" />
<path fill="#968176" opacity="1.00" d=" M 10.50 34.70 C 12.78 34.70 15.06 34.69 17.34 34.65 C 16.64 35.20 15.95 35.75 15.25 36.30 C 13.67 37.34 12.12 38.44 10.49 39.41 C 10.48 37.84 10.49 36.27 10.50 34.70 Z" />
<path fill="#968176" opacity="1.00" d=" M 21.93 34.85 C 24.55 34.51 27.21 34.73 29.85 34.68 C 24.77 38.75 19.45 42.51 14.33 46.52 C 13.36 46.52 11.42 46.51 10.45 46.51 C 10.46 45.58 10.47 43.73 10.48 42.80 C 14.41 40.31 17.84 37.09 21.93 34.85 Z" />
<path fill="#968176" opacity="1.00" d=" M 42.54 34.71 C 45.66 34.96 49.31 33.79 51.94 36.02 C 55.57 38.77 59.53 41.09 62.98 44.05 C 63.15 44.65 63.49 45.84 63.67 46.44 C 61.70 46.50 59.73 46.54 57.76 46.54 C 53.26 42.84 48.45 39.54 44.06 35.71 C 43.68 35.46 42.92 34.96 42.54 34.71 Z" />
<path fill="#968176" opacity="1.00" d=" M 55.48 34.78 C 58.09 34.67 60.70 34.69 63.31 34.69 C 63.33 36.77 63.33 38.86 63.30 40.94 C 60.45 39.20 57.79 37.20 55.48 34.78 Z" />
<path fill="#968176" opacity="1.00" d=" M 28.91 38.54 C 29.34 38.42 30.19 38.18 30.61 38.06 C 30.61 40.89 30.60 43.71 30.58 46.54 C 26.55 46.55 22.51 46.53 18.47 46.45 C 21.99 43.86 25.53 41.31 28.91 38.54 Z" />
<path fill="#968176" opacity="1.00" d=" M 42.18 37.40 C 45.79 40.72 49.87 43.44 53.68 46.50 C 49.83 46.53 45.99 46.54 42.14 46.54 C 42.12 43.49 42.15 40.45 42.18 37.40 Z" />
</g>
</svg>
