<?xml version="1.0" encoding="UTF-8" ?>
<!DOCTYPE svg PUBLIC "-//W3C//DTD SVG 1.1//EN" "http://www.w3.org/Graphics/SVG/1.1/DTD/svg11.dtd">
<svg width="200pt" height="200pt" viewBox="0 0 200 200" version="1.1" xmlns="http://www.w3.org/2000/svg">
<g id="#ffffffff">
<path fill="#ffffff" opacity="1.00" d=" M 0.00 0.00 L 200.00 0.00 L 200.00 200.00 L 0.00 200.00 L 0.00 0.00 M 100.95 19.82 C 100.65 22.43 100.73 25.06 100.73 27.68 C 98.84 28.87 96.72 30.54 97.03 33.07 C 96.70 35.64 98.89 37.11 100.77 38.28 C 100.74 39.28 100.71 40.29 100.68 41.29 C 99.05 44.03 99.57 47.79 96.95 49.92 C 93.27 53.14 88.53 54.74 84.53 57.50 C 79.52 60.25 75.38 64.40 72.54 69.34 C 69.60 75.06 68.51 81.58 68.59 87.97 C 68.37 89.80 70.45 90.63 71.96 90.48 C 91.64 90.54 111.32 90.47 131.00 90.51 C 132.67 90.65 134.22 90.04 135.73 89.40 C 135.44 80.73 134.30 71.38 128.58 64.45 C 123.62 57.96 115.51 55.42 108.90 51.08 C 104.55 48.27 104.10 42.57 103.33 37.93 C 104.00 37.65 105.34 37.10 106.01 36.83 C 107.31 34.34 107.30 31.67 105.98 29.20 C 105.15 28.79 104.32 28.39 103.49 27.98 C 103.50 25.32 103.64 22.64 103.31 19.99 C 102.72 19.95 101.54 19.86 100.95 19.82 M 42.45 83.35 C 36.95 86.75 30.09 89.96 28.38 96.83 C 28.04 99.76 25.70 104.10 29.01 106.07 C 38.65 106.52 48.33 106.10 57.99 106.27 C 59.95 106.19 63.10 106.74 63.45 104.02 C 63.54 100.32 62.92 96.49 61.07 93.25 C 58.28 88.54 53.22 86.18 48.59 83.72 C 48.15 82.26 47.71 80.80 47.26 79.35 C 44.39 78.15 42.41 80.64 42.45 83.35 M 157.34 79.44 C 156.43 81.10 156.39 83.50 154.42 84.33 C 148.85 87.42 142.62 91.24 141.52 98.11 C 141.41 100.72 139.56 105.08 143.01 106.14 C 153.37 106.38 163.74 106.23 174.10 106.21 C 175.75 106.40 176.90 105.29 176.94 103.67 C 176.97 98.79 175.89 93.37 172.14 89.93 C 169.37 87.09 165.38 86.01 162.36 83.52 C 161.34 81.33 160.57 77.77 157.34 79.44 M 67.41 96.30 C 67.02 100.77 67.36 105.27 67.25 109.75 C 53.18 109.77 39.10 109.71 25.02 109.78 C 24.58 110.18 23.68 110.99 23.23 111.39 C 23.26 131.32 23.26 151.24 23.23 171.17 C 24.40 171.45 25.58 172.78 26.80 171.95 C 28.51 171.55 28.13 169.37 28.26 168.08 C 28.24 150.39 28.26 132.69 28.25 115.00 C 41.17 115.00 54.08 115.00 67.00 115.00 C 67.01 133.01 66.98 151.03 67.01 169.04 C 66.67 170.67 68.00 171.61 69.03 172.59 C 69.80 172.36 71.34 171.90 72.10 171.67 C 72.53 169.81 72.69 167.90 72.65 166.00 C 72.53 143.80 72.82 121.60 72.40 99.40 C 92.19 99.59 111.99 99.52 131.78 99.44 C 131.72 122.64 131.74 145.85 131.77 169.05 C 131.33 171.06 133.13 171.95 134.62 172.68 C 135.28 172.28 136.61 171.49 137.27 171.09 C 137.23 152.39 137.26 133.70 137.25 115.00 C 150.17 115.00 163.08 115.00 176.00 115.00 C 176.18 133.84 175.64 152.71 176.28 171.53 C 177.96 172.18 181.06 172.73 181.15 170.09 C 181.41 152.07 181.15 134.03 181.27 116.00 C 181.35 113.95 181.07 111.92 180.55 109.95 C 166.04 109.49 151.51 109.87 137.00 109.75 C 136.93 105.48 137.15 101.21 136.91 96.95 C 136.95 95.38 135.62 93.96 134.01 94.27 C 113.35 94.21 92.68 94.29 72.01 94.24 C 70.29 94.28 67.65 93.93 67.41 96.30 M 93.20 112.32 C 87.00 115.95 81.95 122.51 82.25 129.97 C 82.30 143.27 82.15 156.57 82.32 169.86 C 82.58 172.52 85.49 172.51 87.28 171.25 C 87.21 158.15 87.28 145.05 87.24 131.95 C 87.16 128.25 87.85 124.27 90.39 121.43 C 93.68 117.75 98.08 115.16 102.75 113.62 C 109.51 115.86 117.29 120.20 118.10 128.05 C 118.52 141.96 118.03 155.90 118.33 169.81 C 118.27 171.41 120.12 171.81 121.07 172.67 C 122.24 171.74 123.82 170.85 123.48 169.07 C 123.56 156.70 123.46 144.33 123.52 131.95 C 123.62 127.73 122.85 123.34 120.40 119.81 C 116.95 114.84 111.77 111.10 106.08 109.11 C 101.50 107.27 97.10 110.23 93.20 112.32 M 36.69 127.82 C 36.37 132.27 36.35 136.76 36.69 141.21 C 36.90 141.54 37.34 142.19 37.56 142.52 C 43.95 143.08 50.40 142.57 56.81 142.76 C 57.17 142.38 57.90 141.62 58.26 141.24 C 58.09 136.59 58.61 131.90 57.93 127.28 C 56.61 122.44 51.99 119.77 47.42 118.63 C 42.67 119.80 37.83 122.72 36.69 127.82 M 148.50 123.61 C 145.05 127.59 146.16 133.19 145.99 138.02 C 146.02 139.74 145.75 142.54 148.16 142.66 C 154.44 142.90 160.73 142.68 167.02 142.74 C 168.84 138.39 167.78 133.51 167.91 128.92 C 167.57 123.21 162.07 119.84 157.00 118.69 C 153.87 119.70 150.42 120.70 148.50 123.61 M 39.14 152.19 C 35.23 157.34 36.66 164.08 36.61 170.09 C 37.08 173.10 40.85 172.06 43.00 172.27 C 48.07 171.85 53.44 173.21 58.27 171.27 C 58.16 166.86 58.43 162.44 58.13 158.04 C 57.52 152.81 52.71 148.89 47.65 148.29 C 44.37 148.29 41.70 150.41 39.14 152.19 M 149.01 152.27 C 144.47 157.62 146.14 165.16 146.31 171.58 C 151.78 172.86 157.45 172.01 163.01 172.27 C 164.77 172.29 167.77 172.47 167.88 170.03 C 168.11 165.98 168.11 161.90 167.85 157.86 C 167.20 152.54 162.05 148.88 157.00 148.31 C 153.99 148.59 151.10 150.11 149.01 152.27 Z" />
</g>
<g id="#000000ff">
<path fill="#968176" opacity="1.00" d=" M 100.95 19.82 C 101.54 19.86 102.72 19.95 103.31 19.99 C 103.64 22.64 103.50 25.32 103.49 27.98 C 104.32 28.39 105.15 28.79 105.98 29.20 C 107.30 31.67 107.31 34.34 106.01 36.83 C 105.34 37.10 104.00 37.65 103.33 37.93 C 104.10 42.57 104.55 48.27 108.90 51.08 C 115.51 55.42 123.62 57.96 128.58 64.45 C 134.30 71.38 135.44 80.73 135.73 89.40 C 134.22 90.04 132.67 90.65 131.00 90.51 C 111.32 90.47 91.64 90.54 71.96 90.48 C 70.45 90.63 68.37 89.80 68.59 87.97 C 68.51 81.58 69.60 75.06 72.54 69.34 C 75.38 64.40 79.52 60.25 84.53 57.50 C 88.53 54.74 93.27 53.14 96.95 49.92 C 99.57 47.79 99.05 44.03 100.68 41.29 C 100.71 40.29 100.74 39.28 100.77 38.28 C 98.89 37.11 96.70 35.64 97.03 33.07 C 96.72 30.54 98.84 28.87 100.73 27.68 C 100.73 25.06 100.65 22.43 100.95 19.82 Z" />
<path fill="#968176" opacity="1.00" d=" M 42.45 83.35 C 42.41 80.64 44.39 78.15 47.26 79.35 C 47.71 80.80 48.15 82.26 48.59 83.72 C 53.22 86.18 58.28 88.54 61.07 93.25 C 62.92 96.49 63.54 100.32 63.45 104.02 C 63.10 106.74 59.95 106.19 57.99 106.27 C 48.33 106.10 38.65 106.52 29.01 106.07 C 25.70 104.10 28.04 99.76 28.38 96.83 C 30.09 89.96 36.95 86.75 42.45 83.35 Z" />
<path fill="#968176" opacity="1.00" d=" M 157.34 79.44 C 160.57 77.77 161.34 81.33 162.36 83.52 C 165.38 86.01 169.37 87.09 172.14 89.93 C 175.89 93.37 176.97 98.79 176.94 103.67 C 176.90 105.29 175.75 106.40 174.10 106.21 C 163.74 106.23 153.37 106.38 143.01 106.14 C 139.56 105.08 141.41 100.72 141.52 98.11 C 142.62 91.24 148.85 87.42 154.42 84.33 C 156.39 83.50 156.43 81.10 157.34 79.44 Z" />
<path fill="#968176" opacity="1.00" d=" M 67.41 96.30 C 67.65 93.93 70.29 94.28 72.01 94.24 C 92.68 94.29 113.35 94.21 134.01 94.27 C 135.62 93.96 136.95 95.38 136.91 96.95 C 137.15 101.21 136.93 105.48 137.00 109.75 C 151.51 109.87 166.04 109.49 180.55 109.95 C 181.07 111.92 181.35 113.95 181.27 116.00 C 181.15 134.03 181.41 152.07 181.15 170.09 C 181.06 172.73 177.96 172.18 176.28 171.53 C 175.64 152.71 176.18 133.84 176.00 115.00 C 163.08 115.00 150.17 115.00 137.25 115.00 C 137.26 133.70 137.23 152.39 137.27 171.09 C 136.61 171.49 135.28 172.28 134.62 172.68 C 133.13 171.95 131.33 171.06 131.77 169.05 C 131.74 145.85 131.72 122.64 131.78 99.44 C 111.99 99.52 92.19 99.59 72.40 99.40 C 72.82 121.60 72.53 143.80 72.65 166.00 C 72.69 167.90 72.53 169.81 72.10 171.67 C 71.34 171.90 69.80 172.36 69.03 172.59 C 68.00 171.61 66.67 170.67 67.01 169.04 C 66.98 151.03 67.01 133.01 67.00 115.00 C 54.08 115.00 41.17 115.00 28.25 115.00 C 28.26 132.69 28.24 150.39 28.26 168.08 C 28.13 169.37 28.51 171.55 26.80 171.95 C 25.58 172.78 24.40 171.45 23.23 171.17 C 23.26 151.24 23.26 131.32 23.23 111.39 C 23.68 110.99 24.58 110.18 25.02 109.78 C 39.10 109.71 53.18 109.77 67.25 109.75 C 67.36 105.27 67.02 100.77 67.41 96.30 Z" />
<path fill="#968176" opacity="1.00" d=" M 93.20 112.32 C 97.10 110.23 101.50 107.27 106.08 109.11 C 111.77 111.10 116.95 114.84 120.40 119.81 C 122.85 123.34 123.62 127.73 123.52 131.95 C 123.46 144.33 123.56 156.70 123.48 169.07 C 123.82 170.85 122.24 171.74 121.07 172.67 C 120.12 171.81 118.27 171.41 118.33 169.81 C 118.03 155.90 118.52 141.96 118.10 128.05 C 117.29 120.20 109.51 115.86 102.75 113.62 C 98.08 115.16 93.68 117.75 90.39 121.43 C 87.85 124.27 87.16 128.25 87.24 131.95 C 87.28 145.05 87.21 158.15 87.28 171.25 C 85.49 172.51 82.58 172.52 82.32 169.86 C 82.15 156.57 82.30 143.27 82.25 129.97 C 81.95 122.51 87.00 115.95 93.20 112.32 Z" />
<path fill="#968176" opacity="1.00" d=" M 36.69 127.82 C 37.83 122.72 42.67 119.80 47.42 118.63 C 51.99 119.77 56.61 122.44 57.93 127.28 C 58.61 131.90 58.09 136.59 58.26 141.24 C 57.90 141.62 57.17 142.38 56.81 142.76 C 50.40 142.57 43.95 143.08 37.56 142.52 C 37.34 142.19 36.90 141.54 36.69 141.21 C 36.35 136.76 36.37 132.27 36.69 127.82 Z" />
<path fill="#968176" opacity="1.00" d=" M 148.50 123.61 C 150.42 120.70 153.87 119.70 157.00 118.69 C 162.07 119.84 167.57 123.21 167.91 128.92 C 167.78 133.51 168.84 138.39 167.02 142.74 C 160.73 142.68 154.44 142.90 148.16 142.66 C 145.75 142.54 146.02 139.74 145.99 138.02 C 146.16 133.19 145.05 127.59 148.50 123.61 Z" />
<path fill="#968176" opacity="1.00" d=" M 39.14 152.19 C 41.70 150.41 44.37 148.29 47.65 148.29 C 52.71 148.89 57.52 152.81 58.13 158.04 C 58.43 162.44 58.16 166.86 58.27 171.27 C 53.44 173.21 48.07 171.85 43.00 172.27 C 40.85 172.06 37.08 173.10 36.61 170.09 C 36.66 164.08 35.23 157.34 39.14 152.19 Z" />
<path fill="#968176" opacity="1.00" d=" M 149.01 152.27 C 151.10 150.11 153.99 148.59 157.00 148.31 C 162.05 148.88 167.20 152.54 167.85 157.86 C 168.11 161.90 168.11 165.98 167.88 170.03 C 167.77 172.47 164.77 172.29 163.01 172.27 C 157.45 172.01 151.78 172.86 146.31 171.58 C 146.14 165.16 144.47 157.62 149.01 152.27 Z" />
</g>
</svg>
