<?xml version="1.0" encoding="UTF-8" ?>
<!DOCTYPE svg PUBLIC "-//W3C//DTD SVG 1.1//EN" "http://www.w3.org/Graphics/SVG/1.1/DTD/svg11.dtd">
<svg width="60pt" height="60pt" viewBox="0 0 60 60" version="1.1" xmlns="http://www.w3.org/2000/svg">
<g id="#ffffffff">
<path fill="#ffffff" opacity="1.00" d=" M 0.00 0.00 L 60.00 0.00 L 60.00 60.00 L 0.00 60.00 L 0.00 0.00 M 3.78 9.75 C 1.26 12.15 2.17 15.92 1.99 19.01 C 2.34 24.57 0.79 30.79 4.20 35.69 C 7.36 39.41 12.78 37.62 17.01 37.98 C 19.41 38.75 21.32 35.34 18.83 34.19 C 15.28 33.69 11.67 34.27 8.11 33.86 C 6.88 33.01 6.66 31.33 5.93 30.10 C 21.97 29.94 38.03 29.93 54.07 30.10 C 53.37 31.35 53.05 32.90 51.94 33.86 C 48.38 34.26 44.77 33.71 41.21 34.18 C 39.21 34.83 39.87 38.12 41.98 37.92 C 45.57 38.02 49.22 38.25 52.79 37.73 C 56.44 36.65 57.72 32.47 57.98 29.07 C 58.01 24.00 58.07 18.94 57.95 13.87 C 58.02 10.75 55.22 7.96 52.10 8.05 C 38.08 7.92 24.06 8.05 10.04 7.98 C 7.86 7.95 5.36 8.00 3.78 9.75 M 25.18 34.24 C 22.29 35.35 25.30 39.64 27.38 37.45 C 29.18 36.10 26.94 33.01 25.18 34.24 M 33.20 34.19 C 30.66 35.03 32.62 39.10 34.77 37.79 C 37.25 36.99 35.49 32.94 33.20 34.19 M 21.10 42.07 C 18.85 43.24 20.52 46.99 22.72 45.78 C 25.31 44.99 23.49 41.04 21.10 42.07 M 29.15 42.11 C 26.76 43.17 28.59 47.04 30.77 45.78 C 33.30 44.89 31.49 41.10 29.15 42.11 M 37.22 42.16 C 34.68 43.01 36.59 47.10 38.76 45.77 C 41.28 45.00 39.53 41.04 37.22 42.16 M 17.27 50.20 C 15.54 50.65 15.55 53.38 17.30 53.80 C 18.21 54.61 20.30 53.23 19.92 52.05 C 20.32 50.79 18.29 49.39 17.27 50.20 M 25.23 50.20 C 23.94 50.65 23.48 52.44 24.61 53.35 C 25.45 54.80 28.23 53.70 27.93 52.04 C 28.29 50.79 26.24 49.34 25.23 50.20 M 33.23 50.20 C 30.14 51.27 33.54 55.85 35.43 53.31 C 37.08 51.97 34.96 49.11 33.23 50.20 M 41.08 50.13 C 38.80 51.28 40.61 55.03 42.79 53.78 C 45.32 52.84 43.42 49.00 41.08 50.13 Z" />
<path fill="#ffffff" opacity="1.00" d=" M 43.22 22.09 C 45.61 21.22 47.06 24.66 44.91 25.88 C 42.44 26.93 40.80 23.17 43.22 22.09 Z" />
<path fill="#ffffff" opacity="1.00" d=" M 51.19 22.21 C 52.21 21.44 54.33 22.69 53.92 23.98 C 54.26 25.71 51.54 26.75 50.59 25.36 C 49.60 24.49 49.88 22.65 51.19 22.21 Z" />
</g>
<g id="#000000ff">
<path fill="#000000" opacity="1.00" d=" M 3.78 9.75 C 5.36 8.00 7.86 7.95 10.04 7.98 C 24.06 8.05 38.08 7.92 52.10 8.05 C 55.22 7.96 58.02 10.75 57.95 13.87 C 58.07 18.94 58.01 24.00 57.98 29.07 C 57.72 32.47 56.44 36.65 52.79 37.73 C 49.22 38.25 45.57 38.02 41.98 37.92 C 39.87 38.12 39.21 34.83 41.21 34.18 C 44.77 33.71 48.38 34.26 51.94 33.86 C 53.05 32.90 53.37 31.35 54.07 30.10 C 38.03 29.93 21.97 29.94 5.93 30.10 C 6.66 31.33 6.88 33.01 8.11 33.86 C 11.67 34.27 15.28 33.69 18.83 34.19 C 21.32 35.34 19.41 38.75 17.01 37.98 C 12.78 37.62 7.36 39.41 4.20 35.69 C 0.79 30.79 2.34 24.57 1.99 19.01 C 2.17 15.92 1.26 12.15 3.78 9.75 M 43.22 22.09 C 40.80 23.17 42.44 26.93 44.91 25.88 C 47.06 24.66 45.61 21.22 43.22 22.09 M 51.19 22.21 C 49.88 22.65 49.60 24.49 50.59 25.36 C 51.54 26.75 54.26 25.71 53.92 23.98 C 54.33 22.69 52.21 21.44 51.19 22.21 Z" />
<path fill="#000000" opacity="1.00" d=" M 25.18 34.24 C 26.94 33.01 29.18 36.10 27.38 37.45 C 25.30 39.64 22.29 35.35 25.18 34.24 Z" />
<path fill="#000000" opacity="1.00" d=" M 33.20 34.19 C 35.49 32.94 37.25 36.99 34.77 37.79 C 32.62 39.10 30.66 35.03 33.20 34.19 Z" />
<path fill="#000000" opacity="1.00" d=" M 21.10 42.07 C 23.49 41.04 25.31 44.99 22.72 45.78 C 20.52 46.99 18.85 43.24 21.10 42.07 Z" />
<path fill="#000000" opacity="1.00" d=" M 29.15 42.11 C 31.49 41.10 33.30 44.89 30.77 45.78 C 28.59 47.04 26.76 43.17 29.15 42.11 Z" />
<path fill="#000000" opacity="1.00" d=" M 37.22 42.16 C 39.53 41.04 41.28 45.00 38.76 45.77 C 36.59 47.10 34.68 43.01 37.22 42.16 Z" />
<path fill="#000000" opacity="1.00" d=" M 17.27 50.20 C 18.29 49.39 20.32 50.79 19.92 52.05 C 20.30 53.23 18.21 54.61 17.30 53.80 C 15.55 53.38 15.54 50.65 17.27 50.20 Z" />
<path fill="#000000" opacity="1.00" d=" M 25.23 50.20 C 26.24 49.34 28.29 50.79 27.93 52.04 C 28.23 53.70 25.45 54.80 24.61 53.35 C 23.48 52.44 23.94 50.65 25.23 50.20 Z" />
<path fill="#000000" opacity="1.00" d=" M 33.23 50.20 C 34.96 49.11 37.08 51.97 35.43 53.31 C 33.54 55.85 30.14 51.27 33.23 50.20 Z" />
<path fill="#000000" opacity="1.00" d=" M 41.08 50.13 C 43.42 49.00 45.32 52.84 42.79 53.78 C 40.61 55.03 38.80 51.28 41.08 50.13 Z" />
</g>
</svg>
