<?xml version="1.0" encoding="UTF-8" ?>
<!DOCTYPE svg PUBLIC "-//W3C//DTD SVG 1.1//EN" "http://www.w3.org/Graphics/SVG/1.1/DTD/svg11.dtd">
<svg width="60pt" height="60pt" viewBox="0 0 60 60" version="1.1" xmlns="http://www.w3.org/2000/svg">
<g id="#ffffffff">
<path fill="#ffffff" opacity="1.00" d=" M 0.00 0.00 L 60.00 0.00 L 60.00 60.00 L 0.00 60.00 L 0.00 0.00 M 38.35 6.60 C 32.81 8.30 29.06 14.38 30.22 20.10 C 31.16 26.04 37.09 30.60 43.09 29.91 C 49.86 29.48 55.20 22.49 53.77 15.83 C 52.68 8.98 44.94 4.25 38.35 6.60 M 15.40 10.60 C 11.49 12.28 10.84 18.21 14.29 20.70 C 17.55 23.52 23.22 21.41 23.87 17.16 C 25.04 12.56 19.58 8.31 15.40 10.60 M 6.02 21.71 C 6.00 23.21 5.98 24.72 5.95 26.23 C 7.91 27.39 9.88 28.54 11.84 29.70 C 12.03 28.64 12.41 26.53 12.60 25.47 C 10.41 24.21 8.22 22.95 6.02 21.71 M 16.20 30.17 C 18.04 35.05 21.14 39.38 22.80 44.34 C 23.58 44.11 24.36 43.87 25.13 43.63 C 25.50 40.04 27.79 37.03 29.02 33.71 C 27.34 30.82 26.33 27.43 23.97 25.01 C 20.57 22.07 14.74 25.86 16.20 30.17 M 32.62 35.27 C 31.78 38.52 28.82 41.47 29.20 44.80 C 32.47 45.20 35.49 42.57 38.69 41.79 C 41.47 44.87 44.07 48.12 46.97 51.10 C 48.65 53.05 52.10 51.49 52.00 48.98 C 51.64 47.02 50.11 45.56 49.07 43.93 C 46.74 40.91 44.90 37.49 42.25 34.73 C 39.26 33.13 35.75 34.96 32.62 35.27 M 20.72 51.99 C 22.18 52.00 23.63 52.00 25.09 52.00 C 25.75 50.04 27.30 48.31 27.62 46.30 C 27.17 46.19 26.27 45.97 25.82 45.86 L 25.12 44.43 C 22.84 46.40 21.94 49.35 20.72 51.99 Z" />
<path fill="#ffffff" opacity="1.00" d=" M 37.87 11.01 C 40.53 9.80 43.47 9.79 46.12 11.01 C 44.76 12.41 43.38 13.79 42.00 15.17 C 40.62 13.79 39.24 12.41 37.87 11.01 Z" />
<path fill="#ffffff" opacity="1.00" d=" M 35.00 13.88 C 36.40 15.25 37.79 16.62 39.18 17.99 C 37.80 19.38 36.41 20.76 35.01 22.13 C 33.79 19.47 33.80 16.54 35.00 13.88 Z" />
<path fill="#ffffff" opacity="1.00" d=" M 48.87 13.93 C 50.27 16.50 50.26 19.50 48.87 22.07 C 47.52 20.72 46.17 19.37 44.85 17.99 C 46.18 16.63 47.53 15.29 48.87 13.93 Z" />
<path fill="#ffffff" opacity="1.00" d=" M 37.88 24.99 C 39.24 23.59 40.62 22.21 42.00 20.82 C 43.38 22.20 44.76 23.58 46.12 24.98 C 43.47 26.20 40.54 26.19 37.88 24.99 Z" />
</g>
<g id="#000000ff">
<path fill="#000000" opacity="1.00" d=" M 38.35 6.60 C 44.94 4.25 52.68 8.98 53.77 15.83 C 55.20 22.49 49.86 29.48 43.09 29.91 C 37.09 30.60 31.16 26.04 30.22 20.10 C 29.06 14.38 32.81 8.30 38.35 6.60 M 37.87 11.01 C 39.24 12.41 40.62 13.79 42.00 15.17 C 43.38 13.79 44.76 12.41 46.12 11.01 C 43.47 9.79 40.53 9.80 37.87 11.01 M 35.00 13.88 C 33.80 16.54 33.79 19.47 35.01 22.13 C 36.41 20.76 37.80 19.38 39.18 17.99 C 37.79 16.62 36.40 15.25 35.00 13.88 M 48.87 13.93 C 47.53 15.29 46.18 16.63 44.85 17.99 C 46.17 19.37 47.52 20.72 48.87 22.07 C 50.26 19.50 50.27 16.50 48.87 13.93 M 37.88 24.99 C 40.54 26.19 43.47 26.20 46.12 24.98 C 44.76 23.58 43.38 22.20 42.00 20.82 C 40.62 22.21 39.24 23.59 37.88 24.99 Z" />
<path fill="#000000" opacity="1.00" d=" M 15.40 10.60 C 19.58 8.31 25.04 12.56 23.87 17.16 C 23.22 21.41 17.55 23.52 14.29 20.70 C 10.84 18.21 11.49 12.28 15.40 10.60 Z" />
<path fill="#000000" opacity="1.00" d=" M 6.02 21.71 C 8.22 22.95 10.41 24.21 12.60 25.47 C 12.41 26.53 12.03 28.64 11.84 29.70 C 9.88 28.54 7.91 27.39 5.95 26.23 C 5.98 24.72 6.00 23.21 6.02 21.71 Z" />
<path fill="#000000" opacity="1.00" d=" M 16.20 30.17 C 14.74 25.86 20.57 22.07 23.97 25.01 C 26.33 27.43 27.34 30.82 29.02 33.71 C 27.79 37.03 25.50 40.04 25.13 43.63 C 24.36 43.87 23.58 44.11 22.80 44.34 C 21.14 39.38 18.04 35.05 16.20 30.17 Z" />
<path fill="#000000" opacity="1.00" d=" M 32.62 35.27 C 35.75 34.96 39.26 33.13 42.25 34.73 C 44.90 37.49 46.74 40.91 49.07 43.93 C 50.11 45.56 51.64 47.02 52.00 48.98 C 52.10 51.49 48.65 53.05 46.97 51.10 C 44.07 48.12 41.47 44.87 38.69 41.79 C 35.49 42.57 32.47 45.20 29.20 44.80 C 28.82 41.47 31.78 38.52 32.62 35.27 Z" />
<path fill="#000000" opacity="1.00" d=" M 20.72 51.99 C 21.94 49.35 22.84 46.40 25.12 44.43 L 25.82 45.86 C 26.27 45.97 27.17 46.19 27.62 46.30 C 27.30 48.31 25.75 50.04 25.09 52.00 C 23.63 52.00 22.18 52.00 20.72 51.99 Z" />
</g>
</svg>
