<?xml version="1.0" encoding="UTF-8" ?>
<!DOCTYPE svg PUBLIC "-//W3C//DTD SVG 1.1//EN" "http://www.w3.org/Graphics/SVG/1.1/DTD/svg11.dtd">
<svg width="60pt" height="60pt" viewBox="0 0 60 60" version="1.1" xmlns="http://www.w3.org/2000/svg">
<g id="#ffffffff">
<path fill="#ffffff" opacity="1.00" d=" M 0.00 0.00 L 60.00 0.00 L 60.00 60.00 L 0.00 60.00 L 0.00 0.00 M 4.20 28.88 C 2.83 38.99 8.20 49.24 16.85 54.46 C 17.55 53.34 18.27 52.22 19.00 51.12 C 13.41 47.59 9.11 41.82 8.27 35.17 C 6.86 26.71 11.11 17.77 18.40 13.32 C 25.53 8.77 35.30 8.94 42.26 13.76 C 49.16 18.31 53.08 26.99 51.73 35.18 C 50.86 41.81 46.62 47.64 40.99 51.11 C 41.73 52.22 42.45 53.34 43.16 54.48 C 51.78 49.22 57.17 38.99 55.79 28.87 C 54.51 16.19 42.73 5.71 29.97 6.02 C 17.23 5.75 5.46 16.21 4.20 28.88 M 16.80 19.78 C 11.73 25.08 10.56 33.56 13.93 40.06 C 15.48 43.32 18.24 45.73 21.13 47.78 C 21.85 46.67 22.57 45.57 23.29 44.46 C 19.09 41.73 15.84 37.16 16.03 31.97 C 15.87 24.55 22.51 17.86 29.95 18.05 C 37.44 17.80 44.17 24.56 43.96 32.04 C 44.14 37.19 40.88 41.73 36.71 44.47 C 37.43 45.57 38.15 46.67 38.87 47.78 C 43.58 44.74 47.28 39.85 47.85 34.14 C 48.94 26.35 44.17 18.29 36.89 15.38 C 30.14 12.47 21.71 14.31 16.80 19.78 M 21.64 26.56 C 18.24 31.40 20.50 38.18 25.37 41.08 C 26.12 39.96 26.88 38.86 27.64 37.75 C 24.93 36.02 22.93 32.59 24.58 29.43 C 26.35 25.18 32.99 24.87 35.14 28.94 C 37.19 32.10 35.27 35.97 32.36 37.75 C 33.12 38.85 33.87 39.96 34.62 41.08 C 39.47 38.19 41.75 31.42 38.36 26.58 C 34.85 20.59 25.17 20.58 21.64 26.56 M 29.26 30.15 C 26.74 31.06 28.49 34.99 30.88 33.87 C 33.11 32.78 31.58 29.13 29.26 30.15 Z" />
</g>
<g id="#000000ff">
<path fill="#000000" opacity="1.00" d=" M 4.20 28.88 C 5.46 16.21 17.23 5.75 29.97 6.02 C 42.73 5.71 54.51 16.19 55.79 28.87 C 57.17 38.99 51.78 49.22 43.16 54.48 C 42.45 53.34 41.73 52.22 40.99 51.11 C 46.62 47.64 50.86 41.81 51.73 35.18 C 53.08 26.99 49.16 18.31 42.26 13.76 C 35.30 8.94 25.53 8.77 18.40 13.32 C 11.11 17.77 6.86 26.71 8.27 35.17 C 9.11 41.82 13.41 47.59 19.00 51.12 C 18.27 52.22 17.55 53.34 16.85 54.46 C 8.20 49.24 2.83 38.99 4.20 28.88 Z" />
<path fill="#000000" opacity="1.00" d=" M 16.80 19.78 C 21.71 14.31 30.14 12.47 36.89 15.38 C 44.17 18.29 48.94 26.35 47.85 34.14 C 47.28 39.85 43.58 44.74 38.87 47.78 C 38.15 46.67 37.43 45.57 36.71 44.47 C 40.88 41.73 44.14 37.19 43.96 32.04 C 44.17 24.56 37.44 17.80 29.95 18.05 C 22.51 17.86 15.87 24.55 16.03 31.97 C 15.84 37.16 19.09 41.73 23.29 44.46 C 22.57 45.57 21.85 46.67 21.13 47.78 C 18.24 45.73 15.48 43.32 13.93 40.06 C 10.56 33.56 11.73 25.08 16.80 19.78 Z" />
<path fill="#000000" opacity="1.00" d=" M 21.64 26.56 C 25.17 20.58 34.85 20.59 38.36 26.58 C 41.75 31.42 39.47 38.19 34.62 41.08 C 33.87 39.96 33.12 38.85 32.36 37.75 C 35.27 35.97 37.19 32.10 35.14 28.94 C 32.99 24.87 26.35 25.18 24.58 29.43 C 22.93 32.59 24.93 36.02 27.64 37.75 C 26.88 38.86 26.12 39.96 25.37 41.08 C 20.50 38.18 18.24 31.40 21.64 26.56 Z" />
<path fill="#000000" opacity="1.00" d=" M 29.26 30.15 C 31.58 29.13 33.11 32.78 30.88 33.87 C 28.49 34.99 26.74 31.06 29.26 30.15 Z" />
</g>
</svg>
