<?xml version="1.0" encoding="UTF-8" ?>
<!DOCTYPE svg PUBLIC "-//W3C//DTD SVG 1.1//EN" "http://www.w3.org/Graphics/SVG/1.1/DTD/svg11.dtd">
<svg width="60pt" height="60pt" viewBox="0 0 60 60" version="1.1" xmlns="http://www.w3.org/2000/svg">
<g id="#ffffffff">
<path fill="#ffffff" opacity="1.00" d=" M 0.00 0.00 L 60.00 0.00 L 60.00 60.00 L 0.00 60.00 L 0.00 0.00 M 26.03 5.79 C 25.99 9.00 26.04 12.21 26.07 15.42 C 28.60 16.32 31.13 17.22 33.65 18.17 C 32.60 14.91 31.99 11.51 30.67 8.35 C 29.96 6.43 27.71 6.26 26.03 5.79 M 8.90 5.87 C 7.99 9.92 6.66 13.89 6.04 18.00 C 5.93 19.86 7.37 21.35 9.06 21.87 C 13.72 23.69 18.46 25.30 23.13 27.08 C 19.39 30.82 15.60 34.50 11.88 38.25 C 13.55 39.33 15.64 40.75 17.63 39.47 C 22.95 36.74 28.09 33.65 33.38 30.84 C 37.89 32.46 42.32 34.34 46.90 35.76 C 49.59 36.87 52.68 33.87 51.88 31.13 C 51.51 28.91 49.17 28.18 47.37 27.47 C 35.89 23.25 24.41 19.05 12.93 14.84 C 12.86 11.39 13.31 6.77 8.90 5.87 M 35.12 34.10 C 32.87 35.31 34.47 38.89 36.88 37.88 C 39.13 36.68 37.54 33.15 35.12 34.10 M 7.22 48.18 C 5.24 48.80 5.88 52.19 7.99 51.91 C 21.99 52.14 36.01 51.91 50.02 52.02 C 51.41 51.98 54.14 52.15 53.93 50.06 C 54.23 47.90 51.48 47.97 50.05 47.98 C 35.77 48.15 21.48 47.74 7.22 48.18 Z" />
</g>
<g id="#000000ff">
<path fill="#968176" opacity="1.00" d=" M 26.03 5.79 C 27.71 6.26 29.96 6.43 30.67 8.35 C 31.99 11.51 32.60 14.91 33.65 18.17 C 31.13 17.22 28.60 16.32 26.07 15.42 C 26.04 12.21 25.99 9.00 26.03 5.79 Z" />
<path fill="#968176" opacity="1.00" d=" M 8.90 5.87 C 13.31 6.77 12.86 11.39 12.93 14.84 C 24.41 19.05 35.89 23.25 47.37 27.47 C 49.17 28.18 51.51 28.91 51.88 31.13 C 52.68 33.87 49.59 36.87 46.90 35.76 C 42.32 34.34 37.89 32.46 33.38 30.84 C 28.09 33.65 22.95 36.74 17.63 39.47 C 15.64 40.75 13.55 39.33 11.88 38.25 C 15.60 34.50 19.39 30.82 23.13 27.08 C 18.46 25.30 13.72 23.69 9.06 21.87 C 7.37 21.35 5.93 19.86 6.04 18.00 C 6.66 13.89 7.99 9.92 8.90 5.87 Z" />
<path fill="#968176" opacity="1.00" d=" M 35.12 34.10 C 37.54 33.15 39.13 36.68 36.88 37.88 C 34.47 38.89 32.87 35.31 35.12 34.10 Z" />
<path fill="#968176" opacity="1.00" d=" M 7.22 48.18 C 21.48 47.74 35.77 48.15 50.05 47.98 C 51.48 47.97 54.23 47.90 53.93 50.06 C 54.14 52.15 51.41 51.98 50.02 52.02 C 36.01 51.91 21.99 52.14 7.99 51.91 C 5.88 52.19 5.24 48.80 7.22 48.18 Z" />
</g>
</svg>
