<?xml version="1.0" encoding="UTF-8" ?>
<!DOCTYPE svg PUBLIC "-//W3C//DTD SVG 1.1//EN" "http://www.w3.org/Graphics/SVG/1.1/DTD/svg11.dtd">
<svg width="64pt" height="64pt" viewBox="0 0 64 64" version="1.1" xmlns="http://www.w3.org/2000/svg">
<g id="#ffffffff">
<path fill="#ffffff" opacity="1.00" d=" M 0.00 0.00 L 64.00 0.00 L 64.00 64.00 L 0.00 64.00 L 0.00 0.00 M 26.94 9.83 C 23.84 12.22 23.35 16.64 25.00 20.02 C 20.00 19.98 15.00 20.01 10.00 20.00 C 10.00 29.33 10.00 38.67 10.00 48.00 C 24.67 48.00 39.33 48.00 54.00 48.00 C 54.00 38.67 54.00 29.33 54.00 20.00 C 49.00 20.01 44.00 19.98 39.00 20.02 C 40.07 17.48 40.46 14.47 38.91 12.03 C 36.68 7.83 30.52 6.69 26.94 9.83 M 26.00 50.00 C 26.00 52.00 26.00 54.00 26.00 56.00 C 30.00 56.00 34.00 56.00 38.00 56.00 C 38.00 54.00 38.00 52.00 38.00 50.00 C 36.67 50.00 35.34 50.00 34.01 50.00 C 34.01 50.50 33.99 51.50 33.99 52.00 C 32.66 52.00 31.34 52.00 30.01 52.00 C 30.01 51.50 29.99 50.50 29.99 50.00 C 28.66 50.00 27.33 50.00 26.00 50.00 Z" />
<path fill="#ffffff" opacity="1.00" d=" M 30.33 12.35 C 32.85 11.08 36.14 13.20 36.01 16.02 C 36.13 19.14 32.13 21.19 29.67 19.26 C 27.19 17.67 27.58 13.45 30.33 12.35 Z" />
<path fill="#ffffff" opacity="1.00" d=" M 14.00 24.00 C 26.00 24.00 38.00 24.00 50.00 24.00 C 50.00 30.67 50.00 37.33 50.00 44.00 C 45.87 43.97 41.74 44.05 37.61 43.96 C 38.88 42.77 40.41 41.92 42.01 41.25 C 41.77 36.16 42.64 30.94 41.19 25.97 C 39.67 25.99 38.15 25.99 36.62 25.98 C 38.97 29.84 37.69 34.53 37.99 38.79 C 36.66 39.43 35.33 40.10 34.00 40.74 C 34.00 41.56 34.00 43.19 34.00 44.00 C 32.66 44.00 31.33 44.00 30.00 44.00 C 30.00 43.19 30.00 41.56 30.00 40.74 C 28.67 40.08 27.33 39.41 26.01 38.73 C 26.32 34.49 25.01 29.81 27.38 25.97 C 25.85 25.99 24.32 25.99 22.79 25.98 C 21.38 30.95 22.22 36.16 22.00 41.24 C 23.59 41.93 25.16 42.70 26.39 43.95 C 22.26 44.06 18.13 43.97 14.00 44.00 C 14.00 37.33 14.00 30.67 14.00 24.00 Z" />
</g>
<g id="#000000ff">
<path fill="#000000" opacity="1.00" d=" M 26.94 9.83 C 30.52 6.69 36.68 7.83 38.91 12.03 C 40.46 14.47 40.07 17.48 39.00 20.02 C 44.00 19.98 49.00 20.01 54.00 20.00 C 54.00 29.33 54.00 38.67 54.00 48.00 C 39.33 48.00 24.67 48.00 10.00 48.00 C 10.00 38.67 10.00 29.33 10.00 20.00 C 15.00 20.01 20.00 19.98 25.00 20.02 C 23.35 16.64 23.84 12.22 26.94 9.83 M 30.33 12.35 C 27.58 13.45 27.19 17.67 29.67 19.26 C 32.13 21.19 36.13 19.14 36.01 16.02 C 36.14 13.20 32.85 11.08 30.33 12.35 M 14.00 24.00 C 14.00 30.67 14.00 37.33 14.00 44.00 C 18.13 43.97 22.26 44.06 26.39 43.95 C 25.16 42.70 23.59 41.93 22.00 41.24 C 22.22 36.16 21.38 30.95 22.79 25.98 C 24.32 25.99 25.85 25.99 27.38 25.97 C 25.01 29.81 26.32 34.49 26.01 38.73 C 27.33 39.41 28.67 40.08 30.00 40.74 C 30.00 41.56 30.00 43.19 30.00 44.00 C 31.33 44.00 32.66 44.00 34.00 44.00 C 34.00 43.19 34.00 41.56 34.00 40.74 C 35.33 40.10 36.66 39.43 37.99 38.79 C 37.69 34.53 38.97 29.84 36.62 25.98 C 38.15 25.99 39.67 25.99 41.19 25.97 C 42.64 30.94 41.77 36.16 42.01 41.25 C 40.41 41.92 38.88 42.77 37.61 43.96 C 41.74 44.05 45.87 43.97 50.00 44.00 C 50.00 37.33 50.00 30.67 50.00 24.00 C 38.00 24.00 26.00 24.00 14.00 24.00 Z" />
<path fill="#000000" opacity="1.00" d=" M 26.00 50.00 C 27.33 50.00 28.66 50.00 29.99 50.00 C 29.99 50.50 30.01 51.50 30.01 52.00 C 31.34 52.00 32.66 52.00 33.99 52.00 C 33.99 51.50 34.01 50.50 34.01 50.00 C 35.34 50.00 36.67 50.00 38.00 50.00 C 38.00 52.00 38.00 54.00 38.00 56.00 C 34.00 56.00 30.00 56.00 26.00 56.00 C 26.00 54.00 26.00 52.00 26.00 50.00 Z" />
</g>
</svg>
