<?xml version="1.0" encoding="UTF-8" ?>
<!DOCTYPE svg PUBLIC "-//W3C//DTD SVG 1.1//EN" "http://www.w3.org/Graphics/SVG/1.1/DTD/svg11.dtd">
<svg width="60pt" height="60pt" viewBox="0 0 60 60" version="1.1" xmlns="http://www.w3.org/2000/svg">
<g id="#ffffffff">
<path fill="#ffffff" opacity="1.00" d=" M 0.00 0.00 L 60.00 0.00 L 60.00 60.00 L 0.00 60.00 L 0.00 0.00 M 15.89 9.96 C 18.38 12.15 20.90 14.31 23.40 16.49 C 26.17 15.41 28.95 14.36 31.70 13.20 C 28.09 11.59 24.61 9.69 20.93 8.25 C 19.01 7.29 17.31 8.92 15.89 9.96 M 49.19 10.14 C 37.40 14.58 25.75 19.44 14.00 24.00 C 11.74 22.02 9.38 18.97 5.98 20.44 C 7.46 23.78 8.98 27.11 10.79 30.27 C 11.72 31.79 13.82 32.38 15.43 31.68 C 20.02 30.00 24.57 28.19 29.13 26.40 C 28.76 31.66 28.35 36.90 28.00 42.16 C 29.76 41.90 32.04 41.78 32.77 39.80 C 35.14 34.12 36.93 28.20 39.17 22.47 C 43.53 20.70 48.08 19.34 52.28 17.22 C 55.86 15.10 53.20 8.90 49.19 10.14 M 7.15 48.19 C 5.28 48.93 5.86 52.08 7.94 51.92 C 22.31 52.09 36.69 51.97 51.07 51.99 C 52.25 52.12 54.23 51.60 53.93 50.03 C 54.21 47.88 51.44 47.93 50.00 47.99 C 35.72 48.14 21.42 47.74 7.15 48.19 Z" />
</g>
<g id="#000000ff">
<path fill="#000000" opacity="1.00" d=" M 15.89 9.96 C 17.31 8.92 19.01 7.29 20.93 8.25 C 24.61 9.69 28.09 11.59 31.70 13.20 C 28.95 14.36 26.17 15.41 23.40 16.49 C 20.90 14.31 18.38 12.15 15.89 9.96 Z" />
<path fill="#000000" opacity="1.00" d=" M 49.19 10.14 C 53.20 8.90 55.86 15.10 52.28 17.22 C 48.08 19.34 43.53 20.70 39.17 22.47 C 36.93 28.20 35.14 34.12 32.77 39.80 C 32.04 41.78 29.76 41.90 28.00 42.16 C 28.35 36.90 28.76 31.66 29.13 26.40 C 24.57 28.19 20.02 30.00 15.43 31.68 C 13.82 32.38 11.72 31.79 10.79 30.27 C 8.98 27.11 7.46 23.78 5.98 20.44 C 9.38 18.97 11.74 22.02 14.00 24.00 C 25.75 19.44 37.40 14.58 49.19 10.14 Z" />
<path fill="#000000" opacity="1.00" d=" M 7.15 48.19 C 21.42 47.74 35.72 48.14 50.00 47.99 C 51.44 47.93 54.21 47.88 53.93 50.03 C 54.23 51.60 52.25 52.12 51.07 51.99 C 36.69 51.97 22.31 52.09 7.94 51.92 C 5.86 52.08 5.28 48.93 7.15 48.19 Z" />
</g>
</svg>
