<?xml version="1.0" encoding="UTF-8" ?>
<!DOCTYPE svg PUBLIC "-//W3C//DTD SVG 1.1//EN" "http://www.w3.org/Graphics/SVG/1.1/DTD/svg11.dtd">
<svg width="60pt" height="60pt" viewBox="0 0 60 60" version="1.1" xmlns="http://www.w3.org/2000/svg">
<g id="#ffffffff">
<path fill="#ffffff" opacity="1.00" d=" M 0.00 0.00 L 60.00 0.00 L 60.00 50.44 C 55.21 42.13 49.91 34.13 44.86 25.97 C 43.96 23.81 40.72 23.21 39.53 25.44 C 34.75 32.73 30.31 40.24 25.58 47.56 C 24.71 49.04 23.31 50.88 24.49 52.60 C 25.64 54.46 28.16 53.85 30.00 54.03 C 39.03 53.89 48.07 54.16 57.10 53.91 C 58.41 54.04 59.15 52.79 60.00 52.05 L 60.00 60.00 L 0.00 60.00 L 0.00 0.00 M 9.96 6.02 C 14.18 9.80 18.34 13.65 22.61 17.38 C 23.62 18.55 25.18 17.80 26.03 16.88 C 30.09 13.27 34.07 9.59 38.13 6.00 C 28.74 6.02 19.35 5.97 9.96 6.02 M 6.00 7.86 C 6.00 14.30 6.00 20.74 6.00 27.18 C 9.39 23.79 12.78 20.40 16.16 17.01 C 12.78 13.95 9.38 10.92 6.00 7.86 M 31.86 17.03 C 33.53 18.70 35.19 20.36 36.86 22.02 C 38.42 20.97 40.14 20.19 42.00 19.81 C 42.00 15.84 42.00 11.86 42.00 7.89 C 38.62 10.94 35.24 13.98 31.86 17.03 M 8.86 30.00 C 16.53 30.00 24.21 30.00 31.89 30.00 C 32.82 28.51 33.76 27.03 34.69 25.54 C 32.79 23.62 30.89 21.69 28.96 19.80 C 26.21 22.59 21.79 22.59 19.04 19.80 C 15.64 23.19 12.24 26.59 8.86 30.00 Z" />
<path fill="#ffffff" opacity="1.00" d=" M 40.00 34.00 C 41.33 34.00 42.67 34.00 44.00 34.00 C 43.89 37.33 43.78 40.66 43.67 44.00 C 42.56 43.99 41.44 44.00 40.33 44.00 C 40.22 40.67 40.11 37.33 40.00 34.00 Z" />
<path fill="#ffffff" opacity="1.00" d=" M 40.68 46.63 C 42.42 45.05 45.22 47.52 43.51 49.34 C 41.66 51.14 38.46 48.13 40.68 46.63 Z" />
</g>
<g id="#000000ff">
<path fill="#000000" opacity="1.00" d=" M 9.96 6.02 C 19.35 5.97 28.74 6.02 38.13 6.00 C 34.07 9.59 30.09 13.27 26.03 16.88 C 25.18 17.80 23.62 18.55 22.61 17.38 C 18.34 13.65 14.18 9.80 9.96 6.02 Z" />
<path fill="#000000" opacity="1.00" d=" M 6.00 7.86 C 9.38 10.92 12.78 13.95 16.16 17.01 C 12.78 20.40 9.39 23.79 6.00 27.18 C 6.00 20.74 6.00 14.30 6.00 7.86 Z" />
<path fill="#000000" opacity="1.00" d=" M 31.86 17.03 C 35.24 13.98 38.62 10.94 42.00 7.89 C 42.00 11.86 42.00 15.84 42.00 19.81 C 40.14 20.19 38.42 20.97 36.86 22.02 C 35.19 20.36 33.53 18.70 31.86 17.03 Z" />
<path fill="#000000" opacity="1.00" d=" M 8.86 30.00 C 12.24 26.59 15.64 23.19 19.04 19.80 C 21.79 22.59 26.21 22.59 28.96 19.80 C 30.89 21.69 32.79 23.62 34.69 25.54 C 33.76 27.03 32.82 28.51 31.89 30.00 C 24.21 30.00 16.53 30.00 8.86 30.00 Z" />
<path fill="#000000" opacity="1.00" d=" M 39.53 25.44 C 40.72 23.21 43.96 23.81 44.86 25.97 C 49.91 34.13 55.21 42.13 60.00 50.44 L 60.00 52.05 C 59.15 52.79 58.41 54.04 57.10 53.91 C 48.07 54.16 39.03 53.89 30.00 54.03 C 28.16 53.85 25.64 54.46 24.49 52.60 C 23.31 50.88 24.71 49.04 25.58 47.56 C 30.31 40.24 34.75 32.73 39.53 25.44 M 40.00 34.00 C 40.11 37.33 40.22 40.67 40.33 44.00 C 41.44 44.00 42.56 43.99 43.67 44.00 C 43.78 40.66 43.89 37.33 44.00 34.00 C 42.67 34.00 41.33 34.00 40.00 34.00 M 40.68 46.63 C 38.46 48.13 41.66 51.14 43.51 49.34 C 45.22 47.52 42.42 45.05 40.68 46.63 Z" />
</g>
</svg>
