<?xml version="1.0" encoding="UTF-8" ?>
<!DOCTYPE svg PUBLIC "-//W3C//DTD SVG 1.1//EN" "http://www.w3.org/Graphics/SVG/1.1/DTD/svg11.dtd">
<svg width="60pt" height="60pt" viewBox="0 0 60 60" version="1.1" xmlns="http://www.w3.org/2000/svg">
<g id="#ffffffff">
<path fill="#ffffff" opacity="1.00" d=" M 0.00 0.00 L 60.00 0.00 L 60.00 60.00 L 0.00 60.00 L 0.00 39.00 C 3.04 40.34 6.01 41.88 9.20 42.84 C 13.53 43.06 17.86 42.47 22.20 42.54 C 23.80 39.97 27.03 39.79 29.63 38.84 C 30.84 38.42 31.99 39.33 33.14 39.56 C 30.34 40.28 27.14 40.71 25.71 43.59 C 28.94 44.62 32.24 43.98 35.48 43.47 C 35.99 45.44 36.42 47.56 38.03 48.96 C 40.48 51.33 42.19 54.27 43.83 57.23 C 43.86 54.59 43.99 51.82 42.49 49.51 C 48.22 41.23 54.25 33.17 59.99 24.90 C 59.13 23.18 58.09 21.55 56.77 20.13 C 54.19 17.39 53.14 13.68 51.75 10.28 C 48.21 9.14 44.69 7.78 40.90 8.28 C 39.67 7.71 38.42 7.19 37.18 6.66 C 36.70 8.48 36.18 10.30 35.54 12.08 C 35.66 12.74 35.89 14.07 36.01 14.74 C 35.66 15.35 34.96 16.56 34.61 17.16 C 33.75 16.30 32.89 15.44 32.03 14.58 C 32.25 13.93 32.47 13.28 32.69 12.64 C 31.26 12.06 29.83 11.48 28.41 10.89 C 27.46 12.33 26.62 13.82 26.01 15.43 C 27.75 16.79 29.46 18.17 31.18 19.56 C 29.90 20.66 28.59 21.73 27.30 22.83 C 25.71 21.81 24.14 20.75 22.72 19.49 C 20.83 19.91 18.70 19.87 17.00 20.85 C 15.88 22.76 14.45 24.68 14.14 26.91 C 14.88 27.60 15.65 28.26 16.44 28.89 C 15.43 30.12 14.43 31.36 13.39 32.56 C 13.94 32.77 15.04 33.17 15.58 33.37 C 15.61 34.11 15.67 35.58 15.70 36.31 C 16.30 36.32 17.48 36.34 18.08 36.36 C 16.80 38.55 14.68 40.35 11.99 40.23 C 7.82 40.94 4.06 38.67 0.00 38.39 L 0.00 0.00 Z" />
</g>
<g id="#000000ff">
<path fill="#000000" opacity="1.00" d=" M 37.18 6.66 C 38.42 7.19 39.67 7.71 40.90 8.28 C 44.69 7.78 48.21 9.14 51.75 10.28 C 53.14 13.68 54.19 17.39 56.77 20.13 C 58.09 21.55 59.13 23.18 59.99 24.90 C 54.25 33.17 48.22 41.23 42.49 49.51 C 43.99 51.82 43.86 54.59 43.83 57.23 C 42.19 54.27 40.48 51.33 38.03 48.96 C 36.42 47.56 35.99 45.44 35.48 43.47 C 32.24 43.98 28.94 44.62 25.71 43.59 C 27.14 40.71 30.34 40.28 33.14 39.56 C 31.99 39.33 30.84 38.42 29.63 38.84 C 27.03 39.79 23.80 39.97 22.20 42.54 C 17.86 42.47 13.53 43.06 9.20 42.84 C 6.01 41.88 3.04 40.34 0.00 39.00 L 0.00 38.39 C 4.06 38.67 7.82 40.94 11.99 40.23 C 14.68 40.35 16.80 38.55 18.08 36.36 C 17.48 36.34 16.30 36.32 15.70 36.31 C 15.67 35.58 15.61 34.11 15.58 33.37 C 15.04 33.17 13.94 32.77 13.39 32.56 C 14.43 31.36 15.43 30.12 16.44 28.89 C 15.65 28.26 14.88 27.60 14.14 26.91 C 14.45 24.68 15.88 22.76 17.00 20.85 C 18.70 19.87 20.83 19.91 22.72 19.49 C 24.14 20.75 25.71 21.81 27.30 22.83 C 28.59 21.73 29.90 20.66 31.18 19.56 C 29.46 18.17 27.75 16.79 26.01 15.43 C 26.62 13.82 27.46 12.33 28.41 10.89 C 29.83 11.48 31.26 12.06 32.69 12.64 C 32.47 13.28 32.25 13.93 32.03 14.58 C 32.89 15.44 33.75 16.30 34.61 17.16 C 34.96 16.56 35.66 15.35 36.01 14.74 C 35.89 14.07 35.66 12.74 35.54 12.08 C 36.18 10.30 36.70 8.48 37.18 6.66 Z" />
</g>
</svg>
