<?xml version="1.0" encoding="UTF-8" ?>
<!DOCTYPE svg PUBLIC "-//W3C//DTD SVG 1.1//EN" "http://www.w3.org/Graphics/SVG/1.1/DTD/svg11.dtd">
<svg width="60pt" height="60pt" viewBox="0 0 60 60" version="1.1" xmlns="http://www.w3.org/2000/svg">
<g id="#ffffffff">
<path fill="#ffffff" opacity="1.00" d=" M 0.00 0.00 L 60.00 0.00 L 60.00 60.00 L 0.00 60.00 L 0.00 0.00 M 33.07 10.01 C 30.41 14.64 33.79 20.58 31.03 25.05 C 26.70 27.90 21.43 28.85 16.88 31.29 C 15.33 33.01 17.83 34.90 18.93 36.12 C 22.62 39.67 28.00 39.38 32.60 38.21 C 32.64 38.59 32.70 39.34 32.74 39.72 C 26.85 43.61 18.61 42.24 14.02 36.97 C 11.51 38.18 8.89 39.18 6.52 40.66 C 5.30 41.86 6.33 44.02 8.00 43.96 C 14.61 45.10 21.32 45.53 28.01 45.91 C 28.00 47.13 27.99 48.35 27.98 49.58 C 26.26 50.35 25.08 52.77 27.17 53.89 C 30.77 53.40 34.37 53.43 37.97 53.87 C 40.06 54.44 40.87 50.76 38.81 50.22 C 36.59 49.58 34.27 49.51 32.00 49.27 C 32.00 48.23 32.00 47.18 32.00 46.14 C 37.14 45.78 42.30 43.48 45.13 39.02 C 49.43 32.95 47.62 25.16 48.00 18.23 C 50.62 17.17 53.36 15.24 56.28 16.50 C 55.78 14.94 55.94 12.59 53.89 12.16 C 51.90 12.02 49.91 12.23 47.93 12.30 C 46.90 10.36 45.96 8.16 43.92 7.08 C 40.30 4.86 35.10 6.30 33.07 10.01 Z" />
<path fill="#ffffff" opacity="1.00" d=" M 41.13 12.11 C 43.55 11.12 45.15 14.75 42.82 15.90 C 40.41 16.84 38.88 13.27 41.13 12.11 Z" />
</g>
<g id="#000000ff">
<path fill="#000000" opacity="1.00" d=" M 33.07 10.01 C 35.10 6.30 40.30 4.86 43.92 7.08 C 45.96 8.16 46.90 10.36 47.93 12.30 C 49.91 12.23 51.90 12.02 53.89 12.16 C 55.94 12.59 55.78 14.94 56.28 16.50 C 53.36 15.24 50.62 17.17 48.00 18.23 C 47.62 25.16 49.43 32.95 45.13 39.02 C 42.30 43.48 37.14 45.78 32.00 46.14 C 32.00 47.18 32.00 48.23 32.00 49.27 C 34.27 49.51 36.59 49.58 38.81 50.22 C 40.87 50.76 40.06 54.44 37.97 53.87 C 34.37 53.43 30.77 53.40 27.17 53.89 C 25.08 52.77 26.26 50.35 27.98 49.58 C 27.99 48.35 28.00 47.13 28.01 45.91 C 21.32 45.53 14.61 45.10 8.00 43.96 C 6.33 44.02 5.30 41.86 6.52 40.66 C 8.89 39.18 11.51 38.18 14.02 36.97 C 18.61 42.24 26.85 43.61 32.74 39.72 C 32.70 39.34 32.64 38.59 32.60 38.21 C 28.00 39.38 22.62 39.67 18.93 36.12 C 17.83 34.90 15.33 33.01 16.88 31.29 C 21.43 28.85 26.70 27.90 31.03 25.05 C 33.79 20.58 30.41 14.64 33.07 10.01 M 41.13 12.11 C 38.88 13.27 40.41 16.84 42.82 15.90 C 45.15 14.75 43.55 11.12 41.13 12.11 Z" />
</g>
</svg>
