<?xml version="1.0" encoding="UTF-8" ?>
<!DOCTYPE svg PUBLIC "-//W3C//DTD SVG 1.1//EN" "http://www.w3.org/Graphics/SVG/1.1/DTD/svg11.dtd">
<svg width="64pt" height="64pt" viewBox="0 0 64 64" version="1.1" xmlns="http://www.w3.org/2000/svg">
<g id="#ffffffff">
<path fill="#ffffff" opacity="1.00" d=" M 0.00 0.00 L 64.00 0.00 L 64.00 64.00 L 0.00 64.00 L 0.00 0.00 M 12.00 4.00 C 12.00 22.67 12.00 41.33 12.00 60.00 C 19.24 60.00 26.49 60.00 33.73 60.00 C 33.73 58.67 33.73 57.33 33.73 56.00 C 27.82 56.00 21.91 56.00 16.00 56.00 C 16.00 40.00 16.00 24.00 16.00 8.00 C 26.05 8.00 36.10 8.00 46.16 8.00 C 46.16 16.78 46.16 25.56 46.16 34.33 C 47.49 34.33 48.82 34.33 50.16 34.33 C 50.16 24.22 50.16 14.11 50.16 4.00 C 37.44 4.00 24.72 4.00 12.00 4.00 M 26.00 12.00 C 26.00 15.99 26.02 19.99 25.97 23.98 C 23.82 26.10 21.92 28.80 22.03 31.96 C 21.94 38.64 22.03 45.32 22.00 52.00 C 26.72 52.00 31.44 52.00 36.16 52.00 C 36.16 50.67 36.16 49.33 36.17 48.00 C 32.78 48.00 29.39 48.00 26.00 48.00 C 26.11 42.28 25.78 36.54 26.15 30.83 C 26.31 28.50 28.29 27.07 29.98 25.79 C 30.01 22.52 30.00 19.26 30.00 16.00 C 30.50 16.00 31.50 16.00 32.00 16.00 C 32.00 19.26 31.99 22.52 32.02 25.79 C 36.72 28.09 36.12 33.62 36.01 38.00 C 37.34 38.00 38.67 38.00 40.00 38.00 C 40.29 33.03 40.32 27.39 36.03 23.98 C 35.98 19.98 36.00 15.99 36.00 12.00 C 32.67 12.00 29.33 12.00 26.00 12.00 M 40.91 38.91 C 39.79 41.19 38.78 43.54 37.98 45.95 C 38.67 48.46 39.99 50.75 40.80 53.23 C 39.19 54.81 37.59 56.40 36.00 58.00 C 37.00 58.00 39.00 58.00 40.00 58.00 C 40.00 59.00 40.00 61.00 40.00 62.00 C 42.09 59.91 44.16 57.81 46.28 55.77 C 47.17 55.77 48.94 55.79 49.82 55.80 C 51.89 57.85 53.96 59.91 56.00 62.00 C 56.00 61.00 56.00 59.00 56.00 58.00 C 57.34 58.00 58.69 57.99 60.03 57.99 C 58.43 56.39 56.82 54.80 55.20 53.22 C 56.02 50.77 57.29 48.48 58.02 46.00 C 57.25 43.57 56.21 41.21 55.10 38.92 C 52.82 37.78 50.44 36.77 48.02 35.98 C 45.57 36.74 43.21 37.79 40.91 38.91 Z" />
<path fill="#ffffff" opacity="1.00" d=" M 44.00 41.99 C 45.37 41.45 46.72 40.87 48.06 40.28 C 49.36 40.88 50.68 41.46 52.00 42.00 C 52.55 43.35 53.13 44.68 53.73 46.00 C 53.13 47.32 52.55 48.66 52.00 50.00 C 50.65 50.55 49.32 51.13 48.00 51.74 C 46.68 51.13 45.35 50.55 44.00 50.00 C 43.45 48.66 42.87 47.32 42.27 46.00 C 42.87 44.67 43.45 43.34 44.00 41.99 Z" />
</g>
<g id="#000000ff">
<path fill="#000000" opacity="1.00" d=" M 12.00 4.00 C 24.72 4.00 37.44 4.00 50.16 4.00 C 50.16 14.11 50.16 24.22 50.16 34.33 C 48.82 34.33 47.49 34.33 46.16 34.33 C 46.16 25.56 46.16 16.78 46.16 8.00 C 36.10 8.00 26.05 8.00 16.00 8.00 C 16.00 24.00 16.00 40.00 16.00 56.00 C 21.91 56.00 27.82 56.00 33.73 56.00 C 33.73 57.33 33.73 58.67 33.73 60.00 C 26.49 60.00 19.24 60.00 12.00 60.00 C 12.00 41.33 12.00 22.67 12.00 4.00 Z" />
<path fill="#000000" opacity="1.00" d=" M 26.00 12.00 C 29.33 12.00 32.67 12.00 36.00 12.00 C 36.00 15.99 35.98 19.98 36.03 23.98 C 40.32 27.39 40.29 33.03 40.00 38.00 C 38.67 38.00 37.34 38.00 36.01 38.00 C 36.12 33.62 36.72 28.09 32.02 25.79 C 31.99 22.52 32.00 19.26 32.00 16.00 C 31.50 16.00 30.50 16.00 30.00 16.00 C 30.00 19.26 30.01 22.52 29.98 25.79 C 28.29 27.07 26.31 28.50 26.15 30.83 C 25.78 36.54 26.11 42.28 26.00 48.00 C 29.39 48.00 32.78 48.00 36.17 48.00 C 36.16 49.33 36.16 50.67 36.16 52.00 C 31.44 52.00 26.72 52.00 22.00 52.00 C 22.03 45.32 21.94 38.64 22.03 31.96 C 21.92 28.80 23.82 26.10 25.97 23.98 C 26.02 19.99 26.00 15.99 26.00 12.00 Z" />
<path fill="#000000" opacity="1.00" d=" M 40.91 38.91 C 43.21 37.79 45.57 36.74 48.02 35.98 C 50.44 36.77 52.82 37.78 55.10 38.92 C 56.21 41.21 57.25 43.57 58.02 46.00 C 57.29 48.48 56.02 50.77 55.20 53.22 C 56.82 54.80 58.43 56.39 60.03 57.99 C 58.69 57.99 57.34 58.00 56.00 58.00 C 56.00 59.00 56.00 61.00 56.00 62.00 C 53.96 59.91 51.89 57.85 49.82 55.80 C 48.94 55.79 47.17 55.77 46.28 55.77 C 44.16 57.81 42.09 59.91 40.00 62.00 C 40.00 61.00 40.00 59.00 40.00 58.00 C 39.00 58.00 37.00 58.00 36.00 58.00 C 37.59 56.40 39.19 54.81 40.80 53.23 C 39.99 50.75 38.67 48.46 37.98 45.95 C 38.78 43.54 39.79 41.19 40.91 38.91 M 44.00 41.99 C 43.45 43.34 42.87 44.67 42.27 46.00 C 42.87 47.32 43.45 48.66 44.00 50.00 C 45.35 50.55 46.68 51.13 48.00 51.74 C 49.32 51.13 50.65 50.55 52.00 50.00 C 52.55 48.66 53.13 47.32 53.73 46.00 C 53.13 44.68 52.55 43.35 52.00 42.00 C 50.68 41.46 49.36 40.88 48.06 40.28 C 46.72 40.87 45.37 41.45 44.00 41.99 Z" />
</g>
</svg>
