<?xml version="1.0" encoding="UTF-8" ?>
<!DOCTYPE svg PUBLIC "-//W3C//DTD SVG 1.1//EN" "http://www.w3.org/Graphics/SVG/1.1/DTD/svg11.dtd">
<svg width="64pt" height="64pt" viewBox="0 0 64 64" version="1.1" xmlns="http://www.w3.org/2000/svg">
<g id="#ffffffff">
<path fill="#ffffff" opacity="1.00" d=" M 0.00 0.00 L 64.00 0.00 L 64.00 64.00 L 0.00 64.00 L 0.00 0.00 M 6.05 30.97 C 5.60 38.88 9.28 46.51 14.99 51.84 C 18.28 48.56 21.57 45.27 24.86 41.98 C 22.25 39.29 19.86 35.97 20.04 32.03 C 19.84 28.07 22.23 24.72 24.86 22.02 C 21.57 18.73 18.28 15.44 14.99 12.16 C 9.80 17.04 6.20 23.75 6.05 30.97 M 39.15 22.02 C 41.74 24.72 44.12 28.03 43.96 31.96 C 44.15 35.92 41.76 39.26 39.15 41.98 C 42.45 45.26 45.73 48.55 49.02 51.84 C 53.91 47.18 57.44 40.93 57.88 34.10 C 58.68 25.86 55.02 17.70 49.01 12.16 C 45.73 15.45 42.44 18.74 39.15 22.02 M 29.42 26.59 C 25.47 28.27 24.83 34.26 28.33 36.73 C 31.63 39.54 37.31 37.34 37.89 33.06 C 38.95 28.49 33.55 24.34 29.42 26.59 Z" />
<path fill="#ffffff" opacity="1.00" d=" M 15.02 46.16 C 8.43 38.14 8.41 25.86 15.02 17.84 C 16.44 19.27 17.86 20.69 19.28 22.10 C 15.02 27.91 15.03 36.08 19.28 41.90 C 17.86 43.31 16.44 44.73 15.02 46.16 Z" />
<path fill="#ffffff" opacity="1.00" d=" M 44.73 22.10 C 46.16 20.69 47.58 19.26 49.00 17.85 C 55.56 25.89 55.55 38.11 49.00 46.15 C 47.58 44.73 46.15 43.31 44.72 41.90 C 48.95 36.07 48.95 27.93 44.73 22.10 Z" />
<path fill="#ffffff" opacity="1.00" d=" M 31.21 30.19 C 33.47 28.93 35.28 33.04 32.74 33.81 C 30.51 35.00 28.74 31.03 31.21 30.19 Z" />
</g>
<g id="#000000ff">
<path fill="#000000" opacity="1.00" d=" M 6.05 30.97 C 6.20 23.75 9.80 17.04 14.99 12.16 C 18.28 15.44 21.57 18.73 24.86 22.02 C 22.23 24.72 19.84 28.07 20.04 32.03 C 19.86 35.97 22.25 39.29 24.86 41.98 C 21.57 45.27 18.28 48.56 14.99 51.84 C 9.28 46.51 5.60 38.88 6.05 30.97 M 15.02 46.16 C 16.44 44.73 17.86 43.31 19.28 41.90 C 15.03 36.08 15.02 27.91 19.28 22.10 C 17.86 20.69 16.44 19.27 15.02 17.84 C 8.41 25.86 8.43 38.14 15.02 46.16 Z" />
<path fill="#000000" opacity="1.00" d=" M 39.15 22.02 C 42.44 18.74 45.73 15.45 49.01 12.16 C 55.02 17.70 58.68 25.86 57.88 34.10 C 57.44 40.93 53.91 47.18 49.02 51.84 C 45.73 48.55 42.45 45.26 39.15 41.98 C 41.76 39.26 44.15 35.92 43.96 31.96 C 44.12 28.03 41.74 24.72 39.15 22.02 M 44.73 22.10 C 48.95 27.93 48.95 36.07 44.72 41.90 C 46.15 43.31 47.58 44.73 49.00 46.15 C 55.55 38.11 55.56 25.89 49.00 17.85 C 47.58 19.26 46.16 20.69 44.73 22.10 Z" />
<path fill="#000000" opacity="1.00" d=" M 29.42 26.59 C 33.55 24.34 38.95 28.49 37.89 33.06 C 37.31 37.34 31.63 39.54 28.33 36.73 C 24.83 34.26 25.47 28.27 29.42 26.59 M 31.21 30.19 C 28.74 31.03 30.51 35.00 32.74 33.81 C 35.28 33.04 33.47 28.93 31.21 30.19 Z" />
</g>
</svg>
