<?xml version="1.0" encoding="UTF-8" ?>
<!DOCTYPE svg PUBLIC "-//W3C//DTD SVG 1.1//EN" "http://www.w3.org/Graphics/SVG/1.1/DTD/svg11.dtd">
<svg width="64pt" height="64pt" viewBox="0 0 64 64" version="1.1" xmlns="http://www.w3.org/2000/svg">
<g id="#ffffffff">
<path fill="#ffffff" opacity="1.00" d=" M 0.00 0.00 L 64.00 0.00 L 64.00 64.00 L 0.00 64.00 L 0.00 0.00 M 12.00 10.00 C 12.00 22.00 12.00 34.00 12.00 46.00 C 18.00 46.00 24.00 46.00 30.00 46.00 C 30.00 34.00 30.00 22.00 30.00 10.00 C 24.00 10.00 18.00 10.00 12.00 10.00 M 34.00 20.00 C 33.99 28.67 33.99 37.33 34.00 46.00 C 40.00 46.00 46.00 46.00 52.00 46.00 C 52.01 37.33 52.01 28.67 52.00 20.00 C 46.00 20.00 40.00 20.00 34.00 20.00 M 8.00 50.00 C 8.00 51.33 8.00 52.67 8.00 54.00 C 24.00 54.01 40.00 54.01 56.00 54.00 C 56.00 52.67 56.00 51.33 56.00 50.00 C 40.00 49.99 24.00 49.99 8.00 50.00 Z" />
<path fill="#ffffff" opacity="1.00" d=" M 16.00 14.00 C 18.50 14.00 23.50 14.00 26.00 14.00 C 26.01 23.33 26.01 32.67 26.00 42.00 C 23.50 42.00 18.50 42.00 16.00 42.00 C 15.99 32.67 15.99 23.33 16.00 14.00 Z" />
</g>
<g id="#000000ff">
<path fill="#000000" opacity="1.00" d=" M 12.00 10.00 C 18.00 10.00 24.00 10.00 30.00 10.00 C 30.00 22.00 30.00 34.00 30.00 46.00 C 24.00 46.00 18.00 46.00 12.00 46.00 C 12.00 34.00 12.00 22.00 12.00 10.00 M 16.00 14.00 C 15.99 23.33 15.99 32.67 16.00 42.00 C 18.50 42.00 23.50 42.00 26.00 42.00 C 26.01 32.67 26.01 23.33 26.00 14.00 C 23.50 14.00 18.50 14.00 16.00 14.00 Z" />
<path fill="#000000" opacity="1.00" d=" M 34.00 20.00 C 40.00 20.00 46.00 20.00 52.00 20.00 C 52.01 28.67 52.01 37.33 52.00 46.00 C 46.00 46.00 40.00 46.00 34.00 46.00 C 33.99 37.33 33.99 28.67 34.00 20.00 Z" />
<path fill="#000000" opacity="1.00" d=" M 8.00 50.00 C 24.00 49.99 40.00 49.99 56.00 50.00 C 56.00 51.33 56.00 52.67 56.00 54.00 C 40.00 54.01 24.00 54.01 8.00 54.00 C 8.00 52.67 8.00 51.33 8.00 50.00 Z" />
</g>
</svg>
