<?xml version="1.0" encoding="UTF-8" ?>
<!DOCTYPE svg PUBLIC "-//W3C//DTD SVG 1.1//EN" "http://www.w3.org/Graphics/SVG/1.1/DTD/svg11.dtd">
<svg width="64pt" height="64pt" viewBox="0 0 64 64" version="1.1" xmlns="http://www.w3.org/2000/svg">
<g id="#ffffffff">
<path fill="#ffffff" opacity="1.00" d=" M 0.00 0.00 L 64.00 0.00 L 64.00 64.00 L 0.00 64.00 L 0.00 0.00 M 8.00 8.00 C 8.00 12.67 8.00 17.33 8.00 22.00 C 9.33 22.00 10.67 22.00 12.00 22.00 C 11.99 19.61 12.01 17.23 12.01 14.84 C 16.21 19.02 20.40 23.20 24.57 27.41 C 25.51 26.47 26.46 25.53 27.42 24.60 C 23.27 20.36 19.02 16.23 14.86 12.00 C 17.24 12.00 19.62 11.99 22.00 12.00 C 22.00 10.67 22.00 9.33 22.00 8.00 C 17.33 8.00 12.67 8.00 8.00 8.00 M 42.00 8.00 C 42.00 9.33 42.00 10.67 42.00 12.00 C 44.39 11.99 46.78 12.01 49.17 12.01 C 44.98 16.18 40.83 20.40 36.61 24.54 C 37.53 25.49 38.45 26.45 39.37 27.42 C 43.63 23.27 47.79 19.03 52.00 14.83 C 51.99 17.22 52.01 19.61 52.00 22.00 C 53.33 22.00 54.67 22.00 56.00 22.00 C 56.00 17.33 56.00 12.67 56.00 8.00 C 51.33 8.00 46.67 8.00 42.00 8.00 M 24.26 15.70 C 25.25 16.73 26.25 17.75 27.25 18.77 C 30.36 17.84 33.64 17.83 36.75 18.78 C 37.76 17.76 38.77 16.74 39.77 15.72 C 34.88 13.48 29.16 13.49 24.26 15.70 M 15.71 24.24 C 13.48 29.13 13.48 34.87 15.73 39.76 C 16.75 38.76 17.76 37.76 18.77 36.75 C 17.84 33.64 17.83 30.36 18.78 27.25 C 17.76 26.25 16.74 25.24 15.71 24.24 M 45.23 27.24 C 46.16 30.36 46.15 33.64 45.23 36.76 C 46.25 37.76 47.26 38.76 48.29 39.75 C 50.50 34.86 50.51 29.14 48.28 24.25 C 47.26 25.24 46.24 26.24 45.23 27.24 M 12.01 49.16 C 12.00 46.77 11.99 44.39 12.00 42.00 C 10.67 42.00 9.33 42.00 8.00 42.00 C 8.00 46.66 8.00 51.33 8.00 56.00 C 12.67 56.00 17.33 56.00 22.00 56.00 C 22.00 54.67 22.00 53.33 22.00 52.00 C 19.62 52.01 17.24 51.99 14.86 52.00 C 19.02 47.78 23.25 43.62 27.43 39.41 C 26.47 38.48 25.53 37.53 24.60 36.59 C 20.40 40.77 16.22 44.98 12.01 49.16 M 39.39 36.60 C 38.45 37.53 37.52 38.45 36.60 39.39 C 40.77 43.61 44.98 47.80 49.18 51.99 C 46.78 51.99 44.39 52.01 42.00 52.00 C 42.00 53.33 42.00 54.67 42.00 56.00 C 46.66 56.00 51.33 56.00 56.00 56.00 C 56.00 51.33 56.00 46.67 56.00 42.00 C 54.67 42.00 53.33 42.00 52.00 42.00 C 52.01 44.39 51.99 46.78 52.00 49.17 C 47.80 44.97 43.64 40.74 39.39 36.60 M 24.25 48.30 C 29.16 50.50 34.88 50.51 39.77 48.27 C 38.76 47.25 37.75 46.24 36.74 45.23 C 33.63 46.16 30.35 46.15 27.24 45.23 C 26.24 46.25 25.24 47.27 24.25 48.30 Z" />
</g>
<g id="#000000ff">
<path fill="#000000" opacity="1.00" d=" M 8.00 8.00 C 12.67 8.00 17.33 8.00 22.00 8.00 C 22.00 9.33 22.00 10.67 22.00 12.00 C 19.62 11.99 17.24 12.00 14.86 12.00 C 19.02 16.23 23.27 20.36 27.42 24.60 C 26.46 25.53 25.51 26.47 24.57 27.41 C 20.40 23.20 16.21 19.02 12.01 14.84 C 12.01 17.23 11.99 19.61 12.00 22.00 C 10.67 22.00 9.33 22.00 8.00 22.00 C 8.00 17.33 8.00 12.67 8.00 8.00 Z" />
<path fill="#000000" opacity="1.00" d=" M 42.00 8.00 C 46.67 8.00 51.33 8.00 56.00 8.00 C 56.00 12.67 56.00 17.33 56.00 22.00 C 54.67 22.00 53.33 22.00 52.00 22.00 C 52.01 19.61 51.99 17.22 52.00 14.83 C 47.79 19.03 43.63 23.27 39.37 27.42 C 38.45 26.45 37.53 25.49 36.61 24.54 C 40.83 20.40 44.98 16.18 49.17 12.01 C 46.78 12.01 44.39 11.99 42.00 12.00 C 42.00 10.67 42.00 9.33 42.00 8.00 Z" />
<path fill="#000000" opacity="1.00" d=" M 24.26 15.70 C 29.16 13.49 34.88 13.48 39.77 15.72 C 38.77 16.74 37.76 17.76 36.75 18.78 C 33.64 17.83 30.36 17.84 27.25 18.77 C 26.25 17.75 25.25 16.73 24.26 15.70 Z" />
<path fill="#000000" opacity="1.00" d=" M 15.71 24.24 C 16.74 25.24 17.76 26.25 18.78 27.25 C 17.83 30.36 17.84 33.64 18.77 36.75 C 17.76 37.76 16.75 38.76 15.73 39.76 C 13.48 34.87 13.48 29.13 15.71 24.24 Z" />
<path fill="#000000" opacity="1.00" d=" M 45.23 27.24 C 46.24 26.24 47.26 25.24 48.28 24.25 C 50.51 29.14 50.50 34.86 48.29 39.75 C 47.26 38.76 46.25 37.76 45.23 36.76 C 46.15 33.64 46.16 30.36 45.23 27.24 Z" />
<path fill="#000000" opacity="1.00" d=" M 12.01 49.16 C 16.22 44.98 20.40 40.77 24.60 36.59 C 25.53 37.53 26.47 38.48 27.43 39.41 C 23.25 43.62 19.02 47.78 14.86 52.00 C 17.24 51.99 19.62 52.01 22.00 52.00 C 22.00 53.33 22.00 54.67 22.00 56.00 C 17.33 56.00 12.67 56.00 8.00 56.00 C 8.00 51.33 8.00 46.66 8.00 42.00 C 9.33 42.00 10.67 42.00 12.00 42.00 C 11.99 44.39 12.00 46.77 12.01 49.16 Z" />
<path fill="#000000" opacity="1.00" d=" M 39.39 36.60 C 43.64 40.74 47.80 44.97 52.00 49.17 C 51.99 46.78 52.01 44.39 52.00 42.00 C 53.33 42.00 54.67 42.00 56.00 42.00 C 56.00 46.67 56.00 51.33 56.00 56.00 C 51.33 56.00 46.66 56.00 42.00 56.00 C 42.00 54.67 42.00 53.33 42.00 52.00 C 44.39 52.01 46.78 51.99 49.18 51.99 C 44.98 47.80 40.77 43.61 36.60 39.39 C 37.52 38.45 38.45 37.53 39.39 36.60 Z" />
<path fill="#000000" opacity="1.00" d=" M 24.25 48.30 C 25.24 47.27 26.24 46.25 27.24 45.23 C 30.35 46.15 33.63 46.16 36.74 45.23 C 37.75 46.24 38.76 47.25 39.77 48.27 C 34.88 50.51 29.16 50.50 24.25 48.30 Z" />
</g>
</svg>
