<?xml version="1.0" encoding="UTF-8" ?>
<!DOCTYPE svg PUBLIC "-//W3C//DTD SVG 1.1//EN" "http://www.w3.org/Graphics/SVG/1.1/DTD/svg11.dtd">
<svg width="60pt" height="60pt" viewBox="0 0 60 60" version="1.1" xmlns="http://www.w3.org/2000/svg">
<g id="#ffffffff">
<path fill="#ffffff" opacity="1.00" d=" M 0.00 0.00 L 60.00 0.00 L 60.00 60.00 L 0.00 60.00 L 0.00 0.00 M 15.67 9.76 C 15.18 9.92 14.20 10.24 13.71 10.40 C 14.43 11.38 15.15 12.36 15.88 13.33 C 16.06 17.58 18.90 21.29 17.96 25.66 C 16.17 27.61 15.54 30.29 16.81 32.71 C 15.01 36.47 16.69 40.72 19.97 43.01 C 20.02 45.87 20.04 48.74 19.87 51.60 C 19.05 52.57 17.51 53.93 18.71 55.26 C 19.66 56.54 21.20 55.65 22.37 55.36 C 22.90 54.66 23.45 53.98 24.03 53.33 C 23.96 56.62 28.09 56.61 29.25 54.24 C 30.34 51.73 29.88 48.87 30.01 46.20 C 31.39 45.79 32.75 45.30 34.10 44.82 C 34.61 45.07 35.62 45.56 36.12 45.81 C 36.02 47.74 35.98 49.66 35.85 51.59 C 35.10 52.62 33.51 53.86 34.67 55.20 C 35.57 56.55 37.18 55.65 38.36 55.36 C 38.90 54.65 39.46 53.97 40.05 53.31 C 39.95 56.97 44.76 56.44 45.52 53.68 C 46.26 50.60 45.97 47.38 46.10 44.24 C 47.74 43.63 49.62 43.18 50.70 41.67 C 52.32 39.86 51.76 37.29 51.85 35.08 C 52.50 31.31 49.20 28.64 46.49 26.71 C 42.37 25.68 38.24 22.61 33.99 25.03 C 32.63 24.61 31.27 24.19 29.90 23.80 C 29.58 20.09 32.05 17.00 32.12 13.33 C 32.85 12.36 33.57 11.38 34.28 10.40 C 31.61 10.42 31.69 7.43 30.17 5.96 C 28.19 3.65 25.33 0.93 22.01 2.40 C 19.13 4.02 16.89 6.69 15.67 9.76 Z" />
<path fill="#ffffff" opacity="1.00" d=" M 19.77 9.31 C 21.17 8.25 22.22 6.57 23.93 6.03 C 25.72 6.43 26.76 8.22 28.19 9.24 C 25.74 10.34 25.39 13.52 28.13 14.54 C 26.01 18.51 25.13 23.36 26.53 27.63 C 28.73 28.76 31.85 27.69 34.00 29.60 C 36.48 27.78 39.58 27.62 41.89 29.80 C 44.33 29.77 46.68 31.05 47.70 33.30 C 47.53 35.64 48.84 38.88 46.23 40.22 C 45.20 39.71 44.15 39.25 43.08 38.85 C 41.57 39.68 40.55 41.18 38.97 41.90 C 37.15 42.27 35.58 41.06 34.00 40.39 C 31.44 42.30 28.24 42.36 25.98 39.97 C 23.64 40.19 20.64 39.67 20.08 36.93 C 20.11 34.52 21.63 32.08 19.89 29.89 C 20.55 28.93 21.27 28.00 21.96 27.06 C 21.97 25.50 22.01 23.93 22.03 22.37 C 23.12 21.57 24.39 20.71 23.91 19.15 C 23.09 18.43 22.13 17.94 21.02 17.69 C 20.64 16.65 20.28 15.60 19.93 14.54 C 21.05 13.69 22.01 12.67 22.11 11.20 C 21.33 10.57 20.55 9.94 19.77 9.31 Z" />
<path fill="#ffffff" opacity="1.00" d=" M 24.07 43.57 C 27.71 45.23 25.89 50.81 24.85 53.73 C 23.02 50.69 24.33 46.92 24.07 43.57 Z" />
<path fill="#ffffff" opacity="1.00" d=" M 39.96 45.84 C 40.49 45.52 41.56 44.89 42.09 44.58 C 42.00 47.66 42.38 50.90 40.89 53.74 C 39.23 51.43 40.17 48.46 39.96 45.84 Z" />
</g>
<g id="#000000ff">
<path fill="#000000" opacity="1.00" d=" M 15.67 9.76 C 16.89 6.69 19.13 4.02 22.01 2.40 C 25.33 0.93 28.19 3.65 30.17 5.96 C 31.69 7.43 31.61 10.42 34.28 10.40 C 33.57 11.38 32.85 12.36 32.12 13.33 C 32.05 17.00 29.58 20.09 29.90 23.80 C 31.27 24.19 32.63 24.61 33.99 25.03 C 38.24 22.61 42.37 25.68 46.49 26.71 C 49.20 28.64 52.50 31.31 51.85 35.08 C 51.76 37.29 52.32 39.86 50.70 41.67 C 49.62 43.18 47.74 43.63 46.10 44.24 C 45.97 47.38 46.26 50.60 45.52 53.68 C 44.76 56.44 39.95 56.97 40.05 53.31 C 39.46 53.97 38.90 54.65 38.36 55.36 C 37.18 55.65 35.57 56.55 34.67 55.20 C 33.51 53.86 35.10 52.62 35.85 51.59 C 35.98 49.66 36.02 47.74 36.12 45.81 C 35.62 45.56 34.61 45.07 34.10 44.82 C 32.75 45.30 31.39 45.79 30.01 46.20 C 29.88 48.87 30.34 51.73 29.25 54.24 C 28.09 56.61 23.96 56.62 24.03 53.33 C 23.45 53.98 22.90 54.66 22.37 55.36 C 21.20 55.65 19.66 56.54 18.71 55.26 C 17.51 53.93 19.05 52.57 19.87 51.60 C 20.04 48.74 20.02 45.87 19.97 43.01 C 16.69 40.72 15.01 36.47 16.81 32.71 C 15.54 30.29 16.17 27.61 17.96 25.66 C 18.90 21.29 16.06 17.58 15.88 13.33 C 15.15 12.36 14.43 11.38 13.71 10.40 C 14.20 10.24 15.18 9.92 15.67 9.76 M 19.77 9.31 C 20.55 9.94 21.33 10.57 22.11 11.20 C 22.01 12.67 21.05 13.69 19.93 14.54 C 20.28 15.60 20.64 16.65 21.02 17.69 C 22.13 17.94 23.09 18.43 23.91 19.15 C 24.39 20.71 23.12 21.57 22.03 22.37 C 22.01 23.93 21.97 25.50 21.96 27.06 C 21.27 28.00 20.55 28.93 19.89 29.89 C 21.63 32.08 20.11 34.52 20.08 36.93 C 20.64 39.67 23.64 40.19 25.98 39.97 C 28.24 42.36 31.44 42.30 34.00 40.39 C 35.58 41.06 37.15 42.27 38.97 41.90 C 40.55 41.18 41.57 39.68 43.08 38.85 C 44.15 39.25 45.20 39.71 46.23 40.22 C 48.84 38.88 47.53 35.64 47.70 33.30 C 46.68 31.05 44.33 29.77 41.89 29.80 C 39.58 27.62 36.48 27.78 34.00 29.60 C 31.85 27.69 28.73 28.76 26.53 27.63 C 25.13 23.36 26.01 18.51 28.13 14.54 C 25.39 13.52 25.74 10.34 28.19 9.24 C 26.76 8.22 25.72 6.43 23.93 6.03 C 22.22 6.57 21.17 8.25 19.77 9.31 M 24.07 43.57 C 24.33 46.92 23.02 50.69 24.85 53.73 C 25.89 50.81 27.71 45.23 24.07 43.57 M 39.96 45.84 C 40.17 48.46 39.23 51.43 40.89 53.74 C 42.38 50.90 42.00 47.66 42.09 44.58 C 41.56 44.89 40.49 45.52 39.96 45.84 Z" />
</g>
</svg>
