<?xml version="1.0" encoding="UTF-8" ?>
<!DOCTYPE svg PUBLIC "-//W3C//DTD SVG 1.1//EN" "http://www.w3.org/Graphics/SVG/1.1/DTD/svg11.dtd">
<svg width="64pt" height="64pt" viewBox="0 0 64 64" version="1.1" xmlns="http://www.w3.org/2000/svg">
<g id="#ffffffff">
<path fill="#ffffff" opacity="1.00" d=" M 0.00 0.00 L 64.00 0.00 L 64.00 64.00 L 0.00 64.00 L 0.00 0.00 M 16.11 26.89 C 15.95 30.94 15.75 35.04 16.39 39.05 C 17.80 46.03 25.15 51.04 32.16 49.82 C 35.69 49.36 38.68 47.23 41.09 44.72 C 43.04 47.84 46.32 49.79 49.96 50.17 C 49.98 48.86 50.00 47.54 50.01 46.23 C 46.98 45.73 43.94 43.50 44.05 40.15 C 43.92 31.44 44.04 22.72 44.00 14.00 C 42.66 14.00 41.33 14.00 39.99 14.00 C 40.00 15.39 40.01 16.77 40.02 18.16 C 36.97 15.49 33.00 13.62 28.86 14.09 C 22.25 14.51 16.47 20.26 16.11 26.89 Z" />
<path fill="#ffffff" opacity="1.00" d=" M 26.46 18.67 C 31.90 16.40 38.69 20.12 39.73 25.89 C 40.13 30.18 40.31 34.59 39.55 38.85 C 37.83 45.61 28.48 48.34 23.43 43.48 C 18.81 39.65 20.12 33.16 20.04 27.90 C 20.00 23.87 22.71 20.07 26.46 18.67 Z" />
</g>
<g id="#000000ff">
<path fill="#000000" opacity="1.00" d=" M 16.11 26.89 C 16.47 20.26 22.25 14.51 28.86 14.09 C 33.00 13.62 36.97 15.49 40.02 18.16 C 40.01 16.77 40.00 15.39 39.99 14.00 C 41.33 14.00 42.66 14.00 44.00 14.00 C 44.04 22.72 43.92 31.44 44.05 40.15 C 43.94 43.50 46.98 45.73 50.01 46.23 C 50.00 47.54 49.98 48.86 49.96 50.17 C 46.32 49.79 43.04 47.84 41.09 44.72 C 38.68 47.23 35.69 49.36 32.16 49.82 C 25.15 51.04 17.80 46.03 16.39 39.05 C 15.75 35.04 15.95 30.94 16.11 26.89 M 26.46 18.67 C 22.71 20.07 20.00 23.87 20.04 27.90 C 20.12 33.16 18.81 39.65 23.43 43.48 C 28.48 48.34 37.83 45.61 39.55 38.85 C 40.31 34.59 40.13 30.18 39.73 25.89 C 38.69 20.12 31.90 16.40 26.46 18.67 Z" />
</g>
</svg>
