<?xml version="1.0" encoding="UTF-8" ?>
<!DOCTYPE svg PUBLIC "-//W3C//DTD SVG 1.1//EN" "http://www.w3.org/Graphics/SVG/1.1/DTD/svg11.dtd">
<svg width="60pt" height="60pt" viewBox="0 0 60 60" version="1.1" xmlns="http://www.w3.org/2000/svg">
<g id="#ffffffff">
<path fill="#ffffff" opacity="1.00" d=" M 0.00 0.00 L 60.00 0.00 L 60.00 60.00 L 0.00 60.00 L 0.00 0.00 M 6.37 6.37 C 5.26 8.30 6.66 10.27 7.95 11.67 C 8.12 25.77 7.86 39.87 8.07 53.97 C 7.78 56.56 12.14 56.63 11.91 54.04 C 12.16 39.91 11.87 25.78 12.05 11.65 C 13.34 10.26 14.73 8.29 13.61 6.36 C 12.42 3.24 7.60 3.30 6.37 6.37 M 17.14 12.16 C 16.89 12.41 16.41 12.91 16.16 13.16 C 15.89 23.04 15.89 32.96 16.16 42.84 C 16.42 43.09 16.93 43.59 17.19 43.84 C 28.49 44.20 39.82 43.92 51.13 43.98 C 52.67 44.37 54.75 42.82 53.73 41.22 C 51.50 36.69 48.73 32.43 46.30 28.00 C 48.81 23.30 51.87 18.89 54.04 14.02 C 53.78 11.47 50.77 12.07 48.98 11.97 C 38.37 12.15 27.74 11.76 17.14 12.16 Z" />
<path fill="#ffffff" opacity="1.00" d=" M 20.00 16.00 C 24.00 16.00 28.00 16.00 32.00 16.00 C 32.00 24.00 32.00 32.00 32.00 40.00 C 28.00 40.00 24.00 40.00 20.00 40.00 C 20.00 32.00 20.00 24.00 20.00 16.00 Z" />
</g>
<g id="#000000ff">
<path fill="#968176" opacity="1.00" d=" M 6.37 6.37 C 7.60 3.30 12.42 3.24 13.61 6.36 C 14.73 8.29 13.34 10.26 12.05 11.65 C 11.87 25.78 12.16 39.91 11.91 54.04 C 12.14 56.63 7.78 56.56 8.07 53.97 C 7.86 39.87 8.12 25.77 7.95 11.67 C 6.66 10.27 5.26 8.30 6.37 6.37 Z" />
<path fill="#968176" opacity="1.00" d=" M 17.14 12.16 C 27.74 11.76 38.37 12.15 48.98 11.97 C 50.77 12.07 53.78 11.47 54.04 14.02 C 51.87 18.89 48.81 23.30 46.30 28.00 C 48.73 32.43 51.50 36.69 53.73 41.22 C 54.75 42.82 52.67 44.37 51.13 43.98 C 39.82 43.92 28.49 44.20 17.19 43.84 C 16.93 43.59 16.42 43.09 16.16 42.84 C 15.89 32.96 15.89 23.04 16.16 13.16 C 16.41 12.91 16.89 12.41 17.14 12.16 M 20.00 16.00 C 20.00 24.00 20.00 32.00 20.00 40.00 C 24.00 40.00 28.00 40.00 32.00 40.00 C 32.00 32.00 32.00 24.00 32.00 16.00 C 28.00 16.00 24.00 16.00 20.00 16.00 Z" />
</g>
</svg>
