<?xml version="1.0" encoding="UTF-8" ?>
<!DOCTYPE svg PUBLIC "-//W3C//DTD SVG 1.1//EN" "http://www.w3.org/Graphics/SVG/1.1/DTD/svg11.dtd">
<svg width="64pt" height="64pt" viewBox="0 0 64 64" version="1.1" xmlns="http://www.w3.org/2000/svg">
<g id="#ffffffff">
<path fill="#ffffff" opacity="1.00" d=" M 0.00 0.00 L 64.00 0.00 L 64.00 64.00 L 0.00 64.00 L 0.00 0.00 M 17.93 6.12 C 13.34 17.76 8.70 29.39 4.29 41.10 C 3.61 46.55 4.18 52.11 4.01 57.61 C 22.67 57.59 41.33 57.60 59.99 57.61 C 59.99 53.38 60.04 49.16 59.96 44.94 C 54.81 34.54 50.66 23.67 45.75 13.16 C 44.95 11.05 41.70 10.46 40.34 12.33 C 38.80 14.51 37.69 16.95 36.36 19.26 C 34.98 16.44 34.13 13.34 32.37 10.73 C 30.34 8.87 28.09 11.02 26.60 12.43 C 25.59 10.10 24.73 7.68 23.51 5.45 C 22.29 3.34 18.62 3.75 17.93 6.12 Z" />
<path fill="#ffffff" opacity="1.00" d=" M 20.92 9.40 C 22.45 12.74 23.87 16.13 25.35 19.49 C 26.92 17.92 28.48 16.36 30.06 14.80 C 33.58 22.92 37.08 31.04 40.59 39.16 C 35.59 36.99 30.56 34.37 25.01 34.04 C 19.77 33.77 14.56 35.18 9.90 37.50 C 13.60 28.14 17.20 18.75 20.92 9.40 Z" />
<path fill="#ffffff" opacity="1.00" d=" M 42.71 16.06 C 46.83 25.44 50.95 34.82 55.02 44.22 C 51.88 43.62 48.84 42.64 45.89 41.45 C 43.45 35.56 40.86 29.75 38.35 23.89 C 39.80 21.28 41.25 18.67 42.71 16.06 Z" />
<path fill="#ffffff" opacity="1.00" d=" M 7.94 43.76 C 14.18 38.37 23.46 36.40 31.18 39.57 C 39.36 42.65 47.14 47.23 56.00 48.12 C 56.00 49.95 55.99 51.78 55.99 53.61 C 40.00 53.59 24.00 53.60 8.01 53.61 C 8.00 50.32 8.03 47.04 7.94 43.76 Z" />
</g>
<g id="#000000ff">
<path fill="#000000" opacity="1.00" d=" M 17.93 6.12 C 18.62 3.75 22.29 3.34 23.51 5.45 C 24.73 7.68 25.59 10.10 26.60 12.43 C 28.09 11.02 30.34 8.87 32.37 10.73 C 34.13 13.34 34.98 16.44 36.36 19.26 C 37.69 16.95 38.80 14.51 40.34 12.33 C 41.70 10.46 44.95 11.05 45.75 13.16 C 50.66 23.67 54.81 34.54 59.96 44.94 C 60.04 49.16 59.99 53.38 59.99 57.61 C 41.33 57.60 22.67 57.59 4.01 57.61 C 4.18 52.11 3.61 46.55 4.29 41.10 C 8.70 29.39 13.34 17.76 17.93 6.12 M 20.92 9.40 C 17.20 18.75 13.60 28.14 9.90 37.50 C 14.56 35.18 19.77 33.77 25.01 34.04 C 30.56 34.37 35.59 36.99 40.59 39.16 C 37.08 31.04 33.58 22.92 30.06 14.80 C 28.48 16.36 26.92 17.92 25.35 19.49 C 23.87 16.13 22.45 12.74 20.92 9.40 M 42.71 16.06 C 41.25 18.67 39.80 21.28 38.35 23.89 C 40.86 29.75 43.45 35.56 45.89 41.45 C 48.84 42.64 51.88 43.62 55.02 44.22 C 50.95 34.82 46.83 25.44 42.71 16.06 M 7.94 43.76 C 8.03 47.04 8.00 50.32 8.01 53.61 C 24.00 53.60 40.00 53.59 55.99 53.61 C 55.99 51.78 56.00 49.95 56.00 48.12 C 47.14 47.23 39.36 42.65 31.18 39.57 C 23.46 36.40 14.18 38.37 7.94 43.76 Z" />
</g>
</svg>
