<?xml version="1.0" encoding="UTF-8" ?>
<!DOCTYPE svg PUBLIC "-//W3C//DTD SVG 1.1//EN" "http://www.w3.org/Graphics/SVG/1.1/DTD/svg11.dtd">
<svg width="142pt" height="177pt" viewBox="0 0 142 177" version="1.1" xmlns="http://www.w3.org/2000/svg">
<g id="#fffffff">
<path fill="#ffffff" opacity="1.00" d=" M 0.00 0.00 L 142.00 0.00 L 142.00 177.00 L 0.00 177.00 L 0.00 0.00 M 60.88 38.04 C 55.41 39.89 49.44 39.36 44.08 41.62 C 34.27 44.90 26.22 51.92 19.50 59.57 C 15.11 66.55 11.02 74.01 9.52 82.20 C 9.32 83.80 11.35 83.35 12.29 83.75 C 12.63 81.41 13.12 79.10 13.59 76.79 C 15.86 73.60 19.33 71.52 22.77 69.82 C 23.56 73.78 21.48 77.41 21.68 81.34 C 21.32 81.55 20.61 81.98 20.26 82.19 L 21.83 82.12 C 21.75 85.41 22.10 88.74 21.51 92.01 C 21.80 92.00 22.40 91.99 22.70 91.98 C 21.92 88.08 22.27 84.08 22.48 80.15 C 23.97 81.31 25.17 80.10 26.33 79.42 C 28.57 78.09 31.02 77.05 32.84 75.13 C 32.34 75.48 31.34 76.18 30.84 76.53 C 28.92 76.33 27.15 77.42 26.06 78.93 C 25.18 79.20 23.43 79.76 22.56 80.04 C 22.13 76.43 23.37 72.63 23.90 69.02 C 27.79 66.23 32.25 64.34 36.47 62.08 C 36.65 65.06 36.60 68.05 36.42 71.02 C 37.20 67.38 37.03 63.64 37.53 59.97 C 33.97 63.76 28.76 65.16 24.40 67.81 C 24.46 67.07 24.58 65.61 24.64 64.87 C 24.16 66.31 23.68 67.75 23.17 69.19 C 20.42 70.59 17.92 72.41 15.24 73.93 C 17.71 66.17 22.37 58.93 29.10 54.20 C 31.81 51.09 35.18 48.60 38.94 46.92 C 46.01 42.21 54.82 41.91 62.93 40.38 C 64.12 39.86 65.36 39.45 66.63 39.14 C 65.99 36.15 62.90 37.65 60.88 38.04 M 73.49 40.50 C 74.07 43.45 77.19 45.87 76.87 48.80 C 73.86 49.84 70.59 50.40 67.38 50.63 C 67.63 48.93 67.12 45.98 65.36 45.41 C 64.73 47.32 67.22 49.02 65.98 50.82 C 63.50 51.68 60.74 51.80 58.25 52.81 C 58.21 52.12 58.12 50.73 58.08 50.04 C 57.87 51.43 57.66 52.81 57.45 54.20 C 58.24 54.86 58.69 55.71 58.82 56.74 C 56.99 56.60 55.23 56.06 53.77 54.90 C 51.40 54.04 49.17 52.86 46.86 51.84 C 42.97 51.28 38.77 49.06 35.20 51.79 C 35.88 54.37 38.41 55.33 40.79 54.63 C 42.81 57.21 45.87 58.53 48.54 60.29 C 50.52 62.21 51.60 64.83 52.78 67.28 C 51.11 68.38 49.25 69.03 47.23 69.02 C 47.20 67.37 47.29 65.69 46.91 64.06 C 46.76 65.88 46.75 67.71 46.77 69.54 C 43.13 70.67 39.62 74.18 35.66 72.63 C 35.71 73.10 35.81 74.05 35.86 74.52 L 34.28 74.31 C 34.93 74.79 35.57 75.26 36.21 75.74 C 36.38 78.88 36.36 82.02 36.46 85.16 C 36.89 81.31 36.49 77.44 36.35 73.59 C 40.45 73.81 43.49 70.21 47.58 70.40 L 47.33 69.24 C 49.07 69.38 50.82 69.24 52.15 67.97 C 54.06 69.73 54.65 73.66 57.91 73.36 C 59.73 73.08 61.23 74.20 62.98 74.36 C 65.36 74.32 64.16 77.59 64.67 79.00 C 62.95 78.80 62.19 77.75 62.40 75.85 C 62.78 77.78 61.81 78.97 60.11 79.63 C 60.68 79.55 61.81 79.39 62.37 79.31 C 62.41 80.02 62.49 81.44 62.53 82.15 C 62.70 81.34 63.03 79.73 63.19 78.93 L 64.60 80.53 C 65.01 79.08 65.42 77.63 65.85 76.19 C 65.59 78.58 65.36 80.97 65.42 83.38 C 64.07 83.42 63.15 84.28 62.32 85.25 C 61.98 85.26 61.29 85.28 60.95 85.29 C 59.82 84.09 58.74 82.37 56.88 82.40 C 55.73 82.96 54.88 83.94 53.94 84.78 C 52.33 83.10 50.66 81.36 48.09 81.65 C 48.82 86.43 50.32 91.11 50.29 95.99 C 49.99 97.71 51.69 98.40 52.82 99.19 C 54.89 101.74 57.74 104.31 57.50 107.89 C 58.06 114.92 57.33 121.95 57.66 128.97 C 56.96 131.82 56.38 134.69 56.69 137.65 C 54.98 137.63 53.26 137.61 51.55 137.59 L 51.38 136.05 C 51.11 136.29 50.57 136.76 50.31 136.99 C 52.54 138.91 53.13 142.15 55.70 143.71 L 55.60 145.72 C 52.39 144.94 49.34 143.52 46.05 143.07 C 46.57 144.14 47.11 145.20 47.65 146.27 C 48.25 146.35 49.46 146.52 50.07 146.61 C 57.78 149.96 66.58 150.21 74.61 147.86 C 96.47 144.38 116.32 126.73 119.53 104.41 C 117.93 105.16 116.15 105.64 114.72 106.70 C 108.87 112.15 101.19 114.88 93.92 117.85 C 97.65 117.27 101.05 115.53 104.53 114.17 C 104.54 117.83 103.98 121.46 103.27 125.03 C 102.79 125.40 101.83 126.12 101.34 126.48 C 101.65 126.96 101.96 127.44 102.28 127.92 C 102.49 125.92 104.37 125.19 105.94 124.42 C 105.30 124.55 104.03 124.80 103.39 124.92 C 104.87 121.30 104.15 117.18 105.53 113.61 C 109.14 110.89 113.29 108.90 116.79 105.97 C 115.98 111.00 114.72 116.43 110.92 120.12 C 110.40 123.30 107.68 125.38 105.91 127.89 C 104.45 129.36 103.26 131.72 100.88 131.59 C 99.32 135.14 95.43 136.51 92.55 138.74 C 86.18 142.58 78.87 144.65 71.56 145.80 C 71.75 145.48 72.13 144.85 72.32 144.53 L 73.74 144.31 C 73.57 139.85 72.31 135.49 72.80 131.01 C 73.11 128.36 71.01 126.19 71.20 123.57 C 74.39 123.17 77.41 121.82 80.68 122.12 C 81.24 126.27 79.94 130.21 79.52 134.28 L 78.43 134.19 C 80.48 136.66 79.09 140.11 78.41 142.88 C 79.89 140.74 79.75 138.07 79.74 135.59 C 81.44 134.63 83.24 133.88 85.04 133.15 C 83.46 133.47 81.94 134.03 80.47 134.68 C 79.31 132.47 80.51 130.24 81.01 128.05 C 81.19 125.84 81.10 123.62 81.12 121.40 C 84.67 120.62 88.15 119.44 91.80 119.15 C 90.70 113.95 91.00 108.42 91.63 103.15 C 87.68 103.93 83.68 107.11 79.70 105.51 C 79.30 100.44 78.30 95.43 78.28 90.29 C 75.83 91.26 73.34 92.11 70.79 92.78 C 70.20 91.59 69.79 90.34 69.58 89.03 C 74.97 86.65 73.49 80.34 73.71 75.62 L 74.74 75.76 C 74.68 75.07 74.57 73.68 74.52 72.98 C 75.97 69.55 76.12 65.62 78.55 62.64 C 77.51 60.64 77.69 57.99 75.89 56.46 C 72.89 54.99 71.31 60.37 68.39 58.58 C 66.44 57.17 62.95 55.37 63.48 52.69 C 65.94 51.80 68.89 50.54 71.44 51.66 L 71.73 50.41 C 74.11 50.98 76.24 49.57 78.58 49.53 C 78.85 50.15 79.38 51.39 79.65 52.01 C 79.96 47.10 74.16 44.87 73.88 40.06 C 78.02 40.46 81.98 41.83 85.86 43.26 C 88.70 44.17 88.68 48.16 91.50 49.07 C 90.70 47.72 89.81 46.44 89.00 45.11 C 93.81 46.41 98.32 49.61 101.01 53.85 C 104.61 55.84 106.92 59.35 109.32 62.57 C 109.41 63.00 109.60 63.85 109.69 64.28 C 113.32 67.70 114.33 72.92 116.46 77.28 C 118.45 80.88 118.35 85.08 119.19 89.02 C 120.02 90.48 117.80 91.81 118.70 93.17 C 119.86 94.63 119.26 96.43 118.89 98.05 C 117.68 100.18 120.47 99.73 121.60 99.70 C 121.79 94.86 122.30 89.95 121.29 85.16 C 120.17 76.61 115.51 69.13 111.69 61.58 C 107.42 55.56 102.06 50.27 96.20 45.79 C 88.30 41.00 79.11 38.03 69.91 37.49 C 68.31 39.65 72.14 39.96 73.49 40.50 M 9.55 87.39 C 9.15 92.29 8.76 97.24 9.66 102.12 C 10.06 106.94 12.50 111.18 13.91 115.73 C 16.42 121.06 20.20 125.68 23.75 130.35 C 29.05 137.20 36.88 141.32 44.19 145.64 C 44.50 144.99 45.10 143.68 45.40 143.03 C 41.09 141.57 37.48 138.71 33.46 136.68 C 35.70 134.84 38.40 136.73 40.84 136.86 C 39.31 132.69 34.77 130.22 33.86 125.63 C 38.24 125.43 42.63 125.78 47.01 125.64 C 46.61 125.39 45.81 124.91 45.40 124.66 C 44.25 120.47 42.70 116.40 41.36 112.26 C 42.87 112.17 44.38 112.10 45.89 112.04 C 44.19 111.90 42.47 111.82 40.80 111.48 C 40.71 110.92 40.54 109.81 40.46 109.25 C 40.46 109.84 40.45 111.00 40.45 111.58 C 37.67 112.07 34.84 111.67 32.05 111.92 C 35.04 112.50 38.11 111.88 41.12 112.41 C 42.43 116.75 44.60 120.90 44.97 125.47 C 41.32 125.34 37.66 125.59 34.02 125.29 C 31.98 124.35 31.60 121.90 30.33 120.27 C 30.76 121.18 31.62 122.99 32.05 123.90 C 28.20 124.49 24.61 122.96 20.86 122.53 C 17.65 118.57 15.51 113.88 14.06 109.03 C 18.54 109.42 22.80 110.94 27.20 111.78 C 27.96 114.20 28.78 116.53 28.97 119.07 L 29.26 116.94 L 31.09 117.48 C 29.50 116.38 28.10 114.87 27.71 112.92 C 28.39 112.33 29.13 111.82 29.93 111.40 C 25.06 112.86 26.95 105.97 24.40 103.81 C 25.19 106.02 25.89 108.26 26.32 110.58 C 22.81 110.79 19.52 109.26 16.07 108.85 C 14.06 108.71 12.62 106.95 12.63 104.97 C 12.70 101.95 11.18 98.89 12.26 95.94 C 11.04 93.08 12.04 90.12 12.71 87.26 C 11.92 87.29 10.34 87.36 9.55 87.39 Z" />
<path fill="#ffffff" opacity="1.00" d=" M 69.86 93.47 C 72.30 92.71 74.74 91.97 77.22 91.36 C 79.11 93.77 77.99 96.98 78.75 99.75 C 79.45 102.24 79.70 104.82 79.30 107.40 C 77.53 107.41 75.77 107.45 74.01 107.44 C 70.61 103.52 70.55 98.34 69.86 93.47 Z" />
<path fill="#ffffff" opacity="1.00" d=" M 79.66 106.60 C 83.45 106.58 86.92 104.88 90.59 104.18 C 90.55 108.84 91.09 113.63 90.34 118.20 C 87.79 120.15 84.20 120.17 81.16 120.94 C 81.06 118.37 81.32 115.78 80.94 113.24 C 80.31 111.06 79.35 108.92 79.66 106.60 Z" />
<path fill="#ffffff" opacity="1.00" d=" M 75.37 107.82 C 76.29 107.77 78.12 107.69 79.03 107.64 C 80.87 112.04 80.79 116.73 80.46 121.40 C 77.05 121.62 73.80 123.52 70.34 122.52 C 70.88 117.21 75.29 113.16 75.37 107.82 Z" />
<path fill="#ffffff" opacity="1.00" d=" M 22.91 123.07 C 23.85 123.57 24.80 124.07 25.74 124.58 C 27.55 124.10 29.43 124.33 31.27 124.33 C 34.15 126.19 35.10 129.61 37.20 132.15 C 37.47 133.48 38.19 134.63 38.80 135.83 C 36.81 135.74 34.83 135.70 32.84 135.71 C 32.08 134.18 30.06 134.24 29.04 132.99 C 26.61 130.38 24.42 127.57 22.19 124.81 L 22.91 123.07 Z" />
<path fill="#ffffff" opacity="1.00" d=" M 55.96 142.15 C 54.41 142.28 53.51 139.57 54.62 138.52 C 56.06 139.31 56.51 140.52 55.96 142.15 Z" />
<path fill="#ffffff" opacity="1.00" d=" M 61.28 143.21 C 61.84 143.80 61.84 143.80 61.28 143.21 Z" />
</g>
<g id="#000000ff">
<path fill="#968176" opacity="1.00" d=" M 60.88 38.04 C 62.90 37.65 65.99 36.15 66.63 39.14 C 65.36 39.45 64.12 39.86 62.93 40.38 C 54.82 41.91 46.01 42.21 38.94 46.92 C 35.18 48.60 31.81 51.09 29.10 54.20 C 22.37 58.93 17.71 66.17 15.24 73.93 C 17.92 72.41 20.42 70.59 23.17 69.19 C 23.68 67.75 24.16 66.31 24.64 64.87 C 24.58 65.61 24.46 67.07 24.40 67.81 C 28.76 65.16 33.97 63.76 37.53 59.97 C 37.03 63.64 37.20 67.38 36.42 71.02 C 36.60 68.05 36.65 65.06 36.47 62.08 C 32.25 64.34 27.79 66.23 23.90 69.02 C 23.37 72.63 22.13 76.43 22.56 80.04 C 23.43 79.76 25.18 79.20 26.06 78.93 C 27.15 77.42 28.92 76.33 30.84 76.53 C 31.34 76.18 32.34 75.48 32.84 75.13 C 31.02 77.05 28.57 78.09 26.33 79.42 C 25.17 80.10 23.97 81.31 22.48 80.15 C 22.27 84.08 21.92 88.08 22.70 91.98 C 22.40 91.99 21.80 92.00 21.51 92.01 C 22.10 88.74 21.75 85.41 21.83 82.12 L 20.26 82.19 C 20.61 81.98 21.32 81.55 21.68 81.34 C 21.48 77.41 23.56 73.78 22.77 69.82 C 19.33 71.52 15.86 73.60 13.59 76.79 C 13.12 79.10 12.63 81.41 12.29 83.75 C 11.35 83.35 9.32 83.80 9.52 82.20 C 11.02 74.01 15.11 66.55 19.50 59.57 C 26.22 51.92 34.27 44.90 44.08 41.62 C 49.44 39.36 55.41 39.89 60.88 38.04 Z" />
<path fill="#968176" opacity="1.00" d=" M 73.49 40.50 C 72.14 39.96 68.31 39.65 69.91 37.49 C 79.11 38.03 88.30 41.00 96.20 45.79 C 102.06 50.27 107.42 55.56 111.69 61.58 C 115.51 69.13 120.17 76.61 121.29 85.16 C 122.30 89.95 121.79 94.86 121.60 99.70 C 120.47 99.73 117.68 100.18 118.89 98.05 C 119.26 96.43 119.86 94.63 118.70 93.17 C 117.80 91.81 120.02 90.48 119.19 89.02 C 118.35 85.08 118.45 80.88 116.46 77.28 C 114.33 72.92 113.32 67.70 109.69 64.28 C 109.60 63.85 109.41 63.00 109.32 62.57 C 106.92 59.35 104.61 55.84 101.01 53.85 C 98.32 49.61 93.81 46.41 89.00 45.11 C 89.81 46.44 90.70 47.72 91.50 49.07 C 88.68 48.16 88.70 44.17 85.86 43.26 C 81.98 41.83 78.02 40.46 73.88 40.06 C 74.16 44.87 79.96 47.10 79.65 52.01 C 79.38 51.39 78.85 50.15 78.58 49.53 C 76.24 49.57 74.11 50.98 71.73 50.41 L 71.44 51.66 C 68.89 50.54 65.94 51.80 63.48 52.69 C 62.95 55.37 66.44 57.17 68.39 58.58 C 71.31 60.37 72.89 54.99 75.89 56.46 C 77.69 57.99 77.51 60.64 78.55 62.64 C 76.12 65.62 75.97 69.55 74.52 72.98 C 74.57 73.68 74.68 75.07 74.74 75.76 L 73.71 75.62 C 73.49 80.34 74.97 86.65 69.58 89.03 C 69.79 90.34 70.20 91.59 70.79 92.78 C 73.34 92.11 75.83 91.26 78.28 90.29 C 78.30 95.43 79.30 100.44 79.70 105.51 C 83.68 107.11 87.68 103.93 91.63 103.15 C 91.00 108.42 90.70 113.95 91.80 119.15 C 88.15 119.44 84.67 120.62 81.12 121.40 C 81.10 123.62 81.19 125.84 81.01 128.05 C 80.51 130.24 79.31 132.47 80.47 134.68 C 81.94 134.03 83.46 133.47 85.04 133.15 C 83.24 133.88 81.44 134.63 79.74 135.59 C 79.75 138.07 79.89 140.74 78.41 142.88 C 79.09 140.11 80.48 136.66 78.43 134.19 L 79.52 134.28 C 79.94 130.21 81.24 126.27 80.68 122.12 C 77.41 121.82 74.39 123.17 71.20 123.57 C 71.01 126.19 73.11 128.36 72.80 131.01 C 72.31 135.49 73.57 139.85 73.74 144.31 L 72.32 144.53 C 72.13 144.85 71.75 145.48 71.56 145.80 C 78.87 144.65 86.18 142.58 92.55 138.74 C 95.43 136.51 99.32 135.14 100.88 131.59 C 103.26 131.72 104.45 129.36 105.91 127.89 C 107.68 125.38 110.40 123.30 110.92 120.12 C 114.72 116.43 115.98 111.00 116.79 105.97 C 113.29 108.90 109.14 110.89 105.53 113.61 C 104.15 117.18 104.87 121.30 103.39 124.92 C 104.03 124.80 105.30 124.55 105.94 124.42 C 104.37 125.19 102.49 125.92 102.28 127.92 C 101.96 127.44 101.65 126.96 101.34 126.48 C 101.83 126.12 102.79 125.40 103.27 125.03 C 103.98 121.46 104.54 117.83 104.53 114.17 C 101.05 115.53 97.65 117.27 93.92 117.85 C 101.19 114.88 108.87 112.15 114.72 106.70 C 116.15 105.64 117.93 105.16 119.53 104.41 C 116.32 126.73 96.47 144.38 74.61 147.86 C 66.58 150.21 57.78 149.96 50.07 146.61 C 49.46 146.52 48.25 146.35 47.65 146.27 C 47.11 145.20 46.57 144.14 46.05 143.07 C 49.34 143.52 52.39 144.94 55.60 145.72 L 55.70 143.71 C 53.13 142.15 52.54 138.91 50.31 136.99 C 50.57 136.76 51.11 136.29 51.38 136.05 L 51.55 137.59 C 53.26 137.61 54.98 137.63 56.69 137.65 C 56.38 134.69 56.96 131.82 57.66 128.97 C 57.33 121.95 58.06 114.92 57.50 107.89 C 57.74 104.31 54.89 101.74 52.82 99.19 C 51.69 98.40 49.99 97.71 50.29 95.99 C 50.32 91.11 48.82 86.43 48.09 81.65 C 50.66 81.36 52.33 83.10 53.94 84.78 C 54.88 83.94 55.73 82.96 56.88 82.40 C 58.74 82.37 59.82 84.09 60.95 85.29 C 61.29 85.28 61.98 85.26 62.32 85.25 C 63.15 84.28 64.07 83.42 65.42 83.38 C 65.36 80.97 65.59 78.58 65.85 76.19 C 65.42 77.63 65.01 79.08 64.60 80.53 L 63.19 78.93 C 63.03 79.73 62.70 81.34 62.53 82.15 C 62.49 81.44 62.41 80.02 62.37 79.31 C 61.81 79.39 60.68 79.55 60.11 79.63 C 61.81 78.97 62.78 77.78 62.40 75.85 C 62.19 77.75 62.95 78.80 64.67 79.00 C 64.16 77.59 65.36 74.32 62.98 74.36 C 61.23 74.20 59.73 73.08 57.91 73.36 C 54.65 73.66 54.06 69.73 52.15 67.97 C 50.82 69.24 49.07 69.38 47.33 69.24 L 47.58 70.40 C 43.49 70.21 40.45 73.81 36.35 73.59 C 36.49 77.44 36.89 81.31 36.46 85.16 C 36.36 82.02 36.38 78.88 36.21 75.74 C 35.57 75.26 34.93 74.79 34.28 74.31 L 35.86 74.52 C 35.81 74.05 35.71 73.10 35.66 72.63 C 39.62 74.18 43.13 70.67 46.77 69.54 C 46.75 67.71 46.76 65.88 46.91 64.06 C 47.29 65.69 47.20 67.37 47.23 69.02 C 49.25 69.03 51.11 68.38 52.78 67.28 C 51.60 64.83 50.52 62.21 48.54 60.29 C 45.87 58.53 42.81 57.21 40.79 54.63 C 38.41 55.33 35.88 54.37 35.20 51.79 C 38.77 49.06 42.97 51.28 46.86 51.84 C 49.17 52.86 51.40 54.04 53.77 54.90 C 55.23 56.06 56.99 56.60 58.82 56.74 C 58.69 55.71 58.24 54.86 57.45 54.20 C 57.66 52.81 57.87 51.43 58.08 50.04 C 58.12 50.73 58.21 52.12 58.25 52.81 C 60.74 51.80 63.50 51.68 65.98 50.82 C 67.22 49.02 64.73 47.32 65.36 45.41 C 67.12 45.98 67.63 48.93 67.38 50.63 C 70.59 50.40 73.86 49.84 76.87 48.80 C 77.19 45.87 74.07 43.45 73.49 40.50 M 69.86 93.47 C 70.55 98.34 70.61 103.52 74.01 107.44 C 75.77 107.45 77.53 107.41 79.30 107.40 C 79.70 104.82 79.45 102.24 78.75 99.75 C 77.99 96.98 79.11 93.77 77.22 91.36 C 74.74 91.97 72.30 92.71 69.86 93.47 M 79.66 106.60 C 79.35 108.92 80.31 111.06 80.94 113.24 C 81.32 115.78 81.06 118.37 81.16 120.94 C 84.20 120.17 87.79 120.15 90.34 118.20 C 91.09 113.63 90.55 108.84 90.59 104.18 C 86.92 104.88 83.45 106.58 79.66 106.60 M 75.37 107.82 C 75.29 113.16 70.88 117.21 70.34 122.52 C 73.80 123.52 77.05 121.62 80.46 121.40 C 80.79 116.73 80.87 112.04 79.03 107.64 C 78.12 107.69 76.29 107.77 75.37 107.82 M 55.96 142.15 C 56.51 140.52 56.06 139.31 54.62 138.52 C 53.51 139.57 54.41 142.28 55.96 142.15 M 61.28 143.21 C 61.84 143.80 61.84 143.80 61.28 143.21 Z" />
<path fill="#968176" opacity="1.00" d=" M 9.55 87.39 C 10.34 87.36 11.92 87.29 12.71 87.26 C 12.04 90.12 11.04 93.08 12.26 95.94 C 11.18 98.89 12.70 101.95 12.63 104.97 C 12.62 106.95 14.06 108.71 16.07 108.85 C 19.52 109.26 22.81 110.79 26.32 110.58 C 25.89 108.26 25.19 106.02 24.40 103.81 C 26.95 105.97 25.06 112.86 29.93 111.40 C 29.13 111.82 28.39 112.33 27.71 112.92 C 28.10 114.87 29.50 116.38 31.09 117.48 L 29.26 116.94 L 28.97 119.07 C 28.78 116.53 27.96 114.20 27.20 111.78 C 22.80 110.94 18.54 109.42 14.06 109.03 C 15.51 113.88 17.65 118.57 20.86 122.53 C 24.61 122.96 28.20 124.49 32.05 123.90 C 31.62 122.99 30.76 121.18 30.33 120.27 C 31.60 121.90 31.98 124.35 34.02 125.29 C 37.66 125.59 41.32 125.34 44.97 125.47 C 44.60 120.90 42.43 116.75 41.12 112.41 C 38.11 111.88 35.04 112.50 32.05 111.92 C 34.84 111.67 37.67 112.07 40.45 111.58 C 40.45 111.00 40.46 109.84 40.46 109.25 C 40.54 109.81 40.71 110.92 40.80 111.48 C 42.47 111.82 44.19 111.90 45.89 112.04 C 44.38 112.10 42.87 112.17 41.36 112.26 C 42.70 116.40 44.25 120.47 45.40 124.66 C 45.81 124.91 46.61 125.39 47.01 125.64 C 42.63 125.78 38.24 125.43 33.86 125.63 C 34.77 130.22 39.31 132.69 40.84 136.86 C 38.40 136.73 35.70 134.84 33.46 136.68 C 37.48 138.71 41.09 141.57 45.40 143.03 C 45.10 143.68 44.50 144.99 44.19 145.64 C 36.88 141.32 29.05 137.20 23.75 130.35 C 20.20 125.68 16.42 121.06 13.91 115.73 C 12.50 111.18 10.06 106.94 9.66 102.12 C 8.76 97.24 9.15 92.29 9.55 87.39 M 22.91 123.07 L 22.19 124.81 C 24.42 127.57 26.61 130.38 29.04 132.99 C 30.06 134.24 32.08 134.18 32.84 135.71 C 34.83 135.70 36.81 135.74 38.80 135.83 C 38.19 134.63 37.47 133.48 37.20 132.15 C 35.10 129.61 34.15 126.19 31.27 124.33 C 29.43 124.33 27.55 124.10 25.74 124.58 C 24.80 124.07 23.85 123.57 22.91 123.07 Z" />
</g>
</svg>
