<?xml version="1.0" encoding="UTF-8" ?>
<!DOCTYPE svg PUBLIC "-//W3C//DTD SVG 1.1//EN" "http://www.w3.org/Graphics/SVG/1.1/DTD/svg11.dtd">
<svg width="60pt" height="60pt" viewBox="0 0 60 60" version="1.1" xmlns="http://www.w3.org/2000/svg">
<g id="#ffffffff">
<path fill="#ffffff" opacity="1.00" d=" M 0.00 0.00 L 60.00 0.00 L 60.00 60.00 L 0.00 60.00 L 0.00 0.00 M 5.19 13.81 C 9.76 14.27 14.36 13.87 18.94 14.00 C 20.46 16.29 21.98 18.58 23.51 20.87 C 21.75 23.93 18.69 26.46 18.02 30.00 C 18.70 33.54 21.74 36.08 23.51 39.13 C 21.98 41.42 20.45 43.70 18.94 46.00 C 14.35 46.13 9.74 45.73 5.17 46.19 C 3.26 46.87 3.87 50.13 5.94 49.90 C 10.90 50.05 15.89 50.17 20.84 49.82 C 22.96 47.75 24.25 45.02 25.98 42.64 C 27.96 45.01 29.12 48.45 32.03 49.81 C 38.37 50.26 44.74 49.89 51.09 50.00 C 53.44 50.35 56.02 48.57 55.95 46.07 C 56.04 35.34 56.04 24.59 55.95 13.86 C 55.98 11.35 53.43 9.63 51.07 10.00 C 44.74 10.10 38.38 9.76 32.06 10.18 C 29.13 11.53 27.97 14.97 25.98 17.35 C 24.25 14.98 22.96 12.24 20.83 10.18 C 15.88 9.83 10.87 9.96 5.91 10.10 C 3.84 9.89 3.28 13.16 5.19 13.81 Z" />
<path fill="#ffffff" opacity="1.00" d=" M 40.42 20.32 C 42.57 18.75 45.47 18.72 47.95 17.90 C 47.93 19.59 47.92 21.28 48.02 22.97 C 46.01 23.55 44.01 24.18 42.00 24.78 C 41.80 29.02 42.52 33.40 41.45 37.55 C 40.31 40.94 34.31 40.77 34.03 36.96 C 33.46 33.53 37.24 32.74 39.60 31.69 C 40.79 28.05 39.20 23.95 40.42 20.32 Z" />
</g>
<g id="#000000ff">
<path fill="#968176" opacity="1.00" d=" M 5.19 13.81 C 3.28 13.16 3.84 9.89 5.91 10.10 C 10.87 9.96 15.88 9.83 20.83 10.18 C 22.96 12.24 24.25 14.98 25.98 17.35 C 27.97 14.97 29.13 11.53 32.06 10.18 C 38.38 9.76 44.74 10.10 51.07 10.00 C 53.43 9.63 55.98 11.35 55.95 13.86 C 56.04 24.59 56.04 35.34 55.95 46.07 C 56.02 48.57 53.44 50.35 51.09 50.00 C 44.74 49.89 38.37 50.26 32.03 49.81 C 29.12 48.45 27.96 45.01 25.98 42.64 C 24.25 45.02 22.96 47.75 20.84 49.82 C 15.89 50.17 10.90 50.05 5.94 49.90 C 3.87 50.13 3.26 46.87 5.17 46.19 C 9.74 45.73 14.35 46.13 18.94 46.00 C 20.45 43.70 21.98 41.42 23.51 39.13 C 21.74 36.08 18.70 33.54 18.02 30.00 C 18.69 26.46 21.75 23.93 23.51 20.87 C 21.98 18.58 20.46 16.29 18.94 14.00 C 14.36 13.87 9.76 14.27 5.19 13.81 M 40.42 20.32 C 39.20 23.95 40.79 28.05 39.60 31.69 C 37.24 32.74 33.46 33.53 34.03 36.96 C 34.31 40.77 40.31 40.94 41.45 37.55 C 42.52 33.40 41.80 29.02 42.00 24.78 C 44.01 24.18 46.01 23.55 48.02 22.97 C 47.92 21.28 47.93 19.59 47.95 17.90 C 45.47 18.72 42.57 18.75 40.42 20.32 Z" />
</g>
</svg>
