<?xml version="1.0" encoding="UTF-8" ?>
<!DOCTYPE svg PUBLIC "-//W3C//DTD SVG 1.1//EN" "http://www.w3.org/Graphics/SVG/1.1/DTD/svg11.dtd">
<svg width="64pt" height="64pt" viewBox="0 0 64 64" version="1.1" xmlns="http://www.w3.org/2000/svg">
<g id="#ffffffff">
<path fill="#ffffff" opacity="1.00" d=" M 0.00 0.00 L 64.00 0.00 L 64.00 64.00 L 0.00 64.00 L 0.00 0.00 M 6.00 14.00 C 6.00 16.67 6.00 19.33 6.00 22.00 C 7.33 22.00 8.67 22.00 10.00 22.00 C 10.00 20.67 10.00 19.33 10.00 18.00 C 24.67 18.00 39.33 18.00 54.00 18.00 C 54.00 19.33 54.00 20.67 54.00 22.00 C 55.33 22.00 56.67 22.00 58.00 22.00 C 58.00 19.33 58.00 16.67 58.00 14.00 C 40.67 14.00 23.33 14.00 6.00 14.00 M 10.36 24.07 C 8.97 29.41 6.45 34.47 5.83 39.99 C 7.21 40.00 8.60 40.00 9.98 40.00 C 9.99 39.50 10.02 38.50 10.03 38.00 C 11.34 38.00 12.66 38.00 13.97 38.00 C 13.98 38.50 14.01 39.50 14.02 40.00 C 15.40 40.00 16.79 40.00 18.17 39.99 C 17.54 34.44 15.03 29.34 13.57 23.98 C 12.50 24.01 11.43 24.04 10.36 24.07 M 20.00 24.00 C 20.00 29.33 20.00 34.67 20.00 40.00 C 21.33 40.00 22.67 40.00 24.00 40.00 C 24.00 34.67 24.00 29.33 24.00 24.00 C 22.67 24.00 21.33 24.00 20.00 24.00 M 28.00 24.00 C 28.00 25.33 28.00 26.66 28.00 27.99 C 27.50 27.99 26.50 28.00 26.00 28.01 C 26.00 29.34 26.00 30.66 26.00 31.99 C 26.50 32.00 27.50 32.00 28.00 32.01 C 28.00 34.67 28.00 37.34 28.00 40.00 C 29.33 40.00 30.67 40.00 32.00 40.00 C 32.00 37.34 32.00 34.67 32.00 32.01 C 32.50 32.00 33.50 32.00 34.00 31.99 C 34.00 30.66 34.00 29.34 34.00 28.01 C 33.50 28.00 32.50 28.00 32.00 27.99 C 32.00 26.66 32.00 25.33 32.00 24.00 C 30.67 24.00 29.33 24.00 28.00 24.00 M 38.05 28.87 C 38.05 31.72 37.51 34.81 38.66 37.50 C 40.53 40.85 44.83 39.87 48.00 40.02 C 48.00 37.35 48.00 34.67 48.00 32.00 C 46.67 32.00 45.34 32.00 44.01 32.00 C 44.00 33.45 43.99 34.90 43.97 36.35 C 43.55 36.14 42.70 35.73 42.28 35.52 C 42.09 33.08 40.96 29.49 43.26 27.78 C 43.54 30.62 46.18 29.98 48.22 30.06 C 47.88 28.10 47.56 25.77 45.60 24.73 C 42.56 22.64 37.89 25.17 38.05 28.87 M 50.00 31.90 C 50.00 34.60 50.00 37.30 50.00 40.00 C 51.33 40.00 52.67 40.00 54.01 40.00 C 54.00 39.22 53.98 37.65 53.98 36.87 C 55.31 36.50 56.65 36.17 58.00 35.86 C 58.00 34.53 58.00 33.20 57.99 31.87 C 56.87 32.11 55.75 32.36 54.63 32.59 C 53.17 31.96 51.56 32.00 50.00 31.90 M 6.00 44.00 C 6.00 46.00 6.00 48.00 6.00 50.00 C 23.33 50.00 40.67 50.00 58.00 50.00 C 58.00 48.00 58.00 46.00 58.00 44.00 C 56.67 44.00 55.34 44.00 54.01 44.00 C 54.00 44.50 54.00 45.50 53.99 46.00 C 39.33 46.00 24.67 46.00 10.01 46.00 C 10.00 45.50 10.00 44.50 9.99 44.00 C 8.66 44.00 7.33 44.00 6.00 44.00 Z" />
</g>
<g id="#000000ff">
<path fill="#000000" opacity="1.00" d=" M 6.00 14.00 C 23.33 14.00 40.67 14.00 58.00 14.00 C 58.00 16.67 58.00 19.33 58.00 22.00 C 56.67 22.00 55.33 22.00 54.00 22.00 C 54.00 20.67 54.00 19.33 54.00 18.00 C 39.33 18.00 24.67 18.00 10.00 18.00 C 10.00 19.33 10.00 20.67 10.00 22.00 C 8.67 22.00 7.33 22.00 6.00 22.00 C 6.00 19.33 6.00 16.67 6.00 14.00 Z" />
<path fill="#000000" opacity="1.00" d=" M 10.36 24.07 C 11.43 24.04 12.50 24.01 13.57 23.98 C 15.03 29.34 17.54 34.44 18.17 39.99 C 16.79 40.00 15.40 40.00 14.02 40.00 C 14.01 39.50 13.98 38.50 13.97 38.00 C 12.66 38.00 11.34 38.00 10.03 38.00 C 10.02 38.50 9.99 39.50 9.98 40.00 C 8.60 40.00 7.21 40.00 5.83 39.99 C 6.45 34.47 8.97 29.41 10.36 24.07 Z" />
<path fill="#000000" opacity="1.00" d=" M 20.00 24.00 C 21.33 24.00 22.67 24.00 24.00 24.00 C 24.00 29.33 24.00 34.67 24.00 40.00 C 22.67 40.00 21.33 40.00 20.00 40.00 C 20.00 34.67 20.00 29.33 20.00 24.00 Z" />
<path fill="#000000" opacity="1.00" d=" M 28.00 24.00 C 29.33 24.00 30.67 24.00 32.00 24.00 C 32.00 25.33 32.00 26.66 32.00 27.99 C 32.50 28.00 33.50 28.00 34.00 28.01 C 34.00 29.34 34.00 30.66 34.00 31.99 C 33.50 32.00 32.50 32.00 32.00 32.01 C 32.00 34.67 32.00 37.34 32.00 40.00 C 30.67 40.00 29.33 40.00 28.00 40.00 C 28.00 37.34 28.00 34.67 28.00 32.01 C 27.50 32.00 26.50 32.00 26.00 31.99 C 26.00 30.66 26.00 29.34 26.00 28.01 C 26.50 28.00 27.50 27.99 28.00 27.99 C 28.00 26.66 28.00 25.33 28.00 24.00 Z" />
<path fill="#000000" opacity="1.00" d=" M 38.05 28.87 C 37.89 25.17 42.56 22.64 45.60 24.73 C 47.56 25.77 47.88 28.10 48.22 30.06 C 46.18 29.98 43.54 30.62 43.26 27.78 C 40.96 29.49 42.09 33.08 42.28 35.52 C 42.70 35.73 43.55 36.14 43.97 36.35 C 43.99 34.90 44.00 33.45 44.01 32.00 C 45.34 32.00 46.67 32.00 48.00 32.00 C 48.00 34.67 48.00 37.35 48.00 40.02 C 44.83 39.87 40.53 40.85 38.66 37.50 C 37.51 34.81 38.05 31.72 38.05 28.87 Z" />
<path fill="#000000" opacity="1.00" d=" M 50.00 31.90 C 51.56 32.00 53.17 31.96 54.63 32.59 C 55.75 32.36 56.87 32.11 57.99 31.87 C 58.00 33.20 58.00 34.53 58.00 35.86 C 56.65 36.17 55.31 36.50 53.98 36.87 C 53.98 37.65 54.00 39.22 54.01 40.00 C 52.67 40.00 51.33 40.00 50.00 40.00 C 50.00 37.30 50.00 34.60 50.00 31.90 Z" />
<path fill="#000000" opacity="1.00" d=" M 6.00 44.00 C 7.33 44.00 8.66 44.00 9.99 44.00 C 10.00 44.50 10.00 45.50 10.01 46.00 C 24.67 46.00 39.33 46.00 53.99 46.00 C 54.00 45.50 54.00 44.50 54.01 44.00 C 55.34 44.00 56.67 44.00 58.00 44.00 C 58.00 46.00 58.00 48.00 58.00 50.00 C 40.67 50.00 23.33 50.00 6.00 50.00 C 6.00 48.00 6.00 46.00 6.00 44.00 Z" />
</g>
</svg>
