<?xml version="1.0" encoding="UTF-8" ?>
<!DOCTYPE svg PUBLIC "-//W3C//DTD SVG 1.1//EN" "http://www.w3.org/Graphics/SVG/1.1/DTD/svg11.dtd">
<svg width="60pt" height="60pt" viewBox="0 0 60 60" version="1.1" xmlns="http://www.w3.org/2000/svg">
<g id="#ffffffff">
<path fill="#ffffff" opacity="1.00" d=" M 0.00 0.00 L 11.35 0.00 C 9.87 0.77 9.36 3.30 11.31 3.82 C 12.62 4.72 13.48 2.72 14.40 2.12 C 14.04 1.59 13.31 0.53 12.95 0.00 L 60.00 0.00 L 60.00 60.00 L 0.00 60.00 L 0.00 0.00 M 25.10 4.06 C 25.40 4.55 25.99 5.54 26.28 6.04 C 25.53 8.17 22.30 7.69 21.94 9.99 C 22.15 12.57 26.96 11.70 25.89 14.82 C 24.11 17.65 18.66 14.04 17.95 18.04 C 18.06 20.45 22.16 19.58 21.93 22.04 C 21.56 26.23 14.26 21.73 14.07 26.07 C 14.48 30.19 21.61 25.78 21.93 29.99 C 22.25 32.43 17.78 31.57 18.07 33.97 C 17.83 36.14 21.06 35.64 21.81 37.23 C 22.53 38.37 21.33 40.12 20.02 39.93 C 17.03 40.11 14.04 39.97 11.05 40.01 C 12.92 42.07 15.50 43.96 15.84 46.95 C 16.16 49.95 15.97 52.98 15.99 56.00 C 22.64 56.00 29.29 56.00 35.94 56.00 C 36.16 54.06 35.57 51.68 37.12 50.14 C 40.07 47.65 44.86 48.35 47.37 45.23 C 48.60 42.17 47.78 38.70 48.01 35.47 C 49.96 34.65 52.45 34.48 53.87 32.79 C 53.75 28.37 47.85 26.49 47.64 21.94 C 46.87 16.37 44.06 10.96 39.46 7.62 C 35.38 4.52 30.10 3.71 25.10 4.06 M 5.11 8.11 C 2.92 9.22 4.39 12.84 6.73 11.86 C 9.25 10.91 7.55 7.06 5.11 8.11 M 15.19 8.09 C 12.86 9.18 14.37 12.84 16.81 11.89 C 19.13 10.83 17.62 7.15 15.19 8.09 M 11.28 16.15 C 8.75 17.02 10.45 20.97 12.86 19.88 C 15.11 18.82 13.60 15.14 11.28 16.15 M 7.23 24.15 C 4.78 25.10 6.44 28.93 8.85 27.89 C 11.12 26.83 9.57 23.09 7.23 24.15 M 3.26 32.16 C 0.74 32.93 2.47 37.04 4.76 35.81 C 7.22 35.02 5.54 31.00 3.26 32.16 M 13.15 32.09 C 10.88 33.24 12.41 36.86 14.83 35.89 C 17.14 34.77 15.58 31.13 13.15 32.09 Z" />
<path fill="#ffffff" opacity="1.00" d=" M 29.19 8.10 C 31.53 7.09 33.20 10.87 30.80 11.79 C 28.46 13.00 26.80 9.11 29.19 8.10 Z" />
<path fill="#ffffff" opacity="1.00" d=" M 29.24 16.17 C 31.54 15.08 33.13 18.78 30.88 19.89 C 28.49 20.98 26.75 17.08 29.24 16.17 Z" />
<path fill="#ffffff" opacity="1.00" d=" M 37.18 16.11 C 39.59 15.14 41.14 18.81 38.81 19.89 C 36.39 20.85 34.86 17.17 37.18 16.11 Z" />
<path fill="#ffffff" opacity="1.00" d=" M 25.17 24.10 C 27.62 23.15 29.16 26.84 26.77 27.91 C 24.38 28.84 22.88 25.20 25.17 24.10 Z" />
</g>
<g id="#000000ff">
<path fill="#968176" opacity="1.00" d=" M 11.35 0.00 L 12.95 0.00 C 13.31 0.53 14.04 1.59 14.40 2.12 C 13.48 2.72 12.62 4.72 11.31 3.82 C 9.36 3.30 9.87 0.77 11.35 0.00 Z" />
<path fill="#968176" opacity="1.00" d=" M 25.10 4.06 C 30.10 3.71 35.38 4.52 39.46 7.62 C 44.06 10.96 46.87 16.37 47.64 21.94 C 47.85 26.49 53.75 28.37 53.87 32.79 C 52.45 34.48 49.96 34.65 48.01 35.47 C 47.78 38.70 48.60 42.17 47.37 45.23 C 44.86 48.35 40.07 47.65 37.12 50.14 C 35.57 51.68 36.16 54.06 35.94 56.00 C 29.29 56.00 22.64 56.00 15.99 56.00 C 15.97 52.98 16.16 49.95 15.84 46.95 C 15.50 43.96 12.92 42.07 11.05 40.01 C 14.04 39.97 17.03 40.11 20.02 39.93 C 21.33 40.12 22.53 38.37 21.81 37.23 C 21.06 35.64 17.83 36.14 18.07 33.97 C 17.78 31.57 22.25 32.43 21.93 29.99 C 21.61 25.78 14.48 30.19 14.07 26.07 C 14.26 21.73 21.56 26.23 21.93 22.04 C 22.16 19.58 18.06 20.45 17.95 18.04 C 18.66 14.04 24.11 17.65 25.89 14.82 C 26.96 11.70 22.15 12.57 21.94 9.99 C 22.30 7.69 25.53 8.17 26.28 6.04 C 25.99 5.54 25.40 4.55 25.10 4.06 M 29.19 8.10 C 26.80 9.11 28.46 13.00 30.80 11.79 C 33.20 10.87 31.53 7.09 29.19 8.10 M 29.24 16.17 C 26.75 17.08 28.49 20.98 30.88 19.89 C 33.13 18.78 31.54 15.08 29.24 16.17 M 37.18 16.11 C 34.86 17.17 36.39 20.85 38.81 19.89 C 41.14 18.81 39.59 15.14 37.18 16.11 M 25.17 24.10 C 22.88 25.20 24.38 28.84 26.77 27.91 C 29.16 26.84 27.62 23.15 25.17 24.10 Z" />
<path fill="#968176" opacity="1.00" d=" M 5.11 8.11 C 7.55 7.06 9.25 10.91 6.73 11.86 C 4.39 12.84 2.92 9.22 5.11 8.11 Z" />
<path fill="#968176" opacity="1.00" d=" M 15.19 8.09 C 17.62 7.15 19.13 10.83 16.81 11.89 C 14.37 12.84 12.86 9.18 15.19 8.09 Z" />
<path fill="#968176" opacity="1.00" d=" M 11.28 16.15 C 13.60 15.14 15.11 18.82 12.86 19.88 C 10.45 20.97 8.75 17.02 11.28 16.15 Z" />
<path fill="#968176" opacity="1.00" d=" M 7.23 24.15 C 9.57 23.09 11.12 26.83 8.85 27.89 C 6.44 28.93 4.78 25.10 7.23 24.15 Z" />
<path fill="#968176" opacity="1.00" d=" M 3.26 32.16 C 5.54 31.00 7.22 35.02 4.76 35.81 C 2.47 37.04 0.74 32.93 3.26 32.16 Z" />
<path fill="#968176" opacity="1.00" d=" M 13.15 32.09 C 15.58 31.13 17.14 34.77 14.83 35.89 C 12.41 36.86 10.88 33.24 13.15 32.09 Z" />
</g>
</svg>
