<?xml version="1.0" encoding="UTF-8" ?>
<!DOCTYPE svg PUBLIC "-//W3C//DTD SVG 1.1//EN" "http://www.w3.org/Graphics/SVG/1.1/DTD/svg11.dtd">
<svg width="60pt" height="60pt" viewBox="0 0 60 60" version="1.1" xmlns="http://www.w3.org/2000/svg">
<g id="#ffffffff">
<path fill="#ffffff" opacity="1.00" d=" M 0.00 0.00 L 60.00 0.00 L 60.00 60.00 L 0.00 60.00 L 0.00 0.00 M 12.42 10.57 C 7.54 12.03 3.96 16.87 4.03 21.97 C 3.98 30.00 3.96 38.03 4.04 46.06 C 3.91 48.57 6.53 50.33 8.85 50.00 C 20.62 49.98 32.39 50.06 44.15 49.96 C 50.47 50.04 56.07 44.39 55.96 38.07 C 56.06 30.36 55.98 22.64 56.00 14.92 C 56.35 12.58 54.61 9.92 52.08 10.04 C 41.06 9.93 30.03 10.05 19.00 9.99 C 16.80 10.01 14.55 9.91 12.42 10.57 Z" />
<path fill="#ffffff" opacity="1.00" d=" M 20.22 24.01 C 21.47 24.01 22.72 24.00 23.97 24.00 C 25.31 28.00 26.66 31.99 28.00 36.00 C 27.17 36.00 25.52 36.00 24.69 36.00 C 24.42 35.11 24.16 34.22 23.89 33.33 C 22.62 33.33 21.35 33.33 20.08 33.34 C 19.83 35.59 18.54 36.61 16.20 36.05 C 17.52 32.03 18.89 28.03 20.22 24.01 M 21.99 26.51 C 21.52 28.07 21.05 29.63 20.58 31.20 C 21.27 31.20 22.67 31.20 23.36 31.20 C 22.90 29.63 22.45 28.07 21.99 26.51 Z" />
<path fill="#ffffff" opacity="1.00" d=" M 30.83 23.98 C 32.05 24.01 33.28 24.04 34.50 24.06 C 35.43 26.56 36.41 29.03 37.43 31.49 C 38.43 29.01 39.41 26.51 40.38 24.02 C 41.59 24.01 42.79 24.00 44.00 24.00 C 44.00 28.00 44.00 32.00 44.00 36.00 C 43.30 36.00 41.89 36.00 41.18 36.00 C 41.19 33.38 41.19 30.76 41.16 28.14 C 40.16 30.45 39.43 32.88 38.22 35.09 C 37.79 35.07 36.94 35.04 36.52 35.03 C 35.45 32.79 34.63 30.44 33.66 28.16 C 33.64 30.77 33.64 33.39 33.64 36.00 C 32.94 36.00 31.53 36.00 30.83 36.00 C 30.83 31.99 30.83 27.98 30.83 23.98 Z" />
</g>
<g id="#000000ff">
<path fill="#000000" opacity="1.00" d=" M 12.42 10.57 C 14.55 9.91 16.80 10.01 19.00 9.99 C 30.03 10.05 41.06 9.93 52.08 10.04 C 54.61 9.92 56.35 12.58 56.00 14.92 C 55.98 22.64 56.06 30.36 55.96 38.07 C 56.07 44.39 50.47 50.04 44.15 49.96 C 32.39 50.06 20.62 49.98 8.85 50.00 C 6.53 50.33 3.91 48.57 4.04 46.06 C 3.96 38.03 3.98 30.00 4.03 21.97 C 3.96 16.87 7.54 12.03 12.42 10.57 M 20.22 24.01 C 18.89 28.03 17.52 32.03 16.20 36.05 C 18.54 36.61 19.83 35.59 20.08 33.34 C 21.35 33.33 22.62 33.33 23.89 33.33 C 24.16 34.22 24.42 35.11 24.69 36.00 C 25.52 36.00 27.17 36.00 28.00 36.00 C 26.66 31.99 25.31 28.00 23.97 24.00 C 22.72 24.00 21.47 24.01 20.22 24.01 M 30.83 23.98 C 30.83 27.98 30.83 31.99 30.83 36.00 C 31.53 36.00 32.94 36.00 33.64 36.00 C 33.64 33.39 33.64 30.77 33.66 28.16 C 34.63 30.44 35.45 32.79 36.52 35.03 C 36.94 35.04 37.79 35.07 38.22 35.09 C 39.43 32.88 40.16 30.45 41.16 28.14 C 41.19 30.76 41.19 33.38 41.18 36.00 C 41.89 36.00 43.30 36.00 44.00 36.00 C 44.00 32.00 44.00 28.00 44.00 24.00 C 42.79 24.00 41.59 24.01 40.38 24.02 C 39.41 26.51 38.43 29.01 37.43 31.49 C 36.41 29.03 35.43 26.56 34.50 24.06 C 33.28 24.04 32.05 24.01 30.83 23.98 Z" />
<path fill="#000000" opacity="1.00" d=" M 21.99 26.51 C 22.45 28.07 22.90 29.63 23.36 31.20 C 22.67 31.20 21.27 31.20 20.58 31.20 C 21.05 29.63 21.52 28.07 21.99 26.51 Z" />
</g>
</svg>
