<?xml version="1.0" encoding="UTF-8" ?>
<!DOCTYPE svg PUBLIC "-//W3C//DTD SVG 1.1//EN" "http://www.w3.org/Graphics/SVG/1.1/DTD/svg11.dtd">
<svg width="60pt" height="60pt" viewBox="0 0 60 60" version="1.1" xmlns="http://www.w3.org/2000/svg">
<g id="#ffffffff">
<path fill="#ffffff" opacity="1.00" d=" M 0.00 0.00 L 60.00 0.00 L 60.00 60.00 L 0.00 60.00 L 0.00 0.00 M 29.21 4.13 C 27.59 5.59 26.18 7.32 24.18 8.29 C 23.88 8.71 23.27 9.54 22.97 9.96 C 22.30 9.87 20.98 9.68 20.31 9.59 C 14.83 12.00 7.40 14.29 6.06 20.99 C 5.38 23.93 8.72 25.19 10.92 25.90 C 19.07 28.17 27.66 28.12 36.05 27.83 C 41.57 27.41 47.43 27.19 52.38 24.43 C 54.99 23.00 53.94 19.46 52.61 17.47 C 50.03 14.24 46.04 12.11 41.92 11.73 C 39.31 9.24 35.60 8.40 33.11 5.78 C 32.02 4.80 30.83 3.51 29.21 4.13 M 28.20 32.00 C 27.47 33.73 26.66 35.43 25.88 37.14 C 26.45 37.18 27.59 37.25 28.16 37.29 C 27.51 44.38 21.45 48.58 17.65 53.93 C 21.81 54.06 25.97 53.98 30.13 54.01 C 32.59 49.19 33.35 43.79 33.82 38.46 C 34.40 38.35 35.57 38.11 36.15 37.99 C 35.40 35.99 34.59 34.01 33.86 32.00 C 31.97 32.00 30.08 32.00 28.20 32.00 Z" />
<path fill="#ffffff" opacity="1.00" d=" M 29.17 12.09 C 31.59 11.16 33.11 14.73 30.86 15.89 C 28.41 16.87 26.86 13.24 29.17 12.09 Z" />
<path fill="#ffffff" opacity="1.00" d=" M 15.39 16.49 C 17.21 15.20 20.06 16.69 19.96 18.94 C 20.16 21.24 17.21 22.85 15.37 21.48 C 13.58 20.44 13.61 17.52 15.39 16.49 Z" />
<path fill="#ffffff" opacity="1.00" d=" M 39.13 18.10 C 41.57 17.11 43.15 20.76 40.83 21.89 C 38.41 22.85 36.89 19.27 39.13 18.10 Z" />
</g>
<g id="#000000ff">
<path fill="#000000" opacity="1.00" d=" M 29.21 4.13 C 30.83 3.51 32.02 4.80 33.11 5.78 C 35.60 8.40 39.31 9.24 41.92 11.73 C 46.04 12.11 50.03 14.24 52.61 17.47 C 53.94 19.46 54.99 23.00 52.38 24.43 C 47.43 27.19 41.57 27.41 36.05 27.83 C 27.66 28.12 19.07 28.17 10.92 25.90 C 8.72 25.19 5.38 23.93 6.06 20.99 C 7.40 14.29 14.83 12.00 20.31 9.59 C 20.98 9.68 22.30 9.87 22.97 9.96 C 23.27 9.54 23.88 8.71 24.18 8.29 C 26.18 7.32 27.59 5.59 29.21 4.13 M 29.17 12.09 C 26.86 13.24 28.41 16.87 30.86 15.89 C 33.11 14.73 31.59 11.16 29.17 12.09 M 15.39 16.49 C 13.61 17.52 13.58 20.44 15.37 21.48 C 17.21 22.85 20.16 21.24 19.96 18.94 C 20.06 16.69 17.21 15.20 15.39 16.49 M 39.13 18.10 C 36.89 19.27 38.41 22.85 40.83 21.89 C 43.15 20.76 41.57 17.11 39.13 18.10 Z" />
<path fill="#000000" opacity="1.00" d=" M 28.20 32.00 C 30.08 32.00 31.97 32.00 33.86 32.00 C 34.59 34.01 35.40 35.99 36.15 37.99 C 35.57 38.11 34.40 38.35 33.82 38.46 C 33.35 43.79 32.59 49.19 30.13 54.01 C 25.97 53.98 21.81 54.06 17.65 53.93 C 21.45 48.58 27.51 44.38 28.16 37.29 C 27.59 37.25 26.45 37.18 25.88 37.14 C 26.66 35.43 27.47 33.73 28.20 32.00 Z" />
</g>
</svg>
