<?xml version="1.0" encoding="UTF-8" ?>
<!DOCTYPE svg PUBLIC "-//W3C//DTD SVG 1.1//EN" "http://www.w3.org/Graphics/SVG/1.1/DTD/svg11.dtd">
<svg width="60pt" height="60pt" viewBox="0 0 60 60" version="1.1" xmlns="http://www.w3.org/2000/svg">
<g id="#ffffffff">
<path fill="#ffffff" opacity="1.00" d=" M 0.00 0.00 L 60.00 0.00 L 60.00 60.00 L 0.00 60.00 L 0.00 0.00 M 26.07 6.19 C 22.41 6.63 18.54 7.24 15.51 9.49 C 14.25 10.36 13.34 12.25 14.58 13.55 C 16.89 16.21 20.61 16.92 23.92 17.54 C 30.32 18.36 37.20 18.24 43.13 15.40 C 45.16 14.57 47.22 11.84 45.04 9.99 C 39.79 5.81 32.46 5.87 26.07 6.19 M 13.98 18.48 C 14.03 27.34 13.97 36.20 14.00 45.05 C 13.67 48.02 16.03 50.33 18.49 51.53 C 24.76 54.52 32.23 54.67 38.82 52.64 C 42.20 51.56 46.34 49.20 46.00 45.07 C 46.03 36.21 45.97 27.35 46.02 18.48 C 36.14 23.24 23.86 23.25 13.98 18.48 Z" />
<path fill="#ffffff" opacity="1.00" d=" M 29.06 7.36 C 29.92 6.97 32.51 7.33 31.69 8.72 C 30.67 10.33 26.32 8.50 29.06 7.36 Z" />
<path fill="#ffffff" opacity="1.00" d=" M 19.54 11.69 C 20.87 10.23 23.14 10.15 24.43 11.72 C 22.80 11.79 21.17 11.78 19.54 11.69 Z" />
<path fill="#ffffff" opacity="1.00" d=" M 35.46 11.70 C 36.76 10.25 39.18 10.09 40.36 11.78 C 38.73 11.82 37.09 11.79 35.46 11.70 Z" />
<path fill="#ffffff" opacity="1.00" d=" M 27.82 14.18 C 29.28 14.17 30.73 14.17 32.19 14.18 C 31.90 16.38 28.09 16.39 27.82 14.18 Z" />
</g>
<g id="#000000ff">
<path fill="#000000" opacity="1.00" d=" M 26.07 6.19 C 32.46 5.87 39.79 5.81 45.04 9.99 C 47.22 11.84 45.16 14.57 43.13 15.40 C 37.20 18.24 30.32 18.36 23.92 17.54 C 20.61 16.92 16.89 16.21 14.58 13.55 C 13.34 12.25 14.25 10.36 15.51 9.49 C 18.54 7.24 22.41 6.63 26.07 6.19 M 29.06 7.36 C 26.32 8.50 30.67 10.33 31.69 8.72 C 32.51 7.33 29.92 6.97 29.06 7.36 M 19.54 11.69 C 21.17 11.78 22.80 11.79 24.43 11.72 C 23.14 10.15 20.87 10.23 19.54 11.69 M 35.46 11.70 C 37.09 11.79 38.73 11.82 40.36 11.78 C 39.18 10.09 36.76 10.25 35.46 11.70 M 27.82 14.18 C 28.09 16.39 31.90 16.38 32.19 14.18 C 30.73 14.17 29.28 14.17 27.82 14.18 Z" />
<path fill="#000000" opacity="1.00" d=" M 13.98 18.48 C 23.86 23.25 36.14 23.24 46.02 18.48 C 45.97 27.35 46.03 36.21 46.00 45.07 C 46.34 49.20 42.20 51.56 38.82 52.64 C 32.23 54.67 24.76 54.52 18.49 51.53 C 16.03 50.33 13.67 48.02 14.00 45.05 C 13.97 36.20 14.03 27.34 13.98 18.48 Z" />
</g>
</svg>
