<?xml version="1.0" encoding="UTF-8" ?>
<!DOCTYPE svg PUBLIC "-//W3C//DTD SVG 1.1//EN" "http://www.w3.org/Graphics/SVG/1.1/DTD/svg11.dtd">
<svg width="60pt" height="60pt" viewBox="0 0 60 60" version="1.1" xmlns="http://www.w3.org/2000/svg">
<g id="#ffffffff">
<path fill="#ffffff" opacity="1.00" d=" M 0.00 0.00 L 60.00 0.00 L 60.00 60.00 L 0.00 60.00 L 0.00 0.00 M 24.53 6.64 C 16.67 8.44 9.94 14.47 7.35 22.11 C 4.64 29.69 6.13 38.60 11.19 44.86 C 16.48 51.66 25.59 55.19 34.08 53.63 C 43.10 52.18 50.84 45.07 53.15 36.24 C 55.43 28.11 52.95 18.91 46.91 13.01 C 41.22 7.19 32.42 4.75 24.53 6.64 Z" />
<path fill="#ffffff" opacity="1.00" d=" M 25.21 10.48 C 27.43 10.24 29.66 10.06 31.89 9.91 C 31.93 10.45 32.00 11.52 32.04 12.06 C 33.60 11.94 35.42 12.38 36.63 11.06 C 40.31 12.54 43.53 14.92 46.04 17.98 C 45.13 22.26 47.15 26.02 48.24 29.99 C 48.71 30.00 49.65 30.03 50.13 30.04 C 50.02 39.79 42.40 48.49 32.77 49.90 C 36.69 46.15 42.46 43.58 43.89 37.88 C 44.73 35.91 42.75 34.36 41.03 33.99 C 38.84 33.48 37.58 31.49 36.05 30.02 C 34.66 30.00 33.27 29.97 31.88 29.93 C 30.07 31.67 29.94 34.41 28.06 36.10 C 28.02 37.40 28.00 38.69 27.98 39.99 C 29.32 40.66 30.66 41.33 32.00 42.00 C 30.67 44.67 29.33 47.33 28.01 49.99 C 20.85 49.09 14.19 44.44 11.52 37.64 C 7.94 29.40 10.90 19.12 18.16 13.89 C 18.12 15.60 17.27 17.03 15.98 18.09 C 15.68 21.54 16.79 24.82 18.00 27.98 C 21.36 29.49 24.43 31.84 28.20 32.22 C 28.55 28.72 24.26 29.05 22.00 27.97 C 22.00 26.65 22.00 25.32 22.00 24.00 C 24.00 24.00 26.00 24.00 28.00 24.00 C 28.66 22.68 29.33 21.35 30.00 20.03 C 31.52 19.00 34.81 18.66 33.94 16.12 C 31.31 13.84 28.18 12.25 25.21 10.48 M 28.00 26.00 C 28.00 26.50 28.00 27.50 28.00 28.00 C 29.33 28.00 30.67 28.00 32.00 28.00 C 32.00 27.50 32.00 26.50 32.00 26.00 C 30.67 26.00 29.33 26.00 28.00 26.00 Z" />
</g>
<g id="#000000ff">
<path fill="#000000" opacity="1.00" d=" M 24.53 6.64 C 32.42 4.75 41.22 7.19 46.91 13.01 C 52.95 18.91 55.43 28.11 53.15 36.24 C 50.84 45.07 43.10 52.18 34.08 53.63 C 25.59 55.19 16.48 51.66 11.19 44.86 C 6.13 38.60 4.64 29.69 7.35 22.11 C 9.94 14.47 16.67 8.44 24.53 6.64 M 25.21 10.48 C 28.18 12.25 31.31 13.84 33.94 16.12 C 34.81 18.66 31.52 19.00 30.00 20.03 C 29.33 21.35 28.66 22.68 28.00 24.00 C 26.00 24.00 24.00 24.00 22.00 24.00 C 22.00 25.32 22.00 26.65 22.00 27.97 C 24.26 29.05 28.55 28.72 28.20 32.22 C 24.43 31.84 21.36 29.49 18.00 27.98 C 16.79 24.82 15.68 21.54 15.98 18.09 C 17.27 17.03 18.12 15.60 18.16 13.89 C 10.90 19.12 7.94 29.40 11.52 37.64 C 14.19 44.44 20.85 49.09 28.01 49.99 C 29.33 47.33 30.67 44.67 32.00 42.00 C 30.66 41.33 29.32 40.66 27.98 39.99 C 28.00 38.69 28.02 37.40 28.06 36.10 C 29.94 34.41 30.07 31.67 31.88 29.93 C 33.27 29.97 34.66 30.00 36.05 30.02 C 37.58 31.49 38.84 33.48 41.03 33.99 C 42.75 34.36 44.73 35.91 43.89 37.88 C 42.46 43.58 36.69 46.15 32.77 49.90 C 42.40 48.49 50.02 39.79 50.13 30.04 C 49.65 30.03 48.71 30.00 48.24 29.99 C 47.15 26.02 45.13 22.26 46.04 17.98 C 43.53 14.92 40.31 12.54 36.63 11.06 C 35.42 12.38 33.60 11.94 32.04 12.06 C 32.00 11.52 31.93 10.45 31.89 9.91 C 29.66 10.06 27.43 10.24 25.21 10.48 Z" />
<path fill="#000000" opacity="1.00" d=" M 28.00 26.00 C 29.33 26.00 30.67 26.00 32.00 26.00 C 32.00 26.50 32.00 27.50 32.00 28.00 C 30.67 28.00 29.33 28.00 28.00 28.00 C 28.00 27.50 28.00 26.50 28.00 26.00 Z" />
</g>
</svg>
