<?xml version="1.0" encoding="UTF-8" ?>
<!DOCTYPE svg PUBLIC "-//W3C//DTD SVG 1.1//EN" "http://www.w3.org/Graphics/SVG/1.1/DTD/svg11.dtd">
<svg width="60pt" height="60pt" viewBox="0 0 60 60" version="1.1" xmlns="http://www.w3.org/2000/svg">
<g id="#ffffffff">
<path fill="#ffffff" opacity="1.00" d=" M 0.00 0.00 L 60.00 0.00 L 60.00 60.00 L 0.00 60.00 L 0.00 0.00 M 25.11 10.18 C 23.76 10.96 24.14 12.71 23.84 14.00 C 18.90 14.11 13.94 13.76 9.01 14.16 C 6.71 14.61 6.03 17.06 5.77 19.06 C 21.18 21.13 36.59 23.28 51.99 25.43 C 52.00 26.78 52.00 28.13 52.00 29.48 C 36.68 27.27 21.34 25.23 6.00 23.12 C 6.06 30.12 5.89 37.13 6.06 44.13 C 5.95 46.64 8.57 48.30 10.89 48.00 C 23.60 48.01 36.31 48.00 49.03 48.00 C 51.07 48.23 53.35 47.13 53.83 45.00 C 54.25 40.82 53.86 36.61 54.03 32.42 C 55.16 31.60 56.29 30.65 56.01 29.08 C 55.90 26.50 56.89 23.06 54.08 21.59 C 54.06 18.91 54.38 14.87 50.97 14.16 C 46.05 13.76 41.10 14.12 36.17 14.00 C 35.87 12.72 36.21 11.02 34.93 10.19 C 31.67 9.84 28.37 9.85 25.11 10.18 Z" />
</g>
<g id="#000000ff">
<path fill="#000000" opacity="1.00" d=" M 25.11 10.18 C 28.37 9.85 31.67 9.84 34.93 10.19 C 36.21 11.02 35.87 12.72 36.17 14.00 C 41.10 14.12 46.05 13.76 50.97 14.16 C 54.38 14.87 54.06 18.91 54.08 21.59 C 56.89 23.06 55.90 26.50 56.01 29.08 C 56.29 30.65 55.16 31.60 54.03 32.42 C 53.86 36.61 54.25 40.82 53.83 45.00 C 53.35 47.13 51.07 48.23 49.03 48.00 C 36.31 48.00 23.60 48.01 10.89 48.00 C 8.57 48.30 5.95 46.64 6.06 44.13 C 5.89 37.13 6.06 30.12 6.00 23.12 C 21.34 25.23 36.68 27.27 52.00 29.48 C 52.00 28.13 52.00 26.78 51.99 25.43 C 36.59 23.28 21.18 21.13 5.77 19.06 C 6.03 17.06 6.71 14.61 9.01 14.16 C 13.94 13.76 18.90 14.11 23.84 14.00 C 24.14 12.71 23.76 10.96 25.11 10.18 Z" />
</g>
</svg>
