<?xml version="1.0" encoding="UTF-8" ?>
<!DOCTYPE svg PUBLIC "-//W3C//DTD SVG 1.1//EN" "http://www.w3.org/Graphics/SVG/1.1/DTD/svg11.dtd">
<svg width="60pt" height="60pt" viewBox="0 0 60 60" version="1.1" xmlns="http://www.w3.org/2000/svg">
<g id="#ffffffff">
<path fill="#ffffff" opacity="1.00" d=" M 0.00 0.00 L 60.00 0.00 L 60.00 60.00 L 0.00 60.00 L 0.00 0.00 M 25.01 9.94 C 23.14 13.15 24.07 17.20 26.41 19.89 C 25.59 19.97 23.93 20.13 23.11 20.21 C 21.72 20.80 22.23 22.73 21.81 23.90 C 20.51 24.50 19.21 25.09 17.91 25.68 C 17.81 25.13 17.61 24.02 17.51 23.46 C 16.80 24.56 16.10 25.67 15.40 26.77 C 14.01 26.79 12.61 26.80 11.22 26.82 C 12.21 27.78 13.22 28.74 14.22 29.70 C 14.33 31.09 14.46 32.47 14.58 33.86 C 15.40 32.82 16.21 31.78 17.03 30.75 C 18.35 30.71 19.66 30.68 20.97 30.65 C 20.67 30.29 20.06 29.57 19.76 29.22 C 20.32 28.96 21.44 28.46 22.00 28.21 C 22.00 30.44 22.00 32.68 22.00 34.92 C 18.64 35.42 15.45 36.62 12.74 38.69 C 12.05 38.58 10.67 38.37 9.98 38.27 C 10.50 39.20 11.54 41.07 12.06 42.00 C 11.54 42.94 10.50 44.81 9.98 45.74 C 10.66 45.61 12.03 45.33 12.71 45.19 C 15.40 47.15 18.34 48.76 21.64 49.36 C 22.13 50.62 22.28 52.62 24.07 52.58 C 28.29 53.11 32.53 53.87 36.79 53.89 C 38.43 52.94 37.83 50.83 38.16 49.28 C 39.39 49.13 40.61 48.97 41.84 48.81 C 41.89 49.46 41.97 50.74 42.01 51.39 C 42.80 50.58 43.59 49.77 44.38 48.96 C 45.29 49.22 47.09 49.74 47.99 50.00 C 47.32 48.65 46.66 47.30 45.99 45.96 C 46.20 44.97 46.62 43.00 46.83 42.01 C 45.65 42.75 44.48 43.48 43.30 44.22 C 42.59 43.77 41.17 42.87 40.46 42.42 C 40.63 43.04 40.97 44.26 41.14 44.87 C 40.35 44.98 38.78 45.20 38.00 45.30 C 38.00 42.55 38.00 39.79 38.01 37.03 C 40.70 36.35 43.12 35.00 45.32 33.33 C 45.99 33.43 47.34 33.63 48.02 33.73 C 47.50 32.80 46.46 30.93 45.94 30.00 C 46.46 29.06 47.50 27.19 48.02 26.25 C 44.68 28.03 43.14 23.73 40.42 22.60 C 39.61 19.13 35.94 20.13 33.27 19.83 C 35.57 16.31 40.13 13.78 39.97 9.07 C 40.16 5.81 37.60 3.50 35.05 1.98 C 31.67 4.57 27.26 6.11 25.01 9.94 Z" />
<path fill="#ffffff" opacity="1.00" d=" M 28.25 12.45 C 29.60 9.51 32.93 8.31 35.48 6.67 C 37.54 11.61 31.86 14.18 29.66 17.72 C 28.73 16.15 27.44 14.37 28.25 12.45 Z" />
<path fill="#ffffff" opacity="1.00" d=" M 26.01 24.00 C 29.05 24.00 32.10 23.99 35.15 24.01 C 34.69 27.51 34.42 31.16 33.04 34.43 L 32.83 31.79 C 31.86 32.47 30.88 33.15 29.91 33.83 C 28.98 33.30 28.05 32.76 27.13 32.23 C 27.10 32.95 27.02 34.41 26.99 35.13 C 25.03 31.82 26.38 27.67 26.01 24.00 Z" />
<path fill="#ffffff" opacity="1.00" d=" M 39.36 26.29 C 40.34 27.62 42.45 28.82 41.89 30.75 C 40.81 31.93 39.18 32.33 37.80 33.04 C 38.08 30.74 38.66 28.49 39.36 26.29 Z" />
<path fill="#ffffff" opacity="1.00" d=" M 32.80 39.16 C 33.06 38.57 33.58 37.38 33.84 36.79 C 33.99 41.11 34.03 45.44 34.00 49.76 C 31.34 49.45 28.67 49.14 26.01 48.84 C 26.27 45.05 25.21 41.00 26.91 37.46 C 27.07 37.97 27.39 39.00 27.55 39.52 C 29.23 38.52 31.02 38.27 32.80 39.16 Z" />
<path fill="#ffffff" opacity="1.00" d=" M 16.16 42.69 C 15.55 39.68 20.02 39.82 21.95 38.91 C 22.00 41.09 22.00 43.26 21.98 45.44 C 19.96 44.71 17.79 44.16 16.16 42.69 Z" />
</g>
<g id="#000000ff">
<path fill="#000000" opacity="1.00" d=" M 25.01 9.94 C 27.26 6.11 31.67 4.57 35.05 1.98 C 37.60 3.50 40.16 5.81 39.97 9.07 C 40.13 13.78 35.57 16.31 33.27 19.83 C 35.94 20.13 39.61 19.13 40.42 22.60 C 43.14 23.73 44.68 28.03 48.02 26.25 C 47.50 27.19 46.46 29.06 45.94 30.00 C 46.46 30.93 47.50 32.80 48.02 33.73 C 47.34 33.63 45.99 33.43 45.32 33.33 C 43.12 35.00 40.70 36.35 38.01 37.03 C 38.00 39.79 38.00 42.55 38.00 45.30 C 38.78 45.20 40.35 44.98 41.14 44.87 C 40.97 44.26 40.63 43.04 40.46 42.42 C 41.17 42.87 42.59 43.77 43.30 44.22 C 44.48 43.48 45.65 42.75 46.83 42.01 C 46.62 43.00 46.20 44.97 45.99 45.96 C 46.66 47.30 47.32 48.65 47.99 50.00 C 47.09 49.74 45.29 49.22 44.38 48.96 C 43.59 49.77 42.80 50.58 42.01 51.39 C 41.97 50.74 41.89 49.46 41.84 48.81 C 40.61 48.97 39.39 49.13 38.16 49.28 C 37.83 50.83 38.43 52.94 36.79 53.89 C 32.53 53.87 28.29 53.11 24.07 52.58 C 22.28 52.62 22.13 50.62 21.64 49.36 C 18.34 48.76 15.40 47.15 12.71 45.19 C 12.03 45.33 10.66 45.61 9.98 45.74 C 10.50 44.81 11.54 42.94 12.06 42.00 C 11.54 41.07 10.50 39.20 9.98 38.27 C 10.67 38.37 12.05 38.58 12.74 38.69 C 15.45 36.62 18.64 35.42 22.00 34.92 C 22.00 32.68 22.00 30.44 22.00 28.21 C 21.44 28.46 20.32 28.96 19.76 29.22 C 20.06 29.57 20.67 30.29 20.97 30.65 C 19.66 30.68 18.35 30.71 17.03 30.75 C 16.21 31.78 15.40 32.82 14.58 33.86 C 14.46 32.47 14.33 31.09 14.22 29.70 C 13.22 28.74 12.21 27.78 11.22 26.82 C 12.61 26.80 14.01 26.79 15.40 26.77 C 16.10 25.67 16.80 24.56 17.51 23.46 C 17.61 24.02 17.81 25.13 17.91 25.68 C 19.21 25.09 20.51 24.50 21.81 23.90 C 22.23 22.73 21.72 20.80 23.11 20.21 C 23.93 20.13 25.59 19.97 26.41 19.89 C 24.07 17.20 23.14 13.15 25.01 9.94 M 28.25 12.45 C 27.44 14.37 28.73 16.15 29.66 17.72 C 31.86 14.18 37.54 11.61 35.48 6.67 C 32.93 8.31 29.60 9.51 28.25 12.45 M 26.01 24.00 C 26.38 27.67 25.03 31.82 26.99 35.13 C 27.02 34.41 27.10 32.95 27.13 32.23 C 28.05 32.76 28.98 33.30 29.91 33.83 C 30.88 33.15 31.86 32.47 32.83 31.79 L 33.04 34.43 C 34.42 31.16 34.69 27.51 35.15 24.01 C 32.10 23.99 29.05 24.00 26.01 24.00 M 39.36 26.29 C 38.66 28.49 38.08 30.74 37.80 33.04 C 39.18 32.33 40.81 31.93 41.89 30.75 C 42.45 28.82 40.34 27.62 39.36 26.29 M 32.80 39.16 C 31.02 38.27 29.23 38.52 27.55 39.52 C 27.39 39.00 27.07 37.97 26.91 37.46 C 25.21 41.00 26.27 45.05 26.01 48.84 C 28.67 49.14 31.34 49.45 34.00 49.76 C 34.03 45.44 33.99 41.11 33.84 36.79 C 33.58 37.38 33.06 38.57 32.80 39.16 M 16.16 42.69 C 17.79 44.16 19.96 44.71 21.98 45.44 C 22.00 43.26 22.00 41.09 21.95 38.91 C 20.02 39.82 15.55 39.68 16.16 42.69 Z" />
</g>
</svg>
