<?xml version="1.0" encoding="UTF-8" ?>
<!DOCTYPE svg PUBLIC "-//W3C//DTD SVG 1.1//EN" "http://www.w3.org/Graphics/SVG/1.1/DTD/svg11.dtd">
<svg width="64pt" height="64pt" viewBox="0 0 64 64" version="1.1" xmlns="http://www.w3.org/2000/svg">
<g id="#ffffffff">
<path fill="#ffffff" opacity="1.00" d=" M 0.00 0.00 L 64.00 0.00 L 64.00 64.00 L 0.00 64.00 L 0.00 0.00 M 20.21 13.94 C 19.23 18.75 21.94 23.23 24.84 26.81 C 20.23 30.50 15.42 34.87 14.32 40.97 C 12.97 46.97 16.16 53.47 21.55 56.31 C 28.64 60.21 37.83 56.96 42.31 50.59 C 43.61 52.40 44.93 54.20 46.26 55.99 C 44.73 56.00 43.20 56.00 41.67 56.01 C 41.68 58.11 41.68 60.22 41.68 62.33 C 46.78 62.33 51.88 62.33 56.98 62.33 C 56.98 60.22 56.98 58.11 56.99 56.00 C 55.07 56.00 53.15 56.00 51.23 56.00 C 48.98 52.94 46.72 49.89 44.49 46.81 C 46.56 42.15 47.59 37.13 48.07 32.08 C 46.73 32.03 45.39 31.98 44.05 31.93 C 43.70 35.72 42.92 39.44 41.72 43.05 C 37.91 37.91 34.13 32.75 30.35 27.59 C 33.38 24.97 36.79 22.18 37.71 18.08 C 39.01 12.90 35.50 6.64 29.95 6.08 C 25.21 5.40 20.92 9.41 20.21 13.94 Z" />
<path fill="#ffffff" opacity="1.00" d=" M 25.11 12.12 C 27.09 8.76 32.53 9.70 33.53 13.38 C 35.48 18.06 31.17 21.75 27.88 24.28 C 25.27 20.97 22.42 16.21 25.11 12.12 Z" />
<path fill="#ffffff" opacity="1.00" d=" M 18.19 41.95 C 19.03 36.75 23.34 33.20 27.18 30.05 C 31.39 35.76 35.57 41.48 39.79 47.18 C 37.38 50.81 33.63 53.82 29.10 53.93 C 22.75 54.69 16.84 48.21 18.19 41.95 Z" />
</g>
<g id="#000000ff">
<path fill="#000000" opacity="1.00" d=" M 20.21 13.94 C 20.92 9.41 25.21 5.40 29.95 6.08 C 35.50 6.64 39.01 12.90 37.71 18.08 C 36.79 22.18 33.38 24.97 30.35 27.59 C 34.13 32.75 37.91 37.91 41.72 43.05 C 42.92 39.44 43.70 35.72 44.05 31.93 C 45.39 31.98 46.73 32.03 48.07 32.08 C 47.59 37.13 46.56 42.15 44.49 46.81 C 46.72 49.89 48.98 52.94 51.23 56.00 C 53.15 56.00 55.07 56.00 56.99 56.00 C 56.98 58.11 56.98 60.22 56.98 62.33 C 51.88 62.33 46.78 62.33 41.68 62.33 C 41.68 60.22 41.68 58.11 41.67 56.01 C 43.20 56.00 44.73 56.00 46.26 55.99 C 44.93 54.20 43.61 52.40 42.31 50.59 C 37.83 56.96 28.64 60.21 21.55 56.31 C 16.16 53.47 12.97 46.97 14.32 40.97 C 15.42 34.87 20.23 30.50 24.84 26.81 C 21.94 23.23 19.23 18.75 20.21 13.94 M 25.11 12.12 C 22.42 16.21 25.27 20.97 27.88 24.28 C 31.17 21.75 35.48 18.06 33.53 13.38 C 32.53 9.70 27.09 8.76 25.11 12.12 M 18.19 41.95 C 16.84 48.21 22.75 54.69 29.10 53.93 C 33.63 53.82 37.38 50.81 39.79 47.18 C 35.57 41.48 31.39 35.76 27.18 30.05 C 23.34 33.20 19.03 36.75 18.19 41.95 Z" />
</g>
</svg>
