<?xml version="1.0" encoding="UTF-8" ?>
<!DOCTYPE svg PUBLIC "-//W3C//DTD SVG 1.1//EN" "http://www.w3.org/Graphics/SVG/1.1/DTD/svg11.dtd">
<svg width="60pt" height="60pt" viewBox="0 0 60 60" version="1.1" xmlns="http://www.w3.org/2000/svg">
<g id="#ffffffff">
<path fill="#ffffff" opacity="1.00" d=" M 0.00 0.00 L 60.00 0.00 L 60.00 60.00 L 0.00 60.00 L 0.00 0.00 M 6.29 10.41 C 4.57 11.19 3.85 13.12 4.00 14.90 C 4.04 25.33 3.91 35.76 4.06 46.19 C 3.99 48.71 6.63 50.30 8.94 50.00 C 23.31 49.97 37.68 50.08 52.05 49.95 C 54.63 50.07 56.32 47.46 56.00 45.08 C 55.97 34.67 56.09 24.24 55.94 13.82 C 55.95 11.36 53.46 9.66 51.13 10.00 C 37.77 9.97 24.41 10.04 11.05 9.98 C 9.47 10.06 7.79 9.80 6.29 10.41 Z" />
<path fill="#ffffff" opacity="1.00" d=" M 10.00 14.00 C 23.33 14.00 36.67 14.00 50.00 14.00 C 50.00 17.85 49.98 21.71 50.02 25.56 C 52.90 27.02 51.85 30.48 51.92 33.08 C 51.44 33.36 50.47 33.91 49.99 34.19 C 50.01 38.13 50.00 42.06 50.00 46.00 C 36.67 46.00 23.33 46.00 10.00 46.00 C 10.00 35.33 10.00 24.67 10.00 14.00 M 25.44 23.74 C 24.82 25.12 24.25 26.53 23.74 27.96 C 27.92 28.02 32.09 28.02 36.27 27.96 C 35.74 26.50 35.13 25.07 34.46 23.67 C 35.00 22.70 35.50 21.70 35.93 20.67 C 34.44 20.29 33.50 21.30 32.64 22.34 C 30.90 22.14 29.16 22.14 27.42 22.33 C 26.67 21.63 25.90 20.95 25.11 20.30 C 23.48 21.15 25.28 22.62 25.44 23.74 M 22.08 30.09 C 22.02 31.87 22.00 33.64 21.99 35.41 C 23.57 36.03 24.83 37.17 26.01 38.35 C 26.02 39.50 26.02 40.65 26.03 41.80 C 26.52 41.79 27.49 41.78 27.98 41.77 C 27.99 40.51 28.00 39.26 28.01 38.00 C 29.34 38.00 30.66 38.00 31.99 38.00 C 32.00 39.26 32.01 40.52 32.02 41.79 C 32.51 41.79 33.49 41.79 33.98 41.79 C 33.98 40.64 33.98 39.49 33.99 38.35 C 35.17 37.17 36.42 36.02 38.00 35.41 C 38.00 33.64 37.99 31.88 37.93 30.11 C 32.65 29.93 27.36 29.95 22.08 30.09 Z" />
</g>
<g id="#000000ff">
<path fill="#000000" opacity="1.00" d=" M 6.29 10.41 C 7.79 9.80 9.47 10.06 11.05 9.98 C 24.41 10.04 37.77 9.97 51.13 10.00 C 53.46 9.66 55.95 11.36 55.94 13.82 C 56.09 24.24 55.97 34.67 56.00 45.08 C 56.32 47.46 54.63 50.07 52.05 49.95 C 37.68 50.08 23.31 49.97 8.94 50.00 C 6.63 50.30 3.99 48.71 4.06 46.19 C 3.91 35.76 4.04 25.33 4.00 14.90 C 3.85 13.12 4.57 11.19 6.29 10.41 M 10.00 14.00 C 10.00 24.67 10.00 35.33 10.00 46.00 C 23.33 46.00 36.67 46.00 50.00 46.00 C 50.00 42.06 50.01 38.13 49.99 34.19 C 50.47 33.91 51.44 33.36 51.92 33.08 C 51.85 30.48 52.90 27.02 50.02 25.56 C 49.98 21.71 50.00 17.85 50.00 14.00 C 36.67 14.00 23.33 14.00 10.00 14.00 Z" />
<path fill="#000000" opacity="1.00" d=" M 25.44 23.74 C 25.28 22.62 23.48 21.15 25.11 20.30 C 25.90 20.95 26.67 21.63 27.42 22.33 C 29.16 22.14 30.90 22.14 32.64 22.34 C 33.50 21.30 34.44 20.29 35.93 20.67 C 35.50 21.70 35.00 22.70 34.46 23.67 C 35.13 25.07 35.74 26.50 36.27 27.96 C 32.09 28.02 27.92 28.02 23.74 27.96 C 24.25 26.53 24.82 25.12 25.44 23.74 Z" />
<path fill="#000000" opacity="1.00" d=" M 22.08 30.09 C 27.36 29.95 32.65 29.93 37.93 30.11 C 37.99 31.88 38.00 33.64 38.00 35.41 C 36.42 36.02 35.17 37.17 33.99 38.35 C 33.98 39.49 33.98 40.64 33.98 41.79 C 33.49 41.79 32.51 41.79 32.02 41.79 C 32.01 40.52 32.00 39.26 31.99 38.00 C 30.66 38.00 29.34 38.00 28.01 38.00 C 28.00 39.26 27.99 40.51 27.98 41.77 C 27.49 41.78 26.52 41.79 26.03 41.80 C 26.02 40.65 26.02 39.50 26.01 38.35 C 24.83 37.17 23.57 36.03 21.99 35.41 C 22.00 33.64 22.02 31.87 22.08 30.09 Z" />
</g>
</svg>
