<?xml version="1.0" encoding="UTF-8" ?>
<!DOCTYPE svg PUBLIC "-//W3C//DTD SVG 1.1//EN" "http://www.w3.org/Graphics/SVG/1.1/DTD/svg11.dtd">
<svg width="60pt" height="60pt" viewBox="0 0 60 60" version="1.1" xmlns="http://www.w3.org/2000/svg">
<g id="#ffffffff">
<path fill="#ffffff" opacity="1.00" d=" M 0.00 0.00 L 60.00 0.00 L 60.00 32.92 C 58.11 28.38 52.50 30.46 48.75 29.97 C 45.54 27.10 41.06 28.16 37.14 28.00 C 35.27 22.56 31.24 18.02 26.01 15.58 C 25.81 11.83 26.44 7.98 25.64 4.29 C 24.39 1.12 19.40 1.28 18.28 4.46 C 17.68 7.58 18.11 10.80 18.00 13.96 C 13.22 14.20 8.45 15.75 4.82 18.95 C 4.85 19.59 4.92 20.88 4.95 21.52 C 2.18 24.65 0.35 28.56 0.00 32.75 L 0.00 0.00 Z" />
<path fill="#ffffff" opacity="1.00" d=" M 7.90 24.27 C 10.86 25.79 13.03 22.15 16.00 22.19 C 23.81 20.55 31.54 28.32 29.75 36.12 C 29.77 39.04 26.22 41.19 27.73 44.09 C 22.47 49.24 13.19 49.24 8.10 43.85 C 2.76 38.75 2.77 29.51 7.90 24.27 M 15.42 30.30 C 12.66 32.14 13.08 36.82 16.14 38.11 C 19.28 39.83 23.39 36.68 22.61 33.21 C 22.19 30.00 17.97 28.28 15.42 30.30 Z" />
<path fill="#ffffff" opacity="1.00" d=" M 0.00 35.02 C 0.40 42.60 6.02 49.54 13.40 51.39 C 19.38 53.09 25.92 51.17 30.47 47.05 C 31.11 47.08 32.40 47.14 33.05 47.17 C 34.85 45.04 36.15 42.58 37.18 40.00 C 41.08 39.85 45.54 40.88 48.74 38.04 C 52.50 37.55 57.91 39.55 60.00 35.22 L 60.00 60.00 L 0.00 60.00 L 0.00 35.02 Z" />
</g>
<g id="#000000ff">
<path fill="#000000" opacity="1.00" d=" M 18.28 4.46 C 19.40 1.28 24.39 1.12 25.64 4.29 C 26.44 7.98 25.81 11.83 26.01 15.58 C 31.24 18.02 35.27 22.56 37.14 28.00 C 41.06 28.16 45.54 27.10 48.75 29.97 C 52.50 30.46 58.11 28.38 60.00 32.92 L 60.00 35.22 C 57.91 39.55 52.50 37.55 48.74 38.04 C 45.54 40.88 41.08 39.85 37.18 40.00 C 36.15 42.58 34.85 45.04 33.05 47.17 C 32.40 47.14 31.11 47.08 30.47 47.05 C 25.92 51.17 19.38 53.09 13.40 51.39 C 6.02 49.54 0.40 42.60 0.00 35.02 L 0.00 32.75 C 0.35 28.56 2.18 24.65 4.95 21.52 C 4.92 20.88 4.85 19.59 4.82 18.95 C 8.45 15.75 13.22 14.20 18.00 13.96 C 18.11 10.80 17.68 7.58 18.28 4.46 M 7.90 24.27 C 2.77 29.51 2.76 38.75 8.10 43.85 C 13.19 49.24 22.47 49.24 27.73 44.09 C 26.22 41.19 29.77 39.04 29.75 36.12 C 31.54 28.32 23.81 20.55 16.00 22.19 C 13.03 22.15 10.86 25.79 7.90 24.27 Z" />
<path fill="#000000" opacity="1.00" d=" M 15.42 30.30 C 17.97 28.28 22.19 30.00 22.61 33.21 C 23.39 36.68 19.28 39.83 16.14 38.11 C 13.08 36.82 12.66 32.14 15.42 30.30 Z" />
</g>
</svg>
