<?xml version="1.0" encoding="UTF-8" ?>
<!DOCTYPE svg PUBLIC "-//W3C//DTD SVG 1.1//EN" "http://www.w3.org/Graphics/SVG/1.1/DTD/svg11.dtd">
<svg width="64pt" height="64pt" viewBox="0 0 64 64" version="1.1" xmlns="http://www.w3.org/2000/svg">
<g id="#ffffffff">
<path fill="#ffffff" opacity="1.00" d=" M 0.00 0.00 L 64.00 0.00 L 64.00 64.00 L 0.00 64.00 L 0.00 0.00 M 12.00 8.01 C 12.00 21.33 12.00 34.66 12.01 47.98 C 14.67 47.99 17.32 48.01 19.98 48.02 C 19.99 50.67 20.00 53.33 20.02 55.99 C 30.68 56.01 41.34 56.01 52.00 55.99 C 52.00 42.67 52.00 29.34 51.99 16.02 C 49.33 16.00 46.68 15.99 44.02 15.98 C 44.01 13.32 43.99 10.67 43.98 8.01 C 33.32 7.99 22.66 7.99 12.00 8.01 Z" />
<path fill="#ffffff" opacity="1.00" d=" M 16.00 12.00 C 24.00 12.00 32.00 12.00 40.00 12.00 C 40.01 22.67 40.01 33.33 40.00 44.00 C 32.00 44.00 24.00 44.00 16.00 44.00 C 15.99 33.33 15.99 22.67 16.00 12.00 M 26.00 16.00 C 25.99 21.33 25.99 26.67 26.00 32.00 C 27.33 32.00 28.67 32.00 30.00 32.00 C 30.01 26.67 30.01 21.33 30.00 16.00 C 28.67 16.00 27.33 16.00 26.00 16.00 M 26.00 36.00 C 26.00 37.33 26.00 38.67 26.00 40.00 C 27.33 40.00 28.67 40.00 30.00 40.00 C 30.00 38.67 30.00 37.33 30.00 36.00 C 28.67 36.00 27.33 36.00 26.00 36.00 Z" />
<path fill="#ffffff" opacity="1.00" d=" M 44.00 20.00 C 45.33 20.00 46.66 20.00 48.00 20.00 C 48.01 30.67 48.01 41.33 48.00 52.00 C 40.00 52.00 32.00 52.01 24.00 52.00 C 24.00 50.67 24.00 49.34 24.00 48.00 C 30.66 48.00 37.33 48.00 44.00 47.99 C 44.00 38.66 44.00 29.33 44.00 20.00 Z" />
</g>
<g id="#000000ff">
<path fill="#000000" opacity="1.00" d=" M 12.00 8.01 C 22.66 7.99 33.32 7.99 43.98 8.01 C 43.99 10.67 44.01 13.32 44.02 15.98 C 46.68 15.99 49.33 16.00 51.99 16.02 C 52.00 29.34 52.00 42.67 52.00 55.99 C 41.34 56.01 30.68 56.01 20.02 55.99 C 20.00 53.33 19.99 50.67 19.98 48.02 C 17.32 48.01 14.67 47.99 12.01 47.98 C 12.00 34.66 12.00 21.33 12.00 8.01 M 16.00 12.00 C 15.99 22.67 15.99 33.33 16.00 44.00 C 24.00 44.00 32.00 44.00 40.00 44.00 C 40.01 33.33 40.01 22.67 40.00 12.00 C 32.00 12.00 24.00 12.00 16.00 12.00 M 44.00 20.00 C 44.00 29.33 44.00 38.66 44.00 47.99 C 37.33 48.00 30.66 48.00 24.00 48.00 C 24.00 49.34 24.00 50.67 24.00 52.00 C 32.00 52.01 40.00 52.00 48.00 52.00 C 48.01 41.33 48.01 30.67 48.00 20.00 C 46.66 20.00 45.33 20.00 44.00 20.00 Z" />
<path fill="#000000" opacity="1.00" d=" M 26.00 16.00 C 27.33 16.00 28.67 16.00 30.00 16.00 C 30.01 21.33 30.01 26.67 30.00 32.00 C 28.67 32.00 27.33 32.00 26.00 32.00 C 25.99 26.67 25.99 21.33 26.00 16.00 Z" />
<path fill="#000000" opacity="1.00" d=" M 26.00 36.00 C 27.33 36.00 28.67 36.00 30.00 36.00 C 30.00 37.33 30.00 38.67 30.00 40.00 C 28.67 40.00 27.33 40.00 26.00 40.00 C 26.00 38.67 26.00 37.33 26.00 36.00 Z" />
</g>
</svg>
