<?xml version="1.0" encoding="UTF-8" ?>
<!DOCTYPE svg PUBLIC "-//W3C//DTD SVG 1.1//EN" "http://www.w3.org/Graphics/SVG/1.1/DTD/svg11.dtd">
<svg width="64pt" height="64pt" viewBox="0 0 64 64" version="1.1" xmlns="http://www.w3.org/2000/svg">
<g id="#ffffffff">
<path fill="#ffffff" opacity="1.00" d=" M 0.00 0.00 L 64.00 0.00 L 64.00 64.00 L 0.00 64.00 L 0.00 0.00 M 12.00 6.00 C 12.00 10.67 12.00 15.33 12.00 20.00 C 13.33 20.00 14.67 20.00 16.00 20.00 C 15.99 16.67 16.01 13.33 16.00 10.00 C 26.67 10.00 37.33 10.00 48.00 10.00 C 47.99 13.33 48.01 16.67 48.00 20.00 C 49.33 20.00 50.67 20.00 52.00 20.00 C 52.00 15.33 52.00 10.67 52.00 6.00 C 38.67 6.00 25.33 6.00 12.00 6.00 M 18.43 24.01 C 16.97 29.36 14.48 34.45 13.84 40.00 C 15.22 40.00 16.60 40.00 17.98 40.00 C 17.99 39.50 18.01 38.50 18.02 38.00 C 19.34 38.00 20.66 38.00 21.98 38.00 C 21.99 38.50 22.01 39.50 22.02 40.00 C 23.40 40.00 24.78 40.00 26.16 40.00 C 25.52 34.45 23.02 29.36 21.57 24.01 C 20.52 24.01 19.48 24.01 18.43 24.01 M 28.00 23.96 C 28.00 29.31 28.00 34.65 28.00 40.00 C 29.33 40.00 30.66 40.00 32.00 40.00 C 32.00 38.74 32.00 37.49 32.00 36.23 C 36.10 35.80 39.48 31.37 37.39 27.41 C 35.80 23.72 31.37 23.85 28.00 23.96 M 40.00 24.00 C 40.00 29.33 40.00 34.67 40.00 40.00 C 41.31 40.00 42.63 40.00 43.94 40.00 C 44.00 38.45 44.09 36.91 44.15 35.36 C 44.79 36.89 45.41 38.44 46.01 40.00 C 47.34 40.00 48.67 40.00 50.00 40.00 C 48.80 37.04 47.63 34.08 46.44 31.12 C 47.63 28.75 48.81 26.37 50.00 24.00 C 49.00 24.00 46.99 24.00 45.99 24.00 C 45.34 25.33 44.69 26.67 44.02 28.00 C 44.01 26.66 44.00 25.33 43.99 24.00 C 42.66 24.00 41.33 24.00 40.00 24.00 M 12.00 44.00 C 12.00 48.67 12.00 53.33 12.00 58.00 C 25.33 58.00 38.67 58.00 52.00 58.00 C 52.00 53.33 52.00 48.67 52.00 44.00 C 50.67 44.00 49.33 44.00 48.00 44.00 C 48.01 47.33 47.99 50.67 48.00 54.00 C 37.33 54.00 26.67 54.00 16.00 54.00 C 16.01 50.67 15.99 47.33 16.00 44.00 C 14.67 44.00 13.33 44.00 12.00 44.00 Z" />
<path fill="#ffffff" opacity="1.00" d=" M 32.26 28.26 C 34.19 27.56 34.54 31.58 32.71 31.94 C 31.42 31.35 31.72 29.30 32.26 28.26 Z" />
</g>
<g id="#000000ff">
<path fill="#000000" opacity="1.00" d=" M 12.00 6.00 C 25.33 6.00 38.67 6.00 52.00 6.00 C 52.00 10.67 52.00 15.33 52.00 20.00 C 50.67 20.00 49.33 20.00 48.00 20.00 C 48.01 16.67 47.99 13.33 48.00 10.00 C 37.33 10.00 26.67 10.00 16.00 10.00 C 16.01 13.33 15.99 16.67 16.00 20.00 C 14.67 20.00 13.33 20.00 12.00 20.00 C 12.00 15.33 12.00 10.67 12.00 6.00 Z" />
<path fill="#000000" opacity="1.00" d=" M 18.43 24.01 C 19.48 24.01 20.52 24.01 21.57 24.01 C 23.02 29.36 25.52 34.45 26.16 40.00 C 24.78 40.00 23.40 40.00 22.02 40.00 C 22.01 39.50 21.99 38.50 21.98 38.00 C 20.66 38.00 19.34 38.00 18.02 38.00 C 18.01 38.50 17.99 39.50 17.98 40.00 C 16.60 40.00 15.22 40.00 13.84 40.00 C 14.48 34.45 16.97 29.36 18.43 24.01 Z" />
<path fill="#000000" opacity="1.00" d=" M 28.00 23.96 C 31.37 23.85 35.80 23.72 37.39 27.41 C 39.48 31.37 36.10 35.80 32.00 36.23 C 32.00 37.49 32.00 38.74 32.00 40.00 C 30.66 40.00 29.33 40.00 28.00 40.00 C 28.00 34.65 28.00 29.31 28.00 23.96 M 32.26 28.26 C 31.72 29.30 31.42 31.35 32.71 31.94 C 34.54 31.58 34.19 27.56 32.26 28.26 Z" />
<path fill="#000000" opacity="1.00" d=" M 40.00 24.00 C 41.33 24.00 42.66 24.00 43.99 24.00 C 44.00 25.33 44.01 26.66 44.02 28.00 C 44.69 26.67 45.34 25.33 45.99 24.00 C 46.99 24.00 49.00 24.00 50.00 24.00 C 48.81 26.37 47.63 28.75 46.44 31.12 C 47.63 34.08 48.80 37.04 50.00 40.00 C 48.67 40.00 47.34 40.00 46.01 40.00 C 45.41 38.44 44.79 36.89 44.15 35.36 C 44.09 36.91 44.00 38.45 43.94 40.00 C 42.63 40.00 41.31 40.00 40.00 40.00 C 40.00 34.67 40.00 29.33 40.00 24.00 Z" />
<path fill="#000000" opacity="1.00" d=" M 12.00 44.00 C 13.33 44.00 14.67 44.00 16.00 44.00 C 15.99 47.33 16.01 50.67 16.00 54.00 C 26.67 54.00 37.33 54.00 48.00 54.00 C 47.99 50.67 48.01 47.33 48.00 44.00 C 49.33 44.00 50.67 44.00 52.00 44.00 C 52.00 48.67 52.00 53.33 52.00 58.00 C 38.67 58.00 25.33 58.00 12.00 58.00 C 12.00 53.33 12.00 48.67 12.00 44.00 Z" />
</g>
</svg>
