<?xml version="1.0" encoding="UTF-8" ?>
<!DOCTYPE svg PUBLIC "-//W3C//DTD SVG 1.1//EN" "http://www.w3.org/Graphics/SVG/1.1/DTD/svg11.dtd">
<svg width="60pt" height="60pt" viewBox="0 0 60 60" version="1.1" xmlns="http://www.w3.org/2000/svg">
<g id="#ffffffff">
<path fill="#ffffff" opacity="1.00" d=" M 0.00 0.00 L 60.00 0.00 L 60.00 60.00 L 0.00 60.00 L 0.00 0.00 M 24.42 6.66 C 17.08 8.39 10.71 13.79 7.85 20.78 C 4.61 28.39 5.72 37.65 10.71 44.26 C 15.75 51.18 24.67 55.00 33.16 53.77 C 42.28 52.69 50.32 45.84 52.93 37.05 C 55.65 28.53 53.03 18.64 46.48 12.56 C 40.75 7.03 32.15 4.78 24.42 6.66 Z" />
<path fill="#ffffff" opacity="1.00" d=" M 26.18 14.07 C 28.19 13.47 28.94 15.63 30.00 16.84 C 30.98 15.99 31.41 13.94 32.96 14.06 C 34.27 13.70 35.59 15.72 34.74 16.78 C 31.85 21.98 28.43 26.89 25.36 32.00 C 27.58 32.00 29.79 32.02 32.01 31.95 C 32.84 33.27 33.68 34.58 34.41 35.96 C 28.92 35.97 23.43 36.12 17.95 35.92 C 16.64 36.11 15.52 34.38 16.17 33.25 C 16.92 31.45 19.20 32.22 20.70 31.90 C 23.03 28.22 25.31 24.51 27.63 20.83 C 26.67 18.82 23.44 16.01 26.18 14.07 Z" />
<path fill="#ffffff" opacity="1.00" d=" M 31.14 26.25 C 32.04 25.23 32.95 24.22 33.86 23.22 C 35.68 26.11 37.48 29.00 39.30 31.89 C 40.85 32.17 42.91 31.56 43.88 33.15 C 44.41 34.66 43.11 35.54 42.13 36.39 C 42.82 37.56 43.56 38.71 44.07 39.96 C 43.99 42.09 41.04 42.77 40.20 40.78 C 37.05 36.02 34.09 31.13 31.14 26.25 Z" />
<path fill="#ffffff" opacity="1.00" d=" M 17.12 38.00 C 18.35 38.02 19.57 38.20 20.75 38.56 C 20.79 40.12 19.52 41.78 17.96 42.02 C 15.82 42.02 15.34 38.91 17.12 38.00 Z" />
</g>
<g id="#000000ff">
<path fill="#000000" opacity="1.00" d=" M 24.42 6.66 C 32.15 4.78 40.75 7.03 46.48 12.56 C 53.03 18.64 55.65 28.53 52.93 37.05 C 50.32 45.84 42.28 52.69 33.16 53.77 C 24.67 55.00 15.75 51.18 10.71 44.26 C 5.72 37.65 4.61 28.39 7.85 20.78 C 10.71 13.79 17.08 8.39 24.42 6.66 M 26.18 14.07 C 23.44 16.01 26.67 18.82 27.63 20.83 C 25.31 24.51 23.03 28.22 20.70 31.90 C 19.20 32.22 16.92 31.45 16.17 33.25 C 15.52 34.38 16.64 36.11 17.95 35.92 C 23.43 36.12 28.92 35.97 34.41 35.96 C 33.68 34.58 32.84 33.27 32.01 31.95 C 29.79 32.02 27.58 32.00 25.36 32.00 C 28.43 26.89 31.85 21.98 34.74 16.78 C 35.59 15.72 34.27 13.70 32.96 14.06 C 31.41 13.94 30.98 15.99 30.00 16.84 C 28.94 15.63 28.19 13.47 26.18 14.07 M 31.14 26.25 C 34.09 31.13 37.05 36.02 40.20 40.78 C 41.04 42.77 43.99 42.09 44.07 39.96 C 43.56 38.71 42.82 37.56 42.13 36.39 C 43.11 35.54 44.41 34.66 43.88 33.15 C 42.91 31.56 40.85 32.17 39.30 31.89 C 37.48 29.00 35.68 26.11 33.86 23.22 C 32.95 24.22 32.04 25.23 31.14 26.25 M 17.12 38.00 C 15.34 38.91 15.82 42.02 17.96 42.02 C 19.52 41.78 20.79 40.12 20.75 38.56 C 19.57 38.20 18.35 38.02 17.12 38.00 Z" />
</g>
</svg>
