<?xml version="1.0" encoding="UTF-8" ?>
<!DOCTYPE svg PUBLIC "-//W3C//DTD SVG 1.1//EN" "http://www.w3.org/Graphics/SVG/1.1/DTD/svg11.dtd">
<svg width="60pt" height="60pt" viewBox="0 0 60 60" version="1.1" xmlns="http://www.w3.org/2000/svg">
<g id="#ffffffff">
<path fill="#ffffff" opacity="1.00" d=" M 0.00 0.00 L 60.00 0.00 L 60.00 60.00 L 0.00 60.00 L 0.00 0.00 M 18.52 6.87 C 15.76 7.29 12.95 7.58 10.29 8.44 C 8.50 9.16 7.88 11.19 8.01 12.97 C 8.10 21.01 7.12 29.57 10.96 36.97 C 14.87 44.65 21.75 51.26 29.95 54.00 C 37.73 51.59 44.19 45.40 48.27 38.44 C 53.02 30.40 51.97 20.77 51.93 11.85 C 51.96 10.09 50.59 8.47 48.87 8.16 C 38.93 6.01 28.61 5.32 18.52 6.87 Z" />
<path fill="#ffffff" opacity="1.00" d=" M 18.18 17.10 C 18.92 15.67 20.65 16.11 21.95 15.99 C 27.97 16.06 34.00 15.89 40.02 16.06 C 41.59 15.89 42.17 17.66 41.99 18.92 C 42.05 24.61 41.97 30.31 42.00 36.00 C 34.00 36.00 26.00 36.00 18.00 36.00 C 18.12 29.70 17.75 23.38 18.18 17.10 M 22.00 22.00 C 22.00 25.33 22.00 28.67 22.00 32.00 C 27.33 32.00 32.67 32.00 38.00 32.00 C 38.00 28.67 38.00 25.33 38.00 22.00 C 32.67 22.00 27.33 22.00 22.00 22.00 Z" />
</g>
<g id="#000000ff">
<path fill="#000000" opacity="1.00" d=" M 18.52 6.87 C 28.61 5.32 38.93 6.01 48.87 8.16 C 50.59 8.47 51.96 10.09 51.93 11.85 C 51.97 20.77 53.02 30.40 48.27 38.44 C 44.19 45.40 37.73 51.59 29.95 54.00 C 21.75 51.26 14.87 44.65 10.96 36.97 C 7.12 29.57 8.10 21.01 8.01 12.97 C 7.88 11.19 8.50 9.16 10.29 8.44 C 12.95 7.58 15.76 7.29 18.52 6.87 M 18.18 17.10 C 17.75 23.38 18.12 29.70 18.00 36.00 C 26.00 36.00 34.00 36.00 42.00 36.00 C 41.97 30.31 42.05 24.61 41.99 18.92 C 42.17 17.66 41.59 15.89 40.02 16.06 C 34.00 15.89 27.97 16.06 21.95 15.99 C 20.65 16.11 18.92 15.67 18.18 17.10 Z" />
<path fill="#000000" opacity="1.00" d=" M 22.00 22.00 C 27.33 22.00 32.67 22.00 38.00 22.00 C 38.00 25.33 38.00 28.67 38.00 32.00 C 32.67 32.00 27.33 32.00 22.00 32.00 C 22.00 28.67 22.00 25.33 22.00 22.00 Z" />
</g>
</svg>
