<?xml version="1.0" encoding="UTF-8" ?>
<!DOCTYPE svg PUBLIC "-//W3C//DTD SVG 1.1//EN" "http://www.w3.org/Graphics/SVG/1.1/DTD/svg11.dtd">
<svg width="64pt" height="64pt" viewBox="0 0 64 64" version="1.1" xmlns="http://www.w3.org/2000/svg">
<g id="#ffffffff">
<path fill="#ffffff" opacity="1.00" d=" M 0.00 0.00 L 64.00 0.00 L 64.00 64.00 L 0.00 64.00 L 0.00 0.00 M 8.05 17.87 C 7.96 21.93 7.90 26.00 8.09 30.07 C 8.09 33.02 11.00 34.46 12.71 36.41 C 14.17 37.88 13.84 40.13 14.16 42.00 C 15.38 42.00 16.59 42.00 17.81 42.00 C 18.25 47.06 21.40 51.94 26.44 53.41 C 33.36 55.87 41.49 50.40 41.88 43.10 C 42.22 35.02 41.82 26.92 42.05 18.84 C 42.00 16.62 43.70 14.59 45.85 14.13 C 48.79 13.31 52.06 15.80 51.95 18.87 C 52.09 30.58 51.95 42.29 52.00 54.00 C 53.33 54.00 54.67 54.00 56.00 54.00 C 55.96 42.29 56.07 30.57 55.95 18.86 C 56.00 14.47 52.36 10.50 48.01 10.08 C 43.27 9.41 38.47 13.21 38.11 17.99 C 37.73 26.36 38.28 34.75 37.87 43.12 C 37.42 48.23 31.29 51.55 26.72 49.28 C 23.71 48.12 22.40 44.99 21.73 42.07 C 23.10 42.03 24.47 42.01 25.85 42.00 C 26.03 40.53 25.99 39.00 26.49 37.59 C 27.79 34.97 31.32 33.89 31.81 30.80 C 32.20 26.51 32.00 22.19 31.95 17.89 C 32.00 14.07 28.89 10.51 25.08 10.13 C 21.71 9.89 18.31 9.89 14.94 10.13 C 11.12 10.49 8.00 14.05 8.05 17.87 Z" />
<path fill="#ffffff" opacity="1.00" d=" M 14.30 14.36 C 17.80 13.69 21.44 13.93 24.98 14.16 C 28.54 14.74 29.03 20.25 25.75 21.60 C 22.24 22.35 18.54 22.06 14.98 21.83 C 11.42 21.20 10.98 15.67 14.30 14.36 M 15.23 16.17 C 12.75 17.11 14.46 20.89 16.86 19.90 C 19.15 18.76 17.53 15.09 15.23 16.17 M 23.26 16.20 C 20.78 16.97 22.42 20.96 24.79 19.90 C 27.21 18.89 25.52 15.01 23.26 16.20 Z" />
<path fill="#ffffff" opacity="1.00" d=" M 11.95 25.09 C 17.16 26.48 22.84 26.47 28.05 25.09 C 28.02 26.77 28.05 28.44 27.89 30.11 C 25.58 32.45 23.13 34.76 22.12 38.00 C 20.70 38.00 19.29 38.00 17.87 38.00 C 16.86 34.78 14.44 32.45 12.12 30.14 C 11.94 28.46 11.98 26.78 11.95 25.09 Z" />
</g>
<g id="#000000ff">
<path fill="#000000" opacity="1.00" d=" M 8.05 17.87 C 8.00 14.05 11.12 10.49 14.94 10.13 C 18.31 9.89 21.71 9.89 25.08 10.13 C 28.89 10.51 32.00 14.07 31.95 17.89 C 32.00 22.19 32.20 26.51 31.81 30.80 C 31.32 33.89 27.79 34.97 26.49 37.59 C 25.99 39.00 26.03 40.53 25.85 42.00 C 24.47 42.01 23.10 42.03 21.73 42.07 C 22.40 44.99 23.71 48.12 26.72 49.28 C 31.29 51.55 37.42 48.23 37.87 43.12 C 38.28 34.75 37.73 26.36 38.11 17.99 C 38.47 13.21 43.27 9.41 48.01 10.08 C 52.36 10.50 56.00 14.47 55.95 18.86 C 56.07 30.57 55.96 42.29 56.00 54.00 C 54.67 54.00 53.33 54.00 52.00 54.00 C 51.95 42.29 52.09 30.58 51.95 18.87 C 52.06 15.80 48.79 13.31 45.85 14.13 C 43.70 14.59 42.00 16.62 42.05 18.84 C 41.82 26.92 42.22 35.02 41.88 43.10 C 41.49 50.40 33.36 55.87 26.44 53.41 C 21.40 51.94 18.25 47.06 17.81 42.00 C 16.59 42.00 15.38 42.00 14.16 42.00 C 13.84 40.13 14.17 37.88 12.71 36.41 C 11.00 34.46 8.09 33.02 8.09 30.07 C 7.90 26.00 7.96 21.93 8.05 17.87 M 14.30 14.36 C 10.98 15.67 11.42 21.20 14.98 21.83 C 18.54 22.06 22.24 22.35 25.75 21.60 C 29.03 20.25 28.54 14.74 24.98 14.16 C 21.44 13.93 17.80 13.69 14.30 14.36 M 11.95 25.09 C 11.98 26.78 11.94 28.46 12.12 30.14 C 14.44 32.45 16.86 34.78 17.87 38.00 C 19.29 38.00 20.70 38.00 22.12 38.00 C 23.13 34.76 25.58 32.45 27.89 30.11 C 28.05 28.44 28.02 26.77 28.05 25.09 C 22.84 26.47 17.16 26.48 11.95 25.09 Z" />
<path fill="#000000" opacity="1.00" d=" M 15.23 16.17 C 17.53 15.09 19.15 18.76 16.86 19.90 C 14.46 20.89 12.75 17.11 15.23 16.17 Z" />
<path fill="#000000" opacity="1.00" d=" M 23.26 16.20 C 25.52 15.01 27.21 18.89 24.79 19.90 C 22.42 20.96 20.78 16.97 23.26 16.20 Z" />
</g>
</svg>
