<?xml version="1.0" encoding="UTF-8" ?>
<!DOCTYPE svg PUBLIC "-//W3C//DTD SVG 1.1//EN" "http://www.w3.org/Graphics/SVG/1.1/DTD/svg11.dtd">
<svg width="60pt" height="60pt" viewBox="0 0 60 60" version="1.1" xmlns="http://www.w3.org/2000/svg">
<g id="#ffffffff">
<path fill="#ffffff" opacity="1.00" d=" M 0.00 0.00 L 60.00 0.00 L 60.00 60.00 L 0.00 60.00 L 0.00 0.00 M 33.98 10.12 C 39.60 10.21 43.94 5.51 44.15 0.01 C 38.54 -0.11 33.61 4.39 33.98 10.12 M 22.06 3.09 C 21.62 5.09 23.61 6.12 24.68 7.43 C 26.47 9.04 27.04 11.48 28.02 13.59 C 25.41 12.79 22.76 11.70 19.97 12.06 C 12.10 12.59 5.59 20.10 6.02 27.94 C 6.36 38.10 12.77 47.46 21.29 52.68 C 23.96 54.54 27.30 54.11 30.00 52.59 C 32.32 53.72 34.98 54.58 37.47 53.38 C 48.54 48.76 55.48 35.96 53.64 24.16 C 51.87 14.75 40.41 8.87 31.92 13.77 C 30.99 9.19 28.68 4.68 24.67 2.08 C 23.58 1.84 22.71 2.18 22.06 3.09 Z" />
<path fill="#ffffff" opacity="1.00" d=" M 29.97 20.05 C 32.26 18.17 34.78 16.22 37.87 16.07 C 43.67 15.43 49.23 20.14 49.85 25.88 C 50.76 35.44 45.23 45.41 36.46 49.44 C 34.10 50.86 31.96 48.72 29.98 47.65 C 30.01 38.45 30.03 29.25 29.97 20.05 M 34.31 33.53 C 34.75 34.55 35.11 36.28 36.60 35.72 C 38.75 33.23 38.03 29.81 35.98 27.54 C 34.91 29.31 33.33 31.35 34.31 33.53 Z" />
</g>
<g id="#000000ff">
<path fill="#000000" opacity="1.00" d=" M 33.98 10.12 C 33.61 4.39 38.54 -0.11 44.15 0.01 C 43.94 5.51 39.60 10.21 33.98 10.12 Z" />
<path fill="#000000" opacity="1.00" d=" M 22.06 3.09 C 22.71 2.18 23.58 1.84 24.67 2.08 C 28.68 4.68 30.99 9.19 31.92 13.77 C 40.41 8.87 51.87 14.75 53.64 24.16 C 55.48 35.96 48.54 48.76 37.47 53.38 C 34.98 54.58 32.32 53.72 30.00 52.59 C 27.30 54.11 23.96 54.54 21.29 52.68 C 12.77 47.46 6.36 38.10 6.02 27.94 C 5.59 20.10 12.10 12.59 19.97 12.06 C 22.76 11.70 25.41 12.79 28.02 13.59 C 27.04 11.48 26.47 9.04 24.68 7.43 C 23.61 6.12 21.62 5.09 22.06 3.09 M 29.97 20.05 C 30.03 29.25 30.01 38.45 29.98 47.65 C 31.96 48.72 34.10 50.86 36.46 49.44 C 45.23 45.41 50.76 35.44 49.85 25.88 C 49.23 20.14 43.67 15.43 37.87 16.07 C 34.78 16.22 32.26 18.17 29.97 20.05 Z" />
<path fill="#000000" opacity="1.00" d=" M 34.31 33.53 C 33.33 31.35 34.91 29.31 35.98 27.54 C 38.03 29.81 38.75 33.23 36.60 35.72 C 35.11 36.28 34.75 34.55 34.31 33.53 Z" />
</g>
</svg>
