<?xml version="1.0" encoding="UTF-8" ?>
<!DOCTYPE svg PUBLIC "-//W3C//DTD SVG 1.1//EN" "http://www.w3.org/Graphics/SVG/1.1/DTD/svg11.dtd">
<svg width="60pt" height="60pt" viewBox="0 0 60 60" version="1.1" xmlns="http://www.w3.org/2000/svg">
<g id="#ffffffff">
<path fill="#ffffff" opacity="1.00" d=" M 0.00 0.00 L 60.00 0.00 L 60.00 60.00 L 0.00 60.00 L 0.00 0.00 M 12.37 15.55 C 10.78 18.03 9.18 20.55 8.21 23.35 C 7.39 24.76 9.24 25.66 9.95 26.55 C 10.12 33.10 9.86 39.65 10.06 46.19 C 10.00 49.30 12.83 52.04 15.93 51.95 C 25.33 52.04 34.74 52.05 44.14 51.94 C 47.24 52.01 50.01 49.24 49.94 46.14 C 50.14 39.61 49.88 33.08 50.05 26.56 C 50.74 25.64 52.62 24.72 51.79 23.31 C 50.78 20.53 49.21 17.99 47.61 15.52 C 48.15 12.39 49.01 7.33 44.99 6.16 C 35.02 5.89 24.98 5.88 15.01 6.16 C 10.93 7.25 11.90 12.43 12.37 15.55 Z" />
<path fill="#ffffff" opacity="1.00" d=" M 16.00 10.00 C 25.33 10.00 34.67 10.00 44.00 10.00 C 44.00 11.33 44.00 12.67 44.00 14.00 C 37.98 14.08 31.95 13.84 25.94 14.09 C 23.85 13.91 23.26 17.11 25.19 17.80 C 31.66 18.52 38.25 17.39 44.69 18.33 C 45.86 19.85 46.59 21.65 47.44 23.36 C 44.17 24.63 41.02 23.33 38.01 22.10 C 35.35 22.70 32.84 24.08 30.03 23.96 C 27.22 24.09 24.68 22.75 22.01 22.09 C 18.99 23.33 15.83 24.64 12.56 23.35 C 13.41 21.68 14.09 19.88 15.29 18.42 C 16.77 17.75 20.05 18.35 19.93 16.01 C 20.19 13.88 17.38 14.09 16.00 13.82 C 16.00 12.55 16.00 11.27 16.00 10.00 Z" />
<path fill="#ffffff" opacity="1.00" d=" M 31.75 32.25 C 31.94 29.70 33.69 27.95 36.25 27.74 C 36.04 30.28 34.30 32.07 31.75 32.25 Z" />
<path fill="#ffffff" opacity="1.00" d=" M 26.42 34.58 C 29.35 33.79 32.65 33.79 35.58 34.59 C 40.33 36.56 39.91 44.26 34.94 45.66 C 31.43 46.19 26.77 46.85 24.26 43.67 C 21.90 40.83 23.05 36.06 26.42 34.58 M 33.00 42.45 C 33.54 41.14 34.32 39.77 33.60 38.36 C 31.11 37.94 32.34 41.24 33.00 42.45 Z" />
</g>
<g id="#000000ff">
<path fill="#000000" opacity="1.00" d=" M 12.37 15.55 C 11.90 12.43 10.93 7.25 15.01 6.16 C 24.98 5.88 35.02 5.89 44.99 6.16 C 49.01 7.33 48.15 12.39 47.61 15.52 C 49.21 17.99 50.78 20.53 51.79 23.31 C 52.62 24.72 50.74 25.64 50.05 26.56 C 49.88 33.08 50.14 39.61 49.94 46.14 C 50.01 49.24 47.24 52.01 44.14 51.94 C 34.74 52.05 25.33 52.04 15.93 51.95 C 12.83 52.04 10.00 49.30 10.06 46.19 C 9.86 39.65 10.12 33.10 9.95 26.55 C 9.24 25.66 7.39 24.76 8.21 23.35 C 9.18 20.55 10.78 18.03 12.37 15.55 M 16.00 10.00 C 16.00 11.27 16.00 12.55 16.00 13.82 C 17.38 14.09 20.19 13.88 19.93 16.01 C 20.05 18.35 16.77 17.75 15.29 18.42 C 14.09 19.88 13.41 21.68 12.56 23.35 C 15.83 24.64 18.99 23.33 22.01 22.09 C 24.68 22.75 27.22 24.09 30.03 23.96 C 32.84 24.08 35.35 22.70 38.01 22.10 C 41.02 23.33 44.17 24.63 47.44 23.36 C 46.59 21.65 45.86 19.85 44.69 18.33 C 38.25 17.39 31.66 18.52 25.19 17.80 C 23.26 17.11 23.85 13.91 25.94 14.09 C 31.95 13.84 37.98 14.08 44.00 14.00 C 44.00 12.67 44.00 11.33 44.00 10.00 C 34.67 10.00 25.33 10.00 16.00 10.00 M 31.75 32.25 C 34.30 32.07 36.04 30.28 36.25 27.74 C 33.69 27.95 31.94 29.70 31.75 32.25 M 26.42 34.58 C 23.05 36.06 21.90 40.83 24.26 43.67 C 26.77 46.85 31.43 46.19 34.94 45.66 C 39.91 44.26 40.33 36.56 35.58 34.59 C 32.65 33.79 29.35 33.79 26.42 34.58 Z" />
<path fill="#000000" opacity="1.00" d=" M 33.00 42.45 C 32.34 41.24 31.11 37.94 33.60 38.36 C 34.32 39.77 33.54 41.14 33.00 42.45 Z" />
</g>
</svg>
