<?xml version="1.0" encoding="UTF-8" ?>
<!DOCTYPE svg PUBLIC "-//W3C//DTD SVG 1.1//EN" "http://www.w3.org/Graphics/SVG/1.1/DTD/svg11.dtd">
<svg width="60pt" height="60pt" viewBox="0 0 60 60" version="1.1" xmlns="http://www.w3.org/2000/svg">
<g id="#ffffffff">
<path fill="#ffffff" opacity="1.00" d=" M 0.00 0.00 L 60.00 0.00 L 60.00 60.00 L 0.00 60.00 L 0.00 0.00 M 23.79 2.74 C 21.44 4.35 21.21 7.61 19.83 9.95 C 18.60 13.12 14.36 14.29 14.13 17.98 C 13.85 25.66 14.02 33.37 14.04 41.06 C 13.73 45.55 19.00 46.92 20.17 50.77 C 21.54 53.12 21.71 57.13 25.00 57.59 C 28.69 58.11 32.57 58.28 36.19 57.26 C 38.54 55.67 38.77 52.43 40.14 50.10 C 41.35 46.94 45.52 45.78 45.85 42.16 C 46.23 37.58 45.87 32.98 46.03 28.40 C 46.48 28.03 47.38 27.30 47.83 26.93 C 47.99 24.45 48.93 21.04 46.20 19.63 C 45.92 17.12 44.97 14.66 42.78 13.21 C 39.14 10.74 39.47 5.44 36.25 2.76 C 32.22 1.71 27.82 1.72 23.79 2.74 Z" />
<path fill="#ffffff" opacity="1.00" d=" M 19.40 16.47 C 24.81 15.38 30.50 16.31 36.02 15.97 C 38.23 15.90 41.94 15.74 41.92 18.88 C 42.05 26.31 42.08 33.75 41.90 41.18 C 41.99 43.20 39.86 44.20 38.11 43.98 C 32.37 43.98 26.62 44.12 20.88 43.91 C 19.36 43.99 18.01 42.64 18.08 41.12 C 17.86 34.43 18.08 27.72 17.98 21.02 C 18.07 19.46 17.78 17.38 19.40 16.47 M 23.21 20.09 C 20.78 21.08 22.49 25.04 24.80 23.79 C 27.19 22.88 25.54 19.10 23.21 20.09 M 31.21 20.14 C 28.79 21.05 30.47 25.00 32.77 23.83 C 35.22 22.94 33.56 19.06 31.21 20.14 M 37.17 24.19 C 34.75 25.09 36.55 29.05 38.80 27.80 C 41.26 26.90 39.48 22.99 37.17 24.19 M 28.33 26.39 C 25.91 27.43 25.15 30.99 27.16 32.79 C 28.97 34.81 32.53 34.13 33.59 31.68 C 35.36 28.59 31.45 24.61 28.33 26.39 M 21.14 28.09 C 18.86 29.29 20.46 32.88 22.87 31.89 C 25.13 30.68 23.54 27.15 21.14 28.09 M 37.25 32.18 C 34.79 33.01 36.40 36.89 38.77 35.90 C 41.19 34.94 39.56 31.04 37.25 32.18 M 23.25 36.17 C 20.71 36.95 22.54 41.12 24.80 39.78 C 27.24 38.97 25.49 34.99 23.25 36.17 M 31.26 36.14 C 28.78 37.05 30.39 40.89 32.82 39.90 C 35.13 38.85 33.61 35.14 31.26 36.14 Z" />
</g>
<g id="#000000ff">
<path fill="#968176" opacity="1.00" d=" M 23.79 2.74 C 27.82 1.72 32.22 1.71 36.25 2.76 C 39.47 5.44 39.14 10.74 42.78 13.21 C 44.97 14.66 45.92 17.12 46.20 19.63 C 48.93 21.04 47.99 24.45 47.83 26.93 C 47.38 27.30 46.48 28.03 46.03 28.40 C 45.87 32.98 46.23 37.58 45.85 42.16 C 45.52 45.78 41.35 46.94 40.14 50.10 C 38.77 52.43 38.54 55.67 36.19 57.26 C 32.57 58.28 28.69 58.11 25.00 57.59 C 21.71 57.13 21.54 53.12 20.17 50.77 C 19.00 46.92 13.73 45.55 14.04 41.06 C 14.02 33.37 13.85 25.66 14.13 17.98 C 14.36 14.29 18.60 13.12 19.83 9.95 C 21.21 7.61 21.44 4.35 23.79 2.74 M 19.40 16.47 C 17.78 17.38 18.07 19.46 17.98 21.02 C 18.08 27.72 17.86 34.43 18.08 41.12 C 18.01 42.64 19.36 43.99 20.88 43.91 C 26.62 44.12 32.37 43.98 38.11 43.98 C 39.86 44.20 41.99 43.20 41.90 41.18 C 42.08 33.75 42.05 26.31 41.92 18.88 C 41.94 15.74 38.23 15.90 36.02 15.97 C 30.50 16.31 24.81 15.38 19.40 16.47 Z" />
<path fill="#968176" opacity="1.00" d=" M 23.21 20.09 C 25.54 19.10 27.19 22.88 24.80 23.79 C 22.49 25.04 20.78 21.08 23.21 20.09 Z" />
<path fill="#968176" opacity="1.00" d=" M 31.21 20.14 C 33.56 19.06 35.22 22.94 32.77 23.83 C 30.47 25.00 28.79 21.05 31.21 20.14 Z" />
<path fill="#968176" opacity="1.00" d=" M 37.17 24.19 C 39.48 22.99 41.26 26.90 38.80 27.80 C 36.55 29.05 34.75 25.09 37.17 24.19 Z" />
<path fill="#968176" opacity="1.00" d=" M 28.33 26.39 C 31.45 24.61 35.36 28.59 33.59 31.68 C 32.53 34.13 28.97 34.81 27.16 32.79 C 25.15 30.99 25.91 27.43 28.33 26.39 Z" />
<path fill="#968176" opacity="1.00" d=" M 21.14 28.09 C 23.54 27.15 25.13 30.68 22.87 31.89 C 20.46 32.88 18.86 29.29 21.14 28.09 Z" />
<path fill="#968176" opacity="1.00" d=" M 37.25 32.18 C 39.56 31.04 41.19 34.94 38.77 35.90 C 36.40 36.89 34.79 33.01 37.25 32.18 Z" />
<path fill="#968176" opacity="1.00" d=" M 23.25 36.17 C 25.49 34.99 27.24 38.97 24.80 39.78 C 22.54 41.12 20.71 36.95 23.25 36.17 Z" />
<path fill="#968176" opacity="1.00" d=" M 31.26 36.14 C 33.61 35.14 35.13 38.85 32.82 39.90 C 30.39 40.89 28.78 37.05 31.26 36.14 Z" />
</g>
</svg>
