<?xml version="1.0" encoding="UTF-8" ?>
<!DOCTYPE svg PUBLIC "-//W3C//DTD SVG 1.1//EN" "http://www.w3.org/Graphics/SVG/1.1/DTD/svg11.dtd">
<svg width="64pt" height="64pt" viewBox="0 0 64 64" version="1.1" xmlns="http://www.w3.org/2000/svg">
<g id="#ffffffff">
<path fill="#ffffff" opacity="1.00" d=" M 0.00 0.00 L 64.00 0.00 L 64.00 64.00 L 0.00 64.00 L 0.00 0.00 M 18.10 10.17 C 11.93 15.98 13.07 26.93 20.06 31.61 C 12.93 34.83 8.04 42.14 7.92 49.99 C 9.24 49.99 10.56 50.00 11.88 50.00 C 11.97 41.50 19.44 33.75 28.06 34.02 C 35.61 33.92 42.32 39.79 43.81 47.09 C 44.90 45.99 46.00 44.90 47.14 43.85 C 45.21 38.45 41.13 34.01 35.93 31.60 C 42.25 27.31 43.96 17.84 39.26 11.76 C 34.60 4.93 23.73 4.10 18.10 10.17 M 42.02 53.10 C 39.83 50.95 37.64 48.79 35.52 46.58 C 34.54 47.54 33.55 48.49 32.53 49.41 C 35.69 52.55 38.81 55.72 42.00 58.83 C 47.22 53.77 52.28 48.55 57.45 43.43 C 56.49 42.48 55.52 41.52 54.57 40.56 C 50.38 44.73 46.21 48.93 42.02 53.10 Z" />
<path fill="#ffffff" opacity="1.00" d=" M 24.45 10.66 C 31.35 7.68 39.56 14.55 37.80 21.87 C 36.76 29.22 26.78 32.63 21.42 27.51 C 15.78 22.99 17.58 12.93 24.45 10.66 Z" />
</g>
<g id="#000000ff">
<path fill="#000000" opacity="1.00" d=" M 18.10 10.17 C 23.73 4.10 34.60 4.93 39.26 11.76 C 43.96 17.84 42.25 27.31 35.93 31.60 C 41.13 34.01 45.21 38.45 47.14 43.85 C 46.00 44.90 44.90 45.99 43.81 47.09 C 42.32 39.79 35.61 33.92 28.06 34.02 C 19.44 33.75 11.97 41.50 11.88 50.00 C 10.56 50.00 9.24 49.99 7.92 49.99 C 8.04 42.14 12.93 34.83 20.06 31.61 C 13.07 26.93 11.93 15.98 18.10 10.17 M 24.45 10.66 C 17.58 12.93 15.78 22.99 21.42 27.51 C 26.78 32.63 36.76 29.22 37.80 21.87 C 39.56 14.55 31.35 7.68 24.45 10.66 Z" />
<path fill="#000000" opacity="1.00" d=" M 42.02 53.10 C 46.21 48.93 50.38 44.73 54.57 40.56 C 55.52 41.52 56.49 42.48 57.45 43.43 C 52.28 48.55 47.22 53.77 42.00 58.83 C 38.81 55.72 35.69 52.55 32.53 49.41 C 33.55 48.49 34.54 47.54 35.52 46.58 C 37.64 48.79 39.83 50.95 42.02 53.10 Z" />
</g>
</svg>
