<?xml version="1.0" encoding="UTF-8" ?>
<!DOCTYPE svg PUBLIC "-//W3C//DTD SVG 1.1//EN" "http://www.w3.org/Graphics/SVG/1.1/DTD/svg11.dtd">
<svg width="60pt" height="60pt" viewBox="0 0 60 60" version="1.1" xmlns="http://www.w3.org/2000/svg">
<g id="#ffffffff">
<path fill="#ffffff" opacity="1.00" d=" M 0.00 0.00 L 60.00 0.00 L 60.00 60.00 L 0.00 60.00 L 0.00 0.00 M 10.30 8.40 C 8.61 9.18 7.84 11.07 8.00 12.84 C 8.03 24.58 7.93 36.33 8.05 48.07 C 7.92 50.63 10.56 52.30 12.91 52.00 C 24.63 51.97 36.36 52.07 48.07 51.95 C 50.61 52.01 52.32 49.42 52.00 47.06 C 51.97 35.36 52.07 23.66 51.95 11.97 C 52.04 9.40 49.48 7.64 47.08 8.00 C 35.35 8.03 23.62 7.93 11.90 8.05 C 11.50 8.14 10.70 8.32 10.30 8.40 Z" />
<path fill="#ffffff" opacity="1.00" d=" M 21.44 22.75 C 24.79 21.62 28.32 22.00 31.51 23.41 C 35.06 24.92 38.58 22.69 42.04 22.06 C 44.10 21.82 44.76 25.19 42.78 25.76 C 38.58 27.60 33.62 28.92 29.24 26.87 C 25.49 24.94 21.63 27.17 17.93 27.95 C 16.42 28.02 15.72 26.40 16.09 25.12 C 17.50 23.70 19.60 23.35 21.44 22.75 Z" />
<path fill="#ffffff" opacity="1.00" d=" M 21.53 32.73 C 24.82 31.63 28.29 32.00 31.42 33.38 C 34.99 34.94 38.53 32.71 42.01 32.07 C 43.72 31.79 44.77 34.46 43.35 35.39 C 40.85 36.85 37.95 37.52 35.10 37.89 C 31.11 38.61 27.57 35.02 23.59 36.37 C 21.27 36.60 18.80 38.75 16.55 37.44 C 14.45 34.22 19.36 33.38 21.53 32.73 Z" />
</g>
<g id="#000000ff">
<path fill="#968176" opacity="1.00" d=" M 10.30 8.40 C 10.70 8.32 11.50 8.14 11.90 8.05 C 23.62 7.93 35.35 8.03 47.08 8.00 C 49.48 7.64 52.04 9.40 51.95 11.97 C 52.07 23.66 51.97 35.36 52.00 47.06 C 52.32 49.42 50.61 52.01 48.07 51.95 C 36.36 52.07 24.63 51.97 12.91 52.00 C 10.56 52.30 7.92 50.63 8.05 48.07 C 7.93 36.33 8.03 24.58 8.00 12.84 C 7.84 11.07 8.61 9.18 10.30 8.40 M 21.44 22.75 C 19.60 23.35 17.50 23.70 16.09 25.12 C 15.72 26.40 16.42 28.02 17.93 27.95 C 21.63 27.17 25.49 24.94 29.24 26.87 C 33.62 28.92 38.58 27.60 42.78 25.76 C 44.76 25.19 44.10 21.82 42.04 22.06 C 38.58 22.69 35.06 24.92 31.51 23.41 C 28.32 22.00 24.79 21.62 21.44 22.75 M 21.53 32.73 C 19.36 33.38 14.45 34.22 16.55 37.44 C 18.80 38.75 21.27 36.60 23.59 36.37 C 27.57 35.02 31.11 38.61 35.10 37.89 C 37.95 37.52 40.85 36.85 43.35 35.39 C 44.77 34.46 43.72 31.79 42.01 32.07 C 38.53 32.71 34.99 34.94 31.42 33.38 C 28.29 32.00 24.82 31.63 21.53 32.73 Z" />
</g>
</svg>
