<?xml version="1.0" encoding="UTF-8" ?>
<!DOCTYPE svg PUBLIC "-//W3C//DTD SVG 1.1//EN" "http://www.w3.org/Graphics/SVG/1.1/DTD/svg11.dtd">
<svg width="64pt" height="64pt" viewBox="0 0 64 64" version="1.1" xmlns="http://www.w3.org/2000/svg">
<g id="#ffffffff">
<path fill="#ffffff" opacity="1.00" d=" M 0.00 0.00 L 64.00 0.00 L 64.00 64.00 L 0.00 64.00 L 0.00 0.00 M 27.67 7.47 C 28.34 8.46 29.01 9.45 29.68 10.44 C 25.31 9.47 20.50 10.03 16.96 12.96 C 9.57 18.83 7.16 29.12 8.27 38.14 C 9.17 45.40 12.67 53.01 19.42 56.52 C 23.32 58.64 28.10 58.30 31.98 56.32 C 36.11 58.33 41.14 58.65 45.17 56.22 C 52.15 52.15 55.44 43.83 55.92 36.07 C 56.46 27.42 53.70 17.80 46.43 12.50 C 42.80 9.82 38.00 9.43 33.77 10.78 C 33.03 8.19 31.67 5.87 29.66 4.05 C 29.00 5.19 28.33 6.33 27.67 7.47 Z" />
<path fill="#ffffff" opacity="1.00" d=" M 14.84 21.80 C 17.20 16.67 22.62 12.74 28.47 14.16 C 26.28 16.71 24.19 19.39 22.91 22.53 C 24.12 23.01 25.32 23.49 26.53 23.97 C 28.65 19.68 31.95 15.41 36.81 14.19 C 41.15 13.12 45.35 15.92 47.68 19.39 C 52.37 26.24 53.13 35.38 50.44 43.14 C 48.71 48.22 44.87 53.59 39.06 53.98 C 33.16 54.00 28.91 48.91 26.53 44.02 C 25.32 44.51 24.11 45.00 22.90 45.49 C 24.21 48.59 26.26 51.26 28.44 53.78 C 24.53 54.53 20.29 53.42 17.70 50.27 C 11.04 42.58 10.39 30.75 14.84 21.80 M 45.37 32.34 C 42.60 33.11 44.58 37.55 46.93 35.93 C 49.19 35.06 47.53 31.52 45.37 32.34 M 39.17 36.17 C 36.84 37.16 38.39 40.81 40.76 39.91 C 43.19 38.93 41.59 35.04 39.17 36.17 M 43.15 42.10 C 40.85 43.28 42.46 46.87 44.87 45.89 C 47.10 44.70 45.56 41.13 43.15 42.10 M 37.23 46.09 C 34.81 47.16 36.44 50.92 38.88 49.88 C 41.07 48.73 39.61 45.19 37.23 46.09 Z" />
</g>
<g id="#000000ff">
<path fill="#000000" opacity="1.00" d=" M 27.67 7.47 C 28.33 6.33 29.00 5.19 29.66 4.05 C 31.67 5.87 33.03 8.19 33.77 10.78 C 38.00 9.43 42.80 9.82 46.43 12.50 C 53.70 17.80 56.46 27.42 55.92 36.07 C 55.44 43.83 52.15 52.15 45.17 56.22 C 41.14 58.65 36.11 58.33 31.98 56.32 C 28.10 58.30 23.32 58.64 19.42 56.52 C 12.67 53.01 9.17 45.40 8.27 38.14 C 7.16 29.12 9.57 18.83 16.96 12.96 C 20.50 10.03 25.31 9.47 29.68 10.44 C 29.01 9.45 28.34 8.46 27.67 7.47 M 14.84 21.80 C 10.39 30.75 11.04 42.58 17.70 50.27 C 20.29 53.42 24.53 54.53 28.44 53.78 C 26.26 51.26 24.21 48.59 22.90 45.49 C 24.11 45.00 25.32 44.51 26.53 44.02 C 28.91 48.91 33.16 54.00 39.06 53.98 C 44.87 53.59 48.71 48.22 50.44 43.14 C 53.13 35.38 52.37 26.24 47.68 19.39 C 45.35 15.92 41.15 13.12 36.81 14.19 C 31.95 15.41 28.65 19.68 26.53 23.97 C 25.32 23.49 24.12 23.01 22.91 22.53 C 24.19 19.39 26.28 16.71 28.47 14.16 C 22.62 12.74 17.20 16.67 14.84 21.80 Z" />
<path fill="#000000" opacity="1.00" d=" M 45.37 32.34 C 47.53 31.52 49.19 35.06 46.93 35.93 C 44.58 37.55 42.60 33.11 45.37 32.34 Z" />
<path fill="#000000" opacity="1.00" d=" M 39.17 36.17 C 41.59 35.04 43.19 38.93 40.76 39.91 C 38.39 40.81 36.84 37.16 39.17 36.17 Z" />
<path fill="#000000" opacity="1.00" d=" M 43.15 42.10 C 45.56 41.13 47.10 44.70 44.87 45.89 C 42.46 46.87 40.85 43.28 43.15 42.10 Z" />
<path fill="#000000" opacity="1.00" d=" M 37.23 46.09 C 39.61 45.19 41.07 48.73 38.88 49.88 C 36.44 50.92 34.81 47.16 37.23 46.09 Z" />
</g>
</svg>
