<?xml version="1.0" encoding="UTF-8" ?>
<!DOCTYPE svg PUBLIC "-//W3C//DTD SVG 1.1//EN" "http://www.w3.org/Graphics/SVG/1.1/DTD/svg11.dtd">
<svg width="60pt" height="60pt" viewBox="0 0 60 60" version="1.1" xmlns="http://www.w3.org/2000/svg">
<g id="#ffffffff">
<path fill="#ffffff" opacity="1.00" d=" M 0.00 0.00 L 60.00 0.00 L 60.00 60.00 L 0.00 60.00 L 0.00 0.00 M 4.00 10.87 C 4.02 22.59 3.95 34.33 4.04 46.05 C 3.91 48.61 6.59 50.35 8.94 50.00 C 23.00 50.00 37.06 50.00 51.12 50.00 C 53.42 50.34 55.95 48.61 55.95 46.18 C 56.07 35.77 55.97 25.35 56.00 14.94 C 56.35 12.60 54.63 9.93 52.09 10.04 C 46.06 9.92 40.03 10.04 34.00 10.00 C 34.00 11.33 34.00 12.67 34.00 14.00 C 32.66 14.00 31.33 14.00 30.00 14.00 C 30.00 12.67 30.00 11.33 30.00 10.00 C 27.49 10.00 24.98 10.01 22.47 9.99 C 21.36 8.39 20.35 6.04 18.05 6.07 C 14.66 5.91 11.25 5.97 7.85 6.04 C 5.41 6.02 3.65 8.55 4.00 10.87 Z" />
<path fill="#ffffff" opacity="1.00" d=" M 26.00 14.00 C 27.33 14.00 28.67 14.00 30.00 14.00 C 30.00 15.33 30.00 16.67 30.00 18.00 C 28.67 18.00 27.33 18.00 26.00 18.00 C 26.00 16.67 26.00 15.33 26.00 14.00 Z" />
<path fill="#ffffff" opacity="1.00" d=" M 30.00 18.00 C 31.33 18.00 32.67 18.00 34.00 18.00 C 34.00 19.33 34.00 20.67 34.00 22.00 C 32.67 22.00 31.33 22.00 30.00 22.00 C 30.00 20.67 30.00 19.33 30.00 18.00 Z" />
<path fill="#ffffff" opacity="1.00" d=" M 26.09 22.00 C 27.39 22.00 28.70 22.00 30.00 22.00 C 30.00 23.33 30.00 24.66 30.00 26.00 C 31.34 26.00 32.68 26.00 34.02 26.00 C 34.97 30.74 36.84 35.79 35.40 40.58 C 33.42 45.35 25.72 44.89 24.32 39.92 C 23.18 33.87 26.34 28.05 26.09 22.00 M 28.20 36.25 C 25.86 38.46 29.64 42.16 31.79 39.74 C 34.14 37.54 30.35 33.83 28.20 36.25 Z" />
</g>
<g id="#000000ff">
<path fill="#000000" opacity="1.00" d=" M 4.00 10.87 C 3.65 8.55 5.41 6.02 7.85 6.04 C 11.25 5.97 14.66 5.91 18.05 6.07 C 20.35 6.04 21.36 8.39 22.47 9.99 C 24.98 10.01 27.49 10.00 30.00 10.00 C 30.00 11.33 30.00 12.67 30.00 14.00 C 28.67 14.00 27.33 14.00 26.00 14.00 C 26.00 15.33 26.00 16.67 26.00 18.00 C 27.33 18.00 28.67 18.00 30.00 18.00 C 30.00 19.33 30.00 20.67 30.00 22.00 C 28.70 22.00 27.39 22.00 26.09 22.00 C 26.34 28.05 23.18 33.87 24.32 39.92 C 25.72 44.89 33.42 45.35 35.40 40.58 C 36.84 35.79 34.97 30.74 34.02 26.00 C 32.68 26.00 31.34 26.00 30.00 26.00 C 30.00 24.66 30.00 23.33 30.00 22.00 C 31.33 22.00 32.67 22.00 34.00 22.00 C 34.00 20.67 34.00 19.33 34.00 18.00 C 32.67 18.00 31.33 18.00 30.00 18.00 C 30.00 16.67 30.00 15.33 30.00 14.00 C 31.33 14.00 32.66 14.00 34.00 14.00 C 34.00 12.67 34.00 11.33 34.00 10.00 C 40.03 10.04 46.06 9.92 52.09 10.04 C 54.63 9.93 56.35 12.60 56.00 14.94 C 55.97 25.35 56.07 35.77 55.95 46.18 C 55.95 48.61 53.42 50.34 51.12 50.00 C 37.06 50.00 23.00 50.00 8.94 50.00 C 6.59 50.35 3.91 48.61 4.04 46.05 C 3.95 34.33 4.02 22.59 4.00 10.87 Z" />
<path fill="#000000" opacity="1.00" d=" M 28.20 36.25 C 30.35 33.83 34.14 37.54 31.79 39.74 C 29.64 42.16 25.86 38.46 28.20 36.25 Z" />
</g>
</svg>
