<?xml version="1.0" encoding="UTF-8" ?>
<!DOCTYPE svg PUBLIC "-//W3C//DTD SVG 1.1//EN" "http://www.w3.org/Graphics/SVG/1.1/DTD/svg11.dtd">
<svg width="64pt" height="64pt" viewBox="0 0 64 64" version="1.1" xmlns="http://www.w3.org/2000/svg">
<g id="#ffffffff">
<path fill="#ffffff" opacity="1.00" d=" M 0.00 0.00 L 64.00 0.00 L 64.00 64.00 L 0.00 64.00 L 0.00 0.00 M 22.00 8.00 C 22.00 9.33 22.00 10.67 22.00 12.00 C 28.67 12.00 35.33 12.00 42.00 12.00 C 42.00 10.67 42.00 9.33 42.00 8.00 C 35.33 8.00 28.67 8.00 22.00 8.00 M 24.00 14.00 C 24.01 16.07 24.00 18.15 23.98 20.22 C 18.99 23.35 15.52 29.04 16.05 35.05 C 16.78 42.17 20.79 48.42 25.01 54.01 C 29.67 53.99 34.33 53.99 38.99 54.02 C 43.18 48.43 47.22 42.22 47.94 35.10 C 48.50 29.07 45.02 23.37 40.02 20.22 C 39.99 18.15 40.00 16.07 40.00 14.00 C 38.67 14.00 37.33 14.00 36.00 14.00 C 35.99 16.85 36.00 19.70 36.03 22.55 C 40.52 24.55 44.16 28.91 43.96 34.03 C 43.63 40.00 40.32 45.25 36.98 50.02 C 33.66 49.99 30.34 49.99 27.02 50.02 C 22.37 43.48 17.02 34.36 22.36 26.67 C 23.96 27.98 25.54 29.31 27.13 30.63 C 25.83 32.77 24.59 34.95 23.31 37.10 C 25.77 39.25 28.24 41.41 30.70 43.57 C 31.56 42.54 32.43 41.51 33.31 40.49 C 31.69 39.08 30.06 37.66 28.44 36.25 C 29.70 34.07 30.97 31.89 32.24 29.71 C 29.96 27.81 27.70 25.89 25.42 23.98 C 26.07 23.64 27.35 22.97 27.99 22.63 C 27.99 19.75 28.01 16.88 28.00 14.00 C 26.66 14.00 25.33 14.00 24.00 14.00 Z" />
</g>
<g id="#000000ff">
<path fill="#000000" opacity="1.00" d=" M 22.00 8.00 C 28.67 8.00 35.33 8.00 42.00 8.00 C 42.00 9.33 42.00 10.67 42.00 12.00 C 35.33 12.00 28.67 12.00 22.00 12.00 C 22.00 10.67 22.00 9.33 22.00 8.00 Z" />
<path fill="#000000" opacity="1.00" d=" M 24.00 14.00 C 25.33 14.00 26.66 14.00 28.00 14.00 C 28.01 16.88 27.99 19.75 27.99 22.63 C 27.35 22.97 26.07 23.64 25.42 23.98 C 27.70 25.89 29.96 27.81 32.24 29.71 C 30.97 31.89 29.70 34.07 28.44 36.25 C 30.06 37.66 31.69 39.08 33.31 40.49 C 32.43 41.51 31.56 42.54 30.70 43.57 C 28.24 41.41 25.77 39.25 23.31 37.10 C 24.59 34.95 25.83 32.77 27.13 30.63 C 25.54 29.31 23.96 27.98 22.36 26.67 C 17.02 34.36 22.37 43.48 27.02 50.02 C 30.34 49.99 33.66 49.99 36.98 50.02 C 40.32 45.25 43.63 40.00 43.96 34.03 C 44.16 28.91 40.52 24.55 36.03 22.55 C 36.00 19.70 35.99 16.85 36.00 14.00 C 37.33 14.00 38.67 14.00 40.00 14.00 C 40.00 16.07 39.99 18.15 40.02 20.22 C 45.02 23.37 48.50 29.07 47.94 35.10 C 47.22 42.22 43.18 48.43 38.99 54.02 C 34.33 53.99 29.67 53.99 25.01 54.01 C 20.79 48.42 16.78 42.17 16.05 35.05 C 15.52 29.04 18.99 23.35 23.98 20.22 C 24.00 18.15 24.01 16.07 24.00 14.00 Z" />
</g>
</svg>
