<?xml version="1.0" encoding="UTF-8" ?>
<!DOCTYPE svg PUBLIC "-//W3C//DTD SVG 1.1//EN" "http://www.w3.org/Graphics/SVG/1.1/DTD/svg11.dtd">
<svg width="60pt" height="60pt" viewBox="0 0 60 60" version="1.1" xmlns="http://www.w3.org/2000/svg">
<g id="#ffffffff">
<path fill="#ffffff" opacity="1.00" d=" M 0.00 0.00 L 60.00 0.00 L 60.00 60.00 L 0.00 60.00 L 0.00 0.00 M 11.73 8.69 C 9.93 9.77 10.08 12.11 9.98 13.93 C 9.94 19.95 10.02 25.97 10.01 31.99 C 14.00 32.02 17.99 32.02 21.98 31.99 C 22.11 28.22 21.51 24.29 22.74 20.65 C 24.78 15.70 32.04 14.44 35.66 18.35 C 39.18 21.96 37.70 27.47 38.02 31.99 C 42.01 32.02 46.00 32.02 49.99 31.98 C 49.86 25.06 50.32 18.11 49.81 11.20 C 49.69 8.76 47.11 7.90 45.04 8.02 C 36.01 7.91 26.98 8.09 17.95 7.96 C 15.88 8.06 13.65 7.75 11.73 8.69 M 9.31 36.20 C 7.72 36.74 8.14 38.69 7.97 39.97 C 8.07 43.78 7.47 47.76 8.53 51.47 C 13.47 52.69 18.69 51.87 23.73 51.72 C 23.99 46.93 24.38 42.09 23.79 37.31 C 23.51 37.04 22.96 36.48 22.68 36.20 C 18.25 35.78 13.74 35.78 9.31 36.20 M 36.21 37.32 C 35.62 42.10 36.02 46.93 36.27 51.72 C 41.41 52.16 46.58 52.16 51.73 51.72 C 51.99 46.93 52.38 42.10 51.79 37.32 C 50.13 34.94 46.49 36.37 44.00 35.93 C 41.52 36.37 37.83 34.93 36.21 37.32 Z" />
</g>
<g id="#000000ff">
<path fill="#000000" opacity="1.00" d=" M 11.73 8.69 C 13.65 7.75 15.88 8.06 17.95 7.96 C 26.98 8.09 36.01 7.91 45.04 8.02 C 47.11 7.90 49.69 8.76 49.81 11.20 C 50.32 18.11 49.86 25.06 49.99 31.98 C 46.00 32.02 42.01 32.02 38.02 31.99 C 37.70 27.47 39.18 21.96 35.66 18.35 C 32.04 14.44 24.78 15.70 22.74 20.65 C 21.51 24.29 22.11 28.22 21.98 31.99 C 17.99 32.02 14.00 32.02 10.01 31.99 C 10.02 25.97 9.94 19.95 9.98 13.93 C 10.08 12.11 9.93 9.77 11.73 8.69 Z" />
<path fill="#000000" opacity="1.00" d=" M 9.31 36.20 C 13.74 35.78 18.25 35.78 22.68 36.20 C 22.96 36.48 23.51 37.04 23.79 37.31 C 24.38 42.09 23.99 46.93 23.73 51.72 C 18.69 51.87 13.47 52.69 8.53 51.47 C 7.47 47.76 8.07 43.78 7.97 39.97 C 8.14 38.69 7.72 36.74 9.31 36.20 Z" />
<path fill="#000000" opacity="1.00" d=" M 36.21 37.32 C 37.83 34.93 41.52 36.37 44.00 35.93 C 46.49 36.37 50.13 34.94 51.79 37.32 C 52.38 42.10 51.99 46.93 51.73 51.72 C 46.58 52.16 41.41 52.16 36.27 51.72 C 36.02 46.93 35.62 42.10 36.21 37.32 Z" />
</g>
</svg>
