<?xml version="1.0" encoding="UTF-8" ?>
<!DOCTYPE svg PUBLIC "-//W3C//DTD SVG 1.1//EN" "http://www.w3.org/Graphics/SVG/1.1/DTD/svg11.dtd">
<svg width="60pt" height="60pt" viewBox="0 0 60 60" version="1.1" xmlns="http://www.w3.org/2000/svg">
<g id="#ffffffff">
<path fill="#ffffff" opacity="1.00" d=" M 0.00 0.00 L 60.00 0.00 L 60.00 60.00 L 0.00 60.00 L 0.00 0.00 M 23.29 7.25 C 19.61 9.04 14.71 9.60 12.63 13.58 C 10.53 17.65 8.02 21.54 6.32 25.79 C 5.66 31.13 6.05 36.56 6.12 41.93 C 8.04 41.99 9.97 41.99 11.89 41.92 C 12.08 38.26 11.99 34.60 11.98 30.95 C 11.63 27.33 14.63 24.68 16.00 21.60 C 16.70 25.73 17.70 29.84 17.93 34.03 C 17.55 38.71 16.30 43.29 16.10 47.99 C 16.10 49.32 15.64 51.11 17.14 51.84 C 20.75 52.22 24.38 51.91 28.00 52.00 C 27.98 44.11 28.04 36.22 27.97 28.33 C 23.55 23.82 24.45 16.91 24.05 11.13 C 27.87 9.66 32.12 9.67 35.95 11.12 C 35.54 16.91 36.44 23.81 32.03 28.33 C 31.96 36.22 32.02 44.11 32.00 52.00 C 35.62 51.90 39.27 52.23 42.87 51.83 C 43.12 51.58 43.60 51.08 43.85 50.83 C 44.27 45.16 42.50 39.63 42.07 34.01 C 42.31 29.82 43.30 25.72 44.00 21.60 C 45.28 23.97 46.86 26.18 47.91 28.67 C 48.19 33.07 47.83 37.50 48.11 41.91 C 50.03 41.99 51.95 41.99 53.87 41.93 C 54.10 37.62 53.99 33.29 54.00 28.98 C 54.28 24.92 51.56 21.67 49.89 18.23 C 48.30 15.55 47.30 12.19 44.47 10.52 C 38.01 7.34 30.42 4.14 23.29 7.25 Z" />
</g>
<g id="#000000ff">
<path fill="#000000" opacity="1.00" d=" M 23.29 7.25 C 30.42 4.14 38.01 7.34 44.47 10.52 C 47.30 12.19 48.30 15.55 49.89 18.23 C 51.56 21.67 54.28 24.92 54.00 28.98 C 53.99 33.29 54.10 37.62 53.87 41.93 C 51.95 41.99 50.03 41.99 48.11 41.91 C 47.83 37.50 48.19 33.07 47.91 28.67 C 46.86 26.18 45.28 23.97 44.00 21.60 C 43.30 25.72 42.31 29.82 42.07 34.01 C 42.50 39.63 44.27 45.16 43.85 50.83 C 43.60 51.08 43.12 51.58 42.87 51.83 C 39.27 52.23 35.62 51.90 32.00 52.00 C 32.02 44.11 31.96 36.22 32.03 28.33 C 36.44 23.81 35.54 16.91 35.95 11.12 C 32.12 9.67 27.87 9.66 24.05 11.13 C 24.45 16.91 23.55 23.82 27.97 28.33 C 28.04 36.22 27.98 44.11 28.00 52.00 C 24.38 51.91 20.75 52.22 17.14 51.84 C 15.64 51.11 16.10 49.32 16.10 47.99 C 16.30 43.29 17.55 38.71 17.93 34.03 C 17.70 29.84 16.70 25.73 16.00 21.60 C 14.63 24.68 11.63 27.33 11.98 30.95 C 11.99 34.60 12.08 38.26 11.89 41.92 C 9.97 41.99 8.04 41.99 6.12 41.93 C 6.05 36.56 5.66 31.13 6.32 25.79 C 8.02 21.54 10.53 17.65 12.63 13.58 C 14.71 9.60 19.61 9.04 23.29 7.25 Z" />
</g>
</svg>
