<?xml version="1.0" encoding="UTF-8" ?>
<!DOCTYPE svg PUBLIC "-//W3C//DTD SVG 1.1//EN" "http://www.w3.org/Graphics/SVG/1.1/DTD/svg11.dtd">
<svg width="200pt" height="200pt" viewBox="0 0 200 200" version="1.1" xmlns="http://www.w3.org/2000/svg">
<g id="#ffffffff">
<path fill="#ffffff" opacity="1.00" d=" M 0.00 0.00 L 200.00 0.00 L 200.00 200.00 L 0.00 200.00 L 0.00 0.00 M 79.78 56.46 C 79.67 57.55 79.52 58.64 79.33 59.72 C 78.67 59.44 77.35 58.89 76.68 58.62 C 69.81 62.38 63.26 66.78 56.57 70.88 C 56.40 72.01 56.20 73.14 55.97 74.27 C 55.11 73.77 54.25 73.26 53.40 72.76 C 46.65 76.93 39.91 81.11 33.14 85.25 C 33.30 86.41 33.12 87.51 32.60 88.58 C 31.98 88.22 30.74 87.49 30.12 87.12 C 23.20 91.44 16.23 95.70 9.29 100.00 C 15.86 104.02 22.40 108.10 28.97 112.12 C 30.18 113.20 31.56 111.94 32.76 111.61 C 33.15 112.63 33.28 113.67 33.15 114.73 C 39.92 118.87 46.66 123.05 53.40 127.22 C 54.26 126.71 55.12 126.21 55.98 125.71 C 56.21 126.83 56.40 127.96 56.56 129.09 C 63.13 133.19 69.66 137.36 76.35 141.27 C 77.09 141.03 78.58 140.54 79.32 140.29 C 79.54 141.36 79.70 142.45 79.80 143.54 C 86.56 147.64 93.26 151.83 100.00 155.97 C 106.73 151.83 113.43 147.63 120.20 143.54 C 120.28 142.43 120.44 141.34 120.66 140.26 C 121.33 140.53 122.65 141.09 123.31 141.36 C 130.18 137.59 136.74 133.20 143.43 129.09 C 143.59 127.95 143.79 126.83 144.02 125.71 C 144.87 126.21 145.72 126.72 146.57 127.22 C 153.32 123.05 160.05 118.87 166.82 114.74 C 166.70 113.60 166.87 112.49 167.32 111.42 C 167.97 111.78 169.27 112.50 169.92 112.86 C 176.78 108.48 183.77 104.29 190.70 100.00 C 183.80 95.68 176.77 91.55 169.97 87.09 C 169.37 87.43 168.18 88.11 167.59 88.45 C 167.26 87.97 166.61 87.02 166.28 86.54 C 166.53 86.28 167.01 85.75 167.25 85.49 C 160.33 81.30 153.47 77.02 146.59 72.76 C 145.73 73.27 144.87 73.77 144.01 74.26 C 143.78 73.14 143.58 72.02 143.41 70.88 C 137.46 67.07 131.38 63.45 125.41 59.68 C 123.94 58.28 122.23 58.72 120.64 59.70 C 120.47 58.63 120.33 57.56 120.20 56.48 C 113.46 52.34 106.73 48.17 100.00 44.01 C 93.26 48.16 86.54 52.34 79.78 56.46 Z" />
<path fill="#ffffff" opacity="1.00" d=" M 84.79 63.58 C 85.10 62.96 85.71 61.72 86.01 61.10 C 87.96 62.35 89.92 63.57 91.90 64.77 C 91.56 65.31 90.90 66.38 90.56 66.92 C 88.68 65.74 86.78 64.58 84.79 63.58 Z" />
<path fill="#ffffff" opacity="1.00" d=" M 107.86 64.91 C 109.80 63.74 111.72 62.53 113.65 61.34 C 114.09 62.07 114.53 62.79 114.98 63.52 C 113.04 64.70 111.11 65.88 109.18 67.08 C 108.85 66.54 108.19 65.46 107.86 64.91 Z" />
<path fill="#ffffff" opacity="1.00" d=" M 97.50 74.29 C 96.20 72.50 96.40 70.33 97.46 68.48 C 99.09 69.57 100.74 69.61 102.41 68.63 C 102.82 70.04 103.48 71.57 103.06 73.06 C 102.20 74.43 100.90 73.22 99.82 72.91 C 99.24 73.26 98.08 73.95 97.50 74.29 Z" />
<path fill="#ffffff" opacity="1.00" d=" M 61.48 77.72 C 61.81 77.18 62.48 76.10 62.81 75.55 C 64.63 77.19 70.02 78.12 67.44 81.40 C 65.45 80.18 63.47 78.94 61.48 77.72 Z" />
<path fill="#ffffff" opacity="1.00" d=" M 84.63 79.25 C 86.57 78.07 88.50 76.86 90.42 75.67 C 90.76 76.21 91.43 77.29 91.77 77.84 C 89.83 79.02 87.89 80.20 85.97 81.40 C 85.63 80.86 84.97 79.79 84.63 79.25 Z" />
<path fill="#ffffff" opacity="1.00" d=" M 109.29 75.51 C 111.23 76.70 113.17 77.90 115.11 79.09 C 114.78 79.63 114.12 80.72 113.79 81.26 C 111.86 80.07 109.92 78.88 107.98 77.70 C 108.31 77.15 108.96 76.06 109.29 75.51 Z" />
<path fill="#ffffff" opacity="1.00" d=" M 131.13 79.26 C 133.07 78.08 135.00 76.90 136.93 75.71 C 137.26 76.24 137.94 77.32 138.27 77.86 C 136.33 79.05 134.38 80.24 132.45 81.44 C 132.12 80.90 131.46 79.81 131.13 79.26 Z" />
<path fill="#ffffff" opacity="1.00" d=" M 74.16 82.61 C 75.03 83.12 75.91 83.63 76.79 84.15 C 77.32 83.78 78.39 83.04 78.92 82.66 C 79.43 84.07 80.05 85.51 79.98 87.04 C 79.67 87.33 79.06 87.90 78.75 88.19 C 77.21 86.87 75.55 87.64 74.00 88.46 C 73.70 87.50 73.42 86.52 73.39 85.51 C 73.54 84.51 73.79 83.55 74.16 82.61 Z" />
<path fill="#ffffff" opacity="1.00" d=" M 119.66 83.71 C 120.82 83.02 122.06 83.36 123.25 83.76 C 124.21 83.64 125.45 82.72 126.14 83.92 C 127.20 85.44 126.01 87.06 125.51 88.51 C 124.94 88.16 123.81 87.46 123.25 87.10 C 122.59 87.51 121.27 88.33 120.61 88.74 C 120.29 87.06 120.09 85.36 119.66 83.71 Z" />
<path fill="#ffffff" opacity="1.00" d=" M 39.54 90.12 C 41.61 90.99 43.42 92.34 45.34 93.49 C 45.01 94.03 44.35 95.12 44.02 95.66 C 42.04 94.43 40.06 93.22 38.07 92.00 C 38.44 91.53 39.18 90.59 39.54 90.12 Z" />
<path fill="#ffffff" opacity="1.00" d=" M 61.26 93.38 C 63.32 92.47 65.12 91.00 67.27 90.31 C 67.64 90.74 68.38 91.60 68.75 92.04 C 66.73 93.28 64.70 94.52 62.70 95.80 C 62.34 95.19 61.62 93.98 61.26 93.38 Z" />
<path fill="#ffffff" opacity="1.00" d=" M 86.04 89.86 C 87.96 91.09 89.90 92.30 91.84 93.48 C 91.50 94.02 90.82 95.09 90.48 95.63 C 88.57 94.39 86.62 93.21 84.65 92.08 C 85.00 91.53 85.70 90.42 86.04 89.86 Z" />
<path fill="#ffffff" opacity="1.00" d=" M 108.03 93.52 C 109.96 92.34 111.91 91.18 113.82 89.95 C 114.14 90.82 114.57 91.63 115.10 92.39 C 112.98 93.41 110.95 94.60 109.01 95.92 C 108.76 95.32 108.27 94.12 108.03 93.52 Z" />
<path fill="#ffffff" opacity="1.00" d=" M 132.55 90.06 C 134.61 90.93 136.42 92.27 138.32 93.42 C 137.99 93.96 137.33 95.05 137.00 95.60 C 135.02 94.36 133.03 93.14 131.05 91.91 C 131.42 91.45 132.17 90.52 132.55 90.06 Z" />
<path fill="#ffffff" opacity="1.00" d=" M 154.41 93.65 C 156.33 92.53 158.09 91.05 160.21 90.30 C 160.58 90.75 161.34 91.65 161.71 92.10 C 159.72 93.35 157.72 94.57 155.73 95.81 C 155.40 95.27 154.74 94.19 154.41 93.65 Z" />
<path fill="#ffffff" opacity="1.00" d=" M 50.93 96.92 C 51.53 97.31 52.73 98.10 53.33 98.49 C 54.23 98.01 55.14 97.53 56.05 97.05 C 56.58 98.92 56.61 100.90 56.11 102.78 C 54.52 101.94 52.81 101.37 51.25 102.67 C 50.99 102.47 50.47 102.06 50.21 101.85 C 50.24 100.18 50.39 98.51 50.93 96.92 Z" />
<path fill="#ffffff" opacity="1.00" d=" M 97.49 97.48 C 99.15 98.03 100.83 98.06 102.44 97.33 C 103.32 99.12 103.17 101.10 102.33 102.88 C 101.78 102.57 100.69 101.96 100.14 101.65 C 99.21 102.08 98.25 102.43 97.26 102.71 C 96.58 101.20 96.01 98.56 97.49 97.48 Z" />
<path fill="#ffffff" opacity="1.00" d=" M 143.94 102.93 C 142.96 101.08 143.03 98.90 143.92 97.03 C 145.53 98.11 147.25 98.62 148.95 97.33 C 149.65 99.04 149.61 100.91 149.13 102.67 C 147.38 101.60 145.58 101.69 143.94 102.93 Z" />
<path fill="#ffffff" opacity="1.00" d=" M 109.19 104.19 C 111.06 105.37 113.15 106.30 114.76 107.86 C 114.56 108.41 114.18 109.52 113.99 110.07 C 111.98 108.85 109.96 107.65 107.95 106.43 C 108.38 105.69 108.79 104.94 109.19 104.19 Z" />
<path fill="#ffffff" opacity="1.00" d=" M 38.23 107.88 C 40.16 106.69 42.10 105.51 44.02 104.31 C 44.35 104.86 45.01 105.95 45.34 106.50 C 43.37 107.69 41.41 108.89 39.44 110.07 C 39.14 109.52 38.54 108.43 38.23 107.88 Z" />
<path fill="#ffffff" opacity="1.00" d=" M 61.41 106.38 C 61.75 105.85 62.42 104.78 62.76 104.25 C 64.74 105.48 66.74 106.70 68.73 107.94 C 68.36 108.38 67.63 109.28 67.26 109.73 C 65.12 108.98 63.32 107.55 61.41 106.38 Z" />
<path fill="#ffffff" opacity="1.00" d=" M 84.69 107.94 C 86.63 106.76 88.54 105.55 90.47 104.36 C 90.81 104.89 91.50 105.96 91.85 106.49 C 89.91 107.69 87.97 108.89 86.04 110.09 C 85.70 109.56 85.03 108.48 84.69 107.94 Z" />
<path fill="#ffffff" opacity="1.00" d=" M 131.05 108.05 C 133.03 106.83 135.02 105.61 137.00 104.38 C 137.33 104.93 137.99 106.01 138.32 106.55 C 136.40 107.69 134.61 109.08 132.53 109.92 C 132.16 109.45 131.42 108.52 131.05 108.05 Z" />
<path fill="#ffffff" opacity="1.00" d=" M 154.40 106.32 C 154.74 105.78 155.41 104.71 155.74 104.17 C 157.67 105.37 159.61 106.57 161.55 107.76 C 161.21 108.30 160.54 109.38 160.20 109.93 C 158.27 108.72 156.34 107.52 154.40 106.32 Z" />
<path fill="#ffffff" opacity="1.00" d=" M 73.42 114.44 C 72.69 109.64 77.10 113.88 79.15 111.64 C 80.28 113.53 80.04 115.49 78.88 117.30 C 78.36 116.93 77.33 116.20 76.81 115.84 C 75.93 116.34 75.04 116.84 74.16 117.34 C 73.98 116.62 73.61 115.16 73.42 114.44 Z" />
<path fill="#ffffff" opacity="1.00" d=" M 119.53 113.40 C 119.84 112.95 120.45 112.03 120.76 111.58 C 122.33 112.54 124.04 112.93 125.64 111.70 C 126.30 113.26 127.31 115.46 125.50 116.69 C 124.74 116.57 123.98 116.41 123.24 116.22 C 121.96 116.81 120.62 116.88 119.39 116.10 C 119.71 115.66 120.34 114.77 120.66 114.33 L 119.53 113.40 Z" />
<path fill="#ffffff" opacity="1.00" d=" M 61.48 122.27 C 63.46 121.05 65.43 119.82 67.41 118.60 C 67.66 119.11 68.15 120.13 68.39 120.64 C 66.80 122.26 64.71 123.22 62.81 124.41 C 62.48 123.87 61.81 122.80 61.48 122.27 Z" />
<path fill="#ffffff" opacity="1.00" d=" M 84.64 120.74 C 84.97 120.20 85.63 119.12 85.96 118.58 C 87.91 119.82 89.87 121.05 91.95 122.05 C 91.29 122.71 90.79 123.49 90.46 124.37 C 88.53 123.13 86.59 121.92 84.64 120.74 Z" />
<path fill="#ffffff" opacity="1.00" d=" M 107.97 122.30 C 109.91 121.11 111.85 119.92 113.78 118.72 C 114.11 119.26 114.78 120.34 115.12 120.88 C 113.17 122.07 111.23 123.27 109.29 124.47 C 108.96 123.93 108.30 122.84 107.97 122.30 Z" />
<path fill="#ffffff" opacity="1.00" d=" M 131.02 120.57 C 131.40 120.07 132.16 119.07 132.55 118.57 C 134.45 119.76 136.35 120.96 138.27 122.13 C 137.93 122.67 137.26 123.75 136.93 124.29 C 134.95 123.07 132.98 121.82 131.02 120.57 Z" />
<path fill="#ffffff" opacity="1.00" d=" M 97.48 131.49 C 96.28 129.67 96.34 127.48 97.48 125.65 C 98.10 126.05 99.36 126.85 99.99 127.24 C 100.50 126.92 101.52 126.29 102.03 125.97 C 102.38 126.33 103.08 127.04 103.43 127.40 L 102.92 127.93 C 102.96 129.10 102.77 130.25 102.45 131.37 C 100.77 130.34 99.12 130.39 97.48 131.49 Z" />
<path fill="#ffffff" opacity="1.00" d=" M 84.78 136.40 C 86.78 135.39 88.71 134.23 90.61 133.05 C 90.92 133.59 91.56 134.68 91.87 135.22 C 89.91 136.42 87.95 137.63 86.01 138.87 C 85.70 138.25 85.09 137.02 84.78 136.40 Z" />
<path fill="#ffffff" opacity="1.00" d=" M 109.18 132.90 C 111.11 134.10 113.05 135.29 114.99 136.48 C 114.53 137.19 114.09 137.92 113.65 138.65 C 111.71 137.45 109.80 136.24 107.86 135.06 C 108.19 134.52 108.85 133.44 109.18 132.90 Z" />
</g>
<g id="#000000ff">
<path fill="#968176" opacity="1.00" d=" M 79.78 56.46 C 86.54 52.34 93.26 48.16 100.00 44.01 C 106.73 48.17 113.46 52.34 120.20 56.48 C 120.33 57.56 120.47 58.63 120.64 59.70 C 122.23 58.72 123.94 58.28 125.41 59.68 C 131.38 63.45 137.46 67.07 143.41 70.88 C 143.58 72.02 143.78 73.14 144.01 74.26 C 144.87 73.77 145.73 73.27 146.59 72.76 C 153.47 77.02 160.33 81.30 167.25 85.49 C 167.01 85.75 166.53 86.28 166.28 86.54 C 166.61 87.02 167.26 87.97 167.59 88.45 C 168.18 88.11 169.37 87.43 169.97 87.09 C 176.77 91.55 183.80 95.68 190.70 100.00 C 183.77 104.29 176.78 108.48 169.92 112.86 C 169.27 112.50 167.97 111.78 167.32 111.42 C 166.87 112.49 166.70 113.60 166.82 114.74 C 160.05 118.87 153.32 123.05 146.57 127.22 C 145.72 126.72 144.87 126.21 144.02 125.71 C 143.79 126.83 143.59 127.95 143.43 129.09 C 136.74 133.20 130.18 137.59 123.31 141.36 C 122.65 141.09 121.33 140.53 120.66 140.26 C 120.44 141.34 120.28 142.43 120.20 143.54 C 113.43 147.63 106.73 151.83 100.00 155.97 C 93.26 151.83 86.56 147.64 79.80 143.54 C 79.70 142.45 79.54 141.36 79.32 140.29 C 78.58 140.54 77.09 141.03 76.35 141.27 C 69.66 137.36 63.13 133.19 56.56 129.09 C 56.40 127.96 56.21 126.83 55.98 125.71 C 55.12 126.21 54.26 126.71 53.40 127.22 C 46.66 123.05 39.92 118.87 33.15 114.73 C 33.28 113.67 33.15 112.63 32.76 111.61 C 31.56 111.94 30.18 113.20 28.97 112.12 C 22.40 108.10 15.86 104.02 9.29 100.00 C 16.23 95.70 23.20 91.44 30.12 87.12 C 30.74 87.49 31.98 88.22 32.60 88.58 C 33.12 87.51 33.30 86.41 33.14 85.25 C 39.91 81.11 46.65 76.93 53.40 72.76 C 54.25 73.26 55.11 73.77 55.97 74.27 C 56.20 73.14 56.40 72.01 56.57 70.88 C 63.26 66.78 69.81 62.38 76.68 58.62 C 77.35 58.89 78.67 59.44 79.33 59.72 C 79.52 58.64 79.67 57.55 79.78 56.46 M 84.79 63.58 C 86.78 64.58 88.68 65.74 90.56 66.92 C 90.90 66.38 91.56 65.31 91.90 64.77 C 89.92 63.57 87.96 62.35 86.01 61.10 C 85.71 61.72 85.10 62.96 84.79 63.58 M 107.86 64.91 C 108.19 65.46 108.85 66.54 109.18 67.08 C 111.11 65.88 113.04 64.70 114.98 63.52 C 114.53 62.79 114.09 62.07 113.65 61.34 C 111.72 62.53 109.80 63.74 107.86 64.91 M 97.50 74.29 C 98.08 73.95 99.24 73.26 99.82 72.91 C 100.90 73.22 102.20 74.43 103.06 73.06 C 103.48 71.57 102.82 70.04 102.41 68.63 C 100.74 69.61 99.09 69.57 97.46 68.48 C 96.40 70.33 96.20 72.50 97.50 74.29 M 61.48 77.72 C 63.47 78.94 65.45 80.18 67.44 81.40 C 70.02 78.12 64.63 77.19 62.81 75.55 C 62.48 76.10 61.81 77.18 61.48 77.72 M 84.63 79.25 C 84.97 79.79 85.63 80.86 85.97 81.40 C 87.89 80.20 89.83 79.02 91.77 77.84 C 91.43 77.29 90.76 76.21 90.42 75.67 C 88.50 76.86 86.57 78.07 84.63 79.25 M 109.29 75.51 C 108.96 76.06 108.31 77.15 107.98 77.70 C 109.92 78.88 111.86 80.07 113.79 81.26 C 114.12 80.72 114.78 79.63 115.11 79.09 C 113.17 77.90 111.23 76.70 109.29 75.51 M 131.13 79.26 C 131.46 79.81 132.12 80.90 132.45 81.44 C 134.38 80.24 136.33 79.05 138.27 77.86 C 137.94 77.32 137.26 76.24 136.93 75.71 C 135.00 76.90 133.07 78.08 131.13 79.26 M 74.16 82.61 C 73.79 83.55 73.54 84.51 73.39 85.51 C 73.42 86.52 73.70 87.50 74.00 88.46 C 75.55 87.64 77.21 86.87 78.75 88.19 C 79.06 87.90 79.67 87.33 79.98 87.04 C 80.05 85.51 79.43 84.07 78.92 82.66 C 78.39 83.04 77.32 83.78 76.79 84.15 C 75.91 83.63 75.03 83.12 74.16 82.61 M 119.66 83.71 C 120.09 85.36 120.29 87.06 120.61 88.74 C 121.27 88.33 122.59 87.51 123.25 87.10 C 123.81 87.46 124.94 88.16 125.51 88.51 C 126.01 87.06 127.20 85.44 126.14 83.92 C 125.45 82.72 124.21 83.64 123.25 83.76 C 122.06 83.36 120.82 83.02 119.66 83.71 M 39.54 90.12 C 39.18 90.59 38.44 91.53 38.07 92.00 C 40.06 93.22 42.04 94.43 44.02 95.66 C 44.35 95.12 45.01 94.03 45.34 93.49 C 43.42 92.34 41.61 90.99 39.54 90.12 M 61.26 93.38 C 61.62 93.98 62.34 95.19 62.70 95.80 C 64.70 94.52 66.73 93.28 68.75 92.04 C 68.38 91.60 67.64 90.74 67.27 90.31 C 65.12 91.00 63.32 92.47 61.26 93.38 M 86.04 89.86 C 85.70 90.42 85.00 91.53 84.65 92.08 C 86.62 93.21 88.57 94.39 90.48 95.63 C 90.82 95.09 91.50 94.02 91.84 93.48 C 89.90 92.30 87.96 91.09 86.04 89.86 M 108.03 93.52 C 108.27 94.12 108.76 95.32 109.01 95.92 C 110.95 94.60 112.98 93.41 115.10 92.39 C 114.57 91.63 114.14 90.82 113.82 89.95 C 111.91 91.18 109.96 92.34 108.03 93.52 M 132.55 90.06 C 132.17 90.52 131.42 91.45 131.05 91.91 C 133.03 93.14 135.02 94.36 137.00 95.60 C 137.33 95.05 137.99 93.96 138.32 93.42 C 136.42 92.27 134.61 90.93 132.55 90.06 M 154.41 93.65 C 154.74 94.19 155.40 95.27 155.73 95.81 C 157.72 94.57 159.72 93.35 161.71 92.10 C 161.34 91.65 160.58 90.75 160.21 90.30 C 158.09 91.05 156.33 92.53 154.41 93.65 M 50.93 96.92 C 50.39 98.51 50.24 100.18 50.21 101.85 C 50.47 102.06 50.99 102.47 51.25 102.67 C 52.81 101.37 54.52 101.94 56.11 102.78 C 56.61 100.90 56.58 98.92 56.05 97.05 C 55.14 97.53 54.23 98.01 53.33 98.49 C 52.73 98.10 51.53 97.31 50.93 96.92 M 97.49 97.48 C 96.01 98.56 96.58 101.20 97.26 102.71 C 98.25 102.43 99.21 102.08 100.14 101.65 C 100.69 101.96 101.78 102.57 102.33 102.88 C 103.17 101.10 103.32 99.12 102.44 97.33 C 100.83 98.06 99.15 98.03 97.49 97.48 M 143.94 102.93 C 145.58 101.69 147.38 101.60 149.13 102.67 C 149.61 100.91 149.65 99.04 148.95 97.33 C 147.25 98.62 145.53 98.11 143.92 97.03 C 143.03 98.90 142.96 101.08 143.94 102.93 M 109.19 104.19 C 108.79 104.94 108.38 105.69 107.95 106.43 C 109.96 107.65 111.98 108.85 113.99 110.07 C 114.18 109.52 114.56 108.41 114.76 107.86 C 113.15 106.30 111.06 105.37 109.19 104.19 M 38.23 107.88 C 38.54 108.43 39.14 109.52 39.44 110.07 C 41.41 108.89 43.37 107.69 45.34 106.50 C 45.01 105.95 44.35 104.86 44.02 104.31 C 42.10 105.51 40.16 106.69 38.23 107.88 M 61.41 106.38 C 63.32 107.55 65.12 108.98 67.26 109.73 C 67.63 109.28 68.36 108.38 68.73 107.94 C 66.74 106.70 64.74 105.48 62.76 104.25 C 62.42 104.78 61.75 105.85 61.41 106.38 M 84.69 107.94 C 85.03 108.48 85.70 109.56 86.04 110.09 C 87.97 108.89 89.91 107.69 91.85 106.49 C 91.50 105.96 90.81 104.89 90.47 104.36 C 88.54 105.55 86.63 106.76 84.69 107.94 M 131.05 108.05 C 131.42 108.52 132.16 109.45 132.53 109.92 C 134.61 109.08 136.40 107.69 138.32 106.55 C 137.99 106.01 137.33 104.93 137.00 104.38 C 135.02 105.61 133.03 106.83 131.05 108.05 M 154.40 106.32 C 156.34 107.52 158.27 108.72 160.20 109.93 C 160.54 109.38 161.21 108.30 161.55 107.76 C 159.61 106.57 157.67 105.37 155.74 104.17 C 155.41 104.71 154.74 105.78 154.40 106.32 M 73.42 114.44 C 73.61 115.16 73.98 116.62 74.16 117.34 C 75.04 116.84 75.93 116.34 76.81 115.84 C 77.33 116.20 78.36 116.93 78.88 117.30 C 80.04 115.49 80.28 113.53 79.15 111.64 C 77.10 113.88 72.69 109.64 73.42 114.44 M 119.53 113.40 L 120.66 114.33 C 120.34 114.77 119.71 115.66 119.39 116.10 C 120.62 116.88 121.96 116.81 123.24 116.22 C 123.98 116.41 124.74 116.57 125.50 116.69 C 127.31 115.46 126.30 113.26 125.64 111.70 C 124.04 112.93 122.33 112.54 120.76 111.58 C 120.45 112.03 119.84 112.95 119.53 113.40 M 61.48 122.27 C 61.81 122.80 62.48 123.87 62.81 124.41 C 64.71 123.22 66.80 122.26 68.39 120.64 C 68.15 120.13 67.66 119.11 67.41 118.60 C 65.43 119.82 63.46 121.05 61.48 122.27 M 84.64 120.74 C 86.59 121.92 88.53 123.13 90.46 124.37 C 90.79 123.49 91.29 122.71 91.95 122.05 C 89.87 121.05 87.91 119.82 85.96 118.58 C 85.63 119.12 84.97 120.20 84.64 120.74 M 107.97 122.30 C 108.30 122.84 108.96 123.93 109.29 124.47 C 111.23 123.27 113.17 122.07 115.12 120.88 C 114.78 120.34 114.11 119.26 113.78 118.72 C 111.85 119.92 109.91 121.11 107.97 122.30 M 131.02 120.57 C 132.98 121.82 134.95 123.07 136.93 124.29 C 137.26 123.75 137.93 122.67 138.27 122.13 C 136.35 120.96 134.45 119.76 132.55 118.57 C 132.16 119.07 131.40 120.07 131.02 120.57 M 97.48 131.49 C 99.12 130.39 100.77 130.34 102.45 131.37 C 102.77 130.25 102.96 129.10 102.92 127.93 L 103.43 127.40 C 103.08 127.04 102.38 126.33 102.03 125.97 C 101.52 126.29 100.50 126.92 99.99 127.24 C 99.36 126.85 98.10 126.05 97.48 125.65 C 96.34 127.48 96.28 129.67 97.48 131.49 M 84.78 136.40 C 85.09 137.02 85.70 138.25 86.01 138.87 C 87.95 137.63 89.91 136.42 91.87 135.22 C 91.56 134.68 90.92 133.59 90.61 133.05 C 88.71 134.23 86.78 135.39 84.78 136.40 M 109.18 132.90 C 108.85 133.44 108.19 134.52 107.86 135.06 C 109.80 136.24 111.71 137.45 113.65 138.65 C 114.09 137.92 114.53 137.19 114.99 136.48 C 113.05 135.29 111.11 134.10 109.18 132.90 Z" />
</g>
</svg>
