<?xml version="1.0" encoding="UTF-8" ?>
<!DOCTYPE svg PUBLIC "-//W3C//DTD SVG 1.1//EN" "http://www.w3.org/Graphics/SVG/1.1/DTD/svg11.dtd">
<svg width="64pt" height="64pt" viewBox="0 0 64 64" version="1.1" xmlns="http://www.w3.org/2000/svg">
<g id="#ffffffff">
<path fill="#ffffff" opacity="1.00" d=" M 0.00 0.00 L 64.00 0.00 L 64.00 64.00 L 0.00 64.00 L 0.00 0.00 M 43.54 17.86 C 39.60 17.22 35.66 16.61 31.74 15.84 C 27.63 18.41 23.62 21.13 19.61 23.85 C 15.73 23.17 11.87 22.36 8.01 21.56 C 7.99 33.04 8.00 44.52 8.00 56.00 C 24.00 56.00 40.00 56.00 56.00 56.00 C 56.00 40.04 56.00 24.08 56.00 8.12 C 51.83 11.35 47.68 14.60 43.54 17.86 Z" />
<path fill="#ffffff" opacity="1.00" d=" M 44.62 22.10 C 47.05 20.14 49.54 18.25 51.99 16.32 C 52.01 19.90 52.00 23.48 52.00 27.06 C 49.18 29.28 46.40 31.55 43.56 33.75 C 39.61 32.43 35.67 31.10 31.72 29.81 C 27.70 32.38 23.76 35.08 19.80 37.75 C 17.21 36.71 14.63 35.63 12.02 34.65 C 11.99 31.91 11.99 29.18 12.01 26.44 C 14.77 26.98 17.54 27.49 20.28 28.13 C 24.39 25.72 28.19 22.83 32.23 20.30 C 36.38 20.45 40.47 21.66 44.62 22.10 Z" />
<path fill="#ffffff" opacity="1.00" d=" M 44.35 38.24 C 46.95 36.29 49.44 34.19 52.00 32.20 C 52.00 38.80 52.00 45.40 52.00 52.00 C 38.67 52.00 25.33 52.00 12.00 52.00 C 12.00 47.65 11.98 43.31 12.02 38.96 C 14.77 40.02 17.48 41.16 20.21 42.26 C 24.25 39.63 28.28 36.99 32.22 34.22 C 36.30 35.43 40.33 36.84 44.35 38.24 Z" />
</g>
<g id="#000000ff">
<path fill="#000000" opacity="1.00" d=" M 43.54 17.86 C 47.68 14.60 51.83 11.35 56.00 8.12 C 56.00 24.08 56.00 40.04 56.00 56.00 C 40.00 56.00 24.00 56.00 8.00 56.00 C 8.00 44.52 7.99 33.04 8.01 21.56 C 11.87 22.36 15.73 23.17 19.61 23.85 C 23.62 21.13 27.63 18.41 31.74 15.84 C 35.66 16.61 39.60 17.22 43.54 17.86 M 44.62 22.10 C 40.47 21.66 36.38 20.45 32.23 20.30 C 28.19 22.83 24.39 25.72 20.28 28.13 C 17.54 27.49 14.77 26.98 12.01 26.44 C 11.99 29.18 11.99 31.91 12.02 34.65 C 14.63 35.63 17.21 36.71 19.80 37.75 C 23.76 35.08 27.70 32.38 31.72 29.81 C 35.67 31.10 39.61 32.43 43.56 33.75 C 46.40 31.55 49.18 29.28 52.00 27.06 C 52.00 23.48 52.01 19.90 51.99 16.32 C 49.54 18.25 47.05 20.14 44.62 22.10 M 44.35 38.24 C 40.33 36.84 36.30 35.43 32.22 34.22 C 28.28 36.99 24.25 39.63 20.21 42.26 C 17.48 41.16 14.77 40.02 12.02 38.96 C 11.98 43.31 12.00 47.65 12.00 52.00 C 25.33 52.00 38.67 52.00 52.00 52.00 C 52.00 45.40 52.00 38.80 52.00 32.20 C 49.44 34.19 46.95 36.29 44.35 38.24 Z" />
</g>
</svg>
