<?xml version="1.0" encoding="UTF-8" ?>
<!DOCTYPE svg PUBLIC "-//W3C//DTD SVG 1.1//EN" "http://www.w3.org/Graphics/SVG/1.1/DTD/svg11.dtd">
<svg width="60pt" height="60pt" viewBox="0 0 60 60" version="1.1" xmlns="http://www.w3.org/2000/svg">
<g id="#ffffffff">
<path fill="#ffffff" opacity="1.00" d=" M 0.00 0.00 L 60.00 0.00 L 60.00 60.00 L 0.00 60.00 L 0.00 0.00 M 19.67 15.71 C 16.48 14.51 13.41 12.96 10.12 12.07 C 8.48 11.78 7.82 13.64 8.02 14.93 C 8.00 25.97 7.95 37.02 8.05 48.06 C 7.98 50.56 10.56 52.35 12.91 52.00 C 24.64 51.97 36.37 52.07 48.10 51.95 C 50.61 51.99 52.35 49.38 52.00 47.03 C 51.94 34.68 52.12 22.32 51.91 9.98 C 52.13 8.57 50.34 7.56 49.17 8.24 C 46.05 9.30 43.07 10.69 40.00 11.85 C 36.68 10.58 33.47 9.01 30.05 8.02 C 26.12 9.72 23.20 13.28 19.67 15.71 Z" />
<path fill="#ffffff" opacity="1.00" d=" M 39.98 32.02 C 42.65 29.87 45.33 27.75 48.00 25.60 C 48.01 33.07 48.00 40.53 48.00 48.00 C 36.00 48.00 24.00 48.00 12.00 48.00 C 12.00 43.32 12.00 38.65 12.00 33.97 C 14.68 36.64 17.35 39.30 20.00 42.00 C 23.34 37.98 26.70 33.97 30.03 29.95 C 33.35 30.62 36.67 31.31 39.98 32.02 Z" />
</g>
<g id="#000000ff">
<path fill="#000000" opacity="1.00" d=" M 19.67 15.71 C 23.20 13.28 26.12 9.72 30.05 8.02 C 33.47 9.01 36.68 10.58 40.00 11.85 C 43.07 10.69 46.05 9.30 49.17 8.24 C 50.34 7.56 52.13 8.57 51.91 9.98 C 52.12 22.32 51.94 34.68 52.00 47.03 C 52.35 49.38 50.61 51.99 48.10 51.95 C 36.37 52.07 24.64 51.97 12.91 52.00 C 10.56 52.35 7.98 50.56 8.05 48.06 C 7.95 37.02 8.00 25.97 8.02 14.93 C 7.82 13.64 8.48 11.78 10.12 12.07 C 13.41 12.96 16.48 14.51 19.67 15.71 M 39.98 32.02 C 36.67 31.31 33.35 30.62 30.03 29.95 C 26.70 33.97 23.34 37.98 20.00 42.00 C 17.35 39.30 14.68 36.64 12.00 33.97 C 12.00 38.65 12.00 43.32 12.00 48.00 C 24.00 48.00 36.00 48.00 48.00 48.00 C 48.00 40.53 48.01 33.07 48.00 25.60 C 45.33 27.75 42.65 29.87 39.98 32.02 Z" />
</g>
</svg>
