<?xml version="1.0" encoding="UTF-8" ?>
<!DOCTYPE svg PUBLIC "-//W3C//DTD SVG 1.1//EN" "http://www.w3.org/Graphics/SVG/1.1/DTD/svg11.dtd">
<svg width="64pt" height="64pt" viewBox="0 0 64 64" version="1.1" xmlns="http://www.w3.org/2000/svg">
<g id="#ffffffff">
<path fill="#ffffff" opacity="1.00" d=" M 0.00 0.00 L 64.00 0.00 L 64.00 64.00 L 0.00 64.00 L 0.00 0.00 M 13.96 10.09 C 11.07 12.50 10.12 16.39 9.93 20.00 C 11.27 19.99 12.61 19.99 13.95 20.00 C 14.28 17.43 14.66 14.44 16.91 12.78 C 19.41 11.34 22.94 11.92 24.71 14.26 C 27.27 17.56 28.09 21.81 28.74 25.85 C 30.13 35.83 29.98 45.95 30.00 56.01 C 31.33 55.98 32.67 55.98 34.00 56.00 C 34.02 45.17 33.82 34.23 35.80 23.54 C 36.55 20.11 37.44 16.47 39.86 13.80 C 41.64 11.81 44.86 11.46 47.12 12.81 C 49.33 14.48 49.74 17.44 50.03 20.00 C 51.38 19.98 52.72 19.99 54.07 20.00 C 53.87 16.39 52.93 12.50 50.03 10.08 C 46.36 6.95 40.37 7.47 37.12 10.97 C 34.26 13.80 33.16 17.78 32.04 21.52 C 30.97 17.57 29.80 13.29 26.55 10.53 C 23.18 7.41 17.50 7.09 13.96 10.09 Z" />
</g>
<g id="#000000ff">
<path fill="#000000" opacity="1.00" d=" M 13.96 10.09 C 17.50 7.09 23.18 7.41 26.55 10.53 C 29.80 13.29 30.97 17.57 32.04 21.52 C 33.16 17.78 34.26 13.80 37.12 10.97 C 40.37 7.47 46.36 6.95 50.03 10.08 C 52.93 12.50 53.87 16.39 54.07 20.00 C 52.72 19.99 51.38 19.98 50.03 20.00 C 49.74 17.44 49.33 14.48 47.12 12.81 C 44.86 11.46 41.64 11.81 39.86 13.80 C 37.44 16.47 36.55 20.11 35.80 23.54 C 33.82 34.23 34.02 45.17 34.00 56.00 C 32.67 55.98 31.33 55.98 30.00 56.01 C 29.98 45.95 30.13 35.83 28.74 25.85 C 28.09 21.81 27.27 17.56 24.71 14.26 C 22.94 11.92 19.41 11.34 16.91 12.78 C 14.66 14.44 14.28 17.43 13.95 20.00 C 12.61 19.99 11.27 19.99 9.93 20.00 C 10.12 16.39 11.07 12.50 13.96 10.09 Z" />
</g>
</svg>
