<?xml version="1.0" encoding="UTF-8" ?>
<!DOCTYPE svg PUBLIC "-//W3C//DTD SVG 1.1//EN" "http://www.w3.org/Graphics/SVG/1.1/DTD/svg11.dtd">
<svg width="60pt" height="60pt" viewBox="0 0 60 60" version="1.1" xmlns="http://www.w3.org/2000/svg">
<g id="#ffffffff">
<path fill="#ffffff" opacity="1.00" d=" M 0.00 0.00 L 60.00 0.00 L 60.00 60.00 L 0.00 60.00 L 0.00 0.00 M 28.73 5.34 C 26.87 10.40 25.26 15.54 23.52 20.65 C 18.32 20.82 13.12 20.73 7.93 20.88 C 6.64 20.85 5.95 21.52 5.87 22.91 C 10.39 26.32 14.95 29.66 19.46 33.07 C 17.87 38.40 16.03 43.66 14.57 49.03 C 14.95 49.36 15.71 50.03 16.09 50.36 C 20.93 47.47 25.33 43.88 29.99 40.72 C 34.00 43.48 37.93 46.34 41.89 49.15 C 42.95 50.10 44.83 51.07 45.41 49.02 C 43.97 43.65 42.12 38.39 40.53 33.06 C 44.99 29.66 49.67 26.51 53.98 22.91 C 53.90 22.51 53.76 21.70 53.69 21.30 C 48.11 20.25 42.21 21.05 36.51 20.68 C 34.72 15.57 33.14 10.39 31.26 5.33 C 30.41 4.10 29.57 4.10 28.73 5.34 M 9.90 16.79 C 11.59 16.80 13.28 16.80 14.97 16.79 C 17.09 14.56 19.60 12.74 22.39 11.44 C 22.92 9.88 23.44 8.32 23.94 6.76 C 18.24 8.31 13.27 11.95 9.90 16.79 M 36.05 6.76 C 36.55 8.32 37.07 9.88 37.60 11.44 C 40.38 12.76 42.94 14.51 45.02 16.79 C 46.72 16.80 48.42 16.80 50.12 16.80 C 46.73 11.98 41.77 8.32 36.05 6.76 M 6.01 28.10 C 5.64 34.26 7.56 40.45 11.44 45.25 C 11.84 43.62 12.87 41.98 12.77 40.29 C 11.35 37.34 10.22 34.26 10.01 30.96 C 8.69 29.98 7.36 29.03 6.01 28.10 M 49.99 31.04 C 49.69 34.35 48.71 37.55 47.05 40.44 C 47.53 42.06 48.04 43.68 48.56 45.29 C 52.41 40.45 54.36 34.26 53.99 28.09 C 52.64 29.05 51.30 30.03 49.99 31.04 M 20.79 52.20 C 26.68 54.56 33.39 54.55 39.27 52.16 C 37.92 51.21 36.57 50.27 35.21 49.34 C 31.77 50.13 28.21 50.14 24.78 49.33 C 23.44 50.27 22.11 51.22 20.79 52.20 Z" />
</g>
<g id="#000000ff">
<path fill="#968176" opacity="1.00" d=" M 28.73 5.34 C 29.57 4.10 30.41 4.10 31.26 5.33 C 33.14 10.39 34.72 15.57 36.51 20.68 C 42.21 21.05 48.11 20.25 53.69 21.30 C 53.76 21.70 53.90 22.51 53.98 22.91 C 49.67 26.51 44.99 29.66 40.53 33.06 C 42.12 38.39 43.97 43.65 45.41 49.02 C 44.83 51.07 42.95 50.10 41.89 49.15 C 37.93 46.34 34.00 43.48 29.99 40.72 C 25.33 43.88 20.93 47.47 16.09 50.36 C 15.71 50.03 14.95 49.36 14.57 49.03 C 16.03 43.66 17.87 38.40 19.46 33.07 C 14.95 29.66 10.39 26.32 5.87 22.91 C 5.95 21.52 6.64 20.85 7.93 20.88 C 13.12 20.73 18.32 20.82 23.52 20.65 C 25.26 15.54 26.87 10.40 28.73 5.34 Z" />
<path fill="#968176" opacity="1.00" d=" M 9.90 16.79 C 13.27 11.95 18.24 8.31 23.94 6.76 C 23.44 8.32 22.92 9.88 22.39 11.44 C 19.60 12.74 17.09 14.56 14.97 16.79 C 13.28 16.80 11.59 16.80 9.90 16.79 Z" />
<path fill="#968176" opacity="1.00" d=" M 36.05 6.76 C 41.77 8.32 46.73 11.98 50.12 16.80 C 48.42 16.80 46.72 16.80 45.02 16.79 C 42.94 14.51 40.38 12.76 37.60 11.44 C 37.07 9.88 36.55 8.32 36.05 6.76 Z" />
<path fill="#968176" opacity="1.00" d=" M 6.01 28.10 C 7.36 29.03 8.69 29.98 10.01 30.96 C 10.22 34.26 11.35 37.34 12.77 40.29 C 12.87 41.98 11.84 43.62 11.44 45.25 C 7.56 40.45 5.64 34.26 6.01 28.10 Z" />
<path fill="#968176" opacity="1.00" d=" M 49.99 31.04 C 51.30 30.03 52.64 29.05 53.99 28.09 C 54.36 34.26 52.41 40.45 48.56 45.29 C 48.04 43.68 47.53 42.06 47.05 40.44 C 48.71 37.55 49.69 34.35 49.99 31.04 Z" />
<path fill="#968176" opacity="1.00" d=" M 20.79 52.20 C 22.11 51.22 23.44 50.27 24.78 49.33 C 28.21 50.14 31.77 50.13 35.21 49.34 C 36.57 50.27 37.92 51.21 39.27 52.16 C 33.39 54.55 26.68 54.56 20.79 52.20 Z" />
</g>
</svg>
