<?xml version="1.0" encoding="UTF-8" ?>
<!DOCTYPE svg PUBLIC "-//W3C//DTD SVG 1.1//EN" "http://www.w3.org/Graphics/SVG/1.1/DTD/svg11.dtd">
<svg width="64pt" height="64pt" viewBox="0 0 64 64" version="1.1" xmlns="http://www.w3.org/2000/svg">
<g id="#ffffffff">
<path fill="#ffffff" opacity="1.00" d=" M 0.00 0.00 L 64.00 0.00 L 64.00 64.00 L 0.00 64.00 L 0.00 0.00 M 34.19 12.07 C 34.18 16.04 34.19 20.02 34.19 24.00 C 24.79 24.00 15.40 24.00 6.00 24.00 C 6.00 29.33 6.00 34.67 6.00 40.00 C 15.40 40.00 24.79 40.00 34.19 40.00 C 34.19 43.98 34.18 47.96 34.19 51.93 C 42.57 45.33 50.89 38.66 59.23 32.01 C 50.90 25.34 42.58 18.67 34.19 12.07 Z" />
<path fill="#ffffff" opacity="1.00" d=" M 38.20 20.38 C 43.09 24.23 47.96 28.10 52.81 32.00 C 47.96 35.90 43.08 39.76 38.20 43.62 C 38.19 41.08 38.19 38.54 38.19 36.00 C 28.79 35.99 19.40 36.00 10.00 36.00 C 10.00 33.33 10.00 30.67 10.00 28.00 C 19.40 28.00 28.79 28.01 38.19 28.00 C 38.19 25.46 38.19 22.92 38.20 20.38 Z" />
</g>
<g id="#000000ff">
<path fill="#000000" opacity="1.00" d=" M 34.19 12.07 C 42.58 18.67 50.90 25.34 59.23 32.01 C 50.89 38.66 42.57 45.33 34.19 51.93 C 34.18 47.96 34.19 43.98 34.19 40.00 C 24.79 40.00 15.40 40.00 6.00 40.00 C 6.00 34.67 6.00 29.33 6.00 24.00 C 15.40 24.00 24.79 24.00 34.19 24.00 C 34.19 20.02 34.18 16.04 34.19 12.07 M 38.20 20.38 C 38.19 22.92 38.19 25.46 38.19 28.00 C 28.79 28.01 19.40 28.00 10.00 28.00 C 10.00 30.67 10.00 33.33 10.00 36.00 C 19.40 36.00 28.79 35.99 38.19 36.00 C 38.19 38.54 38.19 41.08 38.20 43.62 C 43.08 39.76 47.96 35.90 52.81 32.00 C 47.96 28.10 43.09 24.23 38.20 20.38 Z" />
</g>
</svg>
