<?xml version="1.0" encoding="UTF-8" ?>
<!DOCTYPE svg PUBLIC "-//W3C//DTD SVG 1.1//EN" "http://www.w3.org/Graphics/SVG/1.1/DTD/svg11.dtd">
<svg width="60pt" height="60pt" viewBox="0 0 60 60" version="1.1" xmlns="http://www.w3.org/2000/svg">
<g id="#ffffffff">
<path fill="#ffffff" opacity="1.00" d=" M 0.00 0.00 L 60.00 0.00 L 60.00 60.00 L 0.00 60.00 L 0.00 0.00 M 6.61 7.34 C 12.35 12.10 18.20 16.72 23.99 21.41 C 24.01 29.61 23.99 37.80 24.00 46.00 C 17.33 46.00 10.67 46.00 4.00 46.00 C 4.00 46.50 4.00 47.50 4.00 48.00 C 10.67 48.00 17.33 48.00 24.00 48.00 C 24.00 49.33 24.00 50.67 24.00 52.00 C 17.33 52.00 10.67 52.00 4.00 52.00 C 4.00 52.50 4.00 53.50 4.00 54.00 C 10.56 54.02 17.11 53.96 23.67 54.03 C 24.32 55.75 26.75 56.95 27.78 54.86 C 28.68 49.34 28.49 43.69 29.40 38.18 C 30.35 35.69 31.91 33.51 33.13 31.15 C 39.02 28.69 44.97 26.37 50.78 23.73 C 52.17 23.41 52.46 21.40 51.41 20.58 C 50.49 19.50 49.01 20.31 47.90 20.54 C 43.28 22.04 38.64 23.49 34.01 24.97 C 34.00 23.65 33.99 22.34 34.00 21.03 C 39.25 16.96 44.46 12.82 49.73 8.76 C 50.78 7.81 52.75 6.83 51.89 5.09 C 51.31 3.75 49.67 3.77 48.63 4.50 C 41.74 8.17 34.95 12.03 28.05 15.70 C 21.58 11.90 15.26 7.83 8.69 4.21 C 6.86 3.07 4.92 6.11 6.61 7.34 M 34.47 34.69 C 31.22 36.41 31.23 41.59 34.47 43.31 C 37.60 45.37 42.16 42.67 42.01 38.98 C 42.13 35.30 37.59 32.63 34.47 34.69 M 32.00 46.00 C 32.00 46.50 32.00 47.50 32.00 48.00 C 40.00 48.00 48.00 48.00 56.00 48.00 C 56.00 47.50 56.00 46.50 56.00 46.00 C 48.00 46.00 40.00 46.00 32.00 46.00 M 32.00 52.00 C 32.00 52.50 32.00 53.50 32.00 54.00 C 40.00 54.00 48.00 54.00 56.00 54.00 C 56.00 53.50 56.00 52.50 56.00 52.00 C 48.00 52.00 40.00 52.00 32.00 52.00 Z" />
</g>
<g id="#000000ff">
<path fill="#000000" opacity="1.00" d=" M 6.61 7.34 C 4.92 6.11 6.86 3.07 8.69 4.21 C 15.26 7.83 21.58 11.90 28.05 15.70 C 34.95 12.03 41.74 8.17 48.63 4.50 C 49.67 3.77 51.31 3.75 51.89 5.09 C 52.75 6.83 50.78 7.81 49.73 8.76 C 44.46 12.82 39.25 16.96 34.00 21.03 C 33.99 22.34 34.00 23.65 34.01 24.97 C 38.64 23.49 43.28 22.04 47.90 20.54 C 49.01 20.31 50.49 19.50 51.41 20.58 C 52.46 21.40 52.17 23.41 50.78 23.73 C 44.97 26.37 39.02 28.69 33.13 31.15 C 31.91 33.51 30.35 35.69 29.40 38.18 C 28.49 43.69 28.68 49.34 27.78 54.86 C 26.75 56.95 24.32 55.75 23.67 54.03 C 17.11 53.96 10.56 54.02 4.00 54.00 C 4.00 53.50 4.00 52.50 4.00 52.00 C 10.67 52.00 17.33 52.00 24.00 52.00 C 24.00 50.67 24.00 49.33 24.00 48.00 C 17.33 48.00 10.67 48.00 4.00 48.00 C 4.00 47.50 4.00 46.50 4.00 46.00 C 10.67 46.00 17.33 46.00 24.00 46.00 C 23.99 37.80 24.01 29.61 23.99 21.41 C 18.20 16.72 12.35 12.10 6.61 7.34 Z" />
<path fill="#000000" opacity="1.00" d=" M 34.47 34.69 C 37.59 32.63 42.13 35.30 42.01 38.98 C 42.16 42.67 37.60 45.37 34.47 43.31 C 31.23 41.59 31.22 36.41 34.47 34.69 Z" />
<path fill="#000000" opacity="1.00" d=" M 32.00 46.00 C 40.00 46.00 48.00 46.00 56.00 46.00 C 56.00 46.50 56.00 47.50 56.00 48.00 C 48.00 48.00 40.00 48.00 32.00 48.00 C 32.00 47.50 32.00 46.50 32.00 46.00 Z" />
<path fill="#000000" opacity="1.00" d=" M 32.00 52.00 C 40.00 52.00 48.00 52.00 56.00 52.00 C 56.00 52.50 56.00 53.50 56.00 54.00 C 48.00 54.00 40.00 54.00 32.00 54.00 C 32.00 53.50 32.00 52.50 32.00 52.00 Z" />
</g>
</svg>
