<?xml version="1.0" encoding="UTF-8" ?>
<!DOCTYPE svg PUBLIC "-//W3C//DTD SVG 1.1//EN" "http://www.w3.org/Graphics/SVG/1.1/DTD/svg11.dtd">
<svg width="60pt" height="60pt" viewBox="0 0 60 60" version="1.1" xmlns="http://www.w3.org/2000/svg">
<g id="#ffffffff">
<path fill="#ffffff" opacity="1.00" d=" M 0.00 0.00 L 60.00 0.00 L 60.00 35.61 C 58.27 30.99 53.91 28.15 49.65 26.13 C 44.14 30.49 36.92 31.95 30.04 31.97 C 23.13 31.96 15.88 30.51 10.35 26.13 C 6.09 28.11 1.88 30.95 0.00 35.44 L 0.00 0.00 M 14.45 24.16 C 23.86 29.38 36.15 29.37 45.56 24.16 C 42.24 18.21 35.98 14.65 29.99 11.88 C 24.04 14.70 17.74 18.20 14.45 24.16 Z" />
<path fill="#ffffff" opacity="1.00" d=" M 0.00 36.56 C 1.24 40.98 6.26 42.35 10.13 43.55 C 23.08 46.81 36.88 46.80 49.82 43.56 C 53.70 42.39 58.48 41.01 60.00 36.78 L 60.00 60.00 L 0.00 60.00 L 0.00 36.56 Z" />
</g>
<g id="#000000ff">
<path fill="#000000" opacity="1.00" d=" M 14.45 24.16 C 17.74 18.20 24.04 14.70 29.99 11.88 C 35.98 14.65 42.24 18.21 45.56 24.16 C 36.15 29.37 23.86 29.38 14.45 24.16 Z" />
<path fill="#000000" opacity="1.00" d=" M 0.00 35.44 C 1.88 30.95 6.09 28.11 10.35 26.13 C 15.88 30.51 23.13 31.96 30.04 31.97 C 36.92 31.95 44.14 30.49 49.65 26.13 C 53.91 28.15 58.27 30.99 60.00 35.61 L 60.00 36.78 C 58.48 41.01 53.70 42.39 49.82 43.56 C 36.88 46.80 23.08 46.81 10.13 43.55 C 6.26 42.35 1.24 40.98 0.00 36.56 L 0.00 35.44 Z" />
</g>
</svg>
