<?xml version="1.0" encoding="UTF-8" ?>
<!DOCTYPE svg PUBLIC "-//W3C//DTD SVG 1.1//EN" "http://www.w3.org/Graphics/SVG/1.1/DTD/svg11.dtd">
<svg width="64pt" height="64pt" viewBox="0 0 64 64" version="1.1" xmlns="http://www.w3.org/2000/svg">
<g id="#ffffffff">
<path fill="#ffffff" opacity="1.00" d=" M 0.00 0.00 L 64.00 0.00 L 64.00 64.00 L 0.00 64.00 L 0.00 0.00 M 6.00 8.00 C 6.00 20.00 6.00 32.00 6.00 44.00 C 9.33 44.00 12.67 44.00 16.00 44.00 C 16.00 47.40 16.00 50.79 16.00 54.19 C 20.25 50.78 24.49 47.38 28.75 43.99 C 38.50 44.02 48.25 43.99 58.00 44.00 C 58.00 32.00 58.00 20.00 58.00 8.00 C 40.67 8.00 23.33 8.00 6.00 8.00 Z" />
<path fill="#ffffff" opacity="1.00" d=" M 10.00 12.00 C 24.67 12.00 39.33 12.00 54.00 12.00 C 54.00 21.33 54.00 30.67 54.00 40.00 C 45.09 40.01 36.18 39.99 27.28 40.01 C 24.88 41.97 22.45 43.89 20.01 45.81 C 20.00 43.87 20.00 41.94 20.00 40.00 C 16.66 40.00 13.33 40.00 10.00 40.00 C 10.00 30.67 10.00 21.33 10.00 12.00 M 25.80 21.97 C 27.09 21.99 28.37 21.99 29.66 21.99 C 30.10 20.06 33.05 19.04 33.85 21.20 C 34.71 23.01 32.24 23.54 31.24 24.42 C 29.37 25.58 30.24 28.19 29.94 30.00 C 31.29 30.00 32.64 30.00 33.99 30.00 C 34.00 29.37 34.02 28.13 34.03 27.50 C 38.16 25.81 39.45 19.94 35.69 17.18 C 31.82 14.16 25.99 17.17 25.80 21.97 M 30.00 32.00 C 30.00 33.33 30.00 34.67 30.00 36.00 C 31.33 36.00 32.67 36.00 34.00 36.00 C 34.00 34.67 34.00 33.33 34.00 32.00 C 32.67 32.00 31.33 32.00 30.00 32.00 Z" />
</g>
<g id="#000000ff">
<path fill="#000000" opacity="1.00" d=" M 6.00 8.00 C 23.33 8.00 40.67 8.00 58.00 8.00 C 58.00 20.00 58.00 32.00 58.00 44.00 C 48.25 43.99 38.50 44.02 28.75 43.99 C 24.49 47.38 20.25 50.78 16.00 54.19 C 16.00 50.79 16.00 47.40 16.00 44.00 C 12.67 44.00 9.33 44.00 6.00 44.00 C 6.00 32.00 6.00 20.00 6.00 8.00 M 10.00 12.00 C 10.00 21.33 10.00 30.67 10.00 40.00 C 13.33 40.00 16.66 40.00 20.00 40.00 C 20.00 41.94 20.00 43.87 20.01 45.81 C 22.45 43.89 24.88 41.97 27.28 40.01 C 36.18 39.99 45.09 40.01 54.00 40.00 C 54.00 30.67 54.00 21.33 54.00 12.00 C 39.33 12.00 24.67 12.00 10.00 12.00 Z" />
<path fill="#000000" opacity="1.00" d=" M 25.80 21.97 C 25.99 17.17 31.82 14.16 35.69 17.18 C 39.45 19.94 38.16 25.81 34.03 27.50 C 34.02 28.13 34.00 29.37 33.99 30.00 C 32.64 30.00 31.29 30.00 29.94 30.00 C 30.24 28.19 29.37 25.58 31.24 24.42 C 32.24 23.54 34.71 23.01 33.85 21.20 C 33.05 19.04 30.10 20.06 29.66 21.99 C 28.37 21.99 27.09 21.99 25.80 21.97 Z" />
<path fill="#000000" opacity="1.00" d=" M 30.00 32.00 C 31.33 32.00 32.67 32.00 34.00 32.00 C 34.00 33.33 34.00 34.67 34.00 36.00 C 32.67 36.00 31.33 36.00 30.00 36.00 C 30.00 34.67 30.00 33.33 30.00 32.00 Z" />
</g>
</svg>
