<?xml version="1.0" encoding="UTF-8" ?>
<!DOCTYPE svg PUBLIC "-//W3C//DTD SVG 1.1//EN" "http://www.w3.org/Graphics/SVG/1.1/DTD/svg11.dtd">
<svg width="64pt" height="64pt" viewBox="0 0 64 64" version="1.1" xmlns="http://www.w3.org/2000/svg">
<g id="#ffffffff">
<path fill="#ffffff" opacity="1.00" d=" M 0.00 0.00 L 64.00 0.00 L 64.00 64.00 L 0.00 64.00 L 0.00 0.00 M 38.00 11.14 C 38.00 14.09 38.00 17.04 38.00 20.00 C 36.41 20.00 34.83 20.00 33.25 20.01 C 28.20 24.41 23.06 28.71 18.00 33.09 C 18.00 34.65 18.00 36.20 18.00 37.76 C 13.99 41.18 10.00 44.62 6.00 48.05 C 8.41 50.67 10.74 53.36 13.12 56.00 C 14.77 56.00 16.41 56.00 18.06 56.00 C 19.86 51.29 21.61 46.57 23.40 41.86 C 25.24 45.79 26.93 49.80 28.54 53.84 C 29.13 53.89 30.32 54.00 30.91 54.06 C 32.71 52.19 34.52 50.32 36.35 48.48 C 34.37 43.59 32.06 38.84 30.31 33.87 C 31.63 33.84 32.38 35.06 33.34 35.76 C 38.87 40.84 46.74 42.15 54.00 42.03 C 54.00 38.70 54.00 35.37 54.00 32.04 C 48.66 32.07 42.39 31.65 38.82 27.09 C 44.49 22.08 50.20 17.12 55.87 12.13 C 54.59 10.75 53.30 9.37 52.00 8.00 C 50.38 9.42 48.75 10.83 47.12 12.24 C 45.43 10.54 43.73 8.84 42.00 7.17 C 40.65 8.48 39.32 9.81 38.00 11.14 Z" />
<path fill="#ffffff" opacity="1.00" d=" M 42.05 13.26 C 44.02 12.60 44.61 16.29 42.68 16.62 C 41.37 16.27 41.35 14.18 42.05 13.26 Z" />
<path fill="#ffffff" opacity="1.00" d=" M 34.15 31.20 C 34.53 30.84 35.29 30.13 35.68 29.77 C 39.20 33.93 44.73 35.13 49.89 35.75 C 49.94 36.24 50.05 37.22 50.11 37.70 C 44.31 37.24 38.21 35.65 34.15 31.20 Z" />
<path fill="#ffffff" opacity="1.00" d=" M 26.20 38.11 C 26.44 37.87 26.92 37.39 27.16 37.15 C 28.65 40.59 30.11 44.06 31.61 47.50 C 31.32 47.87 31.02 48.24 30.72 48.61 C 29.20 45.11 27.71 41.61 26.20 38.11 Z" />
<path fill="#ffffff" opacity="1.00" d=" M 11.67 48.47 C 14.12 46.33 16.60 44.21 19.05 42.07 C 17.78 45.46 16.52 48.86 15.20 52.23 C 13.99 51.00 12.84 49.73 11.67 48.47 Z" />
</g>
<g id="#000000ff">
<path fill="#000000" opacity="1.00" d=" M 38.00 11.14 C 39.32 9.81 40.65 8.48 42.00 7.17 C 43.73 8.84 45.43 10.54 47.12 12.24 C 48.75 10.83 50.38 9.42 52.00 8.00 C 53.30 9.37 54.59 10.75 55.87 12.13 C 50.20 17.12 44.49 22.08 38.82 27.09 C 42.39 31.65 48.66 32.07 54.00 32.04 C 54.00 35.37 54.00 38.70 54.00 42.03 C 46.74 42.15 38.87 40.84 33.34 35.76 C 32.38 35.06 31.63 33.84 30.31 33.87 C 32.06 38.84 34.37 43.59 36.35 48.48 C 34.52 50.32 32.71 52.19 30.91 54.06 C 30.32 54.00 29.13 53.89 28.54 53.84 C 26.93 49.80 25.24 45.79 23.40 41.86 C 21.61 46.57 19.86 51.29 18.06 56.00 C 16.41 56.00 14.77 56.00 13.12 56.00 C 10.74 53.36 8.41 50.67 6.00 48.05 C 10.00 44.62 13.99 41.18 18.00 37.76 C 18.00 36.20 18.00 34.65 18.00 33.09 C 23.06 28.71 28.20 24.41 33.25 20.01 C 34.83 20.00 36.41 20.00 38.00 20.00 C 38.00 17.04 38.00 14.09 38.00 11.14 M 42.05 13.26 C 41.35 14.18 41.37 16.27 42.68 16.62 C 44.61 16.29 44.02 12.60 42.05 13.26 M 34.15 31.20 C 38.21 35.65 44.31 37.24 50.11 37.70 C 50.05 37.22 49.94 36.24 49.89 35.75 C 44.73 35.13 39.20 33.93 35.68 29.77 C 35.29 30.13 34.53 30.84 34.15 31.20 M 26.20 38.11 C 27.71 41.61 29.20 45.11 30.72 48.61 C 31.02 48.24 31.32 47.87 31.61 47.50 C 30.11 44.06 28.65 40.59 27.16 37.15 C 26.92 37.39 26.44 37.87 26.20 38.11 M 11.67 48.47 C 12.84 49.73 13.99 51.00 15.20 52.23 C 16.52 48.86 17.78 45.46 19.05 42.07 C 16.60 44.21 14.12 46.33 11.67 48.47 Z" />
</g>
</svg>
