<?xml version="1.0" encoding="UTF-8" ?>
<!DOCTYPE svg PUBLIC "-//W3C//DTD SVG 1.1//EN" "http://www.w3.org/Graphics/SVG/1.1/DTD/svg11.dtd">
<svg width="64pt" height="64pt" viewBox="0 0 64 64" version="1.1" xmlns="http://www.w3.org/2000/svg">
<g id="#ffffffff">
<path fill="#ffffff" opacity="1.00" d=" M 0.00 0.00 L 64.00 0.00 L 64.00 64.00 L 0.00 64.00 L 0.00 0.00 M 26.39 8.67 C 19.80 10.24 13.97 14.75 10.81 20.75 C 7.56 26.79 7.12 34.24 9.62 40.62 C 12.29 47.66 18.48 53.22 25.75 55.16 C 33.19 57.22 41.58 55.37 47.43 50.33 C 53.04 45.66 56.32 38.32 55.96 31.02 C 55.73 24.33 52.49 17.85 47.35 13.59 C 41.68 8.73 33.63 6.91 26.39 8.67 Z" />
<path fill="#ffffff" opacity="1.00" d=" M 29.18 12.20 C 35.54 11.26 42.29 13.61 46.63 18.37 C 51.21 23.19 53.04 30.39 51.40 36.82 C 49.67 44.14 43.44 50.14 36.05 51.57 C 29.37 53.02 22.02 50.71 17.40 45.66 C 12.29 40.34 10.63 32.07 13.20 25.17 C 15.59 18.34 21.99 13.14 29.18 12.20 M 42.61 24.58 C 38.39 28.75 34.22 32.99 30.00 37.17 C 27.15 34.30 24.29 31.44 21.42 28.59 C 20.48 29.54 19.54 30.48 18.59 31.42 C 22.40 35.21 26.20 39.02 30.00 42.82 C 35.15 37.71 40.26 32.56 45.41 27.43 C 44.47 26.48 43.54 25.53 42.61 24.58 Z" />
</g>
<g id="#000000ff">
<path fill="#000000" opacity="1.00" d=" M 26.39 8.67 C 33.63 6.91 41.68 8.73 47.35 13.59 C 52.49 17.85 55.73 24.33 55.96 31.02 C 56.32 38.32 53.04 45.66 47.43 50.33 C 41.58 55.37 33.19 57.22 25.75 55.16 C 18.48 53.22 12.29 47.66 9.62 40.62 C 7.12 34.24 7.56 26.79 10.81 20.75 C 13.97 14.75 19.80 10.24 26.39 8.67 M 29.18 12.20 C 21.99 13.14 15.59 18.34 13.20 25.17 C 10.63 32.07 12.29 40.34 17.40 45.66 C 22.02 50.71 29.37 53.02 36.05 51.57 C 43.44 50.14 49.67 44.14 51.40 36.82 C 53.04 30.39 51.21 23.19 46.63 18.37 C 42.29 13.61 35.54 11.26 29.18 12.20 Z" />
<path fill="#000000" opacity="1.00" d=" M 42.61 24.58 C 43.54 25.53 44.47 26.48 45.41 27.43 C 40.26 32.56 35.15 37.71 30.00 42.82 C 26.20 39.02 22.40 35.21 18.59 31.42 C 19.54 30.48 20.48 29.54 21.42 28.59 C 24.29 31.44 27.15 34.30 30.00 37.17 C 34.22 32.99 38.39 28.75 42.61 24.58 Z" />
</g>
</svg>
