<?xml version="1.0" encoding="UTF-8" ?>
<!DOCTYPE svg PUBLIC "-//W3C//DTD SVG 1.1//EN" "http://www.w3.org/Graphics/SVG/1.1/DTD/svg11.dtd">
<svg width="60pt" height="60pt" viewBox="0 0 60 60" version="1.1" xmlns="http://www.w3.org/2000/svg">
<g id="#ffffffff">
<path fill="#ffffff" opacity="1.00" d=" M 0.00 0.00 L 60.00 0.00 L 60.00 60.00 L 0.00 60.00 L 0.00 0.00 M 24.48 6.64 C 17.37 8.30 11.16 13.39 8.16 20.05 C 5.19 26.49 5.31 34.26 8.48 40.61 C 11.93 47.68 19.05 52.82 26.86 53.78 C 33.67 54.70 40.85 52.53 45.95 47.91 C 51.29 43.21 54.33 36.03 53.96 28.93 C 53.69 22.05 50.27 15.38 44.85 11.15 C 39.22 6.64 31.49 4.97 24.48 6.64 Z" />
<path fill="#ffffff" opacity="1.00" d=" M 32.24 18.02 C 32.75 15.97 35.71 15.33 37.08 16.90 C 38.53 18.19 37.74 20.26 37.51 21.88 C 36.19 27.88 35.22 33.95 33.78 39.92 C 33.42 41.75 30.93 42.57 29.45 41.51 C 25.77 39.23 22.24 36.70 18.60 34.36 C 17.52 33.53 15.84 32.66 16.06 31.03 C 15.82 28.79 18.77 27.15 20.58 28.52 C 23.45 30.22 26.13 32.22 28.94 34.02 C 30.08 28.69 30.92 23.30 32.24 18.02 Z" />
</g>
<g id="#000000ff">
<path fill="#000000" opacity="1.00" d=" M 24.48 6.64 C 31.49 4.97 39.22 6.64 44.85 11.15 C 50.27 15.38 53.69 22.05 53.96 28.93 C 54.33 36.03 51.29 43.21 45.95 47.91 C 40.85 52.53 33.67 54.70 26.86 53.78 C 19.05 52.82 11.93 47.68 8.48 40.61 C 5.31 34.26 5.19 26.49 8.16 20.05 C 11.16 13.39 17.37 8.30 24.48 6.64 M 32.24 18.02 C 30.92 23.30 30.08 28.69 28.94 34.02 C 26.13 32.22 23.45 30.22 20.58 28.52 C 18.77 27.15 15.82 28.79 16.06 31.03 C 15.84 32.66 17.52 33.53 18.60 34.36 C 22.24 36.70 25.77 39.23 29.45 41.51 C 30.93 42.57 33.42 41.75 33.78 39.92 C 35.22 33.95 36.19 27.88 37.51 21.88 C 37.74 20.26 38.53 18.19 37.08 16.90 C 35.71 15.33 32.75 15.97 32.24 18.02 Z" />
</g>
</svg>
