<?xml version="1.0" encoding="UTF-8" ?>
<!DOCTYPE svg PUBLIC "-//W3C//DTD SVG 1.1//EN" "http://www.w3.org/Graphics/SVG/1.1/DTD/svg11.dtd">
<svg width="64pt" height="64pt" viewBox="0 0 64 64" version="1.1" xmlns="http://www.w3.org/2000/svg">
<g id="#ffffffff">
<path fill="#ffffff" opacity="1.00" d=" M 0.00 0.00 L 64.00 0.00 L 64.00 64.00 L 0.00 64.00 L 0.00 0.00 M 29.00 10.00 C 29.40 16.80 29.81 23.60 30.20 30.40 C 24.15 28.22 18.08 26.09 12.00 23.99 C 11.40 25.73 10.80 27.46 10.20 29.20 C 16.40 30.81 22.62 32.35 28.81 33.98 C 24.68 39.58 20.57 45.19 16.41 50.77 C 17.94 51.85 19.47 52.93 21.00 54.00 C 24.67 48.21 28.32 42.41 32.00 36.62 C 35.69 42.39 39.33 48.21 43.00 54.00 C 44.60 52.93 46.20 51.86 47.80 50.79 C 43.67 45.20 39.54 39.61 35.42 34.01 C 41.49 32.51 47.54 30.94 53.60 29.40 C 53.07 27.60 52.54 25.82 52.00 24.03 C 46.00 26.15 40.01 28.30 34.00 30.39 C 34.33 23.60 34.66 16.80 35.00 10.00 C 33.00 10.00 31.00 10.00 29.00 10.00 Z" />
</g>
<g id="#000000ff">
<path fill="#000000" opacity="1.00" d=" M 29.00 10.00 C 31.00 10.00 33.00 10.00 35.00 10.00 C 34.66 16.80 34.33 23.60 34.00 30.39 C 40.01 28.30 46.00 26.15 52.00 24.03 C 52.54 25.82 53.07 27.60 53.60 29.40 C 47.54 30.94 41.49 32.51 35.42 34.01 C 39.54 39.61 43.67 45.20 47.80 50.79 C 46.20 51.86 44.60 52.93 43.00 54.00 C 39.33 48.21 35.69 42.39 32.00 36.62 C 28.32 42.41 24.67 48.21 21.00 54.00 C 19.47 52.93 17.94 51.85 16.41 50.77 C 20.57 45.19 24.68 39.58 28.81 33.98 C 22.62 32.35 16.40 30.81 10.20 29.20 C 10.80 27.46 11.40 25.73 12.00 23.99 C 18.08 26.09 24.15 28.22 30.20 30.40 C 29.81 23.60 29.40 16.80 29.00 10.00 Z" />
</g>
</svg>
