<?xml version="1.0" encoding="UTF-8" ?>
<!DOCTYPE svg PUBLIC "-//W3C//DTD SVG 1.1//EN" "http://www.w3.org/Graphics/SVG/1.1/DTD/svg11.dtd">
<svg width="60pt" height="60pt" viewBox="0 0 60 60" version="1.1" xmlns="http://www.w3.org/2000/svg">
<g id="#ffffffff">
<path fill="#ffffff" opacity="1.00" d=" M 0.00 0.00 L 60.00 0.00 L 60.00 60.00 L 0.00 60.00 L 0.00 0.00 M 10.04 4.01 C 9.94 21.34 10.03 38.67 10.00 56.00 C 11.98 56.00 13.96 56.00 15.93 56.00 C 16.16 54.06 15.57 51.67 17.12 50.14 C 20.11 47.75 24.81 48.32 27.36 45.27 C 28.62 42.21 27.76 38.71 28.01 35.48 C 29.97 34.65 32.43 34.47 33.90 32.83 C 33.79 28.44 27.92 26.52 27.63 22.03 C 26.73 12.90 19.32 4.86 10.04 4.01 M 42.81 37.97 C 41.24 38.00 39.67 38.04 38.10 38.10 C 37.97 40.70 37.97 43.30 38.10 45.90 C 41.40 45.98 44.72 46.19 48.01 45.85 C 49.85 45.56 50.68 43.68 50.95 42.04 C 51.95 37.38 53.08 32.73 53.86 28.03 C 51.12 27.32 48.36 26.69 45.60 26.04 C 44.28 29.92 43.71 33.98 42.81 37.97 M 32.00 40.00 C 32.00 41.33 32.00 42.67 32.00 44.00 C 33.33 44.00 34.67 44.00 36.00 44.00 C 36.00 42.67 36.00 41.33 36.00 40.00 C 34.67 40.00 33.33 40.00 32.00 40.00 Z" />
</g>
<g id="#000000ff">
<path fill="#000000" opacity="1.00" d=" M 10.04 4.01 C 19.32 4.86 26.73 12.90 27.63 22.03 C 27.92 26.52 33.79 28.44 33.90 32.83 C 32.43 34.47 29.97 34.65 28.01 35.48 C 27.76 38.71 28.62 42.21 27.36 45.27 C 24.81 48.32 20.11 47.75 17.12 50.14 C 15.57 51.67 16.16 54.06 15.93 56.00 C 13.96 56.00 11.98 56.00 10.00 56.00 C 10.03 38.67 9.94 21.34 10.04 4.01 Z" />
<path fill="#000000" opacity="1.00" d=" M 42.81 37.97 C 43.71 33.98 44.28 29.92 45.60 26.04 C 48.36 26.69 51.12 27.32 53.86 28.03 C 53.08 32.73 51.95 37.38 50.95 42.04 C 50.68 43.68 49.85 45.56 48.01 45.85 C 44.72 46.19 41.40 45.98 38.10 45.90 C 37.97 43.30 37.97 40.70 38.10 38.10 C 39.67 38.04 41.24 38.00 42.81 37.97 Z" />
<path fill="#000000" opacity="1.00" d=" M 32.00 40.00 C 33.33 40.00 34.67 40.00 36.00 40.00 C 36.00 41.33 36.00 42.67 36.00 44.00 C 34.67 44.00 33.33 44.00 32.00 44.00 C 32.00 42.67 32.00 41.33 32.00 40.00 Z" />
</g>
</svg>
