<?xml version="1.0" encoding="UTF-8" ?>
<!DOCTYPE svg PUBLIC "-//W3C//DTD SVG 1.1//EN" "http://www.w3.org/Graphics/SVG/1.1/DTD/svg11.dtd">
<svg width="64pt" height="64pt" viewBox="0 0 64 64" version="1.1" xmlns="http://www.w3.org/2000/svg">
<g id="#ffffffff">
<path fill="#ffffff" opacity="1.00" d=" M 0.00 0.00 L 64.00 0.00 L 64.00 64.00 L 0.00 64.00 L 0.00 0.00 M 10.02 5.91 C 10.01 7.23 10.00 8.55 10.00 9.87 C 15.15 10.12 19.59 13.35 22.34 17.57 C 25.66 23.00 28.04 28.95 31.03 34.57 C 29.35 35.03 27.68 35.51 26.00 35.98 C 25.82 39.35 26.88 43.46 24.08 46.06 C 22.05 48.40 18.77 48.01 16.00 48.03 C 16.00 51.35 16.00 54.68 16.00 58.00 C 17.33 58.00 18.67 58.00 20.00 58.00 C 20.00 56.04 20.00 54.09 20.00 52.13 C 26.41 51.66 31.00 45.38 30.06 39.13 C 32.82 38.65 35.90 36.32 34.67 33.17 C 32.65 28.35 29.99 23.83 27.85 19.06 C 24.55 12.14 18.05 6.09 10.02 5.91 M 42.00 22.00 C 42.00 27.59 42.00 33.18 42.00 38.77 C 39.34 40.10 36.67 41.45 34.00 42.76 C 34.00 45.17 34.00 47.59 34.00 50.00 C 39.40 49.95 44.80 50.10 50.19 49.95 C 53.25 49.96 55.98 47.22 55.95 44.16 C 56.08 36.78 55.95 29.39 56.00 22.00 C 51.33 22.00 46.67 22.00 42.00 22.00 M 19.24 24.18 C 16.73 24.94 18.51 29.05 20.73 27.81 C 23.26 27.06 21.52 22.96 19.24 24.18 Z" />
<path fill="#ffffff" opacity="1.00" d=" M 46.00 26.00 C 48.00 26.00 50.00 26.00 52.00 26.00 C 52.00 27.33 52.00 28.67 52.00 30.00 C 50.00 30.00 48.00 30.00 46.00 30.00 C 46.00 28.67 46.00 27.33 46.00 26.00 Z" />
<path fill="#ffffff" opacity="1.00" d=" M 46.00 34.00 C 48.00 34.00 50.00 34.00 52.00 34.00 C 51.91 37.60 52.21 41.22 51.85 44.80 C 51.60 45.06 51.12 45.57 50.87 45.83 C 46.48 46.22 42.05 45.95 37.64 45.95 C 39.97 43.69 43.24 42.84 46.00 41.24 C 46.00 38.82 46.00 36.41 46.00 34.00 Z" />
</g>
<g id="#000000ff">
<path fill="#000000" opacity="1.00" d=" M 10.02 5.91 C 18.05 6.09 24.55 12.14 27.85 19.06 C 29.99 23.83 32.65 28.35 34.67 33.17 C 35.90 36.32 32.82 38.65 30.06 39.13 C 31.00 45.38 26.41 51.66 20.00 52.13 C 20.00 54.09 20.00 56.04 20.00 58.00 C 18.67 58.00 17.33 58.00 16.00 58.00 C 16.00 54.68 16.00 51.35 16.00 48.03 C 18.77 48.01 22.05 48.40 24.08 46.06 C 26.88 43.46 25.82 39.35 26.00 35.98 C 27.68 35.51 29.35 35.03 31.03 34.57 C 28.04 28.95 25.66 23.00 22.34 17.57 C 19.59 13.35 15.15 10.12 10.00 9.87 C 10.00 8.55 10.01 7.23 10.02 5.91 Z" />
<path fill="#000000" opacity="1.00" d=" M 42.00 22.00 C 46.67 22.00 51.33 22.00 56.00 22.00 C 55.95 29.39 56.08 36.78 55.95 44.16 C 55.98 47.22 53.25 49.96 50.19 49.95 C 44.80 50.10 39.40 49.95 34.00 50.00 C 34.00 47.59 34.00 45.17 34.00 42.76 C 36.67 41.45 39.34 40.10 42.00 38.77 C 42.00 33.18 42.00 27.59 42.00 22.00 M 46.00 26.00 C 46.00 27.33 46.00 28.67 46.00 30.00 C 48.00 30.00 50.00 30.00 52.00 30.00 C 52.00 28.67 52.00 27.33 52.00 26.00 C 50.00 26.00 48.00 26.00 46.00 26.00 M 46.00 34.00 C 46.00 36.41 46.00 38.82 46.00 41.24 C 43.24 42.84 39.97 43.69 37.64 45.95 C 42.05 45.95 46.48 46.22 50.87 45.83 C 51.12 45.57 51.60 45.06 51.85 44.80 C 52.21 41.22 51.91 37.60 52.00 34.00 C 50.00 34.00 48.00 34.00 46.00 34.00 Z" />
<path fill="#000000" opacity="1.00" d=" M 19.24 24.18 C 21.52 22.96 23.26 27.06 20.73 27.81 C 18.51 29.05 16.73 24.94 19.24 24.18 Z" />
</g>
</svg>
