<?xml version="1.0" encoding="UTF-8" ?>
<!DOCTYPE svg PUBLIC "-//W3C//DTD SVG 1.1//EN" "http://www.w3.org/Graphics/SVG/1.1/DTD/svg11.dtd">
<svg width="64pt" height="64pt" viewBox="0 0 64 64" version="1.1" xmlns="http://www.w3.org/2000/svg">
<g id="#ffffffff">
<path fill="#ffffff" opacity="1.00" d=" M 0.00 0.00 L 64.00 0.00 L 64.00 64.00 L 0.00 64.00 L 0.00 0.00 M 12.05 13.91 C 11.93 25.64 12.03 37.38 12.00 49.12 C 11.59 52.52 14.29 55.99 17.81 55.94 C 29.21 56.09 40.61 55.95 52.00 56.00 C 52.00 40.00 52.00 24.00 52.00 8.00 C 40.63 8.04 29.26 7.92 17.90 8.05 C 14.77 7.97 11.97 10.78 12.05 13.91 Z" />
<path fill="#ffffff" opacity="1.00" d=" M 16.07 13.99 C 15.91 12.40 17.65 11.82 18.93 12.01 C 28.62 11.97 38.31 12.02 48.00 12.00 C 48.00 22.67 48.00 33.33 48.00 44.00 C 37.33 44.11 26.65 43.77 15.99 44.18 C 16.07 34.12 15.89 24.05 16.07 13.99 M 28.39 16.59 C 24.50 17.83 21.33 21.14 20.38 25.13 C 18.56 31.62 23.35 38.76 29.96 39.79 C 37.37 41.35 44.85 34.43 43.91 26.93 C 43.48 19.60 35.36 14.09 28.39 16.59 Z" />
<path fill="#ffffff" opacity="1.00" d=" M 33.51 20.09 C 34.47 20.44 35.44 20.79 36.41 21.14 C 35.53 22.08 34.79 23.11 34.19 24.25 C 36.06 24.19 37.94 24.39 39.67 25.19 C 38.43 25.33 37.18 25.23 35.94 25.11 C 35.43 25.38 34.42 25.91 33.91 26.17 C 33.55 27.14 33.17 28.11 32.80 29.07 C 34.15 29.84 35.61 30.38 37.18 30.52 C 36.94 32.01 36.65 33.49 36.35 34.96 C 34.38 35.56 32.35 35.96 30.31 36.21 C 30.53 34.67 30.79 33.15 31.08 31.63 C 29.95 30.77 28.83 29.90 27.70 29.04 C 26.37 28.99 25.04 28.94 23.71 28.87 C 23.81 25.79 26.95 24.98 29.19 23.75 C 29.14 23.17 29.04 22.01 28.99 21.43 C 30.55 21.47 32.08 21.81 33.63 21.94 C 33.60 21.48 33.54 20.55 33.51 20.09 Z" />
<path fill="#ffffff" opacity="1.00" d=" M 17.94 51.92 C 15.41 52.18 15.43 47.77 17.97 48.07 C 27.97 47.89 37.99 48.06 48.00 48.00 C 48.00 49.33 48.00 50.67 48.00 52.00 C 37.98 51.94 27.95 52.12 17.94 51.92 Z" />
</g>
<g id="#000000ff">
<path fill="#000000" opacity="1.00" d=" M 12.05 13.91 C 11.97 10.78 14.77 7.97 17.90 8.05 C 29.26 7.92 40.63 8.04 52.00 8.00 C 52.00 24.00 52.00 40.00 52.00 56.00 C 40.61 55.95 29.21 56.09 17.81 55.94 C 14.29 55.99 11.59 52.52 12.00 49.12 C 12.03 37.38 11.93 25.64 12.05 13.91 M 16.07 13.99 C 15.89 24.05 16.07 34.12 15.99 44.18 C 26.65 43.77 37.33 44.11 48.00 44.00 C 48.00 33.33 48.00 22.67 48.00 12.00 C 38.31 12.02 28.62 11.97 18.93 12.01 C 17.65 11.82 15.91 12.40 16.07 13.99 M 17.94 51.92 C 27.95 52.12 37.98 51.94 48.00 52.00 C 48.00 50.67 48.00 49.33 48.00 48.00 C 37.99 48.06 27.97 47.89 17.97 48.07 C 15.43 47.77 15.41 52.18 17.94 51.92 Z" />
<path fill="#000000" opacity="1.00" d=" M 28.39 16.59 C 35.36 14.09 43.48 19.60 43.91 26.93 C 44.85 34.43 37.37 41.35 29.96 39.79 C 23.35 38.76 18.56 31.62 20.38 25.13 C 21.33 21.14 24.50 17.83 28.39 16.59 M 33.51 20.09 C 33.54 20.55 33.60 21.48 33.63 21.94 C 32.08 21.81 30.55 21.47 28.99 21.43 C 29.04 22.01 29.14 23.17 29.19 23.75 C 26.95 24.98 23.81 25.79 23.71 28.87 C 25.04 28.94 26.37 28.99 27.70 29.04 C 28.83 29.90 29.95 30.77 31.08 31.63 C 30.79 33.15 30.53 34.67 30.31 36.21 C 32.35 35.96 34.38 35.56 36.35 34.96 C 36.65 33.49 36.94 32.01 37.18 30.52 C 35.61 30.38 34.15 29.84 32.80 29.07 C 33.17 28.11 33.55 27.14 33.91 26.17 C 34.42 25.91 35.43 25.38 35.94 25.11 C 37.18 25.23 38.43 25.33 39.67 25.19 C 37.94 24.39 36.06 24.19 34.19 24.25 C 34.79 23.11 35.53 22.08 36.41 21.14 C 35.44 20.79 34.47 20.44 33.51 20.09 Z" />
</g>
</svg>
