<?xml version="1.0" encoding="UTF-8" ?>
<!DOCTYPE svg PUBLIC "-//W3C//DTD SVG 1.1//EN" "http://www.w3.org/Graphics/SVG/1.1/DTD/svg11.dtd">
<svg width="64pt" height="64pt" viewBox="0 0 64 64" version="1.1" xmlns="http://www.w3.org/2000/svg">
<g id="#ffffffff">
<path fill="#ffffff" opacity="1.00" d=" M 0.00 0.00 L 64.00 0.00 L 64.00 64.00 L 0.00 64.00 L 0.00 0.00 M 15.02 8.81 C 16.18 9.15 17.34 9.49 18.49 9.83 C 17.63 12.52 16.81 15.21 15.94 17.90 C 17.21 20.34 18.46 22.79 19.75 25.22 C 18.58 29.00 17.56 32.83 16.34 36.59 C 15.34 39.56 13.16 41.94 12.09 44.87 C 11.82 48.57 12.09 52.29 12.00 56.00 C 13.33 56.00 14.67 56.00 16.00 56.00 C 16.09 52.64 15.82 49.28 16.09 45.93 C 16.96 43.39 18.81 41.33 19.76 38.83 C 21.02 35.49 21.83 32.01 22.93 28.63 C 24.23 29.08 25.52 29.53 26.82 29.97 C 26.14 32.43 25.46 34.89 24.78 37.35 C 22.13 35.57 21.98 38.73 21.27 40.52 C 22.92 41.06 24.83 41.39 25.88 42.93 C 29.51 47.30 33.15 51.68 36.80 56.04 C 38.51 55.99 40.22 55.96 41.93 55.95 C 37.37 50.55 32.90 45.06 28.32 39.68 C 29.06 36.93 29.79 34.18 30.56 31.44 C 32.77 32.96 34.99 34.45 37.17 36.01 C 40.53 35.66 43.89 35.31 47.24 34.94 C 47.12 33.63 47.01 32.31 46.89 31.00 C 44.02 31.33 41.15 31.61 38.27 31.93 C 34.09 28.55 29.22 26.30 24.08 24.82 C 22.75 22.38 21.48 19.91 20.25 17.42 C 20.94 15.24 21.65 13.05 22.32 10.86 C 24.29 11.42 26.27 11.96 28.26 12.46 C 26.35 13.79 24.34 15.45 24.09 17.94 C 23.15 22.76 28.32 27.31 32.98 25.69 C 37.60 24.47 39.35 18.56 36.70 14.74 C 42.61 16.49 48.57 18.08 54.52 19.67 L 54.89 17.73 C 45.24 15.13 35.64 12.35 25.97 9.81 C 23.54 9.35 21.67 7.16 19.06 7.46 C 17.50 7.58 15.06 6.31 15.02 8.81 Z" />
<path fill="#ffffff" opacity="1.00" d=" M 29.35 16.49 C 32.54 14.24 35.88 19.49 32.67 21.49 C 29.47 23.80 26.07 18.48 29.35 16.49 Z" />
</g>
<g id="#000000ff">
<path fill="#000000" opacity="1.00" d=" M 15.02 8.81 C 15.06 6.31 17.50 7.58 19.06 7.46 C 21.67 7.16 23.54 9.35 25.97 9.81 C 35.64 12.35 45.24 15.13 54.89 17.73 L 54.52 19.67 C 48.57 18.08 42.61 16.49 36.70 14.74 C 39.35 18.56 37.60 24.47 32.98 25.69 C 28.32 27.31 23.15 22.76 24.09 17.94 C 24.34 15.45 26.35 13.79 28.26 12.46 C 26.27 11.96 24.29 11.42 22.32 10.86 C 21.65 13.05 20.94 15.24 20.25 17.42 C 21.48 19.91 22.75 22.38 24.08 24.82 C 29.22 26.30 34.09 28.55 38.27 31.93 C 41.15 31.61 44.02 31.33 46.89 31.00 C 47.01 32.31 47.12 33.63 47.24 34.94 C 43.89 35.31 40.53 35.66 37.17 36.01 C 34.99 34.45 32.77 32.96 30.56 31.44 C 29.79 34.18 29.06 36.93 28.32 39.68 C 32.90 45.06 37.37 50.55 41.93 55.95 C 40.22 55.96 38.51 55.99 36.80 56.04 C 33.15 51.68 29.51 47.30 25.88 42.93 C 24.83 41.39 22.92 41.06 21.27 40.52 C 21.98 38.73 22.13 35.57 24.78 37.35 C 25.46 34.89 26.14 32.43 26.82 29.97 C 25.52 29.53 24.23 29.08 22.93 28.63 C 21.83 32.01 21.02 35.49 19.76 38.83 C 18.81 41.33 16.96 43.39 16.09 45.93 C 15.82 49.28 16.09 52.64 16.00 56.00 C 14.67 56.00 13.33 56.00 12.00 56.00 C 12.09 52.29 11.82 48.57 12.09 44.87 C 13.16 41.94 15.34 39.56 16.34 36.59 C 17.56 32.83 18.58 29.00 19.75 25.22 C 18.46 22.79 17.21 20.34 15.94 17.90 C 16.81 15.21 17.63 12.52 18.49 9.83 C 17.34 9.49 16.18 9.15 15.02 8.81 M 29.35 16.49 C 26.07 18.48 29.47 23.80 32.67 21.49 C 35.88 19.49 32.54 14.24 29.35 16.49 Z" />
</g>
</svg>
