<?xml version="1.0" encoding="UTF-8" ?>
<!DOCTYPE svg PUBLIC "-//W3C//DTD SVG 1.1//EN" "http://www.w3.org/Graphics/SVG/1.1/DTD/svg11.dtd">
<svg width="60pt" height="60pt" viewBox="0 0 60 60" version="1.1" xmlns="http://www.w3.org/2000/svg">
<g id="#ffffffff">
<path fill="#ffffff" opacity="1.00" d=" M 0.00 0.00 L 60.00 0.00 L 60.00 60.00 L 0.00 60.00 L 0.00 0.00 M 27.75 3.73 C 25.36 6.66 23.36 9.89 20.94 12.81 C 17.32 12.59 13.69 12.36 10.06 12.33 C 8.16 12.10 6.41 14.17 7.10 16.00 C 7.90 19.60 9.05 23.12 9.96 26.70 C 7.50 29.63 4.83 32.38 2.50 35.41 C 1.51 36.63 2.00 38.71 3.38 39.44 C 6.82 41.15 10.45 42.44 13.93 44.08 C 14.64 47.67 15.16 51.30 15.96 54.87 C 16.11 56.67 18.35 58.00 19.96 57.09 C 23.40 55.50 26.66 53.56 30.03 51.83 C 33.41 53.52 36.63 55.55 40.08 57.11 C 41.64 57.97 43.81 56.70 44.00 54.98 C 44.83 51.39 45.34 47.73 46.06 44.12 C 49.53 42.51 53.15 41.24 56.55 39.49 C 57.96 38.77 58.52 36.65 57.48 35.40 C 55.17 32.36 52.49 29.63 50.04 26.70 C 50.95 23.10 52.12 19.56 52.91 15.93 C 53.55 14.09 51.76 12.08 49.88 12.33 C 46.23 12.35 42.58 12.64 38.94 12.76 C 36.66 9.77 34.60 6.61 32.22 3.69 C 31.21 2.25 28.73 2.24 27.75 3.73 Z" />
<path fill="#ffffff" opacity="1.00" d=" M 28.00 18.00 C 29.33 18.00 30.66 18.00 32.00 18.00 C 32.00 19.38 32.00 20.75 32.02 22.13 C 34.34 22.94 36.35 24.54 36.77 27.11 C 35.95 27.11 34.29 27.11 33.47 27.11 C 32.57 24.06 26.32 24.14 27.28 27.77 C 29.77 30.22 34.80 28.84 36.51 32.43 C 38.05 35.82 35.34 39.25 32.02 39.92 C 32.01 41.28 32.00 42.64 31.99 44.00 C 30.66 44.00 29.33 44.00 27.99 44.00 C 28.00 42.64 28.01 41.27 28.01 39.91 C 25.48 39.28 23.33 37.52 22.91 34.84 C 23.74 34.83 25.40 34.82 26.23 34.81 C 27.14 36.00 28.27 37.23 29.94 37.07 C 31.88 37.51 34.71 35.16 32.59 33.50 C 29.68 32.02 25.09 32.64 23.73 29.00 C 22.57 25.83 25.00 22.89 27.99 22.15 C 28.00 20.77 28.00 19.38 28.00 18.00 Z" />
</g>
<g id="#000000ff">
<path fill="#968176" opacity="1.00" d=" M 27.75 3.73 C 28.73 2.24 31.21 2.25 32.22 3.69 C 34.60 6.61 36.66 9.77 38.94 12.76 C 42.58 12.64 46.23 12.35 49.88 12.33 C 51.76 12.08 53.55 14.09 52.91 15.93 C 52.12 19.56 50.95 23.10 50.04 26.70 C 52.49 29.63 55.17 32.36 57.48 35.40 C 58.52 36.65 57.96 38.77 56.55 39.49 C 53.15 41.24 49.53 42.51 46.06 44.12 C 45.34 47.73 44.83 51.39 44.00 54.98 C 43.81 56.70 41.64 57.97 40.08 57.11 C 36.63 55.55 33.41 53.52 30.03 51.83 C 26.66 53.56 23.40 55.50 19.96 57.09 C 18.35 58.00 16.11 56.67 15.96 54.87 C 15.16 51.30 14.64 47.67 13.93 44.08 C 10.45 42.44 6.82 41.15 3.38 39.44 C 2.00 38.71 1.51 36.63 2.50 35.41 C 4.83 32.38 7.50 29.63 9.96 26.70 C 9.05 23.12 7.90 19.60 7.10 16.00 C 6.41 14.17 8.16 12.10 10.06 12.33 C 13.69 12.36 17.32 12.59 20.94 12.81 C 23.36 9.89 25.36 6.66 27.75 3.73 M 28.00 18.00 C 28.00 19.38 28.00 20.77 27.99 22.15 C 25.00 22.89 22.57 25.83 23.73 29.00 C 25.09 32.64 29.68 32.02 32.59 33.50 C 34.71 35.16 31.88 37.51 29.94 37.07 C 28.27 37.23 27.14 36.00 26.23 34.81 C 25.40 34.82 23.74 34.83 22.91 34.84 C 23.33 37.52 25.48 39.28 28.01 39.91 C 28.01 41.27 28.00 42.64 27.99 44.00 C 29.33 44.00 30.66 44.00 31.99 44.00 C 32.00 42.64 32.01 41.28 32.02 39.92 C 35.34 39.25 38.05 35.82 36.51 32.43 C 34.80 28.84 29.77 30.22 27.28 27.77 C 26.32 24.14 32.57 24.06 33.47 27.11 C 34.29 27.11 35.95 27.11 36.77 27.11 C 36.35 24.54 34.34 22.94 32.02 22.13 C 32.00 20.75 32.00 19.38 32.00 18.00 C 30.66 18.00 29.33 18.00 28.00 18.00 Z" />
</g>
</svg>
