<?xml version="1.0" encoding="UTF-8" ?>
<!DOCTYPE svg PUBLIC "-//W3C//DTD SVG 1.1//EN" "http://www.w3.org/Graphics/SVG/1.1/DTD/svg11.dtd">
<svg width="64pt" height="64pt" viewBox="0 0 64 64" version="1.1" xmlns="http://www.w3.org/2000/svg">
<g id="#ffffffff">
<path fill="#ffffff" opacity="1.00" d=" M 0.00 0.00 L 64.00 0.00 L 64.00 12.00 C 56.31 12.10 48.62 11.83 40.93 12.03 C 37.69 12.01 34.60 13.32 31.38 13.27 C 21.08 10.92 10.46 12.39 0.00 12.00 L 0.00 0.00 Z" />
<path fill="#ffffff" opacity="1.00" d=" M 4.06 16.06 C 11.06 15.95 18.07 15.93 25.07 16.02 C 27.94 15.65 29.30 18.49 31.24 20.00 C 34.28 20.62 34.99 15.95 38.00 16.10 C 45.31 15.84 52.63 15.99 59.94 16.06 C 60.06 26.02 60.06 35.98 59.94 45.94 C 50.63 46.62 41.01 44.57 32.00 47.64 C 22.99 44.58 13.37 46.62 4.06 45.94 C 3.94 35.98 3.94 26.02 4.06 16.06 M 30.09 24.02 C 30.05 27.19 29.98 30.35 29.85 33.52 C 27.50 34.26 23.85 34.75 24.00 38.00 C 23.88 43.10 32.96 43.64 33.79 38.85 C 34.17 35.36 33.96 31.84 34.07 28.35 C 35.37 28.11 36.68 27.88 37.99 27.64 C 37.99 26.45 38.01 25.26 38.02 24.07 C 35.38 23.96 32.73 23.95 30.09 24.02 Z" />
<path fill="#ffffff" opacity="1.00" d=" M 0.00 50.00 C 8.03 50.09 16.07 49.86 24.10 50.00 C 27.37 49.77 29.59 52.44 32.00 54.18 C 34.41 52.43 36.63 49.76 39.90 50.00 C 47.93 49.86 55.97 50.09 64.00 50.00 L 64.00 64.00 L 0.00 64.00 L 0.00 50.00 Z" />
</g>
<g id="#000000ff">
<path fill="#000000" opacity="1.00" d=" M 0.00 12.00 C 10.46 12.39 21.08 10.92 31.38 13.27 C 34.60 13.32 37.69 12.01 40.93 12.03 C 48.62 11.83 56.31 12.10 64.00 12.00 L 64.00 50.00 C 55.97 50.09 47.93 49.86 39.90 50.00 C 36.63 49.76 34.41 52.43 32.00 54.18 C 29.59 52.44 27.37 49.77 24.10 50.00 C 16.07 49.86 8.03 50.09 0.00 50.00 L 0.00 12.00 M 4.06 16.06 C 3.94 26.02 3.94 35.98 4.06 45.94 C 13.37 46.62 22.99 44.58 32.00 47.64 C 41.01 44.57 50.63 46.62 59.94 45.94 C 60.06 35.98 60.06 26.02 59.94 16.06 C 52.63 15.99 45.31 15.84 38.00 16.10 C 34.99 15.95 34.28 20.62 31.24 20.00 C 29.30 18.49 27.94 15.65 25.07 16.02 C 18.07 15.93 11.06 15.95 4.06 16.06 Z" />
<path fill="#000000" opacity="1.00" d=" M 30.09 24.02 C 32.73 23.95 35.38 23.96 38.02 24.07 C 38.01 25.26 37.99 26.45 37.99 27.64 C 36.68 27.88 35.37 28.11 34.07 28.35 C 33.96 31.84 34.17 35.36 33.79 38.85 C 32.96 43.64 23.88 43.10 24.00 38.00 C 23.85 34.75 27.50 34.26 29.85 33.52 C 29.98 30.35 30.05 27.19 30.09 24.02 Z" />
</g>
</svg>
