<?xml version="1.0" encoding="UTF-8" ?>
<!DOCTYPE svg PUBLIC "-//W3C//DTD SVG 1.1//EN" "http://www.w3.org/Graphics/SVG/1.1/DTD/svg11.dtd">
<svg width="60pt" height="60pt" viewBox="0 0 60 60" version="1.1" xmlns="http://www.w3.org/2000/svg">
<g id="#ffffffff">
<path fill="#ffffff" opacity="1.00" d=" M 0.00 0.00 L 60.00 0.00 L 60.00 60.00 L 0.00 60.00 L 0.00 0.00 M 14.17 7.98 C 12.23 8.32 9.47 7.17 8.17 9.13 C 7.75 17.47 8.14 25.84 7.99 34.19 C 5.89 35.42 3.89 37.38 4.00 40.01 C 3.89 42.63 5.90 44.54 7.96 45.79 C 8.32 47.76 7.18 50.51 9.13 51.83 C 17.48 52.25 25.86 51.86 34.22 52.02 C 35.42 54.12 37.38 56.08 39.98 56.00 C 42.59 56.10 44.54 54.14 45.76 52.06 C 47.73 51.68 50.49 52.82 51.82 50.87 C 52.26 42.53 51.85 34.15 52.02 25.79 C 54.09 24.57 56.08 22.65 56.00 20.04 C 56.11 17.39 54.08 15.40 51.99 14.14 C 51.70 12.20 52.84 9.41 50.83 8.16 C 42.49 7.76 34.12 8.15 25.78 7.98 C 24.56 5.88 22.60 3.88 19.98 4.00 C 17.37 3.91 15.42 5.91 14.17 7.98 Z" />
<path fill="#ffffff" opacity="1.00" d=" M 16.81 11.84 C 18.30 10.93 17.86 7.98 20.00 8.02 C 22.07 8.02 21.77 10.78 23.08 11.82 C 24.69 12.08 26.34 11.99 27.97 12.03 C 28.01 13.63 27.92 15.23 28.16 16.82 C 29.09 18.29 31.99 17.87 31.99 20.02 C 31.94 22.13 29.10 21.71 28.17 23.16 C 27.91 24.81 28.01 26.48 27.96 28.14 C 25.22 28.68 24.68 25.54 22.61 24.64 C 21.04 23.79 19.07 23.77 17.49 24.59 C 15.32 25.45 14.80 28.70 12.01 28.14 C 11.99 22.77 12.00 17.40 12.00 12.04 C 13.60 11.99 15.22 12.08 16.81 11.84 Z" />
<path fill="#ffffff" opacity="1.00" d=" M 31.86 12.01 C 37.23 11.99 42.59 12.00 47.96 12.00 C 48.01 13.62 47.92 15.26 48.17 16.88 C 49.12 18.27 52.16 17.93 51.92 20.06 C 52.07 22.11 49.02 21.70 48.16 23.17 C 47.92 24.76 48.01 26.37 47.97 27.97 C 46.35 28.01 44.72 27.93 43.12 28.17 C 41.73 29.12 42.07 32.10 39.99 31.93 C 37.91 32.11 38.28 29.07 36.84 28.16 C 35.19 27.92 33.52 28.01 31.86 27.96 C 31.80 26.48 32.32 25.27 33.64 24.56 C 35.85 23.08 36.65 19.90 35.43 17.54 C 34.60 15.34 31.30 14.83 31.86 12.01 Z" />
<path fill="#ffffff" opacity="1.00" d=" M 16.87 31.82 C 18.25 30.81 17.89 28.10 19.97 27.98 C 22.08 28.05 21.75 30.79 23.11 31.82 C 24.77 32.09 26.46 31.99 28.14 32.04 C 28.67 35.07 24.83 35.51 24.31 38.16 C 23.03 41.32 25.36 44.17 27.83 45.84 C 27.91 46.37 28.06 47.45 28.14 47.99 C 22.77 48.01 17.40 48.00 12.04 48.00 C 11.99 46.39 12.08 44.77 11.83 43.17 C 10.88 41.71 8.03 42.12 7.98 39.97 C 8.11 37.89 10.81 38.25 11.82 36.88 C 12.08 35.28 11.99 33.65 12.03 32.03 C 13.65 31.99 15.27 32.08 16.87 31.82 Z" />
<path fill="#ffffff" opacity="1.00" d=" M 32.04 31.87 C 35.07 31.32 35.53 35.19 38.19 35.69 C 41.34 36.95 44.17 34.62 45.83 32.17 C 46.37 32.09 47.45 31.94 47.99 31.86 C 48.01 37.23 48.00 42.60 48.00 47.96 C 46.39 48.01 44.77 47.92 43.17 48.16 C 41.71 49.14 42.11 51.93 39.96 52.05 C 37.88 51.84 38.26 49.16 36.84 48.16 C 35.25 47.93 33.63 48.01 32.03 47.97 C 31.99 46.37 32.08 44.75 31.83 43.16 C 30.85 41.73 28.14 42.11 27.95 40.02 C 28.10 37.91 30.76 38.25 31.82 36.89 C 32.09 35.23 31.99 33.54 32.04 31.87 Z" />
</g>
<g id="#000000ff">
<path fill="#968176" opacity="1.00" d=" M 14.17 7.98 C 15.42 5.91 17.37 3.91 19.98 4.00 C 22.60 3.88 24.56 5.88 25.78 7.98 C 34.12 8.15 42.49 7.76 50.83 8.16 C 52.84 9.41 51.70 12.20 51.99 14.14 C 54.08 15.40 56.11 17.39 56.00 20.04 C 56.08 22.65 54.09 24.57 52.02 25.79 C 51.85 34.15 52.26 42.53 51.82 50.87 C 50.49 52.82 47.73 51.68 45.76 52.06 C 44.54 54.14 42.59 56.10 39.98 56.00 C 37.38 56.08 35.42 54.12 34.22 52.02 C 25.86 51.86 17.48 52.25 9.13 51.83 C 7.18 50.51 8.32 47.76 7.96 45.79 C 5.90 44.54 3.89 42.63 4.00 40.01 C 3.89 37.38 5.89 35.42 7.99 34.19 C 8.14 25.84 7.75 17.47 8.17 9.13 C 9.47 7.17 12.23 8.32 14.17 7.98 M 16.81 11.84 C 15.22 12.08 13.60 11.99 12.00 12.04 C 12.00 17.40 11.99 22.77 12.01 28.14 C 14.80 28.70 15.32 25.45 17.49 24.59 C 19.07 23.77 21.04 23.79 22.61 24.64 C 24.68 25.54 25.22 28.68 27.96 28.14 C 28.01 26.48 27.91 24.81 28.17 23.16 C 29.10 21.71 31.94 22.13 31.99 20.02 C 31.99 17.87 29.09 18.29 28.16 16.82 C 27.92 15.23 28.01 13.63 27.97 12.03 C 26.34 11.99 24.69 12.08 23.08 11.82 C 21.77 10.78 22.07 8.02 20.00 8.02 C 17.86 7.98 18.30 10.93 16.81 11.84 M 31.86 12.01 C 31.30 14.83 34.60 15.34 35.43 17.54 C 36.65 19.90 35.85 23.08 33.64 24.56 C 32.32 25.27 31.80 26.48 31.86 27.96 C 33.52 28.01 35.19 27.92 36.84 28.16 C 38.28 29.07 37.91 32.11 39.99 31.93 C 42.07 32.10 41.73 29.12 43.12 28.17 C 44.72 27.93 46.35 28.01 47.97 27.97 C 48.01 26.37 47.92 24.76 48.16 23.17 C 49.02 21.70 52.07 22.11 51.92 20.06 C 52.16 17.93 49.12 18.27 48.17 16.88 C 47.92 15.26 48.01 13.62 47.96 12.00 C 42.59 12.00 37.23 11.99 31.86 12.01 M 16.87 31.82 C 15.27 32.08 13.65 31.99 12.03 32.03 C 11.99 33.65 12.08 35.28 11.82 36.88 C 10.81 38.25 8.11 37.89 7.98 39.97 C 8.03 42.12 10.88 41.71 11.83 43.17 C 12.08 44.77 11.99 46.39 12.04 48.00 C 17.40 48.00 22.77 48.01 28.14 47.99 C 28.06 47.45 27.91 46.37 27.83 45.84 C 25.36 44.17 23.03 41.32 24.31 38.16 C 24.83 35.51 28.67 35.07 28.14 32.04 C 26.46 31.99 24.77 32.09 23.11 31.82 C 21.75 30.79 22.08 28.05 19.97 27.98 C 17.89 28.10 18.25 30.81 16.87 31.82 M 32.04 31.87 C 31.99 33.54 32.09 35.23 31.82 36.89 C 30.76 38.25 28.10 37.91 27.95 40.02 C 28.14 42.11 30.85 41.73 31.83 43.16 C 32.08 44.75 31.99 46.37 32.03 47.97 C 33.63 48.01 35.25 47.93 36.84 48.16 C 38.26 49.16 37.88 51.84 39.96 52.05 C 42.11 51.93 41.71 49.14 43.17 48.16 C 44.77 47.92 46.39 48.01 48.00 47.96 C 48.00 42.60 48.01 37.23 47.99 31.86 C 47.45 31.94 46.37 32.09 45.83 32.17 C 44.17 34.62 41.34 36.95 38.19 35.69 C 35.53 35.19 35.07 31.32 32.04 31.87 Z" />
</g>
</svg>
