<?xml version="1.0" encoding="UTF-8" ?>
<!DOCTYPE svg PUBLIC "-//W3C//DTD SVG 1.1//EN" "http://www.w3.org/Graphics/SVG/1.1/DTD/svg11.dtd">
<svg width="64pt" height="64pt" viewBox="0 0 64 64" version="1.1" xmlns="http://www.w3.org/2000/svg">
<g id="#ffffffff">
<path fill="#ffffff" opacity="1.00" d=" M 0.00 0.00 L 64.00 0.00 L 64.00 64.00 L 0.00 64.00 L 0.00 0.00 M 18.50 8.33 C 13.59 9.43 11.44 14.35 9.43 18.41 C 7.17 22.57 8.23 27.48 8.01 32.00 C 10.64 32.00 13.26 32.00 15.89 32.00 C 15.63 29.33 16.71 25.73 20.04 26.00 C 23.33 25.79 24.34 29.36 24.11 32.00 C 28.70 32.00 33.30 32.00 37.89 32.00 C 37.64 29.33 38.70 25.74 42.02 26.00 C 45.32 25.78 46.35 29.35 46.11 32.00 C 49.40 32.00 52.70 32.00 56.00 32.00 C 56.00 29.63 56.11 27.26 55.87 24.89 C 55.48 21.23 52.78 17.87 49.23 16.82 C 43.10 15.27 39.84 7.86 33.07 8.03 C 28.22 8.09 23.31 7.66 18.50 8.33 M 10.02 47.99 C 9.85 52.98 15.11 57.13 19.93 55.75 C 22.86 55.13 24.74 52.60 25.83 49.99 C 26.48 50.01 27.79 50.06 28.44 50.08 C 30.26 52.53 33.78 52.47 35.61 50.06 C 36.25 50.04 37.52 50.01 38.16 50.00 C 39.20 52.35 40.74 54.70 43.32 55.52 C 47.90 57.35 53.44 53.86 53.92 48.99 C 54.72 44.01 49.90 39.24 44.93 40.08 C 41.64 40.41 39.30 43.09 38.16 46.01 C 37.51 45.99 36.22 45.94 35.57 45.92 C 33.76 43.51 30.24 43.48 28.44 45.92 C 27.79 45.94 26.48 45.99 25.83 46.01 C 24.75 43.39 22.86 40.87 19.93 40.25 C 15.11 38.87 9.85 43.01 10.02 47.99 Z" />
<path fill="#ffffff" opacity="1.00" d=" M 16.81 13.77 C 18.94 11.58 22.21 12.04 24.99 11.98 C 28.32 12.11 31.69 11.71 34.99 12.28 C 38.58 14.03 41.23 17.20 44.58 19.34 C 46.56 20.45 49.20 20.46 50.65 22.43 C 52.05 23.98 51.92 26.19 52.11 28.13 C 48.52 28.85 48.77 24.03 45.89 23.06 C 41.47 20.28 35.64 23.22 34.23 27.99 C 32.08 28.00 29.92 28.00 27.77 27.99 C 26.49 24.38 22.99 21.40 18.98 22.07 C 15.50 22.38 13.24 25.37 12.01 28.35 C 11.16 22.97 13.62 17.92 16.81 13.77 Z" />
<path fill="#ffffff" opacity="1.00" d=" M 16.32 44.35 C 18.84 43.07 22.12 45.19 22.01 48.01 C 22.14 51.12 18.18 53.18 15.71 51.29 C 13.19 49.71 13.56 45.46 16.32 44.35 Z" />
<path fill="#ffffff" opacity="1.00" d=" M 44.34 44.34 C 47.20 42.88 50.79 45.84 49.89 48.92 C 49.38 51.60 45.86 52.93 43.70 51.28 C 41.18 49.69 41.57 45.44 44.34 44.34 Z" />
</g>
<g id="#000000ff">
<path fill="#000000" opacity="1.00" d=" M 18.50 8.33 C 23.31 7.66 28.22 8.09 33.07 8.03 C 39.84 7.86 43.10 15.27 49.23 16.82 C 52.78 17.87 55.48 21.23 55.87 24.89 C 56.11 27.26 56.00 29.63 56.00 32.00 C 52.70 32.00 49.40 32.00 46.11 32.00 C 46.35 29.35 45.32 25.78 42.02 26.00 C 38.70 25.74 37.64 29.33 37.89 32.00 C 33.30 32.00 28.70 32.00 24.11 32.00 C 24.34 29.36 23.33 25.79 20.04 26.00 C 16.71 25.73 15.63 29.33 15.89 32.00 C 13.26 32.00 10.64 32.00 8.01 32.00 C 8.23 27.48 7.17 22.57 9.43 18.41 C 11.44 14.35 13.59 9.43 18.50 8.33 M 16.81 13.77 C 13.62 17.92 11.16 22.97 12.01 28.35 C 13.24 25.37 15.50 22.38 18.98 22.07 C 22.99 21.40 26.49 24.38 27.77 27.99 C 29.92 28.00 32.08 28.00 34.23 27.99 C 35.64 23.22 41.47 20.28 45.89 23.06 C 48.77 24.03 48.52 28.85 52.11 28.13 C 51.92 26.19 52.05 23.98 50.65 22.43 C 49.20 20.46 46.56 20.45 44.58 19.34 C 41.23 17.20 38.58 14.03 34.99 12.28 C 31.69 11.71 28.32 12.11 24.99 11.98 C 22.21 12.04 18.94 11.58 16.81 13.77 Z" />
<path fill="#000000" opacity="1.00" d=" M 10.02 47.99 C 9.85 43.01 15.11 38.87 19.93 40.25 C 22.86 40.87 24.75 43.39 25.83 46.01 C 26.48 45.99 27.79 45.94 28.44 45.92 C 30.24 43.48 33.76 43.51 35.57 45.92 C 36.22 45.94 37.51 45.99 38.16 46.01 C 39.30 43.09 41.64 40.41 44.93 40.08 C 49.90 39.24 54.72 44.01 53.92 48.99 C 53.44 53.86 47.90 57.35 43.32 55.52 C 40.74 54.70 39.20 52.35 38.16 50.00 C 37.52 50.01 36.25 50.04 35.61 50.06 C 33.78 52.47 30.26 52.53 28.44 50.08 C 27.79 50.06 26.48 50.01 25.83 49.99 C 24.74 52.60 22.86 55.13 19.93 55.75 C 15.11 57.13 9.85 52.98 10.02 47.99 M 16.32 44.35 C 13.56 45.46 13.19 49.71 15.71 51.29 C 18.18 53.18 22.14 51.12 22.01 48.01 C 22.12 45.19 18.84 43.07 16.32 44.35 M 44.34 44.34 C 41.57 45.44 41.18 49.69 43.70 51.28 C 45.86 52.93 49.38 51.60 49.89 48.92 C 50.79 45.84 47.20 42.88 44.34 44.34 Z" />
</g>
</svg>
