<?xml version="1.0" encoding="UTF-8" ?>
<!DOCTYPE svg PUBLIC "-//W3C//DTD SVG 1.1//EN" "http://www.w3.org/Graphics/SVG/1.1/DTD/svg11.dtd">
<svg width="64pt" height="64pt" viewBox="0 0 64 64" version="1.1" xmlns="http://www.w3.org/2000/svg">
<g id="#ffffffff">
<path fill="#ffffff" opacity="1.00" d=" M 0.00 0.00 L 64.00 0.00 L 64.00 64.00 L 0.00 64.00 L 0.00 0.00 M 19.44 12.39 C 16.52 13.89 13.17 13.94 9.97 14.07 C 9.33 30.46 16.05 49.15 32.00 56.11 C 37.88 53.82 42.64 49.20 46.19 44.08 C 52.20 35.34 54.12 24.50 54.03 14.07 C 50.76 13.95 47.36 13.87 44.40 12.32 C 40.48 10.39 36.56 7.88 32.01 8.00 C 27.39 7.86 23.43 10.46 19.44 12.39 Z" />
<path fill="#ffffff" opacity="1.00" d=" M 28.45 12.54 C 36.30 9.97 42.25 17.60 49.88 17.75 C 49.64 30.96 44.26 45.34 32.00 51.81 C 19.83 45.25 14.32 30.98 14.12 17.75 C 19.34 17.33 23.75 14.48 28.45 12.54 M 30.17 19.11 C 29.85 21.62 30.02 24.16 29.99 26.68 C 27.35 29.82 22.53 31.70 21.80 36.02 C 24.59 34.83 27.31 33.49 30.04 32.18 C 30.50 35.06 29.59 37.66 27.30 39.49 C 27.25 40.11 27.15 41.35 27.09 41.97 C 28.97 41.10 30.84 39.47 33.05 40.09 C 34.41 40.56 35.64 41.31 36.90 41.97 C 36.86 41.35 36.76 40.12 36.72 39.50 C 34.43 37.67 33.49 35.07 33.96 32.17 C 36.70 33.45 39.42 34.81 42.19 36.03 C 41.50 31.69 36.64 29.80 34.01 26.64 C 33.98 24.14 34.14 21.63 33.84 19.14 C 33.21 17.62 30.82 17.60 30.17 19.11 Z" />
</g>
<g id="#000000ff">
<path fill="#000000" opacity="1.00" d=" M 19.44 12.39 C 23.43 10.46 27.39 7.86 32.01 8.00 C 36.56 7.88 40.48 10.39 44.40 12.32 C 47.36 13.87 50.76 13.95 54.03 14.07 C 54.12 24.50 52.20 35.34 46.19 44.08 C 42.64 49.20 37.88 53.82 32.00 56.11 C 16.05 49.15 9.33 30.46 9.97 14.07 C 13.17 13.94 16.52 13.89 19.44 12.39 M 28.45 12.54 C 23.75 14.48 19.34 17.33 14.12 17.75 C 14.32 30.98 19.83 45.25 32.00 51.81 C 44.26 45.34 49.64 30.96 49.88 17.75 C 42.25 17.60 36.30 9.97 28.45 12.54 Z" />
<path fill="#000000" opacity="1.00" d=" M 30.17 19.11 C 30.82 17.60 33.21 17.62 33.84 19.14 C 34.14 21.63 33.98 24.14 34.01 26.64 C 36.64 29.80 41.50 31.69 42.19 36.03 C 39.42 34.81 36.70 33.45 33.96 32.17 C 33.49 35.07 34.43 37.67 36.72 39.50 C 36.76 40.12 36.86 41.35 36.90 41.97 C 35.64 41.31 34.41 40.56 33.05 40.09 C 30.84 39.47 28.97 41.10 27.09 41.97 C 27.15 41.35 27.25 40.11 27.30 39.49 C 29.59 37.66 30.50 35.06 30.04 32.18 C 27.31 33.49 24.59 34.83 21.80 36.02 C 22.53 31.70 27.35 29.82 29.99 26.68 C 30.02 24.16 29.85 21.62 30.17 19.11 Z" />
</g>
</svg>
