<?xml version="1.0" encoding="UTF-8" ?>
<!DOCTYPE svg PUBLIC "-//W3C//DTD SVG 1.1//EN" "http://www.w3.org/Graphics/SVG/1.1/DTD/svg11.dtd">
<svg width="60pt" height="60pt" viewBox="0 0 60 60" version="1.1" xmlns="http://www.w3.org/2000/svg">
<g id="#ffffffff">
<path fill="#ffffff" opacity="1.00" d=" M 0.00 0.00 L 60.00 0.00 L 60.00 60.00 L 0.00 60.00 L 0.00 0.00 M 18.61 6.86 C 15.85 7.27 13.04 7.57 10.36 8.41 C 8.07 9.26 7.89 11.94 7.98 14.01 C 8.15 20.33 7.40 26.85 9.38 32.97 C 11.58 40.08 16.59 46.08 22.64 50.28 C 25.46 51.90 28.64 55.13 32.10 53.43 C 40.10 49.44 47.07 42.76 50.18 34.25 C 52.75 27.43 51.85 20.02 51.99 12.90 C 52.21 10.87 51.12 8.57 48.95 8.19 C 39.02 6.02 28.69 5.32 18.61 6.86 Z" />
<path fill="#ffffff" opacity="1.00" d=" M 28.20 15.09 C 28.88 13.65 31.11 13.66 31.80 15.09 C 32.20 17.80 31.96 20.56 31.97 23.29 C 35.19 25.62 38.70 27.55 41.84 29.98 C 41.92 30.49 42.07 31.50 42.14 32.01 C 38.76 31.47 35.38 30.90 32.00 30.34 C 32.00 32.25 32.00 34.17 32.00 36.08 C 33.70 37.05 36.55 37.42 36.15 39.99 C 32.05 40.01 27.95 40.01 23.85 39.99 C 23.46 37.42 26.29 37.05 28.00 36.08 C 28.00 34.17 28.00 32.25 28.00 30.34 C 24.62 30.90 21.24 31.48 17.85 32.01 C 17.93 31.52 18.08 30.55 18.16 30.06 C 21.25 27.51 24.89 25.72 28.06 23.25 C 28.02 20.53 27.80 17.79 28.20 15.09 Z" />
</g>
<g id="#000000ff">
<path fill="#000000" opacity="1.00" d=" M 18.61 6.86 C 28.69 5.32 39.02 6.02 48.95 8.19 C 51.12 8.57 52.21 10.87 51.99 12.90 C 51.85 20.02 52.75 27.43 50.18 34.25 C 47.07 42.76 40.10 49.44 32.10 53.43 C 28.64 55.13 25.46 51.90 22.64 50.28 C 16.59 46.08 11.58 40.08 9.38 32.97 C 7.40 26.85 8.15 20.33 7.98 14.01 C 7.89 11.94 8.07 9.26 10.36 8.41 C 13.04 7.57 15.85 7.27 18.61 6.86 M 28.20 15.09 C 27.80 17.79 28.02 20.53 28.06 23.25 C 24.89 25.72 21.25 27.51 18.16 30.06 C 18.08 30.55 17.93 31.52 17.85 32.01 C 21.24 31.48 24.62 30.90 28.00 30.34 C 28.00 32.25 28.00 34.17 28.00 36.08 C 26.29 37.05 23.46 37.42 23.85 39.99 C 27.95 40.01 32.05 40.01 36.15 39.99 C 36.55 37.42 33.70 37.05 32.00 36.08 C 32.00 34.17 32.00 32.25 32.00 30.34 C 35.38 30.90 38.76 31.47 42.14 32.01 C 42.07 31.50 41.92 30.49 41.84 29.98 C 38.70 27.55 35.19 25.62 31.97 23.29 C 31.96 20.56 32.20 17.80 31.80 15.09 C 31.11 13.66 28.88 13.65 28.20 15.09 Z" />
</g>
</svg>
