<?xml version="1.0" encoding="UTF-8" ?>
<!DOCTYPE svg PUBLIC "-//W3C//DTD SVG 1.1//EN" "http://www.w3.org/Graphics/SVG/1.1/DTD/svg11.dtd">
<svg width="60pt" height="60pt" viewBox="0 0 60 60" version="1.1" xmlns="http://www.w3.org/2000/svg">
<g id="#ffffffff">
<path fill="#ffffff" opacity="1.00" d=" M 0.00 0.00 L 60.00 0.00 L 60.00 60.00 L 0.00 60.00 L 0.00 0.00 M 36.18 6.14 C 32.67 11.47 29.72 17.15 26.42 22.61 C 24.26 18.44 23.14 13.68 20.16 9.98 C 19.26 11.39 18.35 12.79 17.43 14.18 C 14.97 12.96 12.43 11.93 9.89 10.90 C 9.78 13.76 10.14 16.60 10.59 19.42 C 8.81 20.04 7.02 20.70 5.55 21.91 C 8.83 24.80 12.34 27.44 15.39 30.59 C 13.12 31.39 10.89 32.28 8.65 33.14 C 10.68 36.29 14.24 37.96 16.79 40.64 C 14.58 42.51 11.97 43.71 9.17 44.39 C 7.07 44.81 8.04 48.29 10.03 47.95 C 13.74 47.99 16.86 45.63 19.58 43.37 C 22.11 45.91 23.73 49.42 26.88 51.30 C 27.76 49.03 28.65 46.77 29.57 44.53 C 32.40 47.83 35.25 51.11 38.06 54.43 C 39.32 53.00 39.95 51.19 40.56 49.43 C 43.39 49.84 46.25 50.26 49.12 50.06 C 48.04 47.56 47.03 45.02 45.83 42.58 C 47.21 41.65 48.61 40.73 50.02 39.83 C 46.32 36.85 41.56 35.74 37.38 33.60 C 42.91 30.26 48.65 27.29 54.03 23.73 C 52.94 21.07 49.07 21.14 46.77 19.77 C 47.60 16.95 48.33 14.11 48.95 11.23 C 45.97 11.54 43.09 12.39 40.23 13.24 C 39.13 10.86 38.67 8.01 36.92 6.03 L 36.18 6.14 Z" />
</g>
<g id="#000000ff">
<path fill="#000000" opacity="1.00" d=" M 36.18 6.14 L 36.92 6.03 C 38.67 8.01 39.13 10.86 40.23 13.24 C 43.09 12.39 45.97 11.54 48.95 11.23 C 48.33 14.11 47.60 16.95 46.77 19.77 C 49.07 21.14 52.94 21.07 54.03 23.73 C 48.65 27.29 42.91 30.26 37.38 33.60 C 41.56 35.74 46.32 36.85 50.02 39.83 C 48.61 40.73 47.21 41.65 45.83 42.58 C 47.03 45.02 48.04 47.56 49.12 50.06 C 46.25 50.26 43.39 49.84 40.56 49.43 C 39.95 51.19 39.32 53.00 38.06 54.43 C 35.25 51.11 32.40 47.83 29.57 44.53 C 28.65 46.77 27.76 49.03 26.88 51.30 C 23.73 49.42 22.11 45.91 19.58 43.37 C 16.86 45.63 13.74 47.99 10.03 47.95 C 8.04 48.29 7.07 44.81 9.17 44.39 C 11.97 43.71 14.58 42.51 16.79 40.64 C 14.24 37.96 10.68 36.29 8.65 33.14 C 10.89 32.28 13.12 31.39 15.39 30.59 C 12.34 27.44 8.83 24.80 5.55 21.91 C 7.02 20.70 8.81 20.04 10.59 19.42 C 10.14 16.60 9.78 13.76 9.89 10.90 C 12.43 11.93 14.97 12.96 17.43 14.18 C 18.35 12.79 19.26 11.39 20.16 9.98 C 23.14 13.68 24.26 18.44 26.42 22.61 C 29.72 17.15 32.67 11.47 36.18 6.14 Z" />
</g>
</svg>
