<?xml version="1.0" encoding="UTF-8" ?>
<!DOCTYPE svg PUBLIC "-//W3C//DTD SVG 1.1//EN" "http://www.w3.org/Graphics/SVG/1.1/DTD/svg11.dtd">
<svg width="64pt" height="64pt" viewBox="0 0 64 64" version="1.1" xmlns="http://www.w3.org/2000/svg">
<g id="#ffffffff">
<path fill="#ffffff" opacity="1.00" d=" M 0.00 0.00 L 64.00 0.00 L 64.00 64.00 L 0.00 64.00 L 0.00 0.00 M 6.26 21.00 C 7.42 21.66 8.58 22.33 9.74 22.99 C 11.89 19.24 14.02 15.47 16.19 11.73 C 19.63 16.59 23.04 21.47 26.50 26.32 C 23.47 25.46 20.44 24.60 17.41 23.76 C 16.00 25.18 14.59 26.59 13.18 28.00 C 10.79 28.00 8.39 28.00 6.00 28.00 C 6.00 29.33 6.00 30.67 6.00 32.00 C 8.94 32.00 11.88 32.00 14.82 32.00 C 16.07 30.74 17.34 29.50 18.60 28.24 C 22.47 29.36 26.34 30.46 30.21 31.58 C 35.46 39.07 40.74 46.54 46.03 54.00 C 33.35 54.00 20.68 54.00 8.00 54.00 C 8.00 55.33 8.00 56.67 8.00 58.00 C 23.24 58.00 38.49 58.01 53.73 58.00 C 41.09 40.09 28.47 22.18 15.82 4.29 C 12.64 9.86 9.45 15.44 6.26 21.00 M 27.44 4.22 C 26.34 4.99 25.25 5.75 24.16 6.52 C 28.78 13.08 33.42 19.63 38.03 26.19 C 39.11 25.41 40.20 24.63 41.29 23.86 C 36.67 17.31 32.05 10.77 27.44 4.22 M 37.09 11.53 C 40.08 15.73 43.05 19.95 46.02 24.17 C 47.11 23.40 48.20 22.63 49.29 21.86 C 46.31 17.64 43.34 13.42 40.36 9.20 C 39.27 9.98 38.18 10.75 37.09 11.53 M 39.71 30.12 C 40.55 31.30 41.38 32.49 42.19 33.69 C 42.64 33.24 43.53 32.34 43.98 31.88 C 45.44 32.17 47.37 32.29 47.83 34.05 C 48.61 36.00 46.85 37.35 45.43 38.25 C 46.25 39.36 47.06 40.47 47.86 41.59 C 49.95 40.25 51.32 38.23 52.16 35.93 C 54.45 37.06 56.70 39.30 55.87 42.11 C 55.45 44.50 53.14 45.58 51.09 46.29 C 51.98 47.43 52.85 48.59 53.70 49.75 C 57.50 48.11 60.59 44.28 59.91 39.95 C 59.55 35.53 55.59 32.49 51.43 31.85 C 48.97 27.69 43.28 26.82 39.71 30.12 Z" />
</g>
<g id="#000000ff">
<path fill="#000000" opacity="1.00" d=" M 6.26 21.00 C 9.45 15.44 12.64 9.86 15.82 4.29 C 28.47 22.18 41.09 40.09 53.73 58.00 C 38.49 58.01 23.24 58.00 8.00 58.00 C 8.00 56.67 8.00 55.33 8.00 54.00 C 20.68 54.00 33.35 54.00 46.03 54.00 C 40.74 46.54 35.46 39.07 30.21 31.58 C 26.34 30.46 22.47 29.36 18.60 28.24 C 17.34 29.50 16.07 30.74 14.82 32.00 C 11.88 32.00 8.94 32.00 6.00 32.00 C 6.00 30.67 6.00 29.33 6.00 28.00 C 8.39 28.00 10.79 28.00 13.18 28.00 C 14.59 26.59 16.00 25.18 17.41 23.76 C 20.44 24.60 23.47 25.46 26.50 26.32 C 23.04 21.47 19.63 16.59 16.19 11.73 C 14.02 15.47 11.89 19.24 9.74 22.99 C 8.58 22.33 7.42 21.66 6.26 21.00 Z" />
<path fill="#000000" opacity="1.00" d=" M 27.44 4.22 C 32.05 10.77 36.67 17.31 41.29 23.86 C 40.20 24.63 39.11 25.41 38.03 26.19 C 33.42 19.63 28.78 13.08 24.16 6.52 C 25.25 5.75 26.34 4.99 27.44 4.22 Z" />
<path fill="#000000" opacity="1.00" d=" M 37.09 11.53 C 38.18 10.75 39.27 9.98 40.36 9.20 C 43.34 13.42 46.31 17.64 49.29 21.86 C 48.20 22.63 47.11 23.40 46.02 24.17 C 43.05 19.95 40.08 15.73 37.09 11.53 Z" />
<path fill="#000000" opacity="1.00" d=" M 39.71 30.12 C 43.28 26.82 48.97 27.69 51.43 31.85 C 55.59 32.49 59.55 35.53 59.91 39.95 C 60.59 44.28 57.50 48.11 53.70 49.75 C 52.85 48.59 51.98 47.43 51.09 46.29 C 53.14 45.58 55.45 44.50 55.87 42.11 C 56.70 39.30 54.45 37.06 52.16 35.93 C 51.32 38.23 49.95 40.25 47.86 41.59 C 47.06 40.47 46.25 39.36 45.43 38.25 C 46.85 37.35 48.61 36.00 47.83 34.05 C 47.37 32.29 45.44 32.17 43.98 31.88 C 43.53 32.34 42.64 33.24 42.19 33.69 C 41.38 32.49 40.55 31.30 39.71 30.12 Z" />
</g>
</svg>
