<?xml version="1.0" encoding="UTF-8" ?>
<!DOCTYPE svg PUBLIC "-//W3C//DTD SVG 1.1//EN" "http://www.w3.org/Graphics/SVG/1.1/DTD/svg11.dtd">
<svg width="64pt" height="64pt" viewBox="0 0 64 64" version="1.1" xmlns="http://www.w3.org/2000/svg">
<g id="#ffffffff">
<path fill="#ffffff" opacity="1.00" d=" M 0.00 0.00 L 64.00 0.00 L 64.00 64.00 L 0.00 64.00 L 0.00 0.00 M 33.23 13.94 C 24.29 13.55 15.38 18.86 11.88 27.15 C 8.22 35.09 10.11 44.91 16.02 51.25 C 14.99 53.50 13.98 55.75 12.94 58.00 C 15.29 58.00 17.64 58.00 20.00 58.00 C 20.43 57.09 20.85 56.17 21.28 55.26 C 27.32 58.41 34.76 58.98 40.99 56.04 C 49.06 52.54 54.49 43.80 53.95 34.99 C 53.73 27.98 49.77 21.43 44.02 17.52 C 43.98 13.68 44.00 9.84 44.00 6.00 C 41.64 6.00 39.29 6.00 36.93 6.00 C 35.72 8.66 34.47 11.30 33.23 13.94 Z" />
<path fill="#ffffff" opacity="1.00" d=" M 15.93 27.87 C 18.77 22.01 24.96 18.29 31.39 17.90 C 26.94 27.70 22.42 37.47 17.90 47.23 C 13.74 41.77 12.71 34.02 15.93 27.87 Z" />
<path fill="#ffffff" opacity="1.00" d=" M 37.99 19.07 C 38.00 23.09 38.01 27.11 38.00 31.12 C 40.00 32.89 41.99 34.67 44.00 36.42 C 44.02 31.80 43.95 27.17 44.06 22.55 C 47.91 26.31 50.38 31.60 49.95 37.05 C 49.63 44.64 43.95 51.58 36.57 53.40 C 32.01 54.70 27.15 53.74 22.98 51.66 C 24.42 48.44 25.90 45.23 27.36 42.01 C 30.24 42.00 33.12 41.99 36.00 42.00 C 36.00 43.33 36.00 44.67 36.01 46.00 C 38.67 43.69 41.33 41.38 44.00 39.07 C 41.34 36.70 38.68 34.35 36.00 32.00 C 36.00 33.00 36.00 35.00 36.00 36.00 C 34.04 36.00 32.08 35.99 30.12 36.00 C 32.75 30.36 35.37 24.72 37.99 19.07 M 37.71 47.98 C 39.81 48.01 41.90 48.00 44.00 48.00 C 44.00 45.92 43.99 43.84 44.00 41.76 C 41.92 43.83 39.06 45.27 37.71 47.98 Z" />
</g>
<g id="#000000ff">
<path fill="#000000" opacity="1.00" d=" M 33.23 13.94 C 34.47 11.30 35.72 8.66 36.93 6.00 C 39.29 6.00 41.64 6.00 44.00 6.00 C 44.00 9.84 43.98 13.68 44.02 17.52 C 49.77 21.43 53.73 27.98 53.95 34.99 C 54.49 43.80 49.06 52.54 40.99 56.04 C 34.76 58.98 27.32 58.41 21.28 55.26 C 20.85 56.17 20.43 57.09 20.00 58.00 C 17.64 58.00 15.29 58.00 12.94 58.00 C 13.98 55.75 14.99 53.50 16.02 51.25 C 10.11 44.91 8.22 35.09 11.88 27.15 C 15.38 18.86 24.29 13.55 33.23 13.94 M 15.93 27.87 C 12.71 34.02 13.74 41.77 17.90 47.23 C 22.42 37.47 26.94 27.70 31.39 17.90 C 24.96 18.29 18.77 22.01 15.93 27.87 M 37.99 19.07 C 35.37 24.72 32.75 30.36 30.12 36.00 C 32.08 35.99 34.04 36.00 36.00 36.00 C 36.00 35.00 36.00 33.00 36.00 32.00 C 38.68 34.35 41.34 36.70 44.00 39.07 C 41.33 41.38 38.67 43.69 36.01 46.00 C 36.00 44.67 36.00 43.33 36.00 42.00 C 33.12 41.99 30.24 42.00 27.36 42.01 C 25.90 45.23 24.42 48.44 22.98 51.66 C 27.15 53.74 32.01 54.70 36.57 53.40 C 43.95 51.58 49.63 44.64 49.95 37.05 C 50.38 31.60 47.91 26.31 44.06 22.55 C 43.95 27.17 44.02 31.80 44.00 36.42 C 41.99 34.67 40.00 32.89 38.00 31.12 C 38.01 27.11 38.00 23.09 37.99 19.07 Z" />
<path fill="#000000" opacity="1.00" d=" M 37.71 47.98 C 39.06 45.27 41.92 43.83 44.00 41.76 C 43.99 43.84 44.00 45.92 44.00 48.00 C 41.90 48.00 39.81 48.01 37.71 47.98 Z" />
</g>
</svg>
