<?xml version="1.0" encoding="UTF-8" ?>
<!DOCTYPE svg PUBLIC "-//W3C//DTD SVG 1.1//EN" "http://www.w3.org/Graphics/SVG/1.1/DTD/svg11.dtd">
<svg width="60pt" height="60pt" viewBox="0 0 60 60" version="1.1" xmlns="http://www.w3.org/2000/svg">
<g id="#ffffffff">
<path fill="#ffffff" opacity="1.00" d=" M 0.00 0.00 L 35.50 0.00 C 33.86 0.99 32.55 2.39 31.33 3.83 C 27.56 4.04 23.56 4.99 21.08 8.07 C 14.89 15.53 12.32 25.43 12.00 34.98 C 11.76 40.28 13.85 45.66 17.81 49.23 C 22.80 53.94 30.58 55.32 36.89 52.61 C 43.81 49.84 48.50 42.43 47.95 34.98 C 47.87 30.08 45.60 25.66 43.48 21.38 C 41.55 17.75 42.48 13.25 40.22 9.76 C 39.13 7.79 37.19 6.55 35.50 5.16 C 37.13 3.84 38.75 2.12 37.31 0.00 L 60.00 0.00 L 60.00 60.00 L 0.00 60.00 L 0.00 0.00 Z" />
<path fill="#ffffff" opacity="1.00" d=" M 27.38 24.63 C 30.66 22.86 34.33 25.08 36.24 27.81 C 39.60 32.27 41.69 39.12 37.97 43.99 C 34.48 48.98 26.39 49.29 22.52 44.60 C 17.31 38.46 21.12 28.49 27.38 24.63 Z" />
</g>
<g id="#000000ff">
<path fill="#000000" opacity="1.00" d=" M 35.50 0.00 L 37.31 0.00 C 38.75 2.12 37.13 3.84 35.50 5.16 C 37.19 6.55 39.13 7.79 40.22 9.76 C 42.48 13.25 41.55 17.75 43.48 21.38 C 45.60 25.66 47.87 30.08 47.95 34.98 C 48.50 42.43 43.81 49.84 36.89 52.61 C 30.58 55.32 22.80 53.94 17.81 49.23 C 13.85 45.66 11.76 40.28 12.00 34.98 C 12.32 25.43 14.89 15.53 21.08 8.07 C 23.56 4.99 27.56 4.04 31.33 3.83 C 32.55 2.39 33.86 0.99 35.50 0.00 M 27.38 24.63 C 21.12 28.49 17.31 38.46 22.52 44.60 C 26.39 49.29 34.48 48.98 37.97 43.99 C 41.69 39.12 39.60 32.27 36.24 27.81 C 34.33 25.08 30.66 22.86 27.38 24.63 Z" />
</g>
</svg>
