<?xml version="1.0" encoding="UTF-8" ?>
<!DOCTYPE svg PUBLIC "-//W3C//DTD SVG 1.1//EN" "http://www.w3.org/Graphics/SVG/1.1/DTD/svg11.dtd">
<svg width="64pt" height="64pt" viewBox="0 0 64 64" version="1.1" xmlns="http://www.w3.org/2000/svg">
<g id="#ffffffff">
<path fill="#ffffff" opacity="1.00" d=" M 0.00 0.00 L 64.00 0.00 L 64.00 64.00 L 0.00 64.00 L 0.00 0.00 M 13.84 11.79 C 10.89 12.36 7.95 14.55 8.05 17.83 C 7.95 24.60 7.95 31.37 8.05 38.14 C 7.94 41.49 10.98 43.71 14.00 44.22 C 14.00 48.81 14.00 53.41 14.00 58.00 C 15.33 58.00 16.67 58.00 18.00 58.00 C 18.00 53.33 18.00 48.67 18.00 44.00 C 20.67 44.00 23.33 44.00 26.00 44.00 C 26.00 48.67 26.00 53.33 26.00 58.00 C 27.33 58.00 28.67 58.00 30.00 58.00 C 30.00 53.32 30.00 48.64 30.00 43.96 C 37.27 43.74 44.59 45.08 50.97 48.69 C 57.55 35.87 57.55 20.13 50.97 7.32 C 44.64 10.86 37.40 12.26 30.18 12.03 C 29.79 7.82 26.43 3.89 21.99 4.01 C 17.65 3.90 14.31 7.67 13.84 11.79 Z" />
<path fill="#ffffff" opacity="1.00" d=" M 17.74 11.97 C 18.33 10.00 19.67 7.82 22.04 8.00 C 24.37 7.88 25.65 10.03 26.26 11.96 C 23.42 12.01 20.58 12.02 17.74 11.97 Z" />
<path fill="#ffffff" opacity="1.00" d=" M 45.17 13.99 C 46.42 13.54 47.67 13.07 48.92 12.59 C 52.98 22.36 52.96 33.63 48.92 43.41 C 47.67 42.93 46.42 42.46 45.17 42.01 C 48.82 33.09 48.82 22.91 45.17 13.99 Z" />
<path fill="#ffffff" opacity="1.00" d=" M 13.12 16.17 C 22.49 15.54 31.99 16.75 41.30 15.10 C 44.77 23.30 44.74 32.70 41.31 40.91 C 32.60 39.40 23.73 40.23 14.95 39.99 C 13.67 40.17 11.88 39.61 12.07 38.00 C 12.00 31.06 11.82 24.08 12.17 17.15 C 12.40 16.90 12.88 16.41 13.12 16.17 M 20.38 24.37 C 17.66 25.45 17.13 29.61 19.66 31.20 C 21.56 32.79 24.64 31.86 25.60 29.66 C 27.34 26.59 23.49 22.65 20.38 24.37 Z" />
</g>
<g id="#000000ff">
<path fill="#000000" opacity="1.00" d=" M 13.84 11.79 C 14.31 7.67 17.65 3.90 21.99 4.01 C 26.43 3.89 29.79 7.82 30.18 12.03 C 37.40 12.26 44.64 10.86 50.97 7.32 C 57.55 20.13 57.55 35.87 50.97 48.69 C 44.59 45.08 37.27 43.74 30.00 43.96 C 30.00 48.64 30.00 53.32 30.00 58.00 C 28.67 58.00 27.33 58.00 26.00 58.00 C 26.00 53.33 26.00 48.67 26.00 44.00 C 23.33 44.00 20.67 44.00 18.00 44.00 C 18.00 48.67 18.00 53.33 18.00 58.00 C 16.67 58.00 15.33 58.00 14.00 58.00 C 14.00 53.41 14.00 48.81 14.00 44.22 C 10.98 43.71 7.94 41.49 8.05 38.14 C 7.95 31.37 7.95 24.60 8.05 17.83 C 7.95 14.55 10.89 12.36 13.84 11.79 M 17.74 11.97 C 20.58 12.02 23.42 12.01 26.26 11.96 C 25.65 10.03 24.37 7.88 22.04 8.00 C 19.67 7.82 18.33 10.00 17.74 11.97 M 45.17 13.99 C 48.82 22.91 48.82 33.09 45.17 42.01 C 46.42 42.46 47.67 42.93 48.92 43.41 C 52.96 33.63 52.98 22.36 48.92 12.59 C 47.67 13.07 46.42 13.54 45.17 13.99 M 13.12 16.17 C 12.88 16.41 12.40 16.90 12.17 17.15 C 11.82 24.08 12.00 31.06 12.07 38.00 C 11.88 39.61 13.67 40.17 14.95 39.99 C 23.73 40.23 32.60 39.40 41.31 40.91 C 44.74 32.70 44.77 23.30 41.30 15.10 C 31.99 16.75 22.49 15.54 13.12 16.17 Z" />
<path fill="#000000" opacity="1.00" d=" M 20.38 24.37 C 23.49 22.65 27.34 26.59 25.60 29.66 C 24.64 31.86 21.56 32.79 19.66 31.20 C 17.13 29.61 17.66 25.45 20.38 24.37 Z" />
</g>
</svg>
