<?xml version="1.0" encoding="UTF-8" ?>
<!DOCTYPE svg PUBLIC "-//W3C//DTD SVG 1.1//EN" "http://www.w3.org/Graphics/SVG/1.1/DTD/svg11.dtd">
<svg width="64pt" height="64pt" viewBox="0 0 64 64" version="1.1" xmlns="http://www.w3.org/2000/svg">
<g id="#ffffffff">
<path fill="#ffffff" opacity="1.00" d=" M 0.00 0.00 L 64.00 0.00 L 64.00 64.00 L 0.00 64.00 L 0.00 0.00 M 6.32 4.40 C 3.64 5.52 3.15 9.65 5.67 11.20 C 8.07 13.28 12.16 11.04 11.98 7.97 C 12.10 5.23 8.77 3.00 6.32 4.40 M 6.00 16.00 C 6.00 18.67 6.00 21.33 6.00 24.00 C 7.33 24.00 8.67 24.00 10.00 24.00 C 10.00 21.33 10.00 18.67 10.00 16.00 C 8.67 16.00 7.33 16.00 6.00 16.00 M 6.00 28.00 C 6.00 30.67 6.00 33.33 6.00 36.00 C 7.32 36.00 8.63 36.00 9.95 36.00 C 9.99 35.50 10.08 34.49 10.13 33.99 C 15.84 33.57 21.55 35.75 25.46 39.95 C 23.64 39.99 21.82 40.00 20.00 40.01 C 20.00 41.34 20.00 42.67 20.00 44.00 C 24.00 44.00 28.00 44.00 32.00 44.00 C 32.00 40.00 32.00 36.00 32.00 32.00 C 30.67 32.00 29.33 32.00 28.00 32.00 C 28.00 33.59 28.00 35.17 28.01 36.76 C 23.27 32.14 16.65 29.52 10.01 30.04 C 10.01 29.53 9.99 28.51 9.99 28.00 C 8.66 28.00 7.33 28.00 6.00 28.00 M 54.37 30.37 C 51.63 31.48 51.13 35.70 53.73 37.24 C 55.62 38.79 58.64 37.83 59.59 35.67 C 61.35 32.60 57.48 28.64 54.37 30.37 M 40.12 40.04 C 40.72 41.23 41.33 42.41 41.93 43.59 C 44.33 42.42 46.70 41.20 49.05 39.94 C 48.44 38.76 47.84 37.58 47.24 36.40 C 44.86 37.60 42.49 38.82 40.12 40.04 M 6.00 40.00 C 6.00 42.67 6.00 45.33 6.00 48.00 C 7.33 48.00 8.67 48.00 10.00 48.00 C 10.00 45.33 10.00 42.67 10.00 40.00 C 8.67 40.00 7.33 40.00 6.00 40.00 M 29.55 45.65 C 30.16 46.84 30.77 48.03 31.38 49.22 C 33.76 48.01 36.13 46.79 38.49 45.55 C 37.89 44.38 37.28 43.21 36.68 42.04 C 34.29 43.23 31.92 44.44 29.55 45.65 M 18.72 51.07 C 19.33 52.25 19.93 53.43 20.54 54.61 C 22.92 53.41 25.29 52.19 27.65 50.96 C 27.05 49.78 26.44 48.60 25.83 47.42 C 23.46 48.64 21.09 49.84 18.72 51.07 M 6.00 52.00 C 6.00 54.67 6.00 57.34 6.00 60.02 C 10.15 60.77 13.52 58.05 17.04 56.39 C 16.44 55.19 15.85 54.00 15.26 52.80 C 13.51 53.71 11.76 54.58 10.00 55.47 C 10.00 54.60 10.00 52.87 10.00 52.00 C 8.67 52.00 7.33 52.00 6.00 52.00 Z" />
</g>
<g id="#000000ff">
<path fill="#000000" opacity="1.00" d=" M 6.32 4.40 C 8.77 3.00 12.10 5.23 11.98 7.97 C 12.16 11.04 8.07 13.28 5.67 11.20 C 3.15 9.65 3.64 5.52 6.32 4.40 Z" />
<path fill="#000000" opacity="1.00" d=" M 6.00 16.00 C 7.33 16.00 8.67 16.00 10.00 16.00 C 10.00 18.67 10.00 21.33 10.00 24.00 C 8.67 24.00 7.33 24.00 6.00 24.00 C 6.00 21.33 6.00 18.67 6.00 16.00 Z" />
<path fill="#000000" opacity="1.00" d=" M 6.00 28.00 C 7.33 28.00 8.66 28.00 9.99 28.00 C 9.99 28.51 10.01 29.53 10.01 30.04 C 16.65 29.52 23.27 32.14 28.01 36.76 C 28.00 35.17 28.00 33.59 28.00 32.00 C 29.33 32.00 30.67 32.00 32.00 32.00 C 32.00 36.00 32.00 40.00 32.00 44.00 C 28.00 44.00 24.00 44.00 20.00 44.00 C 20.00 42.67 20.00 41.34 20.00 40.01 C 21.82 40.00 23.64 39.99 25.46 39.95 C 21.55 35.75 15.84 33.57 10.13 33.99 C 10.08 34.49 9.99 35.50 9.95 36.00 C 8.63 36.00 7.32 36.00 6.00 36.00 C 6.00 33.33 6.00 30.67 6.00 28.00 Z" />
<path fill="#000000" opacity="1.00" d=" M 54.37 30.37 C 57.48 28.64 61.35 32.60 59.59 35.67 C 58.64 37.83 55.62 38.79 53.73 37.24 C 51.13 35.70 51.63 31.48 54.37 30.37 Z" />
<path fill="#000000" opacity="1.00" d=" M 40.12 40.04 C 42.49 38.82 44.86 37.60 47.24 36.40 C 47.84 37.58 48.44 38.76 49.05 39.94 C 46.70 41.20 44.33 42.42 41.93 43.59 C 41.33 42.41 40.72 41.23 40.12 40.04 Z" />
<path fill="#000000" opacity="1.00" d=" M 6.00 40.00 C 7.33 40.00 8.67 40.00 10.00 40.00 C 10.00 42.67 10.00 45.33 10.00 48.00 C 8.67 48.00 7.33 48.00 6.00 48.00 C 6.00 45.33 6.00 42.67 6.00 40.00 Z" />
<path fill="#000000" opacity="1.00" d=" M 29.55 45.65 C 31.92 44.44 34.29 43.23 36.68 42.04 C 37.28 43.21 37.89 44.38 38.49 45.55 C 36.13 46.79 33.76 48.01 31.38 49.22 C 30.77 48.03 30.16 46.84 29.55 45.65 Z" />
<path fill="#000000" opacity="1.00" d=" M 18.72 51.07 C 21.09 49.84 23.46 48.64 25.83 47.42 C 26.44 48.60 27.05 49.78 27.65 50.96 C 25.29 52.19 22.92 53.41 20.54 54.61 C 19.93 53.43 19.33 52.25 18.72 51.07 Z" />
<path fill="#000000" opacity="1.00" d=" M 6.00 52.00 C 7.33 52.00 8.67 52.00 10.00 52.00 C 10.00 52.87 10.00 54.60 10.00 55.47 C 11.76 54.58 13.51 53.71 15.26 52.80 C 15.85 54.00 16.44 55.19 17.04 56.39 C 13.52 58.05 10.15 60.77 6.00 60.02 C 6.00 57.34 6.00 54.67 6.00 52.00 Z" />
</g>
</svg>
