<?xml version="1.0" encoding="UTF-8" ?>
<!DOCTYPE svg PUBLIC "-//W3C//DTD SVG 1.1//EN" "http://www.w3.org/Graphics/SVG/1.1/DTD/svg11.dtd">
<svg width="64pt" height="64pt" viewBox="0 0 64 64" version="1.1" xmlns="http://www.w3.org/2000/svg">
<g id="#ffffffff">
<path fill="#ffffff" opacity="1.00" d=" M 0.00 0.00 L 64.00 0.00 L 64.00 64.00 L 0.00 64.00 L 0.00 0.00 M 10.05 13.91 C 9.93 27.94 10.04 41.97 10.00 56.00 C 11.33 56.00 12.67 56.00 14.00 56.00 C 14.05 42.00 13.91 28.00 14.06 14.01 C 14.21 11.03 18.02 12.28 19.97 11.95 C 20.64 12.64 21.32 13.33 22.00 14.02 C 21.99 21.35 22.00 28.67 22.00 35.99 C 21.50 36.00 20.50 36.00 20.00 36.01 C 20.00 39.30 20.00 42.59 20.00 45.89 C 22.23 46.10 24.68 45.97 26.61 47.32 C 28.26 48.28 27.80 50.43 28.16 52.00 C 30.72 52.00 33.28 52.00 35.83 52.00 C 36.21 50.43 35.73 48.26 37.40 47.31 C 39.31 45.96 41.78 46.12 44.00 45.88 C 44.00 42.59 44.00 39.30 44.00 36.01 C 43.50 36.00 42.50 36.00 42.00 35.99 C 42.00 28.67 42.00 21.34 42.00 14.02 C 42.68 13.33 43.35 12.64 44.03 11.95 C 45.64 11.98 47.25 11.95 48.85 12.17 C 50.34 12.88 49.88 14.67 50.01 15.98 C 49.99 29.32 50.00 42.66 50.00 56.00 C 51.33 56.00 52.67 56.00 54.00 56.00 C 53.96 41.95 54.08 27.90 53.95 13.85 C 53.99 10.75 51.20 7.97 48.10 8.05 C 37.34 7.97 26.57 7.96 15.81 8.05 C 12.71 8.01 9.96 10.82 10.05 13.91 Z" />
<path fill="#ffffff" opacity="1.00" d=" M 23.99 14.01 C 24.66 13.34 25.34 12.67 26.01 11.99 C 30.00 12.00 33.99 12.00 37.98 11.99 C 38.66 12.67 39.33 13.34 40.01 14.02 C 39.99 21.34 40.00 28.67 40.00 36.00 C 34.67 36.00 29.33 36.00 24.00 36.00 C 24.00 28.67 24.01 21.34 23.99 14.01 Z" />
<path fill="#ffffff" opacity="1.00" d=" M 23.80 40.02 C 29.27 39.99 34.73 39.99 40.20 40.02 C 40.63 42.84 37.56 42.59 35.82 43.61 C 33.84 44.44 33.01 46.56 32.00 48.29 C 30.81 44.77 27.62 42.96 24.21 42.10 C 24.11 41.58 23.90 40.54 23.80 40.02 Z" />
</g>
<g id="#000000ff">
<path fill="#000000" opacity="1.00" d=" M 10.05 13.91 C 9.96 10.82 12.71 8.01 15.81 8.05 C 26.57 7.96 37.34 7.97 48.10 8.05 C 51.20 7.97 53.99 10.75 53.95 13.85 C 54.08 27.90 53.96 41.95 54.00 56.00 C 52.67 56.00 51.33 56.00 50.00 56.00 C 50.00 42.66 49.99 29.32 50.01 15.98 C 49.88 14.67 50.34 12.88 48.85 12.17 C 47.25 11.95 45.64 11.98 44.03 11.95 C 43.35 12.64 42.68 13.33 42.00 14.02 C 42.00 21.34 42.00 28.67 42.00 35.99 C 42.50 36.00 43.50 36.00 44.00 36.01 C 44.00 39.30 44.00 42.59 44.00 45.88 C 41.78 46.12 39.31 45.96 37.40 47.31 C 35.73 48.26 36.21 50.43 35.83 52.00 C 33.28 52.00 30.72 52.00 28.16 52.00 C 27.80 50.43 28.26 48.28 26.61 47.32 C 24.68 45.97 22.23 46.10 20.00 45.89 C 20.00 42.59 20.00 39.30 20.00 36.01 C 20.50 36.00 21.50 36.00 22.00 35.99 C 22.00 28.67 21.99 21.35 22.00 14.02 C 21.32 13.33 20.64 12.64 19.97 11.95 C 18.02 12.28 14.21 11.03 14.06 14.01 C 13.91 28.00 14.05 42.00 14.00 56.00 C 12.67 56.00 11.33 56.00 10.00 56.00 C 10.04 41.97 9.93 27.94 10.05 13.91 M 23.99 14.01 C 24.01 21.34 24.00 28.67 24.00 36.00 C 29.33 36.00 34.67 36.00 40.00 36.00 C 40.00 28.67 39.99 21.34 40.01 14.02 C 39.33 13.34 38.66 12.67 37.98 11.99 C 33.99 12.00 30.00 12.00 26.01 11.99 C 25.34 12.67 24.66 13.34 23.99 14.01 M 23.80 40.02 C 23.90 40.54 24.11 41.58 24.21 42.10 C 27.62 42.96 30.81 44.77 32.00 48.29 C 33.01 46.56 33.84 44.44 35.82 43.61 C 37.56 42.59 40.63 42.84 40.20 40.02 C 34.73 39.99 29.27 39.99 23.80 40.02 Z" />
</g>
</svg>
