<?xml version="1.0" encoding="UTF-8" ?>
<!DOCTYPE svg PUBLIC "-//W3C//DTD SVG 1.1//EN" "http://www.w3.org/Graphics/SVG/1.1/DTD/svg11.dtd">
<svg width="60pt" height="60pt" viewBox="0 0 60 60" version="1.1" xmlns="http://www.w3.org/2000/svg">
<g id="#ffffffff">
<path fill="#ffffff" opacity="1.00" d=" M 0.00 0.00 L 60.00 0.00 L 60.00 60.00 L 0.00 60.00 L 0.00 0.00 M 8.04 15.89 C 7.93 27.93 8.04 39.96 8.00 52.00 C 10.00 52.00 12.00 52.00 14.00 52.00 C 14.06 39.98 13.88 27.95 14.08 15.93 C 14.22 13.13 17.82 14.21 19.66 14.00 C 20.56 16.47 23.39 16.50 24.33 14.03 C 28.11 13.98 31.89 13.98 35.66 14.03 C 36.61 16.50 39.42 16.47 40.34 14.00 C 41.87 13.98 43.41 13.95 44.94 14.18 C 46.30 14.99 45.89 16.67 46.02 17.98 C 45.98 29.32 46.01 40.66 46.00 52.00 C 48.00 52.00 50.00 52.00 52.00 52.00 C 51.96 39.97 52.07 27.93 51.96 15.90 C 52.04 11.72 48.32 7.97 44.13 8.04 C 34.73 7.97 25.33 7.97 15.93 8.04 C 11.73 7.93 7.95 11.68 8.04 15.89 M 21.24 18.13 C 19.95 18.58 19.51 20.60 20.64 21.40 C 21.61 22.70 24.19 21.72 23.93 20.07 C 24.24 18.68 22.44 17.58 21.24 18.13 M 37.23 18.14 C 34.78 18.99 36.46 23.00 38.74 21.82 C 41.22 21.02 39.58 17.05 37.23 18.14 M 21.15 24.12 C 18.84 25.23 20.45 28.87 22.83 27.89 C 25.15 26.77 23.56 23.12 21.15 24.12 M 37.16 24.10 C 34.88 25.21 36.40 28.85 38.79 27.89 C 41.16 26.84 39.60 23.13 37.16 24.10 M 21.23 30.15 C 18.79 31.10 20.42 34.89 22.82 33.89 C 25.15 32.86 23.58 29.08 21.23 30.15 M 37.29 30.15 C 34.71 30.90 36.50 35.11 38.80 33.79 C 41.20 32.96 39.53 29.05 37.29 30.15 M 35.84 36.74 C 32.04 38.35 27.79 38.26 23.98 36.70 C 21.68 35.55 19.10 38.34 20.21 40.57 C 20.94 42.34 23.13 42.53 24.66 43.26 C 25.22 45.84 26.97 48.48 29.99 48.04 C 33.02 48.48 34.78 45.85 35.34 43.27 C 37.05 42.49 39.56 42.19 40.02 39.98 C 40.54 37.68 37.92 35.66 35.84 36.74 Z" />
</g>
<g id="#000000ff">
<path fill="#000000" opacity="1.00" d=" M 8.04 15.89 C 7.95 11.68 11.73 7.93 15.93 8.04 C 25.33 7.97 34.73 7.97 44.13 8.04 C 48.32 7.97 52.04 11.72 51.96 15.90 C 52.07 27.93 51.96 39.97 52.00 52.00 C 50.00 52.00 48.00 52.00 46.00 52.00 C 46.01 40.66 45.98 29.32 46.02 17.98 C 45.89 16.67 46.30 14.99 44.94 14.18 C 43.41 13.95 41.87 13.98 40.34 14.00 C 39.42 16.47 36.61 16.50 35.66 14.03 C 31.89 13.98 28.11 13.98 24.33 14.03 C 23.39 16.50 20.56 16.47 19.66 14.00 C 17.82 14.21 14.22 13.13 14.08 15.93 C 13.88 27.95 14.06 39.98 14.00 52.00 C 12.00 52.00 10.00 52.00 8.00 52.00 C 8.04 39.96 7.93 27.93 8.04 15.89 Z" />
<path fill="#000000" opacity="1.00" d=" M 21.24 18.13 C 22.44 17.58 24.24 18.68 23.93 20.07 C 24.19 21.72 21.61 22.70 20.64 21.40 C 19.51 20.60 19.95 18.58 21.24 18.13 Z" />
<path fill="#000000" opacity="1.00" d=" M 37.23 18.14 C 39.58 17.05 41.22 21.02 38.74 21.82 C 36.46 23.00 34.78 18.99 37.23 18.14 Z" />
<path fill="#000000" opacity="1.00" d=" M 21.15 24.12 C 23.56 23.12 25.15 26.77 22.83 27.89 C 20.45 28.87 18.84 25.23 21.15 24.12 Z" />
<path fill="#000000" opacity="1.00" d=" M 37.16 24.10 C 39.60 23.13 41.16 26.84 38.79 27.89 C 36.40 28.85 34.88 25.21 37.16 24.10 Z" />
<path fill="#000000" opacity="1.00" d=" M 21.23 30.15 C 23.58 29.08 25.15 32.86 22.82 33.89 C 20.42 34.89 18.79 31.10 21.23 30.15 Z" />
<path fill="#000000" opacity="1.00" d=" M 37.29 30.15 C 39.53 29.05 41.20 32.96 38.80 33.79 C 36.50 35.11 34.71 30.90 37.29 30.15 Z" />
<path fill="#000000" opacity="1.00" d=" M 35.84 36.74 C 37.92 35.66 40.54 37.68 40.02 39.98 C 39.56 42.19 37.05 42.49 35.34 43.27 C 34.78 45.85 33.02 48.48 29.99 48.04 C 26.97 48.48 25.22 45.84 24.66 43.26 C 23.13 42.53 20.94 42.34 20.21 40.57 C 19.10 38.34 21.68 35.55 23.98 36.70 C 27.79 38.26 32.04 38.35 35.84 36.74 Z" />
</g>
</svg>
