<?xml version="1.0" encoding="UTF-8" ?>
<!DOCTYPE svg PUBLIC "-//W3C//DTD SVG 1.1//EN" "http://www.w3.org/Graphics/SVG/1.1/DTD/svg11.dtd">
<svg width="60pt" height="60pt" viewBox="0 0 60 60" version="1.1" xmlns="http://www.w3.org/2000/svg">
<g id="#ffffffff">
<path fill="#ffffff" opacity="1.00" d=" M 0.00 0.00 L 60.00 0.00 L 60.00 60.00 L 0.00 60.00 L 0.00 0.00 M 16.36 10.34 C 10.91 14.11 7.41 20.24 6.34 26.73 C 3.05 28.51 0.65 32.51 2.76 36.10 C 3.91 39.28 8.23 38.91 9.46 41.92 C 13.50 49.20 21.60 54.04 29.96 53.96 C 38.36 54.06 46.53 49.21 50.57 41.85 C 51.79 38.92 56.00 39.28 57.17 36.21 C 59.37 32.61 56.99 28.52 53.66 26.73 C 52.52 19.77 48.52 13.24 42.44 9.55 C 34.62 4.57 23.87 4.90 16.36 10.34 Z" />
<path fill="#ffffff" opacity="1.00" d=" M 10.29 26.89 C 11.53 17.45 20.41 9.76 29.96 10.04 C 31.71 9.72 32.77 12.45 31.36 13.41 C 29.67 15.09 27.16 11.60 25.63 13.76 C 24.15 16.30 27.90 18.08 29.99 18.01 C 33.78 18.09 36.27 14.41 36.17 10.89 C 43.13 13.36 48.69 19.53 49.70 26.95 C 49.25 30.47 55.25 30.23 53.79 33.94 C 53.25 36.60 49.34 35.15 48.55 37.54 C 45.91 43.49 40.58 48.32 34.09 49.54 C 26.70 51.18 18.54 48.11 14.07 42.01 C 12.77 40.28 12.00 38.23 10.75 36.47 C 8.87 35.83 5.90 35.67 5.99 32.98 C 5.98 29.93 10.78 30.23 10.29 26.89 M 19.37 26.49 C 17.61 27.55 17.60 30.39 19.33 31.48 C 20.87 32.59 23.37 31.76 23.81 29.89 C 24.84 27.39 21.54 24.91 19.37 26.49 M 37.34 26.51 C 34.12 28.47 37.44 33.74 40.61 31.51 C 43.94 29.59 40.53 24.19 37.34 26.51 M 19.66 36.59 C 19.47 36.94 19.10 37.62 18.92 37.97 C 22.69 44.79 33.08 45.86 38.80 40.82 C 40.43 39.88 41.94 37.53 39.93 36.10 C 38.02 35.64 36.82 37.44 35.36 38.30 C 31.87 40.86 26.67 40.39 23.52 37.48 C 22.55 36.70 20.66 35.13 19.66 36.59 Z" />
</g>
<g id="#000000ff">
<path fill="#968176" opacity="1.00" d=" M 16.36 10.34 C 23.87 4.90 34.62 4.57 42.44 9.55 C 48.52 13.24 52.52 19.77 53.66 26.73 C 56.99 28.52 59.37 32.61 57.17 36.21 C 56.00 39.28 51.79 38.92 50.57 41.85 C 46.53 49.21 38.36 54.06 29.96 53.96 C 21.60 54.04 13.50 49.20 9.46 41.92 C 8.23 38.91 3.91 39.28 2.76 36.10 C 0.65 32.51 3.05 28.51 6.34 26.73 C 7.41 20.24 10.91 14.11 16.36 10.34 M 10.29 26.89 C 10.78 30.23 5.98 29.93 5.99 32.98 C 5.90 35.67 8.87 35.83 10.75 36.47 C 12.00 38.23 12.77 40.28 14.07 42.01 C 18.54 48.11 26.70 51.18 34.09 49.54 C 40.58 48.32 45.91 43.49 48.55 37.54 C 49.34 35.15 53.25 36.60 53.79 33.94 C 55.25 30.23 49.25 30.47 49.70 26.95 C 48.69 19.53 43.13 13.36 36.17 10.89 C 36.27 14.41 33.78 18.09 29.99 18.01 C 27.90 18.08 24.15 16.30 25.63 13.76 C 27.16 11.60 29.67 15.09 31.36 13.41 C 32.77 12.45 31.71 9.72 29.96 10.04 C 20.41 9.76 11.53 17.45 10.29 26.89 Z" />
<path fill="#968176" opacity="1.00" d=" M 19.37 26.49 C 21.54 24.91 24.84 27.39 23.81 29.89 C 23.37 31.76 20.87 32.59 19.33 31.48 C 17.60 30.39 17.61 27.55 19.37 26.49 Z" />
<path fill="#968176" opacity="1.00" d=" M 37.34 26.51 C 40.53 24.19 43.94 29.59 40.61 31.51 C 37.44 33.74 34.12 28.47 37.34 26.51 Z" />
<path fill="#968176" opacity="1.00" d=" M 19.66 36.59 C 20.66 35.13 22.55 36.70 23.52 37.48 C 26.67 40.39 31.87 40.86 35.36 38.30 C 36.82 37.44 38.02 35.64 39.93 36.10 C 41.94 37.53 40.43 39.88 38.80 40.82 C 33.08 45.86 22.69 44.79 18.92 37.97 C 19.10 37.62 19.47 36.94 19.66 36.59 Z" />
</g>
</svg>
