<?xml version="1.0" encoding="UTF-8" ?>
<!DOCTYPE svg PUBLIC "-//W3C//DTD SVG 1.1//EN" "http://www.w3.org/Graphics/SVG/1.1/DTD/svg11.dtd">
<svg width="60pt" height="60pt" viewBox="0 0 60 60" version="1.1" xmlns="http://www.w3.org/2000/svg">
<g id="#ffffffff">
<path fill="#ffffff" opacity="1.00" d=" M 0.00 0.00 L 60.00 0.00 L 60.00 60.00 L 0.00 60.00 L 0.00 0.00 M 25.76 5.78 C 23.92 7.39 24.19 10.00 23.79 12.18 C 22.52 13.96 21.07 15.63 20.20 17.67 C 19.04 18.30 17.40 18.50 16.80 19.83 C 15.47 22.81 13.29 25.56 14.04 29.04 C 14.53 29.33 15.51 29.91 16.00 30.20 C 16.04 36.19 15.91 42.17 16.05 48.16 C 16.00 51.25 18.78 53.99 21.86 53.95 C 27.29 54.05 32.72 54.05 38.15 53.95 C 41.25 53.98 44.01 51.19 43.96 48.09 C 44.11 42.19 43.92 36.28 44.03 30.38 C 47.24 28.80 46.08 24.73 44.42 22.39 C 43.68 20.10 42.30 18.14 39.79 17.68 C 38.89 15.68 37.65 13.86 36.11 12.29 C 35.91 10.27 36.13 7.96 34.70 6.32 C 32.66 3.51 28.13 3.23 25.76 5.78 Z" />
<path fill="#ffffff" opacity="1.00" d=" M 27.76 13.80 C 28.40 11.91 27.09 8.22 30.00 8.01 C 32.92 8.25 31.59 11.97 32.27 13.87 C 33.42 15.26 34.73 16.51 35.88 17.91 C 31.96 18.05 28.04 18.05 24.12 17.91 C 25.28 16.49 26.61 15.22 27.76 13.80 Z" />
<path fill="#ffffff" opacity="1.00" d=" M 20.00 30.00 C 26.67 30.00 33.33 30.00 40.00 30.00 C 40.00 31.28 40.00 32.57 40.00 33.85 C 38.62 34.08 35.83 33.86 36.07 35.98 C 35.81 38.12 38.61 37.93 40.00 38.15 C 40.00 39.38 40.00 40.62 40.00 41.85 C 38.62 42.07 35.82 41.86 36.07 43.99 C 35.84 46.19 38.73 45.92 40.14 46.17 C 39.96 47.57 40.10 50.09 38.01 49.94 C 32.66 50.06 27.31 50.06 21.97 49.93 C 20.39 50.12 19.82 48.32 20.01 47.07 C 19.95 41.38 20.03 35.69 20.00 30.00 Z" />
</g>
<g id="#000000ff">
<path fill="#000000" opacity="1.00" d=" M 25.76 5.78 C 28.13 3.23 32.66 3.51 34.70 6.32 C 36.13 7.96 35.91 10.27 36.11 12.29 C 37.65 13.86 38.89 15.68 39.79 17.68 C 42.30 18.14 43.68 20.10 44.42 22.39 C 46.08 24.73 47.24 28.80 44.03 30.38 C 43.92 36.28 44.11 42.19 43.96 48.09 C 44.01 51.19 41.25 53.98 38.15 53.95 C 32.72 54.05 27.29 54.05 21.86 53.95 C 18.78 53.99 16.00 51.25 16.05 48.16 C 15.91 42.17 16.04 36.19 16.00 30.20 C 15.51 29.91 14.53 29.33 14.04 29.04 C 13.29 25.56 15.47 22.81 16.80 19.83 C 17.40 18.50 19.04 18.30 20.20 17.67 C 21.07 15.63 22.52 13.96 23.79 12.18 C 24.19 10.00 23.92 7.39 25.76 5.78 M 27.76 13.80 C 26.61 15.22 25.28 16.49 24.12 17.91 C 28.04 18.05 31.96 18.05 35.88 17.91 C 34.73 16.51 33.42 15.26 32.27 13.87 C 31.59 11.97 32.92 8.25 30.00 8.01 C 27.09 8.22 28.40 11.91 27.76 13.80 M 20.00 30.00 C 20.03 35.69 19.95 41.38 20.01 47.07 C 19.82 48.32 20.39 50.12 21.97 49.93 C 27.31 50.06 32.66 50.06 38.01 49.94 C 40.10 50.09 39.96 47.57 40.14 46.17 C 38.73 45.92 35.84 46.19 36.07 43.99 C 35.82 41.86 38.62 42.07 40.00 41.85 C 40.00 40.62 40.00 39.38 40.00 38.15 C 38.61 37.93 35.81 38.12 36.07 35.98 C 35.83 33.86 38.62 34.08 40.00 33.85 C 40.00 32.57 40.00 31.28 40.00 30.00 C 33.33 30.00 26.67 30.00 20.00 30.00 Z" />
</g>
</svg>
