<?xml version="1.0" encoding="UTF-8" ?>
<!DOCTYPE svg PUBLIC "-//W3C//DTD SVG 1.1//EN" "http://www.w3.org/Graphics/SVG/1.1/DTD/svg11.dtd">
<svg width="60pt" height="60pt" viewBox="0 0 60 60" version="1.1" xmlns="http://www.w3.org/2000/svg">
<g id="#ffffffff">
<path fill="#ffffff" opacity="1.00" d=" M 0.00 0.00 L 60.00 0.00 L 60.00 60.00 L 0.00 60.00 L 0.00 0.00 M 24.36 6.41 C 21.76 7.72 21.17 12.17 23.99 13.57 C 27.29 14.72 30.06 10.22 28.33 7.50 C 27.66 6.02 25.68 5.62 24.36 6.41 M 17.97 12.14 C 20.56 11.35 19.55 8.27 18.08 6.92 C 15.67 7.66 15.10 11.71 17.97 12.14 M 12.12 8.45 C 9.76 9.49 11.41 13.92 13.91 12.74 C 14.84 11.13 14.06 8.78 12.12 8.45 M 7.29 11.35 C 5.78 13.08 7.91 16.04 10.00 14.77 C 10.84 13.05 9.25 10.60 7.29 11.35 M 15.15 16.22 C 11.17 17.08 8.22 20.96 8.18 24.99 C 8.16 29.39 9.07 33.90 11.25 37.76 C 12.85 41.90 20.58 44.23 21.92 38.79 C 22.80 35.29 18.17 33.41 18.83 29.95 C 19.40 27.75 21.49 26.42 22.76 24.63 C 24.81 22.58 24.54 18.63 21.99 17.11 C 19.93 15.96 17.43 15.79 15.15 16.22 M 33.12 20.22 C 30.85 21.08 30.66 24.33 32.01 26.09 C 33.06 27.88 36.13 28.53 37.25 26.45 C 39.21 23.80 36.47 19.02 33.12 20.22 M 42.92 26.10 C 44.70 24.43 44.03 21.88 41.96 20.90 C 40.01 22.33 39.63 26.47 42.92 26.10 M 47.23 22.57 C 45.76 23.36 45.28 25.30 46.10 26.73 C 48.87 28.21 50.42 22.27 47.23 22.57 M 51.29 25.33 C 49.81 25.75 48.89 28.95 50.92 28.95 C 53.39 29.77 54.23 24.36 51.29 25.33 M 39.32 30.51 C 36.93 31.11 35.46 33.66 35.94 36.04 C 36.58 39.29 40.26 40.82 41.16 43.92 C 41.85 47.39 37.21 49.27 38.08 52.76 C 38.43 55.84 42.19 56.65 44.62 55.54 C 48.44 53.98 50.00 49.71 50.98 46.02 C 51.93 41.85 52.71 36.85 49.72 33.30 C 47.33 30.16 42.94 29.31 39.32 30.51 Z" />
</g>
<g id="#000000ff">
<path fill="#000000" opacity="1.00" d=" M 24.36 6.41 C 25.68 5.62 27.66 6.02 28.33 7.50 C 30.06 10.22 27.29 14.72 23.99 13.57 C 21.17 12.17 21.76 7.72 24.36 6.41 Z" />
<path fill="#000000" opacity="1.00" d=" M 17.97 12.14 C 15.10 11.71 15.67 7.66 18.08 6.92 C 19.55 8.27 20.56 11.35 17.97 12.14 Z" />
<path fill="#000000" opacity="1.00" d=" M 12.12 8.45 C 14.06 8.78 14.84 11.13 13.91 12.74 C 11.41 13.92 9.76 9.49 12.12 8.45 Z" />
<path fill="#000000" opacity="1.00" d=" M 7.29 11.35 C 9.25 10.60 10.84 13.05 10.00 14.77 C 7.91 16.04 5.78 13.08 7.29 11.35 Z" />
<path fill="#000000" opacity="1.00" d=" M 15.15 16.22 C 17.43 15.79 19.93 15.96 21.99 17.11 C 24.54 18.63 24.81 22.58 22.76 24.63 C 21.49 26.42 19.40 27.75 18.83 29.95 C 18.17 33.41 22.80 35.29 21.92 38.79 C 20.58 44.23 12.85 41.90 11.25 37.76 C 9.07 33.90 8.16 29.39 8.18 24.99 C 8.22 20.96 11.17 17.08 15.15 16.22 Z" />
<path fill="#000000" opacity="1.00" d=" M 33.12 20.22 C 36.47 19.02 39.21 23.80 37.25 26.45 C 36.13 28.53 33.06 27.88 32.01 26.09 C 30.66 24.33 30.85 21.08 33.12 20.22 Z" />
<path fill="#000000" opacity="1.00" d=" M 42.92 26.10 C 39.63 26.47 40.01 22.33 41.96 20.90 C 44.03 21.88 44.70 24.43 42.92 26.10 Z" />
<path fill="#000000" opacity="1.00" d=" M 47.23 22.57 C 50.42 22.27 48.87 28.21 46.10 26.73 C 45.28 25.30 45.76 23.36 47.23 22.57 Z" />
<path fill="#000000" opacity="1.00" d=" M 51.29 25.33 C 54.23 24.36 53.39 29.77 50.92 28.95 C 48.89 28.95 49.81 25.75 51.29 25.33 Z" />
<path fill="#000000" opacity="1.00" d=" M 39.32 30.51 C 42.94 29.31 47.33 30.16 49.72 33.30 C 52.71 36.85 51.93 41.85 50.98 46.02 C 50.00 49.71 48.44 53.98 44.62 55.54 C 42.19 56.65 38.43 55.84 38.08 52.76 C 37.21 49.27 41.85 47.39 41.16 43.92 C 40.26 40.82 36.58 39.29 35.94 36.04 C 35.46 33.66 36.93 31.11 39.32 30.51 Z" />
</g>
</svg>
