<?xml version="1.0" encoding="UTF-8" ?>
<!DOCTYPE svg PUBLIC "-//W3C//DTD SVG 1.1//EN" "http://www.w3.org/Graphics/SVG/1.1/DTD/svg11.dtd">
<svg width="64pt" height="64pt" viewBox="0 0 64 64" version="1.1" xmlns="http://www.w3.org/2000/svg">
<g id="#ffffffff">
<path fill="#ffffff" opacity="1.00" d=" M 0.00 0.00 L 64.00 0.00 L 64.00 64.00 L 0.00 64.00 L 0.00 0.00 M 24.02 5.82 C 24.01 7.15 24.01 8.48 24.00 9.81 C 25.98 10.14 27.89 10.80 29.55 11.96 C 21.13 13.39 14.15 20.04 12.51 28.44 C 10.40 29.63 7.86 31.15 7.99 33.95 C 7.81 36.77 10.33 38.34 12.46 39.52 C 13.66 44.00 15.77 48.38 19.45 51.35 C 25.54 56.76 35.15 57.51 42.04 53.18 C 47.02 50.25 50.16 45.04 51.54 39.53 C 53.65 38.35 56.13 36.81 56.01 34.03 C 56.17 31.32 53.76 29.74 51.76 28.50 C 50.00 21.10 44.41 14.29 36.72 12.76 C 38.60 11.74 37.84 9.46 38.02 7.74 C 36.20 8.22 34.51 9.07 33.03 10.24 C 30.82 7.46 27.50 6.12 24.02 5.82 Z" />
<path fill="#ffffff" opacity="1.00" d=" M 23.60 18.46 C 29.84 14.37 38.83 15.64 43.75 21.24 C 46.51 24.08 47.69 27.97 48.28 31.79 C 49.61 32.06 52.20 32.02 51.93 34.03 C 52.14 36.09 49.45 35.92 48.09 36.17 C 47.54 40.94 45.62 45.75 41.63 48.67 C 35.81 53.35 26.68 52.95 21.29 47.76 C 17.94 44.84 16.44 40.47 15.91 36.17 C 14.52 35.95 11.80 36.07 12.07 33.96 C 11.85 31.90 14.55 32.07 15.91 31.83 C 16.44 26.55 18.91 21.27 23.60 18.46 M 23.37 32.49 C 20.09 34.45 23.47 39.78 26.64 37.49 C 29.90 35.55 26.54 30.23 23.37 32.49 M 37.36 32.51 C 35.59 33.57 35.60 36.47 37.39 37.52 C 38.93 38.55 41.33 37.76 41.80 35.93 C 42.87 33.41 39.54 30.89 37.36 32.51 Z" />
</g>
<g id="#000000ff">
<path fill="#000000" opacity="1.00" d=" M 24.02 5.82 C 27.50 6.12 30.82 7.46 33.03 10.24 C 34.51 9.07 36.20 8.22 38.02 7.74 C 37.84 9.46 38.60 11.74 36.72 12.76 C 44.41 14.29 50.00 21.10 51.76 28.50 C 53.76 29.74 56.17 31.32 56.01 34.03 C 56.13 36.81 53.65 38.35 51.54 39.53 C 50.16 45.04 47.02 50.25 42.04 53.18 C 35.15 57.51 25.54 56.76 19.45 51.35 C 15.77 48.38 13.66 44.00 12.46 39.52 C 10.33 38.34 7.81 36.77 7.99 33.95 C 7.86 31.15 10.40 29.63 12.51 28.44 C 14.15 20.04 21.13 13.39 29.55 11.96 C 27.89 10.80 25.98 10.14 24.00 9.81 C 24.01 8.48 24.01 7.15 24.02 5.82 M 23.60 18.46 C 18.91 21.27 16.44 26.55 15.91 31.83 C 14.55 32.07 11.85 31.90 12.07 33.96 C 11.80 36.07 14.52 35.95 15.91 36.17 C 16.44 40.47 17.94 44.84 21.29 47.76 C 26.68 52.95 35.81 53.35 41.63 48.67 C 45.62 45.75 47.54 40.94 48.09 36.17 C 49.45 35.92 52.14 36.09 51.93 34.03 C 52.20 32.02 49.61 32.06 48.28 31.79 C 47.69 27.97 46.51 24.08 43.75 21.24 C 38.83 15.64 29.84 14.37 23.60 18.46 Z" />
<path fill="#000000" opacity="1.00" d=" M 23.37 32.49 C 26.54 30.23 29.90 35.55 26.64 37.49 C 23.47 39.78 20.09 34.45 23.37 32.49 Z" />
<path fill="#000000" opacity="1.00" d=" M 37.36 32.51 C 39.54 30.89 42.87 33.41 41.80 35.93 C 41.33 37.76 38.93 38.55 37.39 37.52 C 35.60 36.47 35.59 33.57 37.36 32.51 Z" />
</g>
</svg>
