<?xml version="1.0" encoding="UTF-8" ?>
<!DOCTYPE svg PUBLIC "-//W3C//DTD SVG 1.1//EN" "http://www.w3.org/Graphics/SVG/1.1/DTD/svg11.dtd">
<svg width="64pt" height="64pt" viewBox="0 0 64 64" version="1.1" xmlns="http://www.w3.org/2000/svg">
<g id="#ffffffff">
<path fill="#ffffff" opacity="1.00" d=" M 0.00 0.00 L 64.00 0.00 L 64.00 64.00 L 0.00 64.00 L 0.00 0.00 M 14.71 32.00 C 22.43 39.88 30.30 47.61 38.08 55.43 C 39.04 54.48 39.99 53.51 40.94 52.54 C 34.08 45.70 27.23 38.85 20.39 32.00 C 27.24 25.15 34.07 18.30 40.94 11.47 C 39.99 10.49 39.04 9.53 38.08 8.57 C 30.30 16.39 22.44 24.12 14.71 32.00 Z" />
</g>
<g id="#000000ff">
<path fill="#000000" opacity="1.00" d=" M 14.71 32.00 C 22.44 24.12 30.30 16.39 38.08 8.57 C 39.04 9.53 39.99 10.49 40.94 11.47 C 34.07 18.30 27.24 25.15 20.39 32.00 C 27.23 38.85 34.08 45.70 40.94 52.54 C 39.99 53.51 39.04 54.48 38.08 55.43 C 30.30 47.61 22.43 39.88 14.71 32.00 Z" />
</g>
</svg>
