<?xml version="1.0" encoding="UTF-8" ?>
<!DOCTYPE svg PUBLIC "-//W3C//DTD SVG 1.1//EN" "http://www.w3.org/Graphics/SVG/1.1/DTD/svg11.dtd">
<svg width="64pt" height="64pt" viewBox="0 0 64 64" version="1.1" xmlns="http://www.w3.org/2000/svg">
<g id="#ffffffff">
<path fill="#ffffff" opacity="1.00" d=" M 0.00 0.00 L 64.00 0.00 L 64.00 64.00 L 0.00 64.00 L 0.00 0.00 M 6.00 14.00 C 6.00 26.00 6.00 38.00 6.00 50.00 C 23.33 50.00 40.67 50.00 58.00 50.00 C 58.00 38.00 58.00 26.00 58.00 14.00 C 40.67 14.00 23.33 14.00 6.00 14.00 Z" />
<path fill="#ffffff" opacity="1.00" d=" M 10.00 18.00 C 24.67 18.00 39.33 18.00 54.00 18.00 C 54.00 27.33 54.00 36.67 54.00 46.00 C 39.33 46.00 24.67 46.00 10.00 46.00 C 10.00 36.67 10.00 27.33 10.00 18.00 M 27.58 22.55 C 24.45 25.70 21.27 28.80 18.19 32.00 C 21.28 35.20 24.44 38.32 27.60 41.44 C 28.54 40.46 29.49 39.48 30.44 38.50 C 28.91 36.99 27.39 35.49 25.87 33.98 C 31.91 34.02 37.95 33.99 44.00 34.00 C 44.00 32.67 44.00 31.33 44.00 30.00 C 37.97 30.00 31.93 29.99 25.90 30.01 C 27.42 28.49 28.94 26.97 30.45 25.44 C 29.49 24.48 28.53 23.52 27.58 22.55 Z" />
</g>
<g id="#000000ff">
<path fill="#000000" opacity="1.00" d=" M 6.00 14.00 C 23.33 14.00 40.67 14.00 58.00 14.00 C 58.00 26.00 58.00 38.00 58.00 50.00 C 40.67 50.00 23.33 50.00 6.00 50.00 C 6.00 38.00 6.00 26.00 6.00 14.00 M 10.00 18.00 C 10.00 27.33 10.00 36.67 10.00 46.00 C 24.67 46.00 39.33 46.00 54.00 46.00 C 54.00 36.67 54.00 27.33 54.00 18.00 C 39.33 18.00 24.67 18.00 10.00 18.00 Z" />
<path fill="#000000" opacity="1.00" d=" M 27.58 22.55 C 28.53 23.52 29.49 24.48 30.45 25.44 C 28.94 26.97 27.42 28.49 25.90 30.01 C 31.93 29.99 37.97 30.00 44.00 30.00 C 44.00 31.33 44.00 32.67 44.00 34.00 C 37.95 33.99 31.91 34.02 25.87 33.98 C 27.39 35.49 28.91 36.99 30.44 38.50 C 29.49 39.48 28.54 40.46 27.60 41.44 C 24.44 38.32 21.28 35.20 18.19 32.00 C 21.27 28.80 24.45 25.70 27.58 22.55 Z" />
</g>
</svg>
