<?xml version="1.0" encoding="UTF-8" ?>
<!DOCTYPE svg PUBLIC "-//W3C//DTD SVG 1.1//EN" "http://www.w3.org/Graphics/SVG/1.1/DTD/svg11.dtd">
<svg width="64pt" height="64pt" viewBox="0 0 64 64" version="1.1" xmlns="http://www.w3.org/2000/svg">
<g id="#ffffffff">
<path fill="#ffffff" opacity="1.00" d=" M 0.00 0.00 L 64.00 0.00 L 64.00 64.00 L 0.00 64.00 L 0.00 0.00 M 32.60 5.61 C 31.03 6.93 30.86 9.08 30.39 10.93 C 28.11 11.18 25.83 11.50 23.57 11.91 C 22.75 10.05 22.05 7.91 20.17 6.84 C 16.04 4.49 9.65 8.02 10.06 12.96 C 10.08 15.04 11.51 16.68 12.55 18.36 C 6.52 24.25 2.38 33.03 4.67 41.53 C 6.82 49.91 14.87 55.46 23.06 56.95 C 31.98 58.63 41.84 58.59 49.93 53.99 C 56.58 50.28 60.83 42.54 59.82 34.91 C 58.68 25.29 51.45 17.24 42.77 13.42 C 43.32 11.52 44.37 9.42 43.41 7.45 C 41.56 3.52 35.74 2.95 32.60 5.61 Z" />
<path fill="#ffffff" opacity="1.00" d=" M 35.35 8.47 C 36.69 7.90 39.23 7.50 39.85 9.20 C 39.56 11.55 35.36 14.44 38.65 16.14 C 46.05 18.66 52.57 24.25 55.09 31.78 C 56.98 36.96 55.87 43.06 52.11 47.12 C 47.38 52.43 39.86 53.94 33.05 53.95 C 26.28 53.83 18.96 52.87 13.61 48.34 C 9.65 45.13 7.46 39.89 8.15 34.82 C 8.78 28.79 12.43 23.64 16.78 19.64 C 19.22 17.48 15.24 15.82 14.39 13.87 C 12.95 11.59 15.90 9.95 17.84 10.03 C 20.17 11.47 19.25 15.34 21.86 16.36 C 25.74 15.23 29.73 14.84 33.75 14.69 C 35.78 13.30 33.80 10.15 35.35 8.47 M 13.44 30.45 C 9.57 35.20 13.81 43.90 20.32 41.78 C 24.07 50.12 37.92 50.10 41.67 41.78 C 43.49 41.83 45.54 42.25 47.09 41.01 C 51.62 37.90 50.69 29.45 45.11 28.12 C 42.58 27.43 40.51 29.22 38.91 30.90 C 34.44 27.11 27.55 27.11 23.09 30.90 C 20.89 27.65 15.71 26.87 13.44 30.45 Z" />
<path fill="#ffffff" opacity="1.00" d=" M 18.55 38.42 C 15.38 37.36 15.45 33.43 17.80 31.56 C 18.32 31.98 19.37 32.84 19.89 33.27 C 18.19 34.55 17.85 36.47 18.55 38.42 Z" />
<path fill="#ffffff" opacity="1.00" d=" M 29.18 32.18 C 34.13 30.63 39.38 35.50 37.73 40.53 C 35.68 44.56 29.80 44.80 26.23 42.77 C 21.84 40.14 24.50 32.73 29.18 32.18 M 27.22 36.09 C 24.85 37.14 26.37 40.87 28.81 39.89 C 31.12 38.82 29.63 35.19 27.22 36.09 M 33.12 36.09 C 30.87 37.22 32.47 40.93 34.76 39.82 C 37.25 38.88 35.52 35.08 33.12 36.09 Z" />
<path fill="#ffffff" opacity="1.00" d=" M 42.11 33.29 C 42.63 32.85 43.67 31.98 44.19 31.55 C 46.55 33.43 46.61 37.36 43.45 38.42 C 44.12 36.46 43.83 34.56 42.11 33.29 Z" />
</g>
<g id="#000000ff">
<path fill="#000000" opacity="1.00" d=" M 32.60 5.61 C 35.74 2.95 41.56 3.52 43.41 7.45 C 44.37 9.42 43.32 11.52 42.77 13.42 C 51.45 17.24 58.68 25.29 59.82 34.91 C 60.83 42.54 56.58 50.28 49.93 53.99 C 41.84 58.59 31.98 58.63 23.06 56.95 C 14.87 55.46 6.82 49.91 4.67 41.53 C 2.38 33.03 6.52 24.25 12.55 18.36 C 11.51 16.68 10.08 15.04 10.06 12.96 C 9.65 8.02 16.04 4.49 20.17 6.84 C 22.05 7.91 22.75 10.05 23.57 11.91 C 25.83 11.50 28.11 11.18 30.39 10.93 C 30.86 9.08 31.03 6.93 32.60 5.61 M 35.35 8.47 C 33.80 10.15 35.78 13.30 33.75 14.69 C 29.73 14.84 25.74 15.23 21.86 16.36 C 19.25 15.34 20.17 11.47 17.84 10.03 C 15.90 9.95 12.95 11.59 14.39 13.87 C 15.24 15.82 19.22 17.48 16.78 19.64 C 12.43 23.64 8.78 28.79 8.15 34.82 C 7.46 39.89 9.65 45.13 13.61 48.34 C 18.96 52.87 26.28 53.83 33.05 53.95 C 39.86 53.94 47.38 52.43 52.11 47.12 C 55.87 43.06 56.98 36.96 55.09 31.78 C 52.57 24.25 46.05 18.66 38.65 16.14 C 35.36 14.44 39.56 11.55 39.85 9.20 C 39.23 7.50 36.69 7.90 35.35 8.47 Z" />
<path fill="#000000" opacity="1.00" d=" M 13.44 30.45 C 15.71 26.87 20.89 27.65 23.09 30.90 C 27.55 27.11 34.44 27.11 38.91 30.90 C 40.51 29.22 42.58 27.43 45.11 28.12 C 50.69 29.45 51.62 37.90 47.09 41.01 C 45.54 42.25 43.49 41.83 41.67 41.78 C 37.92 50.10 24.07 50.12 20.32 41.78 C 13.81 43.90 9.57 35.20 13.44 30.45 M 18.55 38.42 C 17.85 36.47 18.19 34.55 19.89 33.27 C 19.37 32.84 18.32 31.98 17.80 31.56 C 15.45 33.43 15.38 37.36 18.55 38.42 M 29.18 32.18 C 24.50 32.73 21.84 40.14 26.23 42.77 C 29.80 44.80 35.68 44.56 37.73 40.53 C 39.38 35.50 34.13 30.63 29.18 32.18 M 42.11 33.29 C 43.83 34.56 44.12 36.46 43.45 38.42 C 46.61 37.36 46.55 33.43 44.19 31.55 C 43.67 31.98 42.63 32.85 42.11 33.29 Z" />
<path fill="#000000" opacity="1.00" d=" M 27.22 36.09 C 29.63 35.19 31.12 38.82 28.81 39.89 C 26.37 40.87 24.85 37.14 27.22 36.09 Z" />
<path fill="#000000" opacity="1.00" d=" M 33.12 36.09 C 35.52 35.08 37.25 38.88 34.76 39.82 C 32.47 40.93 30.87 37.22 33.12 36.09 Z" />
</g>
</svg>
