<?xml version="1.0" encoding="UTF-8" ?>
<!DOCTYPE svg PUBLIC "-//W3C//DTD SVG 1.1//EN" "http://www.w3.org/Graphics/SVG/1.1/DTD/svg11.dtd">
<svg width="60pt" height="60pt" viewBox="0 0 60 60" version="1.1" xmlns="http://www.w3.org/2000/svg">
<g id="#ffffffff">
<path fill="#ffffff" opacity="1.00" d=" M 0.00 0.00 L 27.68 0.00 C 21.88 0.34 17.18 6.37 18.26 12.06 C 19.96 14.17 22.12 12.02 22.15 9.95 C 22.62 6.68 25.40 3.41 29.00 4.06 C 32.12 4.09 33.44 7.17 35.19 9.19 C 36.64 9.73 38.18 8.63 37.98 7.06 C 36.93 3.16 33.23 0.66 29.40 0.00 L 60.00 0.00 L 60.00 60.00 L 0.00 60.00 L 0.00 0.00 M 19.12 17.41 C 23.41 22.42 21.61 29.56 23.75 35.35 C 25.07 36.02 26.52 34.97 27.82 34.68 C 35.33 31.82 43.08 29.60 50.47 26.48 C 50.67 26.11 51.07 25.39 51.28 25.02 C 50.65 22.08 49.69 19.20 48.55 16.41 C 47.12 12.82 42.58 11.48 39.09 12.54 C 32.44 14.17 25.82 15.95 19.12 17.41 M 10.47 24.94 C 9.73 31.45 9.00 37.96 8.20 44.47 C 8.20 45.67 7.51 47.47 8.96 48.13 C 13.20 50.32 17.64 52.12 21.97 54.13 C 30.97 51.02 39.88 47.67 48.89 44.57 C 50.05 44.01 52.20 43.71 51.91 41.95 C 51.48 38.31 52.02 34.30 50.20 31.00 C 47.17 32.32 43.85 32.92 40.95 34.50 C 39.64 36.19 37.43 37.82 35.35 36.29 C 32.12 37.24 29.06 38.66 25.80 39.49 C 23.15 40.20 20.08 38.36 19.55 35.65 C 18.53 31.26 18.54 26.69 17.47 22.31 C 16.96 20.46 14.87 19.22 13.02 19.93 C 10.99 20.67 10.77 23.12 10.47 24.94 Z" />
</g>
<g id="#000000ff">
<path fill="#000000" opacity="1.00" d=" M 27.68 0.00 L 29.40 0.00 C 33.23 0.66 36.93 3.16 37.98 7.06 C 38.18 8.63 36.64 9.73 35.19 9.19 C 33.44 7.17 32.12 4.09 29.00 4.06 C 25.40 3.41 22.62 6.68 22.15 9.95 C 22.12 12.02 19.96 14.17 18.26 12.06 C 17.18 6.37 21.88 0.34 27.68 0.00 Z" />
<path fill="#000000" opacity="1.00" d=" M 19.12 17.41 C 25.82 15.95 32.44 14.17 39.09 12.54 C 42.58 11.48 47.12 12.82 48.55 16.41 C 49.69 19.20 50.65 22.08 51.28 25.02 C 51.07 25.39 50.67 26.11 50.47 26.48 C 43.08 29.60 35.33 31.82 27.82 34.68 C 26.52 34.97 25.07 36.02 23.75 35.35 C 21.61 29.56 23.41 22.42 19.12 17.41 Z" />
<path fill="#000000" opacity="1.00" d=" M 10.47 24.94 C 10.77 23.12 10.99 20.67 13.02 19.93 C 14.87 19.22 16.96 20.46 17.47 22.31 C 18.54 26.69 18.53 31.26 19.55 35.65 C 20.08 38.36 23.15 40.20 25.80 39.49 C 29.06 38.66 32.12 37.24 35.35 36.29 C 37.43 37.82 39.64 36.19 40.95 34.50 C 43.85 32.92 47.17 32.32 50.20 31.00 C 52.02 34.30 51.48 38.31 51.91 41.95 C 52.20 43.71 50.05 44.01 48.89 44.57 C 39.88 47.67 30.97 51.02 21.97 54.13 C 17.64 52.12 13.20 50.32 8.96 48.13 C 7.51 47.47 8.20 45.67 8.20 44.47 C 9.00 37.96 9.73 31.45 10.47 24.94 Z" />
</g>
</svg>
