<?xml version="1.0" encoding="UTF-8" ?>
<!DOCTYPE svg PUBLIC "-//W3C//DTD SVG 1.1//EN" "http://www.w3.org/Graphics/SVG/1.1/DTD/svg11.dtd">
<svg width="60pt" height="60pt" viewBox="0 0 60 60" version="1.1" xmlns="http://www.w3.org/2000/svg">
<g id="#ffffffff">
<path fill="#ffffff" opacity="1.00" d=" M 0.00 0.00 L 60.00 0.00 L 60.00 60.00 L 0.00 60.00 L 0.00 0.00 M 8.87 23.99 C 7.25 23.99 5.62 24.01 4.00 24.00 C 4.00 28.00 4.00 32.00 4.00 36.00 C 5.62 35.99 7.25 36.01 8.87 36.01 C 11.34 43.35 18.08 49.15 25.88 49.84 C 31.19 50.60 36.46 48.63 40.69 45.51 C 43.56 48.23 46.13 51.27 49.18 53.79 C 50.72 54.66 52.65 52.81 51.83 51.23 C 49.31 48.13 46.18 45.58 43.51 42.61 C 48.35 36.63 49.44 27.92 45.87 21.06 C 42.16 13.44 33.27 8.76 24.88 10.28 C 17.47 11.33 11.24 16.98 8.87 23.99 M 51.27 23.99 C 52.14 27.96 52.14 32.04 51.27 36.01 C 52.85 36.00 54.42 36.00 56.00 36.00 C 56.00 32.00 56.00 28.00 56.00 24.00 C 54.42 24.00 52.85 24.00 51.27 23.99 Z" />
<path fill="#ffffff" opacity="1.00" d=" M 12.14 32.07 C 10.78 23.63 17.45 15.04 25.91 14.14 C 31.44 13.30 36.97 15.83 40.60 19.95 C 34.12 20.05 27.64 19.99 21.17 19.99 C 17.84 22.64 15.52 26.75 16.06 31.10 C 16.27 34.71 18.49 37.77 21.18 40.02 C 27.65 40.00 34.13 39.95 40.60 40.05 C 37.61 43.32 33.56 45.76 29.04 45.95 C 20.92 46.68 13.00 40.18 12.14 32.07 Z" />
<path fill="#ffffff" opacity="1.00" d=" M 23.09 24.17 C 27.37 23.83 31.68 23.98 35.97 24.06 C 38.07 23.81 38.74 27.00 36.89 27.82 C 32.59 28.18 28.25 28.02 23.94 27.93 C 21.90 28.10 21.30 25.01 23.09 24.17 Z" />
<path fill="#ffffff" opacity="1.00" d=" M 25.04 32.19 C 28.31 31.85 31.62 31.86 34.89 32.17 C 36.34 32.91 36.34 35.11 34.88 35.82 C 31.65 36.14 28.39 36.13 25.17 35.84 C 23.68 35.14 23.65 33.01 25.04 32.19 Z" />
</g>
<g id="#000000ff">
<path fill="#000000" opacity="1.00" d=" M 8.87 23.99 C 11.24 16.98 17.47 11.33 24.88 10.28 C 33.27 8.76 42.16 13.44 45.87 21.06 C 49.44 27.92 48.35 36.63 43.51 42.61 C 46.18 45.58 49.31 48.13 51.83 51.23 C 52.65 52.81 50.72 54.66 49.18 53.79 C 46.13 51.27 43.56 48.23 40.69 45.51 C 36.46 48.63 31.19 50.60 25.88 49.84 C 18.08 49.15 11.34 43.35 8.87 36.01 C 7.25 36.01 5.62 35.99 4.00 36.00 C 4.00 32.00 4.00 28.00 4.00 24.00 C 5.62 24.01 7.25 23.99 8.87 23.99 M 12.14 32.07 C 13.00 40.18 20.92 46.68 29.04 45.95 C 33.56 45.76 37.61 43.32 40.60 40.05 C 34.13 39.95 27.65 40.00 21.18 40.02 C 18.49 37.77 16.27 34.71 16.06 31.10 C 15.52 26.75 17.84 22.64 21.17 19.99 C 27.64 19.99 34.12 20.05 40.60 19.95 C 36.97 15.83 31.44 13.30 25.91 14.14 C 17.45 15.04 10.78 23.63 12.14 32.07 M 23.09 24.17 C 21.30 25.01 21.90 28.10 23.94 27.93 C 28.25 28.02 32.59 28.18 36.89 27.82 C 38.74 27.00 38.07 23.81 35.97 24.06 C 31.68 23.98 27.37 23.83 23.09 24.17 M 25.04 32.19 C 23.65 33.01 23.68 35.14 25.17 35.84 C 28.39 36.13 31.65 36.14 34.88 35.82 C 36.34 35.11 36.34 32.91 34.89 32.17 C 31.62 31.86 28.31 31.85 25.04 32.19 Z" />
<path fill="#000000" opacity="1.00" d=" M 51.27 23.99 C 52.85 24.00 54.42 24.00 56.00 24.00 C 56.00 28.00 56.00 32.00 56.00 36.00 C 54.42 36.00 52.85 36.00 51.27 36.01 C 52.14 32.04 52.14 27.96 51.27 23.99 Z" />
</g>
</svg>
