<?xml version="1.0" encoding="UTF-8" ?>
<!DOCTYPE svg PUBLIC "-//W3C//DTD SVG 1.1//EN" "http://www.w3.org/Graphics/SVG/1.1/DTD/svg11.dtd">
<svg width="60pt" height="60pt" viewBox="0 0 60 60" version="1.1" xmlns="http://www.w3.org/2000/svg">
<g id="#ffffffff">
<path fill="#ffffff" opacity="1.00" d=" M 0.00 0.00 L 60.00 0.00 L 60.00 60.00 L 0.00 60.00 L 0.00 0.00 M 19.60 6.82 C 15.30 7.56 10.92 8.27 6.82 9.82 C 5.20 11.45 6.69 13.94 6.62 15.91 C 7.94 22.31 5.32 28.66 6.43 35.06 C 7.00 40.10 7.24 45.17 7.88 50.20 C 7.96 52.32 9.86 54.07 11.98 53.95 C 24.00 54.03 36.02 54.04 48.04 53.95 C 50.85 54.13 52.38 51.31 52.31 48.83 C 52.77 40.24 54.81 31.60 53.08 23.03 C 52.31 18.90 54.56 14.51 53.45 10.61 C 42.84 6.28 30.93 5.08 19.60 6.82 Z" />
<path fill="#ffffff" opacity="1.00" d=" M 10.20 12.90 C 23.08 9.15 37.04 8.95 49.78 13.39 C 48.63 18.99 48.90 24.74 50.02 30.32 C 36.77 32.47 23.23 32.47 9.98 30.32 C 11.14 24.58 11.32 18.66 10.20 12.90 M 21.16 14.19 C 19.22 14.93 19.90 18.15 22.02 17.92 C 27.35 18.06 32.69 18.08 38.02 17.91 C 40.55 18.19 40.62 13.88 38.08 14.09 C 32.45 13.97 26.78 13.81 21.16 14.19 M 15.91 27.10 C 25.27 28.22 34.73 28.20 44.09 27.10 C 43.80 25.37 44.66 22.06 41.98 22.06 C 33.99 21.95 25.99 21.95 18.00 22.06 C 15.33 22.06 16.20 25.38 15.91 27.10 Z" />
<path fill="#ffffff" opacity="1.00" d=" M 28.23 40.21 C 30.15 39.84 33.21 39.80 34.01 41.98 C 32.76 44.73 28.35 44.42 26.19 42.77 C 25.49 41.25 27.02 40.50 28.23 40.21 Z" />
</g>
<g id="#000000ff">
<path fill="#000000" opacity="1.00" d=" M 19.60 6.82 C 30.93 5.08 42.84 6.28 53.45 10.61 C 54.56 14.51 52.31 18.90 53.08 23.03 C 54.81 31.60 52.77 40.24 52.31 48.83 C 52.38 51.31 50.85 54.13 48.04 53.95 C 36.02 54.04 24.00 54.03 11.98 53.95 C 9.86 54.07 7.96 52.32 7.88 50.20 C 7.24 45.17 7.00 40.10 6.43 35.06 C 5.32 28.66 7.94 22.31 6.62 15.91 C 6.69 13.94 5.20 11.45 6.82 9.82 C 10.92 8.27 15.30 7.56 19.60 6.82 M 10.20 12.90 C 11.32 18.66 11.14 24.58 9.98 30.32 C 23.23 32.47 36.77 32.47 50.02 30.32 C 48.90 24.74 48.63 18.99 49.78 13.39 C 37.04 8.95 23.08 9.15 10.20 12.90 M 28.23 40.21 C 27.02 40.50 25.49 41.25 26.19 42.77 C 28.35 44.42 32.76 44.73 34.01 41.98 C 33.21 39.80 30.15 39.84 28.23 40.21 Z" />
<path fill="#000000" opacity="1.00" d=" M 21.16 14.19 C 26.78 13.81 32.45 13.97 38.08 14.09 C 40.62 13.88 40.55 18.19 38.02 17.91 C 32.69 18.08 27.35 18.06 22.02 17.92 C 19.90 18.15 19.22 14.93 21.16 14.19 Z" />
<path fill="#000000" opacity="1.00" d=" M 15.91 27.10 C 16.20 25.38 15.33 22.06 18.00 22.06 C 25.99 21.95 33.99 21.95 41.98 22.06 C 44.66 22.06 43.80 25.37 44.09 27.10 C 34.73 28.20 25.27 28.22 15.91 27.10 Z" />
</g>
</svg>
