<?xml version="1.0" encoding="UTF-8" ?>
<!DOCTYPE svg PUBLIC "-//W3C//DTD SVG 1.1//EN" "http://www.w3.org/Graphics/SVG/1.1/DTD/svg11.dtd">
<svg width="64pt" height="64pt" viewBox="0 0 64 64" version="1.1" xmlns="http://www.w3.org/2000/svg">
<g id="#ffffffff">
<path fill="#ffffff" opacity="1.00" d=" M 0.00 0.00 L 64.00 0.00 L 64.00 64.00 L 0.00 64.00 L 0.00 0.00 M 23.55 7.53 C 20.09 10.70 19.82 15.62 19.95 20.00 C 21.28 20.00 22.62 20.00 23.95 20.00 C 24.05 16.89 23.61 13.32 25.90 10.82 C 28.87 7.10 35.18 7.11 38.13 10.86 C 40.37 13.36 39.95 16.91 40.05 20.00 C 41.38 20.00 42.72 20.00 44.05 20.00 C 44.11 15.86 44.02 11.24 40.93 8.06 C 36.67 2.93 28.14 2.74 23.55 7.53 M 19.53 23.95 C 17.21 24.01 14.89 24.02 12.57 24.00 C 11.00 28.82 9.34 33.61 7.79 38.44 C 8.74 39.39 9.08 40.49 8.82 41.75 C 7.76 47.17 6.65 52.59 5.57 58.00 C 7.71 58.00 9.85 58.00 11.99 58.00 C 12.00 58.50 12.00 59.50 12.01 60.00 C 13.34 60.00 14.66 60.00 15.99 60.00 C 16.00 59.50 16.00 58.50 16.01 58.00 C 26.67 58.00 37.33 58.00 47.99 58.00 C 48.00 58.50 48.00 59.50 48.01 60.00 C 49.34 60.00 50.66 60.00 51.99 60.00 C 52.00 59.50 52.00 58.50 52.01 58.00 C 54.15 58.00 56.29 58.00 58.43 58.00 C 57.20 52.01 56.04 46.00 54.85 40.00 C 55.22 39.66 55.97 38.99 56.34 38.65 C 54.65 33.79 53.05 28.89 51.43 24.00 C 49.10 24.01 46.76 24.01 44.43 23.97 C 43.38 21.59 40.59 21.57 39.58 23.98 C 34.45 24.04 29.32 23.97 24.18 24.02 C 23.88 23.47 23.28 22.37 22.98 21.83 C 21.54 22.00 20.43 22.85 19.53 23.95 Z" />
<path fill="#ffffff" opacity="1.00" d=" M 15.43 28.00 C 26.48 28.00 37.53 28.00 48.58 28.00 C 49.58 31.01 50.59 34.01 51.61 37.01 C 39.02 41.08 24.98 41.08 12.40 37.01 C 13.41 34.01 14.41 31.01 15.43 28.00 Z" />
<path fill="#ffffff" opacity="1.00" d=" M 12.91 41.48 C 17.70 42.90 22.66 43.55 27.63 43.90 C 28.35 45.81 29.59 48.12 31.99 48.00 C 34.40 48.14 35.58 45.77 36.37 43.90 C 41.34 43.55 46.30 42.89 51.09 41.48 C 51.90 45.66 52.74 49.83 53.57 54.00 C 39.19 54.00 24.81 54.00 10.43 54.00 C 11.26 49.83 12.10 45.66 12.91 41.48 Z" />
</g>
<g id="#000000ff">
<path fill="#000000" opacity="1.00" d=" M 23.55 7.53 C 28.14 2.74 36.67 2.93 40.93 8.06 C 44.02 11.24 44.11 15.86 44.05 20.00 C 42.72 20.00 41.38 20.00 40.05 20.00 C 39.95 16.91 40.37 13.36 38.13 10.86 C 35.18 7.11 28.87 7.10 25.90 10.82 C 23.61 13.32 24.05 16.89 23.95 20.00 C 22.62 20.00 21.28 20.00 19.95 20.00 C 19.82 15.62 20.09 10.70 23.55 7.53 Z" />
<path fill="#000000" opacity="1.00" d=" M 19.53 23.95 C 20.43 22.85 21.54 22.00 22.98 21.83 C 23.28 22.37 23.88 23.47 24.18 24.02 C 29.32 23.97 34.45 24.04 39.58 23.98 C 40.59 21.57 43.38 21.59 44.43 23.97 C 46.76 24.01 49.10 24.01 51.43 24.00 C 53.05 28.89 54.65 33.79 56.34 38.65 C 55.97 38.99 55.22 39.66 54.85 40.00 C 56.04 46.00 57.20 52.01 58.43 58.00 C 56.29 58.00 54.15 58.00 52.01 58.00 C 52.00 58.50 52.00 59.50 51.99 60.00 C 50.66 60.00 49.34 60.00 48.01 60.00 C 48.00 59.50 48.00 58.50 47.99 58.00 C 37.33 58.00 26.67 58.00 16.01 58.00 C 16.00 58.50 16.00 59.50 15.99 60.00 C 14.66 60.00 13.34 60.00 12.01 60.00 C 12.00 59.50 12.00 58.50 11.99 58.00 C 9.85 58.00 7.71 58.00 5.57 58.00 C 6.65 52.59 7.76 47.17 8.82 41.75 C 9.08 40.49 8.74 39.39 7.79 38.44 C 9.34 33.61 11.00 28.82 12.57 24.00 C 14.89 24.02 17.21 24.01 19.53 23.95 M 15.43 28.00 C 14.41 31.01 13.41 34.01 12.40 37.01 C 24.98 41.08 39.02 41.08 51.61 37.01 C 50.59 34.01 49.58 31.01 48.58 28.00 C 37.53 28.00 26.48 28.00 15.43 28.00 M 12.91 41.48 C 12.10 45.66 11.26 49.83 10.43 54.00 C 24.81 54.00 39.19 54.00 53.57 54.00 C 52.74 49.83 51.90 45.66 51.09 41.48 C 46.30 42.89 41.34 43.55 36.37 43.90 C 35.58 45.77 34.40 48.14 31.99 48.00 C 29.59 48.12 28.35 45.81 27.63 43.90 C 22.66 43.55 17.70 42.90 12.91 41.48 Z" />
</g>
</svg>
