<?xml version="1.0" encoding="UTF-8" ?>
<!DOCTYPE svg PUBLIC "-//W3C//DTD SVG 1.1//EN" "http://www.w3.org/Graphics/SVG/1.1/DTD/svg11.dtd">
<svg width="64pt" height="64pt" viewBox="0 0 64 64" version="1.1" xmlns="http://www.w3.org/2000/svg">
<g id="#ffffffff">
<path fill="#ffffff" opacity="1.00" d=" M 0.00 0.00 L 64.00 0.00 L 64.00 64.00 L 0.00 64.00 L 0.00 0.00 M 8.00 4.00 C 8.00 22.67 8.00 41.33 8.00 60.00 C 24.00 60.00 40.00 60.00 56.00 60.00 C 56.00 41.33 56.00 22.67 56.00 4.00 C 40.00 4.00 24.00 4.00 8.00 4.00 Z" />
<path fill="#ffffff" opacity="1.00" d=" M 12.00 8.00 C 25.33 8.00 38.67 8.00 52.00 8.00 C 52.00 12.00 52.00 16.00 52.00 20.00 C 38.67 20.00 25.33 20.00 12.00 20.00 C 12.00 16.00 12.00 12.00 12.00 8.00 M 17.19 12.10 C 14.81 13.08 16.44 16.99 18.80 15.81 C 21.21 14.87 19.53 11.10 17.19 12.10 M 25.17 12.09 C 22.83 13.13 24.47 16.99 26.77 15.81 C 29.23 14.89 27.53 11.09 25.17 12.09 M 33.22 12.10 C 30.77 13.06 32.46 17.02 34.81 15.79 C 37.19 14.89 35.55 11.11 33.22 12.10 Z" />
<path fill="#ffffff" opacity="1.00" d=" M 12.00 24.00 C 25.33 24.00 38.67 24.00 52.00 24.00 C 52.00 31.33 52.00 38.66 52.00 46.00 C 50.47 45.99 48.93 46.00 47.40 46.04 C 48.99 41.07 46.20 35.65 42.19 32.69 C 38.10 29.63 32.66 29.68 27.81 30.25 C 20.65 31.12 14.45 38.85 16.60 46.04 C 15.07 46.00 13.53 45.99 12.00 46.00 C 12.00 38.66 12.00 31.33 12.00 24.00 Z" />
<path fill="#ffffff" opacity="1.00" d=" M 30.00 34.00 C 31.33 34.00 32.67 34.00 34.00 34.00 C 34.00 35.33 34.00 36.67 34.00 38.00 C 35.32 38.00 36.65 38.00 37.97 38.00 C 38.00 37.17 38.06 35.49 38.09 34.66 C 41.61 36.74 44.63 40.56 43.84 44.88 C 42.82 46.55 40.60 45.78 38.99 46.04 C 33.01 45.82 27.02 46.29 21.07 45.81 C 19.25 44.61 20.16 42.11 20.65 40.42 C 21.51 37.80 23.77 36.17 25.91 34.65 C 25.94 35.49 26.00 37.17 26.03 38.00 C 27.35 38.00 28.68 38.00 30.00 38.00 C 30.00 36.67 30.00 35.33 30.00 34.00 Z" />
<path fill="#ffffff" opacity="1.00" d=" M 11.99 50.00 C 25.33 50.00 38.67 50.00 52.01 50.00 C 51.99 52.00 51.99 54.00 52.01 56.00 C 38.67 56.00 25.33 56.00 11.99 56.00 C 12.01 54.00 12.01 52.00 11.99 50.00 Z" />
</g>
<g id="#000000ff">
<path fill="#000000" opacity="1.00" d=" M 8.00 4.00 C 24.00 4.00 40.00 4.00 56.00 4.00 C 56.00 22.67 56.00 41.33 56.00 60.00 C 40.00 60.00 24.00 60.00 8.00 60.00 C 8.00 41.33 8.00 22.67 8.00 4.00 M 12.00 8.00 C 12.00 12.00 12.00 16.00 12.00 20.00 C 25.33 20.00 38.67 20.00 52.00 20.00 C 52.00 16.00 52.00 12.00 52.00 8.00 C 38.67 8.00 25.33 8.00 12.00 8.00 M 12.00 24.00 C 12.00 31.33 12.00 38.66 12.00 46.00 C 13.53 45.99 15.07 46.00 16.60 46.04 C 14.45 38.85 20.65 31.12 27.81 30.25 C 32.66 29.68 38.10 29.63 42.19 32.69 C 46.20 35.65 48.99 41.07 47.40 46.04 C 48.93 46.00 50.47 45.99 52.00 46.00 C 52.00 38.66 52.00 31.33 52.00 24.00 C 38.67 24.00 25.33 24.00 12.00 24.00 M 30.00 34.00 C 30.00 35.33 30.00 36.67 30.00 38.00 C 28.68 38.00 27.35 38.00 26.03 38.00 C 26.00 37.17 25.94 35.49 25.91 34.65 C 23.77 36.17 21.51 37.80 20.65 40.42 C 20.16 42.11 19.25 44.61 21.07 45.81 C 27.02 46.29 33.01 45.82 38.99 46.04 C 40.60 45.78 42.82 46.55 43.84 44.88 C 44.63 40.56 41.61 36.74 38.09 34.66 C 38.06 35.49 38.00 37.17 37.97 38.00 C 36.65 38.00 35.32 38.00 34.00 38.00 C 34.00 36.67 34.00 35.33 34.00 34.00 C 32.67 34.00 31.33 34.00 30.00 34.00 M 11.99 50.00 C 12.01 52.00 12.01 54.00 11.99 56.00 C 25.33 56.00 38.67 56.00 52.01 56.00 C 51.99 54.00 51.99 52.00 52.01 50.00 C 38.67 50.00 25.33 50.00 11.99 50.00 Z" />
<path fill="#000000" opacity="1.00" d=" M 17.19 12.10 C 19.53 11.10 21.21 14.87 18.80 15.81 C 16.44 16.99 14.81 13.08 17.19 12.10 Z" />
<path fill="#000000" opacity="1.00" d=" M 25.17 12.09 C 27.53 11.09 29.23 14.89 26.77 15.81 C 24.47 16.99 22.83 13.13 25.17 12.09 Z" />
<path fill="#000000" opacity="1.00" d=" M 33.22 12.10 C 35.55 11.11 37.19 14.89 34.81 15.79 C 32.46 17.02 30.77 13.06 33.22 12.10 Z" />
</g>
</svg>
