<?xml version="1.0" encoding="UTF-8" ?>
<!DOCTYPE svg PUBLIC "-//W3C//DTD SVG 1.1//EN" "http://www.w3.org/Graphics/SVG/1.1/DTD/svg11.dtd">
<svg width="60pt" height="60pt" viewBox="0 0 60 60" version="1.1" xmlns="http://www.w3.org/2000/svg">
<g id="#ffffffff">
<path fill="#ffffff" opacity="1.00" d=" M 0.00 0.00 L 60.00 0.00 L 60.00 60.00 L 0.00 60.00 L 0.00 0.00 M 27.41 4.59 C 23.50 6.26 22.83 12.20 26.28 14.70 C 29.58 17.56 35.36 15.35 35.90 11.02 C 36.93 6.45 31.53 2.36 27.41 4.59 M 11.18 20.18 C 9.62 20.79 9.62 23.21 11.19 23.81 C 15.06 24.34 19.00 23.66 22.87 24.17 C 24.30 24.91 23.89 26.62 24.01 27.92 C 23.90 35.99 24.87 44.04 26.05 52.01 C 25.96 54.13 29.06 54.74 29.83 52.80 C 30.37 47.61 29.63 42.37 30.17 37.18 C 30.41 36.92 30.91 36.42 31.16 36.16 C 37.05 35.62 43.00 36.40 48.88 35.80 C 50.29 35.06 50.40 32.82 48.81 32.23 C 44.88 31.08 40.59 31.61 36.73 30.26 C 35.61 28.68 35.37 25.42 37.15 24.17 C 41.02 23.66 44.95 24.35 48.82 23.81 C 50.75 23.13 50.12 19.84 48.03 20.08 C 35.75 20.01 23.44 19.81 11.18 20.18 Z" />
</g>
<g id="#000000ff">
<path fill="#000000" opacity="1.00" d=" M 27.41 4.59 C 31.53 2.36 36.93 6.45 35.90 11.02 C 35.36 15.35 29.58 17.56 26.28 14.70 C 22.83 12.20 23.50 6.26 27.41 4.59 Z" />
<path fill="#000000" opacity="1.00" d=" M 11.18 20.18 C 23.44 19.81 35.75 20.01 48.03 20.08 C 50.12 19.84 50.75 23.13 48.82 23.81 C 44.95 24.35 41.02 23.66 37.15 24.17 C 35.37 25.42 35.61 28.68 36.73 30.26 C 40.59 31.61 44.88 31.08 48.81 32.23 C 50.40 32.82 50.29 35.06 48.88 35.80 C 43.00 36.40 37.05 35.62 31.16 36.16 C 30.91 36.42 30.41 36.92 30.17 37.18 C 29.63 42.37 30.37 47.61 29.83 52.80 C 29.06 54.74 25.96 54.13 26.05 52.01 C 24.87 44.04 23.90 35.99 24.01 27.92 C 23.89 26.62 24.30 24.91 22.87 24.17 C 19.00 23.66 15.06 24.34 11.19 23.81 C 9.62 23.21 9.62 20.79 11.18 20.18 Z" />
</g>
</svg>
