<?xml version="1.0" encoding="UTF-8" ?>
<!DOCTYPE svg PUBLIC "-//W3C//DTD SVG 1.1//EN" "http://www.w3.org/Graphics/SVG/1.1/DTD/svg11.dtd">
<svg width="60pt" height="60pt" viewBox="0 0 60 60" version="1.1" xmlns="http://www.w3.org/2000/svg">
<g id="#ffffffff">
<path fill="#ffffff" opacity="1.00" d=" M 0.00 0.00 L 60.00 0.00 L 60.00 60.00 L 0.00 60.00 L 0.00 0.00 M 33.66 5.60 C 30.20 8.86 27.80 13.06 24.65 16.61 C 23.01 18.04 24.78 20.73 26.75 19.87 C 30.67 16.66 32.72 11.73 36.55 8.44 C 37.93 7.39 39.46 8.59 40.74 9.16 C 36.58 13.52 32.25 17.70 28.02 21.98 C 31.34 25.32 34.70 28.63 38.00 32.00 C 42.84 27.12 47.75 22.32 52.56 17.41 C 54.79 15.27 53.48 11.86 53.79 9.14 C 52.49 4.60 46.88 6.47 43.41 6.36 C 40.82 3.90 36.50 3.07 33.66 5.60 M 12.03 37.98 C 9.07 40.86 8.55 45.19 7.90 49.06 C 6.97 50.20 5.02 52.05 6.62 53.42 C 8.03 54.91 9.70 52.86 10.99 52.23 C 14.56 51.23 18.66 51.12 21.50 48.44 C 25.74 44.36 29.83 40.12 34.01 35.98 C 30.67 32.66 27.35 29.32 24.02 25.98 C 20.03 29.99 16.00 33.96 12.03 37.98 Z" />
</g>
<g id="#000000ff">
<path fill="#000000" opacity="1.00" d=" M 33.66 5.60 C 36.50 3.07 40.82 3.90 43.41 6.36 C 46.88 6.47 52.49 4.60 53.79 9.14 C 53.48 11.86 54.79 15.27 52.56 17.41 C 47.75 22.32 42.84 27.12 38.00 32.00 C 34.70 28.63 31.34 25.32 28.02 21.98 C 32.25 17.70 36.58 13.52 40.74 9.16 C 39.46 8.59 37.93 7.39 36.55 8.44 C 32.72 11.73 30.67 16.66 26.75 19.87 C 24.78 20.73 23.01 18.04 24.65 16.61 C 27.80 13.06 30.20 8.86 33.66 5.60 Z" />
<path fill="#000000" opacity="1.00" d=" M 12.03 37.98 C 16.00 33.96 20.03 29.99 24.02 25.98 C 27.35 29.32 30.67 32.66 34.01 35.98 C 29.83 40.12 25.74 44.36 21.50 48.44 C 18.66 51.12 14.56 51.23 10.99 52.23 C 9.70 52.86 8.03 54.91 6.62 53.42 C 5.02 52.05 6.97 50.20 7.90 49.06 C 8.55 45.19 9.07 40.86 12.03 37.98 Z" />
</g>
</svg>
