<?xml version="1.0" encoding="UTF-8" ?>
<!DOCTYPE svg PUBLIC "-//W3C//DTD SVG 1.1//EN" "http://www.w3.org/Graphics/SVG/1.1/DTD/svg11.dtd">
<svg width="64pt" height="64pt" viewBox="0 0 64 64" version="1.1" xmlns="http://www.w3.org/2000/svg">
<g id="#ffffffff">
<path fill="#ffffff" opacity="1.00" d=" M 0.00 0.00 L 64.00 0.00 L 64.00 64.00 L 0.00 64.00 L 0.00 0.00 M 35.69 6.65 C 31.98 9.15 30.46 13.60 28.87 17.57 C 27.06 16.27 24.56 15.32 22.50 16.68 C 19.48 18.28 19.16 22.98 21.96 24.95 C 23.79 26.56 26.28 25.90 28.30 25.09 C 22.02 30.92 16.12 37.15 10.00 43.14 C 10.00 45.80 10.00 48.45 10.00 51.11 C 9.50 51.64 8.51 52.68 8.02 53.21 C 8.95 54.13 9.88 55.06 10.81 55.99 C 11.33 55.49 12.37 54.50 12.89 54.00 C 15.54 54.00 18.19 54.00 20.84 54.01 C 31.90 42.99 42.91 31.93 53.94 20.88 C 55.27 19.59 56.43 17.93 56.35 15.99 C 56.33 12.78 53.58 10.61 51.35 8.72 C 49.16 6.93 46.21 7.68 43.99 8.96 C 41.88 6.83 38.66 4.94 35.69 6.65 Z" />
<path fill="#ffffff" opacity="1.00" d=" M 37.45 10.21 C 39.08 9.42 40.10 11.10 41.25 11.92 C 37.25 15.98 33.12 19.90 29.20 24.04 C 33.16 20.14 33.49 14.02 37.45 10.21 Z" />
<path fill="#ffffff" opacity="1.00" d=" M 44.82 13.94 C 45.88 13.05 46.93 12.13 47.96 11.20 C 49.85 12.52 51.47 14.16 52.83 16.03 C 51.90 17.07 50.97 18.12 50.07 19.19 C 48.32 17.44 46.57 15.69 44.82 13.94 Z" />
<path fill="#ffffff" opacity="1.00" d=" M 26.91 32.00 C 31.94 26.96 36.95 21.90 42.00 16.88 C 43.71 18.58 45.42 20.29 47.12 22.00 C 42.09 27.04 37.05 32.08 32.02 37.11 C 30.30 35.41 28.60 33.71 26.91 32.00 Z" />
<path fill="#ffffff" opacity="1.00" d=" M 24.17 20.17 C 25.79 19.65 26.34 20.20 25.82 21.82 C 24.20 22.34 23.65 21.79 24.17 20.17 Z" />
<path fill="#ffffff" opacity="1.00" d=" M 14.00 44.88 C 17.35 41.56 20.67 38.22 24.02 34.89 C 25.72 36.59 27.42 38.30 29.12 40.00 C 25.79 43.33 22.46 46.67 19.12 50.00 C 17.41 50.00 15.71 50.00 14.00 50.00 C 14.00 48.29 14.00 46.59 14.00 44.88 Z" />
</g>
<g id="#000000ff">
<path fill="#000000" opacity="1.00" d=" M 35.69 6.65 C 38.66 4.94 41.88 6.83 43.99 8.96 C 46.21 7.68 49.16 6.93 51.35 8.72 C 53.58 10.61 56.33 12.78 56.35 15.99 C 56.43 17.93 55.27 19.59 53.94 20.88 C 42.91 31.93 31.90 42.99 20.84 54.01 C 18.19 54.00 15.54 54.00 12.89 54.00 C 12.37 54.50 11.33 55.49 10.81 55.99 C 9.88 55.06 8.95 54.13 8.02 53.21 C 8.51 52.68 9.50 51.64 10.00 51.11 C 10.00 48.45 10.00 45.80 10.00 43.14 C 16.12 37.15 22.02 30.92 28.30 25.09 C 26.28 25.90 23.79 26.56 21.96 24.95 C 19.16 22.98 19.48 18.28 22.50 16.68 C 24.56 15.32 27.06 16.27 28.87 17.57 C 30.46 13.60 31.98 9.15 35.69 6.65 M 37.45 10.21 C 33.49 14.02 33.16 20.14 29.20 24.04 C 33.12 19.90 37.25 15.98 41.25 11.92 C 40.10 11.10 39.08 9.42 37.45 10.21 M 44.82 13.94 C 46.57 15.69 48.32 17.44 50.07 19.19 C 50.97 18.12 51.90 17.07 52.83 16.03 C 51.47 14.16 49.85 12.52 47.96 11.20 C 46.93 12.13 45.88 13.05 44.82 13.94 M 26.91 32.00 C 28.60 33.71 30.30 35.41 32.02 37.11 C 37.05 32.08 42.09 27.04 47.12 22.00 C 45.42 20.29 43.71 18.58 42.00 16.88 C 36.95 21.90 31.94 26.96 26.91 32.00 M 24.17 20.17 C 23.65 21.79 24.20 22.34 25.82 21.82 C 26.34 20.20 25.79 19.65 24.17 20.17 M 14.00 44.88 C 14.00 46.59 14.00 48.29 14.00 50.00 C 15.71 50.00 17.41 50.00 19.12 50.00 C 22.46 46.67 25.79 43.33 29.12 40.00 C 27.42 38.30 25.72 36.59 24.02 34.89 C 20.67 38.22 17.35 41.56 14.00 44.88 Z" />
</g>
</svg>
