<?xml version="1.0" encoding="UTF-8" ?>
<!DOCTYPE svg PUBLIC "-//W3C//DTD SVG 1.1//EN" "http://www.w3.org/Graphics/SVG/1.1/DTD/svg11.dtd">
<svg width="60pt" height="60pt" viewBox="0 0 60 60" version="1.1" xmlns="http://www.w3.org/2000/svg">
<g id="#ffffffff">
<path fill="#ffffff" opacity="1.00" d=" M 0.00 0.00 L 60.00 0.00 L 60.00 31.91 C 59.38 31.26 58.77 30.60 58.16 29.94 C 57.71 26.11 55.67 22.24 51.90 20.81 C 48.46 19.21 44.55 20.22 41.53 22.22 C 39.88 18.10 36.33 15.13 32.07 13.99 C 33.00 10.79 34.75 7.93 35.89 4.82 C 36.78 2.97 34.03 0.87 32.71 2.60 C 30.71 6.20 29.04 10.02 27.98 14.01 C 23.70 15.11 20.11 18.07 18.46 22.22 C 15.21 20.00 10.83 19.16 7.27 21.19 C 3.95 22.83 2.28 26.41 1.84 29.94 C 1.23 30.60 0.62 31.26 0.00 31.92 L 0.00 0.00 Z" />
<path fill="#ffffff" opacity="1.00" d=" M 22.97 22.06 C 23.77 21.96 25.35 21.75 26.14 21.64 C 27.89 24.64 32.11 24.60 33.86 21.64 C 34.65 21.75 36.23 21.96 37.02 22.06 C 38.61 25.31 38.22 29.84 35.06 31.98 C 31.70 32.29 28.30 32.29 24.94 31.98 C 21.77 29.84 21.38 25.31 22.97 22.06 Z" />
<path fill="#ffffff" opacity="1.00" d=" M 7.10 25.99 C 10.21 27.63 13.78 27.63 16.89 25.99 C 17.66 27.73 18.09 29.59 17.96 31.51 C 13.96 31.21 9.99 30.65 5.99 30.37 C 6.13 28.86 6.52 27.39 7.10 25.99 Z" />
<path fill="#ffffff" opacity="1.00" d=" M 43.10 25.99 C 46.22 27.62 49.78 27.62 52.90 25.99 C 53.37 27.39 53.84 28.79 54.24 30.21 C 50.17 30.75 46.09 31.17 42.00 31.52 C 41.93 29.61 42.32 27.73 43.10 25.99 Z" />
<path fill="#ffffff" opacity="1.00" d=" M 0.00 33.45 C 2.22 40.38 9.18 44.25 15.75 46.18 C 24.79 48.57 34.48 48.59 43.55 46.38 C 50.38 44.60 57.51 40.63 60.00 33.62 L 60.00 60.00 L 0.00 60.00 L 0.00 33.45 Z" />
</g>
<g id="#000000ff">
<path fill="#000000" opacity="1.00" d=" M 32.71 2.60 C 34.03 0.87 36.78 2.97 35.89 4.82 C 34.75 7.93 33.00 10.79 32.07 13.99 C 36.33 15.13 39.88 18.10 41.53 22.22 C 44.55 20.22 48.46 19.21 51.90 20.81 C 55.67 22.24 57.71 26.11 58.16 29.94 C 58.77 30.60 59.38 31.26 60.00 31.91 L 60.00 33.62 C 57.51 40.63 50.38 44.60 43.55 46.38 C 34.48 48.59 24.79 48.57 15.75 46.18 C 9.18 44.25 2.22 40.38 0.00 33.45 L 0.00 31.92 C 0.62 31.26 1.23 30.60 1.84 29.94 C 2.28 26.41 3.95 22.83 7.27 21.19 C 10.83 19.16 15.21 20.00 18.46 22.22 C 20.11 18.07 23.70 15.11 27.98 14.01 C 29.04 10.02 30.71 6.20 32.71 2.60 M 22.97 22.06 C 21.38 25.31 21.77 29.84 24.94 31.98 C 28.30 32.29 31.70 32.29 35.06 31.98 C 38.22 29.84 38.61 25.31 37.02 22.06 C 36.23 21.96 34.65 21.75 33.86 21.64 C 32.11 24.60 27.89 24.64 26.14 21.64 C 25.35 21.75 23.77 21.96 22.97 22.06 M 7.10 25.99 C 6.52 27.39 6.13 28.86 5.99 30.37 C 9.99 30.65 13.96 31.21 17.96 31.51 C 18.09 29.59 17.66 27.73 16.89 25.99 C 13.78 27.63 10.21 27.63 7.10 25.99 M 43.10 25.99 C 42.32 27.73 41.93 29.61 42.00 31.52 C 46.09 31.17 50.17 30.75 54.24 30.21 C 53.84 28.79 53.37 27.39 52.90 25.99 C 49.78 27.62 46.22 27.62 43.10 25.99 Z" />
</g>
</svg>
