<?xml version="1.0" encoding="UTF-8" ?>
<!DOCTYPE svg PUBLIC "-//W3C//DTD SVG 1.1//EN" "http://www.w3.org/Graphics/SVG/1.1/DTD/svg11.dtd">
<svg width="60pt" height="60pt" viewBox="0 0 60 60" version="1.1" xmlns="http://www.w3.org/2000/svg">
<g id="#ffffffff">
<path fill="#ffffff" opacity="1.00" d=" M 0.00 0.00 L 60.00 0.00 L 60.00 60.00 L 0.00 60.00 L 0.00 0.00 M 21.09 8.09 C 19.74 8.93 20.11 10.61 19.98 11.95 C 20.09 24.62 19.86 37.31 20.09 49.99 C 19.76 52.50 24.02 52.66 23.89 50.14 C 24.13 37.09 23.95 24.01 23.98 10.95 C 24.33 9.16 23.00 7.41 21.09 8.09 M 27.09 8.09 C 25.50 9.19 26.17 11.31 25.97 12.94 C 26.11 25.32 25.84 37.70 26.10 50.06 C 25.85 52.58 30.15 52.59 29.90 50.06 C 30.13 37.02 29.95 23.96 29.98 10.91 C 30.35 9.13 28.96 7.43 27.09 8.09 M 33.11 8.08 C 31.71 8.93 32.11 10.64 31.98 12.01 C 32.04 24.35 31.96 36.69 32.01 49.03 C 31.91 50.23 32.38 52.30 34.03 51.91 C 35.66 52.27 36.06 50.20 35.99 49.03 C 36.01 36.32 36.01 23.61 35.98 10.90 C 36.32 9.14 34.99 7.43 33.11 8.08 M 39.17 8.07 C 37.68 8.87 38.12 10.62 37.98 12.01 C 38.04 24.36 37.96 36.71 38.01 49.05 C 37.93 50.23 38.36 52.28 40.00 51.92 C 41.61 52.31 42.06 50.26 41.99 49.10 C 42.01 36.38 42.01 23.65 41.99 10.92 C 42.31 9.19 41.05 7.45 39.17 8.07 M 8.38 12.35 C 7.58 15.34 8.17 18.55 7.98 21.63 C 7.53 21.98 6.64 22.68 6.19 23.03 C 5.87 27.66 5.84 32.35 6.21 36.98 C 6.65 37.32 7.54 38.01 7.99 38.35 C 8.14 41.45 7.62 44.65 8.36 47.68 C 10.22 51.20 14.81 49.71 18.00 49.99 C 18.00 36.66 18.00 23.34 18.00 10.01 C 14.81 10.29 10.20 8.77 8.38 12.35 M 44.00 9.97 C 44.00 23.32 44.00 36.68 44.00 50.03 C 46.60 49.92 50.19 50.65 51.56 47.74 C 52.46 44.74 51.81 41.48 52.03 38.37 C 52.48 38.00 53.38 37.26 53.83 36.90 C 54.10 32.28 54.18 27.62 53.78 23.02 C 53.34 22.68 52.45 21.99 52.01 21.65 C 51.85 18.57 52.41 15.35 51.61 12.35 C 50.34 9.29 46.62 10.10 44.00 9.97 Z" />
</g>
<g id="#000000ff">
<path fill="#968176" opacity="1.00" d=" M 21.09 8.09 C 23.00 7.41 24.33 9.16 23.98 10.95 C 23.95 24.01 24.13 37.09 23.89 50.14 C 24.02 52.66 19.76 52.50 20.09 49.99 C 19.86 37.31 20.09 24.62 19.98 11.95 C 20.11 10.61 19.74 8.93 21.09 8.09 Z" />
<path fill="#968176" opacity="1.00" d=" M 27.09 8.09 C 28.96 7.43 30.35 9.13 29.98 10.91 C 29.95 23.96 30.13 37.02 29.90 50.06 C 30.15 52.59 25.85 52.58 26.10 50.06 C 25.84 37.70 26.11 25.32 25.97 12.94 C 26.17 11.31 25.50 9.19 27.09 8.09 Z" />
<path fill="#968176" opacity="1.00" d=" M 33.11 8.08 C 34.99 7.43 36.32 9.14 35.98 10.90 C 36.01 23.61 36.01 36.32 35.99 49.03 C 36.06 50.20 35.66 52.27 34.03 51.91 C 32.38 52.30 31.91 50.23 32.01 49.03 C 31.96 36.69 32.04 24.35 31.98 12.01 C 32.11 10.64 31.71 8.93 33.11 8.08 Z" />
<path fill="#968176" opacity="1.00" d=" M 39.17 8.07 C 41.05 7.45 42.31 9.19 41.99 10.92 C 42.01 23.65 42.01 36.38 41.99 49.10 C 42.06 50.26 41.61 52.31 40.00 51.92 C 38.36 52.28 37.93 50.23 38.01 49.05 C 37.96 36.71 38.04 24.36 37.98 12.01 C 38.12 10.62 37.68 8.87 39.17 8.07 Z" />
<path fill="#968176" opacity="1.00" d=" M 8.38 12.35 C 10.20 8.77 14.81 10.29 18.00 10.01 C 18.00 23.34 18.00 36.66 18.00 49.99 C 14.81 49.71 10.22 51.20 8.36 47.68 C 7.62 44.65 8.14 41.45 7.99 38.35 C 7.54 38.01 6.65 37.32 6.21 36.98 C 5.84 32.35 5.87 27.66 6.19 23.03 C 6.64 22.68 7.53 21.98 7.98 21.63 C 8.17 18.55 7.58 15.34 8.38 12.35 Z" />
<path fill="#968176" opacity="1.00" d=" M 44.00 9.97 C 46.62 10.10 50.34 9.29 51.61 12.35 C 52.41 15.35 51.85 18.57 52.01 21.65 C 52.45 21.99 53.34 22.68 53.78 23.02 C 54.18 27.62 54.10 32.28 53.83 36.90 C 53.38 37.26 52.48 38.00 52.03 38.37 C 51.81 41.48 52.46 44.74 51.56 47.74 C 50.19 50.65 46.60 49.92 44.00 50.03 C 44.00 36.68 44.00 23.32 44.00 9.97 Z" />
</g>
</svg>
