<?xml version="1.0" encoding="UTF-8" ?>
<!DOCTYPE svg PUBLIC "-//W3C//DTD SVG 1.1//EN" "http://www.w3.org/Graphics/SVG/1.1/DTD/svg11.dtd">
<svg width="64pt" height="64pt" viewBox="0 0 64 64" version="1.1" xmlns="http://www.w3.org/2000/svg">
<g id="#ffffffff">
<path fill="#ffffff" opacity="1.00" d=" M 0.00 0.00 L 64.00 0.00 L 64.00 64.00 L 0.00 64.00 L 0.00 0.00 M 30.26 6.26 C 27.80 6.73 26.06 8.67 24.36 10.34 C 19.07 15.75 13.62 21.00 8.35 26.43 C 5.36 29.33 5.33 34.56 8.30 37.50 C 14.30 43.60 20.39 49.63 26.46 55.67 C 29.40 58.67 34.65 58.64 37.58 55.63 C 43.48 49.86 49.28 43.97 55.12 38.13 C 58.31 35.39 58.94 30.13 56.07 26.94 C 50.42 20.95 44.43 15.28 38.67 9.38 C 36.59 7.04 33.44 5.45 30.26 6.26 Z" />
<path fill="#ffffff" opacity="1.00" d=" M 30.29 10.44 C 32.04 9.44 34.07 10.34 35.31 11.70 C 41.03 17.34 46.65 23.06 52.34 28.73 C 54.11 30.19 54.60 33.05 52.82 34.71 C 47.05 40.65 41.15 46.49 35.28 52.33 C 33.80 54.12 30.90 54.61 29.25 52.77 C 23.48 47.22 17.93 41.44 12.20 35.84 C 10.49 34.44 9.20 31.82 10.76 29.83 C 17.11 23.23 23.50 16.57 30.29 10.44 M 31.12 22.11 C 28.89 23.28 30.40 26.82 32.81 25.89 C 35.17 24.79 33.56 21.10 31.12 22.11 M 23.15 30.11 C 20.85 31.19 22.43 34.93 24.81 33.82 C 27.21 32.84 25.54 29.09 23.15 30.11 M 39.13 30.11 C 36.84 31.30 38.48 34.91 40.92 33.88 C 43.09 32.61 41.53 29.13 39.13 30.11 M 31.14 38.10 C 28.86 39.26 30.43 42.89 32.86 41.87 C 35.12 40.73 33.56 37.12 31.14 38.10 Z" />
</g>
<g id="#000000ff">
<path fill="#000000" opacity="1.00" d=" M 30.26 6.26 C 33.44 5.45 36.59 7.04 38.67 9.38 C 44.43 15.28 50.42 20.95 56.07 26.94 C 58.94 30.13 58.31 35.39 55.12 38.13 C 49.28 43.97 43.48 49.86 37.58 55.63 C 34.65 58.64 29.40 58.67 26.46 55.67 C 20.39 49.63 14.30 43.60 8.30 37.50 C 5.33 34.56 5.36 29.33 8.35 26.43 C 13.62 21.00 19.07 15.75 24.36 10.34 C 26.06 8.67 27.80 6.73 30.26 6.26 M 30.29 10.44 C 23.50 16.57 17.11 23.23 10.76 29.83 C 9.20 31.82 10.49 34.44 12.20 35.84 C 17.93 41.44 23.48 47.22 29.25 52.77 C 30.90 54.61 33.80 54.12 35.28 52.33 C 41.15 46.49 47.05 40.65 52.82 34.71 C 54.60 33.05 54.11 30.19 52.34 28.73 C 46.65 23.06 41.03 17.34 35.31 11.70 C 34.07 10.34 32.04 9.44 30.29 10.44 Z" />
<path fill="#000000" opacity="1.00" d=" M 31.12 22.11 C 33.56 21.10 35.17 24.79 32.81 25.89 C 30.40 26.82 28.89 23.28 31.12 22.11 Z" />
<path fill="#000000" opacity="1.00" d=" M 23.15 30.11 C 25.54 29.09 27.21 32.84 24.81 33.82 C 22.43 34.93 20.85 31.19 23.15 30.11 Z" />
<path fill="#000000" opacity="1.00" d=" M 39.13 30.11 C 41.53 29.13 43.09 32.61 40.92 33.88 C 38.48 34.91 36.84 31.30 39.13 30.11 Z" />
<path fill="#000000" opacity="1.00" d=" M 31.14 38.10 C 33.56 37.12 35.12 40.73 32.86 41.87 C 30.43 42.89 28.86 39.26 31.14 38.10 Z" />
</g>
</svg>
