<?xml version="1.0" encoding="UTF-8" ?>
<!DOCTYPE svg PUBLIC "-//W3C//DTD SVG 1.1//EN" "http://www.w3.org/Graphics/SVG/1.1/DTD/svg11.dtd">
<svg width="60pt" height="60pt" viewBox="0 0 60 60" version="1.1" xmlns="http://www.w3.org/2000/svg">
<g id="#ffffffff">
<path fill="#ffffff" opacity="1.00" d=" M 0.00 0.00 L 60.00 0.00 L 60.00 60.00 L 0.00 60.00 L 0.00 0.00 M 28.00 6.81 C 20.77 11.05 13.05 14.52 6.07 19.14 C 5.15 21.79 8.23 22.48 10.03 21.39 C 9.97 27.51 10.02 33.63 10.00 39.75 C 8.94 40.16 6.73 40.31 7.07 42.00 C 6.83 44.11 9.51 44.01 10.92 44.02 C 24.55 43.85 38.20 44.26 51.82 43.82 C 54.37 42.50 52.31 39.59 50.00 39.75 C 49.98 33.62 50.04 27.50 49.97 21.37 C 51.07 21.65 52.43 22.47 53.42 21.46 C 54.53 20.64 54.10 18.65 52.80 18.22 C 46.65 14.62 40.28 11.42 34.08 7.90 C 32.19 6.93 30.04 5.17 28.00 6.81 M 4.09 48.21 C 2.27 49.00 2.92 52.16 4.98 51.90 C 20.98 52.16 37.00 51.90 53.00 52.02 C 54.53 52.01 57.07 52.14 57.01 49.93 C 56.79 47.41 53.72 48.13 52.00 47.96 C 36.03 48.19 20.03 47.69 4.09 48.21 Z" />
<path fill="#ffffff" opacity="1.00" d=" M 28.01 16.00 C 29.34 16.00 30.66 16.00 31.99 16.00 C 32.00 16.77 32.02 18.30 32.03 19.07 C 34.32 20.03 36.28 21.53 36.84 24.09 C 36.02 24.09 34.37 24.09 33.55 24.08 C 32.39 21.18 26.49 21.04 27.18 24.84 C 30.00 27.15 35.47 25.88 36.74 30.08 C 37.78 33.44 35.02 36.13 32.03 36.98 C 32.02 37.73 32.00 39.25 31.99 40.00 C 30.66 40.00 29.34 40.00 28.01 40.00 C 28.00 39.23 27.99 37.70 27.98 36.94 C 25.45 36.18 23.42 34.52 22.84 31.84 C 23.68 31.84 25.35 31.84 26.18 31.83 C 27.20 32.95 28.31 34.26 30.01 34.07 C 31.92 34.46 34.69 32.17 32.61 30.52 C 29.69 29.02 25.06 29.62 23.71 25.95 C 22.55 22.74 25.08 19.99 27.98 19.10 C 27.98 18.33 28.00 16.77 28.01 16.00 Z" />
</g>
<g id="#000000ff">
<path fill="#968176" opacity="1.00" d=" M 28.00 6.81 C 30.04 5.17 32.19 6.93 34.08 7.90 C 40.28 11.42 46.65 14.62 52.80 18.22 C 54.10 18.65 54.53 20.64 53.42 21.46 C 52.43 22.47 51.07 21.65 49.97 21.37 C 50.04 27.50 49.98 33.62 50.00 39.75 C 52.31 39.59 54.37 42.50 51.82 43.82 C 38.20 44.26 24.55 43.85 10.92 44.02 C 9.51 44.01 6.83 44.11 7.07 42.00 C 6.73 40.31 8.94 40.16 10.00 39.75 C 10.02 33.63 9.97 27.51 10.03 21.39 C 8.23 22.48 5.15 21.79 6.07 19.14 C 13.05 14.52 20.77 11.05 28.00 6.81 M 28.01 16.00 C 28.00 16.77 27.98 18.33 27.98 19.10 C 25.08 19.99 22.55 22.74 23.71 25.95 C 25.06 29.62 29.69 29.02 32.61 30.52 C 34.69 32.17 31.92 34.46 30.01 34.07 C 28.31 34.26 27.20 32.95 26.18 31.83 C 25.35 31.84 23.68 31.84 22.84 31.84 C 23.42 34.52 25.45 36.18 27.98 36.94 C 27.99 37.70 28.00 39.23 28.01 40.00 C 29.34 40.00 30.66 40.00 31.99 40.00 C 32.00 39.25 32.02 37.73 32.03 36.98 C 35.02 36.13 37.78 33.44 36.74 30.08 C 35.47 25.88 30.00 27.15 27.18 24.84 C 26.49 21.04 32.39 21.18 33.55 24.08 C 34.37 24.09 36.02 24.09 36.84 24.09 C 36.28 21.53 34.32 20.03 32.03 19.07 C 32.02 18.30 32.00 16.77 31.99 16.00 C 30.66 16.00 29.34 16.00 28.01 16.00 Z" />
<path fill="#968176" opacity="1.00" d=" M 4.09 48.21 C 20.03 47.69 36.03 48.19 52.00 47.96 C 53.72 48.13 56.79 47.41 57.01 49.93 C 57.07 52.14 54.53 52.01 53.00 52.02 C 37.00 51.90 20.98 52.16 4.98 51.90 C 2.92 52.16 2.27 49.00 4.09 48.21 Z" />
</g>
</svg>
