<?xml version="1.0" encoding="UTF-8" ?>
<!DOCTYPE svg PUBLIC "-//W3C//DTD SVG 1.1//EN" "http://www.w3.org/Graphics/SVG/1.1/DTD/svg11.dtd">
<svg width="64pt" height="64pt" viewBox="0 0 64 64" version="1.1" xmlns="http://www.w3.org/2000/svg">
<g id="#ffffffff">
<path fill="#ffffff" opacity="1.00" d=" M 0.00 0.00 L 64.00 0.00 L 64.00 64.00 L 0.00 64.00 L 0.00 0.00 M 11.58 11.64 C 8.24 17.73 10.50 25.66 16.04 29.64 C 8.89 32.84 4.09 40.16 3.89 47.98 C 5.21 47.99 6.53 48.00 7.85 48.00 C 8.10 41.88 11.69 35.98 17.34 33.44 C 21.82 31.28 27.07 31.78 31.51 33.77 C 26.88 39.89 26.73 49.19 32.28 54.79 C 38.00 61.49 49.32 61.69 55.30 55.24 C 61.71 49.24 61.45 37.95 54.77 32.25 C 49.39 26.99 40.59 26.82 34.53 31.00 C 33.90 30.68 32.65 30.03 32.02 29.71 C 37.48 26.51 42.42 22.49 46.88 18.02 C 41.57 12.81 35.87 7.60 28.83 4.90 C 22.44 2.37 14.58 5.49 11.58 11.64 Z" />
<path fill="#ffffff" opacity="1.00" d=" M 14.03 17.98 C 13.80 11.98 19.99 6.77 25.86 8.27 C 31.72 10.01 36.56 13.98 41.04 18.00 C 36.56 21.97 31.73 25.88 25.94 27.68 C 20.05 29.29 13.78 24.01 14.03 17.98 Z" />
<path fill="#ffffff" opacity="1.00" d=" M 40.42 32.57 C 46.75 30.40 54.22 34.62 55.62 41.14 C 57.30 47.31 53.10 54.31 46.83 55.63 C 40.67 57.29 33.76 53.12 32.38 46.90 C 30.75 40.96 34.51 34.26 40.42 32.57 M 36.56 39.43 C 38.07 40.96 39.60 42.48 41.12 44.00 C 39.61 45.51 38.09 47.02 36.58 48.54 C 37.53 49.50 38.48 50.47 39.43 51.44 C 40.97 49.94 42.47 48.40 44.00 46.88 C 45.52 48.40 47.04 49.92 48.56 51.43 C 49.52 50.48 50.48 49.52 51.44 48.57 C 49.92 47.04 48.39 45.52 46.88 44.00 C 48.40 42.48 49.92 40.96 51.43 39.44 C 50.48 38.48 49.52 37.52 48.57 36.56 C 47.04 38.07 45.53 39.61 44.00 41.12 C 42.48 39.60 40.96 38.07 39.44 36.56 C 38.48 37.53 37.52 38.48 36.56 39.43 Z" />
</g>
<g id="#000000ff">
<path fill="#000000" opacity="1.00" d=" M 11.58 11.64 C 14.58 5.49 22.44 2.37 28.83 4.90 C 35.87 7.60 41.57 12.81 46.88 18.02 C 42.42 22.49 37.48 26.51 32.02 29.71 C 32.65 30.03 33.90 30.68 34.53 31.00 C 40.59 26.82 49.39 26.99 54.77 32.25 C 61.45 37.95 61.71 49.24 55.30 55.24 C 49.32 61.69 38.00 61.49 32.28 54.79 C 26.73 49.19 26.88 39.89 31.51 33.77 C 27.07 31.78 21.82 31.28 17.34 33.44 C 11.69 35.98 8.10 41.88 7.85 48.00 C 6.53 48.00 5.21 47.99 3.89 47.98 C 4.09 40.16 8.89 32.84 16.04 29.64 C 10.50 25.66 8.24 17.73 11.58 11.64 M 14.03 17.98 C 13.78 24.01 20.05 29.29 25.94 27.68 C 31.73 25.88 36.56 21.97 41.04 18.00 C 36.56 13.98 31.72 10.01 25.86 8.27 C 19.99 6.77 13.80 11.98 14.03 17.98 M 40.42 32.57 C 34.51 34.26 30.75 40.96 32.38 46.90 C 33.76 53.12 40.67 57.29 46.83 55.63 C 53.10 54.31 57.30 47.31 55.62 41.14 C 54.22 34.62 46.75 30.40 40.42 32.57 Z" />
<path fill="#000000" opacity="1.00" d=" M 36.56 39.43 C 37.52 38.48 38.48 37.53 39.44 36.56 C 40.96 38.07 42.48 39.60 44.00 41.12 C 45.53 39.61 47.04 38.07 48.57 36.56 C 49.52 37.52 50.48 38.48 51.43 39.44 C 49.92 40.96 48.40 42.48 46.88 44.00 C 48.39 45.52 49.92 47.04 51.44 48.57 C 50.48 49.52 49.52 50.48 48.56 51.43 C 47.04 49.92 45.52 48.40 44.00 46.88 C 42.47 48.40 40.97 49.94 39.43 51.44 C 38.48 50.47 37.53 49.50 36.58 48.54 C 38.09 47.02 39.61 45.51 41.12 44.00 C 39.60 42.48 38.07 40.96 36.56 39.43 Z" />
</g>
</svg>
