<?xml version="1.0" encoding="UTF-8" ?>
<!DOCTYPE svg PUBLIC "-//W3C//DTD SVG 1.1//EN" "http://www.w3.org/Graphics/SVG/1.1/DTD/svg11.dtd">
<svg width="60pt" height="60pt" viewBox="0 0 60 60" version="1.1" xmlns="http://www.w3.org/2000/svg">
<g id="#ffffffff">
<path fill="#ffffff" opacity="1.00" d=" M 0.00 0.00 L 60.00 0.00 L 60.00 60.00 L 0.00 60.00 L 0.00 0.00 M 15.64 7.69 C 13.87 15.37 12.01 23.19 12.08 31.11 C 12.97 38.83 20.92 43.22 28.00 43.98 C 28.00 45.45 28.00 46.92 28.00 48.39 C 25.05 49.04 22.02 49.38 19.13 50.30 C 17.15 50.89 17.97 54.21 19.97 53.93 C 26.65 54.06 33.35 54.06 40.03 53.93 C 42.13 54.19 42.87 50.73 40.75 50.22 C 37.91 49.32 34.93 48.98 32.01 48.41 C 32.00 46.94 32.00 45.46 32.00 43.98 C 38.81 43.20 46.31 39.29 47.79 32.05 C 48.37 25.28 46.56 18.59 45.38 11.97 C 44.69 10.07 45.06 7.31 43.12 6.13 C 35.41 5.79 27.68 6.12 19.97 5.97 C 18.45 6.05 15.98 5.59 15.64 7.69 Z" />
<path fill="#ffffff" opacity="1.00" d=" M 19.15 10.00 C 26.38 10.00 33.61 10.00 40.84 10.00 C 41.39 12.67 41.95 15.33 42.51 18.00 C 35.72 18.15 28.91 17.71 22.14 18.20 C 19.47 22.89 20.09 28.99 20.42 34.26 C 18.61 37.16 16.33 32.95 16.12 31.05 C 15.94 23.92 17.75 16.94 19.15 10.00 Z" />
</g>
<g id="#000000ff">
<path fill="#000000" opacity="1.00" d=" M 15.64 7.69 C 15.98 5.59 18.45 6.05 19.97 5.97 C 27.68 6.12 35.41 5.79 43.12 6.13 C 45.06 7.31 44.69 10.07 45.38 11.97 C 46.56 18.59 48.37 25.28 47.79 32.05 C 46.31 39.29 38.81 43.20 32.00 43.98 C 32.00 45.46 32.00 46.94 32.01 48.41 C 34.93 48.98 37.91 49.32 40.75 50.22 C 42.87 50.73 42.13 54.19 40.03 53.93 C 33.35 54.06 26.65 54.06 19.97 53.93 C 17.97 54.21 17.15 50.89 19.13 50.30 C 22.02 49.38 25.05 49.04 28.00 48.39 C 28.00 46.92 28.00 45.45 28.00 43.98 C 20.92 43.22 12.97 38.83 12.08 31.11 C 12.01 23.19 13.87 15.37 15.64 7.69 M 19.15 10.00 C 17.75 16.94 15.94 23.92 16.12 31.05 C 16.33 32.95 18.61 37.16 20.42 34.26 C 20.09 28.99 19.47 22.89 22.14 18.20 C 28.91 17.71 35.72 18.15 42.51 18.00 C 41.95 15.33 41.39 12.67 40.84 10.00 C 33.61 10.00 26.38 10.00 19.15 10.00 Z" />
</g>
</svg>
