<?xml version="1.0" encoding="UTF-8" ?>
<!DOCTYPE svg PUBLIC "-//W3C//DTD SVG 1.1//EN" "http://www.w3.org/Graphics/SVG/1.1/DTD/svg11.dtd">
<svg width="60pt" height="60pt" viewBox="0 0 60 60" version="1.1" xmlns="http://www.w3.org/2000/svg">
<g id="#ffffffff">
<path fill="#ffffff" opacity="1.00" d=" M 0.00 0.00 L 60.00 0.00 L 60.00 60.00 L 0.00 60.00 L 0.00 0.00 M 25.27 6.33 C 23.34 8.57 24.00 11.67 25.30 14.03 C 21.90 14.05 18.48 13.78 15.10 14.20 C 12.97 15.38 14.47 17.56 15.97 18.44 C 16.03 29.49 16.00 40.54 15.99 51.58 C 14.35 52.35 13.00 54.78 15.18 55.82 C 23.79 56.26 32.44 55.85 41.06 56.02 C 42.71 55.86 44.80 56.45 45.92 54.87 C 46.38 53.29 45.10 52.41 44.01 51.59 C 43.99 40.53 43.99 29.47 44.01 18.41 C 45.64 17.64 46.97 15.30 44.89 14.19 C 41.51 13.79 38.09 14.05 34.69 14.03 C 35.67 11.98 36.64 9.57 35.38 7.40 C 33.69 3.48 27.74 2.84 25.27 6.33 Z" />
<path fill="#ffffff" opacity="1.00" d=" M 29.16 8.08 C 31.57 7.14 33.14 10.74 30.84 11.90 C 28.42 12.88 26.86 9.24 29.16 8.08 Z" />
<path fill="#ffffff" opacity="1.00" d=" M 20.00 18.00 C 23.34 18.00 26.69 18.00 30.03 18.03 C 26.69 19.46 23.35 20.87 20.00 22.28 C 20.00 20.85 20.00 19.42 20.00 18.00 Z" />
<path fill="#ffffff" opacity="1.00" d=" M 20.00 30.29 C 26.68 27.46 33.34 24.58 40.00 21.71 C 40.00 23.06 40.00 24.40 39.99 25.75 C 33.32 28.59 26.68 31.47 20.00 34.28 C 20.00 32.95 20.00 31.62 20.00 30.29 Z" />
<path fill="#ffffff" opacity="1.00" d=" M 20.00 42.29 C 26.68 39.46 33.34 36.58 40.00 33.71 C 40.00 35.06 39.99 36.40 39.98 37.75 C 33.32 40.58 26.68 43.47 20.00 46.28 C 20.00 44.95 20.00 43.62 20.00 42.29 Z" />
<path fill="#ffffff" opacity="1.00" d=" M 25.39 51.98 C 30.28 49.94 35.14 47.82 40.00 45.71 C 40.00 47.81 40.00 49.90 40.00 52.00 C 35.13 52.00 30.26 52.01 25.39 51.98 Z" />
</g>
<g id="#000000ff">
<path fill="#000000" opacity="1.00" d=" M 25.27 6.33 C 27.74 2.84 33.69 3.48 35.38 7.40 C 36.64 9.57 35.67 11.98 34.69 14.03 C 38.09 14.05 41.51 13.79 44.89 14.19 C 46.97 15.30 45.64 17.64 44.01 18.41 C 43.99 29.47 43.99 40.53 44.01 51.59 C 45.10 52.41 46.38 53.29 45.92 54.87 C 44.80 56.45 42.71 55.86 41.06 56.02 C 32.44 55.85 23.79 56.26 15.18 55.82 C 13.00 54.78 14.35 52.35 15.99 51.58 C 16.00 40.54 16.03 29.49 15.97 18.44 C 14.47 17.56 12.97 15.38 15.10 14.20 C 18.48 13.78 21.90 14.05 25.30 14.03 C 24.00 11.67 23.34 8.57 25.27 6.33 M 29.16 8.08 C 26.86 9.24 28.42 12.88 30.84 11.90 C 33.14 10.74 31.57 7.14 29.16 8.08 M 20.00 18.00 C 20.00 19.42 20.00 20.85 20.00 22.28 C 23.35 20.87 26.69 19.46 30.03 18.03 C 26.69 18.00 23.34 18.00 20.00 18.00 M 20.00 30.29 C 20.00 31.62 20.00 32.95 20.00 34.28 C 26.68 31.47 33.32 28.59 39.99 25.75 C 40.00 24.40 40.00 23.06 40.00 21.71 C 33.34 24.58 26.68 27.46 20.00 30.29 M 20.00 42.29 C 20.00 43.62 20.00 44.95 20.00 46.28 C 26.68 43.47 33.32 40.58 39.98 37.75 C 39.99 36.40 40.00 35.06 40.00 33.71 C 33.34 36.58 26.68 39.46 20.00 42.29 M 25.39 51.98 C 30.26 52.01 35.13 52.00 40.00 52.00 C 40.00 49.90 40.00 47.81 40.00 45.71 C 35.14 47.82 30.28 49.94 25.39 51.98 Z" />
</g>
</svg>
