<?xml version="1.0" encoding="UTF-8" ?>
<!DOCTYPE svg PUBLIC "-//W3C//DTD SVG 1.1//EN" "http://www.w3.org/Graphics/SVG/1.1/DTD/svg11.dtd">
<svg width="64pt" height="64pt" viewBox="0 0 64 64" version="1.1" xmlns="http://www.w3.org/2000/svg">
<g id="#ffffffff">
<path fill="#ffffff" opacity="1.00" d=" M 0.00 0.00 L 64.00 0.00 L 64.00 64.00 L 0.00 64.00 L 0.00 0.00 M 42.02 5.96 C 42.40 8.91 42.23 12.33 44.39 14.68 C 45.93 16.61 49.64 14.46 48.68 12.19 C 47.50 9.24 44.48 7.68 42.02 5.96 M 48.94 18.01 C 49.66 19.55 52.10 20.88 53.37 19.19 C 55.36 16.60 54.76 13.07 54.84 10.01 C 52.34 12.16 49.01 14.34 48.94 18.01 M 38.01 17.60 C 40.62 19.67 43.39 22.54 47.04 22.08 C 48.66 21.29 49.32 18.66 47.68 17.55 C 44.66 15.94 41.17 17.12 38.01 17.60 M 50.65 25.16 C 49.21 27.21 52.57 29.96 54.36 28.39 C 56.86 26.35 57.23 22.88 58.03 19.96 C 55.36 21.29 52.14 22.35 50.65 25.16 M 38.82 23.21 C 40.69 26.03 45.38 32.87 48.55 28.03 C 49.18 23.18 42.05 23.63 38.82 23.21 M 38.51 27.76 C 39.38 30.96 39.89 34.84 42.97 36.78 C 44.63 37.08 46.47 35.73 46.51 34.01 C 45.29 30.54 41.46 29.32 38.51 27.76 M 48.14 33.35 C 46.05 34.92 48.52 38.83 50.84 37.61 C 53.71 36.39 55.18 33.40 56.86 30.96 C 53.90 31.34 50.47 31.15 48.14 33.35 M 36.40 32.70 C 36.55 36.09 36.05 40.28 38.98 42.71 C 40.55 42.94 41.81 42.40 42.76 41.11 C 42.81 37.19 39.00 34.96 36.40 32.70 M 32.66 36.45 C 32.05 39.46 30.73 42.74 32.04 45.76 C 32.76 47.93 36.76 47.34 36.87 45.10 C 37.04 41.70 34.49 39.05 32.66 36.45 M 44.35 40.69 C 42.06 41.80 43.38 46.17 46.03 45.46 C 48.99 45.06 51.30 42.97 53.62 41.27 C 50.64 40.56 47.32 39.23 44.35 40.69 M 27.30 40.57 C 26.31 43.44 24.73 46.47 25.58 49.57 C 25.98 52.30 30.94 51.86 30.63 48.99 C 30.66 45.87 28.74 43.20 27.30 40.57 M 38.18 51.30 C 41.24 52.33 44.39 50.89 47.34 50.12 C 44.90 48.34 42.20 46.23 39.02 46.42 C 36.44 46.20 35.71 50.69 38.18 51.30 M 6.00 54.02 C 6.00 55.35 6.00 56.69 6.00 58.03 C 12.69 57.97 19.39 57.17 25.80 55.22 C 24.49 54.34 23.27 53.34 22.19 52.18 C 16.88 53.41 11.45 53.96 6.00 54.02 M 29.96 55.65 C 32.82 57.51 36.44 56.54 39.61 56.34 C 37.16 54.04 34.60 51.06 30.92 51.12 C 29.27 51.68 28.29 54.59 29.96 55.65 Z" />
</g>
<g id="#000000ff">
<path fill="#000000" opacity="1.00" d=" M 42.02 5.96 C 44.48 7.68 47.50 9.24 48.68 12.19 C 49.64 14.46 45.93 16.61 44.39 14.68 C 42.23 12.33 42.40 8.91 42.02 5.96 Z" />
<path fill="#000000" opacity="1.00" d=" M 48.94 18.01 C 49.01 14.34 52.34 12.16 54.84 10.01 C 54.76 13.07 55.36 16.60 53.37 19.19 C 52.10 20.88 49.66 19.55 48.94 18.01 Z" />
<path fill="#000000" opacity="1.00" d=" M 38.01 17.60 C 41.17 17.12 44.66 15.94 47.68 17.55 C 49.32 18.66 48.66 21.29 47.04 22.08 C 43.39 22.54 40.62 19.67 38.01 17.60 Z" />
<path fill="#000000" opacity="1.00" d=" M 50.65 25.16 C 52.14 22.35 55.36 21.29 58.03 19.96 C 57.23 22.88 56.86 26.35 54.36 28.39 C 52.57 29.96 49.21 27.21 50.65 25.16 Z" />
<path fill="#000000" opacity="1.00" d=" M 38.82 23.21 C 42.05 23.63 49.18 23.18 48.55 28.03 C 45.38 32.87 40.69 26.03 38.82 23.21 Z" />
<path fill="#000000" opacity="1.00" d=" M 38.51 27.76 C 41.46 29.32 45.29 30.54 46.51 34.01 C 46.47 35.73 44.63 37.08 42.97 36.78 C 39.89 34.84 39.38 30.96 38.51 27.76 Z" />
<path fill="#000000" opacity="1.00" d=" M 48.14 33.35 C 50.47 31.15 53.90 31.34 56.86 30.96 C 55.18 33.40 53.71 36.39 50.84 37.61 C 48.52 38.83 46.05 34.92 48.14 33.35 Z" />
<path fill="#000000" opacity="1.00" d=" M 36.40 32.70 C 39.00 34.96 42.81 37.19 42.76 41.11 C 41.81 42.40 40.55 42.94 38.98 42.71 C 36.05 40.28 36.55 36.09 36.40 32.70 Z" />
<path fill="#000000" opacity="1.00" d=" M 32.66 36.45 C 34.49 39.05 37.04 41.70 36.87 45.10 C 36.76 47.34 32.76 47.93 32.04 45.76 C 30.73 42.74 32.05 39.46 32.66 36.45 Z" />
<path fill="#000000" opacity="1.00" d=" M 44.35 40.69 C 47.32 39.23 50.64 40.56 53.62 41.27 C 51.30 42.97 48.99 45.06 46.03 45.46 C 43.38 46.17 42.06 41.80 44.35 40.69 Z" />
<path fill="#000000" opacity="1.00" d=" M 27.30 40.57 C 28.74 43.20 30.66 45.87 30.63 48.99 C 30.94 51.86 25.98 52.30 25.58 49.57 C 24.73 46.47 26.31 43.44 27.30 40.57 Z" />
<path fill="#000000" opacity="1.00" d=" M 38.18 51.30 C 35.71 50.69 36.44 46.20 39.02 46.42 C 42.20 46.23 44.90 48.34 47.34 50.12 C 44.39 50.89 41.24 52.33 38.18 51.30 Z" />
<path fill="#000000" opacity="1.00" d=" M 6.00 54.02 C 11.45 53.96 16.88 53.41 22.19 52.18 C 23.27 53.34 24.49 54.34 25.80 55.22 C 19.39 57.17 12.69 57.97 6.00 58.03 C 6.00 56.69 6.00 55.35 6.00 54.02 Z" />
<path fill="#000000" opacity="1.00" d=" M 29.96 55.65 C 28.29 54.59 29.27 51.68 30.92 51.12 C 34.60 51.06 37.16 54.04 39.61 56.34 C 36.44 56.54 32.82 57.51 29.96 55.65 Z" />
</g>
</svg>
