<?xml version="1.0" encoding="UTF-8" ?>
<!DOCTYPE svg PUBLIC "-//W3C//DTD SVG 1.1//EN" "http://www.w3.org/Graphics/SVG/1.1/DTD/svg11.dtd">
<svg width="64pt" height="64pt" viewBox="0 0 64 64" version="1.1" xmlns="http://www.w3.org/2000/svg">
<g id="#ffffffff">
<path fill="#ffffff" opacity="1.00" d=" M 0.00 0.00 L 64.00 0.00 L 64.00 25.98 C 62.57 26.00 61.13 26.03 59.70 26.06 C 58.15 23.89 60.41 22.29 61.85 20.92 C 60.92 19.99 59.99 19.06 59.07 18.13 C 58.07 19.12 57.07 20.11 56.08 21.11 C 55.55 20.88 54.49 20.42 53.95 20.19 C 53.98 18.79 54.00 17.40 54.01 16.00 C 52.67 16.00 51.32 16.00 49.98 16.00 C 50.01 17.41 50.04 18.82 50.06 20.23 C 49.27 20.51 48.48 20.76 47.68 21.00 C 46.77 20.04 45.86 19.07 44.96 18.11 C 44.02 19.05 43.07 19.99 42.13 20.94 C 43.13 21.94 44.13 22.94 45.15 23.92 C 44.80 26.69 41.99 25.96 40.00 26.04 C 40.00 27.34 40.00 28.65 40.00 29.96 C 41.74 30.17 45.04 29.16 44.95 31.92 C 44.29 33.18 43.10 34.06 42.15 35.08 C 43.07 36.00 43.99 36.92 44.91 37.85 C 46.29 36.85 47.50 34.10 49.50 35.45 C 50.51 36.67 49.79 38.53 50.04 40.00 C 51.34 40.00 52.65 40.00 53.96 40.00 C 54.17 38.25 53.16 34.94 55.95 35.03 C 57.16 35.76 58.07 36.88 59.09 37.85 C 60.01 36.92 60.94 35.99 61.87 35.06 C 60.88 34.07 59.89 33.08 58.89 32.09 C 59.12 31.55 59.58 30.48 59.81 29.95 C 61.21 29.98 62.60 30.00 64.00 30.02 L 64.00 64.00 L 0.00 64.00 L 0.00 32.01 C 0.65 35.23 3.46 38.01 6.85 37.95 C 12.59 38.05 18.34 38.03 24.08 37.96 C 29.04 38.09 33.12 32.84 31.74 28.07 C 31.03 24.89 28.15 22.91 25.19 22.06 C 23.20 18.42 19.38 15.46 15.04 16.07 C 10.72 16.34 7.63 19.90 6.29 23.75 C 3.50 24.90 0.69 26.54 0.00 29.75 L 0.00 0.00 M 35.04 46.48 C 29.89 44.48 24.04 48.49 23.88 53.96 C 25.20 53.98 26.51 53.99 27.83 54.00 C 28.20 51.96 29.66 49.92 31.94 49.99 C 34.26 49.85 35.79 51.93 36.17 54.00 C 37.49 53.99 38.80 53.98 40.12 53.97 C 39.87 52.16 39.21 50.47 38.26 48.92 C 39.91 46.78 41.60 44.68 43.16 42.48 C 42.12 41.70 41.09 40.92 40.06 40.14 C 38.39 42.25 36.74 44.38 35.04 46.48 Z" />
<path fill="#ffffff" opacity="1.00" d=" M 9.96 28.52 C 9.60 25.32 10.55 21.38 14.01 20.34 C 17.93 18.79 21.86 22.14 22.25 26.02 C 24.04 25.96 26.19 25.95 27.27 27.68 C 29.17 30.09 27.19 34.11 24.10 33.96 C 18.36 34.02 12.61 34.06 6.86 33.94 C 4.36 34.04 3.09 30.61 4.83 28.92 C 6.19 27.46 8.29 28.23 9.96 28.52 Z" />
<path fill="#ffffff" opacity="1.00" d=" M 50.25 24.39 C 52.77 23.03 56.13 25.16 56.01 28.01 C 56.14 31.11 52.20 33.18 49.73 31.30 C 47.22 29.75 47.54 25.54 50.25 24.39 Z" />
</g>
<g id="#000000ff">
<path fill="#000000" opacity="1.00" d=" M 6.29 23.75 C 7.63 19.90 10.72 16.34 15.04 16.07 C 19.38 15.46 23.20 18.42 25.19 22.06 C 28.15 22.91 31.03 24.89 31.74 28.07 C 33.12 32.84 29.04 38.09 24.08 37.96 C 18.34 38.03 12.59 38.05 6.85 37.95 C 3.46 38.01 0.65 35.23 0.00 32.01 L 0.00 29.75 C 0.69 26.54 3.50 24.90 6.29 23.75 M 9.96 28.52 C 8.29 28.23 6.19 27.46 4.83 28.92 C 3.09 30.61 4.36 34.04 6.86 33.94 C 12.61 34.06 18.36 34.02 24.10 33.96 C 27.19 34.11 29.17 30.09 27.27 27.68 C 26.19 25.95 24.04 25.96 22.25 26.02 C 21.86 22.14 17.93 18.79 14.01 20.34 C 10.55 21.38 9.60 25.32 9.96 28.52 Z" />
<path fill="#000000" opacity="1.00" d=" M 49.98 16.00 C 51.32 16.00 52.67 16.00 54.01 16.00 C 54.00 17.40 53.98 18.79 53.95 20.19 C 54.49 20.42 55.55 20.88 56.08 21.11 C 57.07 20.11 58.07 19.12 59.07 18.13 C 59.99 19.06 60.92 19.99 61.85 20.92 C 60.41 22.29 58.15 23.89 59.70 26.06 C 61.13 26.03 62.57 26.00 64.00 25.98 L 64.00 30.02 C 62.60 30.00 61.21 29.98 59.81 29.95 C 59.58 30.48 59.12 31.55 58.89 32.09 C 59.89 33.08 60.88 34.07 61.87 35.06 C 60.94 35.99 60.01 36.92 59.09 37.85 C 58.07 36.88 57.16 35.76 55.95 35.03 C 53.16 34.94 54.17 38.25 53.96 40.00 C 52.65 40.00 51.34 40.00 50.04 40.00 C 49.79 38.53 50.51 36.67 49.50 35.45 C 47.50 34.10 46.29 36.85 44.91 37.85 C 43.99 36.92 43.07 36.00 42.15 35.08 C 43.10 34.06 44.29 33.18 44.95 31.92 C 45.04 29.16 41.74 30.17 40.00 29.96 C 40.00 28.65 40.00 27.34 40.00 26.04 C 41.99 25.96 44.80 26.69 45.15 23.92 C 44.13 22.94 43.13 21.94 42.13 20.94 C 43.07 19.99 44.02 19.05 44.96 18.11 C 45.86 19.07 46.77 20.04 47.68 21.00 C 48.48 20.76 49.27 20.51 50.06 20.23 C 50.04 18.82 50.01 17.41 49.98 16.00 M 50.25 24.39 C 47.54 25.54 47.22 29.75 49.73 31.30 C 52.20 33.18 56.14 31.11 56.01 28.01 C 56.13 25.16 52.77 23.03 50.25 24.39 Z" />
<path fill="#000000" opacity="1.00" d=" M 35.04 46.48 C 36.74 44.38 38.39 42.25 40.06 40.14 C 41.09 40.92 42.12 41.70 43.16 42.48 C 41.60 44.68 39.91 46.78 38.26 48.92 C 39.21 50.47 39.87 52.16 40.12 53.97 C 38.80 53.98 37.49 53.99 36.17 54.00 C 35.79 51.93 34.26 49.85 31.94 49.99 C 29.66 49.92 28.20 51.96 27.83 54.00 C 26.51 53.99 25.20 53.98 23.88 53.96 C 24.04 48.49 29.89 44.48 35.04 46.48 Z" />
</g>
</svg>
