<?xml version="1.0" encoding="UTF-8" ?>
<!DOCTYPE svg PUBLIC "-//W3C//DTD SVG 1.1//EN" "http://www.w3.org/Graphics/SVG/1.1/DTD/svg11.dtd">
<svg width="60pt" height="60pt" viewBox="0 0 60 60" version="1.1" xmlns="http://www.w3.org/2000/svg">
<g id="#ffffffff">
<path fill="#ffffff" opacity="1.00" d=" M 0.00 0.00 L 60.00 0.00 L 60.00 60.00 L 0.00 60.00 L 0.00 0.00 M 24.47 6.65 C 17.60 8.26 11.55 13.05 8.47 19.40 C 5.19 25.96 5.20 34.04 8.48 40.60 C 11.92 47.68 19.05 52.82 26.87 53.78 C 33.89 54.74 41.30 52.38 46.42 47.47 C 51.48 42.77 54.32 35.80 53.96 28.90 C 53.70 22.03 50.25 15.39 44.84 11.15 C 39.21 6.63 31.47 4.97 24.47 6.65 Z" />
<path fill="#ffffff" opacity="1.00" d=" M 29.15 10.11 C 31.57 9.13 33.15 12.77 30.83 13.88 C 28.42 14.87 26.86 11.23 29.15 10.11 Z" />
<path fill="#ffffff" opacity="1.00" d=" M 19.38 13.19 C 20.91 11.00 24.24 13.66 22.59 15.64 C 21.08 17.75 17.80 15.20 19.38 13.19 Z" />
<path fill="#ffffff" opacity="1.00" d=" M 37.31 13.25 C 38.81 11.01 42.24 13.58 40.62 15.67 C 39.09 17.68 35.89 15.31 37.31 13.25 Z" />
<path fill="#ffffff" opacity="1.00" d=" M 13.26 19.39 C 15.09 17.75 17.89 21.15 15.60 22.51 C 13.96 24.53 10.83 20.73 13.26 19.39 Z" />
<path fill="#ffffff" opacity="1.00" d=" M 32.18 26.37 C 36.59 24.19 40.62 21.29 45.08 19.21 C 46.98 18.17 48.68 21.65 46.77 22.56 C 42.76 25.28 38.33 27.32 34.25 29.94 C 33.70 32.97 30.77 34.81 27.83 33.63 C 25.64 34.44 22.62 37.83 20.67 34.94 C 20.34 32.03 23.96 31.56 25.74 30.06 C 26.29 27.01 29.24 25.18 32.18 26.37 Z" />
<path fill="#ffffff" opacity="1.00" d=" M 11.17 28.09 C 13.60 27.16 15.13 30.78 12.82 31.89 C 10.39 32.88 8.89 29.21 11.17 28.09 Z" />
<path fill="#ffffff" opacity="1.00" d=" M 47.18 28.10 C 49.61 27.14 51.14 30.82 48.80 31.89 C 46.38 32.85 44.87 29.18 47.18 28.10 Z" />
<path fill="#ffffff" opacity="1.00" d=" M 13.31 37.38 C 15.17 35.73 17.82 39.18 15.60 40.52 C 13.85 42.49 10.83 38.65 13.31 37.38 Z" />
<path fill="#ffffff" opacity="1.00" d=" M 44.38 37.46 C 46.18 35.60 49.04 39.15 46.78 40.68 C 44.73 42.16 42.29 38.88 44.38 37.46 Z" />
</g>
<g id="#000000ff">
<path fill="#968176" opacity="1.00" d=" M 24.47 6.65 C 31.47 4.97 39.21 6.63 44.84 11.15 C 50.25 15.39 53.70 22.03 53.96 28.90 C 54.32 35.80 51.48 42.77 46.42 47.47 C 41.30 52.38 33.89 54.74 26.87 53.78 C 19.05 52.82 11.92 47.68 8.48 40.60 C 5.20 34.04 5.19 25.96 8.47 19.40 C 11.55 13.05 17.60 8.26 24.47 6.65 M 29.15 10.11 C 26.86 11.23 28.42 14.87 30.83 13.88 C 33.15 12.77 31.57 9.13 29.15 10.11 M 19.38 13.19 C 17.80 15.20 21.08 17.75 22.59 15.64 C 24.24 13.66 20.91 11.00 19.38 13.19 M 37.31 13.25 C 35.89 15.31 39.09 17.68 40.62 15.67 C 42.24 13.58 38.81 11.01 37.31 13.25 M 13.26 19.39 C 10.83 20.73 13.96 24.53 15.60 22.51 C 17.89 21.15 15.09 17.75 13.26 19.39 M 32.18 26.37 C 29.24 25.18 26.29 27.01 25.74 30.06 C 23.96 31.56 20.34 32.03 20.67 34.94 C 22.62 37.83 25.64 34.44 27.83 33.63 C 30.77 34.81 33.70 32.97 34.25 29.94 C 38.33 27.32 42.76 25.28 46.77 22.56 C 48.68 21.65 46.98 18.17 45.08 19.21 C 40.62 21.29 36.59 24.19 32.18 26.37 M 11.17 28.09 C 8.89 29.21 10.39 32.88 12.82 31.89 C 15.13 30.78 13.60 27.16 11.17 28.09 M 47.18 28.10 C 44.87 29.18 46.38 32.85 48.80 31.89 C 51.14 30.82 49.61 27.14 47.18 28.10 M 13.31 37.38 C 10.83 38.65 13.85 42.49 15.60 40.52 C 17.82 39.18 15.17 35.73 13.31 37.38 M 44.38 37.46 C 42.29 38.88 44.73 42.16 46.78 40.68 C 49.04 39.15 46.18 35.60 44.38 37.46 Z" />
</g>
</svg>
