<?xml version="1.0" encoding="UTF-8" ?>
<!DOCTYPE svg PUBLIC "-//W3C//DTD SVG 1.1//EN" "http://www.w3.org/Graphics/SVG/1.1/DTD/svg11.dtd">
<svg width="64pt" height="64pt" viewBox="0 0 64 64" version="1.1" xmlns="http://www.w3.org/2000/svg">
<g id="#ffffffff">
<path fill="#ffffff" opacity="1.00" d=" M 0.00 0.00 L 64.00 0.00 L 64.00 64.00 L 0.00 64.00 L 0.00 0.00 M 35.02 6.65 C 33.69 10.46 31.99 14.15 30.92 18.04 C 30.62 21.34 34.09 23.04 35.97 25.21 C 33.94 30.85 31.22 36.64 26.13 40.15 C 23.60 39.69 21.06 39.26 18.54 38.72 C 16.80 35.69 14.94 32.74 13.12 29.76 C 11.98 30.45 10.84 31.13 9.69 31.81 C 11.89 35.14 13.60 38.82 16.14 41.91 C 18.97 43.54 22.47 43.25 25.56 44.17 C 26.09 45.29 26.62 46.41 27.14 47.54 C 24.39 48.78 21.56 49.83 18.65 50.64 C 14.07 48.18 9.50 45.70 4.92 43.25 C 4.32 44.43 3.70 45.61 3.08 46.79 C 7.21 48.97 11.29 51.24 15.40 53.47 C 16.78 54.24 18.42 54.96 20.02 54.37 C 29.74 51.70 39.09 46.21 44.77 37.70 C 46.98 34.56 46.50 29.93 43.73 27.28 C 40.84 24.32 37.79 21.51 34.85 18.60 C 36.14 15.14 37.37 11.65 38.79 8.24 C 37.55 7.67 36.29 7.14 35.02 6.65 M 47.30 12.49 C 43.27 13.83 40.93 18.71 42.49 22.68 C 43.83 26.73 48.74 29.10 52.72 27.49 C 56.72 26.14 59.06 21.30 57.52 17.35 C 56.19 13.29 51.29 10.91 47.30 12.49 Z" />
<path fill="#ffffff" opacity="1.00" d=" M 48.31 16.36 C 50.83 15.06 54.13 17.19 54.01 20.02 C 54.13 23.12 50.18 25.18 47.71 23.29 C 45.20 21.72 45.56 17.48 48.31 16.36 Z" />
<path fill="#ffffff" opacity="1.00" d=" M 39.19 28.24 C 40.91 29.91 43.14 32.20 41.82 34.81 C 39.26 39.35 35.06 42.69 30.76 45.49 C 30.42 44.87 29.73 43.64 29.39 43.02 C 34.15 39.27 36.92 33.72 39.19 28.24 Z" />
</g>
<g id="#000000ff">
<path fill="#000000" opacity="1.00" d=" M 35.02 6.65 C 36.29 7.14 37.55 7.67 38.79 8.24 C 37.37 11.65 36.14 15.14 34.85 18.60 C 37.79 21.51 40.84 24.32 43.73 27.28 C 46.50 29.93 46.98 34.56 44.77 37.70 C 39.09 46.21 29.74 51.70 20.02 54.37 C 18.42 54.96 16.78 54.24 15.40 53.47 C 11.29 51.24 7.21 48.97 3.08 46.79 C 3.70 45.61 4.32 44.43 4.92 43.25 C 9.50 45.70 14.07 48.18 18.65 50.64 C 21.56 49.83 24.39 48.78 27.14 47.54 C 26.62 46.41 26.09 45.29 25.56 44.17 C 22.47 43.25 18.97 43.54 16.14 41.91 C 13.60 38.82 11.89 35.14 9.69 31.81 C 10.84 31.13 11.98 30.45 13.12 29.76 C 14.94 32.74 16.80 35.69 18.54 38.72 C 21.06 39.26 23.60 39.69 26.13 40.15 C 31.22 36.64 33.94 30.85 35.97 25.21 C 34.09 23.04 30.62 21.34 30.92 18.04 C 31.99 14.15 33.69 10.46 35.02 6.65 M 39.19 28.24 C 36.92 33.72 34.15 39.27 29.39 43.02 C 29.73 43.64 30.42 44.87 30.76 45.49 C 35.06 42.69 39.26 39.35 41.82 34.81 C 43.14 32.20 40.91 29.91 39.19 28.24 Z" />
<path fill="#000000" opacity="1.00" d=" M 47.30 12.49 C 51.29 10.91 56.19 13.29 57.52 17.35 C 59.06 21.30 56.72 26.14 52.72 27.49 C 48.74 29.10 43.83 26.73 42.49 22.68 C 40.93 18.71 43.27 13.83 47.30 12.49 M 48.31 16.36 C 45.56 17.48 45.20 21.72 47.71 23.29 C 50.18 25.18 54.13 23.12 54.01 20.02 C 54.13 17.19 50.83 15.06 48.31 16.36 Z" />
</g>
</svg>
