<?xml version="1.0" encoding="UTF-8" ?>
<!DOCTYPE svg PUBLIC "-//W3C//DTD SVG 1.1//EN" "http://www.w3.org/Graphics/SVG/1.1/DTD/svg11.dtd">
<svg width="60pt" height="60pt" viewBox="0 0 60 60" version="1.1" xmlns="http://www.w3.org/2000/svg">
<g id="#ffffffff">
<path fill="#ffffff" opacity="1.00" d=" M 0.00 0.00 L 60.00 0.00 L 60.00 60.00 L 0.00 60.00 L 0.00 0.00 M 41.34 9.33 C 31.87 7.19 21.51 7.43 12.62 11.59 C 9.40 13.18 6.08 16.00 6.04 19.89 C 5.96 26.61 5.96 33.34 6.04 40.06 C 6.20 45.42 11.68 48.13 15.97 49.93 C 16.04 44.61 15.98 39.29 15.99 33.97 C 16.13 32.66 15.63 30.80 17.20 30.16 C 18.38 29.57 20.11 30.58 19.93 31.95 C 20.12 38.30 19.94 44.65 20.00 50.99 C 26.60 52.26 33.40 52.26 40.00 50.99 C 40.06 44.64 39.88 38.29 40.07 31.95 C 39.88 29.85 43.12 29.27 43.83 31.18 C 44.25 37.41 43.86 43.67 44.02 49.91 C 48.35 48.22 53.74 45.40 53.95 40.11 C 54.04 33.38 54.05 26.64 53.95 19.92 C 54.02 17.23 52.13 15.19 50.40 13.40 C 49.07 14.10 47.74 14.79 46.41 15.47 C 47.94 16.87 50.50 18.33 49.88 20.79 C 48.48 23.78 45.14 25.10 42.23 26.16 C 34.32 28.60 25.63 28.60 17.73 26.15 C 14.82 25.10 11.45 23.76 10.10 20.74 C 9.55 18.41 11.85 16.77 13.56 15.68 C 20.29 12.00 28.30 11.61 35.79 12.35 C 33.31 13.74 30.83 15.13 28.30 16.43 C 26.38 15.88 23.93 15.79 22.75 17.73 C 20.73 20.16 22.96 24.16 26.02 23.98 C 28.30 24.12 29.61 21.94 30.23 20.04 C 36.34 16.49 42.67 13.33 48.79 9.80 C 50.82 9.10 50.10 5.79 47.94 5.98 C 45.62 6.82 43.53 8.20 41.34 9.33 Z" />
</g>
<g id="#000000ff">
<path fill="#000000" opacity="1.00" d=" M 41.34 9.33 C 43.53 8.20 45.62 6.82 47.94 5.98 C 50.10 5.79 50.82 9.10 48.79 9.80 C 42.67 13.33 36.34 16.49 30.23 20.04 C 29.61 21.94 28.30 24.12 26.02 23.98 C 22.96 24.16 20.73 20.16 22.75 17.73 C 23.93 15.79 26.38 15.88 28.30 16.43 C 30.83 15.13 33.31 13.74 35.79 12.35 C 28.30 11.61 20.29 12.00 13.56 15.68 C 11.85 16.77 9.55 18.41 10.10 20.74 C 11.45 23.76 14.82 25.10 17.73 26.15 C 25.63 28.60 34.32 28.60 42.23 26.16 C 45.14 25.10 48.48 23.78 49.88 20.79 C 50.50 18.33 47.94 16.87 46.41 15.47 C 47.74 14.79 49.07 14.10 50.40 13.40 C 52.13 15.19 54.02 17.23 53.95 19.92 C 54.05 26.64 54.04 33.38 53.95 40.11 C 53.74 45.40 48.35 48.22 44.02 49.91 C 43.86 43.67 44.25 37.41 43.83 31.18 C 43.12 29.27 39.88 29.85 40.07 31.95 C 39.88 38.29 40.06 44.64 40.00 50.99 C 33.40 52.26 26.60 52.26 20.00 50.99 C 19.94 44.65 20.12 38.30 19.93 31.95 C 20.11 30.58 18.38 29.57 17.20 30.16 C 15.63 30.80 16.13 32.66 15.99 33.97 C 15.98 39.29 16.04 44.61 15.97 49.93 C 11.68 48.13 6.20 45.42 6.04 40.06 C 5.96 33.34 5.96 26.61 6.04 19.89 C 6.08 16.00 9.40 13.18 12.62 11.59 C 21.51 7.43 31.87 7.19 41.34 9.33 Z" />
</g>
</svg>
