<?xml version="1.0" encoding="UTF-8" ?>
<!DOCTYPE svg PUBLIC "-//W3C//DTD SVG 1.1//EN" "http://www.w3.org/Graphics/SVG/1.1/DTD/svg11.dtd">
<svg width="60pt" height="60pt" viewBox="0 0 60 60" version="1.1" xmlns="http://www.w3.org/2000/svg">
<g id="#ffffffff">
<path fill="#ffffff" opacity="1.00" d=" M 0.00 0.00 L 60.00 0.00 L 60.00 60.00 L 0.00 60.00 L 0.00 0.00 M 21.26 6.21 C 16.84 9.05 12.68 12.29 8.37 15.29 C 7.38 16.15 5.25 17.08 6.23 18.73 C 8.31 21.96 10.61 25.10 13.23 27.92 C 14.17 27.79 15.10 27.62 16.02 27.40 C 15.98 34.60 16.01 41.80 15.99 49.00 C 16.13 50.45 15.67 52.13 16.55 53.40 C 17.71 54.71 20.09 53.74 19.94 51.98 C 20.11 46.66 19.94 41.33 20.00 36.00 C 21.34 36.00 22.67 36.00 24.01 36.00 C 24.03 40.03 23.91 44.06 24.05 48.09 C 23.96 51.19 26.75 53.99 29.85 53.94 C 34.18 54.02 38.53 54.18 42.85 53.83 C 43.09 53.58 43.58 53.09 43.82 52.84 C 44.23 44.38 43.90 35.88 43.98 27.40 C 44.90 27.61 45.82 27.78 46.76 27.93 C 49.51 24.90 52.15 21.64 54.07 18.01 C 52.47 14.83 48.56 13.45 45.90 11.17 C 42.73 9.32 40.08 5.64 36.07 5.99 C 31.14 6.10 26.16 5.73 21.26 6.21 Z" />
<path fill="#ffffff" opacity="1.00" d=" M 27.04 10.00 C 29.05 10.00 31.07 9.99 33.09 10.00 C 32.13 12.48 31.18 14.96 30.23 17.44 C 29.16 14.96 28.11 12.48 27.04 10.00 Z" />
<path fill="#ffffff" opacity="1.00" d=" M 10.83 18.43 C 14.78 15.62 18.74 12.82 22.67 9.99 C 24.50 14.26 26.34 18.53 28.16 22.80 C 27.00 25.87 25.79 28.92 24.64 31.99 C 23.09 32.00 21.54 32.00 19.99 32.00 C 19.93 28.70 20.21 25.37 19.83 22.08 C 18.27 19.64 15.96 22.19 14.30 23.10 C 13.15 21.54 11.99 19.99 10.83 18.43 Z" />
<path fill="#ffffff" opacity="1.00" d=" M 28.91 32.00 C 31.73 24.66 34.55 17.32 37.38 9.99 C 41.32 12.79 45.24 15.62 49.17 18.44 C 48.02 20.00 46.86 21.55 45.70 23.09 C 44.03 22.19 41.64 19.57 40.16 22.15 C 39.79 25.42 40.07 28.72 40.00 32.00 C 36.31 32.00 32.61 32.00 28.91 32.00 Z" />
<path fill="#ffffff" opacity="1.00" d=" M 28.01 36.00 C 32.01 36.00 36.00 36.00 40.00 36.00 C 40.00 40.66 40.00 45.32 40.00 49.99 C 36.38 49.94 32.73 50.21 29.12 49.82 C 28.89 49.59 28.41 49.12 28.18 48.89 C 27.78 44.61 28.08 40.29 28.01 36.00 Z" />
</g>
<g id="#000000ff">
<path fill="#000000" opacity="1.00" d=" M 21.26 6.21 C 26.16 5.73 31.14 6.10 36.07 5.99 C 40.08 5.64 42.73 9.32 45.90 11.17 C 48.56 13.45 52.47 14.83 54.07 18.01 C 52.15 21.64 49.51 24.90 46.76 27.93 C 45.82 27.78 44.90 27.61 43.98 27.40 C 43.90 35.88 44.23 44.38 43.82 52.84 C 43.58 53.09 43.09 53.58 42.85 53.83 C 38.53 54.18 34.18 54.02 29.85 53.94 C 26.75 53.99 23.96 51.19 24.05 48.09 C 23.91 44.06 24.03 40.03 24.01 36.00 C 22.67 36.00 21.34 36.00 20.00 36.00 C 19.94 41.33 20.11 46.66 19.94 51.98 C 20.09 53.74 17.71 54.71 16.55 53.40 C 15.67 52.13 16.13 50.45 15.99 49.00 C 16.01 41.80 15.98 34.60 16.02 27.40 C 15.10 27.62 14.17 27.79 13.23 27.92 C 10.61 25.10 8.31 21.96 6.23 18.73 C 5.25 17.08 7.38 16.15 8.37 15.29 C 12.68 12.29 16.84 9.05 21.26 6.21 M 27.04 10.00 C 28.11 12.48 29.16 14.96 30.23 17.44 C 31.18 14.96 32.13 12.48 33.09 10.00 C 31.07 9.99 29.05 10.00 27.04 10.00 M 10.83 18.43 C 11.99 19.99 13.15 21.54 14.30 23.10 C 15.96 22.19 18.27 19.64 19.83 22.08 C 20.21 25.37 19.93 28.70 19.99 32.00 C 21.54 32.00 23.09 32.00 24.64 31.99 C 25.79 28.92 27.00 25.87 28.16 22.80 C 26.34 18.53 24.50 14.26 22.67 9.99 C 18.74 12.82 14.78 15.62 10.83 18.43 M 28.91 32.00 C 32.61 32.00 36.31 32.00 40.00 32.00 C 40.07 28.72 39.79 25.42 40.16 22.15 C 41.64 19.57 44.03 22.19 45.70 23.09 C 46.86 21.55 48.02 20.00 49.17 18.44 C 45.24 15.62 41.32 12.79 37.38 9.99 C 34.55 17.32 31.73 24.66 28.91 32.00 M 28.01 36.00 C 28.08 40.29 27.78 44.61 28.18 48.89 C 28.41 49.12 28.89 49.59 29.12 49.82 C 32.73 50.21 36.38 49.94 40.00 49.99 C 40.00 45.32 40.00 40.66 40.00 36.00 C 36.00 36.00 32.01 36.00 28.01 36.00 Z" />
</g>
</svg>
