<?xml version="1.0" encoding="UTF-8" ?>
<!DOCTYPE svg PUBLIC "-//W3C//DTD SVG 1.1//EN" "http://www.w3.org/Graphics/SVG/1.1/DTD/svg11.dtd">
<svg width="60pt" height="60pt" viewBox="0 0 60 60" version="1.1" xmlns="http://www.w3.org/2000/svg">
<g id="#ffffffff">
<path fill="#ffffff" opacity="1.00" d=" M 0.00 0.00 L 60.00 0.00 L 60.00 60.00 L 0.00 60.00 L 0.00 0.00 M 7.32 7.97 C 6.26 15.26 6.05 22.64 6.02 30.00 C 5.93 38.00 10.23 45.83 16.97 50.12 C 23.67 54.56 32.66 55.21 39.95 51.81 C 48.32 48.09 54.08 39.22 53.97 30.04 C 53.90 22.43 53.81 14.75 52.50 7.24 C 50.48 4.03 47.71 8.52 46.05 9.93 C 36.20 4.69 23.81 4.73 13.95 9.92 C 12.62 8.61 11.37 7.20 9.87 6.08 C 8.58 5.83 7.32 6.58 7.32 7.97 Z" />
<path fill="#ffffff" opacity="1.00" d=" M 17.10 21.85 C 19.54 24.11 21.89 26.46 24.15 28.89 C 22.04 29.99 19.19 30.65 17.38 28.63 C 15.35 26.82 16.00 23.96 17.10 21.85 Z" />
<path fill="#ffffff" opacity="1.00" d=" M 35.85 28.90 C 38.11 26.46 40.46 24.11 42.90 21.85 C 44.00 23.97 44.64 26.83 42.61 28.64 C 40.79 30.65 37.96 29.98 35.85 28.90 Z" />
<path fill="#ffffff" opacity="1.00" d=" M 10.00 32.07 C 15.20 32.19 20.43 32.88 25.25 34.92 C 28.28 36.28 31.75 36.27 34.78 34.91 C 39.59 32.87 44.81 32.19 49.99 32.07 C 49.15 37.74 46.23 43.18 41.41 46.42 C 34.57 51.32 24.62 51.13 17.96 45.98 C 13.48 42.71 10.82 37.49 10.00 32.07 M 22.98 40.28 C 21.48 41.27 22.05 44.05 23.98 43.90 C 27.99 44.09 32.02 44.10 36.03 43.89 C 38.44 44.11 38.49 39.97 36.09 40.11 C 31.73 39.97 27.31 39.74 22.98 40.28 Z" />
</g>
<g id="#000000ff">
<path fill="#000000" opacity="1.00" d=" M 7.32 7.97 C 7.32 6.58 8.58 5.83 9.87 6.08 C 11.37 7.20 12.62 8.61 13.95 9.92 C 23.81 4.73 36.20 4.69 46.05 9.93 C 47.71 8.52 50.48 4.03 52.50 7.24 C 53.81 14.75 53.90 22.43 53.97 30.04 C 54.08 39.22 48.32 48.09 39.95 51.81 C 32.66 55.21 23.67 54.56 16.97 50.12 C 10.23 45.83 5.93 38.00 6.02 30.00 C 6.05 22.64 6.26 15.26 7.32 7.97 M 17.10 21.85 C 16.00 23.96 15.35 26.82 17.38 28.63 C 19.19 30.65 22.04 29.99 24.15 28.89 C 21.89 26.46 19.54 24.11 17.10 21.85 M 35.85 28.90 C 37.96 29.98 40.79 30.65 42.61 28.64 C 44.64 26.83 44.00 23.97 42.90 21.85 C 40.46 24.11 38.11 26.46 35.85 28.90 M 10.00 32.07 C 10.82 37.49 13.48 42.71 17.96 45.98 C 24.62 51.13 34.57 51.32 41.41 46.42 C 46.23 43.18 49.15 37.74 49.99 32.07 C 44.81 32.19 39.59 32.87 34.78 34.91 C 31.75 36.27 28.28 36.28 25.25 34.92 C 20.43 32.88 15.20 32.19 10.00 32.07 Z" />
<path fill="#000000" opacity="1.00" d=" M 22.98 40.28 C 27.31 39.74 31.73 39.97 36.09 40.11 C 38.49 39.97 38.44 44.11 36.03 43.89 C 32.02 44.10 27.99 44.09 23.98 43.90 C 22.05 44.05 21.48 41.27 22.98 40.28 Z" />
</g>
</svg>
