<?xml version="1.0" encoding="UTF-8" ?>
<!DOCTYPE svg PUBLIC "-//W3C//DTD SVG 1.1//EN" "http://www.w3.org/Graphics/SVG/1.1/DTD/svg11.dtd">
<svg width="60pt" height="60pt" viewBox="0 0 60 60" version="1.1" xmlns="http://www.w3.org/2000/svg">
<g id="#ffffffff">
<path fill="#ffffff" opacity="1.00" d=" M 0.00 0.00 L 60.00 0.00 L 60.00 60.00 L 0.00 60.00 L 0.00 0.00 M 25.11 4.18 C 23.79 4.98 24.14 6.73 23.80 8.00 C 21.23 8.02 18.61 7.78 16.08 8.33 C 13.31 9.19 11.74 12.14 12.00 14.94 C 12.04 26.02 11.91 37.11 12.06 48.19 C 12.01 51.28 14.81 54.00 17.89 53.94 C 25.96 54.05 34.04 54.05 42.11 53.94 C 45.21 54.01 47.99 51.24 47.94 48.14 C 48.09 37.06 47.97 25.98 48.00 14.90 C 48.24 12.11 46.66 9.18 43.90 8.32 C 41.37 7.78 38.76 8.02 36.20 8.00 C 35.85 6.73 36.23 4.91 34.82 4.18 C 31.60 3.84 28.33 3.85 25.11 4.18 Z" />
<path fill="#ffffff" opacity="1.00" d=" M 16.17 13.17 C 17.10 11.39 19.39 12.22 20.99 11.98 C 28.28 12.15 35.60 11.74 42.88 12.18 C 45.17 14.69 43.54 18.84 43.99 22.00 C 37.70 22.12 31.39 21.75 25.12 22.17 C 24.88 22.43 24.41 22.95 24.17 23.21 C 23.68 30.78 24.25 38.39 23.93 45.97 C 24.16 48.08 20.94 48.78 20.19 46.84 C 19.60 38.96 20.40 31.02 19.82 23.14 C 19.04 21.79 17.28 22.15 16.00 21.80 C 16.01 18.92 15.83 16.03 16.17 13.17 Z" />
</g>
<g id="#000000ff">
<path fill="#000000" opacity="1.00" d=" M 25.11 4.18 C 28.33 3.85 31.60 3.84 34.82 4.18 C 36.23 4.91 35.85 6.73 36.20 8.00 C 38.76 8.02 41.37 7.78 43.90 8.32 C 46.66 9.18 48.24 12.11 48.00 14.90 C 47.97 25.98 48.09 37.06 47.94 48.14 C 47.99 51.24 45.21 54.01 42.11 53.94 C 34.04 54.05 25.96 54.05 17.89 53.94 C 14.81 54.00 12.01 51.28 12.06 48.19 C 11.91 37.11 12.04 26.02 12.00 14.94 C 11.74 12.14 13.31 9.19 16.08 8.33 C 18.61 7.78 21.23 8.02 23.80 8.00 C 24.14 6.73 23.79 4.98 25.11 4.18 M 16.17 13.17 C 15.83 16.03 16.01 18.92 16.00 21.80 C 17.28 22.15 19.04 21.79 19.82 23.14 C 20.40 31.02 19.60 38.96 20.19 46.84 C 20.94 48.78 24.16 48.08 23.93 45.97 C 24.25 38.39 23.68 30.78 24.17 23.21 C 24.41 22.95 24.88 22.43 25.12 22.17 C 31.39 21.75 37.70 22.12 43.99 22.00 C 43.54 18.84 45.17 14.69 42.88 12.18 C 35.60 11.74 28.28 12.15 20.99 11.98 C 19.39 12.22 17.10 11.39 16.17 13.17 Z" />
</g>
</svg>
