<?xml version="1.0" encoding="UTF-8" ?>
<!DOCTYPE svg PUBLIC "-//W3C//DTD SVG 1.1//EN" "http://www.w3.org/Graphics/SVG/1.1/DTD/svg11.dtd">
<svg width="64pt" height="64pt" viewBox="0 0 64 64" version="1.1" xmlns="http://www.w3.org/2000/svg">
<g id="#ffffffff">
<path fill="#ffffff" opacity="1.00" d=" M 0.00 0.00 L 64.00 0.00 L 64.00 64.00 L 0.00 64.00 L 0.00 0.00 M 10.00 6.00 C 10.00 23.33 10.00 40.67 10.00 58.00 C 18.42 58.00 26.84 57.99 35.25 58.01 C 35.73 56.67 36.22 55.34 36.72 54.01 C 29.15 53.99 21.57 54.00 14.00 54.00 C 14.00 39.33 14.00 24.67 14.00 10.00 C 23.33 10.00 32.67 10.00 42.00 10.00 C 42.00 15.34 42.00 20.67 42.00 26.01 C 43.35 27.33 44.71 28.66 46.05 30.01 C 47.36 30.00 48.68 30.00 49.99 30.01 C 51.34 28.67 52.67 27.32 54.01 25.98 C 53.99 19.32 54.01 12.66 54.00 6.00 C 39.33 6.00 24.67 6.00 10.00 6.00 M 45.07 42.00 C 47.02 41.99 48.98 42.00 50.93 42.00 C 49.97 39.56 48.99 37.13 48.00 34.70 C 47.02 37.13 46.03 39.56 45.07 42.00 M 32.01 46.00 C 37.35 49.64 42.68 53.31 47.99 57.00 C 53.27 53.37 58.63 49.86 63.77 46.04 C 53.18 45.95 42.59 46.03 32.01 46.00 M 37.56 63.59 C 39.98 62.41 42.21 60.91 44.42 59.38 C 42.98 58.39 41.54 57.40 40.10 56.41 C 39.21 58.79 38.34 61.17 37.56 63.59 M 51.39 59.45 C 53.80 60.74 56.02 62.34 58.45 63.58 C 57.68 61.17 56.78 58.80 55.89 56.43 C 54.42 57.48 52.92 58.49 51.39 59.45 Z" />
<path fill="#ffffff" opacity="1.00" d=" M 46.00 10.00 C 47.33 10.00 48.67 10.00 50.00 10.00 C 49.97 14.38 50.04 18.76 50.00 23.15 C 50.28 24.64 48.78 25.43 48.01 26.43 C 47.29 25.40 45.69 24.67 46.00 23.18 C 45.97 18.78 46.02 14.39 46.00 10.00 Z" />
</g>
<g id="#000000ff">
<path fill="#000000" opacity="1.00" d=" M 10.00 6.00 C 24.67 6.00 39.33 6.00 54.00 6.00 C 54.01 12.66 53.99 19.32 54.01 25.98 C 52.67 27.32 51.34 28.67 49.99 30.01 C 48.68 30.00 47.36 30.00 46.05 30.01 C 44.71 28.66 43.35 27.33 42.00 26.01 C 42.00 20.67 42.00 15.34 42.00 10.00 C 32.67 10.00 23.33 10.00 14.00 10.00 C 14.00 24.67 14.00 39.33 14.00 54.00 C 21.57 54.00 29.15 53.99 36.72 54.01 C 36.22 55.34 35.73 56.67 35.25 58.01 C 26.84 57.99 18.42 58.00 10.00 58.00 C 10.00 40.67 10.00 23.33 10.00 6.00 M 46.00 10.00 C 46.02 14.39 45.97 18.78 46.00 23.18 C 45.69 24.67 47.29 25.40 48.01 26.43 C 48.78 25.43 50.28 24.64 50.00 23.15 C 50.04 18.76 49.97 14.38 50.00 10.00 C 48.67 10.00 47.33 10.00 46.00 10.00 Z" />
<path fill="#000000" opacity="1.00" d=" M 45.07 42.00 C 46.03 39.56 47.02 37.13 48.00 34.70 C 48.99 37.13 49.97 39.56 50.93 42.00 C 48.98 42.00 47.02 41.99 45.07 42.00 Z" />
<path fill="#000000" opacity="1.00" d=" M 32.01 46.00 C 42.59 46.03 53.18 45.95 63.77 46.04 C 58.63 49.86 53.27 53.37 47.99 57.00 C 42.68 53.31 37.35 49.64 32.01 46.00 Z" />
<path fill="#000000" opacity="1.00" d=" M 37.56 63.59 C 38.34 61.17 39.21 58.79 40.10 56.41 C 41.54 57.40 42.98 58.39 44.42 59.38 C 42.21 60.91 39.98 62.41 37.56 63.59 Z" />
<path fill="#000000" opacity="1.00" d=" M 51.39 59.45 C 52.92 58.49 54.42 57.48 55.89 56.43 C 56.78 58.80 57.68 61.17 58.45 63.58 C 56.02 62.34 53.80 60.74 51.39 59.45 Z" />
</g>
</svg>
