<?xml version="1.0" encoding="UTF-8" ?>
<!DOCTYPE svg PUBLIC "-//W3C//DTD SVG 1.1//EN" "http://www.w3.org/Graphics/SVG/1.1/DTD/svg11.dtd">
<svg width="60pt" height="60pt" viewBox="0 0 60 60" version="1.1" xmlns="http://www.w3.org/2000/svg">
<g id="#ffffffff">
<path fill="#ffffff" opacity="1.00" d=" M 0.00 0.00 L 60.00 0.00 L 60.00 60.00 L 0.00 60.00 L 0.00 0.00 M 19.14 6.16 C 16.10 9.20 16.16 14.02 16.03 18.04 C 15.79 25.30 22.04 30.75 21.98 37.96 C 22.33 42.42 20.33 46.58 20.01 50.97 C 19.74 52.30 20.42 54.12 22.04 53.94 C 27.65 53.99 33.28 54.18 38.87 53.83 C 39.12 53.59 39.60 53.11 39.84 52.87 C 40.50 47.80 37.50 43.06 38.02 37.95 C 37.95 30.74 44.22 25.30 43.97 18.04 C 43.81 14.04 43.92 9.13 40.81 6.16 C 33.60 5.89 26.35 5.88 19.14 6.16 Z" />
<path fill="#ffffff" opacity="1.00" d=" M 21.02 10.01 C 26.99 10.00 32.96 9.99 38.93 10.02 C 39.24 11.34 39.53 12.66 39.81 13.99 C 34.59 14.01 29.38 13.99 24.17 14.00 C 24.06 16.86 23.81 19.82 24.76 22.58 C 26.24 27.08 29.32 31.02 29.82 35.84 C 30.26 40.24 29.68 44.78 28.07 48.89 C 27.55 50.81 24.23 50.04 24.63 48.05 C 25.24 43.68 26.57 39.29 25.71 34.86 C 25.02 30.34 22.33 26.54 20.78 22.33 C 19.40 18.34 20.10 14.02 21.02 10.01 Z" />
</g>
<g id="#000000ff">
<path fill="#000000" opacity="1.00" d=" M 19.14 6.16 C 26.35 5.88 33.60 5.89 40.81 6.16 C 43.92 9.13 43.81 14.04 43.97 18.04 C 44.22 25.30 37.95 30.74 38.02 37.95 C 37.50 43.06 40.50 47.80 39.84 52.87 C 39.60 53.11 39.12 53.59 38.87 53.83 C 33.28 54.18 27.65 53.99 22.04 53.94 C 20.42 54.12 19.74 52.30 20.01 50.97 C 20.33 46.58 22.33 42.42 21.98 37.96 C 22.04 30.75 15.79 25.30 16.03 18.04 C 16.16 14.02 16.10 9.20 19.14 6.16 M 21.02 10.01 C 20.10 14.02 19.40 18.34 20.78 22.33 C 22.33 26.54 25.02 30.34 25.71 34.86 C 26.57 39.29 25.24 43.68 24.63 48.05 C 24.23 50.04 27.55 50.81 28.07 48.89 C 29.68 44.78 30.26 40.24 29.82 35.84 C 29.32 31.02 26.24 27.08 24.76 22.58 C 23.81 19.82 24.06 16.86 24.17 14.00 C 29.38 13.99 34.59 14.01 39.81 13.99 C 39.53 12.66 39.24 11.34 38.93 10.02 C 32.96 9.99 26.99 10.00 21.02 10.01 Z" />
</g>
</svg>
