<?xml version="1.0" encoding="UTF-8" ?>
<!DOCTYPE svg PUBLIC "-//W3C//DTD SVG 1.1//EN" "http://www.w3.org/Graphics/SVG/1.1/DTD/svg11.dtd">
<svg width="60pt" height="60pt" viewBox="0 0 60 60" version="1.1" xmlns="http://www.w3.org/2000/svg">
<g id="#ffffffff">
<path fill="#ffffff" opacity="1.00" d=" M 0.00 0.00 L 60.00 0.00 L 60.00 23.24 C 59.27 18.37 54.05 17.53 49.99 17.89 C 49.85 14.03 50.45 10.08 49.59 6.29 C 48.44 3.71 45.31 3.98 42.97 3.97 C 33.28 4.10 23.58 3.86 13.89 4.08 C 11.34 3.94 9.72 6.53 10.01 8.86 C 9.99 22.28 9.99 35.70 10.01 49.12 C 9.61 52.54 12.30 56.03 15.87 55.93 C 24.94 56.11 34.02 55.97 43.09 55.99 C 45.89 56.22 48.87 54.66 49.67 51.85 C 50.28 48.64 49.95 45.35 49.98 42.11 C 53.98 42.43 58.96 41.69 60.00 37.05 L 60.00 60.00 L 0.00 60.00 L 0.00 0.00 Z" />
<path fill="#ffffff" opacity="1.00" d=" M 14.00 8.00 C 24.67 8.00 35.33 8.00 46.00 8.00 C 46.00 10.00 46.00 12.00 46.00 14.00 C 35.33 14.00 24.67 14.00 14.00 14.00 C 14.00 12.00 14.00 10.00 14.00 8.00 Z" />
<path fill="#ffffff" opacity="1.00" d=" M 22.33 18.39 C 24.81 17.01 28.10 19.24 27.99 22.00 C 28.10 25.03 24.17 27.23 21.74 25.26 C 19.15 23.71 19.61 19.53 22.33 18.39 Z" />
<path fill="#ffffff" opacity="1.00" d=" M 34.36 18.37 C 36.84 17.05 40.06 19.23 39.99 21.96 C 40.14 25.00 36.21 27.22 33.76 25.28 C 31.14 23.73 31.61 19.50 34.36 18.37 Z" />
<path fill="#ffffff" opacity="1.00" d=" M 14.14 18.16 C 16.41 20.40 16.39 23.60 14.14 25.84 C 13.96 23.28 13.96 20.72 14.14 18.16 Z" />
<path fill="#ffffff" opacity="1.00" d=" M 45.86 25.84 C 43.59 23.60 43.58 20.39 45.86 18.16 C 46.04 20.72 46.04 23.28 45.86 25.84 Z" />
<path fill="#ffffff" opacity="1.00" d=" M 50.00 21.94 C 51.90 22.28 54.64 21.21 55.83 23.18 C 56.12 27.74 56.14 32.36 55.81 36.92 C 54.48 38.69 51.90 37.76 50.00 38.06 C 50.00 32.69 50.00 27.31 50.00 21.94 Z" />
<path fill="#ffffff" opacity="1.00" d=" M 16.32 30.39 C 18.80 29.01 22.08 31.22 21.99 33.98 C 22.12 37.06 18.08 39.27 15.66 37.20 C 13.15 35.62 13.64 31.52 16.32 30.39 Z" />
<path fill="#ffffff" opacity="1.00" d=" M 28.34 30.39 C 30.80 29.03 34.04 31.21 33.99 33.93 C 34.16 36.99 30.19 39.24 27.74 37.26 C 25.15 35.71 25.61 31.52 28.34 30.39 Z" />
<path fill="#ffffff" opacity="1.00" d=" M 40.39 30.35 C 43.51 28.69 47.30 32.56 45.62 35.64 C 44.56 38.11 41.00 38.83 39.17 36.80 C 37.13 34.98 37.93 31.37 40.39 30.35 Z" />
<path fill="#ffffff" opacity="1.00" d=" M 22.33 40.39 C 24.80 39.02 28.07 41.22 27.99 43.97 C 28.13 47.01 24.17 49.24 21.73 47.25 C 19.15 45.71 19.61 41.53 22.33 40.39 Z" />
<path fill="#ffffff" opacity="1.00" d=" M 34.39 40.35 C 36.88 39.05 40.11 41.28 39.99 44.02 C 40.08 47.03 36.19 49.21 33.76 47.28 C 31.13 45.72 31.62 41.47 34.39 40.35 Z" />
<path fill="#ffffff" opacity="1.00" d=" M 14.14 40.16 C 16.41 42.40 16.39 45.60 14.14 47.84 C 13.96 45.28 13.96 42.71 14.14 40.16 Z" />
<path fill="#ffffff" opacity="1.00" d=" M 45.86 47.84 C 43.59 45.60 43.59 42.40 45.86 40.16 C 46.04 42.72 46.04 45.28 45.86 47.84 Z" />
</g>
<g id="#000000ff">
<path fill="#000000" opacity="1.00" d=" M 10.01 8.86 C 9.72 6.53 11.34 3.94 13.89 4.08 C 23.58 3.86 33.28 4.10 42.97 3.97 C 45.31 3.98 48.44 3.71 49.59 6.29 C 50.45 10.08 49.85 14.03 49.99 17.89 C 54.05 17.53 59.27 18.37 60.00 23.24 L 60.00 37.05 C 58.96 41.69 53.98 42.43 49.98 42.11 C 49.95 45.35 50.28 48.64 49.67 51.85 C 48.87 54.66 45.89 56.22 43.09 55.99 C 34.02 55.97 24.94 56.11 15.87 55.93 C 12.30 56.03 9.61 52.54 10.01 49.12 C 9.99 35.70 9.99 22.28 10.01 8.86 M 14.00 8.00 C 14.00 10.00 14.00 12.00 14.00 14.00 C 24.67 14.00 35.33 14.00 46.00 14.00 C 46.00 12.00 46.00 10.00 46.00 8.00 C 35.33 8.00 24.67 8.00 14.00 8.00 M 22.33 18.39 C 19.61 19.53 19.15 23.71 21.74 25.26 C 24.17 27.23 28.10 25.03 27.99 22.00 C 28.10 19.24 24.81 17.01 22.33 18.39 M 34.36 18.37 C 31.61 19.50 31.14 23.73 33.76 25.28 C 36.21 27.22 40.14 25.00 39.99 21.96 C 40.06 19.23 36.84 17.05 34.36 18.37 M 14.14 18.16 C 13.96 20.72 13.96 23.28 14.14 25.84 C 16.39 23.60 16.41 20.40 14.14 18.16 M 45.86 25.84 C 46.04 23.28 46.04 20.72 45.86 18.16 C 43.58 20.39 43.59 23.60 45.86 25.84 M 50.00 21.94 C 50.00 27.31 50.00 32.69 50.00 38.06 C 51.90 37.76 54.48 38.69 55.81 36.92 C 56.14 32.36 56.12 27.74 55.83 23.18 C 54.64 21.21 51.90 22.28 50.00 21.94 M 16.32 30.39 C 13.64 31.52 13.15 35.62 15.66 37.20 C 18.08 39.27 22.12 37.06 21.99 33.98 C 22.08 31.22 18.80 29.01 16.32 30.39 M 28.34 30.39 C 25.61 31.52 25.15 35.71 27.74 37.26 C 30.19 39.24 34.16 36.99 33.99 33.93 C 34.04 31.21 30.80 29.03 28.34 30.39 M 40.39 30.35 C 37.93 31.37 37.13 34.98 39.17 36.80 C 41.00 38.83 44.56 38.11 45.62 35.64 C 47.30 32.56 43.51 28.69 40.39 30.35 M 22.33 40.39 C 19.61 41.53 19.15 45.71 21.73 47.25 C 24.17 49.24 28.13 47.01 27.99 43.97 C 28.07 41.22 24.80 39.02 22.33 40.39 M 34.39 40.35 C 31.62 41.47 31.13 45.72 33.76 47.28 C 36.19 49.21 40.08 47.03 39.99 44.02 C 40.11 41.28 36.88 39.05 34.39 40.35 M 14.14 40.16 C 13.96 42.71 13.96 45.28 14.14 47.84 C 16.39 45.60 16.41 42.40 14.14 40.16 M 45.86 47.84 C 46.04 45.28 46.04 42.72 45.86 40.16 C 43.59 42.40 43.59 45.60 45.86 47.84 Z" />
</g>
</svg>
