<?xml version="1.0" encoding="UTF-8" ?>
<!DOCTYPE svg PUBLIC "-//W3C//DTD SVG 1.1//EN" "http://www.w3.org/Graphics/SVG/1.1/DTD/svg11.dtd">
<svg width="60pt" height="60pt" viewBox="0 0 60 60" version="1.1" xmlns="http://www.w3.org/2000/svg">
<g id="#ffffffff">
<path fill="#ffffff" opacity="1.00" d=" M 0.00 0.00 L 60.00 0.00 L 60.00 60.00 L 0.00 60.00 L 0.00 0.00 M 28.37 6.37 C 23.55 8.26 27.07 16.06 31.67 13.60 C 36.40 11.69 32.94 3.99 28.37 6.37 M 8.20 38.80 C 9.14 40.54 11.37 39.80 12.95 40.03 C 25.32 39.88 37.69 40.18 50.05 39.89 C 51.64 40.05 52.14 38.16 51.83 36.94 C 51.10 27.49 45.00 19.08 36.90 14.42 C 35.02 16.27 32.79 18.14 29.96 17.96 C 27.15 18.12 25.00 16.19 23.08 14.43 C 14.55 19.41 7.91 28.66 8.20 38.80 M 7.07 44.17 C 5.38 46.02 5.29 50.14 7.17 51.84 C 21.80 52.20 36.46 51.93 51.10 51.97 C 54.67 52.59 54.15 48.24 53.95 45.99 C 54.04 43.86 51.53 43.96 50.06 43.99 C 35.73 44.13 21.39 43.76 7.07 44.17 Z" />
</g>
<g id="#000000ff">
<path fill="#000000" opacity="1.00" d=" M 28.37 6.37 C 32.94 3.99 36.40 11.69 31.67 13.60 C 27.07 16.06 23.55 8.26 28.37 6.37 Z" />
<path fill="#000000" opacity="1.00" d=" M 8.20 38.80 C 7.91 28.66 14.55 19.41 23.08 14.43 C 25.00 16.19 27.15 18.12 29.96 17.96 C 32.79 18.14 35.02 16.27 36.90 14.42 C 45.00 19.08 51.10 27.49 51.83 36.94 C 52.14 38.16 51.64 40.05 50.05 39.89 C 37.69 40.18 25.32 39.88 12.95 40.03 C 11.37 39.80 9.14 40.54 8.20 38.80 Z" />
<path fill="#000000" opacity="1.00" d=" M 7.07 44.17 C 21.39 43.76 35.73 44.13 50.06 43.99 C 51.53 43.96 54.04 43.86 53.95 45.99 C 54.15 48.24 54.67 52.59 51.10 51.97 C 36.46 51.93 21.80 52.20 7.17 51.84 C 5.29 50.14 5.38 46.02 7.07 44.17 Z" />
</g>
</svg>
