<?xml version="1.0" encoding="UTF-8" ?>
<!DOCTYPE svg PUBLIC "-//W3C//DTD SVG 1.1//EN" "http://www.w3.org/Graphics/SVG/1.1/DTD/svg11.dtd">
<svg width="64pt" height="64pt" viewBox="0 0 64 64" version="1.1" xmlns="http://www.w3.org/2000/svg">
<g id="#ffffffff">
<path fill="#ffffff" opacity="1.00" d=" M 0.00 0.00 L 64.00 0.00 L 64.00 64.00 L 0.00 64.00 L 0.00 0.00 M 23.97 17.63 C 20.84 19.88 17.69 22.23 15.46 25.43 C 11.89 30.19 10.45 36.14 9.99 41.99 C 9.49 41.99 8.50 42.01 8.00 42.01 C 8.00 46.67 8.00 51.34 8.00 56.00 C 24.00 56.00 40.00 56.00 56.00 56.00 C 56.00 51.34 56.00 46.67 56.00 42.01 C 55.50 42.01 54.50 41.99 54.00 41.99 C 53.55 36.61 52.35 31.15 49.31 26.60 C 47.00 22.90 43.54 20.16 40.02 17.69 C 40.66 12.89 37.04 7.84 31.95 8.01 C 26.94 7.90 23.36 12.87 23.97 17.63 Z" />
<path fill="#ffffff" opacity="1.00" d=" M 30.32 12.36 C 32.84 11.07 36.15 13.20 36.00 16.03 C 36.13 19.15 32.12 21.19 29.67 19.26 C 27.19 17.66 27.58 13.46 30.32 12.36 Z" />
<path fill="#ffffff" opacity="1.00" d=" M 13.96 41.98 C 14.30 33.64 18.54 25.59 25.78 21.25 C 29.16 24.72 34.73 24.75 38.14 21.32 C 45.37 25.65 49.69 33.64 50.02 41.98 C 38.00 42.01 25.98 42.01 13.96 41.98 Z" />
<path fill="#ffffff" opacity="1.00" d=" M 12.00 46.00 C 25.33 46.00 38.67 46.00 52.00 46.00 C 51.99 48.00 51.99 50.00 52.00 52.00 C 38.67 52.00 25.33 52.00 12.00 52.00 C 12.01 50.00 12.01 48.00 12.00 46.00 Z" />
</g>
<g id="#000000ff">
<path fill="#000000" opacity="1.00" d=" M 23.97 17.63 C 23.36 12.87 26.94 7.90 31.95 8.01 C 37.04 7.84 40.66 12.89 40.02 17.69 C 43.54 20.16 47.00 22.90 49.31 26.60 C 52.35 31.15 53.55 36.61 54.00 41.99 C 54.50 41.99 55.50 42.01 56.00 42.01 C 56.00 46.67 56.00 51.34 56.00 56.00 C 40.00 56.00 24.00 56.00 8.00 56.00 C 8.00 51.34 8.00 46.67 8.00 42.01 C 8.50 42.01 9.49 41.99 9.99 41.99 C 10.45 36.14 11.89 30.19 15.46 25.43 C 17.69 22.23 20.84 19.88 23.97 17.63 M 30.32 12.36 C 27.58 13.46 27.19 17.66 29.67 19.26 C 32.12 21.19 36.13 19.15 36.00 16.03 C 36.15 13.20 32.84 11.07 30.32 12.36 M 13.96 41.98 C 25.98 42.01 38.00 42.01 50.02 41.98 C 49.69 33.64 45.37 25.65 38.14 21.32 C 34.73 24.75 29.16 24.72 25.78 21.25 C 18.54 25.59 14.30 33.64 13.96 41.98 M 12.00 46.00 C 12.01 48.00 12.01 50.00 12.00 52.00 C 25.33 52.00 38.67 52.00 52.00 52.00 C 51.99 50.00 51.99 48.00 52.00 46.00 C 38.67 46.00 25.33 46.00 12.00 46.00 Z" />
</g>
</svg>
