<?xml version="1.0" encoding="UTF-8" ?>
<!DOCTYPE svg PUBLIC "-//W3C//DTD SVG 1.1//EN" "http://www.w3.org/Graphics/SVG/1.1/DTD/svg11.dtd">
<svg width="60pt" height="60pt" viewBox="0 0 60 60" version="1.1" xmlns="http://www.w3.org/2000/svg">
<g id="#ffffffff">
<path fill="#ffffff" opacity="1.00" d=" M 0.00 0.00 L 60.00 0.00 L 60.00 60.00 L 0.00 60.00 L 0.00 0.00 M 5.00 11.99 C 5.75 11.99 7.25 12.00 8.00 12.00 C 8.07 24.68 7.86 37.37 8.09 50.04 C 7.94 52.21 10.58 51.98 12.03 52.01 C 24.02 51.99 36.01 52.01 48.00 52.00 C 48.00 52.75 48.00 54.25 48.01 55.00 C 49.68 53.32 51.34 51.65 53.02 49.99 C 51.35 48.32 49.68 46.64 48.01 44.97 C 48.01 45.73 48.00 47.24 48.00 48.00 C 36.00 48.00 24.00 48.00 12.00 48.00 C 12.00 36.00 12.00 24.00 11.99 12.01 C 12.75 12.00 14.25 12.00 15.00 11.99 C 13.33 10.33 11.66 8.66 10.01 6.98 C 8.35 8.66 6.68 10.32 5.00 11.99 M 19.94 16.00 C 21.23 16.00 22.51 16.00 23.80 16.00 C 24.14 14.72 23.78 12.92 25.17 12.18 C 27.73 11.82 30.34 11.85 32.90 12.19 C 34.18 13.02 33.88 14.73 34.20 16.00 C 35.40 16.00 36.60 16.00 37.80 16.00 C 38.11 14.72 37.83 13.04 39.08 12.19 C 41.67 11.84 44.31 11.83 46.90 12.19 C 48.18 13.02 47.88 14.72 48.20 16.00 C 49.49 16.00 50.78 16.00 52.06 16.00 C 52.21 12.97 52.26 8.01 48.03 8.05 C 39.69 8.03 31.32 7.79 23.00 8.18 C 19.44 9.01 19.99 13.22 19.94 16.00 M 20.00 20.00 C 20.08 26.02 19.87 32.06 20.06 38.08 C 19.96 40.19 21.88 41.98 23.95 41.94 C 31.64 42.09 39.34 41.97 47.03 42.00 C 49.35 42.30 51.97 40.69 51.92 38.17 C 52.15 32.12 51.91 26.06 52.00 20.00 C 41.33 20.00 30.67 20.00 20.00 20.00 Z" />
</g>
<g id="#000000ff">
<path fill="#968176" opacity="1.00" d=" M 5.00 11.99 C 6.68 10.32 8.35 8.66 10.01 6.98 C 11.66 8.66 13.33 10.33 15.00 11.99 C 14.25 12.00 12.75 12.00 11.99 12.01 C 12.00 24.00 12.00 36.00 12.00 48.00 C 24.00 48.00 36.00 48.00 48.00 48.00 C 48.00 47.24 48.01 45.73 48.01 44.97 C 49.68 46.64 51.35 48.32 53.02 49.99 C 51.34 51.65 49.68 53.32 48.01 55.00 C 48.00 54.25 48.00 52.75 48.00 52.00 C 36.01 52.01 24.02 51.99 12.03 52.01 C 10.58 51.98 7.94 52.21 8.09 50.04 C 7.86 37.37 8.07 24.68 8.00 12.00 C 7.25 12.00 5.75 11.99 5.00 11.99 Z" />
<path fill="#968176" opacity="1.00" d=" M 19.94 16.00 C 19.99 13.22 19.44 9.01 23.00 8.18 C 31.32 7.79 39.69 8.03 48.03 8.05 C 52.26 8.01 52.21 12.97 52.06 16.00 C 50.78 16.00 49.49 16.00 48.20 16.00 C 47.88 14.72 48.18 13.02 46.90 12.19 C 44.31 11.83 41.67 11.84 39.08 12.19 C 37.83 13.04 38.11 14.72 37.80 16.00 C 36.60 16.00 35.40 16.00 34.20 16.00 C 33.88 14.73 34.18 13.02 32.90 12.19 C 30.34 11.85 27.73 11.82 25.17 12.18 C 23.78 12.92 24.14 14.72 23.80 16.00 C 22.51 16.00 21.23 16.00 19.94 16.00 Z" />
<path fill="#968176" opacity="1.00" d=" M 20.00 20.00 C 30.67 20.00 41.33 20.00 52.00 20.00 C 51.91 26.06 52.15 32.12 51.92 38.17 C 51.97 40.69 49.35 42.30 47.03 42.00 C 39.34 41.97 31.64 42.09 23.95 41.94 C 21.88 41.98 19.96 40.19 20.06 38.08 C 19.87 32.06 20.08 26.02 20.00 20.00 Z" />
</g>
</svg>
