<?xml version="1.0" encoding="UTF-8" ?>
<!DOCTYPE svg PUBLIC "-//W3C//DTD SVG 1.1//EN" "http://www.w3.org/Graphics/SVG/1.1/DTD/svg11.dtd">
<svg width="64pt" height="64pt" viewBox="0 0 64 64" version="1.1" xmlns="http://www.w3.org/2000/svg">
<g id="#ffffffff">
<path fill="#ffffff" opacity="1.00" d=" M 0.00 0.00 L 64.00 0.00 L 64.00 64.00 L 0.00 64.00 L 0.00 0.00 M 18.02 5.84 C 18.01 7.18 18.00 8.51 18.00 9.85 C 24.26 11.00 29.95 14.96 33.10 20.51 C 31.91 20.97 30.98 20.66 30.32 19.57 C 26.60 14.96 20.76 12.17 14.85 12.02 C 12.10 11.85 9.81 14.40 10.04 17.10 C 10.33 23.66 15.05 29.76 21.26 31.87 C 16.88 37.98 16.74 47.33 22.18 52.83 C 24.90 55.11 27.10 57.95 29.93 60.10 C 29.97 58.76 30.00 57.41 30.03 56.07 C 37.93 54.44 41.14 45.32 39.70 38.12 C 43.61 37.49 46.25 34.06 46.05 30.14 C 49.22 29.85 53.61 28.90 53.94 25.00 C 54.18 19.01 48.12 13.21 42.08 14.17 C 39.57 14.54 37.96 16.64 36.61 18.59 C 32.78 11.84 25.78 6.80 18.02 5.84 M 39.56 10.10 C 39.86 11.38 40.15 12.66 40.44 13.94 C 43.23 13.27 46.03 12.60 48.82 11.93 C 48.58 10.96 48.10 9.02 47.86 8.05 C 45.10 8.75 42.33 9.42 39.56 10.10 Z" />
<path fill="#ffffff" opacity="1.00" d=" M 13.91 15.94 C 19.70 16.06 25.59 18.81 28.55 23.93 C 28.33 25.28 28.12 26.63 27.92 27.98 C 20.49 30.33 13.97 22.92 13.91 15.94 Z" />
<path fill="#ffffff" opacity="1.00" d=" M 41.25 24.77 C 38.35 22.24 41.10 17.43 44.70 17.78 C 44.42 19.22 43.54 20.87 44.58 22.23 C 45.77 24.27 48.40 23.90 50.40 23.87 C 48.52 26.90 43.93 26.34 41.25 24.77 Z" />
<path fill="#ffffff" opacity="1.00" d=" M 32.10 26.08 C 32.43 24.20 34.52 24.11 36.02 23.88 C 37.11 26.63 39.28 28.64 42.01 29.73 C 41.84 31.30 41.93 33.49 39.95 33.90 C 35.71 34.55 31.46 30.32 32.10 26.08 Z" />
<path fill="#ffffff" opacity="1.00" d=" M 25.13 33.27 C 26.44 32.76 27.77 32.28 29.10 31.82 C 30.76 35.13 35.20 36.07 35.92 39.87 C 31.81 38.64 28.20 36.23 25.13 33.27 Z" />
<path fill="#ffffff" opacity="1.00" d=" M 22.94 37.01 C 26.59 40.28 30.85 42.94 35.72 43.89 C 35.68 44.41 35.60 45.46 35.56 45.98 C 30.45 45.99 25.46 43.81 22.16 39.88 C 22.36 39.16 22.75 37.73 22.94 37.01 Z" />
<path fill="#ffffff" opacity="1.00" d=" M 22.44 45.82 C 25.78 48.00 29.54 49.30 33.45 49.97 C 31.81 51.04 30.01 52.49 27.90 51.86 C 24.97 51.24 23.56 48.30 22.44 45.82 Z" />
</g>
<g id="#000000ff">
<path fill="#000000" opacity="1.00" d=" M 18.02 5.84 C 25.78 6.80 32.78 11.84 36.61 18.59 C 37.96 16.64 39.57 14.54 42.08 14.17 C 48.12 13.21 54.18 19.01 53.94 25.00 C 53.61 28.90 49.22 29.85 46.05 30.14 C 46.25 34.06 43.61 37.49 39.70 38.12 C 41.14 45.32 37.93 54.44 30.03 56.07 C 30.00 57.41 29.97 58.76 29.93 60.10 C 27.10 57.95 24.90 55.11 22.18 52.83 C 16.74 47.33 16.88 37.98 21.26 31.87 C 15.05 29.76 10.33 23.66 10.04 17.10 C 9.81 14.40 12.10 11.85 14.85 12.02 C 20.76 12.17 26.60 14.96 30.32 19.57 C 30.98 20.66 31.91 20.97 33.10 20.51 C 29.95 14.96 24.26 11.00 18.00 9.85 C 18.00 8.51 18.01 7.18 18.02 5.84 M 13.91 15.94 C 13.97 22.92 20.49 30.33 27.92 27.98 C 28.12 26.63 28.33 25.28 28.55 23.93 C 25.59 18.81 19.70 16.06 13.91 15.94 M 41.25 24.77 C 43.93 26.34 48.52 26.90 50.40 23.87 C 48.40 23.90 45.77 24.27 44.58 22.23 C 43.54 20.87 44.42 19.22 44.70 17.78 C 41.10 17.43 38.35 22.24 41.25 24.77 M 32.10 26.08 C 31.46 30.32 35.71 34.55 39.95 33.90 C 41.93 33.49 41.84 31.30 42.01 29.73 C 39.28 28.64 37.11 26.63 36.02 23.88 C 34.52 24.11 32.43 24.20 32.10 26.08 M 25.13 33.27 C 28.20 36.23 31.81 38.64 35.92 39.87 C 35.20 36.07 30.76 35.13 29.10 31.82 C 27.77 32.28 26.44 32.76 25.13 33.27 M 22.94 37.01 C 22.75 37.73 22.36 39.16 22.16 39.88 C 25.46 43.81 30.45 45.99 35.56 45.98 C 35.60 45.46 35.68 44.41 35.72 43.89 C 30.85 42.94 26.59 40.28 22.94 37.01 M 22.44 45.82 C 23.56 48.30 24.97 51.24 27.90 51.86 C 30.01 52.49 31.81 51.04 33.45 49.97 C 29.54 49.30 25.78 48.00 22.44 45.82 Z" />
<path fill="#000000" opacity="1.00" d=" M 39.56 10.10 C 42.33 9.42 45.10 8.75 47.86 8.05 C 48.10 9.02 48.58 10.96 48.82 11.93 C 46.03 12.60 43.23 13.27 40.44 13.94 C 40.15 12.66 39.86 11.38 39.56 10.10 Z" />
</g>
</svg>
