<?xml version="1.0" encoding="UTF-8" ?>
<!DOCTYPE svg PUBLIC "-//W3C//DTD SVG 1.1//EN" "http://www.w3.org/Graphics/SVG/1.1/DTD/svg11.dtd">
<svg width="60pt" height="60pt" viewBox="0 0 60 60" version="1.1" xmlns="http://www.w3.org/2000/svg">
<g id="#ffffffff">
<path fill="#ffffff" opacity="1.00" d=" M 0.00 0.00 L 60.00 0.00 L 60.00 60.00 L 0.00 60.00 L 0.00 0.00 M 25.28 7.28 C 19.59 11.93 13.92 16.61 8.21 21.23 C 7.44 22.08 5.83 22.66 6.07 24.07 C 5.82 26.19 8.64 25.92 10.00 26.14 C 10.11 33.08 9.78 40.03 10.15 46.96 C 10.61 49.61 13.62 50.15 15.86 50.11 C 16.09 51.46 15.90 54.20 17.99 53.92 C 20.14 54.22 19.90 51.36 20.15 50.00 C 26.72 50.00 33.28 50.00 39.85 50.00 C 40.09 51.37 39.86 54.24 42.03 53.92 C 44.11 54.18 43.90 51.45 44.14 50.11 C 46.40 50.16 49.26 49.60 49.84 47.01 C 50.23 40.07 49.88 33.10 50.00 26.14 C 51.83 26.20 54.82 25.69 53.83 23.12 C 48.63 18.30 42.86 14.12 37.47 9.50 C 34.97 7.67 32.88 5.18 30.01 3.94 C 28.15 4.59 26.80 6.11 25.28 7.28 Z" />
<path fill="#ffffff" opacity="1.00" d=" M 29.13 12.11 C 31.50 11.12 33.11 14.61 30.93 15.84 C 28.48 16.96 26.83 13.29 29.13 12.11 Z" />
<path fill="#ffffff" opacity="1.00" d=" M 17.10 24.19 C 25.38 23.80 33.71 24.01 42.01 24.07 C 44.57 23.79 44.60 28.17 42.04 27.92 C 34.01 28.06 25.96 28.06 17.93 27.92 C 15.88 28.10 15.31 24.98 17.10 24.19 Z" />
<path fill="#ffffff" opacity="1.00" d=" M 17.13 32.18 C 25.42 31.81 33.76 32.00 42.06 32.08 C 44.57 31.83 44.58 36.17 42.05 35.91 C 34.03 36.07 25.98 36.05 17.96 35.92 C 15.88 36.11 15.28 32.95 17.13 32.18 Z" />
<path fill="#ffffff" opacity="1.00" d=" M 17.07 40.19 C 25.39 39.80 33.76 40.01 42.09 40.08 C 44.59 39.89 44.55 44.15 42.06 43.92 C 34.04 44.07 25.99 44.06 17.97 43.92 C 15.90 44.12 15.29 41.03 17.07 40.19 Z" />
</g>
<g id="#000000ff">
<path fill="#968176" opacity="1.00" d=" M 25.28 7.28 C 26.80 6.11 28.15 4.59 30.01 3.94 C 32.88 5.18 34.97 7.67 37.47 9.50 C 42.86 14.12 48.63 18.30 53.83 23.12 C 54.82 25.69 51.83 26.20 50.00 26.14 C 49.88 33.10 50.23 40.07 49.84 47.01 C 49.26 49.60 46.40 50.16 44.14 50.11 C 43.90 51.45 44.11 54.18 42.03 53.92 C 39.86 54.24 40.09 51.37 39.85 50.00 C 33.28 50.00 26.72 50.00 20.15 50.00 C 19.90 51.36 20.14 54.22 17.99 53.92 C 15.90 54.20 16.09 51.46 15.86 50.11 C 13.62 50.15 10.61 49.61 10.15 46.96 C 9.78 40.03 10.11 33.08 10.00 26.14 C 8.64 25.92 5.82 26.19 6.07 24.07 C 5.83 22.66 7.44 22.08 8.21 21.23 C 13.92 16.61 19.59 11.93 25.28 7.28 M 29.13 12.11 C 26.83 13.29 28.48 16.96 30.93 15.84 C 33.11 14.61 31.50 11.12 29.13 12.11 M 17.10 24.19 C 15.31 24.98 15.88 28.10 17.93 27.92 C 25.96 28.06 34.01 28.06 42.04 27.92 C 44.60 28.17 44.57 23.79 42.01 24.07 C 33.71 24.01 25.38 23.80 17.10 24.19 M 17.13 32.18 C 15.28 32.95 15.88 36.11 17.96 35.92 C 25.98 36.05 34.03 36.07 42.05 35.91 C 44.58 36.17 44.57 31.83 42.06 32.08 C 33.76 32.00 25.42 31.81 17.13 32.18 M 17.07 40.19 C 15.29 41.03 15.90 44.12 17.97 43.92 C 25.99 44.06 34.04 44.07 42.06 43.92 C 44.55 44.15 44.59 39.89 42.09 40.08 C 33.76 40.01 25.39 39.80 17.07 40.19 Z" />
</g>
</svg>
