<?xml version="1.0" encoding="UTF-8" ?>
<!DOCTYPE svg PUBLIC "-//W3C//DTD SVG 1.1//EN" "http://www.w3.org/Graphics/SVG/1.1/DTD/svg11.dtd">
<svg width="60pt" height="60pt" viewBox="0 0 60 60" version="1.1" xmlns="http://www.w3.org/2000/svg">
<g id="#ffffffff">
<path fill="#ffffff" opacity="1.00" d=" M 0.00 0.00 L 60.00 0.00 L 60.00 60.00 L 0.00 60.00 L 0.00 0.00 M 15.79 8.39 C 14.29 8.08 12.65 7.29 11.18 8.17 C 9.78 8.68 9.45 11.22 11.09 11.58 C 13.08 12.01 15.09 12.37 17.05 12.91 C 18.01 11.95 18.92 10.94 19.99 10.10 C 21.50 9.78 22.84 10.77 24.20 11.24 C 25.72 10.81 27.20 9.87 28.83 10.09 C 30.24 10.79 31.48 11.78 32.92 12.41 C 34.31 11.63 35.40 10.28 37.01 9.93 C 38.75 10.38 40.06 12.21 41.99 11.88 C 43.87 11.65 46.59 12.59 47.06 10.00 C 46.14 6.90 42.22 8.71 40.10 6.98 C 37.73 5.30 34.90 6.22 32.61 7.53 C 30.07 5.92 27.08 5.67 24.36 7.01 C 21.43 5.33 18.16 6.19 15.79 8.39 M 10.07 17.97 C 9.87 25.30 10.08 32.65 9.98 39.99 C 10.05 42.84 9.63 46.03 11.41 48.49 C 13.02 50.96 16.02 52.16 18.91 52.00 C 25.63 51.93 32.37 52.17 39.09 51.87 C 43.80 51.43 46.47 46.58 46.11 42.20 C 49.82 41.66 53.52 39.07 53.87 35.08 C 54.08 31.08 54.15 27.04 53.84 23.05 C 53.05 19.56 48.94 19.90 46.18 19.99 C 46.07 19.27 45.84 17.83 45.72 17.11 C 44.68 15.30 41.99 15.93 40.33 16.38 C 36.73 18.21 38.44 22.82 37.92 26.00 C 38.22 28.56 33.82 28.61 34.07 26.03 C 33.40 22.83 35.19 18.76 32.91 16.12 C 27.26 14.96 32.73 24.95 27.12 23.91 C 24.99 21.90 26.98 17.65 23.70 16.37 C 20.19 15.61 16.52 16.10 12.95 16.01 C 11.70 15.84 9.88 16.38 10.07 17.97 Z" />
<path fill="#ffffff" opacity="1.00" d=" M 15.10 22.11 C 16.42 21.67 18.08 22.49 17.93 24.02 C 18.06 30.01 18.06 36.01 17.93 42.00 C 18.20 44.55 13.86 44.62 14.07 42.05 C 14.00 35.76 13.81 29.44 14.18 23.16 C 14.41 22.89 14.87 22.37 15.10 22.11 Z" />
<path fill="#ffffff" opacity="1.00" d=" M 46.00 24.00 C 47.33 24.00 48.66 24.00 50.00 24.00 C 49.93 27.66 50.21 31.34 49.84 34.98 C 49.58 36.92 47.53 37.54 46.07 38.36 C 45.93 33.58 46.02 28.79 46.00 24.00 Z" />
</g>
<g id="#000000ff">
<path fill="#000000" opacity="1.00" d=" M 15.79 8.39 C 18.16 6.19 21.43 5.33 24.36 7.01 C 27.08 5.67 30.07 5.92 32.61 7.53 C 34.90 6.22 37.73 5.30 40.10 6.98 C 42.22 8.71 46.14 6.90 47.06 10.00 C 46.59 12.59 43.87 11.65 41.99 11.88 C 40.06 12.21 38.75 10.38 37.01 9.93 C 35.40 10.28 34.31 11.63 32.92 12.41 C 31.48 11.78 30.24 10.79 28.83 10.09 C 27.20 9.87 25.72 10.81 24.20 11.24 C 22.84 10.77 21.50 9.78 19.99 10.10 C 18.92 10.94 18.01 11.95 17.05 12.91 C 15.09 12.37 13.08 12.01 11.09 11.58 C 9.45 11.22 9.78 8.68 11.18 8.17 C 12.65 7.29 14.29 8.08 15.79 8.39 Z" />
<path fill="#000000" opacity="1.00" d=" M 10.07 17.97 C 9.88 16.38 11.70 15.84 12.95 16.01 C 16.52 16.10 20.19 15.61 23.70 16.37 C 26.98 17.65 24.99 21.90 27.12 23.91 C 32.73 24.95 27.26 14.96 32.91 16.12 C 35.19 18.76 33.40 22.83 34.07 26.03 C 33.82 28.61 38.22 28.56 37.92 26.00 C 38.44 22.82 36.73 18.21 40.33 16.38 C 41.99 15.93 44.68 15.30 45.72 17.11 C 45.84 17.83 46.07 19.27 46.18 19.99 C 48.94 19.90 53.05 19.56 53.84 23.05 C 54.15 27.04 54.08 31.08 53.87 35.08 C 53.52 39.07 49.82 41.66 46.11 42.20 C 46.47 46.58 43.80 51.43 39.09 51.87 C 32.37 52.17 25.63 51.93 18.91 52.00 C 16.02 52.16 13.02 50.96 11.41 48.49 C 9.63 46.03 10.05 42.84 9.98 39.99 C 10.08 32.65 9.87 25.30 10.07 17.97 M 15.10 22.11 C 14.87 22.37 14.41 22.89 14.18 23.16 C 13.81 29.44 14.00 35.76 14.07 42.05 C 13.86 44.62 18.20 44.55 17.93 42.00 C 18.06 36.01 18.06 30.01 17.93 24.02 C 18.08 22.49 16.42 21.67 15.10 22.11 M 46.00 24.00 C 46.02 28.79 45.93 33.58 46.07 38.36 C 47.53 37.54 49.58 36.92 49.84 34.98 C 50.21 31.34 49.93 27.66 50.00 24.00 C 48.66 24.00 47.33 24.00 46.00 24.00 Z" />
</g>
</svg>
