<?xml version="1.0" encoding="UTF-8" ?>
<!DOCTYPE svg PUBLIC "-//W3C//DTD SVG 1.1//EN" "http://www.w3.org/Graphics/SVG/1.1/DTD/svg11.dtd">
<svg width="64pt" height="64pt" viewBox="0 0 64 64" version="1.1" xmlns="http://www.w3.org/2000/svg">
<g id="#ffffffff">
<path fill="#ffffff" opacity="1.00" d=" M 0.00 0.00 L 64.00 0.00 L 64.00 64.00 L 0.00 64.00 L 0.00 0.00 M 29.93 7.99 C 29.91 9.66 29.98 11.36 30.61 12.94 C 31.77 11.26 33.85 10.16 34.26 8.03 C 32.82 8.01 31.37 7.99 29.93 7.99 M 32.05 14.00 C 29.89 16.60 29.94 20.13 29.99 23.32 C 26.38 19.93 20.71 18.93 16.36 21.48 C 10.56 24.34 7.97 32.61 11.96 37.95 C 16.42 43.75 24.47 45.20 28.94 51.00 C 30.22 52.36 29.95 54.30 30.09 56.00 C 31.36 56.00 32.64 56.00 33.91 56.00 C 34.03 54.31 33.84 52.43 34.98 51.01 C 39.50 44.60 48.76 43.64 52.76 36.73 C 56.40 30.16 51.39 21.28 44.15 20.23 C 40.40 19.34 36.77 21.05 33.91 23.33 C 34.08 20.77 33.63 17.70 35.74 15.77 C 37.62 13.69 40.63 13.84 43.10 14.58 C 43.58 13.76 44.54 12.12 45.02 11.30 C 40.75 8.95 34.94 9.97 32.05 14.00 M 23.59 13.54 C 25.16 14.67 26.80 15.71 28.33 16.91 C 28.91 15.66 29.53 14.43 30.18 13.22 C 28.42 11.93 26.58 10.76 24.57 9.88 C 24.32 10.79 23.83 12.62 23.59 13.54 Z" />
<path fill="#ffffff" opacity="1.00" d=" M 14.01 31.97 C 13.84 26.96 19.13 22.86 23.95 24.24 C 26.91 24.86 28.74 27.44 29.97 29.99 C 31.32 29.99 32.68 29.99 34.03 29.99 C 35.26 27.43 37.09 24.85 40.05 24.24 C 44.88 22.87 50.17 26.99 49.98 32.01 C 50.14 35.16 47.43 37.31 45.02 38.81 C 40.38 41.59 35.35 44.06 31.93 48.41 C 28.63 44.43 24.05 41.96 19.68 39.37 C 17.01 37.74 13.86 35.48 14.01 31.97 Z" />
</g>
<g id="#000000ff">
<path fill="#000000" opacity="1.00" d=" M 29.93 7.99 C 31.37 7.99 32.82 8.01 34.26 8.03 C 33.85 10.16 31.77 11.26 30.61 12.94 C 29.98 11.36 29.91 9.66 29.93 7.99 Z" />
<path fill="#000000" opacity="1.00" d=" M 32.05 14.00 C 34.94 9.97 40.75 8.95 45.02 11.30 C 44.54 12.12 43.58 13.76 43.10 14.58 C 40.63 13.84 37.62 13.69 35.74 15.77 C 33.63 17.70 34.08 20.77 33.91 23.33 C 36.77 21.05 40.40 19.34 44.15 20.23 C 51.39 21.28 56.40 30.16 52.76 36.73 C 48.76 43.64 39.50 44.60 34.98 51.01 C 33.84 52.43 34.03 54.31 33.91 56.00 C 32.64 56.00 31.36 56.00 30.09 56.00 C 29.95 54.30 30.22 52.36 28.94 51.00 C 24.47 45.20 16.42 43.75 11.96 37.95 C 7.97 32.61 10.56 24.34 16.36 21.48 C 20.71 18.93 26.38 19.93 29.99 23.32 C 29.94 20.13 29.89 16.60 32.05 14.00 M 14.01 31.97 C 13.86 35.48 17.01 37.74 19.68 39.37 C 24.05 41.96 28.63 44.43 31.93 48.41 C 35.35 44.06 40.38 41.59 45.02 38.81 C 47.43 37.31 50.14 35.16 49.98 32.01 C 50.17 26.99 44.88 22.87 40.05 24.24 C 37.09 24.85 35.26 27.43 34.03 29.99 C 32.68 29.99 31.32 29.99 29.97 29.99 C 28.74 27.44 26.91 24.86 23.95 24.24 C 19.13 22.86 13.84 26.96 14.01 31.97 Z" />
<path fill="#000000" opacity="1.00" d=" M 23.59 13.54 C 23.83 12.62 24.32 10.79 24.57 9.88 C 26.58 10.76 28.42 11.93 30.18 13.22 C 29.53 14.43 28.91 15.66 28.33 16.91 C 26.80 15.71 25.16 14.67 23.59 13.54 Z" />
</g>
</svg>
