<?xml version="1.0" encoding="UTF-8" ?>
<!DOCTYPE svg PUBLIC "-//W3C//DTD SVG 1.1//EN" "http://www.w3.org/Graphics/SVG/1.1/DTD/svg11.dtd">
<svg width="60pt" height="60pt" viewBox="0 0 60 60" version="1.1" xmlns="http://www.w3.org/2000/svg">
<g id="#ffffffff">
<path fill="#ffffff" opacity="1.00" d=" M 0.00 0.00 L 60.00 0.00 L 60.00 60.00 L 0.00 60.00 L 0.00 0.00 M 8.33 8.40 C 6.59 9.16 5.83 11.12 6.00 12.92 C 6.05 25.31 5.89 37.70 6.08 50.08 C 5.93 51.63 7.70 52.15 8.93 51.98 C 22.97 52.01 37.02 52.02 51.07 51.98 C 52.33 52.16 54.10 51.59 53.93 50.02 C 54.11 37.67 53.95 25.32 54.00 12.97 C 54.32 10.63 52.67 7.94 50.10 8.05 C 37.72 7.90 25.33 8.08 12.95 7.97 C 11.41 8.06 9.78 7.80 8.33 8.40 Z" />
<path fill="#ffffff" opacity="1.00" d=" M 10.00 16.00 C 23.33 16.00 36.67 16.00 50.00 16.00 C 50.00 26.67 50.00 37.33 50.00 48.00 C 36.67 48.00 23.33 48.00 10.00 48.00 C 10.00 37.33 10.00 26.67 10.00 16.00 M 26.37 20.60 C 20.49 22.34 16.72 29.04 18.41 34.97 C 19.90 41.38 27.27 45.57 33.53 43.43 C 39.67 41.67 43.50 34.52 41.42 28.45 C 39.65 22.29 32.46 18.46 26.37 20.60 Z" />
<path fill="#ffffff" opacity="1.00" d=" M 25.87 25.00 C 29.08 23.56 33.15 23.66 35.68 26.36 C 38.34 28.90 38.43 32.94 36.99 36.13 C 33.27 32.44 29.53 28.75 25.87 25.00 Z" />
<path fill="#ffffff" opacity="1.00" d=" M 23.00 27.87 C 26.76 31.53 30.45 35.26 34.13 38.99 C 30.92 40.44 26.85 40.34 24.32 37.63 C 21.65 35.11 21.57 31.06 23.00 27.87 Z" />
</g>
<g id="#000000ff">
<path fill="#000000" opacity="1.00" d=" M 8.33 8.40 C 9.78 7.80 11.41 8.06 12.95 7.97 C 25.33 8.08 37.72 7.90 50.10 8.05 C 52.67 7.94 54.32 10.63 54.00 12.97 C 53.95 25.32 54.11 37.67 53.93 50.02 C 54.10 51.59 52.33 52.16 51.07 51.98 C 37.02 52.02 22.97 52.01 8.93 51.98 C 7.70 52.15 5.93 51.63 6.08 50.08 C 5.89 37.70 6.05 25.31 6.00 12.92 C 5.83 11.12 6.59 9.16 8.33 8.40 M 10.00 16.00 C 10.00 26.67 10.00 37.33 10.00 48.00 C 23.33 48.00 36.67 48.00 50.00 48.00 C 50.00 37.33 50.00 26.67 50.00 16.00 C 36.67 16.00 23.33 16.00 10.00 16.00 Z" />
<path fill="#000000" opacity="1.00" d=" M 26.37 20.60 C 32.46 18.46 39.65 22.29 41.42 28.45 C 43.50 34.52 39.67 41.67 33.53 43.43 C 27.27 45.57 19.90 41.38 18.41 34.97 C 16.72 29.04 20.49 22.34 26.37 20.60 M 25.87 25.00 C 29.53 28.75 33.27 32.44 36.99 36.13 C 38.43 32.94 38.34 28.90 35.68 26.36 C 33.15 23.66 29.08 23.56 25.87 25.00 M 23.00 27.87 C 21.57 31.06 21.65 35.11 24.32 37.63 C 26.85 40.34 30.92 40.44 34.13 38.99 C 30.45 35.26 26.76 31.53 23.00 27.87 Z" />
</g>
</svg>
