<?xml version="1.0" encoding="UTF-8" ?>
<!DOCTYPE svg PUBLIC "-//W3C//DTD SVG 1.1//EN" "http://www.w3.org/Graphics/SVG/1.1/DTD/svg11.dtd">
<svg width="60pt" height="60pt" viewBox="0 0 60 60" version="1.1" xmlns="http://www.w3.org/2000/svg">
<g id="#ffffffff">
<path fill="#ffffff" opacity="1.00" d=" M 0.00 0.00 L 60.00 0.00 L 60.00 60.00 L 0.00 60.00 L 0.00 0.00 M 24.15 9.32 C 29.51 11.01 35.33 9.32 40.85 10.17 C 42.37 10.86 42.36 13.17 40.82 13.84 C 35.30 14.67 29.49 12.99 24.13 14.68 C 25.97 15.81 27.46 18.03 29.84 17.97 C 35.28 18.02 40.72 18.06 46.16 17.95 C 49.30 18.00 52.04 15.15 51.99 12.03 C 52.08 8.88 49.30 5.97 46.12 6.04 C 40.67 5.95 35.21 5.97 29.76 6.03 C 27.42 6.01 25.96 8.21 24.15 9.32 M 17.14 10.23 C 15.60 10.84 15.65 13.19 17.16 13.80 C 19.13 14.06 21.13 14.06 23.09 14.35 C 24.27 13.29 24.83 10.91 23.26 9.99 C 21.24 9.81 19.14 9.82 17.14 10.23 M 4.07 17.93 C 4.02 29.55 3.80 41.20 4.18 52.80 C 5.97 55.82 8.88 52.46 8.15 50.00 C 22.72 50.00 37.29 50.00 51.86 50.00 C 52.13 51.34 51.77 53.12 53.21 53.91 C 54.50 54.32 56.07 53.46 55.92 51.98 C 56.06 48.35 56.16 44.70 55.82 41.09 C 55.57 40.85 55.07 40.37 54.82 40.14 C 39.22 39.81 23.60 40.10 8.00 40.00 C 7.94 32.65 8.12 25.30 7.93 17.95 C 8.21 15.40 3.81 15.38 4.07 17.93 M 14.43 26.71 C 11.21 28.45 11.25 33.62 14.50 35.32 C 17.61 37.35 22.13 34.69 22.00 31.01 C 22.17 27.30 17.56 24.61 14.43 26.71 M 26.00 26.00 C 26.00 29.33 26.00 32.67 26.00 36.00 C 35.34 36.00 44.69 36.00 54.03 36.00 C 53.89 33.45 54.47 30.51 52.75 28.35 C 51.46 26.56 49.21 25.89 47.10 26.00 C 40.06 25.98 33.03 26.02 26.00 26.00 Z" />
</g>
<g id="#000000ff">
<path fill="#968176" opacity="1.00" d=" M 24.15 9.32 C 25.96 8.21 27.42 6.01 29.76 6.03 C 35.21 5.97 40.67 5.95 46.12 6.04 C 49.30 5.97 52.08 8.88 51.99 12.03 C 52.04 15.15 49.30 18.00 46.16 17.95 C 40.72 18.06 35.28 18.02 29.84 17.97 C 27.46 18.03 25.97 15.81 24.13 14.68 C 29.49 12.99 35.30 14.67 40.82 13.84 C 42.36 13.17 42.37 10.86 40.85 10.17 C 35.33 9.32 29.51 11.01 24.15 9.32 Z" />
<path fill="#968176" opacity="1.00" d=" M 17.14 10.23 C 19.14 9.82 21.24 9.81 23.26 9.99 C 24.83 10.91 24.27 13.29 23.09 14.35 C 21.13 14.06 19.13 14.06 17.16 13.80 C 15.65 13.19 15.60 10.84 17.14 10.23 Z" />
<path fill="#968176" opacity="1.00" d=" M 4.07 17.93 C 3.81 15.38 8.21 15.40 7.93 17.95 C 8.12 25.30 7.94 32.65 8.00 40.00 C 23.60 40.10 39.22 39.81 54.82 40.14 C 55.07 40.37 55.57 40.85 55.82 41.09 C 56.16 44.70 56.06 48.35 55.92 51.98 C 56.07 53.46 54.50 54.32 53.21 53.91 C 51.77 53.12 52.13 51.34 51.86 50.00 C 37.29 50.00 22.72 50.00 8.15 50.00 C 8.88 52.46 5.97 55.82 4.18 52.80 C 3.80 41.20 4.02 29.55 4.07 17.93 Z" />
<path fill="#968176" opacity="1.00" d=" M 14.43 26.71 C 17.56 24.61 22.17 27.30 22.00 31.01 C 22.13 34.69 17.61 37.35 14.50 35.32 C 11.25 33.62 11.21 28.45 14.43 26.71 Z" />
<path fill="#968176" opacity="1.00" d=" M 26.00 26.00 C 33.03 26.02 40.06 25.98 47.10 26.00 C 49.21 25.89 51.46 26.56 52.75 28.35 C 54.47 30.51 53.89 33.45 54.03 36.00 C 44.69 36.00 35.34 36.00 26.00 36.00 C 26.00 32.67 26.00 29.33 26.00 26.00 Z" />
</g>
</svg>
