<?xml version="1.0" encoding="UTF-8" ?>
<!DOCTYPE svg PUBLIC "-//W3C//DTD SVG 1.1//EN" "http://www.w3.org/Graphics/SVG/1.1/DTD/svg11.dtd">
<svg width="60pt" height="60pt" viewBox="0 0 60 60" version="1.1" xmlns="http://www.w3.org/2000/svg">
<g id="#ffffffff">
<path fill="#ffffff" opacity="1.00" d=" M 0.00 0.00 L 60.00 0.00 L 60.00 60.00 L 0.00 60.00 L 0.00 0.00 M 7.99 13.05 C 7.76 14.46 8.49 15.92 10.02 16.09 C 12.28 15.79 11.83 12.91 12.77 11.41 C 13.77 12.79 13.23 14.41 12.95 15.91 C 11.37 23.57 9.74 31.22 8.25 38.90 C 6.81 45.33 12.32 52.07 18.90 51.97 C 26.31 52.03 33.72 52.03 41.14 51.97 C 47.69 52.04 53.17 45.33 51.74 38.91 C 50.27 31.23 48.62 23.58 47.05 15.92 C 46.77 14.41 46.23 12.79 47.23 11.41 C 47.78 13.28 48.58 17.56 51.40 15.46 C 53.66 12.08 49.87 7.56 46.21 8.12 C 43.68 8.62 41.89 11.40 42.62 13.92 C 44.23 22.61 46.28 31.22 47.83 39.93 C 48.68 43.93 45.22 48.03 41.15 47.95 C 33.73 48.05 26.30 48.04 18.88 47.95 C 14.80 48.06 11.29 43.94 12.17 39.92 C 13.72 31.22 15.76 22.60 17.38 13.91 C 18.19 11.09 15.86 8.12 12.99 7.97 C 10.57 8.49 7.88 10.27 7.99 13.05 M 22.07 8.10 C 22.02 10.03 22.02 11.96 22.07 13.89 C 27.35 14.06 32.64 14.06 37.92 13.89 C 37.97 11.96 37.98 10.04 37.93 8.11 C 32.64 7.94 27.35 7.94 22.07 8.10 M 20.08 18.10 C 20.03 20.03 20.02 21.95 20.06 23.88 C 26.68 24.08 33.31 24.06 39.92 23.89 C 39.97 21.97 39.98 20.04 39.93 18.11 C 33.32 17.93 26.69 17.94 20.08 18.10 M 18.06 28.11 C 18.02 30.04 18.03 31.97 18.08 33.90 C 26.02 34.07 33.97 34.06 41.92 33.90 C 41.97 31.97 41.98 30.04 41.93 28.11 C 33.98 27.93 26.02 27.93 18.06 28.11 M 16.06 38.11 C 16.02 40.04 16.03 41.96 16.07 43.89 C 25.36 44.07 34.65 44.07 43.93 43.89 C 43.98 41.96 43.98 40.04 43.93 38.11 C 34.64 37.93 25.35 37.93 16.06 38.11 Z" />
</g>
<g id="#000000ff">
<path fill="#000000" opacity="1.00" d=" M 7.99 13.05 C 7.88 10.27 10.57 8.49 12.99 7.97 C 15.86 8.12 18.19 11.09 17.38 13.91 C 15.76 22.60 13.72 31.22 12.17 39.92 C 11.29 43.94 14.80 48.06 18.88 47.95 C 26.30 48.04 33.73 48.05 41.15 47.95 C 45.22 48.03 48.68 43.93 47.83 39.93 C 46.28 31.22 44.23 22.61 42.62 13.92 C 41.89 11.40 43.68 8.62 46.21 8.12 C 49.87 7.56 53.66 12.08 51.40 15.46 C 48.58 17.56 47.78 13.28 47.23 11.41 C 46.23 12.79 46.77 14.41 47.05 15.92 C 48.62 23.58 50.27 31.23 51.74 38.91 C 53.17 45.33 47.69 52.04 41.14 51.97 C 33.72 52.03 26.31 52.03 18.90 51.97 C 12.32 52.07 6.81 45.33 8.25 38.90 C 9.74 31.22 11.37 23.57 12.95 15.91 C 13.23 14.41 13.77 12.79 12.77 11.41 C 11.83 12.91 12.28 15.79 10.02 16.09 C 8.49 15.92 7.76 14.46 7.99 13.05 Z" />
<path fill="#000000" opacity="1.00" d=" M 22.07 8.10 C 27.35 7.94 32.64 7.94 37.93 8.11 C 37.98 10.04 37.97 11.96 37.92 13.89 C 32.64 14.06 27.35 14.06 22.07 13.89 C 22.02 11.96 22.02 10.03 22.07 8.10 Z" />
<path fill="#000000" opacity="1.00" d=" M 20.08 18.10 C 26.69 17.94 33.32 17.93 39.93 18.11 C 39.98 20.04 39.97 21.97 39.92 23.89 C 33.31 24.06 26.68 24.08 20.06 23.88 C 20.02 21.95 20.03 20.03 20.08 18.10 Z" />
<path fill="#000000" opacity="1.00" d=" M 18.06 28.11 C 26.02 27.93 33.98 27.93 41.93 28.11 C 41.98 30.04 41.97 31.97 41.92 33.90 C 33.97 34.06 26.02 34.07 18.08 33.90 C 18.03 31.97 18.02 30.04 18.06 28.11 Z" />
<path fill="#000000" opacity="1.00" d=" M 16.06 38.11 C 25.35 37.93 34.64 37.93 43.93 38.11 C 43.98 40.04 43.98 41.96 43.93 43.89 C 34.65 44.07 25.36 44.07 16.07 43.89 C 16.03 41.96 16.02 40.04 16.06 38.11 Z" />
</g>
</svg>
