<?xml version="1.0" encoding="UTF-8" ?>
<!DOCTYPE svg PUBLIC "-//W3C//DTD SVG 1.1//EN" "http://www.w3.org/Graphics/SVG/1.1/DTD/svg11.dtd">
<svg width="60pt" height="60pt" viewBox="0 0 60 60" version="1.1" xmlns="http://www.w3.org/2000/svg">
<g id="#ffffffff">
<path fill="#ffffff" opacity="1.00" d=" M 0.00 0.00 L 60.00 0.00 L 60.00 60.00 L 0.00 60.00 L 0.00 0.00 M 16.47 10.69 C 13.25 12.39 13.22 17.52 16.42 19.27 C 19.53 21.40 24.14 18.71 24.01 15.00 C 24.14 11.31 19.60 8.63 16.47 10.69 M 28.45 16.92 C 30.33 20.45 32.76 23.65 34.84 27.05 C 32.66 29.81 30.22 32.37 28.20 35.25 C 27.29 36.76 29.28 38.66 30.78 37.81 C 33.56 35.58 35.87 32.83 38.46 30.39 C 41.50 28.13 38.73 24.21 38.56 21.28 C 41.31 20.89 44.05 20.46 46.80 20.04 C 47.52 24.84 47.25 29.90 49.29 34.41 C 51.03 38.51 52.41 42.76 54.25 46.81 C 54.83 48.88 58.44 47.96 57.91 45.86 C 56.96 40.77 55.23 35.85 54.30 30.76 C 55.17 25.72 56.84 20.86 57.86 15.85 C 58.58 13.01 56.06 9.96 53.16 10.05 C 46.38 9.96 39.60 9.96 32.83 10.05 C 29.48 9.93 26.89 13.92 28.45 16.92 M 2.15 23.09 C 1.78 30.71 2.13 38.36 1.98 45.99 C 2.11 47.32 1.66 49.08 3.12 49.83 C 6.07 50.19 9.04 49.94 12.00 50.00 C 12.00 48.66 12.00 47.33 12.00 46.00 C 10.00 46.00 8.00 46.00 6.00 46.00 C 6.00 39.09 6.00 32.17 6.00 25.26 C 8.31 24.11 10.60 22.94 12.90 21.76 C 12.45 20.87 11.55 19.10 11.10 18.21 C 8.18 19.93 4.74 20.88 2.15 23.09 M 19.24 31.13 C 20.51 32.40 21.78 33.68 23.04 34.95 C 25.07 32.94 27.07 30.91 29.11 28.91 C 27.85 27.62 26.63 26.29 25.33 25.04 C 23.30 27.07 21.27 29.10 19.24 31.13 M 30.74 42.68 C 31.99 43.96 33.24 45.23 34.49 46.51 C 36.56 44.51 38.60 42.47 40.61 40.41 C 39.34 39.15 38.08 37.87 36.81 36.60 C 34.79 38.63 32.77 40.66 30.74 42.68 Z" />
</g>
<g id="#000000ff">
<path fill="#000000" opacity="1.00" d=" M 16.47 10.69 C 19.60 8.63 24.14 11.31 24.01 15.00 C 24.14 18.71 19.53 21.40 16.42 19.27 C 13.22 17.52 13.25 12.39 16.47 10.69 Z" />
<path fill="#000000" opacity="1.00" d=" M 28.45 16.92 C 26.89 13.92 29.48 9.93 32.83 10.05 C 39.60 9.96 46.38 9.96 53.16 10.05 C 56.06 9.96 58.58 13.01 57.86 15.85 C 56.84 20.86 55.17 25.72 54.30 30.76 C 55.23 35.85 56.96 40.77 57.91 45.86 C 58.44 47.96 54.83 48.88 54.25 46.81 C 52.41 42.76 51.03 38.51 49.29 34.41 C 47.25 29.90 47.52 24.84 46.80 20.04 C 44.05 20.46 41.31 20.89 38.56 21.28 C 38.73 24.21 41.50 28.13 38.46 30.39 C 35.87 32.83 33.56 35.58 30.78 37.81 C 29.28 38.66 27.29 36.76 28.20 35.25 C 30.22 32.37 32.66 29.81 34.84 27.05 C 32.76 23.65 30.33 20.45 28.45 16.92 Z" />
<path fill="#000000" opacity="1.00" d=" M 2.15 23.09 C 4.74 20.88 8.18 19.93 11.10 18.21 C 11.55 19.10 12.45 20.87 12.90 21.76 C 10.60 22.94 8.31 24.11 6.00 25.26 C 6.00 32.17 6.00 39.09 6.00 46.00 C 8.00 46.00 10.00 46.00 12.00 46.00 C 12.00 47.33 12.00 48.66 12.00 50.00 C 9.04 49.94 6.07 50.19 3.12 49.83 C 1.66 49.08 2.11 47.32 1.98 45.99 C 2.13 38.36 1.78 30.71 2.15 23.09 Z" />
<path fill="#000000" opacity="1.00" d=" M 19.24 31.13 C 21.27 29.10 23.30 27.07 25.33 25.04 C 26.63 26.29 27.85 27.62 29.11 28.91 C 27.07 30.91 25.07 32.94 23.04 34.95 C 21.78 33.68 20.51 32.40 19.24 31.13 Z" />
<path fill="#000000" opacity="1.00" d=" M 30.74 42.68 C 32.77 40.66 34.79 38.63 36.81 36.60 C 38.08 37.87 39.34 39.15 40.61 40.41 C 38.60 42.47 36.56 44.51 34.49 46.51 C 33.24 45.23 31.99 43.96 30.74 42.68 Z" />
</g>
</svg>
