<?xml version="1.0" encoding="UTF-8" ?>
<!DOCTYPE svg PUBLIC "-//W3C//DTD SVG 1.1//EN" "http://www.w3.org/Graphics/SVG/1.1/DTD/svg11.dtd">
<svg width="64pt" height="64pt" viewBox="0 0 64 64" version="1.1" xmlns="http://www.w3.org/2000/svg">
<g id="#ffffffff">
<path fill="#ffffff" opacity="1.00" d=" M 0.00 0.00 L 64.00 0.00 L 64.00 64.00 L 0.00 64.00 L 0.00 0.00 M 14.08 17.05 C 14.40 21.42 17.95 24.74 21.98 25.95 C 22.09 29.67 21.79 33.39 22.15 37.10 C 22.53 39.82 25.14 41.98 27.88 41.95 C 36.58 42.09 45.29 41.95 54.00 42.00 C 54.00 46.00 54.00 50.00 54.00 54.00 C 55.33 54.00 56.67 54.00 58.00 54.00 C 57.94 47.97 58.11 41.93 57.95 35.90 C 58.04 33.80 56.30 31.95 54.22 31.83 C 44.86 30.53 35.45 29.63 25.99 30.00 C 26.00 28.65 26.01 27.30 26.02 25.95 C 29.32 24.83 32.45 22.62 33.48 19.11 C 35.60 13.34 31.12 6.51 25.01 6.08 C 18.96 5.26 13.24 11.00 14.08 17.05 M 10.36 28.53 C 5.57 30.25 4.49 37.36 8.59 40.40 C 12.44 43.88 19.30 41.22 19.89 36.10 C 20.95 30.99 15.12 26.31 10.36 28.53 M 48.81 44.00 C 47.94 47.33 47.06 50.66 46.18 53.99 C 47.55 54.00 48.92 54.00 50.30 54.00 C 51.30 50.75 52.14 47.43 52.08 44.00 C 51.27 44.00 49.63 44.00 48.81 44.00 Z" />
<path fill="#ffffff" opacity="1.00" d=" M 21.43 10.57 C 25.21 8.59 30.19 11.78 30.00 16.03 C 30.17 20.49 24.68 23.60 20.93 21.16 C 16.87 19.00 17.17 12.34 21.43 10.57 M 23.17 14.21 C 20.76 15.09 22.54 19.02 24.78 17.82 C 27.27 16.97 25.45 12.90 23.17 14.21 Z" />
<path fill="#ffffff" opacity="1.00" d=" M 11.31 32.53 C 13.14 31.14 16.17 32.69 15.95 35.01 C 16.12 36.99 13.83 38.54 12.03 37.81 C 9.75 37.20 9.32 33.74 11.31 32.53 Z" />
<path fill="#ffffff" opacity="1.00" d=" M 25.86 34.00 C 35.24 33.66 44.59 34.47 53.85 35.89 C 53.93 36.42 54.07 37.47 54.15 38.00 C 45.42 37.94 36.68 38.12 27.96 37.93 C 25.82 38.07 26.06 35.41 25.86 34.00 Z" />
</g>
<g id="#000000ff">
<path fill="#000000" opacity="1.00" d=" M 14.08 17.05 C 13.24 11.00 18.96 5.26 25.01 6.08 C 31.12 6.51 35.60 13.34 33.48 19.11 C 32.45 22.62 29.32 24.83 26.02 25.95 C 26.01 27.30 26.00 28.65 25.99 30.00 C 35.45 29.63 44.86 30.53 54.22 31.83 C 56.30 31.95 58.04 33.80 57.95 35.90 C 58.11 41.93 57.94 47.97 58.00 54.00 C 56.67 54.00 55.33 54.00 54.00 54.00 C 54.00 50.00 54.00 46.00 54.00 42.00 C 45.29 41.95 36.58 42.09 27.88 41.95 C 25.14 41.98 22.53 39.82 22.15 37.10 C 21.79 33.39 22.09 29.67 21.98 25.95 C 17.95 24.74 14.40 21.42 14.08 17.05 M 21.43 10.57 C 17.17 12.34 16.87 19.00 20.93 21.16 C 24.68 23.60 30.17 20.49 30.00 16.03 C 30.19 11.78 25.21 8.59 21.43 10.57 M 25.86 34.00 C 26.06 35.41 25.82 38.07 27.96 37.93 C 36.68 38.12 45.42 37.94 54.15 38.00 C 54.07 37.47 53.93 36.42 53.85 35.89 C 44.59 34.47 35.24 33.66 25.86 34.00 Z" />
<path fill="#000000" opacity="1.00" d=" M 23.17 14.21 C 25.45 12.90 27.27 16.97 24.78 17.82 C 22.54 19.02 20.76 15.09 23.17 14.21 Z" />
<path fill="#000000" opacity="1.00" d=" M 10.36 28.53 C 15.12 26.31 20.95 30.99 19.89 36.10 C 19.30 41.22 12.44 43.88 8.59 40.40 C 4.49 37.36 5.57 30.25 10.36 28.53 M 11.31 32.53 C 9.32 33.74 9.75 37.20 12.03 37.81 C 13.83 38.54 16.12 36.99 15.95 35.01 C 16.17 32.69 13.14 31.14 11.31 32.53 Z" />
<path fill="#000000" opacity="1.00" d=" M 48.81 44.00 C 49.63 44.00 51.27 44.00 52.08 44.00 C 52.14 47.43 51.30 50.75 50.30 54.00 C 48.92 54.00 47.55 54.00 46.18 53.99 C 47.06 50.66 47.94 47.33 48.81 44.00 Z" />
</g>
</svg>
