<?xml version="1.0" encoding="UTF-8" ?>
<!DOCTYPE svg PUBLIC "-//W3C//DTD SVG 1.1//EN" "http://www.w3.org/Graphics/SVG/1.1/DTD/svg11.dtd">
<svg width="64pt" height="64pt" viewBox="0 0 64 64" version="1.1" xmlns="http://www.w3.org/2000/svg">
<g id="#ffffffff">
<path fill="#ffffff" opacity="1.00" d=" M 0.00 0.00 L 64.00 0.00 L 64.00 64.00 L 0.00 64.00 L 0.00 0.00 M 11.35 14.39 C 3.95 24.28 4.31 39.13 12.33 48.57 C 18.83 56.73 30.60 60.22 40.43 56.51 C 51.62 52.63 58.94 40.58 57.89 28.88 C 57.38 19.28 51.40 10.38 42.84 6.06 C 41.31 16.38 22.67 16.39 21.17 6.05 C 17.39 8.15 13.86 10.83 11.35 14.39 Z" />
<path fill="#ffffff" opacity="1.00" d=" M 16.24 22.26 C 17.59 20.59 19.88 19.82 21.98 20.18 C 25.88 20.77 29.09 23.29 32.01 25.77 C 35.17 23.12 38.64 20.18 42.97 20.01 C 45.06 19.91 47.01 21.07 48.17 22.76 C 52.59 28.66 53.24 37.14 49.62 43.59 C 45.92 50.56 37.80 54.78 29.97 53.88 C 23.02 53.25 16.58 48.71 13.75 42.33 C 10.75 35.88 11.73 27.76 16.24 22.26 M 16.47 29.85 C 17.98 30.72 19.49 31.59 21.00 32.46 C 19.37 33.39 17.76 34.35 16.13 35.29 C 16.42 36.15 16.72 37.02 17.01 37.88 C 19.68 37.04 22.47 37.01 25.18 37.69 C 26.46 33.91 26.43 28.71 22.62 26.41 C 19.88 24.95 17.61 27.67 16.47 29.85 M 38.44 29.82 C 39.96 30.70 41.47 31.60 42.99 32.48 C 41.36 33.41 39.74 34.36 38.11 35.31 C 38.40 36.16 38.68 37.01 38.96 37.87 C 41.49 37.07 44.14 37.01 46.72 37.63 C 47.83 33.78 47.89 28.33 43.82 26.19 C 41.20 25.25 39.54 27.91 38.44 29.82 M 23.33 40.35 C 21.59 41.05 20.55 43.10 21.19 44.90 C 21.77 47.45 24.47 48.51 26.70 49.19 C 31.92 50.65 37.80 50.13 42.56 47.51 C 45.42 45.95 45.35 40.82 41.83 40.20 C 38.39 39.95 35.50 42.85 31.99 42.22 C 28.98 42.19 26.37 39.29 23.33 40.35 Z" />
<path fill="#ffffff" opacity="1.00" d=" M 23.08 43.98 C 22.48 42.30 24.95 42.29 25.89 41.78 C 25.96 43.53 25.99 45.29 25.93 47.04 C 24.94 46.11 23.09 45.59 23.08 43.98 Z" />
<path fill="#ffffff" opacity="1.00" d=" M 40.12 41.74 C 41.13 42.28 42.97 42.39 42.59 44.00 C 42.38 45.28 41.03 45.96 40.32 46.94 C 40.04 45.22 40.05 43.48 40.12 41.74 Z" />
<path fill="#ffffff" opacity="1.00" d=" M 28.19 43.03 C 28.66 43.29 29.59 43.81 30.06 44.08 C 29.99 45.47 29.90 46.85 29.79 48.24 C 27.25 47.53 28.10 45.03 28.19 43.03 Z" />
<path fill="#ffffff" opacity="1.00" d=" M 35.97 43.97 C 36.44 43.73 37.40 43.27 37.87 43.04 C 37.95 44.37 38.02 45.71 38.07 47.04 C 37.60 47.26 36.65 47.68 36.18 47.90 C 36.03 46.59 35.96 45.28 35.97 43.97 Z" />
<path fill="#ffffff" opacity="1.00" d=" M 31.92 47.92 C 32.10 46.28 31.41 43.77 33.88 43.89 C 33.94 45.25 33.98 46.61 34.00 47.98 C 33.48 47.97 32.44 47.94 31.92 47.92 Z" />
</g>
<g id="#000000ff">
<path fill="#000000" opacity="1.00" d=" M 11.35 14.39 C 13.86 10.83 17.39 8.15 21.17 6.05 C 22.67 16.39 41.31 16.38 42.84 6.06 C 51.40 10.38 57.38 19.28 57.89 28.88 C 58.94 40.58 51.62 52.63 40.43 56.51 C 30.60 60.22 18.83 56.73 12.33 48.57 C 4.31 39.13 3.95 24.28 11.35 14.39 M 16.24 22.26 C 11.73 27.76 10.75 35.88 13.75 42.33 C 16.58 48.71 23.02 53.25 29.97 53.88 C 37.80 54.78 45.92 50.56 49.62 43.59 C 53.24 37.14 52.59 28.66 48.17 22.76 C 47.01 21.07 45.06 19.91 42.97 20.01 C 38.64 20.18 35.17 23.12 32.01 25.77 C 29.09 23.29 25.88 20.77 21.98 20.18 C 19.88 19.82 17.59 20.59 16.24 22.26 Z" />
<path fill="#000000" opacity="1.00" d=" M 16.47 29.85 C 17.61 27.67 19.88 24.95 22.62 26.41 C 26.43 28.71 26.46 33.91 25.18 37.69 C 22.47 37.01 19.68 37.04 17.01 37.88 C 16.72 37.02 16.42 36.15 16.13 35.29 C 17.76 34.35 19.37 33.39 21.00 32.46 C 19.49 31.59 17.98 30.72 16.47 29.85 Z" />
<path fill="#000000" opacity="1.00" d=" M 38.44 29.82 C 39.54 27.91 41.20 25.25 43.82 26.19 C 47.89 28.33 47.83 33.78 46.72 37.63 C 44.14 37.01 41.49 37.07 38.96 37.87 C 38.68 37.01 38.40 36.16 38.11 35.31 C 39.74 34.36 41.36 33.41 42.99 32.48 C 41.47 31.60 39.96 30.70 38.44 29.82 Z" />
<path fill="#000000" opacity="1.00" d=" M 23.33 40.35 C 26.37 39.29 28.98 42.19 31.99 42.22 C 35.50 42.85 38.39 39.95 41.83 40.20 C 45.35 40.82 45.42 45.95 42.56 47.51 C 37.80 50.13 31.92 50.65 26.70 49.19 C 24.47 48.51 21.77 47.45 21.19 44.90 C 20.55 43.10 21.59 41.05 23.33 40.35 M 23.08 43.98 C 23.09 45.59 24.94 46.11 25.93 47.04 C 25.99 45.29 25.96 43.53 25.89 41.78 C 24.95 42.29 22.48 42.30 23.08 43.98 M 40.12 41.74 C 40.05 43.48 40.04 45.22 40.32 46.94 C 41.03 45.96 42.38 45.28 42.59 44.00 C 42.97 42.39 41.13 42.28 40.12 41.74 M 28.19 43.03 C 28.10 45.03 27.25 47.53 29.79 48.24 C 29.90 46.85 29.99 45.47 30.06 44.08 C 29.59 43.81 28.66 43.29 28.19 43.03 M 35.97 43.97 C 35.96 45.28 36.03 46.59 36.18 47.90 C 36.65 47.68 37.60 47.26 38.07 47.04 C 38.02 45.71 37.95 44.37 37.87 43.04 C 37.40 43.27 36.44 43.73 35.97 43.97 M 31.92 47.92 C 32.44 47.94 33.48 47.97 34.00 47.98 C 33.98 46.61 33.94 45.25 33.88 43.89 C 31.41 43.77 32.10 46.28 31.92 47.92 Z" />
</g>
</svg>
