<?xml version="1.0" encoding="UTF-8" ?>
<!DOCTYPE svg PUBLIC "-//W3C//DTD SVG 1.1//EN" "http://www.w3.org/Graphics/SVG/1.1/DTD/svg11.dtd">
<svg width="60pt" height="60pt" viewBox="0 0 60 60" version="1.1" xmlns="http://www.w3.org/2000/svg">
<g id="#ffffffff">
<path fill="#ffffff" opacity="1.00" d=" M 0.00 0.00 L 60.00 0.00 L 60.00 60.00 L 0.00 60.00 L 0.00 0.00 M 8.00 12.87 C 8.03 24.60 7.94 36.33 8.04 48.05 C 7.93 50.14 9.86 51.98 11.91 51.95 C 19.60 52.08 27.29 51.96 34.99 52.00 C 34.76 50.67 34.55 49.34 34.35 48.00 C 32.23 48.00 30.12 48.00 28.00 48.00 C 28.00 41.33 28.00 34.67 28.00 28.00 C 28.80 28.00 30.39 28.00 31.19 27.99 C 30.98 26.67 30.77 25.34 30.57 24.02 C 29.93 24.01 28.64 24.00 28.00 23.99 C 28.00 19.99 28.00 16.00 28.00 12.00 C 34.67 12.00 41.33 12.00 48.00 12.00 C 47.30 18.23 50.50 23.86 51.99 29.72 C 51.96 23.78 52.09 17.84 51.95 11.90 C 51.98 9.86 50.14 7.93 48.05 8.04 C 36.00 7.97 23.94 7.97 11.90 8.04 C 9.42 7.99 7.66 10.54 8.00 12.87 M 41.20 16.08 C 39.87 16.72 39.86 18.30 40.39 19.47 C 44.12 30.73 47.91 41.96 51.61 53.23 C 52.12 54.22 52.40 56.28 53.98 55.93 C 55.34 56.24 56.39 54.45 55.82 53.30 C 52.22 42.01 48.30 30.82 44.66 19.54 C 44.06 17.93 43.53 15.26 41.20 16.08 M 35.12 18.09 C 33.61 18.98 34.13 20.74 34.30 22.15 C 36.21 33.18 37.99 44.24 39.85 55.28 C 40.04 56.40 40.48 58.28 42.02 57.95 C 43.66 58.20 44.26 56.17 43.83 54.92 C 41.90 43.27 40.00 31.62 37.99 19.99 C 37.88 18.47 36.56 17.60 35.12 18.09 Z" />
<path fill="#ffffff" opacity="1.00" d=" M 12.00 12.00 C 16.00 12.00 20.00 12.00 24.00 12.00 C 24.00 16.00 24.00 20.00 24.00 24.00 C 20.00 24.00 16.00 24.00 12.00 24.00 C 12.00 20.00 12.00 16.00 12.00 12.00 Z" />
<path fill="#ffffff" opacity="1.00" d=" M 12.00 28.00 C 16.00 28.00 20.00 28.00 24.00 28.00 C 24.00 30.67 24.00 33.33 24.00 36.00 C 20.00 36.00 16.00 36.00 12.00 36.00 C 12.00 33.33 12.00 30.67 12.00 28.00 Z" />
<path fill="#ffffff" opacity="1.00" d=" M 12.00 40.00 C 16.00 40.00 20.00 40.00 24.00 40.00 C 24.00 42.67 24.00 45.33 24.00 48.00 C 20.00 48.00 16.00 48.00 12.00 48.00 C 12.00 45.33 12.00 42.67 12.00 40.00 Z" />
</g>
<g id="#000000ff">
<path fill="#000000" opacity="1.00" d=" M 8.00 12.87 C 7.66 10.54 9.42 7.99 11.90 8.04 C 23.94 7.97 36.00 7.97 48.05 8.04 C 50.14 7.93 51.98 9.86 51.95 11.90 C 52.09 17.84 51.96 23.78 51.99 29.72 C 50.50 23.86 47.30 18.23 48.00 12.00 C 41.33 12.00 34.67 12.00 28.00 12.00 C 28.00 16.00 28.00 19.99 28.00 23.99 C 28.64 24.00 29.93 24.01 30.57 24.02 C 30.77 25.34 30.98 26.67 31.19 27.99 C 30.39 28.00 28.80 28.00 28.00 28.00 C 28.00 34.67 28.00 41.33 28.00 48.00 C 30.12 48.00 32.23 48.00 34.35 48.00 C 34.55 49.34 34.76 50.67 34.99 52.00 C 27.29 51.96 19.60 52.08 11.91 51.95 C 9.86 51.98 7.93 50.14 8.04 48.05 C 7.94 36.33 8.03 24.60 8.00 12.87 M 12.00 12.00 C 12.00 16.00 12.00 20.00 12.00 24.00 C 16.00 24.00 20.00 24.00 24.00 24.00 C 24.00 20.00 24.00 16.00 24.00 12.00 C 20.00 12.00 16.00 12.00 12.00 12.00 M 12.00 28.00 C 12.00 30.67 12.00 33.33 12.00 36.00 C 16.00 36.00 20.00 36.00 24.00 36.00 C 24.00 33.33 24.00 30.67 24.00 28.00 C 20.00 28.00 16.00 28.00 12.00 28.00 M 12.00 40.00 C 12.00 42.67 12.00 45.33 12.00 48.00 C 16.00 48.00 20.00 48.00 24.00 48.00 C 24.00 45.33 24.00 42.67 24.00 40.00 C 20.00 40.00 16.00 40.00 12.00 40.00 Z" />
<path fill="#000000" opacity="1.00" d=" M 41.20 16.08 C 43.53 15.26 44.06 17.93 44.66 19.54 C 48.30 30.82 52.22 42.01 55.82 53.30 C 56.39 54.45 55.34 56.24 53.98 55.93 C 52.40 56.28 52.12 54.22 51.61 53.23 C 47.91 41.96 44.12 30.73 40.39 19.47 C 39.86 18.30 39.87 16.72 41.20 16.08 Z" />
<path fill="#000000" opacity="1.00" d=" M 35.12 18.09 C 36.56 17.60 37.88 18.47 37.99 19.99 C 40.00 31.62 41.90 43.27 43.83 54.92 C 44.26 56.17 43.66 58.20 42.02 57.95 C 40.48 58.28 40.04 56.40 39.85 55.28 C 37.99 44.24 36.21 33.18 34.30 22.15 C 34.13 20.74 33.61 18.98 35.12 18.09 Z" />
</g>
</svg>
