<?xml version="1.0" encoding="UTF-8" ?>
<!DOCTYPE svg PUBLIC "-//W3C//DTD SVG 1.1//EN" "http://www.w3.org/Graphics/SVG/1.1/DTD/svg11.dtd">
<svg width="64pt" height="64pt" viewBox="0 0 64 64" version="1.1" xmlns="http://www.w3.org/2000/svg">
<g id="#ffffffff">
<path fill="#ffffff" opacity="1.00" d=" M 0.00 0.00 L 64.00 0.00 L 64.00 64.00 L 0.00 64.00 L 0.00 0.00 M 19.45 13.60 C 18.08 15.82 18.00 18.50 17.98 21.02 C 18.02 32.68 17.99 44.34 18.00 56.00 C 19.33 56.00 20.67 56.00 22.00 56.00 C 22.00 53.02 22.02 50.03 21.97 47.05 C 26.17 50.41 31.86 50.49 36.92 49.60 C 42.86 48.26 46.97 41.89 45.80 35.92 C 45.22 31.89 42.30 28.70 38.82 26.82 C 41.82 23.42 43.04 18.34 40.85 14.19 C 37.10 6.03 23.70 5.77 19.45 13.60 Z" />
<path fill="#ffffff" opacity="1.00" d=" M 22.27 17.12 C 23.56 11.78 30.65 10.68 34.85 13.13 C 38.49 15.35 39.04 21.00 35.98 23.94 C 33.40 26.66 29.36 25.90 26.00 26.01 C 26.00 27.34 26.00 28.68 26.00 30.01 C 29.70 30.16 33.55 29.49 37.14 30.61 C 42.32 32.50 43.60 40.01 39.67 43.72 C 37.15 46.33 33.25 46.13 29.92 45.98 C 27.35 45.95 24.77 44.74 23.36 42.54 C 21.45 39.72 22.12 36.15 21.99 32.95 C 22.18 27.68 21.65 22.37 22.27 17.12 Z" />
</g>
<g id="#000000ff">
<path fill="#000000" opacity="1.00" d=" M 19.45 13.60 C 23.70 5.77 37.10 6.03 40.85 14.19 C 43.04 18.34 41.82 23.42 38.82 26.82 C 42.30 28.70 45.22 31.89 45.80 35.92 C 46.97 41.89 42.86 48.26 36.92 49.60 C 31.86 50.49 26.17 50.41 21.97 47.05 C 22.02 50.03 22.00 53.02 22.00 56.00 C 20.67 56.00 19.33 56.00 18.00 56.00 C 17.99 44.34 18.02 32.68 17.98 21.02 C 18.00 18.50 18.08 15.82 19.45 13.60 M 22.27 17.12 C 21.65 22.37 22.18 27.68 21.99 32.95 C 22.12 36.15 21.45 39.72 23.36 42.54 C 24.77 44.74 27.35 45.95 29.92 45.98 C 33.25 46.13 37.15 46.33 39.67 43.72 C 43.60 40.01 42.32 32.50 37.14 30.61 C 33.55 29.49 29.70 30.16 26.00 30.01 C 26.00 28.68 26.00 27.34 26.00 26.01 C 29.36 25.90 33.40 26.66 35.98 23.94 C 39.04 21.00 38.49 15.35 34.85 13.13 C 30.65 10.68 23.56 11.78 22.27 17.12 Z" />
</g>
</svg>
