<?xml version="1.0" encoding="UTF-8" ?>
<!DOCTYPE svg PUBLIC "-//W3C//DTD SVG 1.1//EN" "http://www.w3.org/Graphics/SVG/1.1/DTD/svg11.dtd">
<svg width="64pt" height="64pt" viewBox="0 0 64 64" version="1.1" xmlns="http://www.w3.org/2000/svg">
<g id="#ffffffff">
<path fill="#ffffff" opacity="1.00" d=" M 0.00 0.00 L 64.00 0.00 L 64.00 40.50 C 63.79 32.58 55.80 26.63 48.13 28.16 C 46.35 24.11 44.57 20.05 42.82 15.98 C 45.25 15.98 47.69 16.03 50.12 16.12 C 49.16 18.04 48.83 20.14 48.96 22.28 C 53.78 21.93 55.96 15.10 51.47 12.67 C 47.14 11.24 42.36 12.32 37.85 12.01 C 37.86 14.87 39.03 17.48 40.24 20.00 C 34.46 20.00 28.69 20.02 22.91 19.98 C 20.88 22.78 18.91 25.62 16.89 28.43 C 9.05 26.14 0.27 32.08 0.00 40.36 L 0.00 0.00 M 16.00 14.00 C 16.00 15.33 16.00 16.67 16.00 18.00 C 20.00 18.00 23.99 18.00 27.99 18.00 C 27.33 16.66 26.66 15.33 26.00 14.00 C 22.67 14.00 19.33 14.00 16.00 14.00 Z" />
<path fill="#ffffff" opacity="1.00" d=" M 26.94 24.00 C 31.38 24.00 35.82 24.00 40.26 24.00 C 37.53 27.93 34.96 31.96 32.13 35.82 C 30.45 31.86 28.66 27.94 26.94 24.00 Z" />
<path fill="#ffffff" opacity="1.00" d=" M 20.47 30.22 C 21.44 28.80 22.47 27.41 23.58 26.09 C 25.15 30.12 26.98 34.03 28.69 38.00 C 23.12 38.00 17.56 38.00 12.00 38.00 C 12.00 39.33 12.00 40.67 12.00 42.00 C 15.34 42.00 18.68 41.97 22.02 42.07 C 21.17 46.70 16.85 50.64 11.98 49.92 C 6.08 49.47 2.15 42.43 4.87 37.17 C 7.18 31.68 15.30 30.23 19.28 34.70 C 20.59 36.70 23.12 35.83 25.09 35.98 C 23.95 33.76 22.38 31.82 20.47 30.22 Z" />
<path fill="#ffffff" opacity="1.00" d=" M 32.84 42.00 C 36.31 36.94 39.69 31.82 43.20 26.79 C 43.51 27.50 44.12 28.92 44.43 29.64 C 41.03 32.04 38.26 35.67 38.06 39.96 C 37.36 46.85 43.04 53.46 49.93 53.92 C 57.01 54.69 63.67 48.71 64.00 41.65 L 64.00 64.00 L 0.00 64.00 L 0.00 41.56 C 0.23 48.68 6.97 54.69 14.08 53.92 C 20.36 53.55 25.31 48.10 26.05 42.01 C 28.31 42.00 30.57 42.00 32.84 42.00 Z" />
<path fill="#ffffff" opacity="1.00" d=" M 49.87 31.94 C 53.88 31.73 58.05 33.92 59.41 37.85 C 61.43 42.76 58.05 48.86 52.83 49.78 C 47.88 50.98 42.51 47.11 42.08 42.03 C 41.54 38.64 43.51 35.48 46.07 33.44 C 47.48 36.55 48.82 39.69 50.19 42.81 C 51.40 42.27 52.60 41.72 53.81 41.18 C 52.48 38.11 51.10 35.06 49.87 31.94 Z" />
</g>
<g id="#000000ff">
<path fill="#000000" opacity="1.00" d=" M 37.85 12.01 C 42.36 12.32 47.14 11.24 51.47 12.67 C 55.96 15.10 53.78 21.93 48.96 22.28 C 48.83 20.14 49.16 18.04 50.12 16.12 C 47.69 16.03 45.25 15.98 42.82 15.98 C 44.57 20.05 46.35 24.11 48.13 28.16 C 55.80 26.63 63.79 32.58 64.00 40.50 L 64.00 41.65 C 63.67 48.71 57.01 54.69 49.93 53.92 C 43.04 53.46 37.36 46.85 38.06 39.96 C 38.26 35.67 41.03 32.04 44.43 29.64 C 44.12 28.92 43.51 27.50 43.20 26.79 C 39.69 31.82 36.31 36.94 32.84 42.00 C 30.57 42.00 28.31 42.00 26.05 42.01 C 25.31 48.10 20.36 53.55 14.08 53.92 C 6.97 54.69 0.23 48.68 0.00 41.56 L 0.00 40.36 C 0.27 32.08 9.05 26.14 16.89 28.43 C 18.91 25.62 20.88 22.78 22.91 19.98 C 28.69 20.02 34.46 20.00 40.24 20.00 C 39.03 17.48 37.86 14.87 37.85 12.01 M 26.94 24.00 C 28.66 27.94 30.45 31.86 32.13 35.82 C 34.96 31.96 37.53 27.93 40.26 24.00 C 35.82 24.00 31.38 24.00 26.94 24.00 M 20.47 30.22 C 22.38 31.82 23.95 33.76 25.09 35.98 C 23.12 35.83 20.59 36.70 19.28 34.70 C 15.30 30.23 7.18 31.68 4.87 37.17 C 2.15 42.43 6.08 49.47 11.98 49.92 C 16.85 50.64 21.17 46.70 22.02 42.07 C 18.68 41.97 15.34 42.00 12.00 42.00 C 12.00 40.67 12.00 39.33 12.00 38.00 C 17.56 38.00 23.12 38.00 28.69 38.00 C 26.98 34.03 25.15 30.12 23.58 26.09 C 22.47 27.41 21.44 28.80 20.47 30.22 M 49.87 31.94 C 51.10 35.06 52.48 38.11 53.81 41.18 C 52.60 41.72 51.40 42.27 50.19 42.81 C 48.82 39.69 47.48 36.55 46.07 33.44 C 43.51 35.48 41.54 38.64 42.08 42.03 C 42.51 47.11 47.88 50.98 52.83 49.78 C 58.05 48.86 61.43 42.76 59.41 37.85 C 58.05 33.92 53.88 31.73 49.87 31.94 Z" />
<path fill="#000000" opacity="1.00" d=" M 16.00 14.00 C 19.33 14.00 22.67 14.00 26.00 14.00 C 26.66 15.33 27.33 16.66 27.99 18.00 C 23.99 18.00 20.00 18.00 16.00 18.00 C 16.00 16.67 16.00 15.33 16.00 14.00 Z" />
</g>
</svg>
