<?xml version="1.0" encoding="UTF-8" ?>
<!DOCTYPE svg PUBLIC "-//W3C//DTD SVG 1.1//EN" "http://www.w3.org/Graphics/SVG/1.1/DTD/svg11.dtd">
<svg width="64pt" height="64pt" viewBox="0 0 64 64" version="1.1" xmlns="http://www.w3.org/2000/svg">
<g id="#ffffffff">
<path fill="#ffffff" opacity="1.00" d=" M 0.00 0.00 L 64.00 0.00 L 64.00 64.00 L 0.00 64.00 L 0.00 0.00 M 37.48 8.74 C 34.59 9.55 32.53 11.76 30.43 13.75 C 26.49 14.21 22.36 14.48 18.87 16.61 C 11.00 20.82 6.53 30.37 8.41 39.12 C 9.91 46.98 16.30 53.61 24.10 55.41 C 31.76 57.34 40.32 54.42 45.24 48.26 C 48.82 44.21 49.87 38.77 50.25 33.56 C 54.42 29.99 57.11 24.39 55.59 18.86 C 54.02 11.03 44.98 5.98 37.48 8.74 Z" />
<path fill="#ffffff" opacity="1.00" d=" M 34.89 14.71 C 39.04 11.10 45.95 11.05 49.54 15.46 C 53.04 19.28 52.43 25.23 49.39 29.13 C 46.97 22.43 41.72 16.95 34.89 14.71 Z" />
<path fill="#ffffff" opacity="1.00" d=" M 24.37 18.63 C 33.30 15.85 43.60 21.89 45.52 31.03 C 47.88 39.84 41.82 49.68 32.90 51.54 C 23.82 53.97 13.73 47.35 12.29 38.09 C 10.54 29.74 16.13 20.77 24.37 18.63 M 23.31 24.01 C 22.64 27.31 22.07 30.64 21.89 34.01 C 24.59 34.00 27.30 33.83 29.98 34.20 C 33.64 35.48 32.45 43.28 28.04 41.79 C 26.27 41.44 26.19 39.37 25.76 38.00 C 24.45 38.00 23.14 38.00 21.83 38.00 C 21.64 42.41 25.43 46.76 30.04 45.90 C 36.82 45.03 38.18 34.73 32.87 31.20 C 30.95 29.78 28.42 30.13 26.19 29.84 C 26.83 26.39 31.48 28.58 34.00 28.01 C 34.00 26.67 34.00 25.34 34.00 24.00 C 30.44 23.99 26.87 24.00 23.31 24.01 Z" />
</g>
<g id="#000000ff">
<path fill="#000000" opacity="1.00" d=" M 37.48 8.74 C 44.98 5.98 54.02 11.03 55.59 18.86 C 57.11 24.39 54.42 29.99 50.25 33.56 C 49.87 38.77 48.82 44.21 45.24 48.26 C 40.32 54.42 31.76 57.34 24.10 55.41 C 16.30 53.61 9.91 46.98 8.41 39.12 C 6.53 30.37 11.00 20.82 18.87 16.61 C 22.36 14.48 26.49 14.21 30.43 13.75 C 32.53 11.76 34.59 9.55 37.48 8.74 M 34.89 14.71 C 41.72 16.95 46.97 22.43 49.39 29.13 C 52.43 25.23 53.04 19.28 49.54 15.46 C 45.95 11.05 39.04 11.10 34.89 14.71 M 24.37 18.63 C 16.13 20.77 10.54 29.74 12.29 38.09 C 13.73 47.35 23.82 53.97 32.90 51.54 C 41.82 49.68 47.88 39.84 45.52 31.03 C 43.60 21.89 33.30 15.85 24.37 18.63 Z" />
<path fill="#000000" opacity="1.00" d=" M 23.31 24.01 C 26.87 24.00 30.44 23.99 34.00 24.00 C 34.00 25.34 34.00 26.67 34.00 28.01 C 31.48 28.58 26.83 26.39 26.19 29.84 C 28.42 30.13 30.95 29.78 32.87 31.20 C 38.18 34.73 36.82 45.03 30.04 45.90 C 25.43 46.76 21.64 42.41 21.83 38.00 C 23.14 38.00 24.45 38.00 25.76 38.00 C 26.19 39.37 26.27 41.44 28.04 41.79 C 32.45 43.28 33.64 35.48 29.98 34.20 C 27.30 33.83 24.59 34.00 21.89 34.01 C 22.07 30.64 22.64 27.31 23.31 24.01 Z" />
</g>
</svg>
