<?xml version="1.0" encoding="UTF-8" ?>
<!DOCTYPE svg PUBLIC "-//W3C//DTD SVG 1.1//EN" "http://www.w3.org/Graphics/SVG/1.1/DTD/svg11.dtd">
<svg width="64pt" height="64pt" viewBox="0 0 64 64" version="1.1" xmlns="http://www.w3.org/2000/svg">
<g id="#ffffffff">
<path fill="#ffffff" opacity="1.00" d=" M 0.00 0.00 L 64.00 0.00 L 64.00 64.00 L 0.00 64.00 L 0.00 0.00 M 28.00 4.00 C 28.00 6.67 28.00 9.33 28.00 12.00 C 26.66 12.00 25.33 12.00 24.00 12.00 C 24.01 13.33 24.01 14.67 24.00 16.00 C 24.84 16.00 26.52 16.00 27.36 16.00 C 23.52 22.68 19.66 29.34 15.79 36.00 C 13.86 36.00 11.93 36.00 10.00 36.00 C 10.00 34.66 10.00 33.33 10.00 32.00 C 8.66 32.01 7.33 32.01 6.00 32.00 C 6.00 34.66 6.00 37.33 6.00 40.00 C 8.49 39.99 10.99 40.01 13.48 40.00 C 11.17 44.00 8.85 47.99 6.54 51.99 C 11.36 52.01 16.18 52.00 21.00 52.00 C 20.99 53.33 20.99 54.66 21.00 56.00 C 19.67 56.00 18.33 56.00 17.00 56.00 C 17.01 57.33 17.01 58.67 17.00 60.00 C 19.66 60.00 22.33 60.00 25.00 60.00 C 25.00 57.33 25.00 54.67 25.00 52.00 C 30.00 52.00 35.00 52.00 40.00 52.00 C 40.00 54.67 40.00 57.33 40.00 60.00 C 42.67 60.00 45.33 60.00 48.00 60.00 C 47.99 58.67 47.99 57.33 48.00 56.00 C 46.67 56.00 45.33 56.00 44.00 56.00 C 44.01 54.66 44.01 53.33 44.00 52.00 C 48.49 52.00 52.99 52.00 57.48 52.00 C 55.16 48.00 52.84 44.01 50.53 40.01 C 53.02 40.01 55.51 39.99 58.00 40.00 C 58.00 37.33 58.00 34.67 58.00 32.00 C 56.67 32.01 55.33 32.01 54.00 32.00 C 54.00 33.33 54.00 34.66 54.00 36.00 C 52.07 36.00 50.14 36.00 48.21 36.00 C 44.35 29.34 40.49 22.68 36.65 16.02 C 37.49 16.01 39.17 16.00 40.00 15.99 C 39.99 14.66 39.99 13.33 40.00 12.00 C 38.67 12.00 37.33 12.00 36.00 12.00 C 36.00 9.33 35.99 6.67 36.00 4.00 C 33.33 4.00 30.67 4.00 28.00 4.00 Z" />
<path fill="#ffffff" opacity="1.00" d=" M 26.57 25.29 C 28.45 22.23 30.17 19.09 32.00 16.00 C 33.83 19.09 35.58 22.23 37.43 25.30 C 34.01 23.62 29.99 23.63 26.57 25.29 Z" />
<path fill="#ffffff" opacity="1.00" d=" M 22.56 34.00 C 25.23 30.72 29.10 27.30 33.67 28.25 C 36.88 29.13 39.37 31.52 41.46 34.00 C 38.75 37.27 34.88 40.70 30.28 39.73 C 27.11 38.83 24.61 36.49 22.56 34.00 M 32.00 39.77 C 34.60 36.39 34.54 31.57 32.00 28.18 C 29.46 31.57 29.40 36.39 32.00 39.77 Z" />
<path fill="#ffffff" opacity="1.00" d=" M 13.49 47.99 C 15.58 44.33 17.71 40.69 19.81 37.03 C 22.99 40.51 27.02 44.00 32.01 43.99 C 36.98 43.97 41.05 40.54 44.18 37.03 C 46.30 40.68 48.41 44.34 50.53 48.00 C 38.18 48.00 25.83 48.01 13.49 47.99 Z" />
</g>
<g id="#000000ff">
<path fill="#000000" opacity="1.00" d=" M 28.00 4.00 C 30.67 4.00 33.33 4.00 36.00 4.00 C 35.99 6.67 36.00 9.33 36.00 12.00 C 37.33 12.00 38.67 12.00 40.00 12.00 C 39.99 13.33 39.99 14.66 40.00 15.99 C 39.17 16.00 37.49 16.01 36.65 16.02 C 40.49 22.68 44.35 29.34 48.21 36.00 C 50.14 36.00 52.07 36.00 54.00 36.00 C 54.00 34.66 54.00 33.33 54.00 32.00 C 55.33 32.01 56.67 32.01 58.00 32.00 C 58.00 34.67 58.00 37.33 58.00 40.00 C 55.51 39.99 53.02 40.01 50.53 40.01 C 52.84 44.01 55.16 48.00 57.48 52.00 C 52.99 52.00 48.49 52.00 44.00 52.00 C 44.01 53.33 44.01 54.66 44.00 56.00 C 45.33 56.00 46.67 56.00 48.00 56.00 C 47.99 57.33 47.99 58.67 48.00 60.00 C 45.33 60.00 42.67 60.00 40.00 60.00 C 40.00 57.33 40.00 54.67 40.00 52.00 C 35.00 52.00 30.00 52.00 25.00 52.00 C 25.00 54.67 25.00 57.33 25.00 60.00 C 22.33 60.00 19.66 60.00 17.00 60.00 C 17.01 58.67 17.01 57.33 17.00 56.00 C 18.33 56.00 19.67 56.00 21.00 56.00 C 20.99 54.66 20.99 53.33 21.00 52.00 C 16.18 52.00 11.36 52.01 6.54 51.99 C 8.85 47.99 11.17 44.00 13.48 40.00 C 10.99 40.01 8.49 39.99 6.00 40.00 C 6.00 37.33 6.00 34.66 6.00 32.00 C 7.33 32.01 8.66 32.01 10.00 32.00 C 10.00 33.33 10.00 34.66 10.00 36.00 C 11.93 36.00 13.86 36.00 15.79 36.00 C 19.66 29.34 23.52 22.68 27.36 16.00 C 26.52 16.00 24.84 16.00 24.00 16.00 C 24.01 14.67 24.01 13.33 24.00 12.00 C 25.33 12.00 26.66 12.00 28.00 12.00 C 28.00 9.33 28.00 6.67 28.00 4.00 M 26.57 25.29 C 29.99 23.63 34.01 23.62 37.43 25.30 C 35.58 22.23 33.83 19.09 32.00 16.00 C 30.17 19.09 28.45 22.23 26.57 25.29 M 22.56 34.00 C 24.61 36.49 27.11 38.83 30.28 39.73 C 34.88 40.70 38.75 37.27 41.46 34.00 C 39.37 31.52 36.88 29.13 33.67 28.25 C 29.10 27.30 25.23 30.72 22.56 34.00 M 13.49 47.99 C 25.83 48.01 38.18 48.00 50.53 48.00 C 48.41 44.34 46.30 40.68 44.18 37.03 C 41.05 40.54 36.98 43.97 32.01 43.99 C 27.02 44.00 22.99 40.51 19.81 37.03 C 17.71 40.69 15.58 44.33 13.49 47.99 Z" />
<path fill="#000000" opacity="1.00" d=" M 32.00 39.77 C 29.40 36.39 29.46 31.57 32.00 28.18 C 34.54 31.57 34.60 36.39 32.00 39.77 Z" />
</g>
</svg>
