<?xml version="1.0" encoding="UTF-8" ?>
<!DOCTYPE svg PUBLIC "-//W3C//DTD SVG 1.1//EN" "http://www.w3.org/Graphics/SVG/1.1/DTD/svg11.dtd">
<svg width="64pt" height="64pt" viewBox="0 0 64 64" version="1.1" xmlns="http://www.w3.org/2000/svg">
<g id="#ffffffff">
<path fill="#ffffff" opacity="1.00" d=" M 0.00 0.00 L 64.00 0.00 L 64.00 41.54 C 63.12 35.54 60.36 30.03 58.50 24.30 C 57.29 20.33 53.66 18.05 50.08 16.48 C 48.67 13.91 47.19 10.88 43.97 10.27 C 39.70 8.97 35.58 12.04 34.21 15.99 C 32.74 15.99 31.26 15.99 29.79 15.99 C 28.45 12.40 25.00 9.37 20.96 10.08 C 17.44 10.40 15.17 13.42 14.07 16.51 C 10.28 17.82 6.78 20.45 5.54 24.42 C 3.70 29.82 1.39 35.08 0.00 40.62 L 0.00 0.00 Z" />
<path fill="#ffffff" opacity="1.00" d=" M 17.92 19.77 C 17.58 17.14 18.85 13.77 22.00 13.99 C 25.27 13.78 26.44 17.33 26.07 20.00 C 30.02 20.00 33.98 20.00 37.93 20.00 C 37.55 17.33 38.73 13.78 41.99 13.99 C 45.14 13.78 46.41 17.14 46.09 19.77 C 51.61 19.56 55.01 24.49 56.06 29.34 C 49.07 25.91 40.02 29.40 37.08 36.59 C 34.60 33.26 29.39 33.24 26.92 36.59 C 23.97 29.43 15.00 25.94 8.00 29.28 C 9.16 26.52 9.75 23.18 12.40 21.39 C 13.98 20.16 16.03 20.08 17.92 19.77 Z" />
<path fill="#ffffff" opacity="1.00" d=" M 10.46 32.65 C 17.06 29.83 25.04 36.00 23.90 43.10 C 23.46 50.56 13.67 54.71 7.96 49.95 C 1.75 45.68 3.35 35.00 10.46 32.65 Z" />
<path fill="#ffffff" opacity="1.00" d=" M 46.45 32.66 C 53.06 29.83 61.04 36.00 59.90 43.10 C 59.46 50.57 49.65 54.72 43.93 49.93 C 37.76 45.65 39.31 35.00 46.45 32.66 Z" />
<path fill="#ffffff" opacity="1.00" d=" M 31.20 38.10 C 33.65 37.14 35.14 40.87 32.79 41.90 C 30.34 42.87 28.87 39.13 31.20 38.10 Z" />
<path fill="#ffffff" opacity="1.00" d=" M 0.00 42.41 C 0.16 49.30 5.93 55.47 12.84 55.91 C 19.86 56.68 26.48 51.33 27.82 44.52 C 30.37 46.35 33.63 46.35 36.17 44.51 C 37.46 50.93 43.38 56.13 50.02 55.96 C 57.30 56.11 63.74 49.80 64.00 42.57 L 64.00 64.00 L 0.00 64.00 L 0.00 42.41 Z" />
</g>
<g id="#000000ff">
<path fill="#000000" opacity="1.00" d=" M 14.07 16.51 C 15.17 13.42 17.44 10.40 20.96 10.08 C 25.00 9.37 28.45 12.40 29.79 15.99 C 31.26 15.99 32.74 15.99 34.21 15.99 C 35.58 12.04 39.70 8.97 43.97 10.27 C 47.19 10.88 48.67 13.91 50.08 16.48 C 53.66 18.05 57.29 20.33 58.50 24.30 C 60.36 30.03 63.12 35.54 64.00 41.54 L 64.00 42.57 C 63.74 49.80 57.30 56.11 50.02 55.96 C 43.38 56.13 37.46 50.93 36.17 44.51 C 33.63 46.35 30.37 46.35 27.82 44.52 C 26.48 51.33 19.86 56.68 12.84 55.91 C 5.93 55.47 0.16 49.30 0.00 42.41 L 0.00 40.62 C 1.39 35.08 3.70 29.82 5.54 24.42 C 6.78 20.45 10.28 17.82 14.07 16.51 M 17.92 19.77 C 16.03 20.08 13.98 20.16 12.40 21.39 C 9.75 23.18 9.16 26.52 8.00 29.28 C 15.00 25.94 23.97 29.43 26.92 36.59 C 29.39 33.24 34.60 33.26 37.08 36.59 C 40.02 29.40 49.07 25.91 56.06 29.34 C 55.01 24.49 51.61 19.56 46.09 19.77 C 46.41 17.14 45.14 13.78 41.99 13.99 C 38.73 13.78 37.55 17.33 37.93 20.00 C 33.98 20.00 30.02 20.00 26.07 20.00 C 26.44 17.33 25.27 13.78 22.00 13.99 C 18.85 13.77 17.58 17.14 17.92 19.77 M 10.46 32.65 C 3.35 35.00 1.75 45.68 7.96 49.95 C 13.67 54.71 23.46 50.56 23.90 43.10 C 25.04 36.00 17.06 29.83 10.46 32.65 M 46.45 32.66 C 39.31 35.00 37.76 45.65 43.93 49.93 C 49.65 54.72 59.46 50.57 59.90 43.10 C 61.04 36.00 53.06 29.83 46.45 32.66 M 31.20 38.10 C 28.87 39.13 30.34 42.87 32.79 41.90 C 35.14 40.87 33.65 37.14 31.20 38.10 Z" />
</g>
</svg>
