<?xml version="1.0" encoding="UTF-8" ?>
<!DOCTYPE svg PUBLIC "-//W3C//DTD SVG 1.1//EN" "http://www.w3.org/Graphics/SVG/1.1/DTD/svg11.dtd">
<svg width="60pt" height="60pt" viewBox="0 0 60 60" version="1.1" xmlns="http://www.w3.org/2000/svg">
<g id="#ffffffff">
<path fill="#ffffff" opacity="1.00" d=" M 0.00 0.00 L 60.00 0.00 L 60.00 60.00 L 0.00 60.00 L 0.00 0.00 M 13.08 6.21 C 11.64 6.87 11.69 9.08 13.05 9.80 C 16.31 10.14 19.63 10.20 22.89 9.78 C 24.38 9.19 24.35 6.79 22.87 6.20 C 19.62 5.84 16.32 5.82 13.08 6.21 M 37.04 6.20 C 35.71 6.93 35.64 9.11 37.06 9.78 C 40.34 10.18 43.67 10.15 46.95 9.80 C 48.31 9.05 48.33 6.86 46.89 6.19 C 43.62 5.84 40.31 5.84 37.04 6.20 M 11.00 14.20 C 9.14 16.12 10.31 19.24 9.99 21.66 C 8.18 22.46 5.88 23.59 6.05 25.94 C 5.89 31.96 6.06 37.98 6.00 44.00 C 12.67 44.00 19.33 44.00 26.00 44.00 C 26.00 39.33 26.00 34.67 26.00 30.00 C 28.67 30.00 31.33 30.00 34.00 30.00 C 34.00 34.67 34.00 39.33 34.00 44.00 C 40.67 44.00 47.33 44.00 54.00 44.00 C 53.94 37.98 54.11 31.97 53.95 25.95 C 54.09 23.62 51.88 22.39 50.01 21.67 C 49.63 19.26 50.97 15.92 48.87 14.18 C 44.30 13.86 39.68 13.86 35.11 14.18 C 32.99 16.04 34.39 19.49 33.99 22.00 C 31.33 22.00 28.67 22.00 26.00 22.00 C 25.66 19.48 26.93 16.15 24.95 14.19 C 20.32 13.85 15.63 13.85 11.00 14.20 M 5.04 48.19 C 3.30 49.07 3.94 52.13 5.97 51.92 C 12.69 52.04 19.42 52.10 26.14 51.89 C 28.61 52.11 28.51 47.77 26.04 48.09 C 19.05 47.98 12.02 47.81 5.04 48.19 M 33.07 48.20 C 31.33 48.97 31.86 52.10 33.91 51.90 C 40.61 52.08 47.33 52.07 54.04 51.91 C 56.60 52.19 56.57 47.77 54.02 48.08 C 47.04 48.00 40.03 47.79 33.07 48.20 Z" />
</g>
<g id="#000000ff">
<path fill="#968176" opacity="1.00" d=" M 13.08 6.21 C 16.32 5.82 19.62 5.84 22.87 6.20 C 24.35 6.79 24.38 9.19 22.89 9.78 C 19.63 10.20 16.31 10.14 13.05 9.80 C 11.69 9.08 11.64 6.87 13.08 6.21 Z" />
<path fill="#968176" opacity="1.00" d=" M 37.04 6.20 C 40.31 5.84 43.62 5.84 46.89 6.19 C 48.33 6.86 48.31 9.05 46.95 9.80 C 43.67 10.15 40.34 10.18 37.06 9.78 C 35.64 9.11 35.71 6.93 37.04 6.20 Z" />
<path fill="#968176" opacity="1.00" d=" M 11.00 14.20 C 15.63 13.85 20.32 13.85 24.95 14.19 C 26.93 16.15 25.66 19.48 26.00 22.00 C 28.67 22.00 31.33 22.00 33.99 22.00 C 34.39 19.49 32.99 16.04 35.11 14.18 C 39.68 13.86 44.30 13.86 48.87 14.18 C 50.97 15.92 49.63 19.26 50.01 21.67 C 51.88 22.39 54.09 23.62 53.95 25.95 C 54.11 31.97 53.94 37.98 54.00 44.00 C 47.33 44.00 40.67 44.00 34.00 44.00 C 34.00 39.33 34.00 34.67 34.00 30.00 C 31.33 30.00 28.67 30.00 26.00 30.00 C 26.00 34.67 26.00 39.33 26.00 44.00 C 19.33 44.00 12.67 44.00 6.00 44.00 C 6.06 37.98 5.89 31.96 6.05 25.94 C 5.88 23.59 8.18 22.46 9.99 21.66 C 10.31 19.24 9.14 16.12 11.00 14.20 Z" />
<path fill="#968176" opacity="1.00" d=" M 5.04 48.19 C 12.02 47.81 19.05 47.98 26.04 48.09 C 28.51 47.77 28.61 52.11 26.14 51.89 C 19.42 52.10 12.69 52.04 5.97 51.92 C 3.94 52.13 3.30 49.07 5.04 48.19 Z" />
<path fill="#968176" opacity="1.00" d=" M 33.07 48.20 C 40.03 47.79 47.04 48.00 54.02 48.08 C 56.57 47.77 56.60 52.19 54.04 51.91 C 47.33 52.07 40.61 52.08 33.91 51.90 C 31.86 52.10 31.33 48.97 33.07 48.20 Z" />
</g>
</svg>
