<?xml version="1.0" encoding="UTF-8" ?>
<!DOCTYPE svg PUBLIC "-//W3C//DTD SVG 1.1//EN" "http://www.w3.org/Graphics/SVG/1.1/DTD/svg11.dtd">
<svg width="64pt" height="64pt" viewBox="0 0 64 64" version="1.1" xmlns="http://www.w3.org/2000/svg">
<g id="#ffffffff">
<path fill="#ffffff" opacity="1.00" d=" M 0.00 0.00 L 64.00 0.00 L 64.00 64.00 L 0.00 64.00 L 0.00 0.00 M 14.01 8.00 C 14.01 10.00 14.01 12.00 14.00 14.00 C 15.33 14.00 16.66 14.00 17.99 14.00 C 17.99 12.00 17.99 10.00 18.00 8.00 C 16.66 8.00 15.34 8.00 14.01 8.00 M 22.00 8.00 C 22.01 10.00 22.01 12.00 22.01 14.00 C 23.33 14.00 24.66 14.00 25.99 14.00 C 25.99 12.00 25.99 10.00 25.99 8.00 C 24.66 8.00 23.33 8.00 22.00 8.00 M 30.01 8.00 C 30.01 10.00 30.01 12.00 30.01 14.00 C 31.33 14.00 32.66 14.00 33.99 14.00 C 33.99 12.00 33.99 10.00 34.00 8.00 C 32.66 8.00 31.33 8.00 30.01 8.00 M 38.00 8.00 C 38.01 10.00 38.01 12.00 38.01 14.00 C 39.34 14.00 40.67 14.00 42.00 14.00 C 41.99 12.00 41.99 10.00 41.99 8.00 C 40.66 8.00 39.33 8.00 38.00 8.00 M 46.01 8.00 C 46.01 10.00 46.01 12.00 46.00 14.00 C 47.33 14.00 48.66 14.00 49.99 14.00 C 49.99 12.00 49.99 10.00 50.00 8.00 C 48.67 8.00 47.34 8.00 46.01 8.00 M 6.01 16.01 C 5.99 26.67 5.99 37.33 6.01 47.99 C 23.34 48.01 40.66 48.01 57.99 47.99 C 58.01 37.33 58.01 26.67 57.99 16.01 C 40.66 15.99 23.34 16.00 6.01 16.01 M 14.01 50.00 C 14.01 52.00 14.01 54.00 14.01 56.00 C 15.33 56.00 16.66 56.00 18.00 56.00 C 17.99 54.00 17.99 52.00 17.99 50.00 C 16.66 50.00 15.33 50.00 14.01 50.00 M 22.00 50.00 C 22.01 52.00 22.01 54.00 22.01 56.00 C 23.33 56.00 24.66 56.00 26.00 56.00 C 25.99 54.00 25.99 52.00 25.99 50.00 C 24.66 50.00 23.33 50.00 22.00 50.00 M 30.01 50.00 C 30.01 52.00 30.01 54.00 30.01 56.00 C 31.33 56.00 32.66 56.00 33.99 56.00 C 33.99 54.00 33.99 52.00 34.00 50.00 C 32.66 50.00 31.33 50.00 30.01 50.00 M 38.01 50.00 C 38.01 52.00 38.01 54.00 38.00 56.00 C 39.33 56.00 40.66 56.00 41.99 56.00 C 41.99 54.00 41.99 52.00 41.99 50.00 C 40.66 50.00 39.33 50.00 38.01 50.00 M 46.00 50.00 C 46.01 52.00 46.01 54.00 46.01 56.00 C 47.33 56.00 48.66 56.00 50.00 56.00 C 49.99 54.00 49.99 52.00 49.99 50.00 C 48.66 50.00 47.33 50.00 46.00 50.00 Z" />
<path fill="#ffffff" opacity="1.00" d=" M 10.01 20.01 C 24.67 19.99 39.33 19.99 53.99 20.01 C 54.01 28.00 54.01 36.00 53.99 43.99 C 39.33 44.01 24.67 44.00 10.01 43.99 C 9.99 36.00 9.99 28.00 10.01 20.01 M 15.50 34.45 C 12.12 36.13 15.23 41.74 18.50 39.55 C 21.88 37.87 18.77 32.27 15.50 34.45 Z" />
</g>
<g id="#000000ff">
<path fill="#000000" opacity="1.00" d=" M 14.01 8.00 C 15.34 8.00 16.66 8.00 18.00 8.00 C 17.99 10.00 17.99 12.00 17.99 14.00 C 16.66 14.00 15.33 14.00 14.00 14.00 C 14.01 12.00 14.01 10.00 14.01 8.00 Z" />
<path fill="#000000" opacity="1.00" d=" M 22.00 8.00 C 23.33 8.00 24.66 8.00 25.99 8.00 C 25.99 10.00 25.99 12.00 25.99 14.00 C 24.66 14.00 23.33 14.00 22.01 14.00 C 22.01 12.00 22.01 10.00 22.00 8.00 Z" />
<path fill="#000000" opacity="1.00" d=" M 30.01 8.00 C 31.33 8.00 32.66 8.00 34.00 8.00 C 33.99 10.00 33.99 12.00 33.99 14.00 C 32.66 14.00 31.33 14.00 30.01 14.00 C 30.01 12.00 30.01 10.00 30.01 8.00 Z" />
<path fill="#000000" opacity="1.00" d=" M 38.00 8.00 C 39.33 8.00 40.66 8.00 41.99 8.00 C 41.99 10.00 41.99 12.00 42.00 14.00 C 40.67 14.00 39.34 14.00 38.01 14.00 C 38.01 12.00 38.01 10.00 38.00 8.00 Z" />
<path fill="#000000" opacity="1.00" d=" M 46.01 8.00 C 47.34 8.00 48.67 8.00 50.00 8.00 C 49.99 10.00 49.99 12.00 49.99 14.00 C 48.66 14.00 47.33 14.00 46.00 14.00 C 46.01 12.00 46.01 10.00 46.01 8.00 Z" />
<path fill="#000000" opacity="1.00" d=" M 6.01 16.01 C 23.34 16.00 40.66 15.99 57.99 16.01 C 58.01 26.67 58.01 37.33 57.99 47.99 C 40.66 48.01 23.34 48.01 6.01 47.99 C 5.99 37.33 5.99 26.67 6.01 16.01 M 10.01 20.01 C 9.99 28.00 9.99 36.00 10.01 43.99 C 24.67 44.00 39.33 44.01 53.99 43.99 C 54.01 36.00 54.01 28.00 53.99 20.01 C 39.33 19.99 24.67 19.99 10.01 20.01 Z" />
<path fill="#000000" opacity="1.00" d=" M 15.50 34.45 C 18.77 32.27 21.88 37.87 18.50 39.55 C 15.23 41.74 12.12 36.13 15.50 34.45 Z" />
<path fill="#000000" opacity="1.00" d=" M 14.01 50.00 C 15.33 50.00 16.66 50.00 17.99 50.00 C 17.99 52.00 17.99 54.00 18.00 56.00 C 16.66 56.00 15.33 56.00 14.01 56.00 C 14.01 54.00 14.01 52.00 14.01 50.00 Z" />
<path fill="#000000" opacity="1.00" d=" M 22.00 50.00 C 23.33 50.00 24.66 50.00 25.99 50.00 C 25.99 52.00 25.99 54.00 26.00 56.00 C 24.66 56.00 23.33 56.00 22.01 56.00 C 22.01 54.00 22.01 52.00 22.00 50.00 Z" />
<path fill="#000000" opacity="1.00" d=" M 30.01 50.00 C 31.33 50.00 32.66 50.00 34.00 50.00 C 33.99 52.00 33.99 54.00 33.99 56.00 C 32.66 56.00 31.33 56.00 30.01 56.00 C 30.01 54.00 30.01 52.00 30.01 50.00 Z" />
<path fill="#000000" opacity="1.00" d=" M 38.01 50.00 C 39.33 50.00 40.66 50.00 41.99 50.00 C 41.99 52.00 41.99 54.00 41.99 56.00 C 40.66 56.00 39.33 56.00 38.00 56.00 C 38.01 54.00 38.01 52.00 38.01 50.00 Z" />
<path fill="#000000" opacity="1.00" d=" M 46.00 50.00 C 47.33 50.00 48.66 50.00 49.99 50.00 C 49.99 52.00 49.99 54.00 50.00 56.00 C 48.66 56.00 47.33 56.00 46.01 56.00 C 46.01 54.00 46.01 52.00 46.00 50.00 Z" />
</g>
</svg>
