<?xml version="1.0" encoding="UTF-8" ?>
<!DOCTYPE svg PUBLIC "-//W3C//DTD SVG 1.1//EN" "http://www.w3.org/Graphics/SVG/1.1/DTD/svg11.dtd">
<svg width="60pt" height="60pt" viewBox="0 0 60 60" version="1.1" xmlns="http://www.w3.org/2000/svg">
<g id="#ffffffff">
<path fill="#ffffff" opacity="1.00" d=" M 0.00 0.00 L 60.00 0.00 L 60.00 60.00 L 0.00 60.00 L 0.00 0.00 M 27.48 6.66 C 25.28 8.10 22.78 8.63 20.17 8.56 C 17.51 8.59 16.07 11.02 14.86 13.03 C 13.58 15.37 10.35 15.71 9.14 18.12 C 7.87 20.42 9.08 23.30 7.65 25.54 C 6.99 26.99 5.92 28.36 5.99 30.03 C 6.01 32.27 7.73 33.96 8.30 36.05 C 8.60 38.42 8.09 41.23 10.00 43.07 C 11.29 44.10 12.77 44.86 14.07 45.89 C 15.62 47.67 16.37 50.37 18.83 51.17 C 20.50 51.66 22.27 51.46 23.98 51.69 C 26.32 52.40 28.36 54.51 30.98 53.92 C 32.78 53.43 34.27 52.23 36.05 51.69 C 38.41 51.39 41.20 51.89 43.04 50.01 C 44.12 48.72 44.86 47.19 45.92 45.89 C 47.70 44.37 50.34 43.62 51.16 41.21 C 51.65 39.54 51.46 37.77 51.68 36.06 C 52.37 33.68 54.53 31.63 53.91 28.97 C 53.41 27.20 52.23 25.72 51.69 23.96 C 51.39 21.61 51.89 18.86 50.06 17.00 C 48.77 15.90 47.23 15.16 45.92 14.10 C 44.50 12.50 43.84 10.17 41.85 9.14 C 39.54 7.88 36.64 9.08 34.40 7.62 C 32.34 6.42 29.76 5.19 27.48 6.66 Z" />
<path fill="#ffffff" opacity="1.00" d=" M 29.24 12.18 C 31.54 11.01 33.24 15.01 30.75 15.83 C 28.46 17.01 26.77 12.97 29.24 12.18 Z" />
<path fill="#ffffff" opacity="1.00" d=" M 21.28 20.15 C 23.58 19.14 25.10 22.80 22.87 23.89 C 20.45 24.99 18.75 21.02 21.28 20.15 Z" />
<path fill="#ffffff" opacity="1.00" d=" M 37.19 20.20 C 39.50 18.98 41.20 22.86 38.81 23.89 C 36.48 24.91 34.77 21.13 37.19 20.20 Z" />
<path fill="#ffffff" opacity="1.00" d=" M 13.25 28.14 C 15.59 27.07 17.21 31.00 14.75 31.83 C 12.45 33.00 10.76 28.97 13.25 28.14 Z" />
<path fill="#ffffff" opacity="1.00" d=" M 29.17 28.10 C 31.59 27.14 33.12 30.76 30.84 31.89 C 28.41 32.87 26.86 29.21 29.17 28.10 Z" />
<path fill="#ffffff" opacity="1.00" d=" M 45.24 28.17 C 47.58 27.03 49.17 30.97 46.76 31.90 C 44.40 32.88 42.80 29.03 45.24 28.17 Z" />
<path fill="#ffffff" opacity="1.00" d=" M 21.24 36.18 C 23.51 34.98 25.25 39.01 22.76 39.82 C 20.49 41.03 18.75 36.97 21.24 36.18 Z" />
<path fill="#ffffff" opacity="1.00" d=" M 37.25 36.17 C 39.50 35.00 41.24 38.98 38.79 39.79 C 36.52 41.09 34.72 36.96 37.25 36.17 Z" />
<path fill="#ffffff" opacity="1.00" d=" M 29.20 44.15 C 31.59 43.05 33.16 46.91 30.77 47.90 C 28.40 48.85 26.83 45.13 29.20 44.15 Z" />
</g>
<g id="#000000ff">
<path fill="#000000" opacity="1.00" d=" M 27.48 6.66 C 29.76 5.19 32.34 6.42 34.40 7.62 C 36.64 9.08 39.54 7.88 41.85 9.14 C 43.84 10.17 44.50 12.50 45.92 14.10 C 47.23 15.16 48.77 15.90 50.06 17.00 C 51.89 18.86 51.39 21.61 51.69 23.96 C 52.23 25.72 53.41 27.20 53.91 28.97 C 54.53 31.63 52.37 33.68 51.68 36.06 C 51.46 37.77 51.65 39.54 51.16 41.21 C 50.34 43.62 47.70 44.37 45.92 45.89 C 44.86 47.19 44.12 48.72 43.04 50.01 C 41.20 51.89 38.41 51.39 36.05 51.69 C 34.27 52.23 32.78 53.43 30.98 53.92 C 28.36 54.51 26.32 52.40 23.98 51.69 C 22.27 51.46 20.50 51.66 18.83 51.17 C 16.37 50.37 15.62 47.67 14.07 45.89 C 12.77 44.86 11.29 44.10 10.00 43.07 C 8.09 41.23 8.60 38.42 8.30 36.05 C 7.73 33.96 6.01 32.27 5.99 30.03 C 5.92 28.36 6.99 26.99 7.65 25.54 C 9.08 23.30 7.87 20.42 9.14 18.12 C 10.35 15.71 13.58 15.37 14.86 13.03 C 16.07 11.02 17.51 8.59 20.17 8.56 C 22.78 8.63 25.28 8.10 27.48 6.66 M 29.24 12.18 C 26.77 12.97 28.46 17.01 30.75 15.83 C 33.24 15.01 31.54 11.01 29.24 12.18 M 21.28 20.15 C 18.75 21.02 20.45 24.99 22.87 23.89 C 25.10 22.80 23.58 19.14 21.28 20.15 M 37.19 20.20 C 34.77 21.13 36.48 24.91 38.81 23.89 C 41.20 22.86 39.50 18.98 37.19 20.20 M 13.25 28.14 C 10.76 28.97 12.45 33.00 14.75 31.83 C 17.21 31.00 15.59 27.07 13.25 28.14 M 29.17 28.10 C 26.86 29.21 28.41 32.87 30.84 31.89 C 33.12 30.76 31.59 27.14 29.17 28.10 M 45.24 28.17 C 42.80 29.03 44.40 32.88 46.76 31.90 C 49.17 30.97 47.58 27.03 45.24 28.17 M 21.24 36.18 C 18.75 36.97 20.49 41.03 22.76 39.82 C 25.25 39.01 23.51 34.98 21.24 36.18 M 37.25 36.17 C 34.72 36.96 36.52 41.09 38.79 39.79 C 41.24 38.98 39.50 35.00 37.25 36.17 M 29.20 44.15 C 26.83 45.13 28.40 48.85 30.77 47.90 C 33.16 46.91 31.59 43.05 29.20 44.15 Z" />
</g>
</svg>
