<?xml version="1.0" encoding="UTF-8" ?>
<!DOCTYPE svg PUBLIC "-//W3C//DTD SVG 1.1//EN" "http://www.w3.org/Graphics/SVG/1.1/DTD/svg11.dtd">
<svg width="60pt" height="60pt" viewBox="0 0 60 60" version="1.1" xmlns="http://www.w3.org/2000/svg">
<g id="#ffffffff">
<path fill="#ffffff" opacity="1.00" d=" M 0.00 0.00 L 60.00 0.00 L 60.00 60.00 L 0.00 60.00 L 0.00 0.00 M 39.40 6.63 C 35.79 7.87 32.92 11.10 32.23 14.87 C 30.83 20.98 35.68 27.46 41.90 27.91 C 48.51 28.81 54.77 22.56 53.92 15.95 C 53.50 9.12 45.81 4.14 39.40 6.63 M 4.00 34.02 C 4.00 39.35 4.00 44.68 4.00 50.00 C 7.35 48.71 10.49 46.80 14.01 45.98 C 21.26 47.98 27.89 51.85 35.09 54.02 C 39.31 52.55 42.94 49.81 46.92 47.83 C 49.76 46.09 52.99 44.90 55.48 42.66 C 57.13 40.60 54.71 37.15 52.22 38.20 C 46.74 39.93 41.76 43.07 36.10 44.27 C 37.41 42.88 38.99 40.50 37.06 38.89 C 33.40 36.64 29.24 35.35 25.36 33.51 C 22.26 32.28 19.32 30.42 15.96 30.00 C 11.80 30.73 8.02 32.78 4.00 34.02 Z" />
<path fill="#ffffff" opacity="1.00" d=" M 42.01 9.99 C 42.42 9.99 43.24 10.00 43.65 10.00 C 43.80 12.39 47.33 12.46 46.99 15.03 C 46.65 15.38 45.98 16.08 45.65 16.44 C 46.53 17.46 47.87 18.48 47.35 20.05 C 46.35 21.66 43.80 21.80 43.67 24.00 C 43.25 24.00 42.43 24.01 42.01 24.01 C 42.01 23.51 41.99 22.52 41.99 22.03 C 41.36 22.01 40.10 21.97 39.47 21.96 C 39.50 18.65 39.50 15.34 39.48 12.03 C 40.10 12.02 41.36 11.99 41.99 11.98 C 41.99 11.48 42.00 10.49 42.01 9.99 M 41.90 14.12 C 40.63 15.63 43.53 16.82 44.49 15.65 C 45.77 14.07 42.89 12.86 41.90 14.12 M 41.59 17.36 C 41.59 18.17 41.60 19.79 41.60 20.59 C 42.48 20.44 44.24 20.14 45.12 19.99 C 46.12 17.34 43.30 17.68 41.59 17.36 Z" />
</g>
<g id="#000000ff">
<path fill="#000000" opacity="1.00" d=" M 39.40 6.63 C 45.81 4.14 53.50 9.12 53.92 15.95 C 54.77 22.56 48.51 28.81 41.90 27.91 C 35.68 27.46 30.83 20.98 32.23 14.87 C 32.92 11.10 35.79 7.87 39.40 6.63 M 42.01 9.99 C 42.00 10.49 41.99 11.48 41.99 11.98 C 41.36 11.99 40.10 12.02 39.48 12.03 C 39.50 15.34 39.50 18.65 39.47 21.96 C 40.10 21.97 41.36 22.01 41.99 22.03 C 41.99 22.52 42.01 23.51 42.01 24.01 C 42.43 24.01 43.25 24.00 43.67 24.00 C 43.80 21.80 46.35 21.66 47.35 20.05 C 47.87 18.48 46.53 17.46 45.65 16.44 C 45.98 16.08 46.65 15.38 46.99 15.03 C 47.33 12.46 43.80 12.39 43.65 10.00 C 43.24 10.00 42.42 9.99 42.01 9.99 Z" />
<path fill="#000000" opacity="1.00" d=" M 41.90 14.12 C 42.89 12.86 45.77 14.07 44.49 15.65 C 43.53 16.82 40.63 15.63 41.90 14.12 Z" />
<path fill="#000000" opacity="1.00" d=" M 41.59 17.36 C 43.30 17.68 46.12 17.34 45.12 19.99 C 44.24 20.14 42.48 20.44 41.60 20.59 C 41.60 19.79 41.59 18.17 41.59 17.36 Z" />
<path fill="#000000" opacity="1.00" d=" M 4.00 34.02 C 8.02 32.78 11.80 30.73 15.96 30.00 C 19.32 30.42 22.26 32.28 25.36 33.51 C 29.24 35.35 33.40 36.64 37.06 38.89 C 38.99 40.50 37.41 42.88 36.10 44.27 C 41.76 43.07 46.74 39.93 52.22 38.20 C 54.71 37.15 57.13 40.60 55.48 42.66 C 52.99 44.90 49.76 46.09 46.92 47.83 C 42.94 49.81 39.31 52.55 35.09 54.02 C 27.89 51.85 21.26 47.98 14.01 45.98 C 10.49 46.80 7.35 48.71 4.00 50.00 C 4.00 44.68 4.00 39.35 4.00 34.02 Z" />
</g>
</svg>
