<?xml version="1.0" encoding="UTF-8" ?>
<!DOCTYPE svg PUBLIC "-//W3C//DTD SVG 1.1//EN" "http://www.w3.org/Graphics/SVG/1.1/DTD/svg11.dtd">
<svg width="60pt" height="60pt" viewBox="0 0 60 60" version="1.1" xmlns="http://www.w3.org/2000/svg">
<g id="#ffffffff">
<path fill="#ffffff" opacity="1.00" d=" M 0.00 0.00 L 60.00 0.00 L 60.00 60.00 L 0.00 60.00 L 0.00 0.00 M 16.55 11.44 C 12.80 16.90 14.25 23.82 14.03 30.01 C 13.90 37.18 19.20 43.62 25.99 45.53 C 25.98 48.01 25.90 50.51 26.13 52.98 C 26.79 56.18 31.51 57.09 33.25 54.27 C 34.66 51.63 33.78 48.41 34.01 45.53 C 38.07 44.23 41.82 41.66 43.88 37.85 C 47.03 32.42 45.78 25.91 45.97 19.94 C 46.21 17.00 42.39 16.93 40.93 15.04 C 38.35 12.78 38.18 9.27 37.66 6.13 C 30.75 1.68 20.73 4.53 16.55 11.44 Z" />
<path fill="#ffffff" opacity="1.00" d=" M 18.11 18.88 C 18.47 11.35 27.10 5.83 34.08 8.87 C 34.51 13.83 37.57 18.26 41.97 20.54 C 41.80 26.74 43.38 34.33 38.01 38.90 C 32.25 44.53 21.42 41.94 18.83 34.31 C 17.34 29.34 18.13 24.00 18.11 18.88 Z" />
</g>
<g id="#000000ff">
<path fill="#968176" opacity="1.00" d=" M 16.55 11.44 C 20.73 4.53 30.75 1.68 37.66 6.13 C 38.18 9.27 38.35 12.78 40.93 15.04 C 42.39 16.93 46.21 17.00 45.97 19.94 C 45.78 25.91 47.03 32.42 43.88 37.85 C 41.82 41.66 38.07 44.23 34.01 45.53 C 33.78 48.41 34.66 51.63 33.25 54.27 C 31.51 57.09 26.79 56.18 26.13 52.98 C 25.90 50.51 25.98 48.01 25.99 45.53 C 19.20 43.62 13.90 37.18 14.03 30.01 C 14.25 23.82 12.80 16.90 16.55 11.44 M 18.11 18.88 C 18.13 24.00 17.34 29.34 18.83 34.31 C 21.42 41.94 32.25 44.53 38.01 38.90 C 43.38 34.33 41.80 26.74 41.97 20.54 C 37.57 18.26 34.51 13.83 34.08 8.87 C 27.10 5.83 18.47 11.35 18.11 18.88 Z" />
</g>
</svg>
