<?xml version="1.0" encoding="UTF-8" ?>
<!DOCTYPE svg PUBLIC "-//W3C//DTD SVG 1.1//EN" "http://www.w3.org/Graphics/SVG/1.1/DTD/svg11.dtd">
<svg width="60pt" height="60pt" viewBox="0 0 60 60" version="1.1" xmlns="http://www.w3.org/2000/svg">
<g id="#ffffffff">
<path fill="#ffffff" opacity="1.00" d=" M 0.00 0.00 L 60.00 0.00 L 60.00 60.00 L 0.00 60.00 L 0.00 0.00 M 18.30 7.24 C 17.08 12.76 13.01 17.18 12.20 22.81 C 11.13 32.88 15.53 42.31 17.92 51.86 C 17.81 54.55 22.18 54.66 21.92 51.94 C 20.20 43.16 16.11 34.85 16.00 25.77 C 20.55 28.33 25.70 31.01 27.89 36.04 C 28.32 41.63 27.63 47.27 28.19 52.85 C 28.83 54.37 31.13 54.36 31.80 52.87 C 32.38 47.28 31.68 41.64 32.11 36.04 C 34.32 31.04 39.40 28.27 44.02 25.84 C 43.83 34.90 39.79 43.19 38.07 51.95 C 37.83 54.70 42.22 54.51 42.09 51.82 C 44.39 42.63 48.49 33.63 47.91 23.97 C 47.73 18.34 43.56 14.04 42.21 8.76 C 41.78 7.73 41.63 5.66 40.00 6.04 C 38.41 5.80 37.65 7.77 38.18 9.05 C 39.07 13.77 42.17 17.64 43.71 22.13 C 34.86 24.70 25.13 24.71 16.29 22.13 C 17.91 17.34 21.39 13.21 21.94 8.07 C 22.37 5.97 18.70 5.04 18.30 7.24 M 29.90 22.30 C 30.36 21.73 31.29 20.57 31.76 20.00 C 31.30 19.42 30.38 18.25 29.91 17.67 C 28.32 19.07 28.33 20.89 29.90 22.30 Z" />
</g>
<g id="#000000ff">
<path fill="#000000" opacity="1.00" d=" M 18.30 7.24 C 18.70 5.04 22.37 5.97 21.94 8.07 C 21.39 13.21 17.91 17.34 16.29 22.13 C 25.13 24.71 34.86 24.70 43.71 22.13 C 42.17 17.64 39.07 13.77 38.18 9.05 C 37.65 7.77 38.41 5.80 40.00 6.04 C 41.63 5.66 41.78 7.73 42.21 8.76 C 43.56 14.04 47.73 18.34 47.91 23.97 C 48.49 33.63 44.39 42.63 42.09 51.82 C 42.22 54.51 37.83 54.70 38.07 51.95 C 39.79 43.19 43.83 34.90 44.02 25.84 C 39.40 28.27 34.32 31.04 32.11 36.04 C 31.68 41.64 32.38 47.28 31.80 52.87 C 31.13 54.36 28.83 54.37 28.19 52.85 C 27.63 47.27 28.32 41.63 27.89 36.04 C 25.70 31.01 20.55 28.33 16.00 25.77 C 16.11 34.85 20.20 43.16 21.92 51.94 C 22.18 54.66 17.81 54.55 17.92 51.86 C 15.53 42.31 11.13 32.88 12.20 22.81 C 13.01 17.18 17.08 12.76 18.30 7.24 Z" />
<path fill="#000000" opacity="1.00" d=" M 29.90 22.30 C 28.33 20.89 28.32 19.07 29.91 17.67 C 30.38 18.25 31.30 19.42 31.76 20.00 C 31.29 20.57 30.36 21.73 29.90 22.30 Z" />
</g>
</svg>
