<?xml version="1.0" encoding="UTF-8" ?>
<!DOCTYPE svg PUBLIC "-//W3C//DTD SVG 1.1//EN" "http://www.w3.org/Graphics/SVG/1.1/DTD/svg11.dtd">
<svg width="64pt" height="64pt" viewBox="0 0 64 64" version="1.1" xmlns="http://www.w3.org/2000/svg">
<g id="#ffffffff">
<path fill="#ffffff" opacity="1.00" d=" M 0.00 0.00 L 64.00 0.00 L 64.00 64.00 L 0.00 64.00 L 0.00 0.00 M 24.48 8.62 C 21.09 9.31 15.78 10.45 16.02 14.89 C 15.97 25.62 16.00 36.35 16.01 47.08 C 15.63 50.96 19.34 53.34 22.53 54.48 C 28.59 56.52 35.37 56.50 41.44 54.50 C 44.67 53.41 48.36 50.93 47.99 47.05 C 48.00 36.33 48.03 25.62 47.98 14.90 C 48.36 11.69 45.05 10.05 42.46 9.32 C 36.63 7.71 30.43 7.69 24.48 8.62 Z" />
<path fill="#ffffff" opacity="1.00" d=" M 20.02 14.04 C 27.65 11.25 36.35 11.25 43.99 14.04 C 43.90 18.31 44.24 22.59 43.83 26.84 C 43.58 27.09 43.09 27.58 42.84 27.83 C 35.61 28.12 28.34 28.12 21.12 27.83 C 20.88 27.59 20.41 27.12 20.17 26.88 C 19.76 22.62 20.10 18.32 20.02 14.04 Z" />
<path fill="#ffffff" opacity="1.00" d=" M 19.99 31.82 C 27.99 32.11 36.01 32.11 44.01 31.82 C 43.90 37.25 44.19 42.69 43.89 48.12 C 41.19 51.63 36.11 51.75 32.06 51.99 C 27.98 51.76 22.78 51.67 20.11 48.08 C 19.81 42.67 20.10 37.24 19.99 31.82 M 22.00 34.00 C 22.00 35.33 22.00 36.67 22.00 38.00 C 23.33 38.00 24.67 38.00 26.00 38.00 C 26.00 36.67 26.00 35.33 26.00 34.00 C 24.67 34.00 23.33 34.00 22.00 34.00 M 28.00 34.00 C 28.00 35.33 28.00 36.67 28.00 38.00 C 30.67 38.00 33.33 38.00 36.00 38.00 C 36.00 36.67 36.00 35.33 36.00 34.00 C 33.33 34.00 30.67 34.00 28.00 34.00 M 38.00 34.00 C 38.00 35.33 38.00 36.67 38.00 38.00 C 39.33 38.00 40.67 38.00 42.00 38.00 C 42.00 36.67 42.00 35.33 42.00 34.00 C 40.67 34.00 39.33 34.00 38.00 34.00 Z" />
</g>
<g id="#000000ff">
<path fill="#000000" opacity="1.00" d=" M 24.48 8.62 C 30.43 7.69 36.63 7.71 42.46 9.32 C 45.05 10.05 48.36 11.69 47.98 14.90 C 48.03 25.62 48.00 36.33 47.99 47.05 C 48.36 50.93 44.67 53.41 41.44 54.50 C 35.37 56.50 28.59 56.52 22.53 54.48 C 19.34 53.34 15.63 50.96 16.01 47.08 C 16.00 36.35 15.97 25.62 16.02 14.89 C 15.78 10.45 21.09 9.31 24.48 8.62 M 20.02 14.04 C 20.10 18.32 19.76 22.62 20.17 26.88 C 20.41 27.12 20.88 27.59 21.12 27.83 C 28.34 28.12 35.61 28.12 42.84 27.83 C 43.09 27.58 43.58 27.09 43.83 26.84 C 44.24 22.59 43.90 18.31 43.99 14.04 C 36.35 11.25 27.65 11.25 20.02 14.04 M 19.99 31.82 C 20.10 37.24 19.81 42.67 20.11 48.08 C 22.78 51.67 27.98 51.76 32.06 51.99 C 36.11 51.75 41.19 51.63 43.89 48.12 C 44.19 42.69 43.90 37.25 44.01 31.82 C 36.01 32.11 27.99 32.11 19.99 31.82 Z" />
<path fill="#000000" opacity="1.00" d=" M 22.00 34.00 C 23.33 34.00 24.67 34.00 26.00 34.00 C 26.00 35.33 26.00 36.67 26.00 38.00 C 24.67 38.00 23.33 38.00 22.00 38.00 C 22.00 36.67 22.00 35.33 22.00 34.00 Z" />
<path fill="#000000" opacity="1.00" d=" M 28.00 34.00 C 30.67 34.00 33.33 34.00 36.00 34.00 C 36.00 35.33 36.00 36.67 36.00 38.00 C 33.33 38.00 30.67 38.00 28.00 38.00 C 28.00 36.67 28.00 35.33 28.00 34.00 Z" />
<path fill="#000000" opacity="1.00" d=" M 38.00 34.00 C 39.33 34.00 40.67 34.00 42.00 34.00 C 42.00 35.33 42.00 36.67 42.00 38.00 C 40.67 38.00 39.33 38.00 38.00 38.00 C 38.00 36.67 38.00 35.33 38.00 34.00 Z" />
</g>
</svg>
