<?xml version="1.0" encoding="UTF-8" ?>
<!DOCTYPE svg PUBLIC "-//W3C//DTD SVG 1.1//EN" "http://www.w3.org/Graphics/SVG/1.1/DTD/svg11.dtd">
<svg width="64pt" height="64pt" viewBox="0 0 64 64" version="1.1" xmlns="http://www.w3.org/2000/svg">
<g id="#ffffffff">
<path fill="#ffffff" opacity="1.00" d=" M 0.00 0.00 L 64.00 0.00 L 64.00 64.00 L 0.00 64.00 L 0.00 0.00 M 8.04 11.99 C 7.36 25.23 10.62 39.83 3.84 51.94 C 22.70 52.04 41.55 52.09 60.41 51.81 C 58.63 48.72 55.92 45.92 56.35 41.97 C 55.60 31.99 55.94 21.99 55.94 12.00 C 39.98 12.00 24.01 12.02 8.04 11.99 Z" />
<path fill="#ffffff" opacity="1.00" d=" M 12.00 15.99 C 25.33 16.02 38.67 16.02 52.01 15.99 C 51.99 26.66 51.99 37.33 52.00 48.01 C 38.67 47.98 25.33 47.98 11.99 48.01 C 12.01 37.34 12.01 26.67 12.00 15.99 M 18.00 26.00 C 18.00 30.00 18.00 34.00 18.00 38.00 C 19.33 38.00 20.67 38.00 22.00 38.00 C 22.00 34.00 22.00 30.00 22.00 26.00 C 20.67 26.00 19.33 26.00 18.00 26.00 M 25.64 32.00 C 27.84 34.04 29.96 36.16 32.00 38.36 C 34.04 36.16 36.16 34.04 38.36 32.00 C 36.16 29.96 34.04 27.84 32.00 25.64 C 29.96 27.84 27.84 29.96 25.64 32.00 M 42.00 26.00 C 42.00 30.00 42.00 34.00 42.00 38.00 C 43.33 38.00 44.67 38.00 46.00 38.00 C 46.00 34.00 46.00 30.00 46.00 26.00 C 44.67 26.00 43.33 26.00 42.00 26.00 Z" />
</g>
<g id="#000000ff">
<path fill="#000000" opacity="1.00" d=" M 8.04 11.99 C 24.01 12.02 39.98 12.00 55.94 12.00 C 55.94 21.99 55.60 31.99 56.35 41.97 C 55.92 45.92 58.63 48.72 60.41 51.81 C 41.55 52.09 22.70 52.04 3.84 51.94 C 10.62 39.83 7.36 25.23 8.04 11.99 M 12.00 15.99 C 12.01 26.67 12.01 37.34 11.99 48.01 C 25.33 47.98 38.67 47.98 52.00 48.01 C 51.99 37.33 51.99 26.66 52.01 15.99 C 38.67 16.02 25.33 16.02 12.00 15.99 Z" />
<path fill="#000000" opacity="1.00" d=" M 18.00 26.00 C 19.33 26.00 20.67 26.00 22.00 26.00 C 22.00 30.00 22.00 34.00 22.00 38.00 C 20.67 38.00 19.33 38.00 18.00 38.00 C 18.00 34.00 18.00 30.00 18.00 26.00 Z" />
<path fill="#000000" opacity="1.00" d=" M 25.64 32.00 C 27.84 29.96 29.96 27.84 32.00 25.64 C 34.04 27.84 36.16 29.96 38.36 32.00 C 36.16 34.04 34.04 36.16 32.00 38.36 C 29.96 36.16 27.84 34.04 25.64 32.00 Z" />
<path fill="#000000" opacity="1.00" d=" M 42.00 26.00 C 43.33 26.00 44.67 26.00 46.00 26.00 C 46.00 30.00 46.00 34.00 46.00 38.00 C 44.67 38.00 43.33 38.00 42.00 38.00 C 42.00 34.00 42.00 30.00 42.00 26.00 Z" />
</g>
</svg>
