<?xml version="1.0" encoding="UTF-8" ?>
<!DOCTYPE svg PUBLIC "-//W3C//DTD SVG 1.1//EN" "http://www.w3.org/Graphics/SVG/1.1/DTD/svg11.dtd">
<svg width="60pt" height="60pt" viewBox="0 0 60 60" version="1.1" xmlns="http://www.w3.org/2000/svg">
<g id="#ffffffff">
<path fill="#ffffff" opacity="1.00" d=" M 0.00 0.00 L 60.00 0.00 L 60.00 60.00 L 0.00 60.00 L 0.00 0.00 M 16.88 9.85 C 13.22 11.08 11.93 15.00 10.20 18.06 C 8.53 21.55 5.75 24.81 6.00 28.91 C 6.04 35.91 5.90 42.92 6.10 49.92 C 8.03 49.98 9.96 49.98 11.89 49.93 C 12.20 42.94 11.82 35.94 12.07 28.95 C 12.92 26.30 14.74 24.06 16.00 21.58 C 16.13 30.69 15.75 39.82 16.18 48.91 C 16.43 49.14 16.92 49.61 17.17 49.84 C 20.77 50.21 24.39 49.91 28.00 50.00 C 27.99 39.39 28.02 28.79 27.98 18.18 C 25.08 16.96 23.84 14.16 24.01 11.13 C 27.87 9.68 32.13 9.68 35.99 11.12 C 36.14 14.15 34.90 16.97 32.02 18.22 C 31.97 28.82 32.01 39.41 32.00 50.00 C 35.60 49.91 39.23 50.21 42.82 49.84 C 43.07 49.60 43.57 49.12 43.82 48.88 C 44.26 39.81 43.84 30.70 44.03 21.61 C 45.27 24.06 47.04 26.28 47.93 28.89 C 48.19 35.90 47.79 42.93 48.12 49.94 C 50.05 49.98 51.97 49.98 53.89 49.92 C 54.12 42.95 53.96 35.96 54.00 28.99 C 54.27 24.89 51.53 21.61 49.84 18.14 C 48.16 15.27 47.05 11.58 43.75 10.14 C 39.33 8.32 34.89 5.86 29.97 6.01 C 25.28 5.81 21.12 8.23 16.88 9.85 Z" />
</g>
<g id="#000000ff">
<path fill="#000000" opacity="1.00" d=" M 16.88 9.85 C 21.12 8.23 25.28 5.81 29.97 6.01 C 34.89 5.86 39.33 8.32 43.75 10.14 C 47.05 11.58 48.16 15.27 49.84 18.14 C 51.53 21.61 54.27 24.89 54.00 28.99 C 53.96 35.96 54.12 42.95 53.89 49.92 C 51.97 49.98 50.05 49.98 48.12 49.94 C 47.79 42.93 48.19 35.90 47.93 28.89 C 47.04 26.28 45.27 24.06 44.03 21.61 C 43.84 30.70 44.26 39.81 43.82 48.88 C 43.57 49.12 43.07 49.60 42.82 49.84 C 39.23 50.21 35.60 49.91 32.00 50.00 C 32.01 39.41 31.97 28.82 32.02 18.22 C 34.90 16.97 36.14 14.15 35.99 11.12 C 32.13 9.68 27.87 9.68 24.01 11.13 C 23.84 14.16 25.08 16.96 27.98 18.18 C 28.02 28.79 27.99 39.39 28.00 50.00 C 24.39 49.91 20.77 50.21 17.17 49.84 C 16.92 49.61 16.43 49.14 16.18 48.91 C 15.75 39.82 16.13 30.69 16.00 21.58 C 14.74 24.06 12.92 26.30 12.07 28.95 C 11.82 35.94 12.20 42.94 11.89 49.93 C 9.96 49.98 8.03 49.98 6.10 49.92 C 5.90 42.92 6.04 35.91 6.00 28.91 C 5.75 24.81 8.53 21.55 10.20 18.06 C 11.93 15.00 13.22 11.08 16.88 9.85 Z" />
</g>
</svg>
