<?xml version="1.0" encoding="UTF-8" ?>
<!DOCTYPE svg PUBLIC "-//W3C//DTD SVG 1.1//EN" "http://www.w3.org/Graphics/SVG/1.1/DTD/svg11.dtd">
<svg width="60pt" height="60pt" viewBox="0 0 60 60" version="1.1" xmlns="http://www.w3.org/2000/svg">
<g id="#ffffffff">
<path fill="#ffffff" opacity="1.00" d=" M 0.00 0.00 L 60.00 0.00 L 60.00 60.00 L 0.00 60.00 L 0.00 0.00 M 8.16 10.98 C 7.79 22.99 8.10 35.03 8.00 47.05 C 7.75 49.11 8.85 51.36 11.00 51.84 C 14.71 52.23 18.46 51.91 22.18 51.99 C 24.71 53.84 26.36 57.88 29.75 57.85 C 31.99 56.13 33.83 53.96 35.84 51.99 C 40.24 51.90 44.66 52.24 49.04 51.83 C 51.12 51.30 52.23 49.10 52.00 47.06 C 52.00 35.66 52.01 24.25 51.99 12.85 C 52.20 10.86 51.10 8.58 49.01 8.16 C 45.29 7.77 41.55 8.10 37.82 7.99 C 35.11 10.58 32.69 13.49 29.76 15.85 C 29.37 15.84 28.60 15.83 28.21 15.82 C 25.32 13.45 22.89 10.57 20.18 8.01 C 16.27 8.58 9.97 6.10 8.16 10.98 Z" />
</g>
<g id="#000000ff">
<path fill="#000000" opacity="1.00" d=" M 8.16 10.98 C 9.97 6.10 16.27 8.58 20.18 8.01 C 22.89 10.57 25.32 13.45 28.21 15.82 C 28.60 15.83 29.37 15.84 29.76 15.85 C 32.69 13.49 35.11 10.58 37.82 7.99 C 41.55 8.10 45.29 7.77 49.01 8.16 C 51.10 8.58 52.20 10.86 51.99 12.85 C 52.01 24.25 52.00 35.66 52.00 47.06 C 52.23 49.10 51.12 51.30 49.04 51.83 C 44.66 52.24 40.24 51.90 35.84 51.99 C 33.83 53.96 31.99 56.13 29.75 57.85 C 26.36 57.88 24.71 53.84 22.18 51.99 C 18.46 51.91 14.71 52.23 11.00 51.84 C 8.85 51.36 7.75 49.11 8.00 47.05 C 8.10 35.03 7.79 22.99 8.16 10.98 Z" />
</g>
</svg>
