<?xml version="1.0" encoding="UTF-8" ?>
<!DOCTYPE svg PUBLIC "-//W3C//DTD SVG 1.1//EN" "http://www.w3.org/Graphics/SVG/1.1/DTD/svg11.dtd">
<svg width="60pt" height="60pt" viewBox="0 0 60 60" version="1.1" xmlns="http://www.w3.org/2000/svg">
<g id="#ffffffff">
<path fill="#ffffff" opacity="1.00" d=" M 0.00 0.00 L 60.00 0.00 L 60.00 60.00 L 0.00 60.00 L 0.00 0.00 M 8.27 8.27 C 7.68 18.17 8.15 28.09 8.00 38.00 C 8.09 42.23 7.62 46.51 8.31 50.70 C 8.86 53.11 12.06 52.11 11.85 49.88 C 12.27 37.28 11.83 24.64 12.02 12.02 C 24.01 11.98 35.99 11.98 47.98 12.02 C 48.07 24.03 47.94 36.05 48.00 48.07 C 47.95 49.78 48.37 52.87 50.80 52.01 C 52.56 50.16 51.84 47.36 52.05 45.04 C 51.79 32.79 52.36 20.52 51.73 8.27 C 37.26 7.82 22.74 7.82 8.27 8.27 M 16.00 16.01 C 16.00 17.34 16.00 18.66 16.00 19.99 C 18.66 19.99 21.33 19.99 24.00 19.99 C 24.00 18.66 24.00 17.33 24.00 16.01 C 21.33 16.00 18.67 16.01 16.00 16.01 M 28.00 16.00 C 28.00 17.33 28.00 18.67 28.00 20.00 C 29.33 20.00 30.67 20.00 32.00 20.00 C 32.00 18.67 32.00 17.33 32.00 16.00 C 30.67 16.00 29.33 16.00 28.00 16.00 M 36.00 16.01 C 36.00 17.33 36.00 18.66 36.00 19.99 C 38.66 19.99 41.33 19.99 44.00 19.99 C 44.00 18.66 44.00 17.34 44.00 16.01 C 41.34 16.01 38.67 16.00 36.00 16.01 M 28.00 24.01 C 28.00 25.34 28.00 26.66 28.00 27.99 C 30.67 27.99 33.33 27.99 36.00 27.99 C 36.00 26.66 36.00 25.33 36.00 24.01 C 33.33 24.01 30.67 24.01 28.00 24.01 M 40.00 24.00 C 40.00 25.33 40.00 26.67 40.00 28.00 C 41.33 28.00 42.66 28.00 44.00 28.00 C 44.00 26.67 44.00 25.33 44.00 24.00 C 42.67 24.00 41.33 24.00 40.00 24.00 M 20.43 36.43 C 20.39 38.14 20.39 39.85 20.43 41.57 C 22.14 41.61 23.86 41.61 25.57 41.57 C 25.61 39.86 25.61 38.14 25.57 36.43 C 23.86 36.39 22.14 36.39 20.43 36.43 M 19.29 48.29 C 16.96 48.97 17.83 52.05 20.12 51.84 C 26.30 52.11 32.56 52.32 38.71 51.70 C 41.08 51.08 40.14 47.94 37.88 48.15 C 31.70 47.89 25.45 47.68 19.29 48.29 Z" />
</g>
<g id="#000000ff">
<path fill="#000000" opacity="1.00" d=" M 8.27 8.27 C 22.74 7.82 37.26 7.82 51.73 8.27 C 52.36 20.52 51.79 32.79 52.05 45.04 C 51.84 47.36 52.56 50.16 50.80 52.01 C 48.37 52.87 47.95 49.78 48.00 48.07 C 47.94 36.05 48.07 24.03 47.98 12.02 C 35.99 11.98 24.01 11.98 12.02 12.02 C 11.83 24.64 12.27 37.28 11.85 49.88 C 12.06 52.11 8.86 53.11 8.31 50.70 C 7.62 46.51 8.09 42.23 8.00 38.00 C 8.15 28.09 7.68 18.17 8.27 8.27 Z" />
<path fill="#000000" opacity="1.00" d=" M 16.00 16.01 C 18.67 16.01 21.33 16.00 24.00 16.01 C 24.00 17.33 24.00 18.66 24.00 19.99 C 21.33 19.99 18.66 19.99 16.00 19.99 C 16.00 18.66 16.00 17.34 16.00 16.01 Z" />
<path fill="#000000" opacity="1.00" d=" M 28.00 16.00 C 29.33 16.00 30.67 16.00 32.00 16.00 C 32.00 17.33 32.00 18.67 32.00 20.00 C 30.67 20.00 29.33 20.00 28.00 20.00 C 28.00 18.67 28.00 17.33 28.00 16.00 Z" />
<path fill="#000000" opacity="1.00" d=" M 36.00 16.01 C 38.67 16.00 41.34 16.01 44.00 16.01 C 44.00 17.34 44.00 18.66 44.00 19.99 C 41.33 19.99 38.66 19.99 36.00 19.99 C 36.00 18.66 36.00 17.33 36.00 16.01 Z" />
<path fill="#000000" opacity="1.00" d=" M 28.00 24.01 C 30.67 24.01 33.33 24.01 36.00 24.01 C 36.00 25.33 36.00 26.66 36.00 27.99 C 33.33 27.99 30.67 27.99 28.00 27.99 C 28.00 26.66 28.00 25.34 28.00 24.01 Z" />
<path fill="#000000" opacity="1.00" d=" M 40.00 24.00 C 41.33 24.00 42.67 24.00 44.00 24.00 C 44.00 25.33 44.00 26.67 44.00 28.00 C 42.66 28.00 41.33 28.00 40.00 28.00 C 40.00 26.67 40.00 25.33 40.00 24.00 Z" />
<path fill="#000000" opacity="1.00" d=" M 20.43 36.43 C 22.14 36.39 23.86 36.39 25.57 36.43 C 25.61 38.14 25.61 39.86 25.57 41.57 C 23.86 41.61 22.14 41.61 20.43 41.57 C 20.39 39.85 20.39 38.14 20.43 36.43 Z" />
<path fill="#000000" opacity="1.00" d=" M 19.29 48.29 C 25.45 47.68 31.70 47.89 37.88 48.15 C 40.14 47.94 41.08 51.08 38.71 51.70 C 32.56 52.32 26.30 52.11 20.12 51.84 C 17.83 52.05 16.96 48.97 19.29 48.29 Z" />
</g>
</svg>
