<?xml version="1.0" encoding="UTF-8" ?>
<!DOCTYPE svg PUBLIC "-//W3C//DTD SVG 1.1//EN" "http://www.w3.org/Graphics/SVG/1.1/DTD/svg11.dtd">
<svg width="60pt" height="60pt" viewBox="0 0 60 60" version="1.1" xmlns="http://www.w3.org/2000/svg">
<g id="#ffffffff">
<path fill="#ffffff" opacity="1.00" d=" M 0.00 0.00 L 60.00 0.00 L 60.00 60.00 L 0.00 60.00 L 0.00 31.57 C 2.91 31.94 5.60 30.79 8.07 29.39 C 8.43 36.54 6.81 44.06 9.02 50.98 C 11.48 52.19 14.29 52.00 16.95 52.07 C 25.65 51.97 34.35 51.97 43.05 52.07 C 45.69 51.98 48.53 52.24 50.93 50.93 C 52.24 48.53 51.98 45.69 52.07 43.05 C 51.97 34.35 51.97 25.65 52.07 16.95 C 52.00 14.30 52.19 11.48 50.97 9.03 C 48.53 7.79 45.70 8.00 43.05 7.93 C 34.35 8.03 25.65 8.02 16.95 7.93 C 14.31 8.01 11.48 7.77 9.06 9.04 C 7.55 11.96 8.08 15.38 7.99 18.54 C 5.47 17.28 2.79 16.40 0.00 16.00 L 0.00 0.00 Z" />
</g>
<g id="#000000ff">
<path fill="#000000" opacity="1.00" d=" M 9.06 9.04 C 11.48 7.77 14.31 8.01 16.95 7.93 C 25.65 8.02 34.35 8.03 43.05 7.93 C 45.70 8.00 48.53 7.79 50.97 9.03 C 52.19 11.48 52.00 14.30 52.07 16.95 C 51.97 25.65 51.97 34.35 52.07 43.05 C 51.98 45.69 52.24 48.53 50.93 50.93 C 48.53 52.24 45.69 51.98 43.05 52.07 C 34.35 51.97 25.65 51.97 16.95 52.07 C 14.29 52.00 11.48 52.19 9.02 50.98 C 6.81 44.06 8.43 36.54 8.07 29.39 C 5.60 30.79 2.91 31.94 0.00 31.57 L 0.00 16.00 C 2.79 16.40 5.47 17.28 7.99 18.54 C 8.08 15.38 7.55 11.96 9.06 9.04 Z" />
</g>
</svg>
