<?xml version="1.0" encoding="UTF-8" ?>
<!DOCTYPE svg PUBLIC "-//W3C//DTD SVG 1.1//EN" "http://www.w3.org/Graphics/SVG/1.1/DTD/svg11.dtd">
<svg width="64pt" height="64pt" viewBox="0 0 64 64" version="1.1" xmlns="http://www.w3.org/2000/svg">
<g id="#ffffffff">
<path fill="#ffffff" opacity="1.00" d=" M 0.00 0.00 L 64.00 0.00 L 64.00 64.00 L 0.00 64.00 L 0.00 0.00 M 14.00 10.00 C 14.04 14.74 13.92 19.49 14.07 24.23 C 13.01 23.52 12.16 22.48 10.95 22.02 C 8.65 21.72 6.28 23.53 6.16 25.89 C 5.87 29.96 5.88 34.06 6.16 38.13 C 6.29 40.46 8.63 42.27 10.92 41.97 C 12.15 41.55 13.01 40.48 14.06 39.77 C 13.93 44.51 14.03 49.26 14.00 54.00 C 28.01 54.00 42.02 54.00 56.03 54.00 C 56.02 47.30 56.01 40.60 56.00 33.90 C 52.63 33.38 50.06 35.42 48.03 37.83 C 47.99 33.94 47.99 30.06 48.03 26.17 C 50.06 28.59 52.64 30.59 56.00 30.11 C 56.01 23.40 56.02 16.70 56.03 10.00 C 42.02 10.00 28.01 10.00 14.00 10.00 Z" />
<path fill="#ffffff" opacity="1.00" d=" M 18.00 14.00 C 29.34 14.00 40.68 14.00 52.03 14.00 C 52.03 17.41 51.96 20.83 52.07 24.24 C 50.19 21.67 46.04 21.14 44.56 24.40 C 43.49 28.15 44.14 32.17 44.01 36.03 C 43.84 38.32 44.62 41.09 47.10 41.78 C 49.14 42.72 50.61 40.81 52.07 39.76 C 51.96 43.17 52.03 46.59 52.03 50.00 C 40.68 50.00 29.34 50.00 18.00 50.00 C 18.00 44.63 18.00 39.26 18.00 33.90 C 14.64 33.38 12.06 35.42 10.03 37.83 C 9.99 33.94 9.99 30.06 10.03 26.17 C 12.06 28.58 14.64 30.61 18.00 30.11 C 18.00 24.74 18.00 19.37 18.00 14.00 Z" />
</g>
<g id="#000000ff">
<path fill="#000000" opacity="1.00" d=" M 14.00 10.00 C 28.01 10.00 42.02 10.00 56.03 10.00 C 56.02 16.70 56.01 23.40 56.00 30.11 C 52.64 30.59 50.06 28.59 48.03 26.17 C 47.99 30.06 47.99 33.94 48.03 37.83 C 50.06 35.42 52.63 33.38 56.00 33.90 C 56.01 40.60 56.02 47.30 56.03 54.00 C 42.02 54.00 28.01 54.00 14.00 54.00 C 14.03 49.26 13.93 44.51 14.06 39.77 C 13.01 40.48 12.15 41.55 10.92 41.97 C 8.63 42.27 6.29 40.46 6.16 38.13 C 5.88 34.06 5.87 29.96 6.16 25.89 C 6.28 23.53 8.65 21.72 10.95 22.02 C 12.16 22.48 13.01 23.52 14.07 24.23 C 13.92 19.49 14.04 14.74 14.00 10.00 M 18.00 14.00 C 18.00 19.37 18.00 24.74 18.00 30.11 C 14.64 30.61 12.06 28.58 10.03 26.17 C 9.99 30.06 9.99 33.94 10.03 37.83 C 12.06 35.42 14.64 33.38 18.00 33.90 C 18.00 39.26 18.00 44.63 18.00 50.00 C 29.34 50.00 40.68 50.00 52.03 50.00 C 52.03 46.59 51.96 43.17 52.07 39.76 C 50.61 40.81 49.14 42.72 47.10 41.78 C 44.62 41.09 43.84 38.32 44.01 36.03 C 44.14 32.17 43.49 28.15 44.56 24.40 C 46.04 21.14 50.19 21.67 52.07 24.24 C 51.96 20.83 52.03 17.41 52.03 14.00 C 40.68 14.00 29.34 14.00 18.00 14.00 Z" />
</g>
</svg>
