<?xml version="1.0" encoding="UTF-8" ?>
<!DOCTYPE svg PUBLIC "-//W3C//DTD SVG 1.1//EN" "http://www.w3.org/Graphics/SVG/1.1/DTD/svg11.dtd">
<svg width="60pt" height="60pt" viewBox="0 0 60 60" version="1.1" xmlns="http://www.w3.org/2000/svg">
<g id="#ffffffff">
<path fill="#ffffff" opacity="1.00" d=" M 0.00 0.00 L 60.00 0.00 L 60.00 60.00 L 0.00 60.00 L 0.00 0.00 M 9.36 8.51 C 6.98 10.60 8.25 14.34 8.07 17.13 C 8.40 21.08 13.38 19.86 16.07 20.00 C 18.41 20.39 20.38 18.45 20.00 16.11 C 19.75 13.54 21.09 9.37 17.92 8.20 C 15.11 7.95 12.06 7.57 9.36 8.51 M 41.37 8.50 C 39.54 9.68 40.11 12.16 39.96 13.99 C 40.05 15.98 39.54 19.04 42.02 19.78 C 44.65 20.16 47.36 20.16 49.99 19.78 C 52.45 19.02 51.94 15.97 52.04 13.99 C 51.96 12.00 52.45 8.93 49.96 8.21 C 47.14 7.95 44.08 7.58 41.37 8.50 M 25.17 12.08 C 22.89 13.21 24.39 16.83 26.78 15.90 C 29.16 14.83 27.61 11.18 25.17 12.08 M 33.21 12.09 C 30.87 13.11 32.34 16.83 34.76 15.89 C 37.15 14.91 35.64 11.15 33.21 12.09 M 13.16 24.08 C 10.90 25.22 12.39 28.89 14.83 27.88 C 17.14 26.76 15.58 23.17 13.16 24.08 M 45.11 24.08 C 42.94 25.31 44.40 28.83 46.79 27.89 C 49.19 26.79 47.56 23.14 45.11 24.08 M 13.13 32.11 C 10.88 33.27 12.41 36.84 14.83 35.89 C 17.15 34.74 15.57 31.15 13.13 32.11 M 45.18 32.10 C 42.85 33.21 44.41 36.89 46.85 35.88 C 49.12 34.75 47.59 31.15 45.18 32.10 M 9.41 40.47 C 6.95 42.55 8.26 46.37 8.08 49.18 C 8.14 52.25 11.79 52.12 13.98 52.04 C 16.22 52.13 19.92 52.23 19.93 49.09 C 19.70 46.25 21.28 41.73 18.00 40.22 C 15.18 39.93 12.14 39.61 9.41 40.47 M 41.32 40.53 C 39.01 42.63 40.25 46.31 40.07 49.08 C 40.05 52.22 43.78 52.14 46.01 52.04 C 48.24 52.14 51.92 52.21 51.93 49.10 C 51.75 46.32 53.03 42.54 50.61 40.48 C 47.66 39.70 44.24 39.65 41.32 40.53 M 25.16 44.08 C 22.88 45.24 24.41 48.88 26.82 47.89 C 29.14 46.78 27.59 43.16 25.16 44.08 M 33.25 44.12 C 30.83 45.05 32.35 48.84 34.76 47.91 C 37.16 46.90 35.65 43.17 33.25 44.12 Z" />
</g>
<g id="#000000ff">
<path fill="#000000" opacity="1.00" d=" M 9.36 8.51 C 12.06 7.57 15.11 7.95 17.92 8.20 C 21.09 9.37 19.75 13.54 20.00 16.11 C 20.38 18.45 18.41 20.39 16.07 20.00 C 13.38 19.86 8.40 21.08 8.07 17.13 C 8.25 14.34 6.98 10.60 9.36 8.51 Z" />
<path fill="#000000" opacity="1.00" d=" M 41.37 8.50 C 44.08 7.58 47.14 7.95 49.96 8.21 C 52.45 8.93 51.96 12.00 52.04 13.99 C 51.94 15.97 52.45 19.02 49.99 19.78 C 47.36 20.16 44.65 20.16 42.02 19.78 C 39.54 19.04 40.05 15.98 39.96 13.99 C 40.11 12.16 39.54 9.68 41.37 8.50 Z" />
<path fill="#000000" opacity="1.00" d=" M 25.17 12.08 C 27.61 11.18 29.16 14.83 26.78 15.90 C 24.39 16.83 22.89 13.21 25.17 12.08 Z" />
<path fill="#000000" opacity="1.00" d=" M 33.21 12.09 C 35.64 11.15 37.15 14.91 34.76 15.89 C 32.34 16.83 30.87 13.11 33.21 12.09 Z" />
<path fill="#000000" opacity="1.00" d=" M 13.16 24.08 C 15.58 23.17 17.14 26.76 14.83 27.88 C 12.39 28.89 10.90 25.22 13.16 24.08 Z" />
<path fill="#000000" opacity="1.00" d=" M 45.11 24.08 C 47.56 23.14 49.19 26.79 46.79 27.89 C 44.40 28.83 42.94 25.31 45.11 24.08 Z" />
<path fill="#000000" opacity="1.00" d=" M 13.13 32.11 C 15.57 31.15 17.15 34.74 14.83 35.89 C 12.41 36.84 10.88 33.27 13.13 32.11 Z" />
<path fill="#000000" opacity="1.00" d=" M 45.18 32.10 C 47.59 31.15 49.12 34.75 46.85 35.88 C 44.41 36.89 42.85 33.21 45.18 32.10 Z" />
<path fill="#000000" opacity="1.00" d=" M 9.41 40.47 C 12.14 39.61 15.18 39.93 18.00 40.22 C 21.28 41.73 19.70 46.25 19.93 49.09 C 19.92 52.23 16.22 52.13 13.98 52.04 C 11.79 52.12 8.14 52.25 8.08 49.18 C 8.26 46.37 6.95 42.55 9.41 40.47 Z" />
<path fill="#000000" opacity="1.00" d=" M 41.32 40.53 C 44.24 39.65 47.66 39.70 50.61 40.48 C 53.03 42.54 51.75 46.32 51.93 49.10 C 51.92 52.21 48.24 52.14 46.01 52.04 C 43.78 52.14 40.05 52.22 40.07 49.08 C 40.25 46.31 39.01 42.63 41.32 40.53 Z" />
<path fill="#000000" opacity="1.00" d=" M 25.16 44.08 C 27.59 43.16 29.14 46.78 26.82 47.89 C 24.41 48.88 22.88 45.24 25.16 44.08 Z" />
<path fill="#000000" opacity="1.00" d=" M 33.25 44.12 C 35.65 43.17 37.16 46.90 34.76 47.91 C 32.35 48.84 30.83 45.05 33.25 44.12 Z" />
</g>
</svg>
