<?xml version="1.0" encoding="UTF-8" ?>
<!DOCTYPE svg PUBLIC "-//W3C//DTD SVG 1.1//EN" "http://www.w3.org/Graphics/SVG/1.1/DTD/svg11.dtd">
<svg width="60pt" height="60pt" viewBox="0 0 60 60" version="1.1" xmlns="http://www.w3.org/2000/svg">
<g id="#ffffffff">
<path fill="#ffffff" opacity="1.00" d=" M 0.00 0.00 L 60.00 0.00 L 60.00 60.00 L 0.00 60.00 L 0.00 0.00 M 10.38 8.36 C 8.61 9.10 7.85 11.10 8.00 12.91 C 8.04 24.64 7.92 36.37 8.06 48.10 C 7.94 50.63 10.55 52.29 12.87 52.00 C 24.27 52.01 35.68 52.00 47.08 52.00 C 49.43 52.32 52.00 50.61 51.94 48.09 C 52.11 37.06 51.91 26.01 52.03 14.97 C 51.97 12.84 52.34 10.16 50.33 8.75 C 48.46 7.57 46.08 8.13 43.99 7.97 C 32.80 8.29 21.51 7.48 10.38 8.36 Z" />
<path fill="#ffffff" opacity="1.00" d=" M 21.50 16.59 C 26.32 15.72 32.53 14.86 36.29 18.78 C 38.29 20.65 38.21 23.55 39.13 25.94 C 40.40 27.14 42.90 26.42 43.82 28.10 C 44.19 31.10 44.14 34.16 43.76 37.16 C 43.05 41.13 39.15 44.14 35.14 43.97 C 31.05 44.01 26.94 44.21 22.88 43.78 C 18.39 43.01 15.49 38.37 16.00 33.97 C 16.14 27.97 14.35 19.30 21.50 16.59 M 24.43 22.56 C 22.37 22.47 21.74 25.57 23.50 26.45 C 25.81 27.06 28.26 26.96 30.59 26.62 C 32.33 26.35 32.74 23.59 31.14 22.83 C 28.99 22.13 26.65 22.40 24.43 22.56 M 24.24 33.35 C 21.87 33.40 21.90 37.48 24.33 37.41 C 28.09 37.67 31.88 37.64 35.64 37.43 C 38.02 37.51 38.16 33.42 35.79 33.36 C 31.95 33.05 28.07 33.07 24.24 33.35 Z" />
</g>
<g id="#000000ff">
<path fill="#000000" opacity="1.00" d=" M 10.38 8.36 C 21.51 7.48 32.80 8.29 43.99 7.97 C 46.08 8.13 48.46 7.57 50.33 8.75 C 52.34 10.16 51.97 12.84 52.03 14.97 C 51.91 26.01 52.11 37.06 51.94 48.09 C 52.00 50.61 49.43 52.32 47.08 52.00 C 35.68 52.00 24.27 52.01 12.87 52.00 C 10.55 52.29 7.94 50.63 8.06 48.10 C 7.92 36.37 8.04 24.64 8.00 12.91 C 7.85 11.10 8.61 9.10 10.38 8.36 M 21.50 16.59 C 14.35 19.30 16.14 27.97 16.00 33.97 C 15.49 38.37 18.39 43.01 22.88 43.78 C 26.94 44.21 31.05 44.01 35.14 43.97 C 39.15 44.14 43.05 41.13 43.76 37.16 C 44.14 34.16 44.19 31.10 43.82 28.10 C 42.90 26.42 40.40 27.14 39.13 25.94 C 38.21 23.55 38.29 20.65 36.29 18.78 C 32.53 14.86 26.32 15.72 21.50 16.59 Z" />
<path fill="#000000" opacity="1.00" d=" M 24.43 22.56 C 26.65 22.40 28.99 22.13 31.14 22.83 C 32.74 23.59 32.33 26.35 30.59 26.62 C 28.26 26.96 25.81 27.06 23.50 26.45 C 21.74 25.57 22.37 22.47 24.43 22.56 Z" />
<path fill="#000000" opacity="1.00" d=" M 24.24 33.35 C 28.07 33.07 31.95 33.05 35.79 33.36 C 38.16 33.42 38.02 37.51 35.64 37.43 C 31.88 37.64 28.09 37.67 24.33 37.41 C 21.90 37.48 21.87 33.40 24.24 33.35 Z" />
</g>
</svg>
