<?xml version="1.0" encoding="UTF-8" ?>
<!DOCTYPE svg PUBLIC "-//W3C//DTD SVG 1.1//EN" "http://www.w3.org/Graphics/SVG/1.1/DTD/svg11.dtd">
<svg width="200pt" height="200pt" viewBox="0 0 200 200" version="1.1" xmlns="http://www.w3.org/2000/svg">
<g id="#ffffffff">
<path fill="#ffffff" opacity="1.00" d=" M 0.00 0.00 L 200.00 0.00 L 200.00 200.00 L 0.00 200.00 L 0.00 0.00 M 22.09 19.43 C 27.46 24.95 33.10 30.22 38.35 35.85 C 39.76 37.54 36.94 40.01 35.47 38.40 C 29.97 33.12 24.69 27.61 19.24 22.27 C 8.20 34.22 4.29 52.18 9.51 67.61 C 14.16 82.29 26.79 93.93 41.71 97.64 C 42.32 83.16 48.48 69.01 58.79 58.81 C 68.93 48.55 83.00 42.40 97.40 41.73 C 93.24 25.06 79.03 11.44 62.11 8.27 C 47.97 5.31 32.68 9.65 22.09 19.43 M 132.08 9.88 C 117.70 14.63 106.32 27.06 102.61 41.71 C 117.25 42.39 131.54 48.74 141.73 59.30 C 151.75 69.46 157.69 83.40 158.32 97.64 C 174.79 93.58 188.36 79.74 191.76 63.07 C 195.03 48.74 190.75 33.06 180.79 22.27 C 175.17 27.86 169.59 33.48 163.97 39.06 C 162.42 38.98 160.38 37.43 161.70 35.82 C 166.94 30.21 172.57 24.95 177.93 19.43 C 165.83 8.29 147.62 4.40 132.08 9.88 M 89.51 46.64 C 75.22 49.39 62.27 58.23 54.39 70.45 C 46.22 82.86 43.59 98.70 47.23 113.10 C 50.68 127.31 60.21 139.87 72.89 147.13 C 84.89 154.12 99.62 156.18 113.09 152.80 C 127.33 149.33 139.92 139.79 147.17 127.06 C 154.14 115.08 156.17 100.37 152.80 86.93 C 149.33 72.71 139.80 60.12 127.09 52.86 C 115.86 46.32 102.25 44.12 89.51 46.64 M 7.01 136.04 C 3.37 150.63 7.61 166.75 17.81 177.77 C 23.38 172.34 28.70 166.64 34.39 161.34 C 36.29 160.24 38.38 163.18 36.60 164.57 C 31.37 170.00 25.91 175.22 20.66 180.63 C 32.71 191.69 50.78 195.59 66.27 190.22 C 80.80 185.52 92.25 173.00 95.99 158.24 C 82.55 157.24 69.50 151.57 59.78 142.20 C 48.78 131.84 42.22 117.06 41.69 101.97 C 24.92 105.59 10.84 119.29 7.01 136.04 M 158.34 101.95 C 157.83 115.14 152.85 128.13 144.16 138.09 C 134.16 149.80 119.38 157.15 104.03 158.25 C 107.86 173.47 119.97 186.27 135.08 190.65 C 150.28 195.38 167.67 191.36 179.38 180.61 C 174.09 175.23 168.66 169.99 163.41 164.57 C 161.25 162.94 164.51 159.71 166.14 161.78 C 171.59 167.02 176.84 172.47 182.23 177.77 C 193.09 165.95 197.07 148.33 192.14 133.03 C 187.50 117.59 174.05 105.39 158.34 101.95 Z" />
</g>
<g id="#000000ff">
<path fill="#968176" opacity="1.00" d=" M 22.09 19.43 C 32.68 9.65 47.97 5.31 62.11 8.27 C 79.03 11.44 93.24 25.06 97.40 41.73 C 83.00 42.40 68.93 48.55 58.79 58.81 C 48.48 69.01 42.32 83.16 41.71 97.64 C 26.79 93.93 14.16 82.29 9.51 67.61 C 4.29 52.18 8.20 34.22 19.24 22.27 C 24.69 27.61 29.97 33.12 35.47 38.40 C 36.94 40.01 39.76 37.54 38.35 35.85 C 33.10 30.22 27.46 24.95 22.09 19.43 Z" />
<path fill="#968176" opacity="1.00" d=" M 132.08 9.88 C 147.62 4.40 165.83 8.29 177.93 19.43 C 172.57 24.95 166.94 30.21 161.70 35.82 C 160.38 37.43 162.42 38.98 163.97 39.06 C 169.59 33.48 175.17 27.86 180.79 22.27 C 190.75 33.06 195.03 48.74 191.76 63.07 C 188.36 79.74 174.79 93.58 158.32 97.64 C 157.69 83.40 151.75 69.46 141.73 59.30 C 131.54 48.74 117.25 42.39 102.61 41.71 C 106.32 27.06 117.70 14.63 132.08 9.88 Z" />
<path fill="#968176" opacity="1.00" d=" M 89.51 46.64 C 102.25 44.12 115.86 46.32 127.09 52.86 C 139.80 60.12 149.33 72.71 152.80 86.93 C 156.17 100.37 154.14 115.08 147.17 127.06 C 139.92 139.79 127.33 149.33 113.09 152.80 C 99.62 156.18 84.89 154.12 72.89 147.13 C 60.21 139.87 50.68 127.31 47.23 113.10 C 43.59 98.70 46.22 82.86 54.39 70.45 C 62.27 58.23 75.22 49.39 89.51 46.64 Z" />
<path fill="#968176" opacity="1.00" d=" M 7.01 136.04 C 10.84 119.29 24.92 105.59 41.69 101.97 C 42.22 117.06 48.78 131.84 59.78 142.20 C 69.50 151.57 82.55 157.24 95.99 158.24 C 92.25 173.00 80.80 185.52 66.27 190.22 C 50.78 195.59 32.71 191.69 20.66 180.63 C 25.91 175.22 31.37 170.00 36.60 164.57 C 38.38 163.18 36.29 160.24 34.39 161.34 C 28.70 166.64 23.38 172.34 17.81 177.77 C 7.61 166.75 3.37 150.63 7.01 136.04 Z" />
<path fill="#968176" opacity="1.00" d=" M 158.34 101.95 C 174.05 105.39 187.50 117.59 192.14 133.03 C 197.07 148.33 193.09 165.95 182.23 177.77 C 176.84 172.47 171.59 167.02 166.14 161.78 C 164.51 159.71 161.25 162.94 163.41 164.57 C 168.66 169.99 174.09 175.23 179.38 180.61 C 167.67 191.36 150.28 195.38 135.08 190.65 C 119.97 186.27 107.86 173.47 104.03 158.25 C 119.38 157.15 134.16 149.80 144.16 138.09 C 152.85 128.13 157.83 115.14 158.34 101.95 Z" />
</g>
</svg>
