<?xml version="1.0" encoding="UTF-8" ?>
<!DOCTYPE svg PUBLIC "-//W3C//DTD SVG 1.1//EN" "http://www.w3.org/Graphics/SVG/1.1/DTD/svg11.dtd">
<svg width="60pt" height="60pt" viewBox="0 0 60 60" version="1.1" xmlns="http://www.w3.org/2000/svg">
<g id="#ffffffff">
<path fill="#ffffff" opacity="1.00" d=" M 0.00 0.00 L 60.00 0.00 L 60.00 60.00 L 0.00 60.00 L 0.00 0.00 M 28.07 7.95 C 27.87 14.17 28.07 20.40 28.00 26.63 C 24.87 24.51 21.92 22.11 18.69 20.16 C 16.82 19.23 15.00 22.04 16.59 23.30 C 19.85 26.00 23.50 28.18 26.87 30.74 C 23.48 34.09 19.89 37.23 16.61 40.67 C 14.93 41.99 16.96 44.83 18.78 43.82 C 22.05 41.18 24.89 38.03 28.00 35.19 C 28.06 40.80 27.89 46.41 28.06 52.02 C 27.82 53.76 30.31 54.68 31.37 53.39 C 35.16 49.52 38.72 45.42 42.45 41.48 C 43.39 40.57 44.74 38.92 43.46 37.73 C 40.18 35.05 36.58 32.77 33.14 30.28 C 36.53 26.93 40.09 23.76 43.40 20.34 C 44.44 19.47 43.96 17.82 42.93 17.16 C 39.11 13.62 35.31 10.06 31.40 6.63 C 30.35 5.34 27.82 6.23 28.07 7.95 Z" />
<path fill="#ffffff" opacity="1.00" d=" M 32.01 12.54 C 34.37 14.69 36.72 16.87 39.07 19.03 C 36.72 21.29 34.36 23.55 32.01 25.81 C 32.00 21.38 31.99 16.96 32.01 12.54 Z" />
<path fill="#ffffff" opacity="1.00" d=" M 32.00 34.37 C 34.34 36.01 36.67 37.66 38.99 39.32 C 36.65 41.84 34.34 44.37 32.01 46.88 C 31.99 42.71 32.00 38.54 32.00 34.37 Z" />
</g>
<g id="#000000ff">
<path fill="#000000" opacity="1.00" d=" M 28.07 7.95 C 27.82 6.23 30.35 5.34 31.40 6.63 C 35.31 10.06 39.11 13.62 42.93 17.16 C 43.96 17.82 44.44 19.47 43.40 20.34 C 40.09 23.76 36.53 26.93 33.14 30.28 C 36.58 32.77 40.18 35.05 43.46 37.73 C 44.74 38.92 43.39 40.57 42.45 41.48 C 38.72 45.42 35.16 49.52 31.37 53.39 C 30.31 54.68 27.82 53.76 28.06 52.02 C 27.89 46.41 28.06 40.80 28.00 35.19 C 24.89 38.03 22.05 41.18 18.78 43.82 C 16.96 44.83 14.93 41.99 16.61 40.67 C 19.89 37.23 23.48 34.09 26.87 30.74 C 23.50 28.18 19.85 26.00 16.59 23.30 C 15.00 22.04 16.82 19.23 18.69 20.16 C 21.92 22.11 24.87 24.51 28.00 26.63 C 28.07 20.40 27.87 14.17 28.07 7.95 M 32.01 12.54 C 31.99 16.96 32.00 21.38 32.01 25.81 C 34.36 23.55 36.72 21.29 39.07 19.03 C 36.72 16.87 34.37 14.69 32.01 12.54 M 32.00 34.37 C 32.00 38.54 31.99 42.71 32.01 46.88 C 34.34 44.37 36.65 41.84 38.99 39.32 C 36.67 37.66 34.34 36.01 32.00 34.37 Z" />
</g>
</svg>
