<?xml version="1.0" encoding="UTF-8" ?>
<!DOCTYPE svg PUBLIC "-//W3C//DTD SVG 1.1//EN" "http://www.w3.org/Graphics/SVG/1.1/DTD/svg11.dtd">
<svg width="64pt" height="64pt" viewBox="0 0 64 64" version="1.1" xmlns="http://www.w3.org/2000/svg">
<g id="#ffffffff">
<path fill="#ffffff" opacity="1.00" d=" M 0.00 0.00 L 64.00 0.00 L 64.00 64.00 L 0.00 64.00 L 0.00 0.00 M 31.24 17.20 C 27.41 20.83 23.78 24.68 20.00 28.37 C 16.50 25.09 13.41 21.35 9.66 18.35 C 6.24 16.37 2.16 21.23 4.77 24.23 C 8.64 28.69 13.33 32.39 16.99 37.05 C 20.75 39.95 23.77 43.64 27.27 46.83 C 28.68 48.29 31.30 48.29 32.72 46.84 C 36.56 43.19 40.22 39.35 44.00 35.63 C 47.48 38.94 50.65 42.57 54.29 45.71 C 57.54 48.00 62.00 43.57 59.73 40.31 C 52.28 32.38 44.56 24.78 36.77 17.20 C 35.34 15.59 32.68 15.61 31.24 17.20 Z" />
<path fill="#ffffff" opacity="1.00" d=" M 25.65 34.00 C 28.44 31.21 31.21 28.41 34.00 25.63 C 35.46 27.09 36.92 28.54 38.38 30.00 C 35.60 32.80 32.80 35.58 30.00 38.37 C 28.54 36.92 27.09 35.46 25.65 34.00 Z" />
</g>
<g id="#000000ff">
<path fill="#000000" opacity="1.00" d=" M 31.24 17.20 C 32.68 15.61 35.34 15.59 36.77 17.20 C 44.56 24.78 52.28 32.38 59.73 40.31 C 62.00 43.57 57.54 48.00 54.29 45.71 C 50.65 42.57 47.48 38.94 44.00 35.63 C 40.22 39.35 36.56 43.19 32.72 46.84 C 31.30 48.29 28.68 48.29 27.27 46.83 C 23.77 43.64 20.75 39.95 16.99 37.05 C 13.33 32.39 8.64 28.69 4.77 24.23 C 2.16 21.23 6.24 16.37 9.66 18.35 C 13.41 21.35 16.50 25.09 20.00 28.37 C 23.78 24.68 27.41 20.83 31.24 17.20 M 25.65 34.00 C 27.09 35.46 28.54 36.92 30.00 38.37 C 32.80 35.58 35.60 32.80 38.38 30.00 C 36.92 28.54 35.46 27.09 34.00 25.63 C 31.21 28.41 28.44 31.21 25.65 34.00 Z" />
</g>
</svg>
