<?xml version="1.0" encoding="UTF-8" ?>
<!DOCTYPE svg PUBLIC "-//W3C//DTD SVG 1.1//EN" "http://www.w3.org/Graphics/SVG/1.1/DTD/svg11.dtd">
<svg width="64pt" height="64pt" viewBox="0 0 64 64" version="1.1" xmlns="http://www.w3.org/2000/svg">
<g id="#ffffffff">
<path fill="#ffffff" opacity="1.00" d=" M 0.00 0.00 L 64.00 0.00 L 64.00 42.09 C 62.78 42.00 61.56 41.97 60.33 42.00 C 59.03 43.45 57.22 44.08 55.31 44.05 C 57.54 41.80 58.73 38.35 57.50 35.30 C 56.44 32.12 53.26 30.12 50.00 29.91 C 50.14 27.05 50.44 23.03 46.93 22.09 C 43.26 21.89 39.59 22.05 35.92 22.00 C 34.47 22.86 33.12 24.59 31.14 23.91 C 29.47 23.82 28.91 21.45 27.09 21.99 C 23.74 22.06 20.38 21.88 17.03 22.09 C 13.49 22.99 13.90 27.08 14.00 29.91 C 10.72 30.11 7.52 32.14 6.48 35.34 C 5.28 38.39 6.49 41.84 8.75 44.05 C 6.79 44.16 5.00 43.42 3.66 42.00 C 2.44 41.98 1.22 42.00 0.00 42.06 L 0.00 0.00 M 26.01 16.01 C 25.99 17.34 25.99 18.66 26.01 19.99 C 27.33 20.00 28.66 20.00 29.98 20.00 C 29.99 20.50 30.01 21.50 30.02 22.00 C 31.34 22.01 32.66 22.01 33.98 22.00 C 33.99 21.50 34.01 20.50 34.02 20.00 C 35.34 20.00 36.67 20.00 37.99 19.99 C 38.01 18.66 38.01 17.34 37.99 16.01 C 34.00 16.00 30.00 15.99 26.01 16.01 Z" />
<path fill="#ffffff" opacity="1.00" d=" M 18.01 26.01 C 20.98 26.00 23.96 25.98 26.93 26.02 C 29.82 28.56 34.20 28.53 37.10 26.01 C 40.06 25.99 43.03 26.00 45.99 26.01 C 46.01 27.34 46.01 28.66 45.99 29.99 C 36.66 30.00 27.34 30.01 18.01 29.99 C 17.99 28.66 17.99 27.34 18.01 26.01 Z" />
<path fill="#ffffff" opacity="1.00" d=" M 10.69 40.27 C 8.86 37.86 10.81 33.92 13.86 34.01 C 25.95 33.99 38.05 33.99 50.14 34.01 C 52.93 33.95 54.93 37.31 53.60 39.76 C 52.68 41.79 50.25 42.18 48.27 42.00 C 46.21 44.63 41.79 44.64 39.74 42.00 C 38.58 41.99 37.42 41.99 36.27 42.00 C 34.21 44.63 29.79 44.64 27.73 42.00 C 26.58 41.99 25.42 41.99 24.27 42.00 C 22.21 44.63 17.79 44.64 15.74 42.01 C 13.92 42.12 11.77 41.98 10.69 40.27 Z" />
<path fill="#ffffff" opacity="1.00" d=" M 0.00 42.81 C 1.87 48.45 9.69 49.38 14.01 46.02 C 17.50 48.62 22.50 48.61 26.00 46.01 C 29.50 48.62 34.50 48.61 38.00 46.01 C 41.50 48.61 46.49 48.61 49.99 46.02 C 54.31 49.38 62.07 48.45 64.00 42.86 L 64.00 64.00 L 0.00 64.00 L 0.00 42.81 Z" />
</g>
<g id="#000000ff">
<path fill="#000000" opacity="1.00" d=" M 26.01 16.01 C 30.00 15.99 34.00 16.00 37.99 16.01 C 38.01 17.34 38.01 18.66 37.99 19.99 C 36.67 20.00 35.34 20.00 34.02 20.00 C 34.01 20.50 33.99 21.50 33.98 22.00 C 32.66 22.01 31.34 22.01 30.02 22.00 C 30.01 21.50 29.99 20.50 29.98 20.00 C 28.66 20.00 27.33 20.00 26.01 19.99 C 25.99 18.66 25.99 17.34 26.01 16.01 Z" />
<path fill="#000000" opacity="1.00" d=" M 14.00 29.91 C 13.90 27.08 13.49 22.99 17.03 22.09 C 20.38 21.88 23.74 22.06 27.09 21.99 C 28.91 21.45 29.47 23.82 31.14 23.91 C 33.12 24.59 34.47 22.86 35.92 22.00 C 39.59 22.05 43.26 21.89 46.93 22.09 C 50.44 23.03 50.14 27.05 50.00 29.91 C 53.26 30.12 56.44 32.12 57.50 35.30 C 58.73 38.35 57.54 41.80 55.31 44.05 C 57.22 44.08 59.03 43.45 60.33 42.00 C 61.56 41.97 62.78 42.00 64.00 42.09 L 64.00 42.86 C 62.07 48.45 54.31 49.38 49.99 46.02 C 46.49 48.61 41.50 48.61 38.00 46.01 C 34.50 48.61 29.50 48.62 26.00 46.01 C 22.50 48.61 17.50 48.62 14.01 46.02 C 9.69 49.38 1.87 48.45 0.00 42.81 L 0.00 42.06 C 1.22 42.00 2.44 41.98 3.66 42.00 C 5.00 43.42 6.79 44.16 8.75 44.05 C 6.49 41.84 5.28 38.39 6.48 35.34 C 7.52 32.14 10.72 30.11 14.00 29.91 M 18.01 26.01 C 17.99 27.34 17.99 28.66 18.01 29.99 C 27.34 30.01 36.66 30.00 45.99 29.99 C 46.01 28.66 46.01 27.34 45.99 26.01 C 43.03 26.00 40.06 25.99 37.10 26.01 C 34.20 28.53 29.82 28.56 26.93 26.02 C 23.96 25.98 20.98 26.00 18.01 26.01 M 10.69 40.27 C 11.77 41.98 13.92 42.12 15.74 42.01 C 17.79 44.64 22.21 44.63 24.27 42.00 C 25.42 41.99 26.58 41.99 27.73 42.00 C 29.79 44.64 34.21 44.63 36.27 42.00 C 37.42 41.99 38.58 41.99 39.74 42.00 C 41.79 44.64 46.21 44.63 48.27 42.00 C 50.25 42.18 52.68 41.79 53.60 39.76 C 54.93 37.31 52.93 33.95 50.14 34.01 C 38.05 33.99 25.95 33.99 13.86 34.01 C 10.81 33.92 8.86 37.86 10.69 40.27 Z" />
</g>
</svg>
