<?xml version="1.0" encoding="UTF-8" ?>
<!DOCTYPE svg PUBLIC "-//W3C//DTD SVG 1.1//EN" "http://www.w3.org/Graphics/SVG/1.1/DTD/svg11.dtd">
<svg width="64pt" height="64pt" viewBox="0 0 64 64" version="1.1" xmlns="http://www.w3.org/2000/svg">
<g id="#ffffffff">
<path fill="#ffffff" opacity="1.00" d=" M 0.00 0.00 L 64.00 0.00 L 64.00 64.00 L 0.00 64.00 L 0.00 0.00 M 43.56 5.87 C 41.94 9.84 41.71 14.23 41.19 18.45 C 38.18 19.22 35.17 19.95 32.16 20.72 C 31.38 23.80 30.62 26.88 29.85 29.96 C 26.79 30.77 23.71 31.51 20.62 32.25 C 19.84 35.38 19.06 38.51 18.28 41.64 C 13.40 43.70 8.50 45.71 3.58 47.68 C 4.09 48.91 4.60 50.15 5.10 51.39 C 10.63 49.15 16.15 46.90 21.65 44.60 C 22.42 41.58 23.16 38.55 23.94 35.53 C 27.02 34.80 30.10 34.05 33.15 33.22 C 33.91 30.18 34.68 27.14 35.42 24.09 C 38.56 23.24 41.73 22.48 44.88 21.68 C 45.56 16.93 45.37 11.84 47.44 7.42 C 50.55 4.87 55.49 6.04 57.36 9.54 C 59.15 11.64 57.91 14.48 56.13 16.11 C 41.64 30.72 27.06 45.23 12.51 59.78 C 13.45 60.72 14.40 61.66 15.34 62.61 C 29.88 48.07 44.45 33.58 58.93 18.98 C 62.38 15.94 63.45 10.38 60.27 6.75 C 56.77 1.01 47.51 0.26 43.56 5.87 Z" />
</g>
<g id="#000000ff">
<path fill="#000000" opacity="1.00" d=" M 43.56 5.87 C 47.51 0.26 56.77 1.01 60.27 6.75 C 63.45 10.38 62.38 15.94 58.93 18.98 C 44.45 33.58 29.88 48.07 15.34 62.61 C 14.40 61.66 13.45 60.72 12.51 59.78 C 27.06 45.23 41.64 30.72 56.13 16.11 C 57.91 14.48 59.15 11.64 57.36 9.54 C 55.49 6.04 50.55 4.87 47.44 7.42 C 45.37 11.84 45.56 16.93 44.88 21.68 C 41.73 22.48 38.56 23.24 35.42 24.09 C 34.68 27.14 33.91 30.18 33.15 33.22 C 30.10 34.05 27.02 34.80 23.94 35.53 C 23.16 38.55 22.42 41.58 21.65 44.60 C 16.15 46.90 10.63 49.15 5.10 51.39 C 4.60 50.15 4.09 48.91 3.58 47.68 C 8.50 45.71 13.40 43.70 18.28 41.64 C 19.06 38.51 19.84 35.38 20.62 32.25 C 23.71 31.51 26.79 30.77 29.85 29.96 C 30.62 26.88 31.38 23.80 32.16 20.72 C 35.17 19.95 38.18 19.22 41.19 18.45 C 41.71 14.23 41.94 9.84 43.56 5.87 Z" />
</g>
</svg>
