<?xml version="1.0" encoding="UTF-8" ?>
<!DOCTYPE svg PUBLIC "-//W3C//DTD SVG 1.1//EN" "http://www.w3.org/Graphics/SVG/1.1/DTD/svg11.dtd">
<svg width="60pt" height="60pt" viewBox="0 0 60 60" version="1.1" xmlns="http://www.w3.org/2000/svg">
<g id="#ffffffff">
<path fill="#ffffff" opacity="1.00" d=" M 0.00 0.00 L 60.00 0.00 L 60.00 60.00 L 0.00 60.00 L 0.00 0.00 M 40.44 8.32 C 37.07 11.57 37.39 16.59 35.54 20.59 C 33.89 22.99 30.27 21.34 28.06 22.94 C 25.71 24.36 25.50 27.30 24.93 29.71 C 23.25 30.08 21.46 30.16 19.91 30.96 C 17.41 32.47 17.42 35.73 16.04 38.03 C 13.57 40.71 9.75 41.16 6.56 42.58 C 5.23 43.69 6.31 46.33 8.10 45.95 C 12.09 45.39 16.04 43.72 18.91 40.85 C 20.62 39.07 20.60 36.32 22.05 34.42 C 24.26 33.80 27.17 33.91 28.37 31.55 C 29.08 29.83 29.45 27.99 29.99 26.22 C 32.72 25.96 35.91 26.12 37.94 23.94 C 41.24 20.66 40.23 15.41 42.76 11.73 C 43.91 9.93 46.57 9.51 48.30 10.71 C 50.28 12.00 50.54 15.14 48.81 16.74 C 37.86 27.83 26.77 38.79 15.78 49.84 C 14.67 50.77 13.73 52.42 15.15 53.58 C 16.31 54.63 17.77 53.53 18.61 52.66 C 29.61 41.60 40.72 30.63 51.69 19.54 C 54.33 16.95 54.72 12.49 52.59 9.48 C 50.03 5.45 43.72 4.85 40.44 8.32 Z" />
</g>
<g id="#000000ff">
<path fill="#000000" opacity="1.00" d=" M 40.44 8.32 C 43.72 4.85 50.03 5.45 52.59 9.48 C 54.72 12.49 54.33 16.95 51.69 19.54 C 40.72 30.63 29.61 41.60 18.61 52.66 C 17.77 53.53 16.31 54.63 15.15 53.58 C 13.73 52.42 14.67 50.77 15.78 49.84 C 26.77 38.79 37.86 27.83 48.81 16.74 C 50.54 15.14 50.28 12.00 48.30 10.71 C 46.57 9.51 43.91 9.93 42.76 11.73 C 40.23 15.41 41.24 20.66 37.94 23.94 C 35.91 26.12 32.72 25.96 29.99 26.22 C 29.45 27.99 29.08 29.83 28.37 31.55 C 27.17 33.91 24.26 33.80 22.05 34.42 C 20.60 36.32 20.62 39.07 18.91 40.85 C 16.04 43.72 12.09 45.39 8.10 45.95 C 6.31 46.33 5.23 43.69 6.56 42.58 C 9.75 41.16 13.57 40.71 16.04 38.03 C 17.42 35.73 17.41 32.47 19.91 30.96 C 21.46 30.16 23.25 30.08 24.93 29.71 C 25.50 27.30 25.71 24.36 28.06 22.94 C 30.27 21.34 33.89 22.99 35.54 20.59 C 37.39 16.59 37.07 11.57 40.44 8.32 Z" />
</g>
</svg>
