<?xml version="1.0" encoding="UTF-8" ?>
<!DOCTYPE svg PUBLIC "-//W3C//DTD SVG 1.1//EN" "http://www.w3.org/Graphics/SVG/1.1/DTD/svg11.dtd">
<svg width="60pt" height="60pt" viewBox="0 0 60 60" version="1.1" xmlns="http://www.w3.org/2000/svg">
<g id="#ffffffff">
<path fill="#ffffff" opacity="1.00" d=" M 0.00 0.00 L 60.00 0.00 L 60.00 8.99 C 59.49 8.72 58.46 8.17 57.94 7.89 C 57.46 8.15 56.48 8.67 56.00 8.93 C 54.94 8.31 53.68 7.36 52.57 8.51 C 51.36 9.63 52.25 10.93 52.93 12.00 C 52.27 13.09 51.40 14.33 52.56 15.46 C 53.71 16.56 54.90 15.70 56.00 15.07 C 56.51 15.33 57.51 15.85 58.02 16.11 C 58.51 15.85 59.50 15.31 60.00 15.04 L 60.00 60.00 L 0.00 60.00 L 0.00 0.00 M 37.59 15.69 C 35.97 13.48 32.87 13.64 31.42 15.96 C 23.67 12.05 13.46 14.23 8.15 21.15 C 2.82 27.60 2.63 37.64 7.73 44.27 C 11.21 49.08 17.06 52.02 22.99 51.99 C 29.67 52.05 36.21 48.27 39.47 42.43 C 42.66 37.05 42.73 30.16 40.05 24.55 C 42.34 23.12 42.52 20.07 40.38 18.40 C 42.89 16.38 45.48 14.10 48.84 13.79 C 50.77 13.07 50.07 9.84 47.98 10.02 C 43.85 10.20 40.49 13.03 37.59 15.69 Z" />
<path fill="#ffffff" opacity="1.00" d=" M 60.00 12.86 C 58.57 12.37 58.57 11.76 60.00 11.01 L 60.00 12.86 Z" />
</g>
<g id="#000000ff">
<path fill="#000000" opacity="1.00" d=" M 52.57 8.51 C 53.68 7.36 54.94 8.31 56.00 8.93 C 56.48 8.67 57.46 8.15 57.94 7.89 C 58.46 8.17 59.49 8.72 60.00 8.99 L 60.00 11.01 C 58.57 11.76 58.57 12.37 60.00 12.86 L 60.00 15.04 C 59.50 15.31 58.51 15.85 58.02 16.11 C 57.51 15.85 56.51 15.33 56.00 15.07 C 54.90 15.70 53.71 16.56 52.56 15.46 C 51.40 14.33 52.27 13.09 52.93 12.00 C 52.25 10.93 51.36 9.63 52.57 8.51 Z" />
<path fill="#000000" opacity="1.00" d=" M 37.59 15.69 C 40.49 13.03 43.85 10.20 47.98 10.02 C 50.07 9.84 50.77 13.07 48.84 13.79 C 45.48 14.10 42.89 16.38 40.38 18.40 C 42.52 20.07 42.34 23.12 40.05 24.55 C 42.73 30.16 42.66 37.05 39.47 42.43 C 36.21 48.27 29.67 52.05 22.99 51.99 C 17.06 52.02 11.21 49.08 7.73 44.27 C 2.63 37.64 2.82 27.60 8.15 21.15 C 13.46 14.23 23.67 12.05 31.42 15.96 C 32.87 13.64 35.97 13.48 37.59 15.69 Z" />
</g>
</svg>
