<?xml version="1.0" encoding="UTF-8" ?>
<!DOCTYPE svg PUBLIC "-//W3C//DTD SVG 1.1//EN" "http://www.w3.org/Graphics/SVG/1.1/DTD/svg11.dtd">
<svg width="60pt" height="60pt" viewBox="0 0 60 60" version="1.1" xmlns="http://www.w3.org/2000/svg">
<g id="#ffffffff">
<path fill="#ffffff" opacity="1.00" d=" M 0.00 0.00 L 60.00 0.00 L 60.00 60.00 L 0.00 60.00 L 0.00 0.00 M 40.14 5.05 C 37.47 7.74 34.64 10.29 32.20 13.19 C 31.89 14.99 32.01 16.83 31.97 18.65 C 28.98 19.47 25.75 20.21 23.51 22.51 C 19.45 26.50 15.46 30.55 11.44 34.58 C 16.09 39.25 20.74 43.91 25.42 48.56 C 29.59 44.37 33.85 40.25 37.95 35.99 C 40.09 33.87 40.88 30.91 41.61 28.09 C 43.35 28.01 45.11 28.09 46.83 27.78 C 50.04 25.00 53.04 21.93 55.86 18.76 C 56.77 16.32 53.99 15.70 52.19 16.22 C 49.68 13.59 47.01 11.13 44.55 8.46 C 43.44 7.24 44.27 5.13 42.92 4.02 C 41.80 3.87 40.87 4.21 40.14 5.05 M 8.54 51.53 C 12.93 51.86 17.52 52.30 21.73 50.60 C 17.66 46.45 13.54 42.34 9.41 38.26 C 7.71 42.48 8.06 47.16 8.54 51.53 Z" />
<path fill="#ffffff" opacity="1.00" d=" M 36.09 14.15 C 39.24 14.24 43.84 12.78 45.61 16.32 C 46.39 18.77 45.91 21.41 45.83 23.94 C 43.98 24.09 42.13 23.91 40.42 23.16 C 40.97 21.69 42.82 20.15 41.47 18.59 C 39.91 17.14 38.34 19.00 36.86 19.58 C 36.05 17.87 35.92 16.01 36.09 14.15 Z" />
</g>
<g id="#000000ff">
<path fill="#000000" opacity="1.00" d=" M 40.14 5.05 C 40.87 4.21 41.80 3.87 42.92 4.02 C 44.27 5.13 43.44 7.24 44.55 8.46 C 47.01 11.13 49.68 13.59 52.19 16.22 C 53.99 15.70 56.77 16.32 55.86 18.76 C 53.04 21.93 50.04 25.00 46.83 27.78 C 45.11 28.09 43.35 28.01 41.61 28.09 C 40.88 30.91 40.09 33.87 37.95 35.99 C 33.85 40.25 29.59 44.37 25.42 48.56 C 20.74 43.91 16.09 39.25 11.44 34.58 C 15.46 30.55 19.45 26.50 23.51 22.51 C 25.75 20.21 28.98 19.47 31.97 18.65 C 32.01 16.83 31.89 14.99 32.20 13.19 C 34.64 10.29 37.47 7.74 40.14 5.05 M 36.09 14.15 C 35.92 16.01 36.05 17.87 36.86 19.58 C 38.34 19.00 39.91 17.14 41.47 18.59 C 42.82 20.15 40.97 21.69 40.42 23.16 C 42.13 23.91 43.98 24.09 45.83 23.94 C 45.91 21.41 46.39 18.77 45.61 16.32 C 43.84 12.78 39.24 14.24 36.09 14.15 Z" />
<path fill="#000000" opacity="1.00" d=" M 8.54 51.53 C 8.06 47.16 7.71 42.48 9.41 38.26 C 13.54 42.34 17.66 46.45 21.73 50.60 C 17.52 52.30 12.93 51.86 8.54 51.53 Z" />
</g>
</svg>
