<?xml version="1.0" encoding="UTF-8" ?>
<!DOCTYPE svg PUBLIC "-//W3C//DTD SVG 1.1//EN" "http://www.w3.org/Graphics/SVG/1.1/DTD/svg11.dtd">
<svg width="60pt" height="60pt" viewBox="0 0 60 60" version="1.1" xmlns="http://www.w3.org/2000/svg">
<g id="#ffffffff">
<path fill="#ffffff" opacity="1.00" d=" M 0.00 0.00 L 23.22 0.00 C 22.23 0.45 21.25 0.91 20.28 1.40 C 16.40 -0.46 11.65 1.11 10.29 5.33 C 5.52 5.83 2.35 10.33 2.11 14.88 C 1.92 19.60 1.85 24.35 2.15 29.07 C 2.33 32.06 5.27 33.48 7.76 34.28 C 8.17 35.55 7.98 38.03 9.92 37.91 C 23.29 38.06 36.67 38.06 50.03 37.91 C 52.54 37.88 51.93 34.68 52.07 33.01 C 51.86 31.42 52.52 29.21 50.88 28.20 C 49.35 27.98 47.80 27.98 46.25 27.91 C 45.86 29.30 46.15 32.03 44.00 31.92 C 34.68 32.07 25.35 32.06 16.03 31.92 C 13.89 32.05 14.12 29.39 13.75 27.99 C 12.16 27.99 10.56 28.02 8.96 28.07 C 8.59 28.69 7.85 29.93 7.48 30.55 C 5.21 28.30 6.18 24.90 5.97 22.05 C 6.03 17.57 5.07 11.57 10.01 9.23 C 11.34 10.97 14.21 13.62 16.08 11.00 C 17.92 9.02 15.44 6.96 14.12 5.62 C 15.36 5.03 18.14 3.52 18.29 6.04 C 18.47 7.79 19.90 9.63 21.86 8.83 C 24.34 8.29 23.62 5.35 23.69 3.53 C 27.32 4.79 25.64 9.14 26.02 12.00 C 27.35 12.00 28.69 12.00 30.02 12.00 C 30.27 7.53 30.58 1.09 24.88 0.00 L 60.00 0.00 L 60.00 60.00 L 0.00 60.00 L 0.00 0.00 M 19.11 16.17 C 18.88 16.41 18.42 16.87 18.18 17.10 C 17.85 20.36 17.85 23.67 18.19 26.93 C 18.44 27.16 18.93 27.61 19.18 27.84 C 25.10 28.24 31.06 27.87 36.99 28.02 C 38.59 27.81 40.77 28.56 41.80 26.92 C 42.15 23.66 42.15 20.33 41.80 17.07 C 41.57 16.85 41.12 16.40 40.89 16.18 C 33.65 15.86 26.35 15.88 19.11 16.17 M 9.11 42.17 C 7.43 43.20 8.17 45.43 7.95 47.05 C 8.07 48.72 7.43 51.94 9.98 51.93 C 23.62 51.97 37.29 52.21 50.92 51.81 C 52.96 49.86 51.74 46.50 51.93 43.97 C 52.02 41.84 49.50 41.95 48.03 41.98 C 35.06 42.14 22.06 41.76 9.11 42.17 Z" />
<path fill="#ffffff" opacity="1.00" d=" M 23.12 18.14 C 24.79 17.89 27.92 17.44 27.95 19.92 C 27.82 21.84 28.80 24.60 26.86 25.86 C 25.21 26.11 22.08 26.55 22.04 24.08 C 22.18 22.16 21.20 19.40 23.12 18.14 M 24.00 20.00 C 24.00 21.33 24.00 22.67 24.00 24.00 C 24.50 24.00 25.50 24.00 26.00 24.00 C 26.00 22.67 26.00 21.33 26.00 20.00 C 25.50 20.00 24.50 20.00 24.00 20.00 Z" />
<path fill="#ffffff" opacity="1.00" d=" M 33.11 18.15 C 34.78 17.88 37.97 17.45 37.96 19.98 C 37.86 21.89 38.69 24.42 37.00 25.83 C 35.34 26.08 32.13 26.61 32.05 24.13 C 32.18 22.20 31.21 19.45 33.11 18.15 M 34.00 20.00 C 34.00 21.33 34.00 22.67 34.00 24.00 C 34.50 24.00 35.50 24.00 36.00 24.00 C 36.00 22.67 36.00 21.33 36.00 20.00 C 35.50 20.00 34.50 20.00 34.00 20.00 Z" />
</g>
<g id="#000000ff">
<path fill="#968176" opacity="1.00" d=" M 23.22 0.00 L 24.88 0.00 C 30.58 1.09 30.27 7.53 30.02 12.00 C 28.69 12.00 27.35 12.00 26.02 12.00 C 25.64 9.14 27.32 4.79 23.69 3.53 C 23.62 5.35 24.34 8.29 21.86 8.83 C 19.90 9.63 18.47 7.79 18.29 6.04 C 18.14 3.52 15.36 5.03 14.12 5.62 C 15.44 6.96 17.92 9.02 16.08 11.00 C 14.21 13.62 11.34 10.97 10.01 9.23 C 5.07 11.57 6.03 17.57 5.97 22.05 C 6.18 24.90 5.21 28.30 7.48 30.55 C 7.85 29.93 8.59 28.69 8.96 28.07 C 10.56 28.02 12.16 27.99 13.75 27.99 C 14.12 29.39 13.89 32.05 16.03 31.92 C 25.35 32.06 34.68 32.07 44.00 31.92 C 46.15 32.03 45.86 29.30 46.25 27.91 C 47.80 27.98 49.35 27.98 50.88 28.20 C 52.52 29.21 51.86 31.42 52.07 33.01 C 51.93 34.68 52.54 37.88 50.03 37.91 C 36.67 38.06 23.29 38.06 9.92 37.91 C 7.98 38.03 8.17 35.55 7.76 34.28 C 5.27 33.48 2.33 32.06 2.15 29.07 C 1.85 24.35 1.92 19.60 2.11 14.88 C 2.35 10.33 5.52 5.83 10.29 5.33 C 11.65 1.11 16.40 -0.46 20.28 1.40 C 21.25 0.91 22.23 0.45 23.22 0.00 Z" />
<path fill="#968176" opacity="1.00" d=" M 19.11 16.17 C 26.35 15.88 33.65 15.86 40.89 16.18 C 41.12 16.40 41.57 16.85 41.80 17.07 C 42.15 20.33 42.15 23.66 41.80 26.92 C 40.77 28.56 38.59 27.81 36.99 28.02 C 31.06 27.87 25.10 28.24 19.18 27.84 C 18.93 27.61 18.44 27.16 18.19 26.93 C 17.85 23.67 17.85 20.36 18.18 17.10 C 18.42 16.87 18.88 16.41 19.11 16.17 M 23.12 18.14 C 21.20 19.40 22.18 22.16 22.04 24.08 C 22.08 26.55 25.21 26.11 26.86 25.86 C 28.80 24.60 27.82 21.84 27.95 19.92 C 27.92 17.44 24.79 17.89 23.12 18.14 M 33.11 18.15 C 31.21 19.45 32.18 22.20 32.05 24.13 C 32.13 26.61 35.34 26.08 37.00 25.83 C 38.69 24.42 37.86 21.89 37.96 19.98 C 37.97 17.45 34.78 17.88 33.11 18.15 Z" />
<path fill="#968176" opacity="1.00" d=" M 24.00 20.00 C 24.50 20.00 25.50 20.00 26.00 20.00 C 26.00 21.33 26.00 22.67 26.00 24.00 C 25.50 24.00 24.50 24.00 24.00 24.00 C 24.00 22.67 24.00 21.33 24.00 20.00 Z" />
<path fill="#968176" opacity="1.00" d=" M 34.00 20.00 C 34.50 20.00 35.50 20.00 36.00 20.00 C 36.00 21.33 36.00 22.67 36.00 24.00 C 35.50 24.00 34.50 24.00 34.00 24.00 C 34.00 22.67 34.00 21.33 34.00 20.00 Z" />
<path fill="#968176" opacity="1.00" d=" M 9.11 42.17 C 22.06 41.76 35.06 42.14 48.03 41.98 C 49.50 41.95 52.02 41.84 51.93 43.97 C 51.74 46.50 52.96 49.86 50.92 51.81 C 37.29 52.21 23.62 51.97 9.98 51.93 C 7.43 51.94 8.07 48.72 7.95 47.05 C 8.17 45.43 7.43 43.20 9.11 42.17 Z" />
</g>
</svg>
