<?xml version="1.0" encoding="UTF-8" ?>
<!DOCTYPE svg PUBLIC "-//W3C//DTD SVG 1.1//EN" "http://www.w3.org/Graphics/SVG/1.1/DTD/svg11.dtd">
<svg width="60pt" height="60pt" viewBox="0 0 60 60" version="1.1" xmlns="http://www.w3.org/2000/svg">
<g id="#ffffffff">
<path fill="#ffffff" opacity="1.00" d=" M 0.00 0.00 L 60.00 0.00 L 60.00 60.00 L 0.00 60.00 L 0.00 0.00 M 26.28 6.04 C 25.66 8.97 25.29 12.03 23.90 14.73 C 21.88 18.94 18.28 22.25 16.79 26.73 C 15.52 30.64 15.68 35.27 18.25 38.63 C 23.62 45.79 36.23 45.92 41.31 38.33 C 44.93 33.36 44.35 26.68 42.68 21.09 C 41.65 18.45 40.70 15.28 38.00 13.90 C 37.20 14.94 36.40 15.98 35.60 17.01 C 33.36 16.31 33.29 13.51 32.21 11.76 C 30.93 9.40 29.44 5.90 26.28 6.04 M 13.13 47.76 C 14.97 48.29 16.89 48.51 18.77 48.86 C 16.22 49.33 13.64 49.63 11.12 50.24 C 9.18 50.94 9.98 54.29 12.06 53.93 C 18.40 53.21 24.64 51.64 31.00 51.00 C 37.36 51.63 43.61 53.22 49.97 53.93 C 52.07 54.23 52.80 50.90 50.84 50.22 C 48.33 49.53 45.75 49.26 43.19 48.85 C 45.08 48.51 46.99 48.29 48.84 47.78 C 50.77 47.09 50.07 43.75 47.98 44.08 C 44.38 44.53 40.64 44.84 37.35 46.48 C 33.80 48.11 29.72 48.26 25.92 47.60 C 21.77 46.97 18.39 43.79 14.03 44.07 C 11.95 43.74 11.21 47.07 13.13 47.76 Z" />
<path fill="#ffffff" opacity="1.00" d=" M 30.72 31.73 C 31.71 29.99 31.78 27.93 32.12 26.00 C 33.22 29.54 34.31 33.22 33.89 36.97 C 33.32 40.23 28.44 41.11 26.76 38.26 C 24.95 35.68 26.84 32.58 27.82 30.08 C 28.64 30.84 29.36 32.54 30.72 31.73 Z" />
</g>
<g id="#000000ff">
<path fill="#000000" opacity="1.00" d=" M 26.28 6.04 C 29.44 5.90 30.93 9.40 32.21 11.76 C 33.29 13.51 33.36 16.31 35.60 17.01 C 36.40 15.98 37.20 14.94 38.00 13.90 C 40.70 15.28 41.65 18.45 42.68 21.09 C 44.35 26.68 44.93 33.36 41.31 38.33 C 36.23 45.92 23.62 45.79 18.25 38.63 C 15.68 35.27 15.52 30.64 16.79 26.73 C 18.28 22.25 21.88 18.94 23.90 14.73 C 25.29 12.03 25.66 8.97 26.28 6.04 M 30.72 31.73 C 29.36 32.54 28.64 30.84 27.82 30.08 C 26.84 32.58 24.95 35.68 26.76 38.26 C 28.44 41.11 33.32 40.23 33.89 36.97 C 34.31 33.22 33.22 29.54 32.12 26.00 C 31.78 27.93 31.71 29.99 30.72 31.73 Z" />
<path fill="#000000" opacity="1.00" d=" M 13.13 47.76 C 11.21 47.07 11.95 43.74 14.03 44.07 C 18.39 43.79 21.77 46.97 25.92 47.60 C 29.72 48.26 33.80 48.11 37.35 46.48 C 40.64 44.84 44.38 44.53 47.98 44.08 C 50.07 43.75 50.77 47.09 48.84 47.78 C 46.99 48.29 45.08 48.51 43.19 48.85 C 45.75 49.26 48.33 49.53 50.84 50.22 C 52.80 50.90 52.07 54.23 49.97 53.93 C 43.61 53.22 37.36 51.63 31.00 51.00 C 24.64 51.64 18.40 53.21 12.06 53.93 C 9.98 54.29 9.18 50.94 11.12 50.24 C 13.64 49.63 16.22 49.33 18.77 48.86 C 16.89 48.51 14.97 48.29 13.13 47.76 Z" />
</g>
</svg>
