<?xml version="1.0" encoding="UTF-8" ?>
<!DOCTYPE svg PUBLIC "-//W3C//DTD SVG 1.1//EN" "http://www.w3.org/Graphics/SVG/1.1/DTD/svg11.dtd">
<svg width="60pt" height="60pt" viewBox="0 0 60 60" version="1.1" xmlns="http://www.w3.org/2000/svg">
<g id="#ffffffff">
<path fill="#ffffff" opacity="1.00" d=" M 0.00 0.00 L 60.00 0.00 L 60.00 60.00 L 0.00 60.00 L 0.00 0.00 M 4.08 14.01 C 3.84 23.68 4.11 33.37 3.97 43.04 C 4.07 45.32 3.62 48.71 6.37 49.62 C 12.45 50.68 18.71 49.43 24.82 50.22 C 25.92 50.70 26.96 51.29 28.02 51.86 C 27.92 39.25 28.13 26.62 27.92 14.01 C 28.05 11.80 26.21 9.93 23.99 10.08 C 18.67 9.91 13.33 9.91 8.01 10.08 C 5.81 9.95 3.95 11.81 4.08 14.01 M 32.02 14.95 C 31.95 27.25 32.04 39.57 31.98 51.88 C 33.31 51.26 34.52 50.22 36.02 50.08 C 41.62 49.68 47.26 50.39 52.85 49.81 C 55.20 49.61 56.11 47.09 55.98 45.06 C 56.02 35.02 56.02 24.98 55.98 14.94 C 56.09 12.91 55.26 10.33 52.86 10.19 C 46.98 9.85 41.03 9.85 35.14 10.19 C 32.78 10.36 31.90 12.91 32.02 14.95 Z" />
</g>
<g id="#000000ff">
<path fill="#000000" opacity="1.00" d=" M 4.08 14.01 C 3.95 11.81 5.81 9.95 8.01 10.08 C 13.33 9.91 18.67 9.91 23.99 10.08 C 26.21 9.93 28.05 11.80 27.92 14.01 C 28.13 26.62 27.92 39.25 28.02 51.86 C 26.96 51.29 25.92 50.70 24.82 50.22 C 18.71 49.43 12.45 50.68 6.37 49.62 C 3.62 48.71 4.07 45.32 3.97 43.04 C 4.11 33.37 3.84 23.68 4.08 14.01 Z" />
<path fill="#000000" opacity="1.00" d=" M 32.02 14.95 C 31.90 12.91 32.78 10.36 35.14 10.19 C 41.03 9.85 46.98 9.85 52.86 10.19 C 55.26 10.33 56.09 12.91 55.98 14.94 C 56.02 24.98 56.02 35.02 55.98 45.06 C 56.11 47.09 55.20 49.61 52.85 49.81 C 47.26 50.39 41.62 49.68 36.02 50.08 C 34.52 50.22 33.31 51.26 31.98 51.88 C 32.04 39.57 31.95 27.25 32.02 14.95 Z" />
</g>
</svg>
