<?xml version="1.0" encoding="UTF-8" ?>
<!DOCTYPE svg PUBLIC "-//W3C//DTD SVG 1.1//EN" "http://www.w3.org/Graphics/SVG/1.1/DTD/svg11.dtd">
<svg width="60pt" height="60pt" viewBox="0 0 60 60" version="1.1" xmlns="http://www.w3.org/2000/svg">
<g id="#ffffffff">
<path fill="#ffffff" opacity="1.00" d=" M 0.00 0.00 L 60.00 0.00 L 60.00 60.00 L 0.00 60.00 L 0.00 0.00 M 12.86 13.88 C 9.70 17.45 9.92 22.46 9.97 26.91 C 8.21 29.67 5.79 32.43 5.99 35.92 C 6.04 39.59 5.82 43.28 6.15 46.94 C 6.53 49.07 8.86 50.21 10.88 50.00 C 23.61 50.01 36.35 50.00 49.08 50.00 C 51.12 50.22 53.45 49.12 53.85 46.94 C 54.18 43.28 53.96 39.59 54.01 35.91 C 54.21 32.43 51.78 29.68 50.03 26.92 C 50.04 22.70 50.33 18.02 47.60 14.47 C 43.54 9.14 36.28 8.05 30.01 8.01 C 23.95 8.05 17.06 9.03 12.86 13.88 Z" />
<path fill="#ffffff" opacity="1.00" d=" M 20.29 13.48 C 26.71 11.43 33.99 11.35 40.33 13.75 C 44.17 15.14 46.20 19.12 46.16 23.05 C 36.81 16.29 23.19 16.28 13.84 23.04 C 13.73 18.84 16.18 14.75 20.29 13.48 Z" />
<path fill="#ffffff" opacity="1.00" d=" M 22.03 23.23 C 27.22 21.63 32.79 21.65 37.97 23.24 C 37.99 24.38 37.99 25.53 37.97 26.67 C 36.56 27.73 35.18 28.81 33.84 29.95 C 31.26 30.04 28.68 30.01 26.10 29.94 C 24.77 28.87 23.40 27.84 22.03 26.82 C 22.01 25.63 22.01 24.43 22.03 23.23 Z" />
<path fill="#ffffff" opacity="1.00" d=" M 11.15 34.17 C 14.05 33.88 17.06 33.73 19.92 34.41 C 23.69 35.56 25.31 40.68 22.70 43.71 C 20.67 46.47 16.91 46.02 13.90 46.04 C 12.60 45.88 10.88 46.30 10.17 44.85 C 9.85 41.62 9.86 38.35 10.17 35.12 C 10.41 34.88 10.90 34.41 11.15 34.17 Z" />
<path fill="#ffffff" opacity="1.00" d=" M 39.44 34.58 C 41.53 33.76 43.86 33.99 46.06 33.96 C 47.37 34.12 49.09 33.69 49.82 35.12 C 50.14 38.36 50.15 41.64 49.82 44.88 C 47.60 47.06 43.75 45.77 40.89 45.80 C 35.38 45.05 34.27 36.68 39.44 34.58 Z" />
</g>
<g id="#000000ff">
<path fill="#968176" opacity="1.00" d=" M 12.86 13.88 C 17.06 9.03 23.95 8.05 30.01 8.01 C 36.28 8.05 43.54 9.14 47.60 14.47 C 50.33 18.02 50.04 22.70 50.03 26.92 C 51.78 29.68 54.21 32.43 54.01 35.91 C 53.96 39.59 54.18 43.28 53.85 46.94 C 53.45 49.12 51.12 50.22 49.08 50.00 C 36.35 50.00 23.61 50.01 10.88 50.00 C 8.86 50.21 6.53 49.07 6.15 46.94 C 5.82 43.28 6.04 39.59 5.99 35.92 C 5.79 32.43 8.21 29.67 9.97 26.91 C 9.92 22.46 9.70 17.45 12.86 13.88 M 20.29 13.48 C 16.18 14.75 13.73 18.84 13.84 23.04 C 23.19 16.28 36.81 16.29 46.16 23.05 C 46.20 19.12 44.17 15.14 40.33 13.75 C 33.99 11.35 26.71 11.43 20.29 13.48 M 22.03 23.23 C 22.01 24.43 22.01 25.63 22.03 26.82 C 23.40 27.84 24.77 28.87 26.10 29.94 C 28.68 30.01 31.26 30.04 33.84 29.95 C 35.18 28.81 36.56 27.73 37.97 26.67 C 37.99 25.53 37.99 24.38 37.97 23.24 C 32.79 21.65 27.22 21.63 22.03 23.23 M 11.15 34.17 C 10.90 34.41 10.41 34.88 10.17 35.12 C 9.86 38.35 9.85 41.62 10.17 44.85 C 10.88 46.30 12.60 45.88 13.90 46.04 C 16.91 46.02 20.67 46.47 22.70 43.71 C 25.31 40.68 23.69 35.56 19.92 34.41 C 17.06 33.73 14.05 33.88 11.15 34.17 M 39.44 34.58 C 34.27 36.68 35.38 45.05 40.89 45.80 C 43.75 45.77 47.60 47.06 49.82 44.88 C 50.15 41.64 50.14 38.36 49.82 35.12 C 49.09 33.69 47.37 34.12 46.06 33.96 C 43.86 33.99 41.53 33.76 39.44 34.58 Z" />
</g>
</svg>
