<?xml version="1.0" encoding="UTF-8" ?>
<!DOCTYPE svg PUBLIC "-//W3C//DTD SVG 1.1//EN" "http://www.w3.org/Graphics/SVG/1.1/DTD/svg11.dtd">
<svg width="64pt" height="64pt" viewBox="0 0 64 64" version="1.1" xmlns="http://www.w3.org/2000/svg">
<g id="#ffffffff">
<path fill="#ffffff" opacity="1.00" d=" M 0.00 0.00 L 64.00 0.00 L 64.00 64.00 L 0.00 64.00 L 0.00 0.00 M 6.05 19.12 C 7.02 20.04 7.98 20.96 8.95 21.88 C 11.84 19.07 14.20 15.51 17.93 13.71 C 19.25 16.45 20.43 19.62 19.73 22.67 C 16.20 27.35 9.56 28.45 6.23 33.27 C 5.64 37.07 7.85 40.66 8.93 44.21 C 10.52 48.06 12.00 53.51 16.98 53.89 C 26.70 54.12 36.43 53.99 46.16 53.96 C 49.29 54.11 51.95 51.86 53.02 49.03 C 55.04 44.21 57.43 39.32 57.97 34.08 C 55.45 28.37 47.75 27.63 44.26 22.63 C 43.75 19.56 44.40 15.95 46.65 13.64 C 49.73 16.09 52.37 19.01 55.05 21.88 C 56.01 20.96 56.98 20.04 57.95 19.12 C 55.31 16.41 52.93 13.39 49.89 11.10 C 48.00 9.66 45.15 9.65 43.37 11.29 C 40.96 13.51 40.54 16.93 40.11 20.00 C 34.70 20.00 29.29 20.00 23.88 20.00 C 23.54 15.97 22.16 10.01 17.09 10.03 C 12.15 10.95 9.55 15.99 6.05 19.12 Z" />
<path fill="#ffffff" opacity="1.00" d=" M 23.53 24.03 C 29.17 23.98 34.82 23.98 40.47 24.02 C 43.62 29.26 49.77 31.21 54.33 34.90 C 52.64 37.88 48.96 37.96 45.94 38.00 C 36.62 38.00 27.30 38.01 17.98 38.00 C 14.98 37.97 11.34 37.86 9.67 34.89 C 14.24 31.22 20.40 29.29 23.53 24.03 Z" />
<path fill="#ffffff" opacity="1.00" d=" M 12.11 41.47 C 19.71 42.49 27.39 41.80 35.03 42.00 C 40.65 41.90 46.31 42.34 51.89 41.47 C 50.28 44.17 50.14 48.45 47.02 49.87 C 37.65 50.18 28.25 49.90 18.87 50.01 C 14.11 50.56 13.91 44.47 12.11 41.47 Z" />
</g>
<g id="#000000ff">
<path fill="#000000" opacity="1.00" d=" M 6.05 19.12 C 9.55 15.99 12.15 10.95 17.09 10.03 C 22.16 10.01 23.54 15.97 23.88 20.00 C 29.29 20.00 34.70 20.00 40.11 20.00 C 40.54 16.93 40.96 13.51 43.37 11.29 C 45.15 9.65 48.00 9.66 49.89 11.10 C 52.93 13.39 55.31 16.41 57.95 19.12 C 56.98 20.04 56.01 20.96 55.05 21.88 C 52.37 19.01 49.73 16.09 46.65 13.64 C 44.40 15.95 43.75 19.56 44.26 22.63 C 47.75 27.63 55.45 28.37 57.97 34.08 C 57.43 39.32 55.04 44.21 53.02 49.03 C 51.95 51.86 49.29 54.11 46.16 53.96 C 36.43 53.99 26.70 54.12 16.98 53.89 C 12.00 53.51 10.52 48.06 8.93 44.21 C 7.85 40.66 5.64 37.07 6.23 33.27 C 9.56 28.45 16.20 27.35 19.73 22.67 C 20.43 19.62 19.25 16.45 17.93 13.71 C 14.20 15.51 11.84 19.07 8.95 21.88 C 7.98 20.96 7.02 20.04 6.05 19.12 M 23.53 24.03 C 20.40 29.29 14.24 31.22 9.67 34.89 C 11.34 37.86 14.98 37.97 17.98 38.00 C 27.30 38.01 36.62 38.00 45.94 38.00 C 48.96 37.96 52.64 37.88 54.33 34.90 C 49.77 31.21 43.62 29.26 40.47 24.02 C 34.82 23.98 29.17 23.98 23.53 24.03 M 12.11 41.47 C 13.91 44.47 14.11 50.56 18.87 50.01 C 28.25 49.90 37.65 50.18 47.02 49.87 C 50.14 48.45 50.28 44.17 51.89 41.47 C 46.31 42.34 40.65 41.90 35.03 42.00 C 27.39 41.80 19.71 42.49 12.11 41.47 Z" />
</g>
</svg>
