<?xml version="1.0" encoding="UTF-8" ?>
<!DOCTYPE svg PUBLIC "-//W3C//DTD SVG 1.1//EN" "http://www.w3.org/Graphics/SVG/1.1/DTD/svg11.dtd">
<svg width="64pt" height="64pt" viewBox="0 0 64 64" version="1.1" xmlns="http://www.w3.org/2000/svg">
<g id="#ffffffff">
<path fill="#ffffff" opacity="1.00" d=" M 0.00 0.00 L 64.00 0.00 L 64.00 64.00 L 0.00 64.00 L 0.00 0.00 M 26.47 8.65 C 19.59 10.26 13.54 15.08 10.46 21.45 C 7.08 28.22 7.22 36.60 10.82 43.25 C 14.52 50.29 21.91 55.24 29.85 55.88 C 38.02 56.70 46.43 52.90 51.26 46.26 C 57.86 37.69 57.44 24.67 50.31 16.53 C 44.69 9.68 35.07 6.54 26.47 8.65 Z" />
<path fill="#ffffff" opacity="1.00" d=" M 29.16 12.20 C 35.52 11.26 42.27 13.60 46.62 18.36 C 51.72 23.69 53.36 31.96 50.78 38.86 C 48.40 45.57 42.16 50.72 35.12 51.74 C 28.43 52.86 21.28 50.26 16.88 45.09 C 12.38 40.00 10.84 32.51 12.92 26.04 C 15.06 18.80 21.68 13.18 29.16 12.20 M 21.33 24.52 C 18.06 26.53 21.57 31.85 24.72 29.45 C 27.88 27.41 24.45 22.22 21.33 24.52 M 39.37 24.51 C 37.58 25.56 37.59 28.50 39.42 29.52 C 41.27 30.82 44.07 29.25 43.99 27.00 C 44.08 24.73 41.21 23.16 39.37 24.51 M 19.83 41.97 C 21.17 41.98 22.50 41.99 23.84 42.02 C 24.09 41.49 24.59 40.45 24.84 39.93 C 29.96 39.91 33.89 44.60 39.09 43.91 C 41.99 43.43 43.80 40.80 44.17 38.03 C 42.83 38.02 41.50 38.01 40.16 37.98 C 39.91 38.50 39.40 39.55 39.15 40.07 C 34.03 40.09 30.09 35.32 24.88 36.13 C 21.96 36.53 20.20 39.25 19.83 41.97 Z" />
</g>
<g id="#000000ff">
<path fill="#000000" opacity="1.00" d=" M 26.47 8.65 C 35.07 6.54 44.69 9.68 50.31 16.53 C 57.44 24.67 57.86 37.69 51.26 46.26 C 46.43 52.90 38.02 56.70 29.85 55.88 C 21.91 55.24 14.52 50.29 10.82 43.25 C 7.22 36.60 7.08 28.22 10.46 21.45 C 13.54 15.08 19.59 10.26 26.47 8.65 M 29.16 12.20 C 21.68 13.18 15.06 18.80 12.92 26.04 C 10.84 32.51 12.38 40.00 16.88 45.09 C 21.28 50.26 28.43 52.86 35.12 51.74 C 42.16 50.72 48.40 45.57 50.78 38.86 C 53.36 31.96 51.72 23.69 46.62 18.36 C 42.27 13.60 35.52 11.26 29.16 12.20 Z" />
<path fill="#000000" opacity="1.00" d=" M 21.33 24.52 C 24.45 22.22 27.88 27.41 24.72 29.45 C 21.57 31.85 18.06 26.53 21.33 24.52 Z" />
<path fill="#000000" opacity="1.00" d=" M 39.37 24.51 C 41.21 23.16 44.08 24.73 43.99 27.00 C 44.07 29.25 41.27 30.82 39.42 29.52 C 37.59 28.50 37.58 25.56 39.37 24.51 Z" />
<path fill="#000000" opacity="1.00" d=" M 19.83 41.97 C 20.20 39.25 21.96 36.53 24.88 36.13 C 30.09 35.32 34.03 40.09 39.15 40.07 C 39.40 39.55 39.91 38.50 40.16 37.98 C 41.50 38.01 42.83 38.02 44.17 38.03 C 43.80 40.80 41.99 43.43 39.09 43.91 C 33.89 44.60 29.96 39.91 24.84 39.93 C 24.59 40.45 24.09 41.49 23.84 42.02 C 22.50 41.99 21.17 41.98 19.83 41.97 Z" />
</g>
</svg>
