<?xml version="1.0" encoding="UTF-8" ?>
<!DOCTYPE svg PUBLIC "-//W3C//DTD SVG 1.1//EN" "http://www.w3.org/Graphics/SVG/1.1/DTD/svg11.dtd">
<svg width="60pt" height="60pt" viewBox="0 0 60 60" version="1.1" xmlns="http://www.w3.org/2000/svg">
<g id="#ffffffff">
<path fill="#ffffff" opacity="1.00" d=" M 0.00 0.00 L 60.00 0.00 L 60.00 60.00 L 0.00 60.00 L 0.00 0.00 M 4.04 11.99 C 3.94 25.32 4.03 38.66 4.00 52.00 C 21.33 52.00 38.67 52.00 56.00 52.00 C 55.97 38.66 56.06 25.33 55.96 12.00 C 56.06 9.45 53.46 7.64 51.07 8.00 C 36.71 8.03 22.34 7.94 7.99 8.04 C 5.85 7.93 3.93 9.86 4.04 11.99 Z" />
<path fill="#ffffff" opacity="1.00" d=" M 8.00 12.00 C 22.67 12.00 37.33 12.00 52.00 12.00 C 52.00 20.00 52.00 28.00 52.00 36.00 C 37.33 36.00 22.67 36.00 8.00 36.00 C 8.00 28.00 8.00 20.00 8.00 12.00 Z" />
<path fill="#ffffff" opacity="1.00" d=" M 9.21 42.09 C 11.62 41.18 13.14 44.84 10.79 45.90 C 8.38 46.84 6.85 43.13 9.21 42.09 Z" />
<path fill="#ffffff" opacity="1.00" d=" M 17.19 42.08 C 19.61 41.19 21.15 44.83 18.79 45.90 C 16.37 46.83 14.87 43.17 17.19 42.08 Z" />
<path fill="#ffffff" opacity="1.00" d=" M 24.00 42.02 C 33.33 41.99 42.67 41.99 52.00 42.02 C 52.00 43.34 52.00 44.66 52.00 45.98 C 42.67 46.01 33.33 46.01 24.00 45.98 C 24.00 44.66 24.00 43.34 24.00 42.02 Z" />
</g>
<g id="#000000ff">
<path fill="#968176" opacity="1.00" d=" M 4.04 11.99 C 3.93 9.86 5.85 7.93 7.99 8.04 C 22.34 7.94 36.71 8.03 51.07 8.00 C 53.46 7.64 56.06 9.45 55.96 12.00 C 56.06 25.33 55.97 38.66 56.00 52.00 C 38.67 52.00 21.33 52.00 4.00 52.00 C 4.03 38.66 3.94 25.32 4.04 11.99 M 8.00 12.00 C 8.00 20.00 8.00 28.00 8.00 36.00 C 22.67 36.00 37.33 36.00 52.00 36.00 C 52.00 28.00 52.00 20.00 52.00 12.00 C 37.33 12.00 22.67 12.00 8.00 12.00 M 9.21 42.09 C 6.85 43.13 8.38 46.84 10.79 45.90 C 13.14 44.84 11.62 41.18 9.21 42.09 M 17.19 42.08 C 14.87 43.17 16.37 46.83 18.79 45.90 C 21.15 44.83 19.61 41.19 17.19 42.08 M 24.00 42.02 C 24.00 43.34 24.00 44.66 24.00 45.98 C 33.33 46.01 42.67 46.01 52.00 45.98 C 52.00 44.66 52.00 43.34 52.00 42.02 C 42.67 41.99 33.33 41.99 24.00 42.02 Z" />
</g>
</svg>
