<?xml version="1.0" encoding="UTF-8" ?>
<!DOCTYPE svg PUBLIC "-//W3C//DTD SVG 1.1//EN" "http://www.w3.org/Graphics/SVG/1.1/DTD/svg11.dtd">
<svg width="60pt" height="60pt" viewBox="0 0 60 60" version="1.1" xmlns="http://www.w3.org/2000/svg">
<g id="#ffffffff">
<path fill="#ffffff" opacity="1.00" d=" M 0.00 0.00 L 60.00 0.00 L 60.00 60.00 L 0.00 60.00 L 0.00 0.00 M 19.23 8.04 C 16.52 9.57 19.36 12.05 20.00 13.93 C 16.96 18.16 12.11 20.96 9.92 25.86 C 5.85 33.85 9.38 42.93 12.22 50.71 C 12.75 52.79 16.11 52.14 15.94 50.04 C 14.42 43.84 11.22 37.68 12.29 31.13 C 12.40 29.23 14.25 28.06 16.02 28.04 C 21.51 27.84 26.47 31.05 30.11 34.91 C 28.55 38.22 24.55 37.25 22.09 39.09 C 21.43 43.49 27.09 41.69 29.53 41.01 C 30.81 44.18 31.43 47.56 32.34 50.84 C 32.84 52.40 35.21 52.34 35.84 50.91 C 36.06 49.20 35.72 47.47 35.72 45.76 C 36.58 45.83 38.30 45.97 39.16 46.05 C 42.27 41.69 34.63 41.72 33.95 37.94 C 37.47 34.14 43.05 33.35 47.93 34.28 C 47.86 39.55 46.68 44.71 46.10 49.92 C 45.65 52.49 50.04 52.65 49.98 50.05 C 51.40 41.56 53.63 32.31 49.94 24.09 C 48.50 20.43 45.56 17.63 43.97 14.07 C 44.54 12.65 45.42 11.39 46.01 9.98 C 46.04 8.48 44.51 7.61 43.16 8.11 C 41.01 9.97 39.22 13.02 40.37 15.90 C 41.61 18.74 43.85 21.01 45.15 23.83 C 36.34 23.47 27.64 21.77 18.85 21.09 C 21.25 18.75 25.14 16.04 23.67 12.15 C 22.84 10.34 21.64 7.61 19.23 8.04 M 33.19 10.06 C 31.27 11.39 32.10 14.09 32.06 16.07 C 31.94 18.61 36.11 18.56 35.94 16.02 C 36.14 13.86 36.69 9.30 33.19 10.06 Z" />
</g>
<g id="#000000ff">
<path fill="#000000" opacity="1.00" d=" M 19.23 8.04 C 21.64 7.61 22.84 10.34 23.67 12.15 C 25.14 16.04 21.25 18.75 18.85 21.09 C 27.64 21.77 36.34 23.47 45.15 23.83 C 43.85 21.01 41.61 18.74 40.37 15.90 C 39.22 13.02 41.01 9.97 43.16 8.11 C 44.51 7.61 46.04 8.48 46.01 9.98 C 45.42 11.39 44.54 12.65 43.97 14.07 C 45.56 17.63 48.50 20.43 49.94 24.09 C 53.63 32.31 51.40 41.56 49.98 50.05 C 50.04 52.65 45.65 52.49 46.10 49.92 C 46.68 44.71 47.86 39.55 47.93 34.28 C 43.05 33.35 37.47 34.14 33.95 37.94 C 34.63 41.72 42.27 41.69 39.16 46.05 C 38.30 45.97 36.58 45.83 35.72 45.76 C 35.72 47.47 36.06 49.20 35.84 50.91 C 35.21 52.34 32.84 52.40 32.34 50.84 C 31.43 47.56 30.81 44.18 29.53 41.01 C 27.09 41.69 21.43 43.49 22.09 39.09 C 24.55 37.25 28.55 38.22 30.11 34.91 C 26.47 31.05 21.51 27.84 16.02 28.04 C 14.25 28.06 12.40 29.23 12.29 31.13 C 11.22 37.68 14.42 43.84 15.94 50.04 C 16.11 52.14 12.75 52.79 12.22 50.71 C 9.38 42.93 5.85 33.85 9.92 25.86 C 12.11 20.96 16.96 18.16 20.00 13.93 C 19.36 12.05 16.52 9.57 19.23 8.04 Z" />
<path fill="#000000" opacity="1.00" d=" M 33.19 10.06 C 36.69 9.30 36.14 13.86 35.94 16.02 C 36.11 18.56 31.94 18.61 32.06 16.07 C 32.10 14.09 31.27 11.39 33.19 10.06 Z" />
</g>
</svg>
