<?xml version="1.0" encoding="UTF-8" ?>
<!DOCTYPE svg PUBLIC "-//W3C//DTD SVG 1.1//EN" "http://www.w3.org/Graphics/SVG/1.1/DTD/svg11.dtd">
<svg width="64pt" height="64pt" viewBox="0 0 64 64" version="1.1" xmlns="http://www.w3.org/2000/svg">
<g id="#ffffffff">
<path fill="#ffffff" opacity="1.00" d=" M 0.00 0.00 L 64.00 0.00 L 64.00 64.00 L 0.00 64.00 L 0.00 0.00 M 49.16 15.84 C 52.90 20.25 56.40 25.19 57.64 30.94 C 58.67 36.66 56.62 43.42 51.37 46.45 C 45.95 49.70 38.20 47.23 35.45 41.59 C 33.31 37.77 34.06 33.16 35.55 29.25 C 34.36 28.68 33.18 28.09 32.00 27.50 C 30.80 28.10 29.59 28.71 28.39 29.31 C 29.79 32.97 30.64 37.19 28.89 40.88 C 26.51 46.72 18.93 49.66 13.28 46.81 C 7.58 44.01 5.19 36.87 6.40 30.90 C 7.70 25.24 11.15 20.39 14.84 16.03 C 13.86 15.05 12.88 14.07 11.90 13.09 C 7.30 18.08 3.30 24.03 2.18 30.84 C 0.95 38.41 4.37 46.99 11.43 50.50 C 18.65 54.25 28.00 50.89 32.00 44.02 C 35.76 50.42 44.11 53.86 51.16 51.11 C 58.73 48.27 62.76 39.63 61.96 31.87 C 61.21 24.58 56.96 18.17 52.09 12.91 C 51.12 13.89 50.14 14.87 49.16 15.84 Z" />
</g>
<g id="#000000ff">
<path fill="#000000" opacity="1.00" d=" M 49.16 15.84 C 50.14 14.87 51.12 13.89 52.09 12.91 C 56.96 18.17 61.21 24.58 61.96 31.87 C 62.76 39.63 58.73 48.27 51.16 51.11 C 44.11 53.86 35.76 50.42 32.00 44.02 C 28.00 50.89 18.65 54.25 11.43 50.50 C 4.37 46.99 0.95 38.41 2.18 30.84 C 3.30 24.03 7.30 18.08 11.90 13.09 C 12.88 14.07 13.86 15.05 14.84 16.03 C 11.15 20.39 7.70 25.24 6.40 30.90 C 5.19 36.87 7.58 44.01 13.28 46.81 C 18.93 49.66 26.51 46.72 28.89 40.88 C 30.64 37.19 29.79 32.97 28.39 29.31 C 29.59 28.71 30.80 28.10 32.00 27.50 C 33.18 28.09 34.36 28.68 35.55 29.25 C 34.06 33.16 33.31 37.77 35.45 41.59 C 38.20 47.23 45.95 49.70 51.37 46.45 C 56.62 43.42 58.67 36.66 57.64 30.94 C 56.40 25.19 52.90 20.25 49.16 15.84 Z" />
</g>
</svg>
