<?xml version="1.0" encoding="UTF-8" ?>
<!DOCTYPE svg PUBLIC "-//W3C//DTD SVG 1.1//EN" "http://www.w3.org/Graphics/SVG/1.1/DTD/svg11.dtd">
<svg width="60pt" height="60pt" viewBox="0 0 60 60" version="1.1" xmlns="http://www.w3.org/2000/svg">
<g id="#ffffffff">
<path fill="#ffffff" opacity="1.00" d=" M 0.00 0.00 L 60.00 0.00 L 60.00 60.00 L 0.00 60.00 L 0.00 0.00 M 3.99 12.01 C 4.05 23.36 3.91 34.71 4.05 46.06 C 3.91 48.60 6.53 50.30 8.87 50.00 C 22.95 50.00 37.04 50.00 51.12 50.00 C 53.47 50.32 56.02 48.57 55.95 46.07 C 56.09 34.73 55.94 23.38 56.01 12.04 C 55.34 11.35 54.68 10.66 54.03 9.97 C 53.52 10.47 52.50 11.49 51.99 12.00 C 51.50 11.50 50.52 10.48 50.02 9.98 C 49.52 10.48 48.50 11.50 47.99 12.00 C 47.50 11.50 46.52 10.48 46.02 9.98 C 45.52 10.48 44.50 11.50 43.99 12.00 C 43.50 11.50 42.52 10.48 42.02 9.98 C 41.52 10.48 40.50 11.50 39.99 12.00 C 39.50 11.50 38.52 10.48 38.02 9.98 C 37.52 10.48 36.50 11.50 35.99 12.00 C 35.50 11.50 34.52 10.48 34.02 9.98 C 33.52 10.48 32.50 11.50 31.99 12.00 C 31.50 11.50 30.52 10.48 30.02 9.98 C 29.52 10.48 28.50 11.50 27.99 12.00 C 27.50 11.50 26.52 10.48 26.02 9.98 C 25.52 10.48 24.50 11.50 23.99 12.00 C 23.50 11.50 22.52 10.48 22.02 9.98 C 21.52 10.48 20.50 11.50 19.99 12.00 C 19.50 11.50 18.52 10.48 18.02 9.98 C 17.52 10.48 16.50 11.50 15.99 12.00 C 15.50 11.50 14.52 10.48 14.02 9.98 C 13.52 10.48 12.50 11.50 11.99 12.00 C 11.50 11.50 10.52 10.48 10.02 9.98 C 9.52 10.48 8.50 11.50 7.99 12.00 C 7.50 11.49 6.51 10.47 6.02 9.96 C 5.35 10.66 4.68 11.34 3.99 12.01 Z" />
<path fill="#ffffff" opacity="1.00" d=" M 16.17 20.21 C 19.79 19.27 23.88 21.27 25.08 24.87 C 26.49 28.99 26.40 34.10 23.55 37.61 C 20.08 41.66 12.54 40.31 10.93 35.12 C 9.00 29.96 9.82 21.72 16.17 20.21 M 16.29 24.43 C 14.41 27.95 13.75 34.51 18.01 36.45 C 21.74 35.11 21.13 30.20 20.80 27.06 C 20.73 24.87 18.25 22.40 16.29 24.43 Z" />
<path fill="#ffffff" opacity="1.00" d=" M 42.01 20.00 C 43.34 20.00 44.66 20.00 45.99 20.00 C 46.00 20.65 46.01 21.95 46.02 22.60 C 47.93 23.54 49.34 25.07 49.90 27.15 C 46.78 27.78 44.67 24.18 41.58 25.81 C 42.33 29.82 48.17 27.60 49.60 31.10 C 50.80 33.95 48.53 36.46 46.01 37.42 C 46.01 38.07 46.00 39.36 45.99 40.00 C 44.66 40.00 43.34 40.00 42.01 40.00 C 42.00 39.36 41.99 38.08 41.99 37.44 C 40.04 36.63 38.58 35.17 37.73 33.25 C 38.60 33.18 40.35 33.05 41.22 32.98 C 41.64 33.45 42.47 34.37 42.89 34.84 C 44.57 34.91 45.81 34.31 46.60 33.03 C 44.38 30.57 39.23 31.97 38.46 27.98 C 37.84 25.41 39.95 23.62 41.98 22.58 C 41.99 21.94 42.00 20.64 42.01 20.00 Z" />
<path fill="#ffffff" opacity="1.00" d=" M 29.19 36.17 C 31.55 35.05 33.20 38.89 30.78 39.88 C 28.43 40.89 26.81 37.12 29.19 36.17 Z" />
</g>
<g id="#000000ff">
<path fill="#000000" opacity="1.00" d=" M 3.99 12.01 C 4.68 11.34 5.35 10.66 6.02 9.96 C 6.51 10.47 7.50 11.49 7.99 12.00 C 8.50 11.50 9.52 10.48 10.02 9.98 C 10.52 10.48 11.50 11.50 11.99 12.00 C 12.50 11.50 13.52 10.48 14.02 9.98 C 14.52 10.48 15.50 11.50 15.99 12.00 C 16.50 11.50 17.52 10.48 18.02 9.98 C 18.52 10.48 19.50 11.50 19.99 12.00 C 20.50 11.50 21.52 10.48 22.02 9.98 C 22.52 10.48 23.50 11.50 23.99 12.00 C 24.50 11.50 25.52 10.48 26.02 9.98 C 26.52 10.48 27.50 11.50 27.99 12.00 C 28.50 11.50 29.52 10.48 30.02 9.98 C 30.52 10.48 31.50 11.50 31.99 12.00 C 32.50 11.50 33.52 10.48 34.02 9.98 C 34.52 10.48 35.50 11.50 35.99 12.00 C 36.50 11.50 37.52 10.48 38.02 9.98 C 38.52 10.48 39.50 11.50 39.99 12.00 C 40.50 11.50 41.52 10.48 42.02 9.98 C 42.52 10.48 43.50 11.50 43.99 12.00 C 44.50 11.50 45.52 10.48 46.02 9.98 C 46.52 10.48 47.50 11.50 47.99 12.00 C 48.50 11.50 49.52 10.48 50.02 9.98 C 50.52 10.48 51.50 11.50 51.99 12.00 C 52.50 11.49 53.52 10.47 54.03 9.97 C 54.68 10.66 55.34 11.35 56.01 12.04 C 55.94 23.38 56.09 34.73 55.95 46.07 C 56.02 48.57 53.47 50.32 51.12 50.00 C 37.04 50.00 22.95 50.00 8.87 50.00 C 6.53 50.30 3.91 48.60 4.05 46.06 C 3.91 34.71 4.05 23.36 3.99 12.01 M 16.17 20.21 C 9.82 21.72 9.00 29.96 10.93 35.12 C 12.54 40.31 20.08 41.66 23.55 37.61 C 26.40 34.10 26.49 28.99 25.08 24.87 C 23.88 21.27 19.79 19.27 16.17 20.21 M 42.01 20.00 C 42.00 20.64 41.99 21.94 41.98 22.58 C 39.95 23.62 37.84 25.41 38.46 27.98 C 39.23 31.97 44.38 30.57 46.60 33.03 C 45.81 34.31 44.57 34.91 42.89 34.84 C 42.47 34.37 41.64 33.45 41.22 32.98 C 40.35 33.05 38.60 33.18 37.73 33.25 C 38.58 35.17 40.04 36.63 41.99 37.44 C 41.99 38.08 42.00 39.36 42.01 40.00 C 43.34 40.00 44.66 40.00 45.99 40.00 C 46.00 39.36 46.01 38.07 46.01 37.42 C 48.53 36.46 50.80 33.95 49.60 31.10 C 48.17 27.60 42.33 29.82 41.58 25.81 C 44.67 24.18 46.78 27.78 49.90 27.15 C 49.34 25.07 47.93 23.54 46.02 22.60 C 46.01 21.95 46.00 20.65 45.99 20.00 C 44.66 20.00 43.34 20.00 42.01 20.00 M 29.19 36.17 C 26.81 37.12 28.43 40.89 30.78 39.88 C 33.20 38.89 31.55 35.05 29.19 36.17 Z" />
<path fill="#000000" opacity="1.00" d=" M 16.29 24.43 C 18.25 22.40 20.73 24.87 20.80 27.06 C 21.13 30.20 21.74 35.11 18.01 36.45 C 13.75 34.51 14.41 27.95 16.29 24.43 Z" />
</g>
</svg>
