<?xml version="1.0" encoding="UTF-8" ?>
<!DOCTYPE svg PUBLIC "-//W3C//DTD SVG 1.1//EN" "http://www.w3.org/Graphics/SVG/1.1/DTD/svg11.dtd">
<svg width="60pt" height="60pt" viewBox="0 0 60 60" version="1.1" xmlns="http://www.w3.org/2000/svg">
<g id="#ffffffff">
<path fill="#ffffff" opacity="1.00" d=" M 0.00 0.00 L 60.00 0.00 L 60.00 60.00 L 0.00 60.00 L 0.00 0.00 M 24.88 8.88 C 22.99 11.81 24.76 15.20 25.54 18.18 C 26.54 20.78 25.38 23.47 24.78 26.01 C 28.26 26.00 31.74 26.00 35.22 26.01 C 34.61 23.47 33.46 20.78 34.46 18.18 C 35.25 15.19 37.01 11.80 35.11 8.86 C 33.01 5.11 26.97 5.11 24.88 8.88 M 40.87 10.90 C 38.99 13.84 40.77 17.21 41.54 20.19 C 42.54 22.79 41.38 25.47 40.77 28.01 C 44.26 28.00 47.74 28.00 51.22 28.01 C 50.60 25.45 49.46 22.75 50.47 20.14 C 51.26 17.16 53.01 13.76 51.09 10.83 C 48.97 7.09 42.94 7.13 40.87 10.90 M 6.45 12.33 C 5.18 15.58 7.52 18.60 8.67 21.48 C 9.87 23.85 9.07 26.53 8.89 29.02 C 12.34 28.52 15.78 28.03 19.22 27.55 C 18.26 25.12 16.72 22.62 17.36 19.90 C 17.71 16.77 19.01 13.04 16.55 10.44 C 13.81 7.06 7.78 8.20 6.45 12.33 M 8.22 33.15 C 7.41 40.81 8.01 49.15 12.01 55.89 C 14.35 56.37 16.76 56.08 19.12 56.00 C 16.49 52.92 14.19 49.29 14.05 45.11 C 13.56 39.87 16.12 34.87 19.91 31.41 C 16.03 32.09 12.12 32.59 8.22 33.15 M 20.60 36.58 C 16.32 41.71 17.60 50.23 23.22 53.85 C 26.77 56.48 31.45 56.30 35.47 54.98 C 34.88 52.16 34.41 49.33 34.05 46.48 C 32.89 45.64 31.97 44.55 31.83 43.07 C 32.37 42.75 33.44 42.11 33.98 41.79 C 34.17 38.85 34.58 35.94 35.16 33.06 C 30.18 30.97 23.92 32.16 20.60 36.58 M 39.86 55.09 C 43.87 56.23 48.13 56.23 52.14 55.09 C 54.59 47.65 54.52 39.51 52.45 32.00 C 48.15 32.00 43.85 32.00 39.56 31.99 C 37.47 39.51 37.41 47.65 39.86 55.09 Z" />
<path fill="#ffffff" opacity="1.00" d=" M 25.34 36.51 C 28.50 34.24 31.89 39.47 28.68 41.48 C 25.52 43.80 22.09 38.51 25.34 36.51 Z" />
<path fill="#ffffff" opacity="1.00" d=" M 25.20 46.17 C 27.53 45.05 29.15 48.81 26.86 49.88 C 24.47 50.93 22.77 47.15 25.20 46.17 Z" />
</g>
<g id="#000000ff">
<path fill="#000000" opacity="1.00" d=" M 24.88 8.88 C 26.97 5.11 33.01 5.11 35.11 8.86 C 37.01 11.80 35.25 15.19 34.46 18.18 C 33.46 20.78 34.61 23.47 35.22 26.01 C 31.74 26.00 28.26 26.00 24.78 26.01 C 25.38 23.47 26.54 20.78 25.54 18.18 C 24.76 15.20 22.99 11.81 24.88 8.88 Z" />
<path fill="#000000" opacity="1.00" d=" M 40.87 10.90 C 42.94 7.13 48.97 7.09 51.09 10.83 C 53.01 13.76 51.26 17.16 50.47 20.14 C 49.46 22.75 50.60 25.45 51.22 28.01 C 47.74 28.00 44.26 28.00 40.77 28.01 C 41.38 25.47 42.54 22.79 41.54 20.19 C 40.77 17.21 38.99 13.84 40.87 10.90 Z" />
<path fill="#000000" opacity="1.00" d=" M 6.45 12.33 C 7.78 8.20 13.81 7.06 16.55 10.44 C 19.01 13.04 17.71 16.77 17.36 19.90 C 16.72 22.62 18.26 25.12 19.22 27.55 C 15.78 28.03 12.34 28.52 8.89 29.02 C 9.07 26.53 9.87 23.85 8.67 21.48 C 7.52 18.60 5.18 15.58 6.45 12.33 Z" />
<path fill="#000000" opacity="1.00" d=" M 8.22 33.15 C 12.12 32.59 16.03 32.09 19.91 31.41 C 16.12 34.87 13.56 39.87 14.05 45.11 C 14.19 49.29 16.49 52.92 19.12 56.00 C 16.76 56.08 14.35 56.37 12.01 55.89 C 8.01 49.15 7.41 40.81 8.22 33.15 Z" />
<path fill="#000000" opacity="1.00" d=" M 20.60 36.58 C 23.92 32.16 30.18 30.97 35.16 33.06 C 34.58 35.94 34.17 38.85 33.98 41.79 C 33.44 42.11 32.37 42.75 31.83 43.07 C 31.97 44.55 32.89 45.64 34.05 46.48 C 34.41 49.33 34.88 52.16 35.47 54.98 C 31.45 56.30 26.77 56.48 23.22 53.85 C 17.60 50.23 16.32 41.71 20.60 36.58 M 25.34 36.51 C 22.09 38.51 25.52 43.80 28.68 41.48 C 31.89 39.47 28.50 34.24 25.34 36.51 M 25.20 46.17 C 22.77 47.15 24.47 50.93 26.86 49.88 C 29.15 48.81 27.53 45.05 25.20 46.17 Z" />
<path fill="#000000" opacity="1.00" d=" M 39.86 55.09 C 37.41 47.65 37.47 39.51 39.56 31.99 C 43.85 32.00 48.15 32.00 52.45 32.00 C 54.52 39.51 54.59 47.65 52.14 55.09 C 48.13 56.23 43.87 56.23 39.86 55.09 Z" />
</g>
</svg>
