<?xml version="1.0" encoding="UTF-8" ?>
<!DOCTYPE svg PUBLIC "-//W3C//DTD SVG 1.1//EN" "http://www.w3.org/Graphics/SVG/1.1/DTD/svg11.dtd">
<svg width="60pt" height="60pt" viewBox="0 0 60 60" version="1.1" xmlns="http://www.w3.org/2000/svg">
<g id="#ffffffff">
<path fill="#ffffff" opacity="1.00" d=" M 0.00 0.00 L 60.00 0.00 L 60.00 60.00 L 0.00 60.00 L 0.00 0.00 M 8.00 8.00 C 8.03 21.33 7.94 34.67 8.04 48.00 C 7.87 50.60 10.55 52.34 12.93 52.00 C 24.62 51.97 36.32 52.06 48.01 51.96 C 50.12 52.04 52.04 50.11 51.96 48.00 C 52.06 34.67 51.97 21.33 52.00 8.00 C 37.33 8.00 22.67 8.00 8.00 8.00 Z" />
<path fill="#ffffff" opacity="1.00" d=" M 23.20 12.16 C 27.43 11.83 31.70 11.97 35.94 12.06 C 38.09 11.82 38.80 15.10 36.79 15.84 C 32.56 16.17 28.29 16.03 24.06 15.94 C 21.92 16.19 21.18 12.87 23.20 12.16 Z" />
</g>
<g id="#000000ff">
<path fill="#000000" opacity="1.00" d=" M 8.00 8.00 C 22.67 8.00 37.33 8.00 52.00 8.00 C 51.97 21.33 52.06 34.67 51.96 48.00 C 52.04 50.11 50.12 52.04 48.01 51.96 C 36.32 52.06 24.62 51.97 12.93 52.00 C 10.55 52.34 7.87 50.60 8.04 48.00 C 7.94 34.67 8.03 21.33 8.00 8.00 M 23.20 12.16 C 21.18 12.87 21.92 16.19 24.06 15.94 C 28.29 16.03 32.56 16.17 36.79 15.84 C 38.80 15.10 38.09 11.82 35.94 12.06 C 31.70 11.97 27.43 11.83 23.20 12.16 Z" />
</g>
</svg>
