<?xml version="1.0" encoding="UTF-8" ?>
<!DOCTYPE svg PUBLIC "-//W3C//DTD SVG 1.1//EN" "http://www.w3.org/Graphics/SVG/1.1/DTD/svg11.dtd">
<svg width="60pt" height="60pt" viewBox="0 0 60 60" version="1.1" xmlns="http://www.w3.org/2000/svg">
<g id="#ffffffff">
<path fill="#ffffff" opacity="1.00" d=" M 0.00 0.00 L 60.00 0.00 L 60.00 60.00 L 0.00 60.00 L 0.00 0.00 M 15.48 8.37 C 12.47 14.03 9.13 19.52 6.24 25.24 C 5.37 26.46 6.79 27.64 7.76 28.16 C 13.59 31.53 19.45 34.84 25.24 38.28 C 23.29 39.79 21.36 41.33 19.40 42.82 C 16.67 41.70 13.14 41.68 11.27 44.33 C 8.46 47.61 10.64 53.25 14.89 53.88 C 19.33 54.88 22.96 50.22 21.86 46.04 C 24.19 44.12 26.60 42.30 28.98 40.44 C 30.73 41.44 32.48 42.45 34.21 43.48 C 33.72 46.58 34.25 50.08 36.88 52.11 C 40.65 55.53 47.30 53.98 49.25 49.31 C 51.59 44.71 48.19 38.64 43.11 38.10 C 40.64 37.57 38.42 38.91 36.37 40.07 C 35.04 39.31 33.71 38.55 32.38 37.80 C 39.37 32.29 46.51 26.98 53.38 21.35 C 55.13 20.06 53.07 17.02 51.22 18.25 C 46.80 21.11 43.00 24.84 38.62 27.75 C 33.41 28.37 28.08 27.82 22.83 27.99 C 26.98 23.76 31.34 19.70 35.36 15.35 C 36.70 14.22 35.68 12.23 34.18 11.95 C 29.05 9.95 23.90 7.97 18.70 6.19 C 17.11 5.45 16.12 7.25 15.48 8.37 Z" />
<path fill="#ffffff" opacity="1.00" d=" M 40.30 42.37 C 42.83 41.05 46.16 43.20 46.01 46.05 C 46.11 49.15 42.15 51.18 39.69 49.28 C 37.20 47.70 37.56 43.48 40.30 42.37 Z" />
<path fill="#ffffff" opacity="1.00" d=" M 15.18 46.09 C 17.61 45.17 19.13 48.77 16.83 49.89 C 14.39 50.89 12.86 47.19 15.18 46.09 Z" />
</g>
<g id="#000000ff">
<path fill="#000000" opacity="1.00" d=" M 15.48 8.37 C 16.12 7.25 17.11 5.45 18.70 6.19 C 23.90 7.97 29.05 9.95 34.18 11.95 C 35.68 12.23 36.70 14.22 35.36 15.35 C 31.34 19.70 26.98 23.76 22.83 27.99 C 28.08 27.82 33.41 28.37 38.62 27.75 C 43.00 24.84 46.80 21.11 51.22 18.25 C 53.07 17.02 55.13 20.06 53.38 21.35 C 46.51 26.98 39.37 32.29 32.38 37.80 C 33.71 38.55 35.04 39.31 36.37 40.07 C 38.42 38.91 40.64 37.57 43.11 38.10 C 48.19 38.64 51.59 44.71 49.25 49.31 C 47.30 53.98 40.65 55.53 36.88 52.11 C 34.25 50.08 33.72 46.58 34.21 43.48 C 32.48 42.45 30.73 41.44 28.98 40.44 C 26.60 42.30 24.19 44.12 21.86 46.04 C 22.96 50.22 19.33 54.88 14.89 53.88 C 10.64 53.25 8.46 47.61 11.27 44.33 C 13.14 41.68 16.67 41.70 19.40 42.82 C 21.36 41.33 23.29 39.79 25.24 38.28 C 19.45 34.84 13.59 31.53 7.76 28.16 C 6.79 27.64 5.37 26.46 6.24 25.24 C 9.13 19.52 12.47 14.03 15.48 8.37 M 40.30 42.37 C 37.56 43.48 37.20 47.70 39.69 49.28 C 42.15 51.18 46.11 49.15 46.01 46.05 C 46.16 43.20 42.83 41.05 40.30 42.37 M 15.18 46.09 C 12.86 47.19 14.39 50.89 16.83 49.89 C 19.13 48.77 17.61 45.17 15.18 46.09 Z" />
</g>
</svg>
