<?xml version="1.0" encoding="UTF-8" ?>
<!DOCTYPE svg PUBLIC "-//W3C//DTD SVG 1.1//EN" "http://www.w3.org/Graphics/SVG/1.1/DTD/svg11.dtd">
<svg width="64pt" height="64pt" viewBox="0 0 64 64" version="1.1" xmlns="http://www.w3.org/2000/svg">
<g id="#ffffffff">
<path fill="#ffffff" opacity="1.00" d=" M 0.00 0.00 L 64.00 0.00 L 64.00 64.00 L 0.00 64.00 L 0.00 0.00 M 20.00 10.00 C 20.00 11.33 20.00 12.67 20.00 14.00 C 21.33 14.00 22.67 14.00 24.00 14.00 C 24.00 12.67 24.00 11.33 24.00 10.00 C 22.67 10.00 21.33 10.00 20.00 10.00 M 10.35 14.16 C 11.08 15.26 11.81 16.37 12.54 17.47 C 13.65 16.73 14.77 15.99 15.89 15.26 C 15.15 14.15 14.42 13.04 13.68 11.93 C 12.57 12.67 11.46 13.42 10.35 14.16 M 27.79 15.24 C 28.90 15.99 30.01 16.73 31.12 17.48 C 31.86 16.35 32.61 15.23 33.36 14.10 C 32.24 13.38 31.13 12.65 30.02 11.91 C 29.28 13.02 28.54 14.14 27.79 15.24 M 42.00 14.00 C 42.00 15.33 42.00 16.67 42.00 18.00 C 43.33 18.00 44.67 18.00 46.00 18.00 C 46.00 16.67 46.00 15.33 46.00 14.00 C 44.67 14.00 43.33 14.00 42.00 14.00 M 49.94 19.39 C 50.98 20.22 52.02 21.05 53.06 21.88 C 53.90 20.84 54.73 19.80 55.56 18.76 C 54.52 17.93 53.48 17.09 52.44 16.26 C 51.61 17.31 50.78 18.35 49.94 19.39 M 13.90 21.96 C 10.93 26.04 11.56 32.13 15.22 35.59 C 9.70 38.18 6.09 43.91 5.91 49.98 C 7.24 49.99 8.57 50.00 9.90 50.00 C 10.21 46.65 11.41 43.26 14.05 41.03 C 18.23 37.21 25.14 37.03 29.50 40.66 C 32.41 42.87 33.78 46.46 34.10 50.00 C 35.44 50.00 36.78 49.99 38.12 49.98 C 37.82 47.66 37.35 45.37 36.50 43.19 C 38.24 38.85 43.79 36.46 47.90 39.09 C 51.76 41.26 52.30 46.02 52.03 50.00 C 53.36 50.00 54.69 50.00 56.03 50.00 C 56.60 44.55 54.88 38.66 50.04 35.61 C 52.15 32.68 52.78 28.54 50.65 25.44 C 47.79 20.88 40.18 20.89 37.33 25.46 C 35.22 28.55 35.84 32.67 37.94 35.59 C 36.44 36.72 35.07 38.00 33.84 39.42 C 32.33 37.92 30.65 36.60 28.79 35.56 C 32.64 31.94 33.08 25.39 29.63 21.37 C 25.71 16.70 17.43 16.94 13.90 21.96 M 4.83 22.23 C 6.05 22.79 7.27 23.34 8.48 23.91 C 9.03 22.70 9.58 21.49 10.13 20.28 C 8.93 19.72 7.73 19.16 6.53 18.60 C 5.96 19.81 5.40 21.02 4.83 22.23 M 54.99 24.89 C 55.40 26.19 55.84 27.49 56.24 28.80 C 57.17 28.51 59.02 27.92 59.95 27.63 C 59.59 26.36 59.24 25.08 58.88 23.81 C 57.59 24.17 56.29 24.53 54.99 24.89 Z" />
<path fill="#ffffff" opacity="1.00" d=" M 19.38 22.48 C 22.86 20.89 27.61 22.99 27.92 27.03 C 28.76 31.02 24.96 34.88 20.94 33.92 C 15.25 33.50 14.23 24.52 19.38 22.48 Z" />
<path fill="#ffffff" opacity="1.00" d=" M 41.58 26.68 C 43.53 25.34 46.81 25.89 47.64 28.31 C 48.79 30.78 46.98 34.28 44.04 34.01 C 40.16 34.44 38.64 28.77 41.58 26.68 Z" />
</g>
<g id="#000000ff">
<path fill="#000000" opacity="1.00" d=" M 20.00 10.00 C 21.33 10.00 22.67 10.00 24.00 10.00 C 24.00 11.33 24.00 12.67 24.00 14.00 C 22.67 14.00 21.33 14.00 20.00 14.00 C 20.00 12.67 20.00 11.33 20.00 10.00 Z" />
<path fill="#000000" opacity="1.00" d=" M 10.35 14.16 C 11.46 13.42 12.57 12.67 13.68 11.93 C 14.42 13.04 15.15 14.15 15.89 15.26 C 14.77 15.99 13.65 16.73 12.54 17.47 C 11.81 16.37 11.08 15.26 10.35 14.16 Z" />
<path fill="#000000" opacity="1.00" d=" M 27.79 15.24 C 28.54 14.14 29.28 13.02 30.02 11.91 C 31.13 12.65 32.24 13.38 33.36 14.10 C 32.61 15.23 31.86 16.35 31.12 17.48 C 30.01 16.73 28.90 15.99 27.79 15.24 Z" />
<path fill="#000000" opacity="1.00" d=" M 42.00 14.00 C 43.33 14.00 44.67 14.00 46.00 14.00 C 46.00 15.33 46.00 16.67 46.00 18.00 C 44.67 18.00 43.33 18.00 42.00 18.00 C 42.00 16.67 42.00 15.33 42.00 14.00 Z" />
<path fill="#000000" opacity="1.00" d=" M 49.94 19.39 C 50.78 18.35 51.61 17.31 52.44 16.26 C 53.48 17.09 54.52 17.93 55.56 18.76 C 54.73 19.80 53.90 20.84 53.06 21.88 C 52.02 21.05 50.98 20.22 49.94 19.39 Z" />
<path fill="#000000" opacity="1.00" d=" M 13.90 21.96 C 17.43 16.94 25.71 16.70 29.63 21.37 C 33.08 25.39 32.64 31.94 28.79 35.56 C 30.65 36.60 32.33 37.92 33.84 39.42 C 35.07 38.00 36.44 36.72 37.94 35.59 C 35.84 32.67 35.22 28.55 37.33 25.46 C 40.18 20.89 47.79 20.88 50.65 25.44 C 52.78 28.54 52.15 32.68 50.04 35.61 C 54.88 38.66 56.60 44.55 56.03 50.00 C 54.69 50.00 53.36 50.00 52.03 50.00 C 52.30 46.02 51.76 41.26 47.90 39.09 C 43.79 36.46 38.24 38.85 36.50 43.19 C 37.35 45.37 37.82 47.66 38.12 49.98 C 36.78 49.99 35.44 50.00 34.10 50.00 C 33.78 46.46 32.41 42.87 29.50 40.66 C 25.14 37.03 18.23 37.21 14.05 41.03 C 11.41 43.26 10.21 46.65 9.90 50.00 C 8.57 50.00 7.24 49.99 5.91 49.98 C 6.09 43.91 9.70 38.18 15.22 35.59 C 11.56 32.13 10.93 26.04 13.90 21.96 M 19.38 22.48 C 14.23 24.52 15.25 33.50 20.94 33.92 C 24.96 34.88 28.76 31.02 27.92 27.03 C 27.61 22.99 22.86 20.89 19.38 22.48 M 41.58 26.68 C 38.64 28.77 40.16 34.44 44.04 34.01 C 46.98 34.28 48.79 30.78 47.64 28.31 C 46.81 25.89 43.53 25.34 41.58 26.68 Z" />
<path fill="#000000" opacity="1.00" d=" M 4.83 22.23 C 5.40 21.02 5.96 19.81 6.53 18.60 C 7.73 19.16 8.93 19.72 10.13 20.28 C 9.58 21.49 9.03 22.70 8.48 23.91 C 7.27 23.34 6.05 22.79 4.83 22.23 Z" />
<path fill="#000000" opacity="1.00" d=" M 54.99 24.89 C 56.29 24.53 57.59 24.17 58.88 23.81 C 59.24 25.08 59.59 26.36 59.95 27.63 C 59.02 27.92 57.17 28.51 56.24 28.80 C 55.84 27.49 55.40 26.19 54.99 24.89 Z" />
</g>
</svg>
