<?xml version="1.0" encoding="UTF-8" ?>
<!DOCTYPE svg PUBLIC "-//W3C//DTD SVG 1.1//EN" "http://www.w3.org/Graphics/SVG/1.1/DTD/svg11.dtd">
<svg width="60pt" height="60pt" viewBox="0 0 60 60" version="1.1" xmlns="http://www.w3.org/2000/svg">
<g id="#ffffffff">
<path fill="#ffffff" opacity="1.00" d=" M 0.00 0.00 L 60.00 0.00 L 60.00 60.00 L 0.00 60.00 L 0.00 0.00 M 17.99 10.27 C 15.94 9.98 13.57 9.40 11.80 10.85 C 10.06 12.29 8.78 14.21 7.65 16.14 C 7.09 17.54 8.53 18.67 8.95 19.92 C 8.51 21.55 6.98 23.16 7.80 24.92 C 9.53 30.33 11.33 35.73 13.15 41.11 C 14.16 44.33 16.65 46.85 19.63 48.36 C 23.11 50.19 26.34 52.56 30.01 54.00 C 34.30 52.19 38.25 49.61 42.24 47.21 C 47.12 44.04 47.68 37.78 49.62 32.78 C 50.67 28.55 53.99 24.08 51.04 19.91 C 51.48 18.68 52.93 17.52 52.33 16.12 C 51.21 14.19 49.93 12.27 48.19 10.85 C 46.42 9.40 44.05 9.99 42.01 10.27 C 40.33 8.91 39.12 6.70 36.98 6.08 C 32.32 5.93 27.65 5.91 22.99 6.09 C 20.88 6.74 19.67 8.92 17.99 10.27 Z" />
<path fill="#ffffff" opacity="1.00" d=" M 20.16 16.01 C 23.73 17.00 26.74 14.74 30.04 13.99 C 33.30 14.81 36.30 16.97 39.84 16.00 C 41.27 18.39 42.98 20.67 43.94 23.29 C 43.47 26.49 40.54 28.70 38.86 31.33 C 40.26 33.39 40.44 36.54 37.85 37.74 C 35.52 37.70 31.44 36.41 32.01 33.47 C 33.47 32.60 35.06 31.95 36.47 31.00 C 36.77 28.76 35.88 26.60 35.53 24.42 C 37.15 23.87 39.89 24.28 40.06 21.97 C 39.90 20.44 38.40 19.73 37.00 20.05 C 35.00 20.31 32.42 20.38 31.18 22.22 C 31.19 24.45 31.93 26.60 32.33 28.77 C 31.75 29.03 30.58 29.56 30.00 29.82 C 29.42 29.56 28.25 29.03 27.67 28.77 C 28.08 26.60 28.81 24.44 28.80 22.21 C 27.33 20.17 24.34 20.18 22.06 20.05 C 20.51 19.87 19.67 21.56 20.10 22.88 C 21.15 24.19 23.01 23.96 24.47 24.42 C 24.11 26.60 23.23 28.76 23.53 30.99 C 24.99 32.49 28.82 32.45 27.97 35.25 C 26.08 36.81 22.54 39.27 20.66 36.44 C 19.35 34.85 20.44 32.90 21.12 31.32 C 19.45 28.68 16.53 26.48 16.05 23.30 C 17.01 20.68 18.72 18.39 20.16 16.01 Z" />
<path fill="#ffffff" opacity="1.00" d=" M 26.28 41.09 C 27.55 40.38 28.80 39.62 30.01 38.81 C 31.24 39.58 32.49 40.33 33.75 41.05 C 32.56 42.18 31.30 43.25 30.00 44.26 C 28.73 43.23 27.47 42.20 26.28 41.09 Z" />
</g>
<g id="#000000ff">
<path fill="#000000" opacity="1.00" d=" M 17.99 10.27 C 19.67 8.92 20.88 6.74 22.99 6.09 C 27.65 5.91 32.32 5.93 36.98 6.08 C 39.12 6.70 40.33 8.91 42.01 10.27 C 44.05 9.99 46.42 9.40 48.19 10.85 C 49.93 12.27 51.21 14.19 52.33 16.12 C 52.93 17.52 51.48 18.68 51.04 19.91 C 53.99 24.08 50.67 28.55 49.62 32.78 C 47.68 37.78 47.12 44.04 42.24 47.21 C 38.25 49.61 34.30 52.19 30.01 54.00 C 26.34 52.56 23.11 50.19 19.63 48.36 C 16.65 46.85 14.16 44.33 13.15 41.11 C 11.33 35.73 9.53 30.33 7.80 24.92 C 6.98 23.16 8.51 21.55 8.95 19.92 C 8.53 18.67 7.09 17.54 7.65 16.14 C 8.78 14.21 10.06 12.29 11.80 10.85 C 13.57 9.40 15.94 9.98 17.99 10.27 M 20.16 16.01 C 18.72 18.39 17.01 20.68 16.05 23.30 C 16.53 26.48 19.45 28.68 21.12 31.32 C 20.44 32.90 19.35 34.85 20.66 36.44 C 22.54 39.27 26.08 36.81 27.97 35.25 C 28.82 32.45 24.99 32.49 23.53 30.99 C 23.23 28.76 24.11 26.60 24.47 24.42 C 23.01 23.96 21.15 24.19 20.10 22.88 C 19.67 21.56 20.51 19.87 22.06 20.05 C 24.34 20.18 27.33 20.17 28.80 22.21 C 28.81 24.44 28.08 26.60 27.67 28.77 C 28.25 29.03 29.42 29.56 30.00 29.82 C 30.58 29.56 31.75 29.03 32.33 28.77 C 31.93 26.60 31.19 24.45 31.18 22.22 C 32.42 20.38 35.00 20.31 37.00 20.05 C 38.40 19.73 39.90 20.44 40.06 21.97 C 39.89 24.28 37.15 23.87 35.53 24.42 C 35.88 26.60 36.77 28.76 36.47 31.00 C 35.06 31.95 33.47 32.60 32.01 33.47 C 31.44 36.41 35.52 37.70 37.85 37.74 C 40.44 36.54 40.26 33.39 38.86 31.33 C 40.54 28.70 43.47 26.49 43.94 23.29 C 42.98 20.67 41.27 18.39 39.84 16.00 C 36.30 16.97 33.30 14.81 30.04 13.99 C 26.74 14.74 23.73 17.00 20.16 16.01 M 26.28 41.09 C 27.47 42.20 28.73 43.23 30.00 44.26 C 31.30 43.25 32.56 42.18 33.75 41.05 C 32.49 40.33 31.24 39.58 30.01 38.81 C 28.80 39.62 27.55 40.38 26.28 41.09 Z" />
</g>
</svg>
