<?xml version="1.0" encoding="UTF-8" ?>
<!DOCTYPE svg PUBLIC "-//W3C//DTD SVG 1.1//EN" "http://www.w3.org/Graphics/SVG/1.1/DTD/svg11.dtd">
<svg width="60pt" height="60pt" viewBox="0 0 60 60" version="1.1" xmlns="http://www.w3.org/2000/svg">
<g id="#ffffffff">
<path fill="#ffffff" opacity="1.00" d=" M 0.00 0.00 L 60.00 0.00 L 60.00 29.44 C 59.67 24.99 59.03 20.25 56.48 16.47 C 55.58 15.12 52.85 16.52 53.42 18.06 C 54.57 22.31 56.42 26.48 55.95 31.00 C 56.11 35.08 53.97 38.69 53.33 42.61 C 53.72 44.35 56.35 44.54 56.97 42.88 C 58.98 39.15 59.73 34.87 60.00 30.69 L 60.00 60.00 L 0.00 60.00 L 0.00 30.57 C 0.25 34.81 0.99 39.16 3.05 42.92 C 3.72 44.86 7.12 44.05 6.59 41.99 C 5.72 38.34 3.95 34.88 4.05 31.04 C 3.59 26.53 5.37 22.33 6.57 18.10 C 7.03 16.57 5.17 15.80 3.91 15.91 C 1.05 19.74 0.35 24.69 0.00 29.33 L 0.00 0.00 M 24.48 8.71 C 15.00 11.04 7.81 20.28 8.01 30.07 C 7.92 38.83 13.67 47.23 21.82 50.40 C 28.42 53.12 36.31 52.28 42.21 48.26 C 48.23 44.29 52.07 37.19 51.97 29.97 C 52.05 22.77 48.23 15.73 42.25 11.75 C 37.12 8.25 30.48 7.14 24.48 8.71 Z" />
<path fill="#ffffff" opacity="1.00" d=" M 25.46 12.58 C 31.98 10.83 39.38 13.12 43.71 18.33 C 48.35 23.66 49.31 31.79 46.08 38.07 C 42.72 45.03 34.53 49.17 26.93 47.73 C 18.90 46.49 12.35 39.20 12.04 31.07 C 11.36 22.73 17.33 14.53 25.46 12.58 M 27.71 20.00 C 27.85 24.00 27.97 28.00 28.09 32.00 C 29.36 32.00 30.63 32.00 31.90 32.00 C 32.02 28.00 32.15 24.00 32.28 20.00 C 30.76 20.00 29.23 20.00 27.71 20.00 M 28.22 35.35 C 25.02 37.83 29.73 41.96 32.21 39.15 C 34.35 36.61 30.70 33.59 28.22 35.35 Z" />
</g>
<g id="#000000ff">
<path fill="#000000" opacity="1.00" d=" M 24.48 8.71 C 30.48 7.14 37.12 8.25 42.25 11.75 C 48.23 15.73 52.05 22.77 51.97 29.97 C 52.07 37.19 48.23 44.29 42.21 48.26 C 36.31 52.28 28.42 53.12 21.82 50.40 C 13.67 47.23 7.92 38.83 8.01 30.07 C 7.81 20.28 15.00 11.04 24.48 8.71 M 25.46 12.58 C 17.33 14.53 11.36 22.73 12.04 31.07 C 12.35 39.20 18.90 46.49 26.93 47.73 C 34.53 49.17 42.72 45.03 46.08 38.07 C 49.31 31.79 48.35 23.66 43.71 18.33 C 39.38 13.12 31.98 10.83 25.46 12.58 Z" />
<path fill="#000000" opacity="1.00" d=" M 0.00 29.33 C 0.35 24.69 1.05 19.74 3.91 15.91 C 5.17 15.80 7.03 16.57 6.57 18.10 C 5.37 22.33 3.59 26.53 4.05 31.04 C 3.95 34.88 5.72 38.34 6.59 41.99 C 7.12 44.05 3.72 44.86 3.05 42.92 C 0.99 39.16 0.25 34.81 0.00 30.57 L 0.00 29.33 Z" />
<path fill="#000000" opacity="1.00" d=" M 53.42 18.06 C 52.85 16.52 55.58 15.12 56.48 16.47 C 59.03 20.25 59.67 24.99 60.00 29.44 L 60.00 30.69 C 59.73 34.87 58.98 39.15 56.97 42.88 C 56.35 44.54 53.72 44.35 53.33 42.61 C 53.97 38.69 56.11 35.08 55.95 31.00 C 56.42 26.48 54.57 22.31 53.42 18.06 Z" />
<path fill="#000000" opacity="1.00" d=" M 27.71 20.00 C 29.23 20.00 30.76 20.00 32.28 20.00 C 32.15 24.00 32.02 28.00 31.90 32.00 C 30.63 32.00 29.36 32.00 28.09 32.00 C 27.97 28.00 27.85 24.00 27.71 20.00 Z" />
<path fill="#000000" opacity="1.00" d=" M 28.22 35.35 C 30.70 33.59 34.35 36.61 32.21 39.15 C 29.73 41.96 25.02 37.83 28.22 35.35 Z" />
</g>
</svg>
