<?xml version="1.0" encoding="UTF-8" ?>
<!DOCTYPE svg PUBLIC "-//W3C//DTD SVG 1.1//EN" "http://www.w3.org/Graphics/SVG/1.1/DTD/svg11.dtd">
<svg width="64pt" height="64pt" viewBox="0 0 64 64" version="1.1" xmlns="http://www.w3.org/2000/svg">
<g id="#ffffffff">
<path fill="#ffffff" opacity="1.00" d=" M 0.00 0.00 L 64.00 0.00 L 64.00 64.00 L 0.00 64.00 L 0.00 0.00 M 32.00 4.00 C 32.00 6.67 32.00 9.33 32.00 12.00 C 33.33 12.00 34.67 12.00 36.00 12.00 C 36.00 9.33 36.00 6.67 36.00 4.00 C 34.67 4.00 33.33 4.00 32.00 4.00 M 22.15 6.74 C 23.47 10.08 24.80 13.41 26.15 16.74 C 27.08 16.37 28.93 15.62 29.86 15.25 C 28.53 11.92 27.19 8.59 25.87 5.26 C 24.63 5.75 23.39 6.24 22.15 6.74 M 38.15 15.26 C 39.38 15.75 40.62 16.25 41.86 16.74 C 43.19 13.41 44.53 10.08 45.86 6.75 C 44.93 6.38 43.08 5.63 42.15 5.26 C 40.81 8.59 39.48 11.93 38.15 15.26 M 6.00 8.00 C 6.00 24.67 6.00 41.33 6.00 58.00 C 14.00 58.00 22.00 58.00 30.00 58.00 C 30.00 56.67 30.00 55.33 30.00 54.00 C 23.33 54.00 16.67 54.00 10.00 54.00 C 10.00 45.71 10.00 37.43 10.00 29.14 C 12.78 27.52 15.45 25.69 18.33 24.23 C 20.17 23.80 22.12 24.07 24.00 23.95 C 24.00 22.64 24.00 21.32 24.00 20.00 C 22.67 20.00 21.33 20.00 20.00 20.00 C 20.00 18.67 20.00 17.33 20.00 16.00 C 18.67 16.00 17.33 16.00 16.00 16.00 C 16.00 17.62 16.00 19.24 16.00 20.87 C 14.00 22.07 12.00 23.27 10.00 24.47 C 10.00 20.31 10.00 16.16 10.00 12.00 C 13.33 12.00 16.67 12.00 20.00 12.00 C 20.00 10.67 20.00 9.33 20.00 8.00 C 15.33 8.00 10.67 8.00 6.00 8.00 M 48.01 8.00 C 48.01 9.33 48.01 10.67 48.01 12.00 C 50.01 12.00 52.00 12.00 54.00 12.00 C 54.00 16.00 54.00 20.00 54.00 24.00 C 55.33 24.00 56.67 24.00 58.00 24.00 C 58.00 18.67 58.00 13.33 58.00 8.00 C 54.67 8.00 51.34 8.00 48.01 8.00 M 35.19 24.63 C 32.81 25.49 30.95 27.14 29.98 29.49 C 27.00 30.57 25.06 33.09 24.83 36.26 C 23.32 36.79 21.81 37.30 20.29 37.79 C 18.56 36.64 16.83 35.49 15.11 34.33 C 14.36 35.44 13.62 36.55 12.89 37.67 C 14.47 38.72 16.04 39.76 17.62 40.82 C 17.11 42.33 16.61 43.84 16.10 45.35 C 17.04 45.68 18.92 46.32 19.86 46.64 C 20.42 44.96 21.00 43.29 21.59 41.62 C 22.07 41.42 23.04 41.01 23.52 40.81 C 23.59 43.13 23.48 45.89 25.60 47.40 C 29.42 50.32 33.50 52.90 37.45 55.65 C 40.72 57.98 45.16 58.52 48.86 56.93 C 52.54 55.48 54.81 52.05 57.03 48.97 C 60.38 44.19 61.18 37.60 58.73 32.26 C 57.36 29.30 54.10 28.18 51.09 27.82 C 47.35 26.32 44.97 22.40 41.09 21.11 C 38.39 20.42 36.46 22.60 35.19 24.63 Z" />
<path fill="#ffffff" opacity="1.00" d=" M 39.00 25.27 C 41.08 24.74 42.44 26.71 43.95 27.71 C 43.40 28.45 42.49 28.77 41.77 29.30 C 40.79 28.00 39.65 26.78 39.00 25.27 Z" />
<path fill="#ffffff" opacity="1.00" d=" M 34.78 28.73 C 37.02 29.24 39.63 31.32 37.60 33.69 C 36.20 32.25 33.02 31.17 34.78 28.73 Z" />
<path fill="#ffffff" opacity="1.00" d=" M 41.97 37.23 C 39.61 35.24 42.67 32.59 44.78 32.22 C 47.45 31.86 50.22 31.82 52.88 32.23 C 54.95 32.75 55.74 35.01 55.99 36.90 C 57.07 43.27 52.88 49.29 48.02 52.93 C 43.32 55.61 38.78 51.84 35.10 49.22 C 35.82 47.71 36.47 46.16 36.98 44.56 C 38.20 43.47 39.38 42.34 40.49 41.14 C 42.20 40.96 43.92 40.84 45.63 40.73 C 46.11 43.14 47.03 45.42 48.31 47.52 C 49.29 46.66 50.24 45.79 51.18 44.90 C 50.58 43.33 50.04 41.74 49.55 40.13 C 50.16 40.09 51.39 39.99 52.00 39.95 C 52.00 38.62 52.00 37.30 52.00 35.98 C 48.60 35.83 45.18 36.01 41.97 37.23 Z" />
<path fill="#ffffff" opacity="1.00" d=" M 29.07 35.82 C 29.44 34.93 29.91 34.09 30.48 33.32 C 32.82 35.00 35.14 36.77 36.97 39.03 C 36.52 39.46 35.61 40.31 35.16 40.74 C 32.94 39.36 30.84 37.74 29.07 35.82 Z" />
<path fill="#ffffff" opacity="1.00" d=" M 27.97 41.99 C 29.19 39.90 31.33 43.62 32.66 44.45 C 32.88 48.75 25.96 44.20 27.97 41.99 Z" />
</g>
<g id="#000000ff">
<path fill="#000000" opacity="1.00" d=" M 32.00 4.00 C 33.33 4.00 34.67 4.00 36.00 4.00 C 36.00 6.67 36.00 9.33 36.00 12.00 C 34.67 12.00 33.33 12.00 32.00 12.00 C 32.00 9.33 32.00 6.67 32.00 4.00 Z" />
<path fill="#000000" opacity="1.00" d=" M 22.15 6.74 C 23.39 6.24 24.63 5.75 25.87 5.26 C 27.19 8.59 28.53 11.92 29.86 15.25 C 28.93 15.62 27.08 16.37 26.15 16.74 C 24.80 13.41 23.47 10.08 22.15 6.74 Z" />
<path fill="#000000" opacity="1.00" d=" M 38.15 15.26 C 39.48 11.93 40.81 8.59 42.15 5.26 C 43.08 5.63 44.93 6.38 45.86 6.75 C 44.53 10.08 43.19 13.41 41.86 16.74 C 40.62 16.25 39.38 15.75 38.15 15.26 Z" />
<path fill="#000000" opacity="1.00" d=" M 6.00 8.00 C 10.67 8.00 15.33 8.00 20.00 8.00 C 20.00 9.33 20.00 10.67 20.00 12.00 C 16.67 12.00 13.33 12.00 10.00 12.00 C 10.00 16.16 10.00 20.31 10.00 24.47 C 12.00 23.27 14.00 22.07 16.00 20.87 C 16.00 19.24 16.00 17.62 16.00 16.00 C 17.33 16.00 18.67 16.00 20.00 16.00 C 20.00 17.33 20.00 18.67 20.00 20.00 C 21.33 20.00 22.67 20.00 24.00 20.00 C 24.00 21.32 24.00 22.64 24.00 23.95 C 22.12 24.07 20.17 23.80 18.33 24.23 C 15.45 25.69 12.78 27.52 10.00 29.14 C 10.00 37.43 10.00 45.71 10.00 54.00 C 16.67 54.00 23.33 54.00 30.00 54.00 C 30.00 55.33 30.00 56.67 30.00 58.00 C 22.00 58.00 14.00 58.00 6.00 58.00 C 6.00 41.33 6.00 24.67 6.00 8.00 Z" />
<path fill="#000000" opacity="1.00" d=" M 48.01 8.00 C 51.34 8.00 54.67 8.00 58.00 8.00 C 58.00 13.33 58.00 18.67 58.00 24.00 C 56.67 24.00 55.33 24.00 54.00 24.00 C 54.00 20.00 54.00 16.00 54.00 12.00 C 52.00 12.00 50.01 12.00 48.01 12.00 C 48.01 10.67 48.01 9.33 48.01 8.00 Z" />
<path fill="#000000" opacity="1.00" d=" M 35.19 24.63 C 36.46 22.60 38.39 20.42 41.09 21.11 C 44.97 22.40 47.35 26.32 51.09 27.82 C 54.10 28.18 57.36 29.30 58.73 32.26 C 61.18 37.60 60.38 44.19 57.03 48.97 C 54.81 52.05 52.54 55.48 48.86 56.93 C 45.16 58.52 40.72 57.98 37.45 55.65 C 33.50 52.90 29.42 50.32 25.60 47.40 C 23.48 45.89 23.59 43.13 23.52 40.81 C 23.04 41.01 22.07 41.42 21.59 41.62 C 21.00 43.29 20.42 44.96 19.86 46.64 C 18.92 46.32 17.04 45.68 16.10 45.35 C 16.61 43.84 17.11 42.33 17.62 40.82 C 16.04 39.76 14.47 38.72 12.89 37.67 C 13.62 36.55 14.36 35.44 15.11 34.33 C 16.83 35.49 18.56 36.64 20.29 37.79 C 21.81 37.30 23.32 36.79 24.83 36.26 C 25.06 33.09 27.00 30.57 29.98 29.49 C 30.95 27.14 32.81 25.49 35.19 24.63 M 39.00 25.27 C 39.65 26.78 40.79 28.00 41.77 29.30 C 42.49 28.77 43.40 28.45 43.95 27.71 C 42.44 26.71 41.08 24.74 39.00 25.27 M 34.78 28.73 C 33.02 31.17 36.20 32.25 37.60 33.69 C 39.63 31.32 37.02 29.24 34.78 28.73 M 41.97 37.23 C 45.18 36.01 48.60 35.83 52.00 35.98 C 52.00 37.30 52.00 38.62 52.00 39.95 C 51.39 39.99 50.16 40.09 49.55 40.13 C 50.04 41.74 50.58 43.33 51.18 44.90 C 50.24 45.79 49.29 46.66 48.31 47.52 C 47.03 45.42 46.11 43.14 45.63 40.73 C 43.92 40.84 42.20 40.96 40.49 41.14 C 39.38 42.34 38.20 43.47 36.98 44.56 C 36.47 46.16 35.82 47.71 35.10 49.22 C 38.78 51.84 43.32 55.61 48.02 52.93 C 52.88 49.29 57.07 43.27 55.99 36.90 C 55.74 35.01 54.95 32.75 52.88 32.23 C 50.22 31.82 47.45 31.86 44.78 32.22 C 42.67 32.59 39.61 35.24 41.97 37.23 M 29.07 35.82 C 30.84 37.74 32.94 39.36 35.16 40.74 C 35.61 40.31 36.52 39.46 36.97 39.03 C 35.14 36.77 32.82 35.00 30.48 33.32 C 29.91 34.09 29.44 34.93 29.07 35.82 M 27.97 41.99 C 25.96 44.20 32.88 48.75 32.66 44.45 C 31.33 43.62 29.19 39.90 27.97 41.99 Z" />
</g>
</svg>
