<?xml version="1.0" encoding="UTF-8" ?>
<!DOCTYPE svg PUBLIC "-//W3C//DTD SVG 1.1//EN" "http://www.w3.org/Graphics/SVG/1.1/DTD/svg11.dtd">
<svg width="60pt" height="60pt" viewBox="0 0 60 60" version="1.1" xmlns="http://www.w3.org/2000/svg">
<g id="#ffffffff">
<path fill="#ffffff" opacity="1.00" d=" M 0.00 0.00 L 60.00 0.00 L 60.00 60.00 L 0.00 60.00 L 0.00 0.00 M 7.96 11.04 C 5.27 13.06 5.63 17.06 7.96 19.19 C 8.10 28.83 7.89 38.48 8.05 48.11 C 8.01 50.60 10.60 52.34 12.94 52.00 C 24.33 52.00 35.72 52.01 47.11 52.00 C 49.46 52.34 52.07 50.61 51.94 48.07 C 52.12 38.24 51.89 28.40 52.05 18.57 C 53.00 17.28 54.49 15.94 53.89 14.14 C 53.11 11.66 50.42 10.68 48.21 9.86 C 39.72 7.30 30.73 8.09 21.99 8.08 C 17.26 8.37 11.99 8.19 7.96 11.04 Z" />
<path fill="#ffffff" opacity="1.00" d=" M 10.28 14.29 C 12.19 12.91 14.65 12.66 16.93 12.37 C 23.54 11.90 30.21 11.82 36.81 12.59 C 38.66 13.04 41.11 13.16 42.15 15.00 C 41.52 15.75 40.85 16.45 40.12 17.10 C 39.84 27.40 40.07 37.70 40.00 48.00 C 30.67 48.00 21.33 48.00 12.00 48.00 C 11.93 37.70 12.16 27.38 11.88 17.08 C 11.31 16.26 9.17 15.49 10.28 14.29 M 19.44 20.45 C 16.08 22.31 19.36 27.74 22.59 25.53 C 25.88 23.65 22.65 18.30 19.44 20.45 M 31.15 26.11 C 28.88 27.23 30.40 30.86 32.81 29.89 C 35.15 28.80 33.58 25.12 31.15 26.11 M 21.16 36.10 C 18.86 37.19 20.40 40.88 22.80 39.85 C 25.18 38.82 23.57 35.12 21.16 36.10 Z" />
</g>
<g id="#000000ff">
<path fill="#000000" opacity="1.00" d=" M 7.96 11.04 C 11.99 8.19 17.26 8.37 21.99 8.08 C 30.73 8.09 39.72 7.30 48.21 9.86 C 50.42 10.68 53.11 11.66 53.89 14.14 C 54.49 15.94 53.00 17.28 52.05 18.57 C 51.89 28.40 52.12 38.24 51.94 48.07 C 52.07 50.61 49.46 52.34 47.11 52.00 C 35.72 52.01 24.33 52.00 12.94 52.00 C 10.60 52.34 8.01 50.60 8.05 48.11 C 7.89 38.48 8.10 28.83 7.96 19.19 C 5.63 17.06 5.27 13.06 7.96 11.04 M 10.28 14.29 C 9.17 15.49 11.31 16.26 11.88 17.08 C 12.16 27.38 11.93 37.70 12.00 48.00 C 21.33 48.00 30.67 48.00 40.00 48.00 C 40.07 37.70 39.84 27.40 40.12 17.10 C 40.85 16.45 41.52 15.75 42.15 15.00 C 41.11 13.16 38.66 13.04 36.81 12.59 C 30.21 11.82 23.54 11.90 16.93 12.37 C 14.65 12.66 12.19 12.91 10.28 14.29 Z" />
<path fill="#000000" opacity="1.00" d=" M 19.44 20.45 C 22.65 18.30 25.88 23.65 22.59 25.53 C 19.36 27.74 16.08 22.31 19.44 20.45 Z" />
<path fill="#000000" opacity="1.00" d=" M 31.15 26.11 C 33.58 25.12 35.15 28.80 32.81 29.89 C 30.40 30.86 28.88 27.23 31.15 26.11 Z" />
<path fill="#000000" opacity="1.00" d=" M 21.16 36.10 C 23.57 35.12 25.18 38.82 22.80 39.85 C 20.40 40.88 18.86 37.19 21.16 36.10 Z" />
</g>
</svg>
