<?xml version="1.0" encoding="UTF-8" ?>
<!DOCTYPE svg PUBLIC "-//W3C//DTD SVG 1.1//EN" "http://www.w3.org/Graphics/SVG/1.1/DTD/svg11.dtd">
<svg width="60pt" height="60pt" viewBox="0 0 60 60" version="1.1" xmlns="http://www.w3.org/2000/svg">
<g id="#ffffffff">
<path fill="#ffffff" opacity="1.00" d=" M 0.00 0.00 L 36.84 0.00 C 36.41 1.20 36.08 2.43 35.74 3.66 C 34.05 4.26 31.15 4.38 32.06 6.95 C 33.17 7.62 34.44 7.94 35.65 8.36 C 36.06 9.56 36.37 10.82 37.03 11.93 C 39.46 12.82 39.79 9.98 40.35 8.36 C 42.01 7.74 44.83 7.51 43.95 5.02 C 42.79 4.35 41.48 4.06 40.23 3.66 C 39.93 2.43 39.61 1.20 39.22 0.00 L 60.00 0.00 L 60.00 60.00 L 0.00 60.00 L 0.00 0.00 M 6.85 23.67 C 4.18 32.98 7.88 43.64 15.74 49.29 C 23.34 55.05 34.43 55.55 42.50 50.46 C 48.08 47.18 51.77 41.46 53.55 35.34 C 49.89 36.93 45.99 38.26 41.94 37.95 C 33.22 37.66 25.16 31.27 22.85 22.87 C 21.13 17.41 22.24 11.51 24.66 6.45 C 16.28 8.65 9.03 15.16 6.85 23.67 M 49.26 14.19 C 47.47 15.06 48.31 17.86 47.47 19.48 C 45.52 20.25 41.24 19.50 42.08 22.82 C 43.38 24.41 45.75 23.79 47.48 24.53 C 48.36 26.34 47.35 29.70 49.98 30.06 C 52.64 29.73 51.65 26.36 52.49 24.54 C 53.90 24.10 55.39 24.00 56.82 23.65 C 58.42 23.34 58.41 20.78 56.89 20.35 C 55.45 20.00 53.96 19.91 52.54 19.50 C 51.75 17.63 52.47 13.14 49.26 14.19 Z" />
</g>
<g id="#000000ff">
<path fill="#968176" opacity="1.00" d=" M 36.84 0.00 L 39.22 0.00 C 39.61 1.20 39.93 2.43 40.23 3.66 C 41.48 4.06 42.79 4.35 43.95 5.02 C 44.83 7.51 42.01 7.74 40.35 8.36 C 39.79 9.98 39.46 12.82 37.03 11.93 C 36.37 10.82 36.06 9.56 35.65 8.36 C 34.44 7.94 33.17 7.62 32.06 6.95 C 31.15 4.38 34.05 4.26 35.74 3.66 C 36.08 2.43 36.41 1.20 36.84 0.00 Z" />
<path fill="#968176" opacity="1.00" d=" M 6.85 23.67 C 9.03 15.16 16.28 8.65 24.66 6.45 C 22.24 11.51 21.13 17.41 22.85 22.87 C 25.16 31.27 33.22 37.66 41.94 37.95 C 45.99 38.26 49.89 36.93 53.55 35.34 C 51.77 41.46 48.08 47.18 42.50 50.46 C 34.43 55.55 23.34 55.05 15.74 49.29 C 7.88 43.64 4.18 32.98 6.85 23.67 Z" />
<path fill="#968176" opacity="1.00" d=" M 49.26 14.19 C 52.47 13.14 51.75 17.63 52.54 19.50 C 53.96 19.91 55.45 20.00 56.89 20.35 C 58.41 20.78 58.42 23.34 56.82 23.65 C 55.39 24.00 53.90 24.10 52.49 24.54 C 51.65 26.36 52.64 29.73 49.98 30.06 C 47.35 29.70 48.36 26.34 47.48 24.53 C 45.75 23.79 43.38 24.41 42.08 22.82 C 41.24 19.50 45.52 20.25 47.47 19.48 C 48.31 17.86 47.47 15.06 49.26 14.19 Z" />
</g>
</svg>
