<?xml version="1.0" encoding="UTF-8" ?>
<!DOCTYPE svg PUBLIC "-//W3C//DTD SVG 1.1//EN" "http://www.w3.org/Graphics/SVG/1.1/DTD/svg11.dtd">
<svg width="60pt" height="60pt" viewBox="0 0 60 60" version="1.1" xmlns="http://www.w3.org/2000/svg">
<g id="#ffffffff">
<path fill="#ffffff" opacity="1.00" d=" M 0.00 0.00 L 60.00 0.00 L 60.00 60.00 L 0.00 60.00 L 0.00 0.00 M 7.93 16.04 C 7.59 18.77 9.24 21.43 8.31 24.09 C 11.98 30.71 17.67 35.81 22.84 41.23 C 25.35 43.62 25.46 47.54 28.02 49.89 C 30.26 52.10 33.74 52.49 36.61 51.40 C 41.88 49.53 46.37 46.06 50.98 42.99 C 52.61 42.28 52.71 40.49 52.15 39.01 C 53.05 37.88 54.27 36.76 53.93 35.15 C 53.30 33.29 51.23 34.05 49.82 34.29 C 48.96 33.56 48.42 31.89 47.03 32.24 C 43.15 32.73 39.95 35.42 36.08 36.05 C 32.22 29.50 30.03 22.14 26.35 15.51 C 25.76 14.13 24.43 13.80 23.06 14.09 C 21.86 12.07 20.68 10.04 19.49 8.02 C 15.65 10.71 11.78 13.37 7.93 16.04 Z" />
<path fill="#ffffff" opacity="1.00" d=" M 13.42 24.60 C 16.98 22.99 20.42 21.13 23.63 18.89 C 24.28 20.27 24.94 21.64 25.61 23.00 C 24.18 26.35 22.03 29.37 19.13 31.60 C 17.09 29.38 15.19 27.04 13.42 24.60 Z" />
<path fill="#ffffff" opacity="1.00" d=" M 21.84 34.48 C 24.12 32.62 26.14 30.45 27.73 27.96 C 28.61 30.01 29.53 32.05 30.51 34.05 C 29.84 36.31 28.76 38.45 27.08 40.13 C 25.45 38.14 23.69 36.27 21.84 34.48 Z" />
<path fill="#ffffff" opacity="1.00" d=" M 41.61 38.57 C 43.11 37.80 44.64 37.11 46.17 36.45 C 46.79 37.68 47.41 38.91 48.04 40.14 C 45.90 41.62 43.74 43.05 41.58 44.49 C 41.71 42.52 41.74 40.54 41.61 38.57 Z" />
<path fill="#ffffff" opacity="1.00" d=" M 33.13 38.62 C 34.42 39.76 36.03 40.03 37.71 39.87 C 37.66 42.14 37.45 44.41 36.85 46.60 C 35.06 47.20 33.19 48.66 31.28 47.60 C 30.08 46.67 29.73 45.09 29.02 43.83 C 30.59 42.26 31.98 40.52 33.13 38.62 Z" />
</g>
<g id="#000000ff">
<path fill="#000000" opacity="1.00" d=" M 7.93 16.04 C 11.78 13.37 15.65 10.71 19.49 8.02 C 20.68 10.04 21.86 12.07 23.06 14.09 C 24.43 13.80 25.76 14.13 26.35 15.51 C 30.03 22.14 32.22 29.50 36.08 36.05 C 39.95 35.42 43.15 32.73 47.03 32.24 C 48.42 31.89 48.96 33.56 49.82 34.29 C 51.23 34.05 53.30 33.29 53.93 35.15 C 54.27 36.76 53.05 37.88 52.15 39.01 C 52.71 40.49 52.61 42.28 50.98 42.99 C 46.37 46.06 41.88 49.53 36.61 51.40 C 33.74 52.49 30.26 52.10 28.02 49.89 C 25.46 47.54 25.35 43.62 22.84 41.23 C 17.67 35.81 11.98 30.71 8.31 24.09 C 9.24 21.43 7.59 18.77 7.93 16.04 M 13.42 24.60 C 15.19 27.04 17.09 29.38 19.13 31.60 C 22.03 29.37 24.18 26.35 25.61 23.00 C 24.94 21.64 24.28 20.27 23.63 18.89 C 20.42 21.13 16.98 22.99 13.42 24.60 M 21.84 34.48 C 23.69 36.27 25.45 38.14 27.08 40.13 C 28.76 38.45 29.84 36.31 30.51 34.05 C 29.53 32.05 28.61 30.01 27.73 27.96 C 26.14 30.45 24.12 32.62 21.84 34.48 M 41.61 38.57 C 41.74 40.54 41.71 42.52 41.58 44.49 C 43.74 43.05 45.90 41.62 48.04 40.14 C 47.41 38.91 46.79 37.68 46.17 36.45 C 44.64 37.11 43.11 37.80 41.61 38.57 M 33.13 38.62 C 31.98 40.52 30.59 42.26 29.02 43.83 C 29.73 45.09 30.08 46.67 31.28 47.60 C 33.19 48.66 35.06 47.20 36.85 46.60 C 37.45 44.41 37.66 42.14 37.71 39.87 C 36.03 40.03 34.42 39.76 33.13 38.62 Z" />
</g>
</svg>
