<?xml version="1.0" encoding="UTF-8" ?>
<!DOCTYPE svg PUBLIC "-//W3C//DTD SVG 1.1//EN" "http://www.w3.org/Graphics/SVG/1.1/DTD/svg11.dtd">
<svg width="60pt" height="60pt" viewBox="0 0 60 60" version="1.1" xmlns="http://www.w3.org/2000/svg">
<g id="#ffffffff">
<path fill="#ffffff" opacity="1.00" d=" M 0.00 0.00 L 60.00 0.00 L 60.00 60.00 L 0.00 60.00 L 0.00 0.00 M 21.19 8.81 C 22.65 10.51 24.92 9.85 26.74 9.28 C 28.14 9.83 29.55 10.37 30.95 10.92 C 29.53 13.06 27.53 15.21 28.26 18.01 C 25.35 18.35 21.27 16.77 19.56 19.97 C 17.16 20.09 14.67 19.68 12.34 20.38 C 9.02 21.99 10.11 26.25 10.12 29.20 C 9.06 28.12 6.98 27.30 6.18 29.12 C 5.87 33.69 5.84 38.31 6.20 42.87 C 7.03 44.70 9.16 43.86 10.14 42.68 C 10.03 45.66 9.66 48.72 10.35 51.65 C 12.17 55.19 16.76 53.70 19.94 54.01 C 20.28 52.11 19.26 49.47 21.11 48.18 C 23.33 47.86 25.58 48.02 27.81 47.97 C 28.13 48.54 28.75 49.67 29.06 50.23 C 30.55 49.77 31.75 48.78 33.02 47.92 C 34.08 48.51 34.82 49.70 36.06 49.95 C 37.43 49.71 38.27 48.55 39.00 47.48 C 40.00 49.52 40.08 51.78 40.07 54.01 C 42.59 53.90 45.22 54.34 47.66 53.60 C 51.07 51.92 49.74 47.55 50.04 44.52 C 53.21 41.74 53.77 37.24 55.51 33.57 C 56.69 31.89 55.37 29.37 53.22 30.05 C 51.41 31.72 51.11 34.43 50.07 36.57 C 49.86 32.06 50.24 27.52 49.83 23.01 C 48.73 18.85 43.64 20.20 40.45 19.97 C 38.96 16.35 34.14 19.47 32.22 16.97 C 32.97 14.38 35.20 12.51 36.05 9.94 C 34.84 7.03 30.86 7.03 28.37 5.59 C 27.31 4.02 26.24 1.87 24.00 2.03 C 20.64 1.81 18.57 6.58 21.19 8.81 M 44.35 6.98 C 44.56 8.59 45.78 9.79 46.54 11.16 C 45.44 12.77 44.33 14.41 43.73 16.29 C 47.07 15.04 50.09 13.11 53.00 11.08 C 52.27 9.76 51.49 8.46 50.74 7.15 C 51.87 5.43 52.94 3.65 53.49 1.65 C 50.29 3.12 47.08 4.72 44.35 6.98 M 7.93 5.55 C 8.24 8.31 8.79 11.06 9.72 13.69 C 10.50 13.46 12.08 12.99 12.87 12.75 C 13.88 13.88 14.93 14.99 16.05 16.01 C 15.75 13.32 15.24 10.65 14.33 8.10 C 13.58 8.30 12.07 8.70 11.32 8.90 C 10.23 7.74 9.13 6.59 7.93 5.55 Z" />
<path fill="#ffffff" opacity="1.00" d=" M 18.51 30.66 C 21.63 28.66 26.15 31.32 26.00 35.00 C 26.14 38.67 21.64 41.34 18.52 39.33 C 15.22 37.63 15.21 32.37 18.51 30.66 M 19.23 34.13 C 16.79 35.12 18.42 38.89 20.83 37.89 C 23.13 36.82 21.61 33.15 19.23 34.13 Z" />
<path fill="#ffffff" opacity="1.00" d=" M 33.99 34.97 C 33.87 32.04 36.56 30.33 39.06 29.69 C 38.71 30.30 38.02 31.53 37.67 32.14 C 38.49 33.13 39.33 34.34 40.82 33.93 C 41.57 33.01 42.19 31.98 42.84 30.98 C 43.75 33.38 44.81 36.45 42.57 38.48 C 39.73 41.75 33.75 39.28 33.99 34.97 Z" />
</g>
<g id="#000000ff">
<path fill="#000000" opacity="1.00" d=" M 21.19 8.81 C 18.57 6.58 20.64 1.81 24.00 2.03 C 26.24 1.87 27.31 4.02 28.37 5.59 C 30.86 7.03 34.84 7.03 36.05 9.94 C 35.20 12.51 32.97 14.38 32.22 16.97 C 34.14 19.47 38.96 16.35 40.45 19.97 C 43.64 20.20 48.73 18.85 49.83 23.01 C 50.24 27.52 49.86 32.06 50.07 36.57 C 51.11 34.43 51.41 31.72 53.22 30.05 C 55.37 29.37 56.69 31.89 55.51 33.57 C 53.77 37.24 53.21 41.74 50.04 44.52 C 49.74 47.55 51.07 51.92 47.66 53.60 C 45.22 54.34 42.59 53.90 40.07 54.01 C 40.08 51.78 40.00 49.52 39.00 47.48 C 38.27 48.55 37.43 49.71 36.06 49.95 C 34.82 49.70 34.08 48.51 33.02 47.92 C 31.75 48.78 30.55 49.77 29.06 50.23 C 28.75 49.67 28.13 48.54 27.81 47.97 C 25.58 48.02 23.33 47.86 21.11 48.18 C 19.26 49.47 20.28 52.11 19.94 54.01 C 16.76 53.70 12.17 55.19 10.35 51.65 C 9.66 48.72 10.03 45.66 10.14 42.68 C 9.16 43.86 7.03 44.70 6.20 42.87 C 5.84 38.31 5.87 33.69 6.18 29.12 C 6.98 27.30 9.06 28.12 10.12 29.20 C 10.11 26.25 9.02 21.99 12.34 20.38 C 14.67 19.68 17.16 20.09 19.56 19.97 C 21.27 16.77 25.35 18.35 28.26 18.01 C 27.53 15.21 29.53 13.06 30.95 10.92 C 29.55 10.37 28.14 9.83 26.74 9.28 C 24.92 9.85 22.65 10.51 21.19 8.81 M 18.51 30.66 C 15.21 32.37 15.22 37.63 18.52 39.33 C 21.64 41.34 26.14 38.67 26.00 35.00 C 26.15 31.32 21.63 28.66 18.51 30.66 M 33.99 34.97 C 33.75 39.28 39.73 41.75 42.57 38.48 C 44.81 36.45 43.75 33.38 42.84 30.98 C 42.19 31.98 41.57 33.01 40.82 33.93 C 39.33 34.34 38.49 33.13 37.67 32.14 C 38.02 31.53 38.71 30.30 39.06 29.69 C 36.56 30.33 33.87 32.04 33.99 34.97 Z" />
<path fill="#000000" opacity="1.00" d=" M 44.35 6.98 C 47.08 4.72 50.29 3.12 53.49 1.65 C 52.94 3.65 51.87 5.43 50.74 7.15 C 51.49 8.46 52.27 9.76 53.00 11.08 C 50.09 13.11 47.07 15.04 43.73 16.29 C 44.33 14.41 45.44 12.77 46.54 11.16 C 45.78 9.79 44.56 8.59 44.35 6.98 Z" />
<path fill="#000000" opacity="1.00" d=" M 7.93 5.55 C 9.13 6.59 10.23 7.74 11.32 8.90 C 12.07 8.70 13.58 8.30 14.33 8.10 C 15.24 10.65 15.75 13.32 16.05 16.01 C 14.93 14.99 13.88 13.88 12.87 12.75 C 12.08 12.99 10.50 13.46 9.72 13.69 C 8.79 11.06 8.24 8.31 7.93 5.55 Z" />
<path fill="#000000" opacity="1.00" d=" M 19.23 34.13 C 21.61 33.15 23.13 36.82 20.83 37.89 C 18.42 38.89 16.79 35.12 19.23 34.13 Z" />
</g>
</svg>
