<?xml version="1.0" encoding="UTF-8" ?>
<!DOCTYPE svg PUBLIC "-//W3C//DTD SVG 1.1//EN" "http://www.w3.org/Graphics/SVG/1.1/DTD/svg11.dtd">
<svg width="60pt" height="60pt" viewBox="0 0 60 60" version="1.1" xmlns="http://www.w3.org/2000/svg">
<g id="#ffffffff">
<path fill="#ffffff" opacity="1.00" d=" M 0.00 0.00 L 60.00 0.00 L 60.00 46.03 C 58.27 46.01 56.55 46.01 54.82 46.03 C 56.64 41.91 55.87 37.34 56.00 32.98 C 55.88 26.99 56.24 20.98 55.85 15.00 C 55.48 11.78 52.21 9.70 49.12 10.01 C 36.37 9.99 23.62 9.99 10.87 10.01 C 7.79 9.70 4.51 11.77 4.15 14.98 C 3.76 20.97 4.12 26.98 4.00 32.97 C 4.13 37.34 3.37 41.91 5.17 46.04 C 3.45 46.02 1.72 46.00 0.00 46.01 L 0.00 0.00 Z" />
<path fill="#ffffff" opacity="1.00" d=" M 9.12 14.17 C 22.10 13.76 35.11 14.13 48.10 13.99 C 49.57 13.92 52.06 13.88 51.94 16.00 C 52.04 24.67 52.05 33.36 51.94 42.03 C 52.12 43.59 50.33 44.16 49.09 43.99 C 36.36 44.01 23.63 44.01 10.90 43.99 C 9.65 44.17 7.88 43.57 8.06 42.00 C 7.91 33.98 8.05 25.94 7.99 17.92 C 8.09 16.62 7.69 14.89 9.12 14.17 M 13.77 20.61 C 17.08 24.04 21.51 26.06 25.05 29.22 C 22.74 30.42 20.26 31.26 17.94 32.45 C 21.39 33.43 25.19 33.01 28.50 34.37 C 29.11 35.93 29.44 37.59 30.08 39.15 C 31.54 37.58 32.62 35.62 34.39 34.37 C 36.61 34.40 38.72 35.30 40.92 35.51 C 40.32 33.55 39.26 31.79 38.42 29.93 C 39.77 28.07 41.52 26.53 42.91 24.70 C 40.04 24.55 37.30 25.55 34.45 25.66 C 33.09 24.38 32.12 22.75 31.17 21.15 C 29.91 22.14 29.56 24.04 28.00 24.65 C 23.19 23.55 18.70 21.22 13.77 20.61 Z" />
<path fill="#ffffff" opacity="1.00" d=" M 0.00 47.00 C 0.74 49.68 2.97 52.07 5.93 51.95 C 21.99 52.04 38.06 52.04 54.11 51.94 C 57.07 52.05 59.28 49.65 60.00 46.97 L 60.00 60.00 L 0.00 60.00 L 0.00 47.00 Z" />
</g>
<g id="#000000ff">
<path fill="#968176" opacity="1.00" d=" M 4.15 14.98 C 4.51 11.77 7.79 9.70 10.87 10.01 C 23.62 9.99 36.37 9.99 49.12 10.01 C 52.21 9.70 55.48 11.78 55.85 15.00 C 56.24 20.98 55.88 26.99 56.00 32.98 C 55.87 37.34 56.64 41.91 54.82 46.03 C 56.55 46.01 58.27 46.01 60.00 46.03 L 60.00 46.97 C 59.28 49.65 57.07 52.05 54.11 51.94 C 38.06 52.04 21.99 52.04 5.93 51.95 C 2.97 52.07 0.74 49.68 0.00 47.00 L 0.00 46.01 C 1.72 46.00 3.45 46.02 5.17 46.04 C 3.37 41.91 4.13 37.34 4.00 32.97 C 4.12 26.98 3.76 20.97 4.15 14.98 M 9.12 14.17 C 7.69 14.89 8.09 16.62 7.99 17.92 C 8.05 25.94 7.91 33.98 8.06 42.00 C 7.88 43.57 9.65 44.17 10.90 43.99 C 23.63 44.01 36.36 44.01 49.09 43.99 C 50.33 44.16 52.12 43.59 51.94 42.03 C 52.05 33.36 52.04 24.67 51.94 16.00 C 52.06 13.88 49.57 13.92 48.10 13.99 C 35.11 14.13 22.10 13.76 9.12 14.17 Z" />
<path fill="#968176" opacity="1.00" d=" M 13.77 20.61 C 18.70 21.22 23.19 23.55 28.00 24.65 C 29.56 24.04 29.91 22.14 31.17 21.15 C 32.12 22.75 33.09 24.38 34.45 25.66 C 37.30 25.55 40.04 24.55 42.91 24.70 C 41.52 26.53 39.77 28.07 38.42 29.93 C 39.26 31.79 40.32 33.55 40.92 35.51 C 38.72 35.30 36.61 34.40 34.39 34.37 C 32.62 35.62 31.54 37.58 30.08 39.15 C 29.44 37.59 29.11 35.93 28.50 34.37 C 25.19 33.01 21.39 33.43 17.94 32.45 C 20.26 31.26 22.74 30.42 25.05 29.22 C 21.51 26.06 17.08 24.04 13.77 20.61 Z" />
</g>
</svg>
