<?xml version="1.0" encoding="UTF-8" ?>
<!DOCTYPE svg PUBLIC "-//W3C//DTD SVG 1.1//EN" "http://www.w3.org/Graphics/SVG/1.1/DTD/svg11.dtd">
<svg width="60pt" height="60pt" viewBox="0 0 60 60" version="1.1" xmlns="http://www.w3.org/2000/svg">
<g id="#ffffffff">
<path fill="#ffffff" opacity="1.00" d=" M 0.00 0.00 L 60.00 0.00 L 60.00 60.00 L 0.00 60.00 L 0.00 0.00 M 30.12 10.89 C 29.44 13.60 32.20 16.20 30.85 18.83 C 29.23 21.09 27.05 22.87 25.14 24.87 C 26.46 26.88 28.86 26.36 30.88 26.40 C 31.36 27.50 31.84 28.60 32.31 29.70 C 34.17 27.82 36.05 25.94 37.93 24.08 C 40.02 25.39 42.48 26.59 44.99 25.68 C 49.32 24.55 51.43 18.93 48.87 15.24 C 47.53 12.85 44.76 12.10 42.22 11.85 C 41.62 9.77 40.73 7.47 38.56 6.57 C 35.19 4.83 30.72 7.20 30.12 10.89 M 18.06 35.92 C 16.00 34.62 13.56 33.42 11.07 34.30 C 6.70 35.38 4.54 41.10 7.14 44.79 C 8.50 47.15 11.25 47.90 13.78 48.15 C 14.37 50.24 15.27 52.51 17.44 53.41 C 20.82 55.18 25.29 52.77 25.88 49.07 C 26.54 46.36 23.77 43.75 25.16 41.14 C 26.91 38.60 29.56 36.87 31.40 34.41 C 31.27 33.82 31.02 32.63 30.89 32.04 C 29.59 32.01 28.29 32.00 27.00 31.99 C 26.28 31.04 25.57 30.09 24.87 29.14 C 22.62 31.43 20.35 33.68 18.06 35.92 Z" />
</g>
<g id="#000000ff">
<path fill="#000000" opacity="1.00" d=" M 30.12 10.89 C 30.72 7.20 35.19 4.83 38.56 6.57 C 40.73 7.47 41.62 9.77 42.22 11.85 C 44.76 12.10 47.53 12.85 48.87 15.24 C 51.43 18.93 49.32 24.55 44.99 25.68 C 42.48 26.59 40.02 25.39 37.93 24.08 C 36.05 25.94 34.17 27.82 32.31 29.70 C 31.84 28.60 31.36 27.50 30.88 26.40 C 28.86 26.36 26.46 26.88 25.14 24.87 C 27.05 22.87 29.23 21.09 30.85 18.83 C 32.20 16.20 29.44 13.60 30.12 10.89 Z" />
<path fill="#000000" opacity="1.00" d=" M 18.06 35.92 C 20.35 33.68 22.62 31.43 24.87 29.14 C 25.57 30.09 26.28 31.04 27.00 31.99 C 28.29 32.00 29.59 32.01 30.89 32.04 C 31.02 32.63 31.27 33.82 31.40 34.41 C 29.56 36.87 26.91 38.60 25.16 41.14 C 23.77 43.75 26.54 46.36 25.88 49.07 C 25.29 52.77 20.82 55.18 17.44 53.41 C 15.27 52.51 14.37 50.24 13.78 48.15 C 11.25 47.90 8.50 47.15 7.14 44.79 C 4.54 41.10 6.70 35.38 11.07 34.30 C 13.56 33.42 16.00 34.62 18.06 35.92 Z" />
</g>
</svg>
