<?xml version="1.0" encoding="UTF-8" ?>
<!DOCTYPE svg PUBLIC "-//W3C//DTD SVG 1.1//EN" "http://www.w3.org/Graphics/SVG/1.1/DTD/svg11.dtd">
<svg width="60pt" height="60pt" viewBox="0 0 60 60" version="1.1" xmlns="http://www.w3.org/2000/svg">
<g id="#ffffffff">
<path fill="#ffffff" opacity="1.00" d=" M 0.00 0.00 L 60.00 0.00 L 60.00 60.00 L 30.61 60.00 C 34.54 58.94 34.16 54.28 34.92 51.11 C 35.28 47.41 37.33 42.83 34.24 39.77 C 31.12 36.31 24.67 38.33 24.11 42.95 C 24.23 47.63 25.24 52.28 26.21 56.85 C 26.42 58.44 27.88 59.21 29.07 60.00 L 0.00 60.00 L 0.00 0.00 M 24.42 2.61 C 15.50 4.51 7.90 11.45 5.22 20.16 C 1.30 31.77 7.05 45.68 18.10 51.01 C 19.63 52.17 21.68 49.83 20.69 48.33 C 18.56 46.42 15.88 45.19 13.97 43.02 C 9.44 38.25 7.29 31.37 8.24 24.86 C 9.20 17.49 14.27 10.83 21.09 7.88 C 28.07 4.73 36.68 5.61 42.85 10.15 C 48.82 14.38 52.40 21.76 51.94 29.07 C 51.64 35.87 47.98 42.50 42.21 46.17 C 41.09 47.06 39.57 47.68 38.96 49.07 C 38.94 50.46 40.57 51.99 41.90 51.00 C 49.80 47.12 55.26 38.80 55.88 30.03 C 56.66 21.58 52.84 12.94 46.20 7.70 C 40.20 2.82 31.95 0.93 24.42 2.61 M 25.36 10.61 C 19.76 12.08 15.01 16.42 13.08 21.89 C 10.67 28.31 12.40 36.09 17.41 40.79 C 18.69 42.46 21.26 40.97 20.86 39.08 C 19.17 36.50 16.88 34.16 16.34 30.99 C 14.47 23.44 20.11 15.17 27.83 14.21 C 35.18 12.83 42.84 18.43 43.79 25.83 C 44.77 30.52 42.49 35.00 39.53 38.47 C 38.22 39.83 40.24 42.28 41.86 41.33 C 47.49 36.86 49.39 28.56 46.92 21.90 C 44.02 13.34 34.07 8.06 25.36 10.61 M 27.42 22.59 C 23.48 24.27 22.83 30.24 26.32 32.72 C 29.59 35.53 35.28 33.37 35.88 29.11 C 37.00 24.53 31.57 20.33 27.42 22.59 Z" />
</g>
<g id="#000000ff">
<path fill="#000000" opacity="1.00" d=" M 24.42 2.61 C 31.95 0.93 40.20 2.82 46.20 7.70 C 52.84 12.94 56.66 21.58 55.88 30.03 C 55.26 38.80 49.80 47.12 41.90 51.00 C 40.57 51.99 38.94 50.46 38.96 49.07 C 39.57 47.68 41.09 47.06 42.21 46.17 C 47.98 42.50 51.64 35.87 51.94 29.07 C 52.40 21.76 48.82 14.38 42.85 10.15 C 36.68 5.61 28.07 4.73 21.09 7.88 C 14.27 10.83 9.20 17.49 8.24 24.86 C 7.29 31.37 9.44 38.25 13.97 43.02 C 15.88 45.19 18.56 46.42 20.69 48.33 C 21.68 49.83 19.63 52.17 18.10 51.01 C 7.05 45.68 1.30 31.77 5.22 20.16 C 7.90 11.45 15.50 4.51 24.42 2.61 Z" />
<path fill="#000000" opacity="1.00" d=" M 25.36 10.61 C 34.07 8.06 44.02 13.34 46.92 21.90 C 49.39 28.56 47.49 36.86 41.86 41.33 C 40.24 42.28 38.22 39.83 39.53 38.47 C 42.49 35.00 44.77 30.52 43.79 25.83 C 42.84 18.43 35.18 12.83 27.83 14.21 C 20.11 15.17 14.47 23.44 16.34 30.99 C 16.88 34.16 19.17 36.50 20.86 39.08 C 21.26 40.97 18.69 42.46 17.41 40.79 C 12.40 36.09 10.67 28.31 13.08 21.89 C 15.01 16.42 19.76 12.08 25.36 10.61 Z" />
<path fill="#000000" opacity="1.00" d=" M 27.42 22.59 C 31.57 20.33 37.00 24.53 35.88 29.11 C 35.28 33.37 29.59 35.53 26.32 32.72 C 22.83 30.24 23.48 24.27 27.42 22.59 Z" />
<path fill="#000000" opacity="1.00" d=" M 24.11 42.95 C 24.67 38.33 31.12 36.31 34.24 39.77 C 37.33 42.83 35.28 47.41 34.92 51.11 C 34.16 54.28 34.54 58.94 30.61 60.00 L 29.07 60.00 C 27.88 59.21 26.42 58.44 26.21 56.85 C 25.24 52.28 24.23 47.63 24.11 42.95 Z" />
</g>
</svg>
