<?xml version="1.0" encoding="UTF-8" ?>
<!DOCTYPE svg PUBLIC "-//W3C//DTD SVG 1.1//EN" "http://www.w3.org/Graphics/SVG/1.1/DTD/svg11.dtd">
<svg width="64pt" height="64pt" viewBox="0 0 64 64" version="1.1" xmlns="http://www.w3.org/2000/svg">
<g id="#ffffffff">
<path fill="#ffffff" opacity="1.00" d=" M 0.00 0.00 L 64.00 0.00 L 64.00 64.00 L 0.00 64.00 L 0.00 0.00 M 29.22 6.19 C 23.86 6.69 20.02 10.88 15.98 13.97 C 13.27 16.15 13.90 19.80 15.33 22.52 C 14.90 23.70 14.49 24.89 14.13 26.10 C 12.57 27.18 10.36 28.03 10.08 30.17 C 9.53 32.57 11.40 34.39 12.93 35.92 C 11.83 37.12 10.75 38.34 9.66 39.54 C 9.99 39.87 10.65 40.54 10.98 40.87 C 10.07 41.81 9.16 42.74 8.25 43.67 C 11.41 44.77 9.46 47.67 9.06 49.90 C 9.75 49.93 11.13 49.98 11.82 50.01 C 11.88 51.34 11.94 52.67 12.00 54.00 C 12.75 53.95 14.25 53.86 15.01 53.81 C 15.79 54.87 16.57 55.93 17.35 56.99 C 18.04 56.60 18.72 56.21 19.41 55.82 C 20.27 56.55 21.13 57.28 21.99 58.00 C 22.85 57.55 23.71 57.10 24.57 56.66 C 25.13 56.94 26.24 57.51 26.79 57.79 C 30.18 57.45 33.63 57.42 37.02 57.80 C 37.57 57.51 38.69 56.94 39.24 56.65 C 40.16 57.10 41.08 57.55 42.01 58.00 C 42.87 57.28 43.73 56.55 44.59 55.82 C 45.28 56.21 45.97 56.60 46.65 56.99 C 47.43 55.93 48.21 54.87 48.99 53.81 C 49.74 53.86 51.24 53.96 51.99 54.01 C 52.00 52.73 52.01 51.46 52.01 50.19 C 52.67 50.17 53.98 50.13 54.63 50.11 C 54.21 48.49 53.79 46.86 53.37 45.23 C 54.03 44.93 55.34 44.31 56.00 44.00 C 55.01 42.95 54.03 41.90 53.04 40.86 C 53.37 40.52 54.01 39.85 54.34 39.51 C 53.24 38.32 52.17 37.11 51.08 35.92 C 52.60 34.40 54.45 32.56 53.92 30.18 C 53.64 28.04 51.43 27.18 49.87 26.09 C 49.50 24.89 49.09 23.71 48.66 22.53 C 49.43 20.43 50.74 17.96 49.40 15.80 C 47.65 12.83 44.39 11.32 41.85 9.14 C 38.41 6.16 33.57 5.71 29.22 6.19 Z" />
<path fill="#ffffff" opacity="1.00" d=" M 17.37 18.76 C 21.18 14.57 25.91 9.73 32.04 10.02 C 38.13 9.78 42.85 14.59 46.63 18.77 C 38.17 12.40 25.83 12.40 17.37 18.76 Z" />
<path fill="#ffffff" opacity="1.00" d=" M 17.81 30.00 C 17.70 25.95 19.61 22.30 22.79 19.86 C 28.65 22.54 35.34 22.54 41.20 19.86 C 44.39 22.29 46.29 25.95 46.19 30.00 C 47.38 30.00 48.58 30.01 49.77 30.01 C 49.78 30.50 49.79 31.49 49.80 31.98 C 45.29 32.01 40.78 31.98 36.27 32.02 C 34.06 34.93 29.92 35.01 27.74 32.02 C 23.23 31.98 18.73 32.01 14.22 31.99 C 14.22 31.50 14.21 30.51 14.21 30.01 C 15.41 30.01 16.61 30.00 17.81 30.00 M 22.04 21.82 C 22.02 23.18 22.00 24.54 21.99 25.89 C 23.23 26.07 24.48 26.26 25.72 26.48 C 25.73 28.88 27.16 30.26 29.54 30.22 C 29.69 30.67 29.97 31.58 30.11 32.03 C 31.37 32.03 32.63 32.03 33.89 32.03 C 34.03 31.58 34.31 30.67 34.46 30.22 C 36.84 30.28 38.26 28.85 38.29 26.48 C 39.52 26.26 40.77 26.07 42.01 25.89 C 42.00 24.54 41.98 23.18 41.96 21.82 C 38.26 22.07 34.69 23.33 32.02 25.97 C 29.31 23.36 25.75 22.06 22.04 21.82 Z" />
<path fill="#ffffff" opacity="1.00" d=" M 20.16 41.11 C 21.01 39.88 22.70 40.13 23.97 39.74 C 24.02 42.58 24.02 45.43 23.96 48.27 C 22.70 47.87 21.03 48.09 20.16 46.91 C 19.90 44.99 19.89 43.03 20.16 41.11 Z" />
<path fill="#ffffff" opacity="1.00" d=" M 28.00 40.00 C 30.67 40.00 33.33 40.00 36.00 40.00 C 36.00 42.67 36.00 45.33 36.00 48.00 C 33.33 48.00 30.67 48.00 28.00 48.00 C 28.00 45.33 28.00 42.67 28.00 40.00 Z" />
<path fill="#ffffff" opacity="1.00" d=" M 40.04 39.73 C 41.27 40.16 43.06 39.85 43.84 41.14 C 44.12 43.04 44.10 44.99 43.84 46.89 C 42.99 48.11 41.30 47.87 40.04 48.27 C 39.98 45.42 39.98 42.57 40.04 39.73 Z" />
</g>
<g id="#000000ff">
<path fill="#000000" opacity="1.00" d=" M 29.22 6.19 C 33.57 5.71 38.41 6.16 41.85 9.14 C 44.39 11.32 47.65 12.83 49.40 15.80 C 50.74 17.96 49.43 20.43 48.66 22.53 C 49.09 23.71 49.50 24.89 49.87 26.09 C 51.43 27.18 53.64 28.04 53.92 30.18 C 54.45 32.56 52.60 34.40 51.08 35.92 C 52.17 37.11 53.24 38.32 54.34 39.51 C 54.01 39.85 53.37 40.52 53.04 40.86 C 54.03 41.90 55.01 42.95 56.00 44.00 C 55.34 44.31 54.03 44.93 53.37 45.23 C 53.79 46.86 54.21 48.49 54.63 50.11 C 53.98 50.13 52.67 50.17 52.01 50.19 C 52.01 51.46 52.00 52.73 51.99 54.01 C 51.24 53.96 49.74 53.86 48.99 53.81 C 48.21 54.87 47.43 55.93 46.65 56.99 C 45.97 56.60 45.28 56.21 44.59 55.82 C 43.73 56.55 42.87 57.28 42.01 58.00 C 41.08 57.55 40.16 57.10 39.24 56.65 C 38.69 56.94 37.57 57.51 37.02 57.80 C 33.63 57.42 30.18 57.45 26.79 57.79 C 26.24 57.51 25.13 56.94 24.57 56.66 C 23.71 57.10 22.85 57.55 21.99 58.00 C 21.13 57.28 20.27 56.55 19.41 55.82 C 18.72 56.21 18.04 56.60 17.35 56.99 C 16.57 55.93 15.79 54.87 15.01 53.81 C 14.25 53.86 12.75 53.95 12.00 54.00 C 11.94 52.67 11.88 51.34 11.82 50.01 C 11.13 49.98 9.75 49.93 9.06 49.90 C 9.46 47.67 11.41 44.77 8.25 43.67 C 9.16 42.74 10.07 41.81 10.98 40.87 C 10.65 40.54 9.99 39.87 9.66 39.54 C 10.75 38.34 11.83 37.12 12.93 35.92 C 11.40 34.39 9.53 32.57 10.08 30.17 C 10.36 28.03 12.57 27.18 14.13 26.10 C 14.49 24.89 14.90 23.70 15.33 22.52 C 13.90 19.80 13.27 16.15 15.98 13.97 C 20.02 10.88 23.86 6.69 29.22 6.19 M 17.37 18.76 C 25.83 12.40 38.17 12.40 46.63 18.77 C 42.85 14.59 38.13 9.78 32.04 10.02 C 25.91 9.73 21.18 14.57 17.37 18.76 M 17.81 30.00 C 16.61 30.00 15.41 30.01 14.21 30.01 C 14.21 30.51 14.22 31.50 14.22 31.99 C 18.73 32.01 23.23 31.98 27.74 32.02 C 29.92 35.01 34.06 34.93 36.27 32.02 C 40.78 31.98 45.29 32.01 49.80 31.98 C 49.79 31.49 49.78 30.50 49.77 30.01 C 48.58 30.01 47.38 30.00 46.19 30.00 C 46.29 25.95 44.39 22.29 41.20 19.86 C 35.34 22.54 28.65 22.54 22.79 19.86 C 19.61 22.30 17.70 25.95 17.81 30.00 M 20.16 41.11 C 19.89 43.03 19.90 44.99 20.16 46.91 C 21.03 48.09 22.70 47.87 23.96 48.27 C 24.02 45.43 24.02 42.58 23.97 39.74 C 22.70 40.13 21.01 39.88 20.16 41.11 M 28.00 40.00 C 28.00 42.67 28.00 45.33 28.00 48.00 C 30.67 48.00 33.33 48.00 36.00 48.00 C 36.00 45.33 36.00 42.67 36.00 40.00 C 33.33 40.00 30.67 40.00 28.00 40.00 M 40.04 39.73 C 39.98 42.57 39.98 45.42 40.04 48.27 C 41.30 47.87 42.99 48.11 43.84 46.89 C 44.10 44.99 44.12 43.04 43.84 41.14 C 43.06 39.85 41.27 40.16 40.04 39.73 Z" />
<path fill="#000000" opacity="1.00" d=" M 22.04 21.82 C 25.75 22.06 29.31 23.36 32.02 25.97 C 34.69 23.33 38.26 22.07 41.96 21.82 C 41.98 23.18 42.00 24.54 42.01 25.89 C 40.77 26.07 39.52 26.26 38.29 26.48 C 38.26 28.85 36.84 30.28 34.46 30.22 C 34.31 30.67 34.03 31.58 33.89 32.03 C 32.63 32.03 31.37 32.03 30.11 32.03 C 29.97 31.58 29.69 30.67 29.54 30.22 C 27.16 30.26 25.73 28.88 25.72 26.48 C 24.48 26.26 23.23 26.07 21.99 25.89 C 22.00 24.54 22.02 23.18 22.04 21.82 Z" />
</g>
</svg>
