<?xml version="1.0" encoding="UTF-8" ?>
<!DOCTYPE svg PUBLIC "-//W3C//DTD SVG 1.1//EN" "http://www.w3.org/Graphics/SVG/1.1/DTD/svg11.dtd">
<svg width="64pt" height="64pt" viewBox="0 0 64 64" version="1.1" xmlns="http://www.w3.org/2000/svg">
<g id="#ffffffff">
<path fill="#ffffff" opacity="1.00" d=" M 0.00 0.00 L 64.00 0.00 L 64.00 64.00 L 0.00 64.00 L 0.00 0.00 M 26.47 8.65 C 19.59 10.26 13.54 15.08 10.46 21.45 C 7.08 28.22 7.22 36.59 10.82 43.25 C 14.51 50.28 21.89 55.22 29.81 55.88 C 38.01 56.71 46.46 52.89 51.29 46.22 C 57.84 37.67 57.44 24.73 50.38 16.60 C 44.75 9.71 35.11 6.53 26.47 8.65 Z" />
<path fill="#ffffff" opacity="1.00" d=" M 29.13 12.20 C 35.52 11.26 42.29 13.60 46.65 18.38 C 51.48 23.48 53.23 31.24 51.08 37.93 C 48.97 45.07 42.50 50.67 35.12 51.74 C 28.67 52.82 21.77 50.45 17.35 45.62 C 12.27 40.29 10.64 32.04 13.21 25.16 C 15.59 18.34 21.97 13.17 29.13 12.20 M 16.54 36.63 C 18.32 41.68 22.32 45.67 27.37 47.46 C 27.76 46.20 28.15 44.93 28.54 43.66 C 24.75 42.19 21.80 39.26 20.33 35.46 C 19.07 35.85 17.80 36.24 16.54 36.63 Z" />
</g>
<g id="#000000ff">
<path fill="#000000" opacity="1.00" d=" M 26.47 8.65 C 35.11 6.53 44.75 9.71 50.38 16.60 C 57.44 24.73 57.84 37.67 51.29 46.22 C 46.46 52.89 38.01 56.71 29.81 55.88 C 21.89 55.22 14.51 50.28 10.82 43.25 C 7.22 36.59 7.08 28.22 10.46 21.45 C 13.54 15.08 19.59 10.26 26.47 8.65 M 29.13 12.20 C 21.97 13.17 15.59 18.34 13.21 25.16 C 10.64 32.04 12.27 40.29 17.35 45.62 C 21.77 50.45 28.67 52.82 35.12 51.74 C 42.50 50.67 48.97 45.07 51.08 37.93 C 53.23 31.24 51.48 23.48 46.65 18.38 C 42.29 13.60 35.52 11.26 29.13 12.20 Z" />
<path fill="#000000" opacity="1.00" d=" M 16.54 36.63 C 17.80 36.24 19.07 35.85 20.33 35.46 C 21.80 39.26 24.75 42.19 28.54 43.66 C 28.15 44.93 27.76 46.20 27.37 47.46 C 22.32 45.67 18.32 41.68 16.54 36.63 Z" />
</g>
</svg>
