<?xml version="1.0" encoding="UTF-8" ?>
<!DOCTYPE svg PUBLIC "-//W3C//DTD SVG 1.1//EN" "http://www.w3.org/Graphics/SVG/1.1/DTD/svg11.dtd">
<svg width="64pt" height="64pt" viewBox="0 0 64 64" version="1.1" xmlns="http://www.w3.org/2000/svg">
<g id="#ffffffff">
<path fill="#ffffff" opacity="1.00" d=" M 0.00 0.00 L 64.00 0.00 L 64.00 64.00 L 0.00 64.00 L 0.00 0.00 M 10.86 9.85 C 6.93 13.78 6.01 19.54 5.88 24.86 C 4.88 26.67 3.57 28.60 4.11 30.79 C 4.54 33.16 6.56 34.65 8.42 35.93 C 10.05 41.16 12.04 46.95 16.99 49.95 C 19.62 51.75 22.85 52.02 25.94 52.01 C 25.97 50.66 26.00 49.31 26.02 47.95 C 23.25 48.04 20.30 47.76 18.12 45.85 C 14.11 42.53 13.11 37.13 11.62 32.43 C 9.70 32.02 8.04 31.06 7.75 28.95 C 8.49 28.31 9.23 27.66 9.97 27.02 C 9.97 22.09 10.02 16.45 13.70 12.67 C 17.05 9.04 22.21 8.31 26.88 7.94 C 27.47 9.49 28.49 11.11 27.73 12.80 C 24.19 14.79 19.45 13.49 16.28 16.31 C 14.61 17.72 14.34 19.98 13.79 21.95 C 15.09 21.97 16.40 21.99 17.70 22.01 C 18.16 17.38 23.68 18.51 26.89 17.48 C 29.76 17.09 31.23 14.44 32.23 12.02 C 38.52 14.04 38.00 21.71 38.02 27.01 C 38.76 27.67 39.51 28.32 40.25 28.97 C 39.93 31.05 38.30 32.03 36.39 32.43 C 35.81 34.28 35.25 36.14 34.70 38.00 C 36.08 38.00 37.46 38.00 38.84 38.00 C 39.03 37.48 39.40 36.44 39.59 35.92 C 41.40 34.62 43.50 33.20 43.88 30.81 C 44.44 28.61 43.12 26.64 42.11 24.81 C 41.81 20.20 41.75 15.06 38.53 11.38 C 36.74 9.16 33.88 8.49 31.23 7.92 C 30.55 6.59 29.87 5.27 29.20 3.93 C 22.73 3.96 15.55 4.92 10.86 9.85 M 17.18 28.10 C 14.86 29.20 16.41 32.89 18.85 31.89 C 21.12 30.75 19.59 27.17 17.18 28.10 M 29.20 28.09 C 26.83 29.20 28.43 32.91 30.88 31.88 C 33.09 30.70 31.60 27.21 29.20 28.09 M 19.67 38.05 C 20.41 39.91 21.66 42.12 24.00 41.99 C 26.34 42.13 27.52 39.87 28.33 38.05 C 25.45 37.98 22.56 37.98 19.67 38.05 M 30.00 42.00 C 30.00 48.00 30.00 54.00 30.00 60.00 C 40.00 60.00 50.00 60.00 60.00 60.00 C 60.00 54.00 60.00 48.00 60.00 42.00 C 50.00 42.00 40.00 42.00 30.00 42.00 Z" />
<path fill="#ffffff" opacity="1.00" d=" M 36.02 45.99 C 41.98 46.01 47.94 46.00 53.90 45.99 C 54.60 46.66 55.30 47.33 56.00 48.00 C 56.01 49.97 56.01 51.95 56.00 53.92 C 55.31 54.62 54.62 55.31 53.93 56.01 C 47.95 56.00 41.97 55.99 36.00 56.01 C 35.33 55.30 34.67 54.60 34.00 53.90 C 33.99 51.94 33.99 49.98 33.99 48.02 C 34.67 47.35 35.35 46.67 36.02 45.99 M 43.36 48.49 C 41.31 49.71 41.74 53.28 44.12 53.81 C 46.25 54.71 48.70 52.23 47.81 50.11 C 47.37 48.25 44.91 47.43 43.36 48.49 M 38.17 50.17 C 37.65 51.79 38.20 52.34 39.82 51.82 C 40.34 50.20 39.79 49.65 38.17 50.17 M 50.17 50.17 C 49.65 51.79 50.20 52.34 51.82 51.82 C 52.34 50.20 51.79 49.65 50.17 50.17 Z" />
</g>
<g id="#000000ff">
<path fill="#000000" opacity="1.00" d=" M 10.86 9.85 C 15.55 4.92 22.73 3.96 29.20 3.93 C 29.87 5.27 30.55 6.59 31.23 7.92 C 33.88 8.49 36.74 9.16 38.53 11.38 C 41.75 15.06 41.81 20.20 42.11 24.81 C 43.12 26.64 44.44 28.61 43.88 30.81 C 43.50 33.20 41.40 34.62 39.59 35.92 C 39.40 36.44 39.03 37.48 38.84 38.00 C 37.46 38.00 36.08 38.00 34.70 38.00 C 35.25 36.14 35.81 34.28 36.39 32.43 C 38.30 32.03 39.93 31.05 40.25 28.97 C 39.51 28.32 38.76 27.67 38.02 27.01 C 38.00 21.71 38.52 14.04 32.23 12.02 C 31.23 14.44 29.76 17.09 26.89 17.48 C 23.68 18.51 18.16 17.38 17.70 22.01 C 16.40 21.99 15.09 21.97 13.79 21.95 C 14.34 19.98 14.61 17.72 16.28 16.31 C 19.45 13.49 24.19 14.79 27.73 12.80 C 28.49 11.11 27.47 9.49 26.88 7.94 C 22.21 8.31 17.05 9.04 13.70 12.67 C 10.02 16.45 9.97 22.09 9.97 27.02 C 9.23 27.66 8.49 28.31 7.75 28.95 C 8.04 31.06 9.70 32.02 11.62 32.43 C 13.11 37.13 14.11 42.53 18.12 45.85 C 20.30 47.76 23.25 48.04 26.02 47.95 C 26.00 49.31 25.97 50.66 25.94 52.01 C 22.85 52.02 19.62 51.75 16.99 49.95 C 12.04 46.95 10.05 41.16 8.42 35.93 C 6.56 34.65 4.54 33.16 4.11 30.79 C 3.57 28.60 4.88 26.67 5.88 24.86 C 6.01 19.54 6.93 13.78 10.86 9.85 Z" />
<path fill="#000000" opacity="1.00" d=" M 17.18 28.10 C 19.59 27.17 21.12 30.75 18.85 31.89 C 16.41 32.89 14.86 29.20 17.18 28.10 Z" />
<path fill="#000000" opacity="1.00" d=" M 29.20 28.09 C 31.60 27.21 33.09 30.70 30.88 31.88 C 28.43 32.91 26.83 29.20 29.20 28.09 Z" />
<path fill="#000000" opacity="1.00" d=" M 19.67 38.05 C 22.56 37.98 25.45 37.98 28.33 38.05 C 27.52 39.87 26.34 42.13 24.00 41.99 C 21.66 42.12 20.41 39.91 19.67 38.05 Z" />
<path fill="#000000" opacity="1.00" d=" M 30.00 42.00 C 40.00 42.00 50.00 42.00 60.00 42.00 C 60.00 48.00 60.00 54.00 60.00 60.00 C 50.00 60.00 40.00 60.00 30.00 60.00 C 30.00 54.00 30.00 48.00 30.00 42.00 M 36.02 45.99 C 35.35 46.67 34.67 47.35 33.99 48.02 C 33.99 49.98 33.99 51.94 34.00 53.90 C 34.67 54.60 35.33 55.30 36.00 56.01 C 41.97 55.99 47.95 56.00 53.93 56.01 C 54.62 55.31 55.31 54.62 56.00 53.92 C 56.01 51.95 56.01 49.97 56.00 48.00 C 55.30 47.33 54.60 46.66 53.90 45.99 C 47.94 46.00 41.98 46.01 36.02 45.99 Z" />
<path fill="#000000" opacity="1.00" d=" M 43.36 48.49 C 44.91 47.43 47.37 48.25 47.81 50.11 C 48.70 52.23 46.25 54.71 44.12 53.81 C 41.74 53.28 41.31 49.71 43.36 48.49 Z" />
<path fill="#000000" opacity="1.00" d=" M 38.17 50.17 C 39.79 49.65 40.34 50.20 39.82 51.82 C 38.20 52.34 37.65 51.79 38.17 50.17 Z" />
<path fill="#000000" opacity="1.00" d=" M 50.17 50.17 C 51.79 49.65 52.34 50.20 51.82 51.82 C 50.20 52.34 49.65 51.79 50.17 50.17 Z" />
</g>
</svg>
