<?xml version="1.0" encoding="UTF-8" ?>
<!DOCTYPE svg PUBLIC "-//W3C//DTD SVG 1.1//EN" "http://www.w3.org/Graphics/SVG/1.1/DTD/svg11.dtd">
<svg width="60pt" height="60pt" viewBox="0 0 60 60" version="1.1" xmlns="http://www.w3.org/2000/svg">
<g id="#ffffffff">
<path fill="#ffffff" opacity="1.00" d=" M 0.00 0.00 L 60.00 0.00 L 60.00 60.00 L 0.00 60.00 L 0.00 0.00 M 17.98 8.03 C 18.78 10.56 20.78 12.41 22.73 14.09 C 21.57 14.98 20.45 15.93 19.37 16.93 C 16.87 15.99 14.87 13.56 11.99 13.93 C 10.46 13.94 8.04 13.87 7.96 16.00 C 8.18 18.61 11.29 17.84 13.06 18.10 C 19.15 22.38 26.92 22.13 34.02 21.93 C 38.57 21.81 43.15 20.71 46.93 18.10 C 48.60 17.84 51.97 18.59 51.94 16.02 C 52.15 13.87 49.42 13.94 47.97 13.93 C 45.08 13.58 43.10 16.01 40.60 16.95 C 39.52 15.97 38.42 15.01 37.30 14.08 C 39.23 12.39 41.21 10.55 42.02 8.03 C 42.15 6.28 40.38 5.74 38.98 5.78 C 37.86 8.05 36.34 10.19 34.01 11.35 C 31.55 9.66 28.44 9.67 25.99 11.35 C 23.65 10.19 22.14 8.04 21.00 5.77 C 19.61 5.75 17.85 6.30 17.98 8.03 M 4.13 26.78 C 6.37 29.52 10.07 26.13 12.90 25.97 C 12.02 30.96 11.46 36.14 13.53 40.95 C 13.14 42.19 12.75 43.44 12.36 44.69 C 10.24 46.14 7.94 47.38 6.10 49.19 C 5.45 50.76 7.22 52.72 8.77 51.74 C 11.53 50.05 14.74 48.58 16.46 45.70 C 18.61 48.31 21.26 50.61 24.52 51.71 C 25.63 52.16 27.26 52.17 27.83 50.89 C 28.37 44.33 27.64 37.72 28.16 31.16 C 28.84 29.63 31.16 29.63 31.83 31.17 C 32.35 37.68 31.66 44.24 32.14 50.76 C 32.40 51.03 32.92 51.58 33.18 51.85 C 37.44 52.14 40.92 48.67 43.55 45.70 C 45.25 48.60 48.50 50.05 51.26 51.76 C 52.79 52.72 54.56 50.72 53.88 49.18 C 52.04 47.37 49.73 46.12 47.62 44.66 C 47.24 43.43 46.85 42.19 46.47 40.95 C 48.50 36.14 48.01 30.97 47.07 25.99 C 49.40 26.57 51.66 27.40 53.99 27.97 C 55.70 28.11 56.70 25.74 55.44 24.62 C 53.13 23.32 50.49 22.81 48.01 21.91 C 36.75 27.33 23.26 27.35 11.99 21.91 C 9.47 23.36 3.77 22.87 4.13 26.78 Z" />
</g>
<g id="#000000ff">
<path fill="#000000" opacity="1.00" d=" M 17.98 8.03 C 17.85 6.30 19.61 5.75 21.00 5.77 C 22.14 8.04 23.65 10.19 25.99 11.35 C 28.44 9.67 31.55 9.66 34.01 11.35 C 36.34 10.19 37.86 8.05 38.98 5.78 C 40.38 5.74 42.15 6.28 42.02 8.03 C 41.21 10.55 39.23 12.39 37.30 14.08 C 38.42 15.01 39.52 15.97 40.60 16.95 C 43.10 16.01 45.08 13.58 47.97 13.93 C 49.42 13.94 52.15 13.87 51.94 16.02 C 51.97 18.59 48.60 17.84 46.93 18.10 C 43.15 20.71 38.57 21.81 34.02 21.93 C 26.92 22.13 19.15 22.38 13.06 18.10 C 11.29 17.84 8.18 18.61 7.96 16.00 C 8.04 13.87 10.46 13.94 11.99 13.93 C 14.87 13.56 16.87 15.99 19.37 16.93 C 20.45 15.93 21.57 14.98 22.73 14.09 C 20.78 12.41 18.78 10.56 17.98 8.03 Z" />
<path fill="#000000" opacity="1.00" d=" M 4.13 26.78 C 3.77 22.87 9.47 23.36 11.99 21.91 C 23.26 27.35 36.75 27.33 48.01 21.91 C 50.49 22.81 53.13 23.32 55.44 24.62 C 56.70 25.74 55.70 28.11 53.99 27.97 C 51.66 27.40 49.40 26.57 47.07 25.99 C 48.01 30.97 48.50 36.14 46.47 40.95 C 46.85 42.19 47.24 43.43 47.62 44.66 C 49.73 46.12 52.04 47.37 53.88 49.18 C 54.56 50.72 52.79 52.72 51.26 51.76 C 48.50 50.05 45.25 48.60 43.55 45.70 C 40.92 48.67 37.44 52.14 33.18 51.85 C 32.92 51.58 32.40 51.03 32.14 50.76 C 31.66 44.24 32.35 37.68 31.83 31.17 C 31.16 29.63 28.84 29.63 28.16 31.16 C 27.64 37.72 28.37 44.33 27.83 50.89 C 27.26 52.17 25.63 52.16 24.52 51.71 C 21.26 50.61 18.61 48.31 16.46 45.70 C 14.74 48.58 11.53 50.05 8.77 51.74 C 7.22 52.72 5.45 50.76 6.10 49.19 C 7.94 47.38 10.24 46.14 12.36 44.69 C 12.75 43.44 13.14 42.19 13.53 40.95 C 11.46 36.14 12.02 30.96 12.90 25.97 C 10.07 26.13 6.37 29.52 4.13 26.78 Z" />
</g>
</svg>
