<?xml version="1.0" encoding="UTF-8" ?>
<!DOCTYPE svg PUBLIC "-//W3C//DTD SVG 1.1//EN" "http://www.w3.org/Graphics/SVG/1.1/DTD/svg11.dtd">
<svg width="60pt" height="60pt" viewBox="0 0 60 60" version="1.1" xmlns="http://www.w3.org/2000/svg">
<g id="#ffffffff">
<path fill="#ffffff" opacity="1.00" d=" M 0.00 0.00 L 60.00 0.00 L 60.00 60.00 L 0.00 60.00 L 0.00 0.00 M 9.96 7.21 C 10.20 9.32 12.67 10.66 12.07 13.00 C 12.50 15.07 11.05 16.57 9.82 18.00 C 10.67 19.25 12.24 20.29 12.01 22.01 C 12.01 32.67 11.99 43.33 12.00 54.00 C 16.00 54.00 20.00 54.00 24.00 53.99 C 23.99 50.00 24.01 46.00 24.00 42.01 C 28.00 42.00 32.00 42.00 36.00 42.01 C 35.99 46.00 36.01 50.00 36.00 53.99 C 40.00 54.00 44.00 54.00 48.00 54.00 C 48.01 43.34 47.99 32.68 47.99 22.02 C 47.76 20.22 49.44 19.16 50.31 17.83 C 48.95 16.43 47.57 15.05 46.17 13.69 C 44.83 14.52 43.78 16.27 42.01 16.09 C 40.29 16.29 39.27 14.61 38.00 13.78 C 36.42 15.49 34.37 16.43 32.00 16.09 C 31.48 12.75 32.30 9.71 34.38 7.08 C 33.02 6.43 31.61 5.81 30.06 5.98 C 25.02 5.99 19.98 6.02 14.94 5.98 C 13.24 6.10 11.13 5.59 9.96 7.21 Z" />
<path fill="#ffffff" opacity="1.00" d=" M 16.00 10.00 C 17.33 10.00 18.66 10.00 20.00 10.00 C 20.00 12.00 20.00 14.00 20.00 16.00 C 18.67 16.00 17.33 16.00 16.00 16.00 C 16.00 14.00 16.00 12.00 16.00 10.00 Z" />
<path fill="#ffffff" opacity="1.00" d=" M 24.00 10.00 C 25.33 10.00 26.67 10.00 28.00 10.00 C 28.00 12.00 28.00 14.00 28.00 16.00 C 26.66 16.00 25.33 16.00 24.00 16.00 C 24.00 14.00 24.00 12.00 24.00 10.00 Z" />
<path fill="#ffffff" opacity="1.00" d=" M 16.00 22.00 C 17.33 22.00 18.66 22.00 20.00 22.00 C 20.00 24.00 20.00 26.00 20.00 28.00 C 18.67 28.00 17.33 28.00 16.00 28.00 C 16.00 26.00 16.00 24.00 16.00 22.00 Z" />
<path fill="#ffffff" opacity="1.00" d=" M 24.00 22.00 C 25.33 22.00 26.66 22.00 28.00 22.00 C 28.00 24.00 28.00 26.00 28.00 28.00 C 26.66 28.00 25.33 28.00 24.00 28.00 C 24.00 26.00 24.00 24.00 24.00 22.00 Z" />
<path fill="#ffffff" opacity="1.00" d=" M 32.00 22.00 C 33.33 22.00 34.66 22.00 36.00 22.00 C 36.00 24.00 36.00 26.00 36.00 28.00 C 34.66 28.00 33.33 28.00 32.00 28.00 C 32.00 26.00 32.00 24.00 32.00 22.00 Z" />
<path fill="#ffffff" opacity="1.00" d=" M 40.00 22.00 C 41.33 22.00 42.66 22.00 44.00 22.00 C 44.00 24.00 44.00 26.00 44.00 28.00 C 42.66 28.00 41.33 28.00 40.00 28.00 C 40.00 26.00 40.00 24.00 40.00 22.00 Z" />
<path fill="#ffffff" opacity="1.00" d=" M 16.00 32.00 C 17.33 32.00 18.66 32.00 20.00 32.00 C 20.00 34.00 20.00 36.00 20.00 38.00 C 18.66 38.00 17.33 38.00 16.00 38.00 C 16.00 36.00 16.00 34.00 16.00 32.00 Z" />
<path fill="#ffffff" opacity="1.00" d=" M 24.00 32.00 C 25.33 32.00 26.66 32.00 28.00 32.00 C 28.00 34.00 28.00 36.00 28.00 38.00 C 26.66 38.00 25.33 38.00 24.00 38.00 C 24.00 36.00 24.00 34.00 24.00 32.00 Z" />
<path fill="#ffffff" opacity="1.00" d=" M 32.00 32.00 C 33.33 32.00 34.66 32.00 36.00 32.00 C 36.00 34.00 36.00 36.00 36.00 38.00 C 34.66 38.00 33.33 38.00 32.00 38.00 C 32.00 36.00 32.00 34.00 32.00 32.00 Z" />
<path fill="#ffffff" opacity="1.00" d=" M 40.00 32.00 C 41.33 32.00 42.66 32.00 44.00 32.00 C 44.00 34.00 44.00 36.00 44.00 38.00 C 42.66 38.00 41.33 38.00 40.00 38.00 C 40.00 36.00 40.00 34.00 40.00 32.00 Z" />
<path fill="#ffffff" opacity="1.00" d=" M 16.00 42.00 C 17.33 42.00 18.66 42.00 20.00 42.00 C 20.00 44.00 20.00 46.00 20.00 48.00 C 18.67 48.00 17.33 48.00 16.00 48.00 C 16.00 46.00 16.00 44.00 16.00 42.00 Z" />
<path fill="#ffffff" opacity="1.00" d=" M 40.00 42.00 C 41.33 42.00 42.66 42.00 44.00 42.00 C 44.00 44.00 44.00 46.00 44.00 48.00 C 42.66 48.00 41.33 48.00 40.00 48.00 C 40.00 46.00 40.00 44.00 40.00 42.00 Z" />
</g>
<g id="#000000ff">
<path fill="#000000" opacity="1.00" d=" M 9.96 7.21 C 11.13 5.59 13.24 6.10 14.94 5.98 C 19.98 6.02 25.02 5.99 30.06 5.98 C 31.61 5.81 33.02 6.43 34.38 7.08 C 32.30 9.71 31.48 12.75 32.00 16.09 C 34.37 16.43 36.42 15.49 38.00 13.78 C 39.27 14.61 40.29 16.29 42.01 16.09 C 43.78 16.27 44.83 14.52 46.17 13.69 C 47.57 15.05 48.95 16.43 50.31 17.83 C 49.44 19.16 47.76 20.22 47.99 22.02 C 47.99 32.68 48.01 43.34 48.00 54.00 C 44.00 54.00 40.00 54.00 36.00 53.99 C 36.01 50.00 35.99 46.00 36.00 42.01 C 32.00 42.00 28.00 42.00 24.00 42.01 C 24.01 46.00 23.99 50.00 24.00 53.99 C 20.00 54.00 16.00 54.00 12.00 54.00 C 11.99 43.33 12.01 32.67 12.01 22.01 C 12.24 20.29 10.67 19.25 9.82 18.00 C 11.05 16.57 12.50 15.07 12.07 13.00 C 12.67 10.66 10.20 9.32 9.96 7.21 M 16.00 10.00 C 16.00 12.00 16.00 14.00 16.00 16.00 C 17.33 16.00 18.67 16.00 20.00 16.00 C 20.00 14.00 20.00 12.00 20.00 10.00 C 18.66 10.00 17.33 10.00 16.00 10.00 M 24.00 10.00 C 24.00 12.00 24.00 14.00 24.00 16.00 C 25.33 16.00 26.66 16.00 28.00 16.00 C 28.00 14.00 28.00 12.00 28.00 10.00 C 26.67 10.00 25.33 10.00 24.00 10.00 M 16.00 22.00 C 16.00 24.00 16.00 26.00 16.00 28.00 C 17.33 28.00 18.67 28.00 20.00 28.00 C 20.00 26.00 20.00 24.00 20.00 22.00 C 18.66 22.00 17.33 22.00 16.00 22.00 M 24.00 22.00 C 24.00 24.00 24.00 26.00 24.00 28.00 C 25.33 28.00 26.66 28.00 28.00 28.00 C 28.00 26.00 28.00 24.00 28.00 22.00 C 26.66 22.00 25.33 22.00 24.00 22.00 M 32.00 22.00 C 32.00 24.00 32.00 26.00 32.00 28.00 C 33.33 28.00 34.66 28.00 36.00 28.00 C 36.00 26.00 36.00 24.00 36.00 22.00 C 34.66 22.00 33.33 22.00 32.00 22.00 M 40.00 22.00 C 40.00 24.00 40.00 26.00 40.00 28.00 C 41.33 28.00 42.66 28.00 44.00 28.00 C 44.00 26.00 44.00 24.00 44.00 22.00 C 42.66 22.00 41.33 22.00 40.00 22.00 M 16.00 32.00 C 16.00 34.00 16.00 36.00 16.00 38.00 C 17.33 38.00 18.66 38.00 20.00 38.00 C 20.00 36.00 20.00 34.00 20.00 32.00 C 18.66 32.00 17.33 32.00 16.00 32.00 M 24.00 32.00 C 24.00 34.00 24.00 36.00 24.00 38.00 C 25.33 38.00 26.66 38.00 28.00 38.00 C 28.00 36.00 28.00 34.00 28.00 32.00 C 26.66 32.00 25.33 32.00 24.00 32.00 M 32.00 32.00 C 32.00 34.00 32.00 36.00 32.00 38.00 C 33.33 38.00 34.66 38.00 36.00 38.00 C 36.00 36.00 36.00 34.00 36.00 32.00 C 34.66 32.00 33.33 32.00 32.00 32.00 M 40.00 32.00 C 40.00 34.00 40.00 36.00 40.00 38.00 C 41.33 38.00 42.66 38.00 44.00 38.00 C 44.00 36.00 44.00 34.00 44.00 32.00 C 42.66 32.00 41.33 32.00 40.00 32.00 M 16.00 42.00 C 16.00 44.00 16.00 46.00 16.00 48.00 C 17.33 48.00 18.67 48.00 20.00 48.00 C 20.00 46.00 20.00 44.00 20.00 42.00 C 18.66 42.00 17.33 42.00 16.00 42.00 M 40.00 42.00 C 40.00 44.00 40.00 46.00 40.00 48.00 C 41.33 48.00 42.66 48.00 44.00 48.00 C 44.00 46.00 44.00 44.00 44.00 42.00 C 42.66 42.00 41.33 42.00 40.00 42.00 Z" />
</g>
</svg>
