<?xml version="1.0" encoding="UTF-8" ?>
<!DOCTYPE svg PUBLIC "-//W3C//DTD SVG 1.1//EN" "http://www.w3.org/Graphics/SVG/1.1/DTD/svg11.dtd">
<svg width="64pt" height="64pt" viewBox="0 0 64 64" version="1.1" xmlns="http://www.w3.org/2000/svg">
<g id="#ffffffff">
<path fill="#ffffff" opacity="1.00" d=" M 0.00 0.00 L 64.00 0.00 L 64.00 64.00 L 0.00 64.00 L 0.00 0.00 M 33.96 13.13 C 33.47 12.65 32.48 11.67 31.98 11.18 C 25.80 17.24 19.77 23.44 13.58 29.49 C 13.62 29.95 13.70 30.87 13.74 31.33 C 11.29 31.78 9.46 33.42 7.92 35.27 C 14.87 42.21 21.78 49.18 28.75 56.09 C 30.60 54.54 32.22 52.70 32.67 50.24 C 33.13 50.29 34.05 50.39 34.51 50.44 C 40.56 44.24 46.77 38.22 52.82 32.02 C 52.33 31.53 51.36 30.54 50.88 30.05 C 53.78 27.51 56.11 24.00 55.97 20.00 C 56.15 13.61 50.42 7.86 44.03 8.03 C 40.02 7.86 36.49 10.21 33.96 13.13 Z" />
<path fill="#ffffff" opacity="1.00" d=" M 36.76 15.95 C 38.65 13.89 41.01 11.86 44.00 12.01 C 48.67 11.86 52.68 16.48 51.88 21.08 C 51.63 23.63 49.75 25.51 48.05 27.23 C 44.28 23.48 40.54 19.70 36.76 15.95 M 39.77 15.29 C 41.07 19.30 46.97 19.34 48.20 15.26 C 45.53 13.75 42.43 13.74 39.77 15.29 Z" />
<path fill="#ffffff" opacity="1.00" d=" M 18.89 30.01 C 23.23 25.59 27.63 21.22 32.00 16.82 C 37.07 21.87 42.13 26.93 47.18 32.00 C 42.79 36.36 38.44 40.78 34.01 45.10 C 28.98 40.06 23.92 35.06 18.89 30.01 M 32.56 20.56 C 29.23 23.90 25.89 27.23 22.56 30.57 C 23.53 31.51 24.49 32.47 25.44 33.44 C 28.78 30.11 32.10 26.76 35.44 23.44 C 34.47 22.49 33.51 21.53 32.56 20.56 Z" />
<path fill="#ffffff" opacity="1.00" d=" M 13.88 35.51 C 14.75 35.19 16.49 34.56 17.36 34.25 C 21.50 38.37 25.63 42.50 29.75 46.63 C 29.44 47.51 28.81 49.25 28.50 50.12 C 23.63 45.25 18.77 40.36 13.88 35.51 Z" />
</g>
<g id="#000000ff">
<path fill="#000000" opacity="1.00" d=" M 33.96 13.13 C 36.49 10.21 40.02 7.86 44.03 8.03 C 50.42 7.86 56.15 13.61 55.97 20.00 C 56.11 24.00 53.78 27.51 50.88 30.05 C 51.36 30.54 52.33 31.53 52.82 32.02 C 46.77 38.22 40.56 44.24 34.51 50.44 C 34.05 50.39 33.13 50.29 32.67 50.24 C 32.22 52.70 30.60 54.54 28.75 56.09 C 21.78 49.18 14.87 42.21 7.92 35.27 C 9.46 33.42 11.29 31.78 13.74 31.33 C 13.70 30.87 13.62 29.95 13.58 29.49 C 19.77 23.44 25.80 17.24 31.98 11.18 C 32.48 11.67 33.47 12.65 33.96 13.13 M 36.76 15.95 C 40.54 19.70 44.28 23.48 48.05 27.23 C 49.75 25.51 51.63 23.63 51.88 21.08 C 52.68 16.48 48.67 11.86 44.00 12.01 C 41.01 11.86 38.65 13.89 36.76 15.95 M 18.89 30.01 C 23.92 35.06 28.98 40.06 34.01 45.10 C 38.44 40.78 42.79 36.36 47.18 32.00 C 42.13 26.93 37.07 21.87 32.00 16.82 C 27.63 21.22 23.23 25.59 18.89 30.01 M 13.88 35.51 C 18.77 40.36 23.63 45.25 28.50 50.12 C 28.81 49.25 29.44 47.51 29.75 46.63 C 25.63 42.50 21.50 38.37 17.36 34.25 C 16.49 34.56 14.75 35.19 13.88 35.51 Z" />
<path fill="#000000" opacity="1.00" d=" M 39.77 15.29 C 42.43 13.74 45.53 13.75 48.20 15.26 C 46.97 19.34 41.07 19.30 39.77 15.29 Z" />
<path fill="#000000" opacity="1.00" d=" M 32.56 20.56 C 33.51 21.53 34.47 22.49 35.44 23.44 C 32.10 26.76 28.78 30.11 25.44 33.44 C 24.49 32.47 23.53 31.51 22.56 30.57 C 25.89 27.23 29.23 23.90 32.56 20.56 Z" />
</g>
</svg>
