<?xml version="1.0" encoding="UTF-8" ?>
<!DOCTYPE svg PUBLIC "-//W3C//DTD SVG 1.1//EN" "http://www.w3.org/Graphics/SVG/1.1/DTD/svg11.dtd">
<svg width="60pt" height="60pt" viewBox="0 0 60 60" version="1.1" xmlns="http://www.w3.org/2000/svg">
<g id="#ffffffff">
<path fill="#ffffff" opacity="1.00" d=" M 0.00 0.00 L 60.00 0.00 L 60.00 60.00 L 0.00 60.00 L 0.00 0.00 M 13.23 7.71 C 15.42 8.52 17.72 9.06 19.77 10.19 C 22.89 11.76 25.09 14.56 26.96 17.43 C 26.31 17.90 25.67 18.38 25.03 18.85 C 22.24 13.25 16.01 10.04 9.89 10.02 C 6.32 9.94 3.37 13.60 4.10 17.08 C 4.98 22.70 9.18 27.58 14.50 29.54 C 14.20 31.27 13.20 33.15 14.20 34.84 C 17.12 40.30 23.23 42.74 28.90 44.22 C 31.34 44.66 30.19 48.65 27.95 47.91 C 21.87 47.37 17.25 43.22 12.12 40.50 C 12.58 45.67 14.65 51.88 20.13 53.60 C 26.10 54.98 32.33 51.59 36.04 47.02 C 38.69 43.89 39.01 39.69 39.11 35.77 C 41.21 33.73 42.47 31.11 41.92 28.11 C 44.22 27.57 46.83 27.31 48.56 25.51 C 50.18 23.81 50.25 21.18 49.55 19.05 C 48.13 14.63 44.27 11.33 39.89 10.02 C 42.65 9.12 45.83 8.82 48.13 6.97 C 48.14 6.49 48.14 5.53 48.15 5.05 C 46.04 2.70 42.60 5.44 40.05 5.91 C 37.92 6.16 37.40 8.50 39.02 9.78 C 35.14 9.87 31.91 12.35 30.46 15.88 C 27.30 9.59 20.99 5.10 14.05 4.06 C 11.95 3.64 11.08 7.26 13.23 7.71 Z" />
<path fill="#ffffff" opacity="1.00" d=" M 8.08 15.14 C 9.40 13.02 12.33 14.36 14.26 14.77 C 18.88 15.97 22.37 20.14 22.18 25.01 C 15.56 28.51 7.92 21.94 8.08 15.14 Z" />
<path fill="#ffffff" opacity="1.00" d=" M 40.50 14.51 C 43.69 13.47 47.14 17.64 45.54 20.57 C 42.04 23.77 35.90 17.09 40.50 14.51 Z" />
<path fill="#ffffff" opacity="1.00" d=" M 19.67 29.95 C 21.08 29.53 22.47 29.03 23.84 28.49 C 26.36 31.60 30.01 33.34 33.89 34.04 C 36.06 33.92 36.76 36.89 34.87 37.86 C 28.89 38.02 23.22 34.66 19.67 29.95 Z" />
</g>
<g id="#000000ff">
<path fill="#968176" opacity="1.00" d=" M 13.23 7.71 C 11.08 7.26 11.95 3.64 14.05 4.06 C 20.99 5.10 27.30 9.59 30.46 15.88 C 31.91 12.35 35.14 9.87 39.02 9.78 C 37.40 8.50 37.92 6.16 40.05 5.91 C 42.60 5.44 46.04 2.70 48.15 5.05 C 48.14 5.53 48.14 6.49 48.13 6.97 C 45.83 8.82 42.65 9.12 39.89 10.02 C 44.27 11.33 48.13 14.63 49.55 19.05 C 50.25 21.18 50.18 23.81 48.56 25.51 C 46.83 27.31 44.22 27.57 41.92 28.11 C 42.47 31.11 41.21 33.73 39.11 35.77 C 39.01 39.69 38.69 43.89 36.04 47.02 C 32.33 51.59 26.10 54.98 20.13 53.60 C 14.65 51.88 12.58 45.67 12.12 40.50 C 17.25 43.22 21.87 47.37 27.95 47.91 C 30.19 48.65 31.34 44.66 28.90 44.22 C 23.23 42.74 17.12 40.30 14.20 34.84 C 13.20 33.15 14.20 31.27 14.50 29.54 C 9.18 27.58 4.98 22.70 4.10 17.08 C 3.37 13.60 6.32 9.94 9.89 10.02 C 16.01 10.04 22.24 13.25 25.03 18.85 C 25.67 18.38 26.31 17.90 26.96 17.43 C 25.09 14.56 22.89 11.76 19.77 10.19 C 17.72 9.06 15.42 8.52 13.23 7.71 M 8.08 15.14 C 7.92 21.94 15.56 28.51 22.18 25.01 C 22.37 20.14 18.88 15.97 14.26 14.77 C 12.33 14.36 9.40 13.02 8.08 15.14 M 40.50 14.51 C 35.90 17.09 42.04 23.77 45.54 20.57 C 47.14 17.64 43.69 13.47 40.50 14.51 M 19.67 29.95 C 23.22 34.66 28.89 38.02 34.87 37.86 C 36.76 36.89 36.06 33.92 33.89 34.04 C 30.01 33.34 26.36 31.60 23.84 28.49 C 22.47 29.03 21.08 29.53 19.67 29.95 Z" />
</g>
</svg>
