<?xml version="1.0" encoding="UTF-8" ?>
<!DOCTYPE svg PUBLIC "-//W3C//DTD SVG 1.1//EN" "http://www.w3.org/Graphics/SVG/1.1/DTD/svg11.dtd">
<svg width="60pt" height="60pt" viewBox="0 0 60 60" version="1.1" xmlns="http://www.w3.org/2000/svg">
<g id="#ffffffff">
<path fill="#ffffff" opacity="1.00" d=" M 0.00 0.00 L 60.00 0.00 L 60.00 60.00 L 0.00 60.00 L 0.00 0.00 M 25.08 7.76 C 21.39 7.72 18.12 11.26 18.62 14.95 C 18.98 18.17 16.93 21.78 19.31 24.61 C 21.03 27.48 24.76 27.09 27.24 28.86 C 30.26 31.00 34.98 29.94 36.75 26.69 C 38.10 23.88 41.60 22.45 41.88 19.10 C 42.49 16.31 40.73 13.91 38.81 12.14 C 37.99 9.39 36.14 6.68 33.12 6.17 C 30.24 5.28 27.90 7.79 25.08 7.76 M 16.47 9.63 C 14.86 12.78 10.40 10.60 8.36 13.33 C 5.72 15.59 6.97 19.23 6.28 22.19 C 5.47 24.95 7.14 28.15 9.83 29.11 C 13.53 30.03 17.01 33.36 20.95 31.24 C 22.59 33.52 23.87 36.02 25.06 38.56 C 23.00 37.42 20.81 36.53 18.53 35.94 C 18.00 40.44 17.43 45.70 20.68 49.38 C 23.26 52.08 27.04 54.04 30.82 53.85 C 35.90 47.41 38.31 39.26 41.26 31.70 C 43.01 31.83 44.89 32.24 46.53 31.38 C 49.04 30.33 49.78 27.42 51.78 25.76 C 54.25 23.81 54.78 19.78 52.63 17.41 C 51.10 15.79 50.37 13.67 49.09 11.89 C 47.21 9.86 44.34 9.90 41.82 10.28 C 44.19 13.46 45.11 17.29 45.89 21.10 C 46.00 23.36 43.31 23.86 41.97 25.10 C 37.98 28.89 35.85 34.03 34.21 39.18 C 34.24 36.97 34.25 34.76 34.27 32.56 C 33.27 32.68 31.26 32.94 30.26 33.07 C 30.26 35.47 30.19 37.88 29.99 40.28 C 28.64 37.29 27.83 33.89 25.61 31.38 C 23.02 29.95 19.63 29.88 17.69 27.35 C 16.31 25.35 14.63 23.38 14.01 20.98 C 16.09 17.51 15.40 13.41 16.47 9.63 Z" />
<path fill="#ffffff" opacity="1.00" d=" M 28.25 15.26 C 30.26 13.82 33.40 15.54 33.25 18.02 C 33.34 20.45 30.31 22.13 28.30 20.76 C 26.28 19.67 26.24 16.38 28.25 15.26 Z" />
</g>
<g id="#000000ff">
<path fill="#000000" opacity="1.00" d=" M 25.08 7.76 C 27.90 7.79 30.24 5.28 33.12 6.17 C 36.14 6.68 37.99 9.39 38.81 12.14 C 40.73 13.91 42.49 16.31 41.88 19.10 C 41.60 22.45 38.10 23.88 36.75 26.69 C 34.98 29.94 30.26 31.00 27.24 28.86 C 24.76 27.09 21.03 27.48 19.31 24.61 C 16.93 21.78 18.98 18.17 18.62 14.95 C 18.12 11.26 21.39 7.72 25.08 7.76 M 28.25 15.26 C 26.24 16.38 26.28 19.67 28.30 20.76 C 30.31 22.13 33.34 20.45 33.25 18.02 C 33.40 15.54 30.26 13.82 28.25 15.26 Z" />
<path fill="#000000" opacity="1.00" d=" M 16.47 9.63 C 15.40 13.41 16.09 17.51 14.01 20.98 C 14.63 23.38 16.31 25.35 17.69 27.35 C 19.63 29.88 23.02 29.95 25.61 31.38 C 27.83 33.89 28.64 37.29 29.99 40.28 C 30.19 37.88 30.26 35.47 30.26 33.07 C 31.26 32.94 33.27 32.68 34.27 32.56 C 34.25 34.76 34.24 36.97 34.21 39.18 C 35.85 34.03 37.98 28.89 41.97 25.10 C 43.31 23.86 46.00 23.36 45.89 21.10 C 45.11 17.29 44.19 13.46 41.82 10.28 C 44.34 9.90 47.21 9.86 49.09 11.89 C 50.37 13.67 51.10 15.79 52.63 17.41 C 54.78 19.78 54.25 23.81 51.78 25.76 C 49.78 27.42 49.04 30.33 46.53 31.38 C 44.89 32.24 43.01 31.83 41.26 31.70 C 38.31 39.26 35.90 47.41 30.82 53.85 C 27.04 54.04 23.26 52.08 20.68 49.38 C 17.43 45.70 18.00 40.44 18.53 35.94 C 20.81 36.53 23.00 37.42 25.06 38.56 C 23.87 36.02 22.59 33.52 20.95 31.24 C 17.01 33.36 13.53 30.03 9.83 29.11 C 7.14 28.15 5.47 24.95 6.28 22.19 C 6.97 19.23 5.72 15.59 8.36 13.33 C 10.40 10.60 14.86 12.78 16.47 9.63 Z" />
</g>
</svg>
