<?xml version="1.0" encoding="UTF-8" ?>
<!DOCTYPE svg PUBLIC "-//W3C//DTD SVG 1.1//EN" "http://www.w3.org/Graphics/SVG/1.1/DTD/svg11.dtd">
<svg width="60pt" height="60pt" viewBox="0 0 60 60" version="1.1" xmlns="http://www.w3.org/2000/svg">
<g id="#ffffffff">
<path fill="#ffffff" opacity="1.00" d=" M 0.00 0.00 L 23.65 0.00 C 14.59 -0.00 7.49 10.00 10.80 18.52 C 10.93 20.82 14.35 21.30 14.79 18.94 C 14.54 16.37 13.53 13.76 14.42 11.20 C 15.77 6.02 21.76 2.77 26.85 4.43 C 29.99 5.24 32.15 7.88 33.53 10.67 C 29.97 12.65 26.73 15.79 26.18 20.02 C 25.06 25.72 28.78 31.31 33.99 33.44 C 34.01 38.95 34.00 44.47 33.99 49.99 C 34.96 51.37 35.95 52.72 37.09 53.96 C 40.16 54.46 41.75 50.54 42.20 48.03 C 41.65 47.53 40.55 46.53 39.99 46.03 C 40.50 45.51 41.50 44.49 42.01 43.97 C 41.51 43.49 40.52 42.51 40.03 42.02 C 40.52 41.53 41.50 40.53 41.99 40.03 C 41.50 39.51 40.53 38.49 40.04 37.97 C 40.53 37.48 41.50 36.49 41.99 35.99 C 42.00 35.35 42.01 34.07 42.02 33.43 C 46.55 31.49 50.13 27.07 49.97 21.98 C 50.11 16.91 46.56 12.50 42.04 10.58 C 41.49 14.18 43.56 19.49 39.59 21.64 C 36.29 23.25 33.09 19.53 34.15 16.31 C 35.41 15.82 37.22 16.22 37.91 14.76 C 38.59 7.18 32.00 0.17 24.45 0.00 L 60.00 0.00 L 60.00 60.00 L 0.00 60.00 L 0.00 0.00 M 21.03 32.08 C 18.05 36.88 15.06 41.67 12.01 46.42 C 12.14 48.11 12.19 49.81 12.50 51.49 C 14.14 53.27 16.27 51.50 18.06 50.92 C 20.12 50.21 19.57 47.88 19.20 46.27 C 19.86 46.11 21.19 45.80 21.85 45.65 C 21.69 44.97 21.37 43.63 21.21 42.96 C 21.89 42.81 23.24 42.50 23.92 42.34 C 23.77 41.66 23.48 40.30 23.33 39.62 C 24.00 39.46 25.34 39.14 26.02 38.97 C 27.04 37.36 27.88 35.30 30.18 35.55 C 21.92 31.92 19.84 20.48 24.51 13.21 C 17.72 16.72 15.90 26.38 21.03 32.08 Z" />
</g>
<g id="#000000ff">
<path fill="#968176" opacity="1.00" d=" M 23.65 0.00 L 24.45 0.00 C 32.00 0.17 38.59 7.18 37.91 14.76 C 37.22 16.22 35.41 15.82 34.15 16.31 C 33.09 19.53 36.29 23.25 39.59 21.64 C 43.56 19.49 41.49 14.18 42.04 10.58 C 46.56 12.50 50.11 16.91 49.97 21.98 C 50.13 27.07 46.55 31.49 42.02 33.43 C 42.01 34.07 42.00 35.35 41.99 35.99 C 41.50 36.49 40.53 37.48 40.04 37.97 C 40.53 38.49 41.50 39.51 41.99 40.03 C 41.50 40.53 40.52 41.53 40.03 42.02 C 40.52 42.51 41.51 43.49 42.01 43.97 C 41.50 44.49 40.50 45.51 39.99 46.03 C 40.55 46.53 41.65 47.53 42.20 48.03 C 41.75 50.54 40.16 54.46 37.09 53.96 C 35.95 52.72 34.96 51.37 33.99 49.99 C 34.00 44.47 34.01 38.95 33.99 33.44 C 28.78 31.31 25.06 25.72 26.18 20.02 C 26.73 15.79 29.97 12.65 33.53 10.67 C 32.15 7.88 29.99 5.24 26.85 4.43 C 21.76 2.77 15.77 6.02 14.42 11.20 C 13.53 13.76 14.54 16.37 14.79 18.94 C 14.35 21.30 10.93 20.82 10.80 18.52 C 7.49 10.00 14.59 -0.00 23.65 0.00 Z" />
<path fill="#968176" opacity="1.00" d=" M 21.03 32.08 C 15.90 26.38 17.72 16.72 24.51 13.21 C 19.84 20.48 21.92 31.92 30.18 35.55 C 27.88 35.30 27.04 37.36 26.02 38.97 C 25.34 39.14 24.00 39.46 23.33 39.62 C 23.48 40.30 23.77 41.66 23.92 42.34 C 23.24 42.50 21.89 42.81 21.21 42.96 C 21.37 43.63 21.69 44.97 21.85 45.65 C 21.19 45.80 19.86 46.11 19.20 46.27 C 19.57 47.88 20.12 50.21 18.06 50.92 C 16.27 51.50 14.14 53.27 12.50 51.49 C 12.19 49.81 12.14 48.11 12.01 46.42 C 15.06 41.67 18.05 36.88 21.03 32.08 Z" />
</g>
</svg>
