<?xml version="1.0" encoding="UTF-8" ?>
<!DOCTYPE svg PUBLIC "-//W3C//DTD SVG 1.1//EN" "http://www.w3.org/Graphics/SVG/1.1/DTD/svg11.dtd">
<svg width="60pt" height="60pt" viewBox="0 0 60 60" version="1.1" xmlns="http://www.w3.org/2000/svg">
<g id="#ffffffff">
<path fill="#ffffff" opacity="1.00" d=" M 0.00 0.00 L 60.00 0.00 L 60.00 60.00 L 0.00 60.00 L 0.00 0.00 M 10.11 14.85 C 9.85 20.94 10.67 27.02 11.85 32.98 C 9.64 35.33 9.96 38.57 10.25 41.52 C 9.19 42.37 7.50 43.04 8.09 44.73 C 8.78 45.64 9.75 46.10 10.97 46.11 C 11.65 48.00 11.52 50.45 13.11 51.87 C 14.68 51.99 16.24 51.71 17.81 51.58 C 18.00 47.60 18.37 43.29 21.20 40.21 C 24.83 35.63 32.07 34.64 36.70 38.26 C 40.89 41.19 42.28 46.53 42.07 51.40 C 43.66 51.61 45.27 52.12 46.89 51.86 C 48.48 50.44 48.35 48.00 49.03 46.11 C 52.39 46.50 52.85 42.37 49.75 41.52 C 50.68 37.57 49.13 33.96 47.27 30.58 C 46.14 29.12 44.30 30.72 43.60 31.82 C 40.92 31.25 37.08 31.07 36.26 27.84 C 35.67 22.31 36.15 16.71 36.01 11.15 C 38.16 10.78 40.47 9.47 42.64 10.44 C 44.32 11.77 43.52 14.50 45.11 15.90 C 46.41 16.31 48.10 15.52 47.96 13.97 C 48.35 10.00 45.24 5.86 41.06 6.01 C 37.24 6.34 33.65 7.82 30.00 8.89 C 26.38 7.83 22.81 6.37 19.02 6.02 C 14.28 5.96 10.29 10.22 10.11 14.85 M 45.13 18.11 C 42.87 19.29 44.44 22.88 46.87 21.88 C 49.14 20.70 47.55 17.13 45.13 18.11 M 45.21 24.09 C 42.83 25.16 44.40 28.89 46.85 27.89 C 49.10 26.76 47.61 23.17 45.21 24.09 M 21.86 49.84 C 27.04 47.47 32.98 47.53 38.15 49.87 C 38.23 45.21 35.09 39.93 29.95 40.02 C 24.85 40.00 21.80 45.22 21.86 49.84 Z" />
<path fill="#ffffff" opacity="1.00" d=" M 14.10 14.89 C 14.23 12.39 16.38 10.05 18.94 10.05 C 20.66 10.21 22.32 10.73 23.99 11.15 C 23.83 16.76 24.39 22.43 23.69 28.00 C 22.61 31.32 18.55 31.31 15.73 31.90 C 14.59 26.32 13.84 20.60 14.10 14.89 Z" />
</g>
<g id="#000000ff">
<path fill="#968176" opacity="1.00" d=" M 10.11 14.85 C 10.29 10.22 14.28 5.96 19.02 6.02 C 22.81 6.37 26.38 7.83 30.00 8.89 C 33.65 7.82 37.24 6.34 41.06 6.01 C 45.24 5.86 48.35 10.00 47.96 13.97 C 48.10 15.52 46.41 16.31 45.11 15.90 C 43.52 14.50 44.32 11.77 42.64 10.44 C 40.47 9.47 38.16 10.78 36.01 11.15 C 36.15 16.71 35.67 22.31 36.26 27.84 C 37.08 31.07 40.92 31.25 43.60 31.82 C 44.30 30.72 46.14 29.12 47.27 30.58 C 49.13 33.96 50.68 37.57 49.75 41.52 C 52.85 42.37 52.39 46.50 49.03 46.11 C 48.35 48.00 48.48 50.44 46.89 51.86 C 45.27 52.12 43.66 51.61 42.07 51.40 C 42.28 46.53 40.89 41.19 36.70 38.26 C 32.07 34.64 24.83 35.63 21.20 40.21 C 18.37 43.29 18.00 47.60 17.81 51.58 C 16.24 51.71 14.68 51.99 13.11 51.87 C 11.52 50.45 11.65 48.00 10.97 46.11 C 9.75 46.10 8.78 45.64 8.09 44.73 C 7.50 43.04 9.19 42.37 10.25 41.52 C 9.96 38.57 9.64 35.33 11.85 32.98 C 10.67 27.02 9.85 20.94 10.11 14.85 M 14.10 14.89 C 13.84 20.60 14.59 26.32 15.73 31.90 C 18.55 31.31 22.61 31.32 23.69 28.00 C 24.39 22.43 23.83 16.76 23.99 11.15 C 22.32 10.73 20.66 10.21 18.94 10.05 C 16.38 10.05 14.23 12.39 14.10 14.89 Z" />
<path fill="#968176" opacity="1.00" d=" M 45.13 18.11 C 47.55 17.13 49.14 20.70 46.87 21.88 C 44.44 22.88 42.87 19.29 45.13 18.11 Z" />
<path fill="#968176" opacity="1.00" d=" M 45.21 24.09 C 47.61 23.17 49.10 26.76 46.85 27.89 C 44.40 28.89 42.83 25.16 45.21 24.09 Z" />
<path fill="#968176" opacity="1.00" d=" M 21.86 49.84 C 21.80 45.22 24.85 40.00 29.95 40.02 C 35.09 39.93 38.23 45.21 38.15 49.87 C 32.98 47.53 27.04 47.47 21.86 49.84 Z" />
</g>
</svg>
