<?xml version="1.0" encoding="UTF-8" ?>
<!DOCTYPE svg PUBLIC "-//W3C//DTD SVG 1.1//EN" "http://www.w3.org/Graphics/SVG/1.1/DTD/svg11.dtd">
<svg width="60pt" height="60pt" viewBox="0 0 60 60" version="1.1" xmlns="http://www.w3.org/2000/svg">
<g id="#ffffffff">
<path fill="#ffffff" opacity="1.00" d=" M 0.00 0.00 L 60.00 0.00 L 60.00 60.00 L 0.00 60.00 L 0.00 0.00 M 3.19 12.17 C 1.20 12.93 1.91 16.16 4.05 15.93 C 20.38 16.11 36.72 15.92 53.05 16.02 C 54.71 15.85 56.91 16.52 57.93 14.76 C 58.54 12.95 56.69 11.67 55.03 12.01 C 37.76 12.09 20.46 11.79 3.19 12.17 M 4.00 19.99 C 4.00 24.00 4.00 28.00 4.00 32.01 C 21.33 32.00 38.67 31.99 56.00 32.01 C 56.00 28.00 56.00 24.00 56.00 19.99 C 38.67 20.01 21.33 20.00 4.00 19.99 M 4.00 35.99 C 4.12 40.26 3.74 44.55 4.18 48.81 C 5.41 51.46 7.55 48.63 9.15 48.03 C 23.05 47.97 36.96 47.97 50.85 48.03 C 52.45 48.64 54.59 51.45 55.82 48.81 C 56.26 44.55 55.88 40.26 56.00 35.99 C 38.67 36.01 21.33 36.00 4.00 35.99 Z" />
<path fill="#ffffff" opacity="1.00" d=" M 29.21 24.10 C 31.62 23.17 33.14 26.85 30.79 27.90 C 28.37 28.84 26.85 25.15 29.21 24.10 Z" />
<path fill="#ffffff" opacity="1.00" d=" M 29.20 40.09 C 31.62 39.17 33.14 42.84 30.79 43.90 C 28.37 44.83 26.86 41.16 29.20 40.09 Z" />
</g>
<g id="#000000ff">
<path fill="#000000" opacity="1.00" d=" M 3.19 12.17 C 20.46 11.79 37.76 12.09 55.03 12.01 C 56.69 11.67 58.54 12.95 57.93 14.76 C 56.91 16.52 54.71 15.85 53.05 16.02 C 36.72 15.92 20.38 16.11 4.05 15.93 C 1.91 16.16 1.20 12.93 3.19 12.17 Z" />
<path fill="#000000" opacity="1.00" d=" M 4.00 19.99 C 21.33 20.00 38.67 20.01 56.00 19.99 C 56.00 24.00 56.00 28.00 56.00 32.01 C 38.67 31.99 21.33 32.00 4.00 32.01 C 4.00 28.00 4.00 24.00 4.00 19.99 M 29.21 24.10 C 26.85 25.15 28.37 28.84 30.79 27.90 C 33.14 26.85 31.62 23.17 29.21 24.10 Z" />
<path fill="#000000" opacity="1.00" d=" M 4.00 35.99 C 21.33 36.00 38.67 36.01 56.00 35.99 C 55.88 40.26 56.26 44.55 55.82 48.81 C 54.59 51.45 52.45 48.64 50.85 48.03 C 36.96 47.97 23.05 47.97 9.15 48.03 C 7.55 48.63 5.41 51.46 4.18 48.81 C 3.74 44.55 4.12 40.26 4.00 35.99 M 29.20 40.09 C 26.86 41.16 28.37 44.83 30.79 43.90 C 33.14 42.84 31.62 39.17 29.20 40.09 Z" />
</g>
</svg>
