<?xml version="1.0" encoding="UTF-8" ?>
<!DOCTYPE svg PUBLIC "-//W3C//DTD SVG 1.1//EN" "http://www.w3.org/Graphics/SVG/1.1/DTD/svg11.dtd">
<svg width="64pt" height="64pt" viewBox="0 0 64 64" version="1.1" xmlns="http://www.w3.org/2000/svg">
<g id="#ffffffff">
<path fill="#ffffff" opacity="1.00" d=" M 0.00 0.00 L 64.00 0.00 L 64.00 64.00 L 0.00 64.00 L 0.00 0.00 M 8.00 8.00 C 8.00 16.00 8.00 23.99 8.00 31.99 C 8.50 31.99 9.50 32.01 10.00 32.01 C 10.00 40.01 10.00 48.00 10.00 56.00 C 16.67 56.00 23.33 56.00 30.00 56.00 C 30.00 51.33 30.00 46.67 30.00 42.00 C 31.39 42.00 32.79 42.00 34.19 41.99 C 33.95 44.86 33.92 47.96 35.60 50.45 C 39.11 56.19 47.50 57.59 53.03 54.02 C 56.97 51.60 58.81 46.49 57.63 42.07 C 56.91 38.50 54.30 35.65 53.77 32.03 C 54.33 32.02 55.44 32.00 56.00 31.99 C 56.00 23.99 56.00 15.99 56.00 8.00 C 40.00 8.00 24.00 8.00 8.00 8.00 Z" />
<path fill="#ffffff" opacity="1.00" d=" M 12.00 12.00 C 25.33 12.00 38.67 12.00 52.00 12.00 C 51.99 17.42 52.02 22.83 51.98 28.25 C 48.94 28.06 47.88 24.78 46.06 22.85 C 44.82 24.39 43.50 25.87 42.26 27.41 C 38.83 24.01 35.44 20.57 32.00 17.17 C 28.39 20.79 24.78 24.41 21.15 28.02 C 18.10 27.99 15.05 28.00 12.00 28.00 C 12.00 22.67 12.00 17.33 12.00 12.00 Z" />
<path fill="#ffffff" opacity="1.00" d=" M 22.82 32.00 C 25.89 28.95 28.95 25.89 32.01 22.83 C 34.62 25.44 37.23 28.05 39.84 30.66 C 38.32 33.03 36.90 35.46 35.66 37.98 C 32.44 38.01 29.22 38.00 26.00 38.00 C 26.00 42.67 26.00 47.33 26.00 52.00 C 22.00 52.00 18.00 52.00 14.00 52.00 C 14.00 45.33 14.00 38.67 14.00 32.00 C 16.94 32.00 19.88 32.00 22.82 32.00 M 18.00 38.00 C 18.00 40.67 18.00 43.33 18.00 46.00 C 19.33 46.00 20.67 46.00 22.00 46.00 C 22.00 43.33 22.00 40.67 22.00 38.00 C 20.67 38.00 19.33 38.00 18.00 38.00 Z" />
<path fill="#ffffff" opacity="1.00" d=" M 38.07 44.02 C 39.14 38.45 42.52 33.67 45.95 29.29 C 49.23 33.75 52.51 38.47 53.87 43.91 C 54.61 47.05 52.43 49.68 50.07 51.39 C 50.12 47.55 48.75 43.97 47.31 40.48 C 46.74 42.40 46.63 44.42 46.04 46.34 C 44.92 45.71 43.85 44.99 42.85 44.18 C 42.35 46.53 42.08 48.92 41.74 51.30 C 39.49 49.58 37.47 47.06 38.07 44.02 Z" />
</g>
<g id="#000000ff">
<path fill="#000000" opacity="1.00" d=" M 8.00 8.00 C 24.00 8.00 40.00 8.00 56.00 8.00 C 56.00 15.99 56.00 23.99 56.00 31.99 C 55.44 32.00 54.33 32.02 53.77 32.03 C 54.30 35.65 56.91 38.50 57.63 42.07 C 58.81 46.49 56.97 51.60 53.03 54.02 C 47.50 57.59 39.11 56.19 35.60 50.45 C 33.92 47.96 33.95 44.86 34.19 41.99 C 32.79 42.00 31.39 42.00 30.00 42.00 C 30.00 46.67 30.00 51.33 30.00 56.00 C 23.33 56.00 16.67 56.00 10.00 56.00 C 10.00 48.00 10.00 40.01 10.00 32.01 C 9.50 32.01 8.50 31.99 8.00 31.99 C 8.00 23.99 8.00 16.00 8.00 8.00 M 12.00 12.00 C 12.00 17.33 12.00 22.67 12.00 28.00 C 15.05 28.00 18.10 27.99 21.15 28.02 C 24.78 24.41 28.39 20.79 32.00 17.17 C 35.44 20.57 38.83 24.01 42.26 27.41 C 43.50 25.87 44.82 24.39 46.06 22.85 C 47.88 24.78 48.94 28.06 51.98 28.25 C 52.02 22.83 51.99 17.42 52.00 12.00 C 38.67 12.00 25.33 12.00 12.00 12.00 M 22.82 32.00 C 19.88 32.00 16.94 32.00 14.00 32.00 C 14.00 38.67 14.00 45.33 14.00 52.00 C 18.00 52.00 22.00 52.00 26.00 52.00 C 26.00 47.33 26.00 42.67 26.00 38.00 C 29.22 38.00 32.44 38.01 35.66 37.98 C 36.90 35.46 38.32 33.03 39.84 30.66 C 37.23 28.05 34.62 25.44 32.01 22.83 C 28.95 25.89 25.89 28.95 22.82 32.00 M 38.07 44.02 C 37.47 47.06 39.49 49.58 41.74 51.30 C 42.08 48.92 42.35 46.53 42.85 44.18 C 43.85 44.99 44.92 45.71 46.04 46.34 C 46.63 44.42 46.74 42.40 47.31 40.48 C 48.75 43.97 50.12 47.55 50.07 51.39 C 52.43 49.68 54.61 47.05 53.87 43.91 C 52.51 38.47 49.23 33.75 45.95 29.29 C 42.52 33.67 39.14 38.45 38.07 44.02 Z" />
<path fill="#000000" opacity="1.00" d=" M 18.00 38.00 C 19.33 38.00 20.67 38.00 22.00 38.00 C 22.00 40.67 22.00 43.33 22.00 46.00 C 20.67 46.00 19.33 46.00 18.00 46.00 C 18.00 43.33 18.00 40.67 18.00 38.00 Z" />
</g>
</svg>
