<?xml version="1.0" encoding="UTF-8" ?>
<!DOCTYPE svg PUBLIC "-//W3C//DTD SVG 1.1//EN" "http://www.w3.org/Graphics/SVG/1.1/DTD/svg11.dtd">
<svg width="60pt" height="60pt" viewBox="0 0 60 60" version="1.1" xmlns="http://www.w3.org/2000/svg">
<g id="#ffffffff">
<path fill="#ffffff" opacity="1.00" d=" M 0.00 0.00 L 60.00 0.00 L 60.00 60.00 L 0.00 60.00 L 0.00 0.00 M 26.28 9.49 C 24.17 13.16 26.50 17.15 26.09 21.01 C 25.74 25.28 27.01 29.42 28.01 33.51 C 26.17 37.15 23.25 40.64 23.96 45.01 C 24.34 47.22 23.08 50.28 25.15 51.83 C 28.37 52.13 31.63 52.14 34.85 51.83 C 35.09 51.58 35.59 51.08 35.83 50.83 C 36.16 47.56 36.07 44.25 35.92 40.97 C 35.85 37.44 32.49 35.25 31.82 31.94 C 31.13 28.20 29.24 24.22 31.12 20.53 C 35.89 19.57 39.35 14.07 37.42 9.45 C 35.55 4.94 28.00 4.75 26.28 9.49 Z" />
<path fill="#ffffff" opacity="1.00" d=" M 28.00 48.00 C 27.65 44.35 27.98 40.65 30.34 37.68 C 32.46 40.75 32.05 44.48 31.99 48.00 C 30.66 48.00 29.33 48.00 28.00 48.00 Z" />
</g>
<g id="#000000ff">
<path fill="#968176" opacity="1.00" d=" M 26.28 9.49 C 28.00 4.75 35.55 4.94 37.42 9.45 C 39.35 14.07 35.89 19.57 31.12 20.53 C 29.24 24.22 31.13 28.20 31.82 31.94 C 32.49 35.25 35.85 37.44 35.92 40.97 C 36.07 44.25 36.16 47.56 35.83 50.83 C 35.59 51.08 35.09 51.58 34.85 51.83 C 31.63 52.14 28.37 52.13 25.15 51.83 C 23.08 50.28 24.34 47.22 23.96 45.01 C 23.25 40.64 26.17 37.15 28.01 33.51 C 27.01 29.42 25.74 25.28 26.09 21.01 C 26.50 17.15 24.17 13.16 26.28 9.49 M 28.00 48.00 C 29.33 48.00 30.66 48.00 31.99 48.00 C 32.05 44.48 32.46 40.75 30.34 37.68 C 27.98 40.65 27.65 44.35 28.00 48.00 Z" />
</g>
</svg>
