<?xml version="1.0" encoding="UTF-8" ?>
<!DOCTYPE svg PUBLIC "-//W3C//DTD SVG 1.1//EN" "http://www.w3.org/Graphics/SVG/1.1/DTD/svg11.dtd">
<svg width="64pt" height="64pt" viewBox="0 0 64 64" version="1.1" xmlns="http://www.w3.org/2000/svg">
<g id="#ffffffff">
<path fill="#ffffff" opacity="1.00" d=" M 0.00 0.00 L 64.00 0.00 L 64.00 64.00 L 0.00 64.00 L 0.00 0.00 M 16.86 11.67 C 14.87 12.43 13.55 10.44 12.57 9.07 C 9.07 16.92 7.57 25.59 8.13 34.16 C 8.77 42.85 14.69 50.81 22.73 54.11 C 31.22 57.79 41.78 55.91 48.42 49.45 C 53.74 44.56 56.44 37.20 55.98 30.03 C 55.85 20.35 51.12 11.24 44.32 4.53 C 43.33 5.72 42.69 7.53 40.92 7.73 C 36.87 8.33 33.94 4.84 31.82 1.90 C 26.22 4.20 22.49 9.49 16.86 11.67 Z" />
<path fill="#ffffff" opacity="1.00" d=" M 29.14 12.20 C 35.03 11.35 41.27 13.24 45.61 17.34 C 50.45 21.76 52.82 28.67 51.73 35.13 C 50.63 42.90 44.45 49.61 36.82 51.40 C 29.92 53.17 22.18 50.90 17.37 45.63 C 12.52 40.55 10.77 32.79 12.90 26.10 C 15.02 18.84 21.65 13.20 29.14 12.20 M 16.91 26.39 C 17.84 26.74 19.70 27.43 20.63 27.78 C 22.15 24.65 24.58 22.11 27.77 20.64 C 27.30 19.40 26.85 18.16 26.41 16.90 C 22.12 18.71 18.72 22.11 16.91 26.39 M 29.41 26.60 C 25.47 28.29 24.83 34.27 28.35 36.73 C 31.64 39.54 37.27 37.32 37.89 33.08 C 38.95 28.51 33.54 24.33 29.41 26.60 M 36.21 43.37 C 36.56 44.30 37.26 46.16 37.61 47.09 C 41.87 45.26 45.26 41.88 47.09 37.61 C 46.16 37.26 44.31 36.56 43.38 36.21 C 41.86 39.37 39.37 41.85 36.21 43.37 Z" />
<path fill="#ffffff" opacity="1.00" d=" M 31.17 30.10 C 33.59 29.15 35.13 32.74 32.86 33.88 C 30.43 34.91 28.84 31.21 31.17 30.10 Z" />
</g>
<g id="#000000ff">
<path fill="#000000" opacity="1.00" d=" M 16.86 11.67 C 22.49 9.49 26.22 4.20 31.82 1.90 C 33.94 4.84 36.87 8.33 40.92 7.73 C 42.69 7.53 43.33 5.72 44.32 4.53 C 51.12 11.24 55.85 20.35 55.98 30.03 C 56.44 37.20 53.74 44.56 48.42 49.45 C 41.78 55.91 31.22 57.79 22.73 54.11 C 14.69 50.81 8.77 42.85 8.13 34.16 C 7.57 25.59 9.07 16.92 12.57 9.07 C 13.55 10.44 14.87 12.43 16.86 11.67 M 29.14 12.20 C 21.65 13.20 15.02 18.84 12.90 26.10 C 10.77 32.79 12.52 40.55 17.37 45.63 C 22.18 50.90 29.92 53.17 36.82 51.40 C 44.45 49.61 50.63 42.90 51.73 35.13 C 52.82 28.67 50.45 21.76 45.61 17.34 C 41.27 13.24 35.03 11.35 29.14 12.20 Z" />
<path fill="#000000" opacity="1.00" d=" M 16.91 26.39 C 18.72 22.11 22.12 18.71 26.41 16.90 C 26.85 18.16 27.30 19.40 27.77 20.64 C 24.58 22.11 22.15 24.65 20.63 27.78 C 19.70 27.43 17.84 26.74 16.91 26.39 Z" />
<path fill="#000000" opacity="1.00" d=" M 29.41 26.60 C 33.54 24.33 38.95 28.51 37.89 33.08 C 37.27 37.32 31.64 39.54 28.35 36.73 C 24.83 34.27 25.47 28.29 29.41 26.60 M 31.17 30.10 C 28.84 31.21 30.43 34.91 32.86 33.88 C 35.13 32.74 33.59 29.15 31.17 30.10 Z" />
<path fill="#000000" opacity="1.00" d=" M 36.21 43.37 C 39.37 41.85 41.86 39.37 43.38 36.21 C 44.31 36.56 46.16 37.26 47.09 37.61 C 45.26 41.88 41.87 45.26 37.61 47.09 C 37.26 46.16 36.56 44.30 36.21 43.37 Z" />
</g>
</svg>
