<?xml version="1.0" encoding="UTF-8" ?>
<!DOCTYPE svg PUBLIC "-//W3C//DTD SVG 1.1//EN" "http://www.w3.org/Graphics/SVG/1.1/DTD/svg11.dtd">
<svg width="64pt" height="64pt" viewBox="0 0 64 64" version="1.1" xmlns="http://www.w3.org/2000/svg">
<g id="#ffffffff">
<path fill="#ffffff" opacity="1.00" d=" M 0.00 0.00 L 64.00 0.00 L 64.00 64.00 L 0.00 64.00 L 0.00 0.00 M 6.01 8.00 C 5.97 13.40 5.47 18.97 7.88 23.99 C 7.26 25.96 6.42 27.88 6.09 29.92 C 6.33 33.28 7.54 36.49 7.80 39.85 C 7.37 41.98 6.55 44.01 5.87 46.07 C 7.46 50.03 9.06 53.99 10.61 57.97 C 24.86 58.04 39.10 57.98 53.35 58.00 C 54.95 54.02 56.54 50.04 58.13 46.06 C 57.45 44.00 56.63 41.98 56.20 39.85 C 56.46 36.49 57.67 33.28 57.91 29.91 C 57.57 27.87 56.75 25.96 56.12 24.00 C 58.53 18.97 58.03 13.40 57.99 8.00 C 56.66 8.00 55.32 8.00 53.99 8.00 C 54.18 13.42 54.30 18.96 51.90 23.97 C 52.59 26.62 54.32 29.24 53.55 32.05 C 53.09 34.73 52.31 37.35 52.07 40.06 C 52.42 42.08 53.25 43.99 53.86 45.94 C 52.80 48.63 51.72 51.31 50.66 53.99 C 49.10 54.00 47.55 54.00 46.00 54.00 C 46.00 50.00 46.00 46.01 46.00 42.01 C 46.50 42.00 47.50 42.00 48.00 41.99 C 48.00 39.99 48.00 38.00 48.00 36.00 C 37.33 36.00 26.67 36.00 16.00 36.00 C 16.00 38.00 16.00 39.99 16.00 41.99 C 16.50 42.00 17.50 42.00 18.00 42.01 C 18.00 46.01 18.00 50.01 18.00 54.00 C 16.45 54.00 14.90 53.99 13.35 53.99 C 12.28 51.30 11.20 48.63 10.13 45.94 C 10.76 43.99 11.57 42.09 11.93 40.06 C 11.63 36.72 10.50 33.51 10.19 30.16 C 10.61 28.04 11.44 26.03 12.11 23.98 C 9.70 18.96 9.83 13.43 10.01 8.00 C 8.68 8.00 7.34 8.00 6.01 8.00 M 22.03 7.72 C 22.01 9.15 22.00 10.58 21.99 12.01 C 23.01 12.00 25.04 11.97 26.06 11.96 C 25.01 10.27 24.52 7.66 22.03 7.72 M 30.04 11.92 C 30.03 12.94 30.00 14.99 29.99 16.01 C 31.42 16.00 32.84 15.99 34.27 15.97 C 34.37 13.46 31.73 12.97 30.04 11.92 M 16.00 18.00 C 16.00 19.33 16.00 20.67 16.00 22.00 C 17.33 22.00 18.67 22.00 20.00 22.00 C 20.00 20.01 20.00 18.01 20.00 16.02 C 18.66 16.68 17.33 17.34 16.00 18.00 M 36.00 24.00 C 38.00 24.00 40.00 24.00 42.00 24.00 C 42.00 22.67 42.00 21.33 42.00 20.00 C 40.67 20.00 39.33 20.00 38.00 20.00 C 37.33 21.33 36.67 22.66 36.00 24.00 M 26.04 19.92 C 26.03 20.94 26.00 22.99 25.99 24.01 C 27.42 24.00 28.84 23.99 30.27 23.97 C 30.35 21.47 27.74 20.97 26.04 19.92 M 30.00 28.00 C 30.00 29.33 30.00 30.67 30.00 32.00 C 32.00 32.00 34.00 32.00 36.00 32.00 C 35.33 30.66 34.66 29.33 34.00 28.00 C 32.67 28.00 31.33 28.00 30.00 28.00 Z" />
<path fill="#ffffff" opacity="1.00" d=" M 22.00 42.00 C 28.67 42.00 35.33 42.00 42.00 42.00 C 42.00 46.00 42.00 50.00 42.00 54.00 C 35.33 54.00 28.67 54.00 22.00 54.00 C 22.00 50.00 22.00 46.00 22.00 42.00 Z" />
</g>
<g id="#000000ff">
<path fill="#000000" opacity="1.00" d=" M 6.01 8.00 C 7.34 8.00 8.68 8.00 10.01 8.00 C 9.83 13.43 9.70 18.96 12.11 23.98 C 11.44 26.03 10.61 28.04 10.19 30.16 C 10.50 33.51 11.63 36.72 11.93 40.06 C 11.57 42.09 10.76 43.99 10.13 45.94 C 11.20 48.63 12.28 51.30 13.35 53.99 C 14.90 53.99 16.45 54.00 18.00 54.00 C 18.00 50.01 18.00 46.01 18.00 42.01 C 17.50 42.00 16.50 42.00 16.00 41.99 C 16.00 39.99 16.00 38.00 16.00 36.00 C 26.67 36.00 37.33 36.00 48.00 36.00 C 48.00 38.00 48.00 39.99 48.00 41.99 C 47.50 42.00 46.50 42.00 46.00 42.01 C 46.00 46.01 46.00 50.00 46.00 54.00 C 47.55 54.00 49.10 54.00 50.66 53.99 C 51.72 51.31 52.80 48.63 53.86 45.94 C 53.25 43.99 52.42 42.08 52.07 40.06 C 52.31 37.35 53.09 34.73 53.55 32.05 C 54.32 29.24 52.59 26.62 51.90 23.97 C 54.30 18.96 54.18 13.42 53.99 8.00 C 55.32 8.00 56.66 8.00 57.99 8.00 C 58.03 13.40 58.53 18.97 56.12 24.00 C 56.75 25.96 57.57 27.87 57.91 29.91 C 57.67 33.28 56.46 36.49 56.20 39.85 C 56.63 41.98 57.45 44.00 58.13 46.06 C 56.54 50.04 54.95 54.02 53.35 58.00 C 39.10 57.98 24.86 58.04 10.61 57.97 C 9.06 53.99 7.46 50.03 5.87 46.07 C 6.55 44.01 7.37 41.98 7.80 39.85 C 7.54 36.49 6.33 33.28 6.09 29.92 C 6.42 27.88 7.26 25.96 7.88 23.99 C 5.47 18.97 5.97 13.40 6.01 8.00 M 22.00 42.00 C 22.00 46.00 22.00 50.00 22.00 54.00 C 28.67 54.00 35.33 54.00 42.00 54.00 C 42.00 50.00 42.00 46.00 42.00 42.00 C 35.33 42.00 28.67 42.00 22.00 42.00 Z" />
<path fill="#000000" opacity="1.00" d=" M 22.03 7.72 C 24.52 7.66 25.01 10.27 26.06 11.96 C 25.04 11.97 23.01 12.00 21.99 12.01 C 22.00 10.58 22.01 9.15 22.03 7.72 Z" />
<path fill="#000000" opacity="1.00" d=" M 30.04 11.92 C 31.73 12.97 34.37 13.46 34.27 15.97 C 32.84 15.99 31.42 16.00 29.99 16.01 C 30.00 14.99 30.03 12.94 30.04 11.92 Z" />
<path fill="#000000" opacity="1.00" d=" M 16.00 18.00 C 17.33 17.34 18.66 16.68 20.00 16.02 C 20.00 18.01 20.00 20.01 20.00 22.00 C 18.67 22.00 17.33 22.00 16.00 22.00 C 16.00 20.67 16.00 19.33 16.00 18.00 Z" />
<path fill="#000000" opacity="1.00" d=" M 36.00 24.00 C 36.67 22.66 37.33 21.33 38.00 20.00 C 39.33 20.00 40.67 20.00 42.00 20.00 C 42.00 21.33 42.00 22.67 42.00 24.00 C 40.00 24.00 38.00 24.00 36.00 24.00 Z" />
<path fill="#000000" opacity="1.00" d=" M 26.04 19.92 C 27.74 20.97 30.35 21.47 30.27 23.97 C 28.84 23.99 27.42 24.00 25.99 24.01 C 26.00 22.99 26.03 20.94 26.04 19.92 Z" />
<path fill="#000000" opacity="1.00" d=" M 30.00 28.00 C 31.33 28.00 32.67 28.00 34.00 28.00 C 34.66 29.33 35.33 30.66 36.00 32.00 C 34.00 32.00 32.00 32.00 30.00 32.00 C 30.00 30.67 30.00 29.33 30.00 28.00 Z" />
</g>
</svg>
