<?xml version="1.0" encoding="UTF-8" ?>
<!DOCTYPE svg PUBLIC "-//W3C//DTD SVG 1.1//EN" "http://www.w3.org/Graphics/SVG/1.1/DTD/svg11.dtd">
<svg width="60pt" height="60pt" viewBox="0 0 60 60" version="1.1" xmlns="http://www.w3.org/2000/svg">
<g id="#ffffffff">
<path fill="#ffffff" opacity="1.00" d=" M 0.00 0.00 L 60.00 0.00 L 60.00 60.00 L 0.00 60.00 L 0.00 0.00 M 27.23 7.15 C 24.62 8.58 21.05 8.56 19.36 11.39 C 14.85 18.31 17.35 27.14 14.39 34.57 C 17.96 36.79 22.05 37.91 26.22 38.12 C 25.89 39.35 25.93 40.87 24.80 41.71 C 21.05 44.68 15.81 45.02 12.28 48.33 C 10.65 49.76 10.29 51.98 9.79 53.97 C 15.60 54.03 21.41 53.98 27.22 54.00 C 27.81 52.06 28.40 50.11 29.00 48.17 C 28.24 46.78 27.48 45.39 26.72 44.00 C 28.91 44.00 31.09 44.00 33.28 44.00 C 32.52 45.39 31.76 46.77 31.00 48.16 C 31.60 50.11 32.20 52.06 32.79 54.01 C 38.60 53.98 44.41 54.04 50.21 53.97 C 49.87 50.09 47.17 46.95 43.53 45.72 C 39.94 43.86 33.91 43.26 33.77 38.12 C 37.86 37.92 41.86 36.83 45.37 34.70 C 42.16 27.20 44.09 18.32 39.78 11.15 C 37.44 6.99 31.52 4.47 27.23 7.15 Z" />
</g>
<g id="#000000ff">
<path fill="#968176" opacity="1.00" d=" M 27.23 7.15 C 31.52 4.47 37.44 6.99 39.78 11.15 C 44.09 18.32 42.16 27.20 45.37 34.70 C 41.86 36.83 37.86 37.92 33.77 38.12 C 33.91 43.26 39.94 43.86 43.53 45.72 C 47.17 46.95 49.87 50.09 50.21 53.97 C 44.41 54.04 38.60 53.98 32.79 54.01 C 32.20 52.06 31.60 50.11 31.00 48.16 C 31.76 46.77 32.52 45.39 33.28 44.00 C 31.09 44.00 28.91 44.00 26.72 44.00 C 27.48 45.39 28.24 46.78 29.00 48.17 C 28.40 50.11 27.81 52.06 27.22 54.00 C 21.41 53.98 15.60 54.03 9.79 53.97 C 10.29 51.98 10.65 49.76 12.28 48.33 C 15.81 45.02 21.05 44.68 24.80 41.71 C 25.93 40.87 25.89 39.35 26.22 38.12 C 22.05 37.91 17.96 36.79 14.39 34.57 C 17.35 27.14 14.85 18.31 19.36 11.39 C 21.05 8.56 24.62 8.58 27.23 7.15 Z" />
</g>
</svg>
