<?xml version="1.0" encoding="UTF-8" ?>
<!DOCTYPE svg PUBLIC "-//W3C//DTD SVG 1.1//EN" "http://www.w3.org/Graphics/SVG/1.1/DTD/svg11.dtd">
<svg width="60pt" height="60pt" viewBox="0 0 60 60" version="1.1" xmlns="http://www.w3.org/2000/svg">
<g id="#ffffffff">
<path fill="#ffffff" opacity="1.00" d=" M 0.00 0.00 L 60.00 0.00 L 60.00 60.00 L 0.00 60.00 L 0.00 0.00 M 34.94 6.02 C 36.02 9.05 37.43 11.95 38.30 15.06 C 35.05 11.57 31.52 8.01 26.93 6.39 C 24.52 5.42 20.98 6.17 20.36 9.03 C 19.64 13.15 20.18 17.49 18.63 21.46 C 17.67 24.78 15.12 28.17 16.41 31.72 C 18.89 35.58 23.87 36.39 27.91 37.77 C 24.41 38.02 20.79 37.51 17.38 38.50 C 14.04 39.83 13.96 44.01 14.04 47.04 C 13.98 50.11 15.87 53.47 19.17 53.82 C 25.08 54.37 31.43 53.02 36.10 49.19 C 38.16 47.54 39.46 45.20 41.19 43.25 C 40.83 44.60 40.31 45.90 39.29 46.90 C 38.46 49.06 36.52 54.72 40.82 53.90 C 42.65 51.83 42.65 48.59 44.04 46.17 C 45.46 45.30 47.01 44.35 47.55 42.67 C 48.42 40.80 46.76 38.29 48.92 36.99 C 51.78 34.88 48.06 30.39 45.37 32.50 C 42.65 33.79 45.95 37.30 43.13 38.46 C 44.87 27.33 43.86 15.44 38.74 5.29 C 38.02 3.23 34.78 3.76 34.94 6.02 Z" />
<path fill="#ffffff" opacity="1.00" d=" M 26.35 14.38 C 28.82 13.03 32.08 15.24 31.99 17.98 C 32.13 21.02 28.15 23.24 25.73 21.25 C 23.14 19.70 23.62 15.50 26.35 14.38 Z" />
<path fill="#ffffff" opacity="1.00" d=" M 23.25 26.16 C 25.59 25.08 27.16 28.91 24.80 29.89 C 22.41 30.94 20.80 27.04 23.25 26.16 Z" />
<path fill="#ffffff" opacity="1.00" d=" M 21.23 44.09 C 23.64 43.17 25.10 46.83 22.82 47.88 C 20.37 48.88 18.84 45.12 21.23 44.09 Z" />
</g>
<g id="#000000ff">
<path fill="#000000" opacity="1.00" d=" M 34.94 6.02 C 34.78 3.76 38.02 3.23 38.74 5.29 C 43.86 15.44 44.87 27.33 43.13 38.46 C 45.95 37.30 42.65 33.79 45.37 32.50 C 48.06 30.39 51.78 34.88 48.92 36.99 C 46.76 38.29 48.42 40.80 47.55 42.67 C 47.01 44.35 45.46 45.30 44.04 46.17 C 42.65 48.59 42.65 51.83 40.82 53.90 C 36.52 54.72 38.46 49.06 39.29 46.90 C 40.31 45.90 40.83 44.60 41.19 43.25 C 39.46 45.20 38.16 47.54 36.10 49.19 C 31.43 53.02 25.08 54.37 19.17 53.82 C 15.87 53.47 13.98 50.11 14.04 47.04 C 13.96 44.01 14.04 39.83 17.38 38.50 C 20.79 37.51 24.41 38.02 27.91 37.77 C 23.87 36.39 18.89 35.58 16.41 31.72 C 15.12 28.17 17.67 24.78 18.63 21.46 C 20.18 17.49 19.64 13.15 20.36 9.03 C 20.98 6.17 24.52 5.42 26.93 6.39 C 31.52 8.01 35.05 11.57 38.30 15.06 C 37.43 11.95 36.02 9.05 34.94 6.02 M 26.35 14.38 C 23.62 15.50 23.14 19.70 25.73 21.25 C 28.15 23.24 32.13 21.02 31.99 17.98 C 32.08 15.24 28.82 13.03 26.35 14.38 M 23.25 26.16 C 20.80 27.04 22.41 30.94 24.80 29.89 C 27.16 28.91 25.59 25.08 23.25 26.16 M 21.23 44.09 C 18.84 45.12 20.37 48.88 22.82 47.88 C 25.10 46.83 23.64 43.17 21.23 44.09 Z" />
</g>
</svg>
