<?xml version="1.0" encoding="UTF-8" ?>
<!DOCTYPE svg PUBLIC "-//W3C//DTD SVG 1.1//EN" "http://www.w3.org/Graphics/SVG/1.1/DTD/svg11.dtd">
<svg width="60pt" height="60pt" viewBox="0 0 60 60" version="1.1" xmlns="http://www.w3.org/2000/svg">
<g id="#ffffffff">
<path fill="#ffffff" opacity="1.00" d=" M 0.00 0.00 L 60.00 0.00 L 60.00 60.00 L 0.00 60.00 L 0.00 0.00 M 5.95 14.19 C 10.61 12.06 16.09 11.15 21.00 13.01 C 26.13 14.81 29.95 19.51 31.16 24.76 C 31.69 27.71 34.09 29.67 36.01 31.77 C 35.99 23.18 36.00 14.59 36.00 6.00 C 27.01 6.11 18.00 5.79 9.02 6.15 C 5.39 7.04 5.97 11.34 5.95 14.19 M 40.00 6.00 C 40.00 22.00 40.00 38.00 40.00 54.00 C 43.64 53.90 47.29 54.22 50.93 53.86 C 53.08 53.40 54.25 51.12 54.00 49.05 C 54.01 36.34 54.00 23.62 54.00 10.91 C 54.22 8.88 53.09 6.52 50.93 6.14 C 47.30 5.78 43.64 6.10 40.00 6.00 M 23.39 28.50 C 20.07 30.41 23.47 35.81 26.64 33.49 C 29.91 31.56 26.53 26.23 23.39 28.50 M 31.99 39.14 C 31.97 41.58 32.30 44.12 31.56 46.47 C 29.98 49.58 25.74 48.41 23.31 50.34 C 22.23 51.24 22.25 52.77 21.77 53.99 C 26.52 54.01 31.26 53.99 36.00 54.00 C 36.00 48.68 36.00 43.36 36.00 38.04 C 34.66 38.40 33.33 38.77 31.99 39.14 Z" />
</g>
<g id="#000000ff">
<path fill="#968176" opacity="1.00" d=" M 5.95 14.19 C 5.97 11.34 5.39 7.04 9.02 6.15 C 18.00 5.79 27.01 6.11 36.00 6.00 C 36.00 14.59 35.99 23.18 36.01 31.77 C 34.09 29.67 31.69 27.71 31.16 24.76 C 29.95 19.51 26.13 14.81 21.00 13.01 C 16.09 11.15 10.61 12.06 5.95 14.19 Z" />
<path fill="#968176" opacity="1.00" d=" M 40.00 6.00 C 43.64 6.10 47.30 5.78 50.93 6.14 C 53.09 6.52 54.22 8.88 54.00 10.91 C 54.00 23.62 54.01 36.34 54.00 49.05 C 54.25 51.12 53.08 53.40 50.93 53.86 C 47.29 54.22 43.64 53.90 40.00 54.00 C 40.00 38.00 40.00 22.00 40.00 6.00 Z" />
<path fill="#968176" opacity="1.00" d=" M 23.39 28.50 C 26.53 26.23 29.91 31.56 26.64 33.49 C 23.47 35.81 20.07 30.41 23.39 28.50 Z" />
<path fill="#968176" opacity="1.00" d=" M 31.99 39.14 C 33.33 38.77 34.66 38.40 36.00 38.04 C 36.00 43.36 36.00 48.68 36.00 54.00 C 31.26 53.99 26.52 54.01 21.77 53.99 C 22.25 52.77 22.23 51.24 23.31 50.34 C 25.74 48.41 29.98 49.58 31.56 46.47 C 32.30 44.12 31.97 41.58 31.99 39.14 Z" />
</g>
</svg>
