<?xml version="1.0" encoding="UTF-8" ?>
<!DOCTYPE svg PUBLIC "-//W3C//DTD SVG 1.1//EN" "http://www.w3.org/Graphics/SVG/1.1/DTD/svg11.dtd">
<svg width="60pt" height="60pt" viewBox="0 0 60 60" version="1.1" xmlns="http://www.w3.org/2000/svg">
<g id="#ffffffff">
<path fill="#ffffff" opacity="1.00" d=" M 0.00 0.00 L 60.00 0.00 L 60.00 60.00 L 0.00 60.00 L 0.00 0.00 M 2.02 10.94 C 2.31 15.88 4.58 20.38 6.04 25.03 C 7.08 27.59 7.99 31.04 11.02 31.85 C 14.73 32.14 18.48 31.94 22.18 32.40 C 18.03 32.77 13.40 33.18 10.20 36.19 C 7.57 39.00 7.48 43.46 8.89 46.87 C 10.82 51.02 15.89 52.03 20.03 51.97 C 22.46 52.09 24.01 49.91 25.13 48.06 C 27.31 44.39 29.76 40.62 30.01 36.22 C 30.21 40.61 32.69 44.39 34.86 48.05 C 35.97 49.92 37.53 52.10 39.98 51.97 C 44.11 52.02 49.17 51.01 51.10 46.87 C 52.52 43.46 52.42 38.99 49.78 36.18 C 46.68 33.29 42.23 32.76 38.20 32.37 C 41.79 31.95 45.42 32.14 49.01 31.84 C 52.01 31.00 52.92 27.58 53.96 25.03 C 55.42 20.36 57.70 15.84 57.97 10.88 C 57.95 8.46 55.04 7.33 53.09 8.41 C 48.17 10.33 43.79 13.41 39.72 16.73 C 35.73 20.11 31.57 23.85 30.00 29.02 C 28.14 23.14 23.17 19.07 18.56 15.32 C 14.70 12.45 10.64 9.60 6.01 8.15 C 4.17 7.49 2.00 8.96 2.02 10.94 Z" />
</g>
<g id="#000000ff">
<path fill="#000000" opacity="1.00" d=" M 2.02 10.94 C 2.00 8.96 4.17 7.49 6.01 8.15 C 10.64 9.60 14.70 12.45 18.56 15.32 C 23.17 19.07 28.14 23.14 30.00 29.02 C 31.57 23.85 35.73 20.11 39.72 16.73 C 43.79 13.41 48.17 10.33 53.09 8.41 C 55.04 7.33 57.95 8.46 57.97 10.88 C 57.70 15.84 55.42 20.36 53.96 25.03 C 52.92 27.58 52.01 31.00 49.01 31.84 C 45.42 32.14 41.79 31.95 38.20 32.37 C 42.23 32.76 46.68 33.29 49.78 36.18 C 52.42 38.99 52.52 43.46 51.10 46.87 C 49.17 51.01 44.11 52.02 39.98 51.97 C 37.53 52.10 35.97 49.92 34.86 48.05 C 32.69 44.39 30.21 40.61 30.01 36.22 C 29.76 40.62 27.31 44.39 25.13 48.06 C 24.01 49.91 22.46 52.09 20.03 51.97 C 15.89 52.03 10.82 51.02 8.89 46.87 C 7.48 43.46 7.57 39.00 10.20 36.19 C 13.40 33.18 18.03 32.77 22.18 32.40 C 18.48 31.94 14.73 32.14 11.02 31.85 C 7.99 31.04 7.08 27.59 6.04 25.03 C 4.58 20.38 2.31 15.88 2.02 10.94 Z" />
</g>
</svg>
