<?xml version="1.0" encoding="UTF-8" ?>
<!DOCTYPE svg PUBLIC "-//W3C//DTD SVG 1.1//EN" "http://www.w3.org/Graphics/SVG/1.1/DTD/svg11.dtd">
<svg width="60pt" height="60pt" viewBox="0 0 60 60" version="1.1" xmlns="http://www.w3.org/2000/svg">
<g id="#ffffffff">
<path fill="#ffffff" opacity="1.00" d=" M 0.00 0.00 L 60.00 0.00 L 60.00 60.00 L 0.00 60.00 L 0.00 0.00 M 18.19 4.13 C 16.19 8.00 15.77 12.62 16.82 16.83 C 12.72 16.04 6.73 15.61 3.90 19.06 C 5.81 21.46 9.05 22.62 11.97 23.32 C 13.30 22.63 14.33 21.50 15.35 20.42 C 14.40 22.25 12.45 24.72 14.48 26.60 C 16.29 29.15 20.41 27.71 21.13 25.00 C 21.09 23.03 20.15 21.24 19.44 19.44 C 21.23 20.15 23.02 21.08 24.99 21.13 C 27.73 20.43 29.16 16.25 26.57 14.45 C 24.63 12.43 22.15 14.47 20.29 15.43 C 21.39 14.39 22.53 13.34 23.35 12.05 C 22.82 9.16 21.37 6.51 19.67 4.14 C 19.30 4.14 18.56 4.13 18.19 4.13 M 46.07 13.05 C 32.40 25.42 18.71 37.77 5.08 50.18 C 3.67 51.05 3.71 53.11 5.16 53.92 C 6.79 54.29 7.90 52.94 9.01 52.02 C 16.28 45.36 23.64 38.80 30.91 32.15 C 37.36 35.14 43.95 38.07 49.51 42.59 C 50.50 43.15 51.55 44.45 52.81 43.85 C 54.34 43.17 53.87 41.33 53.97 40.02 C 53.66 31.00 52.97 21.77 49.78 13.26 C 49.29 11.47 46.98 11.87 46.07 13.05 Z" />
<path fill="#ffffff" opacity="1.00" d=" M 34.14 29.23 C 38.42 25.38 42.68 21.51 46.95 17.65 C 47.32 19.01 47.69 20.38 48.06 21.74 C 47.51 22.06 46.42 22.70 45.87 23.02 C 45.88 24.87 47.03 25.97 48.79 26.27 C 48.96 27.52 49.14 28.76 49.32 30.01 C 48.08 29.92 45.81 30.24 46.07 31.98 C 45.81 34.06 48.25 34.00 49.63 33.63 C 49.67 35.06 49.72 36.48 49.77 37.91 C 44.87 34.48 39.60 31.64 34.14 29.23 M 41.16 26.09 C 38.86 27.25 40.43 30.87 42.84 29.87 C 45.15 28.76 43.57 25.15 41.16 26.09 Z" />
</g>
<g id="#000000ff">
<path fill="#968176" opacity="1.00" d=" M 18.19 4.13 C 18.56 4.13 19.30 4.14 19.67 4.14 C 21.37 6.51 22.82 9.16 23.35 12.05 C 22.53 13.34 21.39 14.39 20.29 15.43 C 22.15 14.47 24.63 12.43 26.57 14.45 C 29.16 16.25 27.73 20.43 24.99 21.13 C 23.02 21.08 21.23 20.15 19.44 19.44 C 20.15 21.24 21.09 23.03 21.13 25.00 C 20.41 27.71 16.29 29.15 14.48 26.60 C 12.45 24.72 14.40 22.25 15.35 20.42 C 14.33 21.50 13.30 22.63 11.97 23.32 C 9.05 22.62 5.81 21.46 3.90 19.06 C 6.73 15.61 12.72 16.04 16.82 16.83 C 15.77 12.62 16.19 8.00 18.19 4.13 Z" />
<path fill="#968176" opacity="1.00" d=" M 46.07 13.05 C 46.98 11.87 49.29 11.47 49.78 13.26 C 52.97 21.77 53.66 31.00 53.97 40.02 C 53.87 41.33 54.34 43.17 52.81 43.85 C 51.55 44.45 50.50 43.15 49.51 42.59 C 43.95 38.07 37.36 35.14 30.91 32.15 C 23.64 38.80 16.28 45.36 9.01 52.02 C 7.90 52.94 6.79 54.29 5.16 53.92 C 3.71 53.11 3.67 51.05 5.08 50.18 C 18.71 37.77 32.40 25.42 46.07 13.05 M 34.14 29.23 C 39.60 31.64 44.87 34.48 49.77 37.91 C 49.72 36.48 49.67 35.06 49.63 33.63 C 48.25 34.00 45.81 34.06 46.07 31.98 C 45.81 30.24 48.08 29.92 49.32 30.01 C 49.14 28.76 48.96 27.52 48.79 26.27 C 47.03 25.97 45.88 24.87 45.87 23.02 C 46.42 22.70 47.51 22.06 48.06 21.74 C 47.69 20.38 47.32 19.01 46.95 17.65 C 42.68 21.51 38.42 25.38 34.14 29.23 Z" />
<path fill="#968176" opacity="1.00" d=" M 41.16 26.09 C 43.57 25.15 45.15 28.76 42.84 29.87 C 40.43 30.87 38.86 27.25 41.16 26.09 Z" />
</g>
</svg>
