<?xml version="1.0" encoding="UTF-8" ?>
<!DOCTYPE svg PUBLIC "-//W3C//DTD SVG 1.1//EN" "http://www.w3.org/Graphics/SVG/1.1/DTD/svg11.dtd">
<svg width="60pt" height="60pt" viewBox="0 0 60 60" version="1.1" xmlns="http://www.w3.org/2000/svg">
<g id="#ffffffff">
<path fill="#ffffff" opacity="1.00" d=" M 0.00 0.00 L 60.00 0.00 L 60.00 60.00 L 0.00 60.00 L 0.00 0.00 M 26.59 4.48 C 25.02 5.17 23.35 5.84 22.16 7.12 C 21.85 10.07 22.00 13.04 22.01 16.00 C 18.30 16.08 14.58 15.79 10.88 16.15 C 7.71 16.59 5.66 19.88 6.00 22.95 C 6.10 32.27 5.77 41.60 6.17 50.91 C 7.77 52.45 9.90 53.32 11.98 54.00 C 13.38 53.59 14.68 52.91 16.00 52.32 C 17.32 52.92 18.63 53.59 20.03 53.99 C 21.48 53.57 22.84 52.91 24.23 52.34 C 25.47 52.92 26.69 53.57 28.00 54.01 C 29.95 53.39 31.71 52.07 33.80 52.01 C 40.15 51.82 46.51 52.28 52.84 51.83 C 53.09 51.58 53.59 51.08 53.83 50.83 C 54.26 44.89 53.85 38.92 54.03 32.97 C 53.79 31.38 54.56 29.16 52.87 28.17 C 46.59 27.75 40.29 28.12 34.00 28.00 C 33.96 25.70 33.90 23.39 34.17 21.09 C 34.85 19.72 37.22 19.51 37.61 21.22 C 38.08 22.77 39.55 25.12 41.35 23.47 C 43.24 20.60 40.27 16.61 37.17 16.17 C 33.46 15.78 29.73 16.07 26.01 16.00 C 25.99 13.73 25.88 11.46 26.10 9.20 C 28.03 7.34 29.93 9.92 32.01 9.88 C 33.38 9.52 34.65 8.84 35.95 8.28 C 37.28 8.90 38.59 9.58 40.00 10.00 C 41.40 9.58 42.70 8.90 44.02 8.29 C 44.51 8.52 45.50 8.98 46.00 9.21 C 46.13 13.76 45.72 18.34 46.20 22.88 C 46.99 24.73 50.09 24.11 49.91 22.04 C 50.05 17.07 50.16 12.08 49.83 7.13 C 48.27 5.52 46.08 4.69 43.99 4.00 C 42.60 4.42 41.31 5.09 40.00 5.69 C 37.37 3.79 34.43 3.88 31.76 5.66 C 30.10 5.09 28.37 3.32 26.59 4.48 Z" />
<path fill="#ffffff" opacity="1.00" d=" M 10.07 22.00 C 9.87 20.39 11.67 19.82 12.95 20.02 C 18.83 19.92 24.71 20.08 30.59 19.97 C 29.18 29.47 30.51 39.21 29.90 48.80 C 27.70 50.98 25.53 47.17 23.15 48.37 C 22.10 48.77 21.08 49.26 20.05 49.72 C 18.72 49.11 17.41 48.42 16.00 48.00 C 14.60 48.42 13.30 49.10 11.97 49.72 C 11.48 49.48 10.49 49.02 10.00 48.79 C 10.06 39.86 9.88 30.92 10.07 22.00 Z" />
<path fill="#ffffff" opacity="1.00" d=" M 44.00 32.00 C 46.00 32.00 48.00 32.00 50.00 32.00 C 50.00 37.33 50.00 42.67 50.00 48.00 C 48.00 48.00 46.00 48.00 44.00 48.00 C 44.00 42.67 44.00 37.33 44.00 32.00 Z" />
</g>
<g id="#000000ff">
<path fill="#000000" opacity="1.00" d=" M 26.59 4.48 C 28.37 3.32 30.10 5.09 31.76 5.66 C 34.43 3.88 37.37 3.79 40.00 5.69 C 41.31 5.09 42.60 4.42 43.99 4.00 C 46.08 4.69 48.27 5.52 49.83 7.13 C 50.16 12.08 50.05 17.07 49.91 22.04 C 50.09 24.11 46.99 24.73 46.20 22.88 C 45.72 18.34 46.13 13.76 46.00 9.21 C 45.50 8.98 44.51 8.52 44.02 8.29 C 42.70 8.90 41.40 9.58 40.00 10.00 C 38.59 9.58 37.28 8.90 35.95 8.28 C 34.65 8.84 33.38 9.52 32.01 9.88 C 29.93 9.92 28.03 7.34 26.10 9.20 C 25.88 11.46 25.99 13.73 26.01 16.00 C 29.73 16.07 33.46 15.78 37.17 16.17 C 40.27 16.61 43.24 20.60 41.35 23.47 C 39.55 25.12 38.08 22.77 37.61 21.22 C 37.22 19.51 34.85 19.72 34.17 21.09 C 33.90 23.39 33.96 25.70 34.00 28.00 C 40.29 28.12 46.59 27.75 52.87 28.17 C 54.56 29.16 53.79 31.38 54.03 32.97 C 53.85 38.92 54.26 44.89 53.83 50.83 C 53.59 51.08 53.09 51.58 52.84 51.83 C 46.51 52.28 40.15 51.82 33.80 52.01 C 31.71 52.07 29.95 53.39 28.00 54.01 C 26.69 53.57 25.47 52.92 24.23 52.34 C 22.84 52.91 21.48 53.57 20.03 53.99 C 18.63 53.59 17.32 52.92 16.00 52.32 C 14.68 52.91 13.38 53.59 11.98 54.00 C 9.90 53.32 7.77 52.45 6.17 50.91 C 5.77 41.60 6.10 32.27 6.00 22.95 C 5.66 19.88 7.71 16.59 10.88 16.15 C 14.58 15.79 18.30 16.08 22.01 16.00 C 22.00 13.04 21.85 10.07 22.16 7.12 C 23.35 5.84 25.02 5.17 26.59 4.48 M 10.07 22.00 C 9.88 30.92 10.06 39.86 10.00 48.79 C 10.49 49.02 11.48 49.48 11.97 49.72 C 13.30 49.10 14.60 48.42 16.00 48.00 C 17.41 48.42 18.72 49.11 20.05 49.72 C 21.08 49.26 22.10 48.77 23.15 48.37 C 25.53 47.17 27.70 50.98 29.90 48.80 C 30.51 39.21 29.18 29.47 30.59 19.97 C 24.71 20.08 18.83 19.92 12.95 20.02 C 11.67 19.82 9.87 20.39 10.07 22.00 M 44.00 32.00 C 44.00 37.33 44.00 42.67 44.00 48.00 C 46.00 48.00 48.00 48.00 50.00 48.00 C 50.00 42.67 50.00 37.33 50.00 32.00 C 48.00 32.00 46.00 32.00 44.00 32.00 Z" />
</g>
</svg>
