<?xml version="1.0" encoding="UTF-8" ?>
<!DOCTYPE svg PUBLIC "-//W3C//DTD SVG 1.1//EN" "http://www.w3.org/Graphics/SVG/1.1/DTD/svg11.dtd">
<svg width="60pt" height="60pt" viewBox="0 0 60 60" version="1.1" xmlns="http://www.w3.org/2000/svg">
<g id="#ffffffff">
<path fill="#ffffff" opacity="1.00" d=" M 0.00 0.00 L 60.00 0.00 L 60.00 60.00 L 0.00 60.00 L 0.00 0.00 M 26.59 4.47 C 25.04 5.20 23.33 5.84 22.15 7.12 C 21.83 10.07 22.04 13.04 22.00 16.00 C 18.30 16.07 14.58 15.81 10.88 16.14 C 7.71 16.60 5.65 19.88 6.00 22.96 C 6.10 32.27 5.79 41.60 6.15 50.90 C 7.77 52.43 9.91 53.32 11.99 54.00 C 13.39 53.59 14.68 52.91 16.00 52.31 C 17.33 52.91 18.63 53.61 20.05 53.99 C 21.49 53.58 22.84 52.90 24.22 52.33 C 25.47 52.91 26.68 53.59 28.00 54.01 C 29.79 53.46 31.43 52.52 33.13 51.74 C 40.39 53.50 48.22 47.54 47.96 39.98 C 48.18 32.75 41.03 26.98 33.99 28.05 C 34.42 25.50 32.92 21.96 35.19 20.12 C 38.47 18.83 37.57 25.22 40.79 23.80 C 43.53 21.93 41.03 17.63 38.57 16.61 C 34.53 15.37 30.17 16.25 26.00 16.00 C 26.01 13.72 25.90 11.44 26.09 9.17 C 28.05 7.38 29.91 9.84 31.98 9.93 C 33.35 9.50 34.63 8.84 35.96 8.28 C 37.28 8.89 38.58 9.59 39.99 10.00 C 41.40 9.59 42.70 8.90 44.02 8.28 C 44.52 8.51 45.50 8.97 45.99 9.20 C 46.12 13.75 45.75 18.33 46.19 22.87 C 46.97 24.73 50.09 24.12 49.92 22.04 C 50.03 17.08 50.15 12.10 49.85 7.15 C 48.29 5.55 46.08 4.69 43.99 4.00 C 42.60 4.41 41.31 5.09 40.00 5.69 C 38.68 5.09 37.39 4.39 35.99 4.00 C 34.53 4.41 33.17 5.10 31.78 5.67 C 30.12 5.09 28.37 3.30 26.59 4.47 M 47.16 28.17 C 49.82 31.55 52.15 35.51 51.99 39.97 C 52.16 44.44 49.84 48.43 47.16 51.82 C 52.04 49.98 56.13 45.46 55.97 40.02 C 56.15 34.56 52.06 30.01 47.16 28.17 Z" />
<path fill="#ffffff" opacity="1.00" d=" M 10.06 21.98 C 9.87 20.42 11.63 19.82 12.88 20.01 C 18.77 19.95 24.67 20.05 30.56 19.98 C 29.23 29.51 30.46 39.24 29.91 48.84 C 27.93 50.67 26.06 48.05 23.97 48.10 C 22.61 48.52 21.35 49.16 20.05 49.72 C 18.72 49.11 17.42 48.41 16.01 48.00 C 14.60 48.40 13.30 49.10 11.97 49.72 C 11.48 49.49 10.50 49.03 10.01 48.80 C 10.05 39.86 9.90 30.92 10.06 21.98 Z" />
</g>
<g id="#000000ff">
<path fill="#000000" opacity="1.00" d=" M 26.59 4.47 C 28.37 3.30 30.12 5.09 31.78 5.67 C 33.17 5.10 34.53 4.41 35.99 4.00 C 37.39 4.39 38.68 5.09 40.00 5.69 C 41.31 5.09 42.60 4.41 43.99 4.00 C 46.08 4.69 48.29 5.55 49.85 7.15 C 50.15 12.10 50.03 17.08 49.92 22.04 C 50.09 24.12 46.97 24.73 46.19 22.87 C 45.75 18.33 46.12 13.75 45.99 9.20 C 45.50 8.97 44.52 8.51 44.02 8.28 C 42.70 8.90 41.40 9.59 39.99 10.00 C 38.58 9.59 37.28 8.89 35.96 8.28 C 34.63 8.84 33.35 9.50 31.98 9.93 C 29.91 9.84 28.05 7.38 26.09 9.17 C 25.90 11.44 26.01 13.72 26.00 16.00 C 30.17 16.25 34.53 15.37 38.57 16.61 C 41.03 17.63 43.53 21.93 40.79 23.80 C 37.57 25.22 38.47 18.83 35.19 20.12 C 32.92 21.96 34.42 25.50 33.99 28.05 C 41.03 26.98 48.18 32.75 47.96 39.98 C 48.22 47.54 40.39 53.50 33.13 51.74 C 31.43 52.52 29.79 53.46 28.00 54.01 C 26.68 53.59 25.47 52.91 24.22 52.33 C 22.84 52.90 21.49 53.58 20.05 53.99 C 18.63 53.61 17.33 52.91 16.00 52.31 C 14.68 52.91 13.39 53.59 11.99 54.00 C 9.91 53.32 7.77 52.43 6.15 50.90 C 5.79 41.60 6.10 32.27 6.00 22.96 C 5.65 19.88 7.71 16.60 10.88 16.14 C 14.58 15.81 18.30 16.07 22.00 16.00 C 22.04 13.04 21.83 10.07 22.15 7.12 C 23.33 5.84 25.04 5.20 26.59 4.47 M 10.06 21.98 C 9.90 30.92 10.05 39.86 10.01 48.80 C 10.50 49.03 11.48 49.49 11.97 49.72 C 13.30 49.10 14.60 48.40 16.01 48.00 C 17.42 48.41 18.72 49.11 20.05 49.72 C 21.35 49.16 22.61 48.52 23.97 48.10 C 26.06 48.05 27.93 50.67 29.91 48.84 C 30.46 39.24 29.23 29.51 30.56 19.98 C 24.67 20.05 18.77 19.95 12.88 20.01 C 11.63 19.82 9.87 20.42 10.06 21.98 Z" />
<path fill="#000000" opacity="1.00" d=" M 47.16 28.17 C 52.06 30.01 56.15 34.56 55.97 40.02 C 56.13 45.46 52.04 49.98 47.16 51.82 C 49.84 48.43 52.16 44.44 51.99 39.97 C 52.15 35.51 49.82 31.55 47.16 28.17 Z" />
</g>
</svg>
