<?xml version="1.0" encoding="UTF-8" ?>
<!DOCTYPE svg PUBLIC "-//W3C//DTD SVG 1.1//EN" "http://www.w3.org/Graphics/SVG/1.1/DTD/svg11.dtd">
<svg width="60pt" height="60pt" viewBox="0 0 60 60" version="1.1" xmlns="http://www.w3.org/2000/svg">
<g id="#ffffffff">
<path fill="#ffffff" opacity="1.00" d=" M 0.00 0.00 L 60.00 0.00 L 60.00 60.00 L 0.00 60.00 L 0.00 0.00 M 26.65 4.45 C 25.07 5.17 23.34 5.81 22.16 7.13 C 21.84 10.08 22.01 13.05 22.01 16.00 C 18.34 16.08 14.65 15.80 10.99 16.14 C 8.26 16.47 6.03 19.05 6.06 21.80 C 5.93 30.90 6.01 40.01 6.02 49.12 C 5.53 51.88 8.81 52.58 10.69 53.56 C 12.52 54.64 14.29 52.86 16.00 52.31 C 17.33 52.92 18.63 53.61 20.04 54.00 C 21.48 53.56 22.84 52.91 24.23 52.34 C 25.47 52.92 26.68 53.57 27.98 54.01 C 29.78 53.44 31.45 52.54 33.15 51.75 C 36.69 52.27 40.51 51.77 43.35 49.43 C 48.28 45.78 49.45 38.16 45.84 33.19 C 43.30 29.31 38.49 27.63 34.00 28.04 C 34.42 25.53 32.87 21.82 35.26 20.15 C 38.44 18.87 37.56 25.07 40.69 23.85 C 43.58 22.05 41.07 17.62 38.56 16.61 C 34.52 15.37 30.17 16.25 26.01 16.00 C 25.99 13.73 25.89 11.46 26.09 9.19 C 28.04 7.30 29.93 9.95 32.01 9.89 C 33.38 9.52 34.65 8.84 35.95 8.28 C 37.28 8.89 38.59 9.58 39.99 10.01 C 41.39 9.59 42.70 8.90 44.02 8.28 C 44.51 8.51 45.50 8.97 46.00 9.21 C 46.12 13.75 45.73 18.31 46.19 22.84 C 46.96 24.77 50.15 24.10 49.92 21.97 C 50.04 17.04 50.16 12.07 49.84 7.14 C 48.29 5.52 46.08 4.70 44.00 4.00 C 42.61 4.41 41.32 5.09 40.00 5.69 C 38.68 5.09 37.39 4.41 36.00 4.00 C 34.54 4.43 33.17 5.09 31.77 5.66 C 30.12 5.12 28.42 3.31 26.65 4.45 M 47.14 28.18 C 49.83 31.55 52.15 35.52 51.99 39.99 C 52.15 44.46 49.84 48.44 47.14 51.81 C 52.04 49.99 56.13 45.46 55.97 40.02 C 56.15 34.56 52.06 30.00 47.14 28.18 Z" />
<path fill="#ffffff" opacity="1.00" d=" M 11.18 20.15 C 17.64 19.75 24.13 20.16 30.60 19.97 C 29.16 29.47 30.51 39.22 29.91 48.81 C 27.96 50.69 26.07 48.06 24.00 48.11 C 22.62 48.48 21.35 49.16 20.05 49.72 C 18.72 49.11 17.41 48.42 16.00 48.00 C 14.60 48.41 13.30 49.10 11.99 49.72 C 11.49 49.49 10.50 49.03 10.00 48.80 C 10.11 39.59 9.77 30.36 10.16 21.16 C 10.42 20.91 10.93 20.40 11.18 20.15 Z" />
<path fill="#ffffff" opacity="1.00" d=" M 35.13 34.10 C 36.31 33.80 37.20 34.15 37.83 35.15 C 38.15 38.38 38.15 41.65 37.82 44.88 C 36.98 46.73 33.85 46.09 34.07 43.98 C 34.33 40.79 32.89 36.68 35.13 34.10 Z" />
</g>
<g id="#000000ff">
<path fill="#000000" opacity="1.00" d=" M 26.65 4.45 C 28.42 3.31 30.12 5.12 31.77 5.66 C 33.17 5.09 34.54 4.43 36.00 4.00 C 37.39 4.41 38.68 5.09 40.00 5.69 C 41.32 5.09 42.61 4.41 44.00 4.00 C 46.08 4.70 48.29 5.52 49.84 7.14 C 50.16 12.07 50.04 17.04 49.92 21.97 C 50.15 24.10 46.96 24.77 46.19 22.84 C 45.73 18.31 46.12 13.75 46.00 9.21 C 45.50 8.97 44.51 8.51 44.02 8.28 C 42.70 8.90 41.39 9.59 39.99 10.01 C 38.59 9.58 37.28 8.89 35.95 8.28 C 34.65 8.84 33.38 9.52 32.01 9.89 C 29.93 9.95 28.04 7.30 26.09 9.19 C 25.89 11.46 25.99 13.73 26.01 16.00 C 30.17 16.25 34.52 15.37 38.56 16.61 C 41.07 17.62 43.58 22.05 40.69 23.85 C 37.56 25.07 38.44 18.87 35.26 20.15 C 32.87 21.82 34.42 25.53 34.00 28.04 C 38.49 27.63 43.30 29.31 45.84 33.19 C 49.45 38.16 48.28 45.78 43.35 49.43 C 40.51 51.77 36.69 52.27 33.15 51.75 C 31.45 52.54 29.78 53.44 27.98 54.01 C 26.68 53.57 25.47 52.92 24.23 52.34 C 22.84 52.91 21.48 53.56 20.04 54.00 C 18.63 53.61 17.33 52.92 16.00 52.31 C 14.29 52.86 12.52 54.64 10.69 53.56 C 8.81 52.58 5.53 51.88 6.02 49.12 C 6.01 40.01 5.93 30.90 6.06 21.80 C 6.03 19.05 8.26 16.47 10.99 16.14 C 14.65 15.80 18.34 16.08 22.01 16.00 C 22.01 13.05 21.84 10.08 22.16 7.13 C 23.34 5.81 25.07 5.17 26.65 4.45 M 11.18 20.15 C 10.93 20.40 10.42 20.91 10.16 21.16 C 9.77 30.36 10.11 39.59 10.00 48.80 C 10.50 49.03 11.49 49.49 11.99 49.72 C 13.30 49.10 14.60 48.41 16.00 48.00 C 17.41 48.42 18.72 49.11 20.05 49.72 C 21.35 49.16 22.62 48.48 24.00 48.11 C 26.07 48.06 27.96 50.69 29.91 48.81 C 30.51 39.22 29.16 29.47 30.60 19.97 C 24.13 20.16 17.64 19.75 11.18 20.15 M 35.13 34.10 C 32.89 36.68 34.33 40.79 34.07 43.98 C 33.85 46.09 36.98 46.73 37.82 44.88 C 38.15 41.65 38.15 38.38 37.83 35.15 C 37.20 34.15 36.31 33.80 35.13 34.10 Z" />
<path fill="#000000" opacity="1.00" d=" M 47.14 28.18 C 52.06 30.00 56.15 34.56 55.97 40.02 C 56.13 45.46 52.04 49.99 47.14 51.81 C 49.84 48.44 52.15 44.46 51.99 39.99 C 52.15 35.52 49.83 31.55 47.14 28.18 Z" />
</g>
</svg>
