<?xml version="1.0" encoding="UTF-8" ?>
<!DOCTYPE svg PUBLIC "-//W3C//DTD SVG 1.1//EN" "http://www.w3.org/Graphics/SVG/1.1/DTD/svg11.dtd">
<svg width="64pt" height="64pt" viewBox="0 0 64 64" version="1.1" xmlns="http://www.w3.org/2000/svg">
<g id="#ffffffff">
<path fill="#ffffff" opacity="1.00" d=" M 0.00 0.00 L 64.00 0.00 L 64.00 64.00 L 0.00 64.00 L 0.00 0.00 M 6.13 16.77 C 7.44 18.88 10.40 17.70 12.46 18.03 C 14.27 25.12 15.89 32.26 17.84 39.30 C 18.76 42.39 22.46 42.06 25.02 42.14 C 20.68 42.71 18.44 48.28 21.26 51.64 C 23.73 55.16 29.72 54.52 31.40 50.56 C 33.28 46.99 30.62 42.70 26.85 42.00 C 32.28 42.01 37.70 42.02 43.12 41.99 C 39.36 42.72 36.72 46.98 38.59 50.56 C 40.27 54.50 46.23 55.17 48.71 51.67 C 51.55 48.47 49.38 42.33 44.86 42.44 C 46.86 42.02 49.54 41.69 50.16 39.33 C 52.10 32.94 53.68 26.43 55.50 20.00 C 54.10 20.00 52.70 20.00 51.30 20.02 C 49.75 26.00 48.06 31.94 46.56 37.94 C 38.23 38.08 29.90 37.96 21.57 38.00 C 19.71 30.92 18.13 23.76 16.16 16.71 C 15.07 13.26 10.77 13.95 7.97 14.06 C 6.57 13.89 5.63 15.56 6.13 16.77 M 32.00 14.00 C 32.00 17.33 32.00 20.67 32.00 24.00 C 30.01 24.00 28.03 24.00 26.04 24.01 C 28.69 26.67 31.37 29.31 34.00 32.00 C 36.66 29.33 39.33 26.67 41.99 24.00 C 39.99 24.00 38.00 24.00 36.00 24.00 C 36.00 20.67 36.00 17.33 36.00 14.00 C 34.67 14.00 33.33 14.00 32.00 14.00 Z" />
<path fill="#ffffff" opacity="1.00" d=" M 25.15 46.10 C 27.58 45.12 29.14 48.75 26.85 49.88 C 24.44 50.90 22.85 47.25 25.15 46.10 Z" />
<path fill="#ffffff" opacity="1.00" d=" M 43.16 46.11 C 45.56 45.09 47.22 48.87 44.79 49.84 C 42.42 50.95 40.84 47.13 43.16 46.11 Z" />
</g>
<g id="#000000ff">
<path fill="#000000" opacity="1.00" d=" M 6.13 16.77 C 5.63 15.56 6.57 13.89 7.97 14.06 C 10.77 13.95 15.07 13.26 16.16 16.71 C 18.13 23.76 19.71 30.92 21.57 38.00 C 29.90 37.96 38.23 38.08 46.56 37.94 C 48.06 31.94 49.75 26.00 51.30 20.02 C 52.70 20.00 54.10 20.00 55.50 20.00 C 53.68 26.43 52.10 32.94 50.16 39.33 C 49.54 41.69 46.86 42.02 44.86 42.44 C 49.38 42.33 51.55 48.47 48.71 51.67 C 46.23 55.17 40.27 54.50 38.59 50.56 C 36.72 46.98 39.36 42.72 43.12 41.99 C 37.70 42.02 32.28 42.01 26.85 42.00 C 30.62 42.70 33.28 46.99 31.40 50.56 C 29.72 54.52 23.73 55.16 21.26 51.64 C 18.44 48.28 20.68 42.71 25.02 42.14 C 22.46 42.06 18.76 42.39 17.84 39.30 C 15.89 32.26 14.27 25.12 12.46 18.03 C 10.40 17.70 7.44 18.88 6.13 16.77 M 25.15 46.10 C 22.85 47.25 24.44 50.90 26.85 49.88 C 29.14 48.75 27.58 45.12 25.15 46.10 M 43.16 46.11 C 40.84 47.13 42.42 50.95 44.79 49.84 C 47.22 48.87 45.56 45.09 43.16 46.11 Z" />
<path fill="#000000" opacity="1.00" d=" M 32.00 14.00 C 33.33 14.00 34.67 14.00 36.00 14.00 C 36.00 17.33 36.00 20.67 36.00 24.00 C 38.00 24.00 39.99 24.00 41.99 24.00 C 39.33 26.67 36.66 29.33 34.00 32.00 C 31.37 29.31 28.69 26.67 26.04 24.01 C 28.03 24.00 30.01 24.00 32.00 24.00 C 32.00 20.67 32.00 17.33 32.00 14.00 Z" />
</g>
</svg>
