<?xml version="1.0" encoding="UTF-8" ?>
<!DOCTYPE svg PUBLIC "-//W3C//DTD SVG 1.1//EN" "http://www.w3.org/Graphics/SVG/1.1/DTD/svg11.dtd">
<svg width="64pt" height="64pt" viewBox="0 0 64 64" version="1.1" xmlns="http://www.w3.org/2000/svg">
<g id="#ffffffff">
<path fill="#ffffff" opacity="1.00" d=" M 0.00 0.00 L 64.00 0.00 L 64.00 64.00 L 0.00 64.00 L 0.00 0.00 M 24.00 10.00 C 24.00 12.67 24.00 15.33 24.00 18.00 C 25.33 18.00 26.67 18.00 28.00 18.00 C 28.00 15.33 28.00 12.67 28.00 10.00 C 26.67 9.99 25.33 10.00 24.00 10.00 M 32.00 12.00 C 32.00 14.00 32.00 16.00 32.00 18.00 C 33.33 18.00 34.67 18.00 36.00 18.00 C 35.99 16.00 35.99 14.00 36.00 12.00 C 34.67 12.00 33.33 12.00 32.00 12.00 M 10.00 20.00 C 10.06 26.03 9.90 32.07 10.05 38.10 C 9.95 43.36 14.66 48.06 19.92 47.95 C 26.99 47.99 34.09 48.16 41.15 47.86 C 46.16 47.51 49.70 42.90 50.15 38.14 C 53.17 38.19 56.70 37.17 57.66 33.93 C 58.42 29.34 57.81 24.64 58.00 20.00 C 42.00 20.00 26.00 20.00 10.00 20.00 M 8.00 50.00 C 8.00 51.33 8.00 52.67 8.00 54.00 C 22.67 54.00 37.33 54.00 52.00 54.00 C 52.00 52.67 52.00 51.33 52.00 50.00 C 37.33 50.00 22.67 50.00 8.00 50.00 Z" />
<path fill="#ffffff" opacity="1.00" d=" M 14.00 24.00 C 24.67 24.00 35.33 24.00 46.00 24.00 C 45.93 28.71 46.13 33.43 45.94 38.14 C 46.03 41.27 43.21 44.05 40.08 43.95 C 33.37 44.05 26.65 44.04 19.94 43.95 C 16.81 44.06 13.96 41.29 14.06 38.14 C 13.87 33.43 14.07 28.71 14.00 24.00 Z" />
<path fill="#ffffff" opacity="1.00" d=" M 50.00 24.00 C 51.33 24.00 52.66 23.99 53.99 24.00 C 54.00 26.96 54.15 29.94 53.83 32.89 C 53.04 34.27 51.29 33.82 50.00 34.17 C 50.00 30.78 50.00 27.39 50.00 24.00 Z" />
</g>
<g id="#000000ff">
<path fill="#000000" opacity="1.00" d=" M 24.00 10.00 C 25.33 10.00 26.67 9.99 28.00 10.00 C 28.00 12.67 28.00 15.33 28.00 18.00 C 26.67 18.00 25.33 18.00 24.00 18.00 C 24.00 15.33 24.00 12.67 24.00 10.00 Z" />
<path fill="#000000" opacity="1.00" d=" M 32.00 12.00 C 33.33 12.00 34.67 12.00 36.00 12.00 C 35.99 14.00 35.99 16.00 36.00 18.00 C 34.67 18.00 33.33 18.00 32.00 18.00 C 32.00 16.00 32.00 14.00 32.00 12.00 Z" />
<path fill="#000000" opacity="1.00" d=" M 10.00 20.00 C 26.00 20.00 42.00 20.00 58.00 20.00 C 57.81 24.64 58.42 29.34 57.66 33.93 C 56.70 37.17 53.17 38.19 50.15 38.14 C 49.70 42.90 46.16 47.51 41.15 47.86 C 34.09 48.16 26.99 47.99 19.92 47.95 C 14.66 48.06 9.95 43.36 10.05 38.10 C 9.90 32.07 10.06 26.03 10.00 20.00 M 14.00 24.00 C 14.07 28.71 13.87 33.43 14.06 38.14 C 13.96 41.29 16.81 44.06 19.94 43.95 C 26.65 44.04 33.37 44.05 40.08 43.95 C 43.21 44.05 46.03 41.27 45.94 38.14 C 46.13 33.43 45.93 28.71 46.00 24.00 C 35.33 24.00 24.67 24.00 14.00 24.00 M 50.00 24.00 C 50.00 27.39 50.00 30.78 50.00 34.17 C 51.29 33.82 53.04 34.27 53.83 32.89 C 54.15 29.94 54.00 26.96 53.99 24.00 C 52.66 23.99 51.33 24.00 50.00 24.00 Z" />
<path fill="#000000" opacity="1.00" d=" M 8.00 50.00 C 22.67 50.00 37.33 50.00 52.00 50.00 C 52.00 51.33 52.00 52.67 52.00 54.00 C 37.33 54.00 22.67 54.00 8.00 54.00 C 8.00 52.67 8.00 51.33 8.00 50.00 Z" />
</g>
</svg>
