<?xml version="1.0" encoding="UTF-8" ?>
<!DOCTYPE svg PUBLIC "-//W3C//DTD SVG 1.1//EN" "http://www.w3.org/Graphics/SVG/1.1/DTD/svg11.dtd">
<svg width="60pt" height="60pt" viewBox="0 0 60 60" version="1.1" xmlns="http://www.w3.org/2000/svg">
<g id="#ffffffff">
<path fill="#ffffff" opacity="1.00" d=" M 0.00 0.00 L 60.00 0.00 L 60.00 20.35 C 59.54 15.65 54.42 12.79 50.09 14.50 C 49.86 12.97 50.43 10.05 48.08 10.08 C 35.36 9.87 22.64 10.08 9.92 9.98 C 8.62 10.11 6.90 9.69 6.18 11.13 C 5.70 18.21 5.56 25.73 8.97 32.19 C 10.70 35.86 13.18 39.10 15.96 42.03 C 23.98 41.98 32.00 41.99 40.03 42.02 C 42.58 39.57 44.30 36.43 46.57 33.75 C 51.15 29.99 58.26 28.16 60.00 21.82 L 60.00 60.00 L 0.00 60.00 L 0.00 0.00 M 7.10 46.22 C 5.24 46.98 5.93 50.16 8.01 49.93 C 21.01 50.10 34.01 49.96 47.01 50.00 C 48.19 50.10 50.26 49.63 49.92 48.02 C 50.22 45.89 47.46 45.95 46.04 45.98 C 33.07 46.17 20.05 45.69 7.10 46.22 Z" />
<path fill="#ffffff" opacity="1.00" d=" M 50.50 19.37 C 52.10 16.48 57.12 18.71 55.79 21.88 C 54.29 24.51 51.35 25.73 48.97 27.41 C 49.65 24.76 49.62 21.95 50.50 19.37 Z" />
</g>
<g id="#000000ff">
<path fill="#000000" opacity="1.00" d=" M 6.18 11.13 C 6.90 9.69 8.62 10.11 9.92 9.98 C 22.64 10.08 35.36 9.87 48.08 10.08 C 50.43 10.05 49.86 12.97 50.09 14.50 C 54.42 12.79 59.54 15.65 60.00 20.35 L 60.00 21.82 C 58.26 28.16 51.15 29.99 46.57 33.75 C 44.30 36.43 42.58 39.57 40.03 42.02 C 32.00 41.99 23.98 41.98 15.96 42.03 C 13.18 39.10 10.70 35.86 8.97 32.19 C 5.56 25.73 5.70 18.21 6.18 11.13 M 50.50 19.37 C 49.62 21.95 49.65 24.76 48.97 27.41 C 51.35 25.73 54.29 24.51 55.79 21.88 C 57.12 18.71 52.10 16.48 50.50 19.37 Z" />
<path fill="#000000" opacity="1.00" d=" M 7.10 46.22 C 20.05 45.69 33.07 46.17 46.04 45.98 C 47.46 45.95 50.22 45.89 49.92 48.02 C 50.26 49.63 48.19 50.10 47.01 50.00 C 34.01 49.96 21.01 50.10 8.01 49.93 C 5.93 50.16 5.24 46.98 7.10 46.22 Z" />
</g>
</svg>
