<?xml version="1.0" encoding="UTF-8" ?>
<!DOCTYPE svg PUBLIC "-//W3C//DTD SVG 1.1//EN" "http://www.w3.org/Graphics/SVG/1.1/DTD/svg11.dtd">
<svg width="60pt" height="60pt" viewBox="0 0 60 60" version="1.1" xmlns="http://www.w3.org/2000/svg">
<g id="#ffffffff">
<path fill="#ffffff" opacity="1.00" d=" M 0.00 0.00 L 60.00 0.00 L 60.00 60.00 L 0.00 60.00 L 0.00 0.00 M 16.49 2.00 C 16.49 4.97 15.18 7.66 13.36 9.93 C 14.14 11.67 14.92 13.51 14.27 15.43 C 13.45 18.68 15.68 21.55 16.61 24.50 C 16.49 26.66 16.28 29.02 18.38 30.34 C 18.05 30.78 17.40 31.67 17.08 32.11 C 18.22 34.96 19.53 37.74 20.60 40.62 C 20.45 41.27 20.13 42.59 19.98 43.24 C 23.59 44.06 26.00 46.89 28.71 49.17 C 30.99 51.07 32.17 53.69 32.26 56.64 C 36.06 57.40 39.93 57.65 43.77 58.03 C 43.61 57.28 43.28 55.80 43.11 55.05 C 44.11 53.41 44.91 51.61 46.42 50.35 C 45.70 48.50 45.20 46.54 44.09 44.87 C 38.79 37.05 33.57 29.18 28.25 21.37 C 29.55 16.38 30.83 11.38 32.10 6.39 C 26.87 5.03 21.67 3.56 16.49 2.00 Z" />
</g>
<g id="#000000ff">
<path fill="#000000" opacity="1.00" d=" M 16.49 2.00 C 21.67 3.56 26.87 5.03 32.10 6.39 C 30.83 11.38 29.55 16.38 28.25 21.37 C 33.57 29.18 38.79 37.05 44.09 44.87 C 45.20 46.54 45.70 48.50 46.42 50.35 C 44.91 51.61 44.11 53.41 43.11 55.05 C 43.28 55.80 43.61 57.28 43.77 58.03 C 39.93 57.65 36.06 57.40 32.26 56.64 C 32.17 53.69 30.99 51.07 28.71 49.17 C 26.00 46.89 23.59 44.06 19.98 43.24 C 20.13 42.59 20.45 41.27 20.60 40.62 C 19.53 37.74 18.22 34.96 17.08 32.11 C 17.40 31.67 18.05 30.78 18.38 30.34 C 16.28 29.02 16.49 26.66 16.61 24.50 C 15.68 21.55 13.45 18.68 14.27 15.43 C 14.92 13.51 14.14 11.67 13.36 9.93 C 15.18 7.66 16.49 4.97 16.49 2.00 Z" />
</g>
</svg>
