<?xml version="1.0" encoding="UTF-8" ?>
<!DOCTYPE svg PUBLIC "-//W3C//DTD SVG 1.1//EN" "http://www.w3.org/Graphics/SVG/1.1/DTD/svg11.dtd">
<svg width="60pt" height="60pt" viewBox="0 0 60 60" version="1.1" xmlns="http://www.w3.org/2000/svg">
<g id="#ffffffff">
<path fill="#ffffff" opacity="1.00" d=" M 0.00 0.00 L 60.00 0.00 L 60.00 60.00 L 0.00 60.00 L 0.00 0.00 M 39.15 4.17 C 38.91 4.39 38.43 4.83 38.19 5.06 C 37.85 10.30 37.89 15.60 38.16 20.85 C 39.12 22.58 41.39 21.81 43.00 22.05 C 44.59 21.84 46.71 22.52 47.80 20.96 C 48.16 15.70 48.11 10.38 47.83 5.12 C 45.67 2.95 41.94 4.25 39.15 4.17 M 12.47 8.69 C 9.01 10.51 9.33 16.13 12.96 17.56 C 16.51 19.41 20.99 15.64 19.86 11.83 C 19.20 8.69 15.20 6.91 12.47 8.69 M 4.07 19.99 C 4.03 30.94 3.79 41.92 4.19 52.85 C 6.05 55.77 8.88 52.47 8.13 50.00 C 22.71 50.00 37.29 50.00 51.87 50.00 C 52.20 51.24 51.67 53.14 53.15 53.78 C 54.29 54.56 56.06 53.42 55.92 52.07 C 56.06 48.43 56.16 44.77 55.83 41.15 C 55.16 39.59 53.33 40.14 52.01 39.99 C 37.34 40.01 22.67 39.99 8.00 40.00 C 7.93 33.30 8.12 26.60 7.93 19.91 C 8.14 17.36 3.76 17.41 4.07 19.99 M 12.02 25.90 C 12.29 29.40 13.73 32.66 14.60 36.02 C 17.65 36.00 20.70 35.99 23.75 36.00 C 22.45 32.00 21.76 27.77 20.02 23.93 C 17.99 20.58 12.29 22.00 12.02 25.90 M 25.10 26.00 C 26.03 29.33 26.97 32.67 27.91 36.00 C 36.62 36.00 45.32 36.00 54.03 36.00 C 53.89 33.46 54.47 30.53 52.77 28.37 C 51.48 26.55 49.18 25.88 47.04 26.00 C 39.73 25.98 32.42 26.01 25.10 26.00 Z" />
<path fill="#ffffff" opacity="1.00" d=" M 42.54 17.50 C 44.33 17.04 45.34 19.80 43.51 20.40 C 41.65 21.12 40.67 18.15 42.54 17.50 Z" />
</g>
<g id="#000000ff">
<path fill="#000000" opacity="1.00" d=" M 39.15 4.17 C 41.94 4.25 45.67 2.95 47.83 5.12 C 48.11 10.38 48.16 15.70 47.80 20.96 C 46.71 22.52 44.59 21.84 43.00 22.05 C 41.39 21.81 39.12 22.58 38.16 20.85 C 37.89 15.60 37.85 10.30 38.19 5.06 C 38.43 4.83 38.91 4.39 39.15 4.17 M 42.54 17.50 C 40.67 18.15 41.65 21.12 43.51 20.40 C 45.34 19.80 44.33 17.04 42.54 17.50 Z" />
<path fill="#000000" opacity="1.00" d=" M 12.47 8.69 C 15.20 6.91 19.20 8.69 19.86 11.83 C 20.99 15.64 16.51 19.41 12.96 17.56 C 9.33 16.13 9.01 10.51 12.47 8.69 Z" />
<path fill="#000000" opacity="1.00" d=" M 4.07 19.99 C 3.76 17.41 8.14 17.36 7.93 19.91 C 8.12 26.60 7.93 33.30 8.00 40.00 C 22.67 39.99 37.34 40.01 52.01 39.99 C 53.33 40.14 55.16 39.59 55.83 41.15 C 56.16 44.77 56.06 48.43 55.92 52.07 C 56.06 53.42 54.29 54.56 53.15 53.78 C 51.67 53.14 52.20 51.24 51.87 50.00 C 37.29 50.00 22.71 50.00 8.13 50.00 C 8.88 52.47 6.05 55.77 4.19 52.85 C 3.79 41.92 4.03 30.94 4.07 19.99 Z" />
<path fill="#000000" opacity="1.00" d=" M 12.02 25.90 C 12.29 22.00 17.99 20.58 20.02 23.93 C 21.76 27.77 22.45 32.00 23.75 36.00 C 20.70 35.99 17.65 36.00 14.60 36.02 C 13.73 32.66 12.29 29.40 12.02 25.90 Z" />
<path fill="#000000" opacity="1.00" d=" M 25.10 26.00 C 32.42 26.01 39.73 25.98 47.04 26.00 C 49.18 25.88 51.48 26.55 52.77 28.37 C 54.47 30.53 53.89 33.46 54.03 36.00 C 45.32 36.00 36.62 36.00 27.91 36.00 C 26.97 32.67 26.03 29.33 25.10 26.00 Z" />
</g>
</svg>
