<?xml version="1.0" encoding="UTF-8" ?>
<!DOCTYPE svg PUBLIC "-//W3C//DTD SVG 1.1//EN" "http://www.w3.org/Graphics/SVG/1.1/DTD/svg11.dtd">
<svg width="64pt" height="64pt" viewBox="0 0 64 64" version="1.1" xmlns="http://www.w3.org/2000/svg">
<g id="#ffffffff">
<path fill="#ffffff" opacity="1.00" d=" M 0.00 0.00 L 64.00 0.00 L 64.00 64.00 L 0.00 64.00 L 0.00 0.00 M 29.41 7.86 C 24.74 12.66 19.91 17.28 15.17 22.01 C 11.45 21.99 7.72 22.01 4.00 22.00 C 4.00 32.67 4.00 43.33 4.00 54.00 C 20.68 53.96 37.37 54.08 54.06 53.95 C 58.76 54.17 61.83 47.94 58.74 44.37 C 55.13 40.28 48.99 42.61 44.27 42.00 C 44.59 36.68 46.40 31.33 45.64 26.02 C 43.65 20.47 36.82 22.25 32.31 21.99 C 34.24 19.04 36.74 15.83 35.82 12.05 C 35.11 9.18 32.08 7.99 29.41 7.86 Z" />
<path fill="#ffffff" opacity="1.00" d=" M 17.99 24.84 C 22.39 20.53 26.75 16.16 31.16 11.86 C 33.06 14.16 31.13 16.96 29.31 18.54 C 28.58 21.01 27.95 23.51 27.29 26.00 C 31.82 26.12 36.37 25.74 40.89 26.18 C 41.13 26.43 41.61 26.92 41.85 27.16 C 41.67 33.47 40.34 39.71 39.73 46.00 C 44.74 46.15 49.79 45.69 54.78 46.21 C 56.78 46.87 56.11 50.20 53.97 49.93 C 41.99 50.10 29.99 49.94 18.00 50.00 C 18.00 41.62 18.01 33.23 17.99 24.84 Z" />
<path fill="#ffffff" opacity="1.00" d=" M 8.00 26.00 C 10.00 26.00 12.00 26.00 14.00 26.00 C 14.00 34.00 14.00 42.00 14.00 50.00 C 12.00 50.00 10.00 50.00 8.00 50.00 C 8.00 42.00 8.00 34.00 8.00 26.00 Z" />
</g>
<g id="#000000ff">
<path fill="#000000" opacity="1.00" d=" M 29.41 7.86 C 32.08 7.99 35.11 9.18 35.82 12.05 C 36.74 15.83 34.24 19.04 32.31 21.99 C 36.82 22.25 43.65 20.47 45.64 26.02 C 46.40 31.33 44.59 36.68 44.27 42.00 C 48.99 42.61 55.13 40.28 58.74 44.37 C 61.83 47.94 58.76 54.17 54.06 53.95 C 37.37 54.08 20.68 53.96 4.00 54.00 C 4.00 43.33 4.00 32.67 4.00 22.00 C 7.72 22.01 11.45 21.99 15.17 22.01 C 19.91 17.28 24.74 12.66 29.41 7.86 M 17.99 24.84 C 18.01 33.23 18.00 41.62 18.00 50.00 C 29.99 49.94 41.99 50.10 53.97 49.93 C 56.11 50.20 56.78 46.87 54.78 46.21 C 49.79 45.69 44.74 46.15 39.73 46.00 C 40.34 39.71 41.67 33.47 41.85 27.16 C 41.61 26.92 41.13 26.43 40.89 26.18 C 36.37 25.74 31.82 26.12 27.29 26.00 C 27.95 23.51 28.58 21.01 29.31 18.54 C 31.13 16.96 33.06 14.16 31.16 11.86 C 26.75 16.16 22.39 20.53 17.99 24.84 M 8.00 26.00 C 8.00 34.00 8.00 42.00 8.00 50.00 C 10.00 50.00 12.00 50.00 14.00 50.00 C 14.00 42.00 14.00 34.00 14.00 26.00 C 12.00 26.00 10.00 26.00 8.00 26.00 Z" />
</g>
</svg>
