<?xml version="1.0" encoding="UTF-8" ?>
<!DOCTYPE svg PUBLIC "-//W3C//DTD SVG 1.1//EN" "http://www.w3.org/Graphics/SVG/1.1/DTD/svg11.dtd">
<svg width="300pt" height="300pt" viewBox="0 0 300 300" version="1.1" xmlns="http://www.w3.org/2000/svg">
<g id="#ffffffff">
<path fill="#ffffff" opacity="1.00" d=" M 0.00 0.00 L 300.00 0.00 L 300.00 300.00 L 0.00 300.00 L 0.00 0.00 M 52.92 30.14 C 39.22 39.31 30.21 54.25 26.00 69.98 C 22.35 87.71 24.13 107.03 33.16 122.94 C 40.85 137.04 54.23 147.26 68.87 153.38 C 67.13 158.08 66.97 163.14 67.41 168.08 C 57.64 166.39 47.76 164.43 38.75 160.14 C 36.02 158.70 32.92 157.07 31.88 153.94 C 28.35 145.23 25.65 136.22 22.54 127.36 C 21.53 123.98 17.07 122.18 14.04 124.09 C 11.47 125.45 10.32 128.75 11.36 131.46 C 14.38 140.89 17.41 150.35 21.24 159.49 C 23.38 165.15 28.80 168.48 33.94 171.10 C 45.46 176.48 58.09 178.84 70.59 180.66 C 72.08 183.99 73.80 187.21 75.73 190.31 C 68.69 193.10 61.68 196.11 55.37 200.33 C 51.95 202.63 48.78 205.69 47.60 209.75 C 44.38 219.80 44.64 230.54 44.82 240.97 C 44.86 244.17 47.74 247.14 51.01 246.88 C 54.14 246.93 56.81 244.04 56.74 240.96 C 56.81 232.24 56.39 223.37 58.53 214.85 C 59.02 211.92 61.69 210.35 64.02 208.98 C 70.31 205.43 76.99 202.65 83.76 200.17 C 86.11 202.55 88.53 204.87 91.02 207.11 C 83.88 213.31 76.11 219.90 72.94 229.12 C 71.22 239.61 74.97 250.01 78.23 259.85 C 79.46 262.69 80.03 266.73 83.49 267.70 C 87.88 269.50 93.03 264.48 91.12 260.09 C 88.37 252.53 85.62 244.86 84.55 236.85 C 84.15 234.17 84.35 231.26 86.10 229.07 C 90.23 223.48 95.55 218.91 100.88 214.50 C 104.93 217.14 109.06 219.65 113.27 222.02 C 107.45 229.98 102.02 238.88 101.26 248.95 C 101.37 255.69 104.92 261.81 109.18 266.83 C 113.88 272.20 119.27 276.96 125.18 280.96 C 127.05 282.33 129.70 282.92 131.82 281.76 C 135.79 280.09 136.19 273.79 132.56 271.53 C 126.58 267.29 120.84 262.53 116.45 256.62 C 114.51 253.90 112.51 250.53 113.60 247.08 C 115.26 239.73 119.70 233.39 124.26 227.53 C 131.11 230.59 138.05 233.48 145.18 235.84 C 148.49 236.93 152.13 236.79 155.42 235.67 C 163.36 233.08 171.13 229.98 178.72 226.53 C 183.64 232.62 188.34 239.28 190.14 247.02 C 191.15 250.15 189.56 253.30 187.84 255.85 C 183.37 262.29 177.15 267.21 170.88 271.79 C 167.13 274.44 168.42 281.11 172.92 282.16 C 177.41 283.26 180.67 279.16 184.04 276.94 C 192.36 269.97 201.24 261.55 202.49 250.15 C 202.24 239.24 196.17 229.54 189.77 221.10 C 193.92 218.76 198.08 216.43 202.08 213.83 C 206.90 217.70 211.56 221.80 215.64 226.46 C 217.66 228.84 219.83 231.59 219.42 234.93 C 218.83 242.02 216.61 248.84 214.32 255.53 C 213.35 258.55 211.20 261.86 213.09 264.97 C 215.18 269.10 221.67 268.84 223.60 264.69 C 226.54 257.87 228.71 250.71 230.28 243.45 C 231.41 237.37 232.44 230.54 229.11 224.94 C 224.89 217.65 218.53 211.88 212.09 206.57 C 214.62 204.44 217.11 202.26 219.46 199.93 C 226.48 202.54 233.48 205.34 239.97 209.10 C 242.14 210.44 244.70 211.90 245.22 214.64 C 247.46 223.28 246.87 232.29 247.05 241.13 C 247.05 243.85 249.24 246.36 251.91 246.77 C 255.34 247.62 258.94 244.71 258.94 241.20 C 259.10 231.14 259.38 220.87 256.63 211.10 C 255.69 207.54 253.67 204.27 250.71 202.06 C 243.80 196.69 235.62 193.33 227.55 190.13 C 229.64 187.21 230.79 183.70 232.79 180.77 C 245.97 178.66 259.44 176.39 271.45 170.27 C 275.96 167.80 280.59 164.60 282.49 159.61 C 286.25 150.67 289.13 141.40 292.22 132.22 C 293.22 129.63 293.03 126.21 290.53 124.55 C 287.47 122.12 282.39 123.67 281.29 127.44 C 278.31 136.34 275.46 145.30 272.00 154.02 C 271.07 157.17 267.83 158.62 265.22 160.14 C 255.82 164.62 245.48 166.58 235.29 168.30 C 235.31 163.07 234.46 157.93 232.79 152.98 C 244.62 147.67 255.69 140.05 263.30 129.39 C 274.73 113.94 278.18 93.73 275.46 74.97 C 274.51 67.22 271.42 59.93 267.88 53.03 C 261.19 40.19 250.09 29.47 236.44 24.32 C 219.15 17.73 199.73 18.75 182.28 24.20 C 176.34 26.15 170.33 28.42 165.34 32.28 C 162.45 34.51 162.82 39.24 165.68 41.32 C 167.46 42.98 170.08 42.63 172.31 42.71 C 182.32 42.60 192.74 44.17 201.38 49.50 C 205.52 52.15 209.45 55.93 210.44 60.93 C 210.96 63.51 210.02 66.95 207.12 67.57 C 202.81 67.36 199.45 64.38 196.28 61.79 C 191.55 57.85 187.55 53.16 183.16 48.88 C 179.91 45.69 173.49 48.34 173.56 52.95 C 172.85 65.07 173.94 77.99 180.39 88.57 C 185.34 96.72 193.75 101.70 201.79 106.33 C 206.01 108.65 210.77 109.72 215.10 111.79 C 218.22 113.24 219.07 117.00 219.49 120.09 C 219.98 124.20 217.62 127.82 215.00 130.73 C 210.42 127.23 205.54 124.14 200.42 121.49 C 200.00 115.70 196.91 110.08 191.76 107.20 C 185.07 103.11 176.01 104.22 170.14 109.30 C 164.22 107.56 158.27 105.82 152.18 104.79 C 144.76 104.29 138.05 108.25 131.00 109.94 C 129.72 109.98 129.01 108.68 128.00 108.10 C 121.12 102.77 110.33 103.84 104.39 110.13 C 100.85 113.68 99.23 118.86 99.64 123.81 C 95.28 126.28 91.03 128.93 86.97 131.87 C 83.84 129.03 80.94 125.37 81.01 120.92 C 81.37 117.43 82.21 113.19 85.78 111.61 C 90.37 109.53 95.40 108.42 99.75 105.80 C 106.86 101.50 114.44 97.24 119.14 90.14 C 126.46 79.64 127.50 66.27 127.22 53.86 C 127.31 50.19 123.81 46.77 120.11 47.63 C 117.23 48.10 115.63 50.79 113.69 52.67 C 108.86 57.49 104.22 62.71 98.25 66.15 C 96.04 67.38 92.65 68.52 91.01 65.82 C 88.22 61.11 91.89 55.59 95.40 52.37 C 105.01 44.01 118.46 42.44 130.72 42.63 C 134.27 42.94 137.70 39.66 137.13 36.04 C 136.84 32.65 133.51 30.89 130.88 29.37 C 121.19 24.27 110.39 21.48 99.55 20.23 C 83.54 18.50 66.49 21.01 52.92 30.14 Z" />
<path fill="#ffffff" opacity="1.00" d=" M 61.87 38.80 C 75.13 30.95 91.40 30.50 106.18 33.39 C 97.22 36.31 88.31 40.93 82.73 48.78 C 78.87 54.10 76.87 61.15 78.69 67.60 C 80.63 74.61 87.61 80.16 95.01 79.53 C 102.77 78.95 109.01 73.69 114.65 68.82 C 113.69 74.09 112.22 79.43 108.95 83.77 C 105.23 88.89 99.52 91.91 94.26 95.17 C 89.46 98.09 83.69 98.84 78.92 101.80 C 72.26 105.57 69.24 113.61 69.21 120.95 C 68.96 128.13 72.64 134.94 77.82 139.71 C 76.90 140.81 75.97 141.91 75.03 142.99 C 61.80 137.81 49.50 128.87 42.96 115.96 C 36.09 102.93 34.93 87.46 37.63 73.14 C 41.41 59.42 49.24 46.04 61.87 38.80 Z" />
<path fill="#ffffff" opacity="1.00" d=" M 194.32 33.39 C 209.26 30.49 225.73 30.95 239.08 38.99 C 251.52 46.22 259.19 59.48 262.95 73.03 C 265.81 88.07 264.41 104.44 256.61 117.86 C 250.05 129.29 239.02 137.64 226.87 142.41 C 225.90 141.19 224.92 139.99 223.94 138.79 C 228.18 134.20 231.41 128.38 231.51 122.00 C 231.59 114.64 228.90 106.61 222.57 102.34 C 217.52 98.91 211.20 98.20 206.04 94.99 C 200.91 91.88 195.51 88.85 191.84 83.97 C 188.39 79.60 186.94 74.10 185.90 68.73 C 190.90 73.18 196.37 77.62 203.03 79.17 C 209.01 80.62 215.55 78.04 219.15 73.10 C 224.08 66.71 223.29 57.44 219.21 50.83 C 213.80 41.80 204.11 36.43 194.32 33.39 Z" />
<path fill="#ffffff" opacity="1.00" d=" M 114.44 117.38 C 118.00 115.37 123.27 117.80 123.34 122.10 C 122.93 126.97 116.04 128.69 112.98 125.16 C 110.57 122.93 111.56 118.69 114.44 117.38 Z" />
<path fill="#ffffff" opacity="1.00" d=" M 135.39 121.22 C 140.18 119.74 144.88 117.90 149.78 116.75 C 154.88 117.09 159.76 118.95 164.70 120.20 C 164.04 128.09 169.33 135.81 176.90 138.06 C 183.77 140.51 191.45 137.98 196.39 132.87 C 205.69 138.00 214.85 144.49 220.11 153.96 C 224.05 160.94 224.27 169.70 221.05 176.99 C 216.76 186.97 208.46 194.51 199.84 200.80 C 185.13 211.23 168.49 218.68 151.44 224.40 C 149.80 225.15 148.12 224.15 146.55 223.69 C 128.96 217.21 111.72 208.89 97.38 196.64 C 88.12 188.56 80.04 177.76 79.25 165.09 C 78.66 159.44 81.30 154.03 84.93 149.87 C 90.55 143.42 97.79 138.62 105.22 134.50 C 109.99 138.42 116.57 140.10 122.55 138.22 C 130.03 136.22 135.46 128.96 135.39 121.22 Z" />
<path fill="#ffffff" opacity="1.00" d=" M 180.18 117.10 C 183.94 115.38 189.33 118.63 188.19 123.04 C 186.95 127.64 179.96 128.40 177.45 124.48 C 175.60 121.86 177.24 118.06 180.18 117.10 Z" />
</g>
<g id="#000000ff">
<path fill="#968176" opacity="1.00" d=" M 52.92 30.14 C 66.49 21.01 83.54 18.50 99.55 20.23 C 110.39 21.48 121.19 24.27 130.88 29.37 C 133.51 30.89 136.84 32.65 137.13 36.04 C 137.70 39.66 134.27 42.94 130.72 42.63 C 118.46 42.44 105.01 44.01 95.40 52.37 C 91.89 55.59 88.22 61.11 91.01 65.82 C 92.65 68.52 96.04 67.38 98.25 66.15 C 104.22 62.71 108.86 57.49 113.69 52.67 C 115.63 50.79 117.23 48.10 120.11 47.63 C 123.81 46.77 127.31 50.19 127.22 53.86 C 127.50 66.27 126.46 79.64 119.14 90.14 C 114.44 97.24 106.86 101.50 99.75 105.80 C 95.40 108.42 90.37 109.53 85.78 111.61 C 82.21 113.19 81.37 117.43 81.01 120.92 C 80.94 125.37 83.84 129.03 86.97 131.87 C 91.03 128.93 95.28 126.28 99.64 123.81 C 99.23 118.86 100.85 113.68 104.39 110.13 C 110.33 103.84 121.12 102.77 128.00 108.10 C 129.01 108.68 129.72 109.98 131.00 109.94 C 138.05 108.25 144.76 104.29 152.18 104.79 C 158.27 105.82 164.22 107.56 170.14 109.30 C 176.01 104.22 185.07 103.11 191.76 107.20 C 196.91 110.08 200.00 115.70 200.42 121.49 C 205.54 124.14 210.42 127.23 215.00 130.73 C 217.62 127.82 219.98 124.20 219.49 120.09 C 219.07 117.00 218.22 113.24 215.10 111.79 C 210.77 109.72 206.01 108.65 201.79 106.33 C 193.75 101.70 185.34 96.72 180.39 88.57 C 173.94 77.99 172.85 65.07 173.56 52.95 C 173.49 48.34 179.91 45.69 183.16 48.88 C 187.55 53.16 191.55 57.85 196.28 61.79 C 199.45 64.38 202.81 67.36 207.12 67.57 C 210.02 66.95 210.96 63.51 210.44 60.93 C 209.45 55.93 205.52 52.15 201.38 49.50 C 192.74 44.17 182.32 42.60 172.31 42.71 C 170.08 42.63 167.46 42.98 165.68 41.32 C 162.82 39.24 162.45 34.51 165.34 32.28 C 170.33 28.42 176.34 26.15 182.28 24.20 C 199.73 18.75 219.15 17.73 236.44 24.32 C 250.09 29.47 261.19 40.19 267.88 53.03 C 271.42 59.93 274.51 67.22 275.46 74.97 C 278.18 93.73 274.73 113.94 263.30 129.39 C 255.69 140.05 244.62 147.67 232.79 152.98 C 234.46 157.93 235.31 163.07 235.29 168.30 C 245.48 166.58 255.82 164.62 265.22 160.14 C 267.83 158.62 271.07 157.17 272.00 154.02 C 275.46 145.30 278.31 136.34 281.29 127.44 C 282.39 123.67 287.47 122.12 290.53 124.55 C 293.03 126.21 293.22 129.63 292.22 132.22 C 289.13 141.40 286.25 150.67 282.49 159.61 C 280.59 164.60 275.96 167.80 271.45 170.27 C 259.44 176.39 245.97 178.66 232.79 180.77 C 230.79 183.70 229.64 187.21 227.55 190.13 C 235.62 193.33 243.80 196.69 250.71 202.06 C 253.67 204.27 255.69 207.54 256.63 211.10 C 259.38 220.87 259.10 231.14 258.94 241.20 C 258.94 244.71 255.34 247.62 251.91 246.77 C 249.24 246.36 247.05 243.85 247.05 241.13 C 246.87 232.29 247.46 223.28 245.22 214.64 C 244.70 211.90 242.14 210.44 239.97 209.10 C 233.48 205.34 226.48 202.54 219.46 199.93 C 217.11 202.26 214.62 204.44 212.09 206.57 C 218.53 211.88 224.89 217.65 229.11 224.94 C 232.44 230.54 231.41 237.37 230.28 243.45 C 228.71 250.71 226.54 257.87 223.60 264.69 C 221.67 268.84 215.18 269.10 213.09 264.97 C 211.20 261.86 213.35 258.55 214.32 255.53 C 216.61 248.84 218.83 242.02 219.42 234.93 C 219.83 231.59 217.66 228.84 215.64 226.46 C 211.56 221.80 206.90 217.70 202.08 213.83 C 198.08 216.43 193.92 218.76 189.77 221.10 C 196.17 229.54 202.24 239.24 202.49 250.15 C 201.24 261.55 192.36 269.97 184.04 276.94 C 180.67 279.16 177.41 283.26 172.92 282.16 C 168.42 281.11 167.13 274.44 170.88 271.79 C 177.15 267.21 183.37 262.29 187.84 255.85 C 189.56 253.30 191.15 250.15 190.14 247.02 C 188.34 239.28 183.64 232.62 178.72 226.53 C 171.13 229.98 163.36 233.08 155.42 235.67 C 152.13 236.79 148.49 236.93 145.18 235.84 C 138.05 233.48 131.11 230.59 124.26 227.53 C 119.70 233.39 115.26 239.73 113.60 247.08 C 112.51 250.53 114.51 253.90 116.45 256.62 C 120.84 262.53 126.58 267.29 132.56 271.53 C 136.19 273.79 135.79 280.09 131.82 281.76 C 129.70 282.92 127.05 282.33 125.18 280.96 C 119.27 276.96 113.88 272.20 109.18 266.83 C 104.92 261.81 101.37 255.69 101.26 248.95 C 102.02 238.88 107.45 229.98 113.27 222.02 C 109.06 219.65 104.93 217.14 100.88 214.50 C 95.55 218.91 90.23 223.48 86.10 229.07 C 84.35 231.26 84.15 234.17 84.55 236.85 C 85.62 244.86 88.37 252.53 91.12 260.09 C 93.03 264.48 87.88 269.50 83.49 267.70 C 80.03 266.73 79.46 262.69 78.23 259.85 C 74.97 250.01 71.22 239.61 72.94 229.12 C 76.11 219.90 83.88 213.31 91.02 207.11 C 88.53 204.87 86.11 202.55 83.76 200.17 C 76.99 202.65 70.31 205.43 64.02 208.98 C 61.69 210.35 59.02 211.92 58.53 214.85 C 56.39 223.37 56.81 232.24 56.74 240.96 C 56.81 244.04 54.14 246.93 51.01 246.88 C 47.74 247.14 44.86 244.17 44.82 240.97 C 44.64 230.54 44.38 219.80 47.60 209.75 C 48.78 205.69 51.95 202.63 55.37 200.33 C 61.68 196.11 68.69 193.10 75.73 190.31 C 73.80 187.21 72.08 183.99 70.59 180.66 C 58.09 178.84 45.46 176.48 33.94 171.10 C 28.80 168.48 23.38 165.15 21.24 159.49 C 17.41 150.35 14.38 140.89 11.36 131.46 C 10.32 128.75 11.47 125.45 14.04 124.09 C 17.07 122.18 21.53 123.98 22.54 127.36 C 25.65 136.22 28.35 145.23 31.88 153.94 C 32.92 157.07 36.02 158.70 38.75 160.14 C 47.76 164.43 57.64 166.39 67.41 168.08 C 66.97 163.14 67.13 158.08 68.87 153.38 C 54.23 147.26 40.85 137.04 33.16 122.94 C 24.13 107.03 22.35 87.71 26.00 69.98 C 30.21 54.25 39.22 39.31 52.92 30.14 M 61.87 38.80 C 49.24 46.04 41.41 59.42 37.63 73.14 C 34.93 87.46 36.09 102.93 42.96 115.96 C 49.50 128.87 61.80 137.81 75.03 142.99 C 75.97 141.91 76.90 140.81 77.82 139.71 C 72.64 134.94 68.96 128.13 69.21 120.95 C 69.24 113.61 72.26 105.57 78.92 101.80 C 83.69 98.84 89.46 98.09 94.26 95.17 C 99.52 91.91 105.23 88.89 108.95 83.77 C 112.22 79.43 113.69 74.09 114.65 68.82 C 109.01 73.69 102.77 78.95 95.01 79.53 C 87.61 80.16 80.63 74.61 78.69 67.60 C 76.87 61.15 78.87 54.10 82.73 48.78 C 88.31 40.93 97.22 36.31 106.18 33.39 C 91.40 30.50 75.13 30.95 61.87 38.80 M 194.32 33.39 C 204.11 36.43 213.80 41.80 219.21 50.83 C 223.29 57.44 224.08 66.71 219.15 73.10 C 215.55 78.04 209.01 80.62 203.03 79.17 C 196.37 77.62 190.90 73.18 185.90 68.73 C 186.94 74.10 188.39 79.60 191.84 83.97 C 195.51 88.85 200.91 91.88 206.04 94.99 C 211.20 98.20 217.52 98.91 222.57 102.34 C 228.90 106.61 231.59 114.64 231.51 122.00 C 231.41 128.38 228.18 134.20 223.94 138.79 C 224.92 139.99 225.90 141.19 226.87 142.41 C 239.02 137.64 250.05 129.29 256.61 117.86 C 264.41 104.44 265.81 88.07 262.95 73.03 C 259.19 59.48 251.52 46.22 239.08 38.99 C 225.73 30.95 209.26 30.49 194.32 33.39 M 114.44 117.38 C 111.56 118.69 110.57 122.93 112.98 125.16 C 116.04 128.69 122.93 126.97 123.34 122.10 C 123.27 117.80 118.00 115.37 114.44 117.38 M 135.39 121.22 C 135.46 128.96 130.03 136.22 122.55 138.22 C 116.57 140.10 109.99 138.42 105.22 134.50 C 97.79 138.62 90.55 143.42 84.93 149.87 C 81.30 154.03 78.66 159.44 79.25 165.09 C 80.04 177.76 88.12 188.56 97.38 196.64 C 111.72 208.89 128.96 217.21 146.55 223.69 C 148.12 224.15 149.80 225.15 151.44 224.40 C 168.49 218.68 185.13 211.23 199.84 200.80 C 208.46 194.51 216.76 186.97 221.05 176.99 C 224.27 169.70 224.05 160.94 220.11 153.96 C 214.85 144.49 205.69 138.00 196.39 132.87 C 191.45 137.98 183.77 140.51 176.90 138.06 C 169.33 135.81 164.04 128.09 164.70 120.20 C 159.76 118.95 154.88 117.09 149.78 116.75 C 144.88 117.90 140.18 119.74 135.39 121.22 M 180.18 117.10 C 177.24 118.06 175.60 121.86 177.45 124.48 C 179.96 128.40 186.95 127.64 188.19 123.04 C 189.33 118.63 183.94 115.38 180.18 117.10 Z" />
</g>
</svg>
