<?xml version="1.0" encoding="UTF-8" ?>
<!DOCTYPE svg PUBLIC "-//W3C//DTD SVG 1.1//EN" "http://www.w3.org/Graphics/SVG/1.1/DTD/svg11.dtd">
<svg width="60pt" height="60pt" viewBox="0 0 60 60" version="1.1" xmlns="http://www.w3.org/2000/svg">
<g id="#ffffffff">
<path fill="#ffffff" opacity="1.00" d=" M 0.00 0.00 L 60.00 0.00 L 60.00 60.00 L 0.00 60.00 L 0.00 0.00 M 21.83 10.01 C 15.09 8.96 8.95 15.13 10.02 21.86 C 7.84 24.03 5.90 26.76 6.01 29.97 C 5.89 33.21 7.83 35.98 10.01 38.16 C 8.97 44.90 15.12 51.04 21.85 49.98 C 24.03 52.15 26.77 54.09 29.99 53.99 C 33.22 54.10 35.98 52.16 38.17 49.99 C 44.91 51.02 51.04 44.88 49.98 38.14 C 52.15 35.96 54.09 33.22 53.99 30.00 C 54.11 26.77 52.17 24.01 49.99 21.83 C 51.04 15.08 44.87 8.97 38.15 10.02 C 35.97 7.84 33.22 5.89 30.00 6.01 C 26.77 5.89 24.01 7.84 21.83 10.01 Z" />
<path fill="#ffffff" opacity="1.00" d=" M 25.69 11.51 C 29.60 8.35 35.56 10.72 36.22 15.71 C 33.94 16.18 31.77 17.06 29.99 18.60 C 29.33 15.82 27.73 13.47 25.69 11.51 Z" />
<path fill="#ffffff" opacity="1.00" d=" M 17.57 14.51 C 19.89 13.33 22.35 14.50 24.51 15.45 C 21.63 16.22 18.81 17.44 17.02 19.95 C 16.20 20.00 14.57 20.11 13.76 20.17 C 14.28 17.91 15.19 15.40 17.57 14.51 Z" />
<path fill="#ffffff" opacity="1.00" d=" M 39.83 13.75 C 42.11 14.28 44.63 15.21 45.50 17.61 C 46.65 19.93 45.49 22.39 44.59 24.55 C 43.73 21.69 42.60 18.80 40.05 17.02 C 39.99 16.20 39.89 14.57 39.83 13.75 Z" />
<path fill="#ffffff" opacity="1.00" d=" M 20.69 21.73 C 22.67 18.53 28.02 20.21 28.05 23.92 C 26.58 25.24 25.12 26.58 23.99 28.22 C 21.01 27.82 18.76 24.40 20.69 21.73 Z" />
<path fill="#ffffff" opacity="1.00" d=" M 31.78 24.02 C 32.10 20.67 36.35 18.54 38.84 21.17 C 41.43 23.68 39.26 27.83 35.98 28.22 C 34.90 26.52 33.48 25.09 31.78 24.02 Z" />
<path fill="#ffffff" opacity="1.00" d=" M 11.66 34.24 C 8.14 30.50 10.81 24.38 15.72 23.78 C 16.19 26.06 17.06 28.23 18.60 30.01 C 15.88 30.66 13.52 32.17 11.66 34.24 Z" />
<path fill="#ffffff" opacity="1.00" d=" M 41.39 30.00 C 44.19 29.27 46.58 27.63 48.69 25.72 C 49.46 27.67 50.53 29.81 49.65 31.92 C 48.93 34.35 46.54 35.57 44.28 36.22 C 43.81 33.93 42.93 31.77 41.39 30.00 Z" />
<path fill="#ffffff" opacity="1.00" d=" M 29.22 28.11 C 31.56 27.12 33.19 30.95 30.74 31.76 C 28.54 33.04 26.79 29.02 29.22 28.11 Z" />
<path fill="#ffffff" opacity="1.00" d=" M 21.18 38.81 C 18.56 36.33 20.68 32.08 24.03 31.78 C 25.10 33.48 26.52 34.91 28.22 35.98 C 27.88 39.31 23.68 41.44 21.18 38.81 Z" />
<path fill="#ffffff" opacity="1.00" d=" M 31.78 35.98 C 33.47 34.90 34.90 33.49 35.96 31.79 C 39.31 32.09 41.45 36.34 38.83 38.83 C 36.34 41.44 32.16 39.27 31.78 35.98 Z" />
<path fill="#ffffff" opacity="1.00" d=" M 14.51 42.42 C 13.33 40.10 14.50 37.63 15.44 35.47 C 16.22 38.36 17.44 41.19 19.95 42.98 C 20.00 43.80 20.11 45.43 20.17 46.24 C 17.91 45.70 15.39 44.81 14.51 42.42 Z" />
<path fill="#ffffff" opacity="1.00" d=" M 35.48 44.56 C 38.36 43.77 41.18 42.55 42.98 40.05 C 43.80 40.00 45.43 39.89 46.24 39.83 C 45.70 42.09 44.81 44.60 42.42 45.48 C 40.10 46.67 37.64 45.50 35.48 44.56 Z" />
<path fill="#ffffff" opacity="1.00" d=" M 23.78 44.29 C 26.07 43.81 28.22 42.91 30.01 41.39 C 30.67 44.10 32.15 46.47 34.23 48.32 C 30.53 51.87 24.38 49.18 23.78 44.29 Z" />
</g>
<g id="#000000ff">
<path fill="#000000" opacity="1.00" d=" M 21.83 10.01 C 24.01 7.84 26.77 5.89 30.00 6.01 C 33.22 5.89 35.97 7.84 38.15 10.02 C 44.87 8.97 51.04 15.08 49.99 21.83 C 52.17 24.01 54.11 26.77 53.99 30.00 C 54.09 33.22 52.15 35.96 49.98 38.14 C 51.04 44.88 44.91 51.02 38.17 49.99 C 35.98 52.16 33.22 54.10 29.99 53.99 C 26.77 54.09 24.03 52.15 21.85 49.98 C 15.12 51.04 8.97 44.90 10.01 38.16 C 7.83 35.98 5.89 33.21 6.01 29.97 C 5.90 26.76 7.84 24.03 10.02 21.86 C 8.95 15.13 15.09 8.96 21.83 10.01 M 25.69 11.51 C 27.73 13.47 29.33 15.82 29.99 18.60 C 31.77 17.06 33.94 16.18 36.22 15.71 C 35.56 10.72 29.60 8.35 25.69 11.51 M 17.57 14.51 C 15.19 15.40 14.28 17.91 13.76 20.17 C 14.57 20.11 16.20 20.00 17.02 19.95 C 18.81 17.44 21.63 16.22 24.51 15.45 C 22.35 14.50 19.89 13.33 17.57 14.51 M 39.83 13.75 C 39.89 14.57 39.99 16.20 40.05 17.02 C 42.60 18.80 43.73 21.69 44.59 24.55 C 45.49 22.39 46.65 19.93 45.50 17.61 C 44.63 15.21 42.11 14.28 39.83 13.75 M 20.69 21.73 C 18.76 24.40 21.01 27.82 23.99 28.22 C 25.12 26.58 26.58 25.24 28.05 23.92 C 28.02 20.21 22.67 18.53 20.69 21.73 M 31.78 24.02 C 33.48 25.09 34.90 26.52 35.98 28.22 C 39.26 27.83 41.43 23.68 38.84 21.17 C 36.35 18.54 32.10 20.67 31.78 24.02 M 11.66 34.24 C 13.52 32.17 15.88 30.66 18.60 30.01 C 17.06 28.23 16.19 26.06 15.72 23.78 C 10.81 24.38 8.14 30.50 11.66 34.24 M 41.39 30.00 C 42.93 31.77 43.81 33.93 44.28 36.22 C 46.54 35.57 48.93 34.35 49.65 31.92 C 50.53 29.81 49.46 27.67 48.69 25.72 C 46.58 27.63 44.19 29.27 41.39 30.00 M 29.22 28.11 C 26.79 29.02 28.54 33.04 30.74 31.76 C 33.19 30.95 31.56 27.12 29.22 28.11 M 21.18 38.81 C 23.68 41.44 27.88 39.31 28.22 35.98 C 26.52 34.91 25.10 33.48 24.03 31.78 C 20.68 32.08 18.56 36.33 21.18 38.81 M 31.78 35.98 C 32.16 39.27 36.34 41.44 38.83 38.83 C 41.45 36.34 39.31 32.09 35.96 31.79 C 34.90 33.49 33.47 34.90 31.78 35.98 M 14.51 42.42 C 15.39 44.81 17.91 45.70 20.17 46.24 C 20.11 45.43 20.00 43.80 19.95 42.98 C 17.44 41.19 16.22 38.36 15.44 35.47 C 14.50 37.63 13.33 40.10 14.51 42.42 M 35.48 44.56 C 37.64 45.50 40.10 46.67 42.42 45.48 C 44.81 44.60 45.70 42.09 46.24 39.83 C 45.43 39.89 43.80 40.00 42.98 40.05 C 41.18 42.55 38.36 43.77 35.48 44.56 M 23.78 44.29 C 24.38 49.18 30.53 51.87 34.23 48.32 C 32.15 46.47 30.67 44.10 30.01 41.39 C 28.22 42.91 26.07 43.81 23.78 44.29 Z" />
</g>
</svg>
