<?xml version="1.0" encoding="UTF-8" ?>
<!DOCTYPE svg PUBLIC "-//W3C//DTD SVG 1.1//EN" "http://www.w3.org/Graphics/SVG/1.1/DTD/svg11.dtd">
<svg width="60pt" height="60pt" viewBox="0 0 60 60" version="1.1" xmlns="http://www.w3.org/2000/svg">
<g id="#ffffffff">
<path fill="#ffffff" opacity="1.00" d=" M 0.00 0.00 L 60.00 0.00 L 60.00 17.38 C 59.35 16.18 57.72 15.50 56.65 16.61 C 53.00 19.63 49.57 22.90 46.00 26.01 C 46.00 28.67 46.00 31.33 45.99 33.98 C 49.96 37.43 53.72 41.13 57.91 44.30 C 58.43 43.96 59.48 43.28 60.00 42.94 L 60.00 60.00 L 0.00 60.00 L 0.00 44.77 C 0.62 46.43 1.96 48.02 3.90 47.94 C 14.96 48.08 26.02 47.97 37.08 48.00 C 39.43 48.31 42.01 46.61 41.94 44.09 C 42.09 35.04 41.97 25.97 42.00 16.92 C 42.30 14.57 40.63 11.92 38.07 12.06 C 26.69 11.96 15.31 11.96 3.94 12.05 C 2.04 11.91 0.87 13.54 0.00 14.96 L 0.00 0.00 Z" />
<path fill="#ffffff" opacity="1.00" d=" M 18.36 20.10 C 19.46 20.10 20.55 20.11 21.65 20.13 C 21.80 20.68 22.10 21.79 22.24 22.34 C 23.39 22.92 24.52 23.53 25.63 24.17 C 26.19 24.07 27.33 23.87 27.89 23.76 C 28.26 24.36 28.98 25.54 29.35 26.13 C 28.98 26.63 28.25 27.62 27.88 28.12 C 27.89 29.37 27.88 30.63 27.87 31.88 C 28.26 32.39 29.03 33.40 29.41 33.91 C 29.03 34.44 28.25 35.49 27.87 36.01 C 25.78 35.65 23.97 36.63 22.22 37.62 C 22.09 38.18 21.81 39.30 21.67 39.86 C 20.56 39.88 19.46 39.89 18.35 39.89 C 18.21 39.32 17.92 38.19 17.77 37.62 C 16.03 36.63 14.21 35.63 12.12 36.01 C 11.74 35.48 10.97 34.43 10.58 33.90 C 10.97 33.40 11.74 32.40 12.12 31.90 C 12.11 30.63 12.11 29.37 12.12 28.10 C 11.73 27.60 10.97 26.59 10.59 26.08 C 10.97 25.56 11.74 24.51 12.12 23.98 C 14.21 24.35 16.03 23.36 17.77 22.37 C 17.92 21.81 18.21 20.67 18.36 20.10 M 18.37 26.37 C 15.62 27.48 15.13 31.72 17.75 33.25 C 19.66 34.80 22.69 33.80 23.62 31.62 C 25.30 28.54 21.47 24.66 18.37 26.37 Z" />
</g>
<g id="#000000ff">
<path fill="#000000" opacity="1.00" d=" M 0.00 14.96 C 0.87 13.54 2.04 11.91 3.94 12.05 C 15.31 11.96 26.69 11.96 38.07 12.06 C 40.63 11.92 42.30 14.57 42.00 16.92 C 41.97 25.97 42.09 35.04 41.94 44.09 C 42.01 46.61 39.43 48.31 37.08 48.00 C 26.02 47.97 14.96 48.08 3.90 47.94 C 1.96 48.02 0.62 46.43 0.00 44.77 L 0.00 14.96 M 18.36 20.10 C 18.21 20.67 17.92 21.81 17.77 22.37 C 16.03 23.36 14.21 24.35 12.12 23.98 C 11.74 24.51 10.97 25.56 10.59 26.08 C 10.97 26.59 11.73 27.60 12.12 28.10 C 12.11 29.37 12.11 30.63 12.12 31.90 C 11.74 32.40 10.97 33.40 10.58 33.90 C 10.97 34.43 11.74 35.48 12.12 36.01 C 14.21 35.63 16.03 36.63 17.77 37.62 C 17.92 38.19 18.21 39.32 18.35 39.89 C 19.46 39.89 20.56 39.88 21.67 39.86 C 21.81 39.30 22.09 38.18 22.22 37.62 C 23.97 36.63 25.78 35.65 27.87 36.01 C 28.25 35.49 29.03 34.44 29.41 33.91 C 29.03 33.40 28.26 32.39 27.87 31.88 C 27.88 30.63 27.89 29.37 27.88 28.12 C 28.25 27.62 28.98 26.63 29.35 26.13 C 28.98 25.54 28.26 24.36 27.89 23.76 C 27.33 23.87 26.19 24.07 25.63 24.17 C 24.52 23.53 23.39 22.92 22.24 22.34 C 22.10 21.79 21.80 20.68 21.65 20.13 C 20.55 20.11 19.46 20.10 18.36 20.10 Z" />
<path fill="#000000" opacity="1.00" d=" M 56.65 16.61 C 57.72 15.50 59.35 16.18 60.00 17.38 L 60.00 42.94 C 59.48 43.28 58.43 43.96 57.91 44.30 C 53.72 41.13 49.96 37.43 45.99 33.98 C 46.00 31.33 46.00 28.67 46.00 26.01 C 49.57 22.90 53.00 19.63 56.65 16.61 Z" />
<path fill="#000000" opacity="1.00" d=" M 18.37 26.37 C 21.47 24.66 25.30 28.54 23.62 31.62 C 22.69 33.80 19.66 34.80 17.75 33.25 C 15.13 31.72 15.62 27.48 18.37 26.37 Z" />
</g>
</svg>
