<?xml version="1.0" encoding="UTF-8" ?>
<!DOCTYPE svg PUBLIC "-//W3C//DTD SVG 1.1//EN" "http://www.w3.org/Graphics/SVG/1.1/DTD/svg11.dtd">
<svg width="60pt" height="60pt" viewBox="0 0 60 60" version="1.1" xmlns="http://www.w3.org/2000/svg">
<g id="#ffffffff">
<path fill="#ffffff" opacity="1.00" d=" M 0.00 0.00 L 60.00 0.00 L 60.00 60.00 L 0.00 60.00 L 0.00 0.00 M 22.95 5.06 C 17.27 6.50 12.15 10.44 9.89 15.92 C 7.22 22.27 8.12 29.34 8.04 36.05 C 7.89 39.22 9.77 42.00 12.40 43.61 C 15.48 50.50 22.11 56.28 30.00 55.97 C 37.87 56.27 44.51 50.53 47.55 43.64 C 50.20 42.05 52.09 39.26 51.95 36.09 C 52.01 28.24 52.90 19.57 48.18 12.76 C 46.46 9.92 43.39 8.33 40.19 7.81 C 35.74 3.23 28.67 3.43 22.95 5.06 Z" />
<path fill="#ffffff" opacity="1.00" d=" M 40.14 16.00 C 40.99 17.23 41.85 18.46 42.70 19.70 C 37.48 27.00 29.08 32.00 19.99 32.10 C 17.41 31.86 17.41 36.11 19.96 35.95 C 29.55 36.21 38.51 31.04 44.56 23.83 C 44.98 25.88 45.41 27.93 45.85 29.98 C 41.29 37.46 32.69 41.70 24.06 41.89 C 22.63 42.04 19.84 41.84 20.06 44.00 C 19.79 45.58 21.72 46.17 22.94 45.97 C 32.60 45.95 42.29 41.72 48.12 33.88 C 48.29 36.72 47.58 39.73 44.50 40.57 C 43.16 43.65 41.54 46.72 38.86 48.84 C 33.78 53.19 25.47 53.02 20.61 48.39 C 18.22 46.30 16.75 43.44 15.50 40.58 C 12.49 39.74 11.71 36.82 11.88 34.02 C 12.37 34.01 13.36 34.00 13.85 33.99 C 14.18 31.22 15.07 28.13 17.86 26.90 C 23.33 24.42 29.84 25.09 35.03 21.85 C 37.34 20.53 38.79 18.21 40.14 16.00 Z" />
</g>
<g id="#000000ff">
<path fill="#968176" opacity="1.00" d=" M 22.95 5.06 C 28.67 3.43 35.74 3.23 40.19 7.81 C 43.39 8.33 46.46 9.92 48.18 12.76 C 52.90 19.57 52.01 28.24 51.95 36.09 C 52.09 39.26 50.20 42.05 47.55 43.64 C 44.51 50.53 37.87 56.27 30.00 55.97 C 22.11 56.28 15.48 50.50 12.40 43.61 C 9.77 42.00 7.89 39.22 8.04 36.05 C 8.12 29.34 7.22 22.27 9.89 15.92 C 12.15 10.44 17.27 6.50 22.95 5.06 M 40.14 16.00 C 38.79 18.21 37.34 20.53 35.03 21.85 C 29.84 25.09 23.33 24.42 17.86 26.90 C 15.07 28.13 14.18 31.22 13.85 33.99 C 13.36 34.00 12.37 34.01 11.88 34.02 C 11.71 36.82 12.49 39.74 15.50 40.58 C 16.75 43.44 18.22 46.30 20.61 48.39 C 25.47 53.02 33.78 53.19 38.86 48.84 C 41.54 46.72 43.16 43.65 44.50 40.57 C 47.58 39.73 48.29 36.72 48.12 33.88 C 42.29 41.72 32.60 45.95 22.94 45.97 C 21.72 46.17 19.79 45.58 20.06 44.00 C 19.84 41.84 22.63 42.04 24.06 41.89 C 32.69 41.70 41.29 37.46 45.85 29.98 C 45.41 27.93 44.98 25.88 44.56 23.83 C 38.51 31.04 29.55 36.21 19.96 35.95 C 17.41 36.11 17.41 31.86 19.99 32.10 C 29.08 32.00 37.48 27.00 42.70 19.70 C 41.85 18.46 40.99 17.23 40.14 16.00 Z" />
</g>
</svg>
