<?xml version="1.0" encoding="UTF-8" ?>
<!DOCTYPE svg PUBLIC "-//W3C//DTD SVG 1.1//EN" "http://www.w3.org/Graphics/SVG/1.1/DTD/svg11.dtd">
<svg width="60pt" height="60pt" viewBox="0 0 60 60" version="1.1" xmlns="http://www.w3.org/2000/svg">
<g id="#ffffffff">
<path fill="#ffffff" opacity="1.00" d=" M 0.00 0.00 L 60.00 0.00 L 60.00 60.00 L 0.00 60.00 L 0.00 0.00 M 9.21 16.83 C 10.64 20.37 14.74 19.96 17.85 20.19 C 20.11 22.84 20.09 26.88 21.39 30.10 C 19.31 31.77 17.05 33.28 15.39 35.39 C 13.59 37.88 14.08 41.11 13.97 44.00 C 24.66 44.00 35.34 44.00 46.03 44.00 C 45.92 41.13 46.40 37.92 44.63 35.43 C 43.00 33.28 40.70 31.77 38.62 30.11 C 39.66 26.93 40.17 23.57 41.61 20.53 C 44.04 19.31 47.47 20.83 49.54 18.56 C 51.13 16.64 52.84 13.95 51.41 11.46 C 49.84 7.82 45.37 7.64 41.99 8.07 C 40.51 7.96 39.69 9.50 40.10 10.80 C 41.88 13.62 47.23 10.10 48.05 13.97 C 47.45 17.25 43.29 15.41 41.05 16.33 C 36.66 17.87 36.67 23.27 35.43 26.98 C 34.31 26.04 33.17 25.10 32.04 24.17 C 31.98 21.49 32.00 18.82 32.00 16.15 C 34.44 16.80 37.75 14.13 34.90 12.20 C 31.51 12.08 27.63 11.31 24.52 12.67 C 22.66 15.05 26.00 16.46 28.00 16.15 C 28.00 18.82 28.02 21.50 27.96 24.17 C 26.83 25.10 25.70 26.04 24.55 26.94 C 23.70 24.05 23.34 20.90 21.71 18.31 C 19.73 15.50 16.04 16.18 13.09 15.81 C 11.27 15.01 11.92 11.78 14.00 12.10 C 16.13 11.84 20.68 12.77 19.90 9.20 C 18.58 7.27 15.82 8.13 13.84 8.03 C 9.55 7.90 6.24 13.36 9.21 16.83 M 13.12 48.19 C 11.25 48.98 11.92 52.18 14.03 51.91 C 24.03 52.14 34.05 51.91 44.05 52.02 C 45.60 52.04 48.03 52.09 48.04 49.93 C 47.76 47.44 44.81 48.11 43.08 47.97 C 33.09 48.18 23.09 47.71 13.12 48.19 Z" />
<path fill="#ffffff" opacity="1.00" d=" M 29.16 28.11 C 31.54 27.06 33.23 30.91 30.78 31.83 C 28.44 32.96 26.83 29.14 29.16 28.11 Z" />
</g>
<g id="#000000ff">
<path fill="#000000" opacity="1.00" d=" M 9.21 16.83 C 6.24 13.36 9.55 7.90 13.84 8.03 C 15.82 8.13 18.58 7.27 19.90 9.20 C 20.68 12.77 16.13 11.84 14.00 12.10 C 11.92 11.78 11.27 15.01 13.09 15.81 C 16.04 16.18 19.73 15.50 21.71 18.31 C 23.34 20.90 23.70 24.05 24.55 26.94 C 25.70 26.04 26.83 25.10 27.96 24.17 C 28.02 21.50 28.00 18.82 28.00 16.15 C 26.00 16.46 22.66 15.05 24.52 12.67 C 27.63 11.31 31.51 12.08 34.90 12.20 C 37.75 14.13 34.44 16.80 32.00 16.15 C 32.00 18.82 31.98 21.49 32.04 24.17 C 33.17 25.10 34.31 26.04 35.43 26.98 C 36.67 23.27 36.66 17.87 41.05 16.33 C 43.29 15.41 47.45 17.25 48.05 13.97 C 47.23 10.10 41.88 13.62 40.10 10.80 C 39.69 9.50 40.51 7.96 41.99 8.07 C 45.37 7.64 49.84 7.82 51.41 11.46 C 52.84 13.95 51.13 16.64 49.54 18.56 C 47.47 20.83 44.04 19.31 41.61 20.53 C 40.17 23.57 39.66 26.93 38.62 30.11 C 40.70 31.77 43.00 33.28 44.63 35.43 C 46.40 37.92 45.92 41.13 46.03 44.00 C 35.34 44.00 24.66 44.00 13.97 44.00 C 14.08 41.11 13.59 37.88 15.39 35.39 C 17.05 33.28 19.31 31.77 21.39 30.10 C 20.09 26.88 20.11 22.84 17.85 20.19 C 14.74 19.96 10.64 20.37 9.21 16.83 M 29.16 28.11 C 26.83 29.14 28.44 32.96 30.78 31.83 C 33.23 30.91 31.54 27.06 29.16 28.11 Z" />
<path fill="#000000" opacity="1.00" d=" M 13.12 48.19 C 23.09 47.71 33.09 48.18 43.08 47.97 C 44.81 48.11 47.76 47.44 48.04 49.93 C 48.03 52.09 45.60 52.04 44.05 52.02 C 34.05 51.91 24.03 52.14 14.03 51.91 C 11.92 52.18 11.25 48.98 13.12 48.19 Z" />
</g>
</svg>
