<?xml version="1.0" encoding="UTF-8" ?>
<!DOCTYPE svg PUBLIC "-//W3C//DTD SVG 1.1//EN" "http://www.w3.org/Graphics/SVG/1.1/DTD/svg11.dtd">
<svg width="60pt" height="60pt" viewBox="0 0 60 60" version="1.1" xmlns="http://www.w3.org/2000/svg">
<g id="#ffffffff">
<path fill="#ffffff" opacity="1.00" d=" M 0.00 0.00 L 60.00 0.00 L 60.00 60.00 L 0.00 60.00 L 0.00 0.00 M 24.08 6.05 C 23.29 13.46 15.75 17.70 14.34 24.91 C 12.38 32.62 18.89 41.63 26.81 41.87 C 29.90 39.75 25.58 37.35 24.71 35.24 C 22.39 30.11 26.35 25.29 29.84 21.92 C 29.47 24.62 29.96 27.30 31.46 29.59 C 33.42 32.73 33.81 36.42 34.08 40.02 C 33.91 41.29 35.58 42.56 36.69 41.81 C 41.54 39.45 46.49 34.81 45.95 28.94 C 45.48 24.18 43.89 19.57 41.81 15.28 C 41.38 13.66 38.85 13.53 38.29 15.11 C 37.79 17.53 37.46 20.03 36.17 22.20 C 36.17 15.02 32.21 8.63 26.82 4.17 C 25.46 3.57 24.05 4.59 24.08 6.05 M 11.21 45.74 C 15.43 47.98 19.92 45.73 24.15 44.80 C 20.11 43.99 16.17 42.67 12.08 42.10 C 9.98 41.52 9.13 45.25 11.21 45.74 M 47.27 42.15 C 36.57 44.79 25.85 47.41 15.20 50.25 C 12.78 51.03 14.45 54.94 16.76 53.83 C 27.43 51.16 38.17 48.70 48.76 45.76 C 51.27 45.04 49.63 41.05 47.27 42.15 M 36.95 51.92 C 39.99 52.56 42.96 53.56 46.05 53.95 C 48.75 54.02 48.43 49.78 45.83 49.85 C 42.81 50.26 39.91 51.23 36.95 51.92 Z" />
</g>
<g id="#000000ff">
<path fill="#000000" opacity="1.00" d=" M 24.08 6.05 C 24.05 4.59 25.46 3.57 26.82 4.17 C 32.21 8.63 36.17 15.02 36.17 22.20 C 37.46 20.03 37.79 17.53 38.29 15.11 C 38.85 13.53 41.38 13.66 41.81 15.28 C 43.89 19.57 45.48 24.18 45.95 28.94 C 46.49 34.81 41.54 39.45 36.69 41.81 C 35.58 42.56 33.91 41.29 34.08 40.02 C 33.81 36.42 33.42 32.73 31.46 29.59 C 29.96 27.30 29.47 24.62 29.84 21.92 C 26.35 25.29 22.39 30.11 24.71 35.24 C 25.58 37.35 29.90 39.75 26.81 41.87 C 18.89 41.63 12.38 32.62 14.34 24.91 C 15.75 17.70 23.29 13.46 24.08 6.05 Z" />
<path fill="#000000" opacity="1.00" d=" M 11.21 45.74 C 9.13 45.25 9.98 41.52 12.08 42.10 C 16.17 42.67 20.11 43.99 24.15 44.80 C 19.92 45.73 15.43 47.98 11.21 45.74 Z" />
<path fill="#000000" opacity="1.00" d=" M 47.27 42.15 C 49.63 41.05 51.27 45.04 48.76 45.76 C 38.17 48.70 27.43 51.16 16.76 53.83 C 14.45 54.94 12.78 51.03 15.20 50.25 C 25.85 47.41 36.57 44.79 47.27 42.15 Z" />
<path fill="#000000" opacity="1.00" d=" M 36.95 51.92 C 39.91 51.23 42.81 50.26 45.83 49.85 C 48.43 49.78 48.75 54.02 46.05 53.95 C 42.96 53.56 39.99 52.56 36.95 51.92 Z" />
</g>
</svg>
