<?xml version="1.0" encoding="UTF-8" ?>
<!DOCTYPE svg PUBLIC "-//W3C//DTD SVG 1.1//EN" "http://www.w3.org/Graphics/SVG/1.1/DTD/svg11.dtd">
<svg width="60pt" height="60pt" viewBox="0 0 60 60" version="1.1" xmlns="http://www.w3.org/2000/svg">
<g id="#ffffffff">
<path fill="#ffffff" opacity="1.00" d=" M 0.00 0.00 L 60.00 0.00 L 60.00 17.30 C 59.37 15.61 58.08 13.90 56.06 14.05 C 42.03 13.96 28.00 13.97 13.97 14.05 C 11.52 13.90 10.22 16.29 8.78 17.86 C 5.94 21.69 2.39 25.01 0.00 29.17 L 0.00 0.00 Z" />
<path fill="#ffffff" opacity="1.00" d=" M 12.37 26.37 C 15.47 24.66 19.29 28.53 17.63 31.61 C 16.61 34.10 13.02 34.83 11.19 32.81 C 9.13 31.01 9.91 27.39 12.37 26.37 Z" />
<path fill="#ffffff" opacity="1.00" d=" M 24.32 26.40 C 27.43 24.61 31.34 28.56 29.61 31.66 C 28.56 34.12 25.00 34.81 23.17 32.80 C 21.16 31.01 21.89 27.43 24.32 26.40 Z" />
<path fill="#ffffff" opacity="1.00" d=" M 36.37 26.37 C 39.49 24.65 43.33 28.58 41.60 31.66 C 40.56 34.12 37.01 34.81 35.19 32.82 C 33.14 31.02 33.91 27.40 36.37 26.37 Z" />
<path fill="#ffffff" opacity="1.00" d=" M 48.30 26.41 C 50.79 24.98 54.09 27.24 54.00 30.01 C 54.08 33.02 50.20 35.21 47.76 33.28 C 45.18 31.75 45.58 27.56 48.30 26.41 Z" />
<path fill="#ffffff" opacity="1.00" d=" M 0.00 30.54 C 1.86 34.58 5.37 37.52 7.94 41.09 C 9.69 42.95 11.07 46.00 14.00 45.96 C 27.70 46.06 41.41 45.98 55.12 46.00 C 57.34 46.31 59.22 44.86 60.00 42.86 L 60.00 60.00 L 0.00 60.00 L 0.00 30.54 Z" />
</g>
<g id="#000000ff">
<path fill="#000000" opacity="1.00" d=" M 8.78 17.86 C 10.22 16.29 11.52 13.90 13.97 14.05 C 28.00 13.97 42.03 13.96 56.06 14.05 C 58.08 13.90 59.37 15.61 60.00 17.30 L 60.00 42.86 C 59.22 44.86 57.34 46.31 55.12 46.00 C 41.41 45.98 27.70 46.06 14.00 45.96 C 11.07 46.00 9.69 42.95 7.94 41.09 C 5.37 37.52 1.86 34.58 0.00 30.54 L 0.00 29.17 C 2.39 25.01 5.94 21.69 8.78 17.86 M 12.37 26.37 C 9.91 27.39 9.13 31.01 11.19 32.81 C 13.02 34.83 16.61 34.10 17.63 31.61 C 19.29 28.53 15.47 24.66 12.37 26.37 M 24.32 26.40 C 21.89 27.43 21.16 31.01 23.17 32.80 C 25.00 34.81 28.56 34.12 29.61 31.66 C 31.34 28.56 27.43 24.61 24.32 26.40 M 36.37 26.37 C 33.91 27.40 33.14 31.02 35.19 32.82 C 37.01 34.81 40.56 34.12 41.60 31.66 C 43.33 28.58 39.49 24.65 36.37 26.37 M 48.30 26.41 C 45.58 27.56 45.18 31.75 47.76 33.28 C 50.20 35.21 54.08 33.02 54.00 30.01 C 54.09 27.24 50.79 24.98 48.30 26.41 Z" />
</g>
</svg>
