<?xml version="1.0" encoding="UTF-8" ?>
<!DOCTYPE svg PUBLIC "-//W3C//DTD SVG 1.1//EN" "http://www.w3.org/Graphics/SVG/1.1/DTD/svg11.dtd">
<svg width="60pt" height="60pt" viewBox="0 0 60 60" version="1.1" xmlns="http://www.w3.org/2000/svg">
<g id="#ffffffff">
<path fill="#ffffff" opacity="1.00" d=" M 0.00 0.00 L 60.00 0.00 L 60.00 60.00 L 0.00 60.00 L 0.00 0.00 M 24.48 6.64 C 17.60 8.25 11.55 13.07 8.46 19.43 C 5.19 25.99 5.20 34.06 8.48 40.61 C 11.92 47.67 19.03 52.81 26.84 53.77 C 33.65 54.71 40.84 52.54 45.94 47.92 C 51.28 43.22 54.32 36.05 53.96 28.94 C 53.70 22.06 50.27 15.38 44.84 11.15 C 39.22 6.64 31.49 4.97 24.48 6.64 Z" />
<path fill="#ffffff" opacity="1.00" d=" M 20.18 22.79 C 19.33 21.27 21.27 19.33 22.79 20.19 C 25.41 22.27 27.57 24.87 30.01 27.16 C 32.45 24.87 34.60 22.26 37.23 20.17 C 38.81 19.39 40.56 21.21 39.85 22.79 C 37.73 25.38 35.15 27.56 32.86 30.00 C 35.13 32.44 37.75 34.58 39.82 37.22 C 40.68 38.72 38.69 40.69 37.18 39.80 C 34.58 37.71 32.44 35.12 30.02 32.84 C 27.57 35.12 25.41 37.72 22.80 39.82 C 21.19 40.61 19.44 38.80 20.15 37.21 C 22.29 34.62 24.87 32.43 27.18 30.00 C 24.88 27.56 22.28 25.40 20.18 22.79 Z" />
</g>
<g id="#000000ff">
<path fill="#000000" opacity="1.00" d=" M 24.48 6.64 C 31.49 4.97 39.22 6.64 44.84 11.15 C 50.27 15.38 53.70 22.06 53.96 28.94 C 54.32 36.05 51.28 43.22 45.94 47.92 C 40.84 52.54 33.65 54.71 26.84 53.77 C 19.03 52.81 11.92 47.67 8.48 40.61 C 5.20 34.06 5.19 25.99 8.46 19.43 C 11.55 13.07 17.60 8.25 24.48 6.64 M 20.18 22.79 C 22.28 25.40 24.88 27.56 27.18 30.00 C 24.87 32.43 22.29 34.62 20.15 37.21 C 19.44 38.80 21.19 40.61 22.80 39.82 C 25.41 37.72 27.57 35.12 30.02 32.84 C 32.44 35.12 34.58 37.71 37.18 39.80 C 38.69 40.69 40.68 38.72 39.82 37.22 C 37.75 34.58 35.13 32.44 32.86 30.00 C 35.15 27.56 37.73 25.38 39.85 22.79 C 40.56 21.21 38.81 19.39 37.23 20.17 C 34.60 22.26 32.45 24.87 30.01 27.16 C 27.57 24.87 25.41 22.27 22.79 20.19 C 21.27 19.33 19.33 21.27 20.18 22.79 Z" />
</g>
</svg>
