<?xml version="1.0" encoding="UTF-8" ?>
<!DOCTYPE svg PUBLIC "-//W3C//DTD SVG 1.1//EN" "http://www.w3.org/Graphics/SVG/1.1/DTD/svg11.dtd">
<svg width="60pt" height="60pt" viewBox="0 0 60 60" version="1.1" xmlns="http://www.w3.org/2000/svg">
<g id="#ffffffff">
<path fill="#ffffff" opacity="1.00" d=" M 0.00 0.00 L 60.00 0.00 L 60.00 60.00 L 0.00 60.00 L 0.00 0.00 M 10.53 12.68 C 8.71 14.44 11.53 17.16 13.34 15.49 C 21.51 11.31 31.08 11.42 39.88 13.17 C 36.51 15.96 34.88 20.84 36.85 24.93 C 39.06 30.25 46.68 31.55 50.92 27.91 C 55.17 24.39 54.98 16.84 50.38 13.70 C 42.39 8.41 32.29 7.32 22.96 8.44 C 18.65 9.16 14.18 10.16 10.53 12.68 M 11.46 30.67 C 5.40 32.83 4.14 41.89 9.06 45.87 C 12.98 48.77 17.73 50.40 22.50 51.25 C 31.30 52.71 40.82 52.12 48.78 47.80 C 51.24 47.00 49.60 42.95 47.32 44.24 C 38.96 48.55 29.15 48.73 20.12 46.78 C 22.84 44.44 24.63 40.86 23.82 37.22 C 23.07 31.62 16.47 28.51 11.46 30.67 Z" />
<path fill="#ffffff" opacity="1.00" d=" M 43.21 16.25 C 46.81 14.83 50.91 18.21 49.91 22.03 C 49.48 25.72 44.64 27.15 41.87 25.06 C 38.92 22.85 39.54 17.34 43.21 16.25 Z" />
<path fill="#ffffff" opacity="1.00" d=" M 13.21 34.25 C 16.84 32.81 20.92 36.21 19.90 40.05 C 19.46 43.72 14.67 45.15 11.90 43.06 C 8.90 40.89 9.55 35.33 13.21 34.25 Z" />
</g>
<g id="#000000ff">
<path fill="#000000" opacity="1.00" d=" M 10.53 12.68 C 14.18 10.16 18.65 9.16 22.96 8.44 C 32.29 7.32 42.39 8.41 50.38 13.70 C 54.98 16.84 55.17 24.39 50.92 27.91 C 46.68 31.55 39.06 30.25 36.85 24.93 C 34.88 20.84 36.51 15.96 39.88 13.17 C 31.08 11.42 21.51 11.31 13.34 15.49 C 11.53 17.16 8.71 14.44 10.53 12.68 M 43.21 16.25 C 39.54 17.34 38.92 22.85 41.87 25.06 C 44.64 27.15 49.48 25.72 49.91 22.03 C 50.91 18.21 46.81 14.83 43.21 16.25 Z" />
<path fill="#000000" opacity="1.00" d=" M 11.46 30.67 C 16.47 28.51 23.07 31.62 23.82 37.22 C 24.63 40.86 22.84 44.44 20.12 46.78 C 29.15 48.73 38.96 48.55 47.32 44.24 C 49.60 42.95 51.24 47.00 48.78 47.80 C 40.82 52.12 31.30 52.71 22.50 51.25 C 17.73 50.40 12.98 48.77 9.06 45.87 C 4.14 41.89 5.40 32.83 11.46 30.67 M 13.21 34.25 C 9.55 35.33 8.90 40.89 11.90 43.06 C 14.67 45.15 19.46 43.72 19.90 40.05 C 20.92 36.21 16.84 32.81 13.21 34.25 Z" />
</g>
</svg>
