<?xml version="1.0" encoding="UTF-8" ?>
<!DOCTYPE svg PUBLIC "-//W3C//DTD SVG 1.1//EN" "http://www.w3.org/Graphics/SVG/1.1/DTD/svg11.dtd">
<svg width="60pt" height="60pt" viewBox="0 0 60 60" version="1.1" xmlns="http://www.w3.org/2000/svg">
<g id="#ffffffff">
<path fill="#ffffff" opacity="1.00" d=" M 0.00 0.00 L 60.00 0.00 L 60.00 60.00 L 0.00 60.00 L 0.00 0.00 M 24.49 6.65 C 16.37 8.53 9.49 14.94 7.08 22.93 C 4.57 30.77 6.55 39.83 12.08 45.93 C 17.45 52.05 26.06 55.10 34.09 53.63 C 43.10 52.14 50.85 45.05 53.16 36.22 C 55.51 27.87 52.78 18.41 46.43 12.54 C 40.71 7.06 32.18 4.77 24.49 6.65 Z" />
<path fill="#ffffff" opacity="1.00" d=" M 17.32 14.51 C 21.75 11.02 27.59 9.27 33.19 10.27 C 40.51 11.35 46.92 16.89 49.06 23.97 C 51.10 30.28 49.75 37.63 45.36 42.65 C 36.13 33.16 26.67 23.89 17.32 14.51 Z" />
<path fill="#ffffff" opacity="1.00" d=" M 10.27 33.20 C 9.26 27.59 11.01 21.76 14.51 17.33 C 23.88 26.75 33.34 36.09 42.67 45.55 C 38.21 48.90 32.49 50.74 26.91 49.75 C 18.56 48.59 11.47 41.55 10.27 33.20 Z" />
</g>
<g id="#000000ff">
<path fill="#000000" opacity="1.00" d=" M 24.49 6.65 C 32.18 4.77 40.71 7.06 46.43 12.54 C 52.78 18.41 55.51 27.87 53.16 36.22 C 50.85 45.05 43.10 52.14 34.09 53.63 C 26.06 55.10 17.45 52.05 12.08 45.93 C 6.55 39.83 4.57 30.77 7.08 22.93 C 9.49 14.94 16.37 8.53 24.49 6.65 M 17.32 14.51 C 26.67 23.89 36.13 33.16 45.36 42.65 C 49.75 37.63 51.10 30.28 49.06 23.97 C 46.92 16.89 40.51 11.35 33.19 10.27 C 27.59 9.27 21.75 11.02 17.32 14.51 M 10.27 33.20 C 11.47 41.55 18.56 48.59 26.91 49.75 C 32.49 50.74 38.21 48.90 42.67 45.55 C 33.34 36.09 23.88 26.75 14.51 17.33 C 11.01 21.76 9.26 27.59 10.27 33.20 Z" />
</g>
</svg>
