<?xml version="1.0" encoding="UTF-8" ?>
<!DOCTYPE svg PUBLIC "-//W3C//DTD SVG 1.1//EN" "http://www.w3.org/Graphics/SVG/1.1/DTD/svg11.dtd">
<svg width="60pt" height="60pt" viewBox="0 0 60 60" version="1.1" xmlns="http://www.w3.org/2000/svg">
<g id="#ffffffff">
<path fill="#ffffff" opacity="1.00" d=" M 0.00 0.00 L 60.00 0.00 L 60.00 17.07 C 59.20 15.58 58.04 13.90 56.11 14.06 C 42.40 13.91 28.68 14.04 14.96 14.00 C 11.83 13.47 10.06 16.34 8.34 18.40 C 5.62 22.01 2.35 25.20 0.00 29.08 L 0.00 0.00 Z" />
<path fill="#ffffff" opacity="1.00" d=" M 30.30 26.41 C 32.79 24.97 36.05 27.23 36.01 29.98 C 36.09 32.99 32.24 35.23 29.78 33.28 C 27.17 31.78 27.57 27.57 30.30 26.41 Z" />
<path fill="#ffffff" opacity="1.00" d=" M 0.00 30.73 C 2.33 34.97 5.95 38.28 8.79 42.16 C 10.23 43.71 11.53 46.09 13.96 45.95 C 27.67 46.07 41.38 45.98 55.09 45.99 C 57.32 46.34 59.10 44.87 60.00 42.97 L 60.00 60.00 L 0.00 60.00 L 0.00 30.73 Z" />
</g>
<g id="#000000ff">
<path fill="#000000" opacity="1.00" d=" M 8.34 18.40 C 10.06 16.34 11.83 13.47 14.96 14.00 C 28.68 14.04 42.40 13.91 56.11 14.06 C 58.04 13.90 59.20 15.58 60.00 17.07 L 60.00 42.97 C 59.10 44.87 57.32 46.34 55.09 45.99 C 41.38 45.98 27.67 46.07 13.96 45.95 C 11.53 46.09 10.23 43.71 8.79 42.16 C 5.95 38.28 2.33 34.97 0.00 30.73 L 0.00 29.08 C 2.35 25.20 5.62 22.01 8.34 18.40 M 30.30 26.41 C 27.57 27.57 27.17 31.78 29.78 33.28 C 32.24 35.23 36.09 32.99 36.01 29.98 C 36.05 27.23 32.79 24.97 30.30 26.41 Z" />
</g>
</svg>
