<?xml version="1.0" encoding="UTF-8" ?>
<!DOCTYPE svg PUBLIC "-//W3C//DTD SVG 1.1//EN" "http://www.w3.org/Graphics/SVG/1.1/DTD/svg11.dtd">
<svg width="64pt" height="64pt" viewBox="0 0 64 64" version="1.1" xmlns="http://www.w3.org/2000/svg">
<g id="#ffffffff">
<path fill="#ffffff" opacity="1.00" d=" M 0.00 0.00 L 64.00 0.00 L 64.00 64.00 L 0.00 64.00 L 0.00 0.00 M 21.80 11.56 C 24.61 14.39 27.53 17.12 30.24 20.06 C 32.02 18.55 33.42 16.06 36.01 15.98 C 38.79 15.88 40.96 19.18 39.61 21.66 C 38.29 23.63 36.43 25.15 34.78 26.84 C 26.52 35.04 18.29 43.29 10.01 51.47 C 12.86 54.28 15.67 57.13 18.47 59.99 C 27.89 50.57 37.38 41.22 46.83 31.81 C 50.58 28.27 52.62 22.95 51.83 17.81 C 50.85 9.41 42.30 2.83 33.92 4.14 C 28.92 4.58 25.04 8.04 21.80 11.56 Z" />
<path fill="#ffffff" opacity="1.00" d=" M 34.81 7.88 C 36.74 8.10 38.68 8.33 40.60 8.73 C 39.87 10.02 39.13 11.30 38.38 12.57 C 35.70 12.51 35.47 9.85 34.81 7.88 Z" />
<path fill="#ffffff" opacity="1.00" d=" M 27.38 11.46 C 28.59 10.61 29.82 9.80 31.10 9.06 C 31.62 10.98 32.77 13.14 30.61 14.53 C 29.49 13.56 28.42 12.53 27.38 11.46 Z" />
<path fill="#ffffff" opacity="1.00" d=" M 41.83 14.82 C 42.52 13.50 43.24 12.18 44.00 10.90 C 45.04 12.23 46.03 13.59 47.01 14.96 C 45.79 15.40 44.58 15.86 43.38 16.34 C 42.99 15.96 42.22 15.20 41.83 14.82 Z" />
<path fill="#ffffff" opacity="1.00" d=" M 44.13 20.23 C 45.47 19.77 46.80 19.31 48.14 18.86 C 47.92 20.60 47.67 22.33 47.37 24.06 C 45.92 24.02 44.47 24.00 43.02 24.00 C 43.45 22.76 43.82 21.50 44.13 20.23 Z" />
<path fill="#ffffff" opacity="1.00" d=" M 39.29 28.01 C 41.18 28.00 43.08 28.00 44.98 28.00 C 43.66 29.34 42.32 30.67 40.99 32.00 C 39.10 32.00 37.21 32.00 35.32 32.00 C 36.64 30.67 37.97 29.34 39.29 28.01 Z" />
<path fill="#ffffff" opacity="1.00" d=" M 31.25 36.00 C 33.15 36.00 35.06 36.00 36.96 36.00 C 35.63 37.34 34.29 38.67 32.96 40.00 C 31.06 40.00 29.16 40.00 27.27 40.00 C 28.59 38.66 29.92 37.34 31.25 36.00 Z" />
<path fill="#ffffff" opacity="1.00" d=" M 23.25 44.00 C 25.13 44.00 27.02 44.00 28.90 44.00 C 27.57 45.34 26.23 46.67 24.90 48.00 C 23.00 48.00 21.10 48.00 19.20 48.00 C 20.55 46.67 21.91 45.34 23.25 44.00 Z" />
<path fill="#ffffff" opacity="1.00" d=" M 17.19 52.28 C 18.35 51.66 19.32 51.81 20.11 52.73 C 19.83 54.28 16.18 53.77 17.19 52.28 Z" />
</g>
<g id="#000000ff">
<path fill="#000000" opacity="1.00" d=" M 21.80 11.56 C 25.04 8.04 28.92 4.58 33.92 4.14 C 42.30 2.83 50.85 9.41 51.83 17.81 C 52.62 22.95 50.58 28.27 46.83 31.81 C 37.38 41.22 27.89 50.57 18.47 59.99 C 15.67 57.13 12.86 54.28 10.01 51.47 C 18.29 43.29 26.52 35.04 34.78 26.84 C 36.43 25.15 38.29 23.63 39.61 21.66 C 40.96 19.18 38.79 15.88 36.01 15.98 C 33.42 16.06 32.02 18.55 30.24 20.06 C 27.53 17.12 24.61 14.39 21.80 11.56 M 34.81 7.88 C 35.47 9.85 35.70 12.51 38.38 12.57 C 39.13 11.30 39.87 10.02 40.60 8.73 C 38.68 8.33 36.74 8.10 34.81 7.88 M 27.38 11.46 C 28.42 12.53 29.49 13.56 30.61 14.53 C 32.77 13.14 31.62 10.98 31.10 9.06 C 29.82 9.80 28.59 10.61 27.38 11.46 M 41.83 14.82 C 42.22 15.20 42.99 15.96 43.38 16.34 C 44.58 15.86 45.79 15.40 47.01 14.96 C 46.03 13.59 45.04 12.23 44.00 10.90 C 43.24 12.18 42.52 13.50 41.83 14.82 M 44.13 20.23 C 43.82 21.50 43.45 22.76 43.02 24.00 C 44.47 24.00 45.92 24.02 47.37 24.06 C 47.67 22.33 47.92 20.60 48.14 18.86 C 46.80 19.31 45.47 19.77 44.13 20.23 M 39.29 28.01 C 37.97 29.34 36.64 30.67 35.32 32.00 C 37.21 32.00 39.10 32.00 40.99 32.00 C 42.32 30.67 43.66 29.34 44.98 28.00 C 43.08 28.00 41.18 28.00 39.29 28.01 M 31.25 36.00 C 29.92 37.34 28.59 38.66 27.27 40.00 C 29.16 40.00 31.06 40.00 32.96 40.00 C 34.29 38.67 35.63 37.34 36.96 36.00 C 35.06 36.00 33.15 36.00 31.25 36.00 M 23.25 44.00 C 21.91 45.34 20.55 46.67 19.20 48.00 C 21.10 48.00 23.00 48.00 24.90 48.00 C 26.23 46.67 27.57 45.34 28.90 44.00 C 27.02 44.00 25.13 44.00 23.25 44.00 M 17.19 52.28 C 16.18 53.77 19.83 54.28 20.11 52.73 C 19.32 51.81 18.35 51.66 17.19 52.28 Z" />
</g>
</svg>
