<?xml version="1.0" encoding="UTF-8" ?>
<!DOCTYPE svg PUBLIC "-//W3C//DTD SVG 1.1//EN" "http://www.w3.org/Graphics/SVG/1.1/DTD/svg11.dtd">
<svg width="60pt" height="60pt" viewBox="0 0 60 60" version="1.1" xmlns="http://www.w3.org/2000/svg">
<g id="#ffffffff">
<path fill="#ffffff" opacity="1.00" d=" M 0.00 0.00 L 60.00 0.00 L 60.00 60.00 L 0.00 60.00 L 0.00 0.00 M 13.22 8.16 C 11.35 9.63 9.65 11.34 8.17 13.20 C 7.45 14.84 9.12 16.57 10.78 15.84 C 12.66 14.36 14.38 12.64 15.85 10.75 C 16.52 9.10 14.86 7.45 13.22 8.16 M 25.22 8.15 C 19.65 13.25 14.50 18.82 9.08 24.10 C 7.77 25.01 7.61 27.11 9.14 27.90 C 10.83 28.40 11.88 26.91 12.95 25.92 C 17.70 21.07 22.59 16.36 27.30 11.47 C 29.00 10.08 27.26 7.21 25.22 8.15 M 33.22 8.15 C 24.84 16.11 16.79 24.44 8.62 32.62 C 6.66 34.35 9.66 37.35 11.39 35.38 C 18.97 27.98 26.38 20.39 33.92 12.94 C 34.61 11.99 36.07 11.30 35.93 9.96 C 36.19 8.51 34.43 7.66 33.22 8.15 M 45.17 8.20 C 33.11 19.80 21.48 31.86 9.55 43.60 C 8.51 44.45 7.22 46.24 8.59 47.37 C 9.71 48.84 11.48 47.49 12.36 46.49 C 23.54 35.29 34.73 24.09 45.94 12.92 C 46.65 12.02 47.89 11.33 47.96 10.08 C 48.22 8.60 46.43 7.55 45.17 8.20 M 49.23 12.14 C 36.85 24.11 24.78 36.45 12.60 48.64 C 10.68 50.37 13.66 53.32 15.38 51.38 C 27.29 39.64 39.06 27.74 50.90 15.93 C 52.99 14.68 51.68 11.14 49.23 12.14 M 49.23 24.14 C 40.85 32.10 32.79 40.44 24.61 48.63 C 22.67 50.35 25.66 53.35 27.38 51.38 C 35.44 43.44 43.46 35.44 51.39 27.37 C 52.96 25.95 51.20 23.25 49.23 24.14 M 49.25 32.13 C 43.98 36.88 39.21 42.17 34.07 47.07 C 33.38 47.99 32.01 48.67 32.07 49.97 C 31.72 51.77 34.36 52.69 35.43 51.34 C 40.78 46.06 46.15 40.79 51.38 35.38 C 52.94 33.98 51.22 31.24 49.25 32.13 M 49.23 44.16 C 47.36 45.63 45.64 47.33 44.17 49.21 C 43.46 50.86 45.11 52.56 46.78 51.84 C 48.66 50.36 50.37 48.64 51.85 46.76 C 52.53 45.11 50.87 43.47 49.23 44.16 Z" />
</g>
<g id="#000000ff">
<path fill="#000000" opacity="1.00" d=" M 13.22 8.16 C 14.86 7.45 16.52 9.10 15.85 10.75 C 14.38 12.64 12.66 14.36 10.78 15.84 C 9.12 16.57 7.45 14.84 8.17 13.20 C 9.65 11.34 11.35 9.63 13.22 8.16 Z" />
<path fill="#000000" opacity="1.00" d=" M 25.22 8.15 C 27.26 7.21 29.00 10.08 27.30 11.47 C 22.59 16.36 17.70 21.07 12.95 25.92 C 11.88 26.91 10.83 28.40 9.14 27.90 C 7.61 27.11 7.77 25.01 9.08 24.10 C 14.50 18.82 19.65 13.25 25.22 8.15 Z" />
<path fill="#000000" opacity="1.00" d=" M 33.22 8.15 C 34.43 7.66 36.19 8.51 35.93 9.96 C 36.07 11.30 34.61 11.99 33.92 12.94 C 26.38 20.39 18.97 27.98 11.39 35.38 C 9.66 37.35 6.66 34.35 8.62 32.62 C 16.79 24.44 24.84 16.11 33.22 8.15 Z" />
<path fill="#000000" opacity="1.00" d=" M 45.17 8.20 C 46.43 7.55 48.22 8.60 47.96 10.08 C 47.89 11.33 46.65 12.02 45.94 12.92 C 34.73 24.09 23.54 35.29 12.36 46.49 C 11.48 47.49 9.71 48.84 8.59 47.37 C 7.22 46.24 8.51 44.45 9.55 43.60 C 21.48 31.86 33.11 19.80 45.17 8.20 Z" />
<path fill="#000000" opacity="1.00" d=" M 49.23 12.14 C 51.68 11.14 52.99 14.68 50.90 15.93 C 39.06 27.74 27.29 39.64 15.38 51.38 C 13.66 53.32 10.68 50.37 12.60 48.64 C 24.78 36.45 36.85 24.11 49.23 12.14 Z" />
<path fill="#000000" opacity="1.00" d=" M 49.23 24.14 C 51.20 23.25 52.96 25.95 51.39 27.37 C 43.46 35.44 35.44 43.44 27.38 51.38 C 25.66 53.35 22.67 50.35 24.61 48.63 C 32.79 40.44 40.85 32.10 49.23 24.14 Z" />
<path fill="#000000" opacity="1.00" d=" M 49.25 32.13 C 51.22 31.24 52.94 33.98 51.38 35.38 C 46.15 40.79 40.78 46.06 35.43 51.34 C 34.36 52.69 31.72 51.77 32.07 49.97 C 32.01 48.67 33.38 47.99 34.07 47.07 C 39.21 42.17 43.98 36.88 49.25 32.13 Z" />
<path fill="#000000" opacity="1.00" d=" M 49.23 44.16 C 50.87 43.47 52.53 45.11 51.85 46.76 C 50.37 48.64 48.66 50.36 46.78 51.84 C 45.11 52.56 43.46 50.86 44.17 49.21 C 45.64 47.33 47.36 45.63 49.23 44.16 Z" />
</g>
</svg>
