<?xml version="1.0" encoding="UTF-8" ?>
<!DOCTYPE svg PUBLIC "-//W3C//DTD SVG 1.1//EN" "http://www.w3.org/Graphics/SVG/1.1/DTD/svg11.dtd">
<svg width="60pt" height="60pt" viewBox="0 0 60 60" version="1.1" xmlns="http://www.w3.org/2000/svg">
<g id="#ffffffff">
<path fill="#ffffff" opacity="1.00" d=" M 0.00 0.00 L 60.00 0.00 L 60.00 60.00 L 0.00 60.00 L 0.00 0.00 M 47.40 12.87 C 37.48 16.28 27.47 19.39 17.55 22.77 C 16.52 19.39 14.04 15.77 10.05 16.04 C 8.06 15.72 7.06 19.13 9.19 19.57 C 11.61 20.03 13.09 21.72 13.78 24.02 C 11.83 24.64 9.81 25.12 7.98 26.06 C 5.91 28.13 6.01 31.35 5.82 34.07 C 5.18 34.71 4.53 35.34 3.88 35.97 C 3.77 38.61 5.69 40.31 8.29 40.07 C 10.16 41.78 12.27 43.19 14.65 44.08 C 16.23 46.36 18.07 48.68 20.86 49.48 C 26.10 51.38 32.37 47.93 33.65 42.52 C 34.56 39.61 33.52 36.66 32.20 34.08 C 38.63 30.10 45.02 26.05 51.45 22.06 C 52.87 22.38 54.81 22.68 55.61 21.07 C 54.69 17.43 52.93 13.92 50.88 10.79 C 49.37 9.33 47.87 11.61 47.40 12.87 Z" />
<path fill="#ffffff" opacity="1.00" d=" M 21.40 34.59 C 25.15 32.59 30.17 35.73 29.99 39.98 C 30.22 44.50 24.61 47.64 20.86 45.12 C 16.88 42.92 17.20 36.36 21.40 34.59 M 23.23 38.16 C 20.74 39.00 22.50 43.04 24.79 41.81 C 27.23 40.94 25.54 37.05 23.23 38.16 Z" />
</g>
<g id="#000000ff">
<path fill="#000000" opacity="1.00" d=" M 47.40 12.87 C 47.87 11.61 49.37 9.33 50.88 10.79 C 52.93 13.92 54.69 17.43 55.61 21.07 C 54.81 22.68 52.87 22.38 51.45 22.06 C 45.02 26.05 38.63 30.10 32.20 34.08 C 33.52 36.66 34.56 39.61 33.65 42.52 C 32.37 47.93 26.10 51.38 20.86 49.48 C 18.07 48.68 16.23 46.36 14.65 44.08 C 12.27 43.19 10.16 41.78 8.29 40.07 C 5.69 40.31 3.77 38.61 3.88 35.97 C 4.53 35.34 5.18 34.71 5.82 34.07 C 6.01 31.35 5.91 28.13 7.98 26.06 C 9.81 25.12 11.83 24.64 13.78 24.02 C 13.09 21.72 11.61 20.03 9.19 19.57 C 7.06 19.13 8.06 15.72 10.05 16.04 C 14.04 15.77 16.52 19.39 17.55 22.77 C 27.47 19.39 37.48 16.28 47.40 12.87 M 21.40 34.59 C 17.20 36.36 16.88 42.92 20.86 45.12 C 24.61 47.64 30.22 44.50 29.99 39.98 C 30.17 35.73 25.15 32.59 21.40 34.59 Z" />
<path fill="#000000" opacity="1.00" d=" M 23.23 38.16 C 25.54 37.05 27.23 40.94 24.79 41.81 C 22.50 43.04 20.74 39.00 23.23 38.16 Z" />
</g>
</svg>
