<?xml version="1.0" encoding="UTF-8" ?>
<!DOCTYPE svg PUBLIC "-//W3C//DTD SVG 1.1//EN" "http://www.w3.org/Graphics/SVG/1.1/DTD/svg11.dtd">
<svg width="64pt" height="64pt" viewBox="0 0 64 64" version="1.1" xmlns="http://www.w3.org/2000/svg">
<g id="#ffffffff">
<path fill="#ffffff" opacity="1.00" d=" M 0.00 0.00 L 64.00 0.00 L 64.00 64.00 L 0.00 64.00 L 0.00 0.00 M 29.12 7.99 C 26.98 12.89 25.58 18.08 24.96 23.38 C 22.16 21.28 19.18 19.41 16.14 17.66 C 14.71 18.78 13.27 19.90 11.83 21.00 C 12.52 24.07 13.60 27.04 14.87 29.92 C 12.58 30.17 10.28 30.45 8.00 30.77 C 8.00 32.54 8.00 34.31 7.99 36.08 C 10.55 38.11 13.25 39.94 16.08 41.57 C 15.52 42.05 14.40 43.01 13.84 43.49 C 14.23 44.99 14.61 46.50 14.98 48.00 C 18.95 49.19 23.16 49.40 27.21 48.48 C 27.74 51.00 28.35 53.51 29.03 56.00 C 33.35 56.00 37.66 55.98 41.98 56.02 C 40.27 53.94 38.85 51.65 37.58 49.28 C 40.31 49.89 43.10 50.08 45.89 49.95 C 46.64 48.69 47.38 47.43 48.13 46.17 C 47.50 45.14 46.86 44.12 46.20 43.11 C 49.70 41.77 53.13 40.15 55.99 37.68 C 55.99 35.91 55.99 34.15 56.00 32.39 C 53.05 31.99 50.09 31.73 47.12 31.63 C 49.20 27.54 50.78 23.22 51.77 18.73 C 50.25 17.75 48.73 16.77 47.21 15.78 C 44.13 17.45 41.17 19.33 38.46 21.56 C 37.90 16.91 36.71 12.36 35.03 8.00 C 33.06 8.00 31.09 8.00 29.12 7.99 Z" />
<path fill="#ffffff" opacity="1.00" d=" M 29.99 34.62 C 28.19 27.05 28.66 18.69 32.25 11.74 C 34.65 19.07 35.29 26.88 34.05 34.51 C 36.66 28.37 41.41 23.43 47.28 20.31 C 45.51 26.28 43.05 32.42 38.18 36.55 C 42.67 35.57 47.31 35.50 51.88 35.91 C 47.57 38.84 42.50 40.37 37.35 40.94 C 39.49 42.31 41.52 43.89 43.04 45.94 C 39.18 45.78 35.64 44.13 32.27 42.36 C 32.79 45.68 33.48 49.00 34.99 52.02 C 34.26 52.02 32.81 52.00 32.08 52.00 C 31.03 48.82 30.21 45.56 29.99 42.21 C 26.77 45.18 22.22 45.48 18.10 44.78 C 20.38 42.87 23.06 41.49 25.97 40.82 C 20.82 39.95 16.17 37.38 12.02 34.29 C 16.59 34.01 21.21 34.62 25.44 36.44 C 21.31 32.80 17.93 28.21 16.52 22.83 C 21.74 25.80 26.55 29.64 29.99 34.62 Z" />
</g>
<g id="#000000ff">
<path fill="#000000" opacity="1.00" d=" M 29.12 7.99 C 31.09 8.00 33.06 8.00 35.03 8.00 C 36.71 12.36 37.90 16.91 38.46 21.56 C 41.17 19.33 44.13 17.45 47.21 15.78 C 48.73 16.77 50.25 17.75 51.77 18.73 C 50.78 23.22 49.20 27.54 47.12 31.63 C 50.09 31.73 53.05 31.99 56.00 32.39 C 55.99 34.15 55.99 35.91 55.99 37.68 C 53.13 40.15 49.70 41.77 46.20 43.11 C 46.86 44.12 47.50 45.14 48.13 46.17 C 47.38 47.43 46.64 48.69 45.89 49.95 C 43.10 50.08 40.31 49.89 37.58 49.28 C 38.85 51.65 40.27 53.94 41.98 56.02 C 37.66 55.98 33.35 56.00 29.03 56.00 C 28.35 53.51 27.74 51.00 27.21 48.48 C 23.16 49.40 18.95 49.19 14.98 48.00 C 14.61 46.50 14.23 44.99 13.84 43.49 C 14.40 43.01 15.52 42.05 16.08 41.57 C 13.25 39.94 10.55 38.11 7.99 36.08 C 8.00 34.31 8.00 32.54 8.00 30.77 C 10.28 30.45 12.58 30.17 14.87 29.92 C 13.60 27.04 12.52 24.07 11.83 21.00 C 13.27 19.90 14.71 18.78 16.14 17.66 C 19.18 19.41 22.16 21.28 24.96 23.38 C 25.58 18.08 26.98 12.89 29.12 7.99 M 29.99 34.62 C 26.55 29.64 21.74 25.80 16.52 22.83 C 17.93 28.21 21.31 32.80 25.44 36.44 C 21.21 34.62 16.59 34.01 12.02 34.29 C 16.17 37.38 20.82 39.95 25.97 40.82 C 23.06 41.49 20.38 42.87 18.10 44.78 C 22.22 45.48 26.77 45.18 29.99 42.21 C 30.21 45.56 31.03 48.82 32.08 52.00 C 32.81 52.00 34.26 52.02 34.99 52.02 C 33.48 49.00 32.79 45.68 32.27 42.36 C 35.64 44.13 39.18 45.78 43.04 45.94 C 41.52 43.89 39.49 42.31 37.35 40.94 C 42.50 40.37 47.57 38.84 51.88 35.91 C 47.31 35.50 42.67 35.57 38.18 36.55 C 43.05 32.42 45.51 26.28 47.28 20.31 C 41.41 23.43 36.66 28.37 34.05 34.51 C 35.29 26.88 34.65 19.07 32.25 11.74 C 28.66 18.69 28.19 27.05 29.99 34.62 Z" />
</g>
</svg>
