<?xml version="1.0" encoding="UTF-8" ?>
<!DOCTYPE svg PUBLIC "-//W3C//DTD SVG 1.1//EN" "http://www.w3.org/Graphics/SVG/1.1/DTD/svg11.dtd">
<svg width="60pt" height="60pt" viewBox="0 0 60 60" version="1.1" xmlns="http://www.w3.org/2000/svg">
<g id="#ffffffff">
<path fill="#ffffff" opacity="1.00" d=" M 0.00 0.00 L 60.00 0.00 L 60.00 60.00 L 0.00 60.00 L 0.00 0.00 M 25.50 6.25 C 20.18 7.02 14.76 8.93 11.12 13.09 C 6.47 18.17 5.77 25.41 5.97 31.99 C 5.70 38.48 6.65 45.81 11.78 50.38 C 15.84 53.69 21.26 50.93 25.80 50.39 C 31.62 49.08 37.29 51.38 43.02 51.96 C 47.71 52.54 50.84 48.11 52.37 44.28 C 54.86 37.56 54.11 30.15 53.53 23.16 C 52.39 13.68 43.69 6.97 34.50 6.26 C 32.25 3.32 27.75 3.32 25.50 6.25 Z" />
<path fill="#ffffff" opacity="1.00" d=" M 27.75 8.60 C 29.94 7.30 32.44 8.45 34.30 9.77 C 40.41 14.00 43.87 21.33 44.11 28.68 C 34.73 27.77 25.26 27.77 15.88 28.68 C 16.14 20.59 20.38 12.34 27.75 8.60 Z" />
<path fill="#ffffff" opacity="1.00" d=" M 9.94 33.41 C 23.24 31.58 36.76 31.58 50.06 33.41 C 50.03 38.49 49.43 44.69 44.84 47.80 C 39.84 48.10 35.04 45.74 29.99 46.00 C 24.95 45.73 20.15 48.11 15.16 47.79 C 10.57 44.69 9.95 38.49 9.94 33.41 Z" />
</g>
<g id="#000000ff">
<path fill="#000000" opacity="1.00" d=" M 25.50 6.25 C 27.75 3.32 32.25 3.32 34.50 6.26 C 43.69 6.97 52.39 13.68 53.53 23.16 C 54.11 30.15 54.86 37.56 52.37 44.28 C 50.84 48.11 47.71 52.54 43.02 51.96 C 37.29 51.38 31.62 49.08 25.80 50.39 C 21.26 50.93 15.84 53.69 11.78 50.38 C 6.65 45.81 5.70 38.48 5.97 31.99 C 5.77 25.41 6.47 18.17 11.12 13.09 C 14.76 8.93 20.18 7.02 25.50 6.25 M 27.75 8.60 C 20.38 12.34 16.14 20.59 15.88 28.68 C 25.26 27.77 34.73 27.77 44.11 28.68 C 43.87 21.33 40.41 14.00 34.30 9.77 C 32.44 8.45 29.94 7.30 27.75 8.60 M 9.94 33.41 C 9.95 38.49 10.57 44.69 15.16 47.79 C 20.15 48.11 24.95 45.73 29.99 46.00 C 35.04 45.74 39.84 48.10 44.84 47.80 C 49.43 44.69 50.03 38.49 50.06 33.41 C 36.76 31.58 23.24 31.58 9.94 33.41 Z" />
</g>
</svg>
