<?xml version="1.0" encoding="UTF-8" ?>
<!DOCTYPE svg PUBLIC "-//W3C//DTD SVG 1.1//EN" "http://www.w3.org/Graphics/SVG/1.1/DTD/svg11.dtd">
<svg width="64pt" height="64pt" viewBox="0 0 64 64" version="1.1" xmlns="http://www.w3.org/2000/svg">
<g id="#ffffffff">
<path fill="#ffffff" opacity="1.00" d=" M 0.00 0.00 L 64.00 0.00 L 64.00 64.00 L 0.00 64.00 L 0.00 0.00 M 24.00 8.00 C 24.00 15.33 24.00 22.66 23.99 29.99 C 18.66 30.00 13.33 30.00 8.00 30.01 C 8.00 31.34 8.00 32.66 8.00 33.99 C 13.33 34.00 18.66 34.00 23.99 34.01 C 24.00 41.34 24.00 48.67 24.00 56.00 C 25.34 56.00 26.67 56.00 28.01 56.00 C 27.98 40.00 27.99 24.00 28.01 8.00 C 26.67 8.00 25.34 8.00 24.00 8.00 M 35.99 8.00 C 36.02 24.00 36.01 40.00 35.99 56.00 C 37.32 56.00 38.66 56.00 40.00 56.00 C 40.00 48.67 40.00 41.34 40.01 34.01 C 45.34 34.00 50.67 34.00 56.00 33.99 C 56.00 32.66 56.00 31.33 56.00 30.01 C 50.67 30.00 45.34 30.00 40.01 29.99 C 40.00 22.66 40.00 15.33 40.00 8.00 C 38.66 8.00 37.33 8.00 35.99 8.00 Z" />
</g>
<g id="#000000ff">
<path fill="#000000" opacity="1.00" d=" M 24.00 8.00 C 25.34 8.00 26.67 8.00 28.01 8.00 C 27.99 24.00 27.98 40.00 28.01 56.00 C 26.67 56.00 25.34 56.00 24.00 56.00 C 24.00 48.67 24.00 41.34 23.99 34.01 C 18.66 34.00 13.33 34.00 8.00 33.99 C 8.00 32.66 8.00 31.34 8.00 30.01 C 13.33 30.00 18.66 30.00 23.99 29.99 C 24.00 22.66 24.00 15.33 24.00 8.00 Z" />
<path fill="#000000" opacity="1.00" d=" M 35.99 8.00 C 37.33 8.00 38.66 8.00 40.00 8.00 C 40.00 15.33 40.00 22.66 40.01 29.99 C 45.34 30.00 50.67 30.00 56.00 30.01 C 56.00 31.33 56.00 32.66 56.00 33.99 C 50.67 34.00 45.34 34.00 40.01 34.01 C 40.00 41.34 40.00 48.67 40.00 56.00 C 38.66 56.00 37.32 56.00 35.99 56.00 C 36.01 40.00 36.02 24.00 35.99 8.00 Z" />
</g>
</svg>
