<?xml version="1.0" encoding="UTF-8" ?>
<!DOCTYPE svg PUBLIC "-//W3C//DTD SVG 1.1//EN" "http://www.w3.org/Graphics/SVG/1.1/DTD/svg11.dtd">
<svg width="64pt" height="64pt" viewBox="0 0 64 64" version="1.1" xmlns="http://www.w3.org/2000/svg">
<g id="#ffffffff">
<path fill="#ffffff" opacity="1.00" d=" M 0.00 0.00 L 64.00 0.00 L 64.00 64.00 L 0.00 64.00 L 0.00 0.00 M 10.06 11.10 C 12.28 13.52 13.92 16.54 13.91 19.90 C 14.13 27.93 13.93 35.97 14.00 44.00 C 15.33 44.00 16.67 44.00 18.00 44.00 C 18.02 36.31 17.97 28.61 18.00 20.92 C 18.10 17.32 20.61 14.45 22.93 11.94 C 24.85 14.40 27.27 16.79 27.89 19.96 C 28.31 25.35 27.65 30.78 28.18 36.17 C 28.66 40.34 31.93 43.45 35.50 45.27 C 33.50 50.82 27.42 52.81 22.00 52.02 C 22.00 53.36 22.00 54.69 22.00 56.02 C 25.73 56.04 29.75 56.17 33.02 54.07 C 36.15 52.34 38.09 49.22 39.40 45.99 C 43.02 45.95 47.07 46.50 50.17 44.18 C 54.45 41.38 55.21 34.85 52.01 30.96 C 48.41 26.86 40.79 26.94 37.67 31.59 C 35.67 34.37 36.08 37.97 35.89 41.20 C 34.38 39.79 32.63 38.35 32.25 36.20 C 31.45 30.18 32.62 24.03 31.64 18.04 C 30.18 14.35 27.88 10.79 24.66 8.40 C 20.92 6.74 18.47 11.07 16.43 13.45 C 15.32 11.46 13.98 9.62 12.50 7.90 C 11.73 9.00 10.91 10.07 10.06 11.10 Z" />
<path fill="#ffffff" opacity="1.00" d=" M 42.49 32.46 C 46.21 30.55 51.34 33.77 49.85 38.15 C 48.80 42.56 43.49 42.12 39.99 42.02 C 40.17 38.82 39.10 34.35 42.49 32.46 Z" />
</g>
<g id="#000000ff">
<path fill="#000000" opacity="1.00" d=" M 10.06 11.10 C 10.91 10.07 11.73 9.00 12.50 7.90 C 13.98 9.62 15.32 11.46 16.43 13.45 C 18.47 11.07 20.92 6.74 24.66 8.40 C 27.88 10.79 30.18 14.35 31.64 18.04 C 32.62 24.03 31.45 30.18 32.25 36.20 C 32.63 38.35 34.38 39.79 35.89 41.20 C 36.08 37.97 35.67 34.37 37.67 31.59 C 40.79 26.94 48.41 26.86 52.01 30.96 C 55.21 34.85 54.45 41.38 50.17 44.18 C 47.07 46.50 43.02 45.95 39.40 45.99 C 38.09 49.22 36.15 52.34 33.02 54.07 C 29.75 56.17 25.73 56.04 22.00 56.02 C 22.00 54.69 22.00 53.36 22.00 52.02 C 27.42 52.81 33.50 50.82 35.50 45.27 C 31.93 43.45 28.66 40.34 28.18 36.17 C 27.65 30.78 28.31 25.35 27.89 19.96 C 27.27 16.79 24.85 14.40 22.93 11.94 C 20.61 14.45 18.10 17.32 18.00 20.92 C 17.97 28.61 18.02 36.31 18.00 44.00 C 16.67 44.00 15.33 44.00 14.00 44.00 C 13.93 35.97 14.13 27.93 13.91 19.90 C 13.92 16.54 12.28 13.52 10.06 11.10 M 42.49 32.46 C 39.10 34.35 40.17 38.82 39.99 42.02 C 43.49 42.12 48.80 42.56 49.85 38.15 C 51.34 33.77 46.21 30.55 42.49 32.46 Z" />
</g>
</svg>
