<?xml version="1.0" encoding="UTF-8" ?>
<!DOCTYPE svg PUBLIC "-//W3C//DTD SVG 1.1//EN" "http://www.w3.org/Graphics/SVG/1.1/DTD/svg11.dtd">
<svg width="60pt" height="60pt" viewBox="0 0 60 60" version="1.1" xmlns="http://www.w3.org/2000/svg">
<g id="#ffffffff">
<path fill="#ffffff" opacity="1.00" d=" M 0.00 0.00 L 60.00 0.00 L 60.00 60.00 L 0.00 60.00 L 0.00 0.00 M 6.32 10.38 C 4.56 11.18 3.83 13.15 4.00 14.97 C 4.03 25.35 3.92 35.73 4.06 46.11 C 3.93 48.67 6.62 50.32 8.96 50.00 C 22.64 50.02 36.32 49.97 50.01 50.02 C 51.67 49.97 53.62 50.15 54.84 48.76 C 56.39 47.26 55.90 44.93 56.02 43.00 C 55.93 33.30 56.10 23.58 55.94 13.88 C 55.96 11.86 54.17 9.96 52.10 10.06 C 38.39 9.90 24.66 10.07 10.94 9.98 C 9.41 10.06 7.79 9.82 6.32 10.38 Z" />
<path fill="#ffffff" opacity="1.00" d=" M 22.06 25.10 C 21.47 20.39 25.95 15.09 30.88 16.21 C 32.70 16.42 32.41 18.58 31.95 19.80 C 30.02 19.37 27.38 17.92 25.86 19.89 C 23.78 23.04 25.98 28.47 30.00 28.60 C 31.69 28.52 32.63 26.89 33.82 25.94 C 34.19 26.22 34.93 26.79 35.29 27.07 C 33.91 28.93 32.65 31.33 30.17 31.84 C 26.06 32.87 22.23 29.08 22.06 25.10 Z" />
<path fill="#ffffff" opacity="1.00" d=" M 10.47 22.42 C 12.24 20.93 14.90 23.56 13.45 25.33 C 11.73 26.74 9.16 24.20 10.47 22.42 Z" />
<path fill="#ffffff" opacity="1.00" d=" M 39.71 33.83 C 35.08 28.33 44.76 20.69 49.36 25.52 C 51.33 28.51 48.35 31.50 45.99 33.07 C 50.82 38.16 43.46 45.26 37.86 43.83 C 35.65 43.55 34.01 41.22 34.76 39.04 C 35.20 36.43 37.73 35.17 39.71 33.83 M 42.11 28.90 C 41.36 30.43 43.47 31.25 44.05 32.41 C 45.29 30.88 47.00 29.33 46.83 27.16 C 46.01 24.51 42.26 26.89 42.11 28.90 M 41.38 34.60 C 39.71 36.31 37.60 38.25 38.14 40.93 C 39.94 43.09 43.23 41.20 43.82 38.90 C 44.78 36.96 42.49 35.76 41.38 34.60 Z" />
<path fill="#ffffff" opacity="1.00" d=" M 9.39 28.95 C 10.87 27.86 12.68 27.47 14.39 26.89 C 15.34 30.44 16.11 34.05 17.14 37.58 C 18.23 38.13 19.12 38.90 19.82 39.89 C 17.17 40.02 14.44 40.25 11.86 39.44 C 15.62 37.42 12.33 33.18 12.03 30.08 C 11.37 29.79 10.05 29.23 9.39 28.95 Z" />
</g>
<g id="#000000ff">
<path fill="#000000" opacity="1.00" d=" M 6.32 10.38 C 7.79 9.82 9.41 10.06 10.94 9.98 C 24.66 10.07 38.39 9.90 52.10 10.06 C 54.17 9.96 55.96 11.86 55.94 13.88 C 56.10 23.58 55.93 33.30 56.02 43.00 C 55.90 44.93 56.39 47.26 54.84 48.76 C 53.62 50.15 51.67 49.97 50.01 50.02 C 36.32 49.97 22.64 50.02 8.96 50.00 C 6.62 50.32 3.93 48.67 4.06 46.11 C 3.92 35.73 4.03 25.35 4.00 14.97 C 3.83 13.15 4.56 11.18 6.32 10.38 M 22.06 25.10 C 22.23 29.08 26.06 32.87 30.17 31.84 C 32.65 31.33 33.91 28.93 35.29 27.07 C 34.93 26.79 34.19 26.22 33.82 25.94 C 32.63 26.89 31.69 28.52 30.00 28.60 C 25.98 28.47 23.78 23.04 25.86 19.89 C 27.38 17.92 30.02 19.37 31.95 19.80 C 32.41 18.58 32.70 16.42 30.88 16.21 C 25.95 15.09 21.47 20.39 22.06 25.10 M 10.47 22.42 C 9.16 24.20 11.73 26.74 13.45 25.33 C 14.90 23.56 12.24 20.93 10.47 22.42 M 39.71 33.83 C 37.73 35.17 35.20 36.43 34.76 39.04 C 34.01 41.22 35.65 43.55 37.86 43.83 C 43.46 45.26 50.82 38.16 45.99 33.07 C 48.35 31.50 51.33 28.51 49.36 25.52 C 44.76 20.69 35.08 28.33 39.71 33.83 M 9.39 28.95 C 10.05 29.23 11.37 29.79 12.03 30.08 C 12.33 33.18 15.62 37.42 11.86 39.44 C 14.44 40.25 17.17 40.02 19.82 39.89 C 19.12 38.90 18.23 38.13 17.14 37.58 C 16.11 34.05 15.34 30.44 14.39 26.89 C 12.68 27.47 10.87 27.86 9.39 28.95 Z" />
<path fill="#000000" opacity="1.00" d=" M 42.11 28.90 C 42.26 26.89 46.01 24.51 46.83 27.16 C 47.00 29.33 45.29 30.88 44.05 32.41 C 43.47 31.25 41.36 30.43 42.11 28.90 Z" />
<path fill="#000000" opacity="1.00" d=" M 41.38 34.60 C 42.49 35.76 44.78 36.96 43.82 38.90 C 43.23 41.20 39.94 43.09 38.14 40.93 C 37.60 38.25 39.71 36.31 41.38 34.60 Z" />
</g>
</svg>
