<?xml version="1.0" encoding="UTF-8" ?>
<!DOCTYPE svg PUBLIC "-//W3C//DTD SVG 1.1//EN" "http://www.w3.org/Graphics/SVG/1.1/DTD/svg11.dtd">
<svg width="60pt" height="60pt" viewBox="0 0 60 60" version="1.1" xmlns="http://www.w3.org/2000/svg">
<g id="#ffffffff">
<path fill="#ffffff" opacity="1.00" d=" M 0.00 0.00 L 60.00 0.00 L 60.00 60.00 L 0.00 60.00 L 0.00 0.00 M 11.17 10.18 C 8.56 11.64 10.85 14.19 12.99 14.47 C 12.49 15.52 12.01 16.59 11.53 17.66 C 7.04 19.39 7.70 24.70 8.30 28.55 C 9.13 30.83 11.85 31.12 13.79 31.98 C 14.96 30.13 16.40 27.90 18.90 27.99 C 21.46 27.80 23.02 30.05 24.16 31.98 C 28.03 32.01 31.89 32.01 35.76 31.99 C 36.94 30.11 38.46 27.86 41.00 28.00 C 43.63 27.84 45.11 30.23 46.29 32.18 C 48.26 31.74 50.18 31.09 52.02 30.25 C 51.92 27.60 52.30 24.88 51.63 22.29 C 50.45 19.80 47.29 19.78 45.02 18.89 C 42.55 14.87 39.49 10.05 34.16 10.05 C 26.50 10.05 18.81 9.78 11.17 10.18 M 11.22 36.20 C 9.18 36.83 9.88 40.19 12.04 39.93 C 23.67 40.22 35.33 39.73 46.95 40.15 C 50.93 40.76 50.93 47.24 46.95 47.85 C 35.32 48.27 23.65 47.78 12.01 48.07 C 9.36 47.83 9.41 52.19 12.04 51.93 C 23.41 52.07 34.79 52.02 46.17 51.95 C 50.74 52.01 54.63 47.49 53.91 42.98 C 53.46 38.74 49.30 35.60 45.11 36.00 C 33.82 36.13 22.50 35.73 11.22 36.20 M 13.25 42.20 C 10.20 43.20 13.42 47.86 15.40 45.34 C 17.12 44.03 14.98 41.13 13.25 42.20 M 21.24 42.21 C 18.22 43.20 21.39 47.83 23.39 45.36 C 25.14 44.05 22.97 41.10 21.24 42.21 M 29.12 42.11 C 26.88 43.29 28.44 46.89 30.87 45.88 C 33.13 44.69 31.55 41.14 29.12 42.11 M 37.16 42.11 C 34.89 43.20 36.38 46.84 38.79 45.89 C 41.16 44.83 39.60 41.14 37.16 42.11 M 45.22 42.15 C 42.77 43.13 44.45 46.93 46.85 45.88 C 49.13 44.81 47.56 41.10 45.22 42.15 Z" />
<path fill="#ffffff" opacity="1.00" d=" M 17.35 14.00 C 22.90 14.06 28.45 13.88 34.00 14.06 C 36.60 13.97 38.27 16.15 39.80 17.91 C 31.79 18.11 23.77 17.95 15.76 18.00 C 16.29 16.67 16.82 15.34 17.35 14.00 Z" />
</g>
<g id="#000000ff">
<path fill="#000000" opacity="1.00" d=" M 11.17 10.18 C 18.81 9.78 26.50 10.05 34.16 10.05 C 39.49 10.05 42.55 14.87 45.02 18.89 C 47.29 19.78 50.45 19.80 51.63 22.29 C 52.30 24.88 51.92 27.60 52.02 30.25 C 50.18 31.09 48.26 31.74 46.29 32.18 C 45.11 30.23 43.63 27.84 41.00 28.00 C 38.46 27.86 36.94 30.11 35.76 31.99 C 31.89 32.01 28.03 32.01 24.16 31.98 C 23.02 30.05 21.46 27.80 18.90 27.99 C 16.40 27.90 14.96 30.13 13.79 31.98 C 11.85 31.12 9.13 30.83 8.30 28.55 C 7.70 24.70 7.04 19.39 11.53 17.66 C 12.01 16.59 12.49 15.52 12.99 14.47 C 10.85 14.19 8.56 11.64 11.17 10.18 M 17.35 14.00 C 16.82 15.34 16.29 16.67 15.76 18.00 C 23.77 17.95 31.79 18.11 39.80 17.91 C 38.27 16.15 36.60 13.97 34.00 14.06 C 28.45 13.88 22.90 14.06 17.35 14.00 Z" />
<path fill="#000000" opacity="1.00" d=" M 11.22 36.20 C 22.50 35.73 33.82 36.13 45.11 36.00 C 49.30 35.60 53.46 38.74 53.91 42.98 C 54.63 47.49 50.74 52.01 46.17 51.95 C 34.79 52.02 23.41 52.07 12.04 51.93 C 9.41 52.19 9.36 47.83 12.01 48.07 C 23.65 47.78 35.32 48.27 46.95 47.85 C 50.93 47.24 50.93 40.76 46.95 40.15 C 35.33 39.73 23.67 40.22 12.04 39.93 C 9.88 40.19 9.18 36.83 11.22 36.20 Z" />
<path fill="#000000" opacity="1.00" d=" M 13.25 42.20 C 14.98 41.13 17.12 44.03 15.40 45.34 C 13.42 47.86 10.20 43.20 13.25 42.20 Z" />
<path fill="#000000" opacity="1.00" d=" M 21.24 42.21 C 22.97 41.10 25.14 44.05 23.39 45.36 C 21.39 47.83 18.22 43.20 21.24 42.21 Z" />
<path fill="#000000" opacity="1.00" d=" M 29.12 42.11 C 31.55 41.14 33.13 44.69 30.87 45.88 C 28.44 46.89 26.88 43.29 29.12 42.11 Z" />
<path fill="#000000" opacity="1.00" d=" M 37.16 42.11 C 39.60 41.14 41.16 44.83 38.79 45.89 C 36.38 46.84 34.89 43.20 37.16 42.11 Z" />
<path fill="#000000" opacity="1.00" d=" M 45.22 42.15 C 47.56 41.10 49.13 44.81 46.85 45.88 C 44.45 46.93 42.77 43.13 45.22 42.15 Z" />
</g>
</svg>
