<?xml version="1.0" encoding="UTF-8" ?>
<!DOCTYPE svg PUBLIC "-//W3C//DTD SVG 1.1//EN" "http://www.w3.org/Graphics/SVG/1.1/DTD/svg11.dtd">
<svg width="64pt" height="64pt" viewBox="0 0 64 64" version="1.1" xmlns="http://www.w3.org/2000/svg">
<g id="#ffffffff">
<path fill="#ffffff" opacity="1.00" d=" M 0.00 0.00 L 64.00 0.00 L 64.00 64.00 L 0.00 64.00 L 0.00 0.00 M 13.54 15.58 C 12.33 18.80 11.55 22.16 10.50 25.43 C 9.53 25.11 7.60 24.46 6.63 24.13 C 6.31 25.06 5.69 26.91 5.37 27.84 C 6.68 28.29 7.98 28.74 9.29 29.19 C 6.98 36.17 8.21 43.71 8.18 50.92 C 10.11 52.99 13.46 51.63 15.99 52.00 C 16.17 51.50 16.52 50.50 16.70 50.00 C 26.90 50.00 37.10 50.00 47.30 50.00 C 47.48 50.50 47.83 51.50 48.01 52.00 C 50.53 51.60 53.99 53.04 55.84 50.86 C 55.78 43.67 57.02 36.16 54.71 29.22 C 56.02 28.78 57.33 28.34 58.63 27.90 C 58.32 26.96 57.69 25.07 57.38 24.13 C 56.41 24.45 54.47 25.11 53.50 25.43 C 52.45 22.15 51.67 18.77 50.44 15.55 C 49.48 13.03 46.62 11.80 44.06 12.00 C 36.04 12.00 28.02 12.00 20.00 11.99 C 17.41 11.79 14.50 13.02 13.54 15.58 Z" />
<path fill="#ffffff" opacity="1.00" d=" M 18.16 16.15 C 27.36 15.89 36.61 15.89 45.81 16.15 C 48.18 18.71 48.16 22.81 49.50 26.00 C 37.83 26.00 26.17 26.00 14.50 26.00 C 15.83 22.81 15.84 18.75 18.16 16.15 Z" />
<path fill="#ffffff" opacity="1.00" d=" M 13.28 30.00 C 25.76 30.00 38.24 29.99 50.73 30.01 C 52.76 35.11 51.79 40.66 52.00 46.00 C 38.67 46.00 25.33 46.00 12.00 46.00 C 12.21 40.66 11.24 35.11 13.28 30.00 M 15.40 32.49 C 12.07 34.38 15.44 39.78 18.61 37.50 C 21.91 35.60 18.56 30.23 15.40 32.49 M 45.39 32.50 C 42.08 34.39 45.44 39.78 48.60 37.50 C 51.92 35.61 48.56 30.23 45.39 32.50 M 24.00 38.00 C 23.16 40.00 22.33 42.00 21.50 44.00 C 22.90 44.00 24.29 43.99 25.69 43.98 C 25.96 43.51 26.49 42.58 26.76 42.11 C 30.26 41.81 33.78 42.08 37.29 42.00 C 37.52 42.50 37.99 43.50 38.22 44.00 C 39.65 44.00 41.07 44.00 42.50 43.99 C 41.67 41.99 40.83 40.00 40.00 38.00 C 34.66 38.00 29.33 38.00 24.00 38.00 Z" />
</g>
<g id="#000000ff">
<path fill="#000000" opacity="1.00" d=" M 13.54 15.58 C 14.50 13.02 17.41 11.79 20.00 11.99 C 28.02 12.00 36.04 12.00 44.06 12.00 C 46.62 11.80 49.48 13.03 50.44 15.55 C 51.67 18.77 52.45 22.15 53.50 25.43 C 54.47 25.11 56.41 24.45 57.38 24.13 C 57.69 25.07 58.32 26.96 58.63 27.90 C 57.33 28.34 56.02 28.78 54.71 29.22 C 57.02 36.16 55.78 43.67 55.84 50.86 C 53.99 53.04 50.53 51.60 48.01 52.00 C 47.83 51.50 47.48 50.50 47.30 50.00 C 37.10 50.00 26.90 50.00 16.70 50.00 C 16.52 50.50 16.17 51.50 15.99 52.00 C 13.46 51.63 10.11 52.99 8.18 50.92 C 8.21 43.71 6.98 36.17 9.29 29.19 C 7.98 28.74 6.68 28.29 5.37 27.84 C 5.69 26.91 6.31 25.06 6.63 24.13 C 7.60 24.46 9.53 25.11 10.50 25.43 C 11.55 22.16 12.33 18.80 13.54 15.58 M 18.16 16.15 C 15.84 18.75 15.83 22.81 14.50 26.00 C 26.17 26.00 37.83 26.00 49.50 26.00 C 48.16 22.81 48.18 18.71 45.81 16.15 C 36.61 15.89 27.36 15.89 18.16 16.15 M 13.28 30.00 C 11.24 35.11 12.21 40.66 12.00 46.00 C 25.33 46.00 38.67 46.00 52.00 46.00 C 51.79 40.66 52.76 35.11 50.73 30.01 C 38.24 29.99 25.76 30.00 13.28 30.00 Z" />
<path fill="#000000" opacity="1.00" d=" M 15.40 32.49 C 18.56 30.23 21.91 35.60 18.61 37.50 C 15.44 39.78 12.07 34.38 15.40 32.49 Z" />
<path fill="#000000" opacity="1.00" d=" M 45.39 32.50 C 48.56 30.23 51.92 35.61 48.60 37.50 C 45.44 39.78 42.08 34.39 45.39 32.50 Z" />
<path fill="#000000" opacity="1.00" d=" M 24.00 38.00 C 29.33 38.00 34.66 38.00 40.00 38.00 C 40.83 40.00 41.67 41.99 42.50 43.99 C 41.07 44.00 39.65 44.00 38.22 44.00 C 37.99 43.50 37.52 42.50 37.29 42.00 C 33.78 42.08 30.26 41.81 26.76 42.11 C 26.49 42.58 25.96 43.51 25.69 43.98 C 24.29 43.99 22.90 44.00 21.50 44.00 C 22.33 42.00 23.16 40.00 24.00 38.00 Z" />
</g>
</svg>
