<?xml version="1.0" encoding="UTF-8" ?>
<!DOCTYPE svg PUBLIC "-//W3C//DTD SVG 1.1//EN" "http://www.w3.org/Graphics/SVG/1.1/DTD/svg11.dtd">
<svg width="64pt" height="64pt" viewBox="0 0 64 64" version="1.1" xmlns="http://www.w3.org/2000/svg">
<g id="#ffffffff">
<path fill="#ffffff" opacity="1.00" d=" M 0.00 0.00 L 64.00 0.00 L 64.00 64.00 L 0.00 64.00 L 0.00 0.00 M 43.40 6.34 C 41.70 7.92 43.54 9.55 44.60 10.82 C 43.22 12.21 41.98 13.72 40.95 15.38 C 39.63 13.67 36.58 14.56 37.18 16.86 C 38.88 19.56 40.26 22.42 40.89 25.57 C 37.60 24.67 33.76 25.30 30.95 23.03 C 29.41 22.50 27.79 24.60 28.96 25.82 C 30.62 28.33 31.77 31.13 32.38 34.09 C 29.71 33.57 27.03 33.15 24.34 32.83 C 23.17 31.67 22.00 30.51 20.84 29.35 C 14.48 35.22 8.24 41.30 2.50 47.77 C 7.09 52.31 11.69 56.85 16.19 61.48 C 22.76 55.87 28.73 49.50 34.65 43.19 C 32.80 41.28 30.91 39.41 29.07 37.48 C 31.58 37.66 34.28 40.91 36.53 38.84 C 37.26 35.40 35.72 31.90 35.01 28.55 C 37.87 28.90 40.52 29.97 43.13 31.13 C 46.80 31.06 44.69 26.44 44.59 24.32 C 48.42 25.79 52.19 23.81 54.54 20.80 C 55.78 21.71 57.39 23.76 58.97 22.07 C 60.46 20.47 58.34 18.95 57.52 17.72 C 59.17 12.03 53.22 6.25 47.57 7.85 C 46.43 6.92 45.01 5.13 43.40 6.34 Z" />
<path fill="#ffffff" opacity="1.00" d=" M 45.25 19.73 C 43.27 17.41 45.96 15.14 47.55 13.60 C 48.98 15.04 50.41 16.47 51.84 17.91 C 50.27 19.68 47.37 22.36 45.25 19.73 Z" />
</g>
<g id="#000000ff">
<path fill="#000000" opacity="1.00" d=" M 43.40 6.34 C 45.01 5.13 46.43 6.92 47.57 7.85 C 53.22 6.25 59.17 12.03 57.52 17.72 C 58.34 18.95 60.46 20.47 58.97 22.07 C 57.39 23.76 55.78 21.71 54.54 20.80 C 52.19 23.81 48.42 25.79 44.59 24.32 C 44.69 26.44 46.80 31.06 43.13 31.13 C 40.52 29.97 37.87 28.90 35.01 28.55 C 35.72 31.90 37.26 35.40 36.53 38.84 C 34.28 40.91 31.58 37.66 29.07 37.48 C 30.91 39.41 32.80 41.28 34.65 43.19 C 28.73 49.50 22.76 55.87 16.19 61.48 C 11.69 56.85 7.09 52.31 2.50 47.77 C 8.24 41.30 14.48 35.22 20.84 29.35 C 22.00 30.51 23.17 31.67 24.34 32.83 C 27.03 33.15 29.71 33.57 32.38 34.09 C 31.77 31.13 30.62 28.33 28.96 25.82 C 27.79 24.60 29.41 22.50 30.95 23.03 C 33.76 25.30 37.60 24.67 40.89 25.57 C 40.26 22.42 38.88 19.56 37.18 16.86 C 36.58 14.56 39.63 13.67 40.95 15.38 C 41.98 13.72 43.22 12.21 44.60 10.82 C 43.54 9.55 41.70 7.92 43.40 6.34 M 45.25 19.73 C 47.37 22.36 50.27 19.68 51.84 17.91 C 50.41 16.47 48.98 15.04 47.55 13.60 C 45.96 15.14 43.27 17.41 45.25 19.73 Z" />
</g>
</svg>
