<?xml version="1.0" encoding="UTF-8" ?>
<!DOCTYPE svg PUBLIC "-//W3C//DTD SVG 1.1//EN" "http://www.w3.org/Graphics/SVG/1.1/DTD/svg11.dtd">
<svg width="109pt" height="129pt" viewBox="0 0 109 129" version="1.1" xmlns="http://www.w3.org/2000/svg">
<g id="#fffffff">
<path fill="#ffffff" opacity="1.00" d=" M 0.00 0.00 L 109.00 0.00 L 109.00 129.00 L 0.00 129.00 L 0.00 0.00 M 43.55 13.80 C 41.22 18.51 41.76 24.15 44.69 28.47 L 45.57 28.44 L 45.44 29.54 L 46.61 29.40 L 46.51 30.25 C 51.25 33.53 57.72 33.51 62.48 30.26 L 62.35 29.41 L 63.52 29.57 L 63.42 28.45 L 64.30 28.47 C 67.24 24.15 67.77 18.51 65.44 13.79 C 62.82 10.13 58.53 7.48 53.91 7.75 C 49.70 7.93 45.96 10.44 43.55 13.80 M 25.68 46.40 C 22.71 56.32 22.97 66.91 24.16 77.10 C 24.18 80.16 28.41 81.03 27.58 84.40 C 26.27 84.42 24.97 84.43 23.66 84.44 C 23.67 91.77 23.66 99.09 23.66 106.41 C 27.01 106.42 30.35 106.42 33.69 106.41 C 33.63 99.09 33.67 91.77 33.67 84.45 C 32.37 84.42 31.06 84.39 29.76 84.36 C 29.76 83.54 29.76 82.72 29.76 81.90 C 30.98 80.90 32.13 79.80 33.12 78.57 C 32.08 77.06 31.11 75.50 30.16 73.93 C 29.84 72.79 29.56 71.63 29.32 70.47 C 29.15 70.45 28.80 70.39 28.63 70.37 C 28.36 66.20 28.55 62.02 28.39 57.85 C 28.07 56.28 29.53 55.31 30.30 54.17 C 30.49 52.97 30.68 51.78 30.86 50.58 C 31.33 50.51 32.26 50.36 32.73 50.29 C 31.62 52.93 30.69 55.65 30.24 58.48 L 29.59 58.35 C 29.68 62.12 29.67 65.89 29.61 69.66 L 30.42 69.50 C 30.49 70.18 30.63 71.53 30.70 72.20 C 33.21 78.74 39.43 82.51 45.86 84.40 C 51.25 84.81 56.69 84.98 62.08 84.45 C 69.00 83.16 75.61 78.93 78.30 72.20 C 78.36 71.52 78.49 70.16 78.56 69.48 L 79.39 69.71 C 79.32 65.92 79.31 62.13 79.41 58.34 L 78.76 58.50 C 78.41 55.39 76.61 52.57 76.73 49.42 C 77.89 50.89 78.56 52.64 78.89 54.47 L 79.57 54.50 C 79.51 55.28 79.38 56.83 79.32 57.60 C 79.56 57.56 80.05 57.48 80.30 57.43 C 80.45 62.33 81.26 67.49 79.36 72.17 C 78.57 74.53 77.00 76.53 76.10 78.85 C 77.26 81.62 81.20 82.30 83.34 80.29 C 85.01 78.87 84.84 76.46 85.18 74.49 C 85.95 64.36 86.16 53.80 82.51 44.15 C 79.68 36.78 73.92 30.04 66.04 27.99 C 64.48 29.67 62.74 31.16 61.00 32.64 C 60.76 32.63 60.27 32.61 60.03 32.59 C 56.75 34.36 52.20 34.43 48.96 32.55 C 48.65 32.60 48.02 32.69 47.71 32.74 L 47.47 31.91 C 45.76 30.82 44.28 29.43 42.88 27.98 C 34.24 30.33 28.22 38.13 25.68 46.40 M 34.14 79.52 C 34.33 81.37 34.54 83.22 34.78 85.06 C 35.82 88.60 36.22 92.29 37.31 95.82 C 37.38 96.95 37.45 98.08 37.47 99.22 C 37.68 99.43 38.11 99.85 38.33 100.06 C 38.46 101.73 38.65 103.39 38.86 105.06 C 40.20 109.27 40.26 113.81 41.75 117.97 C 43.40 120.99 47.17 120.87 50.13 120.55 C 51.33 119.55 52.41 118.42 53.40 117.22 C 53.34 106.98 53.36 96.73 53.39 86.49 L 52.32 86.54 L 52.74 85.60 C 49.86 85.66 46.74 86.23 44.11 84.72 C 43.44 84.66 42.11 84.54 41.44 84.47 L 41.55 83.33 C 41.05 83.44 40.06 83.65 39.56 83.76 L 39.42 82.41 C 39.04 82.46 38.30 82.54 37.93 82.58 C 36.67 81.56 35.40 80.54 34.14 79.52 M 71.05 82.57 C 70.68 82.53 69.93 82.46 69.56 82.42 L 69.41 83.78 C 68.92 83.66 67.95 83.43 67.46 83.31 L 67.54 84.55 C 66.75 84.55 65.17 84.54 64.38 84.54 L 64.46 85.43 C 61.73 85.70 58.99 85.79 56.25 85.62 L 56.68 86.55 L 55.60 86.48 C 55.64 96.73 55.66 106.98 55.59 117.23 C 57.83 121.62 65.10 122.16 67.41 117.61 C 68.75 112.11 69.68 106.50 70.81 100.94 C 71.62 97.32 72.29 93.67 73.01 90.02 C 73.40 88.36 73.70 86.68 74.06 85.01 C 74.40 83.19 74.67 81.35 74.93 79.52 C 73.63 80.53 72.34 81.55 71.05 82.57 Z" />
<path fill="#ffffff" opacity="1.00" d=" M 51.82 37.33 C 53.60 37.29 55.38 37.30 57.16 37.36 C 57.42 39.08 57.69 40.79 57.94 42.51 C 55.73 43.58 53.32 43.59 51.09 42.59 C 51.31 40.83 51.56 39.08 51.82 37.33 Z" />
<path fill="#ffffff" opacity="1.00" d=" M 51.78 45.23 C 53.59 45.23 55.41 45.24 57.22 45.24 C 58.10 53.54 59.32 61.80 60.40 70.08 C 58.50 72.27 56.69 74.55 55.06 76.96 C 52.07 75.67 50.85 72.25 48.60 70.07 C 49.66 61.79 50.89 53.53 51.78 45.23 Z" />
</g>
<g id="#000000ff">
<path fill="#968176" opacity="1.00" d=" M 43.55 13.80 C 45.96 10.44 49.70 7.93 53.91 7.75 C 58.53 7.48 62.82 10.13 65.44 13.79 C 67.77 18.51 67.24 24.15 64.30 28.47 L 63.42 28.45 L 63.52 29.57 L 62.35 29.41 L 62.48 30.26 C 57.72 33.51 51.25 33.53 46.51 30.25 L 46.61 29.40 L 45.44 29.54 L 45.57 28.44 L 44.69 28.47 C 41.76 24.15 41.22 18.51 43.55 13.80 Z" />
<path fill="#968176" opacity="1.00" d=" M 25.68 46.40 C 28.22 38.13 34.24 30.33 42.88 27.98 C 44.28 29.43 45.76 30.82 47.47 31.91 L 47.71 32.74 C 48.02 32.69 48.65 32.60 48.96 32.55 C 52.20 34.43 56.75 34.36 60.03 32.59 C 60.27 32.61 60.76 32.63 61.00 32.64 C 62.74 31.16 64.48 29.67 66.04 27.99 C 73.92 30.04 79.68 36.78 82.51 44.15 C 86.16 53.80 85.95 64.36 85.18 74.49 C 84.84 76.46 85.01 78.87 83.34 80.29 C 81.20 82.30 77.26 81.62 76.10 78.85 C 77.00 76.53 78.57 74.53 79.36 72.17 C 81.26 67.49 80.45 62.33 80.30 57.43 C 80.05 57.48 79.56 57.56 79.32 57.60 C 79.38 56.83 79.51 55.28 79.57 54.50 L 78.89 54.47 C 78.56 52.64 77.89 50.89 76.73 49.42 C 76.61 52.57 78.41 55.39 78.76 58.50 L 79.41 58.34 C 79.31 62.13 79.32 65.92 79.39 69.71 L 78.56 69.48 C 78.49 70.16 78.36 71.52 78.30 72.20 C 75.61 78.93 69.00 83.16 62.08 84.45 C 56.69 84.98 51.25 84.81 45.86 84.40 C 39.43 82.51 33.21 78.74 30.70 72.20 C 30.63 71.53 30.49 70.18 30.42 69.50 L 29.61 69.66 C 29.67 65.89 29.68 62.12 29.59 58.35 L 30.24 58.48 C 30.69 55.65 31.62 52.93 32.73 50.29 C 32.26 50.36 31.33 50.51 30.86 50.58 C 30.68 51.78 30.49 52.97 30.30 54.17 C 29.53 55.31 28.07 56.28 28.39 57.85 C 28.55 62.02 28.36 66.20 28.63 70.37 C 28.80 70.39 29.15 70.45 29.32 70.47 C 29.56 71.63 29.84 72.79 30.16 73.93 C 31.11 75.50 32.08 77.06 33.12 78.57 C 32.13 79.80 30.98 80.90 29.76 81.90 C 29.76 82.72 29.76 83.54 29.76 84.36 C 31.06 84.39 32.37 84.42 33.67 84.45 C 33.67 91.77 33.63 99.09 33.69 106.41 C 30.35 106.42 27.01 106.42 23.66 106.41 C 23.66 99.09 23.67 91.77 23.66 84.44 C 24.97 84.43 26.27 84.42 27.58 84.40 C 28.41 81.03 24.18 80.16 24.16 77.10 C 22.97 66.91 22.71 56.32 25.68 46.40 M 51.82 37.33 C 51.56 39.08 51.31 40.83 51.09 42.59 C 53.32 43.59 55.73 43.58 57.94 42.51 C 57.69 40.79 57.42 39.08 57.16 37.36 C 55.38 37.30 53.60 37.29 51.82 37.33 M 51.78 45.23 C 50.89 53.53 49.66 61.79 48.60 70.07 C 50.85 72.25 52.07 75.67 55.06 76.96 C 56.69 74.55 58.50 72.27 60.40 70.08 C 59.32 61.80 58.10 53.54 57.22 45.24 C 55.41 45.24 53.59 45.23 51.78 45.23 Z" />
<path fill="#968176" opacity="1.00" d=" M 34.14 79.52 C 35.40 80.54 36.67 81.56 37.93 82.58 C 38.30 82.54 39.04 82.46 39.42 82.41 L 39.56 83.76 C 40.06 83.65 41.05 83.44 41.55 83.33 L 41.44 84.47 C 42.11 84.54 43.44 84.66 44.11 84.72 C 46.74 86.23 49.86 85.66 52.74 85.60 L 52.32 86.54 L 53.39 86.49 C 53.36 96.73 53.34 106.98 53.40 117.22 C 52.41 118.42 51.33 119.55 50.13 120.55 C 47.17 120.87 43.40 120.99 41.75 117.97 C 40.26 113.81 40.20 109.27 38.86 105.06 C 38.65 103.39 38.46 101.73 38.33 100.06 C 38.11 99.85 37.68 99.43 37.47 99.22 C 37.45 98.08 37.38 96.95 37.31 95.82 C 36.22 92.29 35.82 88.60 34.78 85.06 C 34.54 83.22 34.33 81.37 34.14 79.52 Z" />
<path fill="#968176" opacity="1.00" d=" M 71.05 82.57 C 72.34 81.55 73.63 80.53 74.93 79.52 C 74.67 81.35 74.40 83.19 74.06 85.01 C 73.70 86.68 73.40 88.36 73.01 90.02 C 72.29 93.67 71.62 97.32 70.81 100.94 C 69.68 106.50 68.75 112.11 67.41 117.61 C 65.10 122.16 57.83 121.62 55.59 117.23 C 55.66 106.98 55.64 96.73 55.60 86.48 L 56.68 86.55 L 56.25 85.62 C 58.99 85.79 61.73 85.70 64.46 85.43 L 64.38 84.54 C 65.17 84.54 66.75 84.55 67.54 84.55 L 67.46 83.31 C 67.95 83.43 68.92 83.66 69.41 83.78 L 69.56 82.42 C 69.93 82.46 70.68 82.53 71.05 82.57 Z" />
</g>
</svg>
