<?xml version="1.0" encoding="UTF-8" ?>
<!DOCTYPE svg PUBLIC "-//W3C//DTD SVG 1.1//EN" "http://www.w3.org/Graphics/SVG/1.1/DTD/svg11.dtd">
<svg width="60pt" height="60pt" viewBox="0 0 60 60" version="1.1" xmlns="http://www.w3.org/2000/svg">
<g id="#ffffffff">
<path fill="#ffffff" opacity="1.00" d=" M 0.00 0.00 L 60.00 0.00 L 60.00 60.00 L 0.00 60.00 L 0.00 0.00 M 20.00 16.00 C 21.33 16.00 22.67 16.00 24.00 16.00 C 24.00 14.00 24.00 12.00 24.00 10.00 C 27.33 10.00 30.67 10.00 34.00 10.00 C 34.00 12.00 34.00 14.00 34.00 16.00 C 36.00 16.00 38.00 16.00 40.00 16.00 C 40.00 14.00 40.00 12.00 40.00 10.00 C 41.33 10.00 42.67 10.00 44.00 10.00 C 44.00 12.00 44.00 14.00 44.00 16.00 C 45.33 16.00 46.67 16.00 48.00 16.00 C 47.77 12.68 49.25 7.39 44.95 6.15 C 37.67 5.89 30.33 5.89 23.05 6.15 C 18.71 7.32 20.25 12.70 20.00 16.00 M 9.77 13.77 C 7.74 15.61 8.00 18.54 7.98 21.03 C 8.07 29.41 7.90 37.80 8.05 46.19 C 8.01 49.28 10.79 52.01 13.86 51.95 C 25.27 52.04 36.68 52.04 48.08 51.95 C 50.58 52.01 52.33 49.46 52.00 47.11 C 51.97 39.38 52.08 31.64 51.95 23.90 C 51.97 21.88 50.19 19.97 48.12 20.05 C 36.46 19.80 24.77 20.28 13.12 19.83 C 10.24 17.89 13.55 15.16 16.00 15.84 C 16.00 14.51 16.00 13.19 15.99 11.87 C 13.84 12.08 11.34 11.98 9.77 13.77 Z" />
<path fill="#ffffff" opacity="1.00" d=" M 42.38 32.36 C 46.99 30.00 50.40 37.77 45.62 39.63 C 41.01 41.99 37.58 34.23 42.38 32.36 Z" />
</g>
<g id="#000000ff">
<path fill="#000000" opacity="1.00" d=" M 20.00 16.00 C 20.25 12.70 18.71 7.32 23.05 6.15 C 30.33 5.89 37.67 5.89 44.95 6.15 C 49.25 7.39 47.77 12.68 48.00 16.00 C 46.67 16.00 45.33 16.00 44.00 16.00 C 44.00 14.00 44.00 12.00 44.00 10.00 C 42.67 10.00 41.33 10.00 40.00 10.00 C 40.00 12.00 40.00 14.00 40.00 16.00 C 38.00 16.00 36.00 16.00 34.00 16.00 C 34.00 14.00 34.00 12.00 34.00 10.00 C 30.67 10.00 27.33 10.00 24.00 10.00 C 24.00 12.00 24.00 14.00 24.00 16.00 C 22.67 16.00 21.33 16.00 20.00 16.00 Z" />
<path fill="#000000" opacity="1.00" d=" M 9.77 13.77 C 11.34 11.98 13.84 12.08 15.99 11.87 C 16.00 13.19 16.00 14.51 16.00 15.84 C 13.55 15.16 10.24 17.89 13.12 19.83 C 24.77 20.28 36.46 19.80 48.12 20.05 C 50.19 19.97 51.97 21.88 51.95 23.90 C 52.08 31.64 51.97 39.38 52.00 47.11 C 52.33 49.46 50.58 52.01 48.08 51.95 C 36.68 52.04 25.27 52.04 13.86 51.95 C 10.79 52.01 8.01 49.28 8.05 46.19 C 7.90 37.80 8.07 29.41 7.98 21.03 C 8.00 18.54 7.74 15.61 9.77 13.77 M 42.38 32.36 C 37.58 34.23 41.01 41.99 45.62 39.63 C 50.40 37.77 46.99 30.00 42.38 32.36 Z" />
</g>
</svg>
