<?xml version="1.0" encoding="UTF-8" ?>
<!DOCTYPE svg PUBLIC "-//W3C//DTD SVG 1.1//EN" "http://www.w3.org/Graphics/SVG/1.1/DTD/svg11.dtd">
<svg width="64pt" height="64pt" viewBox="0 0 64 64" version="1.1" xmlns="http://www.w3.org/2000/svg">
<g id="#ffffffff">
<path fill="#ffffff" opacity="1.00" d=" M 0.00 0.00 L 64.00 0.00 L 64.00 64.00 L 0.00 64.00 L 0.00 0.00 M 8.00 10.00 C 8.00 24.00 8.00 38.00 8.00 52.00 C 18.67 52.00 29.33 52.00 40.00 52.00 C 40.00 38.00 40.00 24.00 40.00 10.00 C 29.33 10.00 18.67 10.00 8.00 10.00 M 42.02 13.96 C 42.00 15.37 42.00 16.78 41.99 18.19 C 45.02 19.07 48.04 19.99 51.06 20.87 C 48.04 31.92 45.02 42.96 42.00 54.00 C 38.51 53.94 35.03 54.05 31.55 54.14 C 36.05 55.29 40.49 56.65 44.93 58.01 C 48.60 44.72 52.27 31.43 55.94 18.14 C 51.31 16.70 46.66 15.36 42.02 13.96 M 42.18 26.49 C 44.57 25.02 46.55 26.39 47.87 28.37 C 47.62 26.05 48.83 23.01 47.04 21.16 C 44.44 21.46 43.72 24.76 42.18 26.49 Z" />
<path fill="#ffffff" opacity="1.00" d=" M 12.00 14.00 C 20.00 14.00 28.00 14.00 36.00 14.00 C 36.00 25.33 36.00 36.67 36.00 48.00 C 28.00 48.00 20.00 48.00 12.00 48.00 C 12.00 36.67 12.00 25.33 12.00 14.00 M 27.98 22.32 C 30.50 21.94 31.01 19.50 30.90 17.34 C 31.09 19.40 31.49 22.01 34.02 22.32 C 33.41 20.19 32.85 18.03 31.89 16.02 C 28.61 15.40 29.11 20.25 27.98 22.32 M 16.01 32.03 C 15.94 36.02 21.26 37.18 23.61 34.32 C 22.98 36.18 22.47 38.09 21.96 39.99 C 23.32 39.99 24.68 40.00 26.03 39.99 C 25.53 38.09 25.02 36.19 24.39 34.32 C 26.77 37.18 31.98 36.00 31.99 32.04 C 31.30 27.56 27.11 24.81 24.00 21.93 C 20.90 24.82 16.77 27.57 16.01 32.03 M 13.98 39.68 C 14.59 41.81 15.16 43.97 16.12 45.98 C 19.39 46.60 18.89 41.75 20.02 39.68 C 17.48 39.98 17.08 42.58 16.90 44.64 C 17.01 42.49 16.48 40.07 13.98 39.68 Z" />
</g>
<g id="#000000ff">
<path fill="#000000" opacity="1.00" d=" M 8.00 10.00 C 18.67 10.00 29.33 10.00 40.00 10.00 C 40.00 24.00 40.00 38.00 40.00 52.00 C 29.33 52.00 18.67 52.00 8.00 52.00 C 8.00 38.00 8.00 24.00 8.00 10.00 M 12.00 14.00 C 12.00 25.33 12.00 36.67 12.00 48.00 C 20.00 48.00 28.00 48.00 36.00 48.00 C 36.00 36.67 36.00 25.33 36.00 14.00 C 28.00 14.00 20.00 14.00 12.00 14.00 Z" />
<path fill="#000000" opacity="1.00" d=" M 42.02 13.96 C 46.66 15.36 51.31 16.70 55.94 18.14 C 52.27 31.43 48.60 44.72 44.93 58.01 C 40.49 56.65 36.05 55.29 31.55 54.14 C 35.03 54.05 38.51 53.94 42.00 54.00 C 45.02 42.96 48.04 31.92 51.06 20.87 C 48.04 19.99 45.02 19.07 41.99 18.19 C 42.00 16.78 42.00 15.37 42.02 13.96 Z" />
<path fill="#000000" opacity="1.00" d=" M 27.98 22.32 C 29.11 20.25 28.61 15.40 31.89 16.02 C 32.85 18.03 33.41 20.19 34.02 22.32 C 31.49 22.01 31.09 19.40 30.90 17.34 C 31.01 19.50 30.50 21.94 27.98 22.32 Z" />
<path fill="#000000" opacity="1.00" d=" M 42.18 26.49 C 43.72 24.76 44.44 21.46 47.04 21.16 C 48.83 23.01 47.62 26.05 47.87 28.37 C 46.55 26.39 44.57 25.02 42.18 26.49 Z" />
<path fill="#000000" opacity="1.00" d=" M 16.01 32.03 C 16.77 27.57 20.90 24.82 24.00 21.93 C 27.11 24.81 31.30 27.56 31.99 32.04 C 31.98 36.00 26.77 37.18 24.39 34.32 C 25.02 36.19 25.53 38.09 26.03 39.99 C 24.68 40.00 23.32 39.99 21.96 39.99 C 22.47 38.09 22.98 36.18 23.61 34.32 C 21.26 37.18 15.94 36.02 16.01 32.03 Z" />
<path fill="#000000" opacity="1.00" d=" M 13.98 39.68 C 16.48 40.07 17.01 42.49 16.90 44.64 C 17.08 42.58 17.48 39.98 20.02 39.68 C 18.89 41.75 19.39 46.60 16.12 45.98 C 15.16 43.97 14.59 41.81 13.98 39.68 Z" />
</g>
</svg>
