<?xml version="1.0" encoding="UTF-8" ?>
<!DOCTYPE svg PUBLIC "-//W3C//DTD SVG 1.1//EN" "http://www.w3.org/Graphics/SVG/1.1/DTD/svg11.dtd">
<svg width="60pt" height="60pt" viewBox="0 0 60 60" version="1.1" xmlns="http://www.w3.org/2000/svg">
<g id="#ffffffff">
<path fill="#ffffff" opacity="1.00" d=" M 0.00 0.00 L 60.00 0.00 L 60.00 60.00 L 0.00 60.00 L 0.00 0.00 M 7.79 11.99 C 18.59 12.01 29.40 12.01 40.21 11.99 C 39.94 10.28 39.33 7.94 37.12 8.08 C 28.39 7.94 19.64 7.95 10.91 8.07 C 8.69 7.92 8.06 10.28 7.79 11.99 M 48.02 13.98 C 50.02 15.98 52.02 17.98 54.00 20.00 C 54.00 16.00 54.00 12.00 54.00 8.00 C 52.00 9.99 50.01 11.99 48.02 13.98 M 8.00 16.00 C 8.13 20.66 7.72 25.35 8.21 30.00 C 9.42 33.04 13.38 31.71 15.89 32.02 C 15.60 28.67 17.14 24.65 20.86 24.14 C 27.23 23.79 33.62 24.10 40.00 24.00 C 40.00 21.33 40.00 18.67 40.00 16.00 C 29.33 16.00 18.67 16.00 8.00 16.00 M 19.78 31.99 C 30.59 32.01 41.40 32.01 52.21 31.99 C 51.93 30.28 51.32 27.94 49.10 28.07 C 40.38 27.94 31.63 27.95 22.91 28.07 C 20.68 27.92 20.07 30.28 19.78 31.99 M 20.00 36.00 C 20.07 40.39 19.86 44.78 20.08 49.17 C 20.05 50.65 21.38 51.98 22.87 51.92 C 30.92 52.12 38.98 51.93 47.03 52.02 C 48.76 52.04 51.20 52.06 51.79 50.00 C 52.29 45.36 51.87 40.66 52.00 36.00 C 41.33 36.00 30.67 36.00 20.00 36.00 M 6.01 39.97 C 6.00 43.98 6.00 47.99 6.00 52.00 C 8.01 49.99 10.01 47.99 12.01 45.98 C 10.01 43.98 8.01 41.97 6.01 39.97 Z" />
</g>
<g id="#000000ff">
<path fill="#000000" opacity="1.00" d=" M 7.79 11.99 C 8.06 10.28 8.69 7.92 10.91 8.07 C 19.64 7.95 28.39 7.94 37.12 8.08 C 39.33 7.94 39.94 10.28 40.21 11.99 C 29.40 12.01 18.59 12.01 7.79 11.99 Z" />
<path fill="#000000" opacity="1.00" d=" M 48.02 13.98 C 50.01 11.99 52.00 9.99 54.00 8.00 C 54.00 12.00 54.00 16.00 54.00 20.00 C 52.02 17.98 50.02 15.98 48.02 13.98 Z" />
<path fill="#000000" opacity="1.00" d=" M 8.00 16.00 C 18.67 16.00 29.33 16.00 40.00 16.00 C 40.00 18.67 40.00 21.33 40.00 24.00 C 33.62 24.10 27.23 23.79 20.86 24.14 C 17.14 24.65 15.60 28.67 15.89 32.02 C 13.38 31.71 9.42 33.04 8.21 30.00 C 7.72 25.35 8.13 20.66 8.00 16.00 Z" />
<path fill="#000000" opacity="1.00" d=" M 19.78 31.99 C 20.07 30.28 20.68 27.92 22.91 28.07 C 31.63 27.95 40.38 27.94 49.10 28.07 C 51.32 27.94 51.93 30.28 52.21 31.99 C 41.40 32.01 30.59 32.01 19.78 31.99 Z" />
<path fill="#000000" opacity="1.00" d=" M 20.00 36.00 C 30.67 36.00 41.33 36.00 52.00 36.00 C 51.87 40.66 52.29 45.36 51.79 50.00 C 51.20 52.06 48.76 52.04 47.03 52.02 C 38.98 51.93 30.92 52.12 22.87 51.92 C 21.38 51.98 20.05 50.65 20.08 49.17 C 19.86 44.78 20.07 40.39 20.00 36.00 Z" />
<path fill="#000000" opacity="1.00" d=" M 6.01 39.97 C 8.01 41.97 10.01 43.98 12.01 45.98 C 10.01 47.99 8.01 49.99 6.00 52.00 C 6.00 47.99 6.00 43.98 6.01 39.97 Z" />
</g>
</svg>
