<?xml version="1.0" encoding="UTF-8" ?>
<!DOCTYPE svg PUBLIC "-//W3C//DTD SVG 1.1//EN" "http://www.w3.org/Graphics/SVG/1.1/DTD/svg11.dtd">
<svg width="60pt" height="60pt" viewBox="0 0 60 60" version="1.1" xmlns="http://www.w3.org/2000/svg">
<g id="#ffffffff">
<path fill="#ffffff" opacity="1.00" d=" M 0.00 0.00 L 60.00 0.00 L 60.00 60.00 L 0.00 60.00 L 0.00 0.00 M 26.38 8.35 C 25.16 10.39 27.02 12.22 27.88 13.93 C 28.18 17.25 27.94 20.59 28.00 23.92 C 25.70 23.89 23.32 23.95 21.45 25.46 C 17.87 22.95 13.27 24.11 10.33 27.03 C 11.34 27.89 12.34 28.75 13.34 29.62 C 15.34 28.03 17.79 27.83 20.24 28.34 C 18.99 32.30 17.09 36.04 16.01 40.05 C 16.17 42.67 19.74 42.43 20.09 40.01 C 23.30 31.78 36.48 32.17 39.88 40.06 C 40.31 42.47 43.93 42.64 43.97 39.98 C 43.01 36.58 41.25 33.45 40.45 30.00 C 40.13 27.72 41.34 25.38 43.23 24.12 C 45.18 24.12 47.02 25.04 48.99 24.71 C 48.56 21.83 47.55 19.05 45.58 16.86 C 45.67 16.10 45.86 14.59 45.96 13.83 C 43.25 14.41 40.13 14.96 38.46 17.45 C 36.70 20.08 35.59 23.60 32.07 24.30 C 31.97 20.77 31.98 17.24 32.04 13.71 C 33.27 12.26 34.76 10.28 33.60 8.33 C 32.39 5.24 27.61 5.31 26.38 8.35 M 28.16 39.19 C 27.82 42.11 28.05 45.07 28.01 48.00 C 22.00 48.07 15.99 47.87 9.98 48.07 C 8.49 47.96 7.69 49.53 8.10 50.83 C 9.16 52.52 11.36 51.83 13.01 52.02 C 25.35 51.92 37.70 52.13 50.04 51.92 C 52.59 52.14 52.58 47.85 50.04 48.08 C 44.03 47.87 38.01 48.07 32.00 48.00 C 31.95 45.06 32.19 42.11 31.83 39.19 C 31.23 37.58 28.76 37.57 28.16 39.19 Z" />
</g>
<g id="#000000ff">
<path fill="#968176" opacity="1.00" d=" M 26.38 8.35 C 27.61 5.31 32.39 5.24 33.60 8.33 C 34.76 10.28 33.27 12.26 32.04 13.71 C 31.98 17.24 31.97 20.77 32.07 24.30 C 35.59 23.60 36.70 20.08 38.46 17.45 C 40.13 14.96 43.25 14.41 45.96 13.83 C 45.86 14.59 45.67 16.10 45.58 16.86 C 47.55 19.05 48.56 21.83 48.99 24.71 C 47.02 25.04 45.18 24.12 43.23 24.12 C 41.34 25.38 40.13 27.72 40.45 30.00 C 41.25 33.45 43.01 36.58 43.97 39.98 C 43.93 42.64 40.31 42.47 39.88 40.06 C 36.48 32.17 23.30 31.78 20.09 40.01 C 19.74 42.43 16.17 42.67 16.01 40.05 C 17.09 36.04 18.99 32.30 20.24 28.34 C 17.79 27.83 15.34 28.03 13.34 29.62 C 12.34 28.75 11.34 27.89 10.33 27.03 C 13.27 24.11 17.87 22.95 21.45 25.46 C 23.32 23.95 25.70 23.89 28.00 23.92 C 27.94 20.59 28.18 17.25 27.88 13.93 C 27.02 12.22 25.16 10.39 26.38 8.35 Z" />
<path fill="#968176" opacity="1.00" d=" M 28.16 39.19 C 28.76 37.57 31.23 37.58 31.83 39.19 C 32.19 42.11 31.95 45.06 32.00 48.00 C 38.01 48.07 44.03 47.87 50.04 48.08 C 52.58 47.85 52.59 52.14 50.04 51.92 C 37.70 52.13 25.35 51.92 13.01 52.02 C 11.36 51.83 9.16 52.52 8.10 50.83 C 7.69 49.53 8.49 47.96 9.98 48.07 C 15.99 47.87 22.00 48.07 28.01 48.00 C 28.05 45.07 27.82 42.11 28.16 39.19 Z" />
</g>
</svg>
