<?xml version="1.0" encoding="UTF-8" ?>
<!DOCTYPE svg PUBLIC "-//W3C//DTD SVG 1.1//EN" "http://www.w3.org/Graphics/SVG/1.1/DTD/svg11.dtd">
<svg width="64pt" height="64pt" viewBox="0 0 64 64" version="1.1" xmlns="http://www.w3.org/2000/svg">
<g id="#ffffffff">
<path fill="#ffffff" opacity="1.00" d=" M 0.00 0.00 L 64.00 0.00 L 64.00 64.00 L 0.00 64.00 L 0.00 0.00 M 22.00 17.36 C 22.00 18.02 22.00 19.33 22.00 19.98 C 22.50 19.99 23.50 20.01 24.00 20.02 C 24.00 23.34 24.00 26.67 24.00 30.00 C 23.50 30.00 22.50 30.00 22.00 30.00 C 22.00 28.67 22.00 27.33 22.00 26.00 C 20.00 26.00 18.01 26.00 16.02 26.00 C 16.01 26.50 15.99 27.50 15.98 28.00 C 15.49 28.00 14.51 28.00 14.02 28.00 C 14.01 27.50 13.99 26.50 13.98 26.00 C 11.99 26.00 9.99 26.00 8.00 26.00 C 8.00 30.66 8.00 35.32 8.00 39.98 C 8.50 39.99 9.50 40.01 10.00 40.02 C 10.00 46.01 10.00 52.01 10.00 58.00 C 24.67 58.00 39.33 58.00 54.00 58.00 C 54.00 52.01 54.00 46.01 54.00 40.02 C 54.50 40.01 55.50 39.99 56.00 39.98 C 56.00 35.32 56.00 30.66 56.00 26.00 C 54.00 26.00 52.01 26.00 50.02 26.00 C 50.01 26.50 49.99 27.50 49.98 28.00 C 49.49 28.00 48.51 28.00 48.02 28.00 C 48.01 27.50 47.99 26.50 47.98 26.00 C 45.99 26.00 44.00 26.00 42.00 26.00 C 42.00 27.33 42.00 28.67 42.00 30.00 C 41.50 30.00 40.50 30.00 40.00 30.00 C 40.00 26.67 40.00 23.34 40.00 20.02 C 40.50 20.01 41.50 19.99 42.00 19.98 C 42.00 19.32 42.00 17.99 41.99 17.32 C 38.67 13.54 35.35 9.75 32.00 6.00 C 28.67 9.78 25.31 13.55 22.00 17.36 Z" />
<path fill="#ffffff" opacity="1.00" d=" M 28.00 15.99 C 29.33 14.21 30.67 12.44 32.01 10.66 C 33.35 12.43 34.67 14.21 36.00 15.99 C 33.33 16.00 30.67 16.01 28.00 15.99 Z" />
<path fill="#ffffff" opacity="1.00" d=" M 28.00 20.00 C 30.67 20.00 33.33 20.00 36.00 20.00 C 36.00 24.67 36.00 29.33 36.00 34.00 C 39.33 34.00 42.66 34.00 45.98 34.00 C 45.99 33.50 46.01 32.50 46.02 32.00 C 48.01 32.00 50.00 32.00 52.00 32.00 C 52.00 33.33 52.00 34.66 52.00 35.98 C 51.50 35.99 50.50 36.01 50.00 36.02 C 50.00 42.01 50.00 48.01 50.00 54.00 C 46.01 54.00 42.01 54.00 38.02 54.00 C 37.90 51.44 38.47 48.50 36.73 46.34 C 34.68 43.50 30.12 43.22 27.74 45.79 C 25.49 47.91 26.07 51.23 25.98 54.00 C 21.99 54.00 17.99 54.00 14.00 54.00 C 14.00 48.01 14.00 42.01 14.00 36.02 C 13.50 36.01 12.50 35.99 12.00 35.98 C 12.00 34.66 12.00 33.33 12.00 32.00 C 13.99 32.00 15.99 32.00 17.98 32.00 C 17.99 32.50 18.01 33.50 18.02 34.00 C 21.34 34.00 24.67 34.00 28.00 34.00 C 28.00 29.33 28.00 24.67 28.00 20.00 M 17.98 50.00 C 19.33 50.00 20.67 50.00 22.02 50.00 C 21.76 48.04 22.94 44.13 19.95 44.05 C 17.04 44.26 18.26 48.06 17.98 50.00 M 41.98 50.00 C 43.33 50.00 44.67 50.00 46.02 50.00 C 45.77 47.99 46.95 44.21 43.92 43.99 C 41.04 44.43 42.26 48.01 41.98 50.00 Z" />
<path fill="#ffffff" opacity="1.00" d=" M 31.17 48.10 C 34.76 47.29 33.97 51.82 34.02 54.00 C 32.67 54.00 31.33 54.00 29.98 54.00 C 30.27 52.06 29.22 49.37 31.17 48.10 Z" />
</g>
<g id="#000000ff">
<path fill="#000000" opacity="1.00" d=" M 22.00 17.36 C 25.31 13.55 28.67 9.78 32.00 6.00 C 35.35 9.75 38.67 13.54 41.99 17.32 C 42.00 17.99 42.00 19.32 42.00 19.98 C 41.50 19.99 40.50 20.01 40.00 20.02 C 40.00 23.34 40.00 26.67 40.00 30.00 C 40.50 30.00 41.50 30.00 42.00 30.00 C 42.00 28.67 42.00 27.33 42.00 26.00 C 44.00 26.00 45.99 26.00 47.98 26.00 C 47.99 26.50 48.01 27.50 48.02 28.00 C 48.51 28.00 49.49 28.00 49.98 28.00 C 49.99 27.50 50.01 26.50 50.02 26.00 C 52.01 26.00 54.00 26.00 56.00 26.00 C 56.00 30.66 56.00 35.32 56.00 39.98 C 55.50 39.99 54.50 40.01 54.00 40.02 C 54.00 46.01 54.00 52.01 54.00 58.00 C 39.33 58.00 24.67 58.00 10.00 58.00 C 10.00 52.01 10.00 46.01 10.00 40.02 C 9.50 40.01 8.50 39.99 8.00 39.98 C 8.00 35.32 8.00 30.66 8.00 26.00 C 9.99 26.00 11.99 26.00 13.98 26.00 C 13.99 26.50 14.01 27.50 14.02 28.00 C 14.51 28.00 15.49 28.00 15.98 28.00 C 15.99 27.50 16.01 26.50 16.02 26.00 C 18.01 26.00 20.00 26.00 22.00 26.00 C 22.00 27.33 22.00 28.67 22.00 30.00 C 22.50 30.00 23.50 30.00 24.00 30.00 C 24.00 26.67 24.00 23.34 24.00 20.02 C 23.50 20.01 22.50 19.99 22.00 19.98 C 22.00 19.33 22.00 18.02 22.00 17.36 M 28.00 15.99 C 30.67 16.01 33.33 16.00 36.00 15.99 C 34.67 14.21 33.35 12.43 32.01 10.66 C 30.67 12.44 29.33 14.21 28.00 15.99 M 28.00 20.00 C 28.00 24.67 28.00 29.33 28.00 34.00 C 24.67 34.00 21.34 34.00 18.02 34.00 C 18.01 33.50 17.99 32.50 17.98 32.00 C 15.99 32.00 13.99 32.00 12.00 32.00 C 12.00 33.33 12.00 34.66 12.00 35.98 C 12.50 35.99 13.50 36.01 14.00 36.02 C 14.00 42.01 14.00 48.01 14.00 54.00 C 17.99 54.00 21.99 54.00 25.98 54.00 C 26.07 51.23 25.49 47.91 27.74 45.79 C 30.12 43.22 34.68 43.50 36.73 46.34 C 38.47 48.50 37.90 51.44 38.02 54.00 C 42.01 54.00 46.01 54.00 50.00 54.00 C 50.00 48.01 50.00 42.01 50.00 36.02 C 50.50 36.01 51.50 35.99 52.00 35.98 C 52.00 34.66 52.00 33.33 52.00 32.00 C 50.00 32.00 48.01 32.00 46.02 32.00 C 46.01 32.50 45.99 33.50 45.98 34.00 C 42.66 34.00 39.33 34.00 36.00 34.00 C 36.00 29.33 36.00 24.67 36.00 20.00 C 33.33 20.00 30.67 20.00 28.00 20.00 M 31.17 48.10 C 29.22 49.37 30.27 52.06 29.98 54.00 C 31.33 54.00 32.67 54.00 34.02 54.00 C 33.97 51.82 34.76 47.29 31.17 48.10 Z" />
<path fill="#000000" opacity="1.00" d=" M 17.98 50.00 C 18.26 48.06 17.04 44.26 19.95 44.05 C 22.94 44.13 21.76 48.04 22.02 50.00 C 20.67 50.00 19.33 50.00 17.98 50.00 Z" />
<path fill="#000000" opacity="1.00" d=" M 41.98 50.00 C 42.26 48.01 41.04 44.43 43.92 43.99 C 46.95 44.21 45.77 47.99 46.02 50.00 C 44.67 50.00 43.33 50.00 41.98 50.00 Z" />
</g>
</svg>
