<?xml version="1.0" encoding="UTF-8" ?>
<!DOCTYPE svg PUBLIC "-//W3C//DTD SVG 1.1//EN" "http://www.w3.org/Graphics/SVG/1.1/DTD/svg11.dtd">
<svg width="60pt" height="60pt" viewBox="0 0 60 60" version="1.1" xmlns="http://www.w3.org/2000/svg">
<g id="#ffffffff">
<path fill="#ffffff" opacity="1.00" d=" M 0.00 0.00 L 60.00 0.00 L 60.00 60.00 L 0.00 60.00 L 0.00 0.00 M 28.50 6.61 C 27.10 7.02 25.42 7.15 24.39 8.29 C 23.24 9.85 25.21 12.05 26.92 11.12 C 29.75 9.97 33.67 10.98 35.85 8.75 C 36.53 4.63 30.87 6.22 28.50 6.61 M 42.49 12.50 C 43.65 15.04 45.54 18.67 48.93 17.86 C 51.78 16.68 52.66 13.29 54.30 10.93 C 52.63 8.40 49.88 6.79 47.00 6.02 C 43.97 5.97 40.90 9.59 42.49 12.50 M 9.18 8.07 C 6.80 11.59 4.55 16.67 7.45 20.57 C 10.05 24.57 15.73 24.78 19.38 22.14 C 21.94 24.80 24.58 27.38 27.18 30.00 C 23.60 33.57 20.04 37.17 16.45 40.72 C 13.42 39.57 9.63 39.84 7.57 42.62 C 4.37 46.23 6.42 52.57 11.08 53.71 C 14.41 54.85 17.65 52.72 19.44 50.03 C 26.49 49.98 33.54 49.98 40.60 50.03 C 42.29 52.39 44.97 54.49 48.07 53.82 C 52.83 53.25 55.65 47.15 52.82 43.20 C 50.93 40.01 46.79 39.40 43.54 40.69 C 39.70 36.85 35.86 33.01 32.01 29.17 C 31.64 26.86 32.96 23.68 30.79 22.07 C 28.74 21.35 28.09 23.49 27.63 24.99 C 23.08 20.01 18.12 15.43 13.44 10.58 C 12.19 9.50 11.11 7.62 9.18 8.07 M 32.46 12.61 C 31.03 12.98 29.46 13.24 28.34 14.27 C 27.30 15.97 29.17 18.01 30.98 17.10 C 33.85 16.05 37.51 16.85 39.90 14.85 C 40.55 10.61 34.91 12.22 32.46 12.61 Z" />
<path fill="#ffffff" opacity="1.00" d=" M 19.35 43.63 C 22.03 40.52 25.17 37.83 27.99 34.85 C 28.00 38.57 28.00 42.28 28.00 46.00 C 25.27 46.00 22.54 45.99 19.81 46.02 C 19.70 45.42 19.47 44.23 19.35 43.63 Z" />
<path fill="#ffffff" opacity="1.00" d=" M 32.01 34.82 C 34.84 37.79 37.96 40.50 40.64 43.62 C 40.53 44.22 40.32 45.42 40.21 46.02 C 37.47 45.99 34.74 46.00 32.00 46.00 C 32.00 42.27 32.00 38.55 32.01 34.82 Z" />
<path fill="#ffffff" opacity="1.00" d=" M 11.38 44.48 C 12.91 43.46 15.31 44.21 15.80 46.03 C 16.73 48.24 14.24 50.75 12.03 49.80 C 9.71 49.20 9.33 45.65 11.38 44.48 Z" />
<path fill="#ffffff" opacity="1.00" d=" M 45.36 44.48 C 48.49 42.18 51.86 47.51 48.61 49.43 C 45.48 51.70 42.08 46.40 45.36 44.48 Z" />
</g>
<g id="#000000ff">
<path fill="#000000" opacity="1.00" d=" M 28.50 6.61 C 30.87 6.22 36.53 4.63 35.85 8.75 C 33.67 10.98 29.75 9.97 26.92 11.12 C 25.21 12.05 23.24 9.85 24.39 8.29 C 25.42 7.15 27.10 7.02 28.50 6.61 Z" />
<path fill="#000000" opacity="1.00" d=" M 42.49 12.50 C 40.90 9.59 43.97 5.97 47.00 6.02 C 49.88 6.79 52.63 8.40 54.30 10.93 C 52.66 13.29 51.78 16.68 48.93 17.86 C 45.54 18.67 43.65 15.04 42.49 12.50 Z" />
<path fill="#000000" opacity="1.00" d=" M 9.18 8.07 C 11.11 7.62 12.19 9.50 13.44 10.58 C 18.12 15.43 23.08 20.01 27.63 24.99 C 28.09 23.49 28.74 21.35 30.79 22.07 C 32.96 23.68 31.64 26.86 32.01 29.17 C 35.86 33.01 39.70 36.85 43.54 40.69 C 46.79 39.40 50.93 40.01 52.82 43.20 C 55.65 47.15 52.83 53.25 48.07 53.82 C 44.97 54.49 42.29 52.39 40.60 50.03 C 33.54 49.98 26.49 49.98 19.44 50.03 C 17.65 52.72 14.41 54.85 11.08 53.71 C 6.42 52.57 4.37 46.23 7.57 42.62 C 9.63 39.84 13.42 39.57 16.45 40.72 C 20.04 37.17 23.60 33.57 27.18 30.00 C 24.58 27.38 21.94 24.80 19.38 22.14 C 15.73 24.78 10.05 24.57 7.45 20.57 C 4.55 16.67 6.80 11.59 9.18 8.07 M 19.35 43.63 C 19.47 44.23 19.70 45.42 19.81 46.02 C 22.54 45.99 25.27 46.00 28.00 46.00 C 28.00 42.28 28.00 38.57 27.99 34.85 C 25.17 37.83 22.03 40.52 19.35 43.63 M 32.01 34.82 C 32.00 38.55 32.00 42.27 32.00 46.00 C 34.74 46.00 37.47 45.99 40.21 46.02 C 40.32 45.42 40.53 44.22 40.64 43.62 C 37.96 40.50 34.84 37.79 32.01 34.82 M 11.38 44.48 C 9.33 45.65 9.71 49.20 12.03 49.80 C 14.24 50.75 16.73 48.24 15.80 46.03 C 15.31 44.21 12.91 43.46 11.38 44.48 M 45.36 44.48 C 42.08 46.40 45.48 51.70 48.61 49.43 C 51.86 47.51 48.49 42.18 45.36 44.48 Z" />
<path fill="#000000" opacity="1.00" d=" M 32.46 12.61 C 34.91 12.22 40.55 10.61 39.90 14.85 C 37.51 16.85 33.85 16.05 30.98 17.10 C 29.17 18.01 27.30 15.97 28.34 14.27 C 29.46 13.24 31.03 12.98 32.46 12.61 Z" />
</g>
</svg>
