<?xml version="1.0" encoding="UTF-8" ?>
<!DOCTYPE svg PUBLIC "-//W3C//DTD SVG 1.1//EN" "http://www.w3.org/Graphics/SVG/1.1/DTD/svg11.dtd">
<svg width="60pt" height="60pt" viewBox="0 0 60 60" version="1.1" xmlns="http://www.w3.org/2000/svg">
<g id="#ffffffff">
<path fill="#ffffff" opacity="1.00" d=" M 0.00 0.00 L 60.00 0.00 L 60.00 60.00 L 0.00 60.00 L 0.00 0.00 M 24.03 21.96 C 23.23 20.41 22.30 18.92 20.93 17.81 C 18.51 18.63 17.47 21.16 16.21 23.17 C 11.59 32.08 8.40 41.91 7.97 51.99 C 12.64 52.01 17.31 52.00 21.98 51.99 C 23.30 48.02 25.11 42.48 30.00 42.05 C 34.89 42.50 36.61 48.08 38.04 52.00 C 42.69 52.00 47.35 52.00 52.01 52.00 C 51.73 44.36 50.54 36.65 47.69 29.53 C 46.66 27.38 45.62 24.48 42.96 23.98 C 39.89 24.10 39.01 27.53 37.98 29.83 C 36.36 23.35 35.30 16.62 32.38 10.55 C 31.88 9.38 30.95 8.49 29.96 7.73 C 26.39 11.60 25.64 17.13 24.03 21.96 Z" />
</g>
<g id="#000000ff">
<path fill="#000000" opacity="1.00" d=" M 24.03 21.96 C 25.64 17.13 26.39 11.60 29.96 7.73 C 30.95 8.49 31.88 9.38 32.38 10.55 C 35.30 16.62 36.36 23.35 37.98 29.83 C 39.01 27.53 39.89 24.10 42.96 23.98 C 45.62 24.48 46.66 27.38 47.69 29.53 C 50.54 36.65 51.73 44.36 52.01 52.00 C 47.35 52.00 42.69 52.00 38.04 52.00 C 36.61 48.08 34.89 42.50 30.00 42.05 C 25.11 42.48 23.30 48.02 21.98 51.99 C 17.31 52.00 12.64 52.01 7.97 51.99 C 8.40 41.91 11.59 32.08 16.21 23.17 C 17.47 21.16 18.51 18.63 20.93 17.81 C 22.30 18.92 23.23 20.41 24.03 21.96 Z" />
</g>
</svg>
