<?xml version="1.0" encoding="UTF-8" ?>
<!DOCTYPE svg PUBLIC "-//W3C//DTD SVG 1.1//EN" "http://www.w3.org/Graphics/SVG/1.1/DTD/svg11.dtd">
<svg width="64pt" height="64pt" viewBox="0 0 64 64" version="1.1" xmlns="http://www.w3.org/2000/svg">
<g id="#ffffffff">
<path fill="#ffffff" opacity="1.00" d=" M 0.00 0.00 L 64.00 0.00 L 64.00 64.00 L 0.00 64.00 L 0.00 0.00 M 30.47 8.48 C 27.48 11.18 26.72 15.40 25.49 19.06 C 24.11 18.58 22.68 17.62 21.18 18.22 C 18.63 19.67 17.46 22.55 16.22 25.05 C 11.93 34.92 9.74 45.51 7.56 56.00 C 13.55 55.99 19.53 56.02 25.52 55.98 C 26.49 52.78 27.40 49.29 29.93 46.92 C 30.88 46.00 32.41 45.63 33.53 46.50 C 36.43 48.76 37.37 52.56 38.43 55.91 C 44.41 56.10 50.40 55.96 56.39 56.00 C 54.87 47.19 53.10 38.36 49.94 29.98 C 49.01 27.82 48.10 25.30 45.89 24.14 C 43.25 23.32 41.62 25.85 40.41 27.73 C 39.09 21.91 38.12 15.87 35.33 10.53 C 34.55 8.75 32.34 7.19 30.47 8.48 Z" />
<path fill="#ffffff" opacity="1.00" d=" M 26.49 29.93 C 28.18 24.22 29.19 18.17 32.18 12.94 C 35.89 22.27 37.51 32.24 39.63 42.01 C 41.15 37.35 42.25 32.49 44.76 28.24 C 48.55 35.63 49.71 43.96 51.43 52.00 C 48.07 52.00 44.70 52.01 41.33 51.98 C 39.94 47.61 37.26 42.20 32.02 42.00 C 26.77 42.17 24.04 47.58 22.68 51.98 C 19.28 52.01 15.89 52.00 12.50 52.00 C 14.90 41.76 16.89 31.06 22.48 21.98 C 24.14 24.46 25.31 27.21 26.49 29.93 Z" />
</g>
<g id="#000000ff">
<path fill="#000000" opacity="1.00" d=" M 30.47 8.48 C 32.34 7.19 34.55 8.75 35.33 10.53 C 38.12 15.87 39.09 21.91 40.41 27.73 C 41.62 25.85 43.25 23.32 45.89 24.14 C 48.10 25.30 49.01 27.82 49.94 29.98 C 53.10 38.36 54.87 47.19 56.39 56.00 C 50.40 55.96 44.41 56.10 38.43 55.91 C 37.37 52.56 36.43 48.76 33.53 46.50 C 32.41 45.63 30.88 46.00 29.93 46.92 C 27.40 49.29 26.49 52.78 25.52 55.98 C 19.53 56.02 13.55 55.99 7.56 56.00 C 9.74 45.51 11.93 34.92 16.22 25.05 C 17.46 22.55 18.63 19.67 21.18 18.22 C 22.68 17.62 24.11 18.58 25.49 19.06 C 26.72 15.40 27.48 11.18 30.47 8.48 M 26.49 29.93 C 25.31 27.21 24.14 24.46 22.48 21.98 C 16.89 31.06 14.90 41.76 12.50 52.00 C 15.89 52.00 19.28 52.01 22.68 51.98 C 24.04 47.58 26.77 42.17 32.02 42.00 C 37.26 42.20 39.94 47.61 41.33 51.98 C 44.70 52.01 48.07 52.00 51.43 52.00 C 49.71 43.96 48.55 35.63 44.76 28.24 C 42.25 32.49 41.15 37.35 39.63 42.01 C 37.51 32.24 35.89 22.27 32.18 12.94 C 29.19 18.17 28.18 24.22 26.49 29.93 Z" />
</g>
</svg>
