<?xml version="1.0" encoding="UTF-8" ?>
<!DOCTYPE svg PUBLIC "-//W3C//DTD SVG 1.1//EN" "http://www.w3.org/Graphics/SVG/1.1/DTD/svg11.dtd">
<svg width="64pt" height="64pt" viewBox="0 0 64 64" version="1.1" xmlns="http://www.w3.org/2000/svg">
<g id="#ffffffff">
<path fill="#ffffff" opacity="1.00" d=" M 0.00 0.00 L 64.00 0.00 L 64.00 64.00 L 0.00 64.00 L 0.00 0.00 M 20.30 9.22 C 18.02 10.79 17.78 13.79 18.30 16.29 C 16.04 15.90 13.41 15.88 11.73 17.71 C 9.94 19.29 10.00 21.83 10.11 24.01 C 8.74 24.01 7.37 24.00 6.00 24.00 C 6.00 25.33 6.00 26.66 6.00 27.99 C 6.50 27.99 7.50 28.01 8.00 28.01 C 8.00 36.00 8.00 44.00 8.00 51.99 C 7.50 51.99 6.50 52.01 6.00 52.01 C 6.00 53.34 6.00 54.67 6.00 56.00 C 23.33 56.00 40.67 56.00 58.00 56.00 C 58.00 54.67 58.00 53.34 58.00 52.01 C 57.50 52.01 56.50 51.99 56.00 51.99 C 56.00 44.00 56.00 36.00 56.00 28.01 C 56.50 28.01 57.50 27.99 58.00 27.99 C 58.00 26.66 58.00 25.33 58.00 24.00 C 56.63 24.00 55.26 24.01 53.89 24.01 C 54.00 21.84 54.05 19.33 52.30 17.73 C 50.61 15.89 47.96 15.89 45.69 16.30 C 46.21 13.82 46.00 10.84 43.75 9.25 C 41.50 7.39 38.40 7.97 35.99 9.17 C 33.47 7.76 30.52 7.75 28.00 9.17 C 25.61 7.98 22.54 7.39 20.30 9.22 Z" />
<path fill="#ffffff" opacity="1.00" d=" M 23.08 12.09 C 25.55 10.95 27.29 14.90 24.80 15.85 C 22.39 16.99 20.86 13.21 23.08 12.09 Z" />
<path fill="#ffffff" opacity="1.00" d=" M 31.16 12.09 C 33.62 10.98 35.24 14.95 32.79 15.87 C 30.37 17.01 28.82 13.10 31.16 12.09 Z" />
<path fill="#ffffff" opacity="1.00" d=" M 39.18 12.08 C 42.16 10.75 43.16 16.22 40.02 15.95 C 37.82 16.34 37.24 12.79 39.18 12.08 Z" />
<path fill="#ffffff" opacity="1.00" d=" M 15.14 20.08 C 18.12 18.71 19.18 24.20 16.04 23.95 C 13.85 24.39 13.26 20.83 15.14 20.08 Z" />
<path fill="#ffffff" opacity="1.00" d=" M 23.11 20.08 C 25.61 18.93 27.27 23.00 24.75 23.88 C 22.33 24.93 20.88 21.15 23.11 20.08 Z" />
<path fill="#ffffff" opacity="1.00" d=" M 31.22 20.13 C 33.63 18.93 35.21 23.05 32.80 23.83 C 30.40 25.11 28.73 20.95 31.22 20.13 Z" />
<path fill="#ffffff" opacity="1.00" d=" M 39.18 20.16 C 42.15 18.64 43.18 24.34 39.96 23.95 C 37.85 24.38 37.22 20.66 39.18 20.16 Z" />
<path fill="#ffffff" opacity="1.00" d=" M 47.14 20.09 C 49.64 18.97 51.21 22.97 48.77 23.91 C 46.32 24.91 44.85 21.12 47.14 20.09 Z" />
<path fill="#ffffff" opacity="1.00" d=" M 12.00 28.00 C 25.33 28.00 38.67 28.00 52.00 28.00 C 52.00 36.00 52.00 44.00 52.00 52.00 C 38.67 52.00 25.33 52.00 12.00 52.00 C 12.00 44.00 12.00 36.00 12.00 28.00 M 17.61 39.93 C 19.24 43.25 21.72 46.40 25.45 47.43 C 30.38 49.16 35.81 46.87 38.81 42.79 C 40.53 44.54 42.26 46.27 44.00 48.00 C 44.00 42.67 44.00 37.33 44.00 32.00 C 42.25 33.75 40.50 35.49 38.76 37.25 C 36.34 34.31 32.92 31.93 28.96 32.02 C 23.91 31.80 19.28 35.23 17.61 39.93 Z" />
<path fill="#ffffff" opacity="1.00" d=" M 21.97 40.00 C 25.03 34.82 32.97 34.83 36.03 40.00 C 34.31 42.18 31.92 44.12 28.99 44.00 C 26.06 44.11 23.67 42.18 21.97 40.00 Z" />
</g>
<g id="#000000ff">
<path fill="#000000" opacity="1.00" d=" M 20.30 9.22 C 22.54 7.39 25.61 7.98 28.00 9.17 C 30.52 7.75 33.47 7.76 35.99 9.17 C 38.40 7.97 41.50 7.39 43.75 9.25 C 46.00 10.84 46.21 13.82 45.69 16.30 C 47.96 15.89 50.61 15.89 52.30 17.73 C 54.05 19.33 54.00 21.84 53.89 24.01 C 55.26 24.01 56.63 24.00 58.00 24.00 C 58.00 25.33 58.00 26.66 58.00 27.99 C 57.50 27.99 56.50 28.01 56.00 28.01 C 56.00 36.00 56.00 44.00 56.00 51.99 C 56.50 51.99 57.50 52.01 58.00 52.01 C 58.00 53.34 58.00 54.67 58.00 56.00 C 40.67 56.00 23.33 56.00 6.00 56.00 C 6.00 54.67 6.00 53.34 6.00 52.01 C 6.50 52.01 7.50 51.99 8.00 51.99 C 8.00 44.00 8.00 36.00 8.00 28.01 C 7.50 28.01 6.50 27.99 6.00 27.99 C 6.00 26.66 6.00 25.33 6.00 24.00 C 7.37 24.00 8.74 24.01 10.11 24.01 C 10.00 21.83 9.94 19.29 11.73 17.71 C 13.41 15.88 16.04 15.90 18.30 16.29 C 17.78 13.79 18.02 10.79 20.30 9.22 M 23.08 12.09 C 20.86 13.21 22.39 16.99 24.80 15.85 C 27.29 14.90 25.55 10.95 23.08 12.09 M 31.16 12.09 C 28.82 13.10 30.37 17.01 32.79 15.87 C 35.24 14.95 33.62 10.98 31.16 12.09 M 39.18 12.08 C 37.24 12.79 37.82 16.34 40.02 15.95 C 43.16 16.22 42.16 10.75 39.18 12.08 M 15.14 20.08 C 13.26 20.83 13.85 24.39 16.04 23.95 C 19.18 24.20 18.12 18.71 15.14 20.08 M 23.11 20.08 C 20.88 21.15 22.33 24.93 24.75 23.88 C 27.27 23.00 25.61 18.93 23.11 20.08 M 31.22 20.13 C 28.73 20.95 30.40 25.11 32.80 23.83 C 35.21 23.05 33.63 18.93 31.22 20.13 M 39.18 20.16 C 37.22 20.66 37.85 24.38 39.96 23.95 C 43.18 24.34 42.15 18.64 39.18 20.16 M 47.14 20.09 C 44.85 21.12 46.32 24.91 48.77 23.91 C 51.21 22.97 49.64 18.97 47.14 20.09 M 12.00 28.00 C 12.00 36.00 12.00 44.00 12.00 52.00 C 25.33 52.00 38.67 52.00 52.00 52.00 C 52.00 44.00 52.00 36.00 52.00 28.00 C 38.67 28.00 25.33 28.00 12.00 28.00 Z" />
<path fill="#000000" opacity="1.00" d=" M 17.61 39.93 C 19.28 35.23 23.91 31.80 28.96 32.02 C 32.92 31.93 36.34 34.31 38.76 37.25 C 40.50 35.49 42.25 33.75 44.00 32.00 C 44.00 37.33 44.00 42.67 44.00 48.00 C 42.26 46.27 40.53 44.54 38.81 42.79 C 35.81 46.87 30.38 49.16 25.45 47.43 C 21.72 46.40 19.24 43.25 17.61 39.93 M 21.97 40.00 C 23.67 42.18 26.06 44.11 28.99 44.00 C 31.92 44.12 34.31 42.18 36.03 40.00 C 32.97 34.83 25.03 34.82 21.97 40.00 Z" />
</g>
</svg>
