<?xml version="1.0" encoding="UTF-8" ?>
<!DOCTYPE svg PUBLIC "-//W3C//DTD SVG 1.1//EN" "http://www.w3.org/Graphics/SVG/1.1/DTD/svg11.dtd">
<svg width="60pt" height="60pt" viewBox="0 0 60 60" version="1.1" xmlns="http://www.w3.org/2000/svg">
<g id="#ffffffff">
<path fill="#ffffff" opacity="1.00" d=" M 0.00 0.00 L 60.00 0.00 L 60.00 60.00 L 0.00 60.00 L 0.00 0.00 M 26.34 9.18 C 24.02 10.74 23.89 13.71 24.14 16.22 C 23.64 16.49 22.63 17.02 22.13 17.29 C 19.73 15.97 16.58 15.36 14.28 17.22 C 12.12 18.70 11.94 21.46 12.07 23.84 C 10.70 24.11 9.02 23.84 8.08 25.11 C 7.65 26.70 8.84 27.59 9.99 28.37 C 10.01 34.79 10.01 41.21 9.99 47.62 C 8.83 48.39 7.65 49.29 8.08 50.87 C 9.21 52.47 11.33 51.86 12.99 52.02 C 25.33 51.92 37.68 52.13 50.01 51.92 C 52.80 51.97 52.25 48.22 50.02 47.64 C 49.98 41.20 49.99 34.76 50.02 28.32 C 51.34 27.78 52.21 26.57 51.93 25.11 C 50.96 23.86 49.30 24.09 47.92 23.84 C 48.51 20.50 46.92 17.09 43.51 16.16 C 44.44 13.51 43.75 10.27 41.15 8.85 C 38.92 7.40 36.23 8.14 34.00 9.14 C 31.60 8.01 28.59 7.39 26.34 9.18 Z" />
<path fill="#ffffff" opacity="1.00" d=" M 29.21 12.16 C 31.56 10.88 33.23 14.99 30.85 15.81 C 28.45 17.21 26.72 12.93 29.21 12.16 Z" />
<path fill="#ffffff" opacity="1.00" d=" M 37.17 12.09 C 39.66 11.03 41.18 14.89 38.82 15.90 C 36.35 16.99 34.81 13.11 37.17 12.09 Z" />
<path fill="#ffffff" opacity="1.00" d=" M 17.16 20.18 C 20.11 18.61 21.19 24.28 18.03 23.95 C 15.87 24.45 15.20 20.69 17.16 20.18 Z" />
<path fill="#ffffff" opacity="1.00" d=" M 25.18 20.07 C 27.64 19.03 29.16 22.86 26.84 23.91 C 24.35 24.95 22.81 21.14 25.18 20.07 Z" />
<path fill="#ffffff" opacity="1.00" d=" M 33.21 20.06 C 35.68 18.99 37.22 23.12 34.75 23.84 C 32.33 25.04 30.80 20.97 33.21 20.06 Z" />
<path fill="#ffffff" opacity="1.00" d=" M 41.21 20.16 C 42.41 19.53 44.30 20.56 43.94 22.03 C 44.28 23.86 41.70 24.56 40.53 23.52 C 39.72 22.53 39.76 20.50 41.21 20.16 Z" />
<path fill="#ffffff" opacity="1.00" d=" M 17.75 37.99 C 20.81 34.03 26.42 32.99 30.89 35.07 C 32.40 35.93 34.98 35.94 35.32 38.01 C 35.18 38.35 34.89 39.01 34.75 39.35 C 31.15 41.03 27.13 42.78 23.11 41.61 C 20.91 41.11 19.31 39.48 17.75 37.99 Z" />
<path fill="#ffffff" opacity="1.00" d=" M 37.00 37.92 C 38.50 36.46 40.38 35.44 41.96 34.07 C 41.08 36.66 41.10 39.34 41.95 41.93 C 40.27 40.63 38.44 39.50 37.00 37.92 Z" />
</g>
<g id="#000000ff">
<path fill="#000000" opacity="1.00" d=" M 26.34 9.18 C 28.59 7.39 31.60 8.01 34.00 9.14 C 36.23 8.14 38.92 7.40 41.15 8.85 C 43.75 10.27 44.44 13.51 43.51 16.16 C 46.92 17.09 48.51 20.50 47.92 23.84 C 49.30 24.09 50.96 23.86 51.93 25.11 C 52.21 26.57 51.34 27.78 50.02 28.32 C 49.99 34.76 49.98 41.20 50.02 47.64 C 52.25 48.22 52.80 51.97 50.01 51.92 C 37.68 52.13 25.33 51.92 12.99 52.02 C 11.33 51.86 9.21 52.47 8.08 50.87 C 7.65 49.29 8.83 48.39 9.99 47.62 C 10.01 41.21 10.01 34.79 9.99 28.37 C 8.84 27.59 7.65 26.70 8.08 25.11 C 9.02 23.84 10.70 24.11 12.07 23.84 C 11.94 21.46 12.12 18.70 14.28 17.22 C 16.58 15.36 19.73 15.97 22.13 17.29 C 22.63 17.02 23.64 16.49 24.14 16.22 C 23.89 13.71 24.02 10.74 26.34 9.18 M 29.21 12.16 C 26.72 12.93 28.45 17.21 30.85 15.81 C 33.23 14.99 31.56 10.88 29.21 12.16 M 37.17 12.09 C 34.81 13.11 36.35 16.99 38.82 15.90 C 41.18 14.89 39.66 11.03 37.17 12.09 M 17.16 20.18 C 15.20 20.69 15.87 24.45 18.03 23.95 C 21.19 24.28 20.11 18.61 17.16 20.18 M 25.18 20.07 C 22.81 21.14 24.35 24.95 26.84 23.91 C 29.16 22.86 27.64 19.03 25.18 20.07 M 33.21 20.06 C 30.80 20.97 32.33 25.04 34.75 23.84 C 37.22 23.12 35.68 18.99 33.21 20.06 M 41.21 20.16 C 39.76 20.50 39.72 22.53 40.53 23.52 C 41.70 24.56 44.28 23.86 43.94 22.03 C 44.30 20.56 42.41 19.53 41.21 20.16 M 17.75 37.99 C 19.31 39.48 20.91 41.11 23.11 41.61 C 27.13 42.78 31.15 41.03 34.75 39.35 C 34.89 39.01 35.18 38.35 35.32 38.01 C 34.98 35.94 32.40 35.93 30.89 35.07 C 26.42 32.99 20.81 34.03 17.75 37.99 M 37.00 37.92 C 38.44 39.50 40.27 40.63 41.95 41.93 C 41.10 39.34 41.08 36.66 41.96 34.07 C 40.38 35.44 38.50 36.46 37.00 37.92 Z" />
</g>
</svg>
