<?xml version="1.0" encoding="UTF-8" ?>
<!DOCTYPE svg PUBLIC "-//W3C//DTD SVG 1.1//EN" "http://www.w3.org/Graphics/SVG/1.1/DTD/svg11.dtd">
<svg width="60pt" height="60pt" viewBox="0 0 60 60" version="1.1" xmlns="http://www.w3.org/2000/svg">
<g id="#ffffffff">
<path fill="#ffffff" opacity="1.00" d=" M 0.00 0.00 L 60.00 0.00 L 60.00 22.58 C 55.21 22.25 50.39 22.34 45.60 22.57 C 45.66 29.69 45.47 36.81 45.73 43.93 C 50.48 44.04 55.24 44.06 60.00 43.88 L 60.00 60.00 L 0.00 60.00 L 0.00 43.51 C 5.52 44.50 11.19 43.90 16.77 43.85 C 16.81 33.94 16.85 24.02 16.74 14.11 C 14.79 14.05 12.83 14.03 10.88 14.04 C 10.81 16.43 10.80 18.82 10.78 21.20 C 7.18 21.16 3.58 21.10 0.00 21.51 L 0.00 0.00 M 19.19 17.96 C 18.12 21.16 24.30 21.53 23.43 18.05 C 22.77 18.47 21.46 19.30 20.81 19.72 C 20.78 18.91 20.72 17.28 20.69 16.47 C 21.45 16.73 22.97 17.26 23.73 17.52 C 23.54 14.48 18.34 14.78 19.19 17.96 M 31.02 15.84 C 30.91 17.53 30.96 19.23 30.97 20.92 C 31.36 20.45 32.14 19.50 32.54 19.03 L 34.13 20.91 C 34.51 19.92 35.28 17.95 35.67 16.96 C 35.65 17.80 35.63 19.49 35.61 20.33 L 36.91 20.33 C 36.84 18.53 36.75 16.73 36.57 14.94 C 36.04 15.39 34.96 16.30 34.42 16.75 C 33.32 16.47 32.13 14.72 31.02 15.84 M 38.59 15.42 C 38.63 17.29 38.69 19.15 38.84 21.01 C 39.23 20.55 40.00 19.64 40.39 19.19 C 41.56 18.89 43.15 18.57 42.72 16.97 C 42.63 14.90 39.94 15.80 38.59 15.42 M 44.70 15.58 C 44.24 17.31 43.77 19.03 43.39 20.77 C 44.24 20.29 45.08 19.80 45.93 19.31 C 46.53 19.68 47.74 20.42 48.34 20.79 C 47.90 18.99 47.40 17.21 46.86 15.44 C 46.32 15.48 45.24 15.55 44.70 15.58 M 49.77 15.74 C 49.09 16.94 49.26 18.39 49.49 19.69 C 50.85 21.25 53.38 20.46 54.04 18.57 C 53.25 18.78 51.66 19.21 50.87 19.42 C 50.84 18.68 50.79 17.21 50.76 16.47 C 51.52 16.73 53.04 17.26 53.80 17.52 C 53.57 15.31 51.39 15.09 49.77 15.74 M 54.60 15.50 C 54.91 15.95 55.55 16.83 55.87 17.28 C 56.04 18.60 56.31 19.92 56.84 21.15 C 57.19 19.78 57.37 18.38 57.54 16.97 C 57.97 16.65 58.82 16.00 59.25 15.67 C 57.70 15.60 56.15 15.54 54.60 15.50 M 26.19 14.82 C 25.01 16.45 24.57 18.30 24.89 20.36 C 26.32 20.43 27.76 20.48 29.19 20.48 C 29.23 19.25 29.31 16.79 29.35 15.56 C 28.59 15.99 27.83 16.43 27.07 16.85 L 28.36 17.80 L 26.83 19.90 C 26.28 18.26 26.30 16.53 26.19 14.82 M 20.46 22.54 C 20.49 29.71 20.19 36.89 20.63 44.05 C 22.13 44.00 23.63 43.95 25.12 43.89 C 25.16 36.71 25.44 29.52 24.96 22.35 C 23.46 22.40 21.96 22.45 20.46 22.54 M 29.29 22.51 C 28.20 26.41 28.97 30.91 28.90 35.03 C 31.33 36.29 34.50 35.31 37.20 35.60 C 37.20 36.50 37.20 38.30 37.20 39.20 C 34.44 39.19 31.68 39.19 28.93 39.26 C 28.87 40.81 28.85 42.36 28.85 43.92 C 33.20 44.03 37.55 44.08 41.89 43.88 C 42.06 39.55 42.06 35.20 41.88 30.87 C 39.12 30.79 36.36 30.80 33.60 30.79 C 33.60 29.60 33.60 28.40 33.60 27.21 C 36.38 27.20 39.16 27.21 41.94 27.13 C 41.77 25.64 42.43 23.88 41.58 22.55 C 37.50 22.26 33.38 22.32 29.29 22.51 Z" />
<path fill="#ffffff" opacity="1.00" d=" M 33.51 17.25 C 33.76 17.53 33.76 17.53 33.51 17.25 Z" />
<path fill="#ffffff" opacity="1.00" d=" M 40.38 17.06 C 40.96 17.74 40.96 17.74 40.38 17.06 Z" />
<path fill="#ffffff" opacity="1.00" d=" M 6.12 26.05 C 7.65 26.04 9.19 26.06 10.72 26.11 C 10.85 30.47 10.81 34.84 10.75 39.20 C 9.20 39.26 7.64 39.27 6.09 39.25 C 5.96 34.85 5.92 30.45 6.12 26.05 Z" />
<path fill="#ffffff" opacity="1.00" d=" M 50.47 27.30 C 52.01 27.26 53.56 27.23 55.11 27.22 C 55.15 28.42 55.20 29.62 55.25 30.82 C 56.83 30.81 58.42 30.80 60.00 30.79 L 60.00 34.40 C 58.41 34.40 56.82 34.39 55.23 34.39 C 55.20 35.99 55.16 37.60 55.12 39.20 C 53.56 39.16 52.00 39.11 50.44 39.05 C 50.38 35.13 50.37 31.21 50.47 27.30 Z" />
</g>
<g id="#000000ff">
<path fill="#000000" opacity="1.00" d=" M 10.88 14.04 C 12.83 14.03 14.79 14.05 16.74 14.11 C 16.85 24.02 16.81 33.94 16.77 43.85 C 11.19 43.90 5.52 44.50 0.00 43.51 L 0.00 21.51 C 3.58 21.10 7.18 21.16 10.78 21.20 C 10.80 18.82 10.81 16.43 10.88 14.04 M 6.12 26.05 C 5.92 30.45 5.96 34.85 6.09 39.25 C 7.64 39.27 9.20 39.26 10.75 39.20 C 10.81 34.84 10.85 30.47 10.72 26.11 C 9.19 26.06 7.65 26.04 6.12 26.05 Z" />
<path fill="#000000" opacity="1.00" d=" M 19.19 17.96 C 18.34 14.78 23.54 14.48 23.73 17.52 C 22.97 17.26 21.45 16.73 20.69 16.47 C 20.72 17.28 20.78 18.91 20.81 19.72 C 21.46 19.30 22.77 18.47 23.43 18.05 C 24.30 21.53 18.12 21.16 19.19 17.96 Z" />
<path fill="#000000" opacity="1.00" d=" M 31.02 15.84 C 32.13 14.72 33.32 16.47 34.42 16.75 C 34.96 16.30 36.04 15.39 36.57 14.94 C 36.75 16.73 36.84 18.53 36.91 20.33 L 35.61 20.33 C 35.63 19.49 35.65 17.80 35.67 16.96 C 35.28 17.95 34.51 19.92 34.13 20.91 L 32.54 19.03 C 32.14 19.50 31.36 20.45 30.97 20.92 C 30.96 19.23 30.91 17.53 31.02 15.84 M 33.51 17.25 C 33.76 17.53 33.76 17.53 33.51 17.25 Z" />
<path fill="#000000" opacity="1.00" d=" M 38.59 15.42 C 39.94 15.80 42.63 14.90 42.72 16.97 C 43.15 18.57 41.56 18.89 40.39 19.19 C 40.00 19.64 39.23 20.55 38.84 21.01 C 38.69 19.15 38.63 17.29 38.59 15.42 M 40.38 17.06 C 40.96 17.74 40.96 17.74 40.38 17.06 Z" />
<path fill="#000000" opacity="1.00" d=" M 44.70 15.58 C 45.24 15.55 46.32 15.48 46.86 15.44 C 47.40 17.21 47.90 18.99 48.34 20.79 C 47.74 20.42 46.53 19.68 45.93 19.31 C 45.08 19.80 44.24 20.29 43.39 20.77 C 43.77 19.03 44.24 17.31 44.70 15.58 Z" />
<path fill="#000000" opacity="1.00" d=" M 49.77 15.74 C 51.39 15.09 53.57 15.31 53.80 17.52 C 53.04 17.26 51.52 16.73 50.76 16.47 C 50.79 17.21 50.84 18.68 50.87 19.42 C 51.66 19.21 53.25 18.78 54.04 18.57 C 53.38 20.46 50.85 21.25 49.49 19.69 C 49.26 18.39 49.09 16.94 49.77 15.74 Z" />
<path fill="#000000" opacity="1.00" d=" M 54.60 15.50 C 56.15 15.54 57.70 15.60 59.25 15.67 C 58.82 16.00 57.97 16.65 57.54 16.97 C 57.37 18.38 57.19 19.78 56.84 21.15 C 56.31 19.92 56.04 18.60 55.87 17.28 C 55.55 16.83 54.91 15.95 54.60 15.50 Z" />
<path fill="#000000" opacity="1.00" d=" M 26.19 14.82 C 26.30 16.53 26.28 18.26 26.83 19.90 L 28.36 17.80 L 27.07 16.85 C 27.83 16.43 28.59 15.99 29.35 15.56 C 29.31 16.79 29.23 19.25 29.19 20.48 C 27.76 20.48 26.32 20.43 24.89 20.36 C 24.57 18.30 25.01 16.45 26.19 14.82 Z" />
<path fill="#000000" opacity="1.00" d=" M 20.46 22.54 C 21.96 22.45 23.46 22.40 24.96 22.35 C 25.44 29.52 25.16 36.71 25.12 43.89 C 23.63 43.95 22.13 44.00 20.63 44.05 C 20.19 36.89 20.49 29.71 20.46 22.54 Z" />
<path fill="#000000" opacity="1.00" d=" M 29.29 22.51 C 33.38 22.32 37.50 22.26 41.58 22.55 C 42.43 23.88 41.77 25.64 41.94 27.13 C 39.16 27.21 36.38 27.20 33.60 27.21 C 33.60 28.40 33.60 29.60 33.60 30.79 C 36.36 30.80 39.12 30.79 41.88 30.87 C 42.06 35.20 42.06 39.55 41.89 43.88 C 37.55 44.08 33.20 44.03 28.85 43.92 C 28.85 42.36 28.87 40.81 28.93 39.26 C 31.68 39.19 34.44 39.19 37.20 39.20 C 37.20 38.30 37.20 36.50 37.20 35.60 C 34.50 35.31 31.33 36.29 28.90 35.03 C 28.97 30.91 28.20 26.41 29.29 22.51 Z" />
<path fill="#000000" opacity="1.00" d=" M 45.60 22.57 C 50.39 22.34 55.21 22.25 60.00 22.58 L 60.00 30.79 C 58.42 30.80 56.83 30.81 55.25 30.82 C 55.20 29.62 55.15 28.42 55.11 27.22 C 53.56 27.23 52.01 27.26 50.47 27.30 C 50.37 31.21 50.38 35.13 50.44 39.05 C 52.00 39.11 53.56 39.16 55.12 39.20 C 55.16 37.60 55.20 35.99 55.23 34.39 C 56.82 34.39 58.41 34.40 60.00 34.40 L 60.00 43.88 C 55.24 44.06 50.48 44.04 45.73 43.93 C 45.47 36.81 45.66 29.69 45.60 22.57 Z" />
</g>
</svg>
