<?xml version="1.0" encoding="UTF-8" ?>
<!DOCTYPE svg PUBLIC "-//W3C//DTD SVG 1.1//EN" "http://www.w3.org/Graphics/SVG/1.1/DTD/svg11.dtd">
<svg width="64pt" height="64pt" viewBox="0 0 64 64" version="1.1" xmlns="http://www.w3.org/2000/svg">
<g id="#ffffffff">
<path fill="#ffffff" opacity="1.00" d=" M 0.00 0.00 L 64.00 0.00 L 64.00 64.00 L 0.00 64.00 L 0.00 0.00 M 26.51 8.64 C 19.63 10.25 13.57 15.05 10.48 21.40 C 7.08 28.18 7.21 36.58 10.82 43.25 C 14.36 49.98 21.28 54.83 28.84 55.77 C 37.08 56.95 45.75 53.40 50.83 46.82 C 56.02 40.36 57.43 31.14 54.39 23.43 C 50.44 12.48 37.82 5.73 26.51 8.64 Z" />
<path fill="#ffffff" opacity="1.00" d=" M 26.48 12.77 C 33.07 10.85 40.60 12.59 45.59 17.33 C 50.45 21.76 52.83 28.70 51.73 35.18 C 50.72 41.95 45.92 47.96 39.58 50.50 C 32.79 53.35 24.47 52.02 18.94 47.15 C 14.04 43.00 11.42 36.38 12.11 30.00 C 12.77 22.02 18.77 14.88 26.48 12.77 M 16.97 26.43 C 18.20 26.88 19.44 27.34 20.68 27.79 C 22.12 24.61 24.62 22.12 27.80 20.68 C 27.33 19.44 26.86 18.19 26.41 16.95 C 22.13 18.70 18.66 22.11 16.97 26.43 M 30.21 26.26 C 25.61 27.34 24.53 34.17 28.33 36.82 C 31.70 39.47 37.47 37.40 37.91 33.00 C 38.86 28.73 34.30 24.81 30.21 26.26 M 43.34 36.20 C 41.87 39.37 39.37 41.86 36.20 43.33 C 36.67 44.57 37.13 45.81 37.59 47.04 C 41.87 45.29 45.30 41.87 47.05 37.59 C 45.81 37.13 44.57 36.66 43.34 36.20 Z" />
<path fill="#ffffff" opacity="1.00" d=" M 31.14 30.13 C 33.55 28.93 35.23 32.87 32.87 33.84 C 30.46 35.12 28.77 31.11 31.14 30.13 Z" />
</g>
<g id="#000000ff">
<path fill="#000000" opacity="1.00" d=" M 26.51 8.64 C 37.82 5.73 50.44 12.48 54.39 23.43 C 57.43 31.14 56.02 40.36 50.83 46.82 C 45.75 53.40 37.08 56.95 28.84 55.77 C 21.28 54.83 14.36 49.98 10.82 43.25 C 7.21 36.58 7.08 28.18 10.48 21.40 C 13.57 15.05 19.63 10.25 26.51 8.64 M 26.48 12.77 C 18.77 14.88 12.77 22.02 12.11 30.00 C 11.42 36.38 14.04 43.00 18.94 47.15 C 24.47 52.02 32.79 53.35 39.58 50.50 C 45.92 47.96 50.72 41.95 51.73 35.18 C 52.83 28.70 50.45 21.76 45.59 17.33 C 40.60 12.59 33.07 10.85 26.48 12.77 Z" />
<path fill="#000000" opacity="1.00" d=" M 16.97 26.43 C 18.66 22.11 22.13 18.70 26.41 16.95 C 26.86 18.19 27.33 19.44 27.80 20.68 C 24.62 22.12 22.12 24.61 20.68 27.79 C 19.44 27.34 18.20 26.88 16.97 26.43 Z" />
<path fill="#000000" opacity="1.00" d=" M 30.21 26.26 C 34.30 24.81 38.86 28.73 37.91 33.00 C 37.47 37.40 31.70 39.47 28.33 36.82 C 24.53 34.17 25.61 27.34 30.21 26.26 M 31.14 30.13 C 28.77 31.11 30.46 35.12 32.87 33.84 C 35.23 32.87 33.55 28.93 31.14 30.13 Z" />
<path fill="#000000" opacity="1.00" d=" M 43.34 36.20 C 44.57 36.66 45.81 37.13 47.05 37.59 C 45.30 41.87 41.87 45.29 37.59 47.04 C 37.13 45.81 36.67 44.57 36.20 43.33 C 39.37 41.86 41.87 39.37 43.34 36.20 Z" />
</g>
</svg>
