<?xml version="1.0" encoding="UTF-8" ?>
<!DOCTYPE svg PUBLIC "-//W3C//DTD SVG 1.1//EN" "http://www.w3.org/Graphics/SVG/1.1/DTD/svg11.dtd">
<svg width="64pt" height="64pt" viewBox="0 0 64 64" version="1.1" xmlns="http://www.w3.org/2000/svg">
<g id="#ffffffff">
<path fill="#ffffff" opacity="1.00" d=" M 0.00 0.00 L 64.00 0.00 L 64.00 64.00 L 0.00 64.00 L 0.00 0.00 M 2.77 6.00 C 4.43 9.34 6.09 12.67 7.77 16.00 C 6.09 19.33 4.44 22.66 2.77 26.00 C 4.51 26.00 6.26 26.00 8.00 26.00 C 8.00 36.00 8.00 46.00 8.00 56.00 C 16.04 56.01 24.09 55.98 32.14 56.00 C 33.67 56.00 34.80 57.15 36.06 57.84 C 42.89 61.97 52.78 59.97 57.21 53.23 C 59.57 49.99 60.06 45.90 60.07 42.00 C 58.29 42.00 56.51 42.00 54.73 41.99 C 56.41 38.99 58.07 35.97 59.75 32.97 C 58.58 32.33 57.41 31.68 56.25 31.02 C 54.18 34.76 52.12 38.50 50.01 42.22 C 49.96 34.82 50.05 27.43 49.97 20.04 C 49.47 14.76 53.42 10.64 55.24 6.00 C 37.75 6.00 20.26 5.99 2.77 6.00 Z" />
<path fill="#ffffff" opacity="1.00" d=" M 9.23 10.00 C 13.08 10.00 16.92 10.00 20.77 10.00 C 20.09 11.33 19.42 12.66 18.77 14.00 C 16.26 14.00 13.75 14.00 11.24 14.00 C 10.58 12.66 9.91 11.33 9.23 10.00 Z" />
<path fill="#ffffff" opacity="1.00" d=" M 25.24 10.00 C 33.08 10.00 40.93 9.99 48.77 10.00 C 48.09 11.33 47.43 12.66 46.77 14.00 C 38.93 14.00 31.08 14.00 23.23 14.00 C 23.91 12.67 24.58 11.34 25.24 10.00 Z" />
<path fill="#ffffff" opacity="1.00" d=" M 11.24 17.99 C 12.42 18.00 13.59 18.01 14.77 18.01 C 14.09 19.33 13.42 20.67 12.77 22.01 C 11.59 22.00 10.41 21.99 9.22 21.99 C 9.92 20.67 10.59 19.33 11.24 17.99 Z" />
<path fill="#ffffff" opacity="1.00" d=" M 22.00 18.00 C 30.00 18.00 38.00 18.00 46.00 18.00 C 46.00 26.00 46.00 34.00 46.00 42.00 C 39.98 42.00 33.95 42.00 27.93 42.00 C 27.90 45.46 28.45 48.89 29.99 52.02 C 27.33 52.00 24.66 51.99 22.00 52.00 C 22.00 40.67 22.00 29.33 22.00 18.00 M 34.00 30.22 C 36.48 27.82 36.49 24.18 34.00 21.78 C 31.52 24.18 31.51 27.82 34.00 30.22 M 25.82 27.82 C 26.07 31.24 28.76 33.92 32.18 34.17 C 31.92 30.76 29.24 28.07 25.82 27.82 M 35.82 34.18 C 39.24 33.92 41.92 31.25 42.18 27.83 C 38.76 28.07 36.07 30.75 35.82 34.18 Z" />
<path fill="#ffffff" opacity="1.00" d=" M 15.23 26.01 C 16.14 24.16 17.08 22.33 18.00 20.49 C 18.01 30.99 18.00 41.50 18.00 52.00 C 16.00 51.99 14.00 51.99 12.00 52.00 C 12.00 43.33 12.00 34.67 12.00 26.00 C 12.81 26.00 14.43 26.00 15.23 26.01 Z" />
<path fill="#ffffff" opacity="1.00" d=" M 32.03 46.04 C 40.01 45.98 47.99 45.98 55.97 46.03 C 54.88 51.63 49.85 56.20 44.02 55.97 C 38.18 56.22 33.11 51.64 32.03 46.04 Z" />
</g>
<g id="#000000ff">
<path fill="#000000" opacity="1.00" d=" M 2.77 6.00 C 20.26 5.99 37.75 6.00 55.24 6.00 C 53.42 10.64 49.47 14.76 49.97 20.04 C 50.05 27.43 49.96 34.82 50.01 42.22 C 52.12 38.50 54.18 34.76 56.25 31.02 C 57.41 31.68 58.58 32.33 59.75 32.97 C 58.07 35.97 56.41 38.99 54.73 41.99 C 56.51 42.00 58.29 42.00 60.07 42.00 C 60.06 45.90 59.57 49.99 57.21 53.23 C 52.78 59.97 42.89 61.97 36.06 57.84 C 34.80 57.15 33.67 56.00 32.14 56.00 C 24.09 55.98 16.04 56.01 8.00 56.00 C 8.00 46.00 8.00 36.00 8.00 26.00 C 6.26 26.00 4.51 26.00 2.77 26.00 C 4.44 22.66 6.09 19.33 7.77 16.00 C 6.09 12.67 4.43 9.34 2.77 6.00 M 9.23 10.00 C 9.91 11.33 10.58 12.66 11.24 14.00 C 13.75 14.00 16.26 14.00 18.77 14.00 C 19.42 12.66 20.09 11.33 20.77 10.00 C 16.92 10.00 13.08 10.00 9.23 10.00 M 25.24 10.00 C 24.58 11.34 23.91 12.67 23.23 14.00 C 31.08 14.00 38.93 14.00 46.77 14.00 C 47.43 12.66 48.09 11.33 48.77 10.00 C 40.93 9.99 33.08 10.00 25.24 10.00 M 11.24 17.99 C 10.59 19.33 9.92 20.67 9.22 21.99 C 10.41 21.99 11.59 22.00 12.77 22.01 C 13.42 20.67 14.09 19.33 14.77 18.01 C 13.59 18.01 12.42 18.00 11.24 17.99 M 22.00 18.00 C 22.00 29.33 22.00 40.67 22.00 52.00 C 24.66 51.99 27.33 52.00 29.99 52.02 C 28.45 48.89 27.90 45.46 27.93 42.00 C 33.95 42.00 39.98 42.00 46.00 42.00 C 46.00 34.00 46.00 26.00 46.00 18.00 C 38.00 18.00 30.00 18.00 22.00 18.00 M 15.23 26.01 C 14.43 26.00 12.81 26.00 12.00 26.00 C 12.00 34.67 12.00 43.33 12.00 52.00 C 14.00 51.99 16.00 51.99 18.00 52.00 C 18.00 41.50 18.01 30.99 18.00 20.49 C 17.08 22.33 16.14 24.16 15.23 26.01 M 32.03 46.04 C 33.11 51.64 38.18 56.22 44.02 55.97 C 49.85 56.20 54.88 51.63 55.97 46.03 C 47.99 45.98 40.01 45.98 32.03 46.04 Z" />
<path fill="#000000" opacity="1.00" d=" M 34.00 30.22 C 31.51 27.82 31.52 24.18 34.00 21.78 C 36.49 24.18 36.48 27.82 34.00 30.22 Z" />
<path fill="#000000" opacity="1.00" d=" M 25.82 27.82 C 29.24 28.07 31.92 30.76 32.18 34.17 C 28.76 33.92 26.07 31.24 25.82 27.82 Z" />
<path fill="#000000" opacity="1.00" d=" M 35.82 34.18 C 36.07 30.75 38.76 28.07 42.18 27.83 C 41.92 31.25 39.24 33.92 35.82 34.18 Z" />
</g>
</svg>
