<?xml version="1.0" encoding="UTF-8" ?>
<!DOCTYPE svg PUBLIC "-//W3C//DTD SVG 1.1//EN" "http://www.w3.org/Graphics/SVG/1.1/DTD/svg11.dtd">
<svg width="60pt" height="60pt" viewBox="0 0 60 60" version="1.1" xmlns="http://www.w3.org/2000/svg">
<g id="#ffffffff">
<path fill="#ffffff" opacity="1.00" d=" M 0.00 0.00 L 60.00 0.00 L 60.00 60.00 L 0.00 60.00 L 0.00 0.00 M 29.21 4.15 C 28.06 5.18 27.18 6.47 26.03 7.50 C 23.79 8.45 21.48 5.21 19.42 7.12 C 18.86 8.72 18.98 10.58 18.05 12.04 C 16.63 12.96 14.79 12.83 13.22 13.38 C 11.60 14.70 13.15 16.66 13.48 18.18 C 14.86 21.28 9.16 21.73 10.15 24.79 C 11.23 25.95 12.54 26.88 13.57 28.09 C 14.31 30.27 11.12 32.74 13.24 34.61 C 14.64 35.02 16.11 35.18 17.51 35.61 C 19.83 36.86 17.84 41.24 20.97 41.57 C 22.62 41.26 24.22 39.97 25.94 40.44 C 27.12 41.49 28.04 42.79 29.23 43.83 C 31.96 44.67 32.46 40.48 34.87 40.29 C 36.29 40.66 37.69 41.09 39.08 41.58 C 42.13 41.15 40.20 36.90 42.45 35.64 C 43.91 35.17 45.44 35.00 46.91 34.56 C 48.71 32.50 45.66 30.27 46.45 28.05 C 47.53 26.39 50.48 25.58 49.86 23.20 C 48.78 22.05 47.45 21.14 46.45 19.91 C 45.66 17.71 48.72 15.49 46.92 13.44 C 45.17 12.59 41.92 13.34 41.44 10.89 C 40.81 9.47 41.40 7.12 39.58 6.53 C 37.98 6.35 36.54 7.47 34.98 7.72 C 32.46 7.63 32.01 3.32 29.21 4.15 M 4.00 46.00 C 7.33 46.00 10.67 46.00 14.00 46.00 C 14.00 49.33 14.00 52.66 14.00 56.00 C 17.76 52.25 21.49 48.49 25.25 44.75 C 22.74 45.40 19.75 46.27 17.49 44.44 C 15.69 43.30 15.20 41.13 14.70 39.21 C 13.90 39.02 12.31 38.64 11.52 38.45 C 9.03 40.99 6.51 43.48 4.00 46.00 M 45.30 39.22 C 44.79 41.43 44.00 43.88 41.75 44.89 C 39.56 46.18 37.01 45.27 34.74 44.74 C 38.53 48.46 42.27 52.23 46.00 56.00 C 46.00 52.66 46.00 49.33 46.00 46.00 C 49.33 46.00 52.66 46.00 56.00 46.00 C 53.49 43.48 50.96 40.98 48.47 38.44 C 47.68 38.63 46.09 39.02 45.30 39.22 Z" />
</g>
<g id="#000000ff">
<path fill="#000000" opacity="1.00" d=" M 29.21 4.15 C 32.01 3.32 32.46 7.63 34.98 7.72 C 36.54 7.47 37.98 6.35 39.58 6.53 C 41.40 7.12 40.81 9.47 41.44 10.89 C 41.92 13.34 45.17 12.59 46.92 13.44 C 48.72 15.49 45.66 17.71 46.45 19.91 C 47.45 21.14 48.78 22.05 49.86 23.20 C 50.48 25.58 47.53 26.39 46.45 28.05 C 45.66 30.27 48.71 32.50 46.91 34.56 C 45.44 35.00 43.91 35.17 42.45 35.64 C 40.20 36.90 42.13 41.15 39.08 41.58 C 37.69 41.09 36.29 40.66 34.87 40.29 C 32.46 40.48 31.96 44.67 29.23 43.83 C 28.04 42.79 27.12 41.49 25.94 40.44 C 24.22 39.97 22.62 41.26 20.97 41.57 C 17.84 41.24 19.83 36.86 17.51 35.61 C 16.11 35.18 14.64 35.02 13.24 34.61 C 11.12 32.74 14.31 30.27 13.57 28.09 C 12.54 26.88 11.23 25.95 10.15 24.79 C 9.16 21.73 14.86 21.28 13.48 18.18 C 13.15 16.66 11.60 14.70 13.22 13.38 C 14.79 12.83 16.63 12.96 18.05 12.04 C 18.98 10.58 18.86 8.72 19.42 7.12 C 21.48 5.21 23.79 8.45 26.03 7.50 C 27.18 6.47 28.06 5.18 29.21 4.15 Z" />
<path fill="#000000" opacity="1.00" d=" M 4.00 46.00 C 6.51 43.48 9.03 40.99 11.52 38.45 C 12.31 38.64 13.90 39.02 14.70 39.21 C 15.20 41.13 15.69 43.30 17.49 44.44 C 19.75 46.27 22.74 45.40 25.25 44.75 C 21.49 48.49 17.76 52.25 14.00 56.00 C 14.00 52.66 14.00 49.33 14.00 46.00 C 10.67 46.00 7.33 46.00 4.00 46.00 Z" />
<path fill="#000000" opacity="1.00" d=" M 45.30 39.22 C 46.09 39.02 47.68 38.63 48.47 38.44 C 50.96 40.98 53.49 43.48 56.00 46.00 C 52.66 46.00 49.33 46.00 46.00 46.00 C 46.00 49.33 46.00 52.66 46.00 56.00 C 42.27 52.23 38.53 48.46 34.74 44.74 C 37.01 45.27 39.56 46.18 41.75 44.89 C 44.00 43.88 44.79 41.43 45.30 39.22 Z" />
</g>
</svg>
