<?xml version="1.0" encoding="UTF-8" ?>
<!DOCTYPE svg PUBLIC "-//W3C//DTD SVG 1.1//EN" "http://www.w3.org/Graphics/SVG/1.1/DTD/svg11.dtd">
<svg width="60pt" height="60pt" viewBox="0 0 60 60" version="1.1" xmlns="http://www.w3.org/2000/svg">
<g id="#ffffffff">
<path fill="#ffffff" opacity="1.00" d=" M 0.00 0.00 L 60.00 0.00 L 60.00 60.00 L 0.00 60.00 L 0.00 0.00 M 34.88 8.97 C 32.57 9.40 28.84 9.33 29.30 12.75 C 24.17 11.63 19.07 10.32 13.89 9.45 C 13.56 9.65 12.91 10.06 12.59 10.26 C 11.08 15.44 10.25 20.78 8.98 26.02 C 8.27 29.45 6.99 33.17 8.56 36.56 C 9.44 39.02 11.56 40.62 13.68 41.98 C 13.33 43.46 13.01 44.95 12.71 46.45 C 10.18 46.51 7.62 46.32 5.12 46.81 C 3.71 47.51 3.72 49.89 5.33 50.35 C 10.47 51.72 15.72 52.71 20.92 53.84 C 22.77 54.72 24.61 52.33 23.35 50.79 C 21.27 49.32 18.87 48.42 16.60 47.28 C 16.95 45.81 17.28 44.32 17.60 42.84 C 21.75 42.54 25.91 40.11 27.16 35.96 C 28.64 30.63 29.54 25.16 30.83 19.78 C 31.68 24.13 32.20 28.55 33.28 32.84 C 34.37 37.02 38.42 39.63 42.55 40.05 C 42.81 41.55 43.09 43.04 43.38 44.53 C 41.10 45.54 38.74 46.39 36.59 47.68 C 35.33 48.77 36.31 51.20 38.01 50.98 C 43.49 50.20 48.96 49.21 54.37 48.08 C 56.16 47.79 56.38 45.00 54.63 44.41 C 52.21 44.00 49.75 43.96 47.31 43.85 C 46.95 42.41 46.71 40.96 46.59 39.50 C 49.87 37.41 52.91 34.22 52.75 30.04 C 52.13 23.62 50.52 17.34 49.59 10.95 C 49.20 9.59 49.35 7.72 47.92 6.93 C 43.52 7.06 39.24 8.40 34.88 8.97 Z" />
<path fill="#ffffff" opacity="1.00" d=" M 33.72 13.26 C 37.66 12.55 41.59 11.85 45.53 11.15 C 46.06 14.10 46.58 17.05 47.11 20.00 C 44.37 19.98 41.63 20.02 38.89 20.00 C 39.51 24.00 40.49 27.94 40.90 31.97 C 41.16 33.41 39.69 34.29 38.41 34.02 C 36.93 32.42 36.79 30.15 36.34 28.12 C 35.52 23.16 34.60 18.21 33.72 13.26 Z" />
<path fill="#ffffff" opacity="1.00" d=" M 11.86 32.07 C 12.92 25.94 14.51 19.91 15.75 13.81 C 19.66 14.66 23.57 15.52 27.48 16.39 C 27.06 18.26 26.64 20.13 26.24 22.00 C 23.47 21.97 20.69 22.03 17.91 22.00 C 16.45 26.88 16.72 32.72 13.02 36.62 C 12.46 35.17 11.43 33.71 11.86 32.07 Z" />
</g>
<g id="#000000ff">
<path fill="#000000" opacity="1.00" d=" M 34.88 8.97 C 39.24 8.40 43.52 7.06 47.92 6.93 C 49.35 7.72 49.20 9.59 49.59 10.95 C 50.52 17.34 52.13 23.62 52.75 30.04 C 52.91 34.22 49.87 37.41 46.59 39.50 C 46.71 40.96 46.95 42.41 47.31 43.85 C 49.75 43.96 52.21 44.00 54.63 44.41 C 56.38 45.00 56.16 47.79 54.37 48.08 C 48.96 49.21 43.49 50.20 38.01 50.98 C 36.31 51.20 35.33 48.77 36.59 47.68 C 38.74 46.39 41.10 45.54 43.38 44.53 C 43.09 43.04 42.81 41.55 42.55 40.05 C 38.42 39.63 34.37 37.02 33.28 32.84 C 32.20 28.55 31.68 24.13 30.83 19.78 C 29.54 25.16 28.64 30.63 27.16 35.96 C 25.91 40.11 21.75 42.54 17.60 42.84 C 17.28 44.32 16.95 45.81 16.60 47.28 C 18.87 48.42 21.27 49.32 23.35 50.79 C 24.61 52.33 22.77 54.72 20.92 53.84 C 15.72 52.71 10.47 51.72 5.33 50.35 C 3.72 49.89 3.71 47.51 5.12 46.81 C 7.62 46.32 10.18 46.51 12.71 46.45 C 13.01 44.95 13.33 43.46 13.68 41.98 C 11.56 40.62 9.44 39.02 8.56 36.56 C 6.99 33.17 8.27 29.45 8.98 26.02 C 10.25 20.78 11.08 15.44 12.59 10.26 C 12.91 10.06 13.56 9.65 13.89 9.45 C 19.07 10.32 24.17 11.63 29.30 12.75 C 28.84 9.33 32.57 9.40 34.88 8.97 M 33.72 13.26 C 34.60 18.21 35.52 23.16 36.34 28.12 C 36.79 30.15 36.93 32.42 38.41 34.02 C 39.69 34.29 41.16 33.41 40.90 31.97 C 40.49 27.94 39.51 24.00 38.89 20.00 C 41.63 20.02 44.37 19.98 47.11 20.00 C 46.58 17.05 46.06 14.10 45.53 11.15 C 41.59 11.85 37.66 12.55 33.72 13.26 M 11.86 32.07 C 11.43 33.71 12.46 35.17 13.02 36.62 C 16.72 32.72 16.45 26.88 17.91 22.00 C 20.69 22.03 23.47 21.97 26.24 22.00 C 26.64 20.13 27.06 18.26 27.48 16.39 C 23.57 15.52 19.66 14.66 15.75 13.81 C 14.51 19.91 12.92 25.94 11.86 32.07 Z" />
</g>
</svg>
