<?xml version="1.0" encoding="UTF-8" ?>
<!DOCTYPE svg PUBLIC "-//W3C//DTD SVG 1.1//EN" "http://www.w3.org/Graphics/SVG/1.1/DTD/svg11.dtd">
<svg width="60pt" height="60pt" viewBox="0 0 60 60" version="1.1" xmlns="http://www.w3.org/2000/svg">
<g id="#ffffffff">
<path fill="#ffffff" opacity="1.00" d=" M 0.00 0.00 L 60.00 0.00 L 60.00 60.00 L 0.00 60.00 L 0.00 0.00 M 45.50 8.52 C 44.40 9.31 43.46 10.30 42.48 11.22 C 44.18 13.52 46.28 15.46 48.31 17.46 C 49.64 16.44 51.27 15.49 51.77 13.78 C 52.90 10.43 48.64 6.67 45.50 8.52 M 35.86 18.72 C 37.68 20.51 39.47 22.32 41.27 24.14 C 42.56 22.50 43.91 20.92 45.30 19.37 C 43.74 17.82 42.18 16.26 40.63 14.71 C 39.07 16.09 37.49 17.43 35.86 18.72 M 18.42 27.36 C 15.36 30.33 12.34 33.35 9.35 36.39 C 8.23 37.38 7.49 39.10 8.45 40.45 C 11.54 44.05 15.09 47.23 18.41 50.61 C 19.53 52.01 21.76 52.56 23.07 51.10 C 26.35 48.04 29.46 44.81 32.60 41.61 C 36.07 38.12 37.29 33.23 38.89 28.74 C 37.07 28.02 35.25 27.30 33.43 26.57 C 32.70 24.75 31.97 22.92 31.24 21.10 C 26.77 22.70 21.89 23.90 18.42 27.36 Z" />
<path fill="#ffffff" opacity="1.00" d=" M 14.01 38.00 C 16.00 36.00 18.00 33.99 20.00 32.00 C 22.69 34.64 25.31 37.35 28.01 39.98 C 26.01 41.99 24.01 43.99 22.00 45.99 C 19.35 43.32 16.67 40.67 14.01 38.00 Z" />
</g>
<g id="#000000ff">
<path fill="#000000" opacity="1.00" d=" M 45.50 8.52 C 48.64 6.67 52.90 10.43 51.77 13.78 C 51.27 15.49 49.64 16.44 48.31 17.46 C 46.28 15.46 44.18 13.52 42.48 11.22 C 43.46 10.30 44.40 9.31 45.50 8.52 Z" />
<path fill="#000000" opacity="1.00" d=" M 35.86 18.72 C 37.49 17.43 39.07 16.09 40.63 14.71 C 42.18 16.26 43.74 17.82 45.30 19.37 C 43.91 20.92 42.56 22.50 41.27 24.14 C 39.47 22.32 37.68 20.51 35.86 18.72 Z" />
<path fill="#000000" opacity="1.00" d=" M 18.42 27.36 C 21.89 23.90 26.77 22.70 31.24 21.10 C 31.97 22.92 32.70 24.75 33.43 26.57 C 35.25 27.30 37.07 28.02 38.89 28.74 C 37.29 33.23 36.07 38.12 32.60 41.61 C 29.46 44.81 26.35 48.04 23.07 51.10 C 21.76 52.56 19.53 52.01 18.41 50.61 C 15.09 47.23 11.54 44.05 8.45 40.45 C 7.49 39.10 8.23 37.38 9.35 36.39 C 12.34 33.35 15.36 30.33 18.42 27.36 M 14.01 38.00 C 16.67 40.67 19.35 43.32 22.00 45.99 C 24.01 43.99 26.01 41.99 28.01 39.98 C 25.31 37.35 22.69 34.64 20.00 32.00 C 18.00 33.99 16.00 36.00 14.01 38.00 Z" />
</g>
</svg>
