<?xml version="1.0" encoding="UTF-8" ?>
<!DOCTYPE svg PUBLIC "-//W3C//DTD SVG 1.1//EN" "http://www.w3.org/Graphics/SVG/1.1/DTD/svg11.dtd">
<svg width="64pt" height="64pt" viewBox="0 0 64 64" version="1.1" xmlns="http://www.w3.org/2000/svg">
<g id="#ffffffff">
<path fill="#ffffff" opacity="1.00" d=" M 0.00 0.00 L 64.00 0.00 L 64.00 64.00 L 0.00 64.00 L 0.00 0.00 M 36.60 16.57 C 37.54 17.51 38.49 18.46 39.44 19.41 C 40.95 17.89 42.46 16.37 43.98 14.86 C 44.02 21.90 43.99 28.95 44.00 36.00 C 37.33 36.00 30.67 36.00 24.00 36.00 C 24.00 37.33 24.00 38.67 24.00 40.00 C 32.00 40.00 40.00 40.00 48.00 40.00 C 48.00 31.61 48.00 23.21 48.00 14.82 C 49.53 16.35 51.06 17.88 52.60 19.41 C 53.54 18.46 54.47 17.52 55.41 16.58 C 52.28 13.44 49.17 10.28 46.00 7.18 C 42.87 10.31 39.74 13.45 36.60 16.57 M 16.00 24.00 C 15.99 32.38 16.02 40.76 15.98 49.14 C 14.46 47.63 12.95 46.11 11.44 44.59 C 10.49 45.52 9.54 46.46 8.59 47.39 C 11.71 50.55 14.87 53.67 18.00 56.82 C 21.17 53.71 24.28 50.55 27.43 47.41 C 26.48 46.47 25.54 45.52 24.60 44.58 C 23.07 46.11 21.54 47.64 20.00 49.17 C 20.00 42.11 20.00 35.06 20.00 28.00 C 26.67 28.00 33.33 28.00 40.00 28.00 C 40.00 26.67 40.00 25.33 40.00 24.00 C 32.00 24.00 24.00 24.00 16.00 24.00 Z" />
</g>
<g id="#000000ff">
<path fill="#000000" opacity="1.00" d=" M 36.60 16.57 C 39.74 13.45 42.87 10.31 46.00 7.18 C 49.17 10.28 52.28 13.44 55.41 16.58 C 54.47 17.52 53.54 18.46 52.60 19.41 C 51.06 17.88 49.53 16.35 48.00 14.82 C 48.00 23.21 48.00 31.61 48.00 40.00 C 40.00 40.00 32.00 40.00 24.00 40.00 C 24.00 38.67 24.00 37.33 24.00 36.00 C 30.67 36.00 37.33 36.00 44.00 36.00 C 43.99 28.95 44.02 21.90 43.98 14.86 C 42.46 16.37 40.95 17.89 39.44 19.41 C 38.49 18.46 37.54 17.51 36.60 16.57 Z" />
<path fill="#000000" opacity="1.00" d=" M 16.00 24.00 C 24.00 24.00 32.00 24.00 40.00 24.00 C 40.00 25.33 40.00 26.67 40.00 28.00 C 33.33 28.00 26.67 28.00 20.00 28.00 C 20.00 35.06 20.00 42.11 20.00 49.17 C 21.54 47.64 23.07 46.11 24.60 44.58 C 25.54 45.52 26.48 46.47 27.43 47.41 C 24.28 50.55 21.17 53.71 18.00 56.82 C 14.87 53.67 11.71 50.55 8.59 47.39 C 9.54 46.46 10.49 45.52 11.44 44.59 C 12.95 46.11 14.46 47.63 15.98 49.14 C 16.02 40.76 15.99 32.38 16.00 24.00 Z" />
</g>
</svg>
