<?xml version="1.0" encoding="UTF-8" ?>
<!DOCTYPE svg PUBLIC "-//W3C//DTD SVG 1.1//EN" "http://www.w3.org/Graphics/SVG/1.1/DTD/svg11.dtd">
<svg width="60pt" height="60pt" viewBox="0 0 60 60" version="1.1" xmlns="http://www.w3.org/2000/svg">
<g id="#ffffffff">
<path fill="#ffffff" opacity="1.00" d=" M 0.00 0.00 L 60.00 0.00 L 60.00 60.00 L 0.00 60.00 L 0.00 20.73 C 1.41 22.39 4.61 22.69 5.91 20.79 C 6.65 17.33 1.98 17.53 0.00 18.85 L 0.00 0.00 M 17.14 2.07 C 14.99 3.52 15.51 8.96 18.89 7.93 C 20.96 6.41 20.52 1.06 17.14 2.07 M 5.19 7.25 C 2.83 10.12 9.67 14.65 10.17 9.98 C 9.43 8.21 7.22 5.51 5.19 7.25 M 28.21 7.09 C 26.85 8.00 24.88 9.93 26.46 11.56 C 28.09 13.12 30.01 11.14 30.92 9.78 C 32.52 8.23 29.71 5.45 28.21 7.09 M 12.87 13.87 C 9.16 16.78 9.39 22.33 12.16 25.80 C 14.00 20.22 19.05 16.18 24.95 15.79 C 22.26 12.00 16.51 10.62 12.87 13.87 M 27.36 20.13 C 22.66 19.17 17.99 21.86 16.29 26.29 C 10.75 28.21 7.99 35.47 11.73 40.25 C 14.38 44.31 19.62 44.18 23.90 44.01 C 24.94 38.05 28.19 32.77 30.38 27.18 C 31.49 23.94 36.19 22.88 38.48 25.48 C 40.73 27.66 39.84 31.03 40.00 33.81 C 41.96 34.11 44.27 34.47 45.28 36.44 C 46.92 38.92 45.20 41.70 44.34 44.10 C 48.74 44.45 53.82 42.71 55.39 38.19 C 57.40 33.44 54.36 28.15 49.82 26.29 C 48.47 21.28 44.39 16.94 39.12 16.20 C 34.78 15.31 30.51 17.27 27.36 20.13 M 7.20 28.13 C 5.81 29.13 3.61 30.99 5.22 32.78 C 6.96 34.39 8.91 32.23 9.82 30.80 C 11.07 29.37 8.71 26.98 7.20 28.13 M 34.36 28.36 C 31.91 33.38 29.62 38.55 27.83 43.86 C 29.89 43.97 31.95 43.98 34.01 44.04 C 33.96 47.36 34.00 50.69 34.08 54.02 C 34.47 53.92 35.27 53.73 35.66 53.63 C 38.08 48.60 40.38 43.45 42.17 38.15 C 40.11 38.03 38.05 38.01 35.99 37.96 C 36.05 34.60 36.01 31.24 35.87 27.88 C 35.50 28.00 34.74 28.24 34.36 28.36 M 23.22 48.06 C 21.77 49.28 20.42 52.31 22.25 53.77 C 25.85 55.55 27.78 46.98 23.22 48.06 M 45.20 48.07 C 43.76 49.31 42.44 52.29 44.24 53.78 C 47.81 55.60 49.81 46.96 45.20 48.07 Z" />
</g>
<g id="#000000ff">
<path fill="#968176" opacity="1.00" d=" M 17.14 2.07 C 20.52 1.06 20.96 6.41 18.89 7.93 C 15.51 8.96 14.99 3.52 17.14 2.07 Z" />
<path fill="#968176" opacity="1.00" d=" M 5.19 7.25 C 7.22 5.51 9.43 8.21 10.17 9.98 C 9.67 14.65 2.83 10.12 5.19 7.25 Z" />
<path fill="#968176" opacity="1.00" d=" M 28.21 7.09 C 29.71 5.45 32.52 8.23 30.92 9.78 C 30.01 11.14 28.09 13.12 26.46 11.56 C 24.88 9.93 26.85 8.00 28.21 7.09 Z" />
<path fill="#968176" opacity="1.00" d=" M 12.87 13.87 C 16.51 10.62 22.26 12.00 24.95 15.79 C 19.05 16.18 14.00 20.22 12.16 25.80 C 9.39 22.33 9.16 16.78 12.87 13.87 Z" />
<path fill="#968176" opacity="1.00" d=" M 27.36 20.13 C 30.51 17.27 34.78 15.31 39.12 16.20 C 44.39 16.94 48.47 21.28 49.82 26.29 C 54.36 28.15 57.40 33.44 55.39 38.19 C 53.82 42.71 48.74 44.45 44.34 44.10 C 45.20 41.70 46.92 38.92 45.28 36.44 C 44.27 34.47 41.96 34.11 40.00 33.81 C 39.84 31.03 40.73 27.66 38.48 25.48 C 36.19 22.88 31.49 23.94 30.38 27.18 C 28.19 32.77 24.94 38.05 23.90 44.01 C 19.62 44.18 14.38 44.31 11.73 40.25 C 7.99 35.47 10.75 28.21 16.29 26.29 C 17.99 21.86 22.66 19.17 27.36 20.13 Z" />
<path fill="#968176" opacity="1.00" d=" M 0.00 18.85 C 1.98 17.53 6.65 17.33 5.91 20.79 C 4.61 22.69 1.41 22.39 0.00 20.73 L 0.00 18.85 Z" />
<path fill="#968176" opacity="1.00" d=" M 7.20 28.13 C 8.71 26.98 11.07 29.37 9.82 30.80 C 8.91 32.23 6.96 34.39 5.22 32.78 C 3.61 30.99 5.81 29.13 7.20 28.13 Z" />
<path fill="#968176" opacity="1.00" d=" M 34.36 28.36 C 34.74 28.24 35.50 28.00 35.87 27.88 C 36.01 31.24 36.05 34.60 35.99 37.96 C 38.05 38.01 40.11 38.03 42.17 38.15 C 40.38 43.45 38.08 48.60 35.66 53.63 C 35.27 53.73 34.47 53.92 34.08 54.02 C 34.00 50.69 33.96 47.36 34.01 44.04 C 31.95 43.98 29.89 43.97 27.83 43.86 C 29.62 38.55 31.91 33.38 34.36 28.36 Z" />
<path fill="#968176" opacity="1.00" d=" M 23.22 48.06 C 27.78 46.98 25.85 55.55 22.25 53.77 C 20.42 52.31 21.77 49.28 23.22 48.06 Z" />
<path fill="#968176" opacity="1.00" d=" M 45.20 48.07 C 49.81 46.96 47.81 55.60 44.24 53.78 C 42.44 52.29 43.76 49.31 45.20 48.07 Z" />
</g>
</svg>
