<?xml version="1.0" encoding="UTF-8" ?>
<!DOCTYPE svg PUBLIC "-//W3C//DTD SVG 1.1//EN" "http://www.w3.org/Graphics/SVG/1.1/DTD/svg11.dtd">
<svg width="60pt" height="60pt" viewBox="0 0 60 60" version="1.1" xmlns="http://www.w3.org/2000/svg">
<g id="#ffffffff">
<path fill="#ffffff" opacity="1.00" d=" M 0.00 0.00 L 60.00 0.00 L 60.00 60.00 L 0.00 60.00 L 0.00 0.00 M 9.47 17.59 C 5.25 24.43 4.88 33.43 8.49 40.61 C 11.94 47.68 19.06 52.81 26.87 53.77 C 34.16 54.78 41.82 52.17 46.97 46.92 C 51.48 42.50 53.87 36.26 54.08 30.00 C 55.39 30.00 56.69 30.00 58.00 29.99 C 56.00 27.33 54.00 24.66 52.00 22.00 C 50.00 24.66 48.01 27.33 46.00 29.98 C 47.37 30.00 48.74 30.01 50.11 30.03 C 50.04 39.92 42.07 49.07 32.11 49.87 C 23.77 50.90 15.18 45.98 11.80 38.30 C 8.35 30.93 9.99 21.54 15.85 15.87 C 21.33 10.20 30.31 8.44 37.56 11.50 C 41.23 12.87 44.05 15.67 46.54 18.59 C 47.84 20.50 50.85 18.27 49.70 16.48 C 45.28 9.67 37.05 5.65 28.97 6.04 C 21.08 6.29 13.52 10.82 9.47 17.59 M 26.74 16.66 C 22.68 18.42 22.86 23.44 23.22 27.13 C 22.92 30.78 27.81 33.05 26.27 36.88 C 23.99 38.94 20.62 39.10 18.06 40.75 C 24.20 47.64 35.79 47.62 41.94 40.75 C 39.38 39.11 36.04 38.94 33.74 36.91 C 32.17 33.07 37.07 30.79 36.78 27.12 C 36.78 24.49 37.44 21.52 35.84 19.20 C 33.43 17.00 30.02 14.89 26.74 16.66 Z" />
</g>
<g id="#000000ff">
<path fill="#000000" opacity="1.00" d=" M 9.47 17.59 C 13.52 10.82 21.08 6.29 28.97 6.04 C 37.05 5.65 45.28 9.67 49.70 16.48 C 50.85 18.27 47.84 20.50 46.54 18.59 C 44.05 15.67 41.23 12.87 37.56 11.50 C 30.31 8.44 21.33 10.20 15.85 15.87 C 9.99 21.54 8.35 30.93 11.80 38.30 C 15.18 45.98 23.77 50.90 32.11 49.87 C 42.07 49.07 50.04 39.92 50.11 30.03 C 48.74 30.01 47.37 30.00 46.00 29.98 C 48.01 27.33 50.00 24.66 52.00 22.00 C 54.00 24.66 56.00 27.33 58.00 29.99 C 56.69 30.00 55.39 30.00 54.08 30.00 C 53.87 36.26 51.48 42.50 46.97 46.92 C 41.82 52.17 34.16 54.78 26.87 53.77 C 19.06 52.81 11.94 47.68 8.49 40.61 C 4.88 33.43 5.25 24.43 9.47 17.59 Z" />
<path fill="#000000" opacity="1.00" d=" M 26.74 16.66 C 30.02 14.89 33.43 17.00 35.84 19.20 C 37.44 21.52 36.78 24.49 36.78 27.12 C 37.07 30.79 32.17 33.07 33.74 36.91 C 36.04 38.94 39.38 39.11 41.94 40.75 C 35.79 47.62 24.20 47.64 18.06 40.75 C 20.62 39.10 23.99 38.94 26.27 36.88 C 27.81 33.05 22.92 30.78 23.22 27.13 C 22.86 23.44 22.68 18.42 26.74 16.66 Z" />
</g>
</svg>
