<?xml version="1.0" encoding="UTF-8" ?>
<!DOCTYPE svg PUBLIC "-//W3C//DTD SVG 1.1//EN" "http://www.w3.org/Graphics/SVG/1.1/DTD/svg11.dtd">
<svg width="60pt" height="60pt" viewBox="0 0 60 60" version="1.1" xmlns="http://www.w3.org/2000/svg">
<g id="#ffffffff">
<path fill="#ffffff" opacity="1.00" d=" M 0.00 0.00 L 60.00 0.00 L 60.00 57.13 C 56.55 51.27 52.78 45.61 49.27 39.78 C 48.26 38.35 47.24 35.99 45.06 36.79 C 42.78 39.05 41.48 42.05 39.71 44.69 C 37.33 48.67 34.62 52.45 32.39 56.51 C 31.45 57.76 32.61 59.04 33.35 60.00 L 0.00 60.00 L 0.00 0.00 M 23.76 6.83 C 15.94 8.89 9.39 15.18 7.07 22.94 C 4.43 31.25 6.82 40.88 13.07 46.96 C 17.29 51.28 23.19 53.62 29.16 54.03 C 33.00 47.92 36.75 41.73 40.68 35.67 C 42.22 33.03 45.82 31.91 48.58 33.25 C 50.56 34.10 51.58 36.14 52.86 37.74 C 55.38 29.42 53.58 19.84 47.45 13.53 C 41.57 7.17 32.10 4.51 23.76 6.83 Z" />
<path fill="#ffffff" opacity="1.00" d=" M 28.00 14.00 C 29.33 14.00 30.67 14.00 32.00 14.00 C 32.00 15.39 32.00 16.78 32.01 18.17 C 35.41 18.93 38.35 21.28 38.87 24.89 C 37.41 24.91 35.95 24.92 34.49 24.93 C 33.38 21.97 29.32 21.01 26.96 23.02 C 25.79 23.97 25.94 26.03 27.37 26.66 C 30.27 28.02 33.69 27.90 36.48 29.55 C 39.83 31.50 39.79 36.64 37.28 39.26 C 35.93 40.79 33.85 41.20 32.01 41.85 C 32.01 43.23 32.00 44.62 32.00 46.00 C 30.67 46.00 29.33 46.00 28.00 46.00 C 28.00 44.62 27.99 43.24 27.99 41.87 C 24.42 41.22 21.13 38.85 20.72 35.01 C 22.20 35.01 23.68 35.01 25.16 35.03 C 26.60 39.15 35.18 39.15 34.18 34.05 C 30.71 30.92 24.25 32.71 21.97 27.92 C 19.88 23.47 23.52 18.84 27.99 18.18 C 28.00 16.78 28.00 15.39 28.00 14.00 Z" />
<path fill="#ffffff" opacity="1.00" d=" M 43.99 44.00 C 45.33 44.00 46.67 44.00 48.00 44.00 C 47.89 46.67 47.78 49.33 47.68 52.00 C 46.56 52.00 45.44 52.00 44.33 52.00 C 44.22 49.33 44.11 46.67 43.99 44.00 Z" />
<path fill="#ffffff" opacity="1.00" d=" M 44.56 53.62 C 46.03 52.40 48.84 53.79 47.82 55.78 C 46.66 58.30 42.34 55.83 44.56 53.62 Z" />
</g>
<g id="#000000ff">
<path fill="#000000" opacity="1.00" d=" M 23.76 6.83 C 32.10 4.51 41.57 7.17 47.45 13.53 C 53.58 19.84 55.38 29.42 52.86 37.74 C 51.58 36.14 50.56 34.10 48.58 33.25 C 45.82 31.91 42.22 33.03 40.68 35.67 C 36.75 41.73 33.00 47.92 29.16 54.03 C 23.19 53.62 17.29 51.28 13.07 46.96 C 6.82 40.88 4.43 31.25 7.07 22.94 C 9.39 15.18 15.94 8.89 23.76 6.83 M 28.00 14.00 C 28.00 15.39 28.00 16.78 27.99 18.18 C 23.52 18.84 19.88 23.47 21.97 27.92 C 24.25 32.71 30.71 30.92 34.18 34.05 C 35.18 39.15 26.60 39.15 25.16 35.03 C 23.68 35.01 22.20 35.01 20.72 35.01 C 21.13 38.85 24.42 41.22 27.99 41.87 C 27.99 43.24 28.00 44.62 28.00 46.00 C 29.33 46.00 30.67 46.00 32.00 46.00 C 32.00 44.62 32.01 43.23 32.01 41.85 C 33.85 41.20 35.93 40.79 37.28 39.26 C 39.79 36.64 39.83 31.50 36.48 29.55 C 33.69 27.90 30.27 28.02 27.37 26.66 C 25.94 26.03 25.79 23.97 26.96 23.02 C 29.32 21.01 33.38 21.97 34.49 24.93 C 35.95 24.92 37.41 24.91 38.87 24.89 C 38.35 21.28 35.41 18.93 32.01 18.17 C 32.00 16.78 32.00 15.39 32.00 14.00 C 30.67 14.00 29.33 14.00 28.00 14.00 Z" />
<path fill="#000000" opacity="1.00" d=" M 39.71 44.69 C 41.48 42.05 42.78 39.05 45.06 36.79 C 47.24 35.99 48.26 38.35 49.27 39.78 C 52.78 45.61 56.55 51.27 60.00 57.13 L 60.00 60.00 L 33.35 60.00 C 32.61 59.04 31.45 57.76 32.39 56.51 C 34.62 52.45 37.33 48.67 39.71 44.69 M 43.99 44.00 C 44.11 46.67 44.22 49.33 44.33 52.00 C 45.44 52.00 46.56 52.00 47.68 52.00 C 47.78 49.33 47.89 46.67 48.00 44.00 C 46.67 44.00 45.33 44.00 43.99 44.00 M 44.56 53.62 C 42.34 55.83 46.66 58.30 47.82 55.78 C 48.84 53.79 46.03 52.40 44.56 53.62 Z" />
</g>
</svg>
