<?xml version="1.0" encoding="UTF-8" ?>
<!DOCTYPE svg PUBLIC "-//W3C//DTD SVG 1.1//EN" "http://www.w3.org/Graphics/SVG/1.1/DTD/svg11.dtd">
<svg width="64pt" height="64pt" viewBox="0 0 64 64" version="1.1" xmlns="http://www.w3.org/2000/svg">
<g id="#ffffffff">
<path fill="#ffffff" opacity="1.00" d=" M 0.00 0.00 L 64.00 0.00 L 64.00 64.00 L 0.00 64.00 L 0.00 0.00 M 26.45 10.72 C 16.99 13.05 9.83 22.27 10.01 32.03 C 9.91 40.72 15.55 49.07 23.59 52.31 C 30.25 55.13 38.29 54.33 44.25 50.23 C 50.25 46.27 54.05 39.19 53.97 31.99 C 54.05 25.03 50.48 18.18 44.82 14.15 C 39.61 10.34 32.68 9.06 26.45 10.72 Z" />
<path fill="#ffffff" opacity="1.00" d=" M 27.43 14.59 C 33.02 13.10 39.29 14.50 43.67 18.29 C 48.20 22.10 50.61 28.23 49.86 34.10 C 49.19 40.48 44.79 46.26 38.84 48.64 C 32.97 51.11 25.83 50.12 20.86 46.14 C 16.00 42.39 13.36 36.02 14.13 29.92 C 14.84 22.71 20.40 16.32 27.43 14.59 M 30.24 22.01 C 29.75 24.21 28.21 25.76 26.00 26.23 C 26.02 27.56 26.02 28.88 26.03 30.20 C 27.35 29.72 28.69 29.33 30.03 28.89 C 29.98 31.93 30.00 34.96 30.00 38.00 C 28.67 38.00 27.33 38.00 26.00 38.00 C 26.01 39.33 26.01 40.67 26.00 42.00 C 30.00 42.00 34.00 42.00 38.00 42.00 C 37.99 40.67 37.99 39.33 38.00 38.00 C 36.67 38.00 35.33 38.00 34.00 38.00 C 34.00 32.66 34.00 27.33 34.00 21.99 C 32.75 22.00 31.49 22.01 30.24 22.01 Z" />
</g>
<g id="#000000ff">
<path fill="#000000" opacity="1.00" d=" M 26.45 10.72 C 32.68 9.06 39.61 10.34 44.82 14.15 C 50.48 18.18 54.05 25.03 53.97 31.99 C 54.05 39.19 50.25 46.27 44.25 50.23 C 38.29 54.33 30.25 55.13 23.59 52.31 C 15.55 49.07 9.91 40.72 10.01 32.03 C 9.83 22.27 16.99 13.05 26.45 10.72 M 27.43 14.59 C 20.40 16.32 14.84 22.71 14.13 29.92 C 13.36 36.02 16.00 42.39 20.86 46.14 C 25.83 50.12 32.97 51.11 38.84 48.64 C 44.79 46.26 49.19 40.48 49.86 34.10 C 50.61 28.23 48.20 22.10 43.67 18.29 C 39.29 14.50 33.02 13.10 27.43 14.59 Z" />
<path fill="#000000" opacity="1.00" d=" M 30.24 22.01 C 31.49 22.01 32.75 22.00 34.00 21.99 C 34.00 27.33 34.00 32.66 34.00 38.00 C 35.33 38.00 36.67 38.00 38.00 38.00 C 37.99 39.33 37.99 40.67 38.00 42.00 C 34.00 42.00 30.00 42.00 26.00 42.00 C 26.01 40.67 26.01 39.33 26.00 38.00 C 27.33 38.00 28.67 38.00 30.00 38.00 C 30.00 34.96 29.98 31.93 30.03 28.89 C 28.69 29.33 27.35 29.72 26.03 30.20 C 26.02 28.88 26.02 27.56 26.00 26.23 C 28.21 25.76 29.75 24.21 30.24 22.01 Z" />
</g>
</svg>
