<?xml version="1.0" encoding="UTF-8" ?>
<!DOCTYPE svg PUBLIC "-//W3C//DTD SVG 1.1//EN" "http://www.w3.org/Graphics/SVG/1.1/DTD/svg11.dtd">
<svg width="60pt" height="60pt" viewBox="0 0 60 60" version="1.1" xmlns="http://www.w3.org/2000/svg">
<g id="#ffffffff">
<path fill="#ffffff" opacity="1.00" d=" M 0.00 0.00 L 60.00 0.00 L 60.00 60.00 L 0.00 60.00 L 0.00 0.00 M 20.33 13.56 C 16.69 11.38 11.65 11.45 8.63 14.67 C 4.51 18.53 5.48 26.03 10.44 28.72 C 13.47 30.67 17.32 30.10 20.33 28.41 C 21.26 29.16 22.20 29.89 23.16 30.60 C 20.41 32.11 16.93 33.60 16.10 36.95 C 15.32 38.92 17.90 40.99 19.54 39.52 C 20.44 38.01 21.18 36.41 22.08 34.89 C 21.96 38.54 21.79 42.40 23.79 45.66 C 21.62 46.47 20.19 48.23 19.17 50.24 C 21.75 52.91 26.02 52.17 29.16 51.02 C 28.96 50.25 28.56 48.71 28.36 47.94 C 29.18 47.94 30.81 47.94 31.62 47.94 C 31.43 48.71 31.05 50.26 30.86 51.03 C 33.74 52.11 37.40 52.67 40.13 50.98 C 41.12 48.52 38.19 46.54 36.20 45.65 C 38.19 42.40 38.04 38.55 37.92 34.89 C 38.82 36.39 39.52 38.00 40.44 39.48 C 42.03 41.03 44.71 38.92 43.89 36.97 C 43.02 33.61 39.55 31.99 36.72 30.53 C 37.71 29.83 38.70 29.14 39.69 28.45 C 43.32 30.61 48.31 30.54 51.33 27.35 C 55.23 23.71 54.68 16.72 50.26 13.74 C 47.20 11.35 42.95 11.71 39.70 13.53 C 34.53 8.77 25.46 8.69 20.33 13.56 Z" />
<path fill="#ffffff" opacity="1.00" d=" M 24.08 15.33 C 27.83 13.41 32.24 13.82 36.09 15.15 C 34.72 15.84 33.21 16.17 31.72 16.51 C 32.35 18.35 34.52 18.01 36.07 18.41 C 36.01 17.78 35.88 16.53 35.82 15.90 C 39.43 18.66 38.63 26.11 33.91 27.44 C 31.04 28.24 27.78 28.29 25.04 27.00 C 22.47 25.76 21.77 22.60 22.06 19.99 C 22.48 19.02 21.93 16.23 23.73 17.12 L 24.25 17.59 C 25.46 18.04 26.75 18.14 28.09 17.89 C 28.21 15.93 26.40 16.05 25.01 15.78 L 24.08 15.33 M 24.58 23.46 C 26.05 24.87 27.42 23.29 28.35 22.15 C 27.50 21.32 26.66 20.48 25.81 19.65 C 24.67 20.58 23.12 22.01 24.58 23.46 M 33.27 20.12 C 30.82 21.03 32.35 24.88 34.77 23.87 C 37.25 23.09 35.16 19.59 33.27 20.12 M 29.15 24.32 C 26.61 25.63 30.41 27.37 31.57 25.88 C 32.31 24.54 30.12 23.78 29.15 24.32 Z" />
<path fill="#ffffff" opacity="1.00" d=" M 27.75 31.92 C 29.25 31.93 30.75 31.93 32.25 31.93 C 33.44 34.59 34.78 37.72 33.45 40.59 C 32.06 42.54 28.68 42.42 26.91 41.08 C 24.96 38.29 26.50 34.69 27.75 31.92 Z" />
</g>
<g id="#000000ff">
<path fill="#000000" opacity="1.00" d=" M 20.33 13.56 C 25.46 8.69 34.53 8.77 39.70 13.53 C 42.95 11.71 47.20 11.35 50.26 13.74 C 54.68 16.72 55.23 23.71 51.33 27.35 C 48.31 30.54 43.32 30.61 39.69 28.45 C 38.70 29.14 37.71 29.83 36.72 30.53 C 39.55 31.99 43.02 33.61 43.89 36.97 C 44.71 38.92 42.03 41.03 40.44 39.48 C 39.52 38.00 38.82 36.39 37.92 34.89 C 38.04 38.55 38.19 42.40 36.20 45.65 C 38.19 46.54 41.12 48.52 40.13 50.98 C 37.40 52.67 33.74 52.11 30.86 51.03 C 31.05 50.26 31.43 48.71 31.62 47.94 C 30.81 47.94 29.18 47.94 28.36 47.94 C 28.56 48.71 28.96 50.25 29.16 51.02 C 26.02 52.17 21.75 52.91 19.17 50.24 C 20.19 48.23 21.62 46.47 23.79 45.66 C 21.79 42.40 21.96 38.54 22.08 34.89 C 21.18 36.41 20.44 38.01 19.54 39.52 C 17.90 40.99 15.32 38.92 16.10 36.95 C 16.93 33.60 20.41 32.11 23.16 30.60 C 22.20 29.89 21.26 29.16 20.33 28.41 C 17.32 30.10 13.47 30.67 10.44 28.72 C 5.48 26.03 4.51 18.53 8.63 14.67 C 11.65 11.45 16.69 11.38 20.33 13.56 M 24.08 15.33 L 25.01 15.78 C 26.40 16.05 28.21 15.93 28.09 17.89 C 26.75 18.14 25.46 18.04 24.25 17.59 L 23.73 17.12 C 21.93 16.23 22.48 19.02 22.06 19.99 C 21.77 22.60 22.47 25.76 25.04 27.00 C 27.78 28.29 31.04 28.24 33.91 27.44 C 38.63 26.11 39.43 18.66 35.82 15.90 C 35.88 16.53 36.01 17.78 36.07 18.41 C 34.52 18.01 32.35 18.35 31.72 16.51 C 33.21 16.17 34.72 15.84 36.09 15.15 C 32.24 13.82 27.83 13.41 24.08 15.33 M 27.75 31.92 C 26.50 34.69 24.96 38.29 26.91 41.08 C 28.68 42.42 32.06 42.54 33.45 40.59 C 34.78 37.72 33.44 34.59 32.25 31.93 C 30.75 31.93 29.25 31.93 27.75 31.92 Z" />
<path fill="#000000" opacity="1.00" d=" M 24.58 23.46 C 23.12 22.01 24.67 20.58 25.81 19.65 C 26.66 20.48 27.50 21.32 28.35 22.15 C 27.42 23.29 26.05 24.87 24.58 23.46 Z" />
<path fill="#000000" opacity="1.00" d=" M 33.27 20.12 C 35.16 19.59 37.25 23.09 34.77 23.87 C 32.35 24.88 30.82 21.03 33.27 20.12 Z" />
<path fill="#000000" opacity="1.00" d=" M 29.15 24.32 C 30.12 23.78 32.31 24.54 31.57 25.88 C 30.41 27.37 26.61 25.63 29.15 24.32 Z" />
</g>
</svg>
