<?xml version="1.0" encoding="UTF-8" ?>
<!DOCTYPE svg PUBLIC "-//W3C//DTD SVG 1.1//EN" "http://www.w3.org/Graphics/SVG/1.1/DTD/svg11.dtd">
<svg width="64pt" height="64pt" viewBox="0 0 64 64" version="1.1" xmlns="http://www.w3.org/2000/svg">
<g id="#ffffffff">
<path fill="#ffffff" opacity="1.00" d=" M 0.00 0.00 L 64.00 0.00 L 64.00 64.00 L 0.00 64.00 L 0.00 0.00 M 19.34 9.28 C 11.85 13.38 6.69 21.39 6.10 29.91 C 5.42 37.65 8.46 45.61 14.15 50.91 C 19.90 56.40 28.26 58.96 36.10 57.65 C 44.53 56.39 52.10 50.66 55.60 42.89 C 58.38 36.95 58.68 30.01 56.69 23.79 C 55.61 24.84 54.53 25.90 53.44 26.95 C 54.45 31.88 54.04 37.14 51.76 41.67 C 48.39 48.77 40.94 53.66 33.10 53.95 C 25.51 54.42 17.85 50.58 13.69 44.21 C 8.78 37.01 8.80 26.88 13.74 19.70 C 18.28 12.77 26.98 8.95 35.15 10.24 C 39.71 10.82 43.83 13.15 47.24 16.16 C 48.16 15.21 49.09 14.27 50.05 13.36 C 42.12 5.47 29.04 3.69 19.34 9.28 M 32.00 37.60 C 29.14 34.72 26.30 31.83 23.39 29.00 C 22.47 30.00 21.55 31.00 20.63 31.99 C 24.40 35.81 28.20 39.60 32.01 43.39 C 40.47 34.93 48.93 26.47 57.40 18.00 C 56.46 17.00 55.54 16.00 54.62 15.00 C 47.06 22.52 39.54 30.07 32.00 37.60 Z" />
</g>
<g id="#000000ff">
<path fill="#000000" opacity="1.00" d=" M 19.34 9.28 C 29.04 3.69 42.12 5.47 50.05 13.36 C 49.09 14.27 48.16 15.21 47.24 16.16 C 43.83 13.15 39.71 10.82 35.15 10.24 C 26.98 8.95 18.28 12.77 13.74 19.70 C 8.80 26.88 8.78 37.01 13.69 44.21 C 17.85 50.58 25.51 54.42 33.10 53.95 C 40.94 53.66 48.39 48.77 51.76 41.67 C 54.04 37.14 54.45 31.88 53.44 26.95 C 54.53 25.90 55.61 24.84 56.69 23.79 C 58.68 30.01 58.38 36.95 55.60 42.89 C 52.10 50.66 44.53 56.39 36.10 57.65 C 28.26 58.96 19.90 56.40 14.15 50.91 C 8.46 45.61 5.42 37.65 6.10 29.91 C 6.69 21.39 11.85 13.38 19.34 9.28 Z" />
<path fill="#000000" opacity="1.00" d=" M 32.00 37.60 C 39.54 30.07 47.06 22.52 54.62 15.00 C 55.54 16.00 56.46 17.00 57.40 18.00 C 48.93 26.47 40.47 34.93 32.01 43.39 C 28.20 39.60 24.40 35.81 20.63 31.99 C 21.55 31.00 22.47 30.00 23.39 29.00 C 26.30 31.83 29.14 34.72 32.00 37.60 Z" />
</g>
</svg>
