<?xml version="1.0" encoding="UTF-8" ?>
<!DOCTYPE svg PUBLIC "-//W3C//DTD SVG 1.1//EN" "http://www.w3.org/Graphics/SVG/1.1/DTD/svg11.dtd">
<svg width="60pt" height="60pt" viewBox="0 0 60 60" version="1.1" xmlns="http://www.w3.org/2000/svg">
<g id="#ffffffff">
<path fill="#ffffff" opacity="1.00" d=" M 0.00 0.00 L 60.00 0.00 L 60.00 60.00 L 0.00 60.00 L 0.00 0.00 M 10.32 8.40 C 8.60 9.17 7.83 11.11 8.00 12.90 C 8.03 21.96 7.92 31.03 8.05 40.09 C 7.94 42.61 10.54 44.30 12.87 44.00 C 21.95 43.97 31.04 44.08 40.12 43.95 C 42.62 43.98 44.33 41.41 44.00 39.07 C 43.97 30.02 44.08 20.96 43.95 11.91 C 43.97 9.85 42.14 7.94 40.04 8.05 C 31.70 7.90 23.36 8.08 15.01 7.97 C 13.46 8.07 11.80 7.79 10.32 8.40 M 48.04 15.72 C 47.91 23.82 48.11 31.93 47.95 40.03 C 48.07 44.27 44.29 48.06 40.06 47.96 C 31.95 48.11 23.83 47.90 15.71 48.04 C 16.36 49.90 17.60 52.04 19.87 51.94 C 29.28 52.05 38.70 52.04 48.11 51.95 C 50.60 51.99 52.33 49.43 52.00 47.09 C 51.97 38.03 52.08 28.96 51.95 19.90 C 52.05 17.62 49.91 16.36 48.04 15.72 Z" />
<path fill="#ffffff" opacity="1.00" d=" M 36.62 16.63 C 38.35 14.69 41.32 17.65 39.38 19.37 C 34.83 24.16 30.03 28.71 25.42 33.45 C 24.45 34.51 22.72 35.96 21.43 34.43 C 18.90 32.00 16.30 29.60 14.05 26.89 C 13.59 25.30 15.04 23.78 16.64 24.33 C 18.96 26.05 20.81 28.30 22.89 30.30 C 27.48 25.76 31.96 21.09 36.62 16.63 Z" />
</g>
<g id="#000000ff">
<path fill="#000000" opacity="1.00" d=" M 10.32 8.40 C 11.80 7.79 13.46 8.07 15.01 7.97 C 23.36 8.08 31.70 7.90 40.04 8.05 C 42.14 7.94 43.97 9.85 43.95 11.91 C 44.08 20.96 43.97 30.02 44.00 39.07 C 44.33 41.41 42.62 43.98 40.12 43.95 C 31.04 44.08 21.95 43.97 12.87 44.00 C 10.54 44.30 7.94 42.61 8.05 40.09 C 7.92 31.03 8.03 21.96 8.00 12.90 C 7.83 11.11 8.60 9.17 10.32 8.40 M 36.62 16.63 C 31.96 21.09 27.48 25.76 22.89 30.30 C 20.81 28.30 18.96 26.05 16.64 24.33 C 15.04 23.78 13.59 25.30 14.05 26.89 C 16.30 29.60 18.90 32.00 21.43 34.43 C 22.72 35.96 24.45 34.51 25.42 33.45 C 30.03 28.71 34.83 24.16 39.38 19.37 C 41.32 17.65 38.35 14.69 36.62 16.63 Z" />
<path fill="#000000" opacity="1.00" d=" M 48.04 15.72 C 49.91 16.36 52.05 17.62 51.95 19.90 C 52.08 28.96 51.97 38.03 52.00 47.09 C 52.33 49.43 50.60 51.99 48.11 51.95 C 38.70 52.04 29.28 52.05 19.87 51.94 C 17.60 52.04 16.36 49.90 15.71 48.04 C 23.83 47.90 31.95 48.11 40.06 47.96 C 44.29 48.06 48.07 44.27 47.95 40.03 C 48.11 31.93 47.91 23.82 48.04 15.72 Z" />
</g>
</svg>
