<?xml version="1.0" encoding="UTF-8" ?>
<!DOCTYPE svg PUBLIC "-//W3C//DTD SVG 1.1//EN" "http://www.w3.org/Graphics/SVG/1.1/DTD/svg11.dtd">
<svg width="60pt" height="60pt" viewBox="0 0 60 60" version="1.1" xmlns="http://www.w3.org/2000/svg">
<g id="#ffffffff">
<path fill="#ffffff" opacity="1.00" d=" M 0.00 0.00 L 60.00 0.00 L 60.00 60.00 L 0.00 60.00 L 0.00 0.00 M 8.00 13.00 C 8.03 24.70 7.93 36.40 8.05 48.09 C 7.93 50.63 10.60 52.34 12.94 52.00 C 24.64 51.97 36.35 52.06 48.06 51.96 C 50.56 52.02 52.35 49.45 52.00 47.09 C 52.00 36.34 52.02 25.59 51.98 14.84 C 44.48 22.41 36.89 29.90 29.39 37.47 C 28.50 38.26 27.42 39.65 26.05 38.92 C 23.36 36.65 20.95 34.05 18.52 31.50 C 17.03 30.14 18.83 27.53 20.68 28.34 C 22.96 30.10 24.82 32.33 26.92 34.28 C 35.09 26.08 43.26 17.90 51.46 9.74 C 50.24 8.63 48.77 7.76 47.04 8.00 C 35.32 8.03 23.60 7.94 11.89 8.04 C 9.36 8.00 7.62 10.64 8.00 13.00 Z" />
</g>
<g id="#000000ff">
<path fill="#000000" opacity="1.00" d=" M 8.00 13.00 C 7.62 10.64 9.36 8.00 11.89 8.04 C 23.60 7.94 35.32 8.03 47.04 8.00 C 48.77 7.76 50.24 8.63 51.46 9.74 C 43.26 17.90 35.09 26.08 26.92 34.28 C 24.82 32.33 22.96 30.10 20.68 28.34 C 18.83 27.53 17.03 30.14 18.52 31.50 C 20.95 34.05 23.36 36.65 26.05 38.92 C 27.42 39.65 28.50 38.26 29.39 37.47 C 36.89 29.90 44.48 22.41 51.98 14.84 C 52.02 25.59 52.00 36.34 52.00 47.09 C 52.35 49.45 50.56 52.02 48.06 51.96 C 36.35 52.06 24.64 51.97 12.94 52.00 C 10.60 52.34 7.93 50.63 8.05 48.09 C 7.93 36.40 8.03 24.70 8.00 13.00 Z" />
</g>
</svg>
