<?xml version="1.0" encoding="UTF-8" ?>
<!DOCTYPE svg PUBLIC "-//W3C//DTD SVG 1.1//EN" "http://www.w3.org/Graphics/SVG/1.1/DTD/svg11.dtd">
<svg width="60pt" height="60pt" viewBox="0 0 60 60" version="1.1" xmlns="http://www.w3.org/2000/svg">
<g id="#ffffffff">
<path fill="#ffffff" opacity="1.00" d=" M 0.00 0.00 L 60.00 0.00 L 60.00 45.63 C 59.86 38.29 53.35 31.83 45.98 32.04 C 38.51 31.84 31.81 38.57 32.04 46.04 C 31.87 53.36 38.26 59.79 45.52 60.00 L 0.00 60.00 L 0.00 0.00 M 16.43 11.58 C 15.56 12.65 14.39 13.56 13.92 14.90 C 12.22 20.40 11.74 26.16 11.99 31.90 C 10.04 32.92 7.67 34.29 8.03 36.89 C 8.23 40.46 6.90 44.85 9.88 47.61 C 9.82 50.07 10.16 53.22 13.04 53.91 C 16.53 54.77 18.57 51.00 18.11 48.00 C 21.41 48.00 24.71 47.99 28.01 48.00 C 28.05 46.00 28.17 43.99 28.35 41.99 C 26.23 42.00 24.12 42.00 22.00 42.00 C 22.08 38.35 21.80 34.69 22.13 31.05 C 22.62 28.91 24.89 27.73 26.97 28.00 C 30.55 28.26 34.95 26.88 37.66 29.95 C 40.93 28.47 44.46 27.84 48.04 28.01 C 47.62 22.46 47.89 15.73 43.56 11.57 C 42.93 9.28 42.14 5.99 39.11 6.08 C 33.05 5.93 26.96 5.94 20.90 6.07 C 17.86 5.98 17.06 9.27 16.43 11.58 M 7.21 18.06 C 4.93 20.15 6.21 23.96 6.18 26.76 C 7.20 29.28 10.77 27.48 10.00 25.08 C 9.86 22.71 11.16 17.43 7.21 18.06 M 51.12 18.08 C 49.50 19.17 50.14 21.32 49.94 22.97 C 50.15 24.62 49.48 26.86 51.18 27.90 C 52.36 28.20 53.24 27.84 53.81 26.82 C 54.16 24.28 54.15 21.68 53.82 19.14 C 53.22 18.12 52.32 17.76 51.12 18.08 Z" />
<path fill="#ffffff" opacity="1.00" d=" M 18.33 15.38 C 25.91 13.46 34.17 13.45 41.74 15.42 C 43.35 17.91 43.14 21.19 43.95 24.00 C 34.65 24.00 25.35 24.00 16.04 24.00 C 16.89 21.19 16.59 17.81 18.33 15.38 Z" />
<path fill="#ffffff" opacity="1.00" d=" M 13.18 38.14 C 14.77 37.95 16.95 37.52 17.89 39.19 C 19.15 43.13 10.82 43.11 12.17 39.21 C 12.42 38.94 12.93 38.41 13.18 38.14 Z" />
<path fill="#ffffff" opacity="1.00" d=" M 51.25 40.13 C 53.20 39.31 54.97 41.95 53.39 43.37 C 50.59 46.25 47.83 49.22 44.78 51.85 C 42.41 52.37 41.16 49.69 39.57 48.42 C 38.12 47.42 37.21 45.02 39.24 44.10 C 41.42 43.63 42.55 46.00 44.02 47.15 C 46.46 44.84 48.64 42.25 51.25 40.13 Z" />
<path fill="#ffffff" opacity="1.00" d=" M 46.42 60.00 C 53.58 59.82 59.75 53.69 60.00 46.53 L 60.00 60.00 L 46.42 60.00 Z" />
</g>
<g id="#000000ff">
<path fill="#000000" opacity="1.00" d=" M 16.43 11.58 C 17.06 9.27 17.86 5.98 20.90 6.07 C 26.96 5.94 33.05 5.93 39.11 6.08 C 42.14 5.99 42.93 9.28 43.56 11.57 C 47.89 15.73 47.62 22.46 48.04 28.01 C 44.46 27.84 40.93 28.47 37.66 29.95 C 34.95 26.88 30.55 28.26 26.97 28.00 C 24.89 27.73 22.62 28.91 22.13 31.05 C 21.80 34.69 22.08 38.35 22.00 42.00 C 24.12 42.00 26.23 42.00 28.35 41.99 C 28.17 43.99 28.05 46.00 28.01 48.00 C 24.71 47.99 21.41 48.00 18.11 48.00 C 18.57 51.00 16.53 54.77 13.04 53.91 C 10.16 53.22 9.82 50.07 9.88 47.61 C 6.90 44.85 8.23 40.46 8.03 36.89 C 7.67 34.29 10.04 32.92 11.99 31.90 C 11.74 26.16 12.22 20.40 13.92 14.90 C 14.39 13.56 15.56 12.65 16.43 11.58 M 18.33 15.38 C 16.59 17.81 16.89 21.19 16.04 24.00 C 25.35 24.00 34.65 24.00 43.95 24.00 C 43.14 21.19 43.35 17.91 41.74 15.42 C 34.17 13.45 25.91 13.46 18.33 15.38 M 13.18 38.14 C 12.93 38.41 12.42 38.94 12.17 39.21 C 10.82 43.11 19.15 43.13 17.89 39.19 C 16.95 37.52 14.77 37.95 13.18 38.14 Z" />
<path fill="#000000" opacity="1.00" d=" M 7.21 18.06 C 11.16 17.43 9.86 22.71 10.00 25.08 C 10.77 27.48 7.20 29.28 6.18 26.76 C 6.21 23.96 4.93 20.15 7.21 18.06 Z" />
<path fill="#000000" opacity="1.00" d=" M 51.12 18.08 C 52.32 17.76 53.22 18.12 53.82 19.14 C 54.15 21.68 54.16 24.28 53.81 26.82 C 53.24 27.84 52.36 28.20 51.18 27.90 C 49.48 26.86 50.15 24.62 49.94 22.97 C 50.14 21.32 49.50 19.17 51.12 18.08 Z" />
<path fill="#000000" opacity="1.00" d=" M 32.04 46.04 C 31.81 38.57 38.51 31.84 45.98 32.04 C 53.35 31.83 59.86 38.29 60.00 45.63 L 60.00 46.53 C 59.75 53.69 53.58 59.82 46.42 60.00 L 45.52 60.00 C 38.26 59.79 31.87 53.36 32.04 46.04 M 51.25 40.13 C 48.64 42.25 46.46 44.84 44.02 47.15 C 42.55 46.00 41.42 43.63 39.24 44.10 C 37.21 45.02 38.12 47.42 39.57 48.42 C 41.16 49.69 42.41 52.37 44.78 51.85 C 47.83 49.22 50.59 46.25 53.39 43.37 C 54.97 41.95 53.20 39.31 51.25 40.13 Z" />
</g>
</svg>
