<?xml version="1.0" encoding="UTF-8" ?>
<!DOCTYPE svg PUBLIC "-//W3C//DTD SVG 1.1//EN" "http://www.w3.org/Graphics/SVG/1.1/DTD/svg11.dtd">
<svg width="64pt" height="64pt" viewBox="0 0 64 64" version="1.1" xmlns="http://www.w3.org/2000/svg">
<g id="#ffffffff">
<path fill="#ffffff" opacity="1.00" d=" M 0.00 0.00 L 64.00 0.00 L 64.00 64.00 L 0.00 64.00 L 0.00 0.00 M 5.97 31.97 C 6.03 38.65 5.98 45.32 6.00 52.00 C 23.33 52.00 40.67 52.00 58.00 52.00 C 58.00 48.04 58.00 44.09 58.00 40.13 C 56.53 39.97 53.95 40.16 54.02 38.00 C 53.93 35.83 56.53 36.03 58.00 35.87 C 58.00 32.81 58.00 29.74 58.01 26.68 C 46.08 21.65 34.08 16.84 22.14 11.85 C 12.98 13.66 5.23 22.44 5.97 31.97 Z" />
<path fill="#ffffff" opacity="1.00" d=" M 10.68 25.97 C 12.73 21.18 16.85 17.57 21.85 16.14 C 23.69 16.90 25.54 17.65 27.39 18.37 C 26.94 18.79 26.03 19.63 25.57 20.05 C 26.60 20.84 27.58 21.88 28.97 21.92 C 31.03 22.43 33.06 20.55 35.06 21.56 C 38.63 23.03 42.20 24.50 45.78 25.95 C 34.08 26.04 22.38 26.01 10.68 25.97 Z" />
<path fill="#ffffff" opacity="1.00" d=" M 10.00 30.00 C 11.96 30.00 13.93 30.00 15.89 30.00 C 15.99 31.80 16.78 34.08 18.99 33.98 C 21.20 34.10 22.01 31.80 22.12 30.01 C 32.75 29.99 43.38 30.00 54.01 30.00 C 54.00 30.66 53.98 31.99 53.97 32.66 C 52.06 33.86 49.87 35.52 50.00 38.04 C 49.93 40.52 52.09 42.15 53.98 43.34 C 53.99 44.89 54.00 46.45 54.01 48.00 C 45.90 48.01 37.80 47.98 29.70 48.02 C 30.65 45.37 29.09 41.86 25.97 42.00 C 22.91 41.97 21.34 45.37 22.30 48.02 C 18.20 47.98 14.10 48.00 10.00 48.00 C 10.00 42.00 10.00 36.00 10.00 30.00 M 37.36 34.51 C 35.61 35.56 35.59 38.42 37.35 39.48 C 39.21 40.87 42.14 39.25 41.98 36.94 C 42.03 34.68 39.19 33.18 37.36 34.51 Z" />
</g>
<g id="#000000ff">
<path fill="#000000" opacity="1.00" d=" M 5.97 31.97 C 5.23 22.44 12.98 13.66 22.14 11.85 C 34.08 16.84 46.08 21.65 58.01 26.68 C 58.00 29.74 58.00 32.81 58.00 35.87 C 56.53 36.03 53.93 35.83 54.02 38.00 C 53.95 40.16 56.53 39.97 58.00 40.13 C 58.00 44.09 58.00 48.04 58.00 52.00 C 40.67 52.00 23.33 52.00 6.00 52.00 C 5.98 45.32 6.03 38.65 5.97 31.97 M 10.68 25.97 C 22.38 26.01 34.08 26.04 45.78 25.95 C 42.20 24.50 38.63 23.03 35.06 21.56 C 33.06 20.55 31.03 22.43 28.97 21.92 C 27.58 21.88 26.60 20.84 25.57 20.05 C 26.03 19.63 26.94 18.79 27.39 18.37 C 25.54 17.65 23.69 16.90 21.85 16.14 C 16.85 17.57 12.73 21.18 10.68 25.97 M 10.00 30.00 C 10.00 36.00 10.00 42.00 10.00 48.00 C 14.10 48.00 18.20 47.98 22.30 48.02 C 21.34 45.37 22.91 41.97 25.97 42.00 C 29.09 41.86 30.65 45.37 29.70 48.02 C 37.80 47.98 45.90 48.01 54.01 48.00 C 54.00 46.45 53.99 44.89 53.98 43.34 C 52.09 42.15 49.93 40.52 50.00 38.04 C 49.87 35.52 52.06 33.86 53.97 32.66 C 53.98 31.99 54.00 30.66 54.01 30.00 C 43.38 30.00 32.75 29.99 22.12 30.01 C 22.01 31.80 21.20 34.10 18.99 33.98 C 16.78 34.08 15.99 31.80 15.89 30.00 C 13.93 30.00 11.96 30.00 10.00 30.00 Z" />
<path fill="#000000" opacity="1.00" d=" M 37.36 34.51 C 39.19 33.18 42.03 34.68 41.98 36.94 C 42.14 39.25 39.21 40.87 37.35 39.48 C 35.59 38.42 35.61 35.56 37.36 34.51 Z" />
</g>
</svg>
