<?xml version="1.0" encoding="UTF-8" ?>
<!DOCTYPE svg PUBLIC "-//W3C//DTD SVG 1.1//EN" "http://www.w3.org/Graphics/SVG/1.1/DTD/svg11.dtd">
<svg width="60pt" height="60pt" viewBox="0 0 60 60" version="1.1" xmlns="http://www.w3.org/2000/svg">
<g id="#ffffffff">
<path fill="#ffffff" opacity="1.00" d=" M 0.00 0.00 L 60.00 0.00 L 60.00 60.00 L 0.00 60.00 L 0.00 0.00 M 20.74 13.11 C 20.41 13.56 19.75 14.47 19.42 14.93 C 13.00 14.52 6.61 18.81 4.96 25.09 C 3.28 30.42 5.47 36.24 9.51 39.88 C 8.29 43.15 14.27 45.71 15.30 42.26 C 18.71 33.51 22.30 24.83 25.47 16.00 C 25.41 13.61 22.49 13.47 20.74 13.11 M 28.66 19.29 C 25.50 27.16 22.41 35.07 19.39 43.00 C 24.02 42.44 28.18 39.83 30.66 35.88 C 37.00 38.31 43.32 40.77 49.63 43.24 C 50.80 43.53 52.37 44.63 53.39 43.44 C 54.56 42.72 54.11 40.55 52.76 40.24 C 45.95 37.39 39.00 34.86 32.13 32.14 C 32.99 27.55 31.69 22.82 28.66 19.29 Z" />
</g>
<g id="#000000ff">
<path fill="#000000" opacity="1.00" d=" M 20.74 13.11 C 22.49 13.47 25.41 13.61 25.47 16.00 C 22.30 24.83 18.71 33.51 15.30 42.26 C 14.27 45.71 8.29 43.15 9.51 39.88 C 5.47 36.24 3.28 30.42 4.96 25.09 C 6.61 18.81 13.00 14.52 19.42 14.93 C 19.75 14.47 20.41 13.56 20.74 13.11 Z" />
<path fill="#000000" opacity="1.00" d=" M 28.66 19.29 C 31.69 22.82 32.99 27.55 32.13 32.14 C 39.00 34.86 45.95 37.39 52.76 40.24 C 54.11 40.55 54.56 42.72 53.39 43.44 C 52.37 44.63 50.80 43.53 49.63 43.24 C 43.32 40.77 37.00 38.31 30.66 35.88 C 28.18 39.83 24.02 42.44 19.39 43.00 C 22.41 35.07 25.50 27.16 28.66 19.29 Z" />
</g>
</svg>
