<?xml version="1.0" encoding="UTF-8" ?>
<!DOCTYPE svg PUBLIC "-//W3C//DTD SVG 1.1//EN" "http://www.w3.org/Graphics/SVG/1.1/DTD/svg11.dtd">
<svg width="64pt" height="64pt" viewBox="0 0 64 64" version="1.1" xmlns="http://www.w3.org/2000/svg">
<g id="#ffffffff">
<path fill="#ffffff" opacity="1.00" d=" M 0.00 0.00 L 64.00 0.00 L 64.00 64.00 L 0.00 64.00 L 0.00 0.00 M 14.12 13.12 C 10.06 15.79 9.46 21.05 10.55 25.43 C 9.23 28.48 7.84 31.59 7.89 35.01 C 9.83 36.77 11.72 38.59 13.61 40.41 C 15.41 39.60 17.05 38.52 18.58 37.29 C 18.90 40.17 19.09 43.09 18.32 45.92 C 17.12 50.04 20.02 53.73 23.13 56.02 C 29.05 55.99 34.96 55.99 40.87 56.02 C 43.98 53.72 46.88 50.03 45.68 45.92 C 44.91 43.10 45.08 40.19 45.43 37.33 C 46.95 38.47 48.53 39.54 50.18 40.49 C 52.19 38.69 54.15 36.84 56.13 35.00 C 56.15 31.57 54.72 28.46 53.46 25.38 C 54.42 21.24 54.07 16.35 50.45 13.56 C 46.99 10.12 41.50 11.11 37.88 8.04 C 33.95 7.98 30.03 7.98 26.11 8.04 C 22.71 11.04 17.56 10.10 14.12 13.12 Z" />
<path fill="#ffffff" opacity="1.00" d=" M 27.41 12.06 C 30.47 11.97 33.54 11.97 36.61 12.07 C 39.83 15.14 45.01 13.58 48.19 16.80 C 51.06 19.21 49.65 23.20 48.91 26.27 C 50.30 28.49 51.35 30.91 51.90 33.49 C 51.33 34.00 50.18 35.03 49.61 35.54 C 47.61 33.85 47.52 30.57 44.98 29.55 C 45.32 28.59 45.66 27.62 46.00 26.65 C 43.12 24.33 40.50 21.71 37.93 19.05 C 35.85 20.12 33.87 21.36 32.00 22.75 C 30.10 21.39 28.13 20.14 26.07 19.05 C 23.50 21.71 20.89 24.34 18.00 26.65 C 18.33 27.62 18.67 28.59 19.01 29.56 C 16.45 30.57 16.42 33.92 14.31 35.55 C 13.76 35.02 12.65 33.98 12.10 33.45 C 12.65 30.90 13.70 28.49 15.09 26.28 C 14.36 23.21 12.92 19.21 15.80 16.80 C 18.99 13.58 24.18 15.14 27.41 12.06 Z" />
<path fill="#ffffff" opacity="1.00" d=" M 21.59 32.61 C 25.02 34.31 29.52 34.69 31.99 31.23 C 34.48 34.69 38.98 34.31 42.41 32.61 C 41.19 37.13 40.44 41.93 41.69 46.53 C 42.43 48.66 40.97 51.06 39.01 51.89 C 34.35 52.10 29.65 52.10 24.99 51.89 C 23.01 51.07 21.56 48.65 22.31 46.51 C 23.55 41.92 22.80 37.12 21.59 32.61 Z" />
</g>
<g id="#000000ff">
<path fill="#000000" opacity="1.00" d=" M 14.12 13.12 C 17.56 10.10 22.71 11.04 26.11 8.04 C 30.03 7.98 33.95 7.98 37.88 8.04 C 41.50 11.11 46.99 10.12 50.45 13.56 C 54.07 16.35 54.42 21.24 53.46 25.38 C 54.72 28.46 56.15 31.57 56.13 35.00 C 54.15 36.84 52.19 38.69 50.18 40.49 C 48.53 39.54 46.95 38.47 45.43 37.33 C 45.08 40.19 44.91 43.10 45.68 45.92 C 46.88 50.03 43.98 53.72 40.87 56.02 C 34.96 55.99 29.05 55.99 23.13 56.02 C 20.02 53.73 17.12 50.04 18.32 45.92 C 19.09 43.09 18.90 40.17 18.58 37.29 C 17.05 38.52 15.41 39.60 13.61 40.41 C 11.72 38.59 9.83 36.77 7.89 35.01 C 7.84 31.59 9.23 28.48 10.55 25.43 C 9.46 21.05 10.06 15.79 14.12 13.12 M 27.41 12.06 C 24.18 15.14 18.99 13.58 15.80 16.80 C 12.92 19.21 14.36 23.21 15.09 26.28 C 13.70 28.49 12.65 30.90 12.10 33.45 C 12.65 33.98 13.76 35.02 14.31 35.55 C 16.42 33.92 16.45 30.57 19.01 29.56 C 18.67 28.59 18.33 27.62 18.00 26.65 C 20.89 24.34 23.50 21.71 26.07 19.05 C 28.13 20.14 30.10 21.39 32.00 22.75 C 33.87 21.36 35.85 20.12 37.93 19.05 C 40.50 21.71 43.12 24.33 46.00 26.65 C 45.66 27.62 45.32 28.59 44.98 29.55 C 47.52 30.57 47.61 33.85 49.61 35.54 C 50.18 35.03 51.33 34.00 51.90 33.49 C 51.35 30.91 50.30 28.49 48.91 26.27 C 49.65 23.20 51.06 19.21 48.19 16.80 C 45.01 13.58 39.83 15.14 36.61 12.07 C 33.54 11.97 30.47 11.97 27.41 12.06 M 21.59 32.61 C 22.80 37.12 23.55 41.92 22.31 46.51 C 21.56 48.65 23.01 51.07 24.99 51.89 C 29.65 52.10 34.35 52.10 39.01 51.89 C 40.97 51.06 42.43 48.66 41.69 46.53 C 40.44 41.93 41.19 37.13 42.41 32.61 C 38.98 34.31 34.48 34.69 31.99 31.23 C 29.52 34.69 25.02 34.31 21.59 32.61 Z" />
</g>
</svg>
