<?xml version="1.0" encoding="UTF-8" ?>
<!DOCTYPE svg PUBLIC "-//W3C//DTD SVG 1.1//EN" "http://www.w3.org/Graphics/SVG/1.1/DTD/svg11.dtd">
<svg width="60pt" height="60pt" viewBox="0 0 60 60" version="1.1" xmlns="http://www.w3.org/2000/svg">
<g id="#ffffffff">
<path fill="#ffffff" opacity="1.00" d=" M 0.00 0.00 L 60.00 0.00 L 60.00 60.00 L 0.00 60.00 L 0.00 0.00 M 2.36 20.40 C 1.80 23.75 1.99 27.16 2.04 30.54 C 11.38 28.49 20.62 25.97 29.99 24.10 C 39.38 25.90 48.64 28.37 57.96 30.54 C 58.01 27.17 58.18 23.77 57.66 20.42 C 48.54 18.15 39.39 15.93 30.18 14.11 C 20.84 15.83 11.62 18.30 2.36 20.40 M 28.53 30.40 C 19.71 32.49 10.91 34.65 2.06 36.58 C 2.03 39.32 1.82 42.07 2.16 44.79 C 3.00 46.67 5.04 45.69 6.55 45.48 C 13.87 43.81 21.20 42.12 28.52 40.40 C 30.64 39.85 32.76 40.76 34.83 41.14 C 42.22 42.77 49.54 44.70 56.97 46.17 C 58.75 43.28 57.81 39.78 57.93 36.59 C 49.65 34.66 41.38 32.70 33.11 30.75 C 31.61 30.44 30.05 29.95 28.53 30.40 Z" />
</g>
<g id="#000000ff">
<path fill="#968176" opacity="1.00" d=" M 2.36 20.40 C 11.62 18.30 20.84 15.83 30.18 14.11 C 39.39 15.93 48.54 18.15 57.66 20.42 C 58.18 23.77 58.01 27.17 57.96 30.54 C 48.64 28.37 39.38 25.90 29.99 24.10 C 20.62 25.97 11.38 28.49 2.04 30.54 C 1.99 27.16 1.80 23.75 2.36 20.40 Z" />
<path fill="#968176" opacity="1.00" d=" M 28.53 30.40 C 30.05 29.95 31.61 30.44 33.11 30.75 C 41.38 32.70 49.65 34.66 57.93 36.59 C 57.81 39.78 58.75 43.28 56.97 46.17 C 49.54 44.70 42.22 42.77 34.83 41.14 C 32.76 40.76 30.64 39.85 28.52 40.40 C 21.20 42.12 13.87 43.81 6.55 45.48 C 5.04 45.69 3.00 46.67 2.16 44.79 C 1.82 42.07 2.03 39.32 2.06 36.58 C 10.91 34.65 19.71 32.49 28.53 30.40 Z" />
</g>
</svg>
