<?xml version="1.0" encoding="UTF-8" ?>
<!DOCTYPE svg PUBLIC "-//W3C//DTD SVG 1.1//EN" "http://www.w3.org/Graphics/SVG/1.1/DTD/svg11.dtd">
<svg width="60pt" height="60pt" viewBox="0 0 60 60" version="1.1" xmlns="http://www.w3.org/2000/svg">
<g id="#ffffffff">
<path fill="#ffffff" opacity="1.00" d=" M 0.00 0.00 L 60.00 0.00 L 60.00 60.00 L 0.00 60.00 L 0.00 0.00 M 33.11 6.20 C 27.10 12.89 21.70 20.12 15.86 26.97 C 14.91 28.20 13.07 29.90 14.63 31.42 C 20.27 38.43 26.03 45.35 31.70 52.34 C 32.99 54.64 35.86 54.01 38.06 53.95 C 39.77 54.11 40.65 51.72 39.40 50.61 C 33.88 43.68 28.19 36.87 22.58 30.00 C 28.05 23.34 33.51 16.67 38.96 9.99 C 40.10 8.97 40.47 6.99 38.90 6.16 C 36.98 5.89 35.02 5.86 33.11 6.20 Z" />
</g>
<g id="#000000ff">
<path fill="#968176" opacity="1.00" d=" M 33.11 6.20 C 35.02 5.86 36.98 5.89 38.90 6.16 C 40.47 6.99 40.10 8.97 38.96 9.99 C 33.51 16.67 28.05 23.34 22.58 30.00 C 28.19 36.87 33.88 43.68 39.40 50.61 C 40.65 51.72 39.77 54.11 38.06 53.95 C 35.86 54.01 32.99 54.64 31.70 52.34 C 26.03 45.35 20.27 38.43 14.63 31.42 C 13.07 29.90 14.91 28.20 15.86 26.97 C 21.70 20.12 27.10 12.89 33.11 6.20 Z" />
</g>
</svg>
