<?xml version="1.0" encoding="UTF-8" ?>
<!DOCTYPE svg PUBLIC "-//W3C//DTD SVG 1.1//EN" "http://www.w3.org/Graphics/SVG/1.1/DTD/svg11.dtd">
<svg width="64pt" height="64pt" viewBox="0 0 64 64" version="1.1" xmlns="http://www.w3.org/2000/svg">
<g id="#ffffffff">
<path fill="#ffffff" opacity="1.00" d=" M 0.00 0.00 L 30.51 0.00 C 21.00 0.56 12.04 6.49 7.98 15.13 C 4.43 22.16 5.34 30.28 5.44 37.87 C 5.41 41.21 8.04 43.52 10.63 45.14 C 12.03 55.10 20.54 63.46 30.71 64.00 L 0.00 64.00 L 0.00 0.00 Z" />
<path fill="#ffffff" opacity="1.00" d=" M 33.71 0.00 L 64.00 0.00 L 64.00 64.00 L 33.07 64.00 C 43.33 63.59 51.95 55.15 53.37 45.12 C 55.95 43.51 58.57 41.20 58.55 37.88 C 58.68 30.27 59.55 22.16 56.01 15.12 C 51.98 6.55 43.13 0.67 33.71 0.00 Z" />
<path fill="#ffffff" opacity="1.00" d=" M 16.21 12.31 C 22.99 4.53 35.60 3.07 44.01 9.03 C 50.98 13.52 54.00 22.09 53.40 30.11 C 52.35 27.52 51.18 24.77 48.70 23.23 C 46.52 21.52 43.63 21.68 41.13 20.79 C 39.58 19.75 40.19 17.56 39.89 16.00 C 38.19 16.00 36.48 16.00 34.77 16.00 C 34.52 17.75 35.08 20.33 32.97 21.13 C 28.00 21.87 22.85 20.60 17.95 21.90 C 14.12 23.03 11.81 26.54 10.59 30.13 C 10.30 23.78 11.66 17.03 16.21 12.31 Z" />
<path fill="#ffffff" opacity="1.00" d=" M 19.15 27.13 C 25.10 25.53 31.88 28.41 37.36 24.86 C 39.80 26.57 42.89 26.42 45.54 27.51 C 48.06 28.93 48.02 32.05 48.08 34.57 C 50.00 34.73 52.94 34.36 53.31 36.96 C 53.67 40.01 50.16 40.14 48.04 40.10 C 47.96 42.02 47.89 43.94 47.86 45.86 C 46.17 45.45 43.58 44.80 42.85 47.03 C 41.86 49.11 44.08 50.55 45.80 50.97 C 44.75 52.16 43.73 53.38 42.74 54.63 C 41.21 53.37 38.49 52.54 37.52 54.96 C 37.51 55.69 37.48 57.13 37.47 57.85 C 35.16 58.34 32.80 58.56 30.45 58.76 C 32.22 57.30 32.64 54.25 30.05 53.35 C 27.18 52.75 26.36 55.82 26.73 58.03 C 24.95 56.99 23.17 55.95 21.44 54.82 C 21.58 52.57 20.41 50.64 18.02 50.44 C 16.29 47.26 15.87 43.66 15.95 40.10 C 13.86 40.13 10.33 40.02 10.70 37.01 C 10.97 34.39 14.02 34.71 15.92 34.57 C 15.86 31.79 16.13 28.30 19.15 27.13 M 23.16 32.18 C 19.78 33.08 21.72 38.54 24.97 37.19 C 28.15 36.06 26.26 30.91 23.16 32.18 M 39.17 32.18 C 35.78 33.05 37.71 38.57 40.98 37.17 C 44.15 36.07 42.25 30.89 39.17 32.18 M 33.35 40.39 C 31.68 41.19 31.54 43.92 33.19 44.83 C 34.64 46.07 37.19 44.87 37.27 43.00 C 37.75 40.94 35.04 39.19 33.35 40.39 M 22.24 43.36 C 19.64 45.45 23.07 49.51 25.61 47.49 C 28.53 45.41 24.79 40.84 22.24 43.36 Z" />
</g>
<g id="#000000ff">
<path fill="#000000" opacity="1.00" d=" M 30.51 0.00 L 33.71 0.00 C 43.13 0.67 51.98 6.55 56.01 15.12 C 59.55 22.16 58.68 30.27 58.55 37.88 C 58.57 41.20 55.95 43.51 53.37 45.12 C 51.95 55.15 43.33 63.59 33.07 64.00 L 30.71 64.00 C 20.54 63.46 12.03 55.10 10.63 45.14 C 8.04 43.52 5.41 41.21 5.44 37.87 C 5.34 30.28 4.43 22.16 7.98 15.13 C 12.04 6.49 21.00 0.56 30.51 0.00 M 16.21 12.31 C 11.66 17.03 10.30 23.78 10.59 30.13 C 11.81 26.54 14.12 23.03 17.95 21.90 C 22.85 20.60 28.00 21.87 32.97 21.13 C 35.08 20.33 34.52 17.75 34.77 16.00 C 36.48 16.00 38.19 16.00 39.89 16.00 C 40.19 17.56 39.58 19.75 41.13 20.79 C 43.63 21.68 46.52 21.52 48.70 23.23 C 51.18 24.77 52.35 27.52 53.40 30.11 C 54.00 22.09 50.98 13.52 44.01 9.03 C 35.60 3.07 22.99 4.53 16.21 12.31 M 19.15 27.13 C 16.13 28.30 15.86 31.79 15.92 34.57 C 14.02 34.71 10.97 34.39 10.70 37.01 C 10.33 40.02 13.86 40.13 15.95 40.10 C 15.87 43.66 16.29 47.26 18.02 50.44 C 20.41 50.64 21.58 52.57 21.44 54.82 C 23.17 55.95 24.95 56.99 26.73 58.03 C 26.36 55.82 27.18 52.75 30.05 53.35 C 32.64 54.25 32.22 57.30 30.45 58.76 C 32.80 58.56 35.16 58.34 37.47 57.85 C 37.48 57.13 37.51 55.69 37.52 54.96 C 38.49 52.54 41.21 53.37 42.74 54.63 C 43.73 53.38 44.75 52.16 45.80 50.97 C 44.08 50.55 41.86 49.11 42.85 47.03 C 43.58 44.80 46.17 45.45 47.86 45.86 C 47.89 43.94 47.96 42.02 48.04 40.10 C 50.16 40.14 53.67 40.01 53.31 36.96 C 52.94 34.36 50.00 34.73 48.08 34.57 C 48.02 32.05 48.06 28.93 45.54 27.51 C 42.89 26.42 39.80 26.57 37.36 24.86 C 31.88 28.41 25.10 25.53 19.15 27.13 Z" />
<path fill="#000000" opacity="1.00" d=" M 23.16 32.18 C 26.26 30.91 28.15 36.06 24.97 37.19 C 21.72 38.54 19.78 33.08 23.16 32.18 Z" />
<path fill="#000000" opacity="1.00" d=" M 39.17 32.18 C 42.25 30.89 44.15 36.07 40.98 37.17 C 37.71 38.57 35.78 33.05 39.17 32.18 Z" />
<path fill="#000000" opacity="1.00" d=" M 33.35 40.39 C 35.04 39.19 37.75 40.94 37.27 43.00 C 37.19 44.87 34.64 46.07 33.19 44.83 C 31.54 43.92 31.68 41.19 33.35 40.39 Z" />
<path fill="#000000" opacity="1.00" d=" M 22.24 43.36 C 24.79 40.84 28.53 45.41 25.61 47.49 C 23.07 49.51 19.64 45.45 22.24 43.36 Z" />
</g>
</svg>
