<?xml version="1.0" encoding="UTF-8" ?>
<!DOCTYPE svg PUBLIC "-//W3C//DTD SVG 1.1//EN" "http://www.w3.org/Graphics/SVG/1.1/DTD/svg11.dtd">
<svg width="60pt" height="60pt" viewBox="0 0 60 60" version="1.1" xmlns="http://www.w3.org/2000/svg">
<g id="#ffffffff">
<path fill="#ffffff" opacity="1.00" d=" M 0.00 0.00 L 60.00 0.00 L 60.00 60.00 L 0.00 60.00 L 0.00 0.00 M 9.86 9.60 C 8.19 10.57 5.83 11.63 6.02 13.97 C 5.85 15.82 7.56 16.84 8.62 18.05 C 7.80 21.98 7.98 26.01 8.01 30.00 C 11.31 31.99 14.62 33.97 17.92 35.95 C 20.48 32.98 23.74 30.77 26.53 28.05 C 27.79 28.00 29.06 27.95 30.33 27.89 C 29.70 26.23 29.00 24.61 28.20 23.03 C 28.01 20.06 27.03 17.24 25.21 14.87 C 25.60 13.20 26.60 11.23 25.24 9.72 C 24.05 7.62 21.48 8.03 19.51 8.46 C 18.20 7.34 16.89 5.85 14.97 6.00 C 12.57 5.83 11.17 7.96 9.86 9.60 M 44.17 21.12 C 43.88 23.40 44.01 25.70 43.99 27.99 C 41.69 28.01 39.38 27.88 37.10 28.17 C 35.00 30.08 36.39 33.46 35.99 35.99 C 33.70 36.01 31.39 35.87 29.11 36.18 C 26.98 38.04 28.41 41.47 27.99 43.99 C 25.69 44.01 23.37 43.87 21.08 44.18 C 19.14 45.83 20.26 48.83 20.00 51.06 C 19.69 52.77 20.99 54.55 22.84 53.90 C 24.71 52.56 23.72 49.94 24.08 48.00 C 26.34 47.98 28.62 48.13 30.87 47.82 C 33.03 45.97 31.59 42.53 32.01 40.01 C 34.30 39.98 36.62 40.14 38.90 39.81 C 41.01 37.94 39.60 34.52 40.01 32.01 C 42.29 31.99 44.59 32.13 46.86 31.82 C 49.04 30.01 47.59 26.57 48.00 24.07 C 49.61 24.00 51.25 24.04 52.85 23.80 C 54.73 23.08 54.12 19.90 52.07 20.08 C 49.52 20.28 46.07 18.99 44.17 21.12 Z" />
<path fill="#ffffff" opacity="1.00" d=" M 19.12 20.11 C 21.56 19.12 23.17 22.77 20.82 23.89 C 18.41 24.86 16.92 21.29 19.12 20.11 Z" />
</g>
<g id="#000000ff">
<path fill="#968176" opacity="1.00" d=" M 9.86 9.60 C 11.17 7.96 12.57 5.83 14.97 6.00 C 16.89 5.85 18.20 7.34 19.51 8.46 C 21.48 8.03 24.05 7.62 25.24 9.72 C 26.60 11.23 25.60 13.20 25.21 14.87 C 27.03 17.24 28.01 20.06 28.20 23.03 C 29.00 24.61 29.70 26.23 30.33 27.89 C 29.06 27.95 27.79 28.00 26.53 28.05 C 23.74 30.77 20.48 32.98 17.92 35.95 C 14.62 33.97 11.31 31.99 8.01 30.00 C 7.98 26.01 7.80 21.98 8.62 18.05 C 7.56 16.84 5.85 15.82 6.02 13.97 C 5.83 11.63 8.19 10.57 9.86 9.60 M 19.12 20.11 C 16.92 21.29 18.41 24.86 20.82 23.89 C 23.17 22.77 21.56 19.12 19.12 20.11 Z" />
<path fill="#968176" opacity="1.00" d=" M 44.17 21.12 C 46.07 18.99 49.52 20.28 52.07 20.08 C 54.12 19.90 54.73 23.08 52.85 23.80 C 51.25 24.04 49.61 24.00 48.00 24.07 C 47.59 26.57 49.04 30.01 46.86 31.82 C 44.59 32.13 42.29 31.99 40.01 32.01 C 39.60 34.52 41.01 37.94 38.90 39.81 C 36.62 40.14 34.30 39.98 32.01 40.01 C 31.59 42.53 33.03 45.97 30.87 47.82 C 28.62 48.13 26.34 47.98 24.08 48.00 C 23.72 49.94 24.71 52.56 22.84 53.90 C 20.99 54.55 19.69 52.77 20.00 51.06 C 20.26 48.83 19.14 45.83 21.08 44.18 C 23.37 43.87 25.69 44.01 27.99 43.99 C 28.41 41.47 26.98 38.04 29.11 36.18 C 31.39 35.87 33.70 36.01 35.99 35.99 C 36.39 33.46 35.00 30.08 37.10 28.17 C 39.38 27.88 41.69 28.01 43.99 27.99 C 44.01 25.70 43.88 23.40 44.17 21.12 Z" />
</g>
</svg>
