<?xml version="1.0" encoding="UTF-8" ?>
<!DOCTYPE svg PUBLIC "-//W3C//DTD SVG 1.1//EN" "http://www.w3.org/Graphics/SVG/1.1/DTD/svg11.dtd">
<svg width="60pt" height="60pt" viewBox="0 0 60 60" version="1.1" xmlns="http://www.w3.org/2000/svg">
<g id="#ffffffff">
<path fill="#ffffff" opacity="1.00" d=" M 0.00 0.00 L 60.00 0.00 L 60.00 60.00 L 0.00 60.00 L 0.00 0.00 M 34.28 5.96 C 32.72 6.03 30.67 6.22 30.19 8.03 C 29.37 10.05 31.18 11.63 32.89 12.22 C 31.40 16.27 32.41 21.01 29.82 24.69 C 27.11 28.96 21.66 29.86 17.00 29.98 C 15.72 27.10 14.35 24.13 12.00 21.96 C 10.64 21.14 9.02 22.45 9.03 23.88 C 10.05 25.88 11.43 27.67 12.63 29.56 C 10.23 28.64 7.62 27.35 5.02 28.19 C 3.51 29.22 4.07 31.82 6.03 31.78 C 9.11 32.05 12.29 33.55 13.47 36.59 C 15.89 42.05 19.83 47.15 25.55 49.37 C 24.68 50.40 23.17 52.21 24.62 53.39 C 26.10 54.94 27.96 52.95 29.00 51.84 C 30.78 52.31 32.37 53.24 34.02 54.02 C 36.73 53.88 36.18 50.65 34.38 49.61 C 38.56 48.86 42.75 46.60 44.52 42.55 C 47.40 36.51 45.67 29.42 42.13 24.06 C 43.88 22.93 45.53 21.63 46.90 20.05 C 47.72 20.02 49.37 19.96 50.19 19.93 C 48.52 16.86 47.67 13.44 45.99 10.39 C 46.54 7.68 44.43 5.51 41.72 5.98 C 39.76 3.50 36.25 3.53 34.28 5.96 Z" />
<path fill="#ffffff" opacity="1.00" d=" M 41.19 14.10 C 43.61 13.15 45.13 16.81 42.82 17.88 C 40.39 18.88 38.86 15.17 41.19 14.10 Z" />
</g>
<g id="#000000ff">
<path fill="#000000" opacity="1.00" d=" M 34.28 5.96 C 36.25 3.53 39.76 3.50 41.72 5.98 C 44.43 5.51 46.54 7.68 45.99 10.39 C 47.67 13.44 48.52 16.86 50.19 19.93 C 49.37 19.96 47.72 20.02 46.90 20.05 C 45.53 21.63 43.88 22.93 42.13 24.06 C 45.67 29.42 47.40 36.51 44.52 42.55 C 42.75 46.60 38.56 48.86 34.38 49.61 C 36.18 50.65 36.73 53.88 34.02 54.02 C 32.37 53.24 30.78 52.31 29.00 51.84 C 27.96 52.95 26.10 54.94 24.62 53.39 C 23.17 52.21 24.68 50.40 25.55 49.37 C 19.83 47.15 15.89 42.05 13.47 36.59 C 12.29 33.55 9.11 32.05 6.03 31.78 C 4.07 31.82 3.51 29.22 5.02 28.19 C 7.62 27.35 10.23 28.64 12.63 29.56 C 11.43 27.67 10.05 25.88 9.03 23.88 C 9.02 22.45 10.64 21.14 12.00 21.96 C 14.35 24.13 15.72 27.10 17.00 29.98 C 21.66 29.86 27.11 28.96 29.82 24.69 C 32.41 21.01 31.40 16.27 32.89 12.22 C 31.18 11.63 29.37 10.05 30.19 8.03 C 30.67 6.22 32.72 6.03 34.28 5.96 M 41.19 14.10 C 38.86 15.17 40.39 18.88 42.82 17.88 C 45.13 16.81 43.61 13.15 41.19 14.10 Z" />
</g>
</svg>
