<?xml version="1.0" encoding="UTF-8" ?>
<!DOCTYPE svg PUBLIC "-//W3C//DTD SVG 1.1//EN" "http://www.w3.org/Graphics/SVG/1.1/DTD/svg11.dtd">
<svg width="64pt" height="64pt" viewBox="0 0 64 64" version="1.1" xmlns="http://www.w3.org/2000/svg">
<g id="#ffffffff">
<path fill="#ffffff" opacity="1.00" d=" M 0.00 0.00 L 64.00 0.00 L 64.00 64.00 L 0.00 64.00 L 0.00 0.00 M 24.02 5.85 C 24.01 7.17 24.00 8.50 24.00 9.83 C 26.03 10.13 28.01 10.77 29.44 12.33 C 21.17 13.71 14.11 20.12 12.52 28.44 C 10.34 29.55 7.85 31.19 7.99 34.00 C 7.85 36.79 10.31 38.41 12.48 39.52 C 14.30 48.98 23.27 56.75 33.08 55.96 C 42.15 55.64 49.72 48.21 51.52 39.53 C 53.70 38.41 56.15 36.76 56.01 33.97 C 56.11 31.26 53.73 29.70 51.68 28.51 C 50.05 20.84 43.90 14.51 36.25 12.76 C 39.02 12.37 37.66 9.51 38.00 7.78 C 36.11 8.19 34.40 9.07 33.01 10.41 C 30.92 7.48 27.52 6.10 24.02 5.85 M 49.85 17.70 C 51.99 16.59 54.35 16.07 56.66 15.43 C 59.06 14.06 57.88 10.00 55.13 10.03 C 51.31 10.32 50.74 14.80 49.85 17.70 M 53.82 25.61 C 55.73 24.99 57.69 24.51 59.50 23.62 C 60.90 21.98 59.07 19.34 57.02 20.08 C 54.84 21.03 54.64 23.67 53.82 25.61 Z" />
<path fill="#ffffff" opacity="1.00" d=" M 24.13 18.13 C 30.60 14.26 39.62 15.96 44.29 21.86 C 46.72 24.62 47.74 28.25 48.28 31.82 C 49.76 32.02 51.93 32.01 52.06 34.01 C 51.90 36.08 49.61 35.98 48.09 36.14 C 47.57 40.69 45.85 45.29 42.19 48.23 C 36.58 53.15 27.47 53.17 21.84 48.26 C 18.15 45.33 16.42 40.70 15.91 36.14 C 14.53 35.95 11.84 36.11 12.07 34.01 C 11.81 31.90 14.51 32.03 15.91 31.86 C 16.40 26.35 19.14 20.86 24.13 18.13 M 23.38 30.50 C 21.60 31.54 21.59 34.44 23.37 35.49 C 24.90 36.59 27.37 35.74 27.81 33.89 C 28.84 31.40 25.53 28.89 23.38 30.50 M 37.33 30.54 C 34.09 32.49 37.52 37.80 40.64 35.48 C 43.94 33.53 40.46 28.18 37.33 30.54 M 32.51 44.09 C 29.89 43.83 27.32 43.22 24.86 42.26 C 24.27 43.48 23.67 44.69 23.07 45.91 C 28.73 48.54 35.26 48.55 40.91 45.89 C 40.73 43.33 41.61 39.66 38.93 38.16 C 35.32 37.31 33.81 41.56 32.51 44.09 Z" />
</g>
<g id="#000000ff">
<path fill="#000000" opacity="1.00" d=" M 24.02 5.85 C 27.52 6.10 30.92 7.48 33.01 10.41 C 34.40 9.07 36.11 8.19 38.00 7.78 C 37.66 9.51 39.02 12.37 36.25 12.76 C 43.90 14.51 50.05 20.84 51.68 28.51 C 53.73 29.70 56.11 31.26 56.01 33.97 C 56.15 36.76 53.70 38.41 51.52 39.53 C 49.72 48.21 42.15 55.64 33.08 55.96 C 23.27 56.75 14.30 48.98 12.48 39.52 C 10.31 38.41 7.85 36.79 7.99 34.00 C 7.85 31.19 10.34 29.55 12.52 28.44 C 14.11 20.12 21.17 13.71 29.44 12.33 C 28.01 10.77 26.03 10.13 24.00 9.83 C 24.00 8.50 24.01 7.17 24.02 5.85 M 24.13 18.13 C 19.14 20.86 16.40 26.35 15.91 31.86 C 14.51 32.03 11.81 31.90 12.07 34.01 C 11.84 36.11 14.53 35.95 15.91 36.14 C 16.42 40.70 18.15 45.33 21.84 48.26 C 27.47 53.17 36.58 53.15 42.19 48.23 C 45.85 45.29 47.57 40.69 48.09 36.14 C 49.61 35.98 51.90 36.08 52.06 34.01 C 51.93 32.01 49.76 32.02 48.28 31.82 C 47.74 28.25 46.72 24.62 44.29 21.86 C 39.62 15.96 30.60 14.26 24.13 18.13 Z" />
<path fill="#000000" opacity="1.00" d=" M 49.85 17.70 C 50.74 14.80 51.31 10.32 55.13 10.03 C 57.88 10.00 59.06 14.06 56.66 15.43 C 54.35 16.07 51.99 16.59 49.85 17.70 Z" />
<path fill="#000000" opacity="1.00" d=" M 53.82 25.61 C 54.64 23.67 54.84 21.03 57.02 20.08 C 59.07 19.34 60.90 21.98 59.50 23.62 C 57.69 24.51 55.73 24.99 53.82 25.61 Z" />
<path fill="#000000" opacity="1.00" d=" M 23.38 30.50 C 25.53 28.89 28.84 31.40 27.81 33.89 C 27.37 35.74 24.90 36.59 23.37 35.49 C 21.59 34.44 21.60 31.54 23.38 30.50 Z" />
<path fill="#000000" opacity="1.00" d=" M 37.33 30.54 C 40.46 28.18 43.94 33.53 40.64 35.48 C 37.52 37.80 34.09 32.49 37.33 30.54 Z" />
<path fill="#000000" opacity="1.00" d=" M 32.51 44.09 C 33.81 41.56 35.32 37.31 38.93 38.16 C 41.61 39.66 40.73 43.33 40.91 45.89 C 35.26 48.55 28.73 48.54 23.07 45.91 C 23.67 44.69 24.27 43.48 24.86 42.26 C 27.32 43.22 29.89 43.83 32.51 44.09 Z" />
</g>
</svg>
