<?xml version="1.0" encoding="UTF-8" ?>
<!DOCTYPE svg PUBLIC "-//W3C//DTD SVG 1.1//EN" "http://www.w3.org/Graphics/SVG/1.1/DTD/svg11.dtd">
<svg width="60pt" height="60pt" viewBox="0 0 60 60" version="1.1" xmlns="http://www.w3.org/2000/svg">
<g id="#ffffffff">
<path fill="#ffffff" opacity="1.00" d=" M 0.00 0.00 L 60.00 0.00 L 60.00 29.21 C 56.69 24.23 54.85 17.89 49.39 14.72 C 43.54 10.92 35.78 11.39 29.93 14.93 C 21.97 9.68 10.16 11.86 5.15 20.11 C 3.65 23.25 1.68 26.11 0.00 29.13 L 0.00 0.00 Z" />
<path fill="#ffffff" opacity="1.00" d=" M 7.01 25.08 C 8.82 19.68 14.39 15.91 20.06 16.04 C 21.64 15.96 22.25 17.63 21.90 18.94 C 20.74 19.83 19.27 20.19 18.10 21.06 C 17.41 22.92 19.27 24.55 21.07 23.89 C 24.24 23.41 25.95 20.29 26.32 17.36 C 28.90 19.17 31.56 21.22 32.67 24.29 C 33.32 26.22 34.23 28.07 36.02 29.18 C 35.98 31.56 33.43 32.67 32.98 34.93 C 31.05 40.67 24.91 44.49 18.92 43.93 C 13.63 43.57 8.66 39.91 6.98 34.84 C 6.54 32.60 3.96 31.54 3.98 29.17 C 5.43 28.17 6.54 26.80 7.01 25.08 M 13.19 28.18 C 10.81 29.15 12.44 32.89 14.81 31.90 C 17.18 30.88 15.53 27.00 13.19 28.18 M 25.16 28.12 C 22.82 29.15 24.48 33.01 26.84 31.81 C 29.19 30.79 27.51 27.09 25.16 28.12 M 14.81 36.13 C 15.93 38.01 17.54 40.08 19.97 40.00 C 22.42 40.12 24.02 38.01 25.21 36.17 C 21.75 35.91 18.27 35.93 14.81 36.13 Z" />
<path fill="#ffffff" opacity="1.00" d=" M 33.16 17.68 C 35.59 16.70 38.21 15.66 40.89 16.15 C 42.77 17.17 42.02 19.79 39.98 20.01 C 38.02 20.19 37.18 22.88 39.12 23.77 C 43.00 24.84 46.07 20.91 46.32 17.36 C 49.51 19.41 52.29 22.23 53.36 25.96 C 53.73 27.81 56.54 28.66 55.78 30.75 C 52.87 33.19 52.74 37.41 49.87 39.88 C 45.61 44.33 38.55 45.08 33.17 42.33 C 34.09 40.96 35.01 39.58 35.93 38.20 C 38.86 41.31 43.67 39.90 45.19 36.14 C 42.34 35.98 39.48 35.98 36.63 35.96 C 38.52 33.66 41.35 30.69 39.31 27.55 C 36.66 24.63 35.71 20.67 33.16 17.68 M 45.13 28.17 C 42.79 29.30 44.56 32.95 46.92 31.87 C 49.11 30.67 47.50 27.04 45.13 28.17 Z" />
<path fill="#ffffff" opacity="1.00" d=" M 0.00 30.76 C 1.60 33.87 3.67 36.72 5.17 39.90 C 10.19 48.16 21.99 50.30 29.95 45.07 C 35.77 48.60 43.50 49.08 49.32 45.30 C 54.83 42.19 56.62 35.79 60.00 30.86 L 60.00 60.00 L 0.00 60.00 L 0.00 30.76 Z" />
</g>
<g id="#000000ff">
<path fill="#000000" opacity="1.00" d=" M 5.15 20.11 C 10.16 11.86 21.97 9.68 29.93 14.93 C 35.78 11.39 43.54 10.92 49.39 14.72 C 54.85 17.89 56.69 24.23 60.00 29.21 L 60.00 30.86 C 56.62 35.79 54.83 42.19 49.32 45.30 C 43.50 49.08 35.77 48.60 29.95 45.07 C 21.99 50.30 10.19 48.16 5.17 39.90 C 3.67 36.72 1.60 33.87 0.00 30.76 L 0.00 29.13 C 1.68 26.11 3.65 23.25 5.15 20.11 M 7.01 25.08 C 6.54 26.80 5.43 28.17 3.98 29.17 C 3.96 31.54 6.54 32.60 6.98 34.84 C 8.66 39.91 13.63 43.57 18.92 43.93 C 24.91 44.49 31.05 40.67 32.98 34.93 C 33.43 32.67 35.98 31.56 36.02 29.18 C 34.23 28.07 33.32 26.22 32.67 24.29 C 31.56 21.22 28.90 19.17 26.32 17.36 C 25.95 20.29 24.24 23.41 21.07 23.89 C 19.27 24.55 17.41 22.92 18.10 21.06 C 19.27 20.19 20.74 19.83 21.90 18.94 C 22.25 17.63 21.64 15.96 20.06 16.04 C 14.39 15.91 8.82 19.68 7.01 25.08 M 33.16 17.68 C 35.71 20.67 36.66 24.63 39.31 27.55 C 41.35 30.69 38.52 33.66 36.63 35.96 C 39.48 35.98 42.34 35.98 45.19 36.14 C 43.67 39.90 38.86 41.31 35.93 38.20 C 35.01 39.58 34.09 40.96 33.17 42.33 C 38.55 45.08 45.61 44.33 49.87 39.88 C 52.74 37.41 52.87 33.19 55.78 30.75 C 56.54 28.66 53.73 27.81 53.36 25.96 C 52.29 22.23 49.51 19.41 46.32 17.36 C 46.07 20.91 43.00 24.84 39.12 23.77 C 37.18 22.88 38.02 20.19 39.98 20.01 C 42.02 19.79 42.77 17.17 40.89 16.15 C 38.21 15.66 35.59 16.70 33.16 17.68 Z" />
<path fill="#000000" opacity="1.00" d=" M 13.19 28.18 C 15.53 27.00 17.18 30.88 14.81 31.90 C 12.44 32.89 10.81 29.15 13.19 28.18 Z" />
<path fill="#000000" opacity="1.00" d=" M 25.16 28.12 C 27.51 27.09 29.19 30.79 26.84 31.81 C 24.48 33.01 22.82 29.15 25.16 28.12 Z" />
<path fill="#000000" opacity="1.00" d=" M 45.13 28.17 C 47.50 27.04 49.11 30.67 46.92 31.87 C 44.56 32.95 42.79 29.30 45.13 28.17 Z" />
<path fill="#000000" opacity="1.00" d=" M 14.81 36.13 C 18.27 35.93 21.75 35.91 25.21 36.17 C 24.02 38.01 22.42 40.12 19.97 40.00 C 17.54 40.08 15.93 38.01 14.81 36.13 Z" />
</g>
</svg>
