<?xml version="1.0" encoding="UTF-8" ?>
<!DOCTYPE svg PUBLIC "-//W3C//DTD SVG 1.1//EN" "http://www.w3.org/Graphics/SVG/1.1/DTD/svg11.dtd">
<svg width="64pt" height="64pt" viewBox="0 0 64 64" version="1.1" xmlns="http://www.w3.org/2000/svg">
<g id="#ffffffff">
<path fill="#ffffff" opacity="1.00" d=" M 0.00 0.00 L 64.00 0.00 L 64.00 64.00 L 0.00 64.00 L 0.00 0.00 M 10.05 10.01 C 6.72 14.11 7.80 20.30 11.61 23.70 C 10.09 25.15 8.34 26.45 7.42 28.40 C 5.34 32.20 6.14 36.70 6.01 40.85 C 7.32 42.21 8.68 43.53 10.00 44.89 C 10.00 49.26 10.00 53.63 10.00 58.00 C 11.33 58.00 12.67 58.00 14.00 58.00 C 13.99 54.67 14.01 51.33 14.00 48.00 C 16.67 48.00 19.33 48.00 22.00 48.00 C 21.99 51.33 22.01 54.67 22.00 58.00 C 23.33 58.00 24.67 58.00 26.00 58.00 C 26.00 53.63 25.99 49.26 26.01 44.89 C 27.33 43.53 28.68 42.21 30.00 40.85 C 29.86 36.70 30.66 32.19 28.57 28.39 C 27.65 26.45 25.90 25.15 24.39 23.70 C 28.21 20.30 29.28 14.09 25.94 10.00 C 22.30 4.75 13.67 4.77 10.05 10.01 M 38.05 10.00 C 34.59 14.24 35.86 20.63 39.90 24.03 C 38.61 25.70 37.14 27.33 36.63 29.44 C 35.00 34.94 33.55 40.48 31.99 46.00 C 34.66 45.99 37.33 46.01 40.00 46.00 C 39.99 50.00 40.00 54.00 40.00 58.00 C 41.33 58.00 42.67 58.00 44.00 58.00 C 43.99 54.00 44.00 50.00 44.00 46.00 C 45.33 46.00 46.67 46.00 48.00 46.00 C 48.00 50.00 48.00 54.00 48.00 58.00 C 49.33 58.00 50.67 58.00 52.00 58.00 C 51.99 54.00 52.00 50.00 52.00 46.00 C 54.67 46.01 57.34 45.99 60.01 46.00 C 58.38 40.35 56.99 34.62 55.15 29.03 C 54.61 27.10 53.21 25.65 52.04 24.09 C 56.10 20.71 57.43 14.31 53.97 10.04 C 50.35 4.76 41.70 4.75 38.05 10.00 Z" />
<path fill="#ffffff" opacity="1.00" d=" M 15.40 10.59 C 19.17 8.58 24.21 11.77 23.99 16.03 C 24.18 20.56 18.52 23.66 14.79 21.07 C 10.87 18.84 11.23 12.34 15.40 10.59 Z" />
<path fill="#ffffff" opacity="1.00" d=" M 43.40 10.59 C 47.15 8.59 52.16 11.73 51.99 15.97 C 52.22 20.50 46.61 23.64 42.86 21.11 C 38.88 18.92 39.20 12.36 43.40 10.59 Z" />
<path fill="#ffffff" opacity="1.00" d=" M 15.33 26.47 C 19.58 24.82 24.83 27.62 25.74 32.10 C 26.10 34.61 26.30 37.21 25.71 39.69 C 20.64 40.23 15.41 40.20 10.34 39.71 C 9.18 34.94 9.88 28.23 15.33 26.47 Z" />
<path fill="#ffffff" opacity="1.00" d=" M 41.13 29.04 C 42.72 25.29 48.46 24.98 50.48 28.51 C 52.73 32.67 53.14 37.56 54.69 42.00 C 48.90 42.00 43.10 42.00 37.31 42.00 C 38.67 37.71 39.43 33.22 41.13 29.04 Z" />
</g>
<g id="#000000ff">
<path fill="#000000" opacity="1.00" d=" M 10.05 10.01 C 13.67 4.77 22.30 4.75 25.94 10.00 C 29.28 14.09 28.21 20.30 24.39 23.70 C 25.90 25.15 27.65 26.45 28.57 28.39 C 30.66 32.19 29.86 36.70 30.00 40.85 C 28.68 42.21 27.33 43.53 26.01 44.89 C 25.99 49.26 26.00 53.63 26.00 58.00 C 24.67 58.00 23.33 58.00 22.00 58.00 C 22.01 54.67 21.99 51.33 22.00 48.00 C 19.33 48.00 16.67 48.00 14.00 48.00 C 14.01 51.33 13.99 54.67 14.00 58.00 C 12.67 58.00 11.33 58.00 10.00 58.00 C 10.00 53.63 10.00 49.26 10.00 44.89 C 8.68 43.53 7.32 42.21 6.01 40.85 C 6.14 36.70 5.34 32.20 7.42 28.40 C 8.34 26.45 10.09 25.15 11.61 23.70 C 7.80 20.30 6.72 14.11 10.05 10.01 M 15.40 10.59 C 11.23 12.34 10.87 18.84 14.79 21.07 C 18.52 23.66 24.18 20.56 23.99 16.03 C 24.21 11.77 19.17 8.58 15.40 10.59 M 15.33 26.47 C 9.88 28.23 9.18 34.94 10.34 39.71 C 15.41 40.20 20.64 40.23 25.71 39.69 C 26.30 37.21 26.10 34.61 25.74 32.10 C 24.83 27.62 19.58 24.82 15.33 26.47 Z" />
<path fill="#000000" opacity="1.00" d=" M 38.05 10.00 C 41.70 4.75 50.35 4.76 53.97 10.04 C 57.43 14.31 56.10 20.71 52.04 24.09 C 53.21 25.65 54.61 27.10 55.15 29.03 C 56.99 34.62 58.38 40.35 60.01 46.00 C 57.34 45.99 54.67 46.01 52.00 46.00 C 52.00 50.00 51.99 54.00 52.00 58.00 C 50.67 58.00 49.33 58.00 48.00 58.00 C 48.00 54.00 48.00 50.00 48.00 46.00 C 46.67 46.00 45.33 46.00 44.00 46.00 C 44.00 50.00 43.99 54.00 44.00 58.00 C 42.67 58.00 41.33 58.00 40.00 58.00 C 40.00 54.00 39.99 50.00 40.00 46.00 C 37.33 46.01 34.66 45.99 31.99 46.00 C 33.55 40.48 35.00 34.94 36.63 29.44 C 37.14 27.33 38.61 25.70 39.90 24.03 C 35.86 20.63 34.59 14.24 38.05 10.00 M 43.40 10.59 C 39.20 12.36 38.88 18.92 42.86 21.11 C 46.61 23.64 52.22 20.50 51.99 15.97 C 52.16 11.73 47.15 8.59 43.40 10.59 M 41.13 29.04 C 39.43 33.22 38.67 37.71 37.31 42.00 C 43.10 42.00 48.90 42.00 54.69 42.00 C 53.14 37.56 52.73 32.67 50.48 28.51 C 48.46 24.98 42.72 25.29 41.13 29.04 Z" />
</g>
</svg>
