<?xml version="1.0" encoding="UTF-8" ?>
<!DOCTYPE svg PUBLIC "-//W3C//DTD SVG 1.1//EN" "http://www.w3.org/Graphics/SVG/1.1/DTD/svg11.dtd">
<svg width="64pt" height="64pt" viewBox="0 0 64 64" version="1.1" xmlns="http://www.w3.org/2000/svg">
<g id="#ffffffff">
<path fill="#ffffff" opacity="1.00" d=" M 0.00 0.00 L 64.00 0.00 L 64.00 64.00 L 0.00 64.00 L 0.00 0.00 M 44.48 12.91 C 41.54 11.53 37.62 11.72 35.53 14.48 C 33.39 16.77 34.96 20.84 31.90 22.51 C 30.72 20.51 30.10 18.27 29.71 15.99 C 28.67 17.87 26.90 19.67 27.22 22.00 C 27.14 24.21 28.56 26.72 27.08 28.70 C 26.01 30.70 22.34 30.35 22.07 27.96 C 22.16 25.70 22.36 23.43 21.79 21.20 C 21.41 21.96 20.65 23.47 20.26 24.23 C 18.69 23.85 16.94 23.33 16.31 21.65 C 15.19 18.95 16.97 16.29 17.85 13.80 C 15.08 15.76 11.89 18.27 12.01 22.03 C 12.61 27.68 17.94 31.11 19.81 36.21 C 20.74 38.67 17.53 41.18 15.42 39.48 C 13.48 38.33 13.76 35.82 13.56 33.90 C 12.22 35.44 10.39 36.82 10.17 39.01 C 9.72 42.71 12.57 46.11 11.68 49.84 C 11.31 51.80 9.49 52.87 8.12 54.11 C 8.05 55.42 7.98 56.73 7.90 58.04 C 17.38 58.03 27.01 56.62 35.74 52.77 C 43.91 49.20 51.07 42.68 54.02 34.11 C 55.62 28.90 56.89 23.06 55.14 17.74 C 54.18 14.76 51.02 13.73 48.15 13.91 C 49.84 11.12 52.90 10.06 56.00 9.84 C 55.99 8.52 55.99 7.20 55.98 5.88 C 51.23 6.01 46.20 8.15 44.48 12.91 Z" />
<path fill="#ffffff" opacity="1.00" d=" M 38.43 17.28 C 40.53 14.21 43.90 17.27 44.24 20.00 C 45.36 19.99 46.48 19.98 47.60 19.97 C 48.25 18.60 49.47 17.89 50.97 17.87 C 53.68 26.57 50.14 36.57 43.73 42.79 C 35.66 50.42 24.31 52.72 13.65 54.04 C 24.15 50.29 32.19 41.36 35.64 30.86 C 37.48 26.54 37.49 21.80 38.43 17.28 Z" />
</g>
<g id="#000000ff">
<path fill="#000000" opacity="1.00" d=" M 44.48 12.91 C 46.20 8.15 51.23 6.01 55.98 5.88 C 55.99 7.20 55.99 8.52 56.00 9.84 C 52.90 10.06 49.84 11.12 48.15 13.91 C 51.02 13.73 54.18 14.76 55.14 17.74 C 56.89 23.06 55.62 28.90 54.02 34.11 C 51.07 42.68 43.91 49.20 35.74 52.77 C 27.01 56.62 17.38 58.03 7.90 58.04 C 7.98 56.73 8.05 55.42 8.12 54.11 C 9.49 52.87 11.31 51.80 11.68 49.84 C 12.57 46.11 9.72 42.71 10.17 39.01 C 10.39 36.82 12.22 35.44 13.56 33.90 C 13.76 35.82 13.48 38.33 15.42 39.48 C 17.53 41.18 20.74 38.67 19.81 36.21 C 17.94 31.11 12.61 27.68 12.01 22.03 C 11.89 18.27 15.08 15.76 17.85 13.80 C 16.97 16.29 15.19 18.95 16.31 21.65 C 16.94 23.33 18.69 23.85 20.26 24.23 C 20.65 23.47 21.41 21.96 21.79 21.20 C 22.36 23.43 22.16 25.70 22.07 27.96 C 22.34 30.35 26.01 30.70 27.08 28.70 C 28.56 26.72 27.14 24.21 27.22 22.00 C 26.90 19.67 28.67 17.87 29.71 15.99 C 30.10 18.27 30.72 20.51 31.90 22.51 C 34.96 20.84 33.39 16.77 35.53 14.48 C 37.62 11.72 41.54 11.53 44.48 12.91 M 38.43 17.28 C 37.49 21.80 37.48 26.54 35.64 30.86 C 32.19 41.36 24.15 50.29 13.65 54.04 C 24.31 52.72 35.66 50.42 43.73 42.79 C 50.14 36.57 53.68 26.57 50.97 17.87 C 49.47 17.89 48.25 18.60 47.60 19.97 C 46.48 19.98 45.36 19.99 44.24 20.00 C 43.90 17.27 40.53 14.21 38.43 17.28 Z" />
</g>
</svg>
