<?xml version="1.0" encoding="UTF-8" ?>
<!DOCTYPE svg PUBLIC "-//W3C//DTD SVG 1.1//EN" "http://www.w3.org/Graphics/SVG/1.1/DTD/svg11.dtd">
<svg width="60pt" height="60pt" viewBox="0 0 60 60" version="1.1" xmlns="http://www.w3.org/2000/svg">
<g id="#ffffffff">
<path fill="#ffffff" opacity="1.00" d=" M 0.00 0.00 L 60.00 0.00 L 60.00 60.00 L 0.00 60.00 L 0.00 0.00 M 24.52 8.64 C 17.61 10.24 11.54 15.08 8.45 21.46 C 5.09 28.21 5.22 36.55 8.79 43.19 C 12.33 49.95 19.25 54.82 26.83 55.77 C 33.67 56.72 40.87 54.51 45.97 49.86 C 51.53 44.95 54.59 37.36 53.89 29.97 C 53.39 23.67 50.24 17.65 45.39 13.62 C 39.74 8.77 31.74 6.93 24.52 8.64 Z" />
<path fill="#ffffff" opacity="1.00" d=" M 36.22 22.34 C 36.78 19.36 37.14 16.34 37.33 13.31 C 45.47 16.60 50.63 25.17 50.09 33.89 C 47.42 30.91 44.03 28.78 40.37 27.26 C 39.25 25.40 38.27 23.37 36.22 22.34 Z" />
<path fill="#ffffff" opacity="1.00" d=" M 10.50 36.72 C 8.28 27.55 13.23 17.56 21.81 13.70 C 25.03 16.44 27.87 19.61 30.23 23.13 C 29.32 24.37 28.53 25.69 27.88 27.09 C 21.25 28.42 15.11 31.77 10.50 36.72 Z" />
<path fill="#ffffff" opacity="1.00" d=" M 33.18 26.18 C 35.49 24.95 37.27 28.97 34.78 29.81 C 32.52 31.06 30.76 27.06 33.18 26.18 Z" />
<path fill="#ffffff" opacity="1.00" d=" M 22.49 50.61 C 26.22 45.36 29.53 39.79 32.00 33.83 C 33.63 33.98 35.26 33.76 36.86 33.46 C 39.30 38.01 40.93 42.94 42.12 47.95 C 36.52 52.05 28.98 53.11 22.49 50.61 Z" />
</g>
<g id="#000000ff">
<path fill="#968176" opacity="1.00" d=" M 24.52 8.64 C 31.74 6.93 39.74 8.77 45.39 13.62 C 50.24 17.65 53.39 23.67 53.89 29.97 C 54.59 37.36 51.53 44.95 45.97 49.86 C 40.87 54.51 33.67 56.72 26.83 55.77 C 19.25 54.82 12.33 49.95 8.79 43.19 C 5.22 36.55 5.09 28.21 8.45 21.46 C 11.54 15.08 17.61 10.24 24.52 8.64 M 36.22 22.34 C 38.27 23.37 39.25 25.40 40.37 27.26 C 44.03 28.78 47.42 30.91 50.09 33.89 C 50.63 25.17 45.47 16.60 37.33 13.31 C 37.14 16.34 36.78 19.36 36.22 22.34 M 10.50 36.72 C 15.11 31.77 21.25 28.42 27.88 27.09 C 28.53 25.69 29.32 24.37 30.23 23.13 C 27.87 19.61 25.03 16.44 21.81 13.70 C 13.23 17.56 8.28 27.55 10.50 36.72 M 33.18 26.18 C 30.76 27.06 32.52 31.06 34.78 29.81 C 37.27 28.97 35.49 24.95 33.18 26.18 M 22.49 50.61 C 28.98 53.11 36.52 52.05 42.12 47.95 C 40.93 42.94 39.30 38.01 36.86 33.46 C 35.26 33.76 33.63 33.98 32.00 33.83 C 29.53 39.79 26.22 45.36 22.49 50.61 Z" />
</g>
</svg>
