<?xml version="1.0" encoding="UTF-8" ?>
<!DOCTYPE svg PUBLIC "-//W3C//DTD SVG 1.1//EN" "http://www.w3.org/Graphics/SVG/1.1/DTD/svg11.dtd">
<svg width="137pt" height="115pt" viewBox="0 0 137 115" version="1.1" xmlns="http://www.w3.org/2000/svg">
<g id="#fffffff">
<path fill="#ffffff" opacity="1.00" d=" M 0.00 0.00 L 137.00 0.00 L 137.00 115.00 L 0.00 115.00 L 0.00 0.00 M 17.03 27.80 C 18.18 33.42 20.72 38.77 24.66 42.99 C 23.75 43.87 22.82 44.73 21.93 45.63 C 24.64 47.25 27.42 48.97 29.33 51.54 C 29.28 56.08 33.43 58.58 35.97 61.79 C 36.42 61.57 37.31 61.12 37.75 60.89 C 33.25 56.05 30.47 49.90 28.10 43.81 C 27.56 41.11 25.63 39.12 24.02 37.02 C 22.50 35.36 23.32 32.94 23.13 30.92 C 26.06 31.85 28.33 33.89 28.91 37.00 C 29.94 42.30 35.07 44.99 37.41 49.54 C 39.81 55.65 46.27 58.82 49.01 64.76 C 50.67 67.26 49.57 70.21 49.08 72.87 C 51.14 74.83 53.20 76.84 55.62 78.35 C 57.92 79.44 60.42 80.06 62.62 81.37 C 66.80 83.82 71.77 84.44 75.87 87.08 C 79.42 88.93 82.36 84.58 85.81 85.06 C 88.47 86.37 90.42 88.76 93.16 89.96 C 93.37 88.41 93.57 86.86 93.85 85.32 C 95.48 85.02 97.12 84.70 98.74 84.32 C 97.62 82.89 96.49 81.46 95.38 80.01 C 97.76 77.76 101.52 79.24 103.82 76.83 C 107.86 74.67 107.87 69.40 107.81 65.38 C 104.29 65.26 100.87 66.22 97.69 67.66 C 95.82 69.75 96.80 72.99 95.26 75.31 C 92.00 77.38 87.98 77.89 84.19 77.85 C 80.64 76.22 77.27 73.68 76.05 69.80 C 73.07 64.66 72.43 58.19 74.61 52.64 C 72.81 51.79 70.52 51.36 69.49 49.46 C 67.45 45.96 65.18 42.54 62.44 39.54 C 59.28 37.42 57.62 43.21 54.87 41.18 C 52.81 38.17 51.31 34.54 47.88 32.76 C 44.53 31.71 41.34 33.73 37.99 33.46 C 30.36 34.01 24.80 25.95 17.03 27.80 Z" />
</g>
<g id="#000000ff">
<path fill="#968176" opacity="1.00" d=" M 17.03 27.80 C 24.80 25.95 30.36 34.01 37.99 33.46 C 41.34 33.73 44.53 31.71 47.88 32.76 C 51.31 34.54 52.81 38.17 54.87 41.18 C 57.62 43.21 59.28 37.42 62.44 39.54 C 65.18 42.54 67.45 45.96 69.49 49.46 C 70.52 51.36 72.81 51.79 74.61 52.64 C 72.43 58.19 73.07 64.66 76.05 69.80 C 77.27 73.68 80.64 76.22 84.19 77.85 C 87.98 77.89 92.00 77.38 95.26 75.31 C 96.80 72.99 95.82 69.75 97.69 67.66 C 100.87 66.22 104.29 65.26 107.81 65.38 C 107.87 69.40 107.86 74.67 103.82 76.83 C 101.52 79.24 97.76 77.76 95.38 80.01 C 96.49 81.46 97.62 82.89 98.74 84.32 C 97.12 84.70 95.48 85.02 93.85 85.32 C 93.57 86.86 93.37 88.41 93.16 89.96 C 90.42 88.76 88.47 86.37 85.81 85.06 C 82.36 84.58 79.42 88.93 75.87 87.08 C 71.77 84.44 66.80 83.82 62.62 81.37 C 60.42 80.06 57.92 79.44 55.62 78.35 C 53.20 76.84 51.14 74.83 49.08 72.87 C 49.57 70.21 50.67 67.26 49.01 64.76 C 46.27 58.82 39.81 55.65 37.41 49.54 C 35.07 44.99 29.94 42.30 28.91 37.00 C 28.33 33.89 26.06 31.85 23.13 30.92 C 23.32 32.94 22.50 35.36 24.02 37.02 C 25.63 39.12 27.56 41.11 28.10 43.81 C 30.47 49.90 33.25 56.05 37.75 60.89 C 37.31 61.12 36.42 61.57 35.97 61.79 C 33.43 58.58 29.28 56.08 29.33 51.54 C 27.42 48.97 24.64 47.25 21.93 45.63 C 22.82 44.73 23.75 43.87 24.66 42.99 C 20.72 38.77 18.18 33.42 17.03 27.80 Z" />
</g>
</svg>
