<?xml version="1.0" encoding="UTF-8" ?>
<!DOCTYPE svg PUBLIC "-//W3C//DTD SVG 1.1//EN" "http://www.w3.org/Graphics/SVG/1.1/DTD/svg11.dtd">
<svg width="60pt" height="60pt" viewBox="0 0 60 60" version="1.1" xmlns="http://www.w3.org/2000/svg">
<g id="#ffffffff">
<path fill="#ffffff" opacity="1.00" d=" M 0.00 0.00 L 60.00 0.00 L 60.00 60.00 L 0.00 60.00 L 0.00 0.00 M 14.67 15.46 C 13.32 21.53 14.30 27.83 13.99 33.99 C 14.31 37.19 12.77 41.81 16.37 43.62 C 19.49 44.43 22.81 43.85 26.01 43.99 C 26.04 46.99 25.83 50.00 26.14 52.98 C 26.83 56.50 32.22 57.04 33.58 53.70 C 34.45 50.57 33.84 47.21 33.99 43.99 C 36.69 43.99 39.40 44.09 42.09 43.95 C 44.15 43.98 46.02 42.08 45.95 40.02 C 46.11 35.02 45.93 30.02 46.01 25.02 C 45.97 21.37 46.30 17.55 44.86 14.10 C 42.26 7.56 34.97 2.94 27.90 4.26 C 21.83 5.08 16.44 9.58 14.67 15.46 Z" />
<path fill="#ffffff" opacity="1.00" d=" M 18.11 18.89 C 18.46 12.50 24.76 7.32 31.09 8.09 C 37.07 8.44 42.05 13.95 41.96 19.91 C 42.08 26.61 41.96 33.30 42.00 40.00 C 34.00 40.00 26.00 40.00 18.00 40.00 C 18.08 32.96 17.84 25.92 18.11 18.89 M 25.21 14.09 C 22.85 15.16 24.40 18.87 26.82 17.90 C 29.11 16.79 27.61 13.18 25.21 14.09 Z" />
</g>
<g id="#000000ff">
<path fill="#968176" opacity="1.00" d=" M 14.67 15.46 C 16.44 9.58 21.83 5.08 27.90 4.26 C 34.97 2.94 42.26 7.56 44.86 14.10 C 46.30 17.55 45.97 21.37 46.01 25.02 C 45.93 30.02 46.11 35.02 45.95 40.02 C 46.02 42.08 44.15 43.98 42.09 43.95 C 39.40 44.09 36.69 43.99 33.99 43.99 C 33.84 47.21 34.45 50.57 33.58 53.70 C 32.22 57.04 26.83 56.50 26.14 52.98 C 25.83 50.00 26.04 46.99 26.01 43.99 C 22.81 43.85 19.49 44.43 16.37 43.62 C 12.77 41.81 14.31 37.19 13.99 33.99 C 14.30 27.83 13.32 21.53 14.67 15.46 M 18.11 18.89 C 17.84 25.92 18.08 32.96 18.00 40.00 C 26.00 40.00 34.00 40.00 42.00 40.00 C 41.96 33.30 42.08 26.61 41.96 19.91 C 42.05 13.95 37.07 8.44 31.09 8.09 C 24.76 7.32 18.46 12.50 18.11 18.89 Z" />
<path fill="#968176" opacity="1.00" d=" M 25.21 14.09 C 27.61 13.18 29.11 16.79 26.82 17.90 C 24.40 18.87 22.85 15.16 25.21 14.09 Z" />
</g>
</svg>
