<?xml version="1.0" encoding="UTF-8" ?>
<!DOCTYPE svg PUBLIC "-//W3C//DTD SVG 1.1//EN" "http://www.w3.org/Graphics/SVG/1.1/DTD/svg11.dtd">
<svg width="60pt" height="60pt" viewBox="0 0 60 60" version="1.1" xmlns="http://www.w3.org/2000/svg">
<g id="#ffffffff">
<path fill="#ffffff" opacity="1.00" d=" M 0.00 0.00 L 60.00 0.00 L 60.00 60.00 L 0.00 60.00 L 0.00 0.00 M 12.04 7.89 C 11.93 14.59 12.04 21.30 12.00 28.00 C 13.33 28.00 14.67 28.00 16.00 28.00 C 16.00 26.67 16.00 25.33 16.00 24.00 C 17.33 24.00 18.67 24.00 20.00 24.00 C 20.00 25.33 20.00 26.67 20.00 28.00 C 21.33 28.00 22.67 28.00 24.00 28.00 C 24.00 26.67 24.00 25.33 24.00 24.00 C 25.33 24.00 26.67 24.00 28.00 24.00 C 28.00 25.33 28.00 26.67 28.00 28.00 C 29.33 28.00 30.67 28.00 32.00 28.00 C 32.00 26.67 32.00 25.33 32.00 24.00 C 33.33 24.00 34.67 24.00 36.00 24.00 C 36.00 25.33 36.00 26.67 36.00 28.00 C 37.33 28.00 38.67 28.00 40.00 28.00 C 40.00 26.67 40.00 25.33 40.00 24.00 C 41.33 24.00 42.67 24.00 44.00 24.00 C 44.00 25.33 44.00 26.67 44.00 28.00 C 45.33 28.00 46.67 28.00 48.00 28.00 C 47.96 21.27 48.08 14.54 47.95 7.82 C 47.93 5.82 46.11 3.94 44.07 4.04 C 34.69 3.97 25.31 3.97 15.94 4.04 C 13.90 3.98 12.01 5.85 12.04 7.89 M 11.09 32.17 C 10.86 32.41 10.40 32.89 10.17 33.13 C 9.80 39.43 10.04 45.77 10.04 52.08 C 9.94 54.15 11.87 55.97 13.89 55.96 C 24.26 56.06 34.62 55.97 44.99 56.00 C 47.33 56.38 49.95 54.67 49.95 52.17 C 49.97 45.84 50.18 39.49 49.84 33.18 C 48.61 31.21 45.85 32.17 43.93 32.06 C 40.16 32.09 40.53 37.78 36.96 37.97 C 33.33 36.59 30.82 33.06 27.05 32.08 C 21.73 31.98 16.39 31.83 11.09 32.17 Z" />
<path fill="#ffffff" opacity="1.00" d=" M 16.00 8.00 C 17.33 8.00 18.67 8.00 20.00 8.00 C 20.00 9.33 20.00 10.67 20.00 12.00 C 18.67 12.00 17.33 12.00 16.00 12.00 C 16.00 10.67 16.00 9.33 16.00 8.00 Z" />
<path fill="#ffffff" opacity="1.00" d=" M 24.00 8.00 C 25.33 8.00 26.67 8.00 28.00 8.00 C 28.00 9.33 28.00 10.67 28.00 12.00 C 26.67 12.00 25.33 12.00 24.00 12.00 C 24.00 10.67 24.00 9.33 24.00 8.00 Z" />
<path fill="#ffffff" opacity="1.00" d=" M 32.00 8.00 C 33.33 8.00 34.67 8.00 36.00 8.00 C 36.00 9.33 36.00 10.67 36.00 12.00 C 34.67 12.00 33.33 12.00 32.00 12.00 C 32.00 10.67 32.00 9.33 32.00 8.00 Z" />
<path fill="#ffffff" opacity="1.00" d=" M 40.00 8.00 C 41.33 8.00 42.67 8.00 44.00 8.00 C 44.00 9.33 44.00 10.67 44.00 12.00 C 42.67 12.00 41.33 12.00 40.00 12.00 C 40.00 10.67 40.00 9.33 40.00 8.00 Z" />
<path fill="#ffffff" opacity="1.00" d=" M 16.00 16.00 C 17.33 16.00 18.67 16.00 20.00 16.00 C 20.00 17.33 20.00 18.67 20.00 20.00 C 18.67 20.00 17.33 20.00 16.00 20.00 C 16.00 18.67 16.00 17.33 16.00 16.00 Z" />
<path fill="#ffffff" opacity="1.00" d=" M 24.00 16.00 C 25.33 16.00 26.67 16.00 28.00 16.00 C 28.00 17.33 28.00 18.67 28.00 20.00 C 26.67 20.00 25.33 20.00 24.00 20.00 C 24.00 18.67 24.00 17.33 24.00 16.00 Z" />
<path fill="#ffffff" opacity="1.00" d=" M 32.00 16.00 C 33.33 16.00 34.67 16.00 36.00 16.00 C 36.00 17.33 36.00 18.67 36.00 20.00 C 34.67 20.00 33.33 20.00 32.00 20.00 C 32.00 18.67 32.00 17.33 32.00 16.00 Z" />
<path fill="#ffffff" opacity="1.00" d=" M 40.00 16.00 C 41.33 16.00 42.67 16.00 44.00 16.00 C 44.00 17.33 44.00 18.67 44.00 20.00 C 42.67 20.00 41.33 20.00 40.00 20.00 C 40.00 18.67 40.00 17.33 40.00 16.00 Z" />
</g>
<g id="#000000ff">
<path fill="#000000" opacity="1.00" d=" M 12.04 7.89 C 12.01 5.85 13.90 3.98 15.94 4.04 C 25.31 3.97 34.69 3.97 44.07 4.04 C 46.11 3.94 47.93 5.82 47.95 7.82 C 48.08 14.54 47.96 21.27 48.00 28.00 C 46.67 28.00 45.33 28.00 44.00 28.00 C 44.00 26.67 44.00 25.33 44.00 24.00 C 42.67 24.00 41.33 24.00 40.00 24.00 C 40.00 25.33 40.00 26.67 40.00 28.00 C 38.67 28.00 37.33 28.00 36.00 28.00 C 36.00 26.67 36.00 25.33 36.00 24.00 C 34.67 24.00 33.33 24.00 32.00 24.00 C 32.00 25.33 32.00 26.67 32.00 28.00 C 30.67 28.00 29.33 28.00 28.00 28.00 C 28.00 26.67 28.00 25.33 28.00 24.00 C 26.67 24.00 25.33 24.00 24.00 24.00 C 24.00 25.33 24.00 26.67 24.00 28.00 C 22.67 28.00 21.33 28.00 20.00 28.00 C 20.00 26.67 20.00 25.33 20.00 24.00 C 18.67 24.00 17.33 24.00 16.00 24.00 C 16.00 25.33 16.00 26.67 16.00 28.00 C 14.67 28.00 13.33 28.00 12.00 28.00 C 12.04 21.30 11.93 14.59 12.04 7.89 M 16.00 8.00 C 16.00 9.33 16.00 10.67 16.00 12.00 C 17.33 12.00 18.67 12.00 20.00 12.00 C 20.00 10.67 20.00 9.33 20.00 8.00 C 18.67 8.00 17.33 8.00 16.00 8.00 M 24.00 8.00 C 24.00 9.33 24.00 10.67 24.00 12.00 C 25.33 12.00 26.67 12.00 28.00 12.00 C 28.00 10.67 28.00 9.33 28.00 8.00 C 26.67 8.00 25.33 8.00 24.00 8.00 M 32.00 8.00 C 32.00 9.33 32.00 10.67 32.00 12.00 C 33.33 12.00 34.67 12.00 36.00 12.00 C 36.00 10.67 36.00 9.33 36.00 8.00 C 34.67 8.00 33.33 8.00 32.00 8.00 M 40.00 8.00 C 40.00 9.33 40.00 10.67 40.00 12.00 C 41.33 12.00 42.67 12.00 44.00 12.00 C 44.00 10.67 44.00 9.33 44.00 8.00 C 42.67 8.00 41.33 8.00 40.00 8.00 M 16.00 16.00 C 16.00 17.33 16.00 18.67 16.00 20.00 C 17.33 20.00 18.67 20.00 20.00 20.00 C 20.00 18.67 20.00 17.33 20.00 16.00 C 18.67 16.00 17.33 16.00 16.00 16.00 M 24.00 16.00 C 24.00 17.33 24.00 18.67 24.00 20.00 C 25.33 20.00 26.67 20.00 28.00 20.00 C 28.00 18.67 28.00 17.33 28.00 16.00 C 26.67 16.00 25.33 16.00 24.00 16.00 M 32.00 16.00 C 32.00 17.33 32.00 18.67 32.00 20.00 C 33.33 20.00 34.67 20.00 36.00 20.00 C 36.00 18.67 36.00 17.33 36.00 16.00 C 34.67 16.00 33.33 16.00 32.00 16.00 M 40.00 16.00 C 40.00 17.33 40.00 18.67 40.00 20.00 C 41.33 20.00 42.67 20.00 44.00 20.00 C 44.00 18.67 44.00 17.33 44.00 16.00 C 42.67 16.00 41.33 16.00 40.00 16.00 Z" />
<path fill="#000000" opacity="1.00" d=" M 11.09 32.17 C 16.39 31.83 21.73 31.98 27.05 32.08 C 30.82 33.06 33.33 36.59 36.96 37.97 C 40.53 37.78 40.16 32.09 43.93 32.06 C 45.85 32.17 48.61 31.21 49.84 33.18 C 50.18 39.49 49.97 45.84 49.95 52.17 C 49.95 54.67 47.33 56.38 44.99 56.00 C 34.62 55.97 24.26 56.06 13.89 55.96 C 11.87 55.97 9.94 54.15 10.04 52.08 C 10.04 45.77 9.80 39.43 10.17 33.13 C 10.40 32.89 10.86 32.41 11.09 32.17 Z" />
</g>
</svg>
