<?xml version="1.0" encoding="UTF-8" ?>
<!DOCTYPE svg PUBLIC "-//W3C//DTD SVG 1.1//EN" "http://www.w3.org/Graphics/SVG/1.1/DTD/svg11.dtd">
<svg width="60pt" height="60pt" viewBox="0 0 60 60" version="1.1" xmlns="http://www.w3.org/2000/svg">
<g id="#ffffffff">
<path fill="#ffffff" opacity="1.00" d=" M 0.00 0.00 L 60.00 0.00 L 60.00 41.32 C 59.08 40.70 58.15 40.12 57.20 39.56 C 52.90 30.21 48.95 20.70 44.75 11.31 C 43.52 7.19 38.08 7.30 34.90 8.77 C 32.34 11.68 31.25 15.56 29.35 18.90 C 27.69 15.53 27.41 11.20 24.55 8.59 C 21.66 7.55 17.03 7.18 15.52 10.57 C 11.86 17.55 8.53 24.72 4.86 31.70 C 2.81 32.11 0.82 32.92 0.00 35.01 L 0.00 0.00 Z" />
<path fill="#ffffff" opacity="1.00" d=" M 10.54 29.39 C 13.19 24.14 15.80 18.86 18.45 13.60 C 19.64 23.08 20.82 32.56 22.00 42.04 C 16.14 42.64 11.60 38.17 6.40 36.24 C 8.43 34.41 9.31 31.76 10.54 29.39 Z" />
<path fill="#ffffff" opacity="1.00" d=" M 31.26 24.03 C 33.09 20.35 34.91 16.67 36.75 13.00 C 39.17 22.67 41.59 32.33 44.00 42.00 C 42.00 41.99 40.00 41.99 38.00 42.01 C 35.76 36.01 33.51 30.02 31.26 24.03 Z" />
<path fill="#ffffff" opacity="1.00" d=" M 0.00 39.48 C 0.88 42.36 3.99 43.31 6.30 44.75 C 10.40 46.74 14.06 50.40 18.94 50.02 C 31.30 49.92 43.67 50.11 56.03 49.94 C 57.95 50.06 59.10 48.45 60.00 47.01 L 60.00 60.00 L 0.00 60.00 L 0.00 39.48 Z" />
</g>
<g id="#000000ff">
<path fill="#000000" opacity="1.00" d=" M 15.52 10.57 C 17.03 7.18 21.66 7.55 24.55 8.59 C 27.41 11.20 27.69 15.53 29.35 18.90 C 31.25 15.56 32.34 11.68 34.90 8.77 C 38.08 7.30 43.52 7.19 44.75 11.31 C 48.95 20.70 52.90 30.21 57.20 39.56 C 58.15 40.12 59.08 40.70 60.00 41.32 L 60.00 47.01 C 59.10 48.45 57.95 50.06 56.03 49.94 C 43.67 50.11 31.30 49.92 18.94 50.02 C 14.06 50.40 10.40 46.74 6.30 44.75 C 3.99 43.31 0.88 42.36 0.00 39.48 L 0.00 35.01 C 0.82 32.92 2.81 32.11 4.86 31.70 C 8.53 24.72 11.86 17.55 15.52 10.57 M 10.54 29.39 C 9.31 31.76 8.43 34.41 6.40 36.24 C 11.60 38.17 16.14 42.64 22.00 42.04 C 20.82 32.56 19.64 23.08 18.45 13.60 C 15.80 18.86 13.19 24.14 10.54 29.39 M 31.26 24.03 C 33.51 30.02 35.76 36.01 38.00 42.01 C 40.00 41.99 42.00 41.99 44.00 42.00 C 41.59 32.33 39.17 22.67 36.75 13.00 C 34.91 16.67 33.09 20.35 31.26 24.03 Z" />
</g>
</svg>
