<?xml version="1.0" encoding="UTF-8" ?>
<!DOCTYPE svg PUBLIC "-//W3C//DTD SVG 1.1//EN" "http://www.w3.org/Graphics/SVG/1.1/DTD/svg11.dtd">
<svg width="64pt" height="64pt" viewBox="0 0 64 64" version="1.1" xmlns="http://www.w3.org/2000/svg">
<g id="#ffffffff">
<path fill="#ffffff" opacity="1.00" d=" M 0.00 0.00 L 64.00 0.00 L 64.00 64.00 L 0.00 64.00 L 0.00 0.00 M 16.00 6.00 C 16.00 23.33 16.00 40.67 16.00 58.00 C 26.67 58.00 37.33 58.00 48.00 58.00 C 48.00 51.00 48.00 44.00 48.00 37.00 C 38.67 34.92 29.41 32.51 20.01 30.75 C 20.00 28.50 20.00 26.25 20.00 24.00 C 23.33 24.00 26.67 24.00 30.00 24.00 C 30.00 25.66 30.00 27.31 30.00 28.96 C 31.33 29.26 32.66 29.57 33.99 29.88 C 34.00 27.92 34.00 25.96 34.00 24.00 C 37.33 24.00 40.67 24.00 44.00 24.00 C 43.99 26.71 44.00 29.42 44.00 32.13 C 45.33 32.43 46.67 32.73 48.00 33.03 C 48.00 24.02 48.00 15.01 48.00 6.00 C 37.33 6.00 26.67 6.00 16.00 6.00 Z" />
<path fill="#ffffff" opacity="1.00" d=" M 20.00 10.00 C 23.33 10.00 26.67 10.00 30.00 10.00 C 30.00 13.33 30.00 16.67 30.00 20.00 C 26.67 20.00 23.33 20.00 20.00 20.00 C 20.00 16.67 20.00 13.33 20.00 10.00 Z" />
<path fill="#ffffff" opacity="1.00" d=" M 34.00 10.00 C 37.33 10.00 40.67 10.00 44.00 10.00 C 44.00 13.33 44.00 16.67 44.00 20.00 C 40.67 20.00 37.33 20.00 34.00 20.00 C 34.00 16.67 34.00 13.33 34.00 10.00 Z" />
<path fill="#ffffff" opacity="1.00" d=" M 24.60 35.74 C 29.89 36.84 35.21 37.75 40.47 39.00 C 37.19 39.98 33.88 40.84 30.59 41.75 C 28.59 39.75 26.58 37.75 24.60 35.74 Z" />
<path fill="#ffffff" opacity="1.00" d=" M 20.00 36.81 C 23.13 39.96 26.27 43.10 29.42 46.23 C 34.29 44.93 39.15 43.58 43.99 42.16 C 44.01 46.11 44.00 50.05 44.00 54.00 C 36.00 54.00 28.00 54.00 20.00 54.00 C 20.00 48.27 20.00 42.54 20.00 36.81 Z" />
</g>
<g id="#000000ff">
<path fill="#000000" opacity="1.00" d=" M 16.00 6.00 C 26.67 6.00 37.33 6.00 48.00 6.00 C 48.00 15.01 48.00 24.02 48.00 33.03 C 46.67 32.73 45.33 32.43 44.00 32.13 C 44.00 29.42 43.99 26.71 44.00 24.00 C 40.67 24.00 37.33 24.00 34.00 24.00 C 34.00 25.96 34.00 27.92 33.99 29.88 C 32.66 29.57 31.33 29.26 30.00 28.96 C 30.00 27.31 30.00 25.66 30.00 24.00 C 26.67 24.00 23.33 24.00 20.00 24.00 C 20.00 26.25 20.00 28.50 20.01 30.75 C 29.41 32.51 38.67 34.92 48.00 37.00 C 48.00 44.00 48.00 51.00 48.00 58.00 C 37.33 58.00 26.67 58.00 16.00 58.00 C 16.00 40.67 16.00 23.33 16.00 6.00 M 20.00 10.00 C 20.00 13.33 20.00 16.67 20.00 20.00 C 23.33 20.00 26.67 20.00 30.00 20.00 C 30.00 16.67 30.00 13.33 30.00 10.00 C 26.67 10.00 23.33 10.00 20.00 10.00 M 34.00 10.00 C 34.00 13.33 34.00 16.67 34.00 20.00 C 37.33 20.00 40.67 20.00 44.00 20.00 C 44.00 16.67 44.00 13.33 44.00 10.00 C 40.67 10.00 37.33 10.00 34.00 10.00 M 24.60 35.74 C 26.58 37.75 28.59 39.75 30.59 41.75 C 33.88 40.84 37.19 39.98 40.47 39.00 C 35.21 37.75 29.89 36.84 24.60 35.74 M 20.00 36.81 C 20.00 42.54 20.00 48.27 20.00 54.00 C 28.00 54.00 36.00 54.00 44.00 54.00 C 44.00 50.05 44.01 46.11 43.99 42.16 C 39.15 43.58 34.29 44.93 29.42 46.23 C 26.27 43.10 23.13 39.96 20.00 36.81 Z" />
</g>
</svg>
