<?xml version="1.0" encoding="UTF-8" ?>
<!DOCTYPE svg PUBLIC "-//W3C//DTD SVG 1.1//EN" "http://www.w3.org/Graphics/SVG/1.1/DTD/svg11.dtd">
<svg width="60pt" height="60pt" viewBox="0 0 60 60" version="1.1" xmlns="http://www.w3.org/2000/svg">
<g id="#ffffffff">
<path fill="#ffffff" opacity="1.00" d=" M 0.00 0.00 L 60.00 0.00 L 60.00 60.00 L 0.00 60.00 L 0.00 0.00 M 12.04 7.80 C 11.93 14.53 12.04 21.27 12.00 28.00 C 13.33 28.00 14.67 28.00 16.00 28.00 C 16.00 26.67 16.00 25.33 16.00 24.00 C 17.33 24.00 18.67 24.00 20.00 24.00 C 20.00 25.33 20.00 26.67 20.00 28.00 C 21.33 28.00 22.67 28.00 24.00 28.00 C 24.00 26.67 24.00 25.33 24.00 24.00 C 25.33 24.00 26.67 24.00 28.00 24.00 C 28.00 25.33 28.00 26.67 28.00 28.00 C 29.33 28.00 30.67 28.00 32.00 28.00 C 32.00 26.67 32.00 25.33 32.00 24.00 C 33.33 24.00 34.67 24.00 36.00 24.00 C 36.00 25.33 36.00 26.67 36.00 28.00 C 37.33 28.00 38.67 28.00 40.00 28.00 C 40.00 26.67 40.00 25.33 40.00 24.00 C 41.33 24.00 42.67 24.00 44.00 24.00 C 44.00 25.33 44.00 26.67 44.00 28.00 C 45.33 28.00 46.67 28.00 48.00 28.00 C 47.97 21.31 48.06 14.61 47.96 7.92 C 47.99 5.88 46.14 3.92 44.06 4.04 C 34.68 3.97 25.30 3.97 15.92 4.04 C 13.93 3.98 12.05 5.81 12.04 7.80 M 11.10 32.17 C 10.87 32.41 10.40 32.88 10.17 33.12 C 9.81 39.44 10.05 45.79 10.04 52.12 C 9.95 54.65 12.65 56.37 14.99 56.00 C 25.36 55.97 35.74 56.06 46.11 55.96 C 48.58 56.00 50.38 53.41 50.00 51.07 C 49.90 45.10 50.22 39.12 49.83 33.16 C 48.62 31.21 45.86 32.16 43.95 32.06 C 40.13 32.05 40.56 37.85 36.91 37.97 C 33.33 36.55 30.81 33.08 27.06 32.07 C 21.75 32.00 16.40 31.82 11.10 32.17 Z" />
<path fill="#ffffff" opacity="1.00" d=" M 16.00 8.00 C 17.33 8.00 18.67 8.00 20.00 8.00 C 20.00 9.33 20.00 10.67 20.00 12.00 C 18.67 12.00 17.33 12.00 16.00 12.00 C 16.00 10.67 16.00 9.33 16.00 8.00 Z" />
<path fill="#ffffff" opacity="1.00" d=" M 24.00 8.00 C 25.33 8.00 26.67 8.00 28.00 8.00 C 28.00 9.33 28.00 10.67 28.00 12.00 C 26.67 12.00 25.33 12.00 24.00 12.00 C 24.00 10.67 24.00 9.33 24.00 8.00 Z" />
<path fill="#ffffff" opacity="1.00" d=" M 32.00 8.00 C 33.33 8.00 34.67 8.00 36.00 8.00 C 36.00 9.33 36.00 10.67 36.00 12.00 C 34.67 12.00 33.33 12.00 32.00 12.00 C 32.00 10.67 32.00 9.33 32.00 8.00 Z" />
<path fill="#ffffff" opacity="1.00" d=" M 40.00 8.00 C 41.33 8.00 42.67 8.00 44.00 8.00 C 44.00 9.33 44.00 10.67 44.00 12.00 C 42.67 12.00 41.33 12.00 40.00 12.00 C 40.00 10.67 40.00 9.33 40.00 8.00 Z" />
<path fill="#ffffff" opacity="1.00" d=" M 16.00 16.00 C 17.33 16.00 18.67 16.00 20.00 16.00 C 20.00 17.33 20.00 18.67 20.00 20.00 C 18.67 20.00 17.33 20.00 16.00 20.00 C 16.00 18.67 16.00 17.33 16.00 16.00 Z" />
<path fill="#ffffff" opacity="1.00" d=" M 24.00 16.00 C 25.33 16.00 26.67 16.00 28.00 16.00 C 28.00 17.33 28.00 18.67 28.00 20.00 C 26.67 20.00 25.33 20.00 24.00 20.00 C 24.00 18.67 24.00 17.33 24.00 16.00 Z" />
<path fill="#ffffff" opacity="1.00" d=" M 32.00 16.00 C 33.33 16.00 34.67 16.00 36.00 16.00 C 36.00 17.33 36.00 18.67 36.00 20.00 C 34.67 20.00 33.33 20.00 32.00 20.00 C 32.00 18.67 32.00 17.33 32.00 16.00 Z" />
<path fill="#ffffff" opacity="1.00" d=" M 40.00 16.00 C 41.33 16.00 42.67 16.00 44.00 16.00 C 44.00 17.33 44.00 18.67 44.00 20.00 C 42.67 20.00 41.33 20.00 40.00 20.00 C 40.00 18.67 40.00 17.33 40.00 16.00 Z" />
</g>
<g id="#000000ff">
<path fill="#968176" opacity="1.00" d=" M 12.04 7.80 C 12.05 5.81 13.93 3.98 15.92 4.04 C 25.30 3.97 34.68 3.97 44.06 4.04 C 46.14 3.92 47.99 5.88 47.96 7.92 C 48.06 14.61 47.97 21.31 48.00 28.00 C 46.67 28.00 45.33 28.00 44.00 28.00 C 44.00 26.67 44.00 25.33 44.00 24.00 C 42.67 24.00 41.33 24.00 40.00 24.00 C 40.00 25.33 40.00 26.67 40.00 28.00 C 38.67 28.00 37.33 28.00 36.00 28.00 C 36.00 26.67 36.00 25.33 36.00 24.00 C 34.67 24.00 33.33 24.00 32.00 24.00 C 32.00 25.33 32.00 26.67 32.00 28.00 C 30.67 28.00 29.33 28.00 28.00 28.00 C 28.00 26.67 28.00 25.33 28.00 24.00 C 26.67 24.00 25.33 24.00 24.00 24.00 C 24.00 25.33 24.00 26.67 24.00 28.00 C 22.67 28.00 21.33 28.00 20.00 28.00 C 20.00 26.67 20.00 25.33 20.00 24.00 C 18.67 24.00 17.33 24.00 16.00 24.00 C 16.00 25.33 16.00 26.67 16.00 28.00 C 14.67 28.00 13.33 28.00 12.00 28.00 C 12.04 21.27 11.93 14.53 12.04 7.80 M 16.00 8.00 C 16.00 9.33 16.00 10.67 16.00 12.00 C 17.33 12.00 18.67 12.00 20.00 12.00 C 20.00 10.67 20.00 9.33 20.00 8.00 C 18.67 8.00 17.33 8.00 16.00 8.00 M 24.00 8.00 C 24.00 9.33 24.00 10.67 24.00 12.00 C 25.33 12.00 26.67 12.00 28.00 12.00 C 28.00 10.67 28.00 9.33 28.00 8.00 C 26.67 8.00 25.33 8.00 24.00 8.00 M 32.00 8.00 C 32.00 9.33 32.00 10.67 32.00 12.00 C 33.33 12.00 34.67 12.00 36.00 12.00 C 36.00 10.67 36.00 9.33 36.00 8.00 C 34.67 8.00 33.33 8.00 32.00 8.00 M 40.00 8.00 C 40.00 9.33 40.00 10.67 40.00 12.00 C 41.33 12.00 42.67 12.00 44.00 12.00 C 44.00 10.67 44.00 9.33 44.00 8.00 C 42.67 8.00 41.33 8.00 40.00 8.00 M 16.00 16.00 C 16.00 17.33 16.00 18.67 16.00 20.00 C 17.33 20.00 18.67 20.00 20.00 20.00 C 20.00 18.67 20.00 17.33 20.00 16.00 C 18.67 16.00 17.33 16.00 16.00 16.00 M 24.00 16.00 C 24.00 17.33 24.00 18.67 24.00 20.00 C 25.33 20.00 26.67 20.00 28.00 20.00 C 28.00 18.67 28.00 17.33 28.00 16.00 C 26.67 16.00 25.33 16.00 24.00 16.00 M 32.00 16.00 C 32.00 17.33 32.00 18.67 32.00 20.00 C 33.33 20.00 34.67 20.00 36.00 20.00 C 36.00 18.67 36.00 17.33 36.00 16.00 C 34.67 16.00 33.33 16.00 32.00 16.00 M 40.00 16.00 C 40.00 17.33 40.00 18.67 40.00 20.00 C 41.33 20.00 42.67 20.00 44.00 20.00 C 44.00 18.67 44.00 17.33 44.00 16.00 C 42.67 16.00 41.33 16.00 40.00 16.00 Z" />
<path fill="#968176" opacity="1.00" d=" M 11.10 32.17 C 16.40 31.82 21.75 32.00 27.06 32.07 C 30.81 33.08 33.33 36.55 36.91 37.97 C 40.56 37.85 40.13 32.05 43.95 32.06 C 45.86 32.16 48.62 31.21 49.83 33.16 C 50.22 39.12 49.90 45.10 50.00 51.07 C 50.38 53.41 48.58 56.00 46.11 55.96 C 35.74 56.06 25.36 55.97 14.99 56.00 C 12.65 56.37 9.95 54.65 10.04 52.12 C 10.05 45.79 9.81 39.44 10.17 33.12 C 10.40 32.88 10.87 32.41 11.10 32.17 Z" />
</g>
</svg>
