<?xml version="1.0" encoding="UTF-8" ?>
<!DOCTYPE svg PUBLIC "-//W3C//DTD SVG 1.1//EN" "http://www.w3.org/Graphics/SVG/1.1/DTD/svg11.dtd">
<svg width="64pt" height="64pt" viewBox="0 0 64 64" version="1.1" xmlns="http://www.w3.org/2000/svg">
<g id="#ffffffff">
<path fill="#ffffff" opacity="1.00" d=" M 0.00 0.00 L 64.00 0.00 L 64.00 64.00 L 0.00 64.00 L 0.00 0.00 M 8.01 8.01 C 7.99 21.34 7.99 34.66 8.01 47.99 C 10.67 47.99 13.33 48.01 15.99 48.01 C 15.99 50.67 16.01 53.33 16.01 55.99 C 29.34 56.01 42.66 56.01 55.99 55.99 C 56.01 44.00 56.01 32.00 55.99 20.01 C 50.36 19.91 44.72 20.15 39.10 19.92 C 34.68 16.36 31.03 11.89 26.87 8.03 C 20.58 7.97 14.29 8.00 8.01 8.01 Z" />
<path fill="#ffffff" opacity="1.00" d=" M 12.01 12.01 C 16.00 11.98 20.00 11.98 24.00 12.01 C 24.00 16.01 24.00 20.00 24.01 23.99 C 28.00 24.00 32.00 24.00 35.99 24.00 C 36.01 30.67 36.01 37.33 35.99 43.99 C 28.00 44.01 20.00 44.01 12.01 43.99 C 11.99 33.33 11.99 22.67 12.01 12.01 Z" />
<path fill="#ffffff" opacity="1.00" d=" M 28.02 14.90 C 29.77 16.53 31.46 18.23 33.09 19.98 C 31.39 19.99 29.69 19.99 28.00 20.00 C 28.01 18.30 28.01 16.60 28.02 14.90 Z" />
<path fill="#ffffff" opacity="1.00" d=" M 40.02 24.00 C 41.34 24.00 42.66 23.99 43.98 24.00 C 44.02 33.33 44.00 42.66 43.99 51.99 C 35.99 52.00 28.00 52.03 20.00 51.98 C 19.99 50.66 19.99 49.34 20.00 48.02 C 26.66 47.96 33.33 48.03 39.99 47.99 C 40.03 39.99 39.96 32.00 40.02 24.00 Z" />
<path fill="#ffffff" opacity="1.00" d=" M 48.02 24.00 C 49.34 23.99 50.66 23.99 51.98 24.00 C 52.02 33.33 52.02 42.67 51.98 52.00 C 50.66 52.00 49.34 52.00 48.02 52.00 C 47.98 42.67 47.98 33.33 48.02 24.00 Z" />
</g>
<g id="#000000ff">
<path fill="#000000" opacity="1.00" d=" M 8.01 8.01 C 14.29 8.00 20.58 7.97 26.87 8.03 C 31.03 11.89 34.68 16.36 39.10 19.92 C 44.72 20.15 50.36 19.91 55.99 20.01 C 56.01 32.00 56.01 44.00 55.99 55.99 C 42.66 56.01 29.34 56.01 16.01 55.99 C 16.01 53.33 15.99 50.67 15.99 48.01 C 13.33 48.01 10.67 47.99 8.01 47.99 C 7.99 34.66 7.99 21.34 8.01 8.01 M 12.01 12.01 C 11.99 22.67 11.99 33.33 12.01 43.99 C 20.00 44.01 28.00 44.01 35.99 43.99 C 36.01 37.33 36.01 30.67 35.99 24.00 C 32.00 24.00 28.00 24.00 24.01 23.99 C 24.00 20.00 24.00 16.01 24.00 12.01 C 20.00 11.98 16.00 11.98 12.01 12.01 M 28.02 14.90 C 28.01 16.60 28.01 18.30 28.00 20.00 C 29.69 19.99 31.39 19.99 33.09 19.98 C 31.46 18.23 29.77 16.53 28.02 14.90 M 40.02 24.00 C 39.96 32.00 40.03 39.99 39.99 47.99 C 33.33 48.03 26.66 47.96 20.00 48.02 C 19.99 49.34 19.99 50.66 20.00 51.98 C 28.00 52.03 35.99 52.00 43.99 51.99 C 44.00 42.66 44.02 33.33 43.98 24.00 C 42.66 23.99 41.34 24.00 40.02 24.00 M 48.02 24.00 C 47.98 33.33 47.98 42.67 48.02 52.00 C 49.34 52.00 50.66 52.00 51.98 52.00 C 52.02 42.67 52.02 33.33 51.98 24.00 C 50.66 23.99 49.34 23.99 48.02 24.00 Z" />
</g>
</svg>
