<?xml version="1.0" encoding="UTF-8" ?>
<!DOCTYPE svg PUBLIC "-//W3C//DTD SVG 1.1//EN" "http://www.w3.org/Graphics/SVG/1.1/DTD/svg11.dtd">
<svg width="60pt" height="60pt" viewBox="0 0 60 60" version="1.1" xmlns="http://www.w3.org/2000/svg">
<g id="#ffffffff">
<path fill="#ffffff" opacity="1.00" d=" M 0.00 0.00 L 60.00 0.00 L 60.00 60.00 L 0.00 60.00 L 0.00 0.00 M 21.49 7.47 C 19.29 9.25 17.64 11.75 14.96 12.91 C 13.34 13.89 11.22 14.44 10.26 16.23 C 9.27 19.02 9.54 22.18 8.05 24.81 C 7.23 26.80 5.52 28.77 6.15 31.06 C 7.09 33.80 9.02 36.19 9.30 39.15 C 9.74 41.48 9.68 44.58 12.28 45.65 C 15.38 47.09 18.22 48.98 20.45 51.61 C 22.32 54.12 25.56 53.07 28.15 52.72 C 31.14 52.11 34.07 53.43 37.06 53.23 C 39.01 52.66 40.18 50.84 41.62 49.54 C 43.60 47.35 46.57 46.61 48.88 44.88 C 50.56 43.22 50.25 40.61 50.82 38.49 C 51.21 35.41 53.64 33.05 54.00 29.99 C 53.64 26.95 51.24 24.60 50.82 21.56 C 50.22 19.03 50.55 15.53 47.69 14.33 C 44.57 12.89 41.74 10.97 39.50 8.34 C 36.80 5.07 32.49 7.94 29.02 7.38 C 26.56 7.36 23.72 5.84 21.49 7.47 Z" />
<path fill="#ffffff" opacity="1.00" d=" M 20.40 11.34 C 22.58 9.70 26.90 12.03 25.84 14.93 C 24.96 16.78 22.16 17.95 20.40 16.67 C 19.77 14.99 19.75 13.01 20.40 11.34 Z" />
<path fill="#ffffff" opacity="1.00" d=" M 36.18 11.24 C 38.99 9.38 40.84 12.58 40.01 15.10 C 39.99 18.89 33.78 16.98 34.03 14.00 C 33.84 12.66 35.05 11.66 36.18 11.24 Z" />
<path fill="#ffffff" opacity="1.00" d=" M 29.15 12.09 C 31.50 11.11 33.23 14.80 30.82 15.79 C 28.51 17.01 26.81 13.19 29.15 12.09 Z" />
<path fill="#ffffff" opacity="1.00" d=" M 26.48 20.65 C 33.36 17.72 41.50 24.52 39.81 31.80 C 38.79 39.16 28.84 42.65 23.46 37.53 C 17.76 33.01 19.58 22.92 26.48 20.65 Z" />
<path fill="#ffffff" opacity="1.00" d=" M 13.22 24.16 C 15.55 23.02 17.24 27.02 14.75 27.81 C 12.48 29.01 10.77 25.01 13.22 24.16 Z" />
<path fill="#ffffff" opacity="1.00" d=" M 45.20 24.10 C 47.54 23.10 49.19 26.85 46.81 27.81 C 44.45 28.99 42.80 25.10 45.20 24.10 Z" />
<path fill="#ffffff" opacity="1.00" d=" M 43.17 34.11 C 45.60 33.11 47.17 36.88 44.77 37.89 C 42.37 38.84 40.88 35.17 43.17 34.11 Z" />
<path fill="#ffffff" opacity="1.00" d=" M 15.14 36.12 C 17.56 35.13 19.15 38.75 16.84 39.88 C 14.43 40.88 12.86 37.24 15.14 36.12 Z" />
<path fill="#ffffff" opacity="1.00" d=" M 37.17 42.09 C 39.56 41.16 41.13 44.71 38.85 45.89 C 36.42 46.86 34.85 43.24 37.17 42.09 Z" />
<path fill="#ffffff" opacity="1.00" d=" M 25.15 44.11 C 27.56 43.15 29.13 46.71 26.86 47.88 C 24.43 48.89 22.85 45.25 25.15 44.11 Z" />
</g>
<g id="#000000ff">
<path fill="#000000" opacity="1.00" d=" M 21.49 7.47 C 23.72 5.84 26.56 7.36 29.02 7.38 C 32.49 7.94 36.80 5.07 39.50 8.34 C 41.74 10.97 44.57 12.89 47.69 14.33 C 50.55 15.53 50.22 19.03 50.82 21.56 C 51.24 24.60 53.64 26.95 54.00 29.99 C 53.64 33.05 51.21 35.41 50.82 38.49 C 50.25 40.61 50.56 43.22 48.88 44.88 C 46.57 46.61 43.60 47.35 41.62 49.54 C 40.18 50.84 39.01 52.66 37.06 53.23 C 34.07 53.43 31.14 52.11 28.15 52.72 C 25.56 53.07 22.32 54.12 20.45 51.61 C 18.22 48.98 15.38 47.09 12.28 45.65 C 9.68 44.58 9.74 41.48 9.30 39.15 C 9.02 36.19 7.09 33.80 6.15 31.06 C 5.52 28.77 7.23 26.80 8.05 24.81 C 9.54 22.18 9.27 19.02 10.26 16.23 C 11.22 14.44 13.34 13.89 14.96 12.91 C 17.64 11.75 19.29 9.25 21.49 7.47 M 20.40 11.34 C 19.75 13.01 19.77 14.99 20.40 16.67 C 22.16 17.95 24.96 16.78 25.84 14.93 C 26.90 12.03 22.58 9.70 20.40 11.34 M 36.18 11.24 C 35.05 11.66 33.84 12.66 34.03 14.00 C 33.78 16.98 39.99 18.89 40.01 15.10 C 40.84 12.58 38.99 9.38 36.18 11.24 M 29.15 12.09 C 26.81 13.19 28.51 17.01 30.82 15.79 C 33.23 14.80 31.50 11.11 29.15 12.09 M 26.48 20.65 C 19.58 22.92 17.76 33.01 23.46 37.53 C 28.84 42.65 38.79 39.16 39.81 31.80 C 41.50 24.52 33.36 17.72 26.48 20.65 M 13.22 24.16 C 10.77 25.01 12.48 29.01 14.75 27.81 C 17.24 27.02 15.55 23.02 13.22 24.16 M 45.20 24.10 C 42.80 25.10 44.45 28.99 46.81 27.81 C 49.19 26.85 47.54 23.10 45.20 24.10 M 43.17 34.11 C 40.88 35.17 42.37 38.84 44.77 37.89 C 47.17 36.88 45.60 33.11 43.17 34.11 M 15.14 36.12 C 12.86 37.24 14.43 40.88 16.84 39.88 C 19.15 38.75 17.56 35.13 15.14 36.12 M 37.17 42.09 C 34.85 43.24 36.42 46.86 38.85 45.89 C 41.13 44.71 39.56 41.16 37.17 42.09 M 25.15 44.11 C 22.85 45.25 24.43 48.89 26.86 47.88 C 29.13 46.71 27.56 43.15 25.15 44.11 Z" />
</g>
</svg>
