<?xml version="1.0" encoding="UTF-8" ?>
<!DOCTYPE svg PUBLIC "-//W3C//DTD SVG 1.1//EN" "http://www.w3.org/Graphics/SVG/1.1/DTD/svg11.dtd">
<svg width="64pt" height="64pt" viewBox="0 0 64 64" version="1.1" xmlns="http://www.w3.org/2000/svg">
<g id="#ffffffff">
<path fill="#ffffff" opacity="1.00" d=" M 0.00 0.00 L 64.00 0.00 L 64.00 64.00 L 0.00 64.00 L 0.00 0.00 M 8.84 25.75 C 6.36 34.55 9.52 44.58 16.59 50.37 C 22.68 55.55 31.43 57.35 39.05 54.92 C 46.83 52.62 53.10 46.03 55.17 38.20 C 56.78 32.39 55.92 26.09 53.29 20.71 C 53.84 20.16 54.94 19.08 55.49 18.54 C 54.65 17.67 53.80 16.79 52.95 15.93 C 54.61 14.24 56.27 12.56 57.94 10.89 C 57.00 9.94 56.06 9.00 55.12 8.06 C 53.46 9.75 51.75 11.41 50.03 13.05 C 49.11 12.11 48.19 11.17 47.26 10.24 C 46.80 10.65 45.88 11.48 45.42 11.89 C 41.51 9.99 37.46 8.08 33.00 8.06 C 22.11 7.35 11.51 15.20 8.84 25.75 Z" />
<path fill="#ffffff" opacity="1.00" d=" M 30.96 12.26 C 39.86 11.20 48.60 17.60 51.08 26.06 C 52.34 29.82 52.10 33.88 51.26 37.69 C 49.67 36.42 47.67 35.51 46.44 33.86 C 46.11 31.55 46.13 29.21 46.01 26.88 C 44.13 28.41 42.24 29.93 40.35 31.44 C 38.26 31.02 36.16 30.60 34.07 30.18 C 34.69 32.39 35.33 34.59 35.93 36.80 C 34.71 38.88 33.51 40.97 32.31 43.06 C 34.54 42.94 36.77 42.81 38.99 42.69 C 40.49 44.63 42.14 46.44 43.88 48.16 C 35.61 54.24 23.05 52.83 16.58 44.79 C 17.31 45.02 18.78 45.48 19.51 45.72 C 18.96 43.56 17.92 41.43 17.90 39.18 C 18.46 37.60 19.25 36.12 19.99 34.62 C 18.39 34.41 16.80 34.20 15.21 34.00 C 14.21 32.50 13.20 31.02 12.16 29.55 C 12.90 23.48 16.56 18.09 21.64 14.75 C 21.07 15.83 19.91 17.98 19.34 19.06 C 21.16 18.61 23.00 18.19 24.83 17.75 C 25.98 18.46 27.13 19.16 28.28 19.86 C 28.38 16.38 31.04 14.43 34.10 13.42 C 33.31 13.13 31.74 12.55 30.96 12.26 Z" />
<path fill="#ffffff" opacity="1.00" d=" M 45.80 40.89 C 47.44 39.80 49.27 39.06 51.04 38.21 C 49.73 41.87 47.32 44.90 44.80 47.78 C 44.44 47.09 44.09 46.40 43.75 45.70 C 44.47 44.12 44.83 42.35 45.80 40.89 Z" />
</g>
<g id="#000000ff">
<path fill="#000000" opacity="1.00" d=" M 8.84 25.75 C 11.51 15.20 22.11 7.35 33.00 8.06 C 37.46 8.08 41.51 9.99 45.42 11.89 C 45.88 11.48 46.80 10.65 47.26 10.24 C 48.19 11.17 49.11 12.11 50.03 13.05 C 51.75 11.41 53.46 9.75 55.12 8.06 C 56.06 9.00 57.00 9.94 57.94 10.89 C 56.27 12.56 54.61 14.24 52.95 15.93 C 53.80 16.79 54.65 17.67 55.49 18.54 C 54.94 19.08 53.84 20.16 53.29 20.71 C 55.92 26.09 56.78 32.39 55.17 38.20 C 53.10 46.03 46.83 52.62 39.05 54.92 C 31.43 57.35 22.68 55.55 16.59 50.37 C 9.52 44.58 6.36 34.55 8.84 25.75 M 30.96 12.26 C 31.74 12.55 33.31 13.13 34.10 13.42 C 31.04 14.43 28.38 16.38 28.28 19.86 C 27.13 19.16 25.98 18.46 24.83 17.75 C 23.00 18.19 21.16 18.61 19.34 19.06 C 19.91 17.98 21.07 15.83 21.64 14.75 C 16.56 18.09 12.90 23.48 12.16 29.55 C 13.20 31.02 14.21 32.50 15.21 34.00 C 16.80 34.20 18.39 34.41 19.99 34.62 C 19.25 36.12 18.46 37.60 17.90 39.18 C 17.92 41.43 18.96 43.56 19.51 45.72 C 18.78 45.48 17.31 45.02 16.58 44.79 C 23.05 52.83 35.61 54.24 43.88 48.16 C 42.14 46.44 40.49 44.63 38.99 42.69 C 36.77 42.81 34.54 42.94 32.31 43.06 C 33.51 40.97 34.71 38.88 35.93 36.80 C 35.33 34.59 34.69 32.39 34.07 30.18 C 36.16 30.60 38.26 31.02 40.35 31.44 C 42.24 29.93 44.13 28.41 46.01 26.88 C 46.13 29.21 46.11 31.55 46.44 33.86 C 47.67 35.51 49.67 36.42 51.26 37.69 C 52.10 33.88 52.34 29.82 51.08 26.06 C 48.60 17.60 39.86 11.20 30.96 12.26 M 45.80 40.89 C 44.83 42.35 44.47 44.12 43.75 45.70 C 44.09 46.40 44.44 47.09 44.80 47.78 C 47.32 44.90 49.73 41.87 51.04 38.21 C 49.27 39.06 47.44 39.80 45.80 40.89 Z" />
</g>
</svg>
