<?xml version="1.0" encoding="UTF-8" ?>
<!DOCTYPE svg PUBLIC "-//W3C//DTD SVG 1.1//EN" "http://www.w3.org/Graphics/SVG/1.1/DTD/svg11.dtd">
<svg width="60pt" height="60pt" viewBox="0 0 60 60" version="1.1" xmlns="http://www.w3.org/2000/svg">
<g id="#ffffffff">
<path fill="#ffffff" opacity="1.00" d=" M 0.00 0.00 L 60.00 0.00 L 60.00 60.00 L 0.00 60.00 L 0.00 0.00 M 13.24 8.20 C 10.77 9.02 12.45 12.96 14.80 11.89 C 17.19 10.92 15.53 7.01 13.24 8.20 M 19.25 11.22 C 15.75 13.38 13.69 17.08 10.34 19.41 C 8.57 20.64 8.84 22.84 10.19 24.28 C 10.19 28.73 10.13 33.19 8.12 37.27 C 8.60 37.69 9.54 38.53 10.01 38.95 C 10.12 42.60 9.65 46.32 10.34 49.94 C 11.55 54.02 17.39 55.38 20.25 52.19 C 23.54 49.03 20.59 43.88 23.30 40.42 C 24.66 38.89 23.39 37.32 22.01 36.43 C 21.15 32.90 23.61 29.40 22.14 26.07 C 23.18 23.39 25.11 20.85 28.07 20.24 C 32.85 18.84 38.05 22.99 37.96 27.91 C 38.03 34.25 38.12 40.60 37.77 46.94 C 37.82 49.75 39.25 52.82 42.13 53.68 C 45.74 55.06 50.07 51.97 49.94 48.11 C 49.87 44.63 50.00 41.15 51.43 37.91 C 49.47 34.73 49.48 30.75 51.43 27.56 C 52.80 25.82 50.85 24.57 49.60 23.65 C 48.67 19.47 45.36 16.36 44.65 12.13 C 44.38 10.36 42.19 10.87 41.03 11.29 C 35.59 7.78 29.08 8.35 22.96 7.55 C 21.30 8.25 20.91 10.42 19.25 11.22 M 49.21 12.09 C 46.84 13.16 48.40 16.88 50.84 15.88 C 53.11 14.78 51.61 11.19 49.21 12.09 M 5.15 26.13 C 2.88 27.18 4.38 30.84 6.76 29.90 C 9.18 28.89 7.60 25.09 5.15 26.13 M 25.23 30.10 C 22.75 31.03 24.50 35.06 26.78 33.78 C 29.21 32.95 27.58 29.12 25.23 30.10 M 53.24 30.08 C 50.82 30.98 52.40 34.94 54.71 33.82 C 57.22 33.04 55.64 29.15 53.24 30.08 Z" />
<path fill="#ffffff" opacity="1.00" d=" M 30.85 11.91 C 34.62 12.40 38.19 13.89 41.10 16.35 C 40.31 17.40 39.52 18.45 38.74 19.51 C 35.52 17.59 31.98 15.81 30.85 11.91 Z" />
<path fill="#ffffff" opacity="1.00" d=" M 17.91 17.39 C 20.15 15.18 22.83 13.48 25.82 12.48 C 26.80 13.64 27.76 14.81 28.71 16.00 C 26.77 16.62 24.85 17.33 23.00 18.19 C 21.30 17.96 19.60 17.68 17.91 17.39 Z" />
<path fill="#ffffff" opacity="1.00" d=" M 41.15 23.00 C 42.01 21.85 42.89 20.72 43.77 19.59 C 45.18 22.45 45.99 25.56 46.10 28.75 C 44.78 29.32 43.46 29.88 42.14 30.45 C 42.00 27.95 41.71 25.45 41.15 23.00 Z" />
<path fill="#ffffff" opacity="1.00" d=" M 13.91 29.99 C 13.94 26.93 14.31 23.86 15.56 21.04 C 16.57 21.21 18.60 21.57 19.61 21.74 C 18.71 23.94 18.12 26.24 17.66 28.57 C 16.41 29.04 15.16 29.52 13.91 29.99 Z" />
<path fill="#ffffff" opacity="1.00" d=" M 14.14 34.30 C 15.43 33.76 16.71 33.22 18.00 32.68 C 18.00 35.30 18.01 37.92 17.98 40.54 C 16.47 41.32 15.33 42.45 14.58 43.92 C 13.53 40.82 14.05 37.50 14.14 34.30 Z" />
<path fill="#ffffff" opacity="1.00" d=" M 42.00 35.05 C 43.31 34.38 44.63 33.73 45.96 33.09 C 46.00 35.42 46.01 37.75 46.02 40.08 C 44.67 40.70 43.33 41.33 41.98 41.95 C 42.00 39.65 42.00 37.35 42.00 35.05 Z" />
<path fill="#ffffff" opacity="1.00" d=" M 13.74 44.62 C 14.19 44.72 15.07 44.91 15.52 45.00 L 15.37 46.07 C 16.07 45.92 17.47 45.61 18.16 45.46 C 17.89 46.98 18.38 50.11 15.99 49.94 C 13.35 50.00 14.21 46.26 13.74 44.62 Z" />
<path fill="#ffffff" opacity="1.00" d=" M 41.98 46.28 C 43.35 45.70 44.72 45.12 46.09 44.55 C 45.79 46.41 46.76 49.79 43.97 50.05 C 41.93 49.95 42.05 47.75 41.98 46.28 Z" />
</g>
<g id="#000000ff">
<path fill="#000000" opacity="1.00" d=" M 13.24 8.20 C 15.53 7.01 17.19 10.92 14.80 11.89 C 12.45 12.96 10.77 9.02 13.24 8.20 Z" />
<path fill="#000000" opacity="1.00" d=" M 19.25 11.22 C 20.91 10.42 21.30 8.25 22.96 7.55 C 29.08 8.35 35.59 7.78 41.03 11.29 C 42.19 10.87 44.38 10.36 44.65 12.13 C 45.36 16.36 48.67 19.47 49.60 23.65 C 50.85 24.57 52.80 25.82 51.43 27.56 C 49.48 30.75 49.47 34.73 51.43 37.91 C 50.00 41.15 49.87 44.63 49.94 48.11 C 50.07 51.97 45.74 55.06 42.13 53.68 C 39.25 52.82 37.82 49.75 37.77 46.94 C 38.12 40.60 38.03 34.25 37.96 27.91 C 38.05 22.99 32.85 18.84 28.07 20.24 C 25.11 20.85 23.18 23.39 22.14 26.07 C 23.61 29.40 21.15 32.90 22.01 36.43 C 23.39 37.32 24.66 38.89 23.30 40.42 C 20.59 43.88 23.54 49.03 20.25 52.19 C 17.39 55.38 11.55 54.02 10.34 49.94 C 9.65 46.32 10.12 42.60 10.01 38.95 C 9.54 38.53 8.60 37.69 8.12 37.27 C 10.13 33.19 10.19 28.73 10.19 24.28 C 8.84 22.84 8.57 20.64 10.34 19.41 C 13.69 17.08 15.75 13.38 19.25 11.22 M 30.85 11.91 C 31.98 15.81 35.52 17.59 38.74 19.51 C 39.52 18.45 40.31 17.40 41.10 16.35 C 38.19 13.89 34.62 12.40 30.85 11.91 M 17.91 17.39 C 19.60 17.68 21.30 17.96 23.00 18.19 C 24.85 17.33 26.77 16.62 28.71 16.00 C 27.76 14.81 26.80 13.64 25.82 12.48 C 22.83 13.48 20.15 15.18 17.91 17.39 M 41.15 23.00 C 41.71 25.45 42.00 27.95 42.14 30.45 C 43.46 29.88 44.78 29.32 46.10 28.75 C 45.99 25.56 45.18 22.45 43.77 19.59 C 42.89 20.72 42.01 21.85 41.15 23.00 M 13.91 29.99 C 15.16 29.52 16.41 29.04 17.66 28.57 C 18.12 26.24 18.71 23.94 19.61 21.74 C 18.60 21.57 16.57 21.21 15.56 21.04 C 14.31 23.86 13.94 26.93 13.91 29.99 M 14.14 34.30 C 14.05 37.50 13.53 40.82 14.58 43.92 C 15.33 42.45 16.47 41.32 17.98 40.54 C 18.01 37.92 18.00 35.30 18.00 32.68 C 16.71 33.22 15.43 33.76 14.14 34.30 M 42.00 35.05 C 42.00 37.35 42.00 39.65 41.98 41.95 C 43.33 41.33 44.67 40.70 46.02 40.08 C 46.01 37.75 46.00 35.42 45.96 33.09 C 44.63 33.73 43.31 34.38 42.00 35.05 M 13.74 44.62 C 14.21 46.26 13.35 50.00 15.99 49.94 C 18.38 50.11 17.89 46.98 18.16 45.46 C 17.47 45.61 16.07 45.92 15.37 46.07 L 15.52 45.00 C 15.07 44.91 14.19 44.72 13.74 44.62 M 41.98 46.28 C 42.05 47.75 41.93 49.95 43.97 50.05 C 46.76 49.79 45.79 46.41 46.09 44.55 C 44.72 45.12 43.35 45.70 41.98 46.28 Z" />
<path fill="#000000" opacity="1.00" d=" M 49.21 12.09 C 51.61 11.19 53.11 14.78 50.84 15.88 C 48.40 16.88 46.84 13.16 49.21 12.09 Z" />
<path fill="#000000" opacity="1.00" d=" M 5.15 26.13 C 7.60 25.09 9.18 28.89 6.76 29.90 C 4.38 30.84 2.88 27.18 5.15 26.13 Z" />
<path fill="#000000" opacity="1.00" d=" M 25.23 30.10 C 27.58 29.12 29.21 32.95 26.78 33.78 C 24.50 35.06 22.75 31.03 25.23 30.10 Z" />
<path fill="#000000" opacity="1.00" d=" M 53.24 30.08 C 55.64 29.15 57.22 33.04 54.71 33.82 C 52.40 34.94 50.82 30.98 53.24 30.08 Z" />
</g>
</svg>
