<?xml version="1.0" encoding="UTF-8" ?>
<!DOCTYPE svg PUBLIC "-//W3C//DTD SVG 1.1//EN" "http://www.w3.org/Graphics/SVG/1.1/DTD/svg11.dtd">
<svg width="60pt" height="60pt" viewBox="0 0 60 60" version="1.1" xmlns="http://www.w3.org/2000/svg">
<g id="#ffffffff">
<path fill="#ffffff" opacity="1.00" d=" M 0.00 0.00 L 60.00 0.00 L 60.00 60.00 L 0.00 60.00 L 0.00 0.00 M 14.39 6.63 C 11.67 7.30 8.15 8.75 7.99 12.01 C 8.11 14.99 11.22 16.48 13.72 17.19 C 18.32 18.37 23.35 18.33 27.82 16.66 C 30.06 15.85 32.50 13.80 31.91 11.14 C 31.14 8.69 28.60 7.47 26.31 6.81 C 22.43 5.77 18.29 5.75 14.39 6.63 M 49.22 18.14 C 45.20 19.14 41.13 19.90 36.99 20.10 C 35.50 20.00 34.73 21.56 35.14 22.84 C 36.21 24.51 38.39 23.89 40.02 23.89 C 43.88 23.45 47.84 22.94 51.44 21.41 C 52.97 19.92 51.15 17.33 49.22 18.14 M 9.14 29.23 C 7.15 33.29 8.02 38.19 9.98 42.09 C 13.36 48.40 20.10 52.27 26.96 53.64 C 30.08 54.29 33.62 54.06 36.12 51.87 C 35.82 49.91 33.59 49.80 32.16 49.07 C 36.78 48.77 44.27 50.54 46.32 45.03 C 44.44 44.03 42.43 43.31 40.32 42.98 C 44.21 42.45 49.72 41.66 50.29 36.85 C 48.97 36.17 47.62 35.53 46.24 34.99 C 48.47 33.38 51.13 31.71 51.87 28.87 C 52.38 27.60 51.58 25.56 49.93 26.11 C 45.30 26.96 40.68 28.37 35.92 27.91 C 29.80 27.21 24.14 24.14 17.92 24.04 C 14.34 23.95 10.69 25.93 9.14 29.23 Z" />
<path fill="#ffffff" opacity="1.00" d=" M 11.73 12.00 C 16.77 9.29 23.23 9.27 28.27 12.00 C 23.20 14.69 16.80 14.70 11.73 12.00 Z" />
</g>
<g id="#000000ff">
<path fill="#000000" opacity="1.00" d=" M 14.39 6.63 C 18.29 5.75 22.43 5.77 26.31 6.81 C 28.60 7.47 31.14 8.69 31.91 11.14 C 32.50 13.80 30.06 15.85 27.82 16.66 C 23.35 18.33 18.32 18.37 13.72 17.19 C 11.22 16.48 8.11 14.99 7.99 12.01 C 8.15 8.75 11.67 7.30 14.39 6.63 M 11.73 12.00 C 16.80 14.70 23.20 14.69 28.27 12.00 C 23.23 9.27 16.77 9.29 11.73 12.00 Z" />
<path fill="#000000" opacity="1.00" d=" M 49.22 18.14 C 51.15 17.33 52.97 19.92 51.44 21.41 C 47.84 22.94 43.88 23.45 40.02 23.89 C 38.39 23.89 36.21 24.51 35.14 22.84 C 34.73 21.56 35.50 20.00 36.99 20.10 C 41.13 19.90 45.20 19.14 49.22 18.14 Z" />
<path fill="#000000" opacity="1.00" d=" M 9.14 29.23 C 10.69 25.93 14.34 23.95 17.92 24.04 C 24.14 24.14 29.80 27.21 35.92 27.91 C 40.68 28.37 45.30 26.96 49.93 26.11 C 51.58 25.56 52.38 27.60 51.87 28.87 C 51.13 31.71 48.47 33.38 46.24 34.99 C 47.62 35.53 48.97 36.17 50.29 36.85 C 49.72 41.66 44.21 42.45 40.32 42.98 C 42.43 43.31 44.44 44.03 46.32 45.03 C 44.27 50.54 36.78 48.77 32.16 49.07 C 33.59 49.80 35.82 49.91 36.12 51.87 C 33.62 54.06 30.08 54.29 26.96 53.64 C 20.10 52.27 13.36 48.40 9.98 42.09 C 8.02 38.19 7.15 33.29 9.14 29.23 Z" />
</g>
</svg>
