<?xml version="1.0" encoding="UTF-8" ?>
<!DOCTYPE svg PUBLIC "-//W3C//DTD SVG 1.1//EN" "http://www.w3.org/Graphics/SVG/1.1/DTD/svg11.dtd">
<svg width="60pt" height="60pt" viewBox="0 0 60 60" version="1.1" xmlns="http://www.w3.org/2000/svg">
<g id="#ffffffff">
<path fill="#ffffff" opacity="1.00" d=" M 0.00 0.00 L 32.94 0.00 C 31.57 2.15 32.08 4.78 31.96 7.19 C 26.73 12.53 21.37 17.75 16.11 23.06 C 13.16 25.84 11.45 30.00 12.26 34.06 C 12.99 38.74 17.03 41.73 20.10 44.94 C 23.36 48.00 26.23 51.47 29.73 54.26 C 34.85 58.18 43.41 54.41 43.84 47.93 C 44.64 41.64 38.45 38.09 34.82 34.01 C 38.94 29.75 43.32 25.74 47.33 21.39 C 48.46 20.44 47.88 18.93 46.93 18.13 C 43.40 14.39 39.61 10.89 36.05 7.18 C 36.06 4.77 36.03 2.33 35.33 0.00 L 60.00 0.00 L 60.00 60.00 L 0.00 60.00 L 0.00 0.00 Z" />
<path fill="#ffffff" opacity="1.00" d=" M 29.43 15.40 C 30.96 13.88 32.49 12.36 34.02 10.83 C 37.07 13.88 40.13 16.94 43.17 20.00 C 41.64 21.53 40.12 23.06 38.59 24.59 C 35.53 21.53 32.47 18.47 29.43 15.40 Z" />
<path fill="#ffffff" opacity="1.00" d=" M 18.15 26.36 C 19.60 28.07 21.73 29.62 21.96 32.04 C 21.63 34.36 19.61 35.89 18.25 37.63 C 15.41 34.41 15.48 29.66 18.15 26.36 Z" />
<path fill="#ffffff" opacity="1.00" d=" M 31.17 50.68 C 33.59 48.11 36.10 45.61 38.66 43.17 C 40.04 45.37 40.62 48.48 38.48 50.43 C 36.54 52.61 33.39 52.05 31.17 50.68 Z" />
</g>
<g id="#000000ff">
<path fill="#000000" opacity="1.00" d=" M 32.94 0.00 L 35.33 0.00 C 36.03 2.33 36.06 4.77 36.05 7.18 C 39.61 10.89 43.40 14.39 46.93 18.13 C 47.88 18.93 48.46 20.44 47.33 21.39 C 43.32 25.74 38.94 29.75 34.82 34.01 C 38.45 38.09 44.64 41.64 43.84 47.93 C 43.41 54.41 34.85 58.18 29.73 54.26 C 26.23 51.47 23.36 48.00 20.10 44.94 C 17.03 41.73 12.99 38.74 12.26 34.06 C 11.45 30.00 13.16 25.84 16.11 23.06 C 21.37 17.75 26.73 12.53 31.96 7.19 C 32.08 4.78 31.57 2.15 32.94 0.00 M 29.43 15.40 C 32.47 18.47 35.53 21.53 38.59 24.59 C 40.12 23.06 41.64 21.53 43.17 20.00 C 40.13 16.94 37.07 13.88 34.02 10.83 C 32.49 12.36 30.96 13.88 29.43 15.40 M 18.15 26.36 C 15.48 29.66 15.41 34.41 18.25 37.63 C 19.61 35.89 21.63 34.36 21.96 32.04 C 21.73 29.62 19.60 28.07 18.15 26.36 M 31.17 50.68 C 33.39 52.05 36.54 52.61 38.48 50.43 C 40.62 48.48 40.04 45.37 38.66 43.17 C 36.10 45.61 33.59 48.11 31.17 50.68 Z" />
</g>
</svg>
