<?xml version="1.0" encoding="UTF-8" ?>
<!DOCTYPE svg PUBLIC "-//W3C//DTD SVG 1.1//EN" "http://www.w3.org/Graphics/SVG/1.1/DTD/svg11.dtd">
<svg width="60pt" height="60pt" viewBox="0 0 60 60" version="1.1" xmlns="http://www.w3.org/2000/svg">
<g id="#ffffffff">
<path fill="#ffffff" opacity="1.00" d=" M 0.00 0.00 L 60.00 0.00 L 60.00 60.00 L 0.00 60.00 L 0.00 0.00 M 22.01 9.09 C 17.20 13.08 18.31 19.84 16.43 25.20 C 15.16 30.08 11.44 33.65 8.18 37.26 C 7.05 40.81 11.97 39.96 14.04 40.05 C 14.83 43.70 16.40 47.20 19.23 49.72 C 16.90 49.51 14.54 52.34 17.16 53.80 C 24.78 54.28 32.45 53.86 40.09 54.02 C 41.47 54.01 44.13 54.10 43.94 52.06 C 44.31 50.23 41.90 50.18 40.77 49.74 C 43.60 47.21 45.15 43.69 45.96 40.05 C 47.96 39.72 51.77 41.02 52.07 38.02 C 50.77 35.21 47.76 33.52 46.24 30.77 C 42.59 25.81 42.67 19.44 41.17 13.73 C 38.61 6.04 27.81 3.48 22.01 9.09 Z" />
<path fill="#ffffff" opacity="1.00" d=" M 24.73 12.77 C 26.32 11.39 28.35 12.32 30.00 13.01 C 31.65 12.32 33.67 11.39 35.26 12.77 C 38.68 15.42 38.46 20.46 36.72 24.03 C 42.57 29.88 44.28 40.76 37.83 46.80 C 33.31 51.38 25.17 50.78 21.19 45.79 C 15.86 39.49 17.77 29.58 23.28 24.03 C 21.53 20.46 21.31 15.43 24.73 12.77 M 25.20 16.09 C 22.82 17.09 24.45 20.96 26.75 19.82 C 29.22 18.92 27.59 15.13 25.20 16.09 M 33.15 16.10 C 30.83 17.16 32.47 20.97 34.77 19.80 C 37.26 18.91 35.50 15.07 33.15 16.10 M 25.59 22.18 C 26.42 23.99 27.99 25.44 29.92 25.99 C 31.92 25.56 33.58 24.07 34.31 22.17 C 31.41 21.92 28.49 21.99 25.59 22.18 Z" />
</g>
<g id="#000000ff">
<path fill="#968176" opacity="1.00" d=" M 22.01 9.09 C 27.81 3.48 38.61 6.04 41.17 13.73 C 42.67 19.44 42.59 25.81 46.24 30.77 C 47.76 33.52 50.77 35.21 52.07 38.02 C 51.77 41.02 47.96 39.72 45.96 40.05 C 45.15 43.69 43.60 47.21 40.77 49.74 C 41.90 50.18 44.31 50.23 43.94 52.06 C 44.13 54.10 41.47 54.01 40.09 54.02 C 32.45 53.86 24.78 54.28 17.16 53.80 C 14.54 52.34 16.90 49.51 19.23 49.72 C 16.40 47.20 14.83 43.70 14.04 40.05 C 11.97 39.96 7.05 40.81 8.18 37.26 C 11.44 33.65 15.16 30.08 16.43 25.20 C 18.31 19.84 17.20 13.08 22.01 9.09 M 24.73 12.77 C 21.31 15.43 21.53 20.46 23.28 24.03 C 17.77 29.58 15.86 39.49 21.19 45.79 C 25.17 50.78 33.31 51.38 37.83 46.80 C 44.28 40.76 42.57 29.88 36.72 24.03 C 38.46 20.46 38.68 15.42 35.26 12.77 C 33.67 11.39 31.65 12.32 30.00 13.01 C 28.35 12.32 26.32 11.39 24.73 12.77 Z" />
<path fill="#968176" opacity="1.00" d=" M 25.20 16.09 C 27.59 15.13 29.22 18.92 26.75 19.82 C 24.45 20.96 22.82 17.09 25.20 16.09 Z" />
<path fill="#968176" opacity="1.00" d=" M 33.15 16.10 C 35.50 15.07 37.26 18.91 34.77 19.80 C 32.47 20.97 30.83 17.16 33.15 16.10 Z" />
<path fill="#968176" opacity="1.00" d=" M 25.59 22.18 C 28.49 21.99 31.41 21.92 34.31 22.17 C 33.58 24.07 31.92 25.56 29.92 25.99 C 27.99 25.44 26.42 23.99 25.59 22.18 Z" />
</g>
</svg>
