<?xml version="1.0" encoding="UTF-8" ?>
<!DOCTYPE svg PUBLIC "-//W3C//DTD SVG 1.1//EN" "http://www.w3.org/Graphics/SVG/1.1/DTD/svg11.dtd">
<svg width="60pt" height="60pt" viewBox="0 0 60 60" version="1.1" xmlns="http://www.w3.org/2000/svg">
<g id="#ffffffff">
<path fill="#ffffff" opacity="1.00" d=" M 0.00 0.00 L 60.00 0.00 L 60.00 60.00 L 0.00 60.00 L 0.00 0.00 M 26.28 6.34 C 24.31 9.99 22.70 13.83 20.76 17.51 C 16.51 18.07 12.26 18.60 8.03 19.33 C 5.26 19.99 4.06 23.97 6.04 26.04 C 8.96 29.11 12.16 31.91 15.15 34.91 C 14.49 38.96 13.58 42.98 13.04 47.05 C 12.32 50.14 16.06 53.04 18.86 51.55 C 22.67 49.77 26.28 47.60 30.03 45.70 C 33.77 47.61 37.37 49.81 41.18 51.58 C 44.00 53.01 47.68 50.09 46.95 47.02 C 46.41 42.96 45.51 38.96 44.84 34.92 C 47.86 31.90 51.12 29.12 54.01 25.97 C 55.92 23.88 54.69 19.98 51.95 19.33 C 47.80 18.51 43.58 17.98 39.36 17.61 C 37.26 13.94 35.74 9.97 33.69 6.28 C 32.34 3.37 27.58 3.40 26.28 6.34 M 13.21 8.17 C 10.78 9.15 12.47 12.91 14.86 11.89 C 17.16 10.79 15.53 7.07 13.21 8.17 M 45.21 8.15 C 42.77 9.17 44.49 12.92 46.87 11.89 C 49.11 10.75 47.57 7.12 45.21 8.15 M 7.24 36.09 C 4.81 37.14 6.41 40.89 8.87 39.89 C 11.08 38.73 9.62 35.21 7.24 36.09 M 51.16 36.10 C 48.83 37.25 50.46 40.91 52.87 39.85 C 55.15 38.71 53.53 35.15 51.16 36.10 Z" />
<path fill="#ffffff" opacity="1.00" d=" M 23.49 21.13 C 25.67 16.69 27.79 12.22 29.96 7.78 C 30.04 13.18 29.96 18.59 30.04 24.00 C 30.22 25.36 29.82 26.67 29.31 27.91 C 27.83 25.28 25.50 23.33 23.49 21.13 Z" />
<path fill="#ffffff" opacity="1.00" d=" M 36.48 21.16 C 41.42 21.81 46.37 22.40 51.27 23.27 C 44.76 24.46 38.38 26.56 31.80 27.25 L 30.95 26.98 C 32.79 25.03 34.68 23.14 36.48 21.16 Z" />
<path fill="#ffffff" opacity="1.00" d=" M 8.84 23.28 C 15.60 24.83 22.42 26.16 29.13 27.94 C 26.17 30.21 22.79 31.81 19.50 33.50 C 15.95 30.09 12.37 26.71 8.84 23.28 Z" />
<path fill="#ffffff" opacity="1.00" d=" M 16.84 48.17 C 21.20 41.93 24.86 34.88 29.77 29.22 C 30.40 33.07 29.77 37.17 30.02 41.12 C 25.68 43.56 21.24 45.83 16.84 48.17 Z" />
<path fill="#ffffff" opacity="1.00" d=" M 31.12 29.07 C 34.52 29.67 37.35 32.12 40.52 33.49 C 41.37 38.41 42.36 43.30 43.07 48.24 C 39.14 42.28 35.35 36.22 31.42 30.25 C 31.34 29.96 31.19 29.37 31.12 29.07 Z" />
</g>
<g id="#000000ff">
<path fill="#968176" opacity="1.00" d=" M 26.28 6.34 C 27.58 3.40 32.34 3.37 33.69 6.28 C 35.74 9.97 37.26 13.94 39.36 17.61 C 43.58 17.98 47.80 18.51 51.95 19.33 C 54.69 19.98 55.92 23.88 54.01 25.97 C 51.12 29.12 47.86 31.90 44.84 34.92 C 45.51 38.96 46.41 42.96 46.95 47.02 C 47.68 50.09 44.00 53.01 41.18 51.58 C 37.37 49.81 33.77 47.61 30.03 45.70 C 26.28 47.60 22.67 49.77 18.86 51.55 C 16.06 53.04 12.32 50.14 13.04 47.05 C 13.58 42.98 14.49 38.96 15.15 34.91 C 12.16 31.91 8.96 29.11 6.04 26.04 C 4.06 23.97 5.26 19.99 8.03 19.33 C 12.26 18.60 16.51 18.07 20.76 17.51 C 22.70 13.83 24.31 9.99 26.28 6.34 M 23.49 21.13 C 25.50 23.33 27.83 25.28 29.31 27.91 C 29.82 26.67 30.22 25.36 30.04 24.00 C 29.96 18.59 30.04 13.18 29.96 7.78 C 27.79 12.22 25.67 16.69 23.49 21.13 M 36.48 21.16 C 34.68 23.14 32.79 25.03 30.95 26.98 L 31.80 27.25 C 38.38 26.56 44.76 24.46 51.27 23.27 C 46.37 22.40 41.42 21.81 36.48 21.16 M 8.84 23.28 C 12.37 26.71 15.95 30.09 19.50 33.50 C 22.79 31.81 26.17 30.21 29.13 27.94 C 22.42 26.16 15.60 24.83 8.84 23.28 M 16.84 48.17 C 21.24 45.83 25.68 43.56 30.02 41.12 C 29.77 37.17 30.40 33.07 29.77 29.22 C 24.86 34.88 21.20 41.93 16.84 48.17 M 31.12 29.07 C 31.19 29.37 31.34 29.96 31.42 30.25 C 35.35 36.22 39.14 42.28 43.07 48.24 C 42.36 43.30 41.37 38.41 40.52 33.49 C 37.35 32.12 34.52 29.67 31.12 29.07 Z" />
<path fill="#968176" opacity="1.00" d=" M 13.21 8.17 C 15.53 7.07 17.16 10.79 14.86 11.89 C 12.47 12.91 10.78 9.15 13.21 8.17 Z" />
<path fill="#968176" opacity="1.00" d=" M 45.21 8.15 C 47.57 7.12 49.11 10.75 46.87 11.89 C 44.49 12.92 42.77 9.17 45.21 8.15 Z" />
<path fill="#968176" opacity="1.00" d=" M 7.24 36.09 C 9.62 35.21 11.08 38.73 8.87 39.89 C 6.41 40.89 4.81 37.14 7.24 36.09 Z" />
<path fill="#968176" opacity="1.00" d=" M 51.16 36.10 C 53.53 35.15 55.15 38.71 52.87 39.85 C 50.46 40.91 48.83 37.25 51.16 36.10 Z" />
</g>
</svg>
