<?xml version="1.0" encoding="UTF-8" ?>
<!DOCTYPE svg PUBLIC "-//W3C//DTD SVG 1.1//EN" "http://www.w3.org/Graphics/SVG/1.1/DTD/svg11.dtd">
<svg width="60pt" height="60pt" viewBox="0 0 60 60" version="1.1" xmlns="http://www.w3.org/2000/svg">
<g id="#ffffffff">
<path fill="#ffffff" opacity="1.00" d=" M 0.00 0.00 L 60.00 0.00 L 60.00 23.24 C 58.79 21.55 56.25 21.73 55.86 23.96 C 56.08 26.23 58.42 25.88 60.00 25.44 L 60.00 60.00 L 0.00 60.00 L 0.00 38.82 C 1.10 40.33 4.07 40.36 3.93 38.03 C 4.22 35.77 1.39 36.12 0.00 36.54 L 0.00 0.00 M 28.18 9.12 C 27.17 17.92 29.46 27.10 26.68 35.65 C 22.93 32.79 17.73 30.57 13.26 33.25 C 11.30 34.58 7.68 35.88 8.14 38.72 C 12.13 45.69 22.48 45.20 28.02 40.39 C 28.05 44.64 27.49 49.31 29.80 53.13 C 30.69 54.73 33.33 54.00 33.29 52.16 C 30.85 43.80 32.49 34.97 31.97 26.39 C 36.79 30.39 44.44 31.49 49.58 27.48 C 50.73 26.42 52.37 25.02 51.89 23.27 C 49.67 20.58 46.42 18.57 42.95 18.08 C 39.32 17.59 36.20 19.81 33.32 21.66 C 31.77 17.95 32.03 13.93 31.92 10.01 C 32.18 7.90 28.96 7.20 28.18 9.12 M 45.15 10.09 C 42.89 11.26 44.41 14.85 46.81 13.90 C 49.15 12.76 47.56 9.14 45.15 10.09 M 53.16 14.09 C 50.89 15.23 52.40 18.84 54.79 17.89 C 57.17 16.83 55.60 13.15 53.16 14.09 M 13.19 24.09 C 10.83 25.18 12.42 28.91 14.84 27.86 C 17.16 26.76 15.56 23.18 13.19 24.09 M 5.21 28.09 C 2.84 29.16 4.38 32.87 6.83 31.88 C 9.12 30.80 7.62 27.18 5.21 28.09 M 53.17 30.11 C 50.87 31.18 52.38 34.85 54.79 33.87 C 57.17 32.85 55.59 29.12 53.17 30.11 M 45.25 34.13 C 42.76 35.10 44.45 38.94 46.91 37.90 C 49.06 36.70 47.61 33.21 45.25 34.13 M 5.16 44.11 C 2.85 45.14 4.43 48.95 6.79 47.82 C 9.21 46.88 7.53 43.07 5.16 44.11 M 13.14 48.11 C 10.89 49.25 12.40 52.83 14.81 51.89 C 17.16 50.80 15.57 47.11 13.14 48.11 Z" />
<path fill="#ffffff" opacity="1.00" d=" M 36.20 24.70 C 37.97 23.56 39.73 22.13 41.93 22.00 C 43.99 22.08 45.71 23.38 47.47 24.31 C 44.08 26.56 39.80 26.29 36.20 24.70 Z" />
<path fill="#ffffff" opacity="1.00" d=" M 12.53 38.20 C 14.31 37.37 16.00 36.14 18.02 36.00 C 20.24 36.10 22.02 37.56 23.81 38.70 C 20.21 40.25 15.83 40.65 12.53 38.20 Z" />
</g>
<g id="#000000ff">
<path fill="#000000" opacity="1.00" d=" M 28.18 9.12 C 28.96 7.20 32.18 7.90 31.92 10.01 C 32.03 13.93 31.77 17.95 33.32 21.66 C 36.20 19.81 39.32 17.59 42.95 18.08 C 46.42 18.57 49.67 20.58 51.89 23.27 C 52.37 25.02 50.73 26.42 49.58 27.48 C 44.44 31.49 36.79 30.39 31.97 26.39 C 32.49 34.97 30.85 43.80 33.29 52.16 C 33.33 54.00 30.69 54.73 29.80 53.13 C 27.49 49.31 28.05 44.64 28.02 40.39 C 22.48 45.20 12.13 45.69 8.14 38.72 C 7.68 35.88 11.30 34.58 13.26 33.25 C 17.73 30.57 22.93 32.79 26.68 35.65 C 29.46 27.10 27.17 17.92 28.18 9.12 M 36.20 24.70 C 39.80 26.29 44.08 26.56 47.47 24.31 C 45.71 23.38 43.99 22.08 41.93 22.00 C 39.73 22.13 37.97 23.56 36.20 24.70 M 12.53 38.20 C 15.83 40.65 20.21 40.25 23.81 38.70 C 22.02 37.56 20.24 36.10 18.02 36.00 C 16.00 36.14 14.31 37.37 12.53 38.20 Z" />
<path fill="#000000" opacity="1.00" d=" M 45.15 10.09 C 47.56 9.14 49.15 12.76 46.81 13.90 C 44.41 14.85 42.89 11.26 45.15 10.09 Z" />
<path fill="#000000" opacity="1.00" d=" M 53.16 14.09 C 55.60 13.15 57.17 16.83 54.79 17.89 C 52.40 18.84 50.89 15.23 53.16 14.09 Z" />
<path fill="#000000" opacity="1.00" d=" M 55.86 23.96 C 56.25 21.73 58.79 21.55 60.00 23.24 L 60.00 25.44 C 58.42 25.88 56.08 26.23 55.86 23.96 Z" />
<path fill="#000000" opacity="1.00" d=" M 13.19 24.09 C 15.56 23.18 17.16 26.76 14.84 27.86 C 12.42 28.91 10.83 25.18 13.19 24.09 Z" />
<path fill="#000000" opacity="1.00" d=" M 5.21 28.09 C 7.62 27.18 9.12 30.80 6.83 31.88 C 4.38 32.87 2.84 29.16 5.21 28.09 Z" />
<path fill="#000000" opacity="1.00" d=" M 53.17 30.11 C 55.59 29.12 57.17 32.85 54.79 33.87 C 52.38 34.85 50.87 31.18 53.17 30.11 Z" />
<path fill="#000000" opacity="1.00" d=" M 45.25 34.13 C 47.61 33.21 49.06 36.70 46.91 37.90 C 44.45 38.94 42.76 35.10 45.25 34.13 Z" />
<path fill="#000000" opacity="1.00" d=" M 0.00 36.54 C 1.39 36.12 4.22 35.77 3.93 38.03 C 4.07 40.36 1.10 40.33 0.00 38.82 L 0.00 36.54 Z" />
<path fill="#000000" opacity="1.00" d=" M 5.16 44.11 C 7.53 43.07 9.21 46.88 6.79 47.82 C 4.43 48.95 2.85 45.14 5.16 44.11 Z" />
<path fill="#000000" opacity="1.00" d=" M 13.14 48.11 C 15.57 47.11 17.16 50.80 14.81 51.89 C 12.40 52.83 10.89 49.25 13.14 48.11 Z" />
</g>
</svg>
