<?xml version="1.0" encoding="UTF-8" ?>
<!DOCTYPE svg PUBLIC "-//W3C//DTD SVG 1.1//EN" "http://www.w3.org/Graphics/SVG/1.1/DTD/svg11.dtd">
<svg width="60pt" height="60pt" viewBox="0 0 60 60" version="1.1" xmlns="http://www.w3.org/2000/svg">
<g id="#ffffffff">
<path fill="#ffffff" opacity="1.00" d=" M 0.00 0.00 L 60.00 0.00 L 60.00 60.00 L 0.00 60.00 L 0.00 0.00 M 17.19 8.09 C 14.85 9.19 16.41 12.87 18.81 11.89 C 21.14 10.80 19.61 7.17 17.19 8.09 M 29.15 8.09 C 26.81 9.31 28.51 12.91 30.94 11.88 C 33.08 10.59 31.53 7.17 29.15 8.09 M 49.26 8.15 C 46.73 8.96 48.46 13.01 50.75 11.80 C 53.24 11.03 51.54 7.03 49.26 8.15 M 41.21 10.17 C 38.75 11.04 40.50 15.03 42.79 13.81 C 45.24 12.96 43.49 8.97 41.21 10.17 M 7.45 14.58 C 5.00 15.66 3.79 18.38 4.00 20.96 C 4.03 28.01 3.92 35.06 4.05 42.11 C 3.99 44.93 6.26 47.46 9.00 47.90 C 12.45 48.60 16.04 45.63 15.95 42.10 C 16.03 36.07 16.09 30.03 15.92 24.00 C 16.13 21.90 12.93 21.23 12.19 23.16 C 11.59 29.72 12.41 36.34 11.81 42.90 C 11.00 44.73 7.83 44.09 8.07 42.01 C 7.94 34.69 7.95 27.36 8.07 20.05 C 7.87 17.65 12.17 18.29 11.94 15.95 C 12.04 13.66 8.91 13.69 7.45 14.58 M 16.23 14.13 C 14.49 14.54 14.39 17.35 16.27 17.67 C 20.00 18.47 18.71 23.52 21.90 25.05 C 23.72 26.21 27.58 26.91 28.06 24.01 C 27.88 21.20 23.47 22.87 23.19 20.13 C 22.55 16.87 19.97 13.37 16.23 14.13 M 26.21 14.13 C 24.47 14.57 24.41 17.37 26.29 17.68 C 30.00 18.48 28.71 23.53 31.90 25.05 C 33.80 26.47 38.62 26.73 37.92 23.27 C 36.87 21.49 33.47 22.58 33.18 20.11 C 32.55 16.84 29.94 13.35 26.21 14.13 M 34.84 15.97 C 34.99 18.25 38.52 17.63 38.81 19.88 C 39.43 22.62 41.12 24.91 43.92 25.69 C 44.15 31.17 43.85 36.66 44.05 42.15 C 44.01 44.93 46.24 47.44 48.95 47.89 C 52.40 48.63 56.02 45.67 55.94 42.15 C 56.05 34.72 56.05 27.28 55.94 19.85 C 56.01 16.26 52.43 13.54 48.99 13.97 C 47.79 13.84 45.79 14.39 46.06 15.96 C 45.95 19.44 51.92 16.54 51.93 19.97 C 52.06 27.31 52.06 34.67 51.93 42.01 C 52.15 44.09 48.96 44.74 48.18 42.87 C 47.61 36.30 48.39 29.68 47.82 23.11 C 46.84 21.83 44.87 22.22 43.66 21.26 C 42.58 19.10 42.40 16.23 40.07 14.93 C 38.48 13.80 35.11 13.30 34.84 15.97 M 21.21 28.09 C 18.85 29.15 20.39 32.85 22.79 31.90 C 25.14 30.82 23.62 27.18 21.21 28.09 M 39.16 30.11 C 36.90 31.19 38.35 34.80 40.76 33.90 C 43.17 32.90 41.61 29.10 39.16 30.11 Z" />
</g>
<g id="#000000ff">
<path fill="#968176" opacity="1.00" d=" M 17.19 8.09 C 19.61 7.17 21.14 10.80 18.81 11.89 C 16.41 12.87 14.85 9.19 17.19 8.09 Z" />
<path fill="#968176" opacity="1.00" d=" M 29.15 8.09 C 31.53 7.17 33.08 10.59 30.94 11.88 C 28.51 12.91 26.81 9.31 29.15 8.09 Z" />
<path fill="#968176" opacity="1.00" d=" M 49.26 8.15 C 51.54 7.03 53.24 11.03 50.75 11.80 C 48.46 13.01 46.73 8.96 49.26 8.15 Z" />
<path fill="#968176" opacity="1.00" d=" M 41.21 10.17 C 43.49 8.97 45.24 12.96 42.79 13.81 C 40.50 15.03 38.75 11.04 41.21 10.17 Z" />
<path fill="#968176" opacity="1.00" d=" M 7.45 14.58 C 8.91 13.69 12.04 13.66 11.94 15.95 C 12.17 18.29 7.87 17.65 8.07 20.05 C 7.95 27.36 7.94 34.69 8.07 42.01 C 7.83 44.09 11.00 44.73 11.81 42.90 C 12.41 36.34 11.59 29.72 12.19 23.16 C 12.93 21.23 16.13 21.90 15.92 24.00 C 16.09 30.03 16.03 36.07 15.95 42.10 C 16.04 45.63 12.45 48.60 9.00 47.90 C 6.26 47.46 3.99 44.93 4.05 42.11 C 3.92 35.06 4.03 28.01 4.00 20.96 C 3.79 18.38 5.00 15.66 7.45 14.58 Z" />
<path fill="#968176" opacity="1.00" d=" M 16.23 14.13 C 19.97 13.37 22.55 16.87 23.19 20.13 C 23.47 22.87 27.88 21.20 28.06 24.01 C 27.58 26.91 23.72 26.21 21.90 25.05 C 18.71 23.52 20.00 18.47 16.27 17.67 C 14.39 17.35 14.49 14.54 16.23 14.13 Z" />
<path fill="#968176" opacity="1.00" d=" M 26.21 14.13 C 29.94 13.35 32.55 16.84 33.18 20.11 C 33.47 22.58 36.87 21.49 37.92 23.27 C 38.62 26.73 33.80 26.47 31.90 25.05 C 28.71 23.53 30.00 18.48 26.29 17.68 C 24.41 17.37 24.47 14.57 26.21 14.13 Z" />
<path fill="#968176" opacity="1.00" d=" M 34.84 15.97 C 35.11 13.30 38.48 13.80 40.07 14.93 C 42.40 16.23 42.58 19.10 43.66 21.26 C 44.87 22.22 46.84 21.83 47.82 23.11 C 48.39 29.68 47.61 36.30 48.18 42.87 C 48.96 44.74 52.15 44.09 51.93 42.01 C 52.06 34.67 52.06 27.31 51.93 19.97 C 51.92 16.54 45.95 19.44 46.06 15.96 C 45.79 14.39 47.79 13.84 48.99 13.97 C 52.43 13.54 56.01 16.26 55.94 19.85 C 56.05 27.28 56.05 34.72 55.94 42.15 C 56.02 45.67 52.40 48.63 48.95 47.89 C 46.24 47.44 44.01 44.93 44.05 42.15 C 43.85 36.66 44.15 31.17 43.92 25.69 C 41.12 24.91 39.43 22.62 38.81 19.88 C 38.52 17.63 34.99 18.25 34.84 15.97 Z" />
<path fill="#968176" opacity="1.00" d=" M 21.21 28.09 C 23.62 27.18 25.14 30.82 22.79 31.90 C 20.39 32.85 18.85 29.15 21.21 28.09 Z" />
<path fill="#968176" opacity="1.00" d=" M 39.16 30.11 C 41.61 29.10 43.17 32.90 40.76 33.90 C 38.35 34.80 36.90 31.19 39.16 30.11 Z" />
</g>
</svg>
