<?xml version="1.0" encoding="UTF-8" ?>
<!DOCTYPE svg PUBLIC "-//W3C//DTD SVG 1.1//EN" "http://www.w3.org/Graphics/SVG/1.1/DTD/svg11.dtd">
<svg width="60pt" height="60pt" viewBox="0 0 60 60" version="1.1" xmlns="http://www.w3.org/2000/svg">
<g id="#ffffffff">
<path fill="#ffffff" opacity="1.00" d=" M 0.00 0.00 L 60.00 0.00 L 60.00 60.00 L 0.00 60.00 L 0.00 0.00 M 23.71 9.70 C 18.32 9.31 13.11 7.91 7.88 6.64 C 5.78 6.63 5.29 9.89 7.32 10.44 C 12.22 12.14 17.38 12.98 22.51 13.69 C 24.39 13.17 24.07 10.92 24.21 9.46 C 25.99 9.70 28.83 10.39 27.81 12.82 C 26.12 13.90 23.21 13.80 23.74 16.66 C 19.26 22.42 17.86 29.95 18.05 37.10 C 18.29 44.41 22.58 51.20 28.47 55.35 C 29.49 56.17 30.51 56.17 31.52 55.35 C 37.73 51.01 42.08 43.70 41.98 36.01 C 41.91 29.17 40.58 21.89 36.03 16.52 C 36.02 15.83 35.99 14.47 35.98 13.78 C 41.62 13.17 47.28 12.31 52.66 10.44 C 54.74 9.95 54.27 6.58 52.11 6.63 C 46.88 7.92 41.64 9.34 36.23 9.71 C 35.45 8.56 35.09 6.92 33.64 6.38 C 30.10 5.48 24.94 5.33 23.71 9.70 M 13.21 24.10 C 10.80 25.06 12.47 29.00 14.76 27.81 C 17.20 26.93 15.56 23.09 13.21 24.10 M 45.23 24.10 C 42.80 25.08 44.42 28.96 46.83 27.84 C 49.15 26.82 47.58 23.16 45.23 24.10 M 7.09 32.18 C 5.30 33.02 5.91 36.06 7.93 35.96 C 10.07 36.07 14.66 36.75 13.89 33.22 C 12.41 31.09 9.27 32.14 7.09 32.18 M 47.14 32.17 C 46.88 32.43 46.36 32.94 46.10 33.19 C 45.32 36.71 49.84 36.09 52.00 35.96 C 54.06 36.11 54.73 33.02 52.89 32.18 C 51.00 31.87 49.03 31.87 47.14 32.17 M 13.26 40.13 C 10.80 41.05 12.37 44.87 14.79 43.88 C 17.14 42.90 15.61 39.13 13.26 40.13 M 45.19 40.13 C 42.82 41.17 44.42 44.88 46.82 43.87 C 49.16 42.86 47.58 39.09 45.19 40.13 Z" />
<path fill="#ffffff" opacity="1.00" d=" M 26.70 19.62 C 28.31 17.45 31.75 17.54 33.35 19.69 C 37.09 24.16 37.82 30.35 37.96 35.98 C 38.12 42.11 34.92 47.92 30.00 51.47 C 25.10 47.93 21.88 42.15 22.04 36.04 C 22.15 30.36 22.92 24.13 26.70 19.62 Z" />
</g>
<g id="#000000ff">
<path fill="#968176" opacity="1.00" d=" M 23.71 9.70 C 24.94 5.33 30.10 5.48 33.64 6.38 C 35.09 6.92 35.45 8.56 36.23 9.71 C 41.64 9.34 46.88 7.92 52.11 6.63 C 54.27 6.58 54.74 9.95 52.66 10.44 C 47.28 12.31 41.62 13.17 35.98 13.78 C 35.99 14.47 36.02 15.83 36.03 16.52 C 40.58 21.89 41.91 29.17 41.98 36.01 C 42.08 43.70 37.73 51.01 31.52 55.35 C 30.51 56.17 29.49 56.17 28.47 55.35 C 22.58 51.20 18.29 44.41 18.05 37.10 C 17.86 29.95 19.26 22.42 23.74 16.66 C 23.21 13.80 26.12 13.90 27.81 12.82 C 28.83 10.39 25.99 9.70 24.21 9.46 C 24.07 10.92 24.39 13.17 22.51 13.69 C 17.38 12.98 12.22 12.14 7.32 10.44 C 5.29 9.89 5.78 6.63 7.88 6.64 C 13.11 7.91 18.32 9.31 23.71 9.70 M 26.70 19.62 C 22.92 24.13 22.15 30.36 22.04 36.04 C 21.88 42.15 25.10 47.93 30.00 51.47 C 34.92 47.92 38.12 42.11 37.96 35.98 C 37.82 30.35 37.09 24.16 33.35 19.69 C 31.75 17.54 28.31 17.45 26.70 19.62 Z" />
<path fill="#968176" opacity="1.00" d=" M 13.21 24.10 C 15.56 23.09 17.20 26.93 14.76 27.81 C 12.47 29.00 10.80 25.06 13.21 24.10 Z" />
<path fill="#968176" opacity="1.00" d=" M 45.23 24.10 C 47.58 23.16 49.15 26.82 46.83 27.84 C 44.42 28.96 42.80 25.08 45.23 24.10 Z" />
<path fill="#968176" opacity="1.00" d=" M 7.09 32.18 C 9.27 32.14 12.41 31.09 13.89 33.22 C 14.66 36.75 10.07 36.07 7.93 35.96 C 5.91 36.06 5.30 33.02 7.09 32.18 Z" />
<path fill="#968176" opacity="1.00" d=" M 47.14 32.17 C 49.03 31.87 51.00 31.87 52.89 32.18 C 54.73 33.02 54.06 36.11 52.00 35.96 C 49.84 36.09 45.32 36.71 46.10 33.19 C 46.36 32.94 46.88 32.43 47.14 32.17 Z" />
<path fill="#968176" opacity="1.00" d=" M 13.26 40.13 C 15.61 39.13 17.14 42.90 14.79 43.88 C 12.37 44.87 10.80 41.05 13.26 40.13 Z" />
<path fill="#968176" opacity="1.00" d=" M 45.19 40.13 C 47.58 39.09 49.16 42.86 46.82 43.87 C 44.42 44.88 42.82 41.17 45.19 40.13 Z" />
</g>
</svg>
