<?xml version="1.0" encoding="UTF-8" ?>
<!DOCTYPE svg PUBLIC "-//W3C//DTD SVG 1.1//EN" "http://www.w3.org/Graphics/SVG/1.1/DTD/svg11.dtd">
<svg width="60pt" height="60pt" viewBox="0 0 60 60" version="1.1" xmlns="http://www.w3.org/2000/svg">
<g id="#ffffffff">
<path fill="#ffffff" opacity="1.00" d=" M 0.00 0.00 L 60.00 0.00 L 60.00 60.00 L 0.00 60.00 L 0.00 0.00 M 16.67 13.65 C 12.88 13.76 12.90 20.80 16.95 19.99 C 26.24 19.91 35.56 20.21 44.83 19.84 C 47.06 18.24 46.37 13.88 43.33 13.65 C 41.72 9.10 37.86 5.37 33.08 4.37 C 26.23 2.63 18.83 7.01 16.67 13.65 M 17.29 24.04 C 19.44 28.16 23.41 31.11 27.99 31.94 C 28.08 39.29 27.87 46.66 28.08 54.00 C 27.78 56.57 32.17 56.60 31.92 54.03 C 32.13 46.67 31.92 39.30 32.01 31.93 C 36.59 31.10 40.55 28.16 42.70 24.04 C 34.23 23.98 25.76 23.97 17.29 24.04 Z" />
</g>
<g id="#000000ff">
<path fill="#000000" opacity="1.00" d=" M 16.67 13.65 C 18.83 7.01 26.23 2.63 33.08 4.37 C 37.86 5.37 41.72 9.10 43.33 13.65 C 46.37 13.88 47.06 18.24 44.83 19.84 C 35.56 20.21 26.24 19.91 16.95 19.99 C 12.90 20.80 12.88 13.76 16.67 13.65 Z" />
<path fill="#000000" opacity="1.00" d=" M 17.29 24.04 C 25.76 23.97 34.23 23.98 42.70 24.04 C 40.55 28.16 36.59 31.10 32.01 31.93 C 31.92 39.30 32.13 46.67 31.92 54.03 C 32.17 56.60 27.78 56.57 28.08 54.00 C 27.87 46.66 28.08 39.29 27.99 31.94 C 23.41 31.11 19.44 28.16 17.29 24.04 Z" />
</g>
</svg>
