<?xml version="1.0" encoding="UTF-8" ?>
<!DOCTYPE svg PUBLIC "-//W3C//DTD SVG 1.1//EN" "http://www.w3.org/Graphics/SVG/1.1/DTD/svg11.dtd">
<svg width="60pt" height="60pt" viewBox="0 0 60 60" version="1.1" xmlns="http://www.w3.org/2000/svg">
<g id="#ffffffff">
<path fill="#ffffff" opacity="1.00" d=" M 0.00 0.00 L 60.00 0.00 L 60.00 60.00 L 0.00 60.00 L 0.00 0.00 M 6.38 8.36 C 4.64 9.12 3.79 11.07 4.00 12.90 C 4.03 24.65 3.93 36.40 4.05 48.15 C 3.96 50.65 6.61 52.34 8.92 52.00 C 23.33 51.97 37.74 52.06 52.14 51.95 C 54.61 51.97 56.36 49.40 56.00 47.07 C 56.00 35.69 56.00 24.30 56.00 12.91 C 56.34 10.60 54.64 7.95 52.13 8.04 C 38.40 7.92 24.68 8.06 10.95 7.98 C 9.44 8.08 7.82 7.78 6.38 8.36 Z" />
<path fill="#ffffff" opacity="1.00" d=" M 8.00 12.00 C 10.00 12.00 12.00 12.00 14.00 12.00 C 14.00 14.00 14.00 16.00 14.00 18.00 C 12.00 18.00 10.00 18.00 8.00 18.00 C 8.00 16.00 8.00 14.00 8.00 12.00 Z" />
<path fill="#ffffff" opacity="1.00" d=" M 46.00 12.00 C 48.00 12.00 50.00 12.00 52.00 12.00 C 52.00 14.00 52.00 16.00 52.00 18.00 C 50.00 18.00 48.00 18.00 46.00 18.00 C 46.00 16.00 46.00 14.00 46.00 12.00 Z" />
<path fill="#ffffff" opacity="1.00" d=" M 23.17 20.19 C 27.42 20.54 31.02 24.23 34.99 25.96 C 36.74 27.35 40.53 27.96 39.90 30.84 C 35.42 34.21 30.24 36.58 25.41 39.43 C 24.25 40.56 21.90 39.80 22.07 38.05 C 21.99 32.44 21.84 26.80 22.15 21.20 C 22.41 20.95 22.92 20.44 23.17 20.19 Z" />
<path fill="#ffffff" opacity="1.00" d=" M 8.00 22.00 C 10.00 22.00 12.00 22.00 14.00 22.00 C 14.00 24.00 14.00 26.00 14.00 28.00 C 12.00 28.00 10.00 28.00 8.00 28.00 C 8.00 26.00 8.00 24.00 8.00 22.00 Z" />
<path fill="#ffffff" opacity="1.00" d=" M 46.00 22.00 C 48.00 22.00 50.00 22.00 52.00 22.00 C 52.00 24.00 52.00 26.00 52.00 28.00 C 50.00 28.00 48.00 28.00 46.00 28.00 C 46.00 26.00 46.00 24.00 46.00 22.00 Z" />
<path fill="#ffffff" opacity="1.00" d=" M 8.00 32.00 C 10.00 32.00 12.00 32.00 14.00 32.00 C 14.00 34.00 14.00 36.00 14.00 38.00 C 12.00 38.00 10.00 38.00 8.00 38.00 C 8.00 36.00 8.00 34.00 8.00 32.00 Z" />
<path fill="#ffffff" opacity="1.00" d=" M 46.00 32.00 C 48.00 32.00 50.00 32.00 52.00 32.00 C 52.00 34.00 52.00 36.00 52.00 38.00 C 50.00 38.00 48.00 38.00 46.00 38.00 C 46.00 36.00 46.00 34.00 46.00 32.00 Z" />
<path fill="#ffffff" opacity="1.00" d=" M 8.00 42.00 C 10.00 42.00 12.00 42.00 14.00 42.00 C 14.00 44.00 14.00 46.00 14.00 48.00 C 12.00 48.00 10.00 48.00 8.00 48.00 C 8.00 46.00 8.00 44.00 8.00 42.00 Z" />
<path fill="#ffffff" opacity="1.00" d=" M 46.00 42.00 C 48.00 42.00 50.00 42.00 52.00 42.00 C 52.00 44.00 52.00 46.00 52.00 48.00 C 50.00 48.00 48.00 48.00 46.00 48.00 C 46.00 46.00 46.00 44.00 46.00 42.00 Z" />
</g>
<g id="#000000ff">
<path fill="#000000" opacity="1.00" d=" M 6.38 8.36 C 7.82 7.78 9.44 8.08 10.95 7.98 C 24.68 8.06 38.40 7.92 52.13 8.04 C 54.64 7.95 56.34 10.60 56.00 12.91 C 56.00 24.30 56.00 35.69 56.00 47.07 C 56.36 49.40 54.61 51.97 52.14 51.95 C 37.74 52.06 23.33 51.97 8.92 52.00 C 6.61 52.34 3.96 50.65 4.05 48.15 C 3.93 36.40 4.03 24.65 4.00 12.90 C 3.79 11.07 4.64 9.12 6.38 8.36 M 8.00 12.00 C 8.00 14.00 8.00 16.00 8.00 18.00 C 10.00 18.00 12.00 18.00 14.00 18.00 C 14.00 16.00 14.00 14.00 14.00 12.00 C 12.00 12.00 10.00 12.00 8.00 12.00 M 46.00 12.00 C 46.00 14.00 46.00 16.00 46.00 18.00 C 48.00 18.00 50.00 18.00 52.00 18.00 C 52.00 16.00 52.00 14.00 52.00 12.00 C 50.00 12.00 48.00 12.00 46.00 12.00 M 23.17 20.19 C 22.92 20.44 22.41 20.95 22.15 21.20 C 21.84 26.80 21.99 32.44 22.07 38.05 C 21.90 39.80 24.25 40.56 25.41 39.43 C 30.24 36.58 35.42 34.21 39.90 30.84 C 40.53 27.96 36.74 27.35 34.99 25.96 C 31.02 24.23 27.42 20.54 23.17 20.19 M 8.00 22.00 C 8.00 24.00 8.00 26.00 8.00 28.00 C 10.00 28.00 12.00 28.00 14.00 28.00 C 14.00 26.00 14.00 24.00 14.00 22.00 C 12.00 22.00 10.00 22.00 8.00 22.00 M 46.00 22.00 C 46.00 24.00 46.00 26.00 46.00 28.00 C 48.00 28.00 50.00 28.00 52.00 28.00 C 52.00 26.00 52.00 24.00 52.00 22.00 C 50.00 22.00 48.00 22.00 46.00 22.00 M 8.00 32.00 C 8.00 34.00 8.00 36.00 8.00 38.00 C 10.00 38.00 12.00 38.00 14.00 38.00 C 14.00 36.00 14.00 34.00 14.00 32.00 C 12.00 32.00 10.00 32.00 8.00 32.00 M 46.00 32.00 C 46.00 34.00 46.00 36.00 46.00 38.00 C 48.00 38.00 50.00 38.00 52.00 38.00 C 52.00 36.00 52.00 34.00 52.00 32.00 C 50.00 32.00 48.00 32.00 46.00 32.00 M 8.00 42.00 C 8.00 44.00 8.00 46.00 8.00 48.00 C 10.00 48.00 12.00 48.00 14.00 48.00 C 14.00 46.00 14.00 44.00 14.00 42.00 C 12.00 42.00 10.00 42.00 8.00 42.00 M 46.00 42.00 C 46.00 44.00 46.00 46.00 46.00 48.00 C 48.00 48.00 50.00 48.00 52.00 48.00 C 52.00 46.00 52.00 44.00 52.00 42.00 C 50.00 42.00 48.00 42.00 46.00 42.00 Z" />
</g>
</svg>
