<?xml version="1.0" encoding="UTF-8" ?>
<!DOCTYPE svg PUBLIC "-//W3C//DTD SVG 1.1//EN" "http://www.w3.org/Graphics/SVG/1.1/DTD/svg11.dtd">
<svg width="60pt" height="60pt" viewBox="0 0 60 60" version="1.1" xmlns="http://www.w3.org/2000/svg">
<g id="#ffffffff">
<path fill="#ffffff" opacity="1.00" d=" M 0.00 0.00 L 60.00 0.00 L 60.00 60.00 L 0.00 60.00 L 0.00 0.00 M 24.48 6.64 C 16.88 8.40 10.34 14.11 7.59 21.42 C 4.57 29.14 5.96 38.40 11.17 44.86 C 16.46 51.66 25.57 55.19 34.06 53.64 C 43.09 52.21 50.84 45.11 53.15 36.28 C 55.57 27.72 52.67 17.96 45.98 12.10 C 40.27 6.91 31.97 4.84 24.48 6.64 Z" />
<path fill="#ffffff" opacity="1.00" d=" M 32.65 16.61 C 33.99 14.98 36.78 16.89 35.84 18.76 C 32.43 22.74 28.46 26.21 24.83 30.00 C 28.33 33.58 31.99 36.99 35.40 40.65 C 37.02 42.01 35.08 44.80 33.22 43.83 C 28.97 40.08 25.15 35.85 21.08 31.89 C 20.08 31.19 19.55 29.55 20.59 28.65 C 24.56 24.58 28.56 20.54 32.65 16.61 Z" />
</g>
<g id="#000000ff">
<path fill="#000000" opacity="1.00" d=" M 24.48 6.64 C 31.97 4.84 40.27 6.91 45.98 12.10 C 52.67 17.96 55.57 27.72 53.15 36.28 C 50.84 45.11 43.09 52.21 34.06 53.64 C 25.57 55.19 16.46 51.66 11.17 44.86 C 5.96 38.40 4.57 29.14 7.59 21.42 C 10.34 14.11 16.88 8.40 24.48 6.64 M 32.65 16.61 C 28.56 20.54 24.56 24.58 20.59 28.65 C 19.55 29.55 20.08 31.19 21.08 31.89 C 25.15 35.85 28.97 40.08 33.22 43.83 C 35.08 44.80 37.02 42.01 35.40 40.65 C 31.99 36.99 28.33 33.58 24.83 30.00 C 28.46 26.21 32.43 22.74 35.84 18.76 C 36.78 16.89 33.99 14.98 32.65 16.61 Z" />
</g>
</svg>
