<?xml version="1.0" encoding="UTF-8" ?>
<!DOCTYPE svg PUBLIC "-//W3C//DTD SVG 1.1//EN" "http://www.w3.org/Graphics/SVG/1.1/DTD/svg11.dtd">
<svg width="60pt" height="60pt" viewBox="0 0 60 60" version="1.1" xmlns="http://www.w3.org/2000/svg">
<g id="#ffffffff">
<path fill="#ffffff" opacity="1.00" d=" M 0.00 0.00 L 60.00 0.00 L 60.00 60.00 L 0.00 60.00 L 0.00 0.00 M 24.46 6.65 C 17.59 8.26 11.56 13.06 8.48 19.40 C 5.20 25.94 5.20 33.99 8.45 40.54 C 11.88 47.66 19.04 52.83 26.89 53.78 C 33.69 54.70 40.86 52.52 45.95 47.91 C 51.28 43.21 54.32 36.04 53.96 28.94 C 53.70 21.81 50.01 14.91 44.26 10.70 C 38.69 6.52 31.23 5.03 24.46 6.65 Z" />
<path fill="#ffffff" opacity="1.00" d=" M 29.19 20.17 C 31.11 19.50 32.19 21.55 33.44 22.58 C 36.84 26.20 40.63 29.45 43.86 33.23 C 44.74 35.19 42.02 36.97 40.61 35.37 C 36.98 31.94 33.58 28.30 30.00 24.83 C 26.24 28.47 22.73 32.39 18.80 35.84 C 16.84 36.77 15.03 34.06 16.61 32.64 C 20.76 28.44 24.83 24.14 29.19 20.17 Z" />
</g>
<g id="#000000ff">
<path fill="#968176" opacity="1.00" d=" M 24.46 6.65 C 31.23 5.03 38.69 6.52 44.26 10.70 C 50.01 14.91 53.70 21.81 53.96 28.94 C 54.32 36.04 51.28 43.21 45.95 47.91 C 40.86 52.52 33.69 54.70 26.89 53.78 C 19.04 52.83 11.88 47.66 8.45 40.54 C 5.20 33.99 5.20 25.94 8.48 19.40 C 11.56 13.06 17.59 8.26 24.46 6.65 M 29.19 20.17 C 24.83 24.14 20.76 28.44 16.61 32.64 C 15.03 34.06 16.84 36.77 18.80 35.84 C 22.73 32.39 26.24 28.47 30.00 24.83 C 33.58 28.30 36.98 31.94 40.61 35.37 C 42.02 36.97 44.74 35.19 43.86 33.23 C 40.63 29.45 36.84 26.20 33.44 22.58 C 32.19 21.55 31.11 19.50 29.19 20.17 Z" />
</g>
</svg>
