<?xml version="1.0" encoding="UTF-8" ?>
<!DOCTYPE svg PUBLIC "-//W3C//DTD SVG 1.1//EN" "http://www.w3.org/Graphics/SVG/1.1/DTD/svg11.dtd">
<svg width="60pt" height="60pt" viewBox="0 0 60 60" version="1.1" xmlns="http://www.w3.org/2000/svg">
<g id="#ffffffff">
<path fill="#ffffff" opacity="1.00" d=" M 0.00 0.00 L 60.00 0.00 L 60.00 60.00 L 0.00 60.00 L 0.00 0.00 M 8.00 12.93 C 8.03 24.66 7.93 36.38 8.05 48.10 C 7.94 50.61 10.57 52.33 12.88 52.00 C 24.94 51.99 37.01 52.03 49.07 51.97 C 46.98 49.81 44.88 47.66 42.74 45.55 C 39.52 46.70 35.43 45.44 34.34 41.98 C 32.51 37.52 37.49 32.50 41.96 34.34 C 45.44 35.42 46.70 39.51 45.55 42.73 C 47.66 44.87 49.82 46.97 51.98 49.07 C 52.03 37.04 51.99 25.01 52.00 12.99 C 52.35 10.64 50.66 7.93 48.10 8.05 C 43.68 7.90 39.25 8.07 34.83 7.98 C 31.75 11.09 28.66 14.19 25.55 17.27 C 26.70 20.49 25.43 24.60 21.95 25.66 C 17.84 27.31 13.09 23.19 14.11 18.89 C 14.70 15.10 19.12 12.97 22.58 14.51 C 24.84 12.41 26.98 10.18 29.17 8.00 C 23.41 8.04 17.65 7.92 11.90 8.04 C 9.41 7.99 7.62 10.59 8.00 12.93 M 19.20 18.18 C 16.80 19.12 18.45 22.90 20.80 21.90 C 23.19 20.90 21.53 17.00 19.20 18.18 M 39.16 38.11 C 36.88 39.21 38.39 42.85 40.80 41.90 C 43.15 40.81 41.58 37.12 39.16 38.11 Z" />
<path fill="#ffffff" opacity="1.00" d=" M 34.45 22.74 C 33.29 19.52 34.55 15.43 38.01 14.35 C 42.48 12.49 47.49 17.49 45.66 21.96 C 44.59 25.43 40.49 26.71 37.28 25.55 C 33.39 29.47 29.47 33.37 25.55 37.26 C 26.70 40.47 25.46 44.55 22.01 45.64 C 17.54 47.52 12.51 42.52 14.33 38.04 C 15.41 34.56 19.53 33.27 22.76 34.45 C 26.64 30.53 30.55 26.63 34.45 22.74 M 39.18 18.20 C 36.80 19.13 38.45 22.89 40.79 21.89 C 43.20 20.93 41.53 16.98 39.18 18.20 M 19.17 38.10 C 16.89 39.17 18.36 42.84 20.78 41.90 C 23.15 40.87 21.62 37.12 19.17 38.10 Z" />
</g>
<g id="#000000ff">
<path fill="#968176" opacity="1.00" d=" M 8.00 12.93 C 7.62 10.59 9.41 7.99 11.90 8.04 C 17.65 7.92 23.41 8.04 29.17 8.00 C 26.98 10.18 24.84 12.41 22.58 14.51 C 19.12 12.97 14.70 15.10 14.11 18.89 C 13.09 23.19 17.84 27.31 21.95 25.66 C 25.43 24.60 26.70 20.49 25.55 17.27 C 28.66 14.19 31.75 11.09 34.83 7.98 C 39.25 8.07 43.68 7.90 48.10 8.05 C 50.66 7.93 52.35 10.64 52.00 12.99 C 51.99 25.01 52.03 37.04 51.98 49.07 C 49.82 46.97 47.66 44.87 45.55 42.73 C 46.70 39.51 45.44 35.42 41.96 34.34 C 37.49 32.50 32.51 37.52 34.34 41.98 C 35.43 45.44 39.52 46.70 42.74 45.55 C 44.88 47.66 46.98 49.81 49.07 51.97 C 37.01 52.03 24.94 51.99 12.88 52.00 C 10.57 52.33 7.94 50.61 8.05 48.10 C 7.93 36.38 8.03 24.66 8.00 12.93 M 34.45 22.74 C 30.55 26.63 26.64 30.53 22.76 34.45 C 19.53 33.27 15.41 34.56 14.33 38.04 C 12.51 42.52 17.54 47.52 22.01 45.64 C 25.46 44.55 26.70 40.47 25.55 37.26 C 29.47 33.37 33.39 29.47 37.28 25.55 C 40.49 26.71 44.59 25.43 45.66 21.96 C 47.49 17.49 42.48 12.49 38.01 14.35 C 34.55 15.43 33.29 19.52 34.45 22.74 Z" />
<path fill="#968176" opacity="1.00" d=" M 19.20 18.18 C 21.53 17.00 23.19 20.90 20.80 21.90 C 18.45 22.90 16.80 19.12 19.20 18.18 Z" />
<path fill="#968176" opacity="1.00" d=" M 39.18 18.20 C 41.53 16.98 43.20 20.93 40.79 21.89 C 38.45 22.89 36.80 19.13 39.18 18.20 Z" />
<path fill="#968176" opacity="1.00" d=" M 19.17 38.10 C 21.62 37.12 23.15 40.87 20.78 41.90 C 18.36 42.84 16.89 39.17 19.17 38.10 Z" />
<path fill="#968176" opacity="1.00" d=" M 39.16 38.11 C 41.58 37.12 43.15 40.81 40.80 41.90 C 38.39 42.85 36.88 39.21 39.16 38.11 Z" />
</g>
</svg>
