<?xml version="1.0" encoding="UTF-8" ?>
<!DOCTYPE svg PUBLIC "-//W3C//DTD SVG 1.1//EN" "http://www.w3.org/Graphics/SVG/1.1/DTD/svg11.dtd">
<svg width="64pt" height="64pt" viewBox="0 0 64 64" version="1.1" xmlns="http://www.w3.org/2000/svg">
<g id="#ffffffff">
<path fill="#ffffff" opacity="1.00" d=" M 0.00 0.00 L 64.00 0.00 L 64.00 64.00 L 0.00 64.00 L 0.00 0.00 M 20.95 8.32 C 21.51 9.53 22.06 10.74 22.59 11.96 C 33.32 6.95 47.34 11.92 52.04 22.91 C 50.45 22.14 48.87 21.36 47.29 20.59 C 46.71 21.79 46.12 23.00 45.53 24.20 C 49.00 25.87 52.47 27.58 55.93 29.29 C 57.57 25.87 59.18 22.45 60.81 19.04 C 59.60 18.49 58.39 17.92 57.19 17.33 C 56.63 18.52 56.08 19.71 55.52 20.90 C 52.72 15.24 47.99 10.50 42.11 8.08 C 35.42 5.19 27.61 5.46 20.95 8.32 M 6.47 13.41 C 6.57 14.73 6.65 16.06 6.72 17.39 C 8.03 17.31 9.34 17.23 10.65 17.14 C 7.16 22.37 5.34 28.78 6.21 35.07 C 6.97 42.45 11.23 49.21 17.24 53.48 C 17.99 52.38 18.74 51.29 19.50 50.20 C 9.57 43.58 7.03 28.86 14.04 19.24 C 14.19 21.00 14.30 22.76 14.41 24.53 C 15.40 24.46 17.40 24.33 18.39 24.27 C 18.16 20.40 17.92 16.54 17.67 12.67 C 13.94 12.91 10.20 13.16 6.47 13.41 M 54.07 33.85 C 53.23 45.75 41.80 55.17 29.97 54.01 C 31.39 53.00 32.83 52.03 34.28 51.06 C 33.55 49.95 32.83 48.84 32.12 47.73 C 28.88 49.82 25.65 51.92 22.43 54.03 C 24.56 57.16 26.52 60.42 28.84 63.42 C 29.90 62.72 30.97 62.02 32.04 61.34 C 31.31 60.21 30.58 59.07 29.86 57.94 C 37.13 58.46 44.58 55.96 49.88 50.92 C 54.58 46.60 57.37 40.48 58.05 34.17 C 56.72 34.07 55.40 33.96 54.07 33.85 Z" />
</g>
<g id="#000000ff">
<path fill="#000000" opacity="1.00" d=" M 20.95 8.32 C 27.61 5.46 35.42 5.19 42.11 8.08 C 47.99 10.50 52.72 15.24 55.52 20.90 C 56.08 19.71 56.63 18.52 57.19 17.33 C 58.39 17.92 59.60 18.49 60.81 19.04 C 59.18 22.45 57.57 25.87 55.93 29.29 C 52.47 27.58 49.00 25.87 45.53 24.20 C 46.12 23.00 46.71 21.79 47.29 20.59 C 48.87 21.36 50.45 22.14 52.04 22.91 C 47.34 11.92 33.32 6.95 22.59 11.96 C 22.06 10.74 21.51 9.53 20.95 8.32 Z" />
<path fill="#000000" opacity="1.00" d=" M 6.47 13.41 C 10.20 13.16 13.94 12.91 17.67 12.67 C 17.92 16.54 18.16 20.40 18.39 24.27 C 17.40 24.33 15.40 24.46 14.41 24.53 C 14.30 22.76 14.19 21.00 14.04 19.24 C 7.03 28.86 9.57 43.58 19.50 50.20 C 18.74 51.29 17.99 52.38 17.24 53.48 C 11.23 49.21 6.97 42.45 6.21 35.07 C 5.34 28.78 7.16 22.37 10.65 17.14 C 9.34 17.23 8.03 17.31 6.72 17.39 C 6.65 16.06 6.57 14.73 6.47 13.41 Z" />
<path fill="#000000" opacity="1.00" d=" M 54.07 33.85 C 55.40 33.96 56.72 34.07 58.05 34.17 C 57.37 40.48 54.58 46.60 49.88 50.92 C 44.58 55.96 37.13 58.46 29.86 57.94 C 30.58 59.07 31.31 60.21 32.04 61.34 C 30.97 62.02 29.90 62.72 28.84 63.42 C 26.52 60.42 24.56 57.16 22.43 54.03 C 25.65 51.92 28.88 49.82 32.12 47.73 C 32.83 48.84 33.55 49.95 34.28 51.06 C 32.83 52.03 31.39 53.00 29.97 54.01 C 41.80 55.17 53.23 45.75 54.07 33.85 Z" />
</g>
</svg>
