<?xml version="1.0" encoding="UTF-8" ?>
<!DOCTYPE svg PUBLIC "-//W3C//DTD SVG 1.1//EN" "http://www.w3.org/Graphics/SVG/1.1/DTD/svg11.dtd">
<svg width="60pt" height="60pt" viewBox="0 0 60 60" version="1.1" xmlns="http://www.w3.org/2000/svg">
<g id="#ffffffff">
<path fill="#ffffff" opacity="1.00" d=" M 0.00 0.00 L 60.00 0.00 L 60.00 60.00 L 0.00 60.00 L 0.00 0.00 M 24.53 6.63 C 17.63 8.23 11.56 13.05 8.47 19.42 C 5.19 25.98 5.20 34.06 8.49 40.62 C 11.93 47.69 19.07 52.83 26.89 53.78 C 33.92 54.74 41.34 52.37 46.45 47.44 C 51.48 42.75 54.30 35.81 53.96 28.94 C 53.70 22.07 50.28 15.41 44.87 11.17 C 39.26 6.66 31.53 4.98 24.53 6.63 Z" />
<path fill="#ffffff" opacity="1.00" d=" M 26.60 20.64 C 27.98 18.94 30.88 20.93 29.79 22.85 C 28.32 24.73 26.50 26.30 24.82 27.99 C 29.89 28.07 34.96 27.87 40.02 28.07 C 41.52 27.87 42.29 29.59 41.88 30.83 C 41.10 32.31 39.34 31.92 37.97 32.02 C 33.59 32.01 29.21 31.98 24.82 32.00 C 26.51 33.71 28.33 35.29 29.83 37.17 C 30.79 39.12 28.04 41.00 26.63 39.39 C 23.75 36.57 20.79 33.80 18.13 30.77 C 18.14 30.38 18.15 29.59 18.15 29.20 C 20.80 26.19 23.73 23.43 26.60 20.64 Z" />
</g>
<g id="#000000ff">
<path fill="#968176" opacity="1.00" d=" M 24.53 6.63 C 31.53 4.98 39.26 6.66 44.87 11.17 C 50.28 15.41 53.70 22.07 53.96 28.94 C 54.30 35.81 51.48 42.75 46.45 47.44 C 41.34 52.37 33.92 54.74 26.89 53.78 C 19.07 52.83 11.93 47.69 8.49 40.62 C 5.20 34.06 5.19 25.98 8.47 19.42 C 11.56 13.05 17.63 8.23 24.53 6.63 M 26.60 20.64 C 23.73 23.43 20.80 26.19 18.15 29.20 C 18.15 29.59 18.14 30.38 18.13 30.77 C 20.79 33.80 23.75 36.57 26.63 39.39 C 28.04 41.00 30.79 39.12 29.83 37.17 C 28.33 35.29 26.51 33.71 24.82 32.00 C 29.21 31.98 33.59 32.01 37.97 32.02 C 39.34 31.92 41.10 32.31 41.88 30.83 C 42.29 29.59 41.52 27.87 40.02 28.07 C 34.96 27.87 29.89 28.07 24.82 27.99 C 26.50 26.30 28.32 24.73 29.79 22.85 C 30.88 20.93 27.98 18.94 26.60 20.64 Z" />
</g>
</svg>
