<?xml version="1.0" encoding="UTF-8" ?>
<!DOCTYPE svg PUBLIC "-//W3C//DTD SVG 1.1//EN" "http://www.w3.org/Graphics/SVG/1.1/DTD/svg11.dtd">
<svg width="60pt" height="60pt" viewBox="0 0 60 60" version="1.1" xmlns="http://www.w3.org/2000/svg">
<g id="#ffffffff">
<path fill="#ffffff" opacity="1.00" d=" M 0.00 0.00 L 60.00 0.00 L 60.00 60.00 L 0.00 60.00 L 0.00 0.00 M 24.47 6.65 C 17.59 8.26 11.54 13.06 8.46 19.42 C 5.19 25.98 5.20 34.05 8.48 40.60 C 11.91 47.69 19.05 52.82 26.87 53.78 C 33.92 54.74 41.35 52.37 46.48 47.42 C 51.75 42.49 54.58 35.09 53.89 27.89 C 53.37 21.39 49.99 15.21 44.88 11.18 C 39.24 6.64 31.49 4.97 24.47 6.65 Z" />
<path fill="#ffffff" opacity="1.00" d=" M 27.18 10.20 C 33.79 9.21 40.79 11.83 45.12 16.93 C 49.82 22.26 51.27 30.18 48.78 36.83 C 46.41 43.52 40.22 48.66 33.20 49.72 C 26.48 50.89 19.29 48.25 14.88 43.07 C 10.17 37.73 8.71 29.79 11.22 23.13 C 13.63 16.32 20.01 11.15 27.18 10.20 M 26.07 21.11 C 23.46 24.12 19.71 26.48 17.99 30.05 C 20.02 33.72 23.79 36.33 26.67 39.40 C 28.00 41.06 30.84 39.02 29.81 37.22 C 28.36 35.29 26.51 33.72 24.83 32.00 C 29.89 31.93 34.95 32.12 40.01 31.94 C 42.08 32.14 42.71 29.01 40.90 28.17 C 35.56 27.75 30.18 28.13 24.83 27.99 C 26.55 26.02 29.08 24.51 30.04 22.01 C 29.98 19.85 27.12 19.36 26.07 21.11 Z" />
</g>
<g id="#000000ff">
<path fill="#000000" opacity="1.00" d=" M 24.47 6.65 C 31.49 4.97 39.24 6.64 44.88 11.18 C 49.99 15.21 53.37 21.39 53.89 27.89 C 54.58 35.09 51.75 42.49 46.48 47.42 C 41.35 52.37 33.92 54.74 26.87 53.78 C 19.05 52.82 11.91 47.69 8.48 40.60 C 5.20 34.05 5.19 25.98 8.46 19.42 C 11.54 13.06 17.59 8.26 24.47 6.65 M 27.18 10.20 C 20.01 11.15 13.63 16.32 11.22 23.13 C 8.71 29.79 10.17 37.73 14.88 43.07 C 19.29 48.25 26.48 50.89 33.20 49.72 C 40.22 48.66 46.41 43.52 48.78 36.83 C 51.27 30.18 49.82 22.26 45.12 16.93 C 40.79 11.83 33.79 9.21 27.18 10.20 Z" />
<path fill="#000000" opacity="1.00" d=" M 26.07 21.11 C 27.12 19.36 29.98 19.85 30.04 22.01 C 29.08 24.51 26.55 26.02 24.83 27.99 C 30.18 28.13 35.56 27.75 40.90 28.17 C 42.71 29.01 42.08 32.14 40.01 31.94 C 34.95 32.12 29.89 31.93 24.83 32.00 C 26.51 33.72 28.36 35.29 29.81 37.22 C 30.84 39.02 28.00 41.06 26.67 39.40 C 23.79 36.33 20.02 33.72 17.99 30.05 C 19.71 26.48 23.46 24.12 26.07 21.11 Z" />
</g>
</svg>
