<?xml version="1.0" encoding="UTF-8" ?>
<!DOCTYPE svg PUBLIC "-//W3C//DTD SVG 1.1//EN" "http://www.w3.org/Graphics/SVG/1.1/DTD/svg11.dtd">
<svg width="60pt" height="60pt" viewBox="0 0 60 60" version="1.1" xmlns="http://www.w3.org/2000/svg">
<g id="#ffffffff">
<path fill="#ffffff" opacity="1.00" d=" M 0.00 0.00 L 60.00 0.00 L 60.00 60.00 L 0.00 60.00 L 0.00 0.00 M 17.56 8.80 C 12.11 9.50 5.24 11.70 4.15 17.91 C 3.98 25.17 5.03 32.46 6.72 39.51 C 7.76 42.96 8.57 47.11 11.97 49.05 C 15.89 51.27 20.54 51.54 24.94 51.85 C 31.49 52.05 38.20 52.19 44.59 50.48 C 47.71 49.70 50.58 47.60 51.68 44.49 C 54.57 37.03 55.33 28.96 55.91 21.04 C 56.29 18.09 55.37 14.97 53.13 12.94 C 49.86 9.97 45.29 9.23 41.07 8.61 C 33.26 7.79 25.34 7.77 17.56 8.80 Z" />
<path fill="#ffffff" opacity="1.00" d=" M 18.56 12.72 C 27.53 11.74 36.78 11.52 45.63 13.57 C 48.26 14.35 51.99 15.64 51.94 18.98 C 51.63 27.12 50.78 35.41 47.94 43.10 C 47.18 46.03 43.79 46.58 41.27 47.15 C 33.83 48.29 26.18 48.28 18.74 47.16 C 16.24 46.56 12.72 46.13 12.05 43.14 C 9.21 35.13 8.13 26.52 8.13 18.06 C 9.61 13.94 14.86 13.49 18.56 12.72 M 11.93 18.88 C 12.48 26.42 13.03 34.10 15.64 41.26 C 16.06 43.00 18.15 42.84 19.51 43.25 C 26.45 44.23 33.56 44.23 40.50 43.23 C 41.85 42.81 43.93 42.95 44.37 41.24 C 46.96 34.09 47.49 26.42 48.08 18.90 C 42.58 15.91 36.07 16.21 30.00 16.01 C 23.94 16.21 17.44 15.92 11.93 18.88 Z" />
<path fill="#ffffff" opacity="1.00" d=" M 21.24 36.09 C 23.64 35.18 25.15 38.89 22.78 39.87 C 20.37 40.89 18.84 37.06 21.24 36.09 Z" />
<path fill="#ffffff" opacity="1.00" d=" M 29.19 36.10 C 31.62 35.12 33.19 38.94 30.74 39.87 C 28.35 40.85 26.89 37.10 29.19 36.10 Z" />
<path fill="#ffffff" opacity="1.00" d=" M 37.18 36.10 C 39.63 35.15 41.16 38.87 38.77 39.90 C 36.35 40.81 34.89 37.18 37.18 36.10 Z" />
</g>
<g id="#000000ff">
<path fill="#000000" opacity="1.00" d=" M 17.56 8.80 C 25.34 7.77 33.26 7.79 41.07 8.61 C 45.29 9.23 49.86 9.97 53.13 12.94 C 55.37 14.97 56.29 18.09 55.91 21.04 C 55.33 28.96 54.57 37.03 51.68 44.49 C 50.58 47.60 47.71 49.70 44.59 50.48 C 38.20 52.19 31.49 52.05 24.94 51.85 C 20.54 51.54 15.89 51.27 11.97 49.05 C 8.57 47.11 7.76 42.96 6.72 39.51 C 5.03 32.46 3.98 25.17 4.15 17.91 C 5.24 11.70 12.11 9.50 17.56 8.80 M 18.56 12.72 C 14.86 13.49 9.61 13.94 8.13 18.06 C 8.13 26.52 9.21 35.13 12.05 43.14 C 12.72 46.13 16.24 46.56 18.74 47.16 C 26.18 48.28 33.83 48.29 41.27 47.15 C 43.79 46.58 47.18 46.03 47.94 43.10 C 50.78 35.41 51.63 27.12 51.94 18.98 C 51.99 15.64 48.26 14.35 45.63 13.57 C 36.78 11.52 27.53 11.74 18.56 12.72 Z" />
<path fill="#000000" opacity="1.00" d=" M 11.93 18.88 C 17.44 15.92 23.94 16.21 30.00 16.01 C 36.07 16.21 42.58 15.91 48.08 18.90 C 47.49 26.42 46.96 34.09 44.37 41.24 C 43.93 42.95 41.85 42.81 40.50 43.23 C 33.56 44.23 26.45 44.23 19.51 43.25 C 18.15 42.84 16.06 43.00 15.64 41.26 C 13.03 34.10 12.48 26.42 11.93 18.88 M 21.24 36.09 C 18.84 37.06 20.37 40.89 22.78 39.87 C 25.15 38.89 23.64 35.18 21.24 36.09 M 29.19 36.10 C 26.89 37.10 28.35 40.85 30.74 39.87 C 33.19 38.94 31.62 35.12 29.19 36.10 M 37.18 36.10 C 34.89 37.18 36.35 40.81 38.77 39.90 C 41.16 38.87 39.63 35.15 37.18 36.10 Z" />
</g>
</svg>
