<?xml version="1.0" encoding="UTF-8" ?>
<!DOCTYPE svg PUBLIC "-//W3C//DTD SVG 1.1//EN" "http://www.w3.org/Graphics/SVG/1.1/DTD/svg11.dtd">
<svg width="60pt" height="60pt" viewBox="0 0 60 60" version="1.1" xmlns="http://www.w3.org/2000/svg">
<g id="#ffffffff">
<path fill="#ffffff" opacity="1.00" d=" M 0.00 0.00 L 60.00 0.00 L 60.00 60.00 L 0.00 60.00 L 0.00 0.00 M 7.89 19.82 C 3.71 30.42 6.49 44.13 16.10 50.85 C 22.38 55.34 30.80 54.40 37.64 51.80 C 45.49 48.86 51.87 42.11 53.73 33.86 C 56.57 31.98 56.58 28.02 53.74 26.14 C 50.75 12.39 35.44 4.01 22.06 6.47 C 15.39 8.03 10.27 13.57 7.89 19.82 Z" />
<path fill="#ffffff" opacity="1.00" d=" M 22.36 10.53 C 27.37 8.96 32.93 10.99 36.36 14.80 C 43.75 22.86 43.88 36.48 36.76 44.75 C 33.49 48.61 28.15 50.90 23.12 49.66 C 16.76 48.16 12.34 42.31 10.79 36.22 C 8.11 26.53 12.11 13.83 22.36 10.53 M 21.03 15.51 C 22.58 18.46 23.63 21.76 26.02 24.19 C 28.34 21.73 29.44 18.47 30.97 15.52 C 27.95 13.60 24.06 13.60 21.03 15.51 M 14.38 28.05 C 16.76 27.53 20.17 29.07 21.86 26.91 C 21.16 23.91 19.33 21.37 17.93 18.68 C 15.49 21.12 14.28 24.62 14.38 28.05 M 30.50 27.48 C 32.61 28.55 35.27 27.77 37.59 28.06 C 37.75 24.63 36.50 21.12 34.06 18.68 C 32.91 21.56 29.93 24.27 30.50 27.48 M 14.37 31.95 C 14.17 35.32 15.71 38.41 17.37 41.23 C 19.10 39.89 19.93 37.81 20.86 35.90 C 21.30 34.70 22.51 33.11 21.06 32.13 C 18.84 31.91 16.60 32.00 14.37 31.95 M 30.11 33.09 C 31.17 35.96 32.16 39.26 34.71 41.18 C 36.28 38.34 37.84 35.30 37.63 31.96 C 35.23 32.46 31.84 30.94 30.11 33.09 M 25.00 36.84 C 23.28 39.27 22.23 42.08 21.08 44.80 C 24.27 46.13 27.96 46.47 30.96 44.48 C 29.75 42.12 28.77 39.63 27.37 37.36 C 27.06 36.38 25.62 35.87 25.00 36.84 Z" />
</g>
<g id="#000000ff">
<path fill="#000000" opacity="1.00" d=" M 7.89 19.82 C 10.27 13.57 15.39 8.03 22.06 6.47 C 35.44 4.01 50.75 12.39 53.74 26.14 C 56.58 28.02 56.57 31.98 53.73 33.86 C 51.87 42.11 45.49 48.86 37.64 51.80 C 30.80 54.40 22.38 55.34 16.10 50.85 C 6.49 44.13 3.71 30.42 7.89 19.82 M 22.36 10.53 C 12.11 13.83 8.11 26.53 10.79 36.22 C 12.34 42.31 16.76 48.16 23.12 49.66 C 28.15 50.90 33.49 48.61 36.76 44.75 C 43.88 36.48 43.75 22.86 36.36 14.80 C 32.93 10.99 27.37 8.96 22.36 10.53 Z" />
<path fill="#000000" opacity="1.00" d=" M 21.03 15.51 C 24.06 13.60 27.95 13.60 30.97 15.52 C 29.44 18.47 28.34 21.73 26.02 24.19 C 23.63 21.76 22.58 18.46 21.03 15.51 Z" />
<path fill="#000000" opacity="1.00" d=" M 14.38 28.05 C 14.28 24.62 15.49 21.12 17.93 18.68 C 19.33 21.37 21.16 23.91 21.86 26.91 C 20.17 29.07 16.76 27.53 14.38 28.05 Z" />
<path fill="#000000" opacity="1.00" d=" M 30.50 27.48 C 29.93 24.27 32.91 21.56 34.06 18.68 C 36.50 21.12 37.75 24.63 37.59 28.06 C 35.27 27.77 32.61 28.55 30.50 27.48 Z" />
<path fill="#000000" opacity="1.00" d=" M 14.37 31.95 C 16.60 32.00 18.84 31.91 21.06 32.13 C 22.51 33.11 21.30 34.70 20.86 35.90 C 19.93 37.81 19.10 39.89 17.37 41.23 C 15.71 38.41 14.17 35.32 14.37 31.95 Z" />
<path fill="#000000" opacity="1.00" d=" M 30.11 33.09 C 31.84 30.94 35.23 32.46 37.63 31.96 C 37.84 35.30 36.28 38.34 34.71 41.18 C 32.16 39.26 31.17 35.96 30.11 33.09 Z" />
<path fill="#000000" opacity="1.00" d=" M 25.00 36.84 C 25.62 35.87 27.06 36.38 27.37 37.36 C 28.77 39.63 29.75 42.12 30.96 44.48 C 27.96 46.47 24.27 46.13 21.08 44.80 C 22.23 42.08 23.28 39.27 25.00 36.84 Z" />
</g>
</svg>
