<?xml version="1.0" encoding="UTF-8" ?>
<!DOCTYPE svg PUBLIC "-//W3C//DTD SVG 1.1//EN" "http://www.w3.org/Graphics/SVG/1.1/DTD/svg11.dtd">
<svg width="60pt" height="60pt" viewBox="0 0 60 60" version="1.1" xmlns="http://www.w3.org/2000/svg">
<g id="#ffffffff">
<path fill="#ffffff" opacity="1.00" d=" M 0.00 0.00 L 60.00 0.00 L 60.00 60.00 L 0.00 60.00 L 0.00 0.00 M 15.10 8.12 C 12.35 8.74 11.86 11.87 10.90 14.07 C 9.61 17.96 7.64 21.88 8.16 26.10 C 8.72 32.40 9.29 38.71 10.15 44.97 C 10.42 48.24 13.65 49.82 16.50 50.33 C 15.41 52.86 14.38 55.43 13.36 57.99 C 14.91 58.00 16.45 58.01 18.00 58.00 C 19.06 55.33 20.14 52.66 21.20 50.00 C 27.07 50.00 32.94 50.00 38.80 50.00 C 39.87 52.67 40.94 55.33 42.00 58.00 C 43.54 58.01 45.09 58.01 46.64 57.99 C 45.61 55.43 44.60 52.86 43.50 50.33 C 46.36 49.82 49.56 48.24 49.85 44.98 C 50.70 38.69 51.29 32.37 51.84 26.05 C 52.33 21.87 50.39 17.99 49.12 14.13 C 48.16 11.93 47.68 8.78 44.93 8.14 C 35.26 5.32 24.78 5.32 15.10 8.12 Z" />
<path fill="#ffffff" opacity="1.00" d=" M 15.96 11.97 C 25.09 9.41 34.85 9.43 43.99 11.97 C 44.88 14.61 46.38 17.15 46.50 19.98 C 46.12 20.29 45.36 20.91 44.98 21.22 C 39.64 20.83 34.34 19.80 28.97 20.03 C 24.28 19.97 19.68 20.93 15.02 21.22 C 14.64 20.92 13.87 20.31 13.49 20.01 C 13.59 17.18 15.09 14.62 15.96 11.97 Z" />
<path fill="#ffffff" opacity="1.00" d=" M 28.40 26.35 C 32.97 24.03 36.39 31.72 31.65 33.61 C 27.03 36.04 23.55 28.21 28.40 26.35 Z" />
</g>
<g id="#000000ff">
<path fill="#000000" opacity="1.00" d=" M 15.10 8.12 C 24.78 5.32 35.26 5.32 44.93 8.14 C 47.68 8.78 48.16 11.93 49.12 14.13 C 50.39 17.99 52.33 21.87 51.84 26.05 C 51.29 32.37 50.70 38.69 49.85 44.98 C 49.56 48.24 46.36 49.82 43.50 50.33 C 44.60 52.86 45.61 55.43 46.64 57.99 C 45.09 58.01 43.54 58.01 42.00 58.00 C 40.94 55.33 39.87 52.67 38.80 50.00 C 32.94 50.00 27.07 50.00 21.20 50.00 C 20.14 52.66 19.06 55.33 18.00 58.00 C 16.45 58.01 14.91 58.00 13.36 57.99 C 14.38 55.43 15.41 52.86 16.50 50.33 C 13.65 49.82 10.42 48.24 10.15 44.97 C 9.29 38.71 8.72 32.40 8.16 26.10 C 7.64 21.88 9.61 17.96 10.90 14.07 C 11.86 11.87 12.35 8.74 15.10 8.12 M 15.96 11.97 C 15.09 14.62 13.59 17.18 13.49 20.01 C 13.87 20.31 14.64 20.92 15.02 21.22 C 19.68 20.93 24.28 19.97 28.97 20.03 C 34.34 19.80 39.64 20.83 44.98 21.22 C 45.36 20.91 46.12 20.29 46.50 19.98 C 46.38 17.15 44.88 14.61 43.99 11.97 C 34.85 9.43 25.09 9.41 15.96 11.97 M 28.40 26.35 C 23.55 28.21 27.03 36.04 31.65 33.61 C 36.39 31.72 32.97 24.03 28.40 26.35 Z" />
</g>
</svg>
