<?xml version="1.0" encoding="UTF-8" ?>
<!DOCTYPE svg PUBLIC "-//W3C//DTD SVG 1.1//EN" "http://www.w3.org/Graphics/SVG/1.1/DTD/svg11.dtd">
<svg width="64pt" height="64pt" viewBox="0 0 64 64" version="1.1" xmlns="http://www.w3.org/2000/svg">
<g id="#ffffffff">
<path fill="#ffffff" opacity="1.00" d=" M 0.00 0.00 L 64.00 0.00 L 64.00 64.00 L 0.00 64.00 L 0.00 0.00 M 6.00 14.77 C 6.00 28.51 6.00 42.25 6.00 56.00 C 23.33 56.00 40.67 56.00 58.00 56.00 C 58.00 44.00 58.00 32.00 58.00 20.00 C 50.00 20.00 42.00 20.00 34.00 20.00 C 34.00 18.26 34.00 16.51 34.00 14.77 C 29.35 12.42 24.70 10.04 20.01 7.76 C 15.35 10.12 10.67 12.43 6.00 14.77 Z" />
<path fill="#ffffff" opacity="1.00" d=" M 10.00 17.26 C 13.34 15.60 16.67 13.92 19.99 12.24 C 23.34 13.89 26.67 15.55 30.00 17.23 C 30.00 28.82 30.00 40.41 30.00 52.00 C 23.33 52.00 16.67 52.00 10.00 52.00 C 10.00 40.42 10.00 28.84 10.00 17.26 M 14.00 20.00 C 14.00 21.33 14.00 22.67 14.00 24.00 C 15.33 24.00 16.67 24.00 18.00 24.00 C 18.00 22.67 18.00 21.33 18.00 20.00 C 16.67 20.00 15.33 20.00 14.00 20.00 M 22.00 20.00 C 22.00 21.33 22.00 22.67 22.00 24.00 C 23.33 24.00 24.67 24.00 26.00 24.00 C 26.00 22.67 26.00 21.33 26.00 20.00 C 24.67 20.00 23.33 20.00 22.00 20.00 M 14.00 28.00 C 14.00 29.33 14.00 30.67 14.00 32.00 C 15.33 32.00 16.67 32.00 18.00 32.00 C 18.00 30.67 18.00 29.33 18.00 28.00 C 16.67 28.00 15.33 28.00 14.00 28.00 M 22.00 28.00 C 22.00 29.33 22.00 30.67 22.00 32.00 C 23.33 32.00 24.67 32.00 26.00 32.00 C 26.00 30.67 26.00 29.33 26.00 28.00 C 24.67 28.00 23.33 28.00 22.00 28.00 M 14.00 36.00 C 14.00 37.33 14.00 38.67 14.00 40.00 C 15.33 40.00 16.67 40.00 18.00 40.00 C 18.00 38.67 18.00 37.33 18.00 36.00 C 16.67 36.00 15.33 36.00 14.00 36.00 M 22.00 36.00 C 22.00 37.33 22.00 38.67 22.00 40.00 C 23.33 40.00 24.67 40.00 26.00 40.00 C 26.00 38.67 26.00 37.33 26.00 36.00 C 24.67 36.00 23.33 36.00 22.00 36.00 M 14.00 44.00 C 14.00 45.33 14.00 46.67 14.00 48.00 C 15.33 48.00 16.67 48.00 18.00 48.00 C 18.00 46.67 18.00 45.33 18.00 44.00 C 16.67 44.00 15.33 44.00 14.00 44.00 M 22.00 44.00 C 22.00 45.33 22.00 46.67 22.00 48.00 C 23.33 48.00 24.67 48.00 26.00 48.00 C 26.00 46.67 26.00 45.33 26.00 44.00 C 24.67 44.00 23.33 44.00 22.00 44.00 Z" />
<path fill="#ffffff" opacity="1.00" d=" M 34.00 24.00 C 40.67 24.00 47.33 24.00 54.00 24.00 C 54.00 33.33 54.00 42.67 54.00 52.00 C 47.33 52.00 40.67 52.00 34.00 52.00 C 34.00 42.67 34.00 33.33 34.00 24.00 M 38.00 28.00 C 38.00 29.33 38.00 30.67 38.00 32.00 C 39.33 32.00 40.67 32.00 42.00 32.00 C 42.00 30.67 42.00 29.33 42.00 28.00 C 40.67 28.00 39.33 28.00 38.00 28.00 M 46.00 28.00 C 46.00 29.33 46.00 30.67 46.00 32.00 C 47.33 32.00 48.67 32.00 50.00 32.00 C 50.00 30.67 50.00 29.33 50.00 28.00 C 48.67 28.00 47.33 28.00 46.00 28.00 M 38.00 36.00 C 38.00 37.33 38.00 38.67 38.00 40.00 C 39.33 40.00 40.67 40.00 42.00 40.00 C 42.00 38.67 42.00 37.33 42.00 36.00 C 40.67 36.00 39.33 36.00 38.00 36.00 M 46.00 36.00 C 46.00 37.33 46.00 38.67 46.00 40.00 C 47.33 40.00 48.67 40.00 50.00 40.00 C 50.00 38.67 50.00 37.33 50.00 36.00 C 48.67 36.00 47.33 36.00 46.00 36.00 M 38.00 44.00 C 38.00 45.33 38.00 46.67 38.00 48.00 C 39.33 48.00 40.67 48.00 42.00 48.00 C 42.00 46.67 42.00 45.33 42.00 44.00 C 40.67 44.00 39.33 44.00 38.00 44.00 M 46.00 44.00 C 46.00 45.33 46.00 46.67 46.00 48.00 C 47.33 48.00 48.67 48.00 50.00 48.00 C 50.00 46.67 50.00 45.33 50.00 44.00 C 48.67 44.00 47.33 44.00 46.00 44.00 Z" />
</g>
<g id="#000000ff">
<path fill="#000000" opacity="1.00" d=" M 6.00 14.77 C 10.67 12.43 15.35 10.12 20.01 7.76 C 24.70 10.04 29.35 12.42 34.00 14.77 C 34.00 16.51 34.00 18.26 34.00 20.00 C 42.00 20.00 50.00 20.00 58.00 20.00 C 58.00 32.00 58.00 44.00 58.00 56.00 C 40.67 56.00 23.33 56.00 6.00 56.00 C 6.00 42.25 6.00 28.51 6.00 14.77 M 10.00 17.26 C 10.00 28.84 10.00 40.42 10.00 52.00 C 16.67 52.00 23.33 52.00 30.00 52.00 C 30.00 40.41 30.00 28.82 30.00 17.23 C 26.67 15.55 23.34 13.89 19.99 12.24 C 16.67 13.92 13.34 15.60 10.00 17.26 M 34.00 24.00 C 34.00 33.33 34.00 42.67 34.00 52.00 C 40.67 52.00 47.33 52.00 54.00 52.00 C 54.00 42.67 54.00 33.33 54.00 24.00 C 47.33 24.00 40.67 24.00 34.00 24.00 Z" />
<path fill="#000000" opacity="1.00" d=" M 14.00 20.00 C 15.33 20.00 16.67 20.00 18.00 20.00 C 18.00 21.33 18.00 22.67 18.00 24.00 C 16.67 24.00 15.33 24.00 14.00 24.00 C 14.00 22.67 14.00 21.33 14.00 20.00 Z" />
<path fill="#000000" opacity="1.00" d=" M 22.00 20.00 C 23.33 20.00 24.67 20.00 26.00 20.00 C 26.00 21.33 26.00 22.67 26.00 24.00 C 24.67 24.00 23.33 24.00 22.00 24.00 C 22.00 22.67 22.00 21.33 22.00 20.00 Z" />
<path fill="#000000" opacity="1.00" d=" M 14.00 28.00 C 15.33 28.00 16.67 28.00 18.00 28.00 C 18.00 29.33 18.00 30.67 18.00 32.00 C 16.67 32.00 15.33 32.00 14.00 32.00 C 14.00 30.67 14.00 29.33 14.00 28.00 Z" />
<path fill="#000000" opacity="1.00" d=" M 22.00 28.00 C 23.33 28.00 24.67 28.00 26.00 28.00 C 26.00 29.33 26.00 30.67 26.00 32.00 C 24.67 32.00 23.33 32.00 22.00 32.00 C 22.00 30.67 22.00 29.33 22.00 28.00 Z" />
<path fill="#000000" opacity="1.00" d=" M 38.00 28.00 C 39.33 28.00 40.67 28.00 42.00 28.00 C 42.00 29.33 42.00 30.67 42.00 32.00 C 40.67 32.00 39.33 32.00 38.00 32.00 C 38.00 30.67 38.00 29.33 38.00 28.00 Z" />
<path fill="#000000" opacity="1.00" d=" M 46.00 28.00 C 47.33 28.00 48.67 28.00 50.00 28.00 C 50.00 29.33 50.00 30.67 50.00 32.00 C 48.67 32.00 47.33 32.00 46.00 32.00 C 46.00 30.67 46.00 29.33 46.00 28.00 Z" />
<path fill="#000000" opacity="1.00" d=" M 14.00 36.00 C 15.33 36.00 16.67 36.00 18.00 36.00 C 18.00 37.33 18.00 38.67 18.00 40.00 C 16.67 40.00 15.33 40.00 14.00 40.00 C 14.00 38.67 14.00 37.33 14.00 36.00 Z" />
<path fill="#000000" opacity="1.00" d=" M 22.00 36.00 C 23.33 36.00 24.67 36.00 26.00 36.00 C 26.00 37.33 26.00 38.67 26.00 40.00 C 24.67 40.00 23.33 40.00 22.00 40.00 C 22.00 38.67 22.00 37.33 22.00 36.00 Z" />
<path fill="#000000" opacity="1.00" d=" M 38.00 36.00 C 39.33 36.00 40.67 36.00 42.00 36.00 C 42.00 37.33 42.00 38.67 42.00 40.00 C 40.67 40.00 39.33 40.00 38.00 40.00 C 38.00 38.67 38.00 37.33 38.00 36.00 Z" />
<path fill="#000000" opacity="1.00" d=" M 46.00 36.00 C 47.33 36.00 48.67 36.00 50.00 36.00 C 50.00 37.33 50.00 38.67 50.00 40.00 C 48.67 40.00 47.33 40.00 46.00 40.00 C 46.00 38.67 46.00 37.33 46.00 36.00 Z" />
<path fill="#000000" opacity="1.00" d=" M 14.00 44.00 C 15.33 44.00 16.67 44.00 18.00 44.00 C 18.00 45.33 18.00 46.67 18.00 48.00 C 16.67 48.00 15.33 48.00 14.00 48.00 C 14.00 46.67 14.00 45.33 14.00 44.00 Z" />
<path fill="#000000" opacity="1.00" d=" M 22.00 44.00 C 23.33 44.00 24.67 44.00 26.00 44.00 C 26.00 45.33 26.00 46.67 26.00 48.00 C 24.67 48.00 23.33 48.00 22.00 48.00 C 22.00 46.67 22.00 45.33 22.00 44.00 Z" />
<path fill="#000000" opacity="1.00" d=" M 38.00 44.00 C 39.33 44.00 40.67 44.00 42.00 44.00 C 42.00 45.33 42.00 46.67 42.00 48.00 C 40.67 48.00 39.33 48.00 38.00 48.00 C 38.00 46.67 38.00 45.33 38.00 44.00 Z" />
<path fill="#000000" opacity="1.00" d=" M 46.00 44.00 C 47.33 44.00 48.67 44.00 50.00 44.00 C 50.00 45.33 50.00 46.67 50.00 48.00 C 48.67 48.00 47.33 48.00 46.00 48.00 C 46.00 46.67 46.00 45.33 46.00 44.00 Z" />
</g>
</svg>
