<?xml version="1.0" encoding="UTF-8" ?>
<!DOCTYPE svg PUBLIC "-//W3C//DTD SVG 1.1//EN" "http://www.w3.org/Graphics/SVG/1.1/DTD/svg11.dtd">
<svg width="60pt" height="60pt" viewBox="0 0 60 60" version="1.1" xmlns="http://www.w3.org/2000/svg">
<g id="#ffffffff">
<path fill="#ffffff" opacity="1.00" d=" M 0.00 0.00 L 60.00 0.00 L 60.00 60.00 L 0.00 60.00 L 0.00 0.00 M 32.32 8.33 C 31.58 22.85 32.20 37.44 32.01 51.99 C 38.67 52.01 45.33 52.01 51.99 51.99 C 51.79 37.44 52.43 22.85 51.67 8.33 C 45.25 7.78 38.74 7.79 32.32 8.33 M 12.32 12.33 C 11.69 17.53 12.10 22.78 12.02 28.00 C 13.31 28.00 14.61 28.00 15.90 28.01 C 15.97 26.67 16.03 25.33 16.10 23.99 C 17.37 23.99 18.63 23.99 19.90 23.99 C 19.97 25.33 20.03 26.67 20.10 28.01 C 21.37 28.01 22.64 28.01 23.92 28.01 C 23.96 26.69 24.01 25.37 24.05 24.05 C 25.37 24.01 26.69 23.96 28.01 23.92 C 28.01 22.64 28.01 21.37 28.01 20.10 C 26.67 20.03 25.33 19.97 23.99 19.90 C 23.99 18.63 23.99 17.37 23.99 16.10 C 25.33 16.03 26.67 15.97 28.01 15.90 C 28.00 14.61 28.00 13.31 28.00 12.02 C 22.78 12.10 17.52 11.68 12.32 12.33 M 8.33 32.33 C 7.63 38.85 8.15 45.44 8.01 51.99 C 14.67 52.01 21.33 52.01 27.99 51.99 C 27.84 45.44 28.37 38.86 27.67 32.33 C 21.25 31.78 14.74 31.80 8.33 32.33 Z" />
<path fill="#ffffff" opacity="1.00" d=" M 36.00 12.00 C 37.33 12.00 38.67 12.00 40.00 12.00 C 40.00 13.33 40.00 14.67 40.00 16.00 C 38.67 16.00 37.33 16.00 36.00 16.00 C 36.00 14.67 36.00 13.33 36.00 12.00 Z" />
<path fill="#ffffff" opacity="1.00" d=" M 44.00 12.00 C 45.33 12.00 46.67 12.00 48.00 12.00 C 48.00 13.33 48.00 14.67 48.00 16.00 C 46.67 16.00 45.33 16.00 44.00 16.00 C 44.00 14.67 44.00 13.33 44.00 12.00 Z" />
<path fill="#ffffff" opacity="1.00" d=" M 16.00 16.00 C 17.33 16.00 18.67 16.00 20.00 16.00 C 20.00 17.33 20.00 18.67 20.00 20.00 C 18.67 20.00 17.33 20.00 16.00 20.00 C 16.00 18.67 16.00 17.33 16.00 16.00 Z" />
<path fill="#ffffff" opacity="1.00" d=" M 36.00 20.00 C 37.33 20.00 38.67 20.00 40.00 20.00 C 40.00 21.33 40.00 22.67 40.00 24.00 C 38.67 24.00 37.33 24.00 36.00 24.00 C 36.00 22.67 36.00 21.33 36.00 20.00 Z" />
<path fill="#ffffff" opacity="1.00" d=" M 44.00 20.00 C 45.33 20.00 46.67 20.00 48.00 20.00 C 48.00 21.33 48.00 22.67 48.00 24.00 C 46.67 24.00 45.33 24.00 44.00 24.00 C 44.00 22.67 44.00 21.33 44.00 20.00 Z" />
<path fill="#ffffff" opacity="1.00" d=" M 36.00 28.00 C 37.33 28.00 38.67 28.00 40.00 28.00 C 40.00 29.33 40.00 30.67 40.00 32.00 C 38.67 32.00 37.33 32.00 36.00 32.00 C 36.00 30.67 36.00 29.33 36.00 28.00 Z" />
<path fill="#ffffff" opacity="1.00" d=" M 44.00 28.00 C 45.33 28.00 46.67 28.00 48.00 28.00 C 48.00 29.33 48.00 30.67 48.00 32.00 C 46.67 32.00 45.33 32.00 44.00 32.00 C 44.00 30.67 44.00 29.33 44.00 28.00 Z" />
<path fill="#ffffff" opacity="1.00" d=" M 12.00 36.00 C 13.33 36.00 14.67 36.00 16.00 36.00 C 16.00 37.33 16.00 38.67 16.00 40.00 C 14.67 40.00 13.33 40.00 12.00 40.00 C 12.00 38.67 12.00 37.33 12.00 36.00 Z" />
<path fill="#ffffff" opacity="1.00" d=" M 20.00 36.00 C 21.33 36.00 22.67 36.00 24.00 36.00 C 24.00 37.33 24.00 38.67 24.00 40.00 C 22.67 40.00 21.33 40.00 20.00 40.00 C 20.00 38.67 20.00 37.33 20.00 36.00 Z" />
<path fill="#ffffff" opacity="1.00" d=" M 36.00 36.00 C 37.33 36.00 38.67 36.00 40.00 36.00 C 40.00 37.33 40.00 38.67 40.00 40.00 C 38.67 40.00 37.33 40.00 36.00 40.00 C 36.00 38.67 36.00 37.33 36.00 36.00 Z" />
<path fill="#ffffff" opacity="1.00" d=" M 44.00 36.00 C 45.33 36.00 46.67 36.00 48.00 36.00 C 48.00 37.33 48.00 38.67 48.00 40.00 C 46.67 40.00 45.33 40.00 44.00 40.00 C 44.00 38.67 44.00 37.33 44.00 36.00 Z" />
<path fill="#ffffff" opacity="1.00" d=" M 12.00 44.00 C 13.33 44.00 14.67 44.00 16.00 44.00 C 16.00 45.33 16.00 46.67 16.00 48.00 C 14.67 48.00 13.33 48.00 12.00 48.00 C 12.00 46.67 12.00 45.33 12.00 44.00 Z" />
<path fill="#ffffff" opacity="1.00" d=" M 20.00 44.00 C 21.33 44.00 22.67 44.00 24.00 44.00 C 24.00 45.33 24.00 46.67 24.00 48.00 C 22.67 48.00 21.33 48.00 20.00 48.00 C 20.00 46.67 20.00 45.33 20.00 44.00 Z" />
<path fill="#ffffff" opacity="1.00" d=" M 36.00 44.00 C 37.33 44.00 38.67 44.00 40.00 44.00 C 40.00 45.33 40.00 46.67 40.00 48.00 C 38.67 48.00 37.33 48.00 36.00 48.00 C 36.00 46.67 36.00 45.33 36.00 44.00 Z" />
<path fill="#ffffff" opacity="1.00" d=" M 44.00 44.00 C 45.33 44.00 46.67 44.00 48.00 44.00 C 48.00 45.33 48.00 46.67 48.00 48.00 C 46.67 48.00 45.33 48.00 44.00 48.00 C 44.00 46.67 44.00 45.33 44.00 44.00 Z" />
</g>
<g id="#000000ff">
<path fill="#000000" opacity="1.00" d=" M 32.32 8.33 C 38.74 7.79 45.25 7.78 51.67 8.33 C 52.43 22.85 51.79 37.44 51.99 51.99 C 45.33 52.01 38.67 52.01 32.01 51.99 C 32.20 37.44 31.58 22.85 32.32 8.33 M 36.00 12.00 C 36.00 13.33 36.00 14.67 36.00 16.00 C 37.33 16.00 38.67 16.00 40.00 16.00 C 40.00 14.67 40.00 13.33 40.00 12.00 C 38.67 12.00 37.33 12.00 36.00 12.00 M 44.00 12.00 C 44.00 13.33 44.00 14.67 44.00 16.00 C 45.33 16.00 46.67 16.00 48.00 16.00 C 48.00 14.67 48.00 13.33 48.00 12.00 C 46.67 12.00 45.33 12.00 44.00 12.00 M 36.00 20.00 C 36.00 21.33 36.00 22.67 36.00 24.00 C 37.33 24.00 38.67 24.00 40.00 24.00 C 40.00 22.67 40.00 21.33 40.00 20.00 C 38.67 20.00 37.33 20.00 36.00 20.00 M 44.00 20.00 C 44.00 21.33 44.00 22.67 44.00 24.00 C 45.33 24.00 46.67 24.00 48.00 24.00 C 48.00 22.67 48.00 21.33 48.00 20.00 C 46.67 20.00 45.33 20.00 44.00 20.00 M 36.00 28.00 C 36.00 29.33 36.00 30.67 36.00 32.00 C 37.33 32.00 38.67 32.00 40.00 32.00 C 40.00 30.67 40.00 29.33 40.00 28.00 C 38.67 28.00 37.33 28.00 36.00 28.00 M 44.00 28.00 C 44.00 29.33 44.00 30.67 44.00 32.00 C 45.33 32.00 46.67 32.00 48.00 32.00 C 48.00 30.67 48.00 29.33 48.00 28.00 C 46.67 28.00 45.33 28.00 44.00 28.00 M 36.00 36.00 C 36.00 37.33 36.00 38.67 36.00 40.00 C 37.33 40.00 38.67 40.00 40.00 40.00 C 40.00 38.67 40.00 37.33 40.00 36.00 C 38.67 36.00 37.33 36.00 36.00 36.00 M 44.00 36.00 C 44.00 37.33 44.00 38.67 44.00 40.00 C 45.33 40.00 46.67 40.00 48.00 40.00 C 48.00 38.67 48.00 37.33 48.00 36.00 C 46.67 36.00 45.33 36.00 44.00 36.00 M 36.00 44.00 C 36.00 45.33 36.00 46.67 36.00 48.00 C 37.33 48.00 38.67 48.00 40.00 48.00 C 40.00 46.67 40.00 45.33 40.00 44.00 C 38.67 44.00 37.33 44.00 36.00 44.00 M 44.00 44.00 C 44.00 45.33 44.00 46.67 44.00 48.00 C 45.33 48.00 46.67 48.00 48.00 48.00 C 48.00 46.67 48.00 45.33 48.00 44.00 C 46.67 44.00 45.33 44.00 44.00 44.00 Z" />
<path fill="#000000" opacity="1.00" d=" M 12.32 12.33 C 17.52 11.68 22.78 12.10 28.00 12.02 C 28.00 13.31 28.00 14.61 28.01 15.90 C 26.67 15.97 25.33 16.03 23.99 16.10 C 23.99 17.37 23.99 18.63 23.99 19.90 C 25.33 19.97 26.67 20.03 28.01 20.10 C 28.01 21.37 28.01 22.64 28.01 23.92 C 26.69 23.96 25.37 24.01 24.05 24.05 C 24.01 25.37 23.96 26.69 23.92 28.01 C 22.64 28.01 21.37 28.01 20.10 28.01 C 20.03 26.67 19.97 25.33 19.90 23.99 C 18.63 23.99 17.37 23.99 16.10 23.99 C 16.03 25.33 15.97 26.67 15.90 28.01 C 14.61 28.00 13.31 28.00 12.02 28.00 C 12.10 22.78 11.69 17.53 12.32 12.33 M 16.00 16.00 C 16.00 17.33 16.00 18.67 16.00 20.00 C 17.33 20.00 18.67 20.00 20.00 20.00 C 20.00 18.67 20.00 17.33 20.00 16.00 C 18.67 16.00 17.33 16.00 16.00 16.00 Z" />
<path fill="#000000" opacity="1.00" d=" M 8.33 32.33 C 14.74 31.80 21.25 31.78 27.67 32.33 C 28.37 38.86 27.84 45.44 27.99 51.99 C 21.33 52.01 14.67 52.01 8.01 51.99 C 8.15 45.44 7.63 38.85 8.33 32.33 M 12.00 36.00 C 12.00 37.33 12.00 38.67 12.00 40.00 C 13.33 40.00 14.67 40.00 16.00 40.00 C 16.00 38.67 16.00 37.33 16.00 36.00 C 14.67 36.00 13.33 36.00 12.00 36.00 M 20.00 36.00 C 20.00 37.33 20.00 38.67 20.00 40.00 C 21.33 40.00 22.67 40.00 24.00 40.00 C 24.00 38.67 24.00 37.33 24.00 36.00 C 22.67 36.00 21.33 36.00 20.00 36.00 M 12.00 44.00 C 12.00 45.33 12.00 46.67 12.00 48.00 C 13.33 48.00 14.67 48.00 16.00 48.00 C 16.00 46.67 16.00 45.33 16.00 44.00 C 14.67 44.00 13.33 44.00 12.00 44.00 M 20.00 44.00 C 20.00 45.33 20.00 46.67 20.00 48.00 C 21.33 48.00 22.67 48.00 24.00 48.00 C 24.00 46.67 24.00 45.33 24.00 44.00 C 22.67 44.00 21.33 44.00 20.00 44.00 Z" />
</g>
</svg>
