<?xml version="1.0" encoding="UTF-8" ?>
<!DOCTYPE svg PUBLIC "-//W3C//DTD SVG 1.1//EN" "http://www.w3.org/Graphics/SVG/1.1/DTD/svg11.dtd">
<svg width="60pt" height="60pt" viewBox="0 0 60 60" version="1.1" xmlns="http://www.w3.org/2000/svg">
<g id="#ffffffff">
<path fill="#ffffff" opacity="1.00" d=" M 0.00 0.00 L 60.00 0.00 L 60.00 60.00 L 0.00 60.00 L 0.00 0.00 M 6.04 13.97 C 5.93 23.98 6.04 33.99 6.00 44.00 C 15.33 44.00 24.67 44.00 34.00 44.00 C 34.00 42.67 34.00 41.33 34.00 40.00 C 37.62 40.00 41.23 40.00 44.85 40.00 C 45.13 40.50 45.70 41.50 45.98 41.99 C 45.70 42.50 45.14 43.50 44.86 44.00 C 47.91 44.00 50.95 44.00 54.00 44.00 C 53.96 33.96 54.08 23.91 53.95 13.87 C 53.99 11.36 51.40 9.59 49.03 10.00 C 36.00 10.03 22.97 9.94 9.95 10.04 C 7.88 9.97 5.96 11.90 6.04 13.97 M 5.12 48.20 C 3.28 48.96 3.86 52.08 5.94 51.92 C 21.32 52.13 36.70 51.92 52.08 52.02 C 53.48 52.03 56.20 52.10 55.92 50.00 C 56.19 47.84 53.40 47.98 51.97 47.98 C 36.36 48.15 20.72 47.73 5.12 48.20 Z" />
<path fill="#ffffff" opacity="1.00" d=" M 41.16 18.20 C 42.80 17.38 44.62 19.19 43.81 20.84 C 41.22 23.91 38.14 26.53 35.40 29.47 C 34.17 30.50 33.07 32.50 31.17 31.83 C 29.31 30.31 27.72 28.50 26.00 26.83 C 22.92 29.81 20.05 33.03 16.81 35.84 C 14.87 36.75 13.04 34.11 14.58 32.67 C 18.05 29.13 21.48 25.51 25.16 22.19 C 28.25 21.75 29.79 25.56 31.99 27.17 C 35.10 24.24 37.91 20.98 41.16 18.20 Z" />
</g>
<g id="#000000ff">
<path fill="#000000" opacity="1.00" d=" M 6.04 13.97 C 5.96 11.90 7.88 9.97 9.95 10.04 C 22.97 9.94 36.00 10.03 49.03 10.00 C 51.40 9.59 53.99 11.36 53.95 13.87 C 54.08 23.91 53.96 33.96 54.00 44.00 C 50.95 44.00 47.91 44.00 44.86 44.00 C 45.14 43.50 45.70 42.50 45.98 41.99 C 45.70 41.50 45.13 40.50 44.85 40.00 C 41.23 40.00 37.62 40.00 34.00 40.00 C 34.00 41.33 34.00 42.67 34.00 44.00 C 24.67 44.00 15.33 44.00 6.00 44.00 C 6.04 33.99 5.93 23.98 6.04 13.97 M 41.16 18.20 C 37.91 20.98 35.10 24.24 31.99 27.17 C 29.79 25.56 28.25 21.75 25.16 22.19 C 21.48 25.51 18.05 29.13 14.58 32.67 C 13.04 34.11 14.87 36.75 16.81 35.84 C 20.05 33.03 22.92 29.81 26.00 26.83 C 27.72 28.50 29.31 30.31 31.17 31.83 C 33.07 32.50 34.17 30.50 35.40 29.47 C 38.14 26.53 41.22 23.91 43.81 20.84 C 44.62 19.19 42.80 17.38 41.16 18.20 Z" />
<path fill="#000000" opacity="1.00" d=" M 5.12 48.20 C 20.72 47.73 36.36 48.15 51.97 47.98 C 53.40 47.98 56.19 47.84 55.92 50.00 C 56.20 52.10 53.48 52.03 52.08 52.02 C 36.70 51.92 21.32 52.13 5.94 51.92 C 3.86 52.08 3.28 48.96 5.12 48.20 Z" />
</g>
</svg>
