<?xml version="1.0" encoding="UTF-8" ?>
<!DOCTYPE svg PUBLIC "-//W3C//DTD SVG 1.1//EN" "http://www.w3.org/Graphics/SVG/1.1/DTD/svg11.dtd">
<svg width="64pt" height="64pt" viewBox="0 0 64 64" version="1.1" xmlns="http://www.w3.org/2000/svg">
<g id="#ffffffff">
<path fill="#ffffff" opacity="1.00" d=" M 0.00 0.00 L 30.00 0.00 C 29.99 3.33 30.01 6.66 30.00 10.00 C 26.66 10.02 23.33 9.98 20.00 10.01 C 16.66 13.33 13.33 16.66 10.00 20.00 C 10.00 25.31 10.00 30.62 10.00 35.93 C 12.01 36.63 14.02 37.33 16.03 38.02 C 16.00 36.83 15.97 35.64 15.94 34.46 C 15.50 34.10 14.64 33.38 14.20 33.01 C 13.75 29.37 14.05 25.67 14.01 22.01 C 16.69 20.00 19.35 17.99 22.04 16.00 C 28.69 16.00 35.35 16.00 42.01 16.00 C 44.67 17.98 47.32 19.98 49.98 21.97 C 49.94 25.66 50.29 29.40 49.75 33.06 C 49.33 33.41 48.48 34.11 48.06 34.46 C 48.03 35.64 48.00 36.82 47.97 38.01 C 49.98 37.35 51.99 36.68 54.00 35.99 C 54.00 30.65 54.00 25.31 54.00 19.97 C 50.68 16.64 47.36 13.32 44.03 10.01 C 40.69 9.98 37.35 10.02 34.00 10.00 C 33.99 6.66 34.01 3.33 34.00 0.00 L 64.00 0.00 L 64.00 64.00 L 0.00 64.00 L 0.00 0.00 M 18.11 29.90 C 18.36 32.05 20.36 33.17 22.01 34.20 C 21.58 38.23 23.24 42.04 26.25 44.68 C 25.80 45.16 24.89 46.12 24.43 46.60 C 21.68 47.68 18.21 44.94 16.08 47.06 C 15.50 51.18 21.20 50.90 23.94 50.74 C 24.00 52.79 24.12 54.85 24.29 56.89 C 22.23 57.66 20.06 57.96 17.86 57.81 C 15.99 57.40 15.22 60.36 16.82 61.18 C 19.91 63.03 23.57 61.37 26.54 60.07 C 29.82 62.48 34.18 62.49 37.46 60.07 C 40.29 61.31 43.55 62.78 46.64 61.50 C 48.21 60.94 48.61 58.64 47.01 57.83 C 44.53 57.87 42.03 57.86 39.70 56.90 C 39.88 54.85 40.00 52.79 40.07 50.74 C 42.54 50.79 45.35 51.11 47.39 49.41 C 48.74 48.50 47.76 45.51 46.02 46.19 C 43.16 46.88 39.71 47.45 37.66 44.78 C 40.71 42.11 42.45 38.26 41.98 34.18 C 43.63 33.14 45.64 32.02 45.87 29.85 C 46.59 26.52 43.16 23.16 39.84 24.16 C 38.33 24.43 37.41 25.78 36.33 26.72 C 33.48 25.90 30.52 25.92 27.67 26.72 C 26.59 25.77 25.67 24.43 24.16 24.16 C 20.83 23.16 17.33 26.54 18.11 29.90 Z" />
<path fill="#ffffff" opacity="1.00" d=" M 29.42 30.46 C 32.88 28.92 37.55 30.97 37.91 34.95 C 38.81 38.99 34.94 42.93 30.87 41.91 C 25.20 41.42 24.27 32.47 29.42 30.46 Z" />
<path fill="#ffffff" opacity="1.00" d=" M 30.32 46.36 C 32.79 45.09 36.07 47.12 35.97 49.90 C 35.95 52.37 36.67 55.65 34.28 57.29 C 31.86 59.15 27.89 57.18 28.03 54.10 C 27.98 51.46 27.32 47.68 30.32 46.36 Z" />
</g>
<g id="#000000ff">
<path fill="#000000" opacity="1.00" d=" M 30.00 0.00 L 34.00 0.00 C 34.01 3.33 33.99 6.66 34.00 10.00 C 37.35 10.02 40.69 9.98 44.03 10.01 C 47.36 13.32 50.68 16.64 54.00 19.97 C 54.00 25.31 54.00 30.65 54.00 35.99 C 51.99 36.68 49.98 37.35 47.97 38.01 C 48.00 36.82 48.03 35.64 48.06 34.46 C 48.48 34.11 49.33 33.41 49.75 33.06 C 50.29 29.40 49.94 25.66 49.98 21.97 C 47.32 19.98 44.67 17.98 42.01 16.00 C 35.35 16.00 28.69 16.00 22.04 16.00 C 19.35 17.99 16.69 20.00 14.01 22.01 C 14.05 25.67 13.75 29.37 14.20 33.01 C 14.64 33.38 15.50 34.10 15.94 34.46 C 15.97 35.64 16.00 36.83 16.03 38.02 C 14.02 37.33 12.01 36.63 10.00 35.93 C 10.00 30.62 10.00 25.31 10.00 20.00 C 13.33 16.66 16.66 13.33 20.00 10.01 C 23.33 9.98 26.66 10.02 30.00 10.00 C 30.01 6.66 29.99 3.33 30.00 0.00 Z" />
<path fill="#000000" opacity="1.00" d=" M 18.11 29.90 C 17.33 26.54 20.83 23.16 24.16 24.16 C 25.67 24.43 26.59 25.77 27.67 26.72 C 30.52 25.92 33.48 25.90 36.33 26.72 C 37.41 25.78 38.33 24.43 39.84 24.16 C 43.16 23.16 46.59 26.52 45.87 29.85 C 45.64 32.02 43.63 33.14 41.98 34.18 C 42.45 38.26 40.71 42.11 37.66 44.78 C 39.71 47.45 43.16 46.88 46.02 46.19 C 47.76 45.51 48.74 48.50 47.39 49.41 C 45.35 51.11 42.54 50.79 40.07 50.74 C 40.00 52.79 39.88 54.85 39.70 56.90 C 42.03 57.86 44.53 57.87 47.01 57.83 C 48.61 58.64 48.21 60.94 46.64 61.50 C 43.55 62.78 40.29 61.31 37.46 60.07 C 34.18 62.49 29.82 62.48 26.54 60.07 C 23.57 61.37 19.91 63.03 16.82 61.18 C 15.22 60.36 15.99 57.40 17.86 57.81 C 20.06 57.96 22.23 57.66 24.29 56.89 C 24.12 54.85 24.00 52.79 23.94 50.74 C 21.20 50.90 15.50 51.18 16.08 47.06 C 18.21 44.94 21.68 47.68 24.43 46.60 C 24.89 46.12 25.80 45.16 26.25 44.68 C 23.24 42.04 21.58 38.23 22.01 34.20 C 20.36 33.17 18.36 32.05 18.11 29.90 M 29.42 30.46 C 24.27 32.47 25.20 41.42 30.87 41.91 C 34.94 42.93 38.81 38.99 37.91 34.95 C 37.55 30.97 32.88 28.92 29.42 30.46 M 30.32 46.36 C 27.32 47.68 27.98 51.46 28.03 54.10 C 27.89 57.18 31.86 59.15 34.28 57.29 C 36.67 55.65 35.95 52.37 35.97 49.90 C 36.07 47.12 32.79 45.09 30.32 46.36 Z" />
</g>
</svg>
