<?xml version="1.0" encoding="UTF-8" ?>
<!DOCTYPE svg PUBLIC "-//W3C//DTD SVG 1.1//EN" "http://www.w3.org/Graphics/SVG/1.1/DTD/svg11.dtd">
<svg width="60pt" height="60pt" viewBox="0 0 60 60" version="1.1" xmlns="http://www.w3.org/2000/svg">
<g id="#ffffffff">
<path fill="#ffffff" opacity="1.00" d=" M 0.00 0.00 L 60.00 0.00 L 60.00 45.50 C 59.77 38.23 53.35 31.86 46.02 32.04 C 38.16 31.78 31.22 39.25 32.09 47.08 C 32.44 53.98 38.57 59.69 45.40 60.00 L 0.00 60.00 L 0.00 0.00 M 7.16 8.19 C 4.30 9.89 7.32 12.69 9.74 12.21 C 14.56 18.10 19.24 24.09 24.03 30.00 C 28.02 30.00 32.01 30.00 36.00 30.00 C 40.77 24.09 45.46 18.10 50.27 12.23 C 51.55 11.85 54.26 11.99 53.93 9.98 C 54.20 7.85 51.40 8.00 50.00 7.99 C 35.72 8.15 21.42 7.73 7.16 8.19 M 24.00 34.00 C 24.00 40.00 24.00 46.00 24.00 52.01 C 25.48 51.51 26.96 51.01 28.45 50.52 C 27.15 44.67 28.71 38.56 32.52 33.97 C 29.68 34.00 26.84 34.01 24.00 34.00 Z" />
<path fill="#ffffff" opacity="1.00" d=" M 40.11 41.18 C 41.91 38.35 44.52 41.64 45.99 43.09 C 47.54 41.66 49.88 38.45 51.91 41.08 C 52.36 43.29 50.12 44.50 48.93 45.99 C 50.07 47.49 52.41 48.68 51.88 50.88 C 49.97 53.60 47.50 50.34 46.00 48.90 C 44.53 50.06 43.36 52.33 41.18 51.91 C 38.35 50.07 41.65 47.48 43.11 46.00 C 41.97 44.51 39.62 43.36 40.11 41.18 Z" />
<path fill="#ffffff" opacity="1.00" d=" M 46.57 60.00 C 53.66 59.72 59.70 53.69 60.00 46.60 L 60.00 60.00 L 46.57 60.00 Z" />
</g>
<g id="#000000ff">
<path fill="#968176" opacity="1.00" d=" M 7.16 8.19 C 21.42 7.73 35.72 8.15 50.00 7.99 C 51.40 8.00 54.20 7.85 53.93 9.98 C 54.26 11.99 51.55 11.85 50.27 12.23 C 45.46 18.10 40.77 24.09 36.00 30.00 C 32.01 30.00 28.02 30.00 24.03 30.00 C 19.24 24.09 14.56 18.10 9.74 12.21 C 7.32 12.69 4.30 9.89 7.16 8.19 Z" />
<path fill="#968176" opacity="1.00" d=" M 32.09 47.08 C 31.22 39.25 38.16 31.78 46.02 32.04 C 53.35 31.86 59.77 38.23 60.00 45.50 L 60.00 46.60 C 59.70 53.69 53.66 59.72 46.57 60.00 L 45.40 60.00 C 38.57 59.69 32.44 53.98 32.09 47.08 M 40.11 41.18 C 39.62 43.36 41.97 44.51 43.11 46.00 C 41.65 47.48 38.35 50.07 41.18 51.91 C 43.36 52.33 44.53 50.06 46.00 48.90 C 47.50 50.34 49.97 53.60 51.88 50.88 C 52.41 48.68 50.07 47.49 48.93 45.99 C 50.12 44.50 52.36 43.29 51.91 41.08 C 49.88 38.45 47.54 41.66 45.99 43.09 C 44.52 41.64 41.91 38.35 40.11 41.18 Z" />
<path fill="#968176" opacity="1.00" d=" M 24.00 34.00 C 26.84 34.01 29.68 34.00 32.52 33.97 C 28.71 38.56 27.15 44.67 28.45 50.52 C 26.96 51.01 25.48 51.51 24.00 52.01 C 24.00 46.00 24.00 40.00 24.00 34.00 Z" />
</g>
</svg>
