<?xml version="1.0" encoding="UTF-8" ?>
<!DOCTYPE svg PUBLIC "-//W3C//DTD SVG 1.1//EN" "http://www.w3.org/Graphics/SVG/1.1/DTD/svg11.dtd">
<svg width="60pt" height="60pt" viewBox="0 0 60 60" version="1.1" xmlns="http://www.w3.org/2000/svg">
<g id="#ffffffff">
<path fill="#ffffff" opacity="1.00" d=" M 0.00 0.00 L 60.00 0.00 L 60.00 60.00 L 0.00 60.00 L 0.00 0.00 M 9.46 6.58 C 5.78 8.16 5.66 12.67 6.07 16.07 C 5.91 17.74 8.31 18.68 9.36 17.43 C 10.96 15.38 8.82 11.84 11.12 10.17 C 13.01 9.95 14.93 10.07 16.82 9.80 C 18.38 9.22 18.38 6.74 16.80 6.18 C 14.38 5.88 11.78 5.69 9.46 6.58 M 43.20 6.19 C 41.96 6.66 41.60 8.38 42.51 9.33 C 44.57 10.97 48.12 8.82 49.81 11.10 C 50.05 13.02 49.93 14.96 50.21 16.88 C 50.95 18.71 54.05 18.12 53.92 16.09 C 54.11 13.30 54.44 9.93 52.24 7.79 C 49.91 5.41 46.21 5.87 43.20 6.19 M 24.76 15.83 C 21.54 18.44 23.37 22.66 23.37 26.10 C 24.37 28.04 25.67 29.80 27.04 31.50 C 28.04 35.72 23.16 36.23 20.43 37.54 C 17.70 38.46 16.82 41.41 16.52 43.98 C 25.51 44.01 34.49 44.01 43.48 43.98 C 43.17 41.41 42.30 38.49 39.60 37.53 C 36.86 36.14 31.95 35.78 32.97 31.49 C 34.35 29.78 35.63 27.98 36.62 26.01 C 36.39 23.01 38.02 19.62 35.96 16.97 C 32.93 14.35 28.06 12.67 24.76 15.83 M 7.15 42.07 C 5.26 43.46 6.15 46.14 6.03 48.13 C 6.01 51.23 8.74 53.95 11.83 53.97 C 13.81 53.87 16.48 54.70 17.89 52.86 C 18.73 49.23 14.12 50.14 11.95 49.90 C 7.65 49.49 12.52 41.12 7.15 42.07 M 51.18 42.07 C 48.54 43.83 51.46 48.09 48.84 49.82 C 46.95 50.06 45.04 49.93 43.15 50.20 C 41.25 50.91 41.90 54.10 43.95 53.94 C 47.78 54.64 53.15 53.72 53.85 49.11 C 53.98 46.74 55.14 41.40 51.18 42.07 Z" />
</g>
<g id="#000000ff">
<path fill="#000000" opacity="1.00" d=" M 9.46 6.58 C 11.78 5.69 14.38 5.88 16.80 6.18 C 18.38 6.74 18.38 9.22 16.82 9.80 C 14.93 10.07 13.01 9.95 11.12 10.17 C 8.82 11.84 10.96 15.38 9.36 17.43 C 8.31 18.68 5.91 17.74 6.07 16.07 C 5.66 12.67 5.78 8.16 9.46 6.58 Z" />
<path fill="#000000" opacity="1.00" d=" M 43.20 6.19 C 46.21 5.87 49.91 5.41 52.24 7.79 C 54.44 9.93 54.11 13.30 53.92 16.09 C 54.05 18.12 50.95 18.71 50.21 16.88 C 49.93 14.96 50.05 13.02 49.81 11.10 C 48.12 8.82 44.57 10.97 42.51 9.33 C 41.60 8.38 41.96 6.66 43.20 6.19 Z" />
<path fill="#000000" opacity="1.00" d=" M 24.76 15.83 C 28.06 12.67 32.93 14.35 35.96 16.97 C 38.02 19.62 36.39 23.01 36.62 26.01 C 35.63 27.98 34.35 29.78 32.97 31.49 C 31.95 35.78 36.86 36.14 39.60 37.53 C 42.30 38.49 43.17 41.41 43.48 43.98 C 34.49 44.01 25.51 44.01 16.52 43.98 C 16.82 41.41 17.70 38.46 20.43 37.54 C 23.16 36.23 28.04 35.72 27.04 31.50 C 25.67 29.80 24.37 28.04 23.37 26.10 C 23.37 22.66 21.54 18.44 24.76 15.83 Z" />
<path fill="#000000" opacity="1.00" d=" M 7.15 42.07 C 12.52 41.12 7.65 49.49 11.95 49.90 C 14.12 50.14 18.73 49.23 17.89 52.86 C 16.48 54.70 13.81 53.87 11.83 53.97 C 8.74 53.95 6.01 51.23 6.03 48.13 C 6.15 46.14 5.26 43.46 7.15 42.07 Z" />
<path fill="#000000" opacity="1.00" d=" M 51.18 42.07 C 55.14 41.40 53.98 46.74 53.85 49.11 C 53.15 53.72 47.78 54.64 43.95 53.94 C 41.90 54.10 41.25 50.91 43.15 50.20 C 45.04 49.93 46.95 50.06 48.84 49.82 C 51.46 48.09 48.54 43.83 51.18 42.07 Z" />
</g>
</svg>
