<?xml version="1.0" encoding="UTF-8" ?>
<!DOCTYPE svg PUBLIC "-//W3C//DTD SVG 1.1//EN" "http://www.w3.org/Graphics/SVG/1.1/DTD/svg11.dtd">
<svg width="64pt" height="64pt" viewBox="0 0 64 64" version="1.1" xmlns="http://www.w3.org/2000/svg">
<g id="#ffffffff">
<path fill="#ffffff" opacity="1.00" d=" M 0.00 0.00 L 64.00 0.00 L 64.00 64.00 L 0.00 64.00 L 0.00 0.00 M 8.08 18.38 C 7.90 30.92 8.05 43.46 8.00 56.00 C 12.00 56.00 16.00 56.00 20.00 56.00 C 20.00 47.33 20.00 38.67 20.00 30.00 C 28.00 30.00 36.00 30.00 44.00 30.00 C 44.00 38.67 44.00 47.33 44.00 56.00 C 48.00 56.00 52.00 56.00 56.00 56.00 C 55.94 43.45 56.11 30.90 55.91 18.36 C 47.90 14.93 39.99 11.29 32.00 7.82 C 24.03 11.34 16.12 15.00 8.08 18.38 M 30.00 36.00 C 30.01 39.04 30.01 42.09 29.97 45.14 C 29.14 44.28 28.30 43.43 27.46 42.59 C 26.51 43.53 25.55 44.45 24.58 45.37 C 27.04 47.87 29.53 50.33 32.00 52.82 C 34.49 50.37 36.96 47.88 39.43 45.41 C 38.47 44.48 37.52 43.53 36.58 42.58 C 35.72 43.44 34.87 44.31 34.02 45.18 C 33.99 42.12 34.00 39.06 34.00 36.00 C 32.67 36.01 31.33 36.01 30.00 36.00 Z" />
<path fill="#ffffff" opacity="1.00" d=" M 12.00 21.10 C 18.66 18.12 25.35 15.21 31.99 12.19 C 38.69 15.09 45.33 18.12 52.00 21.06 C 52.00 31.37 52.00 41.69 52.00 52.00 C 50.67 51.99 49.33 51.99 48.00 52.00 C 48.00 43.34 48.00 34.67 48.00 26.00 C 37.33 26.00 26.67 26.00 16.00 26.00 C 16.00 34.67 16.00 43.34 16.00 52.00 C 14.67 51.99 13.33 51.99 12.00 52.00 C 12.00 41.70 12.00 31.40 12.00 21.10 Z" />
</g>
<g id="#000000ff">
<path fill="#000000" opacity="1.00" d=" M 8.08 18.38 C 16.12 15.00 24.03 11.34 32.00 7.82 C 39.99 11.29 47.90 14.93 55.91 18.36 C 56.11 30.90 55.94 43.45 56.00 56.00 C 52.00 56.00 48.00 56.00 44.00 56.00 C 44.00 47.33 44.00 38.67 44.00 30.00 C 36.00 30.00 28.00 30.00 20.00 30.00 C 20.00 38.67 20.00 47.33 20.00 56.00 C 16.00 56.00 12.00 56.00 8.00 56.00 C 8.05 43.46 7.90 30.92 8.08 18.38 M 12.00 21.10 C 12.00 31.40 12.00 41.70 12.00 52.00 C 13.33 51.99 14.67 51.99 16.00 52.00 C 16.00 43.34 16.00 34.67 16.00 26.00 C 26.67 26.00 37.33 26.00 48.00 26.00 C 48.00 34.67 48.00 43.34 48.00 52.00 C 49.33 51.99 50.67 51.99 52.00 52.00 C 52.00 41.69 52.00 31.37 52.00 21.06 C 45.33 18.12 38.69 15.09 31.99 12.19 C 25.35 15.21 18.66 18.12 12.00 21.10 Z" />
<path fill="#000000" opacity="1.00" d=" M 30.00 36.00 C 31.33 36.01 32.67 36.01 34.00 36.00 C 34.00 39.06 33.99 42.12 34.02 45.18 C 34.87 44.31 35.72 43.44 36.58 42.58 C 37.52 43.53 38.47 44.48 39.43 45.41 C 36.96 47.88 34.49 50.37 32.00 52.82 C 29.53 50.33 27.04 47.87 24.58 45.37 C 25.55 44.45 26.51 43.53 27.46 42.59 C 28.30 43.43 29.14 44.28 29.97 45.14 C 30.01 42.09 30.01 39.04 30.00 36.00 Z" />
</g>
</svg>
