<?xml version="1.0" encoding="UTF-8" ?>
<!DOCTYPE svg PUBLIC "-//W3C//DTD SVG 1.1//EN" "http://www.w3.org/Graphics/SVG/1.1/DTD/svg11.dtd">
<svg width="60pt" height="60pt" viewBox="0 0 60 60" version="1.1" xmlns="http://www.w3.org/2000/svg">
<g id="#ffffffff">
<path fill="#ffffff" opacity="1.00" d=" M 0.00 0.00 L 60.00 0.00 L 60.00 60.00 L 0.00 60.00 L 0.00 0.00 M 28.34 6.44 C 22.88 9.27 17.62 12.48 12.18 15.34 C 10.37 16.34 7.90 17.47 8.06 19.95 C 7.95 29.32 7.97 38.70 8.05 48.07 C 7.85 50.43 10.15 51.52 11.94 52.32 C 12.08 41.55 11.96 30.77 12.00 20.00 C 24.00 20.00 36.00 20.00 48.00 20.00 C 48.04 30.77 47.92 41.55 48.06 52.33 C 49.84 51.53 52.08 50.41 51.94 48.10 C 52.10 39.40 51.94 30.68 52.02 21.97 C 52.01 20.14 52.10 17.81 50.23 16.78 C 45.03 13.59 39.56 10.85 34.29 7.77 C 32.49 6.86 30.39 5.26 28.34 6.44 M 16.00 24.00 C 16.00 26.00 16.00 28.00 16.00 30.00 C 25.33 30.00 34.67 30.00 44.00 30.00 C 44.00 28.00 44.00 26.00 44.00 24.00 C 34.67 24.00 25.33 24.00 16.00 24.00 M 28.00 34.00 C 28.00 37.33 28.00 40.67 28.00 44.00 C 26.01 44.00 24.03 44.00 22.04 44.00 C 24.70 46.66 27.33 49.35 30.00 52.00 C 32.66 49.34 35.33 46.67 37.99 44.00 C 36.00 44.00 34.00 44.00 32.00 44.00 C 32.00 40.67 32.00 37.33 32.00 34.00 C 30.67 34.00 29.33 34.00 28.00 34.00 Z" />
</g>
<g id="#000000ff">
<path fill="#000000" opacity="1.00" d=" M 28.34 6.44 C 30.39 5.26 32.49 6.86 34.29 7.77 C 39.56 10.85 45.03 13.59 50.23 16.78 C 52.10 17.81 52.01 20.14 52.02 21.97 C 51.94 30.68 52.10 39.40 51.94 48.10 C 52.08 50.41 49.84 51.53 48.06 52.33 C 47.92 41.55 48.04 30.77 48.00 20.00 C 36.00 20.00 24.00 20.00 12.00 20.00 C 11.96 30.77 12.08 41.55 11.94 52.32 C 10.15 51.52 7.85 50.43 8.05 48.07 C 7.97 38.70 7.95 29.32 8.06 19.95 C 7.90 17.47 10.37 16.34 12.18 15.34 C 17.62 12.48 22.88 9.27 28.34 6.44 Z" />
<path fill="#000000" opacity="1.00" d=" M 16.00 24.00 C 25.33 24.00 34.67 24.00 44.00 24.00 C 44.00 26.00 44.00 28.00 44.00 30.00 C 34.67 30.00 25.33 30.00 16.00 30.00 C 16.00 28.00 16.00 26.00 16.00 24.00 Z" />
<path fill="#000000" opacity="1.00" d=" M 28.00 34.00 C 29.33 34.00 30.67 34.00 32.00 34.00 C 32.00 37.33 32.00 40.67 32.00 44.00 C 34.00 44.00 36.00 44.00 37.99 44.00 C 35.33 46.67 32.66 49.34 30.00 52.00 C 27.33 49.35 24.70 46.66 22.04 44.00 C 24.03 44.00 26.01 44.00 28.00 44.00 C 28.00 40.67 28.00 37.33 28.00 34.00 Z" />
</g>
</svg>
