<?xml version="1.0" encoding="UTF-8" ?>
<!DOCTYPE svg PUBLIC "-//W3C//DTD SVG 1.1//EN" "http://www.w3.org/Graphics/SVG/1.1/DTD/svg11.dtd">
<svg width="200pt" height="200pt" viewBox="0 0 200 200" version="1.1" xmlns="http://www.w3.org/2000/svg">
<g id="#ffffffff">
<path fill="#ffffff" opacity="1.00" d=" M 0.00 0.00 L 200.00 0.00 L 200.00 200.00 L 0.00 200.00 L 0.00 0.00 M 91.77 49.78 C 82.22 55.22 75.92 65.25 73.92 75.93 C 64.75 72.73 54.02 74.38 46.54 80.64 C 38.90 86.68 35.07 96.79 36.28 106.40 C 28.20 106.13 19.74 109.25 14.92 115.98 C 8.63 124.37 8.34 136.86 14.65 145.32 C 18.64 150.86 25.18 154.13 31.77 155.29 C 69.53 155.21 107.29 155.37 145.05 155.41 C 152.78 155.24 160.61 155.65 168.25 154.21 C 177.31 151.47 185.04 144.33 188.20 135.36 C 191.10 127.36 190.37 118.14 186.26 110.70 C 183.24 105.00 178.20 100.63 172.49 97.77 C 173.15 91.72 171.43 85.36 167.21 80.89 C 162.48 75.57 154.99 73.23 148.03 74.39 C 146.23 67.32 142.90 60.52 137.67 55.35 C 125.97 43.35 106.05 41.22 91.77 49.78 Z" />
</g>
<g id="#000000ff">
<path fill="#968176" opacity="1.00" d=" M 91.77 49.78 C 106.05 41.22 125.97 43.35 137.67 55.35 C 142.90 60.52 146.23 67.32 148.03 74.39 C 154.99 73.23 162.48 75.57 167.21 80.89 C 171.43 85.36 173.15 91.72 172.49 97.77 C 178.20 100.63 183.24 105.00 186.26 110.70 C 190.37 118.14 191.10 127.36 188.20 135.36 C 185.04 144.33 177.31 151.47 168.25 154.21 C 160.61 155.65 152.78 155.24 145.05 155.41 C 107.29 155.37 69.53 155.21 31.77 155.29 C 25.18 154.13 18.64 150.86 14.65 145.32 C 8.34 136.86 8.63 124.37 14.92 115.98 C 19.74 109.25 28.20 106.13 36.28 106.40 C 35.07 96.79 38.90 86.68 46.54 80.64 C 54.02 74.38 64.75 72.73 73.92 75.93 C 75.92 65.25 82.22 55.22 91.77 49.78 Z" />
</g>
</svg>
