<?xml version="1.0" encoding="UTF-8" ?>
<!DOCTYPE svg PUBLIC "-//W3C//DTD SVG 1.1//EN" "http://www.w3.org/Graphics/SVG/1.1/DTD/svg11.dtd">
<svg width="60pt" height="60pt" viewBox="0 0 60 60" version="1.1" xmlns="http://www.w3.org/2000/svg">
<g id="#ffffffff">
<path fill="#ffffff" opacity="1.00" d=" M 0.00 0.00 L 60.00 0.00 L 60.00 60.00 L 0.00 60.00 L 0.00 0.00 M 22.57 6.31 C 17.25 7.82 11.70 8.65 6.55 10.63 C 5.42 13.80 6.02 17.52 6.19 20.87 C 8.07 23.01 11.48 21.64 14.00 22.00 C 14.02 31.69 13.97 41.38 14.01 51.07 C 13.85 52.31 14.40 54.10 15.97 53.92 C 24.65 54.13 33.34 53.92 42.02 54.02 C 43.47 54.03 46.00 54.16 45.92 52.06 C 46.13 42.04 45.93 32.02 46.00 22.00 C 48.27 22.01 50.57 22.15 52.83 21.81 C 54.56 20.89 53.80 18.62 54.05 17.05 C 53.86 14.92 54.50 12.46 53.40 10.56 C 49.84 9.00 45.92 8.55 42.20 7.45 C 35.87 5.44 29.09 5.77 22.57 6.31 Z" />
<path fill="#ffffff" opacity="1.00" d=" M 24.16 10.05 C 28.05 9.98 31.95 9.97 35.84 10.05 C 34.85 12.68 33.40 16.13 30.01 15.99 C 26.62 16.15 25.12 12.70 24.16 10.05 Z" />
<path fill="#ffffff" opacity="1.00" d=" M 22.23 25.19 C 24.97 23.69 28.80 25.71 28.66 28.96 C 29.13 32.00 26.06 34.67 23.12 33.71 C 19.33 32.88 18.90 26.87 22.23 25.19 M 25.17 31.61 C 25.37 30.04 25.36 28.46 25.09 26.90 C 22.56 27.53 22.48 31.13 25.17 31.61 Z" />
<path fill="#ffffff" opacity="1.00" d=" M 22.30 42.80 C 26.48 37.18 30.45 31.40 33.74 25.19 C 35.10 25.20 36.46 25.20 37.81 25.20 C 33.60 30.79 29.58 36.54 26.40 42.79 C 25.03 42.79 23.67 42.80 22.30 42.80 Z" />
<path fill="#ffffff" opacity="1.00" d=" M 33.42 34.69 C 36.00 33.13 39.87 34.85 39.96 38.00 C 40.55 40.88 38.00 43.86 35.00 43.23 C 30.90 42.88 30.07 36.59 33.42 34.69 M 34.91 41.06 C 37.22 40.69 37.81 36.43 34.91 36.76 C 34.36 38.15 34.70 39.64 34.91 41.06 Z" />
</g>
<g id="#000000ff">
<path fill="#000000" opacity="1.00" d=" M 22.57 6.31 C 29.09 5.77 35.87 5.44 42.20 7.45 C 45.92 8.55 49.84 9.00 53.40 10.56 C 54.50 12.46 53.86 14.92 54.05 17.05 C 53.80 18.62 54.56 20.89 52.83 21.81 C 50.57 22.15 48.27 22.01 46.00 22.00 C 45.93 32.02 46.13 42.04 45.92 52.06 C 46.00 54.16 43.47 54.03 42.02 54.02 C 33.34 53.92 24.65 54.13 15.97 53.92 C 14.40 54.10 13.85 52.31 14.01 51.07 C 13.97 41.38 14.02 31.69 14.00 22.00 C 11.48 21.64 8.07 23.01 6.19 20.87 C 6.02 17.52 5.42 13.80 6.55 10.63 C 11.70 8.65 17.25 7.82 22.57 6.31 M 24.16 10.05 C 25.12 12.70 26.62 16.15 30.01 15.99 C 33.40 16.13 34.85 12.68 35.84 10.05 C 31.95 9.97 28.05 9.98 24.16 10.05 M 22.23 25.19 C 18.90 26.87 19.33 32.88 23.12 33.71 C 26.06 34.67 29.13 32.00 28.66 28.96 C 28.80 25.71 24.97 23.69 22.23 25.19 M 22.30 42.80 C 23.67 42.80 25.03 42.79 26.40 42.79 C 29.58 36.54 33.60 30.79 37.81 25.20 C 36.46 25.20 35.10 25.20 33.74 25.19 C 30.45 31.40 26.48 37.18 22.30 42.80 M 33.42 34.69 C 30.07 36.59 30.90 42.88 35.00 43.23 C 38.00 43.86 40.55 40.88 39.96 38.00 C 39.87 34.85 36.00 33.13 33.42 34.69 Z" />
<path fill="#000000" opacity="1.00" d=" M 25.17 31.61 C 22.48 31.13 22.56 27.53 25.09 26.90 C 25.36 28.46 25.37 30.04 25.17 31.61 Z" />
<path fill="#000000" opacity="1.00" d=" M 34.91 41.06 C 34.70 39.64 34.36 38.15 34.91 36.76 C 37.81 36.43 37.22 40.69 34.91 41.06 Z" />
</g>
</svg>
