<?xml version="1.0" encoding="UTF-8" ?>
<!DOCTYPE svg PUBLIC "-//W3C//DTD SVG 1.1//EN" "http://www.w3.org/Graphics/SVG/1.1/DTD/svg11.dtd">
<svg width="60pt" height="60pt" viewBox="0 0 60 60" version="1.1" xmlns="http://www.w3.org/2000/svg">
<g id="#ffffffff">
<path fill="#ffffff" opacity="1.00" d=" M 0.00 0.00 L 60.00 0.00 L 60.00 60.00 L 0.00 60.00 L 0.00 0.00 M 14.43 15.33 C 8.57 20.60 6.42 29.49 9.22 36.86 C 11.95 44.57 19.79 50.08 27.98 49.99 C 32.62 50.11 36.99 48.17 40.68 45.51 C 43.57 48.25 46.17 51.30 49.23 53.85 C 50.83 54.55 52.58 52.86 51.84 51.24 C 49.32 48.15 46.24 45.58 43.51 42.68 C 45.70 39.54 47.57 36.02 47.87 32.12 C 48.90 23.78 43.95 15.19 36.28 11.81 C 29.16 8.45 20.13 9.90 14.43 15.33 Z" />
<path fill="#ffffff" opacity="1.00" d=" M 12.29 33.04 C 10.33 24.37 17.04 15.12 25.82 14.15 C 32.96 13.04 40.10 17.43 42.91 23.97 C 34.34 24.17 25.74 23.73 17.18 24.18 C 15.05 25.17 16.20 27.70 17.98 28.31 C 18.47 31.39 16.88 35.34 19.07 37.82 C 24.98 38.14 30.95 38.12 36.87 37.82 C 39.19 35.32 37.50 31.15 37.99 27.98 C 39.99 28.02 41.99 28.01 44.00 28.03 C 44.73 35.33 40.26 42.87 33.17 45.13 C 24.40 48.47 13.80 42.25 12.29 33.04 Z" />
<path fill="#ffffff" opacity="1.00" d=" M 23.11 30.17 C 26.33 29.86 29.59 29.87 32.81 30.15 C 34.37 30.83 34.37 33.19 32.80 33.84 C 29.59 34.13 26.34 34.14 23.13 33.83 C 21.65 33.11 21.65 30.92 23.11 30.17 Z" />
</g>
<g id="#000000ff">
<path fill="#000000" opacity="1.00" d=" M 14.43 15.33 C 20.13 9.90 29.16 8.45 36.28 11.81 C 43.95 15.19 48.90 23.78 47.87 32.12 C 47.57 36.02 45.70 39.54 43.51 42.68 C 46.24 45.58 49.32 48.15 51.84 51.24 C 52.58 52.86 50.83 54.55 49.23 53.85 C 46.17 51.30 43.57 48.25 40.68 45.51 C 36.99 48.17 32.62 50.11 27.98 49.99 C 19.79 50.08 11.95 44.57 9.22 36.86 C 6.42 29.49 8.57 20.60 14.43 15.33 M 12.29 33.04 C 13.80 42.25 24.40 48.47 33.17 45.13 C 40.26 42.87 44.73 35.33 44.00 28.03 C 41.99 28.01 39.99 28.02 37.99 27.98 C 37.50 31.15 39.19 35.32 36.87 37.82 C 30.95 38.12 24.98 38.14 19.07 37.82 C 16.88 35.34 18.47 31.39 17.98 28.31 C 16.20 27.70 15.05 25.17 17.18 24.18 C 25.74 23.73 34.34 24.17 42.91 23.97 C 40.10 17.43 32.96 13.04 25.82 14.15 C 17.04 15.12 10.33 24.37 12.29 33.04 M 23.11 30.17 C 21.65 30.92 21.65 33.11 23.13 33.83 C 26.34 34.14 29.59 34.13 32.80 33.84 C 34.37 33.19 34.37 30.83 32.81 30.15 C 29.59 29.87 26.33 29.86 23.11 30.17 Z" />
</g>
</svg>
