<?xml version="1.0" encoding="UTF-8" ?>
<!DOCTYPE svg PUBLIC "-//W3C//DTD SVG 1.1//EN" "http://www.w3.org/Graphics/SVG/1.1/DTD/svg11.dtd">
<svg width="60pt" height="60pt" viewBox="0 0 60 60" version="1.1" xmlns="http://www.w3.org/2000/svg">
<g id="#ffffffff">
<path fill="#ffffff" opacity="1.00" d=" M 0.00 0.00 L 60.00 0.00 L 60.00 60.00 L 0.00 60.00 L 0.00 0.00 M 4.44 17.53 C 3.48 18.74 1.30 19.91 2.26 21.74 C 4.11 23.88 6.13 25.90 8.27 27.75 C 10.84 28.63 12.22 25.24 14.00 24.00 C 13.99 31.34 14.02 38.67 13.98 46.00 C 14.04 47.64 13.79 49.63 15.19 50.82 C 16.71 52.39 19.03 51.92 20.98 52.02 C 28.01 51.94 35.04 52.08 42.06 51.96 C 44.12 52.00 46.00 50.12 45.96 48.07 C 46.08 40.04 45.95 32.00 46.01 23.97 C 47.78 25.26 49.17 28.61 51.72 27.74 C 53.89 25.93 55.92 23.92 57.72 21.74 C 58.76 19.98 56.50 18.68 55.55 17.49 C 51.48 13.88 48.05 8.36 42.04 8.10 C 34.01 7.93 25.95 7.93 17.91 8.11 C 11.94 8.44 8.48 13.89 4.44 17.53 Z" />
<path fill="#ffffff" opacity="1.00" d=" M 23.42 12.07 C 27.81 11.96 32.21 11.97 36.61 12.06 C 35.01 14.13 32.85 16.17 30.02 16.00 C 27.19 16.18 24.99 14.17 23.42 12.07 Z" />
</g>
<g id="#000000ff">
<path fill="#000000" opacity="1.00" d=" M 4.44 17.53 C 8.48 13.89 11.94 8.44 17.91 8.11 C 25.95 7.93 34.01 7.93 42.04 8.10 C 48.05 8.36 51.48 13.88 55.55 17.49 C 56.50 18.68 58.76 19.98 57.72 21.74 C 55.92 23.92 53.89 25.93 51.72 27.74 C 49.17 28.61 47.78 25.26 46.01 23.97 C 45.95 32.00 46.08 40.04 45.96 48.07 C 46.00 50.12 44.12 52.00 42.06 51.96 C 35.04 52.08 28.01 51.94 20.98 52.02 C 19.03 51.92 16.71 52.39 15.19 50.82 C 13.79 49.63 14.04 47.64 13.98 46.00 C 14.02 38.67 13.99 31.34 14.00 24.00 C 12.22 25.24 10.84 28.63 8.27 27.75 C 6.13 25.90 4.11 23.88 2.26 21.74 C 1.30 19.91 3.48 18.74 4.44 17.53 M 23.42 12.07 C 24.99 14.17 27.19 16.18 30.02 16.00 C 32.85 16.17 35.01 14.13 36.61 12.06 C 32.21 11.97 27.81 11.96 23.42 12.07 Z" />
</g>
</svg>
