<?xml version="1.0" encoding="UTF-8" ?>
<!DOCTYPE svg PUBLIC "-//W3C//DTD SVG 1.1//EN" "http://www.w3.org/Graphics/SVG/1.1/DTD/svg11.dtd">
<svg width="60pt" height="60pt" viewBox="0 0 60 60" version="1.1" xmlns="http://www.w3.org/2000/svg">
<g id="#ffffffff">
<path fill="#ffffff" opacity="1.00" d=" M 0.00 0.00 L 60.00 0.00 L 60.00 60.00 L 0.00 60.00 L 0.00 0.00 M 4.00 10.93 C 4.03 22.64 3.93 34.36 4.05 46.07 C 3.91 48.63 6.59 50.33 8.93 50.00 C 22.98 50.00 37.04 50.01 51.10 50.00 C 53.44 50.35 56.02 48.57 55.94 46.08 C 56.08 35.71 55.96 25.34 56.00 14.97 C 56.35 12.59 54.61 9.88 52.01 10.05 C 42.16 9.90 32.30 10.08 22.45 9.97 C 21.41 8.61 20.72 6.66 18.90 6.19 C 15.26 5.80 11.58 5.99 7.92 6.05 C 5.41 5.97 3.64 8.58 4.00 10.93 Z" />
<path fill="#ffffff" opacity="1.00" d=" M 26.51 24.06 C 28.20 21.22 31.54 19.15 34.90 20.28 C 38.44 21.14 40.23 24.82 40.10 28.23 C 41.50 29.32 43.19 30.31 43.67 32.16 C 45.07 35.76 41.97 40.10 38.11 39.94 C 32.38 40.00 26.62 40.15 20.90 39.86 C 15.61 39.22 14.22 31.27 19.03 28.92 C 20.81 26.33 22.74 23.14 26.51 24.06 Z" />
</g>
<g id="#000000ff">
<path fill="#000000" opacity="1.00" d=" M 4.00 10.93 C 3.64 8.58 5.41 5.97 7.92 6.05 C 11.58 5.99 15.26 5.80 18.90 6.19 C 20.72 6.66 21.41 8.61 22.45 9.97 C 32.30 10.08 42.16 9.90 52.01 10.05 C 54.61 9.88 56.35 12.59 56.00 14.97 C 55.96 25.34 56.08 35.71 55.94 46.08 C 56.02 48.57 53.44 50.35 51.10 50.00 C 37.04 50.01 22.98 50.00 8.93 50.00 C 6.59 50.33 3.91 48.63 4.05 46.07 C 3.93 34.36 4.03 22.64 4.00 10.93 M 26.51 24.06 C 22.74 23.14 20.81 26.33 19.03 28.92 C 14.22 31.27 15.61 39.22 20.90 39.86 C 26.62 40.15 32.38 40.00 38.11 39.94 C 41.97 40.10 45.07 35.76 43.67 32.16 C 43.19 30.31 41.50 29.32 40.10 28.23 C 40.23 24.82 38.44 21.14 34.90 20.28 C 31.54 19.15 28.20 21.22 26.51 24.06 Z" />
</g>
</svg>
