<?xml version="1.0" encoding="UTF-8" ?>
<!DOCTYPE svg PUBLIC "-//W3C//DTD SVG 1.1//EN" "http://www.w3.org/Graphics/SVG/1.1/DTD/svg11.dtd">
<svg width="60pt" height="60pt" viewBox="0 0 60 60" version="1.1" xmlns="http://www.w3.org/2000/svg">
<g id="#ffffffff">
<path fill="#ffffff" opacity="1.00" d=" M 0.00 0.00 L 60.00 0.00 L 60.00 37.35 C 59.75 32.54 56.44 28.52 52.14 26.60 C 52.18 19.01 46.69 11.64 39.09 10.31 C 32.20 8.79 25.13 12.57 21.71 18.55 C 17.99 17.53 13.66 18.02 10.93 20.98 C 8.79 22.71 9.10 26.26 6.43 27.47 C 2.70 29.30 0.34 33.16 0.00 37.25 L 0.00 0.00 Z" />
<path fill="#ffffff" opacity="1.00" d=" M 40.61 24.62 C 41.63 23.31 44.27 24.27 43.92 26.00 C 44.06 27.34 42.58 28.01 41.90 28.96 C 37.14 33.53 32.68 38.41 27.82 42.85 C 26.47 43.73 25.33 42.38 24.46 41.54 C 22.33 39.32 19.99 37.29 18.03 34.90 C 17.61 33.31 19.02 31.80 20.62 32.31 C 22.95 34.04 24.78 36.32 26.89 38.29 C 31.48 33.75 35.97 29.10 40.61 24.62 Z" />
<path fill="#ffffff" opacity="1.00" d=" M 0.00 38.47 C 0.20 44.66 5.67 50.04 11.89 49.95 C 23.95 50.04 36.02 50.04 48.08 49.95 C 54.30 50.09 59.70 44.72 60.00 38.58 L 60.00 60.00 L 0.00 60.00 L 0.00 38.47 Z" />
</g>
<g id="#000000ff">
<path fill="#000000" opacity="1.00" d=" M 21.71 18.55 C 25.13 12.57 32.20 8.79 39.09 10.31 C 46.69 11.64 52.18 19.01 52.14 26.60 C 56.44 28.52 59.75 32.54 60.00 37.35 L 60.00 38.58 C 59.70 44.72 54.30 50.09 48.08 49.95 C 36.02 50.04 23.95 50.04 11.89 49.95 C 5.67 50.04 0.20 44.66 0.00 38.47 L 0.00 37.25 C 0.34 33.16 2.70 29.30 6.43 27.47 C 9.10 26.26 8.79 22.71 10.93 20.98 C 13.66 18.02 17.99 17.53 21.71 18.55 M 40.61 24.62 C 35.97 29.10 31.48 33.75 26.89 38.29 C 24.78 36.32 22.95 34.04 20.62 32.31 C 19.02 31.80 17.61 33.31 18.03 34.90 C 19.99 37.29 22.33 39.32 24.46 41.54 C 25.33 42.38 26.47 43.73 27.82 42.85 C 32.68 38.41 37.14 33.53 41.90 28.96 C 42.58 28.01 44.06 27.34 43.92 26.00 C 44.27 24.27 41.63 23.31 40.61 24.62 Z" />
</g>
</svg>
