<?xml version="1.0" encoding="UTF-8" ?>
<!DOCTYPE svg PUBLIC "-//W3C//DTD SVG 1.1//EN" "http://www.w3.org/Graphics/SVG/1.1/DTD/svg11.dtd">
<svg width="60pt" height="60pt" viewBox="0 0 60 60" version="1.1" xmlns="http://www.w3.org/2000/svg">
<g id="#ffffffff">
<path fill="#ffffff" opacity="1.00" d=" M 0.00 0.00 L 60.00 0.00 L 60.00 60.00 L 0.00 60.00 L 0.00 0.00 M 8.55 8.63 C 3.44 12.48 2.53 20.55 6.64 25.46 C 9.47 29.23 14.44 30.44 18.94 29.87 C 16.15 26.52 13.84 22.48 14.01 17.97 C 13.85 13.48 16.16 9.47 18.94 6.13 C 15.33 5.82 11.42 6.17 8.55 8.63 M 18.03 17.98 C 17.85 23.79 22.47 28.74 27.99 29.94 C 27.99 31.29 28.00 32.65 28.01 34.00 C 24.63 34.04 21.24 33.89 17.87 34.05 C 15.82 34.03 13.99 35.91 14.04 37.95 C 13.94 41.98 13.94 46.02 14.05 50.05 C 13.91 52.61 16.56 54.32 18.92 54.00 C 26.64 53.97 34.36 54.08 42.07 53.95 C 44.13 53.99 45.99 52.13 45.95 50.07 C 46.06 46.02 46.06 41.96 45.95 37.91 C 45.97 35.87 44.17 33.96 42.10 34.05 C 38.73 33.88 35.36 34.04 31.99 34.00 C 32.00 32.65 32.01 31.29 32.01 29.94 C 36.77 28.82 40.99 25.12 41.77 20.16 C 43.20 13.52 37.89 6.54 31.14 6.08 C 24.37 5.22 17.83 11.17 18.03 17.98 M 41.05 6.13 C 43.82 9.47 46.14 13.48 45.99 17.96 C 46.15 22.47 43.84 26.52 41.05 29.87 C 44.41 30.10 48.03 29.94 50.83 27.81 C 56.40 24.18 57.66 15.71 53.40 10.60 C 50.58 6.78 45.58 5.55 41.05 6.13 Z" />
<path fill="#ffffff" opacity="1.00" d=" M 24.15 14.86 C 24.66 11.13 29.24 8.83 32.56 10.58 C 34.78 11.49 35.65 13.84 36.23 15.97 C 34.94 15.98 33.66 15.98 32.37 15.98 C 31.66 14.29 29.23 13.05 28.18 15.15 C 27.87 17.03 27.86 18.96 28.17 20.84 C 29.22 22.95 31.66 21.71 32.37 20.02 C 33.66 20.02 34.95 20.02 36.23 20.03 C 35.79 24.12 31.38 27.43 27.43 25.40 C 23.39 23.59 23.72 18.52 24.15 14.86 Z" />
<path fill="#ffffff" opacity="1.00" d=" M 17.94 41.88 C 24.90 36.72 35.11 36.72 42.07 41.87 C 40.71 44.58 39.35 47.29 38.00 50.01 C 36.13 50.00 34.26 49.99 32.39 50.00 C 33.68 48.07 35.19 46.24 36.05 44.06 C 36.06 42.53 34.55 41.56 33.16 42.12 C 30.94 44.44 29.46 47.32 27.73 50.00 C 25.82 49.99 23.91 50.00 22.00 50.00 C 20.65 47.29 19.29 44.58 17.94 41.88 Z" />
</g>
<g id="#000000ff">
<path fill="#968176" opacity="1.00" d=" M 8.55 8.63 C 11.42 6.17 15.33 5.82 18.94 6.13 C 16.16 9.47 13.85 13.48 14.01 17.97 C 13.84 22.48 16.15 26.52 18.94 29.87 C 14.44 30.44 9.47 29.23 6.64 25.46 C 2.53 20.55 3.44 12.48 8.55 8.63 Z" />
<path fill="#968176" opacity="1.00" d=" M 18.03 17.98 C 17.83 11.17 24.37 5.22 31.14 6.08 C 37.89 6.54 43.20 13.52 41.77 20.16 C 40.99 25.12 36.77 28.82 32.01 29.94 C 32.01 31.29 32.00 32.65 31.99 34.00 C 35.36 34.04 38.73 33.88 42.10 34.05 C 44.17 33.96 45.97 35.87 45.95 37.91 C 46.06 41.96 46.06 46.02 45.95 50.07 C 45.99 52.13 44.13 53.99 42.07 53.95 C 34.36 54.08 26.64 53.97 18.92 54.00 C 16.56 54.32 13.91 52.61 14.05 50.05 C 13.94 46.02 13.94 41.98 14.04 37.95 C 13.99 35.91 15.82 34.03 17.87 34.05 C 21.24 33.89 24.63 34.04 28.01 34.00 C 28.00 32.65 27.99 31.29 27.99 29.94 C 22.47 28.74 17.85 23.79 18.03 17.98 M 24.15 14.86 C 23.72 18.52 23.39 23.59 27.43 25.40 C 31.38 27.43 35.79 24.12 36.23 20.03 C 34.95 20.02 33.66 20.02 32.37 20.02 C 31.66 21.71 29.22 22.95 28.17 20.84 C 27.86 18.96 27.87 17.03 28.18 15.15 C 29.23 13.05 31.66 14.29 32.37 15.98 C 33.66 15.98 34.94 15.98 36.23 15.97 C 35.65 13.84 34.78 11.49 32.56 10.58 C 29.24 8.83 24.66 11.13 24.15 14.86 M 17.94 41.88 C 19.29 44.58 20.65 47.29 22.00 50.00 C 23.91 50.00 25.82 49.99 27.73 50.00 C 29.46 47.32 30.94 44.44 33.16 42.12 C 34.55 41.56 36.06 42.53 36.05 44.06 C 35.19 46.24 33.68 48.07 32.39 50.00 C 34.26 49.99 36.13 50.00 38.00 50.01 C 39.35 47.29 40.71 44.58 42.07 41.87 C 35.11 36.72 24.90 36.72 17.94 41.88 Z" />
<path fill="#968176" opacity="1.00" d=" M 41.05 6.13 C 45.58 5.55 50.58 6.78 53.40 10.60 C 57.66 15.71 56.40 24.18 50.83 27.81 C 48.03 29.94 44.41 30.10 41.05 29.87 C 43.84 26.52 46.15 22.47 45.99 17.96 C 46.14 13.48 43.82 9.47 41.05 6.13 Z" />
</g>
</svg>
