<?xml version="1.0" encoding="UTF-8" ?>
<!DOCTYPE svg PUBLIC "-//W3C//DTD SVG 1.1//EN" "http://www.w3.org/Graphics/SVG/1.1/DTD/svg11.dtd">
<svg width="60pt" height="60pt" viewBox="0 0 60 60" version="1.1" xmlns="http://www.w3.org/2000/svg">
<g id="#ffffffff">
<path fill="#ffffff" opacity="1.00" d=" M 0.00 0.00 L 60.00 0.00 L 60.00 60.00 L 0.00 60.00 L 0.00 0.00 M 23.24 6.18 C 20.07 7.14 16.95 8.42 14.09 10.09 C 11.15 14.22 8.70 18.70 5.90 22.94 C 2.77 27.22 4.36 32.78 4.03 37.68 C 6.50 38.53 6.49 41.54 3.99 42.31 C 4.02 43.51 4.06 44.70 4.12 45.90 C 6.71 46.04 9.31 46.04 11.90 45.88 C 12.19 40.61 11.79 35.32 12.10 30.05 C 13.20 27.91 14.70 26.02 16.00 24.01 C 16.05 33.35 15.90 42.70 16.06 52.04 C 15.90 53.59 17.65 54.17 18.90 53.99 C 26.87 53.92 34.86 54.21 42.82 53.84 C 43.07 53.58 43.59 53.06 43.84 52.81 C 44.22 43.22 43.89 33.61 44.00 24.01 C 45.29 26.03 46.81 27.91 47.90 30.05 C 48.21 35.33 47.80 40.62 48.11 45.90 C 50.69 46.04 53.29 46.04 55.87 45.91 C 55.93 44.71 55.97 43.52 56.00 42.33 C 53.51 41.48 53.48 38.54 55.98 37.68 C 55.65 32.77 57.22 27.20 54.08 22.91 C 51.29 18.67 48.85 14.20 45.90 10.08 C 41.93 7.98 37.67 5.63 33.02 5.98 C 29.76 6.10 26.48 5.77 23.24 6.18 Z" />
<path fill="#ffffff" opacity="1.00" d=" M 23.21 9.96 C 27.74 10.03 32.27 10.03 36.79 9.96 C 37.19 11.97 37.59 13.97 38.00 15.98 C 35.95 15.65 33.34 13.42 31.62 15.46 C 30.95 16.92 30.50 18.46 30.00 19.99 C 29.17 18.11 29.21 15.38 27.02 14.51 C 25.30 14.83 23.66 15.43 22.00 15.98 C 22.41 13.97 22.81 11.96 23.21 9.96 Z" />
<path fill="#ffffff" opacity="1.00" d=" M 23.23 28.09 C 25.63 27.20 27.11 30.78 24.84 31.88 C 22.42 32.91 20.82 29.13 23.23 28.09 Z" />
<path fill="#ffffff" opacity="1.00" d=" M 35.20 28.14 C 37.58 27.12 39.13 30.80 36.85 31.88 C 34.44 32.91 32.80 29.16 35.20 28.14 Z" />
<path fill="#ffffff" opacity="1.00" d=" M 23.22 36.10 C 25.61 35.14 27.19 38.92 24.76 39.84 C 22.38 40.92 20.84 37.04 23.22 36.10 Z" />
<path fill="#ffffff" opacity="1.00" d=" M 35.20 36.16 C 37.57 35.08 39.16 38.86 36.81 39.89 C 34.43 40.89 32.80 37.13 35.20 36.16 Z" />
<path fill="#ffffff" opacity="1.00" d=" M 23.20 44.14 C 25.60 43.11 27.15 46.86 24.80 47.89 C 22.40 48.87 20.83 45.15 23.20 44.14 Z" />
<path fill="#ffffff" opacity="1.00" d=" M 35.18 44.09 C 37.61 43.15 39.13 46.81 36.81 47.89 C 34.38 48.84 32.87 45.19 35.18 44.09 Z" />
</g>
<g id="#000000ff">
<path fill="#000000" opacity="1.00" d=" M 23.24 6.18 C 26.48 5.77 29.76 6.10 33.02 5.98 C 37.67 5.63 41.93 7.98 45.90 10.08 C 48.85 14.20 51.29 18.67 54.08 22.91 C 57.22 27.20 55.65 32.77 55.98 37.68 C 53.48 38.54 53.51 41.48 56.00 42.33 C 55.97 43.52 55.93 44.71 55.87 45.91 C 53.29 46.04 50.69 46.04 48.11 45.90 C 47.80 40.62 48.21 35.33 47.90 30.05 C 46.81 27.91 45.29 26.03 44.00 24.01 C 43.89 33.61 44.22 43.22 43.84 52.81 C 43.59 53.06 43.07 53.58 42.82 53.84 C 34.86 54.21 26.87 53.92 18.90 53.99 C 17.65 54.17 15.90 53.59 16.06 52.04 C 15.90 42.70 16.05 33.35 16.00 24.01 C 14.70 26.02 13.20 27.91 12.10 30.05 C 11.79 35.32 12.19 40.61 11.90 45.88 C 9.31 46.04 6.71 46.04 4.12 45.90 C 4.06 44.70 4.02 43.51 3.99 42.31 C 6.49 41.54 6.50 38.53 4.03 37.68 C 4.36 32.78 2.77 27.22 5.90 22.94 C 8.70 18.70 11.15 14.22 14.09 10.09 C 16.95 8.42 20.07 7.14 23.24 6.18 M 23.21 9.96 C 22.81 11.96 22.41 13.97 22.00 15.98 C 23.66 15.43 25.30 14.83 27.02 14.51 C 29.21 15.38 29.17 18.11 30.00 19.99 C 30.50 18.46 30.95 16.92 31.62 15.46 C 33.34 13.42 35.95 15.65 38.00 15.98 C 37.59 13.97 37.19 11.97 36.79 9.96 C 32.27 10.03 27.74 10.03 23.21 9.96 M 23.23 28.09 C 20.82 29.13 22.42 32.91 24.84 31.88 C 27.11 30.78 25.63 27.20 23.23 28.09 M 35.20 28.14 C 32.80 29.16 34.44 32.91 36.85 31.88 C 39.13 30.80 37.58 27.12 35.20 28.14 M 23.22 36.10 C 20.84 37.04 22.38 40.92 24.76 39.84 C 27.19 38.92 25.61 35.14 23.22 36.10 M 35.20 36.16 C 32.80 37.13 34.43 40.89 36.81 39.89 C 39.16 38.86 37.57 35.08 35.20 36.16 M 23.20 44.14 C 20.83 45.15 22.40 48.87 24.80 47.89 C 27.15 46.86 25.60 43.11 23.20 44.14 M 35.18 44.09 C 32.87 45.19 34.38 48.84 36.81 47.89 C 39.13 46.81 37.61 43.15 35.18 44.09 Z" />
</g>
</svg>
