<?xml version="1.0" encoding="UTF-8" ?>
<!DOCTYPE svg PUBLIC "-//W3C//DTD SVG 1.1//EN" "http://www.w3.org/Graphics/SVG/1.1/DTD/svg11.dtd">
<svg width="64pt" height="64pt" viewBox="0 0 64 64" version="1.1" xmlns="http://www.w3.org/2000/svg">
<g id="#ffffffff">
<path fill="#ffffff" opacity="1.00" d=" M 0.00 0.00 L 64.00 0.00 L 64.00 64.00 L 0.00 64.00 L 0.00 0.00 M 6.85 23.18 C 9.05 28.90 16.11 31.47 21.62 29.03 C 25.11 33.58 28.56 38.15 32.02 42.71 C 31.99 46.48 32.00 50.24 32.00 54.00 C 29.33 53.99 26.66 54.01 24.00 54.00 C 24.00 55.33 24.00 56.67 24.00 58.00 C 30.67 58.00 37.33 58.00 44.00 58.00 C 43.99 56.67 43.99 55.33 44.00 54.00 C 41.33 54.01 38.67 53.99 36.00 54.00 C 36.00 50.24 36.01 46.48 35.99 42.72 C 41.99 34.78 48.02 26.86 54.01 18.91 C 54.01 18.18 54.00 16.73 54.00 16.00 C 45.20 15.99 36.40 16.02 27.60 15.98 C 26.00 10.70 20.36 6.95 14.86 8.24 C 8.29 9.32 4.09 17.10 6.85 23.18 Z" />
<path fill="#ffffff" opacity="1.00" d=" M 10.50 16.37 C 12.49 10.76 20.81 10.76 23.38 15.93 C 20.26 16.01 17.13 16.03 14.00 15.99 C 14.00 16.72 13.99 18.18 13.99 18.91 C 15.76 21.19 17.47 23.51 19.09 25.90 C 13.64 27.38 8.15 21.67 10.50 16.37 Z" />
<path fill="#ffffff" opacity="1.00" d=" M 19.88 20.00 C 29.29 20.00 38.71 19.99 48.13 20.01 C 47.11 21.33 46.12 22.67 45.12 24.00 C 39.08 24.00 33.04 23.99 27.00 24.01 C 28.01 25.33 29.00 26.67 30.00 28.01 C 34.02 27.99 38.04 28.00 42.06 28.01 C 39.38 31.57 36.69 35.13 34.00 38.68 C 29.30 32.45 24.58 26.24 19.88 20.00 Z" />
</g>
<g id="#000000ff">
<path fill="#000000" opacity="1.00" d=" M 6.85 23.18 C 4.09 17.10 8.29 9.32 14.86 8.24 C 20.36 6.95 26.00 10.70 27.60 15.98 C 36.40 16.02 45.20 15.99 54.00 16.00 C 54.00 16.73 54.01 18.18 54.01 18.91 C 48.02 26.86 41.99 34.78 35.99 42.72 C 36.01 46.48 36.00 50.24 36.00 54.00 C 38.67 53.99 41.33 54.01 44.00 54.00 C 43.99 55.33 43.99 56.67 44.00 58.00 C 37.33 58.00 30.67 58.00 24.00 58.00 C 24.00 56.67 24.00 55.33 24.00 54.00 C 26.66 54.01 29.33 53.99 32.00 54.00 C 32.00 50.24 31.99 46.48 32.02 42.71 C 28.56 38.15 25.11 33.58 21.62 29.03 C 16.11 31.47 9.05 28.90 6.85 23.18 M 10.50 16.37 C 8.15 21.67 13.64 27.38 19.09 25.90 C 17.47 23.51 15.76 21.19 13.99 18.91 C 13.99 18.18 14.00 16.72 14.00 15.99 C 17.13 16.03 20.26 16.01 23.38 15.93 C 20.81 10.76 12.49 10.76 10.50 16.37 M 19.88 20.00 C 24.58 26.24 29.30 32.45 34.00 38.68 C 36.69 35.13 39.38 31.57 42.06 28.01 C 38.04 28.00 34.02 27.99 30.00 28.01 C 29.00 26.67 28.01 25.33 27.00 24.01 C 33.04 23.99 39.08 24.00 45.12 24.00 C 46.12 22.67 47.11 21.33 48.13 20.01 C 38.71 19.99 29.29 20.00 19.88 20.00 Z" />
</g>
</svg>
