<?xml version="1.0" encoding="UTF-8" ?>
<!DOCTYPE svg PUBLIC "-//W3C//DTD SVG 1.1//EN" "http://www.w3.org/Graphics/SVG/1.1/DTD/svg11.dtd">
<svg width="60pt" height="60pt" viewBox="0 0 60 60" version="1.1" xmlns="http://www.w3.org/2000/svg">
<g id="#ffffffff">
<path fill="#ffffff" opacity="1.00" d=" M 0.00 0.00 L 60.00 0.00 L 60.00 60.00 L 0.00 60.00 L 0.00 0.00 M 16.38 4.61 C 7.20 8.11 3.83 19.05 4.06 28.07 C 3.88 30.57 8.15 30.58 7.89 28.04 C 8.18 20.93 9.92 12.41 16.78 8.78 C 20.29 6.77 24.07 9.10 26.27 11.89 C 25.97 13.66 26.17 15.43 26.97 17.04 C 26.26 17.87 25.56 18.70 24.84 19.52 C 23.72 19.14 22.60 18.75 21.48 18.37 C 20.35 16.72 19.79 13.26 17.11 14.12 C 14.81 15.67 16.99 18.32 17.79 20.11 C 18.69 22.34 21.45 22.39 23.36 23.27 C 23.17 23.92 22.78 25.22 22.59 25.88 C 20.05 25.60 17.00 23.19 14.65 24.62 C 12.88 28.38 10.59 31.83 8.26 35.25 C 7.02 36.95 10.05 39.15 11.32 37.39 C 13.74 34.75 15.36 31.50 17.03 28.36 C 18.71 28.86 20.39 29.34 22.09 29.79 C 22.05 32.10 22.05 34.41 22.11 36.73 C 20.27 36.76 17.24 34.87 16.24 37.23 C 14.87 42.56 14.35 48.12 12.30 53.28 C 11.01 55.60 14.92 57.12 15.84 54.83 C 18.04 50.32 18.53 45.21 19.59 40.35 C 20.35 40.51 21.86 40.82 22.62 40.97 C 23.55 45.04 24.42 49.45 27.32 52.64 C 28.49 54.06 30.73 54.45 32.13 53.14 C 35.50 50.03 36.36 45.24 37.37 40.97 C 38.13 40.82 39.65 40.51 40.40 40.35 C 41.45 45.21 41.98 50.30 44.13 54.83 C 45.17 56.78 47.42 55.87 48.21 54.25 C 45.60 48.92 45.28 42.90 43.76 37.25 C 42.78 34.87 39.73 36.75 37.89 36.73 C 37.95 34.42 37.95 32.10 37.91 29.79 C 39.60 29.35 41.29 28.86 42.97 28.36 C 44.77 31.69 46.44 35.22 49.20 37.88 C 51.17 38.72 52.92 36.18 51.41 34.64 C 49.03 31.51 47.07 28.11 45.33 24.59 C 42.89 23.22 39.99 25.75 37.32 25.65 C 37.14 25.06 36.77 23.89 36.59 23.30 C 38.51 22.39 41.31 22.35 42.21 20.10 C 43.02 18.31 45.20 15.64 42.85 14.11 C 40.21 13.38 39.63 16.71 38.53 18.37 C 37.40 18.75 36.28 19.14 35.16 19.52 C 34.44 18.70 33.73 17.87 33.03 17.04 C 33.82 15.43 34.02 13.65 33.73 11.88 C 35.44 10.13 37.35 8.05 40.00 8.03 C 44.17 8.12 47.34 11.51 49.15 14.96 C 51.54 19.19 51.71 24.13 52.23 28.83 C 52.88 30.76 56.09 30.10 55.93 28.08 C 56.07 21.31 54.38 14.16 49.88 8.93 C 47.03 5.64 42.60 3.34 38.17 4.19 C 34.71 4.87 32.22 7.57 30.00 10.10 C 26.89 5.99 21.69 2.45 16.38 4.61 Z" />
</g>
<g id="#000000ff">
<path fill="#000000" opacity="1.00" d=" M 16.38 4.61 C 21.69 2.45 26.89 5.99 30.00 10.10 C 32.22 7.57 34.71 4.87 38.17 4.19 C 42.60 3.34 47.03 5.64 49.88 8.93 C 54.38 14.16 56.07 21.31 55.93 28.08 C 56.09 30.10 52.88 30.76 52.23 28.83 C 51.71 24.13 51.54 19.19 49.15 14.96 C 47.34 11.51 44.17 8.12 40.00 8.03 C 37.35 8.05 35.44 10.13 33.73 11.88 C 34.02 13.65 33.82 15.43 33.03 17.04 C 33.73 17.87 34.44 18.70 35.16 19.52 C 36.28 19.14 37.40 18.75 38.53 18.37 C 39.63 16.71 40.21 13.38 42.85 14.11 C 45.20 15.64 43.02 18.31 42.21 20.10 C 41.31 22.35 38.51 22.39 36.59 23.30 C 36.77 23.89 37.14 25.06 37.32 25.65 C 39.99 25.75 42.89 23.22 45.33 24.59 C 47.07 28.11 49.03 31.51 51.41 34.64 C 52.92 36.18 51.17 38.72 49.20 37.88 C 46.44 35.22 44.77 31.69 42.97 28.36 C 41.29 28.86 39.60 29.35 37.91 29.79 C 37.95 32.10 37.95 34.42 37.89 36.73 C 39.73 36.75 42.78 34.87 43.76 37.25 C 45.28 42.90 45.60 48.92 48.21 54.25 C 47.42 55.87 45.17 56.78 44.13 54.83 C 41.98 50.30 41.45 45.21 40.40 40.35 C 39.65 40.51 38.13 40.82 37.37 40.97 C 36.36 45.24 35.50 50.03 32.13 53.14 C 30.73 54.45 28.49 54.06 27.32 52.64 C 24.42 49.45 23.55 45.04 22.62 40.97 C 21.86 40.82 20.35 40.51 19.59 40.35 C 18.53 45.21 18.04 50.32 15.84 54.83 C 14.92 57.12 11.01 55.60 12.30 53.28 C 14.35 48.12 14.87 42.56 16.24 37.23 C 17.24 34.87 20.27 36.76 22.11 36.73 C 22.05 34.41 22.05 32.10 22.09 29.79 C 20.39 29.34 18.71 28.86 17.03 28.36 C 15.36 31.50 13.74 34.75 11.32 37.39 C 10.05 39.15 7.02 36.95 8.26 35.25 C 10.59 31.83 12.88 28.38 14.65 24.62 C 17.00 23.19 20.05 25.60 22.59 25.88 C 22.78 25.22 23.17 23.92 23.36 23.27 C 21.45 22.39 18.69 22.34 17.79 20.11 C 16.99 18.32 14.81 15.67 17.11 14.12 C 19.79 13.26 20.35 16.72 21.48 18.37 C 22.60 18.75 23.72 19.14 24.84 19.52 C 25.56 18.70 26.26 17.87 26.97 17.04 C 26.17 15.43 25.97 13.66 26.27 11.89 C 24.07 9.10 20.29 6.77 16.78 8.78 C 9.92 12.41 8.18 20.93 7.89 28.04 C 8.15 30.58 3.88 30.57 4.06 28.07 C 3.83 19.05 7.20 8.11 16.38 4.61 Z" />
</g>
</svg>
