<?xml version="1.0" encoding="UTF-8" ?>
<!DOCTYPE svg PUBLIC "-//W3C//DTD SVG 1.1//EN" "http://www.w3.org/Graphics/SVG/1.1/DTD/svg11.dtd">
<svg width="60pt" height="60pt" viewBox="0 0 60 60" version="1.1" xmlns="http://www.w3.org/2000/svg">
<g id="#ffffffff">
<path fill="#ffffff" opacity="1.00" d=" M 0.00 0.00 L 60.00 0.00 L 60.00 60.00 L 0.00 60.00 L 0.00 0.00 M 26.52 6.77 C 20.37 8.38 14.48 11.41 10.05 16.02 C 8.01 18.20 6.17 20.87 6.07 23.96 C 5.86 28.86 5.75 33.97 7.61 38.61 C 10.35 45.90 16.89 51.59 24.48 53.34 C 32.17 55.20 40.73 52.96 46.44 47.45 C 53.03 41.40 55.63 31.50 52.95 22.97 C 49.82 12.11 37.97 3.28 26.52 6.77 Z" />
<path fill="#ffffff" opacity="1.00" d=" M 11.92 19.96 C 16.89 14.12 24.44 10.51 32.07 10.03 C 34.38 9.87 38.53 10.56 37.90 13.77 C 36.49 18.59 31.84 21.38 27.85 23.91 C 28.14 26.99 28.40 30.08 28.41 33.18 C 26.37 30.86 24.46 28.43 22.32 26.20 C 18.69 27.10 14.40 28.33 10.97 26.16 C 8.94 24.45 10.65 21.59 11.92 19.96 Z" />
</g>
<g id="#000000ff">
<path fill="#000000" opacity="1.00" d=" M 26.52 6.77 C 37.97 3.28 49.82 12.11 52.95 22.97 C 55.63 31.50 53.03 41.40 46.44 47.45 C 40.73 52.96 32.17 55.20 24.48 53.34 C 16.89 51.59 10.35 45.90 7.61 38.61 C 5.75 33.97 5.86 28.86 6.07 23.96 C 6.17 20.87 8.01 18.20 10.05 16.02 C 14.48 11.41 20.37 8.38 26.52 6.77 M 11.92 19.96 C 10.65 21.59 8.94 24.45 10.97 26.16 C 14.40 28.33 18.69 27.10 22.32 26.20 C 24.46 28.43 26.37 30.86 28.41 33.18 C 28.40 30.08 28.14 26.99 27.85 23.91 C 31.84 21.38 36.49 18.59 37.90 13.77 C 38.53 10.56 34.38 9.87 32.07 10.03 C 24.44 10.51 16.89 14.12 11.92 19.96 Z" />
</g>
</svg>
