<?xml version="1.0" encoding="UTF-8" ?>
<!DOCTYPE svg PUBLIC "-//W3C//DTD SVG 1.1//EN" "http://www.w3.org/Graphics/SVG/1.1/DTD/svg11.dtd">
<svg width="60pt" height="60pt" viewBox="0 0 60 60" version="1.1" xmlns="http://www.w3.org/2000/svg">
<g id="#ffffffff">
<path fill="#ffffff" opacity="1.00" d=" M 0.00 0.00 L 60.00 0.00 L 60.00 60.00 L 0.00 60.00 L 0.00 0.00 M 12.31 4.40 C 10.59 5.18 9.82 7.12 10.00 8.92 C 10.03 23.31 9.93 37.71 10.05 52.10 C 9.94 54.62 12.56 56.31 14.88 56.00 C 25.30 55.97 35.72 56.07 46.14 55.95 C 48.61 55.97 50.33 53.42 50.00 51.09 C 49.86 39.45 50.29 27.77 49.78 16.15 C 46.02 11.99 41.99 8.02 37.86 4.22 C 31.94 3.68 25.96 4.16 20.03 3.99 C 17.47 4.13 14.78 3.62 12.31 4.40 Z" />
<path fill="#ffffff" opacity="1.00" d=" M 36.01 7.81 C 39.40 11.20 42.79 14.60 46.18 17.99 C 43.16 17.97 40.12 18.18 37.10 17.83 C 34.81 15.23 36.51 11.04 36.01 7.81 Z" />
<path fill="#ffffff" opacity="1.00" d=" M 31.23 24.11 C 32.89 23.54 34.45 25.10 33.85 26.76 C 32.53 33.46 31.33 40.20 29.75 46.84 C 29.13 48.83 25.69 48.04 26.08 45.96 C 27.01 39.77 28.53 33.68 29.63 27.52 C 30.01 26.35 29.95 24.71 31.23 24.11 Z" />
<path fill="#ffffff" opacity="1.00" d=" M 21.17 28.12 C 22.61 27.60 23.89 28.58 24.06 30.03 C 23.19 32.22 21.68 34.05 20.40 36.00 C 21.51 38.41 25.64 41.30 22.95 43.90 C 22.51 43.90 21.63 43.89 21.20 43.89 C 19.08 41.52 17.18 38.84 15.93 35.91 C 17.33 33.12 19.06 30.43 21.17 28.12 Z" />
<path fill="#ffffff" opacity="1.00" d=" M 35.96 30.08 C 36.01 28.59 37.41 27.62 38.82 28.10 C 40.92 30.45 42.73 33.13 44.08 35.98 C 42.90 38.68 41.13 41.10 39.30 43.39 C 38.19 44.80 35.85 43.58 35.96 41.90 C 36.85 39.75 38.34 37.93 39.60 36.00 C 38.34 34.06 36.83 32.24 35.96 30.08 Z" />
</g>
<g id="#000000ff">
<path fill="#000000" opacity="1.00" d=" M 12.31 4.40 C 14.78 3.62 17.47 4.13 20.03 3.99 C 25.96 4.16 31.94 3.68 37.86 4.22 C 41.99 8.02 46.02 11.99 49.78 16.15 C 50.29 27.77 49.86 39.45 50.00 51.09 C 50.33 53.42 48.61 55.97 46.14 55.95 C 35.72 56.07 25.30 55.97 14.88 56.00 C 12.56 56.31 9.94 54.62 10.05 52.10 C 9.93 37.71 10.03 23.31 10.00 8.92 C 9.82 7.12 10.59 5.18 12.31 4.40 M 36.01 7.81 C 36.51 11.04 34.81 15.23 37.10 17.83 C 40.12 18.18 43.16 17.97 46.18 17.99 C 42.79 14.60 39.40 11.20 36.01 7.81 M 31.23 24.11 C 29.95 24.71 30.01 26.35 29.63 27.52 C 28.53 33.68 27.01 39.77 26.08 45.96 C 25.69 48.04 29.13 48.83 29.75 46.84 C 31.33 40.20 32.53 33.46 33.85 26.76 C 34.45 25.10 32.89 23.54 31.23 24.11 M 21.17 28.12 C 19.06 30.43 17.33 33.12 15.93 35.91 C 17.18 38.84 19.08 41.52 21.20 43.89 C 21.63 43.89 22.51 43.90 22.95 43.90 C 25.64 41.30 21.51 38.41 20.40 36.00 C 21.68 34.05 23.19 32.22 24.06 30.03 C 23.89 28.58 22.61 27.60 21.17 28.12 M 35.96 30.08 C 36.83 32.24 38.34 34.06 39.60 36.00 C 38.34 37.93 36.85 39.75 35.96 41.90 C 35.85 43.58 38.19 44.80 39.30 43.39 C 41.13 41.10 42.90 38.68 44.08 35.98 C 42.73 33.13 40.92 30.45 38.82 28.10 C 37.41 27.62 36.01 28.59 35.96 30.08 Z" />
</g>
</svg>
