<?xml version="1.0" encoding="UTF-8" ?>
<!DOCTYPE svg PUBLIC "-//W3C//DTD SVG 1.1//EN" "http://www.w3.org/Graphics/SVG/1.1/DTD/svg11.dtd">
<svg width="64pt" height="64pt" viewBox="0 0 64 64" version="1.1" xmlns="http://www.w3.org/2000/svg">
<g id="#ffffffff">
<path fill="#ffffff" opacity="1.00" d=" M 0.00 0.00 L 64.00 0.00 L 64.00 64.00 L 0.00 64.00 L 0.00 0.00 M 12.00 6.00 C 12.00 23.33 12.00 40.67 12.00 58.00 C 25.33 58.00 38.67 58.00 52.00 58.00 C 52.00 45.05 52.00 32.10 52.00 19.15 C 47.61 14.77 43.23 10.38 38.85 5.99 C 29.90 6.00 20.95 6.00 12.00 6.00 Z" />
<path fill="#ffffff" opacity="1.00" d=" M 16.00 10.00 C 22.67 10.00 29.33 10.00 36.00 10.00 C 35.99 14.00 36.01 18.00 36.00 22.00 C 40.00 21.99 44.00 22.01 48.00 22.00 C 48.00 32.67 48.00 43.33 48.00 54.00 C 37.33 54.00 26.67 54.00 16.00 54.00 C 16.00 39.33 16.00 24.67 16.00 10.00 M 25.20 27.16 C 22.60 29.71 25.69 34.59 22.02 36.44 C 22.02 37.48 22.02 38.52 22.02 39.57 C 25.69 41.37 22.60 46.25 25.20 48.77 C 26.39 50.14 28.39 49.85 30.00 50.17 C 30.00 48.79 30.00 47.40 30.00 46.01 C 29.52 46.01 28.54 46.00 28.06 46.00 C 28.10 43.26 28.03 40.46 26.68 38.00 C 28.03 35.54 28.11 32.74 28.05 30.00 C 28.54 30.00 29.51 29.99 30.00 29.99 C 30.00 28.60 30.00 27.21 30.00 25.83 C 28.39 26.16 26.43 25.84 25.20 27.16 M 34.00 25.83 C 34.00 27.21 34.00 28.60 34.00 29.99 C 34.49 29.99 35.46 30.00 35.95 30.00 C 35.89 32.74 35.97 35.54 37.31 38.00 C 35.96 40.46 35.90 43.26 35.95 46.00 C 35.46 46.00 34.49 46.01 34.00 46.01 C 34.00 47.40 34.00 48.79 34.00 50.18 C 35.59 49.84 37.58 50.15 38.77 48.80 C 41.42 46.29 38.30 41.43 41.95 39.55 C 41.98 38.44 42.01 37.32 42.04 36.20 C 41.54 35.92 40.56 35.36 40.06 35.08 C 40.00 32.65 40.41 30.00 39.28 27.75 C 38.13 25.95 35.85 26.09 34.00 25.83 Z" />
<path fill="#ffffff" opacity="1.00" d=" M 40.00 12.82 C 41.73 14.54 43.46 16.27 45.18 18.00 C 43.45 17.99 41.72 17.99 39.99 18.01 C 40.01 16.28 40.01 14.55 40.00 12.82 Z" />
</g>
<g id="#000000ff">
<path fill="#000000" opacity="1.00" d=" M 12.00 6.00 C 20.95 6.00 29.90 6.00 38.85 5.99 C 43.23 10.38 47.61 14.77 52.00 19.15 C 52.00 32.10 52.00 45.05 52.00 58.00 C 38.67 58.00 25.33 58.00 12.00 58.00 C 12.00 40.67 12.00 23.33 12.00 6.00 M 16.00 10.00 C 16.00 24.67 16.00 39.33 16.00 54.00 C 26.67 54.00 37.33 54.00 48.00 54.00 C 48.00 43.33 48.00 32.67 48.00 22.00 C 44.00 22.01 40.00 21.99 36.00 22.00 C 36.01 18.00 35.99 14.00 36.00 10.00 C 29.33 10.00 22.67 10.00 16.00 10.00 M 40.00 12.82 C 40.01 14.55 40.01 16.28 39.99 18.01 C 41.72 17.99 43.45 17.99 45.18 18.00 C 43.46 16.27 41.73 14.54 40.00 12.82 Z" />
<path fill="#000000" opacity="1.00" d=" M 25.20 27.16 C 26.43 25.84 28.39 26.16 30.00 25.83 C 30.00 27.21 30.00 28.60 30.00 29.99 C 29.51 29.99 28.54 30.00 28.05 30.00 C 28.11 32.74 28.03 35.54 26.68 38.00 C 28.03 40.46 28.10 43.26 28.06 46.00 C 28.54 46.00 29.52 46.01 30.00 46.01 C 30.00 47.40 30.00 48.79 30.00 50.17 C 28.39 49.85 26.39 50.14 25.20 48.77 C 22.60 46.25 25.69 41.37 22.02 39.57 C 22.02 38.52 22.02 37.48 22.02 36.44 C 25.69 34.59 22.60 29.71 25.20 27.16 Z" />
<path fill="#000000" opacity="1.00" d=" M 34.00 25.83 C 35.85 26.09 38.13 25.95 39.28 27.75 C 40.41 30.00 40.00 32.65 40.06 35.08 C 40.56 35.36 41.54 35.92 42.04 36.20 C 42.01 37.32 41.98 38.44 41.95 39.55 C 38.30 41.43 41.42 46.29 38.77 48.80 C 37.58 50.15 35.59 49.84 34.00 50.18 C 34.00 48.79 34.00 47.40 34.00 46.01 C 34.49 46.01 35.46 46.00 35.95 46.00 C 35.90 43.26 35.96 40.46 37.31 38.00 C 35.97 35.54 35.89 32.74 35.95 30.00 C 35.46 30.00 34.49 29.99 34.00 29.99 C 34.00 28.60 34.00 27.21 34.00 25.83 Z" />
</g>
</svg>
