<?xml version="1.0" encoding="UTF-8" ?>
<!DOCTYPE svg PUBLIC "-//W3C//DTD SVG 1.1//EN" "http://www.w3.org/Graphics/SVG/1.1/DTD/svg11.dtd">
<svg width="60pt" height="60pt" viewBox="0 0 60 60" version="1.1" xmlns="http://www.w3.org/2000/svg">
<g id="#ffffffff">
<path fill="#ffffff" opacity="1.00" d=" M 0.00 0.00 L 60.00 0.00 L 60.00 60.00 L 0.00 60.00 L 0.00 0.00 M 18.47 6.65 C 16.35 8.44 15.87 11.44 14.64 13.82 C 13.69 16.50 11.65 19.11 12.38 22.10 C 14.02 31.44 15.65 40.78 17.33 50.11 C 17.49 52.41 19.57 54.22 21.89 53.98 C 27.60 53.98 33.31 54.12 39.01 53.91 C 41.01 53.86 42.45 52.05 42.66 50.17 C 44.31 41.15 45.83 32.10 47.47 23.08 C 48.68 19.16 45.90 15.75 44.69 12.22 C 43.55 10.01 43.04 6.62 40.12 6.12 C 34.76 5.81 29.37 6.11 24.00 5.98 C 22.16 6.10 20.13 5.67 18.47 6.65 Z" />
<path fill="#ffffff" opacity="1.00" d=" M 28.00 16.00 C 29.33 16.00 30.67 16.00 32.00 16.00 C 32.00 18.00 32.00 20.00 32.00 22.00 C 34.00 22.00 36.00 22.00 38.00 22.00 C 38.00 23.33 38.00 24.67 38.00 26.00 C 36.00 26.00 34.00 26.00 32.00 26.00 C 32.00 30.67 32.00 35.33 32.00 40.00 C 30.67 40.00 29.33 40.00 28.00 40.00 C 28.00 35.33 28.00 30.67 28.00 26.00 C 26.00 26.00 24.00 26.00 22.00 26.00 C 22.00 24.67 22.00 23.33 22.00 22.00 C 24.00 22.00 26.00 22.00 28.00 22.00 C 28.00 20.00 28.00 18.00 28.00 16.00 Z" />
</g>
<g id="#000000ff">
<path fill="#000000" opacity="1.00" d=" M 18.47 6.65 C 20.13 5.67 22.16 6.10 24.00 5.98 C 29.37 6.11 34.76 5.81 40.12 6.12 C 43.04 6.62 43.55 10.01 44.69 12.22 C 45.90 15.75 48.68 19.16 47.47 23.08 C 45.83 32.10 44.31 41.15 42.66 50.17 C 42.45 52.05 41.01 53.86 39.01 53.91 C 33.31 54.12 27.60 53.98 21.89 53.98 C 19.57 54.22 17.49 52.41 17.33 50.11 C 15.65 40.78 14.02 31.44 12.38 22.10 C 11.65 19.11 13.69 16.50 14.64 13.82 C 15.87 11.44 16.35 8.44 18.47 6.65 M 28.00 16.00 C 28.00 18.00 28.00 20.00 28.00 22.00 C 26.00 22.00 24.00 22.00 22.00 22.00 C 22.00 23.33 22.00 24.67 22.00 26.00 C 24.00 26.00 26.00 26.00 28.00 26.00 C 28.00 30.67 28.00 35.33 28.00 40.00 C 29.33 40.00 30.67 40.00 32.00 40.00 C 32.00 35.33 32.00 30.67 32.00 26.00 C 34.00 26.00 36.00 26.00 38.00 26.00 C 38.00 24.67 38.00 23.33 38.00 22.00 C 36.00 22.00 34.00 22.00 32.00 22.00 C 32.00 20.00 32.00 18.00 32.00 16.00 C 30.67 16.00 29.33 16.00 28.00 16.00 Z" />
</g>
</svg>
