<?xml version="1.0" encoding="UTF-8" ?>
<!DOCTYPE svg PUBLIC "-//W3C//DTD SVG 1.1//EN" "http://www.w3.org/Graphics/SVG/1.1/DTD/svg11.dtd">
<svg width="60pt" height="60pt" viewBox="0 0 60 60" version="1.1" xmlns="http://www.w3.org/2000/svg">
<g id="#ffffffff">
<path fill="#ffffff" opacity="1.00" d=" M 0.00 0.00 L 60.00 0.00 L 60.00 60.00 L 0.00 60.00 L 0.00 0.00 M 19.97 6.04 C 17.83 6.03 18.03 8.50 17.88 9.97 C 16.29 10.01 14.68 9.93 13.10 10.17 C 11.23 11.47 12.29 14.10 11.96 16.00 C 23.99 16.00 36.01 16.00 48.04 16.00 C 48.00 14.38 48.06 12.75 47.83 11.15 C 46.60 9.22 43.92 10.29 42.03 9.97 C 41.74 8.04 42.95 4.19 39.99 4.08 C 33.30 4.58 26.63 5.31 19.97 6.04 M 14.00 20.00 C 15.19 29.96 16.32 39.93 17.53 49.89 C 17.58 52.17 19.54 54.16 21.88 53.97 C 27.29 54.03 32.71 54.03 38.13 53.97 C 40.46 54.16 42.41 52.17 42.46 49.90 C 43.69 39.94 44.81 29.96 46.00 20.00 C 35.33 20.00 24.67 20.00 14.00 20.00 Z" />
<path fill="#ffffff" opacity="1.00" d=" M 22.15 33.98 C 23.35 30.69 26.30 27.88 29.99 28.01 C 33.68 27.87 36.64 30.69 37.85 33.98 C 38.67 33.99 40.30 34.00 41.12 34.01 C 40.96 35.33 40.81 36.66 40.65 37.98 C 39.95 37.99 38.55 38.01 37.85 38.02 C 36.62 41.29 33.70 44.11 30.01 43.99 C 26.32 44.12 23.37 41.31 22.14 38.03 C 21.46 38.02 20.08 37.99 19.39 37.98 C 19.24 36.66 19.09 35.33 18.94 34.01 C 19.74 34.00 21.34 33.99 22.15 33.98 M 28.38 32.36 C 23.54 34.24 27.06 42.05 31.66 39.60 C 36.40 37.71 32.95 29.99 28.38 32.36 Z" />
</g>
<g id="#000000ff">
<path fill="#968176" opacity="1.00" d=" M 19.97 6.04 C 26.63 5.31 33.30 4.58 39.99 4.08 C 42.95 4.19 41.74 8.04 42.03 9.97 C 43.92 10.29 46.60 9.22 47.83 11.15 C 48.06 12.75 48.00 14.38 48.04 16.00 C 36.01 16.00 23.99 16.00 11.96 16.00 C 12.29 14.10 11.23 11.47 13.10 10.17 C 14.68 9.93 16.29 10.01 17.88 9.97 C 18.03 8.50 17.83 6.03 19.97 6.04 Z" />
<path fill="#968176" opacity="1.00" d=" M 14.00 20.00 C 24.67 20.00 35.33 20.00 46.00 20.00 C 44.81 29.96 43.69 39.94 42.46 49.90 C 42.41 52.17 40.46 54.16 38.13 53.97 C 32.71 54.03 27.29 54.03 21.88 53.97 C 19.54 54.16 17.58 52.17 17.53 49.89 C 16.32 39.93 15.19 29.96 14.00 20.00 M 22.15 33.98 C 21.34 33.99 19.74 34.00 18.94 34.01 C 19.09 35.33 19.24 36.66 19.39 37.98 C 20.08 37.99 21.46 38.02 22.14 38.03 C 23.37 41.31 26.32 44.12 30.01 43.99 C 33.70 44.11 36.62 41.29 37.85 38.02 C 38.55 38.01 39.95 37.99 40.65 37.98 C 40.81 36.66 40.96 35.33 41.12 34.01 C 40.30 34.00 38.67 33.99 37.85 33.98 C 36.64 30.69 33.68 27.87 29.99 28.01 C 26.30 27.88 23.35 30.69 22.15 33.98 Z" />
<path fill="#968176" opacity="1.00" d=" M 28.38 32.36 C 32.95 29.99 36.40 37.71 31.66 39.60 C 27.06 42.05 23.54 34.24 28.38 32.36 Z" />
</g>
</svg>
