<?xml version="1.0" encoding="UTF-8" ?>
<!DOCTYPE svg PUBLIC "-//W3C//DTD SVG 1.1//EN" "http://www.w3.org/Graphics/SVG/1.1/DTD/svg11.dtd">
<svg width="60pt" height="60pt" viewBox="0 0 60 60" version="1.1" xmlns="http://www.w3.org/2000/svg">
<g id="#ffffffff">
<path fill="#ffffff" opacity="1.00" d=" M 0.00 0.00 L 60.00 0.00 L 60.00 60.00 L 0.00 60.00 L 0.00 0.00 M 33.52 4.77 C 27.24 6.78 23.03 13.66 24.21 20.18 C 25.19 27.55 32.81 33.14 40.14 31.79 C 47.89 30.81 53.58 22.49 51.61 14.90 C 50.07 7.06 41.03 1.98 33.52 4.77 M 4.00 34.03 C 4.00 39.36 4.00 44.68 4.00 50.01 C 8.29 48.74 12.61 44.45 17.18 46.92 C 23.17 49.23 28.98 52.05 35.08 54.03 C 41.84 51.08 48.15 47.06 54.60 43.46 C 57.47 41.99 55.40 37.10 52.35 38.17 C 46.85 39.92 41.81 42.96 36.17 44.32 C 37.32 42.84 39.06 40.45 37.04 38.87 C 33.62 36.77 29.73 35.54 26.10 33.83 C 22.75 32.54 19.60 30.54 16.01 29.99 C 11.83 30.69 8.03 32.76 4.00 34.03 Z" />
<path fill="#ffffff" opacity="1.00" d=" M 36.47 8.00 C 37.49 8.00 38.52 8.00 39.54 8.00 C 40.49 10.76 43.89 11.60 44.61 14.59 C 43.42 14.62 42.23 14.63 41.05 14.64 C 39.81 12.48 35.66 11.79 35.60 15.06 C 37.93 16.47 40.85 16.36 43.17 17.78 C 44.85 19.18 44.90 21.90 43.83 23.68 C 42.47 25.23 40.04 25.77 39.55 28.00 C 38.52 28.00 37.49 28.00 36.46 28.00 C 35.50 25.13 31.71 24.68 31.01 21.49 C 31.94 21.45 33.80 21.38 34.72 21.35 C 35.87 23.75 41.56 24.00 40.36 20.62 C 37.34 19.16 31.85 19.58 31.76 15.01 C 31.22 11.47 35.71 10.95 36.47 8.00 Z" />
</g>
<g id="#000000ff">
<path fill="#968176" opacity="1.00" d=" M 33.52 4.77 C 41.03 1.98 50.07 7.06 51.61 14.90 C 53.58 22.49 47.89 30.81 40.14 31.79 C 32.81 33.14 25.19 27.55 24.21 20.18 C 23.03 13.66 27.24 6.78 33.52 4.77 M 36.47 8.00 C 35.71 10.95 31.22 11.47 31.76 15.01 C 31.85 19.58 37.34 19.16 40.36 20.62 C 41.56 24.00 35.87 23.75 34.72 21.35 C 33.80 21.38 31.94 21.45 31.01 21.49 C 31.71 24.68 35.50 25.13 36.46 28.00 C 37.49 28.00 38.52 28.00 39.55 28.00 C 40.04 25.77 42.47 25.23 43.83 23.68 C 44.90 21.90 44.85 19.18 43.17 17.78 C 40.85 16.36 37.93 16.47 35.60 15.06 C 35.66 11.79 39.81 12.48 41.05 14.64 C 42.23 14.63 43.42 14.62 44.61 14.59 C 43.89 11.60 40.49 10.76 39.54 8.00 C 38.52 8.00 37.49 8.00 36.47 8.00 Z" />
<path fill="#968176" opacity="1.00" d=" M 4.00 34.03 C 8.03 32.76 11.83 30.69 16.01 29.99 C 19.60 30.54 22.75 32.54 26.10 33.83 C 29.73 35.54 33.62 36.77 37.04 38.87 C 39.06 40.45 37.32 42.84 36.17 44.32 C 41.81 42.96 46.85 39.92 52.35 38.17 C 55.40 37.10 57.47 41.99 54.60 43.46 C 48.15 47.06 41.84 51.08 35.08 54.03 C 28.98 52.05 23.17 49.23 17.18 46.92 C 12.61 44.45 8.29 48.74 4.00 50.01 C 4.00 44.68 4.00 39.36 4.00 34.03 Z" />
</g>
</svg>
