<?xml version="1.0" encoding="UTF-8" ?>
<!DOCTYPE svg PUBLIC "-//W3C//DTD SVG 1.1//EN" "http://www.w3.org/Graphics/SVG/1.1/DTD/svg11.dtd">
<svg width="64pt" height="64pt" viewBox="0 0 64 64" version="1.1" xmlns="http://www.w3.org/2000/svg">
<g id="#ffffffff">
<path fill="#ffffff" opacity="1.00" d=" M 0.00 0.00 L 64.00 0.00 L 64.00 64.00 L 0.00 64.00 L 0.00 0.00 M 12.00 8.00 C 12.00 24.00 12.00 40.00 12.00 56.00 C 25.33 56.00 38.67 56.00 52.00 56.00 C 52.00 40.00 52.00 24.00 52.00 8.00 C 38.67 8.00 25.33 8.00 12.00 8.00 Z" />
<path fill="#ffffff" opacity="1.00" d=" M 16.00 12.00 C 26.67 12.00 37.33 12.00 48.00 12.00 C 48.00 22.67 48.00 33.33 48.00 44.00 C 37.33 44.00 26.67 44.00 16.00 44.00 C 16.00 33.33 16.00 22.67 16.00 12.00 M 22.11 19.08 C 18.84 22.87 19.46 29.39 23.59 32.31 C 25.42 33.73 27.78 33.90 29.99 34.10 C 30.90 39.45 38.11 42.05 41.91 37.95 C 46.07 34.16 43.45 26.87 38.06 25.98 C 37.93 23.80 37.73 21.48 36.35 19.67 C 33.23 15.05 25.62 14.78 22.11 19.08 Z" />
<path fill="#ffffff" opacity="1.00" d=" M 27.21 20.25 C 30.87 18.79 34.98 22.28 33.88 26.14 C 33.37 30.00 27.97 31.27 25.40 28.64 C 22.97 26.22 23.78 21.28 27.21 20.25 Z" />
<path fill="#ffffff" opacity="1.00" d=" M 36.56 30.25 C 38.78 29.20 41.03 32.69 39.51 34.59 C 38.39 36.67 34.78 36.30 34.21 33.97 C 33.43 32.32 35.63 31.25 36.56 30.25 Z" />
<path fill="#ffffff" opacity="1.00" d=" M 16.00 48.00 C 26.67 48.00 37.33 48.00 48.00 48.00 C 48.00 49.33 48.00 50.67 48.00 52.00 C 37.33 52.00 26.67 52.00 16.00 52.00 C 16.00 50.67 16.00 49.33 16.00 48.00 Z" />
</g>
<g id="#000000ff">
<path fill="#000000" opacity="1.00" d=" M 12.00 8.00 C 25.33 8.00 38.67 8.00 52.00 8.00 C 52.00 24.00 52.00 40.00 52.00 56.00 C 38.67 56.00 25.33 56.00 12.00 56.00 C 12.00 40.00 12.00 24.00 12.00 8.00 M 16.00 12.00 C 16.00 22.67 16.00 33.33 16.00 44.00 C 26.67 44.00 37.33 44.00 48.00 44.00 C 48.00 33.33 48.00 22.67 48.00 12.00 C 37.33 12.00 26.67 12.00 16.00 12.00 M 16.00 48.00 C 16.00 49.33 16.00 50.67 16.00 52.00 C 26.67 52.00 37.33 52.00 48.00 52.00 C 48.00 50.67 48.00 49.33 48.00 48.00 C 37.33 48.00 26.67 48.00 16.00 48.00 Z" />
<path fill="#000000" opacity="1.00" d=" M 22.11 19.08 C 25.62 14.78 33.23 15.05 36.35 19.67 C 37.73 21.48 37.93 23.80 38.06 25.98 C 43.45 26.87 46.07 34.16 41.91 37.95 C 38.11 42.05 30.90 39.45 29.99 34.10 C 27.78 33.90 25.42 33.73 23.59 32.31 C 19.46 29.39 18.84 22.87 22.11 19.08 M 27.21 20.25 C 23.78 21.28 22.97 26.22 25.40 28.64 C 27.97 31.27 33.37 30.00 33.88 26.14 C 34.98 22.28 30.87 18.79 27.21 20.25 M 36.56 30.25 C 35.63 31.25 33.43 32.32 34.21 33.97 C 34.78 36.30 38.39 36.67 39.51 34.59 C 41.03 32.69 38.78 29.20 36.56 30.25 Z" />
</g>
</svg>
