<?xml version="1.0" encoding="UTF-8" ?>
<!DOCTYPE svg PUBLIC "-//W3C//DTD SVG 1.1//EN" "http://www.w3.org/Graphics/SVG/1.1/DTD/svg11.dtd">
<svg width="60pt" height="60pt" viewBox="0 0 60 60" version="1.1" xmlns="http://www.w3.org/2000/svg">
<g id="#ffffffff">
<path fill="#ffffff" opacity="1.00" d=" M 0.00 0.00 L 60.00 0.00 L 60.00 60.00 L 0.00 60.00 L 0.00 0.00 M 23.20 6.20 C 16.00 7.15 9.57 12.36 7.19 19.23 C 4.54 26.33 6.44 34.85 11.87 40.14 C 16.70 45.05 24.16 47.12 30.83 45.40 C 37.50 43.78 43.12 38.49 45.09 31.91 C 47.31 24.99 45.33 16.95 40.14 11.87 C 35.79 7.46 29.33 5.30 23.20 6.20 M 50.05 27.37 C 49.35 39.23 39.25 49.33 27.39 50.06 C 30.17 52.08 33.34 53.77 36.85 53.91 C 44.98 54.78 52.91 48.22 53.84 40.15 C 54.54 35.55 52.83 30.98 50.05 27.37 Z" />
<path fill="#ffffff" opacity="1.00" d=" M 20.22 18.01 C 24.08 18.00 27.93 17.99 31.79 18.01 C 31.79 19.16 31.78 20.32 31.77 21.47 C 29.06 21.47 26.35 21.46 23.65 21.47 C 23.52 22.81 23.38 24.15 23.22 25.49 C 24.96 23.85 27.55 23.08 29.77 24.26 C 33.65 26.04 33.87 32.09 30.47 34.46 C 26.49 37.37 19.76 35.62 18.85 30.42 C 20.17 30.36 21.50 30.34 22.82 30.37 C 23.84 31.58 25.25 33.07 27.01 32.24 C 29.69 31.33 28.97 26.62 26.04 26.77 C 23.83 27.37 21.80 28.57 19.40 28.32 C 19.66 24.88 19.95 21.44 20.22 18.01 Z" />
</g>
<g id="#000000ff">
<path fill="#000000" opacity="1.00" d=" M 23.20 6.20 C 29.33 5.30 35.79 7.46 40.14 11.87 C 45.33 16.95 47.31 24.99 45.09 31.91 C 43.12 38.49 37.50 43.78 30.83 45.40 C 24.16 47.12 16.70 45.05 11.87 40.14 C 6.44 34.85 4.54 26.33 7.19 19.23 C 9.57 12.36 16.00 7.15 23.20 6.20 M 20.22 18.01 C 19.95 21.44 19.66 24.88 19.40 28.32 C 21.80 28.57 23.83 27.37 26.04 26.77 C 28.97 26.62 29.69 31.33 27.01 32.24 C 25.25 33.07 23.84 31.58 22.82 30.37 C 21.50 30.34 20.17 30.36 18.85 30.42 C 19.76 35.62 26.49 37.37 30.47 34.46 C 33.87 32.09 33.65 26.04 29.77 24.26 C 27.55 23.08 24.96 23.85 23.22 25.49 C 23.38 24.15 23.52 22.81 23.65 21.47 C 26.35 21.46 29.06 21.47 31.77 21.47 C 31.78 20.32 31.79 19.16 31.79 18.01 C 27.93 17.99 24.08 18.00 20.22 18.01 Z" />
<path fill="#000000" opacity="1.00" d=" M 50.05 27.37 C 52.83 30.98 54.54 35.55 53.84 40.15 C 52.91 48.22 44.98 54.78 36.85 53.91 C 33.34 53.77 30.17 52.08 27.39 50.06 C 39.25 49.33 49.35 39.23 50.05 27.37 Z" />
</g>
</svg>
