<?xml version="1.0" encoding="UTF-8" ?>
<!DOCTYPE svg PUBLIC "-//W3C//DTD SVG 1.1//EN" "http://www.w3.org/Graphics/SVG/1.1/DTD/svg11.dtd">
<svg width="60pt" height="60pt" viewBox="0 0 60 60" version="1.1" xmlns="http://www.w3.org/2000/svg">
<g id="#ffffffff">
<path fill="#ffffff" opacity="1.00" d=" M 0.00 0.00 L 60.00 0.00 L 60.00 60.00 L 0.00 60.00 L 0.00 0.00 M 11.19 6.17 C 9.30 6.87 9.83 10.01 11.89 9.94 C 23.60 10.08 35.32 9.97 47.03 10.00 C 48.30 10.16 50.15 9.59 49.98 7.98 C 50.05 5.85 47.47 5.93 46.01 5.98 C 34.40 6.14 22.77 5.76 11.19 6.17 M 8.04 17.89 C 7.92 21.93 8.04 25.96 8.00 30.00 C 9.33 30.00 10.67 30.00 12.00 30.00 C 12.00 26.00 12.00 22.00 12.00 18.00 C 24.00 18.00 36.00 18.00 48.00 18.00 C 48.00 22.00 48.00 26.00 48.00 30.00 C 49.33 30.00 50.67 30.00 52.00 30.00 C 51.96 25.99 52.07 21.97 51.96 17.96 C 52.03 15.47 49.45 13.61 47.09 14.00 C 35.38 14.03 23.66 13.95 11.95 14.03 C 9.90 13.95 7.98 15.84 8.04 17.89 M 39.18 22.11 C 36.79 23.11 38.51 27.06 40.83 25.79 C 43.20 24.83 41.51 21.08 39.18 22.11 M 18.01 29.99 C 22.00 30.00 26.00 30.01 30.00 29.99 C 28.00 27.33 26.00 24.66 24.00 22.00 C 22.00 24.66 20.00 27.33 18.01 29.99 M 33.48 24.00 C 32.65 25.13 31.83 26.26 31.01 27.40 C 31.68 28.26 32.35 29.13 33.02 30.00 C 34.67 30.00 36.33 30.00 37.99 30.00 C 36.50 27.99 35.00 25.99 33.48 24.00 M 6.00 34.00 C 6.04 38.71 5.93 43.43 6.04 48.14 C 5.98 51.26 8.82 54.04 11.94 53.97 C 23.98 54.02 36.03 54.03 48.07 53.97 C 51.20 54.04 54.02 51.25 53.96 48.12 C 54.08 43.42 53.96 38.71 54.00 34.00 C 38.00 34.00 22.00 34.00 6.00 34.00 Z" />
<path fill="#ffffff" opacity="1.00" d=" M 25.10 38.16 C 28.07 37.85 31.07 37.96 34.06 38.06 C 36.13 37.90 36.70 41.05 34.86 41.83 C 31.89 42.16 28.88 42.03 25.90 41.94 C 23.88 42.06 23.33 38.98 25.10 38.16 Z" />
</g>
<g id="#000000ff">
<path fill="#000000" opacity="1.00" d=" M 11.19 6.17 C 22.77 5.76 34.40 6.14 46.01 5.98 C 47.47 5.93 50.05 5.85 49.98 7.98 C 50.15 9.59 48.30 10.16 47.03 10.00 C 35.32 9.97 23.60 10.08 11.89 9.94 C 9.83 10.01 9.30 6.87 11.19 6.17 Z" />
<path fill="#000000" opacity="1.00" d=" M 8.04 17.89 C 7.98 15.84 9.90 13.95 11.95 14.03 C 23.66 13.95 35.38 14.03 47.09 14.00 C 49.45 13.61 52.03 15.47 51.96 17.96 C 52.07 21.97 51.96 25.99 52.00 30.00 C 50.67 30.00 49.33 30.00 48.00 30.00 C 48.00 26.00 48.00 22.00 48.00 18.00 C 36.00 18.00 24.00 18.00 12.00 18.00 C 12.00 22.00 12.00 26.00 12.00 30.00 C 10.67 30.00 9.33 30.00 8.00 30.00 C 8.04 25.96 7.92 21.93 8.04 17.89 Z" />
<path fill="#000000" opacity="1.00" d=" M 39.18 22.11 C 41.51 21.08 43.20 24.83 40.83 25.79 C 38.51 27.06 36.79 23.11 39.18 22.11 Z" />
<path fill="#000000" opacity="1.00" d=" M 18.01 29.99 C 20.00 27.33 22.00 24.66 24.00 22.00 C 26.00 24.66 28.00 27.33 30.00 29.99 C 26.00 30.01 22.00 30.00 18.01 29.99 Z" />
<path fill="#000000" opacity="1.00" d=" M 33.48 24.00 C 35.00 25.99 36.50 27.99 37.99 30.00 C 36.33 30.00 34.67 30.00 33.02 30.00 C 32.35 29.13 31.68 28.26 31.01 27.40 C 31.83 26.26 32.65 25.13 33.48 24.00 Z" />
<path fill="#000000" opacity="1.00" d=" M 6.00 34.00 C 22.00 34.00 38.00 34.00 54.00 34.00 C 53.96 38.71 54.08 43.42 53.96 48.12 C 54.02 51.25 51.20 54.04 48.07 53.97 C 36.03 54.03 23.98 54.02 11.94 53.97 C 8.82 54.04 5.98 51.26 6.04 48.14 C 5.93 43.43 6.04 38.71 6.00 34.00 M 25.10 38.16 C 23.33 38.98 23.88 42.06 25.90 41.94 C 28.88 42.03 31.89 42.16 34.86 41.83 C 36.70 41.05 36.13 37.90 34.06 38.06 C 31.07 37.96 28.07 37.85 25.10 38.16 Z" />
</g>
</svg>
