<?xml version="1.0" encoding="UTF-8" ?>
<!DOCTYPE svg PUBLIC "-//W3C//DTD SVG 1.1//EN" "http://www.w3.org/Graphics/SVG/1.1/DTD/svg11.dtd">
<svg width="64pt" height="64pt" viewBox="0 0 64 64" version="1.1" xmlns="http://www.w3.org/2000/svg">
<g id="#ffffffff">
<path fill="#ffffff" opacity="1.00" d=" M 0.00 0.00 L 64.00 0.00 L 64.00 64.00 L 0.00 64.00 L 0.00 0.00 M 5.58 39.52 C 6.53 40.49 7.48 41.46 8.43 42.43 C 16.33 34.62 24.15 26.73 32.01 18.89 C 39.86 26.73 47.71 34.58 55.55 42.43 C 56.51 41.47 57.48 40.51 58.45 39.56 C 49.64 30.75 40.88 21.90 32.00 13.17 C 23.15 21.91 14.42 30.77 5.58 39.52 Z" />
</g>
<g id="#000000ff">
<path fill="#000000" opacity="1.00" d=" M 5.58 39.52 C 14.42 30.77 23.15 21.91 32.00 13.17 C 40.88 21.90 49.64 30.75 58.45 39.56 C 57.48 40.51 56.51 41.47 55.55 42.43 C 47.71 34.58 39.86 26.73 32.01 18.89 C 24.15 26.73 16.33 34.62 8.43 42.43 C 7.48 41.46 6.53 40.49 5.58 39.52 Z" />
</g>
</svg>
