<?xml version="1.0" encoding="UTF-8" ?>
<!DOCTYPE svg PUBLIC "-//W3C//DTD SVG 1.1//EN" "http://www.w3.org/Graphics/SVG/1.1/DTD/svg11.dtd">
<svg width="60pt" height="60pt" viewBox="0 0 60 60" version="1.1" xmlns="http://www.w3.org/2000/svg">
<g id="#ffffffff">
<path fill="#ffffff" opacity="1.00" d=" M 0.00 0.00 L 60.00 0.00 L 60.00 60.00 L 0.00 60.00 L 0.00 0.00 M 6.73 14.30 C 7.90 16.06 10.16 15.94 12.00 16.13 C 12.00 17.10 12.00 19.03 12.00 20.00 C 13.32 18.66 14.67 17.34 15.99 16.00 C 20.02 15.95 24.05 16.11 28.07 15.95 C 31.10 16.07 33.22 12.10 31.24 9.71 C 30.16 7.88 27.85 7.98 26.01 7.98 C 20.63 8.06 15.25 7.90 9.88 8.05 C 6.86 7.96 4.81 11.91 6.73 14.30 M 35.03 7.98 C 36.18 10.57 36.17 13.43 35.03 16.02 C 38.03 15.99 41.03 16.00 44.04 15.99 C 45.35 17.33 46.69 18.66 48.00 20.00 C 48.00 19.04 48.00 17.10 48.00 16.14 C 49.84 15.94 52.13 16.07 53.25 14.26 C 55.19 11.90 53.13 7.89 50.10 8.05 C 45.08 7.88 40.05 8.08 35.03 7.98 M 9.30 29.05 C 9.50 33.90 10.29 38.90 13.94 42.44 C 13.97 43.07 14.02 44.32 14.05 44.95 C 11.15 47.09 7.47 48.47 5.86 51.96 C 13.99 51.96 22.13 52.17 30.26 51.84 C 28.41 48.53 24.86 47.07 21.94 44.95 C 21.97 44.33 22.04 43.10 22.07 42.48 C 23.66 40.14 25.96 37.88 25.94 34.85 C 26.33 31.52 27.42 27.21 24.31 24.80 C 21.65 23.64 19.03 21.32 15.93 22.21 C 12.52 22.70 9.56 25.55 9.30 29.05 M 33.57 27.69 C 32.80 30.06 33.82 32.48 34.03 34.85 C 33.97 37.92 36.31 40.11 37.93 42.44 C 37.97 43.05 38.03 44.27 38.07 44.88 C 36.38 46.21 34.54 47.30 32.69 48.39 C 33.25 49.59 33.80 50.79 34.33 52.00 C 40.94 51.97 47.56 52.08 54.17 51.93 C 52.49 48.50 48.87 47.08 45.96 44.96 C 45.98 44.35 46.02 43.14 46.05 42.53 C 49.79 38.67 50.83 33.22 50.29 28.05 C 49.71 24.42 45.73 23.65 42.99 22.20 C 39.13 21.40 34.58 23.72 33.57 27.69 Z" />
</g>
<g id="#000000ff">
<path fill="#968176" opacity="1.00" d=" M 6.73 14.30 C 4.81 11.91 6.86 7.96 9.88 8.05 C 15.25 7.90 20.63 8.06 26.01 7.98 C 27.85 7.98 30.16 7.88 31.24 9.71 C 33.22 12.10 31.10 16.07 28.07 15.95 C 24.05 16.11 20.02 15.95 15.99 16.00 C 14.67 17.34 13.32 18.66 12.00 20.00 C 12.00 19.03 12.00 17.10 12.00 16.13 C 10.16 15.94 7.90 16.06 6.73 14.30 Z" />
<path fill="#968176" opacity="1.00" d=" M 35.03 7.98 C 40.05 8.08 45.08 7.88 50.10 8.05 C 53.13 7.89 55.19 11.90 53.25 14.26 C 52.13 16.07 49.84 15.94 48.00 16.14 C 48.00 17.10 48.00 19.04 48.00 20.00 C 46.69 18.66 45.35 17.33 44.04 15.99 C 41.03 16.00 38.03 15.99 35.03 16.02 C 36.17 13.43 36.18 10.57 35.03 7.98 Z" />
<path fill="#968176" opacity="1.00" d=" M 9.30 29.05 C 9.56 25.55 12.52 22.70 15.93 22.21 C 19.03 21.32 21.65 23.64 24.31 24.80 C 27.42 27.21 26.33 31.52 25.94 34.85 C 25.96 37.88 23.66 40.14 22.07 42.48 C 22.04 43.10 21.97 44.33 21.94 44.95 C 24.86 47.07 28.41 48.53 30.26 51.84 C 22.13 52.17 13.99 51.96 5.86 51.96 C 7.47 48.47 11.15 47.09 14.05 44.95 C 14.02 44.32 13.97 43.07 13.94 42.44 C 10.29 38.90 9.50 33.90 9.30 29.05 Z" />
<path fill="#968176" opacity="1.00" d=" M 33.57 27.69 C 34.58 23.72 39.13 21.40 42.99 22.20 C 45.73 23.65 49.71 24.42 50.29 28.05 C 50.83 33.22 49.79 38.67 46.05 42.53 C 46.02 43.14 45.98 44.35 45.96 44.96 C 48.87 47.08 52.49 48.50 54.17 51.93 C 47.56 52.08 40.94 51.97 34.33 52.00 C 33.80 50.79 33.25 49.59 32.69 48.39 C 34.54 47.30 36.38 46.21 38.07 44.88 C 38.03 44.27 37.97 43.05 37.93 42.44 C 36.31 40.11 33.97 37.92 34.03 34.85 C 33.82 32.48 32.80 30.06 33.57 27.69 Z" />
</g>
</svg>
