<?xml version="1.0" encoding="UTF-8" ?>
<!DOCTYPE svg PUBLIC "-//W3C//DTD SVG 1.1//EN" "http://www.w3.org/Graphics/SVG/1.1/DTD/svg11.dtd">
<svg width="60pt" height="60pt" viewBox="0 0 60 60" version="1.1" xmlns="http://www.w3.org/2000/svg">
<g id="#ffffffff">
<path fill="#ffffff" opacity="1.00" d=" M 0.00 0.00 L 60.00 0.00 L 60.00 60.00 L 0.00 60.00 L 0.00 0.00 M 46.42 8.35 C 44.55 9.04 44.12 11.06 43.82 12.80 C 41.77 14.66 39.62 16.42 37.43 18.11 C 34.06 19.16 30.97 17.47 28.19 15.77 C 27.51 13.91 26.22 11.86 23.94 12.03 C 21.41 11.88 20.21 14.42 19.66 16.48 C 17.79 17.81 15.84 19.03 13.90 20.25 C 11.82 19.76 9.28 20.15 8.38 22.36 C 6.63 25.48 10.61 29.36 13.68 27.59 C 15.38 26.92 15.72 25.02 16.35 23.52 C 18.21 22.19 20.16 20.97 22.10 19.76 C 23.56 19.90 25.01 19.82 26.45 19.50 C 28.28 20.33 30.06 21.25 31.81 22.21 C 32.48 24.05 33.74 26.10 35.99 25.96 C 38.61 26.14 40.03 23.47 40.18 21.20 C 42.24 19.38 44.35 17.61 46.51 15.92 C 48.46 16.20 50.77 15.64 51.60 13.65 C 53.32 10.60 49.53 6.69 46.42 8.35 M 44.08 25.95 C 43.87 34.63 44.07 43.32 44.00 52.00 C 46.67 52.00 49.33 52.00 52.00 52.00 C 51.93 43.32 52.13 34.63 51.92 25.95 C 52.04 23.81 49.44 23.95 47.98 23.94 C 46.54 23.95 43.93 23.82 44.08 25.95 M 20.16 29.17 C 19.77 36.77 20.12 44.39 20.00 52.00 C 22.67 52.00 25.33 52.00 28.00 52.00 C 27.97 44.98 28.05 37.95 27.98 30.93 C 28.14 29.70 27.62 27.88 26.04 28.07 C 24.13 28.12 21.39 27.24 20.16 29.17 M 32.18 33.09 C 31.75 39.38 32.13 45.70 32.00 52.00 C 34.67 52.00 37.33 52.00 40.00 52.00 C 39.87 45.71 40.25 39.39 39.82 33.11 C 38.05 31.34 33.97 31.35 32.18 33.09 M 8.17 37.12 C 7.75 42.07 8.12 47.04 8.00 52.00 C 10.67 52.00 13.33 52.00 16.00 52.00 C 15.88 47.06 16.24 42.10 15.84 37.17 C 14.14 35.31 9.90 35.33 8.17 37.12 Z" />
</g>
<g id="#000000ff">
<path fill="#000000" opacity="1.00" d=" M 46.42 8.35 C 49.53 6.69 53.32 10.60 51.60 13.65 C 50.77 15.64 48.46 16.20 46.51 15.92 C 44.35 17.61 42.24 19.38 40.18 21.20 C 40.03 23.47 38.61 26.14 35.99 25.96 C 33.74 26.10 32.48 24.05 31.81 22.21 C 30.06 21.25 28.28 20.33 26.45 19.50 C 25.01 19.82 23.56 19.90 22.10 19.76 C 20.16 20.97 18.21 22.19 16.35 23.52 C 15.72 25.02 15.38 26.92 13.68 27.59 C 10.61 29.36 6.63 25.48 8.38 22.36 C 9.28 20.15 11.82 19.76 13.90 20.25 C 15.84 19.03 17.79 17.81 19.66 16.48 C 20.21 14.42 21.41 11.88 23.94 12.03 C 26.22 11.86 27.51 13.91 28.19 15.77 C 30.97 17.47 34.06 19.16 37.43 18.11 C 39.62 16.42 41.77 14.66 43.82 12.80 C 44.12 11.06 44.55 9.04 46.42 8.35 Z" />
<path fill="#000000" opacity="1.00" d=" M 44.08 25.95 C 43.93 23.82 46.54 23.95 47.98 23.94 C 49.44 23.95 52.04 23.81 51.92 25.95 C 52.13 34.63 51.93 43.32 52.00 52.00 C 49.33 52.00 46.67 52.00 44.00 52.00 C 44.07 43.32 43.87 34.63 44.08 25.95 Z" />
<path fill="#000000" opacity="1.00" d=" M 20.16 29.17 C 21.39 27.24 24.13 28.12 26.04 28.07 C 27.62 27.88 28.14 29.70 27.98 30.93 C 28.05 37.95 27.97 44.98 28.00 52.00 C 25.33 52.00 22.67 52.00 20.00 52.00 C 20.12 44.39 19.77 36.77 20.16 29.17 Z" />
<path fill="#000000" opacity="1.00" d=" M 32.18 33.09 C 33.97 31.35 38.05 31.34 39.82 33.11 C 40.25 39.39 39.87 45.71 40.00 52.00 C 37.33 52.00 34.67 52.00 32.00 52.00 C 32.13 45.70 31.75 39.38 32.18 33.09 Z" />
<path fill="#000000" opacity="1.00" d=" M 8.17 37.12 C 9.90 35.33 14.14 35.31 15.84 37.17 C 16.24 42.10 15.88 47.06 16.00 52.00 C 13.33 52.00 10.67 52.00 8.00 52.00 C 8.12 47.04 7.75 42.07 8.17 37.12 Z" />
</g>
</svg>
