<?xml version="1.0" encoding="UTF-8" ?>
<!DOCTYPE svg PUBLIC "-//W3C//DTD SVG 1.1//EN" "http://www.w3.org/Graphics/SVG/1.1/DTD/svg11.dtd">
<svg width="64pt" height="64pt" viewBox="0 0 64 64" version="1.1" xmlns="http://www.w3.org/2000/svg">
<g id="#ffffffff">
<path fill="#ffffff" opacity="1.00" d=" M 0.00 0.00 L 64.00 0.00 L 64.00 64.00 L 0.00 64.00 L 0.00 0.00 M 35.75 8.68 C 26.44 18.05 17.04 27.33 7.76 36.72 C 5.19 39.15 5.46 43.62 8.12 45.87 C 12.96 50.62 18.64 54.40 23.83 58.72 C 24.71 57.74 25.58 56.76 26.45 55.78 C 23.03 52.26 19.50 48.85 16.11 45.30 L 17.26 44.27 C 20.75 47.71 24.21 51.18 27.70 54.63 C 28.63 53.67 29.56 52.71 30.50 51.76 C 27.06 48.24 23.51 44.84 20.10 41.29 C 20.39 41.04 20.99 40.53 21.29 40.28 C 24.76 43.73 28.22 47.20 31.72 50.63 C 32.64 49.67 33.57 48.71 34.49 47.75 C 31.05 44.30 27.62 40.85 24.15 37.43 C 24.41 37.13 24.94 36.53 25.21 36.23 C 28.73 39.67 32.18 43.17 35.69 46.62 C 36.63 45.66 37.56 44.71 38.50 43.76 C 35.04 40.22 31.44 36.80 28.04 33.20 C 28.40 32.99 29.10 32.57 29.45 32.36 C 32.79 35.86 36.28 39.20 39.69 42.62 C 40.63 41.66 41.56 40.71 42.50 39.76 C 39.05 36.34 35.69 32.84 32.16 29.50 C 32.42 29.18 32.95 28.54 33.22 28.22 C 36.72 31.68 40.19 35.17 43.69 38.62 C 44.63 37.66 45.56 36.71 46.50 35.76 C 43.06 32.34 39.70 28.83 36.16 25.52 C 36.42 25.19 36.95 24.55 37.21 24.22 C 40.72 27.68 44.19 31.17 47.69 34.62 C 48.63 33.67 49.56 32.71 50.50 31.76 C 47.05 28.25 43.51 24.82 40.09 21.28 C 40.39 21.03 40.99 20.54 41.29 20.29 C 44.76 23.73 48.21 27.19 51.69 30.62 C 52.62 29.66 53.56 28.71 54.50 27.76 C 51.05 24.30 47.63 20.83 44.15 17.41 C 44.41 17.12 44.95 16.53 45.21 16.24 C 48.73 19.64 52.16 23.13 55.63 26.58 C 56.64 25.70 57.64 24.81 58.64 23.93 C 55.15 19.58 51.76 15.16 48.23 10.84 C 46.27 8.73 44.19 6.02 41.01 6.06 C 38.90 5.95 37.11 7.22 35.75 8.68 Z" />
<path fill="#ffffff" opacity="1.00" d=" M 39.57 10.64 C 41.06 9.10 42.71 10.95 43.81 11.96 C 33.15 22.60 22.50 33.26 11.83 43.91 C 10.71 42.86 9.03 41.01 10.62 39.57 C 20.21 29.88 29.85 20.21 39.57 10.64 Z" />
</g>
<g id="#000000ff">
<path fill="#000000" opacity="1.00" d=" M 35.75 8.68 C 37.11 7.22 38.90 5.95 41.01 6.06 C 44.19 6.02 46.27 8.73 48.23 10.84 C 51.76 15.16 55.15 19.58 58.64 23.93 C 57.64 24.81 56.64 25.70 55.63 26.58 C 52.16 23.13 48.73 19.64 45.21 16.24 C 44.95 16.53 44.41 17.12 44.15 17.41 C 47.63 20.83 51.05 24.30 54.50 27.76 C 53.56 28.71 52.62 29.66 51.69 30.62 C 48.21 27.19 44.76 23.73 41.29 20.29 C 40.99 20.54 40.39 21.03 40.09 21.28 C 43.51 24.82 47.05 28.25 50.50 31.76 C 49.56 32.71 48.63 33.67 47.69 34.62 C 44.19 31.17 40.72 27.68 37.21 24.22 C 36.95 24.55 36.42 25.19 36.16 25.52 C 39.70 28.83 43.06 32.34 46.50 35.76 C 45.56 36.71 44.63 37.66 43.69 38.62 C 40.19 35.17 36.72 31.68 33.22 28.22 C 32.95 28.54 32.42 29.18 32.16 29.50 C 35.69 32.84 39.05 36.34 42.50 39.76 C 41.56 40.71 40.63 41.66 39.69 42.62 C 36.28 39.20 32.79 35.86 29.45 32.36 C 29.10 32.57 28.40 32.99 28.04 33.20 C 31.44 36.80 35.04 40.22 38.50 43.76 C 37.56 44.71 36.63 45.66 35.69 46.62 C 32.18 43.17 28.73 39.67 25.21 36.23 C 24.94 36.53 24.41 37.13 24.15 37.43 C 27.62 40.85 31.05 44.30 34.49 47.75 C 33.57 48.71 32.64 49.67 31.72 50.63 C 28.22 47.20 24.76 43.73 21.29 40.28 C 20.99 40.53 20.39 41.04 20.10 41.29 C 23.51 44.84 27.06 48.24 30.50 51.76 C 29.56 52.71 28.63 53.67 27.70 54.63 C 24.21 51.18 20.75 47.71 17.26 44.27 L 16.11 45.30 C 19.50 48.85 23.03 52.26 26.45 55.78 C 25.58 56.76 24.71 57.74 23.83 58.72 C 18.64 54.40 12.96 50.62 8.12 45.87 C 5.46 43.62 5.19 39.15 7.76 36.72 C 17.04 27.33 26.44 18.05 35.75 8.68 M 39.57 10.64 C 29.85 20.21 20.21 29.88 10.62 39.57 C 9.03 41.01 10.71 42.86 11.83 43.91 C 22.50 33.26 33.15 22.60 43.81 11.96 C 42.71 10.95 41.06 9.10 39.57 10.64 Z" />
</g>
</svg>
