<?xml version="1.0" encoding="UTF-8" ?>
<!DOCTYPE svg PUBLIC "-//W3C//DTD SVG 1.1//EN" "http://www.w3.org/Graphics/SVG/1.1/DTD/svg11.dtd">
<svg width="64pt" height="64pt" viewBox="0 0 64 64" version="1.1" xmlns="http://www.w3.org/2000/svg">
<g id="#ffffffff">
<path fill="#ffffff" opacity="1.00" d=" M 0.00 0.00 L 64.00 0.00 L 64.00 64.00 L 0.00 64.00 L 0.00 0.00 M 40.40 16.47 C 41.64 14.16 43.12 11.96 44.05 9.50 C 33.03 15.35 21.98 21.34 11.99 28.86 C 7.38 32.08 3.90 37.22 3.91 43.00 C 3.59 50.39 9.02 57.28 16.06 59.22 C 22.08 61.06 29.05 58.96 33.00 54.05 C 40.67 45.16 46.29 34.78 52.11 24.64 C 49.82 25.56 47.54 26.48 45.26 27.38 C 50.39 19.32 55.57 11.27 60.69 3.20 C 53.93 7.63 47.18 12.07 40.40 16.47 Z" />
<path fill="#ffffff" opacity="1.00" d=" M 29.20 28.67 C 35.18 24.68 41.22 20.78 47.23 16.84 C 43.20 23.16 39.14 29.47 35.13 35.80 C 37.69 34.77 40.24 33.72 42.80 32.69 C 40.02 37.51 36.92 42.15 33.77 46.73 C 31.16 50.26 28.38 54.26 23.89 55.45 C 17.22 57.52 9.58 52.79 8.13 46.04 C 7.07 41.48 8.99 36.55 12.57 33.62 C 19.21 28.03 26.78 23.72 34.26 19.39 C 32.61 22.50 30.89 25.58 29.20 28.67 M 17.30 36.48 C 11.63 38.21 10.17 46.52 14.87 50.12 C 19.05 53.94 26.59 51.50 27.73 45.95 C 29.54 40.08 22.99 34.11 17.30 36.48 Z" />
<path fill="#ffffff" opacity="1.00" d=" M 19.22 40.06 C 22.00 39.37 24.67 42.11 23.92 44.87 C 23.52 47.99 19.18 49.00 17.10 46.89 C 14.97 44.79 16.04 40.37 19.22 40.06 Z" />
</g>
<g id="#000000ff">
<path fill="#000000" opacity="1.00" d=" M 40.40 16.47 C 47.18 12.07 53.93 7.63 60.69 3.20 C 55.57 11.27 50.39 19.32 45.26 27.38 C 47.54 26.48 49.82 25.56 52.11 24.64 C 46.29 34.78 40.67 45.16 33.00 54.05 C 29.05 58.96 22.08 61.06 16.06 59.22 C 9.02 57.28 3.59 50.39 3.91 43.00 C 3.90 37.22 7.38 32.08 11.99 28.86 C 21.98 21.34 33.03 15.35 44.05 9.50 C 43.12 11.96 41.64 14.16 40.40 16.47 M 29.20 28.67 C 30.89 25.58 32.61 22.50 34.26 19.39 C 26.78 23.72 19.21 28.03 12.57 33.62 C 8.99 36.55 7.07 41.48 8.13 46.04 C 9.58 52.79 17.22 57.52 23.89 55.45 C 28.38 54.26 31.16 50.26 33.77 46.73 C 36.92 42.15 40.02 37.51 42.80 32.69 C 40.24 33.72 37.69 34.77 35.13 35.80 C 39.14 29.47 43.20 23.16 47.23 16.84 C 41.22 20.78 35.18 24.68 29.20 28.67 Z" />
<path fill="#000000" opacity="1.00" d=" M 17.30 36.48 C 22.99 34.11 29.54 40.08 27.73 45.95 C 26.59 51.50 19.05 53.94 14.87 50.12 C 10.17 46.52 11.63 38.21 17.30 36.48 M 19.22 40.06 C 16.04 40.37 14.97 44.79 17.10 46.89 C 19.18 49.00 23.52 47.99 23.92 44.87 C 24.67 42.11 22.00 39.37 19.22 40.06 Z" />
</g>
</svg>
