<?xml version="1.0" encoding="UTF-8" ?>
<!DOCTYPE svg PUBLIC "-//W3C//DTD SVG 1.1//EN" "http://www.w3.org/Graphics/SVG/1.1/DTD/svg11.dtd">
<svg width="60pt" height="60pt" viewBox="0 0 60 60" version="1.1" xmlns="http://www.w3.org/2000/svg">
<g id="#ffffffff">
<path fill="#ffffff" opacity="1.00" d=" M 0.00 0.00 L 60.00 0.00 L 60.00 60.00 L 0.00 60.00 L 0.00 0.00 M 9.21 8.21 C 8.95 8.44 8.42 8.90 8.16 9.12 C 7.95 17.09 7.73 25.12 8.32 33.07 C 10.62 43.66 20.72 50.08 29.99 54.16 C 37.94 50.73 45.91 45.74 50.04 37.86 C 52.67 32.99 51.89 27.30 52.00 22.00 C 51.89 17.70 52.24 13.38 51.83 9.09 C 51.14 7.93 49.64 7.94 48.49 7.62 C 35.53 5.43 22.06 5.28 9.21 8.21 Z" />
<path fill="#ffffff" opacity="1.00" d=" M 17.48 20.58 C 19.75 19.80 22.33 19.79 24.58 20.60 C 25.74 20.91 26.18 21.67 25.89 22.86 C 24.83 24.49 22.70 23.87 21.07 24.05 C 19.38 23.85 17.13 24.55 16.07 22.79 C 15.85 21.59 16.32 20.86 17.48 20.58 Z" />
<path fill="#ffffff" opacity="1.00" d=" M 35.41 20.60 C 38.10 19.70 41.33 19.70 43.80 21.23 C 44.18 22.39 43.85 23.26 42.80 23.84 C 40.27 24.13 37.69 24.13 35.15 23.83 C 33.63 23.14 33.62 20.92 35.41 20.60 Z" />
<path fill="#ffffff" opacity="1.00" d=" M 19.99 34.16 C 26.63 33.83 33.27 34.04 39.91 34.04 C 38.68 38.83 34.02 42.58 28.98 41.93 C 24.63 41.62 21.34 38.11 19.99 34.16 Z" />
</g>
<g id="#000000ff">
<path fill="#000000" opacity="1.00" d=" M 9.21 8.21 C 22.06 5.28 35.53 5.43 48.49 7.62 C 49.64 7.94 51.14 7.93 51.83 9.09 C 52.24 13.38 51.89 17.70 52.00 22.00 C 51.89 27.30 52.67 32.99 50.04 37.86 C 45.91 45.74 37.94 50.73 29.99 54.16 C 20.72 50.08 10.62 43.66 8.32 33.07 C 7.73 25.12 7.95 17.09 8.16 9.12 C 8.42 8.90 8.95 8.44 9.21 8.21 M 17.48 20.58 C 16.32 20.86 15.85 21.59 16.07 22.79 C 17.13 24.55 19.38 23.85 21.07 24.05 C 22.70 23.87 24.83 24.49 25.89 22.86 C 26.18 21.67 25.74 20.91 24.58 20.60 C 22.33 19.79 19.75 19.80 17.48 20.58 M 35.41 20.60 C 33.62 20.92 33.63 23.14 35.15 23.83 C 37.69 24.13 40.27 24.13 42.80 23.84 C 43.85 23.26 44.18 22.39 43.80 21.23 C 41.33 19.70 38.10 19.70 35.41 20.60 M 19.99 34.16 C 21.34 38.11 24.63 41.62 28.98 41.93 C 34.02 42.58 38.68 38.83 39.91 34.04 C 33.27 34.04 26.63 33.83 19.99 34.16 Z" />
</g>
</svg>
