<?xml version="1.0" encoding="UTF-8" ?>
<!DOCTYPE svg PUBLIC "-//W3C//DTD SVG 1.1//EN" "http://www.w3.org/Graphics/SVG/1.1/DTD/svg11.dtd">
<svg width="64pt" height="64pt" viewBox="0 0 64 64" version="1.1" xmlns="http://www.w3.org/2000/svg">
<g id="#ffffffff">
<path fill="#ffffff" opacity="1.00" d=" M 0.00 0.00 L 64.00 0.00 L 64.00 64.00 L 0.00 64.00 L 0.00 0.00 M 4.00 8.00 C 4.00 18.67 4.00 29.33 4.00 40.00 C 6.67 40.00 9.33 40.00 12.00 40.00 C 12.00 43.38 12.00 46.77 12.01 50.15 C 16.29 46.80 20.50 43.34 24.78 39.98 C 31.19 40.02 37.59 39.99 44.00 40.00 C 44.00 29.33 44.00 18.67 44.00 8.00 C 30.67 8.00 17.33 8.00 4.00 8.00 M 48.00 16.00 C 48.00 17.33 48.00 18.67 48.00 20.00 C 50.67 20.00 53.33 20.00 56.00 20.00 C 56.00 28.00 56.00 36.00 56.00 44.00 C 53.33 44.00 50.67 44.00 48.00 44.00 C 48.00 45.95 48.00 47.89 48.00 49.84 C 45.58 47.89 43.17 45.93 40.73 44.00 C 35.79 44.04 30.84 43.91 25.89 44.05 C 24.00 45.13 22.46 46.70 20.73 48.01 C 26.91 47.99 33.09 48.02 39.27 47.98 C 43.52 51.35 47.76 54.75 51.99 58.14 C 52.00 54.76 52.00 51.38 52.00 48.00 C 54.67 48.00 57.33 48.00 60.00 48.00 C 60.00 37.33 60.00 26.67 60.00 16.00 C 56.00 16.00 52.00 16.00 48.00 16.00 Z" />
<path fill="#ffffff" opacity="1.00" d=" M 8.00 12.00 C 18.67 12.00 29.33 12.00 40.00 12.00 C 40.00 20.00 40.00 28.00 40.00 36.00 C 34.42 36.01 28.85 35.98 23.27 36.02 C 20.87 37.98 18.44 39.90 16.00 41.83 C 16.00 39.88 16.00 37.94 16.00 36.00 C 13.33 36.00 10.67 36.00 8.00 36.00 C 8.00 28.00 8.00 20.00 8.00 12.00 M 12.00 18.00 C 12.00 19.33 12.00 20.67 12.00 22.00 C 20.00 22.00 28.00 22.00 36.00 22.00 C 36.00 20.67 36.00 19.33 36.00 18.00 C 28.00 18.00 20.00 18.00 12.00 18.00 M 12.00 26.00 C 12.00 27.33 12.00 28.67 12.00 30.00 C 16.67 30.00 21.33 30.00 26.00 30.00 C 26.00 28.67 26.00 27.33 26.00 26.00 C 21.33 26.00 16.67 26.00 12.00 26.00 Z" />
</g>
<g id="#000000ff">
<path fill="#000000" opacity="1.00" d=" M 4.00 8.00 C 17.33 8.00 30.67 8.00 44.00 8.00 C 44.00 18.67 44.00 29.33 44.00 40.00 C 37.59 39.99 31.19 40.02 24.78 39.98 C 20.50 43.34 16.29 46.80 12.01 50.15 C 12.00 46.77 12.00 43.38 12.00 40.00 C 9.33 40.00 6.67 40.00 4.00 40.00 C 4.00 29.33 4.00 18.67 4.00 8.00 M 8.00 12.00 C 8.00 20.00 8.00 28.00 8.00 36.00 C 10.67 36.00 13.33 36.00 16.00 36.00 C 16.00 37.94 16.00 39.88 16.00 41.83 C 18.44 39.90 20.87 37.98 23.27 36.02 C 28.85 35.98 34.42 36.01 40.00 36.00 C 40.00 28.00 40.00 20.00 40.00 12.00 C 29.33 12.00 18.67 12.00 8.00 12.00 Z" />
<path fill="#000000" opacity="1.00" d=" M 48.00 16.00 C 52.00 16.00 56.00 16.00 60.00 16.00 C 60.00 26.67 60.00 37.33 60.00 48.00 C 57.33 48.00 54.67 48.00 52.00 48.00 C 52.00 51.38 52.00 54.76 51.99 58.14 C 47.76 54.75 43.52 51.35 39.27 47.98 C 33.09 48.02 26.91 47.99 20.73 48.01 C 22.46 46.70 24.00 45.13 25.89 44.05 C 30.84 43.91 35.79 44.04 40.73 44.00 C 43.17 45.93 45.58 47.89 48.00 49.84 C 48.00 47.89 48.00 45.95 48.00 44.00 C 50.67 44.00 53.33 44.00 56.00 44.00 C 56.00 36.00 56.00 28.00 56.00 20.00 C 53.33 20.00 50.67 20.00 48.00 20.00 C 48.00 18.67 48.00 17.33 48.00 16.00 Z" />
<path fill="#000000" opacity="1.00" d=" M 12.00 18.00 C 20.00 18.00 28.00 18.00 36.00 18.00 C 36.00 19.33 36.00 20.67 36.00 22.00 C 28.00 22.00 20.00 22.00 12.00 22.00 C 12.00 20.67 12.00 19.33 12.00 18.00 Z" />
<path fill="#000000" opacity="1.00" d=" M 12.00 26.00 C 16.67 26.00 21.33 26.00 26.00 26.00 C 26.00 27.33 26.00 28.67 26.00 30.00 C 21.33 30.00 16.67 30.00 12.00 30.00 C 12.00 28.67 12.00 27.33 12.00 26.00 Z" />
</g>
</svg>
