<?xml version="1.0" encoding="UTF-8" ?>
<!DOCTYPE svg PUBLIC "-//W3C//DTD SVG 1.1//EN" "http://www.w3.org/Graphics/SVG/1.1/DTD/svg11.dtd">
<svg width="60pt" height="60pt" viewBox="0 0 60 60" version="1.1" xmlns="http://www.w3.org/2000/svg">
<g id="#ffffffff">
<path fill="#ffffff" opacity="1.00" d=" M 0.00 0.00 L 60.00 0.00 L 60.00 60.00 L 0.00 60.00 L 0.00 0.00 M 6.01 14.94 C 6.09 24.92 5.80 34.92 6.15 44.89 C 7.64 49.91 14.15 47.34 17.97 48.04 C 18.10 50.96 17.84 53.89 18.14 56.81 C 18.73 57.95 20.43 58.34 21.34 57.36 C 23.89 54.52 25.88 51.24 28.29 48.28 C 35.77 47.50 43.37 48.42 50.88 47.83 C 53.12 47.53 54.20 45.11 53.99 43.06 C 53.99 33.37 54.07 23.68 53.94 13.99 C 54.11 11.35 51.48 9.67 49.06 10.01 C 36.04 10.03 23.01 9.93 9.99 10.06 C 7.37 9.89 5.67 12.54 6.01 14.94 Z" />
</g>
<g id="#000000ff">
<path fill="#000000" opacity="1.00" d=" M 6.01 14.94 C 5.67 12.54 7.37 9.89 9.99 10.06 C 23.01 9.93 36.04 10.03 49.06 10.01 C 51.48 9.67 54.11 11.35 53.94 13.99 C 54.07 23.68 53.99 33.37 53.99 43.06 C 54.20 45.11 53.12 47.53 50.88 47.83 C 43.37 48.42 35.77 47.50 28.29 48.28 C 25.88 51.24 23.89 54.52 21.34 57.36 C 20.43 58.34 18.73 57.95 18.14 56.81 C 17.84 53.89 18.10 50.96 17.97 48.04 C 14.15 47.34 7.64 49.91 6.15 44.89 C 5.80 34.92 6.09 24.92 6.01 14.94 Z" />
</g>
</svg>
