<?xml version="1.0" encoding="UTF-8" ?>
<!DOCTYPE svg PUBLIC "-//W3C//DTD SVG 1.1//EN" "http://www.w3.org/Graphics/SVG/1.1/DTD/svg11.dtd">
<svg width="64pt" height="64pt" viewBox="0 0 64 64" version="1.1" xmlns="http://www.w3.org/2000/svg">
<g id="#ffffffff">
<path fill="#ffffff" opacity="1.00" d=" M 0.00 0.00 L 64.00 0.00 L 64.00 64.00 L 0.00 64.00 L 0.00 0.00 M 34.00 10.00 C 34.00 16.67 34.00 23.33 34.00 30.00 C 35.33 30.00 36.67 30.00 38.00 30.00 C 38.00 31.92 38.00 33.83 38.00 35.75 C 41.02 33.96 43.68 31.56 46.88 30.10 C 51.24 29.81 55.63 30.10 60.00 30.00 C 60.00 23.33 60.00 16.67 60.00 10.00 C 51.33 10.00 42.67 10.00 34.00 10.00 M 11.10 20.01 C 6.36 25.00 7.35 33.56 12.76 37.67 C 7.53 40.54 4.12 46.01 3.85 51.98 C 5.19 51.99 6.52 52.00 7.85 52.00 C 8.30 49.37 8.82 46.62 10.63 44.54 C 14.32 39.67 21.89 38.57 26.83 42.17 C 30.17 44.30 31.72 48.20 32.15 52.00 C 33.48 52.00 34.81 51.99 36.14 51.98 C 35.86 46.02 32.48 40.52 27.23 37.67 C 32.38 33.71 33.62 25.68 29.39 20.60 C 25.15 14.80 15.72 14.56 11.10 20.01 Z" />
<path fill="#ffffff" opacity="1.00" d=" M 38.00 14.00 C 44.00 14.00 50.00 14.00 56.00 14.00 C 56.00 18.00 56.00 22.00 56.00 26.00 C 51.31 26.43 45.79 24.56 42.01 28.23 C 42.00 27.67 41.99 26.56 41.98 26.00 C 40.66 26.00 39.33 26.00 38.00 26.00 C 38.00 22.00 38.00 18.00 38.00 14.00 Z" />
<path fill="#ffffff" opacity="1.00" d=" M 17.33 20.46 C 21.08 19.06 25.66 20.96 27.25 24.64 C 29.14 28.48 27.26 33.60 23.31 35.26 C 19.46 37.14 14.36 35.23 12.71 31.28 C 10.76 27.21 13.02 21.83 17.33 20.46 Z" />
</g>
<g id="#000000ff">
<path fill="#000000" opacity="1.00" d=" M 34.00 10.00 C 42.67 10.00 51.33 10.00 60.00 10.00 C 60.00 16.67 60.00 23.33 60.00 30.00 C 55.63 30.10 51.24 29.81 46.88 30.10 C 43.68 31.56 41.02 33.96 38.00 35.75 C 38.00 33.83 38.00 31.92 38.00 30.00 C 36.67 30.00 35.33 30.00 34.00 30.00 C 34.00 23.33 34.00 16.67 34.00 10.00 M 38.00 14.00 C 38.00 18.00 38.00 22.00 38.00 26.00 C 39.33 26.00 40.66 26.00 41.98 26.00 C 41.99 26.56 42.00 27.67 42.01 28.23 C 45.79 24.56 51.31 26.43 56.00 26.00 C 56.00 22.00 56.00 18.00 56.00 14.00 C 50.00 14.00 44.00 14.00 38.00 14.00 Z" />
<path fill="#000000" opacity="1.00" d=" M 11.10 20.01 C 15.72 14.56 25.15 14.80 29.39 20.60 C 33.62 25.68 32.38 33.71 27.23 37.67 C 32.48 40.52 35.86 46.02 36.14 51.98 C 34.81 51.99 33.48 52.00 32.15 52.00 C 31.72 48.20 30.17 44.30 26.83 42.17 C 21.89 38.57 14.32 39.67 10.63 44.54 C 8.82 46.62 8.30 49.37 7.85 52.00 C 6.52 52.00 5.19 51.99 3.85 51.98 C 4.12 46.01 7.53 40.54 12.76 37.67 C 7.35 33.56 6.36 25.00 11.10 20.01 M 17.33 20.46 C 13.02 21.83 10.76 27.21 12.71 31.28 C 14.36 35.23 19.46 37.14 23.31 35.26 C 27.26 33.60 29.14 28.48 27.25 24.64 C 25.66 20.96 21.08 19.06 17.33 20.46 Z" />
</g>
</svg>
