<?xml version="1.0" encoding="UTF-8" ?>
<!DOCTYPE svg PUBLIC "-//W3C//DTD SVG 1.1//EN" "http://www.w3.org/Graphics/SVG/1.1/DTD/svg11.dtd">
<svg width="64pt" height="64pt" viewBox="0 0 64 64" version="1.1" xmlns="http://www.w3.org/2000/svg">
<g id="#ffffffff">
<path fill="#ffffff" opacity="1.00" d=" M 0.00 0.00 L 64.00 0.00 L 64.00 64.00 L 0.00 64.00 L 0.00 0.00 M 43.52 3.82 C 40.12 9.62 36.62 15.37 33.20 21.17 C 31.97 23.20 30.98 25.56 28.82 26.79 C 21.86 31.48 14.95 36.25 8.00 40.96 C 8.00 42.53 8.01 44.10 8.00 45.68 C 12.62 50.47 17.21 55.29 21.80 60.11 C 29.86 54.06 37.92 48.00 45.94 41.90 C 46.07 40.45 45.75 38.86 46.59 37.57 C 50.59 30.66 54.62 23.78 58.66 16.89 C 53.59 12.55 48.57 8.16 43.52 3.82 Z" />
<path fill="#ffffff" opacity="1.00" d=" M 38.07 20.68 C 40.21 17.09 42.36 13.51 44.51 9.93 C 47.53 12.53 50.54 15.15 53.56 17.75 C 51.44 21.37 49.32 24.99 47.20 28.61 C 44.14 25.99 41.11 23.32 38.07 20.68 Z" />
<path fill="#ffffff" opacity="1.00" d=" M 34.57 26.57 C 34.92 25.96 35.64 24.74 36.00 24.13 C 39.04 26.78 42.08 29.45 45.12 32.11 C 44.61 33.01 44.09 33.91 43.58 34.81 C 40.57 32.07 37.57 29.31 34.57 26.57 Z" />
<path fill="#ffffff" opacity="1.00" d=" M 18.44 38.63 C 22.89 35.57 27.36 32.55 31.83 29.52 C 35.24 32.98 39.39 35.81 42.27 39.76 C 35.52 44.67 28.94 49.81 22.26 54.82 C 18.85 50.83 14.55 47.56 11.73 43.12 C 12.22 42.79 13.19 42.14 13.67 41.81 C 16.79 45.00 19.91 48.18 23.02 51.38 C 24.62 50.18 26.22 48.97 27.82 47.77 C 24.71 44.71 21.57 41.67 18.44 38.63 M 28.44 34.56 C 26.80 35.29 25.48 37.20 26.16 39.02 C 27.74 43.43 35.76 42.81 36.01 37.90 C 35.69 34.43 31.21 33.12 28.44 34.56 Z" />
</g>
<g id="#000000ff">
<path fill="#000000" opacity="1.00" d=" M 43.52 3.82 C 48.57 8.16 53.59 12.55 58.66 16.89 C 54.62 23.78 50.59 30.66 46.59 37.57 C 45.75 38.86 46.07 40.45 45.94 41.90 C 37.92 48.00 29.86 54.06 21.80 60.11 C 17.21 55.29 12.62 50.47 8.00 45.68 C 8.01 44.10 8.00 42.53 8.00 40.96 C 14.95 36.25 21.86 31.48 28.82 26.79 C 30.98 25.56 31.97 23.20 33.20 21.17 C 36.62 15.37 40.12 9.62 43.52 3.82 M 38.07 20.68 C 41.11 23.32 44.14 25.99 47.20 28.61 C 49.32 24.99 51.44 21.37 53.56 17.75 C 50.54 15.15 47.53 12.53 44.51 9.93 C 42.36 13.51 40.21 17.09 38.07 20.68 M 34.57 26.57 C 37.57 29.31 40.57 32.07 43.58 34.81 C 44.09 33.91 44.61 33.01 45.12 32.11 C 42.08 29.45 39.04 26.78 36.00 24.13 C 35.64 24.74 34.92 25.96 34.57 26.57 M 18.44 38.63 C 21.57 41.67 24.71 44.71 27.82 47.77 C 26.22 48.97 24.62 50.18 23.02 51.38 C 19.91 48.18 16.79 45.00 13.67 41.81 C 13.19 42.14 12.22 42.79 11.73 43.12 C 14.55 47.56 18.85 50.83 22.26 54.82 C 28.94 49.81 35.52 44.67 42.27 39.76 C 39.39 35.81 35.24 32.98 31.83 29.52 C 27.36 32.55 22.89 35.57 18.44 38.63 Z" />
<path fill="#000000" opacity="1.00" d=" M 28.44 34.56 C 31.21 33.12 35.69 34.43 36.01 37.90 C 35.76 42.81 27.74 43.43 26.16 39.02 C 25.48 37.20 26.80 35.29 28.44 34.56 Z" />
</g>
</svg>
