<?xml version="1.0" encoding="UTF-8" ?>
<!DOCTYPE svg PUBLIC "-//W3C//DTD SVG 1.1//EN" "http://www.w3.org/Graphics/SVG/1.1/DTD/svg11.dtd">
<svg width="60pt" height="60pt" viewBox="0 0 60 60" version="1.1" xmlns="http://www.w3.org/2000/svg">
<g id="#ffffffff">
<path fill="#ffffff" opacity="1.00" d=" M 0.00 0.00 L 60.00 0.00 L 60.00 60.00 L 0.00 60.00 L 0.00 0.00 M 9.20 14.24 C 7.14 14.87 7.86 18.28 10.02 17.98 C 16.78 15.66 23.34 12.75 30.00 10.15 C 36.69 12.68 43.21 15.68 49.98 17.98 C 52.13 18.28 52.87 14.86 50.81 14.24 C 43.93 11.30 36.96 8.57 29.98 5.89 C 23.06 8.68 16.07 11.33 9.20 14.24 M 9.20 20.25 C 7.15 20.87 7.86 24.23 9.98 23.99 C 16.76 21.68 23.32 18.73 30.00 16.15 C 36.68 18.69 43.20 21.67 49.96 23.97 C 52.11 24.32 52.87 20.88 50.82 20.24 C 43.92 17.35 36.95 14.59 29.97 11.89 C 23.05 14.67 16.05 17.31 9.20 20.25 M 11.17 25.36 C 10.15 25.92 8.71 26.07 8.15 27.21 C 7.39 28.45 8.65 30.25 10.07 29.96 C 13.14 29.10 16.01 27.69 18.98 26.53 C 17.99 30.06 18.46 33.79 20.30 36.95 C 16.81 36.15 13.43 34.94 9.98 34.03 C 8.22 33.82 7.28 36.33 8.58 37.42 C 22.02 43.39 37.90 43.35 51.37 37.47 C 52.81 36.39 51.80 33.70 49.97 34.06 C 46.53 34.93 43.18 36.16 39.70 36.94 C 41.54 33.78 42.01 30.06 41.03 26.53 C 44.00 27.70 46.89 29.12 49.98 29.98 C 51.38 30.19 52.59 28.44 51.85 27.22 C 51.29 26.08 49.87 25.92 48.86 25.37 C 42.55 22.93 36.33 20.28 30.02 17.89 C 23.71 20.32 17.46 22.90 11.17 25.36 M 9.24 40.08 C 7.95 40.59 7.48 42.51 8.59 43.41 C 22.03 49.43 37.97 49.34 51.45 43.43 C 53.21 41.87 51.00 38.98 49.00 40.28 C 40.98 42.98 32.41 44.90 23.92 43.52 C 18.87 43.07 14.18 40.82 9.24 40.08 M 9.21 46.09 C 7.93 46.61 7.49 48.55 8.61 49.43 C 22.06 55.41 37.94 55.33 51.41 49.46 C 52.84 48.38 51.77 45.57 49.93 46.06 C 45.57 47.23 41.30 48.82 36.80 49.41 C 28.86 50.79 20.71 49.47 13.14 46.93 C 11.86 46.59 10.58 45.92 9.21 46.09 Z" />
<path fill="#ffffff" opacity="1.00" d=" M 26.56 23.65 C 31.52 20.84 38.29 25.33 37.55 31.01 C 37.37 36.44 30.61 39.88 26.10 36.91 C 21.07 34.21 21.34 25.99 26.56 23.65 M 29.87 24.69 C 29.39 26.01 28.93 27.35 28.48 28.68 C 26.99 28.74 25.50 28.81 24.01 28.88 C 25.17 29.81 26.33 30.73 27.50 31.66 C 27.09 33.04 26.68 34.42 26.27 35.80 C 27.56 35.10 28.79 34.28 30.02 33.49 C 31.22 34.30 32.42 35.10 33.63 35.91 C 33.28 34.48 32.91 33.06 32.54 31.64 C 33.68 30.72 34.83 29.80 35.98 28.88 C 34.51 28.81 33.03 28.74 31.56 28.67 C 31.08 27.31 30.57 25.95 29.87 24.69 Z" />
</g>
<g id="#000000ff">
<path fill="#000000" opacity="1.00" d=" M 9.20 14.24 C 16.07 11.33 23.06 8.68 29.98 5.89 C 36.96 8.57 43.93 11.30 50.81 14.24 C 52.87 14.86 52.13 18.28 49.98 17.98 C 43.21 15.68 36.69 12.68 30.00 10.15 C 23.34 12.75 16.78 15.66 10.02 17.98 C 7.86 18.28 7.14 14.87 9.20 14.24 Z" />
<path fill="#000000" opacity="1.00" d=" M 9.20 20.25 C 16.05 17.31 23.05 14.67 29.97 11.89 C 36.95 14.59 43.92 17.35 50.82 20.24 C 52.87 20.88 52.11 24.32 49.96 23.97 C 43.20 21.67 36.68 18.69 30.00 16.15 C 23.32 18.73 16.76 21.68 9.98 23.99 C 7.86 24.23 7.15 20.87 9.20 20.25 Z" />
<path fill="#000000" opacity="1.00" d=" M 11.17 25.36 C 17.46 22.90 23.71 20.32 30.02 17.89 C 36.33 20.28 42.55 22.93 48.86 25.37 C 49.87 25.92 51.29 26.08 51.85 27.22 C 52.59 28.44 51.38 30.19 49.98 29.98 C 46.89 29.12 44.00 27.70 41.03 26.53 C 42.01 30.06 41.54 33.78 39.70 36.94 C 43.18 36.16 46.53 34.93 49.97 34.06 C 51.80 33.70 52.81 36.39 51.37 37.47 C 37.90 43.35 22.02 43.39 8.58 37.42 C 7.28 36.33 8.22 33.82 9.98 34.03 C 13.43 34.94 16.81 36.15 20.30 36.95 C 18.46 33.79 17.99 30.06 18.98 26.53 C 16.01 27.69 13.14 29.10 10.07 29.96 C 8.65 30.25 7.39 28.45 8.15 27.21 C 8.71 26.07 10.15 25.92 11.17 25.36 M 26.56 23.65 C 21.34 25.99 21.07 34.21 26.10 36.91 C 30.61 39.88 37.37 36.44 37.55 31.01 C 38.29 25.33 31.52 20.84 26.56 23.65 Z" />
<path fill="#000000" opacity="1.00" d=" M 29.87 24.69 C 30.57 25.95 31.08 27.31 31.56 28.67 C 33.03 28.74 34.51 28.81 35.98 28.88 C 34.83 29.80 33.68 30.72 32.54 31.64 C 32.91 33.06 33.28 34.48 33.63 35.91 C 32.42 35.10 31.22 34.30 30.02 33.49 C 28.79 34.28 27.56 35.10 26.27 35.80 C 26.68 34.42 27.09 33.04 27.50 31.66 C 26.33 30.73 25.17 29.81 24.01 28.88 C 25.50 28.81 26.99 28.74 28.48 28.68 C 28.93 27.35 29.39 26.01 29.87 24.69 Z" />
<path fill="#000000" opacity="1.00" d=" M 9.24 40.08 C 14.18 40.82 18.87 43.07 23.92 43.52 C 32.41 44.90 40.98 42.98 49.00 40.28 C 51.00 38.98 53.21 41.87 51.45 43.43 C 37.97 49.34 22.03 49.43 8.59 43.41 C 7.48 42.51 7.95 40.59 9.24 40.08 Z" />
<path fill="#000000" opacity="1.00" d=" M 9.21 46.09 C 10.58 45.92 11.86 46.59 13.14 46.93 C 20.71 49.47 28.86 50.79 36.80 49.41 C 41.30 48.82 45.57 47.23 49.93 46.06 C 51.77 45.57 52.84 48.38 51.41 49.46 C 37.94 55.33 22.06 55.41 8.61 49.43 C 7.49 48.55 7.93 46.61 9.21 46.09 Z" />
</g>
</svg>
