<?xml version="1.0" encoding="UTF-8" ?>
<!DOCTYPE svg PUBLIC "-//W3C//DTD SVG 1.1//EN" "http://www.w3.org/Graphics/SVG/1.1/DTD/svg11.dtd">
<svg width="60pt" height="60pt" viewBox="0 0 60 60" version="1.1" xmlns="http://www.w3.org/2000/svg">
<g id="#ffffffff">
<path fill="#ffffff" opacity="1.00" d=" M 0.00 0.00 L 60.00 0.00 L 60.00 60.00 L 0.00 60.00 L 0.00 0.00 M 24.45 6.65 C 17.58 8.26 11.54 13.08 8.46 19.44 C 5.19 25.99 5.20 34.06 8.48 40.61 C 11.79 47.39 18.47 52.40 25.92 53.63 C 32.99 54.89 40.59 52.76 45.92 47.94 C 51.00 43.47 54.03 36.76 53.98 29.99 C 54.03 22.77 50.57 15.62 44.88 11.18 C 39.24 6.64 31.48 4.97 24.45 6.65 Z" />
<path fill="#ffffff" opacity="1.00" d=" M 27.28 25.29 C 32.86 22.22 38.42 19.10 43.99 16.01 C 40.90 21.58 37.81 27.15 34.72 32.72 C 34.11 34.13 32.67 34.75 31.42 35.48 C 26.26 38.27 21.16 41.17 16.01 43.98 C 18.85 38.83 21.75 33.72 24.55 28.56 C 25.26 27.32 25.87 25.88 27.28 25.29 M 29.14 28.13 C 26.84 29.18 28.45 32.92 30.79 31.85 C 33.20 30.85 31.53 27.05 29.14 28.13 Z" />
</g>
<g id="#000000ff">
<path fill="#000000" opacity="1.00" d=" M 24.45 6.65 C 31.48 4.97 39.24 6.64 44.88 11.18 C 50.57 15.62 54.03 22.77 53.98 29.99 C 54.03 36.76 51.00 43.47 45.92 47.94 C 40.59 52.76 32.99 54.89 25.92 53.63 C 18.47 52.40 11.79 47.39 8.48 40.61 C 5.20 34.06 5.19 25.99 8.46 19.44 C 11.54 13.08 17.58 8.26 24.45 6.65 M 27.28 25.29 C 25.87 25.88 25.26 27.32 24.55 28.56 C 21.75 33.72 18.85 38.83 16.01 43.98 C 21.16 41.17 26.26 38.27 31.42 35.48 C 32.67 34.75 34.11 34.13 34.72 32.72 C 37.81 27.15 40.90 21.58 43.99 16.01 C 38.42 19.10 32.86 22.22 27.28 25.29 Z" />
<path fill="#000000" opacity="1.00" d=" M 29.14 28.13 C 31.53 27.05 33.20 30.85 30.79 31.85 C 28.45 32.92 26.84 29.18 29.14 28.13 Z" />
</g>
</svg>
