<?xml version="1.0" encoding="UTF-8" ?>
<!DOCTYPE svg PUBLIC "-//W3C//DTD SVG 1.1//EN" "http://www.w3.org/Graphics/SVG/1.1/DTD/svg11.dtd">
<svg width="60pt" height="60pt" viewBox="0 0 60 60" version="1.1" xmlns="http://www.w3.org/2000/svg">
<g id="#ffffffff">
<path fill="#ffffff" opacity="1.00" d=" M 0.00 0.00 L 60.00 0.00 L 60.00 60.00 L 0.00 60.00 L 0.00 0.00 M 24.42 6.66 C 17.57 8.28 11.55 13.07 8.47 19.40 C 4.97 26.39 5.23 35.10 9.15 41.86 C 12.77 48.30 19.52 52.86 26.85 53.77 C 33.66 54.70 40.85 52.54 45.94 47.91 C 51.28 43.23 54.31 36.06 53.96 28.97 C 53.72 22.32 50.52 15.87 45.41 11.62 C 39.73 6.75 31.68 4.90 24.42 6.66 Z" />
<path fill="#ffffff" opacity="1.00" d=" M 29.16 10.13 C 31.58 9.11 33.15 12.81 30.82 13.88 C 28.44 14.88 26.84 11.20 29.16 10.13 Z" />
<path fill="#ffffff" opacity="1.00" d=" M 24.00 30.05 C 23.82 26.35 27.89 22.90 31.47 24.43 C 37.55 26.31 43.66 28.12 49.75 30.00 C 43.41 31.94 37.07 33.87 30.73 35.77 C 27.35 36.67 23.93 33.42 24.00 30.05 M 29.13 28.11 C 26.87 29.27 28.43 32.88 30.85 31.89 C 33.14 30.73 31.55 27.12 29.13 28.11 Z" />
<path fill="#ffffff" opacity="1.00" d=" M 11.24 28.15 C 12.39 27.57 14.21 28.64 13.93 30.00 C 14.26 31.72 11.54 32.74 10.59 31.36 C 9.53 30.47 9.97 28.60 11.24 28.15 Z" />
<path fill="#ffffff" opacity="1.00" d=" M 29.21 46.17 C 31.52 45.05 33.15 48.81 30.86 49.89 C 28.47 50.94 26.78 47.13 29.21 46.17 Z" />
</g>
<g id="#000000ff">
<path fill="#000000" opacity="1.00" d=" M 24.42 6.66 C 31.68 4.90 39.73 6.75 45.41 11.62 C 50.52 15.87 53.72 22.32 53.96 28.97 C 54.31 36.06 51.28 43.23 45.94 47.91 C 40.85 52.54 33.66 54.70 26.85 53.77 C 19.52 52.86 12.77 48.30 9.15 41.86 C 5.23 35.10 4.97 26.39 8.47 19.40 C 11.55 13.07 17.57 8.28 24.42 6.66 M 29.16 10.13 C 26.84 11.20 28.44 14.88 30.82 13.88 C 33.15 12.81 31.58 9.11 29.16 10.13 M 24.00 30.05 C 23.93 33.42 27.35 36.67 30.73 35.77 C 37.07 33.87 43.41 31.94 49.75 30.00 C 43.66 28.12 37.55 26.31 31.47 24.43 C 27.89 22.90 23.82 26.35 24.00 30.05 M 11.24 28.15 C 9.97 28.60 9.53 30.47 10.59 31.36 C 11.54 32.74 14.26 31.72 13.93 30.00 C 14.21 28.64 12.39 27.57 11.24 28.15 M 29.21 46.17 C 26.78 47.13 28.47 50.94 30.86 49.89 C 33.15 48.81 31.52 45.05 29.21 46.17 Z" />
<path fill="#000000" opacity="1.00" d=" M 29.13 28.11 C 31.55 27.12 33.14 30.73 30.85 31.89 C 28.43 32.88 26.87 29.27 29.13 28.11 Z" />
</g>
</svg>
