<?xml version="1.0" encoding="UTF-8" ?>
<!DOCTYPE svg PUBLIC "-//W3C//DTD SVG 1.1//EN" "http://www.w3.org/Graphics/SVG/1.1/DTD/svg11.dtd">
<svg width="64pt" height="64pt" viewBox="0 0 64 64" version="1.1" xmlns="http://www.w3.org/2000/svg">
<g id="#ffffffff">
<path fill="#ffffff" opacity="1.00" d=" M 0.00 0.00 L 64.00 0.00 L 64.00 64.00 L 0.00 64.00 L 0.00 0.00 M 12.12 10.02 C 14.66 24.53 14.03 39.33 14.05 54.00 C 26.01 54.01 37.98 54.01 49.95 54.00 C 49.97 39.34 49.35 24.53 51.88 10.02 C 38.62 9.97 25.37 9.97 12.12 10.02 Z" />
<path fill="#ffffff" opacity="1.00" d=" M 18.01 13.99 C 27.34 14.01 36.67 14.03 46.01 13.99 C 46.02 26.00 46.01 38.00 45.99 50.01 C 36.66 49.99 27.33 49.97 17.99 50.01 C 17.98 38.00 17.99 25.99 18.01 13.99 M 22.00 17.99 C 22.00 19.33 22.00 20.66 22.01 22.00 C 24.67 22.00 27.34 22.00 30.00 22.01 C 30.00 20.67 30.00 19.33 29.99 18.00 C 27.33 18.00 24.66 18.00 22.00 17.99 M 34.00 17.99 C 34.00 19.33 34.00 20.66 34.01 22.00 C 36.67 22.00 39.34 22.00 42.00 22.01 C 42.00 20.67 42.00 19.33 41.99 18.00 C 39.33 18.00 36.66 18.00 34.00 17.99 M 22.00 25.99 C 22.00 27.33 22.00 28.66 22.01 30.00 C 24.67 30.00 27.34 30.00 30.00 30.01 C 30.00 28.67 30.00 27.33 29.99 26.00 C 27.33 26.00 24.66 26.00 22.00 25.99 M 34.00 25.99 C 34.00 27.33 34.00 28.66 34.01 30.00 C 36.67 30.00 39.34 30.00 42.00 30.01 C 42.00 28.67 42.00 27.33 41.99 26.00 C 39.33 26.00 36.66 26.00 34.00 25.99 M 22.00 33.99 C 22.00 35.33 22.00 36.66 22.01 38.00 C 24.67 38.00 27.34 38.00 30.00 38.01 C 30.00 36.67 30.00 35.33 29.99 34.00 C 27.33 34.00 24.66 33.99 22.00 33.99 M 34.00 33.99 C 34.00 35.33 34.00 36.66 34.01 38.00 C 36.67 38.00 39.34 38.00 42.00 38.01 C 42.00 36.67 42.00 35.33 41.99 34.00 C 39.33 34.00 36.66 33.99 34.00 33.99 M 22.00 41.99 C 22.00 43.33 22.00 44.66 22.01 46.00 C 24.67 46.00 27.34 46.00 30.00 46.01 C 30.00 44.67 30.00 43.33 29.99 42.00 C 27.33 42.00 24.66 41.99 22.00 41.99 M 34.00 41.99 C 34.00 43.33 34.00 44.66 34.01 46.00 C 36.67 46.00 39.34 46.00 42.00 46.01 C 42.00 44.67 42.00 43.33 41.99 42.00 C 39.33 42.00 36.66 41.99 34.00 41.99 Z" />
</g>
<g id="#000000ff">
<path fill="#000000" opacity="1.00" d=" M 12.12 10.02 C 25.37 9.97 38.62 9.97 51.88 10.02 C 49.35 24.53 49.97 39.34 49.95 54.00 C 37.98 54.01 26.01 54.01 14.05 54.00 C 14.03 39.33 14.66 24.53 12.12 10.02 M 18.01 13.99 C 17.99 25.99 17.98 38.00 17.99 50.01 C 27.33 49.97 36.66 49.99 45.99 50.01 C 46.01 38.00 46.02 26.00 46.01 13.99 C 36.67 14.03 27.34 14.01 18.01 13.99 Z" />
<path fill="#000000" opacity="1.00" d=" M 22.00 17.99 C 24.66 18.00 27.33 18.00 29.99 18.00 C 30.00 19.33 30.00 20.67 30.00 22.01 C 27.34 22.00 24.67 22.00 22.01 22.00 C 22.00 20.66 22.00 19.33 22.00 17.99 Z" />
<path fill="#000000" opacity="1.00" d=" M 34.00 17.99 C 36.66 18.00 39.33 18.00 41.99 18.00 C 42.00 19.33 42.00 20.67 42.00 22.01 C 39.34 22.00 36.67 22.00 34.01 22.00 C 34.00 20.66 34.00 19.33 34.00 17.99 Z" />
<path fill="#000000" opacity="1.00" d=" M 22.00 25.99 C 24.66 26.00 27.33 26.00 29.99 26.00 C 30.00 27.33 30.00 28.67 30.00 30.01 C 27.34 30.00 24.67 30.00 22.01 30.00 C 22.00 28.66 22.00 27.33 22.00 25.99 Z" />
<path fill="#000000" opacity="1.00" d=" M 34.00 25.99 C 36.66 26.00 39.33 26.00 41.99 26.00 C 42.00 27.33 42.00 28.67 42.00 30.01 C 39.34 30.00 36.67 30.00 34.01 30.00 C 34.00 28.66 34.00 27.33 34.00 25.99 Z" />
<path fill="#000000" opacity="1.00" d=" M 22.00 33.99 C 24.66 33.99 27.33 34.00 29.99 34.00 C 30.00 35.33 30.00 36.67 30.00 38.01 C 27.34 38.00 24.67 38.00 22.01 38.00 C 22.00 36.66 22.00 35.33 22.00 33.99 Z" />
<path fill="#000000" opacity="1.00" d=" M 34.00 33.99 C 36.66 33.99 39.33 34.00 41.99 34.00 C 42.00 35.33 42.00 36.67 42.00 38.01 C 39.34 38.00 36.67 38.00 34.01 38.00 C 34.00 36.66 34.00 35.33 34.00 33.99 Z" />
<path fill="#000000" opacity="1.00" d=" M 22.00 41.99 C 24.66 41.99 27.33 42.00 29.99 42.00 C 30.00 43.33 30.00 44.67 30.00 46.01 C 27.34 46.00 24.67 46.00 22.01 46.00 C 22.00 44.66 22.00 43.33 22.00 41.99 Z" />
<path fill="#000000" opacity="1.00" d=" M 34.00 41.99 C 36.66 41.99 39.33 42.00 41.99 42.00 C 42.00 43.33 42.00 44.67 42.00 46.01 C 39.34 46.00 36.67 46.00 34.01 46.00 C 34.00 44.66 34.00 43.33 34.00 41.99 Z" />
</g>
</svg>
