<?xml version="1.0" encoding="UTF-8" ?>
<!DOCTYPE svg PUBLIC "-//W3C//DTD SVG 1.1//EN" "http://www.w3.org/Graphics/SVG/1.1/DTD/svg11.dtd">
<svg width="60pt" height="60pt" viewBox="0 0 60 60" version="1.1" xmlns="http://www.w3.org/2000/svg">
<g id="#ffffffff">
<path fill="#ffffff" opacity="1.00" d=" M 0.00 0.00 L 60.00 0.00 L 60.00 60.00 L 0.00 60.00 L 0.00 0.00 M 21.38 10.86 C 17.30 8.54 12.14 11.31 11.81 15.97 C 24.62 16.02 37.42 16.02 50.22 15.97 C 49.69 13.33 47.42 11.55 44.68 11.99 C 42.38 9.94 39.13 9.44 36.41 11.02 C 35.02 9.96 33.71 8.61 31.92 8.27 C 28.11 7.12 24.94 10.14 21.38 10.86 M 7.16 20.16 C 4.76 22.48 5.25 29.32 10.00 28.11 C 10.00 29.37 10.00 30.63 10.00 31.89 C 9.29 31.96 7.86 32.12 7.14 32.19 C 5.24 33.43 6.13 36.16 6.06 38.05 C 5.99 40.19 8.56 39.97 10.00 40.11 C 10.00 41.37 10.00 42.63 10.00 43.89 C 8.55 44.03 5.98 43.80 6.05 45.95 C 6.09 47.89 5.09 51.73 7.98 51.93 C 22.68 52.04 37.39 52.06 52.08 51.92 C 54.92 51.66 53.90 47.84 53.93 45.91 C 53.99 43.80 51.42 44.04 50.00 43.89 C 50.00 42.63 50.00 41.37 50.00 40.11 C 55.73 41.68 55.73 30.31 50.00 31.89 C 50.00 30.63 50.00 29.37 50.00 28.12 C 50.72 28.04 52.15 27.87 52.87 27.79 C 54.75 26.54 53.88 23.83 53.94 21.94 C 54.00 19.85 51.53 19.95 50.08 19.98 C 35.78 20.13 21.45 19.77 7.16 20.16 Z" />
<path fill="#ffffff" opacity="1.00" d=" M 14.00 28.00 C 24.67 28.00 35.33 28.00 46.00 28.00 C 46.00 29.33 46.00 30.67 46.00 32.00 C 35.33 32.00 24.67 32.00 14.00 32.00 C 14.00 30.67 14.00 29.33 14.00 28.00 Z" />
<path fill="#ffffff" opacity="1.00" d=" M 14.00 40.00 C 24.67 40.00 35.33 40.00 46.00 40.00 C 46.00 41.33 46.00 42.67 46.00 44.00 C 35.33 44.00 24.67 44.00 14.00 44.00 C 14.00 42.67 14.00 41.33 14.00 40.00 Z" />
</g>
<g id="#000000ff">
<path fill="#000000" opacity="1.00" d=" M 21.38 10.86 C 24.94 10.14 28.11 7.12 31.92 8.27 C 33.71 8.61 35.02 9.96 36.41 11.02 C 39.13 9.44 42.38 9.94 44.68 11.99 C 47.42 11.55 49.69 13.33 50.22 15.97 C 37.42 16.02 24.62 16.02 11.81 15.97 C 12.14 11.31 17.30 8.54 21.38 10.86 Z" />
<path fill="#000000" opacity="1.00" d=" M 7.16 20.16 C 21.45 19.77 35.78 20.13 50.08 19.98 C 51.53 19.95 54.00 19.85 53.94 21.94 C 53.88 23.83 54.75 26.54 52.87 27.79 C 52.15 27.87 50.72 28.04 50.00 28.12 C 50.00 29.37 50.00 30.63 50.00 31.89 C 55.73 30.31 55.73 41.68 50.00 40.11 C 50.00 41.37 50.00 42.63 50.00 43.89 C 51.42 44.04 53.99 43.80 53.93 45.91 C 53.90 47.84 54.92 51.66 52.08 51.92 C 37.39 52.06 22.68 52.04 7.98 51.93 C 5.09 51.73 6.09 47.89 6.05 45.95 C 5.98 43.80 8.55 44.03 10.00 43.89 C 10.00 42.63 10.00 41.37 10.00 40.11 C 8.56 39.97 5.99 40.19 6.06 38.05 C 6.13 36.16 5.24 33.43 7.14 32.19 C 7.86 32.12 9.29 31.96 10.00 31.89 C 10.00 30.63 10.00 29.37 10.00 28.11 C 5.25 29.32 4.76 22.48 7.16 20.16 M 14.00 28.00 C 14.00 29.33 14.00 30.67 14.00 32.00 C 24.67 32.00 35.33 32.00 46.00 32.00 C 46.00 30.67 46.00 29.33 46.00 28.00 C 35.33 28.00 24.67 28.00 14.00 28.00 M 14.00 40.00 C 14.00 41.33 14.00 42.67 14.00 44.00 C 24.67 44.00 35.33 44.00 46.00 44.00 C 46.00 42.67 46.00 41.33 46.00 40.00 C 35.33 40.00 24.67 40.00 14.00 40.00 Z" />
</g>
</svg>
