<?xml version="1.0" encoding="UTF-8" ?>
<!DOCTYPE svg PUBLIC "-//W3C//DTD SVG 1.1//EN" "http://www.w3.org/Graphics/SVG/1.1/DTD/svg11.dtd">
<svg width="60pt" height="60pt" viewBox="0 0 60 60" version="1.1" xmlns="http://www.w3.org/2000/svg">
<g id="#ffffffff">
<path fill="#ffffff" opacity="1.00" d=" M 0.00 0.00 L 60.00 0.00 L 60.00 60.00 L 0.00 60.00 L 0.00 0.00 M 11.19 6.17 C 9.20 6.92 9.92 10.16 12.05 9.93 C 18.96 10.00 25.89 10.18 32.79 9.83 C 34.81 9.09 34.09 5.84 31.94 6.07 C 25.03 6.01 18.09 5.82 11.19 6.17 M 5.19 14.18 C 2.55 15.40 5.37 17.55 5.96 19.15 C 6.07 30.09 5.95 41.04 6.00 51.99 C 10.00 52.01 14.00 52.01 17.99 51.99 C 18.00 49.33 18.00 46.66 18.01 44.00 C 20.67 44.00 23.33 44.00 25.99 44.00 C 26.00 46.67 26.00 49.33 26.01 51.99 C 30.00 52.01 34.00 52.01 37.99 51.99 C 38.05 41.04 37.93 30.10 38.03 19.15 C 38.65 17.54 41.44 15.46 38.81 14.17 C 27.62 13.88 16.38 13.87 5.19 14.18 M 42.00 20.01 C 42.00 30.67 42.00 41.33 42.01 51.99 C 46.00 52.01 50.00 52.01 53.99 51.99 C 54.00 41.33 54.00 30.67 53.99 20.01 C 50.00 19.99 46.00 19.99 42.00 20.01 Z" />
<path fill="#ffffff" opacity="1.00" d=" M 10.00 20.00 C 11.33 20.00 12.67 20.00 14.00 20.00 C 14.00 21.33 14.00 22.67 14.00 24.00 C 12.67 24.00 11.33 24.00 10.00 24.00 C 10.00 22.67 10.00 21.33 10.00 20.00 Z" />
<path fill="#ffffff" opacity="1.00" d=" M 18.00 20.02 C 20.67 19.99 23.33 19.99 26.00 20.02 C 26.00 21.34 26.00 22.66 26.00 23.98 C 23.33 24.01 20.67 24.01 18.00 23.98 C 18.00 22.66 18.00 21.34 18.00 20.02 Z" />
<path fill="#ffffff" opacity="1.00" d=" M 30.00 20.00 C 31.33 20.00 32.67 20.00 34.00 20.00 C 34.00 21.33 34.00 22.67 34.00 24.00 C 32.67 24.00 31.33 24.00 30.00 24.00 C 30.00 22.67 30.00 21.33 30.00 20.00 Z" />
<path fill="#ffffff" opacity="1.00" d=" M 46.00 26.00 C 47.33 26.00 48.67 26.00 50.00 26.00 C 50.00 27.33 50.00 28.66 50.00 30.00 C 48.67 30.00 47.33 30.00 46.00 30.00 C 46.00 28.67 46.00 27.33 46.00 26.00 Z" />
<path fill="#ffffff" opacity="1.00" d=" M 10.00 28.00 C 11.33 28.00 12.67 28.00 14.00 28.00 C 14.00 29.33 14.00 30.67 14.00 32.00 C 12.67 32.00 11.33 32.00 10.00 32.00 C 10.00 30.67 10.00 29.33 10.00 28.00 Z" />
<path fill="#ffffff" opacity="1.00" d=" M 18.00 28.02 C 20.67 27.99 23.33 27.99 26.00 28.02 C 26.00 29.34 26.00 30.66 26.00 31.98 C 23.33 32.01 20.67 32.01 18.00 31.98 C 18.00 30.66 18.00 29.34 18.00 28.02 Z" />
<path fill="#ffffff" opacity="1.00" d=" M 30.00 28.00 C 31.33 28.00 32.66 28.00 34.00 28.00 C 34.00 29.33 34.00 30.66 34.00 32.00 C 32.67 32.00 31.33 32.00 30.00 32.00 C 30.00 30.67 30.00 29.33 30.00 28.00 Z" />
<path fill="#ffffff" opacity="1.00" d=" M 46.00 34.00 C 47.33 34.00 48.67 34.00 50.00 34.00 C 50.00 35.33 50.00 36.67 50.00 38.00 C 48.66 38.00 47.33 38.00 46.00 38.00 C 46.00 36.66 46.00 35.33 46.00 34.00 Z" />
<path fill="#ffffff" opacity="1.00" d=" M 10.00 36.00 C 11.33 36.00 12.67 36.00 14.00 36.00 C 14.00 37.33 14.00 38.66 14.00 40.00 C 12.67 40.00 11.33 40.00 10.00 40.00 C 10.00 38.67 10.00 37.33 10.00 36.00 Z" />
<path fill="#ffffff" opacity="1.00" d=" M 18.00 36.02 C 20.67 35.99 23.33 35.99 26.00 36.02 C 26.00 37.34 26.00 38.66 26.00 39.98 C 23.33 40.01 20.67 40.01 18.00 39.98 C 18.00 38.66 18.00 37.34 18.00 36.02 Z" />
<path fill="#ffffff" opacity="1.00" d=" M 30.00 36.00 C 31.33 36.00 32.67 36.00 34.00 36.00 C 34.00 37.33 34.00 38.67 34.00 40.00 C 32.66 40.00 31.33 40.00 30.00 40.00 C 30.00 38.66 30.00 37.33 30.00 36.00 Z" />
<path fill="#ffffff" opacity="1.00" d=" M 46.00 42.00 C 47.33 42.00 48.67 42.00 50.00 42.00 C 50.00 43.33 50.00 44.67 50.00 46.00 C 48.66 46.00 47.33 46.00 46.00 46.00 C 46.00 44.66 46.00 43.33 46.00 42.00 Z" />
<path fill="#ffffff" opacity="1.00" d=" M 10.00 44.00 C 11.33 44.00 12.67 44.00 14.00 44.00 C 14.00 45.33 14.00 46.67 14.00 48.00 C 12.67 48.00 11.33 48.00 10.00 48.00 C 10.00 46.67 10.00 45.33 10.00 44.00 Z" />
<path fill="#ffffff" opacity="1.00" d=" M 30.00 44.00 C 31.33 44.00 32.67 44.00 34.00 44.00 C 34.00 45.33 34.00 46.67 34.00 48.00 C 32.67 48.00 31.33 48.00 30.00 48.00 C 30.00 46.67 30.00 45.33 30.00 44.00 Z" />
</g>
<g id="#000000ff">
<path fill="#000000" opacity="1.00" d=" M 11.19 6.17 C 18.09 5.82 25.03 6.01 31.94 6.07 C 34.09 5.84 34.81 9.09 32.79 9.83 C 25.89 10.18 18.96 10.00 12.05 9.93 C 9.92 10.16 9.20 6.92 11.19 6.17 Z" />
<path fill="#000000" opacity="1.00" d=" M 5.19 14.18 C 16.38 13.87 27.62 13.88 38.81 14.17 C 41.44 15.46 38.65 17.54 38.03 19.15 C 37.93 30.10 38.05 41.04 37.99 51.99 C 34.00 52.01 30.00 52.01 26.01 51.99 C 26.00 49.33 26.00 46.67 25.99 44.00 C 23.33 44.00 20.67 44.00 18.01 44.00 C 18.00 46.66 18.00 49.33 17.99 51.99 C 14.00 52.01 10.00 52.01 6.00 51.99 C 5.95 41.04 6.07 30.09 5.96 19.15 C 5.37 17.55 2.55 15.40 5.19 14.18 M 10.00 20.00 C 10.00 21.33 10.00 22.67 10.00 24.00 C 11.33 24.00 12.67 24.00 14.00 24.00 C 14.00 22.67 14.00 21.33 14.00 20.00 C 12.67 20.00 11.33 20.00 10.00 20.00 M 18.00 20.02 C 18.00 21.34 18.00 22.66 18.00 23.98 C 20.67 24.01 23.33 24.01 26.00 23.98 C 26.00 22.66 26.00 21.34 26.00 20.02 C 23.33 19.99 20.67 19.99 18.00 20.02 M 30.00 20.00 C 30.00 21.33 30.00 22.67 30.00 24.00 C 31.33 24.00 32.67 24.00 34.00 24.00 C 34.00 22.67 34.00 21.33 34.00 20.00 C 32.67 20.00 31.33 20.00 30.00 20.00 M 10.00 28.00 C 10.00 29.33 10.00 30.67 10.00 32.00 C 11.33 32.00 12.67 32.00 14.00 32.00 C 14.00 30.67 14.00 29.33 14.00 28.00 C 12.67 28.00 11.33 28.00 10.00 28.00 M 18.00 28.02 C 18.00 29.34 18.00 30.66 18.00 31.98 C 20.67 32.01 23.33 32.01 26.00 31.98 C 26.00 30.66 26.00 29.34 26.00 28.02 C 23.33 27.99 20.67 27.99 18.00 28.02 M 30.00 28.00 C 30.00 29.33 30.00 30.67 30.00 32.00 C 31.33 32.00 32.67 32.00 34.00 32.00 C 34.00 30.66 34.00 29.33 34.00 28.00 C 32.66 28.00 31.33 28.00 30.00 28.00 M 10.00 36.00 C 10.00 37.33 10.00 38.67 10.00 40.00 C 11.33 40.00 12.67 40.00 14.00 40.00 C 14.00 38.66 14.00 37.33 14.00 36.00 C 12.67 36.00 11.33 36.00 10.00 36.00 M 18.00 36.02 C 18.00 37.34 18.00 38.66 18.00 39.98 C 20.67 40.01 23.33 40.01 26.00 39.98 C 26.00 38.66 26.00 37.34 26.00 36.02 C 23.33 35.99 20.67 35.99 18.00 36.02 M 30.00 36.00 C 30.00 37.33 30.00 38.66 30.00 40.00 C 31.33 40.00 32.66 40.00 34.00 40.00 C 34.00 38.67 34.00 37.33 34.00 36.00 C 32.67 36.00 31.33 36.00 30.00 36.00 M 10.00 44.00 C 10.00 45.33 10.00 46.67 10.00 48.00 C 11.33 48.00 12.67 48.00 14.00 48.00 C 14.00 46.67 14.00 45.33 14.00 44.00 C 12.67 44.00 11.33 44.00 10.00 44.00 M 30.00 44.00 C 30.00 45.33 30.00 46.67 30.00 48.00 C 31.33 48.00 32.67 48.00 34.00 48.00 C 34.00 46.67 34.00 45.33 34.00 44.00 C 32.67 44.00 31.33 44.00 30.00 44.00 Z" />
<path fill="#000000" opacity="1.00" d=" M 42.00 20.01 C 46.00 19.99 50.00 19.99 53.99 20.01 C 54.00 30.67 54.00 41.33 53.99 51.99 C 50.00 52.01 46.00 52.01 42.01 51.99 C 42.00 41.33 42.00 30.67 42.00 20.01 M 46.00 26.00 C 46.00 27.33 46.00 28.67 46.00 30.00 C 47.33 30.00 48.67 30.00 50.00 30.00 C 50.00 28.66 50.00 27.33 50.00 26.00 C 48.67 26.00 47.33 26.00 46.00 26.00 M 46.00 34.00 C 46.00 35.33 46.00 36.66 46.00 38.00 C 47.33 38.00 48.66 38.00 50.00 38.00 C 50.00 36.67 50.00 35.33 50.00 34.00 C 48.67 34.00 47.33 34.00 46.00 34.00 M 46.00 42.00 C 46.00 43.33 46.00 44.66 46.00 46.00 C 47.33 46.00 48.66 46.00 50.00 46.00 C 50.00 44.67 50.00 43.33 50.00 42.00 C 48.67 42.00 47.33 42.00 46.00 42.00 Z" />
</g>
</svg>
