<?xml version="1.0" encoding="UTF-8" ?>
<!DOCTYPE svg PUBLIC "-//W3C//DTD SVG 1.1//EN" "http://www.w3.org/Graphics/SVG/1.1/DTD/svg11.dtd">
<svg width="60pt" height="60pt" viewBox="0 0 60 60" version="1.1" xmlns="http://www.w3.org/2000/svg">
<g id="#ffffffff">
<path fill="#ffffff" opacity="1.00" d=" M 0.00 0.00 L 60.00 0.00 L 60.00 60.00 L 0.00 60.00 L 0.00 0.00 M 24.47 6.65 C 16.61 8.46 9.90 14.52 7.32 22.16 C 4.65 29.72 6.13 38.58 11.15 44.83 C 16.44 51.67 25.61 55.21 34.12 53.63 C 43.13 52.18 50.85 45.09 53.15 36.27 C 55.57 27.70 52.66 17.94 45.96 12.09 C 40.25 6.90 31.96 4.84 24.47 6.65 Z" />
<path fill="#ffffff" opacity="1.00" d=" M 24.41 28.60 C 26.30 22.54 28.03 16.43 30.00 10.40 C 32.00 16.66 33.87 22.96 35.77 29.25 C 36.79 33.05 32.66 36.74 28.96 35.90 C 25.74 35.42 23.07 31.77 24.41 28.60 M 29.20 28.10 C 26.86 29.14 28.36 32.85 30.79 31.89 C 33.13 30.85 31.63 27.16 29.20 28.10 Z" />
<path fill="#ffffff" opacity="1.00" d=" M 11.17 28.11 C 13.55 27.10 15.21 30.87 12.79 31.82 C 10.46 32.98 8.83 29.14 11.17 28.11 Z" />
<path fill="#ffffff" opacity="1.00" d=" M 47.22 28.16 C 48.36 27.55 50.22 28.63 49.92 29.99 C 50.28 31.71 47.56 32.73 46.61 31.38 C 45.56 30.54 45.94 28.59 47.22 28.16 Z" />
<path fill="#ffffff" opacity="1.00" d=" M 29.18 46.15 C 31.53 45.03 33.22 48.91 30.79 49.82 C 28.47 50.99 26.79 47.09 29.18 46.15 Z" />
</g>
<g id="#000000ff">
<path fill="#968176" opacity="1.00" d=" M 24.47 6.65 C 31.96 4.84 40.25 6.90 45.96 12.09 C 52.66 17.94 55.57 27.70 53.15 36.27 C 50.85 45.09 43.13 52.18 34.12 53.63 C 25.61 55.21 16.44 51.67 11.15 44.83 C 6.13 38.58 4.65 29.72 7.32 22.16 C 9.90 14.52 16.61 8.46 24.47 6.65 M 24.41 28.60 C 23.07 31.77 25.74 35.42 28.96 35.90 C 32.66 36.74 36.79 33.05 35.77 29.25 C 33.87 22.96 32.00 16.66 30.00 10.40 C 28.03 16.43 26.30 22.54 24.41 28.60 M 11.17 28.11 C 8.83 29.14 10.46 32.98 12.79 31.82 C 15.21 30.87 13.55 27.10 11.17 28.11 M 47.22 28.16 C 45.94 28.59 45.56 30.54 46.61 31.38 C 47.56 32.73 50.28 31.71 49.92 29.99 C 50.22 28.63 48.36 27.55 47.22 28.16 M 29.18 46.15 C 26.79 47.09 28.47 50.99 30.79 49.82 C 33.22 48.91 31.53 45.03 29.18 46.15 Z" />
<path fill="#968176" opacity="1.00" d=" M 29.20 28.10 C 31.63 27.16 33.13 30.85 30.79 31.89 C 28.36 32.85 26.86 29.14 29.20 28.10 Z" />
</g>
</svg>
