<?xml version="1.0" encoding="UTF-8" ?>
<!DOCTYPE svg PUBLIC "-//W3C//DTD SVG 1.1//EN" "http://www.w3.org/Graphics/SVG/1.1/DTD/svg11.dtd">
<svg width="64pt" height="64pt" viewBox="0 0 64 64" version="1.1" xmlns="http://www.w3.org/2000/svg">
<g id="#ffffffff">
<path fill="#ffffff" opacity="1.00" d=" M 0.00 0.00 L 64.00 0.00 L 64.00 16.49 C 62.34 16.53 60.68 16.56 59.02 16.60 C 61.08 17.75 61.08 19.95 61.24 22.01 C 61.50 22.00 62.03 22.00 62.29 22.00 C 62.46 20.18 62.84 18.38 64.00 16.88 L 64.00 64.00 L 0.00 64.00 L 0.00 46.47 C 5.54 47.04 11.13 46.82 16.69 46.69 C 16.82 36.66 16.72 26.63 16.75 16.60 C 14.78 16.57 12.82 16.58 10.85 16.62 C 10.82 19.30 10.80 21.99 10.80 24.68 C 7.20 24.72 3.50 24.26 0.00 25.35 L 0.00 0.00 M 22.05 21.98 C 23.79 22.49 25.02 21.12 25.50 19.60 C 24.27 19.94 23.08 20.37 21.91 20.89 C 21.93 20.09 21.96 18.47 21.97 17.67 C 22.93 18.08 23.89 18.49 24.86 18.89 C 24.86 17.56 24.34 16.42 22.83 16.56 C 19.53 15.65 19.03 21.83 22.05 21.98 M 33.28 16.52 C 33.25 18.29 33.23 20.06 33.18 21.82 C 34.51 21.81 35.84 21.78 37.17 21.74 C 37.67 20.56 38.03 19.32 38.43 18.11 C 38.41 19.08 38.38 21.03 38.37 22.00 L 39.88 22.00 C 39.87 20.17 39.87 18.34 39.87 16.52 C 39.32 16.52 38.24 16.54 37.69 16.54 C 37.38 17.53 36.75 19.50 36.44 20.49 C 36.10 19.17 35.76 17.86 35.43 16.54 C 34.89 16.53 33.82 16.52 33.28 16.52 M 26.39 18.14 C 25.89 19.98 26.56 22.47 28.95 22.03 C 32.14 22.39 31.44 18.68 31.35 16.69 C 29.76 16.97 26.62 15.66 26.39 18.14 M 41.87 16.44 C 41.87 18.43 41.87 20.42 41.94 22.41 C 44.23 21.84 43.44 19.41 43.37 17.78 C 43.84 17.81 44.78 17.88 45.25 17.91 C 44.85 18.65 44.05 20.14 43.65 20.89 C 45.76 20.44 46.64 19.08 46.28 16.83 C 44.81 16.68 43.34 16.55 41.87 16.44 M 46.91 22.16 C 47.97 21.76 49.03 21.35 50.09 20.93 C 50.87 21.42 51.66 21.89 52.47 22.35 C 52.01 20.39 51.53 18.43 50.84 16.53 C 47.35 15.47 47.96 20.08 46.91 22.16 M 53.63 16.70 C 53.46 18.73 52.76 22.63 56.11 22.00 C 57.87 22.48 58.13 20.44 58.41 19.28 C 57.45 19.87 56.49 20.48 55.55 21.09 C 55.51 19.94 55.48 18.78 55.46 17.63 C 56.22 17.94 57.72 18.56 58.47 18.86 C 58.79 15.67 55.37 16.89 53.63 16.70 M 20.94 24.74 C 20.94 31.97 20.93 39.19 20.95 46.42 C 22.89 46.51 24.84 46.51 26.79 46.40 C 26.80 39.18 26.88 31.97 26.74 24.75 C 24.80 24.69 22.87 24.70 20.94 24.74 M 30.28 24.83 C 30.23 29.30 30.25 33.77 30.26 38.24 C 33.61 38.69 37.00 38.53 40.38 38.52 C 40.38 39.38 40.38 41.08 40.38 41.94 C 36.99 41.92 33.60 41.86 30.23 42.14 C 30.49 43.51 29.76 45.30 30.81 46.39 C 35.62 46.61 40.49 46.74 45.28 46.31 C 45.89 41.86 45.56 37.30 45.35 32.82 C 42.04 32.79 38.74 32.80 35.43 32.80 C 35.44 31.66 35.44 30.53 35.44 29.39 C 38.56 29.42 41.68 29.48 44.78 29.17 C 44.79 27.72 44.78 26.27 44.77 24.82 C 39.95 24.58 35.11 24.56 30.28 24.83 M 48.65 24.95 C 48.39 32.21 48.41 39.49 48.65 46.75 C 53.52 46.84 58.38 46.79 63.25 46.80 C 63.37 43.78 63.39 40.75 63.28 37.73 C 61.80 37.73 60.32 37.73 58.84 37.73 C 58.84 39.40 58.76 41.07 58.71 42.74 C 57.02 42.83 55.34 42.87 53.65 42.89 C 53.31 38.12 53.31 33.32 53.66 28.55 C 55.37 28.59 57.09 28.65 58.80 28.74 C 58.81 30.61 58.81 32.47 58.81 34.33 C 60.29 34.33 61.77 34.33 63.25 34.34 C 63.39 31.20 63.36 28.07 63.15 24.94 C 58.31 24.93 53.48 24.92 48.65 24.95 Z" />
<path fill="#ffffff" opacity="1.00" d=" M 28.36 17.90 C 30.05 16.81 30.87 19.84 29.66 20.73 C 28.03 21.75 27.16 18.77 28.36 17.90 Z" />
<path fill="#ffffff" opacity="1.00" d=" M 6.22 29.25 C 7.93 29.17 9.64 29.12 11.36 29.11 C 11.72 33.64 11.55 38.19 11.52 42.72 C 9.76 42.82 8.01 42.83 6.25 42.83 C 6.04 38.30 6.08 33.77 6.22 29.25 Z" />
</g>
<g id="#000000ff">
<path fill="#000000" opacity="1.00" d=" M 22.05 21.98 C 19.03 21.83 19.53 15.65 22.83 16.56 C 24.34 16.42 24.86 17.56 24.86 18.89 C 23.89 18.49 22.93 18.08 21.97 17.67 C 21.96 18.47 21.93 20.09 21.91 20.89 C 23.08 20.37 24.27 19.94 25.50 19.60 C 25.02 21.12 23.79 22.49 22.05 21.98 Z" />
<path fill="#000000" opacity="1.00" d=" M 33.28 16.52 C 33.82 16.52 34.89 16.53 35.43 16.54 C 35.76 17.86 36.10 19.17 36.44 20.49 C 36.75 19.50 37.38 17.53 37.69 16.54 C 38.24 16.54 39.32 16.52 39.87 16.52 C 39.87 18.34 39.87 20.17 39.88 22.00 L 38.37 22.00 C 38.38 21.03 38.41 19.08 38.43 18.11 C 38.03 19.32 37.67 20.56 37.17 21.74 C 35.84 21.78 34.51 21.81 33.18 21.82 C 33.23 20.06 33.25 18.29 33.28 16.52 Z" />
<path fill="#000000" opacity="1.00" d=" M 10.85 16.62 C 12.82 16.58 14.78 16.57 16.75 16.60 C 16.72 26.63 16.82 36.66 16.69 46.69 C 11.13 46.82 5.54 47.04 0.00 46.47 L 0.00 25.35 C 3.50 24.26 7.20 24.72 10.80 24.68 C 10.80 21.99 10.82 19.30 10.85 16.62 M 6.22 29.25 C 6.08 33.77 6.04 38.30 6.25 42.83 C 8.01 42.83 9.76 42.82 11.52 42.72 C 11.55 38.19 11.72 33.64 11.36 29.11 C 9.64 29.12 7.93 29.17 6.22 29.25 Z" />
<path fill="#000000" opacity="1.00" d=" M 26.39 18.14 C 26.62 15.66 29.76 16.97 31.35 16.69 C 31.44 18.68 32.14 22.39 28.95 22.03 C 26.56 22.47 25.89 19.98 26.39 18.14 M 28.36 17.90 C 27.16 18.77 28.03 21.75 29.66 20.73 C 30.87 19.84 30.05 16.81 28.36 17.90 Z" />
<path fill="#000000" opacity="1.00" d=" M 41.87 16.44 C 43.34 16.55 44.81 16.68 46.28 16.83 C 46.64 19.08 45.76 20.44 43.65 20.89 C 44.05 20.14 44.85 18.65 45.25 17.91 C 44.78 17.88 43.84 17.81 43.37 17.78 C 43.44 19.41 44.23 21.84 41.94 22.41 C 41.87 20.42 41.87 18.43 41.87 16.44 Z" />
<path fill="#000000" opacity="1.00" d=" M 46.91 22.16 C 47.96 20.08 47.35 15.47 50.84 16.53 C 51.53 18.43 52.01 20.39 52.47 22.35 C 51.66 21.89 50.87 21.42 50.09 20.93 C 49.03 21.35 47.97 21.76 46.91 22.16 Z" />
<path fill="#000000" opacity="1.00" d=" M 53.63 16.70 C 55.37 16.89 58.79 15.67 58.47 18.86 C 57.72 18.56 56.22 17.94 55.46 17.63 C 55.48 18.78 55.51 19.94 55.55 21.09 C 56.49 20.48 57.45 19.87 58.41 19.28 C 58.13 20.44 57.87 22.48 56.11 22.00 C 52.76 22.63 53.46 18.73 53.63 16.70 Z" />
<path fill="#000000" opacity="1.00" d=" M 59.02 16.60 C 60.68 16.56 62.34 16.53 64.00 16.49 L 64.00 16.88 C 62.84 18.38 62.46 20.18 62.29 22.00 C 62.03 22.00 61.50 22.00 61.24 22.01 C 61.08 19.95 61.08 17.75 59.02 16.60 Z" />
<path fill="#000000" opacity="1.00" d=" M 20.94 24.74 C 22.87 24.70 24.80 24.69 26.74 24.75 C 26.88 31.97 26.80 39.18 26.79 46.40 C 24.84 46.51 22.89 46.51 20.95 46.42 C 20.93 39.19 20.94 31.97 20.94 24.74 Z" />
<path fill="#000000" opacity="1.00" d=" M 30.28 24.83 C 35.11 24.56 39.95 24.58 44.77 24.82 C 44.78 26.27 44.79 27.72 44.78 29.17 C 41.68 29.48 38.56 29.42 35.44 29.39 C 35.44 30.53 35.44 31.66 35.43 32.80 C 38.74 32.80 42.04 32.79 45.35 32.82 C 45.56 37.30 45.89 41.86 45.28 46.31 C 40.49 46.74 35.62 46.61 30.81 46.39 C 29.76 45.30 30.49 43.51 30.23 42.14 C 33.60 41.86 36.99 41.92 40.38 41.94 C 40.38 41.08 40.38 39.38 40.38 38.52 C 37.00 38.53 33.61 38.69 30.26 38.24 C 30.25 33.77 30.23 29.30 30.28 24.83 Z" />
<path fill="#000000" opacity="1.00" d=" M 48.65 24.95 C 53.48 24.92 58.31 24.93 63.15 24.94 C 63.36 28.07 63.39 31.20 63.25 34.34 C 61.77 34.33 60.29 34.33 58.81 34.33 C 58.81 32.47 58.81 30.61 58.80 28.74 C 57.09 28.65 55.37 28.59 53.66 28.55 C 53.31 33.32 53.31 38.12 53.65 42.89 C 55.34 42.87 57.02 42.83 58.71 42.74 C 58.76 41.07 58.84 39.40 58.84 37.73 C 60.32 37.73 61.80 37.73 63.28 37.73 C 63.39 40.75 63.37 43.78 63.25 46.80 C 58.38 46.79 53.52 46.84 48.65 46.75 C 48.41 39.49 48.39 32.21 48.65 24.95 Z" />
</g>
</svg>
