<?xml version="1.0" encoding="UTF-8" ?>
<!DOCTYPE svg PUBLIC "-//W3C//DTD SVG 1.1//EN" "http://www.w3.org/Graphics/SVG/1.1/DTD/svg11.dtd">
<svg width="60pt" height="60pt" viewBox="0 0 60 60" version="1.1" xmlns="http://www.w3.org/2000/svg">
<g id="#ffffffff">
<path fill="#ffffff" opacity="1.00" d=" M 0.00 0.00 L 60.00 0.00 L 60.00 60.00 L 0.00 60.00 L 0.00 0.00 M 8.10 9.16 C 7.68 10.48 8.52 12.09 10.05 11.92 C 16.70 12.14 23.35 11.93 30.00 12.00 C 30.00 15.91 30.01 19.82 29.99 23.73 C 25.91 24.40 25.62 28.68 25.97 32.00 C 21.30 32.01 16.64 31.99 11.98 31.98 C 10.70 32.16 8.73 31.64 8.17 33.24 C 7.52 34.38 8.62 36.11 9.95 35.90 C 15.30 36.17 20.65 35.91 26.00 36.00 C 26.06 40.03 25.88 44.05 26.05 48.08 C 26.01 50.10 27.85 51.96 29.87 51.95 C 35.56 52.12 41.26 51.91 46.95 52.03 C 48.61 51.84 50.74 52.48 51.89 50.90 C 52.31 49.57 51.56 47.97 50.02 48.08 C 43.35 47.86 36.67 48.08 30.00 48.00 C 30.00 41.33 30.00 34.67 30.00 28.00 C 36.01 28.00 42.03 28.00 48.04 28.02 C 49.39 27.90 51.10 28.25 51.90 26.83 C 52.29 25.55 51.53 23.94 50.02 24.09 C 44.69 23.84 39.34 24.08 34.00 24.00 C 33.94 19.96 34.12 15.92 33.94 11.89 C 33.97 9.88 32.13 8.03 30.12 8.05 C 24.09 7.90 18.06 8.06 12.03 7.98 C 10.66 8.10 8.91 7.73 8.10 9.16 M 18.01 15.97 C 18.00 17.32 18.00 18.66 18.00 20.01 C 15.04 20.04 12.06 19.79 9.12 20.20 C 7.64 20.87 7.65 23.12 9.11 23.80 C 12.05 24.20 15.04 23.97 18.00 23.99 C 18.00 24.99 18.00 26.99 18.00 27.99 C 20.02 26.00 22.00 23.99 24.01 21.99 C 22.01 19.98 20.00 17.98 18.01 15.97 M 36.01 37.99 C 38.03 39.97 40.00 42.00 42.01 43.99 C 42.01 42.99 42.00 40.99 42.00 39.99 C 44.94 39.97 47.91 40.19 50.84 39.81 C 52.39 39.16 52.37 36.78 50.80 36.17 C 47.88 35.83 44.93 36.02 42.00 36.01 C 42.00 35.01 42.00 33.01 42.00 32.00 C 40.00 34.00 38.01 36.00 36.01 37.99 Z" />
</g>
<g id="#000000ff">
<path fill="#000000" opacity="1.00" d=" M 8.10 9.16 C 8.91 7.73 10.66 8.10 12.03 7.98 C 18.06 8.06 24.09 7.90 30.12 8.05 C 32.13 8.03 33.97 9.88 33.94 11.89 C 34.12 15.92 33.94 19.96 34.00 24.00 C 39.34 24.08 44.69 23.84 50.02 24.09 C 51.53 23.94 52.29 25.55 51.90 26.83 C 51.10 28.25 49.39 27.90 48.04 28.02 C 42.03 28.00 36.01 28.00 30.00 28.00 C 30.00 34.67 30.00 41.33 30.00 48.00 C 36.67 48.08 43.35 47.86 50.02 48.08 C 51.56 47.97 52.31 49.57 51.89 50.90 C 50.74 52.48 48.61 51.84 46.95 52.03 C 41.26 51.91 35.56 52.12 29.87 51.95 C 27.85 51.96 26.01 50.10 26.05 48.08 C 25.88 44.05 26.06 40.03 26.00 36.00 C 20.65 35.91 15.30 36.17 9.95 35.90 C 8.62 36.11 7.52 34.38 8.17 33.24 C 8.73 31.64 10.70 32.16 11.98 31.98 C 16.64 31.99 21.30 32.01 25.97 32.00 C 25.62 28.68 25.91 24.40 29.99 23.73 C 30.01 19.82 30.00 15.91 30.00 12.00 C 23.35 11.93 16.70 12.14 10.05 11.92 C 8.52 12.09 7.68 10.48 8.10 9.16 Z" />
<path fill="#000000" opacity="1.00" d=" M 18.01 15.97 C 20.00 17.98 22.01 19.98 24.01 21.99 C 22.00 23.99 20.02 26.00 18.00 27.99 C 18.00 26.99 18.00 24.99 18.00 23.99 C 15.04 23.97 12.05 24.20 9.11 23.80 C 7.65 23.12 7.64 20.87 9.12 20.20 C 12.06 19.79 15.04 20.04 18.00 20.01 C 18.00 18.66 18.00 17.32 18.01 15.97 Z" />
<path fill="#000000" opacity="1.00" d=" M 36.01 37.99 C 38.01 36.00 40.00 34.00 42.00 32.00 C 42.00 33.01 42.00 35.01 42.00 36.01 C 44.93 36.02 47.88 35.83 50.80 36.17 C 52.37 36.78 52.39 39.16 50.84 39.81 C 47.91 40.19 44.94 39.97 42.00 39.99 C 42.00 40.99 42.01 42.99 42.01 43.99 C 40.00 42.00 38.03 39.97 36.01 37.99 Z" />
</g>
</svg>
