<?xml version="1.0" encoding="UTF-8" ?>
<!DOCTYPE svg PUBLIC "-//W3C//DTD SVG 1.1//EN" "http://www.w3.org/Graphics/SVG/1.1/DTD/svg11.dtd">
<svg width="60pt" height="60pt" viewBox="0 0 60 60" version="1.1" xmlns="http://www.w3.org/2000/svg">
<g id="#ffffffff">
<path fill="#ffffff" opacity="1.00" d=" M 0.00 0.00 L 60.00 0.00 L 60.00 60.00 L 0.00 60.00 L 0.00 0.00 M 24.48 6.65 C 17.61 8.25 11.57 13.04 8.48 19.39 C 5.09 26.16 5.21 34.54 8.79 41.21 C 12.32 47.96 19.24 52.82 26.81 53.77 C 33.66 54.72 40.89 52.53 46.00 47.86 C 51.29 43.17 54.31 36.05 53.96 28.98 C 53.72 22.35 50.54 15.90 45.45 11.65 C 39.78 6.77 31.74 4.91 24.48 6.65 Z" />
<path fill="#ffffff" opacity="1.00" d=" M 29.22 10.09 C 31.64 9.17 33.10 12.84 30.81 13.89 C 28.38 14.86 26.83 11.12 29.22 10.09 Z" />
<path fill="#ffffff" opacity="1.00" d=" M 24.42 31.41 C 22.93 27.86 26.34 23.88 29.99 24.00 C 33.67 23.87 37.08 27.88 35.58 31.45 C 33.73 37.38 32.00 43.34 30.12 49.26 C 27.73 43.50 26.41 37.33 24.42 31.41 M 29.22 28.17 C 26.80 29.02 28.42 32.93 30.75 31.86 C 33.22 31.00 31.54 27.00 29.22 28.17 Z" />
<path fill="#ffffff" opacity="1.00" d=" M 11.20 28.10 C 13.57 27.13 15.19 30.86 12.80 31.82 C 10.45 32.99 8.81 29.09 11.20 28.10 Z" />
<path fill="#ffffff" opacity="1.00" d=" M 47.24 28.16 C 49.54 27.02 51.23 30.99 48.76 31.82 C 46.47 33.03 44.76 28.98 47.24 28.16 Z" />
</g>
<g id="#000000ff">
<path fill="#968176" opacity="1.00" d=" M 24.48 6.65 C 31.74 4.91 39.78 6.77 45.45 11.65 C 50.54 15.90 53.72 22.35 53.96 28.98 C 54.31 36.05 51.29 43.17 46.00 47.86 C 40.89 52.53 33.66 54.72 26.81 53.77 C 19.24 52.82 12.32 47.96 8.79 41.21 C 5.21 34.54 5.09 26.16 8.48 19.39 C 11.57 13.04 17.61 8.25 24.48 6.65 M 29.22 10.09 C 26.83 11.12 28.38 14.86 30.81 13.89 C 33.10 12.84 31.64 9.17 29.22 10.09 M 24.42 31.41 C 26.41 37.33 27.73 43.50 30.12 49.26 C 32.00 43.34 33.73 37.38 35.58 31.45 C 37.08 27.88 33.67 23.87 29.99 24.00 C 26.34 23.88 22.93 27.86 24.42 31.41 M 11.20 28.10 C 8.81 29.09 10.45 32.99 12.80 31.82 C 15.19 30.86 13.57 27.13 11.20 28.10 M 47.24 28.16 C 44.76 28.98 46.47 33.03 48.76 31.82 C 51.23 30.99 49.54 27.02 47.24 28.16 Z" />
<path fill="#968176" opacity="1.00" d=" M 29.22 28.17 C 31.54 27.00 33.22 31.00 30.75 31.86 C 28.42 32.93 26.80 29.02 29.22 28.17 Z" />
</g>
</svg>
