<?xml version="1.0" encoding="UTF-8" ?>
<!DOCTYPE svg PUBLIC "-//W3C//DTD SVG 1.1//EN" "http://www.w3.org/Graphics/SVG/1.1/DTD/svg11.dtd">
<svg width="60pt" height="60pt" viewBox="0 0 60 60" version="1.1" xmlns="http://www.w3.org/2000/svg">
<g id="#ffffffff">
<path fill="#ffffff" opacity="1.00" d=" M 0.00 0.00 L 60.00 0.00 L 60.00 60.00 L 0.00 60.00 L 0.00 0.00 M 34.00 9.00 C 35.00 10.00 36.00 11.00 37.00 12.00 C 38.00 11.00 39.00 10.00 40.00 9.00 C 39.00 8.00 38.01 6.99 37.02 5.97 C 36.02 6.99 35.01 7.99 34.00 9.00 M 19.35 8.52 C 16.96 9.89 18.09 14.16 20.95 13.88 C 22.55 14.30 24.87 13.42 25.85 15.16 C 26.25 18.78 25.88 22.44 26.04 26.07 C 28.30 21.85 30.64 17.11 29.75 12.19 C 28.66 7.73 22.95 7.20 19.35 8.52 M 46.33 8.37 C 43.38 9.67 44.05 13.30 43.98 15.89 C 42.34 16.10 40.35 15.84 39.14 17.22 C 37.87 18.40 38.11 20.27 37.89 21.83 C 33.61 22.09 31.20 25.81 28.54 28.64 C 29.52 29.55 30.49 30.46 31.47 31.37 C 32.73 29.98 33.94 28.56 35.29 27.27 C 36.71 25.66 39.31 26.28 40.79 24.79 C 42.13 23.61 41.90 21.70 42.11 20.10 C 43.69 19.91 45.59 20.13 46.77 18.81 C 48.61 17.04 47.83 14.26 48.03 12.00 C 50.02 12.00 52.01 12.00 54.00 12.00 C 54.00 10.67 54.00 9.34 54.00 8.00 C 51.45 8.09 48.81 7.66 46.33 8.37 M 8.00 13.00 C 9.00 14.00 10.00 15.00 11.00 16.00 C 12.00 15.00 13.00 14.00 14.00 13.00 C 13.00 12.00 12.00 11.00 11.00 10.00 C 10.00 11.00 9.00 12.00 8.00 13.00 M 4.00 25.00 C 5.00 26.00 6.00 27.00 7.00 28.00 C 8.00 27.00 9.00 26.00 10.00 25.00 C 9.00 24.00 8.00 23.00 7.00 22.00 C 6.00 23.00 5.00 24.00 4.00 25.00 M 48.00 25.00 C 49.00 26.00 50.00 27.00 51.00 28.00 C 52.00 27.00 53.00 26.00 54.00 25.00 C 53.00 24.00 52.00 23.00 51.00 22.00 C 50.00 23.00 49.00 24.00 48.00 25.00 M 15.04 28.29 C 12.24 35.64 9.15 42.88 6.35 50.22 C 5.07 52.37 7.69 54.93 9.82 53.64 C 17.15 50.73 24.52 47.93 31.78 44.86 C 32.33 45.21 33.44 45.92 33.99 46.27 C 35.46 45.67 36.83 44.01 35.36 42.61 C 29.24 36.40 23.14 30.11 16.77 24.15 C 14.01 23.13 13.31 26.75 15.04 28.29 M 33.94 33.96 C 37.58 34.11 41.24 33.80 44.87 34.14 C 47.10 35.77 45.05 39.23 46.91 41.13 C 48.35 42.65 51.28 42.00 51.80 39.93 C 52.43 36.57 52.25 31.86 48.45 30.47 C 43.40 29.03 38.31 31.64 33.94 33.96 M 40.02 46.97 C 41.02 47.98 42.01 48.99 43.00 50.01 C 44.00 48.99 45.01 47.98 46.02 46.98 C 45.01 45.99 44.00 45.00 42.99 44.00 C 42.00 44.99 41.01 45.98 40.02 46.97 Z" />
</g>
<g id="#000000ff">
<path fill="#000000" opacity="1.00" d=" M 34.00 9.00 C 35.01 7.99 36.02 6.99 37.02 5.97 C 38.01 6.99 39.00 8.00 40.00 9.00 C 39.00 10.00 38.00 11.00 37.00 12.00 C 36.00 11.00 35.00 10.00 34.00 9.00 Z" />
<path fill="#000000" opacity="1.00" d=" M 19.35 8.52 C 22.95 7.20 28.66 7.73 29.75 12.19 C 30.64 17.11 28.30 21.85 26.04 26.07 C 25.88 22.44 26.25 18.78 25.85 15.16 C 24.87 13.42 22.55 14.30 20.95 13.88 C 18.09 14.16 16.96 9.89 19.35 8.52 Z" />
<path fill="#000000" opacity="1.00" d=" M 46.33 8.37 C 48.81 7.66 51.45 8.09 54.00 8.00 C 54.00 9.34 54.00 10.67 54.00 12.00 C 52.01 12.00 50.02 12.00 48.03 12.00 C 47.83 14.26 48.61 17.04 46.77 18.81 C 45.59 20.13 43.69 19.91 42.11 20.10 C 41.90 21.70 42.13 23.61 40.79 24.79 C 39.31 26.28 36.71 25.66 35.29 27.27 C 33.94 28.56 32.73 29.98 31.47 31.37 C 30.49 30.46 29.52 29.55 28.54 28.64 C 31.20 25.81 33.61 22.09 37.89 21.83 C 38.11 20.27 37.87 18.40 39.14 17.22 C 40.35 15.84 42.34 16.10 43.98 15.89 C 44.05 13.30 43.38 9.67 46.33 8.37 Z" />
<path fill="#000000" opacity="1.00" d=" M 8.00 13.00 C 9.00 12.00 10.00 11.00 11.00 10.00 C 12.00 11.00 13.00 12.00 14.00 13.00 C 13.00 14.00 12.00 15.00 11.00 16.00 C 10.00 15.00 9.00 14.00 8.00 13.00 Z" />
<path fill="#000000" opacity="1.00" d=" M 4.00 25.00 C 5.00 24.00 6.00 23.00 7.00 22.00 C 8.00 23.00 9.00 24.00 10.00 25.00 C 9.00 26.00 8.00 27.00 7.00 28.00 C 6.00 27.00 5.00 26.00 4.00 25.00 Z" />
<path fill="#000000" opacity="1.00" d=" M 48.00 25.00 C 49.00 24.00 50.00 23.00 51.00 22.00 C 52.00 23.00 53.00 24.00 54.00 25.00 C 53.00 26.00 52.00 27.00 51.00 28.00 C 50.00 27.00 49.00 26.00 48.00 25.00 Z" />
<path fill="#000000" opacity="1.00" d=" M 15.04 28.29 C 13.31 26.75 14.01 23.13 16.77 24.15 C 23.14 30.11 29.24 36.40 35.36 42.61 C 36.83 44.01 35.46 45.67 33.99 46.27 C 33.44 45.92 32.33 45.21 31.78 44.86 C 24.52 47.93 17.15 50.73 9.82 53.64 C 7.69 54.93 5.07 52.37 6.35 50.22 C 9.15 42.88 12.24 35.64 15.04 28.29 Z" />
<path fill="#000000" opacity="1.00" d=" M 33.94 33.96 C 38.31 31.64 43.40 29.03 48.45 30.47 C 52.25 31.86 52.43 36.57 51.80 39.93 C 51.28 42.00 48.35 42.65 46.91 41.13 C 45.05 39.23 47.10 35.77 44.87 34.14 C 41.24 33.80 37.58 34.11 33.94 33.96 Z" />
<path fill="#000000" opacity="1.00" d=" M 40.02 46.97 C 41.01 45.98 42.00 44.99 42.99 44.00 C 44.00 45.00 45.01 45.99 46.02 46.98 C 45.01 47.98 44.00 48.99 43.00 50.01 C 42.01 48.99 41.02 47.98 40.02 46.97 Z" />
</g>
</svg>
