<?xml version="1.0" encoding="UTF-8" ?>
<!DOCTYPE svg PUBLIC "-//W3C//DTD SVG 1.1//EN" "http://www.w3.org/Graphics/SVG/1.1/DTD/svg11.dtd">
<svg width="64pt" height="64pt" viewBox="0 0 64 64" version="1.1" xmlns="http://www.w3.org/2000/svg">
<g id="#ffffffff">
<path fill="#ffffff" opacity="1.00" d=" M 0.00 0.00 L 64.00 0.00 L 64.00 64.00 L 0.00 64.00 L 0.00 0.00 M 28.91 8.00 C 25.50 17.59 22.09 27.17 18.69 36.75 C 21.77 37.52 24.86 38.25 27.94 39.04 C 27.93 44.69 27.93 50.34 27.94 56.00 C 30.24 56.00 32.55 56.00 34.86 56.00 C 38.36 47.08 41.82 38.15 45.31 29.24 C 42.19 28.44 39.07 27.62 35.94 26.85 C 35.93 20.57 35.93 14.29 35.94 8.00 C 33.59 8.00 31.25 8.00 28.91 8.00 M 10.01 12.82 C 12.40 15.21 14.79 17.61 17.18 20.00 C 18.12 19.05 19.06 18.11 20.01 17.16 C 17.62 14.77 15.23 12.38 12.83 10.01 C 11.89 10.94 10.95 11.88 10.01 12.82 M 44.01 17.18 C 44.95 18.12 45.89 19.05 46.83 19.99 C 49.23 17.61 51.62 15.23 54.01 12.83 C 53.06 11.89 52.12 10.95 51.18 10.00 C 48.79 12.39 46.40 14.78 44.01 17.18 M 10.01 51.18 C 10.95 52.12 11.89 53.05 12.83 54.00 C 15.23 51.61 17.62 49.23 20.01 46.83 C 19.06 45.89 18.13 44.95 17.19 44.00 C 14.79 46.38 12.40 48.78 10.01 51.18 M 44.01 46.81 C 46.40 49.21 48.79 51.61 51.18 54.00 C 52.12 53.05 53.06 52.10 54.01 51.16 C 51.63 48.77 49.23 46.40 46.85 44.00 C 45.90 44.94 44.96 45.88 44.01 46.81 Z" />
<path fill="#ffffff" opacity="1.00" d=" M 31.77 11.68 C 32.11 17.77 31.86 23.86 31.93 29.95 C 34.60 30.61 37.27 31.30 39.94 31.98 C 37.39 38.74 34.53 45.39 32.21 52.24 C 31.69 46.82 32.03 41.38 31.93 35.95 C 29.27 35.25 26.61 34.57 23.94 33.93 C 26.54 26.51 29.28 19.14 31.77 11.68 Z" />
</g>
<g id="#000000ff">
<path fill="#000000" opacity="1.00" d=" M 28.91 8.00 C 31.25 8.00 33.59 8.00 35.94 8.00 C 35.93 14.29 35.93 20.57 35.94 26.85 C 39.07 27.62 42.19 28.44 45.31 29.24 C 41.82 38.15 38.36 47.08 34.86 56.00 C 32.55 56.00 30.24 56.00 27.94 56.00 C 27.93 50.34 27.93 44.69 27.94 39.04 C 24.86 38.25 21.77 37.52 18.69 36.75 C 22.09 27.17 25.50 17.59 28.91 8.00 M 31.77 11.68 C 29.28 19.14 26.54 26.51 23.94 33.93 C 26.61 34.57 29.27 35.25 31.93 35.95 C 32.03 41.38 31.69 46.82 32.21 52.24 C 34.53 45.39 37.39 38.74 39.94 31.98 C 37.27 31.30 34.60 30.61 31.93 29.95 C 31.86 23.86 32.11 17.77 31.77 11.68 Z" />
<path fill="#000000" opacity="1.00" d=" M 10.01 12.82 C 10.95 11.88 11.89 10.94 12.83 10.01 C 15.23 12.38 17.62 14.77 20.01 17.16 C 19.06 18.11 18.12 19.05 17.18 20.00 C 14.79 17.61 12.40 15.21 10.01 12.82 Z" />
<path fill="#000000" opacity="1.00" d=" M 44.01 17.18 C 46.40 14.78 48.79 12.39 51.18 10.00 C 52.12 10.95 53.06 11.89 54.01 12.83 C 51.62 15.23 49.23 17.61 46.83 19.99 C 45.89 19.05 44.95 18.12 44.01 17.18 Z" />
<path fill="#000000" opacity="1.00" d=" M 10.01 51.18 C 12.40 48.78 14.79 46.38 17.19 44.00 C 18.13 44.95 19.06 45.89 20.01 46.83 C 17.62 49.23 15.23 51.61 12.83 54.00 C 11.89 53.05 10.95 52.12 10.01 51.18 Z" />
<path fill="#000000" opacity="1.00" d=" M 44.01 46.81 C 44.96 45.88 45.90 44.94 46.85 44.00 C 49.23 46.40 51.63 48.77 54.01 51.16 C 53.06 52.10 52.12 53.05 51.18 54.00 C 48.79 51.61 46.40 49.21 44.01 46.81 Z" />
</g>
</svg>
