<?xml version="1.0" encoding="UTF-8" ?>
<!DOCTYPE svg PUBLIC "-//W3C//DTD SVG 1.1//EN" "http://www.w3.org/Graphics/SVG/1.1/DTD/svg11.dtd">
<svg width="60pt" height="60pt" viewBox="0 0 60 60" version="1.1" xmlns="http://www.w3.org/2000/svg">
<g id="#ffffffff">
<path fill="#ffffff" opacity="1.00" d=" M 0.00 0.00 L 60.00 0.00 L 60.00 60.00 L 0.00 60.00 L 0.00 0.00 M 24.45 6.66 C 16.86 8.43 10.32 14.14 7.59 21.44 C 4.77 28.67 5.79 37.26 10.26 43.61 C 14.23 49.40 20.86 53.31 27.87 53.88 C 34.83 54.55 42.02 51.94 46.93 46.95 C 51.92 42.03 54.56 34.84 53.88 27.85 C 53.31 20.83 49.38 14.22 43.59 10.24 C 38.10 6.40 30.95 5.10 24.45 6.66 Z" />
<path fill="#ffffff" opacity="1.00" d=" M 27.29 10.18 C 37.01 8.65 47.08 15.39 49.34 24.96 C 51.29 32.16 48.77 40.32 43.06 45.13 C 37.16 50.37 28.06 51.49 21.05 47.88 C 13.77 44.36 9.21 36.11 10.10 28.07 C 10.79 19.07 18.33 11.24 27.29 10.18 M 20.12 22.10 C 16.73 23.78 17.60 30.64 21.84 29.91 C 25.30 28.27 24.40 21.29 20.12 22.10 M 38.16 22.09 C 35.31 23.66 35.31 28.35 38.17 29.91 C 43.19 30.89 43.19 21.08 38.16 22.09 M 33.07 37.36 C 29.56 37.23 25.01 36.17 22.90 39.92 C 21.10 41.64 22.34 44.33 24.83 44.09 C 25.57 43.07 26.26 42.00 27.19 41.13 C 30.71 41.00 34.92 42.56 37.75 39.66 C 39.19 38.30 41.23 35.56 38.81 34.08 C 36.11 33.36 35.72 37.78 33.07 37.36 Z" />
</g>
<g id="#000000ff">
<path fill="#000000" opacity="1.00" d=" M 24.45 6.66 C 30.95 5.10 38.10 6.40 43.59 10.24 C 49.38 14.22 53.31 20.83 53.88 27.85 C 54.56 34.84 51.92 42.03 46.93 46.95 C 42.02 51.94 34.83 54.55 27.87 53.88 C 20.86 53.31 14.23 49.40 10.26 43.61 C 5.79 37.26 4.77 28.67 7.59 21.44 C 10.32 14.14 16.86 8.43 24.45 6.66 M 27.29 10.18 C 18.33 11.24 10.79 19.07 10.10 28.07 C 9.21 36.11 13.77 44.36 21.05 47.88 C 28.06 51.49 37.16 50.37 43.06 45.13 C 48.77 40.32 51.29 32.16 49.34 24.96 C 47.08 15.39 37.01 8.65 27.29 10.18 Z" />
<path fill="#000000" opacity="1.00" d=" M 20.12 22.10 C 24.40 21.29 25.30 28.27 21.84 29.91 C 17.60 30.64 16.73 23.78 20.12 22.10 Z" />
<path fill="#000000" opacity="1.00" d=" M 38.16 22.09 C 43.19 21.08 43.19 30.89 38.17 29.91 C 35.31 28.35 35.31 23.66 38.16 22.09 Z" />
<path fill="#000000" opacity="1.00" d=" M 33.07 37.36 C 35.72 37.78 36.11 33.36 38.81 34.08 C 41.23 35.56 39.19 38.30 37.75 39.66 C 34.92 42.56 30.71 41.00 27.19 41.13 C 26.26 42.00 25.57 43.07 24.83 44.09 C 22.34 44.33 21.10 41.64 22.90 39.92 C 25.01 36.17 29.56 37.23 33.07 37.36 Z" />
</g>
</svg>
