<?xml version="1.0" encoding="UTF-8" ?>
<!DOCTYPE svg PUBLIC "-//W3C//DTD SVG 1.1//EN" "http://www.w3.org/Graphics/SVG/1.1/DTD/svg11.dtd">
<svg width="60pt" height="60pt" viewBox="0 0 60 60" version="1.1" xmlns="http://www.w3.org/2000/svg">
<g id="#ffffffff">
<path fill="#ffffff" opacity="1.00" d=" M 0.00 0.00 L 60.00 0.00 L 60.00 46.73 C 59.43 40.90 53.69 38.57 49.23 36.16 C 50.39 34.08 51.92 32.15 52.71 29.88 C 52.91 27.29 53.10 24.63 52.59 22.06 C 51.97 19.39 49.20 18.18 47.09 16.83 C 44.50 15.23 41.43 16.36 38.76 17.13 C 35.64 14.28 31.66 10.83 27.10 12.34 C 24.43 12.80 22.77 15.07 21.35 17.16 C 17.69 15.61 13.38 15.57 10.34 18.43 C 6.72 20.22 6.95 24.66 7.15 28.08 C 6.97 31.21 9.45 33.54 10.77 36.16 C 6.37 38.55 0.75 40.82 0.00 46.50 L 0.00 0.00 Z" />
<path fill="#ffffff" opacity="1.00" d=" M 11.50 22.54 C 13.44 21.31 15.51 19.21 18.00 20.26 C 19.72 20.66 20.71 22.33 20.82 23.99 C 20.97 27.67 23.51 30.51 25.58 33.32 C 26.28 37.07 22.46 38.53 19.75 39.84 C 16.80 41.14 14.19 43.18 12.55 46.00 C 9.80 46.01 7.04 46.02 4.28 45.91 C 5.96 42.18 10.38 41.68 13.18 39.20 C 14.76 37.97 14.42 35.85 14.50 34.10 C 13.38 32.64 12.38 31.08 11.44 29.49 C 11.52 27.18 10.62 24.75 11.50 22.54 Z" />
<path fill="#ffffff" opacity="1.00" d=" M 40.26 21.29 C 41.40 19.96 43.28 20.17 44.85 20.00 C 46.05 20.92 47.32 21.73 48.52 22.65 C 49.36 24.83 48.47 27.22 48.56 29.49 C 47.62 31.08 46.62 32.64 45.47 34.09 C 45.59 35.83 45.25 37.95 46.80 39.19 C 49.64 41.62 54.02 42.21 55.72 45.90 C 52.96 46.02 50.20 46.01 47.45 46.00 C 45.05 41.32 39.73 40.02 35.70 37.27 C 34.27 36.45 34.60 34.67 34.42 33.31 C 35.95 31.44 37.28 29.41 38.46 27.30 C 39.26 25.37 38.80 22.94 40.26 21.29 Z" />
<path fill="#ffffff" opacity="1.00" d=" M 0.00 49.04 C 1.20 49.71 2.51 50.11 3.90 50.01 C 18.60 50.00 33.30 49.99 48.00 50.00 C 52.00 49.98 56.06 50.29 60.00 49.43 L 60.00 60.00 L 0.00 60.00 L 0.00 49.04 Z" />
</g>
<g id="#000000ff">
<path fill="#000000" opacity="1.00" d=" M 21.35 17.16 C 22.77 15.07 24.43 12.80 27.10 12.34 C 31.66 10.83 35.64 14.28 38.76 17.13 C 41.43 16.36 44.50 15.23 47.09 16.83 C 49.20 18.18 51.97 19.39 52.59 22.06 C 53.10 24.63 52.91 27.29 52.71 29.88 C 51.92 32.15 50.39 34.08 49.23 36.16 C 53.69 38.57 59.43 40.90 60.00 46.73 L 60.00 49.43 C 56.06 50.29 52.00 49.98 48.00 50.00 C 33.30 49.99 18.60 50.00 3.90 50.01 C 2.51 50.11 1.20 49.71 0.00 49.04 L 0.00 46.50 C 0.75 40.82 6.37 38.55 10.77 36.16 C 9.45 33.54 6.97 31.21 7.15 28.08 C 6.95 24.66 6.72 20.22 10.34 18.43 C 13.38 15.57 17.69 15.61 21.35 17.16 M 11.50 22.54 C 10.62 24.75 11.52 27.18 11.44 29.49 C 12.38 31.08 13.38 32.64 14.50 34.10 C 14.42 35.85 14.76 37.97 13.18 39.20 C 10.38 41.68 5.96 42.18 4.28 45.91 C 7.04 46.02 9.80 46.01 12.55 46.00 C 14.19 43.18 16.80 41.14 19.75 39.84 C 22.46 38.53 26.28 37.07 25.58 33.32 C 23.51 30.51 20.97 27.67 20.82 23.99 C 20.71 22.33 19.72 20.66 18.00 20.26 C 15.51 19.21 13.44 21.31 11.50 22.54 M 40.26 21.29 C 38.80 22.94 39.26 25.37 38.46 27.30 C 37.28 29.41 35.95 31.44 34.42 33.31 C 34.60 34.67 34.27 36.45 35.70 37.27 C 39.73 40.02 45.05 41.32 47.45 46.00 C 50.20 46.01 52.96 46.02 55.72 45.90 C 54.02 42.21 49.64 41.62 46.80 39.19 C 45.25 37.95 45.59 35.83 45.47 34.09 C 46.62 32.64 47.62 31.08 48.56 29.49 C 48.47 27.22 49.36 24.83 48.52 22.65 C 47.32 21.73 46.05 20.92 44.85 20.00 C 43.28 20.17 41.40 19.96 40.26 21.29 Z" />
</g>
</svg>
