<?xml version="1.0" encoding="UTF-8" ?>
<!DOCTYPE svg PUBLIC "-//W3C//DTD SVG 1.1//EN" "http://www.w3.org/Graphics/SVG/1.1/DTD/svg11.dtd">
<svg width="60pt" height="60pt" viewBox="0 0 60 60" version="1.1" xmlns="http://www.w3.org/2000/svg">
<g id="#ffffffff">
<path fill="#ffffff" opacity="1.00" d=" M 0.00 0.00 L 60.00 0.00 L 60.00 60.00 L 0.00 60.00 L 0.00 0.00 M 30.23 5.20 C 25.57 13.60 21.12 22.13 16.55 30.59 C 15.73 31.61 15.91 33.15 17.10 33.82 C 21.05 34.23 25.04 33.91 29.00 34.00 C 28.10 40.67 26.78 47.29 26.10 53.99 C 25.73 56.05 29.11 56.81 29.76 54.80 C 34.45 46.42 38.91 37.89 43.46 29.42 C 44.31 28.39 44.08 26.81 42.85 26.18 C 38.92 25.76 34.95 26.09 31.00 26.00 C 31.89 19.31 33.25 12.67 33.88 5.96 C 34.22 3.91 30.83 3.21 30.23 5.20 M 9.17 8.04 C 8.13 8.69 7.80 9.60 8.15 10.76 C 9.61 12.67 11.36 14.38 13.27 15.84 C 15.22 16.75 16.93 14.07 15.39 12.65 C 13.53 10.94 11.99 7.92 9.17 8.04 M 49.21 8.19 C 47.34 9.62 45.63 11.32 44.22 13.21 C 43.25 14.70 45.30 16.73 46.74 15.77 C 48.67 14.39 50.39 12.67 51.83 10.77 C 52.62 9.13 50.84 7.37 49.21 8.19 M 13.27 44.14 C 11.35 45.61 9.62 47.34 8.16 49.26 C 7.44 50.90 9.12 52.50 10.75 51.83 C 12.64 50.38 14.37 48.68 15.82 46.79 C 16.60 45.16 14.92 43.41 13.27 44.14 M 45.15 44.06 C 42.06 46.44 46.49 49.16 48.11 50.93 C 49.37 52.95 52.91 51.66 51.82 49.24 C 49.93 47.28 48.18 44.00 45.15 44.06 Z" />
</g>
<g id="#000000ff">
<path fill="#000000" opacity="1.00" d=" M 30.23 5.20 C 30.83 3.21 34.22 3.91 33.88 5.96 C 33.25 12.67 31.89 19.31 31.00 26.00 C 34.95 26.09 38.92 25.76 42.85 26.18 C 44.08 26.81 44.31 28.39 43.46 29.42 C 38.91 37.89 34.45 46.42 29.76 54.80 C 29.11 56.81 25.73 56.05 26.10 53.99 C 26.78 47.29 28.10 40.67 29.00 34.00 C 25.04 33.91 21.05 34.23 17.10 33.82 C 15.91 33.15 15.73 31.61 16.55 30.59 C 21.12 22.13 25.57 13.60 30.23 5.20 Z" />
<path fill="#000000" opacity="1.00" d=" M 9.17 8.04 C 11.99 7.92 13.53 10.94 15.39 12.65 C 16.93 14.07 15.22 16.75 13.27 15.84 C 11.36 14.38 9.61 12.67 8.15 10.76 C 7.80 9.60 8.13 8.69 9.17 8.04 Z" />
<path fill="#000000" opacity="1.00" d=" M 49.21 8.19 C 50.84 7.37 52.62 9.13 51.83 10.77 C 50.39 12.67 48.67 14.39 46.74 15.77 C 45.30 16.73 43.25 14.70 44.22 13.21 C 45.63 11.32 47.34 9.62 49.21 8.19 Z" />
<path fill="#000000" opacity="1.00" d=" M 13.27 44.14 C 14.92 43.41 16.60 45.16 15.82 46.79 C 14.37 48.68 12.64 50.38 10.75 51.83 C 9.12 52.50 7.44 50.90 8.16 49.26 C 9.62 47.34 11.35 45.61 13.27 44.14 Z" />
<path fill="#000000" opacity="1.00" d=" M 45.15 44.06 C 48.18 44.00 49.93 47.28 51.82 49.24 C 52.91 51.66 49.37 52.95 48.11 50.93 C 46.49 49.16 42.06 46.44 45.15 44.06 Z" />
</g>
</svg>
