<?xml version="1.0" encoding="UTF-8" ?>
<!DOCTYPE svg PUBLIC "-//W3C//DTD SVG 1.1//EN" "http://www.w3.org/Graphics/SVG/1.1/DTD/svg11.dtd">
<svg width="64pt" height="64pt" viewBox="0 0 64 64" version="1.1" xmlns="http://www.w3.org/2000/svg">
<g id="#ffffffff">
<path fill="#ffffff" opacity="1.00" d=" M 0.00 0.00 L 64.00 0.00 L 64.00 64.00 L 0.00 64.00 L 0.00 0.00 M 25.19 19.90 C 20.15 20.67 15.33 18.46 10.94 16.26 C 10.31 17.43 9.68 18.60 9.04 19.76 C 13.70 22.15 18.80 24.13 24.12 23.83 C 28.92 23.71 33.25 21.42 37.82 20.28 C 43.16 18.99 48.40 21.33 53.04 23.73 C 53.68 22.57 54.32 21.40 54.97 20.24 C 50.34 17.83 45.24 15.83 39.92 16.15 C 34.76 16.26 30.19 19.04 25.19 19.90 M 10.00 32.00 C 10.00 33.33 10.00 34.67 10.00 36.00 C 24.67 36.00 39.34 36.00 54.00 36.00 C 54.00 34.67 54.00 33.33 54.00 32.00 C 39.34 32.00 24.67 32.00 10.00 32.00 M 10.00 44.00 C 10.00 45.33 10.00 46.67 10.00 48.00 C 24.67 48.00 39.34 48.00 54.00 48.00 C 54.00 46.67 54.00 45.33 54.00 44.00 C 39.34 44.00 24.67 44.00 10.00 44.00 Z" />
</g>
<g id="#000000ff">
<path fill="#000000" opacity="1.00" d=" M 25.19 19.90 C 30.19 19.04 34.76 16.26 39.92 16.15 C 45.24 15.83 50.34 17.83 54.97 20.24 C 54.32 21.40 53.68 22.57 53.04 23.73 C 48.40 21.33 43.16 18.99 37.82 20.28 C 33.25 21.42 28.92 23.71 24.12 23.83 C 18.80 24.13 13.70 22.15 9.04 19.76 C 9.68 18.60 10.31 17.43 10.94 16.26 C 15.33 18.46 20.15 20.67 25.19 19.90 Z" />
<path fill="#000000" opacity="1.00" d=" M 10.00 32.00 C 24.67 32.00 39.34 32.00 54.00 32.00 C 54.00 33.33 54.00 34.67 54.00 36.00 C 39.34 36.00 24.67 36.00 10.00 36.00 C 10.00 34.67 10.00 33.33 10.00 32.00 Z" />
<path fill="#000000" opacity="1.00" d=" M 10.00 44.00 C 24.67 44.00 39.34 44.00 54.00 44.00 C 54.00 45.33 54.00 46.67 54.00 48.00 C 39.34 48.00 24.67 48.00 10.00 48.00 C 10.00 46.67 10.00 45.33 10.00 44.00 Z" />
</g>
</svg>
