<?xml version="1.0" encoding="UTF-8" ?>
<!DOCTYPE svg PUBLIC "-//W3C//DTD SVG 1.1//EN" "http://www.w3.org/Graphics/SVG/1.1/DTD/svg11.dtd">
<svg width="60pt" height="60pt" viewBox="0 0 60 60" version="1.1" xmlns="http://www.w3.org/2000/svg">
<g id="#ffffffff">
<path fill="#ffffff" opacity="1.00" d=" M 0.00 0.00 L 60.00 0.00 L 60.00 60.00 L 0.00 60.00 L 0.00 0.00 M 21.99 4.00 C 22.00 4.80 22.01 6.40 22.02 7.21 C 16.74 12.22 11.48 17.25 6.17 22.23 C 4.89 23.41 3.54 24.99 4.09 26.88 C 4.42 28.93 6.53 29.69 8.24 30.28 C 7.27 33.23 9.33 35.83 12.26 36.27 C 11.26 39.23 13.33 41.83 16.25 42.27 C 14.75 45.82 19.10 49.76 22.24 47.22 C 26.35 43.33 29.84 38.82 33.75 34.73 C 33.29 30.17 31.64 25.62 32.33 21.01 C 33.20 15.80 39.47 12.57 44.23 14.60 C 46.52 16.76 46.70 20.20 47.87 22.96 C 48.09 16.64 47.97 10.32 48.00 4.00 C 39.33 4.00 30.66 4.00 21.99 4.00 M 36.07 22.92 C 36.44 27.31 37.39 31.63 38.02 36.00 C 33.87 40.53 29.86 45.20 25.53 49.55 C 24.11 51.16 22.01 51.69 20.01 52.15 C 20.01 53.44 20.01 54.72 19.99 56.00 C 28.00 56.00 36.00 56.00 44.01 56.00 C 43.31 53.34 42.69 50.67 41.99 48.01 C 43.86 43.96 46.92 40.33 47.98 35.96 C 46.44 29.78 43.83 23.91 41.97 17.81 C 39.12 17.85 35.85 19.69 36.07 22.92 Z" />
</g>
<g id="#000000ff">
<path fill="#000000" opacity="1.00" d=" M 21.99 4.00 C 30.66 4.00 39.33 4.00 48.00 4.00 C 47.97 10.32 48.09 16.64 47.87 22.96 C 46.70 20.20 46.52 16.76 44.23 14.60 C 39.47 12.57 33.20 15.80 32.33 21.01 C 31.64 25.62 33.29 30.17 33.75 34.73 C 29.84 38.82 26.35 43.33 22.24 47.22 C 19.10 49.76 14.75 45.82 16.25 42.27 C 13.33 41.83 11.26 39.23 12.26 36.27 C 9.33 35.83 7.27 33.23 8.24 30.28 C 6.53 29.69 4.42 28.93 4.09 26.88 C 3.54 24.99 4.89 23.41 6.17 22.23 C 11.48 17.25 16.74 12.22 22.02 7.21 C 22.01 6.40 22.00 4.80 21.99 4.00 Z" />
<path fill="#000000" opacity="1.00" d=" M 36.07 22.92 C 35.85 19.69 39.12 17.85 41.97 17.81 C 43.83 23.91 46.44 29.78 47.98 35.96 C 46.92 40.33 43.86 43.96 41.99 48.01 C 42.69 50.67 43.31 53.34 44.01 56.00 C 36.00 56.00 28.00 56.00 19.99 56.00 C 20.01 54.72 20.01 53.44 20.01 52.15 C 22.01 51.69 24.11 51.16 25.53 49.55 C 29.86 45.20 33.87 40.53 38.02 36.00 C 37.39 31.63 36.44 27.31 36.07 22.92 Z" />
</g>
</svg>
