<?xml version="1.0" encoding="UTF-8" ?>
<!DOCTYPE svg PUBLIC "-//W3C//DTD SVG 1.1//EN" "http://www.w3.org/Graphics/SVG/1.1/DTD/svg11.dtd">
<svg width="64pt" height="64pt" viewBox="0 0 64 64" version="1.1" xmlns="http://www.w3.org/2000/svg">
<g id="#ffffffff">
<path fill="#ffffff" opacity="1.00" d=" M 0.00 0.00 L 64.00 0.00 L 64.00 64.00 L 0.00 64.00 L 0.00 0.00 M 38.26 16.08 C 37.56 18.22 38.44 20.36 39.09 22.38 C 37.12 24.96 35.05 27.46 33.03 30.01 C 29.98 30.00 26.93 30.00 23.87 29.98 C 22.76 27.66 21.28 25.27 18.67 24.47 C 14.11 22.67 8.57 26.09 8.09 30.95 C 7.17 36.27 12.70 41.25 17.89 39.75 C 20.85 39.16 22.70 36.60 23.88 34.02 C 26.93 33.99 29.98 34.00 33.04 34.00 C 35.05 36.54 37.12 39.04 39.09 41.61 C 36.57 46.14 38.77 52.55 44.03 53.73 C 49.86 55.52 55.82 49.06 53.54 43.40 C 52.07 38.68 46.37 36.86 42.09 38.89 C 40.23 36.61 38.40 34.30 36.56 32.00 C 38.40 29.70 40.23 27.39 42.09 25.11 C 45.28 26.36 49.21 26.30 51.66 23.60 C 55.36 20.13 54.41 13.38 49.91 11.05 C 45.58 8.37 39.30 11.12 38.26 16.08 Z" />
<path fill="#ffffff" opacity="1.00" d=" M 44.26 14.39 C 46.77 13.05 50.11 15.15 50.00 17.99 C 50.17 21.13 46.12 23.21 43.65 21.25 C 41.21 19.66 41.57 15.52 44.26 14.39 Z" />
<path fill="#ffffff" opacity="1.00" d=" M 14.32 28.35 C 16.83 27.09 20.10 29.17 20.01 31.97 C 20.17 35.10 16.17 37.20 13.69 35.27 C 11.19 33.69 11.57 29.46 14.32 28.35 Z" />
<path fill="#ffffff" opacity="1.00" d=" M 44.28 42.37 C 46.81 41.05 50.14 43.18 50.01 46.03 C 50.13 49.13 46.18 51.17 43.72 49.29 C 41.21 47.73 41.55 43.51 44.28 42.37 Z" />
</g>
<g id="#000000ff">
<path fill="#000000" opacity="1.00" d=" M 38.26 16.08 C 39.30 11.12 45.58 8.37 49.91 11.05 C 54.41 13.38 55.36 20.13 51.66 23.60 C 49.21 26.30 45.28 26.36 42.09 25.11 C 40.23 27.39 38.40 29.70 36.56 32.00 C 38.40 34.30 40.23 36.61 42.09 38.89 C 46.37 36.86 52.07 38.68 53.54 43.40 C 55.82 49.06 49.86 55.52 44.03 53.73 C 38.77 52.55 36.57 46.14 39.09 41.61 C 37.12 39.04 35.05 36.54 33.04 34.00 C 29.98 34.00 26.93 33.99 23.88 34.02 C 22.70 36.60 20.85 39.16 17.89 39.75 C 12.70 41.25 7.17 36.27 8.09 30.95 C 8.57 26.09 14.11 22.67 18.67 24.47 C 21.28 25.27 22.76 27.66 23.87 29.98 C 26.93 30.00 29.98 30.00 33.03 30.01 C 35.05 27.46 37.12 24.96 39.09 22.38 C 38.44 20.36 37.56 18.22 38.26 16.08 M 44.26 14.39 C 41.57 15.52 41.21 19.66 43.65 21.25 C 46.12 23.21 50.17 21.13 50.00 17.99 C 50.11 15.15 46.77 13.05 44.26 14.39 M 14.32 28.35 C 11.57 29.46 11.19 33.69 13.69 35.27 C 16.17 37.20 20.17 35.10 20.01 31.97 C 20.10 29.17 16.83 27.09 14.32 28.35 M 44.28 42.37 C 41.55 43.51 41.21 47.73 43.72 49.29 C 46.18 51.17 50.13 49.13 50.01 46.03 C 50.14 43.18 46.81 41.05 44.28 42.37 Z" />
</g>
</svg>
