<?xml version="1.0" encoding="UTF-8" ?>
<!DOCTYPE svg PUBLIC "-//W3C//DTD SVG 1.1//EN" "http://www.w3.org/Graphics/SVG/1.1/DTD/svg11.dtd">
<svg width="60pt" height="60pt" viewBox="0 0 60 60" version="1.1" xmlns="http://www.w3.org/2000/svg">
<g id="#ffffffff">
<path fill="#ffffff" opacity="1.00" d=" M 0.00 0.00 L 60.00 0.00 L 60.00 60.00 L 0.00 60.00 L 0.00 0.00 M 24.39 6.67 C 16.82 8.45 10.31 14.15 7.58 21.44 C 4.68 28.91 5.86 37.81 10.69 44.22 C 15.71 51.15 24.63 54.99 33.12 53.78 C 41.98 52.73 49.85 46.26 52.68 37.81 C 55.79 29.12 53.23 18.78 46.44 12.53 C 40.70 7.01 32.11 4.77 24.39 6.67 Z" />
<path fill="#ffffff" opacity="1.00" d=" M 14.38 26.36 C 18.96 24.01 22.39 31.72 17.65 33.61 C 13.04 36.04 9.56 28.24 14.38 26.36 Z" />
<path fill="#ffffff" opacity="1.00" d=" M 28.32 26.40 C 31.44 24.60 35.38 28.60 33.58 31.69 C 32.61 33.86 29.56 34.79 27.68 33.21 C 25.15 31.65 25.64 27.52 28.32 26.40 Z" />
<path fill="#ffffff" opacity="1.00" d=" M 42.35 26.38 C 45.45 24.64 49.33 28.56 47.61 31.64 C 46.66 33.81 43.66 34.79 41.74 33.26 C 39.14 31.72 39.61 27.51 42.35 26.38 Z" />
</g>
<g id="#000000ff">
<path fill="#000000" opacity="1.00" d=" M 24.39 6.67 C 32.11 4.77 40.70 7.01 46.44 12.53 C 53.23 18.78 55.79 29.12 52.68 37.81 C 49.85 46.26 41.98 52.73 33.12 53.78 C 24.63 54.99 15.71 51.15 10.69 44.22 C 5.86 37.81 4.68 28.91 7.58 21.44 C 10.31 14.15 16.82 8.45 24.39 6.67 M 14.38 26.36 C 9.56 28.24 13.04 36.04 17.65 33.61 C 22.39 31.72 18.96 24.01 14.38 26.36 M 28.32 26.40 C 25.64 27.52 25.15 31.65 27.68 33.21 C 29.56 34.79 32.61 33.86 33.58 31.69 C 35.38 28.60 31.44 24.60 28.32 26.40 M 42.35 26.38 C 39.61 27.51 39.14 31.72 41.74 33.26 C 43.66 34.79 46.66 33.81 47.61 31.64 C 49.33 28.56 45.45 24.64 42.35 26.38 Z" />
</g>
</svg>
