<?xml version="1.0" encoding="UTF-8" ?>
<!DOCTYPE svg PUBLIC "-//W3C//DTD SVG 1.1//EN" "http://www.w3.org/Graphics/SVG/1.1/DTD/svg11.dtd">
<svg width="60pt" height="60pt" viewBox="0 0 60 60" version="1.1" xmlns="http://www.w3.org/2000/svg">
<g id="#ffffffff">
<path fill="#ffffff" opacity="1.00" d=" M 0.00 0.00 L 60.00 0.00 L 60.00 60.00 L 0.00 60.00 L 0.00 0.00 M 10.34 11.82 C 8.84 12.12 5.94 11.72 6.06 13.97 C 5.90 16.27 8.83 15.89 10.35 16.18 C 12.44 18.49 15.73 18.39 17.72 16.04 C 20.58 15.98 23.44 15.98 26.29 16.05 C 28.29 18.46 31.70 18.48 33.70 16.05 C 36.57 15.98 39.44 15.98 42.30 16.05 C 44.27 18.43 47.59 18.46 49.65 16.18 C 51.12 15.87 54.08 16.27 53.94 14.05 C 54.15 11.74 51.17 12.11 49.65 11.83 C 47.59 9.53 44.26 9.56 42.29 11.95 C 39.42 12.02 36.55 12.02 33.69 11.95 C 31.72 9.53 28.27 9.50 26.31 11.95 C 23.44 12.02 20.57 12.03 17.70 11.95 C 15.72 9.55 12.41 9.55 10.34 11.82 M 10.34 43.82 C 8.76 44.13 6.16 43.69 5.96 45.93 C 6.03 48.28 8.73 47.88 10.35 48.18 C 12.42 50.45 15.72 50.44 17.70 48.05 C 20.57 47.98 23.43 47.98 26.29 48.05 C 27.69 49.19 29.63 50.81 31.48 49.55 C 34.51 46.95 38.68 48.27 42.30 48.05 C 44.27 50.43 47.58 50.46 49.64 48.18 C 51.13 47.88 54.12 48.27 53.94 46.00 C 54.10 43.73 51.15 44.12 49.65 43.83 C 47.58 41.55 44.27 41.54 42.29 43.95 C 39.45 44.01 36.61 44.02 33.77 43.98 C 31.75 41.59 28.31 41.45 26.30 43.95 C 23.43 44.02 20.57 44.02 17.70 43.96 C 15.72 41.51 12.42 41.59 10.34 43.82 Z" />
</g>
<g id="#000000ff">
<path fill="#000000" opacity="1.00" d=" M 10.34 11.82 C 12.41 9.55 15.72 9.55 17.70 11.95 C 20.57 12.03 23.44 12.02 26.31 11.95 C 28.27 9.50 31.72 9.53 33.69 11.95 C 36.55 12.02 39.42 12.02 42.29 11.95 C 44.26 9.56 47.59 9.53 49.65 11.83 C 51.17 12.11 54.15 11.74 53.94 14.05 C 54.08 16.27 51.12 15.87 49.65 16.18 C 47.59 18.46 44.27 18.43 42.30 16.05 C 39.44 15.98 36.57 15.98 33.70 16.05 C 31.70 18.48 28.29 18.46 26.29 16.05 C 23.44 15.98 20.58 15.98 17.72 16.04 C 15.73 18.39 12.44 18.49 10.35 16.18 C 8.83 15.89 5.90 16.27 6.06 13.97 C 5.94 11.72 8.84 12.12 10.34 11.82 Z" />
<path fill="#000000" opacity="1.00" d=" M 10.34 43.82 C 12.42 41.59 15.72 41.51 17.70 43.96 C 20.57 44.02 23.43 44.02 26.30 43.95 C 28.31 41.45 31.75 41.59 33.77 43.98 C 36.61 44.02 39.45 44.01 42.29 43.95 C 44.27 41.54 47.58 41.55 49.65 43.83 C 51.15 44.12 54.10 43.73 53.94 46.00 C 54.12 48.27 51.13 47.88 49.64 48.18 C 47.58 50.46 44.27 50.43 42.30 48.05 C 38.68 48.27 34.51 46.95 31.48 49.55 C 29.63 50.81 27.69 49.19 26.29 48.05 C 23.43 47.98 20.57 47.98 17.70 48.05 C 15.72 50.44 12.42 50.45 10.35 48.18 C 8.73 47.88 6.03 48.28 5.96 45.93 C 6.16 43.69 8.76 44.13 10.34 43.82 Z" />
</g>
</svg>
