<?xml version="1.0" encoding="UTF-8" ?>
<!DOCTYPE svg PUBLIC "-//W3C//DTD SVG 1.1//EN" "http://www.w3.org/Graphics/SVG/1.1/DTD/svg11.dtd">
<svg width="64pt" height="64pt" viewBox="0 0 64 64" version="1.1" xmlns="http://www.w3.org/2000/svg">
<g id="#ffffffff">
<path fill="#ffffff" opacity="1.00" d=" M 0.00 0.00 L 64.00 0.00 L 64.00 64.00 L 0.00 64.00 L 0.00 0.00 M 45.96 9.38 C 41.02 14.94 36.04 20.47 30.94 25.89 C 27.50 25.60 25.06 28.86 26.34 32.09 C 25.65 33.33 24.93 34.56 24.16 35.75 C 22.75 36.23 21.47 37.01 20.31 37.94 C 18.77 38.01 17.23 38.00 15.68 37.95 C 14.16 36.36 11.66 35.18 9.68 36.76 C 7.48 38.20 7.84 41.12 9.10 43.07 C 8.47 46.06 7.71 49.03 6.88 51.97 C 5.26 53.03 3.55 54.62 4.12 56.78 C 4.61 60.11 9.51 61.14 11.27 58.26 C 12.59 56.63 11.73 54.55 10.90 52.93 C 11.52 49.93 12.29 46.97 13.12 44.03 C 13.84 43.21 14.69 42.55 15.67 42.05 C 17.22 42.01 18.77 41.99 20.31 42.05 C 21.83 43.60 24.28 44.81 26.27 43.28 C 28.15 42.15 28.03 39.80 27.67 37.92 C 28.68 36.16 29.47 33.41 32.03 33.63 C 34.76 34.80 37.21 36.52 39.75 38.04 C 40.37 40.27 42.28 42.60 44.87 41.90 C 47.42 41.42 48.25 38.65 47.92 36.38 C 49.62 34.15 51.41 31.99 53.25 29.87 C 55.15 29.57 57.36 28.90 57.84 26.75 C 58.52 24.54 56.88 22.76 55.19 21.65 C 54.30 18.17 53.52 14.66 52.82 11.14 C 54.69 8.82 54.13 4.75 50.87 4.12 C 47.73 3.27 45.52 6.54 45.96 9.38 M 15.42 12.46 C 13.29 13.64 13.72 17.31 16.15 17.83 C 18.27 18.67 20.68 16.23 19.82 14.12 C 19.38 12.28 16.98 11.45 15.42 12.46 M 7.09 24.12 C 4.89 25.35 6.47 28.89 8.88 27.88 C 11.15 26.66 9.50 23.10 7.09 24.12 M 55.11 40.11 C 52.88 41.31 54.44 44.85 56.86 43.89 C 59.15 42.68 57.52 39.12 55.11 40.11 M 37.17 52.10 C 34.89 53.11 36.34 56.83 38.70 55.87 C 41.22 55.00 39.63 51.10 37.17 52.10 Z" />
<path fill="#ffffff" opacity="1.00" d=" M 33.51 28.99 C 38.75 23.50 43.76 17.78 48.90 12.19 C 49.62 15.61 50.51 18.99 51.17 22.42 C 50.45 23.95 49.92 25.55 50.06 27.26 C 48.37 29.52 46.51 31.66 44.75 33.87 C 43.99 34.02 42.46 34.33 41.70 34.48 C 39.02 32.58 35.59 31.65 33.51 28.99 Z" />
</g>
<g id="#000000ff">
<path fill="#000000" opacity="1.00" d=" M 45.96 9.38 C 45.52 6.54 47.73 3.27 50.87 4.12 C 54.13 4.75 54.69 8.82 52.82 11.14 C 53.52 14.66 54.30 18.17 55.19 21.65 C 56.88 22.76 58.52 24.54 57.84 26.75 C 57.36 28.90 55.15 29.57 53.25 29.87 C 51.41 31.99 49.62 34.15 47.92 36.38 C 48.25 38.65 47.42 41.42 44.87 41.90 C 42.28 42.60 40.37 40.27 39.75 38.04 C 37.21 36.52 34.76 34.80 32.03 33.63 C 29.47 33.41 28.68 36.16 27.67 37.92 C 28.03 39.80 28.15 42.15 26.27 43.28 C 24.28 44.81 21.83 43.60 20.31 42.05 C 18.77 41.99 17.22 42.01 15.67 42.05 C 14.69 42.55 13.84 43.21 13.12 44.03 C 12.29 46.97 11.52 49.93 10.90 52.93 C 11.73 54.55 12.59 56.63 11.27 58.26 C 9.51 61.14 4.61 60.11 4.12 56.78 C 3.55 54.62 5.26 53.03 6.88 51.97 C 7.71 49.03 8.47 46.06 9.10 43.07 C 7.84 41.12 7.48 38.20 9.68 36.76 C 11.66 35.18 14.16 36.36 15.68 37.95 C 17.23 38.00 18.77 38.01 20.31 37.94 C 21.47 37.01 22.75 36.23 24.16 35.75 C 24.93 34.56 25.65 33.33 26.34 32.09 C 25.06 28.86 27.50 25.60 30.94 25.89 C 36.04 20.47 41.02 14.94 45.96 9.38 M 33.51 28.99 C 35.59 31.65 39.02 32.58 41.70 34.48 C 42.46 34.33 43.99 34.02 44.75 33.87 C 46.51 31.66 48.37 29.52 50.06 27.26 C 49.92 25.55 50.45 23.95 51.17 22.42 C 50.51 18.99 49.62 15.61 48.90 12.19 C 43.76 17.78 38.75 23.50 33.51 28.99 Z" />
<path fill="#000000" opacity="1.00" d=" M 15.42 12.46 C 16.98 11.45 19.38 12.28 19.82 14.12 C 20.68 16.23 18.27 18.67 16.15 17.83 C 13.72 17.31 13.29 13.64 15.42 12.46 Z" />
<path fill="#000000" opacity="1.00" d=" M 7.09 24.12 C 9.50 23.10 11.15 26.66 8.88 27.88 C 6.47 28.89 4.89 25.35 7.09 24.12 Z" />
<path fill="#000000" opacity="1.00" d=" M 55.11 40.11 C 57.52 39.12 59.15 42.68 56.86 43.89 C 54.44 44.85 52.88 41.31 55.11 40.11 Z" />
<path fill="#000000" opacity="1.00" d=" M 37.17 52.10 C 39.63 51.10 41.22 55.00 38.70 55.87 C 36.34 56.83 34.89 53.11 37.17 52.10 Z" />
</g>
</svg>
