<?xml version="1.0" encoding="UTF-8" ?>
<!DOCTYPE svg PUBLIC "-//W3C//DTD SVG 1.1//EN" "http://www.w3.org/Graphics/SVG/1.1/DTD/svg11.dtd">
<svg width="64pt" height="64pt" viewBox="0 0 64 64" version="1.1" xmlns="http://www.w3.org/2000/svg">
<g id="#ffffffff">
<path fill="#ffffff" opacity="1.00" d=" M 0.00 0.00 L 64.00 0.00 L 64.00 64.00 L 0.00 64.00 L 0.00 0.00 M 9.99 9.99 C 10.00 16.65 10.02 23.30 9.98 29.96 C 11.33 29.99 12.67 30.01 14.02 30.04 C 13.97 38.03 14.01 46.02 14.00 54.00 C 15.33 54.00 16.66 54.00 17.99 54.00 C 18.00 52.00 18.00 49.99 18.01 47.99 C 26.01 48.02 34.00 47.99 42.00 48.00 C 42.00 46.67 42.00 45.33 42.00 44.00 C 34.00 44.01 26.00 43.99 17.99 44.01 C 18.01 39.34 18.01 34.66 18.00 29.99 C 27.33 30.01 36.67 30.00 46.01 29.99 C 45.99 38.00 46.01 46.00 46.00 54.00 C 47.33 54.00 48.66 54.00 50.00 54.00 C 49.99 46.01 50.03 38.03 49.98 30.04 C 51.33 30.01 52.67 29.99 54.02 29.96 C 53.98 23.30 54.00 16.65 54.01 9.99 C 39.34 10.01 24.66 10.01 9.99 9.99 Z" />
<path fill="#ffffff" opacity="1.00" d=" M 14.00 13.99 C 26.00 14.01 38.00 14.01 50.00 13.99 C 49.99 18.00 49.99 22.00 50.00 26.01 C 38.00 25.99 26.00 25.99 14.00 26.01 C 14.01 22.00 14.01 18.00 14.00 13.99 M 31.20 18.09 C 28.86 19.16 30.37 22.83 32.79 21.90 C 35.14 20.82 33.62 17.18 31.20 18.09 Z" />
</g>
<g id="#000000ff">
<path fill="#000000" opacity="1.00" d=" M 9.99 9.99 C 24.66 10.01 39.34 10.01 54.01 9.99 C 54.00 16.65 53.98 23.30 54.02 29.96 C 52.67 29.99 51.33 30.01 49.98 30.04 C 50.03 38.03 49.99 46.01 50.00 54.00 C 48.66 54.00 47.33 54.00 46.00 54.00 C 46.01 46.00 45.99 38.00 46.01 29.99 C 36.67 30.00 27.33 30.01 18.00 29.99 C 18.01 34.66 18.01 39.34 17.99 44.01 C 26.00 43.99 34.00 44.01 42.00 44.00 C 42.00 45.33 42.00 46.67 42.00 48.00 C 34.00 47.99 26.01 48.02 18.01 47.99 C 18.00 49.99 18.00 52.00 17.99 54.00 C 16.66 54.00 15.33 54.00 14.00 54.00 C 14.01 46.02 13.97 38.03 14.02 30.04 C 12.67 30.01 11.33 29.99 9.98 29.96 C 10.02 23.30 10.00 16.65 9.99 9.99 M 14.00 13.99 C 14.01 18.00 14.01 22.00 14.00 26.01 C 26.00 25.99 38.00 25.99 50.00 26.01 C 49.99 22.00 49.99 18.00 50.00 13.99 C 38.00 14.01 26.00 14.01 14.00 13.99 Z" />
<path fill="#000000" opacity="1.00" d=" M 31.20 18.09 C 33.62 17.18 35.14 20.82 32.79 21.90 C 30.37 22.83 28.86 19.16 31.20 18.09 Z" />
</g>
</svg>
