<?xml version="1.0" encoding="UTF-8" ?>
<!DOCTYPE svg PUBLIC "-//W3C//DTD SVG 1.1//EN" "http://www.w3.org/Graphics/SVG/1.1/DTD/svg11.dtd">
<svg width="64pt" height="64pt" viewBox="0 0 64 64" version="1.1" xmlns="http://www.w3.org/2000/svg">
<g id="#ffffffff">
<path fill="#ffffff" opacity="1.00" d=" M 0.00 0.00 L 64.00 0.00 L 64.00 64.00 L 0.00 64.00 L 0.00 0.00 M 13.06 16.57 C 16.53 23.59 20.09 30.57 23.54 37.61 C 22.57 38.69 21.54 39.71 20.52 40.74 C 18.52 40.12 16.06 39.78 14.36 41.29 C 11.26 44.15 8.59 47.44 5.65 50.45 C 8.46 53.30 11.31 56.11 14.12 58.95 C 16.84 56.03 19.62 53.16 22.27 50.18 C 24.10 48.44 24.06 45.71 23.27 43.48 C 24.28 42.46 25.28 41.45 26.33 40.48 C 33.42 43.84 40.38 47.48 47.42 50.94 C 50.48 36.43 53.53 21.92 56.59 7.42 C 42.08 10.49 27.58 13.59 13.06 16.57 Z" />
<path fill="#ffffff" opacity="1.00" d=" M 18.96 19.41 C 29.78 17.19 40.60 14.91 51.40 12.59 C 49.14 23.41 46.85 34.22 44.59 45.04 C 39.50 42.56 34.47 39.94 29.39 37.44 C 32.07 34.77 34.76 32.09 37.43 29.40 C 36.47 28.48 35.53 27.54 34.61 26.57 C 31.92 29.25 29.25 31.95 26.55 34.62 C 24.02 29.55 21.48 24.48 18.96 19.41 Z" />
<path fill="#ffffff" opacity="1.00" d=" M 17.18 44.16 C 18.75 43.37 20.68 45.24 19.80 46.81 C 18.08 49.10 15.94 51.04 14.05 53.19 C 13.11 52.24 12.15 51.30 11.19 50.37 C 13.21 48.32 14.99 46.02 17.18 44.16 Z" />
</g>
<g id="#000000ff">
<path fill="#000000" opacity="1.00" d=" M 13.06 16.57 C 27.58 13.59 42.08 10.49 56.59 7.42 C 53.53 21.92 50.48 36.43 47.42 50.94 C 40.38 47.48 33.42 43.84 26.33 40.48 C 25.28 41.45 24.28 42.46 23.27 43.48 C 24.06 45.71 24.10 48.44 22.27 50.18 C 19.62 53.16 16.84 56.03 14.12 58.95 C 11.31 56.11 8.46 53.30 5.65 50.45 C 8.59 47.44 11.26 44.15 14.36 41.29 C 16.06 39.78 18.52 40.12 20.52 40.74 C 21.54 39.71 22.57 38.69 23.54 37.61 C 20.09 30.57 16.53 23.59 13.06 16.57 M 18.96 19.41 C 21.48 24.48 24.02 29.55 26.55 34.62 C 29.25 31.95 31.92 29.25 34.61 26.57 C 35.53 27.54 36.47 28.48 37.43 29.40 C 34.76 32.09 32.07 34.77 29.39 37.44 C 34.47 39.94 39.50 42.56 44.59 45.04 C 46.85 34.22 49.14 23.41 51.40 12.59 C 40.60 14.91 29.78 17.19 18.96 19.41 M 17.18 44.16 C 14.99 46.02 13.21 48.32 11.19 50.37 C 12.15 51.30 13.11 52.24 14.05 53.19 C 15.94 51.04 18.08 49.10 19.80 46.81 C 20.68 45.24 18.75 43.37 17.18 44.16 Z" />
</g>
</svg>
