<?xml version="1.0" encoding="UTF-8" ?>
<!DOCTYPE svg PUBLIC "-//W3C//DTD SVG 1.1//EN" "http://www.w3.org/Graphics/SVG/1.1/DTD/svg11.dtd">
<svg width="60pt" height="60pt" viewBox="0 0 60 60" version="1.1" xmlns="http://www.w3.org/2000/svg">
<g id="#ffffffff">
<path fill="#ffffff" opacity="1.00" d=" M 0.00 0.00 L 60.00 0.00 L 60.00 60.00 L 0.00 60.00 L 0.00 0.00 M 24.50 6.64 C 17.38 8.30 11.15 13.38 8.16 20.06 C 4.98 26.93 5.36 35.31 9.15 41.86 C 12.77 48.31 19.55 52.88 26.90 53.78 C 33.93 54.73 41.35 52.36 46.46 47.43 C 51.48 42.74 54.31 35.81 53.96 28.93 C 53.71 22.06 50.27 15.42 44.88 11.18 C 39.25 6.65 31.51 4.97 24.50 6.64 Z" />
<path fill="#ffffff" opacity="1.00" d=" M 30.01 9.87 C 35.93 10.16 41.82 12.68 45.52 17.41 C 51.27 24.24 51.46 34.98 45.97 42.01 C 42.29 47.07 36.18 49.83 30.02 50.13 C 29.99 36.71 29.99 23.29 30.01 9.87 Z" />
</g>
<g id="#000000ff">
<path fill="#000000" opacity="1.00" d=" M 24.50 6.64 C 31.51 4.97 39.25 6.65 44.88 11.18 C 50.27 15.42 53.71 22.06 53.96 28.93 C 54.31 35.81 51.48 42.74 46.46 47.43 C 41.35 52.36 33.93 54.73 26.90 53.78 C 19.55 52.88 12.77 48.31 9.15 41.86 C 5.36 35.31 4.98 26.93 8.16 20.06 C 11.15 13.38 17.38 8.30 24.50 6.64 M 30.01 9.87 C 29.99 23.29 29.99 36.71 30.02 50.13 C 36.18 49.83 42.29 47.07 45.97 42.01 C 51.46 34.98 51.27 24.24 45.52 17.41 C 41.82 12.68 35.93 10.16 30.01 9.87 Z" />
</g>
</svg>
