<?xml version="1.0" encoding="UTF-8" ?>
<!DOCTYPE svg PUBLIC "-//W3C//DTD SVG 1.1//EN" "http://www.w3.org/Graphics/SVG/1.1/DTD/svg11.dtd">
<svg width="60pt" height="60pt" viewBox="0 0 60 60" version="1.1" xmlns="http://www.w3.org/2000/svg">
<g id="#ffffffff">
<path fill="#ffffff" opacity="1.00" d=" M 0.00 0.00 L 60.00 0.00 L 60.00 60.00 L 0.00 60.00 L 0.00 0.00 M 8.00 4.00 C 8.00 21.33 8.00 38.67 8.00 56.00 C 21.04 56.00 34.07 56.00 47.11 56.00 C 49.44 56.35 52.00 54.58 51.96 52.10 C 52.06 37.70 51.97 23.30 52.00 8.90 C 52.34 6.56 50.59 3.92 48.07 4.04 C 34.71 3.94 21.36 4.03 8.00 4.00 Z" />
<path fill="#ffffff" opacity="1.00" d=" M 26.14 17.20 C 29.02 14.79 32.95 16.52 35.16 18.94 C 36.52 21.39 35.59 24.27 35.82 26.91 C 34.65 29.07 32.34 31.12 33.12 33.81 C 35.22 35.65 38.38 35.67 40.44 37.58 C 41.67 38.71 41.77 40.46 42.15 41.98 C 34.05 42.02 25.95 42.02 17.85 41.97 C 17.69 37.04 22.75 35.97 26.27 34.33 C 28.48 31.98 25.31 29.11 24.17 26.91 C 24.39 23.64 23.16 19.57 26.14 17.20 Z" />
</g>
<g id="#000000ff">
<path fill="#000000" opacity="1.00" d=" M 8.00 4.00 C 21.36 4.03 34.71 3.94 48.07 4.04 C 50.59 3.92 52.34 6.56 52.00 8.90 C 51.97 23.30 52.06 37.70 51.96 52.10 C 52.00 54.58 49.44 56.35 47.11 56.00 C 34.07 56.00 21.04 56.00 8.00 56.00 C 8.00 38.67 8.00 21.33 8.00 4.00 M 26.14 17.20 C 23.16 19.57 24.39 23.64 24.17 26.91 C 25.31 29.11 28.48 31.98 26.27 34.33 C 22.75 35.97 17.69 37.04 17.85 41.97 C 25.95 42.02 34.05 42.02 42.15 41.98 C 41.77 40.46 41.67 38.71 40.44 37.58 C 38.38 35.67 35.22 35.65 33.12 33.81 C 32.34 31.12 34.65 29.07 35.82 26.91 C 35.59 24.27 36.52 21.39 35.16 18.94 C 32.95 16.52 29.02 14.79 26.14 17.20 Z" />
</g>
</svg>
