<?xml version="1.0" encoding="UTF-8" ?>
<!DOCTYPE svg PUBLIC "-//W3C//DTD SVG 1.1//EN" "http://www.w3.org/Graphics/SVG/1.1/DTD/svg11.dtd">
<svg width="60pt" height="60pt" viewBox="0 0 60 60" version="1.1" xmlns="http://www.w3.org/2000/svg">
<g id="#ffffffff">
<path fill="#ffffff" opacity="1.00" d=" M 0.00 0.00 L 60.00 0.00 L 60.00 60.00 L 0.00 60.00 L 0.00 0.00 M 34.33 11.98 C 27.20 12.15 20.05 11.76 12.93 12.15 C 10.02 12.45 8.40 15.24 7.78 17.82 C 6.31 18.12 4.07 17.95 3.93 19.99 C 4.39 22.84 7.99 21.95 10.02 21.95 C 13.46 21.86 10.54 16.09 13.98 16.07 C 24.00 15.88 34.03 16.08 44.05 15.98 C 45.34 16.13 47.11 15.67 47.82 17.13 C 48.29 22.78 47.83 28.48 48.03 34.15 C 44.32 36.46 39.73 36.45 36.00 34.19 C 32.28 36.44 27.72 36.45 24.00 34.19 C 20.27 36.45 15.68 36.46 11.97 34.15 C 11.63 31.59 13.06 28.06 10.84 26.18 C 8.67 26.07 5.53 25.14 4.09 27.27 C 3.36 29.76 6.27 30.09 8.00 30.19 C 8.10 34.48 7.77 38.78 8.15 43.06 C 8.55 46.28 11.89 48.33 14.98 48.00 C 25.37 47.96 35.76 48.09 46.14 47.94 C 49.22 47.99 51.97 45.25 51.94 42.18 C 52.13 35.10 51.91 28.02 52.03 20.95 C 52.00 18.49 52.22 15.59 50.21 13.77 C 48.02 11.42 44.53 12.14 41.67 11.93 C 42.24 10.47 43.27 9.28 44.08 7.95 C 43.82 6.81 43.16 6.19 42.10 6.10 C 39.11 5.88 36.08 5.83 33.10 6.21 C 30.45 7.91 33.91 10.05 34.33 11.98 Z" />
</g>
<g id="#000000ff">
<path fill="#000000" opacity="1.00" d=" M 34.33 11.98 C 33.91 10.05 30.45 7.91 33.10 6.21 C 36.08 5.83 39.11 5.88 42.10 6.10 C 43.16 6.19 43.82 6.81 44.08 7.95 C 43.27 9.28 42.24 10.47 41.67 11.93 C 44.53 12.14 48.02 11.42 50.21 13.77 C 52.22 15.59 52.00 18.49 52.03 20.95 C 51.91 28.02 52.13 35.10 51.94 42.18 C 51.97 45.25 49.22 47.99 46.14 47.94 C 35.76 48.09 25.37 47.96 14.98 48.00 C 11.89 48.33 8.55 46.28 8.15 43.06 C 7.77 38.78 8.10 34.48 8.00 30.19 C 6.27 30.09 3.36 29.76 4.09 27.27 C 5.53 25.14 8.67 26.07 10.84 26.18 C 13.06 28.06 11.63 31.59 11.97 34.15 C 15.68 36.46 20.27 36.45 24.00 34.19 C 27.72 36.45 32.28 36.44 36.00 34.19 C 39.73 36.45 44.32 36.46 48.03 34.15 C 47.83 28.48 48.29 22.78 47.82 17.13 C 47.11 15.67 45.34 16.13 44.05 15.98 C 34.03 16.08 24.00 15.88 13.98 16.07 C 10.54 16.09 13.46 21.86 10.02 21.95 C 7.99 21.95 4.39 22.84 3.93 19.99 C 4.07 17.95 6.31 18.12 7.78 17.82 C 8.40 15.24 10.02 12.45 12.93 12.15 C 20.05 11.76 27.20 12.15 34.33 11.98 Z" />
</g>
</svg>
