<?xml version="1.0" encoding="UTF-8" ?>
<!DOCTYPE svg PUBLIC "-//W3C//DTD SVG 1.1//EN" "http://www.w3.org/Graphics/SVG/1.1/DTD/svg11.dtd">
<svg width="60pt" height="60pt" viewBox="0 0 60 60" version="1.1" xmlns="http://www.w3.org/2000/svg">
<g id="#ffffffff">
<path fill="#ffffff" opacity="1.00" d=" M 0.00 0.00 L 60.00 0.00 L 60.00 60.00 L 0.00 60.00 L 0.00 0.00 M 28.07 9.94 C 27.89 18.90 28.05 27.86 28.00 36.81 C 21.50 40.38 15.00 43.95 8.47 47.47 C 7.63 48.21 5.71 48.52 6.04 50.00 C 5.64 51.79 8.22 52.56 9.38 51.49 C 16.30 47.83 23.14 44.03 30.00 40.28 C 36.43 43.73 42.82 47.24 49.21 50.77 C 50.52 51.40 52.06 52.67 53.48 51.51 C 54.79 50.18 53.67 48.42 52.23 47.84 C 45.52 44.11 38.73 40.51 32.00 36.81 C 32.00 28.52 31.99 20.23 32.02 11.94 C 31.95 10.59 32.22 8.94 30.88 8.08 C 29.58 7.67 27.97 8.41 28.07 9.94 M 35.61 8.00 C 36.78 11.41 37.93 14.82 39.06 18.25 C 37.19 18.62 36.35 19.72 36.54 21.52 C 38.43 21.16 41.06 21.39 42.09 19.36 C 43.79 15.73 44.67 11.78 46.00 8.00 C 45.18 8.00 43.54 8.00 42.72 8.00 C 42.09 10.47 41.52 12.96 40.88 15.43 C 40.24 12.96 39.66 10.47 39.05 8.00 C 38.19 8.00 36.47 8.00 35.61 8.00 M 5.77 30.00 C 5.77 30.60 5.77 31.80 5.77 32.39 C 7.34 32.40 8.92 32.41 10.49 32.41 C 8.66 34.84 6.08 36.90 5.37 39.99 C 8.36 40.01 11.35 39.99 14.34 40.00 C 14.34 39.40 14.34 38.20 14.34 37.60 C 12.82 37.60 11.29 37.59 9.77 37.59 C 11.53 35.20 13.97 33.11 14.44 30.03 C 11.55 29.98 8.66 30.00 5.77 30.00 M 44.91 30.00 C 45.92 31.69 46.91 33.39 47.91 35.09 C 46.92 36.72 45.93 38.36 44.94 39.99 C 45.76 39.99 47.40 40.00 48.22 40.01 C 48.79 38.93 49.36 37.86 49.93 36.79 C 50.35 37.59 51.18 39.19 51.59 39.99 C 52.47 39.99 54.23 40.00 55.10 40.01 C 54.08 38.32 53.08 36.64 52.06 34.95 C 53.07 33.28 54.09 31.62 55.13 29.98 C 53.92 29.94 52.71 29.99 51.50 30.12 C 51.05 31.19 50.58 32.25 50.09 33.30 C 49.56 32.21 49.05 31.11 48.54 30.01 C 47.64 30.01 45.82 30.00 44.91 30.00 Z" />
</g>
<g id="#000000ff">
<path fill="#000000" opacity="1.00" d=" M 28.07 9.94 C 27.97 8.41 29.58 7.67 30.88 8.08 C 32.22 8.94 31.95 10.59 32.02 11.94 C 31.99 20.23 32.00 28.52 32.00 36.81 C 38.73 40.51 45.52 44.11 52.23 47.84 C 53.67 48.42 54.79 50.18 53.48 51.51 C 52.06 52.67 50.52 51.40 49.21 50.77 C 42.82 47.24 36.43 43.73 30.00 40.28 C 23.14 44.03 16.30 47.83 9.38 51.49 C 8.22 52.56 5.64 51.79 6.04 50.00 C 5.71 48.52 7.63 48.21 8.47 47.47 C 15.00 43.95 21.50 40.38 28.00 36.81 C 28.05 27.86 27.89 18.90 28.07 9.94 Z" />
<path fill="#000000" opacity="1.00" d=" M 35.61 8.00 C 36.47 8.00 38.19 8.00 39.05 8.00 C 39.66 10.47 40.24 12.96 40.88 15.43 C 41.52 12.96 42.09 10.47 42.72 8.00 C 43.54 8.00 45.18 8.00 46.00 8.00 C 44.67 11.78 43.79 15.73 42.09 19.36 C 41.06 21.39 38.43 21.16 36.54 21.52 C 36.35 19.72 37.19 18.62 39.06 18.25 C 37.93 14.82 36.78 11.41 35.61 8.00 Z" />
<path fill="#000000" opacity="1.00" d=" M 5.77 30.00 C 8.66 30.00 11.55 29.98 14.44 30.03 C 13.97 33.11 11.53 35.20 9.77 37.59 C 11.29 37.59 12.82 37.60 14.34 37.60 C 14.34 38.20 14.34 39.40 14.34 40.00 C 11.35 39.99 8.36 40.01 5.37 39.99 C 6.08 36.90 8.66 34.84 10.49 32.41 C 8.92 32.41 7.34 32.40 5.77 32.39 C 5.77 31.80 5.77 30.60 5.77 30.00 Z" />
<path fill="#000000" opacity="1.00" d=" M 44.91 30.00 C 45.82 30.00 47.64 30.01 48.54 30.01 C 49.05 31.11 49.56 32.21 50.09 33.30 C 50.58 32.25 51.05 31.19 51.50 30.12 C 52.71 29.99 53.92 29.94 55.13 29.98 C 54.09 31.62 53.07 33.28 52.06 34.95 C 53.08 36.64 54.08 38.32 55.10 40.01 C 54.23 40.00 52.47 39.99 51.59 39.99 C 51.18 39.19 50.35 37.59 49.93 36.79 C 49.36 37.86 48.79 38.93 48.22 40.01 C 47.40 40.00 45.76 39.99 44.94 39.99 C 45.93 38.36 46.92 36.72 47.91 35.09 C 46.91 33.39 45.92 31.69 44.91 30.00 Z" />
</g>
</svg>
