<?xml version="1.0" encoding="UTF-8" ?>
<!DOCTYPE svg PUBLIC "-//W3C//DTD SVG 1.1//EN" "http://www.w3.org/Graphics/SVG/1.1/DTD/svg11.dtd">
<svg width="60pt" height="60pt" viewBox="0 0 60 60" version="1.1" xmlns="http://www.w3.org/2000/svg">
<g id="#ffffffff">
<path fill="#ffffff" opacity="1.00" d=" M 0.00 0.00 L 60.00 0.00 L 60.00 60.00 L 0.00 60.00 L 0.00 0.00 M 48.26 4.33 C 40.20 6.23 32.13 8.05 24.08 9.97 C 22.74 10.02 21.44 11.46 22.19 12.77 C 22.88 14.68 25.17 13.70 26.60 13.48 C 34.61 11.45 42.77 9.98 50.73 7.79 C 53.78 6.46 50.77 2.64 48.26 4.33 M 7.11 10.17 C 5.11 11.75 6.32 14.79 5.96 17.00 C 6.14 18.68 5.37 21.88 7.92 21.92 C 21.96 22.12 36.01 21.92 50.05 22.02 C 51.36 21.89 53.13 22.32 53.84 20.84 C 54.16 19.19 54.47 16.04 52.02 16.07 C 41.08 15.79 30.12 16.27 19.19 15.84 C 16.97 14.69 19.03 11.29 16.80 10.15 C 13.58 9.87 10.33 9.87 7.11 10.17 M 6.04 27.94 C 6.05 35.59 5.79 43.28 6.18 50.92 C 8.10 53.00 11.48 51.63 14.00 51.99 C 14.09 48.38 13.78 44.76 14.16 41.16 C 14.85 39.66 16.64 40.11 17.95 39.98 C 26.91 40.13 35.89 39.77 44.84 40.16 C 45.09 40.41 45.59 40.92 45.84 41.18 C 46.22 44.77 45.91 48.39 46.00 51.99 C 48.52 51.62 51.95 53.03 53.83 50.88 C 54.15 42.98 54.06 35.04 53.87 27.14 C 53.63 26.85 53.13 26.28 52.89 25.99 C 38.62 25.53 24.30 25.95 10.01 25.78 C 8.45 25.71 5.85 25.70 6.04 27.94 M 18.00 46.00 C 18.00 48.00 18.00 50.00 18.00 52.00 C 26.00 52.00 34.00 52.00 42.00 52.00 C 42.00 50.00 42.00 48.00 42.00 46.00 C 34.00 46.00 26.00 46.00 18.00 46.00 Z" />
<path fill="#ffffff" opacity="1.00" d=" M 39.17 30.12 C 41.57 29.18 43.11 32.71 40.86 33.87 C 38.44 34.86 36.85 31.23 39.17 30.12 Z" />
<path fill="#ffffff" opacity="1.00" d=" M 47.13 30.11 C 49.48 29.11 51.22 32.78 48.81 33.79 C 46.51 34.97 44.86 31.23 47.13 30.11 Z" />
</g>
<g id="#000000ff">
<path fill="#000000" opacity="1.00" d=" M 48.26 4.33 C 50.77 2.64 53.78 6.46 50.73 7.79 C 42.77 9.98 34.61 11.45 26.60 13.48 C 25.17 13.70 22.88 14.68 22.19 12.77 C 21.44 11.46 22.74 10.02 24.08 9.97 C 32.13 8.05 40.20 6.23 48.26 4.33 Z" />
<path fill="#000000" opacity="1.00" d=" M 7.11 10.17 C 10.33 9.87 13.58 9.87 16.80 10.15 C 19.03 11.29 16.97 14.69 19.19 15.84 C 30.12 16.27 41.08 15.79 52.02 16.07 C 54.47 16.04 54.16 19.19 53.84 20.84 C 53.13 22.32 51.36 21.89 50.05 22.02 C 36.01 21.92 21.96 22.12 7.92 21.92 C 5.37 21.88 6.14 18.68 5.96 17.00 C 6.32 14.79 5.11 11.75 7.11 10.17 Z" />
<path fill="#000000" opacity="1.00" d=" M 6.04 27.94 C 5.85 25.70 8.45 25.71 10.01 25.78 C 24.30 25.95 38.62 25.53 52.89 25.99 C 53.13 26.28 53.63 26.85 53.87 27.14 C 54.06 35.04 54.15 42.98 53.83 50.88 C 51.95 53.03 48.52 51.62 46.00 51.99 C 45.91 48.39 46.22 44.77 45.84 41.18 C 45.59 40.92 45.09 40.41 44.84 40.16 C 35.89 39.77 26.91 40.13 17.95 39.98 C 16.64 40.11 14.85 39.66 14.16 41.16 C 13.78 44.76 14.09 48.38 14.00 51.99 C 11.48 51.63 8.10 53.00 6.18 50.92 C 5.79 43.28 6.05 35.59 6.04 27.94 M 39.17 30.12 C 36.85 31.23 38.44 34.86 40.86 33.87 C 43.11 32.71 41.57 29.18 39.17 30.12 M 47.13 30.11 C 44.86 31.23 46.51 34.97 48.81 33.79 C 51.22 32.78 49.48 29.11 47.13 30.11 Z" />
<path fill="#000000" opacity="1.00" d=" M 18.00 46.00 C 26.00 46.00 34.00 46.00 42.00 46.00 C 42.00 48.00 42.00 50.00 42.00 52.00 C 34.00 52.00 26.00 52.00 18.00 52.00 C 18.00 50.00 18.00 48.00 18.00 46.00 Z" />
</g>
</svg>
