<?xml version="1.0" encoding="UTF-8" ?>
<!DOCTYPE svg PUBLIC "-//W3C//DTD SVG 1.1//EN" "http://www.w3.org/Graphics/SVG/1.1/DTD/svg11.dtd">
<svg width="64pt" height="64pt" viewBox="0 0 64 64" version="1.1" xmlns="http://www.w3.org/2000/svg">
<g id="#ffffffff">
<path fill="#ffffff" opacity="1.00" d=" M 0.00 0.00 L 64.00 0.00 L 64.00 64.00 L 0.00 64.00 L 0.00 0.00 M 12.17 8.04 C 11.58 12.92 10.78 17.78 10.37 22.69 C 12.95 19.72 15.45 16.68 17.88 13.57 C 26.89 10.70 36.67 12.37 46.00 11.83 C 46.00 25.23 46.00 38.63 46.00 52.03 C 36.18 52.03 26.35 51.97 16.53 51.78 C 15.49 49.58 14.49 47.36 13.36 45.20 C 12.97 47.90 12.19 53.31 11.80 56.01 C 24.56 56.00 37.31 56.00 50.07 55.97 C 52.52 50.19 54.06 43.73 50.88 37.97 C 53.55 33.46 53.53 28.43 50.77 23.97 C 51.94 21.70 52.98 19.36 53.75 16.92 C 53.56 11.26 48.00 6.02 42.04 7.94 C 32.09 7.74 22.13 7.95 12.17 8.04 M 20.00 20.00 C 20.00 21.33 20.00 22.67 20.00 24.00 C 27.33 24.01 34.67 24.00 42.00 24.00 C 42.00 22.67 42.00 21.33 42.00 20.00 C 34.67 19.99 27.33 20.00 20.00 20.00 M 12.32 24.12 C 11.46 26.71 10.54 29.28 9.69 31.88 C 11.27 31.91 14.44 31.98 16.02 32.01 C 16.00 29.33 15.98 26.64 15.95 23.96 C 14.74 24.01 13.53 24.07 12.32 24.12 M 24.00 28.00 C 24.00 29.33 24.00 30.67 24.00 32.00 C 28.67 32.00 33.33 32.00 38.00 32.00 C 38.00 30.67 38.00 29.33 38.00 28.00 C 33.33 28.00 28.67 28.00 24.00 28.00 M 12.32 34.12 C 11.46 36.71 10.54 39.28 9.69 41.88 C 11.27 41.91 14.44 41.98 16.02 42.01 C 16.00 39.33 15.98 36.64 15.95 33.96 C 14.74 34.01 13.53 34.07 12.32 34.12 Z" />
</g>
<g id="#000000ff">
<path fill="#000000" opacity="1.00" d=" M 12.17 8.04 C 22.13 7.95 32.09 7.74 42.04 7.94 C 48.00 6.02 53.56 11.26 53.75 16.92 C 52.98 19.36 51.94 21.70 50.77 23.97 C 53.53 28.43 53.55 33.46 50.88 37.97 C 54.06 43.73 52.52 50.19 50.07 55.97 C 37.31 56.00 24.56 56.00 11.80 56.01 C 12.19 53.31 12.97 47.90 13.36 45.20 C 14.49 47.36 15.49 49.58 16.53 51.78 C 26.35 51.97 36.18 52.03 46.00 52.03 C 46.00 38.63 46.00 25.23 46.00 11.83 C 36.67 12.37 26.89 10.70 17.88 13.57 C 15.45 16.68 12.95 19.72 10.37 22.69 C 10.78 17.78 11.58 12.92 12.17 8.04 Z" />
<path fill="#000000" opacity="1.00" d=" M 20.00 20.00 C 27.33 20.00 34.67 19.99 42.00 20.00 C 42.00 21.33 42.00 22.67 42.00 24.00 C 34.67 24.00 27.33 24.01 20.00 24.00 C 20.00 22.67 20.00 21.33 20.00 20.00 Z" />
<path fill="#000000" opacity="1.00" d=" M 12.32 24.12 C 13.53 24.07 14.74 24.01 15.95 23.96 C 15.98 26.64 16.00 29.33 16.02 32.01 C 14.44 31.98 11.27 31.91 9.69 31.88 C 10.54 29.28 11.46 26.71 12.32 24.12 Z" />
<path fill="#000000" opacity="1.00" d=" M 24.00 28.00 C 28.67 28.00 33.33 28.00 38.00 28.00 C 38.00 29.33 38.00 30.67 38.00 32.00 C 33.33 32.00 28.67 32.00 24.00 32.00 C 24.00 30.67 24.00 29.33 24.00 28.00 Z" />
<path fill="#000000" opacity="1.00" d=" M 12.32 34.12 C 13.53 34.07 14.74 34.01 15.95 33.96 C 15.98 36.64 16.00 39.33 16.02 42.01 C 14.44 41.98 11.27 41.91 9.69 41.88 C 10.54 39.28 11.46 36.71 12.32 34.12 Z" />
</g>
</svg>
