<?xml version="1.0" encoding="UTF-8" ?>
<!DOCTYPE svg PUBLIC "-//W3C//DTD SVG 1.1//EN" "http://www.w3.org/Graphics/SVG/1.1/DTD/svg11.dtd">
<svg width="200pt" height="200pt" viewBox="0 0 200 200" version="1.1" xmlns="http://www.w3.org/2000/svg">
<g id="#ffffffff">
<path fill="#ffffff" opacity="1.00" d=" M 0.00 0.00 L 200.00 0.00 L 200.00 200.00 L 0.00 200.00 L 0.00 0.00 M 86.20 12.26 C 80.91 19.01 79.33 28.00 80.24 36.37 C 93.06 32.01 107.33 31.76 120.07 36.56 C 121.08 28.46 119.61 19.81 114.79 13.08 C 111.62 8.59 106.60 5.08 100.98 4.84 C 95.15 4.47 89.65 7.74 86.20 12.26 M 32.85 49.82 C 26.05 56.68 20.71 64.86 16.22 73.37 C 13.98 77.52 14.48 82.90 17.32 86.65 C 20.59 91.22 27.00 93.27 32.26 91.18 C 34.97 90.09 37.93 88.30 38.42 85.15 C 41.95 71.08 49.61 58.06 60.39 48.33 C 55.52 45.19 49.89 42.27 43.90 43.08 C 39.42 43.62 35.95 46.82 32.85 49.82 M 74.17 50.56 C 79.96 60.64 85.79 70.71 91.58 80.79 C 97.15 80.80 102.73 80.81 108.30 80.79 C 114.10 70.62 119.99 60.51 125.81 50.35 C 110.40 40.49 89.51 40.60 74.17 50.56 M 139.58 48.31 C 149.98 57.74 157.56 70.19 161.18 83.75 C 162.35 90.46 171.00 93.30 176.83 90.97 C 183.53 88.81 187.16 80.45 184.10 74.09 C 179.84 65.72 174.62 57.74 168.17 50.88 C 164.82 47.48 161.08 43.77 156.11 43.17 C 150.12 42.34 144.48 45.19 139.58 48.31 M 45.95 100.39 C 55.50 100.39 65.06 100.40 74.61 100.38 C 77.39 95.51 80.21 90.66 83.00 85.79 C 77.38 76.12 71.79 66.44 66.17 56.78 C 54.03 67.94 47.09 84.05 45.95 100.39 M 117.00 85.60 C 119.80 90.46 122.59 95.32 125.38 100.18 C 134.93 100.20 144.48 100.19 154.04 100.18 C 152.88 83.84 145.94 67.75 133.82 56.56 C 128.20 66.23 122.60 75.92 117.00 85.60 M 83.19 105.18 C 85.98 110.05 88.79 114.91 91.57 119.78 C 97.18 119.81 102.79 119.81 108.41 119.79 C 111.18 114.91 114.00 110.05 116.80 105.19 C 113.99 100.32 111.19 95.45 108.38 90.59 C 102.79 90.59 97.20 90.59 91.60 90.59 C 88.79 95.45 85.99 100.32 83.19 105.18 M 45.97 110.19 C 47.07 126.54 54.04 142.65 66.16 153.83 C 71.78 144.15 77.39 134.47 83.00 124.79 C 80.20 119.93 77.39 115.06 74.60 110.19 C 65.05 110.18 55.51 110.18 45.97 110.19 M 125.38 110.19 C 122.59 115.06 119.80 119.93 117.00 124.79 C 122.61 134.47 128.20 144.16 133.82 153.82 C 145.93 142.63 152.89 126.54 154.03 110.19 C 144.48 110.18 134.93 110.18 125.38 110.19 M 74.17 159.83 C 89.54 169.84 110.32 169.71 125.81 160.03 C 120.00 149.95 114.20 139.86 108.38 129.79 C 102.75 129.80 97.12 129.80 91.49 129.78 C 85.70 139.79 79.94 149.81 74.17 159.83 M 43.52 138.97 C 39.21 142.75 34.94 147.23 33.76 153.05 C 32.67 157.77 34.63 162.42 36.70 166.56 C 41.60 176.06 48.51 184.42 56.02 191.97 C 61.19 197.00 70.70 195.56 74.21 189.28 C 77.78 183.64 74.76 177.01 74.00 171.03 C 60.58 164.18 49.89 152.56 43.52 138.97 M 126.18 171.04 C 125.47 176.92 122.44 183.45 125.91 188.99 C 129.49 195.49 139.36 196.72 144.51 191.43 C 151.44 184.25 157.90 176.47 162.72 167.70 C 164.93 163.51 167.26 158.93 166.51 154.05 C 165.67 147.82 161.19 142.95 156.66 138.96 C 150.06 152.41 139.59 164.15 126.18 171.04 Z" />
</g>
<g id="#000000ff">
<path fill="#968176" opacity="1.00" d=" M 86.20 12.26 C 89.65 7.74 95.15 4.47 100.98 4.84 C 106.60 5.08 111.62 8.59 114.79 13.08 C 119.61 19.81 121.08 28.46 120.07 36.56 C 107.33 31.76 93.06 32.01 80.24 36.37 C 79.33 28.00 80.91 19.01 86.20 12.26 Z" />
<path fill="#968176" opacity="1.00" d=" M 32.85 49.82 C 35.95 46.82 39.42 43.62 43.90 43.08 C 49.89 42.27 55.52 45.19 60.39 48.33 C 49.61 58.06 41.95 71.08 38.42 85.15 C 37.93 88.30 34.97 90.09 32.26 91.18 C 27.00 93.27 20.59 91.22 17.32 86.65 C 14.48 82.90 13.98 77.52 16.22 73.37 C 20.71 64.86 26.05 56.68 32.85 49.82 Z" />
<path fill="#968176" opacity="1.00" d=" M 74.17 50.56 C 89.51 40.60 110.40 40.49 125.81 50.35 C 119.99 60.51 114.10 70.62 108.30 80.79 C 102.73 80.81 97.15 80.80 91.58 80.79 C 85.79 70.71 79.96 60.64 74.17 50.56 Z" />
<path fill="#968176" opacity="1.00" d=" M 139.58 48.31 C 144.48 45.19 150.12 42.34 156.11 43.17 C 161.08 43.77 164.82 47.48 168.17 50.88 C 174.62 57.74 179.84 65.72 184.10 74.09 C 187.16 80.45 183.53 88.81 176.83 90.97 C 171.00 93.30 162.35 90.46 161.18 83.75 C 157.56 70.19 149.98 57.74 139.58 48.31 Z" />
<path fill="#968176" opacity="1.00" d=" M 45.95 100.39 C 47.09 84.05 54.03 67.94 66.17 56.78 C 71.79 66.44 77.38 76.12 83.00 85.79 C 80.21 90.66 77.39 95.51 74.61 100.38 C 65.06 100.40 55.50 100.39 45.95 100.39 Z" />
<path fill="#968176" opacity="1.00" d=" M 117.00 85.60 C 122.60 75.92 128.20 66.23 133.82 56.56 C 145.94 67.75 152.88 83.84 154.04 100.18 C 144.48 100.19 134.93 100.20 125.38 100.18 C 122.59 95.32 119.80 90.46 117.00 85.60 Z" />
<path fill="#968176" opacity="1.00" d=" M 83.19 105.18 C 85.99 100.32 88.79 95.45 91.60 90.59 C 97.20 90.59 102.79 90.59 108.38 90.59 C 111.19 95.45 113.99 100.32 116.80 105.19 C 114.00 110.05 111.18 114.91 108.41 119.79 C 102.79 119.81 97.18 119.81 91.57 119.78 C 88.79 114.91 85.98 110.05 83.19 105.18 Z" />
<path fill="#968176" opacity="1.00" d=" M 45.97 110.19 C 55.51 110.18 65.05 110.18 74.60 110.19 C 77.39 115.06 80.20 119.93 83.00 124.79 C 77.39 134.47 71.78 144.15 66.16 153.83 C 54.04 142.65 47.07 126.54 45.97 110.19 Z" />
<path fill="#968176" opacity="1.00" d=" M 125.38 110.19 C 134.93 110.18 144.48 110.18 154.03 110.19 C 152.89 126.54 145.93 142.63 133.82 153.82 C 128.20 144.16 122.61 134.47 117.00 124.79 C 119.80 119.93 122.59 115.06 125.38 110.19 Z" />
<path fill="#968176" opacity="1.00" d=" M 74.17 159.83 C 79.94 149.81 85.70 139.79 91.49 129.78 C 97.12 129.80 102.75 129.80 108.38 129.79 C 114.20 139.86 120.00 149.95 125.81 160.03 C 110.32 169.71 89.54 169.84 74.17 159.83 Z" />
<path fill="#968176" opacity="1.00" d=" M 43.52 138.97 C 49.89 152.56 60.58 164.18 74.00 171.03 C 74.76 177.01 77.78 183.64 74.21 189.28 C 70.70 195.56 61.19 197.00 56.02 191.97 C 48.51 184.42 41.60 176.06 36.70 166.56 C 34.63 162.42 32.67 157.77 33.76 153.05 C 34.94 147.23 39.21 142.75 43.52 138.97 Z" />
<path fill="#968176" opacity="1.00" d=" M 126.18 171.04 C 139.59 164.15 150.06 152.41 156.66 138.96 C 161.19 142.95 165.67 147.82 166.51 154.05 C 167.26 158.93 164.93 163.51 162.72 167.70 C 157.90 176.47 151.44 184.25 144.51 191.43 C 139.36 196.72 129.49 195.49 125.91 188.99 C 122.44 183.45 125.47 176.92 126.18 171.04 Z" />
</g>
</svg>
