<?xml version="1.0" encoding="UTF-8" ?>
<!DOCTYPE svg PUBLIC "-//W3C//DTD SVG 1.1//EN" "http://www.w3.org/Graphics/SVG/1.1/DTD/svg11.dtd">
<svg width="64pt" height="64pt" viewBox="0 0 64 64" version="1.1" xmlns="http://www.w3.org/2000/svg">
<g id="#ffffffff">
<path fill="#ffffff" opacity="1.00" d=" M 0.00 0.00 L 64.00 0.00 L 64.00 64.00 L 0.00 64.00 L 0.00 0.00 M 42.52 10.11 C 40.64 15.43 38.58 20.69 36.64 25.99 C 33.41 25.99 30.18 26.09 26.96 25.96 C 22.70 25.55 18.43 22.90 14.14 24.59 C 11.00 25.96 8.01 27.66 4.91 29.13 C 5.40 30.87 6.42 32.02 7.95 32.58 C 8.11 35.10 8.42 37.61 9.16 40.03 C 10.79 44.03 7.76 47.93 7.83 51.99 C 9.16 52.00 10.49 52.00 11.81 52.01 C 12.29 48.74 13.23 45.56 14.08 42.38 C 13.11 38.68 11.15 34.64 12.55 30.83 C 13.96 27.69 17.81 27.65 20.61 28.66 C 26.65 30.81 33.11 29.77 39.38 30.00 C 41.01 25.54 42.83 21.14 44.24 16.60 C 45.47 18.15 47.43 18.04 49.20 18.11 C 51.26 20.12 53.62 21.78 56.09 23.23 C 53.99 25.52 50.90 25.92 48.00 26.38 C 47.95 29.95 48.15 33.53 47.91 37.10 C 47.02 39.38 45.18 41.15 44.14 43.36 C 43.82 46.23 44.04 49.12 44.01 52.00 C 45.34 52.00 46.67 52.00 48.00 52.00 C 48.01 49.61 47.88 47.21 48.10 44.83 C 49.05 42.60 50.81 40.82 51.86 38.64 C 52.19 35.69 51.96 32.70 52.00 29.74 C 55.38 29.54 57.74 27.16 60.00 24.92 C 60.00 23.58 60.00 22.24 60.00 20.90 C 56.60 19.05 53.42 16.84 50.77 14.00 C 50.03 14.00 48.55 14.00 47.82 14.00 C 46.96 12.65 46.11 11.30 45.27 9.94 C 44.58 9.98 43.20 10.07 42.52 10.11 M 18.45 39.99 C 17.49 43.97 16.21 47.90 15.84 51.99 C 17.17 52.00 18.50 52.00 19.83 52.01 C 20.19 49.22 20.93 46.52 21.59 43.80 C 26.37 44.75 31.03 46.57 36.00 46.04 C 36.00 48.02 36.00 50.01 36.00 52.00 C 37.33 52.00 38.67 52.00 40.00 52.00 C 40.00 48.67 40.00 45.33 40.00 42.00 C 35.63 41.96 31.12 42.42 26.94 40.85 C 24.23 39.76 21.30 39.99 18.45 39.99 Z" />
</g>
<g id="#000000ff">
<path fill="#000000" opacity="1.00" d=" M 42.52 10.11 C 43.20 10.07 44.58 9.98 45.27 9.94 C 46.11 11.30 46.96 12.65 47.82 14.00 C 48.55 14.00 50.03 14.00 50.77 14.00 C 53.42 16.84 56.60 19.05 60.00 20.90 C 60.00 22.24 60.00 23.58 60.00 24.92 C 57.74 27.16 55.38 29.54 52.00 29.74 C 51.96 32.70 52.19 35.69 51.86 38.64 C 50.81 40.82 49.05 42.60 48.10 44.83 C 47.88 47.21 48.01 49.61 48.00 52.00 C 46.67 52.00 45.34 52.00 44.01 52.00 C 44.04 49.12 43.82 46.23 44.14 43.36 C 45.18 41.15 47.02 39.38 47.91 37.10 C 48.15 33.53 47.95 29.95 48.00 26.38 C 50.90 25.92 53.99 25.52 56.09 23.23 C 53.62 21.78 51.26 20.12 49.20 18.11 C 47.43 18.04 45.47 18.15 44.24 16.60 C 42.83 21.14 41.01 25.54 39.38 30.00 C 33.11 29.77 26.65 30.81 20.61 28.66 C 17.81 27.65 13.96 27.69 12.55 30.83 C 11.15 34.64 13.11 38.68 14.08 42.38 C 13.23 45.56 12.29 48.74 11.81 52.01 C 10.49 52.00 9.16 52.00 7.83 51.99 C 7.76 47.93 10.79 44.03 9.16 40.03 C 8.42 37.61 8.11 35.10 7.95 32.58 C 6.42 32.02 5.40 30.87 4.91 29.13 C 8.01 27.66 11.00 25.96 14.14 24.59 C 18.43 22.90 22.70 25.55 26.96 25.96 C 30.18 26.09 33.41 25.99 36.64 25.99 C 38.58 20.69 40.64 15.43 42.52 10.11 Z" />
<path fill="#000000" opacity="1.00" d=" M 18.45 39.99 C 21.30 39.99 24.23 39.76 26.94 40.85 C 31.12 42.42 35.63 41.96 40.00 42.00 C 40.00 45.33 40.00 48.67 40.00 52.00 C 38.67 52.00 37.33 52.00 36.00 52.00 C 36.00 50.01 36.00 48.02 36.00 46.04 C 31.03 46.57 26.37 44.75 21.59 43.80 C 20.93 46.52 20.19 49.22 19.83 52.01 C 18.50 52.00 17.17 52.00 15.84 51.99 C 16.21 47.90 17.49 43.97 18.45 39.99 Z" />
</g>
</svg>
