<?xml version="1.0" encoding="UTF-8" ?>
<!DOCTYPE svg PUBLIC "-//W3C//DTD SVG 1.1//EN" "http://www.w3.org/Graphics/SVG/1.1/DTD/svg11.dtd">
<svg width="60pt" height="60pt" viewBox="0 0 60 60" version="1.1" xmlns="http://www.w3.org/2000/svg">
<g id="#ffffffff">
<path fill="#ffffff" opacity="1.00" d=" M 0.00 0.00 L 60.00 0.00 L 60.00 60.00 L 0.00 60.00 L 0.00 0.00 M 50.09 6.13 C 49.02 6.67 48.21 7.56 47.36 8.36 C 39.26 16.58 31.06 24.70 22.92 32.86 C 19.72 34.82 16.51 37.02 14.55 40.31 C 12.61 44.24 8.56 46.41 6.12 49.96 C 5.19 52.28 7.67 54.79 10.00 53.89 C 13.58 51.47 15.76 47.41 19.69 45.46 C 22.98 43.51 25.15 40.29 27.13 37.12 C 35.78 28.39 44.60 19.81 53.16 10.99 C 55.43 9.01 52.88 4.99 50.09 6.13 M 24.37 47.34 C 26.43 48.85 27.85 52.35 30.79 51.84 C 34.08 49.17 28.95 46.41 27.34 44.37 C 26.36 45.37 25.37 46.36 24.37 47.34 Z" />
</g>
<g id="#000000ff">
<path fill="#000000" opacity="1.00" d=" M 50.09 6.13 C 52.88 4.99 55.43 9.01 53.16 10.99 C 44.60 19.81 35.78 28.39 27.13 37.12 C 25.15 40.29 22.98 43.51 19.69 45.46 C 15.76 47.41 13.58 51.47 10.00 53.89 C 7.67 54.79 5.19 52.28 6.12 49.96 C 8.56 46.41 12.61 44.24 14.55 40.31 C 16.51 37.02 19.72 34.82 22.92 32.86 C 31.06 24.70 39.26 16.58 47.36 8.36 C 48.21 7.56 49.02 6.67 50.09 6.13 Z" />
<path fill="#000000" opacity="1.00" d=" M 24.37 47.34 C 25.37 46.36 26.36 45.37 27.34 44.37 C 28.95 46.41 34.08 49.17 30.79 51.84 C 27.85 52.35 26.43 48.85 24.37 47.34 Z" />
</g>
</svg>
