<?xml version="1.0" encoding="UTF-8" ?>
<!DOCTYPE svg PUBLIC "-//W3C//DTD SVG 1.1//EN" "http://www.w3.org/Graphics/SVG/1.1/DTD/svg11.dtd">
<svg width="60pt" height="60pt" viewBox="0 0 60 60" version="1.1" xmlns="http://www.w3.org/2000/svg">
<g id="#ffffffff">
<path fill="#ffffff" opacity="1.00" d=" M 0.00 0.00 L 60.00 0.00 L 60.00 60.00 L 0.00 60.00 L 0.00 0.00 M 24.14 10.16 C 16.93 8.50 9.92 16.04 12.56 23.08 C 11.25 25.18 10.00 27.46 10.02 30.01 C 9.85 32.87 12.24 35.11 12.10 37.96 C 12.02 39.96 12.79 41.82 13.54 43.63 C 11.12 46.21 8.36 48.47 6.16 51.25 C 5.39 52.81 7.24 54.65 8.75 53.79 C 11.58 51.67 13.78 48.85 16.36 46.45 C 19.16 47.86 22.31 48.44 25.33 47.32 C 27.36 48.62 29.50 50.08 32.02 49.98 C 35.03 50.09 37.51 48.16 39.57 46.20 C 46.29 46.16 51.99 39.22 49.32 32.66 C 51.59 29.83 52.68 26.16 51.33 22.65 C 54.56 18.97 54.94 13.09 51.48 9.42 C 48.23 5.48 42.24 5.09 38.18 7.99 C 33.70 4.76 27.45 5.79 24.14 10.16 Z" />
<path fill="#ffffff" opacity="1.00" d=" M 25.81 14.14 C 27.21 12.86 28.16 10.94 30.07 10.35 C 32.63 9.36 35.61 10.63 37.08 12.84 C 37.77 14.31 37.94 15.97 38.66 17.43 C 39.48 18.49 41.34 17.99 41.84 16.82 C 42.33 14.74 41.29 12.76 40.72 10.82 C 43.41 9.67 46.90 9.71 48.73 12.31 C 50.89 14.88 49.97 18.53 47.80 20.75 C 46.25 22.25 47.98 24.29 47.95 26.07 C 48.19 28.50 45.89 29.97 45.09 32.03 C 45.52 34.37 46.69 36.97 45.10 39.15 C 43.71 41.70 40.60 42.09 37.99 42.12 C 36.42 43.95 34.65 46.16 31.95 45.98 C 29.52 46.15 28.02 43.96 26.00 43.07 C 24.66 43.32 23.36 43.73 22.02 43.94 C 18.89 44.14 15.81 41.25 16.17 38.06 C 16.34 36.27 16.07 34.52 14.97 33.05 C 13.07 30.43 14.16 26.49 16.89 24.92 C 19.01 23.40 21.65 24.56 24.02 24.30 C 25.00 23.45 25.18 22.46 24.54 21.32 C 22.02 19.35 18.64 20.15 15.77 20.67 C 16.10 18.27 16.96 15.60 19.40 14.59 C 21.41 13.45 23.73 14.79 25.81 14.14 M 25.11 33.00 C 24.67 33.49 23.77 34.49 23.32 34.98 C 26.56 40.70 35.32 41.71 39.49 36.51 C 41.00 35.30 39.88 32.86 38.04 32.96 C 35.82 34.23 33.81 36.64 30.95 35.89 C 28.68 35.62 27.44 32.98 25.11 33.00 Z" />
</g>
<g id="#000000ff">
<path fill="#000000" opacity="1.00" d=" M 24.14 10.16 C 27.45 5.79 33.70 4.76 38.18 7.99 C 42.24 5.09 48.23 5.48 51.48 9.42 C 54.94 13.09 54.56 18.97 51.33 22.65 C 52.68 26.16 51.59 29.83 49.32 32.66 C 51.99 39.22 46.29 46.16 39.57 46.20 C 37.51 48.16 35.03 50.09 32.02 49.98 C 29.50 50.08 27.36 48.62 25.33 47.32 C 22.31 48.44 19.16 47.86 16.36 46.45 C 13.78 48.85 11.58 51.67 8.75 53.79 C 7.24 54.65 5.39 52.81 6.16 51.25 C 8.36 48.47 11.12 46.21 13.54 43.63 C 12.79 41.82 12.02 39.96 12.10 37.96 C 12.24 35.11 9.85 32.87 10.02 30.01 C 10.00 27.46 11.25 25.18 12.56 23.08 C 9.92 16.04 16.93 8.50 24.14 10.16 M 25.81 14.14 C 23.73 14.79 21.41 13.45 19.40 14.59 C 16.96 15.60 16.10 18.27 15.77 20.67 C 18.64 20.15 22.02 19.35 24.54 21.32 C 25.18 22.46 25.00 23.45 24.02 24.30 C 21.65 24.56 19.01 23.40 16.89 24.92 C 14.16 26.49 13.07 30.43 14.97 33.05 C 16.07 34.52 16.34 36.27 16.17 38.06 C 15.81 41.25 18.89 44.14 22.02 43.94 C 23.36 43.73 24.66 43.32 26.00 43.07 C 28.02 43.96 29.52 46.15 31.95 45.98 C 34.65 46.16 36.42 43.95 37.99 42.12 C 40.60 42.09 43.71 41.70 45.10 39.15 C 46.69 36.97 45.52 34.37 45.09 32.03 C 45.89 29.97 48.19 28.50 47.95 26.07 C 47.98 24.29 46.25 22.25 47.80 20.75 C 49.97 18.53 50.89 14.88 48.73 12.31 C 46.90 9.71 43.41 9.67 40.72 10.82 C 41.29 12.76 42.33 14.74 41.84 16.82 C 41.34 17.99 39.48 18.49 38.66 17.43 C 37.94 15.97 37.77 14.31 37.08 12.84 C 35.61 10.63 32.63 9.36 30.07 10.35 C 28.16 10.94 27.21 12.86 25.81 14.14 Z" />
<path fill="#000000" opacity="1.00" d=" M 25.11 33.00 C 27.44 32.98 28.68 35.62 30.95 35.89 C 33.81 36.64 35.82 34.23 38.04 32.96 C 39.88 32.86 41.00 35.30 39.49 36.51 C 35.32 41.71 26.56 40.70 23.32 34.98 C 23.77 34.49 24.67 33.49 25.11 33.00 Z" />
</g>
</svg>
