<?xml version="1.0" encoding="UTF-8" ?>
<!DOCTYPE svg PUBLIC "-//W3C//DTD SVG 1.1//EN" "http://www.w3.org/Graphics/SVG/1.1/DTD/svg11.dtd">
<svg width="60pt" height="60pt" viewBox="0 0 60 60" version="1.1" xmlns="http://www.w3.org/2000/svg">
<g id="#ffffffff">
<path fill="#ffffff" opacity="1.00" d=" M 0.00 0.00 L 60.00 0.00 L 60.00 60.00 L 30.72 60.00 C 32.40 58.60 32.74 55.31 30.75 54.06 C 27.29 53.34 27.52 58.05 28.87 60.00 L 0.00 60.00 L 0.00 0.00 M 11.37 13.15 C 7.07 19.86 7.92 28.24 8.19 35.83 C 8.45 39.30 12.07 40.72 13.51 43.57 C 14.78 46.17 16.83 48.20 18.89 50.18 C 19.49 49.00 20.10 47.81 20.70 46.63 C 18.47 44.28 16.73 41.55 15.49 38.56 C 12.48 37.74 11.71 34.80 11.88 32.02 C 12.38 32.01 13.36 31.99 13.85 31.99 C 14.20 29.49 14.84 26.56 17.44 25.48 C 22.55 23.34 28.41 24.47 33.55 22.36 C 36.60 21.28 38.65 18.65 40.19 15.93 C 44.66 19.99 45.89 26.21 46.04 31.99 C 46.56 31.99 47.60 32.01 48.12 32.02 C 48.28 34.79 47.54 37.75 44.51 38.56 C 43.26 41.54 41.52 44.27 39.30 46.63 C 39.90 47.81 40.51 49.00 41.11 50.18 C 43.18 48.20 45.23 46.14 46.51 43.54 C 47.94 40.70 51.55 39.29 51.81 35.82 C 52.22 27.88 52.79 18.97 47.79 12.21 C 46.06 9.64 43.15 8.33 40.19 7.82 C 38.00 5.71 35.19 4.28 32.12 4.13 C 24.37 3.54 15.73 6.36 11.37 13.15 M 24.74 34.37 C 23.09 35.67 21.61 37.18 20.28 38.80 C 21.48 41.23 25.76 39.61 25.97 37.02 C 25.81 36.24 26.07 34.04 24.74 34.37 M 35.09 38.97 C 36.45 40.53 38.52 39.79 40.13 39.14 C 38.40 37.36 36.65 35.59 34.86 33.86 C 34.14 35.47 33.50 37.63 35.09 38.97 M 27.50 44.69 C 26.18 45.38 25.36 47.33 26.59 48.51 C 28.50 50.93 33.58 50.34 34.00 47.00 C 33.68 44.09 29.68 43.28 27.50 44.69 M 22.16 52.16 C 20.65 53.46 18.83 56.53 21.22 57.90 C 24.72 58.97 26.78 50.95 22.16 52.16 M 36.18 52.10 C 32.93 53.89 37.63 60.66 39.83 56.77 C 40.15 54.82 38.65 51.34 36.18 52.10 Z" />
</g>
<g id="#000000ff">
<path fill="#968176" opacity="1.00" d=" M 11.37 13.15 C 15.73 6.36 24.37 3.54 32.12 4.13 C 35.19 4.28 38.00 5.71 40.19 7.82 C 43.15 8.33 46.06 9.64 47.79 12.21 C 52.79 18.97 52.22 27.88 51.81 35.82 C 51.55 39.29 47.94 40.70 46.51 43.54 C 45.23 46.14 43.18 48.20 41.11 50.18 C 40.51 49.00 39.90 47.81 39.30 46.63 C 41.52 44.27 43.26 41.54 44.51 38.56 C 47.54 37.75 48.28 34.79 48.12 32.02 C 47.60 32.01 46.56 31.99 46.04 31.99 C 45.89 26.21 44.66 19.99 40.19 15.93 C 38.65 18.65 36.60 21.28 33.55 22.36 C 28.41 24.47 22.55 23.34 17.44 25.48 C 14.84 26.56 14.20 29.49 13.85 31.99 C 13.36 31.99 12.38 32.01 11.88 32.02 C 11.71 34.80 12.48 37.74 15.49 38.56 C 16.73 41.55 18.47 44.28 20.70 46.63 C 20.10 47.81 19.49 49.00 18.89 50.18 C 16.83 48.20 14.78 46.17 13.51 43.57 C 12.07 40.72 8.45 39.30 8.19 35.83 C 7.92 28.24 7.07 19.86 11.37 13.15 Z" />
<path fill="#968176" opacity="1.00" d=" M 24.74 34.37 C 26.07 34.04 25.81 36.24 25.97 37.02 C 25.76 39.61 21.48 41.23 20.28 38.80 C 21.61 37.18 23.09 35.67 24.74 34.37 Z" />
<path fill="#968176" opacity="1.00" d=" M 35.09 38.97 C 33.50 37.63 34.14 35.47 34.86 33.86 C 36.65 35.59 38.40 37.36 40.13 39.14 C 38.52 39.79 36.45 40.53 35.09 38.97 Z" />
<path fill="#968176" opacity="1.00" d=" M 27.50 44.69 C 29.68 43.28 33.68 44.09 34.00 47.00 C 33.58 50.34 28.50 50.93 26.59 48.51 C 25.36 47.33 26.18 45.38 27.50 44.69 Z" />
<path fill="#968176" opacity="1.00" d=" M 22.16 52.16 C 26.78 50.95 24.72 58.97 21.22 57.90 C 18.83 56.53 20.65 53.46 22.16 52.16 Z" />
<path fill="#968176" opacity="1.00" d=" M 36.18 52.10 C 38.65 51.34 40.15 54.82 39.83 56.77 C 37.63 60.66 32.93 53.89 36.18 52.10 Z" />
<path fill="#968176" opacity="1.00" d=" M 28.87 60.00 C 27.52 58.05 27.29 53.34 30.75 54.06 C 32.74 55.31 32.40 58.60 30.72 60.00 L 28.87 60.00 Z" />
</g>
</svg>
