<?xml version="1.0" encoding="UTF-8" ?>
<!DOCTYPE svg PUBLIC "-//W3C//DTD SVG 1.1//EN" "http://www.w3.org/Graphics/SVG/1.1/DTD/svg11.dtd">
<svg width="60pt" height="60pt" viewBox="0 0 60 60" version="1.1" xmlns="http://www.w3.org/2000/svg">
<g id="#ffffffff">
<path fill="#ffffff" opacity="1.00" d=" M 0.00 0.00 L 60.00 0.00 L 60.00 60.00 L 0.00 60.00 L 0.00 0.00 M 27.44 4.58 C 23.25 6.32 22.85 12.83 26.81 15.07 C 30.52 17.67 36.19 14.54 35.99 10.02 C 36.18 5.79 31.20 2.60 27.44 4.58 M 21.30 22.43 C 19.70 25.36 19.24 28.80 18.55 32.03 C 18.03 36.25 22.14 38.84 24.75 41.44 C 26.14 42.97 28.75 41.09 27.87 39.25 C 26.29 37.01 23.72 35.56 22.49 33.08 C 22.74 30.79 23.28 28.54 23.68 26.27 C 23.98 28.21 23.57 30.43 24.59 32.18 C 26.23 33.67 28.17 34.77 30.00 35.99 C 31.82 34.77 33.75 33.68 35.39 32.20 C 36.44 30.46 36.02 28.22 36.34 26.27 C 36.72 28.54 37.25 30.78 37.50 33.07 C 36.29 35.56 33.71 37.00 32.14 39.24 C 31.24 41.18 33.90 42.92 35.33 41.41 C 37.44 39.41 39.81 37.50 41.14 34.87 C 42.14 31.38 40.37 27.85 39.63 24.46 C 38.97 21.56 35.99 19.72 33.11 20.00 C 29.18 20.28 24.06 18.76 21.30 22.43 M 6.13 39.06 C 5.90 42.97 5.87 46.91 6.16 50.82 C 6.40 51.09 6.89 51.62 7.14 51.89 C 11.51 52.49 9.62 46.59 10.00 44.00 C 11.33 44.00 12.67 44.00 14.00 44.00 C 14.00 41.32 14.00 38.65 14.00 35.97 C 11.20 35.94 6.92 35.45 6.13 39.06 M 46.00 35.97 C 46.00 38.65 46.00 41.32 46.00 44.00 C 47.33 44.00 48.67 44.00 50.00 44.00 C 50.01 46.27 49.86 48.56 50.16 50.83 C 50.90 52.74 54.14 52.10 53.93 50.02 C 54.05 46.36 54.14 42.68 53.86 39.02 C 52.95 35.49 48.82 35.92 46.00 35.97 M 18.51 38.70 C 17.32 42.93 19.84 47.01 21.04 50.96 C 21.95 53.20 25.55 51.44 24.53 49.30 C 23.26 45.40 22.87 40.45 18.51 38.70 M 35.35 49.93 C 35.09 52.40 39.05 52.73 39.27 50.24 C 40.28 46.47 42.76 42.65 41.44 38.67 C 37.00 40.64 36.58 45.82 35.35 49.93 Z" />
</g>
<g id="#000000ff">
<path fill="#000000" opacity="1.00" d=" M 27.44 4.58 C 31.20 2.60 36.18 5.79 35.99 10.02 C 36.19 14.54 30.52 17.67 26.81 15.07 C 22.85 12.83 23.25 6.32 27.44 4.58 Z" />
<path fill="#000000" opacity="1.00" d=" M 21.30 22.43 C 24.06 18.76 29.18 20.28 33.11 20.00 C 35.99 19.72 38.97 21.56 39.63 24.46 C 40.37 27.85 42.14 31.38 41.14 34.87 C 39.81 37.50 37.44 39.41 35.33 41.41 C 33.90 42.92 31.24 41.18 32.14 39.24 C 33.71 37.00 36.29 35.56 37.50 33.07 C 37.25 30.78 36.72 28.54 36.34 26.27 C 36.02 28.22 36.44 30.46 35.39 32.20 C 33.75 33.68 31.82 34.77 30.00 35.99 C 28.17 34.77 26.23 33.67 24.59 32.18 C 23.57 30.43 23.98 28.21 23.68 26.27 C 23.28 28.54 22.74 30.79 22.49 33.08 C 23.72 35.56 26.29 37.01 27.87 39.25 C 28.75 41.09 26.14 42.97 24.75 41.44 C 22.14 38.84 18.03 36.25 18.55 32.03 C 19.24 28.80 19.70 25.36 21.30 22.43 Z" />
<path fill="#000000" opacity="1.00" d=" M 6.13 39.06 C 6.92 35.45 11.20 35.94 14.00 35.97 C 14.00 38.65 14.00 41.32 14.00 44.00 C 12.67 44.00 11.33 44.00 10.00 44.00 C 9.62 46.59 11.51 52.49 7.14 51.89 C 6.89 51.62 6.40 51.09 6.16 50.82 C 5.87 46.91 5.90 42.97 6.13 39.06 Z" />
<path fill="#000000" opacity="1.00" d=" M 46.00 35.97 C 48.82 35.92 52.95 35.49 53.86 39.02 C 54.14 42.68 54.05 46.36 53.93 50.02 C 54.14 52.10 50.90 52.74 50.16 50.83 C 49.86 48.56 50.01 46.27 50.00 44.00 C 48.67 44.00 47.33 44.00 46.00 44.00 C 46.00 41.32 46.00 38.65 46.00 35.97 Z" />
<path fill="#000000" opacity="1.00" d=" M 18.51 38.70 C 22.87 40.45 23.26 45.40 24.53 49.30 C 25.55 51.44 21.95 53.20 21.04 50.96 C 19.84 47.01 17.32 42.93 18.51 38.70 Z" />
<path fill="#000000" opacity="1.00" d=" M 35.35 49.93 C 36.58 45.82 37.00 40.64 41.44 38.67 C 42.76 42.65 40.28 46.47 39.27 50.24 C 39.05 52.73 35.09 52.40 35.35 49.93 Z" />
</g>
</svg>
