<?xml version="1.0" encoding="UTF-8" ?>
<!DOCTYPE svg PUBLIC "-//W3C//DTD SVG 1.1//EN" "http://www.w3.org/Graphics/SVG/1.1/DTD/svg11.dtd">
<svg width="60pt" height="60pt" viewBox="0 0 60 60" version="1.1" xmlns="http://www.w3.org/2000/svg">
<g id="#ffffffff">
<path fill="#ffffff" opacity="1.00" d=" M 0.00 0.00 L 60.00 0.00 L 60.00 45.59 C 59.84 38.29 53.38 31.87 46.04 32.04 C 38.55 31.81 31.80 38.54 32.04 46.04 C 31.87 53.33 38.22 59.75 45.45 60.00 L 0.00 60.00 L 0.00 0.00 M 9.04 8.19 C 7.69 9.00 8.11 10.69 7.98 12.00 C 8.01 24.01 8.01 36.02 7.99 48.03 C 8.11 49.34 7.68 51.07 9.11 51.83 C 13.69 52.13 18.34 52.14 22.92 51.82 C 24.29 51.03 23.91 49.36 24.01 48.06 C 23.99 36.02 23.99 23.98 24.01 11.94 C 23.89 10.63 24.31 8.92 22.89 8.17 C 18.29 7.87 13.64 7.86 9.04 8.19 M 28.07 9.95 C 28.03 21.70 27.73 33.48 28.33 45.22 C 28.13 37.91 33.33 31.50 39.99 28.98 C 39.89 22.36 40.25 15.71 39.82 9.09 C 38.23 7.12 35.22 8.32 33.01 7.96 C 31.32 8.13 28.09 7.36 28.07 9.95 M 44.18 15.08 C 43.75 19.38 44.11 23.70 44.00 28.01 C 46.70 27.98 49.40 28.27 52.01 28.98 C 51.88 24.38 52.24 19.75 51.83 15.16 C 50.15 13.31 45.96 13.36 44.18 15.08 Z" />
<path fill="#ffffff" opacity="1.00" d=" M 10.01 14.08 C 13.93 13.95 17.86 13.99 21.79 14.03 C 21.80 14.51 21.81 15.47 21.82 15.95 C 17.99 15.96 14.16 16.16 10.34 15.89 C 10.25 15.44 10.09 14.53 10.01 14.08 Z" />
<path fill="#ffffff" opacity="1.00" d=" M 30.20 14.02 C 32.74 13.99 35.29 14.00 37.83 14.05 C 37.82 14.53 37.80 15.49 37.79 15.97 C 35.26 16.00 32.73 16.00 30.20 15.97 C 30.20 15.48 30.20 14.51 30.20 14.02 Z" />
<path fill="#ffffff" opacity="1.00" d=" M 46.19 20.03 C 47.38 20.02 48.57 20.02 49.76 20.01 C 49.78 20.49 49.84 21.45 49.86 21.93 C 48.64 21.95 47.41 21.97 46.19 21.98 C 46.19 21.49 46.19 20.52 46.19 20.03 Z" />
<path fill="#ffffff" opacity="1.00" d=" M 10.20 40.03 C 14.07 39.98 17.93 39.98 21.80 40.03 C 21.80 40.52 21.80 41.48 21.80 41.96 C 17.92 42.02 14.05 42.02 10.18 41.95 C 10.19 41.47 10.20 40.51 10.20 40.03 Z" />
<path fill="#ffffff" opacity="1.00" d=" M 51.20 40.15 C 53.20 39.22 54.97 41.99 53.35 43.42 C 50.55 46.27 47.82 49.22 44.80 51.84 C 42.01 52.25 40.53 48.97 38.64 47.40 C 36.98 46.01 38.87 43.15 40.83 44.20 C 42.00 45.06 42.98 46.14 44.02 47.15 C 46.44 44.85 48.62 42.29 51.20 40.15 Z" />
<path fill="#ffffff" opacity="1.00" d=" M 10.18 44.04 C 14.05 43.98 17.91 43.98 21.78 44.03 C 21.79 44.51 21.81 45.47 21.82 45.96 C 17.95 46.02 14.09 46.01 10.22 45.97 C 10.21 45.49 10.19 44.52 10.18 44.04 Z" />
<path fill="#ffffff" opacity="1.00" d=" M 46.47 60.00 C 53.60 59.79 59.72 53.71 60.00 46.58 L 60.00 60.00 L 46.47 60.00 Z" />
</g>
<g id="#000000ff">
<path fill="#000000" opacity="1.00" d=" M 9.04 8.19 C 13.64 7.86 18.29 7.87 22.89 8.17 C 24.31 8.92 23.89 10.63 24.01 11.94 C 23.99 23.98 23.99 36.02 24.01 48.06 C 23.91 49.36 24.29 51.03 22.92 51.82 C 18.34 52.14 13.69 52.13 9.11 51.83 C 7.68 51.07 8.11 49.34 7.99 48.03 C 8.01 36.02 8.01 24.01 7.98 12.00 C 8.11 10.69 7.69 9.00 9.04 8.19 M 10.01 14.08 C 10.09 14.53 10.25 15.44 10.34 15.89 C 14.16 16.16 17.99 15.96 21.82 15.95 C 21.81 15.47 21.80 14.51 21.79 14.03 C 17.86 13.99 13.93 13.95 10.01 14.08 M 10.20 40.03 C 10.20 40.51 10.19 41.47 10.18 41.95 C 14.05 42.02 17.92 42.02 21.80 41.96 C 21.80 41.48 21.80 40.52 21.80 40.03 C 17.93 39.98 14.07 39.98 10.20 40.03 M 10.18 44.04 C 10.19 44.52 10.21 45.49 10.22 45.97 C 14.09 46.01 17.95 46.02 21.82 45.96 C 21.81 45.47 21.79 44.51 21.78 44.03 C 17.91 43.98 14.05 43.98 10.18 44.04 Z" />
<path fill="#000000" opacity="1.00" d=" M 28.07 9.95 C 28.09 7.36 31.32 8.13 33.01 7.96 C 35.22 8.32 38.23 7.12 39.82 9.09 C 40.25 15.71 39.89 22.36 39.99 28.98 C 33.33 31.50 28.13 37.91 28.33 45.22 C 27.73 33.48 28.03 21.70 28.07 9.95 M 30.20 14.02 C 30.20 14.51 30.20 15.48 30.20 15.97 C 32.73 16.00 35.26 16.00 37.79 15.97 C 37.80 15.49 37.82 14.53 37.83 14.05 C 35.29 14.00 32.74 13.99 30.20 14.02 Z" />
<path fill="#000000" opacity="1.00" d=" M 44.18 15.08 C 45.96 13.36 50.15 13.31 51.83 15.16 C 52.24 19.75 51.88 24.38 52.01 28.98 C 49.40 28.27 46.70 27.98 44.00 28.01 C 44.11 23.70 43.75 19.38 44.18 15.08 M 46.19 20.03 C 46.19 20.52 46.19 21.49 46.19 21.98 C 47.41 21.97 48.64 21.95 49.86 21.93 C 49.84 21.45 49.78 20.49 49.76 20.01 C 48.57 20.02 47.38 20.02 46.19 20.03 Z" />
<path fill="#000000" opacity="1.00" d=" M 32.04 46.04 C 31.80 38.54 38.55 31.81 46.04 32.04 C 53.38 31.87 59.84 38.29 60.00 45.59 L 60.00 46.58 C 59.72 53.71 53.60 59.79 46.47 60.00 L 45.45 60.00 C 38.22 59.75 31.87 53.33 32.04 46.04 M 51.20 40.15 C 48.62 42.29 46.44 44.85 44.02 47.15 C 42.98 46.14 42.00 45.06 40.83 44.20 C 38.87 43.15 36.98 46.01 38.64 47.40 C 40.53 48.97 42.01 52.25 44.80 51.84 C 47.82 49.22 50.55 46.27 53.35 43.42 C 54.97 41.99 53.20 39.22 51.20 40.15 Z" />
</g>
</svg>
