<?xml version="1.0" encoding="UTF-8" ?>
<!DOCTYPE svg PUBLIC "-//W3C//DTD SVG 1.1//EN" "http://www.w3.org/Graphics/SVG/1.1/DTD/svg11.dtd">
<svg width="60pt" height="60pt" viewBox="0 0 60 60" version="1.1" xmlns="http://www.w3.org/2000/svg">
<g id="#ffffffff">
<path fill="#ffffff" opacity="1.00" d=" M 0.00 0.00 L 60.00 0.00 L 60.00 60.00 L 0.00 60.00 L 0.00 0.00 M 28.89 8.00 C 31.51 11.69 34.18 15.33 36.80 19.01 C 34.88 21.38 34.36 24.44 35.39 27.33 C 39.05 24.02 43.14 21.11 46.36 17.35 C 44.36 16.40 42.20 16.00 40.03 16.60 C 37.93 13.75 35.88 10.87 33.81 8.00 C 32.17 8.00 30.53 8.00 28.89 8.00 M 14.59 10.60 C 13.42 12.83 13.56 15.54 13.06 17.98 C 10.84 18.37 7.70 17.04 6.17 19.16 C 5.75 26.76 6.14 34.40 5.99 42.02 C 6.09 44.71 5.52 47.59 6.88 50.06 C 11.29 49.88 15.70 50.14 20.11 49.95 C 23.24 50.01 26.02 47.20 25.95 44.07 C 26.04 35.34 26.04 26.61 25.95 17.88 C 26.18 12.29 19.39 8.21 14.59 10.60 M 36.93 30.03 C 39.32 34.86 42.58 39.92 47.85 41.89 C 49.08 41.62 49.90 40.49 50.94 39.82 C 50.22 38.46 49.56 37.08 48.94 35.67 C 50.09 36.39 51.24 37.12 52.39 37.84 C 53.21 36.86 54.02 35.87 54.82 34.88 C 52.51 33.07 50.78 30.69 49.29 28.20 C 51.31 29.81 53.50 31.24 56.05 31.81 C 56.70 30.61 57.34 29.41 57.97 28.21 C 53.69 26.99 51.12 23.22 48.46 19.96 C 44.60 23.30 40.78 26.68 36.93 30.03 M 31.14 34.11 C 28.85 35.21 30.44 38.94 32.83 37.83 C 35.20 36.77 33.49 33.09 31.14 34.11 M 30.13 42.15 C 29.97 44.15 29.70 46.13 29.51 48.13 C 30.81 47.90 32.09 47.60 33.35 47.24 C 35.89 47.85 39.51 48.92 41.47 46.63 C 43.25 43.72 39.64 41.66 37.57 40.41 C 34.76 38.74 32.94 42.64 30.13 42.15 Z" />
<path fill="#ffffff" opacity="1.00" d=" M 14.02 37.96 C 15.29 29.88 16.49 21.79 17.77 13.72 C 19.80 14.24 22.12 15.50 21.95 17.94 C 22.11 25.07 21.91 32.20 22.04 39.34 C 19.61 37.84 16.76 37.93 14.02 37.96 Z" />
</g>
<g id="#000000ff">
<path fill="#000000" opacity="1.00" d=" M 28.89 8.00 C 30.53 8.00 32.17 8.00 33.81 8.00 C 35.88 10.87 37.93 13.75 40.03 16.60 C 42.20 16.00 44.36 16.40 46.36 17.35 C 43.14 21.11 39.05 24.02 35.39 27.33 C 34.36 24.44 34.88 21.38 36.80 19.01 C 34.18 15.33 31.51 11.69 28.89 8.00 Z" />
<path fill="#000000" opacity="1.00" d=" M 14.59 10.60 C 19.39 8.21 26.18 12.29 25.95 17.88 C 26.04 26.61 26.04 35.34 25.95 44.07 C 26.02 47.20 23.24 50.01 20.11 49.95 C 15.70 50.14 11.29 49.88 6.88 50.06 C 5.52 47.59 6.09 44.71 5.99 42.02 C 6.14 34.40 5.75 26.76 6.17 19.16 C 7.70 17.04 10.84 18.37 13.06 17.98 C 13.56 15.54 13.42 12.83 14.59 10.60 M 14.02 37.96 C 16.76 37.93 19.61 37.84 22.04 39.34 C 21.91 32.20 22.11 25.07 21.95 17.94 C 22.12 15.50 19.80 14.24 17.77 13.72 C 16.49 21.79 15.29 29.88 14.02 37.96 Z" />
<path fill="#000000" opacity="1.00" d=" M 36.93 30.03 C 40.78 26.68 44.60 23.30 48.46 19.96 C 51.12 23.22 53.69 26.99 57.97 28.21 C 57.34 29.41 56.70 30.61 56.05 31.81 C 53.50 31.24 51.31 29.81 49.29 28.20 C 50.78 30.69 52.51 33.07 54.82 34.88 C 54.02 35.87 53.21 36.86 52.39 37.84 C 51.24 37.12 50.09 36.39 48.94 35.67 C 49.56 37.08 50.22 38.46 50.94 39.82 C 49.90 40.49 49.08 41.62 47.85 41.89 C 42.58 39.92 39.32 34.86 36.93 30.03 Z" />
<path fill="#000000" opacity="1.00" d=" M 31.14 34.11 C 33.49 33.09 35.20 36.77 32.83 37.83 C 30.44 38.94 28.85 35.21 31.14 34.11 Z" />
<path fill="#000000" opacity="1.00" d=" M 30.13 42.15 C 32.94 42.64 34.76 38.74 37.57 40.41 C 39.64 41.66 43.25 43.72 41.47 46.63 C 39.51 48.92 35.89 47.85 33.35 47.24 C 32.09 47.60 30.81 47.90 29.51 48.13 C 29.70 46.13 29.97 44.15 30.13 42.15 Z" />
</g>
</svg>
