<?xml version="1.0" encoding="UTF-8" ?>
<!DOCTYPE svg PUBLIC "-//W3C//DTD SVG 1.1//EN" "http://www.w3.org/Graphics/SVG/1.1/DTD/svg11.dtd">
<svg width="60pt" height="60pt" viewBox="0 0 60 60" version="1.1" xmlns="http://www.w3.org/2000/svg">
<g id="#ffffffff">
<path fill="#ffffff" opacity="1.00" d=" M 0.00 0.00 L 60.00 0.00 L 60.00 60.00 L 0.00 60.00 L 0.00 0.00 M 11.99 5.99 C 13.32 10.12 15.53 14.00 18.60 17.09 C 18.12 17.60 17.17 18.61 16.70 19.11 C 12.53 17.30 7.80 17.94 3.80 19.87 C 5.34 24.13 8.65 29.05 13.92 27.87 C 14.07 33.22 15.22 38.91 19.27 42.74 C 18.51 45.71 17.07 49.19 18.84 52.08 C 21.13 55.20 25.36 55.79 28.96 55.98 C 33.02 56.02 37.75 55.76 40.73 52.63 C 43.13 49.80 41.52 45.88 40.72 42.74 C 44.77 38.92 45.91 33.21 46.09 27.87 C 51.34 29.04 54.66 24.12 56.20 19.86 C 52.18 17.94 47.45 17.30 43.27 19.11 C 42.82 18.61 41.90 17.59 41.45 17.09 C 44.46 13.97 46.67 10.13 48.00 6.01 C 48.11 3.91 44.87 3.13 44.29 5.25 C 42.63 8.81 39.44 11.44 35.49 11.96 C 32.22 9.48 27.77 9.48 24.51 11.96 C 20.56 11.44 17.38 8.81 15.71 5.26 C 15.09 3.15 11.95 3.89 11.99 5.99 Z" />
<path fill="#ffffff" opacity="1.00" d=" M 24.08 23.18 C 28.64 21.31 34.41 21.54 38.35 24.70 C 39.83 25.90 40.86 28.75 39.04 30.07 C 37.65 30.74 36.14 31.11 34.77 31.78 C 33.52 33.73 34.25 36.37 33.21 38.45 C 32.84 39.55 31.90 40.57 32.15 41.79 C 33.47 42.86 35.00 43.64 36.35 44.69 C 37.93 45.95 37.77 48.12 38.11 49.92 C 37.65 50.18 36.72 50.71 36.25 50.97 C 34.57 49.57 32.57 50.01 31.53 51.95 C 30.51 51.95 29.49 51.95 28.48 51.95 C 27.38 50.03 25.48 49.53 23.74 50.96 C 23.28 50.71 22.35 50.19 21.89 49.94 C 22.07 47.62 22.42 44.91 24.83 43.84 C 25.92 42.83 28.82 42.26 27.62 40.29 C 26.15 37.86 26.15 35.01 25.61 32.31 C 24.28 30.51 21.09 31.18 20.06 28.98 C 19.53 26.26 21.76 24.08 24.08 23.18 Z" />
</g>
<g id="#000000ff">
<path fill="#968176" opacity="1.00" d=" M 11.99 5.99 C 11.95 3.89 15.09 3.15 15.71 5.26 C 17.38 8.81 20.56 11.44 24.51 11.96 C 27.77 9.48 32.22 9.48 35.49 11.96 C 39.44 11.44 42.63 8.81 44.29 5.25 C 44.87 3.13 48.11 3.91 48.00 6.01 C 46.67 10.13 44.46 13.97 41.45 17.09 C 41.90 17.59 42.82 18.61 43.27 19.11 C 47.45 17.30 52.18 17.94 56.20 19.86 C 54.66 24.12 51.34 29.04 46.09 27.87 C 45.91 33.21 44.77 38.92 40.72 42.74 C 41.52 45.88 43.13 49.80 40.73 52.63 C 37.75 55.76 33.02 56.02 28.96 55.98 C 25.36 55.79 21.13 55.20 18.84 52.08 C 17.07 49.19 18.51 45.71 19.27 42.74 C 15.22 38.91 14.07 33.22 13.92 27.87 C 8.65 29.05 5.34 24.13 3.80 19.87 C 7.80 17.94 12.53 17.30 16.70 19.11 C 17.17 18.61 18.12 17.60 18.60 17.09 C 15.53 14.00 13.32 10.12 11.99 5.99 M 24.08 23.18 C 21.76 24.08 19.53 26.26 20.06 28.98 C 21.09 31.18 24.28 30.51 25.61 32.31 C 26.15 35.01 26.15 37.86 27.62 40.29 C 28.82 42.26 25.92 42.83 24.83 43.84 C 22.42 44.91 22.07 47.62 21.89 49.94 C 22.35 50.19 23.28 50.71 23.74 50.96 C 25.48 49.53 27.38 50.03 28.48 51.95 C 29.49 51.95 30.51 51.95 31.53 51.95 C 32.57 50.01 34.57 49.57 36.25 50.97 C 36.72 50.71 37.65 50.18 38.11 49.92 C 37.77 48.12 37.93 45.95 36.35 44.69 C 35.00 43.64 33.47 42.86 32.15 41.79 C 31.90 40.57 32.84 39.55 33.21 38.45 C 34.25 36.37 33.52 33.73 34.77 31.78 C 36.14 31.11 37.65 30.74 39.04 30.07 C 40.86 28.75 39.83 25.90 38.35 24.70 C 34.41 21.54 28.64 21.31 24.08 23.18 Z" />
</g>
</svg>
