<?xml version="1.0" encoding="UTF-8" ?>
<!DOCTYPE svg PUBLIC "-//W3C//DTD SVG 1.1//EN" "http://www.w3.org/Graphics/SVG/1.1/DTD/svg11.dtd">
<svg width="64pt" height="64pt" viewBox="0 0 64 64" version="1.1" xmlns="http://www.w3.org/2000/svg">
<g id="#ffffffff">
<path fill="#ffffff" opacity="1.00" d=" M 0.00 0.00 L 64.00 0.00 L 64.00 64.00 L 0.00 64.00 L 0.00 0.00 M 10.00 10.00 C 10.00 24.67 10.00 39.33 10.00 54.00 C 24.67 54.00 39.33 54.00 54.00 54.00 C 54.00 39.33 54.00 24.67 54.00 10.00 C 39.33 10.00 24.67 10.00 10.00 10.00 Z" />
<path fill="#ffffff" opacity="1.00" d=" M 13.98 13.98 C 15.94 14.01 17.89 14.02 19.85 14.05 C 18.74 16.73 16.74 18.75 14.05 19.84 C 14.02 17.89 14.01 15.94 13.98 13.98 Z" />
<path fill="#ffffff" opacity="1.00" d=" M 23.94 14.01 C 29.31 13.99 34.68 13.99 40.05 14.01 C 41.15 18.96 45.04 22.84 49.99 23.94 C 50.01 29.31 50.01 34.68 49.99 40.05 C 45.04 41.14 41.15 45.04 40.05 49.99 C 34.68 50.01 29.31 50.01 23.94 49.99 C 22.84 45.04 18.96 41.15 14.01 40.05 C 13.99 34.68 13.99 29.31 14.01 23.94 C 18.96 22.84 22.84 18.96 23.94 14.01 M 22.00 22.00 C 22.00 28.67 22.00 35.33 22.00 42.00 C 28.67 42.00 35.33 42.00 42.00 42.00 C 42.00 35.33 42.00 28.67 42.00 22.00 C 35.33 22.00 28.67 22.00 22.00 22.00 Z" />
<path fill="#ffffff" opacity="1.00" d=" M 44.15 14.05 C 46.11 14.02 48.06 14.01 50.02 13.98 C 49.99 15.94 49.98 17.89 49.95 19.85 C 47.26 18.74 45.25 16.73 44.15 14.05 Z" />
<path fill="#ffffff" opacity="1.00" d=" M 26.00 26.00 C 27.33 26.00 28.67 26.00 30.00 26.00 C 30.00 27.33 30.00 28.67 30.00 30.00 C 28.67 30.00 27.33 30.00 26.00 30.00 C 26.00 28.67 26.00 27.33 26.00 26.00 Z" />
<path fill="#ffffff" opacity="1.00" d=" M 34.00 26.00 C 35.33 26.00 36.67 26.00 38.00 26.00 C 38.00 27.33 38.00 28.67 38.00 30.00 C 36.67 30.00 35.33 30.00 34.00 30.00 C 34.00 28.67 34.00 27.33 34.00 26.00 Z" />
<path fill="#ffffff" opacity="1.00" d=" M 26.00 34.00 C 27.33 34.00 28.67 34.00 30.00 34.00 C 30.00 35.33 30.00 36.67 30.00 38.00 C 28.67 38.00 27.33 38.00 26.00 38.00 C 26.00 36.67 26.00 35.33 26.00 34.00 Z" />
<path fill="#ffffff" opacity="1.00" d=" M 34.00 34.00 C 35.33 34.00 36.67 34.00 38.00 34.00 C 38.00 35.33 38.00 36.67 38.00 38.00 C 36.67 38.00 35.33 38.00 34.00 38.00 C 34.00 36.67 34.00 35.33 34.00 34.00 Z" />
<path fill="#ffffff" opacity="1.00" d=" M 14.05 44.15 C 16.74 45.25 18.74 47.27 19.85 49.95 C 17.89 49.97 15.94 49.99 13.98 50.02 C 14.01 48.06 14.02 46.11 14.05 44.15 Z" />
<path fill="#ffffff" opacity="1.00" d=" M 44.15 49.95 C 45.25 47.26 47.26 45.25 49.95 44.16 C 49.97 46.11 50.00 48.06 50.02 50.02 C 48.06 49.99 46.10 49.97 44.15 49.95 Z" />
</g>
<g id="#000000ff">
<path fill="#000000" opacity="1.00" d=" M 10.00 10.00 C 24.67 10.00 39.33 10.00 54.00 10.00 C 54.00 24.67 54.00 39.33 54.00 54.00 C 39.33 54.00 24.67 54.00 10.00 54.00 C 10.00 39.33 10.00 24.67 10.00 10.00 M 13.98 13.98 C 14.01 15.94 14.02 17.89 14.05 19.84 C 16.74 18.75 18.74 16.73 19.85 14.05 C 17.89 14.02 15.94 14.01 13.98 13.98 M 23.94 14.01 C 22.84 18.96 18.96 22.84 14.01 23.94 C 13.99 29.31 13.99 34.68 14.01 40.05 C 18.96 41.15 22.84 45.04 23.94 49.99 C 29.31 50.01 34.68 50.01 40.05 49.99 C 41.15 45.04 45.04 41.14 49.99 40.05 C 50.01 34.68 50.01 29.31 49.99 23.94 C 45.04 22.84 41.15 18.96 40.05 14.01 C 34.68 13.99 29.31 13.99 23.94 14.01 M 44.15 14.05 C 45.25 16.73 47.26 18.74 49.95 19.85 C 49.98 17.89 49.99 15.94 50.02 13.98 C 48.06 14.01 46.11 14.02 44.15 14.05 M 14.05 44.15 C 14.02 46.11 14.01 48.06 13.98 50.02 C 15.94 49.99 17.89 49.97 19.85 49.95 C 18.74 47.27 16.74 45.25 14.05 44.15 M 44.15 49.95 C 46.10 49.97 48.06 49.99 50.02 50.02 C 50.00 48.06 49.97 46.11 49.95 44.16 C 47.26 45.25 45.25 47.26 44.15 49.95 Z" />
<path fill="#000000" opacity="1.00" d=" M 22.00 22.00 C 28.67 22.00 35.33 22.00 42.00 22.00 C 42.00 28.67 42.00 35.33 42.00 42.00 C 35.33 42.00 28.67 42.00 22.00 42.00 C 22.00 35.33 22.00 28.67 22.00 22.00 M 26.00 26.00 C 26.00 27.33 26.00 28.67 26.00 30.00 C 27.33 30.00 28.67 30.00 30.00 30.00 C 30.00 28.67 30.00 27.33 30.00 26.00 C 28.67 26.00 27.33 26.00 26.00 26.00 M 34.00 26.00 C 34.00 27.33 34.00 28.67 34.00 30.00 C 35.33 30.00 36.67 30.00 38.00 30.00 C 38.00 28.67 38.00 27.33 38.00 26.00 C 36.67 26.00 35.33 26.00 34.00 26.00 M 26.00 34.00 C 26.00 35.33 26.00 36.67 26.00 38.00 C 27.33 38.00 28.67 38.00 30.00 38.00 C 30.00 36.67 30.00 35.33 30.00 34.00 C 28.67 34.00 27.33 34.00 26.00 34.00 M 34.00 34.00 C 34.00 35.33 34.00 36.67 34.00 38.00 C 35.33 38.00 36.67 38.00 38.00 38.00 C 38.00 36.67 38.00 35.33 38.00 34.00 C 36.67 34.00 35.33 34.00 34.00 34.00 Z" />
</g>
</svg>
