<?xml version="1.0" encoding="UTF-8" ?>
<!DOCTYPE svg PUBLIC "-//W3C//DTD SVG 1.1//EN" "http://www.w3.org/Graphics/SVG/1.1/DTD/svg11.dtd">
<svg width="60pt" height="60pt" viewBox="0 0 60 60" version="1.1" xmlns="http://www.w3.org/2000/svg">
<g id="#ffffffff">
<path fill="#ffffff" opacity="1.00" d=" M 0.00 0.00 L 60.00 0.00 L 60.00 60.00 L 0.00 60.00 L 0.00 0.00 M 24.41 6.67 C 17.11 8.39 10.78 13.74 7.90 20.67 C 5.10 27.21 5.44 35.00 8.82 41.26 C 12.38 48.00 19.31 52.84 26.88 53.78 C 33.69 54.71 40.84 52.51 45.93 47.90 C 51.24 43.21 54.31 36.09 53.96 29.00 C 53.73 22.34 50.51 15.89 45.40 11.63 C 39.73 6.75 31.66 4.91 24.41 6.67 Z" />
<path fill="#ffffff" opacity="1.00" d=" M 27.24 10.19 C 33.61 9.28 40.34 11.64 44.68 16.41 C 49.75 21.76 51.35 30.01 48.77 36.90 C 46.37 43.60 40.14 48.73 33.09 49.74 C 26.41 50.86 19.28 48.26 14.89 43.11 C 10.16 37.77 8.72 29.81 11.21 23.14 C 13.61 16.30 20.04 11.11 27.24 10.19 M 17.97 29.96 C 20.66 29.18 23.88 28.76 25.93 26.77 C 26.73 23.77 23.24 23.75 21.37 24.64 C 20.77 24.50 19.58 24.21 18.98 24.07 C 15.78 23.68 14.58 29.64 17.97 29.96 M 34.00 26.07 C 33.33 29.25 36.89 30.83 39.36 29.36 C 40.88 29.64 42.95 30.66 43.89 28.81 C 44.66 25.88 40.84 25.69 38.98 24.83 C 37.35 24.10 33.98 23.24 34.00 26.07 M 23.14 39.80 C 26.03 40.20 28.96 39.96 31.87 39.99 C 32.08 41.82 31.86 44.18 33.73 45.25 C 36.14 47.22 40.06 45.07 39.98 42.05 C 39.82 40.13 40.76 37.43 38.85 36.17 C 33.92 35.83 28.94 35.98 24.00 36.07 C 21.90 35.84 21.25 39.05 23.14 39.80 Z" />
</g>
<g id="#000000ff">
<path fill="#000000" opacity="1.00" d=" M 24.41 6.67 C 31.66 4.91 39.73 6.75 45.40 11.63 C 50.51 15.89 53.73 22.34 53.96 29.00 C 54.31 36.09 51.24 43.21 45.93 47.90 C 40.84 52.51 33.69 54.71 26.88 53.78 C 19.31 52.84 12.38 48.00 8.82 41.26 C 5.44 35.00 5.10 27.21 7.90 20.67 C 10.78 13.74 17.11 8.39 24.41 6.67 M 27.24 10.19 C 20.04 11.11 13.61 16.30 11.21 23.14 C 8.72 29.81 10.16 37.77 14.89 43.11 C 19.28 48.26 26.41 50.86 33.09 49.74 C 40.14 48.73 46.37 43.60 48.77 36.90 C 51.35 30.01 49.75 21.76 44.68 16.41 C 40.34 11.64 33.61 9.28 27.24 10.19 Z" />
<path fill="#000000" opacity="1.00" d=" M 17.97 29.96 C 14.58 29.64 15.78 23.68 18.98 24.07 C 19.58 24.21 20.77 24.50 21.37 24.64 C 23.24 23.75 26.73 23.77 25.93 26.77 C 23.88 28.76 20.66 29.18 17.97 29.96 Z" />
<path fill="#000000" opacity="1.00" d=" M 34.00 26.07 C 33.98 23.24 37.35 24.10 38.98 24.83 C 40.84 25.69 44.66 25.88 43.89 28.81 C 42.95 30.66 40.88 29.64 39.36 29.36 C 36.89 30.83 33.33 29.25 34.00 26.07 Z" />
<path fill="#000000" opacity="1.00" d=" M 23.14 39.80 C 21.25 39.05 21.90 35.84 24.00 36.07 C 28.94 35.98 33.92 35.83 38.85 36.17 C 40.76 37.43 39.82 40.13 39.98 42.05 C 40.06 45.07 36.14 47.22 33.73 45.25 C 31.86 44.18 32.08 41.82 31.87 39.99 C 28.96 39.96 26.03 40.20 23.14 39.80 Z" />
</g>
</svg>
