<?xml version="1.0" encoding="UTF-8" ?>
<!DOCTYPE svg PUBLIC "-//W3C//DTD SVG 1.1//EN" "http://www.w3.org/Graphics/SVG/1.1/DTD/svg11.dtd">
<svg width="60pt" height="60pt" viewBox="0 0 60 60" version="1.1" xmlns="http://www.w3.org/2000/svg">
<g id="#ffffffff">
<path fill="#ffffff" opacity="1.00" d=" M 0.00 0.00 L 60.00 0.00 L 60.00 45.53 C 59.78 38.65 54.03 32.46 47.10 32.09 C 39.26 31.21 31.77 38.15 32.04 46.03 C 31.86 53.31 38.18 59.70 45.39 60.00 L 0.00 60.00 L 0.00 0.00 M 8.00 8.95 C 8.03 23.31 7.93 37.68 8.05 52.04 C 7.92 54.15 9.86 55.99 11.93 55.95 C 18.26 56.11 24.60 55.93 30.93 56.01 C 29.16 52.94 28.15 49.52 27.87 46.00 C 27.40 46.00 26.47 45.99 26.00 45.99 C 26.00 44.63 25.99 43.26 26.00 41.90 C 22.42 41.19 19.21 38.85 18.66 35.04 C 20.13 35.02 21.60 35.01 23.07 35.01 C 24.43 37.56 27.18 38.24 29.88 37.97 C 30.72 36.59 31.59 35.22 32.43 33.84 C 29.29 32.11 25.60 31.99 22.38 30.49 C 18.96 28.73 18.53 23.67 20.95 20.92 C 22.21 19.37 24.23 18.88 26.00 18.14 C 26.00 16.76 26.00 15.38 26.00 14.00 C 27.33 14.00 28.67 14.00 30.00 14.00 C 30.00 15.38 30.00 16.76 30.00 18.14 C 33.41 18.96 36.25 21.27 36.94 24.84 C 35.48 24.89 34.03 24.92 32.58 24.95 C 31.37 22.26 28.00 21.12 25.44 22.64 C 23.93 23.42 23.64 25.92 25.35 26.65 C 28.94 28.14 33.14 28.12 36.23 30.79 C 39.80 28.72 43.88 27.82 48.00 27.98 C 47.94 21.30 48.11 14.61 47.94 7.93 C 47.94 5.91 46.08 4.10 44.06 4.18 C 33.35 4.04 22.63 4.00 11.93 4.05 C 9.39 3.97 7.65 6.58 8.00 8.95 Z" />
<path fill="#ffffff" opacity="1.00" d=" M 45.15 38.12 C 48.72 37.26 47.96 41.79 48.04 43.95 C 49.96 44.26 52.52 43.31 53.87 45.10 C 54.78 48.70 50.22 47.97 48.04 48.04 C 47.75 49.97 48.68 52.52 46.88 53.89 C 43.27 54.76 44.05 50.22 43.95 48.04 C 42.02 47.76 39.50 48.67 38.11 46.90 C 37.22 43.28 41.76 44.04 43.95 43.96 C 44.29 42.05 43.25 39.39 45.15 38.12 Z" />
<path fill="#ffffff" opacity="1.00" d=" M 46.59 60.00 C 53.66 59.71 59.68 53.70 60.00 46.64 L 60.00 60.00 L 46.59 60.00 Z" />
</g>
<g id="#000000ff">
<path fill="#000000" opacity="1.00" d=" M 8.00 8.95 C 7.65 6.58 9.39 3.97 11.93 4.05 C 22.63 4.00 33.35 4.04 44.06 4.18 C 46.08 4.10 47.94 5.91 47.94 7.93 C 48.11 14.61 47.94 21.30 48.00 27.98 C 43.88 27.82 39.80 28.72 36.23 30.79 C 33.14 28.12 28.94 28.14 25.35 26.65 C 23.64 25.92 23.93 23.42 25.44 22.64 C 28.00 21.12 31.37 22.26 32.58 24.95 C 34.03 24.92 35.48 24.89 36.94 24.84 C 36.25 21.27 33.41 18.96 30.00 18.14 C 30.00 16.76 30.00 15.38 30.00 14.00 C 28.67 14.00 27.33 14.00 26.00 14.00 C 26.00 15.38 26.00 16.76 26.00 18.14 C 24.23 18.88 22.21 19.37 20.95 20.92 C 18.53 23.67 18.96 28.73 22.38 30.49 C 25.60 31.99 29.29 32.11 32.43 33.84 C 31.59 35.22 30.72 36.59 29.88 37.97 C 27.18 38.24 24.43 37.56 23.07 35.01 C 21.60 35.01 20.13 35.02 18.66 35.04 C 19.21 38.85 22.42 41.19 26.00 41.90 C 25.99 43.26 26.00 44.63 26.00 45.99 C 26.47 45.99 27.40 46.00 27.87 46.00 C 28.15 49.52 29.16 52.94 30.93 56.01 C 24.60 55.93 18.26 56.11 11.93 55.95 C 9.86 55.99 7.92 54.15 8.05 52.04 C 7.93 37.68 8.03 23.31 8.00 8.95 Z" />
<path fill="#000000" opacity="1.00" d=" M 32.04 46.03 C 31.77 38.15 39.26 31.21 47.10 32.09 C 54.03 32.46 59.78 38.65 60.00 45.53 L 60.00 46.64 C 59.68 53.70 53.66 59.71 46.59 60.00 L 45.39 60.00 C 38.18 59.70 31.86 53.31 32.04 46.03 M 45.15 38.12 C 43.25 39.39 44.29 42.05 43.95 43.96 C 41.76 44.04 37.22 43.28 38.11 46.90 C 39.50 48.67 42.02 47.76 43.95 48.04 C 44.05 50.22 43.27 54.76 46.88 53.89 C 48.68 52.52 47.75 49.97 48.04 48.04 C 50.22 47.97 54.78 48.70 53.87 45.10 C 52.52 43.31 49.96 44.26 48.04 43.95 C 47.96 41.79 48.72 37.26 45.15 38.12 Z" />
</g>
</svg>
