<?xml version="1.0" encoding="UTF-8" ?>
<!DOCTYPE svg PUBLIC "-//W3C//DTD SVG 1.1//EN" "http://www.w3.org/Graphics/SVG/1.1/DTD/svg11.dtd">
<svg width="60pt" height="60pt" viewBox="0 0 60 60" version="1.1" xmlns="http://www.w3.org/2000/svg">
<g id="#ffffffff">
<path fill="#ffffff" opacity="1.00" d=" M 0.00 0.00 L 60.00 0.00 L 60.00 47.50 C 56.53 42.21 51.36 37.60 45.03 36.30 C 36.37 34.67 27.90 40.65 23.91 47.99 C 26.89 54.50 33.42 59.34 40.60 60.00 L 0.00 60.00 L 0.00 0.00 M 3.84 15.99 C 21.28 16.00 38.72 16.00 56.16 15.99 C 56.24 13.44 55.29 9.94 52.12 10.05 C 37.38 9.96 22.63 9.96 7.89 10.05 C 4.74 9.98 3.73 13.42 3.84 15.99 M 4.00 22.00 C 4.06 30.03 3.90 38.07 4.05 46.10 C 3.96 48.18 5.87 49.97 7.91 49.95 C 11.97 50.13 16.04 49.93 20.11 50.01 C 20.06 48.08 19.99 45.99 21.27 44.39 C 25.97 37.66 33.42 32.00 41.95 32.02 C 47.12 31.85 51.89 34.25 56.02 37.15 C 55.98 32.10 56.01 27.05 56.00 22.00 C 38.67 22.00 21.33 22.00 4.00 22.00 Z" />
<path fill="#ffffff" opacity="1.00" d=" M 10.00 26.00 C 15.33 26.00 20.67 26.00 26.00 26.00 C 26.00 26.50 26.00 27.50 26.00 28.00 C 20.67 28.00 15.33 28.00 10.00 28.00 C 10.00 27.50 10.00 26.50 10.00 26.00 Z" />
<path fill="#ffffff" opacity="1.00" d=" M 39.33 40.47 C 43.56 38.83 48.73 41.60 49.73 46.02 C 50.92 50.16 48.08 54.83 43.89 55.75 C 39.80 56.87 35.21 54.09 34.26 49.97 C 33.19 46.11 35.52 41.72 39.33 40.47 M 40.40 44.35 C 35.55 46.21 39.03 54.04 43.65 51.61 C 48.37 49.73 44.99 42.02 40.40 44.35 Z" />
<path fill="#ffffff" opacity="1.00" d=" M 43.20 60.00 C 50.41 59.51 56.60 54.66 60.00 48.48 L 60.00 60.00 L 43.20 60.00 Z" />
</g>
<g id="#000000ff">
<path fill="#000000" opacity="1.00" d=" M 3.84 15.99 C 3.73 13.42 4.74 9.98 7.89 10.05 C 22.63 9.96 37.38 9.96 52.12 10.05 C 55.29 9.94 56.24 13.44 56.16 15.99 C 38.72 16.00 21.28 16.00 3.84 15.99 Z" />
<path fill="#000000" opacity="1.00" d=" M 4.00 22.00 C 21.33 22.00 38.67 22.00 56.00 22.00 C 56.01 27.05 55.98 32.10 56.02 37.15 C 51.89 34.25 47.12 31.85 41.95 32.02 C 33.42 32.00 25.97 37.66 21.27 44.39 C 19.99 45.99 20.06 48.08 20.11 50.01 C 16.04 49.93 11.97 50.13 7.91 49.95 C 5.87 49.97 3.96 48.18 4.05 46.10 C 3.90 38.07 4.06 30.03 4.00 22.00 M 10.00 26.00 C 10.00 26.50 10.00 27.50 10.00 28.00 C 15.33 28.00 20.67 28.00 26.00 28.00 C 26.00 27.50 26.00 26.50 26.00 26.00 C 20.67 26.00 15.33 26.00 10.00 26.00 Z" />
<path fill="#000000" opacity="1.00" d=" M 23.91 47.99 C 27.90 40.65 36.37 34.67 45.03 36.30 C 51.36 37.60 56.53 42.21 60.00 47.50 L 60.00 48.48 C 56.60 54.66 50.41 59.51 43.20 60.00 L 40.60 60.00 C 33.42 59.34 26.89 54.50 23.91 47.99 M 39.33 40.47 C 35.52 41.72 33.19 46.11 34.26 49.97 C 35.21 54.09 39.80 56.87 43.89 55.75 C 48.08 54.83 50.92 50.16 49.73 46.02 C 48.73 41.60 43.56 38.83 39.33 40.47 Z" />
<path fill="#000000" opacity="1.00" d=" M 40.40 44.35 C 44.99 42.02 48.37 49.73 43.65 51.61 C 39.03 54.04 35.55 46.21 40.40 44.35 Z" />
</g>
</svg>
