<?xml version="1.0" encoding="UTF-8" ?>
<!DOCTYPE svg PUBLIC "-//W3C//DTD SVG 1.1//EN" "http://www.w3.org/Graphics/SVG/1.1/DTD/svg11.dtd">
<svg width="60pt" height="60pt" viewBox="0 0 60 60" version="1.1" xmlns="http://www.w3.org/2000/svg">
<g id="#ffffffff">
<path fill="#ffffff" opacity="1.00" d=" M 0.00 0.00 L 60.00 0.00 L 60.00 60.00 L 0.00 60.00 L 0.00 0.00 M 35.74 7.75 C 34.17 11.82 32.22 16.46 33.77 20.82 C 32.97 26.79 32.27 32.79 32.06 38.82 C 33.36 39.98 34.67 41.12 36.00 42.26 C 36.18 35.80 36.55 29.33 37.55 22.94 C 37.65 20.96 39.52 19.76 39.96 17.91 C 41.00 13.60 43.07 8.88 41.34 4.54 C 39.00 2.85 37.22 6.36 35.74 7.75 M 8.07 7.92 C 11.99 11.17 16.43 15.44 15.93 21.00 C 14.93 26.44 9.49 29.69 8.35 35.11 C 7.07 41.26 9.80 47.55 13.94 52.03 C 25.17 51.95 36.41 52.03 47.64 52.00 C 40.43 49.47 32.76 46.34 28.05 40.01 C 24.70 35.55 26.25 29.71 27.49 24.78 C 28.62 20.81 27.90 16.10 24.64 13.32 C 20.15 9.38 13.95 7.80 8.07 7.92 M 47.75 16.57 C 41.09 23.65 37.66 33.26 36.99 42.85 C 40.35 44.86 43.94 46.43 47.60 47.81 C 47.88 41.94 49.89 36.40 52.05 31.00 C 51.62 30.68 50.76 30.03 50.33 29.71 C 47.34 32.84 45.00 36.50 43.37 40.51 C 44.39 32.68 46.68 25.09 49.77 17.84 C 50.85 16.63 48.36 15.18 47.75 16.57 Z" />
</g>
<g id="#000000ff">
<path fill="#968176" opacity="1.00" d=" M 35.74 7.75 C 37.22 6.36 39.00 2.85 41.34 4.54 C 43.07 8.88 41.00 13.60 39.96 17.91 C 39.52 19.76 37.65 20.96 37.55 22.94 C 36.55 29.33 36.18 35.80 36.00 42.26 C 34.67 41.12 33.36 39.98 32.06 38.82 C 32.27 32.79 32.97 26.79 33.77 20.82 C 32.22 16.46 34.17 11.82 35.74 7.75 Z" />
<path fill="#968176" opacity="1.00" d=" M 8.07 7.92 C 13.95 7.80 20.15 9.38 24.64 13.32 C 27.90 16.10 28.62 20.81 27.49 24.78 C 26.25 29.71 24.70 35.55 28.05 40.01 C 32.76 46.34 40.43 49.47 47.64 52.00 C 36.41 52.03 25.17 51.95 13.94 52.03 C 9.80 47.55 7.07 41.26 8.35 35.11 C 9.49 29.69 14.93 26.44 15.93 21.00 C 16.43 15.44 11.99 11.17 8.07 7.92 Z" />
<path fill="#968176" opacity="1.00" d=" M 47.75 16.57 C 48.36 15.18 50.85 16.63 49.77 17.84 C 46.68 25.09 44.39 32.68 43.37 40.51 C 45.00 36.50 47.34 32.84 50.33 29.71 C 50.76 30.03 51.62 30.68 52.05 31.00 C 49.89 36.40 47.88 41.94 47.60 47.81 C 43.94 46.43 40.35 44.86 36.99 42.85 C 37.66 33.26 41.09 23.65 47.75 16.57 Z" />
</g>
</svg>
