<?xml version="1.0" encoding="UTF-8" ?>
<!DOCTYPE svg PUBLIC "-//W3C//DTD SVG 1.1//EN" "http://www.w3.org/Graphics/SVG/1.1/DTD/svg11.dtd">
<svg width="64pt" height="64pt" viewBox="0 0 64 64" version="1.1" xmlns="http://www.w3.org/2000/svg">
<g id="#ffffffff">
<path fill="#ffffff" opacity="1.00" d=" M 0.00 0.00 L 64.00 0.00 L 64.00 64.00 L 0.00 64.00 L 0.00 0.00 M 6.02 13.99 C 8.04 16.95 8.41 20.49 7.89 23.96 C 7.17 25.51 5.23 24.94 3.91 25.26 C 3.33 29.11 6.35 32.37 10.19 32.43 C 9.37 37.40 7.09 41.98 6.14 46.91 C 5.61 50.63 8.52 54.33 12.22 54.83 C 16.14 55.59 21.64 57.41 24.17 53.06 C 25.83 48.97 25.37 44.34 26.23 40.04 C 30.15 39.97 34.08 40.00 38.00 40.00 C 38.00 37.33 38.00 34.67 38.00 32.00 C 42.75 32.00 47.50 32.00 52.25 32.00 C 53.25 30.00 54.25 28.01 55.24 26.01 C 56.83 26.00 58.41 26.00 60.00 26.00 C 60.00 22.66 60.00 19.33 60.00 16.00 C 58.67 16.00 57.34 16.00 56.01 16.00 C 56.01 15.50 55.99 14.50 55.99 14.00 C 54.66 14.00 53.34 14.00 52.01 14.00 C 52.01 14.50 51.99 15.50 51.99 16.00 C 38.67 16.00 25.36 16.00 12.04 16.00 C 11.37 15.34 10.70 14.67 10.03 14.00 C 9.03 14.00 7.03 13.99 6.02 13.99 Z" />
<path fill="#ffffff" opacity="1.00" d=" M 12.04 20.00 C 14.69 20.00 17.34 20.00 19.99 20.00 C 19.99 20.50 20.01 21.50 20.01 22.00 C 23.34 22.00 26.66 22.00 29.99 22.00 C 29.99 21.50 30.01 20.50 30.01 20.00 C 38.68 20.00 47.34 20.00 56.00 20.00 C 56.00 20.50 56.00 21.50 56.00 22.00 C 48.67 22.00 41.33 22.00 34.00 22.00 C 34.00 23.33 34.00 24.67 34.00 26.00 C 39.61 26.01 45.21 25.99 50.82 26.01 C 50.57 26.51 50.06 27.50 49.81 28.00 C 42.02 28.01 34.22 27.99 26.42 28.01 C 25.90 30.83 25.39 33.65 24.81 36.46 C 19.86 39.74 22.79 46.81 20.42 51.43 C 19.46 52.39 17.99 51.67 16.82 51.64 C 14.34 51.08 10.44 51.28 10.01 47.97 C 10.93 42.87 13.42 38.17 14.12 33.03 C 14.10 30.44 11.94 28.59 9.57 28.04 C 12.11 26.12 12.19 22.89 12.04 20.00 Z" />
<path fill="#ffffff" opacity="1.00" d=" M 29.00 36.00 C 29.25 34.67 29.50 33.33 29.75 32.00 C 31.17 32.00 32.58 32.00 34.00 32.00 C 34.00 33.33 34.00 34.67 34.00 36.00 C 32.33 36.00 30.66 36.00 29.00 36.00 Z" />
</g>
<g id="#000000ff">
<path fill="#000000" opacity="1.00" d=" M 6.02 13.99 C 7.03 13.99 9.03 14.00 10.03 14.00 C 10.70 14.67 11.37 15.34 12.04 16.00 C 25.36 16.00 38.67 16.00 51.99 16.00 C 51.99 15.50 52.01 14.50 52.01 14.00 C 53.34 14.00 54.66 14.00 55.99 14.00 C 55.99 14.50 56.01 15.50 56.01 16.00 C 57.34 16.00 58.67 16.00 60.00 16.00 C 60.00 19.33 60.00 22.66 60.00 26.00 C 58.41 26.00 56.83 26.00 55.24 26.01 C 54.25 28.01 53.25 30.00 52.25 32.00 C 47.50 32.00 42.75 32.00 38.00 32.00 C 38.00 34.67 38.00 37.33 38.00 40.00 C 34.08 40.00 30.15 39.97 26.23 40.04 C 25.37 44.34 25.83 48.97 24.17 53.06 C 21.64 57.41 16.14 55.59 12.22 54.83 C 8.52 54.33 5.61 50.63 6.14 46.91 C 7.09 41.98 9.37 37.40 10.19 32.43 C 6.35 32.37 3.33 29.11 3.91 25.26 C 5.23 24.94 7.17 25.51 7.89 23.96 C 8.41 20.49 8.04 16.95 6.02 13.99 M 12.04 20.00 C 12.19 22.89 12.11 26.12 9.57 28.04 C 11.94 28.59 14.10 30.44 14.12 33.03 C 13.42 38.17 10.93 42.87 10.01 47.97 C 10.44 51.28 14.34 51.08 16.82 51.64 C 17.99 51.67 19.46 52.39 20.42 51.43 C 22.79 46.81 19.86 39.74 24.81 36.46 C 25.39 33.65 25.90 30.83 26.42 28.01 C 34.22 27.99 42.02 28.01 49.81 28.00 C 50.06 27.50 50.57 26.51 50.82 26.01 C 45.21 25.99 39.61 26.01 34.00 26.00 C 34.00 24.67 34.00 23.33 34.00 22.00 C 41.33 22.00 48.67 22.00 56.00 22.00 C 56.00 21.50 56.00 20.50 56.00 20.00 C 47.34 20.00 38.68 20.00 30.01 20.00 C 30.01 20.50 29.99 21.50 29.99 22.00 C 26.66 22.00 23.34 22.00 20.01 22.00 C 20.01 21.50 19.99 20.50 19.99 20.00 C 17.34 20.00 14.69 20.00 12.04 20.00 M 29.00 36.00 C 30.66 36.00 32.33 36.00 34.00 36.00 C 34.00 34.67 34.00 33.33 34.00 32.00 C 32.58 32.00 31.17 32.00 29.75 32.00 C 29.50 33.33 29.25 34.67 29.00 36.00 Z" />
</g>
</svg>
