<?xml version="1.0" encoding="UTF-8" ?>
<!DOCTYPE svg PUBLIC "-//W3C//DTD SVG 1.1//EN" "http://www.w3.org/Graphics/SVG/1.1/DTD/svg11.dtd">
<svg width="60pt" height="60pt" viewBox="0 0 60 60" version="1.1" xmlns="http://www.w3.org/2000/svg">
<g id="#ffffffff">
<path fill="#ffffff" opacity="1.00" d=" M 0.00 0.00 L 60.00 0.00 L 60.00 60.00 L 0.00 60.00 L 0.00 0.00 M 26.43 6.71 C 23.21 8.45 23.25 13.62 26.49 15.32 C 29.63 17.37 34.19 14.64 34.00 10.94 C 34.10 7.25 29.53 4.63 26.43 6.71 M 18.41 21.16 C 17.00 24.44 15.65 27.74 14.42 31.08 C 13.53 33.10 14.17 35.73 16.05 36.94 C 19.21 38.91 22.70 40.27 26.00 41.97 C 26.07 45.60 25.79 49.23 26.16 52.84 C 26.98 54.84 30.06 54.12 30.00 51.97 C 30.69 47.73 31.75 43.49 31.86 39.19 C 29.62 36.78 26.91 34.88 24.51 32.63 C 25.39 30.47 26.27 28.31 27.13 26.14 C 29.36 26.86 31.90 28.99 34.08 27.03 C 36.07 25.30 40.20 24.35 39.91 21.22 C 37.64 18.27 34.33 22.27 31.86 23.15 C 29.66 21.61 27.55 19.92 25.21 18.61 C 22.76 17.16 19.34 18.52 18.41 21.16 M 43.93 19.90 C 44.91 24.53 41.16 27.58 37.57 29.54 C 39.42 37.08 40.99 44.69 42.95 52.19 C 43.61 54.84 46.74 53.71 48.59 53.33 C 50.72 52.77 54.72 52.47 53.83 49.27 C 51.74 40.09 49.66 30.90 47.38 21.77 C 47.12 20.11 45.19 20.14 43.93 19.90 M 13.63 40.20 C 13.58 41.07 13.46 42.81 13.41 43.68 C 11.08 46.23 8.39 48.46 6.29 51.21 C 5.22 52.98 7.93 54.91 9.36 53.46 C 13.16 50.45 18.29 48.23 19.50 43.05 C 17.54 42.10 15.59 41.15 13.63 40.20 Z" />
</g>
<g id="#000000ff">
<path fill="#968176" opacity="1.00" d=" M 26.43 6.71 C 29.53 4.63 34.10 7.25 34.00 10.94 C 34.19 14.64 29.63 17.37 26.49 15.32 C 23.25 13.62 23.21 8.45 26.43 6.71 Z" />
<path fill="#968176" opacity="1.00" d=" M 18.41 21.16 C 19.34 18.52 22.76 17.16 25.21 18.61 C 27.55 19.92 29.66 21.61 31.86 23.15 C 34.33 22.27 37.64 18.27 39.91 21.22 C 40.20 24.35 36.07 25.30 34.08 27.03 C 31.90 28.99 29.36 26.86 27.13 26.14 C 26.27 28.31 25.39 30.47 24.51 32.63 C 26.91 34.88 29.62 36.78 31.86 39.19 C 31.75 43.49 30.69 47.73 30.00 51.97 C 30.06 54.12 26.98 54.84 26.16 52.84 C 25.79 49.23 26.07 45.60 26.00 41.97 C 22.70 40.27 19.21 38.91 16.05 36.94 C 14.17 35.73 13.53 33.10 14.42 31.08 C 15.65 27.74 17.00 24.44 18.41 21.16 Z" />
<path fill="#968176" opacity="1.00" d=" M 43.93 19.90 C 45.19 20.14 47.12 20.11 47.38 21.77 C 49.66 30.90 51.74 40.09 53.83 49.27 C 54.72 52.47 50.72 52.77 48.59 53.33 C 46.74 53.71 43.61 54.84 42.95 52.19 C 40.99 44.69 39.42 37.08 37.57 29.54 C 41.16 27.58 44.91 24.53 43.93 19.90 Z" />
<path fill="#968176" opacity="1.00" d=" M 13.63 40.20 C 15.59 41.15 17.54 42.10 19.50 43.05 C 18.29 48.23 13.16 50.45 9.36 53.46 C 7.93 54.91 5.22 52.98 6.29 51.21 C 8.39 48.46 11.08 46.23 13.41 43.68 C 13.46 42.81 13.58 41.07 13.63 40.20 Z" />
</g>
</svg>
