<?xml version="1.0" encoding="UTF-8" ?>
<!DOCTYPE svg PUBLIC "-//W3C//DTD SVG 1.1//EN" "http://www.w3.org/Graphics/SVG/1.1/DTD/svg11.dtd">
<svg width="64pt" height="64pt" viewBox="0 0 64 64" version="1.1" xmlns="http://www.w3.org/2000/svg">
<g id="#ffffffff">
<path fill="#ffffff" opacity="1.00" d=" M 0.00 0.00 L 64.00 0.00 L 64.00 64.00 L 0.00 64.00 L 0.00 0.00 M 45.58 6.66 C 42.89 9.62 39.70 12.16 37.32 15.36 C 35.91 19.09 34.22 22.71 30.94 25.17 C 31.78 26.01 32.62 26.85 33.46 27.69 C 32.31 28.88 31.11 30.05 29.97 31.26 C 30.90 32.18 31.82 33.11 32.75 34.04 C 33.96 32.89 35.12 31.70 36.30 30.54 C 37.18 31.40 38.05 32.26 38.93 33.13 C 39.77 32.26 40.61 31.38 41.49 30.53 C 43.89 27.93 47.95 28.00 50.39 25.45 C 52.73 23.14 55.07 20.83 57.41 18.51 C 56.47 17.56 55.53 16.62 54.59 15.67 C 52.43 17.81 50.27 19.94 48.10 22.07 C 46.07 20.03 44.06 17.98 42.05 15.92 C 44.17 13.78 46.28 11.63 48.41 9.49 C 47.46 8.55 46.52 7.61 45.58 6.66 M 8.59 31.41 C 12.12 34.94 15.66 38.46 19.18 42.00 C 15.65 45.53 12.13 49.06 8.59 52.58 C 9.55 53.52 10.50 54.46 11.45 55.40 C 14.96 51.87 18.49 48.36 22.01 44.84 C 25.56 48.35 29.06 51.89 32.60 55.40 C 33.54 54.46 34.47 53.52 35.41 52.58 C 31.92 49.03 28.35 45.55 24.86 42.00 C 26.51 40.32 28.17 38.66 29.84 37.00 C 28.89 36.06 27.94 35.12 26.99 34.18 C 25.34 35.85 23.68 37.51 22.02 39.16 C 18.48 35.64 14.95 32.12 11.42 28.59 C 10.48 29.53 9.53 30.47 8.59 31.41 Z" />
<path fill="#ffffff" opacity="1.00" d=" M 36.69 25.26 C 38.24 23.62 39.08 21.52 39.89 19.46 C 41.45 21.03 43.01 22.61 44.56 24.19 C 42.53 25.03 40.42 25.81 38.83 27.39 C 38.11 26.68 37.40 25.97 36.69 25.26 Z" />
</g>
<g id="#000000ff">
<path fill="#000000" opacity="1.00" d=" M 45.58 6.66 C 46.52 7.61 47.46 8.55 48.41 9.49 C 46.28 11.63 44.17 13.78 42.05 15.92 C 44.06 17.98 46.07 20.03 48.10 22.07 C 50.27 19.94 52.43 17.81 54.59 15.67 C 55.53 16.62 56.47 17.56 57.41 18.51 C 55.07 20.83 52.73 23.14 50.39 25.45 C 47.95 28.00 43.89 27.93 41.49 30.53 C 40.61 31.38 39.77 32.26 38.93 33.13 C 38.05 32.26 37.18 31.40 36.30 30.54 C 35.12 31.70 33.96 32.89 32.75 34.04 C 31.82 33.11 30.90 32.18 29.97 31.26 C 31.11 30.05 32.31 28.88 33.46 27.69 C 32.62 26.85 31.78 26.01 30.94 25.17 C 34.22 22.71 35.91 19.09 37.32 15.36 C 39.70 12.16 42.89 9.62 45.58 6.66 M 36.69 25.26 C 37.40 25.97 38.11 26.68 38.83 27.39 C 40.42 25.81 42.53 25.03 44.56 24.19 C 43.01 22.61 41.45 21.03 39.89 19.46 C 39.08 21.52 38.24 23.62 36.69 25.26 Z" />
<path fill="#000000" opacity="1.00" d=" M 8.59 31.41 C 9.53 30.47 10.48 29.53 11.42 28.59 C 14.95 32.12 18.48 35.64 22.02 39.16 C 23.68 37.51 25.34 35.85 26.99 34.18 C 27.94 35.12 28.89 36.06 29.84 37.00 C 28.17 38.66 26.51 40.32 24.86 42.00 C 28.35 45.55 31.92 49.03 35.41 52.58 C 34.47 53.52 33.54 54.46 32.60 55.40 C 29.06 51.89 25.56 48.35 22.01 44.84 C 18.49 48.36 14.96 51.87 11.45 55.40 C 10.50 54.46 9.55 53.52 8.59 52.58 C 12.13 49.06 15.65 45.53 19.18 42.00 C 15.66 38.46 12.12 34.94 8.59 31.41 Z" />
</g>
</svg>
