<?xml version="1.0" encoding="UTF-8" ?>
<!DOCTYPE svg PUBLIC "-//W3C//DTD SVG 1.1//EN" "http://www.w3.org/Graphics/SVG/1.1/DTD/svg11.dtd">
<svg width="60pt" height="60pt" viewBox="0 0 60 60" version="1.1" xmlns="http://www.w3.org/2000/svg">
<g id="#ffffffff">
<path fill="#ffffff" opacity="1.00" d=" M 0.00 0.00 L 60.00 0.00 L 60.00 60.00 L 0.00 60.00 L 0.00 0.00 M 12.12 11.39 C 12.23 11.99 12.47 13.18 12.58 13.77 C 10.59 15.35 6.87 15.54 6.01 18.03 C 7.23 23.01 11.64 27.42 16.78 28.15 C 18.01 26.81 18.46 24.96 19.24 23.35 C 21.19 26.03 23.31 28.59 25.69 30.90 C 19.43 35.98 11.88 40.76 9.72 49.08 C 11.51 50.68 13.64 51.80 16.00 52.29 C 16.69 49.96 16.66 47.25 18.25 45.30 C 25.44 37.66 34.74 32.08 40.76 23.35 C 41.76 24.93 41.75 27.76 43.95 28.12 C 47.99 27.11 51.36 24.04 53.21 20.36 C 53.68 19.28 54.77 17.19 53.06 16.63 C 51.20 15.66 49.30 14.76 47.44 13.78 C 47.54 13.13 47.73 11.84 47.82 11.20 C 45.81 9.19 43.03 8.54 40.31 8.12 C 38.13 10.00 36.02 12.02 34.24 14.28 C 33.41 15.94 35.70 17.10 36.39 18.36 C 34.96 21.86 32.81 25.01 30.00 27.54 C 27.18 25.01 25.03 21.85 23.61 18.35 C 24.38 17.08 26.42 16.05 25.81 14.31 C 24.00 12.06 21.90 10.03 19.71 8.14 C 16.92 8.51 14.03 9.16 12.12 11.39 M 33.04 37.29 C 35.81 39.77 38.71 42.11 41.31 44.78 C 43.32 46.73 43.26 49.75 43.97 52.29 C 46.35 51.82 48.47 50.67 50.28 49.08 C 48.49 42.16 42.83 37.55 37.45 33.36 C 35.99 34.67 34.51 35.98 33.04 37.29 Z" />
</g>
<g id="#000000ff">
<path fill="#000000" opacity="1.00" d=" M 12.12 11.39 C 14.03 9.16 16.92 8.51 19.71 8.14 C 21.90 10.03 24.00 12.06 25.81 14.31 C 26.42 16.05 24.38 17.08 23.61 18.35 C 25.03 21.85 27.18 25.01 30.00 27.54 C 32.81 25.01 34.96 21.86 36.39 18.36 C 35.70 17.10 33.41 15.94 34.24 14.28 C 36.02 12.02 38.13 10.00 40.31 8.12 C 43.03 8.54 45.81 9.19 47.82 11.20 C 47.73 11.84 47.54 13.13 47.44 13.78 C 49.30 14.76 51.20 15.66 53.06 16.63 C 54.77 17.19 53.68 19.28 53.21 20.36 C 51.36 24.04 47.99 27.11 43.95 28.12 C 41.75 27.76 41.76 24.93 40.76 23.35 C 34.74 32.08 25.44 37.66 18.25 45.30 C 16.66 47.25 16.69 49.96 16.00 52.29 C 13.64 51.80 11.51 50.68 9.72 49.08 C 11.88 40.76 19.43 35.98 25.69 30.90 C 23.31 28.59 21.19 26.03 19.24 23.35 C 18.46 24.96 18.01 26.81 16.78 28.15 C 11.64 27.42 7.23 23.01 6.01 18.03 C 6.87 15.54 10.59 15.35 12.58 13.77 C 12.47 13.18 12.23 11.99 12.12 11.39 Z" />
<path fill="#000000" opacity="1.00" d=" M 33.04 37.29 C 34.51 35.98 35.99 34.67 37.45 33.36 C 42.83 37.55 48.49 42.16 50.28 49.08 C 48.47 50.67 46.35 51.82 43.97 52.29 C 43.26 49.75 43.32 46.73 41.31 44.78 C 38.71 42.11 35.81 39.77 33.04 37.29 Z" />
</g>
</svg>
