<?xml version="1.0" encoding="UTF-8" ?>
<!DOCTYPE svg PUBLIC "-//W3C//DTD SVG 1.1//EN" "http://www.w3.org/Graphics/SVG/1.1/DTD/svg11.dtd">
<svg width="60pt" height="60pt" viewBox="0 0 60 60" version="1.1" xmlns="http://www.w3.org/2000/svg">
<g id="#ffffffff">
<path fill="#ffffff" opacity="1.00" d=" M 0.00 0.00 L 3.10 0.00 C 2.48 1.36 1.40 2.47 0.00 3.03 L 0.00 0.00 Z" />
<path fill="#ffffff" opacity="1.00" d=" M 4.63 0.00 L 60.00 0.00 L 60.00 60.00 L 0.00 60.00 L 0.00 4.59 C 1.40 6.32 3.04 7.85 4.56 9.47 C 3.70 10.31 2.85 11.15 1.99 11.99 C 5.33 12.00 8.66 12.00 12.00 12.00 C 12.00 8.67 12.00 5.33 12.00 1.99 C 11.15 2.85 10.30 3.71 9.45 4.57 C 7.87 3.02 6.32 1.43 4.63 0.00 M 24.48 6.66 C 16.05 8.58 9.05 15.44 6.85 23.78 C 4.71 31.44 6.81 40.04 12.11 45.93 C 19.12 54.08 31.83 56.38 41.23 51.16 C 51.44 45.97 56.65 32.91 52.63 22.14 C 48.93 10.83 36.05 3.64 24.48 6.66 Z" />
<path fill="#ffffff" opacity="1.00" d=" M 17.84 14.00 C 20.70 12.11 23.89 10.85 27.21 10.04 C 28.29 10.83 29.35 11.64 30.45 12.40 C 30.92 11.81 31.86 10.63 32.32 10.04 C 35.84 10.67 39.17 12.05 42.16 14.01 C 42.17 15.14 42.34 16.24 42.67 17.30 C 43.73 17.66 44.84 17.84 45.99 17.84 C 47.87 20.70 49.16 23.88 49.92 27.21 C 49.17 28.09 48.50 29.03 47.89 30.02 C 48.51 30.98 49.19 31.91 49.92 32.79 C 49.16 36.13 47.87 39.31 45.98 42.18 C 44.79 42.44 43.07 41.80 42.38 43.16 C 42.33 43.87 42.22 45.28 42.17 45.99 C 39.30 47.86 36.12 49.16 32.78 49.93 C 31.95 49.10 31.02 48.42 29.98 47.89 C 28.97 48.44 28.04 49.11 27.21 49.93 C 23.88 49.16 20.69 47.87 17.82 45.99 C 17.59 44.79 18.12 43.18 16.90 42.39 C 16.18 42.33 14.74 42.23 14.02 42.18 C 12.13 39.32 10.84 36.13 10.07 32.79 C 10.81 31.91 11.49 30.98 12.11 30.01 C 11.49 29.03 10.82 28.10 10.07 27.21 C 10.83 23.88 12.11 20.69 14.01 17.84 C 15.17 17.82 16.30 17.64 17.40 17.30 C 17.64 16.22 17.78 15.12 17.84 14.00 M 20.13 22.72 C 21.80 24.87 23.88 26.64 25.75 28.60 C 26.08 30.49 26.28 32.90 28.41 33.65 C 31.51 35.28 35.32 31.38 33.60 28.32 C 32.83 26.25 30.46 26.09 28.60 25.75 C 26.65 23.89 24.89 21.80 22.73 20.16 C 21.10 19.37 19.46 21.11 20.13 22.72 Z" />
</g>
<g id="#000000ff">
<path fill="#968176" opacity="1.00" d=" M 3.10 0.00 L 4.63 0.00 C 6.32 1.43 7.87 3.02 9.45 4.57 C 10.30 3.71 11.15 2.85 12.00 1.99 C 12.00 5.33 12.00 8.67 12.00 12.00 C 8.66 12.00 5.33 12.00 1.99 11.99 C 2.85 11.15 3.70 10.31 4.56 9.47 C 3.04 7.85 1.40 6.32 0.00 4.59 L 0.00 3.03 C 1.40 2.47 2.48 1.36 3.10 0.00 Z" />
<path fill="#968176" opacity="1.00" d=" M 24.48 6.66 C 36.05 3.64 48.93 10.83 52.63 22.14 C 56.65 32.91 51.44 45.97 41.23 51.16 C 31.83 56.38 19.12 54.08 12.11 45.93 C 6.81 40.04 4.71 31.44 6.85 23.78 C 9.05 15.44 16.05 8.58 24.48 6.66 M 17.84 14.00 C 17.78 15.12 17.64 16.22 17.40 17.30 C 16.30 17.64 15.17 17.82 14.01 17.84 C 12.11 20.69 10.83 23.88 10.07 27.21 C 10.82 28.10 11.49 29.03 12.11 30.01 C 11.49 30.98 10.81 31.91 10.07 32.79 C 10.84 36.13 12.13 39.32 14.02 42.18 C 14.74 42.23 16.18 42.33 16.90 42.39 C 18.12 43.18 17.59 44.79 17.82 45.99 C 20.69 47.87 23.88 49.16 27.21 49.93 C 28.04 49.11 28.97 48.44 29.98 47.89 C 31.02 48.42 31.95 49.10 32.78 49.93 C 36.12 49.16 39.30 47.86 42.17 45.99 C 42.22 45.28 42.33 43.87 42.38 43.16 C 43.07 41.80 44.79 42.44 45.98 42.18 C 47.87 39.31 49.16 36.13 49.92 32.79 C 49.19 31.91 48.51 30.98 47.89 30.02 C 48.50 29.03 49.17 28.09 49.92 27.21 C 49.16 23.88 47.87 20.70 45.99 17.84 C 44.84 17.84 43.73 17.66 42.67 17.30 C 42.34 16.24 42.17 15.14 42.16 14.01 C 39.17 12.05 35.84 10.67 32.32 10.04 C 31.86 10.63 30.92 11.81 30.45 12.40 C 29.35 11.64 28.29 10.83 27.21 10.04 C 23.89 10.85 20.70 12.11 17.84 14.00 Z" />
<path fill="#968176" opacity="1.00" d=" M 20.13 22.72 C 19.46 21.11 21.10 19.37 22.73 20.16 C 24.89 21.80 26.65 23.89 28.60 25.75 C 30.46 26.09 32.83 26.25 33.60 28.32 C 35.32 31.38 31.51 35.28 28.41 33.65 C 26.28 32.90 26.08 30.49 25.75 28.60 C 23.88 26.64 21.80 24.87 20.13 22.72 Z" />
</g>
</svg>
