<?xml version="1.0" encoding="UTF-8" ?>
<!DOCTYPE svg PUBLIC "-//W3C//DTD SVG 1.1//EN" "http://www.w3.org/Graphics/SVG/1.1/DTD/svg11.dtd">
<svg width="60pt" height="60pt" viewBox="0 0 60 60" version="1.1" xmlns="http://www.w3.org/2000/svg">
<g id="#ffffffff">
<path fill="#ffffff" opacity="1.00" d=" M 0.00 0.00 L 60.00 0.00 L 60.00 60.00 L 0.00 60.00 L 0.00 0.00 M 8.15 20.10 C 4.87 27.04 5.56 35.35 9.17 42.03 C 10.02 40.77 10.86 39.51 11.71 38.25 C 8.14 30.16 10.38 19.95 17.42 14.47 C 23.12 9.73 31.55 8.66 38.26 11.80 C 44.62 14.63 49.20 20.99 49.85 27.93 C 50.05 30.75 52.06 32.88 53.55 35.12 C 54.05 31.33 54.24 27.42 53.14 23.71 C 50.67 14.21 41.87 6.78 32.04 6.10 C 22.16 5.10 12.14 11.03 8.15 20.10 M 23.32 20.17 C 21.01 20.77 18.70 21.50 16.58 22.59 C 15.30 23.71 16.26 26.12 17.98 25.93 C 20.53 25.44 23.06 24.62 25.36 23.40 C 27.10 22.20 25.25 19.21 23.32 20.17 M 35.22 20.11 C 33.62 20.66 33.49 23.30 35.23 23.74 C 37.41 24.69 39.68 25.53 42.03 25.94 C 44.10 26.19 44.79 22.75 42.74 22.24 C 40.32 21.32 37.84 20.06 35.22 20.11 M 19.80 39.96 C 26.60 40.02 33.40 40.02 40.19 39.96 C 39.79 34.71 35.48 29.84 29.98 30.02 C 24.50 29.86 20.20 34.72 19.80 39.96 M 44.69 44.25 C 46.67 47.47 52.09 45.79 51.99 42.06 C 51.51 39.03 49.49 36.55 48.00 33.96 C 46.48 37.07 42.66 40.59 44.69 44.25 M 10.71 52.28 C 12.72 55.50 18.17 53.73 17.99 49.98 C 17.46 46.99 15.49 44.53 14.00 41.96 C 12.47 45.08 8.64 48.62 10.71 52.28 M 21.86 48.32 C 21.84 49.40 21.81 51.54 21.79 52.62 C 29.34 55.24 37.90 53.96 44.36 49.26 C 43.33 48.37 42.32 47.47 41.31 46.57 C 35.57 50.26 28.17 51.03 21.86 48.32 Z" />
</g>
<g id="#000000ff">
<path fill="#000000" opacity="1.00" d=" M 8.15 20.10 C 12.14 11.03 22.16 5.10 32.04 6.10 C 41.87 6.78 50.67 14.21 53.14 23.71 C 54.24 27.42 54.05 31.33 53.55 35.12 C 52.06 32.88 50.05 30.75 49.85 27.93 C 49.20 20.99 44.62 14.63 38.26 11.80 C 31.55 8.66 23.12 9.73 17.42 14.47 C 10.38 19.95 8.14 30.16 11.71 38.25 C 10.86 39.51 10.02 40.77 9.17 42.03 C 5.56 35.35 4.87 27.04 8.15 20.10 Z" />
<path fill="#000000" opacity="1.00" d=" M 23.32 20.17 C 25.25 19.21 27.10 22.20 25.36 23.40 C 23.06 24.62 20.53 25.44 17.98 25.93 C 16.26 26.12 15.30 23.71 16.58 22.59 C 18.70 21.50 21.01 20.77 23.32 20.17 Z" />
<path fill="#000000" opacity="1.00" d=" M 35.22 20.11 C 37.84 20.06 40.32 21.32 42.74 22.24 C 44.79 22.75 44.10 26.19 42.03 25.94 C 39.68 25.53 37.41 24.69 35.23 23.74 C 33.49 23.30 33.62 20.66 35.22 20.11 Z" />
<path fill="#000000" opacity="1.00" d=" M 19.80 39.96 C 20.20 34.72 24.50 29.86 29.98 30.02 C 35.48 29.84 39.79 34.71 40.19 39.96 C 33.40 40.02 26.60 40.02 19.80 39.96 Z" />
<path fill="#000000" opacity="1.00" d=" M 44.69 44.25 C 42.66 40.59 46.48 37.07 48.00 33.96 C 49.49 36.55 51.51 39.03 51.99 42.06 C 52.09 45.79 46.67 47.47 44.69 44.25 Z" />
<path fill="#000000" opacity="1.00" d=" M 10.71 52.28 C 8.64 48.62 12.47 45.08 14.00 41.96 C 15.49 44.53 17.46 46.99 17.99 49.98 C 18.17 53.73 12.72 55.50 10.71 52.28 Z" />
<path fill="#000000" opacity="1.00" d=" M 21.86 48.32 C 28.17 51.03 35.57 50.26 41.31 46.57 C 42.32 47.47 43.33 48.37 44.36 49.26 C 37.90 53.96 29.34 55.24 21.79 52.62 C 21.81 51.54 21.84 49.40 21.86 48.32 Z" />
</g>
</svg>
