<?xml version="1.0" encoding="UTF-8" ?>
<!DOCTYPE svg PUBLIC "-//W3C//DTD SVG 1.1//EN" "http://www.w3.org/Graphics/SVG/1.1/DTD/svg11.dtd">
<svg width="60pt" height="60pt" viewBox="0 0 60 60" version="1.1" xmlns="http://www.w3.org/2000/svg">
<g id="#ffffffff">
<path fill="#ffffff" opacity="1.00" d=" M 0.00 0.00 L 60.00 0.00 L 60.00 60.00 L 0.00 60.00 L 0.00 0.00 M 12.39 6.35 C 8.45 8.62 10.29 14.05 10.18 17.75 C 11.85 19.48 14.15 20.45 15.81 22.20 C 16.14 27.39 16.15 32.64 15.80 37.83 C 14.11 39.47 11.94 40.51 10.22 42.13 C 9.84 44.76 9.91 47.44 10.05 50.09 C 9.96 52.15 11.83 53.95 13.85 53.94 C 18.56 54.12 23.28 53.94 27.99 54.00 C 28.00 53.50 28.00 52.50 28.01 52.00 C 29.34 52.00 30.66 52.00 31.99 52.00 C 32.00 52.50 32.00 53.50 32.01 54.00 C 37.00 53.89 42.00 54.24 46.98 53.84 C 51.69 52.16 49.74 45.97 49.80 42.18 C 48.13 40.48 45.91 39.46 44.20 37.82 C 43.84 32.64 43.87 27.39 44.18 22.20 C 46.21 19.82 50.87 19.02 50.02 15.07 C 49.95 12.03 50.92 7.13 46.96 6.15 C 41.99 5.77 36.99 6.11 32.01 6.00 C 32.00 6.50 32.00 7.50 31.99 8.00 C 30.66 8.00 29.34 8.00 28.01 8.00 C 28.00 7.50 28.00 6.50 27.99 6.00 C 22.80 6.23 17.51 5.53 12.39 6.35 Z" />
<path fill="#ffffff" opacity="1.00" d=" M 28.00 12.00 C 29.33 12.00 30.67 12.00 32.00 12.00 C 32.00 14.00 32.00 16.00 32.00 18.00 C 30.67 18.00 29.33 18.00 28.00 18.00 C 28.00 16.00 28.00 14.00 28.00 12.00 Z" />
<path fill="#ffffff" opacity="1.00" d=" M 21.12 22.17 C 23.28 22.15 26.33 21.11 27.83 23.15 C 28.13 27.70 28.13 32.29 27.83 36.84 C 26.12 38.68 21.93 38.66 20.17 36.88 C 19.87 32.31 19.86 27.69 20.17 23.12 C 20.41 22.88 20.88 22.41 21.12 22.17 Z" />
<path fill="#ffffff" opacity="1.00" d=" M 33.10 22.18 C 35.26 22.14 38.27 21.14 39.82 23.11 C 40.14 27.69 40.14 32.32 39.82 36.91 C 38.02 38.64 33.98 38.64 32.17 36.91 C 31.87 32.32 31.86 27.69 32.18 23.10 C 32.41 22.87 32.87 22.41 33.10 22.18 Z" />
<path fill="#ffffff" opacity="1.00" d=" M 28.00 42.00 C 29.33 42.00 30.67 42.00 32.00 42.00 C 32.00 44.00 32.00 46.00 32.00 48.00 C 30.67 48.00 29.33 48.00 28.00 48.00 C 28.00 46.00 28.00 44.00 28.00 42.00 Z" />
</g>
<g id="#000000ff">
<path fill="#000000" opacity="1.00" d=" M 12.39 6.35 C 17.51 5.53 22.80 6.23 27.99 6.00 C 28.00 6.50 28.00 7.50 28.01 8.00 C 29.34 8.00 30.66 8.00 31.99 8.00 C 32.00 7.50 32.00 6.50 32.01 6.00 C 36.99 6.11 41.99 5.77 46.96 6.15 C 50.92 7.13 49.95 12.03 50.02 15.07 C 50.87 19.02 46.21 19.82 44.18 22.20 C 43.87 27.39 43.84 32.64 44.20 37.82 C 45.91 39.46 48.13 40.48 49.80 42.18 C 49.74 45.97 51.69 52.16 46.98 53.84 C 42.00 54.24 37.00 53.89 32.01 54.00 C 32.00 53.50 32.00 52.50 31.99 52.00 C 30.66 52.00 29.34 52.00 28.01 52.00 C 28.00 52.50 28.00 53.50 27.99 54.00 C 23.28 53.94 18.56 54.12 13.85 53.94 C 11.83 53.95 9.96 52.15 10.05 50.09 C 9.91 47.44 9.84 44.76 10.22 42.13 C 11.94 40.51 14.11 39.47 15.80 37.83 C 16.15 32.64 16.14 27.39 15.81 22.20 C 14.15 20.45 11.85 19.48 10.18 17.75 C 10.29 14.05 8.45 8.62 12.39 6.35 M 28.00 12.00 C 28.00 14.00 28.00 16.00 28.00 18.00 C 29.33 18.00 30.67 18.00 32.00 18.00 C 32.00 16.00 32.00 14.00 32.00 12.00 C 30.67 12.00 29.33 12.00 28.00 12.00 M 21.12 22.17 C 20.88 22.41 20.41 22.88 20.17 23.12 C 19.86 27.69 19.87 32.31 20.17 36.88 C 21.93 38.66 26.12 38.68 27.83 36.84 C 28.13 32.29 28.13 27.70 27.83 23.15 C 26.33 21.11 23.28 22.15 21.12 22.17 M 33.10 22.18 C 32.87 22.41 32.41 22.87 32.18 23.10 C 31.86 27.69 31.87 32.32 32.17 36.91 C 33.98 38.64 38.02 38.64 39.82 36.91 C 40.14 32.32 40.14 27.69 39.82 23.11 C 38.27 21.14 35.26 22.14 33.10 22.18 M 28.00 42.00 C 28.00 44.00 28.00 46.00 28.00 48.00 C 29.33 48.00 30.67 48.00 32.00 48.00 C 32.00 46.00 32.00 44.00 32.00 42.00 C 30.67 42.00 29.33 42.00 28.00 42.00 Z" />
</g>
</svg>
