<?xml version="1.0" encoding="UTF-8" ?>
<!DOCTYPE svg PUBLIC "-//W3C//DTD SVG 1.1//EN" "http://www.w3.org/Graphics/SVG/1.1/DTD/svg11.dtd">
<svg width="60pt" height="60pt" viewBox="0 0 60 60" version="1.1" xmlns="http://www.w3.org/2000/svg">
<g id="#ffffffff">
<path fill="#ffffff" opacity="1.00" d=" M 0.00 0.00 L 60.00 0.00 L 60.00 60.00 L 0.00 60.00 L 0.00 0.00 M 39.45 10.89 C 32.04 7.04 22.63 6.96 15.41 11.30 C 8.52 15.42 4.67 24.04 6.42 31.91 C 7.68 37.98 12.23 42.52 16.23 46.95 C 14.84 48.35 13.33 49.66 12.15 51.25 C 11.58 52.41 12.61 54.13 13.96 53.94 C 17.58 54.03 21.23 54.16 24.84 53.84 C 25.09 53.59 25.59 53.09 25.84 52.84 C 26.11 48.94 26.14 44.98 25.82 41.07 C 23.38 38.12 20.90 42.62 19.06 44.11 C 15.77 40.41 11.95 36.77 10.49 31.89 C 8.73 25.18 12.06 17.52 18.20 14.27 C 23.69 11.34 30.35 11.48 36.13 13.42 C 30.74 17.94 28.12 25.99 31.53 32.45 C 33.56 36.63 38.83 39.30 43.27 37.31 C 48.43 35.20 50.66 29.02 49.82 23.81 C 49.30 19.58 46.74 15.96 43.66 13.16 C 46.57 11.73 49.66 10.76 52.74 9.76 C 54.90 9.29 54.04 5.60 51.89 6.04 C 47.48 6.84 43.34 8.71 39.45 10.89 Z" />
<path fill="#ffffff" opacity="1.00" d=" M 34.85 21.81 C 35.91 19.22 38.10 17.37 40.20 15.63 C 44.25 18.64 47.09 23.80 45.64 28.91 C 45.00 32.16 41.48 35.07 38.14 33.63 C 33.73 31.74 33.21 25.75 34.85 21.81 Z" />
</g>
<g id="#000000ff">
<path fill="#000000" opacity="1.00" d=" M 39.45 10.89 C 43.34 8.71 47.48 6.84 51.89 6.04 C 54.04 5.60 54.90 9.29 52.74 9.76 C 49.66 10.76 46.57 11.73 43.66 13.16 C 46.74 15.96 49.30 19.58 49.82 23.81 C 50.66 29.02 48.43 35.20 43.27 37.31 C 38.83 39.30 33.56 36.63 31.53 32.45 C 28.12 25.99 30.74 17.94 36.13 13.42 C 30.35 11.48 23.69 11.34 18.20 14.27 C 12.06 17.52 8.73 25.18 10.49 31.89 C 11.95 36.77 15.77 40.41 19.06 44.11 C 20.90 42.62 23.38 38.12 25.82 41.07 C 26.14 44.98 26.11 48.94 25.84 52.84 C 25.59 53.09 25.09 53.59 24.84 53.84 C 21.23 54.16 17.58 54.03 13.96 53.94 C 12.61 54.13 11.58 52.41 12.15 51.25 C 13.33 49.66 14.84 48.35 16.23 46.95 C 12.23 42.52 7.68 37.98 6.42 31.91 C 4.67 24.04 8.52 15.42 15.41 11.30 C 22.63 6.96 32.04 7.04 39.45 10.89 M 34.85 21.81 C 33.21 25.75 33.73 31.74 38.14 33.63 C 41.48 35.07 45.00 32.16 45.64 28.91 C 47.09 23.80 44.25 18.64 40.20 15.63 C 38.10 17.37 35.91 19.22 34.85 21.81 Z" />
</g>
</svg>
