<?xml version="1.0" encoding="UTF-8" ?>
<!DOCTYPE svg PUBLIC "-//W3C//DTD SVG 1.1//EN" "http://www.w3.org/Graphics/SVG/1.1/DTD/svg11.dtd">
<svg width="64pt" height="64pt" viewBox="0 0 64 64" version="1.1" xmlns="http://www.w3.org/2000/svg">
<g id="#ffffffff">
<path fill="#ffffff" opacity="1.00" d=" M 0.00 0.00 L 64.00 0.00 L 64.00 64.00 L 0.00 64.00 L 0.00 0.00 M 24.39 6.52 C 19.58 8.22 18.48 15.34 22.58 18.39 C 26.44 21.90 33.34 19.20 33.90 14.05 C 34.92 8.97 29.12 4.33 24.39 6.52 M 20.12 26.85 C 19.84 30.85 20.07 34.86 20.00 38.86 C 22.65 41.55 25.35 44.20 28.00 46.89 C 28.00 50.60 28.00 54.30 28.00 58.00 C 29.33 58.00 30.67 58.00 32.00 58.00 C 32.00 53.72 32.00 49.44 32.00 45.16 C 29.40 42.41 26.65 39.81 24.00 37.11 C 24.10 33.79 23.79 30.45 24.16 27.15 C 24.83 25.65 27.12 25.64 27.83 27.11 C 28.13 29.01 27.99 30.94 28.00 32.85 C 29.82 34.72 31.67 36.57 33.54 38.38 C 35.49 37.57 37.44 36.76 39.41 36.00 C 42.04 38.81 47.11 38.59 49.08 35.13 C 51.68 31.41 48.46 25.83 43.99 25.99 C 40.50 25.91 38.07 29.10 37.75 32.34 C 36.94 32.66 35.32 33.30 34.50 33.62 C 33.67 32.79 32.84 31.96 32.01 31.12 C 32.10 28.37 32.18 25.06 29.66 23.28 C 26.39 20.46 20.78 22.64 20.12 26.85 M 20.02 41.97 C 19.98 47.31 20.00 52.66 20.00 58.00 C 21.33 58.00 22.67 58.00 24.00 58.00 C 24.00 54.00 24.00 50.00 24.00 46.01 C 22.67 44.66 21.35 43.31 20.02 41.97 Z" />
<path fill="#ffffff" opacity="1.00" d=" M 25.35 10.51 C 27.20 9.15 30.14 10.72 29.98 13.03 C 30.08 15.32 27.21 16.81 25.37 15.50 C 23.59 14.47 23.58 11.55 25.35 10.51 Z" />
<path fill="#ffffff" opacity="1.00" d=" M 43.14 30.11 C 45.57 29.11 47.16 32.78 44.84 33.88 C 42.43 34.89 40.86 31.24 43.14 30.11 Z" />
</g>
<g id="#000000ff">
<path fill="#000000" opacity="1.00" d=" M 24.39 6.52 C 29.12 4.33 34.92 8.97 33.90 14.05 C 33.34 19.20 26.44 21.90 22.58 18.39 C 18.48 15.34 19.58 8.22 24.39 6.52 M 25.35 10.51 C 23.58 11.55 23.59 14.47 25.37 15.50 C 27.21 16.81 30.08 15.32 29.98 13.03 C 30.14 10.72 27.20 9.15 25.35 10.51 Z" />
<path fill="#000000" opacity="1.00" d=" M 20.12 26.85 C 20.78 22.64 26.39 20.46 29.66 23.28 C 32.18 25.06 32.10 28.37 32.01 31.12 C 32.84 31.96 33.67 32.79 34.50 33.62 C 35.32 33.30 36.94 32.66 37.75 32.34 C 38.07 29.10 40.50 25.91 43.99 25.99 C 48.46 25.83 51.68 31.41 49.08 35.13 C 47.11 38.59 42.04 38.81 39.41 36.00 C 37.44 36.76 35.49 37.57 33.54 38.38 C 31.67 36.57 29.82 34.72 28.00 32.85 C 27.99 30.94 28.13 29.01 27.83 27.11 C 27.12 25.64 24.83 25.65 24.16 27.15 C 23.79 30.45 24.10 33.79 24.00 37.11 C 26.65 39.81 29.40 42.41 32.00 45.16 C 32.00 49.44 32.00 53.72 32.00 58.00 C 30.67 58.00 29.33 58.00 28.00 58.00 C 28.00 54.30 28.00 50.60 28.00 46.89 C 25.35 44.20 22.65 41.55 20.00 38.86 C 20.07 34.86 19.84 30.85 20.12 26.85 M 43.14 30.11 C 40.86 31.24 42.43 34.89 44.84 33.88 C 47.16 32.78 45.57 29.11 43.14 30.11 Z" />
<path fill="#000000" opacity="1.00" d=" M 20.02 41.97 C 21.35 43.31 22.67 44.66 24.00 46.01 C 24.00 50.00 24.00 54.00 24.00 58.00 C 22.67 58.00 21.33 58.00 20.00 58.00 C 20.00 52.66 19.98 47.31 20.02 41.97 Z" />
</g>
</svg>
