<?xml version="1.0" encoding="UTF-8" ?>
<!DOCTYPE svg PUBLIC "-//W3C//DTD SVG 1.1//EN" "http://www.w3.org/Graphics/SVG/1.1/DTD/svg11.dtd">
<svg width="64pt" height="64pt" viewBox="0 0 64 64" version="1.1" xmlns="http://www.w3.org/2000/svg">
<g id="#ffffffff">
<path fill="#ffffff" opacity="1.00" d=" M 0.00 0.00 L 64.00 0.00 L 64.00 64.00 L 0.00 64.00 L 0.00 0.00 M 8.00 10.00 C 8.00 16.00 8.00 22.00 8.00 28.00 C 9.33 28.00 10.67 28.00 12.00 28.00 C 12.00 24.30 12.00 20.61 12.00 16.92 C 17.66 23.08 23.79 29.66 32.34 31.47 C 33.42 38.25 36.19 44.96 41.21 49.77 C 45.12 53.66 50.49 55.88 55.98 56.07 C 55.99 54.75 56.00 53.42 56.00 52.10 C 45.31 51.87 38.11 41.79 36.50 32.05 C 42.27 31.98 48.85 31.50 53.10 27.08 C 56.74 23.49 56.91 17.16 53.42 13.42 C 49.20 8.46 40.93 9.24 36.54 13.57 C 32.96 17.15 31.98 22.39 31.91 27.26 C 24.74 25.10 19.71 19.27 14.76 14.01 C 18.51 14.00 22.25 14.00 26.00 14.00 C 26.00 12.67 26.00 11.33 26.00 10.00 C 20.00 10.00 14.00 10.00 8.00 10.00 Z" />
<path fill="#ffffff" opacity="1.00" d=" M 39.43 16.42 C 42.37 13.58 48.08 12.80 50.73 16.43 C 52.94 19.11 52.02 23.41 49.18 25.26 C 45.35 27.91 40.48 28.00 36.00 27.98 C 35.91 23.92 36.42 19.43 39.43 16.42 Z" />
</g>
<g id="#000000ff">
<path fill="#000000" opacity="1.00" d=" M 8.00 10.00 C 14.00 10.00 20.00 10.00 26.00 10.00 C 26.00 11.33 26.00 12.67 26.00 14.00 C 22.25 14.00 18.51 14.00 14.76 14.01 C 19.71 19.27 24.74 25.10 31.91 27.26 C 31.98 22.39 32.96 17.15 36.54 13.57 C 40.93 9.24 49.20 8.46 53.42 13.42 C 56.91 17.16 56.74 23.49 53.10 27.08 C 48.85 31.50 42.27 31.98 36.50 32.05 C 38.11 41.79 45.31 51.87 56.00 52.10 C 56.00 53.42 55.99 54.75 55.98 56.07 C 50.49 55.88 45.12 53.66 41.21 49.77 C 36.19 44.96 33.42 38.25 32.34 31.47 C 23.79 29.66 17.66 23.08 12.00 16.92 C 12.00 20.61 12.00 24.30 12.00 28.00 C 10.67 28.00 9.33 28.00 8.00 28.00 C 8.00 22.00 8.00 16.00 8.00 10.00 M 39.43 16.42 C 36.42 19.43 35.91 23.92 36.00 27.98 C 40.48 28.00 45.35 27.91 49.18 25.26 C 52.02 23.41 52.94 19.11 50.73 16.43 C 48.08 12.80 42.37 13.58 39.43 16.42 Z" />
</g>
</svg>
