<?xml version="1.0" encoding="UTF-8" ?>
<!DOCTYPE svg PUBLIC "-//W3C//DTD SVG 1.1//EN" "http://www.w3.org/Graphics/SVG/1.1/DTD/svg11.dtd">
<svg width="60pt" height="60pt" viewBox="0 0 60 60" version="1.1" xmlns="http://www.w3.org/2000/svg">
<g id="#ffffffff">
<path fill="#ffffff" opacity="1.00" d=" M 0.00 0.00 L 60.00 0.00 L 60.00 60.00 L 0.00 60.00 L 0.00 0.00 M 24.48 4.68 C 21.22 6.39 21.22 11.60 24.49 13.31 C 27.60 15.35 32.14 12.69 32.00 9.02 C 32.17 5.32 27.61 2.64 24.48 4.68 M 20.05 22.85 C 20.05 26.74 19.69 30.70 20.28 34.56 C 21.97 37.97 25.23 40.29 27.11 43.57 C 28.46 47.21 28.89 51.12 30.26 54.75 C 30.73 56.91 34.33 56.07 33.91 53.93 C 33.01 48.42 32.79 42.62 30.29 37.51 C 28.91 35.09 29.71 32.26 29.88 29.66 C 31.52 29.33 33.15 29.03 34.79 28.73 C 37.55 31.50 42.84 29.21 41.92 25.17 C 41.10 21.19 35.52 21.13 34.05 24.70 C 32.73 25.00 31.41 25.28 30.09 25.58 C 29.97 23.31 30.19 20.54 28.08 19.07 C 25.13 16.46 19.87 18.90 20.05 22.85 M 16.04 54.05 C 15.88 55.74 18.48 56.78 19.38 55.34 C 21.10 52.40 22.76 49.37 23.89 46.15 C 22.89 44.10 21.22 42.48 19.76 40.76 C 18.58 45.20 17.03 49.56 16.04 54.05 Z" />
</g>
<g id="#000000ff">
<path fill="#968176" opacity="1.00" d=" M 24.48 4.68 C 27.61 2.64 32.17 5.32 32.00 9.02 C 32.14 12.69 27.60 15.35 24.49 13.31 C 21.22 11.60 21.22 6.39 24.48 4.68 Z" />
<path fill="#968176" opacity="1.00" d=" M 20.05 22.85 C 19.87 18.90 25.13 16.46 28.08 19.07 C 30.19 20.54 29.97 23.31 30.09 25.58 C 31.41 25.28 32.73 25.00 34.05 24.70 C 35.52 21.13 41.10 21.19 41.92 25.17 C 42.84 29.21 37.55 31.50 34.79 28.73 C 33.15 29.03 31.52 29.33 29.88 29.66 C 29.71 32.26 28.91 35.09 30.29 37.51 C 32.79 42.62 33.01 48.42 33.91 53.93 C 34.33 56.07 30.73 56.91 30.26 54.75 C 28.89 51.12 28.46 47.21 27.11 43.57 C 25.23 40.29 21.97 37.97 20.28 34.56 C 19.69 30.70 20.05 26.74 20.05 22.85 Z" />
<path fill="#968176" opacity="1.00" d=" M 16.04 54.05 C 17.03 49.56 18.58 45.20 19.76 40.76 C 21.22 42.48 22.89 44.10 23.89 46.15 C 22.76 49.37 21.10 52.40 19.38 55.34 C 18.48 56.78 15.88 55.74 16.04 54.05 Z" />
</g>
</svg>
