<?xml version="1.0" encoding="UTF-8" ?>
<!DOCTYPE svg PUBLIC "-//W3C//DTD SVG 1.1//EN" "http://www.w3.org/Graphics/SVG/1.1/DTD/svg11.dtd">
<svg width="60pt" height="60pt" viewBox="0 0 60 60" version="1.1" xmlns="http://www.w3.org/2000/svg">
<g id="#ffffffff">
<path fill="#ffffff" opacity="1.00" d=" M 0.00 0.00 L 60.00 0.00 L 60.00 60.00 L 0.00 60.00 L 0.00 0.00 M 4.08 22.11 C 4.40 29.75 10.51 36.17 17.84 37.81 C 18.38 35.01 19.07 32.24 20.13 29.58 C 16.09 28.91 15.22 24.37 11.65 23.08 C 12.50 22.27 13.40 21.53 14.37 20.87 C 13.42 20.34 12.50 19.76 11.61 19.13 C 13.94 18.34 14.99 16.18 16.42 14.40 C 18.92 12.09 22.54 12.24 25.71 12.26 C 25.76 13.39 25.81 14.53 25.86 15.67 C 23.08 15.58 20.24 16.04 18.28 18.21 C 20.49 18.33 22.70 18.34 24.92 18.37 L 24.83 20.34 C 22.58 20.33 20.34 20.33 18.09 20.34 C 18.08 20.70 18.07 21.43 18.07 21.79 C 20.62 21.84 23.37 21.30 25.60 22.87 C 29.09 20.02 33.39 18.49 37.81 17.83 C 36.17 10.49 29.73 4.38 22.07 4.07 C 12.24 3.06 3.03 12.28 4.08 22.11 M 42.00 10.00 C 44.00 12.00 46.00 14.00 48.00 16.00 C 48.00 15.00 48.00 13.00 48.00 12.00 C 50.00 12.00 52.00 12.00 54.00 12.00 C 54.00 10.67 54.00 9.33 54.00 8.00 C 52.00 8.00 50.00 8.00 48.00 8.00 C 48.00 7.00 48.00 5.00 48.00 4.00 C 46.00 6.00 44.00 8.00 42.00 10.00 M 34.44 22.62 C 28.80 24.15 24.15 28.79 22.62 34.44 C 19.61 44.03 26.97 54.95 36.94 55.86 C 47.06 57.45 56.92 48.15 55.95 37.96 C 55.67 27.55 44.40 19.48 34.44 22.62 M 18.38 23.88 C 19.58 24.78 20.82 25.65 22.09 26.46 C 22.95 25.55 23.81 24.64 24.67 23.74 C 22.57 23.78 20.47 23.82 18.38 23.88 M 12.00 42.00 C 12.00 43.00 12.00 45.00 12.00 46.00 C 10.00 46.00 8.00 46.00 6.00 46.00 C 6.00 47.33 6.00 48.67 6.00 50.00 C 8.00 50.00 10.00 50.00 12.00 50.00 C 12.00 51.00 12.00 53.00 12.00 54.00 C 14.00 52.00 16.00 50.00 18.00 48.00 C 16.00 46.00 14.00 44.00 12.00 42.00 Z" />
<path fill="#ffffff" opacity="1.00" d=" M 38.42 28.00 C 38.71 28.00 39.29 28.00 39.57 28.00 C 39.94 30.38 42.57 30.59 44.20 31.77 C 45.01 32.86 45.69 34.04 46.24 35.29 C 45.27 35.29 43.33 35.28 42.36 35.28 C 40.90 33.20 37.50 32.31 36.18 35.05 C 38.17 37.97 42.50 36.75 44.96 39.06 C 46.70 40.88 46.47 44.04 44.85 45.87 C 43.30 47.59 39.96 47.27 39.59 50.00 C 39.29 50.00 38.71 50.00 38.42 50.00 C 38.16 47.76 35.75 47.62 34.18 46.68 C 32.60 45.98 32.25 44.07 31.48 42.71 C 32.77 42.69 34.07 42.69 35.36 42.69 C 36.84 45.03 42.03 45.83 41.90 42.07 C 39.56 40.78 36.78 40.69 34.37 39.55 C 31.82 38.18 31.56 34.42 33.27 32.30 C 34.72 30.47 38.02 30.68 38.42 28.00 Z" />
</g>
<g id="#000000ff">
<path fill="#000000" opacity="1.00" d=" M 4.08 22.11 C 3.03 12.28 12.24 3.06 22.07 4.07 C 29.73 4.38 36.17 10.49 37.81 17.83 C 33.39 18.49 29.09 20.02 25.60 22.87 C 23.37 21.30 20.62 21.84 18.07 21.79 C 18.07 21.43 18.08 20.70 18.09 20.34 C 20.34 20.33 22.58 20.33 24.83 20.34 L 24.92 18.37 C 22.70 18.34 20.49 18.33 18.28 18.21 C 20.24 16.04 23.08 15.58 25.86 15.67 C 25.81 14.53 25.76 13.39 25.71 12.26 C 22.54 12.24 18.92 12.09 16.42 14.40 C 14.99 16.18 13.94 18.34 11.61 19.13 C 12.50 19.76 13.42 20.34 14.37 20.87 C 13.40 21.53 12.50 22.27 11.65 23.08 C 15.22 24.37 16.09 28.91 20.13 29.58 C 19.07 32.24 18.38 35.01 17.84 37.81 C 10.51 36.17 4.40 29.75 4.08 22.11 Z" />
<path fill="#000000" opacity="1.00" d=" M 42.00 10.00 C 44.00 8.00 46.00 6.00 48.00 4.00 C 48.00 5.00 48.00 7.00 48.00 8.00 C 50.00 8.00 52.00 8.00 54.00 8.00 C 54.00 9.33 54.00 10.67 54.00 12.00 C 52.00 12.00 50.00 12.00 48.00 12.00 C 48.00 13.00 48.00 15.00 48.00 16.00 C 46.00 14.00 44.00 12.00 42.00 10.00 Z" />
<path fill="#000000" opacity="1.00" d=" M 34.44 22.62 C 44.40 19.48 55.67 27.55 55.95 37.96 C 56.92 48.15 47.06 57.45 36.94 55.86 C 26.97 54.95 19.61 44.03 22.62 34.44 C 24.15 28.79 28.80 24.15 34.44 22.62 M 38.42 28.00 C 38.02 30.68 34.72 30.47 33.27 32.30 C 31.56 34.42 31.82 38.18 34.37 39.55 C 36.78 40.69 39.56 40.78 41.90 42.07 C 42.03 45.83 36.84 45.03 35.36 42.69 C 34.07 42.69 32.77 42.69 31.48 42.71 C 32.25 44.07 32.60 45.98 34.18 46.68 C 35.75 47.62 38.16 47.76 38.42 50.00 C 38.71 50.00 39.29 50.00 39.59 50.00 C 39.96 47.27 43.30 47.59 44.85 45.87 C 46.47 44.04 46.70 40.88 44.96 39.06 C 42.50 36.75 38.17 37.97 36.18 35.05 C 37.50 32.31 40.90 33.20 42.36 35.28 C 43.33 35.28 45.27 35.29 46.24 35.29 C 45.69 34.04 45.01 32.86 44.20 31.77 C 42.57 30.59 39.94 30.38 39.57 28.00 C 39.29 28.00 38.71 28.00 38.42 28.00 Z" />
<path fill="#000000" opacity="1.00" d=" M 18.38 23.88 C 20.47 23.82 22.57 23.78 24.67 23.74 C 23.81 24.64 22.95 25.55 22.09 26.46 C 20.82 25.65 19.58 24.78 18.38 23.88 Z" />
<path fill="#000000" opacity="1.00" d=" M 12.00 42.00 C 14.00 44.00 16.00 46.00 18.00 48.00 C 16.00 50.00 14.00 52.00 12.00 54.00 C 12.00 53.00 12.00 51.00 12.00 50.00 C 10.00 50.00 8.00 50.00 6.00 50.00 C 6.00 48.67 6.00 47.33 6.00 46.00 C 8.00 46.00 10.00 46.00 12.00 46.00 C 12.00 45.00 12.00 43.00 12.00 42.00 Z" />
</g>
</svg>
