<?xml version="1.0" encoding="UTF-8" ?>
<!DOCTYPE svg PUBLIC "-//W3C//DTD SVG 1.1//EN" "http://www.w3.org/Graphics/SVG/1.1/DTD/svg11.dtd">
<svg width="64pt" height="64pt" viewBox="0 0 64 64" version="1.1" xmlns="http://www.w3.org/2000/svg">
<g id="#ffffffff">
<path fill="#ffffff" opacity="1.00" d=" M 0.00 0.00 L 64.00 0.00 L 64.00 64.00 L 0.00 64.00 L 0.00 0.00 M 5.10 19.07 C 2.40 24.57 4.92 31.34 9.97 34.49 C 10.03 38.33 9.99 42.16 10.00 46.00 C 8.67 46.00 7.33 46.00 6.00 46.00 C 6.00 47.33 6.00 48.67 6.00 50.00 C 23.33 50.00 40.67 50.00 58.00 50.00 C 58.00 48.67 58.00 47.33 58.00 46.00 C 56.66 46.00 55.33 46.00 54.00 46.00 C 54.00 35.33 54.00 24.67 54.00 14.00 C 44.32 14.01 34.63 13.98 24.95 14.02 C 22.80 14.17 20.89 13.13 18.95 12.42 C 13.52 10.85 7.33 13.92 5.10 19.07 Z" />
<path fill="#ffffff" opacity="1.00" d=" M 13.34 16.46 C 18.69 14.30 24.96 19.42 23.90 25.09 C 23.38 31.10 15.36 34.18 10.91 30.16 C 6.15 26.58 7.61 18.17 13.34 16.46 M 13.99 18.00 C 14.01 20.29 14.00 22.58 14.00 24.88 C 15.27 26.12 16.55 27.37 17.80 28.63 C 18.74 27.69 19.68 26.75 20.62 25.81 C 19.75 24.91 18.87 24.02 18.00 23.12 C 18.00 21.41 17.99 19.71 18.00 18.00 C 16.67 18.00 15.33 18.00 13.99 18.00 Z" />
<path fill="#ffffff" opacity="1.00" d=" M 26.51 17.98 C 34.34 18.03 42.17 17.99 50.00 18.00 C 50.00 27.33 50.00 36.67 50.00 46.00 C 38.00 46.00 26.00 46.00 14.00 46.00 C 14.00 42.65 14.00 39.30 14.00 35.95 C 19.22 36.55 24.77 33.88 26.88 28.94 C 28.60 25.46 28.08 21.40 26.51 17.98 M 38.01 41.98 C 38.52 42.49 39.54 43.50 40.06 44.01 C 42.70 44.00 45.35 43.99 48.00 44.00 C 48.00 42.67 48.00 41.33 48.00 40.00 C 45.34 40.01 42.67 40.00 40.01 39.99 C 39.51 40.49 38.51 41.49 38.01 41.98 Z" />
</g>
<g id="#000000ff">
<path fill="#000000" opacity="1.00" d=" M 5.10 19.07 C 7.33 13.92 13.52 10.85 18.95 12.42 C 20.89 13.13 22.80 14.17 24.95 14.02 C 34.63 13.98 44.32 14.01 54.00 14.00 C 54.00 24.67 54.00 35.33 54.00 46.00 C 55.33 46.00 56.66 46.00 58.00 46.00 C 58.00 47.33 58.00 48.67 58.00 50.00 C 40.67 50.00 23.33 50.00 6.00 50.00 C 6.00 48.67 6.00 47.33 6.00 46.00 C 7.33 46.00 8.67 46.00 10.00 46.00 C 9.99 42.16 10.03 38.33 9.97 34.49 C 4.92 31.34 2.40 24.57 5.10 19.07 M 13.34 16.46 C 7.61 18.17 6.15 26.58 10.91 30.16 C 15.36 34.18 23.38 31.10 23.90 25.09 C 24.96 19.42 18.69 14.30 13.34 16.46 M 26.51 17.98 C 28.08 21.40 28.60 25.46 26.88 28.94 C 24.77 33.88 19.22 36.55 14.00 35.95 C 14.00 39.30 14.00 42.65 14.00 46.00 C 26.00 46.00 38.00 46.00 50.00 46.00 C 50.00 36.67 50.00 27.33 50.00 18.00 C 42.17 17.99 34.34 18.03 26.51 17.98 Z" />
<path fill="#000000" opacity="1.00" d=" M 13.99 18.00 C 15.33 18.00 16.67 18.00 18.00 18.00 C 17.99 19.71 18.00 21.41 18.00 23.12 C 18.87 24.02 19.75 24.91 20.62 25.81 C 19.68 26.75 18.74 27.69 17.80 28.63 C 16.55 27.37 15.27 26.12 14.00 24.88 C 14.00 22.58 14.01 20.29 13.99 18.00 Z" />
<path fill="#000000" opacity="1.00" d=" M 38.01 41.98 C 38.51 41.49 39.51 40.49 40.01 39.99 C 42.67 40.00 45.34 40.01 48.00 40.00 C 48.00 41.33 48.00 42.67 48.00 44.00 C 45.35 43.99 42.70 44.00 40.06 44.01 C 39.54 43.50 38.52 42.49 38.01 41.98 Z" />
</g>
</svg>
