<?xml version="1.0" encoding="UTF-8" ?>
<!DOCTYPE svg PUBLIC "-//W3C//DTD SVG 1.1//EN" "http://www.w3.org/Graphics/SVG/1.1/DTD/svg11.dtd">
<svg width="60pt" height="60pt" viewBox="0 0 60 60" version="1.1" xmlns="http://www.w3.org/2000/svg">
<g id="#ffffffff">
<path fill="#ffffff" opacity="1.00" d=" M 0.00 0.00 L 60.00 0.00 L 60.00 60.00 L 0.00 60.00 L 0.00 0.00 M 33.24 4.17 C 30.19 5.64 28.82 8.94 28.02 12.03 C 22.27 13.32 19.10 18.87 17.84 24.21 C 16.78 23.73 14.96 23.66 15.15 22.04 C 15.89 19.21 18.07 16.91 18.32 13.91 C 13.99 13.77 10.68 17.14 8.77 20.70 C 5.18 27.45 4.85 36.24 9.13 42.77 C 11.62 46.60 15.49 50.15 20.34 50.09 C 20.73 48.80 19.64 46.22 21.63 46.03 C 25.39 51.03 33.66 51.42 37.76 46.65 C 39.91 44.40 39.54 48.51 39.45 49.81 C 43.57 50.53 47.07 47.56 49.52 44.62 C 55.65 37.30 55.25 25.90 49.71 18.37 C 47.86 15.76 44.96 13.83 41.65 13.92 C 41.92 16.90 44.11 19.18 44.80 22.02 C 45.18 23.64 43.13 23.71 42.17 24.22 C 40.88 18.90 37.74 13.42 32.04 12.02 C 32.76 9.89 34.31 8.30 35.84 6.73 C 36.63 5.14 34.81 3.39 33.24 4.17 Z" />
<path fill="#ffffff" opacity="1.00" d=" M 19.25 30.16 C 21.58 29.08 23.16 32.90 20.79 33.90 C 18.40 34.88 16.79 31.06 19.25 30.16 Z" />
<path fill="#ffffff" opacity="1.00" d=" M 39.21 30.10 C 41.58 29.11 43.22 32.97 40.74 33.81 C 38.42 34.98 36.82 31.03 39.21 30.10 Z" />
<path fill="#ffffff" opacity="1.00" d=" M 25.74 38.04 C 28.58 37.98 31.42 37.98 34.26 38.05 C 33.60 39.92 32.33 42.10 30.04 41.99 C 27.72 42.13 26.32 39.99 25.74 38.04 Z" />
</g>
<g id="#000000ff">
<path fill="#000000" opacity="1.00" d=" M 33.24 4.17 C 34.81 3.39 36.63 5.14 35.84 6.73 C 34.31 8.30 32.76 9.89 32.04 12.02 C 37.74 13.42 40.88 18.90 42.17 24.22 C 43.13 23.71 45.18 23.64 44.80 22.02 C 44.11 19.18 41.92 16.90 41.65 13.92 C 44.96 13.83 47.86 15.76 49.71 18.37 C 55.25 25.90 55.65 37.30 49.52 44.62 C 47.07 47.56 43.57 50.53 39.45 49.81 C 39.54 48.51 39.91 44.40 37.76 46.65 C 33.66 51.42 25.39 51.03 21.63 46.03 C 19.64 46.22 20.73 48.80 20.34 50.09 C 15.49 50.15 11.62 46.60 9.13 42.77 C 4.85 36.24 5.18 27.45 8.77 20.70 C 10.68 17.14 13.99 13.77 18.32 13.91 C 18.07 16.91 15.89 19.21 15.15 22.04 C 14.96 23.66 16.78 23.73 17.84 24.21 C 19.10 18.87 22.27 13.32 28.02 12.03 C 28.82 8.94 30.19 5.64 33.24 4.17 M 19.25 30.16 C 16.79 31.06 18.40 34.88 20.79 33.90 C 23.16 32.90 21.58 29.08 19.25 30.16 M 39.21 30.10 C 36.82 31.03 38.42 34.98 40.74 33.81 C 43.22 32.97 41.58 29.11 39.21 30.10 M 25.74 38.04 C 26.32 39.99 27.72 42.13 30.04 41.99 C 32.33 42.10 33.60 39.92 34.26 38.05 C 31.42 37.98 28.58 37.98 25.74 38.04 Z" />
</g>
</svg>
