<?xml version="1.0" encoding="UTF-8" ?>
<!DOCTYPE svg PUBLIC "-//W3C//DTD SVG 1.1//EN" "http://www.w3.org/Graphics/SVG/1.1/DTD/svg11.dtd">
<svg width="60pt" height="60pt" viewBox="0 0 60 60" version="1.1" xmlns="http://www.w3.org/2000/svg">
<g id="#ffffffff">
<path fill="#ffffff" opacity="1.00" d=" M 0.00 0.00 L 60.00 0.00 L 60.00 60.00 L 0.00 60.00 L 0.00 0.00 M 8.97 16.97 C 4.52 24.14 5.67 33.34 9.38 40.56 C 10.72 42.94 13.47 43.79 15.99 44.22 C 16.05 46.43 15.78 48.70 16.36 50.86 C 17.41 53.50 20.43 54.31 22.89 55.07 C 29.02 56.58 35.85 56.31 41.50 53.32 C 44.77 51.51 43.90 47.32 44.01 44.22 C 46.27 43.77 48.74 43.19 50.17 41.21 C 54.70 33.61 55.59 23.25 50.11 15.86 C 40.92 2.17 17.40 2.85 8.97 16.97 Z" />
<path fill="#ffffff" opacity="1.00" d=" M 11.87 19.92 C 15.88 12.01 25.74 8.93 34.05 10.33 C 41.34 11.32 47.82 16.92 49.49 24.14 C 50.77 28.68 49.24 33.35 47.63 37.58 C 46.66 40.95 41.75 39.19 40.49 42.37 C 39.64 44.73 40.09 47.33 39.92 49.79 C 33.72 52.70 26.28 52.70 20.08 49.79 C 19.91 47.33 20.35 44.74 19.51 42.38 C 18.26 39.22 13.46 40.93 12.40 37.68 C 10.04 32.12 8.87 25.47 11.87 19.92 M 22.18 24.08 C 16.94 25.28 16.58 33.78 21.48 35.71 C 24.58 36.95 27.68 34.01 27.92 30.99 C 28.59 27.65 25.93 23.38 22.18 24.08 M 36.17 24.08 C 30.92 25.30 30.59 33.84 35.53 35.73 C 38.61 36.92 41.65 34.01 41.92 31.03 C 42.61 27.67 39.94 23.36 36.17 24.08 M 28.10 38.75 C 28.77 40.37 31.19 40.39 31.88 38.77 C 32.24 36.93 30.68 35.44 30.00 33.87 C 29.31 35.43 27.79 36.91 28.10 38.75 M 22.89 42.51 C 24.26 45.27 26.56 48.18 29.99 47.97 C 33.42 48.18 35.73 45.28 37.10 42.51 C 32.51 44.32 27.48 44.30 22.89 42.51 Z" />
</g>
<g id="#000000ff">
<path fill="#968176" opacity="1.00" d=" M 8.97 16.97 C 17.40 2.85 40.92 2.17 50.11 15.86 C 55.59 23.25 54.70 33.61 50.17 41.21 C 48.74 43.19 46.27 43.77 44.01 44.22 C 43.90 47.32 44.77 51.51 41.50 53.32 C 35.85 56.31 29.02 56.58 22.89 55.07 C 20.43 54.31 17.41 53.50 16.36 50.86 C 15.78 48.70 16.05 46.43 15.99 44.22 C 13.47 43.79 10.72 42.94 9.38 40.56 C 5.67 33.34 4.52 24.14 8.97 16.97 M 11.87 19.92 C 8.87 25.47 10.04 32.12 12.40 37.68 C 13.46 40.93 18.26 39.22 19.51 42.38 C 20.35 44.74 19.91 47.33 20.08 49.79 C 26.28 52.70 33.72 52.70 39.92 49.79 C 40.09 47.33 39.64 44.73 40.49 42.37 C 41.75 39.19 46.66 40.95 47.63 37.58 C 49.24 33.35 50.77 28.68 49.49 24.14 C 47.82 16.92 41.34 11.32 34.05 10.33 C 25.74 8.93 15.88 12.01 11.87 19.92 Z" />
<path fill="#968176" opacity="1.00" d=" M 22.18 24.08 C 25.93 23.38 28.59 27.65 27.92 30.99 C 27.68 34.01 24.58 36.95 21.48 35.71 C 16.58 33.78 16.94 25.28 22.18 24.08 Z" />
<path fill="#968176" opacity="1.00" d=" M 36.17 24.08 C 39.94 23.36 42.61 27.67 41.92 31.03 C 41.65 34.01 38.61 36.92 35.53 35.73 C 30.59 33.84 30.92 25.30 36.17 24.08 Z" />
<path fill="#968176" opacity="1.00" d=" M 28.10 38.75 C 27.79 36.91 29.31 35.43 30.00 33.87 C 30.68 35.44 32.24 36.93 31.88 38.77 C 31.19 40.39 28.77 40.37 28.10 38.75 Z" />
<path fill="#968176" opacity="1.00" d=" M 22.89 42.51 C 27.48 44.30 32.51 44.32 37.10 42.51 C 35.73 45.28 33.42 48.18 29.99 47.97 C 26.56 48.18 24.26 45.27 22.89 42.51 Z" />
</g>
</svg>
