<?xml version="1.0" encoding="UTF-8" ?>
<!DOCTYPE svg PUBLIC "-//W3C//DTD SVG 1.1//EN" "http://www.w3.org/Graphics/SVG/1.1/DTD/svg11.dtd">
<svg width="60pt" height="60pt" viewBox="0 0 60 60" version="1.1" xmlns="http://www.w3.org/2000/svg">
<g id="#ffffffff">
<path fill="#ffffff" opacity="1.00" d=" M 0.00 0.00 L 60.00 0.00 L 60.00 60.00 L 0.00 60.00 L 0.00 0.00 M 8.22 12.31 C 4.65 15.62 5.03 21.68 8.82 24.68 C 6.41 28.35 4.26 32.41 4.05 36.89 C 3.78 40.85 4.86 45.30 8.19 47.78 C 12.05 50.65 17.34 50.39 21.64 48.70 C 24.12 50.42 26.89 52.08 30.02 51.99 C 33.14 52.07 35.89 50.40 38.37 48.70 C 43.62 50.93 50.95 50.46 54.17 45.16 C 57.96 38.55 55.26 30.46 51.20 24.65 C 55.01 21.65 55.31 15.58 51.76 12.29 C 48.50 9.02 43.21 9.65 39.65 12.07 C 33.60 9.32 26.39 9.32 20.34 12.07 C 16.77 9.65 11.47 9.02 8.22 12.31 Z" />
<path fill="#ffffff" opacity="1.00" d=" M 19.41 26.48 C 22.59 24.26 25.90 29.59 22.62 31.50 C 19.43 33.78 16.08 28.38 19.41 26.48 Z" />
<path fill="#ffffff" opacity="1.00" d=" M 37.36 26.50 C 40.57 24.23 43.93 29.62 40.58 31.53 C 37.40 33.70 34.13 28.44 37.36 26.50 Z" />
<path fill="#ffffff" opacity="1.00" d=" M 27.31 36.46 C 29.40 35.74 32.12 35.66 33.84 37.27 C 34.75 40.34 30.37 43.46 27.86 41.21 C 26.27 40.28 24.94 37.29 27.31 36.46 Z" />
<path fill="#ffffff" opacity="1.00" d=" M 25.90 46.60 C 27.24 45.81 28.61 45.04 29.96 44.26 C 31.32 45.00 32.71 45.69 34.11 46.37 C 31.69 48.37 28.47 48.35 25.90 46.60 Z" />
</g>
<g id="#000000ff">
<path fill="#000000" opacity="1.00" d=" M 8.22 12.31 C 11.47 9.02 16.77 9.65 20.34 12.07 C 26.39 9.32 33.60 9.32 39.65 12.07 C 43.21 9.65 48.50 9.02 51.76 12.29 C 55.31 15.58 55.01 21.65 51.20 24.65 C 55.26 30.46 57.96 38.55 54.17 45.16 C 50.95 50.46 43.62 50.93 38.37 48.70 C 35.89 50.40 33.14 52.07 30.02 51.99 C 26.89 52.08 24.12 50.42 21.64 48.70 C 17.34 50.39 12.05 50.65 8.19 47.78 C 4.86 45.30 3.78 40.85 4.05 36.89 C 4.26 32.41 6.41 28.35 8.82 24.68 C 5.03 21.68 4.65 15.62 8.22 12.31 M 19.41 26.48 C 16.08 28.38 19.43 33.78 22.62 31.50 C 25.90 29.59 22.59 24.26 19.41 26.48 M 37.36 26.50 C 34.13 28.44 37.40 33.70 40.58 31.53 C 43.93 29.62 40.57 24.23 37.36 26.50 M 27.31 36.46 C 24.94 37.29 26.27 40.28 27.86 41.21 C 30.37 43.46 34.75 40.34 33.84 37.27 C 32.12 35.66 29.40 35.74 27.31 36.46 M 25.90 46.60 C 28.47 48.35 31.69 48.37 34.11 46.37 C 32.71 45.69 31.32 45.00 29.96 44.26 C 28.61 45.04 27.24 45.81 25.90 46.60 Z" />
</g>
</svg>
