<?xml version="1.0" encoding="UTF-8" ?>
<!DOCTYPE svg PUBLIC "-//W3C//DTD SVG 1.1//EN" "http://www.w3.org/Graphics/SVG/1.1/DTD/svg11.dtd">
<svg width="64pt" height="64pt" viewBox="0 0 64 64" version="1.1" xmlns="http://www.w3.org/2000/svg">
<g id="#ffffffff">
<path fill="#ffffff" opacity="1.00" d=" M 0.00 0.00 L 64.00 0.00 L 64.00 64.00 L 0.00 64.00 L 0.00 0.00 M 24.00 2.00 C 24.00 3.28 24.00 4.56 24.00 5.84 C 26.15 6.07 28.33 6.46 30.08 7.85 C 26.90 8.59 23.63 9.20 20.75 10.81 C 13.06 14.83 7.91 23.27 8.01 31.97 C 7.92 40.20 12.47 48.25 19.53 52.47 C 26.58 56.88 35.95 57.13 43.25 53.17 C 52.69 48.31 57.98 36.75 55.33 26.44 C 53.24 17.31 45.33 9.84 36.05 8.42 C 34.47 8.39 33.37 7.47 32.66 6.12 C 34.44 6.03 36.22 6.00 38.00 5.97 C 38.00 4.65 38.00 3.32 38.00 2.00 C 33.33 2.00 28.67 2.00 24.00 2.00 Z" />
<path fill="#ffffff" opacity="1.00" d=" M 18.78 17.12 C 22.05 14.58 25.90 12.98 29.98 12.32 C 30.01 25.44 30.02 38.56 29.98 51.68 C 26.03 51.02 22.27 49.52 19.08 47.10 C 20.69 46.55 22.32 46.01 23.94 45.48 C 23.77 42.47 24.06 39.46 25.73 36.86 C 24.54 36.27 23.35 35.68 22.17 35.09 C 20.87 37.42 19.76 39.89 19.86 42.62 C 18.55 43.05 17.25 43.48 15.95 43.91 C 10.78 36.97 10.81 26.97 15.98 20.03 C 19.16 21.08 17.71 24.72 17.98 27.21 C 19.69 28.06 21.38 28.94 23.09 29.79 C 23.54 28.91 24.45 27.15 24.90 26.27 C 23.93 25.76 22.96 25.25 22.00 24.74 C 22.00 22.75 22.00 20.76 22.00 18.78 C 20.93 18.23 19.85 17.68 18.78 17.12 Z" />
<path fill="#ffffff" opacity="1.00" d=" M 34.03 12.30 C 39.61 13.14 45.03 15.89 48.31 20.60 C 53.35 27.34 53.17 37.37 47.91 43.94 C 44.60 48.34 39.38 50.86 34.03 51.70 C 34.02 50.76 34.01 48.89 34.00 47.96 C 41.67 46.80 48.13 39.94 47.96 32.03 C 48.16 24.10 41.70 17.18 34.00 16.04 C 34.01 15.10 34.02 13.23 34.03 12.30 Z" />
<path fill="#ffffff" opacity="1.00" d=" M 34.05 20.04 C 39.54 21.29 44.14 26.17 43.97 31.98 C 44.16 37.81 39.53 42.68 34.05 43.96 C 33.97 35.99 33.96 28.01 34.05 20.04 M 35.39 29.61 C 37.36 29.16 41.96 28.16 39.74 25.23 C 36.80 23.07 35.84 27.64 35.39 29.61 M 35.84 32.00 C 37.42 32.69 38.90 34.16 40.74 33.91 C 42.40 33.20 42.38 30.78 40.73 30.08 C 38.89 29.87 37.41 31.30 35.84 32.00 M 35.38 34.39 C 35.82 36.33 36.82 40.94 39.73 38.76 C 41.98 35.85 37.35 34.82 35.38 34.39 Z" />
</g>
<g id="#000000ff">
<path fill="#000000" opacity="1.00" d=" M 24.00 2.00 C 28.67 2.00 33.33 2.00 38.00 2.00 C 38.00 3.32 38.00 4.65 38.00 5.97 C 36.22 6.00 34.44 6.03 32.66 6.12 C 33.37 7.47 34.47 8.39 36.05 8.42 C 45.33 9.84 53.24 17.31 55.33 26.44 C 57.98 36.75 52.69 48.31 43.25 53.17 C 35.95 57.13 26.58 56.88 19.53 52.47 C 12.47 48.25 7.92 40.20 8.01 31.97 C 7.91 23.27 13.06 14.83 20.75 10.81 C 23.63 9.20 26.90 8.59 30.08 7.85 C 28.33 6.46 26.15 6.07 24.00 5.84 C 24.00 4.56 24.00 3.28 24.00 2.00 M 18.78 17.12 C 19.85 17.68 20.93 18.23 22.00 18.78 C 22.00 20.76 22.00 22.75 22.00 24.74 C 22.96 25.25 23.93 25.76 24.90 26.27 C 24.45 27.15 23.54 28.91 23.09 29.79 C 21.38 28.94 19.69 28.06 17.98 27.21 C 17.71 24.72 19.16 21.08 15.98 20.03 C 10.81 26.97 10.78 36.97 15.95 43.91 C 17.25 43.48 18.55 43.05 19.86 42.62 C 19.76 39.89 20.87 37.42 22.17 35.09 C 23.35 35.68 24.54 36.27 25.73 36.86 C 24.06 39.46 23.77 42.47 23.94 45.48 C 22.32 46.01 20.69 46.55 19.08 47.10 C 22.27 49.52 26.03 51.02 29.98 51.68 C 30.02 38.56 30.01 25.44 29.98 12.32 C 25.90 12.98 22.05 14.58 18.78 17.12 M 34.03 12.30 C 34.02 13.23 34.01 15.10 34.00 16.04 C 41.70 17.18 48.16 24.10 47.96 32.03 C 48.13 39.94 41.67 46.80 34.00 47.96 C 34.01 48.89 34.02 50.76 34.03 51.70 C 39.38 50.86 44.60 48.34 47.91 43.94 C 53.17 37.37 53.35 27.34 48.31 20.60 C 45.03 15.89 39.61 13.14 34.03 12.30 M 34.05 20.04 C 33.96 28.01 33.97 35.99 34.05 43.96 C 39.53 42.68 44.16 37.81 43.97 31.98 C 44.14 26.17 39.54 21.29 34.05 20.04 Z" />
<path fill="#000000" opacity="1.00" d=" M 35.39 29.61 C 35.84 27.64 36.80 23.07 39.74 25.23 C 41.96 28.16 37.36 29.16 35.39 29.61 Z" />
<path fill="#000000" opacity="1.00" d=" M 35.84 32.00 C 37.41 31.30 38.89 29.87 40.73 30.08 C 42.38 30.78 42.40 33.20 40.74 33.91 C 38.90 34.16 37.42 32.69 35.84 32.00 Z" />
<path fill="#000000" opacity="1.00" d=" M 35.38 34.39 C 37.35 34.82 41.98 35.85 39.73 38.76 C 36.82 40.94 35.82 36.33 35.38 34.39 Z" />
</g>
</svg>
