<?xml version="1.0" encoding="UTF-8" ?>
<!DOCTYPE svg PUBLIC "-//W3C//DTD SVG 1.1//EN" "http://www.w3.org/Graphics/SVG/1.1/DTD/svg11.dtd">
<svg width="60pt" height="60pt" viewBox="0 0 60 60" version="1.1" xmlns="http://www.w3.org/2000/svg">
<g id="#ffffffff">
<path fill="#ffffff" opacity="1.00" d=" M 0.00 0.00 L 60.00 0.00 L 60.00 60.00 L 0.00 60.00 L 0.00 0.00 M 30.02 11.98 C 32.29 12.26 34.58 12.39 36.81 12.90 C 39.78 14.10 41.32 17.17 42.15 20.09 C 46.19 18.79 47.49 12.91 43.56 10.72 C 39.20 8.93 34.38 11.10 30.02 11.98 M 27.95 17.91 C 24.66 19.73 21.15 21.12 17.96 23.11 C 15.39 24.83 15.38 29.16 17.96 30.87 C 21.17 33.02 24.68 34.67 28.00 36.64 C 28.10 40.73 27.77 44.85 28.16 48.94 C 28.76 50.48 31.44 50.55 31.77 48.78 C 32.68 43.90 33.60 38.96 33.88 34.00 C 31.92 31.55 29.45 29.60 27.25 27.39 C 29.51 26.50 31.77 25.61 34.03 24.72 C 34.95 26.46 35.70 28.34 37.03 29.83 C 40.27 30.12 43.54 30.17 46.78 29.82 C 48.39 29.25 48.38 26.85 46.85 26.19 C 44.42 25.87 41.96 25.97 39.52 26.00 C 38.38 22.79 38.51 18.40 35.17 16.53 C 32.71 15.19 30.15 16.84 27.95 17.91 M 13.23 36.19 C 9.74 36.85 6.83 39.76 6.19 43.25 C 5.13 47.94 8.52 52.98 13.24 53.80 C 18.21 54.94 23.52 51.04 23.92 45.97 C 24.78 40.18 18.91 34.83 13.23 36.19 M 43.18 36.21 C 36.70 37.25 33.67 46.04 38.19 50.83 C 42.22 56.00 51.32 54.40 53.38 48.19 C 56.12 41.94 49.77 34.52 43.18 36.21 Z" />
<path fill="#ffffff" opacity="1.00" d=" M 42.41 40.71 C 45.53 38.63 50.15 41.24 50.00 44.97 C 50.18 48.71 45.57 51.36 42.44 49.30 C 39.25 47.58 39.23 42.45 42.41 40.71 Z" />
<path fill="#ffffff" opacity="1.00" d=" M 13.40 42.47 C 14.96 41.45 17.37 42.26 17.82 44.11 C 18.69 46.24 16.24 48.70 14.11 47.81 C 11.72 47.27 11.31 43.66 13.40 42.47 Z" />
</g>
<g id="#000000ff">
<path fill="#000000" opacity="1.00" d=" M 30.02 11.98 C 34.38 11.10 39.20 8.93 43.56 10.72 C 47.49 12.91 46.19 18.79 42.15 20.09 C 41.32 17.17 39.78 14.10 36.81 12.90 C 34.58 12.39 32.29 12.26 30.02 11.98 Z" />
<path fill="#000000" opacity="1.00" d=" M 27.95 17.91 C 30.15 16.84 32.71 15.19 35.17 16.53 C 38.51 18.40 38.38 22.79 39.52 26.00 C 41.96 25.97 44.42 25.87 46.85 26.19 C 48.38 26.85 48.39 29.25 46.78 29.82 C 43.54 30.17 40.27 30.12 37.03 29.83 C 35.70 28.34 34.95 26.46 34.03 24.72 C 31.77 25.61 29.51 26.50 27.25 27.39 C 29.45 29.60 31.92 31.55 33.88 34.00 C 33.60 38.96 32.68 43.90 31.77 48.78 C 31.44 50.55 28.76 50.48 28.16 48.94 C 27.77 44.85 28.10 40.73 28.00 36.64 C 24.68 34.67 21.17 33.02 17.96 30.87 C 15.38 29.16 15.39 24.83 17.96 23.11 C 21.15 21.12 24.66 19.73 27.95 17.91 Z" />
<path fill="#000000" opacity="1.00" d=" M 13.23 36.19 C 18.91 34.83 24.78 40.18 23.92 45.97 C 23.52 51.04 18.21 54.94 13.24 53.80 C 8.52 52.98 5.13 47.94 6.19 43.25 C 6.83 39.76 9.74 36.85 13.23 36.19 M 13.40 42.47 C 11.31 43.66 11.72 47.27 14.11 47.81 C 16.24 48.70 18.69 46.24 17.82 44.11 C 17.37 42.26 14.96 41.45 13.40 42.47 Z" />
<path fill="#000000" opacity="1.00" d=" M 43.18 36.21 C 49.77 34.52 56.12 41.94 53.38 48.19 C 51.32 54.40 42.22 56.00 38.19 50.83 C 33.67 46.04 36.70 37.25 43.18 36.21 M 42.41 40.71 C 39.23 42.45 39.25 47.58 42.44 49.30 C 45.57 51.36 50.18 48.71 50.00 44.97 C 50.15 41.24 45.53 38.63 42.41 40.71 Z" />
</g>
</svg>
