<?xml version="1.0" encoding="UTF-8" ?>
<!DOCTYPE svg PUBLIC "-//W3C//DTD SVG 1.1//EN" "http://www.w3.org/Graphics/SVG/1.1/DTD/svg11.dtd">
<svg width="64pt" height="64pt" viewBox="0 0 64 64" version="1.1" xmlns="http://www.w3.org/2000/svg">
<g id="#ffffffff">
<path fill="#ffffff" opacity="1.00" d=" M 0.00 0.00 L 64.00 0.00 L 64.00 64.00 L 0.00 64.00 L 0.00 0.00 M 18.10 11.02 C 11.47 20.12 10.20 31.88 10.00 42.82 C 15.13 48.62 20.37 54.58 27.13 58.54 C 30.06 60.39 33.90 60.40 36.84 58.55 C 43.63 54.64 48.85 48.63 53.99 42.83 C 53.93 34.26 52.94 25.51 49.63 17.53 C 47.40 12.20 43.64 7.04 38.00 5.06 C 31.00 2.37 22.45 4.89 18.10 11.02 Z" />
<path fill="#ffffff" opacity="1.00" d=" M 21.78 12.90 C 25.94 7.30 34.82 6.33 40.13 10.81 C 47.13 17.09 48.78 27.04 49.74 35.94 C 49.66 38.00 50.76 40.52 49.18 42.22 C 46.37 45.58 43.24 48.68 39.94 51.56 C 39.82 44.45 44.26 38.11 44.03 30.99 C 44.02 25.90 44.40 20.15 40.87 15.99 C 36.36 10.50 26.78 10.76 22.65 16.59 C 19.59 20.73 20.00 26.10 19.97 30.96 C 19.74 38.09 24.16 44.43 24.06 51.54 C 20.38 48.38 17.05 44.83 13.91 41.14 C 14.49 31.40 15.51 20.82 21.78 12.90 Z" />
<path fill="#ffffff" opacity="1.00" d=" M 25.88 18.95 C 28.71 15.05 35.28 15.05 38.11 18.94 C 40.26 21.81 39.84 25.58 40.00 28.96 C 40.78 36.97 35.34 44.04 35.99 52.04 C 36.22 53.62 35.79 55.14 34.05 55.52 C 33.95 50.34 34.02 45.17 34.00 40.00 C 32.67 40.00 31.33 40.00 30.00 40.00 C 29.98 45.17 30.05 50.34 29.95 55.51 C 28.25 55.14 27.75 53.63 28.01 52.07 C 28.68 44.39 23.61 37.61 23.98 29.97 C 24.18 26.28 23.56 22.13 25.88 18.95 M 24.11 26.12 C 25.94 29.60 28.95 32.18 32.00 34.57 C 35.08 32.24 38.03 29.60 39.86 26.14 C 36.99 26.59 34.46 28.06 32.00 29.52 C 29.53 28.05 26.98 26.60 24.11 26.12 Z" />
</g>
<g id="#000000ff">
<path fill="#000000" opacity="1.00" d=" M 18.10 11.02 C 22.45 4.89 31.00 2.37 38.00 5.06 C 43.64 7.04 47.40 12.20 49.63 17.53 C 52.94 25.51 53.93 34.26 53.99 42.83 C 48.85 48.63 43.63 54.64 36.84 58.55 C 33.90 60.40 30.06 60.39 27.13 58.54 C 20.37 54.58 15.13 48.62 10.00 42.82 C 10.20 31.88 11.47 20.12 18.10 11.02 M 21.78 12.90 C 15.51 20.82 14.49 31.40 13.91 41.14 C 17.05 44.83 20.38 48.38 24.06 51.54 C 24.16 44.43 19.74 38.09 19.97 30.96 C 20.00 26.10 19.59 20.73 22.65 16.59 C 26.78 10.76 36.36 10.50 40.87 15.99 C 44.40 20.15 44.02 25.90 44.03 30.99 C 44.26 38.11 39.82 44.45 39.94 51.56 C 43.24 48.68 46.37 45.58 49.18 42.22 C 50.76 40.52 49.66 38.00 49.74 35.94 C 48.78 27.04 47.13 17.09 40.13 10.81 C 34.82 6.33 25.94 7.30 21.78 12.90 M 25.88 18.95 C 23.56 22.13 24.18 26.28 23.98 29.97 C 23.61 37.61 28.68 44.39 28.01 52.07 C 27.75 53.63 28.25 55.14 29.95 55.51 C 30.05 50.34 29.98 45.17 30.00 40.00 C 31.33 40.00 32.67 40.00 34.00 40.00 C 34.02 45.17 33.95 50.34 34.05 55.52 C 35.79 55.14 36.22 53.62 35.99 52.04 C 35.34 44.04 40.78 36.97 40.00 28.96 C 39.84 25.58 40.26 21.81 38.11 18.94 C 35.28 15.05 28.71 15.05 25.88 18.95 Z" />
<path fill="#000000" opacity="1.00" d=" M 24.11 26.12 C 26.98 26.60 29.53 28.05 32.00 29.52 C 34.46 28.06 36.99 26.59 39.86 26.14 C 38.03 29.60 35.08 32.24 32.00 34.57 C 28.95 32.18 25.94 29.60 24.11 26.12 Z" />
</g>
</svg>
