<?xml version="1.0" encoding="UTF-8" ?>
<!DOCTYPE svg PUBLIC "-//W3C//DTD SVG 1.1//EN" "http://www.w3.org/Graphics/SVG/1.1/DTD/svg11.dtd">
<svg width="60pt" height="60pt" viewBox="0 0 60 60" version="1.1" xmlns="http://www.w3.org/2000/svg">
<g id="#ffffffff">
<path fill="#ffffff" opacity="1.00" d=" M 0.00 0.00 L 60.00 0.00 L 60.00 60.00 L 0.00 60.00 L 0.00 0.00 M 23.16 6.20 C 15.67 7.20 9.05 12.82 6.91 20.07 C 4.68 26.98 6.65 35.00 11.82 40.09 C 16.81 45.21 24.64 47.24 31.49 45.22 C 37.86 43.43 43.18 38.28 45.08 31.93 C 47.09 25.69 45.70 18.50 41.55 13.43 C 37.25 8.01 30.01 5.17 23.16 6.20 M 49.61 21.37 C 50.84 29.10 48.58 37.43 42.87 42.94 C 37.37 48.62 29.06 50.82 21.35 49.61 C 25.62 52.63 30.82 54.60 36.12 53.87 C 44.85 53.09 52.47 45.87 53.72 37.19 C 54.78 31.59 52.85 25.91 49.61 21.37 Z" />
<path fill="#ffffff" opacity="1.00" d=" M 23.29 18.49 C 27.29 16.92 32.21 19.27 33.53 23.35 C 35.04 27.32 32.72 32.16 28.71 33.50 C 24.70 35.09 19.77 32.71 18.46 28.62 C 16.97 24.65 19.26 19.82 23.29 18.49 M 25.19 24.19 C 22.79 25.13 24.48 28.92 26.82 27.89 C 29.18 26.85 27.51 23.01 25.19 24.19 Z" />
</g>
<g id="#000000ff">
<path fill="#000000" opacity="1.00" d=" M 23.16 6.20 C 30.01 5.17 37.25 8.01 41.55 13.43 C 45.70 18.50 47.09 25.69 45.08 31.93 C 43.18 38.28 37.86 43.43 31.49 45.22 C 24.64 47.24 16.81 45.21 11.82 40.09 C 6.65 35.00 4.68 26.98 6.91 20.07 C 9.05 12.82 15.67 7.20 23.16 6.20 M 23.29 18.49 C 19.26 19.82 16.97 24.65 18.46 28.62 C 19.77 32.71 24.70 35.09 28.71 33.50 C 32.72 32.16 35.04 27.32 33.53 23.35 C 32.21 19.27 27.29 16.92 23.29 18.49 Z" />
<path fill="#000000" opacity="1.00" d=" M 49.61 21.37 C 52.85 25.91 54.78 31.59 53.72 37.19 C 52.47 45.87 44.85 53.09 36.12 53.87 C 30.82 54.60 25.62 52.63 21.35 49.61 C 29.06 50.82 37.37 48.62 42.87 42.94 C 48.58 37.43 50.84 29.10 49.61 21.37 Z" />
<path fill="#000000" opacity="1.00" d=" M 25.19 24.19 C 27.51 23.01 29.18 26.85 26.82 27.89 C 24.48 28.92 22.79 25.13 25.19 24.19 Z" />
</g>
</svg>
