<?xml version="1.0" encoding="UTF-8" ?>
<!DOCTYPE svg PUBLIC "-//W3C//DTD SVG 1.1//EN" "http://www.w3.org/Graphics/SVG/1.1/DTD/svg11.dtd">
<svg width="60pt" height="60pt" viewBox="0 0 60 60" version="1.1" xmlns="http://www.w3.org/2000/svg">
<g id="#ffffffff">
<path fill="#ffffff" opacity="1.00" d=" M 0.00 0.00 L 60.00 0.00 L 60.00 60.00 L 0.00 60.00 L 0.00 0.00 M 8.08 5.96 C 7.97 9.55 7.75 13.19 8.24 16.76 C 9.90 19.33 12.11 21.50 14.01 23.90 C 14.00 26.55 14.00 29.21 13.99 31.87 C 10.19 32.57 7.82 35.90 7.83 39.68 C 8.29 39.74 9.19 39.88 9.65 39.95 C 9.88 37.18 11.19 34.74 13.91 33.79 C 14.16 39.85 13.82 45.92 14.08 51.98 C 13.77 54.04 17.13 54.81 17.73 52.83 C 18.79 47.94 19.19 42.93 20.00 38.00 C 21.50 38.93 23.01 39.86 24.53 40.77 C 23.67 43.18 22.59 45.53 22.04 48.03 C 22.01 49.57 23.59 50.33 24.94 49.88 C 27.09 46.87 28.65 43.44 30.02 40.02 C 29.38 37.94 27.40 36.62 26.00 35.04 C 26.00 33.33 26.00 31.62 26.00 29.91 C 28.67 29.97 31.34 30.03 34.01 30.01 C 34.54 33.42 32.44 38.22 35.97 40.41 C 36.15 44.54 35.71 48.69 36.19 52.80 C 36.75 54.38 39.23 54.39 39.80 52.81 C 40.26 49.10 39.90 45.35 40.01 41.62 C 42.45 45.00 44.37 48.76 47.15 51.87 C 48.54 52.37 49.91 51.47 50.05 50.00 C 48.45 46.40 45.83 43.38 43.75 40.05 C 45.83 39.70 49.56 41.00 50.05 38.00 C 48.50 34.53 45.07 32.32 43.60 28.78 C 47.08 30.53 51.11 30.21 54.85 29.75 C 56.32 29.03 56.28 26.93 54.82 26.22 C 52.36 25.76 49.83 26.23 47.36 25.85 C 44.24 24.48 41.66 21.27 37.90 22.00 C 35.58 21.95 34.43 24.16 33.68 26.00 C 31.92 26.00 30.16 25.99 28.41 25.99 C 27.24 24.08 26.40 21.69 24.25 20.65 C 22.41 19.81 20.33 20.07 18.37 19.94 C 16.43 18.50 14.52 17.02 12.60 15.55 C 12.33 12.08 12.36 8.57 11.79 5.13 C 11.06 3.21 7.85 3.87 8.08 5.96 M 23.68 6.45 C 21.92 6.12 20.13 6.09 18.37 6.45 C 17.78 6.17 16.61 5.59 16.02 5.31 C 17.15 8.30 14.85 12.09 17.47 14.53 C 19.46 16.66 23.23 16.40 24.94 14.05 C 26.97 11.52 24.79 8.16 25.95 5.30 C 25.38 5.59 24.24 6.16 23.68 6.45 M 36.40 8.73 C 33.23 10.47 33.25 15.56 36.44 17.28 C 39.58 19.41 44.23 16.64 43.99 12.90 C 44.08 9.22 39.48 6.63 36.40 8.73 M 43.83 15.80 C 44.28 17.39 44.25 19.29 45.52 20.51 C 46.76 21.75 48.63 21.73 50.21 22.16 C 50.21 18.47 47.46 15.85 43.83 15.80 Z" />
</g>
<g id="#000000ff">
<path fill="#000000" opacity="1.00" d=" M 8.08 5.96 C 7.85 3.87 11.06 3.21 11.79 5.13 C 12.36 8.57 12.33 12.08 12.60 15.55 C 14.52 17.02 16.43 18.50 18.37 19.94 C 20.33 20.07 22.41 19.81 24.25 20.65 C 26.40 21.69 27.24 24.08 28.41 25.99 C 30.16 25.99 31.92 26.00 33.68 26.00 C 34.43 24.16 35.58 21.95 37.90 22.00 C 41.66 21.27 44.24 24.48 47.36 25.85 C 49.83 26.23 52.36 25.76 54.82 26.22 C 56.28 26.93 56.32 29.03 54.85 29.75 C 51.11 30.21 47.08 30.53 43.60 28.78 C 45.07 32.32 48.50 34.53 50.05 38.00 C 49.56 41.00 45.83 39.70 43.75 40.05 C 45.83 43.38 48.45 46.40 50.05 50.00 C 49.91 51.47 48.54 52.37 47.15 51.87 C 44.37 48.76 42.45 45.00 40.01 41.62 C 39.90 45.35 40.26 49.10 39.80 52.81 C 39.23 54.39 36.75 54.38 36.19 52.80 C 35.71 48.69 36.15 44.54 35.97 40.41 C 32.44 38.22 34.54 33.42 34.01 30.01 C 31.34 30.03 28.67 29.97 26.00 29.91 C 26.00 31.62 26.00 33.33 26.00 35.04 C 27.40 36.62 29.38 37.94 30.02 40.02 C 28.65 43.44 27.09 46.87 24.94 49.88 C 23.59 50.33 22.01 49.57 22.04 48.03 C 22.59 45.53 23.67 43.18 24.53 40.77 C 23.01 39.86 21.50 38.93 20.00 38.00 C 19.19 42.93 18.79 47.94 17.73 52.83 C 17.13 54.81 13.77 54.04 14.08 51.98 C 13.82 45.92 14.16 39.85 13.91 33.79 C 11.19 34.74 9.88 37.18 9.65 39.95 C 9.19 39.88 8.29 39.74 7.83 39.68 C 7.82 35.90 10.19 32.57 13.99 31.87 C 14.00 29.21 14.00 26.55 14.01 23.90 C 12.11 21.50 9.90 19.33 8.24 16.76 C 7.75 13.19 7.97 9.55 8.08 5.96 Z" />
<path fill="#000000" opacity="1.00" d=" M 23.68 6.45 C 24.24 6.16 25.38 5.59 25.95 5.30 C 24.79 8.16 26.97 11.52 24.94 14.05 C 23.23 16.40 19.46 16.66 17.47 14.53 C 14.85 12.09 17.15 8.30 16.02 5.31 C 16.61 5.59 17.78 6.17 18.37 6.45 C 20.13 6.09 21.92 6.12 23.68 6.45 Z" />
<path fill="#000000" opacity="1.00" d=" M 36.40 8.73 C 39.48 6.63 44.08 9.22 43.99 12.90 C 44.23 16.64 39.58 19.41 36.44 17.28 C 33.25 15.56 33.23 10.47 36.40 8.73 Z" />
<path fill="#000000" opacity="1.00" d=" M 43.83 15.80 C 47.46 15.85 50.21 18.47 50.21 22.16 C 48.63 21.73 46.76 21.75 45.52 20.51 C 44.25 19.29 44.28 17.39 43.83 15.80 Z" />
</g>
</svg>
