<?xml version="1.0" encoding="UTF-8" ?>
<!DOCTYPE svg PUBLIC "-//W3C//DTD SVG 1.1//EN" "http://www.w3.org/Graphics/SVG/1.1/DTD/svg11.dtd">
<svg width="64pt" height="64pt" viewBox="0 0 64 64" version="1.1" xmlns="http://www.w3.org/2000/svg">
<g id="#ffffffff">
<path fill="#ffffff" opacity="1.00" d=" M 0.00 0.00 L 64.00 0.00 L 64.00 64.00 L 0.00 64.00 L 0.00 0.00 M 18.10 8.13 C 19.18 11.28 16.90 14.97 19.29 17.70 C 21.51 20.74 26.57 20.71 28.76 17.64 C 31.05 14.90 28.85 11.26 29.90 8.14 C 28.69 8.61 27.46 8.72 26.21 8.46 C 23.51 7.55 20.75 9.36 18.10 8.13 M 37.37 8.62 C 32.23 10.80 33.43 19.23 38.97 19.90 C 43.82 19.95 47.66 16.24 51.70 14.00 C 47.27 11.71 42.72 6.71 37.37 8.62 M 8.19 12.89 C 9.70 15.69 10.83 18.71 12.61 21.35 C 14.26 22.80 16.18 23.90 18.00 25.11 C 18.00 28.01 18.00 30.91 18.00 33.80 C 16.46 34.13 14.66 34.20 13.51 35.44 C 11.66 37.10 12.09 39.78 11.93 42.00 C 12.42 42.00 13.41 42.00 13.91 42.00 C 13.57 39.08 14.38 35.66 17.98 35.76 C 18.02 42.50 17.99 49.25 18.00 56.00 C 18.51 55.49 19.52 54.48 20.02 53.98 C 20.52 54.48 21.50 55.50 22.00 56.01 C 22.00 53.76 22.00 51.51 22.00 49.26 C 24.83 47.87 27.64 46.44 30.44 45.00 C 27.97 39.74 27.65 33.99 28.02 28.27 C 29.03 29.51 30.04 30.75 31.06 32.00 C 34.06 32.00 37.06 32.00 40.06 32.00 C 39.95 30.11 40.66 27.54 37.93 27.43 C 39.61 25.94 42.90 25.21 43.73 27.95 C 43.70 31.57 44.82 34.95 46.75 38.00 C 43.83 38.00 40.92 38.00 38.00 38.00 C 38.00 36.67 38.00 35.33 38.00 34.00 C 36.67 34.00 35.33 34.00 34.00 34.00 C 34.00 36.66 34.00 39.33 34.00 41.99 C 34.50 42.00 35.50 42.00 36.00 42.01 C 36.00 46.67 36.00 51.34 36.00 56.00 C 37.33 56.00 38.67 56.00 40.00 56.00 C 40.06 51.18 39.85 46.36 40.13 41.54 C 41.09 44.10 41.62 46.79 42.35 49.41 C 44.56 50.78 46.73 52.21 48.87 53.68 C 49.62 52.56 50.38 51.44 51.12 50.32 C 49.31 49.09 47.49 47.88 45.69 46.64 C 45.33 45.09 44.95 43.55 44.57 42.00 C 47.47 42.00 50.36 42.00 53.26 42.00 C 51.92 39.33 50.58 36.67 49.25 34.00 C 51.50 34.00 53.75 34.00 56.00 34.00 C 56.00 32.67 56.00 31.33 56.00 30.00 C 53.75 30.00 51.51 30.00 49.26 29.99 C 47.72 26.81 46.14 22.65 42.12 22.09 C 38.04 21.28 34.69 24.64 33.74 28.33 C 31.52 26.79 30.30 24.26 28.23 22.57 C 25.14 21.15 21.18 23.14 18.44 20.61 C 14.63 18.82 13.73 14.45 11.77 11.11 C 10.58 11.71 9.39 12.30 8.19 12.89 Z" />
<path fill="#ffffff" opacity="1.00" d=" M 39.11 12.05 C 41.01 12.02 42.57 13.26 44.23 14.00 C 42.59 14.71 41.05 15.96 39.18 15.95 C 37.66 15.12 37.68 12.96 39.11 12.05 Z" />
<path fill="#ffffff" opacity="1.00" d=" M 22.00 39.96 C 22.67 39.99 24.00 40.06 24.67 40.09 C 24.89 40.80 25.32 42.23 25.54 42.94 C 24.36 43.55 23.18 44.15 22.00 44.75 C 22.00 43.15 21.99 41.56 22.00 39.96 Z" />
</g>
<g id="#000000ff">
<path fill="#000000" opacity="1.00" d=" M 18.10 8.13 C 20.75 9.36 23.51 7.55 26.21 8.46 C 27.46 8.72 28.69 8.61 29.90 8.14 C 28.85 11.26 31.05 14.90 28.76 17.64 C 26.57 20.71 21.51 20.74 19.29 17.70 C 16.90 14.97 19.18 11.28 18.10 8.13 Z" />
<path fill="#000000" opacity="1.00" d=" M 37.37 8.62 C 42.72 6.71 47.27 11.71 51.70 14.00 C 47.66 16.24 43.82 19.95 38.97 19.90 C 33.43 19.23 32.23 10.80 37.37 8.62 M 39.11 12.05 C 37.68 12.96 37.66 15.12 39.18 15.95 C 41.05 15.96 42.59 14.71 44.23 14.00 C 42.57 13.26 41.01 12.02 39.11 12.05 Z" />
<path fill="#000000" opacity="1.00" d=" M 8.19 12.89 C 9.39 12.30 10.58 11.71 11.77 11.11 C 13.73 14.45 14.63 18.82 18.44 20.61 C 21.18 23.14 25.14 21.15 28.23 22.57 C 30.30 24.26 31.52 26.79 33.74 28.33 C 34.69 24.64 38.04 21.28 42.12 22.09 C 46.14 22.65 47.72 26.81 49.26 29.99 C 51.51 30.00 53.75 30.00 56.00 30.00 C 56.00 31.33 56.00 32.67 56.00 34.00 C 53.75 34.00 51.50 34.00 49.25 34.00 C 50.58 36.67 51.92 39.33 53.26 42.00 C 50.36 42.00 47.47 42.00 44.57 42.00 C 44.95 43.55 45.33 45.09 45.69 46.64 C 47.49 47.88 49.31 49.09 51.12 50.32 C 50.38 51.44 49.62 52.56 48.87 53.68 C 46.73 52.21 44.56 50.78 42.35 49.41 C 41.62 46.79 41.09 44.10 40.13 41.54 C 39.85 46.36 40.06 51.18 40.00 56.00 C 38.67 56.00 37.33 56.00 36.00 56.00 C 36.00 51.34 36.00 46.67 36.00 42.01 C 35.50 42.00 34.50 42.00 34.00 41.99 C 34.00 39.33 34.00 36.66 34.00 34.00 C 35.33 34.00 36.67 34.00 38.00 34.00 C 38.00 35.33 38.00 36.67 38.00 38.00 C 40.92 38.00 43.83 38.00 46.75 38.00 C 44.82 34.95 43.70 31.57 43.73 27.95 C 42.90 25.21 39.61 25.94 37.93 27.43 C 40.66 27.54 39.95 30.11 40.06 32.00 C 37.06 32.00 34.06 32.00 31.06 32.00 C 30.04 30.75 29.03 29.51 28.02 28.27 C 27.65 33.99 27.97 39.74 30.44 45.00 C 27.64 46.44 24.83 47.87 22.00 49.26 C 22.00 51.51 22.00 53.76 22.00 56.01 C 21.50 55.50 20.52 54.48 20.02 53.98 C 19.52 54.48 18.51 55.49 18.00 56.00 C 17.99 49.25 18.02 42.50 17.98 35.76 C 14.38 35.66 13.57 39.08 13.91 42.00 C 13.41 42.00 12.42 42.00 11.93 42.00 C 12.09 39.78 11.66 37.10 13.51 35.44 C 14.66 34.20 16.46 34.13 18.00 33.80 C 18.00 30.91 18.00 28.01 18.00 25.11 C 16.18 23.90 14.26 22.80 12.61 21.35 C 10.83 18.71 9.70 15.69 8.19 12.89 M 22.00 39.96 C 21.99 41.56 22.00 43.15 22.00 44.75 C 23.18 44.15 24.36 43.55 25.54 42.94 C 25.32 42.23 24.89 40.80 24.67 40.09 C 24.00 40.06 22.67 39.99 22.00 39.96 Z" />
</g>
</svg>
