<?xml version="1.0" encoding="UTF-8" ?>
<!DOCTYPE svg PUBLIC "-//W3C//DTD SVG 1.1//EN" "http://www.w3.org/Graphics/SVG/1.1/DTD/svg11.dtd">
<svg width="64pt" height="64pt" viewBox="0 0 64 64" version="1.1" xmlns="http://www.w3.org/2000/svg">
<g id="#ffffffff">
<path fill="#ffffff" opacity="1.00" d=" M 0.00 0.00 L 64.00 0.00 L 64.00 64.00 L 0.00 64.00 L 0.00 0.00 M 48.00 4.00 C 48.00 6.39 48.00 8.78 48.00 11.16 C 45.35 13.85 42.66 16.50 40.01 19.18 C 40.95 20.12 41.89 21.05 42.82 21.99 C 45.51 19.34 48.17 16.67 50.83 14.00 C 53.22 14.00 55.61 14.00 58.00 14.00 C 58.00 12.67 58.00 11.33 58.00 10.00 C 56.00 10.00 54.00 10.00 52.00 10.00 C 52.00 8.00 52.00 6.00 52.00 4.00 C 50.67 4.00 49.33 4.00 48.00 4.00 M 27.42 6.58 C 26.48 7.53 25.53 8.47 24.59 9.41 C 26.40 11.21 28.21 13.02 30.01 14.84 C 30.00 17.31 30.00 19.78 30.00 22.25 C 29.48 22.46 28.43 22.88 27.91 23.08 C 25.94 21.11 23.98 19.14 22.00 17.17 C 22.00 14.78 22.00 12.39 22.00 10.00 C 20.67 10.00 19.33 10.00 18.00 10.00 C 18.00 12.00 18.00 14.00 18.00 16.00 C 16.00 16.00 14.00 16.00 12.00 16.00 C 12.00 17.33 12.00 18.67 12.00 20.00 C 14.39 20.00 16.79 20.00 19.18 20.00 C 21.15 21.97 23.12 23.94 25.08 25.91 C 24.87 26.43 24.46 27.48 24.25 28.00 C 21.78 28.00 19.31 28.00 16.84 28.00 C 15.03 26.20 13.22 24.40 11.41 22.59 C 10.47 23.53 9.53 24.47 8.59 25.41 C 10.12 26.94 11.64 28.47 13.17 30.00 C 11.65 31.53 10.13 33.04 8.60 34.55 C 9.53 35.50 10.46 36.46 11.39 37.42 C 13.21 35.62 15.02 33.81 16.83 32.00 C 19.50 32.63 24.37 30.28 25.11 34.10 C 23.11 36.04 21.16 38.04 19.18 40.00 C 16.78 40.00 14.39 40.00 12.00 40.00 C 12.00 41.33 12.00 42.67 12.00 44.00 C 14.00 44.00 16.00 44.00 18.00 44.00 C 18.00 46.00 18.00 48.00 18.00 50.00 C 19.33 50.00 20.67 50.00 22.00 50.00 C 22.00 47.61 22.00 45.22 22.00 42.83 C 23.98 40.87 25.96 38.89 27.92 36.91 C 28.44 37.12 29.48 37.54 30.00 37.75 C 30.00 40.22 30.00 42.69 30.00 45.16 C 28.21 46.98 26.41 48.78 24.59 50.57 C 25.54 51.51 26.49 52.46 27.44 53.40 C 28.29 52.55 29.14 51.70 30.00 50.85 C 30.00 53.90 30.00 56.95 30.00 60.00 C 31.33 60.00 32.67 60.00 34.00 60.00 C 34.00 56.94 34.00 53.88 34.01 50.82 C 34.87 51.68 35.73 52.54 36.59 53.41 C 37.53 52.46 38.47 51.52 39.42 50.58 C 37.62 48.77 35.82 46.96 34.00 45.17 C 34.00 42.70 34.00 40.22 34.00 37.75 C 34.52 37.54 35.55 37.12 36.07 36.91 C 38.07 38.86 40.04 40.84 42.00 42.84 C 42.00 45.23 42.00 47.61 42.00 50.00 C 43.33 50.00 44.67 50.00 46.00 50.00 C 46.00 48.00 46.00 46.00 46.00 44.00 C 48.00 44.00 50.00 44.00 52.00 44.00 C 52.00 42.67 52.00 41.33 52.00 40.00 C 49.62 40.00 47.24 40.00 44.86 40.00 C 42.87 38.04 40.90 36.06 38.91 34.10 C 39.14 33.56 39.60 32.49 39.84 31.96 C 42.28 32.01 44.72 32.01 47.17 32.00 C 48.98 33.80 50.79 35.60 52.58 37.41 C 53.52 36.47 54.47 35.52 55.41 34.58 C 53.88 33.06 52.36 31.53 50.83 30.00 C 52.36 28.47 53.88 26.94 55.41 25.42 C 54.47 24.48 53.53 23.53 52.59 22.59 C 50.78 24.39 48.97 26.20 47.17 28.00 C 44.71 28.00 42.25 28.00 39.79 27.99 C 38.84 25.25 36.75 23.16 34.01 22.21 C 33.99 19.75 34.00 17.29 34.00 14.83 C 35.82 13.03 37.62 11.22 39.43 9.41 C 38.48 8.47 37.55 7.53 36.61 6.58 C 35.08 8.11 33.54 9.63 32.02 11.16 C 30.48 9.63 28.94 8.12 27.42 6.58 Z" />
<path fill="#ffffff" opacity="1.00" d=" M 30.33 26.40 C 33.15 24.81 36.76 27.89 35.90 30.93 C 35.34 33.57 31.81 34.99 29.68 33.21 C 27.15 31.65 27.64 27.51 30.33 26.40 Z" />
</g>
<g id="#000000ff">
<path fill="#000000" opacity="1.00" d=" M 48.00 4.00 C 49.33 4.00 50.67 4.00 52.00 4.00 C 52.00 6.00 52.00 8.00 52.00 10.00 C 54.00 10.00 56.00 10.00 58.00 10.00 C 58.00 11.33 58.00 12.67 58.00 14.00 C 55.61 14.00 53.22 14.00 50.83 14.00 C 48.17 16.67 45.51 19.34 42.82 21.99 C 41.89 21.05 40.95 20.12 40.01 19.18 C 42.66 16.50 45.35 13.85 48.00 11.16 C 48.00 8.78 48.00 6.39 48.00 4.00 Z" />
<path fill="#000000" opacity="1.00" d=" M 27.42 6.58 C 28.94 8.12 30.48 9.63 32.02 11.16 C 33.54 9.63 35.08 8.11 36.61 6.58 C 37.55 7.53 38.48 8.47 39.43 9.41 C 37.62 11.22 35.82 13.03 34.00 14.83 C 34.00 17.29 33.99 19.75 34.01 22.21 C 36.75 23.16 38.84 25.25 39.79 27.99 C 42.25 28.00 44.71 28.00 47.17 28.00 C 48.97 26.20 50.78 24.39 52.59 22.59 C 53.53 23.53 54.47 24.48 55.41 25.42 C 53.88 26.94 52.36 28.47 50.83 30.00 C 52.36 31.53 53.88 33.06 55.41 34.58 C 54.47 35.52 53.52 36.47 52.58 37.41 C 50.79 35.60 48.98 33.80 47.17 32.00 C 44.72 32.01 42.28 32.01 39.84 31.96 C 39.60 32.49 39.14 33.56 38.91 34.10 C 40.90 36.06 42.87 38.04 44.86 40.00 C 47.24 40.00 49.62 40.00 52.00 40.00 C 52.00 41.33 52.00 42.67 52.00 44.00 C 50.00 44.00 48.00 44.00 46.00 44.00 C 46.00 46.00 46.00 48.00 46.00 50.00 C 44.67 50.00 43.33 50.00 42.00 50.00 C 42.00 47.61 42.00 45.23 42.00 42.84 C 40.04 40.84 38.07 38.86 36.07 36.91 C 35.55 37.12 34.52 37.54 34.00 37.75 C 34.00 40.22 34.00 42.70 34.00 45.17 C 35.82 46.96 37.62 48.77 39.42 50.58 C 38.47 51.52 37.53 52.46 36.59 53.41 C 35.73 52.54 34.87 51.68 34.01 50.82 C 34.00 53.88 34.00 56.94 34.00 60.00 C 32.67 60.00 31.33 60.00 30.00 60.00 C 30.00 56.95 30.00 53.90 30.00 50.85 C 29.14 51.70 28.29 52.55 27.44 53.40 C 26.49 52.46 25.54 51.51 24.59 50.57 C 26.41 48.78 28.21 46.98 30.00 45.16 C 30.00 42.69 30.00 40.22 30.00 37.75 C 29.48 37.54 28.44 37.12 27.92 36.91 C 25.96 38.89 23.98 40.87 22.00 42.83 C 22.00 45.22 22.00 47.61 22.00 50.00 C 20.67 50.00 19.33 50.00 18.00 50.00 C 18.00 48.00 18.00 46.00 18.00 44.00 C 16.00 44.00 14.00 44.00 12.00 44.00 C 12.00 42.67 12.00 41.33 12.00 40.00 C 14.39 40.00 16.78 40.00 19.18 40.00 C 21.16 38.04 23.11 36.04 25.11 34.10 C 24.37 30.28 19.50 32.63 16.83 32.00 C 15.02 33.81 13.21 35.62 11.39 37.42 C 10.46 36.46 9.53 35.50 8.60 34.55 C 10.13 33.04 11.65 31.53 13.17 30.00 C 11.64 28.47 10.12 26.94 8.59 25.41 C 9.53 24.47 10.47 23.53 11.41 22.59 C 13.22 24.40 15.03 26.20 16.84 28.00 C 19.31 28.00 21.78 28.00 24.25 28.00 C 24.46 27.48 24.87 26.43 25.08 25.91 C 23.12 23.94 21.15 21.97 19.18 20.00 C 16.79 20.00 14.39 20.00 12.00 20.00 C 12.00 18.67 12.00 17.33 12.00 16.00 C 14.00 16.00 16.00 16.00 18.00 16.00 C 18.00 14.00 18.00 12.00 18.00 10.00 C 19.33 10.00 20.67 10.00 22.00 10.00 C 22.00 12.39 22.00 14.78 22.00 17.17 C 23.98 19.14 25.94 21.11 27.91 23.08 C 28.43 22.88 29.48 22.46 30.00 22.25 C 30.00 19.78 30.00 17.31 30.01 14.84 C 28.21 13.02 26.40 11.21 24.59 9.41 C 25.53 8.47 26.48 7.53 27.42 6.58 M 30.33 26.40 C 27.64 27.51 27.15 31.65 29.68 33.21 C 31.81 34.99 35.34 33.57 35.90 30.93 C 36.76 27.89 33.15 24.81 30.33 26.40 Z" />
</g>
</svg>
