<?xml version="1.0" encoding="UTF-8" ?>
<!DOCTYPE svg PUBLIC "-//W3C//DTD SVG 1.1//EN" "http://www.w3.org/Graphics/SVG/1.1/DTD/svg11.dtd">
<svg width="60pt" height="60pt" viewBox="0 0 60 60" version="1.1" xmlns="http://www.w3.org/2000/svg">
<g id="#ffffffff">
<path fill="#ffffff" opacity="1.00" d=" M 0.00 0.00 L 60.00 0.00 L 60.00 60.00 L 0.00 60.00 L 0.00 0.00 M 27.92 10.57 C 28.04 13.88 28.04 17.19 27.93 20.50 C 25.12 18.71 22.98 16.11 20.66 13.77 C 20.61 12.25 20.90 10.16 18.92 9.74 C 17.33 9.76 16.89 11.18 16.39 12.39 C 15.31 12.95 13.58 13.32 13.83 14.94 C 14.10 16.94 16.34 16.58 17.77 16.66 C 20.24 18.97 22.63 21.37 24.83 23.94 C 21.47 24.02 18.11 24.02 14.74 23.99 C 13.50 21.86 10.76 21.35 9.65 23.90 C 9.99 24.42 10.69 25.47 11.04 26.00 C 10.69 26.53 9.99 27.59 9.65 28.13 C 10.46 28.95 11.32 30.63 12.73 29.72 C 15.90 26.52 20.85 28.53 24.83 28.07 C 22.63 30.64 20.23 33.03 17.77 35.34 C 16.26 35.38 14.13 35.10 13.74 37.09 C 13.75 38.67 15.19 39.10 16.39 39.60 C 16.98 40.62 17.31 42.55 18.95 42.12 C 20.96 41.93 20.57 39.63 20.66 38.23 C 22.98 35.88 25.12 33.29 27.94 31.50 C 28.04 34.76 28.00 38.02 27.98 41.28 C 25.79 42.53 25.38 45.34 27.98 46.42 C 28.04 49.22 27.81 52.04 28.19 54.82 C 28.80 56.38 31.13 56.38 31.79 54.87 C 32.19 52.07 31.97 49.23 32.01 46.42 C 34.48 45.40 34.37 42.59 32.08 41.43 C 31.96 38.12 31.96 34.81 32.07 31.50 C 34.89 33.28 37.03 35.89 39.35 38.24 C 39.36 39.77 39.12 41.88 41.13 42.27 C 42.69 42.16 43.11 40.82 43.61 39.61 C 44.60 38.99 46.64 38.67 46.10 37.01 C 45.92 35.03 43.62 35.43 42.26 35.34 C 39.77 33.04 37.37 30.64 35.17 28.06 C 38.52 27.98 41.88 27.98 45.23 28.01 C 46.49 30.12 49.25 30.67 50.35 28.08 C 50.00 27.56 49.30 26.52 48.96 26.00 C 49.30 25.48 50.00 24.46 50.34 23.95 C 49.29 21.36 46.52 21.82 45.29 23.98 C 41.92 24.01 38.54 24.03 35.17 23.94 C 37.36 21.36 39.76 18.98 42.22 16.66 C 43.75 16.60 45.86 16.90 46.26 14.89 C 46.21 13.32 44.81 12.89 43.61 12.39 C 43.06 11.29 42.67 9.62 41.06 9.82 C 39.07 10.11 39.39 12.32 39.35 13.76 C 37.02 16.11 34.89 18.72 32.06 20.50 C 31.96 17.19 31.96 13.88 32.08 10.58 C 34.31 9.46 34.49 6.73 32.13 5.64 C 31.59 6.00 30.52 6.71 29.99 7.06 C 29.46 6.71 28.42 5.99 27.89 5.64 C 25.49 6.68 25.68 9.46 27.92 10.57 M 23.25 10.16 C 20.81 10.98 22.38 14.88 24.72 13.88 C 27.20 13.04 25.61 9.04 23.25 10.16 M 35.19 10.11 C 32.76 11.25 34.53 14.95 36.96 13.88 C 39.04 12.58 37.57 9.21 35.19 10.11 M 15.17 18.10 C 12.86 19.22 14.41 22.85 16.83 21.90 C 19.15 20.75 17.55 17.13 15.17 18.10 M 43.18 18.10 C 40.89 19.16 42.36 22.83 44.76 21.88 C 47.18 20.88 45.58 17.10 43.18 18.10 M 15.19 30.09 C 12.80 31.23 14.48 34.93 16.91 33.87 C 19.08 32.63 17.56 29.20 15.19 30.09 M 43.23 30.09 C 40.85 31.07 42.34 34.84 44.73 33.87 C 47.18 32.95 45.64 29.16 43.23 30.09 M 22.58 38.62 C 20.69 40.33 23.64 43.29 25.40 41.45 C 27.37 39.70 24.29 36.62 22.58 38.62 M 35.24 38.16 C 33.92 38.56 33.55 40.60 34.64 41.40 C 35.65 42.76 38.35 41.63 37.92 39.91 C 38.17 38.63 36.32 37.54 35.24 38.16 Z" />
<path fill="#ffffff" opacity="1.00" d=" M 28.21 24.16 C 29.65 22.70 32.73 23.73 32.50 25.99 C 32.65 27.90 30.66 28.90 29.01 28.39 C 27.34 27.78 27.01 25.35 28.21 24.16 Z" />
</g>
<g id="#000000ff">
<path fill="#000000" opacity="1.00" d=" M 27.92 10.57 C 25.68 9.46 25.49 6.68 27.89 5.64 C 28.42 5.99 29.46 6.71 29.99 7.06 C 30.52 6.71 31.59 6.00 32.13 5.64 C 34.49 6.73 34.31 9.46 32.08 10.58 C 31.96 13.88 31.96 17.19 32.06 20.50 C 34.89 18.72 37.02 16.11 39.35 13.76 C 39.39 12.32 39.07 10.11 41.06 9.82 C 42.67 9.62 43.06 11.29 43.61 12.39 C 44.81 12.89 46.21 13.32 46.26 14.89 C 45.86 16.90 43.75 16.60 42.22 16.66 C 39.76 18.98 37.36 21.36 35.17 23.94 C 38.54 24.03 41.92 24.01 45.29 23.98 C 46.52 21.82 49.29 21.36 50.34 23.95 C 50.00 24.46 49.30 25.48 48.96 26.00 C 49.30 26.52 50.00 27.56 50.35 28.08 C 49.25 30.67 46.49 30.12 45.23 28.01 C 41.88 27.98 38.52 27.98 35.17 28.06 C 37.37 30.64 39.77 33.04 42.26 35.34 C 43.62 35.43 45.92 35.03 46.10 37.01 C 46.64 38.67 44.60 38.99 43.61 39.61 C 43.11 40.82 42.69 42.16 41.13 42.27 C 39.12 41.88 39.36 39.77 39.35 38.24 C 37.03 35.89 34.89 33.28 32.07 31.50 C 31.96 34.81 31.96 38.12 32.08 41.43 C 34.37 42.59 34.48 45.40 32.01 46.42 C 31.97 49.23 32.19 52.07 31.79 54.87 C 31.13 56.38 28.80 56.38 28.19 54.82 C 27.81 52.04 28.04 49.22 27.98 46.42 C 25.38 45.34 25.79 42.53 27.98 41.28 C 28.00 38.02 28.04 34.76 27.94 31.50 C 25.12 33.29 22.98 35.88 20.66 38.23 C 20.57 39.63 20.96 41.93 18.95 42.12 C 17.31 42.55 16.98 40.62 16.39 39.60 C 15.19 39.10 13.75 38.67 13.74 37.09 C 14.13 35.10 16.26 35.38 17.77 35.34 C 20.23 33.03 22.63 30.64 24.83 28.07 C 20.85 28.53 15.90 26.52 12.73 29.72 C 11.32 30.63 10.46 28.95 9.65 28.13 C 9.99 27.59 10.69 26.53 11.04 26.00 C 10.69 25.47 9.99 24.42 9.65 23.90 C 10.76 21.35 13.50 21.86 14.74 23.99 C 18.11 24.02 21.47 24.02 24.83 23.94 C 22.63 21.37 20.24 18.97 17.77 16.66 C 16.34 16.58 14.10 16.94 13.83 14.94 C 13.58 13.32 15.31 12.95 16.39 12.39 C 16.89 11.18 17.33 9.76 18.92 9.74 C 20.90 10.16 20.61 12.25 20.66 13.77 C 22.98 16.11 25.12 18.71 27.93 20.50 C 28.04 17.19 28.04 13.88 27.92 10.57 M 28.21 24.16 C 27.01 25.35 27.34 27.78 29.01 28.39 C 30.66 28.90 32.65 27.90 32.50 25.99 C 32.73 23.73 29.65 22.70 28.21 24.16 Z" />
<path fill="#000000" opacity="1.00" d=" M 23.25 10.16 C 25.61 9.04 27.20 13.04 24.72 13.88 C 22.38 14.88 20.81 10.98 23.25 10.16 Z" />
<path fill="#000000" opacity="1.00" d=" M 35.19 10.11 C 37.57 9.21 39.04 12.58 36.96 13.88 C 34.53 14.95 32.76 11.25 35.19 10.11 Z" />
<path fill="#000000" opacity="1.00" d=" M 15.17 18.10 C 17.55 17.13 19.15 20.75 16.83 21.90 C 14.41 22.85 12.86 19.22 15.17 18.10 Z" />
<path fill="#000000" opacity="1.00" d=" M 43.18 18.10 C 45.58 17.10 47.18 20.88 44.76 21.88 C 42.36 22.83 40.89 19.16 43.18 18.10 Z" />
<path fill="#000000" opacity="1.00" d=" M 15.19 30.09 C 17.56 29.20 19.08 32.63 16.91 33.87 C 14.48 34.93 12.80 31.23 15.19 30.09 Z" />
<path fill="#000000" opacity="1.00" d=" M 43.23 30.09 C 45.64 29.16 47.18 32.95 44.73 33.87 C 42.34 34.84 40.85 31.07 43.23 30.09 Z" />
<path fill="#000000" opacity="1.00" d=" M 22.58 38.62 C 24.29 36.62 27.37 39.70 25.40 41.45 C 23.64 43.29 20.69 40.33 22.58 38.62 Z" />
<path fill="#000000" opacity="1.00" d=" M 35.24 38.16 C 36.32 37.54 38.17 38.63 37.92 39.91 C 38.35 41.63 35.65 42.76 34.64 41.40 C 33.55 40.60 33.92 38.56 35.24 38.16 Z" />
</g>
</svg>
