<?xml version="1.0" encoding="UTF-8" ?>
<!DOCTYPE svg PUBLIC "-//W3C//DTD SVG 1.1//EN" "http://www.w3.org/Graphics/SVG/1.1/DTD/svg11.dtd">
<svg width="64pt" height="64pt" viewBox="0 0 64 64" version="1.1" xmlns="http://www.w3.org/2000/svg">
<g id="#ffffffff">
<path fill="#ffffff" opacity="1.00" d=" M 0.00 0.00 L 64.00 0.00 L 64.00 64.00 L 0.00 64.00 L 0.00 0.00 M 30.01 4.00 C 30.01 4.47 30.00 5.41 30.00 5.88 C 25.13 6.26 20.27 8.43 17.42 12.51 C 14.69 16.05 14.59 20.67 13.56 24.85 C 11.98 31.72 7.95 37.63 5.01 43.95 C 3.87 46.30 3.44 49.42 5.45 51.45 C 8.71 54.95 13.84 55.19 17.96 57.07 C 21.60 60.10 26.59 59.80 31.04 59.98 C 36.25 59.84 42.13 60.42 46.41 56.85 C 50.48 55.25 55.35 54.81 58.52 51.48 C 60.56 49.43 60.13 46.28 58.97 43.91 C 56.05 37.62 52.03 31.74 50.45 24.90 C 49.43 20.68 49.31 16.01 46.53 12.45 C 43.67 8.40 38.86 6.22 34.00 5.88 C 34.00 5.41 33.99 4.47 33.99 4.00 C 32.66 4.00 31.34 4.00 30.01 4.00 Z" />
<path fill="#ffffff" opacity="1.00" d=" M 17.98 22.75 C 18.23 16.16 23.22 10.24 29.97 9.82 C 30.03 14.43 29.98 19.05 30.01 23.66 C 26.22 21.98 21.99 21.59 17.98 22.75 Z" />
<path fill="#ffffff" opacity="1.00" d=" M 34.03 9.82 C 37.32 10.31 40.65 11.54 42.80 14.22 C 44.98 16.54 45.33 19.83 46.03 22.79 C 42.02 21.62 37.78 21.91 33.99 23.65 C 34.02 19.04 33.97 14.43 34.03 9.82 Z" />
<path fill="#ffffff" opacity="1.00" d=" M 19.45 26.70 C 22.87 25.08 26.42 26.82 29.70 27.85 C 34.50 29.35 38.70 24.76 43.46 26.38 C 45.75 26.86 47.45 28.66 48.14 30.85 C 50.43 36.84 54.09 42.19 56.29 48.22 C 53.09 50.93 48.96 52.11 44.90 52.81 C 43.42 51.86 41.67 52.00 40.01 51.91 C 40.00 53.12 39.99 54.34 39.99 55.55 C 34.67 56.15 29.32 56.03 24.00 55.62 C 23.98 54.38 23.93 53.15 23.86 51.92 C 18.47 53.26 11.69 52.23 8.00 47.96 C 9.35 42.89 12.63 38.62 14.59 33.79 C 15.87 31.27 16.43 27.77 19.45 26.70 M 19.65 29.68 C 16.08 33.94 19.42 39.58 20.48 44.17 C 21.74 43.75 23.00 43.33 24.26 42.90 C 23.58 40.62 22.93 38.31 22.31 36.01 C 24.87 36.00 27.43 36.00 30.00 36.00 C 30.00 34.42 30.00 32.83 30.01 31.25 C 27.49 28.38 22.70 26.53 19.65 29.68 M 33.99 31.24 C 34.00 32.83 34.00 34.41 34.00 36.00 C 36.56 36.00 39.13 36.00 41.69 36.01 C 41.07 38.30 40.43 40.59 39.75 42.87 C 41.01 43.28 42.27 43.70 43.54 44.11 C 44.53 40.45 46.20 36.78 45.90 32.91 C 45.60 30.03 42.88 27.81 40.00 28.01 C 37.54 27.96 35.76 29.81 33.99 31.24 M 30.00 36.00 C 30.00 37.33 30.00 38.66 30.01 39.99 C 28.00 42.66 26.01 45.33 24.00 48.00 C 29.33 48.00 34.67 48.00 40.00 48.00 C 37.99 45.33 36.00 42.65 33.99 39.99 C 34.00 38.66 34.00 37.33 34.00 36.00 C 32.67 36.00 31.33 36.00 30.00 36.00 Z" />
</g>
<g id="#000000ff">
<path fill="#000000" opacity="1.00" d=" M 30.01 4.00 C 31.34 4.00 32.66 4.00 33.99 4.00 C 33.99 4.47 34.00 5.41 34.00 5.88 C 38.86 6.22 43.67 8.40 46.53 12.45 C 49.31 16.01 49.43 20.68 50.45 24.90 C 52.03 31.74 56.05 37.62 58.97 43.91 C 60.13 46.28 60.56 49.43 58.52 51.48 C 55.35 54.81 50.48 55.25 46.41 56.85 C 42.13 60.42 36.25 59.84 31.04 59.98 C 26.59 59.80 21.60 60.10 17.96 57.07 C 13.84 55.19 8.71 54.95 5.45 51.45 C 3.44 49.42 3.87 46.30 5.01 43.95 C 7.95 37.63 11.98 31.72 13.56 24.85 C 14.59 20.67 14.69 16.05 17.42 12.51 C 20.27 8.43 25.13 6.26 30.00 5.88 C 30.00 5.41 30.01 4.47 30.01 4.00 M 17.98 22.75 C 21.99 21.59 26.22 21.98 30.01 23.66 C 29.98 19.05 30.03 14.43 29.97 9.82 C 23.22 10.24 18.23 16.16 17.98 22.75 M 34.03 9.82 C 33.97 14.43 34.02 19.04 33.99 23.65 C 37.78 21.91 42.02 21.62 46.03 22.79 C 45.33 19.83 44.98 16.54 42.80 14.22 C 40.65 11.54 37.32 10.31 34.03 9.82 M 19.45 26.70 C 16.43 27.77 15.87 31.27 14.59 33.79 C 12.63 38.62 9.35 42.89 8.00 47.96 C 11.69 52.23 18.47 53.26 23.86 51.92 C 23.93 53.15 23.98 54.38 24.00 55.62 C 29.32 56.03 34.67 56.15 39.99 55.55 C 39.99 54.34 40.00 53.12 40.01 51.91 C 41.67 52.00 43.42 51.86 44.90 52.81 C 48.96 52.11 53.09 50.93 56.29 48.22 C 54.09 42.19 50.43 36.84 48.14 30.85 C 47.45 28.66 45.75 26.86 43.46 26.38 C 38.70 24.76 34.50 29.35 29.70 27.85 C 26.42 26.82 22.87 25.08 19.45 26.70 Z" />
<path fill="#000000" opacity="1.00" d=" M 19.65 29.68 C 22.70 26.53 27.49 28.38 30.01 31.25 C 30.00 32.83 30.00 34.42 30.00 36.00 C 27.43 36.00 24.87 36.00 22.31 36.01 C 22.93 38.31 23.58 40.62 24.26 42.90 C 23.00 43.33 21.74 43.75 20.48 44.17 C 19.42 39.58 16.08 33.94 19.65 29.68 Z" />
<path fill="#000000" opacity="1.00" d=" M 33.99 31.24 C 35.76 29.81 37.54 27.96 40.00 28.01 C 42.88 27.81 45.60 30.03 45.90 32.91 C 46.20 36.78 44.53 40.45 43.54 44.11 C 42.27 43.70 41.01 43.28 39.75 42.87 C 40.43 40.59 41.07 38.30 41.69 36.01 C 39.13 36.00 36.56 36.00 34.00 36.00 C 34.00 34.41 34.00 32.83 33.99 31.24 Z" />
<path fill="#000000" opacity="1.00" d=" M 30.00 36.00 C 31.33 36.00 32.67 36.00 34.00 36.00 C 34.00 37.33 34.00 38.66 33.99 39.99 C 36.00 42.65 37.99 45.33 40.00 48.00 C 34.67 48.00 29.33 48.00 24.00 48.00 C 26.01 45.33 28.00 42.66 30.01 39.99 C 30.00 38.66 30.00 37.33 30.00 36.00 Z" />
</g>
</svg>
