<?xml version="1.0" encoding="UTF-8" ?>
<!DOCTYPE svg PUBLIC "-//W3C//DTD SVG 1.1//EN" "http://www.w3.org/Graphics/SVG/1.1/DTD/svg11.dtd">
<svg width="60pt" height="60pt" viewBox="0 0 60 60" version="1.1" xmlns="http://www.w3.org/2000/svg">
<g id="#ffffffff">
<path fill="#ffffff" opacity="1.00" d=" M 0.00 0.00 L 60.00 0.00 L 60.00 60.00 L 0.00 60.00 L 0.00 0.00 M 37.40 10.45 C 35.74 10.71 35.80 13.17 37.14 13.90 C 39.00 14.44 41.78 15.71 42.68 13.10 C 42.56 10.60 39.36 9.95 37.40 10.45 M 29.45 11.41 C 27.11 11.78 24.60 15.48 28.09 16.33 C 29.98 15.92 32.08 14.92 32.78 12.97 C 32.08 11.81 30.91 10.47 29.45 11.41 M 47.98 21.38 C 52.54 20.52 48.85 15.24 45.92 14.70 C 43.94 17.14 45.62 20.01 47.98 21.38 M 22.40 18.25 C 20.99 18.59 19.14 19.35 19.23 21.12 C 20.17 23.10 23.77 24.38 24.74 21.73 C 26.35 20.04 24.66 17.05 22.40 18.25 M 13.29 19.19 C 12.09 19.78 11.44 20.73 11.36 22.03 C 12.75 25.31 18.63 21.97 16.83 19.15 C 15.63 18.38 14.45 18.39 13.29 19.19 M 8.81 25.33 C 7.64 26.57 5.81 28.18 6.94 30.04 C 9.10 31.54 12.64 29.70 12.12 26.92 C 12.56 25.13 9.86 23.68 8.81 25.33 M 48.34 25.25 C 47.87 26.73 47.28 29.23 49.20 29.94 C 50.68 31.09 53.76 30.62 53.21 28.23 C 52.42 26.42 50.58 23.12 48.34 25.25 M 1.35 32.45 C 0.17 34.07 0.57 36.21 1.01 38.00 C 5.31 40.16 6.45 28.99 1.35 32.45 M 55.42 32.37 C 54.46 34.54 56.07 39.03 59.08 37.95 C 60.16 35.55 58.76 29.71 55.42 32.37 M 2.33 42.32 C 0.84 44.97 4.58 48.67 7.24 47.20 C 8.61 44.67 4.80 40.61 2.33 42.32 M 55.22 42.03 C 53.76 43.27 51.57 45.08 53.00 47.16 C 56.90 49.70 60.74 40.29 55.22 42.03 M 12.23 46.28 L 11.53 46.54 C 9.29 50.22 15.38 51.04 17.42 49.12 C 18.68 45.87 14.35 45.42 12.23 46.28 M 20.95 48.06 C 22.42 50.31 25.27 50.53 27.56 49.47 C 29.24 47.71 26.99 45.36 24.97 45.97 C 23.18 45.55 22.05 46.93 20.95 48.06 M 32.10 48.69 C 33.39 50.96 36.32 49.80 38.35 49.49 C 38.46 48.89 38.67 47.69 38.77 47.09 C 36.85 45.46 31.60 45.12 32.10 48.69 M 42.00 48.04 C 43.41 50.80 49.46 51.14 49.19 47.22 C 47.28 45.04 43.50 45.64 42.00 48.04 Z" />
</g>
<g id="#000000ff">
<path fill="#000000" opacity="1.00" d=" M 37.40 10.45 C 39.36 9.95 42.56 10.60 42.68 13.10 C 41.78 15.71 39.00 14.44 37.14 13.90 C 35.80 13.17 35.74 10.71 37.40 10.45 Z" />
<path fill="#000000" opacity="1.00" d=" M 29.45 11.41 C 30.91 10.47 32.08 11.81 32.78 12.97 C 32.08 14.92 29.98 15.92 28.09 16.33 C 24.60 15.48 27.11 11.78 29.45 11.41 Z" />
<path fill="#000000" opacity="1.00" d=" M 47.98 21.38 C 45.62 20.01 43.94 17.14 45.92 14.70 C 48.85 15.24 52.54 20.52 47.98 21.38 Z" />
<path fill="#000000" opacity="1.00" d=" M 22.40 18.25 C 24.66 17.05 26.35 20.04 24.74 21.73 C 23.77 24.38 20.17 23.10 19.23 21.12 C 19.14 19.35 20.99 18.59 22.40 18.25 Z" />
<path fill="#000000" opacity="1.00" d=" M 13.29 19.19 C 14.45 18.39 15.63 18.38 16.83 19.15 C 18.63 21.97 12.75 25.31 11.36 22.03 C 11.44 20.73 12.09 19.78 13.29 19.19 Z" />
<path fill="#000000" opacity="1.00" d=" M 8.81 25.33 C 9.86 23.68 12.56 25.13 12.12 26.92 C 12.64 29.70 9.10 31.54 6.94 30.04 C 5.81 28.18 7.64 26.57 8.81 25.33 Z" />
<path fill="#000000" opacity="1.00" d=" M 48.34 25.25 C 50.58 23.12 52.42 26.42 53.21 28.23 C 53.76 30.62 50.68 31.09 49.20 29.94 C 47.28 29.23 47.87 26.73 48.34 25.25 Z" />
<path fill="#000000" opacity="1.00" d=" M 1.35 32.45 C 6.45 28.99 5.31 40.16 1.01 38.00 C 0.57 36.21 0.17 34.07 1.35 32.45 Z" />
<path fill="#000000" opacity="1.00" d=" M 55.42 32.37 C 58.76 29.71 60.16 35.55 59.08 37.95 C 56.07 39.03 54.46 34.54 55.42 32.37 Z" />
<path fill="#000000" opacity="1.00" d=" M 2.33 42.32 C 4.80 40.61 8.61 44.67 7.24 47.20 C 4.58 48.67 0.84 44.97 2.33 42.32 Z" />
<path fill="#000000" opacity="1.00" d=" M 55.22 42.03 C 60.74 40.29 56.90 49.70 53.00 47.16 C 51.57 45.08 53.76 43.27 55.22 42.03 Z" />
<path fill="#000000" opacity="1.00" d=" M 12.23 46.28 C 14.35 45.42 18.68 45.87 17.42 49.12 C 15.38 51.04 9.29 50.22 11.53 46.54 L 12.23 46.28 Z" />
<path fill="#000000" opacity="1.00" d=" M 20.95 48.06 C 22.05 46.93 23.18 45.55 24.97 45.97 C 26.99 45.36 29.24 47.71 27.56 49.47 C 25.27 50.53 22.42 50.31 20.95 48.06 Z" />
<path fill="#000000" opacity="1.00" d=" M 32.10 48.69 C 31.60 45.12 36.85 45.46 38.77 47.09 C 38.67 47.69 38.46 48.89 38.35 49.49 C 36.32 49.80 33.39 50.96 32.10 48.69 Z" />
<path fill="#000000" opacity="1.00" d=" M 42.00 48.04 C 43.50 45.64 47.28 45.04 49.19 47.22 C 49.46 51.14 43.41 50.80 42.00 48.04 Z" />
</g>
</svg>
