<?xml version="1.0" encoding="UTF-8" ?>
<!DOCTYPE svg PUBLIC "-//W3C//DTD SVG 1.1//EN" "http://www.w3.org/Graphics/SVG/1.1/DTD/svg11.dtd">
<svg width="60pt" height="60pt" viewBox="0 0 60 60" version="1.1" xmlns="http://www.w3.org/2000/svg">
<g id="#ffffffff">
<path fill="#ffffff" opacity="1.00" d=" M 0.00 0.00 L 60.00 0.00 L 60.00 41.44 C 59.74 35.23 53.08 30.44 47.14 32.44 C 41.65 33.92 38.80 40.22 40.48 45.49 C 37.68 48.36 34.82 51.16 32.00 54.00 C 32.00 56.00 32.00 58.00 32.00 60.00 L 0.00 60.00 L 0.00 0.00 M 10.38 8.37 C 6.78 10.17 8.21 14.86 8.07 18.07 C 7.94 19.64 9.70 20.17 10.95 19.99 C 23.99 19.97 37.03 20.09 50.06 19.93 C 52.62 19.88 51.89 16.66 52.04 14.97 C 52.22 12.42 52.07 8.82 48.97 8.12 C 37.65 7.82 26.30 8.11 14.96 7.98 C 13.45 8.09 11.81 7.76 10.38 8.37 M 8.17 25.12 C 7.87 28.34 7.88 31.61 8.16 34.83 C 8.40 35.09 8.89 35.59 9.14 35.84 C 17.38 36.24 25.66 35.86 33.91 36.02 C 35.23 35.78 37.24 36.68 37.90 35.03 C 40.67 30.06 46.49 27.38 52.09 28.07 C 51.96 26.61 52.24 23.97 50.06 24.07 C 37.36 23.90 24.66 24.07 11.96 23.98 C 10.65 24.10 8.90 23.66 8.17 25.12 M 7.97 43.93 C 7.92 46.77 7.42 50.95 11.00 51.87 C 16.82 52.01 22.74 52.24 28.52 51.77 C 31.14 49.33 33.60 46.72 36.12 44.18 C 36.11 42.79 36.09 41.39 36.08 40.00 C 27.38 40.05 18.68 39.91 9.98 40.06 C 7.85 39.92 7.95 42.47 7.97 43.93 Z" />
<path fill="#ffffff" opacity="1.00" d=" M 49.35 38.53 C 51.17 37.15 54.08 38.70 53.98 40.99 C 54.07 42.93 51.88 44.56 50.06 43.81 C 47.76 43.22 47.31 39.72 49.35 38.53 Z" />
<path fill="#ffffff" opacity="1.00" d=" M 46.51 51.52 C 52.45 53.50 59.21 49.44 60.00 43.19 L 60.00 60.00 L 38.00 60.00 C 38.00 58.67 38.00 57.33 38.00 56.00 C 39.33 56.00 40.66 56.00 41.99 56.00 C 43.49 54.50 44.99 53.00 46.51 51.52 Z" />
</g>
<g id="#000000ff">
<path fill="#000000" opacity="1.00" d=" M 10.38 8.37 C 11.81 7.76 13.45 8.09 14.96 7.98 C 26.30 8.11 37.65 7.82 48.97 8.12 C 52.07 8.82 52.22 12.42 52.04 14.97 C 51.89 16.66 52.62 19.88 50.06 19.93 C 37.03 20.09 23.99 19.97 10.95 19.99 C 9.70 20.17 7.94 19.64 8.07 18.07 C 8.21 14.86 6.78 10.17 10.38 8.37 Z" />
<path fill="#000000" opacity="1.00" d=" M 8.17 25.12 C 8.90 23.66 10.65 24.10 11.96 23.98 C 24.66 24.07 37.36 23.90 50.06 24.07 C 52.24 23.97 51.96 26.61 52.09 28.07 C 46.49 27.38 40.67 30.06 37.90 35.03 C 37.24 36.68 35.23 35.78 33.91 36.02 C 25.66 35.86 17.38 36.24 9.14 35.84 C 8.89 35.59 8.40 35.09 8.16 34.83 C 7.88 31.61 7.87 28.34 8.17 25.12 Z" />
<path fill="#000000" opacity="1.00" d=" M 40.48 45.49 C 38.80 40.22 41.65 33.92 47.14 32.44 C 53.08 30.44 59.74 35.23 60.00 41.44 L 60.00 43.19 C 59.21 49.44 52.45 53.50 46.51 51.52 C 44.99 53.00 43.49 54.50 41.99 56.00 C 40.66 56.00 39.33 56.00 38.00 56.00 C 38.00 57.33 38.00 58.67 38.00 60.00 L 32.00 60.00 C 32.00 58.00 32.00 56.00 32.00 54.00 C 34.82 51.16 37.68 48.36 40.48 45.49 M 49.35 38.53 C 47.31 39.72 47.76 43.22 50.06 43.81 C 51.88 44.56 54.07 42.93 53.98 40.99 C 54.08 38.70 51.17 37.15 49.35 38.53 Z" />
<path fill="#000000" opacity="1.00" d=" M 7.97 43.93 C 7.95 42.47 7.85 39.92 9.98 40.06 C 18.68 39.91 27.38 40.05 36.08 40.00 C 36.09 41.39 36.11 42.79 36.12 44.18 C 33.60 46.72 31.14 49.33 28.52 51.77 C 22.74 52.24 16.82 52.01 11.00 51.87 C 7.42 50.95 7.92 46.77 7.97 43.93 Z" />
</g>
</svg>
