<?xml version="1.0" encoding="UTF-8" ?>
<!DOCTYPE svg PUBLIC "-//W3C//DTD SVG 1.1//EN" "http://www.w3.org/Graphics/SVG/1.1/DTD/svg11.dtd">
<svg width="60pt" height="60pt" viewBox="0 0 60 60" version="1.1" xmlns="http://www.w3.org/2000/svg">
<g id="#ffffffff">
<path fill="#ffffff" opacity="1.00" d=" M 0.00 0.00 L 60.00 0.00 L 60.00 49.22 C 59.21 48.36 58.23 47.96 57.06 48.02 C 50.99 47.92 44.91 48.05 38.83 47.99 C 40.53 46.27 42.40 44.69 43.84 42.73 C 44.74 40.79 42.06 39.07 40.66 40.62 C 37.73 43.38 34.77 46.15 32.18 49.24 C 32.18 49.62 32.19 50.39 32.19 50.77 C 34.98 54.08 38.18 57.03 41.32 60.00 L 0.00 60.00 L 0.00 0.00 M 10.30 8.40 C 6.78 10.27 8.22 14.88 8.07 18.08 C 8.01 20.19 10.49 20.03 11.95 20.01 C 24.94 19.86 37.95 20.26 50.91 19.82 C 52.88 18.18 51.71 15.16 52.01 12.94 C 52.33 10.58 50.61 7.91 48.05 8.04 C 37.03 7.92 25.99 8.06 14.96 7.98 C 13.42 8.08 11.75 7.76 10.30 8.40 M 9.02 24.19 C 6.94 26.85 8.36 30.87 8.07 34.06 C 7.98 36.20 10.54 36.03 12.00 36.01 C 24.98 35.85 37.99 36.27 50.95 35.80 C 53.09 33.17 51.65 29.07 51.91 25.86 C 51.96 23.77 49.44 23.99 48.00 23.99 C 35.01 24.14 21.99 23.74 9.02 24.19 M 7.97 43.93 C 7.93 46.76 7.42 50.98 11.01 51.86 C 16.72 52.21 22.45 51.89 28.17 52.01 C 26.87 46.48 32.47 43.55 35.51 40.01 C 26.99 40.05 18.46 39.90 9.93 40.07 C 7.85 39.94 7.96 42.50 7.97 43.93 Z" />
<path fill="#ffffff" opacity="1.00" d=" M 56.00 52.01 C 57.41 52.11 58.77 51.77 60.00 51.07 L 60.00 60.00 L 42.90 60.00 C 43.20 59.50 43.80 58.49 44.11 57.98 C 42.95 55.55 40.66 53.93 38.85 52.00 C 44.57 51.97 50.28 52.03 56.00 52.01 Z" />
</g>
<g id="#000000ff">
<path fill="#000000" opacity="1.00" d=" M 10.30 8.40 C 11.75 7.76 13.42 8.08 14.96 7.98 C 25.99 8.06 37.03 7.92 48.05 8.04 C 50.61 7.91 52.33 10.58 52.01 12.94 C 51.71 15.16 52.88 18.18 50.91 19.82 C 37.95 20.26 24.94 19.86 11.95 20.01 C 10.49 20.03 8.01 20.19 8.07 18.08 C 8.22 14.88 6.78 10.27 10.30 8.40 Z" />
<path fill="#000000" opacity="1.00" d=" M 9.02 24.19 C 21.99 23.74 35.01 24.14 48.00 23.99 C 49.44 23.99 51.96 23.77 51.91 25.86 C 51.65 29.07 53.09 33.17 50.95 35.80 C 37.99 36.27 24.98 35.85 12.00 36.01 C 10.54 36.03 7.98 36.20 8.07 34.06 C 8.36 30.87 6.94 26.85 9.02 24.19 Z" />
<path fill="#000000" opacity="1.00" d=" M 7.97 43.93 C 7.96 42.50 7.85 39.94 9.93 40.07 C 18.46 39.90 26.99 40.05 35.51 40.01 C 32.47 43.55 26.87 46.48 28.17 52.01 C 22.45 51.89 16.72 52.21 11.01 51.86 C 7.42 50.98 7.93 46.76 7.97 43.93 Z" />
<path fill="#000000" opacity="1.00" d=" M 40.66 40.62 C 42.06 39.07 44.74 40.79 43.84 42.73 C 42.40 44.69 40.53 46.27 38.83 47.99 C 44.91 48.05 50.99 47.92 57.06 48.02 C 58.23 47.96 59.21 48.36 60.00 49.22 L 60.00 51.07 C 58.77 51.77 57.41 52.11 56.00 52.01 C 50.28 52.03 44.57 51.97 38.85 52.00 C 40.66 53.93 42.95 55.55 44.11 57.98 C 43.80 58.49 43.20 59.50 42.90 60.00 L 41.32 60.00 C 38.18 57.03 34.98 54.08 32.19 50.77 C 32.19 50.39 32.18 49.62 32.18 49.24 C 34.77 46.15 37.73 43.38 40.66 40.62 Z" />
</g>
</svg>
