<?xml version="1.0" encoding="UTF-8" ?>
<!DOCTYPE svg PUBLIC "-//W3C//DTD SVG 1.1//EN" "http://www.w3.org/Graphics/SVG/1.1/DTD/svg11.dtd">
<svg width="64pt" height="64pt" viewBox="0 0 64 64" version="1.1" xmlns="http://www.w3.org/2000/svg">
<g id="#ffffffff">
<path fill="#ffffff" opacity="1.00" d=" M 0.00 0.00 L 64.00 0.00 L 64.00 64.00 L 0.00 64.00 L 0.00 0.00 M 12.00 7.99 C 11.99 24.00 11.99 40.00 12.01 56.00 C 25.34 56.00 38.66 56.00 52.00 56.01 C 52.01 40.00 52.01 24.00 51.99 8.00 C 38.66 8.00 25.33 8.00 12.00 7.99 Z" />
<path fill="#ffffff" opacity="1.00" d=" M 16.00 12.00 C 26.67 12.00 37.33 12.00 48.00 12.00 C 48.00 14.50 48.00 19.50 48.00 22.00 C 37.33 22.00 26.67 22.00 16.00 22.00 C 16.00 19.50 16.00 14.50 16.00 12.00 Z" />
<path fill="#ffffff" opacity="1.00" d=" M 16.00 26.00 C 26.67 26.00 37.33 26.00 48.00 26.00 C 48.00 30.00 48.00 34.00 48.00 38.00 C 37.33 38.00 26.67 38.00 16.00 38.00 C 16.00 34.00 16.00 30.00 16.00 26.00 Z" />
<path fill="#ffffff" opacity="1.00" d=" M 16.00 42.00 C 26.67 42.00 37.33 42.00 48.00 42.00 C 48.00 44.50 48.00 49.50 48.00 52.00 C 37.33 52.00 26.67 52.00 16.00 52.00 C 16.00 49.50 16.00 44.50 16.00 42.00 Z" />
</g>
<g id="#000000ff">
<path fill="#000000" opacity="1.00" d=" M 12.00 7.99 C 25.33 8.00 38.66 8.00 51.99 8.00 C 52.01 24.00 52.01 40.00 52.00 56.01 C 38.66 56.00 25.34 56.00 12.01 56.00 C 11.99 40.00 11.99 24.00 12.00 7.99 M 16.00 12.00 C 16.00 14.50 16.00 19.50 16.00 22.00 C 26.67 22.00 37.33 22.00 48.00 22.00 C 48.00 19.50 48.00 14.50 48.00 12.00 C 37.33 12.00 26.67 12.00 16.00 12.00 M 16.00 26.00 C 16.00 30.00 16.00 34.00 16.00 38.00 C 26.67 38.00 37.33 38.00 48.00 38.00 C 48.00 34.00 48.00 30.00 48.00 26.00 C 37.33 26.00 26.67 26.00 16.00 26.00 M 16.00 42.00 C 16.00 44.50 16.00 49.50 16.00 52.00 C 26.67 52.00 37.33 52.00 48.00 52.00 C 48.00 49.50 48.00 44.50 48.00 42.00 C 37.33 42.00 26.67 42.00 16.00 42.00 Z" />
</g>
</svg>
