<?xml version="1.0" encoding="UTF-8" ?>
<!DOCTYPE svg PUBLIC "-//W3C//DTD SVG 1.1//EN" "http://www.w3.org/Graphics/SVG/1.1/DTD/svg11.dtd">
<svg width="60pt" height="60pt" viewBox="0 0 60 60" version="1.1" xmlns="http://www.w3.org/2000/svg">
<g id="#ffffffff">
<path fill="#ffffff" opacity="1.00" d=" M 0.00 0.00 L 60.00 0.00 L 60.00 45.46 C 57.05 44.29 57.51 41.34 58.07 38.84 C 55.97 38.26 53.67 37.72 53.56 35.13 C 53.64 32.80 51.19 34.60 50.01 34.36 C 48.06 34.83 47.24 31.91 45.39 32.05 C 45.03 32.53 44.33 33.51 43.98 33.99 C 43.48 34.15 42.48 34.46 41.98 34.61 C 40.82 34.21 38.45 32.76 38.43 35.14 C 38.20 37.05 37.01 38.20 35.12 38.44 C 32.62 38.54 34.28 41.00 34.83 42.15 C 33.92 43.46 32.91 44.70 32.01 46.02 C 34.33 47.89 34.81 50.40 33.93 53.16 C 36.02 53.72 38.30 54.28 38.43 56.85 C 38.53 59.40 41.01 57.68 42.17 57.15 C 43.46 57.89 44.59 58.85 45.53 60.00 L 0.00 60.00 L 0.00 0.00 M 48.08 5.11 C 33.76 19.42 19.43 33.73 5.12 48.06 C 3.84 48.97 3.50 51.15 5.20 51.83 C 10.46 52.25 15.76 51.87 21.04 52.00 C 24.08 51.91 27.23 52.42 30.15 51.38 C 27.77 48.61 27.13 44.53 29.52 41.56 C 29.04 38.28 30.91 35.21 33.91 33.90 C 35.20 30.90 38.28 29.08 41.55 29.51 C 44.51 27.19 48.70 27.67 51.36 30.22 C 52.42 27.27 51.91 24.11 52.00 21.06 C 51.87 15.76 52.27 10.44 51.82 5.15 C 51.11 3.53 48.97 3.84 48.08 5.11 Z" />
<path fill="#ffffff" opacity="1.00" d=" M 43.30 38.49 C 47.29 36.92 52.20 39.27 53.52 43.34 C 55.06 47.32 52.71 52.19 48.67 53.51 C 44.69 55.07 39.81 52.72 38.48 48.68 C 36.95 44.70 39.25 39.81 43.30 38.49 M 45.18 44.10 C 42.82 45.14 44.44 48.97 46.80 47.81 C 49.21 46.85 47.53 43.10 45.18 44.10 Z" />
<path fill="#ffffff" opacity="1.00" d=" M 58.07 53.16 C 57.37 50.54 57.30 47.83 60.00 46.35 L 60.00 60.00 L 46.84 60.00 C 47.11 59.41 47.64 58.23 47.90 57.63 C 49.66 57.67 51.40 57.93 53.15 58.02 C 53.52 55.18 55.22 53.50 58.07 53.16 Z" />
</g>
<g id="#000000ff">
<path fill="#000000" opacity="1.00" d=" M 48.08 5.11 C 48.97 3.84 51.11 3.53 51.82 5.15 C 52.27 10.44 51.87 15.76 52.00 21.06 C 51.91 24.11 52.42 27.27 51.36 30.22 C 48.70 27.67 44.51 27.19 41.55 29.51 C 38.28 29.08 35.20 30.90 33.91 33.90 C 30.91 35.21 29.04 38.28 29.52 41.56 C 27.13 44.53 27.77 48.61 30.15 51.38 C 27.23 52.42 24.08 51.91 21.04 52.00 C 15.76 51.87 10.46 52.25 5.20 51.83 C 3.50 51.15 3.84 48.97 5.12 48.06 C 19.43 33.73 33.76 19.42 48.08 5.11 Z" />
<path fill="#000000" opacity="1.00" d=" M 45.39 32.05 C 47.24 31.91 48.06 34.83 50.01 34.36 C 51.19 34.60 53.64 32.80 53.56 35.13 C 53.67 37.72 55.97 38.26 58.07 38.84 C 57.51 41.34 57.05 44.29 60.00 45.46 L 60.00 46.35 C 57.30 47.83 57.37 50.54 58.07 53.16 C 55.22 53.50 53.52 55.18 53.15 58.02 C 51.40 57.93 49.66 57.67 47.90 57.63 C 47.64 58.23 47.11 59.41 46.84 60.00 L 45.53 60.00 C 44.59 58.85 43.46 57.89 42.17 57.15 C 41.01 57.68 38.53 59.40 38.43 56.85 C 38.30 54.28 36.02 53.72 33.93 53.16 C 34.81 50.40 34.33 47.89 32.01 46.02 C 32.91 44.70 33.92 43.46 34.83 42.15 C 34.28 41.00 32.62 38.54 35.12 38.44 C 37.01 38.20 38.20 37.05 38.43 35.14 C 38.45 32.76 40.82 34.21 41.98 34.61 C 42.48 34.46 43.48 34.15 43.98 33.99 C 44.33 33.51 45.03 32.53 45.39 32.05 M 43.30 38.49 C 39.25 39.81 36.95 44.70 38.48 48.68 C 39.81 52.72 44.69 55.07 48.67 53.51 C 52.71 52.19 55.06 47.32 53.52 43.34 C 52.20 39.27 47.29 36.92 43.30 38.49 Z" />
<path fill="#000000" opacity="1.00" d=" M 45.18 44.10 C 47.53 43.10 49.21 46.85 46.80 47.81 C 44.44 48.97 42.82 45.14 45.18 44.10 Z" />
</g>
</svg>
