<?xml version="1.0" encoding="UTF-8" ?>
<!DOCTYPE svg PUBLIC "-//W3C//DTD SVG 1.1//EN" "http://www.w3.org/Graphics/SVG/1.1/DTD/svg11.dtd">
<svg width="60pt" height="60pt" viewBox="0 0 60 60" version="1.1" xmlns="http://www.w3.org/2000/svg">
<g id="#ffffffff">
<path fill="#ffffff" opacity="1.00" d=" M 0.00 0.00 L 60.00 0.00 L 60.00 60.00 L 0.00 60.00 L 0.00 0.00 M 13.47 4.56 C 9.47 6.22 8.81 12.27 12.35 14.75 C 15.64 17.53 21.31 15.34 21.89 11.07 C 22.96 6.52 17.61 2.38 13.47 4.56 M 39.28 13.69 C 41.70 17.17 48.35 16.66 49.18 12.12 C 50.30 15.34 52.42 18.24 56.18 18.19 C 55.70 16.37 55.65 14.11 53.88 12.98 C 52.59 12.27 51.11 12.13 49.70 11.81 C 51.18 7.68 47.17 3.14 42.92 4.11 C 38.63 4.69 36.45 10.40 39.28 13.69 M 7.36 24.47 C 6.23 28.95 4.90 33.41 4.09 37.96 C 3.63 40.01 7.20 40.84 7.74 38.81 C 8.74 36.12 9.11 33.25 9.75 30.46 C 10.30 37.66 9.77 44.87 10.08 52.07 C 9.96 54.11 13.10 54.72 13.89 52.89 C 14.69 47.95 14.52 42.90 15.18 37.94 C 15.59 38.06 16.41 38.31 16.82 38.44 C 17.62 43.19 17.23 48.07 18.10 52.81 C 18.81 54.79 22.08 54.09 21.92 52.02 C 22.08 44.53 22.04 37.03 21.91 29.54 C 24.02 32.33 26.91 34.54 30.03 36.08 C 32.15 35.19 33.85 33.58 35.69 32.24 C 35.14 35.08 34.07 37.87 34.12 40.79 C 34.87 42.24 36.69 41.84 38.01 42.17 C 38.07 45.72 37.78 49.29 38.19 52.82 C 38.87 54.31 41.16 54.40 41.88 52.90 C 42.53 49.35 42.52 45.71 42.71 42.12 C 43.34 42.07 44.58 41.98 45.20 41.94 C 45.50 45.60 45.48 49.29 46.11 52.92 C 46.85 54.38 49.01 54.29 49.79 52.90 C 50.25 49.35 49.92 45.75 49.99 42.17 C 51.38 41.91 54.16 42.15 53.90 39.98 C 53.12 34.96 51.81 30.02 50.67 25.07 C 49.20 18.93 39.21 17.97 36.65 23.77 C 35.09 26.89 33.05 29.73 30.00 31.55 C 26.38 29.56 24.61 25.88 22.52 22.53 C 20.42 19.33 16.15 19.97 12.88 20.04 C 10.30 20.05 7.96 21.98 7.36 24.47 Z" />
</g>
<g id="#000000ff">
<path fill="#000000" opacity="1.00" d=" M 13.47 4.56 C 17.61 2.38 22.96 6.52 21.89 11.07 C 21.31 15.34 15.64 17.53 12.35 14.75 C 8.81 12.27 9.47 6.22 13.47 4.56 Z" />
<path fill="#000000" opacity="1.00" d=" M 39.28 13.69 C 36.45 10.40 38.63 4.69 42.92 4.11 C 47.17 3.14 51.18 7.68 49.70 11.81 C 51.11 12.13 52.59 12.27 53.88 12.98 C 55.65 14.11 55.70 16.37 56.18 18.19 C 52.42 18.24 50.30 15.34 49.18 12.12 C 48.35 16.66 41.70 17.17 39.28 13.69 Z" />
<path fill="#000000" opacity="1.00" d=" M 7.36 24.47 C 7.96 21.98 10.30 20.05 12.88 20.04 C 16.15 19.97 20.42 19.33 22.52 22.53 C 24.61 25.88 26.38 29.56 30.00 31.55 C 33.05 29.73 35.09 26.89 36.65 23.77 C 39.21 17.97 49.20 18.93 50.67 25.07 C 51.81 30.02 53.12 34.96 53.90 39.98 C 54.16 42.15 51.38 41.91 49.99 42.17 C 49.92 45.75 50.25 49.35 49.79 52.90 C 49.01 54.29 46.85 54.38 46.11 52.92 C 45.48 49.29 45.50 45.60 45.20 41.94 C 44.58 41.98 43.34 42.07 42.71 42.12 C 42.52 45.71 42.53 49.35 41.88 52.90 C 41.16 54.40 38.87 54.31 38.19 52.82 C 37.78 49.29 38.07 45.72 38.01 42.17 C 36.69 41.84 34.87 42.24 34.12 40.79 C 34.07 37.87 35.14 35.08 35.69 32.24 C 33.85 33.58 32.15 35.19 30.03 36.08 C 26.91 34.54 24.02 32.33 21.91 29.54 C 22.04 37.03 22.08 44.53 21.92 52.02 C 22.08 54.09 18.81 54.79 18.10 52.81 C 17.23 48.07 17.62 43.19 16.82 38.44 C 16.41 38.31 15.59 38.06 15.18 37.94 C 14.52 42.90 14.69 47.95 13.89 52.89 C 13.10 54.72 9.96 54.11 10.08 52.07 C 9.77 44.87 10.30 37.66 9.75 30.46 C 9.11 33.25 8.74 36.12 7.74 38.81 C 7.20 40.84 3.63 40.01 4.09 37.96 C 4.90 33.41 6.23 28.95 7.36 24.47 Z" />
</g>
</svg>
