<?xml version="1.0" encoding="UTF-8" ?>
<!DOCTYPE svg PUBLIC "-//W3C//DTD SVG 1.1//EN" "http://www.w3.org/Graphics/SVG/1.1/DTD/svg11.dtd">
<svg width="64pt" height="64pt" viewBox="0 0 64 64" version="1.1" xmlns="http://www.w3.org/2000/svg">
<g id="#ffffffff">
<path fill="#ffffff" opacity="1.00" d=" M 0.00 0.00 L 64.00 0.00 L 64.00 64.00 L 0.00 64.00 L 0.00 0.00 M 19.94 17.64 C 16.67 16.33 13.36 15.11 10.06 13.87 C 8.74 17.58 7.42 21.29 6.09 24.99 C 10.40 26.50 14.53 28.56 18.95 29.69 C 22.81 30.57 26.62 28.90 29.43 26.34 C 32.27 23.56 36.46 24.13 40.08 23.97 C 40.08 22.64 40.09 21.30 40.09 19.97 C 36.32 20.16 32.14 19.63 28.85 21.87 C 26.37 23.40 24.23 26.13 21.03 25.88 C 17.54 25.59 14.44 23.77 11.18 22.66 C 11.60 21.46 12.02 20.26 12.44 19.06 C 15.04 20.05 17.64 21.04 20.23 22.04 C 24.95 19.42 29.71 16.87 34.42 14.23 C 42.09 17.28 49.68 20.55 57.32 23.68 C 57.83 22.45 58.34 21.22 58.85 19.99 C 50.66 16.55 42.43 13.21 34.25 9.77 C 29.49 12.40 24.71 15.02 19.94 17.64 M 39.54 29.08 C 38.34 28.61 37.12 28.17 35.90 27.76 C 35.95 29.41 36.03 31.07 36.54 32.66 C 32.82 33.70 30.18 36.63 28.12 39.73 C 25.01 40.25 21.89 42.53 22.00 45.98 C 21.83 49.06 24.59 50.86 27.08 51.89 C 28.79 54.18 30.87 56.37 33.75 57.09 C 40.34 59.02 48.97 58.26 52.91 51.89 C 55.38 50.86 58.11 49.10 57.99 46.06 C 58.14 42.58 55.01 40.25 51.87 39.73 C 49.62 36.04 46.18 33.28 42.08 31.91 C 43.29 30.99 44.60 30.21 46.01 29.63 C 46.00 28.33 45.98 27.04 45.95 25.74 C 43.52 26.22 41.33 27.37 39.54 29.08 Z" />
<path fill="#ffffff" opacity="1.00" d=" M 30.45 43.86 C 32.21 40.03 35.41 36.08 40.00 36.01 C 44.58 36.08 47.78 40.02 49.54 43.86 C 51.22 44.10 53.86 43.67 54.08 46.01 C 53.92 48.01 51.74 47.91 50.27 48.19 C 49.23 50.66 47.39 52.89 44.63 53.41 C 39.36 54.75 31.77 54.25 29.73 48.19 C 28.29 47.90 25.99 48.02 25.95 45.98 C 26.12 43.64 28.82 44.11 30.45 43.86 M 35.08 42.10 C 32.88 43.28 34.49 46.93 36.75 45.81 C 39.29 44.87 37.49 41.07 35.08 42.10 M 43.16 42.08 C 40.89 43.25 42.41 46.86 44.81 45.89 C 47.14 44.79 45.59 41.14 43.16 42.08 Z" />
</g>
<g id="#000000ff">
<path fill="#000000" opacity="1.00" d=" M 19.94 17.64 C 24.71 15.02 29.49 12.40 34.25 9.77 C 42.43 13.21 50.66 16.55 58.85 19.99 C 58.34 21.22 57.83 22.45 57.32 23.68 C 49.68 20.55 42.09 17.28 34.42 14.23 C 29.71 16.87 24.95 19.42 20.23 22.04 C 17.64 21.04 15.04 20.05 12.44 19.06 C 12.02 20.26 11.60 21.46 11.18 22.66 C 14.44 23.77 17.54 25.59 21.03 25.88 C 24.23 26.13 26.37 23.40 28.85 21.87 C 32.14 19.63 36.32 20.16 40.09 19.97 C 40.09 21.30 40.08 22.64 40.08 23.97 C 36.46 24.13 32.27 23.56 29.43 26.34 C 26.62 28.90 22.81 30.57 18.95 29.69 C 14.53 28.56 10.40 26.50 6.09 24.99 C 7.42 21.29 8.74 17.58 10.06 13.87 C 13.36 15.11 16.67 16.33 19.94 17.64 Z" />
<path fill="#000000" opacity="1.00" d=" M 39.54 29.08 C 41.33 27.37 43.52 26.22 45.95 25.74 C 45.98 27.04 46.00 28.33 46.01 29.63 C 44.60 30.21 43.29 30.99 42.08 31.91 C 46.18 33.28 49.62 36.04 51.87 39.73 C 55.01 40.25 58.14 42.58 57.99 46.06 C 58.11 49.10 55.38 50.86 52.91 51.89 C 48.97 58.26 40.34 59.02 33.75 57.09 C 30.87 56.37 28.79 54.18 27.08 51.89 C 24.59 50.86 21.83 49.06 22.00 45.98 C 21.89 42.53 25.01 40.25 28.12 39.73 C 30.18 36.63 32.82 33.70 36.54 32.66 C 36.03 31.07 35.95 29.41 35.90 27.76 C 37.12 28.17 38.34 28.61 39.54 29.08 M 30.45 43.86 C 28.82 44.11 26.12 43.64 25.95 45.98 C 25.99 48.02 28.29 47.90 29.73 48.19 C 31.77 54.25 39.36 54.75 44.63 53.41 C 47.39 52.89 49.23 50.66 50.27 48.19 C 51.74 47.91 53.92 48.01 54.08 46.01 C 53.86 43.67 51.22 44.10 49.54 43.86 C 47.78 40.02 44.58 36.08 40.00 36.01 C 35.41 36.08 32.21 40.03 30.45 43.86 Z" />
<path fill="#000000" opacity="1.00" d=" M 35.08 42.10 C 37.49 41.07 39.29 44.87 36.75 45.81 C 34.49 46.93 32.88 43.28 35.08 42.10 Z" />
<path fill="#000000" opacity="1.00" d=" M 43.16 42.08 C 45.59 41.14 47.14 44.79 44.81 45.89 C 42.41 46.86 40.89 43.25 43.16 42.08 Z" />
</g>
</svg>
