<?xml version="1.0" encoding="UTF-8" ?>
<!DOCTYPE svg PUBLIC "-//W3C//DTD SVG 1.1//EN" "http://www.w3.org/Graphics/SVG/1.1/DTD/svg11.dtd">
<svg width="200pt" height="200pt" viewBox="0 0 200 200" version="1.1" xmlns="http://www.w3.org/2000/svg">
<g id="#ffffffff">
<path fill="#ffffff" opacity="1.00" d=" M 0.00 0.00 L 200.00 0.00 L 200.00 200.00 L 0.00 200.00 L 0.00 0.00 M 96.01 36.49 C 95.98 47.06 96.01 57.62 95.99 68.18 C 90.32 68.97 84.90 71.22 80.33 74.67 C 72.87 67.20 65.40 59.73 57.92 52.27 C 56.03 54.15 54.15 56.03 52.27 57.92 C 59.73 65.40 67.19 72.87 74.68 80.33 C 71.22 84.90 68.97 90.32 68.18 95.99 C 57.62 96.01 47.06 95.98 36.49 96.01 C 36.50 98.67 36.50 101.33 36.49 103.99 C 47.06 104.02 57.62 103.99 68.18 104.01 C 68.97 109.68 71.22 115.09 74.68 119.65 C 67.20 127.12 59.73 134.59 52.27 142.06 C 54.15 143.95 56.03 145.84 57.92 147.72 C 65.40 140.25 72.87 132.78 80.34 125.30 C 84.91 128.75 90.32 131.01 95.99 131.80 C 96.01 142.37 95.98 152.94 96.01 163.51 C 98.67 163.51 101.34 163.50 104.00 163.50 C 104.00 152.93 103.99 142.36 104.01 131.80 C 109.68 131.00 115.08 128.74 119.65 125.30 C 127.11 132.79 134.59 140.25 142.06 147.72 C 143.95 145.84 145.84 143.95 147.72 142.06 C 140.26 134.58 132.77 127.12 125.31 119.64 C 128.76 115.08 130.99 109.67 131.80 104.01 C 142.36 103.99 152.93 104.00 163.50 104.00 C 163.50 101.33 163.50 98.67 163.50 96.00 C 152.93 96.00 142.36 96.01 131.80 96.00 C 131.01 90.32 128.76 84.91 125.30 80.34 C 132.78 72.87 140.25 65.40 147.72 57.92 C 145.84 56.03 143.95 54.15 142.06 52.27 C 134.59 59.73 127.12 67.20 119.65 74.68 C 115.09 71.22 109.68 68.97 104.01 68.18 C 103.99 57.62 104.01 47.06 103.99 36.49 C 101.33 36.50 98.67 36.50 96.01 36.49 Z" />
</g>
<g id="#000000ff">
<path fill="#968176" opacity="1.00" d=" M 96.01 36.49 C 98.67 36.50 101.33 36.50 103.99 36.49 C 104.01 47.06 103.99 57.62 104.01 68.18 C 109.68 68.97 115.09 71.22 119.65 74.68 C 127.12 67.20 134.59 59.73 142.06 52.27 C 143.95 54.15 145.84 56.03 147.72 57.92 C 140.25 65.40 132.78 72.87 125.30 80.34 C 128.76 84.91 131.01 90.32 131.80 96.00 C 142.36 96.01 152.93 96.00 163.50 96.00 C 163.50 98.67 163.50 101.33 163.50 104.00 C 152.93 104.00 142.36 103.99 131.80 104.01 C 130.99 109.67 128.76 115.08 125.31 119.64 C 132.77 127.12 140.26 134.58 147.72 142.06 C 145.84 143.95 143.95 145.84 142.06 147.72 C 134.59 140.25 127.11 132.79 119.65 125.30 C 115.08 128.74 109.68 131.00 104.01 131.80 C 103.99 142.36 104.00 152.93 104.00 163.50 C 101.34 163.50 98.67 163.51 96.01 163.51 C 95.98 152.94 96.01 142.37 95.99 131.80 C 90.32 131.01 84.91 128.75 80.34 125.30 C 72.87 132.78 65.40 140.25 57.92 147.72 C 56.03 145.84 54.15 143.95 52.27 142.06 C 59.73 134.59 67.20 127.12 74.68 119.65 C 71.22 115.09 68.97 109.68 68.18 104.01 C 57.62 103.99 47.06 104.02 36.49 103.99 C 36.50 101.33 36.50 98.67 36.49 96.01 C 47.06 95.98 57.62 96.01 68.18 95.99 C 68.97 90.32 71.22 84.90 74.68 80.33 C 67.19 72.87 59.73 65.40 52.27 57.92 C 54.15 56.03 56.03 54.15 57.92 52.27 C 65.40 59.73 72.87 67.20 80.33 74.67 C 84.90 71.22 90.32 68.97 95.99 68.18 C 96.01 57.62 95.98 47.06 96.01 36.49 Z" />
</g>
</svg>
