<?xml version="1.0" encoding="UTF-8" ?>
<!DOCTYPE svg PUBLIC "-//W3C//DTD SVG 1.1//EN" "http://www.w3.org/Graphics/SVG/1.1/DTD/svg11.dtd">
<svg width="60pt" height="60pt" viewBox="0 0 60 60" version="1.1" xmlns="http://www.w3.org/2000/svg">
<g id="#ffffffff">
<path fill="#ffffff" opacity="1.00" d=" M 0.00 0.00 L 60.00 0.00 L 60.00 60.00 L 0.00 60.00 L 0.00 0.00 M 6.25 5.29 C 4.34 6.52 4.92 9.08 4.77 10.99 C 4.88 24.67 4.66 38.36 4.87 52.04 C 4.71 54.31 7.06 55.44 9.03 55.20 C 23.36 55.17 37.70 55.31 52.03 55.13 C 54.25 55.28 55.44 53.01 55.19 51.06 C 55.18 36.71 55.31 22.35 55.13 8.00 C 55.31 5.75 53.01 4.54 51.03 4.80 C 37.68 4.75 24.33 4.84 10.97 4.77 C 9.40 4.85 7.73 4.62 6.25 5.29 Z" />
<path fill="#ffffff" opacity="1.00" d=" M 7.27 7.29 C 22.42 7.16 37.58 7.15 52.74 7.30 C 52.83 22.43 52.82 37.57 52.74 52.70 C 37.58 52.85 22.42 52.85 7.27 52.70 C 7.18 37.57 7.16 22.43 7.27 7.29 M 19.06 22.91 C 18.97 27.31 18.98 31.71 19.04 36.11 C 21.13 35.95 23.79 36.16 24.99 34.03 C 26.54 31.33 26.56 27.71 25.17 24.95 C 24.00 22.66 21.20 22.99 19.06 22.91 M 27.16 22.90 C 27.15 27.29 27.14 31.68 27.17 36.07 C 29.06 35.87 31.35 36.34 32.78 34.78 C 34.20 32.99 33.78 30.50 32.47 28.78 C 33.07 27.29 33.96 25.71 32.99 24.15 C 31.60 22.34 29.12 23.01 27.16 22.90 M 34.64 25.57 C 35.55 25.39 37.38 25.03 38.29 24.86 C 39.70 29.23 35.61 32.32 34.14 36.01 C 36.49 36.04 38.85 36.00 41.20 35.90 C 41.13 33.63 38.83 34.28 37.28 34.07 C 39.01 31.49 41.43 28.43 40.24 25.14 C 39.50 22.67 34.85 22.69 34.64 25.57 Z" />
<path fill="#ffffff" opacity="1.00" d=" M 20.99 24.28 C 25.55 25.49 25.17 33.19 21.04 34.76 C 20.90 31.26 20.93 27.77 20.99 24.28 Z" />
<path fill="#ffffff" opacity="1.00" d=" M 29.46 25.09 C 31.05 23.74 32.06 26.87 30.84 27.78 C 29.24 29.02 28.28 26.02 29.46 25.09 Z" />
<path fill="#ffffff" opacity="1.00" d=" M 29.26 29.53 C 30.22 30.17 32.10 30.44 31.90 31.99 C 32.38 33.64 30.36 34.07 29.40 34.82 C 29.31 33.06 29.26 31.29 29.26 29.53 Z" />
</g>
<g id="#0b0b0bff">
<path fill="#0b0b0b" opacity="1.00" d=" M 6.25 5.29 C 7.73 4.62 9.40 4.85 10.97 4.77 C 24.33 4.84 37.68 4.75 51.03 4.80 C 53.01 4.54 55.31 5.75 55.13 8.00 C 55.31 22.35 55.18 36.71 55.19 51.06 C 55.44 53.01 54.25 55.28 52.03 55.13 C 37.70 55.31 23.36 55.17 9.03 55.20 C 7.06 55.44 4.71 54.31 4.87 52.04 C 4.66 38.36 4.88 24.67 4.77 10.99 C 4.92 9.08 4.34 6.52 6.25 5.29 M 7.27 7.29 C 7.16 22.43 7.18 37.57 7.27 52.70 C 22.42 52.85 37.58 52.85 52.74 52.70 C 52.82 37.57 52.83 22.43 52.74 7.30 C 37.58 7.15 22.42 7.16 7.27 7.29 Z" />
<path fill="#0b0b0b" opacity="1.00" d=" M 19.06 22.91 C 21.20 22.99 24.00 22.66 25.17 24.95 C 26.56 27.71 26.54 31.33 24.99 34.03 C 23.79 36.16 21.13 35.95 19.04 36.11 C 18.98 31.71 18.97 27.31 19.06 22.91 M 20.99 24.28 C 20.93 27.77 20.90 31.26 21.04 34.76 C 25.17 33.19 25.55 25.49 20.99 24.28 Z" />
<path fill="#0b0b0b" opacity="1.00" d=" M 27.16 22.90 C 29.12 23.01 31.60 22.34 32.99 24.15 C 33.96 25.71 33.07 27.29 32.47 28.78 C 33.78 30.50 34.20 32.99 32.78 34.78 C 31.35 36.34 29.06 35.87 27.17 36.07 C 27.14 31.68 27.15 27.29 27.16 22.90 M 29.46 25.09 C 28.28 26.02 29.24 29.02 30.84 27.78 C 32.06 26.87 31.05 23.74 29.46 25.09 M 29.26 29.53 C 29.26 31.29 29.31 33.06 29.40 34.82 C 30.36 34.07 32.38 33.64 31.90 31.99 C 32.10 30.44 30.22 30.17 29.26 29.53 Z" />
<path fill="#0b0b0b" opacity="1.00" d=" M 34.64 25.57 C 34.85 22.69 39.50 22.67 40.24 25.14 C 41.43 28.43 39.01 31.49 37.28 34.07 C 38.83 34.28 41.13 33.63 41.20 35.90 C 38.85 36.00 36.49 36.04 34.14 36.01 C 35.61 32.32 39.70 29.23 38.29 24.86 C 37.38 25.03 35.55 25.39 34.64 25.57 Z" />
</g>
</svg>
