<?xml version="1.0" encoding="UTF-8" ?>
<!DOCTYPE svg PUBLIC "-//W3C//DTD SVG 1.1//EN" "http://www.w3.org/Graphics/SVG/1.1/DTD/svg11.dtd">
<svg width="64pt" height="64pt" viewBox="0 0 64 64" version="1.1" xmlns="http://www.w3.org/2000/svg">
<g id="#ffffffff">
<path fill="#ffffff" opacity="1.00" d=" M 0.00 0.00 L 64.00 0.00 L 64.00 14.00 C 42.67 14.00 21.33 14.00 0.00 14.00 L 0.00 0.00 Z" />
<path fill="#ffffff" opacity="1.00" d=" M 4.00 18.00 C 22.67 18.00 41.33 18.00 60.00 18.00 C 60.00 27.33 60.00 36.67 60.00 46.00 C 41.33 46.00 22.67 46.00 4.00 46.00 C 4.00 36.67 4.00 27.33 4.00 18.00 M 16.00 23.94 C 16.00 29.31 16.00 34.69 16.00 40.06 C 19.21 40.04 23.33 40.39 25.13 37.06 C 26.49 34.12 26.30 30.49 25.41 27.44 C 23.82 23.71 19.38 23.88 16.00 23.94 M 28.00 23.97 C 28.00 29.33 28.00 34.68 28.00 40.03 C 31.01 39.81 34.93 40.83 37.00 37.98 C 38.50 36.26 37.85 33.91 37.16 32.00 C 37.85 30.07 38.50 27.72 36.98 25.99 C 34.92 23.15 31.00 24.19 28.00 23.97 M 39.74 30.08 C 41.87 30.04 44.45 30.52 44.87 27.69 C 48.30 31.35 41.95 34.15 39.99 36.78 C 39.99 37.59 40.00 39.20 40.00 40.00 C 43.34 40.00 46.67 40.00 50.00 40.00 C 50.00 38.66 50.00 37.32 50.00 35.98 C 49.17 36.00 47.51 36.03 46.68 36.05 C 50.49 33.47 51.70 26.65 47.00 24.42 C 43.17 22.60 39.62 26.35 39.74 30.08 Z" />
<path fill="#ffffff" opacity="1.00" d=" M 20.11 27.51 C 22.91 29.48 22.92 34.51 20.11 36.49 C 19.95 33.50 19.95 30.50 20.11 27.51 Z" />
<path fill="#ffffff" opacity="1.00" d=" M 32.04 28.14 C 33.64 27.64 34.17 28.21 33.63 29.84 C 32.03 30.37 31.50 29.80 32.04 28.14 Z" />
<path fill="#ffffff" opacity="1.00" d=" M 32.03 34.15 C 33.63 33.63 34.16 34.20 33.64 35.84 C 32.04 36.38 31.51 35.81 32.03 34.15 Z" />
<path fill="#ffffff" opacity="1.00" d=" M 0.00 50.00 C 21.33 50.00 42.67 50.00 64.00 50.00 L 64.00 64.00 L 0.00 64.00 L 0.00 50.00 Z" />
</g>
<g id="#000000ff">
<path fill="#000000" opacity="1.00" d=" M 0.00 14.00 C 21.33 14.00 42.67 14.00 64.00 14.00 L 64.00 50.00 C 42.67 50.00 21.33 50.00 0.00 50.00 L 0.00 14.00 M 4.00 18.00 C 4.00 27.33 4.00 36.67 4.00 46.00 C 22.67 46.00 41.33 46.00 60.00 46.00 C 60.00 36.67 60.00 27.33 60.00 18.00 C 41.33 18.00 22.67 18.00 4.00 18.00 Z" />
<path fill="#000000" opacity="1.00" d=" M 16.00 23.94 C 19.38 23.88 23.82 23.71 25.41 27.44 C 26.30 30.49 26.49 34.12 25.13 37.06 C 23.33 40.39 19.21 40.04 16.00 40.06 C 16.00 34.69 16.00 29.31 16.00 23.94 M 20.11 27.51 C 19.95 30.50 19.95 33.50 20.11 36.49 C 22.92 34.51 22.91 29.48 20.11 27.51 Z" />
<path fill="#000000" opacity="1.00" d=" M 28.00 23.97 C 31.00 24.19 34.92 23.15 36.98 25.99 C 38.50 27.72 37.85 30.07 37.16 32.00 C 37.85 33.91 38.50 36.26 37.00 37.98 C 34.93 40.83 31.01 39.81 28.00 40.03 C 28.00 34.68 28.00 29.33 28.00 23.97 M 32.04 28.14 C 31.50 29.80 32.03 30.37 33.63 29.84 C 34.17 28.21 33.64 27.64 32.04 28.14 M 32.03 34.15 C 31.51 35.81 32.04 36.38 33.64 35.84 C 34.16 34.20 33.63 33.63 32.03 34.15 Z" />
<path fill="#000000" opacity="1.00" d=" M 39.74 30.08 C 39.62 26.35 43.17 22.60 47.00 24.42 C 51.70 26.65 50.49 33.47 46.68 36.05 C 47.51 36.03 49.17 36.00 50.00 35.98 C 50.00 37.32 50.00 38.66 50.00 40.00 C 46.67 40.00 43.34 40.00 40.00 40.00 C 40.00 39.20 39.99 37.59 39.99 36.78 C 41.95 34.15 48.30 31.35 44.87 27.69 C 44.45 30.52 41.87 30.04 39.74 30.08 Z" />
</g>
</svg>
