<?xml version="1.0" encoding="UTF-8" ?>
<!DOCTYPE svg PUBLIC "-//W3C//DTD SVG 1.1//EN" "http://www.w3.org/Graphics/SVG/1.1/DTD/svg11.dtd">
<svg width="64pt" height="64pt" viewBox="0 0 64 64" version="1.1" xmlns="http://www.w3.org/2000/svg">
<g id="#ffffffff">
<path fill="#ffffff" opacity="1.00" d=" M 0.00 0.00 L 64.00 0.00 L 64.00 64.00 L 0.00 64.00 L 0.00 0.00 M 25.45 7.44 C 23.15 10.51 23.89 14.72 26.12 17.61 C 23.30 19.61 20.73 22.36 20.22 25.92 C 19.76 29.93 20.09 33.98 20.00 38.00 C 18.00 38.00 16.00 38.00 14.00 38.00 C 14.00 35.33 14.00 32.67 14.00 30.00 C 12.67 30.00 11.33 30.00 10.00 30.00 C 10.00 32.67 10.00 35.33 10.00 38.00 C 8.67 38.00 7.33 38.00 6.00 38.00 C 6.00 39.33 6.00 40.67 6.00 42.00 C 7.33 42.00 8.67 42.00 10.00 42.00 C 10.00 44.67 10.00 47.33 10.00 50.00 C 11.33 50.00 12.67 50.00 14.00 50.00 C 14.00 47.33 14.00 44.67 14.00 42.00 C 26.00 42.00 38.00 42.00 50.00 42.00 C 50.00 44.67 50.00 47.33 50.00 50.00 C 51.33 50.00 52.67 50.00 54.00 50.00 C 54.00 47.33 54.00 44.67 54.00 42.00 C 55.33 42.00 56.67 42.00 58.00 42.00 C 58.00 40.67 58.00 39.33 58.00 38.00 C 56.67 38.00 55.33 38.00 54.00 38.00 C 54.00 35.33 54.00 32.67 54.00 30.00 C 52.67 30.00 51.33 30.00 50.00 30.00 C 50.00 32.67 50.00 35.33 50.00 38.00 C 48.00 38.00 46.00 38.00 44.00 38.00 C 43.91 33.98 44.24 29.95 43.78 25.95 C 43.28 22.38 40.70 19.62 37.89 17.61 C 40.30 14.54 40.84 9.90 38.09 6.86 C 34.97 2.88 28.19 3.19 25.45 7.44 M 24.00 46.00 C 24.00 50.67 24.00 55.33 24.00 60.00 C 25.33 60.00 26.67 60.00 28.00 60.00 C 28.00 55.33 28.00 50.67 28.00 46.00 C 26.67 46.00 25.33 46.00 24.00 46.00 M 36.00 46.00 C 36.00 50.67 36.00 55.33 36.00 60.00 C 37.33 60.00 38.67 60.00 40.00 60.00 C 40.00 55.33 40.00 50.67 40.00 46.00 C 38.67 46.00 37.33 46.00 36.00 46.00 Z" />
<path fill="#ffffff" opacity="1.00" d=" M 30.32 8.36 C 32.84 7.07 36.16 9.20 36.00 12.04 C 36.13 15.15 32.14 17.18 29.69 15.27 C 27.19 13.69 27.57 9.47 30.32 8.36 Z" />
<path fill="#ffffff" opacity="1.00" d=" M 24.46 25.32 C 26.11 19.92 33.81 18.21 37.64 22.33 C 41.60 26.53 39.47 32.83 40.00 38.00 C 34.67 38.00 29.33 38.00 24.00 38.00 C 24.18 33.78 23.53 29.47 24.46 25.32 Z" />
</g>
<g id="#000000ff">
<path fill="#000000" opacity="1.00" d=" M 25.45 7.44 C 28.19 3.19 34.97 2.88 38.09 6.86 C 40.84 9.90 40.30 14.54 37.89 17.61 C 40.70 19.62 43.28 22.38 43.78 25.95 C 44.24 29.95 43.91 33.98 44.00 38.00 C 46.00 38.00 48.00 38.00 50.00 38.00 C 50.00 35.33 50.00 32.67 50.00 30.00 C 51.33 30.00 52.67 30.00 54.00 30.00 C 54.00 32.67 54.00 35.33 54.00 38.00 C 55.33 38.00 56.67 38.00 58.00 38.00 C 58.00 39.33 58.00 40.67 58.00 42.00 C 56.67 42.00 55.33 42.00 54.00 42.00 C 54.00 44.67 54.00 47.33 54.00 50.00 C 52.67 50.00 51.33 50.00 50.00 50.00 C 50.00 47.33 50.00 44.67 50.00 42.00 C 38.00 42.00 26.00 42.00 14.00 42.00 C 14.00 44.67 14.00 47.33 14.00 50.00 C 12.67 50.00 11.33 50.00 10.00 50.00 C 10.00 47.33 10.00 44.67 10.00 42.00 C 8.67 42.00 7.33 42.00 6.00 42.00 C 6.00 40.67 6.00 39.33 6.00 38.00 C 7.33 38.00 8.67 38.00 10.00 38.00 C 10.00 35.33 10.00 32.67 10.00 30.00 C 11.33 30.00 12.67 30.00 14.00 30.00 C 14.00 32.67 14.00 35.33 14.00 38.00 C 16.00 38.00 18.00 38.00 20.00 38.00 C 20.09 33.98 19.76 29.93 20.22 25.92 C 20.73 22.36 23.30 19.61 26.12 17.61 C 23.89 14.72 23.15 10.51 25.45 7.44 M 30.32 8.36 C 27.57 9.47 27.19 13.69 29.69 15.27 C 32.14 17.18 36.13 15.15 36.00 12.04 C 36.16 9.20 32.84 7.07 30.32 8.36 M 24.46 25.32 C 23.53 29.47 24.18 33.78 24.00 38.00 C 29.33 38.00 34.67 38.00 40.00 38.00 C 39.47 32.83 41.60 26.53 37.64 22.33 C 33.81 18.21 26.11 19.92 24.46 25.32 Z" />
<path fill="#000000" opacity="1.00" d=" M 24.00 46.00 C 25.33 46.00 26.67 46.00 28.00 46.00 C 28.00 50.67 28.00 55.33 28.00 60.00 C 26.67 60.00 25.33 60.00 24.00 60.00 C 24.00 55.33 24.00 50.67 24.00 46.00 Z" />
<path fill="#000000" opacity="1.00" d=" M 36.00 46.00 C 37.33 46.00 38.67 46.00 40.00 46.00 C 40.00 50.67 40.00 55.33 40.00 60.00 C 38.67 60.00 37.33 60.00 36.00 60.00 C 36.00 55.33 36.00 50.67 36.00 46.00 Z" />
</g>
</svg>
