<?xml version="1.0" encoding="UTF-8" ?>
<!DOCTYPE svg PUBLIC "-//W3C//DTD SVG 1.1//EN" "http://www.w3.org/Graphics/SVG/1.1/DTD/svg11.dtd">
<svg width="64pt" height="64pt" viewBox="0 0 64 64" version="1.1" xmlns="http://www.w3.org/2000/svg">
<g id="#ffffffff">
<path fill="#ffffff" opacity="1.00" d=" M 0.00 0.00 L 64.00 0.00 L 64.00 64.00 L 0.00 64.00 L 0.00 0.00 M 36.84 17.00 C 38.66 16.31 40.75 15.61 41.59 13.66 C 42.75 11.81 42.84 8.10 40.08 7.74 C 35.86 7.92 33.09 14.34 36.84 17.00 M 44.37 13.40 C 42.59 14.44 41.62 17.01 43.09 18.72 C 45.60 19.63 48.08 16.87 47.60 14.43 C 47.45 12.81 45.48 12.51 44.37 13.40 M 30.31 18.48 C 24.44 20.98 23.26 28.03 19.75 32.73 C 17.50 36.55 12.59 37.45 10.15 41.09 C 7.99 43.79 7.31 47.74 8.91 50.88 C 10.62 54.66 15.11 56.70 19.11 55.80 C 22.84 55.25 25.53 52.40 27.98 49.79 C 27.99 50.35 28.01 51.45 28.02 52.00 C 33.35 52.00 38.67 52.00 44.00 52.00 C 43.97 46.63 44.05 41.25 43.99 35.88 C 44.30 31.28 38.86 30.02 36.00 27.59 C 33.46 29.45 30.38 30.78 28.44 33.34 C 27.49 36.97 28.22 40.84 27.98 44.56 C 24.61 46.93 22.38 51.26 18.02 51.93 C 14.64 52.71 11.14 49.26 12.16 45.86 C 13.16 41.93 17.39 40.56 20.22 38.22 C 24.68 34.32 26.13 28.27 29.69 23.71 C 31.63 21.15 35.28 21.93 37.79 23.13 C 41.00 24.47 42.47 27.80 44.82 30.15 C 46.41 31.65 46.86 33.85 47.51 35.85 C 50.51 26.00 40.00 15.86 30.31 18.48 M 48.33 18.19 C 47.19 19.10 46.58 20.65 46.92 22.09 C 48.77 23.03 50.53 21.64 51.13 19.91 C 52.30 17.88 49.56 16.79 48.33 18.19 M 51.52 22.70 C 50.32 23.02 48.66 24.95 50.05 25.90 C 52.54 27.76 55.34 21.45 51.52 22.70 M 49.80 30.24 C 51.65 31.05 55.05 27.87 52.14 27.08 C 50.79 27.61 50.29 29.00 49.80 30.24 Z" />
<path fill="#ffffff" opacity="1.00" d=" M 32.00 35.06 C 33.34 34.20 34.67 33.32 36.00 32.43 C 37.33 33.32 38.66 34.20 40.00 35.06 C 40.00 39.37 40.00 43.69 40.00 48.00 C 37.33 48.00 34.67 48.00 32.00 48.00 C 32.00 43.69 32.00 39.37 32.00 35.06 M 35.12 36.12 C 32.91 37.26 34.38 40.81 36.77 39.89 C 39.18 38.86 37.58 35.07 35.12 36.12 Z" />
</g>
<g id="#000000ff">
<path fill="#000000" opacity="1.00" d=" M 36.84 17.00 C 33.09 14.34 35.86 7.92 40.08 7.74 C 42.84 8.10 42.75 11.81 41.59 13.66 C 40.75 15.61 38.66 16.31 36.84 17.00 Z" />
<path fill="#000000" opacity="1.00" d=" M 44.37 13.40 C 45.48 12.51 47.45 12.81 47.60 14.43 C 48.08 16.87 45.60 19.63 43.09 18.72 C 41.62 17.01 42.59 14.44 44.37 13.40 Z" />
<path fill="#000000" opacity="1.00" d=" M 30.31 18.48 C 40.00 15.86 50.51 26.00 47.51 35.85 C 46.86 33.85 46.41 31.65 44.82 30.15 C 42.47 27.80 41.00 24.47 37.79 23.13 C 35.28 21.93 31.63 21.15 29.69 23.71 C 26.13 28.27 24.68 34.32 20.22 38.22 C 17.39 40.56 13.16 41.93 12.16 45.86 C 11.14 49.26 14.64 52.71 18.02 51.93 C 22.38 51.26 24.61 46.93 27.98 44.56 C 28.22 40.84 27.49 36.97 28.44 33.34 C 30.38 30.78 33.46 29.45 36.00 27.59 C 38.86 30.02 44.30 31.28 43.99 35.88 C 44.05 41.25 43.97 46.63 44.00 52.00 C 38.67 52.00 33.35 52.00 28.02 52.00 C 28.01 51.45 27.99 50.35 27.98 49.79 C 25.53 52.40 22.84 55.25 19.11 55.80 C 15.11 56.70 10.62 54.66 8.91 50.88 C 7.31 47.74 7.99 43.79 10.15 41.09 C 12.59 37.45 17.50 36.55 19.75 32.73 C 23.26 28.03 24.44 20.98 30.31 18.48 M 32.00 35.06 C 32.00 39.37 32.00 43.69 32.00 48.00 C 34.67 48.00 37.33 48.00 40.00 48.00 C 40.00 43.69 40.00 39.37 40.00 35.06 C 38.66 34.20 37.33 33.32 36.00 32.43 C 34.67 33.32 33.34 34.20 32.00 35.06 Z" />
<path fill="#000000" opacity="1.00" d=" M 48.33 18.19 C 49.56 16.79 52.30 17.88 51.13 19.91 C 50.53 21.64 48.77 23.03 46.92 22.09 C 46.58 20.65 47.19 19.10 48.33 18.19 Z" />
<path fill="#000000" opacity="1.00" d=" M 51.52 22.70 C 55.34 21.45 52.54 27.76 50.05 25.90 C 48.66 24.95 50.32 23.02 51.52 22.70 Z" />
<path fill="#000000" opacity="1.00" d=" M 49.80 30.24 C 50.29 29.00 50.79 27.61 52.14 27.08 C 55.05 27.87 51.65 31.05 49.80 30.24 Z" />
<path fill="#000000" opacity="1.00" d=" M 35.12 36.12 C 37.58 35.07 39.18 38.86 36.77 39.89 C 34.38 40.81 32.91 37.26 35.12 36.12 Z" />
</g>
</svg>
