<?xml version="1.0" encoding="UTF-8" ?>
<!DOCTYPE svg PUBLIC "-//W3C//DTD SVG 1.1//EN" "http://www.w3.org/Graphics/SVG/1.1/DTD/svg11.dtd">
<svg width="60pt" height="60pt" viewBox="0 0 60 60" version="1.1" xmlns="http://www.w3.org/2000/svg">
<g id="#ffffffff">
<path fill="#ffffff" opacity="1.00" d=" M 0.00 0.00 L 60.00 0.00 L 60.00 60.00 L 0.00 60.00 L 0.00 0.00 M 32.38 4.43 C 32.13 4.64 31.63 5.06 31.39 5.27 C 31.28 8.18 32.22 11.11 31.93 14.07 C 31.60 18.52 37.01 20.06 37.74 24.12 C 39.13 28.24 34.58 31.79 36.29 35.89 C 38.06 40.44 39.69 45.06 41.76 49.48 C 42.67 51.32 46.02 49.92 45.17 47.98 C 43.79 43.17 41.32 38.75 39.93 33.95 C 40.61 30.62 42.78 27.46 41.80 23.90 C 41.39 20.11 38.36 17.62 36.01 14.95 C 35.71 11.89 36.26 8.68 35.02 5.77 C 34.74 4.62 33.46 3.99 32.38 4.43 M 41.60 5.89 C 41.86 8.76 41.37 12.16 43.63 14.35 C 48.43 19.64 49.07 27.57 46.31 33.99 C 47.80 37.78 49.11 41.65 50.81 45.35 C 51.35 47.30 54.17 47.01 54.66 45.15 C 53.73 41.18 51.81 37.53 50.44 33.71 C 53.25 26.76 52.03 18.52 47.25 12.74 C 45.25 10.61 46.21 7.42 45.10 4.92 C 44.33 3.25 41.30 4.02 41.60 5.89 M 18.43 6.71 C 15.21 8.45 15.25 13.63 18.50 15.32 C 21.62 17.35 26.13 14.68 26.01 11.01 C 26.16 7.30 21.56 4.61 18.43 6.71 M 16.57 18.70 C 13.42 20.49 10.14 22.15 7.29 24.39 C 5.22 27.25 7.34 30.86 7.95 33.90 C 7.90 36.05 11.00 36.78 11.84 34.81 C 12.05 32.37 11.23 30.00 10.86 27.62 C 12.06 27.00 13.26 26.37 14.46 25.75 C 15.36 29.78 15.20 34.16 16.97 37.93 C 19.73 40.69 23.95 41.17 27.34 42.90 C 29.17 46.36 30.58 50.06 32.64 53.40 C 33.68 54.85 36.27 53.75 35.96 51.99 C 35.00 48.48 33.38 45.18 32.15 41.75 C 31.17 38.69 28.25 36.99 26.06 34.87 C 25.29 30.54 24.70 26.19 23.81 21.89 C 23.30 18.71 19.27 16.94 16.57 18.70 M 27.09 24.33 C 27.27 25.38 27.61 27.49 27.78 28.54 C 29.55 28.12 32.73 27.82 31.89 25.18 C 30.91 23.36 28.70 24.38 27.09 24.33 M 15.86 42.48 C 14.38 47.03 9.05 47.88 6.22 51.22 C 5.15 53.05 7.90 54.94 9.36 53.46 C 13.48 50.85 18.54 49.07 20.99 44.54 C 19.28 43.85 17.57 43.16 15.86 42.48 Z" />
</g>
<g id="#000000ff">
<path fill="#000000" opacity="1.00" d=" M 32.38 4.43 C 33.46 3.99 34.74 4.62 35.02 5.77 C 36.26 8.68 35.71 11.89 36.01 14.95 C 38.36 17.62 41.39 20.11 41.80 23.90 C 42.78 27.46 40.61 30.62 39.93 33.95 C 41.32 38.75 43.79 43.17 45.17 47.98 C 46.02 49.92 42.67 51.32 41.76 49.48 C 39.69 45.06 38.06 40.44 36.29 35.89 C 34.58 31.79 39.13 28.24 37.74 24.12 C 37.01 20.06 31.60 18.52 31.93 14.07 C 32.22 11.11 31.28 8.18 31.39 5.27 C 31.63 5.06 32.13 4.64 32.38 4.43 Z" />
<path fill="#000000" opacity="1.00" d=" M 41.60 5.89 C 41.30 4.02 44.33 3.25 45.10 4.92 C 46.21 7.42 45.25 10.61 47.25 12.74 C 52.03 18.52 53.25 26.76 50.44 33.71 C 51.81 37.53 53.73 41.18 54.66 45.15 C 54.17 47.01 51.35 47.30 50.81 45.35 C 49.11 41.65 47.80 37.78 46.31 33.99 C 49.07 27.57 48.43 19.64 43.63 14.35 C 41.37 12.16 41.86 8.76 41.60 5.89 Z" />
<path fill="#000000" opacity="1.00" d=" M 18.43 6.71 C 21.56 4.61 26.16 7.30 26.01 11.01 C 26.13 14.68 21.62 17.35 18.50 15.32 C 15.25 13.63 15.21 8.45 18.43 6.71 Z" />
<path fill="#000000" opacity="1.00" d=" M 16.57 18.70 C 19.27 16.94 23.30 18.71 23.81 21.89 C 24.70 26.19 25.29 30.54 26.06 34.87 C 28.25 36.99 31.17 38.69 32.15 41.75 C 33.38 45.18 35.00 48.48 35.96 51.99 C 36.27 53.75 33.68 54.85 32.64 53.40 C 30.58 50.06 29.17 46.36 27.34 42.90 C 23.95 41.17 19.73 40.69 16.97 37.93 C 15.20 34.16 15.36 29.78 14.46 25.75 C 13.26 26.37 12.06 27.00 10.86 27.62 C 11.23 30.00 12.05 32.37 11.84 34.81 C 11.00 36.78 7.90 36.05 7.95 33.90 C 7.34 30.86 5.22 27.25 7.29 24.39 C 10.14 22.15 13.42 20.49 16.57 18.70 Z" />
<path fill="#000000" opacity="1.00" d=" M 27.09 24.33 C 28.70 24.38 30.91 23.36 31.89 25.18 C 32.73 27.82 29.55 28.12 27.78 28.54 C 27.61 27.49 27.27 25.38 27.09 24.33 Z" />
<path fill="#000000" opacity="1.00" d=" M 15.86 42.48 C 17.57 43.16 19.28 43.85 20.99 44.54 C 18.54 49.07 13.48 50.85 9.36 53.46 C 7.90 54.94 5.15 53.05 6.22 51.22 C 9.05 47.88 14.38 47.03 15.86 42.48 Z" />
</g>
</svg>
