<?xml version="1.0" encoding="UTF-8" ?>
<!DOCTYPE svg PUBLIC "-//W3C//DTD SVG 1.1//EN" "http://www.w3.org/Graphics/SVG/1.1/DTD/svg11.dtd">
<svg width="60pt" height="60pt" viewBox="0 0 60 60" version="1.1" xmlns="http://www.w3.org/2000/svg">
<g id="#ffffffff">
<path fill="#ffffff" opacity="1.00" d=" M 0.00 0.00 L 60.00 0.00 L 60.00 60.00 L 0.00 60.00 L 0.00 0.00 M 32.36 4.43 C 32.10 4.64 31.59 5.08 31.33 5.29 C 31.40 8.23 32.11 11.14 31.93 14.11 C 31.65 18.51 36.97 20.07 37.73 24.08 C 38.76 27.23 36.50 30.00 35.94 32.98 C 35.70 35.30 36.90 37.42 37.67 39.53 C 39.09 42.81 40.10 46.28 41.75 49.46 C 42.62 51.37 46.11 49.88 45.14 47.96 C 43.80 43.16 41.31 38.76 39.95 33.98 C 40.58 30.65 42.76 27.51 41.81 23.97 C 41.43 20.15 38.37 17.66 36.04 14.96 C 35.68 11.93 36.27 8.74 35.05 5.84 C 34.75 4.66 33.51 3.96 32.36 4.43 M 41.88 9.99 C 41.67 13.04 44.44 14.83 45.71 17.29 C 48.71 22.35 48.46 28.66 46.31 34.00 C 47.95 38.02 49.20 42.22 51.23 46.07 C 52.45 47.79 55.56 45.84 54.41 44.04 C 53.29 40.52 51.73 37.15 50.44 33.69 C 53.63 26.06 51.52 17.19 46.09 11.15 C 45.56 8.78 46.38 5.44 43.98 3.94 C 40.51 3.84 41.76 7.85 41.88 9.99 M 18.46 6.69 C 15.24 8.41 15.23 13.56 18.44 15.29 C 21.56 17.38 26.14 14.70 26.01 11.00 C 26.15 7.30 21.58 4.63 18.46 6.69 M 16.58 18.70 C 13.41 20.48 10.13 22.14 7.28 24.41 C 5.23 27.25 7.33 30.85 7.94 33.88 C 7.95 36.04 10.90 36.80 11.85 34.84 C 12.04 32.39 11.24 30.01 10.87 27.62 C 12.06 26.99 13.26 26.37 14.46 25.75 C 15.34 29.77 15.22 34.10 16.94 37.88 C 19.69 40.69 23.95 41.17 27.36 42.91 C 29.17 46.39 30.58 50.07 32.65 53.40 C 33.69 54.86 36.26 53.75 35.96 52.00 C 34.99 48.49 33.39 45.18 32.14 41.75 C 31.15 38.71 28.27 36.98 26.06 34.87 C 25.29 30.54 24.70 26.18 23.80 21.87 C 23.30 18.70 19.27 16.95 16.58 18.70 M 27.10 24.30 C 27.27 25.37 27.62 27.51 27.79 28.57 C 29.33 27.94 31.87 28.16 32.09 25.99 C 31.76 23.37 28.90 24.22 27.10 24.30 M 15.89 42.49 C 14.27 46.95 9.14 47.99 6.13 51.19 C 5.37 53.20 7.69 54.80 9.34 53.48 C 13.48 50.88 18.50 49.05 21.00 44.55 C 19.30 43.86 17.60 43.17 15.89 42.49 Z" />
</g>
<g id="#000000ff">
<path fill="#000000" opacity="1.00" d=" M 32.36 4.43 C 33.51 3.96 34.75 4.66 35.05 5.84 C 36.27 8.74 35.68 11.93 36.04 14.96 C 38.37 17.66 41.43 20.15 41.81 23.97 C 42.76 27.51 40.58 30.65 39.95 33.98 C 41.31 38.76 43.80 43.16 45.14 47.96 C 46.11 49.88 42.62 51.37 41.75 49.46 C 40.10 46.28 39.09 42.81 37.67 39.53 C 36.90 37.42 35.70 35.30 35.94 32.98 C 36.50 30.00 38.76 27.23 37.73 24.08 C 36.97 20.07 31.65 18.51 31.93 14.11 C 32.11 11.14 31.40 8.23 31.33 5.29 C 31.59 5.08 32.10 4.64 32.36 4.43 Z" />
<path fill="#000000" opacity="1.00" d=" M 41.88 9.99 C 41.76 7.85 40.51 3.84 43.98 3.94 C 46.38 5.44 45.56 8.78 46.09 11.15 C 51.52 17.19 53.63 26.06 50.44 33.69 C 51.73 37.15 53.29 40.52 54.41 44.04 C 55.56 45.84 52.45 47.79 51.23 46.07 C 49.20 42.22 47.95 38.02 46.31 34.00 C 48.46 28.66 48.71 22.35 45.71 17.29 C 44.44 14.83 41.67 13.04 41.88 9.99 Z" />
<path fill="#000000" opacity="1.00" d=" M 18.46 6.69 C 21.58 4.63 26.15 7.30 26.01 11.00 C 26.14 14.70 21.56 17.38 18.44 15.29 C 15.23 13.56 15.24 8.41 18.46 6.69 Z" />
<path fill="#000000" opacity="1.00" d=" M 16.58 18.70 C 19.27 16.95 23.30 18.70 23.80 21.87 C 24.70 26.18 25.29 30.54 26.06 34.87 C 28.27 36.98 31.15 38.71 32.14 41.75 C 33.39 45.18 34.99 48.49 35.96 52.00 C 36.26 53.75 33.69 54.86 32.65 53.40 C 30.58 50.07 29.17 46.39 27.36 42.91 C 23.95 41.17 19.69 40.69 16.94 37.88 C 15.22 34.10 15.34 29.77 14.46 25.75 C 13.26 26.37 12.06 26.99 10.87 27.62 C 11.24 30.01 12.04 32.39 11.85 34.84 C 10.90 36.80 7.95 36.04 7.94 33.88 C 7.33 30.85 5.23 27.25 7.28 24.41 C 10.13 22.14 13.41 20.48 16.58 18.70 Z" />
<path fill="#000000" opacity="1.00" d=" M 27.10 24.30 C 28.90 24.22 31.76 23.37 32.09 25.99 C 31.87 28.16 29.33 27.94 27.79 28.57 C 27.62 27.51 27.27 25.37 27.10 24.30 Z" />
<path fill="#000000" opacity="1.00" d=" M 15.89 42.49 C 17.60 43.17 19.30 43.86 21.00 44.55 C 18.50 49.05 13.48 50.88 9.34 53.48 C 7.69 54.80 5.37 53.20 6.13 51.19 C 9.14 47.99 14.27 46.95 15.89 42.49 Z" />
</g>
</svg>
