<?xml version="1.0" encoding="UTF-8" ?>
<!DOCTYPE svg PUBLIC "-//W3C//DTD SVG 1.1//EN" "http://www.w3.org/Graphics/SVG/1.1/DTD/svg11.dtd">
<svg width="64pt" height="64pt" viewBox="0 0 64 64" version="1.1" xmlns="http://www.w3.org/2000/svg">
<g id="#ffffffff">
<path fill="#ffffff" opacity="1.00" d=" M 0.00 0.00 L 64.00 0.00 L 64.00 64.00 L 0.00 64.00 L 0.00 0.00 M 8.00 8.00 C 8.00 24.00 8.00 40.00 8.00 56.00 C 9.33 56.00 10.67 56.00 12.00 56.00 C 12.00 40.00 12.00 24.00 12.00 8.00 C 10.67 8.00 9.33 8.00 8.00 8.00 M 36.56 11.45 C 40.76 15.62 44.93 19.81 49.12 23.99 C 46.75 24.00 44.37 24.00 42.00 24.00 C 42.00 25.33 42.00 26.67 42.00 28.00 C 46.67 28.00 51.33 28.00 56.00 28.00 C 56.00 23.33 56.00 18.67 56.00 14.00 C 54.67 14.00 53.33 14.00 52.00 14.00 C 52.00 16.37 52.00 18.73 51.99 21.10 C 47.83 16.91 43.63 12.74 39.46 8.56 C 38.49 9.52 37.53 10.49 36.56 11.45 M 16.00 16.00 C 16.00 29.33 16.00 42.67 16.00 56.00 C 17.33 56.00 18.67 56.00 20.00 56.00 C 20.00 42.67 20.00 29.33 20.00 16.00 C 18.67 16.00 17.33 16.00 16.00 16.00 M 24.00 24.00 C 24.00 34.67 24.00 45.33 24.00 56.00 C 25.33 56.00 26.67 56.00 28.00 56.00 C 28.00 45.33 28.00 34.67 28.00 24.00 C 26.67 24.00 25.33 24.00 24.00 24.00 M 32.00 32.00 C 32.00 40.00 32.00 48.00 32.00 56.00 C 33.33 56.00 34.67 56.00 36.00 56.00 C 36.00 48.00 36.00 40.00 36.00 32.00 C 34.67 32.00 33.33 32.00 32.00 32.00 M 40.00 40.00 C 40.00 45.33 40.00 50.67 40.00 56.00 C 41.33 56.00 42.67 56.00 44.00 56.00 C 44.00 50.67 44.00 45.33 44.00 40.00 C 42.67 40.00 41.33 40.00 40.00 40.00 M 48.00 48.00 C 48.00 50.67 48.00 53.33 48.00 56.00 C 49.33 56.00 50.67 56.00 52.00 56.00 C 52.00 53.33 52.00 50.67 52.00 48.00 C 50.67 48.00 49.33 48.00 48.00 48.00 Z" />
</g>
<g id="#000000ff">
<path fill="#000000" opacity="1.00" d=" M 8.00 8.00 C 9.33 8.00 10.67 8.00 12.00 8.00 C 12.00 24.00 12.00 40.00 12.00 56.00 C 10.67 56.00 9.33 56.00 8.00 56.00 C 8.00 40.00 8.00 24.00 8.00 8.00 Z" />
<path fill="#000000" opacity="1.00" d=" M 36.56 11.45 C 37.53 10.49 38.49 9.52 39.46 8.56 C 43.63 12.74 47.83 16.91 51.99 21.10 C 52.00 18.73 52.00 16.37 52.00 14.00 C 53.33 14.00 54.67 14.00 56.00 14.00 C 56.00 18.67 56.00 23.33 56.00 28.00 C 51.33 28.00 46.67 28.00 42.00 28.00 C 42.00 26.67 42.00 25.33 42.00 24.00 C 44.37 24.00 46.75 24.00 49.12 23.99 C 44.93 19.81 40.76 15.62 36.56 11.45 Z" />
<path fill="#000000" opacity="1.00" d=" M 16.00 16.00 C 17.33 16.00 18.67 16.00 20.00 16.00 C 20.00 29.33 20.00 42.67 20.00 56.00 C 18.67 56.00 17.33 56.00 16.00 56.00 C 16.00 42.67 16.00 29.33 16.00 16.00 Z" />
<path fill="#000000" opacity="1.00" d=" M 24.00 24.00 C 25.33 24.00 26.67 24.00 28.00 24.00 C 28.00 34.67 28.00 45.33 28.00 56.00 C 26.67 56.00 25.33 56.00 24.00 56.00 C 24.00 45.33 24.00 34.67 24.00 24.00 Z" />
<path fill="#000000" opacity="1.00" d=" M 32.00 32.00 C 33.33 32.00 34.67 32.00 36.00 32.00 C 36.00 40.00 36.00 48.00 36.00 56.00 C 34.67 56.00 33.33 56.00 32.00 56.00 C 32.00 48.00 32.00 40.00 32.00 32.00 Z" />
<path fill="#000000" opacity="1.00" d=" M 40.00 40.00 C 41.33 40.00 42.67 40.00 44.00 40.00 C 44.00 45.33 44.00 50.67 44.00 56.00 C 42.67 56.00 41.33 56.00 40.00 56.00 C 40.00 50.67 40.00 45.33 40.00 40.00 Z" />
<path fill="#000000" opacity="1.00" d=" M 48.00 48.00 C 49.33 48.00 50.67 48.00 52.00 48.00 C 52.00 50.67 52.00 53.33 52.00 56.00 C 50.67 56.00 49.33 56.00 48.00 56.00 C 48.00 53.33 48.00 50.67 48.00 48.00 Z" />
</g>
</svg>
