<?xml version="1.0" encoding="UTF-8" ?>
<!DOCTYPE svg PUBLIC "-//W3C//DTD SVG 1.1//EN" "http://www.w3.org/Graphics/SVG/1.1/DTD/svg11.dtd">
<svg width="60pt" height="60pt" viewBox="0 0 60 60" version="1.1" xmlns="http://www.w3.org/2000/svg">
<g id="#ffffffff">
<path fill="#ffffff" opacity="1.00" d=" M 0.00 0.00 L 60.00 0.00 L 60.00 60.00 L 0.00 60.00 L 0.00 0.00 M 7.28 12.24 C 4.72 12.90 6.40 17.04 8.73 15.80 C 15.86 13.34 22.93 10.73 30.00 8.13 C 37.15 10.61 44.18 13.43 51.36 15.82 C 53.62 16.94 55.21 12.99 52.80 12.26 C 45.26 9.37 37.67 6.44 29.95 4.04 C 22.33 6.55 14.79 9.40 7.28 12.24 M 17.40 16.60 C 13.50 18.27 12.83 24.18 16.27 26.68 C 19.54 29.55 25.30 27.39 25.89 23.08 C 26.98 18.50 21.55 14.33 17.40 16.60 M 37.36 16.62 C 33.45 18.33 32.85 24.30 36.35 26.75 C 39.65 29.53 45.32 27.34 45.89 23.06 C 46.97 18.47 41.50 14.31 37.36 16.62 M 47.85 25.85 C 48.28 27.94 48.47 30.31 50.10 31.88 C 51.67 33.53 54.05 33.71 56.15 34.15 C 55.72 32.06 55.52 29.70 53.90 28.12 C 52.33 26.47 49.95 26.28 47.85 25.85 M 12.94 34.94 C 8.75 39.10 10.10 45.53 10.16 50.82 C 10.40 51.08 10.90 51.58 11.14 51.84 C 14.66 52.21 18.21 51.93 21.74 51.99 C 23.01 46.21 29.86 48.28 34.10 48.05 C 36.44 47.87 37.61 50.13 38.26 51.99 C 41.78 51.93 45.31 52.21 48.82 51.84 C 50.35 51.14 49.86 49.32 50.02 48.00 C 49.99 43.56 50.66 38.33 47.08 34.97 C 42.58 30.40 35.68 32.45 30.00 32.00 C 24.33 32.45 17.43 30.41 12.94 34.94 Z" />
<path fill="#ffffff" opacity="1.00" d=" M 28.32 36.40 C 31.43 34.59 35.37 38.59 33.59 41.68 C 32.53 44.13 28.98 44.80 27.16 42.79 C 25.16 41.00 25.90 37.44 28.32 36.40 Z" />
</g>
<g id="#000000ff">
<path fill="#000000" opacity="1.00" d=" M 7.28 12.24 C 14.79 9.40 22.33 6.55 29.95 4.04 C 37.67 6.44 45.26 9.37 52.80 12.26 C 55.21 12.99 53.62 16.94 51.36 15.82 C 44.18 13.43 37.15 10.61 30.00 8.13 C 22.93 10.73 15.86 13.34 8.73 15.80 C 6.40 17.04 4.72 12.90 7.28 12.24 Z" />
<path fill="#000000" opacity="1.00" d=" M 17.40 16.60 C 21.55 14.33 26.98 18.50 25.89 23.08 C 25.30 27.39 19.54 29.55 16.27 26.68 C 12.83 24.18 13.50 18.27 17.40 16.60 Z" />
<path fill="#000000" opacity="1.00" d=" M 37.36 16.62 C 41.50 14.31 46.97 18.47 45.89 23.06 C 45.32 27.34 39.65 29.53 36.35 26.75 C 32.85 24.30 33.45 18.33 37.36 16.62 Z" />
<path fill="#000000" opacity="1.00" d=" M 47.85 25.85 C 49.95 26.28 52.33 26.47 53.90 28.12 C 55.52 29.70 55.72 32.06 56.15 34.15 C 54.05 33.71 51.67 33.53 50.10 31.88 C 48.47 30.31 48.28 27.94 47.85 25.85 Z" />
<path fill="#000000" opacity="1.00" d=" M 12.94 34.94 C 17.43 30.41 24.33 32.45 30.00 32.00 C 35.68 32.45 42.58 30.40 47.08 34.97 C 50.66 38.33 49.99 43.56 50.02 48.00 C 49.86 49.32 50.35 51.14 48.82 51.84 C 45.31 52.21 41.78 51.93 38.26 51.99 C 37.61 50.13 36.44 47.87 34.10 48.05 C 29.86 48.28 23.01 46.21 21.74 51.99 C 18.21 51.93 14.66 52.21 11.14 51.84 C 10.90 51.58 10.40 51.08 10.16 50.82 C 10.10 45.53 8.75 39.10 12.94 34.94 M 28.32 36.40 C 25.90 37.44 25.16 41.00 27.16 42.79 C 28.98 44.80 32.53 44.13 33.59 41.68 C 35.37 38.59 31.43 34.59 28.32 36.40 Z" />
</g>
</svg>
