<?xml version="1.0" encoding="UTF-8" ?>
<!DOCTYPE svg PUBLIC "-//W3C//DTD SVG 1.1//EN" "http://www.w3.org/Graphics/SVG/1.1/DTD/svg11.dtd">
<svg width="60pt" height="60pt" viewBox="0 0 60 60" version="1.1" xmlns="http://www.w3.org/2000/svg">
<g id="#ffffffff">
<path fill="#ffffff" opacity="1.00" d=" M 0.00 0.00 L 60.00 0.00 L 60.00 60.00 L 0.00 60.00 L 0.00 0.00 M 8.08 10.07 C 8.39 13.36 7.68 16.40 5.58 18.97 C 8.17 20.40 11.16 19.97 13.99 20.01 C 26.01 19.99 38.04 20.00 50.06 20.01 C 51.60 20.14 53.04 19.56 54.42 18.96 C 53.46 17.03 51.58 15.35 52.00 12.99 C 52.10 11.01 52.27 7.30 49.23 8.05 C 46.95 9.94 48.39 13.42 47.98 16.00 C 46.66 16.00 45.34 16.00 44.02 16.00 C 43.61 13.42 45.05 9.94 42.77 8.06 C 38.50 7.59 40.39 13.43 39.98 16.00 C 38.66 16.00 37.34 16.00 36.02 16.00 C 35.61 13.42 37.06 9.94 34.77 8.06 C 30.50 7.59 32.39 13.44 31.98 16.00 C 30.66 16.00 29.34 16.00 28.02 16.00 C 27.61 13.42 29.05 9.95 26.77 8.06 C 22.50 7.59 24.39 13.43 23.98 16.00 C 22.66 16.00 21.34 16.00 20.02 16.00 C 19.61 13.42 21.06 9.94 18.77 8.06 C 14.50 7.60 16.39 13.43 15.98 16.00 C 14.66 16.00 13.34 16.00 12.02 16.00 C 12.00 13.73 12.13 11.45 11.84 9.20 C 11.10 7.15 7.77 7.89 8.08 10.07 M 8.00 24.00 C 7.95 28.29 8.10 32.58 7.97 36.86 C 7.43 38.24 6.08 39.26 5.96 40.80 C 7.14 42.39 9.23 41.90 10.94 42.02 C 23.98 41.98 37.02 42.00 50.06 42.01 C 51.61 42.14 53.04 41.56 54.43 40.96 C 53.71 39.55 52.62 38.34 52.05 36.85 C 51.88 32.57 52.05 28.28 52.00 24.00 C 50.66 24.00 49.33 24.00 48.00 24.00 C 48.01 28.67 47.99 33.33 48.00 38.00 C 46.67 38.00 45.33 38.00 44.00 38.00 C 44.01 33.33 43.99 28.67 44.00 24.00 C 42.67 24.00 41.33 24.00 40.00 24.00 C 40.01 28.67 39.99 33.33 40.00 38.00 C 38.67 38.00 37.33 38.00 36.00 38.00 C 36.01 33.33 35.99 28.67 36.00 24.00 C 34.67 24.00 33.33 24.00 32.00 24.00 C 32.01 28.67 31.99 33.33 32.00 38.00 C 30.67 38.00 29.33 38.00 28.00 38.00 C 28.01 33.33 27.99 28.67 28.00 24.00 C 26.67 24.00 25.33 24.00 24.00 24.00 C 24.01 28.67 23.99 33.33 24.00 38.00 C 22.67 38.00 21.33 38.00 20.00 38.00 C 20.01 33.33 19.99 28.67 20.00 24.00 C 18.67 24.00 17.33 24.00 16.00 24.00 C 16.01 28.67 15.99 33.33 16.00 38.00 C 14.67 38.00 13.33 38.00 12.00 38.00 C 12.01 33.33 11.99 28.67 12.00 24.00 C 10.67 24.00 9.33 24.00 8.00 24.00 M 8.00 46.00 C 8.00 48.00 8.00 50.00 8.00 52.00 C 9.33 52.00 10.67 52.00 12.00 52.00 C 12.00 50.00 12.00 48.00 12.00 46.00 C 10.67 46.00 9.33 46.00 8.00 46.00 M 16.00 46.00 C 16.00 48.00 16.00 50.00 16.00 52.00 C 17.33 52.00 18.67 52.00 20.00 52.00 C 20.00 50.00 20.00 48.00 20.00 46.00 C 18.67 46.00 17.33 46.00 16.00 46.00 M 24.00 46.00 C 24.00 48.00 24.00 50.00 24.00 52.00 C 25.33 52.00 26.67 52.00 28.00 52.00 C 28.00 50.00 28.00 48.00 28.00 46.00 C 26.67 46.00 25.33 46.00 24.00 46.00 M 32.00 46.00 C 32.00 48.00 32.00 50.00 32.00 52.00 C 33.33 52.00 34.67 52.00 36.00 52.00 C 36.00 50.00 36.00 48.00 36.00 46.00 C 34.67 46.00 33.33 46.00 32.00 46.00 M 40.00 46.00 C 40.00 48.00 40.00 50.00 40.00 52.00 C 41.33 52.00 42.67 52.00 44.00 52.00 C 44.00 50.00 44.00 48.00 44.00 46.00 C 42.67 46.00 41.33 46.00 40.00 46.00 M 48.00 46.00 C 48.00 48.00 48.00 50.00 48.00 52.00 C 49.33 52.00 50.67 52.00 52.00 52.00 C 52.00 50.00 52.00 48.00 52.00 46.00 C 50.67 46.00 49.33 46.00 48.00 46.00 Z" />
</g>
<g id="#000000ff">
<path fill="#000000" opacity="1.00" d=" M 8.08 10.07 C 7.77 7.89 11.10 7.15 11.84 9.20 C 12.13 11.45 12.00 13.73 12.02 16.00 C 13.34 16.00 14.66 16.00 15.98 16.00 C 16.39 13.43 14.50 7.60 18.77 8.06 C 21.06 9.94 19.61 13.42 20.02 16.00 C 21.34 16.00 22.66 16.00 23.98 16.00 C 24.39 13.43 22.50 7.59 26.77 8.06 C 29.05 9.95 27.61 13.42 28.02 16.00 C 29.34 16.00 30.66 16.00 31.98 16.00 C 32.39 13.44 30.50 7.59 34.77 8.06 C 37.06 9.94 35.61 13.42 36.02 16.00 C 37.34 16.00 38.66 16.00 39.98 16.00 C 40.39 13.43 38.50 7.59 42.77 8.06 C 45.05 9.94 43.61 13.42 44.02 16.00 C 45.34 16.00 46.66 16.00 47.98 16.00 C 48.39 13.42 46.95 9.94 49.23 8.05 C 52.27 7.30 52.10 11.01 52.00 12.99 C 51.58 15.35 53.46 17.03 54.42 18.96 C 53.04 19.56 51.60 20.14 50.06 20.01 C 38.04 20.00 26.01 19.99 13.99 20.01 C 11.16 19.97 8.17 20.40 5.58 18.97 C 7.68 16.40 8.39 13.36 8.08 10.07 Z" />
<path fill="#000000" opacity="1.00" d=" M 8.00 24.00 C 9.33 24.00 10.67 24.00 12.00 24.00 C 11.99 28.67 12.01 33.33 12.00 38.00 C 13.33 38.00 14.67 38.00 16.00 38.00 C 15.99 33.33 16.01 28.67 16.00 24.00 C 17.33 24.00 18.67 24.00 20.00 24.00 C 19.99 28.67 20.01 33.33 20.00 38.00 C 21.33 38.00 22.67 38.00 24.00 38.00 C 23.99 33.33 24.01 28.67 24.00 24.00 C 25.33 24.00 26.67 24.00 28.00 24.00 C 27.99 28.67 28.01 33.33 28.00 38.00 C 29.33 38.00 30.67 38.00 32.00 38.00 C 31.99 33.33 32.01 28.67 32.00 24.00 C 33.33 24.00 34.67 24.00 36.00 24.00 C 35.99 28.67 36.01 33.33 36.00 38.00 C 37.33 38.00 38.67 38.00 40.00 38.00 C 39.99 33.33 40.01 28.67 40.00 24.00 C 41.33 24.00 42.67 24.00 44.00 24.00 C 43.99 28.67 44.01 33.33 44.00 38.00 C 45.33 38.00 46.67 38.00 48.00 38.00 C 47.99 33.33 48.01 28.67 48.00 24.00 C 49.33 24.00 50.66 24.00 52.00 24.00 C 52.05 28.28 51.88 32.57 52.05 36.85 C 52.62 38.34 53.71 39.55 54.43 40.96 C 53.04 41.56 51.61 42.14 50.06 42.01 C 37.02 42.00 23.98 41.98 10.94 42.02 C 9.23 41.90 7.14 42.39 5.96 40.80 C 6.08 39.26 7.43 38.24 7.97 36.86 C 8.10 32.58 7.95 28.29 8.00 24.00 Z" />
<path fill="#000000" opacity="1.00" d=" M 8.00 46.00 C 9.33 46.00 10.67 46.00 12.00 46.00 C 12.00 48.00 12.00 50.00 12.00 52.00 C 10.67 52.00 9.33 52.00 8.00 52.00 C 8.00 50.00 8.00 48.00 8.00 46.00 Z" />
<path fill="#000000" opacity="1.00" d=" M 16.00 46.00 C 17.33 46.00 18.67 46.00 20.00 46.00 C 20.00 48.00 20.00 50.00 20.00 52.00 C 18.67 52.00 17.33 52.00 16.00 52.00 C 16.00 50.00 16.00 48.00 16.00 46.00 Z" />
<path fill="#000000" opacity="1.00" d=" M 24.00 46.00 C 25.33 46.00 26.67 46.00 28.00 46.00 C 28.00 48.00 28.00 50.00 28.00 52.00 C 26.67 52.00 25.33 52.00 24.00 52.00 C 24.00 50.00 24.00 48.00 24.00 46.00 Z" />
<path fill="#000000" opacity="1.00" d=" M 32.00 46.00 C 33.33 46.00 34.67 46.00 36.00 46.00 C 36.00 48.00 36.00 50.00 36.00 52.00 C 34.67 52.00 33.33 52.00 32.00 52.00 C 32.00 50.00 32.00 48.00 32.00 46.00 Z" />
<path fill="#000000" opacity="1.00" d=" M 40.00 46.00 C 41.33 46.00 42.67 46.00 44.00 46.00 C 44.00 48.00 44.00 50.00 44.00 52.00 C 42.67 52.00 41.33 52.00 40.00 52.00 C 40.00 50.00 40.00 48.00 40.00 46.00 Z" />
<path fill="#000000" opacity="1.00" d=" M 48.00 46.00 C 49.33 46.00 50.67 46.00 52.00 46.00 C 52.00 48.00 52.00 50.00 52.00 52.00 C 50.67 52.00 49.33 52.00 48.00 52.00 C 48.00 50.00 48.00 48.00 48.00 46.00 Z" />
</g>
</svg>
