<?xml version="1.0" encoding="UTF-8" ?>
<!DOCTYPE svg PUBLIC "-//W3C//DTD SVG 1.1//EN" "http://www.w3.org/Graphics/SVG/1.1/DTD/svg11.dtd">
<svg width="200pt" height="200pt" viewBox="0 0 200 200" version="1.1" xmlns="http://www.w3.org/2000/svg">
<g id="#ffffffff">
<path fill="#ffffff" opacity="1.00" d=" M 0.00 0.00 L 200.00 0.00 L 200.00 135.04 C 199.42 133.98 198.73 132.97 197.90 132.08 C 176.58 110.74 155.20 89.45 133.92 68.07 C 132.23 66.51 130.65 64.12 128.03 64.41 C 108.36 64.38 88.68 64.42 69.00 64.39 C 67.07 64.20 64.59 65.02 64.51 67.30 C 64.21 74.20 64.51 81.12 64.40 88.03 C 59.96 88.47 54.68 87.96 52.22 83.67 C 48.77 77.39 48.49 69.92 45.30 63.50 C 38.68 49.67 30.62 36.58 22.28 23.74 C 17.18 16.26 12.18 8.58 5.77 2.15 C 4.04 0.15 1.20 1.31 0.00 3.25 L 0.00 0.00 Z" />
<path fill="#ffffff" opacity="1.00" d=" M 0.00 5.16 C 2.01 8.36 4.84 10.93 7.07 13.97 C 16.26 26.10 24.24 39.09 31.80 52.28 C 35.64 59.24 39.80 66.18 41.78 73.95 C 43.45 80.04 44.67 86.92 49.87 91.12 C 53.79 94.72 59.35 95.16 64.41 94.82 C 64.42 105.92 64.36 117.02 64.42 128.12 C 64.26 129.88 65.41 131.27 66.55 132.46 C 85.60 152.44 104.57 172.48 123.60 192.48 C 126.09 195.05 128.37 197.89 131.29 200.00 L 0.00 200.00 L 0.00 5.16 Z" />
<path fill="#ffffff" opacity="1.00" d=" M 78.43 85.63 C 81.47 79.64 89.92 77.35 95.21 81.77 C 101.35 86.13 100.68 96.48 94.05 100.04 C 87.75 104.05 78.94 99.78 77.48 92.64 C 79.76 92.45 82.05 92.34 84.34 92.30 C 85.79 94.33 88.64 95.74 90.89 94.02 C 93.95 92.09 92.86 87.43 89.70 86.26 C 86.11 85.00 82.17 85.67 78.43 85.63 Z" />
<path fill="#ffffff" opacity="1.00" d=" M 117.50 81.53 C 119.18 80.81 120.77 81.98 121.87 83.16 C 137.31 98.68 152.86 114.10 168.28 129.64 C 170.76 131.50 169.07 135.88 166.00 135.57 C 164.49 135.68 163.55 134.29 162.51 133.44 C 147.21 118.04 131.79 102.76 116.48 87.36 C 114.48 85.79 115.03 82.29 117.50 81.53 Z" />
<path fill="#ffffff" opacity="1.00" d=" M 103.32 95.45 C 104.69 94.30 106.68 95.01 107.76 96.21 C 110.13 98.55 112.55 100.85 114.78 103.32 C 116.21 104.70 115.74 107.05 114.30 108.23 C 111.56 110.80 109.23 113.91 106.06 115.95 C 102.70 116.64 100.98 112.91 98.72 111.14 C 97.01 109.13 93.47 107.20 94.79 104.08 C 97.35 100.96 100.32 98.15 103.32 95.45 Z" />
<path fill="#ffffff" opacity="1.00" d=" M 86.32 112.43 C 87.68 111.29 89.71 111.90 90.79 113.12 C 93.16 115.46 95.57 117.77 97.82 120.23 C 99.33 121.65 98.77 124.05 97.29 125.25 C 94.76 127.71 92.44 130.42 89.68 132.61 C 86.46 134.25 84.41 130.35 82.31 128.61 C 80.52 126.37 76.53 124.44 77.84 121.04 C 80.39 117.93 83.35 115.13 86.32 112.43 Z" />
<path fill="#ffffff" opacity="1.00" d=" M 113.30 112.44 C 114.73 111.36 116.77 111.82 117.89 113.12 C 128.92 124.08 139.88 135.11 150.90 146.09 C 152.26 147.26 153.23 149.33 152.00 150.96 C 150.92 152.90 147.96 153.06 146.59 151.34 C 135.38 140.23 124.25 129.04 113.10 117.88 C 111.40 116.50 111.44 113.65 113.30 112.44 Z" />
<path fill="#ffffff" opacity="1.00" d=" M 96.28 129.45 C 97.72 128.27 99.82 128.75 100.97 130.09 C 111.98 141.07 122.96 152.09 133.97 163.07 C 135.31 164.23 136.27 166.27 135.07 167.88 C 134.02 169.81 131.10 170.04 129.71 168.36 C 118.49 157.22 107.32 146.02 96.16 134.82 C 94.47 133.47 94.49 130.69 96.28 129.45 Z" />
<path fill="#ffffff" opacity="1.00" d=" M 193.87 142.84 C 196.05 140.75 198.56 138.88 200.00 136.16 L 200.00 200.00 L 133.14 200.00 C 137.76 196.39 141.74 192.04 146.07 188.11 C 162.01 173.02 177.94 157.93 193.87 142.84 Z" />
</g>
<g id="#000000ff">
<path fill="#968176" opacity="1.00" d=" M 0.00 3.25 C 1.20 1.31 4.04 0.15 5.77 2.15 C 12.18 8.58 17.18 16.26 22.28 23.74 C 30.62 36.58 38.68 49.67 45.30 63.50 C 48.49 69.92 48.77 77.39 52.22 83.67 C 54.68 87.96 59.96 88.47 64.40 88.03 C 64.51 81.12 64.21 74.20 64.51 67.30 C 64.59 65.02 67.07 64.20 69.00 64.39 C 88.68 64.42 108.36 64.38 128.03 64.41 C 130.65 64.12 132.23 66.51 133.92 68.07 C 155.20 89.45 176.58 110.74 197.90 132.08 C 198.73 132.97 199.42 133.98 200.00 135.04 L 200.00 136.16 C 198.56 138.88 196.05 140.75 193.87 142.84 C 177.94 157.93 162.01 173.02 146.07 188.11 C 141.74 192.04 137.76 196.39 133.14 200.00 L 131.29 200.00 C 128.37 197.89 126.09 195.05 123.60 192.48 C 104.57 172.48 85.60 152.44 66.55 132.46 C 65.41 131.27 64.26 129.88 64.42 128.12 C 64.36 117.02 64.42 105.92 64.41 94.82 C 59.35 95.16 53.79 94.72 49.87 91.12 C 44.67 86.92 43.45 80.04 41.78 73.95 C 39.80 66.18 35.64 59.24 31.80 52.28 C 24.24 39.09 16.26 26.10 7.07 13.97 C 4.84 10.93 2.01 8.36 0.00 5.16 L 0.00 3.25 M 78.43 85.63 C 82.17 85.67 86.11 85.00 89.70 86.26 C 92.86 87.43 93.95 92.09 90.89 94.02 C 88.64 95.74 85.79 94.33 84.34 92.30 C 82.05 92.34 79.76 92.45 77.48 92.64 C 78.94 99.78 87.75 104.05 94.05 100.04 C 100.68 96.48 101.35 86.13 95.21 81.77 C 89.92 77.35 81.47 79.64 78.43 85.63 M 117.50 81.53 C 115.03 82.29 114.48 85.79 116.48 87.36 C 131.79 102.76 147.21 118.04 162.51 133.44 C 163.55 134.29 164.49 135.68 166.00 135.57 C 169.07 135.88 170.76 131.50 168.28 129.64 C 152.86 114.10 137.31 98.68 121.87 83.16 C 120.77 81.98 119.18 80.81 117.50 81.53 M 103.32 95.45 C 100.32 98.15 97.35 100.96 94.79 104.08 C 93.47 107.20 97.01 109.13 98.72 111.14 C 100.98 112.91 102.70 116.64 106.06 115.95 C 109.23 113.91 111.56 110.80 114.30 108.23 C 115.74 107.05 116.21 104.70 114.78 103.32 C 112.55 100.85 110.13 98.55 107.76 96.21 C 106.68 95.01 104.69 94.30 103.32 95.45 M 86.32 112.43 C 83.35 115.13 80.39 117.93 77.84 121.04 C 76.53 124.44 80.52 126.37 82.31 128.61 C 84.41 130.35 86.46 134.25 89.68 132.61 C 92.44 130.42 94.76 127.71 97.29 125.25 C 98.77 124.05 99.33 121.65 97.82 120.23 C 95.57 117.77 93.16 115.46 90.79 113.12 C 89.71 111.90 87.68 111.29 86.32 112.43 M 113.30 112.44 C 111.44 113.65 111.40 116.50 113.10 117.88 C 124.25 129.04 135.38 140.23 146.59 151.34 C 147.96 153.06 150.92 152.90 152.00 150.96 C 153.23 149.33 152.26 147.26 150.90 146.09 C 139.88 135.11 128.92 124.08 117.89 113.12 C 116.77 111.82 114.73 111.36 113.30 112.44 M 96.28 129.45 C 94.49 130.69 94.47 133.47 96.16 134.82 C 107.32 146.02 118.49 157.22 129.71 168.36 C 131.10 170.04 134.02 169.81 135.07 167.88 C 136.27 166.27 135.31 164.23 133.97 163.07 C 122.96 152.09 111.98 141.07 100.97 130.09 C 99.82 128.75 97.72 128.27 96.28 129.45 Z" />
</g>
</svg>
