<?xml version="1.0" encoding="UTF-8" ?>
<!DOCTYPE svg PUBLIC "-//W3C//DTD SVG 1.1//EN" "http://www.w3.org/Graphics/SVG/1.1/DTD/svg11.dtd">
<svg width="200pt" height="200pt" viewBox="0 0 200 200" version="1.1" xmlns="http://www.w3.org/2000/svg">
<g id="#ffffffff">
<path fill="#ffffff" opacity="1.00" d=" M 0.00 0.00 L 48.87 0.00 C 42.76 0.19 30.52 0.58 24.41 0.77 C 11.04 2.82 0.23 15.08 0.00 28.64 L 0.00 0.00 Z" />
<path fill="#ffffff" opacity="1.00" d=" M 147.40 0.00 L 200.00 0.00 L 200.00 153.13 C 199.54 148.18 198.98 142.96 196.61 138.52 C 194.08 135.21 189.28 139.76 186.88 136.21 C 185.10 134.12 186.59 131.55 188.25 129.97 C 190.08 128.39 189.76 125.52 188.05 123.97 C 181.29 116.48 172.02 110.92 161.95 109.54 C 159.14 109.63 158.35 112.54 157.64 114.71 C 157.01 116.82 154.22 117.68 152.37 116.66 C 149.63 115.38 150.63 111.26 147.88 110.00 C 146.37 109.13 144.62 109.78 143.06 110.09 C 133.81 112.47 125.12 117.75 119.24 125.33 C 116.77 129.46 124.18 131.58 121.76 135.70 C 119.57 140.20 113.38 134.67 111.26 139.22 C 107.43 148.67 107.42 159.53 110.90 169.09 C 111.40 170.77 113.15 172.30 114.99 171.87 C 117.30 171.53 120.42 170.73 121.74 173.36 C 123.07 175.48 121.54 177.64 120.07 179.14 C 118.36 180.62 118.45 183.37 120.05 184.90 C 126.75 192.48 136.01 198.04 146.08 199.57 C 148.63 199.69 149.87 197.27 150.38 195.15 C 150.78 192.59 153.99 191.19 156.16 192.59 C 158.57 193.94 157.77 197.58 160.14 198.98 C 161.92 200.11 164.04 199.28 165.91 198.87 C 174.90 196.40 183.29 191.19 189.06 183.82 C 191.56 179.69 184.12 177.57 186.54 173.46 C 188.61 169.08 194.05 173.98 196.66 170.55 C 198.98 166.17 199.51 161.04 200.00 156.17 L 200.00 200.00 L 0.00 200.00 L 0.00 114.21 C 0.45 127.16 10.46 138.96 23.19 141.43 C 31.19 142.70 39.34 141.76 47.41 142.10 C 40.27 156.34 33.17 170.61 26.01 184.84 C 25.28 186.30 24.50 188.05 25.36 189.65 C 26.42 192.14 29.93 192.85 31.90 191.01 C 53.68 174.79 75.31 158.37 97.13 142.20 C 98.69 141.93 100.58 142.05 101.68 140.68 C 102.90 138.76 103.14 136.39 104.36 134.46 C 105.73 132.20 108.19 130.99 109.93 129.07 C 110.89 126.00 110.67 122.45 112.87 119.87 C 120.65 110.31 131.92 103.59 144.05 101.39 C 147.57 100.55 150.80 102.38 154.06 103.36 C 157.06 102.76 159.80 100.82 162.99 101.24 C 171.18 102.20 178.70 106.07 185.47 110.59 C 188.05 112.43 191.91 110.03 191.62 106.94 C 191.68 80.81 191.70 54.67 191.61 28.54 C 191.42 14.50 179.67 1.87 165.70 0.60 C 161.12 0.45 151.97 0.15 147.40 0.00 Z" />
<path fill="#ffffff" opacity="1.00" d=" M 49.48 59.64 C 55.83 56.86 63.89 60.58 65.97 67.18 C 68.42 73.67 64.25 81.53 57.56 83.25 C 51.26 85.22 43.97 81.20 42.20 74.87 C 40.22 68.89 43.62 61.88 49.48 59.64 Z" />
<path fill="#ffffff" opacity="1.00" d=" M 91.40 59.54 C 97.71 56.95 105.54 60.66 107.62 67.11 C 110.10 73.59 105.99 81.44 99.33 83.22 C 93.02 85.26 85.67 81.25 83.88 74.89 C 81.85 68.82 85.40 61.68 91.40 59.54 Z" />
<path fill="#ffffff" opacity="1.00" d=" M 134.22 59.16 C 140.96 57.13 148.63 61.96 149.75 68.89 C 151.19 75.41 146.42 82.38 139.87 83.50 C 133.53 84.90 126.70 80.46 125.33 74.15 C 123.62 67.81 127.88 60.73 134.22 59.16 Z" />
<path fill="#ffffff" opacity="1.00" d=" M 148.37 134.54 C 156.00 132.25 164.79 134.87 169.92 140.96 C 175.03 146.75 176.42 155.46 173.39 162.55 C 169.92 171.20 160.20 176.76 150.98 175.16 C 141.27 173.84 133.36 164.85 133.33 155.03 C 132.95 145.83 139.50 136.97 148.37 134.54 M 150.38 142.63 C 144.43 144.38 140.51 150.99 141.90 157.06 C 143.07 163.67 150.22 168.38 156.76 166.79 C 163.30 165.56 167.92 158.52 166.40 152.03 C 165.16 144.99 157.15 140.26 150.38 142.63 Z" />
</g>
<g id="#000000ff">
<path fill="#968176" opacity="1.00" d=" M 48.87 0.00 L 147.40 0.00 C 151.97 0.15 161.12 0.45 165.70 0.60 C 179.67 1.87 191.42 14.50 191.61 28.54 C 191.70 54.67 191.68 80.81 191.62 106.94 C 191.91 110.03 188.05 112.43 185.47 110.59 C 178.70 106.07 171.18 102.20 162.99 101.24 C 159.80 100.82 157.06 102.76 154.06 103.36 C 150.80 102.38 147.57 100.55 144.05 101.39 C 131.92 103.59 120.65 110.31 112.87 119.87 C 110.67 122.45 110.89 126.00 109.93 129.07 C 108.19 130.99 105.73 132.20 104.36 134.46 C 103.14 136.39 102.90 138.76 101.68 140.68 C 100.58 142.05 98.69 141.93 97.13 142.20 C 75.31 158.37 53.68 174.79 31.90 191.01 C 29.93 192.85 26.42 192.14 25.36 189.65 C 24.50 188.05 25.28 186.30 26.01 184.84 C 33.17 170.61 40.27 156.34 47.41 142.10 C 39.34 141.76 31.19 142.70 23.19 141.43 C 10.46 138.96 0.45 127.16 0.00 114.21 L 0.00 28.64 C 0.23 15.08 11.04 2.82 24.41 0.77 C 30.52 0.58 42.76 0.19 48.87 0.00 M 49.48 59.64 C 43.62 61.88 40.22 68.89 42.20 74.87 C 43.97 81.20 51.26 85.22 57.56 83.25 C 64.25 81.53 68.42 73.67 65.97 67.18 C 63.89 60.58 55.83 56.86 49.48 59.64 M 91.40 59.54 C 85.40 61.68 81.85 68.82 83.88 74.89 C 85.67 81.25 93.02 85.26 99.33 83.22 C 105.99 81.44 110.10 73.59 107.62 67.11 C 105.54 60.66 97.71 56.95 91.40 59.54 M 134.22 59.16 C 127.88 60.73 123.62 67.81 125.33 74.15 C 126.70 80.46 133.53 84.90 139.87 83.50 C 146.42 82.38 151.19 75.41 149.75 68.89 C 148.63 61.96 140.96 57.13 134.22 59.16 Z" />
<path fill="#968176" opacity="1.00" d=" M 119.24 125.33 C 125.12 117.75 133.81 112.47 143.06 110.09 C 144.62 109.78 146.37 109.13 147.88 110.00 C 150.63 111.26 149.63 115.38 152.37 116.66 C 154.22 117.68 157.01 116.82 157.64 114.71 C 158.35 112.54 159.14 109.63 161.95 109.54 C 172.02 110.92 181.29 116.48 188.05 123.97 C 189.76 125.52 190.08 128.39 188.25 129.97 C 186.59 131.55 185.10 134.12 186.88 136.21 C 189.28 139.76 194.08 135.21 196.61 138.52 C 198.98 142.96 199.54 148.18 200.00 153.13 L 200.00 156.17 C 199.51 161.04 198.98 166.17 196.66 170.55 C 194.05 173.98 188.61 169.08 186.54 173.46 C 184.12 177.57 191.56 179.69 189.06 183.82 C 183.29 191.19 174.90 196.40 165.91 198.87 C 164.04 199.28 161.92 200.11 160.14 198.98 C 157.77 197.58 158.57 193.94 156.16 192.59 C 153.99 191.19 150.78 192.59 150.38 195.15 C 149.87 197.27 148.63 199.69 146.08 199.57 C 136.01 198.04 126.75 192.48 120.05 184.90 C 118.45 183.37 118.36 180.62 120.07 179.14 C 121.54 177.64 123.07 175.48 121.74 173.36 C 120.42 170.73 117.30 171.53 114.99 171.87 C 113.15 172.30 111.40 170.77 110.90 169.09 C 107.42 159.53 107.43 148.67 111.26 139.22 C 113.38 134.67 119.57 140.20 121.76 135.70 C 124.18 131.58 116.77 129.46 119.24 125.33 M 148.37 134.54 C 139.50 136.97 132.95 145.83 133.33 155.03 C 133.36 164.85 141.27 173.84 150.98 175.16 C 160.20 176.76 169.92 171.20 173.39 162.55 C 176.42 155.46 175.03 146.75 169.92 140.96 C 164.79 134.87 156.00 132.25 148.37 134.54 Z" />
<path fill="#968176" opacity="1.00" d=" M 150.38 142.63 C 157.15 140.26 165.16 144.99 166.40 152.03 C 167.92 158.52 163.30 165.56 156.76 166.79 C 150.22 168.38 143.07 163.67 141.90 157.06 C 140.51 150.99 144.43 144.38 150.38 142.63 Z" />
</g>
</svg>
