<?xml version="1.0" encoding="UTF-8" ?>
<!DOCTYPE svg PUBLIC "-//W3C//DTD SVG 1.1//EN" "http://www.w3.org/Graphics/SVG/1.1/DTD/svg11.dtd">
<svg width="60pt" height="60pt" viewBox="0 0 60 60" version="1.1" xmlns="http://www.w3.org/2000/svg">
<g id="#ffffffff">
<path fill="#ffffff" opacity="1.00" d=" M 0.00 0.00 L 60.00 0.00 L 60.00 45.59 C 59.82 38.67 54.03 32.44 47.07 32.09 C 39.24 31.23 31.78 38.16 32.04 46.03 C 31.86 53.34 38.23 59.76 45.48 60.00 L 0.00 60.00 L 0.00 0.00 M 10.05 7.89 C 9.93 22.29 10.03 36.69 10.00 51.09 C 9.63 53.43 11.34 55.96 13.83 55.95 C 19.53 56.11 25.24 55.92 30.95 56.01 C 27.04 49.83 26.96 41.35 31.43 35.44 C 35.51 29.60 43.10 26.96 50.00 28.36 C 49.91 24.96 50.26 21.54 49.79 18.17 C 45.36 13.32 40.65 8.68 35.84 4.21 C 28.89 3.71 21.88 4.13 14.90 4.00 C 12.56 3.65 10.00 5.40 10.05 7.89 Z" />
<path fill="#ffffff" opacity="1.00" d=" M 34.01 7.81 C 38.07 11.87 42.13 15.93 46.19 19.99 C 42.49 19.93 38.78 20.22 35.09 19.83 C 34.86 19.57 34.39 19.07 34.16 18.82 C 33.79 15.16 34.07 11.48 34.01 7.81 Z" />
<path fill="#ffffff" opacity="1.00" d=" M 40.11 41.11 C 42.06 38.40 44.50 41.66 46.00 43.12 C 47.48 41.96 48.63 39.60 50.83 40.11 C 53.64 41.96 50.36 44.51 48.91 46.00 C 50.07 47.49 52.41 48.66 51.89 50.87 C 49.97 53.62 47.49 50.35 46.00 48.88 C 44.52 50.04 43.37 52.39 41.17 51.90 C 38.34 50.04 41.65 47.47 43.13 46.00 C 41.95 44.51 39.57 43.35 40.11 41.11 Z" />
<path fill="#ffffff" opacity="1.00" d=" M 46.42 60.00 C 53.60 59.81 59.77 53.67 60.00 46.49 L 60.00 60.00 L 46.42 60.00 Z" />
</g>
<g id="#000000ff">
<path fill="#968176" opacity="1.00" d=" M 10.05 7.89 C 10.00 5.40 12.56 3.65 14.90 4.00 C 21.88 4.13 28.89 3.71 35.84 4.21 C 40.65 8.68 45.36 13.32 49.79 18.17 C 50.26 21.54 49.91 24.96 50.00 28.36 C 43.10 26.96 35.51 29.60 31.43 35.44 C 26.96 41.35 27.04 49.83 30.95 56.01 C 25.24 55.92 19.53 56.11 13.83 55.95 C 11.34 55.96 9.63 53.43 10.00 51.09 C 10.03 36.69 9.93 22.29 10.05 7.89 M 34.01 7.81 C 34.07 11.48 33.79 15.16 34.16 18.82 C 34.39 19.07 34.86 19.57 35.09 19.83 C 38.78 20.22 42.49 19.93 46.19 19.99 C 42.13 15.93 38.07 11.87 34.01 7.81 Z" />
<path fill="#968176" opacity="1.00" d=" M 32.04 46.03 C 31.78 38.16 39.24 31.23 47.07 32.09 C 54.03 32.44 59.82 38.67 60.00 45.59 L 60.00 46.49 C 59.77 53.67 53.60 59.81 46.42 60.00 L 45.48 60.00 C 38.23 59.76 31.86 53.34 32.04 46.03 M 40.11 41.11 C 39.57 43.35 41.95 44.51 43.13 46.00 C 41.65 47.47 38.34 50.04 41.17 51.90 C 43.37 52.39 44.52 50.04 46.00 48.88 C 47.49 50.35 49.97 53.62 51.89 50.87 C 52.41 48.66 50.07 47.49 48.91 46.00 C 50.36 44.51 53.64 41.96 50.83 40.11 C 48.63 39.60 47.48 41.96 46.00 43.12 C 44.50 41.66 42.06 38.40 40.11 41.11 Z" />
</g>
</svg>
