<?xml version="1.0" encoding="UTF-8" ?>
<!DOCTYPE svg PUBLIC "-//W3C//DTD SVG 1.1//EN" "http://www.w3.org/Graphics/SVG/1.1/DTD/svg11.dtd">
<svg width="60pt" height="60pt" viewBox="0 0 60 60" version="1.1" xmlns="http://www.w3.org/2000/svg">
<g id="#ffffffff">
<path fill="#ffffff" opacity="1.00" d=" M 0.00 0.00 L 60.00 0.00 L 60.00 60.00 L 0.00 60.00 L 0.00 0.00 M 18.58 6.87 C 15.19 7.74 10.44 6.93 8.38 10.33 C 7.56 14.81 8.16 19.45 8.02 23.99 C 7.83 37.34 17.66 49.74 29.99 53.99 C 37.75 51.56 44.20 45.39 48.28 38.43 C 53.00 30.43 51.99 20.84 51.93 11.95 C 52.01 10.15 50.63 8.45 48.84 8.17 C 38.94 6.00 28.63 5.33 18.58 6.87 Z" />
<path fill="#ffffff" opacity="1.00" d=" M 22.15 20.77 C 21.44 19.15 23.18 17.44 24.79 18.17 C 26.68 19.68 28.32 21.46 30.01 23.18 C 31.72 21.47 33.33 19.64 35.24 18.14 C 36.88 17.50 38.54 19.14 37.84 20.78 C 36.35 22.69 34.53 24.30 32.83 26.00 C 34.55 27.69 36.33 29.33 37.85 31.21 C 38.50 32.85 36.89 34.51 35.23 33.86 C 33.32 32.36 31.72 30.53 30.01 28.81 C 28.30 30.55 26.64 32.35 24.73 33.88 C 23.08 34.48 21.44 32.82 22.19 31.18 C 23.67 29.28 25.51 27.70 27.20 25.99 C 25.48 24.28 23.65 22.68 22.15 20.77 Z" />
</g>
<g id="#000000ff">
<path fill="#968176" opacity="1.00" d=" M 18.58 6.87 C 28.63 5.33 38.94 6.00 48.84 8.17 C 50.63 8.45 52.01 10.15 51.93 11.95 C 51.99 20.84 53.00 30.43 48.28 38.43 C 44.20 45.39 37.75 51.56 29.99 53.99 C 17.66 49.74 7.83 37.34 8.02 23.99 C 8.16 19.45 7.56 14.81 8.38 10.33 C 10.44 6.93 15.19 7.74 18.58 6.87 M 22.15 20.77 C 23.65 22.68 25.48 24.28 27.20 25.99 C 25.51 27.70 23.67 29.28 22.19 31.18 C 21.44 32.82 23.08 34.48 24.73 33.88 C 26.64 32.35 28.30 30.55 30.01 28.81 C 31.72 30.53 33.32 32.36 35.23 33.86 C 36.89 34.51 38.50 32.85 37.85 31.21 C 36.33 29.33 34.55 27.69 32.83 26.00 C 34.53 24.30 36.35 22.69 37.84 20.78 C 38.54 19.14 36.88 17.50 35.24 18.14 C 33.33 19.64 31.72 21.47 30.01 23.18 C 28.32 21.46 26.68 19.68 24.79 18.17 C 23.18 17.44 21.44 19.15 22.15 20.77 Z" />
</g>
</svg>
