<?xml version="1.0" encoding="UTF-8" ?>
<!DOCTYPE svg PUBLIC "-//W3C//DTD SVG 1.1//EN" "http://www.w3.org/Graphics/SVG/1.1/DTD/svg11.dtd">
<svg width="60pt" height="60pt" viewBox="0 0 60 60" version="1.1" xmlns="http://www.w3.org/2000/svg">
<g id="#ffffffff">
<path fill="#ffffff" opacity="1.00" d=" M 0.00 0.00 L 60.00 0.00 L 60.00 60.00 L 0.00 60.00 L 0.00 0.00 M 25.56 6.65 C 21.29 8.48 16.61 7.79 12.11 8.17 C 10.69 8.18 9.43 9.32 10.00 10.79 C 11.54 12.39 13.95 11.88 15.94 12.05 C 25.31 11.98 34.69 11.98 44.07 12.05 C 46.08 11.91 48.44 12.33 50.04 10.81 C 50.30 9.59 49.85 8.75 48.71 8.29 C 44.46 7.59 40.00 8.61 35.88 7.11 C 32.60 5.86 28.92 5.46 25.56 6.65 M 12.13 16.13 C 11.77 25.77 12.13 35.43 11.96 45.08 C 11.96 47.56 11.85 51.49 15.18 51.78 C 21.10 52.37 27.06 51.84 33.00 52.01 C 37.19 51.89 41.45 52.44 45.58 51.59 C 48.29 50.70 47.92 47.34 48.04 45.09 C 47.87 35.44 48.23 25.78 47.87 16.13 C 35.97 15.89 24.04 15.89 12.13 16.13 Z" />
</g>
<g id="#000000ff">
<path fill="#000000" opacity="1.00" d=" M 25.56 6.65 C 28.92 5.46 32.60 5.86 35.88 7.11 C 40.00 8.61 44.46 7.59 48.71 8.29 C 49.85 8.75 50.30 9.59 50.04 10.81 C 48.44 12.33 46.08 11.91 44.07 12.05 C 34.69 11.98 25.31 11.98 15.94 12.05 C 13.95 11.88 11.54 12.39 10.00 10.79 C 9.43 9.32 10.69 8.18 12.11 8.17 C 16.61 7.79 21.29 8.48 25.56 6.65 Z" />
<path fill="#000000" opacity="1.00" d=" M 12.13 16.13 C 24.04 15.89 35.97 15.89 47.87 16.13 C 48.23 25.78 47.87 35.44 48.04 45.09 C 47.92 47.34 48.29 50.70 45.58 51.59 C 41.45 52.44 37.19 51.89 33.00 52.01 C 27.06 51.84 21.10 52.37 15.18 51.78 C 11.85 51.49 11.96 47.56 11.96 45.08 C 12.13 35.43 11.77 25.77 12.13 16.13 Z" />
</g>
</svg>
