<?xml version="1.0" encoding="UTF-8" ?>
<!DOCTYPE svg PUBLIC "-//W3C//DTD SVG 1.1//EN" "http://www.w3.org/Graphics/SVG/1.1/DTD/svg11.dtd">
<svg width="60pt" height="60pt" viewBox="0 0 60 60" version="1.1" xmlns="http://www.w3.org/2000/svg">
<g id="#ffffffff">
<path fill="#ffffff" opacity="1.00" d=" M 0.00 0.00 L 60.00 0.00 L 60.00 43.36 C 59.50 42.92 58.51 42.05 58.01 41.62 C 58.02 38.41 57.97 35.20 58.01 32.00 C 54.01 32.01 50.01 31.99 46.01 32.00 C 45.99 29.06 45.82 26.09 46.19 23.16 C 47.99 20.97 51.47 22.41 53.93 21.90 C 52.85 20.53 52.18 18.29 50.13 18.17 C 45.46 17.73 40.75 18.12 36.07 18.00 C 36.01 15.25 36.54 10.88 32.94 10.18 C 24.28 9.75 15.59 10.11 6.91 10.00 C 4.55 9.71 1.98 11.38 2.06 13.93 C 1.89 23.21 2.06 32.51 2.00 41.79 C 1.50 42.10 0.50 42.72 0.00 43.03 L 0.00 0.00 Z" />
<path fill="#ffffff" opacity="1.00" d=" M 14.48 16.65 C 21.36 13.70 29.52 20.54 27.81 27.83 C 26.77 35.18 16.80 38.65 11.43 33.51 C 5.77 28.98 7.60 18.92 14.48 16.65 M 16.18 19.11 C 15.85 21.68 15.87 24.30 16.16 26.88 C 17.50 28.30 19.41 29.01 21.17 29.75 C 22.43 30.55 23.99 29.33 24.06 27.98 C 23.72 26.00 21.42 25.66 20.02 24.69 C 20.03 22.84 20.09 20.99 19.83 19.16 C 19.20 17.62 16.85 17.61 16.18 19.11 Z" />
<path fill="#ffffff" opacity="1.00" d=" M 13.32 42.54 C 16.48 40.12 19.98 45.60 16.60 47.51 C 13.46 49.75 10.11 44.49 13.32 42.54 Z" />
<path fill="#ffffff" opacity="1.00" d=" M 45.36 42.51 C 47.21 41.15 50.14 42.72 49.98 45.04 C 50.04 46.99 47.87 48.54 46.06 47.81 C 43.73 47.24 43.31 43.68 45.36 42.51 Z" />
<path fill="#ffffff" opacity="1.00" d=" M 0.00 44.75 C 2.03 46.83 5.26 45.77 7.85 46.04 C 8.95 49.11 11.37 52.12 14.95 51.99 C 18.57 52.17 21.03 49.13 22.15 46.03 C 28.05 45.98 33.95 45.98 39.85 46.03 C 40.94 49.13 43.41 52.15 47.01 51.99 C 50.57 52.14 52.99 49.16 54.13 46.12 C 56.12 46.02 58.21 46.12 60.00 45.10 L 60.00 60.00 L 0.00 60.00 L 0.00 44.75 Z" />
</g>
<g id="#000000ff">
<path fill="#000000" opacity="1.00" d=" M 2.06 13.93 C 1.98 11.38 4.55 9.71 6.91 10.00 C 15.59 10.11 24.28 9.75 32.94 10.18 C 36.54 10.88 36.01 15.25 36.07 18.00 C 40.75 18.12 45.46 17.73 50.13 18.17 C 52.18 18.29 52.85 20.53 53.93 21.90 C 51.47 22.41 47.99 20.97 46.19 23.16 C 45.82 26.09 45.99 29.06 46.01 32.00 C 50.01 31.99 54.01 32.01 58.01 32.00 C 57.97 35.20 58.02 38.41 58.01 41.62 C 58.51 42.05 59.50 42.92 60.00 43.36 L 60.00 45.10 C 58.21 46.12 56.12 46.02 54.13 46.12 C 52.99 49.16 50.57 52.14 47.01 51.99 C 43.41 52.15 40.94 49.13 39.85 46.03 C 33.95 45.98 28.05 45.98 22.15 46.03 C 21.03 49.13 18.57 52.17 14.95 51.99 C 11.37 52.12 8.95 49.11 7.85 46.04 C 5.26 45.77 2.03 46.83 0.00 44.75 L 0.00 43.03 C 0.50 42.72 1.50 42.10 2.00 41.79 C 2.06 32.51 1.89 23.21 2.06 13.93 M 14.48 16.65 C 7.60 18.92 5.77 28.98 11.43 33.51 C 16.80 38.65 26.77 35.18 27.81 27.83 C 29.52 20.54 21.36 13.70 14.48 16.65 M 13.32 42.54 C 10.11 44.49 13.46 49.75 16.60 47.51 C 19.98 45.60 16.48 40.12 13.32 42.54 M 45.36 42.51 C 43.31 43.68 43.73 47.24 46.06 47.81 C 47.87 48.54 50.04 46.99 49.98 45.04 C 50.14 42.72 47.21 41.15 45.36 42.51 Z" />
<path fill="#000000" opacity="1.00" d=" M 16.18 19.11 C 16.85 17.61 19.20 17.62 19.83 19.16 C 20.09 20.99 20.03 22.84 20.02 24.69 C 21.42 25.66 23.72 26.00 24.06 27.98 C 23.99 29.33 22.43 30.55 21.17 29.75 C 19.41 29.01 17.50 28.30 16.16 26.88 C 15.87 24.30 15.85 21.68 16.18 19.11 Z" />
</g>
</svg>
