<?xml version="1.0" encoding="UTF-8" ?>
<!DOCTYPE svg PUBLIC "-//W3C//DTD SVG 1.1//EN" "http://www.w3.org/Graphics/SVG/1.1/DTD/svg11.dtd">
<svg width="64pt" height="64pt" viewBox="0 0 64 64" version="1.1" xmlns="http://www.w3.org/2000/svg">
<g id="#ffffffff">
<path fill="#ffffff" opacity="1.00" d=" M 0.00 0.00 L 64.00 0.00 L 64.00 64.00 L 0.00 64.00 L 0.00 0.00 M 26.47 6.60 C 17.83 8.42 10.39 14.98 7.50 23.33 C 4.31 32.08 6.35 42.47 12.66 49.33 C 18.87 56.40 29.08 59.57 38.20 57.23 C 48.14 54.89 56.17 46.19 57.66 36.08 C 59.10 27.52 55.83 18.39 49.33 12.65 C 43.26 7.12 34.48 4.82 26.47 6.60 Z" />
<path fill="#ffffff" opacity="1.00" d=" M 26.46 10.70 C 33.63 8.81 41.69 10.82 47.05 15.95 C 52.23 20.73 54.80 28.12 53.76 35.08 C 52.83 42.19 48.13 48.64 41.68 51.74 C 34.36 55.42 25.02 54.50 18.59 49.42 C 12.35 44.73 9.03 36.54 10.24 28.83 C 11.36 20.25 18.07 12.78 26.46 10.70 M 23.79 29.71 C 21.77 26.23 17.61 26.55 14.14 26.64 C 14.14 30.11 14.14 33.57 14.14 37.03 C 17.62 37.12 21.73 37.36 23.79 33.92 C 25.54 35.29 27.28 36.68 29.03 38.04 C 31.00 36.49 32.98 34.94 34.95 33.39 C 34.95 34.29 34.96 36.10 34.96 37.00 C 37.36 37.00 39.75 37.00 42.15 37.00 C 42.15 36.24 42.15 34.71 42.15 33.94 C 40.95 33.93 39.75 33.93 38.56 33.92 C 38.56 31.50 38.56 29.08 38.56 26.66 C 37.66 26.67 35.86 26.67 34.97 26.67 C 34.96 27.55 34.96 29.32 34.96 30.21 C 33.05 31.75 31.22 33.55 28.79 34.23 C 30.25 32.29 32.20 30.82 34.10 29.33 C 31.19 26.25 29.03 31.40 26.05 31.97 C 27.07 29.80 29.23 28.59 31.05 27.17 C 30.54 26.77 29.54 25.97 29.03 25.57 C 27.28 26.94 25.53 28.32 23.79 29.71 M 43.11 26.66 C 43.10 30.11 43.10 33.55 43.10 37.00 C 45.50 37.00 47.89 37.00 50.29 37.00 C 50.29 36.23 50.29 34.70 50.29 33.94 C 49.39 33.94 47.61 33.93 46.71 33.93 C 46.70 31.51 46.71 29.09 46.71 26.67 C 45.51 26.67 44.31 26.66 43.11 26.66 Z" />
<path fill="#ffffff" opacity="1.00" d=" M 17.65 29.34 C 18.90 29.76 20.88 30.11 20.62 31.88 C 20.78 33.61 18.83 33.87 17.61 34.23 C 17.61 32.60 17.62 30.97 17.65 29.34 Z" />
</g>
<g id="#000000ff">
<path fill="#000000" opacity="1.00" d=" M 26.47 6.60 C 34.48 4.82 43.26 7.12 49.33 12.65 C 55.83 18.39 59.10 27.52 57.66 36.08 C 56.17 46.19 48.14 54.89 38.20 57.23 C 29.08 59.57 18.87 56.40 12.66 49.33 C 6.35 42.47 4.31 32.08 7.50 23.33 C 10.39 14.98 17.83 8.42 26.47 6.60 M 26.46 10.70 C 18.07 12.78 11.36 20.25 10.24 28.83 C 9.03 36.54 12.35 44.73 18.59 49.42 C 25.02 54.50 34.36 55.42 41.68 51.74 C 48.13 48.64 52.83 42.19 53.76 35.08 C 54.80 28.12 52.23 20.73 47.05 15.95 C 41.69 10.82 33.63 8.81 26.46 10.70 Z" />
<path fill="#000000" opacity="1.00" d=" M 23.79 29.71 C 25.53 28.32 27.28 26.94 29.03 25.57 C 29.54 25.97 30.54 26.77 31.05 27.17 C 29.23 28.59 27.07 29.80 26.05 31.97 C 29.03 31.40 31.19 26.25 34.10 29.33 C 32.20 30.82 30.25 32.29 28.79 34.23 C 31.22 33.55 33.05 31.75 34.96 30.21 C 34.96 29.32 34.96 27.55 34.97 26.67 C 35.86 26.67 37.66 26.67 38.56 26.66 C 38.56 29.08 38.56 31.50 38.56 33.92 C 39.75 33.93 40.95 33.93 42.15 33.94 C 42.15 34.71 42.15 36.24 42.15 37.00 C 39.75 37.00 37.36 37.00 34.96 37.00 C 34.96 36.10 34.95 34.29 34.95 33.39 C 32.98 34.94 31.00 36.49 29.03 38.04 C 27.28 36.68 25.54 35.29 23.79 33.92 C 21.73 37.36 17.62 37.12 14.14 37.03 C 14.14 33.57 14.14 30.11 14.14 26.64 C 17.61 26.55 21.77 26.23 23.79 29.71 M 17.65 29.34 C 17.62 30.97 17.61 32.60 17.61 34.23 C 18.83 33.87 20.78 33.61 20.62 31.88 C 20.88 30.11 18.90 29.76 17.65 29.34 Z" />
<path fill="#000000" opacity="1.00" d=" M 43.11 26.66 C 44.31 26.66 45.51 26.67 46.71 26.67 C 46.71 29.09 46.70 31.51 46.71 33.93 C 47.61 33.93 49.39 33.94 50.29 33.94 C 50.29 34.70 50.29 36.23 50.29 37.00 C 47.89 37.00 45.50 37.00 43.10 37.00 C 43.10 33.55 43.10 30.11 43.11 26.66 Z" />
</g>
</svg>
