<?xml version="1.0" encoding="UTF-8" ?>
<!DOCTYPE svg PUBLIC "-//W3C//DTD SVG 1.1//EN" "http://www.w3.org/Graphics/SVG/1.1/DTD/svg11.dtd">
<svg width="60pt" height="60pt" viewBox="0 0 60 60" version="1.1" xmlns="http://www.w3.org/2000/svg">
<g id="#ffffffff">
<path fill="#ffffff" opacity="1.00" d=" M 0.00 0.00 L 60.00 0.00 L 60.00 60.00 L 0.00 60.00 L 0.00 0.00 M 10.62 14.58 C 8.57 20.30 8.12 26.55 6.67 32.47 C 9.02 30.68 12.13 29.59 13.61 26.88 C 17.43 20.56 21.33 14.30 25.18 8.00 C 20.34 10.21 15.37 12.16 10.62 14.58 M 16.66 29.50 C 21.12 32.81 25.56 36.16 30.01 39.50 C 34.46 36.19 38.89 32.83 43.34 29.51 C 38.92 22.27 34.46 15.05 30.00 7.82 C 25.55 15.04 21.10 22.27 16.66 29.50 M 34.79 7.92 C 38.56 14.16 42.45 20.34 46.22 26.58 C 47.65 29.49 50.91 30.58 53.34 32.46 C 52.32 27.45 51.33 22.43 50.34 17.41 C 49.99 16.29 50.05 14.67 48.74 14.20 C 44.17 11.94 39.42 10.05 34.79 7.92 M 6.53 37.40 C 13.69 42.60 20.87 47.77 27.99 53.02 C 28.00 49.67 28.00 46.33 28.00 42.98 C 23.30 39.50 18.66 35.93 13.95 32.45 C 11.50 34.13 9.02 35.78 6.53 37.40 M 32.00 43.01 C 32.00 46.34 32.00 49.68 32.01 53.01 C 39.18 47.83 46.33 42.62 53.47 37.40 C 51.01 35.74 48.54 34.09 46.07 32.45 C 41.39 35.98 36.69 39.49 32.00 43.01 Z" />
</g>
<g id="#000000ff">
<path fill="#000000" opacity="1.00" d=" M 10.62 14.58 C 15.37 12.16 20.34 10.21 25.18 8.00 C 21.33 14.30 17.43 20.56 13.61 26.88 C 12.13 29.59 9.02 30.68 6.67 32.47 C 8.12 26.55 8.57 20.30 10.62 14.58 Z" />
<path fill="#000000" opacity="1.00" d=" M 16.66 29.50 C 21.10 22.27 25.55 15.04 30.00 7.82 C 34.46 15.05 38.92 22.27 43.34 29.51 C 38.89 32.83 34.46 36.19 30.01 39.50 C 25.56 36.16 21.12 32.81 16.66 29.50 Z" />
<path fill="#000000" opacity="1.00" d=" M 34.79 7.92 C 39.42 10.05 44.17 11.94 48.74 14.20 C 50.05 14.67 49.99 16.29 50.34 17.41 C 51.33 22.43 52.32 27.45 53.34 32.46 C 50.91 30.58 47.65 29.49 46.22 26.58 C 42.45 20.34 38.56 14.16 34.79 7.92 Z" />
<path fill="#000000" opacity="1.00" d=" M 6.53 37.40 C 9.02 35.78 11.50 34.13 13.95 32.45 C 18.66 35.93 23.30 39.50 28.00 42.98 C 28.00 46.33 28.00 49.67 27.99 53.02 C 20.87 47.77 13.69 42.60 6.53 37.40 Z" />
<path fill="#000000" opacity="1.00" d=" M 32.00 43.01 C 36.69 39.49 41.39 35.98 46.07 32.45 C 48.54 34.09 51.01 35.74 53.47 37.40 C 46.33 42.62 39.18 47.83 32.01 53.01 C 32.00 49.68 32.00 46.34 32.00 43.01 Z" />
</g>
</svg>
