<?xml version="1.0" encoding="UTF-8" ?>
<!DOCTYPE svg PUBLIC "-//W3C//DTD SVG 1.1//EN" "http://www.w3.org/Graphics/SVG/1.1/DTD/svg11.dtd">
<svg width="60pt" height="60pt" viewBox="0 0 60 60" version="1.1" xmlns="http://www.w3.org/2000/svg">
<g id="#ffffffff">
<path fill="#ffffff" opacity="1.00" d=" M 0.00 0.00 L 60.00 0.00 L 60.00 60.00 L 0.00 60.00 L 0.00 0.00 M 21.13 10.08 C 18.08 13.89 22.19 20.26 18.00 23.83 C 14.60 21.45 17.42 16.60 14.80 14.13 C 9.30 13.13 14.72 22.94 9.15 21.92 C 8.28 20.96 7.94 19.67 7.27 18.58 C 6.25 17.22 3.83 18.37 4.08 20.00 C 3.90 23.69 3.94 27.39 4.08 31.08 C 4.33 36.90 8.75 41.84 13.92 44.05 C 17.57 43.30 14.88 37.97 18.00 36.17 C 21.10 38.93 19.54 43.24 20.18 46.82 C 20.88 48.74 24.11 48.15 23.89 46.04 C 24.38 44.04 23.02 40.38 25.97 39.96 C 30.06 41.09 26.62 46.76 28.62 49.45 C 29.55 50.41 31.25 50.06 31.79 48.87 C 32.22 46.30 31.82 43.68 32.17 41.11 C 32.87 39.65 35.13 39.63 35.81 41.12 C 36.06 43.02 35.93 44.95 36.21 46.84 C 36.81 48.38 39.17 48.35 39.80 46.85 C 40.49 43.27 38.87 38.93 42.00 36.17 C 45.13 37.97 42.42 43.34 46.09 44.05 C 51.61 41.71 56.13 36.23 55.97 30.02 C 55.76 26.24 56.69 22.13 55.41 18.57 C 52.76 16.46 52.10 20.54 50.79 21.91 C 47.21 22.68 48.16 18.16 47.90 16.02 C 48.17 13.90 44.89 13.20 44.20 15.18 C 43.79 18.16 44.59 21.62 41.99 23.83 C 37.80 20.26 41.96 13.89 38.84 10.09 C 33.28 9.09 38.74 19.00 33.10 17.89 C 30.68 15.98 33.34 11.97 30.84 10.09 C 27.24 9.27 28.15 13.85 27.90 16.00 C 28.26 18.57 23.76 18.61 24.10 16.03 C 23.85 13.85 24.79 9.23 21.13 10.08 Z" />
</g>
<g id="#000000ff">
<path fill="#968176" opacity="1.00" d=" M 21.13 10.08 C 24.79 9.23 23.85 13.85 24.10 16.03 C 23.76 18.61 28.26 18.57 27.90 16.00 C 28.15 13.85 27.24 9.27 30.84 10.09 C 33.34 11.97 30.68 15.98 33.10 17.89 C 38.74 19.00 33.28 9.09 38.84 10.09 C 41.96 13.89 37.80 20.26 41.99 23.83 C 44.59 21.62 43.79 18.16 44.20 15.18 C 44.89 13.20 48.17 13.90 47.90 16.02 C 48.16 18.16 47.21 22.68 50.79 21.91 C 52.10 20.54 52.76 16.46 55.41 18.57 C 56.69 22.13 55.76 26.24 55.97 30.02 C 56.13 36.23 51.61 41.71 46.09 44.05 C 42.42 43.34 45.13 37.97 42.00 36.17 C 38.87 38.93 40.49 43.27 39.80 46.85 C 39.17 48.35 36.81 48.38 36.21 46.84 C 35.93 44.95 36.06 43.02 35.81 41.12 C 35.13 39.63 32.87 39.65 32.17 41.11 C 31.82 43.68 32.22 46.30 31.79 48.87 C 31.25 50.06 29.55 50.41 28.62 49.45 C 26.62 46.76 30.06 41.09 25.97 39.96 C 23.02 40.38 24.38 44.04 23.89 46.04 C 24.11 48.15 20.88 48.74 20.18 46.82 C 19.54 43.24 21.10 38.93 18.00 36.17 C 14.88 37.97 17.57 43.30 13.92 44.05 C 8.75 41.84 4.33 36.90 4.08 31.08 C 3.94 27.39 3.90 23.69 4.08 20.00 C 3.83 18.37 6.25 17.22 7.27 18.58 C 7.94 19.67 8.28 20.96 9.15 21.92 C 14.72 22.94 9.30 13.13 14.80 14.13 C 17.42 16.60 14.60 21.45 18.00 23.83 C 22.19 20.26 18.08 13.89 21.13 10.08 Z" />
</g>
</svg>
