<?xml version="1.0" encoding="UTF-8" ?>
<!DOCTYPE svg PUBLIC "-//W3C//DTD SVG 1.1//EN" "http://www.w3.org/Graphics/SVG/1.1/DTD/svg11.dtd">
<svg width="64pt" height="64pt" viewBox="0 0 64 64" version="1.1" xmlns="http://www.w3.org/2000/svg">
<g id="#ffffffff">
<path fill="#ffffff" opacity="1.00" d=" M 0.00 0.00 L 64.00 0.00 L 64.00 46.92 C 63.50 38.83 56.16 31.84 48.01 32.02 C 44.62 31.92 41.52 33.35 38.59 34.88 C 37.71 34.48 36.83 34.08 35.95 33.68 C 39.73 30.58 42.55 25.92 41.91 20.86 C 41.54 13.80 35.07 7.84 28.01 8.04 C 20.91 7.83 14.40 13.84 14.08 20.93 C 13.52 25.91 16.12 30.66 20.01 33.62 C 12.83 36.82 8.12 44.16 7.88 51.98 C 9.19 51.99 10.51 52.00 11.82 52.00 C 12.19 46.14 15.40 40.42 20.76 37.78 C 25.33 35.22 30.91 35.72 35.55 37.82 C 33.90 40.62 32.19 43.55 32.07 46.89 C 31.23 55.34 38.30 63.31 46.66 64.00 L 0.00 64.00 L 0.00 0.00 Z" />
<path fill="#ffffff" opacity="1.00" d=" M 24.46 12.64 C 31.10 9.83 39.08 15.98 37.91 23.12 C 37.48 30.56 27.74 34.68 22.01 30.01 C 15.77 25.77 17.24 14.96 24.46 12.64 Z" />
<path fill="#ffffff" opacity="1.00" d=" M 44.43 36.58 C 50.70 34.41 58.07 38.58 59.58 45.00 C 61.37 51.19 57.15 58.19 50.89 59.60 C 44.47 61.41 37.25 56.71 36.23 50.14 C 35.04 44.39 38.82 38.23 44.43 36.58 M 40.00 46.00 C 40.00 47.33 40.00 48.67 40.00 50.00 C 45.33 50.00 50.67 50.00 56.00 50.00 C 56.00 48.67 56.00 47.33 56.00 46.00 C 50.67 46.00 45.33 46.00 40.00 46.00 Z" />
<path fill="#ffffff" opacity="1.00" d=" M 49.12 64.00 C 56.79 63.47 63.32 56.96 64.00 49.32 L 64.00 64.00 L 49.12 64.00 Z" />
</g>
<g id="#000000ff">
<path fill="#000000" opacity="1.00" d=" M 14.08 20.93 C 14.40 13.84 20.91 7.83 28.01 8.04 C 35.07 7.84 41.54 13.80 41.91 20.86 C 42.55 25.92 39.73 30.58 35.95 33.68 C 36.83 34.08 37.71 34.48 38.59 34.88 C 41.52 33.35 44.62 31.92 48.01 32.02 C 56.16 31.84 63.50 38.83 64.00 46.92 L 64.00 49.32 C 63.32 56.96 56.79 63.47 49.12 64.00 L 46.66 64.00 C 38.30 63.31 31.23 55.34 32.07 46.89 C 32.19 43.55 33.90 40.62 35.55 37.82 C 30.91 35.72 25.33 35.22 20.76 37.78 C 15.40 40.42 12.19 46.14 11.82 52.00 C 10.51 52.00 9.19 51.99 7.88 51.98 C 8.12 44.16 12.83 36.82 20.01 33.62 C 16.12 30.66 13.52 25.91 14.08 20.93 M 24.46 12.64 C 17.24 14.96 15.77 25.77 22.01 30.01 C 27.74 34.68 37.48 30.56 37.91 23.12 C 39.08 15.98 31.10 9.83 24.46 12.64 M 44.43 36.58 C 38.82 38.23 35.04 44.39 36.23 50.14 C 37.25 56.71 44.47 61.41 50.89 59.60 C 57.15 58.19 61.37 51.19 59.58 45.00 C 58.07 38.58 50.70 34.41 44.43 36.58 Z" />
<path fill="#000000" opacity="1.00" d=" M 40.00 46.00 C 45.33 46.00 50.67 46.00 56.00 46.00 C 56.00 47.33 56.00 48.67 56.00 50.00 C 50.67 50.00 45.33 50.00 40.00 50.00 C 40.00 48.67 40.00 47.33 40.00 46.00 Z" />
</g>
</svg>
