<?xml version="1.0" encoding="UTF-8" ?>
<!DOCTYPE svg PUBLIC "-//W3C//DTD SVG 1.1//EN" "http://www.w3.org/Graphics/SVG/1.1/DTD/svg11.dtd">
<svg width="60pt" height="60pt" viewBox="0 0 60 60" version="1.1" xmlns="http://www.w3.org/2000/svg">
<g id="#ffffffff">
<path fill="#ffffff" opacity="1.00" d=" M 0.00 0.00 L 60.00 0.00 L 60.00 60.00 L 0.00 60.00 L 0.00 0.00 M 14.38 8.35 C 12.60 9.12 11.85 11.10 12.00 12.93 C 12.02 18.63 11.91 24.34 12.05 30.04 C 11.91 32.62 14.55 34.30 16.91 34.00 C 25.97 33.97 35.04 34.08 44.09 33.94 C 46.16 33.97 47.99 32.13 47.94 30.07 C 48.05 24.01 48.05 17.93 47.94 11.87 C 47.98 9.32 45.42 7.66 43.04 8.00 C 33.50 8.22 23.87 7.53 14.38 8.35 M 9.38 38.46 C 6.86 39.31 4.88 41.51 4.24 44.09 C 3.11 48.78 6.93 54.07 11.88 53.95 C 24.26 54.09 36.65 53.94 49.03 54.02 C 50.66 53.83 52.86 54.51 53.91 52.81 C 54.31 51.49 53.48 49.96 51.97 50.07 C 38.98 49.88 25.98 50.07 12.98 50.00 C 11.17 50.11 9.09 49.51 8.36 47.68 C 7.11 45.23 9.09 41.90 11.90 42.05 C 24.62 41.91 37.34 42.05 50.06 42.01 C 51.30 41.84 53.26 42.35 53.79 40.79 C 54.56 39.68 53.38 37.92 52.07 38.09 C 40.05 37.86 28.03 38.09 16.02 37.98 C 13.81 38.03 11.53 37.82 9.38 38.46 M 13.21 44.08 C 10.81 45.08 12.48 49.02 14.75 47.79 C 17.24 46.98 15.55 43.09 13.21 44.08 M 21.13 44.11 C 18.85 45.17 20.47 48.95 22.73 47.80 C 25.27 46.97 23.52 43.02 21.13 44.11 M 29.22 44.09 C 26.82 45.14 28.40 48.90 30.85 47.88 C 33.11 46.76 31.62 43.21 29.22 44.09 M 37.07 44.10 C 34.91 45.26 36.47 48.92 38.73 47.81 C 41.30 46.94 39.48 43.03 37.07 44.10 M 45.16 44.10 C 42.83 45.15 44.46 48.97 46.81 47.81 C 49.20 46.83 47.53 43.09 45.16 44.10 Z" />
<path fill="#ffffff" opacity="1.00" d=" M 25.14 12.20 C 28.34 11.84 31.62 11.84 34.83 12.19 C 36.74 12.93 36.12 16.08 34.04 15.92 C 31.09 16.06 28.10 16.19 25.16 15.81 C 23.63 15.16 23.62 12.87 25.14 12.20 Z" />
</g>
<g id="#000000ff">
<path fill="#000000" opacity="1.00" d=" M 14.38 8.35 C 23.87 7.53 33.50 8.22 43.04 8.00 C 45.42 7.66 47.98 9.32 47.94 11.87 C 48.05 17.93 48.05 24.01 47.94 30.07 C 47.99 32.13 46.16 33.97 44.09 33.94 C 35.04 34.08 25.97 33.97 16.91 34.00 C 14.55 34.30 11.91 32.62 12.05 30.04 C 11.91 24.34 12.02 18.63 12.00 12.93 C 11.85 11.10 12.60 9.12 14.38 8.35 M 25.14 12.20 C 23.62 12.87 23.63 15.16 25.16 15.81 C 28.10 16.19 31.09 16.06 34.04 15.92 C 36.12 16.08 36.74 12.93 34.83 12.19 C 31.62 11.84 28.34 11.84 25.14 12.20 Z" />
<path fill="#000000" opacity="1.00" d=" M 9.38 38.46 C 11.53 37.82 13.81 38.03 16.02 37.98 C 28.03 38.09 40.05 37.86 52.07 38.09 C 53.38 37.92 54.56 39.68 53.79 40.79 C 53.26 42.35 51.30 41.84 50.06 42.01 C 37.34 42.05 24.62 41.91 11.90 42.05 C 9.09 41.90 7.11 45.23 8.36 47.68 C 9.09 49.51 11.17 50.11 12.98 50.00 C 25.98 50.07 38.98 49.88 51.97 50.07 C 53.48 49.96 54.31 51.49 53.91 52.81 C 52.86 54.51 50.66 53.83 49.03 54.02 C 36.65 53.94 24.26 54.09 11.88 53.95 C 6.93 54.07 3.11 48.78 4.24 44.09 C 4.88 41.51 6.86 39.31 9.38 38.46 Z" />
<path fill="#000000" opacity="1.00" d=" M 13.21 44.08 C 15.55 43.09 17.24 46.98 14.75 47.79 C 12.48 49.02 10.81 45.08 13.21 44.08 Z" />
<path fill="#000000" opacity="1.00" d=" M 21.13 44.11 C 23.52 43.02 25.27 46.97 22.73 47.80 C 20.47 48.95 18.85 45.17 21.13 44.11 Z" />
<path fill="#000000" opacity="1.00" d=" M 29.22 44.09 C 31.62 43.21 33.11 46.76 30.85 47.88 C 28.40 48.90 26.82 45.14 29.22 44.09 Z" />
<path fill="#000000" opacity="1.00" d=" M 37.07 44.10 C 39.48 43.03 41.30 46.94 38.73 47.81 C 36.47 48.92 34.91 45.26 37.07 44.10 Z" />
<path fill="#000000" opacity="1.00" d=" M 45.16 44.10 C 47.53 43.09 49.20 46.83 46.81 47.81 C 44.46 48.97 42.83 45.15 45.16 44.10 Z" />
</g>
</svg>
