<?xml version="1.0" encoding="UTF-8" ?>
<!DOCTYPE svg PUBLIC "-//W3C//DTD SVG 1.1//EN" "http://www.w3.org/Graphics/SVG/1.1/DTD/svg11.dtd">
<svg width="64pt" height="64pt" viewBox="0 0 64 64" version="1.1" xmlns="http://www.w3.org/2000/svg">
<g id="#ffffffff">
<path fill="#ffffff" opacity="1.00" d=" M 0.00 0.00 L 64.00 0.00 L 64.00 64.00 L 0.00 64.00 L 0.00 0.00 M 21.83 7.60 C 13.33 10.91 7.39 19.95 8.08 29.10 C 8.34 33.94 10.89 38.17 12.66 42.55 C 14.80 47.42 13.77 52.86 13.99 58.00 C 15.33 58.00 16.66 58.00 18.00 58.00 C 17.95 54.30 18.14 50.58 17.90 46.88 C 17.40 40.54 12.73 35.46 12.09 29.16 C 11.38 21.64 16.20 14.14 23.16 11.36 C 31.20 8.00 42.06 10.81 45.82 19.14 C 47.82 24.47 50.53 29.48 53.03 34.59 C 51.36 35.10 49.68 35.60 48.00 36.11 C 47.83 39.44 48.85 43.49 46.09 46.07 C 44.05 48.40 40.77 47.98 38.00 48.04 C 38.00 51.36 38.00 54.68 38.00 58.00 C 39.33 58.00 40.67 58.00 42.00 58.00 C 42.00 56.06 42.00 54.12 42.00 52.18 C 48.36 51.62 52.96 45.49 52.08 39.22 C 54.44 38.51 57.56 37.00 56.84 33.96 C 55.05 28.49 51.60 23.71 49.80 18.21 C 45.52 7.64 32.00 3.35 21.83 7.60 M 21.07 20.37 C 16.91 21.30 14.72 26.52 16.79 30.20 C 17.74 32.31 19.94 33.25 21.90 34.16 C 21.95 32.79 21.99 31.41 22.04 30.04 C 21.32 29.36 20.60 28.69 19.87 28.03 C 19.59 24.72 22.72 23.25 25.53 24.43 C 26.33 22.14 28.06 19.36 30.92 20.09 C 33.62 20.67 34.13 23.66 34.14 25.97 C 36.04 26.26 38.64 25.27 39.90 27.19 C 40.71 29.71 37.79 30.14 36.00 30.16 C 36.00 31.49 36.00 32.81 36.00 34.13 C 39.07 34.24 42.69 33.22 43.66 29.93 C 45.18 25.97 41.75 22.10 37.85 21.78 C 36.43 18.26 32.91 15.35 28.93 16.11 C 25.64 16.24 24.19 19.85 21.07 20.37 M 24.00 28.00 C 24.00 31.33 24.00 34.67 24.00 38.00 C 25.33 38.00 26.67 38.00 28.00 38.00 C 28.00 34.67 28.00 31.33 28.00 28.00 C 26.67 28.00 25.33 28.00 24.00 28.00 M 30.00 32.00 C 30.00 35.33 30.00 38.67 30.00 42.00 C 31.33 42.00 32.67 42.00 34.00 42.00 C 34.00 38.67 34.00 35.33 34.00 32.00 C 32.67 32.00 31.33 32.00 30.00 32.00 Z" />
</g>
<g id="#000000ff">
<path fill="#000000" opacity="1.00" d=" M 21.83 7.60 C 32.00 3.35 45.52 7.64 49.80 18.21 C 51.60 23.71 55.05 28.49 56.84 33.96 C 57.56 37.00 54.44 38.51 52.08 39.22 C 52.96 45.49 48.36 51.62 42.00 52.18 C 42.00 54.12 42.00 56.06 42.00 58.00 C 40.67 58.00 39.33 58.00 38.00 58.00 C 38.00 54.68 38.00 51.36 38.00 48.04 C 40.77 47.98 44.05 48.40 46.09 46.07 C 48.85 43.49 47.83 39.44 48.00 36.11 C 49.68 35.60 51.36 35.10 53.03 34.59 C 50.53 29.48 47.82 24.47 45.82 19.14 C 42.06 10.81 31.20 8.00 23.16 11.36 C 16.20 14.14 11.38 21.64 12.09 29.16 C 12.73 35.46 17.40 40.54 17.90 46.88 C 18.14 50.58 17.95 54.30 18.00 58.00 C 16.66 58.00 15.33 58.00 13.99 58.00 C 13.77 52.86 14.80 47.42 12.66 42.55 C 10.89 38.17 8.34 33.94 8.08 29.10 C 7.39 19.95 13.33 10.91 21.83 7.60 Z" />
<path fill="#000000" opacity="1.00" d=" M 21.07 20.37 C 24.19 19.85 25.64 16.24 28.93 16.11 C 32.91 15.35 36.43 18.26 37.85 21.78 C 41.75 22.10 45.18 25.97 43.66 29.93 C 42.69 33.22 39.07 34.24 36.00 34.13 C 36.00 32.81 36.00 31.49 36.00 30.16 C 37.79 30.14 40.71 29.71 39.90 27.19 C 38.64 25.27 36.04 26.26 34.14 25.97 C 34.13 23.66 33.62 20.67 30.92 20.09 C 28.06 19.36 26.33 22.14 25.53 24.43 C 22.72 23.25 19.59 24.72 19.87 28.03 C 20.60 28.69 21.32 29.36 22.04 30.04 C 21.99 31.41 21.95 32.79 21.90 34.16 C 19.94 33.25 17.74 32.31 16.79 30.20 C 14.72 26.52 16.91 21.30 21.07 20.37 Z" />
<path fill="#000000" opacity="1.00" d=" M 24.00 28.00 C 25.33 28.00 26.67 28.00 28.00 28.00 C 28.00 31.33 28.00 34.67 28.00 38.00 C 26.67 38.00 25.33 38.00 24.00 38.00 C 24.00 34.67 24.00 31.33 24.00 28.00 Z" />
<path fill="#000000" opacity="1.00" d=" M 30.00 32.00 C 31.33 32.00 32.67 32.00 34.00 32.00 C 34.00 35.33 34.00 38.67 34.00 42.00 C 32.67 42.00 31.33 42.00 30.00 42.00 C 30.00 38.67 30.00 35.33 30.00 32.00 Z" />
</g>
</svg>
