<?xml version="1.0" encoding="UTF-8" ?>
<!DOCTYPE svg PUBLIC "-//W3C//DTD SVG 1.1//EN" "http://www.w3.org/Graphics/SVG/1.1/DTD/svg11.dtd">
<svg width="64pt" height="64pt" viewBox="0 0 64 64" version="1.1" xmlns="http://www.w3.org/2000/svg">
<g id="#ffffffff">
<path fill="#ffffff" opacity="1.00" d=" M 0.00 0.00 L 64.00 0.00 L 64.00 64.00 L 0.00 64.00 L 0.00 0.00 M 30.00 8.00 C 30.01 13.99 29.99 19.98 30.01 25.98 C 28.14 25.99 26.27 26.00 24.40 26.06 C 26.69 28.91 29.43 31.34 32.00 33.93 C 34.59 31.35 37.35 28.91 39.64 26.06 C 37.76 26.00 35.88 25.99 33.99 25.98 C 34.01 19.98 33.99 13.99 34.00 8.00 C 32.67 8.00 31.33 8.00 30.00 8.00 M 6.00 12.00 C 6.00 25.33 6.00 38.67 6.00 52.00 C 23.33 52.00 40.67 52.00 58.00 52.00 C 58.00 38.67 58.00 25.33 58.00 12.00 C 51.33 12.00 44.67 12.00 38.00 12.00 C 38.00 13.33 38.00 14.67 38.00 16.00 C 43.33 16.00 48.67 16.01 54.00 16.00 C 53.99 26.67 54.00 37.34 54.00 48.00 C 52.67 48.00 51.34 48.00 50.00 48.00 C 50.00 45.33 50.00 42.67 50.00 40.00 C 38.00 40.00 26.00 40.00 14.00 40.00 C 14.00 42.67 14.00 45.34 13.99 48.00 C 12.66 48.00 11.33 48.00 10.00 48.00 C 10.00 37.33 10.00 26.67 10.00 16.00 C 15.33 16.01 20.67 15.99 26.00 16.00 C 26.00 14.67 26.00 13.33 26.00 12.00 C 19.33 12.00 12.67 12.00 6.00 12.00 Z" />
<path fill="#ffffff" opacity="1.00" d=" M 18.00 44.00 C 19.33 44.00 20.67 44.00 22.00 44.00 C 22.00 45.33 22.00 46.67 22.00 48.00 C 20.67 48.00 19.33 48.00 18.00 48.00 C 18.00 46.67 18.00 45.33 18.00 44.00 Z" />
<path fill="#ffffff" opacity="1.00" d=" M 26.01 43.97 C 27.29 44.00 28.58 44.03 29.87 44.06 C 29.86 45.35 29.86 46.64 29.88 47.94 C 28.59 47.96 27.29 47.99 26.00 48.03 C 26.01 46.68 26.01 45.32 26.01 43.97 Z" />
<path fill="#ffffff" opacity="1.00" d=" M 33.85 44.00 C 35.24 44.00 36.62 44.00 38.00 44.00 C 38.00 45.33 38.00 46.67 38.00 48.00 C 36.62 48.00 35.23 48.00 33.85 48.00 C 33.84 46.67 33.84 45.33 33.85 44.00 Z" />
<path fill="#ffffff" opacity="1.00" d=" M 42.00 44.00 C 43.33 44.00 44.67 44.00 46.00 44.00 C 46.00 45.33 46.00 46.67 46.00 48.00 C 44.67 48.00 43.33 48.00 42.00 48.00 C 42.00 46.67 42.00 45.33 42.00 44.00 Z" />
</g>
<g id="#000000ff">
<path fill="#000000" opacity="1.00" d=" M 30.00 8.00 C 31.33 8.00 32.67 8.00 34.00 8.00 C 33.99 13.99 34.01 19.98 33.99 25.98 C 35.88 25.99 37.76 26.00 39.64 26.06 C 37.35 28.91 34.59 31.35 32.00 33.93 C 29.43 31.34 26.69 28.91 24.40 26.06 C 26.27 26.00 28.14 25.99 30.01 25.98 C 29.99 19.98 30.01 13.99 30.00 8.00 Z" />
<path fill="#000000" opacity="1.00" d=" M 6.00 12.00 C 12.67 12.00 19.33 12.00 26.00 12.00 C 26.00 13.33 26.00 14.67 26.00 16.00 C 20.67 15.99 15.33 16.01 10.00 16.00 C 10.00 26.67 10.00 37.33 10.00 48.00 C 11.33 48.00 12.66 48.00 13.99 48.00 C 14.00 45.34 14.00 42.67 14.00 40.00 C 26.00 40.00 38.00 40.00 50.00 40.00 C 50.00 42.67 50.00 45.33 50.00 48.00 C 51.34 48.00 52.67 48.00 54.00 48.00 C 54.00 37.34 53.99 26.67 54.00 16.00 C 48.67 16.01 43.33 16.00 38.00 16.00 C 38.00 14.67 38.00 13.33 38.00 12.00 C 44.67 12.00 51.33 12.00 58.00 12.00 C 58.00 25.33 58.00 38.67 58.00 52.00 C 40.67 52.00 23.33 52.00 6.00 52.00 C 6.00 38.67 6.00 25.33 6.00 12.00 M 18.00 44.00 C 18.00 45.33 18.00 46.67 18.00 48.00 C 19.33 48.00 20.67 48.00 22.00 48.00 C 22.00 46.67 22.00 45.33 22.00 44.00 C 20.67 44.00 19.33 44.00 18.00 44.00 M 26.01 43.97 C 26.01 45.32 26.01 46.68 26.00 48.03 C 27.29 47.99 28.59 47.96 29.88 47.94 C 29.86 46.64 29.86 45.35 29.87 44.06 C 28.58 44.03 27.29 44.00 26.01 43.97 M 33.85 44.00 C 33.84 45.33 33.84 46.67 33.85 48.00 C 35.23 48.00 36.62 48.00 38.00 48.00 C 38.00 46.67 38.00 45.33 38.00 44.00 C 36.62 44.00 35.24 44.00 33.85 44.00 M 42.00 44.00 C 42.00 45.33 42.00 46.67 42.00 48.00 C 43.33 48.00 44.67 48.00 46.00 48.00 C 46.00 46.67 46.00 45.33 46.00 44.00 C 44.67 44.00 43.33 44.00 42.00 44.00 Z" />
</g>
</svg>
