<?xml version="1.0" encoding="UTF-8" ?>
<!DOCTYPE svg PUBLIC "-//W3C//DTD SVG 1.1//EN" "http://www.w3.org/Graphics/SVG/1.1/DTD/svg11.dtd">
<svg width="60pt" height="60pt" viewBox="0 0 60 60" version="1.1" xmlns="http://www.w3.org/2000/svg">
<g id="#ffffffff">
<path fill="#ffffff" opacity="1.00" d=" M 0.00 0.00 L 60.00 0.00 L 60.00 60.00 L 0.00 60.00 L 0.00 0.00 M 12.05 5.86 C 11.91 11.90 12.04 17.94 12.00 23.99 C 13.30 21.97 14.82 20.08 15.90 17.93 C 16.18 13.96 15.92 9.97 16.00 6.00 C 17.94 6.00 19.89 6.00 21.83 6.03 C 23.23 7.30 24.92 8.28 26.89 8.01 C 30.67 7.72 35.23 9.13 38.17 6.03 C 40.11 5.99 42.06 6.00 44.00 6.00 C 44.08 9.98 43.82 13.97 44.11 17.95 C 45.20 20.09 46.70 21.98 48.00 23.99 C 47.95 17.97 48.09 11.95 47.96 5.94 C 47.99 3.90 46.18 1.95 44.09 2.04 C 35.03 1.93 25.97 2.03 16.90 2.00 C 14.58 1.64 12.02 3.39 12.05 5.86 M 20.70 20.58 C 18.33 23.61 15.64 26.53 13.94 29.99 C 15.61 33.46 18.33 36.35 20.66 39.39 C 21.89 41.06 24.97 39.00 23.75 37.23 C 22.27 34.64 20.23 32.42 18.49 30.00 C 20.25 27.56 22.29 25.31 23.82 22.71 C 24.87 20.86 21.98 18.93 20.70 20.58 M 36.19 22.73 C 37.74 25.30 39.75 27.56 41.50 30.00 C 39.76 32.43 37.76 34.67 36.22 37.24 C 35.05 39.06 38.12 41.03 39.34 39.39 C 41.60 36.61 43.87 33.80 45.77 30.76 C 46.61 29.55 45.11 28.41 44.60 27.41 C 42.69 24.98 41.01 22.35 38.84 20.14 C 37.23 19.42 35.37 21.06 36.19 22.73 M 12.00 36.02 C 12.05 42.05 11.91 48.09 12.05 54.12 C 11.95 56.63 14.58 58.32 16.90 58.00 C 25.96 57.97 35.03 58.07 44.10 57.95 C 46.15 57.98 48.01 56.10 47.96 54.04 C 48.09 48.03 47.95 42.02 48.00 36.01 C 46.70 38.02 45.19 39.91 44.11 42.05 C 43.82 46.02 44.09 50.02 44.00 54.00 C 34.67 54.00 25.33 54.00 16.00 54.00 C 15.92 50.00 16.18 46.00 15.89 42.01 C 14.79 39.89 13.29 38.01 12.00 36.02 Z" />
<path fill="#ffffff" opacity="1.00" d=" M 26.20 4.02 C 28.06 4.01 29.93 4.01 31.79 4.02 C 31.79 4.51 31.78 5.49 31.78 5.98 C 29.93 5.99 28.07 5.99 26.22 5.98 C 26.21 5.49 26.20 4.51 26.20 4.02 Z" />
<path fill="#ffffff" opacity="1.00" d=" M 34.17 4.17 C 35.79 3.65 36.34 4.20 35.82 5.82 C 34.20 6.34 33.65 5.79 34.17 4.17 Z" />
</g>
<g id="#000000ff">
<path fill="#000000" opacity="1.00" d=" M 12.05 5.86 C 12.02 3.39 14.58 1.64 16.90 2.00 C 25.97 2.03 35.03 1.93 44.09 2.04 C 46.18 1.95 47.99 3.90 47.96 5.94 C 48.09 11.95 47.95 17.97 48.00 23.99 C 46.70 21.98 45.20 20.09 44.11 17.95 C 43.82 13.97 44.08 9.98 44.00 6.00 C 42.06 6.00 40.11 5.99 38.17 6.03 C 35.23 9.13 30.67 7.72 26.89 8.01 C 24.92 8.28 23.23 7.30 21.83 6.03 C 19.89 6.00 17.94 6.00 16.00 6.00 C 15.92 9.97 16.18 13.96 15.90 17.93 C 14.82 20.08 13.30 21.97 12.00 23.99 C 12.04 17.94 11.91 11.90 12.05 5.86 M 26.20 4.02 C 26.20 4.51 26.21 5.49 26.22 5.98 C 28.07 5.99 29.93 5.99 31.78 5.98 C 31.78 5.49 31.79 4.51 31.79 4.02 C 29.93 4.01 28.06 4.01 26.20 4.02 M 34.17 4.17 C 33.65 5.79 34.20 6.34 35.82 5.82 C 36.34 4.20 35.79 3.65 34.17 4.17 Z" />
<path fill="#000000" opacity="1.00" d=" M 20.70 20.58 C 21.98 18.93 24.87 20.86 23.82 22.71 C 22.29 25.31 20.25 27.56 18.49 30.00 C 20.23 32.42 22.27 34.64 23.75 37.23 C 24.97 39.00 21.89 41.06 20.66 39.39 C 18.33 36.35 15.61 33.46 13.94 29.99 C 15.64 26.53 18.33 23.61 20.70 20.58 Z" />
<path fill="#000000" opacity="1.00" d=" M 36.19 22.73 C 35.37 21.06 37.23 19.42 38.84 20.14 C 41.01 22.35 42.69 24.98 44.60 27.41 C 45.11 28.41 46.61 29.55 45.77 30.76 C 43.87 33.80 41.60 36.61 39.34 39.39 C 38.12 41.03 35.05 39.06 36.22 37.24 C 37.76 34.67 39.76 32.43 41.50 30.00 C 39.75 27.56 37.74 25.30 36.19 22.73 Z" />
<path fill="#000000" opacity="1.00" d=" M 12.00 36.02 C 13.29 38.01 14.79 39.89 15.89 42.01 C 16.18 46.00 15.92 50.00 16.00 54.00 C 25.33 54.00 34.67 54.00 44.00 54.00 C 44.09 50.02 43.82 46.02 44.11 42.05 C 45.19 39.91 46.70 38.02 48.00 36.01 C 47.95 42.02 48.09 48.03 47.96 54.04 C 48.01 56.10 46.15 57.98 44.10 57.95 C 35.03 58.07 25.96 57.97 16.90 58.00 C 14.58 58.32 11.95 56.63 12.05 54.12 C 11.91 48.09 12.05 42.05 12.00 36.02 Z" />
</g>
</svg>
