<?xml version="1.0" encoding="UTF-8" ?>
<!DOCTYPE svg PUBLIC "-//W3C//DTD SVG 1.1//EN" "http://www.w3.org/Graphics/SVG/1.1/DTD/svg11.dtd">
<svg width="64pt" height="64pt" viewBox="0 0 64 64" version="1.1" xmlns="http://www.w3.org/2000/svg">
<g id="#ffffffff">
<path fill="#ffffff" opacity="1.00" d=" M 0.00 0.00 L 64.00 0.00 L 64.00 64.00 L 0.00 64.00 L 0.00 0.00 M 16.12 10.97 C 15.84 14.47 16.07 17.99 16.00 21.50 C 17.30 20.20 18.61 18.92 19.94 17.65 C 20.00 15.77 20.00 13.88 20.01 12.00 C 28.00 12.00 36.00 12.00 43.99 12.00 C 44.00 13.85 44.00 15.71 44.03 17.56 C 45.36 18.86 46.68 20.18 47.99 21.51 C 47.93 18.01 48.16 14.51 47.88 11.02 C 47.38 9.39 45.88 7.94 44.09 8.04 C 36.01 7.97 27.92 7.97 19.84 8.04 C 18.11 8.00 16.66 9.41 16.12 10.97 M 13.19 30.00 C 16.33 33.13 19.45 36.29 22.61 39.41 C 23.54 38.47 24.47 37.53 25.41 36.59 C 23.25 34.37 21.04 32.20 18.86 30.00 C 21.04 27.79 23.24 25.61 25.42 23.41 C 24.48 22.48 23.54 21.53 22.60 20.59 C 19.45 23.71 16.33 26.86 13.19 30.00 M 41.39 20.60 C 40.46 21.53 39.53 22.46 38.60 23.39 C 40.77 25.61 42.99 27.79 45.17 30.00 C 42.99 32.20 40.80 34.38 38.61 36.58 C 39.53 37.52 40.45 38.46 41.37 39.40 C 44.58 36.32 47.69 33.14 50.84 30.00 C 47.70 26.86 44.58 23.69 41.39 20.60 M 16.01 38.50 C 16.04 43.04 15.93 47.58 16.04 52.12 C 15.97 54.17 17.91 55.99 19.92 55.96 C 27.98 56.02 36.04 56.03 44.09 55.96 C 46.15 56.03 48.04 54.13 47.96 52.08 C 48.08 47.55 47.96 43.02 48.00 38.49 C 46.70 39.81 45.39 41.11 44.05 42.38 C 43.97 45.58 44.00 48.79 44.00 52.00 C 36.00 52.00 28.00 52.00 20.00 52.00 C 19.99 48.78 20.05 45.55 19.93 42.33 C 18.60 41.07 17.29 39.80 16.01 38.50 M 28.00 46.00 C 28.00 47.33 28.00 48.67 28.00 50.00 C 30.67 50.00 33.33 50.00 36.00 50.00 C 36.00 48.67 36.00 47.33 36.00 46.00 C 33.33 46.00 30.67 46.00 28.00 46.00 Z" />
</g>
<g id="#000000ff">
<path fill="#000000" opacity="1.00" d=" M 16.12 10.97 C 16.66 9.41 18.11 8.00 19.84 8.04 C 27.92 7.97 36.01 7.97 44.09 8.04 C 45.88 7.94 47.38 9.39 47.88 11.02 C 48.16 14.51 47.93 18.01 47.99 21.51 C 46.68 20.18 45.36 18.86 44.03 17.56 C 44.00 15.71 44.00 13.85 43.99 12.00 C 36.00 12.00 28.00 12.00 20.01 12.00 C 20.00 13.88 20.00 15.77 19.94 17.65 C 18.61 18.92 17.30 20.20 16.00 21.50 C 16.07 17.99 15.84 14.47 16.12 10.97 Z" />
<path fill="#000000" opacity="1.00" d=" M 13.19 30.00 C 16.33 26.86 19.45 23.71 22.60 20.59 C 23.54 21.53 24.48 22.48 25.42 23.41 C 23.24 25.61 21.04 27.79 18.86 30.00 C 21.04 32.20 23.25 34.37 25.41 36.59 C 24.47 37.53 23.54 38.47 22.61 39.41 C 19.45 36.29 16.33 33.13 13.19 30.00 Z" />
<path fill="#000000" opacity="1.00" d=" M 41.39 20.60 C 44.58 23.69 47.70 26.86 50.84 30.00 C 47.69 33.14 44.58 36.32 41.37 39.40 C 40.45 38.46 39.53 37.52 38.61 36.58 C 40.80 34.38 42.99 32.20 45.17 30.00 C 42.99 27.79 40.77 25.61 38.60 23.39 C 39.53 22.46 40.46 21.53 41.39 20.60 Z" />
<path fill="#000000" opacity="1.00" d=" M 16.01 38.50 C 17.29 39.80 18.60 41.07 19.93 42.33 C 20.05 45.55 19.99 48.78 20.00 52.00 C 28.00 52.00 36.00 52.00 44.00 52.00 C 44.00 48.79 43.97 45.58 44.05 42.38 C 45.39 41.11 46.70 39.81 48.00 38.49 C 47.96 43.02 48.08 47.55 47.96 52.08 C 48.04 54.13 46.15 56.03 44.09 55.96 C 36.04 56.03 27.98 56.02 19.92 55.96 C 17.91 55.99 15.97 54.17 16.04 52.12 C 15.93 47.58 16.04 43.04 16.01 38.50 Z" />
<path fill="#000000" opacity="1.00" d=" M 28.00 46.00 C 30.67 46.00 33.33 46.00 36.00 46.00 C 36.00 47.33 36.00 48.67 36.00 50.00 C 33.33 50.00 30.67 50.00 28.00 50.00 C 28.00 48.67 28.00 47.33 28.00 46.00 Z" />
</g>
</svg>
