<?xml version="1.0" encoding="UTF-8" ?>
<!DOCTYPE svg PUBLIC "-//W3C//DTD SVG 1.1//EN" "http://www.w3.org/Graphics/SVG/1.1/DTD/svg11.dtd">
<svg width="60pt" height="60pt" viewBox="0 0 60 60" version="1.1" xmlns="http://www.w3.org/2000/svg">
<g id="#ffffffff">
<path fill="#ffffff" opacity="1.00" d=" M 0.00 0.00 L 60.00 0.00 L 60.00 60.00 L 0.00 60.00 L 0.00 0.00 M 16.34 4.39 C 14.58 5.13 13.86 7.13 14.00 8.93 C 14.04 23.31 13.92 37.70 14.06 52.08 C 13.94 54.62 16.54 56.29 18.88 56.00 C 26.61 55.97 34.36 56.08 42.09 55.94 C 44.63 56.00 46.31 53.41 46.00 51.04 C 45.96 36.67 46.08 22.28 45.94 7.90 C 46.00 5.36 43.45 3.66 41.07 4.00 C 32.84 4.24 24.50 3.48 16.34 4.39 Z" />
<path fill="#ffffff" opacity="1.00" d=" M 18.00 10.00 C 26.00 10.00 34.00 10.00 42.00 10.00 C 42.00 23.33 42.00 36.67 42.00 50.00 C 39.40 50.00 36.80 50.00 34.19 49.98 C 33.92 50.47 33.36 51.44 33.08 51.93 C 30.49 51.81 27.03 52.94 25.58 50.03 C 23.06 49.99 20.53 49.98 18.00 50.01 C 18.00 36.67 18.00 23.33 18.00 10.00 M 28.36 17.52 C 25.07 19.47 28.49 24.78 31.65 22.49 C 34.91 20.53 31.51 15.21 28.36 17.52 M 27.12 26.16 C 25.04 27.27 26.35 29.62 27.97 30.42 C 28.01 32.80 28.03 35.19 27.96 37.57 C 26.40 38.39 25.01 40.69 27.12 41.80 C 29.69 42.19 34.27 42.94 34.13 39.02 C 33.59 38.71 32.52 38.11 31.98 37.80 C 31.93 34.27 32.24 30.71 31.82 27.19 C 30.96 25.44 28.68 25.99 27.12 26.16 Z" />
</g>
<g id="#000000ff">
<path fill="#000000" opacity="1.00" d=" M 16.34 4.39 C 24.50 3.48 32.84 4.24 41.07 4.00 C 43.45 3.66 46.00 5.36 45.94 7.90 C 46.08 22.28 45.96 36.67 46.00 51.04 C 46.31 53.41 44.63 56.00 42.09 55.94 C 34.36 56.08 26.61 55.97 18.88 56.00 C 16.54 56.29 13.94 54.62 14.06 52.08 C 13.92 37.70 14.04 23.31 14.00 8.93 C 13.86 7.13 14.58 5.13 16.34 4.39 M 18.00 10.00 C 18.00 23.33 18.00 36.67 18.00 50.01 C 20.53 49.98 23.06 49.99 25.58 50.03 C 27.03 52.94 30.49 51.81 33.08 51.93 C 33.36 51.44 33.92 50.47 34.19 49.98 C 36.80 50.00 39.40 50.00 42.00 50.00 C 42.00 36.67 42.00 23.33 42.00 10.00 C 34.00 10.00 26.00 10.00 18.00 10.00 Z" />
<path fill="#000000" opacity="1.00" d=" M 28.36 17.52 C 31.51 15.21 34.91 20.53 31.65 22.49 C 28.49 24.78 25.07 19.47 28.36 17.52 Z" />
<path fill="#000000" opacity="1.00" d=" M 27.12 26.16 C 28.68 25.99 30.96 25.44 31.82 27.19 C 32.24 30.71 31.93 34.27 31.98 37.80 C 32.52 38.11 33.59 38.71 34.13 39.02 C 34.27 42.94 29.69 42.19 27.12 41.80 C 25.01 40.69 26.40 38.39 27.96 37.57 C 28.03 35.19 28.01 32.80 27.97 30.42 C 26.35 29.62 25.04 27.27 27.12 26.16 Z" />
</g>
</svg>
