<?xml version="1.0" encoding="UTF-8" ?>
<!DOCTYPE svg PUBLIC "-//W3C//DTD SVG 1.1//EN" "http://www.w3.org/Graphics/SVG/1.1/DTD/svg11.dtd">
<svg width="64pt" height="64pt" viewBox="0 0 64 64" version="1.1" xmlns="http://www.w3.org/2000/svg">
<g id="#ffffffff">
<path fill="#ffffff" opacity="1.00" d=" M 0.00 0.00 L 64.00 0.00 L 64.00 64.00 L 0.00 64.00 L 0.00 0.00 M 9.95 32.00 C 17.30 41.33 24.67 50.65 32.00 59.99 C 39.36 50.66 46.70 41.32 54.07 32.00 C 46.71 22.67 39.35 13.34 32.00 4.00 C 24.67 13.35 17.30 22.66 9.95 32.00 Z" />
<path fill="#ffffff" opacity="1.00" d=" M 15.06 32.00 C 20.71 24.84 26.34 17.66 32.00 10.51 C 37.67 17.65 43.31 24.82 48.93 32.00 C 43.30 39.17 37.67 46.34 32.00 53.49 C 26.34 46.34 20.72 39.15 15.06 32.00 Z" />
</g>
<g id="#000000ff">
<path fill="#000000" opacity="1.00" d=" M 9.95 32.00 C 17.30 22.66 24.67 13.35 32.00 4.00 C 39.35 13.34 46.71 22.67 54.07 32.00 C 46.70 41.32 39.36 50.66 32.00 59.99 C 24.67 50.65 17.30 41.33 9.95 32.00 M 15.06 32.00 C 20.72 39.15 26.34 46.34 32.00 53.49 C 37.67 46.34 43.30 39.17 48.93 32.00 C 43.31 24.82 37.67 17.65 32.00 10.51 C 26.34 17.66 20.71 24.84 15.06 32.00 Z" />
</g>
</svg>
