<?xml version="1.0" encoding="UTF-8" ?>
<!DOCTYPE svg PUBLIC "-//W3C//DTD SVG 1.1//EN" "http://www.w3.org/Graphics/SVG/1.1/DTD/svg11.dtd">
<svg width="60pt" height="60pt" viewBox="0 0 60 60" version="1.1" xmlns="http://www.w3.org/2000/svg">
<g id="#ffffffff">
<path fill="#ffffff" opacity="1.00" d=" M 0.00 0.00 L 60.00 0.00 L 60.00 60.00 L 0.00 60.00 L 0.00 0.00 M 20.00 6.00 C 20.87 7.76 21.75 9.51 22.63 11.27 C 13.07 14.66 6.62 25.02 8.23 35.11 C 9.54 45.64 19.39 54.21 30.01 53.98 C 40.61 54.19 50.45 45.64 51.76 35.12 C 53.38 25.04 46.94 14.66 37.38 11.28 C 38.25 9.52 39.12 7.76 39.99 6.00 C 36.66 4.66 33.33 3.33 30.00 2.00 C 26.67 3.33 23.33 4.67 20.00 6.00 Z" />
<path fill="#ffffff" opacity="1.00" d=" M 25.44 14.59 C 31.95 12.82 39.35 15.11 43.68 20.30 C 48.38 25.67 49.32 33.88 46.02 40.19 C 42.41 47.56 33.38 51.62 25.47 49.41 C 17.71 47.54 11.84 39.97 12.01 31.98 C 11.86 24.01 17.70 16.46 25.44 14.59 Z" />
</g>
<g id="#000000ff">
<path fill="#000000" opacity="1.00" d=" M 20.00 6.00 C 23.33 4.67 26.67 3.33 30.00 2.00 C 33.33 3.33 36.66 4.66 39.99 6.00 C 39.12 7.76 38.25 9.52 37.38 11.28 C 46.94 14.66 53.38 25.04 51.76 35.12 C 50.45 45.64 40.61 54.19 30.01 53.98 C 19.39 54.21 9.54 45.64 8.23 35.11 C 6.62 25.02 13.07 14.66 22.63 11.27 C 21.75 9.51 20.87 7.76 20.00 6.00 M 25.44 14.59 C 17.70 16.46 11.86 24.01 12.01 31.98 C 11.84 39.97 17.71 47.54 25.47 49.41 C 33.38 51.62 42.41 47.56 46.02 40.19 C 49.32 33.88 48.38 25.67 43.68 20.30 C 39.35 15.11 31.95 12.82 25.44 14.59 Z" />
</g>
</svg>
