<?xml version="1.0" encoding="UTF-8" ?>
<!DOCTYPE svg PUBLIC "-//W3C//DTD SVG 1.1//EN" "http://www.w3.org/Graphics/SVG/1.1/DTD/svg11.dtd">
<svg width="64pt" height="64pt" viewBox="0 0 64 64" version="1.1" xmlns="http://www.w3.org/2000/svg">
<g id="#ffffffff">
<path fill="#ffffff" opacity="1.00" d=" M 0.00 0.00 L 64.00 0.00 L 64.00 64.00 L 0.00 64.00 L 0.00 0.00 M 12.05 13.84 C 11.97 25.94 11.96 38.05 12.05 50.16 C 12.00 53.25 14.78 55.99 17.87 55.95 C 29.24 56.07 40.62 55.96 52.00 56.00 C 52.00 40.00 52.00 24.00 52.00 8.00 C 40.64 8.04 29.27 7.93 17.91 8.04 C 14.80 7.97 12.00 10.73 12.05 13.84 Z" />
<path fill="#ffffff" opacity="1.00" d=" M 16.00 15.00 C 15.82 13.71 16.38 11.87 18.01 12.06 C 28.01 11.91 38.00 12.05 48.00 12.00 C 48.00 16.00 48.00 20.00 48.00 24.00 C 45.78 24.00 43.56 24.00 41.34 23.98 C 39.75 20.24 35.42 18.98 32.00 21.10 C 27.42 17.84 20.21 22.26 22.35 27.87 C 24.87 31.84 28.88 34.65 32.01 38.16 C 32.74 37.44 33.46 36.72 34.19 36.00 C 38.79 36.00 43.40 36.00 48.00 36.00 C 48.00 38.67 48.00 41.33 48.00 44.00 C 37.33 44.12 26.65 43.75 15.99 44.20 C 16.02 34.47 15.98 24.73 16.00 15.00 Z" />
<path fill="#ffffff" opacity="1.00" d=" M 25.67 25.09 C 27.95 22.90 30.37 24.97 32.00 26.82 C 33.62 24.99 36.02 22.92 38.31 25.06 C 37.07 28.17 34.22 30.12 32.01 32.49 C 29.77 30.14 26.98 28.15 25.67 25.09 Z" />
<path fill="#ffffff" opacity="1.00" d=" M 41.51 28.02 C 43.68 28.00 45.84 28.00 48.00 28.00 C 48.00 29.33 48.00 30.67 48.00 32.00 C 44.76 32.00 41.52 31.99 38.28 32.03 C 39.41 30.74 40.51 29.41 41.51 28.02 Z" />
<path fill="#ffffff" opacity="1.00" d=" M 17.94 51.94 C 15.42 52.17 15.42 47.81 17.95 48.06 C 27.96 47.90 37.98 48.05 48.00 48.00 C 48.00 49.33 48.00 50.67 48.00 52.00 C 37.98 51.95 27.96 52.10 17.94 51.94 Z" />
</g>
<g id="#000000ff">
<path fill="#000000" opacity="1.00" d=" M 12.05 13.84 C 12.00 10.73 14.80 7.97 17.91 8.04 C 29.27 7.93 40.64 8.04 52.00 8.00 C 52.00 24.00 52.00 40.00 52.00 56.00 C 40.62 55.96 29.24 56.07 17.87 55.95 C 14.78 55.99 12.00 53.25 12.05 50.16 C 11.96 38.05 11.97 25.94 12.05 13.84 M 16.00 15.00 C 15.98 24.73 16.02 34.47 15.99 44.20 C 26.65 43.75 37.33 44.12 48.00 44.00 C 48.00 41.33 48.00 38.67 48.00 36.00 C 43.40 36.00 38.79 36.00 34.19 36.00 C 33.46 36.72 32.74 37.44 32.01 38.16 C 28.88 34.65 24.87 31.84 22.35 27.87 C 20.21 22.26 27.42 17.84 32.00 21.10 C 35.42 18.98 39.75 20.24 41.34 23.98 C 43.56 24.00 45.78 24.00 48.00 24.00 C 48.00 20.00 48.00 16.00 48.00 12.00 C 38.00 12.05 28.01 11.91 18.01 12.06 C 16.38 11.87 15.82 13.71 16.00 15.00 M 25.67 25.09 C 26.98 28.15 29.77 30.14 32.01 32.49 C 34.22 30.12 37.07 28.17 38.31 25.06 C 36.02 22.92 33.62 24.99 32.00 26.82 C 30.37 24.97 27.95 22.90 25.67 25.09 M 41.51 28.02 C 40.51 29.41 39.41 30.74 38.28 32.03 C 41.52 31.99 44.76 32.00 48.00 32.00 C 48.00 30.67 48.00 29.33 48.00 28.00 C 45.84 28.00 43.68 28.00 41.51 28.02 M 17.94 51.94 C 27.96 52.10 37.98 51.95 48.00 52.00 C 48.00 50.67 48.00 49.33 48.00 48.00 C 37.98 48.05 27.96 47.90 17.95 48.06 C 15.42 47.81 15.42 52.17 17.94 51.94 Z" />
</g>
</svg>
