<?xml version="1.0" encoding="UTF-8" ?>
<!DOCTYPE svg PUBLIC "-//W3C//DTD SVG 1.1//EN" "http://www.w3.org/Graphics/SVG/1.1/DTD/svg11.dtd">
<svg width="60pt" height="60pt" viewBox="0 0 60 60" version="1.1" xmlns="http://www.w3.org/2000/svg">
<g id="#ffffffff">
<path fill="#ffffff" opacity="1.00" d=" M 0.00 0.00 L 60.00 0.00 L 60.00 60.00 L 0.00 60.00 L 0.00 0.00 M 27.42 6.58 C 21.77 8.92 15.94 10.87 10.39 13.44 C 9.11 15.12 11.35 15.90 12.58 16.43 C 18.40 18.78 24.06 21.61 30.02 23.56 C 36.83 21.08 43.68 18.37 50.10 14.97 C 49.97 14.59 49.71 13.83 49.58 13.45 C 45.32 11.22 40.65 9.89 36.25 7.95 C 33.45 6.96 30.40 5.13 27.42 6.58 M 7.22 19.11 C 6.96 19.38 6.43 19.91 6.17 20.17 C 5.80 27.14 6.03 34.15 6.05 41.13 C 5.97 43.70 7.81 45.83 10.06 46.81 C 14.85 49.05 19.50 51.60 24.33 53.74 C 26.03 54.59 28.18 52.99 27.95 51.12 C 28.04 44.06 28.06 36.99 27.94 29.93 C 27.89 26.43 23.90 25.72 21.40 24.51 C 16.65 22.82 12.19 19.87 7.22 19.11 M 50.42 19.53 C 45.05 21.84 39.61 23.98 34.30 26.43 C 32.57 27.17 31.90 29.11 32.01 30.88 C 32.01 37.62 31.93 44.37 32.05 51.11 C 31.81 53.00 33.97 54.58 35.68 53.74 C 40.48 51.59 45.17 49.18 49.89 46.85 C 52.13 45.84 54.03 43.75 53.95 41.16 C 54.04 34.43 54.06 27.70 53.94 20.97 C 54.05 19.00 51.77 18.66 50.42 19.53 Z" />
<path fill="#ffffff" opacity="1.00" d=" M 28.24 12.22 C 30.37 11.71 33.01 12.00 34.28 14.01 C 32.47 16.61 28.52 16.47 26.14 14.77 C 25.58 13.19 26.96 12.53 28.24 12.22 Z" />
<path fill="#ffffff" opacity="1.00" d=" M 10.44 25.34 C 13.13 22.73 15.38 29.08 13.01 30.80 C 10.41 30.74 9.32 27.34 10.44 25.34 Z" />
<path fill="#ffffff" opacity="1.00" d=" M 46.76 26.41 C 47.32 26.10 48.43 25.48 48.99 25.17 C 50.72 27.06 50.08 30.28 47.89 31.53 C 45.47 31.12 45.70 28.00 46.76 26.41 Z" />
<path fill="#ffffff" opacity="1.00" d=" M 39.37 29.04 C 43.15 27.15 42.62 35.17 39.01 34.86 C 37.58 33.20 37.70 30.49 39.37 29.04 Z" />
<path fill="#ffffff" opacity="1.00" d=" M 47.32 37.02 C 51.20 35.09 50.61 43.10 47.04 42.87 C 45.53 41.22 45.76 38.55 47.32 37.02 Z" />
<path fill="#ffffff" opacity="1.00" d=" M 18.51 41.29 C 18.98 39.48 21.35 41.22 21.59 42.35 C 22.29 43.84 22.03 45.57 20.99 46.84 C 18.42 46.70 17.24 43.26 18.51 41.29 Z" />
<path fill="#ffffff" opacity="1.00" d=" M 39.32 41.07 C 43.13 39.05 42.65 47.15 39.03 46.86 C 37.57 45.23 37.71 42.53 39.32 41.07 Z" />
</g>
<g id="#000000ff">
<path fill="#968176" opacity="1.00" d=" M 27.42 6.58 C 30.40 5.13 33.45 6.96 36.25 7.95 C 40.65 9.89 45.32 11.22 49.58 13.45 C 49.71 13.83 49.97 14.59 50.10 14.97 C 43.68 18.37 36.83 21.08 30.02 23.56 C 24.06 21.61 18.40 18.78 12.58 16.43 C 11.35 15.90 9.11 15.12 10.39 13.44 C 15.94 10.87 21.77 8.92 27.42 6.58 M 28.24 12.22 C 26.96 12.53 25.58 13.19 26.14 14.77 C 28.52 16.47 32.47 16.61 34.28 14.01 C 33.01 12.00 30.37 11.71 28.24 12.22 Z" />
<path fill="#968176" opacity="1.00" d=" M 7.22 19.11 C 12.19 19.87 16.65 22.82 21.40 24.51 C 23.90 25.72 27.89 26.43 27.94 29.93 C 28.06 36.99 28.04 44.06 27.95 51.12 C 28.18 52.99 26.03 54.59 24.33 53.74 C 19.50 51.60 14.85 49.05 10.06 46.81 C 7.81 45.83 5.97 43.70 6.05 41.13 C 6.03 34.15 5.80 27.14 6.17 20.17 C 6.43 19.91 6.96 19.38 7.22 19.11 M 10.44 25.34 C 9.32 27.34 10.41 30.74 13.01 30.80 C 15.38 29.08 13.13 22.73 10.44 25.34 M 18.51 41.29 C 17.24 43.26 18.42 46.70 20.99 46.84 C 22.03 45.57 22.29 43.84 21.59 42.35 C 21.35 41.22 18.98 39.48 18.51 41.29 Z" />
<path fill="#968176" opacity="1.00" d=" M 50.42 19.53 C 51.77 18.66 54.05 19.00 53.94 20.97 C 54.06 27.70 54.04 34.43 53.95 41.16 C 54.03 43.75 52.13 45.84 49.89 46.85 C 45.17 49.18 40.48 51.59 35.68 53.74 C 33.97 54.58 31.81 53.00 32.05 51.11 C 31.93 44.37 32.01 37.62 32.01 30.88 C 31.90 29.11 32.57 27.17 34.30 26.43 C 39.61 23.98 45.05 21.84 50.42 19.53 M 46.76 26.41 C 45.70 28.00 45.47 31.12 47.89 31.53 C 50.08 30.28 50.72 27.06 48.99 25.17 C 48.43 25.48 47.32 26.10 46.76 26.41 M 39.37 29.04 C 37.70 30.49 37.58 33.20 39.01 34.86 C 42.62 35.17 43.15 27.15 39.37 29.04 M 47.32 37.02 C 45.76 38.55 45.53 41.22 47.04 42.87 C 50.61 43.10 51.20 35.09 47.32 37.02 M 39.32 41.07 C 37.71 42.53 37.57 45.23 39.03 46.86 C 42.65 47.15 43.13 39.05 39.32 41.07 Z" />
</g>
</svg>
