<?xml version="1.0" encoding="UTF-8" ?>
<!DOCTYPE svg PUBLIC "-//W3C//DTD SVG 1.1//EN" "http://www.w3.org/Graphics/SVG/1.1/DTD/svg11.dtd">
<svg width="64pt" height="64pt" viewBox="0 0 64 64" version="1.1" xmlns="http://www.w3.org/2000/svg">
<g id="#ffffffff">
<path fill="#ffffff" opacity="1.00" d=" M 0.00 0.00 L 64.00 0.00 L 64.00 64.00 L 0.00 64.00 L 0.00 0.00 M 12.05 13.83 C 11.96 25.93 11.96 38.04 12.05 50.14 C 11.99 53.25 14.80 56.01 17.90 55.95 C 29.26 56.08 40.63 55.96 52.00 56.00 C 52.00 40.00 52.00 24.00 52.00 8.00 C 40.63 8.04 29.25 7.93 17.88 8.05 C 14.79 7.98 12.00 10.74 12.05 13.83 Z" />
<path fill="#ffffff" opacity="1.00" d=" M 16.01 14.98 C 15.86 13.76 16.31 11.91 17.89 12.07 C 27.92 11.89 37.96 12.06 48.00 12.00 C 48.00 22.67 48.00 33.33 48.00 44.00 C 37.33 44.11 26.65 43.76 16.00 44.19 C 16.02 34.45 15.97 24.72 16.01 14.98 M 24.40 20.02 C 22.78 25.31 19.41 30.26 19.95 36.00 C 21.29 36.00 22.64 36.00 23.99 36.00 C 23.99 35.50 24.01 34.50 24.01 34.00 C 25.34 34.00 26.66 34.00 27.99 34.00 C 27.99 34.50 28.01 35.50 28.01 36.00 C 29.36 36.00 30.70 36.00 32.05 36.00 C 32.60 30.20 29.09 25.26 27.33 19.98 C 26.60 19.99 25.13 20.01 24.40 20.02 M 37.05 35.59 C 38.65 36.46 40.38 35.59 41.98 35.22 C 43.31 35.52 44.64 35.82 45.97 36.12 C 45.99 34.84 45.99 33.56 46.00 32.28 C 45.55 32.07 44.64 31.67 44.18 31.47 C 44.36 28.15 43.02 23.91 38.99 23.97 C 33.10 23.96 32.04 33.45 37.05 35.59 Z" />
<path fill="#ffffff" opacity="1.00" d=" M 25.07 28.44 C 26.74 27.92 27.33 28.44 26.86 30.01 C 25.18 30.53 24.59 30.01 25.07 28.44 Z" />
<path fill="#ffffff" opacity="1.00" d=" M 38.03 28.20 C 38.52 28.19 39.48 28.18 39.96 28.18 C 39.96 29.39 39.97 30.60 39.98 31.82 C 39.49 31.81 38.50 31.78 38.00 31.77 C 38.02 30.58 38.03 29.39 38.03 28.20 Z" />
<path fill="#ffffff" opacity="1.00" d=" M 17.95 51.93 C 15.44 52.20 15.40 47.84 17.91 48.07 C 27.94 47.89 37.97 48.06 48.00 48.00 C 48.00 49.33 48.00 50.67 48.00 52.00 C 37.98 51.94 27.96 52.11 17.95 51.93 Z" />
</g>
<g id="#000000ff">
<path fill="#000000" opacity="1.00" d=" M 12.05 13.83 C 12.00 10.74 14.79 7.98 17.88 8.05 C 29.25 7.93 40.63 8.04 52.00 8.00 C 52.00 24.00 52.00 40.00 52.00 56.00 C 40.63 55.96 29.26 56.08 17.90 55.95 C 14.80 56.01 11.99 53.25 12.05 50.14 C 11.96 38.04 11.96 25.93 12.05 13.83 M 16.01 14.98 C 15.97 24.72 16.02 34.45 16.00 44.19 C 26.65 43.76 37.33 44.11 48.00 44.00 C 48.00 33.33 48.00 22.67 48.00 12.00 C 37.96 12.06 27.92 11.89 17.89 12.07 C 16.31 11.91 15.86 13.76 16.01 14.98 M 17.95 51.93 C 27.96 52.11 37.98 51.94 48.00 52.00 C 48.00 50.67 48.00 49.33 48.00 48.00 C 37.97 48.06 27.94 47.89 17.91 48.07 C 15.40 47.84 15.44 52.20 17.95 51.93 Z" />
<path fill="#000000" opacity="1.00" d=" M 24.40 20.02 C 25.13 20.01 26.60 19.99 27.33 19.98 C 29.09 25.26 32.60 30.20 32.05 36.00 C 30.70 36.00 29.36 36.00 28.01 36.00 C 28.01 35.50 27.99 34.50 27.99 34.00 C 26.66 34.00 25.34 34.00 24.01 34.00 C 24.01 34.50 23.99 35.50 23.99 36.00 C 22.64 36.00 21.29 36.00 19.95 36.00 C 19.41 30.26 22.78 25.31 24.40 20.02 M 25.07 28.44 C 24.59 30.01 25.18 30.53 26.86 30.01 C 27.33 28.44 26.74 27.92 25.07 28.44 Z" />
<path fill="#000000" opacity="1.00" d=" M 37.05 35.59 C 32.04 33.45 33.10 23.96 38.99 23.97 C 43.02 23.91 44.36 28.15 44.18 31.47 C 44.64 31.67 45.55 32.07 46.00 32.28 C 45.99 33.56 45.99 34.84 45.97 36.12 C 44.64 35.82 43.31 35.52 41.98 35.22 C 40.38 35.59 38.65 36.46 37.05 35.59 M 38.03 28.20 C 38.03 29.39 38.02 30.58 38.00 31.77 C 38.50 31.78 39.49 31.81 39.98 31.82 C 39.97 30.60 39.96 29.39 39.96 28.18 C 39.48 28.18 38.52 28.19 38.03 28.20 Z" />
</g>
</svg>
