<?xml version="1.0" encoding="UTF-8" ?>
<!DOCTYPE svg PUBLIC "-//W3C//DTD SVG 1.1//EN" "http://www.w3.org/Graphics/SVG/1.1/DTD/svg11.dtd">
<svg width="60pt" height="60pt" viewBox="0 0 60 60" version="1.1" xmlns="http://www.w3.org/2000/svg">
<g id="#ffffffff">
<path fill="#ffffff" opacity="1.00" d=" M 0.00 0.00 L 60.00 0.00 L 60.00 60.00 L 0.00 60.00 L 0.00 0.00 M 23.35 9.26 C 20.27 8.06 16.26 7.07 13.57 9.60 C 11.64 11.26 12.02 13.97 12.31 16.20 C 7.12 22.17 5.59 30.47 6.16 38.16 C 6.68 44.75 11.87 50.16 18.01 52.10 C 25.99 54.70 34.91 54.67 42.81 51.79 C 48.62 49.70 53.34 44.38 53.84 38.10 C 54.40 30.43 52.86 22.17 47.69 16.20 C 47.98 13.95 48.34 11.21 46.38 9.56 C 43.68 7.09 39.70 8.05 36.65 9.27 C 33.32 5.05 26.67 5.01 23.35 9.26 Z" />
<path fill="#ffffff" opacity="1.00" d=" M 24.02 13.98 C 26.37 13.29 27.24 9.84 30.02 10.02 C 32.80 9.84 33.65 13.42 36.03 13.95 C 38.61 13.06 41.13 11.70 43.96 12.13 C 44.37 16.29 39.86 18.78 40.06 22.96 C 39.30 24.97 41.78 27.08 43.42 25.42 C 44.09 23.46 44.38 21.38 45.21 19.47 C 49.39 24.68 50.33 31.71 49.83 38.18 C 49.47 42.94 45.61 46.61 41.28 48.10 C 34.07 50.63 25.96 50.62 18.74 48.11 C 14.39 46.62 10.51 42.95 10.16 38.16 C 9.69 31.70 10.54 24.59 14.87 19.46 C 15.59 21.41 15.88 23.50 16.61 25.45 C 18.29 27.08 20.71 24.89 19.93 22.90 C 20.11 18.76 15.60 16.26 16.06 12.14 C 18.90 11.70 21.43 13.07 24.02 13.98 M 25.19 20.07 C 23.06 22.28 24.25 26.03 22.54 28.63 C 21.27 30.20 22.73 32.74 24.77 31.88 C 27.50 29.49 27.93 25.40 27.95 21.98 C 28.12 20.49 26.46 19.69 25.19 20.07 M 33.16 20.07 C 32.90 20.34 32.40 20.87 32.14 21.14 C 31.80 24.64 32.42 28.47 34.57 31.34 C 35.60 32.75 38.26 31.79 37.92 29.99 C 36.94 27.41 36.03 24.79 35.89 22.00 C 35.96 20.49 34.52 19.63 33.16 20.07 Z" />
</g>
<g id="#000000ff">
<path fill="#000000" opacity="1.00" d=" M 23.35 9.26 C 26.67 5.01 33.32 5.05 36.65 9.27 C 39.70 8.05 43.68 7.09 46.38 9.56 C 48.34 11.21 47.98 13.95 47.69 16.20 C 52.86 22.17 54.40 30.43 53.84 38.10 C 53.34 44.38 48.62 49.70 42.81 51.79 C 34.91 54.67 25.99 54.70 18.01 52.10 C 11.87 50.16 6.68 44.75 6.16 38.16 C 5.59 30.47 7.12 22.17 12.31 16.20 C 12.02 13.97 11.64 11.26 13.57 9.60 C 16.26 7.07 20.27 8.06 23.35 9.26 M 24.02 13.98 C 21.43 13.07 18.90 11.70 16.06 12.14 C 15.60 16.26 20.11 18.76 19.93 22.90 C 20.71 24.89 18.29 27.08 16.61 25.45 C 15.88 23.50 15.59 21.41 14.87 19.46 C 10.54 24.59 9.69 31.70 10.16 38.16 C 10.51 42.95 14.39 46.62 18.74 48.11 C 25.96 50.62 34.07 50.63 41.28 48.10 C 45.61 46.61 49.47 42.94 49.83 38.18 C 50.33 31.71 49.39 24.68 45.21 19.47 C 44.38 21.38 44.09 23.46 43.42 25.42 C 41.78 27.08 39.30 24.97 40.06 22.96 C 39.86 18.78 44.37 16.29 43.96 12.13 C 41.13 11.70 38.61 13.06 36.03 13.95 C 33.65 13.42 32.80 9.84 30.02 10.02 C 27.24 9.84 26.37 13.29 24.02 13.98 Z" />
<path fill="#000000" opacity="1.00" d=" M 25.19 20.07 C 26.46 19.69 28.12 20.49 27.95 21.98 C 27.93 25.40 27.50 29.49 24.77 31.88 C 22.73 32.74 21.27 30.20 22.54 28.63 C 24.25 26.03 23.06 22.28 25.19 20.07 Z" />
<path fill="#000000" opacity="1.00" d=" M 33.16 20.07 C 34.52 19.63 35.96 20.49 35.89 22.00 C 36.03 24.79 36.94 27.41 37.92 29.99 C 38.26 31.79 35.60 32.75 34.57 31.34 C 32.42 28.47 31.80 24.64 32.14 21.14 C 32.40 20.87 32.90 20.34 33.16 20.07 Z" />
</g>
</svg>
