<?xml version="1.0" encoding="UTF-8" ?>
<!DOCTYPE svg PUBLIC "-//W3C//DTD SVG 1.1//EN" "http://www.w3.org/Graphics/SVG/1.1/DTD/svg11.dtd">
<svg width="64pt" height="64pt" viewBox="0 0 64 64" version="1.1" xmlns="http://www.w3.org/2000/svg">
<g id="#ffffffff">
<path fill="#ffffff" opacity="1.00" d=" M 0.00 0.00 L 64.00 0.00 L 64.00 64.00 L 0.00 64.00 L 0.00 0.00 M 16.04 17.87 C 15.91 23.79 16.05 29.72 16.00 35.64 C 13.98 34.88 11.95 34.13 9.92 33.38 C 9.91 38.35 10.38 43.56 13.01 47.91 C 20.00 59.99 39.00 61.33 48.42 51.48 C 53.04 46.70 54.23 39.79 54.07 33.38 C 50.22 34.80 46.38 36.24 42.53 37.67 C 41.61 36.79 40.69 35.91 39.77 35.05 C 39.94 30.12 45.65 32.98 48.56 31.40 C 51.64 30.12 52.12 26.58 52.14 23.65 C 55.22 20.62 54.63 14.47 50.55 12.60 C 47.78 11.80 44.59 11.88 42.45 9.64 C 38.11 5.34 31.61 5.70 26.01 6.22 C 20.45 7.05 15.98 12.24 16.04 17.87 Z" />
<path fill="#ffffff" opacity="1.00" d=" M 20.05 17.85 C 19.98 14.01 23.13 10.45 26.96 10.12 C 29.65 9.89 32.38 9.86 35.07 10.19 C 38.78 10.66 40.86 14.45 44.40 15.35 C 45.89 15.74 47.42 15.93 48.91 16.31 C 50.34 16.90 49.79 18.81 50.16 19.99 C 46.10 20.00 42.05 20.00 38.00 20.00 C 38.00 21.33 38.00 22.67 38.00 24.00 C 41.39 24.00 44.77 24.00 48.16 24.01 C 47.91 25.40 48.19 28.06 46.04 27.90 C 42.41 27.78 38.32 28.00 36.30 31.53 C 34.88 30.06 33.44 28.62 32.00 27.17 C 28.32 30.80 24.75 34.55 20.96 38.07 C 19.74 36.62 20.01 34.70 19.97 32.97 C 20.08 27.93 19.89 22.89 20.05 17.85 M 27.76 17.99 C 29.92 18.00 32.08 18.00 34.24 17.99 C 33.91 16.29 33.30 13.94 31.09 14.04 C 28.81 13.79 28.07 16.22 27.76 17.99 Z" />
<path fill="#ffffff" opacity="1.00" d=" M 22.49 42.33 C 25.67 39.17 28.83 35.99 32.00 32.83 C 35.16 35.99 38.33 39.15 41.49 42.31 C 44.16 41.33 46.83 40.35 49.50 39.38 C 48.67 43.12 47.53 47.07 44.54 49.67 C 40.62 53.31 35.06 54.13 29.92 54.00 C 30.27 51.15 29.47 47.80 26.57 46.58 C 23.68 45.04 20.55 46.74 18.53 48.87 C 16.47 46.05 15.19 42.80 14.52 39.39 C 17.20 40.32 19.85 41.32 22.49 42.33 M 33.44 42.47 C 30.10 44.30 33.34 49.70 36.55 47.55 C 39.91 45.70 36.65 40.27 33.44 42.47 Z" />
</g>
<g id="#000000ff">
<path fill="#000000" opacity="1.00" d=" M 16.04 17.87 C 15.98 12.24 20.45 7.05 26.01 6.22 C 31.61 5.70 38.11 5.34 42.45 9.64 C 44.59 11.88 47.78 11.80 50.55 12.60 C 54.63 14.47 55.22 20.62 52.14 23.65 C 52.12 26.58 51.64 30.12 48.56 31.40 C 45.65 32.98 39.94 30.12 39.77 35.05 C 40.69 35.91 41.61 36.79 42.53 37.67 C 46.38 36.24 50.22 34.80 54.07 33.38 C 54.23 39.79 53.04 46.70 48.42 51.48 C 39.00 61.33 20.00 59.99 13.01 47.91 C 10.38 43.56 9.91 38.35 9.92 33.38 C 11.95 34.13 13.98 34.88 16.00 35.64 C 16.05 29.72 15.91 23.79 16.04 17.87 M 20.05 17.85 C 19.89 22.89 20.08 27.93 19.97 32.97 C 20.01 34.70 19.74 36.62 20.96 38.07 C 24.75 34.55 28.32 30.80 32.00 27.17 C 33.44 28.62 34.88 30.06 36.30 31.53 C 38.32 28.00 42.41 27.78 46.04 27.90 C 48.19 28.06 47.91 25.40 48.16 24.01 C 44.77 24.00 41.39 24.00 38.00 24.00 C 38.00 22.67 38.00 21.33 38.00 20.00 C 42.05 20.00 46.10 20.00 50.16 19.99 C 49.79 18.81 50.34 16.90 48.91 16.31 C 47.42 15.93 45.89 15.74 44.40 15.35 C 40.86 14.45 38.78 10.66 35.07 10.19 C 32.38 9.86 29.65 9.89 26.96 10.12 C 23.13 10.45 19.98 14.01 20.05 17.85 M 22.49 42.33 C 19.85 41.32 17.20 40.32 14.52 39.39 C 15.19 42.80 16.47 46.05 18.53 48.87 C 20.55 46.74 23.68 45.04 26.57 46.58 C 29.47 47.80 30.27 51.15 29.92 54.00 C 35.06 54.13 40.62 53.31 44.54 49.67 C 47.53 47.07 48.67 43.12 49.50 39.38 C 46.83 40.35 44.16 41.33 41.49 42.31 C 38.33 39.15 35.16 35.99 32.00 32.83 C 28.83 35.99 25.67 39.17 22.49 42.33 Z" />
<path fill="#000000" opacity="1.00" d=" M 27.76 17.99 C 28.07 16.22 28.81 13.79 31.09 14.04 C 33.30 13.94 33.91 16.29 34.24 17.99 C 32.08 18.00 29.92 18.00 27.76 17.99 Z" />
<path fill="#000000" opacity="1.00" d=" M 33.44 42.47 C 36.65 40.27 39.91 45.70 36.55 47.55 C 33.34 49.70 30.10 44.30 33.44 42.47 Z" />
</g>
</svg>
