<?xml version="1.0" encoding="UTF-8" ?>
<!DOCTYPE svg PUBLIC "-//W3C//DTD SVG 1.1//EN" "http://www.w3.org/Graphics/SVG/1.1/DTD/svg11.dtd">
<svg width="60pt" height="60pt" viewBox="0 0 60 60" version="1.1" xmlns="http://www.w3.org/2000/svg">
<g id="#ffffffff">
<path fill="#ffffff" opacity="1.00" d=" M 0.00 0.00 L 60.00 0.00 L 60.00 60.00 L 35.97 60.00 C 36.02 56.99 35.99 53.98 35.98 50.97 C 35.69 48.74 37.80 47.20 37.91 45.03 C 38.65 40.43 34.63 35.88 29.99 36.01 C 25.72 35.92 21.89 39.76 22.02 44.03 C 21.87 46.03 23.10 47.68 23.90 49.40 C 24.18 52.92 23.91 56.47 24.00 60.00 L 0.00 60.00 L 0.00 0.00 M 6.00 12.99 C 5.99 23.34 6.01 33.70 5.99 44.06 C 6.05 45.36 5.69 47.08 7.09 47.83 C 10.92 48.23 14.80 47.88 18.65 48.01 C 18.35 46.68 18.11 45.35 17.94 44.00 C 15.30 43.99 12.65 44.00 10.00 44.00 C 10.00 34.00 10.00 24.00 10.00 14.00 C 23.33 14.00 36.67 14.00 50.00 14.00 C 50.00 24.00 50.00 34.00 50.00 44.00 C 47.35 44.00 44.70 43.99 42.06 44.00 C 41.88 45.35 41.64 46.68 41.35 48.01 C 45.18 47.90 49.03 48.19 52.85 47.86 C 53.09 47.62 53.57 47.14 53.81 46.90 C 54.25 35.59 53.88 24.22 54.00 12.89 C 54.21 11.65 53.57 9.96 52.08 10.04 C 37.39 9.97 22.68 9.98 7.99 10.04 C 6.39 9.89 5.78 11.70 6.00 12.99 M 19.15 20.20 C 17.28 20.90 17.88 24.06 19.93 23.96 C 25.97 24.07 32.01 23.95 38.05 24.01 C 39.40 24.00 41.06 24.21 41.89 22.87 C 42.31 21.52 41.54 19.99 40.00 20.04 C 33.06 20.07 26.07 19.77 19.15 20.20 M 19.13 28.20 C 17.27 28.96 17.91 32.08 19.95 31.96 C 26.31 32.06 32.66 31.97 39.02 32.00 C 40.25 32.20 42.28 31.55 41.92 29.95 C 42.25 28.42 40.27 27.85 39.11 28.00 C 32.45 28.13 25.75 27.73 19.13 28.20 Z" />
<path fill="#ffffff" opacity="1.00" d=" M 28.34 40.35 C 31.21 38.86 34.83 41.89 33.88 44.98 C 33.33 47.58 29.94 48.89 27.78 47.33 C 25.19 45.79 25.53 41.45 28.34 40.35 Z" />
<path fill="#ffffff" opacity="1.00" d=" M 24.00 60.00 C 26.02 58.68 28.00 57.31 30.02 55.99 C 32.03 57.26 33.97 58.63 35.91 60.00 L 24.00 60.00 Z" />
</g>
<g id="#000000ff">
<path fill="#968176" opacity="1.00" d=" M 6.00 12.99 C 5.78 11.70 6.39 9.89 7.99 10.04 C 22.68 9.98 37.39 9.97 52.08 10.04 C 53.57 9.96 54.21 11.65 54.00 12.89 C 53.88 24.22 54.25 35.59 53.81 46.90 C 53.57 47.14 53.09 47.62 52.85 47.86 C 49.03 48.19 45.18 47.90 41.35 48.01 C 41.64 46.68 41.88 45.35 42.06 44.00 C 44.70 43.99 47.35 44.00 50.00 44.00 C 50.00 34.00 50.00 24.00 50.00 14.00 C 36.67 14.00 23.33 14.00 10.00 14.00 C 10.00 24.00 10.00 34.00 10.00 44.00 C 12.65 44.00 15.30 43.99 17.94 44.00 C 18.11 45.35 18.35 46.68 18.65 48.01 C 14.80 47.88 10.92 48.23 7.09 47.83 C 5.69 47.08 6.05 45.36 5.99 44.06 C 6.01 33.70 5.99 23.34 6.00 12.99 Z" />
<path fill="#968176" opacity="1.00" d=" M 19.15 20.20 C 26.07 19.77 33.06 20.07 40.00 20.04 C 41.54 19.99 42.31 21.52 41.89 22.87 C 41.06 24.21 39.40 24.00 38.05 24.01 C 32.01 23.95 25.97 24.07 19.93 23.96 C 17.88 24.06 17.28 20.90 19.15 20.20 Z" />
<path fill="#968176" opacity="1.00" d=" M 19.13 28.20 C 25.75 27.73 32.45 28.13 39.11 28.00 C 40.27 27.85 42.25 28.42 41.92 29.95 C 42.28 31.55 40.25 32.20 39.02 32.00 C 32.66 31.97 26.31 32.06 19.95 31.96 C 17.91 32.08 17.27 28.96 19.13 28.20 Z" />
<path fill="#968176" opacity="1.00" d=" M 22.02 44.03 C 21.89 39.76 25.72 35.92 29.99 36.01 C 34.63 35.88 38.65 40.43 37.91 45.03 C 37.80 47.20 35.69 48.74 35.98 50.97 C 35.99 53.98 36.02 56.99 35.97 60.00 L 35.91 60.00 C 33.97 58.63 32.03 57.26 30.02 55.99 C 28.00 57.31 26.02 58.68 24.00 60.00 L 24.00 60.00 C 23.91 56.47 24.18 52.92 23.90 49.40 C 23.10 47.68 21.87 46.03 22.02 44.03 M 28.34 40.35 C 25.53 41.45 25.19 45.79 27.78 47.33 C 29.94 48.89 33.33 47.58 33.88 44.98 C 34.83 41.89 31.21 38.86 28.34 40.35 Z" />
</g>
</svg>
