<?xml version="1.0" encoding="UTF-8" ?>
<!DOCTYPE svg PUBLIC "-//W3C//DTD SVG 1.1//EN" "http://www.w3.org/Graphics/SVG/1.1/DTD/svg11.dtd">
<svg width="60pt" height="60pt" viewBox="0 0 60 60" version="1.1" xmlns="http://www.w3.org/2000/svg">
<g id="#ffffffff">
<path fill="#ffffff" opacity="1.00" d=" M 0.00 0.00 L 60.00 0.00 L 60.00 60.00 L 0.00 60.00 L 0.00 0.00 M 11.58 17.55 C 10.20 16.33 9.08 14.59 7.21 14.11 C 5.47 13.93 3.73 13.99 2.00 13.99 C 2.93 16.78 3.88 19.56 4.74 22.38 C 1.28 25.36 1.31 30.64 4.74 33.63 C 3.88 36.44 2.93 39.23 2.00 42.01 C 3.97 41.93 6.02 42.25 7.93 41.66 C 9.36 40.86 10.40 39.56 11.57 38.45 C 14.58 39.84 17.67 41.06 20.82 42.06 C 22.23 44.73 22.44 48.97 25.86 49.87 C 29.55 50.10 33.27 50.11 36.96 49.87 C 39.90 49.19 40.19 45.89 40.08 43.41 C 45.95 42.13 51.82 39.44 55.56 34.56 C 57.87 31.67 58.78 27.52 57.13 24.09 C 54.44 18.41 48.56 14.95 42.73 13.24 C 32.27 10.28 21.16 13.04 11.58 17.55 Z" />
<path fill="#ffffff" opacity="1.00" d=" M 18.79 18.86 C 25.81 16.42 33.56 14.98 40.89 16.90 C 46.14 18.26 51.34 21.25 53.78 26.30 C 38.83 18.92 21.29 22.18 6.10 27.09 C 9.11 22.83 14.08 20.69 18.79 18.86 Z" />
<path fill="#ffffff" opacity="1.00" d=" M 6.11 28.91 C 21.29 33.82 38.83 37.06 53.77 29.70 C 50.16 36.90 41.59 39.89 33.98 39.99 C 26.06 39.86 18.15 37.62 11.31 33.61 C 9.23 32.48 7.53 30.78 6.11 28.91 Z" />
</g>
<g id="#000000ff">
<path fill="#000000" opacity="1.00" d=" M 11.58 17.55 C 21.16 13.04 32.27 10.28 42.73 13.24 C 48.56 14.95 54.44 18.41 57.13 24.09 C 58.78 27.52 57.87 31.67 55.56 34.56 C 51.82 39.44 45.95 42.13 40.08 43.41 C 40.19 45.89 39.90 49.19 36.96 49.87 C 33.27 50.11 29.55 50.10 25.86 49.87 C 22.44 48.97 22.23 44.73 20.82 42.06 C 17.67 41.06 14.58 39.84 11.57 38.45 C 10.40 39.56 9.36 40.86 7.93 41.66 C 6.02 42.25 3.97 41.93 2.00 42.01 C 2.93 39.23 3.88 36.44 4.74 33.63 C 1.31 30.64 1.28 25.36 4.74 22.38 C 3.88 19.56 2.93 16.78 2.00 13.99 C 3.73 13.99 5.47 13.93 7.21 14.11 C 9.08 14.59 10.20 16.33 11.58 17.55 M 18.79 18.86 C 14.08 20.69 9.11 22.83 6.10 27.09 C 21.29 22.18 38.83 18.92 53.78 26.30 C 51.34 21.25 46.14 18.26 40.89 16.90 C 33.56 14.98 25.81 16.42 18.79 18.86 M 6.11 28.91 C 7.53 30.78 9.23 32.48 11.31 33.61 C 18.15 37.62 26.06 39.86 33.98 39.99 C 41.59 39.89 50.16 36.90 53.77 29.70 C 38.83 37.06 21.29 33.82 6.11 28.91 Z" />
</g>
</svg>
