<?xml version="1.0" encoding="UTF-8" ?>
<!DOCTYPE svg PUBLIC "-//W3C//DTD SVG 1.1//EN" "http://www.w3.org/Graphics/SVG/1.1/DTD/svg11.dtd">
<svg width="60pt" height="60pt" viewBox="0 0 60 60" version="1.1" xmlns="http://www.w3.org/2000/svg">
<g id="#ffffffff">
<path fill="#ffffff" opacity="1.00" d=" M 0.00 0.00 L 60.00 0.00 L 60.00 60.00 L 0.00 60.00 L 0.00 0.00 M 4.04 13.94 C 3.92 17.34 4.06 20.75 3.96 24.15 C 6.04 25.39 8.09 27.35 7.99 29.98 C 8.10 32.59 6.10 34.59 3.98 35.79 C 4.09 39.52 3.83 43.26 4.12 46.98 C 4.60 49.08 6.88 50.26 8.92 50.00 C 22.96 50.00 37.01 50.00 51.06 50.00 C 53.14 50.29 55.35 49.04 55.88 46.95 C 56.17 43.23 55.93 39.49 56.00 35.76 C 53.87 34.59 51.88 32.57 52.00 29.96 C 51.91 27.35 53.93 25.39 56.03 24.18 C 55.91 20.46 56.17 16.73 55.88 13.02 C 55.33 10.92 53.18 9.70 51.08 10.00 C 36.69 10.02 22.30 9.95 7.92 10.04 C 5.87 9.99 3.98 11.89 4.04 13.94 Z" />
<path fill="#ffffff" opacity="1.00" d=" M 21.17 19.22 C 24.47 17.78 28.61 20.36 28.39 24.06 C 28.85 27.51 25.50 30.60 22.10 29.73 C 17.08 29.01 16.54 20.88 21.17 19.22 M 22.26 22.44 C 21.41 23.80 21.46 26.82 23.62 26.65 C 25.46 25.63 24.76 20.75 22.26 22.44 Z" />
<path fill="#ffffff" opacity="1.00" d=" M 34.51 19.40 C 36.13 19.40 37.76 19.40 39.39 19.40 C 34.32 26.15 29.49 33.07 25.64 40.60 C 24.00 40.60 22.36 40.60 20.72 40.60 C 25.78 33.84 30.54 26.87 34.51 19.40 Z" />
<path fill="#ffffff" opacity="1.00" d=" M 34.42 30.68 C 37.31 29.23 41.39 30.85 41.85 34.21 C 42.92 37.79 39.85 41.91 35.98 41.07 C 30.96 40.62 30.05 32.69 34.42 30.68 M 36.43 33.44 C 34.84 34.25 35.26 36.65 36.09 37.90 C 38.97 38.76 38.98 32.78 36.43 33.44 Z" />
</g>
<g id="#000000ff">
<path fill="#000000" opacity="1.00" d=" M 4.04 13.94 C 3.98 11.89 5.87 9.99 7.92 10.04 C 22.30 9.95 36.69 10.02 51.08 10.00 C 53.18 9.70 55.33 10.92 55.88 13.02 C 56.17 16.73 55.91 20.46 56.03 24.18 C 53.93 25.39 51.91 27.35 52.00 29.96 C 51.88 32.57 53.87 34.59 56.00 35.76 C 55.93 39.49 56.17 43.23 55.88 46.95 C 55.35 49.04 53.14 50.29 51.06 50.00 C 37.01 50.00 22.96 50.00 8.92 50.00 C 6.88 50.26 4.60 49.08 4.12 46.98 C 3.83 43.26 4.09 39.52 3.98 35.79 C 6.10 34.59 8.10 32.59 7.99 29.98 C 8.09 27.35 6.04 25.39 3.96 24.15 C 4.06 20.75 3.92 17.34 4.04 13.94 M 21.17 19.22 C 16.54 20.88 17.08 29.01 22.10 29.73 C 25.50 30.60 28.85 27.51 28.39 24.06 C 28.61 20.36 24.47 17.78 21.17 19.22 M 34.51 19.40 C 30.54 26.87 25.78 33.84 20.72 40.60 C 22.36 40.60 24.00 40.60 25.64 40.60 C 29.49 33.07 34.32 26.15 39.39 19.40 C 37.76 19.40 36.13 19.40 34.51 19.40 M 34.42 30.68 C 30.05 32.69 30.96 40.62 35.98 41.07 C 39.85 41.91 42.92 37.79 41.85 34.21 C 41.39 30.85 37.31 29.23 34.42 30.68 Z" />
<path fill="#000000" opacity="1.00" d=" M 22.26 22.44 C 24.76 20.75 25.46 25.63 23.62 26.65 C 21.46 26.82 21.41 23.80 22.26 22.44 Z" />
<path fill="#000000" opacity="1.00" d=" M 36.43 33.44 C 38.98 32.78 38.97 38.76 36.09 37.90 C 35.26 36.65 34.84 34.25 36.43 33.44 Z" />
</g>
</svg>
