<?xml version="1.0" encoding="UTF-8" ?>
<!DOCTYPE svg PUBLIC "-//W3C//DTD SVG 1.1//EN" "http://www.w3.org/Graphics/SVG/1.1/DTD/svg11.dtd">
<svg width="64pt" height="64pt" viewBox="0 0 64 64" version="1.1" xmlns="http://www.w3.org/2000/svg">
<g id="#ffffffff">
<path fill="#ffffff" opacity="1.00" d=" M 0.00 0.00 L 64.00 0.00 L 64.00 64.00 L 0.00 64.00 L 0.00 0.00 M 25.37 11.63 C 22.33 11.20 19.29 10.78 16.25 10.33 C 15.75 13.36 15.22 16.38 14.68 19.40 C 11.97 20.87 9.23 22.28 6.52 23.74 C 7.89 26.48 9.23 29.24 10.56 32.00 C 9.23 34.76 7.89 37.52 6.52 40.26 C 9.23 41.72 11.97 43.13 14.68 44.61 C 15.21 47.63 15.75 50.64 16.25 53.67 C 19.29 53.22 22.33 52.80 25.37 52.37 C 27.60 54.50 29.81 56.63 32.00 58.79 C 34.20 56.65 36.42 54.52 38.62 52.37 C 41.67 52.79 44.71 53.22 47.75 53.67 C 48.25 50.65 48.78 47.63 49.32 44.61 C 52.05 43.17 54.76 41.71 57.48 40.26 C 56.11 37.52 54.77 34.76 53.44 32.00 C 54.77 29.24 56.11 26.48 57.48 23.74 C 54.76 22.29 52.05 20.83 49.32 19.39 C 48.78 16.37 48.25 13.35 47.75 10.33 C 44.71 10.78 41.66 11.21 38.62 11.62 C 36.42 9.48 34.20 7.35 32.00 5.21 C 29.81 7.37 27.60 9.50 25.37 11.63 Z" />
<path fill="#ffffff" opacity="1.00" d=" M 26.72 15.89 C 28.47 14.17 30.24 12.47 32.00 10.76 C 33.77 12.46 35.53 14.17 37.29 15.89 C 39.67 15.53 42.05 15.17 44.43 14.82 C 44.87 17.22 45.31 19.62 45.75 22.02 C 47.86 23.16 49.99 24.30 52.12 25.43 C 51.06 27.62 50.02 29.81 48.97 32.00 C 50.02 34.19 51.06 36.38 52.12 38.57 C 49.99 39.70 47.86 40.84 45.75 41.99 C 45.30 44.38 44.86 46.78 44.43 49.18 C 42.05 48.83 39.66 48.47 37.27 48.12 C 35.52 49.83 33.76 51.54 32.00 53.25 C 30.25 51.53 28.49 49.82 26.72 48.12 C 24.34 48.47 21.95 48.83 19.57 49.18 C 19.13 46.78 18.69 44.38 18.25 41.99 C 16.13 40.84 14.01 39.70 11.88 38.57 C 12.94 36.38 13.98 34.19 15.03 32.00 C 13.98 29.81 12.94 27.62 11.88 25.43 C 14.01 24.30 16.13 23.16 18.25 22.01 C 18.69 19.61 19.13 17.22 19.57 14.82 C 21.95 15.17 24.33 15.53 26.72 15.89 M 24.00 44.00 C 25.00 44.00 27.00 44.00 28.00 44.00 C 32.00 36.00 36.00 28.00 40.00 20.00 C 39.00 20.00 37.00 20.00 36.00 20.00 C 32.00 27.99 28.00 36.00 24.00 44.00 M 23.47 24.43 C 20.09 26.27 23.31 31.71 26.56 29.55 C 29.88 27.70 26.70 22.32 23.47 24.43 M 37.41 34.46 C 35.59 35.52 35.58 38.49 37.42 39.53 C 39.28 40.78 42.02 39.29 41.99 37.05 C 42.11 34.76 39.30 33.20 37.41 34.46 Z" />
</g>
<g id="#000000ff">
<path fill="#000000" opacity="1.00" d=" M 25.37 11.63 C 27.60 9.50 29.81 7.37 32.00 5.21 C 34.20 7.35 36.42 9.48 38.62 11.62 C 41.66 11.21 44.71 10.78 47.75 10.33 C 48.25 13.35 48.78 16.37 49.32 19.39 C 52.05 20.83 54.76 22.29 57.48 23.74 C 56.11 26.48 54.77 29.24 53.44 32.00 C 54.77 34.76 56.11 37.52 57.48 40.26 C 54.76 41.71 52.05 43.17 49.32 44.61 C 48.78 47.63 48.25 50.65 47.75 53.67 C 44.71 53.22 41.67 52.79 38.62 52.37 C 36.42 54.52 34.20 56.65 32.00 58.79 C 29.81 56.63 27.60 54.50 25.37 52.37 C 22.33 52.80 19.29 53.22 16.25 53.67 C 15.75 50.64 15.21 47.63 14.68 44.61 C 11.97 43.13 9.23 41.72 6.52 40.26 C 7.89 37.52 9.23 34.76 10.56 32.00 C 9.23 29.24 7.89 26.48 6.52 23.74 C 9.23 22.28 11.97 20.87 14.68 19.40 C 15.22 16.38 15.75 13.36 16.25 10.33 C 19.29 10.78 22.33 11.20 25.37 11.63 M 26.72 15.89 C 24.33 15.53 21.95 15.17 19.57 14.82 C 19.13 17.22 18.69 19.61 18.25 22.01 C 16.13 23.16 14.01 24.30 11.88 25.43 C 12.94 27.62 13.98 29.81 15.03 32.00 C 13.98 34.19 12.94 36.38 11.88 38.57 C 14.01 39.70 16.13 40.84 18.25 41.99 C 18.69 44.38 19.13 46.78 19.57 49.18 C 21.95 48.83 24.34 48.47 26.72 48.12 C 28.49 49.82 30.25 51.53 32.00 53.25 C 33.76 51.54 35.52 49.83 37.27 48.12 C 39.66 48.47 42.05 48.83 44.43 49.18 C 44.86 46.78 45.30 44.38 45.75 41.99 C 47.86 40.84 49.99 39.70 52.12 38.57 C 51.06 36.38 50.02 34.19 48.97 32.00 C 50.02 29.81 51.06 27.62 52.12 25.43 C 49.99 24.30 47.86 23.16 45.75 22.02 C 45.31 19.62 44.87 17.22 44.43 14.82 C 42.05 15.17 39.67 15.53 37.29 15.89 C 35.53 14.17 33.77 12.46 32.00 10.76 C 30.24 12.47 28.47 14.17 26.72 15.89 Z" />
<path fill="#000000" opacity="1.00" d=" M 24.00 44.00 C 28.00 36.00 32.00 27.99 36.00 20.00 C 37.00 20.00 39.00 20.00 40.00 20.00 C 36.00 28.00 32.00 36.00 28.00 44.00 C 27.00 44.00 25.00 44.00 24.00 44.00 Z" />
<path fill="#000000" opacity="1.00" d=" M 23.47 24.43 C 26.70 22.32 29.88 27.70 26.56 29.55 C 23.31 31.71 20.09 26.27 23.47 24.43 Z" />
<path fill="#000000" opacity="1.00" d=" M 37.41 34.46 C 39.30 33.20 42.11 34.76 41.99 37.05 C 42.02 39.29 39.28 40.78 37.42 39.53 C 35.58 38.49 35.59 35.52 37.41 34.46 Z" />
</g>
</svg>
