<?xml version="1.0" encoding="UTF-8" ?>
<!DOCTYPE svg PUBLIC "-//W3C//DTD SVG 1.1//EN" "http://www.w3.org/Graphics/SVG/1.1/DTD/svg11.dtd">
<svg width="60pt" height="60pt" viewBox="0 0 60 60" version="1.1" xmlns="http://www.w3.org/2000/svg">
<g id="#ffffffff">
<path fill="#ffffff" opacity="1.00" d=" M 0.00 0.00 L 60.00 0.00 L 60.00 60.00 L 0.00 60.00 L 0.00 0.00 M 36.28 4.39 C 33.08 6.63 30.71 9.84 27.79 12.42 C 26.46 12.24 24.89 11.60 24.06 13.10 C 23.59 15.36 25.95 16.53 27.17 18.02 C 25.45 19.73 23.62 21.33 22.14 23.25 C 21.45 24.93 23.14 26.51 24.78 25.82 C 26.70 24.35 28.29 22.52 29.99 20.82 C 33.06 23.88 36.12 26.95 39.19 30.00 C 37.49 31.71 35.65 33.30 34.17 35.21 C 33.37 36.80 35.17 38.58 36.74 37.81 C 38.68 36.38 40.28 34.56 41.96 32.85 C 43.45 34.01 44.60 36.34 46.81 35.91 C 48.38 35.21 47.77 33.52 47.57 32.23 C 50.17 29.30 53.41 26.92 55.62 23.66 C 57.28 19.01 51.83 16.47 49.40 13.42 C 51.53 11.19 53.93 9.21 55.85 6.78 C 56.58 5.12 54.88 3.39 53.22 4.16 C 50.80 6.08 48.81 8.47 46.59 10.60 C 43.52 8.17 40.95 2.67 36.28 4.39 M 12.41 27.81 C 9.83 30.73 6.60 33.08 4.37 36.31 C 2.70 40.97 8.19 43.50 10.60 46.58 C 8.47 48.82 6.07 50.81 4.15 53.24 C 3.44 54.92 5.14 56.53 6.79 55.82 C 9.22 53.91 11.21 51.52 13.44 49.40 C 16.49 51.83 19.05 57.32 23.70 55.60 C 26.93 53.38 29.31 50.16 32.23 47.57 C 33.47 47.69 35.33 48.45 35.87 46.76 C 36.49 45.18 34.80 44.13 33.95 43.08 C 27.48 36.87 21.41 30.22 14.79 24.17 C 12.32 23.17 11.61 26.02 12.41 27.81 Z" />
</g>
<g id="#000000ff">
<path fill="#000000" opacity="1.00" d=" M 36.28 4.39 C 40.95 2.67 43.52 8.17 46.59 10.60 C 48.81 8.47 50.80 6.08 53.22 4.16 C 54.88 3.39 56.58 5.12 55.85 6.78 C 53.93 9.21 51.53 11.19 49.40 13.42 C 51.83 16.47 57.28 19.01 55.62 23.66 C 53.41 26.92 50.17 29.30 47.57 32.23 C 47.77 33.52 48.38 35.21 46.81 35.91 C 44.60 36.34 43.45 34.01 41.96 32.85 C 40.28 34.56 38.68 36.38 36.74 37.81 C 35.17 38.58 33.37 36.80 34.17 35.21 C 35.65 33.30 37.49 31.71 39.19 30.00 C 36.12 26.95 33.06 23.88 29.99 20.82 C 28.29 22.52 26.70 24.35 24.78 25.82 C 23.14 26.51 21.45 24.93 22.14 23.25 C 23.62 21.33 25.45 19.73 27.17 18.02 C 25.95 16.53 23.59 15.36 24.06 13.10 C 24.89 11.60 26.46 12.24 27.79 12.42 C 30.71 9.84 33.08 6.63 36.28 4.39 Z" />
<path fill="#000000" opacity="1.00" d=" M 12.41 27.81 C 11.61 26.02 12.32 23.17 14.79 24.17 C 21.41 30.22 27.48 36.87 33.95 43.08 C 34.80 44.13 36.49 45.18 35.87 46.76 C 35.33 48.45 33.47 47.69 32.23 47.57 C 29.31 50.16 26.93 53.38 23.70 55.60 C 19.05 57.32 16.49 51.83 13.44 49.40 C 11.21 51.52 9.22 53.91 6.79 55.82 C 5.14 56.53 3.44 54.92 4.15 53.24 C 6.07 50.81 8.47 48.82 10.60 46.58 C 8.19 43.50 2.70 40.97 4.37 36.31 C 6.60 33.08 9.83 30.73 12.41 27.81 Z" />
</g>
</svg>
