<?xml version="1.0" encoding="UTF-8" ?>
<!DOCTYPE svg PUBLIC "-//W3C//DTD SVG 1.1//EN" "http://www.w3.org/Graphics/SVG/1.1/DTD/svg11.dtd">
<svg width="64pt" height="64pt" viewBox="0 0 64 64" version="1.1" xmlns="http://www.w3.org/2000/svg">
<g id="#ffffffff">
<path fill="#ffffff" opacity="1.00" d=" M 0.00 0.00 L 64.00 0.00 L 64.00 64.00 L 0.00 64.00 L 0.00 0.00 M 10.00 10.00 C 10.00 24.67 10.00 39.33 10.00 54.00 C 24.67 54.00 39.33 54.00 54.00 54.00 C 54.00 39.33 54.00 24.67 54.00 10.00 C 39.33 10.00 24.67 10.00 10.00 10.00 Z" />
<path fill="#ffffff" opacity="1.00" d=" M 14.00 14.00 C 26.00 14.00 38.00 14.00 50.00 14.00 C 50.00 26.00 50.00 38.00 50.00 50.00 C 38.00 50.00 26.00 50.00 14.00 50.00 C 14.00 38.00 14.00 26.00 14.00 14.00 M 23.92 18.00 C 21.19 22.64 18.56 27.34 15.86 32.00 C 18.56 36.66 21.19 41.36 23.92 46.00 C 29.31 46.00 34.69 46.00 40.08 46.00 C 42.82 41.36 45.44 36.65 48.15 32.00 C 45.44 27.35 42.82 22.64 40.08 18.00 C 34.69 18.00 29.31 18.00 23.92 18.00 Z" />
<path fill="#ffffff" opacity="1.00" d=" M 26.25 22.01 C 30.09 22.00 33.92 22.00 37.76 22.01 C 39.68 25.34 41.64 28.66 43.56 32.00 C 41.63 35.34 39.68 38.66 37.76 42.00 C 33.92 42.00 30.09 42.00 26.25 41.99 C 24.32 38.66 22.37 35.34 20.44 32.00 C 22.37 28.66 24.32 25.34 26.25 22.01 M 24.25 36.00 C 29.42 36.00 34.58 36.01 39.75 35.99 C 37.18 32.10 34.61 28.23 32.00 24.37 C 29.40 28.23 26.82 32.11 24.25 36.00 Z" />
</g>
<g id="#000000ff">
<path fill="#000000" opacity="1.00" d=" M 10.00 10.00 C 24.67 10.00 39.33 10.00 54.00 10.00 C 54.00 24.67 54.00 39.33 54.00 54.00 C 39.33 54.00 24.67 54.00 10.00 54.00 C 10.00 39.33 10.00 24.67 10.00 10.00 M 14.00 14.00 C 14.00 26.00 14.00 38.00 14.00 50.00 C 26.00 50.00 38.00 50.00 50.00 50.00 C 50.00 38.00 50.00 26.00 50.00 14.00 C 38.00 14.00 26.00 14.00 14.00 14.00 Z" />
<path fill="#000000" opacity="1.00" d=" M 23.92 18.00 C 29.31 18.00 34.69 18.00 40.08 18.00 C 42.82 22.64 45.44 27.35 48.15 32.00 C 45.44 36.65 42.82 41.36 40.08 46.00 C 34.69 46.00 29.31 46.00 23.92 46.00 C 21.19 41.36 18.56 36.66 15.86 32.00 C 18.56 27.34 21.19 22.64 23.92 18.00 M 26.25 22.01 C 24.32 25.34 22.37 28.66 20.44 32.00 C 22.37 35.34 24.32 38.66 26.25 41.99 C 30.09 42.00 33.92 42.00 37.76 42.00 C 39.68 38.66 41.63 35.34 43.56 32.00 C 41.64 28.66 39.68 25.34 37.76 22.01 C 33.92 22.00 30.09 22.00 26.25 22.01 Z" />
<path fill="#000000" opacity="1.00" d=" M 24.25 36.00 C 26.82 32.11 29.40 28.23 32.00 24.37 C 34.61 28.23 37.18 32.10 39.75 35.99 C 34.58 36.01 29.42 36.00 24.25 36.00 Z" />
</g>
</svg>
