<?xml version="1.0" encoding="UTF-8" ?>
<!DOCTYPE svg PUBLIC "-//W3C//DTD SVG 1.1//EN" "http://www.w3.org/Graphics/SVG/1.1/DTD/svg11.dtd">
<svg width="60pt" height="60pt" viewBox="0 0 60 60" version="1.1" xmlns="http://www.w3.org/2000/svg">
<g id="#ffffffff">
<path fill="#ffffff" opacity="1.00" d=" M 0.00 0.00 L 60.00 0.00 L 60.00 60.00 L 0.00 60.00 L 0.00 0.00 M 28.41 4.52 C 27.06 5.79 26.37 7.80 24.65 8.63 C 22.03 9.69 19.87 6.44 17.27 7.32 C 14.50 8.67 16.42 12.52 14.44 14.45 C 12.50 16.43 8.57 14.47 7.29 17.34 C 6.51 19.93 9.72 22.09 8.61 24.70 C 7.53 27.10 3.10 27.66 4.13 30.97 C 5.18 32.77 7.54 33.35 8.56 35.16 C 9.84 37.81 6.49 40.03 7.30 42.66 C 8.58 45.52 12.50 43.58 14.43 45.55 C 16.44 47.47 14.46 51.45 17.37 52.70 C 19.94 53.46 22.09 50.29 24.69 51.38 C 26.61 52.34 27.22 54.76 29.02 55.91 C 32.26 56.81 32.88 52.70 35.12 51.45 C 37.78 50.12 40.03 53.53 42.67 52.68 C 45.51 51.38 43.54 47.43 45.58 45.52 C 47.52 43.60 51.36 45.49 52.68 42.70 C 53.46 40.31 50.81 38.37 51.18 35.98 C 51.63 33.14 55.84 32.95 56.02 30.00 C 55.85 27.01 51.49 26.82 51.17 23.88 C 50.94 21.54 53.44 19.65 52.68 17.29 C 51.36 14.50 47.52 16.40 45.59 14.48 C 43.55 12.55 45.54 8.57 42.65 7.29 C 39.90 6.50 37.41 10.19 34.71 8.32 C 32.94 6.68 31.45 2.49 28.41 4.52 Z" />
<path fill="#ffffff" opacity="1.00" d=" M 21.15 19.22 C 24.43 17.80 28.54 20.30 28.38 23.97 C 28.90 27.45 25.53 30.62 22.08 29.73 C 17.08 29.00 16.54 20.91 21.15 19.22 M 22.97 27.25 C 24.58 25.97 25.20 23.76 23.90 22.01 C 20.77 21.83 21.74 25.69 22.97 27.25 Z" />
<path fill="#ffffff" opacity="1.00" d=" M 34.51 19.40 C 36.14 19.40 37.76 19.40 39.39 19.40 C 34.31 26.14 29.49 33.07 25.64 40.60 C 24.00 40.60 22.37 40.60 20.74 40.60 C 25.77 33.82 30.55 26.87 34.51 19.40 Z" />
<path fill="#ffffff" opacity="1.00" d=" M 34.45 30.66 C 37.34 29.23 41.39 30.87 41.86 34.22 C 42.92 37.81 39.83 41.91 35.97 41.07 C 30.94 40.61 30.06 32.66 34.45 30.66 M 36.24 33.32 C 35.02 34.58 35.25 36.50 36.04 37.92 C 38.94 38.70 39.09 32.89 36.24 33.32 Z" />
</g>
<g id="#000000ff">
<path fill="#000000" opacity="1.00" d=" M 28.41 4.52 C 31.45 2.49 32.94 6.68 34.71 8.32 C 37.41 10.19 39.90 6.50 42.65 7.29 C 45.54 8.57 43.55 12.55 45.59 14.48 C 47.52 16.40 51.36 14.50 52.68 17.29 C 53.44 19.65 50.94 21.54 51.17 23.88 C 51.49 26.82 55.85 27.01 56.02 30.00 C 55.84 32.95 51.63 33.14 51.18 35.98 C 50.81 38.37 53.46 40.31 52.68 42.70 C 51.36 45.49 47.52 43.60 45.58 45.52 C 43.54 47.43 45.51 51.38 42.67 52.68 C 40.03 53.53 37.78 50.12 35.12 51.45 C 32.88 52.70 32.26 56.81 29.02 55.91 C 27.22 54.76 26.61 52.34 24.69 51.38 C 22.09 50.29 19.94 53.46 17.37 52.70 C 14.46 51.45 16.44 47.47 14.43 45.55 C 12.50 43.58 8.58 45.52 7.30 42.66 C 6.49 40.03 9.84 37.81 8.56 35.16 C 7.54 33.35 5.18 32.77 4.13 30.97 C 3.10 27.66 7.53 27.10 8.61 24.70 C 9.72 22.09 6.51 19.93 7.29 17.34 C 8.57 14.47 12.50 16.43 14.44 14.45 C 16.42 12.52 14.50 8.67 17.27 7.32 C 19.87 6.44 22.03 9.69 24.65 8.63 C 26.37 7.80 27.06 5.79 28.41 4.52 M 21.15 19.22 C 16.54 20.91 17.08 29.00 22.08 29.73 C 25.53 30.62 28.90 27.45 28.38 23.97 C 28.54 20.30 24.43 17.80 21.15 19.22 M 34.51 19.40 C 30.55 26.87 25.77 33.82 20.74 40.60 C 22.37 40.60 24.00 40.60 25.64 40.60 C 29.49 33.07 34.31 26.14 39.39 19.40 C 37.76 19.40 36.14 19.40 34.51 19.40 M 34.45 30.66 C 30.06 32.66 30.94 40.61 35.97 41.07 C 39.83 41.91 42.92 37.81 41.86 34.22 C 41.39 30.87 37.34 29.23 34.45 30.66 Z" />
<path fill="#000000" opacity="1.00" d=" M 22.97 27.25 C 21.74 25.69 20.77 21.83 23.90 22.01 C 25.20 23.76 24.58 25.97 22.97 27.25 Z" />
<path fill="#000000" opacity="1.00" d=" M 36.24 33.32 C 39.09 32.89 38.94 38.70 36.04 37.92 C 35.25 36.50 35.02 34.58 36.24 33.32 Z" />
</g>
</svg>
