<?xml version="1.0" encoding="UTF-8" ?>
<!DOCTYPE svg PUBLIC "-//W3C//DTD SVG 1.1//EN" "http://www.w3.org/Graphics/SVG/1.1/DTD/svg11.dtd">
<svg width="142pt" height="133pt" viewBox="0 0 142 133" version="1.1" xmlns="http://www.w3.org/2000/svg">
<g id="#fffffff">
<path fill="#ffffff" opacity="1.00" d=" M 0.00 0.00 L 142.00 0.00 L 142.00 133.00 L 0.00 133.00 L 0.00 0.00 M 73.77 23.57 C 70.51 22.41 67.66 24.36 65.09 26.14 C 60.04 30.73 54.88 35.22 49.75 39.74 C 48.25 41.02 46.97 42.74 44.96 43.25 C 37.94 45.18 32.18 50.09 27.59 55.57 C 23.99 60.34 20.80 65.91 20.65 72.04 C 20.51 75.26 23.24 79.34 26.84 78.28 C 29.90 76.84 31.43 73.59 33.48 71.08 C 32.28 75.98 32.33 81.14 33.31 86.07 C 34.93 95.99 39.05 105.69 45.85 113.17 C 49.05 116.66 54.13 117.42 58.56 116.34 C 61.78 115.25 63.98 112.56 66.64 110.62 C 70.61 107.96 75.84 106.62 80.38 108.63 C 86.22 110.23 89.36 117.44 96.02 116.75 C 101.33 117.37 105.61 113.40 108.25 109.24 C 115.94 98.03 120.38 83.65 117.39 70.13 C 119.30 72.71 120.96 75.59 123.58 77.53 C 125.46 78.36 127.84 77.81 129.00 76.07 C 131.24 73.00 130.32 68.94 129.21 65.61 C 125.59 55.93 117.88 47.66 108.30 43.70 C 101.45 42.14 97.96 35.35 93.08 30.95 C 88.28 26.88 82.41 22.35 75.69 23.83 C 75.63 23.13 75.52 21.73 75.46 21.03 C 74.89 21.87 74.33 22.72 73.77 23.57 Z" />
<path fill="#ffffff" opacity="1.00" d=" M 61.34 44.11 C 61.16 39.52 68.07 37.92 69.97 42.10 C 71.99 45.41 69.16 48.65 65.99 49.62 C 63.70 48.60 60.85 47.10 61.34 44.11 M 64.47 46.62 C 66.03 46.93 67.58 46.55 69.09 46.17 C 68.09 45.12 67.16 44.01 66.05 43.09 C 63.88 42.80 64.03 45.18 64.47 46.62 Z" />
<path fill="#ffffff" opacity="1.00" d=" M 80.43 44.87 C 79.73 40.54 86.04 37.59 88.62 41.40 C 91.35 44.55 88.58 48.79 85.01 49.61 C 83.19 48.45 80.29 47.54 80.43 44.87 M 82.39 44.27 C 82.49 44.88 82.67 46.09 82.76 46.70 C 84.33 46.67 85.90 46.55 87.45 46.32 C 86.38 45.00 85.29 43.71 84.19 42.43 C 83.74 42.89 82.84 43.81 82.39 44.27 Z" />
<path fill="#ffffff" opacity="1.00" d=" M 57.54 52.46 C 63.50 54.58 69.54 57.10 76.01 56.73 C 82.07 57.02 87.66 54.44 93.22 52.44 C 91.19 54.45 88.90 56.18 86.44 57.65 C 86.20 60.22 85.83 62.78 85.39 65.34 C 83.73 63.53 82.19 61.63 80.72 59.67 C 77.21 60.47 73.56 60.62 70.04 59.73 C 68.55 61.57 67.00 63.36 65.42 65.12 C 64.47 62.75 64.50 60.18 64.46 57.67 C 62.02 56.12 59.67 54.42 57.54 52.46 Z" />
</g>
<g id="#000000ff">
<path fill="#968176" opacity="1.00" d=" M 73.77 23.57 C 74.33 22.72 74.89 21.87 75.46 21.03 C 75.52 21.73 75.63 23.13 75.69 23.83 C 82.41 22.35 88.28 26.88 93.08 30.95 C 97.96 35.35 101.45 42.14 108.30 43.70 C 117.88 47.66 125.59 55.93 129.21 65.61 C 130.32 68.94 131.24 73.00 129.00 76.07 C 127.84 77.81 125.46 78.36 123.58 77.53 C 120.96 75.59 119.30 72.71 117.39 70.13 C 120.38 83.65 115.94 98.03 108.25 109.24 C 105.61 113.40 101.33 117.37 96.02 116.75 C 89.36 117.44 86.22 110.23 80.38 108.63 C 75.84 106.62 70.61 107.96 66.64 110.62 C 63.98 112.56 61.78 115.25 58.56 116.34 C 54.13 117.42 49.05 116.66 45.85 113.17 C 39.05 105.69 34.93 95.99 33.31 86.07 C 32.33 81.14 32.28 75.98 33.48 71.08 C 31.43 73.59 29.90 76.84 26.84 78.28 C 23.24 79.34 20.51 75.26 20.65 72.04 C 20.80 65.91 23.99 60.34 27.59 55.57 C 32.18 50.09 37.94 45.18 44.96 43.25 C 46.97 42.74 48.25 41.02 49.75 39.74 C 54.88 35.22 60.04 30.73 65.09 26.14 C 67.66 24.36 70.51 22.41 73.77 23.57 M 61.34 44.11 C 60.85 47.10 63.70 48.60 65.99 49.62 C 69.16 48.65 71.99 45.41 69.97 42.10 C 68.07 37.92 61.16 39.52 61.34 44.11 M 80.43 44.87 C 80.29 47.54 83.19 48.45 85.01 49.61 C 88.58 48.79 91.35 44.55 88.62 41.40 C 86.04 37.59 79.73 40.54 80.43 44.87 M 57.54 52.46 C 59.67 54.42 62.02 56.12 64.46 57.67 C 64.50 60.18 64.47 62.75 65.42 65.12 C 67.00 63.36 68.55 61.57 70.04 59.73 C 73.56 60.62 77.21 60.47 80.72 59.67 C 82.19 61.63 83.73 63.53 85.39 65.34 C 85.83 62.78 86.20 60.22 86.44 57.65 C 88.90 56.18 91.19 54.45 93.22 52.44 C 87.66 54.44 82.07 57.02 76.01 56.73 C 69.54 57.10 63.50 54.58 57.54 52.46 Z" />
<path fill="#968176" opacity="1.00" d=" M 64.47 46.62 C 64.03 45.18 63.88 42.80 66.05 43.09 C 67.16 44.01 68.09 45.12 69.09 46.17 C 67.58 46.55 66.03 46.93 64.47 46.62 Z" />
<path fill="#968176" opacity="1.00" d=" M 82.39 44.27 C 82.84 43.81 83.74 42.89 84.19 42.43 C 85.29 43.71 86.38 45.00 87.45 46.32 C 85.90 46.55 84.33 46.67 82.76 46.70 C 82.67 46.09 82.49 44.88 82.39 44.27 Z" />
</g>
</svg>
