<?xml version="1.0" encoding="UTF-8" ?>
<!DOCTYPE svg PUBLIC "-//W3C//DTD SVG 1.1//EN" "http://www.w3.org/Graphics/SVG/1.1/DTD/svg11.dtd">
<svg width="64pt" height="64pt" viewBox="0 0 64 64" version="1.1" xmlns="http://www.w3.org/2000/svg">
<g id="#ffffffff">
<path fill="#ffffff" opacity="1.00" d=" M 0.00 0.00 L 64.00 0.00 L 64.00 64.00 L 0.00 64.00 L 0.00 0.00 M 26.51 6.59 C 17.55 8.45 9.91 15.43 7.22 24.17 C 4.43 32.75 6.57 42.72 12.69 49.36 C 18.90 56.41 29.12 59.58 38.23 57.22 C 47.68 54.98 55.42 47.00 57.40 37.50 C 59.36 28.78 56.37 19.20 49.84 13.12 C 43.76 7.27 34.74 4.77 26.51 6.59 Z" />
<path fill="#ffffff" opacity="1.00" d=" M 26.47 10.71 C 33.19 8.93 40.70 10.59 46.02 15.07 C 51.58 19.61 54.64 27.00 53.88 34.14 C 53.21 41.55 48.46 48.42 41.77 51.68 C 35.50 54.87 27.69 54.73 21.54 51.33 C 13.91 47.28 9.15 38.47 10.11 29.86 C 10.86 20.89 17.74 12.88 26.47 10.71 M 17.89 25.66 C 19.06 26.44 20.22 27.22 21.39 28.00 C 20.23 28.78 19.07 29.55 17.91 30.32 C 18.64 31.43 19.37 32.55 20.11 33.67 C 22.98 31.84 25.76 29.87 28.62 28.02 C 25.79 26.12 22.95 24.23 20.11 22.34 C 19.38 23.45 18.64 24.56 17.89 25.66 M 35.40 28.00 C 38.23 29.89 41.06 31.77 43.89 33.66 C 44.62 32.56 45.35 31.46 46.09 30.36 C 45.00 29.58 43.91 28.81 42.81 28.05 C 43.86 27.19 44.95 26.39 46.09 25.65 C 45.35 24.55 44.62 23.44 43.89 22.34 C 41.06 24.22 38.23 26.11 35.40 28.00 M 18.57 42.48 C 19.49 43.44 20.41 44.41 21.33 45.39 C 23.38 43.69 25.55 42.13 27.92 40.91 C 27.93 42.25 28.00 43.60 28.12 44.94 C 28.65 47.55 32.18 48.98 34.28 47.23 C 36.42 45.86 35.94 43.08 36.08 40.91 C 38.45 42.13 40.63 43.66 42.65 45.39 C 43.58 44.42 44.51 43.46 45.44 42.50 C 41.61 39.31 37.21 36.05 31.98 36.04 C 26.78 36.05 22.41 39.31 18.57 42.48 Z" />
</g>
<g id="#000000ff">
<path fill="#000000" opacity="1.00" d=" M 26.51 6.59 C 34.74 4.77 43.76 7.27 49.84 13.12 C 56.37 19.20 59.36 28.78 57.40 37.50 C 55.42 47.00 47.68 54.98 38.23 57.22 C 29.12 59.58 18.90 56.41 12.69 49.36 C 6.57 42.72 4.43 32.75 7.22 24.17 C 9.91 15.43 17.55 8.45 26.51 6.59 M 26.47 10.71 C 17.74 12.88 10.86 20.89 10.11 29.86 C 9.15 38.47 13.91 47.28 21.54 51.33 C 27.69 54.73 35.50 54.87 41.77 51.68 C 48.46 48.42 53.21 41.55 53.88 34.14 C 54.64 27.00 51.58 19.61 46.02 15.07 C 40.70 10.59 33.19 8.93 26.47 10.71 Z" />
<path fill="#000000" opacity="1.00" d=" M 17.89 25.66 C 18.64 24.56 19.38 23.45 20.11 22.34 C 22.95 24.23 25.79 26.12 28.62 28.02 C 25.76 29.87 22.98 31.84 20.11 33.67 C 19.37 32.55 18.64 31.43 17.91 30.32 C 19.07 29.55 20.23 28.78 21.39 28.00 C 20.22 27.22 19.06 26.44 17.89 25.66 Z" />
<path fill="#000000" opacity="1.00" d=" M 35.40 28.00 C 38.23 26.11 41.06 24.22 43.89 22.34 C 44.62 23.44 45.35 24.55 46.09 25.65 C 44.95 26.39 43.86 27.19 42.81 28.05 C 43.91 28.81 45.00 29.58 46.09 30.36 C 45.35 31.46 44.62 32.56 43.89 33.66 C 41.06 31.77 38.23 29.89 35.40 28.00 Z" />
<path fill="#000000" opacity="1.00" d=" M 18.57 42.48 C 22.41 39.31 26.78 36.05 31.98 36.04 C 37.21 36.05 41.61 39.31 45.44 42.50 C 44.51 43.46 43.58 44.42 42.65 45.39 C 40.63 43.66 38.45 42.13 36.08 40.91 C 35.94 43.08 36.42 45.86 34.28 47.23 C 32.18 48.98 28.65 47.55 28.12 44.94 C 28.00 43.60 27.93 42.25 27.92 40.91 C 25.55 42.13 23.38 43.69 21.33 45.39 C 20.41 44.41 19.49 43.44 18.57 42.48 Z" />
</g>
</svg>
