<?xml version="1.0" encoding="UTF-8" ?>
<!DOCTYPE svg PUBLIC "-//W3C//DTD SVG 1.1//EN" "http://www.w3.org/Graphics/SVG/1.1/DTD/svg11.dtd">
<svg width="64pt" height="64pt" viewBox="0 0 64 64" version="1.1" xmlns="http://www.w3.org/2000/svg">
<g id="#ffffffff">
<path fill="#ffffff" opacity="1.00" d=" M 0.00 0.00 L 64.00 0.00 L 64.00 64.00 L 0.00 64.00 L 0.00 0.00 M 36.80 12.40 L 36.72 13.23 C 37.68 15.56 39.05 11.15 36.80 12.40 M 35.95 15.83 C 35.65 17.98 34.79 19.98 34.00 21.99 C 36.02 21.99 38.05 22.00 40.07 22.01 C 39.32 19.94 38.54 17.87 38.08 15.71 C 37.37 15.75 36.66 15.79 35.95 15.83 M 7.11 33.09 C 2.88 39.16 1.64 46.73 1.98 54.00 C 3.31 54.00 4.65 54.00 5.98 54.00 C 5.70 47.57 6.58 40.83 10.33 35.41 C 14.60 28.71 22.15 24.62 29.99 23.93 C 32.62 24.13 32.56 19.77 29.99 20.06 C 20.86 20.39 12.13 25.49 7.11 33.09 M 41.53 25.53 C 44.18 27.23 47.11 28.53 49.37 30.78 L 50.27 30.70 L 49.87 32.12 L 50.70 31.69 C 56.15 37.74 58.70 45.91 58.02 54.00 C 59.35 54.00 60.69 54.00 62.02 54.00 C 62.02 50.25 62.06 46.44 61.11 42.78 C 58.85 33.53 51.91 25.45 42.95 22.14 C 41.28 22.17 40.11 24.42 41.53 25.53 M 34.38 24.38 C 34.08 26.23 34.01 28.11 33.87 29.98 C 33.16 29.99 31.75 30.01 31.04 30.02 C 30.51 29.22 29.98 28.43 29.44 27.63 C 28.87 28.82 28.29 30.01 27.73 31.20 C 27.87 33.04 28.84 35.92 26.20 36.31 C 25.71 34.77 25.24 33.23 24.75 31.70 C 24.32 33.87 23.93 36.07 23.17 38.16 C 22.27 36.02 21.57 33.80 20.93 31.56 C 20.25 33.43 20.70 36.60 17.84 36.22 C 17.69 38.93 19.16 42.71 16.27 44.41 C 15.80 42.80 15.36 41.18 14.86 39.58 C 14.53 40.93 14.24 42.28 13.94 43.64 C 13.34 44.02 12.14 44.78 11.54 45.16 C 11.74 48.15 11.37 51.11 10.61 54.00 C 15.72 54.00 20.84 54.00 25.96 54.00 C 26.13 51.43 25.52 48.44 27.30 46.29 C 29.36 43.51 33.86 43.24 36.22 45.77 C 38.50 47.88 37.90 51.22 38.04 54.00 C 43.12 54.00 48.20 54.01 53.28 53.99 C 53.12 51.33 51.22 48.39 52.92 45.91 C 51.39 44.32 50.64 42.26 49.87 40.25 C 49.41 40.29 48.50 40.39 48.05 40.44 C 47.75 38.93 47.43 37.43 47.11 35.92 C 46.60 37.42 46.05 38.90 45.44 40.35 C 45.04 39.09 44.69 37.82 44.38 36.54 C 43.99 34.71 43.71 32.84 43.03 31.09 C 42.31 32.83 41.92 34.68 41.31 36.46 C 39.84 32.47 39.88 28.21 39.75 24.03 C 37.98 24.12 36.06 23.67 34.38 24.38 Z" />
</g>
<g id="#000000ff">
<path fill="#000000" opacity="1.00" d=" M 36.80 12.40 C 39.05 11.15 37.68 15.56 36.72 13.23 L 36.80 12.40 Z" />
<path fill="#000000" opacity="1.00" d=" M 35.95 15.83 C 36.66 15.79 37.37 15.75 38.08 15.71 C 38.54 17.87 39.32 19.94 40.07 22.01 C 38.05 22.00 36.02 21.99 34.00 21.99 C 34.79 19.98 35.65 17.98 35.95 15.83 Z" />
<path fill="#000000" opacity="1.00" d=" M 7.11 33.09 C 12.13 25.49 20.86 20.39 29.99 20.06 C 32.56 19.77 32.62 24.13 29.99 23.93 C 22.15 24.62 14.60 28.71 10.33 35.41 C 6.58 40.83 5.70 47.57 5.98 54.00 C 4.65 54.00 3.31 54.00 1.98 54.00 C 1.64 46.73 2.88 39.16 7.11 33.09 Z" />
<path fill="#000000" opacity="1.00" d=" M 41.53 25.53 C 40.11 24.42 41.28 22.17 42.95 22.14 C 51.91 25.45 58.85 33.53 61.11 42.78 C 62.06 46.44 62.02 50.25 62.02 54.00 C 60.69 54.00 59.35 54.00 58.02 54.00 C 58.70 45.91 56.15 37.74 50.70 31.69 L 49.87 32.12 L 50.27 30.70 L 49.37 30.78 C 47.11 28.53 44.18 27.23 41.53 25.53 Z" />
<path fill="#000000" opacity="1.00" d=" M 34.38 24.38 C 36.06 23.67 37.98 24.12 39.75 24.03 C 39.88 28.21 39.84 32.47 41.31 36.46 C 41.92 34.68 42.31 32.83 43.03 31.09 C 43.71 32.84 43.99 34.71 44.38 36.54 C 44.69 37.82 45.04 39.09 45.44 40.35 C 46.05 38.90 46.60 37.42 47.11 35.92 C 47.43 37.43 47.75 38.93 48.05 40.44 C 48.50 40.39 49.41 40.29 49.87 40.25 C 50.64 42.26 51.39 44.32 52.92 45.91 C 51.22 48.39 53.12 51.33 53.28 53.99 C 48.20 54.01 43.12 54.00 38.04 54.00 C 37.90 51.22 38.50 47.88 36.22 45.77 C 33.86 43.24 29.36 43.51 27.30 46.29 C 25.52 48.44 26.13 51.43 25.96 54.00 C 20.84 54.00 15.72 54.00 10.61 54.00 C 11.37 51.11 11.74 48.15 11.54 45.16 C 12.14 44.78 13.34 44.02 13.94 43.64 C 14.24 42.28 14.53 40.93 14.86 39.58 C 15.36 41.18 15.80 42.80 16.27 44.41 C 19.16 42.71 17.69 38.93 17.84 36.22 C 20.70 36.60 20.25 33.43 20.93 31.56 C 21.57 33.80 22.27 36.02 23.17 38.16 C 23.93 36.07 24.32 33.87 24.75 31.70 C 25.24 33.23 25.71 34.77 26.20 36.31 C 28.84 35.92 27.87 33.04 27.73 31.20 C 28.29 30.01 28.87 28.82 29.44 27.63 C 29.98 28.43 30.51 29.22 31.04 30.02 C 31.75 30.01 33.16 29.99 33.87 29.98 C 34.01 28.11 34.08 26.23 34.38 24.38 Z" />
</g>
</svg>
