<?xml version="1.0" encoding="UTF-8" ?>
<!DOCTYPE svg PUBLIC "-//W3C//DTD SVG 1.1//EN" "http://www.w3.org/Graphics/SVG/1.1/DTD/svg11.dtd">
<svg width="64pt" height="64pt" viewBox="0 0 64 64" version="1.1" xmlns="http://www.w3.org/2000/svg">
<g id="#ffffffff">
<path fill="#ffffff" opacity="1.00" d=" M 0.00 0.00 L 64.00 0.00 L 64.00 64.00 L 0.00 64.00 L 0.00 0.00 M 12.82 10.15 C 13.57 11.29 14.31 12.44 15.05 13.59 C 17.85 12.03 21.08 11.58 24.01 13.08 C 23.99 15.39 23.99 17.69 24.00 19.99 C 24.50 19.99 25.50 20.01 26.00 20.01 C 26.00 20.51 26.00 21.50 26.00 22.00 C 22.67 21.99 19.33 22.01 16.00 22.00 C 16.00 33.33 16.00 44.67 16.00 56.00 C 26.67 56.00 37.33 56.00 48.00 56.00 C 48.00 44.67 48.00 33.33 48.00 22.00 C 44.67 22.01 41.33 21.99 38.00 22.00 C 38.00 21.50 38.00 20.51 38.00 20.01 C 38.50 20.01 39.50 19.99 40.00 19.99 C 40.00 16.66 40.00 13.33 40.00 10.00 C 36.34 9.97 32.68 10.03 29.02 10.02 C 25.84 10.23 23.20 7.87 20.02 8.02 C 17.44 7.93 15.12 9.18 12.82 10.15 Z" />
<path fill="#ffffff" opacity="1.00" d=" M 28.00 14.00 C 30.67 14.00 33.33 14.00 36.00 14.00 C 36.00 14.50 36.00 15.50 36.00 16.00 C 33.33 16.00 30.67 16.00 28.00 16.00 C 28.00 15.50 28.00 14.50 28.00 14.00 Z" />
<path fill="#ffffff" opacity="1.00" d=" M 30.00 20.00 C 31.33 20.00 32.67 20.00 34.00 20.00 C 34.00 20.50 34.00 21.50 34.00 22.00 C 32.67 22.00 31.33 22.00 30.00 22.00 C 30.00 21.50 30.00 20.50 30.00 20.00 Z" />
<path fill="#ffffff" opacity="1.00" d=" M 20.00 26.00 C 28.00 26.00 36.00 26.00 44.00 26.00 C 44.00 28.06 44.00 30.13 43.99 32.19 C 40.74 32.52 40.15 28.35 37.10 28.10 C 34.10 27.38 31.61 29.59 30.21 31.98 C 26.81 32.02 23.40 32.00 20.00 32.00 C 20.00 30.00 20.00 28.00 20.00 26.00 Z" />
<path fill="#ffffff" opacity="1.00" d=" M 35.17 32.11 C 37.56 31.15 39.10 34.67 36.91 35.89 C 34.46 36.93 32.81 33.22 35.17 32.11 Z" />
<path fill="#ffffff" opacity="1.00" d=" M 20.00 36.00 C 23.40 36.02 26.79 35.98 30.19 36.01 C 31.64 38.65 34.68 40.91 37.80 39.69 C 40.36 39.05 41.01 35.45 43.99 35.80 C 44.01 41.20 43.99 46.60 44.00 52.00 C 36.00 52.00 28.00 52.00 20.00 52.00 C 20.00 46.67 20.00 41.33 20.00 36.00 M 27.21 42.18 C 24.76 43.03 26.50 47.01 28.76 45.82 C 31.24 45.00 29.52 40.98 27.21 42.18 Z" />
</g>
<g id="#000000ff">
<path fill="#000000" opacity="1.00" d=" M 12.82 10.15 C 15.12 9.18 17.44 7.93 20.02 8.02 C 23.20 7.87 25.84 10.23 29.02 10.02 C 32.68 10.03 36.34 9.97 40.00 10.00 C 40.00 13.33 40.00 16.66 40.00 19.99 C 39.50 19.99 38.50 20.01 38.00 20.01 C 38.00 20.51 38.00 21.50 38.00 22.00 C 41.33 21.99 44.67 22.01 48.00 22.00 C 48.00 33.33 48.00 44.67 48.00 56.00 C 37.33 56.00 26.67 56.00 16.00 56.00 C 16.00 44.67 16.00 33.33 16.00 22.00 C 19.33 22.01 22.67 21.99 26.00 22.00 C 26.00 21.50 26.00 20.51 26.00 20.01 C 25.50 20.01 24.50 19.99 24.00 19.99 C 23.99 17.69 23.99 15.39 24.01 13.08 C 21.08 11.58 17.85 12.03 15.05 13.59 C 14.31 12.44 13.57 11.29 12.82 10.15 M 28.00 14.00 C 28.00 14.50 28.00 15.50 28.00 16.00 C 30.67 16.00 33.33 16.00 36.00 16.00 C 36.00 15.50 36.00 14.50 36.00 14.00 C 33.33 14.00 30.67 14.00 28.00 14.00 M 30.00 20.00 C 30.00 20.50 30.00 21.50 30.00 22.00 C 31.33 22.00 32.67 22.00 34.00 22.00 C 34.00 21.50 34.00 20.50 34.00 20.00 C 32.67 20.00 31.33 20.00 30.00 20.00 M 20.00 26.00 C 20.00 28.00 20.00 30.00 20.00 32.00 C 23.40 32.00 26.81 32.02 30.21 31.98 C 31.61 29.59 34.10 27.38 37.10 28.10 C 40.15 28.35 40.74 32.52 43.99 32.19 C 44.00 30.13 44.00 28.06 44.00 26.00 C 36.00 26.00 28.00 26.00 20.00 26.00 M 35.17 32.11 C 32.81 33.22 34.46 36.93 36.91 35.89 C 39.10 34.67 37.56 31.15 35.17 32.11 M 20.00 36.00 C 20.00 41.33 20.00 46.67 20.00 52.00 C 28.00 52.00 36.00 52.00 44.00 52.00 C 43.99 46.60 44.01 41.20 43.99 35.80 C 41.01 35.45 40.36 39.05 37.80 39.69 C 34.68 40.91 31.64 38.65 30.19 36.01 C 26.79 35.98 23.40 36.02 20.00 36.00 Z" />
<path fill="#000000" opacity="1.00" d=" M 27.21 42.18 C 29.52 40.98 31.24 45.00 28.76 45.82 C 26.50 47.01 24.76 43.03 27.21 42.18 Z" />
</g>
</svg>
