<?xml version="1.0" encoding="UTF-8" ?>
<!DOCTYPE svg PUBLIC "-//W3C//DTD SVG 1.1//EN" "http://www.w3.org/Graphics/SVG/1.1/DTD/svg11.dtd">
<svg width="64pt" height="64pt" viewBox="0 0 64 64" version="1.1" xmlns="http://www.w3.org/2000/svg">
<g id="#ffffffff">
<path fill="#ffffff" opacity="1.00" d=" M 0.00 0.00 L 64.00 0.00 L 64.00 64.00 L 0.00 64.00 L 0.00 0.00 M 19.13 10.03 C 16.11 13.08 13.08 16.11 10.03 19.13 C 9.96 30.75 10.02 42.37 10.00 54.00 C 21.63 53.99 33.26 54.03 44.88 53.98 C 47.91 50.94 50.93 47.90 53.97 44.89 C 54.03 33.26 53.99 21.63 54.00 10.00 C 42.37 10.02 30.75 9.96 19.13 10.03 Z" />
<path fill="#ffffff" opacity="1.00" d=" M 16.92 17.93 C 18.27 16.62 19.43 15.04 21.08 14.09 C 29.75 13.90 38.43 13.98 47.09 14.07 C 45.73 15.37 44.59 17.01 42.91 17.92 C 34.25 18.09 25.58 18.02 16.92 17.93 Z" />
<path fill="#ffffff" opacity="1.00" d=" M 46.08 21.09 C 47.01 19.42 48.62 18.28 49.92 16.92 C 50.02 25.58 50.09 34.25 49.91 42.91 C 49.00 44.59 47.38 45.73 46.07 47.09 C 45.98 38.43 45.91 29.75 46.08 21.09 Z" />
<path fill="#ffffff" opacity="1.00" d=" M 14.00 22.00 C 23.33 22.00 32.67 22.00 42.00 22.00 C 42.00 31.33 42.00 40.67 42.00 50.00 C 32.67 50.00 23.33 50.00 14.00 50.00 C 14.00 40.67 14.00 31.33 14.00 22.00 M 16.00 24.00 C 16.00 26.66 16.00 29.33 16.00 32.00 C 18.67 32.00 21.33 32.00 24.00 32.00 C 24.00 29.33 24.00 26.67 24.00 24.00 C 21.33 24.00 18.66 24.00 16.00 24.00 M 32.00 24.00 C 32.00 26.67 32.00 29.33 32.00 32.00 C 34.67 32.00 37.33 32.00 40.00 32.00 C 40.00 29.33 40.00 26.66 40.00 24.00 C 37.34 24.00 34.67 24.00 32.00 24.00 M 24.00 32.00 C 23.99 34.67 23.99 37.33 24.00 40.00 C 26.67 40.01 29.33 40.01 32.00 40.00 C 32.01 37.33 32.01 34.67 32.00 32.00 C 29.33 31.99 26.67 31.99 24.00 32.00 M 16.00 40.00 C 16.00 42.67 16.00 45.34 16.00 48.00 C 18.66 48.00 21.33 48.00 24.00 48.00 C 24.00 45.33 24.00 42.66 24.00 40.00 C 21.33 40.00 18.67 40.00 16.00 40.00 M 32.00 40.00 C 32.00 42.66 32.00 45.33 32.00 48.00 C 34.67 48.00 37.34 48.00 40.00 48.00 C 40.00 45.33 40.00 42.67 40.00 40.00 C 37.33 40.00 34.67 40.00 32.00 40.00 Z" />
</g>
<g id="#000000ff">
<path fill="#000000" opacity="1.00" d=" M 19.13 10.03 C 30.75 9.96 42.37 10.02 54.00 10.00 C 53.99 21.63 54.03 33.26 53.97 44.89 C 50.93 47.90 47.91 50.94 44.88 53.98 C 33.26 54.03 21.63 53.99 10.00 54.00 C 10.02 42.37 9.96 30.75 10.03 19.13 C 13.08 16.11 16.11 13.08 19.13 10.03 M 16.92 17.93 C 25.58 18.02 34.25 18.09 42.91 17.92 C 44.59 17.01 45.73 15.37 47.09 14.07 C 38.43 13.98 29.75 13.90 21.08 14.09 C 19.43 15.04 18.27 16.62 16.92 17.93 M 46.08 21.09 C 45.91 29.75 45.98 38.43 46.07 47.09 C 47.38 45.73 49.00 44.59 49.91 42.91 C 50.09 34.25 50.02 25.58 49.92 16.92 C 48.62 18.28 47.01 19.42 46.08 21.09 M 14.00 22.00 C 14.00 31.33 14.00 40.67 14.00 50.00 C 23.33 50.00 32.67 50.00 42.00 50.00 C 42.00 40.67 42.00 31.33 42.00 22.00 C 32.67 22.00 23.33 22.00 14.00 22.00 Z" />
<path fill="#000000" opacity="1.00" d=" M 16.00 24.00 C 18.66 24.00 21.33 24.00 24.00 24.00 C 24.00 26.67 24.00 29.33 24.00 32.00 C 21.33 32.00 18.67 32.00 16.00 32.00 C 16.00 29.33 16.00 26.66 16.00 24.00 Z" />
<path fill="#000000" opacity="1.00" d=" M 32.00 24.00 C 34.67 24.00 37.34 24.00 40.00 24.00 C 40.00 26.66 40.00 29.33 40.00 32.00 C 37.33 32.00 34.67 32.00 32.00 32.00 C 32.00 29.33 32.00 26.67 32.00 24.00 Z" />
<path fill="#000000" opacity="1.00" d=" M 24.00 32.00 C 26.67 31.99 29.33 31.99 32.00 32.00 C 32.01 34.67 32.01 37.33 32.00 40.00 C 29.33 40.01 26.67 40.01 24.00 40.00 C 23.99 37.33 23.99 34.67 24.00 32.00 Z" />
<path fill="#000000" opacity="1.00" d=" M 16.00 40.00 C 18.67 40.00 21.33 40.00 24.00 40.00 C 24.00 42.66 24.00 45.33 24.00 48.00 C 21.33 48.00 18.66 48.00 16.00 48.00 C 16.00 45.34 16.00 42.67 16.00 40.00 Z" />
<path fill="#000000" opacity="1.00" d=" M 32.00 40.00 C 34.67 40.00 37.33 40.00 40.00 40.00 C 40.00 42.67 40.00 45.33 40.00 48.00 C 37.34 48.00 34.67 48.00 32.00 48.00 C 32.00 45.33 32.00 42.66 32.00 40.00 Z" />
</g>
</svg>
