<?xml version="1.0" encoding="UTF-8" ?>
<!DOCTYPE svg PUBLIC "-//W3C//DTD SVG 1.1//EN" "http://www.w3.org/Graphics/SVG/1.1/DTD/svg11.dtd">
<svg width="60pt" height="60pt" viewBox="0 0 60 60" version="1.1" xmlns="http://www.w3.org/2000/svg">
<g id="#ffffffff">
<path fill="#ffffff" opacity="1.00" d=" M 0.00 0.00 L 60.00 0.00 L 60.00 60.00 L 0.00 60.00 L 0.00 0.00 M 16.00 10.02 C 10.87 15.13 9.65 22.69 9.96 29.63 C 5.89 32.07 8.38 38.23 12.09 39.81 C 12.97 42.45 13.76 45.18 15.46 47.43 C 17.24 50.10 20.25 51.48 22.61 53.55 C 25.39 55.92 29.33 56.33 32.82 55.84 C 35.23 54.69 33.49 51.29 31.08 52.03 C 26.54 52.65 23.67 48.93 20.24 46.73 C 17.56 44.65 16.69 41.16 15.84 38.04 C 18.94 38.11 22.08 37.72 25.17 38.17 C 27.46 39.15 30.05 40.98 32.51 39.25 C 36.02 37.07 40.27 38.27 44.15 38.05 C 43.55 40.61 42.59 43.06 41.25 45.33 C 38.93 44.27 36.41 44.08 33.92 43.80 C 32.17 43.04 30.34 41.14 28.33 42.39 C 25.30 43.63 25.25 48.42 28.34 49.61 C 31.24 51.34 33.17 47.10 36.11 47.99 C 39.40 47.96 41.76 50.82 42.09 53.91 C 41.96 56.07 44.98 56.79 45.83 54.82 C 46.37 52.44 45.17 50.17 44.20 48.08 C 45.86 45.54 47.02 42.73 47.87 39.83 C 51.61 38.26 54.12 32.06 50.04 29.63 C 49.96 23.49 50.11 16.79 46.56 11.46 C 45.19 9.21 42.63 8.31 40.18 7.82 C 33.49 1.37 21.96 3.65 16.00 10.02 Z" />
<path fill="#ffffff" opacity="1.00" d=" M 15.71 25.70 C 24.99 23.44 34.94 23.45 44.23 25.68 C 45.45 27.84 46.26 31.00 45.57 33.44 C 42.32 34.64 38.59 33.76 35.16 33.97 C 33.72 32.40 32.45 30.02 30.03 30.01 C 27.58 29.94 26.30 32.37 24.89 33.97 C 21.20 33.79 17.30 34.69 13.81 33.18 C 14.53 30.73 14.27 27.87 15.71 25.70 Z" />
</g>
<g id="#000000ff">
<path fill="#000000" opacity="1.00" d=" M 16.00 10.02 C 21.96 3.65 33.49 1.37 40.18 7.82 C 42.63 8.31 45.19 9.21 46.56 11.46 C 50.11 16.79 49.96 23.49 50.04 29.63 C 54.12 32.06 51.61 38.26 47.87 39.83 C 47.02 42.73 45.86 45.54 44.20 48.08 C 45.17 50.17 46.37 52.44 45.83 54.82 C 44.98 56.79 41.96 56.07 42.09 53.91 C 41.76 50.82 39.40 47.96 36.11 47.99 C 33.17 47.10 31.24 51.34 28.34 49.61 C 25.25 48.42 25.30 43.63 28.33 42.39 C 30.34 41.14 32.17 43.04 33.92 43.80 C 36.41 44.08 38.93 44.27 41.25 45.33 C 42.59 43.06 43.55 40.61 44.15 38.05 C 40.27 38.27 36.02 37.07 32.51 39.25 C 30.05 40.98 27.46 39.15 25.17 38.17 C 22.08 37.72 18.94 38.11 15.84 38.04 C 16.69 41.16 17.56 44.65 20.24 46.73 C 23.67 48.93 26.54 52.65 31.08 52.03 C 33.49 51.29 35.23 54.69 32.82 55.84 C 29.33 56.33 25.39 55.92 22.61 53.55 C 20.25 51.48 17.24 50.10 15.46 47.43 C 13.76 45.18 12.97 42.45 12.09 39.81 C 8.38 38.23 5.89 32.07 9.96 29.63 C 9.65 22.69 10.87 15.13 16.00 10.02 M 15.71 25.70 C 14.27 27.87 14.53 30.73 13.81 33.18 C 17.30 34.69 21.20 33.79 24.89 33.97 C 26.30 32.37 27.58 29.94 30.03 30.01 C 32.45 30.02 33.72 32.40 35.16 33.97 C 38.59 33.76 42.32 34.64 45.57 33.44 C 46.26 31.00 45.45 27.84 44.23 25.68 C 34.94 23.45 24.99 23.44 15.71 25.70 Z" />
</g>
</svg>
