<?xml version="1.0" encoding="UTF-8" ?>
<!DOCTYPE svg PUBLIC "-//W3C//DTD SVG 1.1//EN" "http://www.w3.org/Graphics/SVG/1.1/DTD/svg11.dtd">
<svg width="64pt" height="64pt" viewBox="0 0 64 64" version="1.1" xmlns="http://www.w3.org/2000/svg">
<g id="#ffffffff">
<path fill="#ffffff" opacity="1.00" d=" M 0.00 0.00 L 64.00 0.00 L 64.00 64.00 L 0.00 64.00 L 0.00 0.00 M 11.97 18.69 C 11.99 17.13 12.00 15.56 12.01 14.00 C 10.67 14.00 9.34 14.00 8.00 14.00 C 8.00 18.00 8.00 22.00 8.00 26.00 C 12.00 26.00 16.00 26.00 20.00 26.00 C 20.00 24.67 20.00 23.34 20.00 22.01 C 18.22 22.00 16.44 21.98 14.66 21.96 C 18.98 14.74 27.83 10.53 36.13 12.44 C 45.24 14.15 52.02 22.82 52.09 32.00 C 53.42 32.00 54.75 31.99 56.09 31.98 C 56.00 21.46 48.56 11.43 38.27 8.85 C 28.53 6.03 17.58 10.35 11.97 18.69 M 25.00 42.00 C 26.00 42.00 28.00 42.00 29.00 42.00 C 32.33 35.33 35.67 28.67 39.00 22.00 C 38.00 22.00 36.00 22.00 35.00 22.00 C 31.67 28.67 28.33 35.33 25.00 42.00 M 23.38 24.48 C 21.31 25.68 21.73 29.26 24.11 29.81 C 26.24 30.72 28.73 28.22 27.80 26.09 C 27.36 24.24 24.92 23.44 23.38 24.48 M 7.91 32.02 C 7.98 42.54 15.43 52.50 25.68 55.14 C 35.43 57.97 46.41 53.66 52.03 45.30 C 52.01 46.87 52.00 48.43 51.99 50.00 C 53.33 50.00 54.66 50.00 56.00 50.00 C 56.00 46.00 56.00 42.00 56.00 38.00 C 52.00 38.00 48.00 38.00 44.00 38.00 C 44.00 39.33 44.00 40.66 44.00 41.99 C 45.78 42.00 47.56 42.02 49.34 42.04 C 45.01 49.21 36.22 53.45 27.93 51.57 C 18.79 49.88 11.97 41.20 11.89 32.00 C 10.56 32.00 9.24 32.01 7.91 32.02 M 37.40 34.47 C 35.30 35.65 35.72 39.27 38.11 39.81 C 40.27 40.71 42.76 38.18 41.79 36.04 C 41.33 34.23 38.92 33.47 37.40 34.47 Z" />
</g>
<g id="#000000ff">
<path fill="#000000" opacity="1.00" d=" M 11.97 18.69 C 17.58 10.35 28.53 6.03 38.27 8.85 C 48.56 11.43 56.00 21.46 56.09 31.98 C 54.75 31.99 53.42 32.00 52.09 32.00 C 52.02 22.82 45.24 14.15 36.13 12.44 C 27.83 10.53 18.98 14.74 14.66 21.96 C 16.44 21.98 18.22 22.00 20.00 22.01 C 20.00 23.34 20.00 24.67 20.00 26.00 C 16.00 26.00 12.00 26.00 8.00 26.00 C 8.00 22.00 8.00 18.00 8.00 14.00 C 9.34 14.00 10.67 14.00 12.01 14.00 C 12.00 15.56 11.99 17.13 11.97 18.69 Z" />
<path fill="#000000" opacity="1.00" d=" M 25.00 42.00 C 28.33 35.33 31.67 28.67 35.00 22.00 C 36.00 22.00 38.00 22.00 39.00 22.00 C 35.67 28.67 32.33 35.33 29.00 42.00 C 28.00 42.00 26.00 42.00 25.00 42.00 Z" />
<path fill="#000000" opacity="1.00" d=" M 23.38 24.48 C 24.92 23.44 27.36 24.24 27.80 26.09 C 28.73 28.22 26.24 30.72 24.11 29.81 C 21.73 29.26 21.31 25.68 23.38 24.48 Z" />
<path fill="#000000" opacity="1.00" d=" M 7.91 32.02 C 9.24 32.01 10.56 32.00 11.89 32.00 C 11.97 41.20 18.79 49.88 27.93 51.57 C 36.22 53.45 45.01 49.21 49.34 42.04 C 47.56 42.02 45.78 42.00 44.00 41.99 C 44.00 40.66 44.00 39.33 44.00 38.00 C 48.00 38.00 52.00 38.00 56.00 38.00 C 56.00 42.00 56.00 46.00 56.00 50.00 C 54.66 50.00 53.33 50.00 51.99 50.00 C 52.00 48.43 52.01 46.87 52.03 45.30 C 46.41 53.66 35.43 57.97 25.68 55.14 C 15.43 52.50 7.98 42.54 7.91 32.02 Z" />
<path fill="#000000" opacity="1.00" d=" M 37.40 34.47 C 38.92 33.47 41.33 34.23 41.79 36.04 C 42.76 38.18 40.27 40.71 38.11 39.81 C 35.72 39.27 35.30 35.65 37.40 34.47 Z" />
</g>
</svg>
