<?xml version="1.0" encoding="UTF-8" ?>
<!DOCTYPE svg PUBLIC "-//W3C//DTD SVG 1.1//EN" "http://www.w3.org/Graphics/SVG/1.1/DTD/svg11.dtd">
<svg width="64pt" height="64pt" viewBox="0 0 64 64" version="1.1" xmlns="http://www.w3.org/2000/svg">
<g id="#ffffffff">
<path fill="#ffffff" opacity="1.00" d=" M 0.00 0.00 L 64.00 0.00 L 64.00 64.00 L 0.00 64.00 L 0.00 0.00 M 12.00 6.00 C 12.00 10.67 12.00 15.33 12.00 20.00 C 13.33 20.00 14.67 20.00 16.00 20.00 C 16.00 16.67 16.00 13.33 16.00 10.00 C 26.67 10.00 37.33 10.00 48.00 10.00 C 48.00 13.33 48.00 16.67 48.00 20.00 C 49.33 20.00 50.67 20.00 52.00 20.00 C 52.00 15.33 52.00 10.67 52.00 6.00 C 38.67 6.00 25.33 6.00 12.00 6.00 M 14.00 23.97 C 14.00 29.33 14.00 34.68 14.00 40.03 C 16.56 39.89 19.52 40.47 21.67 38.71 C 24.83 36.22 24.18 31.61 23.67 28.11 C 22.44 23.93 17.60 23.69 14.00 23.97 M 26.00 24.00 C 26.00 29.33 26.00 34.67 26.00 40.00 C 27.33 40.00 28.67 40.00 30.00 40.00 C 30.00 36.90 30.00 33.81 30.00 30.71 C 30.67 31.58 31.34 32.44 32.02 33.31 C 32.68 32.44 33.34 31.57 34.00 30.70 C 34.00 33.80 34.00 36.90 34.00 40.00 C 35.33 40.00 36.67 40.00 38.00 40.00 C 38.00 34.67 38.00 29.33 38.00 24.00 C 36.67 24.00 35.33 24.00 34.00 24.00 C 33.33 24.87 32.67 25.74 32.00 26.61 C 31.33 25.74 30.67 24.87 30.00 24.00 C 28.67 24.00 27.33 24.00 26.00 24.00 M 40.15 36.09 C 41.06 40.65 46.47 40.13 50.00 40.01 C 50.00 37.34 50.00 34.67 50.00 32.00 C 48.67 32.00 47.33 32.00 46.00 32.00 C 46.00 33.41 46.00 34.81 45.99 36.22 C 45.57 36.08 44.73 35.79 44.31 35.64 C 44.17 33.22 42.77 29.22 45.36 27.85 C 45.49 30.71 48.18 29.95 50.16 30.03 C 50.47 26.31 46.79 22.68 43.07 24.38 C 38.59 26.40 40.16 32.22 40.15 36.09 M 12.00 44.00 C 12.00 48.67 12.00 53.33 12.00 58.00 C 25.33 58.00 38.67 58.00 52.00 58.00 C 52.00 53.33 52.00 48.67 52.00 44.00 C 50.67 44.00 49.33 44.00 48.00 44.00 C 48.00 47.33 48.00 50.67 48.00 54.00 C 37.33 54.00 26.67 54.00 16.00 54.00 C 16.00 50.67 16.00 47.33 16.00 44.00 C 14.67 44.00 13.33 44.00 12.00 44.00 Z" />
<path fill="#ffffff" opacity="1.00" d=" M 18.07 27.68 C 21.00 29.25 20.98 34.75 18.07 36.32 C 17.96 33.44 17.97 30.56 18.07 27.68 Z" />
</g>
<g id="#000000ff">
<path fill="#000000" opacity="1.00" d=" M 12.00 6.00 C 25.33 6.00 38.67 6.00 52.00 6.00 C 52.00 10.67 52.00 15.33 52.00 20.00 C 50.67 20.00 49.33 20.00 48.00 20.00 C 48.00 16.67 48.00 13.33 48.00 10.00 C 37.33 10.00 26.67 10.00 16.00 10.00 C 16.00 13.33 16.00 16.67 16.00 20.00 C 14.67 20.00 13.33 20.00 12.00 20.00 C 12.00 15.33 12.00 10.67 12.00 6.00 Z" />
<path fill="#000000" opacity="1.00" d=" M 14.00 23.97 C 17.60 23.69 22.44 23.93 23.67 28.11 C 24.18 31.61 24.83 36.22 21.67 38.71 C 19.52 40.47 16.56 39.89 14.00 40.03 C 14.00 34.68 14.00 29.33 14.00 23.97 M 18.07 27.68 C 17.97 30.56 17.96 33.44 18.07 36.32 C 20.98 34.75 21.00 29.25 18.07 27.68 Z" />
<path fill="#000000" opacity="1.00" d=" M 26.00 24.00 C 27.33 24.00 28.67 24.00 30.00 24.00 C 30.67 24.87 31.33 25.74 32.00 26.61 C 32.67 25.74 33.33 24.87 34.00 24.00 C 35.33 24.00 36.67 24.00 38.00 24.00 C 38.00 29.33 38.00 34.67 38.00 40.00 C 36.67 40.00 35.33 40.00 34.00 40.00 C 34.00 36.90 34.00 33.80 34.00 30.70 C 33.34 31.57 32.68 32.44 32.02 33.31 C 31.34 32.44 30.67 31.58 30.00 30.71 C 30.00 33.81 30.00 36.90 30.00 40.00 C 28.67 40.00 27.33 40.00 26.00 40.00 C 26.00 34.67 26.00 29.33 26.00 24.00 Z" />
<path fill="#000000" opacity="1.00" d=" M 40.15 36.09 C 40.16 32.22 38.59 26.40 43.07 24.38 C 46.79 22.68 50.47 26.31 50.16 30.03 C 48.18 29.95 45.49 30.71 45.36 27.85 C 42.77 29.22 44.17 33.22 44.31 35.64 C 44.73 35.79 45.57 36.08 45.99 36.22 C 46.00 34.81 46.00 33.41 46.00 32.00 C 47.33 32.00 48.67 32.00 50.00 32.00 C 50.00 34.67 50.00 37.34 50.00 40.01 C 46.47 40.13 41.06 40.65 40.15 36.09 Z" />
<path fill="#000000" opacity="1.00" d=" M 12.00 44.00 C 13.33 44.00 14.67 44.00 16.00 44.00 C 16.00 47.33 16.00 50.67 16.00 54.00 C 26.67 54.00 37.33 54.00 48.00 54.00 C 48.00 50.67 48.00 47.33 48.00 44.00 C 49.33 44.00 50.67 44.00 52.00 44.00 C 52.00 48.67 52.00 53.33 52.00 58.00 C 38.67 58.00 25.33 58.00 12.00 58.00 C 12.00 53.33 12.00 48.67 12.00 44.00 Z" />
</g>
</svg>
