<?xml version="1.0" encoding="UTF-8" ?>
<!DOCTYPE svg PUBLIC "-//W3C//DTD SVG 1.1//EN" "http://www.w3.org/Graphics/SVG/1.1/DTD/svg11.dtd">
<svg width="64pt" height="64pt" viewBox="0 0 64 64" version="1.1" xmlns="http://www.w3.org/2000/svg">
<g id="#ffffffff">
<path fill="#ffffff" opacity="1.00" d=" M 0.00 0.00 L 64.00 0.00 L 64.00 64.00 L 0.00 64.00 L 0.00 0.00 M 12.00 6.00 C 12.00 10.67 12.00 15.33 12.00 20.00 C 13.33 20.00 14.67 20.00 16.00 20.00 C 16.00 16.67 16.00 13.33 16.00 10.00 C 26.67 10.00 37.33 10.00 48.00 10.00 C 48.00 13.33 48.00 16.67 48.00 20.00 C 49.33 20.00 50.67 20.00 52.00 20.00 C 52.00 15.33 52.00 10.67 52.00 6.00 C 38.67 6.00 25.33 6.00 12.00 6.00 M 16.00 23.95 C 16.00 29.32 16.00 34.69 16.00 40.05 C 19.22 40.05 23.35 40.39 25.14 37.05 C 26.49 34.10 26.30 30.44 25.38 27.39 C 23.78 23.70 19.37 23.88 16.00 23.95 M 28.00 24.00 C 28.00 29.33 28.00 34.67 28.00 40.00 C 29.32 40.00 30.64 40.00 31.95 40.00 C 31.99 37.93 32.06 35.85 32.20 33.78 C 33.52 35.62 34.22 37.73 34.17 40.00 C 35.44 40.00 36.72 40.00 38.00 40.00 C 38.00 34.67 38.00 29.33 38.00 24.00 C 36.68 24.00 35.36 24.00 34.05 24.00 C 34.01 26.07 33.94 28.15 33.80 30.22 C 32.47 28.38 31.79 26.27 31.83 24.00 C 30.56 24.00 29.28 24.00 28.00 24.00 M 40.05 28.91 C 40.06 31.74 39.51 34.80 40.66 37.47 C 42.52 40.84 46.83 39.87 50.00 40.02 C 50.00 37.35 50.00 34.67 50.00 32.00 C 48.68 32.00 47.37 32.00 46.05 32.00 C 46.00 33.51 45.93 35.01 45.84 36.52 C 45.41 36.23 44.54 35.65 44.11 35.36 C 43.89 32.70 43.67 29.90 44.73 27.38 C 45.50 30.19 47.90 30.23 50.28 30.09 C 49.84 28.10 49.53 25.70 47.48 24.67 C 44.42 22.67 39.89 25.27 40.05 28.91 M 12.00 44.00 C 12.00 48.67 12.00 53.33 12.00 58.00 C 25.33 58.00 38.67 58.00 52.00 58.00 C 52.00 53.33 52.00 48.67 52.00 44.00 C 50.67 44.00 49.33 44.00 48.00 44.00 C 48.00 47.33 48.00 50.67 48.00 54.00 C 37.33 54.00 26.67 54.00 16.00 54.00 C 16.00 50.67 16.00 47.33 16.00 44.00 C 14.67 44.00 13.33 44.00 12.00 44.00 Z" />
<path fill="#ffffff" opacity="1.00" d=" M 20.22 27.35 C 22.84 29.66 22.84 34.35 20.22 36.64 C 19.92 33.55 19.91 30.44 20.22 27.35 Z" />
</g>
<g id="#000000ff">
<path fill="#000000" opacity="1.00" d=" M 12.00 6.00 C 25.33 6.00 38.67 6.00 52.00 6.00 C 52.00 10.67 52.00 15.33 52.00 20.00 C 50.67 20.00 49.33 20.00 48.00 20.00 C 48.00 16.67 48.00 13.33 48.00 10.00 C 37.33 10.00 26.67 10.00 16.00 10.00 C 16.00 13.33 16.00 16.67 16.00 20.00 C 14.67 20.00 13.33 20.00 12.00 20.00 C 12.00 15.33 12.00 10.67 12.00 6.00 Z" />
<path fill="#000000" opacity="1.00" d=" M 16.00 23.95 C 19.37 23.88 23.78 23.70 25.38 27.39 C 26.30 30.44 26.49 34.10 25.14 37.05 C 23.35 40.39 19.22 40.05 16.00 40.05 C 16.00 34.69 16.00 29.32 16.00 23.95 M 20.22 27.35 C 19.91 30.44 19.92 33.55 20.22 36.64 C 22.84 34.35 22.84 29.66 20.22 27.35 Z" />
<path fill="#000000" opacity="1.00" d=" M 28.00 24.00 C 29.28 24.00 30.56 24.00 31.83 24.00 C 31.79 26.27 32.47 28.38 33.80 30.22 C 33.94 28.15 34.01 26.07 34.05 24.00 C 35.36 24.00 36.68 24.00 38.00 24.00 C 38.00 29.33 38.00 34.67 38.00 40.00 C 36.72 40.00 35.44 40.00 34.17 40.00 C 34.22 37.73 33.52 35.62 32.20 33.78 C 32.06 35.85 31.99 37.93 31.95 40.00 C 30.64 40.00 29.32 40.00 28.00 40.00 C 28.00 34.67 28.00 29.33 28.00 24.00 Z" />
<path fill="#000000" opacity="1.00" d=" M 40.05 28.91 C 39.89 25.27 44.42 22.67 47.48 24.67 C 49.53 25.70 49.84 28.10 50.28 30.09 C 47.90 30.23 45.50 30.19 44.73 27.38 C 43.67 29.90 43.89 32.70 44.11 35.36 C 44.54 35.65 45.41 36.23 45.84 36.52 C 45.93 35.01 46.00 33.51 46.05 32.00 C 47.37 32.00 48.68 32.00 50.00 32.00 C 50.00 34.67 50.00 37.35 50.00 40.02 C 46.83 39.87 42.52 40.84 40.66 37.47 C 39.51 34.80 40.06 31.74 40.05 28.91 Z" />
<path fill="#000000" opacity="1.00" d=" M 12.00 44.00 C 13.33 44.00 14.67 44.00 16.00 44.00 C 16.00 47.33 16.00 50.67 16.00 54.00 C 26.67 54.00 37.33 54.00 48.00 54.00 C 48.00 50.67 48.00 47.33 48.00 44.00 C 49.33 44.00 50.67 44.00 52.00 44.00 C 52.00 48.67 52.00 53.33 52.00 58.00 C 38.67 58.00 25.33 58.00 12.00 58.00 C 12.00 53.33 12.00 48.67 12.00 44.00 Z" />
</g>
</svg>
