<?xml version="1.0" encoding="UTF-8" ?>
<!DOCTYPE svg PUBLIC "-//W3C//DTD SVG 1.1//EN" "http://www.w3.org/Graphics/SVG/1.1/DTD/svg11.dtd">
<svg width="60pt" height="60pt" viewBox="0 0 60 60" version="1.1" xmlns="http://www.w3.org/2000/svg">
<g id="#ffffffff">
<path fill="#ffffff" opacity="1.00" d=" M 0.00 0.00 L 60.00 0.00 L 60.00 60.00 L 0.00 60.00 L 0.00 0.00 M 9.16 17.97 C 10.76 17.98 12.35 17.98 13.94 17.99 C 16.18 15.30 18.96 13.19 22.02 11.51 C 21.15 13.66 20.28 15.81 19.44 17.98 C 20.86 17.99 22.28 17.99 23.69 18.00 C 25.07 14.95 26.23 10.59 30.07 9.98 C 33.80 10.76 34.93 14.98 36.31 18.00 C 37.73 17.99 39.14 17.99 40.55 17.98 C 39.71 15.82 38.85 13.66 37.98 11.51 C 41.03 13.20 43.82 15.29 46.06 17.98 C 47.65 17.98 49.24 17.98 50.83 17.97 C 46.62 11.16 39.19 6.27 31.06 6.06 C 22.23 5.50 13.71 10.51 9.16 17.97 M 40.08 29.75 C 41.64 31.45 44.19 31.52 46.27 32.19 C 45.20 35.93 41.35 32.34 38.92 32.61 C 39.86 37.18 47.85 37.69 48.80 33.03 C 49.35 29.14 44.33 29.02 41.78 28.05 C 43.12 25.82 45.02 26.49 46.65 27.83 C 47.25 27.75 48.45 27.61 49.05 27.53 C 47.89 25.39 45.71 23.79 43.16 24.35 C 40.52 24.33 38.47 27.48 40.08 29.75 M 11.70 24.50 C 11.70 28.32 11.70 32.14 11.70 35.96 C 14.73 35.71 18.85 36.84 20.87 33.84 C 22.48 31.06 22.22 26.44 18.93 25.00 C 16.59 24.29 14.10 24.59 11.70 24.50 M 25.59 24.29 C 25.55 28.17 25.57 32.05 25.56 35.93 C 26.25 35.93 27.62 35.93 28.31 35.93 C 28.31 33.72 28.32 31.51 28.32 29.30 C 29.95 31.52 31.61 33.73 33.24 35.96 C 33.81 35.95 34.95 35.92 35.52 35.91 C 35.52 32.12 35.50 28.32 35.52 24.53 C 34.83 24.53 33.46 24.53 32.77 24.54 C 32.77 26.75 32.77 28.96 32.76 31.17 C 30.51 28.77 29.36 24.49 25.59 24.29 M 9.17 42.03 C 13.72 49.49 22.24 54.48 31.08 53.94 C 39.19 53.71 46.61 48.84 50.83 42.03 C 49.24 42.02 47.65 42.01 46.06 42.01 C 43.81 44.69 41.03 46.80 37.99 48.49 C 38.85 46.34 39.71 44.18 40.54 42.02 C 39.13 42.01 37.72 42.01 36.32 42.00 C 34.92 45.04 33.76 49.32 29.97 50.02 C 26.22 49.27 25.07 45.04 23.69 42.00 C 22.28 42.00 20.86 42.01 19.45 42.02 C 20.29 44.19 21.15 46.34 22.02 48.49 C 18.97 46.81 16.19 44.70 13.95 42.01 C 12.35 42.02 10.76 42.02 9.17 42.03 Z" />
<path fill="#ffffff" opacity="1.00" d=" M 14.60 26.60 C 16.54 26.86 19.10 27.52 18.83 30.03 C 19.31 32.65 16.79 33.76 14.62 33.87 C 14.60 31.45 14.59 29.02 14.60 26.60 Z" />
</g>
<g id="#000000ff">
<path fill="#000000" opacity="1.00" d=" M 9.16 17.97 C 13.71 10.51 22.23 5.50 31.06 6.06 C 39.19 6.27 46.62 11.16 50.83 17.97 C 49.24 17.98 47.65 17.98 46.06 17.98 C 43.82 15.29 41.03 13.20 37.98 11.51 C 38.85 13.66 39.71 15.82 40.55 17.98 C 39.14 17.99 37.73 17.99 36.31 18.00 C 34.93 14.98 33.80 10.76 30.07 9.98 C 26.23 10.59 25.07 14.95 23.69 18.00 C 22.28 17.99 20.86 17.99 19.44 17.98 C 20.28 15.81 21.15 13.66 22.02 11.51 C 18.96 13.19 16.18 15.30 13.94 17.99 C 12.35 17.98 10.76 17.98 9.16 17.97 Z" />
<path fill="#000000" opacity="1.00" d=" M 40.08 29.75 C 38.47 27.48 40.52 24.33 43.16 24.35 C 45.71 23.79 47.89 25.39 49.05 27.53 C 48.45 27.61 47.25 27.75 46.65 27.83 C 45.02 26.49 43.12 25.82 41.78 28.05 C 44.33 29.02 49.35 29.14 48.80 33.03 C 47.85 37.69 39.86 37.18 38.92 32.61 C 41.35 32.34 45.20 35.93 46.27 32.19 C 44.19 31.52 41.64 31.45 40.08 29.75 Z" />
<path fill="#000000" opacity="1.00" d=" M 11.70 24.50 C 14.10 24.59 16.59 24.29 18.93 25.00 C 22.22 26.44 22.48 31.06 20.87 33.84 C 18.85 36.84 14.73 35.71 11.70 35.96 C 11.70 32.14 11.70 28.32 11.70 24.50 M 14.60 26.60 C 14.59 29.02 14.60 31.45 14.62 33.87 C 16.79 33.76 19.31 32.65 18.83 30.03 C 19.10 27.52 16.54 26.86 14.60 26.60 Z" />
<path fill="#000000" opacity="1.00" d=" M 25.59 24.29 C 29.36 24.49 30.51 28.77 32.76 31.17 C 32.77 28.96 32.77 26.75 32.77 24.54 C 33.46 24.53 34.83 24.53 35.52 24.53 C 35.50 28.32 35.52 32.12 35.52 35.91 C 34.95 35.92 33.81 35.95 33.24 35.96 C 31.61 33.73 29.95 31.52 28.32 29.30 C 28.32 31.51 28.31 33.72 28.31 35.93 C 27.62 35.93 26.25 35.93 25.56 35.93 C 25.57 32.05 25.55 28.17 25.59 24.29 Z" />
<path fill="#000000" opacity="1.00" d=" M 9.17 42.03 C 10.76 42.02 12.35 42.02 13.95 42.01 C 16.19 44.70 18.97 46.81 22.02 48.49 C 21.15 46.34 20.29 44.19 19.45 42.02 C 20.86 42.01 22.28 42.00 23.69 42.00 C 25.07 45.04 26.22 49.27 29.97 50.02 C 33.76 49.32 34.92 45.04 36.32 42.00 C 37.72 42.01 39.13 42.01 40.54 42.02 C 39.71 44.18 38.85 46.34 37.99 48.49 C 41.03 46.80 43.81 44.69 46.06 42.01 C 47.65 42.01 49.24 42.02 50.83 42.03 C 46.61 48.84 39.19 53.71 31.08 53.94 C 22.24 54.48 13.72 49.49 9.17 42.03 Z" />
</g>
</svg>
