<?xml version="1.0" encoding="UTF-8" ?>
<!DOCTYPE svg PUBLIC "-//W3C//DTD SVG 1.1//EN" "http://www.w3.org/Graphics/SVG/1.1/DTD/svg11.dtd">
<svg width="60pt" height="60pt" viewBox="0 0 60 60" version="1.1" xmlns="http://www.w3.org/2000/svg">
<g id="#ffffffff">
<path fill="#ffffff" opacity="1.00" d=" M 0.00 0.00 L 60.00 0.00 L 60.00 45.19 C 58.75 43.96 56.94 44.05 55.34 43.80 C 54.95 42.85 54.55 41.90 54.15 40.96 C 54.92 39.74 56.98 37.94 55.41 36.58 C 54.08 35.04 52.30 37.07 51.08 37.80 C 50.12 37.36 49.16 36.93 48.20 36.51 C 47.85 34.99 48.32 31.96 46.04 32.04 C 43.80 31.80 44.13 34.84 43.78 36.25 C 41.60 36.41 38.91 35.43 37.18 37.21 C 35.45 38.95 36.39 41.59 36.26 43.76 C 34.89 44.17 31.86 43.80 32.06 45.98 C 31.92 48.29 35.01 47.85 36.55 48.20 C 36.95 49.21 37.36 50.21 37.78 51.21 C 37.03 52.33 35.10 54.06 36.56 55.37 C 37.88 56.94 39.75 54.91 40.97 54.16 C 41.90 54.55 42.84 54.95 43.77 55.33 C 44.01 56.91 44.26 58.50 44.82 60.00 L 0.00 60.00 L 0.00 0.00 M 10.00 8.94 C 10.03 23.33 9.93 37.72 10.05 52.10 C 9.96 54.17 11.88 55.98 13.90 55.95 C 19.99 56.10 26.08 55.94 32.16 56.01 C 32.14 54.65 32.14 53.29 32.15 51.94 C 29.67 50.57 27.43 48.09 28.07 45.04 C 28.27 41.95 32.23 41.20 32.33 38.10 C 33.01 34.32 36.67 32.14 40.24 31.81 C 42.04 28.12 46.69 26.91 50.03 29.33 C 49.87 25.61 50.28 21.86 49.78 18.16 C 46.43 14.24 42.50 10.84 38.95 7.09 C 37.49 5.84 36.29 3.68 34.07 4.01 C 27.32 4.01 20.57 3.93 13.83 4.05 C 11.36 4.03 9.64 6.62 10.00 8.94 Z" />
<path fill="#ffffff" opacity="1.00" d=" M 34.01 7.81 C 38.07 11.87 42.13 15.93 46.19 19.99 C 42.49 19.92 38.77 20.23 35.08 19.82 C 34.85 19.58 34.40 19.10 34.17 18.86 C 33.78 15.19 34.08 11.49 34.01 7.81 Z" />
<path fill="#ffffff" opacity="1.00" d=" M 44.70 46.94 C 44.85 45.62 45.59 44.87 46.91 44.68 C 49.99 46.82 52.29 49.85 55.20 52.19 C 55.55 50.89 55.88 49.58 56.18 48.27 C 57.46 47.93 58.75 47.58 60.00 47.14 L 60.00 60.00 L 46.83 60.00 C 47.69 58.89 47.94 57.51 48.28 56.19 C 49.59 55.87 50.89 55.53 52.19 55.18 C 49.85 52.29 46.83 50.00 44.70 46.94 Z" />
</g>
<g id="#000000ff">
<path fill="#000000" opacity="1.00" d=" M 10.00 8.94 C 9.64 6.62 11.36 4.03 13.83 4.05 C 20.57 3.93 27.32 4.01 34.07 4.01 C 36.29 3.68 37.49 5.84 38.95 7.09 C 42.50 10.84 46.43 14.24 49.78 18.16 C 50.28 21.86 49.87 25.61 50.03 29.33 C 46.69 26.91 42.04 28.12 40.24 31.81 C 36.67 32.14 33.01 34.32 32.33 38.10 C 32.23 41.20 28.27 41.95 28.07 45.04 C 27.43 48.09 29.67 50.57 32.15 51.94 C 32.14 53.29 32.14 54.65 32.16 56.01 C 26.08 55.94 19.99 56.10 13.90 55.95 C 11.88 55.98 9.96 54.17 10.05 52.10 C 9.93 37.72 10.03 23.33 10.00 8.94 M 34.01 7.81 C 34.08 11.49 33.78 15.19 34.17 18.86 C 34.40 19.10 34.85 19.58 35.08 19.82 C 38.77 20.23 42.49 19.92 46.19 19.99 C 42.13 15.93 38.07 11.87 34.01 7.81 Z" />
<path fill="#000000" opacity="1.00" d=" M 43.78 36.25 C 44.13 34.84 43.80 31.80 46.04 32.04 C 48.32 31.96 47.85 34.99 48.20 36.51 C 49.16 36.93 50.12 37.36 51.08 37.80 C 52.30 37.07 54.08 35.04 55.41 36.58 C 56.98 37.94 54.92 39.74 54.15 40.96 C 54.55 41.90 54.95 42.85 55.34 43.80 C 56.94 44.05 58.75 43.96 60.00 45.19 L 60.00 47.14 C 58.75 47.58 57.46 47.93 56.18 48.27 C 55.88 49.58 55.55 50.89 55.20 52.19 C 52.29 49.85 49.99 46.82 46.91 44.68 C 45.59 44.87 44.85 45.62 44.70 46.94 C 46.83 50.00 49.85 52.29 52.19 55.18 C 50.89 55.53 49.59 55.87 48.28 56.19 C 47.94 57.51 47.69 58.89 46.83 60.00 L 44.82 60.00 C 44.26 58.50 44.01 56.91 43.77 55.33 C 42.84 54.95 41.90 54.55 40.97 54.16 C 39.75 54.91 37.88 56.94 36.56 55.37 C 35.10 54.06 37.03 52.33 37.78 51.21 C 37.36 50.21 36.95 49.21 36.55 48.20 C 35.01 47.85 31.92 48.29 32.06 45.98 C 31.86 43.80 34.89 44.17 36.26 43.76 C 36.39 41.59 35.45 38.95 37.18 37.21 C 38.91 35.43 41.60 36.41 43.78 36.25 Z" />
</g>
</svg>
