<?xml version="1.0" encoding="UTF-8" ?>
<!DOCTYPE svg PUBLIC "-//W3C//DTD SVG 1.1//EN" "http://www.w3.org/Graphics/SVG/1.1/DTD/svg11.dtd">
<svg width="60pt" height="60pt" viewBox="0 0 60 60" version="1.1" xmlns="http://www.w3.org/2000/svg">
<g id="#ffffffff">
<path fill="#ffffff" opacity="1.00" d=" M 0.00 0.00 L 60.00 0.00 L 60.00 60.00 L 0.00 60.00 L 0.00 0.00 M 12.35 4.38 C 10.57 5.16 9.82 7.16 10.00 8.99 C 10.04 23.35 9.93 37.70 10.04 52.05 C 9.91 54.63 12.60 56.34 14.97 56.00 C 25.34 55.97 35.72 56.07 46.09 55.95 C 48.59 56.00 50.34 53.44 50.00 51.09 C 49.86 40.12 50.29 29.11 49.78 18.17 C 45.34 13.32 40.64 8.64 35.80 4.20 C 28.02 3.97 20.07 3.63 12.35 4.38 Z" />
<path fill="#ffffff" opacity="1.00" d=" M 34.01 7.81 C 38.07 11.87 42.13 15.93 46.19 20.00 C 42.51 19.92 38.82 20.22 35.16 19.83 C 34.91 19.60 34.42 19.14 34.18 18.91 C 33.77 15.22 34.08 11.51 34.01 7.81 Z" />
<path fill="#ffffff" opacity="1.00" d=" M 19.15 30.17 C 26.07 29.82 33.02 30.01 39.95 30.06 C 42.52 29.73 42.64 34.13 40.07 33.92 C 33.37 34.07 26.65 34.06 19.95 33.93 C 17.88 34.12 17.28 30.93 19.15 30.17 Z" />
<path fill="#ffffff" opacity="1.00" d=" M 19.11 38.17 C 24.73 37.82 30.38 37.99 36.00 38.07 C 38.53 37.76 38.60 42.15 36.08 41.92 C 30.70 42.07 25.32 42.07 19.94 41.92 C 17.87 42.11 17.30 38.97 19.11 38.17 Z" />
</g>
<g id="#000000ff">
<path fill="#000000" opacity="1.00" d=" M 12.35 4.38 C 20.07 3.63 28.02 3.97 35.80 4.20 C 40.64 8.64 45.34 13.32 49.78 18.17 C 50.29 29.11 49.86 40.12 50.00 51.09 C 50.34 53.44 48.59 56.00 46.09 55.95 C 35.72 56.07 25.34 55.97 14.97 56.00 C 12.60 56.34 9.91 54.63 10.04 52.05 C 9.93 37.70 10.04 23.35 10.00 8.99 C 9.82 7.16 10.57 5.16 12.35 4.38 M 34.01 7.81 C 34.08 11.51 33.77 15.22 34.18 18.91 C 34.42 19.14 34.91 19.60 35.16 19.83 C 38.82 20.22 42.51 19.92 46.19 20.00 C 42.13 15.93 38.07 11.87 34.01 7.81 M 19.15 30.17 C 17.28 30.93 17.88 34.12 19.95 33.93 C 26.65 34.06 33.37 34.07 40.07 33.92 C 42.64 34.13 42.52 29.73 39.95 30.06 C 33.02 30.01 26.07 29.82 19.15 30.17 M 19.11 38.17 C 17.30 38.97 17.87 42.11 19.94 41.92 C 25.32 42.07 30.70 42.07 36.08 41.92 C 38.60 42.15 38.53 37.76 36.00 38.07 C 30.38 37.99 24.73 37.82 19.11 38.17 Z" />
</g>
</svg>
