<?xml version="1.0" encoding="UTF-8" ?>
<!DOCTYPE svg PUBLIC "-//W3C//DTD SVG 1.1//EN" "http://www.w3.org/Graphics/SVG/1.1/DTD/svg11.dtd">
<svg width="64pt" height="64pt" viewBox="0 0 64 64" version="1.1" xmlns="http://www.w3.org/2000/svg">
<g id="#ffffffff">
<path fill="#ffffff" opacity="1.00" d=" M 0.00 0.00 L 64.00 0.00 L 64.00 64.00 L 0.00 64.00 L 0.00 0.00 M 12.01 6.01 C 11.99 23.34 11.99 40.66 12.01 57.99 C 25.34 58.01 38.66 58.01 51.99 57.99 C 52.00 45.04 52.04 32.09 51.97 19.14 C 47.62 14.75 43.25 10.38 38.86 6.03 C 29.91 5.97 20.96 6.00 12.01 6.01 Z" />
<path fill="#ffffff" opacity="1.00" d=" M 16.01 10.01 C 22.67 9.99 29.33 9.99 35.99 10.01 C 36.00 14.01 36.00 18.00 36.01 21.99 C 40.00 22.00 44.00 22.00 47.99 22.01 C 48.01 32.67 48.01 43.33 47.99 53.99 C 37.33 54.01 26.67 54.01 16.01 53.99 C 15.99 39.33 15.99 24.67 16.01 10.01 M 22.00 26.03 C 21.99 27.34 21.99 28.66 22.00 29.97 C 28.67 30.02 35.33 30.02 42.00 29.97 C 42.01 28.66 42.01 27.34 42.00 26.03 C 35.33 25.98 28.67 25.98 22.00 26.03 M 22.00 34.03 C 21.99 35.34 21.99 36.66 22.00 37.97 C 28.67 38.02 35.33 38.02 42.00 37.97 C 42.01 36.66 42.01 35.34 42.00 34.03 C 35.33 33.98 28.67 33.98 22.00 34.03 M 22.00 42.03 C 21.99 43.34 21.99 44.66 22.00 45.97 C 28.67 46.02 35.33 46.02 42.00 45.97 C 42.01 44.66 42.01 43.34 42.00 42.03 C 35.33 41.98 28.67 41.98 22.00 42.03 Z" />
<path fill="#ffffff" opacity="1.00" d=" M 40.01 12.89 C 41.76 14.53 43.46 16.23 45.11 17.99 C 43.40 18.00 41.70 18.00 40.00 18.00 C 40.00 16.30 40.00 14.60 40.01 12.89 Z" />
</g>
<g id="#000000ff">
<path fill="#000000" opacity="1.00" d=" M 12.01 6.01 C 20.96 6.00 29.91 5.97 38.86 6.03 C 43.25 10.38 47.62 14.75 51.97 19.14 C 52.04 32.09 52.00 45.04 51.99 57.99 C 38.66 58.01 25.34 58.01 12.01 57.99 C 11.99 40.66 11.99 23.34 12.01 6.01 M 16.01 10.01 C 15.99 24.67 15.99 39.33 16.01 53.99 C 26.67 54.01 37.33 54.01 47.99 53.99 C 48.01 43.33 48.01 32.67 47.99 22.01 C 44.00 22.00 40.00 22.00 36.01 21.99 C 36.00 18.00 36.00 14.01 35.99 10.01 C 29.33 9.99 22.67 9.99 16.01 10.01 M 40.01 12.89 C 40.00 14.60 40.00 16.30 40.00 18.00 C 41.70 18.00 43.40 18.00 45.11 17.99 C 43.46 16.23 41.76 14.53 40.01 12.89 Z" />
<path fill="#000000" opacity="1.00" d=" M 22.00 26.03 C 28.67 25.98 35.33 25.98 42.00 26.03 C 42.01 27.34 42.01 28.66 42.00 29.97 C 35.33 30.02 28.67 30.02 22.00 29.97 C 21.99 28.66 21.99 27.34 22.00 26.03 Z" />
<path fill="#000000" opacity="1.00" d=" M 22.00 34.03 C 28.67 33.98 35.33 33.98 42.00 34.03 C 42.01 35.34 42.01 36.66 42.00 37.97 C 35.33 38.02 28.67 38.02 22.00 37.97 C 21.99 36.66 21.99 35.34 22.00 34.03 Z" />
<path fill="#000000" opacity="1.00" d=" M 22.00 42.03 C 28.67 41.98 35.33 41.98 42.00 42.03 C 42.01 43.34 42.01 44.66 42.00 45.97 C 35.33 46.02 28.67 46.02 22.00 45.97 C 21.99 44.66 21.99 43.34 22.00 42.03 Z" />
</g>
</svg>
