<?xml version="1.0" encoding="UTF-8" ?>
<!DOCTYPE svg PUBLIC "-//W3C//DTD SVG 1.1//EN" "http://www.w3.org/Graphics/SVG/1.1/DTD/svg11.dtd">
<svg width="60pt" height="60pt" viewBox="0 0 60 60" version="1.1" xmlns="http://www.w3.org/2000/svg">
<g id="#ffffffff">
<path fill="#ffffff" opacity="1.00" d=" M 0.00 0.00 L 35.07 0.00 C 33.57 1.64 34.10 3.98 33.97 6.00 C 34.06 9.62 33.79 13.26 34.18 16.86 C 34.95 18.68 36.98 17.51 38.36 17.40 C 37.70 18.68 37.60 20.39 36.28 21.23 C 34.19 22.99 30.54 21.54 30.16 18.88 C 29.77 14.79 30.08 10.67 30.01 6.56 C 27.34 6.29 23.58 5.03 22.06 8.10 C 17.14 16.87 12.56 25.83 7.69 34.62 C 6.67 36.58 5.07 39.11 6.83 41.15 C 12.39 48.29 21.06 52.96 30.04 53.92 C 32.24 54.43 34.00 52.77 34.85 50.93 C 39.52 42.28 44.13 33.60 48.84 24.97 C 49.68 23.27 51.03 21.16 49.77 19.31 C 46.89 14.98 42.45 12.00 38.01 9.44 C 37.87 6.30 38.56 2.96 37.19 0.00 L 60.00 0.00 L 60.00 60.00 L 0.00 60.00 L 0.00 0.00 M 37.86 53.82 C 41.28 53.25 44.78 52.67 47.89 51.06 C 49.40 50.37 50.07 48.65 49.98 47.08 C 50.06 41.79 49.97 36.50 49.99 31.22 C 45.95 38.75 41.87 46.27 37.86 53.82 Z" />
<path fill="#ffffff" opacity="1.00" d=" M 25.33 31.33 C 26.37 29.63 29.36 31.16 28.64 33.02 C 26.90 36.75 24.88 40.35 22.84 43.93 C 22.00 45.84 19.15 45.04 19.07 43.03 C 20.96 39.03 23.05 35.11 25.33 31.33 Z" />
</g>
<g id="#000000ff">
<path fill="#968176" opacity="1.00" d=" M 35.07 0.00 L 37.19 0.00 C 38.56 2.96 37.87 6.30 38.01 9.44 C 42.45 12.00 46.89 14.98 49.77 19.31 C 51.03 21.16 49.68 23.27 48.84 24.97 C 44.13 33.60 39.52 42.28 34.85 50.93 C 34.00 52.77 32.24 54.43 30.04 53.92 C 21.06 52.96 12.39 48.29 6.83 41.15 C 5.07 39.11 6.67 36.58 7.69 34.62 C 12.56 25.83 17.14 16.87 22.06 8.10 C 23.58 5.03 27.34 6.29 30.01 6.56 C 30.08 10.67 29.77 14.79 30.16 18.88 C 30.54 21.54 34.19 22.99 36.28 21.23 C 37.60 20.39 37.70 18.68 38.36 17.40 C 36.98 17.51 34.95 18.68 34.18 16.86 C 33.79 13.26 34.06 9.62 33.97 6.00 C 34.10 3.98 33.57 1.64 35.07 0.00 M 25.33 31.33 C 23.05 35.11 20.96 39.03 19.07 43.03 C 19.15 45.04 22.00 45.84 22.84 43.93 C 24.88 40.35 26.90 36.75 28.64 33.02 C 29.36 31.16 26.37 29.63 25.33 31.33 Z" />
<path fill="#968176" opacity="1.00" d=" M 37.86 53.82 C 41.87 46.27 45.95 38.75 49.99 31.22 C 49.97 36.50 50.06 41.79 49.98 47.08 C 50.07 48.65 49.40 50.37 47.89 51.06 C 44.78 52.67 41.28 53.25 37.86 53.82 Z" />
</g>
</svg>
