<?xml version="1.0" encoding="UTF-8" ?>
<!DOCTYPE svg PUBLIC "-//W3C//DTD SVG 1.1//EN" "http://www.w3.org/Graphics/SVG/1.1/DTD/svg11.dtd">
<svg width="64pt" height="64pt" viewBox="0 0 64 64" version="1.1" xmlns="http://www.w3.org/2000/svg">
<g id="#ffffffff">
<path fill="#ffffff" opacity="1.00" d=" M 0.00 0.00 L 64.00 0.00 L 64.00 64.00 L 0.00 64.00 L 0.00 0.00 M 18.00 8.00 C 18.01 11.32 17.99 14.64 18.00 17.96 C 15.43 18.12 12.46 17.51 10.31 19.29 C 8.53 20.59 7.90 22.85 8.00 24.96 C 8.03 33.35 7.92 41.76 8.05 50.15 C 7.97 53.70 11.49 56.39 14.89 56.00 C 26.61 55.97 38.34 56.07 50.06 55.95 C 53.19 56.03 56.01 53.24 55.95 50.10 C 56.11 42.43 55.92 34.75 56.03 27.08 C 55.99 24.58 56.26 21.63 54.22 19.77 C 52.12 17.49 48.77 18.09 46.00 17.96 C 46.01 14.64 45.99 11.32 46.00 8.00 C 36.67 8.00 27.33 8.00 18.00 8.00 Z" />
<path fill="#ffffff" opacity="1.00" d=" M 26.14 12.01 C 30.05 11.99 33.96 12.00 37.88 12.01 C 37.79 14.48 39.52 16.20 41.99 16.13 C 41.99 16.59 42.00 17.53 42.00 18.00 C 39.46 18.00 36.92 18.02 34.38 17.96 C 33.32 15.55 30.67 15.53 29.62 17.96 C 27.08 18.02 24.54 18.00 22.00 18.00 C 22.00 17.53 22.01 16.59 22.01 16.12 C 24.50 16.21 26.18 14.46 26.14 12.01 Z" />
<path fill="#ffffff" opacity="1.00" d=" M 13.17 22.15 C 25.44 21.84 37.74 22.00 50.01 22.07 C 52.15 21.91 52.02 24.45 52.02 25.89 C 51.92 33.95 52.14 42.01 51.91 50.06 C 52.06 52.20 49.46 52.00 48.02 52.02 C 36.66 51.92 25.28 52.13 13.92 51.92 C 11.79 52.05 12.00 49.45 11.98 48.02 C 12.13 39.72 11.76 31.41 12.17 23.12 C 12.42 22.88 12.92 22.40 13.17 22.15 M 43.38 34.48 C 40.08 36.43 43.45 41.77 46.64 39.50 C 49.89 37.54 46.56 32.27 43.38 34.48 Z" />
</g>
<g id="#000000ff">
<path fill="#000000" opacity="1.00" d=" M 18.00 8.00 C 27.33 8.00 36.67 8.00 46.00 8.00 C 45.99 11.32 46.01 14.64 46.00 17.96 C 48.77 18.09 52.12 17.49 54.22 19.77 C 56.26 21.63 55.99 24.58 56.03 27.08 C 55.92 34.75 56.11 42.43 55.95 50.10 C 56.01 53.24 53.19 56.03 50.06 55.95 C 38.34 56.07 26.61 55.97 14.89 56.00 C 11.49 56.39 7.97 53.70 8.05 50.15 C 7.92 41.76 8.03 33.35 8.00 24.96 C 7.90 22.85 8.53 20.59 10.31 19.29 C 12.46 17.51 15.43 18.12 18.00 17.96 C 17.99 14.64 18.01 11.32 18.00 8.00 M 26.14 12.01 C 26.18 14.46 24.50 16.21 22.01 16.12 C 22.01 16.59 22.00 17.53 22.00 18.00 C 24.54 18.00 27.08 18.02 29.62 17.96 C 30.67 15.53 33.32 15.55 34.38 17.96 C 36.92 18.02 39.46 18.00 42.00 18.00 C 42.00 17.53 41.99 16.59 41.99 16.13 C 39.52 16.20 37.79 14.48 37.88 12.01 C 33.96 12.00 30.05 11.99 26.14 12.01 M 13.17 22.15 C 12.92 22.40 12.42 22.88 12.17 23.12 C 11.76 31.41 12.13 39.72 11.98 48.02 C 12.00 49.45 11.79 52.05 13.92 51.92 C 25.28 52.13 36.66 51.92 48.02 52.02 C 49.46 52.00 52.06 52.20 51.91 50.06 C 52.14 42.01 51.92 33.95 52.02 25.89 C 52.02 24.45 52.15 21.91 50.01 22.07 C 37.74 22.00 25.44 21.84 13.17 22.15 Z" />
<path fill="#000000" opacity="1.00" d=" M 43.38 34.48 C 46.56 32.27 49.89 37.54 46.64 39.50 C 43.45 41.77 40.08 36.43 43.38 34.48 Z" />
</g>
</svg>
