<?xml version="1.0" encoding="UTF-8" ?>
<!DOCTYPE svg PUBLIC "-//W3C//DTD SVG 1.1//EN" "http://www.w3.org/Graphics/SVG/1.1/DTD/svg11.dtd">
<svg width="60pt" height="60pt" viewBox="0 0 60 60" version="1.1" xmlns="http://www.w3.org/2000/svg">
<g id="#ffffffff">
<path fill="#ffffff" opacity="1.00" d=" M 0.00 0.00 L 60.00 0.00 L 60.00 60.00 L 0.00 60.00 L 0.00 0.00 M 17.73 12.78 C 14.95 15.75 13.37 19.67 11.11 23.04 C 8.10 27.09 12.80 30.95 14.22 34.62 C 15.28 31.97 17.14 29.77 19.77 28.59 C 18.30 25.56 22.75 24.32 24.24 22.26 C 26.98 22.26 29.72 22.28 32.47 22.27 C 30.75 24.60 29.63 27.59 26.93 29.00 C 24.44 30.52 21.71 31.68 19.43 33.53 C 16.92 35.88 17.93 40.51 21.16 41.64 C 23.29 42.63 25.45 41.36 27.35 40.44 C 32.00 38.01 36.79 35.85 41.39 33.32 C 43.00 32.55 43.64 30.79 44.44 29.32 C 46.92 24.19 49.48 19.11 52.00 14.00 C 47.36 10.65 42.70 7.32 38.03 4.00 C 31.30 7.01 24.38 9.61 17.73 12.78 M 13.48 50.45 C 16.27 55.61 23.45 57.57 28.46 54.51 C 32.93 52.10 34.73 46.62 33.72 41.82 C 29.41 43.36 25.35 47.16 20.49 45.63 C 17.07 44.77 15.00 41.69 13.91 38.55 C 11.81 42.14 11.24 46.79 13.48 50.45 Z" />
</g>
<g id="#000000ff">
<path fill="#968176" opacity="1.00" d=" M 17.73 12.78 C 24.38 9.61 31.30 7.01 38.03 4.00 C 42.70 7.32 47.36 10.65 52.00 14.00 C 49.48 19.11 46.92 24.19 44.44 29.32 C 43.64 30.79 43.00 32.55 41.39 33.32 C 36.79 35.85 32.00 38.01 27.35 40.44 C 25.45 41.36 23.29 42.63 21.16 41.64 C 17.93 40.51 16.92 35.88 19.43 33.53 C 21.71 31.68 24.44 30.52 26.93 29.00 C 29.63 27.59 30.75 24.60 32.47 22.27 C 29.72 22.28 26.98 22.26 24.24 22.26 C 22.75 24.32 18.30 25.56 19.77 28.59 C 17.14 29.77 15.28 31.97 14.22 34.62 C 12.80 30.95 8.10 27.09 11.11 23.04 C 13.37 19.67 14.95 15.75 17.73 12.78 Z" />
<path fill="#968176" opacity="1.00" d=" M 13.48 50.45 C 11.24 46.79 11.81 42.14 13.91 38.55 C 15.00 41.69 17.07 44.77 20.49 45.63 C 25.35 47.16 29.41 43.36 33.72 41.82 C 34.73 46.62 32.93 52.10 28.46 54.51 C 23.45 57.57 16.27 55.61 13.48 50.45 Z" />
</g>
</svg>
