<?xml version="1.0" encoding="UTF-8" ?>
<!DOCTYPE svg PUBLIC "-//W3C//DTD SVG 1.1//EN" "http://www.w3.org/Graphics/SVG/1.1/DTD/svg11.dtd">
<svg width="64pt" height="64pt" viewBox="0 0 64 64" version="1.1" xmlns="http://www.w3.org/2000/svg">
<g id="#ffffffff">
<path fill="#ffffff" opacity="1.00" d=" M 0.00 0.00 L 64.00 0.00 L 64.00 64.00 L 0.00 64.00 L 0.00 0.00 M 56.60 12.58 C 45.07 24.11 33.55 35.64 22.01 47.16 C 17.13 42.31 12.30 37.40 7.39 32.58 C 6.46 33.54 5.53 34.48 4.59 35.44 C 10.42 41.20 16.20 47.02 22.00 52.82 C 34.50 40.38 46.95 27.88 59.43 15.42 C 58.48 14.47 57.54 13.53 56.60 12.58 Z" />
</g>
<g id="#000000ff">
<path fill="#000000" opacity="1.00" d=" M 56.60 12.58 C 57.54 13.53 58.48 14.47 59.43 15.42 C 46.95 27.88 34.50 40.38 22.00 52.82 C 16.20 47.02 10.42 41.20 4.59 35.44 C 5.53 34.48 6.46 33.54 7.39 32.58 C 12.30 37.40 17.13 42.31 22.01 47.16 C 33.55 35.64 45.07 24.11 56.60 12.58 Z" />
</g>
</svg>
