<?xml version="1.0" encoding="UTF-8" ?>
<!DOCTYPE svg PUBLIC "-//W3C//DTD SVG 1.1//EN" "http://www.w3.org/Graphics/SVG/1.1/DTD/svg11.dtd">
<svg width="60pt" height="60pt" viewBox="0 0 60 60" version="1.1" xmlns="http://www.w3.org/2000/svg">
<g id="#ffffffff">
<path fill="#ffffff" opacity="1.00" d=" M 0.00 0.00 L 60.00 0.00 L 60.00 57.11 C 56.09 50.66 52.07 44.28 48.02 37.92 C 47.28 36.23 44.65 36.25 43.94 37.96 C 40.08 44.08 36.22 50.20 32.43 56.36 C 31.43 57.63 32.39 59.19 33.48 60.00 L 0.00 60.00 L 0.00 0.00 M 31.06 4.18 C 26.40 5.31 21.77 6.52 17.11 7.65 C 15.94 7.97 13.90 8.21 14.05 9.90 C 13.92 22.59 14.06 35.28 13.99 47.96 C 14.13 49.24 13.56 51.21 15.17 51.77 C 19.53 53.04 23.99 53.96 28.36 55.21 C 32.53 48.74 36.51 42.15 40.66 35.67 C 41.75 33.75 43.90 32.86 45.99 32.59 C 46.01 25.06 45.98 17.53 46.01 10.01 C 45.91 8.70 46.33 6.95 44.91 6.19 C 41.38 5.74 37.79 6.14 34.24 5.98 C 33.62 4.74 32.64 3.43 31.06 4.18 Z" />
<path fill="#ffffff" opacity="1.00" d=" M 18.07 11.49 C 22.08 10.67 26.01 9.50 30.00 8.57 C 30.00 22.86 30.00 37.14 30.00 51.43 C 26.01 50.50 22.07 49.33 18.06 48.50 C 17.97 36.16 17.95 23.82 18.07 11.49 M 25.20 28.17 C 22.75 29.08 24.50 33.04 26.85 31.80 C 29.19 30.85 27.49 27.01 25.20 28.17 Z" />
<path fill="#ffffff" opacity="1.00" d=" M 44.00 44.00 C 45.33 44.00 46.67 44.00 48.00 44.00 C 47.89 46.66 47.78 49.33 47.68 51.99 C 46.56 51.99 45.44 51.99 44.33 51.99 C 44.22 49.33 44.11 46.67 44.00 44.00 Z" />
<path fill="#ffffff" opacity="1.00" d=" M 44.68 53.62 C 46.43 51.98 49.38 54.71 47.40 56.37 C 45.55 58.08 42.52 55.16 44.68 53.62 Z" />
</g>
<g id="#000000ff">
<path fill="#000000" opacity="1.00" d=" M 31.06 4.18 C 32.64 3.43 33.62 4.74 34.24 5.98 C 37.79 6.14 41.38 5.74 44.91 6.19 C 46.33 6.95 45.91 8.70 46.01 10.01 C 45.98 17.53 46.01 25.06 45.99 32.59 C 43.90 32.86 41.75 33.75 40.66 35.67 C 36.51 42.15 32.53 48.74 28.36 55.21 C 23.99 53.96 19.53 53.04 15.17 51.77 C 13.56 51.21 14.13 49.24 13.99 47.96 C 14.06 35.28 13.92 22.59 14.05 9.90 C 13.90 8.21 15.94 7.97 17.11 7.65 C 21.77 6.52 26.40 5.31 31.06 4.18 M 18.07 11.49 C 17.95 23.82 17.97 36.16 18.06 48.50 C 22.07 49.33 26.01 50.50 30.00 51.43 C 30.00 37.14 30.00 22.86 30.00 8.57 C 26.01 9.50 22.08 10.67 18.07 11.49 Z" />
<path fill="#000000" opacity="1.00" d=" M 25.20 28.17 C 27.49 27.01 29.19 30.85 26.85 31.80 C 24.50 33.04 22.75 29.08 25.20 28.17 Z" />
<path fill="#000000" opacity="1.00" d=" M 43.94 37.96 C 44.65 36.25 47.28 36.23 48.02 37.92 C 52.07 44.28 56.09 50.66 60.00 57.11 L 60.00 60.00 L 33.48 60.00 C 32.39 59.19 31.43 57.63 32.43 56.36 C 36.22 50.20 40.08 44.08 43.94 37.96 M 44.00 44.00 C 44.11 46.67 44.22 49.33 44.33 51.99 C 45.44 51.99 46.56 51.99 47.68 51.99 C 47.78 49.33 47.89 46.66 48.00 44.00 C 46.67 44.00 45.33 44.00 44.00 44.00 M 44.68 53.62 C 42.52 55.16 45.55 58.08 47.40 56.37 C 49.38 54.71 46.43 51.98 44.68 53.62 Z" />
</g>
</svg>
