<?xml version="1.0" encoding="UTF-8" ?>
<!DOCTYPE svg PUBLIC "-//W3C//DTD SVG 1.1//EN" "http://www.w3.org/Graphics/SVG/1.1/DTD/svg11.dtd">
<svg width="60pt" height="60pt" viewBox="0 0 60 60" version="1.1" xmlns="http://www.w3.org/2000/svg">
<g id="#ffffffff">
<path fill="#ffffff" opacity="1.00" d=" M 0.00 0.00 L 60.00 0.00 L 60.00 60.00 L 0.00 60.00 L 0.00 0.00 M 12.32 6.32 C 11.70 12.20 12.07 18.11 12.00 24.00 C 12.20 33.89 11.57 43.80 12.33 53.67 C 18.20 54.30 24.11 53.92 30.00 54.00 C 35.89 53.92 41.80 54.31 47.67 53.67 C 48.28 48.13 47.95 42.56 48.00 37.00 C 47.79 26.78 48.43 16.53 47.67 6.33 C 41.80 5.69 35.89 6.08 30.00 6.00 C 24.11 6.08 18.20 5.70 12.32 6.32 M 50.26 14.44 C 49.97 16.86 49.98 19.30 50.28 21.72 C 51.42 21.72 52.56 21.72 53.70 21.72 C 54.10 19.05 54.26 16.29 53.13 13.76 C 52.42 13.93 50.98 14.27 50.26 14.44 Z" />
<path fill="#ffffff" opacity="1.00" d=" M 16.07 10.07 C 25.36 9.93 34.64 9.93 43.93 10.07 C 44.06 23.35 44.06 36.64 43.93 49.93 C 34.65 50.07 25.36 50.07 16.07 49.93 C 15.94 36.65 15.94 23.35 16.07 10.07 M 38.27 14.46 C 37.96 16.81 37.97 19.20 38.28 21.55 C 38.99 21.71 40.40 22.04 41.11 22.20 C 42.38 19.49 42.28 16.46 41.14 13.72 C 40.42 13.90 38.99 14.27 38.27 14.46 M 36.48 28.50 C 36.31 29.13 35.98 30.39 35.82 31.02 C 37.27 32.03 38.79 31.98 40.24 31.02 C 39.84 29.94 39.42 28.87 38.98 27.81 C 38.35 27.98 37.10 28.32 36.48 28.50 Z" />
</g>
<g id="#000000ff">
<path fill="#000000" opacity="1.00" d=" M 12.32 6.32 C 18.20 5.70 24.11 6.08 30.00 6.00 C 35.89 6.08 41.80 5.69 47.67 6.33 C 48.43 16.53 47.79 26.78 48.00 37.00 C 47.95 42.56 48.28 48.13 47.67 53.67 C 41.80 54.31 35.89 53.92 30.00 54.00 C 24.11 53.92 18.20 54.30 12.33 53.67 C 11.57 43.80 12.20 33.89 12.00 24.00 C 12.07 18.11 11.70 12.20 12.32 6.32 M 16.07 10.07 C 15.94 23.35 15.94 36.65 16.07 49.93 C 25.36 50.07 34.65 50.07 43.93 49.93 C 44.06 36.64 44.06 23.35 43.93 10.07 C 34.64 9.93 25.36 9.93 16.07 10.07 Z" />
<path fill="#000000" opacity="1.00" d=" M 38.27 14.46 C 38.99 14.27 40.42 13.90 41.14 13.72 C 42.28 16.46 42.38 19.49 41.11 22.20 C 40.40 22.04 38.99 21.71 38.28 21.55 C 37.97 19.20 37.96 16.81 38.27 14.46 Z" />
<path fill="#000000" opacity="1.00" d=" M 50.26 14.44 C 50.98 14.27 52.42 13.93 53.13 13.76 C 54.26 16.29 54.10 19.05 53.70 21.72 C 52.56 21.72 51.42 21.72 50.28 21.72 C 49.98 19.30 49.97 16.86 50.26 14.44 Z" />
<path fill="#000000" opacity="1.00" d=" M 36.48 28.50 C 37.10 28.32 38.35 27.98 38.98 27.81 C 39.42 28.87 39.84 29.94 40.24 31.02 C 38.79 31.98 37.27 32.03 35.82 31.02 C 35.98 30.39 36.31 29.13 36.48 28.50 Z" />
</g>
</svg>
