<?xml version="1.0" encoding="UTF-8" ?>
<!DOCTYPE svg PUBLIC "-//W3C//DTD SVG 1.1//EN" "http://www.w3.org/Graphics/SVG/1.1/DTD/svg11.dtd">
<svg width="60pt" height="60pt" viewBox="0 0 60 60" version="1.1" xmlns="http://www.w3.org/2000/svg">
<g id="#ffffffff">
<path fill="#ffffff" opacity="1.00" d=" M 0.00 0.00 L 60.00 0.00 L 60.00 28.73 C 59.37 24.93 54.98 24.99 52.06 24.19 C 49.07 20.05 47.61 13.58 41.93 12.39 C 36.24 11.85 30.49 11.94 24.80 12.33 C 18.31 12.92 16.38 20.22 12.62 24.45 C 8.48 25.97 2.07 24.52 0.00 29.33 L 0.00 0.00 Z" />
<path fill="#ffffff" opacity="1.00" d=" M 27.74 17.79 C 30.12 15.22 34.70 15.50 36.75 18.36 C 38.47 20.50 37.92 23.41 38.00 25.95 C 39.31 26.12 41.05 25.65 41.81 27.09 C 42.14 29.65 42.11 32.29 41.83 34.86 C 41.10 36.35 39.29 35.93 37.96 36.01 C 33.02 35.87 28.05 36.24 23.12 35.82 C 21.40 34.86 22.18 32.63 21.98 31.04 C 22.17 29.43 21.44 27.30 23.02 26.19 C 23.77 26.13 25.26 26.01 26.00 25.95 C 26.05 23.19 25.50 19.89 27.74 17.79 M 31.12 20.12 C 29.23 21.45 30.25 24.07 30.00 26.00 C 31.33 26.00 32.67 26.00 34.00 26.00 C 34.02 23.80 34.74 19.24 31.12 20.12 Z" />
<path fill="#ffffff" opacity="1.00" d=" M 0.00 37.69 C 0.39 39.90 2.46 40.87 4.35 41.53 C 5.55 43.66 7.40 45.63 9.97 45.92 C 13.04 46.49 15.83 44.50 17.40 42.02 C 25.13 41.99 32.87 41.98 40.60 42.02 C 42.16 44.51 44.97 46.49 48.04 45.92 C 50.59 45.64 52.41 43.67 53.66 41.60 C 56.13 41.01 59.22 40.54 60.00 37.67 L 60.00 60.00 L 0.00 60.00 L 0.00 37.69 Z" />
</g>
<g id="#000000ff">
<path fill="#000000" opacity="1.00" d=" M 24.80 12.33 C 30.49 11.94 36.24 11.85 41.93 12.39 C 47.61 13.58 49.07 20.05 52.06 24.19 C 54.98 24.99 59.37 24.93 60.00 28.73 L 60.00 37.67 C 59.22 40.54 56.13 41.01 53.66 41.60 C 52.41 43.67 50.59 45.64 48.04 45.92 C 44.97 46.49 42.16 44.51 40.60 42.02 C 32.87 41.98 25.13 41.99 17.40 42.02 C 15.83 44.50 13.04 46.49 9.97 45.92 C 7.40 45.63 5.55 43.66 4.35 41.53 C 2.46 40.87 0.39 39.90 0.00 37.69 L 0.00 29.33 C 2.07 24.52 8.48 25.97 12.62 24.45 C 16.38 20.22 18.31 12.92 24.80 12.33 M 27.74 17.79 C 25.50 19.89 26.05 23.19 26.00 25.95 C 25.26 26.01 23.77 26.13 23.02 26.19 C 21.44 27.30 22.17 29.43 21.98 31.04 C 22.18 32.63 21.40 34.86 23.12 35.82 C 28.05 36.24 33.02 35.87 37.96 36.01 C 39.29 35.93 41.10 36.35 41.83 34.86 C 42.11 32.29 42.14 29.65 41.81 27.09 C 41.05 25.65 39.31 26.12 38.00 25.95 C 37.92 23.41 38.47 20.50 36.75 18.36 C 34.70 15.50 30.12 15.22 27.74 17.79 Z" />
<path fill="#000000" opacity="1.00" d=" M 31.12 20.12 C 34.74 19.24 34.02 23.80 34.00 26.00 C 32.67 26.00 31.33 26.00 30.00 26.00 C 30.25 24.07 29.23 21.45 31.12 20.12 Z" />
</g>
</svg>
