<?xml version="1.0" encoding="UTF-8" ?>
<!DOCTYPE svg PUBLIC "-//W3C//DTD SVG 1.1//EN" "http://www.w3.org/Graphics/SVG/1.1/DTD/svg11.dtd">
<svg width="60pt" height="60pt" viewBox="0 0 60 60" version="1.1" xmlns="http://www.w3.org/2000/svg">
<g id="#ffffffff">
<path fill="#ffffff" opacity="1.00" d=" M 0.00 0.00 L 60.00 0.00 L 60.00 45.38 C 59.73 37.79 52.61 31.31 45.00 32.08 C 37.49 32.41 31.25 39.66 32.09 47.14 C 32.49 53.99 38.56 59.68 45.35 60.00 L 0.00 60.00 L 0.00 0.00 M 31.08 4.18 C 26.06 5.40 21.05 6.65 16.05 7.95 C 14.45 8.05 13.76 9.52 14.01 10.95 C 13.97 23.32 14.03 35.70 13.98 48.07 C 14.15 49.29 13.58 51.27 15.19 51.74 C 20.33 53.34 25.66 54.29 30.83 55.82 C 30.08 54.27 29.36 52.72 28.70 51.14 C 25.18 50.23 21.67 49.25 18.11 48.54 C 17.94 36.18 17.91 23.80 18.12 11.44 C 22.13 10.68 26.03 9.50 30.00 8.57 C 29.99 18.25 30.02 27.94 29.98 37.62 C 33.18 31.86 39.37 28.02 46.00 27.93 C 45.88 21.00 46.25 14.05 45.82 7.13 C 45.59 6.89 45.13 6.41 44.90 6.17 C 41.38 5.77 37.82 6.11 34.29 5.98 C 33.60 4.80 32.65 3.49 31.08 4.18 M 25.23 28.12 C 22.80 29.07 24.42 32.96 26.83 31.85 C 29.14 30.86 27.59 27.12 25.23 28.12 Z" />
<path fill="#ffffff" opacity="1.00" d=" M 51.13 40.20 C 53.09 39.14 55.03 41.98 53.36 43.41 C 50.56 46.25 47.84 49.21 44.82 51.82 C 42.44 52.46 41.16 49.63 39.55 48.40 C 38.13 47.42 37.27 45.16 39.12 44.13 C 41.37 43.53 42.52 45.97 44.01 47.15 C 46.42 44.87 48.59 42.34 51.13 40.20 Z" />
<path fill="#ffffff" opacity="1.00" d=" M 46.70 60.00 C 53.70 59.65 59.65 53.69 60.00 46.70 L 60.00 60.00 L 46.70 60.00 Z" />
</g>
<g id="#000000ff">
<path fill="#000000" opacity="1.00" d=" M 31.08 4.18 C 32.65 3.49 33.60 4.80 34.29 5.98 C 37.82 6.11 41.38 5.77 44.90 6.17 C 45.13 6.41 45.59 6.89 45.82 7.13 C 46.25 14.05 45.88 21.00 46.00 27.93 C 39.37 28.02 33.18 31.86 29.98 37.62 C 30.02 27.94 29.99 18.25 30.00 8.57 C 26.03 9.50 22.13 10.68 18.12 11.44 C 17.91 23.80 17.94 36.18 18.11 48.54 C 21.67 49.25 25.18 50.23 28.70 51.14 C 29.36 52.72 30.08 54.27 30.83 55.82 C 25.66 54.29 20.33 53.34 15.19 51.74 C 13.58 51.27 14.15 49.29 13.98 48.07 C 14.03 35.70 13.97 23.32 14.01 10.95 C 13.76 9.52 14.45 8.05 16.05 7.95 C 21.05 6.65 26.06 5.40 31.08 4.18 Z" />
<path fill="#000000" opacity="1.00" d=" M 25.23 28.12 C 27.59 27.12 29.14 30.86 26.83 31.85 C 24.42 32.96 22.80 29.07 25.23 28.12 Z" />
<path fill="#000000" opacity="1.00" d=" M 32.09 47.14 C 31.25 39.66 37.49 32.41 45.00 32.08 C 52.61 31.31 59.73 37.79 60.00 45.38 L 60.00 46.70 C 59.65 53.69 53.70 59.65 46.70 60.00 L 45.35 60.00 C 38.56 59.68 32.49 53.99 32.09 47.14 M 51.13 40.20 C 48.59 42.34 46.42 44.87 44.01 47.15 C 42.52 45.97 41.37 43.53 39.12 44.13 C 37.27 45.16 38.13 47.42 39.55 48.40 C 41.16 49.63 42.44 52.46 44.82 51.82 C 47.84 49.21 50.56 46.25 53.36 43.41 C 55.03 41.98 53.09 39.14 51.13 40.20 Z" />
</g>
</svg>
