<?xml version="1.0" encoding="UTF-8" ?>
<!DOCTYPE svg PUBLIC "-//W3C//DTD SVG 1.1//EN" "http://www.w3.org/Graphics/SVG/1.1/DTD/svg11.dtd">
<svg width="60pt" height="60pt" viewBox="0 0 60 60" version="1.1" xmlns="http://www.w3.org/2000/svg">
<g id="#ffffffff">
<path fill="#ffffff" opacity="1.00" d=" M 0.00 0.00 L 60.00 0.00 L 60.00 60.00 L 0.00 60.00 L 0.00 0.00 M 25.29 8.03 C 24.98 8.58 24.36 9.67 24.05 10.22 C 18.83 8.84 13.47 8.91 8.11 9.15 C 7.80 14.78 7.90 20.43 8.92 25.99 C 8.50 28.71 7.24 31.51 8.55 34.23 C 10.23 37.77 7.43 41.38 8.54 44.95 C 9.13 46.93 8.29 48.89 8.00 50.84 C 13.55 50.97 19.11 51.04 24.65 50.80 C 25.01 51.09 25.72 51.69 26.08 51.99 C 31.35 52.43 36.82 49.21 41.86 51.93 C 43.97 51.80 47.30 53.07 48.16 50.36 C 49.38 50.59 50.60 50.80 51.83 50.99 C 52.08 45.63 52.11 40.25 51.90 34.89 C 50.92 32.03 51.04 28.98 50.34 26.07 C 50.76 25.56 51.59 24.54 52.01 24.03 C 52.19 20.91 51.79 17.82 51.29 14.76 C 51.63 12.92 52.02 11.09 52.03 9.21 C 49.31 9.19 46.59 9.05 44.02 8.12 C 40.88 7.94 36.70 7.11 34.89 10.45 C 34.59 9.84 33.98 8.63 33.68 8.02 C 30.88 7.99 28.09 8.00 25.29 8.03 Z" />
<path fill="#ffffff" opacity="1.00" d=" M 15.34 17.35 C 16.32 17.11 18.27 16.63 19.25 16.39 C 27.72 22.86 36.21 29.29 44.66 35.78 C 43.68 38.06 42.70 40.33 41.72 42.61 C 40.08 42.61 38.45 42.59 36.82 42.58 C 29.70 34.14 22.49 25.76 15.34 17.35 Z" />
<path fill="#ffffff" opacity="1.00" d=" M 33.17 18.47 C 35.23 17.78 37.30 17.11 39.35 16.37 C 40.48 17.06 41.61 17.76 42.72 18.47 C 42.36 20.57 42.00 22.67 41.63 24.77 C 38.81 22.66 36.00 20.56 33.17 18.47 Z" />
<path fill="#ffffff" opacity="1.00" d=" M 17.42 33.15 C 20.24 35.92 23.02 38.72 25.80 41.52 C 23.72 42.22 21.64 42.92 19.56 43.62 C 18.14 42.58 16.74 41.53 15.33 40.47 C 16.04 38.03 16.73 35.59 17.42 33.15 Z" />
</g>
<g id="#000000ff">
<path fill="#000000" opacity="1.00" d=" M 25.29 8.03 C 28.09 8.00 30.88 7.99 33.68 8.02 C 33.98 8.63 34.59 9.84 34.89 10.45 C 36.70 7.11 40.88 7.94 44.02 8.12 C 46.59 9.05 49.31 9.19 52.03 9.21 C 52.02 11.09 51.63 12.92 51.29 14.76 C 51.79 17.82 52.19 20.91 52.01 24.03 C 51.59 24.54 50.76 25.56 50.34 26.07 C 51.04 28.98 50.92 32.03 51.90 34.89 C 52.11 40.25 52.08 45.63 51.83 50.99 C 50.60 50.80 49.38 50.59 48.16 50.36 C 47.30 53.07 43.97 51.80 41.86 51.93 C 36.82 49.21 31.35 52.43 26.08 51.99 C 25.72 51.69 25.01 51.09 24.65 50.80 C 19.11 51.04 13.55 50.97 8.00 50.84 C 8.29 48.89 9.13 46.93 8.54 44.95 C 7.43 41.38 10.23 37.77 8.55 34.23 C 7.24 31.51 8.50 28.71 8.92 25.99 C 7.90 20.43 7.80 14.78 8.11 9.15 C 13.47 8.91 18.83 8.84 24.05 10.22 C 24.36 9.67 24.98 8.58 25.29 8.03 M 15.34 17.35 C 22.49 25.76 29.70 34.14 36.82 42.58 C 38.45 42.59 40.08 42.61 41.72 42.61 C 42.70 40.33 43.68 38.06 44.66 35.78 C 36.21 29.29 27.72 22.86 19.25 16.39 C 18.27 16.63 16.32 17.11 15.34 17.35 M 33.17 18.47 C 36.00 20.56 38.81 22.66 41.63 24.77 C 42.00 22.67 42.36 20.57 42.72 18.47 C 41.61 17.76 40.48 17.06 39.35 16.37 C 37.30 17.11 35.23 17.78 33.17 18.47 M 17.42 33.15 C 16.73 35.59 16.04 38.03 15.33 40.47 C 16.74 41.53 18.14 42.58 19.56 43.62 C 21.64 42.92 23.72 42.22 25.80 41.52 C 23.02 38.72 20.24 35.92 17.42 33.15 Z" />
</g>
</svg>
