<?xml version="1.0" encoding="UTF-8" ?>
<!DOCTYPE svg PUBLIC "-//W3C//DTD SVG 1.1//EN" "http://www.w3.org/Graphics/SVG/1.1/DTD/svg11.dtd">
<svg width="64pt" height="64pt" viewBox="0 0 64 64" version="1.1" xmlns="http://www.w3.org/2000/svg">
<g id="#ffffffff">
<path fill="#ffffff" opacity="1.00" d=" M 0.00 0.00 L 64.00 0.00 L 64.00 64.00 L 0.00 64.00 L 0.00 0.00 M 29.18 14.10 C 26.81 15.22 28.41 18.85 30.86 17.89 C 33.12 16.76 31.60 13.13 29.18 14.10 M 35.17 14.10 C 32.84 15.20 34.41 18.90 36.85 17.89 C 39.14 16.75 37.59 13.15 35.17 14.10 M 23.14 16.10 C 20.89 17.23 22.37 20.82 24.78 19.91 C 27.19 18.84 25.60 15.11 23.14 16.10 M 41.12 16.10 C 38.92 17.25 40.35 20.80 42.75 19.91 C 45.20 18.92 43.59 15.04 41.12 16.10 M 19.15 20.17 C 16.80 21.60 19.53 25.41 21.47 23.44 C 23.52 22.30 21.23 18.74 19.15 20.17 M 45.21 20.09 C 42.79 21.18 44.42 24.89 46.89 23.89 C 49.09 22.71 47.62 19.19 45.21 20.09 M 13.46 21.52 C 11.11 23.17 14.77 26.62 16.30 24.19 C 17.87 22.45 15.09 19.73 13.46 21.52 M 8.93 25.00 C 7.03 27.08 9.86 29.98 11.98 28.09 C 13.28 26.00 11.04 23.71 8.93 25.00 M 45.40 26.23 C 43.50 27.51 46.28 30.78 47.86 29.11 C 50.64 27.79 47.04 23.72 45.40 26.23 M 51.31 28.42 C 48.29 30.16 53.15 34.08 54.11 30.80 C 55.59 29.46 52.46 26.78 51.31 28.42 M 7.19 30.10 C 4.81 31.19 6.41 34.88 8.86 33.90 C 11.11 32.76 9.61 29.13 7.19 30.10 M 54.93 33.15 C 53.12 35.25 56.03 38.03 58.06 36.10 C 59.32 33.97 56.99 31.67 54.93 33.15 M 5.08 36.11 C 2.94 37.30 4.35 40.77 6.74 39.91 C 9.24 38.89 7.57 35.06 5.08 36.11 M 57.12 39.11 C 54.86 40.27 56.36 43.88 58.80 42.92 C 61.14 41.79 59.57 38.17 57.12 39.11 M 6.41 42.50 C 4.25 44.06 6.79 47.25 8.92 45.80 C 10.85 44.15 8.44 40.87 6.41 42.50 M 54.16 44.06 C 51.93 44.73 52.66 48.53 55.02 47.95 C 57.84 47.92 56.88 43.14 54.16 44.06 M 11.11 46.11 C 8.89 47.32 10.41 50.82 12.82 49.90 C 15.18 48.76 13.56 45.11 11.11 46.11 M 17.15 46.10 C 14.86 47.25 16.39 50.83 18.82 49.90 C 21.15 48.80 19.58 45.09 17.15 46.10 M 23.25 46.09 C 20.79 47.08 22.38 50.90 24.84 49.89 C 27.10 48.80 25.65 45.19 23.25 46.09 M 29.12 46.10 C 26.88 47.30 28.40 50.81 30.81 49.90 C 33.18 48.79 31.57 45.09 29.12 46.10 M 35.17 46.09 C 32.88 47.19 34.34 50.80 36.76 49.91 C 39.19 48.90 37.63 45.13 35.17 46.09 M 41.22 46.09 C 38.79 47.13 40.42 50.93 42.89 49.89 C 45.08 48.73 43.62 45.16 41.22 46.09 M 47.38 46.50 C 44.94 48.12 48.70 51.51 50.15 49.12 C 52.10 47.58 48.62 44.45 47.38 46.50 Z" />
</g>
<g id="#030303ff">
<path fill="#030303" opacity="1.00" d=" M 29.18 14.10 C 31.60 13.13 33.12 16.76 30.86 17.89 C 28.41 18.85 26.81 15.22 29.18 14.10 Z" />
<path fill="#030303" opacity="1.00" d=" M 35.17 14.10 C 37.59 13.15 39.14 16.75 36.85 17.89 C 34.41 18.90 32.84 15.20 35.17 14.10 Z" />
<path fill="#030303" opacity="1.00" d=" M 23.14 16.10 C 25.60 15.11 27.19 18.84 24.78 19.91 C 22.37 20.82 20.89 17.23 23.14 16.10 Z" />
<path fill="#030303" opacity="1.00" d=" M 41.12 16.10 C 43.59 15.04 45.20 18.92 42.75 19.91 C 40.35 20.80 38.92 17.25 41.12 16.10 Z" />
<path fill="#030303" opacity="1.00" d=" M 19.15 20.17 C 21.23 18.74 23.52 22.30 21.47 23.44 C 19.53 25.41 16.80 21.60 19.15 20.17 Z" />
<path fill="#030303" opacity="1.00" d=" M 45.21 20.09 C 47.62 19.19 49.09 22.71 46.89 23.89 C 44.42 24.89 42.79 21.18 45.21 20.09 Z" />
<path fill="#030303" opacity="1.00" d=" M 13.46 21.52 C 15.09 19.73 17.87 22.45 16.30 24.19 C 14.77 26.62 11.11 23.17 13.46 21.52 Z" />
<path fill="#030303" opacity="1.00" d=" M 8.93 25.00 C 11.04 23.71 13.28 26.00 11.98 28.09 C 9.86 29.98 7.03 27.08 8.93 25.00 Z" />
<path fill="#030303" opacity="1.00" d=" M 45.40 26.23 C 47.04 23.72 50.64 27.79 47.86 29.11 C 46.28 30.78 43.50 27.51 45.40 26.23 Z" />
<path fill="#030303" opacity="1.00" d=" M 51.31 28.42 C 52.46 26.78 55.59 29.46 54.11 30.80 C 53.15 34.08 48.29 30.16 51.31 28.42 Z" />
<path fill="#030303" opacity="1.00" d=" M 7.19 30.10 C 9.61 29.13 11.11 32.76 8.86 33.90 C 6.41 34.88 4.81 31.19 7.19 30.10 Z" />
<path fill="#030303" opacity="1.00" d=" M 54.93 33.15 C 56.99 31.67 59.32 33.97 58.06 36.10 C 56.03 38.03 53.12 35.25 54.93 33.15 Z" />
<path fill="#030303" opacity="1.00" d=" M 5.08 36.11 C 7.57 35.06 9.24 38.89 6.74 39.91 C 4.35 40.77 2.94 37.30 5.08 36.11 Z" />
<path fill="#030303" opacity="1.00" d=" M 57.12 39.11 C 59.57 38.17 61.14 41.79 58.80 42.92 C 56.36 43.88 54.86 40.27 57.12 39.11 Z" />
<path fill="#030303" opacity="1.00" d=" M 6.41 42.50 C 8.44 40.87 10.85 44.15 8.92 45.80 C 6.79 47.25 4.25 44.06 6.41 42.50 Z" />
<path fill="#030303" opacity="1.00" d=" M 54.16 44.06 C 56.88 43.14 57.84 47.92 55.02 47.95 C 52.66 48.53 51.93 44.73 54.16 44.06 Z" />
<path fill="#030303" opacity="1.00" d=" M 11.11 46.11 C 13.56 45.11 15.18 48.76 12.82 49.90 C 10.41 50.82 8.89 47.32 11.11 46.11 Z" />
<path fill="#030303" opacity="1.00" d=" M 17.15 46.10 C 19.58 45.09 21.15 48.80 18.82 49.90 C 16.39 50.83 14.86 47.25 17.15 46.10 Z" />
<path fill="#030303" opacity="1.00" d=" M 23.25 46.09 C 25.65 45.19 27.10 48.80 24.84 49.89 C 22.38 50.90 20.79 47.08 23.25 46.09 Z" />
<path fill="#030303" opacity="1.00" d=" M 29.12 46.10 C 31.57 45.09 33.18 48.79 30.81 49.90 C 28.40 50.81 26.88 47.30 29.12 46.10 Z" />
<path fill="#030303" opacity="1.00" d=" M 35.17 46.09 C 37.63 45.13 39.19 48.90 36.76 49.91 C 34.34 50.80 32.88 47.19 35.17 46.09 Z" />
<path fill="#030303" opacity="1.00" d=" M 41.22 46.09 C 43.62 45.16 45.08 48.73 42.89 49.89 C 40.42 50.93 38.79 47.13 41.22 46.09 Z" />
<path fill="#030303" opacity="1.00" d=" M 47.38 46.50 C 48.62 44.45 52.10 47.58 50.15 49.12 C 48.70 51.51 44.94 48.12 47.38 46.50 Z" />
</g>
</svg>
