<?xml version="1.0" encoding="UTF-8" ?>
<!DOCTYPE svg PUBLIC "-//W3C//DTD SVG 1.1//EN" "http://www.w3.org/Graphics/SVG/1.1/DTD/svg11.dtd">
<svg width="60pt" height="60pt" viewBox="0 0 60 60" version="1.1" xmlns="http://www.w3.org/2000/svg">
<g id="#ffffffff">
<path fill="#ffffff" opacity="1.00" d=" M 0.00 0.00 L 60.00 0.00 L 60.00 39.13 C 58.80 37.84 56.07 37.77 56.00 40.00 C 56.07 42.21 58.69 42.03 60.00 41.02 L 60.00 60.00 L 0.00 60.00 L 0.00 40.89 C 1.03 41.56 2.45 42.49 3.65 41.62 C 4.34 40.56 4.32 39.51 3.60 38.48 C 2.43 37.67 1.09 38.57 0.00 39.05 L 0.00 0.00 M 33.75 13.16 C 34.80 15.02 37.00 13.73 37.34 12.08 C 36.97 11.45 36.21 10.18 35.83 9.55 C 34.72 10.25 32.20 11.68 33.75 13.16 M 40.75 13.08 C 41.31 14.19 42.19 16.82 43.85 15.71 C 45.80 15.35 44.71 13.37 44.72 12.05 C 43.35 12.18 42.01 12.53 40.75 13.08 M 26.50 16.34 C 27.08 16.49 28.26 16.78 28.85 16.92 C 29.21 15.49 30.44 12.98 27.87 12.92 C 26.14 12.17 24.69 15.42 26.50 16.34 M 46.96 19.18 C 45.68 20.68 47.84 21.75 48.94 22.23 C 50.00 21.51 50.41 20.24 51.01 19.18 C 49.87 18.62 47.47 17.11 46.96 19.18 M 12.18 20.10 C 12.29 20.65 12.52 21.76 12.64 22.31 C 13.26 22.53 14.51 22.96 15.14 23.18 C 15.78 21.98 16.66 20.70 15.69 19.39 C 14.40 18.51 13.25 19.35 12.18 20.10 M 21.56 19.53 C 19.14 20.88 21.76 24.57 23.91 22.91 C 25.98 21.37 23.75 18.10 21.56 19.53 M 7.30 28.07 C 8.06 30.44 11.93 31.05 11.90 27.99 C 11.84 24.98 8.21 26.13 7.30 28.07 M 49.19 26.05 C 46.60 27.01 48.33 31.12 50.84 29.99 C 53.25 29.03 51.51 25.15 49.19 26.05 M 2.08 31.06 C 0.68 33.21 2.96 35.59 5.11 34.10 C 6.49 31.74 4.44 29.70 2.08 31.06 M 54.82 30.94 C 53.06 33.01 55.83 35.46 57.81 33.88 C 59.40 31.88 56.80 29.40 54.82 30.94 M 5.22 45.23 C 3.39 46.77 6.42 49.80 7.90 47.80 C 10.41 46.35 6.74 42.79 5.22 45.23 M 52.01 44.89 C 49.85 47.20 54.40 50.16 55.18 46.96 C 56.53 45.39 53.31 43.34 52.01 44.89 M 12.66 46.45 C 12.54 47.06 12.31 48.27 12.19 48.88 C 13.61 50.41 16.03 50.17 16.43 47.88 C 15.79 46.09 14.28 45.81 12.66 46.45 M 20.25 46.75 C 19.86 48.58 21.58 51.23 23.45 49.47 C 24.94 48.40 23.41 46.96 23.08 45.76 C 22.37 46.01 20.95 46.50 20.25 46.75 M 29.37 49.96 C 32.22 50.40 32.62 47.15 30.79 45.57 C 28.75 46.04 26.78 48.63 29.37 49.96 M 36.31 46.29 C 35.33 48.74 37.30 50.69 39.73 49.64 C 40.56 47.25 38.70 45.37 36.31 46.29 M 45.26 46.22 C 43.29 46.67 44.06 49.07 44.99 50.19 C 45.67 49.98 47.03 49.56 47.71 49.35 C 48.05 47.81 47.26 45.26 45.26 46.22 Z" />
</g>
<g id="#010101ff">
<path fill="#010101" opacity="1.00" d=" M 33.75 13.16 C 32.20 11.68 34.72 10.25 35.83 9.55 C 36.21 10.18 36.97 11.45 37.34 12.08 C 37.00 13.73 34.80 15.02 33.75 13.16 Z" />
<path fill="#010101" opacity="1.00" d=" M 40.75 13.08 C 42.01 12.53 43.35 12.18 44.72 12.05 C 44.71 13.37 45.80 15.35 43.85 15.71 C 42.19 16.82 41.31 14.19 40.75 13.08 Z" />
<path fill="#010101" opacity="1.00" d=" M 26.50 16.34 C 24.69 15.42 26.14 12.17 27.87 12.92 C 30.44 12.98 29.21 15.49 28.85 16.92 C 28.26 16.78 27.08 16.49 26.50 16.34 Z" />
<path fill="#010101" opacity="1.00" d=" M 46.96 19.18 C 47.47 17.11 49.87 18.62 51.01 19.18 C 50.41 20.24 50.00 21.51 48.94 22.23 C 47.84 21.75 45.68 20.68 46.96 19.18 Z" />
<path fill="#010101" opacity="1.00" d=" M 12.18 20.10 C 13.25 19.35 14.40 18.51 15.69 19.39 C 16.66 20.70 15.78 21.98 15.14 23.18 C 14.51 22.96 13.26 22.53 12.64 22.31 C 12.52 21.76 12.29 20.65 12.18 20.10 Z" />
<path fill="#010101" opacity="1.00" d=" M 21.56 19.53 C 23.75 18.10 25.98 21.37 23.91 22.91 C 21.76 24.57 19.14 20.88 21.56 19.53 Z" />
<path fill="#010101" opacity="1.00" d=" M 7.30 28.07 C 8.21 26.13 11.84 24.98 11.90 27.99 C 11.93 31.05 8.06 30.44 7.30 28.07 Z" />
<path fill="#010101" opacity="1.00" d=" M 49.19 26.05 C 51.51 25.15 53.25 29.03 50.84 29.99 C 48.33 31.12 46.60 27.01 49.19 26.05 Z" />
<path fill="#010101" opacity="1.00" d=" M 2.08 31.06 C 4.44 29.70 6.49 31.74 5.11 34.10 C 2.96 35.59 0.68 33.21 2.08 31.06 Z" />
<path fill="#010101" opacity="1.00" d=" M 54.82 30.94 C 56.80 29.40 59.40 31.88 57.81 33.88 C 55.83 35.46 53.06 33.01 54.82 30.94 Z" />
<path fill="#010101" opacity="1.00" d=" M 0.00 39.05 C 1.09 38.57 2.43 37.67 3.60 38.48 C 4.32 39.51 4.34 40.56 3.65 41.62 C 2.45 42.49 1.03 41.56 0.00 40.89 L 0.00 39.05 Z" />
<path fill="#010101" opacity="1.00" d=" M 56.00 40.00 C 56.07 37.77 58.80 37.84 60.00 39.13 L 60.00 41.02 C 58.69 42.03 56.07 42.21 56.00 40.00 Z" />
<path fill="#010101" opacity="1.00" d=" M 5.22 45.23 C 6.74 42.79 10.41 46.35 7.90 47.80 C 6.42 49.80 3.39 46.77 5.22 45.23 Z" />
<path fill="#010101" opacity="1.00" d=" M 52.01 44.89 C 53.31 43.34 56.53 45.39 55.18 46.96 C 54.40 50.16 49.85 47.20 52.01 44.89 Z" />
<path fill="#010101" opacity="1.00" d=" M 12.66 46.45 C 14.28 45.81 15.79 46.09 16.43 47.88 C 16.03 50.17 13.61 50.41 12.19 48.88 C 12.31 48.27 12.54 47.06 12.66 46.45 Z" />
<path fill="#010101" opacity="1.00" d=" M 20.25 46.75 C 20.95 46.50 22.37 46.01 23.08 45.76 C 23.41 46.96 24.94 48.40 23.45 49.47 C 21.58 51.23 19.86 48.58 20.25 46.75 Z" />
<path fill="#010101" opacity="1.00" d=" M 29.37 49.96 C 26.78 48.63 28.75 46.04 30.79 45.57 C 32.62 47.15 32.22 50.40 29.37 49.96 Z" />
<path fill="#010101" opacity="1.00" d=" M 36.31 46.29 C 38.70 45.37 40.56 47.25 39.73 49.64 C 37.30 50.69 35.33 48.74 36.31 46.29 Z" />
<path fill="#010101" opacity="1.00" d=" M 45.26 46.22 C 47.26 45.26 48.05 47.81 47.71 49.35 C 47.03 49.56 45.67 49.98 44.99 50.19 C 44.06 49.07 43.29 46.67 45.26 46.22 Z" />
</g>
</svg>
