<?xml version="1.0" encoding="UTF-8" ?>
<!DOCTYPE svg PUBLIC "-//W3C//DTD SVG 1.1//EN" "http://www.w3.org/Graphics/SVG/1.1/DTD/svg11.dtd">
<svg width="60pt" height="60pt" viewBox="0 0 60 60" version="1.1" xmlns="http://www.w3.org/2000/svg">
<g id="#ffffffff">
<path fill="#ffffff" opacity="1.00" d=" M 0.00 0.00 L 60.00 0.00 L 60.00 13.18 C 58.88 11.52 55.93 11.66 56.08 14.04 C 55.95 24.68 55.92 35.33 56.10 45.96 C 55.97 48.29 58.70 48.28 60.00 47.09 L 60.00 60.00 L 0.00 60.00 L 0.00 46.74 C 1.01 48.37 3.98 48.37 3.89 46.05 C 4.09 35.37 4.06 24.66 3.91 13.97 C 4.01 11.68 1.33 11.77 0.00 12.82 L 0.00 0.00 M 6.07 13.93 C 5.95 24.64 5.94 35.36 6.08 46.07 C 5.92 48.15 9.12 48.74 9.81 46.82 C 10.25 42.89 9.92 38.92 9.96 34.97 C 17.56 49.69 42.50 49.71 50.04 34.93 C 50.08 38.91 49.75 42.91 50.20 46.86 C 50.96 48.76 54.13 48.10 53.93 46.00 C 54.12 36.00 53.93 25.99 54.01 15.98 C 53.90 14.63 54.32 12.85 52.83 12.11 C 51.58 11.61 49.89 12.50 50.07 13.96 C 49.87 17.64 50.03 21.34 50.04 25.03 C 42.47 10.31 17.63 10.31 9.98 24.96 C 9.92 21.03 10.23 17.08 9.82 13.16 C 9.13 11.23 5.88 11.83 6.07 13.93 Z" />
<path fill="#ffffff" opacity="1.00" d=" M 25.44 20.70 C 31.07 18.13 36.38 23.93 37.55 29.04 C 38.97 33.27 37.23 39.80 31.96 39.98 C 23.38 39.56 18.18 25.99 25.44 20.70 Z" />
</g>
<g id="#000000ff">
<path fill="#000000" opacity="1.00" d=" M 0.00 12.82 C 1.33 11.77 4.01 11.68 3.91 13.97 C 4.06 24.66 4.09 35.37 3.89 46.05 C 3.98 48.37 1.01 48.37 0.00 46.74 L 0.00 12.82 Z" />
<path fill="#000000" opacity="1.00" d=" M 6.07 13.93 C 5.88 11.83 9.13 11.23 9.82 13.16 C 10.23 17.08 9.92 21.03 9.98 24.96 C 17.63 10.31 42.47 10.31 50.04 25.03 C 50.03 21.34 49.87 17.64 50.07 13.96 C 49.89 12.50 51.58 11.61 52.83 12.11 C 54.32 12.85 53.90 14.63 54.01 15.98 C 53.93 25.99 54.12 36.00 53.93 46.00 C 54.13 48.10 50.96 48.76 50.20 46.86 C 49.75 42.91 50.08 38.91 50.04 34.93 C 42.50 49.71 17.56 49.69 9.96 34.97 C 9.92 38.92 10.25 42.89 9.81 46.82 C 9.12 48.74 5.92 48.15 6.08 46.07 C 5.94 35.36 5.95 24.64 6.07 13.93 M 25.44 20.70 C 18.18 25.99 23.38 39.56 31.96 39.98 C 37.23 39.80 38.97 33.27 37.55 29.04 C 36.38 23.93 31.07 18.13 25.44 20.70 Z" />
<path fill="#000000" opacity="1.00" d=" M 56.08 14.04 C 55.93 11.66 58.88 11.52 60.00 13.18 L 60.00 47.09 C 58.70 48.28 55.97 48.29 56.10 45.96 C 55.92 35.33 55.95 24.68 56.08 14.04 Z" />
</g>
</svg>
