<?xml version="1.0" encoding="UTF-8" ?>
<!DOCTYPE svg PUBLIC "-//W3C//DTD SVG 1.1//EN" "http://www.w3.org/Graphics/SVG/1.1/DTD/svg11.dtd">
<svg width="60pt" height="60pt" viewBox="0 0 60 60" version="1.1" xmlns="http://www.w3.org/2000/svg">
<g id="#ffffffff">
<path fill="#ffffff" opacity="1.00" d=" M 0.00 0.00 L 60.00 0.00 L 60.00 60.00 L 0.00 60.00 L 0.00 0.00 M 12.60 11.36 C 18.73 17.64 25.01 23.75 31.17 30.00 C 25.48 35.70 19.80 41.41 14.08 47.07 C 13.39 48.00 11.97 48.69 12.08 50.01 C 11.70 51.77 14.29 52.61 15.35 51.39 C 21.82 45.15 28.08 38.70 34.47 32.38 C 35.52 31.50 36.72 29.83 35.38 28.62 C 29.32 22.32 23.01 16.25 16.88 10.01 C 15.99 9.29 15.29 8.11 14.04 8.01 C 12.28 7.70 11.27 10.27 12.60 11.36 M 26.60 11.37 C 32.73 17.64 39.01 23.76 45.17 30.00 C 39.02 36.23 32.74 42.33 26.64 48.60 C 24.61 50.32 27.65 53.37 29.40 51.34 C 35.84 45.14 42.07 38.71 48.43 32.43 C 49.50 31.52 50.76 29.82 49.35 28.59 C 42.77 21.85 36.10 15.18 29.35 8.61 C 27.63 6.61 24.62 9.67 26.60 11.37 Z" />
</g>
<g id="#000000ff">
<path fill="#000000" opacity="1.00" d=" M 12.60 11.36 C 11.27 10.27 12.28 7.70 14.04 8.01 C 15.29 8.11 15.99 9.29 16.88 10.01 C 23.01 16.25 29.32 22.32 35.38 28.62 C 36.72 29.83 35.52 31.50 34.47 32.38 C 28.08 38.70 21.82 45.15 15.35 51.39 C 14.29 52.61 11.70 51.77 12.08 50.01 C 11.97 48.69 13.39 48.00 14.08 47.07 C 19.80 41.41 25.48 35.70 31.17 30.00 C 25.01 23.75 18.73 17.64 12.60 11.36 Z" />
<path fill="#000000" opacity="1.00" d=" M 26.60 11.37 C 24.62 9.67 27.63 6.61 29.35 8.61 C 36.10 15.18 42.77 21.85 49.35 28.59 C 50.76 29.82 49.50 31.52 48.43 32.43 C 42.07 38.71 35.84 45.14 29.40 51.34 C 27.65 53.37 24.61 50.32 26.64 48.60 C 32.74 42.33 39.02 36.23 45.17 30.00 C 39.01 23.76 32.73 17.64 26.60 11.37 Z" />
</g>
</svg>
