<?xml version="1.0" encoding="UTF-8" ?>
<!DOCTYPE svg PUBLIC "-//W3C//DTD SVG 1.1//EN" "http://www.w3.org/Graphics/SVG/1.1/DTD/svg11.dtd">
<svg width="60pt" height="60pt" viewBox="0 0 60 60" version="1.1" xmlns="http://www.w3.org/2000/svg">
<g id="#ffffffff">
<path fill="#ffffff" opacity="1.00" d=" M 0.00 0.00 L 60.00 0.00 L 60.00 60.00 L 0.00 60.00 L 0.00 0.00 M 8.55 10.49 C 7.22 11.11 6.04 12.34 6.07 13.90 C 5.87 17.93 6.05 21.97 6.00 26.00 C 7.20 26.00 8.41 26.00 9.61 26.00 C 10.46 24.54 11.08 22.50 13.00 22.16 C 16.98 21.87 21.00 21.87 24.98 22.16 C 26.95 22.41 27.51 24.56 28.39 26.00 C 29.46 26.00 30.53 26.00 31.61 26.00 C 32.47 24.53 33.10 22.46 35.05 22.15 C 38.99 21.87 42.98 21.87 46.92 22.15 C 48.92 22.37 49.51 24.55 50.38 26.00 C 51.59 26.00 52.79 26.00 54.00 26.00 C 53.95 21.97 54.13 17.93 53.92 13.90 C 53.95 12.34 52.78 11.10 51.44 10.49 C 44.86 7.12 37.35 6.07 30.04 6.01 C 22.70 6.06 15.15 7.10 8.55 10.49 M 2.17 29.15 C 1.88 37.02 1.87 44.95 2.18 52.83 C 4.04 55.82 6.75 52.46 6.21 50.00 C 22.07 50.00 37.93 50.00 53.80 50.00 C 54.11 51.33 53.87 53.04 55.17 53.91 C 56.50 54.32 58.02 53.50 57.92 52.00 C 58.13 45.67 57.92 39.34 58.02 33.02 C 57.87 31.35 58.45 29.28 56.94 28.08 C 55.30 27.53 54.44 28.93 53.53 30.00 C 37.84 30.00 22.15 30.00 6.47 30.00 C 5.67 28.39 3.21 26.93 2.17 29.15 Z" />
<path fill="#ffffff" opacity="1.00" d=" M 24.02 13.11 C 24.31 10.06 27.71 9.53 30.00 10.72 C 32.03 9.82 34.94 9.72 35.77 12.28 C 36.66 16.20 32.48 18.66 30.00 20.92 C 27.61 18.76 24.17 16.69 24.02 13.11 Z" />
</g>
<g id="#000000ff">
<path fill="#968176" opacity="1.00" d=" M 8.55 10.49 C 15.15 7.10 22.70 6.06 30.04 6.01 C 37.35 6.07 44.86 7.12 51.44 10.49 C 52.78 11.10 53.95 12.34 53.92 13.90 C 54.13 17.93 53.95 21.97 54.00 26.00 C 52.79 26.00 51.59 26.00 50.38 26.00 C 49.51 24.55 48.92 22.37 46.92 22.15 C 42.98 21.87 38.99 21.87 35.05 22.15 C 33.10 22.46 32.47 24.53 31.61 26.00 C 30.53 26.00 29.46 26.00 28.39 26.00 C 27.51 24.56 26.95 22.41 24.98 22.16 C 21.00 21.87 16.98 21.87 13.00 22.16 C 11.08 22.50 10.46 24.54 9.61 26.00 C 8.41 26.00 7.20 26.00 6.00 26.00 C 6.05 21.97 5.87 17.93 6.07 13.90 C 6.04 12.34 7.22 11.11 8.55 10.49 M 24.02 13.11 C 24.17 16.69 27.61 18.76 30.00 20.92 C 32.48 18.66 36.66 16.20 35.77 12.28 C 34.94 9.72 32.03 9.82 30.00 10.72 C 27.71 9.53 24.31 10.06 24.02 13.11 Z" />
<path fill="#968176" opacity="1.00" d=" M 2.17 29.15 C 3.21 26.93 5.67 28.39 6.47 30.00 C 22.15 30.00 37.84 30.00 53.53 30.00 C 54.44 28.93 55.30 27.53 56.94 28.08 C 58.45 29.28 57.87 31.35 58.02 33.02 C 57.92 39.34 58.13 45.67 57.92 52.00 C 58.02 53.50 56.50 54.32 55.17 53.91 C 53.87 53.04 54.11 51.33 53.80 50.00 C 37.93 50.00 22.07 50.00 6.21 50.00 C 6.75 52.46 4.04 55.82 2.18 52.83 C 1.87 44.95 1.88 37.02 2.17 29.15 Z" />
</g>
</svg>
