<?xml version="1.0" encoding="UTF-8" ?>
<!DOCTYPE svg PUBLIC "-//W3C//DTD SVG 1.1//EN" "http://www.w3.org/Graphics/SVG/1.1/DTD/svg11.dtd">
<svg width="64pt" height="64pt" viewBox="0 0 64 64" version="1.1" xmlns="http://www.w3.org/2000/svg">
<g id="#ffffffff">
<path fill="#ffffff" opacity="1.00" d=" M 0.00 0.00 L 64.00 0.00 L 64.00 64.00 L 0.00 64.00 L 0.00 0.00 M 7.58 16.20 C 15.73 24.33 23.86 32.48 32.00 40.62 C 40.16 32.49 48.31 24.35 56.44 16.19 C 55.49 15.25 54.54 14.31 53.60 13.37 C 46.39 20.55 39.23 27.77 32.00 34.93 C 24.80 27.75 17.63 20.55 10.42 13.38 C 9.48 14.32 8.53 15.26 7.58 16.20 M 7.58 30.20 C 15.73 38.34 23.86 46.48 32.00 54.62 C 40.16 46.49 48.30 38.35 56.44 30.19 C 55.49 29.25 54.54 28.31 53.60 27.37 C 46.38 34.54 39.24 41.78 32.00 48.93 C 24.80 41.75 17.63 34.55 10.42 27.38 C 9.48 28.32 8.53 29.26 7.58 30.20 Z" />
</g>
<g id="#000000ff">
<path fill="#000000" opacity="1.00" d=" M 7.58 16.20 C 8.53 15.26 9.48 14.32 10.42 13.38 C 17.63 20.55 24.80 27.75 32.00 34.93 C 39.23 27.77 46.39 20.55 53.60 13.37 C 54.54 14.31 55.49 15.25 56.44 16.19 C 48.31 24.35 40.16 32.49 32.00 40.62 C 23.86 32.48 15.73 24.33 7.58 16.20 Z" />
<path fill="#000000" opacity="1.00" d=" M 7.58 30.20 C 8.53 29.26 9.48 28.32 10.42 27.38 C 17.63 34.55 24.80 41.75 32.00 48.93 C 39.24 41.78 46.38 34.54 53.60 27.37 C 54.54 28.31 55.49 29.25 56.44 30.19 C 48.30 38.35 40.16 46.49 32.00 54.62 C 23.86 46.48 15.73 38.34 7.58 30.20 Z" />
</g>
</svg>
