<?xml version="1.0" encoding="UTF-8" ?>
<!DOCTYPE svg PUBLIC "-//W3C//DTD SVG 1.1//EN" "http://www.w3.org/Graphics/SVG/1.1/DTD/svg11.dtd">
<svg width="60pt" height="60pt" viewBox="0 0 60 60" version="1.1" xmlns="http://www.w3.org/2000/svg">
<g id="#ffffffff">
<path fill="#ffffff" opacity="1.00" d=" M 0.00 0.00 L 60.00 0.00 L 60.00 60.00 L 0.00 60.00 L 0.00 0.00 M 28.59 10.65 C 21.89 17.25 15.22 23.91 8.63 30.62 C 6.64 32.37 9.65 35.32 11.40 33.36 C 17.68 27.27 23.79 20.99 30.01 14.83 C 36.23 20.97 42.32 27.24 48.58 33.34 C 50.32 35.37 53.41 32.32 51.33 30.57 C 44.93 23.98 38.37 17.53 31.86 11.04 C 31.11 10.06 29.49 9.53 28.59 10.65 M 28.60 24.64 C 21.88 31.24 15.22 37.91 8.62 44.63 C 6.66 46.36 9.61 49.29 11.36 47.39 C 17.68 41.31 23.76 34.98 30.02 28.83 C 35.71 34.56 41.47 40.22 47.13 45.99 C 48.01 46.70 48.71 47.92 49.98 47.96 C 51.75 48.22 52.70 45.69 51.36 44.60 C 45.15 38.14 38.66 31.94 32.39 25.53 C 31.50 24.46 29.80 23.26 28.60 24.64 Z" />
</g>
<g id="#000000ff">
<path fill="#968176" opacity="1.00" d=" M 28.59 10.65 C 29.49 9.53 31.11 10.06 31.86 11.04 C 38.37 17.53 44.93 23.98 51.33 30.57 C 53.41 32.32 50.32 35.37 48.58 33.34 C 42.32 27.24 36.23 20.97 30.01 14.83 C 23.79 20.99 17.68 27.27 11.40 33.36 C 9.65 35.32 6.64 32.37 8.63 30.62 C 15.22 23.91 21.89 17.25 28.59 10.65 Z" />
<path fill="#968176" opacity="1.00" d=" M 28.60 24.64 C 29.80 23.26 31.50 24.46 32.39 25.53 C 38.66 31.94 45.15 38.14 51.36 44.60 C 52.70 45.69 51.75 48.22 49.98 47.96 C 48.71 47.92 48.01 46.70 47.13 45.99 C 41.47 40.22 35.71 34.56 30.02 28.83 C 23.76 34.98 17.68 41.31 11.36 47.39 C 9.61 49.29 6.66 46.36 8.62 44.63 C 15.22 37.91 21.88 31.24 28.60 24.64 Z" />
</g>
</svg>
