<?xml version="1.0" encoding="UTF-8" ?>
<!DOCTYPE svg PUBLIC "-//W3C//DTD SVG 1.1//EN" "http://www.w3.org/Graphics/SVG/1.1/DTD/svg11.dtd">
<svg width="60pt" height="60pt" viewBox="0 0 60 60" version="1.1" xmlns="http://www.w3.org/2000/svg">
<g id="#ffffffff">
<path fill="#ffffff" opacity="1.00" d=" M 0.00 0.00 L 60.00 0.00 L 60.00 60.00 L 0.00 60.00 L 0.00 0.00 M 24.46 6.66 C 18.56 8.09 13.24 11.83 9.93 16.93 C 5.75 23.24 4.84 31.61 7.63 38.66 C 10.67 46.69 18.34 52.74 26.87 53.77 C 33.69 54.71 40.87 52.50 45.97 47.87 C 51.52 42.96 54.59 35.37 53.89 27.97 C 53.35 20.92 49.43 14.26 43.62 10.25 C 38.13 6.41 30.98 5.11 24.46 6.66 Z" />
<path fill="#ffffff" opacity="1.00" d=" M 28.49 10.06 C 29.49 10.06 30.50 10.06 31.50 10.06 C 32.60 11.97 34.56 12.39 36.26 10.99 C 39.27 12.05 41.90 13.83 44.32 15.87 C 41.97 18.22 39.63 20.57 37.28 22.92 C 33.27 19.29 27.07 19.13 22.96 22.70 C 20.18 20.82 17.43 18.90 14.67 17.00 C 17.25 14.39 20.24 12.20 23.74 11.00 C 25.45 12.45 27.36 11.92 28.49 10.06 M 21.15 14.10 C 18.88 15.22 20.40 18.86 22.82 17.89 C 25.14 16.80 23.58 13.12 21.15 14.10 M 29.16 14.18 C 26.80 15.19 28.47 18.91 30.84 17.88 C 33.17 16.80 31.54 13.05 29.16 14.18 M 37.16 14.13 C 34.83 15.24 36.45 18.88 38.86 17.89 C 41.13 16.73 39.55 13.12 37.16 14.13 Z" />
<path fill="#ffffff" opacity="1.00" d=" M 12.34 20.29 C 15.13 22.17 17.90 24.06 20.64 26.01 C 19.18 30.47 20.44 35.89 24.64 38.39 C 28.56 41.12 33.80 40.01 37.28 37.08 C 39.64 39.42 41.98 41.77 44.33 44.13 C 39.92 48.15 33.97 50.63 27.94 49.88 C 18.79 49.12 10.90 41.27 10.13 32.12 C 9.56 28.02 10.77 24.02 12.34 20.29 Z" />
<path fill="#ffffff" opacity="1.00" d=" M 27.42 24.59 C 31.59 22.34 36.99 26.50 35.88 31.10 C 35.30 35.41 29.55 37.53 26.27 34.70 C 22.82 32.21 23.53 26.28 27.42 24.59 Z" />
</g>
<g id="#000000ff">
<path fill="#000000" opacity="1.00" d=" M 24.46 6.66 C 30.98 5.11 38.13 6.41 43.62 10.25 C 49.43 14.26 53.35 20.92 53.89 27.97 C 54.59 35.37 51.52 42.96 45.97 47.87 C 40.87 52.50 33.69 54.71 26.87 53.77 C 18.34 52.74 10.67 46.69 7.63 38.66 C 4.84 31.61 5.75 23.24 9.93 16.93 C 13.24 11.83 18.56 8.09 24.46 6.66 M 28.49 10.06 C 27.36 11.92 25.45 12.45 23.74 11.00 C 20.24 12.20 17.25 14.39 14.67 17.00 C 17.43 18.90 20.18 20.82 22.96 22.70 C 27.07 19.13 33.27 19.29 37.28 22.92 C 39.63 20.57 41.97 18.22 44.32 15.87 C 41.90 13.83 39.27 12.05 36.26 10.99 C 34.56 12.39 32.60 11.97 31.50 10.06 C 30.50 10.06 29.49 10.06 28.49 10.06 M 12.34 20.29 C 10.77 24.02 9.56 28.02 10.13 32.12 C 10.90 41.27 18.79 49.12 27.94 49.88 C 33.97 50.63 39.92 48.15 44.33 44.13 C 41.98 41.77 39.64 39.42 37.28 37.08 C 33.80 40.01 28.56 41.12 24.64 38.39 C 20.44 35.89 19.18 30.47 20.64 26.01 C 17.90 24.06 15.13 22.17 12.34 20.29 M 27.42 24.59 C 23.53 26.28 22.82 32.21 26.27 34.70 C 29.55 37.53 35.30 35.41 35.88 31.10 C 36.99 26.50 31.59 22.34 27.42 24.59 Z" />
<path fill="#000000" opacity="1.00" d=" M 21.15 14.10 C 23.58 13.12 25.14 16.80 22.82 17.89 C 20.40 18.86 18.88 15.22 21.15 14.10 Z" />
<path fill="#000000" opacity="1.00" d=" M 29.16 14.18 C 31.54 13.05 33.17 16.80 30.84 17.88 C 28.47 18.91 26.80 15.19 29.16 14.18 Z" />
<path fill="#000000" opacity="1.00" d=" M 37.16 14.13 C 39.55 13.12 41.13 16.73 38.86 17.89 C 36.45 18.88 34.83 15.24 37.16 14.13 Z" />
</g>
</svg>
