<?xml version="1.0" encoding="UTF-8" ?>
<!DOCTYPE svg PUBLIC "-//W3C//DTD SVG 1.1//EN" "http://www.w3.org/Graphics/SVG/1.1/DTD/svg11.dtd">
<svg width="60pt" height="60pt" viewBox="0 0 60 60" version="1.1" xmlns="http://www.w3.org/2000/svg">
<g id="#ffffffff">
<path fill="#ffffff" opacity="1.00" d=" M 0.00 0.00 L 60.00 0.00 L 60.00 60.00 L 0.00 60.00 L 0.00 0.00 M 4.00 16.00 C 13.57 16.00 23.13 15.99 32.70 16.01 C 32.44 14.01 32.17 12.00 31.91 10.00 C 28.77 10.01 25.63 10.00 22.50 9.98 C 21.32 8.41 20.33 6.00 18.00 6.08 C 14.32 5.93 10.62 5.85 6.96 6.16 C 2.75 7.49 4.23 12.69 4.00 16.00 M 35.87 10.02 C 35.91 20.76 45.25 30.06 55.98 30.13 C 55.99 28.80 56.00 27.47 56.01 26.14 C 47.39 26.01 39.95 18.63 39.85 10.00 C 38.53 10.00 37.20 10.01 35.87 10.02 M 43.85 10.03 C 44.12 16.49 49.52 21.88 55.98 22.14 C 55.99 20.83 56.00 19.51 56.00 18.20 C 51.63 17.82 48.16 14.38 47.80 10.00 C 46.49 10.00 45.17 10.01 43.85 10.03 M 51.71 10.04 C 52.29 12.18 53.87 13.65 55.96 14.29 C 55.98 12.86 56.00 11.42 56.02 9.99 C 54.58 10.00 53.15 10.02 51.71 10.04 M 5.12 20.18 C 4.88 20.43 4.41 20.92 4.17 21.17 C 3.80 29.47 4.03 37.80 4.05 46.10 C 3.94 48.64 6.58 50.31 8.91 50.00 C 22.96 50.00 37.00 50.00 51.05 50.00 C 53.10 50.23 55.38 49.10 55.84 46.96 C 56.24 42.68 55.89 38.37 56.00 34.07 C 46.79 33.93 38.06 28.37 34.15 20.01 C 24.48 20.12 14.78 19.76 5.12 20.18 Z" />
<path fill="#ffffff" opacity="1.00" d=" M 28.18 29.11 C 28.90 27.64 31.11 27.65 31.82 29.13 C 32.21 32.45 31.96 35.81 31.98 39.14 C 33.45 37.99 34.60 35.65 36.79 36.09 C 38.02 36.67 38.42 38.40 37.39 39.35 C 35.31 41.64 33.16 43.89 30.76 45.85 C 30.38 45.85 29.62 45.85 29.24 45.85 C 26.86 43.88 24.73 41.61 22.62 39.36 C 21.59 38.41 21.98 36.74 23.16 36.10 C 25.37 35.60 26.54 37.98 28.02 39.14 C 28.04 35.80 27.79 32.44 28.18 29.11 Z" />
</g>
<g id="#000000ff">
<path fill="#000000" opacity="1.00" d=" M 4.00 16.00 C 4.23 12.69 2.75 7.49 6.96 6.16 C 10.62 5.85 14.32 5.93 18.00 6.08 C 20.33 6.00 21.32 8.41 22.50 9.98 C 25.63 10.00 28.77 10.01 31.91 10.00 C 32.17 12.00 32.44 14.01 32.70 16.01 C 23.13 15.99 13.57 16.00 4.00 16.00 Z" />
<path fill="#000000" opacity="1.00" d=" M 35.87 10.02 C 37.20 10.01 38.53 10.00 39.85 10.00 C 39.95 18.63 47.39 26.01 56.01 26.14 C 56.00 27.47 55.99 28.80 55.98 30.13 C 45.25 30.06 35.91 20.76 35.87 10.02 Z" />
<path fill="#000000" opacity="1.00" d=" M 43.85 10.03 C 45.17 10.01 46.49 10.00 47.80 10.00 C 48.16 14.38 51.63 17.82 56.00 18.20 C 56.00 19.51 55.99 20.83 55.98 22.14 C 49.52 21.88 44.12 16.49 43.85 10.03 Z" />
<path fill="#000000" opacity="1.00" d=" M 51.71 10.04 C 53.15 10.02 54.58 10.00 56.02 9.99 C 56.00 11.42 55.98 12.86 55.96 14.29 C 53.87 13.65 52.29 12.18 51.71 10.04 Z" />
<path fill="#000000" opacity="1.00" d=" M 5.12 20.18 C 14.78 19.76 24.48 20.12 34.15 20.01 C 38.06 28.37 46.79 33.93 56.00 34.07 C 55.89 38.37 56.24 42.68 55.84 46.96 C 55.38 49.10 53.10 50.23 51.05 50.00 C 37.00 50.00 22.96 50.00 8.91 50.00 C 6.58 50.31 3.94 48.64 4.05 46.10 C 4.03 37.80 3.80 29.47 4.17 21.17 C 4.41 20.92 4.88 20.43 5.12 20.18 M 28.18 29.11 C 27.79 32.44 28.04 35.80 28.02 39.14 C 26.54 37.98 25.37 35.60 23.16 36.10 C 21.98 36.74 21.59 38.41 22.62 39.36 C 24.73 41.61 26.86 43.88 29.24 45.85 C 29.62 45.85 30.38 45.85 30.76 45.85 C 33.16 43.89 35.31 41.64 37.39 39.35 C 38.42 38.40 38.02 36.67 36.79 36.09 C 34.60 35.65 33.45 37.99 31.98 39.14 C 31.96 35.81 32.21 32.45 31.82 29.13 C 31.11 27.65 28.90 27.64 28.18 29.11 Z" />
</g>
</svg>
