<?xml version="1.0" encoding="UTF-8" ?>
<!DOCTYPE svg PUBLIC "-//W3C//DTD SVG 1.1//EN" "http://www.w3.org/Graphics/SVG/1.1/DTD/svg11.dtd">
<svg width="60pt" height="60pt" viewBox="0 0 60 60" version="1.1" xmlns="http://www.w3.org/2000/svg">
<g id="#ffffffff">
<path fill="#ffffff" opacity="1.00" d=" M 0.00 0.00 L 60.00 0.00 L 60.00 60.00 L 0.00 60.00 L 0.00 0.00 M 24.11 7.86 C 24.01 17.88 24.10 27.91 24.07 37.94 C 21.07 37.98 18.06 37.76 15.07 38.09 C 13.83 38.65 13.48 40.51 14.61 41.38 C 19.22 46.08 23.89 50.74 28.59 55.36 C 29.54 56.58 31.24 56.01 32.03 54.93 C 36.52 50.44 41.07 46.01 45.47 41.44 C 46.72 40.55 46.29 38.61 44.97 38.05 C 42.02 37.79 39.04 37.97 36.07 37.94 C 36.04 27.94 36.13 17.93 36.04 7.93 C 36.14 4.78 32.70 3.41 30.02 3.89 C 27.41 3.44 24.04 4.82 24.11 7.86 Z" />
</g>
<g id="#000000ff">
<path fill="#000000" opacity="1.00" d=" M 24.11 7.86 C 24.04 4.82 27.41 3.44 30.02 3.89 C 32.70 3.41 36.14 4.78 36.04 7.93 C 36.13 17.93 36.04 27.94 36.07 37.94 C 39.04 37.97 42.02 37.79 44.97 38.05 C 46.29 38.61 46.72 40.55 45.47 41.44 C 41.07 46.01 36.52 50.44 32.03 54.93 C 31.24 56.01 29.54 56.58 28.59 55.36 C 23.89 50.74 19.22 46.08 14.61 41.38 C 13.48 40.51 13.83 38.65 15.07 38.09 C 18.06 37.76 21.07 37.98 24.07 37.94 C 24.10 27.91 24.01 17.88 24.11 7.86 Z" />
</g>
</svg>
