<?xml version="1.0" encoding="UTF-8" ?>
<!DOCTYPE svg PUBLIC "-//W3C//DTD SVG 1.1//EN" "http://www.w3.org/Graphics/SVG/1.1/DTD/svg11.dtd">
<svg width="64pt" height="64pt" viewBox="0 0 64 64" version="1.1" xmlns="http://www.w3.org/2000/svg">
<g id="#ffffffff">
<path fill="#ffffff" opacity="1.00" d=" M 0.00 0.00 L 64.00 0.00 L 64.00 64.00 L 0.00 64.00 L 0.00 0.00 M 18.84 19.91 C 14.18 19.66 10.20 23.29 9.84 27.89 C 8.10 29.44 6.16 30.89 5.17 33.07 C 2.34 38.52 4.93 45.85 10.38 48.56 C 13.28 50.23 16.74 49.98 19.96 50.02 C 29.70 49.88 39.45 50.19 49.18 49.87 C 55.93 49.51 61.16 42.46 59.78 35.89 C 58.95 30.50 54.05 26.63 48.79 26.03 C 46.39 19.88 40.83 14.83 34.11 14.16 C 28.37 13.23 22.85 16.00 18.84 19.91 Z" />
<path fill="#ffffff" opacity="1.00" d=" M 19.99 24.49 C 23.23 20.12 28.62 17.08 34.19 18.20 C 40.22 18.96 44.69 24.16 45.92 29.89 C 48.19 30.09 50.67 29.95 52.60 31.39 C 56.85 34.16 57.11 41.03 53.17 44.17 C 50.64 46.38 47.12 45.98 44.02 46.02 C 34.34 45.88 24.65 46.19 14.98 45.88 C 9.77 45.60 6.52 39.43 8.61 34.81 C 9.46 32.40 11.78 31.18 13.88 30.02 C 14.11 28.13 13.79 25.66 15.77 24.58 C 17.05 23.66 18.62 24.19 19.99 24.49 M 30.00 24.00 C 30.01 27.72 30.00 31.45 29.99 35.17 C 29.13 34.30 28.27 33.44 27.41 32.58 C 26.49 33.55 25.55 34.49 24.57 35.41 C 27.06 37.87 29.53 40.35 32.00 42.83 C 34.47 40.36 36.95 37.89 39.42 35.41 C 38.47 34.47 37.53 33.53 36.59 32.59 C 35.73 33.45 34.87 34.31 34.00 35.16 C 34.00 31.44 33.99 27.72 34.00 24.00 C 32.67 24.01 31.33 24.01 30.00 24.00 Z" />
</g>
<g id="#000000ff">
<path fill="#000000" opacity="1.00" d=" M 18.84 19.91 C 22.85 16.00 28.37 13.23 34.11 14.16 C 40.83 14.83 46.39 19.88 48.79 26.03 C 54.05 26.63 58.95 30.50 59.78 35.89 C 61.16 42.46 55.93 49.51 49.18 49.87 C 39.45 50.19 29.70 49.88 19.96 50.02 C 16.74 49.98 13.28 50.23 10.38 48.56 C 4.93 45.85 2.34 38.52 5.17 33.07 C 6.16 30.89 8.10 29.44 9.84 27.89 C 10.20 23.29 14.18 19.66 18.84 19.91 M 19.99 24.49 C 18.62 24.19 17.05 23.66 15.77 24.58 C 13.79 25.66 14.11 28.13 13.88 30.02 C 11.78 31.18 9.46 32.40 8.61 34.81 C 6.52 39.43 9.77 45.60 14.98 45.88 C 24.65 46.19 34.34 45.88 44.02 46.02 C 47.12 45.98 50.64 46.38 53.17 44.17 C 57.11 41.03 56.85 34.16 52.60 31.39 C 50.67 29.95 48.19 30.09 45.92 29.89 C 44.69 24.16 40.22 18.96 34.19 18.20 C 28.62 17.08 23.23 20.12 19.99 24.49 Z" />
<path fill="#000000" opacity="1.00" d=" M 30.00 24.00 C 31.33 24.01 32.67 24.01 34.00 24.00 C 33.99 27.72 34.00 31.44 34.00 35.16 C 34.87 34.31 35.73 33.45 36.59 32.59 C 37.53 33.53 38.47 34.47 39.42 35.41 C 36.95 37.89 34.47 40.36 32.00 42.83 C 29.53 40.35 27.06 37.87 24.57 35.41 C 25.55 34.49 26.49 33.55 27.41 32.58 C 28.27 33.44 29.13 34.30 29.99 35.17 C 30.00 31.45 30.01 27.72 30.00 24.00 Z" />
</g>
</svg>
