<?xml version="1.0" encoding="UTF-8" ?>
<!DOCTYPE svg PUBLIC "-//W3C//DTD SVG 1.1//EN" "http://www.w3.org/Graphics/SVG/1.1/DTD/svg11.dtd">
<svg width="64pt" height="64pt" viewBox="0 0 64 64" version="1.1" xmlns="http://www.w3.org/2000/svg">
<g id="#ffffffff">
<path fill="#ffffff" opacity="1.00" d=" M 0.00 0.00 L 64.00 0.00 L 64.00 64.00 L 0.00 64.00 L 0.00 0.00 M 9.52 12.00 C 17.02 20.32 24.53 28.64 32.00 36.99 C 39.50 28.66 46.98 20.31 54.51 12.00 C 39.51 12.00 24.52 12.00 9.52 12.00 M 4.00 42.00 C 4.00 45.33 4.00 48.67 4.00 52.00 C 22.67 52.00 41.33 52.00 60.00 52.00 C 60.00 48.67 60.00 45.33 60.00 42.00 C 58.67 42.00 57.33 42.00 56.00 42.00 C 56.00 44.00 56.00 46.00 56.00 48.00 C 40.00 48.00 24.00 48.00 8.00 48.00 C 8.00 46.00 8.00 44.00 8.00 42.00 C 6.67 42.00 5.33 42.00 4.00 42.00 Z" />
<path fill="#ffffff" opacity="1.00" d=" M 18.52 16.00 C 27.52 16.00 36.51 16.00 45.51 16.00 C 41.00 20.99 36.52 26.01 32.00 31.00 C 27.52 25.98 23.01 21.00 18.52 16.00 Z" />
</g>
<g id="#000000ff">
<path fill="#000000" opacity="1.00" d=" M 9.52 12.00 C 24.52 12.00 39.51 12.00 54.51 12.00 C 46.98 20.31 39.50 28.66 32.00 36.99 C 24.53 28.64 17.02 20.32 9.52 12.00 M 18.52 16.00 C 23.01 21.00 27.52 25.98 32.00 31.00 C 36.52 26.01 41.00 20.99 45.51 16.00 C 36.51 16.00 27.52 16.00 18.52 16.00 Z" />
<path fill="#000000" opacity="1.00" d=" M 4.00 42.00 C 5.33 42.00 6.67 42.00 8.00 42.00 C 8.00 44.00 8.00 46.00 8.00 48.00 C 24.00 48.00 40.00 48.00 56.00 48.00 C 56.00 46.00 56.00 44.00 56.00 42.00 C 57.33 42.00 58.67 42.00 60.00 42.00 C 60.00 45.33 60.00 48.67 60.00 52.00 C 41.33 52.00 22.67 52.00 4.00 52.00 C 4.00 48.67 4.00 45.33 4.00 42.00 Z" />
</g>
</svg>
