<?xml version="1.0" encoding="UTF-8" ?>
<!DOCTYPE svg PUBLIC "-//W3C//DTD SVG 1.1//EN" "http://www.w3.org/Graphics/SVG/1.1/DTD/svg11.dtd">
<svg width="60pt" height="60pt" viewBox="0 0 60 60" version="1.1" xmlns="http://www.w3.org/2000/svg">
<g id="#ffffffff">
<path fill="#ffffff" opacity="1.00" d=" M 0.00 0.00 L 60.00 0.00 L 60.00 60.00 L 0.00 60.00 L 0.00 0.00 M 4.00 10.96 C 4.04 22.68 3.93 34.40 4.05 46.12 C 3.96 48.63 6.56 50.31 8.88 50.00 C 22.93 50.01 36.99 50.00 51.04 50.00 C 53.41 50.35 56.02 48.60 55.95 46.07 C 56.07 35.70 55.97 25.32 56.00 14.95 C 56.32 12.61 54.66 9.94 52.11 10.05 C 42.23 9.89 32.34 10.09 22.45 9.96 C 21.33 8.42 20.38 6.08 18.13 6.09 C 14.73 5.89 11.32 5.95 7.92 6.05 C 5.39 5.98 3.64 8.60 4.00 10.96 Z" />
<path fill="#ffffff" opacity="1.00" d=" M 28.07 19.96 C 27.86 17.90 31.01 17.29 31.81 19.11 C 32.27 24.45 31.86 29.83 32.01 35.18 C 33.71 33.49 35.29 31.66 37.20 30.18 C 39.09 29.18 41.02 31.97 39.38 33.36 C 36.61 36.27 33.85 39.22 30.79 41.83 C 30.39 41.83 29.59 41.83 29.20 41.83 C 26.16 39.19 23.40 36.24 20.61 33.35 C 19.04 31.95 20.84 29.22 22.77 30.16 C 24.68 31.63 26.26 33.47 27.98 35.15 C 28.09 30.09 27.85 25.02 28.07 19.96 Z" />
</g>
<g id="#000000ff">
<path fill="#000000" opacity="1.00" d=" M 4.00 10.96 C 3.64 8.60 5.39 5.98 7.92 6.05 C 11.32 5.95 14.73 5.89 18.13 6.09 C 20.38 6.08 21.33 8.42 22.45 9.96 C 32.34 10.09 42.23 9.89 52.11 10.05 C 54.66 9.94 56.32 12.61 56.00 14.95 C 55.97 25.32 56.07 35.70 55.95 46.07 C 56.02 48.60 53.41 50.35 51.04 50.00 C 36.99 50.00 22.93 50.01 8.88 50.00 C 6.56 50.31 3.96 48.63 4.05 46.12 C 3.93 34.40 4.04 22.68 4.00 10.96 M 28.07 19.96 C 27.85 25.02 28.09 30.09 27.98 35.15 C 26.26 33.47 24.68 31.63 22.77 30.16 C 20.84 29.22 19.04 31.95 20.61 33.35 C 23.40 36.24 26.16 39.19 29.20 41.83 C 29.59 41.83 30.39 41.83 30.79 41.83 C 33.85 39.22 36.61 36.27 39.38 33.36 C 41.02 31.97 39.09 29.18 37.20 30.18 C 35.29 31.66 33.71 33.49 32.01 35.18 C 31.86 29.83 32.27 24.45 31.81 19.11 C 31.01 17.29 27.86 17.90 28.07 19.96 Z" />
</g>
</svg>
