<?xml version="1.0" encoding="UTF-8" ?>
<!DOCTYPE svg PUBLIC "-//W3C//DTD SVG 1.1//EN" "http://www.w3.org/Graphics/SVG/1.1/DTD/svg11.dtd">
<svg width="60pt" height="60pt" viewBox="0 0 60 60" version="1.1" xmlns="http://www.w3.org/2000/svg">
<g id="#ffffffff">
<path fill="#ffffff" opacity="1.00" d=" M 0.00 0.00 L 60.00 0.00 L 60.00 60.00 L 0.00 60.00 L 0.00 0.00 M 29.12 4.07 C 27.32 5.61 28.17 8.24 27.91 10.30 C 24.63 11.82 23.17 15.55 24.57 18.90 C 22.02 24.64 19.23 30.28 16.61 35.99 C 14.11 36.01 11.60 35.84 9.12 36.18 C 7.65 36.90 7.66 39.06 9.10 39.81 C 10.95 40.10 12.83 39.99 14.70 40.05 C 13.22 43.40 11.36 46.59 10.13 50.04 C 9.31 51.82 11.18 53.00 12.05 54.25 C 14.09 51.95 14.61 48.84 16.17 46.25 C 20.57 38.22 24.56 29.95 29.08 21.99 C 29.54 21.99 30.46 21.99 30.92 21.99 C 33.64 26.53 35.86 31.36 38.41 36.00 C 36.33 36.00 34.25 36.00 32.17 36.00 C 31.93 34.58 32.14 31.83 29.99 32.04 C 27.87 31.83 28.06 34.55 27.86 35.95 C 27.25 35.99 26.04 36.08 25.43 36.12 C 24.81 37.42 24.17 38.72 23.51 40.00 C 24.95 40.00 26.39 40.00 27.82 40.00 C 28.09 41.51 27.87 43.92 30.00 44.06 C 32.13 43.92 31.90 41.50 32.18 39.99 C 34.97 40.00 37.75 40.00 40.54 40.02 C 43.27 44.63 45.10 49.74 47.93 54.25 C 49.27 52.93 50.84 51.20 49.61 49.25 C 44.97 39.09 40.03 29.07 35.43 18.90 C 36.86 15.55 35.29 12.15 32.36 10.29 C 31.47 8.24 33.07 3.21 29.12 4.07 M 47.41 35.95 C 48.04 37.34 48.68 38.72 49.31 40.10 C 50.48 40.06 51.64 39.96 52.79 39.80 C 54.37 39.20 54.34 36.93 52.90 36.18 C 51.08 35.92 49.24 36.00 47.41 35.95 Z" />
<path fill="#ffffff" opacity="1.00" d=" M 29.15 14.11 C 31.55 13.13 33.19 16.80 30.81 17.89 C 28.42 18.85 26.86 15.25 29.15 14.11 Z" />
</g>
<g id="#000000ff">
<path fill="#000000" opacity="1.00" d=" M 29.12 4.07 C 33.07 3.21 31.47 8.24 32.36 10.29 C 35.29 12.15 36.86 15.55 35.43 18.90 C 40.03 29.07 44.97 39.09 49.61 49.25 C 50.84 51.20 49.27 52.93 47.93 54.25 C 45.10 49.74 43.27 44.63 40.54 40.02 C 37.75 40.00 34.97 40.00 32.18 39.99 C 31.90 41.50 32.13 43.92 30.00 44.06 C 27.87 43.92 28.09 41.51 27.82 40.00 C 26.39 40.00 24.95 40.00 23.51 40.00 C 24.17 38.72 24.81 37.42 25.43 36.12 C 26.04 36.08 27.25 35.99 27.86 35.95 C 28.06 34.55 27.87 31.83 29.99 32.04 C 32.14 31.83 31.93 34.58 32.17 36.00 C 34.25 36.00 36.33 36.00 38.41 36.00 C 35.86 31.36 33.64 26.53 30.92 21.99 C 30.46 21.99 29.54 21.99 29.08 21.99 C 24.56 29.95 20.57 38.22 16.17 46.25 C 14.61 48.84 14.09 51.95 12.05 54.25 C 11.18 53.00 9.31 51.82 10.13 50.04 C 11.36 46.59 13.22 43.40 14.70 40.05 C 12.83 39.99 10.95 40.10 9.10 39.81 C 7.66 39.06 7.65 36.90 9.12 36.18 C 11.60 35.84 14.11 36.01 16.61 35.99 C 19.23 30.28 22.02 24.64 24.57 18.90 C 23.17 15.55 24.63 11.82 27.91 10.30 C 28.17 8.24 27.32 5.61 29.12 4.07 M 29.15 14.11 C 26.86 15.25 28.42 18.85 30.81 17.89 C 33.19 16.80 31.55 13.13 29.15 14.11 Z" />
<path fill="#000000" opacity="1.00" d=" M 47.41 35.95 C 49.24 36.00 51.08 35.92 52.90 36.18 C 54.34 36.93 54.37 39.20 52.79 39.80 C 51.64 39.96 50.48 40.06 49.31 40.10 C 48.68 38.72 48.04 37.34 47.41 35.95 Z" />
</g>
</svg>
