<?xml version="1.0" encoding="UTF-8" ?>
<!DOCTYPE svg PUBLIC "-//W3C//DTD SVG 1.1//EN" "http://www.w3.org/Graphics/SVG/1.1/DTD/svg11.dtd">
<svg width="60pt" height="60pt" viewBox="0 0 60 60" version="1.1" xmlns="http://www.w3.org/2000/svg">
<g id="#ffffffff">
<path fill="#ffffff" opacity="1.00" d=" M 0.00 0.00 L 33.22 0.00 C 27.55 7.94 16.87 10.76 12.53 19.85 C 11.45 17.60 8.79 15.94 7.21 18.76 C 10.24 23.03 9.91 28.39 10.14 33.36 C 8.30 33.01 5.52 31.32 4.66 34.00 C 4.58 35.84 6.64 36.28 7.84 37.13 C 11.48 38.96 12.12 43.49 14.64 46.39 C 20.33 54.17 32.04 56.27 40.19 51.24 C 43.62 49.45 45.53 45.66 49.16 44.22 C 50.25 43.54 51.98 43.48 52.41 42.04 C 52.77 39.89 50.47 39.88 49.02 39.61 C 50.56 34.18 48.71 27.93 52.08 23.07 C 52.90 21.65 54.64 19.66 52.73 18.29 C 50.67 17.39 49.72 19.69 48.51 20.87 C 46.02 15.00 40.21 12.07 35.42 8.42 C 32.44 6.09 37.30 2.67 35.08 0.00 L 60.00 0.00 L 60.00 60.00 L 0.00 60.00 L 0.00 0.00 Z" />
<path fill="#ffffff" opacity="1.00" d=" M 25.42 14.57 C 34.61 11.30 45.04 18.37 45.93 27.91 C 46.03 32.65 45.88 37.63 43.85 42.00 C 40.66 47.89 33.41 51.11 26.88 49.67 C 21.05 48.80 16.54 43.92 14.84 38.46 C 14.05 34.39 13.67 30.12 14.59 26.03 C 16.03 20.76 20.14 16.18 25.42 14.57 M 23.15 18.15 C 21.99 18.69 21.54 20.49 22.58 21.35 C 23.54 22.72 26.18 21.75 25.95 20.05 C 26.19 18.60 24.40 17.58 23.15 18.15 M 33.15 18.14 C 30.79 19.16 32.50 23.02 34.84 21.80 C 37.22 20.82 35.51 17.06 33.15 18.14 M 39.12 22.11 C 36.88 23.22 38.45 26.93 40.80 25.82 C 43.22 24.82 41.50 21.04 39.12 22.11 M 27.15 24.21 C 24.79 25.21 26.51 28.95 28.87 27.87 C 31.18 26.81 29.47 22.95 27.15 24.21 M 19.17 26.11 C 16.84 27.22 18.43 30.90 20.88 29.89 C 23.10 28.70 21.57 25.14 19.17 26.11 M 35.10 28.17 C 32.84 29.30 34.49 32.90 36.85 31.87 C 39.17 30.77 37.51 27.01 35.10 28.17 M 27.13 32.11 C 24.89 33.27 26.42 36.87 28.84 35.88 C 31.14 34.76 29.56 31.11 27.13 32.11 M 41.13 32.13 C 38.85 33.25 40.48 36.94 42.85 35.84 C 45.17 34.78 43.52 31.06 41.13 32.13 M 19.21 34.11 C 16.82 35.11 18.40 38.92 20.83 37.85 C 23.14 36.81 21.58 33.14 19.21 34.11 M 35.14 36.18 C 32.80 37.18 34.47 40.94 36.81 39.84 C 39.21 38.87 37.50 34.98 35.14 36.18 M 25.13 40.11 C 22.91 41.24 24.39 44.85 26.79 43.89 C 29.18 42.81 27.54 39.09 25.13 40.11 M 33.21 42.10 C 30.80 43.06 32.46 47.01 34.80 45.80 C 37.19 44.89 35.56 41.11 33.21 42.10 Z" />
</g>
<g id="#000000ff">
<path fill="#000000" opacity="1.00" d=" M 33.22 0.00 L 35.08 0.00 C 37.30 2.67 32.44 6.09 35.42 8.42 C 40.21 12.07 46.02 15.00 48.51 20.87 C 49.72 19.69 50.67 17.39 52.73 18.29 C 54.64 19.66 52.90 21.65 52.08 23.07 C 48.71 27.93 50.56 34.18 49.02 39.61 C 50.47 39.88 52.77 39.89 52.41 42.04 C 51.98 43.48 50.25 43.54 49.16 44.22 C 45.53 45.66 43.62 49.45 40.19 51.24 C 32.04 56.27 20.33 54.17 14.64 46.39 C 12.12 43.49 11.48 38.96 7.84 37.13 C 6.64 36.28 4.58 35.84 4.66 34.00 C 5.52 31.32 8.30 33.01 10.14 33.36 C 9.91 28.39 10.24 23.03 7.21 18.76 C 8.79 15.94 11.45 17.60 12.53 19.85 C 16.87 10.76 27.55 7.94 33.22 0.00 M 25.42 14.57 C 20.14 16.18 16.03 20.76 14.59 26.03 C 13.67 30.12 14.05 34.39 14.84 38.46 C 16.54 43.92 21.05 48.80 26.88 49.67 C 33.41 51.11 40.66 47.89 43.85 42.00 C 45.88 37.63 46.03 32.65 45.93 27.91 C 45.04 18.37 34.61 11.30 25.42 14.57 Z" />
<path fill="#000000" opacity="1.00" d=" M 23.15 18.15 C 24.40 17.58 26.19 18.60 25.95 20.05 C 26.18 21.75 23.54 22.72 22.58 21.35 C 21.54 20.49 21.99 18.69 23.15 18.15 Z" />
<path fill="#000000" opacity="1.00" d=" M 33.15 18.14 C 35.51 17.06 37.22 20.82 34.84 21.80 C 32.50 23.02 30.79 19.16 33.15 18.14 Z" />
<path fill="#000000" opacity="1.00" d=" M 39.12 22.11 C 41.50 21.04 43.22 24.82 40.80 25.82 C 38.45 26.93 36.88 23.22 39.12 22.11 Z" />
<path fill="#000000" opacity="1.00" d=" M 27.15 24.21 C 29.47 22.95 31.18 26.81 28.87 27.87 C 26.51 28.95 24.79 25.21 27.15 24.21 Z" />
<path fill="#000000" opacity="1.00" d=" M 19.17 26.11 C 21.57 25.14 23.10 28.70 20.88 29.89 C 18.43 30.90 16.84 27.22 19.17 26.11 Z" />
<path fill="#000000" opacity="1.00" d=" M 35.10 28.17 C 37.51 27.01 39.17 30.77 36.85 31.87 C 34.49 32.90 32.84 29.30 35.10 28.17 Z" />
<path fill="#000000" opacity="1.00" d=" M 27.13 32.11 C 29.56 31.11 31.14 34.76 28.84 35.88 C 26.42 36.87 24.89 33.27 27.13 32.11 Z" />
<path fill="#000000" opacity="1.00" d=" M 41.13 32.13 C 43.52 31.06 45.17 34.78 42.85 35.84 C 40.48 36.94 38.85 33.25 41.13 32.13 Z" />
<path fill="#000000" opacity="1.00" d=" M 19.21 34.11 C 21.58 33.14 23.14 36.81 20.83 37.85 C 18.40 38.92 16.82 35.11 19.21 34.11 Z" />
<path fill="#000000" opacity="1.00" d=" M 35.14 36.18 C 37.50 34.98 39.21 38.87 36.81 39.84 C 34.47 40.94 32.80 37.18 35.14 36.18 Z" />
<path fill="#000000" opacity="1.00" d=" M 25.13 40.11 C 27.54 39.09 29.18 42.81 26.79 43.89 C 24.39 44.85 22.91 41.24 25.13 40.11 Z" />
<path fill="#000000" opacity="1.00" d=" M 33.21 42.10 C 35.56 41.11 37.19 44.89 34.80 45.80 C 32.46 47.01 30.80 43.06 33.21 42.10 Z" />
</g>
</svg>
