<?xml version="1.0" encoding="UTF-8" ?>
<!DOCTYPE svg PUBLIC "-//W3C//DTD SVG 1.1//EN" "http://www.w3.org/Graphics/SVG/1.1/DTD/svg11.dtd">
<svg width="64pt" height="64pt" viewBox="0 0 64 64" version="1.1" xmlns="http://www.w3.org/2000/svg">
<g id="#ffffffff">
<path fill="#ffffff" opacity="1.00" d=" M 0.00 0.00 L 64.00 0.00 L 64.00 64.00 L 0.00 64.00 L 0.00 0.00 M 10.04 10.26 C 9.98 19.52 9.96 28.78 10.04 38.04 C 10.11 41.92 13.01 44.94 15.86 47.21 C 20.79 50.92 26.33 53.77 32.00 56.18 C 37.71 53.80 43.24 50.89 48.19 47.17 C 51.00 44.91 53.85 41.92 53.96 38.10 C 54.05 28.83 54.00 19.55 53.98 10.28 C 47.37 9.15 40.69 8.33 33.99 8.08 C 25.94 7.83 17.97 9.14 10.04 10.26 Z" />
<path fill="#ffffff" opacity="1.00" d=" M 14.00 13.76 C 25.90 11.58 38.10 11.57 50.00 13.76 C 50.00 21.53 50.01 29.31 50.00 37.08 C 50.22 39.20 48.86 41.01 47.43 42.41 C 43.03 46.60 37.56 49.45 31.99 51.75 C 25.42 48.76 17.90 45.58 14.20 39.03 C 13.74 30.63 14.13 22.18 14.00 13.76 M 19.12 26.18 C 19.71 27.39 20.29 28.59 20.87 29.80 C 23.56 28.52 26.21 27.16 28.87 25.81 C 28.29 24.60 27.71 23.40 27.13 22.19 C 24.47 23.54 21.81 24.88 19.12 26.18 M 35.12 25.82 C 37.80 27.12 40.47 28.45 43.12 29.81 C 43.70 28.61 44.29 27.40 44.87 26.19 C 42.22 24.83 39.56 23.48 36.87 22.20 C 36.29 23.40 35.70 24.61 35.12 25.82 M 22.40 38.69 C 23.42 39.52 24.44 40.36 25.46 41.19 C 27.32 39.62 29.40 37.97 31.98 38.00 C 34.55 37.97 36.68 39.59 38.51 41.20 C 39.55 40.36 40.58 39.52 41.61 38.68 C 39.32 36.36 36.47 34.36 33.12 34.09 C 28.99 33.56 25.14 35.78 22.40 38.69 Z" />
</g>
<g id="#000000ff">
<path fill="#000000" opacity="1.00" d=" M 10.04 10.26 C 17.97 9.14 25.94 7.83 33.99 8.08 C 40.69 8.33 47.37 9.15 53.98 10.28 C 54.00 19.55 54.05 28.83 53.96 38.10 C 53.85 41.92 51.00 44.91 48.19 47.17 C 43.24 50.89 37.71 53.80 32.00 56.18 C 26.33 53.77 20.79 50.92 15.86 47.21 C 13.01 44.94 10.11 41.92 10.04 38.04 C 9.96 28.78 9.98 19.52 10.04 10.26 M 14.00 13.76 C 14.13 22.18 13.74 30.63 14.20 39.03 C 17.90 45.58 25.42 48.76 31.99 51.75 C 37.56 49.45 43.03 46.60 47.43 42.41 C 48.86 41.01 50.22 39.20 50.00 37.08 C 50.01 29.31 50.00 21.53 50.00 13.76 C 38.10 11.57 25.90 11.58 14.00 13.76 Z" />
<path fill="#000000" opacity="1.00" d=" M 19.12 26.18 C 21.81 24.88 24.47 23.54 27.13 22.19 C 27.71 23.40 28.29 24.60 28.87 25.81 C 26.21 27.16 23.56 28.52 20.87 29.80 C 20.29 28.59 19.71 27.39 19.12 26.18 Z" />
<path fill="#000000" opacity="1.00" d=" M 35.12 25.82 C 35.70 24.61 36.29 23.40 36.87 22.20 C 39.56 23.48 42.22 24.83 44.87 26.19 C 44.29 27.40 43.70 28.61 43.12 29.81 C 40.47 28.45 37.80 27.12 35.12 25.82 Z" />
<path fill="#000000" opacity="1.00" d=" M 22.40 38.69 C 25.14 35.78 28.99 33.56 33.12 34.09 C 36.47 34.36 39.32 36.36 41.61 38.68 C 40.58 39.52 39.55 40.36 38.51 41.20 C 36.68 39.59 34.55 37.97 31.98 38.00 C 29.40 37.97 27.32 39.62 25.46 41.19 C 24.44 40.36 23.42 39.52 22.40 38.69 Z" />
</g>
</svg>
