<?xml version="1.0" encoding="UTF-8" ?>
<!DOCTYPE svg PUBLIC "-//W3C//DTD SVG 1.1//EN" "http://www.w3.org/Graphics/SVG/1.1/DTD/svg11.dtd">
<svg width="60pt" height="60pt" viewBox="0 0 60 60" version="1.1" xmlns="http://www.w3.org/2000/svg">
<g id="#ffffffff">
<path fill="#ffffff" opacity="1.00" d=" M 0.00 0.00 L 60.00 0.00 L 60.00 60.00 L 0.00 60.00 L 0.00 0.00 M 19.97 8.00 C 20.20 12.72 20.93 17.40 21.99 22.00 C 27.33 22.00 32.67 22.00 38.01 22.00 C 39.06 17.40 39.80 12.72 40.03 8.00 C 38.72 7.37 37.42 6.73 36.12 6.08 C 32.36 8.49 27.64 8.50 23.88 6.08 C 22.58 6.73 21.28 7.37 19.97 8.00 M 21.35 26.40 C 18.79 30.00 17.62 34.37 16.36 38.55 C 15.21 43.21 13.99 47.98 14.22 52.81 C 15.11 54.58 17.40 53.79 18.97 54.03 C 27.57 53.84 36.19 54.27 44.77 53.82 C 45.03 53.55 45.55 53.01 45.81 52.75 C 45.45 43.61 43.32 34.15 38.56 26.27 C 32.90 25.90 26.91 25.63 21.35 26.40 Z" />
</g>
<g id="#000000ff">
<path fill="#000000" opacity="1.00" d=" M 19.97 8.00 C 21.28 7.37 22.58 6.73 23.88 6.08 C 27.64 8.50 32.36 8.49 36.12 6.08 C 37.42 6.73 38.72 7.37 40.03 8.00 C 39.80 12.72 39.06 17.40 38.01 22.00 C 32.67 22.00 27.33 22.00 21.99 22.00 C 20.93 17.40 20.20 12.72 19.97 8.00 Z" />
<path fill="#000000" opacity="1.00" d=" M 21.35 26.40 C 26.91 25.63 32.90 25.90 38.56 26.27 C 43.32 34.15 45.45 43.61 45.81 52.75 C 45.55 53.01 45.03 53.55 44.77 53.82 C 36.19 54.27 27.57 53.84 18.97 54.03 C 17.40 53.79 15.11 54.58 14.22 52.81 C 13.99 47.98 15.21 43.21 16.36 38.55 C 17.62 34.37 18.79 30.00 21.35 26.40 Z" />
</g>
</svg>
