<?xml version="1.0" encoding="UTF-8" ?>
<!DOCTYPE svg PUBLIC "-//W3C//DTD SVG 1.1//EN" "http://www.w3.org/Graphics/SVG/1.1/DTD/svg11.dtd">
<svg width="60pt" height="60pt" viewBox="0 0 60 60" version="1.1" xmlns="http://www.w3.org/2000/svg">
<g id="#ffffffff">
<path fill="#ffffff" opacity="1.00" d=" M 0.00 0.00 L 60.00 0.00 L 60.00 60.00 L 0.00 60.00 L 0.00 0.00 M 21.24 11.16 C 18.17 8.86 13.47 10.40 12.33 14.05 C 11.62 17.99 12.16 22.02 12.00 26.00 C 13.33 26.00 14.66 26.00 16.00 26.00 C 16.08 22.37 15.78 18.72 16.17 15.10 C 16.88 13.64 19.13 13.65 19.83 15.12 C 20.22 18.73 19.92 22.37 20.00 26.00 C 21.33 26.00 22.67 26.00 24.00 26.00 C 24.25 21.83 23.39 17.49 24.57 13.43 C 26.42 8.93 33.61 8.94 35.43 13.46 C 36.60 17.51 35.75 21.84 36.00 26.00 C 37.33 26.00 38.67 26.00 40.00 26.00 C 40.08 22.36 39.77 18.70 40.18 15.07 C 40.93 13.66 43.12 13.65 43.82 15.11 C 44.24 18.73 43.91 22.37 44.00 26.00 C 45.33 26.00 46.67 26.00 48.00 26.00 C 47.84 22.04 48.38 18.01 47.67 14.09 C 46.55 10.40 41.83 8.87 38.73 11.15 C 36.60 7.99 33.02 5.52 29.04 6.06 C 25.72 6.26 23.10 8.58 21.24 11.16 M 8.17 31.11 C 7.84 37.42 7.95 43.76 8.10 50.07 C 7.87 52.15 11.16 52.72 11.82 50.80 C 12.19 47.88 11.98 44.93 11.99 42.00 C 24.00 42.00 36.00 42.00 48.01 42.00 C 48.02 44.94 47.82 47.89 48.18 50.82 C 48.86 52.70 52.09 52.16 51.89 50.09 C 52.10 44.07 52.06 38.03 51.91 32.01 C 52.16 30.42 50.34 29.84 49.10 30.02 C 36.75 29.95 24.39 30.04 12.03 29.98 C 10.71 30.15 8.93 29.64 8.17 31.11 Z" />
<path fill="#ffffff" opacity="1.00" d=" M 29.18 34.15 C 31.53 33.02 33.23 36.94 30.78 37.82 C 28.50 39.00 26.79 35.09 29.18 34.15 Z" />
</g>
<g id="#000000ff">
<path fill="#968176" opacity="1.00" d=" M 21.24 11.16 C 23.10 8.58 25.72 6.26 29.04 6.06 C 33.02 5.52 36.60 7.99 38.73 11.15 C 41.83 8.87 46.55 10.40 47.67 14.09 C 48.38 18.01 47.84 22.04 48.00 26.00 C 46.67 26.00 45.33 26.00 44.00 26.00 C 43.91 22.37 44.24 18.73 43.82 15.11 C 43.12 13.65 40.93 13.66 40.18 15.07 C 39.77 18.70 40.08 22.36 40.00 26.00 C 38.67 26.00 37.33 26.00 36.00 26.00 C 35.75 21.84 36.60 17.51 35.43 13.46 C 33.61 8.94 26.42 8.93 24.57 13.43 C 23.39 17.49 24.25 21.83 24.00 26.00 C 22.67 26.00 21.33 26.00 20.00 26.00 C 19.92 22.37 20.22 18.73 19.83 15.12 C 19.13 13.65 16.88 13.64 16.17 15.10 C 15.78 18.72 16.08 22.37 16.00 26.00 C 14.66 26.00 13.33 26.00 12.00 26.00 C 12.16 22.02 11.62 17.99 12.33 14.05 C 13.47 10.40 18.17 8.86 21.24 11.16 Z" />
<path fill="#968176" opacity="1.00" d=" M 8.17 31.11 C 8.93 29.64 10.71 30.15 12.03 29.98 C 24.39 30.04 36.75 29.95 49.10 30.02 C 50.34 29.84 52.16 30.42 51.91 32.01 C 52.06 38.03 52.10 44.07 51.89 50.09 C 52.09 52.16 48.86 52.70 48.18 50.82 C 47.82 47.89 48.02 44.94 48.01 42.00 C 36.00 42.00 24.00 42.00 11.99 42.00 C 11.98 44.93 12.19 47.88 11.82 50.80 C 11.16 52.72 7.87 52.15 8.10 50.07 C 7.95 43.76 7.84 37.42 8.17 31.11 M 29.18 34.15 C 26.79 35.09 28.50 39.00 30.78 37.82 C 33.23 36.94 31.53 33.02 29.18 34.15 Z" />
</g>
</svg>
