<?xml version="1.0" encoding="UTF-8" ?>
<!DOCTYPE svg PUBLIC "-//W3C//DTD SVG 1.1//EN" "http://www.w3.org/Graphics/SVG/1.1/DTD/svg11.dtd">
<svg width="64pt" height="64pt" viewBox="0 0 64 64" version="1.1" xmlns="http://www.w3.org/2000/svg">
<g id="#ffffffff">
<path fill="#ffffff" opacity="1.00" d=" M 0.00 0.00 L 64.00 0.00 L 64.00 64.00 L 0.00 64.00 L 0.00 0.00 M 20.00 5.97 C 19.90 11.70 19.97 17.46 21.16 23.08 C 21.39 25.05 22.29 27.15 21.38 29.07 C 17.54 38.19 15.82 48.12 15.98 58.00 C 26.66 58.00 37.34 58.00 48.02 58.00 C 48.30 47.60 46.03 37.32 42.22 27.70 C 43.28 20.52 44.45 13.29 44.00 5.97 C 39.82 5.38 36.04 7.49 32.00 7.91 C 27.96 7.50 24.18 5.38 20.00 5.97 Z" />
<path fill="#ffffff" opacity="1.00" d=" M 23.97 10.10 C 26.61 10.85 29.22 11.85 31.98 11.99 C 34.76 11.86 37.38 10.86 40.03 10.10 C 40.17 15.46 39.24 20.75 38.30 26.00 C 34.10 26.00 29.90 26.00 25.70 26.00 C 24.76 20.75 23.83 15.46 23.97 10.10 Z" />
<path fill="#ffffff" opacity="1.00" d=" M 25.30 30.01 C 29.77 30.00 34.24 30.00 38.71 30.00 C 41.84 37.61 43.47 45.79 43.79 54.00 C 35.93 54.00 28.07 54.00 20.20 54.00 C 20.52 45.79 22.14 37.61 25.30 30.01 Z" />
</g>
<g id="#000000ff">
<path fill="#000000" opacity="1.00" d=" M 20.00 5.97 C 24.18 5.38 27.96 7.50 32.00 7.91 C 36.04 7.49 39.82 5.38 44.00 5.97 C 44.45 13.29 43.28 20.52 42.22 27.70 C 46.03 37.32 48.30 47.60 48.02 58.00 C 37.34 58.00 26.66 58.00 15.98 58.00 C 15.82 48.12 17.54 38.19 21.38 29.07 C 22.29 27.15 21.39 25.05 21.16 23.08 C 19.97 17.46 19.90 11.70 20.00 5.97 M 23.97 10.10 C 23.83 15.46 24.76 20.75 25.70 26.00 C 29.90 26.00 34.10 26.00 38.30 26.00 C 39.24 20.75 40.17 15.46 40.03 10.10 C 37.38 10.86 34.76 11.86 31.98 11.99 C 29.22 11.85 26.61 10.85 23.97 10.10 M 25.30 30.01 C 22.14 37.61 20.52 45.79 20.20 54.00 C 28.07 54.00 35.93 54.00 43.79 54.00 C 43.47 45.79 41.84 37.61 38.71 30.00 C 34.24 30.00 29.77 30.00 25.30 30.01 Z" />
</g>
</svg>
