<?xml version="1.0" encoding="UTF-8" ?>
<!DOCTYPE svg PUBLIC "-//W3C//DTD SVG 1.1//EN" "http://www.w3.org/Graphics/SVG/1.1/DTD/svg11.dtd">
<svg width="64pt" height="64pt" viewBox="0 0 64 64" version="1.1" xmlns="http://www.w3.org/2000/svg">
<g id="#ffffffff">
<path fill="#ffffff" opacity="1.00" d=" M 0.00 0.00 L 64.00 0.00 L 64.00 64.00 L 0.00 64.00 L 0.00 0.00 M 26.47 8.65 C 19.60 10.26 13.57 15.06 10.48 21.40 C 7.20 27.95 7.20 36.02 10.48 42.58 C 13.78 49.38 20.47 54.39 27.93 55.63 C 35.23 56.93 43.10 54.60 48.44 49.44 C 58.41 40.56 58.40 23.40 48.42 14.54 C 42.72 9.03 34.15 6.79 26.47 8.65 Z" />
<path fill="#ffffff" opacity="1.00" d=" M 27.43 12.46 C 33.68 11.10 40.40 12.78 45.23 16.99 C 42.59 20.37 38.83 22.59 34.89 24.13 C 32.67 20.07 30.11 16.22 27.43 12.46 Z" />
<path fill="#ffffff" opacity="1.00" d=" M 12.40 27.76 C 13.75 21.74 17.91 16.49 23.50 13.86 C 26.21 17.53 28.79 21.31 30.98 25.31 C 24.90 26.81 18.67 27.67 12.40 27.76 Z" />
<path fill="#ffffff" opacity="1.00" d=" M 36.70 27.77 C 40.97 26.02 44.98 23.51 47.99 19.95 C 50.39 23.33 51.80 27.33 52.03 31.47 C 47.49 30.65 42.84 30.50 38.25 31.05 C 37.73 29.95 37.22 28.86 36.70 27.77 Z" />
<path fill="#ffffff" opacity="1.00" d=" M 11.95 31.77 C 18.98 31.69 26.01 30.77 32.81 28.95 C 33.26 29.89 33.72 30.84 34.18 31.78 C 27.00 33.95 21.23 39.17 16.83 45.08 C 13.73 41.36 11.98 36.62 11.95 31.77 Z" />
<path fill="#ffffff" opacity="1.00" d=" M 39.83 34.87 C 43.81 34.51 47.84 34.54 51.74 35.50 C 50.74 40.66 47.77 45.31 43.53 48.40 C 42.68 43.79 41.44 39.27 39.83 34.87 Z" />
<path fill="#ffffff" opacity="1.00" d=" M 19.81 47.88 C 23.86 42.45 29.10 37.49 35.75 35.54 C 37.62 40.36 39.03 45.36 39.83 50.48 C 33.27 53.14 25.46 52.16 19.81 47.88 Z" />
</g>
<g id="#000000ff">
<path fill="#000000" opacity="1.00" d=" M 26.47 8.65 C 34.15 6.79 42.72 9.03 48.42 14.54 C 58.40 23.40 58.41 40.56 48.44 49.44 C 43.10 54.60 35.23 56.93 27.93 55.63 C 20.47 54.39 13.78 49.38 10.48 42.58 C 7.20 36.02 7.20 27.95 10.48 21.40 C 13.57 15.06 19.60 10.26 26.47 8.65 M 27.43 12.46 C 30.11 16.22 32.67 20.07 34.89 24.13 C 38.83 22.59 42.59 20.37 45.23 16.99 C 40.40 12.78 33.68 11.10 27.43 12.46 M 12.40 27.76 C 18.67 27.67 24.90 26.81 30.98 25.31 C 28.79 21.31 26.21 17.53 23.50 13.86 C 17.91 16.49 13.75 21.74 12.40 27.76 M 36.70 27.77 C 37.22 28.86 37.73 29.95 38.25 31.05 C 42.84 30.50 47.49 30.65 52.03 31.47 C 51.80 27.33 50.39 23.33 47.99 19.95 C 44.98 23.51 40.97 26.02 36.70 27.77 M 11.95 31.77 C 11.98 36.62 13.73 41.36 16.83 45.08 C 21.23 39.17 27.00 33.95 34.18 31.78 C 33.72 30.84 33.26 29.89 32.81 28.95 C 26.01 30.77 18.98 31.69 11.95 31.77 M 39.83 34.87 C 41.44 39.27 42.68 43.79 43.53 48.40 C 47.77 45.31 50.74 40.66 51.74 35.50 C 47.84 34.54 43.81 34.51 39.83 34.87 M 19.81 47.88 C 25.46 52.16 33.27 53.14 39.83 50.48 C 39.03 45.36 37.62 40.36 35.75 35.54 C 29.10 37.49 23.86 42.45 19.81 47.88 Z" />
</g>
</svg>
