<?xml version="1.0" encoding="UTF-8" ?>
<!DOCTYPE svg PUBLIC "-//W3C//DTD SVG 1.1//EN" "http://www.w3.org/Graphics/SVG/1.1/DTD/svg11.dtd">
<svg width="60pt" height="60pt" viewBox="0 0 60 60" version="1.1" xmlns="http://www.w3.org/2000/svg">
<g id="#ffffffff">
<path fill="#ffffff" opacity="1.00" d=" M 0.00 0.00 L 60.00 0.00 L 60.00 60.00 L 0.00 60.00 L 0.00 0.00 M 4.05 15.93 C 3.94 19.99 3.94 24.05 4.05 28.10 C 3.96 31.22 6.76 34.02 9.88 33.94 C 15.27 34.05 20.68 34.05 26.08 33.95 C 28.38 34.08 29.54 31.87 30.30 30.07 C 32.11 29.71 34.69 30.72 35.83 28.83 C 36.14 24.28 36.14 19.68 35.82 15.14 C 34.65 13.29 32.11 14.29 30.30 13.93 C 29.52 12.16 28.46 9.88 26.13 10.06 C 20.73 9.94 15.31 9.95 9.90 10.05 C 6.76 9.96 3.94 12.79 4.05 15.93 M 40.00 16.00 C 40.00 20.00 40.00 24.00 40.00 28.00 C 41.99 28.00 43.99 28.00 45.99 28.01 C 47.33 26.67 48.66 25.33 50.01 24.00 C 52.55 23.55 57.18 25.41 58.04 21.99 C 57.18 18.60 52.58 20.44 50.04 20.00 C 48.70 18.68 47.37 17.33 46.03 16.00 C 44.02 16.01 42.01 16.00 40.00 16.00 M 10.00 38.00 C 10.11 42.28 9.77 46.58 10.16 50.86 C 12.28 53.03 16.04 51.80 18.81 51.82 C 20.82 51.02 19.66 48.87 18.85 47.64 C 19.36 45.83 19.95 44.05 20.58 42.28 C 23.13 42.30 24.44 40.45 24.17 38.00 C 19.44 38.00 14.72 38.00 10.00 38.00 Z" />
</g>
<g id="#000000ff">
<path fill="#000000" opacity="1.00" d=" M 4.05 15.93 C 3.94 12.79 6.76 9.96 9.90 10.05 C 15.31 9.95 20.73 9.94 26.13 10.06 C 28.46 9.88 29.52 12.16 30.30 13.93 C 32.11 14.29 34.65 13.29 35.82 15.14 C 36.14 19.68 36.14 24.28 35.83 28.83 C 34.69 30.72 32.11 29.71 30.30 30.07 C 29.54 31.87 28.38 34.08 26.08 33.95 C 20.68 34.05 15.27 34.05 9.88 33.94 C 6.76 34.02 3.96 31.22 4.05 28.10 C 3.94 24.05 3.94 19.99 4.05 15.93 Z" />
<path fill="#000000" opacity="1.00" d=" M 40.00 16.00 C 42.01 16.00 44.02 16.01 46.03 16.00 C 47.37 17.33 48.70 18.68 50.04 20.00 C 52.58 20.44 57.18 18.60 58.04 21.99 C 57.18 25.41 52.55 23.55 50.01 24.00 C 48.66 25.33 47.33 26.67 45.99 28.01 C 43.99 28.00 41.99 28.00 40.00 28.00 C 40.00 24.00 40.00 20.00 40.00 16.00 Z" />
<path fill="#000000" opacity="1.00" d=" M 10.00 38.00 C 14.72 38.00 19.44 38.00 24.17 38.00 C 24.44 40.45 23.13 42.30 20.58 42.28 C 19.95 44.05 19.36 45.83 18.85 47.64 C 19.66 48.87 20.82 51.02 18.81 51.82 C 16.04 51.80 12.28 53.03 10.16 50.86 C 9.77 46.58 10.11 42.28 10.00 38.00 Z" />
</g>
</svg>
