<?xml version="1.0" encoding="UTF-8" ?>
<!DOCTYPE svg PUBLIC "-//W3C//DTD SVG 1.1//EN" "http://www.w3.org/Graphics/SVG/1.1/DTD/svg11.dtd">
<svg width="60pt" height="60pt" viewBox="0 0 60 60" version="1.1" xmlns="http://www.w3.org/2000/svg">
<g id="#ffffffff">
<path fill="#ffffff" opacity="1.00" d=" M 0.00 0.00 L 60.00 0.00 L 60.00 60.00 L 0.00 60.00 L 0.00 0.00 M 15.45 10.57 C 11.49 12.23 10.81 18.22 14.31 20.72 C 17.62 23.57 23.38 21.33 23.90 17.00 C 24.91 12.46 19.57 8.38 15.45 10.57 M 45.18 20.11 C 42.93 22.76 41.74 26.18 40.21 29.28 C 39.17 31.08 42.02 33.04 43.38 31.42 C 45.13 28.41 46.78 25.29 48.00 22.02 C 47.99 20.53 46.55 19.65 45.18 20.11 M 6.00 21.71 C 6.00 23.24 6.00 24.76 5.99 26.29 C 7.96 27.40 9.89 28.55 11.83 29.70 C 12.02 28.64 12.40 26.52 12.60 25.47 C 10.40 24.20 8.21 22.94 6.00 21.71 M 16.45 30.87 C 18.46 35.21 20.65 39.48 22.90 43.71 L 22.08 44.18 C 23.38 44.12 24.67 44.05 25.97 43.97 L 24.35 43.97 C 25.92 40.56 27.47 37.13 29.02 33.71 C 28.46 32.62 27.89 31.53 27.33 30.44 C 31.25 30.05 35.14 29.15 38.82 27.73 C 40.88 27.19 40.03 23.61 37.93 24.05 C 36.44 24.27 35.02 24.78 33.58 25.20 C 29.05 26.94 24.55 23.74 19.96 24.13 C 17.04 24.66 15.06 28.15 16.45 30.87 M 32.65 35.25 C 31.14 38.87 29.43 42.39 27.87 45.98 C 31.48 44.61 35.08 43.19 38.69 41.79 C 41.45 44.86 44.06 48.07 46.90 51.05 C 48.31 52.73 51.31 51.96 51.85 49.87 C 52.42 47.97 50.76 46.52 49.87 45.05 C 47.24 41.67 45.18 37.84 42.24 34.71 C 39.25 33.14 35.77 34.96 32.65 35.25 M 20.73 52.00 C 22.19 52.00 23.65 52.00 25.11 52.00 C 26.02 49.99 26.93 47.98 27.84 45.97 C 27.16 45.95 25.80 45.92 25.12 45.90 L 25.31 44.44 C 22.75 46.21 22.01 49.35 20.73 52.00 Z" />
</g>
<g id="#000000ff">
<path fill="#968176" opacity="1.00" d=" M 15.45 10.57 C 19.57 8.38 24.91 12.46 23.90 17.00 C 23.38 21.33 17.62 23.57 14.31 20.72 C 10.81 18.22 11.49 12.23 15.45 10.57 Z" />
<path fill="#968176" opacity="1.00" d=" M 45.18 20.11 C 46.55 19.65 47.99 20.53 48.00 22.02 C 46.78 25.29 45.13 28.41 43.38 31.42 C 42.02 33.04 39.17 31.08 40.21 29.28 C 41.74 26.18 42.93 22.76 45.18 20.11 Z" />
<path fill="#968176" opacity="1.00" d=" M 6.00 21.71 C 8.21 22.94 10.40 24.20 12.60 25.47 C 12.40 26.52 12.02 28.64 11.83 29.70 C 9.89 28.55 7.96 27.40 5.99 26.29 C 6.00 24.76 6.00 23.24 6.00 21.71 Z" />
<path fill="#968176" opacity="1.00" d=" M 16.45 30.87 C 15.06 28.15 17.04 24.66 19.96 24.13 C 24.55 23.74 29.05 26.94 33.58 25.20 C 35.02 24.78 36.44 24.27 37.93 24.05 C 40.03 23.61 40.88 27.19 38.82 27.73 C 35.14 29.15 31.25 30.05 27.33 30.44 C 27.89 31.53 28.46 32.62 29.02 33.71 C 27.47 37.13 25.92 40.56 24.35 43.97 L 25.97 43.97 C 24.67 44.05 23.38 44.12 22.08 44.18 L 22.90 43.71 C 20.65 39.48 18.46 35.21 16.45 30.87 Z" />
<path fill="#968176" opacity="1.00" d=" M 32.65 35.25 C 35.77 34.96 39.25 33.14 42.24 34.71 C 45.18 37.84 47.24 41.67 49.87 45.05 C 50.76 46.52 52.42 47.97 51.85 49.87 C 51.31 51.96 48.31 52.73 46.90 51.05 C 44.06 48.07 41.45 44.86 38.69 41.79 C 35.08 43.19 31.48 44.61 27.87 45.98 C 29.43 42.39 31.14 38.87 32.65 35.25 Z" />
<path fill="#968176" opacity="1.00" d=" M 20.73 52.00 C 22.01 49.35 22.75 46.21 25.31 44.44 L 25.12 45.90 C 25.80 45.92 27.16 45.95 27.84 45.97 C 26.93 47.98 26.02 49.99 25.11 52.00 C 23.65 52.00 22.19 52.00 20.73 52.00 Z" />
</g>
</svg>
