<?xml version="1.0" encoding="UTF-8" ?>
<!DOCTYPE svg PUBLIC "-//W3C//DTD SVG 1.1//EN" "http://www.w3.org/Graphics/SVG/1.1/DTD/svg11.dtd">
<svg width="60pt" height="60pt" viewBox="0 0 60 60" version="1.1" xmlns="http://www.w3.org/2000/svg">
<g id="#ffffffff">
<path fill="#ffffff" opacity="1.00" d=" M 0.00 0.00 L 60.00 0.00 L 60.00 60.00 L 0.00 60.00 L 0.00 0.00 M 24.50 6.64 C 16.90 8.40 10.35 14.10 7.61 21.40 C 4.86 28.41 5.71 36.69 9.84 42.98 C 13.59 48.84 19.99 52.92 26.90 53.78 C 33.91 54.74 41.28 52.36 46.40 47.47 C 51.70 42.55 54.57 35.14 53.89 27.93 C 53.39 21.64 50.21 15.64 45.38 11.61 C 39.73 6.76 31.72 4.92 24.50 6.64 Z" />
<path fill="#ffffff" opacity="1.00" d=" M 27.12 10.21 C 33.51 9.25 40.29 11.60 44.65 16.39 C 49.48 21.48 51.23 29.23 49.09 35.91 C 46.99 43.05 40.52 48.66 33.15 49.73 C 26.69 50.83 19.77 48.45 15.35 43.61 C 10.50 38.52 8.76 30.75 10.91 24.06 C 13.04 16.82 19.65 11.20 27.12 10.21 M 19.31 26.54 C 16.09 28.53 19.54 33.79 22.64 31.47 C 25.95 29.52 22.45 24.15 19.31 26.54 M 37.32 26.53 C 34.12 28.50 37.47 33.75 40.62 31.51 C 43.94 29.56 40.51 24.17 37.32 26.53 M 19.78 36.03 C 20.23 38.16 21.75 39.76 23.94 40.05 C 26.49 40.04 25.53 43.99 27.98 43.98 C 30.49 44.12 29.51 39.86 32.01 40.03 C 35.56 40.06 32.44 46.05 36.03 45.93 C 38.17 46.13 37.99 43.46 37.99 42.03 C 37.53 39.67 39.46 38.07 40.25 36.05 C 33.42 35.96 26.60 35.99 19.78 36.03 Z" />
</g>
<g id="#000000ff">
<path fill="#000000" opacity="1.00" d=" M 24.50 6.64 C 31.72 4.92 39.73 6.76 45.38 11.61 C 50.21 15.64 53.39 21.64 53.89 27.93 C 54.57 35.14 51.70 42.55 46.40 47.47 C 41.28 52.36 33.91 54.74 26.90 53.78 C 19.99 52.92 13.59 48.84 9.84 42.98 C 5.71 36.69 4.86 28.41 7.61 21.40 C 10.35 14.10 16.90 8.40 24.50 6.64 M 27.12 10.21 C 19.65 11.20 13.04 16.82 10.91 24.06 C 8.76 30.75 10.50 38.52 15.35 43.61 C 19.77 48.45 26.69 50.83 33.15 49.73 C 40.52 48.66 46.99 43.05 49.09 35.91 C 51.23 29.23 49.48 21.48 44.65 16.39 C 40.29 11.60 33.51 9.25 27.12 10.21 Z" />
<path fill="#000000" opacity="1.00" d=" M 19.31 26.54 C 22.45 24.15 25.95 29.52 22.64 31.47 C 19.54 33.79 16.09 28.53 19.31 26.54 Z" />
<path fill="#000000" opacity="1.00" d=" M 37.32 26.53 C 40.51 24.17 43.94 29.56 40.62 31.51 C 37.47 33.75 34.12 28.50 37.32 26.53 Z" />
<path fill="#000000" opacity="1.00" d=" M 19.78 36.03 C 26.60 35.99 33.42 35.96 40.25 36.05 C 39.46 38.07 37.53 39.67 37.99 42.03 C 37.99 43.46 38.17 46.13 36.03 45.93 C 32.44 46.05 35.56 40.06 32.01 40.03 C 29.51 39.86 30.49 44.12 27.98 43.98 C 25.53 43.99 26.49 40.04 23.94 40.05 C 21.75 39.76 20.23 38.16 19.78 36.03 Z" />
</g>
</svg>
