<?xml version="1.0" encoding="UTF-8" ?>
<!DOCTYPE svg PUBLIC "-//W3C//DTD SVG 1.1//EN" "http://www.w3.org/Graphics/SVG/1.1/DTD/svg11.dtd">
<svg width="64pt" height="64pt" viewBox="0 0 64 64" version="1.1" xmlns="http://www.w3.org/2000/svg">
<g id="#ffffffff">
<path fill="#ffffff" opacity="1.00" d=" M 0.00 0.00 L 64.00 0.00 L 64.00 64.00 L 0.00 64.00 L 0.00 0.00 M 6.51 19.94 C 9.62 22.28 12.71 24.64 15.81 27.00 C 12.67 29.39 9.55 31.79 6.38 34.12 C 9.70 36.00 12.98 37.93 16.25 39.89 C 16.25 42.12 16.25 44.34 16.26 46.58 C 21.53 49.98 26.76 53.46 31.99 56.93 C 37.26 53.53 42.53 50.14 47.74 46.66 C 47.75 44.42 47.75 42.18 47.75 39.94 C 50.98 38.03 54.22 36.13 57.42 34.18 C 54.51 31.66 51.55 29.19 48.63 26.68 C 51.57 24.31 54.45 21.88 57.41 19.54 C 51.93 15.94 46.39 12.45 40.82 9.00 C 37.90 11.42 34.97 13.85 32.02 16.24 C 29.19 13.82 26.39 11.37 23.56 8.95 C 17.87 12.61 12.21 16.30 6.51 19.94 Z" />
<path fill="#ffffff" opacity="1.00" d=" M 13.44 20.19 C 16.69 18.10 19.96 16.04 23.21 13.95 C 25.04 15.50 26.86 17.05 28.68 18.62 C 25.53 20.61 22.42 22.67 19.24 24.62 C 17.32 23.13 15.38 21.66 13.44 20.19 Z" />
<path fill="#ffffff" opacity="1.00" d=" M 41.22 13.87 C 44.35 15.89 47.47 17.92 50.61 19.93 C 48.87 21.40 47.10 22.85 45.30 24.25 C 42.05 22.28 38.71 20.47 35.45 18.52 C 37.41 17.02 39.32 15.45 41.22 13.87 Z" />
<path fill="#ffffff" opacity="1.00" d=" M 22.94 27.06 C 25.97 25.16 28.98 23.20 31.99 21.25 C 35.22 23.05 38.42 24.91 41.62 26.75 C 38.41 28.74 35.23 30.79 32.00 32.75 C 29.00 30.82 25.97 28.94 22.94 27.06 Z" />
<path fill="#ffffff" opacity="1.00" d=" M 13.57 33.66 C 15.47 32.27 17.36 30.86 19.24 29.45 C 22.36 31.33 25.40 33.32 28.49 35.25 C 26.76 36.63 25.01 38.00 23.26 39.36 C 20.04 37.45 16.77 35.61 13.57 33.66 Z" />
<path fill="#ffffff" opacity="1.00" d=" M 35.51 35.26 C 38.75 33.18 42.06 31.22 45.28 29.12 C 47.06 30.60 48.82 32.10 50.55 33.63 C 47.35 35.54 44.19 37.52 40.96 39.37 C 39.15 38.00 37.33 36.63 35.51 35.26 Z" />
<path fill="#ffffff" opacity="1.00" d=" M 23.59 44.17 C 26.43 42.01 29.24 39.81 32.06 37.63 C 34.95 39.80 37.77 42.04 40.68 44.18 C 41.72 43.56 42.77 42.94 43.81 42.32 C 43.78 42.87 43.71 43.97 43.68 44.52 C 39.76 46.99 35.94 49.61 32.05 52.12 C 28.11 49.58 24.23 46.96 20.30 44.42 C 20.27 43.88 20.22 42.81 20.20 42.27 C 21.33 42.90 22.46 43.54 23.59 44.17 Z" />
</g>
<g id="#000000ff">
<path fill="#000000" opacity="1.00" d=" M 6.51 19.94 C 12.21 16.30 17.87 12.61 23.56 8.95 C 26.39 11.37 29.19 13.82 32.02 16.24 C 34.97 13.85 37.90 11.42 40.82 9.00 C 46.39 12.45 51.93 15.94 57.41 19.54 C 54.45 21.88 51.57 24.31 48.63 26.68 C 51.55 29.19 54.51 31.66 57.42 34.18 C 54.22 36.13 50.98 38.03 47.75 39.94 C 47.75 42.18 47.75 44.42 47.74 46.66 C 42.53 50.14 37.26 53.53 31.99 56.93 C 26.76 53.46 21.53 49.98 16.26 46.58 C 16.25 44.34 16.25 42.12 16.25 39.89 C 12.98 37.93 9.70 36.00 6.38 34.12 C 9.55 31.79 12.67 29.39 15.81 27.00 C 12.71 24.64 9.62 22.28 6.51 19.94 M 13.44 20.19 C 15.38 21.66 17.32 23.13 19.24 24.62 C 22.42 22.67 25.53 20.61 28.68 18.62 C 26.86 17.05 25.04 15.50 23.21 13.95 C 19.96 16.04 16.69 18.10 13.44 20.19 M 41.22 13.87 C 39.32 15.45 37.41 17.02 35.45 18.52 C 38.71 20.47 42.05 22.28 45.30 24.25 C 47.10 22.85 48.87 21.40 50.61 19.93 C 47.47 17.92 44.35 15.89 41.22 13.87 M 22.94 27.06 C 25.97 28.94 29.00 30.82 32.00 32.75 C 35.23 30.79 38.41 28.74 41.62 26.75 C 38.42 24.91 35.22 23.05 31.99 21.25 C 28.98 23.20 25.97 25.16 22.94 27.06 M 13.57 33.66 C 16.77 35.61 20.04 37.45 23.26 39.36 C 25.01 38.00 26.76 36.63 28.49 35.25 C 25.40 33.32 22.36 31.33 19.24 29.45 C 17.36 30.86 15.47 32.27 13.57 33.66 M 35.51 35.26 C 37.33 36.63 39.15 38.00 40.96 39.37 C 44.19 37.52 47.35 35.54 50.55 33.63 C 48.82 32.10 47.06 30.60 45.28 29.12 C 42.06 31.22 38.75 33.18 35.51 35.26 M 23.59 44.17 C 22.46 43.54 21.33 42.90 20.20 42.27 C 20.22 42.81 20.27 43.88 20.30 44.42 C 24.23 46.96 28.11 49.58 32.05 52.12 C 35.94 49.61 39.76 46.99 43.68 44.52 C 43.71 43.97 43.78 42.87 43.81 42.32 C 42.77 42.94 41.72 43.56 40.68 44.18 C 37.77 42.04 34.95 39.80 32.06 37.63 C 29.24 39.81 26.43 42.01 23.59 44.17 Z" />
</g>
</svg>
