<?xml version="1.0" encoding="UTF-8" ?>
<!DOCTYPE svg PUBLIC "-//W3C//DTD SVG 1.1//EN" "http://www.w3.org/Graphics/SVG/1.1/DTD/svg11.dtd">
<svg width="60pt" height="60pt" viewBox="0 0 60 60" version="1.1" xmlns="http://www.w3.org/2000/svg">
<g id="#ffffffff">
<path fill="#ffffff" opacity="1.00" d=" M 0.00 0.00 L 60.00 0.00 L 60.00 60.00 L 0.00 60.00 L 0.00 0.00 M 5.62 14.91 C 8.67 17.75 12.33 19.81 15.59 22.39 C 20.40 19.51 25.17 16.57 29.93 13.62 C 34.98 16.35 40.03 19.10 45.04 21.91 C 48.03 19.30 51.83 17.50 54.20 14.26 C 49.52 11.39 44.86 8.50 40.06 5.83 C 36.69 8.42 33.33 11.01 29.99 13.63 C 26.75 11.02 23.60 8.28 20.23 5.84 C 15.39 8.90 10.38 11.72 5.62 14.91 M 6.05 29.29 C 6.12 31.07 8.44 31.40 9.59 32.38 C 13.09 34.08 16.14 37.06 19.91 37.97 C 23.51 36.01 26.59 33.21 29.98 30.92 C 25.09 28.12 20.42 24.92 15.37 22.41 C 12.41 24.90 9.05 26.85 6.05 29.29 M 29.99 30.88 C 33.38 33.19 36.44 35.97 40.01 38.00 C 45.13 36.25 49.54 32.57 54.30 29.93 C 51.69 26.76 48.11 24.60 45.03 21.91 C 40.03 24.92 35.01 27.91 29.99 30.88 M 21.52 41.66 C 18.81 42.73 16.20 41.03 13.93 39.73 C 14.14 41.39 13.50 43.72 15.38 44.62 C 20.24 47.75 24.85 51.35 29.94 54.07 C 35.16 51.49 39.84 47.88 44.75 44.77 C 46.61 43.77 45.78 41.38 46.07 39.69 C 43.78 40.98 41.19 42.74 38.45 41.68 C 35.34 40.21 32.82 37.76 29.98 35.87 C 27.15 37.78 24.62 40.18 21.52 41.66 Z" />
</g>
<g id="#000000ff">
<path fill="#968176" opacity="1.00" d=" M 5.62 14.91 C 10.38 11.72 15.39 8.90 20.23 5.84 C 23.60 8.28 26.75 11.02 29.99 13.63 C 33.33 11.01 36.69 8.42 40.06 5.83 C 44.86 8.50 49.52 11.39 54.20 14.26 C 51.83 17.50 48.03 19.30 45.04 21.91 C 40.03 19.10 34.98 16.35 29.93 13.62 C 25.17 16.57 20.40 19.51 15.59 22.39 C 12.33 19.81 8.67 17.75 5.62 14.91 Z" />
<path fill="#968176" opacity="1.00" d=" M 6.05 29.29 C 9.05 26.85 12.41 24.90 15.37 22.41 C 20.42 24.92 25.09 28.12 29.98 30.92 C 26.59 33.21 23.51 36.01 19.91 37.97 C 16.14 37.06 13.09 34.08 9.59 32.38 C 8.44 31.40 6.12 31.07 6.05 29.29 Z" />
<path fill="#968176" opacity="1.00" d=" M 29.99 30.88 C 35.01 27.91 40.03 24.92 45.03 21.91 C 48.11 24.60 51.69 26.76 54.30 29.93 C 49.54 32.57 45.13 36.25 40.01 38.00 C 36.44 35.97 33.38 33.19 29.99 30.88 Z" />
<path fill="#968176" opacity="1.00" d=" M 21.52 41.66 C 24.62 40.18 27.15 37.78 29.98 35.87 C 32.82 37.76 35.34 40.21 38.45 41.68 C 41.19 42.74 43.78 40.98 46.07 39.69 C 45.78 41.38 46.61 43.77 44.75 44.77 C 39.84 47.88 35.16 51.49 29.94 54.07 C 24.85 51.35 20.24 47.75 15.38 44.62 C 13.50 43.72 14.14 41.39 13.93 39.73 C 16.20 41.03 18.81 42.73 21.52 41.66 Z" />
</g>
</svg>
