<?xml version="1.0" encoding="UTF-8" ?>
<!DOCTYPE svg PUBLIC "-//W3C//DTD SVG 1.1//EN" "http://www.w3.org/Graphics/SVG/1.1/DTD/svg11.dtd">
<svg width="64pt" height="64pt" viewBox="0 0 64 64" version="1.1" xmlns="http://www.w3.org/2000/svg">
<g id="#ffffffff">
<path fill="#ffffff" opacity="1.00" d=" M 0.00 0.00 L 64.00 0.00 L 64.00 64.00 L 0.00 64.00 L 0.00 0.00 M 16.84 28.81 C 14.86 32.57 13.34 36.89 14.29 41.19 C 15.67 49.51 23.54 56.13 32.00 55.99 C 40.46 56.13 48.34 49.49 49.70 41.15 C 50.60 37.09 49.27 33.00 47.46 29.40 C 43.31 21.26 37.85 13.87 31.99 6.89 C 26.30 13.72 20.96 20.91 16.84 28.81 Z" />
<path fill="#ffffff" opacity="1.00" d=" M 18.94 33.95 C 22.12 26.45 26.82 19.57 32.12 13.42 C 37.16 19.99 42.29 26.73 45.26 34.53 C 48.17 42.48 41.31 51.55 33.08 51.91 C 23.82 53.05 15.18 42.77 18.94 33.95 M 39.22 36.13 C 36.79 37.03 38.46 41.00 40.77 39.82 C 43.20 38.95 41.56 35.06 39.22 36.13 M 35.19 42.12 C 32.81 43.17 34.46 46.94 36.86 45.87 C 39.12 44.76 37.57 41.13 35.19 42.12 Z" />
</g>
<g id="#000000ff">
<path fill="#000000" opacity="1.00" d=" M 16.84 28.81 C 20.96 20.91 26.30 13.72 31.99 6.89 C 37.85 13.87 43.31 21.26 47.46 29.40 C 49.27 33.00 50.60 37.09 49.70 41.15 C 48.34 49.49 40.46 56.13 32.00 55.99 C 23.54 56.13 15.67 49.51 14.29 41.19 C 13.34 36.89 14.86 32.57 16.84 28.81 M 18.94 33.95 C 15.18 42.77 23.82 53.05 33.08 51.91 C 41.31 51.55 48.17 42.48 45.26 34.53 C 42.29 26.73 37.16 19.99 32.12 13.42 C 26.82 19.57 22.12 26.45 18.94 33.95 Z" />
<path fill="#000000" opacity="1.00" d=" M 39.22 36.13 C 41.56 35.06 43.20 38.95 40.77 39.82 C 38.46 41.00 36.79 37.03 39.22 36.13 Z" />
<path fill="#000000" opacity="1.00" d=" M 35.19 42.12 C 37.57 41.13 39.12 44.76 36.86 45.87 C 34.46 46.94 32.81 43.17 35.19 42.12 Z" />
</g>
</svg>
