<?xml version="1.0" encoding="UTF-8" ?>
<!DOCTYPE svg PUBLIC "-//W3C//DTD SVG 1.1//EN" "http://www.w3.org/Graphics/SVG/1.1/DTD/svg11.dtd">
<svg width="60pt" height="60pt" viewBox="0 0 60 60" version="1.1" xmlns="http://www.w3.org/2000/svg">
<g id="#ffffffff">
<path fill="#ffffff" opacity="1.00" d=" M 0.00 0.00 L 60.00 0.00 L 60.00 60.00 L 0.00 60.00 L 0.00 0.00 M 20.26 15.90 C 18.95 23.09 23.70 29.26 25.24 35.99 C 23.49 36.00 21.75 36.00 20.00 36.00 C 20.00 37.67 20.00 39.33 20.00 40.99 C 22.58 43.04 25.44 44.78 27.80 47.10 C 28.05 48.72 28.00 50.37 28.06 52.00 C 32.07 52.00 36.08 52.01 40.09 51.99 C 38.13 49.56 35.92 47.32 34.17 44.74 C 33.81 43.58 34.15 42.70 35.20 42.10 C 37.47 41.53 38.41 44.12 39.82 45.36 C 42.94 42.24 46.06 39.12 49.18 36.01 C 42.54 35.99 35.91 36.01 29.27 35.99 C 28.28 31.55 26.50 27.36 24.88 23.12 C 23.50 19.40 23.57 14.55 26.86 11.84 C 29.58 9.44 33.57 9.65 36.59 11.36 C 35.08 13.25 33.56 15.44 34.06 18.01 C 35.05 24.22 40.54 29.58 46.87 30.13 C 47.49 25.04 53.06 21.55 51.80 16.13 C 51.33 12.57 48.12 10.36 44.82 9.72 C 46.74 13.00 47.32 17.07 45.05 20.35 C 43.73 15.12 41.68 9.11 36.26 6.87 C 29.58 3.92 21.35 8.82 20.26 15.90 M 8.00 36.00 C 8.00 41.33 8.00 46.67 8.00 52.00 C 13.33 52.00 18.67 52.00 24.00 52.00 C 24.00 51.25 24.00 49.75 24.00 49.00 C 21.41 46.94 18.50 45.22 16.18 42.84 C 15.85 40.57 16.02 38.28 15.99 36.00 C 13.33 36.00 10.66 36.00 8.00 36.00 M 42.35 48.47 C 43.31 49.65 44.29 50.83 45.27 52.00 C 47.51 52.00 49.76 52.00 52.00 52.00 C 52.00 47.62 52.00 43.23 52.00 38.85 C 48.78 42.05 45.56 45.26 42.35 48.47 Z" />
</g>
<g id="#000000ff">
<path fill="#000000" opacity="1.00" d=" M 20.26 15.90 C 21.35 8.82 29.58 3.92 36.26 6.87 C 41.68 9.11 43.73 15.12 45.05 20.35 C 47.32 17.07 46.74 13.00 44.82 9.72 C 48.12 10.36 51.33 12.57 51.80 16.13 C 53.06 21.55 47.49 25.04 46.87 30.13 C 40.54 29.58 35.05 24.22 34.06 18.01 C 33.56 15.44 35.08 13.25 36.59 11.36 C 33.57 9.65 29.58 9.44 26.86 11.84 C 23.57 14.55 23.50 19.40 24.88 23.12 C 26.50 27.36 28.28 31.55 29.27 35.99 C 35.91 36.01 42.54 35.99 49.18 36.01 C 46.06 39.12 42.94 42.24 39.82 45.36 C 38.41 44.12 37.47 41.53 35.20 42.10 C 34.15 42.70 33.81 43.58 34.17 44.74 C 35.92 47.32 38.13 49.56 40.09 51.99 C 36.08 52.01 32.07 52.00 28.06 52.00 C 28.00 50.37 28.05 48.72 27.80 47.10 C 25.44 44.78 22.58 43.04 20.00 40.99 C 20.00 39.33 20.00 37.67 20.00 36.00 C 21.75 36.00 23.49 36.00 25.24 35.99 C 23.70 29.26 18.95 23.09 20.26 15.90 Z" />
<path fill="#000000" opacity="1.00" d=" M 8.00 36.00 C 10.66 36.00 13.33 36.00 15.99 36.00 C 16.02 38.28 15.85 40.57 16.18 42.84 C 18.50 45.22 21.41 46.94 24.00 49.00 C 24.00 49.75 24.00 51.25 24.00 52.00 C 18.67 52.00 13.33 52.00 8.00 52.00 C 8.00 46.67 8.00 41.33 8.00 36.00 Z" />
<path fill="#000000" opacity="1.00" d=" M 42.35 48.47 C 45.56 45.26 48.78 42.05 52.00 38.85 C 52.00 43.23 52.00 47.62 52.00 52.00 C 49.76 52.00 47.51 52.00 45.27 52.00 C 44.29 50.83 43.31 49.65 42.35 48.47 Z" />
</g>
</svg>
