<?xml version="1.0" encoding="UTF-8" ?>
<!DOCTYPE svg PUBLIC "-//W3C//DTD SVG 1.1//EN" "http://www.w3.org/Graphics/SVG/1.1/DTD/svg11.dtd">
<svg width="60pt" height="60pt" viewBox="0 0 60 60" version="1.1" xmlns="http://www.w3.org/2000/svg">
<g id="#ffffffff">
<path fill="#ffffff" opacity="1.00" d=" M 0.00 0.00 L 60.00 0.00 L 60.00 60.00 L 0.00 60.00 L 0.00 0.00 M 53.24 6.24 C 48.94 8.84 44.74 11.66 40.68 14.63 C 38.93 15.79 40.80 18.89 42.69 17.77 C 47.04 15.18 51.33 12.38 55.39 9.34 C 57.14 8.09 55.08 5.03 53.24 6.24 M 6.07 19.97 C 6.00 27.58 5.81 35.22 6.17 42.82 C 8.39 45.23 12.45 43.47 15.40 44.01 C 13.47 39.01 13.49 33.14 16.32 28.48 C 18.44 24.57 22.31 22.08 26.34 20.49 C 25.70 19.61 25.44 17.87 24.00 18.07 C 18.96 17.89 13.90 18.02 8.86 18.01 C 7.62 17.85 5.91 18.43 6.07 19.97 M 48.06 19.91 C 47.81 27.70 48.21 35.51 47.91 43.31 C 46.97 46.35 44.92 48.94 43.99 51.99 C 44.02 53.50 45.52 54.33 46.88 53.89 C 48.15 52.39 48.92 50.55 49.94 48.88 C 51.04 50.53 51.89 52.34 53.12 53.89 C 54.51 54.36 55.90 53.49 56.01 52.00 C 55.01 48.22 51.66 45.16 51.99 41.05 C 51.98 35.69 52.02 30.34 52.00 24.98 C 52.54 25.33 53.60 26.01 54.14 26.36 C 58.33 24.00 53.47 20.52 51.44 18.56 C 50.35 17.11 47.82 18.14 48.06 19.91 M 21.37 28.31 C 16.32 33.61 17.28 42.57 22.73 47.23 C 21.87 49.18 18.95 51.23 20.57 53.48 C 23.49 55.33 24.79 50.93 26.28 49.23 C 29.38 50.10 32.62 50.10 35.73 49.25 C 37.29 50.88 38.03 54.48 40.87 53.91 C 43.54 51.94 40.27 49.18 39.26 47.24 C 44.25 42.87 45.62 34.89 41.56 29.47 C 37.15 22.81 26.51 22.21 21.37 28.31 M 8.33 47.97 C 7.62 49.83 4.47 52.21 7.15 53.89 C 10.20 54.21 12.25 50.76 12.21 48.02 C 10.92 47.99 9.62 47.97 8.33 47.97 Z" />
</g>
<g id="#000000ff">
<path fill="#968176" opacity="1.00" d=" M 53.24 6.24 C 55.08 5.03 57.14 8.09 55.39 9.34 C 51.33 12.38 47.04 15.18 42.69 17.77 C 40.80 18.89 38.93 15.79 40.68 14.63 C 44.74 11.66 48.94 8.84 53.24 6.24 Z" />
<path fill="#968176" opacity="1.00" d=" M 6.07 19.97 C 5.91 18.43 7.62 17.85 8.86 18.01 C 13.90 18.02 18.96 17.89 24.00 18.07 C 25.44 17.87 25.70 19.61 26.34 20.49 C 22.31 22.08 18.44 24.57 16.32 28.48 C 13.49 33.14 13.47 39.01 15.40 44.01 C 12.45 43.47 8.39 45.23 6.17 42.82 C 5.81 35.22 6.00 27.58 6.07 19.97 Z" />
<path fill="#968176" opacity="1.00" d=" M 48.06 19.91 C 47.82 18.14 50.35 17.11 51.44 18.56 C 53.47 20.52 58.33 24.00 54.14 26.36 C 53.60 26.01 52.54 25.33 52.00 24.98 C 52.02 30.34 51.98 35.69 51.99 41.05 C 51.66 45.16 55.01 48.22 56.01 52.00 C 55.90 53.49 54.51 54.36 53.12 53.89 C 51.89 52.34 51.04 50.53 49.94 48.88 C 48.92 50.55 48.15 52.39 46.88 53.89 C 45.52 54.33 44.02 53.50 43.99 51.99 C 44.92 48.94 46.97 46.35 47.91 43.31 C 48.21 35.51 47.81 27.70 48.06 19.91 Z" />
<path fill="#968176" opacity="1.00" d=" M 21.37 28.31 C 26.51 22.21 37.15 22.81 41.56 29.47 C 45.62 34.89 44.25 42.87 39.26 47.24 C 40.27 49.18 43.54 51.94 40.87 53.91 C 38.03 54.48 37.29 50.88 35.73 49.25 C 32.62 50.10 29.38 50.10 26.28 49.23 C 24.79 50.93 23.49 55.33 20.57 53.48 C 18.95 51.23 21.87 49.18 22.73 47.23 C 17.28 42.57 16.32 33.61 21.37 28.31 Z" />
<path fill="#968176" opacity="1.00" d=" M 8.33 47.97 C 9.62 47.97 10.92 47.99 12.21 48.02 C 12.25 50.76 10.20 54.21 7.15 53.89 C 4.47 52.21 7.62 49.83 8.33 47.97 Z" />
</g>
</svg>
