<?xml version="1.0" encoding="UTF-8" ?>
<!DOCTYPE svg PUBLIC "-//W3C//DTD SVG 1.1//EN" "http://www.w3.org/Graphics/SVG/1.1/DTD/svg11.dtd">
<svg width="64pt" height="64pt" viewBox="0 0 64 64" version="1.1" xmlns="http://www.w3.org/2000/svg">
<g id="#ffffffff">
<path fill="#ffffff" opacity="1.00" d=" M 0.00 0.00 L 64.00 0.00 L 64.00 64.00 L 0.00 64.00 L 0.00 0.00 M 17.33 7.55 C 15.87 7.68 14.41 7.81 12.94 7.94 C 13.94 9.02 14.94 10.10 15.93 11.18 C 15.63 12.60 15.32 14.01 15.00 15.43 C 16.32 14.83 17.63 14.23 18.94 13.63 C 20.21 14.37 21.48 15.12 22.74 15.87 C 22.58 14.41 22.42 12.95 22.26 11.48 C 23.34 10.53 24.42 9.58 25.50 8.62 C 24.07 8.33 22.64 8.05 21.20 7.76 C 20.63 6.41 20.06 5.05 19.50 3.70 C 18.77 4.98 18.05 6.26 17.33 7.55 M 42.26 6.97 C 43.18 7.77 43.82 8.75 44.16 9.91 C 45.20 9.34 46.31 9.07 47.50 9.12 C 47.17 7.92 47.33 6.74 47.78 5.59 C 46.50 5.63 45.43 5.18 44.57 4.23 C 44.14 5.42 43.40 6.38 42.26 6.97 M 54.67 8.57 C 53.97 9.62 53.26 10.66 52.55 11.70 C 51.61 11.71 49.75 11.74 48.82 11.75 C 49.59 12.73 50.35 13.71 51.12 14.69 C 50.74 15.91 50.37 17.13 50.01 18.35 C 50.85 18.02 52.54 17.37 53.38 17.04 C 54.49 17.74 55.59 18.48 56.68 19.23 C 56.62 18.31 56.50 16.47 56.45 15.55 C 57.44 14.74 58.46 13.95 59.50 13.17 C 58.29 12.85 57.09 12.52 55.89 12.20 C 55.48 10.99 55.07 9.78 54.67 8.57 M 26.55 10.65 C 26.91 11.93 27.27 13.21 27.64 14.48 C 34.52 12.73 42.35 15.67 45.82 21.98 C 47.96 25.32 48.01 29.37 48.11 33.18 C 47.23 31.12 46.48 28.78 44.51 27.48 C 42.76 26.18 40.45 26.27 38.54 25.36 C 38.12 24.29 37.88 23.17 37.80 22.00 C 36.60 22.00 35.40 22.00 34.20 22.00 C 33.83 23.26 34.24 25.10 32.84 25.82 C 29.02 26.41 25.05 25.44 21.29 26.50 C 18.33 27.46 16.88 30.42 15.91 33.14 C 15.75 28.19 16.73 23.13 20.00 19.25 C 19.01 18.36 18.02 17.48 17.03 16.61 C 11.55 22.75 11.52 31.33 12.16 39.05 C 12.41 41.25 14.58 42.35 16.16 43.52 C 16.85 46.57 17.74 49.70 19.84 52.12 C 24.12 57.60 32.25 59.62 38.53 56.52 C 43.75 54.26 46.95 48.98 47.84 43.51 C 49.42 42.35 51.58 41.25 51.83 39.06 C 52.21 32.15 52.75 24.44 48.37 18.56 C 43.70 11.59 34.57 8.57 26.55 10.65 M 8.01 13.40 C 7.85 14.08 7.52 15.45 7.36 16.13 C 6.71 16.40 5.40 16.93 4.75 17.19 C 5.36 17.55 6.58 18.25 7.20 18.61 C 7.22 19.29 7.26 20.65 7.28 21.33 C 8.66 20.15 10.22 19.44 12.04 20.14 C 11.04 18.44 11.48 16.80 12.49 15.27 C 11.83 15.35 10.50 15.50 9.83 15.58 C 9.38 15.04 8.47 13.95 8.01 13.40 Z" />
<path fill="#ffffff" opacity="1.00" d=" M 22.29 30.37 C 26.77 29.25 31.76 31.11 35.99 28.71 C 38.03 29.61 40.28 29.90 42.33 30.76 C 44.08 31.83 43.87 34.08 44.13 35.84 C 45.47 36.09 48.15 35.91 47.94 37.96 C 48.21 40.08 45.46 39.92 44.08 40.17 C 44.13 44.09 43.11 48.27 40.01 50.91 C 35.20 55.49 26.67 54.76 22.66 49.49 C 20.43 46.92 19.98 43.44 19.92 40.17 C 18.56 39.91 15.82 40.10 16.06 38.01 C 15.79 35.92 18.52 36.08 19.87 35.84 C 20.04 33.84 20.07 31.24 22.29 30.37 M 27.20 36.11 C 24.85 37.16 26.38 40.84 28.80 39.89 C 31.13 38.84 29.62 35.14 27.20 36.11 M 35.41 36.47 C 33.30 37.66 33.73 41.30 36.15 41.83 C 38.28 42.68 40.70 40.22 39.81 38.10 C 39.37 36.26 36.96 35.44 35.41 36.47 Z" />
</g>
<g id="#000000ff">
<path fill="#000000" opacity="1.00" d=" M 17.33 7.55 C 18.05 6.26 18.77 4.98 19.50 3.70 C 20.06 5.05 20.63 6.41 21.20 7.76 C 22.64 8.05 24.07 8.33 25.50 8.62 C 24.42 9.58 23.34 10.53 22.26 11.48 C 22.42 12.95 22.58 14.41 22.74 15.87 C 21.48 15.12 20.21 14.37 18.94 13.63 C 17.63 14.23 16.32 14.83 15.00 15.43 C 15.32 14.01 15.63 12.60 15.93 11.18 C 14.94 10.10 13.94 9.02 12.94 7.94 C 14.41 7.81 15.87 7.68 17.33 7.55 Z" />
<path fill="#000000" opacity="1.00" d=" M 42.26 6.97 C 43.40 6.38 44.14 5.42 44.57 4.23 C 45.43 5.18 46.50 5.63 47.78 5.59 C 47.33 6.74 47.17 7.92 47.50 9.12 C 46.31 9.07 45.20 9.34 44.16 9.91 C 43.82 8.75 43.18 7.77 42.26 6.97 Z" />
<path fill="#000000" opacity="1.00" d=" M 54.67 8.57 C 55.07 9.78 55.48 10.99 55.89 12.20 C 57.09 12.52 58.29 12.85 59.50 13.17 C 58.46 13.95 57.44 14.74 56.45 15.55 C 56.50 16.47 56.62 18.31 56.68 19.23 C 55.59 18.48 54.49 17.74 53.38 17.04 C 52.54 17.37 50.85 18.02 50.01 18.35 C 50.37 17.13 50.74 15.91 51.12 14.69 C 50.35 13.71 49.59 12.73 48.82 11.75 C 49.75 11.74 51.61 11.71 52.55 11.70 C 53.26 10.66 53.97 9.62 54.67 8.57 Z" />
<path fill="#000000" opacity="1.00" d=" M 26.55 10.65 C 34.57 8.57 43.70 11.59 48.37 18.56 C 52.75 24.44 52.21 32.15 51.83 39.06 C 51.58 41.25 49.42 42.35 47.84 43.51 C 46.95 48.98 43.75 54.26 38.53 56.52 C 32.25 59.62 24.12 57.60 19.84 52.12 C 17.74 49.70 16.85 46.57 16.16 43.52 C 14.58 42.35 12.41 41.25 12.16 39.05 C 11.52 31.33 11.55 22.75 17.03 16.61 C 18.02 17.48 19.01 18.36 20.00 19.25 C 16.73 23.13 15.75 28.19 15.91 33.14 C 16.88 30.42 18.33 27.46 21.29 26.50 C 25.05 25.44 29.02 26.41 32.84 25.82 C 34.24 25.10 33.83 23.26 34.20 22.00 C 35.40 22.00 36.60 22.00 37.80 22.00 C 37.88 23.17 38.12 24.29 38.54 25.36 C 40.45 26.27 42.76 26.18 44.51 27.48 C 46.48 28.78 47.23 31.12 48.11 33.18 C 48.01 29.37 47.96 25.32 45.82 21.98 C 42.35 15.67 34.52 12.73 27.64 14.48 C 27.27 13.21 26.91 11.93 26.55 10.65 M 22.29 30.37 C 20.07 31.24 20.04 33.84 19.87 35.84 C 18.52 36.08 15.79 35.92 16.06 38.01 C 15.82 40.10 18.56 39.91 19.92 40.17 C 19.98 43.44 20.43 46.92 22.66 49.49 C 26.67 54.76 35.20 55.49 40.01 50.91 C 43.11 48.27 44.13 44.09 44.08 40.17 C 45.46 39.92 48.21 40.08 47.94 37.96 C 48.15 35.91 45.47 36.09 44.13 35.84 C 43.87 34.08 44.08 31.83 42.33 30.76 C 40.28 29.90 38.03 29.61 35.99 28.71 C 31.76 31.11 26.77 29.25 22.29 30.37 Z" />
<path fill="#000000" opacity="1.00" d=" M 8.01 13.40 C 8.47 13.95 9.38 15.04 9.83 15.58 C 10.50 15.50 11.83 15.35 12.49 15.27 C 11.48 16.80 11.04 18.44 12.04 20.14 C 10.22 19.44 8.66 20.15 7.28 21.33 C 7.26 20.65 7.22 19.29 7.20 18.61 C 6.58 18.25 5.36 17.55 4.75 17.19 C 5.40 16.93 6.71 16.40 7.36 16.13 C 7.52 15.45 7.85 14.08 8.01 13.40 Z" />
<path fill="#000000" opacity="1.00" d=" M 27.20 36.11 C 29.62 35.14 31.13 38.84 28.80 39.89 C 26.38 40.84 24.85 37.16 27.20 36.11 Z" />
<path fill="#000000" opacity="1.00" d=" M 35.41 36.47 C 36.96 35.44 39.37 36.26 39.81 38.10 C 40.70 40.22 38.28 42.68 36.15 41.83 C 33.73 41.30 33.30 37.66 35.41 36.47 Z" />
</g>
</svg>
