<?xml version="1.0" encoding="UTF-8" ?>
<!DOCTYPE svg PUBLIC "-//W3C//DTD SVG 1.1//EN" "http://www.w3.org/Graphics/SVG/1.1/DTD/svg11.dtd">
<svg width="60pt" height="60pt" viewBox="0 0 60 60" version="1.1" xmlns="http://www.w3.org/2000/svg">
<g id="#ffffffff">
<path fill="#ffffff" opacity="1.00" d=" M 0.00 0.00 L 60.00 0.00 L 60.00 60.00 L 0.00 60.00 L 0.00 0.00 M 13.42 8.47 C 12.08 11.25 12.40 14.84 10.86 17.72 C 8.04 24.08 13.23 29.86 13.99 36.00 C 13.53 40.09 11.66 43.90 11.41 48.04 C 11.25 49.54 11.12 51.66 13.05 52.05 C 14.79 52.16 15.44 50.49 15.38 49.03 C 15.68 44.56 17.91 40.45 17.98 35.96 C 17.80 31.04 14.58 26.87 14.01 22.03 C 14.44 18.01 16.88 14.37 16.64 10.21 C 17.00 8.54 14.52 7.14 13.42 8.47 M 29.41 8.48 C 28.29 9.57 28.79 11.39 28.36 12.79 C 27.77 16.26 25.57 19.44 26.08 23.08 C 26.68 27.58 29.46 31.48 29.99 36.00 C 29.43 40.99 26.69 45.78 27.55 50.90 C 28.31 52.76 31.42 52.12 31.23 50.03 C 31.52 45.95 33.05 42.13 33.81 38.13 C 34.86 32.37 30.63 27.52 30.01 21.99 C 30.46 17.98 32.88 14.35 32.63 10.21 C 33.01 8.53 30.50 7.14 29.41 8.48 M 45.41 8.49 C 44.28 9.59 44.79 11.41 44.35 12.82 C 43.77 16.26 41.59 19.41 42.08 23.02 C 42.65 27.54 45.46 31.46 45.98 35.99 C 45.53 40.10 43.65 43.93 43.41 48.09 C 43.31 49.41 43.06 51.97 45.08 51.90 C 46.76 52.57 47.40 50.25 47.38 49.02 C 47.69 44.92 49.51 41.13 49.94 37.06 C 50.34 31.69 46.59 27.20 46.01 22.00 C 46.46 17.98 48.88 14.35 48.64 10.20 C 48.99 8.52 46.48 7.13 45.41 8.49 Z" />
</g>
<g id="#000000ff">
<path fill="#000000" opacity="1.00" d=" M 13.42 8.47 C 14.52 7.14 17.00 8.54 16.64 10.21 C 16.88 14.37 14.44 18.01 14.01 22.03 C 14.58 26.87 17.80 31.04 17.98 35.96 C 17.91 40.45 15.68 44.56 15.38 49.03 C 15.44 50.49 14.79 52.16 13.05 52.05 C 11.12 51.66 11.25 49.54 11.41 48.04 C 11.66 43.90 13.53 40.09 13.99 36.00 C 13.23 29.86 8.04 24.08 10.86 17.72 C 12.40 14.84 12.08 11.25 13.42 8.47 Z" />
<path fill="#000000" opacity="1.00" d=" M 29.41 8.48 C 30.50 7.14 33.01 8.53 32.63 10.21 C 32.88 14.35 30.46 17.98 30.01 21.99 C 30.63 27.52 34.86 32.37 33.81 38.13 C 33.05 42.13 31.52 45.95 31.23 50.03 C 31.42 52.12 28.31 52.76 27.55 50.90 C 26.69 45.78 29.43 40.99 29.99 36.00 C 29.46 31.48 26.68 27.58 26.08 23.08 C 25.57 19.44 27.77 16.26 28.36 12.79 C 28.79 11.39 28.29 9.57 29.41 8.48 Z" />
<path fill="#000000" opacity="1.00" d=" M 45.41 8.49 C 46.48 7.13 48.99 8.52 48.64 10.20 C 48.88 14.35 46.46 17.98 46.01 22.00 C 46.59 27.20 50.34 31.69 49.94 37.06 C 49.51 41.13 47.69 44.92 47.38 49.02 C 47.40 50.25 46.76 52.57 45.08 51.90 C 43.06 51.97 43.31 49.41 43.41 48.09 C 43.65 43.93 45.53 40.10 45.98 35.99 C 45.46 31.46 42.65 27.54 42.08 23.02 C 41.59 19.41 43.77 16.26 44.35 12.82 C 44.79 11.41 44.28 9.59 45.41 8.49 Z" />
</g>
</svg>
