<?xml version="1.0" encoding="UTF-8" ?>
<!DOCTYPE svg PUBLIC "-//W3C//DTD SVG 1.1//EN" "http://www.w3.org/Graphics/SVG/1.1/DTD/svg11.dtd">
<svg width="64pt" height="64pt" viewBox="0 0 64 64" version="1.1" xmlns="http://www.w3.org/2000/svg">
<g id="#ffffffff">
<path fill="#ffffff" opacity="1.00" d=" M 0.00 0.00 L 64.00 0.00 L 64.00 64.00 L 0.00 64.00 L 0.00 0.00 M 31.15 12.92 C 30.03 17.57 34.79 21.19 33.83 25.79 C 32.30 31.05 28.21 35.73 22.93 37.44 C 20.49 38.10 16.93 38.80 15.62 35.95 C 14.16 36.04 12.70 36.20 11.26 36.46 C 10.88 36.02 10.11 35.14 9.72 34.70 C 8.61 35.55 7.51 36.41 6.39 37.26 C 12.83 44.29 21.67 49.36 31.30 50.05 C 30.21 50.97 29.13 51.92 28.02 52.83 C 28.02 53.62 28.00 55.21 27.99 56.00 C 32.66 56.00 37.33 56.00 42.00 56.00 C 42.00 54.67 42.00 53.33 42.00 52.00 C 39.51 52.00 37.02 52.00 34.52 51.99 C 34.80 51.46 35.35 50.42 35.63 49.89 C 40.57 49.33 46.20 47.62 48.60 42.84 C 51.05 38.36 49.99 32.81 47.12 28.80 C 45.59 26.23 42.46 22.89 45.16 20.02 C 49.51 20.22 55.95 19.78 56.19 14.07 C 54.16 13.93 52.03 14.28 50.08 13.58 C 47.04 12.45 46.84 8.38 43.84 7.15 C 39.06 4.16 32.00 7.34 31.15 12.92 Z" />
<path fill="#ffffff" opacity="1.00" d=" M 35.52 12.35 C 37.19 8.97 43.08 9.38 43.93 13.15 C 44.63 16.75 39.95 18.44 40.05 21.98 C 39.62 27.80 45.92 31.31 45.98 37.01 C 46.19 40.47 43.75 43.62 40.54 44.72 C 33.47 47.37 25.55 45.69 19.12 42.12 C 27.43 41.90 34.62 35.69 37.42 28.10 C 38.53 25.01 37.88 21.57 36.46 18.69 C 35.61 16.74 34.26 14.45 35.52 12.35 M 39.32 13.18 C 38.18 14.64 40.68 16.36 41.67 14.82 C 42.82 13.36 40.31 11.63 39.32 13.18 Z" />
</g>
<g id="#000000ff">
<path fill="#000000" opacity="1.00" d=" M 31.15 12.92 C 32.00 7.34 39.06 4.16 43.84 7.15 C 46.84 8.38 47.04 12.45 50.08 13.58 C 52.03 14.28 54.16 13.93 56.19 14.07 C 55.95 19.78 49.51 20.22 45.16 20.02 C 42.46 22.89 45.59 26.23 47.12 28.80 C 49.99 32.81 51.05 38.36 48.60 42.84 C 46.20 47.62 40.57 49.33 35.63 49.89 C 35.35 50.42 34.80 51.46 34.52 51.99 C 37.02 52.00 39.51 52.00 42.00 52.00 C 42.00 53.33 42.00 54.67 42.00 56.00 C 37.33 56.00 32.66 56.00 27.99 56.00 C 28.00 55.21 28.02 53.62 28.02 52.83 C 29.13 51.92 30.21 50.97 31.30 50.05 C 21.67 49.36 12.83 44.29 6.39 37.26 C 7.51 36.41 8.61 35.55 9.72 34.70 C 10.11 35.14 10.88 36.02 11.26 36.46 C 12.70 36.20 14.16 36.04 15.62 35.95 C 16.93 38.80 20.49 38.10 22.93 37.44 C 28.21 35.73 32.30 31.05 33.83 25.79 C 34.79 21.19 30.03 17.57 31.15 12.92 M 35.52 12.35 C 34.26 14.45 35.61 16.74 36.46 18.69 C 37.88 21.57 38.53 25.01 37.42 28.10 C 34.62 35.69 27.43 41.90 19.12 42.12 C 25.55 45.69 33.47 47.37 40.54 44.72 C 43.75 43.62 46.19 40.47 45.98 37.01 C 45.92 31.31 39.62 27.80 40.05 21.98 C 39.95 18.44 44.63 16.75 43.93 13.15 C 43.08 9.38 37.19 8.97 35.52 12.35 Z" />
<path fill="#000000" opacity="1.00" d=" M 39.32 13.18 C 40.31 11.63 42.82 13.36 41.67 14.82 C 40.68 16.36 38.18 14.64 39.32 13.18 Z" />
</g>
</svg>
