<?xml version="1.0" encoding="UTF-8" ?>
<!DOCTYPE svg PUBLIC "-//W3C//DTD SVG 1.1//EN" "http://www.w3.org/Graphics/SVG/1.1/DTD/svg11.dtd">
<svg width="64pt" height="64pt" viewBox="0 0 64 64" version="1.1" xmlns="http://www.w3.org/2000/svg">
<g id="#ffffffff">
<path fill="#ffffff" opacity="1.00" d=" M 0.00 0.00 L 64.00 0.00 L 64.00 64.00 L 0.00 64.00 L 0.00 0.00 M 15.62 10.62 C 11.71 13.96 12.13 19.71 13.56 24.16 C 14.03 21.32 14.52 18.45 15.86 15.87 C 16.29 16.38 17.14 17.38 17.57 17.89 C 17.97 13.99 21.81 10.82 25.70 12.37 C 28.81 13.59 29.07 17.36 28.16 20.13 C 29.77 21.78 31.40 23.40 33.03 25.03 C 35.40 22.20 36.90 18.20 35.18 14.65 C 31.98 7.46 21.50 5.98 15.62 10.62 M 21.68 24.16 C 19.74 22.83 17.79 21.49 15.91 20.07 C 15.90 22.04 15.90 24.02 15.93 25.99 C 13.90 27.25 11.92 28.57 9.96 29.94 C 10.98 29.96 13.00 30.00 14.01 30.02 C 14.00 31.00 13.99 32.96 13.98 33.94 C 16.36 31.59 19.05 29.60 21.94 27.92 C 20.57 29.88 19.25 31.86 17.95 33.86 C 18.79 33.74 20.45 33.51 21.28 33.39 C 23.45 34.97 25.07 37.18 24.24 39.99 C 25.46 39.31 26.68 38.66 27.92 38.02 C 26.17 36.23 24.63 34.24 23.66 31.91 C 27.55 31.72 31.51 32.73 34.03 35.90 C 34.65 34.72 35.28 33.54 35.91 32.37 C 34.71 31.69 32.65 31.69 32.35 29.99 C 30.57 24.17 23.59 21.92 21.78 16.02 C 21.32 18.72 21.31 21.45 21.68 24.16 M 44.15 27.80 C 44.01 27.34 43.72 26.42 43.58 25.96 C 40.92 29.63 38.88 33.72 35.80 37.08 C 36.48 37.55 37.85 38.48 38.54 38.94 C 39.98 35.07 42.65 31.82 46.23 29.74 C 48.28 30.17 50.24 30.85 52.10 31.80 C 53.67 30.08 55.52 28.61 57.74 27.82 C 54.66 27.09 51.52 26.50 48.33 26.67 C 48.71 25.94 49.47 24.48 49.85 23.75 C 47.85 24.95 45.91 26.26 44.15 27.80 M 28.07 33.68 C 28.64 34.47 29.23 35.27 29.82 36.06 C 28.77 41.72 35.72 42.76 37.59 47.13 C 38.10 49.53 38.29 52.04 39.61 54.19 C 39.69 53.20 39.85 51.22 39.93 50.22 C 41.13 51.91 42.17 53.86 44.05 54.89 C 46.40 56.32 49.25 55.84 51.85 55.85 C 51.37 55.46 50.40 54.69 49.92 54.30 C 52.49 53.34 55.37 51.84 55.78 48.81 C 56.56 45.88 54.49 43.51 52.47 41.73 C 52.15 43.24 52.56 45.15 51.27 46.30 C 49.93 47.59 47.96 47.72 46.26 48.25 C 47.62 46.39 48.08 44.21 46.59 42.25 C 41.08 45.87 37.25 38.11 31.96 37.75 C 31.33 35.81 29.94 34.45 28.07 33.68 M 5.87 41.95 C 6.66 41.97 8.25 41.99 9.04 42.00 C 8.18 46.02 7.70 50.35 9.82 54.08 C 10.14 53.17 10.77 51.33 11.08 50.41 C 14.42 54.50 19.81 57.01 25.10 55.67 C 29.78 54.85 32.62 50.64 34.81 46.81 C 33.58 45.58 32.36 44.35 31.13 43.13 C 29.17 45.30 27.28 48.32 24.02 48.45 C 21.50 48.29 18.88 46.59 18.46 43.95 C 17.92 41.11 19.49 38.49 20.56 35.98 C 19.06 36.66 17.56 37.34 16.07 38.02 C 16.03 37.51 15.97 36.50 15.93 36.00 C 14.63 36.67 13.33 37.34 12.04 38.02 C 12.01 37.00 11.94 34.97 11.91 33.95 C 9.45 36.26 7.46 38.99 5.87 41.95 Z" />
<path fill="#ffffff" opacity="1.00" d=" M 26.17 28.17 C 27.79 27.65 28.34 28.20 27.82 29.82 C 26.21 30.34 25.65 29.79 26.17 28.17 Z" />
</g>
<g id="#000000ff">
<path fill="#000000" opacity="1.00" d=" M 15.62 10.62 C 21.50 5.98 31.98 7.46 35.18 14.65 C 36.90 18.20 35.40 22.20 33.03 25.03 C 31.40 23.40 29.77 21.78 28.16 20.13 C 29.07 17.36 28.81 13.59 25.70 12.37 C 21.81 10.82 17.97 13.99 17.57 17.89 C 17.14 17.38 16.29 16.38 15.86 15.87 C 14.52 18.45 14.03 21.32 13.56 24.16 C 12.13 19.71 11.71 13.96 15.62 10.62 Z" />
<path fill="#000000" opacity="1.00" d=" M 21.68 24.16 C 21.31 21.45 21.32 18.72 21.78 16.02 C 23.59 21.92 30.57 24.17 32.35 29.99 C 32.65 31.69 34.71 31.69 35.91 32.37 C 35.28 33.54 34.65 34.72 34.03 35.90 C 31.51 32.73 27.55 31.72 23.66 31.91 C 24.63 34.24 26.17 36.23 27.92 38.02 C 26.68 38.66 25.46 39.31 24.24 39.99 C 25.07 37.18 23.45 34.97 21.28 33.39 C 20.45 33.51 18.79 33.74 17.95 33.86 C 19.25 31.86 20.57 29.88 21.94 27.92 C 19.05 29.60 16.36 31.59 13.98 33.94 C 13.99 32.96 14.00 31.00 14.01 30.02 C 13.00 30.00 10.98 29.96 9.96 29.94 C 11.92 28.57 13.90 27.25 15.93 25.99 C 15.90 24.02 15.90 22.04 15.91 20.07 C 17.79 21.49 19.74 22.83 21.68 24.16 M 26.17 28.17 C 25.65 29.79 26.21 30.34 27.82 29.82 C 28.34 28.20 27.79 27.65 26.17 28.17 Z" />
<path fill="#000000" opacity="1.00" d=" M 44.15 27.80 C 45.91 26.26 47.85 24.95 49.85 23.75 C 49.47 24.48 48.71 25.94 48.33 26.67 C 51.52 26.50 54.66 27.09 57.74 27.82 C 55.52 28.61 53.67 30.08 52.10 31.80 C 50.24 30.85 48.28 30.17 46.23 29.74 C 42.65 31.82 39.98 35.07 38.54 38.94 C 37.85 38.48 36.48 37.55 35.80 37.08 C 38.88 33.72 40.92 29.63 43.58 25.96 C 43.72 26.42 44.01 27.34 44.15 27.80 Z" />
<path fill="#000000" opacity="1.00" d=" M 28.07 33.68 C 29.94 34.45 31.33 35.81 31.96 37.75 C 37.25 38.11 41.08 45.87 46.59 42.25 C 48.08 44.21 47.62 46.39 46.26 48.25 C 47.96 47.72 49.93 47.59 51.27 46.30 C 52.56 45.15 52.15 43.24 52.47 41.73 C 54.49 43.51 56.56 45.88 55.78 48.81 C 55.37 51.84 52.49 53.34 49.92 54.30 C 50.40 54.69 51.37 55.46 51.85 55.85 C 49.25 55.84 46.40 56.32 44.05 54.89 C 42.17 53.86 41.13 51.91 39.93 50.22 C 39.85 51.22 39.69 53.20 39.61 54.19 C 38.29 52.04 38.10 49.53 37.59 47.13 C 35.72 42.76 28.77 41.72 29.82 36.06 C 29.23 35.27 28.64 34.47 28.07 33.68 Z" />
<path fill="#000000" opacity="1.00" d=" M 5.87 41.95 C 7.46 38.99 9.45 36.26 11.91 33.95 C 11.94 34.97 12.01 37.00 12.04 38.02 C 13.33 37.34 14.63 36.67 15.93 36.00 C 15.97 36.50 16.03 37.51 16.07 38.02 C 17.56 37.34 19.06 36.66 20.56 35.98 C 19.49 38.49 17.92 41.11 18.46 43.95 C 18.88 46.59 21.50 48.29 24.02 48.45 C 27.28 48.32 29.17 45.30 31.13 43.13 C 32.36 44.35 33.58 45.58 34.81 46.81 C 32.62 50.64 29.78 54.85 25.10 55.67 C 19.81 57.01 14.42 54.50 11.08 50.41 C 10.77 51.33 10.14 53.17 9.82 54.08 C 7.70 50.35 8.18 46.02 9.04 42.00 C 8.25 41.99 6.66 41.97 5.87 41.95 Z" />
</g>
</svg>
