<?xml version="1.0" encoding="UTF-8" ?>
<!DOCTYPE svg PUBLIC "-//W3C//DTD SVG 1.1//EN" "http://www.w3.org/Graphics/SVG/1.1/DTD/svg11.dtd">
<svg width="64pt" height="64pt" viewBox="0 0 64 64" version="1.1" xmlns="http://www.w3.org/2000/svg">
<g id="#ffffffff">
<path fill="#ffffff" opacity="1.00" d=" M 0.00 0.00 L 64.00 0.00 L 64.00 64.00 L 0.00 64.00 L 0.00 0.00 M 6.14 40.03 C 9.44 43.32 12.73 46.63 16.04 49.92 C 26.30 39.66 36.57 29.41 46.82 19.14 C 45.70 18.01 44.58 16.89 43.47 15.75 C 45.47 14.67 48.01 13.12 50.22 14.69 C 52.68 17.09 52.19 21.00 50.93 23.89 C 48.08 30.31 42.41 34.77 38.28 40.29 C 36.50 42.58 35.24 45.78 36.60 48.59 C 37.48 50.81 39.82 51.71 41.96 52.19 C 41.98 50.85 42.00 49.50 42.01 48.15 C 41.48 47.90 40.41 47.39 39.87 47.13 C 40.07 43.44 43.00 40.87 45.24 38.24 C 49.71 33.29 54.83 28.09 55.82 21.18 C 56.66 16.85 54.55 11.54 49.99 10.32 C 46.58 9.26 43.23 10.98 40.44 12.78 C 39.27 11.60 38.10 10.41 36.93 9.23 C 26.67 19.49 16.41 29.76 6.14 40.03 M 47.37 44.59 C 46.45 45.54 45.52 46.48 44.60 47.43 C 45.46 48.29 46.32 49.14 47.18 50.00 C 46.31 50.85 45.45 51.70 44.59 52.55 C 45.55 53.50 46.51 54.46 47.46 55.41 C 48.31 54.55 49.16 53.69 50.00 52.83 C 50.86 53.69 51.72 54.55 52.58 55.41 C 53.52 54.46 54.47 53.51 55.42 52.56 C 54.55 51.71 53.69 50.86 52.84 50.01 C 53.70 49.15 54.56 48.30 55.42 47.45 C 54.47 46.49 53.52 45.54 52.57 44.58 C 51.72 45.44 50.86 46.30 50.01 47.16 C 49.13 46.31 48.26 45.45 47.37 44.59 Z" />
<path fill="#ffffff" opacity="1.00" d=" M 11.80 40.03 C 20.19 31.66 28.53 23.24 36.96 14.90 C 38.35 16.32 39.76 17.73 41.17 19.13 C 32.80 27.52 24.42 35.88 16.04 44.26 C 14.63 42.85 13.21 41.44 11.80 40.03 Z" />
</g>
<g id="#000000ff">
<path fill="#000000" opacity="1.00" d=" M 6.14 40.03 C 16.41 29.76 26.67 19.49 36.93 9.23 C 38.10 10.41 39.27 11.60 40.44 12.78 C 43.23 10.98 46.58 9.26 49.99 10.32 C 54.55 11.54 56.66 16.85 55.82 21.18 C 54.83 28.09 49.71 33.29 45.24 38.24 C 43.00 40.87 40.07 43.44 39.87 47.13 C 40.41 47.39 41.48 47.90 42.01 48.15 C 42.00 49.50 41.98 50.85 41.96 52.19 C 39.82 51.71 37.48 50.81 36.60 48.59 C 35.24 45.78 36.50 42.58 38.28 40.29 C 42.41 34.77 48.08 30.31 50.93 23.89 C 52.19 21.00 52.68 17.09 50.22 14.69 C 48.01 13.12 45.47 14.67 43.47 15.75 C 44.58 16.89 45.70 18.01 46.82 19.14 C 36.57 29.41 26.30 39.66 16.04 49.92 C 12.73 46.63 9.44 43.32 6.14 40.03 M 11.80 40.03 C 13.21 41.44 14.63 42.85 16.04 44.26 C 24.42 35.88 32.80 27.52 41.17 19.13 C 39.76 17.73 38.35 16.32 36.96 14.90 C 28.53 23.24 20.19 31.66 11.80 40.03 Z" />
<path fill="#000000" opacity="1.00" d=" M 47.37 44.59 C 48.26 45.45 49.13 46.31 50.01 47.16 C 50.86 46.30 51.72 45.44 52.57 44.58 C 53.52 45.54 54.47 46.49 55.42 47.45 C 54.56 48.30 53.70 49.15 52.84 50.01 C 53.69 50.86 54.55 51.71 55.42 52.56 C 54.47 53.51 53.52 54.46 52.58 55.41 C 51.72 54.55 50.86 53.69 50.00 52.83 C 49.16 53.69 48.31 54.55 47.46 55.41 C 46.51 54.46 45.55 53.50 44.59 52.55 C 45.45 51.70 46.31 50.85 47.18 50.00 C 46.32 49.14 45.46 48.29 44.60 47.43 C 45.52 46.48 46.45 45.54 47.37 44.59 Z" />
</g>
</svg>
