<?xml version="1.0" encoding="UTF-8" ?>
<!DOCTYPE svg PUBLIC "-//W3C//DTD SVG 1.1//EN" "http://www.w3.org/Graphics/SVG/1.1/DTD/svg11.dtd">
<svg width="64pt" height="64pt" viewBox="0 0 64 64" version="1.1" xmlns="http://www.w3.org/2000/svg">
<g id="#ffffffff">
<path fill="#ffffff" opacity="1.00" d=" M 0.00 0.00 L 64.00 0.00 L 64.00 64.00 L 0.00 64.00 L 0.00 0.00 M 30.01 8.00 C 30.01 8.46 30.00 9.37 30.00 9.83 C 26.21 9.60 23.34 12.89 23.96 16.61 C 24.99 17.70 26.11 18.73 27.34 19.61 C 30.08 20.32 32.99 19.93 35.80 20.01 C 35.80 20.51 35.79 21.49 35.79 21.98 C 32.53 21.99 29.26 22.02 26.00 22.00 C 26.00 23.33 26.00 24.66 26.00 26.00 C 27.33 26.00 28.66 26.00 29.99 26.00 C 29.99 26.50 30.01 27.50 30.01 28.00 C 31.34 28.00 32.66 28.00 33.99 28.00 C 33.99 27.55 34.00 26.64 34.00 26.18 C 36.57 26.13 38.41 24.37 40.05 22.61 C 40.17 20.19 39.47 17.38 36.98 16.42 C 34.14 15.64 31.12 16.09 28.21 15.99 C 28.21 15.50 28.20 14.51 28.20 14.02 C 31.47 14.01 34.73 13.98 38.00 14.00 C 38.00 12.67 38.00 11.33 38.00 10.00 C 36.67 10.00 35.34 10.00 34.01 10.00 C 34.01 9.50 33.99 8.50 33.99 8.00 C 32.66 8.00 31.33 8.00 30.01 8.00 M 4.00 10.00 C 4.00 22.00 4.00 34.00 4.00 46.00 C 12.67 46.00 21.33 46.00 30.00 46.00 C 30.00 47.33 30.00 48.67 30.00 50.00 C 26.67 49.99 23.33 50.01 20.00 50.00 C 20.00 51.33 20.00 52.67 20.00 54.00 C 28.00 54.00 36.00 54.00 44.00 54.00 C 44.00 52.67 44.00 51.33 44.00 50.00 C 40.67 50.01 37.33 49.99 34.00 50.00 C 34.00 48.67 34.00 47.33 34.00 46.00 C 42.67 46.00 51.33 46.00 60.00 46.00 C 60.00 34.00 60.00 22.00 60.00 10.00 C 54.63 10.00 49.26 10.01 43.89 9.99 C 46.55 15.27 46.89 22.11 42.84 26.80 C 37.70 33.59 26.35 33.61 21.18 26.84 C 17.11 22.15 17.43 15.28 20.11 9.99 C 14.74 10.01 9.37 10.00 4.00 10.00 Z" />
<path fill="#ffffff" opacity="1.00" d=" M 8.00 14.00 C 10.23 14.00 12.46 14.00 14.69 13.99 C 11.36 24.73 20.97 36.35 31.98 35.99 C 43.01 36.36 52.63 24.74 49.31 13.99 C 51.54 14.00 53.77 14.00 56.00 14.00 C 56.00 23.33 56.00 32.67 56.00 42.00 C 40.00 42.00 24.00 42.00 8.00 42.00 C 8.00 32.67 8.00 23.33 8.00 14.00 Z" />
</g>
<g id="#000000ff">
<path fill="#000000" opacity="1.00" d=" M 30.01 8.00 C 31.33 8.00 32.66 8.00 33.99 8.00 C 33.99 8.50 34.01 9.50 34.01 10.00 C 35.34 10.00 36.67 10.00 38.00 10.00 C 38.00 11.33 38.00 12.67 38.00 14.00 C 34.73 13.98 31.47 14.01 28.20 14.02 C 28.20 14.51 28.21 15.50 28.21 15.99 C 31.12 16.09 34.14 15.64 36.98 16.42 C 39.47 17.38 40.17 20.19 40.05 22.61 C 38.41 24.37 36.57 26.13 34.00 26.18 C 34.00 26.64 33.99 27.55 33.99 28.00 C 32.66 28.00 31.34 28.00 30.01 28.00 C 30.01 27.50 29.99 26.50 29.99 26.00 C 28.66 26.00 27.33 26.00 26.00 26.00 C 26.00 24.66 26.00 23.33 26.00 22.00 C 29.26 22.02 32.53 21.99 35.79 21.98 C 35.79 21.49 35.80 20.51 35.80 20.01 C 32.99 19.93 30.08 20.32 27.34 19.61 C 26.11 18.73 24.99 17.70 23.96 16.61 C 23.34 12.89 26.21 9.60 30.00 9.83 C 30.00 9.37 30.01 8.46 30.01 8.00 Z" />
<path fill="#000000" opacity="1.00" d=" M 4.00 10.00 C 9.37 10.00 14.74 10.01 20.11 9.99 C 17.43 15.28 17.11 22.15 21.18 26.84 C 26.35 33.61 37.70 33.59 42.84 26.80 C 46.89 22.11 46.55 15.27 43.89 9.99 C 49.26 10.01 54.63 10.00 60.00 10.00 C 60.00 22.00 60.00 34.00 60.00 46.00 C 51.33 46.00 42.67 46.00 34.00 46.00 C 34.00 47.33 34.00 48.67 34.00 50.00 C 37.33 49.99 40.67 50.01 44.00 50.00 C 44.00 51.33 44.00 52.67 44.00 54.00 C 36.00 54.00 28.00 54.00 20.00 54.00 C 20.00 52.67 20.00 51.33 20.00 50.00 C 23.33 50.01 26.67 49.99 30.00 50.00 C 30.00 48.67 30.00 47.33 30.00 46.00 C 21.33 46.00 12.67 46.00 4.00 46.00 C 4.00 34.00 4.00 22.00 4.00 10.00 M 8.00 14.00 C 8.00 23.33 8.00 32.67 8.00 42.00 C 24.00 42.00 40.00 42.00 56.00 42.00 C 56.00 32.67 56.00 23.33 56.00 14.00 C 53.77 14.00 51.54 14.00 49.31 13.99 C 52.63 24.74 43.01 36.36 31.98 35.99 C 20.97 36.35 11.36 24.73 14.69 13.99 C 12.46 14.00 10.23 14.00 8.00 14.00 Z" />
</g>
</svg>
