<?xml version="1.0" encoding="UTF-8" ?>
<!DOCTYPE svg PUBLIC "-//W3C//DTD SVG 1.1//EN" "http://www.w3.org/Graphics/SVG/1.1/DTD/svg11.dtd">
<svg width="60pt" height="60pt" viewBox="0 0 60 60" version="1.1" xmlns="http://www.w3.org/2000/svg">
<g id="#ffffffff">
<path fill="#ffffff" opacity="1.00" d=" M 0.00 0.00 L 60.00 0.00 L 60.00 46.02 C 58.25 46.02 56.50 46.02 54.75 46.03 C 55.57 44.15 56.14 42.15 56.02 40.07 C 55.93 32.01 56.12 23.95 55.94 15.89 C 56.01 12.76 53.21 9.96 50.08 10.06 C 37.05 9.92 24.02 10.03 11.00 10.00 C 7.52 9.55 3.92 12.29 4.06 15.92 C 3.87 22.28 4.08 28.64 3.99 35.00 C 4.04 38.70 3.51 42.61 5.24 46.04 C 3.50 46.02 1.75 46.01 0.00 46.00 L 0.00 0.00 Z" />
<path fill="#ffffff" opacity="1.00" d=" M 9.10 14.17 C 22.05 13.75 35.03 14.14 47.99 13.99 C 49.43 13.99 51.99 13.77 51.92 15.88 C 52.06 24.60 52.05 33.34 51.93 42.06 C 52.12 43.63 50.30 44.15 49.08 43.99 C 36.39 44.01 23.70 44.00 11.01 43.99 C 9.77 44.15 7.87 43.68 8.07 42.06 C 7.89 34.04 8.07 26.02 7.99 18.00 C 8.13 16.68 7.65 14.91 9.10 14.17 M 17.14 22.19 C 15.29 22.93 15.87 26.08 17.93 25.92 C 25.98 26.06 34.05 26.07 42.09 25.91 C 44.59 26.10 44.55 21.85 42.05 22.08 C 33.76 22.01 25.42 21.80 17.14 22.19 M 17.08 32.21 C 15.29 33.01 15.90 36.12 17.96 35.92 C 23.32 36.07 28.70 36.07 34.05 35.92 C 36.60 36.12 36.58 31.86 34.04 32.08 C 28.40 32.00 22.71 31.79 17.08 32.21 Z" />
<path fill="#ffffff" opacity="1.00" d=" M 0.00 46.87 C 0.64 50.09 3.64 52.38 6.94 51.99 C 22.66 51.97 38.39 52.08 54.11 51.94 C 57.08 52.06 59.32 49.63 60.00 46.92 L 60.00 60.00 L 0.00 60.00 L 0.00 46.87 Z" />
</g>
<g id="#000000ff">
<path fill="#000000" opacity="1.00" d=" M 4.06 15.92 C 3.92 12.29 7.52 9.55 11.00 10.00 C 24.02 10.03 37.05 9.92 50.08 10.06 C 53.21 9.96 56.01 12.76 55.94 15.89 C 56.12 23.95 55.93 32.01 56.02 40.07 C 56.14 42.15 55.57 44.15 54.75 46.03 C 56.50 46.02 58.25 46.02 60.00 46.02 L 60.00 46.92 C 59.32 49.63 57.08 52.06 54.11 51.94 C 38.39 52.08 22.66 51.97 6.94 51.99 C 3.64 52.38 0.64 50.09 0.00 46.87 L 0.00 46.00 C 1.75 46.01 3.50 46.02 5.24 46.04 C 3.51 42.61 4.04 38.70 3.99 35.00 C 4.08 28.64 3.87 22.28 4.06 15.92 M 9.10 14.17 C 7.65 14.91 8.13 16.68 7.99 18.00 C 8.07 26.02 7.89 34.04 8.07 42.06 C 7.87 43.68 9.77 44.15 11.01 43.99 C 23.70 44.00 36.39 44.01 49.08 43.99 C 50.30 44.15 52.12 43.63 51.93 42.06 C 52.05 33.34 52.06 24.60 51.92 15.88 C 51.99 13.77 49.43 13.99 47.99 13.99 C 35.03 14.14 22.05 13.75 9.10 14.17 Z" />
<path fill="#000000" opacity="1.00" d=" M 17.14 22.19 C 25.42 21.80 33.76 22.01 42.05 22.08 C 44.55 21.85 44.59 26.10 42.09 25.91 C 34.05 26.07 25.98 26.06 17.93 25.92 C 15.87 26.08 15.29 22.93 17.14 22.19 Z" />
<path fill="#000000" opacity="1.00" d=" M 17.08 32.21 C 22.71 31.79 28.40 32.00 34.04 32.08 C 36.58 31.86 36.60 36.12 34.05 35.92 C 28.70 36.07 23.32 36.07 17.96 35.92 C 15.90 36.12 15.29 33.01 17.08 32.21 Z" />
</g>
</svg>
