<?xml version="1.0" encoding="UTF-8" ?>
<!DOCTYPE svg PUBLIC "-//W3C//DTD SVG 1.1//EN" "http://www.w3.org/Graphics/SVG/1.1/DTD/svg11.dtd">
<svg width="64pt" height="64pt" viewBox="0 0 64 64" version="1.1" xmlns="http://www.w3.org/2000/svg">
<g id="#ffffffff">
<path fill="#ffffff" opacity="1.00" d=" M 0.00 0.00 L 64.00 0.00 L 64.00 64.00 L 0.00 64.00 L 0.00 0.00 M 10.00 12.00 C 9.90 20.39 10.19 28.80 9.87 37.17 C 8.38 40.17 5.63 42.38 4.28 45.47 C 3.11 48.50 5.72 52.08 8.94 51.95 C 24.30 52.04 39.67 52.03 55.03 51.95 C 58.28 52.09 60.91 48.47 59.70 45.43 C 58.23 42.45 55.90 39.99 53.99 37.29 C 54.01 28.86 53.99 20.43 54.00 12.00 C 39.33 12.00 24.67 12.00 10.00 12.00 Z" />
<path fill="#ffffff" opacity="1.00" d=" M 14.00 16.00 C 26.00 16.00 38.00 16.00 50.00 16.00 C 50.00 22.67 50.00 29.33 50.00 36.00 C 38.00 36.00 26.00 36.00 14.00 36.00 C 14.00 29.33 14.00 22.67 14.00 16.00 M 20.00 20.00 C 20.00 21.33 20.00 22.67 20.00 24.00 C 28.00 24.00 36.00 24.00 44.00 24.00 C 44.00 22.67 44.00 21.33 44.00 20.00 C 36.00 20.00 28.00 20.00 20.00 20.00 M 20.00 28.00 C 20.00 29.33 20.00 30.67 20.00 32.00 C 26.67 32.00 33.33 32.00 40.00 32.00 C 40.00 30.67 40.00 29.33 40.00 28.00 C 33.33 28.00 26.67 28.00 20.00 28.00 Z" />
<path fill="#ffffff" opacity="1.00" d=" M 13.00 40.00 C 25.67 40.00 38.33 40.01 51.00 39.99 C 52.83 42.58 55.18 44.87 56.27 47.91 C 40.11 48.04 23.95 48.08 7.80 47.90 C 8.79 44.83 11.21 42.59 13.00 40.00 Z" />
</g>
<g id="#000000ff">
<path fill="#000000" opacity="1.00" d=" M 10.00 12.00 C 24.67 12.00 39.33 12.00 54.00 12.00 C 53.99 20.43 54.01 28.86 53.99 37.29 C 55.90 39.99 58.23 42.45 59.70 45.43 C 60.91 48.47 58.28 52.09 55.03 51.95 C 39.67 52.03 24.30 52.04 8.94 51.95 C 5.72 52.08 3.11 48.50 4.28 45.47 C 5.63 42.38 8.38 40.17 9.87 37.17 C 10.19 28.80 9.90 20.39 10.00 12.00 M 14.00 16.00 C 14.00 22.67 14.00 29.33 14.00 36.00 C 26.00 36.00 38.00 36.00 50.00 36.00 C 50.00 29.33 50.00 22.67 50.00 16.00 C 38.00 16.00 26.00 16.00 14.00 16.00 M 13.00 40.00 C 11.21 42.59 8.79 44.83 7.80 47.90 C 23.95 48.08 40.11 48.04 56.27 47.91 C 55.18 44.87 52.83 42.58 51.00 39.99 C 38.33 40.01 25.67 40.00 13.00 40.00 Z" />
<path fill="#000000" opacity="1.00" d=" M 20.00 20.00 C 28.00 20.00 36.00 20.00 44.00 20.00 C 44.00 21.33 44.00 22.67 44.00 24.00 C 36.00 24.00 28.00 24.00 20.00 24.00 C 20.00 22.67 20.00 21.33 20.00 20.00 Z" />
<path fill="#000000" opacity="1.00" d=" M 20.00 28.00 C 26.67 28.00 33.33 28.00 40.00 28.00 C 40.00 29.33 40.00 30.67 40.00 32.00 C 33.33 32.00 26.67 32.00 20.00 32.00 C 20.00 30.67 20.00 29.33 20.00 28.00 Z" />
</g>
</svg>
