<?xml version="1.0" encoding="UTF-8" ?>
<!DOCTYPE svg PUBLIC "-//W3C//DTD SVG 1.1//EN" "http://www.w3.org/Graphics/SVG/1.1/DTD/svg11.dtd">
<svg width="64pt" height="64pt" viewBox="0 0 64 64" version="1.1" xmlns="http://www.w3.org/2000/svg">
<g id="#ffffffff">
<path fill="#ffffff" opacity="1.00" d=" M 0.00 0.00 L 64.00 0.00 L 64.00 64.00 L 0.00 64.00 L 0.00 0.00 M 15.85 23.98 C 17.18 23.99 18.52 24.00 19.85 24.01 C 20.27 20.47 21.56 16.84 24.52 14.64 C 29.43 10.55 37.55 11.40 41.38 16.55 C 44.17 19.84 44.30 24.38 43.49 28.41 C 42.01 27.72 40.53 27.04 39.04 26.38 C 38.31 27.52 37.59 28.65 36.87 29.79 C 38.62 30.58 40.37 31.37 42.11 32.19 C 39.22 38.59 34.39 43.78 30.70 49.69 C 28.68 52.97 23.38 52.61 21.23 49.65 C 19.91 48.08 20.13 45.90 19.86 44.00 C 18.54 44.00 17.21 44.00 15.89 44.00 C 15.79 47.93 17.01 52.20 20.56 54.34 C 24.94 57.36 31.64 56.04 34.41 51.45 C 38.31 45.15 43.46 39.63 46.27 32.69 C 48.75 32.05 51.12 31.05 53.33 29.73 C 52.49 28.63 51.65 27.55 50.80 26.46 C 50.03 26.88 48.48 27.70 47.71 28.12 C 48.03 24.78 48.24 21.27 46.87 18.12 C 44.16 11.18 36.26 6.69 28.92 8.30 C 21.57 9.67 16.10 16.59 15.85 23.98 M 22.89 21.86 C 21.36 24.88 23.10 29.14 19.87 31.28 C 19.81 35.15 23.68 36.51 26.50 38.04 C 25.22 39.29 23.53 39.86 21.81 40.21 C 21.81 41.53 21.81 42.85 21.82 44.18 C 25.34 43.93 29.88 42.31 29.98 38.11 C 30.15 34.85 26.74 33.50 24.34 32.27 C 27.15 29.12 24.63 23.90 28.19 21.24 C 31.13 18.86 35.26 20.23 37.45 22.94 C 38.58 22.28 39.71 21.63 40.84 20.97 C 39.33 19.24 37.76 17.38 35.49 16.63 C 30.76 14.76 24.90 17.19 22.89 21.86 M 25.16 46.11 C 22.87 47.22 24.40 50.86 26.82 49.89 C 29.15 48.78 27.59 45.14 25.16 46.11 Z" />
</g>
<g id="#000000ff">
<path fill="#000000" opacity="1.00" d=" M 15.85 23.98 C 16.10 16.59 21.57 9.67 28.92 8.30 C 36.26 6.69 44.16 11.18 46.87 18.12 C 48.24 21.27 48.03 24.78 47.71 28.12 C 48.48 27.70 50.03 26.88 50.80 26.46 C 51.65 27.55 52.49 28.63 53.33 29.73 C 51.12 31.05 48.75 32.05 46.27 32.69 C 43.46 39.63 38.31 45.15 34.41 51.45 C 31.64 56.04 24.94 57.36 20.56 54.34 C 17.01 52.20 15.79 47.93 15.89 44.00 C 17.21 44.00 18.54 44.00 19.86 44.00 C 20.13 45.90 19.91 48.08 21.23 49.65 C 23.38 52.61 28.68 52.97 30.70 49.69 C 34.39 43.78 39.22 38.59 42.11 32.19 C 40.37 31.37 38.62 30.58 36.87 29.79 C 37.59 28.65 38.31 27.52 39.04 26.38 C 40.53 27.04 42.01 27.72 43.49 28.41 C 44.30 24.38 44.17 19.84 41.38 16.55 C 37.55 11.40 29.43 10.55 24.52 14.64 C 21.56 16.84 20.27 20.47 19.85 24.01 C 18.52 24.00 17.18 23.99 15.85 23.98 Z" />
<path fill="#000000" opacity="1.00" d=" M 22.89 21.86 C 24.90 17.19 30.76 14.76 35.49 16.63 C 37.76 17.38 39.33 19.24 40.84 20.97 C 39.71 21.63 38.58 22.28 37.45 22.94 C 35.26 20.23 31.13 18.86 28.19 21.24 C 24.63 23.90 27.15 29.12 24.34 32.27 C 26.74 33.50 30.15 34.85 29.98 38.11 C 29.88 42.31 25.34 43.93 21.82 44.18 C 21.81 42.85 21.81 41.53 21.81 40.21 C 23.53 39.86 25.22 39.29 26.50 38.04 C 23.68 36.51 19.81 35.15 19.87 31.28 C 23.10 29.14 21.36 24.88 22.89 21.86 Z" />
<path fill="#000000" opacity="1.00" d=" M 25.16 46.11 C 27.59 45.14 29.15 48.78 26.82 49.89 C 24.40 50.86 22.87 47.22 25.16 46.11 Z" />
</g>
</svg>
