<?xml version="1.0" encoding="UTF-8" ?>
<!DOCTYPE svg PUBLIC "-//W3C//DTD SVG 1.1//EN" "http://www.w3.org/Graphics/SVG/1.1/DTD/svg11.dtd">
<svg width="60pt" height="60pt" viewBox="0 0 60 60" version="1.1" xmlns="http://www.w3.org/2000/svg">
<g id="#ffffffff">
<path fill="#ffffff" opacity="1.00" d=" M 0.00 0.00 L 60.00 0.00 L 60.00 60.00 L 0.00 60.00 L 0.00 0.00 M 5.97 12.96 C 6.02 16.98 6.02 20.99 5.97 25.01 C 9.62 28.67 14.82 30.72 20.01 29.76 C 19.99 35.18 20.00 40.59 20.00 46.00 C 22.67 46.00 25.33 46.00 28.00 46.00 C 27.96 36.97 28.08 27.94 27.96 18.91 C 28.04 13.49 23.53 8.52 18.13 8.09 C 13.55 7.56 9.22 9.92 5.97 12.96 M 32.04 18.90 C 31.92 27.93 32.04 36.97 32.00 46.00 C 34.67 46.00 37.33 46.00 40.00 46.00 C 40.00 40.59 40.01 35.18 39.99 29.76 C 45.17 30.72 50.34 28.65 54.03 25.04 C 53.98 21.02 53.98 16.99 54.03 12.97 C 50.77 9.93 46.47 7.57 41.88 8.09 C 36.48 8.51 31.94 13.47 32.04 18.90 M 19.81 50.01 C 20.13 51.29 19.82 52.98 21.08 53.83 C 23.00 54.12 24.97 54.13 26.89 53.82 C 28.19 53.01 27.87 51.29 28.19 50.01 C 25.40 49.99 22.60 49.99 19.81 50.01 M 31.81 50.01 C 31.92 50.71 32.14 52.10 32.26 52.80 C 33.32 54.87 36.20 53.77 38.06 53.95 C 40.14 54.02 39.90 51.40 40.20 50.01 C 37.40 49.99 34.60 49.99 31.81 50.01 Z" />
<path fill="#ffffff" opacity="1.00" d=" M 11.14 16.10 C 13.54 15.13 15.18 18.77 12.83 19.85 C 10.43 20.91 8.86 17.22 11.14 16.10 Z" />
<path fill="#ffffff" opacity="1.00" d=" M 47.15 16.09 C 49.54 15.08 51.24 18.91 48.75 19.81 C 46.47 20.97 44.86 17.15 47.15 16.09 Z" />
<path fill="#ffffff" opacity="1.00" d=" M 24.16 18.18 C 25.78 17.64 26.33 18.19 25.83 19.82 C 24.21 20.35 23.66 19.80 24.16 18.18 Z" />
<path fill="#ffffff" opacity="1.00" d=" M 34.19 18.15 C 35.82 17.67 36.36 18.23 35.80 19.84 C 34.17 20.32 33.63 19.76 34.19 18.15 Z" />
</g>
<g id="#000000ff">
<path fill="#000000" opacity="1.00" d=" M 5.97 12.96 C 9.22 9.92 13.55 7.56 18.13 8.09 C 23.53 8.52 28.04 13.49 27.96 18.91 C 28.08 27.94 27.96 36.97 28.00 46.00 C 25.33 46.00 22.67 46.00 20.00 46.00 C 20.00 40.59 19.99 35.18 20.01 29.76 C 14.82 30.72 9.62 28.67 5.97 25.01 C 6.02 20.99 6.02 16.98 5.97 12.96 M 11.14 16.10 C 8.86 17.22 10.43 20.91 12.83 19.85 C 15.18 18.77 13.54 15.13 11.14 16.10 M 24.16 18.18 C 23.66 19.80 24.21 20.35 25.83 19.82 C 26.33 18.19 25.78 17.64 24.16 18.18 Z" />
<path fill="#000000" opacity="1.00" d=" M 32.04 18.90 C 31.94 13.47 36.48 8.51 41.88 8.09 C 46.47 7.57 50.77 9.93 54.03 12.97 C 53.98 16.99 53.98 21.02 54.03 25.04 C 50.34 28.65 45.17 30.72 39.99 29.76 C 40.01 35.18 40.00 40.59 40.00 46.00 C 37.33 46.00 34.67 46.00 32.00 46.00 C 32.04 36.97 31.92 27.93 32.04 18.90 M 47.15 16.09 C 44.86 17.15 46.47 20.97 48.75 19.81 C 51.24 18.91 49.54 15.08 47.15 16.09 M 34.19 18.15 C 33.63 19.76 34.17 20.32 35.80 19.84 C 36.36 18.23 35.82 17.67 34.19 18.15 Z" />
<path fill="#000000" opacity="1.00" d=" M 19.81 50.01 C 22.60 49.99 25.40 49.99 28.19 50.01 C 27.87 51.29 28.19 53.01 26.89 53.82 C 24.97 54.13 23.00 54.12 21.08 53.83 C 19.82 52.98 20.13 51.29 19.81 50.01 Z" />
<path fill="#000000" opacity="1.00" d=" M 31.81 50.01 C 34.60 49.99 37.40 49.99 40.20 50.01 C 39.90 51.40 40.14 54.02 38.06 53.95 C 36.20 53.77 33.32 54.87 32.26 52.80 C 32.14 52.10 31.92 50.71 31.81 50.01 Z" />
</g>
</svg>
