<?xml version="1.0" encoding="UTF-8" ?>
<!DOCTYPE svg PUBLIC "-//W3C//DTD SVG 1.1//EN" "http://www.w3.org/Graphics/SVG/1.1/DTD/svg11.dtd">
<svg width="64pt" height="64pt" viewBox="0 0 64 64" version="1.1" xmlns="http://www.w3.org/2000/svg">
<g id="#ffffffff">
<path fill="#ffffff" opacity="1.00" d=" M 0.00 0.00 L 64.00 0.00 L 64.00 64.00 L 0.00 64.00 L 0.00 0.00 M 28.06 7.70 C 27.81 10.34 27.56 12.98 27.31 15.62 C 21.00 16.70 14.69 17.76 8.37 18.82 C 10.10 29.35 11.92 39.85 13.69 50.37 C 11.68 50.71 9.69 51.04 7.69 51.38 C 7.84 52.36 8.16 54.33 8.32 55.31 C 17.22 54.40 26.03 51.00 35.04 52.53 C 41.96 53.20 48.89 53.87 55.81 54.56 C 55.90 53.56 56.10 51.57 56.19 50.57 C 54.86 50.44 53.52 50.31 52.19 50.18 C 53.43 36.91 54.69 23.64 55.93 10.37 C 46.63 9.54 37.36 8.47 28.06 7.70 Z" />
<path fill="#ffffff" opacity="1.00" d=" M 31.68 12.07 C 38.31 12.68 44.93 13.31 51.55 13.94 C 50.45 25.90 49.31 37.85 48.19 49.81 C 45.90 49.60 43.61 49.40 41.32 49.18 C 42.74 47.63 44.16 46.08 45.59 44.53 C 44.97 42.44 44.36 40.35 43.75 38.26 C 44.50 36.92 45.25 35.59 46.00 34.25 C 44.85 33.61 43.71 32.96 42.57 32.31 C 41.51 34.10 40.46 35.90 39.43 37.70 C 40.00 39.61 40.56 41.53 41.12 43.45 C 39.52 45.20 37.91 46.95 36.30 48.69 C 33.64 48.43 30.98 48.18 28.31 47.93 C 29.43 35.97 30.57 24.02 31.68 12.07 M 35.25 16.44 C 35.15 17.44 34.97 19.43 34.88 20.43 C 36.21 20.56 37.54 20.69 38.87 20.82 C 38.99 19.48 39.12 18.15 39.25 16.81 C 37.91 16.69 36.58 16.57 35.25 16.44 M 42.88 21.19 C 44.21 21.31 45.54 21.43 46.88 21.56 C 46.97 20.56 47.16 18.57 47.25 17.57 C 46.25 17.47 44.25 17.28 43.26 17.18 C 43.13 18.52 43.00 19.85 42.88 21.19 M 34.50 24.44 C 34.41 25.42 34.22 27.39 34.12 28.38 C 35.12 28.47 37.12 28.66 38.12 28.75 C 38.21 27.77 38.40 25.80 38.50 24.81 C 37.50 24.72 35.50 24.53 34.50 24.44 M 42.49 25.19 C 42.37 26.50 42.25 27.81 42.13 29.12 C 43.46 29.24 44.79 29.37 46.12 29.50 C 46.21 28.51 46.40 26.54 46.50 25.56 C 45.16 25.44 43.82 25.32 42.49 25.19 M 33.75 32.38 C 33.66 33.38 33.47 35.38 33.38 36.38 C 34.38 36.47 36.38 36.66 37.38 36.75 C 37.47 35.75 37.65 33.75 37.74 32.75 C 36.75 32.65 34.75 32.47 33.75 32.38 M 33.00 40.37 C 32.88 41.69 32.76 43.00 32.62 44.31 C 33.96 44.43 35.29 44.56 36.63 44.69 C 36.75 43.37 36.87 42.06 37.00 40.75 C 35.67 40.63 34.33 40.50 33.00 40.37 Z" />
<path fill="#ffffff" opacity="1.00" d=" M 12.94 22.13 C 17.61 21.33 22.28 20.53 26.95 19.75 C 26.68 21.36 27.13 23.40 25.58 24.48 C 26.78 30.81 24.94 37.17 24.71 43.52 C 24.58 42.77 24.31 41.26 24.17 40.51 C 23.19 40.66 21.23 40.97 20.25 41.12 C 20.48 42.43 20.71 43.74 20.94 45.06 C 21.86 44.92 23.70 44.64 24.62 44.51 C 24.53 45.52 24.35 47.54 24.26 48.55 C 22.05 48.94 19.84 49.31 17.62 49.68 C 16.06 40.50 14.49 31.31 12.94 22.13 M 17.56 25.37 C 17.79 26.68 18.02 28.00 18.25 29.31 C 19.56 29.08 20.88 28.85 22.19 28.62 C 21.95 27.31 21.72 26.00 21.50 24.69 C 20.51 24.86 18.55 25.20 17.56 25.37 M 18.94 33.24 C 19.15 34.56 19.36 35.87 19.56 37.19 C 20.88 36.96 22.19 36.73 23.50 36.50 C 23.29 35.19 23.08 33.88 22.87 32.56 C 21.56 32.79 20.25 33.02 18.94 33.24 Z" />
</g>
<g id="#000000ff">
<path fill="#000000" opacity="1.00" d=" M 28.06 7.70 C 37.36 8.47 46.63 9.54 55.93 10.37 C 54.69 23.64 53.43 36.91 52.19 50.18 C 53.52 50.31 54.86 50.44 56.19 50.57 C 56.10 51.57 55.90 53.56 55.81 54.56 C 48.89 53.87 41.96 53.20 35.04 52.53 C 26.03 51.00 17.22 54.40 8.32 55.31 C 8.16 54.33 7.84 52.36 7.69 51.38 C 9.69 51.04 11.68 50.71 13.69 50.37 C 11.92 39.85 10.10 29.35 8.37 18.82 C 14.69 17.76 21.00 16.70 27.31 15.62 C 27.56 12.98 27.81 10.34 28.06 7.70 M 31.68 12.07 C 30.57 24.02 29.43 35.97 28.31 47.93 C 30.98 48.18 33.64 48.43 36.30 48.69 C 37.91 46.95 39.52 45.20 41.12 43.45 C 40.56 41.53 40.00 39.61 39.43 37.70 C 40.46 35.90 41.51 34.10 42.57 32.31 C 43.71 32.96 44.85 33.61 46.00 34.25 C 45.25 35.59 44.50 36.92 43.75 38.26 C 44.36 40.35 44.97 42.44 45.59 44.53 C 44.16 46.08 42.74 47.63 41.32 49.18 C 43.61 49.40 45.90 49.60 48.19 49.81 C 49.31 37.85 50.45 25.90 51.55 13.94 C 44.93 13.31 38.31 12.68 31.68 12.07 M 12.94 22.13 C 14.49 31.31 16.06 40.50 17.62 49.68 C 19.84 49.31 22.05 48.94 24.26 48.55 C 24.35 47.54 24.53 45.52 24.62 44.51 C 23.70 44.64 21.86 44.92 20.94 45.06 C 20.71 43.74 20.48 42.43 20.25 41.12 C 21.23 40.97 23.19 40.66 24.17 40.51 C 24.31 41.26 24.58 42.77 24.71 43.52 C 24.94 37.17 26.78 30.81 25.58 24.48 C 27.13 23.40 26.68 21.36 26.95 19.75 C 22.28 20.53 17.61 21.33 12.94 22.13 Z" />
<path fill="#000000" opacity="1.00" d=" M 35.25 16.44 C 36.58 16.57 37.91 16.69 39.25 16.81 C 39.12 18.15 38.99 19.48 38.87 20.82 C 37.54 20.69 36.21 20.56 34.88 20.43 C 34.97 19.43 35.15 17.44 35.25 16.44 Z" />
<path fill="#000000" opacity="1.00" d=" M 42.88 21.19 C 43.00 19.85 43.13 18.52 43.26 17.18 C 44.25 17.28 46.25 17.47 47.25 17.57 C 47.16 18.57 46.97 20.56 46.88 21.56 C 45.54 21.43 44.21 21.31 42.88 21.19 Z" />
<path fill="#000000" opacity="1.00" d=" M 17.56 25.37 C 18.55 25.20 20.51 24.86 21.50 24.69 C 21.72 26.00 21.95 27.31 22.19 28.62 C 20.88 28.85 19.56 29.08 18.25 29.31 C 18.02 28.00 17.79 26.68 17.56 25.37 Z" />
<path fill="#000000" opacity="1.00" d=" M 34.50 24.44 C 35.50 24.53 37.50 24.72 38.50 24.81 C 38.40 25.80 38.21 27.77 38.12 28.75 C 37.12 28.66 35.12 28.47 34.12 28.38 C 34.22 27.39 34.41 25.42 34.50 24.44 Z" />
<path fill="#000000" opacity="1.00" d=" M 42.49 25.19 C 43.82 25.32 45.16 25.44 46.50 25.56 C 46.40 26.54 46.21 28.51 46.12 29.50 C 44.79 29.37 43.46 29.24 42.13 29.12 C 42.25 27.81 42.37 26.50 42.49 25.19 Z" />
<path fill="#000000" opacity="1.00" d=" M 18.94 33.24 C 20.25 33.02 21.56 32.79 22.87 32.56 C 23.08 33.88 23.29 35.19 23.50 36.50 C 22.19 36.73 20.88 36.96 19.56 37.19 C 19.36 35.87 19.15 34.56 18.94 33.24 Z" />
<path fill="#000000" opacity="1.00" d=" M 33.75 32.38 C 34.75 32.47 36.75 32.65 37.74 32.75 C 37.65 33.75 37.47 35.75 37.38 36.75 C 36.38 36.66 34.38 36.47 33.38 36.38 C 33.47 35.38 33.66 33.38 33.75 32.38 Z" />
<path fill="#000000" opacity="1.00" d=" M 33.00 40.37 C 34.33 40.50 35.67 40.63 37.00 40.75 C 36.87 42.06 36.75 43.37 36.63 44.69 C 35.29 44.56 33.96 44.43 32.62 44.31 C 32.76 43.00 32.88 41.69 33.00 40.37 Z" />
</g>
</svg>
