<?xml version="1.0" encoding="UTF-8" ?>
<!DOCTYPE svg PUBLIC "-//W3C//DTD SVG 1.1//EN" "http://www.w3.org/Graphics/SVG/1.1/DTD/svg11.dtd">
<svg width="60pt" height="60pt" viewBox="0 0 60 60" version="1.1" xmlns="http://www.w3.org/2000/svg">
<g id="#ffffffff">
<path fill="#ffffff" opacity="1.00" d=" M 0.00 0.00 L 60.00 0.00 L 60.00 60.00 L 0.00 60.00 L 0.00 0.00 M 23.15 8.23 C 17.47 13.47 12.12 19.09 6.67 24.57 C 4.99 26.00 6.77 28.78 8.79 27.82 C 14.09 23.07 18.89 17.78 24.01 12.83 C 28.90 17.65 33.66 22.61 38.61 27.36 C 40.03 28.97 42.85 27.18 41.81 25.19 C 39.73 22.57 37.14 20.42 34.85 18.00 C 35.90 16.94 36.95 15.88 38.00 14.82 C 42.45 19.10 46.59 23.72 51.20 27.82 C 53.19 28.77 54.97 26.10 53.39 24.64 C 48.60 19.75 43.84 14.79 38.80 10.17 C 35.73 9.83 34.22 13.56 32.01 15.18 C 29.59 12.88 27.44 10.28 24.82 8.21 C 24.40 8.21 23.56 8.22 23.15 8.23 M 7.09 36.22 C 5.27 36.99 5.91 40.15 7.98 39.91 C 21.99 40.13 36.02 39.92 50.04 40.01 C 51.42 40.01 54.19 40.13 53.92 38.03 C 54.24 35.85 51.41 35.98 49.98 35.99 C 35.69 36.16 21.36 35.70 7.09 36.22 M 7.09 46.22 C 5.27 46.98 5.92 50.16 7.98 49.91 C 22.33 50.11 36.69 49.97 51.04 49.98 C 52.23 50.09 54.34 49.60 53.92 47.96 C 54.18 45.85 51.40 46.00 50.01 45.98 C 35.71 46.16 21.37 45.70 7.09 46.22 Z" />
</g>
<g id="#000000ff">
<path fill="#000000" opacity="1.00" d=" M 23.15 8.23 C 23.56 8.22 24.40 8.21 24.82 8.21 C 27.44 10.28 29.59 12.88 32.01 15.18 C 34.22 13.56 35.73 9.83 38.80 10.17 C 43.84 14.79 48.60 19.75 53.39 24.64 C 54.97 26.10 53.19 28.77 51.20 27.82 C 46.59 23.72 42.45 19.10 38.00 14.82 C 36.95 15.88 35.90 16.94 34.85 18.00 C 37.14 20.42 39.73 22.57 41.81 25.19 C 42.85 27.18 40.03 28.97 38.61 27.36 C 33.66 22.61 28.90 17.65 24.01 12.83 C 18.89 17.78 14.09 23.07 8.79 27.82 C 6.77 28.78 4.99 26.00 6.67 24.57 C 12.12 19.09 17.47 13.47 23.15 8.23 Z" />
<path fill="#000000" opacity="1.00" d=" M 7.09 36.22 C 21.36 35.70 35.69 36.16 49.98 35.99 C 51.41 35.98 54.24 35.85 53.92 38.03 C 54.19 40.13 51.42 40.01 50.04 40.01 C 36.02 39.92 21.99 40.13 7.98 39.91 C 5.91 40.15 5.27 36.99 7.09 36.22 Z" />
<path fill="#000000" opacity="1.00" d=" M 7.09 46.22 C 21.37 45.70 35.71 46.16 50.01 45.98 C 51.40 46.00 54.18 45.85 53.92 47.96 C 54.34 49.60 52.23 50.09 51.04 49.98 C 36.69 49.97 22.33 50.11 7.98 49.91 C 5.92 50.16 5.27 46.98 7.09 46.22 Z" />
</g>
</svg>
