<?xml version="1.0" encoding="UTF-8" ?>
<!DOCTYPE svg PUBLIC "-//W3C//DTD SVG 1.1//EN" "http://www.w3.org/Graphics/SVG/1.1/DTD/svg11.dtd">
<svg width="60pt" height="60pt" viewBox="0 0 60 60" version="1.1" xmlns="http://www.w3.org/2000/svg">
<g id="#ffffffff">
<path fill="#ffffff" opacity="1.00" d=" M 0.00 0.00 L 60.00 0.00 L 60.00 60.00 L 0.00 60.00 L 0.00 0.00 M 25.87 10.73 C 24.72 21.37 23.72 32.02 22.61 42.67 C 21.82 42.62 20.25 42.52 19.47 42.47 C 20.10 33.33 20.74 24.19 21.39 15.06 C 16.89 15.72 12.33 15.99 7.88 16.89 C 6.10 17.40 6.25 19.46 6.48 20.89 C 7.53 28.99 8.55 37.09 9.57 45.19 C 4.98 44.92 4.98 51.48 7.14 53.84 C 13.39 54.22 19.68 53.89 25.95 54.00 C 23.99 52.64 22.03 51.30 20.05 49.98 C 23.36 48.66 26.68 47.33 29.99 46.00 C 28.67 44.75 27.33 43.52 26.00 42.28 C 27.99 40.86 29.98 39.44 31.98 38.03 C 31.32 39.35 30.67 40.68 30.00 42.00 C 32.00 43.33 34.00 44.67 35.99 46.00 C 34.00 47.33 32.01 48.66 30.02 49.99 C 33.66 51.43 36.91 54.56 41.07 54.02 C 45.00 53.88 48.95 54.24 52.87 53.83 C 54.33 53.08 53.92 51.31 54.04 49.99 C 53.91 48.64 54.42 46.77 52.95 45.97 C 50.85 45.40 48.66 45.24 46.52 44.91 C 47.53 34.56 48.63 24.22 49.64 13.87 C 49.97 12.47 49.55 10.53 47.87 10.29 C 41.58 9.45 35.24 8.95 28.92 8.31 C 27.39 7.94 25.85 9.15 25.87 10.73 Z" />
<path fill="#ffffff" opacity="1.00" d=" M 31.49 14.57 C 32.81 14.71 34.14 14.84 35.46 14.98 C 35.33 16.30 35.20 17.63 35.07 18.95 C 33.74 18.82 32.42 18.69 31.09 18.56 C 31.22 17.23 31.36 15.90 31.49 14.57 Z" />
<path fill="#ffffff" opacity="1.00" d=" M 39.45 15.38 C 40.77 15.51 42.10 15.65 43.43 15.78 C 43.29 17.11 43.16 18.43 43.03 19.76 C 41.70 19.63 40.38 19.50 39.06 19.37 C 39.18 18.04 39.31 16.71 39.45 15.38 Z" />
<path fill="#ffffff" opacity="1.00" d=" M 12.92 22.37 C 14.29 22.19 15.65 22.02 17.01 21.85 C 17.19 23.21 17.36 24.58 17.53 25.94 C 16.51 26.07 14.46 26.33 13.44 26.46 C 13.27 25.09 13.10 23.73 12.92 22.37 Z" />
<path fill="#ffffff" opacity="1.00" d=" M 30.68 22.54 C 31.67 22.64 33.66 22.83 34.65 22.93 C 34.56 23.93 34.36 25.91 34.27 26.90 C 33.27 26.81 31.28 26.61 30.29 26.52 C 30.39 25.52 30.58 23.53 30.68 22.54 Z" />
<path fill="#ffffff" opacity="1.00" d=" M 38.63 23.35 C 39.63 23.44 41.61 23.64 42.61 23.74 C 42.51 24.73 42.32 26.72 42.23 27.71 C 41.23 27.61 39.24 27.42 38.25 27.32 C 38.34 26.33 38.54 24.34 38.63 23.35 Z" />
<path fill="#ffffff" opacity="1.00" d=" M 13.97 30.56 C 15.33 30.38 16.69 30.21 18.05 30.04 C 17.98 31.43 17.92 32.82 17.85 34.22 C 16.72 34.36 15.60 34.50 14.48 34.64 C 14.31 33.28 14.14 31.92 13.97 30.56 Z" />
<path fill="#ffffff" opacity="1.00" d=" M 29.88 30.50 C 30.87 30.60 32.86 30.79 33.85 30.89 C 33.75 31.88 33.57 33.87 33.47 34.86 C 32.47 34.76 30.47 34.57 29.47 34.47 C 29.57 33.48 29.78 31.49 29.88 30.50 Z" />
<path fill="#ffffff" opacity="1.00" d=" M 37.84 31.31 C 38.83 31.40 40.81 31.59 41.80 31.69 C 41.71 32.68 41.52 34.68 41.42 35.67 C 40.43 35.57 38.44 35.38 37.44 35.28 C 37.54 34.28 37.74 32.30 37.84 31.31 Z" />
<path fill="#ffffff" opacity="1.00" d=" M 37.04 39.26 C 38.35 39.39 39.67 39.51 40.98 39.64 C 40.86 40.97 40.74 42.30 40.62 43.64 C 39.30 43.23 37.99 42.82 36.68 42.42 C 36.79 41.36 36.91 40.31 37.04 39.26 Z" />
</g>
<g id="#000000ff">
<path fill="#000000" opacity="1.00" d=" M 25.87 10.73 C 25.85 9.15 27.39 7.94 28.92 8.31 C 35.24 8.95 41.58 9.45 47.87 10.29 C 49.55 10.53 49.97 12.47 49.64 13.87 C 48.63 24.22 47.53 34.56 46.52 44.91 C 48.66 45.24 50.85 45.40 52.95 45.97 C 54.42 46.77 53.91 48.64 54.04 49.99 C 53.92 51.31 54.33 53.08 52.87 53.83 C 48.95 54.24 45.00 53.88 41.07 54.02 C 36.91 54.56 33.66 51.43 30.02 49.99 C 32.01 48.66 34.00 47.33 35.99 46.00 C 34.00 44.67 32.00 43.33 30.00 42.00 C 30.67 40.68 31.32 39.35 31.98 38.03 C 29.98 39.44 27.99 40.86 26.00 42.28 C 27.33 43.52 28.67 44.75 29.99 46.00 C 26.68 47.33 23.36 48.66 20.05 49.98 C 22.03 51.30 23.99 52.64 25.95 54.00 C 19.68 53.89 13.39 54.22 7.14 53.84 C 4.98 51.48 4.98 44.92 9.57 45.19 C 8.55 37.09 7.53 28.99 6.48 20.89 C 6.25 19.46 6.10 17.40 7.88 16.89 C 12.33 15.99 16.89 15.72 21.39 15.06 C 20.74 24.19 20.10 33.33 19.47 42.47 C 20.25 42.52 21.82 42.62 22.61 42.67 C 23.72 32.02 24.72 21.37 25.87 10.73 M 31.49 14.57 C 31.36 15.90 31.22 17.23 31.09 18.56 C 32.42 18.69 33.74 18.82 35.07 18.95 C 35.20 17.63 35.33 16.30 35.46 14.98 C 34.14 14.84 32.81 14.71 31.49 14.57 M 39.45 15.38 C 39.31 16.71 39.18 18.04 39.06 19.37 C 40.38 19.50 41.70 19.63 43.03 19.76 C 43.16 18.43 43.29 17.11 43.43 15.78 C 42.10 15.65 40.77 15.51 39.45 15.38 M 12.92 22.37 C 13.10 23.73 13.27 25.09 13.44 26.46 C 14.46 26.33 16.51 26.07 17.53 25.94 C 17.36 24.58 17.19 23.21 17.01 21.85 C 15.65 22.02 14.29 22.19 12.92 22.37 M 30.68 22.54 C 30.58 23.53 30.39 25.52 30.29 26.52 C 31.28 26.61 33.27 26.81 34.27 26.90 C 34.36 25.91 34.56 23.93 34.65 22.93 C 33.66 22.83 31.67 22.64 30.68 22.54 M 38.63 23.35 C 38.54 24.34 38.34 26.33 38.25 27.32 C 39.24 27.42 41.23 27.61 42.23 27.71 C 42.32 26.72 42.51 24.73 42.61 23.74 C 41.61 23.64 39.63 23.44 38.63 23.35 M 13.97 30.56 C 14.14 31.92 14.31 33.28 14.48 34.64 C 15.60 34.50 16.72 34.36 17.85 34.22 C 17.92 32.82 17.98 31.43 18.05 30.04 C 16.69 30.21 15.33 30.38 13.97 30.56 M 29.88 30.50 C 29.78 31.49 29.57 33.48 29.47 34.47 C 30.47 34.57 32.47 34.76 33.47 34.86 C 33.57 33.87 33.75 31.88 33.85 30.89 C 32.86 30.79 30.87 30.60 29.88 30.50 M 37.84 31.31 C 37.74 32.30 37.54 34.28 37.44 35.28 C 38.44 35.38 40.43 35.57 41.42 35.67 C 41.52 34.68 41.71 32.68 41.80 31.69 C 40.81 31.59 38.83 31.40 37.84 31.31 M 37.04 39.26 C 36.91 40.31 36.79 41.36 36.68 42.42 C 37.99 42.82 39.30 43.23 40.62 43.64 C 40.74 42.30 40.86 40.97 40.98 39.64 C 39.67 39.51 38.35 39.39 37.04 39.26 Z" />
</g>
</svg>
