<?xml version="1.0" encoding="UTF-8" ?>
<!DOCTYPE svg PUBLIC "-//W3C//DTD SVG 1.1//EN" "http://www.w3.org/Graphics/SVG/1.1/DTD/svg11.dtd">
<svg width="60pt" height="60pt" viewBox="0 0 60 60" version="1.1" xmlns="http://www.w3.org/2000/svg">
<g id="#ffffffff">
<path fill="#ffffff" opacity="1.00" d=" M 0.00 0.00 L 60.00 0.00 L 60.00 60.00 L 0.00 60.00 L 0.00 0.00 M 24.14 12.61 C 21.50 16.95 22.41 22.15 22.04 26.95 C 20.83 31.16 20.05 36.15 22.07 40.20 C 21.95 43.32 21.04 46.54 18.69 48.73 C 17.71 50.01 15.62 50.89 16.09 52.81 C 16.71 53.85 17.60 54.19 18.76 53.82 C 22.71 50.96 25.22 46.35 25.81 41.54 C 27.39 36.92 27.63 31.76 25.97 27.13 C 25.74 23.13 25.43 18.86 27.00 15.08 C 29.77 9.06 38.84 8.17 43.32 12.71 C 47.52 17.18 46.99 25.35 42.05 29.08 C 38.72 31.88 34.15 32.17 30.00 32.05 C 30.00 33.40 30.00 34.75 30.00 36.10 C 34.34 35.90 38.73 35.30 42.64 33.30 C 49.91 29.05 52.00 18.69 47.34 11.81 C 42.22 3.96 28.68 4.35 24.14 12.61 M 6.52 28.43 C 6.41 29.04 6.19 30.26 6.09 30.87 C 7.77 32.83 9.65 34.58 12.00 35.69 C 14.01 35.71 16.00 35.89 18.00 36.06 C 18.00 34.69 18.00 33.33 18.00 31.96 C 16.14 32.09 14.24 32.44 12.40 31.92 C 10.29 30.81 9.34 27.40 6.52 28.43 Z" />
</g>
<g id="#000000ff">
<path fill="#000000" opacity="1.00" d=" M 24.14 12.61 C 28.68 4.35 42.22 3.96 47.34 11.81 C 52.00 18.69 49.91 29.05 42.64 33.30 C 38.73 35.30 34.34 35.90 30.00 36.10 C 30.00 34.75 30.00 33.40 30.00 32.05 C 34.15 32.17 38.72 31.88 42.05 29.08 C 46.99 25.35 47.52 17.18 43.32 12.71 C 38.84 8.17 29.77 9.06 27.00 15.08 C 25.43 18.86 25.74 23.13 25.97 27.13 C 27.63 31.76 27.39 36.92 25.81 41.54 C 25.22 46.35 22.71 50.96 18.76 53.82 C 17.60 54.19 16.71 53.85 16.09 52.81 C 15.62 50.89 17.71 50.01 18.69 48.73 C 21.04 46.54 21.95 43.32 22.07 40.20 C 20.05 36.15 20.83 31.16 22.04 26.95 C 22.41 22.15 21.50 16.95 24.14 12.61 Z" />
<path fill="#000000" opacity="1.00" d=" M 6.52 28.43 C 9.34 27.40 10.29 30.81 12.40 31.92 C 14.24 32.44 16.14 32.09 18.00 31.96 C 18.00 33.33 18.00 34.69 18.00 36.06 C 16.00 35.89 14.01 35.71 12.00 35.69 C 9.65 34.58 7.77 32.83 6.09 30.87 C 6.19 30.26 6.41 29.04 6.52 28.43 Z" />
</g>
</svg>
