<?xml version="1.0" encoding="UTF-8" ?>
<!DOCTYPE svg PUBLIC "-//W3C//DTD SVG 1.1//EN" "http://www.w3.org/Graphics/SVG/1.1/DTD/svg11.dtd">
<svg width="60pt" height="60pt" viewBox="0 0 60 60" version="1.1" xmlns="http://www.w3.org/2000/svg">
<g id="#ffffffff">
<path fill="#ffffff" opacity="1.00" d=" M 0.00 0.00 L 60.00 0.00 L 60.00 60.00 L 0.00 60.00 L 0.00 0.00 M 25.17 7.18 C 18.50 10.55 14.12 17.15 11.55 23.98 C 23.85 24.01 36.15 24.02 48.45 23.98 C 45.93 17.34 41.76 10.94 35.39 7.46 C 32.28 5.70 28.36 5.52 25.17 7.18 M 11.29 28.40 C 9.27 30.48 9.57 34.59 11.99 36.30 C 13.99 34.99 14.28 32.35 13.78 30.20 C 13.43 29.37 12.25 26.44 11.29 28.40 M 22.36 28.36 C 19.62 29.49 19.13 33.72 21.75 35.26 C 24.18 37.23 28.07 35.03 28.01 32.02 C 28.08 29.26 24.87 27.04 22.36 28.36 M 36.38 28.35 C 33.65 29.47 33.12 33.66 35.71 35.23 C 38.15 37.25 42.11 35.03 42.00 31.98 C 42.05 29.24 38.88 27.07 36.38 28.35 M 47.24 28.41 C 45.27 30.62 45.64 34.54 47.97 36.38 C 49.91 34.98 50.33 32.41 49.78 30.21 C 49.49 29.35 48.10 26.39 47.24 28.41 M 10.84 40.05 C 12.00 43.06 13.49 46.01 15.77 48.33 C 22.25 54.84 33.32 55.76 41.01 50.91 C 45.03 48.50 47.56 44.34 49.16 40.05 C 36.39 39.97 23.61 39.96 10.84 40.05 Z" />
</g>
<g id="#000000ff">
<path fill="#968176" opacity="1.00" d=" M 25.17 7.18 C 28.36 5.52 32.28 5.70 35.39 7.46 C 41.76 10.94 45.93 17.34 48.45 23.98 C 36.15 24.02 23.85 24.01 11.55 23.98 C 14.12 17.15 18.50 10.55 25.17 7.18 Z" />
<path fill="#968176" opacity="1.00" d=" M 11.29 28.40 C 12.25 26.44 13.43 29.37 13.78 30.20 C 14.28 32.35 13.99 34.99 11.99 36.30 C 9.57 34.59 9.27 30.48 11.29 28.40 Z" />
<path fill="#968176" opacity="1.00" d=" M 22.36 28.36 C 24.87 27.04 28.08 29.26 28.01 32.02 C 28.07 35.03 24.18 37.23 21.75 35.26 C 19.13 33.72 19.62 29.49 22.36 28.36 Z" />
<path fill="#968176" opacity="1.00" d=" M 36.38 28.35 C 38.88 27.07 42.05 29.24 42.00 31.98 C 42.11 35.03 38.15 37.25 35.71 35.23 C 33.12 33.66 33.65 29.47 36.38 28.35 Z" />
<path fill="#968176" opacity="1.00" d=" M 47.24 28.41 C 48.10 26.39 49.49 29.35 49.78 30.21 C 50.33 32.41 49.91 34.98 47.97 36.38 C 45.64 34.54 45.27 30.62 47.24 28.41 Z" />
<path fill="#968176" opacity="1.00" d=" M 10.84 40.05 C 23.61 39.96 36.39 39.97 49.16 40.05 C 47.56 44.34 45.03 48.50 41.01 50.91 C 33.32 55.76 22.25 54.84 15.77 48.33 C 13.49 46.01 12.00 43.06 10.84 40.05 Z" />
</g>
</svg>
