<?xml version="1.0" encoding="UTF-8" ?>
<!DOCTYPE svg PUBLIC "-//W3C//DTD SVG 1.1//EN" "http://www.w3.org/Graphics/SVG/1.1/DTD/svg11.dtd">
<svg width="60pt" height="60pt" viewBox="0 0 60 60" version="1.1" xmlns="http://www.w3.org/2000/svg">
<g id="#ffffffff">
<path fill="#ffffff" opacity="1.00" d=" M 0.00 0.00 L 22.98 0.00 C 21.35 1.88 21.39 6.74 24.86 5.91 C 26.79 4.49 25.76 1.91 25.41 0.00 L 60.00 0.00 L 60.00 60.00 L 0.00 60.00 L 0.00 0.00 M 13.15 4.05 C 9.63 6.20 15.84 12.31 17.92 8.80 C 18.13 6.42 15.53 3.86 13.15 4.05 M 33.21 4.15 C 31.80 5.35 29.67 6.67 30.07 8.82 C 31.59 11.37 34.28 8.99 35.44 7.36 C 36.98 5.89 35.19 3.18 33.21 4.15 M 43.49 7.34 C 36.29 14.44 29.19 21.65 22.02 28.78 C 19.54 24.84 17.72 19.50 12.77 18.10 C 10.31 17.12 6.47 17.90 6.02 20.89 C 6.99 23.65 10.52 24.81 11.13 27.78 C 12.10 31.26 12.57 34.89 13.86 38.28 C 15.29 41.86 18.43 44.27 21.02 46.98 C 23.07 48.93 24.87 51.18 27.24 52.76 C 30.67 54.86 35.37 54.04 38.06 51.12 C 42.50 46.56 47.26 42.28 51.44 37.49 C 53.24 34.78 50.19 31.49 47.26 32.59 C 47.90 31.17 48.99 29.50 47.86 27.99 C 47.06 26.35 45.02 26.40 43.48 26.51 C 46.64 23.69 43.34 19.20 39.62 20.51 C 42.62 17.92 45.42 15.08 48.14 12.20 C 49.24 11.19 50.00 9.47 49.23 8.05 C 48.37 5.69 44.95 5.39 43.49 7.34 Z" />
</g>
<g id="#000000ff">
<path fill="#000000" opacity="1.00" d=" M 22.98 0.00 L 25.41 0.00 C 25.76 1.91 26.79 4.49 24.86 5.91 C 21.39 6.74 21.35 1.88 22.98 0.00 Z" />
<path fill="#000000" opacity="1.00" d=" M 13.15 4.05 C 15.53 3.86 18.13 6.42 17.92 8.80 C 15.84 12.31 9.63 6.20 13.15 4.05 Z" />
<path fill="#000000" opacity="1.00" d=" M 33.21 4.15 C 35.19 3.18 36.98 5.89 35.44 7.36 C 34.28 8.99 31.59 11.37 30.07 8.82 C 29.67 6.67 31.80 5.35 33.21 4.15 Z" />
<path fill="#000000" opacity="1.00" d=" M 43.49 7.34 C 44.95 5.39 48.37 5.69 49.23 8.05 C 50.00 9.47 49.24 11.19 48.14 12.20 C 45.42 15.08 42.62 17.92 39.62 20.51 C 43.34 19.20 46.64 23.69 43.48 26.51 C 45.02 26.40 47.06 26.35 47.86 27.99 C 48.99 29.50 47.90 31.17 47.26 32.59 C 50.19 31.49 53.24 34.78 51.44 37.49 C 47.26 42.28 42.50 46.56 38.06 51.12 C 35.37 54.04 30.67 54.86 27.24 52.76 C 24.87 51.18 23.07 48.93 21.02 46.98 C 18.43 44.27 15.29 41.86 13.86 38.28 C 12.57 34.89 12.10 31.26 11.13 27.78 C 10.52 24.81 6.99 23.65 6.02 20.89 C 6.47 17.90 10.31 17.12 12.77 18.10 C 17.72 19.50 19.54 24.84 22.02 28.78 C 29.19 21.65 36.29 14.44 43.49 7.34 Z" />
</g>
</svg>
