<?xml version="1.0" encoding="UTF-8" ?>
<!DOCTYPE svg PUBLIC "-//W3C//DTD SVG 1.1//EN" "http://www.w3.org/Graphics/SVG/1.1/DTD/svg11.dtd">
<svg width="64pt" height="64pt" viewBox="0 0 64 64" version="1.1" xmlns="http://www.w3.org/2000/svg">
<g id="#ffffffff">
<path fill="#ffffff" opacity="1.00" d=" M 0.00 0.00 L 64.00 0.00 L 64.00 64.00 L 0.00 64.00 L 0.00 0.00 M 18.35 8.35 C 16.55 9.09 15.84 11.11 16.00 12.93 C 16.03 25.95 15.94 38.98 16.04 52.00 C 15.96 54.11 17.89 56.03 19.99 55.96 C 28.00 56.04 36.00 56.04 44.01 55.96 C 46.55 56.06 48.35 53.45 48.00 51.06 C 47.97 38.04 48.06 25.02 47.96 11.99 C 48.06 9.45 45.46 7.64 43.07 8.00 C 34.84 8.22 26.52 7.54 18.35 8.35 Z" />
<path fill="#ffffff" opacity="1.00" d=" M 20.01 12.00 C 28.00 12.00 36.00 11.99 43.99 12.01 C 44.00 25.34 44.00 38.66 43.99 51.99 C 36.00 52.01 28.00 52.00 20.01 52.00 C 20.00 38.66 20.00 25.33 20.01 12.00 M 24.00 18.02 C 24.00 19.34 24.00 20.66 24.00 21.98 C 29.33 22.01 34.67 22.01 40.00 21.98 C 40.00 20.66 40.00 19.34 40.00 18.02 C 34.67 17.99 29.33 17.99 24.00 18.02 M 24.00 26.02 C 24.00 27.34 24.00 28.66 24.00 29.98 C 28.00 30.02 32.00 30.02 36.00 29.98 C 36.00 28.66 36.00 27.34 36.00 26.02 C 32.00 25.98 28.00 25.98 24.00 26.02 M 24.00 34.02 C 24.00 35.34 24.00 36.66 24.00 37.98 C 29.33 38.01 34.67 38.01 40.00 37.98 C 40.00 36.66 40.00 35.34 40.00 34.02 C 34.67 33.99 29.33 33.99 24.00 34.02 M 28.00 46.01 C 28.00 47.34 28.00 48.66 28.00 49.99 C 30.67 50.00 33.33 50.00 36.00 49.99 C 36.00 48.66 36.00 47.34 36.00 46.01 C 33.33 45.99 30.67 45.99 28.00 46.01 Z" />
</g>
<g id="#000000ff">
<path fill="#000000" opacity="1.00" d=" M 18.35 8.35 C 26.52 7.54 34.84 8.22 43.07 8.00 C 45.46 7.64 48.06 9.45 47.96 11.99 C 48.06 25.02 47.97 38.04 48.00 51.06 C 48.35 53.45 46.55 56.06 44.01 55.96 C 36.00 56.04 28.00 56.04 19.99 55.96 C 17.89 56.03 15.96 54.11 16.04 52.00 C 15.94 38.98 16.03 25.95 16.00 12.93 C 15.84 11.11 16.55 9.09 18.35 8.35 M 20.01 12.00 C 20.00 25.33 20.00 38.66 20.01 52.00 C 28.00 52.00 36.00 52.01 43.99 51.99 C 44.00 38.66 44.00 25.34 43.99 12.01 C 36.00 11.99 28.00 12.00 20.01 12.00 Z" />
<path fill="#000000" opacity="1.00" d=" M 24.00 18.02 C 29.33 17.99 34.67 17.99 40.00 18.02 C 40.00 19.34 40.00 20.66 40.00 21.98 C 34.67 22.01 29.33 22.01 24.00 21.98 C 24.00 20.66 24.00 19.34 24.00 18.02 Z" />
<path fill="#000000" opacity="1.00" d=" M 24.00 26.02 C 28.00 25.98 32.00 25.98 36.00 26.02 C 36.00 27.34 36.00 28.66 36.00 29.98 C 32.00 30.02 28.00 30.02 24.00 29.98 C 24.00 28.66 24.00 27.34 24.00 26.02 Z" />
<path fill="#000000" opacity="1.00" d=" M 24.00 34.02 C 29.33 33.99 34.67 33.99 40.00 34.02 C 40.00 35.34 40.00 36.66 40.00 37.98 C 34.67 38.01 29.33 38.01 24.00 37.98 C 24.00 36.66 24.00 35.34 24.00 34.02 Z" />
<path fill="#000000" opacity="1.00" d=" M 28.00 46.01 C 30.67 45.99 33.33 45.99 36.00 46.01 C 36.00 47.34 36.00 48.66 36.00 49.99 C 33.33 50.00 30.67 50.00 28.00 49.99 C 28.00 48.66 28.00 47.34 28.00 46.01 Z" />
</g>
</svg>
