<?xml version="1.0" encoding="UTF-8" ?>
<!DOCTYPE svg PUBLIC "-//W3C//DTD SVG 1.1//EN" "http://www.w3.org/Graphics/SVG/1.1/DTD/svg11.dtd">
<svg width="60pt" height="60pt" viewBox="0 0 60 60" version="1.1" xmlns="http://www.w3.org/2000/svg">
<g id="#ffffffff">
<path fill="#ffffff" opacity="1.00" d=" M 0.00 0.00 L 60.00 0.00 L 60.00 60.00 L 0.00 60.00 L 0.00 0.00 M 12.37 10.58 C 7.55 12.05 3.99 16.82 4.04 21.88 C 3.97 29.94 3.95 38.00 4.05 46.05 C 3.91 48.61 6.55 50.31 8.90 50.00 C 20.61 49.98 32.34 50.06 44.05 49.96 C 50.42 50.09 56.09 44.41 55.96 38.04 C 56.07 30.34 55.98 22.63 56.00 14.93 C 56.31 12.57 54.62 9.91 52.04 10.05 C 41.36 9.90 30.67 10.07 19.99 9.98 C 17.45 10.01 14.84 9.86 12.37 10.58 Z" />
<path fill="#ffffff" opacity="1.00" d=" M 12.00 24.00 C 14.74 24.00 17.48 24.00 20.23 24.00 C 20.22 24.62 20.22 25.85 20.22 26.47 C 18.50 26.47 16.79 26.46 15.07 26.46 C 15.06 27.06 15.04 28.26 15.03 28.86 C 16.66 28.87 18.29 28.86 19.92 28.87 C 19.92 29.42 19.92 30.51 19.92 31.06 C 18.29 31.07 16.66 31.07 15.03 31.08 C 15.04 31.70 15.07 32.93 15.08 33.54 C 16.79 33.54 18.51 33.53 20.23 33.53 C 20.23 34.15 20.23 35.38 20.23 36.00 C 17.49 36.00 14.74 36.00 12.00 36.00 C 12.00 32.00 12.00 28.00 12.00 24.00 Z" />
<path fill="#ffffff" opacity="1.00" d=" M 28.03 36.03 C 22.19 34.59 22.77 24.09 29.02 23.78 C 32.13 23.24 34.71 25.62 35.37 28.52 C 32.65 29.23 31.39 26.01 28.86 26.33 C 26.54 27.80 26.42 31.81 28.59 33.44 C 31.22 34.63 32.53 30.49 35.37 31.47 C 34.78 34.84 31.35 37.11 28.03 36.03 Z" />
<path fill="#ffffff" opacity="1.00" d=" M 42.12 24.01 C 45.55 22.80 49.66 25.23 49.77 28.98 C 50.64 32.94 47.18 37.12 43.02 36.18 C 36.96 35.64 36.41 25.54 42.12 24.01 M 42.26 26.92 C 40.57 28.92 40.81 33.45 43.98 33.73 C 48.78 33.51 46.87 23.68 42.26 26.92 Z" />
</g>
<g id="#000000ff">
<path fill="#000000" opacity="1.00" d=" M 12.37 10.58 C 14.84 9.86 17.45 10.01 19.99 9.98 C 30.67 10.07 41.36 9.90 52.04 10.05 C 54.62 9.91 56.31 12.57 56.00 14.93 C 55.98 22.63 56.07 30.34 55.96 38.04 C 56.09 44.41 50.42 50.09 44.05 49.96 C 32.34 50.06 20.61 49.98 8.90 50.00 C 6.55 50.31 3.91 48.61 4.05 46.05 C 3.95 38.00 3.97 29.94 4.04 21.88 C 3.99 16.82 7.55 12.05 12.37 10.58 M 12.00 24.00 C 12.00 28.00 12.00 32.00 12.00 36.00 C 14.74 36.00 17.49 36.00 20.23 36.00 C 20.23 35.38 20.23 34.15 20.23 33.53 C 18.51 33.53 16.79 33.54 15.08 33.54 C 15.07 32.93 15.04 31.70 15.03 31.08 C 16.66 31.07 18.29 31.07 19.92 31.06 C 19.92 30.51 19.92 29.42 19.92 28.87 C 18.29 28.86 16.66 28.87 15.03 28.86 C 15.04 28.26 15.06 27.06 15.07 26.46 C 16.79 26.46 18.50 26.47 20.22 26.47 C 20.22 25.85 20.22 24.62 20.23 24.00 C 17.48 24.00 14.74 24.00 12.00 24.00 M 28.03 36.03 C 31.35 37.11 34.78 34.84 35.37 31.47 C 32.53 30.49 31.22 34.63 28.59 33.44 C 26.42 31.81 26.54 27.80 28.86 26.33 C 31.39 26.01 32.65 29.23 35.37 28.52 C 34.71 25.62 32.13 23.24 29.02 23.78 C 22.77 24.09 22.19 34.59 28.03 36.03 M 42.12 24.01 C 36.41 25.54 36.96 35.64 43.02 36.18 C 47.18 37.12 50.64 32.94 49.77 28.98 C 49.66 25.23 45.55 22.80 42.12 24.01 Z" />
<path fill="#000000" opacity="1.00" d=" M 42.26 26.92 C 46.87 23.68 48.78 33.51 43.98 33.73 C 40.81 33.45 40.57 28.92 42.26 26.92 Z" />
</g>
</svg>
