<?xml version="1.0" encoding="UTF-8" ?>
<!DOCTYPE svg PUBLIC "-//W3C//DTD SVG 1.1//EN" "http://www.w3.org/Graphics/SVG/1.1/DTD/svg11.dtd">
<svg width="64pt" height="64pt" viewBox="0 0 64 64" version="1.1" xmlns="http://www.w3.org/2000/svg">
<g id="#ffffffff">
<path fill="#ffffff" opacity="1.00" d=" M 0.00 0.00 L 64.00 0.00 L 64.00 64.00 L 0.00 64.00 L 0.00 0.00 M 12.00 8.00 C 12.00 24.00 12.00 40.00 12.00 56.00 C 25.33 56.00 38.67 56.00 52.00 56.00 C 52.00 40.00 52.00 24.00 52.00 8.00 C 38.67 8.00 25.33 8.00 12.00 8.00 Z" />
<path fill="#ffffff" opacity="1.00" d=" M 16.00 12.00 C 26.67 12.00 37.33 12.00 48.00 12.00 C 48.00 22.67 48.00 33.33 48.00 44.00 C 37.33 44.00 26.67 44.00 16.00 44.00 C 16.00 33.33 16.00 22.67 16.00 12.00 M 33.46 17.56 C 30.01 18.79 25.89 19.45 23.62 22.64 C 20.67 26.73 21.84 33.05 26.37 35.47 C 26.29 36.99 26.14 38.49 25.93 39.99 C 27.26 39.98 28.60 39.99 29.93 40.01 C 29.62 35.55 30.94 31.08 34.50 28.20 C 33.64 27.19 32.78 26.18 31.93 25.16 C 30.05 27.02 28.49 29.15 27.12 31.40 C 25.65 29.12 25.39 25.56 27.96 23.94 C 30.76 22.33 33.97 21.65 36.98 20.53 C 37.67 24.59 38.87 29.07 37.13 32.99 C 35.07 34.14 32.57 34.62 31.39 37.01 C 34.71 38.82 39.48 37.98 40.96 34.19 C 43.16 28.25 41.44 21.75 39.76 15.89 C 37.57 16.05 35.48 16.72 33.46 17.56 Z" />
<path fill="#ffffff" opacity="1.00" d=" M 16.00 48.00 C 26.67 48.00 37.33 48.00 48.00 48.00 C 48.00 49.33 48.00 50.67 48.00 52.00 C 37.33 52.00 26.67 52.00 16.00 52.00 C 16.00 50.67 16.00 49.33 16.00 48.00 Z" />
</g>
<g id="#000000ff">
<path fill="#000000" opacity="1.00" d=" M 12.00 8.00 C 25.33 8.00 38.67 8.00 52.00 8.00 C 52.00 24.00 52.00 40.00 52.00 56.00 C 38.67 56.00 25.33 56.00 12.00 56.00 C 12.00 40.00 12.00 24.00 12.00 8.00 M 16.00 12.00 C 16.00 22.67 16.00 33.33 16.00 44.00 C 26.67 44.00 37.33 44.00 48.00 44.00 C 48.00 33.33 48.00 22.67 48.00 12.00 C 37.33 12.00 26.67 12.00 16.00 12.00 M 16.00 48.00 C 16.00 49.33 16.00 50.67 16.00 52.00 C 26.67 52.00 37.33 52.00 48.00 52.00 C 48.00 50.67 48.00 49.33 48.00 48.00 C 37.33 48.00 26.67 48.00 16.00 48.00 Z" />
<path fill="#000000" opacity="1.00" d=" M 33.46 17.56 C 35.48 16.72 37.57 16.05 39.76 15.89 C 41.44 21.75 43.16 28.25 40.96 34.19 C 39.48 37.98 34.71 38.82 31.39 37.01 C 32.57 34.62 35.07 34.14 37.13 32.99 C 38.87 29.07 37.67 24.59 36.98 20.53 C 33.97 21.65 30.76 22.33 27.96 23.94 C 25.39 25.56 25.65 29.12 27.12 31.40 C 28.49 29.15 30.05 27.02 31.93 25.16 C 32.78 26.18 33.64 27.19 34.50 28.20 C 30.94 31.08 29.62 35.55 29.93 40.01 C 28.60 39.99 27.26 39.98 25.93 39.99 C 26.14 38.49 26.29 36.99 26.37 35.47 C 21.84 33.05 20.67 26.73 23.62 22.64 C 25.89 19.45 30.01 18.79 33.46 17.56 Z" />
</g>
</svg>
