<?xml version="1.0" encoding="UTF-8" ?>
<!DOCTYPE svg PUBLIC "-//W3C//DTD SVG 1.1//EN" "http://www.w3.org/Graphics/SVG/1.1/DTD/svg11.dtd">
<svg width="60pt" height="60pt" viewBox="0 0 60 60" version="1.1" xmlns="http://www.w3.org/2000/svg">
<g id="#ffffffff">
<path fill="#ffffff" opacity="1.00" d=" M 0.00 0.00 L 60.00 0.00 L 60.00 56.30 C 59.52 55.05 58.81 53.90 58.13 52.74 C 56.37 54.46 54.61 56.19 52.85 57.90 C 53.85 58.71 54.87 59.53 56.09 60.00 L 0.00 60.00 L 0.00 0.00 M 10.04 7.92 C 9.97 22.63 9.97 37.34 10.04 52.04 C 9.93 54.12 11.84 55.97 13.88 55.95 C 24.36 56.07 34.85 55.97 45.33 56.00 C 41.41 51.84 37.04 48.10 33.39 43.71 C 32.73 40.66 31.55 37.34 32.40 34.25 C 34.06 30.84 38.25 32.34 41.16 32.76 C 45.16 33.05 47.20 36.99 49.99 39.33 C 49.86 32.27 50.30 25.17 49.79 18.13 C 45.34 13.32 40.64 8.69 35.86 4.21 C 28.94 3.72 21.95 4.13 15.00 4.00 C 12.62 3.61 9.97 5.39 10.04 7.92 M 35.99 36.00 C 36.31 37.98 36.63 39.96 36.95 41.95 C 41.32 46.33 45.73 50.68 50.08 55.08 C 51.76 53.42 53.43 51.75 55.10 50.07 C 50.73 45.68 46.31 41.34 41.95 36.95 C 39.96 36.63 37.98 36.32 35.99 36.00 Z" />
<path fill="#ffffff" opacity="1.00" d=" M 34.01 7.81 C 38.07 11.87 42.13 15.93 46.18 19.99 C 42.50 19.91 38.79 20.22 35.11 19.82 C 34.88 19.60 34.42 19.16 34.19 18.93 C 33.76 15.25 34.09 11.52 34.01 7.81 Z" />
<path fill="#ffffff" opacity="1.00" d=" M 57.11 60.00 C 57.88 58.85 58.85 57.85 60.00 57.07 L 60.00 60.00 L 57.11 60.00 Z" />
</g>
<g id="#000000ff">
<path fill="#000000" opacity="1.00" d=" M 10.04 7.92 C 9.97 5.39 12.62 3.61 15.00 4.00 C 21.95 4.13 28.94 3.72 35.86 4.21 C 40.64 8.69 45.34 13.32 49.79 18.13 C 50.30 25.17 49.86 32.27 49.99 39.33 C 47.20 36.99 45.16 33.05 41.16 32.76 C 38.25 32.34 34.06 30.84 32.40 34.25 C 31.55 37.34 32.73 40.66 33.39 43.71 C 37.04 48.10 41.41 51.84 45.33 56.00 C 34.85 55.97 24.36 56.07 13.88 55.95 C 11.84 55.97 9.93 54.12 10.04 52.04 C 9.97 37.34 9.97 22.63 10.04 7.92 M 34.01 7.81 C 34.09 11.52 33.76 15.25 34.19 18.93 C 34.42 19.16 34.88 19.60 35.11 19.82 C 38.79 20.22 42.50 19.91 46.18 19.99 C 42.13 15.93 38.07 11.87 34.01 7.81 Z" />
<path fill="#000000" opacity="1.00" d=" M 35.99 36.00 C 37.98 36.32 39.96 36.63 41.95 36.95 C 46.31 41.34 50.73 45.68 55.10 50.07 C 53.43 51.75 51.76 53.42 50.08 55.08 C 45.73 50.68 41.32 46.33 36.95 41.95 C 36.63 39.96 36.31 37.98 35.99 36.00 Z" />
<path fill="#000000" opacity="1.00" d=" M 52.85 57.90 C 54.61 56.19 56.37 54.46 58.13 52.74 C 58.81 53.90 59.52 55.05 60.00 56.30 L 60.00 57.07 C 58.85 57.85 57.88 58.85 57.11 60.00 L 56.09 60.00 C 54.87 59.53 53.85 58.71 52.85 57.90 Z" />
</g>
</svg>
