<?xml version="1.0" encoding="UTF-8" ?>
<!DOCTYPE svg PUBLIC "-//W3C//DTD SVG 1.1//EN" "http://www.w3.org/Graphics/SVG/1.1/DTD/svg11.dtd">
<svg width="60pt" height="60pt" viewBox="0 0 60 60" version="1.1" xmlns="http://www.w3.org/2000/svg">
<g id="#ffffffff">
<path fill="#ffffff" opacity="1.00" d=" M 0.00 0.00 L 60.00 0.00 L 60.00 38.92 C 59.35 37.67 58.55 36.14 56.94 36.07 C 55.28 35.69 54.09 37.24 52.81 38.02 C 54.58 39.77 56.35 41.52 58.13 43.26 C 58.77 42.18 59.43 41.11 60.00 39.99 L 60.00 60.00 L 36.53 60.00 C 38.35 59.69 40.17 59.35 41.99 59.04 C 46.36 54.67 50.70 50.28 55.09 45.92 C 53.42 44.25 51.75 42.58 50.09 40.91 C 46.24 44.78 42.37 48.61 38.52 52.46 C 36.24 54.29 36.61 57.45 35.94 60.00 L 0.00 60.00 L 0.00 0.00 M 26.38 6.56 C 23.53 8.56 19.31 8.19 17.34 11.42 C 12.84 18.33 15.38 27.16 12.37 34.55 C 15.93 36.78 20.01 37.93 24.19 38.10 C 23.88 39.36 23.97 40.90 22.77 41.73 C 19.06 44.67 13.87 45.01 10.35 48.26 C 8.67 49.68 8.26 51.92 7.82 53.96 C 16.10 54.05 24.39 53.98 32.67 54.00 C 33.95 50.21 37.68 48.10 40.18 45.17 C 36.88 43.67 31.68 42.70 31.81 38.10 C 35.89 37.93 39.90 36.84 43.38 34.67 C 40.14 27.19 42.10 18.29 37.78 11.15 C 35.61 7.35 30.56 4.93 26.38 6.56 Z" />
</g>
<g id="#000000ff">
<path fill="#000000" opacity="1.00" d=" M 26.38 6.56 C 30.56 4.93 35.61 7.35 37.78 11.15 C 42.10 18.29 40.14 27.19 43.38 34.67 C 39.90 36.84 35.89 37.93 31.81 38.10 C 31.68 42.70 36.88 43.67 40.18 45.17 C 37.68 48.10 33.95 50.21 32.67 54.00 C 24.39 53.98 16.10 54.05 7.82 53.96 C 8.26 51.92 8.67 49.68 10.35 48.26 C 13.87 45.01 19.06 44.67 22.77 41.73 C 23.97 40.90 23.88 39.36 24.19 38.10 C 20.01 37.93 15.93 36.78 12.37 34.55 C 15.38 27.16 12.84 18.33 17.34 11.42 C 19.31 8.19 23.53 8.56 26.38 6.56 Z" />
<path fill="#000000" opacity="1.00" d=" M 52.81 38.02 C 54.09 37.24 55.28 35.69 56.94 36.07 C 58.55 36.14 59.35 37.67 60.00 38.92 L 60.00 39.99 C 59.43 41.11 58.77 42.18 58.13 43.26 C 56.35 41.52 54.58 39.77 52.81 38.02 Z" />
<path fill="#000000" opacity="1.00" d=" M 38.52 52.46 C 42.37 48.61 46.24 44.78 50.09 40.91 C 51.75 42.58 53.42 44.25 55.09 45.92 C 50.70 50.28 46.36 54.67 41.99 59.04 C 40.17 59.35 38.35 59.69 36.53 60.00 L 35.94 60.00 C 36.61 57.45 36.24 54.29 38.52 52.46 Z" />
</g>
</svg>
