<?xml version="1.0" encoding="UTF-8" ?>
<!DOCTYPE svg PUBLIC "-//W3C//DTD SVG 1.1//EN" "http://www.w3.org/Graphics/SVG/1.1/DTD/svg11.dtd">
<svg width="64pt" height="64pt" viewBox="0 0 64 64" version="1.1" xmlns="http://www.w3.org/2000/svg">
<g id="#ffffffff">
<path fill="#ffffff" opacity="1.00" d=" M 0.00 0.00 L 64.00 0.00 L 64.00 64.00 L 0.00 64.00 L 0.00 0.00 M 41.70 10.68 C 31.38 21.04 20.95 31.31 10.73 41.75 C 9.01 46.45 8.67 51.66 7.45 56.54 C 11.99 55.64 16.55 54.83 21.07 53.82 C 22.27 53.62 23.01 52.55 23.87 51.81 C 33.79 41.74 43.90 31.88 53.79 21.79 C 57.05 18.55 56.64 12.69 53.03 9.88 C 49.81 7.03 44.52 7.48 41.70 10.68 Z" />
<path fill="#ffffff" opacity="1.00" d=" M 43.38 14.54 C 44.77 13.41 46.02 11.67 48.01 11.72 C 50.10 12.09 51.92 13.88 52.26 15.98 C 52.34 17.96 50.57 19.22 49.48 20.63 C 47.43 18.62 45.40 16.58 43.38 14.54 Z" />
<path fill="#ffffff" opacity="1.00" d=" M 16.45 41.55 C 24.55 33.56 32.54 25.46 40.62 17.43 C 42.59 19.42 44.57 21.40 46.58 23.36 C 38.58 31.48 30.46 39.46 22.44 47.56 C 20.91 45.12 18.89 43.08 16.45 41.55 Z" />
<path fill="#ffffff" opacity="1.00" d=" M 13.83 45.09 C 16.04 46.21 17.79 47.95 18.91 50.17 C 16.80 50.61 14.68 51.03 12.56 51.45 C 12.97 49.33 13.39 47.21 13.83 45.09 Z" />
</g>
<g id="#000000ff">
<path fill="#000000" opacity="1.00" d=" M 41.70 10.68 C 44.52 7.48 49.81 7.03 53.03 9.88 C 56.64 12.69 57.05 18.55 53.79 21.79 C 43.90 31.88 33.79 41.74 23.87 51.81 C 23.01 52.55 22.27 53.62 21.07 53.82 C 16.55 54.83 11.99 55.64 7.45 56.54 C 8.67 51.66 9.01 46.45 10.73 41.75 C 20.95 31.31 31.38 21.04 41.70 10.68 M 43.38 14.54 C 45.40 16.58 47.43 18.62 49.48 20.63 C 50.57 19.22 52.34 17.96 52.26 15.98 C 51.92 13.88 50.10 12.09 48.01 11.72 C 46.02 11.67 44.77 13.41 43.38 14.54 M 16.45 41.55 C 18.89 43.08 20.91 45.12 22.44 47.56 C 30.46 39.46 38.58 31.48 46.58 23.36 C 44.57 21.40 42.59 19.42 40.62 17.43 C 32.54 25.46 24.55 33.56 16.45 41.55 M 13.83 45.09 C 13.39 47.21 12.97 49.33 12.56 51.45 C 14.68 51.03 16.80 50.61 18.91 50.17 C 17.79 47.95 16.04 46.21 13.83 45.09 Z" />
</g>
</svg>
