<?xml version="1.0" encoding="UTF-8" ?>
<!DOCTYPE svg PUBLIC "-//W3C//DTD SVG 1.1//EN" "http://www.w3.org/Graphics/SVG/1.1/DTD/svg11.dtd">
<svg width="60pt" height="60pt" viewBox="0 0 60 60" version="1.1" xmlns="http://www.w3.org/2000/svg">
<g id="#ffffffff">
<path fill="#ffffff" opacity="1.00" d=" M 0.00 0.00 L 60.00 0.00 L 60.00 40.20 C 58.73 38.70 57.42 37.19 55.77 36.10 C 54.02 35.70 52.84 37.33 51.51 38.11 C 53.43 40.25 55.47 42.27 57.46 44.34 C 58.34 43.55 59.19 42.73 60.00 41.87 L 60.00 60.00 L 0.00 60.00 L 0.00 0.00 M 4.05 11.90 C 3.92 25.26 4.04 38.63 4.00 52.00 C 13.37 51.95 22.74 52.10 32.10 51.94 C 33.75 50.97 34.92 49.38 36.25 48.04 C 26.83 47.95 17.42 48.03 8.00 48.00 C 8.00 38.67 8.00 29.33 8.00 20.00 C 22.67 20.00 37.33 20.00 52.00 20.00 C 52.00 24.18 52.01 28.36 51.99 32.55 C 53.32 32.32 54.66 32.10 56.00 31.89 C 55.95 25.23 56.09 18.56 55.95 11.90 C 55.99 9.86 54.14 7.93 52.06 8.04 C 37.68 7.94 23.31 8.03 8.93 8.00 C 6.59 7.64 3.98 9.39 4.05 11.90 M 15.15 26.10 C 12.87 27.19 14.42 30.90 16.79 29.84 C 19.19 28.85 17.55 25.09 15.15 26.10 M 23.09 26.17 C 21.30 27.02 21.88 30.09 23.94 29.93 C 29.99 30.06 36.05 30.06 42.09 29.92 C 44.50 30.17 44.59 25.91 42.15 26.09 C 35.81 25.98 29.43 25.83 23.09 26.17 M 15.16 34.18 C 12.82 35.12 14.47 38.96 16.79 37.84 C 19.23 36.91 17.50 32.97 15.16 34.18 M 23.15 34.19 C 21.26 34.89 21.91 38.19 23.97 37.93 C 30.00 38.05 36.05 38.07 42.07 37.92 C 44.59 38.15 44.54 33.76 42.02 34.07 C 35.73 34.02 29.41 33.79 23.15 34.19 M 49.15 40.84 C 46.19 43.91 43.04 46.77 40.18 49.92 C 41.02 51.13 41.79 52.38 42.17 53.82 C 43.58 54.24 44.88 54.94 46.06 55.82 C 49.15 52.98 52.11 49.98 54.97 46.91 C 53.48 44.52 51.09 42.85 49.15 40.84 M 36.90 58.76 C 37.58 58.76 38.95 58.75 39.64 58.74 C 40.40 57.65 38.71 56.38 37.73 56.20 C 36.50 56.79 36.23 57.64 36.90 58.76 Z" />
</g>
<g id="#000000ff">
<path fill="#968176" opacity="1.00" d=" M 4.05 11.90 C 3.98 9.39 6.59 7.64 8.93 8.00 C 23.31 8.03 37.68 7.94 52.06 8.04 C 54.14 7.93 55.99 9.86 55.95 11.90 C 56.09 18.56 55.95 25.23 56.00 31.89 C 54.66 32.10 53.32 32.32 51.99 32.55 C 52.01 28.36 52.00 24.18 52.00 20.00 C 37.33 20.00 22.67 20.00 8.00 20.00 C 8.00 29.33 8.00 38.67 8.00 48.00 C 17.42 48.03 26.83 47.95 36.25 48.04 C 34.92 49.38 33.75 50.97 32.10 51.94 C 22.74 52.10 13.37 51.95 4.00 52.00 C 4.04 38.63 3.92 25.26 4.05 11.90 Z" />
<path fill="#968176" opacity="1.00" d=" M 15.15 26.10 C 17.55 25.09 19.19 28.85 16.79 29.84 C 14.42 30.90 12.87 27.19 15.15 26.10 Z" />
<path fill="#968176" opacity="1.00" d=" M 23.09 26.17 C 29.43 25.83 35.81 25.98 42.15 26.09 C 44.59 25.91 44.50 30.17 42.09 29.92 C 36.05 30.06 29.99 30.06 23.94 29.93 C 21.88 30.09 21.30 27.02 23.09 26.17 Z" />
<path fill="#968176" opacity="1.00" d=" M 15.16 34.18 C 17.50 32.97 19.23 36.91 16.79 37.84 C 14.47 38.96 12.82 35.12 15.16 34.18 Z" />
<path fill="#968176" opacity="1.00" d=" M 23.15 34.19 C 29.41 33.79 35.73 34.02 42.02 34.07 C 44.54 33.76 44.59 38.15 42.07 37.92 C 36.05 38.07 30.00 38.05 23.97 37.93 C 21.91 38.19 21.26 34.89 23.15 34.19 Z" />
<path fill="#968176" opacity="1.00" d=" M 51.51 38.11 C 52.84 37.33 54.02 35.70 55.77 36.10 C 57.42 37.19 58.73 38.70 60.00 40.20 L 60.00 41.87 C 59.19 42.73 58.34 43.55 57.46 44.34 C 55.47 42.27 53.43 40.25 51.51 38.11 Z" />
<path fill="#968176" opacity="1.00" d=" M 49.15 40.84 C 51.09 42.85 53.48 44.52 54.97 46.91 C 52.11 49.98 49.15 52.98 46.06 55.82 C 44.88 54.94 43.58 54.24 42.17 53.82 C 41.79 52.38 41.02 51.13 40.18 49.92 C 43.04 46.77 46.19 43.91 49.15 40.84 Z" />
<path fill="#968176" opacity="1.00" d=" M 36.90 58.76 C 36.23 57.64 36.50 56.79 37.73 56.20 C 38.71 56.38 40.40 57.65 39.64 58.74 C 38.95 58.75 37.58 58.76 36.90 58.76 Z" />
</g>
</svg>
