<?xml version="1.0" encoding="UTF-8" ?>
<!DOCTYPE svg PUBLIC "-//W3C//DTD SVG 1.1//EN" "http://www.w3.org/Graphics/SVG/1.1/DTD/svg11.dtd">
<svg width="60pt" height="60pt" viewBox="0 0 60 60" version="1.1" xmlns="http://www.w3.org/2000/svg">
<g id="#ffffffff">
<path fill="#ffffff" opacity="1.00" d=" M 0.00 0.00 L 60.00 0.00 L 60.00 60.00 L 0.00 60.00 L 0.00 0.00 M 38.01 12.00 C 41.32 15.35 44.70 18.63 48.00 21.99 C 50.24 19.18 55.49 16.69 53.46 12.38 C 51.71 10.19 49.71 8.17 47.49 6.46 C 43.20 4.65 40.81 9.78 38.01 12.00 M 10.67 39.25 C 14.51 39.19 13.18 43.63 13.81 46.19 C 16.39 46.80 20.84 45.43 20.70 49.37 C 28.40 41.51 36.26 33.79 44.02 25.98 C 40.67 22.66 37.36 19.31 34.00 16.00 C 26.21 23.74 18.52 31.58 10.67 39.25 M 6.51 53.35 C 8.86 54.93 11.59 52.42 14.00 51.99 C 12.00 49.99 10.01 47.99 8.00 46.01 C 7.55 48.38 5.24 50.96 6.51 53.35 Z" />
</g>
<g id="#000000ff">
<path fill="#000000" opacity="1.00" d=" M 38.01 12.00 C 40.81 9.78 43.20 4.65 47.49 6.46 C 49.71 8.17 51.71 10.19 53.46 12.38 C 55.49 16.69 50.24 19.18 48.00 21.99 C 44.70 18.63 41.32 15.35 38.01 12.00 Z" />
<path fill="#000000" opacity="1.00" d=" M 10.67 39.25 C 18.52 31.58 26.21 23.74 34.00 16.00 C 37.36 19.31 40.67 22.66 44.02 25.98 C 36.26 33.79 28.40 41.51 20.70 49.37 C 20.84 45.43 16.39 46.80 13.81 46.19 C 13.18 43.63 14.51 39.19 10.67 39.25 Z" />
<path fill="#000000" opacity="1.00" d=" M 6.51 53.35 C 5.24 50.96 7.55 48.38 8.00 46.01 C 10.01 47.99 12.00 49.99 14.00 51.99 C 11.59 52.42 8.86 54.93 6.51 53.35 Z" />
</g>
</svg>
