<?xml version="1.0" encoding="UTF-8" ?>
<!DOCTYPE svg PUBLIC "-//W3C//DTD SVG 1.1//EN" "http://www.w3.org/Graphics/SVG/1.1/DTD/svg11.dtd">
<svg width="64pt" height="64pt" viewBox="0 0 64 64" version="1.1" xmlns="http://www.w3.org/2000/svg">
<g id="#ffffffff">
<path fill="#ffffff" opacity="1.00" d=" M 0.00 0.00 L 64.00 0.00 L 64.00 64.00 L 0.00 64.00 L 0.00 0.00 M 26.51 8.64 C 19.14 10.35 12.75 15.74 9.87 22.74 C 6.91 29.68 7.53 38.02 11.50 44.45 C 15.20 50.57 21.75 54.89 28.86 55.77 C 35.65 56.71 42.80 54.52 47.90 49.93 C 53.23 45.24 56.31 38.10 55.96 31.00 C 55.73 24.10 52.26 17.44 46.86 13.17 C 41.24 8.65 33.51 6.98 26.51 8.64 Z" />
<path fill="#ffffff" opacity="1.00" d=" M 29.20 12.19 C 35.56 11.28 42.28 13.60 46.62 18.35 C 51.48 23.45 53.24 31.24 51.08 37.95 C 48.97 45.06 42.52 50.64 35.18 51.73 C 28.70 52.84 21.75 50.45 17.32 45.58 C 12.50 40.48 10.76 32.72 12.92 26.04 C 15.06 18.78 21.71 13.16 29.20 12.19 M 18.00 27.81 C 18.00 31.88 18.00 35.94 18.00 40.00 C 19.33 40.00 20.67 40.00 22.00 40.00 C 21.99 37.36 21.98 34.73 22.08 32.09 C 26.26 33.46 21.70 39.82 26.10 40.89 C 31.09 42.39 37.15 42.72 41.70 39.84 C 42.20 37.67 42.02 35.42 42.00 33.21 C 44.36 31.85 48.51 31.50 48.25 27.92 C 43.16 25.21 38.09 22.45 33.00 19.74 C 28.01 22.46 23.00 25.12 18.00 27.81 Z" />
<path fill="#ffffff" opacity="1.00" d=" M 24.37 29.58 C 26.59 26.93 30.20 26.15 33.01 24.28 C 35.90 26.07 39.35 27.06 41.72 29.58 C 36.11 27.58 29.98 27.52 24.37 29.58 Z" />
<path fill="#ffffff" opacity="1.00" d=" M 27.92 32.62 C 31.12 32.03 34.48 31.67 37.66 32.57 C 38.00 33.81 38.15 35.09 38.13 36.41 C 34.77 35.98 31.37 35.94 28.01 36.41 C 27.99 35.46 27.94 33.57 27.92 32.62 Z" />
</g>
<g id="#000000ff">
<path fill="#000000" opacity="1.00" d=" M 26.51 8.64 C 33.51 6.98 41.24 8.65 46.86 13.17 C 52.26 17.44 55.73 24.10 55.96 31.00 C 56.31 38.10 53.23 45.24 47.90 49.93 C 42.80 54.52 35.65 56.71 28.86 55.77 C 21.75 54.89 15.20 50.57 11.50 44.45 C 7.53 38.02 6.91 29.68 9.87 22.74 C 12.75 15.74 19.14 10.35 26.51 8.64 M 29.20 12.19 C 21.71 13.16 15.06 18.78 12.92 26.04 C 10.76 32.72 12.50 40.48 17.32 45.58 C 21.75 50.45 28.70 52.84 35.18 51.73 C 42.52 50.64 48.97 45.06 51.08 37.95 C 53.24 31.24 51.48 23.45 46.62 18.35 C 42.28 13.60 35.56 11.28 29.20 12.19 Z" />
<path fill="#000000" opacity="1.00" d=" M 18.00 27.81 C 23.00 25.12 28.01 22.46 33.00 19.74 C 38.09 22.45 43.16 25.21 48.25 27.92 C 48.51 31.50 44.36 31.85 42.00 33.21 C 42.02 35.42 42.20 37.67 41.70 39.84 C 37.15 42.72 31.09 42.39 26.10 40.89 C 21.70 39.82 26.26 33.46 22.08 32.09 C 21.98 34.73 21.99 37.36 22.00 40.00 C 20.67 40.00 19.33 40.00 18.00 40.00 C 18.00 35.94 18.00 31.88 18.00 27.81 M 24.37 29.58 C 29.98 27.52 36.11 27.58 41.72 29.58 C 39.35 27.06 35.90 26.07 33.01 24.28 C 30.20 26.15 26.59 26.93 24.37 29.58 M 27.92 32.62 C 27.94 33.57 27.99 35.46 28.01 36.41 C 31.37 35.94 34.77 35.98 38.13 36.41 C 38.15 35.09 38.00 33.81 37.66 32.57 C 34.48 31.67 31.12 32.03 27.92 32.62 Z" />
</g>
</svg>
