<?xml version="1.0" encoding="UTF-8" ?>
<!DOCTYPE svg PUBLIC "-//W3C//DTD SVG 1.1//EN" "http://www.w3.org/Graphics/SVG/1.1/DTD/svg11.dtd">
<svg width="60pt" height="60pt" viewBox="0 0 60 60" version="1.1" xmlns="http://www.w3.org/2000/svg">
<g id="#ffffffff">
<path fill="#ffffff" opacity="1.00" d=" M 0.00 0.00 L 60.00 0.00 L 60.00 60.00 L 0.00 60.00 L 0.00 0.00 M 35.16 6.17 C 32.05 6.78 29.47 9.30 28.78 12.39 C 27.71 16.53 26.59 20.69 26.09 24.95 C 25.38 29.88 30.09 34.60 35.02 33.91 C 39.70 33.28 44.35 32.22 48.85 30.79 C 53.66 29.07 55.59 22.43 52.43 18.41 C 49.91 15.34 46.86 12.78 44.15 9.88 C 41.95 7.33 38.66 5.33 35.16 6.17 M 6.19 45.21 C 5.20 49.93 10.02 54.75 14.73 53.83 C 23.01 51.37 28.98 44.76 33.97 38.07 C 27.57 37.79 22.16 32.37 21.92 25.96 C 15.16 30.87 8.65 36.94 6.19 45.21 Z" />
<path fill="#ffffff" opacity="1.00" d=" M 19.41 37.77 C 20.58 38.46 21.54 39.43 22.21 40.62 C 20.30 42.45 18.44 44.32 16.60 46.22 C 15.43 45.53 14.47 44.57 13.77 43.41 C 15.68 41.56 17.56 39.68 19.41 37.77 Z" />
</g>
<g id="#000000ff">
<path fill="#000000" opacity="1.00" d=" M 35.16 6.17 C 38.66 5.33 41.95 7.33 44.15 9.88 C 46.86 12.78 49.91 15.34 52.43 18.41 C 55.59 22.43 53.66 29.07 48.85 30.79 C 44.35 32.22 39.70 33.28 35.02 33.91 C 30.09 34.60 25.38 29.88 26.09 24.95 C 26.59 20.69 27.71 16.53 28.78 12.39 C 29.47 9.30 32.05 6.78 35.16 6.17 Z" />
<path fill="#000000" opacity="1.00" d=" M 6.19 45.21 C 8.65 36.94 15.16 30.87 21.92 25.96 C 22.16 32.37 27.57 37.79 33.97 38.07 C 28.98 44.76 23.01 51.37 14.73 53.83 C 10.02 54.75 5.20 49.93 6.19 45.21 M 19.41 37.77 C 17.56 39.68 15.68 41.56 13.77 43.41 C 14.47 44.57 15.43 45.53 16.60 46.22 C 18.44 44.32 20.30 42.45 22.21 40.62 C 21.54 39.43 20.58 38.46 19.41 37.77 Z" />
</g>
</svg>
