<?xml version="1.0" encoding="UTF-8" ?>
<!DOCTYPE svg PUBLIC "-//W3C//DTD SVG 1.1//EN" "http://www.w3.org/Graphics/SVG/1.1/DTD/svg11.dtd">
<svg width="60pt" height="60pt" viewBox="0 0 60 60" version="1.1" xmlns="http://www.w3.org/2000/svg">
<g id="#ffffffff">
<path fill="#ffffff" opacity="1.00" d=" M 0.00 0.00 L 60.00 0.00 L 60.00 60.00 L 0.00 60.00 L 0.00 0.00 M 6.31 10.41 C 4.60 11.18 3.80 13.11 4.00 14.90 C 4.03 25.31 3.93 35.73 4.05 46.14 C 3.96 48.62 6.56 50.32 8.86 50.00 C 23.27 49.97 37.69 50.06 52.10 49.95 C 54.60 50.00 56.36 47.41 56.00 45.06 C 55.97 34.68 56.06 24.30 55.96 13.92 C 55.98 11.89 54.17 9.95 52.10 10.05 C 38.41 9.92 24.73 10.06 11.05 9.98 C 9.48 10.09 7.78 9.75 6.31 10.41 Z" />
<path fill="#ffffff" opacity="1.00" d=" M 11.15 14.16 C 17.43 13.83 23.74 14.00 30.02 14.07 C 32.61 14.06 31.88 17.31 32.04 19.00 C 31.68 21.20 32.89 24.24 30.90 25.82 C 25.61 26.26 20.28 25.86 14.98 26.02 C 13.38 25.81 11.20 26.56 10.17 24.90 C 9.86 21.64 9.86 18.33 10.18 15.07 C 10.43 14.84 10.91 14.39 11.15 14.16 Z" />
<path fill="#ffffff" opacity="1.00" d=" M 39.12 18.10 C 41.58 17.11 43.18 20.82 40.79 21.89 C 38.39 22.84 36.92 19.27 39.12 18.10 Z" />
<path fill="#ffffff" opacity="1.00" d=" M 47.10 18.10 C 48.45 17.68 50.09 18.50 49.98 20.05 C 50.08 21.72 47.67 22.71 46.64 21.41 C 45.50 20.51 46.04 18.80 47.10 18.10 Z" />
<path fill="#ffffff" opacity="1.00" d=" M 8.00 32.00 C 10.00 32.00 12.00 32.00 14.00 32.00 C 13.98 35.30 13.98 38.60 14.08 41.89 C 15.35 41.92 16.62 41.93 17.89 41.93 C 18.04 38.62 18.02 35.31 17.99 32.00 C 18.50 32.00 19.50 32.00 20.01 32.00 C 19.98 35.31 19.96 38.63 20.11 41.94 C 21.38 41.93 22.66 41.91 23.93 41.88 C 24.02 38.58 24.02 35.29 24.00 32.00 C 26.00 32.00 28.00 32.00 30.01 32.00 C 29.98 35.31 29.96 38.62 30.11 41.93 C 31.37 41.93 32.64 41.92 33.91 41.90 C 34.02 38.60 34.02 35.30 33.99 32.00 C 34.50 32.00 35.50 32.00 36.01 32.00 C 35.98 35.31 35.97 38.62 36.11 41.93 C 37.38 41.93 38.64 41.92 39.91 41.90 C 40.02 38.60 40.02 35.30 39.99 32.00 C 40.50 32.00 41.50 32.00 42.01 32.00 C 41.98 35.31 41.96 38.62 42.10 41.92 C 43.37 41.93 44.63 41.93 45.89 41.92 C 46.04 38.62 46.02 35.31 45.99 32.00 C 48.00 32.00 50.00 32.00 52.00 32.00 C 52.00 36.67 52.00 41.33 52.00 46.00 C 37.33 46.00 22.67 46.00 8.00 46.00 C 8.00 41.33 8.00 36.67 8.00 32.00 Z" />
</g>
<g id="#000000ff">
<path fill="#000000" opacity="1.00" d=" M 6.31 10.41 C 7.78 9.75 9.48 10.09 11.05 9.98 C 24.73 10.06 38.41 9.92 52.10 10.05 C 54.17 9.95 55.98 11.89 55.96 13.92 C 56.06 24.30 55.97 34.68 56.00 45.06 C 56.36 47.41 54.60 50.00 52.10 49.95 C 37.69 50.06 23.27 49.97 8.86 50.00 C 6.56 50.32 3.96 48.62 4.05 46.14 C 3.93 35.73 4.03 25.31 4.00 14.90 C 3.80 13.11 4.60 11.18 6.31 10.41 M 11.15 14.16 C 10.91 14.39 10.43 14.84 10.18 15.07 C 9.86 18.33 9.86 21.64 10.17 24.90 C 11.20 26.56 13.38 25.81 14.98 26.02 C 20.28 25.86 25.61 26.26 30.90 25.82 C 32.89 24.24 31.68 21.20 32.04 19.00 C 31.88 17.31 32.61 14.06 30.02 14.07 C 23.74 14.00 17.43 13.83 11.15 14.16 M 39.12 18.10 C 36.92 19.27 38.39 22.84 40.79 21.89 C 43.18 20.82 41.58 17.11 39.12 18.10 M 47.10 18.10 C 46.04 18.80 45.50 20.51 46.64 21.41 C 47.67 22.71 50.08 21.72 49.98 20.05 C 50.09 18.50 48.45 17.68 47.10 18.10 M 8.00 32.00 C 8.00 36.67 8.00 41.33 8.00 46.00 C 22.67 46.00 37.33 46.00 52.00 46.00 C 52.00 41.33 52.00 36.67 52.00 32.00 C 50.00 32.00 48.00 32.00 45.99 32.00 C 46.02 35.31 46.04 38.62 45.89 41.92 C 44.63 41.93 43.37 41.93 42.10 41.92 C 41.96 38.62 41.98 35.31 42.01 32.00 C 41.50 32.00 40.50 32.00 39.99 32.00 C 40.02 35.30 40.02 38.60 39.91 41.90 C 38.64 41.92 37.38 41.93 36.11 41.93 C 35.97 38.62 35.98 35.31 36.01 32.00 C 35.50 32.00 34.50 32.00 33.99 32.00 C 34.02 35.30 34.02 38.60 33.91 41.90 C 32.64 41.92 31.37 41.93 30.11 41.93 C 29.96 38.62 29.98 35.31 30.01 32.00 C 28.00 32.00 26.00 32.00 24.00 32.00 C 24.02 35.29 24.02 38.58 23.93 41.88 C 22.66 41.91 21.38 41.93 20.11 41.94 C 19.96 38.63 19.98 35.31 20.01 32.00 C 19.50 32.00 18.50 32.00 17.99 32.00 C 18.02 35.31 18.04 38.62 17.89 41.93 C 16.62 41.93 15.35 41.92 14.08 41.89 C 13.98 38.60 13.98 35.30 14.00 32.00 C 12.00 32.00 10.00 32.00 8.00 32.00 Z" />
</g>
</svg>
