<?xml version="1.0" encoding="UTF-8" ?>
<!DOCTYPE svg PUBLIC "-//W3C//DTD SVG 1.1//EN" "http://www.w3.org/Graphics/SVG/1.1/DTD/svg11.dtd">
<svg width="64pt" height="64pt" viewBox="0 0 64 64" version="1.1" xmlns="http://www.w3.org/2000/svg">
<g id="#ffffffff">
<path fill="#ffffff" opacity="1.00" d=" M 0.00 0.00 L 64.00 0.00 L 64.00 64.00 L 0.00 64.00 L 0.00 0.00 M 10.00 10.00 C 10.00 24.67 10.00 39.33 10.00 54.00 C 16.67 54.00 23.33 54.00 30.00 54.00 C 30.00 39.33 30.00 24.67 30.00 10.00 C 23.33 10.00 16.67 10.00 10.00 10.00 M 34.00 10.00 C 34.00 24.67 34.00 39.33 34.00 54.00 C 40.67 54.00 47.33 54.00 54.00 54.00 C 54.00 39.33 54.00 24.67 54.00 10.00 C 47.33 10.00 40.67 10.00 34.00 10.00 Z" />
<path fill="#ffffff" opacity="1.00" d=" M 14.00 14.00 C 18.00 14.00 22.00 14.00 26.00 14.00 C 26.00 16.00 26.00 18.00 26.00 20.00 C 22.67 20.00 19.33 20.00 16.00 20.00 C 16.00 21.33 16.00 22.67 16.00 24.00 C 19.33 24.00 22.67 24.00 26.00 24.00 C 26.00 30.00 26.00 36.00 26.00 42.00 C 22.67 42.00 19.33 42.00 16.00 42.00 C 16.00 43.33 16.00 44.67 16.00 46.00 C 19.33 46.00 22.67 46.00 26.00 46.00 C 26.00 47.33 26.00 48.67 26.00 50.00 C 22.00 50.00 18.00 50.00 14.00 50.00 C 14.00 38.00 14.00 26.00 14.00 14.00 M 19.94 27.41 C 19.60 28.19 18.90 29.73 18.55 30.50 C 17.67 30.60 15.91 30.78 15.03 30.87 C 15.91 31.66 16.80 32.45 17.68 33.24 C 17.43 34.40 17.19 35.57 16.94 36.74 C 17.97 36.14 19.01 35.53 20.04 34.93 C 21.05 35.53 22.06 36.14 23.06 36.75 C 22.81 35.59 22.57 34.42 22.32 33.25 C 23.21 32.46 24.11 31.67 25.00 30.88 C 24.12 30.79 22.36 30.60 21.48 30.51 C 21.01 29.45 20.53 28.41 19.94 27.41 Z" />
<path fill="#ffffff" opacity="1.00" d=" M 38.00 14.00 C 42.00 14.00 46.00 14.00 50.00 14.00 C 50.00 16.00 50.00 18.00 50.00 20.00 C 46.67 20.00 43.33 20.00 40.00 20.00 C 40.00 21.33 40.00 22.67 40.00 24.00 C 43.33 24.00 46.67 24.00 50.00 24.00 C 50.00 30.00 50.00 36.00 50.00 42.00 C 46.67 42.00 43.33 42.00 40.00 42.00 C 40.00 43.33 40.00 44.67 40.00 46.00 C 43.33 46.00 46.67 46.00 50.00 46.00 C 50.00 47.33 50.00 48.67 50.00 50.00 C 46.00 50.00 42.00 50.00 38.00 50.00 C 38.00 38.00 38.00 26.00 38.00 14.00 M 42.55 30.51 C 41.67 30.60 39.91 30.78 39.03 30.87 C 39.91 31.66 40.79 32.45 41.68 33.24 C 41.44 34.40 41.20 35.57 40.96 36.74 C 41.72 36.28 43.25 35.38 44.01 34.92 C 45.03 35.53 46.05 36.14 47.07 36.75 C 46.81 35.59 46.56 34.42 46.32 33.26 C 47.21 32.47 48.11 31.67 49.00 30.88 C 48.12 30.79 46.35 30.61 45.47 30.51 C 44.98 29.43 44.49 28.35 44.00 27.26 C 43.51 28.35 43.03 29.43 42.55 30.51 Z" />
</g>
<g id="#000000ff">
<path fill="#000000" opacity="1.00" d=" M 10.00 10.00 C 16.67 10.00 23.33 10.00 30.00 10.00 C 30.00 24.67 30.00 39.33 30.00 54.00 C 23.33 54.00 16.67 54.00 10.00 54.00 C 10.00 39.33 10.00 24.67 10.00 10.00 M 14.00 14.00 C 14.00 26.00 14.00 38.00 14.00 50.00 C 18.00 50.00 22.00 50.00 26.00 50.00 C 26.00 48.67 26.00 47.33 26.00 46.00 C 22.67 46.00 19.33 46.00 16.00 46.00 C 16.00 44.67 16.00 43.33 16.00 42.00 C 19.33 42.00 22.67 42.00 26.00 42.00 C 26.00 36.00 26.00 30.00 26.00 24.00 C 22.67 24.00 19.33 24.00 16.00 24.00 C 16.00 22.67 16.00 21.33 16.00 20.00 C 19.33 20.00 22.67 20.00 26.00 20.00 C 26.00 18.00 26.00 16.00 26.00 14.00 C 22.00 14.00 18.00 14.00 14.00 14.00 Z" />
<path fill="#000000" opacity="1.00" d=" M 34.00 10.00 C 40.67 10.00 47.33 10.00 54.00 10.00 C 54.00 24.67 54.00 39.33 54.00 54.00 C 47.33 54.00 40.67 54.00 34.00 54.00 C 34.00 39.33 34.00 24.67 34.00 10.00 M 38.00 14.00 C 38.00 26.00 38.00 38.00 38.00 50.00 C 42.00 50.00 46.00 50.00 50.00 50.00 C 50.00 48.67 50.00 47.33 50.00 46.00 C 46.67 46.00 43.33 46.00 40.00 46.00 C 40.00 44.67 40.00 43.33 40.00 42.00 C 43.33 42.00 46.67 42.00 50.00 42.00 C 50.00 36.00 50.00 30.00 50.00 24.00 C 46.67 24.00 43.33 24.00 40.00 24.00 C 40.00 22.67 40.00 21.33 40.00 20.00 C 43.33 20.00 46.67 20.00 50.00 20.00 C 50.00 18.00 50.00 16.00 50.00 14.00 C 46.00 14.00 42.00 14.00 38.00 14.00 Z" />
<path fill="#000000" opacity="1.00" d=" M 19.94 27.41 C 20.53 28.41 21.01 29.45 21.48 30.51 C 22.36 30.60 24.12 30.79 25.00 30.88 C 24.11 31.67 23.21 32.46 22.32 33.25 C 22.57 34.42 22.81 35.59 23.06 36.75 C 22.06 36.14 21.05 35.53 20.04 34.93 C 19.01 35.53 17.97 36.14 16.94 36.74 C 17.19 35.57 17.43 34.40 17.68 33.24 C 16.80 32.45 15.91 31.66 15.03 30.87 C 15.91 30.78 17.67 30.60 18.55 30.50 C 18.90 29.73 19.60 28.19 19.94 27.41 Z" />
<path fill="#000000" opacity="1.00" d=" M 42.55 30.51 C 43.03 29.43 43.51 28.35 44.00 27.26 C 44.49 28.35 44.98 29.43 45.47 30.51 C 46.35 30.61 48.12 30.79 49.00 30.88 C 48.11 31.67 47.21 32.47 46.32 33.26 C 46.56 34.42 46.81 35.59 47.07 36.75 C 46.05 36.14 45.03 35.53 44.01 34.92 C 43.25 35.38 41.72 36.28 40.96 36.74 C 41.20 35.57 41.44 34.40 41.68 33.24 C 40.79 32.45 39.91 31.66 39.03 30.87 C 39.91 30.78 41.67 30.60 42.55 30.51 Z" />
</g>
</svg>
