<?xml version="1.0" encoding="UTF-8" ?>
<!DOCTYPE svg PUBLIC "-//W3C//DTD SVG 1.1//EN" "http://www.w3.org/Graphics/SVG/1.1/DTD/svg11.dtd">
<svg width="64pt" height="64pt" viewBox="0 0 64 64" version="1.1" xmlns="http://www.w3.org/2000/svg">
<g id="#ffffffff">
<path fill="#ffffff" opacity="1.00" d=" M 0.00 0.00 L 64.00 0.00 L 64.00 64.00 L 0.00 64.00 L 0.00 0.00 M 22.25 24.42 C 27.77 27.70 33.25 31.04 38.74 34.37 C 33.84 39.30 28.92 44.20 24.01 49.12 C 24.00 46.08 24.00 43.04 24.00 40.00 C 22.67 40.00 21.33 40.00 20.00 40.00 C 20.00 45.33 20.00 50.67 20.00 56.00 C 25.33 56.00 30.67 56.00 36.00 56.00 C 36.00 54.67 36.00 53.33 36.00 52.00 C 32.97 52.00 29.94 52.00 26.91 52.00 C 32.99 45.84 39.20 39.81 45.22 33.60 C 39.68 30.24 34.14 26.87 28.56 23.57 C 32.57 19.28 36.63 15.04 40.64 10.75 C 39.67 9.84 38.72 8.91 37.76 7.99 C 32.60 13.47 27.42 18.95 22.25 24.42 Z" />
</g>
<g id="#000000ff">
<path fill="#000000" opacity="1.00" d=" M 22.25 24.42 C 27.42 18.95 32.60 13.47 37.76 7.99 C 38.72 8.91 39.67 9.84 40.64 10.75 C 36.63 15.04 32.57 19.28 28.56 23.57 C 34.14 26.87 39.68 30.24 45.22 33.60 C 39.20 39.81 32.99 45.84 26.91 52.00 C 29.94 52.00 32.97 52.00 36.00 52.00 C 36.00 53.33 36.00 54.67 36.00 56.00 C 30.67 56.00 25.33 56.00 20.00 56.00 C 20.00 50.67 20.00 45.33 20.00 40.00 C 21.33 40.00 22.67 40.00 24.00 40.00 C 24.00 43.04 24.00 46.08 24.01 49.12 C 28.92 44.20 33.84 39.30 38.74 34.37 C 33.25 31.04 27.77 27.70 22.25 24.42 Z" />
</g>
</svg>
