<?xml version="1.0" encoding="UTF-8" ?>
<!DOCTYPE svg PUBLIC "-//W3C//DTD SVG 1.1//EN" "http://www.w3.org/Graphics/SVG/1.1/DTD/svg11.dtd">
<svg width="60pt" height="60pt" viewBox="0 0 60 60" version="1.1" xmlns="http://www.w3.org/2000/svg">
<g id="#ffffffff">
<path fill="#ffffff" opacity="1.00" d=" M 0.00 0.00 L 60.00 0.00 L 60.00 60.00 L 0.00 60.00 L 0.00 0.00 M 32.44 4.50 C 28.29 6.48 26.81 12.09 29.10 15.99 C 32.11 21.90 41.25 22.77 42.10 30.02 C 42.07 32.13 44.94 32.72 45.83 30.87 C 46.57 26.41 43.46 22.41 39.91 20.10 C 37.20 17.93 33.34 16.49 32.12 12.98 C 31.13 10.00 33.87 8.28 35.90 6.86 C 36.80 4.73 34.09 3.12 32.44 4.50 M 38.61 13.38 C 40.40 14.29 42.72 14.20 44.12 15.80 C 45.78 17.21 45.63 19.60 46.66 21.37 C 47.74 21.94 48.93 22.33 49.96 22.99 C 51.89 24.61 51.61 27.33 52.60 29.44 C 53.75 30.69 56.12 29.70 55.96 27.99 C 56.17 23.81 53.60 19.89 49.79 18.24 C 48.63 13.85 44.85 9.86 40.05 10.04 C 38.31 9.78 37.24 12.36 38.61 13.38 M 4.17 37.12 C 3.86 40.35 3.87 43.61 4.16 46.84 C 4.87 48.33 6.64 47.88 7.95 48.02 C 17.30 47.99 26.65 48.00 36.00 48.00 C 36.00 44.00 36.00 40.00 36.00 36.00 C 26.66 36.00 17.32 36.01 7.98 35.98 C 6.67 36.13 4.90 35.65 4.17 37.12 M 40.00 35.91 C 40.00 39.97 40.00 44.03 40.00 48.09 C 41.27 48.06 42.54 47.95 43.79 47.76 C 44.79 46.68 45.35 45.29 46.04 44.01 C 47.35 44.00 48.66 44.00 49.97 44.01 C 50.66 45.30 51.19 46.73 52.27 47.78 C 53.62 48.42 56.07 47.93 55.92 46.05 C 55.87 42.97 56.61 39.49 55.43 36.64 C 52.82 34.40 50.73 37.77 49.97 40.00 C 48.66 40.00 47.35 40.00 46.04 39.99 C 45.34 38.71 44.80 37.29 43.76 36.23 C 42.52 36.05 41.26 35.94 40.00 35.91 Z" />
<path fill="#ffffff" opacity="1.00" d=" M 29.16 40.11 C 31.55 39.13 33.14 42.74 30.85 43.89 C 28.43 44.86 26.85 41.24 29.16 40.11 Z" />
</g>
<g id="#000000ff">
<path fill="#000000" opacity="1.00" d=" M 32.44 4.50 C 34.09 3.12 36.80 4.73 35.90 6.86 C 33.87 8.28 31.13 10.00 32.12 12.98 C 33.34 16.49 37.20 17.93 39.91 20.10 C 43.46 22.41 46.57 26.41 45.83 30.87 C 44.94 32.72 42.07 32.13 42.10 30.02 C 41.25 22.77 32.11 21.90 29.10 15.99 C 26.81 12.09 28.29 6.48 32.44 4.50 Z" />
<path fill="#000000" opacity="1.00" d=" M 38.61 13.38 C 37.24 12.36 38.31 9.78 40.05 10.04 C 44.85 9.86 48.63 13.85 49.79 18.24 C 53.60 19.89 56.17 23.81 55.96 27.99 C 56.12 29.70 53.75 30.69 52.60 29.44 C 51.61 27.33 51.89 24.61 49.96 22.99 C 48.93 22.33 47.74 21.94 46.66 21.37 C 45.63 19.60 45.78 17.21 44.12 15.80 C 42.72 14.20 40.40 14.29 38.61 13.38 Z" />
<path fill="#000000" opacity="1.00" d=" M 4.17 37.12 C 4.90 35.65 6.67 36.13 7.98 35.98 C 17.32 36.01 26.66 36.00 36.00 36.00 C 36.00 40.00 36.00 44.00 36.00 48.00 C 26.65 48.00 17.30 47.99 7.95 48.02 C 6.64 47.88 4.87 48.33 4.16 46.84 C 3.87 43.61 3.86 40.35 4.17 37.12 M 29.16 40.11 C 26.85 41.24 28.43 44.86 30.85 43.89 C 33.14 42.74 31.55 39.13 29.16 40.11 Z" />
<path fill="#000000" opacity="1.00" d=" M 40.00 35.91 C 41.26 35.94 42.52 36.05 43.76 36.23 C 44.80 37.29 45.34 38.71 46.04 39.99 C 47.35 40.00 48.66 40.00 49.97 40.00 C 50.73 37.77 52.82 34.40 55.43 36.64 C 56.61 39.49 55.87 42.97 55.92 46.05 C 56.07 47.93 53.62 48.42 52.27 47.78 C 51.19 46.73 50.66 45.30 49.97 44.01 C 48.66 44.00 47.35 44.00 46.04 44.01 C 45.35 45.29 44.79 46.68 43.79 47.76 C 42.54 47.95 41.27 48.06 40.00 48.09 C 40.00 44.03 40.00 39.97 40.00 35.91 Z" />
</g>
</svg>
