<?xml version="1.0" encoding="UTF-8" ?>
<!DOCTYPE svg PUBLIC "-//W3C//DTD SVG 1.1//EN" "http://www.w3.org/Graphics/SVG/1.1/DTD/svg11.dtd">
<svg width="60pt" height="60pt" viewBox="0 0 60 60" version="1.1" xmlns="http://www.w3.org/2000/svg">
<g id="#ffffffff">
<path fill="#ffffff" opacity="1.00" d=" M 0.00 0.00 L 60.00 0.00 L 60.00 37.40 C 59.71 30.33 52.77 25.01 45.87 26.04 C 44.16 21.41 42.55 16.73 40.85 12.10 C 42.66 11.83 45.70 12.62 46.07 10.04 C 45.80 7.45 42.77 8.07 40.96 7.94 C 39.25 8.07 36.05 7.45 36.06 10.04 C 36.68 12.84 37.89 15.47 38.80 18.18 C 34.86 20.77 30.91 23.33 26.95 25.89 C 24.62 22.65 22.36 19.36 19.94 16.19 C 22.36 16.77 25.76 14.22 22.93 12.21 C 19.95 11.83 16.91 11.90 13.91 12.09 C 12.28 11.89 11.25 14.37 12.64 15.33 C 13.65 15.95 15.02 16.09 15.74 17.10 C 18.42 20.71 20.96 24.43 23.58 28.07 C 22.69 28.65 21.80 29.23 20.92 29.81 C 18.16 27.40 14.64 25.58 10.87 26.09 C 5.13 26.51 0.40 31.54 0.00 37.23 L 0.00 0.00 Z" />
<path fill="#ffffff" opacity="1.00" d=" M 13.40 39.42 C 22.35 33.69 31.26 27.89 40.13 22.02 C 40.79 23.79 41.45 25.56 42.01 27.36 C 33.98 31.64 34.06 44.96 42.47 48.75 C 49.83 52.65 59.65 47.08 60.00 38.74 L 60.00 60.00 L 0.00 60.00 L 0.00 38.61 C 0.33 42.73 2.69 46.67 6.42 48.57 C 9.39 50.27 12.92 49.94 16.21 50.06 C 18.14 54.29 23.03 54.26 27.00 54.04 C 28.74 53.88 31.82 54.57 32.02 52.02 C 31.69 49.07 27.99 50.27 26.00 49.95 C 26.00 48.65 26.00 47.35 26.00 46.05 C 27.61 46.00 29.24 46.07 30.84 45.80 C 32.76 45.07 32.11 41.86 30.01 42.08 C 25.25 42.04 18.68 40.65 16.19 46.00 C 12.83 46.04 8.87 46.38 6.35 43.66 C 2.65 40.20 3.53 33.39 8.05 31.05 C 11.05 29.19 14.76 30.10 17.48 32.01 C 15.07 33.78 12.24 35.05 10.13 37.21 C 9.18 39.17 11.91 40.98 13.40 39.42 Z" />
<path fill="#ffffff" opacity="1.00" d=" M 47.27 29.89 C 52.58 29.54 57.32 34.84 55.71 40.07 C 54.48 45.61 46.94 47.85 42.72 44.23 C 38.81 40.90 39.25 34.13 43.38 31.14 C 44.40 33.66 45.15 36.29 46.24 38.79 C 46.83 40.87 50.25 40.13 49.97 37.97 C 49.32 35.21 48.10 32.61 47.27 29.89 Z" />
</g>
<g id="#000000ff">
<path fill="#000000" opacity="1.00" d=" M 36.06 10.04 C 36.05 7.45 39.25 8.07 40.96 7.94 C 42.77 8.07 45.80 7.45 46.07 10.04 C 45.70 12.62 42.66 11.83 40.85 12.10 C 42.55 16.73 44.16 21.41 45.87 26.04 C 52.77 25.01 59.71 30.33 60.00 37.40 L 60.00 38.74 C 59.65 47.08 49.83 52.65 42.47 48.75 C 34.06 44.96 33.98 31.64 42.01 27.36 C 41.45 25.56 40.79 23.79 40.13 22.02 C 31.26 27.89 22.35 33.69 13.40 39.42 C 11.91 40.98 9.18 39.17 10.13 37.21 C 12.24 35.05 15.07 33.78 17.48 32.01 C 14.76 30.10 11.05 29.19 8.05 31.05 C 3.53 33.39 2.65 40.20 6.35 43.66 C 8.87 46.38 12.83 46.04 16.19 46.00 C 18.68 40.65 25.25 42.04 30.01 42.08 C 32.11 41.86 32.76 45.07 30.84 45.80 C 29.24 46.07 27.61 46.00 26.00 46.05 C 26.00 47.35 26.00 48.65 26.00 49.95 C 27.99 50.27 31.69 49.07 32.02 52.02 C 31.82 54.57 28.74 53.88 27.00 54.04 C 23.03 54.26 18.14 54.29 16.21 50.06 C 12.92 49.94 9.39 50.27 6.42 48.57 C 2.69 46.67 0.33 42.73 0.00 38.61 L 0.00 37.23 C 0.40 31.54 5.13 26.51 10.87 26.09 C 14.64 25.58 18.16 27.40 20.92 29.81 C 21.80 29.23 22.69 28.65 23.58 28.07 C 20.96 24.43 18.42 20.71 15.74 17.10 C 15.02 16.09 13.65 15.95 12.64 15.33 C 11.25 14.37 12.28 11.89 13.91 12.09 C 16.91 11.90 19.95 11.83 22.93 12.21 C 25.76 14.22 22.36 16.77 19.94 16.19 C 22.36 19.36 24.62 22.65 26.95 25.89 C 30.91 23.33 34.86 20.77 38.80 18.18 C 37.89 15.47 36.68 12.84 36.06 10.04 M 47.27 29.89 C 48.10 32.61 49.32 35.21 49.97 37.97 C 50.25 40.13 46.83 40.87 46.24 38.79 C 45.15 36.29 44.40 33.66 43.38 31.14 C 39.25 34.13 38.81 40.90 42.72 44.23 C 46.94 47.85 54.48 45.61 55.71 40.07 C 57.32 34.84 52.58 29.54 47.27 29.89 Z" />
</g>
</svg>
