<?xml version="1.0" encoding="UTF-8" ?>
<!DOCTYPE svg PUBLIC "-//W3C//DTD SVG 1.1//EN" "http://www.w3.org/Graphics/SVG/1.1/DTD/svg11.dtd">
<svg width="60pt" height="60pt" viewBox="0 0 60 60" version="1.1" xmlns="http://www.w3.org/2000/svg">
<g id="#ffffffff">
<path fill="#ffffff" opacity="1.00" d=" M 0.00 0.00 L 60.00 0.00 L 60.00 60.00 L 0.00 60.00 L 0.00 0.00 M 5.16 8.10 C 2.87 9.23 4.42 12.87 6.81 11.89 C 9.15 10.80 7.58 7.14 5.16 8.10 M 13.23 8.17 C 10.75 8.98 12.51 13.06 14.78 11.80 C 17.24 10.98 15.51 7.00 13.23 8.17 M 21.18 8.10 C 18.83 9.23 20.44 12.90 22.88 11.88 C 25.10 10.68 23.56 7.17 21.18 8.10 M 29.11 8.12 C 26.85 9.33 28.48 12.88 30.90 11.87 C 33.14 10.64 31.50 7.12 29.11 8.12 M 37.15 8.10 C 34.89 9.23 36.38 12.82 38.79 11.90 C 41.16 10.81 39.59 7.13 37.15 8.10 M 45.16 8.11 C 42.84 9.24 44.45 12.89 46.87 11.88 C 49.12 10.69 47.55 7.15 45.16 8.11 M 53.15 8.11 C 50.87 9.19 52.40 12.89 54.80 11.85 C 57.19 10.82 55.54 7.09 53.15 8.11 M 45.76 16.73 C 42.18 19.38 41.28 24.08 39.61 27.97 C 33.73 28.03 27.85 27.99 21.97 28.00 C 22.25 29.33 22.52 30.67 22.77 32.01 C 27.75 32.01 32.74 31.95 37.72 32.05 C 36.56 33.36 35.62 35.14 33.82 35.64 C 31.15 36.20 28.21 36.20 26.01 38.06 C 24.56 38.79 22.97 40.70 21.22 39.69 C 17.70 33.66 19.08 25.79 14.91 20.04 C 12.27 16.58 7.30 18.21 4.57 20.66 C 3.23 21.77 4.30 24.11 5.98 24.02 C 7.72 23.35 9.39 22.53 11.05 21.68 C 12.73 23.39 13.28 25.75 13.93 27.98 C 10.62 28.00 7.31 28.01 4.00 28.00 C 4.00 29.33 4.00 30.67 4.00 32.00 C 7.55 31.99 11.10 32.00 14.65 32.01 C 15.69 35.98 15.90 41.10 19.80 43.45 C 23.36 45.21 26.68 42.32 29.55 40.55 C 32.35 39.68 35.64 40.01 37.92 37.81 C 43.44 33.15 43.71 25.21 47.98 19.69 C 50.22 20.37 51.59 22.28 53.20 23.83 C 54.83 24.68 56.65 22.80 55.79 21.20 C 53.96 17.82 49.62 14.57 45.76 16.73 M 46.19 32.00 C 49.46 32.00 52.73 32.00 56.00 32.00 C 56.00 30.67 55.99 29.33 56.00 28.00 C 53.29 28.00 50.58 28.00 47.86 28.00 C 47.32 29.34 46.76 30.67 46.19 32.00 M 5.22 48.15 C 2.80 49.13 4.45 52.93 6.85 51.89 C 9.13 50.79 7.57 47.11 5.22 48.15 M 13.26 48.15 C 10.79 49.03 12.41 52.93 14.81 51.89 C 17.15 50.88 15.58 47.10 13.26 48.15 M 21.17 48.11 C 18.85 49.22 20.41 52.86 22.84 51.89 C 25.14 50.76 23.56 47.15 21.17 48.11 M 29.13 48.11 C 26.89 49.27 28.42 52.87 30.82 51.90 C 33.16 50.76 31.54 47.12 29.13 48.11 M 37.17 48.18 C 34.79 49.16 36.48 52.92 38.82 51.88 C 41.18 50.87 39.54 47.01 37.17 48.18 M 45.16 48.11 C 42.89 49.20 44.36 52.81 46.77 51.90 C 49.16 50.87 47.61 47.12 45.16 48.11 M 53.17 48.11 C 50.83 49.20 52.43 52.89 54.85 51.87 C 57.13 50.76 55.57 47.13 53.17 48.11 Z" />
</g>
<g id="#000000ff">
<path fill="#968176" opacity="1.00" d=" M 5.16 8.10 C 7.58 7.14 9.15 10.80 6.81 11.89 C 4.42 12.87 2.87 9.23 5.16 8.10 Z" />
<path fill="#968176" opacity="1.00" d=" M 13.23 8.17 C 15.51 7.00 17.24 10.98 14.78 11.80 C 12.51 13.06 10.75 8.98 13.23 8.17 Z" />
<path fill="#968176" opacity="1.00" d=" M 21.18 8.10 C 23.56 7.17 25.10 10.68 22.88 11.88 C 20.44 12.90 18.83 9.23 21.18 8.10 Z" />
<path fill="#968176" opacity="1.00" d=" M 29.11 8.12 C 31.50 7.12 33.14 10.64 30.90 11.87 C 28.48 12.88 26.85 9.33 29.11 8.12 Z" />
<path fill="#968176" opacity="1.00" d=" M 37.15 8.10 C 39.59 7.13 41.16 10.81 38.79 11.90 C 36.38 12.82 34.89 9.23 37.15 8.10 Z" />
<path fill="#968176" opacity="1.00" d=" M 45.16 8.11 C 47.55 7.15 49.12 10.69 46.87 11.88 C 44.45 12.89 42.84 9.24 45.16 8.11 Z" />
<path fill="#968176" opacity="1.00" d=" M 53.15 8.11 C 55.54 7.09 57.19 10.82 54.80 11.85 C 52.40 12.89 50.87 9.19 53.15 8.11 Z" />
<path fill="#968176" opacity="1.00" d=" M 45.76 16.73 C 49.62 14.57 53.96 17.82 55.79 21.20 C 56.65 22.80 54.83 24.68 53.20 23.83 C 51.59 22.28 50.22 20.37 47.98 19.69 C 43.71 25.21 43.44 33.15 37.92 37.81 C 35.64 40.01 32.35 39.68 29.55 40.55 C 26.68 42.32 23.36 45.21 19.80 43.45 C 15.90 41.10 15.69 35.98 14.65 32.01 C 11.10 32.00 7.55 31.99 4.00 32.00 C 4.00 30.67 4.00 29.33 4.00 28.00 C 7.31 28.01 10.62 28.00 13.93 27.98 C 13.28 25.75 12.73 23.39 11.05 21.68 C 9.39 22.53 7.72 23.35 5.98 24.02 C 4.30 24.11 3.23 21.77 4.57 20.66 C 7.30 18.21 12.27 16.58 14.91 20.04 C 19.08 25.79 17.70 33.66 21.22 39.69 C 22.97 40.70 24.56 38.79 26.01 38.06 C 28.21 36.20 31.15 36.20 33.82 35.64 C 35.62 35.14 36.56 33.36 37.72 32.05 C 32.74 31.95 27.75 32.01 22.77 32.01 C 22.52 30.67 22.25 29.33 21.97 28.00 C 27.85 27.99 33.73 28.03 39.61 27.97 C 41.28 24.08 42.18 19.38 45.76 16.73 Z" />
<path fill="#968176" opacity="1.00" d=" M 46.19 32.00 C 46.76 30.67 47.32 29.34 47.86 28.00 C 50.58 28.00 53.29 28.00 56.00 28.00 C 55.99 29.33 56.00 30.67 56.00 32.00 C 52.73 32.00 49.46 32.00 46.19 32.00 Z" />
<path fill="#968176" opacity="1.00" d=" M 5.22 48.15 C 7.57 47.11 9.13 50.79 6.85 51.89 C 4.45 52.93 2.80 49.13 5.22 48.15 Z" />
<path fill="#968176" opacity="1.00" d=" M 13.26 48.15 C 15.58 47.10 17.15 50.88 14.81 51.89 C 12.41 52.93 10.79 49.03 13.26 48.15 Z" />
<path fill="#968176" opacity="1.00" d=" M 21.17 48.11 C 23.56 47.15 25.14 50.76 22.84 51.89 C 20.41 52.86 18.85 49.22 21.17 48.11 Z" />
<path fill="#968176" opacity="1.00" d=" M 29.13 48.11 C 31.54 47.12 33.16 50.76 30.82 51.90 C 28.42 52.87 26.89 49.27 29.13 48.11 Z" />
<path fill="#968176" opacity="1.00" d=" M 37.17 48.18 C 39.54 47.01 41.18 50.87 38.82 51.88 C 36.48 52.92 34.79 49.16 37.17 48.18 Z" />
<path fill="#968176" opacity="1.00" d=" M 45.16 48.11 C 47.61 47.12 49.16 50.87 46.77 51.90 C 44.36 52.81 42.89 49.20 45.16 48.11 Z" />
<path fill="#968176" opacity="1.00" d=" M 53.17 48.11 C 55.57 47.13 57.13 50.76 54.85 51.87 C 52.43 52.89 50.83 49.20 53.17 48.11 Z" />
</g>
</svg>
