<?xml version="1.0" encoding="UTF-8" ?>
<!DOCTYPE svg PUBLIC "-//W3C//DTD SVG 1.1//EN" "http://www.w3.org/Graphics/SVG/1.1/DTD/svg11.dtd">
<svg width="60pt" height="60pt" viewBox="0 0 60 60" version="1.1" xmlns="http://www.w3.org/2000/svg">
<g id="#ffffffff">
<path fill="#ffffff" opacity="1.00" d=" M 0.00 0.00 L 60.00 0.00 L 60.00 60.00 L 0.00 60.00 L 0.00 0.00 M 8.03 11.92 C 7.98 23.97 7.97 36.02 8.04 48.07 C 7.93 50.61 10.61 52.37 12.96 52.00 C 24.68 51.97 36.40 52.06 48.12 51.96 C 50.62 52.03 52.36 49.43 52.00 47.09 C 51.92 35.07 52.16 23.04 51.88 11.03 C 50.36 6.39 44.62 8.42 41.00 8.00 C 36.92 11.90 32.87 15.83 28.79 19.73 C 33.83 21.45 38.90 23.09 43.92 24.87 C 38.81 30.02 33.67 35.15 28.55 40.28 C 30.27 41.25 31.99 42.22 33.71 43.18 C 28.73 44.28 23.76 45.38 18.77 46.37 C 19.79 41.54 20.79 36.71 21.86 31.89 C 23.17 33.23 23.93 34.98 24.86 36.59 C 28.08 33.45 31.26 30.25 34.42 27.04 C 29.36 25.27 24.32 23.44 19.26 21.70 C 24.05 17.13 28.86 12.58 33.65 8.00 C 26.39 8.03 19.13 7.94 11.86 8.04 C 9.86 8.02 7.99 9.91 8.03 11.92 Z" />
</g>
<g id="#000000ff">
<path fill="#000000" opacity="1.00" d=" M 8.03 11.92 C 7.99 9.91 9.86 8.02 11.86 8.04 C 19.13 7.94 26.39 8.03 33.65 8.00 C 28.86 12.58 24.05 17.13 19.26 21.70 C 24.32 23.44 29.36 25.27 34.42 27.04 C 31.26 30.25 28.08 33.45 24.86 36.59 C 23.93 34.98 23.17 33.23 21.86 31.89 C 20.79 36.71 19.79 41.54 18.77 46.37 C 23.76 45.38 28.73 44.28 33.71 43.18 C 31.99 42.22 30.27 41.25 28.55 40.28 C 33.67 35.15 38.81 30.02 43.92 24.87 C 38.90 23.09 33.83 21.45 28.79 19.73 C 32.87 15.83 36.92 11.90 41.00 8.00 C 44.62 8.42 50.36 6.39 51.88 11.03 C 52.16 23.04 51.92 35.07 52.00 47.09 C 52.36 49.43 50.62 52.03 48.12 51.96 C 36.40 52.06 24.68 51.97 12.96 52.00 C 10.61 52.37 7.93 50.61 8.04 48.07 C 7.97 36.02 7.98 23.97 8.03 11.92 Z" />
</g>
</svg>
