<?xml version="1.0" encoding="UTF-8" ?>
<!DOCTYPE svg PUBLIC "-//W3C//DTD SVG 1.1//EN" "http://www.w3.org/Graphics/SVG/1.1/DTD/svg11.dtd">
<svg width="60pt" height="60pt" viewBox="0 0 60 60" version="1.1" xmlns="http://www.w3.org/2000/svg">
<g id="#ffffffff">
<path fill="#ffffff" opacity="1.00" d=" M 0.00 0.00 L 60.00 0.00 L 60.00 60.00 L 0.00 60.00 L 0.00 0.00 M 27.41 9.15 C 26.43 14.49 28.57 19.98 32.26 23.84 C 34.30 25.35 31.20 28.32 29.65 26.41 C 24.16 21.42 21.93 13.03 24.29 5.99 C 20.35 6.14 16.02 5.37 12.46 7.50 C 7.08 10.63 4.78 17.73 6.71 23.54 C 8.30 28.34 11.11 32.79 11.63 37.91 C 12.12 40.78 11.42 44.25 14.03 46.28 C 14.00 48.97 14.18 51.85 15.92 54.06 C 19.59 59.27 28.43 59.27 32.09 54.05 C 33.81 51.84 34.00 48.97 33.97 46.28 C 34.70 45.27 35.91 44.42 35.86 43.03 C 36.30 37.31 36.63 31.02 40.34 26.32 C 41.58 24.48 44.20 24.98 45.61 26.32 C 48.85 29.49 49.10 35.05 47.03 38.92 C 45.97 41.27 41.25 41.92 42.95 45.03 C 45.16 46.51 47.41 44.36 49.10 43.06 C 54.44 37.94 55.64 30.10 55.95 23.04 C 56.20 17.74 55.38 11.59 50.93 8.08 C 47.45 5.25 42.43 5.57 38.63 7.57 C 37.51 5.99 36.16 4.29 34.05 4.18 C 30.89 3.52 27.99 6.17 27.41 9.15 Z" />
<path fill="#ffffff" opacity="1.00" d=" M 49.47 17.61 C 51.67 16.46 53.34 20.25 51.06 21.07 C 48.83 22.32 47.04 18.46 49.47 17.61 Z" />
<path fill="#ffffff" opacity="1.00" d=" M 20.19 38.35 C 21.32 37.08 21.97 34.60 24.04 34.68 C 26.30 34.32 27.03 36.87 27.87 38.40 C 25.32 38.03 22.74 38.02 20.19 38.35 Z" />
<path fill="#ffffff" opacity="1.00" d=" M 21.35 42.50 C 24.86 40.87 29.66 43.01 29.93 47.09 C 30.84 51.47 26.24 55.28 22.06 53.74 C 17.00 52.51 16.65 44.44 21.35 42.50 Z" />
</g>
<g id="#000000ff">
<path fill="#968176" opacity="1.00" d=" M 27.41 9.15 C 27.99 6.17 30.89 3.52 34.05 4.18 C 36.16 4.29 37.51 5.99 38.63 7.57 C 42.43 5.57 47.45 5.25 50.93 8.08 C 55.38 11.59 56.20 17.74 55.95 23.04 C 55.64 30.10 54.44 37.94 49.10 43.06 C 47.41 44.36 45.16 46.51 42.95 45.03 C 41.25 41.92 45.97 41.27 47.03 38.92 C 49.10 35.05 48.85 29.49 45.61 26.32 C 44.20 24.98 41.58 24.48 40.34 26.32 C 36.63 31.02 36.30 37.31 35.86 43.03 C 35.91 44.42 34.70 45.27 33.97 46.28 C 34.00 48.97 33.81 51.84 32.09 54.05 C 28.43 59.27 19.59 59.27 15.92 54.06 C 14.18 51.85 14.00 48.97 14.03 46.28 C 11.42 44.25 12.12 40.78 11.63 37.91 C 11.11 32.79 8.30 28.34 6.71 23.54 C 4.78 17.73 7.08 10.63 12.46 7.50 C 16.02 5.37 20.35 6.14 24.29 5.99 C 21.93 13.03 24.16 21.42 29.65 26.41 C 31.20 28.32 34.30 25.35 32.26 23.84 C 28.57 19.98 26.43 14.49 27.41 9.15 M 49.47 17.61 C 47.04 18.46 48.83 22.32 51.06 21.07 C 53.34 20.25 51.67 16.46 49.47 17.61 M 20.19 38.35 C 22.74 38.02 25.32 38.03 27.87 38.40 C 27.03 36.87 26.30 34.32 24.04 34.68 C 21.97 34.60 21.32 37.08 20.19 38.35 M 21.35 42.50 C 16.65 44.44 17.00 52.51 22.06 53.74 C 26.24 55.28 30.84 51.47 29.93 47.09 C 29.66 43.01 24.86 40.87 21.35 42.50 Z" />
</g>
</svg>
