<?xml version="1.0" encoding="UTF-8" ?>
<!DOCTYPE svg PUBLIC "-//W3C//DTD SVG 1.1//EN" "http://www.w3.org/Graphics/SVG/1.1/DTD/svg11.dtd">
<svg width="60pt" height="60pt" viewBox="0 0 60 60" version="1.1" xmlns="http://www.w3.org/2000/svg">
<g id="#ffffffff">
<path fill="#ffffff" opacity="1.00" d=" M 0.00 0.00 L 60.00 0.00 L 60.00 28.94 C 59.27 24.78 55.32 21.40 51.01 22.08 C 46.11 22.51 42.66 28.08 44.48 32.67 C 45.86 36.98 51.29 39.27 55.35 37.24 C 57.86 36.23 59.21 33.72 60.00 31.27 L 60.00 60.00 L 0.00 60.00 L 0.00 31.11 C 0.79 36.49 7.28 39.85 11.99 36.91 C 17.26 34.17 17.21 25.71 11.91 23.03 C 7.23 20.21 0.97 23.46 0.00 28.69 L 0.00 0.00 M 27.32 22.47 C 23.54 23.72 21.20 28.07 22.25 31.92 C 23.17 36.10 27.84 38.91 31.97 37.73 C 36.37 36.74 39.15 31.60 37.54 27.37 C 36.23 23.29 31.33 20.93 27.32 22.47 Z" />
</g>
<g id="#000000ff">
<path fill="#000000" opacity="1.00" d=" M 0.00 28.69 C 0.97 23.46 7.23 20.21 11.91 23.03 C 17.21 25.71 17.26 34.17 11.99 36.91 C 7.28 39.85 0.79 36.49 0.00 31.11 L 0.00 28.69 Z" />
<path fill="#000000" opacity="1.00" d=" M 27.32 22.47 C 31.33 20.93 36.23 23.29 37.54 27.37 C 39.15 31.60 36.37 36.74 31.97 37.73 C 27.84 38.91 23.17 36.10 22.25 31.92 C 21.20 28.07 23.54 23.72 27.32 22.47 Z" />
<path fill="#000000" opacity="1.00" d=" M 44.48 32.67 C 42.66 28.08 46.11 22.51 51.01 22.08 C 55.32 21.40 59.27 24.78 60.00 28.94 L 60.00 31.27 C 59.21 33.72 57.86 36.23 55.35 37.24 C 51.29 39.27 45.86 36.98 44.48 32.67 Z" />
</g>
</svg>
