<?xml version="1.0" encoding="UTF-8" ?>
<!DOCTYPE svg PUBLIC "-//W3C//DTD SVG 1.1//EN" "http://www.w3.org/Graphics/SVG/1.1/DTD/svg11.dtd">
<svg width="60pt" height="60pt" viewBox="0 0 60 60" version="1.1" xmlns="http://www.w3.org/2000/svg">
<g id="#ffffffff">
<path fill="#ffffff" opacity="1.00" d=" M 0.00 0.00 L 60.00 0.00 L 60.00 60.00 L 0.00 60.00 L 0.00 0.00 M 24.40 6.66 C 17.55 8.29 11.53 13.08 8.46 19.42 C 5.09 26.19 5.21 34.56 8.80 41.22 C 12.33 47.99 19.28 52.84 26.86 53.78 C 33.91 54.74 41.34 52.38 46.46 47.43 C 51.74 42.51 54.58 35.10 53.89 27.90 C 53.35 21.16 49.74 14.77 44.32 10.75 C 38.72 6.52 31.21 5.02 24.40 6.66 Z" />
<path fill="#ffffff" opacity="1.00" d=" M 12.80 19.81 C 15.95 14.46 21.71 10.71 27.91 10.12 C 35.02 9.29 42.38 12.70 46.40 18.60 C 49.59 23.03 50.48 28.72 49.87 34.05 C 49.44 38.01 45.07 40.89 41.26 39.75 C 39.60 39.43 38.46 38.10 37.18 37.12 C 33.26 40.68 26.75 41.04 22.97 37.08 C 18.26 32.73 19.47 24.18 25.16 21.27 C 30.97 17.70 39.53 22.06 39.83 28.91 C 40.17 31.45 39.28 35.85 43.04 36.02 C 46.65 35.74 46.13 31.39 45.94 28.83 C 45.52 20.38 37.40 13.25 28.94 14.04 C 20.06 14.43 12.69 23.31 14.15 32.13 C 15.04 39.91 22.27 45.97 30.00 46.10 C 32.11 45.94 32.69 49.00 30.87 49.85 C 22.93 50.58 15.04 45.49 11.81 38.29 C 9.10 32.46 9.48 25.32 12.80 19.81 M 27.46 24.57 C 23.22 26.32 22.85 32.88 26.86 35.10 C 30.59 37.66 36.21 34.49 35.99 29.99 C 36.15 25.78 31.21 22.61 27.46 24.57 Z" />
</g>
<g id="#000000ff">
<path fill="#000000" opacity="1.00" d=" M 24.40 6.66 C 31.21 5.02 38.72 6.52 44.32 10.75 C 49.74 14.77 53.35 21.16 53.89 27.90 C 54.58 35.10 51.74 42.51 46.46 47.43 C 41.34 52.38 33.91 54.74 26.86 53.78 C 19.28 52.84 12.33 47.99 8.80 41.22 C 5.21 34.56 5.09 26.19 8.46 19.42 C 11.53 13.08 17.55 8.29 24.40 6.66 M 12.80 19.81 C 9.48 25.32 9.10 32.46 11.81 38.29 C 15.04 45.49 22.93 50.58 30.87 49.85 C 32.69 49.00 32.11 45.94 30.00 46.10 C 22.27 45.97 15.04 39.91 14.15 32.13 C 12.69 23.31 20.06 14.43 28.94 14.04 C 37.40 13.25 45.52 20.38 45.94 28.83 C 46.13 31.39 46.65 35.74 43.04 36.02 C 39.28 35.85 40.17 31.45 39.83 28.91 C 39.53 22.06 30.97 17.70 25.16 21.27 C 19.47 24.18 18.26 32.73 22.97 37.08 C 26.75 41.04 33.26 40.68 37.18 37.12 C 38.46 38.10 39.60 39.43 41.26 39.75 C 45.07 40.89 49.44 38.01 49.87 34.05 C 50.48 28.72 49.59 23.03 46.40 18.60 C 42.38 12.70 35.02 9.29 27.91 10.12 C 21.71 10.71 15.95 14.46 12.80 19.81 Z" />
<path fill="#000000" opacity="1.00" d=" M 27.46 24.57 C 31.21 22.61 36.15 25.78 35.99 29.99 C 36.21 34.49 30.59 37.66 26.86 35.10 C 22.85 32.88 23.22 26.32 27.46 24.57 Z" />
</g>
</svg>
