<?xml version="1.0" encoding="UTF-8" ?>
<!DOCTYPE svg PUBLIC "-//W3C//DTD SVG 1.1//EN" "http://www.w3.org/Graphics/SVG/1.1/DTD/svg11.dtd">
<svg width="64pt" height="64pt" viewBox="0 0 64 64" version="1.1" xmlns="http://www.w3.org/2000/svg">
<g id="#ffffffff">
<path fill="#ffffff" opacity="1.00" d=" M 0.00 0.00 L 64.00 0.00 L 64.00 64.00 L 0.00 64.00 L 0.00 0.00 M 26.43 8.66 C 19.10 10.38 12.74 15.76 9.88 22.73 C 7.01 29.46 7.49 37.50 11.14 43.84 C 14.79 50.30 21.57 54.89 28.94 55.78 C 35.71 56.69 42.82 54.51 47.89 49.94 C 53.25 45.23 56.33 38.05 55.95 30.92 C 55.70 24.05 52.25 17.43 46.87 13.18 C 41.23 8.64 33.46 6.97 26.43 8.66 Z" />
<path fill="#ffffff" opacity="1.00" d=" M 29.28 12.18 C 39.01 10.64 49.10 17.40 51.35 26.99 C 53.36 34.42 50.58 42.85 44.51 47.60 C 37.85 53.10 27.58 53.44 20.57 48.41 C 13.80 43.83 10.49 34.86 12.64 26.98 C 14.52 19.27 21.41 13.16 29.28 12.18 M 22.22 22.26 C 17.63 23.34 16.53 30.13 20.30 32.79 C 23.70 35.52 29.61 33.34 29.94 28.84 C 30.76 24.61 26.24 20.84 22.22 22.26 M 38.31 22.24 C 33.66 23.25 32.50 30.10 36.30 32.79 C 39.68 35.50 45.54 33.38 45.92 28.92 C 46.80 24.70 42.35 20.88 38.31 22.24 M 26.00 38.00 C 26.00 39.33 26.00 40.67 26.00 42.00 C 30.00 42.00 34.00 42.00 38.00 42.00 C 38.00 40.67 38.00 39.33 38.00 38.00 C 34.00 38.00 30.00 38.00 26.00 38.00 Z" />
<path fill="#ffffff" opacity="1.00" d=" M 23.26 26.12 C 25.71 24.93 27.21 29.21 24.72 29.85 C 22.34 31.08 20.76 26.84 23.26 26.12 Z" />
<path fill="#ffffff" opacity="1.00" d=" M 39.26 26.15 C 41.68 24.88 43.23 29.22 40.72 29.85 C 38.31 31.10 36.79 26.79 39.26 26.15 Z" />
</g>
<g id="#000000ff">
<path fill="#000000" opacity="1.00" d=" M 26.43 8.66 C 33.46 6.97 41.23 8.64 46.87 13.18 C 52.25 17.43 55.70 24.05 55.95 30.92 C 56.33 38.05 53.25 45.23 47.89 49.94 C 42.82 54.51 35.71 56.69 28.94 55.78 C 21.57 54.89 14.79 50.30 11.14 43.84 C 7.49 37.50 7.01 29.46 9.88 22.73 C 12.74 15.76 19.10 10.38 26.43 8.66 M 29.28 12.18 C 21.41 13.16 14.52 19.27 12.64 26.98 C 10.49 34.86 13.80 43.83 20.57 48.41 C 27.58 53.44 37.85 53.10 44.51 47.60 C 50.58 42.85 53.36 34.42 51.35 26.99 C 49.10 17.40 39.01 10.64 29.28 12.18 Z" />
<path fill="#000000" opacity="1.00" d=" M 22.22 22.26 C 26.24 20.84 30.76 24.61 29.94 28.84 C 29.61 33.34 23.70 35.52 20.30 32.79 C 16.53 30.13 17.63 23.34 22.22 22.26 M 23.26 26.12 C 20.76 26.84 22.34 31.08 24.72 29.85 C 27.21 29.21 25.71 24.93 23.26 26.12 Z" />
<path fill="#000000" opacity="1.00" d=" M 38.31 22.24 C 42.35 20.88 46.80 24.70 45.92 28.92 C 45.54 33.38 39.68 35.50 36.30 32.79 C 32.50 30.10 33.66 23.25 38.31 22.24 M 39.26 26.15 C 36.79 26.79 38.31 31.10 40.72 29.85 C 43.23 29.22 41.68 24.88 39.26 26.15 Z" />
<path fill="#000000" opacity="1.00" d=" M 26.00 38.00 C 30.00 38.00 34.00 38.00 38.00 38.00 C 38.00 39.33 38.00 40.67 38.00 42.00 C 34.00 42.00 30.00 42.00 26.00 42.00 C 26.00 40.67 26.00 39.33 26.00 38.00 Z" />
</g>
</svg>
