<?xml version="1.0" encoding="UTF-8" ?>
<!DOCTYPE svg PUBLIC "-//W3C//DTD SVG 1.1//EN" "http://www.w3.org/Graphics/SVG/1.1/DTD/svg11.dtd">
<svg width="60pt" height="60pt" viewBox="0 0 60 60" version="1.1" xmlns="http://www.w3.org/2000/svg">
<g id="#ffffffff">
<path fill="#ffffff" opacity="1.00" d=" M 0.00 0.00 L 60.00 0.00 L 60.00 60.00 L 0.00 60.00 L 0.00 0.00 M 28.00 4.02 C 28.00 5.34 28.00 6.66 28.00 7.98 C 30.52 8.00 33.05 8.02 35.58 8.00 C 35.47 6.67 35.47 5.33 35.58 4.00 C 33.05 3.98 30.52 4.00 28.00 4.02 M 10.00 12.01 C 10.00 14.00 10.00 15.99 10.00 17.99 C 23.33 18.01 36.67 18.01 50.00 17.99 C 50.00 15.99 50.00 14.00 50.00 12.01 C 36.67 11.99 23.33 11.99 10.00 12.01 M 4.01 22.01 C 4.03 30.01 3.93 38.02 4.04 46.02 C 3.88 48.61 6.56 50.34 8.93 50.00 C 23.29 49.97 37.66 50.06 52.01 49.96 C 54.12 50.04 56.04 48.12 55.96 46.02 C 56.07 38.01 55.98 30.01 55.99 22.01 C 38.66 21.99 21.34 21.99 4.01 22.01 Z" />
<path fill="#ffffff" opacity="1.00" d=" M 8.00 26.00 C 9.33 26.00 10.67 26.00 12.00 26.00 C 12.00 27.33 12.00 28.66 12.00 30.00 C 10.67 30.00 9.33 30.00 8.00 30.00 C 8.00 28.67 8.00 27.33 8.00 26.00 Z" />
<path fill="#ffffff" opacity="1.00" d=" M 16.00 26.00 C 17.33 26.00 18.67 26.00 20.00 26.00 C 20.00 27.33 20.00 28.67 20.00 30.00 C 18.66 30.00 17.33 30.00 16.00 30.00 C 16.00 28.66 16.00 27.33 16.00 26.00 Z" />
<path fill="#ffffff" opacity="1.00" d=" M 24.00 26.00 C 25.34 26.00 26.67 26.00 28.00 26.01 C 28.00 27.34 28.00 28.67 28.00 30.00 C 26.66 30.00 25.33 30.00 24.00 30.00 C 24.00 28.66 24.00 27.33 24.00 26.00 Z" />
<path fill="#ffffff" opacity="1.00" d=" M 32.00 26.00 C 33.33 26.00 34.66 26.00 36.00 26.00 C 36.00 27.33 36.00 28.66 36.00 29.99 C 34.67 30.00 33.34 30.00 32.00 30.00 C 32.00 28.67 32.00 27.33 32.00 26.00 Z" />
<path fill="#ffffff" opacity="1.00" d=" M 40.01 26.00 C 41.34 26.00 42.67 26.00 44.00 26.00 C 44.00 27.33 44.00 28.66 44.00 30.00 C 42.67 30.00 41.33 30.00 40.00 30.00 C 40.00 28.66 40.00 27.33 40.01 26.00 Z" />
<path fill="#ffffff" opacity="1.00" d=" M 48.00 26.00 C 49.33 26.00 50.67 26.00 52.00 26.00 C 52.00 27.33 52.00 28.66 52.00 30.00 C 50.67 30.00 49.33 30.00 48.00 30.00 C 48.00 28.67 48.00 27.33 48.00 26.00 Z" />
<path fill="#ffffff" opacity="1.00" d=" M 8.02 34.00 C 9.34 34.00 10.66 34.00 11.97 34.00 C 12.02 38.00 12.02 42.00 11.98 46.00 C 10.66 46.00 9.34 46.00 8.02 46.00 C 7.98 42.00 7.98 38.00 8.02 34.00 Z" />
<path fill="#ffffff" opacity="1.00" d=" M 16.02 34.00 C 17.34 34.00 18.66 34.00 19.98 34.00 C 20.02 38.00 20.02 42.00 19.98 46.00 C 18.66 46.00 17.34 46.00 16.02 46.00 C 15.98 42.00 15.98 38.00 16.02 34.00 Z" />
<path fill="#ffffff" opacity="1.00" d=" M 24.03 34.00 C 25.34 34.00 26.66 34.00 27.98 34.00 C 28.02 38.00 28.02 42.00 27.98 46.00 C 26.66 46.00 25.34 46.00 24.02 46.00 C 23.98 42.00 23.98 38.00 24.03 34.00 Z" />
<path fill="#ffffff" opacity="1.00" d=" M 32.02 34.00 C 33.34 34.00 34.66 34.00 35.98 34.00 C 36.02 38.00 36.02 42.00 35.98 46.00 C 34.66 46.00 33.34 46.00 32.02 46.00 C 31.98 42.00 31.98 38.00 32.02 34.00 Z" />
<path fill="#ffffff" opacity="1.00" d=" M 40.02 34.00 C 41.34 34.00 42.66 34.00 43.98 34.00 C 44.02 38.00 44.02 42.00 43.98 46.00 C 42.66 46.00 41.34 46.00 40.02 46.00 C 39.98 42.00 39.98 38.00 40.02 34.00 Z" />
<path fill="#ffffff" opacity="1.00" d=" M 48.02 34.00 C 49.34 34.00 50.66 34.00 51.98 34.00 C 52.02 38.00 52.02 42.00 51.98 46.00 C 50.66 46.00 49.34 46.00 48.02 46.00 C 47.98 42.00 47.98 38.00 48.02 34.00 Z" />
</g>
<g id="#000000ff">
<path fill="#000000" opacity="1.00" d=" M 28.00 4.02 C 30.52 4.00 33.05 3.98 35.58 4.00 C 35.47 5.33 35.47 6.67 35.58 8.00 C 33.05 8.02 30.52 8.00 28.00 7.98 C 28.00 6.66 28.00 5.34 28.00 4.02 Z" />
<path fill="#000000" opacity="1.00" d=" M 10.00 12.01 C 23.33 11.99 36.67 11.99 50.00 12.01 C 50.00 14.00 50.00 15.99 50.00 17.99 C 36.67 18.01 23.33 18.01 10.00 17.99 C 10.00 15.99 10.00 14.00 10.00 12.01 Z" />
<path fill="#000000" opacity="1.00" d=" M 4.01 22.01 C 21.34 21.99 38.66 21.99 55.99 22.01 C 55.98 30.01 56.07 38.01 55.96 46.02 C 56.04 48.12 54.12 50.04 52.01 49.96 C 37.66 50.06 23.29 49.97 8.93 50.00 C 6.56 50.34 3.88 48.61 4.04 46.02 C 3.93 38.02 4.03 30.01 4.01 22.01 M 8.00 26.00 C 8.00 27.33 8.00 28.67 8.00 30.00 C 9.33 30.00 10.67 30.00 12.00 30.00 C 12.00 28.66 12.00 27.33 12.00 26.00 C 10.67 26.00 9.33 26.00 8.00 26.00 M 16.00 26.00 C 16.00 27.33 16.00 28.66 16.00 30.00 C 17.33 30.00 18.66 30.00 20.00 30.00 C 20.00 28.67 20.00 27.33 20.00 26.00 C 18.67 26.00 17.33 26.00 16.00 26.00 M 24.00 26.00 C 24.00 27.33 24.00 28.66 24.00 30.00 C 25.33 30.00 26.66 30.00 28.00 30.00 C 28.00 28.67 28.00 27.34 28.00 26.01 C 26.67 26.00 25.34 26.00 24.00 26.00 M 32.00 26.00 C 32.00 27.33 32.00 28.67 32.00 30.00 C 33.34 30.00 34.67 30.00 36.00 29.99 C 36.00 28.66 36.00 27.33 36.00 26.00 C 34.66 26.00 33.33 26.00 32.00 26.00 M 40.01 26.00 C 40.00 27.33 40.00 28.66 40.00 30.00 C 41.33 30.00 42.67 30.00 44.00 30.00 C 44.00 28.66 44.00 27.33 44.00 26.00 C 42.67 26.00 41.34 26.00 40.01 26.00 M 48.00 26.00 C 48.00 27.33 48.00 28.67 48.00 30.00 C 49.33 30.00 50.67 30.00 52.00 30.00 C 52.00 28.66 52.00 27.33 52.00 26.00 C 50.67 26.00 49.33 26.00 48.00 26.00 M 8.02 34.00 C 7.98 38.00 7.98 42.00 8.02 46.00 C 9.34 46.00 10.66 46.00 11.98 46.00 C 12.02 42.00 12.02 38.00 11.97 34.00 C 10.66 34.00 9.34 34.00 8.02 34.00 M 16.02 34.00 C 15.98 38.00 15.98 42.00 16.02 46.00 C 17.34 46.00 18.66 46.00 19.98 46.00 C 20.02 42.00 20.02 38.00 19.98 34.00 C 18.66 34.00 17.34 34.00 16.02 34.00 M 24.03 34.00 C 23.98 38.00 23.98 42.00 24.02 46.00 C 25.34 46.00 26.66 46.00 27.98 46.00 C 28.02 42.00 28.02 38.00 27.98 34.00 C 26.66 34.00 25.34 34.00 24.03 34.00 M 32.02 34.00 C 31.98 38.00 31.98 42.00 32.02 46.00 C 33.34 46.00 34.66 46.00 35.98 46.00 C 36.02 42.00 36.02 38.00 35.98 34.00 C 34.66 34.00 33.34 34.00 32.02 34.00 M 40.02 34.00 C 39.98 38.00 39.98 42.00 40.02 46.00 C 41.34 46.00 42.66 46.00 43.98 46.00 C 44.02 42.00 44.02 38.00 43.98 34.00 C 42.66 34.00 41.34 34.00 40.02 34.00 M 48.02 34.00 C 47.98 38.00 47.98 42.00 48.02 46.00 C 49.34 46.00 50.66 46.00 51.98 46.00 C 52.02 42.00 52.02 38.00 51.98 34.00 C 50.66 34.00 49.34 34.00 48.02 34.00 Z" />
</g>
</svg>
