<?xml version="1.0" encoding="UTF-8" ?>
<!DOCTYPE svg PUBLIC "-//W3C//DTD SVG 1.1//EN" "http://www.w3.org/Graphics/SVG/1.1/DTD/svg11.dtd">
<svg width="64pt" height="64pt" viewBox="0 0 64 64" version="1.1" xmlns="http://www.w3.org/2000/svg">
<g id="#ffffffff">
<path fill="#ffffff" opacity="1.00" d=" M 0.00 0.00 L 64.00 0.00 L 64.00 64.00 L 0.00 64.00 L 0.00 0.00 M 26.53 8.66 C 18.64 10.45 11.91 16.51 9.34 24.18 C 6.59 31.96 8.26 41.09 13.61 47.37 C 18.95 53.85 27.83 57.14 36.09 55.62 C 45.37 54.12 53.27 46.66 55.33 37.50 C 57.33 29.35 54.61 20.29 48.46 14.58 C 42.75 9.09 34.22 6.80 26.53 8.66 Z" />
<path fill="#ffffff" opacity="1.00" d=" M 27.97 11.05 C 29.16 10.68 30.39 10.89 31.56 11.21 C 29.97 11.66 28.37 12.05 26.76 12.39 C 26.91 12.96 27.21 14.10 27.36 14.67 C 24.44 15.75 21.73 17.30 19.35 19.31 C 18.78 18.78 18.20 18.24 17.63 17.70 C 16.42 18.97 15.31 20.37 13.81 21.33 C 16.46 15.84 22.12 12.27 27.97 11.05 Z" />
<path fill="#ffffff" opacity="1.00" d=" M 32.20 11.30 C 39.33 9.93 46.86 15.08 50.19 21.26 C 48.65 20.39 47.56 18.96 46.37 17.70 C 45.79 18.23 45.21 18.77 44.63 19.31 C 42.25 17.30 39.55 15.74 36.63 14.66 C 36.78 14.08 37.08 12.93 37.24 12.35 C 35.55 12.03 33.87 11.68 32.20 11.30 Z" />
<path fill="#ffffff" opacity="1.00" d=" M 28.15 17.51 C 30.71 17.18 33.29 17.19 35.85 17.51 C 35.22 19.98 34.56 22.44 33.90 24.91 C 34.97 25.59 36.07 26.22 37.20 26.80 C 39.00 24.99 40.80 23.18 42.65 21.42 C 44.20 23.48 45.50 25.72 46.47 28.11 C 44.02 28.78 41.56 29.44 39.10 30.08 C 39.05 31.36 39.05 32.64 39.09 33.92 C 41.56 34.57 44.01 35.23 46.47 35.90 C 45.49 38.29 44.20 40.52 42.64 42.58 C 40.79 40.82 39.00 39.01 37.20 37.20 C 36.07 37.78 34.97 38.41 33.89 39.08 C 34.56 41.55 35.22 44.01 35.84 46.49 C 33.29 46.81 30.71 46.81 28.15 46.49 C 28.77 44.01 29.43 41.55 30.09 39.09 C 29.02 38.40 27.92 37.77 26.79 37.18 C 24.99 39.00 23.19 40.81 21.33 42.56 C 19.80 40.50 18.50 38.27 17.52 35.88 C 19.98 35.21 22.43 34.54 24.90 33.90 C 24.94 32.63 24.94 31.36 24.90 30.09 C 22.44 29.45 19.98 28.79 17.53 28.11 C 18.50 25.72 19.80 23.49 21.34 21.43 C 23.19 23.18 25.00 24.99 26.79 26.81 C 27.92 26.22 29.02 25.59 30.10 24.91 C 29.43 22.45 28.77 19.98 28.15 17.51 Z" />
<path fill="#ffffff" opacity="1.00" d=" M 10.69 31.98 C 10.85 28.43 11.23 24.41 13.91 21.79 C 13.47 23.45 12.96 25.09 12.43 26.72 L 14.51 27.29 C 14.32 30.38 14.26 33.48 14.52 36.57 C 13.98 36.80 12.91 37.27 12.37 37.50 C 12.95 39.06 13.51 40.63 13.98 42.22 C 11.19 39.64 10.87 35.54 10.69 31.98 Z" />
<path fill="#ffffff" opacity="1.00" d=" M 50.08 21.77 C 52.75 24.40 53.15 28.39 53.30 31.94 C 53.16 35.51 52.78 39.55 50.09 42.20 C 50.28 40.06 53.19 36.67 49.33 36.52 C 49.85 33.52 49.80 30.47 49.37 27.46 C 53.29 27.22 50.19 23.87 50.08 21.77 Z" />
<path fill="#ffffff" opacity="1.00" d=" M 13.79 42.64 C 15.27 43.63 16.41 45.01 17.62 46.28 C 18.20 45.75 18.78 45.22 19.36 44.69 C 21.74 46.70 24.44 48.26 27.36 49.33 C 27.21 49.90 26.91 51.04 26.76 51.61 C 28.37 51.95 29.98 52.35 31.57 52.79 C 24.45 53.83 17.01 48.89 13.79 42.64 Z" />
<path fill="#ffffff" opacity="1.00" d=" M 46.37 46.30 C 47.57 45.02 48.70 43.64 50.18 42.67 C 47.39 48.45 41.27 52.11 35.07 53.11 C 34.09 53.34 33.11 52.99 32.19 52.70 C 33.87 52.32 35.56 51.96 37.25 51.63 C 37.09 51.06 36.78 49.91 36.63 49.34 C 39.54 48.26 42.25 46.70 44.62 44.69 C 45.20 45.23 45.79 45.76 46.37 46.30 Z" />
</g>
<g id="#000000ff">
<path fill="#000000" opacity="1.00" d=" M 26.53 8.66 C 34.22 6.80 42.75 9.09 48.46 14.58 C 54.61 20.29 57.33 29.35 55.33 37.50 C 53.27 46.66 45.37 54.12 36.09 55.62 C 27.83 57.14 18.95 53.85 13.61 47.37 C 8.26 41.09 6.59 31.96 9.34 24.18 C 11.91 16.51 18.64 10.45 26.53 8.66 M 27.97 11.05 C 22.12 12.27 16.46 15.84 13.81 21.33 C 15.31 20.37 16.42 18.97 17.63 17.70 C 18.20 18.24 18.78 18.78 19.35 19.31 C 21.73 17.30 24.44 15.75 27.36 14.67 C 27.21 14.10 26.91 12.96 26.76 12.39 C 28.37 12.05 29.97 11.66 31.56 11.21 C 30.39 10.89 29.16 10.68 27.97 11.05 M 32.20 11.30 C 33.87 11.68 35.55 12.03 37.24 12.35 C 37.08 12.93 36.78 14.08 36.63 14.66 C 39.55 15.74 42.25 17.30 44.63 19.31 C 45.21 18.77 45.79 18.23 46.37 17.70 C 47.56 18.96 48.65 20.39 50.19 21.26 C 46.86 15.08 39.33 9.93 32.20 11.30 M 28.15 17.51 C 28.77 19.98 29.43 22.45 30.10 24.91 C 29.02 25.59 27.92 26.22 26.79 26.81 C 25.00 24.99 23.19 23.18 21.34 21.43 C 19.80 23.49 18.50 25.72 17.53 28.11 C 19.98 28.79 22.44 29.45 24.90 30.09 C 24.94 31.36 24.94 32.63 24.90 33.90 C 22.43 34.54 19.98 35.21 17.52 35.88 C 18.50 38.27 19.80 40.50 21.33 42.56 C 23.19 40.81 24.99 39.00 26.79 37.18 C 27.92 37.77 29.02 38.40 30.09 39.09 C 29.43 41.55 28.77 44.01 28.15 46.49 C 30.71 46.81 33.29 46.81 35.84 46.49 C 35.22 44.01 34.56 41.55 33.89 39.08 C 34.97 38.41 36.07 37.78 37.20 37.20 C 39.00 39.01 40.79 40.82 42.64 42.58 C 44.20 40.52 45.49 38.29 46.47 35.90 C 44.01 35.23 41.56 34.57 39.09 33.92 C 39.05 32.64 39.05 31.36 39.10 30.08 C 41.56 29.44 44.02 28.78 46.47 28.11 C 45.50 25.72 44.20 23.48 42.65 21.42 C 40.80 23.18 39.00 24.99 37.20 26.80 C 36.07 26.22 34.97 25.59 33.90 24.91 C 34.56 22.44 35.22 19.98 35.85 17.51 C 33.29 17.19 30.71 17.18 28.15 17.51 M 10.69 31.98 C 10.87 35.54 11.19 39.64 13.98 42.22 C 13.51 40.63 12.95 39.06 12.37 37.50 C 12.91 37.27 13.98 36.80 14.52 36.57 C 14.26 33.48 14.32 30.38 14.51 27.29 L 12.43 26.72 C 12.96 25.09 13.47 23.45 13.91 21.79 C 11.23 24.41 10.85 28.43 10.69 31.98 M 50.08 21.77 C 50.19 23.87 53.29 27.22 49.37 27.46 C 49.80 30.47 49.85 33.52 49.33 36.52 C 53.19 36.67 50.28 40.06 50.09 42.20 C 52.78 39.55 53.16 35.51 53.30 31.94 C 53.15 28.39 52.75 24.40 50.08 21.77 M 13.79 42.64 C 17.01 48.89 24.45 53.83 31.57 52.79 C 29.98 52.35 28.37 51.95 26.76 51.61 C 26.91 51.04 27.21 49.90 27.36 49.33 C 24.44 48.26 21.74 46.70 19.36 44.69 C 18.78 45.22 18.20 45.75 17.62 46.28 C 16.41 45.01 15.27 43.63 13.79 42.64 M 46.37 46.30 C 45.79 45.76 45.20 45.23 44.62 44.69 C 42.25 46.70 39.54 48.26 36.63 49.34 C 36.78 49.91 37.09 51.06 37.25 51.63 C 35.56 51.96 33.87 52.32 32.19 52.70 C 33.11 52.99 34.09 53.34 35.07 53.11 C 41.27 52.11 47.39 48.45 50.18 42.67 C 48.70 43.64 47.57 45.02 46.37 46.30 Z" />
</g>
</svg>
