<?xml version="1.0" encoding="UTF-8" ?>
<!DOCTYPE svg PUBLIC "-//W3C//DTD SVG 1.1//EN" "http://www.w3.org/Graphics/SVG/1.1/DTD/svg11.dtd">
<svg width="60pt" height="60pt" viewBox="0 0 60 60" version="1.1" xmlns="http://www.w3.org/2000/svg">
<g id="#ffffffff">
<path fill="#ffffff" opacity="1.00" d=" M 0.00 0.00 L 60.00 0.00 L 60.00 25.27 C 58.94 24.20 57.41 24.06 56.03 23.70 C 55.98 27.22 55.99 30.74 56.02 34.26 C 57.35 33.95 58.68 33.60 60.00 33.24 L 60.00 60.00 L 0.00 60.00 L 0.00 0.00 M 5.45 14.58 C 3.44 15.52 2.01 17.63 2.05 19.88 C 1.96 25.96 1.95 32.04 2.05 38.11 C 1.97 41.25 4.81 44.02 7.92 43.95 C 21.31 44.03 34.71 44.03 48.10 43.95 C 51.19 44.01 53.98 41.25 53.95 38.15 C 54.04 32.05 54.05 25.94 53.95 19.83 C 53.98 16.76 51.24 14.01 48.17 14.05 C 35.79 13.91 23.41 14.06 11.04 13.98 C 9.18 14.05 7.20 13.80 5.45 14.58 Z" />
<path fill="#ffffff" opacity="1.00" d=" M 7.14 18.16 C 20.08 17.77 33.05 18.13 46.01 17.98 C 47.51 17.94 50.08 17.83 49.94 20.02 C 50.05 26.02 50.06 32.03 49.93 38.03 C 50.13 39.63 48.28 40.15 47.05 39.99 C 34.00 39.96 20.95 40.10 7.91 39.92 C 6.36 40.11 5.87 38.30 6.01 37.11 C 6.08 31.11 5.77 25.08 6.18 19.10 C 6.42 18.86 6.90 18.40 7.14 18.16 Z" />
</g>
<g id="#000000ff">
<path fill="#000000" opacity="1.00" d=" M 5.45 14.58 C 7.20 13.80 9.18 14.05 11.04 13.98 C 23.41 14.06 35.79 13.91 48.17 14.05 C 51.24 14.01 53.98 16.76 53.95 19.83 C 54.05 25.94 54.04 32.05 53.95 38.15 C 53.98 41.25 51.19 44.01 48.10 43.95 C 34.71 44.03 21.31 44.03 7.92 43.95 C 4.81 44.02 1.97 41.25 2.05 38.11 C 1.95 32.04 1.96 25.96 2.05 19.88 C 2.01 17.63 3.44 15.52 5.45 14.58 M 7.14 18.16 C 6.90 18.40 6.42 18.86 6.18 19.10 C 5.77 25.08 6.08 31.11 6.01 37.11 C 5.87 38.30 6.36 40.11 7.91 39.92 C 20.95 40.10 34.00 39.96 47.05 39.99 C 48.28 40.15 50.13 39.63 49.93 38.03 C 50.06 32.03 50.05 26.02 49.94 20.02 C 50.08 17.83 47.51 17.94 46.01 17.98 C 33.05 18.13 20.08 17.77 7.14 18.16 Z" />
<path fill="#000000" opacity="1.00" d=" M 56.03 23.70 C 57.41 24.06 58.94 24.20 60.00 25.27 L 60.00 33.24 C 58.68 33.60 57.35 33.95 56.02 34.26 C 55.99 30.74 55.98 27.22 56.03 23.70 Z" />
</g>
</svg>
