<?xml version="1.0" encoding="UTF-8" ?>
<!DOCTYPE svg PUBLIC "-//W3C//DTD SVG 1.1//EN" "http://www.w3.org/Graphics/SVG/1.1/DTD/svg11.dtd">
<svg width="60pt" height="60pt" viewBox="0 0 60 60" version="1.1" xmlns="http://www.w3.org/2000/svg">
<g id="#ffffffff">
<path fill="#ffffff" opacity="1.00" d=" M 0.00 0.00 L 60.00 0.00 L 60.00 60.00 L 0.00 60.00 L 0.00 0.00 M 18.51 10.76 C 13.30 11.62 7.05 13.23 4.71 18.53 C 3.75 21.43 3.33 25.74 6.15 27.71 C 10.02 27.77 13.75 26.03 17.53 25.23 C 21.38 24.62 19.45 19.05 22.41 17.56 C 27.19 16.65 32.16 16.77 36.97 17.40 C 40.66 18.10 38.50 24.01 41.91 25.04 C 45.58 26.11 49.28 27.17 53.04 27.85 C 56.13 27.36 56.14 23.17 55.85 20.77 C 55.29 15.59 50.15 12.70 45.56 11.61 C 36.73 9.53 27.47 9.66 18.51 10.76 M 28.08 27.93 C 27.86 34.22 28.07 40.52 28.01 46.82 C 26.10 45.40 24.03 41.17 21.37 43.33 C 20.00 45.91 23.43 47.50 24.75 49.27 C 26.63 50.68 27.98 53.66 30.56 53.58 C 33.53 51.28 36.18 48.51 38.61 45.65 C 39.79 44.43 38.34 42.71 36.98 42.48 C 34.98 43.50 33.56 45.28 31.99 46.82 C 31.99 41.20 32.01 35.59 32.01 29.98 C 31.91 28.63 32.26 26.94 30.89 26.10 C 29.61 25.66 27.95 26.41 28.08 27.93 Z" />
</g>
<g id="#000000ff">
<path fill="#000000" opacity="1.00" d=" M 18.51 10.76 C 27.47 9.66 36.73 9.53 45.56 11.61 C 50.15 12.70 55.29 15.59 55.85 20.77 C 56.14 23.17 56.13 27.36 53.04 27.85 C 49.28 27.17 45.58 26.11 41.91 25.04 C 38.50 24.01 40.66 18.10 36.97 17.40 C 32.16 16.77 27.19 16.65 22.41 17.56 C 19.45 19.05 21.38 24.62 17.53 25.23 C 13.75 26.03 10.02 27.77 6.15 27.71 C 3.33 25.74 3.75 21.43 4.71 18.53 C 7.05 13.23 13.30 11.62 18.51 10.76 Z" />
<path fill="#000000" opacity="1.00" d=" M 28.08 27.93 C 27.95 26.41 29.61 25.66 30.89 26.10 C 32.26 26.94 31.91 28.63 32.01 29.98 C 32.01 35.59 31.99 41.20 31.99 46.82 C 33.56 45.28 34.98 43.50 36.98 42.48 C 38.34 42.71 39.79 44.43 38.61 45.65 C 36.18 48.51 33.53 51.28 30.56 53.58 C 27.98 53.66 26.63 50.68 24.75 49.27 C 23.43 47.50 20.00 45.91 21.37 43.33 C 24.03 41.17 26.10 45.40 28.01 46.82 C 28.07 40.52 27.86 34.22 28.08 27.93 Z" />
</g>
</svg>
