<?xml version="1.0" encoding="UTF-8" ?>
<!DOCTYPE svg PUBLIC "-//W3C//DTD SVG 1.1//EN" "http://www.w3.org/Graphics/SVG/1.1/DTD/svg11.dtd">
<svg width="60pt" height="60pt" viewBox="0 0 60 60" version="1.1" xmlns="http://www.w3.org/2000/svg">
<g id="#ffffffff">
<path fill="#ffffff" opacity="1.00" d=" M 0.00 0.00 L 60.00 0.00 L 60.00 60.00 L 0.00 60.00 L 0.00 0.00 M 25.11 4.17 C 23.27 5.41 24.27 7.98 23.96 9.83 C 21.75 10.31 19.37 10.94 17.92 12.83 C 15.32 15.75 16.08 19.94 16.03 23.52 C 18.41 24.59 18.38 27.40 16.03 28.49 C 16.01 35.04 15.93 41.59 16.05 48.13 C 15.99 51.22 18.74 53.96 21.81 53.95 C 27.22 54.05 32.64 54.04 38.06 53.96 C 41.20 54.03 44.02 51.22 43.95 48.07 C 44.07 41.55 44.00 35.02 43.96 28.50 C 42.83 27.64 41.93 26.58 41.96 25.08 C 42.47 24.72 43.50 24.00 44.01 23.64 C 43.87 20.03 44.71 15.83 42.10 12.87 C 40.65 10.96 38.27 10.31 36.04 9.83 C 35.73 7.98 36.73 5.40 34.87 4.18 C 31.64 3.85 28.35 3.86 25.11 4.17 Z" />
<path fill="#ffffff" opacity="1.00" d=" M 19.75 17.96 C 20.36 16.39 21.09 14.41 23.02 14.14 C 27.36 13.84 31.73 14.00 36.08 14.04 C 38.41 13.88 39.65 16.06 40.25 17.96 C 33.42 18.03 26.58 18.02 19.75 17.96 Z" />
<path fill="#ffffff" opacity="1.00" d=" M 24.64 37.13 C 26.62 33.14 28.62 29.15 30.62 25.17 C 30.62 27.82 30.62 30.48 30.62 33.13 C 32.62 33.13 34.62 33.14 36.63 33.14 C 34.63 37.14 32.64 41.14 30.62 45.13 C 30.62 42.46 30.62 39.80 30.62 37.13 C 28.62 37.13 26.63 37.13 24.64 37.13 Z" />
</g>
<g id="#000000ff">
<path fill="#000000" opacity="1.00" d=" M 25.11 4.17 C 28.35 3.86 31.64 3.85 34.87 4.18 C 36.73 5.40 35.73 7.98 36.04 9.83 C 38.27 10.31 40.65 10.96 42.10 12.87 C 44.71 15.83 43.87 20.03 44.01 23.64 C 43.50 24.00 42.47 24.72 41.96 25.08 C 41.93 26.58 42.83 27.64 43.96 28.50 C 44.00 35.02 44.07 41.55 43.95 48.07 C 44.02 51.22 41.20 54.03 38.06 53.96 C 32.64 54.04 27.22 54.05 21.81 53.95 C 18.74 53.96 15.99 51.22 16.05 48.13 C 15.93 41.59 16.01 35.04 16.03 28.49 C 18.38 27.40 18.41 24.59 16.03 23.52 C 16.08 19.94 15.32 15.75 17.92 12.83 C 19.37 10.94 21.75 10.31 23.96 9.83 C 24.27 7.98 23.27 5.41 25.11 4.17 M 19.75 17.96 C 26.58 18.02 33.42 18.03 40.25 17.96 C 39.65 16.06 38.41 13.88 36.08 14.04 C 31.73 14.00 27.36 13.84 23.02 14.14 C 21.09 14.41 20.36 16.39 19.75 17.96 M 24.64 37.13 C 26.63 37.13 28.62 37.13 30.62 37.13 C 30.62 39.80 30.62 42.46 30.62 45.13 C 32.64 41.14 34.63 37.14 36.63 33.14 C 34.62 33.14 32.62 33.13 30.62 33.13 C 30.62 30.48 30.62 27.82 30.62 25.17 C 28.62 29.15 26.62 33.14 24.64 37.13 Z" />
</g>
</svg>
