<?xml version="1.0" encoding="UTF-8" ?>
<!DOCTYPE svg PUBLIC "-//W3C//DTD SVG 1.1//EN" "http://www.w3.org/Graphics/SVG/1.1/DTD/svg11.dtd">
<svg width="64pt" height="64pt" viewBox="0 0 64 64" version="1.1" xmlns="http://www.w3.org/2000/svg">
<g id="#ffffffff">
<path fill="#ffffff" opacity="1.00" d=" M 0.00 0.00 L 64.00 0.00 L 64.00 64.00 L 0.00 64.00 L 0.00 0.00 M 15.32 10.52 C 11.91 11.71 9.74 15.32 10.00 18.89 C 10.02 27.95 9.93 37.02 10.05 46.08 C 10.02 50.23 13.71 53.94 17.85 53.95 C 27.26 54.04 36.68 54.03 46.09 53.95 C 50.24 53.97 53.94 50.28 53.95 46.13 C 54.04 36.73 54.03 27.32 53.95 17.91 C 53.99 13.31 49.58 9.56 45.06 10.00 C 35.17 10.31 25.13 9.35 15.32 10.52 Z" />
<path fill="#ffffff" opacity="1.00" d=" M 14.05 17.98 C 13.98 15.88 15.85 13.99 17.95 14.05 C 27.31 13.96 36.68 13.96 46.04 14.05 C 48.11 13.99 49.97 15.85 49.95 17.92 C 50.09 24.61 49.95 31.31 50.00 38.00 C 47.38 38.00 44.77 38.00 42.15 38.00 C 41.84 33.28 38.51 29.21 33.89 28.08 C 35.28 26.72 36.65 25.35 38.02 23.97 C 34.42 21.37 29.61 21.33 26.02 23.98 C 27.38 25.35 28.74 26.72 30.13 28.07 C 25.51 29.21 22.14 33.26 21.85 38.00 C 19.23 38.00 16.62 38.00 14.00 38.00 C 14.05 31.33 13.91 24.65 14.05 17.98 Z" />
<path fill="#ffffff" opacity="1.00" d=" M 25.79 37.96 C 26.25 34.85 28.63 31.87 32.01 32.00 C 35.38 31.89 37.74 34.87 38.21 37.96 C 34.07 38.02 29.93 38.02 25.79 37.96 Z" />
<path fill="#ffffff" opacity="1.00" d=" M 13.97 42.00 C 25.99 42.00 38.01 42.00 50.04 42.00 C 50.05 44.79 50.52 48.98 46.97 49.84 C 38.33 50.24 29.65 49.86 20.99 50.02 C 19.06 49.91 16.73 50.37 15.23 48.83 C 13.40 47.04 14.18 44.27 13.97 42.00 Z" />
</g>
<g id="#000000ff">
<path fill="#000000" opacity="1.00" d=" M 15.32 10.52 C 25.13 9.35 35.17 10.31 45.06 10.00 C 49.58 9.56 53.99 13.31 53.95 17.91 C 54.03 27.32 54.04 36.73 53.95 46.13 C 53.94 50.28 50.24 53.97 46.09 53.95 C 36.68 54.03 27.26 54.04 17.85 53.95 C 13.71 53.94 10.02 50.23 10.05 46.08 C 9.93 37.02 10.02 27.95 10.00 18.89 C 9.74 15.32 11.91 11.71 15.32 10.52 M 14.05 17.98 C 13.91 24.65 14.05 31.33 14.00 38.00 C 16.62 38.00 19.23 38.00 21.85 38.00 C 22.14 33.26 25.51 29.21 30.13 28.07 C 28.74 26.72 27.38 25.35 26.02 23.98 C 29.61 21.33 34.42 21.37 38.02 23.97 C 36.65 25.35 35.28 26.72 33.89 28.08 C 38.51 29.21 41.84 33.28 42.15 38.00 C 44.77 38.00 47.38 38.00 50.00 38.00 C 49.95 31.31 50.09 24.61 49.95 17.92 C 49.97 15.85 48.11 13.99 46.04 14.05 C 36.68 13.96 27.31 13.96 17.95 14.05 C 15.85 13.99 13.98 15.88 14.05 17.98 M 25.79 37.96 C 29.93 38.02 34.07 38.02 38.21 37.96 C 37.74 34.87 35.38 31.89 32.01 32.00 C 28.63 31.87 26.25 34.85 25.79 37.96 M 13.97 42.00 C 14.18 44.27 13.40 47.04 15.23 48.83 C 16.73 50.37 19.06 49.91 20.99 50.02 C 29.65 49.86 38.33 50.24 46.97 49.84 C 50.52 48.98 50.05 44.79 50.04 42.00 C 38.01 42.00 25.99 42.00 13.97 42.00 Z" />
</g>
</svg>
