<?xml version="1.0" encoding="UTF-8" ?>
<!DOCTYPE svg PUBLIC "-//W3C//DTD SVG 1.1//EN" "http://www.w3.org/Graphics/SVG/1.1/DTD/svg11.dtd">
<svg width="60pt" height="60pt" viewBox="0 0 60 60" version="1.1" xmlns="http://www.w3.org/2000/svg">
<g id="#ffffffff">
<path fill="#ffffff" opacity="1.00" d=" M 0.00 0.00 L 60.00 0.00 L 60.00 22.13 C 58.01 21.97 55.99 21.88 54.00 22.13 C 50.59 23.73 47.39 25.74 44.08 27.54 C 44.44 25.04 42.91 21.91 40.05 22.02 C 30.86 22.13 21.62 21.70 12.45 22.25 C 10.54 20.95 8.74 19.49 6.84 18.18 C 4.61 18.09 1.70 17.23 0.00 19.14 L 0.00 0.00 M 21.12 14.21 C 19.26 15.00 19.92 18.08 21.98 17.98 C 24.69 18.01 27.40 18.02 30.11 17.98 C 32.58 17.98 32.55 13.97 30.08 14.02 C 27.10 14.10 24.06 13.75 21.12 14.21 Z" />
<path fill="#ffffff" opacity="1.00" d=" M 4.01 22.00 C 6.40 21.78 7.81 24.35 9.81 25.30 C 10.28 27.00 9.84 28.83 10.01 30.57 C 8.06 29.87 6.09 29.21 4.09 28.63 C 3.89 26.43 4.04 24.21 4.01 22.00 Z" />
<path fill="#ffffff" opacity="1.00" d=" M 59.74 22.31 L 60.00 23.88 L 60.00 40.63 C 59.27 38.32 58.19 36.14 56.99 34.05 C 55.91 36.72 53.12 39.60 54.49 42.61 C 55.85 44.80 58.97 44.08 60.00 41.96 L 60.00 60.00 L 0.00 60.00 L 0.00 30.81 C 2.81 33.06 6.75 33.27 9.99 34.81 C 10.04 37.25 9.96 39.68 10.02 42.12 C 9.96 44.16 11.89 45.96 13.88 45.98 C 22.61 46.02 31.35 46.01 40.08 45.98 C 41.35 46.03 42.54 45.26 43.27 44.27 C 47.56 38.22 51.70 32.07 56.01 26.04 C 56.50 26.02 57.49 25.98 57.98 25.96 C 58.42 25.05 59.30 23.22 59.74 22.31 Z" />
</g>
<g id="#000000ff">
<path fill="#968176" opacity="1.00" d=" M 21.12 14.21 C 24.06 13.75 27.10 14.10 30.08 14.02 C 32.55 13.97 32.58 17.98 30.11 17.98 C 27.40 18.02 24.69 18.01 21.98 17.98 C 19.92 18.08 19.26 15.00 21.12 14.21 Z" />
<path fill="#968176" opacity="1.00" d=" M 0.00 19.14 C 1.70 17.23 4.61 18.09 6.84 18.18 C 8.74 19.49 10.54 20.95 12.45 22.25 C 21.62 21.70 30.86 22.13 40.05 22.02 C 42.91 21.91 44.44 25.04 44.08 27.54 C 47.39 25.74 50.59 23.73 54.00 22.13 C 55.99 21.88 58.01 21.97 60.00 22.13 L 60.00 23.88 L 59.74 22.31 C 59.30 23.22 58.42 25.05 57.98 25.96 C 57.49 25.98 56.50 26.02 56.01 26.04 C 51.70 32.07 47.56 38.22 43.27 44.27 C 42.54 45.26 41.35 46.03 40.08 45.98 C 31.35 46.01 22.61 46.02 13.88 45.98 C 11.89 45.96 9.96 44.16 10.02 42.12 C 9.96 39.68 10.04 37.25 9.99 34.81 C 6.75 33.27 2.81 33.06 0.00 30.81 L 0.00 19.14 M 4.01 22.00 C 4.04 24.21 3.89 26.43 4.09 28.63 C 6.09 29.21 8.06 29.87 10.01 30.57 C 9.84 28.83 10.28 27.00 9.81 25.30 C 7.81 24.35 6.40 21.78 4.01 22.00 Z" />
<path fill="#968176" opacity="1.00" d=" M 56.99 34.05 C 58.19 36.14 59.27 38.32 60.00 40.63 L 60.00 41.96 C 58.97 44.08 55.85 44.80 54.49 42.61 C 53.12 39.60 55.91 36.72 56.99 34.05 Z" />
</g>
</svg>
