<?xml version="1.0" encoding="UTF-8" ?>
<!DOCTYPE svg PUBLIC "-//W3C//DTD SVG 1.1//EN" "http://www.w3.org/Graphics/SVG/1.1/DTD/svg11.dtd">
<svg width="60pt" height="60pt" viewBox="0 0 60 60" version="1.1" xmlns="http://www.w3.org/2000/svg">
<g id="#ffffffff">
<path fill="#ffffff" opacity="1.00" d=" M 0.00 0.00 L 60.00 0.00 L 60.00 60.00 L 0.00 60.00 L 0.00 0.00 M 26.00 8.40 C 23.57 9.56 22.80 6.47 20.91 5.75 C 18.08 5.97 19.36 9.02 18.92 10.81 C 18.04 11.51 17.09 12.12 16.09 12.65 C 14.29 11.10 11.99 10.34 10.67 12.86 C 11.33 13.94 12.01 15.00 12.71 16.05 C 12.14 17.06 11.50 18.03 10.79 18.95 C 9.02 19.31 5.95 18.12 5.77 20.92 C 6.45 22.83 9.55 23.57 8.40 26.01 C 8.25 28.64 4.04 27.36 3.97 30.01 C 4.09 32.64 8.29 31.36 8.40 34.00 C 9.54 36.44 6.43 37.19 5.75 39.11 C 6.01 41.91 9.03 40.63 10.82 41.08 C 11.53 41.97 12.14 42.92 12.65 43.94 C 11.98 45.36 10.11 46.90 11.63 48.43 C 13.16 49.87 14.69 47.98 16.09 47.35 C 17.09 47.88 18.04 48.49 18.93 49.19 C 19.51 50.75 18.11 53.12 20.05 53.99 C 22.61 54.98 23.24 50.04 26.00 51.61 C 28.64 51.75 27.38 55.89 29.99 56.06 C 32.62 55.89 31.36 51.71 34.02 51.59 C 36.45 50.44 37.16 53.55 39.08 54.22 C 41.88 54.05 40.67 50.95 41.06 49.18 C 41.99 48.48 42.96 47.85 43.97 47.28 C 44.99 47.98 46.03 48.66 47.08 49.32 C 49.66 48.06 48.92 45.69 47.35 43.92 C 47.88 42.92 48.49 41.97 49.17 41.07 C 50.94 40.62 53.97 41.89 54.24 39.14 C 53.61 37.19 50.44 36.44 51.61 33.99 C 51.75 31.36 55.87 32.62 56.06 30.01 C 55.90 27.37 51.73 28.64 51.60 25.99 C 50.11 23.21 54.87 22.64 54.04 20.02 C 53.06 18.15 50.80 19.45 49.20 18.95 C 48.49 18.05 47.87 17.10 47.34 16.09 C 47.96 14.68 49.90 13.12 48.40 11.63 C 46.93 10.05 45.33 12.06 43.90 12.63 C 42.90 12.12 41.97 11.52 41.09 10.83 C 40.44 9.28 41.93 6.82 39.90 6.00 C 37.38 5.06 36.74 9.96 33.99 8.40 C 31.36 8.35 32.62 3.94 30.03 4.06 C 27.37 3.86 28.65 8.36 26.00 8.40 Z" />
<path fill="#ffffff" opacity="1.00" d=" M 23.75 15.12 C 28.56 13.46 34.11 13.64 38.45 16.46 C 42.56 18.93 45.06 23.35 45.95 27.97 C 43.25 28.01 40.56 28.00 37.87 27.99 C 36.47 23.80 32.18 21.19 27.79 22.13 C 26.41 19.81 25.07 17.48 23.75 15.12 Z" />
<path fill="#ffffff" opacity="1.00" d=" M 14.01 29.93 C 13.91 24.95 16.57 20.36 20.25 17.17 C 21.63 19.48 22.98 21.81 24.30 24.16 C 21.36 27.49 21.37 32.51 24.30 35.84 C 22.98 38.18 21.63 40.51 20.26 42.82 C 16.54 39.60 13.87 34.96 14.01 29.93 Z" />
<path fill="#ffffff" opacity="1.00" d=" M 28.34 26.38 C 30.83 25.02 34.10 27.24 33.99 30.01 C 34.09 33.03 30.20 35.20 27.76 33.28 C 25.16 31.73 25.60 27.52 28.34 26.38 Z" />
<path fill="#ffffff" opacity="1.00" d=" M 37.87 32.01 C 40.56 32.00 43.25 31.99 45.95 32.03 C 45.03 36.84 42.33 41.43 37.96 43.83 C 33.69 46.39 28.39 46.45 23.76 44.89 C 25.06 42.52 26.41 40.18 27.80 37.86 C 32.17 38.81 36.47 36.19 37.87 32.01 Z" />
</g>
<g id="#000000ff">
<path fill="#000000" opacity="1.00" d=" M 26.00 8.40 C 28.65 8.36 27.37 3.86 30.03 4.06 C 32.62 3.94 31.36 8.35 33.99 8.40 C 36.74 9.96 37.38 5.06 39.90 6.00 C 41.93 6.82 40.44 9.28 41.09 10.83 C 41.97 11.52 42.90 12.12 43.90 12.63 C 45.33 12.06 46.93 10.05 48.40 11.63 C 49.90 13.12 47.96 14.68 47.34 16.09 C 47.87 17.10 48.49 18.05 49.20 18.95 C 50.80 19.45 53.06 18.15 54.04 20.02 C 54.87 22.64 50.11 23.21 51.60 25.99 C 51.73 28.64 55.90 27.37 56.06 30.01 C 55.87 32.62 51.75 31.36 51.61 33.99 C 50.44 36.44 53.61 37.19 54.24 39.14 C 53.97 41.89 50.94 40.62 49.17 41.07 C 48.49 41.97 47.88 42.92 47.35 43.92 C 48.92 45.69 49.66 48.06 47.08 49.32 C 46.03 48.66 44.99 47.98 43.97 47.28 C 42.96 47.85 41.99 48.48 41.06 49.18 C 40.67 50.95 41.88 54.05 39.08 54.22 C 37.16 53.55 36.45 50.44 34.02 51.59 C 31.36 51.71 32.62 55.89 29.99 56.06 C 27.38 55.89 28.64 51.75 26.00 51.61 C 23.24 50.04 22.61 54.98 20.05 53.99 C 18.11 53.12 19.51 50.75 18.93 49.19 C 18.04 48.49 17.09 47.88 16.09 47.35 C 14.69 47.98 13.16 49.87 11.63 48.43 C 10.11 46.90 11.98 45.36 12.65 43.94 C 12.14 42.92 11.53 41.97 10.82 41.08 C 9.03 40.63 6.01 41.91 5.75 39.11 C 6.43 37.19 9.54 36.44 8.40 34.00 C 8.29 31.36 4.09 32.64 3.97 30.01 C 4.04 27.36 8.25 28.64 8.40 26.01 C 9.55 23.57 6.45 22.83 5.77 20.92 C 5.95 18.12 9.02 19.31 10.79 18.95 C 11.50 18.03 12.14 17.06 12.71 16.05 C 12.01 15.00 11.33 13.94 10.67 12.86 C 11.99 10.34 14.29 11.10 16.09 12.65 C 17.09 12.12 18.04 11.51 18.92 10.81 C 19.36 9.02 18.08 5.97 20.91 5.75 C 22.80 6.47 23.57 9.56 26.00 8.40 M 23.75 15.12 C 25.07 17.48 26.41 19.81 27.79 22.13 C 32.18 21.19 36.47 23.80 37.87 27.99 C 40.56 28.00 43.25 28.01 45.95 27.97 C 45.06 23.35 42.56 18.93 38.45 16.46 C 34.11 13.64 28.56 13.46 23.75 15.12 M 14.01 29.93 C 13.87 34.96 16.54 39.60 20.26 42.82 C 21.63 40.51 22.98 38.18 24.30 35.84 C 21.37 32.51 21.36 27.49 24.30 24.16 C 22.98 21.81 21.63 19.48 20.25 17.17 C 16.57 20.36 13.91 24.95 14.01 29.93 M 28.34 26.38 C 25.60 27.52 25.16 31.73 27.76 33.28 C 30.20 35.20 34.09 33.03 33.99 30.01 C 34.10 27.24 30.83 25.02 28.34 26.38 M 37.87 32.01 C 36.47 36.19 32.17 38.81 27.80 37.86 C 26.41 40.18 25.06 42.52 23.76 44.89 C 28.39 46.45 33.69 46.39 37.96 43.83 C 42.33 41.43 45.03 36.84 45.95 32.03 C 43.25 31.99 40.56 32.00 37.87 32.01 Z" />
</g>
</svg>
