<?xml version="1.0" encoding="UTF-8" ?>
<!DOCTYPE svg PUBLIC "-//W3C//DTD SVG 1.1//EN" "http://www.w3.org/Graphics/SVG/1.1/DTD/svg11.dtd">
<svg width="64pt" height="64pt" viewBox="0 0 64 64" version="1.1" xmlns="http://www.w3.org/2000/svg">
<g id="#ffffffff">
<path fill="#ffffff" opacity="1.00" d=" M 0.00 0.00 L 64.00 0.00 L 64.00 64.00 L 0.00 64.00 L 0.00 0.00 M 30.00 8.00 C 29.98 17.41 30.04 26.81 29.97 36.22 C 26.99 37.73 24.86 41.34 26.59 44.58 C 28.46 49.03 35.54 49.04 37.40 44.58 C 39.13 41.34 37.00 37.74 34.03 36.22 C 34.02 34.81 34.00 33.41 33.99 32.00 C 35.33 32.00 36.66 32.00 38.00 32.00 C 38.00 30.67 38.00 29.33 38.00 28.00 C 36.67 28.00 35.33 28.00 34.00 28.00 C 34.00 26.67 34.00 25.33 34.00 24.00 C 35.33 24.00 36.67 24.00 38.00 24.00 C 38.00 22.67 38.00 21.33 38.00 20.00 C 36.67 20.00 35.33 20.00 34.00 20.00 C 34.00 18.67 34.00 17.33 34.00 16.00 C 35.33 16.00 36.67 16.00 38.00 16.00 C 38.00 14.67 38.00 13.33 38.00 12.00 C 36.67 12.00 35.33 12.00 34.00 12.00 C 34.00 10.67 34.00 9.33 34.00 8.00 C 32.67 8.00 31.33 8.00 30.00 8.00 M 5.74 40.03 C 7.41 47.94 20.58 47.94 22.26 40.03 C 20.97 40.03 19.69 40.04 18.40 40.04 C 16.01 42.55 12.00 42.53 9.60 40.04 C 8.31 40.04 7.03 40.03 5.74 40.03 M 41.74 40.03 C 43.41 47.94 56.57 47.94 58.26 40.03 C 56.97 40.03 55.68 40.04 54.40 40.04 C 52.01 42.55 48.00 42.54 45.60 40.04 C 44.31 40.04 43.03 40.03 41.74 40.03 M 11.73 50.03 C 13.17 56.28 21.30 57.47 26.00 54.12 C 29.64 56.51 34.35 56.52 38.00 54.12 C 42.70 57.47 50.81 56.28 52.26 50.03 C 50.97 50.04 49.68 50.04 48.39 50.04 C 46.00 52.56 41.99 52.53 39.60 50.04 C 38.53 50.04 37.46 50.04 36.39 50.04 C 34.00 52.55 30.00 52.53 27.60 50.04 C 26.53 50.04 25.47 50.04 24.40 50.04 C 22.01 52.55 18.00 52.53 15.60 50.04 C 14.31 50.04 13.02 50.03 11.73 50.03 Z" />
<path fill="#ffffff" opacity="1.00" d=" M 31.12 40.11 C 33.52 39.02 35.26 42.98 32.71 43.84 C 30.44 44.88 28.88 41.20 31.12 40.11 Z" />
</g>
<g id="#000000ff">
<path fill="#000000" opacity="1.00" d=" M 30.00 8.00 C 31.33 8.00 32.67 8.00 34.00 8.00 C 34.00 9.33 34.00 10.67 34.00 12.00 C 35.33 12.00 36.67 12.00 38.00 12.00 C 38.00 13.33 38.00 14.67 38.00 16.00 C 36.67 16.00 35.33 16.00 34.00 16.00 C 34.00 17.33 34.00 18.67 34.00 20.00 C 35.33 20.00 36.67 20.00 38.00 20.00 C 38.00 21.33 38.00 22.67 38.00 24.00 C 36.67 24.00 35.33 24.00 34.00 24.00 C 34.00 25.33 34.00 26.67 34.00 28.00 C 35.33 28.00 36.67 28.00 38.00 28.00 C 38.00 29.33 38.00 30.67 38.00 32.00 C 36.66 32.00 35.33 32.00 33.99 32.00 C 34.00 33.41 34.02 34.81 34.03 36.22 C 37.00 37.74 39.13 41.34 37.40 44.58 C 35.54 49.04 28.46 49.03 26.59 44.58 C 24.86 41.34 26.99 37.73 29.97 36.22 C 30.04 26.81 29.98 17.41 30.00 8.00 M 31.12 40.11 C 28.88 41.20 30.44 44.88 32.71 43.84 C 35.26 42.98 33.52 39.02 31.12 40.11 Z" />
<path fill="#000000" opacity="1.00" d=" M 5.74 40.03 C 7.03 40.03 8.31 40.04 9.60 40.04 C 12.00 42.53 16.01 42.55 18.40 40.04 C 19.69 40.04 20.97 40.03 22.26 40.03 C 20.58 47.94 7.41 47.94 5.74 40.03 Z" />
<path fill="#000000" opacity="1.00" d=" M 41.74 40.03 C 43.03 40.03 44.31 40.04 45.60 40.04 C 48.00 42.54 52.01 42.55 54.40 40.04 C 55.68 40.04 56.97 40.03 58.26 40.03 C 56.57 47.94 43.41 47.94 41.74 40.03 Z" />
<path fill="#000000" opacity="1.00" d=" M 11.73 50.03 C 13.02 50.03 14.31 50.04 15.60 50.04 C 18.00 52.53 22.01 52.55 24.40 50.04 C 25.47 50.04 26.53 50.04 27.60 50.04 C 30.00 52.53 34.00 52.55 36.39 50.04 C 37.46 50.04 38.53 50.04 39.60 50.04 C 41.99 52.53 46.00 52.56 48.39 50.04 C 49.68 50.04 50.97 50.04 52.26 50.03 C 50.81 56.28 42.70 57.47 38.00 54.12 C 34.35 56.52 29.64 56.51 26.00 54.12 C 21.30 57.47 13.17 56.28 11.73 50.03 Z" />
</g>
</svg>
