<?xml version="1.0" encoding="UTF-8" ?>
<!DOCTYPE svg PUBLIC "-//W3C//DTD SVG 1.1//EN" "http://www.w3.org/Graphics/SVG/1.1/DTD/svg11.dtd">
<svg width="60pt" height="60pt" viewBox="0 0 60 60" version="1.1" xmlns="http://www.w3.org/2000/svg">
<g id="#ffffffff">
<path fill="#ffffff" opacity="1.00" d=" M 0.00 0.00 L 60.00 0.00 L 60.00 60.00 L 0.00 60.00 L 0.00 0.00 M 24.20 8.25 C 21.83 10.19 18.01 6.26 16.14 9.19 C 15.22 12.33 19.45 12.20 21.43 12.76 C 21.08 14.15 20.65 15.55 19.57 16.56 C 16.80 19.50 15.24 23.95 16.44 27.90 C 18.70 31.65 20.14 36.09 24.05 38.53 C 23.49 40.02 22.77 41.44 21.96 42.81 C 19.59 40.90 17.64 43.47 15.99 44.94 C 13.42 47.47 10.54 49.65 8.07 52.28 C 8.12 52.63 8.21 53.33 8.26 53.69 C 12.97 54.42 17.80 53.82 22.56 53.97 C 24.13 52.31 25.66 50.61 27.26 48.98 C 26.29 47.96 25.32 46.94 24.34 45.92 C 25.90 44.16 27.06 42.12 27.84 39.91 C 29.28 39.84 30.72 39.84 32.16 39.91 C 32.94 42.13 34.08 44.19 35.66 45.95 C 33.10 48.63 30.55 51.31 28.00 54.00 C 35.38 53.97 42.77 54.06 50.14 53.97 C 51.44 54.10 52.03 53.54 51.93 52.29 C 48.77 49.02 45.24 46.15 41.91 43.07 C 40.89 41.74 39.29 42.05 38.02 42.82 C 37.23 41.46 36.52 40.05 35.94 38.58 C 39.83 36.09 41.30 31.66 43.56 27.89 C 45.02 23.17 42.47 18.32 39.16 15.05 C 38.71 12.76 38.16 10.32 36.37 8.67 C 33.23 5.35 27.56 5.14 24.20 8.25 Z" />
<path fill="#ffffff" opacity="1.00" d=" M 26.38 19.54 C 30.41 17.33 35.96 19.51 37.46 23.84 C 38.83 27.72 37.84 32.80 34.00 34.89 C 30.34 37.17 25.04 35.71 23.04 31.90 C 20.85 27.78 21.92 21.70 26.38 19.54 M 29.06 30.07 C 26.31 31.15 29.53 35.74 31.29 33.29 C 33.07 31.69 31.17 29.18 29.06 30.07 Z" />
</g>
<g id="#000000ff">
<path fill="#000000" opacity="1.00" d=" M 24.20 8.25 C 27.56 5.14 33.23 5.35 36.37 8.67 C 38.16 10.32 38.71 12.76 39.16 15.05 C 42.47 18.32 45.02 23.17 43.56 27.89 C 41.30 31.66 39.83 36.09 35.94 38.58 C 36.52 40.05 37.23 41.46 38.02 42.82 C 39.29 42.05 40.89 41.74 41.91 43.07 C 45.24 46.15 48.77 49.02 51.93 52.29 C 52.03 53.54 51.44 54.10 50.14 53.97 C 42.77 54.06 35.38 53.97 28.00 54.00 C 30.55 51.31 33.10 48.63 35.66 45.95 C 34.08 44.19 32.94 42.13 32.16 39.91 C 30.72 39.84 29.28 39.84 27.84 39.91 C 27.06 42.12 25.90 44.16 24.34 45.92 C 25.32 46.94 26.29 47.96 27.26 48.98 C 25.66 50.61 24.13 52.31 22.56 53.97 C 17.80 53.82 12.97 54.42 8.26 53.69 C 8.21 53.33 8.12 52.63 8.07 52.28 C 10.54 49.65 13.42 47.47 15.99 44.94 C 17.64 43.47 19.59 40.90 21.96 42.81 C 22.77 41.44 23.49 40.02 24.05 38.53 C 20.14 36.09 18.70 31.65 16.44 27.90 C 15.24 23.95 16.80 19.50 19.57 16.56 C 20.65 15.55 21.08 14.15 21.43 12.76 C 19.45 12.20 15.22 12.33 16.14 9.19 C 18.01 6.26 21.83 10.19 24.20 8.25 M 26.38 19.54 C 21.92 21.70 20.85 27.78 23.04 31.90 C 25.04 35.71 30.34 37.17 34.00 34.89 C 37.84 32.80 38.83 27.72 37.46 23.84 C 35.96 19.51 30.41 17.33 26.38 19.54 Z" />
<path fill="#000000" opacity="1.00" d=" M 29.06 30.07 C 31.17 29.18 33.07 31.69 31.29 33.29 C 29.53 35.74 26.31 31.15 29.06 30.07 Z" />
</g>
</svg>
