<?xml version="1.0" encoding="UTF-8" ?>
<!DOCTYPE svg PUBLIC "-//W3C//DTD SVG 1.1//EN" "http://www.w3.org/Graphics/SVG/1.1/DTD/svg11.dtd">
<svg width="64pt" height="64pt" viewBox="0 0 64 64" version="1.1" xmlns="http://www.w3.org/2000/svg">
<g id="#ffffffff">
<path fill="#ffffff" opacity="1.00" d=" M 0.00 0.00 L 64.00 0.00 L 64.00 46.01 C 62.65 46.00 61.30 45.99 59.95 45.98 C 59.37 44.25 58.69 42.56 57.94 40.90 C 58.89 39.93 59.84 38.96 60.79 37.99 C 59.86 37.06 58.93 36.14 58.01 35.21 C 57.02 36.18 56.04 37.15 55.05 38.12 C 53.38 37.42 51.70 36.75 50.01 36.11 C 50.00 34.74 50.00 33.37 50.00 32.00 C 48.67 32.00 47.35 32.00 46.03 32.00 C 46.00 33.43 45.97 34.87 45.93 36.30 C 44.21 36.84 42.54 37.51 40.91 38.26 C 39.93 37.31 38.96 36.36 37.99 35.41 C 37.06 36.34 36.14 37.27 35.21 38.19 C 36.18 39.11 37.14 40.03 38.11 40.95 C 37.42 42.62 36.75 44.30 36.11 45.99 C 34.74 46.00 33.37 46.00 32.00 46.00 C 32.00 47.33 32.00 48.66 32.00 49.99 C 33.35 50.00 34.69 50.01 36.04 50.02 C 36.62 51.75 37.30 53.44 38.06 55.09 C 37.11 56.07 36.16 57.04 35.21 58.01 C 36.14 58.94 37.06 59.86 37.99 60.79 C 38.98 59.82 39.96 58.85 40.95 57.89 C 42.62 58.57 44.30 59.24 45.99 59.89 C 45.99 61.26 46.00 62.63 46.00 64.00 L 0.00 64.00 L 0.00 0.00 M 8.00 8.00 C 8.00 14.67 8.00 21.33 8.00 28.00 C 9.33 28.00 10.67 28.00 12.00 28.00 C 12.00 22.67 12.00 17.33 12.00 12.00 C 14.92 12.00 17.85 12.00 20.77 12.01 C 22.11 14.68 23.42 17.38 24.81 20.02 C 33.88 19.97 42.94 20.01 52.00 20.00 C 52.00 22.11 52.00 24.22 52.00 26.34 C 53.34 26.71 54.67 27.10 56.00 27.48 C 56.00 23.65 56.00 19.83 56.00 16.00 C 49.75 16.00 43.49 16.00 37.24 16.00 C 35.90 13.33 34.58 10.65 33.22 7.99 C 24.81 8.01 16.41 7.99 8.00 8.00 M 26.00 24.00 C 26.00 25.33 26.00 26.67 26.00 28.00 C 24.67 28.00 23.33 28.00 22.00 28.00 C 22.00 29.33 22.00 30.67 22.00 32.00 C 23.33 32.00 24.67 32.00 26.00 32.00 C 26.00 33.33 26.00 34.67 26.00 36.00 C 27.33 36.00 28.67 36.00 30.00 36.00 C 30.00 34.67 30.00 33.33 30.00 32.00 C 31.33 32.00 32.67 32.00 34.00 32.00 C 34.00 30.67 34.00 29.33 34.00 28.00 C 32.67 28.00 31.33 28.00 30.00 28.00 C 30.00 26.66 30.00 25.33 30.00 24.00 C 28.67 24.00 27.33 24.00 26.00 24.00 M 8.00 32.00 C 8.00 33.33 8.00 34.66 8.00 36.00 C 6.67 36.00 5.33 36.00 4.00 36.00 C 4.00 37.33 4.00 38.67 4.00 40.00 C 5.33 40.00 6.67 40.00 8.00 40.00 C 8.00 41.33 8.00 42.67 8.00 44.00 C 9.33 44.00 10.67 44.00 12.00 44.00 C 12.00 42.67 12.00 41.33 12.00 40.00 C 13.33 40.00 14.67 40.00 16.00 40.00 C 16.00 38.67 16.00 37.33 16.00 36.00 C 14.67 36.00 13.33 36.00 12.00 36.00 C 12.00 34.67 12.00 33.33 12.00 32.00 C 10.67 32.00 9.33 32.00 8.00 32.00 M 8.00 48.00 C 8.00 50.67 8.00 53.33 8.00 56.00 C 14.49 56.00 20.99 55.99 27.48 56.00 C 27.10 54.67 26.71 53.34 26.33 52.00 C 21.56 52.00 16.78 52.00 12.00 52.00 C 12.00 50.67 12.00 49.33 12.00 48.00 C 10.67 48.00 9.33 48.00 8.00 48.00 Z" />
<path fill="#ffffff" opacity="1.00" d=" M 25.24 12.00 C 27.08 12.00 28.93 12.00 30.77 12.00 C 31.43 13.33 32.10 14.66 32.76 15.99 C 30.92 16.00 29.08 16.00 27.24 16.00 C 26.57 14.66 25.91 13.33 25.24 12.00 Z" />
<path fill="#ffffff" opacity="1.00" d=" M 45.34 40.48 C 51.03 38.12 57.58 44.16 55.71 50.02 C 54.50 55.50 47.06 57.92 42.90 54.13 C 38.16 50.54 39.64 42.20 45.34 40.48 M 46.29 44.41 C 43.61 45.57 43.17 49.72 45.74 51.25 C 47.86 52.97 51.31 51.56 51.88 48.97 C 52.81 45.92 49.12 42.77 46.29 44.41 Z" />
<path fill="#ffffff" opacity="1.00" d=" M 59.79 50.11 C 61.19 50.04 62.59 50.00 64.00 49.96 L 64.00 64.00 L 49.99 64.00 C 50.00 62.65 50.01 61.30 50.02 59.95 C 51.74 59.37 53.43 58.69 55.09 57.94 C 56.07 58.89 57.04 59.83 58.01 60.79 C 58.94 59.86 59.87 58.93 60.80 58.00 C 59.83 57.02 58.86 56.04 57.90 55.06 C 58.56 53.42 59.19 51.77 59.79 50.11 Z" />
</g>
<g id="#000000ff">
<path fill="#000000" opacity="1.00" d=" M 8.00 8.00 C 16.41 7.99 24.81 8.01 33.22 7.99 C 34.58 10.65 35.90 13.33 37.24 16.00 C 43.49 16.00 49.75 16.00 56.00 16.00 C 56.00 19.83 56.00 23.65 56.00 27.48 C 54.67 27.10 53.34 26.71 52.00 26.34 C 52.00 24.22 52.00 22.11 52.00 20.00 C 42.94 20.01 33.88 19.97 24.81 20.02 C 23.42 17.38 22.11 14.68 20.77 12.01 C 17.85 12.00 14.92 12.00 12.00 12.00 C 12.00 17.33 12.00 22.67 12.00 28.00 C 10.67 28.00 9.33 28.00 8.00 28.00 C 8.00 21.33 8.00 14.67 8.00 8.00 M 25.24 12.00 C 25.91 13.33 26.57 14.66 27.24 16.00 C 29.08 16.00 30.92 16.00 32.76 15.99 C 32.10 14.66 31.43 13.33 30.77 12.00 C 28.93 12.00 27.08 12.00 25.24 12.00 Z" />
<path fill="#000000" opacity="1.00" d=" M 26.00 24.00 C 27.33 24.00 28.67 24.00 30.00 24.00 C 30.00 25.33 30.00 26.66 30.00 28.00 C 31.33 28.00 32.67 28.00 34.00 28.00 C 34.00 29.33 34.00 30.67 34.00 32.00 C 32.67 32.00 31.33 32.00 30.00 32.00 C 30.00 33.33 30.00 34.67 30.00 36.00 C 28.67 36.00 27.33 36.00 26.00 36.00 C 26.00 34.67 26.00 33.33 26.00 32.00 C 24.67 32.00 23.33 32.00 22.00 32.00 C 22.00 30.67 22.00 29.33 22.00 28.00 C 23.33 28.00 24.67 28.00 26.00 28.00 C 26.00 26.67 26.00 25.33 26.00 24.00 Z" />
<path fill="#000000" opacity="1.00" d=" M 8.00 32.00 C 9.33 32.00 10.67 32.00 12.00 32.00 C 12.00 33.33 12.00 34.67 12.00 36.00 C 13.33 36.00 14.67 36.00 16.00 36.00 C 16.00 37.33 16.00 38.67 16.00 40.00 C 14.67 40.00 13.33 40.00 12.00 40.00 C 12.00 41.33 12.00 42.67 12.00 44.00 C 10.67 44.00 9.33 44.00 8.00 44.00 C 8.00 42.67 8.00 41.33 8.00 40.00 C 6.67 40.00 5.33 40.00 4.00 40.00 C 4.00 38.67 4.00 37.33 4.00 36.00 C 5.33 36.00 6.67 36.00 8.00 36.00 C 8.00 34.66 8.00 33.33 8.00 32.00 Z" />
<path fill="#000000" opacity="1.00" d=" M 46.03 32.00 C 47.35 32.00 48.67 32.00 50.00 32.00 C 50.00 33.37 50.00 34.74 50.01 36.11 C 51.70 36.75 53.38 37.42 55.05 38.12 C 56.04 37.15 57.02 36.18 58.01 35.21 C 58.93 36.14 59.86 37.06 60.79 37.99 C 59.84 38.96 58.89 39.93 57.94 40.90 C 58.69 42.56 59.37 44.25 59.95 45.98 C 61.30 45.99 62.65 46.00 64.00 46.01 L 64.00 49.96 C 62.59 50.00 61.19 50.04 59.79 50.11 C 59.19 51.77 58.56 53.42 57.90 55.06 C 58.86 56.04 59.83 57.02 60.80 58.00 C 59.87 58.93 58.94 59.86 58.01 60.79 C 57.04 59.83 56.07 58.89 55.09 57.94 C 53.43 58.69 51.74 59.37 50.02 59.95 C 50.01 61.30 50.00 62.65 49.99 64.00 L 46.00 64.00 C 46.00 62.63 45.99 61.26 45.99 59.89 C 44.30 59.24 42.62 58.57 40.95 57.89 C 39.96 58.85 38.98 59.82 37.99 60.79 C 37.06 59.86 36.14 58.94 35.21 58.01 C 36.16 57.04 37.11 56.07 38.06 55.09 C 37.30 53.44 36.62 51.75 36.04 50.02 C 34.69 50.01 33.35 50.00 32.00 49.99 C 32.00 48.66 32.00 47.33 32.00 46.00 C 33.37 46.00 34.74 46.00 36.11 45.99 C 36.75 44.30 37.42 42.62 38.11 40.95 C 37.14 40.03 36.18 39.11 35.21 38.19 C 36.14 37.27 37.06 36.34 37.99 35.41 C 38.96 36.36 39.93 37.31 40.91 38.26 C 42.54 37.51 44.21 36.84 45.93 36.30 C 45.97 34.87 46.00 33.43 46.03 32.00 M 45.34 40.48 C 39.64 42.20 38.16 50.54 42.90 54.13 C 47.06 57.92 54.50 55.50 55.71 50.02 C 57.58 44.16 51.03 38.12 45.34 40.48 Z" />
<path fill="#000000" opacity="1.00" d=" M 46.29 44.41 C 49.12 42.77 52.81 45.92 51.88 48.97 C 51.31 51.56 47.86 52.97 45.74 51.25 C 43.17 49.72 43.61 45.57 46.29 44.41 Z" />
<path fill="#000000" opacity="1.00" d=" M 8.00 48.00 C 9.33 48.00 10.67 48.00 12.00 48.00 C 12.00 49.33 12.00 50.67 12.00 52.00 C 16.78 52.00 21.56 52.00 26.33 52.00 C 26.71 53.34 27.10 54.67 27.48 56.00 C 20.99 55.99 14.49 56.00 8.00 56.00 C 8.00 53.33 8.00 50.67 8.00 48.00 Z" />
</g>
</svg>
