<?xml version="1.0" encoding="UTF-8" ?>
<!DOCTYPE svg PUBLIC "-//W3C//DTD SVG 1.1//EN" "http://www.w3.org/Graphics/SVG/1.1/DTD/svg11.dtd">
<svg width="60pt" height="60pt" viewBox="0 0 60 60" version="1.1" xmlns="http://www.w3.org/2000/svg">
<g id="#ffffffff">
<path fill="#ffffff" opacity="1.00" d=" M 0.00 0.00 L 60.00 0.00 L 60.00 32.00 C 53.44 32.05 46.02 31.18 40.56 35.62 C 35.94 39.17 35.42 45.56 36.53 50.87 C 35.36 53.83 34.41 56.87 33.79 60.00 L 0.00 60.00 L 0.00 0.00 M 11.10 6.20 C 9.27 7.00 9.90 10.10 11.97 9.93 C 18.64 10.06 25.33 10.06 32.00 9.93 C 34.58 10.15 34.62 5.89 32.04 6.07 C 25.07 6.02 18.06 5.78 11.10 6.20 M 5.18 14.18 C 3.01 15.19 4.30 17.63 5.97 18.37 C 6.04 29.58 5.98 40.79 6.00 52.00 C 10.00 52.00 14.00 52.00 18.00 52.00 C 18.00 49.33 18.00 46.67 18.00 44.00 C 20.67 44.00 23.33 44.00 26.00 44.00 C 26.00 46.66 26.00 49.33 26.00 51.99 C 28.04 52.00 30.09 52.01 32.13 52.02 C 32.41 48.04 31.45 43.92 32.90 40.07 C 33.74 37.06 35.78 34.61 37.98 32.47 C 38.03 27.77 37.97 23.06 38.02 18.35 C 39.21 17.57 40.41 16.67 39.90 15.06 C 38.70 13.55 36.62 14.13 34.96 13.98 C 25.04 14.15 15.09 13.73 5.18 14.18 M 42.00 22.00 C 42.00 24.68 42.00 27.35 41.99 30.03 C 45.80 28.47 49.90 27.91 54.00 27.94 C 54.00 25.96 54.00 23.98 54.00 22.00 C 50.00 22.00 46.00 22.00 42.00 22.00 Z" />
<path fill="#ffffff" opacity="1.00" d=" M 10.00 20.00 C 11.33 20.00 12.67 20.00 14.00 20.00 C 14.00 21.33 14.00 22.67 14.00 24.00 C 12.67 24.00 11.33 24.00 10.00 24.00 C 10.00 22.67 10.00 21.33 10.00 20.00 Z" />
<path fill="#ffffff" opacity="1.00" d=" M 18.00 20.00 C 20.67 20.00 23.33 20.00 26.00 20.00 C 26.00 21.33 26.00 22.67 26.00 24.00 C 23.33 24.00 20.67 24.00 18.00 24.00 C 18.00 22.67 18.00 21.33 18.00 20.00 Z" />
<path fill="#ffffff" opacity="1.00" d=" M 30.00 20.00 C 31.33 20.00 32.67 20.00 34.00 20.00 C 34.00 21.33 34.00 22.67 34.00 24.00 C 32.67 24.00 31.33 24.00 30.00 24.00 C 30.00 22.67 30.00 21.33 30.00 20.00 Z" />
<path fill="#ffffff" opacity="1.00" d=" M 10.00 28.00 C 11.33 28.00 12.67 28.00 14.00 28.00 C 14.00 29.33 14.00 30.67 14.00 32.00 C 12.67 32.00 11.33 32.00 10.00 32.00 C 10.00 30.67 10.00 29.33 10.00 28.00 Z" />
<path fill="#ffffff" opacity="1.00" d=" M 18.00 28.00 C 20.67 28.00 23.33 28.00 26.00 28.00 C 26.00 29.33 26.00 30.67 26.00 32.00 C 23.33 32.00 20.67 32.00 18.00 32.00 C 18.00 30.67 18.00 29.33 18.00 28.00 Z" />
<path fill="#ffffff" opacity="1.00" d=" M 30.00 28.00 C 31.33 28.00 32.67 28.00 34.00 28.00 C 34.00 29.33 34.00 30.67 34.00 32.00 C 32.67 32.00 31.33 32.00 30.00 32.00 C 30.00 30.67 30.00 29.33 30.00 28.00 Z" />
<path fill="#ffffff" opacity="1.00" d=" M 10.00 36.00 C 11.33 36.00 12.67 36.00 14.00 36.00 C 14.00 37.33 14.00 38.67 14.00 40.00 C 12.67 40.00 11.33 40.00 10.00 40.00 C 10.00 38.67 10.00 37.33 10.00 36.00 Z" />
<path fill="#ffffff" opacity="1.00" d=" M 18.00 36.00 C 20.67 36.00 23.33 36.00 26.00 36.00 C 26.00 37.33 26.00 38.67 26.00 40.00 C 23.33 40.00 20.67 40.00 18.00 40.00 C 18.00 38.67 18.00 37.33 18.00 36.00 Z" />
<path fill="#ffffff" opacity="1.00" d=" M 52.04 54.11 C 57.04 51.12 59.54 45.33 60.00 39.71 L 60.00 60.00 L 37.75 60.00 C 39.24 53.06 43.26 46.90 48.18 41.90 C 49.62 40.18 52.53 43.05 50.77 44.59 C 47.85 48.06 45.10 51.74 43.58 56.07 C 46.47 55.94 49.56 55.83 52.04 54.11 Z" />
<path fill="#ffffff" opacity="1.00" d=" M 10.00 44.00 C 11.33 44.00 12.67 44.00 14.00 44.00 C 14.00 45.33 14.00 46.67 14.00 48.00 C 12.67 48.00 11.33 48.00 10.00 48.00 C 10.00 46.67 10.00 45.33 10.00 44.00 Z" />
</g>
<g id="#000000ff">
<path fill="#000000" opacity="1.00" d=" M 11.10 6.20 C 18.06 5.78 25.07 6.02 32.04 6.07 C 34.62 5.89 34.58 10.15 32.00 9.93 C 25.33 10.06 18.64 10.06 11.97 9.93 C 9.90 10.10 9.27 7.00 11.10 6.20 Z" />
<path fill="#000000" opacity="1.00" d=" M 5.18 14.18 C 15.09 13.73 25.04 14.15 34.96 13.98 C 36.62 14.13 38.70 13.55 39.90 15.06 C 40.41 16.67 39.21 17.57 38.02 18.35 C 37.97 23.06 38.03 27.77 37.98 32.47 C 35.78 34.61 33.74 37.06 32.90 40.07 C 31.45 43.92 32.41 48.04 32.13 52.02 C 30.09 52.01 28.04 52.00 26.00 51.99 C 26.00 49.33 26.00 46.66 26.00 44.00 C 23.33 44.00 20.67 44.00 18.00 44.00 C 18.00 46.67 18.00 49.33 18.00 52.00 C 14.00 52.00 10.00 52.00 6.00 52.00 C 5.98 40.79 6.04 29.58 5.97 18.37 C 4.30 17.63 3.01 15.19 5.18 14.18 M 10.00 20.00 C 10.00 21.33 10.00 22.67 10.00 24.00 C 11.33 24.00 12.67 24.00 14.00 24.00 C 14.00 22.67 14.00 21.33 14.00 20.00 C 12.67 20.00 11.33 20.00 10.00 20.00 M 18.00 20.00 C 18.00 21.33 18.00 22.67 18.00 24.00 C 20.67 24.00 23.33 24.00 26.00 24.00 C 26.00 22.67 26.00 21.33 26.00 20.00 C 23.33 20.00 20.67 20.00 18.00 20.00 M 30.00 20.00 C 30.00 21.33 30.00 22.67 30.00 24.00 C 31.33 24.00 32.67 24.00 34.00 24.00 C 34.00 22.67 34.00 21.33 34.00 20.00 C 32.67 20.00 31.33 20.00 30.00 20.00 M 10.00 28.00 C 10.00 29.33 10.00 30.67 10.00 32.00 C 11.33 32.00 12.67 32.00 14.00 32.00 C 14.00 30.67 14.00 29.33 14.00 28.00 C 12.67 28.00 11.33 28.00 10.00 28.00 M 18.00 28.00 C 18.00 29.33 18.00 30.67 18.00 32.00 C 20.67 32.00 23.33 32.00 26.00 32.00 C 26.00 30.67 26.00 29.33 26.00 28.00 C 23.33 28.00 20.67 28.00 18.00 28.00 M 30.00 28.00 C 30.00 29.33 30.00 30.67 30.00 32.00 C 31.33 32.00 32.67 32.00 34.00 32.00 C 34.00 30.67 34.00 29.33 34.00 28.00 C 32.67 28.00 31.33 28.00 30.00 28.00 M 10.00 36.00 C 10.00 37.33 10.00 38.67 10.00 40.00 C 11.33 40.00 12.67 40.00 14.00 40.00 C 14.00 38.67 14.00 37.33 14.00 36.00 C 12.67 36.00 11.33 36.00 10.00 36.00 M 18.00 36.00 C 18.00 37.33 18.00 38.67 18.00 40.00 C 20.67 40.00 23.33 40.00 26.00 40.00 C 26.00 38.67 26.00 37.33 26.00 36.00 C 23.33 36.00 20.67 36.00 18.00 36.00 M 10.00 44.00 C 10.00 45.33 10.00 46.67 10.00 48.00 C 11.33 48.00 12.67 48.00 14.00 48.00 C 14.00 46.67 14.00 45.33 14.00 44.00 C 12.67 44.00 11.33 44.00 10.00 44.00 Z" />
<path fill="#000000" opacity="1.00" d=" M 42.00 22.00 C 46.00 22.00 50.00 22.00 54.00 22.00 C 54.00 23.98 54.00 25.96 54.00 27.94 C 49.90 27.91 45.80 28.47 41.99 30.03 C 42.00 27.35 42.00 24.68 42.00 22.00 Z" />
<path fill="#000000" opacity="1.00" d=" M 40.56 35.62 C 46.02 31.18 53.44 32.05 60.00 32.00 L 60.00 39.71 C 59.54 45.33 57.04 51.12 52.04 54.11 C 49.56 55.83 46.47 55.94 43.58 56.07 C 45.10 51.74 47.85 48.06 50.77 44.59 C 52.53 43.05 49.62 40.18 48.18 41.90 C 43.26 46.90 39.24 53.06 37.75 60.00 L 33.79 60.00 C 34.41 56.87 35.36 53.83 36.53 50.87 C 35.42 45.56 35.94 39.17 40.56 35.62 Z" />
</g>
</svg>
