<?xml version="1.0" encoding="UTF-8" ?>
<!DOCTYPE svg PUBLIC "-//W3C//DTD SVG 1.1//EN" "http://www.w3.org/Graphics/SVG/1.1/DTD/svg11.dtd">
<svg width="60pt" height="60pt" viewBox="0 0 60 60" version="1.1" xmlns="http://www.w3.org/2000/svg">
<g id="#ffffffff">
<path fill="#ffffff" opacity="1.00" d=" M 0.00 0.00 L 60.00 0.00 L 60.00 60.00 L 0.00 60.00 L 0.00 0.00 M 13.44 6.58 C 11.00 7.66 9.77 10.38 10.00 12.95 C 10.01 24.35 9.96 35.75 10.02 47.15 C 10.23 50.25 12.41 53.97 15.89 53.95 C 26.61 54.01 37.34 54.09 48.06 53.91 C 50.61 54.12 50.57 49.83 48.02 50.08 C 37.65 49.86 27.26 50.10 16.88 49.99 C 15.72 50.11 13.74 49.61 14.07 48.05 C 13.71 46.42 15.70 45.84 16.94 46.01 C 26.65 45.92 36.37 46.11 46.09 45.95 C 48.59 46.01 50.33 43.44 50.00 41.09 C 50.01 31.06 50.00 21.03 50.00 11.00 C 50.34 8.65 48.69 5.94 46.12 6.05 C 37.08 5.90 28.04 6.07 19.00 5.98 C 17.15 6.05 15.18 5.81 13.44 6.58 Z" />
<path fill="#ffffff" opacity="1.00" d=" M 14.00 20.00 C 15.74 20.00 17.48 20.00 19.22 20.00 C 19.22 20.50 19.22 21.49 19.22 21.99 C 18.50 22.00 17.04 22.01 16.32 22.02 C 16.32 22.72 16.33 24.10 16.33 24.79 C 17.01 24.80 18.37 24.80 19.05 24.81 C 19.05 25.29 19.06 26.25 19.06 26.73 C 18.38 26.73 17.02 26.74 16.34 26.74 C 16.33 27.52 16.31 29.09 16.31 29.87 C 17.08 29.93 18.63 30.06 19.40 30.13 C 20.31 33.39 15.84 31.52 14.00 32.02 C 14.00 28.01 14.00 24.01 14.00 20.00 Z" />
<path fill="#ffffff" opacity="1.00" d=" M 22.04 20.08 C 24.27 20.14 27.82 19.46 28.52 22.40 C 29.53 25.28 27.03 27.59 24.32 27.80 C 24.32 29.20 24.32 30.60 24.32 32.00 C 23.74 32.00 22.58 32.00 22.00 32.00 C 22.01 28.03 21.97 24.05 22.04 20.08 M 24.30 21.55 C 24.33 23.10 24.39 24.65 24.50 26.20 C 26.80 25.21 27.11 22.10 24.30 21.55 Z" />
<path fill="#ffffff" opacity="1.00" d=" M 31.00 20.00 C 31.58 20.00 32.73 20.00 33.31 20.00 C 33.92 23.40 31.71 28.24 35.08 30.49 C 35.80 27.04 35.56 23.50 35.57 20.00 C 36.14 20.00 37.30 20.00 37.88 20.00 C 37.76 23.32 38.26 26.74 37.43 30.00 C 36.61 32.69 32.19 32.66 31.39 29.99 C 30.70 26.71 31.08 23.33 31.00 20.00 Z" />
<path fill="#ffffff" opacity="1.00" d=" M 40.04 20.08 C 42.18 20.22 45.25 19.40 46.37 21.88 C 46.86 23.25 45.89 24.42 45.27 25.52 C 47.78 27.46 46.98 31.11 43.97 32.12 C 43.43 31.27 42.88 30.43 42.34 29.59 L 44.26 30.17 C 44.82 28.36 44.09 26.94 42.50 26.10 C 42.10 28.07 42.14 30.08 42.68 32.02 L 40.05 31.87 C 39.98 27.94 39.97 24.01 40.04 20.08 M 42.42 22.00 C 41.23 22.90 42.15 25.96 43.76 24.67 C 45.02 23.78 44.02 20.69 42.42 22.00 Z" />
</g>
<g id="#000000ff">
<path fill="#000000" opacity="1.00" d=" M 13.44 6.58 C 15.18 5.81 17.15 6.05 19.00 5.98 C 28.04 6.07 37.08 5.90 46.12 6.05 C 48.69 5.94 50.34 8.65 50.00 11.00 C 50.00 21.03 50.01 31.06 50.00 41.09 C 50.33 43.44 48.59 46.01 46.09 45.95 C 36.37 46.11 26.65 45.92 16.94 46.01 C 15.70 45.84 13.71 46.42 14.07 48.05 C 13.74 49.61 15.72 50.11 16.88 49.99 C 27.26 50.10 37.65 49.86 48.02 50.08 C 50.57 49.83 50.61 54.12 48.06 53.91 C 37.34 54.09 26.61 54.01 15.89 53.95 C 12.41 53.97 10.23 50.25 10.02 47.15 C 9.96 35.75 10.01 24.35 10.00 12.95 C 9.77 10.38 11.00 7.66 13.44 6.58 M 14.00 20.00 C 14.00 24.01 14.00 28.01 14.00 32.02 C 15.84 31.52 20.31 33.39 19.40 30.13 C 18.63 30.06 17.08 29.93 16.31 29.87 C 16.31 29.09 16.33 27.52 16.34 26.74 C 17.02 26.74 18.38 26.73 19.06 26.73 C 19.06 26.25 19.05 25.29 19.05 24.81 C 18.37 24.80 17.01 24.80 16.33 24.79 C 16.33 24.10 16.32 22.72 16.32 22.02 C 17.04 22.01 18.50 22.00 19.22 21.99 C 19.22 21.49 19.22 20.50 19.22 20.00 C 17.48 20.00 15.74 20.00 14.00 20.00 M 22.04 20.08 C 21.97 24.05 22.01 28.03 22.00 32.00 C 22.58 32.00 23.74 32.00 24.32 32.00 C 24.32 30.60 24.32 29.20 24.32 27.80 C 27.03 27.59 29.53 25.28 28.52 22.40 C 27.82 19.46 24.27 20.14 22.04 20.08 M 31.00 20.00 C 31.08 23.33 30.70 26.71 31.39 29.99 C 32.19 32.66 36.61 32.69 37.43 30.00 C 38.26 26.74 37.76 23.32 37.88 20.00 C 37.30 20.00 36.14 20.00 35.57 20.00 C 35.56 23.50 35.80 27.04 35.08 30.49 C 31.71 28.24 33.92 23.40 33.31 20.00 C 32.73 20.00 31.58 20.00 31.00 20.00 M 40.04 20.08 C 39.97 24.01 39.98 27.94 40.05 31.87 L 42.68 32.02 C 42.14 30.08 42.10 28.07 42.50 26.10 C 44.09 26.94 44.82 28.36 44.26 30.17 L 42.34 29.59 C 42.88 30.43 43.43 31.27 43.97 32.12 C 46.98 31.11 47.78 27.46 45.27 25.52 C 45.89 24.42 46.86 23.25 46.37 21.88 C 45.25 19.40 42.18 20.22 40.04 20.08 Z" />
<path fill="#000000" opacity="1.00" d=" M 24.30 21.55 C 27.11 22.10 26.80 25.21 24.50 26.20 C 24.39 24.65 24.33 23.10 24.30 21.55 Z" />
<path fill="#000000" opacity="1.00" d=" M 42.42 22.00 C 44.02 20.69 45.02 23.78 43.76 24.67 C 42.15 25.96 41.23 22.90 42.42 22.00 Z" />
</g>
</svg>
