<?xml version="1.0" encoding="UTF-8" ?>
<!DOCTYPE svg PUBLIC "-//W3C//DTD SVG 1.1//EN" "http://www.w3.org/Graphics/SVG/1.1/DTD/svg11.dtd">
<svg width="64pt" height="64pt" viewBox="0 0 64 64" version="1.1" xmlns="http://www.w3.org/2000/svg">
<g id="#ffffffff">
<path fill="#ffffff" opacity="1.00" d=" M 0.00 0.00 L 64.00 0.00 L 64.00 64.00 L 0.00 64.00 L 0.00 0.00 M 10.01 10.00 C 9.99 24.67 9.97 39.33 10.00 53.99 C 24.67 54.01 39.33 54.03 53.99 54.00 C 54.01 39.33 54.03 24.67 54.00 10.01 C 39.33 9.99 24.67 9.97 10.01 10.00 Z" />
<path fill="#ffffff" opacity="1.00" d=" M 13.99 13.99 C 26.00 14.01 38.00 14.01 50.01 13.99 C 49.99 26.00 49.99 38.00 50.01 50.01 C 38.00 49.99 26.00 49.99 13.99 50.01 C 14.01 38.00 14.01 26.00 13.99 13.99 M 22.00 25.99 C 22.00 27.33 22.00 28.67 22.00 30.01 C 28.67 30.01 35.33 30.01 42.00 30.01 C 42.00 28.67 42.00 27.33 42.00 25.99 C 35.33 25.99 28.67 25.99 22.00 25.99 M 22.00 33.99 C 22.00 35.33 22.00 36.67 22.00 38.01 C 28.67 38.01 35.33 38.01 42.00 38.01 C 42.00 36.67 42.00 35.33 42.00 33.99 C 35.33 33.99 28.67 33.99 22.00 33.99 Z" />
</g>
<g id="#000000ff">
<path fill="#000000" opacity="1.00" d=" M 10.01 10.00 C 24.67 9.97 39.33 9.99 54.00 10.01 C 54.03 24.67 54.01 39.33 53.99 54.00 C 39.33 54.03 24.67 54.01 10.00 53.99 C 9.97 39.33 9.99 24.67 10.01 10.00 M 13.99 13.99 C 14.01 26.00 14.01 38.00 13.99 50.01 C 26.00 49.99 38.00 49.99 50.01 50.01 C 49.99 38.00 49.99 26.00 50.01 13.99 C 38.00 14.01 26.00 14.01 13.99 13.99 Z" />
<path fill="#000000" opacity="1.00" d=" M 22.00 25.99 C 28.67 25.99 35.33 25.99 42.00 25.99 C 42.00 27.33 42.00 28.67 42.00 30.01 C 35.33 30.01 28.67 30.01 22.00 30.01 C 22.00 28.67 22.00 27.33 22.00 25.99 Z" />
<path fill="#000000" opacity="1.00" d=" M 22.00 33.99 C 28.67 33.99 35.33 33.99 42.00 33.99 C 42.00 35.33 42.00 36.67 42.00 38.01 C 35.33 38.01 28.67 38.01 22.00 38.01 C 22.00 36.67 22.00 35.33 22.00 33.99 Z" />
</g>
</svg>
