<?xml version="1.0" encoding="UTF-8" ?>
<!DOCTYPE svg PUBLIC "-//W3C//DTD SVG 1.1//EN" "http://www.w3.org/Graphics/SVG/1.1/DTD/svg11.dtd">
<svg width="60pt" height="60pt" viewBox="0 0 60 60" version="1.1" xmlns="http://www.w3.org/2000/svg">
<g id="#ffffffff">
<path fill="#ffffff" opacity="1.00" d=" M 0.00 0.00 L 60.00 0.00 L 60.00 60.00 L 0.00 60.00 L 0.00 0.00 M 22.44 5.88 C 21.98 9.15 18.33 9.72 16.01 11.26 C 16.55 12.48 17.09 13.70 17.63 14.93 C 18.60 14.67 19.58 14.42 20.56 14.18 C 22.00 15.23 23.58 16.08 25.18 16.84 C 24.85 19.32 24.27 21.76 23.35 24.09 C 19.52 24.86 16.32 27.06 14.47 30.52 C 12.87 31.86 13.94 34.30 15.94 34.31 C 17.88 33.09 19.05 31.04 20.48 29.31 C 22.40 28.94 24.32 28.56 26.24 28.17 C 27.71 29.81 29.51 31.09 31.69 31.57 C 32.23 34.97 34.90 37.23 37.26 39.45 C 36.67 41.60 36.09 43.76 35.81 45.97 C 37.13 45.99 38.45 46.00 39.77 46.01 C 40.17 43.25 41.10 40.61 41.99 37.98 C 40.98 36.76 39.96 35.55 38.94 34.34 C 40.48 32.92 41.92 31.40 43.28 29.80 C 46.22 30.63 47.98 33.01 48.27 36.02 C 49.58 35.99 50.88 35.96 52.19 35.94 C 52.03 30.73 48.10 26.43 42.90 25.88 C 39.67 23.16 36.11 20.86 33.01 17.97 C 33.67 15.66 34.62 13.02 33.15 10.81 C 31.12 6.92 26.47 5.89 22.44 5.88 M 12.42 21.33 C 10.76 21.93 8.92 23.67 10.50 25.40 C 12.78 27.07 14.89 24.37 15.82 22.51 C 17.83 21.80 19.84 21.10 21.84 20.37 C 18.69 20.30 15.20 19.33 12.42 21.33 M 27.80 45.97 C 29.10 45.98 30.41 46.00 31.71 46.01 C 32.12 44.16 32.73 42.37 33.47 40.62 C 32.48 39.81 31.49 39.00 30.50 38.18 C 29.20 40.63 27.80 43.12 27.80 45.97 M 9.12 50.18 C 7.28 50.97 7.88 54.12 9.97 53.92 C 23.00 54.09 36.04 53.97 49.08 53.99 C 50.81 54.35 52.54 52.95 51.88 51.13 C 50.83 49.47 48.64 50.17 47.02 49.98 C 34.39 50.15 21.73 49.74 9.12 50.18 Z" />
</g>
<g id="#000000ff">
<path fill="#968176" opacity="1.00" d=" M 22.44 5.88 C 26.47 5.89 31.12 6.92 33.15 10.81 C 34.62 13.02 33.67 15.66 33.01 17.97 C 36.11 20.86 39.67 23.16 42.90 25.88 C 48.10 26.43 52.03 30.73 52.19 35.94 C 50.88 35.96 49.58 35.99 48.27 36.02 C 47.98 33.01 46.22 30.63 43.28 29.80 C 41.92 31.40 40.48 32.92 38.94 34.34 C 39.96 35.55 40.98 36.76 41.99 37.98 C 41.10 40.61 40.17 43.25 39.77 46.01 C 38.45 46.00 37.13 45.99 35.81 45.97 C 36.09 43.76 36.67 41.60 37.26 39.45 C 34.90 37.23 32.23 34.97 31.69 31.57 C 29.51 31.09 27.71 29.81 26.24 28.17 C 24.32 28.56 22.40 28.94 20.48 29.31 C 19.05 31.04 17.88 33.09 15.94 34.31 C 13.94 34.30 12.87 31.86 14.47 30.52 C 16.32 27.06 19.52 24.86 23.35 24.09 C 24.27 21.76 24.85 19.32 25.18 16.84 C 23.58 16.08 22.00 15.23 20.56 14.18 C 19.58 14.42 18.60 14.67 17.63 14.93 C 17.09 13.70 16.55 12.48 16.01 11.26 C 18.33 9.72 21.98 9.15 22.44 5.88 Z" />
<path fill="#968176" opacity="1.00" d=" M 12.42 21.33 C 15.20 19.33 18.69 20.30 21.84 20.37 C 19.84 21.10 17.83 21.80 15.82 22.51 C 14.89 24.37 12.78 27.07 10.50 25.40 C 8.92 23.67 10.76 21.93 12.42 21.33 Z" />
<path fill="#968176" opacity="1.00" d=" M 27.80 45.97 C 27.80 43.12 29.20 40.63 30.50 38.18 C 31.49 39.00 32.48 39.81 33.47 40.62 C 32.73 42.37 32.12 44.16 31.71 46.01 C 30.41 46.00 29.10 45.98 27.80 45.97 Z" />
<path fill="#968176" opacity="1.00" d=" M 9.12 50.18 C 21.73 49.74 34.39 50.15 47.02 49.98 C 48.64 50.17 50.83 49.47 51.88 51.13 C 52.54 52.95 50.81 54.35 49.08 53.99 C 36.04 53.97 23.00 54.09 9.97 53.92 C 7.88 54.12 7.28 50.97 9.12 50.18 Z" />
</g>
</svg>
