<?xml version="1.0" encoding="UTF-8" ?>
<!DOCTYPE svg PUBLIC "-//W3C//DTD SVG 1.1//EN" "http://www.w3.org/Graphics/SVG/1.1/DTD/svg11.dtd">
<svg width="64pt" height="64pt" viewBox="0 0 64 64" version="1.1" xmlns="http://www.w3.org/2000/svg">
<g id="#ffffffff">
<path fill="#ffffff" opacity="1.00" d=" M 0.00 0.00 L 64.00 0.00 L 64.00 64.00 L 0.00 64.00 L 0.00 0.00 M 30.00 6.00 C 30.01 7.33 30.01 8.67 30.00 10.00 C 31.33 9.99 32.67 9.99 34.00 10.00 C 33.99 8.67 33.99 7.33 34.00 6.00 C 32.67 6.01 31.33 6.01 30.00 6.00 M 4.00 12.00 C 4.00 25.33 4.00 38.67 4.00 52.00 C 11.33 52.00 18.67 52.00 26.00 52.00 C 25.99 50.67 25.99 49.33 26.00 48.00 C 22.66 48.00 19.32 48.00 15.98 48.00 C 14.84 44.13 11.84 41.19 8.00 40.02 C 8.00 34.67 8.00 29.33 8.00 23.98 C 11.85 22.82 14.83 19.86 15.98 16.00 C 19.32 16.00 22.66 16.00 26.01 16.00 C 25.99 14.67 25.99 13.33 26.01 12.00 C 18.67 12.00 11.33 12.00 4.00 12.00 M 38.00 12.00 C 38.01 13.33 38.01 14.67 38.00 16.00 C 41.34 16.00 44.68 16.00 48.02 16.00 C 49.19 19.84 52.12 22.85 56.00 23.98 C 56.00 29.33 56.00 34.67 56.00 40.02 C 52.14 41.17 49.16 44.14 48.02 48.00 C 44.68 48.00 41.34 48.00 38.00 48.00 C 38.01 49.33 38.01 50.67 37.99 52.00 C 45.33 52.00 52.66 52.00 60.00 52.00 C 60.00 38.67 60.00 25.33 60.00 12.00 C 52.66 12.00 45.33 12.00 38.00 12.00 M 30.00 13.99 C 30.00 15.33 30.01 16.67 30.00 18.01 C 31.33 17.99 32.67 17.99 34.00 18.01 C 33.99 16.67 33.99 15.33 34.00 13.99 C 32.67 14.01 31.33 14.01 30.00 13.99 M 30.00 22.00 C 30.01 23.33 30.01 24.67 30.00 26.00 C 31.33 25.99 32.67 25.99 34.00 26.00 C 33.99 24.67 33.99 23.33 34.00 22.00 C 32.67 22.01 31.33 22.01 30.00 22.00 M 14.00 24.00 C 14.00 26.67 14.00 29.33 14.00 32.00 C 16.67 32.00 19.33 32.00 22.00 32.00 C 22.00 29.33 22.00 26.67 22.00 24.00 C 19.33 24.00 16.67 24.00 14.00 24.00 M 42.00 24.00 C 42.00 26.67 42.00 29.33 42.00 32.00 C 44.67 32.00 47.33 32.00 50.00 32.00 C 50.00 29.33 50.00 26.67 50.00 24.00 C 47.33 24.00 44.67 24.00 42.00 24.00 M 30.00 30.00 C 30.01 31.33 30.01 32.67 30.00 34.00 C 31.33 33.99 32.67 33.99 34.00 34.00 C 33.99 32.67 33.99 31.33 34.00 30.00 C 32.67 30.01 31.33 30.01 30.00 30.00 M 30.00 38.00 C 30.01 39.33 30.01 40.67 30.00 42.00 C 31.33 41.99 32.67 41.99 34.00 42.01 C 33.99 40.67 33.99 39.33 34.01 37.99 C 32.67 38.01 31.33 38.01 30.00 38.00 M 18.00 40.00 C 18.01 41.33 18.01 42.67 18.00 44.00 C 20.66 44.00 23.33 44.00 26.00 44.00 C 25.99 42.67 25.99 41.33 26.01 40.00 C 23.34 40.00 20.67 40.00 18.00 40.00 M 38.00 40.00 C 38.01 41.33 38.01 42.67 38.00 44.00 C 40.67 44.00 43.33 44.00 46.00 44.00 C 45.99 42.67 45.99 41.33 46.00 40.00 C 43.33 40.00 40.66 40.00 38.00 40.00 M 30.00 46.00 C 30.01 47.33 30.01 48.67 30.00 50.00 C 31.33 49.99 32.67 49.99 34.00 50.00 C 33.99 48.67 33.99 47.33 34.01 46.00 C 32.67 46.01 31.33 46.01 30.00 46.00 M 29.99 53.99 C 30.01 55.33 30.01 56.67 30.00 58.00 C 31.33 57.99 32.67 57.99 34.00 58.00 C 33.99 56.67 33.99 55.33 34.01 54.00 C 32.67 54.01 31.33 54.01 29.99 53.99 Z" />
<path fill="#ffffff" opacity="1.00" d=" M 7.94 15.93 C 8.94 15.99 10.95 16.12 11.96 16.19 C 10.71 17.45 9.47 18.73 8.18 19.95 C 8.12 18.94 8.00 16.93 7.94 15.93 Z" />
<path fill="#ffffff" opacity="1.00" d=" M 52.03 16.19 C 53.04 16.12 55.05 15.99 56.06 15.93 C 56.00 16.93 55.88 18.94 55.82 19.95 C 54.52 18.73 53.28 17.46 52.03 16.19 Z" />
<path fill="#ffffff" opacity="1.00" d=" M 8.18 44.05 C 9.48 45.27 10.72 46.54 11.96 47.82 C 10.95 47.88 8.95 48.00 7.94 48.07 C 8.00 47.06 8.12 45.05 8.18 44.05 Z" />
<path fill="#ffffff" opacity="1.00" d=" M 52.04 47.82 C 53.27 46.52 54.53 45.28 55.81 44.04 C 55.88 45.04 56.01 47.06 56.07 48.06 C 55.06 48.00 53.05 47.88 52.04 47.82 Z" />
</g>
<g id="#000000ff">
<path fill="#000000" opacity="1.00" d=" M 30.00 6.00 C 31.33 6.01 32.67 6.01 34.00 6.00 C 33.99 7.33 33.99 8.67 34.00 10.00 C 32.67 9.99 31.33 9.99 30.00 10.00 C 30.01 8.67 30.01 7.33 30.00 6.00 Z" />
<path fill="#000000" opacity="1.00" d=" M 4.00 12.00 C 11.33 12.00 18.67 12.00 26.01 12.00 C 25.99 13.33 25.99 14.67 26.01 16.00 C 22.66 16.00 19.32 16.00 15.98 16.00 C 14.83 19.86 11.85 22.82 8.00 23.98 C 8.00 29.33 8.00 34.67 8.00 40.02 C 11.84 41.19 14.84 44.13 15.98 48.00 C 19.32 48.00 22.66 48.00 26.00 48.00 C 25.99 49.33 25.99 50.67 26.00 52.00 C 18.67 52.00 11.33 52.00 4.00 52.00 C 4.00 38.67 4.00 25.33 4.00 12.00 M 7.94 15.93 C 8.00 16.93 8.12 18.94 8.18 19.95 C 9.47 18.73 10.71 17.45 11.96 16.19 C 10.95 16.12 8.94 15.99 7.94 15.93 M 8.18 44.05 C 8.12 45.05 8.00 47.06 7.94 48.07 C 8.95 48.00 10.95 47.88 11.96 47.82 C 10.72 46.54 9.48 45.27 8.18 44.05 Z" />
<path fill="#000000" opacity="1.00" d=" M 38.00 12.00 C 45.33 12.00 52.66 12.00 60.00 12.00 C 60.00 25.33 60.00 38.67 60.00 52.00 C 52.66 52.00 45.33 52.00 37.99 52.00 C 38.01 50.67 38.01 49.33 38.00 48.00 C 41.34 48.00 44.68 48.00 48.02 48.00 C 49.16 44.14 52.14 41.17 56.00 40.02 C 56.00 34.67 56.00 29.33 56.00 23.98 C 52.12 22.85 49.19 19.84 48.02 16.00 C 44.68 16.00 41.34 16.00 38.00 16.00 C 38.01 14.67 38.01 13.33 38.00 12.00 M 52.03 16.19 C 53.28 17.46 54.52 18.73 55.82 19.95 C 55.88 18.94 56.00 16.93 56.06 15.93 C 55.05 15.99 53.04 16.12 52.03 16.19 M 52.04 47.82 C 53.05 47.88 55.06 48.00 56.07 48.06 C 56.01 47.06 55.88 45.04 55.81 44.04 C 54.53 45.28 53.27 46.52 52.04 47.82 Z" />
<path fill="#000000" opacity="1.00" d=" M 30.00 13.99 C 31.33 14.01 32.67 14.01 34.00 13.99 C 33.99 15.33 33.99 16.67 34.00 18.01 C 32.67 17.99 31.33 17.99 30.00 18.01 C 30.01 16.67 30.00 15.33 30.00 13.99 Z" />
<path fill="#000000" opacity="1.00" d=" M 30.00 22.00 C 31.33 22.01 32.67 22.01 34.00 22.00 C 33.99 23.33 33.99 24.67 34.00 26.00 C 32.67 25.99 31.33 25.99 30.00 26.00 C 30.01 24.67 30.01 23.33 30.00 22.00 Z" />
<path fill="#000000" opacity="1.00" d=" M 14.00 24.00 C 16.67 24.00 19.33 24.00 22.00 24.00 C 22.00 26.67 22.00 29.33 22.00 32.00 C 19.33 32.00 16.67 32.00 14.00 32.00 C 14.00 29.33 14.00 26.67 14.00 24.00 Z" />
<path fill="#000000" opacity="1.00" d=" M 42.00 24.00 C 44.67 24.00 47.33 24.00 50.00 24.00 C 50.00 26.67 50.00 29.33 50.00 32.00 C 47.33 32.00 44.67 32.00 42.00 32.00 C 42.00 29.33 42.00 26.67 42.00 24.00 Z" />
<path fill="#000000" opacity="1.00" d=" M 30.00 30.00 C 31.33 30.01 32.67 30.01 34.00 30.00 C 33.99 31.33 33.99 32.67 34.00 34.00 C 32.67 33.99 31.33 33.99 30.00 34.00 C 30.01 32.67 30.01 31.33 30.00 30.00 Z" />
<path fill="#000000" opacity="1.00" d=" M 30.00 38.00 C 31.33 38.01 32.67 38.01 34.01 37.99 C 33.99 39.33 33.99 40.67 34.00 42.01 C 32.67 41.99 31.33 41.99 30.00 42.00 C 30.01 40.67 30.01 39.33 30.00 38.00 Z" />
<path fill="#000000" opacity="1.00" d=" M 18.00 40.00 C 20.67 40.00 23.34 40.00 26.01 40.00 C 25.99 41.33 25.99 42.67 26.00 44.00 C 23.33 44.00 20.66 44.00 18.00 44.00 C 18.01 42.67 18.01 41.33 18.00 40.00 Z" />
<path fill="#000000" opacity="1.00" d=" M 38.00 40.00 C 40.66 40.00 43.33 40.00 46.00 40.00 C 45.99 41.33 45.99 42.67 46.00 44.00 C 43.33 44.00 40.67 44.00 38.00 44.00 C 38.01 42.67 38.01 41.33 38.00 40.00 Z" />
<path fill="#000000" opacity="1.00" d=" M 30.00 46.00 C 31.33 46.01 32.67 46.01 34.01 46.00 C 33.99 47.33 33.99 48.67 34.00 50.00 C 32.67 49.99 31.33 49.99 30.00 50.00 C 30.01 48.67 30.01 47.33 30.00 46.00 Z" />
<path fill="#000000" opacity="1.00" d=" M 29.99 53.99 C 31.33 54.01 32.67 54.01 34.01 54.00 C 33.99 55.33 33.99 56.67 34.00 58.00 C 32.67 57.99 31.33 57.99 30.00 58.00 C 30.01 56.67 30.01 55.33 29.99 53.99 Z" />
</g>
</svg>
