<?xml version="1.0" encoding="UTF-8" ?>
<!DOCTYPE svg PUBLIC "-//W3C//DTD SVG 1.1//EN" "http://www.w3.org/Graphics/SVG/1.1/DTD/svg11.dtd">
<svg width="60pt" height="60pt" viewBox="0 0 60 60" version="1.1" xmlns="http://www.w3.org/2000/svg">
<g id="#ffffffff">
<path fill="#ffffff" opacity="1.00" d=" M 0.00 0.00 L 60.00 0.00 L 60.00 60.00 L 0.00 60.00 L 0.00 0.00 M 29.16 4.11 C 26.85 5.23 28.42 8.86 30.84 7.90 C 33.14 6.74 31.57 3.15 29.16 4.11 M 6.33 10.39 C 4.57 11.17 3.82 13.15 4.00 14.98 C 4.03 25.35 3.93 35.72 4.05 46.09 C 3.93 48.63 6.57 50.31 8.91 50.00 C 23.31 49.97 37.71 50.07 52.10 49.95 C 54.61 49.99 56.34 47.42 56.00 45.07 C 56.01 35.02 56.00 24.96 56.00 14.91 C 56.32 12.57 54.62 9.92 52.07 10.05 C 38.39 9.91 24.70 10.07 11.01 9.98 C 9.46 10.06 7.81 9.80 6.33 10.39 M 29.18 52.16 C 26.83 53.16 28.42 56.86 30.79 55.90 C 33.18 54.90 31.58 51.05 29.18 52.16 Z" />
<path fill="#ffffff" opacity="1.00" d=" M 29.12 12.10 C 31.57 11.08 33.25 14.93 30.72 15.86 C 28.39 16.83 26.91 13.22 29.12 12.10 Z" />
<path fill="#ffffff" opacity="1.00" d=" M 8.00 14.00 C 10.00 14.00 11.99 14.00 13.99 14.00 C 12.00 16.00 10.00 18.00 8.00 19.99 C 8.00 17.99 8.00 16.00 8.00 14.00 Z" />
<path fill="#ffffff" opacity="1.00" d=" M 46.00 14.01 C 48.00 14.01 50.00 14.00 52.00 13.99 C 52.00 15.99 52.00 17.99 52.00 20.00 C 50.02 17.98 48.02 15.99 46.00 14.01 Z" />
<path fill="#ffffff" opacity="1.00" d=" M 29.17 20.09 C 31.55 19.12 33.20 22.85 30.81 23.82 C 28.43 24.96 26.86 21.15 29.17 20.09 Z" />
<path fill="#ffffff" opacity="1.00" d=" M 15.12 22.16 C 18.07 21.84 21.04 22.01 24.00 22.01 C 24.00 24.67 24.00 27.33 24.00 29.99 C 21.05 29.99 18.08 30.16 15.14 29.83 C 13.32 28.10 13.34 23.92 15.12 22.16 Z" />
<path fill="#ffffff" opacity="1.00" d=" M 36.00 22.01 C 38.95 22.01 41.91 21.84 44.85 22.16 C 46.68 23.88 46.65 28.05 44.88 29.83 C 41.93 30.16 38.96 29.99 36.00 29.99 C 36.00 27.33 36.00 24.67 36.00 22.01 Z" />
<path fill="#ffffff" opacity="1.00" d=" M 29.25 28.17 C 31.53 27.00 33.24 31.03 30.76 31.80 C 28.50 33.06 26.73 28.95 29.25 28.17 Z" />
<path fill="#ffffff" opacity="1.00" d=" M 15.15 34.16 C 18.09 33.85 21.05 34.01 24.00 34.01 C 24.00 35.34 24.00 36.66 24.00 37.99 C 21.04 37.99 18.06 38.16 15.11 37.83 C 13.65 37.08 13.65 34.87 15.15 34.16 Z" />
<path fill="#ffffff" opacity="1.00" d=" M 36.00 34.01 C 38.94 34.01 41.89 33.84 44.82 34.16 C 46.37 34.82 46.37 37.16 44.83 37.83 C 41.90 38.16 38.94 37.99 36.00 37.99 C 36.00 36.66 36.00 35.34 36.00 34.01 Z" />
<path fill="#ffffff" opacity="1.00" d=" M 29.17 36.16 C 31.57 35.09 33.15 38.79 30.84 39.89 C 28.48 40.92 26.81 37.20 29.17 36.16 Z" />
<path fill="#ffffff" opacity="1.00" d=" M 8.00 39.97 C 10.01 41.97 12.00 43.98 13.99 46.00 C 11.99 46.00 9.99 46.00 8.00 46.00 C 8.00 43.99 8.00 41.98 8.00 39.97 Z" />
<path fill="#ffffff" opacity="1.00" d=" M 46.01 46.00 C 48.00 44.00 50.00 42.00 52.00 40.00 C 52.00 42.00 52.00 44.00 52.00 46.00 C 50.00 46.00 48.00 46.00 46.01 46.00 Z" />
<path fill="#ffffff" opacity="1.00" d=" M 29.19 44.10 C 31.60 43.16 33.13 46.77 30.84 47.88 C 28.41 48.89 26.84 45.18 29.19 44.10 Z" />
</g>
<g id="#000000ff">
<path fill="#968176" opacity="1.00" d=" M 29.16 4.11 C 31.57 3.15 33.14 6.74 30.84 7.90 C 28.42 8.86 26.85 5.23 29.16 4.11 Z" />
<path fill="#968176" opacity="1.00" d=" M 6.33 10.39 C 7.81 9.80 9.46 10.06 11.01 9.98 C 24.70 10.07 38.39 9.91 52.07 10.05 C 54.62 9.92 56.32 12.57 56.00 14.91 C 56.00 24.96 56.01 35.02 56.00 45.07 C 56.34 47.42 54.61 49.99 52.10 49.95 C 37.71 50.07 23.31 49.97 8.91 50.00 C 6.57 50.31 3.93 48.63 4.05 46.09 C 3.93 35.72 4.03 25.35 4.00 14.98 C 3.82 13.15 4.57 11.17 6.33 10.39 M 29.12 12.10 C 26.91 13.22 28.39 16.83 30.72 15.86 C 33.25 14.93 31.57 11.08 29.12 12.10 M 8.00 14.00 C 8.00 16.00 8.00 17.99 8.00 19.99 C 10.00 18.00 12.00 16.00 13.99 14.00 C 11.99 14.00 10.00 14.00 8.00 14.00 M 46.00 14.01 C 48.02 15.99 50.02 17.98 52.00 20.00 C 52.00 17.99 52.00 15.99 52.00 13.99 C 50.00 14.00 48.00 14.01 46.00 14.01 M 29.17 20.09 C 26.86 21.15 28.43 24.96 30.81 23.82 C 33.20 22.85 31.55 19.12 29.17 20.09 M 15.12 22.16 C 13.34 23.92 13.32 28.10 15.14 29.83 C 18.08 30.16 21.05 29.99 24.00 29.99 C 24.00 27.33 24.00 24.67 24.00 22.01 C 21.04 22.01 18.07 21.84 15.12 22.16 M 36.00 22.01 C 36.00 24.67 36.00 27.33 36.00 29.99 C 38.96 29.99 41.93 30.16 44.88 29.83 C 46.65 28.05 46.68 23.88 44.85 22.16 C 41.91 21.84 38.95 22.01 36.00 22.01 M 29.25 28.17 C 26.73 28.95 28.50 33.06 30.76 31.80 C 33.24 31.03 31.53 27.00 29.25 28.17 M 15.15 34.16 C 13.65 34.87 13.65 37.08 15.11 37.83 C 18.06 38.16 21.04 37.99 24.00 37.99 C 24.00 36.66 24.00 35.34 24.00 34.01 C 21.05 34.01 18.09 33.85 15.15 34.16 M 36.00 34.01 C 36.00 35.34 36.00 36.66 36.00 37.99 C 38.94 37.99 41.90 38.16 44.83 37.83 C 46.37 37.16 46.37 34.82 44.82 34.16 C 41.89 33.84 38.94 34.01 36.00 34.01 M 29.17 36.16 C 26.81 37.20 28.48 40.92 30.84 39.89 C 33.15 38.79 31.57 35.09 29.17 36.16 M 8.00 39.97 C 8.00 41.98 8.00 43.99 8.00 46.00 C 9.99 46.00 11.99 46.00 13.99 46.00 C 12.00 43.98 10.01 41.97 8.00 39.97 M 46.01 46.00 C 48.00 46.00 50.00 46.00 52.00 46.00 C 52.00 44.00 52.00 42.00 52.00 40.00 C 50.00 42.00 48.00 44.00 46.01 46.00 M 29.19 44.10 C 26.84 45.18 28.41 48.89 30.84 47.88 C 33.13 46.77 31.60 43.16 29.19 44.10 Z" />
<path fill="#968176" opacity="1.00" d=" M 29.18 52.16 C 31.58 51.05 33.18 54.90 30.79 55.90 C 28.42 56.86 26.83 53.16 29.18 52.16 Z" />
</g>
</svg>
