<?xml version="1.0" encoding="UTF-8" ?>
<!DOCTYPE svg PUBLIC "-//W3C//DTD SVG 1.1//EN" "http://www.w3.org/Graphics/SVG/1.1/DTD/svg11.dtd">
<svg width="60pt" height="60pt" viewBox="0 0 60 60" version="1.1" xmlns="http://www.w3.org/2000/svg">
<g id="#ffffffff">
<path fill="#ffffff" opacity="1.00" d=" M 0.00 0.00 L 60.00 0.00 L 60.00 60.00 L 0.00 60.00 L 0.00 0.00 M 36.23 6.27 C 34.55 6.64 33.30 7.90 32.10 9.05 C 24.12 17.12 16.02 25.08 8.06 33.16 C 5.38 35.68 5.39 40.34 8.07 42.85 C 11.06 45.91 14.08 48.95 17.15 51.93 C 19.69 54.63 24.38 54.59 26.90 51.88 C 34.98 43.96 42.89 35.86 50.95 27.91 C 52.83 26.18 54.35 23.77 53.90 21.11 C 53.34 17.33 49.74 15.22 47.41 12.56 C 44.31 9.65 41.18 4.85 36.23 6.27 Z" />
<path fill="#ffffff" opacity="1.00" d=" M 10.91 36.00 C 14.30 32.38 17.96 29.00 21.40 25.42 C 25.86 29.74 30.15 34.22 34.59 38.56 C 31.04 42.06 27.63 45.71 23.98 49.11 C 22.95 50.25 21.02 50.25 20.01 49.09 C 16.91 46.11 13.84 43.09 10.89 39.97 C 9.75 38.94 9.75 37.02 10.91 36.00 Z" />
</g>
<g id="#000000ff">
<path fill="#000000" opacity="1.00" d=" M 36.23 6.27 C 41.18 4.85 44.31 9.65 47.41 12.56 C 49.74 15.22 53.34 17.33 53.90 21.11 C 54.35 23.77 52.83 26.18 50.95 27.91 C 42.89 35.86 34.98 43.96 26.90 51.88 C 24.38 54.59 19.69 54.63 17.15 51.93 C 14.08 48.95 11.06 45.91 8.07 42.85 C 5.39 40.34 5.38 35.68 8.06 33.16 C 16.02 25.08 24.12 17.12 32.10 9.05 C 33.30 7.90 34.55 6.64 36.23 6.27 M 10.91 36.00 C 9.75 37.02 9.75 38.94 10.89 39.97 C 13.84 43.09 16.91 46.11 20.01 49.09 C 21.02 50.25 22.95 50.25 23.98 49.11 C 27.63 45.71 31.04 42.06 34.59 38.56 C 30.15 34.22 25.86 29.74 21.40 25.42 C 17.96 29.00 14.30 32.38 10.91 36.00 Z" />
</g>
</svg>
