<?xml version="1.0" encoding="UTF-8" ?>
<!DOCTYPE svg PUBLIC "-//W3C//DTD SVG 1.1//EN" "http://www.w3.org/Graphics/SVG/1.1/DTD/svg11.dtd">
<svg width="64pt" height="64pt" viewBox="0 0 64 64" version="1.1" xmlns="http://www.w3.org/2000/svg">
<g id="#ffffffff">
<path fill="#ffffff" opacity="1.00" d=" M 0.00 0.00 L 64.00 0.00 L 64.00 64.00 L 0.00 64.00 L 0.00 0.00 M 35.43 8.60 C 34.06 9.05 33.07 10.14 32.05 11.10 C 24.76 18.46 17.31 25.67 10.01 33.03 C 7.21 35.48 7.42 40.23 10.22 42.60 C 14.13 46.43 17.93 50.37 21.86 54.18 C 24.26 56.70 28.67 56.55 30.99 54.00 C 38.50 46.51 46.00 39.00 53.50 31.50 C 55.20 29.90 56.35 27.55 55.84 25.18 C 55.48 22.92 53.56 21.43 52.08 19.85 C 48.68 16.59 45.47 13.13 42.03 9.90 C 40.33 8.20 37.65 7.77 35.43 8.60 Z" />
<path fill="#ffffff" opacity="1.00" d=" M 36.52 12.53 C 38.19 11.58 39.71 13.05 40.80 14.18 C 44.24 17.75 47.86 21.15 51.26 24.75 C 52.20 25.64 52.18 27.26 51.17 28.10 C 47.96 31.62 44.44 34.83 41.13 38.24 C 36.04 33.13 30.90 28.06 25.83 22.92 C 29.45 19.51 32.72 15.74 36.52 12.53 Z" />
<path fill="#ffffff" opacity="1.00" d=" M 12.79 35.91 C 16.08 32.46 19.59 29.22 22.93 25.82 C 28.05 30.91 33.14 36.02 38.25 41.12 C 34.85 44.45 31.61 47.94 28.12 51.17 C 27.06 52.40 25.09 52.11 24.16 50.88 C 20.45 47.21 16.72 43.55 13.06 39.82 C 11.96 38.87 11.58 36.94 12.79 35.91 Z" />
</g>
<g id="#000000ff">
<path fill="#000000" opacity="1.00" d=" M 35.43 8.60 C 37.65 7.77 40.33 8.20 42.03 9.90 C 45.47 13.13 48.68 16.59 52.08 19.85 C 53.56 21.43 55.48 22.92 55.84 25.18 C 56.35 27.55 55.20 29.90 53.50 31.50 C 46.00 39.00 38.50 46.51 30.99 54.00 C 28.67 56.55 24.26 56.70 21.86 54.18 C 17.93 50.37 14.13 46.43 10.22 42.60 C 7.42 40.23 7.21 35.48 10.01 33.03 C 17.31 25.67 24.76 18.46 32.05 11.10 C 33.07 10.14 34.06 9.05 35.43 8.60 M 36.52 12.53 C 32.72 15.74 29.45 19.51 25.83 22.92 C 30.90 28.06 36.04 33.13 41.13 38.24 C 44.44 34.83 47.96 31.62 51.17 28.10 C 52.18 27.26 52.20 25.64 51.26 24.75 C 47.86 21.15 44.24 17.75 40.80 14.18 C 39.71 13.05 38.19 11.58 36.52 12.53 M 12.79 35.91 C 11.58 36.94 11.96 38.87 13.06 39.82 C 16.72 43.55 20.45 47.21 24.16 50.88 C 25.09 52.11 27.06 52.40 28.12 51.17 C 31.61 47.94 34.85 44.45 38.25 41.12 C 33.14 36.02 28.05 30.91 22.93 25.82 C 19.59 29.22 16.08 32.46 12.79 35.91 Z" />
</g>
</svg>
