<?xml version="1.0" encoding="UTF-8" ?>
<!DOCTYPE svg PUBLIC "-//W3C//DTD SVG 1.1//EN" "http://www.w3.org/Graphics/SVG/1.1/DTD/svg11.dtd">
<svg width="60pt" height="60pt" viewBox="0 0 60 60" version="1.1" xmlns="http://www.w3.org/2000/svg">
<g id="#ffffffff">
<path fill="#ffffff" opacity="1.00" d=" M 0.00 0.00 L 60.00 0.00 L 60.00 37.36 C 59.74 32.62 56.49 28.32 52.04 26.69 C 52.36 19.04 46.63 11.63 39.05 10.30 C 32.19 8.84 24.93 12.56 21.71 18.70 C 15.88 16.19 8.90 20.46 8.07 26.63 C 3.61 28.23 0.32 32.49 0.00 37.23 L 0.00 0.00 Z" />
<path fill="#ffffff" opacity="1.00" d=" M 27.59 22.74 C 29.19 22.72 30.80 22.72 32.41 22.74 C 32.30 27.05 32.17 31.35 32.01 35.66 C 30.67 35.68 29.33 35.68 27.99 35.66 C 27.82 31.35 27.71 27.05 27.59 22.74 Z" />
<path fill="#ffffff" opacity="1.00" d=" M 0.00 38.40 C 0.13 44.64 5.70 50.04 11.93 49.98 C 24.00 50.01 36.06 50.02 48.13 49.98 C 54.31 50.04 59.73 44.71 60.00 38.57 L 60.00 60.00 L 0.00 60.00 L 0.00 38.40 Z" />
<path fill="#ffffff" opacity="1.00" d=" M 28.14 40.18 C 30.16 38.45 33.73 40.61 32.37 43.17 C 30.56 46.36 25.30 42.86 28.14 40.18 Z" />
</g>
<g id="#000000ff">
<path fill="#000000" opacity="1.00" d=" M 21.71 18.70 C 24.93 12.56 32.19 8.84 39.05 10.30 C 46.63 11.63 52.36 19.04 52.04 26.69 C 56.49 28.32 59.74 32.62 60.00 37.36 L 60.00 38.57 C 59.73 44.71 54.31 50.04 48.13 49.98 C 36.06 50.02 24.00 50.01 11.93 49.98 C 5.70 50.04 0.13 44.64 0.00 38.40 L 0.00 37.23 C 0.32 32.49 3.61 28.23 8.07 26.63 C 8.90 20.46 15.88 16.19 21.71 18.70 M 27.59 22.74 C 27.71 27.05 27.82 31.35 27.99 35.66 C 29.33 35.68 30.67 35.68 32.01 35.66 C 32.17 31.35 32.30 27.05 32.41 22.74 C 30.80 22.72 29.19 22.72 27.59 22.74 M 28.14 40.18 C 25.30 42.86 30.56 46.36 32.37 43.17 C 33.73 40.61 30.16 38.45 28.14 40.18 Z" />
</g>
</svg>
