<?xml version="1.0" encoding="UTF-8" ?>
<!DOCTYPE svg PUBLIC "-//W3C//DTD SVG 1.1//EN" "http://www.w3.org/Graphics/SVG/1.1/DTD/svg11.dtd">
<svg width="64pt" height="64pt" viewBox="0 0 64 64" version="1.1" xmlns="http://www.w3.org/2000/svg">
<g id="#ffffffff">
<path fill="#ffffff" opacity="1.00" d=" M 0.00 0.00 L 64.00 0.00 L 64.00 64.00 L 0.00 64.00 L 0.00 0.00 M 8.00 8.00 C 8.00 17.33 8.00 26.67 8.00 36.00 C 13.41 36.00 18.81 36.00 24.22 36.00 C 25.79 33.29 26.98 30.35 28.88 27.83 C 30.81 25.80 33.55 24.89 35.97 23.59 C 36.03 18.39 35.99 13.20 36.00 8.00 C 26.67 8.00 17.33 8.00 8.00 8.00 M 43.40 16.60 C 39.45 18.31 38.83 24.33 42.40 26.77 C 45.70 29.52 51.23 27.31 51.88 23.12 C 52.98 18.55 47.56 14.31 43.40 16.60 M 34.12 28.98 C 30.80 30.39 30.00 34.26 28.25 37.06 C 29.13 37.53 30.88 38.47 31.75 38.95 C 32.74 37.12 33.62 35.23 34.74 33.47 C 36.16 32.10 38.10 31.52 39.87 30.78 C 38.82 33.90 36.86 36.77 36.40 40.06 C 36.92 43.60 41.00 44.49 43.33 46.63 C 42.42 49.17 41.66 51.77 40.91 54.37 C 42.18 54.74 43.46 55.12 44.74 55.50 C 45.51 52.31 47.03 49.26 47.22 45.97 C 46.52 42.68 42.73 41.69 40.38 39.82 C 41.43 37.35 42.51 34.89 43.62 32.44 C 46.21 33.38 46.66 36.65 49.11 37.71 C 51.36 38.25 53.71 37.94 56.00 38.00 C 56.00 36.67 56.00 35.34 56.00 34.02 C 54.14 34.01 52.28 33.98 50.43 33.91 C 48.71 29.51 43.98 28.34 39.95 27.02 C 37.80 26.58 35.96 28.15 34.12 28.98 M 34.21 46.00 C 31.47 45.99 28.73 46.00 26.00 46.00 C 26.00 47.33 26.00 48.66 26.00 50.00 C 29.03 49.95 32.07 50.15 35.10 49.89 C 37.03 49.55 37.87 47.60 38.99 46.24 C 37.90 45.47 36.81 44.70 35.73 43.91 C 35.22 44.61 34.71 45.30 34.21 46.00 Z" />
<path fill="#ffffff" opacity="1.00" d=" M 12.00 12.00 C 13.33 12.00 14.67 12.00 16.00 12.00 C 16.00 13.33 16.00 14.67 16.00 16.00 C 14.67 16.00 13.33 16.00 12.00 16.00 C 12.00 14.67 12.00 13.33 12.00 12.00 Z" />
<path fill="#ffffff" opacity="1.00" d=" M 20.00 12.00 C 21.33 12.00 22.67 12.00 24.00 12.00 C 24.00 14.00 24.00 16.00 24.00 18.00 C 25.33 18.00 26.67 18.00 28.00 18.00 C 28.00 16.00 28.00 14.00 28.00 12.00 C 29.33 12.00 30.67 12.00 32.00 12.00 C 32.00 16.00 32.00 20.00 32.00 24.00 C 30.67 24.00 29.34 24.00 28.01 24.00 C 28.01 23.50 27.99 22.50 27.99 22.00 C 26.66 22.00 25.34 22.00 24.01 22.00 C 24.01 22.50 24.00 23.49 23.99 23.99 C 23.49 24.00 22.50 24.01 22.00 24.01 C 22.00 25.34 22.00 26.66 22.00 27.99 C 22.50 27.99 23.50 28.01 24.00 28.01 C 24.00 29.34 24.00 30.67 24.00 32.00 C 22.67 32.00 21.33 32.00 20.00 32.00 C 20.00 29.33 20.00 26.67 20.00 24.00 C 17.33 24.00 14.67 23.99 12.00 24.00 C 12.00 22.67 12.00 21.33 12.00 20.00 C 13.33 20.00 14.66 20.00 15.99 20.00 C 15.99 20.50 16.01 21.50 16.01 22.00 C 17.34 22.00 18.66 22.00 19.99 22.00 C 19.99 21.50 20.00 20.51 20.01 20.01 C 20.51 20.00 21.50 19.99 22.00 19.99 C 22.00 18.66 22.00 17.34 22.00 16.01 C 21.50 16.01 20.50 15.99 20.00 15.99 C 20.00 14.66 20.00 13.33 20.00 12.00 Z" />
<path fill="#ffffff" opacity="1.00" d=" M 45.13 20.11 C 47.54 19.08 49.20 22.82 46.80 23.87 C 44.39 24.86 42.88 21.24 45.13 20.11 Z" />
<path fill="#ffffff" opacity="1.00" d=" M 12.00 28.00 C 13.33 28.00 14.67 28.00 16.00 28.00 C 16.00 29.33 16.00 30.67 16.00 32.00 C 14.67 32.00 13.33 32.00 12.00 32.00 C 12.00 30.67 12.00 29.33 12.00 28.00 Z" />
</g>
<g id="#000000ff">
<path fill="#000000" opacity="1.00" d=" M 8.00 8.00 C 17.33 8.00 26.67 8.00 36.00 8.00 C 35.99 13.20 36.03 18.39 35.97 23.59 C 33.55 24.89 30.81 25.80 28.88 27.83 C 26.98 30.35 25.79 33.29 24.22 36.00 C 18.81 36.00 13.41 36.00 8.00 36.00 C 8.00 26.67 8.00 17.33 8.00 8.00 M 12.00 12.00 C 12.00 13.33 12.00 14.67 12.00 16.00 C 13.33 16.00 14.67 16.00 16.00 16.00 C 16.00 14.67 16.00 13.33 16.00 12.00 C 14.67 12.00 13.33 12.00 12.00 12.00 M 20.00 12.00 C 20.00 13.33 20.00 14.66 20.00 15.99 C 20.50 15.99 21.50 16.01 22.00 16.01 C 22.00 17.34 22.00 18.66 22.00 19.99 C 21.50 19.99 20.51 20.00 20.01 20.01 C 20.00 20.51 19.99 21.50 19.99 22.00 C 18.66 22.00 17.34 22.00 16.01 22.00 C 16.01 21.50 15.99 20.50 15.99 20.00 C 14.66 20.00 13.33 20.00 12.00 20.00 C 12.00 21.33 12.00 22.67 12.00 24.00 C 14.67 23.99 17.33 24.00 20.00 24.00 C 20.00 26.67 20.00 29.33 20.00 32.00 C 21.33 32.00 22.67 32.00 24.00 32.00 C 24.00 30.67 24.00 29.34 24.00 28.01 C 23.50 28.01 22.50 27.99 22.00 27.99 C 22.00 26.66 22.00 25.34 22.00 24.01 C 22.50 24.01 23.49 24.00 23.99 23.99 C 24.00 23.49 24.01 22.50 24.01 22.00 C 25.34 22.00 26.66 22.00 27.99 22.00 C 27.99 22.50 28.01 23.50 28.01 24.00 C 29.34 24.00 30.67 24.00 32.00 24.00 C 32.00 20.00 32.00 16.00 32.00 12.00 C 30.67 12.00 29.33 12.00 28.00 12.00 C 28.00 14.00 28.00 16.00 28.00 18.00 C 26.67 18.00 25.33 18.00 24.00 18.00 C 24.00 16.00 24.00 14.00 24.00 12.00 C 22.67 12.00 21.33 12.00 20.00 12.00 M 12.00 28.00 C 12.00 29.33 12.00 30.67 12.00 32.00 C 13.33 32.00 14.67 32.00 16.00 32.00 C 16.00 30.67 16.00 29.33 16.00 28.00 C 14.67 28.00 13.33 28.00 12.00 28.00 Z" />
<path fill="#000000" opacity="1.00" d=" M 43.40 16.60 C 47.56 14.31 52.98 18.55 51.88 23.12 C 51.23 27.31 45.70 29.52 42.40 26.77 C 38.83 24.33 39.45 18.31 43.40 16.60 M 45.13 20.11 C 42.88 21.24 44.39 24.86 46.80 23.87 C 49.20 22.82 47.54 19.08 45.13 20.11 Z" />
<path fill="#000000" opacity="1.00" d=" M 34.12 28.98 C 35.96 28.15 37.80 26.58 39.95 27.02 C 43.98 28.34 48.71 29.51 50.43 33.91 C 52.28 33.98 54.14 34.01 56.00 34.02 C 56.00 35.34 56.00 36.67 56.00 38.00 C 53.71 37.94 51.36 38.25 49.11 37.71 C 46.66 36.65 46.21 33.38 43.62 32.44 C 42.51 34.89 41.43 37.35 40.38 39.82 C 42.73 41.69 46.52 42.68 47.22 45.97 C 47.03 49.26 45.51 52.31 44.74 55.50 C 43.46 55.12 42.18 54.74 40.91 54.37 C 41.66 51.77 42.42 49.17 43.33 46.63 C 41.00 44.49 36.92 43.60 36.40 40.06 C 36.86 36.77 38.82 33.90 39.87 30.78 C 38.10 31.52 36.16 32.10 34.74 33.47 C 33.62 35.23 32.74 37.12 31.75 38.95 C 30.88 38.47 29.13 37.53 28.25 37.06 C 30.00 34.26 30.80 30.39 34.12 28.98 Z" />
<path fill="#000000" opacity="1.00" d=" M 34.21 46.00 C 34.71 45.30 35.22 44.61 35.73 43.91 C 36.81 44.70 37.90 45.47 38.99 46.24 C 37.87 47.60 37.03 49.55 35.10 49.89 C 32.07 50.15 29.03 49.95 26.00 50.00 C 26.00 48.66 26.00 47.33 26.00 46.00 C 28.73 46.00 31.47 45.99 34.21 46.00 Z" />
</g>
</svg>
