<?xml version="1.0" encoding="UTF-8" ?>
<!DOCTYPE svg PUBLIC "-//W3C//DTD SVG 1.1//EN" "http://www.w3.org/Graphics/SVG/1.1/DTD/svg11.dtd">
<svg width="60pt" height="60pt" viewBox="0 0 60 60" version="1.1" xmlns="http://www.w3.org/2000/svg">
<g id="#ffffffff">
<path fill="#ffffff" opacity="1.00" d=" M 0.00 0.00 L 60.00 0.00 L 60.00 60.00 L 0.00 60.00 L 0.00 0.00 M 12.13 9.19 C 11.77 16.05 13.08 22.95 15.35 29.41 C 17.57 34.89 20.19 41.36 25.95 43.90 C 29.86 43.93 34.72 45.09 37.55 41.59 C 39.63 39.52 41.17 36.98 42.45 34.35 C 43.93 35.54 45.23 35.50 46.36 34.22 C 49.21 30.89 54.34 30.61 56.81 26.85 C 59.14 23.58 57.81 18.56 54.22 16.81 C 52.17 15.55 49.75 16.16 47.59 16.70 C 47.37 13.99 49.25 10.15 46.83 8.17 C 36.89 7.76 26.92 8.14 16.97 7.98 C 15.37 8.20 13.07 7.41 12.13 9.19 M 15.12 48.20 C 13.24 49.01 13.92 52.13 16.02 51.93 C 25.36 52.04 34.72 52.06 44.06 51.92 C 46.65 52.08 46.55 47.79 43.95 48.06 C 34.35 48.04 24.71 47.78 15.12 48.20 Z" />
<path fill="#ffffff" opacity="1.00" d=" M 48.91 20.86 C 51.24 18.36 55.47 21.75 53.55 24.57 C 51.07 27.24 47.25 28.04 44.35 30.18 C 45.02 26.63 47.63 24.12 48.91 20.86 Z" />
</g>
<g id="#000000ff">
<path fill="#000000" opacity="1.00" d=" M 12.13 9.19 C 13.07 7.41 15.37 8.20 16.97 7.98 C 26.92 8.14 36.89 7.76 46.83 8.17 C 49.25 10.15 47.37 13.99 47.59 16.70 C 49.75 16.16 52.17 15.55 54.22 16.81 C 57.81 18.56 59.14 23.58 56.81 26.85 C 54.34 30.61 49.21 30.89 46.36 34.22 C 45.23 35.50 43.93 35.54 42.45 34.35 C 41.17 36.98 39.63 39.52 37.55 41.59 C 34.72 45.09 29.86 43.93 25.95 43.90 C 20.19 41.36 17.57 34.89 15.35 29.41 C 13.08 22.95 11.77 16.05 12.13 9.19 M 48.91 20.86 C 47.63 24.12 45.02 26.63 44.35 30.18 C 47.25 28.04 51.07 27.24 53.55 24.57 C 55.47 21.75 51.24 18.36 48.91 20.86 Z" />
<path fill="#000000" opacity="1.00" d=" M 15.12 48.20 C 24.71 47.78 34.35 48.04 43.95 48.06 C 46.55 47.79 46.65 52.08 44.06 51.92 C 34.72 52.06 25.36 52.04 16.02 51.93 C 13.92 52.13 13.24 49.01 15.12 48.20 Z" />
</g>
</svg>
