<?xml version="1.0" encoding="UTF-8" ?>
<!DOCTYPE svg PUBLIC "-//W3C//DTD SVG 1.1//EN" "http://www.w3.org/Graphics/SVG/1.1/DTD/svg11.dtd">
<svg width="108pt" height="139pt" viewBox="0 0 108 139" version="1.1" xmlns="http://www.w3.org/2000/svg">
<g id="#fffffff">
<path fill="#ffffff" opacity="1.00" d=" M 0.00 0.00 L 108.00 0.00 L 108.00 139.00 L 0.00 139.00 L 0.00 0.00 M 50.88 27.15 C 50.74 28.77 50.64 30.40 50.50 32.02 C 47.84 34.50 45.15 37.00 43.05 39.98 C 40.67 43.41 39.91 47.62 39.40 51.68 L 38.44 51.27 C 38.29 54.67 37.52 58.00 37.44 61.41 C 36.15 63.41 34.56 65.15 32.52 66.38 C 32.51 65.33 32.48 64.27 32.45 63.22 C 30.69 61.98 31.43 59.68 31.13 57.88 C 29.27 54.13 30.05 49.83 29.03 45.87 C 28.18 42.37 29.22 38.62 27.66 35.27 C 27.10 36.32 26.26 37.37 26.54 38.65 C 27.18 44.19 25.04 49.51 25.12 55.03 C 23.10 57.37 25.61 61.53 22.71 63.10 C 22.42 67.20 23.02 71.36 22.30 75.42 C 20.01 83.36 23.14 91.93 20.14 99.74 C 19.75 99.65 18.96 99.49 18.57 99.41 C 18.12 104.62 18.33 109.85 18.27 115.08 C 41.44 115.18 64.60 115.10 87.76 115.12 C 87.77 110.50 87.73 105.89 87.80 101.27 L 86.79 101.41 C 82.48 93.12 86.22 83.59 83.72 74.91 C 82.52 70.77 84.98 65.67 82.36 62.06 C 82.34 59.63 82.08 57.19 80.78 55.08 C 80.70 48.35 79.03 41.77 78.92 35.02 C 77.50 41.58 76.39 48.25 76.03 54.96 C 74.98 57.14 74.76 59.55 74.74 61.93 C 74.28 62.81 73.82 63.68 73.36 64.56 C 72.53 64.60 71.70 64.65 70.87 64.71 C 70.13 63.56 69.42 62.41 68.68 61.27 C 68.48 57.83 67.97 54.43 67.63 51.01 L 66.54 51.80 C 66.21 48.30 65.75 44.71 64.01 41.60 C 61.90 37.80 58.61 34.89 55.53 31.91 C 55.41 30.24 55.33 28.56 55.20 26.89 C 54.68 25.29 54.38 23.63 54.04 21.98 C 53.63 19.25 53.43 16.50 53.00 13.77 C 52.23 18.22 52.40 22.83 50.88 27.15 Z" />
<path fill="#ffffff" opacity="1.00" d=" M 46.30 53.27 C 47.44 53.28 48.58 53.29 49.72 53.29 C 49.67 53.83 49.56 54.91 49.50 55.45 C 48.44 55.51 47.37 55.57 46.31 55.63 C 46.31 55.04 46.30 53.86 46.30 53.27 Z" />
<path fill="#ffffff" opacity="1.00" d=" M 51.12 53.22 C 52.36 53.24 53.61 53.26 54.86 53.28 C 54.79 53.82 54.64 54.90 54.57 55.45 C 53.78 55.45 52.20 55.47 51.41 55.48 C 51.33 54.91 51.19 53.78 51.12 53.22 Z" />
<path fill="#ffffff" opacity="1.00" d=" M 56.65 53.14 C 59.23 53.46 61.82 53.79 64.42 53.63 C 64.50 54.15 64.65 55.17 64.72 55.69 C 64.10 55.71 62.85 55.76 62.22 55.78 L 62.64 54.33 L 60.24 54.11 L 60.48 55.59 C 59.33 55.55 58.19 55.51 57.04 55.48 C 56.94 54.90 56.75 53.73 56.65 53.14 Z" />
<path fill="#ffffff" opacity="1.00" d=" M 42.41 55.56 C 41.97 53.89 42.54 53.33 44.13 53.87 C 44.61 55.49 44.04 56.06 42.41 55.56 Z" />
<path fill="#ffffff" opacity="1.00" d=" M 51.74 57.69 C 52.62 57.68 53.50 57.67 54.38 57.66 C 54.39 58.56 54.40 59.47 54.42 60.37 C 53.49 60.35 52.57 60.33 51.65 60.31 C 51.68 59.44 51.71 58.57 51.74 57.69 Z" />
<path fill="#ffffff" opacity="1.00" d=" M 57.45 57.46 C 57.94 57.53 58.90 57.68 59.38 57.76 C 59.42 58.65 59.46 59.53 59.49 60.42 C 58.96 60.44 57.89 60.46 57.36 60.47 C 57.39 59.47 57.42 58.46 57.45 57.46 Z" />
<path fill="#ffffff" opacity="1.00" d=" M 42.42 58.44 C 42.93 58.43 43.94 58.42 44.44 58.41 C 44.45 58.97 44.46 60.11 44.46 60.67 C 43.94 60.68 42.91 60.69 42.39 60.70 C 42.40 60.14 42.41 59.01 42.42 58.44 Z" />
<path fill="#ffffff" opacity="1.00" d=" M 57.26 74.52 C 57.62 70.90 56.76 66.95 58.58 63.62 C 58.51 64.62 58.37 66.63 58.30 67.64 L 59.55 67.35 C 59.53 69.73 59.54 72.11 59.63 74.49 C 58.84 74.49 58.05 74.50 57.26 74.52 Z" />
<path fill="#ffffff" opacity="1.00" d=" M 43.36 65.43 C 43.56 65.37 43.98 65.27 44.19 65.21 C 44.44 68.53 44.52 71.87 44.39 75.20 C 43.93 75.27 43.00 75.40 42.54 75.47 C 43.02 72.76 41.47 69.15 43.76 67.09 C 43.66 66.67 43.46 65.84 43.36 65.43 Z" />
<path fill="#ffffff" opacity="1.00" d=" M 62.99 64.73 C 63.63 68.01 63.70 71.37 63.62 74.71 C 63.12 74.65 62.12 74.53 61.62 74.47 C 61.70 72.28 61.61 70.04 62.36 67.94 C 62.51 67.14 62.83 65.53 62.99 64.73 Z" />
<path fill="#ffffff" opacity="1.00" d=" M 47.34 67.11 C 47.83 67.22 48.80 67.45 49.29 67.57 C 49.15 70.27 49.42 72.95 49.70 75.63 C 48.88 75.15 48.07 74.66 47.26 74.16 C 47.26 71.81 47.27 69.46 47.34 67.11 Z" />
<path fill="#ffffff" opacity="1.00" d=" M 51.53 67.40 C 52.51 67.39 53.50 67.38 54.49 67.36 C 54.48 69.47 54.49 71.57 54.55 73.68 C 53.52 73.66 52.49 73.66 51.47 73.66 C 51.53 71.57 51.54 69.49 51.53 67.40 Z" />
<path fill="#ffffff" opacity="1.00" d=" M 34.71 83.40 C 35.04 83.52 35.71 83.76 36.05 83.87 C 36.35 85.70 36.65 87.52 37.00 89.33 C 36.10 89.70 35.21 90.06 34.31 90.43 C 34.34 88.08 34.53 85.74 34.71 83.40 Z" />
<path fill="#ffffff" opacity="1.00" d=" M 41.11 82.83 C 41.30 84.00 41.44 85.17 41.57 86.34 L 42.66 86.23 C 42.63 87.43 42.60 88.63 42.58 89.83 C 41.85 89.81 40.37 89.76 39.63 89.74 C 40.11 87.43 40.58 85.12 41.11 82.83 Z" />
<path fill="#ffffff" opacity="1.00" d=" M 46.85 82.82 C 47.18 84.22 47.85 85.50 48.49 86.79 C 48.54 87.78 48.60 88.78 48.66 89.77 C 47.65 89.74 46.65 89.71 45.65 89.69 C 45.64 88.61 45.62 87.53 45.59 86.45 L 46.61 86.37 C 46.67 85.49 46.79 83.71 46.85 82.82 Z" />
<path fill="#ffffff" opacity="1.00" d=" M 52.66 83.36 C 52.82 83.38 53.12 83.43 53.28 83.45 C 53.10 84.86 53.50 85.99 54.48 86.86 C 54.46 87.97 54.42 89.08 54.39 90.18 C 53.43 90.19 52.48 90.19 51.53 90.20 C 51.49 89.08 51.46 87.96 51.43 86.84 C 52.44 85.96 52.86 84.80 52.66 83.36 Z" />
<path fill="#ffffff" opacity="1.00" d=" M 58.73 82.85 C 59.14 84.27 59.49 85.70 60.13 87.04 C 60.18 88.07 60.21 89.11 60.23 90.15 C 59.27 90.17 58.30 90.20 57.34 90.23 C 57.21 87.68 58.10 85.28 58.73 82.85 Z" />
<path fill="#ffffff" opacity="1.00" d=" M 25.64 92.41 C 25.66 90.31 25.75 88.17 26.72 86.25 C 27.13 86.59 27.95 87.27 28.36 87.61 C 28.37 89.23 28.38 90.85 28.39 92.48 C 27.47 92.45 26.56 92.43 25.64 92.41 Z" />
<path fill="#ffffff" opacity="1.00" d=" M 63.42 85.43 C 66.83 84.47 65.34 88.30 65.90 90.00 C 65.29 89.91 64.08 89.75 63.47 89.67 C 63.41 88.25 63.39 86.84 63.42 85.43 Z" />
<path fill="#ffffff" opacity="1.00" d=" M 69.32 86.12 C 69.91 86.16 71.11 86.24 71.70 86.28 C 71.70 87.14 71.71 88.85 71.71 89.71 C 71.11 89.75 69.90 89.82 69.30 89.86 C 69.31 88.61 69.31 87.37 69.32 86.12 Z" />
<path fill="#ffffff" opacity="1.00" d=" M 77.62 86.81 C 78.10 86.76 79.08 86.65 79.56 86.59 C 79.11 88.68 81.34 93.46 77.40 92.65 C 77.44 90.70 77.51 88.76 77.62 86.81 Z" />
<path fill="#ffffff" opacity="1.00" d=" M 25.76 100.62 C 26.63 100.59 27.50 100.56 28.37 100.54 C 28.35 101.74 28.33 102.95 28.32 104.15 C 27.45 103.84 26.59 103.54 25.72 103.24 C 25.73 102.36 25.74 101.49 25.76 100.62 Z" />
<path fill="#ffffff" opacity="1.00" d=" M 33.73 100.59 C 34.60 100.57 35.46 100.55 36.33 100.53 C 36.32 101.75 36.31 102.96 36.31 104.18 C 35.45 103.86 34.57 103.55 33.70 103.24 C 33.71 102.36 33.72 101.47 33.73 100.59 Z" />
<path fill="#ffffff" opacity="1.00" d=" M 39.58 100.58 C 40.44 100.54 41.31 100.49 42.17 100.44 C 42.17 101.05 42.18 102.26 42.18 102.87 C 41.73 103.51 41.28 104.16 40.83 104.81 C 40.44 103.40 40.02 101.98 39.58 100.58 Z" />
<path fill="#ffffff" opacity="1.00" d=" M 45.70 100.44 C 46.56 100.50 47.43 100.56 48.29 100.62 C 48.25 101.09 48.16 102.01 48.11 102.47 C 47.77 103.15 47.43 103.84 47.09 104.53 C 46.74 104.19 46.03 103.52 45.67 103.19 C 45.68 102.27 45.69 101.36 45.70 100.44 Z" />
<path fill="#ffffff" opacity="1.00" d=" M 51.55 100.51 C 52.44 100.56 53.32 100.62 54.21 100.67 C 54.20 101.48 54.20 102.29 54.21 103.11 C 53.36 103.53 52.48 103.90 51.60 104.24 C 51.58 103.00 51.57 101.75 51.55 100.51 Z" />
<path fill="#ffffff" opacity="1.00" d=" M 57.58 100.53 C 58.45 100.54 59.31 100.55 60.18 100.56 C 60.18 101.45 60.19 102.35 60.19 103.25 C 59.34 103.58 58.50 103.92 57.66 104.27 C 57.64 103.02 57.61 101.77 57.58 100.53 Z" />
<path fill="#ffffff" opacity="1.00" d=" M 69.39 100.49 C 69.94 100.49 71.04 100.49 71.59 100.49 C 71.54 101.72 71.48 102.96 71.43 104.20 C 70.96 104.20 70.03 104.21 69.57 104.22 C 69.51 102.97 69.45 101.73 69.39 100.49 Z" />
<path fill="#ffffff" opacity="1.00" d=" M 77.46 100.46 C 78.37 100.55 79.27 100.63 80.18 100.72 C 80.16 101.50 80.15 102.27 80.13 103.05 C 79.30 103.54 78.41 103.93 77.52 104.29 C 77.50 103.01 77.48 101.73 77.46 100.46 Z" />
</g>
<g id="#000000ff">
<path fill="#968176" opacity="1.00" d=" M 50.88 27.15 C 52.40 22.83 52.23 18.22 53.00 13.77 C 53.43 16.50 53.63 19.25 54.04 21.98 C 54.38 23.63 54.68 25.29 55.20 26.89 C 55.33 28.56 55.41 30.24 55.53 31.91 C 58.61 34.89 61.90 37.80 64.01 41.60 C 65.75 44.71 66.21 48.30 66.54 51.80 L 67.63 51.01 C 67.97 54.43 68.48 57.83 68.68 61.27 C 69.42 62.41 70.13 63.56 70.87 64.71 C 71.70 64.65 72.53 64.60 73.36 64.56 C 73.82 63.68 74.28 62.81 74.74 61.93 C 74.76 59.55 74.98 57.14 76.03 54.96 C 76.39 48.25 77.50 41.58 78.92 35.02 C 79.03 41.77 80.70 48.35 80.78 55.08 C 82.08 57.19 82.34 59.63 82.36 62.06 C 84.98 65.67 82.52 70.77 83.72 74.91 C 86.22 83.59 82.48 93.12 86.79 101.41 L 87.80 101.27 C 87.73 105.89 87.77 110.50 87.76 115.12 C 64.60 115.10 41.44 115.18 18.27 115.08 C 18.33 109.85 18.12 104.62 18.57 99.41 C 18.96 99.49 19.75 99.65 20.14 99.74 C 23.14 91.93 20.01 83.36 22.30 75.42 C 23.02 71.36 22.42 67.20 22.71 63.10 C 25.61 61.53 23.10 57.37 25.12 55.03 C 25.04 49.51 27.18 44.19 26.54 38.65 C 26.26 37.37 27.10 36.32 27.66 35.27 C 29.22 38.62 28.18 42.37 29.03 45.87 C 30.05 49.83 29.27 54.13 31.13 57.88 C 31.43 59.68 30.69 61.98 32.45 63.22 C 32.48 64.27 32.51 65.33 32.52 66.38 C 34.56 65.15 36.15 63.41 37.44 61.41 C 37.52 58.00 38.29 54.67 38.44 51.27 L 39.40 51.68 C 39.91 47.62 40.67 43.41 43.05 39.98 C 45.15 37.00 47.84 34.50 50.50 32.02 C 50.64 30.40 50.74 28.77 50.88 27.15 M 46.30 53.27 C 46.30 53.86 46.31 55.04 46.31 55.63 C 47.37 55.57 48.44 55.51 49.50 55.45 C 49.56 54.91 49.67 53.83 49.72 53.29 C 48.58 53.29 47.44 53.28 46.30 53.27 M 51.12 53.22 C 51.19 53.78 51.33 54.91 51.41 55.48 C 52.20 55.47 53.78 55.45 54.57 55.45 C 54.64 54.90 54.79 53.82 54.86 53.28 C 53.61 53.26 52.36 53.24 51.12 53.22 M 56.65 53.14 C 56.75 53.73 56.94 54.90 57.04 55.48 C 58.19 55.51 59.33 55.55 60.48 55.59 L 60.24 54.11 L 62.64 54.33 L 62.22 55.78 C 62.85 55.76 64.10 55.71 64.72 55.69 C 64.65 55.17 64.50 54.15 64.42 53.63 C 61.82 53.79 59.23 53.46 56.65 53.14 M 42.41 55.56 C 44.04 56.06 44.61 55.49 44.13 53.87 C 42.54 53.33 41.97 53.89 42.41 55.56 M 51.74 57.69 C 51.71 58.57 51.68 59.44 51.65 60.31 C 52.57 60.33 53.49 60.35 54.42 60.37 C 54.40 59.47 54.39 58.56 54.38 57.66 C 53.50 57.67 52.62 57.68 51.74 57.69 M 57.45 57.46 C 57.42 58.46 57.39 59.47 57.36 60.47 C 57.89 60.46 58.96 60.44 59.49 60.42 C 59.46 59.53 59.42 58.65 59.38 57.76 C 58.90 57.68 57.94 57.53 57.45 57.46 M 42.42 58.44 C 42.41 59.01 42.40 60.14 42.39 60.70 C 42.91 60.69 43.94 60.68 44.46 60.67 C 44.46 60.11 44.45 58.97 44.44 58.41 C 43.94 58.42 42.93 58.43 42.42 58.44 M 57.26 74.52 C 58.05 74.50 58.84 74.49 59.63 74.49 C 59.54 72.11 59.53 69.73 59.55 67.35 L 58.30 67.64 C 58.37 66.63 58.51 64.62 58.58 63.62 C 56.76 66.95 57.62 70.90 57.26 74.52 M 43.36 65.43 C 43.46 65.84 43.66 66.67 43.76 67.09 C 41.47 69.15 43.02 72.76 42.54 75.47 C 43.00 75.40 43.93 75.27 44.39 75.20 C 44.52 71.87 44.44 68.53 44.19 65.21 C 43.98 65.27 43.56 65.37 43.36 65.43 M 62.99 64.73 C 62.83 65.53 62.51 67.14 62.36 67.94 C 61.61 70.04 61.70 72.28 61.62 74.47 C 62.12 74.53 63.12 74.65 63.62 74.71 C 63.70 71.37 63.63 68.01 62.99 64.73 M 47.34 67.11 C 47.27 69.46 47.26 71.81 47.26 74.16 C 48.07 74.66 48.88 75.15 49.70 75.63 C 49.42 72.95 49.15 70.27 49.29 67.57 C 48.80 67.45 47.83 67.22 47.34 67.11 M 51.53 67.40 C 51.54 69.49 51.53 71.57 51.47 73.66 C 52.49 73.66 53.52 73.66 54.55 73.68 C 54.49 71.57 54.48 69.47 54.49 67.36 C 53.50 67.38 52.51 67.39 51.53 67.40 M 34.71 83.40 C 34.53 85.74 34.34 88.08 34.31 90.43 C 35.21 90.06 36.10 89.70 37.00 89.33 C 36.65 87.52 36.35 85.70 36.05 83.87 C 35.71 83.76 35.04 83.52 34.71 83.40 M 41.11 82.83 C 40.58 85.12 40.11 87.43 39.63 89.74 C 40.37 89.76 41.85 89.81 42.58 89.83 C 42.60 88.63 42.63 87.43 42.66 86.23 L 41.57 86.34 C 41.44 85.17 41.30 84.00 41.11 82.83 M 46.85 82.82 C 46.79 83.71 46.67 85.49 46.61 86.37 L 45.59 86.45 C 45.62 87.53 45.64 88.61 45.65 89.69 C 46.65 89.71 47.65 89.74 48.66 89.77 C 48.60 88.78 48.54 87.78 48.49 86.79 C 47.85 85.50 47.18 84.22 46.85 82.82 M 52.66 83.36 C 52.86 84.80 52.44 85.96 51.43 86.84 C 51.46 87.96 51.49 89.08 51.53 90.20 C 52.48 90.19 53.43 90.19 54.39 90.18 C 54.42 89.08 54.46 87.97 54.48 86.86 C 53.50 85.99 53.10 84.86 53.28 83.45 C 53.12 83.43 52.82 83.38 52.66 83.36 M 58.73 82.85 C 58.10 85.28 57.21 87.68 57.34 90.23 C 58.30 90.20 59.27 90.17 60.23 90.15 C 60.21 89.11 60.18 88.07 60.13 87.04 C 59.49 85.70 59.14 84.27 58.73 82.85 M 25.64 92.41 C 26.56 92.43 27.47 92.45 28.39 92.48 C 28.38 90.85 28.37 89.23 28.36 87.61 C 27.95 87.27 27.13 86.59 26.72 86.25 C 25.75 88.17 25.66 90.31 25.64 92.41 M 63.42 85.43 C 63.39 86.84 63.41 88.25 63.47 89.67 C 64.08 89.75 65.29 89.91 65.90 90.00 C 65.34 88.30 66.83 84.47 63.42 85.43 M 69.32 86.12 C 69.31 87.37 69.31 88.61 69.30 89.86 C 69.90 89.82 71.11 89.75 71.71 89.71 C 71.71 88.85 71.70 87.14 71.70 86.28 C 71.11 86.24 69.91 86.16 69.32 86.12 M 77.62 86.81 C 77.51 88.76 77.44 90.70 77.40 92.65 C 81.34 93.46 79.11 88.68 79.56 86.59 C 79.08 86.65 78.10 86.76 77.62 86.81 M 25.76 100.62 C 25.74 101.49 25.73 102.36 25.72 103.24 C 26.59 103.54 27.45 103.84 28.32 104.15 C 28.33 102.95 28.35 101.74 28.37 100.54 C 27.50 100.56 26.63 100.59 25.76 100.62 M 33.73 100.59 C 33.72 101.47 33.71 102.36 33.70 103.24 C 34.57 103.55 35.45 103.86 36.31 104.18 C 36.31 102.96 36.32 101.75 36.33 100.53 C 35.46 100.55 34.60 100.57 33.73 100.59 M 39.58 100.58 C 40.02 101.98 40.44 103.40 40.83 104.81 C 41.28 104.16 41.73 103.51 42.18 102.87 C 42.18 102.26 42.17 101.05 42.17 100.44 C 41.31 100.49 40.44 100.54 39.58 100.58 M 45.70 100.44 C 45.69 101.36 45.68 102.27 45.67 103.19 C 46.03 103.52 46.74 104.19 47.09 104.53 C 47.43 103.84 47.77 103.15 48.11 102.47 C 48.16 102.01 48.25 101.09 48.29 100.62 C 47.43 100.56 46.56 100.50 45.70 100.44 M 51.55 100.51 C 51.57 101.75 51.58 103.00 51.60 104.24 C 52.48 103.90 53.36 103.53 54.21 103.11 C 54.20 102.29 54.20 101.48 54.21 100.67 C 53.32 100.62 52.44 100.56 51.55 100.51 M 57.58 100.53 C 57.61 101.77 57.64 103.02 57.66 104.27 C 58.50 103.92 59.34 103.58 60.19 103.25 C 60.19 102.35 60.18 101.45 60.18 100.56 C 59.31 100.55 58.45 100.54 57.58 100.53 M 69.39 100.49 C 69.45 101.73 69.51 102.97 69.57 104.22 C 70.03 104.21 70.96 104.20 71.43 104.20 C 71.48 102.96 71.54 101.72 71.59 100.49 C 71.04 100.49 69.94 100.49 69.39 100.49 M 77.46 100.46 C 77.48 101.73 77.50 103.01 77.52 104.29 C 78.41 103.93 79.30 103.54 80.13 103.05 C 80.15 102.27 80.16 101.50 80.18 100.72 C 79.27 100.63 78.37 100.55 77.46 100.46 Z" />
</g>
</svg>
