<?xml version="1.0" encoding="UTF-8" ?>
<!DOCTYPE svg PUBLIC "-//W3C//DTD SVG 1.1//EN" "http://www.w3.org/Graphics/SVG/1.1/DTD/svg11.dtd">
<svg width="60pt" height="60pt" viewBox="0 0 60 60" version="1.1" xmlns="http://www.w3.org/2000/svg">
<g id="#ffffffff">
<path fill="#ffffff" opacity="1.00" d=" M 0.00 0.00 L 60.00 0.00 L 60.00 60.00 L 0.00 60.00 L 0.00 0.00 M 24.49 6.64 C 17.39 8.29 11.18 13.37 8.18 20.02 C 5.19 26.47 5.30 34.26 8.49 40.62 C 11.93 47.69 19.07 52.83 26.89 53.78 C 33.70 54.70 40.87 52.52 45.96 47.90 C 51.28 43.21 54.31 36.06 53.96 28.98 C 53.71 21.85 50.03 14.94 44.29 10.72 C 38.72 6.53 31.27 5.03 24.49 6.64 Z" />
<path fill="#ffffff" opacity="1.00" d=" M 24.30 23.33 C 27.19 20.03 31.88 19.93 35.92 20.09 C 35.94 21.24 35.95 22.39 35.96 23.53 C 32.19 23.15 27.80 23.91 26.34 27.94 C 28.90 28.00 31.45 28.01 34.00 28.00 C 34.00 28.50 34.00 29.51 34.00 30.01 C 31.29 29.91 28.57 30.08 25.86 30.09 C 26.87 33.58 31.35 31.48 34.00 31.98 C 34.00 32.49 34.00 33.49 34.00 33.99 C 31.75 33.98 29.50 33.99 27.26 34.11 C 29.62 36.40 32.89 36.62 36.00 36.48 C 36.00 37.64 36.00 38.80 36.00 39.96 C 30.86 40.43 24.76 39.29 22.47 34.04 C 21.86 34.02 20.62 34.00 20.00 33.98 C 20.00 33.49 20.00 32.50 20.00 32.01 C 20.53 32.01 21.60 31.99 22.13 31.99 C 22.10 31.49 22.04 30.50 22.02 30.01 C 21.51 30.01 20.50 29.99 20.00 29.99 C 20.00 29.55 20.00 28.67 20.00 28.23 C 22.92 28.37 22.67 24.89 24.30 23.33 Z" />
</g>
<g id="#000000ff">
<path fill="#000000" opacity="1.00" d=" M 24.49 6.64 C 31.27 5.03 38.72 6.53 44.29 10.72 C 50.03 14.94 53.71 21.85 53.96 28.98 C 54.31 36.06 51.28 43.21 45.96 47.90 C 40.87 52.52 33.70 54.70 26.89 53.78 C 19.07 52.83 11.93 47.69 8.49 40.62 C 5.30 34.26 5.19 26.47 8.18 20.02 C 11.18 13.37 17.39 8.29 24.49 6.64 M 24.30 23.33 C 22.67 24.89 22.92 28.37 20.00 28.23 C 20.00 28.67 20.00 29.55 20.00 29.99 C 20.50 29.99 21.51 30.01 22.02 30.01 C 22.04 30.50 22.10 31.49 22.13 31.99 C 21.60 31.99 20.53 32.01 20.00 32.01 C 20.00 32.50 20.00 33.49 20.00 33.98 C 20.62 34.00 21.86 34.02 22.47 34.04 C 24.76 39.29 30.86 40.43 36.00 39.96 C 36.00 38.80 36.00 37.64 36.00 36.48 C 32.89 36.62 29.62 36.40 27.26 34.11 C 29.50 33.99 31.75 33.98 34.00 33.99 C 34.00 33.49 34.00 32.49 34.00 31.98 C 31.35 31.48 26.87 33.58 25.86 30.09 C 28.57 30.08 31.29 29.91 34.00 30.01 C 34.00 29.51 34.00 28.50 34.00 28.00 C 31.45 28.01 28.90 28.00 26.34 27.94 C 27.80 23.91 32.19 23.15 35.96 23.53 C 35.95 22.39 35.94 21.24 35.92 20.09 C 31.88 19.93 27.19 20.03 24.30 23.33 Z" />
</g>
</svg>
