<?xml version="1.0" encoding="UTF-8" ?>
<!DOCTYPE svg PUBLIC "-//W3C//DTD SVG 1.1//EN" "http://www.w3.org/Graphics/SVG/1.1/DTD/svg11.dtd">
<svg width="60pt" height="60pt" viewBox="0 0 60 60" version="1.1" xmlns="http://www.w3.org/2000/svg">
<g id="#ffffffff">
<path fill="#ffffff" opacity="1.00" d=" M 0.00 0.00 L 60.00 0.00 L 60.00 24.72 C 59.33 24.70 57.98 24.65 57.31 24.62 C 57.09 24.24 56.64 23.47 56.42 23.09 C 55.29 22.19 53.75 21.55 53.37 20.02 C 52.29 16.95 50.27 14.37 48.38 11.78 C 48.56 10.33 48.74 8.87 48.91 7.42 C 48.13 7.04 46.58 6.28 45.81 5.90 C 44.98 7.67 44.08 9.49 42.21 10.36 C 41.96 11.08 41.45 12.52 41.20 13.24 C 40.66 12.65 39.58 11.47 39.04 10.88 C 39.51 12.82 39.36 14.75 38.67 16.61 C 38.14 17.25 37.62 17.91 37.11 18.57 C 36.02 17.33 34.88 16.13 33.68 14.99 C 35.49 15.41 37.45 15.90 38.58 13.98 C 35.85 12.69 32.89 11.93 29.99 11.10 C 26.08 12.34 24.95 16.66 22.48 19.45 C 21.16 20.98 18.25 21.58 18.45 24.00 C 18.43 25.25 18.48 26.48 18.60 27.72 C 19.90 26.98 21.18 26.22 22.44 25.41 C 22.61 27.27 22.82 29.13 23.02 30.98 C 23.65 30.66 24.91 30.01 25.54 29.69 C 25.97 28.15 26.43 26.62 26.92 25.10 C 26.69 24.58 26.23 23.56 26.00 23.04 C 27.19 20.89 28.21 18.64 29.31 16.44 C 30.90 19.02 28.28 21.62 28.29 24.28 C 30.23 24.40 32.11 23.89 33.95 23.34 L 34.48 24.38 C 33.51 24.72 32.53 25.05 31.55 25.38 C 30.99 26.49 30.39 27.59 29.77 28.67 C 29.70 29.17 29.55 30.17 29.48 30.67 C 27.22 32.21 24.59 33.18 21.82 32.74 C 21.56 31.09 21.26 29.45 20.93 27.82 C 20.20 29.30 19.84 30.90 19.52 32.50 C 18.97 32.69 17.89 33.05 17.34 33.23 C 15.92 34.56 14.31 35.64 12.71 36.73 C 11.01 36.81 9.32 36.99 7.63 37.20 C 8.61 38.46 9.59 39.71 10.57 40.97 C 10.14 41.62 9.28 42.91 8.85 43.56 C 6.68 43.39 4.54 42.97 2.50 42.20 C 1.70 44.54 0.80 46.84 0.00 49.18 L 0.00 0.00 M 5.81 12.05 C 5.38 13.16 4.93 14.25 4.46 15.35 C 5.89 16.73 8.03 16.96 9.60 15.66 C 10.15 13.70 7.37 13.96 6.25 13.35 C 6.27 13.01 6.31 12.32 6.33 11.98 L 5.81 12.05 M 10.30 29.46 C 12.06 31.49 8.64 33.00 8.99 35.24 C 10.91 35.35 12.86 35.40 14.39 34.03 C 13.49 32.30 12.95 30.42 12.38 28.57 C 12.43 27.27 12.42 25.97 12.37 24.68 C 10.28 25.55 9.92 27.39 10.30 29.46 M 4.55 32.49 C 5.41 32.48 7.11 32.45 7.96 32.43 C 8.38 31.62 9.20 29.99 9.61 29.18 C 7.15 27.43 5.61 30.82 4.55 32.49 Z" />
<path fill="#ffffff" opacity="1.00" d=" M 53.11 28.63 C 55.50 28.20 57.82 27.44 60.00 26.36 L 60.00 60.00 L 0.00 60.00 L 0.00 50.48 C 0.72 50.82 2.16 51.50 2.88 51.84 C 4.91 51.71 6.98 51.56 8.87 50.74 C 9.29 48.52 11.23 47.51 13.04 46.54 C 13.22 46.12 13.58 45.27 13.76 44.85 C 14.61 45.11 15.46 45.37 16.31 45.63 C 17.75 44.74 19.29 43.92 21.01 44.90 C 20.04 45.49 19.05 46.04 18.06 46.59 L 17.79 47.48 C 17.21 48.77 17.45 50.48 18.91 51.06 C 19.94 49.86 19.25 46.88 21.47 47.04 C 22.55 48.54 26.53 49.67 24.82 51.79 C 24.00 51.93 22.36 52.21 21.54 52.35 C 22.56 52.92 23.58 53.49 24.60 54.08 C 25.37 52.84 26.08 51.58 26.75 50.29 C 27.09 50.04 27.78 49.55 28.12 49.31 C 25.21 47.90 22.73 45.76 21.43 42.74 C 24.54 42.95 26.63 45.44 28.93 47.21 C 29.01 47.79 29.15 48.96 29.23 49.54 C 30.55 51.01 31.88 52.48 33.22 53.93 C 34.96 52.09 33.74 50.40 32.44 48.83 C 34.46 48.37 36.49 47.97 38.50 47.49 C 38.05 46.87 37.16 45.62 36.71 45.00 C 37.12 43.49 37.47 41.96 38.06 40.51 C 40.55 39.87 43.09 39.28 45.21 37.75 C 45.12 38.42 44.94 39.76 44.85 40.43 C 48.93 42.68 53.28 45.83 58.18 44.46 C 58.09 43.77 57.90 42.38 57.81 41.69 C 55.23 40.48 51.89 38.34 53.79 35.09 C 52.65 34.21 50.88 33.61 51.03 31.83 C 51.65 30.72 52.39 29.68 53.11 28.63 Z" />
</g>
<g id="#000000ff">
<path fill="#000000" opacity="1.00" d=" M 42.21 10.36 C 44.08 9.49 44.98 7.67 45.81 5.90 C 46.58 6.28 48.13 7.04 48.91 7.42 C 48.74 8.87 48.56 10.33 48.38 11.78 C 50.27 14.37 52.29 16.95 53.37 20.02 C 53.75 21.55 55.29 22.19 56.42 23.09 C 56.64 23.47 57.09 24.24 57.31 24.62 C 57.98 24.65 59.33 24.70 60.00 24.72 L 60.00 26.36 C 57.82 27.44 55.50 28.20 53.11 28.63 C 52.39 29.68 51.65 30.72 51.03 31.83 C 50.88 33.61 52.65 34.21 53.79 35.09 C 51.89 38.34 55.23 40.48 57.81 41.69 C 57.90 42.38 58.09 43.77 58.18 44.46 C 53.28 45.83 48.93 42.68 44.85 40.43 C 44.94 39.76 45.12 38.42 45.21 37.75 C 43.09 39.28 40.55 39.87 38.06 40.51 C 37.47 41.96 37.12 43.49 36.71 45.00 C 37.16 45.62 38.05 46.87 38.50 47.49 C 36.49 47.97 34.46 48.37 32.44 48.83 C 33.74 50.40 34.96 52.09 33.22 53.93 C 31.88 52.48 30.55 51.01 29.23 49.54 C 29.15 48.96 29.01 47.79 28.93 47.21 C 26.63 45.44 24.54 42.95 21.43 42.74 C 22.73 45.76 25.21 47.90 28.12 49.31 C 27.78 49.55 27.09 50.04 26.75 50.29 C 26.08 51.58 25.37 52.84 24.60 54.08 C 23.58 53.49 22.56 52.92 21.54 52.35 C 22.36 52.21 24.00 51.93 24.82 51.79 C 26.53 49.67 22.55 48.54 21.47 47.04 C 19.25 46.88 19.94 49.86 18.91 51.06 C 17.45 50.48 17.21 48.77 17.79 47.48 L 18.06 46.59 C 19.05 46.04 20.04 45.49 21.01 44.90 C 19.29 43.92 17.75 44.74 16.31 45.63 C 15.46 45.37 14.61 45.11 13.76 44.85 C 13.58 45.27 13.22 46.12 13.04 46.54 C 11.23 47.51 9.29 48.52 8.87 50.74 C 6.98 51.56 4.91 51.71 2.88 51.84 C 2.16 51.50 0.72 50.82 0.00 50.48 L 0.00 49.18 C 0.80 46.84 1.70 44.54 2.50 42.20 C 4.54 42.97 6.68 43.39 8.85 43.56 C 9.28 42.91 10.14 41.62 10.57 40.97 C 9.59 39.71 8.61 38.46 7.63 37.20 C 9.32 36.99 11.01 36.81 12.71 36.73 C 14.31 35.64 15.92 34.56 17.34 33.23 C 17.89 33.05 18.97 32.69 19.52 32.50 C 19.84 30.90 20.20 29.30 20.93 27.82 C 21.26 29.45 21.56 31.09 21.82 32.74 C 24.59 33.18 27.22 32.21 29.48 30.67 C 29.55 30.17 29.70 29.17 29.77 28.67 C 30.39 27.59 30.99 26.49 31.55 25.38 C 32.53 25.05 33.51 24.72 34.48 24.38 L 33.95 23.34 C 32.11 23.89 30.23 24.40 28.29 24.28 C 28.28 21.62 30.90 19.02 29.31 16.44 C 28.21 18.64 27.19 20.89 26.00 23.04 C 26.23 23.56 26.69 24.58 26.92 25.10 C 26.43 26.62 25.97 28.15 25.54 29.69 C 24.91 30.01 23.65 30.66 23.02 30.98 C 22.82 29.13 22.61 27.27 22.44 25.41 C 21.18 26.22 19.90 26.98 18.60 27.72 C 18.48 26.48 18.43 25.25 18.45 24.00 C 18.25 21.58 21.16 20.98 22.48 19.45 C 24.95 16.66 26.08 12.34 29.99 11.10 C 32.89 11.93 35.85 12.69 38.58 13.98 C 37.45 15.90 35.49 15.41 33.68 14.99 C 34.88 16.13 36.02 17.33 37.11 18.57 C 37.62 17.91 38.14 17.25 38.67 16.61 C 39.36 14.75 39.51 12.82 39.04 10.88 C 39.58 11.47 40.66 12.65 41.20 13.24 C 41.45 12.52 41.96 11.08 42.21 10.36 Z" />
<path fill="#000000" opacity="1.00" d=" M 5.81 12.05 L 6.33 11.98 C 6.31 12.32 6.27 13.01 6.25 13.35 C 7.37 13.96 10.15 13.70 9.60 15.66 C 8.03 16.96 5.89 16.73 4.46 15.35 C 4.93 14.25 5.38 13.16 5.81 12.05 Z" />
<path fill="#000000" opacity="1.00" d=" M 10.30 29.46 C 9.92 27.39 10.28 25.55 12.37 24.68 C 12.42 25.97 12.43 27.27 12.38 28.57 C 12.95 30.42 13.49 32.30 14.39 34.03 C 12.86 35.40 10.91 35.35 8.99 35.24 C 8.64 33.00 12.06 31.49 10.30 29.46 Z" />
<path fill="#000000" opacity="1.00" d=" M 4.55 32.49 C 5.61 30.82 7.15 27.43 9.61 29.18 C 9.20 29.99 8.38 31.62 7.96 32.43 C 7.11 32.45 5.41 32.48 4.55 32.49 Z" />
</g>
</svg>
