<?xml version="1.0" encoding="UTF-8" ?>
<!DOCTYPE svg PUBLIC "-//W3C//DTD SVG 1.1//EN" "http://www.w3.org/Graphics/SVG/1.1/DTD/svg11.dtd">
<svg width="60pt" height="60pt" viewBox="0 0 60 60" version="1.1" xmlns="http://www.w3.org/2000/svg">
<g id="#ffffffff">
<path fill="#ffffff" opacity="1.00" d=" M 0.00 0.00 L 60.00 0.00 L 60.00 60.00 L 0.00 60.00 L 0.00 0.00 M 4.08 22.12 C 4.41 29.75 10.50 36.19 17.84 37.80 C 18.36 35.21 18.97 32.63 19.89 30.14 C 16.89 29.60 14.22 27.85 13.49 24.73 C 14.78 24.70 16.06 24.68 17.34 24.67 C 18.55 26.00 20.20 26.60 21.93 26.93 C 22.64 25.93 23.35 24.93 24.06 23.93 C 21.54 23.02 18.85 22.64 16.39 21.56 C 13.40 19.99 13.50 15.02 16.37 13.38 C 17.89 12.40 20.19 12.20 20.40 10.00 C 20.70 10.00 21.30 10.00 21.60 10.00 C 21.80 12.19 24.06 12.44 25.58 13.39 C 27.13 14.12 27.40 16.08 28.23 17.40 C 26.33 17.40 24.36 17.43 22.89 16.08 C 21.42 14.69 19.03 15.26 18.19 17.07 C 20.41 19.97 24.85 18.95 27.60 21.30 C 30.73 19.47 34.23 18.42 37.80 17.89 C 36.23 10.51 29.75 4.41 22.10 4.07 C 12.25 3.04 3.03 12.27 4.08 22.12 M 42.00 10.00 C 44.00 12.00 46.00 14.00 48.00 16.00 C 48.00 15.00 48.00 13.00 48.00 12.00 C 50.00 12.00 52.00 12.00 54.00 12.00 C 54.00 10.67 54.00 9.33 54.00 8.00 C 52.00 8.00 50.00 8.00 48.00 8.00 C 48.00 7.00 48.00 5.00 48.00 4.00 C 46.00 6.00 44.00 8.00 42.00 10.00 M 34.40 22.63 C 26.17 24.77 20.54 33.71 22.28 42.06 C 23.70 51.01 33.17 57.61 42.07 55.71 C 51.32 54.25 57.95 44.21 55.54 35.13 C 53.65 25.97 43.35 19.84 34.40 22.63 M 12.00 42.00 C 12.00 43.00 12.00 45.00 12.00 46.00 C 10.00 46.00 8.00 46.00 6.00 46.00 C 6.00 47.33 6.00 48.67 6.00 50.00 C 8.00 50.00 10.00 50.00 12.00 50.00 C 12.00 51.00 12.00 53.00 12.00 54.00 C 14.00 52.00 16.00 50.00 18.00 48.00 C 16.00 46.00 14.00 44.00 12.00 42.00 Z" />
<path fill="#ffffff" opacity="1.00" d=" M 31.84 36.37 C 33.41 31.32 38.91 29.74 43.66 30.37 C 43.71 31.50 43.77 32.63 43.82 33.76 C 41.02 33.65 38.19 34.11 36.27 36.34 C 38.47 36.45 40.66 36.48 42.86 36.50 C 42.84 36.98 42.81 37.93 42.79 38.40 C 40.55 38.40 38.30 38.40 36.06 38.41 C 36.06 38.77 36.05 39.49 36.05 39.85 C 38.30 39.86 40.55 39.87 42.80 39.87 C 42.82 40.36 42.85 41.34 42.86 41.83 C 40.71 41.86 38.55 41.88 36.40 41.95 C 38.30 44.15 41.14 44.45 43.87 44.39 C 43.82 45.54 43.77 46.69 43.73 47.84 C 41.24 47.76 38.64 47.91 36.31 46.87 C 33.31 45.80 32.79 41.88 29.59 41.04 C 30.43 40.38 31.29 39.75 32.15 39.11 C 31.23 38.40 30.35 37.64 29.52 36.83 C 30.10 36.72 31.26 36.48 31.84 36.37 Z" />
</g>
<g id="#000000ff">
<path fill="#000000" opacity="1.00" d=" M 4.08 22.12 C 3.03 12.27 12.25 3.04 22.10 4.07 C 29.75 4.41 36.23 10.51 37.80 17.89 C 34.23 18.42 30.73 19.47 27.60 21.30 C 24.85 18.95 20.41 19.97 18.19 17.07 C 19.03 15.26 21.42 14.69 22.89 16.08 C 24.36 17.43 26.33 17.40 28.23 17.40 C 27.40 16.08 27.13 14.12 25.58 13.39 C 24.06 12.44 21.80 12.19 21.60 10.00 C 21.30 10.00 20.70 10.00 20.40 10.00 C 20.19 12.20 17.89 12.40 16.37 13.38 C 13.50 15.02 13.40 19.99 16.39 21.56 C 18.85 22.64 21.54 23.02 24.06 23.93 C 23.35 24.93 22.64 25.93 21.93 26.93 C 20.20 26.60 18.55 26.00 17.34 24.67 C 16.06 24.68 14.78 24.70 13.49 24.73 C 14.22 27.85 16.89 29.60 19.89 30.14 C 18.97 32.63 18.36 35.21 17.84 37.80 C 10.50 36.19 4.41 29.75 4.08 22.12 Z" />
<path fill="#000000" opacity="1.00" d=" M 42.00 10.00 C 44.00 8.00 46.00 6.00 48.00 4.00 C 48.00 5.00 48.00 7.00 48.00 8.00 C 50.00 8.00 52.00 8.00 54.00 8.00 C 54.00 9.33 54.00 10.67 54.00 12.00 C 52.00 12.00 50.00 12.00 48.00 12.00 C 48.00 13.00 48.00 15.00 48.00 16.00 C 46.00 14.00 44.00 12.00 42.00 10.00 Z" />
<path fill="#000000" opacity="1.00" d=" M 34.40 22.63 C 43.35 19.84 53.65 25.97 55.54 35.13 C 57.95 44.21 51.32 54.25 42.07 55.71 C 33.17 57.61 23.70 51.01 22.28 42.06 C 20.54 33.71 26.17 24.77 34.40 22.63 M 31.84 36.37 C 31.26 36.48 30.10 36.72 29.52 36.83 C 30.35 37.64 31.23 38.40 32.15 39.11 C 31.29 39.75 30.43 40.38 29.59 41.04 C 32.79 41.88 33.31 45.80 36.31 46.87 C 38.64 47.91 41.24 47.76 43.73 47.84 C 43.77 46.69 43.82 45.54 43.87 44.39 C 41.14 44.45 38.30 44.15 36.40 41.95 C 38.55 41.88 40.71 41.86 42.86 41.83 C 42.85 41.34 42.82 40.36 42.80 39.87 C 40.55 39.87 38.30 39.86 36.05 39.85 C 36.05 39.49 36.06 38.77 36.06 38.41 C 38.30 38.40 40.55 38.40 42.79 38.40 C 42.81 37.93 42.84 36.98 42.86 36.50 C 40.66 36.48 38.47 36.45 36.27 36.34 C 38.19 34.11 41.02 33.65 43.82 33.76 C 43.77 32.63 43.71 31.50 43.66 30.37 C 38.91 29.74 33.41 31.32 31.84 36.37 Z" />
<path fill="#000000" opacity="1.00" d=" M 12.00 42.00 C 14.00 44.00 16.00 46.00 18.00 48.00 C 16.00 50.00 14.00 52.00 12.00 54.00 C 12.00 53.00 12.00 51.00 12.00 50.00 C 10.00 50.00 8.00 50.00 6.00 50.00 C 6.00 48.67 6.00 47.33 6.00 46.00 C 8.00 46.00 10.00 46.00 12.00 46.00 C 12.00 45.00 12.00 43.00 12.00 42.00 Z" />
</g>
</svg>
