<?xml version="1.0" encoding="UTF-8" ?>
<!DOCTYPE svg PUBLIC "-//W3C//DTD SVG 1.1//EN" "http://www.w3.org/Graphics/SVG/1.1/DTD/svg11.dtd">
<svg width="60pt" height="60pt" viewBox="0 0 60 60" version="1.1" xmlns="http://www.w3.org/2000/svg">
<g id="#ffffffff">
<path fill="#ffffff" opacity="1.00" d=" M 0.00 0.00 L 60.00 0.00 L 60.00 60.00 L 0.00 60.00 L 0.00 0.00 M 11.39 12.37 C 5.92 18.06 4.44 27.10 7.79 34.24 C 11.17 41.93 19.75 46.90 28.11 45.87 C 32.00 45.56 35.53 43.72 38.67 41.51 C 42.17 44.98 45.66 48.46 49.12 51.97 C 50.04 52.65 50.72 54.03 52.02 53.93 C 53.78 54.22 54.67 51.68 53.38 50.62 C 49.54 46.53 45.42 42.70 41.50 38.68 C 43.95 35.27 45.84 31.33 45.96 27.07 C 46.52 18.78 41.28 10.55 33.57 7.50 C 26.10 4.31 16.83 6.36 11.39 12.37 Z" />
<path fill="#ffffff" opacity="1.00" d=" M 21.47 10.64 C 29.39 8.10 38.57 12.90 41.11 20.78 C 44.23 29.04 39.03 39.05 30.53 41.34 C 21.88 44.19 11.80 38.03 10.30 29.08 C 8.54 21.23 13.79 12.79 21.47 10.64 M 19.29 16.22 C 15.70 18.26 15.23 23.75 17.00 27.10 C 18.94 28.11 23.70 28.53 23.56 25.19 C 24.51 21.97 24.27 14.99 19.29 16.22 M 31.16 16.03 C 26.68 17.53 27.97 23.67 28.97 27.19 C 31.23 27.96 35.70 28.62 35.76 25.12 C 36.43 21.77 35.51 16.05 31.16 16.03 M 16.80 31.06 C 17.03 33.03 17.44 36.06 20.09 35.96 C 22.79 36.26 23.18 33.02 23.18 31.04 C 21.05 31.01 18.92 31.02 16.80 31.06 M 28.82 31.04 C 28.82 33.06 29.17 36.15 31.89 36.01 C 34.54 36.00 34.97 33.08 35.21 31.06 C 33.08 31.02 30.95 31.01 28.82 31.04 Z" />
</g>
<g id="#000000ff">
<path fill="#000000" opacity="1.00" d=" M 11.39 12.37 C 16.83 6.36 26.10 4.31 33.57 7.50 C 41.28 10.55 46.52 18.78 45.96 27.07 C 45.84 31.33 43.95 35.27 41.50 38.68 C 45.42 42.70 49.54 46.53 53.38 50.62 C 54.67 51.68 53.78 54.22 52.02 53.93 C 50.72 54.03 50.04 52.65 49.12 51.97 C 45.66 48.46 42.17 44.98 38.67 41.51 C 35.53 43.72 32.00 45.56 28.11 45.87 C 19.75 46.90 11.17 41.93 7.79 34.24 C 4.44 27.10 5.92 18.06 11.39 12.37 M 21.47 10.64 C 13.79 12.79 8.54 21.23 10.30 29.08 C 11.80 38.03 21.88 44.19 30.53 41.34 C 39.03 39.05 44.23 29.04 41.11 20.78 C 38.57 12.90 29.39 8.10 21.47 10.64 Z" />
<path fill="#000000" opacity="1.00" d=" M 19.29 16.22 C 24.27 14.99 24.51 21.97 23.56 25.19 C 23.70 28.53 18.94 28.11 17.00 27.10 C 15.23 23.75 15.70 18.26 19.29 16.22 Z" />
<path fill="#000000" opacity="1.00" d=" M 31.16 16.03 C 35.51 16.05 36.43 21.77 35.76 25.12 C 35.70 28.62 31.23 27.96 28.97 27.19 C 27.97 23.67 26.68 17.53 31.16 16.03 Z" />
<path fill="#000000" opacity="1.00" d=" M 16.80 31.06 C 18.92 31.02 21.05 31.01 23.18 31.04 C 23.18 33.02 22.79 36.26 20.09 35.96 C 17.44 36.06 17.03 33.03 16.80 31.06 Z" />
<path fill="#000000" opacity="1.00" d=" M 28.82 31.04 C 30.95 31.01 33.08 31.02 35.21 31.06 C 34.97 33.08 34.54 36.00 31.89 36.01 C 29.17 36.15 28.82 33.06 28.82 31.04 Z" />
</g>
</svg>
