<?xml version="1.0" encoding="UTF-8" ?>
<!DOCTYPE svg PUBLIC "-//W3C//DTD SVG 1.1//EN" "http://www.w3.org/Graphics/SVG/1.1/DTD/svg11.dtd">
<svg width="64pt" height="64pt" viewBox="0 0 64 64" version="1.1" xmlns="http://www.w3.org/2000/svg">
<g id="#ffffffff">
<path fill="#ffffff" opacity="1.00" d=" M 0.00 0.00 L 64.00 0.00 L 64.00 64.00 L 0.00 64.00 L 0.00 0.00 M 12.00 6.00 C 12.00 23.33 12.00 40.67 12.00 58.00 C 25.33 58.00 38.67 58.00 52.00 58.00 C 52.00 45.05 51.99 32.10 52.01 19.15 C 47.66 14.73 43.27 10.34 38.85 5.99 C 29.90 6.01 20.95 6.00 12.00 6.00 Z" />
<path fill="#ffffff" opacity="1.00" d=" M 16.00 10.00 C 22.67 10.00 29.33 10.00 36.00 10.00 C 36.00 14.00 36.00 18.00 36.00 22.00 C 40.00 22.00 44.00 22.00 48.00 22.00 C 48.00 32.67 48.00 43.33 48.00 54.00 C 37.33 54.00 26.67 54.00 16.00 54.00 C 16.00 39.33 16.00 24.67 16.00 10.00 M 24.41 28.03 C 22.97 33.37 20.48 38.46 19.83 43.99 C 21.22 44.00 22.60 44.00 23.98 44.00 C 23.99 43.50 24.01 42.50 24.02 42.00 C 25.34 42.00 26.66 42.00 27.98 42.00 C 27.99 42.50 28.01 43.50 28.02 44.00 C 29.40 44.00 30.78 44.00 32.16 43.99 C 31.52 38.45 29.03 33.35 27.57 28.01 C 26.52 28.00 25.46 28.01 24.41 28.03 M 38.00 30.00 C 38.00 31.33 38.00 32.67 38.00 34.00 C 36.67 34.00 35.33 34.00 34.00 34.00 C 34.00 35.33 34.00 36.67 34.00 38.00 C 35.33 38.00 36.67 38.00 38.00 38.00 C 38.00 39.33 38.00 40.67 38.00 42.00 C 39.33 42.00 40.67 42.00 42.00 42.00 C 42.00 40.67 42.00 39.33 42.00 38.00 C 43.33 38.00 44.67 38.00 46.00 38.00 C 46.00 36.67 46.00 35.33 46.00 34.00 C 44.67 34.00 43.33 34.00 42.00 34.00 C 42.00 32.67 42.00 31.33 42.00 30.00 C 40.67 30.00 39.33 30.00 38.00 30.00 Z" />
<path fill="#ffffff" opacity="1.00" d=" M 40.01 12.88 C 41.71 14.58 43.42 16.29 45.12 18.00 C 43.41 17.99 41.70 18.00 39.99 18.00 C 40.00 16.29 40.01 14.59 40.01 12.88 Z" />
</g>
<g id="#000000ff">
<path fill="#000000" opacity="1.00" d=" M 12.00 6.00 C 20.95 6.00 29.90 6.01 38.85 5.99 C 43.27 10.34 47.66 14.73 52.01 19.15 C 51.99 32.10 52.00 45.05 52.00 58.00 C 38.67 58.00 25.33 58.00 12.00 58.00 C 12.00 40.67 12.00 23.33 12.00 6.00 M 16.00 10.00 C 16.00 24.67 16.00 39.33 16.00 54.00 C 26.67 54.00 37.33 54.00 48.00 54.00 C 48.00 43.33 48.00 32.67 48.00 22.00 C 44.00 22.00 40.00 22.00 36.00 22.00 C 36.00 18.00 36.00 14.00 36.00 10.00 C 29.33 10.00 22.67 10.00 16.00 10.00 M 40.01 12.88 C 40.01 14.59 40.00 16.29 39.99 18.00 C 41.70 18.00 43.41 17.99 45.12 18.00 C 43.42 16.29 41.71 14.58 40.01 12.88 Z" />
<path fill="#000000" opacity="1.00" d=" M 24.41 28.03 C 25.46 28.01 26.52 28.00 27.57 28.01 C 29.03 33.35 31.52 38.45 32.16 43.99 C 30.78 44.00 29.40 44.00 28.02 44.00 C 28.01 43.50 27.99 42.50 27.98 42.00 C 26.66 42.00 25.34 42.00 24.02 42.00 C 24.01 42.50 23.99 43.50 23.98 44.00 C 22.60 44.00 21.22 44.00 19.83 43.99 C 20.48 38.46 22.97 33.37 24.41 28.03 Z" />
<path fill="#000000" opacity="1.00" d=" M 38.00 30.00 C 39.33 30.00 40.67 30.00 42.00 30.00 C 42.00 31.33 42.00 32.67 42.00 34.00 C 43.33 34.00 44.67 34.00 46.00 34.00 C 46.00 35.33 46.00 36.67 46.00 38.00 C 44.67 38.00 43.33 38.00 42.00 38.00 C 42.00 39.33 42.00 40.67 42.00 42.00 C 40.67 42.00 39.33 42.00 38.00 42.00 C 38.00 40.67 38.00 39.33 38.00 38.00 C 36.67 38.00 35.33 38.00 34.00 38.00 C 34.00 36.67 34.00 35.33 34.00 34.00 C 35.33 34.00 36.67 34.00 38.00 34.00 C 38.00 32.67 38.00 31.33 38.00 30.00 Z" />
</g>
</svg>
