<?xml version="1.0" encoding="UTF-8" ?>
<!DOCTYPE svg PUBLIC "-//W3C//DTD SVG 1.1//EN" "http://www.w3.org/Graphics/SVG/1.1/DTD/svg11.dtd">
<svg width="60pt" height="60pt" viewBox="0 0 60 60" version="1.1" xmlns="http://www.w3.org/2000/svg">
<g id="#ffffffff">
<path fill="#ffffff" opacity="1.00" d=" M 0.00 0.00 L 60.00 0.00 L 60.00 60.00 L 0.00 60.00 L 0.00 0.00 M 12.36 4.37 C 10.60 5.14 9.81 7.13 10.00 8.95 C 10.03 23.32 9.93 37.70 10.05 52.07 C 9.92 54.63 12.57 56.31 14.92 56.00 C 25.31 55.97 35.69 56.07 46.08 55.95 C 48.13 55.99 49.99 54.13 49.95 52.08 C 50.10 42.07 49.93 32.05 50.03 22.04 C 49.88 20.37 50.42 18.28 48.91 17.08 C 44.55 12.79 40.39 8.27 35.81 4.21 C 28.04 3.95 20.09 3.65 12.36 4.37 Z" />
<path fill="#ffffff" opacity="1.00" d=" M 34.01 7.81 C 38.07 11.87 42.13 15.92 46.18 19.99 C 42.50 19.92 38.81 20.23 35.14 19.83 C 34.90 19.59 34.42 19.12 34.18 18.88 C 33.77 15.21 34.08 11.50 34.01 7.81 Z" />
<path fill="#ffffff" opacity="1.00" d=" M 21.63 25.54 C 22.52 23.47 25.51 23.49 26.37 25.57 C 29.24 30.82 30.26 36.83 31.73 42.58 C 32.24 44.01 31.85 45.98 30.00 46.02 C 27.89 45.94 28.04 43.45 27.38 42.01 C 25.12 42.00 22.85 42.00 20.58 42.04 C 19.98 43.50 20.07 45.97 17.95 46.05 C 16.11 45.92 15.77 43.99 16.28 42.55 C 17.73 36.81 18.76 30.79 21.63 25.54 M 21.50 38.00 C 23.17 38.00 24.83 38.00 26.50 38.00 C 25.74 35.21 24.92 32.44 24.00 29.71 C 23.08 32.44 22.26 35.21 21.50 38.00 Z" />
<path fill="#ffffff" opacity="1.00" d=" M 37.87 31.87 C 38.07 30.51 37.90 27.84 39.96 28.07 C 42.06 27.81 41.95 30.47 42.13 31.87 C 43.49 32.07 46.13 31.89 45.92 33.96 C 46.21 36.06 43.52 35.95 42.13 36.13 C 41.94 37.57 42.10 40.01 40.01 40.00 C 37.91 40.04 38.04 37.58 37.87 36.13 C 36.38 35.95 34.07 36.09 33.95 34.02 C 34.04 31.92 36.36 32.03 37.87 31.87 Z" />
</g>
<g id="#000000ff">
<path fill="#000000" opacity="1.00" d=" M 12.36 4.37 C 20.09 3.65 28.04 3.95 35.81 4.21 C 40.39 8.27 44.55 12.79 48.91 17.08 C 50.42 18.28 49.88 20.37 50.03 22.04 C 49.93 32.05 50.10 42.07 49.95 52.08 C 49.99 54.13 48.13 55.99 46.08 55.95 C 35.69 56.07 25.31 55.97 14.92 56.00 C 12.57 56.31 9.92 54.63 10.05 52.07 C 9.93 37.70 10.03 23.32 10.00 8.95 C 9.81 7.13 10.60 5.14 12.36 4.37 M 34.01 7.81 C 34.08 11.50 33.77 15.21 34.18 18.88 C 34.42 19.12 34.90 19.59 35.14 19.83 C 38.81 20.23 42.50 19.92 46.18 19.99 C 42.13 15.92 38.07 11.87 34.01 7.81 M 21.63 25.54 C 18.76 30.79 17.73 36.81 16.28 42.55 C 15.77 43.99 16.11 45.92 17.95 46.05 C 20.07 45.97 19.98 43.50 20.58 42.04 C 22.85 42.00 25.12 42.00 27.38 42.01 C 28.04 43.45 27.89 45.94 30.00 46.02 C 31.85 45.98 32.24 44.01 31.73 42.58 C 30.26 36.83 29.24 30.82 26.37 25.57 C 25.51 23.49 22.52 23.47 21.63 25.54 M 37.87 31.87 C 36.36 32.03 34.04 31.92 33.95 34.02 C 34.07 36.09 36.38 35.95 37.87 36.13 C 38.04 37.58 37.91 40.04 40.01 40.00 C 42.10 40.01 41.94 37.57 42.13 36.13 C 43.52 35.95 46.21 36.06 45.92 33.96 C 46.13 31.89 43.49 32.07 42.13 31.87 C 41.95 30.47 42.06 27.81 39.96 28.07 C 37.90 27.84 38.07 30.51 37.87 31.87 Z" />
<path fill="#000000" opacity="1.00" d=" M 21.50 38.00 C 22.26 35.21 23.08 32.44 24.00 29.71 C 24.92 32.44 25.74 35.21 26.50 38.00 C 24.83 38.00 23.17 38.00 21.50 38.00 Z" />
</g>
</svg>
