<?xml version="1.0" encoding="UTF-8" ?>
<!DOCTYPE svg PUBLIC "-//W3C//DTD SVG 1.1//EN" "http://www.w3.org/Graphics/SVG/1.1/DTD/svg11.dtd">
<svg width="60pt" height="60pt" viewBox="0 0 60 60" version="1.1" xmlns="http://www.w3.org/2000/svg">
<g id="#ffffffff">
<path fill="#ffffff" opacity="1.00" d=" M 0.00 0.00 L 60.00 0.00 L 60.00 60.00 L 0.00 60.00 L 0.00 0.00 M 24.71 6.00 C 25.00 16.67 25.28 27.33 25.57 38.00 C 28.51 38.00 31.45 38.00 34.39 38.00 C 34.70 27.33 34.99 16.67 35.29 6.00 C 31.76 6.00 28.23 6.00 24.71 6.00 M 27.40 44.50 C 23.79 45.96 23.74 51.96 27.34 53.46 C 30.62 55.13 35.68 53.13 35.32 48.98 C 35.63 44.88 30.68 42.89 27.40 44.50 Z" />
</g>
<g id="#000000ff">
<path fill="#000000" opacity="1.00" d=" M 24.71 6.00 C 28.23 6.00 31.76 6.00 35.29 6.00 C 34.99 16.67 34.70 27.33 34.39 38.00 C 31.45 38.00 28.51 38.00 25.57 38.00 C 25.28 27.33 25.00 16.67 24.71 6.00 Z" />
<path fill="#000000" opacity="1.00" d=" M 27.40 44.50 C 30.68 42.89 35.63 44.88 35.32 48.98 C 35.68 53.13 30.62 55.13 27.34 53.46 C 23.74 51.96 23.79 45.96 27.40 44.50 Z" />
</g>
</svg>
