<?xml version="1.0" encoding="UTF-8" ?>
<!DOCTYPE svg PUBLIC "-//W3C//DTD SVG 1.1//EN" "http://www.w3.org/Graphics/SVG/1.1/DTD/svg11.dtd">
<svg width="64pt" height="64pt" viewBox="0 0 64 64" version="1.1" xmlns="http://www.w3.org/2000/svg">
<g id="#ffffffff">
<path fill="#ffffff" opacity="1.00" d=" M 0.00 0.00 L 64.00 0.00 L 64.00 64.00 L 0.00 64.00 L 0.00 0.00 M 7.99 9.99 C 8.07 13.92 7.86 17.86 8.07 21.78 C 8.55 21.90 9.52 22.12 10.01 22.24 C 9.98 32.83 10.02 43.42 9.99 54.01 C 24.66 53.99 39.34 54.00 54.01 54.01 C 54.04 43.41 53.91 32.81 54.06 22.22 C 54.55 22.11 55.52 21.88 56.00 21.76 C 55.99 17.84 56.00 13.91 56.00 9.99 C 40.00 10.01 24.00 10.00 7.99 9.99 Z" />
<path fill="#ffffff" opacity="1.00" d=" M 12.00 14.00 C 25.33 14.00 38.67 14.00 52.00 14.00 C 52.00 15.33 52.00 16.67 52.00 18.00 C 38.67 18.00 25.33 18.00 12.00 18.00 C 12.00 16.67 12.00 15.33 12.00 14.00 Z" />
<path fill="#ffffff" opacity="1.00" d=" M 13.99 21.99 C 26.00 22.01 38.00 22.00 50.01 21.99 C 49.99 31.33 50.00 40.67 50.01 50.01 C 38.00 49.99 26.00 49.99 13.99 50.01 C 14.01 40.67 14.00 31.33 13.99 21.99 M 32.19 26.38 C 31.30 28.49 30.42 30.61 29.55 32.74 C 27.22 33.16 24.86 33.41 22.51 33.78 C 23.79 35.79 26.08 37.00 27.18 39.09 C 26.92 41.39 26.38 43.65 25.98 45.93 C 28.05 44.77 30.06 43.49 32.21 42.50 C 34.65 43.11 36.69 44.81 38.94 45.92 C 38.44 43.63 37.89 41.35 37.59 39.03 C 38.63 37.04 41.02 36.12 42.04 34.12 C 40.29 32.73 37.46 33.38 35.30 32.83 C 34.54 30.56 33.58 28.35 32.19 26.38 Z" />
</g>
<g id="#000000ff">
<path fill="#000000" opacity="1.00" d=" M 7.99 9.99 C 24.00 10.00 40.00 10.01 56.00 9.99 C 56.00 13.91 55.99 17.84 56.00 21.76 C 55.52 21.88 54.55 22.11 54.06 22.22 C 53.91 32.81 54.04 43.41 54.01 54.01 C 39.34 54.00 24.66 53.99 9.99 54.01 C 10.02 43.42 9.98 32.83 10.01 22.24 C 9.52 22.12 8.55 21.90 8.07 21.78 C 7.86 17.86 8.07 13.92 7.99 9.99 M 12.00 14.00 C 12.00 15.33 12.00 16.67 12.00 18.00 C 25.33 18.00 38.67 18.00 52.00 18.00 C 52.00 16.67 52.00 15.33 52.00 14.00 C 38.67 14.00 25.33 14.00 12.00 14.00 M 13.99 21.99 C 14.00 31.33 14.01 40.67 13.99 50.01 C 26.00 49.99 38.00 49.99 50.01 50.01 C 50.00 40.67 49.99 31.33 50.01 21.99 C 38.00 22.00 26.00 22.01 13.99 21.99 Z" />
<path fill="#000000" opacity="1.00" d=" M 32.19 26.38 C 33.58 28.35 34.54 30.56 35.30 32.83 C 37.46 33.38 40.29 32.73 42.04 34.12 C 41.02 36.12 38.63 37.04 37.59 39.03 C 37.89 41.35 38.44 43.63 38.94 45.92 C 36.69 44.81 34.65 43.11 32.21 42.50 C 30.06 43.49 28.05 44.77 25.98 45.93 C 26.38 43.65 26.92 41.39 27.18 39.09 C 26.08 37.00 23.79 35.79 22.51 33.78 C 24.86 33.41 27.22 33.16 29.55 32.74 C 30.42 30.61 31.30 28.49 32.19 26.38 Z" />
</g>
</svg>
