<?xml version="1.0" encoding="UTF-8" ?>
<!DOCTYPE svg PUBLIC "-//W3C//DTD SVG 1.1//EN" "http://www.w3.org/Graphics/SVG/1.1/DTD/svg11.dtd">
<svg width="60pt" height="60pt" viewBox="0 0 60 60" version="1.1" xmlns="http://www.w3.org/2000/svg">
<g id="#ffffffff">
<path fill="#ffffff" opacity="1.00" d=" M 0.00 0.00 L 60.00 0.00 L 60.00 60.00 L 0.00 60.00 L 0.00 0.00 M 46.45 6.70 C 43.24 8.43 43.24 13.56 46.44 15.29 C 49.56 17.38 54.13 14.70 54.01 11.01 C 54.15 7.30 49.58 4.62 46.45 6.70 M 21.17 10.28 C 19.17 10.81 19.94 14.24 21.96 13.90 C 25.29 13.79 28.58 13.18 31.89 12.82 C 32.87 13.89 33.85 14.94 34.83 16.00 C 31.54 18.89 27.67 21.18 24.73 24.44 C 22.17 29.65 28.39 33.24 30.76 37.17 C 26.87 37.56 22.93 37.55 19.08 38.24 C 17.08 38.90 17.87 42.25 19.98 41.92 C 24.98 42.07 30.00 42.07 35.01 41.93 C 37.09 41.99 38.56 39.48 37.66 37.65 C 36.61 34.80 35.22 32.09 33.99 29.32 C 36.08 27.69 38.15 26.04 40.22 24.39 C 41.16 26.19 41.61 28.40 43.15 29.80 C 46.10 30.18 49.09 30.07 52.05 29.92 C 54.11 30.09 54.78 26.92 52.85 26.24 C 50.44 25.73 47.97 25.68 45.53 25.47 C 44.67 22.33 44.56 18.85 42.95 15.98 C 39.75 13.16 36.29 10.60 32.76 8.22 C 28.87 8.19 24.95 9.34 21.17 10.28 M 10.00 19.99 C 14.63 19.40 20.17 21.58 24.00 18.12 C 20.00 17.93 16.00 18.01 12.00 18.00 C 11.50 18.50 10.50 19.49 10.00 19.99 M 6.00 24.00 C 6.00 24.50 6.00 25.50 6.00 26.00 C 9.95 25.92 13.91 26.20 17.85 25.87 C 18.10 25.42 18.58 24.53 18.82 24.08 C 14.55 23.93 10.27 24.02 6.00 24.00 M 7.97 30.03 C 8.67 30.68 9.37 31.34 10.08 32.00 C 13.31 32.00 16.55 32.05 19.79 31.88 C 19.47 31.50 18.84 30.72 18.52 30.33 C 15.11 29.56 11.47 30.17 7.97 30.03 M 28.01 46.00 C 26.57 47.92 24.91 49.73 23.92 51.95 C 23.96 53.58 26.17 54.81 27.32 53.37 C 29.66 51.09 31.63 48.45 33.79 46.00 C 31.86 46.00 29.93 46.00 28.01 46.00 Z" />
</g>
<g id="#000000ff">
<path fill="#000000" opacity="1.00" d=" M 46.45 6.70 C 49.58 4.62 54.15 7.30 54.01 11.01 C 54.13 14.70 49.56 17.38 46.44 15.29 C 43.24 13.56 43.24 8.43 46.45 6.70 Z" />
<path fill="#000000" opacity="1.00" d=" M 21.17 10.28 C 24.95 9.34 28.87 8.19 32.76 8.22 C 36.29 10.60 39.75 13.16 42.95 15.98 C 44.56 18.85 44.67 22.33 45.53 25.47 C 47.97 25.68 50.44 25.73 52.85 26.24 C 54.78 26.92 54.11 30.09 52.05 29.92 C 49.09 30.07 46.10 30.18 43.15 29.80 C 41.61 28.40 41.16 26.19 40.22 24.39 C 38.15 26.04 36.08 27.69 33.99 29.32 C 35.22 32.09 36.61 34.80 37.66 37.65 C 38.56 39.48 37.09 41.99 35.01 41.93 C 30.00 42.07 24.98 42.07 19.98 41.92 C 17.87 42.25 17.08 38.90 19.08 38.24 C 22.93 37.55 26.87 37.56 30.76 37.17 C 28.39 33.24 22.17 29.65 24.73 24.44 C 27.67 21.18 31.54 18.89 34.83 16.00 C 33.85 14.94 32.87 13.89 31.89 12.82 C 28.58 13.18 25.29 13.79 21.96 13.90 C 19.94 14.24 19.17 10.81 21.17 10.28 Z" />
<path fill="#000000" opacity="1.00" d=" M 10.00 19.99 C 10.50 19.49 11.50 18.50 12.00 18.00 C 16.00 18.01 20.00 17.93 24.00 18.12 C 20.17 21.58 14.63 19.40 10.00 19.99 Z" />
<path fill="#000000" opacity="1.00" d=" M 6.00 24.00 C 10.27 24.02 14.55 23.93 18.82 24.08 C 18.58 24.53 18.10 25.42 17.85 25.87 C 13.91 26.20 9.95 25.92 6.00 26.00 C 6.00 25.50 6.00 24.50 6.00 24.00 Z" />
<path fill="#000000" opacity="1.00" d=" M 7.97 30.03 C 11.47 30.17 15.11 29.56 18.52 30.33 C 18.84 30.72 19.47 31.50 19.79 31.88 C 16.55 32.05 13.31 32.00 10.08 32.00 C 9.37 31.34 8.67 30.68 7.97 30.03 Z" />
<path fill="#000000" opacity="1.00" d=" M 28.01 46.00 C 29.93 46.00 31.86 46.00 33.79 46.00 C 31.63 48.45 29.66 51.09 27.32 53.37 C 26.17 54.81 23.96 53.58 23.92 51.95 C 24.91 49.73 26.57 47.92 28.01 46.00 Z" />
</g>
</svg>
