<?xml version="1.0" encoding="UTF-8" ?>
<!DOCTYPE svg PUBLIC "-//W3C//DTD SVG 1.1//EN" "http://www.w3.org/Graphics/SVG/1.1/DTD/svg11.dtd">
<svg width="64pt" height="64pt" viewBox="0 0 64 64" version="1.1" xmlns="http://www.w3.org/2000/svg">
<g id="#ffffffff">
<path fill="#ffffff" opacity="1.00" d=" M 0.00 0.00 L 64.00 0.00 L 64.00 64.00 L 0.00 64.00 L 0.00 0.00 M 5.59 24.40 C 14.39 33.21 23.20 42.01 32.00 50.82 C 40.83 42.03 49.63 33.22 58.43 24.41 C 57.48 23.47 56.54 22.53 55.60 21.58 C 47.74 29.44 39.89 37.31 32.02 45.16 C 24.15 37.31 16.29 29.44 8.43 21.59 C 7.48 22.52 6.54 23.46 5.59 24.40 Z" />
</g>
<g id="#000000ff">
<path fill="#000000" opacity="1.00" d=" M 5.59 24.40 C 6.54 23.46 7.48 22.52 8.43 21.59 C 16.29 29.44 24.15 37.31 32.02 45.16 C 39.89 37.31 47.74 29.44 55.60 21.58 C 56.54 22.53 57.48 23.47 58.43 24.41 C 49.63 33.22 40.83 42.03 32.00 50.82 C 23.20 42.01 14.39 33.21 5.59 24.40 Z" />
</g>
</svg>
