<?xml version="1.0" encoding="UTF-8" ?>
<!DOCTYPE svg PUBLIC "-//W3C//DTD SVG 1.1//EN" "http://www.w3.org/Graphics/SVG/1.1/DTD/svg11.dtd">
<svg width="64pt" height="64pt" viewBox="0 0 64 64" version="1.1" xmlns="http://www.w3.org/2000/svg">
<g id="#ffffffff">
<path fill="#ffffff" opacity="1.00" d=" M 0.00 0.00 L 64.00 0.00 L 64.00 64.00 L 0.00 64.00 L 0.00 0.00 M 18.50 10.71 C 9.01 13.02 1.81 22.27 2.01 32.05 C 1.88 41.63 8.81 50.71 18.06 53.16 C 22.59 54.62 27.37 53.48 32.02 53.91 C 36.64 53.48 41.40 54.61 45.91 53.17 C 53.20 51.19 59.21 45.17 61.18 37.88 C 62.99 31.54 61.71 24.42 57.80 19.12 C 53.57 13.21 46.26 9.57 38.98 10.08 C 32.16 10.57 25.23 9.38 18.50 10.71 Z" />
<path fill="#ffffff" opacity="1.00" d=" M 19.43 14.58 C 25.00 13.11 31.24 14.48 35.62 18.25 C 40.20 22.06 42.63 28.26 41.85 34.18 C 41.13 40.80 36.37 46.76 30.07 48.93 C 23.89 51.22 16.52 49.71 11.74 45.18 C 7.29 41.13 5.20 34.75 6.28 28.84 C 7.38 22.06 12.77 16.24 19.43 14.58 M 22.23 22.01 C 21.77 24.19 20.18 25.77 18.00 26.23 C 18.01 27.55 18.01 28.86 18.03 30.17 C 19.36 29.80 20.69 29.40 22.02 28.99 C 21.99 31.99 22.00 35.00 22.00 38.00 C 20.67 38.00 19.33 38.00 18.00 38.00 C 18.00 39.33 18.00 40.67 18.00 42.00 C 22.00 42.00 26.00 42.00 30.00 42.00 C 30.00 40.67 30.00 39.33 30.00 38.00 C 28.67 38.00 27.33 38.00 26.00 38.00 C 26.00 32.66 26.00 27.33 26.00 22.00 C 24.74 22.00 23.49 22.00 22.23 22.01 Z" />
<path fill="#ffffff" opacity="1.00" d=" M 38.07 14.99 C 45.34 17.75 50.59 25.22 49.93 33.09 C 49.66 40.24 44.57 46.45 38.04 49.04 C 42.85 44.72 46.11 38.52 45.97 31.96 C 46.09 25.45 42.87 19.27 38.07 14.99 Z" />
<path fill="#ffffff" opacity="1.00" d=" M 46.09 15.02 C 53.34 17.74 58.55 25.19 57.94 33.01 C 57.69 40.19 52.59 46.44 46.04 49.05 C 50.55 44.95 53.77 39.25 53.95 33.07 C 54.40 26.21 51.19 19.51 46.09 15.02 Z" />
</g>
<g id="#000000ff">
<path fill="#000000" opacity="1.00" d=" M 18.50 10.71 C 25.23 9.38 32.16 10.57 38.98 10.08 C 46.26 9.57 53.57 13.21 57.80 19.12 C 61.71 24.42 62.99 31.54 61.18 37.88 C 59.21 45.17 53.20 51.19 45.91 53.17 C 41.40 54.61 36.64 53.48 32.02 53.91 C 27.37 53.48 22.59 54.62 18.06 53.16 C 8.81 50.71 1.88 41.63 2.01 32.05 C 1.81 22.27 9.01 13.02 18.50 10.71 M 19.43 14.58 C 12.77 16.24 7.38 22.06 6.28 28.84 C 5.20 34.75 7.29 41.13 11.74 45.18 C 16.52 49.71 23.89 51.22 30.07 48.93 C 36.37 46.76 41.13 40.80 41.85 34.18 C 42.63 28.26 40.20 22.06 35.62 18.25 C 31.24 14.48 25.00 13.11 19.43 14.58 M 38.07 14.99 C 42.87 19.27 46.09 25.45 45.97 31.96 C 46.11 38.52 42.85 44.72 38.04 49.04 C 44.57 46.45 49.66 40.24 49.93 33.09 C 50.59 25.22 45.34 17.75 38.07 14.99 M 46.09 15.02 C 51.19 19.51 54.40 26.21 53.95 33.07 C 53.77 39.25 50.55 44.95 46.04 49.05 C 52.59 46.44 57.69 40.19 57.94 33.01 C 58.55 25.19 53.34 17.74 46.09 15.02 Z" />
<path fill="#000000" opacity="1.00" d=" M 22.23 22.01 C 23.49 22.00 24.74 22.00 26.00 22.00 C 26.00 27.33 26.00 32.66 26.00 38.00 C 27.33 38.00 28.67 38.00 30.00 38.00 C 30.00 39.33 30.00 40.67 30.00 42.00 C 26.00 42.00 22.00 42.00 18.00 42.00 C 18.00 40.67 18.00 39.33 18.00 38.00 C 19.33 38.00 20.67 38.00 22.00 38.00 C 22.00 35.00 21.99 31.99 22.02 28.99 C 20.69 29.40 19.36 29.80 18.03 30.17 C 18.01 28.86 18.01 27.55 18.00 26.23 C 20.18 25.77 21.77 24.19 22.23 22.01 Z" />
</g>
</svg>
