<?xml version="1.0" encoding="UTF-8" ?>
<!DOCTYPE svg PUBLIC "-//W3C//DTD SVG 1.1//EN" "http://www.w3.org/Graphics/SVG/1.1/DTD/svg11.dtd">
<svg width="60pt" height="60pt" viewBox="0 0 60 60" version="1.1" xmlns="http://www.w3.org/2000/svg">
<g id="#ffffffff">
<path fill="#ffffff" opacity="1.00" d=" M 0.00 0.00 L 60.00 0.00 L 60.00 50.98 C 58.19 49.87 56.03 50.00 53.99 49.85 C 53.98 46.92 54.18 43.97 53.80 41.05 C 52.88 39.69 51.01 39.60 50.21 41.11 C 49.80 44.01 50.02 46.95 50.01 49.87 C 48.02 50.19 45.54 49.48 44.00 51.12 C 44.63 55.04 48.84 57.20 51.36 60.00 L 0.00 60.00 L 0.00 0.00 M 10.00 8.87 C 10.03 23.28 9.93 37.70 10.05 52.11 C 9.95 54.17 11.87 55.97 13.89 55.94 C 23.02 56.10 32.15 55.93 41.28 56.02 C 40.47 54.14 39.45 52.04 40.35 49.98 C 41.10 47.47 43.67 46.36 45.98 45.72 C 45.52 41.99 46.29 37.92 49.99 36.16 C 49.84 30.15 50.34 24.10 49.75 18.12 C 45.33 13.30 40.65 8.66 35.84 4.22 C 28.89 3.70 21.87 4.13 14.89 4.00 C 12.09 3.54 9.54 6.07 10.00 8.87 Z" />
<path fill="#ffffff" opacity="1.00" d=" M 34.01 7.80 C 38.06 11.87 42.13 15.93 46.19 19.99 C 42.49 19.92 38.76 20.23 35.08 19.81 C 34.85 19.58 34.41 19.13 34.19 18.90 C 33.77 15.22 34.08 11.50 34.01 7.80 Z" />
<path fill="#ffffff" opacity="1.00" d=" M 18.98 29.04 C 20.48 27.40 22.85 27.73 24.83 27.71 C 24.48 29.81 22.48 30.08 20.90 30.88 C 18.84 33.85 19.28 40.22 24.12 39.73 C 24.16 40.31 24.25 41.48 24.29 42.06 C 22.11 41.97 19.37 42.12 18.12 39.90 C 16.25 36.63 16.33 31.88 18.98 29.04 Z" />
<path fill="#ffffff" opacity="1.00" d=" M 27.03 31.00 C 27.34 27.77 31.06 27.35 33.62 27.74 C 33.54 28.32 33.39 29.48 33.31 30.05 C 32.52 30.12 30.95 30.24 30.16 30.30 C 28.38 33.29 34.09 34.01 34.10 37.01 C 34.91 40.86 30.20 43.18 27.07 41.54 C 27.00 41.00 26.86 39.93 26.79 39.39 C 28.36 39.17 31.28 40.46 31.61 37.99 C 30.35 35.47 26.29 34.36 27.03 31.00 Z" />
<path fill="#ffffff" opacity="1.00" d=" M 35.05 27.57 C 35.79 27.65 37.28 27.82 38.02 27.90 C 38.86 31.47 39.23 35.13 39.83 38.75 C 40.42 35.14 40.70 31.47 41.59 27.92 C 42.32 27.83 43.79 27.64 44.53 27.55 C 43.52 32.32 42.36 37.05 41.33 41.81 C 40.29 41.84 39.25 41.87 38.21 41.90 C 37.14 37.12 36.04 32.36 35.05 27.57 Z" />
<path fill="#ffffff" opacity="1.00" d=" M 52.59 60.00 C 55.25 57.75 57.71 55.25 60.00 52.63 L 60.00 60.00 L 52.59 60.00 Z" />
</g>
<g id="#000000ff">
<path fill="#968176" opacity="1.00" d=" M 10.00 8.87 C 9.54 6.07 12.09 3.54 14.89 4.00 C 21.87 4.13 28.89 3.70 35.84 4.22 C 40.65 8.66 45.33 13.30 49.75 18.12 C 50.34 24.10 49.84 30.15 49.99 36.16 C 46.29 37.92 45.52 41.99 45.98 45.72 C 43.67 46.36 41.10 47.47 40.35 49.98 C 39.45 52.04 40.47 54.14 41.28 56.02 C 32.15 55.93 23.02 56.10 13.89 55.94 C 11.87 55.97 9.95 54.17 10.05 52.11 C 9.93 37.70 10.03 23.28 10.00 8.87 M 34.01 7.80 C 34.08 11.50 33.77 15.22 34.19 18.90 C 34.41 19.13 34.85 19.58 35.08 19.81 C 38.76 20.23 42.49 19.92 46.19 19.99 C 42.13 15.93 38.06 11.87 34.01 7.80 M 18.98 29.04 C 16.33 31.88 16.25 36.63 18.12 39.90 C 19.37 42.12 22.11 41.97 24.29 42.06 C 24.25 41.48 24.16 40.31 24.12 39.73 C 19.28 40.22 18.84 33.85 20.90 30.88 C 22.48 30.08 24.48 29.81 24.83 27.71 C 22.85 27.73 20.48 27.40 18.98 29.04 M 27.03 31.00 C 26.29 34.36 30.35 35.47 31.61 37.99 C 31.28 40.46 28.36 39.17 26.79 39.39 C 26.86 39.93 27.00 41.00 27.07 41.54 C 30.20 43.18 34.91 40.86 34.10 37.01 C 34.09 34.01 28.38 33.29 30.16 30.30 C 30.95 30.24 32.52 30.12 33.31 30.05 C 33.39 29.48 33.54 28.32 33.62 27.74 C 31.06 27.35 27.34 27.77 27.03 31.00 M 35.05 27.57 C 36.04 32.36 37.14 37.12 38.21 41.90 C 39.25 41.87 40.29 41.84 41.33 41.81 C 42.36 37.05 43.52 32.32 44.53 27.55 C 43.79 27.64 42.32 27.83 41.59 27.92 C 40.70 31.47 40.42 35.14 39.83 38.75 C 39.23 35.13 38.86 31.47 38.02 27.90 C 37.28 27.82 35.79 27.65 35.05 27.57 Z" />
<path fill="#968176" opacity="1.00" d=" M 50.21 41.11 C 51.01 39.60 52.88 39.69 53.80 41.05 C 54.18 43.97 53.98 46.92 53.99 49.85 C 56.03 50.00 58.19 49.87 60.00 50.98 L 60.00 52.63 C 57.71 55.25 55.25 57.75 52.59 60.00 L 51.36 60.00 C 48.84 57.20 44.63 55.04 44.00 51.12 C 45.54 49.48 48.02 50.19 50.01 49.87 C 50.02 46.95 49.80 44.01 50.21 41.11 Z" />
</g>
</svg>
