<?xml version="1.0" encoding="UTF-8" ?>
<!DOCTYPE svg PUBLIC "-//W3C//DTD SVG 1.1//EN" "http://www.w3.org/Graphics/SVG/1.1/DTD/svg11.dtd">
<svg width="64pt" height="64pt" viewBox="0 0 64 64" version="1.1" xmlns="http://www.w3.org/2000/svg">
<g id="#ffffffff">
<path fill="#ffffff" opacity="1.00" d=" M 0.00 0.00 L 64.00 0.00 L 64.00 64.00 L 0.00 64.00 L 0.00 0.00 M 36.00 10.00 C 36.00 11.33 36.00 12.67 36.00 14.00 C 39.71 14.00 43.41 13.99 47.12 14.01 C 38.94 22.19 30.76 30.37 22.57 38.55 C 23.54 39.51 24.50 40.47 25.47 41.43 C 33.65 33.26 41.82 25.08 49.99 16.91 C 50.00 20.61 50.00 24.30 50.00 28.00 C 51.33 28.00 52.67 28.00 54.00 28.00 C 54.00 22.00 54.00 16.00 54.00 10.00 C 48.00 10.00 42.00 10.00 36.00 10.00 M 10.00 18.00 C 10.00 30.00 10.00 42.00 10.00 54.00 C 22.00 54.00 34.00 54.00 46.00 54.00 C 46.00 45.33 46.00 36.67 46.00 28.00 C 44.66 29.33 43.33 30.67 42.00 32.00 C 42.00 38.00 42.00 44.00 42.00 50.00 C 32.67 50.00 23.33 50.00 14.00 50.00 C 14.00 40.67 14.00 31.33 14.00 22.00 C 20.00 22.00 25.99 22.00 31.99 22.00 C 33.33 20.67 34.66 19.34 35.99 18.00 C 27.33 18.00 18.66 18.00 10.00 18.00 Z" />
</g>
<g id="#000000ff">
<path fill="#000000" opacity="1.00" d=" M 36.00 10.00 C 42.00 10.00 48.00 10.00 54.00 10.00 C 54.00 16.00 54.00 22.00 54.00 28.00 C 52.67 28.00 51.33 28.00 50.00 28.00 C 50.00 24.30 50.00 20.61 49.99 16.91 C 41.82 25.08 33.65 33.26 25.47 41.43 C 24.50 40.47 23.54 39.51 22.57 38.55 C 30.76 30.37 38.94 22.19 47.12 14.01 C 43.41 13.99 39.71 14.00 36.00 14.00 C 36.00 12.67 36.00 11.33 36.00 10.00 Z" />
<path fill="#000000" opacity="1.00" d=" M 10.00 18.00 C 18.66 18.00 27.33 18.00 35.99 18.00 C 34.66 19.34 33.33 20.67 31.99 22.00 C 25.99 22.00 20.00 22.00 14.00 22.00 C 14.00 31.33 14.00 40.67 14.00 50.00 C 23.33 50.00 32.67 50.00 42.00 50.00 C 42.00 44.00 42.00 38.00 42.00 32.00 C 43.33 30.67 44.66 29.33 46.00 28.00 C 46.00 36.67 46.00 45.33 46.00 54.00 C 34.00 54.00 22.00 54.00 10.00 54.00 C 10.00 42.00 10.00 30.00 10.00 18.00 Z" />
</g>
</svg>
