<?xml version="1.0" encoding="UTF-8" ?>
<!DOCTYPE svg PUBLIC "-//W3C//DTD SVG 1.1//EN" "http://www.w3.org/Graphics/SVG/1.1/DTD/svg11.dtd">
<svg width="60pt" height="60pt" viewBox="0 0 60 60" version="1.1" xmlns="http://www.w3.org/2000/svg">
<g id="#ffffffff">
<path fill="#ffffff" opacity="1.00" d=" M 0.00 0.00 L 60.00 0.00 L 60.00 60.00 L 0.00 60.00 L 0.00 0.00 M 7.10 14.96 C 0.60 23.01 0.35 35.40 6.21 43.87 C 9.00 47.97 14.08 50.82 19.11 49.78 C 24.13 48.87 27.81 44.75 29.89 40.32 C 31.88 44.58 35.33 48.46 40.04 49.61 C 44.86 50.93 50.06 48.73 53.15 44.98 C 59.61 37.14 59.58 24.71 53.07 16.92 C 49.98 13.23 44.84 11.09 40.07 12.37 C 35.70 13.42 32.40 16.88 30.32 20.72 C 28.43 16.10 24.95 11.69 19.92 10.39 C 15.20 9.05 10.11 11.26 7.10 14.96 Z" />
<path fill="#ffffff" opacity="1.00" d=" M 14.36 14.51 C 18.21 13.00 22.41 15.24 24.55 18.47 C 29.25 25.39 29.16 35.39 24.11 42.10 C 21.81 45.26 17.33 47.08 13.66 45.19 C 7.91 42.19 5.82 35.05 6.06 28.97 C 6.33 23.31 8.75 16.80 14.36 14.51 M 12.76 30.82 C 10.57 34.44 13.13 40.74 17.87 39.91 C 21.47 39.07 22.45 34.84 21.82 31.65 C 19.15 32.94 17.02 30.44 18.51 27.91 C 16.24 27.84 13.74 28.55 12.76 30.82 Z" />
<path fill="#ffffff" opacity="1.00" d=" M 40.32 16.48 C 44.18 15.05 48.44 17.12 50.68 20.35 C 55.46 27.04 55.11 37.29 49.27 43.25 C 46.36 46.34 41.20 46.89 37.84 44.20 C 29.36 37.45 30.01 21.10 40.32 16.48 M 41.33 39.65 C 46.00 41.46 49.04 35.59 47.79 31.66 C 44.99 33.07 43.13 30.34 44.51 27.91 C 37.84 26.76 35.57 37.13 41.33 39.65 Z" />
</g>
<g id="#000000ff">
<path fill="#968176" opacity="1.00" d=" M 7.10 14.96 C 10.11 11.26 15.20 9.05 19.92 10.39 C 24.95 11.69 28.43 16.10 30.32 20.72 C 32.40 16.88 35.70 13.42 40.07 12.37 C 44.84 11.09 49.98 13.23 53.07 16.92 C 59.58 24.71 59.61 37.14 53.15 44.98 C 50.06 48.73 44.86 50.93 40.04 49.61 C 35.33 48.46 31.88 44.58 29.89 40.32 C 27.81 44.75 24.13 48.87 19.11 49.78 C 14.08 50.82 9.00 47.97 6.21 43.87 C 0.35 35.40 0.60 23.01 7.10 14.96 M 14.36 14.51 C 8.75 16.80 6.33 23.31 6.06 28.97 C 5.82 35.05 7.91 42.19 13.66 45.19 C 17.33 47.08 21.81 45.26 24.11 42.10 C 29.16 35.39 29.25 25.39 24.55 18.47 C 22.41 15.24 18.21 13.00 14.36 14.51 M 40.32 16.48 C 30.01 21.10 29.36 37.45 37.84 44.20 C 41.20 46.89 46.36 46.34 49.27 43.25 C 55.11 37.29 55.46 27.04 50.68 20.35 C 48.44 17.12 44.18 15.05 40.32 16.48 Z" />
<path fill="#968176" opacity="1.00" d=" M 12.76 30.82 C 13.74 28.55 16.24 27.84 18.51 27.91 C 17.02 30.44 19.15 32.94 21.82 31.65 C 22.45 34.84 21.47 39.07 17.87 39.91 C 13.13 40.74 10.57 34.44 12.76 30.82 Z" />
<path fill="#968176" opacity="1.00" d=" M 41.33 39.65 C 35.57 37.13 37.84 26.76 44.51 27.91 C 43.13 30.34 44.99 33.07 47.79 31.66 C 49.04 35.59 46.00 41.46 41.33 39.65 Z" />
</g>
</svg>
