<?xml version="1.0" encoding="UTF-8" ?>
<!DOCTYPE svg PUBLIC "-//W3C//DTD SVG 1.1//EN" "http://www.w3.org/Graphics/SVG/1.1/DTD/svg11.dtd">
<svg width="64pt" height="64pt" viewBox="0 0 64 64" version="1.1" xmlns="http://www.w3.org/2000/svg">
<g id="#ffffffff">
<path fill="#ffffff" opacity="1.00" d=" M 0.00 0.00 L 64.00 0.00 L 64.00 64.00 L 0.00 64.00 L 0.00 0.00 M 3.99 11.99 C 4.01 25.33 4.00 38.67 3.99 52.01 C 22.66 51.99 41.34 52.00 60.01 52.01 C 59.99 38.67 59.99 25.33 60.01 11.99 C 41.34 12.01 22.66 12.00 3.99 11.99 Z" />
<path fill="#ffffff" opacity="1.00" d=" M 7.99 15.99 C 24.00 16.00 40.00 16.01 56.01 15.99 C 55.99 26.66 56.00 37.34 56.01 48.01 C 40.00 47.99 24.00 48.00 7.99 48.01 C 8.00 37.34 8.01 26.66 7.99 15.99 M 15.99 23.99 C 16.01 29.33 16.00 34.67 16.00 40.00 C 17.34 40.00 18.67 40.00 20.00 40.00 C 19.99 38.01 20.00 36.02 19.98 34.02 C 21.32 34.01 22.66 33.99 24.00 33.97 C 24.00 32.66 24.00 31.35 24.00 30.03 C 22.67 30.01 21.33 29.99 19.99 29.97 C 19.99 29.48 19.99 28.49 20.00 28.00 C 22.00 28.00 24.00 28.00 26.00 27.99 C 26.00 26.66 26.00 25.33 26.00 24.00 C 22.67 24.01 19.33 24.01 15.99 23.99 M 28.75 26.15 C 28.76 27.46 28.77 28.76 28.76 30.07 C 29.84 29.76 30.93 29.45 32.00 29.13 C 31.99 32.75 32.01 36.38 32.00 40.00 C 33.33 40.00 34.67 40.00 36.00 40.00 C 35.99 34.63 36.01 29.26 35.98 23.89 C 33.30 23.64 30.87 24.55 28.75 26.15 M 38.75 26.15 C 38.76 27.45 38.77 28.76 38.76 30.07 C 39.84 29.76 40.93 29.45 42.00 29.13 C 41.99 32.75 42.01 36.38 42.00 40.00 C 43.33 40.00 44.67 40.00 46.00 40.00 C 45.99 34.63 46.01 29.26 45.98 23.89 C 43.30 23.65 40.87 24.55 38.75 26.15 Z" />
</g>
<g id="#000000ff">
<path fill="#000000" opacity="1.00" d=" M 3.99 11.99 C 22.66 12.00 41.34 12.01 60.01 11.99 C 59.99 25.33 59.99 38.67 60.01 52.01 C 41.34 52.00 22.66 51.99 3.99 52.01 C 4.00 38.67 4.01 25.33 3.99 11.99 M 7.99 15.99 C 8.01 26.66 8.00 37.34 7.99 48.01 C 24.00 48.00 40.00 47.99 56.01 48.01 C 56.00 37.34 55.99 26.66 56.01 15.99 C 40.00 16.01 24.00 16.00 7.99 15.99 Z" />
<path fill="#000000" opacity="1.00" d=" M 15.99 23.99 C 19.33 24.01 22.67 24.01 26.00 24.00 C 26.00 25.33 26.00 26.66 26.00 27.99 C 24.00 28.00 22.00 28.00 20.00 28.00 C 19.99 28.49 19.99 29.48 19.99 29.97 C 21.33 29.99 22.67 30.01 24.00 30.03 C 24.00 31.35 24.00 32.66 24.00 33.97 C 22.66 33.99 21.32 34.01 19.98 34.02 C 20.00 36.02 19.99 38.01 20.00 40.00 C 18.67 40.00 17.34 40.00 16.00 40.00 C 16.00 34.67 16.01 29.33 15.99 23.99 Z" />
<path fill="#000000" opacity="1.00" d=" M 28.75 26.15 C 30.87 24.55 33.30 23.64 35.98 23.89 C 36.01 29.26 35.99 34.63 36.00 40.00 C 34.67 40.00 33.33 40.00 32.00 40.00 C 32.01 36.38 31.99 32.75 32.00 29.13 C 30.93 29.45 29.84 29.76 28.76 30.07 C 28.77 28.76 28.76 27.46 28.75 26.15 Z" />
<path fill="#000000" opacity="1.00" d=" M 38.75 26.15 C 40.87 24.55 43.30 23.65 45.98 23.89 C 46.01 29.26 45.99 34.63 46.00 40.00 C 44.67 40.00 43.33 40.00 42.00 40.00 C 42.01 36.38 41.99 32.75 42.00 29.13 C 40.93 29.45 39.84 29.76 38.76 30.07 C 38.77 28.76 38.76 27.45 38.75 26.15 Z" />
</g>
</svg>
