<?xml version="1.0" encoding="UTF-8" ?>
<!DOCTYPE svg PUBLIC "-//W3C//DTD SVG 1.1//EN" "http://www.w3.org/Graphics/SVG/1.1/DTD/svg11.dtd">
<svg width="64pt" height="64pt" viewBox="0 0 64 64" version="1.1" xmlns="http://www.w3.org/2000/svg">
<g id="#ffffffff">
<path fill="#ffffff" opacity="1.00" d=" M 0.00 0.00 L 64.00 0.00 L 64.00 64.00 L 0.00 64.00 L 0.00 0.00 M 4.01 12.01 C 3.99 25.34 3.99 38.66 4.01 51.99 C 22.67 52.00 41.33 52.01 59.99 51.99 C 60.00 38.66 60.01 25.34 59.99 12.01 C 41.33 11.99 22.67 12.00 4.01 12.01 Z" />
<path fill="#ffffff" opacity="1.00" d=" M 8.01 16.01 C 24.00 15.99 40.00 15.99 55.99 16.01 C 56.01 26.67 56.01 37.33 55.99 47.99 C 40.00 48.01 24.00 48.01 8.01 47.99 C 7.99 37.33 7.99 26.67 8.01 16.01 M 22.00 24.01 C 22.00 29.34 21.98 34.67 22.02 40.00 C 23.34 40.01 24.65 40.01 25.97 40.00 C 25.99 38.03 26.00 36.06 25.99 34.09 C 27.33 34.03 28.67 33.96 30.01 33.90 C 30.01 32.63 30.01 31.37 30.01 30.10 C 28.67 30.03 27.33 29.97 25.99 29.91 C 25.99 29.44 25.99 28.50 25.99 28.03 C 28.00 28.01 30.00 27.99 32.00 27.96 C 32.01 26.65 32.01 25.34 32.00 24.03 C 28.67 23.98 25.34 23.99 22.00 24.01 M 33.82 30.04 C 36.26 30.53 38.22 29.24 40.07 27.85 C 41.37 33.48 32.59 34.31 33.90 39.96 C 37.26 40.03 40.63 40.02 44.00 39.97 C 44.01 38.69 44.01 37.40 44.00 36.12 C 43.25 36.07 41.74 35.97 40.98 35.92 C 44.40 33.26 45.59 27.09 41.37 24.62 C 37.69 22.41 33.46 26.12 33.82 30.04 Z" />
</g>
<g id="#000000ff">
<path fill="#000000" opacity="1.00" d=" M 4.01 12.01 C 22.67 12.00 41.33 11.99 59.99 12.01 C 60.01 25.34 60.00 38.66 59.99 51.99 C 41.33 52.01 22.67 52.00 4.01 51.99 C 3.99 38.66 3.99 25.34 4.01 12.01 M 8.01 16.01 C 7.99 26.67 7.99 37.33 8.01 47.99 C 24.00 48.01 40.00 48.01 55.99 47.99 C 56.01 37.33 56.01 26.67 55.99 16.01 C 40.00 15.99 24.00 15.99 8.01 16.01 Z" />
<path fill="#000000" opacity="1.00" d=" M 22.00 24.01 C 25.34 23.99 28.67 23.98 32.00 24.03 C 32.01 25.34 32.01 26.65 32.00 27.96 C 30.00 27.99 28.00 28.01 25.99 28.03 C 25.99 28.50 25.99 29.44 25.99 29.91 C 27.33 29.97 28.67 30.03 30.01 30.10 C 30.01 31.37 30.01 32.63 30.01 33.90 C 28.67 33.96 27.33 34.03 25.99 34.09 C 26.00 36.06 25.99 38.03 25.97 40.00 C 24.65 40.01 23.34 40.01 22.02 40.00 C 21.98 34.67 22.00 29.34 22.00 24.01 Z" />
<path fill="#000000" opacity="1.00" d=" M 33.82 30.04 C 33.46 26.12 37.69 22.41 41.37 24.62 C 45.59 27.09 44.40 33.26 40.98 35.92 C 41.74 35.97 43.25 36.07 44.00 36.12 C 44.01 37.40 44.01 38.69 44.00 39.97 C 40.63 40.02 37.26 40.03 33.90 39.96 C 32.59 34.31 41.37 33.48 40.07 27.85 C 38.22 29.24 36.26 30.53 33.82 30.04 Z" />
</g>
</svg>
