<?xml version="1.0" encoding="UTF-8" ?>
<!DOCTYPE svg PUBLIC "-//W3C//DTD SVG 1.1//EN" "http://www.w3.org/Graphics/SVG/1.1/DTD/svg11.dtd">
<svg width="64pt" height="64pt" viewBox="0 0 64 64" version="1.1" xmlns="http://www.w3.org/2000/svg">
<g id="#ffffffff">
<path fill="#ffffff" opacity="1.00" d=" M 0.00 0.00 L 64.00 0.00 L 64.00 64.00 L 0.00 64.00 L 0.00 0.00 M 27.99 8.96 C 21.33 10.98 16.16 16.73 14.47 23.43 C 11.73 23.68 8.81 25.10 8.21 28.03 C 7.77 32.69 8.02 37.40 8.06 42.07 C 8.05 46.52 11.30 49.95 14.44 52.68 C 17.25 55.31 21.33 56.56 25.11 55.66 C 29.04 54.82 33.01 56.77 36.93 55.63 C 43.77 53.73 48.76 47.86 51.50 41.54 C 53.34 40.49 55.53 39.34 55.90 37.02 C 56.46 34.86 54.95 33.09 53.83 31.44 C 54.39 26.29 53.50 20.87 50.41 16.61 C 45.66 9.54 36.09 6.20 27.99 8.96 Z" />
<path fill="#ffffff" opacity="1.00" d=" M 18.11 26.36 C 18.79 18.84 25.33 12.43 32.90 12.07 C 39.69 11.42 46.46 15.80 48.86 22.14 C 50.44 25.69 49.91 29.66 49.58 33.40 C 50.70 34.31 52.54 34.99 51.90 36.79 C 51.22 38.05 49.70 37.92 48.50 38.20 C 46.16 45.28 40.15 52.49 32.02 52.07 C 35.50 48.14 39.54 44.75 42.97 40.78 C 44.78 38.62 43.85 35.64 42.43 33.55 C 42.99 31.54 43.45 29.01 41.70 27.42 C 39.74 25.78 39.85 22.75 37.65 21.35 C 36.38 20.37 34.72 20.58 33.23 20.49 C 31.31 18.87 28.57 17.61 26.19 19.10 C 23.18 21.16 21.19 24.38 18.11 26.36 Z" />
<path fill="#ffffff" opacity="1.00" d=" M 15.83 34.80 C 20.28 30.72 24.05 25.79 28.96 22.29 C 29.26 22.71 29.87 23.54 30.18 23.96 C 27.77 27.22 24.54 29.77 21.82 32.75 C 22.30 33.25 23.26 34.25 23.75 34.75 C 27.01 31.55 30.16 28.24 33.45 25.08 C 34.29 23.55 37.22 25.06 35.70 26.58 C 32.59 30.13 29.03 33.27 25.76 36.67 C 26.42 37.34 27.08 38.02 27.74 38.69 C 30.65 35.84 33.43 32.86 36.37 30.04 C 37.24 28.51 40.21 29.92 38.70 31.54 C 35.88 34.73 32.65 37.55 29.69 40.61 C 30.36 41.29 31.02 41.96 31.69 42.63 C 34.18 40.61 35.94 37.28 39.05 36.25 C 39.29 36.69 39.78 37.57 40.02 38.01 C 36.41 42.09 32.39 45.82 28.53 49.67 C 25.53 52.71 20.20 52.73 17.14 49.76 C 14.91 47.69 12.12 45.44 12.07 42.12 C 11.97 37.76 11.86 33.38 12.12 29.03 C 12.34 27.12 15.47 27.21 15.68 29.05 C 15.94 30.95 15.81 32.88 15.83 34.80 Z" />
</g>
<g id="#000000ff">
<path fill="#000000" opacity="1.00" d=" M 27.99 8.96 C 36.09 6.20 45.66 9.54 50.41 16.61 C 53.50 20.87 54.39 26.29 53.83 31.44 C 54.95 33.09 56.46 34.86 55.90 37.02 C 55.53 39.34 53.34 40.49 51.50 41.54 C 48.76 47.86 43.77 53.73 36.93 55.63 C 33.01 56.77 29.04 54.82 25.11 55.66 C 21.33 56.56 17.25 55.31 14.44 52.68 C 11.30 49.95 8.05 46.52 8.06 42.07 C 8.02 37.40 7.77 32.69 8.21 28.03 C 8.81 25.10 11.73 23.68 14.47 23.43 C 16.16 16.73 21.33 10.98 27.99 8.96 M 18.11 26.36 C 21.19 24.38 23.18 21.16 26.19 19.10 C 28.57 17.61 31.31 18.87 33.23 20.49 C 34.72 20.58 36.38 20.37 37.65 21.35 C 39.85 22.75 39.74 25.78 41.70 27.42 C 43.45 29.01 42.99 31.54 42.43 33.55 C 43.85 35.64 44.78 38.62 42.97 40.78 C 39.54 44.75 35.50 48.14 32.02 52.07 C 40.15 52.49 46.16 45.28 48.50 38.20 C 49.70 37.92 51.22 38.05 51.90 36.79 C 52.54 34.99 50.70 34.31 49.58 33.40 C 49.91 29.66 50.44 25.69 48.86 22.14 C 46.46 15.80 39.69 11.42 32.90 12.07 C 25.33 12.43 18.79 18.84 18.11 26.36 M 15.83 34.80 C 15.81 32.88 15.94 30.95 15.68 29.05 C 15.47 27.21 12.34 27.12 12.12 29.03 C 11.86 33.38 11.97 37.76 12.07 42.12 C 12.12 45.44 14.91 47.69 17.14 49.76 C 20.20 52.73 25.53 52.71 28.53 49.67 C 32.39 45.82 36.41 42.09 40.02 38.01 C 39.78 37.57 39.29 36.69 39.05 36.25 C 35.94 37.28 34.18 40.61 31.69 42.63 C 31.02 41.96 30.36 41.29 29.69 40.61 C 32.65 37.55 35.88 34.73 38.70 31.54 C 40.21 29.92 37.24 28.51 36.37 30.04 C 33.43 32.86 30.65 35.84 27.74 38.69 C 27.08 38.02 26.42 37.34 25.76 36.67 C 29.03 33.27 32.59 30.13 35.70 26.58 C 37.22 25.06 34.29 23.55 33.45 25.08 C 30.16 28.24 27.01 31.55 23.75 34.75 C 23.26 34.25 22.30 33.25 21.82 32.75 C 24.54 29.77 27.77 27.22 30.18 23.96 C 29.87 23.54 29.26 22.71 28.96 22.29 C 24.05 25.79 20.28 30.72 15.83 34.80 Z" />
</g>
</svg>
