<?xml version="1.0" encoding="UTF-8" ?>
<!DOCTYPE svg PUBLIC "-//W3C//DTD SVG 1.1//EN" "http://www.w3.org/Graphics/SVG/1.1/DTD/svg11.dtd">
<svg width="60pt" height="60pt" viewBox="0 0 60 60" version="1.1" xmlns="http://www.w3.org/2000/svg">
<g id="#ffffffff">
<path fill="#ffffff" opacity="1.00" d=" M 0.00 0.00 L 60.00 0.00 L 60.00 60.00 L 0.00 60.00 L 0.00 0.00 M 23.76 4.84 C 18.03 6.13 12.69 9.80 10.22 15.23 C 7.39 21.00 8.08 27.60 8.00 33.83 C 6.78 34.22 4.72 33.68 4.20 35.24 C 3.27 36.91 5.35 38.35 6.91 37.98 C 21.96 38.05 37.01 37.96 52.06 38.02 C 53.58 38.03 55.98 38.11 56.03 35.99 C 55.96 33.86 53.47 34.09 51.99 33.83 C 52.04 27.19 52.49 20.08 49.02 14.12 C 47.34 10.65 43.97 8.35 40.19 7.80 C 35.94 3.45 29.28 3.43 23.76 4.84 M 10.37 41.92 C 11.71 43.15 12.99 44.49 13.84 46.12 C 16.98 51.91 23.27 56.08 29.94 55.99 C 34.94 56.07 39.82 53.80 43.21 50.17 C 45.77 47.72 46.72 44.03 49.65 41.91 C 47.74 42.00 45.83 42.02 43.92 42.01 C 41.47 47.47 36.29 52.20 29.99 51.99 C 23.69 52.20 18.52 47.46 16.07 42.01 C 14.17 42.02 12.27 42.01 10.37 41.92 Z" />
<path fill="#ffffff" opacity="1.00" d=" M 35.53 21.52 C 37.67 20.28 38.59 17.88 40.27 16.19 C 44.45 21.12 45.85 27.70 46.05 34.01 C 44.74 34.00 43.43 33.98 42.13 33.95 C 40.54 31.57 37.46 31.57 35.87 33.96 C 31.96 34.03 28.04 34.03 24.13 33.96 C 22.53 31.57 19.45 31.58 17.87 33.96 C 16.52 33.98 15.17 33.98 13.83 33.98 C 14.25 31.47 14.80 28.59 17.26 27.25 C 22.95 24.20 30.12 25.30 35.53 21.52 Z" />
</g>
<g id="#000000ff">
<path fill="#000000" opacity="1.00" d=" M 23.76 4.84 C 29.28 3.43 35.94 3.45 40.19 7.80 C 43.97 8.35 47.34 10.65 49.02 14.12 C 52.49 20.08 52.04 27.19 51.99 33.83 C 53.47 34.09 55.96 33.86 56.03 35.99 C 55.98 38.11 53.58 38.03 52.06 38.02 C 37.01 37.96 21.96 38.05 6.91 37.98 C 5.35 38.35 3.27 36.91 4.20 35.24 C 4.72 33.68 6.78 34.22 8.00 33.83 C 8.08 27.60 7.39 21.00 10.22 15.23 C 12.69 9.80 18.03 6.13 23.76 4.84 M 35.53 21.52 C 30.12 25.30 22.95 24.20 17.26 27.25 C 14.80 28.59 14.25 31.47 13.83 33.98 C 15.17 33.98 16.52 33.98 17.87 33.96 C 19.45 31.58 22.53 31.57 24.13 33.96 C 28.04 34.03 31.96 34.03 35.87 33.96 C 37.46 31.57 40.54 31.57 42.13 33.95 C 43.43 33.98 44.74 34.00 46.05 34.01 C 45.85 27.70 44.45 21.12 40.27 16.19 C 38.59 17.88 37.67 20.28 35.53 21.52 Z" />
<path fill="#000000" opacity="1.00" d=" M 10.37 41.92 C 12.27 42.01 14.17 42.02 16.07 42.01 C 18.52 47.46 23.69 52.20 29.99 51.99 C 36.29 52.20 41.47 47.47 43.92 42.01 C 45.83 42.02 47.74 42.00 49.65 41.91 C 46.72 44.03 45.77 47.72 43.21 50.17 C 39.82 53.80 34.94 56.07 29.94 55.99 C 23.27 56.08 16.98 51.91 13.84 46.12 C 12.99 44.49 11.71 43.15 10.37 41.92 Z" />
</g>
</svg>
