<?xml version="1.0" encoding="UTF-8" ?>
<!DOCTYPE svg PUBLIC "-//W3C//DTD SVG 1.1//EN" "http://www.w3.org/Graphics/SVG/1.1/DTD/svg11.dtd">
<svg width="60pt" height="60pt" viewBox="0 0 60 60" version="1.1" xmlns="http://www.w3.org/2000/svg">
<g id="#ffffffff">
<path fill="#ffffff" opacity="1.00" d=" M 0.00 0.00 L 60.00 0.00 L 60.00 60.00 L 0.00 60.00 L 0.00 0.00 M 14.00 8.00 C 14.00 12.84 13.99 17.68 14.01 22.53 C 16.62 21.23 19.22 19.89 21.88 18.70 C 22.09 15.14 21.98 11.57 22.00 8.00 C 19.33 8.00 16.67 8.00 14.00 8.00 M 28.00 8.00 C 28.00 12.84 27.99 17.68 28.01 22.53 C 30.64 21.22 33.26 19.89 35.92 18.65 C 36.06 15.10 35.99 11.55 36.00 8.00 C 33.33 8.00 30.67 8.00 28.00 8.00 M 42.00 8.00 C 42.00 12.84 41.99 17.68 42.01 22.53 C 44.63 21.22 47.25 19.89 49.91 18.66 C 50.06 15.11 49.99 11.55 50.00 8.00 C 47.33 8.00 44.67 8.00 42.00 8.00 M 8.00 30.02 C 7.99 35.92 8.03 41.82 7.98 47.72 C 6.74 48.43 5.55 49.32 6.12 50.93 C 7.00 52.20 8.62 51.95 9.95 52.02 C 24.00 51.92 38.05 52.13 52.08 51.92 C 54.79 51.82 54.28 48.26 52.03 47.71 C 51.96 39.14 52.02 30.57 52.00 22.00 C 47.34 24.35 42.68 26.69 38.00 29.00 C 38.00 26.66 38.00 24.33 38.00 22.00 C 33.34 24.35 28.68 26.69 24.00 29.00 C 24.00 26.66 24.00 24.33 24.00 22.00 C 18.68 24.70 13.32 27.33 8.00 30.02 Z" />
<path fill="#ffffff" opacity="1.00" d=" M 12.00 34.00 C 13.33 34.00 14.67 34.00 16.00 34.00 C 16.00 35.33 16.00 36.67 16.00 38.00 C 14.67 38.00 13.33 38.00 12.00 38.00 C 12.00 36.67 12.00 35.33 12.00 34.00 Z" />
<path fill="#ffffff" opacity="1.00" d=" M 20.00 34.00 C 21.33 34.00 22.67 34.00 24.00 34.00 C 24.00 35.33 24.00 36.67 24.00 38.00 C 22.67 38.00 21.33 38.00 20.00 38.00 C 20.00 36.67 20.00 35.33 20.00 34.00 Z" />
<path fill="#ffffff" opacity="1.00" d=" M 28.00 34.00 C 29.33 34.00 30.67 34.00 32.00 34.00 C 32.00 35.33 32.00 36.67 32.00 38.00 C 30.67 38.00 29.33 38.00 28.00 38.00 C 28.00 36.67 28.00 35.33 28.00 34.00 Z" />
<path fill="#ffffff" opacity="1.00" d=" M 36.00 34.00 C 37.33 34.00 38.67 34.00 40.00 34.00 C 40.00 35.33 40.00 36.67 40.00 38.00 C 38.67 38.00 37.33 38.00 36.00 38.00 C 36.00 36.67 36.00 35.33 36.00 34.00 Z" />
<path fill="#ffffff" opacity="1.00" d=" M 44.00 34.00 C 45.33 34.00 46.67 34.00 48.00 34.00 C 48.00 35.33 48.00 36.67 48.00 38.00 C 46.67 38.00 45.33 38.00 44.00 38.00 C 44.00 36.67 44.00 35.33 44.00 34.00 Z" />
<path fill="#ffffff" opacity="1.00" d=" M 12.00 42.00 C 13.33 42.00 14.67 42.00 16.00 42.00 C 16.00 43.33 16.00 44.67 16.00 46.00 C 14.67 46.00 13.33 46.00 12.00 46.00 C 12.00 44.67 12.00 43.33 12.00 42.00 Z" />
<path fill="#ffffff" opacity="1.00" d=" M 20.00 42.00 C 21.33 42.00 22.67 42.00 24.00 42.00 C 24.00 43.33 24.00 44.67 24.00 46.00 C 22.67 46.00 21.33 46.00 20.00 46.00 C 20.00 44.67 20.00 43.33 20.00 42.00 Z" />
<path fill="#ffffff" opacity="1.00" d=" M 28.00 42.00 C 29.33 42.00 30.67 42.00 32.00 42.00 C 32.00 43.33 32.00 44.67 32.00 46.00 C 30.67 46.00 29.33 46.00 28.00 46.00 C 28.00 44.67 28.00 43.33 28.00 42.00 Z" />
<path fill="#ffffff" opacity="1.00" d=" M 36.00 42.00 C 37.33 42.00 38.67 42.00 40.00 42.00 C 40.00 43.33 40.00 44.67 40.00 46.00 C 38.67 46.00 37.33 46.00 36.00 46.00 C 36.00 44.67 36.00 43.33 36.00 42.00 Z" />
<path fill="#ffffff" opacity="1.00" d=" M 44.00 42.00 C 45.33 42.00 46.67 42.00 48.00 42.00 C 48.00 43.33 48.00 44.67 48.00 46.00 C 46.67 46.00 45.33 46.00 44.00 46.00 C 44.00 44.67 44.00 43.33 44.00 42.00 Z" />
</g>
<g id="#000000ff">
<path fill="#000000" opacity="1.00" d=" M 14.00 8.00 C 16.67 8.00 19.33 8.00 22.00 8.00 C 21.98 11.57 22.09 15.14 21.88 18.70 C 19.22 19.89 16.62 21.23 14.01 22.53 C 13.99 17.68 14.00 12.84 14.00 8.00 Z" />
<path fill="#000000" opacity="1.00" d=" M 28.00 8.00 C 30.67 8.00 33.33 8.00 36.00 8.00 C 35.99 11.55 36.06 15.10 35.92 18.65 C 33.26 19.89 30.64 21.22 28.01 22.53 C 27.99 17.68 28.00 12.84 28.00 8.00 Z" />
<path fill="#000000" opacity="1.00" d=" M 42.00 8.00 C 44.67 8.00 47.33 8.00 50.00 8.00 C 49.99 11.55 50.06 15.11 49.91 18.66 C 47.25 19.89 44.63 21.22 42.01 22.53 C 41.99 17.68 42.00 12.84 42.00 8.00 Z" />
<path fill="#000000" opacity="1.00" d=" M 8.00 30.02 C 13.32 27.33 18.68 24.70 24.00 22.00 C 24.00 24.33 24.00 26.66 24.00 29.00 C 28.68 26.69 33.34 24.35 38.00 22.00 C 38.00 24.33 38.00 26.66 38.00 29.00 C 42.68 26.69 47.34 24.35 52.00 22.00 C 52.02 30.57 51.96 39.14 52.03 47.71 C 54.28 48.26 54.79 51.82 52.08 51.92 C 38.05 52.13 24.00 51.92 9.95 52.02 C 8.62 51.95 7.00 52.20 6.12 50.93 C 5.55 49.32 6.74 48.43 7.98 47.72 C 8.03 41.82 7.99 35.92 8.00 30.02 M 12.00 34.00 C 12.00 35.33 12.00 36.67 12.00 38.00 C 13.33 38.00 14.67 38.00 16.00 38.00 C 16.00 36.67 16.00 35.33 16.00 34.00 C 14.67 34.00 13.33 34.00 12.00 34.00 M 20.00 34.00 C 20.00 35.33 20.00 36.67 20.00 38.00 C 21.33 38.00 22.67 38.00 24.00 38.00 C 24.00 36.67 24.00 35.33 24.00 34.00 C 22.67 34.00 21.33 34.00 20.00 34.00 M 28.00 34.00 C 28.00 35.33 28.00 36.67 28.00 38.00 C 29.33 38.00 30.67 38.00 32.00 38.00 C 32.00 36.67 32.00 35.33 32.00 34.00 C 30.67 34.00 29.33 34.00 28.00 34.00 M 36.00 34.00 C 36.00 35.33 36.00 36.67 36.00 38.00 C 37.33 38.00 38.67 38.00 40.00 38.00 C 40.00 36.67 40.00 35.33 40.00 34.00 C 38.67 34.00 37.33 34.00 36.00 34.00 M 44.00 34.00 C 44.00 35.33 44.00 36.67 44.00 38.00 C 45.33 38.00 46.67 38.00 48.00 38.00 C 48.00 36.67 48.00 35.33 48.00 34.00 C 46.67 34.00 45.33 34.00 44.00 34.00 M 12.00 42.00 C 12.00 43.33 12.00 44.67 12.00 46.00 C 13.33 46.00 14.67 46.00 16.00 46.00 C 16.00 44.67 16.00 43.33 16.00 42.00 C 14.67 42.00 13.33 42.00 12.00 42.00 M 20.00 42.00 C 20.00 43.33 20.00 44.67 20.00 46.00 C 21.33 46.00 22.67 46.00 24.00 46.00 C 24.00 44.67 24.00 43.33 24.00 42.00 C 22.67 42.00 21.33 42.00 20.00 42.00 M 28.00 42.00 C 28.00 43.33 28.00 44.67 28.00 46.00 C 29.33 46.00 30.67 46.00 32.00 46.00 C 32.00 44.67 32.00 43.33 32.00 42.00 C 30.67 42.00 29.33 42.00 28.00 42.00 M 36.00 42.00 C 36.00 43.33 36.00 44.67 36.00 46.00 C 37.33 46.00 38.67 46.00 40.00 46.00 C 40.00 44.67 40.00 43.33 40.00 42.00 C 38.67 42.00 37.33 42.00 36.00 42.00 M 44.00 42.00 C 44.00 43.33 44.00 44.67 44.00 46.00 C 45.33 46.00 46.67 46.00 48.00 46.00 C 48.00 44.67 48.00 43.33 48.00 42.00 C 46.67 42.00 45.33 42.00 44.00 42.00 Z" />
</g>
</svg>
