<?xml version="1.0" encoding="UTF-8" ?>
<!DOCTYPE svg PUBLIC "-//W3C//DTD SVG 1.1//EN" "http://www.w3.org/Graphics/SVG/1.1/DTD/svg11.dtd">
<svg width="60pt" height="60pt" viewBox="0 0 60 60" version="1.1" xmlns="http://www.w3.org/2000/svg">
<g id="#ffffffff">
<path fill="#ffffff" opacity="1.00" d=" M 0.00 0.00 L 60.00 0.00 L 60.00 60.00 L 0.00 60.00 L 0.00 0.00 M 14.00 8.00 C 14.00 12.84 14.00 17.68 14.00 22.53 C 16.64 21.21 19.27 19.90 21.93 18.63 C 22.04 15.09 21.99 11.54 22.00 8.00 C 19.33 8.00 16.67 8.00 14.00 8.00 M 42.00 8.00 C 42.00 12.84 41.99 17.68 42.01 22.53 C 44.65 21.21 47.29 19.89 49.95 18.61 C 50.03 15.07 50.00 11.54 50.00 8.00 C 47.33 8.00 44.67 8.00 42.00 8.00 M 37.84 22.02 C 36.07 26.75 33.96 31.34 32.00 35.99 C 33.33 36.00 34.66 36.01 35.99 36.01 C 33.34 39.99 30.68 43.98 28.03 47.97 C 28.68 45.31 29.32 42.65 30.00 40.01 C 29.00 40.00 27.01 40.00 26.01 40.00 C 27.33 37.34 28.66 34.67 30.00 32.02 C 28.67 32.01 27.33 32.00 26.00 31.99 C 26.21 30.56 26.41 29.13 26.61 27.70 C 25.96 28.03 24.65 28.67 24.00 29.00 C 23.99 26.66 24.00 24.33 24.00 22.00 C 18.68 24.71 13.31 27.31 8.00 30.02 C 7.99 35.92 8.02 41.83 7.98 47.73 C 5.68 48.20 5.24 51.90 7.95 51.92 C 22.62 52.06 37.31 52.05 51.98 51.92 C 54.74 51.97 54.36 48.20 52.02 47.73 C 51.98 39.15 52.01 30.57 52.00 22.00 C 47.36 24.36 42.68 26.66 38.03 28.99 C 38.01 26.67 37.94 24.35 37.84 22.02 Z" />
<path fill="#ffffff" opacity="1.00" d=" M 12.00 34.00 C 13.33 34.00 14.67 34.00 16.00 34.00 C 16.00 35.33 16.00 36.67 16.00 38.00 C 14.67 38.00 13.33 38.00 12.00 38.00 C 12.00 36.67 12.00 35.33 12.00 34.00 Z" />
<path fill="#ffffff" opacity="1.00" d=" M 44.00 34.00 C 45.33 34.00 46.67 34.00 48.00 34.00 C 48.00 35.33 48.00 36.67 48.00 38.00 C 46.67 38.00 45.33 38.00 44.00 38.00 C 44.00 36.67 44.00 35.33 44.00 34.00 Z" />
<path fill="#ffffff" opacity="1.00" d=" M 12.00 42.00 C 13.33 42.00 14.67 42.00 16.00 42.00 C 16.00 43.33 16.00 44.67 16.00 46.00 C 14.67 46.00 13.33 46.00 12.00 46.00 C 12.00 44.67 12.00 43.33 12.00 42.00 Z" />
<path fill="#ffffff" opacity="1.00" d=" M 44.00 42.00 C 45.33 42.00 46.67 42.00 48.00 42.00 C 48.00 43.33 48.00 44.67 48.00 46.00 C 46.67 46.00 45.33 46.00 44.00 46.00 C 44.00 44.67 44.00 43.33 44.00 42.00 Z" />
</g>
<g id="#000000ff">
<path fill="#000000" opacity="1.00" d=" M 14.00 8.00 C 16.67 8.00 19.33 8.00 22.00 8.00 C 21.99 11.54 22.04 15.09 21.93 18.63 C 19.27 19.90 16.64 21.21 14.00 22.53 C 14.00 17.68 14.00 12.84 14.00 8.00 Z" />
<path fill="#000000" opacity="1.00" d=" M 42.00 8.00 C 44.67 8.00 47.33 8.00 50.00 8.00 C 50.00 11.54 50.03 15.07 49.95 18.61 C 47.29 19.89 44.65 21.21 42.01 22.53 C 41.99 17.68 42.00 12.84 42.00 8.00 Z" />
<path fill="#000000" opacity="1.00" d=" M 37.84 22.02 C 37.94 24.35 38.01 26.67 38.03 28.99 C 42.68 26.66 47.36 24.36 52.00 22.00 C 52.01 30.57 51.98 39.15 52.02 47.73 C 54.36 48.20 54.74 51.97 51.98 51.92 C 37.31 52.05 22.62 52.06 7.95 51.92 C 5.24 51.90 5.68 48.20 7.98 47.73 C 8.02 41.83 7.99 35.92 8.00 30.02 C 13.31 27.31 18.68 24.71 24.00 22.00 C 24.00 24.33 23.99 26.66 24.00 29.00 C 24.65 28.67 25.96 28.03 26.61 27.70 C 26.41 29.13 26.21 30.56 26.00 31.99 C 27.33 32.00 28.67 32.01 30.00 32.02 C 28.66 34.67 27.33 37.34 26.01 40.00 C 27.01 40.00 29.00 40.00 30.00 40.01 C 29.32 42.65 28.68 45.31 28.03 47.97 C 30.68 43.98 33.34 39.99 35.99 36.01 C 34.66 36.01 33.33 36.00 32.00 35.99 C 33.96 31.34 36.07 26.75 37.84 22.02 M 12.00 34.00 C 12.00 35.33 12.00 36.67 12.00 38.00 C 13.33 38.00 14.67 38.00 16.00 38.00 C 16.00 36.67 16.00 35.33 16.00 34.00 C 14.67 34.00 13.33 34.00 12.00 34.00 M 44.00 34.00 C 44.00 35.33 44.00 36.67 44.00 38.00 C 45.33 38.00 46.67 38.00 48.00 38.00 C 48.00 36.67 48.00 35.33 48.00 34.00 C 46.67 34.00 45.33 34.00 44.00 34.00 M 12.00 42.00 C 12.00 43.33 12.00 44.67 12.00 46.00 C 13.33 46.00 14.67 46.00 16.00 46.00 C 16.00 44.67 16.00 43.33 16.00 42.00 C 14.67 42.00 13.33 42.00 12.00 42.00 M 44.00 42.00 C 44.00 43.33 44.00 44.67 44.00 46.00 C 45.33 46.00 46.67 46.00 48.00 46.00 C 48.00 44.67 48.00 43.33 48.00 42.00 C 46.67 42.00 45.33 42.00 44.00 42.00 Z" />
</g>
</svg>
