<?xml version="1.0" encoding="UTF-8" ?>
<!DOCTYPE svg PUBLIC "-//W3C//DTD SVG 1.1//EN" "http://www.w3.org/Graphics/SVG/1.1/DTD/svg11.dtd">
<svg width="60pt" height="60pt" viewBox="0 0 60 60" version="1.1" xmlns="http://www.w3.org/2000/svg">
<g id="#ffffffff">
<path fill="#ffffff" opacity="1.00" d=" M 0.00 0.00 L 60.00 0.00 L 60.00 60.00 L 0.00 60.00 L 0.00 0.00 M 42.00 4.00 C 42.00 8.18 42.00 12.35 42.01 16.53 C 44.65 15.21 47.29 13.89 49.95 12.61 C 50.01 9.74 50.02 6.87 50.00 4.00 C 47.33 4.00 44.67 4.00 42.00 4.00 M 8.00 24.02 C 7.99 31.91 8.03 39.80 7.98 47.70 C 5.67 48.24 5.24 51.95 8.01 51.93 C 21.68 52.12 35.36 51.92 49.03 52.02 C 50.67 51.86 52.79 52.47 53.90 50.88 C 54.40 49.28 53.27 48.39 52.02 47.71 C 51.98 37.14 52.01 26.57 52.00 16.00 C 47.35 18.35 42.68 20.68 38.01 23.00 C 38.00 20.66 37.99 18.32 37.94 15.99 C 33.34 18.40 28.66 20.67 24.01 23.00 C 24.00 20.67 24.00 18.33 24.00 16.00 C 18.68 18.70 13.32 21.33 8.00 24.02 Z" />
<path fill="#ffffff" opacity="1.00" d=" M 12.00 28.00 C 13.33 28.00 14.67 28.00 16.00 28.00 C 16.00 29.33 16.00 30.67 16.00 32.00 C 14.67 32.00 13.33 32.00 12.00 32.00 C 12.00 30.67 12.00 29.33 12.00 28.00 Z" />
<path fill="#ffffff" opacity="1.00" d=" M 20.00 28.00 C 21.33 28.00 22.67 28.00 24.00 28.00 C 24.00 29.33 24.00 30.67 24.00 32.00 C 22.67 32.00 21.33 32.00 20.00 32.00 C 20.00 30.67 20.00 29.33 20.00 28.00 Z" />
<path fill="#ffffff" opacity="1.00" d=" M 28.00 28.00 C 29.33 28.00 30.67 28.00 32.00 28.00 C 32.00 29.33 32.00 30.67 32.00 32.00 C 30.67 32.00 29.33 32.00 28.00 32.00 C 28.00 30.67 28.00 29.33 28.00 28.00 Z" />
<path fill="#ffffff" opacity="1.00" d=" M 36.00 28.00 C 37.33 28.00 38.67 28.00 40.00 28.00 C 40.00 29.33 40.00 30.67 40.00 32.00 C 38.67 32.00 37.33 32.00 36.00 32.00 C 36.00 30.67 36.00 29.33 36.00 28.00 Z" />
<path fill="#ffffff" opacity="1.00" d=" M 44.00 28.00 C 45.33 28.00 46.67 28.00 48.00 28.00 C 48.00 29.33 48.00 30.67 48.00 32.00 C 46.67 32.00 45.33 32.00 44.00 32.00 C 44.00 30.67 44.00 29.33 44.00 28.00 Z" />
<path fill="#ffffff" opacity="1.00" d=" M 12.00 36.00 C 13.33 36.00 14.67 36.00 16.00 36.00 C 16.00 37.33 16.00 38.67 16.00 40.00 C 14.67 40.00 13.33 40.00 12.00 40.00 C 12.00 38.67 12.00 37.33 12.00 36.00 Z" />
<path fill="#ffffff" opacity="1.00" d=" M 20.00 36.00 C 21.33 36.00 22.67 36.00 24.00 36.00 C 24.00 37.33 24.00 38.67 24.00 40.00 C 22.67 40.00 21.33 40.00 20.00 40.00 C 20.00 38.67 20.00 37.33 20.00 36.00 Z" />
<path fill="#ffffff" opacity="1.00" d=" M 28.00 36.00 C 29.33 36.00 30.67 36.00 32.00 36.00 C 32.00 37.33 32.00 38.67 32.00 40.00 C 30.67 40.00 29.33 40.00 28.00 40.00 C 28.00 38.67 28.00 37.33 28.00 36.00 Z" />
<path fill="#ffffff" opacity="1.00" d=" M 36.00 36.00 C 37.33 36.00 38.67 36.00 40.00 36.00 C 40.00 37.33 40.00 38.67 40.00 40.00 C 38.67 40.00 37.33 40.00 36.00 40.00 C 36.00 38.67 36.00 37.33 36.00 36.00 Z" />
<path fill="#ffffff" opacity="1.00" d=" M 44.00 36.00 C 45.33 36.00 46.67 36.00 48.00 36.00 C 48.00 37.33 48.00 38.67 48.00 40.00 C 46.67 40.00 45.33 40.00 44.00 40.00 C 44.00 38.67 44.00 37.33 44.00 36.00 Z" />
<path fill="#ffffff" opacity="1.00" d=" M 12.00 44.00 C 13.33 44.00 14.67 44.00 16.00 44.00 C 16.00 45.33 16.00 46.67 16.00 48.00 C 14.67 48.00 13.33 48.00 12.00 48.00 C 12.00 46.67 12.00 45.33 12.00 44.00 Z" />
<path fill="#ffffff" opacity="1.00" d=" M 20.00 44.00 C 21.33 44.00 22.67 44.00 24.00 44.00 C 24.00 45.33 24.00 46.67 24.00 48.00 C 22.67 48.00 21.33 48.00 20.00 48.00 C 20.00 46.67 20.00 45.33 20.00 44.00 Z" />
<path fill="#ffffff" opacity="1.00" d=" M 28.00 44.00 C 29.33 44.00 30.67 44.00 32.00 44.00 C 32.00 45.33 32.00 46.67 32.00 48.00 C 30.67 48.00 29.33 48.00 28.00 48.00 C 28.00 46.67 28.00 45.33 28.00 44.00 Z" />
<path fill="#ffffff" opacity="1.00" d=" M 36.00 44.00 C 37.33 44.00 38.67 44.00 40.00 44.00 C 40.00 45.33 40.00 46.67 40.00 48.00 C 38.67 48.00 37.33 48.00 36.00 48.00 C 36.00 46.67 36.00 45.33 36.00 44.00 Z" />
<path fill="#ffffff" opacity="1.00" d=" M 44.00 44.00 C 45.33 44.00 46.67 44.00 48.00 44.00 C 48.00 45.33 48.00 46.67 48.00 48.00 C 46.67 48.00 45.33 48.00 44.00 48.00 C 44.00 46.67 44.00 45.33 44.00 44.00 Z" />
</g>
<g id="#000000ff">
<path fill="#000000" opacity="1.00" d=" M 42.00 4.00 C 44.67 4.00 47.33 4.00 50.00 4.00 C 50.02 6.87 50.01 9.74 49.95 12.61 C 47.29 13.89 44.65 15.21 42.01 16.53 C 42.00 12.35 42.00 8.18 42.00 4.00 Z" />
<path fill="#000000" opacity="1.00" d=" M 8.00 24.02 C 13.32 21.33 18.68 18.70 24.00 16.00 C 24.00 18.33 24.00 20.67 24.01 23.00 C 28.66 20.67 33.34 18.40 37.94 15.99 C 37.99 18.32 38.00 20.66 38.01 23.00 C 42.68 20.68 47.35 18.35 52.00 16.00 C 52.01 26.57 51.98 37.14 52.02 47.71 C 53.27 48.39 54.40 49.28 53.90 50.88 C 52.79 52.47 50.67 51.86 49.03 52.02 C 35.36 51.92 21.68 52.12 8.01 51.93 C 5.24 51.95 5.67 48.24 7.98 47.70 C 8.03 39.80 7.99 31.91 8.00 24.02 M 12.00 28.00 C 12.00 29.33 12.00 30.67 12.00 32.00 C 13.33 32.00 14.67 32.00 16.00 32.00 C 16.00 30.67 16.00 29.33 16.00 28.00 C 14.67 28.00 13.33 28.00 12.00 28.00 M 20.00 28.00 C 20.00 29.33 20.00 30.67 20.00 32.00 C 21.33 32.00 22.67 32.00 24.00 32.00 C 24.00 30.67 24.00 29.33 24.00 28.00 C 22.67 28.00 21.33 28.00 20.00 28.00 M 28.00 28.00 C 28.00 29.33 28.00 30.67 28.00 32.00 C 29.33 32.00 30.67 32.00 32.00 32.00 C 32.00 30.67 32.00 29.33 32.00 28.00 C 30.67 28.00 29.33 28.00 28.00 28.00 M 36.00 28.00 C 36.00 29.33 36.00 30.67 36.00 32.00 C 37.33 32.00 38.67 32.00 40.00 32.00 C 40.00 30.67 40.00 29.33 40.00 28.00 C 38.67 28.00 37.33 28.00 36.00 28.00 M 44.00 28.00 C 44.00 29.33 44.00 30.67 44.00 32.00 C 45.33 32.00 46.67 32.00 48.00 32.00 C 48.00 30.67 48.00 29.33 48.00 28.00 C 46.67 28.00 45.33 28.00 44.00 28.00 M 12.00 36.00 C 12.00 37.33 12.00 38.67 12.00 40.00 C 13.33 40.00 14.67 40.00 16.00 40.00 C 16.00 38.67 16.00 37.33 16.00 36.00 C 14.67 36.00 13.33 36.00 12.00 36.00 M 20.00 36.00 C 20.00 37.33 20.00 38.67 20.00 40.00 C 21.33 40.00 22.67 40.00 24.00 40.00 C 24.00 38.67 24.00 37.33 24.00 36.00 C 22.67 36.00 21.33 36.00 20.00 36.00 M 28.00 36.00 C 28.00 37.33 28.00 38.67 28.00 40.00 C 29.33 40.00 30.67 40.00 32.00 40.00 C 32.00 38.67 32.00 37.33 32.00 36.00 C 30.67 36.00 29.33 36.00 28.00 36.00 M 36.00 36.00 C 36.00 37.33 36.00 38.67 36.00 40.00 C 37.33 40.00 38.67 40.00 40.00 40.00 C 40.00 38.67 40.00 37.33 40.00 36.00 C 38.67 36.00 37.33 36.00 36.00 36.00 M 44.00 36.00 C 44.00 37.33 44.00 38.67 44.00 40.00 C 45.33 40.00 46.67 40.00 48.00 40.00 C 48.00 38.67 48.00 37.33 48.00 36.00 C 46.67 36.00 45.33 36.00 44.00 36.00 M 12.00 44.00 C 12.00 45.33 12.00 46.67 12.00 48.00 C 13.33 48.00 14.67 48.00 16.00 48.00 C 16.00 46.67 16.00 45.33 16.00 44.00 C 14.67 44.00 13.33 44.00 12.00 44.00 M 20.00 44.00 C 20.00 45.33 20.00 46.67 20.00 48.00 C 21.33 48.00 22.67 48.00 24.00 48.00 C 24.00 46.67 24.00 45.33 24.00 44.00 C 22.67 44.00 21.33 44.00 20.00 44.00 M 28.00 44.00 C 28.00 45.33 28.00 46.67 28.00 48.00 C 29.33 48.00 30.67 48.00 32.00 48.00 C 32.00 46.67 32.00 45.33 32.00 44.00 C 30.67 44.00 29.33 44.00 28.00 44.00 M 36.00 44.00 C 36.00 45.33 36.00 46.67 36.00 48.00 C 37.33 48.00 38.67 48.00 40.00 48.00 C 40.00 46.67 40.00 45.33 40.00 44.00 C 38.67 44.00 37.33 44.00 36.00 44.00 M 44.00 44.00 C 44.00 45.33 44.00 46.67 44.00 48.00 C 45.33 48.00 46.67 48.00 48.00 48.00 C 48.00 46.67 48.00 45.33 48.00 44.00 C 46.67 44.00 45.33 44.00 44.00 44.00 Z" />
</g>
</svg>
