<?xml version="1.0" encoding="UTF-8" ?>
<!DOCTYPE svg PUBLIC "-//W3C//DTD SVG 1.1//EN" "http://www.w3.org/Graphics/SVG/1.1/DTD/svg11.dtd">
<svg width="60pt" height="60pt" viewBox="0 0 60 60" version="1.1" xmlns="http://www.w3.org/2000/svg">
<g id="#ffffffff">
<path fill="#ffffff" opacity="1.00" d=" M 0.00 0.00 L 60.00 0.00 L 60.00 25.30 C 56.81 22.68 52.08 24.51 48.26 24.01 C 48.43 21.32 46.79 19.55 44.07 19.75 C 44.03 17.05 44.44 12.93 40.96 12.19 C 36.33 11.83 31.62 11.83 26.99 12.20 C 23.42 12.95 24.03 17.27 23.92 20.00 C 19.97 20.00 16.02 20.00 12.07 20.00 C 10.70 18.68 9.33 17.37 7.99 16.03 C 5.31 15.92 2.55 15.78 0.00 16.78 L 0.00 0.00 Z" />
<path fill="#ffffff" opacity="1.00" d=" M 28.00 16.00 C 32.00 16.00 36.00 16.00 40.00 16.00 C 40.00 17.33 40.00 18.67 40.00 20.00 C 36.00 20.00 32.00 20.00 28.00 20.00 C 28.00 18.67 28.00 17.33 28.00 16.00 Z" />
<path fill="#ffffff" opacity="1.00" d=" M 48.26 27.99 C 52.16 27.77 56.30 28.76 60.00 27.14 L 60.00 60.00 L 0.00 60.00 L 0.00 34.29 C 0.53 34.70 1.60 35.50 2.14 35.91 C 5.57 35.57 8.72 33.97 12.00 32.99 C 12.15 38.29 11.68 43.62 12.21 48.90 C 14.36 51.37 17.84 48.37 19.79 46.90 C 20.32 41.96 19.85 36.96 20.00 32.00 C 22.67 32.00 25.33 32.00 28.00 32.00 C 28.08 36.01 27.79 40.04 28.11 44.05 C 28.03 45.53 29.53 46.32 30.83 45.91 C 32.60 44.58 31.77 42.08 32.08 40.19 C 34.18 39.84 36.67 39.97 38.20 38.23 C 39.99 36.67 39.85 34.14 40.20 32.01 C 42.43 32.02 44.68 32.15 46.89 31.78 C 48.15 30.97 47.85 29.24 48.26 27.99 Z" />
<path fill="#ffffff" opacity="1.00" d=" M 32.00 32.00 C 33.38 32.00 34.76 32.00 36.14 32.00 C 36.60 34.76 34.75 36.59 32.00 36.13 C 32.00 34.76 32.00 33.38 32.00 32.00 Z" />
</g>
<g id="#000000ff">
<path fill="#000000" opacity="1.00" d=" M 23.92 20.00 C 24.03 17.27 23.42 12.95 26.99 12.20 C 31.62 11.83 36.33 11.83 40.96 12.19 C 44.44 12.93 44.03 17.05 44.07 19.75 C 46.79 19.55 48.43 21.32 48.26 24.01 C 52.08 24.51 56.81 22.68 60.00 25.30 L 60.00 27.14 C 56.30 28.76 52.16 27.77 48.26 27.99 C 47.85 29.24 48.15 30.97 46.89 31.78 C 44.68 32.15 42.43 32.02 40.20 32.01 C 39.85 34.14 39.99 36.67 38.20 38.23 C 36.67 39.97 34.18 39.84 32.08 40.19 C 31.77 42.08 32.60 44.58 30.83 45.91 C 29.53 46.32 28.03 45.53 28.11 44.05 C 27.79 40.04 28.08 36.01 28.00 32.00 C 25.33 32.00 22.67 32.00 20.00 32.00 C 19.85 36.96 20.32 41.96 19.79 46.90 C 17.84 48.37 14.36 51.37 12.21 48.90 C 11.68 43.62 12.15 38.29 12.00 32.99 C 8.72 33.97 5.57 35.57 2.14 35.91 C 1.60 35.50 0.53 34.70 0.00 34.29 L 0.00 16.78 C 2.55 15.78 5.31 15.92 7.99 16.03 C 9.33 17.37 10.70 18.68 12.07 20.00 C 16.02 20.00 19.97 20.00 23.92 20.00 M 28.00 16.00 C 28.00 17.33 28.00 18.67 28.00 20.00 C 32.00 20.00 36.00 20.00 40.00 20.00 C 40.00 18.67 40.00 17.33 40.00 16.00 C 36.00 16.00 32.00 16.00 28.00 16.00 M 32.00 32.00 C 32.00 33.38 32.00 34.76 32.00 36.13 C 34.75 36.59 36.60 34.76 36.14 32.00 C 34.76 32.00 33.38 32.00 32.00 32.00 Z" />
</g>
</svg>
