<?xml version="1.0" encoding="UTF-8" ?>
<!DOCTYPE svg PUBLIC "-//W3C//DTD SVG 1.1//EN" "http://www.w3.org/Graphics/SVG/1.1/DTD/svg11.dtd">
<svg width="60pt" height="60pt" viewBox="0 0 60 60" version="1.1" xmlns="http://www.w3.org/2000/svg">
<g id="#ffffffff">
<path fill="#ffffff" opacity="1.00" d=" M 0.00 0.00 L 60.00 0.00 L 60.00 60.00 L 0.00 60.00 L 0.00 0.00 M 19.49 12.72 C 12.77 14.17 6.58 17.96 2.22 23.27 C 1.32 25.17 3.48 26.23 4.54 27.41 C 11.42 33.50 17.91 40.06 24.98 45.91 C 35.59 46.01 46.25 46.17 56.85 45.83 C 57.10 45.59 57.59 45.11 57.83 44.87 C 58.29 38.86 56.47 32.77 53.42 27.61 C 46.76 16.12 32.47 9.76 19.49 12.72 Z" />
<path fill="#ffffff" opacity="1.00" d=" M 16.15 17.90 C 18.68 16.98 21.30 16.35 23.97 16.04 C 24.02 19.50 24.01 22.96 23.98 26.42 C 22.76 26.71 21.53 27.00 20.31 27.28 C 18.94 24.14 17.53 21.03 16.15 17.90 Z" />
<path fill="#ffffff" opacity="1.00" d=" M 28.01 16.04 C 30.23 16.37 32.43 16.78 34.63 17.24 C 33.52 20.52 32.08 23.67 30.79 26.88 C 30.10 26.77 28.72 26.53 28.03 26.41 C 27.98 22.96 27.99 19.50 28.01 16.04 Z" />
<path fill="#ffffff" opacity="1.00" d=" M 38.38 18.91 C 40.46 20.06 42.44 21.37 44.29 22.87 C 41.90 25.25 39.50 27.62 37.10 29.99 C 36.24 29.44 35.38 28.88 34.53 28.32 C 35.82 25.19 37.10 22.05 38.38 18.91 Z" />
<path fill="#ffffff" opacity="1.00" d=" M 6.92 24.14 C 8.69 22.52 10.57 21.04 12.57 19.72 C 13.97 22.85 15.36 25.98 16.76 29.11 C 16.15 29.57 14.94 30.50 14.33 30.96 C 11.86 28.69 9.39 26.42 6.92 24.14 Z" />
<path fill="#ffffff" opacity="1.00" d=" M 40.01 32.74 C 42.38 30.39 44.74 28.05 47.12 25.71 C 48.47 27.45 49.69 29.28 50.80 31.17 C 47.70 32.49 44.63 33.90 41.46 35.04 C 41.10 34.47 40.37 33.32 40.01 32.74 Z" />
<path fill="#ffffff" opacity="1.00" d=" M 43.25 38.71 C 46.29 37.45 49.33 36.17 52.36 34.87 C 53.03 37.21 53.53 39.58 53.83 41.99 C 50.52 42.01 47.22 42.00 43.91 42.00 C 43.74 41.18 43.41 39.53 43.25 38.71 Z" />
</g>
<g id="#000000ff">
<path fill="#000000" opacity="1.00" d=" M 19.49 12.72 C 32.47 9.76 46.76 16.12 53.42 27.61 C 56.47 32.77 58.29 38.86 57.83 44.87 C 57.59 45.11 57.10 45.59 56.85 45.83 C 46.25 46.17 35.59 46.01 24.98 45.91 C 17.91 40.06 11.42 33.50 4.54 27.41 C 3.48 26.23 1.32 25.17 2.22 23.27 C 6.58 17.96 12.77 14.17 19.49 12.72 M 16.15 17.90 C 17.53 21.03 18.94 24.14 20.31 27.28 C 21.53 27.00 22.76 26.71 23.98 26.42 C 24.01 22.96 24.02 19.50 23.97 16.04 C 21.30 16.35 18.68 16.98 16.15 17.90 M 28.01 16.04 C 27.99 19.50 27.98 22.96 28.03 26.41 C 28.72 26.53 30.10 26.77 30.79 26.88 C 32.08 23.67 33.52 20.52 34.63 17.24 C 32.43 16.78 30.23 16.37 28.01 16.04 M 38.38 18.91 C 37.10 22.05 35.82 25.19 34.53 28.32 C 35.38 28.88 36.24 29.44 37.10 29.99 C 39.50 27.62 41.90 25.25 44.29 22.87 C 42.44 21.37 40.46 20.06 38.38 18.91 M 6.92 24.14 C 9.39 26.42 11.86 28.69 14.33 30.96 C 14.94 30.50 16.15 29.57 16.76 29.11 C 15.36 25.98 13.97 22.85 12.57 19.72 C 10.57 21.04 8.69 22.52 6.92 24.14 M 40.01 32.74 C 40.37 33.32 41.10 34.47 41.46 35.04 C 44.63 33.90 47.70 32.49 50.80 31.17 C 49.69 29.28 48.47 27.45 47.12 25.71 C 44.74 28.05 42.38 30.39 40.01 32.74 M 43.25 38.71 C 43.41 39.53 43.74 41.18 43.91 42.00 C 47.22 42.00 50.52 42.01 53.83 41.99 C 53.53 39.58 53.03 37.21 52.36 34.87 C 49.33 36.17 46.29 37.45 43.25 38.71 Z" />
</g>
</svg>
