<?xml version="1.0" encoding="UTF-8" ?>
<!DOCTYPE svg PUBLIC "-//W3C//DTD SVG 1.1//EN" "http://www.w3.org/Graphics/SVG/1.1/DTD/svg11.dtd">
<svg width="60pt" height="60pt" viewBox="0 0 60 60" version="1.1" xmlns="http://www.w3.org/2000/svg">
<g id="#ffffffff">
<path fill="#ffffff" opacity="1.00" d=" M 0.00 0.00 L 60.00 0.00 L 60.00 60.00 L 0.00 60.00 L 0.00 0.00 M 20.34 6.39 C 18.60 7.15 17.83 9.11 18.00 10.91 C 18.03 16.65 17.92 22.39 18.05 28.12 C 17.95 30.63 20.56 32.31 22.88 32.00 C 31.94 31.97 41.01 32.07 50.07 31.95 C 52.12 32.00 54.00 30.13 53.95 28.07 C 54.05 22.02 54.05 15.96 53.95 9.91 C 53.97 7.84 52.13 5.92 50.02 6.05 C 41.69 5.90 33.35 6.07 25.02 5.98 C 23.47 6.07 21.81 5.79 20.34 6.39 M 6.14 31.04 C 5.83 37.37 6.01 43.73 6.05 50.07 C 5.92 52.60 8.54 54.31 10.87 54.00 C 19.93 53.97 29.00 54.07 38.05 53.95 C 40.13 54.00 42.01 52.12 41.95 50.04 C 42.11 45.36 41.94 40.68 42.00 36.00 C 37.76 35.99 33.51 36.02 29.27 35.97 C 31.24 39.39 31.18 43.82 28.65 46.94 C 29.19 47.82 29.73 48.70 30.26 49.59 C 28.86 49.52 27.37 49.51 26.40 48.33 C 23.95 48.39 21.09 48.62 19.28 46.63 C 16.47 43.63 16.86 38.80 19.10 35.57 C 16.09 34.12 14.18 31.26 13.81 27.97 C 11.04 27.91 6.96 27.55 6.14 31.04 M 25.00 46.12 C 24.62 45.40 23.84 43.96 23.45 43.24 C 24.71 43.44 25.96 43.65 27.21 43.88 C 28.12 41.15 27.88 36.58 24.18 36.34 C 18.53 36.38 19.17 46.79 25.00 46.12 Z" />
<path fill="#ffffff" opacity="1.00" d=" M 34.26 12.01 C 35.42 12.00 36.58 12.00 37.74 12.00 C 39.34 16.68 40.97 21.34 42.59 26.01 C 41.79 26.00 40.19 25.99 39.39 25.98 C 39.05 24.88 38.70 23.77 38.35 22.67 C 36.72 22.66 35.10 22.66 33.47 22.66 C 33.19 24.90 31.99 26.82 29.40 26.12 C 30.98 21.41 32.66 16.72 34.26 12.01 M 35.90 14.71 C 35.28 16.61 34.67 18.50 34.06 20.40 C 35.28 20.40 36.51 20.40 37.73 20.40 C 37.12 18.51 36.52 16.61 35.90 14.71 Z" />
</g>
<g id="#000000ff">
<path fill="#000000" opacity="1.00" d=" M 20.34 6.39 C 21.81 5.79 23.47 6.07 25.02 5.98 C 33.35 6.07 41.69 5.90 50.02 6.05 C 52.13 5.92 53.97 7.84 53.95 9.91 C 54.05 15.96 54.05 22.02 53.95 28.07 C 54.00 30.13 52.12 32.00 50.07 31.95 C 41.01 32.07 31.94 31.97 22.88 32.00 C 20.56 32.31 17.95 30.63 18.05 28.12 C 17.92 22.39 18.03 16.65 18.00 10.91 C 17.83 9.11 18.60 7.15 20.34 6.39 M 34.26 12.01 C 32.66 16.72 30.98 21.41 29.40 26.12 C 31.99 26.82 33.19 24.90 33.47 22.66 C 35.10 22.66 36.72 22.66 38.35 22.67 C 38.70 23.77 39.05 24.88 39.39 25.98 C 40.19 25.99 41.79 26.00 42.59 26.01 C 40.97 21.34 39.34 16.68 37.74 12.00 C 36.58 12.00 35.42 12.00 34.26 12.01 Z" />
<path fill="#000000" opacity="1.00" d=" M 35.90 14.71 C 36.52 16.61 37.12 18.51 37.73 20.40 C 36.51 20.40 35.28 20.40 34.06 20.40 C 34.67 18.50 35.28 16.61 35.90 14.71 Z" />
<path fill="#000000" opacity="1.00" d=" M 6.14 31.04 C 6.96 27.55 11.04 27.91 13.81 27.97 C 14.18 31.26 16.09 34.12 19.10 35.57 C 16.86 38.80 16.47 43.63 19.28 46.63 C 21.09 48.62 23.95 48.39 26.40 48.33 C 27.37 49.51 28.86 49.52 30.26 49.59 C 29.73 48.70 29.19 47.82 28.65 46.94 C 31.18 43.82 31.24 39.39 29.27 35.97 C 33.51 36.02 37.76 35.99 42.00 36.00 C 41.94 40.68 42.11 45.36 41.95 50.04 C 42.01 52.12 40.13 54.00 38.05 53.95 C 29.00 54.07 19.93 53.97 10.87 54.00 C 8.54 54.31 5.92 52.60 6.05 50.07 C 6.01 43.73 5.83 37.37 6.14 31.04 Z" />
<path fill="#000000" opacity="1.00" d=" M 25.00 46.12 C 19.17 46.79 18.53 36.38 24.18 36.34 C 27.88 36.58 28.12 41.15 27.21 43.88 C 25.96 43.65 24.71 43.44 23.45 43.24 C 23.84 43.96 24.62 45.40 25.00 46.12 Z" />
</g>
</svg>
