<?xml version="1.0" encoding="UTF-8" ?>
<!DOCTYPE svg PUBLIC "-//W3C//DTD SVG 1.1//EN" "http://www.w3.org/Graphics/SVG/1.1/DTD/svg11.dtd">
<svg width="64pt" height="64pt" viewBox="0 0 64 64" version="1.1" xmlns="http://www.w3.org/2000/svg">
<g id="#ffffffff">
<path fill="#ffffff" opacity="1.00" d=" M 0.00 0.00 L 64.00 0.00 L 64.00 64.00 L 0.00 64.00 L 0.00 0.00 M 5.91 20.80 C 6.12 31.86 5.94 42.93 6.00 54.00 C 23.33 54.00 40.67 54.00 58.00 54.00 C 58.03 42.91 57.93 31.82 58.06 20.74 C 49.45 16.94 40.70 13.46 32.03 9.81 C 23.34 13.52 14.55 16.98 5.91 20.80 Z" />
<path fill="#ffffff" opacity="1.00" d=" M 10.01 23.36 C 17.34 20.30 24.69 17.31 31.99 14.19 C 39.36 17.16 46.63 20.34 53.99 23.35 C 54.02 32.24 53.99 41.12 54.00 50.00 C 39.33 50.00 24.67 50.00 10.00 50.00 C 10.01 41.12 9.99 32.24 10.01 23.36 M 25.14 22.12 C 24.09 24.47 20.68 24.39 20.07 27.06 C 19.55 29.20 21.08 30.92 22.74 32.01 C 21.84 35.27 21.95 38.66 22.00 42.00 C 23.33 42.00 24.67 42.00 26.00 42.00 C 26.16 38.24 24.95 33.16 28.88 30.87 C 32.61 28.37 38.21 31.49 37.98 35.99 C 38.25 40.01 34.59 42.53 31.25 43.76 C 31.48 44.70 31.93 46.58 32.16 47.52 C 36.16 46.47 39.58 43.76 41.42 40.05 C 42.65 40.01 43.87 39.95 45.09 39.88 C 44.64 37.91 43.63 36.19 42.29 34.69 C 41.23 32.71 40.47 30.56 39.10 28.74 C 39.82 27.16 40.54 25.20 39.23 23.69 C 38.00 21.65 35.40 21.90 33.46 22.58 C 31.68 19.69 27.02 18.94 25.14 22.12 M 33.19 34.18 C 30.77 35.06 32.47 38.96 34.74 37.82 C 37.25 37.02 35.52 32.96 33.19 34.18 Z" />
</g>
<g id="#000000ff">
<path fill="#000000" opacity="1.00" d=" M 5.91 20.80 C 14.55 16.98 23.34 13.52 32.03 9.81 C 40.70 13.46 49.45 16.94 58.06 20.74 C 57.93 31.82 58.03 42.91 58.00 54.00 C 40.67 54.00 23.33 54.00 6.00 54.00 C 5.94 42.93 6.12 31.86 5.91 20.80 M 10.01 23.36 C 9.99 32.24 10.01 41.12 10.00 50.00 C 24.67 50.00 39.33 50.00 54.00 50.00 C 53.99 41.12 54.02 32.24 53.99 23.35 C 46.63 20.34 39.36 17.16 31.99 14.19 C 24.69 17.31 17.34 20.30 10.01 23.36 Z" />
<path fill="#000000" opacity="1.00" d=" M 25.14 22.12 C 27.02 18.94 31.68 19.69 33.46 22.58 C 35.40 21.90 38.00 21.65 39.23 23.69 C 40.54 25.20 39.82 27.16 39.10 28.74 C 40.47 30.56 41.23 32.71 42.29 34.69 C 43.63 36.19 44.64 37.91 45.09 39.88 C 43.87 39.95 42.65 40.01 41.42 40.05 C 39.58 43.76 36.16 46.47 32.16 47.52 C 31.93 46.58 31.48 44.70 31.25 43.76 C 34.59 42.53 38.25 40.01 37.98 35.99 C 38.21 31.49 32.61 28.37 28.88 30.87 C 24.95 33.16 26.16 38.24 26.00 42.00 C 24.67 42.00 23.33 42.00 22.00 42.00 C 21.95 38.66 21.84 35.27 22.74 32.01 C 21.08 30.92 19.55 29.20 20.07 27.06 C 20.68 24.39 24.09 24.47 25.14 22.12 Z" />
<path fill="#000000" opacity="1.00" d=" M 33.19 34.18 C 35.52 32.96 37.25 37.02 34.74 37.82 C 32.47 38.96 30.77 35.06 33.19 34.18 Z" />
</g>
</svg>
