<?xml version="1.0" encoding="UTF-8" ?>
<!DOCTYPE svg PUBLIC "-//W3C//DTD SVG 1.1//EN" "http://www.w3.org/Graphics/SVG/1.1/DTD/svg11.dtd">
<svg width="64pt" height="64pt" viewBox="0 0 64 64" version="1.1" xmlns="http://www.w3.org/2000/svg">
<g id="#ffffffff">
<path fill="#ffffff" opacity="1.00" d=" M 0.00 0.00 L 64.00 0.00 L 64.00 64.00 L 0.00 64.00 L 0.00 0.00 M 20.32 16.28 C 17.47 17.13 13.63 17.24 12.10 20.21 C 11.44 23.53 15.55 24.26 17.88 24.96 C 17.77 29.99 20.31 34.67 24.39 37.55 C 17.04 40.60 12.06 48.05 11.91 55.98 C 13.24 55.99 14.57 56.00 15.90 56.00 C 16.14 52.12 17.54 48.44 19.91 45.37 C 20.04 48.91 20.01 52.46 20.00 56.00 C 21.33 56.00 22.67 56.00 24.01 56.00 C 24.00 54.30 23.99 52.61 23.98 50.91 C 29.07 52.60 34.93 52.59 40.02 50.91 C 40.01 52.61 40.00 54.30 39.99 56.00 C 41.33 56.00 42.67 56.00 44.00 56.00 C 43.99 52.46 43.96 48.91 44.09 45.37 C 46.47 48.44 47.84 52.13 48.10 56.00 C 49.42 56.00 50.75 55.99 52.09 55.99 C 51.92 48.06 46.96 40.58 39.61 37.55 C 43.66 34.66 46.26 30.00 46.09 24.97 C 48.45 24.26 52.62 23.52 51.89 20.14 C 50.28 17.25 46.52 17.12 43.68 16.28 C 42.66 13.13 41.22 9.56 37.86 8.31 C 35.73 7.31 33.75 8.86 31.99 9.87 C 30.23 8.85 28.24 7.31 26.11 8.32 C 22.75 9.56 21.33 13.14 20.32 16.28 Z" />
<path fill="#ffffff" opacity="1.00" d=" M 27.16 11.85 C 28.93 12.85 30.78 14.30 32.94 13.90 C 34.22 13.43 35.32 12.59 36.48 11.88 C 39.30 13.47 39.78 16.81 40.30 19.71 C 42.06 20.07 43.82 20.45 45.57 20.87 C 36.62 22.36 27.38 22.36 18.43 20.87 C 20.18 20.45 21.94 20.07 23.70 19.70 C 24.10 16.80 24.89 13.87 27.16 11.85 Z" />
<path fill="#ffffff" opacity="1.00" d=" M 21.84 25.52 C 28.60 26.11 35.39 26.12 42.15 25.52 C 42.13 30.99 37.65 36.16 32.00 35.97 C 26.34 36.15 21.87 30.99 21.84 25.52 Z" />
<path fill="#ffffff" opacity="1.00" d=" M 23.85 42.09 C 28.92 39.40 35.08 39.40 40.15 42.09 C 39.97 44.10 39.96 46.71 37.73 47.60 C 35.58 48.29 33.25 47.93 31.02 48.04 C 29.06 47.89 26.69 48.40 25.16 46.83 C 23.84 45.62 24.13 43.68 23.85 42.09 Z" />
</g>
<g id="#000000ff">
<path fill="#000000" opacity="1.00" d=" M 20.32 16.28 C 21.33 13.14 22.75 9.56 26.11 8.32 C 28.24 7.31 30.23 8.85 31.99 9.87 C 33.75 8.86 35.73 7.31 37.86 8.31 C 41.22 9.56 42.66 13.13 43.68 16.28 C 46.52 17.12 50.28 17.25 51.89 20.14 C 52.62 23.52 48.45 24.26 46.09 24.97 C 46.26 30.00 43.66 34.66 39.61 37.55 C 46.96 40.58 51.92 48.06 52.09 55.99 C 50.75 55.99 49.42 56.00 48.10 56.00 C 47.84 52.13 46.47 48.44 44.09 45.37 C 43.96 48.91 43.99 52.46 44.00 56.00 C 42.67 56.00 41.33 56.00 39.99 56.00 C 40.00 54.30 40.01 52.61 40.02 50.91 C 34.93 52.59 29.07 52.60 23.98 50.91 C 23.99 52.61 24.00 54.30 24.01 56.00 C 22.67 56.00 21.33 56.00 20.00 56.00 C 20.01 52.46 20.04 48.91 19.91 45.37 C 17.54 48.44 16.14 52.12 15.90 56.00 C 14.57 56.00 13.24 55.99 11.91 55.98 C 12.06 48.05 17.04 40.60 24.39 37.55 C 20.31 34.67 17.77 29.99 17.88 24.96 C 15.55 24.26 11.44 23.53 12.10 20.21 C 13.63 17.24 17.47 17.13 20.32 16.28 M 27.16 11.85 C 24.89 13.87 24.10 16.80 23.70 19.70 C 21.94 20.07 20.18 20.45 18.43 20.87 C 27.38 22.36 36.62 22.36 45.57 20.87 C 43.82 20.45 42.06 20.07 40.30 19.71 C 39.78 16.81 39.30 13.47 36.48 11.88 C 35.32 12.59 34.22 13.43 32.94 13.90 C 30.78 14.30 28.93 12.85 27.16 11.85 M 21.84 25.52 C 21.87 30.99 26.34 36.15 32.00 35.97 C 37.65 36.16 42.13 30.99 42.15 25.52 C 35.39 26.12 28.60 26.11 21.84 25.52 M 23.85 42.09 C 24.13 43.68 23.84 45.62 25.16 46.83 C 26.69 48.40 29.06 47.89 31.02 48.04 C 33.25 47.93 35.58 48.29 37.73 47.60 C 39.96 46.71 39.97 44.10 40.15 42.09 C 35.08 39.40 28.92 39.40 23.85 42.09 Z" />
</g>
</svg>
