<?xml version="1.0" encoding="UTF-8" ?>
<!DOCTYPE svg PUBLIC "-//W3C//DTD SVG 1.1//EN" "http://www.w3.org/Graphics/SVG/1.1/DTD/svg11.dtd">
<svg width="60pt" height="60pt" viewBox="0 0 60 60" version="1.1" xmlns="http://www.w3.org/2000/svg">
<g id="#ffffffff">
<path fill="#ffffff" opacity="1.00" d=" M 0.00 0.00 L 60.00 0.00 L 60.00 60.00 L 0.00 60.00 L 0.00 0.00 M 37.99 8.03 C 37.33 10.00 36.67 11.98 35.99 13.95 C 36.49 13.97 37.50 14.01 38.00 14.03 C 38.00 16.02 38.00 18.01 38.00 20.00 C 39.33 20.00 40.67 20.00 42.00 20.00 C 42.00 18.00 42.00 16.00 42.00 14.00 C 44.67 14.00 47.33 14.00 50.00 14.00 C 50.00 16.00 50.00 18.00 50.00 20.00 C 51.33 20.00 52.67 20.00 54.00 20.00 C 54.00 18.01 54.00 16.02 54.00 14.02 C 54.50 14.01 55.51 13.98 56.02 13.96 C 55.33 11.97 54.66 9.98 53.99 7.98 C 51.33 6.65 48.68 5.30 46.00 4.00 C 43.34 5.36 40.66 6.68 37.99 8.03 M 7.24 16.19 C 4.13 17.81 7.45 21.22 10.01 19.82 C 10.00 21.48 10.00 23.14 9.99 24.80 C 8.69 25.40 6.51 25.19 6.07 26.93 C 5.91 29.97 5.99 33.03 6.01 36.08 C 5.60 37.62 7.53 39.39 8.92 38.33 C 17.24 32.55 25.60 26.74 34.71 22.23 C 33.14 22.16 31.57 22.15 30.00 22.17 C 30.00 20.81 30.00 19.46 30.00 18.11 C 31.27 17.82 33.17 18.36 33.80 16.83 C 34.52 15.63 33.39 13.92 32.01 14.05 C 23.73 14.06 15.40 14.74 7.24 16.19 M 49.71 22.26 C 39.36 29.68 30.80 39.56 24.78 50.77 C 23.87 51.89 24.55 53.73 26.00 53.93 C 30.35 54.06 34.72 54.07 39.07 53.92 C 40.26 53.52 40.44 52.25 40.61 51.20 C 42.22 41.18 44.99 31.27 49.71 22.26 M 8.06 44.12 C 7.26 44.90 5.74 45.50 6.03 46.89 C 6.29 49.13 5.06 52.26 7.13 53.83 C 10.44 54.19 13.78 53.97 17.10 53.98 C 18.58 54.32 19.20 52.73 19.77 51.72 C 25.10 40.67 32.90 30.89 42.21 22.92 C 30.03 28.59 18.79 36.09 8.06 44.12 M 44.59 52.06 C 44.62 54.37 47.38 54.00 48.94 54.03 C 50.64 53.90 53.85 54.63 53.94 52.07 C 54.07 42.31 53.99 32.55 53.97 22.79 C 49.03 31.84 46.13 41.90 44.59 52.06 Z" />
<path fill="#ffffff" opacity="1.00" d=" M 22.07 18.37 C 23.39 18.31 24.70 18.25 26.01 18.18 C 26.00 19.61 25.99 21.04 25.98 22.47 C 24.65 22.59 23.32 22.71 21.99 22.82 C 22.00 21.34 22.04 19.85 22.07 18.37 Z" />
<path fill="#ffffff" opacity="1.00" d=" M 14.01 19.20 C 15.34 19.06 16.66 18.92 17.99 18.79 C 18.00 20.28 18.01 21.77 18.04 23.26 C 16.69 23.50 15.35 23.76 14.00 23.98 C 14.00 22.39 14.01 20.79 14.01 19.20 Z" />
</g>
<g id="#000000ff">
<path fill="#000000" opacity="1.00" d=" M 37.99 8.03 C 40.66 6.68 43.34 5.36 46.00 4.00 C 48.68 5.30 51.33 6.65 53.99 7.98 C 54.66 9.98 55.33 11.97 56.02 13.96 C 55.51 13.98 54.50 14.01 54.00 14.02 C 54.00 16.02 54.00 18.01 54.00 20.00 C 52.67 20.00 51.33 20.00 50.00 20.00 C 50.00 18.00 50.00 16.00 50.00 14.00 C 47.33 14.00 44.67 14.00 42.00 14.00 C 42.00 16.00 42.00 18.00 42.00 20.00 C 40.67 20.00 39.33 20.00 38.00 20.00 C 38.00 18.01 38.00 16.02 38.00 14.03 C 37.50 14.01 36.49 13.97 35.99 13.95 C 36.67 11.98 37.33 10.00 37.99 8.03 Z" />
<path fill="#000000" opacity="1.00" d=" M 7.24 16.19 C 15.40 14.74 23.73 14.06 32.01 14.05 C 33.39 13.92 34.52 15.63 33.80 16.83 C 33.17 18.36 31.27 17.82 30.00 18.11 C 30.00 19.46 30.00 20.81 30.00 22.17 C 31.57 22.15 33.14 22.16 34.71 22.23 C 25.60 26.74 17.24 32.55 8.92 38.33 C 7.53 39.39 5.60 37.62 6.01 36.08 C 5.99 33.03 5.91 29.97 6.07 26.93 C 6.51 25.19 8.69 25.40 9.99 24.80 C 10.00 23.14 10.00 21.48 10.01 19.82 C 7.45 21.22 4.13 17.81 7.24 16.19 M 22.07 18.37 C 22.04 19.85 22.00 21.34 21.99 22.82 C 23.32 22.71 24.65 22.59 25.98 22.47 C 25.99 21.04 26.00 19.61 26.01 18.18 C 24.70 18.25 23.39 18.31 22.07 18.37 M 14.01 19.20 C 14.01 20.79 14.00 22.39 14.00 23.98 C 15.35 23.76 16.69 23.50 18.04 23.26 C 18.01 21.77 18.00 20.28 17.99 18.79 C 16.66 18.92 15.34 19.06 14.01 19.20 Z" />
<path fill="#000000" opacity="1.00" d=" M 49.71 22.26 C 44.99 31.27 42.22 41.18 40.61 51.20 C 40.44 52.25 40.26 53.52 39.07 53.92 C 34.72 54.07 30.35 54.06 26.00 53.93 C 24.55 53.73 23.87 51.89 24.78 50.77 C 30.80 39.56 39.36 29.68 49.71 22.26 Z" />
<path fill="#000000" opacity="1.00" d=" M 8.06 44.12 C 18.79 36.09 30.03 28.59 42.21 22.92 C 32.90 30.89 25.10 40.67 19.77 51.72 C 19.20 52.73 18.58 54.32 17.10 53.98 C 13.78 53.97 10.44 54.19 7.13 53.83 C 5.06 52.26 6.29 49.13 6.03 46.89 C 5.74 45.50 7.26 44.90 8.06 44.12 Z" />
<path fill="#000000" opacity="1.00" d=" M 44.59 52.06 C 46.13 41.90 49.03 31.84 53.97 22.79 C 53.99 32.55 54.07 42.31 53.94 52.07 C 53.85 54.63 50.64 53.90 48.94 54.03 C 47.38 54.00 44.62 54.37 44.59 52.06 Z" />
</g>
</svg>
