<?xml version="1.0" encoding="UTF-8" ?>
<!DOCTYPE svg PUBLIC "-//W3C//DTD SVG 1.1//EN" "http://www.w3.org/Graphics/SVG/1.1/DTD/svg11.dtd">
<svg width="200pt" height="200pt" viewBox="0 0 200 200" version="1.1" xmlns="http://www.w3.org/2000/svg">
<g id="#ffffffff">
<path fill="#ffffff" opacity="1.00" d=" M 0.00 0.00 L 200.00 0.00 L 200.00 200.00 L 0.00 200.00 L 0.00 0.00 M 24.77 25.50 C 16.77 25.77 9.07 30.86 6.31 38.47 C 3.19 46.21 5.75 55.49 12.08 60.83 C 6.73 75.42 23.15 92.16 37.81 86.12 C 36.45 99.09 36.05 112.14 36.18 125.17 C 27.16 124.17 18.10 123.55 9.03 123.41 C 6.97 123.13 4.85 124.82 5.03 126.97 C 4.98 146.03 4.99 165.10 5.02 184.17 C 4.77 186.39 6.90 188.09 9.01 187.79 C 55.00 187.82 100.98 187.78 146.96 187.81 C 149.28 187.79 151.62 187.96 153.91 187.57 C 155.04 186.54 155.08 185.46 154.03 184.34 C 149.34 178.00 143.76 172.33 137.86 167.11 C 114.06 146.23 83.89 133.65 53.00 127.80 C 50.60 114.08 48.93 100.21 48.56 86.27 C 55.50 88.69 63.60 86.96 68.83 81.78 C 74.30 76.68 76.29 68.50 74.10 61.38 C 80.70 56.14 83.43 46.65 80.30 38.77 C 77.63 31.35 70.28 26.15 62.45 25.72 C 59.79 17.13 50.88 11.04 41.88 12.11 C 34.11 12.61 27.29 18.22 24.77 25.50 M 140.40 16.40 C 136.59 19.36 138.67 24.91 138.22 29.03 C 137.85 34.00 145.36 35.89 147.54 31.50 C 148.80 27.85 148.07 23.78 148.10 19.97 C 147.98 16.36 143.27 14.32 140.40 16.40 M 112.52 27.57 C 109.53 28.50 108.03 32.52 109.90 35.09 C 112.01 37.64 114.45 39.91 116.85 42.18 C 119.65 44.86 125.05 42.91 125.28 38.95 C 125.68 35.57 122.42 33.65 120.48 31.45 C 118.40 29.32 115.88 26.25 112.52 27.57 M 169.41 28.36 C 166.85 30.54 164.52 32.98 162.24 35.44 C 159.79 38.07 161.45 42.81 165.00 43.40 C 168.54 44.55 170.91 41.23 173.06 39.04 C 174.85 37.01 177.70 35.10 177.28 32.01 C 177.02 28.40 172.33 26.09 169.41 28.36 M 136.37 42.57 C 128.72 45.23 123.13 52.85 123.02 60.97 C 122.63 69.29 128.01 77.44 135.79 80.38 C 143.18 83.40 152.23 81.44 157.71 75.64 C 163.33 69.95 164.99 60.82 161.71 53.52 C 157.80 43.99 146.01 38.85 136.37 42.57 M 100.14 57.09 C 97.17 58.44 96.34 62.97 98.80 65.18 C 101.00 67.27 104.28 66.42 107.01 66.63 C 109.63 66.51 112.95 67.15 114.75 64.69 C 117.29 61.74 114.97 56.44 110.97 56.64 C 107.38 56.69 103.62 56.11 100.14 57.09 M 173.34 57.20 C 169.48 59.08 170.22 65.54 174.46 66.41 C 178.34 66.64 182.37 66.97 186.20 66.19 C 190.67 64.57 189.83 57.03 184.98 56.70 C 181.13 56.68 177.05 56.02 173.34 57.20 M 117.42 80.36 C 114.65 82.86 111.82 85.42 109.58 88.41 C 107.23 92.70 112.74 97.58 116.78 94.94 C 119.51 92.70 122.00 90.14 124.30 87.47 C 127.36 83.40 121.61 77.12 117.42 80.36 M 163.37 80.35 C 160.71 81.98 160.28 86.13 162.66 88.20 C 165.09 90.54 167.31 93.21 170.16 95.05 C 174.28 96.97 179.06 92.18 176.77 88.12 C 174.83 85.48 172.23 83.42 169.90 81.13 C 168.27 79.33 165.37 78.93 163.37 80.35 M 141.36 89.51 C 137.80 90.72 138.06 94.92 138.15 97.95 C 138.33 100.91 137.38 104.83 140.36 106.75 C 143.25 108.91 148.06 106.79 148.10 103.10 C 148.27 99.75 148.32 96.37 148.04 93.02 C 147.52 90.10 144.04 88.37 141.36 89.51 M 116.45 135.77 C 138.25 148.22 158.84 164.60 171.43 186.69 C 172.51 188.05 174.43 187.72 175.96 187.82 C 181.21 187.72 186.48 187.93 191.73 187.73 C 193.64 187.72 194.96 185.79 194.78 183.99 C 194.81 164.99 194.81 145.99 194.78 126.99 C 195.04 124.85 193.02 123.09 190.93 123.41 C 165.69 123.74 140.34 127.44 116.45 135.77 Z" />
</g>
<g id="#000000ff">
<path fill="#968176" opacity="1.00" d=" M 24.77 25.50 C 27.29 18.22 34.11 12.61 41.88 12.11 C 50.88 11.04 59.79 17.13 62.45 25.72 C 70.28 26.15 77.63 31.35 80.30 38.77 C 83.43 46.65 80.70 56.14 74.10 61.38 C 76.29 68.50 74.30 76.68 68.83 81.78 C 63.60 86.96 55.50 88.69 48.56 86.27 C 48.93 100.21 50.60 114.08 53.00 127.80 C 83.89 133.65 114.06 146.23 137.86 167.11 C 143.76 172.33 149.34 178.00 154.03 184.34 C 155.08 185.46 155.04 186.54 153.91 187.57 C 151.62 187.96 149.28 187.79 146.96 187.81 C 100.98 187.78 55.00 187.82 9.01 187.79 C 6.90 188.09 4.77 186.39 5.02 184.17 C 4.99 165.10 4.98 146.03 5.03 126.97 C 4.85 124.82 6.97 123.13 9.03 123.41 C 18.10 123.55 27.16 124.17 36.18 125.17 C 36.05 112.14 36.45 99.09 37.81 86.12 C 23.15 92.16 6.73 75.42 12.08 60.83 C 5.75 55.49 3.19 46.21 6.31 38.47 C 9.07 30.86 16.77 25.77 24.77 25.50 Z" />
<path fill="#968176" opacity="1.00" d=" M 140.40 16.40 C 143.27 14.32 147.98 16.36 148.10 19.97 C 148.07 23.78 148.80 27.85 147.54 31.50 C 145.36 35.89 137.85 34.00 138.22 29.03 C 138.67 24.91 136.59 19.36 140.40 16.40 Z" />
<path fill="#968176" opacity="1.00" d=" M 112.52 27.57 C 115.88 26.25 118.40 29.32 120.48 31.45 C 122.42 33.65 125.68 35.57 125.28 38.95 C 125.05 42.91 119.65 44.86 116.85 42.18 C 114.45 39.91 112.01 37.64 109.90 35.09 C 108.03 32.52 109.53 28.50 112.52 27.57 Z" />
<path fill="#968176" opacity="1.00" d=" M 169.41 28.36 C 172.33 26.09 177.02 28.40 177.28 32.01 C 177.70 35.10 174.85 37.01 173.06 39.04 C 170.91 41.23 168.54 44.55 165.00 43.40 C 161.45 42.81 159.79 38.07 162.24 35.44 C 164.52 32.98 166.85 30.54 169.41 28.36 Z" />
<path fill="#968176" opacity="1.00" d=" M 136.37 42.57 C 146.01 38.85 157.80 43.99 161.71 53.52 C 164.99 60.82 163.33 69.95 157.71 75.64 C 152.23 81.44 143.18 83.40 135.79 80.38 C 128.01 77.44 122.63 69.29 123.02 60.97 C 123.13 52.85 128.72 45.23 136.37 42.57 Z" />
<path fill="#968176" opacity="1.00" d=" M 100.14 57.09 C 103.62 56.11 107.38 56.69 110.97 56.64 C 114.97 56.44 117.29 61.74 114.75 64.69 C 112.95 67.15 109.63 66.51 107.01 66.63 C 104.28 66.42 101.00 67.27 98.80 65.18 C 96.34 62.97 97.17 58.44 100.14 57.09 Z" />
<path fill="#968176" opacity="1.00" d=" M 173.34 57.20 C 177.05 56.02 181.13 56.68 184.98 56.70 C 189.83 57.03 190.67 64.57 186.20 66.19 C 182.37 66.97 178.34 66.64 174.46 66.41 C 170.22 65.54 169.48 59.08 173.34 57.20 Z" />
<path fill="#968176" opacity="1.00" d=" M 117.42 80.36 C 121.61 77.12 127.36 83.40 124.30 87.47 C 122.00 90.14 119.51 92.70 116.78 94.94 C 112.74 97.58 107.23 92.70 109.58 88.41 C 111.82 85.42 114.65 82.86 117.42 80.36 Z" />
<path fill="#968176" opacity="1.00" d=" M 163.37 80.35 C 165.37 78.93 168.27 79.33 169.90 81.13 C 172.23 83.42 174.83 85.48 176.77 88.12 C 179.06 92.18 174.28 96.97 170.16 95.05 C 167.31 93.21 165.09 90.54 162.66 88.20 C 160.28 86.13 160.71 81.98 163.37 80.35 Z" />
<path fill="#968176" opacity="1.00" d=" M 141.36 89.51 C 144.04 88.37 147.52 90.10 148.04 93.02 C 148.32 96.37 148.27 99.75 148.10 103.10 C 148.06 106.79 143.25 108.91 140.36 106.75 C 137.38 104.83 138.33 100.91 138.15 97.95 C 138.06 94.92 137.80 90.72 141.36 89.51 Z" />
<path fill="#968176" opacity="1.00" d=" M 116.45 135.77 C 140.34 127.44 165.69 123.74 190.93 123.41 C 193.02 123.09 195.04 124.85 194.78 126.99 C 194.81 145.99 194.81 164.99 194.78 183.99 C 194.96 185.79 193.64 187.72 191.73 187.73 C 186.48 187.93 181.21 187.72 175.96 187.82 C 174.43 187.72 172.51 188.05 171.43 186.69 C 158.84 164.60 138.25 148.22 116.45 135.77 Z" />
</g>
</svg>
