<?xml version="1.0" encoding="UTF-8" ?>
<!DOCTYPE svg PUBLIC "-//W3C//DTD SVG 1.1//EN" "http://www.w3.org/Graphics/SVG/1.1/DTD/svg11.dtd">
<svg width="64pt" height="64pt" viewBox="0 0 64 64" version="1.1" xmlns="http://www.w3.org/2000/svg">
<g id="#ffffffff">
<path fill="#ffffff" opacity="1.00" d=" M 0.00 0.00 L 64.00 0.00 L 64.00 64.00 L 0.00 64.00 L 0.00 0.00 M 10.00 10.00 C 10.00 22.38 10.00 34.76 10.00 47.15 C 9.14 46.29 8.28 45.43 7.42 44.58 C 6.49 45.53 5.54 46.47 4.58 47.40 C 7.06 49.87 9.54 52.34 12.00 54.83 C 14.49 52.36 16.97 49.88 19.44 47.40 C 18.48 46.47 17.54 45.53 16.61 44.57 C 15.74 45.44 14.87 46.31 14.00 47.18 C 14.00 36.12 14.00 25.06 14.00 14.00 C 26.00 14.00 38.00 14.00 50.00 14.00 C 50.00 26.00 50.00 38.00 50.00 50.00 C 46.00 49.99 42.00 50.01 38.00 50.00 C 38.00 51.33 38.00 52.67 38.00 54.00 C 43.33 54.00 48.67 54.00 54.00 54.00 C 54.00 39.33 54.00 24.67 54.00 10.00 C 39.33 10.00 24.67 10.00 10.00 10.00 M 25.31 20.48 C 21.81 21.65 19.71 25.36 20.00 28.97 C 20.18 33.17 18.99 38.26 22.30 41.58 C 25.61 45.02 30.79 43.83 35.05 44.00 C 38.92 44.33 42.88 41.79 43.72 37.92 C 44.21 34.26 44.11 30.54 43.85 26.87 C 43.47 23.07 39.88 19.97 36.07 20.05 C 32.50 19.99 28.82 19.65 25.31 20.48 M 22.00 50.00 C 22.00 51.33 22.00 52.67 22.00 54.00 C 23.33 54.00 24.67 54.00 26.00 54.00 C 26.00 52.67 26.00 51.33 26.00 50.00 C 24.67 50.00 23.33 50.00 22.00 50.00 M 30.00 50.00 C 30.00 51.33 30.00 52.67 30.00 54.00 C 31.33 54.00 32.67 54.00 34.00 54.00 C 34.00 52.67 34.00 51.33 34.00 50.00 C 32.67 50.00 31.33 50.00 30.00 50.00 Z" />
<path fill="#ffffff" opacity="1.00" d=" M 23.70 27.96 C 24.40 26.12 25.52 23.89 27.87 24.06 C 32.13 24.26 38.97 22.22 40.30 27.96 C 34.77 28.03 29.23 28.02 23.70 27.96 Z" />
<path fill="#ffffff" opacity="1.00" d=" M 23.70 36.04 C 29.23 35.98 34.77 35.97 40.30 36.04 C 39.59 37.88 38.45 40.10 36.11 39.94 C 31.85 39.75 25.03 41.77 23.70 36.04 Z" />
</g>
<g id="#000000ff">
<path fill="#000000" opacity="1.00" d=" M 10.00 10.00 C 24.67 10.00 39.33 10.00 54.00 10.00 C 54.00 24.67 54.00 39.33 54.00 54.00 C 48.67 54.00 43.33 54.00 38.00 54.00 C 38.00 52.67 38.00 51.33 38.00 50.00 C 42.00 50.01 46.00 49.99 50.00 50.00 C 50.00 38.00 50.00 26.00 50.00 14.00 C 38.00 14.00 26.00 14.00 14.00 14.00 C 14.00 25.06 14.00 36.12 14.00 47.18 C 14.87 46.31 15.74 45.44 16.61 44.57 C 17.54 45.53 18.48 46.47 19.44 47.40 C 16.97 49.88 14.49 52.36 12.00 54.83 C 9.54 52.34 7.06 49.87 4.58 47.40 C 5.54 46.47 6.49 45.53 7.42 44.58 C 8.28 45.43 9.14 46.29 10.00 47.15 C 10.00 34.76 10.00 22.38 10.00 10.00 Z" />
<path fill="#000000" opacity="1.00" d=" M 25.31 20.48 C 28.82 19.65 32.50 19.99 36.07 20.05 C 39.88 19.97 43.47 23.07 43.85 26.87 C 44.11 30.54 44.21 34.26 43.72 37.92 C 42.88 41.79 38.92 44.33 35.05 44.00 C 30.79 43.83 25.61 45.02 22.30 41.58 C 18.99 38.26 20.18 33.17 20.00 28.97 C 19.71 25.36 21.81 21.65 25.31 20.48 M 23.70 27.96 C 29.23 28.02 34.77 28.03 40.30 27.96 C 38.97 22.22 32.13 24.26 27.87 24.06 C 25.52 23.89 24.40 26.12 23.70 27.96 M 23.70 36.04 C 25.03 41.77 31.85 39.75 36.11 39.94 C 38.45 40.10 39.59 37.88 40.30 36.04 C 34.77 35.97 29.23 35.98 23.70 36.04 Z" />
<path fill="#000000" opacity="1.00" d=" M 22.00 50.00 C 23.33 50.00 24.67 50.00 26.00 50.00 C 26.00 51.33 26.00 52.67 26.00 54.00 C 24.67 54.00 23.33 54.00 22.00 54.00 C 22.00 52.67 22.00 51.33 22.00 50.00 Z" />
<path fill="#000000" opacity="1.00" d=" M 30.00 50.00 C 31.33 50.00 32.67 50.00 34.00 50.00 C 34.00 51.33 34.00 52.67 34.00 54.00 C 32.67 54.00 31.33 54.00 30.00 54.00 C 30.00 52.67 30.00 51.33 30.00 50.00 Z" />
</g>
</svg>
