<?xml version="1.0" encoding="UTF-8" ?>
<!DOCTYPE svg PUBLIC "-//W3C//DTD SVG 1.1//EN" "http://www.w3.org/Graphics/SVG/1.1/DTD/svg11.dtd">
<svg width="64pt" height="64pt" viewBox="0 0 64 64" version="1.1" xmlns="http://www.w3.org/2000/svg">
<g id="#ffffffff">
<path fill="#ffffff" opacity="1.00" d=" M 0.00 0.00 L 64.00 0.00 L 64.00 64.00 L 0.00 64.00 L 0.00 0.00 M 18.70 7.16 C 20.42 9.21 22.14 11.26 23.83 13.34 C 24.02 16.05 25.16 18.53 27.09 20.44 C 17.34 22.47 9.36 30.06 6.05 39.35 C 7.30 39.77 8.56 40.18 9.81 40.60 C 11.73 35.47 15.22 31.10 19.56 27.81 C 16.48 34.45 18.14 42.84 23.98 47.40 C 24.02 51.60 24.00 55.80 24.00 60.00 C 25.33 60.00 26.67 60.00 28.00 60.00 C 28.00 56.50 28.00 52.99 27.99 49.49 C 30.64 50.04 33.36 50.04 36.01 49.49 C 36.00 52.99 36.00 56.50 36.00 60.00 C 37.33 60.00 38.67 60.00 40.00 60.00 C 40.00 55.80 39.98 51.60 40.02 47.40 C 45.83 42.83 47.52 34.47 44.45 27.83 C 48.79 31.12 52.27 35.48 54.19 40.61 C 55.44 40.19 56.69 39.77 57.95 39.35 C 54.61 30.10 46.69 22.41 36.91 20.45 C 38.82 18.53 39.97 16.06 40.17 13.35 C 41.86 11.28 43.58 9.23 45.30 7.18 C 40.89 5.35 36.47 3.57 32.02 1.84 C 27.59 3.64 23.14 5.41 18.70 7.16 Z" />
<path fill="#ffffff" opacity="1.00" d=" M 25.11 8.98 C 27.38 7.97 29.69 7.07 32.00 6.15 C 34.32 7.07 36.63 7.98 38.91 8.99 C 35.40 11.04 30.92 9.65 27.02 9.94 C 26.54 9.70 25.58 9.22 25.11 8.98 Z" />
<path fill="#ffffff" opacity="1.00" d=" M 27.72 14.04 C 30.57 13.98 33.43 13.98 36.28 14.05 C 35.62 15.96 34.37 18.13 32.02 18.00 C 29.66 18.15 28.36 15.99 27.72 14.04 Z" />
<path fill="#ffffff" opacity="1.00" d=" M 27.23 25.36 C 31.31 22.75 37.10 24.17 39.78 28.12 C 41.95 30.91 42.17 34.58 41.80 37.95 C 35.26 38.02 28.72 38.05 22.18 37.94 C 21.44 33.24 22.89 27.85 27.23 25.36 Z" />
<path fill="#ffffff" opacity="1.00" d=" M 24.25 42.09 C 29.43 41.94 34.61 41.95 39.78 42.08 C 37.68 44.15 35.10 46.09 31.99 45.96 C 28.89 46.08 26.32 44.17 24.25 42.09 Z" />
</g>
<g id="#000000ff">
<path fill="#000000" opacity="1.00" d=" M 18.70 7.16 C 23.14 5.41 27.59 3.64 32.02 1.84 C 36.47 3.57 40.89 5.35 45.30 7.18 C 43.58 9.23 41.86 11.28 40.17 13.35 C 39.97 16.06 38.82 18.53 36.91 20.45 C 46.69 22.41 54.61 30.10 57.95 39.35 C 56.69 39.77 55.44 40.19 54.19 40.61 C 52.27 35.48 48.79 31.12 44.45 27.83 C 47.52 34.47 45.83 42.83 40.02 47.40 C 39.98 51.60 40.00 55.80 40.00 60.00 C 38.67 60.00 37.33 60.00 36.00 60.00 C 36.00 56.50 36.00 52.99 36.01 49.49 C 33.36 50.04 30.64 50.04 27.99 49.49 C 28.00 52.99 28.00 56.50 28.00 60.00 C 26.67 60.00 25.33 60.00 24.00 60.00 C 24.00 55.80 24.02 51.60 23.98 47.40 C 18.14 42.84 16.48 34.45 19.56 27.81 C 15.22 31.10 11.73 35.47 9.81 40.60 C 8.56 40.18 7.30 39.77 6.05 39.35 C 9.36 30.06 17.34 22.47 27.09 20.44 C 25.16 18.53 24.02 16.05 23.83 13.34 C 22.14 11.26 20.42 9.21 18.70 7.16 M 25.11 8.98 C 25.58 9.22 26.54 9.70 27.02 9.94 C 30.92 9.65 35.40 11.04 38.91 8.99 C 36.63 7.98 34.32 7.07 32.00 6.15 C 29.69 7.07 27.38 7.97 25.11 8.98 M 27.72 14.04 C 28.36 15.99 29.66 18.15 32.02 18.00 C 34.37 18.13 35.62 15.96 36.28 14.05 C 33.43 13.98 30.57 13.98 27.72 14.04 M 27.23 25.36 C 22.89 27.85 21.44 33.24 22.18 37.94 C 28.72 38.05 35.26 38.02 41.80 37.95 C 42.17 34.58 41.95 30.91 39.78 28.12 C 37.10 24.17 31.31 22.75 27.23 25.36 M 24.25 42.09 C 26.32 44.17 28.89 46.08 31.99 45.96 C 35.10 46.09 37.68 44.15 39.78 42.08 C 34.61 41.95 29.43 41.94 24.25 42.09 Z" />
</g>
</svg>
