<?xml version="1.0" encoding="UTF-8" ?>
<!DOCTYPE svg PUBLIC "-//W3C//DTD SVG 1.1//EN" "http://www.w3.org/Graphics/SVG/1.1/DTD/svg11.dtd">
<svg width="60pt" height="60pt" viewBox="0 0 60 60" version="1.1" xmlns="http://www.w3.org/2000/svg">
<g id="#ffffffff">
<path fill="#ffffff" opacity="1.00" d=" M 0.00 0.00 L 60.00 0.00 L 60.00 60.00 L 0.00 60.00 L 0.00 0.00 M 13.45 6.57 C 11.01 7.64 9.77 10.37 10.00 12.95 C 10.03 24.67 9.94 36.40 10.05 48.12 C 9.99 51.23 12.76 53.98 15.85 53.95 C 26.57 54.01 37.30 54.08 48.02 53.92 C 50.60 54.16 50.60 49.84 48.02 50.08 C 37.33 49.82 26.63 50.18 15.94 49.93 C 13.43 50.18 13.41 45.85 15.90 46.07 C 25.98 45.84 36.07 46.15 46.14 45.95 C 48.62 45.97 50.33 43.43 49.99 41.11 C 50.01 31.04 50.01 20.96 49.99 10.89 C 50.31 8.55 48.62 5.93 46.08 6.05 C 37.04 5.91 28.00 6.06 18.96 5.98 C 17.13 6.05 15.18 5.82 13.45 6.57 Z" />
<path fill="#ffffff" opacity="1.00" d=" M 18.00 20.00 C 19.74 20.00 21.48 20.00 23.22 20.00 C 23.22 20.50 23.22 21.49 23.22 21.99 C 22.50 22.00 21.05 22.01 20.33 22.01 C 20.33 22.79 20.34 24.35 20.34 25.13 C 21.02 25.13 22.37 25.13 23.04 25.13 C 23.04 25.62 23.04 26.58 23.03 27.06 C 22.36 27.06 21.01 27.07 20.33 27.08 C 20.33 28.72 20.34 30.36 20.34 32.00 C 19.76 32.00 18.59 32.00 18.00 32.00 C 18.00 28.00 18.00 24.00 18.00 20.00 Z" />
<path fill="#ffffff" opacity="1.00" d=" M 26.47 19.90 C 29.47 19.52 33.79 19.90 33.27 24.04 C 32.89 24.32 32.12 24.89 31.73 25.17 C 32.67 26.53 34.30 28.17 33.24 29.96 C 32.14 32.65 28.77 31.96 26.46 32.18 C 26.45 28.09 26.44 23.99 26.47 19.90 M 29.07 22.02 C 28.07 22.84 28.85 25.70 30.30 24.47 C 31.55 23.67 30.48 20.83 29.07 22.02 M 29.13 27.12 C 28.02 28.02 28.91 31.12 30.50 29.87 C 31.82 29.00 30.69 25.93 29.13 27.12 Z" />
<path fill="#ffffff" opacity="1.00" d=" M 35.98 22.01 C 36.49 19.06 41.39 19.29 42.11 22.02 C 43.06 25.09 40.57 27.65 38.96 29.96 C 39.85 29.93 41.63 29.86 42.52 29.83 C 42.48 30.56 42.48 31.28 42.52 32.01 C 40.19 32.00 37.85 32.00 35.52 31.91 C 36.65 29.10 39.06 26.95 39.91 24.04 C 40.73 21.45 37.35 22.24 35.98 22.01 Z" />
</g>
<g id="#000000ff">
<path fill="#000000" opacity="1.00" d=" M 13.45 6.57 C 15.18 5.82 17.13 6.05 18.96 5.98 C 28.00 6.06 37.04 5.91 46.08 6.05 C 48.62 5.93 50.31 8.55 49.99 10.89 C 50.01 20.96 50.01 31.04 49.99 41.11 C 50.33 43.43 48.62 45.97 46.14 45.95 C 36.07 46.15 25.98 45.84 15.90 46.07 C 13.41 45.85 13.43 50.18 15.94 49.93 C 26.63 50.18 37.33 49.82 48.02 50.08 C 50.60 49.84 50.60 54.16 48.02 53.92 C 37.30 54.08 26.57 54.01 15.85 53.95 C 12.76 53.98 9.99 51.23 10.05 48.12 C 9.94 36.40 10.03 24.67 10.00 12.95 C 9.77 10.37 11.01 7.64 13.45 6.57 M 18.00 20.00 C 18.00 24.00 18.00 28.00 18.00 32.00 C 18.59 32.00 19.76 32.00 20.34 32.00 C 20.34 30.36 20.33 28.72 20.33 27.08 C 21.01 27.07 22.36 27.06 23.03 27.06 C 23.04 26.58 23.04 25.62 23.04 25.13 C 22.37 25.13 21.02 25.13 20.34 25.13 C 20.34 24.35 20.33 22.79 20.33 22.01 C 21.05 22.01 22.50 22.00 23.22 21.99 C 23.22 21.49 23.22 20.50 23.22 20.00 C 21.48 20.00 19.74 20.00 18.00 20.00 M 26.47 19.90 C 26.44 23.99 26.45 28.09 26.46 32.18 C 28.77 31.96 32.14 32.65 33.24 29.96 C 34.30 28.17 32.67 26.53 31.73 25.17 C 32.12 24.89 32.89 24.32 33.27 24.04 C 33.79 19.90 29.47 19.52 26.47 19.90 M 35.98 22.01 C 37.35 22.24 40.73 21.45 39.91 24.04 C 39.06 26.95 36.65 29.10 35.52 31.91 C 37.85 32.00 40.19 32.00 42.52 32.01 C 42.48 31.28 42.48 30.56 42.52 29.83 C 41.63 29.86 39.85 29.93 38.96 29.96 C 40.57 27.65 43.06 25.09 42.11 22.02 C 41.39 19.29 36.49 19.06 35.98 22.01 Z" />
<path fill="#000000" opacity="1.00" d=" M 29.07 22.02 C 30.48 20.83 31.55 23.67 30.30 24.47 C 28.85 25.70 28.07 22.84 29.07 22.02 Z" />
<path fill="#000000" opacity="1.00" d=" M 29.13 27.12 C 30.69 25.93 31.82 29.00 30.50 29.87 C 28.91 31.12 28.02 28.02 29.13 27.12 Z" />
</g>
</svg>
