<?xml version="1.0" encoding="UTF-8" ?>
<!DOCTYPE svg PUBLIC "-//W3C//DTD SVG 1.1//EN" "http://www.w3.org/Graphics/SVG/1.1/DTD/svg11.dtd">
<svg width="64pt" height="64pt" viewBox="0 0 64 64" version="1.1" xmlns="http://www.w3.org/2000/svg">
<g id="#ffffffff">
<path fill="#ffffff" opacity="1.00" d=" M 0.00 0.00 L 64.00 0.00 L 64.00 12.00 C 55.31 12.06 46.61 11.90 37.92 12.05 C 35.72 12.01 33.86 13.28 32.00 14.26 C 30.15 13.29 28.30 12.02 26.12 12.05 C 17.41 11.90 8.71 12.06 0.00 12.00 L 0.00 0.00 Z" />
<path fill="#ffffff" opacity="1.00" d=" M 4.00 16.00 C 11.64 16.10 19.30 15.81 26.93 16.13 C 29.00 16.25 29.61 18.43 30.33 20.00 C 31.44 20.00 32.56 20.00 33.67 20.00 C 34.37 18.42 35.02 16.23 37.09 16.12 C 44.72 15.81 52.37 16.10 60.00 16.00 C 60.00 26.00 60.00 36.00 60.00 46.00 C 52.65 46.04 45.29 45.92 37.94 46.04 C 35.68 45.94 33.79 47.23 32.00 48.41 C 30.22 47.25 28.35 45.95 26.12 46.04 C 18.75 45.92 11.37 46.04 4.00 46.00 C 4.00 36.00 4.00 26.00 4.00 16.00 M 14.00 24.00 C 14.00 29.33 14.00 34.67 14.00 40.00 C 15.33 40.00 16.67 40.00 18.00 40.00 C 18.00 38.00 18.00 36.00 18.00 34.00 C 19.33 34.00 20.67 34.00 22.00 34.00 C 22.00 32.67 22.00 31.33 22.00 30.00 C 20.67 30.00 19.33 30.00 18.00 30.00 C 18.00 29.50 18.00 28.50 18.00 28.00 C 20.00 28.00 22.00 28.00 24.00 28.00 C 24.00 26.67 24.00 25.33 24.00 24.00 C 20.67 24.00 17.33 24.00 14.00 24.00 M 26.00 23.98 C 26.00 29.33 26.00 34.67 26.00 40.02 C 29.00 39.81 32.88 40.83 34.97 38.02 C 36.51 36.28 35.88 33.94 35.14 32.00 C 35.86 30.09 36.51 27.77 35.01 26.03 C 32.96 23.15 29.02 24.19 26.00 23.98 M 37.77 30.06 C 39.86 30.01 42.48 30.59 42.81 27.73 C 43.80 28.51 44.38 29.58 43.91 30.85 C 42.13 33.01 39.97 34.81 37.99 36.78 C 37.99 37.59 38.00 39.20 38.00 40.00 C 41.34 40.00 44.67 40.00 48.00 40.00 C 48.00 38.66 48.00 37.32 48.00 35.98 C 47.17 36.00 45.50 36.02 44.67 36.04 C 48.51 33.50 49.69 26.65 45.01 24.42 C 41.22 22.60 37.58 26.31 37.77 30.06 Z" />
<path fill="#ffffff" opacity="1.00" d=" M 30.03 28.14 C 31.63 27.64 32.17 28.21 31.64 29.85 C 30.04 30.37 29.51 29.80 30.03 28.14 Z" />
<path fill="#ffffff" opacity="1.00" d=" M 30.03 34.14 C 31.63 33.64 32.17 34.21 31.64 35.85 C 30.04 36.37 29.51 35.80 30.03 34.14 Z" />
<path fill="#ffffff" opacity="1.00" d=" M 0.00 50.00 C 8.69 50.06 17.38 49.89 26.06 50.06 C 28.53 49.77 29.51 52.22 30.47 54.00 C 31.49 54.00 32.51 54.00 33.53 54.00 C 34.48 52.55 35.05 50.18 37.17 50.14 C 46.10 49.78 55.06 50.11 64.00 50.00 L 64.00 64.00 L 0.00 64.00 L 0.00 50.00 Z" />
</g>
<g id="#000000ff">
<path fill="#000000" opacity="1.00" d=" M 0.00 12.00 C 8.71 12.06 17.41 11.90 26.12 12.05 C 28.30 12.02 30.15 13.29 32.00 14.26 C 33.86 13.28 35.72 12.01 37.92 12.05 C 46.61 11.90 55.31 12.06 64.00 12.00 L 64.00 50.00 C 55.06 50.11 46.10 49.78 37.17 50.14 C 35.05 50.18 34.48 52.55 33.53 54.00 C 32.51 54.00 31.49 54.00 30.47 54.00 C 29.51 52.22 28.53 49.77 26.06 50.06 C 17.38 49.89 8.69 50.06 0.00 50.00 L 0.00 12.00 M 4.00 16.00 C 4.00 26.00 4.00 36.00 4.00 46.00 C 11.37 46.04 18.75 45.92 26.12 46.04 C 28.35 45.95 30.22 47.25 32.00 48.41 C 33.79 47.23 35.68 45.94 37.94 46.04 C 45.29 45.92 52.65 46.04 60.00 46.00 C 60.00 36.00 60.00 26.00 60.00 16.00 C 52.37 16.10 44.72 15.81 37.09 16.12 C 35.02 16.23 34.37 18.42 33.67 20.00 C 32.56 20.00 31.44 20.00 30.33 20.00 C 29.61 18.43 29.00 16.25 26.93 16.13 C 19.30 15.81 11.64 16.10 4.00 16.00 Z" />
<path fill="#000000" opacity="1.00" d=" M 14.00 24.00 C 17.33 24.00 20.67 24.00 24.00 24.00 C 24.00 25.33 24.00 26.67 24.00 28.00 C 22.00 28.00 20.00 28.00 18.00 28.00 C 18.00 28.50 18.00 29.50 18.00 30.00 C 19.33 30.00 20.67 30.00 22.00 30.00 C 22.00 31.33 22.00 32.67 22.00 34.00 C 20.67 34.00 19.33 34.00 18.00 34.00 C 18.00 36.00 18.00 38.00 18.00 40.00 C 16.67 40.00 15.33 40.00 14.00 40.00 C 14.00 34.67 14.00 29.33 14.00 24.00 Z" />
<path fill="#000000" opacity="1.00" d=" M 26.00 23.98 C 29.02 24.19 32.96 23.15 35.01 26.03 C 36.51 27.77 35.86 30.09 35.14 32.00 C 35.88 33.94 36.51 36.28 34.97 38.02 C 32.88 40.83 29.00 39.81 26.00 40.02 C 26.00 34.67 26.00 29.33 26.00 23.98 M 30.03 28.14 C 29.51 29.80 30.04 30.37 31.64 29.85 C 32.17 28.21 31.63 27.64 30.03 28.14 M 30.03 34.14 C 29.51 35.80 30.04 36.37 31.64 35.85 C 32.17 34.21 31.63 33.64 30.03 34.14 Z" />
<path fill="#000000" opacity="1.00" d=" M 37.77 30.06 C 37.58 26.31 41.22 22.60 45.01 24.42 C 49.69 26.65 48.51 33.50 44.67 36.04 C 45.50 36.02 47.17 36.00 48.00 35.98 C 48.00 37.32 48.00 38.66 48.00 40.00 C 44.67 40.00 41.34 40.00 38.00 40.00 C 38.00 39.20 37.99 37.59 37.99 36.78 C 39.97 34.81 42.13 33.01 43.91 30.85 C 44.38 29.58 43.80 28.51 42.81 27.73 C 42.48 30.59 39.86 30.01 37.77 30.06 Z" />
</g>
</svg>
