<?xml version="1.0" encoding="UTF-8" ?>
<!DOCTYPE svg PUBLIC "-//W3C//DTD SVG 1.1//EN" "http://www.w3.org/Graphics/SVG/1.1/DTD/svg11.dtd">
<svg width="64pt" height="64pt" viewBox="0 0 64 64" version="1.1" xmlns="http://www.w3.org/2000/svg">
<g id="#ffffffff">
<path fill="#ffffff" opacity="1.00" d=" M 0.00 0.00 L 64.00 0.00 L 64.00 64.00 L 0.00 64.00 L 0.00 0.00 M 8.19 20.01 C 4.67 27.53 5.48 36.85 10.27 43.63 C 15.04 50.64 23.71 54.74 32.16 53.88 C 37.06 53.51 41.64 51.35 45.48 48.37 C 48.51 51.39 51.55 54.41 54.56 57.45 C 55.51 56.46 56.46 55.47 57.45 54.52 C 54.38 51.55 51.38 48.50 48.36 45.48 C 55.17 37.44 55.91 24.96 49.72 16.37 C 44.98 9.36 36.34 5.28 27.91 6.11 C 19.47 6.75 11.66 12.30 8.19 20.01 Z" />
<path fill="#ffffff" opacity="1.00" d=" M 10.92 24.04 C 13.22 16.20 20.80 10.32 28.96 10.04 C 33.93 9.66 38.78 11.53 42.71 14.48 C 33.38 23.93 23.81 33.14 14.64 42.74 C 10.31 37.67 8.87 30.37 10.92 24.04 M 28.00 12.00 C 28.00 13.28 28.00 14.55 28.00 15.83 C 25.26 16.27 22.41 17.43 21.07 20.03 C 18.89 23.61 20.28 28.47 23.68 30.75 C 24.61 29.78 25.55 28.82 26.51 27.88 C 24.53 26.61 23.05 23.91 24.71 21.77 C 26.91 18.79 31.03 20.50 34.11 19.92 C 35.82 19.02 36.93 17.35 38.26 16.00 C 36.17 16.00 34.09 16.00 32.00 16.00 C 32.00 14.66 32.00 13.33 32.00 12.00 C 30.67 12.00 29.33 12.00 28.00 12.00 Z" />
<path fill="#ffffff" opacity="1.00" d=" M 17.29 45.58 C 26.68 36.10 36.11 26.65 45.61 17.27 C 48.86 21.83 50.75 27.54 49.73 33.15 C 48.55 41.49 41.50 48.55 33.16 49.73 C 27.55 50.74 21.81 48.88 17.29 45.58 M 33.47 32.12 C 35.49 33.38 36.92 36.09 35.30 38.25 C 33.10 41.22 28.94 39.49 25.86 40.08 C 24.18 41.01 23.06 42.64 21.75 44.00 C 23.83 44.00 25.91 44.00 28.00 44.00 C 28.00 45.34 28.00 46.67 28.00 48.00 C 29.33 48.00 30.67 48.00 32.00 48.00 C 32.00 46.72 32.00 45.44 32.00 44.17 C 34.75 43.71 37.61 42.54 38.94 39.92 C 41.09 36.35 39.72 31.50 36.30 29.25 C 35.38 30.23 34.44 31.19 33.47 32.12 Z" />
</g>
<g id="#000000ff">
<path fill="#000000" opacity="1.00" d=" M 8.19 20.01 C 11.66 12.30 19.47 6.75 27.91 6.11 C 36.34 5.28 44.98 9.36 49.72 16.37 C 55.91 24.96 55.17 37.44 48.36 45.48 C 51.38 48.50 54.38 51.55 57.45 54.52 C 56.46 55.47 55.51 56.46 54.56 57.45 C 51.55 54.41 48.51 51.39 45.48 48.37 C 41.64 51.35 37.06 53.51 32.16 53.88 C 23.71 54.74 15.04 50.64 10.27 43.63 C 5.48 36.85 4.67 27.53 8.19 20.01 M 10.92 24.04 C 8.87 30.37 10.31 37.67 14.64 42.74 C 23.81 33.14 33.38 23.93 42.71 14.48 C 38.78 11.53 33.93 9.66 28.96 10.04 C 20.80 10.32 13.22 16.20 10.92 24.04 M 17.29 45.58 C 21.81 48.88 27.55 50.74 33.16 49.73 C 41.50 48.55 48.55 41.49 49.73 33.15 C 50.75 27.54 48.86 21.83 45.61 17.27 C 36.11 26.65 26.68 36.10 17.29 45.58 Z" />
<path fill="#000000" opacity="1.00" d=" M 28.00 12.00 C 29.33 12.00 30.67 12.00 32.00 12.00 C 32.00 13.33 32.00 14.66 32.00 16.00 C 34.09 16.00 36.17 16.00 38.26 16.00 C 36.93 17.35 35.82 19.02 34.11 19.92 C 31.03 20.50 26.91 18.79 24.71 21.77 C 23.05 23.91 24.53 26.61 26.51 27.88 C 25.55 28.82 24.61 29.78 23.68 30.75 C 20.28 28.47 18.89 23.61 21.07 20.03 C 22.41 17.43 25.26 16.27 28.00 15.83 C 28.00 14.55 28.00 13.28 28.00 12.00 Z" />
<path fill="#000000" opacity="1.00" d=" M 33.47 32.12 C 34.44 31.19 35.38 30.23 36.30 29.25 C 39.72 31.50 41.09 36.35 38.94 39.92 C 37.61 42.54 34.75 43.71 32.00 44.17 C 32.00 45.44 32.00 46.72 32.00 48.00 C 30.67 48.00 29.33 48.00 28.00 48.00 C 28.00 46.67 28.00 45.34 28.00 44.00 C 25.91 44.00 23.83 44.00 21.75 44.00 C 23.06 42.64 24.18 41.01 25.86 40.08 C 28.94 39.49 33.10 41.22 35.30 38.25 C 36.92 36.09 35.49 33.38 33.47 32.12 Z" />
</g>
</svg>
