<?xml version="1.0" encoding="UTF-8" ?>
<!DOCTYPE svg PUBLIC "-//W3C//DTD SVG 1.1//EN" "http://www.w3.org/Graphics/SVG/1.1/DTD/svg11.dtd">
<svg width="60pt" height="60pt" viewBox="0 0 60 60" version="1.1" xmlns="http://www.w3.org/2000/svg">
<g id="#ffffffff">
<path fill="#ffffff" opacity="1.00" d=" M 0.00 0.00 L 60.00 0.00 L 60.00 60.00 L 0.00 60.00 L 0.00 0.00 M 4.69 14.23 C 5.81 16.06 8.19 15.89 10.02 16.24 C 10.16 23.38 9.62 30.55 10.33 37.67 C 15.53 38.34 20.78 37.87 26.00 38.00 C 33.58 37.88 41.18 38.24 48.74 37.84 C 49.02 37.57 49.57 37.01 49.84 36.74 C 50.23 29.92 49.90 23.07 49.98 16.24 C 51.81 15.89 54.20 16.06 55.29 14.21 C 57.23 11.81 55.03 7.81 52.00 8.04 C 37.33 7.97 22.66 7.97 8.00 8.04 C 4.97 7.86 2.77 11.80 4.69 14.23 M 11.20 42.17 C 10.19 42.75 9.81 43.62 10.08 44.76 C 11.09 46.51 13.29 45.85 14.94 46.02 C 25.94 45.92 36.95 46.11 47.94 45.93 C 50.61 46.22 50.62 41.79 47.95 42.07 C 35.70 42.02 23.43 41.82 11.20 42.17 M 11.20 50.16 C 9.20 50.94 9.91 54.16 12.06 53.93 C 23.71 54.09 35.37 53.97 47.02 53.99 C 48.29 54.15 50.15 53.60 49.95 51.98 C 50.18 49.93 47.48 49.94 46.06 49.99 C 34.44 50.13 22.80 49.77 11.20 50.16 Z" />
<path fill="#ffffff" opacity="1.00" d=" M 14.00 12.00 C 24.67 12.00 35.33 12.00 46.00 12.00 C 46.00 19.33 46.00 26.66 46.00 34.00 C 35.33 34.00 24.67 34.00 14.00 34.00 C 14.00 26.67 14.00 19.33 14.00 12.00 Z" />
</g>
<g id="#000000ff">
<path fill="#000000" opacity="1.00" d=" M 4.69 14.23 C 2.77 11.80 4.97 7.86 8.00 8.04 C 22.66 7.97 37.33 7.97 52.00 8.04 C 55.03 7.81 57.23 11.81 55.29 14.21 C 54.20 16.06 51.81 15.89 49.98 16.24 C 49.90 23.07 50.23 29.92 49.84 36.74 C 49.57 37.01 49.02 37.57 48.74 37.84 C 41.18 38.24 33.58 37.88 26.00 38.00 C 20.78 37.87 15.53 38.34 10.33 37.67 C 9.62 30.55 10.16 23.38 10.02 16.24 C 8.19 15.89 5.81 16.06 4.69 14.23 M 14.00 12.00 C 14.00 19.33 14.00 26.67 14.00 34.00 C 24.67 34.00 35.33 34.00 46.00 34.00 C 46.00 26.66 46.00 19.33 46.00 12.00 C 35.33 12.00 24.67 12.00 14.00 12.00 Z" />
<path fill="#000000" opacity="1.00" d=" M 11.20 42.17 C 23.43 41.82 35.70 42.02 47.95 42.07 C 50.62 41.79 50.61 46.22 47.94 45.93 C 36.95 46.11 25.94 45.92 14.94 46.02 C 13.29 45.85 11.09 46.51 10.08 44.76 C 9.81 43.62 10.19 42.75 11.20 42.17 Z" />
<path fill="#000000" opacity="1.00" d=" M 11.20 50.16 C 22.80 49.77 34.44 50.13 46.06 49.99 C 47.48 49.94 50.18 49.93 49.95 51.98 C 50.15 53.60 48.29 54.15 47.02 53.99 C 35.37 53.97 23.71 54.09 12.06 53.93 C 9.91 54.16 9.20 50.94 11.20 50.16 Z" />
</g>
</svg>
