<?xml version="1.0" encoding="UTF-8" ?>
<!DOCTYPE svg PUBLIC "-//W3C//DTD SVG 1.1//EN" "http://www.w3.org/Graphics/SVG/1.1/DTD/svg11.dtd">
<svg width="60pt" height="60pt" viewBox="0 0 60 60" version="1.1" xmlns="http://www.w3.org/2000/svg">
<g id="#ffffffff">
<path fill="#ffffff" opacity="1.00" d=" M 0.00 0.00 L 60.00 0.00 L 60.00 60.00 L 0.00 60.00 L 0.00 0.00 M 9.15 18.13 C 5.24 24.84 4.98 33.46 8.43 40.42 C 9.06 41.36 9.53 43.29 11.01 42.96 C 12.36 43.21 12.95 41.60 13.53 40.69 C 14.76 36.75 14.20 31.68 17.93 28.95 C 21.04 26.52 26.47 28.83 25.98 33.03 C 26.04 36.68 22.73 38.78 19.68 39.83 C 16.92 40.69 16.73 44.13 14.56 45.67 C 11.37 48.12 6.92 49.51 5.72 53.81 C 9.05 51.73 12.68 50.11 16.66 49.97 C 24.07 54.90 34.20 55.37 41.89 50.82 C 50.19 46.18 55.17 36.33 53.77 26.89 C 52.57 16.04 43.04 6.87 32.14 6.12 C 22.96 5.12 13.64 10.13 9.15 18.13 Z" />
<path fill="#ffffff" opacity="1.00" d=" M 34.35 16.52 C 39.10 14.33 44.92 18.92 43.91 24.04 C 43.36 29.19 36.50 31.88 32.62 28.44 C 28.49 25.42 29.54 18.25 34.35 16.52 Z" />
</g>
<g id="#000000ff">
<path fill="#000000" opacity="1.00" d=" M 9.15 18.13 C 13.64 10.13 22.96 5.12 32.14 6.12 C 43.04 6.87 52.57 16.04 53.77 26.89 C 55.17 36.33 50.19 46.18 41.89 50.82 C 34.20 55.37 24.07 54.90 16.66 49.97 C 12.68 50.11 9.05 51.73 5.72 53.81 C 6.92 49.51 11.37 48.12 14.56 45.67 C 16.73 44.13 16.92 40.69 19.68 39.83 C 22.73 38.78 26.04 36.68 25.98 33.03 C 26.47 28.83 21.04 26.52 17.93 28.95 C 14.20 31.68 14.76 36.75 13.53 40.69 C 12.95 41.60 12.36 43.21 11.01 42.96 C 9.53 43.29 9.06 41.36 8.43 40.42 C 4.98 33.46 5.24 24.84 9.15 18.13 M 34.35 16.52 C 29.54 18.25 28.49 25.42 32.62 28.44 C 36.50 31.88 43.36 29.19 43.91 24.04 C 44.92 18.92 39.10 14.33 34.35 16.52 Z" />
</g>
</svg>
