<?xml version="1.0" encoding="UTF-8" ?>
<!DOCTYPE svg PUBLIC "-//W3C//DTD SVG 1.1//EN" "http://www.w3.org/Graphics/SVG/1.1/DTD/svg11.dtd">
<svg width="64pt" height="64pt" viewBox="0 0 64 64" version="1.1" xmlns="http://www.w3.org/2000/svg">
<g id="#ffffffff">
<path fill="#ffffff" opacity="1.00" d=" M 0.00 0.00 L 64.00 0.00 L 64.00 64.00 L 0.00 64.00 L 0.00 0.00 M 22.09 10.16 C 14.01 13.75 8.31 22.10 8.04 30.96 C 7.69 36.58 9.68 42.10 12.97 46.60 C 13.80 45.54 14.68 44.51 15.58 43.51 C 12.08 38.16 10.91 31.22 13.21 25.17 C 16.02 17.10 24.46 11.45 33.01 12.04 C 42.18 12.33 50.45 19.77 51.73 28.85 C 53.22 37.21 48.60 46.12 40.99 49.84 C 36.12 52.41 30.28 52.52 25.11 50.83 C 24.21 51.90 23.33 52.99 22.47 54.09 C 26.78 55.71 31.47 56.49 36.05 55.64 C 45.06 54.19 52.82 47.12 55.14 38.30 C 57.51 29.95 54.82 20.44 48.44 14.56 C 41.63 7.91 30.69 6.12 22.09 10.16 M 22.59 38.85 C 20.73 41.89 19.38 45.29 17.08 48.05 C 14.81 50.70 11.30 51.57 8.00 52.12 C 8.00 53.45 8.01 54.78 8.01 56.11 C 11.44 55.67 14.96 54.93 17.76 52.78 C 21.60 50.08 23.30 45.56 25.57 41.65 C 31.18 42.92 38.52 40.13 39.81 34.02 C 41.04 28.80 36.23 23.41 30.91 24.05 C 24.17 24.67 20.66 32.92 22.59 38.85 Z" />
<path fill="#ffffff" opacity="1.00" d=" M 30.21 28.21 C 33.76 26.80 37.48 31.21 35.48 34.47 C 33.66 37.12 29.61 38.83 26.58 37.42 C 25.12 34.22 27.01 29.64 30.21 28.21 Z" />
</g>
<g id="#000000ff">
<path fill="#000000" opacity="1.00" d=" M 22.09 10.16 C 30.69 6.12 41.63 7.91 48.44 14.56 C 54.82 20.44 57.51 29.95 55.14 38.30 C 52.82 47.12 45.06 54.19 36.05 55.64 C 31.47 56.49 26.78 55.71 22.47 54.09 C 23.33 52.99 24.21 51.90 25.11 50.83 C 30.28 52.52 36.12 52.41 40.99 49.84 C 48.60 46.12 53.22 37.21 51.73 28.85 C 50.45 19.77 42.18 12.33 33.01 12.04 C 24.46 11.45 16.02 17.10 13.21 25.17 C 10.91 31.22 12.08 38.16 15.58 43.51 C 14.68 44.51 13.80 45.54 12.97 46.60 C 9.68 42.10 7.69 36.58 8.04 30.96 C 8.31 22.10 14.01 13.75 22.09 10.16 Z" />
<path fill="#000000" opacity="1.00" d=" M 22.59 38.85 C 20.66 32.92 24.17 24.67 30.91 24.05 C 36.23 23.41 41.04 28.80 39.81 34.02 C 38.52 40.13 31.18 42.92 25.57 41.65 C 23.30 45.56 21.60 50.08 17.76 52.78 C 14.96 54.93 11.44 55.67 8.01 56.11 C 8.01 54.78 8.00 53.45 8.00 52.12 C 11.30 51.57 14.81 50.70 17.08 48.05 C 19.38 45.29 20.73 41.89 22.59 38.85 M 30.21 28.21 C 27.01 29.64 25.12 34.22 26.58 37.42 C 29.61 38.83 33.66 37.12 35.48 34.47 C 37.48 31.21 33.76 26.80 30.21 28.21 Z" />
</g>
</svg>
