<?xml version="1.0" encoding="UTF-8" ?>
<!DOCTYPE svg PUBLIC "-//W3C//DTD SVG 1.1//EN" "http://www.w3.org/Graphics/SVG/1.1/DTD/svg11.dtd">
<svg width="60pt" height="60pt" viewBox="0 0 60 60" version="1.1" xmlns="http://www.w3.org/2000/svg">
<g id="#ffffffff">
<path fill="#ffffff" opacity="1.00" d=" M 0.00 0.00 L 52.87 0.00 C 50.92 5.77 52.52 12.12 51.97 18.12 C 50.09 19.57 47.86 21.29 48.00 23.96 C 47.85 27.86 52.15 31.06 55.84 29.69 C 58.07 29.08 59.35 26.98 60.00 24.90 L 60.00 60.00 L 0.00 60.00 L 0.00 0.00 M 23.72 4.85 C 17.99 6.15 12.67 9.84 10.19 15.27 C 7.15 21.74 8.13 29.09 8.04 36.01 C 7.89 39.19 9.75 42.01 12.41 43.61 C 15.15 49.49 20.20 54.81 26.89 55.73 C 34.84 57.28 42.94 52.58 46.54 45.54 C 47.70 43.02 50.62 41.83 51.48 39.14 C 52.04 37.47 51.94 35.68 52.08 33.95 C 49.64 33.11 47.43 31.77 45.69 29.85 C 45.78 30.89 45.94 32.96 46.02 33.99 C 46.55 34.00 47.60 34.01 48.12 34.02 C 48.28 36.81 47.51 39.75 44.50 40.58 C 42.28 46.66 36.88 52.24 29.98 51.99 C 23.11 52.24 17.67 46.68 15.51 40.58 C 12.49 39.76 11.70 36.82 11.88 34.02 C 12.37 34.02 13.36 34.00 13.85 33.99 C 14.15 31.22 15.08 28.13 17.86 26.90 C 23.33 24.42 29.82 25.09 35.01 21.86 C 37.28 20.59 38.61 18.30 40.06 16.24 C 41.93 17.83 42.80 20.23 44.07 22.27 C 44.80 19.84 46.11 17.65 47.98 15.93 C 47.97 14.68 47.97 13.44 47.98 12.19 C 45.90 9.94 43.27 8.21 40.17 7.81 C 35.95 3.42 29.23 3.44 23.72 4.85 M 20.39 34.70 C 19.98 36.10 22.26 35.82 23.08 35.95 C 25.99 35.42 26.46 32.09 25.20 29.85 C 23.56 31.42 21.83 32.93 20.39 34.70 M 34.79 34.62 C 36.04 36.49 38.42 35.91 40.16 35.17 C 38.56 33.52 37.01 31.82 35.28 30.32 C 33.57 30.50 33.76 33.58 34.79 34.62 M 28.20 40.26 C 26.24 40.99 23.50 42.42 24.09 44.93 C 25.88 47.31 28.03 44.56 30.01 43.99 C 31.90 44.56 34.41 47.48 35.86 44.76 C 36.23 41.18 31.13 39.34 28.20 40.26 Z" />
<path fill="#ffffff" opacity="1.00" d=" M 55.19 0.00 L 60.00 0.00 L 60.00 5.15 C 58.88 4.37 57.55 4.06 56.25 3.71 C 55.93 2.47 55.60 1.22 55.19 0.00 Z" />
<path fill="#ffffff" opacity="1.00" d=" M 56.00 8.31 C 57.34 7.96 58.68 7.61 60.00 7.16 L 60.00 13.16 C 58.83 12.28 57.37 12.04 56.00 11.68 C 56.00 10.56 56.00 9.43 56.00 8.31 Z" />
<path fill="#ffffff" opacity="1.00" d=" M 55.58 16.44 C 57.06 16.03 58.55 15.65 60.00 15.17 L 60.00 23.12 C 59.31 20.39 56.50 19.05 55.58 16.44 Z" />
<path fill="#ffffff" opacity="1.00" d=" M 53.15 22.12 C 55.59 21.13 57.18 24.83 54.79 25.90 C 52.38 26.83 50.87 23.23 53.15 22.12 Z" />
</g>
<g id="#000000ff">
<path fill="#000000" opacity="1.00" d=" M 52.87 0.00 L 55.19 0.00 C 55.60 1.22 55.93 2.47 56.25 3.71 C 57.55 4.06 58.88 4.37 60.00 5.15 L 60.00 7.16 C 58.68 7.61 57.34 7.96 56.00 8.31 C 56.00 9.43 56.00 10.56 56.00 11.68 C 57.37 12.04 58.83 12.28 60.00 13.16 L 60.00 15.17 C 58.55 15.65 57.06 16.03 55.58 16.44 C 56.50 19.05 59.31 20.39 60.00 23.12 L 60.00 24.90 C 59.35 26.98 58.07 29.08 55.84 29.69 C 52.15 31.06 47.85 27.86 48.00 23.96 C 47.86 21.29 50.09 19.57 51.97 18.12 C 52.52 12.12 50.92 5.77 52.87 0.00 M 53.15 22.12 C 50.87 23.23 52.38 26.83 54.79 25.90 C 57.18 24.83 55.59 21.13 53.15 22.12 Z" />
<path fill="#000000" opacity="1.00" d=" M 23.72 4.85 C 29.23 3.44 35.95 3.42 40.17 7.81 C 43.27 8.21 45.90 9.94 47.98 12.19 C 47.97 13.44 47.97 14.68 47.98 15.93 C 46.11 17.65 44.80 19.84 44.07 22.27 C 42.80 20.23 41.93 17.83 40.06 16.24 C 38.61 18.30 37.28 20.59 35.01 21.86 C 29.82 25.09 23.33 24.42 17.86 26.90 C 15.08 28.13 14.15 31.22 13.85 33.99 C 13.36 34.00 12.37 34.02 11.88 34.02 C 11.70 36.82 12.49 39.76 15.51 40.58 C 17.67 46.68 23.11 52.24 29.98 51.99 C 36.88 52.24 42.28 46.66 44.50 40.58 C 47.51 39.75 48.28 36.81 48.12 34.02 C 47.60 34.01 46.55 34.00 46.02 33.99 C 45.94 32.96 45.78 30.89 45.69 29.85 C 47.43 31.77 49.64 33.11 52.08 33.95 C 51.94 35.68 52.04 37.47 51.48 39.14 C 50.62 41.83 47.70 43.02 46.54 45.54 C 42.94 52.58 34.84 57.28 26.89 55.73 C 20.20 54.81 15.15 49.49 12.41 43.61 C 9.75 42.01 7.89 39.19 8.04 36.01 C 8.13 29.09 7.15 21.74 10.19 15.27 C 12.67 9.84 17.99 6.15 23.72 4.85 Z" />
<path fill="#000000" opacity="1.00" d=" M 20.39 34.70 C 21.83 32.93 23.56 31.42 25.20 29.85 C 26.46 32.09 25.99 35.42 23.08 35.95 C 22.26 35.82 19.98 36.10 20.39 34.70 Z" />
<path fill="#000000" opacity="1.00" d=" M 34.79 34.62 C 33.76 33.58 33.57 30.50 35.28 30.32 C 37.01 31.82 38.56 33.52 40.16 35.17 C 38.42 35.91 36.04 36.49 34.79 34.62 Z" />
<path fill="#000000" opacity="1.00" d=" M 28.20 40.26 C 31.13 39.34 36.23 41.18 35.86 44.76 C 34.41 47.48 31.90 44.56 30.01 43.99 C 28.03 44.56 25.88 47.31 24.09 44.93 C 23.50 42.42 26.24 40.99 28.20 40.26 Z" />
</g>
</svg>
