<?xml version="1.0" encoding="UTF-8" ?>
<!DOCTYPE svg PUBLIC "-//W3C//DTD SVG 1.1//EN" "http://www.w3.org/Graphics/SVG/1.1/DTD/svg11.dtd">
<svg width="60pt" height="60pt" viewBox="0 0 60 60" version="1.1" xmlns="http://www.w3.org/2000/svg">
<g id="#ffffffff">
<path fill="#ffffff" opacity="1.00" d=" M 0.00 0.00 L 60.00 0.00 L 60.00 60.00 L 0.00 60.00 L 0.00 0.00 M 25.66 10.59 C 18.97 12.50 13.89 18.98 14.04 26.01 C 14.09 30.74 13.97 35.55 12.20 40.01 C 24.06 39.99 35.92 39.99 47.78 40.02 C 45.99 35.54 45.92 30.72 45.96 25.98 C 46.08 18.96 41.03 12.50 34.33 10.58 C 33.80 8.44 32.62 5.83 29.98 6.00 C 27.39 5.90 26.16 8.44 25.66 10.59 M 9.20 47.82 C 14.16 48.27 19.15 47.88 24.13 47.99 C 24.10 49.93 23.85 52.12 25.28 53.68 C 27.49 56.73 32.55 56.72 34.74 53.66 C 36.15 52.09 35.89 49.92 35.87 47.99 C 40.60 47.92 45.34 48.18 50.06 47.90 C 51.49 48.04 52.32 46.45 51.90 45.21 C 51.18 43.72 49.39 44.12 48.06 43.98 C 35.36 44.10 22.65 43.84 9.95 44.10 C 7.85 43.86 7.26 47.16 9.20 47.82 Z" />
</g>
<g id="#000000ff">
<path fill="#968176" opacity="1.00" d=" M 25.66 10.59 C 26.16 8.44 27.39 5.90 29.98 6.00 C 32.62 5.83 33.80 8.44 34.33 10.58 C 41.03 12.50 46.08 18.96 45.96 25.98 C 45.92 30.72 45.99 35.54 47.78 40.02 C 35.92 39.99 24.06 39.99 12.20 40.01 C 13.97 35.55 14.09 30.74 14.04 26.01 C 13.89 18.98 18.97 12.50 25.66 10.59 Z" />
<path fill="#968176" opacity="1.00" d=" M 9.20 47.82 C 7.26 47.16 7.85 43.86 9.95 44.10 C 22.65 43.84 35.36 44.10 48.06 43.98 C 49.39 44.12 51.18 43.72 51.90 45.21 C 52.32 46.45 51.49 48.04 50.06 47.90 C 45.34 48.18 40.60 47.92 35.87 47.99 C 35.89 49.92 36.15 52.09 34.74 53.66 C 32.55 56.72 27.49 56.73 25.28 53.68 C 23.85 52.12 24.10 49.93 24.13 47.99 C 19.15 47.88 14.16 48.27 9.20 47.82 Z" />
</g>
</svg>
