<?xml version="1.0" encoding="UTF-8" ?>
<!DOCTYPE svg PUBLIC "-//W3C//DTD SVG 1.1//EN" "http://www.w3.org/Graphics/SVG/1.1/DTD/svg11.dtd">
<svg width="60pt" height="60pt" viewBox="0 0 60 60" version="1.1" xmlns="http://www.w3.org/2000/svg">
<g id="#ffffffff">
<path fill="#ffffff" opacity="1.00" d=" M 0.00 0.00 L 60.00 0.00 L 60.00 60.00 L 0.00 60.00 L 0.00 0.00 M 12.05 9.90 C 23.37 10.19 34.70 9.84 46.02 10.06 C 49.22 9.99 52.01 12.79 51.94 15.98 C 52.16 24.63 51.81 33.30 52.11 41.95 C 54.23 41.93 56.02 40.15 55.94 38.00 C 56.04 28.67 56.05 19.33 55.93 10.00 C 56.06 7.83 54.19 5.91 52.00 6.06 C 40.32 5.92 28.63 6.02 16.94 6.01 C 14.53 5.71 12.00 7.29 12.05 9.90 M 4.01 18.94 C 4.07 28.26 3.81 37.58 4.15 46.89 C 5.15 51.35 10.70 49.64 13.97 50.03 C 14.49 52.54 12.45 58.41 16.74 57.79 C 19.44 55.74 20.62 52.28 23.18 50.10 C 30.40 49.73 37.66 50.30 44.87 49.84 C 47.17 49.57 48.16 47.11 47.99 45.06 C 47.97 36.04 48.09 27.02 47.93 18.00 C 48.14 15.32 45.48 13.69 43.05 14.01 C 31.37 14.03 19.68 13.91 8.00 14.07 C 5.33 13.89 3.70 16.51 4.01 18.94 Z" />
</g>
<g id="#000000ff">
<path fill="#000000" opacity="1.00" d=" M 12.05 9.90 C 12.00 7.29 14.53 5.71 16.94 6.01 C 28.63 6.02 40.32 5.92 52.00 6.06 C 54.19 5.91 56.06 7.83 55.93 10.00 C 56.05 19.33 56.04 28.67 55.94 38.00 C 56.02 40.15 54.23 41.93 52.11 41.95 C 51.81 33.30 52.16 24.63 51.94 15.98 C 52.01 12.79 49.22 9.99 46.02 10.06 C 34.70 9.84 23.37 10.19 12.05 9.90 Z" />
<path fill="#000000" opacity="1.00" d=" M 4.01 18.94 C 3.70 16.51 5.33 13.89 8.00 14.07 C 19.68 13.91 31.37 14.03 43.05 14.01 C 45.48 13.69 48.14 15.32 47.93 18.00 C 48.09 27.02 47.97 36.04 47.99 45.06 C 48.16 47.11 47.17 49.57 44.87 49.84 C 37.66 50.30 30.40 49.73 23.18 50.10 C 20.62 52.28 19.44 55.74 16.74 57.79 C 12.45 58.41 14.49 52.54 13.97 50.03 C 10.70 49.64 5.15 51.35 4.15 46.89 C 3.81 37.58 4.07 28.26 4.01 18.94 Z" />
</g>
</svg>
