<?xml version="1.0" encoding="UTF-8" ?>
<!DOCTYPE svg PUBLIC "-//W3C//DTD SVG 1.1//EN" "http://www.w3.org/Graphics/SVG/1.1/DTD/svg11.dtd">
<svg width="60pt" height="60pt" viewBox="0 0 60 60" version="1.1" xmlns="http://www.w3.org/2000/svg">
<g id="#ffffffff">
<path fill="#ffffff" opacity="1.00" d=" M 0.00 0.00 L 60.00 0.00 L 60.00 60.00 L 0.00 60.00 L 0.00 0.00 M 5.95 9.95 C 6.01 11.96 8.26 11.95 9.71 12.17 C 14.54 18.08 19.23 24.09 24.04 30.01 C 28.02 29.99 32.00 29.99 35.99 30.01 C 40.78 24.08 45.47 18.08 50.30 12.18 C 51.69 11.93 54.02 11.98 54.01 10.00 C 54.07 8.39 52.33 7.86 51.03 8.02 C 37.33 7.96 23.62 8.04 9.92 7.98 C 8.39 7.98 6.11 7.87 5.95 9.95 M 24.00 34.00 C 24.00 40.00 24.00 46.00 24.00 52.00 C 28.00 50.67 32.00 49.33 36.00 48.00 C 36.00 43.33 36.00 38.67 36.00 34.00 C 32.00 34.00 28.00 34.00 24.00 34.00 Z" />
</g>
<g id="#000000ff">
<path fill="#968176" opacity="1.00" d=" M 5.95 9.95 C 6.11 7.87 8.39 7.98 9.92 7.98 C 23.62 8.04 37.33 7.96 51.03 8.02 C 52.33 7.86 54.07 8.39 54.01 10.00 C 54.02 11.98 51.69 11.93 50.30 12.18 C 45.47 18.08 40.78 24.08 35.99 30.01 C 32.00 29.99 28.02 29.99 24.04 30.01 C 19.23 24.09 14.54 18.08 9.71 12.17 C 8.26 11.95 6.01 11.96 5.95 9.95 Z" />
<path fill="#968176" opacity="1.00" d=" M 24.00 34.00 C 28.00 34.00 32.00 34.00 36.00 34.00 C 36.00 38.67 36.00 43.33 36.00 48.00 C 32.00 49.33 28.00 50.67 24.00 52.00 C 24.00 46.00 24.00 40.00 24.00 34.00 Z" />
</g>
</svg>
