<?xml version="1.0" encoding="UTF-8" ?>
<!DOCTYPE svg PUBLIC "-//W3C//DTD SVG 1.1//EN" "http://www.w3.org/Graphics/SVG/1.1/DTD/svg11.dtd">
<svg width="60pt" height="60pt" viewBox="0 0 60 60" version="1.1" xmlns="http://www.w3.org/2000/svg">
<g id="#ffffffff">
<path fill="#ffffff" opacity="1.00" d=" M 0.00 0.00 L 60.00 0.00 L 60.00 39.60 C 58.78 38.21 57.53 36.80 55.94 35.83 C 54.82 36.49 53.67 37.11 52.56 37.78 C 54.38 39.65 56.23 41.49 58.10 43.32 C 58.72 42.49 59.36 41.66 60.00 40.85 L 60.00 60.00 L 36.53 60.00 C 37.40 59.72 39.13 59.15 39.99 58.87 C 39.08 57.92 38.15 56.99 37.23 56.06 C 36.74 57.37 36.27 58.69 35.78 60.00 L 0.00 60.00 L 0.00 0.00 M 5.94 9.94 C 5.99 12.03 8.29 11.85 9.76 12.22 C 14.55 18.12 19.25 24.09 24.03 30.00 C 28.02 30.00 32.01 30.00 36.00 30.00 C 40.76 24.08 45.46 18.12 50.26 12.23 C 51.58 11.86 54.19 12.00 53.96 9.98 C 54.20 8.38 52.23 7.88 51.02 8.01 C 36.98 7.99 22.95 7.98 8.91 8.02 C 7.56 7.86 6.09 8.41 5.94 9.94 M 24.00 34.00 C 24.00 40.00 24.00 46.00 24.00 52.01 C 28.00 50.66 32.00 49.33 36.00 48.00 C 36.00 43.33 36.00 38.67 36.00 34.00 C 32.00 34.00 28.00 34.00 24.00 34.00 M 39.38 51.35 C 40.30 52.29 40.85 53.46 41.34 54.66 C 42.54 55.15 43.71 55.70 44.66 56.61 C 48.28 52.71 52.19 49.08 55.89 45.25 C 54.18 43.54 52.45 41.83 50.74 40.12 C 46.94 43.85 43.29 47.73 39.38 51.35 Z" />
</g>
<g id="#000000ff">
<path fill="#968176" opacity="1.00" d=" M 5.94 9.94 C 6.09 8.41 7.56 7.86 8.91 8.02 C 22.95 7.98 36.98 7.99 51.02 8.01 C 52.23 7.88 54.20 8.38 53.96 9.98 C 54.19 12.00 51.58 11.86 50.26 12.23 C 45.46 18.12 40.76 24.08 36.00 30.00 C 32.01 30.00 28.02 30.00 24.03 30.00 C 19.25 24.09 14.55 18.12 9.76 12.22 C 8.29 11.85 5.99 12.03 5.94 9.94 Z" />
<path fill="#968176" opacity="1.00" d=" M 24.00 34.00 C 28.00 34.00 32.00 34.00 36.00 34.00 C 36.00 38.67 36.00 43.33 36.00 48.00 C 32.00 49.33 28.00 50.66 24.00 52.01 C 24.00 46.00 24.00 40.00 24.00 34.00 Z" />
<path fill="#968176" opacity="1.00" d=" M 52.56 37.78 C 53.67 37.11 54.82 36.49 55.94 35.83 C 57.53 36.80 58.78 38.21 60.00 39.60 L 60.00 40.85 C 59.36 41.66 58.72 42.49 58.10 43.32 C 56.23 41.49 54.38 39.65 52.56 37.78 Z" />
<path fill="#968176" opacity="1.00" d=" M 39.38 51.35 C 43.29 47.73 46.94 43.85 50.74 40.12 C 52.45 41.83 54.18 43.54 55.89 45.25 C 52.19 49.08 48.28 52.71 44.66 56.61 C 43.71 55.70 42.54 55.15 41.34 54.66 C 40.85 53.46 40.30 52.29 39.38 51.35 Z" />
<path fill="#968176" opacity="1.00" d=" M 37.23 56.06 C 38.15 56.99 39.08 57.92 39.99 58.87 C 39.13 59.15 37.40 59.72 36.53 60.00 L 35.78 60.00 C 36.27 58.69 36.74 57.37 37.23 56.06 Z" />
</g>
</svg>
