<?xml version="1.0" encoding="UTF-8" ?>
<!DOCTYPE svg PUBLIC "-//W3C//DTD SVG 1.1//EN" "http://www.w3.org/Graphics/SVG/1.1/DTD/svg11.dtd">
<svg width="60pt" height="60pt" viewBox="0 0 60 60" version="1.1" xmlns="http://www.w3.org/2000/svg">
<g id="#ffffffff">
<path fill="#ffffff" opacity="1.00" d=" M 0.00 0.00 L 60.00 0.00 L 60.00 60.00 L 0.00 60.00 L 0.00 0.00 M 24.44 4.71 C 14.30 7.19 6.89 17.62 8.12 28.04 C 8.83 36.66 15.34 43.31 22.29 47.73 C 25.94 49.72 26.98 53.93 28.60 57.42 C 30.80 59.29 32.19 56.26 32.68 54.47 C 33.68 51.20 35.95 48.59 38.91 46.92 C 44.31 43.26 49.29 38.30 51.13 31.87 C 53.52 23.97 50.76 14.90 44.55 9.51 C 39.19 4.71 31.40 2.86 24.44 4.71 Z" />
<path fill="#ffffff" opacity="1.00" d=" M 28.00 14.00 C 29.33 14.00 30.67 14.00 32.00 14.00 C 32.00 16.84 32.00 19.69 32.00 22.53 C 34.48 21.13 36.94 19.72 39.39 18.27 C 40.05 19.42 40.72 20.58 41.39 21.73 C 38.93 23.14 36.50 24.57 34.05 26.00 C 36.50 27.42 38.94 28.85 41.39 30.27 C 40.72 31.42 40.06 32.57 39.40 33.72 C 36.93 32.30 34.47 30.88 32.00 29.47 C 32.00 32.32 32.00 35.16 32.00 38.00 C 30.67 38.00 29.33 38.00 28.00 38.00 C 28.00 35.15 28.00 32.31 27.99 29.46 C 25.54 30.91 23.07 32.31 20.61 33.74 C 19.94 32.58 19.28 31.42 18.61 30.26 C 21.10 28.85 23.57 27.41 26.05 25.98 C 23.56 24.57 21.09 23.14 18.60 21.74 C 19.27 20.58 19.94 19.43 20.61 18.27 C 23.07 19.69 25.54 21.10 28.00 22.53 C 28.00 19.69 28.00 16.85 28.00 14.00 Z" />
</g>
<g id="#000000ff">
<path fill="#968176" opacity="1.00" d=" M 24.44 4.71 C 31.40 2.86 39.19 4.71 44.55 9.51 C 50.76 14.90 53.52 23.97 51.13 31.87 C 49.29 38.30 44.31 43.26 38.91 46.92 C 35.95 48.59 33.68 51.20 32.68 54.47 C 32.19 56.26 30.80 59.29 28.60 57.42 C 26.98 53.93 25.94 49.72 22.29 47.73 C 15.34 43.31 8.83 36.66 8.12 28.04 C 6.89 17.62 14.30 7.19 24.44 4.71 M 28.00 14.00 C 28.00 16.85 28.00 19.69 28.00 22.53 C 25.54 21.10 23.07 19.69 20.61 18.27 C 19.94 19.43 19.27 20.58 18.60 21.74 C 21.09 23.14 23.56 24.57 26.05 25.98 C 23.57 27.41 21.10 28.85 18.61 30.26 C 19.28 31.42 19.94 32.58 20.61 33.74 C 23.07 32.31 25.54 30.91 27.99 29.46 C 28.00 32.31 28.00 35.15 28.00 38.00 C 29.33 38.00 30.67 38.00 32.00 38.00 C 32.00 35.16 32.00 32.32 32.00 29.47 C 34.47 30.88 36.93 32.30 39.40 33.72 C 40.06 32.57 40.72 31.42 41.39 30.27 C 38.94 28.85 36.50 27.42 34.05 26.00 C 36.50 24.57 38.93 23.14 41.39 21.73 C 40.72 20.58 40.05 19.42 39.39 18.27 C 36.94 19.72 34.48 21.13 32.00 22.53 C 32.00 19.69 32.00 16.84 32.00 14.00 C 30.67 14.00 29.33 14.00 28.00 14.00 Z" />
</g>
</svg>
