<?xml version="1.0" encoding="UTF-8" ?>
<!DOCTYPE svg PUBLIC "-//W3C//DTD SVG 1.1//EN" "http://www.w3.org/Graphics/SVG/1.1/DTD/svg11.dtd">
<svg width="60pt" height="60pt" viewBox="0 0 60 60" version="1.1" xmlns="http://www.w3.org/2000/svg">
<g id="#ffffffff">
<path fill="#ffffff" opacity="1.00" d=" M 0.00 0.00 L 60.00 0.00 L 60.00 60.00 L 0.00 60.00 L 0.00 0.00 M 10.32 8.40 C 8.61 9.17 7.82 11.09 8.00 12.88 C 8.03 24.61 7.94 36.34 8.04 48.08 C 7.93 50.64 10.59 52.33 12.95 52.00 C 24.67 51.97 36.40 52.07 48.12 51.95 C 50.61 51.98 52.34 49.42 52.00 47.08 C 52.00 35.70 52.00 24.31 52.00 12.93 C 52.33 10.57 50.61 7.91 48.05 8.04 C 37.02 7.92 25.99 8.06 14.96 7.98 C 13.42 8.07 11.78 7.78 10.32 8.40 Z" />
<path fill="#ffffff" opacity="1.00" d=" M 25.42 12.62 C 33.85 10.17 43.45 15.01 46.63 23.15 C 48.77 28.48 47.86 34.39 47.94 39.99 C 48.14 42.09 44.93 42.76 44.17 40.84 C 43.52 35.82 44.72 30.62 43.28 25.70 C 41.35 19.37 34.43 14.98 27.88 16.26 C 26.35 16.10 24.12 17.84 23.13 16.05 C 21.54 14.45 23.84 12.69 25.42 12.62 Z" />
<path fill="#ffffff" opacity="1.00" d=" M 16.37 18.41 C 17.84 17.53 18.74 18.98 19.73 19.83 C 18.47 22.11 16.92 24.32 16.37 26.91 C 15.60 30.84 16.33 34.87 15.83 38.82 C 15.06 40.77 11.83 40.09 12.06 37.96 C 11.83 31.30 11.35 23.58 16.37 18.41 Z" />
<path fill="#ffffff" opacity="1.00" d=" M 26.44 20.67 C 32.60 18.03 40.22 23.26 39.95 29.95 C 40.24 31.64 37.76 32.69 36.64 31.46 C 35.63 29.41 35.78 26.67 33.67 25.27 C 30.42 22.48 24.71 24.60 24.15 28.86 C 23.67 33.50 24.35 38.19 23.83 42.83 C 23.06 44.76 19.84 44.10 20.06 41.97 C 19.93 37.95 19.96 33.92 20.04 29.90 C 20.00 25.88 22.69 22.08 26.44 20.67 Z" />
<path fill="#ffffff" opacity="1.00" d=" M 29.26 28.08 C 31.69 27.37 32.29 30.15 32.04 31.95 C 31.89 33.91 32.76 37.30 30.02 37.74 C 27.60 37.52 28.00 34.69 27.95 32.95 C 28.15 31.31 27.45 29.02 29.26 28.08 Z" />
<path fill="#ffffff" opacity="1.00" d=" M 37.18 36.09 C 39.64 35.32 40.32 38.10 40.04 39.94 C 39.79 41.96 40.93 45.55 38.04 46.04 C 35.46 45.87 36.04 42.81 35.95 41.04 C 36.13 39.38 35.46 37.14 37.18 36.09 Z" />
<path fill="#ffffff" opacity="1.00" d=" M 29.13 41.89 C 32.58 40.84 32.98 46.37 30.87 47.89 C 27.44 48.87 27.10 43.45 29.13 41.89 Z" />
</g>
<g id="#000000ff">
<path fill="#000000" opacity="1.00" d=" M 10.32 8.40 C 11.78 7.78 13.42 8.07 14.96 7.98 C 25.99 8.06 37.02 7.92 48.05 8.04 C 50.61 7.91 52.33 10.57 52.00 12.93 C 52.00 24.31 52.00 35.70 52.00 47.08 C 52.34 49.42 50.61 51.98 48.12 51.95 C 36.40 52.07 24.67 51.97 12.95 52.00 C 10.59 52.33 7.93 50.64 8.04 48.08 C 7.94 36.34 8.03 24.61 8.00 12.88 C 7.82 11.09 8.61 9.17 10.32 8.40 M 25.42 12.62 C 23.84 12.69 21.54 14.45 23.13 16.05 C 24.12 17.84 26.35 16.10 27.88 16.26 C 34.43 14.98 41.35 19.37 43.28 25.70 C 44.72 30.62 43.52 35.82 44.17 40.84 C 44.93 42.76 48.14 42.09 47.94 39.99 C 47.86 34.39 48.77 28.48 46.63 23.15 C 43.45 15.01 33.85 10.17 25.42 12.62 M 16.37 18.41 C 11.35 23.58 11.83 31.30 12.06 37.96 C 11.83 40.09 15.06 40.77 15.83 38.82 C 16.33 34.87 15.60 30.84 16.37 26.91 C 16.92 24.32 18.47 22.11 19.73 19.83 C 18.74 18.98 17.84 17.53 16.37 18.41 M 26.44 20.67 C 22.69 22.08 20.00 25.88 20.04 29.90 C 19.96 33.92 19.93 37.95 20.06 41.97 C 19.84 44.10 23.06 44.76 23.83 42.83 C 24.35 38.19 23.67 33.50 24.15 28.86 C 24.71 24.60 30.42 22.48 33.67 25.27 C 35.78 26.67 35.63 29.41 36.64 31.46 C 37.76 32.69 40.24 31.64 39.95 29.95 C 40.22 23.26 32.60 18.03 26.44 20.67 M 29.26 28.08 C 27.45 29.02 28.15 31.31 27.95 32.95 C 28.00 34.69 27.60 37.52 30.02 37.74 C 32.76 37.30 31.89 33.91 32.04 31.95 C 32.29 30.15 31.69 27.37 29.26 28.08 M 37.18 36.09 C 35.46 37.14 36.13 39.38 35.95 41.04 C 36.04 42.81 35.46 45.87 38.04 46.04 C 40.93 45.55 39.79 41.96 40.04 39.94 C 40.32 38.10 39.64 35.32 37.18 36.09 M 29.13 41.89 C 27.10 43.45 27.44 48.87 30.87 47.89 C 32.98 46.37 32.58 40.84 29.13 41.89 Z" />
</g>
</svg>
