<?xml version="1.0" encoding="UTF-8" ?>
<!DOCTYPE svg PUBLIC "-//W3C//DTD SVG 1.1//EN" "http://www.w3.org/Graphics/SVG/1.1/DTD/svg11.dtd">
<svg width="60pt" height="60pt" viewBox="0 0 60 60" version="1.1" xmlns="http://www.w3.org/2000/svg">
<g id="#ffffffff">
<path fill="#ffffff" opacity="1.00" d=" M 0.00 0.00 L 60.00 0.00 L 60.00 45.59 C 59.83 38.27 53.35 31.84 45.98 32.04 C 38.12 31.81 31.20 39.30 32.09 47.12 C 32.47 54.02 38.62 59.73 45.46 60.00 L 0.00 60.00 L 0.00 0.00 M 24.45 4.63 C 16.10 6.46 8.47 12.65 5.86 20.89 C 6.18 23.28 9.58 23.08 9.96 20.84 C 13.26 13.89 20.17 8.75 27.90 8.13 C 33.79 7.39 39.59 9.57 44.22 13.09 C 45.91 14.80 48.74 11.84 46.82 10.30 C 40.91 4.90 32.21 2.88 24.45 4.63 M 22.63 15.09 C 23.12 17.90 26.07 16.36 27.86 16.28 C 35.41 14.70 42.81 20.71 43.96 28.11 C 45.32 28.05 46.67 27.99 48.02 27.92 C 46.75 18.45 37.50 10.68 27.86 12.17 C 25.99 12.59 22.72 12.51 22.63 15.09 M 49.18 18.72 C 50.44 22.04 51.77 25.36 52.03 28.96 C 53.36 29.67 54.71 30.34 56.10 30.94 C 55.87 26.21 55.14 21.30 52.56 17.23 C 51.54 15.50 48.60 16.86 49.18 18.72 M 16.46 18.42 C 13.14 21.65 11.96 26.51 12.00 31.02 C 11.99 36.70 12.01 42.39 11.98 48.07 C 12.09 49.41 11.75 51.06 13.11 51.89 C 14.39 52.30 16.08 51.55 15.92 50.02 C 16.22 42.98 15.76 35.92 16.10 28.88 C 16.08 25.55 18.24 22.90 19.48 19.97 C 19.14 18.73 17.68 17.57 16.46 18.42 M 20.04 29.95 C 19.92 37.31 20.05 44.68 19.98 52.04 C 20.12 53.40 19.72 55.12 21.17 55.90 C 22.43 56.29 24.04 55.54 23.91 54.06 C 24.19 46.01 23.83 37.93 24.05 29.88 C 23.88 25.68 28.90 22.61 32.59 24.60 C 35.11 25.65 35.95 28.42 36.17 30.91 C 37.47 30.29 38.75 29.63 40.01 28.93 C 39.23 24.75 36.19 20.88 31.82 20.18 C 25.96 18.90 19.84 23.95 20.04 29.95 M 5.38 26.44 C 5.12 26.64 4.62 27.03 4.36 27.23 C 3.62 32.78 4.05 38.48 4.10 44.07 C 3.89 46.12 7.07 46.72 7.80 44.87 C 8.25 39.55 7.92 34.19 8.00 28.86 C 8.29 27.32 6.88 25.95 5.38 26.44 M 28.18 29.09 C 27.71 34.15 28.09 39.23 28.23 44.30 C 28.64 40.80 29.78 37.44 31.98 34.65 C 31.72 32.50 32.84 29.61 30.84 28.10 C 29.70 27.81 28.81 28.14 28.18 29.09 Z" />
<path fill="#ffffff" opacity="1.00" d=" M 51.18 40.20 C 53.09 39.18 54.99 41.92 53.40 43.33 C 50.61 46.25 47.84 49.22 44.77 51.84 C 42.43 52.37 41.15 49.69 39.57 48.44 C 38.20 47.44 37.16 45.06 39.22 44.13 C 41.39 43.57 42.54 46.04 44.03 47.14 C 46.45 44.86 48.58 42.28 51.18 40.20 Z" />
<path fill="#ffffff" opacity="1.00" d=" M 46.46 60.00 C 53.61 59.79 59.73 53.70 60.00 46.56 L 60.00 60.00 L 46.46 60.00 Z" />
</g>
<g id="#000000ff">
<path fill="#000000" opacity="1.00" d=" M 24.45 4.63 C 32.21 2.88 40.91 4.90 46.82 10.30 C 48.74 11.84 45.91 14.80 44.22 13.09 C 39.59 9.57 33.79 7.39 27.90 8.13 C 20.17 8.75 13.26 13.89 9.96 20.84 C 9.58 23.08 6.18 23.28 5.86 20.89 C 8.47 12.65 16.10 6.46 24.45 4.63 Z" />
<path fill="#000000" opacity="1.00" d=" M 22.63 15.09 C 22.72 12.51 25.99 12.59 27.86 12.17 C 37.50 10.68 46.75 18.45 48.02 27.92 C 46.67 27.99 45.32 28.05 43.96 28.11 C 42.81 20.71 35.41 14.70 27.86 16.28 C 26.07 16.36 23.12 17.90 22.63 15.09 Z" />
<path fill="#000000" opacity="1.00" d=" M 49.18 18.72 C 48.60 16.86 51.54 15.50 52.56 17.23 C 55.14 21.30 55.87 26.21 56.10 30.94 C 54.71 30.34 53.36 29.67 52.03 28.96 C 51.77 25.36 50.44 22.04 49.18 18.72 Z" />
<path fill="#000000" opacity="1.00" d=" M 16.46 18.42 C 17.68 17.57 19.14 18.73 19.48 19.97 C 18.24 22.90 16.08 25.55 16.10 28.88 C 15.76 35.92 16.22 42.98 15.92 50.02 C 16.08 51.55 14.39 52.30 13.11 51.89 C 11.75 51.06 12.09 49.41 11.98 48.07 C 12.01 42.39 11.99 36.70 12.00 31.02 C 11.96 26.51 13.14 21.65 16.46 18.42 Z" />
<path fill="#000000" opacity="1.00" d=" M 20.04 29.95 C 19.84 23.95 25.96 18.90 31.82 20.18 C 36.19 20.88 39.23 24.75 40.01 28.93 C 38.75 29.63 37.47 30.29 36.17 30.91 C 35.95 28.42 35.11 25.65 32.59 24.60 C 28.90 22.61 23.88 25.68 24.05 29.88 C 23.83 37.93 24.19 46.01 23.91 54.06 C 24.04 55.54 22.43 56.29 21.17 55.90 C 19.72 55.12 20.12 53.40 19.98 52.04 C 20.05 44.68 19.92 37.31 20.04 29.95 Z" />
<path fill="#000000" opacity="1.00" d=" M 5.38 26.44 C 6.88 25.95 8.29 27.32 8.00 28.86 C 7.92 34.19 8.25 39.55 7.80 44.87 C 7.07 46.72 3.89 46.12 4.10 44.07 C 4.05 38.48 3.62 32.78 4.36 27.23 C 4.62 27.03 5.12 26.64 5.38 26.44 Z" />
<path fill="#000000" opacity="1.00" d=" M 28.18 29.09 C 28.81 28.14 29.70 27.81 30.84 28.10 C 32.84 29.61 31.72 32.50 31.98 34.65 C 29.78 37.44 28.64 40.80 28.23 44.30 C 28.09 39.23 27.71 34.15 28.18 29.09 Z" />
<path fill="#000000" opacity="1.00" d=" M 32.09 47.12 C 31.20 39.30 38.12 31.81 45.98 32.04 C 53.35 31.84 59.83 38.27 60.00 45.59 L 60.00 46.56 C 59.73 53.70 53.61 59.79 46.46 60.00 L 45.46 60.00 C 38.62 59.73 32.47 54.02 32.09 47.12 M 51.18 40.20 C 48.58 42.28 46.45 44.86 44.03 47.14 C 42.54 46.04 41.39 43.57 39.22 44.13 C 37.16 45.06 38.20 47.44 39.57 48.44 C 41.15 49.69 42.43 52.37 44.77 51.84 C 47.84 49.22 50.61 46.25 53.40 43.33 C 54.99 41.92 53.09 39.18 51.18 40.20 Z" />
</g>
</svg>
