<?xml version="1.0" encoding="UTF-8" ?>
<!DOCTYPE svg PUBLIC "-//W3C//DTD SVG 1.1//EN" "http://www.w3.org/Graphics/SVG/1.1/DTD/svg11.dtd">
<svg width="60pt" height="60pt" viewBox="0 0 60 60" version="1.1" xmlns="http://www.w3.org/2000/svg">
<g id="#ffffffff">
<path fill="#ffffff" opacity="1.00" d=" M 0.00 0.00 L 60.00 0.00 L 60.00 60.00 L 0.00 60.00 L 0.00 0.00 M 24.47 4.63 C 16.12 6.45 8.44 12.65 5.87 20.91 C 6.20 23.27 9.56 23.07 9.96 20.86 C 13.23 13.91 20.14 8.77 27.85 8.14 C 33.73 7.39 39.55 9.54 44.19 13.07 C 45.89 14.84 48.78 11.81 46.80 10.26 C 40.88 4.91 32.22 2.87 24.47 4.63 M 23.37 13.37 C 21.78 14.44 23.06 17.51 24.93 16.73 C 29.64 15.53 35.00 15.86 38.81 19.18 C 43.37 22.62 44.39 28.63 44.03 34.00 C 42.66 34.00 41.29 34.00 39.92 34.00 C 40.08 30.38 40.21 26.27 37.51 23.45 C 33.83 18.92 26.18 18.93 22.48 23.44 C 19.77 26.27 19.95 30.37 19.97 34.00 C 18.63 34.00 17.30 34.00 15.97 34.00 C 16.04 30.51 15.72 26.71 17.65 23.61 C 18.25 22.37 19.14 21.23 19.39 19.84 C 19.14 18.31 16.86 17.44 15.94 18.89 C 12.30 23.00 11.78 28.75 11.97 34.01 C 9.72 33.97 7.45 33.89 5.21 34.17 C 3.26 34.83 3.85 38.13 5.96 37.91 C 21.97 38.07 38.00 38.06 54.02 37.91 C 56.12 38.17 56.74 34.90 54.84 34.18 C 52.58 33.88 50.29 33.97 48.02 34.01 C 48.14 29.43 47.95 24.58 45.34 20.63 C 41.07 13.31 31.17 9.90 23.37 13.37 M 12.01 42.00 C 12.01 44.96 11.84 47.94 12.17 50.89 C 12.92 52.34 15.07 52.33 15.83 50.89 C 16.17 47.94 15.98 44.96 15.99 42.00 C 14.66 42.00 13.34 42.00 12.01 42.00 M 20.00 42.00 C 20.11 46.29 19.77 50.59 20.16 54.86 C 20.89 56.36 23.14 56.36 23.84 54.83 C 24.23 50.57 23.89 46.28 24.00 42.00 C 22.67 42.00 21.33 42.00 20.00 42.00 M 27.81 42.01 C 28.12 43.39 27.98 45.84 30.06 45.64 C 32.04 45.72 31.86 43.35 32.19 42.01 C 30.73 42.00 29.27 42.00 27.81 42.01 M 44.01 42.00 C 44.02 44.94 43.84 47.88 44.16 50.81 C 44.81 52.37 47.10 52.35 47.83 50.87 C 48.16 47.92 47.98 44.95 47.99 42.00 C 46.66 42.00 45.34 42.00 44.01 42.00 M 36.41 45.20 C 35.60 48.32 35.98 51.64 36.16 54.83 C 36.85 56.36 39.08 56.35 39.82 54.88 C 40.11 51.95 40.16 48.98 39.87 46.04 C 39.71 44.39 37.39 44.00 36.41 45.20 M 28.51 50.47 C 27.68 51.74 28.02 53.41 28.14 54.84 C 29.39 57.26 32.78 55.41 32.05 52.98 C 32.81 50.88 30.19 48.51 28.51 50.47 Z" />
<path fill="#ffffff" opacity="1.00" d=" M 25.75 25.78 C 28.13 23.22 32.67 23.51 34.72 26.32 C 36.50 28.47 35.84 31.43 35.91 33.99 C 34.63 34.00 33.34 34.00 32.05 34.00 C 31.72 32.06 32.73 29.43 30.85 28.11 C 27.25 27.27 28.06 31.83 27.95 34.00 C 26.62 34.00 25.29 34.00 23.96 34.00 C 24.10 31.23 23.48 27.88 25.75 25.78 Z" />
</g>
<g id="#000000ff">
<path fill="#000000" opacity="1.00" d=" M 24.47 4.63 C 32.22 2.87 40.88 4.91 46.80 10.26 C 48.78 11.81 45.89 14.84 44.19 13.07 C 39.55 9.54 33.73 7.39 27.85 8.14 C 20.14 8.77 13.23 13.91 9.96 20.86 C 9.56 23.07 6.20 23.27 5.87 20.91 C 8.44 12.65 16.12 6.45 24.47 4.63 Z" />
<path fill="#000000" opacity="1.00" d=" M 23.37 13.37 C 31.17 9.90 41.07 13.31 45.34 20.63 C 47.95 24.58 48.14 29.43 48.02 34.01 C 50.29 33.97 52.58 33.88 54.84 34.18 C 56.74 34.90 56.12 38.17 54.02 37.91 C 38.00 38.06 21.97 38.07 5.96 37.91 C 3.85 38.13 3.26 34.83 5.21 34.17 C 7.45 33.89 9.72 33.97 11.97 34.01 C 11.78 28.75 12.30 23.00 15.94 18.89 C 16.86 17.44 19.14 18.31 19.39 19.84 C 19.14 21.23 18.25 22.37 17.65 23.61 C 15.72 26.71 16.04 30.51 15.97 34.00 C 17.30 34.00 18.63 34.00 19.97 34.00 C 19.95 30.37 19.77 26.27 22.48 23.44 C 26.18 18.93 33.83 18.92 37.51 23.45 C 40.21 26.27 40.08 30.38 39.92 34.00 C 41.29 34.00 42.66 34.00 44.03 34.00 C 44.39 28.63 43.37 22.62 38.81 19.18 C 35.00 15.86 29.64 15.53 24.93 16.73 C 23.06 17.51 21.78 14.44 23.37 13.37 M 25.75 25.78 C 23.48 27.88 24.10 31.23 23.96 34.00 C 25.29 34.00 26.62 34.00 27.95 34.00 C 28.06 31.83 27.25 27.27 30.85 28.11 C 32.73 29.43 31.72 32.06 32.05 34.00 C 33.34 34.00 34.63 34.00 35.91 33.99 C 35.84 31.43 36.50 28.47 34.72 26.32 C 32.67 23.51 28.13 23.22 25.75 25.78 Z" />
<path fill="#000000" opacity="1.00" d=" M 12.01 42.00 C 13.34 42.00 14.66 42.00 15.99 42.00 C 15.98 44.96 16.17 47.94 15.83 50.89 C 15.07 52.33 12.92 52.34 12.17 50.89 C 11.84 47.94 12.01 44.96 12.01 42.00 Z" />
<path fill="#000000" opacity="1.00" d=" M 20.00 42.00 C 21.33 42.00 22.67 42.00 24.00 42.00 C 23.89 46.28 24.23 50.57 23.84 54.83 C 23.14 56.36 20.89 56.36 20.16 54.86 C 19.77 50.59 20.11 46.29 20.00 42.00 Z" />
<path fill="#000000" opacity="1.00" d=" M 27.81 42.01 C 29.27 42.00 30.73 42.00 32.19 42.01 C 31.86 43.35 32.04 45.72 30.06 45.64 C 27.98 45.84 28.12 43.39 27.81 42.01 Z" />
<path fill="#000000" opacity="1.00" d=" M 44.01 42.00 C 45.34 42.00 46.66 42.00 47.99 42.00 C 47.98 44.95 48.16 47.92 47.83 50.87 C 47.10 52.35 44.81 52.37 44.16 50.81 C 43.84 47.88 44.02 44.94 44.01 42.00 Z" />
<path fill="#000000" opacity="1.00" d=" M 36.41 45.20 C 37.39 44.00 39.71 44.39 39.87 46.04 C 40.16 48.98 40.11 51.95 39.82 54.88 C 39.08 56.35 36.85 56.36 36.16 54.83 C 35.98 51.64 35.60 48.32 36.41 45.20 Z" />
<path fill="#000000" opacity="1.00" d=" M 28.51 50.47 C 30.19 48.51 32.81 50.88 32.05 52.98 C 32.78 55.41 29.39 57.26 28.14 54.84 C 28.02 53.41 27.68 51.74 28.51 50.47 Z" />
</g>
</svg>
