<?xml version="1.0" encoding="UTF-8" ?>
<!DOCTYPE svg PUBLIC "-//W3C//DTD SVG 1.1//EN" "http://www.w3.org/Graphics/SVG/1.1/DTD/svg11.dtd">
<svg width="64pt" height="64pt" viewBox="0 0 64 64" version="1.1" xmlns="http://www.w3.org/2000/svg">
<g id="#ffffffff">
<path fill="#ffffff" opacity="1.00" d=" M 0.00 0.00 L 64.00 0.00 L 64.00 64.00 L 0.00 64.00 L 0.00 0.00 M 22.35 9.74 C 22.85 11.00 23.35 12.25 23.86 13.51 C 29.92 11.30 36.74 11.62 42.49 14.57 C 43.11 13.39 43.73 12.21 44.34 11.02 C 37.55 7.61 29.49 7.09 22.35 9.74 M 8.32 23.16 C 9.53 23.70 10.75 24.25 11.96 24.79 C 14.01 20.73 17.13 17.32 20.97 14.89 C 20.31 13.72 19.64 12.55 18.96 11.38 C 14.34 14.18 10.70 18.32 8.32 23.16 M 32.02 13.89 C 32.01 15.21 32.00 16.54 32.00 17.87 C 37.83 18.18 43.58 21.35 46.21 26.69 C 49.46 32.83 47.60 40.04 46.05 46.39 C 47.31 46.79 48.58 47.18 49.85 47.57 C 51.76 40.32 53.52 32.07 49.88 25.05 C 46.61 18.34 39.42 14.09 32.02 13.89 M 45.53 16.56 C 51.30 21.17 54.43 28.52 54.00 35.88 C 55.33 35.96 56.67 36.04 58.00 36.13 C 58.52 27.48 54.80 18.78 47.98 13.40 C 47.16 14.45 46.35 15.51 45.53 16.56 M 11.95 35.93 C 13.28 35.97 14.60 36.02 15.93 36.07 C 15.12 27.84 20.87 19.77 29.04 18.16 C 28.79 16.85 28.55 15.55 28.30 14.24 C 18.34 16.10 11.19 25.92 11.95 35.93 M 22.64 23.48 C 23.49 24.47 24.35 25.47 25.21 26.47 C 28.11 24.24 31.82 23.49 35.38 24.41 C 35.82 23.18 36.26 21.95 36.71 20.72 C 31.86 19.22 26.54 20.22 22.64 23.48 M 37.61 25.57 C 40.04 27.57 41.67 30.30 42.13 33.43 C 43.46 33.37 44.79 33.30 46.12 33.24 C 45.65 28.85 43.35 24.88 39.84 22.22 C 39.10 23.34 38.36 24.45 37.61 25.57 M 20.19 26.22 C 18.43 29.22 18.00 32.66 17.80 36.07 C 17.46 39.94 13.57 42.11 10.00 42.15 C 10.00 43.47 10.01 44.79 10.02 46.11 C 13.66 45.92 17.51 44.81 19.65 41.64 C 22.84 37.85 21.15 32.49 23.57 28.37 C 22.44 27.65 21.32 26.94 20.19 26.22 M 25.95 28.85 C 22.96 32.10 24.72 36.99 22.61 40.65 C 21.00 44.48 17.28 46.69 13.57 48.13 C 13.88 49.44 14.19 50.75 14.50 52.06 C 18.67 50.43 22.87 48.14 25.22 44.16 C 27.41 40.87 27.87 36.89 28.18 33.05 C 28.33 31.05 30.43 30.33 32.00 29.72 C 32.00 28.42 31.99 27.11 31.98 25.81 C 29.76 26.30 27.39 26.95 25.95 28.85 M 33.98 30.27 C 34.77 31.38 36.08 32.39 35.98 33.89 C 36.06 41.66 32.74 49.45 26.78 54.50 C 27.62 55.54 28.47 56.57 29.32 57.60 C 36.45 51.64 40.50 42.23 39.90 32.96 C 39.71 30.34 37.80 28.43 35.96 26.80 C 35.28 27.95 34.65 29.12 33.98 30.27 M 30.24 33.12 C 29.82 36.40 29.55 39.75 28.26 42.84 C 29.46 43.42 30.66 43.99 31.88 44.54 C 33.08 41.15 34.11 37.61 33.97 33.98 C 34.15 31.95 30.99 31.22 30.24 33.12 M 41.97 35.88 C 41.43 42.89 38.99 49.77 34.54 55.27 C 35.54 56.12 36.53 56.97 37.52 57.82 C 42.55 51.70 45.39 44.00 45.96 36.13 C 44.63 36.04 43.30 35.96 41.97 35.88 M 19.15 52.26 C 19.74 53.46 20.33 54.67 20.92 55.88 C 24.83 53.78 28.19 50.76 30.61 47.03 C 29.47 46.37 28.34 45.70 27.21 45.04 C 25.15 48.08 22.37 50.51 19.15 52.26 Z" />
</g>
<g id="#000000ff">
<path fill="#000000" opacity="1.00" d=" M 22.35 9.74 C 29.49 7.09 37.55 7.61 44.34 11.02 C 43.73 12.21 43.11 13.39 42.49 14.57 C 36.74 11.62 29.92 11.30 23.86 13.51 C 23.35 12.25 22.85 11.00 22.35 9.74 Z" />
<path fill="#000000" opacity="1.00" d=" M 8.32 23.16 C 10.70 18.32 14.34 14.18 18.96 11.38 C 19.64 12.55 20.31 13.72 20.97 14.89 C 17.13 17.32 14.01 20.73 11.96 24.79 C 10.75 24.25 9.53 23.70 8.32 23.16 Z" />
<path fill="#000000" opacity="1.00" d=" M 32.02 13.89 C 39.42 14.09 46.61 18.34 49.88 25.05 C 53.52 32.07 51.76 40.32 49.85 47.57 C 48.58 47.18 47.31 46.79 46.05 46.39 C 47.60 40.04 49.46 32.83 46.21 26.69 C 43.58 21.35 37.83 18.18 32.00 17.87 C 32.00 16.54 32.01 15.21 32.02 13.89 Z" />
<path fill="#000000" opacity="1.00" d=" M 45.53 16.56 C 46.35 15.51 47.16 14.45 47.98 13.40 C 54.80 18.78 58.52 27.48 58.00 36.13 C 56.67 36.04 55.33 35.96 54.00 35.88 C 54.43 28.52 51.30 21.17 45.53 16.56 Z" />
<path fill="#000000" opacity="1.00" d=" M 11.95 35.93 C 11.19 25.92 18.34 16.10 28.30 14.24 C 28.55 15.55 28.79 16.85 29.04 18.16 C 20.87 19.77 15.12 27.84 15.93 36.07 C 14.60 36.02 13.28 35.97 11.95 35.93 Z" />
<path fill="#000000" opacity="1.00" d=" M 22.64 23.48 C 26.54 20.22 31.86 19.22 36.71 20.72 C 36.26 21.95 35.82 23.18 35.38 24.41 C 31.82 23.49 28.11 24.24 25.21 26.47 C 24.35 25.47 23.49 24.47 22.64 23.48 Z" />
<path fill="#000000" opacity="1.00" d=" M 37.61 25.57 C 38.36 24.45 39.10 23.34 39.84 22.22 C 43.35 24.88 45.65 28.85 46.12 33.24 C 44.79 33.30 43.46 33.37 42.13 33.43 C 41.67 30.30 40.04 27.57 37.61 25.57 Z" />
<path fill="#000000" opacity="1.00" d=" M 20.19 26.22 C 21.32 26.94 22.44 27.65 23.57 28.37 C 21.15 32.49 22.84 37.85 19.65 41.64 C 17.51 44.81 13.66 45.92 10.02 46.11 C 10.01 44.79 10.00 43.47 10.00 42.15 C 13.57 42.11 17.46 39.94 17.80 36.07 C 18.00 32.66 18.43 29.22 20.19 26.22 Z" />
<path fill="#000000" opacity="1.00" d=" M 25.95 28.85 C 27.39 26.95 29.76 26.30 31.98 25.81 C 31.99 27.11 32.00 28.42 32.00 29.72 C 30.43 30.33 28.33 31.05 28.18 33.05 C 27.87 36.89 27.41 40.87 25.22 44.16 C 22.87 48.14 18.67 50.43 14.50 52.06 C 14.19 50.75 13.88 49.44 13.57 48.13 C 17.28 46.69 21.00 44.48 22.61 40.65 C 24.72 36.99 22.96 32.10 25.95 28.85 Z" />
<path fill="#000000" opacity="1.00" d=" M 33.98 30.27 C 34.65 29.12 35.28 27.95 35.96 26.80 C 37.80 28.43 39.71 30.34 39.90 32.96 C 40.50 42.23 36.45 51.64 29.32 57.60 C 28.47 56.57 27.62 55.54 26.78 54.50 C 32.74 49.45 36.06 41.66 35.98 33.89 C 36.08 32.39 34.77 31.38 33.98 30.27 Z" />
<path fill="#000000" opacity="1.00" d=" M 30.24 33.12 C 30.99 31.22 34.15 31.95 33.97 33.98 C 34.11 37.61 33.08 41.15 31.88 44.54 C 30.66 43.99 29.46 43.42 28.26 42.84 C 29.55 39.75 29.82 36.40 30.24 33.12 Z" />
<path fill="#000000" opacity="1.00" d=" M 41.97 35.88 C 43.30 35.96 44.63 36.04 45.96 36.13 C 45.39 44.00 42.55 51.70 37.52 57.82 C 36.53 56.97 35.54 56.12 34.54 55.27 C 38.99 49.77 41.43 42.89 41.97 35.88 Z" />
<path fill="#000000" opacity="1.00" d=" M 19.15 52.26 C 22.37 50.51 25.15 48.08 27.21 45.04 C 28.34 45.70 29.47 46.37 30.61 47.03 C 28.19 50.76 24.83 53.78 20.92 55.88 C 20.33 54.67 19.74 53.46 19.15 52.26 Z" />
</g>
</svg>
