<?xml version="1.0" encoding="UTF-8" ?>
<!DOCTYPE svg PUBLIC "-//W3C//DTD SVG 1.1//EN" "http://www.w3.org/Graphics/SVG/1.1/DTD/svg11.dtd">
<svg width="60pt" height="60pt" viewBox="0 0 60 60" version="1.1" xmlns="http://www.w3.org/2000/svg">
<g id="#ffffffff">
<path fill="#ffffff" opacity="1.00" d=" M 0.00 0.00 L 60.00 0.00 L 60.00 60.00 L 0.00 60.00 L 0.00 0.00 M 10.38 8.37 C 8.61 9.12 7.82 11.11 8.00 12.92 C 8.03 24.63 7.93 36.34 8.05 48.04 C 7.90 50.61 10.56 52.32 12.92 52.00 C 24.65 51.97 36.38 52.08 48.10 51.95 C 50.58 52.00 52.32 49.45 52.00 47.12 C 52.01 35.72 52.00 24.31 52.00 12.91 C 52.32 10.54 50.58 7.89 48.02 8.04 C 37.00 7.91 25.98 8.07 14.96 7.97 C 13.44 8.05 11.83 7.82 10.38 8.37 Z" />
<path fill="#ffffff" opacity="1.00" d=" M 17.19 42.80 C 10.38 35.93 10.36 24.07 17.19 17.20 C 18.60 18.61 20.02 20.01 21.44 21.41 C 17.01 26.13 16.97 33.84 21.44 38.55 C 20.02 39.97 18.61 41.39 17.19 42.80 Z" />
<path fill="#ffffff" opacity="1.00" d=" M 38.58 21.41 C 39.99 20.01 41.40 18.60 42.82 17.20 C 49.61 24.09 49.61 35.92 42.81 42.80 C 41.40 41.39 39.99 39.97 38.58 38.56 C 43.01 33.82 42.99 26.16 38.58 21.41 Z" />
<path fill="#ffffff" opacity="1.00" d=" M 28.38 26.37 C 31.48 24.65 35.34 28.59 33.60 31.65 C 32.56 34.13 28.98 34.82 27.16 32.79 C 25.13 30.97 25.93 27.38 28.38 26.37 Z" />
</g>
<g id="#000000ff">
<path fill="#000000" opacity="1.00" d=" M 10.38 8.37 C 11.83 7.82 13.44 8.05 14.96 7.97 C 25.98 8.07 37.00 7.91 48.02 8.04 C 50.58 7.89 52.32 10.54 52.00 12.91 C 52.00 24.31 52.01 35.72 52.00 47.12 C 52.32 49.45 50.58 52.00 48.10 51.95 C 36.38 52.08 24.65 51.97 12.92 52.00 C 10.56 52.32 7.90 50.61 8.05 48.04 C 7.93 36.34 8.03 24.63 8.00 12.92 C 7.82 11.11 8.61 9.12 10.38 8.37 M 17.19 42.80 C 18.61 41.39 20.02 39.97 21.44 38.55 C 16.97 33.84 17.01 26.13 21.44 21.41 C 20.02 20.01 18.60 18.61 17.19 17.20 C 10.36 24.07 10.38 35.93 17.19 42.80 M 38.58 21.41 C 42.99 26.16 43.01 33.82 38.58 38.56 C 39.99 39.97 41.40 41.39 42.81 42.80 C 49.61 35.92 49.61 24.09 42.82 17.20 C 41.40 18.60 39.99 20.01 38.58 21.41 M 28.38 26.37 C 25.93 27.38 25.13 30.97 27.16 32.79 C 28.98 34.82 32.56 34.13 33.60 31.65 C 35.34 28.59 31.48 24.65 28.38 26.37 Z" />
</g>
</svg>
