<?xml version="1.0" encoding="UTF-8" ?>
<!DOCTYPE svg PUBLIC "-//W3C//DTD SVG 1.1//EN" "http://www.w3.org/Graphics/SVG/1.1/DTD/svg11.dtd">
<svg width="60pt" height="60pt" viewBox="0 0 60 60" version="1.1" xmlns="http://www.w3.org/2000/svg">
<g id="#ffffffff">
<path fill="#ffffff" opacity="1.00" d=" M 0.00 0.00 L 60.00 0.00 L 60.00 60.00 L 0.00 60.00 L 0.00 0.00 M 29.08 10.19 C 27.55 10.92 27.83 12.96 29.06 13.84 C 34.91 19.69 40.68 25.63 46.64 31.36 C 47.77 32.67 50.08 31.80 49.92 30.03 C 50.01 23.73 50.19 17.39 49.82 11.11 C 49.58 10.87 49.12 10.41 48.89 10.18 C 42.31 9.88 35.66 9.86 29.08 10.19 M 24.46 21.42 C 25.06 22.52 26.93 24.19 25.40 25.39 C 24.24 26.93 22.53 25.09 21.44 24.47 C 20.47 25.47 19.48 26.46 18.48 27.43 C 19.06 28.56 20.94 30.17 19.40 31.39 C 18.24 32.93 16.51 31.09 15.43 30.48 C 14.46 31.48 13.47 32.46 12.48 33.44 C 13.11 34.51 14.92 36.28 13.37 37.42 C 12.04 38.96 10.29 36.90 9.12 36.32 C 6.86 39.71 8.66 43.41 11.55 45.67 C 9.76 47.48 7.77 49.12 6.25 51.18 C 5.29 52.70 7.15 54.69 8.76 53.81 C 10.82 52.27 12.49 50.29 14.30 48.47 C 15.64 49.59 16.81 51.00 18.44 51.72 C 20.21 52.43 21.99 51.40 23.67 50.92 C 23.12 49.72 21.01 47.90 22.60 46.60 C 23.75 45.07 25.48 46.90 26.56 47.53 C 27.53 46.53 28.51 45.54 29.51 44.57 C 28.94 43.42 27.09 41.90 28.57 40.64 C 29.68 39.04 31.49 40.89 32.56 41.53 C 33.53 40.52 34.53 39.53 35.53 38.56 C 34.86 37.53 33.09 35.65 34.62 34.58 C 35.85 33.07 37.46 34.94 38.58 35.54 C 39.70 34.34 40.83 33.15 41.98 31.98 C 37.34 27.31 32.67 22.67 28.03 18.00 C 26.86 19.15 25.66 20.29 24.46 21.42 Z" />
<path fill="#ffffff" opacity="1.00" d=" M 29.17 28.09 C 31.54 27.08 33.23 30.93 30.75 31.80 C 28.53 33.05 26.82 29.11 29.17 28.09 Z" />
<path fill="#ffffff" opacity="1.00" d=" M 23.05 34.10 C 24.52 33.64 25.78 34.55 26.14 35.98 C 25.89 37.16 24.53 38.64 23.27 37.82 C 21.54 37.22 21.75 35.06 23.05 34.10 Z" />
<path fill="#ffffff" opacity="1.00" d=" M 17.23 40.20 C 19.45 38.94 21.31 43.01 18.75 43.80 C 16.59 45.10 14.69 40.96 17.23 40.20 Z" />
</g>
<g id="#000000ff">
<path fill="#000000" opacity="1.00" d=" M 29.08 10.19 C 35.66 9.86 42.31 9.88 48.89 10.18 C 49.12 10.41 49.58 10.87 49.82 11.11 C 50.19 17.39 50.01 23.73 49.92 30.03 C 50.08 31.80 47.77 32.67 46.64 31.36 C 40.68 25.63 34.91 19.69 29.06 13.84 C 27.83 12.96 27.55 10.92 29.08 10.19 Z" />
<path fill="#000000" opacity="1.00" d=" M 24.46 21.42 C 25.66 20.29 26.86 19.15 28.03 18.00 C 32.67 22.67 37.34 27.31 41.98 31.98 C 40.83 33.15 39.70 34.34 38.58 35.54 C 37.46 34.94 35.85 33.07 34.62 34.58 C 33.09 35.65 34.86 37.53 35.53 38.56 C 34.53 39.53 33.53 40.52 32.56 41.53 C 31.49 40.89 29.68 39.04 28.57 40.64 C 27.09 41.90 28.94 43.42 29.51 44.57 C 28.51 45.54 27.53 46.53 26.56 47.53 C 25.48 46.90 23.75 45.07 22.60 46.60 C 21.01 47.90 23.12 49.72 23.67 50.92 C 21.99 51.40 20.21 52.43 18.44 51.72 C 16.81 51.00 15.64 49.59 14.30 48.47 C 12.49 50.29 10.82 52.27 8.76 53.81 C 7.15 54.69 5.29 52.70 6.25 51.18 C 7.77 49.12 9.76 47.48 11.55 45.67 C 8.66 43.41 6.86 39.71 9.12 36.32 C 10.29 36.90 12.04 38.96 13.37 37.42 C 14.92 36.28 13.11 34.51 12.48 33.44 C 13.47 32.46 14.46 31.48 15.43 30.48 C 16.51 31.09 18.24 32.93 19.40 31.39 C 20.94 30.17 19.06 28.56 18.48 27.43 C 19.48 26.46 20.47 25.47 21.44 24.47 C 22.53 25.09 24.24 26.93 25.40 25.39 C 26.93 24.19 25.06 22.52 24.46 21.42 M 29.17 28.09 C 26.82 29.11 28.53 33.05 30.75 31.80 C 33.23 30.93 31.54 27.08 29.17 28.09 M 23.05 34.10 C 21.75 35.06 21.54 37.22 23.27 37.82 C 24.53 38.64 25.89 37.16 26.14 35.98 C 25.78 34.55 24.52 33.64 23.05 34.10 M 17.23 40.20 C 14.69 40.96 16.59 45.10 18.75 43.80 C 21.31 43.01 19.45 38.94 17.23 40.20 Z" />
</g>
</svg>
