<?xml version="1.0" encoding="UTF-8" ?>
<!DOCTYPE svg PUBLIC "-//W3C//DTD SVG 1.1//EN" "http://www.w3.org/Graphics/SVG/1.1/DTD/svg11.dtd">
<svg width="64pt" height="64pt" viewBox="0 0 64 64" version="1.1" xmlns="http://www.w3.org/2000/svg">
<g id="#ffffffff">
<path fill="#ffffff" opacity="1.00" d=" M 0.00 0.00 L 64.00 0.00 L 64.00 64.00 L 0.00 64.00 L 0.00 0.00 M 8.00 10.00 C 8.00 24.67 8.00 39.33 8.00 54.00 C 19.35 53.97 30.71 54.05 42.06 53.97 C 47.94 54.02 54.21 51.10 56.71 45.54 C 58.89 40.99 58.02 35.59 55.73 31.26 C 52.22 24.50 47.30 18.60 42.04 13.15 C 39.94 15.14 37.93 17.22 36.00 19.37 C 36.00 16.25 36.00 13.12 36.00 10.00 C 26.67 10.00 17.33 10.00 8.00 10.00 Z" />
<path fill="#ffffff" opacity="1.00" d=" M 12.00 14.00 C 18.67 14.00 25.33 14.00 32.00 14.00 C 31.88 17.53 32.27 21.11 31.81 24.62 C 30.02 27.66 28.08 30.65 26.88 33.99 C 26.16 34.00 24.72 34.00 24.00 34.00 C 24.00 35.33 24.00 36.66 24.00 37.99 C 24.51 38.00 25.53 38.00 26.04 38.01 C 26.06 39.34 26.09 40.67 26.14 42.00 C 25.60 42.00 24.53 42.00 24.00 42.01 C 24.00 43.33 24.00 44.66 24.00 45.98 C 25.17 46.00 26.33 46.02 27.50 46.04 C 28.48 47.39 29.49 48.72 30.52 50.03 C 24.35 49.96 18.17 50.02 12.00 50.00 C 12.00 38.00 12.00 26.00 12.00 14.00 M 16.00 18.00 C 16.00 19.33 16.00 20.67 16.00 22.00 C 17.33 22.00 18.67 22.00 20.00 22.00 C 20.00 20.67 20.00 19.33 20.00 18.00 C 18.67 18.00 17.33 18.00 16.00 18.00 M 24.00 18.00 C 24.00 19.33 24.00 20.67 24.00 22.00 C 25.33 22.00 26.67 22.00 28.00 22.00 C 28.00 20.67 28.00 19.33 28.00 18.00 C 26.67 18.00 25.33 18.00 24.00 18.00 M 16.00 26.00 C 16.00 27.33 16.00 28.67 16.00 30.00 C 17.33 30.00 18.67 30.00 20.00 30.00 C 20.00 28.67 20.00 27.33 20.00 26.00 C 18.67 26.00 17.33 26.00 16.00 26.00 M 24.00 26.00 C 24.00 27.33 24.00 28.67 24.00 30.00 C 25.33 30.00 26.67 30.00 28.00 30.00 C 28.00 28.67 28.00 27.33 28.00 26.00 C 26.67 26.00 25.33 26.00 24.00 26.00 M 16.00 34.00 C 16.00 35.33 16.00 36.67 16.00 38.00 C 17.33 38.00 18.67 38.00 20.00 38.00 C 20.00 36.67 20.00 35.33 20.00 34.00 C 18.67 34.00 17.33 34.00 16.00 34.00 M 16.00 42.00 C 16.00 43.33 16.00 44.67 16.00 46.00 C 17.33 46.00 18.67 46.00 20.00 46.00 C 20.00 44.67 20.00 43.33 20.00 42.00 C 18.67 42.00 17.33 42.00 16.00 42.00 Z" />
<path fill="#ffffff" opacity="1.00" d=" M 30.33 36.92 C 32.24 29.94 36.89 24.04 41.94 19.02 C 46.72 24.34 51.37 30.14 53.59 37.04 C 54.88 40.98 53.03 44.98 50.24 47.73 C 50.79 39.48 47.31 31.43 41.26 25.89 C 41.40 29.71 41.51 33.57 40.82 37.36 C 39.56 35.90 38.44 34.33 37.38 32.73 C 34.92 37.32 33.44 42.45 33.78 47.70 C 30.86 44.97 29.21 40.90 30.33 36.92 Z" />
<path fill="#ffffff" opacity="1.00" d=" M 38.41 40.79 C 41.21 42.29 44.03 40.80 44.97 37.93 C 45.55 41.11 46.96 44.50 45.76 47.70 C 44.53 50.36 40.51 50.80 38.74 48.47 C 36.99 46.25 38.15 43.30 38.41 40.79 Z" />
</g>
<g id="#000000ff">
<path fill="#000000" opacity="1.00" d=" M 8.00 10.00 C 17.33 10.00 26.67 10.00 36.00 10.00 C 36.00 13.12 36.00 16.25 36.00 19.37 C 37.93 17.22 39.94 15.14 42.04 13.15 C 47.30 18.60 52.22 24.50 55.73 31.26 C 58.02 35.59 58.89 40.99 56.71 45.54 C 54.21 51.10 47.94 54.02 42.06 53.97 C 30.71 54.05 19.35 53.97 8.00 54.00 C 8.00 39.33 8.00 24.67 8.00 10.00 M 12.00 14.00 C 12.00 26.00 12.00 38.00 12.00 50.00 C 18.17 50.02 24.35 49.96 30.52 50.03 C 29.49 48.72 28.48 47.39 27.50 46.04 C 26.33 46.02 25.17 46.00 24.00 45.98 C 24.00 44.66 24.00 43.33 24.00 42.01 C 24.53 42.00 25.60 42.00 26.14 42.00 C 26.09 40.67 26.06 39.34 26.04 38.01 C 25.53 38.00 24.51 38.00 24.00 37.99 C 24.00 36.66 24.00 35.33 24.00 34.00 C 24.72 34.00 26.16 34.00 26.88 33.99 C 28.08 30.65 30.02 27.66 31.81 24.62 C 32.27 21.11 31.88 17.53 32.00 14.00 C 25.33 14.00 18.67 14.00 12.00 14.00 M 30.33 36.92 C 29.21 40.90 30.86 44.97 33.78 47.70 C 33.44 42.45 34.92 37.32 37.38 32.73 C 38.44 34.33 39.56 35.90 40.82 37.36 C 41.51 33.57 41.40 29.71 41.26 25.89 C 47.31 31.43 50.79 39.48 50.24 47.73 C 53.03 44.98 54.88 40.98 53.59 37.04 C 51.37 30.14 46.72 24.34 41.94 19.02 C 36.89 24.04 32.24 29.94 30.33 36.92 M 38.41 40.79 C 38.15 43.30 36.99 46.25 38.74 48.47 C 40.51 50.80 44.53 50.36 45.76 47.70 C 46.96 44.50 45.55 41.11 44.97 37.93 C 44.03 40.80 41.21 42.29 38.41 40.79 Z" />
<path fill="#000000" opacity="1.00" d=" M 16.00 18.00 C 17.33 18.00 18.67 18.00 20.00 18.00 C 20.00 19.33 20.00 20.67 20.00 22.00 C 18.67 22.00 17.33 22.00 16.00 22.00 C 16.00 20.67 16.00 19.33 16.00 18.00 Z" />
<path fill="#000000" opacity="1.00" d=" M 24.00 18.00 C 25.33 18.00 26.67 18.00 28.00 18.00 C 28.00 19.33 28.00 20.67 28.00 22.00 C 26.67 22.00 25.33 22.00 24.00 22.00 C 24.00 20.67 24.00 19.33 24.00 18.00 Z" />
<path fill="#000000" opacity="1.00" d=" M 16.00 26.00 C 17.33 26.00 18.67 26.00 20.00 26.00 C 20.00 27.33 20.00 28.67 20.00 30.00 C 18.67 30.00 17.33 30.00 16.00 30.00 C 16.00 28.67 16.00 27.33 16.00 26.00 Z" />
<path fill="#000000" opacity="1.00" d=" M 24.00 26.00 C 25.33 26.00 26.67 26.00 28.00 26.00 C 28.00 27.33 28.00 28.67 28.00 30.00 C 26.67 30.00 25.33 30.00 24.00 30.00 C 24.00 28.67 24.00 27.33 24.00 26.00 Z" />
<path fill="#000000" opacity="1.00" d=" M 16.00 34.00 C 17.33 34.00 18.67 34.00 20.00 34.00 C 20.00 35.33 20.00 36.67 20.00 38.00 C 18.67 38.00 17.33 38.00 16.00 38.00 C 16.00 36.67 16.00 35.33 16.00 34.00 Z" />
<path fill="#000000" opacity="1.00" d=" M 16.00 42.00 C 17.33 42.00 18.67 42.00 20.00 42.00 C 20.00 43.33 20.00 44.67 20.00 46.00 C 18.67 46.00 17.33 46.00 16.00 46.00 C 16.00 44.67 16.00 43.33 16.00 42.00 Z" />
</g>
</svg>
