<?xml version="1.0" encoding="UTF-8" ?>
<!DOCTYPE svg PUBLIC "-//W3C//DTD SVG 1.1//EN" "http://www.w3.org/Graphics/SVG/1.1/DTD/svg11.dtd">
<svg width="64pt" height="64pt" viewBox="0 0 64 64" version="1.1" xmlns="http://www.w3.org/2000/svg">
<g id="#ffffffff">
<path fill="#ffffff" opacity="1.00" d=" M 0.00 0.00 L 64.00 0.00 L 64.00 64.00 L 0.00 64.00 L 0.00 0.00 M 7.60 8.32 C 7.85 9.62 8.11 10.92 8.36 12.21 C 15.13 11.64 23.54 12.13 27.78 18.27 C 30.22 21.27 29.10 25.56 31.29 28.62 C 32.93 31.09 34.63 33.52 36.21 36.02 C 34.13 36.69 32.06 37.38 29.99 38.05 C 29.83 41.39 30.82 45.47 28.07 48.05 C 26.04 50.39 22.75 49.97 19.98 50.06 C 19.98 52.70 19.98 55.35 19.98 58.00 C 21.31 58.00 22.64 58.00 23.98 58.00 C 23.98 56.73 23.99 55.47 23.99 54.20 C 30.42 53.55 34.97 47.38 34.09 41.03 C 36.60 40.20 39.93 39.14 39.94 35.92 C 39.36 30.97 34.01 28.01 33.58 22.94 C 33.05 18.77 31.01 14.78 27.56 12.30 C 21.88 8.12 14.39 7.58 7.60 8.32 M 23.13 28.10 C 20.85 29.23 22.39 32.86 24.79 31.87 C 27.15 30.80 25.55 27.14 23.13 28.10 M 48.76 36.86 C 46.05 38.28 42.63 39.09 41.08 42.02 C 38.71 45.88 40.49 51.50 44.68 53.26 C 48.51 55.12 53.54 53.24 55.24 49.34 C 57.97 43.02 57.99 35.95 58.02 29.18 C 55.15 31.97 52.45 35.11 48.76 36.86 Z" />
<path fill="#ffffff" opacity="1.00" d=" M 45.78 42.79 C 48.36 41.38 51.07 40.20 53.61 38.72 C 53.07 42.78 52.75 47.41 49.33 50.23 C 49.49 48.18 49.80 46.14 50.12 44.11 C 48.16 45.49 46.06 46.65 43.87 47.64 C 44.18 45.97 43.94 43.66 45.78 42.79 Z" />
</g>
<g id="#000000ff">
<path fill="#000000" opacity="1.00" d=" M 7.60 8.32 C 14.39 7.58 21.88 8.12 27.56 12.30 C 31.01 14.78 33.05 18.77 33.58 22.94 C 34.01 28.01 39.36 30.97 39.94 35.92 C 39.93 39.14 36.60 40.20 34.09 41.03 C 34.97 47.38 30.42 53.55 23.99 54.20 C 23.99 55.47 23.98 56.73 23.98 58.00 C 22.64 58.00 21.31 58.00 19.98 58.00 C 19.98 55.35 19.98 52.70 19.98 50.06 C 22.75 49.97 26.04 50.39 28.07 48.05 C 30.82 45.47 29.83 41.39 29.99 38.05 C 32.06 37.38 34.13 36.69 36.21 36.02 C 34.63 33.52 32.93 31.09 31.29 28.62 C 29.10 25.56 30.22 21.27 27.78 18.27 C 23.54 12.13 15.13 11.64 8.36 12.21 C 8.11 10.92 7.85 9.62 7.60 8.32 Z" />
<path fill="#000000" opacity="1.00" d=" M 23.13 28.10 C 25.55 27.14 27.15 30.80 24.79 31.87 C 22.39 32.86 20.85 29.23 23.13 28.10 Z" />
<path fill="#000000" opacity="1.00" d=" M 48.76 36.86 C 52.45 35.11 55.15 31.97 58.02 29.18 C 57.99 35.95 57.97 43.02 55.24 49.34 C 53.54 53.24 48.51 55.12 44.68 53.26 C 40.49 51.50 38.71 45.88 41.08 42.02 C 42.63 39.09 46.05 38.28 48.76 36.86 M 45.78 42.79 C 43.94 43.66 44.18 45.97 43.87 47.64 C 46.06 46.65 48.16 45.49 50.12 44.11 C 49.80 46.14 49.49 48.18 49.33 50.23 C 52.75 47.41 53.07 42.78 53.61 38.72 C 51.07 40.20 48.36 41.38 45.78 42.79 Z" />
</g>
</svg>
