<?xml version="1.0" encoding="UTF-8" ?>
<!DOCTYPE svg PUBLIC "-//W3C//DTD SVG 1.1//EN" "http://www.w3.org/Graphics/SVG/1.1/DTD/svg11.dtd">
<svg width="60pt" height="60pt" viewBox="0 0 60 60" version="1.1" xmlns="http://www.w3.org/2000/svg">
<g id="#ffffffff">
<path fill="#ffffff" opacity="1.00" d=" M 0.00 0.00 L 60.00 0.00 L 60.00 60.00 L 0.00 60.00 L 0.00 0.00 M 11.45 16.05 C 10.75 14.42 10.10 12.76 9.43 11.12 C 7.67 13.93 7.58 17.23 7.31 20.42 C 6.57 22.74 3.56 25.67 5.98 27.88 C 5.35 33.13 5.68 38.80 8.62 43.36 C 16.73 56.06 37.43 57.84 47.37 46.39 C 52.74 40.68 55.28 32.86 55.14 25.09 C 54.73 25.28 53.90 25.66 53.49 25.84 C 53.77 21.49 52.44 17.28 50.41 13.48 C 50.47 14.60 50.61 16.85 50.68 17.98 C 48.94 11.79 42.56 9.80 37.42 7.34 C 28.05 3.71 16.89 7.74 11.45 16.05 Z" />
<path fill="#ffffff" opacity="1.00" d=" M 16.30 16.19 C 19.85 12.48 24.76 9.88 30.00 10.03 C 37.36 9.95 44.55 14.90 46.83 21.95 C 46.48 22.09 45.80 22.39 45.46 22.54 C 46.03 25.11 46.85 28.12 45.67 30.62 C 44.54 30.20 45.24 27.41 44.54 26.38 C 43.73 30.96 44.36 35.95 41.62 40.01 C 41.62 39.10 41.63 37.27 41.63 36.36 C 39.69 38.78 37.72 41.59 34.56 42.44 C 30.36 43.50 25.94 41.84 22.72 39.12 C 24.77 39.11 26.87 39.67 28.88 39.13 C 31.00 38.13 32.96 36.73 35.32 36.35 C 34.26 34.09 31.49 33.00 29.25 34.23 C 25.68 35.93 19.98 34.03 19.72 29.61 C 21.58 29.68 23.41 30.01 25.24 30.31 C 24.79 28.90 24.34 27.49 23.88 26.08 C 25.72 24.92 27.82 23.99 28.98 22.05 C 26.27 22.03 23.85 20.99 21.96 19.05 C 22.78 16.87 24.23 15.07 25.81 13.40 C 23.49 14.16 21.25 15.19 19.38 16.80 C 18.35 16.61 17.32 16.41 16.30 16.19 Z" />
</g>
<g id="#000000ff">
<path fill="#000000" opacity="1.00" d=" M 11.45 16.05 C 16.89 7.74 28.05 3.71 37.42 7.34 C 42.56 9.80 48.94 11.79 50.68 17.98 C 50.61 16.85 50.47 14.60 50.41 13.48 C 52.44 17.28 53.77 21.49 53.49 25.84 C 53.90 25.66 54.73 25.28 55.14 25.09 C 55.28 32.86 52.74 40.68 47.37 46.39 C 37.43 57.84 16.73 56.06 8.62 43.36 C 5.68 38.80 5.35 33.13 5.98 27.88 C 3.56 25.67 6.57 22.74 7.31 20.42 C 7.58 17.23 7.67 13.93 9.43 11.12 C 10.10 12.76 10.75 14.42 11.45 16.05 M 16.30 16.19 C 17.32 16.41 18.35 16.61 19.38 16.80 C 21.25 15.19 23.49 14.16 25.81 13.40 C 24.23 15.07 22.78 16.87 21.96 19.05 C 23.85 20.99 26.27 22.03 28.98 22.05 C 27.82 23.99 25.72 24.92 23.88 26.08 C 24.34 27.49 24.79 28.90 25.24 30.31 C 23.41 30.01 21.58 29.68 19.72 29.61 C 19.98 34.03 25.68 35.93 29.25 34.23 C 31.49 33.00 34.26 34.09 35.32 36.35 C 32.96 36.73 31.00 38.13 28.88 39.13 C 26.87 39.67 24.77 39.11 22.72 39.12 C 25.94 41.84 30.36 43.50 34.56 42.44 C 37.72 41.59 39.69 38.78 41.63 36.36 C 41.63 37.27 41.62 39.10 41.62 40.01 C 44.36 35.95 43.73 30.96 44.54 26.38 C 45.24 27.41 44.54 30.20 45.67 30.62 C 46.85 28.12 46.03 25.11 45.46 22.54 C 45.80 22.39 46.48 22.09 46.83 21.95 C 44.55 14.90 37.36 9.95 30.00 10.03 C 24.76 9.88 19.85 12.48 16.30 16.19 Z" />
</g>
</svg>
