<?xml version="1.0" encoding="UTF-8" ?>
<!DOCTYPE svg PUBLIC "-//W3C//DTD SVG 1.1//EN" "http://www.w3.org/Graphics/SVG/1.1/DTD/svg11.dtd">
<svg width="64pt" height="64pt" viewBox="0 0 64 64" version="1.1" xmlns="http://www.w3.org/2000/svg">
<g id="#ffffffff">
<path fill="#ffffff" opacity="1.00" d=" M 0.00 0.00 L 64.00 0.00 L 64.00 64.00 L 0.00 64.00 L 0.00 0.00 M 8.02 17.98 C 9.04 19.00 10.06 20.02 11.08 21.04 C 14.42 17.72 17.75 14.38 21.07 11.04 C 20.05 10.03 19.03 9.01 18.02 7.98 C 14.68 11.31 11.35 14.65 8.02 17.98 M 36.02 17.98 C 39.35 21.32 42.67 24.66 46.00 28.00 C 49.34 24.66 52.68 21.32 56.01 17.98 C 52.67 14.65 49.34 11.32 46.02 7.99 C 42.68 11.31 39.35 14.65 36.02 17.98 M 14.94 24.94 C 15.96 25.96 16.98 26.98 18.00 28.00 C 21.34 24.66 24.68 21.32 28.01 17.98 C 27.00 16.97 25.98 15.95 24.97 14.94 C 21.63 18.27 18.29 21.61 14.94 24.94 M 29.40 24.46 C 23.69 26.13 22.14 34.44 26.83 38.07 C 30.99 41.94 38.52 39.52 39.72 34.00 C 41.55 28.16 35.07 22.16 29.40 24.46 M 23.94 44.00 C 23.94 45.33 23.94 46.67 23.94 48.00 C 29.27 48.00 34.60 48.00 39.94 48.00 C 39.94 46.67 39.94 45.33 39.94 44.00 C 34.61 44.00 29.27 44.00 23.94 44.00 M 23.94 52.00 C 23.94 53.33 23.94 54.67 23.94 56.00 C 29.27 56.00 34.61 56.00 39.94 56.00 C 39.94 54.66 39.94 53.33 39.94 52.00 C 34.60 52.00 29.27 52.00 23.94 52.00 Z" />
<path fill="#ffffff" opacity="1.00" d=" M 30.32 28.35 C 33.18 26.86 36.81 29.84 35.89 32.93 C 35.37 35.61 31.84 36.93 29.68 35.27 C 27.19 33.67 27.57 29.46 30.32 28.35 Z" />
</g>
<g id="#000000ff">
<path fill="#000000" opacity="1.00" d=" M 8.02 17.98 C 11.35 14.65 14.68 11.31 18.02 7.98 C 19.03 9.01 20.05 10.03 21.07 11.04 C 17.75 14.38 14.42 17.72 11.08 21.04 C 10.06 20.02 9.04 19.00 8.02 17.98 Z" />
<path fill="#000000" opacity="1.00" d=" M 36.02 17.98 C 39.35 14.65 42.68 11.31 46.02 7.99 C 49.34 11.32 52.67 14.65 56.01 17.98 C 52.68 21.32 49.34 24.66 46.00 28.00 C 42.67 24.66 39.35 21.32 36.02 17.98 Z" />
<path fill="#000000" opacity="1.00" d=" M 14.94 24.94 C 18.29 21.61 21.63 18.27 24.97 14.94 C 25.98 15.95 27.00 16.97 28.01 17.98 C 24.68 21.32 21.34 24.66 18.00 28.00 C 16.98 26.98 15.96 25.96 14.94 24.94 Z" />
<path fill="#000000" opacity="1.00" d=" M 29.40 24.46 C 35.07 22.16 41.55 28.16 39.72 34.00 C 38.52 39.52 30.99 41.94 26.83 38.07 C 22.14 34.44 23.69 26.13 29.40 24.46 M 30.32 28.35 C 27.57 29.46 27.19 33.67 29.68 35.27 C 31.84 36.93 35.37 35.61 35.89 32.93 C 36.81 29.84 33.18 26.86 30.32 28.35 Z" />
<path fill="#000000" opacity="1.00" d=" M 23.94 44.00 C 29.27 44.00 34.61 44.00 39.94 44.00 C 39.94 45.33 39.94 46.67 39.94 48.00 C 34.60 48.00 29.27 48.00 23.94 48.00 C 23.94 46.67 23.94 45.33 23.94 44.00 Z" />
<path fill="#000000" opacity="1.00" d=" M 23.94 52.00 C 29.27 52.00 34.60 52.00 39.94 52.00 C 39.94 53.33 39.94 54.66 39.94 56.00 C 34.61 56.00 29.27 56.00 23.94 56.00 C 23.94 54.67 23.94 53.33 23.94 52.00 Z" />
</g>
</svg>
