<?xml version="1.0" encoding="UTF-8" ?>
<!DOCTYPE svg PUBLIC "-//W3C//DTD SVG 1.1//EN" "http://www.w3.org/Graphics/SVG/1.1/DTD/svg11.dtd">
<svg width="60pt" height="60pt" viewBox="0 0 60 60" version="1.1" xmlns="http://www.w3.org/2000/svg">
<g id="#ffffffff">
<path fill="#ffffff" opacity="1.00" d=" M 0.00 0.00 L 60.00 0.00 L 60.00 60.00 L 0.00 60.00 L 0.00 0.00 M 7.15 8.20 C 5.24 8.92 5.93 12.19 8.01 11.93 C 22.37 12.09 36.73 11.97 51.09 11.98 C 52.69 12.39 54.75 10.86 53.79 9.16 C 53.18 7.65 51.31 8.14 50.06 7.99 C 35.76 8.15 21.43 7.73 7.15 8.20 M 8.00 16.00 C 8.03 26.69 7.93 37.37 8.04 48.06 C 7.91 50.63 10.60 52.35 12.96 52.00 C 24.36 52.00 35.75 52.01 47.15 52.00 C 49.48 52.34 52.00 50.55 51.95 48.09 C 52.07 37.39 51.96 26.70 52.00 16.00 C 37.33 16.00 22.67 16.00 8.00 16.00 Z" />
<path fill="#ffffff" opacity="1.00" d=" M 20.59 28.59 C 24.86 22.82 34.39 22.50 38.95 28.06 C 43.80 33.55 41.45 41.38 42.00 48.00 C 39.79 47.99 37.58 48.00 35.38 48.04 C 39.35 44.31 37.67 38.75 36.16 34.30 C 35.01 35.02 33.78 36.74 32.27 35.68 C 30.66 34.28 30.51 31.97 29.84 30.07 C 26.91 33.37 23.51 36.58 22.15 40.91 C 21.53 43.57 22.99 46.07 24.63 48.04 C 22.42 48.00 20.21 47.99 18.00 48.00 C 18.56 41.57 16.32 34.13 20.59 28.59 Z" />
<path fill="#ffffff" opacity="1.00" d=" M 25.99 43.94 C 26.50 41.33 28.49 39.36 30.00 37.29 C 31.72 39.83 35.43 42.95 33.26 46.25 C 31.33 49.55 25.73 47.70 25.99 43.94 Z" />
</g>
<g id="#000000ff">
<path fill="#968176" opacity="1.00" d=" M 7.15 8.20 C 21.43 7.73 35.76 8.15 50.06 7.99 C 51.31 8.14 53.18 7.65 53.79 9.16 C 54.75 10.86 52.69 12.39 51.09 11.98 C 36.73 11.97 22.37 12.09 8.01 11.93 C 5.93 12.19 5.24 8.92 7.15 8.20 Z" />
<path fill="#968176" opacity="1.00" d=" M 8.00 16.00 C 22.67 16.00 37.33 16.00 52.00 16.00 C 51.96 26.70 52.07 37.39 51.95 48.09 C 52.00 50.55 49.48 52.34 47.15 52.00 C 35.75 52.01 24.36 52.00 12.96 52.00 C 10.60 52.35 7.91 50.63 8.04 48.06 C 7.93 37.37 8.03 26.69 8.00 16.00 M 20.59 28.59 C 16.32 34.13 18.56 41.57 18.00 48.00 C 20.21 47.99 22.42 48.00 24.63 48.04 C 22.99 46.07 21.53 43.57 22.15 40.91 C 23.51 36.58 26.91 33.37 29.84 30.07 C 30.51 31.97 30.66 34.28 32.27 35.68 C 33.78 36.74 35.01 35.02 36.16 34.30 C 37.67 38.75 39.35 44.31 35.38 48.04 C 37.58 48.00 39.79 47.99 42.00 48.00 C 41.45 41.38 43.80 33.55 38.95 28.06 C 34.39 22.50 24.86 22.82 20.59 28.59 M 25.99 43.94 C 25.73 47.70 31.33 49.55 33.26 46.25 C 35.43 42.95 31.72 39.83 30.00 37.29 C 28.49 39.36 26.50 41.33 25.99 43.94 Z" />
</g>
</svg>
