<?xml version="1.0" encoding="UTF-8" ?>
<!DOCTYPE svg PUBLIC "-//W3C//DTD SVG 1.1//EN" "http://www.w3.org/Graphics/SVG/1.1/DTD/svg11.dtd">
<svg width="64pt" height="64pt" viewBox="0 0 64 64" version="1.1" xmlns="http://www.w3.org/2000/svg">
<g id="#ffffffff">
<path fill="#ffffff" opacity="1.00" d=" M 0.00 0.00 L 64.00 0.00 L 64.00 64.00 L 0.00 64.00 L 0.00 0.00 M 28.89 5.88 C 27.28 11.87 22.47 16.13 19.20 21.20 C 13.86 28.47 10.11 38.08 13.08 47.05 C 15.21 53.75 22.18 57.76 28.97 57.93 C 35.22 58.11 42.18 57.40 47.10 53.12 C 52.04 48.67 52.61 41.30 51.48 35.13 C 49.37 25.27 42.85 17.07 35.87 10.09 C 33.84 8.28 32.00 5.52 28.89 5.88 Z" />
<path fill="#ffffff" opacity="1.00" d=" M 16.49 36.15 C 18.43 26.30 26.51 19.57 31.05 11.01 C 37.71 17.25 43.85 24.51 46.84 33.27 C 48.79 39.20 48.62 46.71 43.58 51.11 C 45.37 40.76 40.86 30.39 35.22 21.95 C 34.25 21.96 32.30 22.00 31.33 22.01 C 32.85 27.23 34.84 33.64 31.13 38.40 C 28.63 37.17 27.47 34.58 26.21 32.26 C 21.87 37.52 18.64 44.33 20.53 51.28 C 16.48 47.41 15.15 41.50 16.49 36.15 Z" />
<path fill="#ffffff" opacity="1.00" d=" M 32.62 41.59 C 35.60 40.53 36.52 37.25 37.25 34.52 C 39.08 39.45 41.14 44.96 39.38 50.21 C 37.29 54.91 30.40 54.89 26.57 52.52 C 22.58 49.39 24.37 43.80 26.13 39.93 C 28.03 41.18 30.27 42.67 32.62 41.59 Z" />
</g>
<g id="#000000ff">
<path fill="#000000" opacity="1.00" d=" M 28.89 5.88 C 32.00 5.52 33.84 8.28 35.87 10.09 C 42.85 17.07 49.37 25.27 51.48 35.13 C 52.61 41.30 52.04 48.67 47.10 53.12 C 42.18 57.40 35.22 58.11 28.97 57.93 C 22.18 57.76 15.21 53.75 13.08 47.05 C 10.11 38.08 13.86 28.47 19.20 21.20 C 22.47 16.13 27.28 11.87 28.89 5.88 M 16.49 36.15 C 15.15 41.50 16.48 47.41 20.53 51.28 C 18.64 44.33 21.87 37.52 26.21 32.26 C 27.47 34.58 28.63 37.17 31.13 38.40 C 34.84 33.64 32.85 27.23 31.33 22.01 C 32.30 22.00 34.25 21.96 35.22 21.95 C 40.86 30.39 45.37 40.76 43.58 51.11 C 48.62 46.71 48.79 39.20 46.84 33.27 C 43.85 24.51 37.71 17.25 31.05 11.01 C 26.51 19.57 18.43 26.30 16.49 36.15 M 32.62 41.59 C 30.27 42.67 28.03 41.18 26.13 39.93 C 24.37 43.80 22.58 49.39 26.57 52.52 C 30.40 54.89 37.29 54.91 39.38 50.21 C 41.14 44.96 39.08 39.45 37.25 34.52 C 36.52 37.25 35.60 40.53 32.62 41.59 Z" />
</g>
</svg>
