<?xml version="1.0" encoding="UTF-8" ?>
<!DOCTYPE svg PUBLIC "-//W3C//DTD SVG 1.1//EN" "http://www.w3.org/Graphics/SVG/1.1/DTD/svg11.dtd">
<svg width="60pt" height="60pt" viewBox="0 0 60 60" version="1.1" xmlns="http://www.w3.org/2000/svg">
<g id="#ffffffff">
<path fill="#ffffff" opacity="1.00" d=" M 0.00 0.00 L 60.00 0.00 L 60.00 60.00 L 0.00 60.00 L 0.00 0.00 M 24.29 5.09 C 23.31 16.49 11.87 23.33 10.30 34.58 C 8.26 44.24 16.17 53.16 24.96 55.82 C 26.92 56.88 29.09 54.18 27.35 52.66 C 24.42 49.51 21.19 45.55 22.22 40.92 C 22.71 37.74 25.31 35.60 27.72 33.78 C 27.56 36.11 26.92 38.67 28.22 40.81 C 30.88 45.26 35.99 47.95 37.60 53.10 C 38.01 54.46 38.94 56.80 40.79 55.79 C 45.10 53.06 48.01 48.42 49.31 43.55 C 51.13 36.20 48.70 28.66 46.08 21.83 C 45.77 20.28 43.78 19.27 42.64 20.59 C 41.44 23.25 40.31 25.98 38.24 28.11 C 37.38 19.32 33.24 11.08 27.34 4.60 C 26.57 3.63 24.73 3.86 24.29 5.09 Z" />
</g>
<g id="#000000ff">
<path fill="#968176" opacity="1.00" d=" M 24.29 5.09 C 24.73 3.86 26.57 3.63 27.34 4.60 C 33.24 11.08 37.38 19.32 38.24 28.11 C 40.31 25.98 41.44 23.25 42.64 20.59 C 43.78 19.27 45.77 20.28 46.08 21.83 C 48.70 28.66 51.13 36.20 49.31 43.55 C 48.01 48.42 45.10 53.06 40.79 55.79 C 38.94 56.80 38.01 54.46 37.60 53.10 C 35.99 47.95 30.88 45.26 28.22 40.81 C 26.92 38.67 27.56 36.11 27.72 33.78 C 25.31 35.60 22.71 37.74 22.22 40.92 C 21.19 45.55 24.42 49.51 27.35 52.66 C 29.09 54.18 26.92 56.88 24.96 55.82 C 16.17 53.16 8.26 44.24 10.30 34.58 C 11.87 23.33 23.31 16.49 24.29 5.09 Z" />
</g>
</svg>
