<?xml version="1.0" encoding="UTF-8" ?>
<!DOCTYPE svg PUBLIC "-//W3C//DTD SVG 1.1//EN" "http://www.w3.org/Graphics/SVG/1.1/DTD/svg11.dtd">
<svg width="60pt" height="60pt" viewBox="0 0 60 60" version="1.1" xmlns="http://www.w3.org/2000/svg">
<g id="#ffffffff">
<path fill="#ffffff" opacity="1.00" d=" M 0.00 0.00 L 60.00 0.00 L 60.00 14.82 C 58.75 14.10 57.92 13.06 57.50 11.69 C 56.18 12.27 54.94 13.02 53.81 13.92 C 45.87 14.09 37.92 13.98 29.97 13.98 C 26.63 14.07 22.79 13.28 20.17 15.95 C 18.24 15.08 16.29 13.89 14.08 14.05 C 12.38 13.78 11.21 16.23 12.59 17.32 C 14.55 18.14 16.60 18.73 18.56 19.58 C 18.06 20.09 17.06 21.11 16.57 21.62 C 19.12 23.62 22.07 25.44 23.67 28.36 C 24.31 31.18 23.56 34.81 26.30 36.71 C 29.64 39.02 35.50 38.60 37.40 34.60 C 38.22 32.59 37.93 30.35 38.05 28.23 C 39.29 27.84 41.00 28.15 41.79 26.88 C 42.04 25.27 42.02 23.63 42.09 22.00 C 48.06 21.95 54.03 22.13 60.00 21.87 L 60.00 60.00 L 0.00 60.00 L 0.00 45.54 C 0.57 46.68 1.37 48.03 2.87 47.90 C 6.27 48.12 9.69 48.12 13.09 47.90 C 14.61 47.97 15.94 46.67 15.90 45.15 C 16.17 41.58 15.79 37.94 16.74 34.44 C 17.75 33.75 20.28 33.76 19.94 31.98 C 19.46 27.69 15.06 24.60 11.02 24.01 C 8.71 23.85 8.20 26.27 7.85 28.01 C 7.44 31.06 4.69 32.81 2.91 35.06 C 0.97 37.20 0.41 40.15 0.00 42.92 L 0.00 0.00 Z" />
<path fill="#ffffff" opacity="1.00" d=" M 28.00 18.00 C 31.26 18.00 34.53 17.99 37.79 18.02 C 37.79 18.51 37.79 19.49 37.78 19.98 C 34.52 20.01 31.26 20.00 28.00 20.00 C 28.00 19.50 28.00 18.50 28.00 18.00 Z" />
<path fill="#ffffff" opacity="1.00" d=" M 28.00 22.00 C 31.26 22.00 34.52 21.99 37.78 22.02 C 37.79 22.51 37.80 23.48 37.81 23.97 C 34.54 24.01 31.27 24.00 28.00 24.00 C 28.00 23.50 28.00 22.50 28.00 22.00 Z" />
<path fill="#ffffff" opacity="1.00" d=" M 31.15 27.96 C 31.87 27.97 33.32 28.00 34.04 28.01 C 33.74 29.99 34.94 33.76 31.97 33.98 C 29.78 34.58 27.90 33.41 27.72 31.13 C 28.91 31.54 30.26 32.46 31.46 31.47 C 32.47 30.34 31.66 29.08 31.15 27.96 Z" />
<path fill="#ffffff" opacity="1.00" d=" M 11.19 30.10 C 13.58 29.15 15.07 32.69 12.89 33.88 C 10.44 34.92 8.83 31.20 11.19 30.10 Z" />
</g>
<g id="#000000ff">
<path fill="#000000" opacity="1.00" d=" M 53.81 13.92 C 54.94 13.02 56.18 12.27 57.50 11.69 C 57.92 13.06 58.75 14.10 60.00 14.82 L 60.00 21.87 C 54.03 22.13 48.06 21.95 42.09 22.00 C 42.02 23.63 42.04 25.27 41.79 26.88 C 41.00 28.15 39.29 27.84 38.05 28.23 C 37.93 30.35 38.22 32.59 37.40 34.60 C 35.50 38.60 29.64 39.02 26.30 36.71 C 23.56 34.81 24.31 31.18 23.67 28.36 C 22.07 25.44 19.12 23.62 16.57 21.62 C 17.06 21.11 18.06 20.09 18.56 19.58 C 16.60 18.73 14.55 18.14 12.59 17.32 C 11.21 16.23 12.38 13.78 14.08 14.05 C 16.29 13.89 18.24 15.08 20.17 15.95 C 22.79 13.28 26.63 14.07 29.97 13.98 C 37.92 13.98 45.87 14.09 53.81 13.92 M 28.00 18.00 C 28.00 18.50 28.00 19.50 28.00 20.00 C 31.26 20.00 34.52 20.01 37.78 19.98 C 37.79 19.49 37.79 18.51 37.79 18.02 C 34.53 17.99 31.26 18.00 28.00 18.00 M 28.00 22.00 C 28.00 22.50 28.00 23.50 28.00 24.00 C 31.27 24.00 34.54 24.01 37.81 23.97 C 37.80 23.48 37.79 22.51 37.78 22.02 C 34.52 21.99 31.26 22.00 28.00 22.00 M 31.15 27.96 C 31.66 29.08 32.47 30.34 31.46 31.47 C 30.26 32.46 28.91 31.54 27.72 31.13 C 27.90 33.41 29.78 34.58 31.97 33.98 C 34.94 33.76 33.74 29.99 34.04 28.01 C 33.32 28.00 31.87 27.97 31.15 27.96 Z" />
<path fill="#000000" opacity="1.00" d=" M 7.85 28.01 C 8.20 26.27 8.71 23.85 11.02 24.01 C 15.06 24.60 19.46 27.69 19.94 31.98 C 20.28 33.76 17.75 33.75 16.74 34.44 C 15.79 37.94 16.17 41.58 15.90 45.15 C 15.94 46.67 14.61 47.97 13.09 47.90 C 9.69 48.12 6.27 48.12 2.87 47.90 C 1.37 48.03 0.57 46.68 0.00 45.54 L 0.00 42.92 C 0.41 40.15 0.97 37.20 2.91 35.06 C 4.69 32.81 7.44 31.06 7.85 28.01 M 11.19 30.10 C 8.83 31.20 10.44 34.92 12.89 33.88 C 15.07 32.69 13.58 29.15 11.19 30.10 Z" />
</g>
</svg>
