<?xml version="1.0" encoding="UTF-8" ?>
<!DOCTYPE svg PUBLIC "-//W3C//DTD SVG 1.1//EN" "http://www.w3.org/Graphics/SVG/1.1/DTD/svg11.dtd">
<svg width="64pt" height="64pt" viewBox="0 0 64 64" version="1.1" xmlns="http://www.w3.org/2000/svg">
<g id="#ffffffff">
<path fill="#ffffff" opacity="1.00" d=" M 0.00 0.00 L 64.00 0.00 L 64.00 48.03 C 62.83 48.03 61.66 48.04 60.49 48.07 C 59.09 48.95 57.61 49.70 56.09 50.33 C 55.89 39.26 56.05 28.19 56.00 17.12 C 56.94 16.66 57.87 16.20 58.81 15.74 C 58.40 14.85 57.59 13.07 57.18 12.18 C 47.47 16.45 37.78 20.76 28.08 25.06 C 23.93 27.49 18.54 22.13 14.91 25.94 C 13.17 28.93 14.29 32.69 14.00 36.00 C 9.34 36.00 4.67 36.00 0.00 36.00 L 0.00 0.00 M 18.37 8.52 C 13.56 10.23 12.49 17.36 16.58 20.40 C 20.42 23.86 27.26 21.26 27.89 16.15 C 29.00 11.02 23.14 6.30 18.37 8.52 Z" />
<path fill="#ffffff" opacity="1.00" d=" M 19.35 12.52 C 20.86 11.41 23.27 12.23 23.80 14.02 C 24.74 16.19 22.26 18.71 20.08 17.82 C 17.76 17.22 17.30 13.72 19.35 12.52 Z" />
<path fill="#ffffff" opacity="1.00" d=" M 29.16 28.95 C 36.76 25.55 44.39 22.23 52.00 18.84 C 52.00 28.55 52.00 38.27 52.00 47.98 C 50.79 48.00 49.58 48.02 48.37 48.04 C 46.19 50.37 42.64 50.50 40.11 48.65 C 42.91 45.04 44.23 40.56 44.07 36.00 C 35.38 36.00 26.69 36.00 18.00 36.00 C 18.00 33.48 18.00 30.96 18.00 28.43 C 21.65 28.93 25.62 30.87 29.16 28.95 Z" />
<path fill="#ffffff" opacity="1.00" d=" M 0.00 40.00 C 13.26 40.03 26.53 39.93 39.79 40.05 C 38.63 44.87 34.98 48.78 30.10 49.92 C 29.48 49.44 28.25 48.46 27.63 47.97 C 26.57 47.99 25.52 48.02 24.46 48.07 C 21.95 50.50 18.03 50.49 15.53 48.05 C 14.51 48.04 13.49 48.04 12.47 48.05 C 9.97 50.51 6.04 50.48 3.53 48.06 C 2.36 48.03 1.18 48.02 0.00 48.01 L 0.00 40.00 Z" />
<path fill="#ffffff" opacity="1.00" d=" M 0.00 48.90 C 2.03 54.55 9.49 55.14 14.00 52.18 C 17.69 54.49 22.31 54.48 26.00 52.18 C 29.69 54.49 34.31 54.47 38.00 52.18 C 41.69 54.48 46.31 54.48 50.00 52.18 C 54.50 55.15 61.92 54.54 64.00 48.93 L 64.00 64.00 L 0.00 64.00 L 0.00 48.90 Z" />
</g>
<g id="#000000ff">
<path fill="#000000" opacity="1.00" d=" M 18.37 8.52 C 23.14 6.30 29.00 11.02 27.89 16.15 C 27.26 21.26 20.42 23.86 16.58 20.40 C 12.49 17.36 13.56 10.23 18.37 8.52 M 19.35 12.52 C 17.30 13.72 17.76 17.22 20.08 17.82 C 22.26 18.71 24.74 16.19 23.80 14.02 C 23.27 12.23 20.86 11.41 19.35 12.52 Z" />
<path fill="#000000" opacity="1.00" d=" M 28.08 25.06 C 37.78 20.76 47.47 16.45 57.18 12.18 C 57.59 13.07 58.40 14.85 58.81 15.74 C 57.87 16.20 56.94 16.66 56.00 17.12 C 56.05 28.19 55.89 39.26 56.09 50.33 C 57.61 49.70 59.09 48.95 60.49 48.07 C 61.66 48.04 62.83 48.03 64.00 48.03 L 64.00 48.93 C 61.92 54.54 54.50 55.15 50.00 52.18 C 46.31 54.48 41.69 54.48 38.00 52.18 C 34.31 54.47 29.69 54.49 26.00 52.18 C 22.31 54.48 17.69 54.49 14.00 52.18 C 9.49 55.14 2.03 54.55 0.00 48.90 L 0.00 48.01 C 1.18 48.02 2.36 48.03 3.53 48.06 C 6.04 50.48 9.97 50.51 12.47 48.05 C 13.49 48.04 14.51 48.04 15.53 48.05 C 18.03 50.49 21.95 50.50 24.46 48.07 C 25.52 48.02 26.57 47.99 27.63 47.97 C 28.25 48.46 29.48 49.44 30.10 49.92 C 34.98 48.78 38.63 44.87 39.79 40.05 C 26.53 39.93 13.26 40.03 0.00 40.00 L 0.00 36.00 C 4.67 36.00 9.34 36.00 14.00 36.00 C 14.29 32.69 13.17 28.93 14.91 25.94 C 18.54 22.13 23.93 27.49 28.08 25.06 M 29.16 28.95 C 25.62 30.87 21.65 28.93 18.00 28.43 C 18.00 30.96 18.00 33.48 18.00 36.00 C 26.69 36.00 35.38 36.00 44.07 36.00 C 44.23 40.56 42.91 45.04 40.11 48.65 C 42.64 50.50 46.19 50.37 48.37 48.04 C 49.58 48.02 50.79 48.00 52.00 47.98 C 52.00 38.27 52.00 28.55 52.00 18.84 C 44.39 22.23 36.76 25.55 29.16 28.95 Z" />
</g>
</svg>
