<?xml version="1.0" encoding="UTF-8" ?>
<!DOCTYPE svg PUBLIC "-//W3C//DTD SVG 1.1//EN" "http://www.w3.org/Graphics/SVG/1.1/DTD/svg11.dtd">
<svg width="200pt" height="200pt" viewBox="0 0 200 200" version="1.1" xmlns="http://www.w3.org/2000/svg">
<g id="#ffffffff">
<path fill="#ffffff" opacity="1.00" d=" M 0.00 0.00 L 200.00 0.00 L 200.00 200.00 L 0.00 200.00 L 0.00 0.00 M 9.79 68.73 C 10.54 71.58 12.80 73.70 13.67 76.51 C 17.12 85.25 15.51 95.48 9.94 102.97 C 10.12 105.15 12.71 104.08 14.05 104.05 C 22.11 102.86 30.60 99.45 34.97 92.17 C 47.76 91.72 59.60 97.94 69.46 105.55 C 75.65 110.35 81.44 115.74 88.40 119.46 C 106.56 129.69 128.25 133.90 148.86 130.38 C 161.26 128.17 173.66 122.74 181.83 112.85 C 188.90 104.46 191.70 92.67 188.95 82.02 C 188.89 80.53 187.15 80.34 186.02 80.40 C 135.65 80.40 85.27 80.42 34.90 80.38 C 29.62 72.26 19.19 68.15 9.79 68.73 Z" />
<path fill="#ffffff" opacity="1.00" d=" M 160.17 89.02 C 162.34 87.60 165.58 89.45 165.47 92.04 C 165.66 94.66 162.34 96.63 160.16 95.14 C 157.79 93.98 157.82 90.19 160.17 89.02 Z" />
<path fill="#ffffff" opacity="1.00" d=" M 97.10 99.05 C 109.56 98.69 122.03 98.99 134.50 98.90 C 134.50 104.30 134.50 109.70 134.50 115.10 C 124.68 114.94 114.59 113.77 105.65 109.45 C 101.49 107.44 97.32 104.04 97.10 99.05 Z" />
</g>
<g id="#000000ff">
<path fill="#968176" opacity="1.00" d=" M 9.79 68.73 C 19.19 68.15 29.62 72.26 34.90 80.38 C 85.27 80.42 135.65 80.40 186.02 80.40 C 187.15 80.34 188.89 80.53 188.95 82.02 C 191.70 92.67 188.90 104.46 181.83 112.85 C 173.66 122.74 161.26 128.17 148.86 130.38 C 128.25 133.90 106.56 129.69 88.40 119.46 C 81.44 115.74 75.65 110.35 69.46 105.55 C 59.60 97.94 47.76 91.72 34.97 92.17 C 30.60 99.45 22.11 102.86 14.05 104.05 C 12.71 104.08 10.12 105.15 9.94 102.97 C 15.51 95.48 17.12 85.25 13.67 76.51 C 12.80 73.70 10.54 71.58 9.79 68.73 M 160.17 89.02 C 157.82 90.19 157.79 93.98 160.16 95.14 C 162.34 96.63 165.66 94.66 165.47 92.04 C 165.58 89.45 162.34 87.60 160.17 89.02 M 97.10 99.05 C 97.32 104.04 101.49 107.44 105.65 109.45 C 114.59 113.77 124.68 114.94 134.50 115.10 C 134.50 109.70 134.50 104.30 134.50 98.90 C 122.03 98.99 109.56 98.69 97.10 99.05 Z" />
</g>
</svg>
