<?xml version="1.0" encoding="UTF-8" ?>
<!DOCTYPE svg PUBLIC "-//W3C//DTD SVG 1.1//EN" "http://www.w3.org/Graphics/SVG/1.1/DTD/svg11.dtd">
<svg width="60pt" height="60pt" viewBox="0 0 60 60" version="1.1" xmlns="http://www.w3.org/2000/svg">
<g id="#ffffffff">
<path fill="#ffffff" opacity="1.00" d=" M 0.00 0.00 L 60.00 0.00 L 60.00 60.00 L 0.00 60.00 L 0.00 0.00 M 18.58 6.49 C 11.76 9.91 8.22 17.57 7.96 24.94 C 6.47 29.47 3.27 33.80 4.17 38.86 C 5.77 41.31 8.63 38.78 10.63 38.35 C 11.73 41.02 12.98 43.63 14.29 46.21 C 12.55 48.86 9.10 52.07 10.57 55.42 C 14.15 57.01 17.94 53.23 21.69 54.47 C 24.22 54.73 26.97 56.74 29.42 55.44 C 30.92 52.10 27.44 48.86 25.70 46.20 C 29.41 39.04 32.74 31.11 31.82 22.87 C 31.26 16.66 28.05 10.58 22.70 7.21 C 21.46 6.48 19.95 5.39 18.58 6.49 M 43.29 10.49 C 37.63 12.23 36.17 20.54 40.88 24.12 C 45.10 27.98 52.70 25.43 53.77 19.82 C 55.45 13.96 48.93 8.14 43.29 10.49 M 39.34 28.47 C 37.79 29.24 38.10 31.67 39.71 32.19 C 43.47 34.57 48.56 34.56 52.31 32.18 C 53.85 31.62 54.16 29.27 52.63 28.51 C 50.74 27.86 48.94 29.77 47.02 29.93 C 44.26 30.73 41.90 27.93 39.34 28.47 M 39.29 36.44 C 37.86 37.33 38.07 39.59 39.67 40.17 C 43.69 42.74 49.27 42.55 53.08 39.65 C 54.31 38.46 53.42 36.41 51.84 36.23 C 49.59 36.88 47.46 38.37 45.01 37.93 C 43.04 37.72 41.32 35.94 39.29 36.44 M 39.27 44.53 C 37.78 45.33 38.14 47.70 39.73 48.20 C 43.69 50.71 49.19 50.56 52.95 47.72 C 54.35 46.74 53.50 44.41 51.91 44.22 C 49.18 45.09 46.27 46.94 43.38 45.44 C 42.06 45.12 40.62 43.79 39.27 44.53 Z" />
<path fill="#ffffff" opacity="1.00" d=" M 17.47 16.43 C 20.71 14.33 23.89 19.72 20.55 21.55 C 17.30 23.70 14.10 18.26 17.47 16.43 Z" />
</g>
<g id="#000000ff">
<path fill="#000000" opacity="1.00" d=" M 18.58 6.49 C 19.95 5.39 21.46 6.48 22.70 7.21 C 28.05 10.58 31.26 16.66 31.82 22.87 C 32.74 31.11 29.41 39.04 25.70 46.20 C 27.44 48.86 30.92 52.10 29.42 55.44 C 26.97 56.74 24.22 54.73 21.69 54.47 C 17.94 53.23 14.15 57.01 10.57 55.42 C 9.10 52.07 12.55 48.86 14.29 46.21 C 12.98 43.63 11.73 41.02 10.63 38.35 C 8.63 38.78 5.77 41.31 4.17 38.86 C 3.27 33.80 6.47 29.47 7.96 24.94 C 8.22 17.57 11.76 9.91 18.58 6.49 M 17.47 16.43 C 14.10 18.26 17.30 23.70 20.55 21.55 C 23.89 19.72 20.71 14.33 17.47 16.43 Z" />
<path fill="#000000" opacity="1.00" d=" M 43.29 10.49 C 48.93 8.14 55.45 13.96 53.77 19.82 C 52.70 25.43 45.10 27.98 40.88 24.12 C 36.17 20.54 37.63 12.23 43.29 10.49 Z" />
<path fill="#000000" opacity="1.00" d=" M 39.34 28.47 C 41.90 27.93 44.26 30.73 47.02 29.93 C 48.94 29.77 50.74 27.86 52.63 28.51 C 54.16 29.27 53.85 31.62 52.31 32.18 C 48.56 34.56 43.47 34.57 39.71 32.19 C 38.10 31.67 37.79 29.24 39.34 28.47 Z" />
<path fill="#000000" opacity="1.00" d=" M 39.29 36.44 C 41.32 35.94 43.04 37.72 45.01 37.93 C 47.46 38.37 49.59 36.88 51.84 36.23 C 53.42 36.41 54.31 38.46 53.08 39.65 C 49.27 42.55 43.69 42.74 39.67 40.17 C 38.07 39.59 37.86 37.33 39.29 36.44 Z" />
<path fill="#000000" opacity="1.00" d=" M 39.27 44.53 C 40.62 43.79 42.06 45.12 43.38 45.44 C 46.27 46.94 49.18 45.09 51.91 44.22 C 53.50 44.41 54.35 46.74 52.95 47.72 C 49.19 50.56 43.69 50.71 39.73 48.20 C 38.14 47.70 37.78 45.33 39.27 44.53 Z" />
</g>
</svg>
