<?xml version="1.0" encoding="UTF-8" ?>
<!DOCTYPE svg PUBLIC "-//W3C//DTD SVG 1.1//EN" "http://www.w3.org/Graphics/SVG/1.1/DTD/svg11.dtd">
<svg width="64pt" height="64pt" viewBox="0 0 64 64" version="1.1" xmlns="http://www.w3.org/2000/svg">
<g id="#ffffffff">
<path fill="#ffffff" opacity="1.00" d=" M 0.00 0.00 L 64.00 0.00 L 64.00 64.00 L 0.00 64.00 L 0.00 0.00 M 4.93 18.69 C 5.67 18.84 7.16 19.13 7.90 19.28 C 9.48 14.19 13.51 10.38 18.39 8.45 C 18.30 7.74 18.13 6.32 18.04 5.61 C 11.76 7.41 6.82 12.47 4.93 18.69 M 28.84 10.38 C 24.44 10.07 20.48 12.30 16.39 13.53 C 13.39 14.38 10.85 16.95 10.51 20.11 C 10.05 25.06 10.09 30.03 9.82 34.99 C 7.77 37.03 5.74 39.09 3.68 41.13 C 4.65 42.06 5.62 43.00 6.58 43.94 C 8.94 41.55 11.32 39.19 13.67 36.80 C 13.93 31.58 14.03 26.35 14.42 21.14 C 14.46 19.68 15.33 18.27 16.74 17.76 C 20.12 16.44 23.55 15.15 27.08 14.31 C 30.30 14.89 31.25 18.65 33.19 20.86 C 34.10 22.42 36.77 24.89 34.02 26.08 C 31.96 24.34 30.34 22.16 28.64 20.09 C 26.06 20.58 23.48 21.05 20.90 21.49 C 24.49 26.34 28.22 31.70 28.20 37.99 C 29.49 38.33 30.77 38.68 32.06 39.02 C 32.61 35.00 31.44 31.03 29.48 27.55 C 30.87 28.94 32.67 29.66 34.60 29.87 C 35.29 32.14 36.98 33.73 39.09 34.70 C 39.22 38.19 41.80 40.93 45.30 41.21 C 42.41 43.71 40.15 47.02 36.75 48.90 C 32.87 50.81 28.88 48.36 25.18 47.22 C 24.80 48.47 24.40 49.71 24.00 50.95 C 25.04 51.34 26.08 51.74 27.11 52.13 C 25.45 53.80 23.79 55.46 22.12 57.13 C 23.06 58.06 24.00 59.00 24.94 59.94 C 27.06 57.83 29.17 55.69 31.29 53.58 C 35.40 53.94 39.69 52.74 42.52 49.61 C 46.74 45.03 52.46 41.28 53.87 34.82 C 56.43 31.60 55.45 26.79 51.68 25.04 C 52.18 21.81 50.45 18.79 47.39 17.64 C 47.36 13.99 44.52 11.14 40.88 11.04 C 39.83 9.12 38.44 7.02 36.03 6.82 C 33.03 6.17 30.81 8.55 28.84 10.38 M 54.68 42.11 C 51.49 47.78 46.78 52.52 41.04 55.62 C 41.46 56.53 41.88 57.44 42.30 58.35 C 48.67 54.96 53.90 49.70 57.41 43.41 C 56.50 42.98 55.59 42.54 54.68 42.11 M 49.03 56.94 C 49.56 57.79 50.10 58.65 50.63 59.50 C 53.67 57.34 56.31 54.70 58.50 51.68 C 57.64 51.13 56.79 50.58 55.93 50.03 C 54.00 52.68 51.67 55.00 49.03 56.94 Z" />
<path fill="#ffffff" opacity="1.00" d=" M 32.32 12.50 C 33.49 12.05 34.65 9.72 35.95 11.03 C 38.30 12.31 35.70 14.55 34.70 15.78 C 33.90 14.69 33.11 13.59 32.32 12.50 Z" />
<path fill="#ffffff" opacity="1.00" d=" M 36.83 19.06 C 38.19 17.70 39.50 16.25 41.08 15.14 C 42.27 15.18 43.04 15.79 43.40 16.96 C 42.57 19.18 40.42 20.51 38.87 22.19 C 38.19 21.15 37.51 20.10 36.83 19.06 Z" />
<path fill="#ffffff" opacity="1.00" d=" M 44.46 22.36 C 45.72 20.24 48.97 22.71 47.38 24.42 C 45.08 26.57 43.13 29.99 39.99 30.65 C 39.64 30.23 38.94 29.39 38.59 28.96 C 39.87 26.28 42.41 24.45 44.46 22.36 Z" />
<path fill="#ffffff" opacity="1.00" d=" M 48.43 29.31 C 49.53 28.01 51.79 29.43 51.44 31.01 C 49.84 33.22 47.88 35.16 45.79 36.89 C 44.35 37.61 42.54 35.83 43.41 34.48 C 44.84 32.54 46.61 30.88 48.43 29.31 Z" />
</g>
<g id="#000000ff">
<path fill="#000000" opacity="1.00" d=" M 4.93 18.69 C 6.82 12.47 11.76 7.41 18.04 5.61 C 18.13 6.32 18.30 7.74 18.39 8.45 C 13.51 10.38 9.48 14.19 7.90 19.28 C 7.16 19.13 5.67 18.84 4.93 18.69 Z" />
<path fill="#000000" opacity="1.00" d=" M 28.84 10.38 C 30.81 8.55 33.03 6.17 36.03 6.82 C 38.44 7.02 39.83 9.12 40.88 11.04 C 44.52 11.14 47.36 13.99 47.39 17.64 C 50.45 18.79 52.18 21.81 51.68 25.04 C 55.45 26.79 56.43 31.60 53.87 34.82 C 52.46 41.28 46.74 45.03 42.52 49.61 C 39.69 52.74 35.40 53.94 31.29 53.58 C 29.17 55.69 27.06 57.83 24.94 59.94 C 24.00 59.00 23.06 58.06 22.12 57.13 C 23.79 55.46 25.45 53.80 27.11 52.13 C 26.08 51.74 25.04 51.34 24.00 50.95 C 24.40 49.71 24.80 48.47 25.18 47.22 C 28.88 48.36 32.87 50.81 36.75 48.90 C 40.15 47.02 42.41 43.71 45.30 41.21 C 41.80 40.93 39.22 38.19 39.09 34.70 C 36.98 33.73 35.29 32.14 34.60 29.87 C 32.67 29.66 30.87 28.94 29.48 27.55 C 31.44 31.03 32.61 35.00 32.06 39.02 C 30.77 38.68 29.49 38.33 28.20 37.99 C 28.22 31.70 24.49 26.34 20.90 21.49 C 23.48 21.05 26.06 20.58 28.64 20.09 C 30.34 22.16 31.96 24.34 34.02 26.08 C 36.77 24.89 34.10 22.42 33.19 20.86 C 31.25 18.65 30.30 14.89 27.08 14.31 C 23.55 15.15 20.12 16.44 16.74 17.76 C 15.33 18.27 14.46 19.68 14.42 21.14 C 14.03 26.35 13.93 31.58 13.67 36.80 C 11.32 39.19 8.94 41.55 6.58 43.94 C 5.62 43.00 4.65 42.06 3.68 41.13 C 5.74 39.09 7.77 37.03 9.82 34.99 C 10.09 30.03 10.05 25.06 10.51 20.11 C 10.85 16.95 13.39 14.38 16.39 13.53 C 20.48 12.30 24.44 10.07 28.84 10.38 M 32.32 12.50 C 33.11 13.59 33.90 14.69 34.70 15.78 C 35.70 14.55 38.30 12.31 35.95 11.03 C 34.65 9.72 33.49 12.05 32.32 12.50 M 36.83 19.06 C 37.51 20.10 38.19 21.15 38.87 22.19 C 40.42 20.51 42.57 19.18 43.40 16.96 C 43.04 15.79 42.27 15.18 41.08 15.14 C 39.50 16.25 38.19 17.70 36.83 19.06 M 44.46 22.36 C 42.41 24.45 39.87 26.28 38.59 28.96 C 38.94 29.39 39.64 30.23 39.99 30.65 C 43.13 29.99 45.08 26.57 47.38 24.42 C 48.97 22.71 45.72 20.24 44.46 22.36 M 48.43 29.31 C 46.61 30.88 44.84 32.54 43.41 34.48 C 42.54 35.83 44.35 37.61 45.79 36.89 C 47.88 35.16 49.84 33.22 51.44 31.01 C 51.79 29.43 49.53 28.01 48.43 29.31 Z" />
<path fill="#000000" opacity="1.00" d=" M 54.68 42.11 C 55.59 42.54 56.50 42.98 57.41 43.41 C 53.90 49.70 48.67 54.96 42.30 58.35 C 41.88 57.44 41.46 56.53 41.04 55.62 C 46.78 52.52 51.49 47.78 54.68 42.11 Z" />
<path fill="#000000" opacity="1.00" d=" M 49.03 56.94 C 51.67 55.00 54.00 52.68 55.93 50.03 C 56.79 50.58 57.64 51.13 58.50 51.68 C 56.31 54.70 53.67 57.34 50.63 59.50 C 50.10 58.65 49.56 57.79 49.03 56.94 Z" />
</g>
</svg>
