<?xml version="1.0" encoding="UTF-8" ?>
<!DOCTYPE svg PUBLIC "-//W3C//DTD SVG 1.1//EN" "http://www.w3.org/Graphics/SVG/1.1/DTD/svg11.dtd">
<svg width="60pt" height="60pt" viewBox="0 0 60 60" version="1.1" xmlns="http://www.w3.org/2000/svg">
<g id="#ffffffff">
<path fill="#ffffff" opacity="1.00" d=" M 0.00 0.00 L 60.00 0.00 L 60.00 60.00 L 0.00 60.00 L 0.00 0.00 M 9.12 8.15 C 8.88 8.39 8.40 8.87 8.16 9.10 C 7.86 13.40 7.95 17.73 8.08 22.03 C 7.85 24.14 11.18 24.75 11.82 22.78 C 12.17 20.14 11.98 17.47 12.00 14.82 C 15.25 17.96 18.31 21.30 21.62 24.37 C 23.02 26.02 25.88 24.09 24.80 22.17 C 21.73 18.55 18.11 15.44 14.86 12.00 C 17.51 11.97 20.19 12.18 22.83 11.81 C 24.73 11.10 24.14 7.91 22.06 8.08 C 17.76 7.95 13.42 7.86 9.12 8.15 M 37.09 11.78 C 39.77 12.21 42.49 11.96 45.18 12.00 C 41.88 15.45 38.28 18.62 35.15 22.22 C 34.46 23.91 36.13 25.54 37.81 24.82 C 41.40 21.71 44.57 18.14 48.00 14.85 C 48.03 17.53 47.80 20.23 48.21 22.90 C 48.98 24.71 52.07 24.12 51.92 22.07 C 52.05 17.75 52.15 13.41 51.84 9.09 C 51.58 8.86 51.07 8.38 50.82 8.14 C 46.53 7.87 42.22 7.95 37.93 8.08 C 35.90 7.89 35.29 11.02 37.09 11.78 M 22.23 35.13 C 18.62 38.27 15.46 41.88 12.00 45.18 C 11.98 42.47 12.17 39.75 11.82 37.06 C 10.96 35.26 7.85 35.88 8.06 37.98 C 7.98 42.26 7.85 46.57 8.15 50.85 C 8.37 51.10 8.83 51.59 9.06 51.83 C 12.71 52.19 16.40 51.94 20.07 52.01 C 21.40 51.94 23.03 52.20 23.89 50.90 C 24.29 49.61 23.61 48.01 22.08 48.08 C 19.68 47.89 17.26 48.00 14.85 48.00 C 18.13 44.54 21.75 41.40 24.86 37.79 C 25.57 36.12 23.90 34.43 22.23 35.13 M 35.12 37.77 C 38.29 41.36 41.87 44.55 45.18 48.00 C 42.51 48.02 39.82 47.82 37.17 48.19 C 35.26 48.89 35.85 52.07 37.93 51.92 C 42.23 52.05 46.56 52.15 50.85 51.84 C 51.10 51.62 51.59 51.17 51.84 50.95 C 52.16 46.63 52.03 42.28 51.93 37.96 C 52.15 35.85 48.86 35.22 48.16 37.17 C 47.84 39.81 48.02 42.49 48.00 45.15 C 44.56 41.85 41.38 38.26 37.77 35.14 C 36.09 34.41 34.46 36.10 35.12 37.77 Z" />
</g>
<g id="#000000ff">
<path fill="#968176" opacity="1.00" d=" M 9.12 8.15 C 13.42 7.86 17.76 7.95 22.06 8.08 C 24.14 7.91 24.73 11.10 22.83 11.81 C 20.19 12.18 17.51 11.97 14.86 12.00 C 18.11 15.44 21.73 18.55 24.80 22.17 C 25.88 24.09 23.02 26.02 21.62 24.37 C 18.31 21.30 15.25 17.96 12.00 14.82 C 11.98 17.47 12.17 20.14 11.82 22.78 C 11.18 24.75 7.85 24.14 8.08 22.03 C 7.95 17.73 7.86 13.40 8.16 9.10 C 8.40 8.87 8.88 8.39 9.12 8.15 Z" />
<path fill="#968176" opacity="1.00" d=" M 37.09 11.78 C 35.29 11.02 35.90 7.89 37.93 8.08 C 42.22 7.95 46.53 7.87 50.82 8.14 C 51.07 8.38 51.58 8.86 51.84 9.09 C 52.15 13.41 52.05 17.75 51.92 22.07 C 52.07 24.12 48.98 24.71 48.21 22.90 C 47.80 20.23 48.03 17.53 48.00 14.85 C 44.57 18.14 41.40 21.71 37.81 24.82 C 36.13 25.54 34.46 23.91 35.15 22.22 C 38.28 18.62 41.88 15.45 45.18 12.00 C 42.49 11.96 39.77 12.21 37.09 11.78 Z" />
<path fill="#968176" opacity="1.00" d=" M 22.23 35.13 C 23.90 34.43 25.57 36.12 24.86 37.79 C 21.75 41.40 18.13 44.54 14.85 48.00 C 17.26 48.00 19.68 47.89 22.08 48.08 C 23.61 48.01 24.29 49.61 23.89 50.90 C 23.03 52.20 21.40 51.94 20.07 52.01 C 16.40 51.94 12.71 52.19 9.06 51.83 C 8.83 51.59 8.37 51.10 8.15 50.85 C 7.85 46.57 7.98 42.26 8.06 37.98 C 7.85 35.88 10.96 35.26 11.82 37.06 C 12.17 39.75 11.98 42.47 12.00 45.18 C 15.46 41.88 18.62 38.27 22.23 35.13 Z" />
<path fill="#968176" opacity="1.00" d=" M 35.12 37.77 C 34.46 36.10 36.09 34.41 37.77 35.14 C 41.38 38.26 44.56 41.85 48.00 45.15 C 48.02 42.49 47.84 39.81 48.16 37.17 C 48.86 35.22 52.15 35.85 51.93 37.96 C 52.03 42.28 52.16 46.63 51.84 50.95 C 51.59 51.17 51.10 51.62 50.85 51.84 C 46.56 52.15 42.23 52.05 37.93 51.92 C 35.85 52.07 35.26 48.89 37.17 48.19 C 39.82 47.82 42.51 48.02 45.18 48.00 C 41.87 44.55 38.29 41.36 35.12 37.77 Z" />
</g>
</svg>
