<?xml version="1.0" encoding="UTF-8" ?>
<!DOCTYPE svg PUBLIC "-//W3C//DTD SVG 1.1//EN" "http://www.w3.org/Graphics/SVG/1.1/DTD/svg11.dtd">
<svg width="60pt" height="60pt" viewBox="0 0 60 60" version="1.1" xmlns="http://www.w3.org/2000/svg">
<g id="#ffffffff">
<path fill="#ffffff" opacity="1.00" d=" M 0.00 0.00 L 60.00 0.00 L 60.00 60.00 L 0.00 60.00 L 0.00 0.00 M 10.42 8.40 C 7.69 9.25 8.09 12.66 7.96 14.91 C 8.12 25.93 7.81 36.96 8.09 47.97 C 7.88 50.70 10.51 52.21 12.95 51.98 C 24.62 51.98 36.30 52.13 47.97 51.90 C 50.66 52.08 52.22 49.48 51.98 47.05 C 52.03 35.69 52.04 24.31 51.97 12.95 C 52.21 10.51 50.70 7.87 47.97 8.09 C 38.66 7.78 29.33 8.14 20.01 7.97 C 16.81 8.04 13.55 7.68 10.42 8.40 Z" />
<path fill="#ffffff" opacity="1.00" d=" M 24.63 17.18 C 26.40 15.28 28.20 13.42 30.01 11.57 C 31.81 13.42 33.61 15.27 35.36 17.17 C 34.55 17.45 32.91 18.01 32.10 18.30 C 31.90 20.92 32.39 23.82 30.90 26.15 C 26.87 26.45 28.33 20.85 27.90 18.29 C 27.09 18.01 25.45 17.46 24.63 17.18 Z" />
<path fill="#ffffff" opacity="1.00" d=" M 27.90 41.71 C 28.33 39.16 26.87 33.53 30.88 33.86 C 32.42 36.17 31.88 39.09 32.10 41.71 C 32.92 41.99 34.55 42.55 35.37 42.83 C 33.61 44.72 31.81 46.58 30.01 48.42 C 28.19 46.57 26.40 44.71 24.63 42.82 C 25.45 42.54 27.09 41.99 27.90 41.71 Z" />
</g>
<g id="#000000ff">
<path fill="#000000" opacity="1.00" d=" M 10.42 8.40 C 13.55 7.68 16.81 8.04 20.01 7.97 C 29.33 8.14 38.66 7.78 47.97 8.09 C 50.70 7.87 52.21 10.51 51.97 12.95 C 52.04 24.31 52.03 35.69 51.98 47.05 C 52.22 49.48 50.66 52.08 47.97 51.90 C 36.30 52.13 24.62 51.98 12.95 51.98 C 10.51 52.21 7.88 50.70 8.09 47.97 C 7.81 36.96 8.12 25.93 7.96 14.91 C 8.09 12.66 7.69 9.25 10.42 8.40 M 24.63 17.18 C 25.45 17.46 27.09 18.01 27.90 18.29 C 28.33 20.85 26.87 26.45 30.90 26.15 C 32.39 23.82 31.90 20.92 32.10 18.30 C 32.91 18.01 34.55 17.45 35.36 17.17 C 33.61 15.27 31.81 13.42 30.01 11.57 C 28.20 13.42 26.40 15.28 24.63 17.18 M 27.90 41.71 C 27.09 41.99 25.45 42.54 24.63 42.82 C 26.40 44.71 28.19 46.57 30.01 48.42 C 31.81 46.58 33.61 44.72 35.37 42.83 C 34.55 42.55 32.92 41.99 32.10 41.71 C 31.88 39.09 32.42 36.17 30.88 33.86 C 26.87 33.53 28.33 39.16 27.90 41.71 Z" />
</g>
</svg>
