<?xml version="1.0" encoding="UTF-8" ?>
<!DOCTYPE svg PUBLIC "-//W3C//DTD SVG 1.1//EN" "http://www.w3.org/Graphics/SVG/1.1/DTD/svg11.dtd">
<svg width="64pt" height="64pt" viewBox="0 0 64 64" version="1.1" xmlns="http://www.w3.org/2000/svg">
<g id="#ffffffff">
<path fill="#ffffff" opacity="1.00" d=" M 0.00 0.00 L 64.00 0.00 L 64.00 64.00 L 0.00 64.00 L 0.00 0.00 M 34.60 9.59 C 30.44 12.56 31.48 20.44 36.88 21.27 C 34.43 22.34 31.33 22.26 29.61 24.61 C 25.98 29.00 22.56 33.57 18.99 38.01 C 15.42 38.40 9.58 36.41 8.15 41.02 C 7.78 46.00 8.11 51.01 8.00 56.00 C 9.33 56.00 10.67 56.00 12.00 56.00 C 12.00 51.33 12.00 46.67 12.00 42.00 C 17.82 41.78 23.72 42.49 29.49 41.59 C 34.46 39.49 36.70 34.00 40.22 30.21 C 41.59 31.27 42.93 32.91 44.87 32.60 C 47.32 32.66 48.24 28.99 50.78 29.77 C 55.38 31.09 59.68 25.60 57.40 21.43 C 55.62 17.20 49.06 16.87 46.87 20.90 C 45.00 23.36 47.80 26.98 44.60 28.78 C 42.56 26.79 40.76 24.48 38.26 23.02 C 38.06 22.74 37.67 22.18 37.47 21.89 C 42.42 23.06 47.31 17.95 45.72 13.09 C 44.58 8.42 38.21 6.36 34.60 9.59 M 13.99 43.99 C 13.70 48.10 14.37 52.19 15.77 56.06 C 17.12 56.03 18.46 56.00 19.81 55.97 C 18.77 51.99 17.72 48.01 16.71 44.02 C 16.03 44.01 14.67 44.00 13.99 43.99 Z" />
<path fill="#ffffff" opacity="1.00" d=" M 37.34 12.50 C 38.87 11.46 41.32 12.19 41.80 14.04 C 42.74 16.20 40.28 18.73 38.10 17.81 C 35.74 17.29 35.30 13.70 37.34 12.50 Z" />
<path fill="#ffffff" opacity="1.00" d=" M 51.20 22.11 C 53.60 21.08 55.20 24.95 52.76 25.86 C 50.39 26.91 48.84 23.08 51.20 22.11 Z" />
<path fill="#ffffff" opacity="1.00" d=" M 32.93 26.90 C 34.19 25.29 36.18 26.32 37.55 27.17 C 34.87 30.34 32.58 33.84 29.78 36.91 C 28.33 38.46 25.96 37.80 24.11 38.07 C 27.06 34.36 29.79 30.46 32.93 26.90 Z" />
</g>
<g id="#000000ff">
<path fill="#000000" opacity="1.00" d=" M 34.60 9.59 C 38.21 6.36 44.58 8.42 45.72 13.09 C 47.31 17.95 42.42 23.06 37.47 21.89 C 37.67 22.18 38.06 22.74 38.26 23.02 C 40.76 24.48 42.56 26.79 44.60 28.78 C 47.80 26.98 45.00 23.36 46.87 20.90 C 49.06 16.87 55.62 17.20 57.40 21.43 C 59.68 25.60 55.38 31.09 50.78 29.77 C 48.24 28.99 47.32 32.66 44.87 32.60 C 42.93 32.91 41.59 31.27 40.22 30.21 C 36.70 34.00 34.46 39.49 29.49 41.59 C 23.72 42.49 17.82 41.78 12.00 42.00 C 12.00 46.67 12.00 51.33 12.00 56.00 C 10.67 56.00 9.33 56.00 8.00 56.00 C 8.11 51.01 7.78 46.00 8.15 41.02 C 9.58 36.41 15.42 38.40 18.99 38.01 C 22.56 33.57 25.98 29.00 29.61 24.61 C 31.33 22.26 34.43 22.34 36.88 21.27 C 31.48 20.44 30.44 12.56 34.60 9.59 M 37.34 12.50 C 35.30 13.70 35.74 17.29 38.10 17.81 C 40.28 18.73 42.74 16.20 41.80 14.04 C 41.32 12.19 38.87 11.46 37.34 12.50 M 51.20 22.11 C 48.84 23.08 50.39 26.91 52.76 25.86 C 55.20 24.95 53.60 21.08 51.20 22.11 M 32.93 26.90 C 29.79 30.46 27.06 34.36 24.11 38.07 C 25.96 37.80 28.33 38.46 29.78 36.91 C 32.58 33.84 34.87 30.34 37.55 27.17 C 36.18 26.32 34.19 25.29 32.93 26.90 Z" />
<path fill="#000000" opacity="1.00" d=" M 13.99 43.99 C 14.67 44.00 16.03 44.01 16.71 44.02 C 17.72 48.01 18.77 51.99 19.81 55.97 C 18.46 56.00 17.12 56.03 15.77 56.06 C 14.37 52.19 13.70 48.10 13.99 43.99 Z" />
</g>
</svg>
