<?xml version="1.0" encoding="UTF-8" ?>
<!DOCTYPE svg PUBLIC "-//W3C//DTD SVG 1.1//EN" "http://www.w3.org/Graphics/SVG/1.1/DTD/svg11.dtd">
<svg width="64pt" height="64pt" viewBox="0 0 64 64" version="1.1" xmlns="http://www.w3.org/2000/svg">
<g id="#ffffffff">
<path fill="#ffffff" opacity="1.00" d=" M 0.00 0.00 L 64.00 0.00 L 64.00 64.00 L 0.00 64.00 L 0.00 0.00 M 10.00 9.86 C 10.01 25.91 10.01 41.95 10.00 58.00 C 11.33 58.00 12.66 58.00 14.00 58.00 C 14.00 51.31 14.00 44.63 14.01 37.94 C 19.03 38.04 24.06 38.16 29.08 38.29 C 29.54 39.59 30.45 42.20 30.91 43.50 C 38.50 44.85 46.33 43.80 54.00 44.13 C 54.01 34.78 54.00 25.43 53.99 16.08 C 47.64 15.99 41.28 15.87 34.93 15.72 C 34.47 14.41 33.54 11.81 33.08 10.51 C 25.50 9.15 17.66 10.20 10.00 9.86 Z" />
<path fill="#ffffff" opacity="1.00" d=" M 14.00 14.00 C 19.33 14.00 24.67 14.00 30.00 14.00 C 30.00 20.67 30.00 27.33 30.00 34.00 C 24.67 34.00 19.33 34.00 14.00 34.00 C 14.00 27.33 14.00 20.67 14.00 14.00 Z" />
<path fill="#ffffff" opacity="1.00" d=" M 34.00 20.00 C 39.33 20.00 44.67 20.00 50.00 20.00 C 50.00 26.67 50.00 33.33 50.00 40.00 C 44.67 40.00 39.33 40.00 34.00 40.00 C 34.00 33.33 34.00 26.67 34.00 20.00 Z" />
</g>
<g id="#000000ff">
<path fill="#000000" opacity="1.00" d=" M 10.00 9.86 C 17.66 10.20 25.50 9.15 33.08 10.51 C 33.54 11.81 34.47 14.41 34.93 15.72 C 41.28 15.87 47.64 15.99 53.99 16.08 C 54.00 25.43 54.01 34.78 54.00 44.13 C 46.33 43.80 38.50 44.85 30.91 43.50 C 30.45 42.20 29.54 39.59 29.08 38.29 C 24.06 38.16 19.03 38.04 14.01 37.94 C 14.00 44.63 14.00 51.31 14.00 58.00 C 12.66 58.00 11.33 58.00 10.00 58.00 C 10.01 41.95 10.01 25.91 10.00 9.86 M 14.00 14.00 C 14.00 20.67 14.00 27.33 14.00 34.00 C 19.33 34.00 24.67 34.00 30.00 34.00 C 30.00 27.33 30.00 20.67 30.00 14.00 C 24.67 14.00 19.33 14.00 14.00 14.00 M 34.00 20.00 C 34.00 26.67 34.00 33.33 34.00 40.00 C 39.33 40.00 44.67 40.00 50.00 40.00 C 50.00 33.33 50.00 26.67 50.00 20.00 C 44.67 20.00 39.33 20.00 34.00 20.00 Z" />
</g>
</svg>
