<?xml version="1.0" encoding="UTF-8" ?>
<!DOCTYPE svg PUBLIC "-//W3C//DTD SVG 1.1//EN" "http://www.w3.org/Graphics/SVG/1.1/DTD/svg11.dtd">
<svg width="64pt" height="64pt" viewBox="0 0 64 64" version="1.1" xmlns="http://www.w3.org/2000/svg">
<g id="#ffffffff">
<path fill="#ffffff" opacity="1.00" d=" M 0.00 0.00 L 64.00 0.00 L 64.00 64.00 L 0.00 64.00 L 0.00 0.00 M 27.58 17.40 C 33.07 22.33 40.03 25.40 45.47 30.37 C 47.23 33.08 44.86 36.03 41.97 36.19 C 39.72 26.65 27.18 23.15 19.51 28.45 C 15.61 30.89 13.69 35.49 13.90 40.00 C 17.42 40.00 20.95 40.00 24.47 40.00 C 22.47 43.33 20.47 46.66 18.47 50.00 C 22.98 50.00 27.49 50.00 32.00 50.00 C 32.00 52.67 32.00 55.33 32.00 58.00 C 33.33 58.00 34.67 58.00 36.00 58.00 C 36.00 55.33 36.00 52.67 36.00 50.00 C 37.33 50.00 38.67 50.00 40.00 50.00 C 40.00 48.67 40.00 47.33 40.00 46.00 C 38.67 46.00 37.33 46.00 36.00 46.00 C 36.00 44.00 36.00 42.00 36.00 40.00 C 39.76 39.82 44.07 40.78 47.28 38.26 C 50.87 35.48 50.80 29.51 47.39 26.61 C 42.20 22.35 36.16 19.26 30.94 15.05 C 29.13 13.67 30.27 11.26 31.69 10.07 C 34.93 12.29 38.86 13.31 41.76 16.17 C 42.82 12.61 38.21 11.25 37.65 8.04 C 36.87 5.25 33.23 5.90 31.07 6.29 C 26.42 7.42 24.33 13.84 27.58 17.40 Z" />
<path fill="#ffffff" opacity="1.00" d=" M 18.27 35.94 C 21.53 28.01 34.46 28.01 37.73 35.94 C 31.24 36.04 24.76 36.04 18.27 35.94 Z" />
<path fill="#ffffff" opacity="1.00" d=" M 29.15 40.00 C 29.86 40.00 31.29 40.00 32.00 40.00 C 32.00 42.00 32.00 44.00 32.00 46.00 C 29.85 46.00 27.69 46.00 25.54 45.99 C 26.74 43.99 27.94 41.99 29.15 40.00 Z" />
</g>
<g id="#000000ff">
<path fill="#000000" opacity="1.00" d=" M 27.58 17.40 C 24.33 13.84 26.42 7.42 31.07 6.29 C 33.23 5.90 36.87 5.25 37.65 8.04 C 38.21 11.25 42.82 12.61 41.76 16.17 C 38.86 13.31 34.93 12.29 31.69 10.07 C 30.27 11.26 29.13 13.67 30.94 15.05 C 36.16 19.26 42.20 22.35 47.39 26.61 C 50.80 29.51 50.87 35.48 47.28 38.26 C 44.07 40.78 39.76 39.82 36.00 40.00 C 36.00 42.00 36.00 44.00 36.00 46.00 C 37.33 46.00 38.67 46.00 40.00 46.00 C 40.00 47.33 40.00 48.67 40.00 50.00 C 38.67 50.00 37.33 50.00 36.00 50.00 C 36.00 52.67 36.00 55.33 36.00 58.00 C 34.67 58.00 33.33 58.00 32.00 58.00 C 32.00 55.33 32.00 52.67 32.00 50.00 C 27.49 50.00 22.98 50.00 18.47 50.00 C 20.47 46.66 22.47 43.33 24.47 40.00 C 20.95 40.00 17.42 40.00 13.90 40.00 C 13.69 35.49 15.61 30.89 19.51 28.45 C 27.18 23.15 39.72 26.65 41.97 36.19 C 44.86 36.03 47.23 33.08 45.47 30.37 C 40.03 25.40 33.07 22.33 27.58 17.40 M 18.27 35.94 C 24.76 36.04 31.24 36.04 37.73 35.94 C 34.46 28.01 21.53 28.01 18.27 35.94 M 29.15 40.00 C 27.94 41.99 26.74 43.99 25.54 45.99 C 27.69 46.00 29.85 46.00 32.00 46.00 C 32.00 44.00 32.00 42.00 32.00 40.00 C 31.29 40.00 29.86 40.00 29.15 40.00 Z" />
</g>
</svg>
