<?xml version="1.0" encoding="UTF-8" ?>
<!DOCTYPE svg PUBLIC "-//W3C//DTD SVG 1.1//EN" "http://www.w3.org/Graphics/SVG/1.1/DTD/svg11.dtd">
<svg width="64pt" height="64pt" viewBox="0 0 64 64" version="1.1" xmlns="http://www.w3.org/2000/svg">
<g id="#ffffffff">
<path fill="#ffffff" opacity="1.00" d=" M 0.00 0.00 L 64.00 0.00 L 64.00 64.00 L 0.00 64.00 L 0.00 0.00 M 37.39 5.91 C 34.18 10.25 30.91 14.56 27.78 18.95 C 26.62 20.38 27.01 22.25 27.32 23.90 C 20.25 31.79 13.15 39.64 6.01 47.47 C 9.64 50.98 13.11 54.66 16.79 58.12 C 24.55 50.97 32.31 43.81 40.09 36.67 C 41.76 37.03 43.65 37.34 45.10 36.19 C 49.54 33.07 53.87 29.77 58.27 26.58 C 53.61 17.80 46.34 10.31 37.39 5.91 Z" />
<path fill="#ffffff" opacity="1.00" d=" M 30.73 21.91 C 33.03 18.10 35.95 14.72 38.53 11.11 C 44.39 14.70 49.39 19.68 52.99 25.55 C 49.31 28.06 45.94 31.01 42.09 33.27 C 38.33 29.45 34.49 25.72 30.73 21.91 Z" />
<path fill="#ffffff" opacity="1.00" d=" M 11.56 47.29 C 17.85 40.57 23.85 33.57 30.27 26.97 C 32.48 29.38 34.89 31.59 37.10 34.00 C 30.32 40.16 23.65 46.44 16.88 52.62 C 15.10 50.85 13.33 49.07 11.56 47.29 M 28.51 32.57 C 26.54 34.59 24.54 36.58 22.56 38.59 C 23.56 39.53 24.54 40.48 25.53 41.42 C 27.46 39.42 29.39 37.41 31.45 35.54 C 30.51 34.51 29.52 33.52 28.51 32.57 Z" />
</g>
<g id="#000000ff">
<path fill="#000000" opacity="1.00" d=" M 37.39 5.91 C 46.34 10.31 53.61 17.80 58.27 26.58 C 53.87 29.77 49.54 33.07 45.10 36.19 C 43.65 37.34 41.76 37.03 40.09 36.67 C 32.31 43.81 24.55 50.97 16.79 58.12 C 13.11 54.66 9.64 50.98 6.01 47.47 C 13.15 39.64 20.25 31.79 27.32 23.90 C 27.01 22.25 26.62 20.38 27.78 18.95 C 30.91 14.56 34.18 10.25 37.39 5.91 M 30.73 21.91 C 34.49 25.72 38.33 29.45 42.09 33.27 C 45.94 31.01 49.31 28.06 52.99 25.55 C 49.39 19.68 44.39 14.70 38.53 11.11 C 35.95 14.72 33.03 18.10 30.73 21.91 M 11.56 47.29 C 13.33 49.07 15.10 50.85 16.88 52.62 C 23.65 46.44 30.32 40.16 37.10 34.00 C 34.89 31.59 32.48 29.38 30.27 26.97 C 23.85 33.57 17.85 40.57 11.56 47.29 Z" />
<path fill="#000000" opacity="1.00" d=" M 28.51 32.57 C 29.52 33.52 30.51 34.51 31.45 35.54 C 29.39 37.41 27.46 39.42 25.53 41.42 C 24.54 40.48 23.56 39.53 22.56 38.59 C 24.54 36.58 26.54 34.59 28.51 32.57 Z" />
</g>
</svg>
