<?xml version="1.0" encoding="UTF-8" ?>
<!DOCTYPE svg PUBLIC "-//W3C//DTD SVG 1.1//EN" "http://www.w3.org/Graphics/SVG/1.1/DTD/svg11.dtd">
<svg width="60pt" height="60pt" viewBox="0 0 60 60" version="1.1" xmlns="http://www.w3.org/2000/svg">
<g id="#ffffffff">
<path fill="#ffffff" opacity="1.00" d=" M 0.00 0.00 L 60.00 0.00 L 60.00 60.00 L 0.00 60.00 L 0.00 0.00 M 13.46 4.01 C 15.35 7.34 17.26 10.67 19.16 14.00 C 21.55 14.02 23.95 14.01 26.34 13.95 C 28.26 11.49 31.74 11.49 33.66 13.95 C 36.05 14.01 38.44 14.01 40.84 14.00 C 42.75 10.67 44.65 7.34 46.54 4.00 C 35.51 4.00 24.49 4.00 13.46 4.01 M 10.07 6.45 C 9.93 21.99 10.01 37.53 10.03 53.07 C 12.48 50.86 14.60 48.31 17.15 46.22 C 20.74 45.72 24.39 46.11 28.00 46.00 C 28.00 37.67 28.00 29.34 28.01 21.01 C 28.14 19.73 27.64 18.76 26.49 18.09 C 23.40 17.76 20.26 18.29 17.18 17.81 C 14.20 14.48 12.72 10.05 10.07 6.45 M 43.35 17.35 C 40.07 19.49 34.72 16.04 32.09 19.51 C 31.85 28.33 32.08 37.17 32.00 46.00 C 35.61 46.11 39.26 45.72 42.85 46.22 C 45.42 48.28 47.55 50.84 49.98 53.07 C 49.98 37.53 50.08 21.99 49.92 6.45 C 47.50 9.94 45.82 13.89 43.35 17.35 M 12.93 55.98 C 24.31 56.01 35.69 56.03 47.07 55.97 C 45.14 53.95 43.17 51.96 41.18 50.00 C 33.74 50.00 26.29 50.00 18.85 50.00 C 16.85 51.96 14.87 53.95 12.93 55.98 Z" />
</g>
<g id="#000000ff">
<path fill="#000000" opacity="1.00" d=" M 13.46 4.01 C 24.49 4.00 35.51 4.00 46.54 4.00 C 44.65 7.34 42.75 10.67 40.84 14.00 C 38.44 14.01 36.05 14.01 33.66 13.95 C 31.74 11.49 28.26 11.49 26.34 13.95 C 23.95 14.01 21.55 14.02 19.16 14.00 C 17.26 10.67 15.35 7.34 13.46 4.01 Z" />
<path fill="#000000" opacity="1.00" d=" M 10.07 6.45 C 12.72 10.05 14.20 14.48 17.18 17.81 C 20.26 18.29 23.40 17.76 26.49 18.09 C 27.64 18.76 28.14 19.73 28.01 21.01 C 28.00 29.34 28.00 37.67 28.00 46.00 C 24.39 46.11 20.74 45.72 17.15 46.22 C 14.60 48.31 12.48 50.86 10.03 53.07 C 10.01 37.53 9.93 21.99 10.07 6.45 Z" />
<path fill="#000000" opacity="1.00" d=" M 43.35 17.35 C 45.82 13.89 47.50 9.94 49.92 6.45 C 50.08 21.99 49.98 37.53 49.98 53.07 C 47.55 50.84 45.42 48.28 42.85 46.22 C 39.26 45.72 35.61 46.11 32.00 46.00 C 32.08 37.17 31.85 28.33 32.09 19.51 C 34.72 16.04 40.07 19.49 43.35 17.35 Z" />
<path fill="#000000" opacity="1.00" d=" M 12.93 55.98 C 14.87 53.95 16.85 51.96 18.85 50.00 C 26.29 50.00 33.74 50.00 41.18 50.00 C 43.17 51.96 45.14 53.95 47.07 55.97 C 35.69 56.03 24.31 56.01 12.93 55.98 Z" />
</g>
</svg>
