<?xml version="1.0" encoding="UTF-8" ?>
<!DOCTYPE svg PUBLIC "-//W3C//DTD SVG 1.1//EN" "http://www.w3.org/Graphics/SVG/1.1/DTD/svg11.dtd">
<svg width="60pt" height="60pt" viewBox="0 0 60 60" version="1.1" xmlns="http://www.w3.org/2000/svg">
<g id="#ffffffff">
<path fill="#ffffff" opacity="1.00" d=" M 0.00 0.00 L 60.00 0.00 L 60.00 60.00 L 0.00 60.00 L 0.00 0.00 M 27.86 8.00 C 22.95 8.11 18.02 7.76 13.12 8.17 C 12.88 8.41 12.41 8.90 12.17 9.15 C 11.41 17.17 13.22 25.57 10.22 33.29 C 9.23 36.38 7.26 39.00 5.95 41.94 C 5.97 43.97 8.19 43.99 9.66 44.16 C 11.16 47.08 14.82 45.70 17.44 46.01 C 16.95 48.00 16.29 49.96 16.08 52.00 C 15.83 53.76 18.29 54.64 19.44 53.44 C 20.52 51.09 20.90 48.50 21.54 46.02 C 27.20 46.01 32.86 45.93 38.52 46.07 C 39.14 48.56 39.44 51.18 40.61 53.49 C 41.79 54.62 44.14 53.73 43.92 51.99 C 43.71 49.95 43.05 47.99 42.56 46.01 C 45.18 45.75 50.31 47.29 50.08 43.04 C 49.56 42.73 48.51 42.11 47.99 41.81 C 47.89 30.91 48.24 19.99 47.82 9.11 C 47.58 8.87 47.10 8.40 46.87 8.17 C 41.97 7.76 37.04 8.11 32.14 8.00 C 31.96 6.58 32.14 3.76 29.96 4.05 C 27.82 3.82 28.06 6.62 27.86 8.00 Z" />
<path fill="#ffffff" opacity="1.00" d=" M 16.00 12.00 C 25.33 12.00 34.67 12.00 44.00 12.00 C 44.02 21.40 44.68 31.17 40.73 39.97 C 30.99 40.04 21.24 39.97 11.50 40.01 C 16.94 31.66 16.03 21.48 16.00 12.00 Z" />
</g>
<g id="#000000ff">
<path fill="#000000" opacity="1.00" d=" M 27.86 8.00 C 28.06 6.62 27.82 3.82 29.96 4.05 C 32.14 3.76 31.96 6.58 32.14 8.00 C 37.04 8.11 41.97 7.76 46.87 8.17 C 47.10 8.40 47.58 8.87 47.82 9.11 C 48.24 19.99 47.89 30.91 47.99 41.81 C 48.51 42.11 49.56 42.73 50.08 43.04 C 50.31 47.29 45.18 45.75 42.56 46.01 C 43.05 47.99 43.71 49.95 43.92 51.99 C 44.14 53.73 41.79 54.62 40.61 53.49 C 39.44 51.18 39.14 48.56 38.52 46.07 C 32.86 45.93 27.20 46.01 21.54 46.02 C 20.90 48.50 20.52 51.09 19.44 53.44 C 18.29 54.64 15.83 53.76 16.08 52.00 C 16.29 49.96 16.95 48.00 17.44 46.01 C 14.82 45.70 11.16 47.08 9.66 44.16 C 8.19 43.99 5.97 43.97 5.95 41.94 C 7.26 39.00 9.23 36.38 10.22 33.29 C 13.22 25.57 11.41 17.17 12.17 9.15 C 12.41 8.90 12.88 8.41 13.12 8.17 C 18.02 7.76 22.95 8.11 27.86 8.00 M 16.00 12.00 C 16.03 21.48 16.94 31.66 11.50 40.01 C 21.24 39.97 30.99 40.04 40.73 39.97 C 44.68 31.17 44.02 21.40 44.00 12.00 C 34.67 12.00 25.33 12.00 16.00 12.00 Z" />
</g>
</svg>
