<?xml version="1.0" encoding="UTF-8" ?>
<!DOCTYPE svg PUBLIC "-//W3C//DTD SVG 1.1//EN" "http://www.w3.org/Graphics/SVG/1.1/DTD/svg11.dtd">
<svg width="64pt" height="64pt" viewBox="0 0 64 64" version="1.1" xmlns="http://www.w3.org/2000/svg">
<g id="#ffffffff">
<path fill="#ffffff" opacity="1.00" d=" M 0.00 0.00 L 64.00 0.00 L 64.00 42.01 C 62.85 42.04 61.71 42.06 60.56 42.08 C 59.08 42.87 57.58 43.65 56.08 44.41 C 56.06 39.98 56.25 35.45 54.76 31.20 C 56.06 30.78 57.35 30.35 58.64 29.92 C 58.22 28.65 57.79 27.38 57.36 26.10 C 56.39 26.42 54.46 27.06 53.49 27.38 C 51.63 22.99 52.01 16.32 46.86 14.31 C 39.30 13.56 31.65 14.24 24.05 13.97 C 20.75 14.12 16.54 13.26 14.25 16.31 C 12.33 19.72 11.73 23.69 10.51 27.38 C 9.55 27.06 7.61 26.42 6.65 26.11 C 6.22 27.35 5.79 28.59 5.36 29.84 C 6.65 30.28 7.95 30.73 9.24 31.18 C 7.75 35.44 7.94 39.97 7.93 44.41 C 6.42 43.65 4.93 42.87 3.44 42.08 C 2.30 42.06 1.15 42.03 0.00 41.99 L 0.00 0.00 Z" />
<path fill="#ffffff" opacity="1.00" d=" M 18.15 18.16 C 26.07 17.76 34.02 18.14 41.95 17.98 C 43.41 18.20 45.24 17.57 46.45 18.60 C 47.88 21.58 48.48 24.87 49.51 28.00 C 37.84 28.00 26.16 28.00 14.49 28.00 C 15.78 24.80 15.86 20.77 18.15 18.16 Z" />
<path fill="#ffffff" opacity="1.00" d=" M 13.23 32.01 C 25.75 31.99 38.26 32.00 50.77 32.00 C 51.94 35.20 52.18 38.60 52.02 41.98 C 50.81 42.00 49.61 42.02 48.41 42.05 C 45.99 44.54 41.99 44.52 39.58 42.03 C 38.53 42.03 37.47 42.03 36.42 42.03 C 34.01 44.54 30.00 44.53 27.58 42.03 C 26.53 42.03 25.47 42.03 24.42 42.03 C 22.01 44.54 18.01 44.52 15.59 42.05 C 14.39 42.02 13.19 42.00 11.99 41.98 C 11.82 38.60 12.05 35.20 13.23 32.01 M 15.30 34.54 C 13.32 35.78 13.77 39.25 16.09 39.81 C 17.86 40.55 20.04 38.96 19.96 37.06 C 20.16 34.72 17.16 33.14 15.30 34.54 M 45.36 34.51 C 43.35 35.67 43.71 39.17 46.00 39.77 C 48.16 40.80 50.70 38.28 49.82 36.08 C 49.34 34.25 46.90 33.42 45.36 34.51 Z" />
<path fill="#ffffff" opacity="1.00" d=" M 0.00 42.94 C 2.12 48.60 9.41 49.01 14.01 46.25 C 17.75 48.43 22.25 48.42 26.00 46.24 C 29.74 48.43 34.25 48.42 38.00 46.24 C 41.74 48.43 46.25 48.42 49.99 46.24 C 54.57 49.06 61.83 48.57 64.00 42.97 L 64.00 64.00 L 0.00 64.00 L 0.00 42.94 Z" />
</g>
<g id="#000000ff">
<path fill="#000000" opacity="1.00" d=" M 14.25 16.31 C 16.54 13.26 20.75 14.12 24.05 13.97 C 31.65 14.24 39.30 13.56 46.86 14.31 C 52.01 16.32 51.63 22.99 53.49 27.38 C 54.46 27.06 56.39 26.42 57.36 26.10 C 57.79 27.38 58.22 28.65 58.64 29.92 C 57.35 30.35 56.06 30.78 54.76 31.20 C 56.25 35.45 56.06 39.98 56.08 44.41 C 57.58 43.65 59.08 42.87 60.56 42.08 C 61.71 42.06 62.85 42.04 64.00 42.01 L 64.00 42.97 C 61.83 48.57 54.57 49.06 49.99 46.24 C 46.25 48.42 41.74 48.43 38.00 46.24 C 34.25 48.42 29.74 48.43 26.00 46.24 C 22.25 48.42 17.75 48.43 14.01 46.25 C 9.41 49.01 2.12 48.60 0.00 42.94 L 0.00 41.99 C 1.15 42.03 2.30 42.06 3.44 42.08 C 4.93 42.87 6.42 43.65 7.93 44.41 C 7.94 39.97 7.75 35.44 9.24 31.18 C 7.95 30.73 6.65 30.28 5.36 29.84 C 5.79 28.59 6.22 27.35 6.65 26.11 C 7.61 26.42 9.55 27.06 10.51 27.38 C 11.73 23.69 12.33 19.72 14.25 16.31 M 18.15 18.16 C 15.86 20.77 15.78 24.80 14.49 28.00 C 26.16 28.00 37.84 28.00 49.51 28.00 C 48.48 24.87 47.88 21.58 46.45 18.60 C 45.24 17.57 43.41 18.20 41.95 17.98 C 34.02 18.14 26.07 17.76 18.15 18.16 M 13.23 32.01 C 12.05 35.20 11.82 38.60 11.99 41.98 C 13.19 42.00 14.39 42.02 15.59 42.05 C 18.01 44.52 22.01 44.54 24.42 42.03 C 25.47 42.03 26.53 42.03 27.58 42.03 C 30.00 44.53 34.01 44.54 36.42 42.03 C 37.47 42.03 38.53 42.03 39.58 42.03 C 41.99 44.52 45.99 44.54 48.41 42.05 C 49.61 42.02 50.81 42.00 52.02 41.98 C 52.18 38.60 51.94 35.20 50.77 32.00 C 38.26 32.00 25.75 31.99 13.23 32.01 Z" />
<path fill="#000000" opacity="1.00" d=" M 15.30 34.54 C 17.16 33.14 20.16 34.72 19.96 37.06 C 20.04 38.96 17.86 40.55 16.09 39.81 C 13.77 39.25 13.32 35.78 15.30 34.54 Z" />
<path fill="#000000" opacity="1.00" d=" M 45.36 34.51 C 46.90 33.42 49.34 34.25 49.82 36.08 C 50.70 38.28 48.16 40.80 46.00 39.77 C 43.71 39.17 43.35 35.67 45.36 34.51 Z" />
</g>
</svg>
