<?xml version="1.0" encoding="UTF-8" ?>
<!DOCTYPE svg PUBLIC "-//W3C//DTD SVG 1.1//EN" "http://www.w3.org/Graphics/SVG/1.1/DTD/svg11.dtd">
<svg width="60pt" height="60pt" viewBox="0 0 60 60" version="1.1" xmlns="http://www.w3.org/2000/svg">
<g id="#ffffffff">
<path fill="#ffffff" opacity="1.00" d=" M 0.00 0.00 L 60.00 0.00 L 60.00 60.00 L 0.00 60.00 L 0.00 0.00 M 18.17 13.15 C 17.77 18.53 18.09 23.95 18.02 29.34 C 14.28 30.58 10.40 29.65 6.85 28.27 C 4.89 27.00 2.87 30.11 4.63 31.43 C 8.61 33.79 13.48 34.44 18.00 33.58 C 18.00 34.53 18.01 36.42 18.01 37.37 C 14.25 38.55 10.38 37.65 6.83 36.26 C 4.87 34.99 2.85 38.17 4.64 39.43 C 10.12 42.79 17.05 42.50 22.81 39.98 C 25.16 40.79 27.48 41.90 30.01 41.98 C 32.54 41.91 34.86 40.77 37.22 39.99 C 42.98 42.53 49.91 42.75 55.40 39.42 C 57.07 37.95 55.00 35.08 53.09 36.27 C 49.62 37.70 45.87 38.39 42.15 37.56 C 42.08 36.23 42.01 34.91 41.93 33.58 C 46.49 34.42 51.46 33.84 55.42 31.36 C 57.05 29.97 55.02 27.09 53.12 28.26 C 49.60 29.68 45.73 30.54 41.99 29.37 C 41.87 23.96 42.26 18.53 41.81 13.13 C 38.12 9.84 34.31 6.44 30.05 3.94 C 25.72 6.36 21.95 9.91 18.17 13.15 M 4.63 47.43 C 9.85 50.55 16.47 50.65 22.00 48.26 C 27.08 50.48 32.92 50.47 38.00 48.26 C 43.53 50.65 50.19 50.57 55.38 47.40 C 56.73 46.33 55.72 43.85 53.97 44.02 C 51.68 44.62 49.51 45.71 47.12 45.90 C 43.94 46.24 40.93 44.99 38.01 43.94 C 32.93 46.44 27.07 46.45 22.00 43.94 C 19.07 44.99 16.04 46.25 12.85 45.90 C 10.49 45.70 8.35 44.63 6.08 44.06 C 4.27 43.62 3.19 46.45 4.63 47.43 Z" />
<path fill="#ffffff" opacity="1.00" d=" M 24.00 14.00 C 25.33 14.00 26.67 14.00 28.00 14.00 C 28.00 15.33 28.00 16.67 28.00 18.00 C 26.67 18.00 25.33 18.00 24.00 18.00 C 24.00 16.67 24.00 15.33 24.00 14.00 Z" />
<path fill="#ffffff" opacity="1.00" d=" M 32.00 14.00 C 33.33 14.00 34.67 14.00 36.00 14.00 C 36.00 15.33 36.00 16.67 36.00 18.00 C 34.67 18.00 33.33 18.00 32.00 18.00 C 32.00 16.67 32.00 15.33 32.00 14.00 Z" />
<path fill="#ffffff" opacity="1.00" d=" M 24.00 22.00 C 25.33 22.00 26.67 22.00 28.00 22.00 C 28.00 23.33 28.00 24.67 28.00 26.00 C 26.67 26.00 25.33 26.00 24.00 26.00 C 24.00 24.67 24.00 23.33 24.00 22.00 Z" />
<path fill="#ffffff" opacity="1.00" d=" M 32.00 22.00 C 33.33 22.00 34.67 22.00 36.00 22.00 C 36.00 23.33 36.00 24.67 36.00 26.00 C 34.67 26.00 33.33 26.00 32.00 26.00 C 32.00 24.67 32.00 23.33 32.00 22.00 Z" />
<path fill="#ffffff" opacity="1.00" d=" M 24.00 30.00 C 25.33 30.00 26.67 30.00 28.00 30.00 C 28.00 31.33 28.00 32.67 28.00 34.00 C 26.67 34.00 25.33 34.00 24.00 34.00 C 24.00 32.67 24.00 31.33 24.00 30.00 Z" />
<path fill="#ffffff" opacity="1.00" d=" M 32.00 30.00 C 33.33 30.00 34.67 30.00 36.00 30.00 C 36.00 31.33 36.00 32.67 36.00 34.00 C 34.67 34.00 33.33 34.00 32.00 34.00 C 32.00 32.67 32.00 31.33 32.00 30.00 Z" />
</g>
<g id="#000000ff">
<path fill="#000000" opacity="1.00" d=" M 18.17 13.15 C 21.95 9.91 25.72 6.36 30.05 3.94 C 34.31 6.44 38.12 9.84 41.81 13.13 C 42.26 18.53 41.87 23.96 41.99 29.37 C 45.73 30.54 49.60 29.68 53.12 28.26 C 55.02 27.09 57.05 29.97 55.42 31.36 C 51.46 33.84 46.49 34.42 41.93 33.58 C 42.01 34.91 42.08 36.23 42.15 37.56 C 45.87 38.39 49.62 37.70 53.09 36.27 C 55.00 35.08 57.07 37.95 55.40 39.42 C 49.91 42.75 42.98 42.53 37.22 39.99 C 34.86 40.77 32.54 41.91 30.01 41.98 C 27.48 41.90 25.16 40.79 22.81 39.98 C 17.05 42.50 10.12 42.79 4.64 39.43 C 2.85 38.17 4.87 34.99 6.83 36.26 C 10.38 37.65 14.25 38.55 18.01 37.37 C 18.01 36.42 18.00 34.53 18.00 33.58 C 13.48 34.44 8.61 33.79 4.63 31.43 C 2.87 30.11 4.89 27.00 6.85 28.27 C 10.40 29.65 14.28 30.58 18.02 29.34 C 18.09 23.95 17.77 18.53 18.17 13.15 M 24.00 14.00 C 24.00 15.33 24.00 16.67 24.00 18.00 C 25.33 18.00 26.67 18.00 28.00 18.00 C 28.00 16.67 28.00 15.33 28.00 14.00 C 26.67 14.00 25.33 14.00 24.00 14.00 M 32.00 14.00 C 32.00 15.33 32.00 16.67 32.00 18.00 C 33.33 18.00 34.67 18.00 36.00 18.00 C 36.00 16.67 36.00 15.33 36.00 14.00 C 34.67 14.00 33.33 14.00 32.00 14.00 M 24.00 22.00 C 24.00 23.33 24.00 24.67 24.00 26.00 C 25.33 26.00 26.67 26.00 28.00 26.00 C 28.00 24.67 28.00 23.33 28.00 22.00 C 26.67 22.00 25.33 22.00 24.00 22.00 M 32.00 22.00 C 32.00 23.33 32.00 24.67 32.00 26.00 C 33.33 26.00 34.67 26.00 36.00 26.00 C 36.00 24.67 36.00 23.33 36.00 22.00 C 34.67 22.00 33.33 22.00 32.00 22.00 M 24.00 30.00 C 24.00 31.33 24.00 32.67 24.00 34.00 C 25.33 34.00 26.67 34.00 28.00 34.00 C 28.00 32.67 28.00 31.33 28.00 30.00 C 26.67 30.00 25.33 30.00 24.00 30.00 M 32.00 30.00 C 32.00 31.33 32.00 32.67 32.00 34.00 C 33.33 34.00 34.67 34.00 36.00 34.00 C 36.00 32.67 36.00 31.33 36.00 30.00 C 34.67 30.00 33.33 30.00 32.00 30.00 Z" />
<path fill="#000000" opacity="1.00" d=" M 4.63 47.43 C 3.19 46.45 4.27 43.62 6.08 44.06 C 8.35 44.63 10.49 45.70 12.85 45.90 C 16.04 46.25 19.07 44.99 22.00 43.94 C 27.07 46.45 32.93 46.44 38.01 43.94 C 40.93 44.99 43.94 46.24 47.12 45.90 C 49.51 45.71 51.68 44.62 53.97 44.02 C 55.72 43.85 56.73 46.33 55.38 47.40 C 50.19 50.57 43.53 50.65 38.00 48.26 C 32.92 50.47 27.08 50.48 22.00 48.26 C 16.47 50.65 9.85 50.55 4.63 47.43 Z" />
</g>
</svg>
