<?xml version="1.0" encoding="UTF-8" ?>
<!DOCTYPE svg PUBLIC "-//W3C//DTD SVG 1.1//EN" "http://www.w3.org/Graphics/SVG/1.1/DTD/svg11.dtd">
<svg width="64pt" height="64pt" viewBox="0 0 64 64" version="1.1" xmlns="http://www.w3.org/2000/svg">
<g id="#ffffffff">
<path fill="#ffffff" opacity="1.00" d=" M 0.00 0.00 L 64.00 0.00 L 64.00 64.00 L 0.00 64.00 L 0.00 0.00 M 23.91 8.00 C 24.07 12.31 24.26 16.62 24.46 20.94 C 28.88 21.83 30.82 25.48 31.48 29.63 C 24.31 29.83 17.15 29.98 9.99 30.07 C 9.99 34.04 9.99 38.00 9.98 41.97 C 8.44 42.13 5.37 42.45 3.83 42.61 C 3.93 47.08 3.99 51.54 4.05 56.00 C 9.40 56.00 14.74 56.00 20.08 56.00 C 19.93 51.67 19.76 47.35 19.58 43.03 C 14.77 42.46 13.34 38.44 12.98 34.21 C 18.68 34.11 24.38 34.04 30.08 33.99 C 29.93 36.34 29.76 38.69 29.60 41.04 C 20.94 41.12 24.90 50.83 23.56 55.99 C 29.06 55.99 34.57 55.99 40.08 56.00 C 39.93 51.68 39.76 47.35 39.58 43.03 C 34.77 42.46 33.34 38.44 32.98 34.21 C 38.68 34.11 44.38 34.04 50.08 33.99 C 49.92 36.34 49.76 38.69 49.60 41.04 C 40.94 41.12 44.90 50.83 43.56 55.99 C 49.06 55.99 54.56 55.99 60.07 56.00 C 59.94 51.65 59.80 47.30 59.65 42.96 C 51.76 43.19 54.66 34.79 53.25 30.07 C 46.81 30.03 40.36 29.99 33.92 29.96 C 34.07 27.63 34.24 25.30 34.40 22.97 C 43.06 22.88 39.10 13.17 40.44 8.01 C 34.93 8.01 29.42 8.00 23.91 8.00 Z" />
<path fill="#ffffff" opacity="1.00" d=" M 28.00 12.00 C 30.67 12.00 33.33 12.00 36.00 12.00 C 36.00 13.50 36.00 16.50 36.00 18.00 C 33.33 18.00 30.67 18.00 28.00 18.00 C 28.00 16.50 28.00 13.50 28.00 12.00 Z" />
<path fill="#ffffff" opacity="1.00" d=" M 8.00 46.00 C 10.67 46.00 13.33 46.00 16.00 46.00 C 16.00 47.50 16.00 50.50 16.00 52.00 C 13.33 52.00 10.67 52.00 8.00 52.00 C 8.00 50.50 8.00 47.50 8.00 46.00 Z" />
<path fill="#ffffff" opacity="1.00" d=" M 28.00 46.00 C 30.67 46.00 33.33 46.00 36.00 46.00 C 36.00 47.50 36.00 50.50 36.00 52.00 C 33.33 52.00 30.67 52.00 28.00 52.00 C 28.00 50.50 28.00 47.50 28.00 46.00 Z" />
<path fill="#ffffff" opacity="1.00" d=" M 48.00 46.00 C 50.67 46.00 53.33 46.00 56.00 46.00 C 56.00 47.50 56.00 50.50 56.00 52.00 C 53.33 52.00 50.67 52.00 48.00 52.00 C 48.00 50.50 48.00 47.50 48.00 46.00 Z" />
</g>
<g id="#000000ff">
<path fill="#000000" opacity="1.00" d=" M 23.91 8.00 C 29.42 8.00 34.93 8.01 40.44 8.01 C 39.10 13.17 43.06 22.88 34.40 22.97 C 34.24 25.30 34.07 27.63 33.92 29.96 C 40.36 29.99 46.81 30.03 53.25 30.07 C 54.66 34.79 51.76 43.19 59.65 42.96 C 59.80 47.30 59.94 51.65 60.07 56.00 C 54.56 55.99 49.06 55.99 43.56 55.99 C 44.90 50.83 40.94 41.12 49.60 41.04 C 49.76 38.69 49.92 36.34 50.08 33.99 C 44.38 34.04 38.68 34.11 32.98 34.21 C 33.34 38.44 34.77 42.46 39.58 43.03 C 39.76 47.35 39.93 51.68 40.08 56.00 C 34.57 55.99 29.06 55.99 23.56 55.99 C 24.90 50.83 20.94 41.12 29.60 41.04 C 29.76 38.69 29.93 36.34 30.08 33.99 C 24.38 34.04 18.68 34.11 12.98 34.21 C 13.34 38.44 14.77 42.46 19.58 43.03 C 19.76 47.35 19.93 51.67 20.08 56.00 C 14.74 56.00 9.40 56.00 4.05 56.00 C 3.99 51.54 3.93 47.08 3.83 42.61 C 5.37 42.45 8.44 42.13 9.98 41.97 C 9.99 38.00 9.99 34.04 9.99 30.07 C 17.15 29.98 24.31 29.83 31.48 29.63 C 30.82 25.48 28.88 21.83 24.46 20.94 C 24.26 16.62 24.07 12.31 23.91 8.00 M 28.00 12.00 C 28.00 13.50 28.00 16.50 28.00 18.00 C 30.67 18.00 33.33 18.00 36.00 18.00 C 36.00 16.50 36.00 13.50 36.00 12.00 C 33.33 12.00 30.67 12.00 28.00 12.00 M 8.00 46.00 C 8.00 47.50 8.00 50.50 8.00 52.00 C 10.67 52.00 13.33 52.00 16.00 52.00 C 16.00 50.50 16.00 47.50 16.00 46.00 C 13.33 46.00 10.67 46.00 8.00 46.00 M 28.00 46.00 C 28.00 47.50 28.00 50.50 28.00 52.00 C 30.67 52.00 33.33 52.00 36.00 52.00 C 36.00 50.50 36.00 47.50 36.00 46.00 C 33.33 46.00 30.67 46.00 28.00 46.00 M 48.00 46.00 C 48.00 47.50 48.00 50.50 48.00 52.00 C 50.67 52.00 53.33 52.00 56.00 52.00 C 56.00 50.50 56.00 47.50 56.00 46.00 C 53.33 46.00 50.67 46.00 48.00 46.00 Z" />
</g>
</svg>
