<?xml version="1.0" encoding="UTF-8" ?>
<!DOCTYPE svg PUBLIC "-//W3C//DTD SVG 1.1//EN" "http://www.w3.org/Graphics/SVG/1.1/DTD/svg11.dtd">
<svg width="60pt" height="60pt" viewBox="0 0 60 60" version="1.1" xmlns="http://www.w3.org/2000/svg">
<g id="#ffffffff">
<path fill="#ffffff" opacity="1.00" d=" M 0.00 0.00 L 60.00 0.00 L 60.00 60.00 L 0.00 60.00 L 0.00 0.00 M 22.23 6.26 C 21.96 10.03 21.96 13.81 22.19 17.57 C 24.12 17.81 26.06 18.02 28.00 18.23 C 28.00 20.14 28.00 22.06 28.00 23.97 C 23.35 24.07 18.68 23.80 14.04 24.10 C 12.53 24.14 10.79 24.79 10.38 26.41 C 9.67 29.55 10.04 32.81 9.99 36.01 C 11.31 36.01 12.63 36.00 13.95 36.00 C 13.98 33.34 14.01 30.67 14.05 28.00 C 18.68 27.99 23.32 27.99 27.95 28.00 C 27.99 30.67 28.02 33.34 28.06 36.01 C 29.35 36.00 30.65 36.00 31.94 36.01 C 31.98 33.34 32.01 30.67 32.05 28.00 C 36.68 27.99 41.32 27.99 45.95 28.00 C 45.99 30.67 46.02 33.34 46.05 36.00 C 47.37 36.00 48.69 36.01 50.01 36.01 C 50.00 33.07 50.21 30.12 49.80 27.20 C 49.64 25.28 47.77 24.06 45.96 24.10 C 41.31 23.79 36.65 24.07 32.00 23.97 C 32.00 22.06 32.00 20.14 32.00 18.23 C 33.94 18.02 35.88 17.81 37.81 17.57 C 38.04 13.81 38.04 10.03 37.77 6.27 C 32.60 5.87 27.40 5.87 22.23 6.26 M 6.23 40.23 C 5.95 44.07 5.94 47.92 6.24 51.76 C 10.07 52.06 13.93 52.06 17.76 51.76 C 18.06 47.93 18.06 44.07 17.76 40.24 C 13.93 39.94 10.07 39.95 6.23 40.23 M 24.24 40.23 C 23.95 44.07 23.94 47.92 24.24 51.76 C 28.07 52.06 31.93 52.05 35.76 51.76 C 36.05 47.93 36.06 44.07 35.76 40.24 C 31.92 39.95 28.07 39.95 24.24 40.23 M 42.23 40.23 C 41.95 44.07 41.94 47.93 42.24 51.76 C 46.07 52.06 49.93 52.06 53.76 51.76 C 54.06 47.92 54.05 44.07 53.76 40.23 C 49.92 39.95 46.07 39.95 42.23 40.23 Z" />
</g>
<g id="#000000ff">
<path fill="#968176" opacity="1.00" d=" M 22.23 6.26 C 27.40 5.87 32.60 5.87 37.77 6.27 C 38.04 10.03 38.04 13.81 37.81 17.57 C 35.88 17.81 33.94 18.02 32.00 18.23 C 32.00 20.14 32.00 22.06 32.00 23.97 C 36.65 24.07 41.31 23.79 45.96 24.10 C 47.77 24.06 49.64 25.28 49.80 27.20 C 50.21 30.12 50.00 33.07 50.01 36.01 C 48.69 36.01 47.37 36.00 46.05 36.00 C 46.02 33.34 45.99 30.67 45.95 28.00 C 41.32 27.99 36.68 27.99 32.05 28.00 C 32.01 30.67 31.98 33.34 31.94 36.01 C 30.65 36.00 29.35 36.00 28.06 36.01 C 28.02 33.34 27.99 30.67 27.95 28.00 C 23.32 27.99 18.68 27.99 14.05 28.00 C 14.01 30.67 13.98 33.34 13.95 36.00 C 12.63 36.00 11.31 36.01 9.99 36.01 C 10.04 32.81 9.67 29.55 10.38 26.41 C 10.79 24.79 12.53 24.14 14.04 24.10 C 18.68 23.80 23.35 24.07 28.00 23.97 C 28.00 22.06 28.00 20.14 28.00 18.23 C 26.06 18.02 24.12 17.81 22.19 17.57 C 21.96 13.81 21.96 10.03 22.23 6.26 Z" />
<path fill="#968176" opacity="1.00" d=" M 6.23 40.23 C 10.07 39.95 13.93 39.94 17.76 40.24 C 18.06 44.07 18.06 47.93 17.76 51.76 C 13.93 52.06 10.07 52.06 6.24 51.76 C 5.94 47.92 5.95 44.07 6.23 40.23 Z" />
<path fill="#968176" opacity="1.00" d=" M 24.24 40.23 C 28.07 39.95 31.92 39.95 35.76 40.24 C 36.06 44.07 36.05 47.93 35.76 51.76 C 31.93 52.05 28.07 52.06 24.24 51.76 C 23.94 47.92 23.95 44.07 24.24 40.23 Z" />
<path fill="#968176" opacity="1.00" d=" M 42.23 40.23 C 46.07 39.95 49.92 39.95 53.76 40.23 C 54.05 44.07 54.06 47.92 53.76 51.76 C 49.93 52.06 46.07 52.06 42.24 51.76 C 41.94 47.93 41.95 44.07 42.23 40.23 Z" />
</g>
</svg>
