<?xml version="1.0" encoding="UTF-8" ?>
<!DOCTYPE svg PUBLIC "-//W3C//DTD SVG 1.1//EN" "http://www.w3.org/Graphics/SVG/1.1/DTD/svg11.dtd">
<svg width="60pt" height="60pt" viewBox="0 0 60 60" version="1.1" xmlns="http://www.w3.org/2000/svg">
<g id="#ffffffff">
<path fill="#ffffff" opacity="1.00" d=" M 0.00 0.00 L 60.00 0.00 L 60.00 60.00 L 0.00 60.00 L 0.00 0.00 M 28.54 8.56 C 27.47 9.66 28.40 10.97 28.88 12.07 C 30.33 14.81 29.79 18.10 31.15 20.87 C 32.66 23.97 34.61 26.83 35.87 30.04 C 29.35 30.10 22.16 30.41 16.55 26.50 C 13.24 24.32 11.40 20.73 9.75 17.25 C 9.28 15.58 6.78 15.60 6.19 17.17 C 2.81 22.61 0.55 29.67 3.18 35.87 C 5.05 40.39 9.63 42.84 14.09 44.16 C 11.45 47.26 7.73 49.04 3.86 50.09 C 4.03 51.54 3.96 53.86 5.98 53.92 C 15.66 54.03 25.99 51.90 33.54 45.47 C 39.02 40.85 41.97 32.49 38.41 25.85 C 36.24 21.87 33.69 17.97 33.43 13.29 C 35.19 13.67 37.01 13.89 38.71 14.52 C 41.20 15.87 37.43 19.72 40.28 20.79 C 42.44 21.80 43.18 18.76 43.77 17.29 C 45.85 16.79 47.93 16.33 50.01 15.87 C 49.66 20.07 49.60 24.61 47.02 28.17 C 44.49 31.20 47.12 36.17 50.99 36.01 C 55.14 35.92 57.17 31.29 56.88 27.65 C 59.19 25.24 57.34 21.51 54.00 21.86 C 54.00 19.51 54.00 17.16 54.00 14.81 C 55.53 14.15 57.73 14.02 58.17 12.08 C 52.86 11.90 47.54 12.09 42.23 11.95 C 39.27 9.84 35.51 9.90 32.21 8.63 C 31.04 8.34 29.60 7.52 28.54 8.56 Z" />
</g>
<g id="#000000ff">
<path fill="#000000" opacity="1.00" d=" M 28.54 8.56 C 29.60 7.52 31.04 8.34 32.21 8.63 C 35.51 9.90 39.27 9.84 42.23 11.95 C 47.54 12.09 52.86 11.90 58.17 12.08 C 57.73 14.02 55.53 14.15 54.00 14.81 C 54.00 17.16 54.00 19.51 54.00 21.86 C 57.34 21.51 59.19 25.24 56.88 27.65 C 57.17 31.29 55.14 35.92 50.99 36.01 C 47.12 36.17 44.49 31.20 47.02 28.17 C 49.60 24.61 49.66 20.07 50.01 15.87 C 47.93 16.33 45.85 16.79 43.77 17.29 C 43.18 18.76 42.44 21.80 40.28 20.79 C 37.43 19.72 41.20 15.87 38.71 14.52 C 37.01 13.89 35.19 13.67 33.43 13.29 C 33.69 17.97 36.24 21.87 38.41 25.85 C 41.97 32.49 39.02 40.85 33.54 45.47 C 25.99 51.90 15.66 54.03 5.98 53.92 C 3.96 53.86 4.03 51.54 3.86 50.09 C 7.73 49.04 11.45 47.26 14.09 44.16 C 9.63 42.84 5.05 40.39 3.18 35.87 C 0.55 29.67 2.81 22.61 6.19 17.17 C 6.78 15.60 9.28 15.58 9.75 17.25 C 11.40 20.73 13.24 24.32 16.55 26.50 C 22.16 30.41 29.35 30.10 35.87 30.04 C 34.61 26.83 32.66 23.97 31.15 20.87 C 29.79 18.10 30.33 14.81 28.88 12.07 C 28.40 10.97 27.47 9.66 28.54 8.56 Z" />
</g>
</svg>
