<?xml version="1.0" encoding="UTF-8" ?>
<!DOCTYPE svg PUBLIC "-//W3C//DTD SVG 1.1//EN" "http://www.w3.org/Graphics/SVG/1.1/DTD/svg11.dtd">
<svg width="60pt" height="60pt" viewBox="0 0 60 60" version="1.1" xmlns="http://www.w3.org/2000/svg">
<g id="#ffffffff">
<path fill="#ffffff" opacity="1.00" d=" M 0.00 0.00 L 60.00 0.00 L 60.00 39.68 C 59.10 37.68 57.04 36.92 55.24 35.97 C 53.60 33.73 51.32 31.24 48.21 32.13 C 43.46 33.86 39.47 37.89 34.11 37.80 C 31.35 37.56 30.46 34.48 30.31 32.16 C 29.80 25.87 29.49 19.14 32.54 13.38 C 33.22 11.72 35.09 9.37 32.83 8.04 C 30.37 7.58 29.28 10.41 28.07 12.03 C 23.86 18.51 23.48 26.49 24.56 33.92 C 20.27 25.98 20.23 16.76 19.92 7.98 C 20.05 6.39 18.26 5.65 16.95 6.12 C 10.47 7.13 5.66 13.56 6.03 20.02 C 6.13 25.63 10.40 29.85 11.86 35.04 C 12.48 37.13 10.79 39.17 8.90 39.83 C 5.96 40.39 2.66 39.26 0.00 40.93 L 0.00 0.00 Z" />
<path fill="#ffffff" opacity="1.00" d=" M 41.50 41.67 C 47.34 39.14 53.84 40.24 60.00 39.98 L 60.00 60.00 L 0.00 60.00 L 0.00 42.71 C 2.31 44.85 5.48 45.49 8.40 46.39 C 14.46 47.87 20.81 48.44 27.01 47.60 C 32.28 46.84 36.73 43.78 41.50 41.67 Z" />
</g>
<g id="#000000ff">
<path fill="#968176" opacity="1.00" d=" M 6.03 20.02 C 5.66 13.56 10.47 7.13 16.95 6.12 C 18.26 5.65 20.05 6.39 19.92 7.98 C 20.23 16.76 20.27 25.98 24.56 33.92 C 23.48 26.49 23.86 18.51 28.07 12.03 C 29.28 10.41 30.37 7.58 32.83 8.04 C 35.09 9.37 33.22 11.72 32.54 13.38 C 29.49 19.14 29.80 25.87 30.31 32.16 C 30.46 34.48 31.35 37.56 34.11 37.80 C 39.47 37.89 43.46 33.86 48.21 32.13 C 51.32 31.24 53.60 33.73 55.24 35.97 C 57.04 36.92 59.10 37.68 60.00 39.68 L 60.00 39.98 C 53.84 40.24 47.34 39.14 41.50 41.67 C 36.73 43.78 32.28 46.84 27.01 47.60 C 20.81 48.44 14.46 47.87 8.40 46.39 C 5.48 45.49 2.31 44.85 0.00 42.71 L 0.00 40.93 C 2.66 39.26 5.96 40.39 8.90 39.83 C 10.79 39.17 12.48 37.13 11.86 35.04 C 10.40 29.85 6.13 25.63 6.03 20.02 Z" />
</g>
</svg>
