<?xml version="1.0" encoding="UTF-8" ?>
<!DOCTYPE svg PUBLIC "-//W3C//DTD SVG 1.1//EN" "http://www.w3.org/Graphics/SVG/1.1/DTD/svg11.dtd">
<svg width="60pt" height="60pt" viewBox="0 0 60 60" version="1.1" xmlns="http://www.w3.org/2000/svg">
<g id="#ffffffff">
<path fill="#ffffff" opacity="1.00" d=" M 0.00 0.00 L 60.00 0.00 L 60.00 60.00 L 0.00 60.00 L 0.00 0.00 M 17.45 4.66 C 10.41 6.62 5.36 13.87 6.05 21.17 C 6.45 29.63 14.62 36.71 23.06 35.95 C 31.95 35.59 39.30 26.70 37.84 17.87 C 36.82 8.51 26.47 1.64 17.45 4.66 M 42.09 19.85 C 41.90 21.26 41.74 22.67 41.62 24.08 C 43.18 25.41 44.79 27.53 43.61 29.64 C 42.74 31.84 40.23 32.13 38.18 31.84 C 36.17 34.14 33.89 36.18 31.33 37.84 C 34.05 42.02 39.05 44.87 44.12 43.78 C 50.70 42.76 55.41 35.59 53.62 29.14 C 52.45 23.81 47.37 20.23 42.09 19.85 M 13.34 40.47 C 7.63 42.18 6.15 50.55 10.89 54.13 C 15.10 57.96 22.67 55.44 23.75 49.86 C 25.47 44.01 18.99 38.16 13.34 40.47 Z" />
<path fill="#ffffff" opacity="1.00" d=" M 15.41 10.47 C 17.57 8.95 20.80 11.37 19.82 13.85 C 19.40 15.74 16.94 16.57 15.38 15.51 C 13.59 14.44 13.60 11.52 15.41 10.47 Z" />
<path fill="#ffffff" opacity="1.00" d=" M 13.24 44.15 C 15.58 43.12 17.13 46.81 14.86 47.88 C 12.46 48.93 10.76 45.11 13.24 44.15 Z" />
</g>
<g id="#000000ff">
<path fill="#000000" opacity="1.00" d=" M 17.45 4.66 C 26.47 1.64 36.82 8.51 37.84 17.87 C 39.30 26.70 31.95 35.59 23.06 35.95 C 14.62 36.71 6.45 29.63 6.05 21.17 C 5.36 13.87 10.41 6.62 17.45 4.66 M 15.41 10.47 C 13.60 11.52 13.59 14.44 15.38 15.51 C 16.94 16.57 19.40 15.74 19.82 13.85 C 20.80 11.37 17.57 8.95 15.41 10.47 Z" />
<path fill="#000000" opacity="1.00" d=" M 42.09 19.85 C 47.37 20.23 52.45 23.81 53.62 29.14 C 55.41 35.59 50.70 42.76 44.12 43.78 C 39.05 44.87 34.05 42.02 31.33 37.84 C 33.89 36.18 36.17 34.14 38.18 31.84 C 40.23 32.13 42.74 31.84 43.61 29.64 C 44.79 27.53 43.18 25.41 41.62 24.08 C 41.74 22.67 41.90 21.26 42.09 19.85 Z" />
<path fill="#000000" opacity="1.00" d=" M 13.34 40.47 C 18.99 38.16 25.47 44.01 23.75 49.86 C 22.67 55.44 15.10 57.96 10.89 54.13 C 6.15 50.55 7.63 42.18 13.34 40.47 M 13.24 44.15 C 10.76 45.11 12.46 48.93 14.86 47.88 C 17.13 46.81 15.58 43.12 13.24 44.15 Z" />
</g>
</svg>
