<?xml version="1.0" encoding="UTF-8" ?>
<!DOCTYPE svg PUBLIC "-//W3C//DTD SVG 1.1//EN" "http://www.w3.org/Graphics/SVG/1.1/DTD/svg11.dtd">
<svg width="60pt" height="60pt" viewBox="0 0 60 60" version="1.1" xmlns="http://www.w3.org/2000/svg">
<g id="#ffffffff">
<path fill="#ffffff" opacity="1.00" d=" M 0.00 0.00 L 60.00 0.00 L 60.00 60.00 L 0.00 60.00 L 0.00 0.00 M 12.02 26.00 C 9.72 25.98 7.39 25.86 5.10 26.20 C 3.26 26.98 3.92 30.16 5.99 29.92 C 12.69 30.21 19.42 29.78 26.12 30.09 C 28.13 29.94 28.68 33.08 26.86 33.82 C 22.30 34.39 17.69 33.60 13.13 34.20 C 11.27 34.92 11.88 38.10 13.94 37.91 C 20.24 38.27 26.57 37.68 32.86 38.17 C 34.69 38.93 34.13 42.11 32.07 41.92 C 24.04 42.20 15.99 41.80 7.96 42.08 C 5.90 41.86 5.28 45.02 7.11 45.80 C 13.41 46.36 19.77 45.71 26.09 46.08 C 27.81 45.90 27.98 47.95 27.99 49.17 C 39.20 52.61 52.02 45.40 55.09 34.15 C 55.59 32.47 56.58 29.31 53.96 29.00 C 50.93 29.49 47.86 30.52 44.79 29.58 C 37.06 27.99 31.93 18.98 34.80 11.55 C 35.29 9.84 37.20 7.37 34.90 6.16 C 23.52 5.10 12.98 14.79 12.02 26.00 Z" />
</g>
<g id="#000000ff">
<path fill="#000000" opacity="1.00" d=" M 12.02 26.00 C 12.98 14.79 23.52 5.10 34.90 6.16 C 37.20 7.37 35.29 9.84 34.80 11.55 C 31.93 18.98 37.06 27.99 44.79 29.58 C 47.86 30.52 50.93 29.49 53.96 29.00 C 56.58 29.31 55.59 32.47 55.09 34.15 C 52.02 45.40 39.20 52.61 27.99 49.17 C 27.98 47.95 27.81 45.90 26.09 46.08 C 19.77 45.71 13.41 46.36 7.11 45.80 C 5.28 45.02 5.90 41.86 7.96 42.08 C 15.99 41.80 24.04 42.20 32.07 41.92 C 34.13 42.11 34.69 38.93 32.86 38.17 C 26.57 37.68 20.24 38.27 13.94 37.91 C 11.88 38.10 11.27 34.92 13.13 34.20 C 17.69 33.60 22.30 34.39 26.86 33.82 C 28.68 33.08 28.13 29.94 26.12 30.09 C 19.42 29.78 12.69 30.21 5.99 29.92 C 3.92 30.16 3.26 26.98 5.10 26.20 C 7.39 25.86 9.72 25.98 12.02 26.00 Z" />
</g>
</svg>
