<?xml version="1.0" encoding="UTF-8" ?>
<!DOCTYPE svg PUBLIC "-//W3C//DTD SVG 1.1//EN" "http://www.w3.org/Graphics/SVG/1.1/DTD/svg11.dtd">
<svg width="60pt" height="60pt" viewBox="0 0 60 60" version="1.1" xmlns="http://www.w3.org/2000/svg">
<g id="#ffffffff">
<path fill="#ffffff" opacity="1.00" d=" M 0.00 0.00 L 60.00 0.00 L 60.00 60.00 L 0.00 60.00 L 0.00 0.00 M 39.91 11.97 C 40.53 13.43 41.51 14.70 42.38 16.02 C 39.97 15.99 37.54 15.85 35.14 16.20 C 33.62 16.83 33.63 19.23 35.18 19.80 C 38.11 20.19 41.08 19.98 44.02 20.04 C 44.01 22.74 43.61 25.43 42.72 27.99 C 40.21 28.00 37.67 27.84 35.18 28.20 C 33.63 28.78 33.63 31.21 35.17 31.80 C 37.10 32.11 39.07 31.99 41.03 32.01 C 40.31 34.59 39.99 37.26 39.99 39.93 C 37.81 40.07 33.26 39.27 34.10 42.88 C 35.83 44.84 38.84 43.68 41.13 44.04 C 42.61 46.18 44.07 51.37 47.46 49.46 C 49.03 47.48 46.37 45.71 45.63 43.96 C 48.68 44.01 51.75 44.17 54.79 43.82 C 56.38 43.24 56.39 40.79 54.82 40.18 C 51.22 39.78 47.59 40.08 43.99 39.96 C 43.97 37.25 44.39 34.56 45.27 32.00 C 48.48 31.97 51.71 32.20 54.90 31.80 C 56.35 31.11 56.35 28.85 54.87 28.20 C 52.25 27.84 49.61 27.99 46.98 28.02 C 47.68 25.40 48.00 22.71 48.02 20.01 C 50.29 20.00 52.58 20.13 54.84 19.81 C 56.36 19.15 56.37 16.90 54.89 16.20 C 52.24 15.84 49.55 15.99 46.88 16.00 C 45.69 13.92 44.71 11.61 42.77 10.10 C 41.40 9.61 40.05 10.54 39.91 11.97 M 19.44 12.67 C 13.01 14.62 7.44 19.54 4.85 25.75 C 2.78 30.59 4.89 36.02 8.18 39.74 C 12.28 44.58 18.45 48.43 24.99 47.85 C 28.33 45.88 28.83 41.52 29.48 38.04 C 30.23 30.29 30.63 21.95 27.41 14.67 C 26.17 11.27 22.20 11.80 19.44 12.67 Z" />
</g>
<g id="#000000ff">
<path fill="#968176" opacity="1.00" d=" M 39.91 11.97 C 40.05 10.54 41.40 9.61 42.77 10.10 C 44.71 11.61 45.69 13.92 46.88 16.00 C 49.55 15.99 52.24 15.84 54.89 16.20 C 56.37 16.90 56.36 19.15 54.84 19.81 C 52.58 20.13 50.29 20.00 48.02 20.01 C 48.00 22.71 47.68 25.40 46.98 28.02 C 49.61 27.99 52.25 27.84 54.87 28.20 C 56.35 28.85 56.35 31.11 54.90 31.80 C 51.71 32.20 48.48 31.97 45.27 32.00 C 44.39 34.56 43.97 37.25 43.99 39.96 C 47.59 40.08 51.22 39.78 54.82 40.18 C 56.39 40.79 56.38 43.24 54.79 43.82 C 51.75 44.17 48.68 44.01 45.63 43.96 C 46.37 45.71 49.03 47.48 47.46 49.46 C 44.07 51.37 42.61 46.18 41.13 44.04 C 38.84 43.68 35.83 44.84 34.10 42.88 C 33.26 39.27 37.81 40.07 39.99 39.93 C 39.99 37.26 40.31 34.59 41.03 32.01 C 39.07 31.99 37.10 32.11 35.17 31.80 C 33.63 31.21 33.63 28.78 35.18 28.20 C 37.67 27.84 40.21 28.00 42.72 27.99 C 43.61 25.43 44.01 22.74 44.02 20.04 C 41.08 19.98 38.11 20.19 35.18 19.80 C 33.63 19.23 33.62 16.83 35.14 16.20 C 37.54 15.85 39.97 15.99 42.38 16.02 C 41.51 14.70 40.53 13.43 39.91 11.97 Z" />
<path fill="#968176" opacity="1.00" d=" M 19.44 12.67 C 22.20 11.80 26.17 11.27 27.41 14.67 C 30.63 21.95 30.23 30.29 29.48 38.04 C 28.83 41.52 28.33 45.88 24.99 47.85 C 18.45 48.43 12.28 44.58 8.18 39.74 C 4.89 36.02 2.78 30.59 4.85 25.75 C 7.44 19.54 13.01 14.62 19.44 12.67 Z" />
</g>
</svg>
