<?xml version="1.0" encoding="UTF-8" ?>
<!DOCTYPE svg PUBLIC "-//W3C//DTD SVG 1.1//EN" "http://www.w3.org/Graphics/SVG/1.1/DTD/svg11.dtd">
<svg width="60pt" height="60pt" viewBox="0 0 60 60" version="1.1" xmlns="http://www.w3.org/2000/svg">
<g id="#ffffffff">
<path fill="#ffffff" opacity="1.00" d=" M 0.00 0.00 L 60.00 0.00 L 60.00 60.00 L 0.00 60.00 L 0.00 0.00 M 41.86 4.91 C 38.62 6.24 36.86 9.45 35.90 12.64 C 32.49 14.65 30.17 18.04 29.77 22.00 C 23.15 22.05 16.52 21.91 9.89 22.05 C 6.80 21.98 4.01 24.73 4.05 27.82 C 3.97 35.22 3.93 42.64 4.07 50.04 C 3.95 52.13 6.47 52.05 7.91 52.01 C 18.91 51.87 29.94 52.25 40.92 51.82 C 42.99 49.85 41.60 46.49 42.01 43.94 C 46.73 44.78 51.09 41.62 52.16 37.05 C 55.61 34.47 56.86 29.98 55.14 26.00 C 55.69 24.00 56.19 21.92 55.61 19.85 C 54.92 16.97 56.64 14.01 55.56 11.15 C 54.04 5.52 47.12 2.32 41.86 4.91 Z" />
<path fill="#ffffff" opacity="1.00" d=" M 40.24 11.52 C 42.17 8.73 45.97 6.75 49.13 8.89 C 52.52 10.80 52.41 15.17 50.76 18.22 C 52.23 20.79 52.10 23.55 50.42 26.00 C 51.48 28.05 52.97 30.88 50.80 32.79 C 49.00 35.11 45.23 32.34 43.74 35.02 C 43.50 37.34 46.11 37.54 47.56 38.56 C 45.08 40.57 42.03 40.08 39.89 37.85 C 36.61 38.04 33.33 37.99 30.05 38.03 C 29.38 38.79 28.69 39.53 27.98 40.25 C 25.04 38.19 25.71 33.85 27.82 31.44 C 28.56 32.29 29.28 33.16 29.99 34.04 C 31.99 33.72 34.62 34.75 36.11 32.99 C 36.24 31.06 36.22 29.13 36.32 27.19 C 33.99 24.66 32.97 20.41 35.77 17.81 C 37.79 15.26 41.21 16.75 43.80 15.80 C 45.90 13.27 42.04 12.00 40.24 11.52 M 41.50 20.62 C 39.93 22.38 42.10 23.77 43.55 24.45 C 44.05 25.27 44.58 26.08 45.12 26.89 C 46.44 27.33 48.12 26.47 47.98 24.92 C 48.13 21.85 44.29 18.71 41.50 20.62 Z" />
<path fill="#ffffff" opacity="1.00" d=" M 8.17 27.12 C 9.34 25.42 12.62 25.45 13.82 27.10 C 14.25 34.05 13.88 41.04 14.00 48.00 C 12.00 48.00 10.00 48.00 8.00 48.00 C 8.12 41.04 7.76 34.06 8.17 27.12 Z" />
<path fill="#ffffff" opacity="1.00" d=" M 19.79 48.08 C 17.32 48.02 17.28 43.91 19.82 43.95 C 19.84 45.33 19.83 46.70 19.79 48.08 Z" />
<path fill="#ffffff" opacity="1.00" d=" M 22.23 48.21 C 22.25 46.52 21.32 44.05 23.87 43.93 C 23.80 45.57 24.47 47.81 22.23 48.21 Z" />
</g>
<g id="#000000ff">
<path fill="#000000" opacity="1.00" d=" M 41.86 4.91 C 47.12 2.32 54.04 5.52 55.56 11.15 C 56.64 14.01 54.92 16.97 55.61 19.85 C 56.19 21.92 55.69 24.00 55.14 26.00 C 56.86 29.98 55.61 34.47 52.16 37.05 C 51.09 41.62 46.73 44.78 42.01 43.94 C 41.60 46.49 42.99 49.85 40.92 51.82 C 29.94 52.25 18.91 51.87 7.91 52.01 C 6.47 52.05 3.95 52.13 4.07 50.04 C 3.93 42.64 3.97 35.22 4.05 27.82 C 4.01 24.73 6.80 21.98 9.89 22.05 C 16.52 21.91 23.15 22.05 29.77 22.00 C 30.17 18.04 32.49 14.65 35.90 12.64 C 36.86 9.45 38.62 6.24 41.86 4.91 M 40.24 11.52 C 42.04 12.00 45.90 13.27 43.80 15.80 C 41.21 16.75 37.79 15.26 35.77 17.81 C 32.97 20.41 33.99 24.66 36.32 27.19 C 36.22 29.13 36.24 31.06 36.11 32.99 C 34.62 34.75 31.99 33.72 29.99 34.04 C 29.28 33.16 28.56 32.29 27.82 31.44 C 25.71 33.85 25.04 38.19 27.98 40.25 C 28.69 39.53 29.38 38.79 30.05 38.03 C 33.33 37.99 36.61 38.04 39.89 37.85 C 42.03 40.08 45.08 40.57 47.56 38.56 C 46.11 37.54 43.50 37.34 43.74 35.02 C 45.23 32.34 49.00 35.11 50.80 32.79 C 52.97 30.88 51.48 28.05 50.42 26.00 C 52.10 23.55 52.23 20.79 50.76 18.22 C 52.41 15.17 52.52 10.80 49.13 8.89 C 45.97 6.75 42.17 8.73 40.24 11.52 M 8.17 27.12 C 7.76 34.06 8.12 41.04 8.00 48.00 C 10.00 48.00 12.00 48.00 14.00 48.00 C 13.88 41.04 14.25 34.05 13.82 27.10 C 12.62 25.45 9.34 25.42 8.17 27.12 M 19.79 48.08 C 19.83 46.70 19.84 45.33 19.82 43.95 C 17.28 43.91 17.32 48.02 19.79 48.08 M 22.23 48.21 C 24.47 47.81 23.80 45.57 23.87 43.93 C 21.32 44.05 22.25 46.52 22.23 48.21 Z" />
<path fill="#000000" opacity="1.00" d=" M 41.50 20.62 C 44.29 18.71 48.13 21.85 47.98 24.92 C 48.12 26.47 46.44 27.33 45.12 26.89 C 44.58 26.08 44.05 25.27 43.55 24.45 C 42.10 23.77 39.93 22.38 41.50 20.62 Z" />
</g>
</svg>
