<?xml version="1.0" encoding="UTF-8" ?>
<!DOCTYPE svg PUBLIC "-//W3C//DTD SVG 1.1//EN" "http://www.w3.org/Graphics/SVG/1.1/DTD/svg11.dtd">
<svg width="60pt" height="60pt" viewBox="0 0 60 60" version="1.1" xmlns="http://www.w3.org/2000/svg">
<g id="#ffffffff">
<path fill="#ffffff" opacity="1.00" d=" M 0.00 0.00 L 60.00 0.00 L 60.00 60.00 L 0.00 60.00 L 0.00 0.00 M 29.13 2.11 C 27.24 3.45 28.22 6.13 27.96 8.08 C 27.94 9.50 27.92 12.19 30.02 11.93 C 32.54 12.01 31.92 8.64 32.05 6.99 C 32.20 5.00 32.22 1.17 29.13 2.11 M 10.20 10.15 C 8.33 12.97 12.62 15.00 14.17 16.95 C 15.65 19.26 19.31 16.61 17.30 14.58 C 15.29 12.89 13.18 8.49 10.20 10.15 M 47.22 10.12 C 45.40 11.61 43.70 13.28 42.27 15.15 C 41.65 16.73 43.20 18.30 44.78 17.75 C 46.91 16.13 48.88 14.23 50.41 12.03 C 50.87 10.35 48.42 8.62 47.22 10.12 M 16.07 28.00 C 12.70 28.05 9.33 27.86 5.97 28.08 C 4.59 27.88 3.50 29.66 4.20 30.81 C 4.79 32.35 6.71 31.85 7.97 32.01 C 15.99 32.06 24.03 31.88 32.05 32.07 C 34.11 31.89 34.70 35.03 32.88 35.82 C 26.99 36.39 21.03 35.60 15.14 36.19 C 13.27 36.95 13.88 40.11 15.96 39.92 C 23.34 40.07 30.73 40.05 38.11 39.93 C 41.34 39.80 42.57 36.20 43.48 33.64 C 45.88 25.94 40.11 17.14 32.14 16.18 C 24.62 14.81 17.24 20.60 16.07 28.00 M 49.13 28.20 C 47.63 28.85 47.63 31.19 49.17 31.81 C 51.69 32.15 54.27 32.15 56.79 31.82 C 58.37 31.22 58.39 28.84 56.85 28.19 C 54.30 27.85 51.68 27.84 49.13 28.20 M 43.24 42.25 C 42.13 42.83 41.73 44.45 42.63 45.37 C 44.25 47.19 45.94 49.03 47.98 50.40 C 50.22 50.80 51.25 47.78 49.41 46.61 C 47.54 45.05 46.01 41.83 43.24 42.25 M 9.16 44.19 C 7.23 44.93 7.90 48.14 10.01 47.93 C 17.36 48.05 24.74 48.08 32.09 47.91 C 34.60 48.11 34.54 43.80 32.03 44.08 C 24.41 44.00 16.76 43.81 9.16 44.19 M 27.95 52.00 C 28.07 54.17 27.25 58.70 30.82 57.90 C 32.72 56.58 31.74 53.94 32.05 52.00 C 30.68 52.00 29.32 52.00 27.95 52.00 Z" />
</g>
<g id="#000000ff">
<path fill="#000000" opacity="1.00" d=" M 29.13 2.11 C 32.22 1.17 32.20 5.00 32.05 6.99 C 31.92 8.64 32.54 12.01 30.02 11.93 C 27.92 12.19 27.94 9.50 27.96 8.08 C 28.22 6.13 27.24 3.45 29.13 2.11 Z" />
<path fill="#000000" opacity="1.00" d=" M 10.20 10.15 C 13.18 8.49 15.29 12.89 17.30 14.58 C 19.31 16.61 15.65 19.26 14.17 16.95 C 12.62 15.00 8.33 12.97 10.20 10.15 Z" />
<path fill="#000000" opacity="1.00" d=" M 47.22 10.12 C 48.42 8.62 50.87 10.35 50.41 12.03 C 48.88 14.23 46.91 16.13 44.78 17.75 C 43.20 18.30 41.65 16.73 42.27 15.15 C 43.70 13.28 45.40 11.61 47.22 10.12 Z" />
<path fill="#000000" opacity="1.00" d=" M 16.07 28.00 C 17.24 20.60 24.62 14.81 32.14 16.18 C 40.11 17.14 45.88 25.94 43.48 33.64 C 42.57 36.20 41.34 39.80 38.11 39.93 C 30.73 40.05 23.34 40.07 15.96 39.92 C 13.88 40.11 13.27 36.95 15.14 36.19 C 21.03 35.60 26.99 36.39 32.88 35.82 C 34.70 35.03 34.11 31.89 32.05 32.07 C 24.03 31.88 15.99 32.06 7.97 32.01 C 6.71 31.85 4.79 32.35 4.20 30.81 C 3.50 29.66 4.59 27.88 5.97 28.08 C 9.33 27.86 12.70 28.05 16.07 28.00 Z" />
<path fill="#000000" opacity="1.00" d=" M 49.13 28.20 C 51.68 27.84 54.30 27.85 56.85 28.19 C 58.39 28.84 58.37 31.22 56.79 31.82 C 54.27 32.15 51.69 32.15 49.17 31.81 C 47.63 31.19 47.63 28.85 49.13 28.20 Z" />
<path fill="#000000" opacity="1.00" d=" M 43.24 42.25 C 46.01 41.83 47.54 45.05 49.41 46.61 C 51.25 47.78 50.22 50.80 47.98 50.40 C 45.94 49.03 44.25 47.19 42.63 45.37 C 41.73 44.45 42.13 42.83 43.24 42.25 Z" />
<path fill="#000000" opacity="1.00" d=" M 9.16 44.19 C 16.76 43.81 24.41 44.00 32.03 44.08 C 34.54 43.80 34.60 48.11 32.09 47.91 C 24.74 48.08 17.36 48.05 10.01 47.93 C 7.90 48.14 7.23 44.93 9.16 44.19 Z" />
<path fill="#000000" opacity="1.00" d=" M 27.95 52.00 C 29.32 52.00 30.68 52.00 32.05 52.00 C 31.74 53.94 32.72 56.58 30.82 57.90 C 27.25 58.70 28.07 54.17 27.95 52.00 Z" />
</g>
</svg>
