<?xml version="1.0" encoding="UTF-8" ?>
<!DOCTYPE svg PUBLIC "-//W3C//DTD SVG 1.1//EN" "http://www.w3.org/Graphics/SVG/1.1/DTD/svg11.dtd">
<svg width="64pt" height="64pt" viewBox="0 0 64 64" version="1.1" xmlns="http://www.w3.org/2000/svg">
<g id="#ffffffff">
<path fill="#ffffff" opacity="1.00" d=" M 0.00 0.00 L 64.00 0.00 L 64.00 35.03 C 63.49 30.60 60.09 27.34 56.01 25.99 C 54.60 21.64 50.78 17.87 45.98 18.02 C 39.87 17.86 34.88 24.05 36.24 30.01 C 34.05 30.00 31.87 30.01 29.68 30.01 C 30.02 26.69 30.09 23.34 29.99 20.00 C 25.99 20.01 22.00 19.99 18.00 20.00 C 18.00 15.33 18.00 10.67 18.00 6.00 C 14.00 6.00 10.00 6.00 6.00 6.00 C 6.00 10.67 6.00 15.33 6.00 20.00 C 4.00 19.99 2.00 20.01 0.00 20.00 L 0.00 0.00 Z" />
<path fill="#ffffff" opacity="1.00" d=" M 10.00 10.00 C 11.33 10.00 12.67 10.00 14.00 10.00 C 14.00 16.05 13.99 22.10 14.01 28.15 C 12.67 28.15 11.33 28.15 9.99 28.15 C 10.01 22.10 10.00 16.05 10.00 10.00 Z" />
<path fill="#ffffff" opacity="1.00" d=" M 40.58 25.39 C 42.27 21.44 48.29 20.84 50.76 24.34 C 52.83 26.85 51.96 30.36 50.09 32.70 C 50.76 33.42 52.09 34.86 52.75 35.58 C 54.08 33.92 55.15 32.08 55.99 30.13 C 59.27 31.70 61.27 35.85 59.12 39.12 C 57.15 42.61 52.34 42.63 49.48 40.26 C 48.54 41.19 47.61 42.12 46.68 43.05 C 48.30 44.19 50.04 45.17 51.86 45.98 C 50.17 50.21 44.03 51.49 41.25 47.68 C 38.71 44.66 40.71 40.77 42.56 37.99 C 37.20 38.01 31.85 38.00 26.49 38.00 C 26.98 36.66 27.46 35.33 27.95 34.00 C 32.82 34.00 37.69 33.99 42.56 34.01 C 41.06 31.46 38.99 28.41 40.58 25.39 Z" />
<path fill="#ffffff" opacity="1.00" d=" M 0.00 24.00 C 2.00 23.99 4.01 24.01 6.01 24.00 C 6.10 27.96 5.67 31.97 6.30 35.90 C 7.56 40.95 15.54 41.37 17.45 36.59 C 18.55 32.51 17.81 28.18 17.99 24.00 C 20.71 24.00 23.42 24.00 26.14 24.00 C 26.01 26.09 25.89 28.21 25.11 30.18 C 22.91 36.10 20.76 42.05 18.61 47.99 C 12.41 48.00 6.20 48.00 0.00 48.00 L 0.00 24.00 Z" />
<path fill="#ffffff" opacity="1.00" d=" M 11.12 32.09 C 14.14 30.69 15.18 36.25 12.01 35.94 C 9.85 36.38 9.27 32.85 11.12 32.09 Z" />
<path fill="#ffffff" opacity="1.00" d=" M 55.77 46.06 C 59.89 44.79 63.35 41.58 64.00 37.17 L 64.00 64.00 L 0.00 64.00 L 0.00 52.00 C 7.15 51.99 14.29 52.02 21.44 51.98 C 22.61 48.64 23.83 45.32 25.04 42.00 C 28.78 42.00 32.51 42.00 36.25 41.99 C 34.87 47.96 39.91 54.19 46.05 53.97 C 50.79 54.13 54.38 50.28 55.77 46.06 Z" />
</g>
<g id="#000000ff">
<path fill="#000000" opacity="1.00" d=" M 6.00 6.00 C 10.00 6.00 14.00 6.00 18.00 6.00 C 18.00 10.67 18.00 15.33 18.00 20.00 C 22.00 19.99 25.99 20.01 29.99 20.00 C 30.09 23.34 30.02 26.69 29.68 30.01 C 31.87 30.01 34.05 30.00 36.24 30.01 C 34.88 24.05 39.87 17.86 45.98 18.02 C 50.78 17.87 54.60 21.64 56.01 25.99 C 60.09 27.34 63.49 30.60 64.00 35.03 L 64.00 37.17 C 63.35 41.58 59.89 44.79 55.77 46.06 C 54.38 50.28 50.79 54.13 46.05 53.97 C 39.91 54.19 34.87 47.96 36.25 41.99 C 32.51 42.00 28.78 42.00 25.04 42.00 C 23.83 45.32 22.61 48.64 21.44 51.98 C 14.29 52.02 7.15 51.99 0.00 52.00 L 0.00 48.00 C 6.20 48.00 12.41 48.00 18.61 47.99 C 20.76 42.05 22.91 36.10 25.11 30.18 C 25.89 28.21 26.01 26.09 26.14 24.00 C 23.42 24.00 20.71 24.00 17.99 24.00 C 17.81 28.18 18.55 32.51 17.45 36.59 C 15.54 41.37 7.56 40.95 6.30 35.90 C 5.67 31.97 6.10 27.96 6.01 24.00 C 4.01 24.01 2.00 23.99 0.00 24.00 L 0.00 20.00 C 2.00 20.01 4.00 19.99 6.00 20.00 C 6.00 15.33 6.00 10.67 6.00 6.00 M 10.00 10.00 C 10.00 16.05 10.01 22.10 9.99 28.15 C 11.33 28.15 12.67 28.15 14.01 28.15 C 13.99 22.10 14.00 16.05 14.00 10.00 C 12.67 10.00 11.33 10.00 10.00 10.00 M 40.58 25.39 C 38.99 28.41 41.06 31.46 42.56 34.01 C 37.69 33.99 32.82 34.00 27.95 34.00 C 27.46 35.33 26.98 36.66 26.49 38.00 C 31.85 38.00 37.20 38.01 42.56 37.99 C 40.71 40.77 38.71 44.66 41.25 47.68 C 44.03 51.49 50.17 50.21 51.86 45.98 C 50.04 45.17 48.30 44.19 46.68 43.05 C 47.61 42.12 48.54 41.19 49.48 40.26 C 52.34 42.63 57.15 42.61 59.12 39.12 C 61.27 35.85 59.27 31.70 55.99 30.13 C 55.15 32.08 54.08 33.92 52.75 35.58 C 52.09 34.86 50.76 33.42 50.09 32.70 C 51.96 30.36 52.83 26.85 50.76 24.34 C 48.29 20.84 42.27 21.44 40.58 25.39 M 11.12 32.09 C 9.27 32.85 9.85 36.38 12.01 35.94 C 15.18 36.25 14.14 30.69 11.12 32.09 Z" />
</g>
</svg>
