<?xml version="1.0" encoding="UTF-8" ?>
<!DOCTYPE svg PUBLIC "-//W3C//DTD SVG 1.1//EN" "http://www.w3.org/Graphics/SVG/1.1/DTD/svg11.dtd">
<svg width="60pt" height="60pt" viewBox="0 0 60 60" version="1.1" xmlns="http://www.w3.org/2000/svg">
<g id="#ffffffff">
<path fill="#ffffff" opacity="1.00" d=" M 0.00 0.00 L 60.00 0.00 L 60.00 60.00 L 0.00 60.00 L 0.00 0.00 M 8.04 11.87 C 7.97 21.96 7.97 32.05 8.04 42.14 C 7.97 44.18 9.89 45.97 11.88 45.96 C 20.95 46.06 30.01 45.97 39.08 46.00 C 41.42 46.37 44.00 44.57 43.96 42.10 C 44.12 32.06 43.87 22.00 44.06 11.96 C 43.80 9.39 48.23 9.43 47.94 11.99 C 48.08 24.66 47.96 37.33 48.00 50.00 C 36.66 50.05 25.32 49.90 13.98 50.07 C 11.45 49.81 11.39 54.09 13.92 53.93 C 25.31 54.07 36.71 54.01 48.10 53.96 C 50.57 53.99 52.37 51.42 52.00 49.07 C 51.97 36.68 52.06 24.28 51.96 11.88 C 51.98 8.36 48.18 6.22 45.07 6.00 C 34.67 6.03 24.26 5.94 13.85 6.04 C 10.76 5.98 7.97 8.78 8.04 11.87 Z" />
<path fill="#ffffff" opacity="1.00" d=" M 11.81 31.98 C 15.21 35.38 18.62 38.76 21.99 42.19 C 18.77 41.61 14.49 43.48 11.94 41.04 C 11.65 38.03 11.86 35.00 11.81 31.98 Z" />
</g>
<g id="#000000ff">
<path fill="#000000" opacity="1.00" d=" M 8.04 11.87 C 7.97 8.78 10.76 5.98 13.85 6.04 C 24.26 5.94 34.67 6.03 45.07 6.00 C 48.18 6.22 51.98 8.36 51.96 11.88 C 52.06 24.28 51.97 36.68 52.00 49.07 C 52.37 51.42 50.57 53.99 48.10 53.96 C 36.71 54.01 25.31 54.07 13.92 53.93 C 11.39 54.09 11.45 49.81 13.98 50.07 C 25.32 49.90 36.66 50.05 48.00 50.00 C 47.96 37.33 48.08 24.66 47.94 11.99 C 48.23 9.43 43.80 9.39 44.06 11.96 C 43.87 22.00 44.12 32.06 43.96 42.10 C 44.00 44.57 41.42 46.37 39.08 46.00 C 30.01 45.97 20.95 46.06 11.88 45.96 C 9.89 45.97 7.97 44.18 8.04 42.14 C 7.97 32.05 7.97 21.96 8.04 11.87 M 11.81 31.98 C 11.86 35.00 11.65 38.03 11.94 41.04 C 14.49 43.48 18.77 41.61 21.99 42.19 C 18.62 38.76 15.21 35.38 11.81 31.98 Z" />
</g>
</svg>
