<?xml version="1.0" encoding="UTF-8" ?>
<!DOCTYPE svg PUBLIC "-//W3C//DTD SVG 1.1//EN" "http://www.w3.org/Graphics/SVG/1.1/DTD/svg11.dtd">
<svg width="60pt" height="60pt" viewBox="0 0 60 60" version="1.1" xmlns="http://www.w3.org/2000/svg">
<g id="#ffffffff">
<path fill="#ffffff" opacity="1.00" d=" M 0.00 0.00 L 60.00 0.00 L 60.00 60.00 L 0.00 60.00 L 0.00 0.00 M 5.71 6.72 C 3.02 8.88 4.17 12.90 4.03 15.91 C 21.39 16.04 38.77 16.13 56.13 15.86 C 55.88 14.27 56.06 12.41 54.87 11.14 C 53.60 9.92 51.69 10.11 50.08 9.98 C 41.70 9.91 33.32 10.11 24.94 9.99 C 21.64 10.31 20.46 5.71 17.08 6.04 C 13.32 6.01 9.31 5.40 5.71 6.72 M 5.29 20.22 C 5.02 20.49 4.49 21.02 4.22 21.29 C 3.64 26.17 4.14 31.10 3.99 36.00 C 4.09 39.87 3.61 43.81 4.38 47.62 C 5.30 50.33 8.68 49.92 10.94 50.04 C 24.62 49.88 38.31 50.18 51.99 49.90 C 54.66 50.09 56.23 47.47 55.98 45.06 C 56.00 37.41 56.15 29.75 55.90 22.10 C 55.91 19.53 52.76 20.08 51.06 19.96 C 35.81 20.21 20.52 19.66 5.29 20.22 Z" />
</g>
<g id="#000000ff">
<path fill="#000000" opacity="1.00" d=" M 5.71 6.72 C 9.31 5.40 13.32 6.01 17.08 6.04 C 20.46 5.71 21.64 10.31 24.94 9.99 C 33.32 10.11 41.70 9.91 50.08 9.98 C 51.69 10.11 53.60 9.92 54.87 11.14 C 56.06 12.41 55.88 14.27 56.13 15.86 C 38.77 16.13 21.39 16.04 4.03 15.91 C 4.17 12.90 3.02 8.88 5.71 6.72 Z" />
<path fill="#000000" opacity="1.00" d=" M 5.29 20.22 C 20.52 19.66 35.81 20.21 51.06 19.96 C 52.76 20.08 55.91 19.53 55.90 22.10 C 56.15 29.75 56.00 37.41 55.98 45.06 C 56.23 47.47 54.66 50.09 51.99 49.90 C 38.31 50.18 24.62 49.88 10.94 50.04 C 8.68 49.92 5.30 50.33 4.38 47.62 C 3.61 43.81 4.09 39.87 3.99 36.00 C 4.14 31.10 3.64 26.17 4.22 21.29 C 4.49 21.02 5.02 20.49 5.29 20.22 Z" />
</g>
</svg>
