<?xml version="1.0" encoding="UTF-8" ?>
<!DOCTYPE svg PUBLIC "-//W3C//DTD SVG 1.1//EN" "http://www.w3.org/Graphics/SVG/1.1/DTD/svg11.dtd">
<svg width="60pt" height="60pt" viewBox="0 0 60 60" version="1.1" xmlns="http://www.w3.org/2000/svg">
<g id="#ffffffff">
<path fill="#ffffff" opacity="1.00" d=" M 0.00 0.00 L 60.00 0.00 L 60.00 60.00 L 0.00 60.00 L 0.00 0.00 M 10.35 8.39 C 8.60 9.16 7.78 11.13 8.00 12.96 C 8.03 24.69 7.93 36.42 8.05 48.15 C 7.97 50.22 9.94 52.01 11.96 51.96 C 16.27 51.99 20.60 52.17 24.90 51.85 C 26.31 51.07 25.90 49.34 26.02 48.02 C 25.97 35.66 26.03 23.29 25.99 10.92 C 26.15 9.70 25.64 7.85 24.07 8.06 C 19.51 8.13 14.81 7.55 10.35 8.39 M 29.13 8.08 C 27.71 8.91 28.08 10.62 27.99 11.99 C 28.03 24.37 27.97 36.74 28.01 49.11 C 27.88 50.29 28.42 52.26 29.98 51.92 C 31.59 52.27 32.13 50.25 31.99 49.04 C 31.97 36.02 32.08 22.99 31.94 9.97 C 32.07 8.44 30.44 7.68 29.13 8.08 M 35.15 8.08 C 33.72 8.85 34.07 10.56 33.99 11.91 C 34.07 24.61 33.89 37.31 34.07 50.01 C 33.97 51.58 35.59 52.30 36.92 51.89 C 38.20 51.00 37.96 49.38 38.02 48.04 C 37.93 35.34 38.10 22.64 37.93 9.95 C 38.07 8.43 36.44 7.69 35.15 8.08 M 41.13 8.13 C 39.66 8.90 40.10 10.66 39.99 12.00 C 40.06 24.68 39.90 37.36 40.06 50.04 C 39.94 52.21 42.53 52.04 44.01 52.03 C 46.83 52.11 50.94 52.49 51.87 48.98 C 52.18 36.96 51.91 24.90 52.00 12.87 C 52.24 10.84 51.07 8.57 48.96 8.13 C 46.36 7.89 43.73 7.90 41.13 8.13 Z" />
<path fill="#ffffff" opacity="1.00" d=" M 12.00 12.00 C 15.33 12.00 18.67 12.00 22.00 12.00 C 22.00 13.33 22.00 14.65 22.00 15.98 C 20.03 16.00 18.06 16.02 16.08 16.09 C 16.09 17.36 16.09 18.63 16.08 19.90 C 18.05 19.98 20.03 20.00 22.00 20.02 C 22.00 20.51 22.00 21.49 22.00 21.98 C 20.03 22.00 18.06 22.02 16.09 22.09 C 16.09 23.35 16.08 24.62 16.06 25.89 C 18.04 25.98 20.02 26.00 22.00 26.02 C 22.00 28.68 22.00 31.33 22.00 33.98 C 20.02 34.00 18.05 34.02 16.07 34.10 C 16.08 35.36 16.08 36.63 16.07 37.89 C 18.05 37.98 20.02 38.00 22.00 38.03 C 22.00 38.51 22.00 39.49 22.00 39.97 C 20.02 40.00 18.03 40.02 16.05 40.11 C 16.08 41.38 16.09 42.65 16.10 43.91 C 18.06 43.98 20.03 44.00 22.00 44.02 C 22.00 45.35 22.00 46.67 22.00 48.00 C 18.67 48.00 15.33 48.00 12.00 48.00 C 12.00 36.00 12.00 24.00 12.00 12.00 Z" />
<path fill="#ffffff" opacity="1.00" d=" M 45.15 16.11 C 47.58 15.11 49.15 18.81 46.81 19.88 C 44.40 20.86 42.88 17.23 45.15 16.11 Z" />
<path fill="#ffffff" opacity="1.00" d=" M 45.15 24.11 C 47.56 23.14 49.13 26.71 46.87 27.88 C 44.44 28.89 42.85 25.25 45.15 24.11 Z" />
<path fill="#ffffff" opacity="1.00" d=" M 45.16 32.11 C 47.58 31.14 49.13 34.75 46.85 35.88 C 44.42 36.89 42.86 33.22 45.16 32.11 Z" />
<path fill="#ffffff" opacity="1.00" d=" M 45.16 40.10 C 47.56 39.16 49.09 42.65 46.92 43.86 C 44.46 44.93 42.82 41.25 45.16 40.10 Z" />
</g>
<g id="#000000ff">
<path fill="#000000" opacity="1.00" d=" M 10.35 8.39 C 14.81 7.55 19.51 8.13 24.07 8.06 C 25.64 7.85 26.15 9.70 25.99 10.92 C 26.03 23.29 25.97 35.66 26.02 48.02 C 25.90 49.34 26.31 51.07 24.90 51.85 C 20.60 52.17 16.27 51.99 11.96 51.96 C 9.94 52.01 7.97 50.22 8.05 48.15 C 7.93 36.42 8.03 24.69 8.00 12.96 C 7.78 11.13 8.60 9.16 10.35 8.39 M 12.00 12.00 C 12.00 24.00 12.00 36.00 12.00 48.00 C 15.33 48.00 18.67 48.00 22.00 48.00 C 22.00 46.67 22.00 45.35 22.00 44.02 C 20.03 44.00 18.06 43.98 16.10 43.91 C 16.09 42.65 16.08 41.38 16.05 40.11 C 18.03 40.02 20.02 40.00 22.00 39.97 C 22.00 39.49 22.00 38.51 22.00 38.03 C 20.02 38.00 18.05 37.98 16.07 37.89 C 16.08 36.63 16.08 35.36 16.07 34.10 C 18.05 34.02 20.02 34.00 22.00 33.98 C 22.00 31.33 22.00 28.68 22.00 26.02 C 20.02 26.00 18.04 25.98 16.06 25.89 C 16.08 24.62 16.09 23.35 16.09 22.09 C 18.06 22.02 20.03 22.00 22.00 21.98 C 22.00 21.49 22.00 20.51 22.00 20.02 C 20.03 20.00 18.05 19.98 16.08 19.90 C 16.09 18.63 16.09 17.36 16.08 16.09 C 18.06 16.02 20.03 16.00 22.00 15.98 C 22.00 14.65 22.00 13.33 22.00 12.00 C 18.67 12.00 15.33 12.00 12.00 12.00 Z" />
<path fill="#000000" opacity="1.00" d=" M 29.13 8.08 C 30.44 7.68 32.07 8.44 31.94 9.97 C 32.08 22.99 31.97 36.02 31.99 49.04 C 32.13 50.25 31.59 52.27 29.98 51.92 C 28.42 52.26 27.88 50.29 28.01 49.11 C 27.97 36.74 28.03 24.37 27.99 11.99 C 28.08 10.62 27.71 8.91 29.13 8.08 Z" />
<path fill="#000000" opacity="1.00" d=" M 35.15 8.08 C 36.44 7.69 38.07 8.43 37.93 9.95 C 38.10 22.64 37.93 35.34 38.02 48.04 C 37.96 49.38 38.20 51.00 36.92 51.89 C 35.59 52.30 33.97 51.58 34.07 50.01 C 33.89 37.31 34.07 24.61 33.99 11.91 C 34.07 10.56 33.72 8.85 35.15 8.08 Z" />
<path fill="#000000" opacity="1.00" d=" M 41.13 8.13 C 43.73 7.90 46.36 7.89 48.96 8.13 C 51.07 8.57 52.24 10.84 52.00 12.87 C 51.91 24.90 52.18 36.96 51.87 48.98 C 50.94 52.49 46.83 52.11 44.01 52.03 C 42.53 52.04 39.94 52.21 40.06 50.04 C 39.90 37.36 40.06 24.68 39.99 12.00 C 40.10 10.66 39.66 8.90 41.13 8.13 M 45.15 16.11 C 42.88 17.23 44.40 20.86 46.81 19.88 C 49.15 18.81 47.58 15.11 45.15 16.11 M 45.15 24.11 C 42.85 25.25 44.44 28.89 46.87 27.88 C 49.13 26.71 47.56 23.14 45.15 24.11 M 45.16 32.11 C 42.86 33.22 44.42 36.89 46.85 35.88 C 49.13 34.75 47.58 31.14 45.16 32.11 M 45.16 40.10 C 42.82 41.25 44.46 44.93 46.92 43.86 C 49.09 42.65 47.56 39.16 45.16 40.10 Z" />
</g>
</svg>
