<?xml version="1.0" encoding="UTF-8" ?>
<!DOCTYPE svg PUBLIC "-//W3C//DTD SVG 1.1//EN" "http://www.w3.org/Graphics/SVG/1.1/DTD/svg11.dtd">
<svg width="60pt" height="60pt" viewBox="0 0 60 60" version="1.1" xmlns="http://www.w3.org/2000/svg">
<g id="#ffffffff">
<path fill="#ffffff" opacity="1.00" d=" M 0.00 0.00 L 60.00 0.00 L 60.00 60.00 L 0.00 60.00 L 0.00 0.00 M 23.07 7.15 C 19.26 16.63 25.78 28.45 35.99 29.93 C 36.00 32.50 36.00 35.08 36.02 37.66 C 37.34 39.16 38.66 40.66 39.99 42.16 C 40.01 38.08 40.00 34.01 40.00 29.93 C 48.05 28.68 54.17 21.04 53.96 12.96 C 53.77 10.66 53.89 7.83 52.05 6.13 C 43.69 5.80 35.31 6.11 26.95 5.98 C 25.68 6.17 23.63 5.53 23.07 7.15 M 11.13 30.18 C 5.20 35.99 4.73 45.63 8.23 52.84 C 8.87 54.32 10.70 53.87 11.97 54.01 C 21.99 53.94 32.02 54.10 42.04 53.93 C 43.80 54.13 44.67 51.66 43.35 50.57 C 37.93 44.36 32.31 38.33 26.86 32.15 C 25.97 31.41 25.33 30.00 24.01 30.08 C 19.72 29.96 15.40 29.83 11.13 30.18 Z" />
<path fill="#ffffff" opacity="1.00" d=" M 26.16 10.05 C 34.02 9.96 41.89 9.99 49.75 10.03 C 49.86 11.35 49.95 12.66 50.05 13.98 C 43.37 14.14 36.68 13.73 30.01 14.22 C 30.06 18.28 33.11 21.26 33.96 25.01 C 27.86 23.07 25.19 15.97 26.16 10.05 Z" />
<path fill="#ffffff" opacity="1.00" d=" M 13.81 34.01 C 16.87 34.04 19.93 33.85 22.98 34.10 C 25.05 34.75 24.09 36.98 24.48 38.54 C 25.69 40.61 28.63 40.10 30.12 41.79 C 32.63 44.48 35.02 47.29 37.53 49.99 C 34.43 50.00 31.33 50.00 28.23 50.00 C 23.40 44.69 18.62 39.34 13.81 34.01 M 26.85 43.81 C 26.67 45.97 28.67 47.20 30.62 46.77 C 32.05 44.27 28.55 43.85 26.85 43.81 Z" />
</g>
<g id="#000000ff">
<path fill="#968176" opacity="1.00" d=" M 23.07 7.15 C 23.63 5.53 25.68 6.17 26.95 5.98 C 35.31 6.11 43.69 5.80 52.05 6.13 C 53.89 7.83 53.77 10.66 53.96 12.96 C 54.17 21.04 48.05 28.68 40.00 29.93 C 40.00 34.01 40.01 38.08 39.99 42.16 C 38.66 40.66 37.34 39.16 36.02 37.66 C 36.00 35.08 36.00 32.50 35.99 29.93 C 25.78 28.45 19.26 16.63 23.07 7.15 M 26.16 10.05 C 25.19 15.97 27.86 23.07 33.96 25.01 C 33.11 21.26 30.06 18.28 30.01 14.22 C 36.68 13.73 43.37 14.14 50.05 13.98 C 49.95 12.66 49.86 11.35 49.75 10.03 C 41.89 9.99 34.02 9.96 26.16 10.05 Z" />
<path fill="#968176" opacity="1.00" d=" M 11.13 30.18 C 15.40 29.83 19.72 29.96 24.01 30.08 C 25.33 30.00 25.97 31.41 26.86 32.15 C 32.31 38.33 37.93 44.36 43.35 50.57 C 44.67 51.66 43.80 54.13 42.04 53.93 C 32.02 54.10 21.99 53.94 11.97 54.01 C 10.70 53.87 8.87 54.32 8.23 52.84 C 4.73 45.63 5.20 35.99 11.13 30.18 M 13.81 34.01 C 18.62 39.34 23.40 44.69 28.23 50.00 C 31.33 50.00 34.43 50.00 37.53 49.99 C 35.02 47.29 32.63 44.48 30.12 41.79 C 28.63 40.10 25.69 40.61 24.48 38.54 C 24.09 36.98 25.05 34.75 22.98 34.10 C 19.93 33.85 16.87 34.04 13.81 34.01 Z" />
<path fill="#968176" opacity="1.00" d=" M 26.85 43.81 C 28.55 43.85 32.05 44.27 30.62 46.77 C 28.67 47.20 26.67 45.97 26.85 43.81 Z" />
</g>
</svg>
