<?xml version="1.0" encoding="UTF-8" ?>
<!DOCTYPE svg PUBLIC "-//W3C//DTD SVG 1.1//EN" "http://www.w3.org/Graphics/SVG/1.1/DTD/svg11.dtd">
<svg width="60pt" height="60pt" viewBox="0 0 60 60" version="1.1" xmlns="http://www.w3.org/2000/svg">
<g id="#ffffffff">
<path fill="#ffffff" opacity="1.00" d=" M 0.00 0.00 L 60.00 0.00 L 60.00 60.00 L 0.00 60.00 L 0.00 0.00 M 45.43 10.58 C 41.24 12.34 40.86 18.83 44.80 21.07 C 48.53 23.67 54.18 20.54 53.99 16.02 C 54.18 11.79 49.19 8.59 45.43 10.58 M 9.22 24.06 C 7.27 25.30 8.29 27.91 7.95 29.82 C 6.45 30.06 4.10 29.89 3.97 31.98 C 5.45 35.40 6.89 38.94 9.15 41.93 C 9.57 41.93 10.40 41.93 10.82 41.93 C 13.11 38.98 14.54 35.40 16.03 31.98 C 15.89 29.90 13.55 30.06 12.05 29.82 C 11.92 27.68 12.70 23.33 9.22 24.06 M 41.97 25.04 C 39.28 28.09 38.03 32.10 35.99 35.57 C 32.35 35.10 28.76 34.07 25.08 34.11 C 23.15 34.60 22.25 36.59 21.08 38.01 C 18.90 41.47 16.14 44.56 14.19 48.16 C 13.20 50.61 16.40 53.06 18.51 51.52 C 21.76 48.55 24.36 44.96 27.37 41.75 C 31.23 43.12 34.88 45.18 38.92 45.99 C 42.05 46.16 43.62 43.12 44.75 40.71 C 46.38 37.01 48.63 33.58 49.90 29.73 C 50.85 25.50 45.23 22.21 41.97 25.04 Z" />
</g>
<g id="#000000ff">
<path fill="#000000" opacity="1.00" d=" M 45.43 10.58 C 49.19 8.59 54.18 11.79 53.99 16.02 C 54.18 20.54 48.53 23.67 44.80 21.07 C 40.86 18.83 41.24 12.34 45.43 10.58 Z" />
<path fill="#000000" opacity="1.00" d=" M 9.22 24.06 C 12.70 23.33 11.92 27.68 12.05 29.82 C 13.55 30.06 15.89 29.90 16.03 31.98 C 14.54 35.40 13.11 38.98 10.82 41.93 C 10.40 41.93 9.57 41.93 9.15 41.93 C 6.89 38.94 5.45 35.40 3.97 31.98 C 4.10 29.89 6.45 30.06 7.95 29.82 C 8.29 27.91 7.27 25.30 9.22 24.06 Z" />
<path fill="#000000" opacity="1.00" d=" M 41.97 25.04 C 45.23 22.21 50.85 25.50 49.90 29.73 C 48.63 33.58 46.38 37.01 44.75 40.71 C 43.62 43.12 42.05 46.16 38.92 45.99 C 34.88 45.18 31.23 43.12 27.37 41.75 C 24.36 44.96 21.76 48.55 18.51 51.52 C 16.40 53.06 13.20 50.61 14.19 48.16 C 16.14 44.56 18.90 41.47 21.08 38.01 C 22.25 36.59 23.15 34.60 25.08 34.11 C 28.76 34.07 32.35 35.10 35.99 35.57 C 38.03 32.10 39.28 28.09 41.97 25.04 Z" />
</g>
</svg>
