<?xml version="1.0" encoding="UTF-8" ?>
<!DOCTYPE svg PUBLIC "-//W3C//DTD SVG 1.1//EN" "http://www.w3.org/Graphics/SVG/1.1/DTD/svg11.dtd">
<svg width="64pt" height="64pt" viewBox="0 0 64 64" version="1.1" xmlns="http://www.w3.org/2000/svg">
<g id="#ffffffff">
<path fill="#ffffff" opacity="1.00" d=" M 0.00 0.00 L 64.00 0.00 L 64.00 64.00 L 0.00 64.00 L 0.00 0.00 M 10.00 10.01 C 9.98 24.67 9.99 39.33 10.00 53.99 C 24.67 54.01 39.33 54.01 53.99 54.00 C 54.01 39.33 54.01 24.67 54.00 10.00 C 52.67 10.00 51.34 10.00 50.01 10.00 C 50.00 23.34 50.00 36.67 49.99 50.01 C 38.00 49.99 26.01 49.99 14.02 50.01 C 14.00 36.67 14.01 23.33 13.99 10.00 C 12.66 10.00 11.33 10.00 10.00 10.01 M 18.00 10.00 C 18.00 11.33 18.00 12.67 18.00 14.00 C 19.33 14.00 20.67 14.00 22.00 14.00 C 22.00 12.67 22.00 11.33 22.00 10.00 C 20.67 10.00 19.33 10.00 18.00 10.00 M 26.00 10.00 C 26.00 11.33 26.00 12.67 26.00 14.00 C 27.33 14.00 28.67 14.00 30.00 14.00 C 30.00 12.67 30.00 11.33 30.00 10.00 C 28.67 10.00 27.33 10.00 26.00 10.00 M 34.00 10.00 C 34.00 11.33 34.00 12.67 34.00 14.00 C 35.33 14.00 36.67 14.00 38.00 14.00 C 38.00 12.67 38.00 11.33 38.00 10.00 C 36.67 10.00 35.33 10.00 34.00 10.00 M 42.00 10.00 C 42.00 11.33 42.00 12.67 42.00 14.00 C 43.33 14.00 44.67 14.00 46.00 14.00 C 46.00 12.67 46.00 11.33 46.00 10.00 C 44.67 10.00 43.33 10.00 42.00 10.00 M 18.00 17.99 C 18.00 19.33 18.00 20.67 18.01 22.00 C 27.34 22.00 36.67 22.00 46.00 22.01 C 46.00 20.67 46.00 19.33 45.99 18.00 C 36.66 18.00 27.33 18.00 18.00 17.99 M 18.00 25.99 C 18.00 27.33 18.00 28.66 18.00 30.00 C 24.00 30.01 30.00 29.99 36.00 30.01 C 36.00 28.67 36.00 27.33 36.00 26.00 C 30.00 25.99 24.00 26.00 18.00 25.99 M 18.00 34.00 C 18.00 38.00 18.00 42.00 18.00 46.00 C 27.33 46.00 36.67 46.00 46.00 46.00 C 46.00 42.00 46.00 38.00 46.00 34.00 C 36.67 34.00 27.33 34.00 18.00 34.00 Z" />
<path fill="#ffffff" opacity="1.00" d=" M 22.00 37.99 C 28.67 37.99 35.33 37.99 42.00 37.99 C 42.00 39.33 42.00 40.67 42.00 42.01 C 35.33 42.00 28.67 42.00 22.00 42.01 C 22.00 40.67 22.00 39.33 22.00 37.99 Z" />
</g>
<g id="#000000ff">
<path fill="#000000" opacity="1.00" d=" M 10.00 10.01 C 11.33 10.00 12.66 10.00 13.99 10.00 C 14.01 23.33 14.00 36.67 14.02 50.01 C 26.01 49.99 38.00 49.99 49.99 50.01 C 50.00 36.67 50.00 23.34 50.01 10.00 C 51.34 10.00 52.67 10.00 54.00 10.00 C 54.01 24.67 54.01 39.33 53.99 54.00 C 39.33 54.01 24.67 54.01 10.00 53.99 C 9.99 39.33 9.98 24.67 10.00 10.01 Z" />
<path fill="#000000" opacity="1.00" d=" M 18.00 10.00 C 19.33 10.00 20.67 10.00 22.00 10.00 C 22.00 11.33 22.00 12.67 22.00 14.00 C 20.67 14.00 19.33 14.00 18.00 14.00 C 18.00 12.67 18.00 11.33 18.00 10.00 Z" />
<path fill="#000000" opacity="1.00" d=" M 26.00 10.00 C 27.33 10.00 28.67 10.00 30.00 10.00 C 30.00 11.33 30.00 12.67 30.00 14.00 C 28.67 14.00 27.33 14.00 26.00 14.00 C 26.00 12.67 26.00 11.33 26.00 10.00 Z" />
<path fill="#000000" opacity="1.00" d=" M 34.00 10.00 C 35.33 10.00 36.67 10.00 38.00 10.00 C 38.00 11.33 38.00 12.67 38.00 14.00 C 36.67 14.00 35.33 14.00 34.00 14.00 C 34.00 12.67 34.00 11.33 34.00 10.00 Z" />
<path fill="#000000" opacity="1.00" d=" M 42.00 10.00 C 43.33 10.00 44.67 10.00 46.00 10.00 C 46.00 11.33 46.00 12.67 46.00 14.00 C 44.67 14.00 43.33 14.00 42.00 14.00 C 42.00 12.67 42.00 11.33 42.00 10.00 Z" />
<path fill="#000000" opacity="1.00" d=" M 18.00 17.99 C 27.33 18.00 36.66 18.00 45.99 18.00 C 46.00 19.33 46.00 20.67 46.00 22.01 C 36.67 22.00 27.34 22.00 18.01 22.00 C 18.00 20.67 18.00 19.33 18.00 17.99 Z" />
<path fill="#000000" opacity="1.00" d=" M 18.00 25.99 C 24.00 26.00 30.00 25.99 36.00 26.00 C 36.00 27.33 36.00 28.67 36.00 30.01 C 30.00 29.99 24.00 30.01 18.00 30.00 C 18.00 28.66 18.00 27.33 18.00 25.99 Z" />
<path fill="#000000" opacity="1.00" d=" M 18.00 34.00 C 27.33 34.00 36.67 34.00 46.00 34.00 C 46.00 38.00 46.00 42.00 46.00 46.00 C 36.67 46.00 27.33 46.00 18.00 46.00 C 18.00 42.00 18.00 38.00 18.00 34.00 M 22.00 37.99 C 22.00 39.33 22.00 40.67 22.00 42.01 C 28.67 42.00 35.33 42.00 42.00 42.01 C 42.00 40.67 42.00 39.33 42.00 37.99 C 35.33 37.99 28.67 37.99 22.00 37.99 Z" />
</g>
</svg>
