<?xml version="1.0" encoding="UTF-8" ?>
<!DOCTYPE svg PUBLIC "-//W3C//DTD SVG 1.1//EN" "http://www.w3.org/Graphics/SVG/1.1/DTD/svg11.dtd">
<svg width="60pt" height="60pt" viewBox="0 0 60 60" version="1.1" xmlns="http://www.w3.org/2000/svg">
<g id="#ffffffff">
<path fill="#ffffff" opacity="1.00" d=" M 0.00 0.00 L 60.00 0.00 L 60.00 60.00 L 0.00 60.00 L 0.00 0.00 M 17.18 6.10 C 14.86 7.10 16.39 10.91 18.73 9.83 C 21.22 8.97 19.56 5.07 17.18 6.10 M 27.92 6.01 C 29.26 14.76 31.84 23.25 33.63 31.90 C 34.14 34.12 34.18 36.68 32.65 38.53 C 30.54 41.27 27.01 42.04 23.93 43.14 C 21.34 43.95 19.20 45.67 16.78 46.82 C 14.52 47.64 12.14 48.08 9.87 48.87 C 9.99 49.58 10.22 50.99 10.34 51.70 C 11.78 54.55 15.47 54.13 17.98 53.18 C 23.55 54.88 29.39 53.56 35.04 53.07 C 39.77 52.72 44.65 55.09 49.25 53.31 C 53.03 51.33 52.10 46.38 51.03 43.04 C 46.82 31.14 48.27 18.36 48.00 6.00 C 41.31 6.01 34.62 5.98 27.92 6.01 M 19.34 14.41 C 11.37 18.12 7.45 28.00 9.76 36.32 C 10.35 38.05 10.67 40.93 13.14 40.71 C 15.66 39.73 14.12 37.26 13.74 35.46 C 12.15 30.08 13.85 23.79 18.09 20.07 C 19.49 18.80 21.46 18.17 22.59 16.63 C 23.24 14.75 20.88 13.18 19.34 14.41 M 22.28 22.36 C 20.25 23.27 21.87 26.85 23.85 25.85 C 26.89 25.34 24.62 20.50 22.28 22.36 M 25.19 30.16 C 22.78 31.10 24.48 34.97 26.79 33.83 C 29.23 32.91 27.52 29.04 25.19 30.16 M 18.47 33.50 C 16.27 34.47 17.66 38.13 19.99 37.24 C 22.58 36.40 20.90 32.29 18.47 33.50 M 5.23 40.09 C 2.81 41.12 4.43 44.91 6.85 43.88 C 9.10 42.77 7.63 39.21 5.23 40.09 Z" />
</g>
<g id="#000000ff">
<path fill="#968176" opacity="1.00" d=" M 17.18 6.10 C 19.56 5.07 21.22 8.97 18.73 9.83 C 16.39 10.91 14.86 7.10 17.18 6.10 Z" />
<path fill="#968176" opacity="1.00" d=" M 27.92 6.01 C 34.62 5.98 41.31 6.01 48.00 6.00 C 48.27 18.36 46.82 31.14 51.03 43.04 C 52.10 46.38 53.03 51.33 49.25 53.31 C 44.65 55.09 39.77 52.72 35.04 53.07 C 29.39 53.56 23.55 54.88 17.98 53.18 C 15.47 54.13 11.78 54.55 10.34 51.70 C 10.22 50.99 9.99 49.58 9.87 48.87 C 12.14 48.08 14.52 47.64 16.78 46.82 C 19.20 45.67 21.34 43.95 23.93 43.14 C 27.01 42.04 30.54 41.27 32.65 38.53 C 34.18 36.68 34.14 34.12 33.63 31.90 C 31.84 23.25 29.26 14.76 27.92 6.01 Z" />
<path fill="#968176" opacity="1.00" d=" M 19.34 14.41 C 20.88 13.18 23.24 14.75 22.59 16.63 C 21.46 18.17 19.49 18.80 18.09 20.07 C 13.85 23.79 12.15 30.08 13.74 35.46 C 14.12 37.26 15.66 39.73 13.14 40.71 C 10.67 40.93 10.35 38.05 9.76 36.32 C 7.45 28.00 11.37 18.12 19.34 14.41 Z" />
<path fill="#968176" opacity="1.00" d=" M 22.28 22.36 C 24.62 20.50 26.89 25.34 23.85 25.85 C 21.87 26.85 20.25 23.27 22.28 22.36 Z" />
<path fill="#968176" opacity="1.00" d=" M 25.19 30.16 C 27.52 29.04 29.23 32.91 26.79 33.83 C 24.48 34.97 22.78 31.10 25.19 30.16 Z" />
<path fill="#968176" opacity="1.00" d=" M 18.47 33.50 C 20.90 32.29 22.58 36.40 19.99 37.24 C 17.66 38.13 16.27 34.47 18.47 33.50 Z" />
<path fill="#968176" opacity="1.00" d=" M 5.23 40.09 C 7.63 39.21 9.10 42.77 6.85 43.88 C 4.43 44.91 2.81 41.12 5.23 40.09 Z" />
</g>
</svg>
