<?xml version="1.0" encoding="UTF-8" ?>
<!DOCTYPE svg PUBLIC "-//W3C//DTD SVG 1.1//EN" "http://www.w3.org/Graphics/SVG/1.1/DTD/svg11.dtd">
<svg width="64pt" height="64pt" viewBox="0 0 64 64" version="1.1" xmlns="http://www.w3.org/2000/svg">
<g id="#ffffffff">
<path fill="#ffffff" opacity="1.00" d=" M 0.00 0.00 L 64.00 0.00 L 64.00 64.00 L 0.00 64.00 L 0.00 0.00 M 17.27 6.18 C 14.77 6.91 16.43 10.98 18.70 9.83 C 21.25 9.12 19.56 4.98 17.27 6.18 M 23.87 6.00 C 26.44 13.22 29.10 20.41 31.60 27.65 C 32.67 31.06 33.91 34.50 33.97 38.11 C 33.99 41.22 31.31 43.50 28.55 44.38 C 22.37 46.53 16.18 48.67 9.89 50.49 C 10.02 52.75 10.22 55.34 12.27 56.76 C 14.57 58.66 17.73 58.00 20.16 56.73 C 25.26 59.22 30.69 57.02 35.88 56.19 C 40.07 55.31 43.90 57.85 48.02 57.98 C 51.14 57.95 54.55 56.13 55.35 52.93 C 56.30 49.42 54.19 46.17 52.84 43.09 C 50.25 37.80 50.14 31.77 50.02 26.00 C 49.97 19.33 50.02 12.67 50.00 6.00 C 48.67 6.00 47.33 6.00 46.00 6.00 C 46.21 16.16 45.45 26.38 46.71 36.49 C 47.23 41.36 49.81 45.57 51.45 50.07 C 52.29 52.29 50.03 54.22 47.93 53.97 C 43.57 53.33 39.32 51.18 34.82 52.30 C 30.00 53.03 24.18 55.81 20.15 51.57 C 25.40 49.12 32.08 48.82 35.92 44.01 C 38.97 40.30 38.02 35.21 36.80 30.98 C 34.31 22.52 31.00 14.33 28.13 6.00 C 26.71 6.00 25.29 6.00 23.87 6.00 M 19.18 12.18 C 16.79 13.06 18.46 16.94 20.72 15.83 C 23.26 15.06 21.53 10.95 19.18 12.18 M 21.25 18.16 C 18.77 18.95 20.43 22.96 22.71 21.83 C 25.24 21.09 23.57 17.00 21.25 18.16 M 20.51 24.70 C 12.97 26.96 9.62 37.26 14.60 43.42 C 15.79 44.70 18.00 43.71 17.99 42.02 C 17.52 40.61 16.81 39.29 16.39 37.87 C 15.50 33.88 18.10 29.34 22.15 28.44 C 23.85 28.02 26.74 27.63 25.88 25.14 C 24.69 23.24 22.23 24.26 20.51 24.70 M 25.20 30.17 C 22.82 31.14 24.42 34.86 26.78 33.90 C 29.18 32.91 27.59 29.05 25.20 30.17 M 27.19 36.13 C 24.84 37.16 26.40 40.86 28.80 39.89 C 31.15 38.86 29.61 35.12 27.19 36.13 M 21.25 38.09 C 18.83 38.99 20.37 42.91 22.71 41.83 C 25.20 41.03 23.62 37.10 21.25 38.09 M 9.25 42.18 C 6.73 42.95 8.50 47.05 10.75 45.81 C 13.26 45.04 11.51 40.97 9.25 42.18 Z" />
<path fill="#ffffff" opacity="1.00" d=" M 14.73 54.01 C 14.71 52.39 17.48 51.79 18.77 52.24 C 18.79 53.85 16.03 54.72 14.73 54.01 Z" />
</g>
<g id="#000000ff">
<path fill="#000000" opacity="1.00" d=" M 17.27 6.18 C 19.56 4.98 21.25 9.12 18.70 9.83 C 16.43 10.98 14.77 6.91 17.27 6.18 Z" />
<path fill="#000000" opacity="1.00" d=" M 23.87 6.00 C 25.29 6.00 26.71 6.00 28.13 6.00 C 31.00 14.33 34.31 22.52 36.80 30.98 C 38.02 35.21 38.97 40.30 35.92 44.01 C 32.08 48.82 25.40 49.12 20.15 51.57 C 24.18 55.81 30.00 53.03 34.82 52.30 C 39.32 51.18 43.57 53.33 47.93 53.97 C 50.03 54.22 52.29 52.29 51.45 50.07 C 49.81 45.57 47.23 41.36 46.71 36.49 C 45.45 26.38 46.21 16.16 46.00 6.00 C 47.33 6.00 48.67 6.00 50.00 6.00 C 50.02 12.67 49.97 19.33 50.02 26.00 C 50.14 31.77 50.25 37.80 52.84 43.09 C 54.19 46.17 56.30 49.42 55.35 52.93 C 54.55 56.13 51.14 57.95 48.02 57.98 C 43.90 57.85 40.07 55.31 35.88 56.19 C 30.69 57.02 25.26 59.22 20.16 56.73 C 17.73 58.00 14.57 58.66 12.27 56.76 C 10.22 55.34 10.02 52.75 9.89 50.49 C 16.18 48.67 22.37 46.53 28.55 44.38 C 31.31 43.50 33.99 41.22 33.97 38.11 C 33.91 34.50 32.67 31.06 31.60 27.65 C 29.10 20.41 26.44 13.22 23.87 6.00 M 14.73 54.01 C 16.03 54.72 18.79 53.85 18.77 52.24 C 17.48 51.79 14.71 52.39 14.73 54.01 Z" />
<path fill="#000000" opacity="1.00" d=" M 19.18 12.18 C 21.53 10.95 23.26 15.06 20.72 15.83 C 18.46 16.94 16.79 13.06 19.18 12.18 Z" />
<path fill="#000000" opacity="1.00" d=" M 21.25 18.16 C 23.57 17.00 25.24 21.09 22.71 21.83 C 20.43 22.96 18.77 18.95 21.25 18.16 Z" />
<path fill="#000000" opacity="1.00" d=" M 20.51 24.70 C 22.23 24.26 24.69 23.24 25.88 25.14 C 26.74 27.63 23.85 28.02 22.15 28.44 C 18.10 29.34 15.50 33.88 16.39 37.87 C 16.81 39.29 17.52 40.61 17.99 42.02 C 18.00 43.71 15.79 44.70 14.60 43.42 C 9.62 37.26 12.97 26.96 20.51 24.70 Z" />
<path fill="#000000" opacity="1.00" d=" M 25.20 30.17 C 27.59 29.05 29.18 32.91 26.78 33.90 C 24.42 34.86 22.82 31.14 25.20 30.17 Z" />
<path fill="#000000" opacity="1.00" d=" M 27.19 36.13 C 29.61 35.12 31.15 38.86 28.80 39.89 C 26.40 40.86 24.84 37.16 27.19 36.13 Z" />
<path fill="#000000" opacity="1.00" d=" M 21.25 38.09 C 23.62 37.10 25.20 41.03 22.71 41.83 C 20.37 42.91 18.83 38.99 21.25 38.09 Z" />
<path fill="#000000" opacity="1.00" d=" M 9.25 42.18 C 11.51 40.97 13.26 45.04 10.75 45.81 C 8.50 47.05 6.73 42.95 9.25 42.18 Z" />
</g>
</svg>
