<?xml version="1.0" encoding="UTF-8" ?>
<!DOCTYPE svg PUBLIC "-//W3C//DTD SVG 1.1//EN" "http://www.w3.org/Graphics/SVG/1.1/DTD/svg11.dtd">
<svg width="64pt" height="64pt" viewBox="0 0 64 64" version="1.1" xmlns="http://www.w3.org/2000/svg">
<g id="#ffffffff">
<path fill="#ffffff" opacity="1.00" d=" M 0.00 0.00 L 64.00 0.00 L 64.00 64.00 L 0.00 64.00 L 0.00 0.00 M 19.18 22.00 C 16.12 22.00 13.06 22.00 10.00 22.00 C 10.00 28.67 10.00 35.33 10.00 42.00 C 13.05 42.00 16.11 42.00 19.16 41.99 C 24.12 46.92 29.06 51.87 34.00 56.82 C 34.00 40.27 34.00 23.73 34.00 7.18 C 29.06 12.13 24.12 17.06 19.18 22.00 M 44.01 22.00 C 44.01 22.50 43.99 23.50 43.99 24.00 C 41.99 24.00 40.00 24.00 38.00 24.00 C 38.00 25.33 38.00 26.67 38.00 28.00 C 41.33 27.98 44.66 28.00 47.99 28.04 C 47.51 30.54 46.77 32.99 45.74 35.33 C 44.20 33.74 42.85 31.96 41.79 30.01 C 40.46 30.01 39.12 30.02 37.78 30.03 C 38.39 33.46 40.71 36.09 43.12 38.43 C 41.46 39.17 39.76 39.78 38.00 40.21 C 38.00 41.53 38.01 42.85 38.02 44.17 C 41.12 43.82 43.93 42.46 46.33 40.52 C 48.18 41.18 50.05 41.75 51.96 42.18 C 51.98 40.82 52.00 39.45 52.01 38.09 C 51.30 37.90 49.89 37.51 49.18 37.32 C 50.63 34.44 51.36 31.31 52.02 28.18 C 52.52 28.09 53.51 27.92 54.00 27.84 C 54.00 26.56 54.00 25.28 54.00 24.00 C 52.00 24.00 50.01 24.00 48.01 24.00 C 48.01 23.50 47.99 22.50 47.99 22.00 C 46.66 22.00 45.34 22.00 44.01 22.00 Z" />
<path fill="#ffffff" opacity="1.00" d=" M 20.84 26.00 C 23.89 22.95 26.94 19.90 30.00 16.85 C 30.00 26.95 30.00 37.04 30.00 47.14 C 26.94 44.10 23.87 41.06 20.83 38.00 C 18.55 38.00 16.28 38.00 14.00 38.00 C 14.00 34.00 14.00 30.00 14.00 26.00 C 16.28 26.00 18.56 26.00 20.84 26.00 Z" />
</g>
<g id="#000000ff">
<path fill="#000000" opacity="1.00" d=" M 19.18 22.00 C 24.12 17.06 29.06 12.13 34.00 7.18 C 34.00 23.73 34.00 40.27 34.00 56.82 C 29.06 51.87 24.12 46.92 19.16 41.99 C 16.11 42.00 13.05 42.00 10.00 42.00 C 10.00 35.33 10.00 28.67 10.00 22.00 C 13.06 22.00 16.12 22.00 19.18 22.00 M 20.84 26.00 C 18.56 26.00 16.28 26.00 14.00 26.00 C 14.00 30.00 14.00 34.00 14.00 38.00 C 16.28 38.00 18.55 38.00 20.83 38.00 C 23.87 41.06 26.94 44.10 30.00 47.14 C 30.00 37.04 30.00 26.95 30.00 16.85 C 26.94 19.90 23.89 22.95 20.84 26.00 Z" />
<path fill="#000000" opacity="1.00" d=" M 44.01 22.00 C 45.34 22.00 46.66 22.00 47.99 22.00 C 47.99 22.50 48.01 23.50 48.01 24.00 C 50.01 24.00 52.00 24.00 54.00 24.00 C 54.00 25.28 54.00 26.56 54.00 27.84 C 53.51 27.92 52.52 28.09 52.02 28.18 C 51.36 31.31 50.63 34.44 49.18 37.32 C 49.89 37.51 51.30 37.90 52.01 38.09 C 52.00 39.45 51.98 40.82 51.96 42.18 C 50.05 41.75 48.18 41.18 46.33 40.52 C 43.93 42.46 41.12 43.82 38.02 44.17 C 38.01 42.85 38.00 41.53 38.00 40.21 C 39.76 39.78 41.46 39.17 43.12 38.43 C 40.71 36.09 38.39 33.46 37.78 30.03 C 39.12 30.02 40.46 30.01 41.79 30.01 C 42.85 31.96 44.20 33.74 45.74 35.33 C 46.77 32.99 47.51 30.54 47.99 28.04 C 44.66 28.00 41.33 27.98 38.00 28.00 C 38.00 26.67 38.00 25.33 38.00 24.00 C 40.00 24.00 41.99 24.00 43.99 24.00 C 43.99 23.50 44.01 22.50 44.01 22.00 Z" />
</g>
</svg>
