<?xml version="1.0" encoding="UTF-8" ?>
<!DOCTYPE svg PUBLIC "-//W3C//DTD SVG 1.1//EN" "http://www.w3.org/Graphics/SVG/1.1/DTD/svg11.dtd">
<svg width="64pt" height="64pt" viewBox="0 0 64 64" version="1.1" xmlns="http://www.w3.org/2000/svg">
<g id="#ffffffff">
<path fill="#ffffff" opacity="1.00" d=" M 0.00 0.00 L 64.00 0.00 L 64.00 64.00 L 0.00 64.00 L 0.00 0.00 M 21.64 10.65 C 17.63 14.71 17.86 20.73 18.00 26.00 C 16.00 26.00 14.00 26.00 12.00 26.00 C 12.00 36.67 12.00 47.33 12.00 58.00 C 25.33 58.00 38.67 58.00 52.00 58.00 C 52.00 47.33 52.00 36.67 52.00 26.00 C 50.00 26.00 48.00 26.00 46.00 26.00 C 46.09 20.95 46.41 15.27 42.83 11.20 C 37.83 4.63 26.97 4.34 21.64 10.65 Z" />
<path fill="#ffffff" opacity="1.00" d=" M 24.47 13.43 C 28.17 8.93 35.83 8.92 39.53 13.44 C 42.69 16.83 41.94 21.76 42.00 26.00 C 35.33 26.00 28.67 26.00 22.00 26.00 C 22.06 21.76 21.30 16.83 24.47 13.43 Z" />
<path fill="#ffffff" opacity="1.00" d=" M 16.00 30.00 C 26.67 30.00 37.33 30.00 48.00 30.00 C 48.00 38.00 48.00 46.00 48.00 54.00 C 37.33 54.00 26.67 54.00 16.00 54.00 C 16.00 46.00 16.00 38.00 16.00 30.00 M 25.77 37.97 C 27.06 37.98 28.35 37.99 29.64 37.98 C 30.32 36.19 32.81 35.11 33.89 37.18 C 34.71 39.71 31.81 40.17 30.00 40.15 C 30.00 42.10 30.00 44.05 30.00 46.00 C 31.27 46.00 32.55 46.00 33.82 46.00 C 33.39 43.02 36.93 42.44 37.63 39.96 C 39.35 35.87 35.16 31.08 30.88 32.11 C 27.97 32.56 26.30 35.30 25.77 37.97 M 30.00 48.00 C 30.00 49.33 30.00 50.67 30.00 52.00 C 31.33 52.00 32.67 52.00 34.00 52.00 C 34.00 50.67 34.00 49.33 34.00 48.00 C 32.67 48.00 31.33 48.00 30.00 48.00 Z" />
</g>
<g id="#000000ff">
<path fill="#000000" opacity="1.00" d=" M 21.64 10.65 C 26.97 4.34 37.83 4.63 42.83 11.20 C 46.41 15.27 46.09 20.95 46.00 26.00 C 48.00 26.00 50.00 26.00 52.00 26.00 C 52.00 36.67 52.00 47.33 52.00 58.00 C 38.67 58.00 25.33 58.00 12.00 58.00 C 12.00 47.33 12.00 36.67 12.00 26.00 C 14.00 26.00 16.00 26.00 18.00 26.00 C 17.86 20.73 17.63 14.71 21.64 10.65 M 24.47 13.43 C 21.30 16.83 22.06 21.76 22.00 26.00 C 28.67 26.00 35.33 26.00 42.00 26.00 C 41.94 21.76 42.69 16.83 39.53 13.44 C 35.83 8.92 28.17 8.93 24.47 13.43 M 16.00 30.00 C 16.00 38.00 16.00 46.00 16.00 54.00 C 26.67 54.00 37.33 54.00 48.00 54.00 C 48.00 46.00 48.00 38.00 48.00 30.00 C 37.33 30.00 26.67 30.00 16.00 30.00 Z" />
<path fill="#000000" opacity="1.00" d=" M 25.77 37.97 C 26.30 35.30 27.97 32.56 30.88 32.11 C 35.16 31.08 39.35 35.87 37.63 39.96 C 36.93 42.44 33.39 43.02 33.82 46.00 C 32.55 46.00 31.27 46.00 30.00 46.00 C 30.00 44.05 30.00 42.10 30.00 40.15 C 31.81 40.17 34.71 39.71 33.89 37.18 C 32.81 35.11 30.32 36.19 29.64 37.98 C 28.35 37.99 27.06 37.98 25.77 37.97 Z" />
<path fill="#000000" opacity="1.00" d=" M 30.00 48.00 C 31.33 48.00 32.67 48.00 34.00 48.00 C 34.00 49.33 34.00 50.67 34.00 52.00 C 32.67 52.00 31.33 52.00 30.00 52.00 C 30.00 50.67 30.00 49.33 30.00 48.00 Z" />
</g>
</svg>
