<?xml version="1.0" encoding="UTF-8" ?>
<!DOCTYPE svg PUBLIC "-//W3C//DTD SVG 1.1//EN" "http://www.w3.org/Graphics/SVG/1.1/DTD/svg11.dtd">
<svg width="64pt" height="64pt" viewBox="0 0 64 64" version="1.1" xmlns="http://www.w3.org/2000/svg">
<g id="#ffffffff">
<path fill="#ffffff" opacity="1.00" d=" M 0.00 0.00 L 64.00 0.00 L 64.00 64.00 L 0.00 64.00 L 0.00 0.00 M 23.53 9.56 C 18.45 14.36 19.12 23.12 24.50 27.44 C 16.42 30.75 11.34 39.34 11.93 48.00 C 13.95 48.00 15.98 48.00 18.00 48.00 C 18.00 51.33 18.00 54.67 18.00 58.00 C 19.33 58.00 20.67 58.00 22.00 58.00 C 22.03 54.53 21.93 51.05 22.04 47.58 C 24.48 50.77 27.60 54.22 32.01 53.98 C 36.42 54.22 39.51 50.76 41.96 47.58 C 42.07 51.05 41.97 54.53 42.00 58.00 C 43.33 58.00 44.67 58.00 46.00 58.00 C 46.00 54.67 46.00 51.33 46.00 48.00 C 48.02 48.00 50.05 48.00 52.07 48.00 C 52.64 39.35 47.59 30.75 39.50 27.45 C 44.23 23.57 45.50 16.18 41.81 11.18 C 37.91 5.10 28.45 4.32 23.53 9.56 Z" />
<path fill="#ffffff" opacity="1.00" d=" M 29.36 10.45 C 34.71 8.32 40.95 13.42 39.91 19.08 C 39.40 24.82 31.95 28.05 27.39 24.53 C 22.13 21.19 23.36 12.20 29.36 10.45 Z" />
<path fill="#ffffff" opacity="1.00" d=" M 21.86 33.81 C 27.40 28.80 36.61 28.82 42.16 33.80 C 45.25 36.35 46.89 40.14 47.71 43.97 C 43.14 44.02 38.57 43.99 34.00 44.00 C 34.00 45.30 34.00 46.60 34.00 47.90 C 34.65 48.01 35.94 48.22 36.59 48.33 C 33.82 50.38 30.18 50.38 27.41 48.33 C 28.05 48.22 29.35 48.01 30.00 47.90 C 30.00 46.60 30.00 45.30 30.00 44.00 C 25.43 43.99 20.86 44.02 16.29 43.97 C 17.11 40.14 18.74 36.33 21.86 33.81 M 22.03 41.92 C 23.42 41.97 24.82 42.00 26.22 42.00 C 27.48 39.93 29.37 37.86 32.02 37.99 C 34.72 37.87 36.52 40.06 37.90 42.05 C 39.26 42.01 40.61 41.96 41.97 41.90 C 40.63 37.57 36.77 33.89 32.04 34.02 C 27.27 33.84 23.34 37.55 22.03 41.92 Z" />
</g>
<g id="#000000ff">
<path fill="#000000" opacity="1.00" d=" M 23.53 9.56 C 28.45 4.32 37.91 5.10 41.81 11.18 C 45.50 16.18 44.23 23.57 39.50 27.45 C 47.59 30.75 52.64 39.35 52.07 48.00 C 50.05 48.00 48.02 48.00 46.00 48.00 C 46.00 51.33 46.00 54.67 46.00 58.00 C 44.67 58.00 43.33 58.00 42.00 58.00 C 41.97 54.53 42.07 51.05 41.96 47.58 C 39.51 50.76 36.42 54.22 32.01 53.98 C 27.60 54.22 24.48 50.77 22.04 47.58 C 21.93 51.05 22.03 54.53 22.00 58.00 C 20.67 58.00 19.33 58.00 18.00 58.00 C 18.00 54.67 18.00 51.33 18.00 48.00 C 15.98 48.00 13.95 48.00 11.93 48.00 C 11.34 39.34 16.42 30.75 24.50 27.44 C 19.12 23.12 18.45 14.36 23.53 9.56 M 29.36 10.45 C 23.36 12.20 22.13 21.19 27.39 24.53 C 31.95 28.05 39.40 24.82 39.91 19.08 C 40.95 13.42 34.71 8.32 29.36 10.45 M 21.86 33.81 C 18.74 36.33 17.11 40.14 16.29 43.97 C 20.86 44.02 25.43 43.99 30.00 44.00 C 30.00 45.30 30.00 46.60 30.00 47.90 C 29.35 48.01 28.05 48.22 27.41 48.33 C 30.18 50.38 33.82 50.38 36.59 48.33 C 35.94 48.22 34.65 48.01 34.00 47.90 C 34.00 46.60 34.00 45.30 34.00 44.00 C 38.57 43.99 43.14 44.02 47.71 43.97 C 46.89 40.14 45.25 36.35 42.16 33.80 C 36.61 28.82 27.40 28.80 21.86 33.81 Z" />
<path fill="#000000" opacity="1.00" d=" M 22.03 41.92 C 23.34 37.55 27.27 33.84 32.04 34.02 C 36.77 33.89 40.63 37.57 41.97 41.90 C 40.61 41.96 39.26 42.01 37.90 42.05 C 36.52 40.06 34.72 37.87 32.02 37.99 C 29.37 37.86 27.48 39.93 26.22 42.00 C 24.82 42.00 23.42 41.97 22.03 41.92 Z" />
</g>
</svg>
