<?xml version="1.0" encoding="UTF-8" ?>
<!DOCTYPE svg PUBLIC "-//W3C//DTD SVG 1.1//EN" "http://www.w3.org/Graphics/SVG/1.1/DTD/svg11.dtd">
<svg width="60pt" height="60pt" viewBox="0 0 60 60" version="1.1" xmlns="http://www.w3.org/2000/svg">
<g id="#ffffffff">
<path fill="#ffffff" opacity="1.00" d=" M 0.00 0.00 L 60.00 0.00 L 60.00 60.00 L 0.00 60.00 L 0.00 0.00 M 38.14 9.18 C 37.85 12.11 38.03 15.06 38.00 18.00 C 30.49 18.33 22.72 19.95 16.56 24.50 C 8.47 30.25 4.13 40.25 4.05 50.02 C 3.79 52.01 7.01 52.78 7.72 50.90 C 8.35 46.52 9.78 42.12 12.98 38.92 C 19.37 32.17 29.10 30.37 38.00 30.01 C 38.04 32.98 37.83 35.96 38.17 38.91 C 38.95 40.42 41.02 40.20 41.90 38.92 C 46.40 34.41 50.98 29.96 55.39 25.37 C 56.45 24.46 55.94 22.86 54.95 22.14 C 50.42 17.61 45.96 13.00 41.34 8.57 C 40.44 7.57 38.65 7.94 38.14 9.18 Z" />
</g>
<g id="#000000ff">
<path fill="#968176" opacity="1.00" d=" M 38.14 9.18 C 38.65 7.94 40.44 7.57 41.34 8.57 C 45.96 13.00 50.42 17.61 54.95 22.14 C 55.94 22.86 56.45 24.46 55.39 25.37 C 50.98 29.96 46.40 34.41 41.90 38.92 C 41.02 40.20 38.95 40.42 38.17 38.91 C 37.83 35.96 38.04 32.98 38.00 30.01 C 29.10 30.37 19.37 32.17 12.98 38.92 C 9.78 42.12 8.35 46.52 7.72 50.90 C 7.01 52.78 3.79 52.01 4.05 50.02 C 4.13 40.25 8.47 30.25 16.56 24.50 C 22.72 19.95 30.49 18.33 38.00 18.00 C 38.03 15.06 37.85 12.11 38.14 9.18 Z" />
</g>
</svg>
