<?xml version="1.0" encoding="UTF-8" ?>
<!DOCTYPE svg PUBLIC "-//W3C//DTD SVG 1.1//EN" "http://www.w3.org/Graphics/SVG/1.1/DTD/svg11.dtd">
<svg width="64pt" height="64pt" viewBox="0 0 64 64" version="1.1" xmlns="http://www.w3.org/2000/svg">
<g id="#ffffffff">
<path fill="#ffffff" opacity="1.00" d=" M 0.00 0.00 L 64.00 0.00 L 64.00 64.00 L 0.00 64.00 L 0.00 0.00 M 24.43 14.58 C 17.44 16.27 11.83 21.02 6.03 24.99 C 8.90 31.97 11.92 38.89 14.68 45.92 C 19.16 45.41 23.59 44.50 27.95 43.35 C 33.95 41.81 38.79 37.78 43.92 34.54 C 44.09 38.41 43.90 42.28 44.04 46.15 C 43.95 49.32 46.88 52.05 50.01 52.00 C 53.15 52.04 56.06 49.32 55.95 46.12 C 55.93 42.10 56.37 38.00 55.61 34.04 C 53.93 28.60 47.85 26.54 42.72 26.04 C 40.74 21.42 38.84 16.75 36.88 12.12 C 32.71 12.82 28.53 13.52 24.43 14.58 Z" />
<path fill="#ffffff" opacity="1.00" d=" M 21.47 19.73 C 25.67 18.26 30.03 17.34 34.41 16.58 C 36.53 21.64 38.65 26.70 40.74 31.77 C 37.13 34.35 33.40 36.77 29.43 38.76 C 26.73 32.44 24.12 26.08 21.47 19.73 Z" />
<path fill="#ffffff" opacity="1.00" d=" M 10.94 26.36 C 13.22 24.75 15.59 23.26 18.01 21.86 C 20.50 27.81 22.99 33.77 25.46 39.73 C 22.84 40.42 20.21 41.13 17.53 41.49 C 14.86 36.72 13.21 31.36 10.94 26.36 Z" />
<path fill="#ffffff" opacity="1.00" d=" M 45.29 30.62 C 47.66 31.64 50.83 32.26 51.80 35.03 C 52.15 38.95 52.13 42.93 51.82 46.85 C 51.36 48.80 47.69 48.26 48.08 46.11 C 47.34 40.95 49.77 34.59 45.29 30.62 Z" />
</g>
<g id="#000000ff">
<path fill="#000000" opacity="1.00" d=" M 24.43 14.58 C 28.53 13.52 32.71 12.82 36.88 12.12 C 38.84 16.75 40.74 21.42 42.72 26.04 C 47.85 26.54 53.93 28.60 55.61 34.04 C 56.37 38.00 55.93 42.10 55.95 46.12 C 56.06 49.32 53.15 52.04 50.01 52.00 C 46.88 52.05 43.95 49.32 44.04 46.15 C 43.90 42.28 44.09 38.41 43.92 34.54 C 38.79 37.78 33.95 41.81 27.95 43.35 C 23.59 44.50 19.16 45.41 14.68 45.92 C 11.92 38.89 8.90 31.97 6.03 24.99 C 11.83 21.02 17.44 16.27 24.43 14.58 M 21.47 19.73 C 24.12 26.08 26.73 32.44 29.43 38.76 C 33.40 36.77 37.13 34.35 40.74 31.77 C 38.65 26.70 36.53 21.64 34.41 16.58 C 30.03 17.34 25.67 18.26 21.47 19.73 M 10.94 26.36 C 13.21 31.36 14.86 36.72 17.53 41.49 C 20.21 41.13 22.84 40.42 25.46 39.73 C 22.99 33.77 20.50 27.81 18.01 21.86 C 15.59 23.26 13.22 24.75 10.94 26.36 M 45.29 30.62 C 49.77 34.59 47.34 40.95 48.08 46.11 C 47.69 48.26 51.36 48.80 51.82 46.85 C 52.13 42.93 52.15 38.95 51.80 35.03 C 50.83 32.26 47.66 31.64 45.29 30.62 Z" />
</g>
</svg>
