<?xml version="1.0" encoding="UTF-8" ?>
<!DOCTYPE svg PUBLIC "-//W3C//DTD SVG 1.1//EN" "http://www.w3.org/Graphics/SVG/1.1/DTD/svg11.dtd">
<svg width="200pt" height="200pt" viewBox="0 0 200 200" version="1.1" xmlns="http://www.w3.org/2000/svg">
<g id="#ffffffff">
<path fill="#ffffff" opacity="1.00" d=" M 0.00 0.00 L 200.00 0.00 L 200.00 98.67 C 199.53 94.19 197.66 89.85 194.36 86.74 C 184.62 77.28 172.91 69.87 160.20 65.06 C 152.27 80.99 151.41 99.56 154.64 116.82 C 155.81 123.05 157.78 129.10 160.35 134.88 C 173.17 129.94 185.05 122.45 194.81 112.76 C 197.83 109.77 199.44 105.67 200.00 101.52 L 200.00 200.00 L 0.00 200.00 L 0.00 102.29 C 1.10 109.63 1.32 119.49 9.08 123.14 C 15.37 126.13 21.76 122.08 27.57 119.87 C 25.57 106.63 25.20 93.09 27.16 79.82 C 21.42 77.52 15.02 73.64 8.79 76.66 C 1.40 80.14 1.01 89.44 0.00 96.47 L 0.00 0.00 M 101.46 47.62 C 98.51 50.86 98.53 55.45 98.51 59.57 C 97.68 60.39 96.90 61.28 96.48 62.38 C 92.02 72.28 90.18 83.17 89.93 93.98 C 89.54 108.74 91.51 123.65 96.55 137.57 C 96.85 138.73 97.63 139.63 98.51 140.42 C 98.66 143.27 98.39 146.22 99.44 148.94 C 101.07 153.23 105.28 156.44 109.88 156.75 C 122.04 157.40 134.07 152.20 142.62 143.66 C 144.72 141.81 146.16 139.04 149.00 138.22 C 145.98 131.27 144.00 123.92 142.78 116.45 C 140.03 98.20 140.56 78.57 148.90 61.74 C 146.85 61.10 145.53 59.38 144.14 57.86 C 136.37 49.49 125.52 43.78 114.01 43.24 C 109.45 42.64 104.40 43.86 101.46 47.62 M 44.38 61.48 C 38.00 64.73 36.17 73.64 40.18 79.44 C 39.15 80.78 38.95 82.48 38.79 84.11 C 37.51 96.25 37.75 108.64 40.17 120.64 C 35.96 126.60 38.25 135.91 45.05 138.82 C 55.23 142.97 66.89 141.95 76.97 138.00 C 79.12 137.19 81.27 135.81 83.66 136.59 C 79.55 124.87 78.02 112.38 77.75 100.02 C 77.66 87.70 78.77 75.13 83.20 63.55 C 80.62 63.96 78.39 62.39 76.05 61.62 C 65.99 57.92 54.36 57.05 44.38 61.48 Z" />
<path fill="#ffffff" opacity="1.00" d=" M 167.28 95.26 C 170.71 93.04 175.75 95.97 175.51 100.06 C 175.64 104.11 170.62 106.92 167.24 104.69 C 163.71 102.79 163.73 97.12 167.28 95.26 Z" />
</g>
<g id="#000000ff">
<path fill="#968176" opacity="1.00" d=" M 101.46 47.62 C 104.40 43.86 109.45 42.64 114.01 43.24 C 125.52 43.78 136.37 49.49 144.14 57.86 C 145.53 59.38 146.85 61.10 148.90 61.74 C 140.56 78.57 140.03 98.20 142.78 116.45 C 144.00 123.92 145.98 131.27 149.00 138.22 C 146.16 139.04 144.72 141.81 142.62 143.66 C 134.07 152.20 122.04 157.40 109.88 156.75 C 105.28 156.44 101.07 153.23 99.44 148.94 C 98.39 146.22 98.66 143.27 98.51 140.42 C 97.63 139.63 96.85 138.73 96.55 137.57 C 91.51 123.65 89.54 108.74 89.93 93.98 C 90.18 83.17 92.02 72.28 96.48 62.38 C 96.90 61.28 97.68 60.39 98.51 59.57 C 98.53 55.45 98.51 50.86 101.46 47.62 Z" />
<path fill="#968176" opacity="1.00" d=" M 44.38 61.48 C 54.36 57.05 65.99 57.92 76.05 61.62 C 78.39 62.39 80.62 63.96 83.20 63.55 C 78.77 75.13 77.66 87.70 77.75 100.02 C 78.02 112.38 79.55 124.87 83.66 136.59 C 81.27 135.81 79.12 137.19 76.97 138.00 C 66.89 141.95 55.23 142.97 45.05 138.82 C 38.25 135.91 35.96 126.60 40.17 120.64 C 37.75 108.64 37.51 96.25 38.79 84.11 C 38.95 82.48 39.15 80.78 40.18 79.44 C 36.17 73.64 38.00 64.73 44.38 61.48 Z" />
<path fill="#968176" opacity="1.00" d=" M 160.20 65.06 C 172.91 69.87 184.62 77.28 194.36 86.74 C 197.66 89.85 199.53 94.19 200.00 98.67 L 200.00 101.52 C 199.44 105.67 197.83 109.77 194.81 112.76 C 185.05 122.45 173.17 129.94 160.35 134.88 C 157.78 129.10 155.81 123.05 154.64 116.82 C 151.41 99.56 152.27 80.99 160.20 65.06 M 167.28 95.26 C 163.73 97.12 163.71 102.79 167.24 104.69 C 170.62 106.92 175.64 104.11 175.51 100.06 C 175.75 95.97 170.71 93.04 167.28 95.26 Z" />
<path fill="#968176" opacity="1.00" d=" M 8.79 76.66 C 15.02 73.64 21.42 77.52 27.16 79.82 C 25.20 93.09 25.57 106.63 27.57 119.87 C 21.76 122.08 15.37 126.13 9.08 123.14 C 1.32 119.49 1.10 109.63 0.00 102.29 L 0.00 96.47 C 1.01 89.44 1.40 80.14 8.79 76.66 Z" />
</g>
</svg>
