<?xml version="1.0" encoding="UTF-8" ?>
<!DOCTYPE svg PUBLIC "-//W3C//DTD SVG 1.1//EN" "http://www.w3.org/Graphics/SVG/1.1/DTD/svg11.dtd">
<svg width="60pt" height="60pt" viewBox="0 0 60 60" version="1.1" xmlns="http://www.w3.org/2000/svg">
<g id="#ffffffff">
<path fill="#ffffff" opacity="1.00" d=" M 0.00 0.00 L 60.00 0.00 L 60.00 60.00 L 0.00 60.00 L 0.00 0.00 M 24.09 6.85 C 23.85 13.28 24.08 19.73 24.00 26.16 C 23.50 26.12 22.50 26.04 22.00 26.00 C 21.87 20.69 22.28 15.36 21.81 10.07 C 21.06 6.99 15.91 7.65 16.08 10.87 C 15.86 19.23 16.09 27.60 15.99 35.97 C 13.73 38.82 11.20 42.17 12.18 46.06 C 13.60 50.84 17.44 55.82 22.85 55.94 C 27.93 56.06 33.01 56.05 38.09 55.95 C 42.28 56.04 46.03 52.31 45.95 48.11 C 46.02 37.70 46.08 27.27 45.92 16.86 C 46.07 13.67 40.97 12.99 40.20 16.05 C 39.74 19.84 40.10 23.68 40.00 27.50 C 39.50 27.46 38.50 27.38 38.00 27.34 C 37.86 21.59 38.28 15.82 37.81 10.09 C 37.18 7.40 32.82 7.38 32.20 10.08 C 31.69 15.73 32.20 21.42 31.94 27.08 C 31.48 26.93 30.57 26.64 30.11 26.49 C 29.68 19.68 30.38 12.83 29.80 6.03 C 29.01 3.00 23.94 3.66 24.09 6.85 Z" />
</g>
<g id="#000000ff">
<path fill="#000000" opacity="1.00" d=" M 24.09 6.85 C 23.94 3.66 29.01 3.00 29.80 6.03 C 30.38 12.83 29.68 19.68 30.11 26.49 C 30.57 26.64 31.48 26.93 31.94 27.08 C 32.20 21.42 31.69 15.73 32.20 10.08 C 32.82 7.38 37.18 7.40 37.81 10.09 C 38.28 15.82 37.86 21.59 38.00 27.34 C 38.50 27.38 39.50 27.46 40.00 27.50 C 40.10 23.68 39.74 19.84 40.20 16.05 C 40.97 12.99 46.07 13.67 45.92 16.86 C 46.08 27.27 46.02 37.70 45.95 48.11 C 46.03 52.31 42.28 56.04 38.09 55.95 C 33.01 56.05 27.93 56.06 22.85 55.94 C 17.44 55.82 13.60 50.84 12.18 46.06 C 11.20 42.17 13.73 38.82 15.99 35.97 C 16.09 27.60 15.86 19.23 16.08 10.87 C 15.91 7.65 21.06 6.99 21.81 10.07 C 22.28 15.36 21.87 20.69 22.00 26.00 C 22.50 26.04 23.50 26.12 24.00 26.16 C 24.08 19.73 23.85 13.28 24.09 6.85 Z" />
</g>
</svg>
