<?xml version="1.0" encoding="UTF-8" ?>
<!DOCTYPE svg PUBLIC "-//W3C//DTD SVG 1.1//EN" "http://www.w3.org/Graphics/SVG/1.1/DTD/svg11.dtd">
<svg width="60pt" height="60pt" viewBox="0 0 60 60" version="1.1" xmlns="http://www.w3.org/2000/svg">
<g id="#ffffffff">
<path fill="#ffffff" opacity="1.00" d=" M 0.00 0.00 L 60.00 0.00 L 60.00 60.00 L 0.00 60.00 L 0.00 0.00 M 30.07 3.99 C 27.70 8.29 23.62 12.14 23.85 17.40 C 26.52 17.40 29.18 17.40 31.84 17.40 C 31.84 18.05 31.85 19.35 31.86 20.00 C 33.14 20.00 34.42 20.00 35.70 20.00 C 35.70 19.35 35.70 18.06 35.69 17.42 C 36.19 17.41 37.19 17.39 37.69 17.39 C 37.70 16.36 37.71 15.34 37.72 14.31 C 37.21 14.29 36.20 14.25 35.70 14.23 C 35.70 10.82 35.69 7.41 35.70 4.00 C 33.83 4.01 31.95 4.01 30.07 3.99 M 4.09 17.92 C 4.01 29.56 3.79 41.24 4.20 52.86 C 6.08 55.80 8.77 52.43 8.20 50.00 C 22.73 50.00 37.27 50.00 51.81 50.00 C 52.12 51.33 51.86 53.02 53.15 53.90 C 54.46 54.31 56.01 53.55 55.90 52.04 C 56.11 48.43 56.15 44.80 55.83 41.21 C 55.21 39.58 53.34 40.15 52.00 39.99 C 37.33 40.01 22.66 39.99 8.00 40.00 C 7.93 32.65 8.14 25.30 7.92 17.96 C 8.20 15.41 3.83 15.36 4.09 17.92 M 12.00 25.94 C 12.00 29.30 12.00 32.65 12.00 36.00 C 14.67 36.00 17.33 36.00 20.00 36.00 C 19.92 33.46 20.33 30.81 19.61 28.33 C 18.31 25.31 14.61 26.12 12.00 25.94 M 24.00 36.00 C 34.02 36.00 44.04 36.00 54.06 36.00 C 53.88 33.22 54.51 29.87 52.22 27.76 C 50.14 25.52 46.82 26.08 44.07 25.97 C 38.37 26.16 32.65 25.73 26.97 26.17 C 22.74 27.46 24.23 32.70 24.00 36.00 Z" />
<path fill="#ffffff" opacity="1.00" d=" M 27.40 14.39 C 28.81 11.75 30.33 9.18 31.91 6.64 C 31.95 9.23 31.95 11.82 31.95 14.40 C 30.44 14.40 28.92 14.40 27.40 14.39 Z" />
</g>
<g id="#000000ff">
<path fill="#000000" opacity="1.00" d=" M 30.07 3.99 C 31.95 4.01 33.83 4.01 35.70 4.00 C 35.69 7.41 35.70 10.82 35.70 14.23 C 36.20 14.25 37.21 14.29 37.72 14.31 C 37.71 15.34 37.70 16.36 37.69 17.39 C 37.19 17.39 36.19 17.41 35.69 17.42 C 35.70 18.06 35.70 19.35 35.70 20.00 C 34.42 20.00 33.14 20.00 31.86 20.00 C 31.85 19.35 31.84 18.05 31.84 17.40 C 29.18 17.40 26.52 17.40 23.85 17.40 C 23.62 12.14 27.70 8.29 30.07 3.99 M 27.40 14.39 C 28.92 14.40 30.44 14.40 31.95 14.40 C 31.95 11.82 31.95 9.23 31.91 6.64 C 30.33 9.18 28.81 11.75 27.40 14.39 Z" />
<path fill="#000000" opacity="1.00" d=" M 4.09 17.92 C 3.83 15.36 8.20 15.41 7.92 17.96 C 8.14 25.30 7.93 32.65 8.00 40.00 C 22.66 39.99 37.33 40.01 52.00 39.99 C 53.34 40.15 55.21 39.58 55.83 41.21 C 56.15 44.80 56.11 48.43 55.90 52.04 C 56.01 53.55 54.46 54.31 53.15 53.90 C 51.86 53.02 52.12 51.33 51.81 50.00 C 37.27 50.00 22.73 50.00 8.20 50.00 C 8.77 52.43 6.08 55.80 4.20 52.86 C 3.79 41.24 4.01 29.56 4.09 17.92 Z" />
<path fill="#000000" opacity="1.00" d=" M 12.00 25.94 C 14.61 26.12 18.31 25.31 19.61 28.33 C 20.33 30.81 19.92 33.46 20.00 36.00 C 17.33 36.00 14.67 36.00 12.00 36.00 C 12.00 32.65 12.00 29.30 12.00 25.94 Z" />
<path fill="#000000" opacity="1.00" d=" M 24.00 36.00 C 24.23 32.70 22.74 27.46 26.97 26.17 C 32.65 25.73 38.37 26.16 44.07 25.97 C 46.82 26.08 50.14 25.52 52.22 27.76 C 54.51 29.87 53.88 33.22 54.06 36.00 C 44.04 36.00 34.02 36.00 24.00 36.00 Z" />
</g>
</svg>
