<?xml version="1.0" encoding="UTF-8" ?>
<!DOCTYPE svg PUBLIC "-//W3C//DTD SVG 1.1//EN" "http://www.w3.org/Graphics/SVG/1.1/DTD/svg11.dtd">
<svg width="60pt" height="60pt" viewBox="0 0 60 60" version="1.1" xmlns="http://www.w3.org/2000/svg">
<g id="#ffffffff">
<path fill="#ffffff" opacity="1.00" d=" M 0.00 0.00 L 60.00 0.00 L 60.00 28.73 C 59.42 24.86 54.95 25.09 52.08 24.16 C 50.06 21.09 48.52 17.70 46.25 14.79 C 43.17 11.28 38.14 12.36 34.02 12.00 C 28.16 12.16 20.42 11.04 17.41 17.54 C 18.42 18.39 19.54 19.11 20.67 19.79 C 21.81 18.38 22.78 16.38 24.87 16.32 C 30.19 15.93 35.53 15.94 40.86 16.25 C 42.06 16.36 43.18 17.07 43.79 18.11 C 45.73 21.24 47.55 24.45 49.43 27.62 C 51.56 28.33 53.80 28.63 55.98 29.19 C 56.02 31.75 56.01 34.31 55.98 36.86 C 54.18 37.37 52.33 37.70 50.54 38.26 C 49.92 39.88 49.13 42.11 46.98 41.99 C 44.68 42.07 44.08 39.61 43.19 38.01 C 33.73 37.99 24.27 37.99 14.81 38.01 C 13.92 39.63 13.28 42.12 10.95 42.00 C 8.84 42.04 8.09 39.88 7.50 38.27 C 6.36 37.83 5.17 37.52 4.02 37.09 C 3.98 34.79 3.96 32.49 4.01 30.19 C 7.62 29.47 11.23 28.77 14.84 28.10 C 15.24 27.65 16.05 26.75 16.45 26.30 C 23.64 31.15 32.71 29.98 40.89 29.85 C 43.51 28.18 40.92 25.72 39.01 24.95 C 36.94 23.96 34.23 20.30 32.15 23.11 C 32.10 23.83 32.01 25.28 31.96 26.00 C 27.42 26.20 22.71 25.55 18.79 23.11 C 15.34 20.93 12.14 18.37 8.73 16.13 C 6.81 15.17 4.96 18.04 6.56 19.38 C 8.75 21.02 11.02 22.54 13.19 24.20 C 9.85 25.14 6.38 25.53 3.01 26.34 C 1.50 26.67 0.53 27.98 0.00 29.34 L 0.00 0.00 Z" />
<path fill="#ffffff" opacity="1.00" d=" M 0.00 37.63 C 0.31 39.89 2.43 40.93 4.39 41.48 C 6.41 47.10 14.85 47.42 17.35 42.01 C 25.12 41.99 32.89 41.99 40.66 42.01 C 43.17 47.43 51.44 47.05 53.64 41.57 C 56.11 41.03 59.24 40.57 60.00 37.67 L 60.00 60.00 L 0.00 60.00 L 0.00 37.63 Z" />
</g>
<g id="#000000ff">
<path fill="#000000" opacity="1.00" d=" M 17.41 17.54 C 20.42 11.04 28.16 12.16 34.02 12.00 C 38.14 12.36 43.17 11.28 46.25 14.79 C 48.52 17.70 50.06 21.09 52.08 24.16 C 54.95 25.09 59.42 24.86 60.00 28.73 L 60.00 37.67 C 59.24 40.57 56.11 41.03 53.64 41.57 C 51.44 47.05 43.17 47.43 40.66 42.01 C 32.89 41.99 25.12 41.99 17.35 42.01 C 14.85 47.42 6.41 47.10 4.39 41.48 C 2.43 40.93 0.31 39.89 0.00 37.63 L 0.00 29.34 C 0.53 27.98 1.50 26.67 3.01 26.34 C 6.38 25.53 9.85 25.14 13.19 24.20 C 11.02 22.54 8.75 21.02 6.56 19.38 C 4.96 18.04 6.81 15.17 8.73 16.13 C 12.14 18.37 15.34 20.93 18.79 23.11 C 22.71 25.55 27.42 26.20 31.96 26.00 C 32.01 25.28 32.10 23.83 32.15 23.11 C 34.23 20.30 36.94 23.96 39.01 24.95 C 40.92 25.72 43.51 28.18 40.89 29.85 C 32.71 29.98 23.64 31.15 16.45 26.30 C 16.05 26.75 15.24 27.65 14.84 28.10 C 11.23 28.77 7.62 29.47 4.01 30.19 C 3.96 32.49 3.98 34.79 4.02 37.09 C 5.17 37.52 6.36 37.83 7.50 38.27 C 8.09 39.88 8.84 42.04 10.95 42.00 C 13.28 42.12 13.92 39.63 14.81 38.01 C 24.27 37.99 33.73 37.99 43.19 38.01 C 44.08 39.61 44.68 42.07 46.98 41.99 C 49.13 42.11 49.92 39.88 50.54 38.26 C 52.33 37.70 54.18 37.37 55.98 36.86 C 56.01 34.31 56.02 31.75 55.98 29.19 C 53.80 28.63 51.56 28.33 49.43 27.62 C 47.55 24.45 45.73 21.24 43.79 18.11 C 43.18 17.07 42.06 16.36 40.86 16.25 C 35.53 15.94 30.19 15.93 24.87 16.32 C 22.78 16.38 21.81 18.38 20.67 19.79 C 19.54 19.11 18.42 18.39 17.41 17.54 Z" />
</g>
</svg>
