<?xml version="1.0" encoding="UTF-8" ?>
<!DOCTYPE svg PUBLIC "-//W3C//DTD SVG 1.1//EN" "http://www.w3.org/Graphics/SVG/1.1/DTD/svg11.dtd">
<svg width="64pt" height="64pt" viewBox="0 0 64 64" version="1.1" xmlns="http://www.w3.org/2000/svg">
<g id="#ffffffff">
<path fill="#ffffff" opacity="1.00" d=" M 0.00 0.00 L 64.00 0.00 L 64.00 32.17 C 62.36 25.97 54.80 26.68 49.92 24.92 C 52.42 22.41 54.92 19.91 57.42 17.39 C 56.47 16.46 55.52 15.53 54.57 14.59 C 51.86 17.31 49.15 20.01 46.46 22.74 C 44.30 19.11 41.82 14.64 37.11 14.19 C 31.07 13.85 24.98 13.86 18.94 14.18 C 13.54 14.72 11.20 20.18 8.68 24.21 C 5.17 24.97 0.94 25.95 0.00 30.02 L 0.00 0.00 Z" />
<path fill="#ffffff" opacity="1.00" d=" M 11.40 27.65 C 13.68 24.42 14.85 19.55 19.00 18.24 C 24.66 17.76 30.38 17.99 36.06 18.10 C 40.15 18.34 41.55 22.81 43.49 25.70 C 42.71 26.47 41.93 27.23 41.16 28.00 C 37.44 28.00 33.72 28.00 30.00 28.00 C 30.00 26.67 30.00 25.33 29.99 24.00 C 27.33 26.00 24.67 28.00 22.00 30.00 C 24.67 32.00 27.33 34.00 30.00 36.00 C 30.00 34.67 30.00 33.33 30.00 32.00 C 34.28 32.00 38.55 32.00 42.83 32.00 C 44.09 30.73 45.35 29.47 46.62 28.21 C 50.95 29.63 55.81 29.82 59.79 32.06 C 60.15 34.81 60.01 37.58 59.96 40.34 C 56.57 40.04 56.37 35.58 53.23 34.70 C 48.74 32.46 43.72 35.61 42.19 39.99 C 35.46 39.89 28.71 40.22 21.99 39.85 C 20.23 37.48 18.53 34.27 15.07 34.08 C 10.96 33.27 7.91 36.45 6.03 39.65 C 5.53 39.82 4.54 40.17 4.05 40.34 C 4.00 36.91 3.83 33.45 4.19 30.03 C 6.31 28.58 9.01 28.42 11.40 27.65 Z" />
<path fill="#ffffff" opacity="1.00" d=" M 12.34 38.35 C 15.22 36.85 18.88 39.91 17.86 43.01 C 17.30 45.61 13.88 46.89 11.74 45.31 C 9.19 43.74 9.55 39.45 12.34 38.35 Z" />
<path fill="#ffffff" opacity="1.00" d=" M 48.22 38.40 C 51.10 36.77 54.88 39.86 53.87 43.00 C 53.30 45.61 49.87 46.90 47.73 45.30 C 45.24 43.75 45.53 39.58 48.22 38.40 Z" />
<path fill="#ffffff" opacity="1.00" d=" M 0.00 41.09 C 1.17 43.43 3.65 44.13 6.08 44.30 C 7.73 47.26 10.35 50.23 14.08 49.98 C 17.84 50.15 20.34 47.02 21.90 44.00 C 28.63 44.00 35.36 44.00 42.10 44.00 C 43.66 47.04 46.20 50.20 50.00 49.99 C 53.69 50.18 56.27 47.23 57.91 44.30 C 60.33 44.14 62.77 43.42 64.00 41.15 L 64.00 64.00 L 0.00 64.00 L 0.00 41.09 Z" />
</g>
<g id="#000000ff">
<path fill="#000000" opacity="1.00" d=" M 8.68 24.21 C 11.20 20.18 13.54 14.72 18.94 14.18 C 24.98 13.86 31.07 13.85 37.11 14.19 C 41.82 14.64 44.30 19.11 46.46 22.74 C 49.15 20.01 51.86 17.31 54.57 14.59 C 55.52 15.53 56.47 16.46 57.42 17.39 C 54.92 19.91 52.42 22.41 49.92 24.92 C 54.80 26.68 62.36 25.97 64.00 32.17 L 64.00 41.15 C 62.77 43.42 60.33 44.14 57.91 44.30 C 56.27 47.23 53.69 50.18 50.00 49.99 C 46.20 50.20 43.66 47.04 42.10 44.00 C 35.36 44.00 28.63 44.00 21.90 44.00 C 20.34 47.02 17.84 50.15 14.08 49.98 C 10.35 50.23 7.73 47.26 6.08 44.30 C 3.65 44.13 1.17 43.43 0.00 41.09 L 0.00 30.02 C 0.94 25.95 5.17 24.97 8.68 24.21 M 11.40 27.65 C 9.01 28.42 6.31 28.58 4.19 30.03 C 3.83 33.45 4.00 36.91 4.05 40.34 C 4.54 40.17 5.53 39.82 6.03 39.65 C 7.91 36.45 10.96 33.27 15.07 34.08 C 18.53 34.27 20.23 37.48 21.99 39.85 C 28.71 40.22 35.46 39.89 42.19 39.99 C 43.72 35.61 48.74 32.46 53.23 34.70 C 56.37 35.58 56.57 40.04 59.96 40.34 C 60.01 37.58 60.15 34.81 59.79 32.06 C 55.81 29.82 50.95 29.63 46.62 28.21 C 45.35 29.47 44.09 30.73 42.83 32.00 C 38.55 32.00 34.28 32.00 30.00 32.00 C 30.00 33.33 30.00 34.67 30.00 36.00 C 27.33 34.00 24.67 32.00 22.00 30.00 C 24.67 28.00 27.33 26.00 29.99 24.00 C 30.00 25.33 30.00 26.67 30.00 28.00 C 33.72 28.00 37.44 28.00 41.16 28.00 C 41.93 27.23 42.71 26.47 43.49 25.70 C 41.55 22.81 40.15 18.34 36.06 18.10 C 30.38 17.99 24.66 17.76 19.00 18.24 C 14.85 19.55 13.68 24.42 11.40 27.65 M 12.34 38.35 C 9.55 39.45 9.19 43.74 11.74 45.31 C 13.88 46.89 17.30 45.61 17.86 43.01 C 18.88 39.91 15.22 36.85 12.34 38.35 M 48.22 38.40 C 45.53 39.58 45.24 43.75 47.73 45.30 C 49.87 46.90 53.30 45.61 53.87 43.00 C 54.88 39.86 51.10 36.77 48.22 38.40 Z" />
</g>
</svg>
