<?xml version="1.0" encoding="UTF-8" ?>
<!DOCTYPE svg PUBLIC "-//W3C//DTD SVG 1.1//EN" "http://www.w3.org/Graphics/SVG/1.1/DTD/svg11.dtd">
<svg width="60pt" height="60pt" viewBox="0 0 60 60" version="1.1" xmlns="http://www.w3.org/2000/svg">
<g id="#ffffffff">
<path fill="#ffffff" opacity="1.00" d=" M 0.00 0.00 L 60.00 0.00 L 60.00 60.00 L 0.00 60.00 L 0.00 0.00 M 21.45 4.57 C 17.21 6.33 16.86 12.92 20.89 15.12 C 24.62 17.64 30.19 14.49 29.99 10.01 C 30.17 5.79 25.21 2.60 21.45 4.57 M 19.06 20.90 C 15.90 22.14 11.29 23.76 11.88 28.00 C 19.96 28.00 28.04 28.00 36.12 28.00 C 35.88 26.66 36.21 24.96 34.88 24.10 C 30.52 20.67 24.42 18.85 19.06 20.90 M 43.54 22.49 C 41.46 23.65 40.25 25.69 39.79 27.97 C 43.93 28.01 48.07 28.02 52.21 27.97 C 51.73 25.69 50.54 23.65 48.46 22.49 C 47.73 21.66 47.46 19.77 46.00 20.07 C 44.54 19.74 44.26 21.66 43.54 22.49 M 5.96 35.00 C 6.47 35.30 7.50 35.91 8.01 36.21 C 7.98 41.47 8.01 46.74 8.00 52.00 C 22.67 52.00 37.33 52.00 52.00 52.00 C 52.02 46.78 51.96 41.56 52.03 36.34 C 53.06 35.54 54.46 34.77 53.90 33.22 C 53.17 31.71 51.40 32.08 50.03 31.98 C 36.01 32.07 21.98 31.89 7.95 32.07 C 6.31 31.90 6.00 33.79 5.96 35.00 Z" />
</g>
<g id="#000000ff">
<path fill="#000000" opacity="1.00" d=" M 21.45 4.57 C 25.21 2.60 30.17 5.79 29.99 10.01 C 30.19 14.49 24.62 17.64 20.89 15.12 C 16.86 12.92 17.21 6.33 21.45 4.57 Z" />
<path fill="#000000" opacity="1.00" d=" M 19.06 20.90 C 24.42 18.85 30.52 20.67 34.88 24.10 C 36.21 24.96 35.88 26.66 36.12 28.00 C 28.04 28.00 19.96 28.00 11.88 28.00 C 11.29 23.76 15.90 22.14 19.06 20.90 Z" />
<path fill="#000000" opacity="1.00" d=" M 43.54 22.49 C 44.26 21.66 44.54 19.74 46.00 20.07 C 47.46 19.77 47.73 21.66 48.46 22.49 C 50.54 23.65 51.73 25.69 52.21 27.97 C 48.07 28.02 43.93 28.01 39.79 27.97 C 40.25 25.69 41.46 23.65 43.54 22.49 Z" />
<path fill="#000000" opacity="1.00" d=" M 5.96 35.00 C 6.00 33.79 6.31 31.90 7.95 32.07 C 21.98 31.89 36.01 32.07 50.03 31.98 C 51.40 32.08 53.17 31.71 53.90 33.22 C 54.46 34.77 53.06 35.54 52.03 36.34 C 51.96 41.56 52.02 46.78 52.00 52.00 C 37.33 52.00 22.67 52.00 8.00 52.00 C 8.01 46.74 7.98 41.47 8.01 36.21 C 7.50 35.91 6.47 35.30 5.96 35.00 Z" />
</g>
</svg>
