<?xml version="1.0" encoding="UTF-8" ?>
<!DOCTYPE svg PUBLIC "-//W3C//DTD SVG 1.1//EN" "http://www.w3.org/Graphics/SVG/1.1/DTD/svg11.dtd">
<svg width="60pt" height="60pt" viewBox="0 0 60 60" version="1.1" xmlns="http://www.w3.org/2000/svg">
<g id="#ffffffff">
<path fill="#ffffff" opacity="1.00" d=" M 0.00 0.00 L 60.00 0.00 L 60.00 60.00 L 0.00 60.00 L 0.00 0.00 M 13.11 8.04 C 11.75 9.27 11.80 11.26 11.35 12.91 C 9.03 25.30 6.22 37.60 4.10 50.02 C 3.70 52.61 8.17 52.63 8.00 49.97 C 10.69 36.93 13.29 23.87 15.83 10.80 C 16.49 9.05 14.85 7.50 13.11 8.04 M 29.09 8.08 C 27.35 9.50 27.30 13.63 29.97 14.07 C 33.26 13.74 32.73 6.90 29.09 8.08 M 45.17 8.10 C 43.55 8.89 44.16 10.67 44.36 12.07 C 46.85 24.34 49.28 36.62 51.74 48.90 C 52.07 50.01 52.28 52.36 53.98 51.95 C 55.66 52.23 56.33 50.22 55.79 48.92 C 53.39 36.42 50.78 23.96 48.35 11.47 C 48.07 9.79 47.47 7.20 45.17 8.10 M 29.12 18.09 C 27.28 19.47 28.13 22.10 28.06 24.06 C 27.90 26.60 32.15 26.56 31.94 24.02 C 32.13 21.83 32.69 17.21 29.12 18.09 M 23.14 34.34 C 22.87 36.97 25.74 38.18 26.87 40.21 C 25.10 40.03 23.38 39.63 21.74 38.97 C 20.50 39.67 19.17 40.24 18.07 41.17 C 17.34 43.56 20.28 44.00 21.74 45.02 C 23.39 44.38 25.11 43.96 26.87 43.79 C 25.78 45.28 24.40 46.52 23.27 47.97 C 22.82 49.93 22.99 51.98 24.84 53.14 C 28.02 51.72 29.24 48.79 30.00 45.61 C 30.61 47.20 31.06 48.85 31.66 50.45 C 32.72 51.49 34.01 52.26 35.20 53.15 C 36.04 52.16 37.46 51.21 36.88 49.67 C 37.21 47.03 34.26 45.83 33.13 43.79 C 34.89 43.96 36.61 44.38 38.26 45.02 C 39.50 44.33 40.81 43.74 41.93 42.85 C 42.69 40.41 39.74 40.02 38.26 38.97 C 36.61 39.62 34.89 40.02 33.14 40.21 C 34.27 38.17 37.14 36.96 36.86 34.33 C 37.51 32.79 35.96 31.91 35.18 30.92 C 33.99 31.75 32.75 32.51 31.66 33.47 C 31.05 35.10 30.61 36.79 29.98 38.42 C 29.34 36.79 28.83 35.10 28.47 33.39 C 27.25 32.57 26.03 31.75 24.81 30.93 C 24.01 31.92 22.49 32.81 23.14 34.34 Z" />
</g>
<g id="#000000ff">
<path fill="#000000" opacity="1.00" d=" M 13.11 8.04 C 14.85 7.50 16.49 9.05 15.83 10.80 C 13.29 23.87 10.69 36.93 8.00 49.97 C 8.17 52.63 3.70 52.61 4.10 50.02 C 6.22 37.60 9.03 25.30 11.35 12.91 C 11.80 11.26 11.75 9.27 13.11 8.04 Z" />
<path fill="#000000" opacity="1.00" d=" M 29.09 8.08 C 32.73 6.90 33.26 13.74 29.97 14.07 C 27.30 13.63 27.35 9.50 29.09 8.08 Z" />
<path fill="#000000" opacity="1.00" d=" M 45.17 8.10 C 47.47 7.20 48.07 9.79 48.35 11.47 C 50.78 23.96 53.39 36.42 55.79 48.92 C 56.33 50.22 55.66 52.23 53.98 51.95 C 52.28 52.36 52.07 50.01 51.74 48.90 C 49.28 36.62 46.85 24.34 44.36 12.07 C 44.16 10.67 43.55 8.89 45.17 8.10 Z" />
<path fill="#000000" opacity="1.00" d=" M 29.12 18.09 C 32.69 17.21 32.13 21.83 31.94 24.02 C 32.15 26.56 27.90 26.60 28.06 24.06 C 28.13 22.10 27.28 19.47 29.12 18.09 Z" />
<path fill="#000000" opacity="1.00" d=" M 23.14 34.34 C 22.49 32.81 24.01 31.92 24.81 30.93 C 26.03 31.75 27.25 32.57 28.47 33.39 C 28.83 35.10 29.34 36.79 29.98 38.42 C 30.61 36.79 31.05 35.10 31.66 33.47 C 32.75 32.51 33.99 31.75 35.18 30.92 C 35.96 31.91 37.51 32.79 36.86 34.33 C 37.14 36.96 34.27 38.17 33.14 40.21 C 34.89 40.02 36.61 39.62 38.26 38.97 C 39.74 40.02 42.69 40.41 41.93 42.85 C 40.81 43.74 39.50 44.33 38.26 45.02 C 36.61 44.38 34.89 43.96 33.13 43.79 C 34.26 45.83 37.21 47.03 36.88 49.67 C 37.46 51.21 36.04 52.16 35.20 53.15 C 34.01 52.26 32.72 51.49 31.66 50.45 C 31.06 48.85 30.61 47.20 30.00 45.61 C 29.24 48.79 28.02 51.72 24.84 53.14 C 22.99 51.98 22.82 49.93 23.27 47.97 C 24.40 46.52 25.78 45.28 26.87 43.79 C 25.11 43.96 23.39 44.38 21.74 45.02 C 20.28 44.00 17.34 43.56 18.07 41.17 C 19.17 40.24 20.50 39.67 21.74 38.97 C 23.38 39.63 25.10 40.03 26.87 40.21 C 25.74 38.18 22.87 36.97 23.14 34.34 Z" />
</g>
</svg>
