<?xml version="1.0" encoding="UTF-8" ?>
<!DOCTYPE svg PUBLIC "-//W3C//DTD SVG 1.1//EN" "http://www.w3.org/Graphics/SVG/1.1/DTD/svg11.dtd">
<svg width="64pt" height="64pt" viewBox="0 0 64 64" version="1.1" xmlns="http://www.w3.org/2000/svg">
<g id="#ffffffff">
<path fill="#ffffff" opacity="1.00" d=" M 0.00 0.00 L 64.00 0.00 L 64.00 64.00 L 0.00 64.00 L 0.00 0.00 M 25.12 5.17 C 22.27 6.99 21.79 10.57 22.08 13.67 C 19.77 14.44 17.16 15.53 16.39 18.09 C 15.55 21.43 16.03 24.93 16.66 28.26 C 11.67 33.04 9.83 40.25 10.09 46.98 C 10.68 51.98 15.51 55.04 19.97 56.34 C 27.89 58.65 36.49 58.49 44.42 56.26 C 46.15 57.13 47.93 58.13 49.95 57.92 C 56.78 59.14 62.96 51.73 61.76 45.23 C 60.92 41.67 57.21 40.23 54.02 39.51 C 54.91 37.78 56.14 36.28 58.01 35.56 C 57.98 34.27 57.96 32.99 57.92 31.70 C 55.69 32.28 53.63 33.31 51.85 34.77 C 50.68 32.35 49.23 30.06 47.26 28.20 C 48.03 24.91 48.43 21.41 47.60 18.09 C 46.82 15.53 44.20 14.42 41.87 13.67 C 42.24 10.55 41.70 6.93 38.81 5.13 C 36.82 3.56 34.24 4.11 32.00 4.69 C 29.73 4.09 27.12 3.56 25.12 5.17 Z" />
<path fill="#ffffff" opacity="1.00" d=" M 27.40 8.44 C 29.11 7.15 30.58 9.07 32.01 9.85 C 33.32 9.05 35.04 7.13 36.61 8.48 C 38.29 9.56 38.10 11.82 37.55 13.48 C 35.73 14.13 33.84 14.57 32.05 15.29 C 30.12 14.56 28.15 13.99 26.14 13.53 C 26.23 11.81 25.63 9.53 27.40 8.44 Z" />
<path fill="#ffffff" opacity="1.00" d=" M 21.23 18.15 C 22.63 17.69 23.79 18.84 24.97 19.37 C 26.39 18.47 28.88 17.04 29.82 19.32 C 30.56 21.79 28.56 23.81 27.20 25.61 C 25.09 25.05 22.98 24.45 20.90 23.77 C 20.43 21.97 19.10 19.41 21.23 18.15 Z" />
<path fill="#ffffff" opacity="1.00" d=" M 34.21 19.22 C 34.97 18.69 35.74 18.16 36.52 17.65 C 37.09 18.14 38.22 19.10 38.78 19.58 C 40.05 18.94 41.27 17.67 42.82 18.15 C 44.68 19.39 44.02 22.03 42.70 23.41 C 40.79 24.49 38.61 24.90 36.55 25.55 C 35.15 23.77 33.36 21.67 34.21 19.22 Z" />
<path fill="#ffffff" opacity="1.00" d=" M 33.01 29.96 C 36.59 29.92 39.99 28.71 43.49 28.12 C 40.51 31.94 35.37 31.98 30.97 31.96 C 27.23 31.84 22.80 31.79 20.44 28.33 C 24.59 29.12 28.75 30.21 33.01 29.96 Z" />
<path fill="#ffffff" opacity="1.00" d=" M 18.11 32.17 C 23.19 36.46 30.25 36.21 36.48 35.75 C 39.90 35.53 43.00 33.98 45.72 31.98 C 47.33 34.55 48.57 37.32 49.58 40.18 C 46.49 39.75 42.96 40.40 41.17 43.22 C 39.04 46.16 40.31 49.98 41.56 53.01 C 34.49 54.34 26.98 54.54 20.11 52.16 C 17.61 51.21 14.69 49.70 14.11 46.83 C 13.78 41.64 15.33 36.52 18.11 32.17 Z" />
<path fill="#ffffff" opacity="1.00" d=" M 44.17 45.99 C 45.48 43.14 49.01 43.99 51.00 45.56 C 52.99 43.93 56.73 43.13 57.87 46.14 C 58.35 49.21 56.12 52.05 53.65 53.60 C 48.82 55.60 43.07 51.20 44.17 45.99 Z" />
</g>
<g id="#000000ff">
<path fill="#000000" opacity="1.00" d=" M 25.12 5.17 C 27.12 3.56 29.73 4.09 32.00 4.69 C 34.24 4.11 36.82 3.56 38.81 5.13 C 41.70 6.93 42.24 10.55 41.87 13.67 C 44.20 14.42 46.82 15.53 47.60 18.09 C 48.43 21.41 48.03 24.91 47.26 28.20 C 49.23 30.06 50.68 32.35 51.85 34.77 C 53.63 33.31 55.69 32.28 57.92 31.70 C 57.96 32.99 57.98 34.27 58.01 35.56 C 56.14 36.28 54.91 37.78 54.02 39.51 C 57.21 40.23 60.92 41.67 61.76 45.23 C 62.96 51.73 56.78 59.14 49.95 57.92 C 47.93 58.13 46.15 57.13 44.42 56.26 C 36.49 58.49 27.89 58.65 19.97 56.34 C 15.51 55.04 10.68 51.98 10.09 46.98 C 9.83 40.25 11.67 33.04 16.66 28.26 C 16.03 24.93 15.55 21.43 16.39 18.09 C 17.16 15.53 19.77 14.44 22.08 13.67 C 21.79 10.57 22.27 6.99 25.12 5.17 M 27.40 8.44 C 25.63 9.53 26.23 11.81 26.14 13.53 C 28.15 13.99 30.12 14.56 32.05 15.29 C 33.84 14.57 35.73 14.13 37.55 13.48 C 38.10 11.82 38.29 9.56 36.61 8.48 C 35.04 7.13 33.32 9.05 32.01 9.85 C 30.58 9.07 29.11 7.15 27.40 8.44 M 21.23 18.15 C 19.10 19.41 20.43 21.97 20.90 23.77 C 22.98 24.45 25.09 25.05 27.20 25.61 C 28.56 23.81 30.56 21.79 29.82 19.32 C 28.88 17.04 26.39 18.47 24.97 19.37 C 23.79 18.84 22.63 17.69 21.23 18.15 M 34.21 19.22 C 33.36 21.67 35.15 23.77 36.55 25.55 C 38.61 24.90 40.79 24.49 42.70 23.41 C 44.02 22.03 44.68 19.39 42.82 18.15 C 41.27 17.67 40.05 18.94 38.78 19.58 C 38.22 19.10 37.09 18.14 36.52 17.65 C 35.74 18.16 34.97 18.69 34.21 19.22 M 33.01 29.96 C 28.75 30.21 24.59 29.12 20.44 28.33 C 22.80 31.79 27.23 31.84 30.97 31.96 C 35.37 31.98 40.51 31.94 43.49 28.12 C 39.99 28.71 36.59 29.92 33.01 29.96 M 18.11 32.17 C 15.33 36.52 13.78 41.64 14.11 46.83 C 14.69 49.70 17.61 51.21 20.11 52.16 C 26.98 54.54 34.49 54.34 41.56 53.01 C 40.31 49.98 39.04 46.16 41.17 43.22 C 42.96 40.40 46.49 39.75 49.58 40.18 C 48.57 37.32 47.33 34.55 45.72 31.98 C 43.00 33.98 39.90 35.53 36.48 35.75 C 30.25 36.21 23.19 36.46 18.11 32.17 M 44.17 45.99 C 43.07 51.20 48.82 55.60 53.65 53.60 C 56.12 52.05 58.35 49.21 57.87 46.14 C 56.73 43.13 52.99 43.93 51.00 45.56 C 49.01 43.99 45.48 43.14 44.17 45.99 Z" />
</g>
</svg>
