<?xml version="1.0" encoding="UTF-8" ?>
<!DOCTYPE svg PUBLIC "-//W3C//DTD SVG 1.1//EN" "http://www.w3.org/Graphics/SVG/1.1/DTD/svg11.dtd">
<svg width="64pt" height="64pt" viewBox="0 0 64 64" version="1.1" xmlns="http://www.w3.org/2000/svg">
<g id="#ffffffff">
<path fill="#ffffff" opacity="1.00" d=" M 0.00 0.00 L 64.00 0.00 L 64.00 64.00 L 0.00 64.00 L 0.00 0.00 M 24.42 5.43 C 16.53 9.90 11.56 18.97 12.04 28.03 C 12.20 33.84 14.68 39.37 18.43 43.75 C 13.89 48.29 9.33 52.82 4.81 57.39 C 5.77 58.32 6.72 59.25 7.67 60.18 C 12.21 55.62 16.77 51.07 21.31 46.50 C 29.95 53.53 43.23 53.84 52.02 46.94 C 59.08 41.70 62.99 32.56 61.78 23.84 C 60.69 14.47 53.76 6.08 44.75 3.25 C 38.08 1.03 30.47 1.83 24.42 5.43 Z" />
<path fill="#ffffff" opacity="1.00" d=" M 34.20 6.19 C 40.83 5.26 47.83 7.74 52.35 12.68 C 57.38 17.97 59.25 25.99 57.12 32.97 C 55.16 39.82 49.44 45.40 42.56 47.24 C 35.20 49.33 26.81 46.98 21.65 41.32 C 16.42 35.84 14.63 27.42 17.11 20.26 C 19.52 12.83 26.44 7.14 34.20 6.19 M 36.33 10.56 C 28.29 12.81 24.03 22.55 26.91 30.19 C 29.03 36.93 36.72 41.71 43.66 39.43 C 51.70 37.18 55.98 27.44 53.08 19.79 C 50.96 13.05 43.26 8.29 36.33 10.56 Z" />
<path fill="#ffffff" opacity="1.00" d=" M 36.42 14.75 C 40.92 12.71 46.45 15.11 48.60 19.42 C 51.73 24.97 49.37 33.17 43.17 35.40 C 38.74 37.16 33.49 34.75 31.40 30.59 C 28.35 25.16 30.47 17.19 36.42 14.75 M 36.49 18.67 C 33.22 20.39 33.23 25.61 36.50 27.32 C 39.62 29.36 44.13 26.67 44.01 23.00 C 44.15 19.32 39.62 16.63 36.49 18.67 Z" />
</g>
<g id="#000000ff">
<path fill="#000000" opacity="1.00" d=" M 24.42 5.43 C 30.47 1.83 38.08 1.03 44.75 3.25 C 53.76 6.08 60.69 14.47 61.78 23.84 C 62.99 32.56 59.08 41.70 52.02 46.94 C 43.23 53.84 29.95 53.53 21.31 46.50 C 16.77 51.07 12.21 55.62 7.67 60.18 C 6.72 59.25 5.77 58.32 4.81 57.39 C 9.33 52.82 13.89 48.29 18.43 43.75 C 14.68 39.37 12.20 33.84 12.04 28.03 C 11.56 18.97 16.53 9.90 24.42 5.43 M 34.20 6.19 C 26.44 7.14 19.52 12.83 17.11 20.26 C 14.63 27.42 16.42 35.84 21.65 41.32 C 26.81 46.98 35.20 49.33 42.56 47.24 C 49.44 45.40 55.16 39.82 57.12 32.97 C 59.25 25.99 57.38 17.97 52.35 12.68 C 47.83 7.74 40.83 5.26 34.20 6.19 Z" />
<path fill="#000000" opacity="1.00" d=" M 36.33 10.56 C 43.26 8.29 50.96 13.05 53.08 19.79 C 55.98 27.44 51.70 37.18 43.66 39.43 C 36.72 41.71 29.03 36.93 26.91 30.19 C 24.03 22.55 28.29 12.81 36.33 10.56 M 36.42 14.75 C 30.47 17.19 28.35 25.16 31.40 30.59 C 33.49 34.75 38.74 37.16 43.17 35.40 C 49.37 33.17 51.73 24.97 48.60 19.42 C 46.45 15.11 40.92 12.71 36.42 14.75 Z" />
<path fill="#000000" opacity="1.00" d=" M 36.49 18.67 C 39.62 16.63 44.15 19.32 44.01 23.00 C 44.13 26.67 39.62 29.36 36.50 27.32 C 33.23 25.61 33.22 20.39 36.49 18.67 Z" />
</g>
</svg>
