<?xml version="1.0" encoding="UTF-8" ?>
<!DOCTYPE svg PUBLIC "-//W3C//DTD SVG 1.1//EN" "http://www.w3.org/Graphics/SVG/1.1/DTD/svg11.dtd">
<svg width="60pt" height="60pt" viewBox="0 0 60 60" version="1.1" xmlns="http://www.w3.org/2000/svg">
<g id="#ffffffff">
<path fill="#ffffff" opacity="1.00" d=" M 0.00 0.00 L 60.00 0.00 L 60.00 60.00 L 0.00 60.00 L 0.00 0.00 M 6.00 10.92 C 6.03 23.98 5.93 37.03 6.05 50.08 C 5.95 52.17 7.86 53.97 9.91 53.95 C 15.99 54.11 22.09 53.93 28.17 54.01 C 27.96 48.33 27.83 42.63 28.15 36.96 C 28.42 33.95 31.33 32.32 34.00 31.76 C 33.94 24.47 34.10 17.17 33.94 9.89 C 33.96 7.84 32.14 5.94 30.06 6.05 C 23.35 5.95 16.63 5.96 9.92 6.05 C 7.40 5.98 5.66 8.56 6.00 10.92 M 32.18 37.11 C 31.86 42.35 31.87 47.63 32.17 52.87 C 32.42 53.11 32.90 53.59 33.14 53.83 C 39.70 54.12 46.31 54.13 52.87 53.82 C 55.16 51.39 53.55 47.33 53.99 44.24 C 50.71 43.75 48.23 41.29 47.76 38.00 C 45.30 38.01 42.84 38.00 40.38 37.97 C 38.93 35.18 34.21 35.21 32.18 37.11 M 50.68 38.09 C 51.36 39.53 52.45 40.66 53.91 41.31 C 53.94 40.48 54.00 38.81 54.03 37.97 C 53.19 38.00 51.52 38.06 50.68 38.09 Z" />
<path fill="#ffffff" opacity="1.00" d=" M 10.00 10.00 C 16.67 10.00 23.33 10.00 30.00 10.00 C 30.00 12.67 30.00 15.33 30.00 18.00 C 23.33 18.00 16.67 18.00 10.00 18.00 C 10.00 15.33 10.00 12.67 10.00 10.00 M 15.21 12.17 C 12.76 13.14 14.49 16.93 16.88 15.89 C 19.13 14.76 17.53 11.07 15.21 12.17 Z" />
<path fill="#ffffff" opacity="1.00" d=" M 10.00 22.00 C 16.67 22.00 23.33 22.00 30.00 22.00 C 30.00 24.67 30.00 27.33 30.00 30.00 C 23.33 30.00 16.67 30.00 10.00 30.00 C 10.00 27.33 10.00 24.67 10.00 22.00 M 15.21 24.20 C 12.79 25.07 14.45 28.90 16.78 27.90 C 19.21 26.91 17.52 22.99 15.21 24.20 Z" />
<path fill="#ffffff" opacity="1.00" d=" M 18.42 35.48 C 21.59 33.26 24.90 38.62 21.60 40.50 C 18.42 42.78 15.06 37.35 18.42 35.48 Z" />
</g>
<g id="#000000ff">
<path fill="#000000" opacity="1.00" d=" M 6.00 10.92 C 5.66 8.56 7.40 5.98 9.92 6.05 C 16.63 5.96 23.35 5.95 30.06 6.05 C 32.14 5.94 33.96 7.84 33.94 9.89 C 34.10 17.17 33.94 24.47 34.00 31.76 C 31.33 32.32 28.42 33.95 28.15 36.96 C 27.83 42.63 27.96 48.33 28.17 54.01 C 22.09 53.93 15.99 54.11 9.91 53.95 C 7.86 53.97 5.95 52.17 6.05 50.08 C 5.93 37.03 6.03 23.98 6.00 10.92 M 10.00 10.00 C 10.00 12.67 10.00 15.33 10.00 18.00 C 16.67 18.00 23.33 18.00 30.00 18.00 C 30.00 15.33 30.00 12.67 30.00 10.00 C 23.33 10.00 16.67 10.00 10.00 10.00 M 10.00 22.00 C 10.00 24.67 10.00 27.33 10.00 30.00 C 16.67 30.00 23.33 30.00 30.00 30.00 C 30.00 27.33 30.00 24.67 30.00 22.00 C 23.33 22.00 16.67 22.00 10.00 22.00 M 18.42 35.48 C 15.06 37.35 18.42 42.78 21.60 40.50 C 24.90 38.62 21.59 33.26 18.42 35.48 Z" />
<path fill="#000000" opacity="1.00" d=" M 15.21 12.17 C 17.53 11.07 19.13 14.76 16.88 15.89 C 14.49 16.93 12.76 13.14 15.21 12.17 Z" />
<path fill="#000000" opacity="1.00" d=" M 15.21 24.20 C 17.52 22.99 19.21 26.91 16.78 27.90 C 14.45 28.90 12.79 25.07 15.21 24.20 Z" />
<path fill="#000000" opacity="1.00" d=" M 32.18 37.11 C 34.21 35.21 38.93 35.18 40.38 37.97 C 42.84 38.00 45.30 38.01 47.76 38.00 C 48.23 41.29 50.71 43.75 53.99 44.24 C 53.55 47.33 55.16 51.39 52.87 53.82 C 46.31 54.13 39.70 54.12 33.14 53.83 C 32.90 53.59 32.42 53.11 32.17 52.87 C 31.87 47.63 31.86 42.35 32.18 37.11 Z" />
<path fill="#000000" opacity="1.00" d=" M 50.68 38.09 C 51.52 38.06 53.19 38.00 54.03 37.97 C 54.00 38.81 53.94 40.48 53.91 41.31 C 52.45 40.66 51.36 39.53 50.68 38.09 Z" />
</g>
</svg>
