<?xml version="1.0" encoding="UTF-8" ?>
<!DOCTYPE svg PUBLIC "-//W3C//DTD SVG 1.1//EN" "http://www.w3.org/Graphics/SVG/1.1/DTD/svg11.dtd">
<svg width="60pt" height="60pt" viewBox="0 0 60 60" version="1.1" xmlns="http://www.w3.org/2000/svg">
<g id="#ffffffff">
<path fill="#ffffff" opacity="1.00" d=" M 0.00 0.00 L 60.00 0.00 L 60.00 60.00 L 0.00 60.00 L 0.00 0.00 M 4.00 16.00 C 13.57 16.00 23.13 15.99 32.70 16.01 C 32.43 14.01 32.17 12.00 31.91 10.00 C 28.77 10.01 25.62 10.00 22.48 9.98 C 21.32 8.40 20.33 6.01 18.02 6.08 C 14.36 5.92 10.68 5.87 7.04 6.14 C 2.74 7.39 4.22 12.68 4.00 16.00 M 35.88 10.02 C 35.91 20.76 45.25 30.07 55.98 30.12 C 55.99 28.79 55.99 27.47 56.01 26.14 C 47.39 26.01 39.94 18.63 39.86 9.99 C 38.53 10.01 37.21 10.01 35.88 10.02 M 43.86 10.02 C 44.11 16.49 49.52 21.89 55.98 22.13 C 55.99 20.82 55.99 19.51 56.00 18.19 C 51.63 17.83 48.15 14.38 47.81 10.00 C 46.50 10.01 45.18 10.02 43.86 10.02 M 51.73 10.03 C 52.26 12.19 53.86 13.66 55.96 14.27 C 55.98 12.84 55.99 11.41 56.02 9.99 C 54.59 10.00 53.16 10.02 51.73 10.03 M 4.02 22.88 C 4.00 30.60 3.94 38.33 4.05 46.06 C 3.91 48.62 6.56 50.31 8.92 50.00 C 22.95 50.00 36.99 50.00 51.02 50.00 C 53.09 50.24 55.39 49.10 55.85 46.94 C 56.23 42.66 55.89 38.36 56.00 34.07 C 46.79 33.94 38.06 28.37 34.15 20.01 C 24.76 20.05 15.36 19.89 5.96 20.07 C 4.41 19.89 3.85 21.64 4.02 22.88 Z" />
</g>
<g id="#000000ff">
<path fill="#000000" opacity="1.00" d=" M 4.00 16.00 C 4.22 12.68 2.74 7.39 7.04 6.14 C 10.68 5.87 14.36 5.92 18.02 6.08 C 20.33 6.01 21.32 8.40 22.48 9.98 C 25.62 10.00 28.77 10.01 31.91 10.00 C 32.17 12.00 32.43 14.01 32.70 16.01 C 23.13 15.99 13.57 16.00 4.00 16.00 Z" />
<path fill="#000000" opacity="1.00" d=" M 35.88 10.02 C 37.21 10.01 38.53 10.01 39.86 9.99 C 39.94 18.63 47.39 26.01 56.01 26.14 C 55.99 27.47 55.99 28.79 55.98 30.12 C 45.25 30.07 35.91 20.76 35.88 10.02 Z" />
<path fill="#000000" opacity="1.00" d=" M 43.86 10.02 C 45.18 10.02 46.50 10.01 47.81 10.00 C 48.15 14.38 51.63 17.83 56.00 18.19 C 55.99 19.51 55.99 20.82 55.98 22.13 C 49.52 21.89 44.11 16.49 43.86 10.02 Z" />
<path fill="#000000" opacity="1.00" d=" M 51.73 10.03 C 53.16 10.02 54.59 10.00 56.02 9.99 C 55.99 11.41 55.98 12.84 55.96 14.27 C 53.86 13.66 52.26 12.19 51.73 10.03 Z" />
<path fill="#000000" opacity="1.00" d=" M 4.02 22.88 C 3.85 21.64 4.41 19.89 5.96 20.07 C 15.36 19.89 24.76 20.05 34.15 20.01 C 38.06 28.37 46.79 33.94 56.00 34.07 C 55.89 38.36 56.23 42.66 55.85 46.94 C 55.39 49.10 53.09 50.24 51.02 50.00 C 36.99 50.00 22.95 50.00 8.92 50.00 C 6.56 50.31 3.91 48.62 4.05 46.06 C 3.94 38.33 4.00 30.60 4.02 22.88 Z" />
</g>
</svg>
