<?xml version="1.0" encoding="UTF-8" ?>
<!DOCTYPE svg PUBLIC "-//W3C//DTD SVG 1.1//EN" "http://www.w3.org/Graphics/SVG/1.1/DTD/svg11.dtd">
<svg width="60pt" height="60pt" viewBox="0 0 60 60" version="1.1" xmlns="http://www.w3.org/2000/svg">
<g id="#ffffffff">
<path fill="#ffffff" opacity="1.00" d=" M 0.00 0.00 L 60.00 0.00 L 60.00 60.00 L 0.00 60.00 L 0.00 0.00 M 12.61 9.96 C 10.48 10.25 7.73 9.26 6.11 11.07 C 5.68 12.39 6.44 14.05 8.00 13.93 C 10.31 14.10 12.65 14.14 14.95 13.79 C 16.27 12.23 17.35 9.80 19.82 10.04 C 26.59 9.97 33.36 9.97 40.13 10.03 C 42.61 9.77 43.72 12.20 45.04 13.79 C 47.62 14.15 50.28 14.17 52.87 13.79 C 54.38 13.15 54.35 10.82 52.84 10.18 C 51.03 9.91 49.19 9.99 47.37 9.96 C 43.50 4.07 35.84 6.47 29.98 6.00 C 24.11 6.44 16.52 4.10 12.61 9.96 M 6.11 20.86 C 7.46 22.71 10.07 21.75 12.00 22.03 C 12.08 25.64 11.80 29.27 12.15 32.87 C 13.71 34.47 15.99 35.10 17.91 36.18 C 21.98 38.05 25.82 40.45 30.02 42.02 C 34.49 40.35 38.59 37.82 42.92 35.83 C 44.57 34.89 46.59 34.34 47.84 32.84 C 48.21 29.25 47.92 25.63 48.00 22.03 C 49.61 22.00 51.23 22.08 52.83 21.81 C 54.37 21.21 54.37 18.82 52.85 18.20 C 50.31 17.83 47.71 17.87 45.16 18.16 C 42.97 19.97 44.38 23.41 43.97 25.91 C 41.16 26.26 38.46 25.46 36.00 24.16 C 32.30 26.47 27.70 26.48 24.00 24.16 C 21.54 25.46 18.84 26.26 16.03 25.91 C 16.02 23.64 16.13 21.36 15.81 19.10 C 14.50 17.25 11.83 18.23 9.91 17.96 C 8.06 17.71 5.26 18.38 6.11 20.86 M 26.08 52.93 C 26.93 56.93 33.10 56.88 33.93 52.88 C 33.95 49.40 31.77 46.36 29.95 43.55 C 28.28 46.45 25.97 49.44 26.08 52.93 Z" />
</g>
<g id="#000000ff">
<path fill="#000000" opacity="1.00" d=" M 12.61 9.96 C 16.52 4.10 24.11 6.44 29.98 6.00 C 35.84 6.47 43.50 4.07 47.37 9.96 C 49.19 9.99 51.03 9.91 52.84 10.18 C 54.35 10.82 54.38 13.15 52.87 13.79 C 50.28 14.17 47.62 14.15 45.04 13.79 C 43.72 12.20 42.61 9.77 40.13 10.03 C 33.36 9.97 26.59 9.97 19.82 10.04 C 17.35 9.80 16.27 12.23 14.95 13.79 C 12.65 14.14 10.31 14.10 8.00 13.93 C 6.44 14.05 5.68 12.39 6.11 11.07 C 7.73 9.26 10.48 10.25 12.61 9.96 Z" />
<path fill="#000000" opacity="1.00" d=" M 6.11 20.86 C 5.26 18.38 8.06 17.71 9.91 17.96 C 11.83 18.23 14.50 17.25 15.81 19.10 C 16.13 21.36 16.02 23.64 16.03 25.91 C 18.84 26.26 21.54 25.46 24.00 24.16 C 27.70 26.48 32.30 26.47 36.00 24.16 C 38.46 25.46 41.16 26.26 43.97 25.91 C 44.38 23.41 42.97 19.97 45.16 18.16 C 47.71 17.87 50.31 17.83 52.85 18.20 C 54.37 18.82 54.37 21.21 52.83 21.81 C 51.23 22.08 49.61 22.00 48.00 22.03 C 47.92 25.63 48.21 29.25 47.84 32.84 C 46.59 34.34 44.57 34.89 42.92 35.83 C 38.59 37.82 34.49 40.35 30.02 42.02 C 25.82 40.45 21.98 38.05 17.91 36.18 C 15.99 35.10 13.71 34.47 12.15 32.87 C 11.80 29.27 12.08 25.64 12.00 22.03 C 10.07 21.75 7.46 22.71 6.11 20.86 Z" />
<path fill="#000000" opacity="1.00" d=" M 26.08 52.93 C 25.97 49.44 28.28 46.45 29.95 43.55 C 31.77 46.36 33.95 49.40 33.93 52.88 C 33.10 56.88 26.93 56.93 26.08 52.93 Z" />
</g>
</svg>
