<?xml version="1.0" encoding="UTF-8" ?>
<!DOCTYPE svg PUBLIC "-//W3C//DTD SVG 1.1//EN" "http://www.w3.org/Graphics/SVG/1.1/DTD/svg11.dtd">
<svg width="64pt" height="64pt" viewBox="0 0 64 64" version="1.1" xmlns="http://www.w3.org/2000/svg">
<g id="#ffffffff">
<path fill="#ffffff" opacity="1.00" d=" M 0.00 0.00 L 64.00 0.00 L 64.00 64.00 L 0.00 64.00 L 0.00 0.00 M 30.09 14.33 C 29.90 18.22 30.07 22.12 29.96 26.01 C 30.90 21.42 34.45 17.45 39.06 16.39 C 45.89 14.43 53.48 19.83 53.91 26.91 C 54.89 34.47 47.29 41.45 39.83 39.76 C 34.31 38.96 31.43 33.75 27.83 30.14 C 23.60 25.62 16.22 24.78 10.96 27.94 C 3.94 31.76 1.83 41.92 6.72 48.23 C 10.93 54.29 19.79 55.61 25.90 51.70 C 26.09 48.51 25.99 45.32 25.92 42.14 C 24.50 46.05 20.24 48.93 16.04 47.73 C 11.34 46.72 8.59 40.98 10.74 36.67 C 12.58 32.25 18.70 30.58 22.53 33.45 C 25.83 36.16 28.03 39.99 31.46 42.57 C 37.51 47.11 46.46 47.10 52.52 42.58 C 58.92 38.12 61.68 29.26 58.94 21.96 C 56.43 14.55 48.66 9.41 40.86 10.04 C 36.88 10.18 33.26 12.06 30.09 14.33 Z" />
</g>
<g id="#000000ff">
<path fill="#000000" opacity="1.00" d=" M 30.09 14.33 C 33.26 12.06 36.88 10.18 40.86 10.04 C 48.66 9.41 56.43 14.55 58.94 21.96 C 61.68 29.26 58.92 38.12 52.52 42.58 C 46.46 47.10 37.51 47.11 31.46 42.57 C 28.03 39.99 25.83 36.16 22.53 33.45 C 18.70 30.58 12.58 32.25 10.74 36.67 C 8.59 40.98 11.34 46.72 16.04 47.73 C 20.24 48.93 24.50 46.05 25.92 42.14 C 25.99 45.32 26.09 48.51 25.90 51.70 C 19.79 55.61 10.93 54.29 6.72 48.23 C 1.83 41.92 3.94 31.76 10.96 27.94 C 16.22 24.78 23.60 25.62 27.83 30.14 C 31.43 33.75 34.31 38.96 39.83 39.76 C 47.29 41.45 54.89 34.47 53.91 26.91 C 53.48 19.83 45.89 14.43 39.06 16.39 C 34.45 17.45 30.90 21.42 29.96 26.01 C 30.07 22.12 29.90 18.22 30.09 14.33 Z" />
</g>
</svg>
