<?xml version="1.0" encoding="UTF-8" ?>
<!DOCTYPE svg PUBLIC "-//W3C//DTD SVG 1.1//EN" "http://www.w3.org/Graphics/SVG/1.1/DTD/svg11.dtd">
<svg width="60pt" height="60pt" viewBox="0 0 60 60" version="1.1" xmlns="http://www.w3.org/2000/svg">
<g id="#ffffffff">
<path fill="#ffffff" opacity="1.00" d=" M 0.00 0.00 L 60.00 0.00 L 60.00 60.00 L 0.00 60.00 L 0.00 0.00 M 24.49 6.64 C 17.61 8.25 11.55 13.04 8.47 19.40 C 5.08 26.18 5.21 34.57 8.80 41.24 C 12.33 47.98 19.25 52.81 26.81 53.77 C 33.61 54.71 40.80 52.56 45.91 47.94 C 51.25 43.25 54.32 36.09 53.96 28.98 C 53.73 22.35 50.54 15.92 45.47 11.66 C 39.80 6.78 31.75 4.91 24.49 6.64 Z" />
<path fill="#ffffff" opacity="1.00" d=" M 27.16 10.20 C 33.54 9.25 40.29 11.63 44.64 16.39 C 49.48 21.49 51.24 29.25 49.08 35.93 C 46.96 43.05 40.52 48.63 33.17 49.73 C 26.46 50.88 19.29 48.25 14.88 43.08 C 10.19 37.76 8.72 29.85 11.20 23.20 C 13.59 16.36 19.98 11.16 27.16 10.20 Z" />
</g>
<g id="#000000ff">
<path fill="#968176" opacity="1.00" d=" M 24.49 6.64 C 31.75 4.91 39.80 6.78 45.47 11.66 C 50.54 15.92 53.73 22.35 53.96 28.98 C 54.32 36.09 51.25 43.25 45.91 47.94 C 40.80 52.56 33.61 54.71 26.81 53.77 C 19.25 52.81 12.33 47.98 8.80 41.24 C 5.21 34.57 5.08 26.18 8.47 19.40 C 11.55 13.04 17.61 8.25 24.49 6.64 M 27.16 10.20 C 19.98 11.16 13.59 16.36 11.20 23.20 C 8.72 29.85 10.19 37.76 14.88 43.08 C 19.29 48.25 26.46 50.88 33.17 49.73 C 40.52 48.63 46.96 43.05 49.08 35.93 C 51.24 29.25 49.48 21.49 44.64 16.39 C 40.29 11.63 33.54 9.25 27.16 10.20 Z" />
</g>
</svg>
