<?xml version="1.0" encoding="UTF-8" ?>
<!DOCTYPE svg PUBLIC "-//W3C//DTD SVG 1.1//EN" "http://www.w3.org/Graphics/SVG/1.1/DTD/svg11.dtd">
<svg width="60pt" height="60pt" viewBox="0 0 60 60" version="1.1" xmlns="http://www.w3.org/2000/svg">
<g id="#ffffffff">
<path fill="#ffffff" opacity="1.00" d=" M 0.00 0.00 L 60.00 0.00 L 60.00 60.00 L 0.00 60.00 L 0.00 0.00 M 11.47 4.56 C 7.51 6.20 6.81 12.18 10.28 14.69 C 13.57 17.56 19.33 15.37 19.89 11.04 C 20.94 6.50 15.61 2.39 11.47 4.56 M 41.26 13.65 C 43.93 17.42 50.25 16.34 51.70 11.97 C 51.91 15.61 54.59 18.18 58.23 18.19 C 58.18 14.58 55.58 11.82 51.93 11.84 C 52.69 8.08 50.05 3.86 45.97 4.00 C 41.21 3.80 38.14 10.02 41.26 13.65 M 6.06 25.89 C 6.01 30.19 5.78 34.52 6.20 38.80 C 6.65 39.21 7.55 40.04 8.00 40.45 C 8.03 44.31 7.90 48.17 8.07 52.03 C 7.91 54.09 11.18 54.77 11.89 52.83 C 12.70 47.91 12.53 42.89 13.17 37.95 C 13.59 38.08 14.43 38.36 14.85 38.49 C 15.52 43.05 15.34 47.69 15.98 52.25 C 16.09 54.25 18.98 54.59 19.79 52.87 C 20.24 49.02 19.94 45.12 19.96 41.25 C 21.77 42.53 23.52 41.50 24.94 40.17 C 24.54 44.09 24.16 48.02 24.07 51.96 C 23.75 54.02 27.03 54.81 27.75 52.87 C 28.37 50.44 28.55 47.93 28.98 45.47 C 33.04 45.59 30.66 51.15 32.67 53.43 C 33.71 54.73 36.21 53.66 35.92 51.96 C 35.85 48.02 35.46 44.09 35.07 40.17 C 36.50 41.48 38.22 42.53 40.04 41.27 C 40.00 44.85 39.90 48.43 40.07 52.01 C 39.90 54.09 43.18 54.78 43.91 52.82 C 44.51 49.24 44.50 45.59 44.80 41.97 C 45.40 41.98 46.61 42.01 47.22 42.03 C 47.50 45.61 47.47 49.24 48.10 52.79 C 48.76 54.80 52.09 54.09 51.93 52.01 C 52.09 48.74 51.99 45.47 51.99 42.20 C 53.36 41.87 56.16 42.15 55.90 39.99 C 55.04 34.79 53.81 29.64 52.48 24.54 C 50.62 19.52 42.97 18.35 40.16 23.16 C 38.32 27.17 37.95 31.70 36.90 35.97 C 32.83 33.48 27.67 33.38 23.48 35.68 C 22.91 31.55 23.07 27.23 21.73 23.25 C 19.97 19.51 15.32 19.82 11.86 20.03 C 8.76 20.00 5.96 22.78 6.06 25.89 M 28.41 24.34 C 25.64 25.44 25.11 29.70 27.74 31.26 C 30.17 33.24 34.12 31.01 33.99 27.99 C 34.08 25.26 30.90 23.07 28.41 24.34 Z" />
</g>
<g id="#000000ff">
<path fill="#000000" opacity="1.00" d=" M 11.47 4.56 C 15.61 2.39 20.94 6.50 19.89 11.04 C 19.33 15.37 13.57 17.56 10.28 14.69 C 6.81 12.18 7.51 6.20 11.47 4.56 Z" />
<path fill="#000000" opacity="1.00" d=" M 41.26 13.65 C 38.14 10.02 41.21 3.80 45.97 4.00 C 50.05 3.86 52.69 8.08 51.93 11.84 C 55.58 11.82 58.18 14.58 58.23 18.19 C 54.59 18.18 51.91 15.61 51.70 11.97 C 50.25 16.34 43.93 17.42 41.26 13.65 Z" />
<path fill="#000000" opacity="1.00" d=" M 6.06 25.89 C 5.96 22.78 8.76 20.00 11.86 20.03 C 15.32 19.82 19.97 19.51 21.73 23.25 C 23.07 27.23 22.91 31.55 23.48 35.68 C 27.67 33.38 32.83 33.48 36.90 35.97 C 37.95 31.70 38.32 27.17 40.16 23.16 C 42.97 18.35 50.62 19.52 52.48 24.54 C 53.81 29.64 55.04 34.79 55.90 39.99 C 56.16 42.15 53.36 41.87 51.99 42.20 C 51.99 45.47 52.09 48.74 51.93 52.01 C 52.09 54.09 48.76 54.80 48.10 52.79 C 47.47 49.24 47.50 45.61 47.22 42.03 C 46.61 42.01 45.40 41.98 44.80 41.97 C 44.50 45.59 44.51 49.24 43.91 52.82 C 43.18 54.78 39.90 54.09 40.07 52.01 C 39.90 48.43 40.00 44.85 40.04 41.27 C 38.22 42.53 36.50 41.48 35.07 40.17 C 35.46 44.09 35.85 48.02 35.92 51.96 C 36.21 53.66 33.71 54.73 32.67 53.43 C 30.66 51.15 33.04 45.59 28.98 45.47 C 28.55 47.93 28.37 50.44 27.75 52.87 C 27.03 54.81 23.75 54.02 24.07 51.96 C 24.16 48.02 24.54 44.09 24.94 40.17 C 23.52 41.50 21.77 42.53 19.96 41.25 C 19.94 45.12 20.24 49.02 19.79 52.87 C 18.98 54.59 16.09 54.25 15.98 52.25 C 15.34 47.69 15.52 43.05 14.85 38.49 C 14.43 38.36 13.59 38.08 13.17 37.95 C 12.53 42.89 12.70 47.91 11.89 52.83 C 11.18 54.77 7.91 54.09 8.07 52.03 C 7.90 48.17 8.03 44.31 8.00 40.45 C 7.55 40.04 6.65 39.21 6.20 38.80 C 5.78 34.52 6.01 30.19 6.06 25.89 Z" />
<path fill="#000000" opacity="1.00" d=" M 28.41 24.34 C 30.90 23.07 34.08 25.26 33.99 27.99 C 34.12 31.01 30.17 33.24 27.74 31.26 C 25.11 29.70 25.64 25.44 28.41 24.34 Z" />
</g>
</svg>
