<?xml version="1.0" encoding="UTF-8" ?>
<!DOCTYPE svg PUBLIC "-//W3C//DTD SVG 1.1//EN" "http://www.w3.org/Graphics/SVG/1.1/DTD/svg11.dtd">
<svg width="64pt" height="64pt" viewBox="0 0 64 64" version="1.1" xmlns="http://www.w3.org/2000/svg">
<g id="#ffffffff">
<path fill="#ffffff" opacity="1.00" d=" M 0.00 0.00 L 64.00 0.00 L 64.00 64.00 L 0.00 64.00 L 0.00 0.00 M 26.45 8.66 C 19.10 10.37 12.74 15.77 9.86 22.76 C 6.91 29.69 7.53 38.00 11.48 44.42 C 15.34 50.84 22.35 55.26 29.83 55.88 C 38.03 56.71 46.48 52.90 51.30 46.20 C 57.83 37.66 57.43 24.76 50.40 16.63 C 44.78 9.71 35.10 6.52 26.45 8.66 Z" />
<path fill="#ffffff" opacity="1.00" d=" M 29.26 12.19 C 35.61 11.28 42.32 13.63 46.65 18.38 C 51.47 23.46 53.21 31.19 51.11 37.86 C 49.02 45.01 42.56 50.63 35.19 51.73 C 28.47 52.89 21.27 50.27 16.85 45.06 C 12.17 39.74 10.73 31.83 13.20 25.19 C 15.59 18.32 22.04 13.10 29.26 12.19 Z" />
</g>
<g id="#000000ff">
<path fill="#000000" opacity="1.00" d=" M 26.45 8.66 C 35.10 6.52 44.78 9.71 50.40 16.63 C 57.43 24.76 57.83 37.66 51.30 46.20 C 46.48 52.90 38.03 56.71 29.83 55.88 C 22.35 55.26 15.34 50.84 11.48 44.42 C 7.53 38.00 6.91 29.69 9.86 22.76 C 12.74 15.77 19.10 10.37 26.45 8.66 M 29.26 12.19 C 22.04 13.10 15.59 18.32 13.20 25.19 C 10.73 31.83 12.17 39.74 16.85 45.06 C 21.27 50.27 28.47 52.89 35.19 51.73 C 42.56 50.63 49.02 45.01 51.11 37.86 C 53.21 31.19 51.47 23.46 46.65 18.38 C 42.32 13.63 35.61 11.28 29.26 12.19 Z" />
</g>
</svg>
