<?xml version="1.0" encoding="UTF-8" ?>
<!DOCTYPE svg PUBLIC "-//W3C//DTD SVG 1.1//EN" "http://www.w3.org/Graphics/SVG/1.1/DTD/svg11.dtd">
<svg width="60pt" height="60pt" viewBox="0 0 60 60" version="1.1" xmlns="http://www.w3.org/2000/svg">
<g id="#ffffffff">
<path fill="#ffffff" opacity="1.00" d=" M 0.00 0.00 L 60.00 0.00 L 60.00 60.00 L 0.00 60.00 L 0.00 0.00 M 24.47 6.68 C 21.22 8.40 21.23 13.59 24.48 15.31 C 27.60 17.37 32.16 14.67 32.00 10.98 C 32.13 7.30 27.59 4.63 24.47 6.68 M 21.99 31.04 C 22.20 34.62 20.85 39.84 25.06 41.60 C 28.85 42.62 32.51 40.11 36.20 39.40 C 37.79 42.40 39.33 45.44 41.21 48.27 C 42.09 47.76 42.99 47.30 43.93 46.90 C 43.26 42.59 41.22 38.58 39.41 34.65 C 37.34 33.32 34.41 34.27 32.00 34.00 C 32.00 31.33 32.00 28.67 32.00 26.00 C 36.95 25.27 41.95 24.82 46.84 23.78 C 48.75 23.10 48.06 19.82 46.03 20.07 C 39.30 19.99 32.54 19.84 25.82 20.16 C 20.89 21.32 22.09 27.26 21.99 31.04 M 21.38 44.08 C 19.32 47.54 14.89 48.33 12.16 51.14 C 11.24 53.19 13.82 54.84 15.46 53.49 C 19.26 51.17 24.66 50.51 26.82 46.22 C 24.92 45.74 23.08 45.05 21.38 44.08 M 37.77 53.96 C 41.92 54.02 46.08 54.02 50.23 53.96 C 49.68 51.53 48.38 48.98 45.79 48.27 C 42.05 47.24 38.14 50.11 37.77 53.96 Z" />
</g>
<g id="#000000ff">
<path fill="#968176" opacity="1.00" d=" M 24.47 6.68 C 27.59 4.63 32.13 7.30 32.00 10.98 C 32.16 14.67 27.60 17.37 24.48 15.31 C 21.23 13.59 21.22 8.40 24.47 6.68 Z" />
<path fill="#968176" opacity="1.00" d=" M 21.99 31.04 C 22.09 27.26 20.89 21.32 25.82 20.16 C 32.54 19.84 39.30 19.99 46.03 20.07 C 48.06 19.82 48.75 23.10 46.84 23.78 C 41.95 24.82 36.95 25.27 32.00 26.00 C 32.00 28.67 32.00 31.33 32.00 34.00 C 34.41 34.27 37.34 33.32 39.41 34.65 C 41.22 38.58 43.26 42.59 43.93 46.90 C 42.99 47.30 42.09 47.76 41.21 48.27 C 39.33 45.44 37.79 42.40 36.20 39.40 C 32.51 40.11 28.85 42.62 25.06 41.60 C 20.85 39.84 22.20 34.62 21.99 31.04 Z" />
<path fill="#968176" opacity="1.00" d=" M 21.38 44.08 C 23.08 45.05 24.92 45.74 26.82 46.22 C 24.66 50.51 19.26 51.17 15.46 53.49 C 13.82 54.84 11.24 53.19 12.16 51.14 C 14.89 48.33 19.32 47.54 21.38 44.08 Z" />
<path fill="#968176" opacity="1.00" d=" M 37.77 53.96 C 38.14 50.11 42.05 47.24 45.79 48.27 C 48.38 48.98 49.68 51.53 50.23 53.96 C 46.08 54.02 41.92 54.02 37.77 53.96 Z" />
</g>
</svg>
