<?xml version="1.0" encoding="UTF-8" ?>
<!DOCTYPE svg PUBLIC "-//W3C//DTD SVG 1.1//EN" "http://www.w3.org/Graphics/SVG/1.1/DTD/svg11.dtd">
<svg width="60pt" height="60pt" viewBox="0 0 60 60" version="1.1" xmlns="http://www.w3.org/2000/svg">
<g id="#ffffffff">
<path fill="#ffffff" opacity="1.00" d=" M 0.00 0.00 L 60.00 0.00 L 60.00 60.00 L 0.00 60.00 L 0.00 0.00 M 20.08 5.80 C 20.16 7.27 21.30 8.43 21.88 9.74 C 21.02 9.97 19.29 10.41 18.42 10.63 C 16.53 9.56 14.51 7.97 12.23 8.26 C 11.56 9.69 12.51 10.62 13.57 11.41 C 13.93 12.13 14.30 12.84 14.66 13.55 C 14.11 13.97 13.01 14.79 12.45 15.20 C 10.61 13.27 8.14 14.83 5.99 15.16 C 5.21 16.29 4.45 17.43 3.68 18.56 C 5.38 20.39 7.59 19.28 9.57 18.62 C 9.96 19.19 10.73 20.34 11.11 20.91 C 8.95 22.39 6.68 23.89 5.48 26.33 C 7.62 26.37 9.77 26.34 11.91 26.38 C 11.57 27.24 11.22 28.11 10.88 28.97 C 9.08 30.45 7.43 32.61 8.09 35.10 C 8.37 37.30 10.36 38.51 12.02 39.65 C 12.38 43.10 12.94 46.89 15.61 49.39 C 19.66 53.30 25.65 53.91 31.01 54.00 C 35.46 54.22 39.52 52.17 43.83 51.49 C 46.78 51.07 48.69 48.65 49.91 46.15 C 51.42 45.33 53.40 44.70 53.83 42.80 C 54.57 40.50 52.63 38.61 51.69 36.71 C 52.16 34.10 52.25 31.45 52.08 28.81 C 49.18 27.28 48.88 23.21 45.89 21.47 C 46.97 21.61 49.12 21.91 50.20 22.06 C 49.01 18.49 45.31 16.69 43.25 13.68 C 44.26 11.95 46.11 11.13 47.68 10.02 C 46.52 9.30 45.36 8.58 44.21 7.86 C 41.73 8.58 39.64 10.07 37.72 11.75 C 37.39 11.23 36.72 10.20 36.38 9.68 C 37.24 7.71 39.98 7.30 40.42 4.96 C 37.47 3.06 34.73 4.93 32.20 6.54 C 30.80 7.60 29.31 8.55 27.88 9.57 C 27.34 9.30 26.26 8.76 25.72 8.49 C 25.11 6.76 24.04 5.27 23.00 3.78 C 21.90 4.26 20.02 4.16 20.08 5.80 Z" />
<path fill="#ffffff" opacity="1.00" d=" M 25.66 18.24 C 26.80 18.14 27.93 18.03 29.07 17.91 C 30.10 18.63 31.15 19.34 32.22 20.00 C 33.46 21.13 34.60 22.57 36.32 22.94 C 37.93 22.35 36.92 20.42 37.14 19.16 C 37.78 19.28 39.07 19.50 39.71 19.61 C 42.07 22.31 43.88 25.43 46.34 28.05 C 44.32 27.89 42.29 27.77 40.26 27.71 C 41.11 29.70 42.20 31.58 43.40 33.38 C 42.26 33.66 41.13 33.94 40.00 34.24 C 38.61 33.94 37.22 33.65 35.82 33.41 C 35.91 31.42 35.98 29.44 36.03 27.46 C 32.03 26.63 27.97 26.16 23.90 25.94 C 23.67 28.63 23.66 31.34 23.90 34.03 C 26.48 34.17 29.06 34.28 31.64 34.20 C 32.19 35.76 32.78 38.04 34.95 37.73 C 38.86 38.02 44.68 39.21 46.63 34.72 C 47.25 37.36 48.73 39.65 50.02 41.99 C 41.30 42.05 32.17 37.71 23.79 41.90 C 21.82 42.34 21.25 45.07 23.22 45.95 C 26.23 45.65 28.96 43.90 32.05 44.05 C 36.74 44.14 41.32 45.29 45.94 46.02 C 42.77 48.32 38.63 47.96 35.14 49.55 C 30.17 50.42 24.70 50.14 20.12 47.85 C 17.37 46.50 16.54 43.37 16.08 40.59 C 17.03 39.63 18.24 38.67 17.94 37.13 C 16.31 35.12 11.09 36.76 12.11 33.05 C 13.72 32.03 15.68 32.01 17.48 31.58 C 18.57 31.75 19.67 31.83 20.77 31.80 C 21.41 30.89 22.57 29.46 21.62 28.38 C 20.26 26.64 19.73 24.51 19.15 22.43 C 19.39 21.80 19.88 20.56 20.12 19.93 C 22.04 20.39 23.74 22.20 25.80 21.70 C 26.43 20.57 25.97 19.37 25.66 18.24 Z" />
<path fill="#ffffff" opacity="1.00" d=" M 30.08 31.44 C 27.80 32.26 27.71 27.94 30.00 28.58 C 31.17 29.50 31.19 30.45 30.08 31.44 Z" />
<path fill="#ffffff" opacity="1.00" d=" M 44.17 30.17 C 45.79 29.65 46.34 30.20 45.82 31.82 C 44.20 32.34 43.65 31.79 44.17 30.17 Z" />
</g>
<g id="#000000ff">
<path fill="#968176" opacity="1.00" d=" M 20.08 5.80 C 20.02 4.16 21.90 4.26 23.00 3.78 C 24.04 5.27 25.11 6.76 25.72 8.49 C 26.26 8.76 27.34 9.30 27.88 9.57 C 29.31 8.55 30.80 7.60 32.20 6.54 C 34.73 4.93 37.47 3.06 40.42 4.96 C 39.98 7.30 37.24 7.71 36.38 9.68 C 36.72 10.20 37.39 11.23 37.72 11.75 C 39.64 10.07 41.73 8.58 44.21 7.86 C 45.36 8.58 46.52 9.30 47.68 10.02 C 46.11 11.13 44.26 11.95 43.25 13.68 C 45.31 16.69 49.01 18.49 50.20 22.06 C 49.12 21.91 46.97 21.61 45.89 21.47 C 48.88 23.21 49.18 27.28 52.08 28.81 C 52.25 31.45 52.16 34.10 51.69 36.71 C 52.63 38.61 54.57 40.50 53.83 42.80 C 53.40 44.70 51.42 45.33 49.91 46.15 C 48.69 48.65 46.78 51.07 43.83 51.49 C 39.52 52.17 35.46 54.22 31.01 54.00 C 25.65 53.91 19.66 53.30 15.61 49.39 C 12.94 46.89 12.38 43.10 12.02 39.65 C 10.36 38.51 8.37 37.30 8.09 35.10 C 7.43 32.61 9.08 30.45 10.88 28.97 C 11.22 28.11 11.57 27.24 11.91 26.38 C 9.77 26.34 7.62 26.37 5.48 26.33 C 6.68 23.89 8.95 22.39 11.11 20.91 C 10.73 20.34 9.96 19.19 9.57 18.62 C 7.59 19.28 5.38 20.39 3.68 18.56 C 4.45 17.43 5.21 16.29 5.99 15.16 C 8.14 14.83 10.61 13.27 12.45 15.20 C 13.01 14.79 14.11 13.97 14.66 13.55 C 14.30 12.84 13.93 12.13 13.57 11.41 C 12.51 10.62 11.56 9.69 12.23 8.26 C 14.51 7.97 16.53 9.56 18.42 10.63 C 19.29 10.41 21.02 9.97 21.88 9.74 C 21.30 8.43 20.16 7.27 20.08 5.80 M 25.66 18.24 C 25.97 19.37 26.43 20.57 25.80 21.70 C 23.74 22.20 22.04 20.39 20.12 19.93 C 19.88 20.56 19.39 21.80 19.15 22.43 C 19.73 24.51 20.26 26.64 21.62 28.38 C 22.57 29.46 21.41 30.89 20.77 31.80 C 19.67 31.83 18.57 31.75 17.48 31.58 C 15.68 32.01 13.72 32.03 12.11 33.05 C 11.09 36.76 16.31 35.12 17.94 37.13 C 18.24 38.67 17.03 39.63 16.08 40.59 C 16.54 43.37 17.37 46.50 20.12 47.85 C 24.70 50.14 30.17 50.42 35.14 49.55 C 38.63 47.96 42.77 48.32 45.94 46.02 C 41.32 45.29 36.74 44.14 32.05 44.05 C 28.96 43.90 26.23 45.65 23.22 45.95 C 21.25 45.07 21.82 42.34 23.79 41.90 C 32.17 37.71 41.30 42.05 50.02 41.99 C 48.73 39.65 47.25 37.36 46.63 34.72 C 44.68 39.21 38.86 38.02 34.95 37.73 C 32.78 38.04 32.19 35.76 31.64 34.20 C 29.06 34.28 26.48 34.17 23.90 34.03 C 23.66 31.34 23.67 28.63 23.90 25.94 C 27.97 26.16 32.03 26.63 36.03 27.46 C 35.98 29.44 35.91 31.42 35.82 33.41 C 37.22 33.65 38.61 33.94 40.00 34.24 C 41.13 33.94 42.26 33.66 43.40 33.38 C 42.20 31.58 41.11 29.70 40.26 27.71 C 42.29 27.77 44.32 27.89 46.34 28.05 C 43.88 25.43 42.07 22.31 39.71 19.61 C 39.07 19.50 37.78 19.28 37.14 19.16 C 36.92 20.42 37.93 22.35 36.32 22.94 C 34.60 22.57 33.46 21.13 32.22 20.00 C 31.15 19.34 30.10 18.63 29.07 17.91 C 27.93 18.03 26.80 18.14 25.66 18.24 M 30.08 31.44 C 31.19 30.45 31.17 29.50 30.00 28.58 C 27.71 27.94 27.80 32.26 30.08 31.44 M 44.17 30.17 C 43.65 31.79 44.20 32.34 45.82 31.82 C 46.34 30.20 45.79 29.65 44.17 30.17 Z" />
</g>
</svg>
