<?xml version="1.0" encoding="UTF-8" ?>
<!DOCTYPE svg PUBLIC "-//W3C//DTD SVG 1.1//EN" "http://www.w3.org/Graphics/SVG/1.1/DTD/svg11.dtd">
<svg width="60pt" height="60pt" viewBox="0 0 60 60" version="1.1" xmlns="http://www.w3.org/2000/svg">
<g id="#ffffffff">
<path fill="#ffffff" opacity="1.00" d=" M 0.00 0.00 L 60.00 0.00 L 60.00 60.00 L 0.00 60.00 L 0.00 0.00 M 38.11 2.05 C 38.77 4.66 39.47 7.26 40.15 9.86 C 38.10 6.59 35.52 3.63 32.11 1.73 C 32.76 4.45 33.46 7.15 34.10 9.87 C 28.20 8.00 20.75 6.37 15.76 11.15 C 14.43 10.08 13.10 9.01 11.76 7.96 C 12.17 9.99 12.79 11.97 13.73 13.81 C 11.68 14.26 9.70 14.97 7.79 15.83 C 9.51 16.59 11.23 17.33 12.96 18.07 C 11.92 20.23 10.98 22.55 11.25 25.01 C 11.18 28.06 13.83 30.16 14.22 33.09 C 14.42 35.28 16.16 36.66 17.86 37.79 C 17.67 42.61 16.72 47.33 16.10 52.09 C 15.73 54.16 19.36 54.87 19.77 52.75 C 21.23 46.99 22.12 41.00 21.87 35.05 C 20.38 33.79 17.17 33.72 18.04 31.04 C 19.01 29.85 20.80 30.17 22.13 29.75 C 22.40 26.39 21.90 22.98 19.81 20.24 C 21.44 20.75 23.09 21.22 24.74 21.66 C 23.58 20.05 22.35 18.49 21.09 16.97 C 26.74 17.81 32.29 19.19 37.85 20.47 C 34.49 21.69 30.98 18.82 27.74 20.76 C 23.08 22.87 22.74 30.26 27.09 32.87 C 29.55 34.58 32.65 33.96 35.25 32.97 C 37.04 33.57 38.84 34.17 40.54 35.02 C 38.99 36.09 35.13 35.99 36.12 38.78 C 37.07 40.78 39.47 39.54 41.13 39.60 C 41.99 40.39 42.85 41.19 43.71 41.99 C 38.63 42.11 33.53 41.69 28.64 40.27 C 26.70 39.14 24.95 42.13 26.62 43.45 C 30.12 45.52 34.36 45.18 38.25 45.80 C 35.99 48.60 30.65 47.91 30.01 51.98 C 30.05 54.77 33.14 54.08 34.41 52.55 C 37.81 51.75 40.82 49.63 41.96 46.21 C 44.18 45.84 47.20 45.59 47.84 42.91 C 48.66 40.08 45.54 38.46 44.00 36.60 C 43.88 35.22 43.73 33.85 43.56 32.47 C 46.18 29.79 46.83 25.54 44.32 22.56 C 41.97 18.99 47.05 15.78 45.78 12.12 C 44.42 8.01 41.06 5.05 38.11 2.05 Z" />
<path fill="#ffffff" opacity="1.00" d=" M 29.30 24.45 C 31.18 23.15 34.20 24.61 34.01 27.02 C 34.18 29.39 31.22 30.80 29.36 29.58 C 27.59 28.54 27.56 25.53 29.30 24.45 M 30.17 26.17 C 29.65 27.79 30.20 28.34 31.82 27.82 C 32.34 26.20 31.79 25.65 30.17 26.17 Z" />
<path fill="#ffffff" opacity="1.00" d=" M 37.31 23.78 C 39.30 23.96 42.06 24.42 42.02 27.02 C 42.04 29.43 39.55 29.92 37.71 30.32 C 37.75 29.68 37.83 28.40 37.87 27.76 C 38.40 27.76 39.47 27.76 40.01 27.76 C 40.01 27.48 40.00 26.91 40.00 26.63 C 38.55 26.22 37.65 25.27 37.31 23.78 Z" />
</g>
<g id="#000000ff">
<path fill="#000000" opacity="1.00" d=" M 38.11 2.05 C 41.06 5.05 44.42 8.01 45.78 12.12 C 47.05 15.78 41.97 18.99 44.32 22.56 C 46.83 25.54 46.18 29.79 43.56 32.47 C 43.73 33.85 43.88 35.22 44.00 36.60 C 45.54 38.46 48.66 40.08 47.84 42.91 C 47.20 45.59 44.18 45.84 41.96 46.21 C 40.82 49.63 37.81 51.75 34.41 52.55 C 33.14 54.08 30.05 54.77 30.01 51.98 C 30.65 47.91 35.99 48.60 38.25 45.80 C 34.36 45.18 30.12 45.52 26.62 43.45 C 24.95 42.13 26.70 39.14 28.64 40.27 C 33.53 41.69 38.63 42.11 43.71 41.99 C 42.85 41.19 41.99 40.39 41.13 39.60 C 39.47 39.54 37.07 40.78 36.12 38.78 C 35.13 35.99 38.99 36.09 40.54 35.02 C 38.84 34.17 37.04 33.57 35.25 32.97 C 32.65 33.96 29.55 34.58 27.09 32.87 C 22.74 30.26 23.08 22.87 27.74 20.76 C 30.98 18.82 34.49 21.69 37.85 20.47 C 32.29 19.19 26.74 17.81 21.09 16.97 C 22.35 18.49 23.58 20.05 24.74 21.66 C 23.09 21.22 21.44 20.75 19.81 20.24 C 21.90 22.98 22.40 26.39 22.13 29.75 C 20.80 30.17 19.01 29.85 18.04 31.04 C 17.17 33.72 20.38 33.79 21.87 35.05 C 22.12 41.00 21.23 46.99 19.77 52.75 C 19.36 54.87 15.73 54.16 16.10 52.09 C 16.72 47.33 17.67 42.61 17.86 37.79 C 16.16 36.66 14.42 35.28 14.22 33.09 C 13.83 30.16 11.18 28.06 11.25 25.01 C 10.98 22.55 11.92 20.23 12.96 18.07 C 11.23 17.33 9.51 16.59 7.79 15.83 C 9.70 14.97 11.68 14.26 13.73 13.81 C 12.79 11.97 12.17 9.99 11.76 7.96 C 13.10 9.01 14.43 10.08 15.76 11.15 C 20.75 6.37 28.20 8.00 34.10 9.87 C 33.46 7.15 32.76 4.45 32.11 1.73 C 35.52 3.63 38.10 6.59 40.15 9.86 C 39.47 7.26 38.77 4.66 38.11 2.05 M 29.30 24.45 C 27.56 25.53 27.59 28.54 29.36 29.58 C 31.22 30.80 34.18 29.39 34.01 27.02 C 34.20 24.61 31.18 23.15 29.30 24.45 M 37.31 23.78 C 37.65 25.27 38.55 26.22 40.00 26.63 C 40.00 26.91 40.01 27.48 40.01 27.76 C 39.47 27.76 38.40 27.76 37.87 27.76 C 37.83 28.40 37.75 29.68 37.71 30.32 C 39.55 29.92 42.04 29.43 42.02 27.02 C 42.06 24.42 39.30 23.96 37.31 23.78 Z" />
<path fill="#000000" opacity="1.00" d=" M 30.17 26.17 C 31.79 25.65 32.34 26.20 31.82 27.82 C 30.20 28.34 29.65 27.79 30.17 26.17 Z" />
</g>
</svg>
