<?xml version="1.0" encoding="UTF-8" ?>
<!DOCTYPE svg PUBLIC "-//W3C//DTD SVG 1.1//EN" "http://www.w3.org/Graphics/SVG/1.1/DTD/svg11.dtd">
<svg width="64pt" height="64pt" viewBox="0 0 64 64" version="1.1" xmlns="http://www.w3.org/2000/svg">
<g id="#ffffffff">
<path fill="#ffffff" opacity="1.00" d=" M 0.00 0.00 L 64.00 0.00 L 64.00 64.00 L 0.00 64.00 L 0.00 0.00 M 11.82 8.59 C 13.15 21.19 14.52 33.79 15.78 46.40 C 16.01 47.94 15.58 50.33 17.84 50.20 C 17.82 54.16 20.81 58.12 25.01 57.99 C 29.29 58.11 32.24 54.01 32.18 50.00 C 32.59 50.00 33.41 50.00 33.82 50.00 C 33.75 54.01 36.70 58.11 40.98 57.99 C 45.19 58.12 48.16 54.16 48.16 50.20 C 48.56 50.09 49.34 49.86 49.74 49.75 C 51.43 36.04 52.64 22.25 54.19 8.52 C 48.34 6.84 42.16 5.14 36.07 6.54 C 32.35 7.54 28.68 5.87 24.94 6.03 C 20.44 5.99 16.09 7.33 11.82 8.59 Z" />
<path fill="#ffffff" opacity="1.00" d=" M 16.18 11.41 C 21.93 9.61 28.07 9.71 33.82 11.47 C 32.60 22.98 31.43 34.50 30.19 46.00 C 26.73 46.00 23.27 46.00 19.81 46.00 C 18.61 34.47 17.40 22.94 16.18 11.41 M 23.14 14.12 C 20.85 15.27 22.44 18.86 24.85 17.88 C 27.14 16.73 25.56 13.13 23.14 14.12 M 23.17 22.11 C 20.84 23.12 22.45 26.95 24.78 25.82 C 27.21 24.87 25.55 21.09 23.17 22.11 M 23.25 30.09 C 20.81 31.02 22.37 34.92 24.76 33.83 C 27.19 32.95 25.60 29.14 23.25 30.09 M 23.15 38.10 C 20.86 39.25 22.43 42.85 24.82 41.88 C 27.16 40.79 25.58 37.14 23.15 38.10 Z" />
<path fill="#ffffff" opacity="1.00" d=" M 38.00 10.10 C 42.00 9.83 45.96 10.43 49.82 11.47 C 48.60 22.98 47.40 34.49 46.19 46.00 C 42.73 46.00 39.28 46.00 35.82 46.00 C 35.49 42.69 34.95 39.37 35.27 36.04 C 36.23 27.40 37.11 18.75 38.00 10.10 M 41.23 14.09 C 38.83 15.13 40.39 18.87 42.84 17.89 C 45.09 16.79 43.63 13.18 41.23 14.09 M 41.17 22.10 C 38.88 23.20 40.38 26.83 42.80 25.90 C 45.14 24.83 43.61 21.13 41.17 22.10 M 41.12 30.11 C 38.87 31.31 40.43 34.82 42.83 33.89 C 45.15 32.74 43.56 29.12 41.12 30.11 M 41.13 38.11 C 38.87 39.27 40.44 42.85 42.81 41.89 C 45.17 40.78 43.55 37.11 41.13 38.11 Z" />
<path fill="#ffffff" opacity="1.00" d=" M 21.77 50.00 C 23.92 50.00 26.08 50.00 28.23 50.00 C 27.92 51.74 27.26 54.17 24.98 53.95 C 22.72 54.16 22.07 51.73 21.77 50.00 Z" />
<path fill="#ffffff" opacity="1.00" d=" M 37.77 50.00 C 39.92 50.00 42.08 50.00 44.23 50.00 C 43.92 51.75 43.27 54.14 41.00 53.97 C 38.73 54.14 38.07 51.75 37.77 50.00 Z" />
</g>
<g id="#000000ff">
<path fill="#000000" opacity="1.00" d=" M 11.82 8.59 C 16.09 7.33 20.44 5.99 24.94 6.03 C 28.68 5.87 32.35 7.54 36.07 6.54 C 42.16 5.14 48.34 6.84 54.19 8.52 C 52.64 22.25 51.43 36.04 49.74 49.75 C 49.34 49.86 48.56 50.09 48.16 50.20 C 48.16 54.16 45.19 58.12 40.98 57.99 C 36.70 58.11 33.75 54.01 33.82 50.00 C 33.41 50.00 32.59 50.00 32.18 50.00 C 32.24 54.01 29.29 58.11 25.01 57.99 C 20.81 58.12 17.82 54.16 17.84 50.20 C 15.58 50.33 16.01 47.94 15.78 46.40 C 14.52 33.79 13.15 21.19 11.82 8.59 M 16.18 11.41 C 17.40 22.94 18.61 34.47 19.81 46.00 C 23.27 46.00 26.73 46.00 30.19 46.00 C 31.43 34.50 32.60 22.98 33.82 11.47 C 28.07 9.71 21.93 9.61 16.18 11.41 M 38.00 10.10 C 37.11 18.75 36.23 27.40 35.27 36.04 C 34.95 39.37 35.49 42.69 35.82 46.00 C 39.28 46.00 42.73 46.00 46.19 46.00 C 47.40 34.49 48.60 22.98 49.82 11.47 C 45.96 10.43 42.00 9.83 38.00 10.10 M 21.77 50.00 C 22.07 51.73 22.72 54.16 24.98 53.95 C 27.26 54.17 27.92 51.74 28.23 50.00 C 26.08 50.00 23.92 50.00 21.77 50.00 M 37.77 50.00 C 38.07 51.75 38.73 54.14 41.00 53.97 C 43.27 54.14 43.92 51.75 44.23 50.00 C 42.08 50.00 39.92 50.00 37.77 50.00 Z" />
<path fill="#000000" opacity="1.00" d=" M 23.14 14.12 C 25.56 13.13 27.14 16.73 24.85 17.88 C 22.44 18.86 20.85 15.27 23.14 14.12 Z" />
<path fill="#000000" opacity="1.00" d=" M 41.23 14.09 C 43.63 13.18 45.09 16.79 42.84 17.89 C 40.39 18.87 38.83 15.13 41.23 14.09 Z" />
<path fill="#000000" opacity="1.00" d=" M 23.17 22.11 C 25.55 21.09 27.21 24.87 24.78 25.82 C 22.45 26.95 20.84 23.12 23.17 22.11 Z" />
<path fill="#000000" opacity="1.00" d=" M 41.17 22.10 C 43.61 21.13 45.14 24.83 42.80 25.90 C 40.38 26.83 38.88 23.20 41.17 22.10 Z" />
<path fill="#000000" opacity="1.00" d=" M 23.25 30.09 C 25.60 29.14 27.19 32.95 24.76 33.83 C 22.37 34.92 20.81 31.02 23.25 30.09 Z" />
<path fill="#000000" opacity="1.00" d=" M 41.12 30.11 C 43.56 29.12 45.15 32.74 42.83 33.89 C 40.43 34.82 38.87 31.31 41.12 30.11 Z" />
<path fill="#000000" opacity="1.00" d=" M 23.15 38.10 C 25.58 37.14 27.16 40.79 24.82 41.88 C 22.43 42.85 20.86 39.25 23.15 38.10 Z" />
<path fill="#000000" opacity="1.00" d=" M 41.13 38.11 C 43.55 37.11 45.17 40.78 42.81 41.89 C 40.44 42.85 38.87 39.27 41.13 38.11 Z" />
</g>
</svg>
