<?xml version="1.0" encoding="UTF-8" ?>
<!DOCTYPE svg PUBLIC "-//W3C//DTD SVG 1.1//EN" "http://www.w3.org/Graphics/SVG/1.1/DTD/svg11.dtd">
<svg width="64pt" height="64pt" viewBox="0 0 64 64" version="1.1" xmlns="http://www.w3.org/2000/svg">
<g id="#ffffffff">
<path fill="#ffffff" opacity="1.00" d=" M 0.00 0.00 L 64.00 0.00 L 64.00 64.00 L 0.00 64.00 L 0.00 0.00 M 17.81 16.81 C 10.82 24.09 6.58 33.92 5.91 43.98 C 7.24 44.00 8.57 44.00 9.90 44.00 C 10.48 36.16 13.47 28.55 18.28 22.33 C 21.70 18.00 26.28 14.01 31.95 13.25 C 35.61 12.61 40.15 13.14 42.29 16.58 C 45.68 22.03 43.61 29.21 39.96 34.00 C 38.49 35.75 36.85 38.31 34.21 37.92 C 31.95 37.10 33.27 34.64 34.34 33.41 C 37.11 29.81 39.15 24.53 36.84 20.22 C 34.61 16.79 29.73 18.00 26.80 19.80 C 19.32 24.58 14.30 33.16 13.96 42.04 C 13.81 47.86 17.49 54.12 23.44 55.40 C 33.58 57.50 44.79 53.23 50.92 44.86 C 56.15 37.72 57.74 28.67 58.05 20.01 C 56.71 20.00 55.37 20.00 54.03 20.00 C 53.85 27.65 52.53 35.64 48.04 42.03 C 43.51 48.13 35.75 52.57 27.99 51.04 C 24.04 50.42 20.38 47.29 20.03 43.16 C 19.48 37.05 22.61 31.13 26.99 27.05 C 28.06 25.91 30.08 25.48 31.05 26.99 C 30.78 30.32 27.44 32.25 26.56 35.38 C 24.89 39.32 26.56 44.94 31.15 45.84 C 36.37 46.65 41.41 43.52 44.32 39.37 C 48.47 33.50 50.48 26.09 49.66 18.94 C 49.07 14.18 45.91 9.28 40.91 8.36 C 32.41 6.86 23.72 10.81 17.81 16.81 Z" />
</g>
<g id="#000000ff">
<path fill="#000000" opacity="1.00" d=" M 17.81 16.81 C 23.72 10.81 32.41 6.86 40.91 8.36 C 45.91 9.28 49.07 14.18 49.66 18.94 C 50.48 26.09 48.47 33.50 44.32 39.37 C 41.41 43.52 36.37 46.65 31.15 45.84 C 26.56 44.94 24.89 39.32 26.56 35.38 C 27.44 32.25 30.78 30.32 31.05 26.99 C 30.08 25.48 28.06 25.91 26.99 27.05 C 22.61 31.13 19.48 37.05 20.03 43.16 C 20.38 47.29 24.04 50.42 27.99 51.04 C 35.75 52.57 43.51 48.13 48.04 42.03 C 52.53 35.64 53.85 27.65 54.03 20.00 C 55.37 20.00 56.71 20.00 58.05 20.01 C 57.74 28.67 56.15 37.72 50.92 44.86 C 44.79 53.23 33.58 57.50 23.44 55.40 C 17.49 54.12 13.81 47.86 13.96 42.04 C 14.30 33.16 19.32 24.58 26.80 19.80 C 29.73 18.00 34.61 16.79 36.84 20.22 C 39.15 24.53 37.11 29.81 34.34 33.41 C 33.27 34.64 31.95 37.10 34.21 37.92 C 36.85 38.31 38.49 35.75 39.96 34.00 C 43.61 29.21 45.68 22.03 42.29 16.58 C 40.15 13.14 35.61 12.61 31.95 13.25 C 26.28 14.01 21.70 18.00 18.28 22.33 C 13.47 28.55 10.48 36.16 9.90 44.00 C 8.57 44.00 7.24 44.00 5.91 43.98 C 6.58 33.92 10.82 24.09 17.81 16.81 Z" />
</g>
</svg>
