<?xml version="1.0" encoding="UTF-8" ?>
<!DOCTYPE svg PUBLIC "-//W3C//DTD SVG 1.1//EN" "http://www.w3.org/Graphics/SVG/1.1/DTD/svg11.dtd">
<svg width="64pt" height="64pt" viewBox="0 0 64 64" version="1.1" xmlns="http://www.w3.org/2000/svg">
<g id="#ffffffff">
<path fill="#ffffff" opacity="1.00" d=" M 0.00 0.00 L 64.00 0.00 L 64.00 64.00 L 0.00 64.00 L 0.00 0.00 M 17.83 12.01 C 18.02 13.41 18.10 14.87 18.86 16.11 C 22.50 23.05 26.49 29.82 29.87 36.88 C 30.21 41.91 29.89 46.96 30.00 52.00 C 31.33 52.00 32.67 52.00 34.00 52.00 C 34.63 45.45 32.22 38.08 36.38 32.36 C 39.32 26.94 42.22 21.49 45.16 16.07 C 45.92 14.84 45.96 13.39 46.17 12.01 C 44.88 12.00 43.58 12.00 42.29 12.00 C 39.65 19.06 35.34 25.37 32.00 32.11 C 28.67 25.36 24.36 19.05 21.71 12.00 C 20.42 12.00 19.13 12.00 17.83 12.01 Z" />
</g>
<g id="#000000ff">
<path fill="#000000" opacity="1.00" d=" M 17.83 12.01 C 19.13 12.00 20.42 12.00 21.71 12.00 C 24.36 19.05 28.67 25.36 32.00 32.11 C 35.34 25.37 39.65 19.06 42.29 12.00 C 43.58 12.00 44.88 12.00 46.17 12.01 C 45.96 13.39 45.92 14.84 45.16 16.07 C 42.22 21.49 39.32 26.94 36.38 32.36 C 32.22 38.08 34.63 45.45 34.00 52.00 C 32.67 52.00 31.33 52.00 30.00 52.00 C 29.89 46.96 30.21 41.91 29.87 36.88 C 26.49 29.82 22.50 23.05 18.86 16.11 C 18.10 14.87 18.02 13.41 17.83 12.01 Z" />
</g>
</svg>
