<?xml version="1.0" encoding="UTF-8" ?>
<!DOCTYPE svg PUBLIC "-//W3C//DTD SVG 1.1//EN" "http://www.w3.org/Graphics/SVG/1.1/DTD/svg11.dtd">
<svg width="60pt" height="60pt" viewBox="0 0 60 60" version="1.1" xmlns="http://www.w3.org/2000/svg">
<g id="#ffffffff">
<path fill="#ffffff" opacity="1.00" d=" M 0.00 0.00 L 60.00 0.00 L 60.00 60.00 L 0.00 60.00 L 0.00 0.00 M 27.73 6.72 C 21.96 9.91 16.22 13.15 10.44 16.34 C 8.65 17.11 7.80 19.04 8.00 20.91 C 8.02 29.96 7.94 39.02 8.04 48.06 C 7.88 50.37 10.06 51.65 11.97 52.22 C 12.05 41.48 11.98 30.74 12.00 20.00 C 24.00 20.00 36.00 20.00 48.00 20.00 C 48.02 30.74 47.96 41.48 48.03 52.22 C 49.91 51.67 52.02 50.37 51.95 48.15 C 52.04 38.74 52.04 29.31 51.95 19.90 C 52.06 17.71 50.02 16.51 48.36 15.61 C 42.96 12.69 37.65 9.59 32.24 6.69 C 30.86 5.83 29.10 5.80 27.73 6.72 M 16.00 24.00 C 16.00 33.33 16.00 42.67 16.00 52.00 C 19.93 52.00 23.86 51.99 27.79 52.01 C 28.09 51.51 28.68 50.50 28.98 49.99 C 30.55 49.81 31.64 50.61 32.31 51.98 C 36.21 52.02 40.10 51.99 44.00 52.00 C 44.00 42.67 44.00 33.33 44.00 24.00 C 34.67 24.00 25.33 24.00 16.00 24.00 Z" />
</g>
<g id="#000000ff">
<path fill="#968176" opacity="1.00" d=" M 27.73 6.72 C 29.10 5.80 30.86 5.83 32.24 6.69 C 37.65 9.59 42.96 12.69 48.36 15.61 C 50.02 16.51 52.06 17.71 51.95 19.90 C 52.04 29.31 52.04 38.74 51.95 48.15 C 52.02 50.37 49.91 51.67 48.03 52.22 C 47.96 41.48 48.02 30.74 48.00 20.00 C 36.00 20.00 24.00 20.00 12.00 20.00 C 11.98 30.74 12.05 41.48 11.97 52.22 C 10.06 51.65 7.88 50.37 8.04 48.06 C 7.94 39.02 8.02 29.96 8.00 20.91 C 7.80 19.04 8.65 17.11 10.44 16.34 C 16.22 13.15 21.96 9.91 27.73 6.72 Z" />
<path fill="#968176" opacity="1.00" d=" M 16.00 24.00 C 25.33 24.00 34.67 24.00 44.00 24.00 C 44.00 33.33 44.00 42.67 44.00 52.00 C 40.10 51.99 36.21 52.02 32.31 51.98 C 31.64 50.61 30.55 49.81 28.98 49.99 C 28.68 50.50 28.09 51.51 27.79 52.01 C 23.86 51.99 19.93 52.00 16.00 52.00 C 16.00 42.67 16.00 33.33 16.00 24.00 Z" />
</g>
</svg>
