<?xml version="1.0" encoding="UTF-8" ?>
<!DOCTYPE svg PUBLIC "-//W3C//DTD SVG 1.1//EN" "http://www.w3.org/Graphics/SVG/1.1/DTD/svg11.dtd">
<svg width="60pt" height="60pt" viewBox="0 0 60 60" version="1.1" xmlns="http://www.w3.org/2000/svg">
<g id="#ffffffff">
<path fill="#ffffff" opacity="1.00" d=" M 0.00 0.00 L 60.00 0.00 L 60.00 60.00 L 0.00 60.00 L 0.00 0.00 M 29.20 6.10 C 23.39 8.77 18.00 12.32 12.31 15.25 C 10.47 16.29 7.90 17.40 8.06 19.94 C 7.95 29.33 7.96 38.73 8.06 48.12 C 7.95 50.67 10.63 52.33 12.97 52.00 C 24.67 51.97 36.38 52.08 48.08 51.95 C 50.62 52.01 52.34 49.40 52.00 47.04 C 51.96 37.99 52.10 28.93 51.93 19.88 C 52.02 17.09 49.01 16.05 47.05 14.84 C 41.58 12.05 36.43 8.62 30.83 6.11 C 30.42 6.11 29.61 6.10 29.20 6.10 Z" />
<path fill="#ffffff" opacity="1.00" d=" M 14.47 32.59 C 15.80 28.81 15.92 23.01 20.83 22.15 C 26.91 21.89 33.03 21.89 39.11 22.15 C 44.05 22.97 44.20 28.79 45.53 32.58 C 46.65 33.79 48.17 34.98 47.96 36.84 C 48.01 40.85 48.19 44.88 47.83 48.87 C 46.43 51.24 43.85 49.38 43.64 47.24 C 34.57 48.17 25.42 48.18 16.36 47.24 C 16.27 49.41 13.47 51.22 12.17 48.87 C 11.81 44.87 12.00 40.85 12.04 36.84 C 11.83 34.98 13.34 33.79 14.47 32.59 M 17.17 36.13 C 14.83 37.19 16.45 40.90 18.83 39.89 C 21.14 38.81 19.58 35.11 17.17 36.13 M 41.23 36.09 C 38.85 37.08 40.34 40.83 42.77 39.90 C 45.13 38.87 43.64 35.18 41.23 36.09 M 21.56 43.53 C 27.18 44.14 32.84 44.12 38.46 43.55 C 37.70 42.43 37.67 40.29 36.03 40.12 C 32.31 39.83 28.57 40.00 24.84 40.02 C 22.67 39.67 22.34 42.13 21.56 43.53 Z" />
</g>
<g id="#000000ff">
<path fill="#000000" opacity="1.00" d=" M 29.20 6.10 C 29.61 6.10 30.42 6.11 30.83 6.11 C 36.43 8.62 41.58 12.05 47.05 14.84 C 49.01 16.05 52.02 17.09 51.93 19.88 C 52.10 28.93 51.96 37.99 52.00 47.04 C 52.34 49.40 50.62 52.01 48.08 51.95 C 36.38 52.08 24.67 51.97 12.97 52.00 C 10.63 52.33 7.95 50.67 8.06 48.12 C 7.96 38.73 7.95 29.33 8.06 19.94 C 7.90 17.40 10.47 16.29 12.31 15.25 C 18.00 12.32 23.39 8.77 29.20 6.10 M 14.47 32.59 C 13.34 33.79 11.83 34.98 12.04 36.84 C 12.00 40.85 11.81 44.87 12.17 48.87 C 13.47 51.22 16.27 49.41 16.36 47.24 C 25.42 48.18 34.57 48.17 43.64 47.24 C 43.85 49.38 46.43 51.24 47.83 48.87 C 48.19 44.88 48.01 40.85 47.96 36.84 C 48.17 34.98 46.65 33.79 45.53 32.58 C 44.20 28.79 44.05 22.97 39.11 22.15 C 33.03 21.89 26.91 21.89 20.83 22.15 C 15.92 23.01 15.80 28.81 14.47 32.59 Z" />
<path fill="#000000" opacity="1.00" d=" M 17.17 36.13 C 19.58 35.11 21.14 38.81 18.83 39.89 C 16.45 40.90 14.83 37.19 17.17 36.13 Z" />
<path fill="#000000" opacity="1.00" d=" M 41.23 36.09 C 43.64 35.18 45.13 38.87 42.77 39.90 C 40.34 40.83 38.85 37.08 41.23 36.09 Z" />
<path fill="#000000" opacity="1.00" d=" M 21.56 43.53 C 22.34 42.13 22.67 39.67 24.84 40.02 C 28.57 40.00 32.31 39.83 36.03 40.12 C 37.67 40.29 37.70 42.43 38.46 43.55 C 32.84 44.12 27.18 44.14 21.56 43.53 Z" />
</g>
</svg>
