<?xml version="1.0" encoding="UTF-8" ?>
<!DOCTYPE svg PUBLIC "-//W3C//DTD SVG 1.1//EN" "http://www.w3.org/Graphics/SVG/1.1/DTD/svg11.dtd">
<svg width="60pt" height="60pt" viewBox="0 0 60 60" version="1.1" xmlns="http://www.w3.org/2000/svg">
<g id="#ffffffff">
<path fill="#ffffff" opacity="1.00" d=" M 0.00 0.00 L 60.00 0.00 L 60.00 60.00 L 0.00 60.00 L 0.00 0.00 M 25.14 8.13 C 20.08 11.10 14.82 13.75 9.80 16.77 C 7.87 17.79 8.00 20.16 7.98 22.01 C 8.06 30.71 7.90 39.41 8.06 48.11 C 7.86 50.44 10.22 51.48 11.91 52.41 C 12.11 41.61 11.95 30.80 12.00 20.00 C 24.00 20.00 36.00 20.00 48.00 20.00 C 48.05 30.80 47.89 41.61 48.09 52.42 C 49.77 51.49 52.08 50.41 51.94 48.11 C 52.09 39.04 51.97 29.97 51.99 20.90 C 52.17 19.03 51.36 17.19 49.62 16.38 C 43.87 13.09 38.08 9.86 32.25 6.70 C 29.83 5.03 27.28 6.97 25.14 8.13 M 16.00 24.00 C 16.00 33.33 16.00 42.67 16.00 52.00 C 25.33 52.00 34.67 52.00 44.00 52.00 C 44.00 48.18 44.01 44.36 43.98 40.55 C 42.93 39.61 42.13 38.47 41.69 37.13 C 42.27 36.80 43.42 36.15 44.00 35.82 C 44.00 31.88 44.00 27.94 44.00 24.00 C 34.67 24.00 25.33 24.00 16.00 24.00 Z" />
</g>
<g id="#000000ff">
<path fill="#000000" opacity="1.00" d=" M 25.14 8.13 C 27.28 6.97 29.83 5.03 32.25 6.70 C 38.08 9.86 43.87 13.09 49.62 16.38 C 51.36 17.19 52.17 19.03 51.99 20.90 C 51.97 29.97 52.09 39.04 51.94 48.11 C 52.08 50.41 49.77 51.49 48.09 52.42 C 47.89 41.61 48.05 30.80 48.00 20.00 C 36.00 20.00 24.00 20.00 12.00 20.00 C 11.95 30.80 12.11 41.61 11.91 52.41 C 10.22 51.48 7.86 50.44 8.06 48.11 C 7.90 39.41 8.06 30.71 7.98 22.01 C 8.00 20.16 7.87 17.79 9.80 16.77 C 14.82 13.75 20.08 11.10 25.14 8.13 Z" />
<path fill="#000000" opacity="1.00" d=" M 16.00 24.00 C 25.33 24.00 34.67 24.00 44.00 24.00 C 44.00 27.94 44.00 31.88 44.00 35.82 C 43.42 36.15 42.27 36.80 41.69 37.13 C 42.13 38.47 42.93 39.61 43.98 40.55 C 44.01 44.36 44.00 48.18 44.00 52.00 C 34.67 52.00 25.33 52.00 16.00 52.00 C 16.00 42.67 16.00 33.33 16.00 24.00 Z" />
</g>
</svg>
