<?xml version="1.0" encoding="UTF-8" ?>
<!DOCTYPE svg PUBLIC "-//W3C//DTD SVG 1.1//EN" "http://www.w3.org/Graphics/SVG/1.1/DTD/svg11.dtd">
<svg width="64pt" height="64pt" viewBox="0 0 64 64" version="1.1" xmlns="http://www.w3.org/2000/svg">
<g id="#ffffffff">
<path fill="#ffffff" opacity="1.00" d=" M 0.00 0.00 L 64.00 0.00 L 64.00 64.00 L 0.00 64.00 L 0.00 0.00 M 20.31 16.27 C 17.38 17.19 12.71 17.28 11.97 20.99 C 12.33 23.85 15.68 24.20 17.87 24.97 C 17.78 29.98 20.31 34.65 24.36 37.54 C 17.05 40.63 12.07 48.04 11.90 55.98 C 13.23 55.99 14.56 56.00 15.89 56.01 C 16.14 52.13 17.56 48.44 19.90 45.35 C 20.06 48.90 19.99 52.45 20.00 56.00 C 21.34 56.00 22.67 56.00 24.01 56.00 C 24.00 54.32 23.99 52.63 23.98 50.95 C 29.09 52.56 34.91 52.57 40.02 50.95 C 40.01 52.63 40.00 54.31 39.99 56.00 C 41.33 56.00 42.66 56.00 44.00 56.00 C 44.01 52.45 43.95 48.90 44.10 45.35 C 46.44 48.44 47.84 52.13 48.11 56.01 C 49.44 56.00 50.77 55.99 52.10 55.98 C 51.91 48.05 46.96 40.62 39.63 37.53 C 41.63 35.91 43.38 34.01 44.70 31.80 C 46.81 34.93 50.54 35.99 54.13 36.14 C 53.78 33.51 53.31 30.63 51.20 28.79 C 49.64 27.09 46.84 27.13 45.60 25.11 C 47.57 24.34 50.09 24.24 51.49 22.45 C 52.37 21.40 52.05 19.75 51.01 18.94 C 48.95 17.24 46.18 16.95 43.69 16.27 C 42.65 13.14 41.23 9.56 37.87 8.32 C 35.74 7.31 33.77 8.88 31.99 9.85 C 30.22 8.87 28.25 7.32 26.13 8.31 C 22.76 9.54 21.34 13.13 20.31 16.27 Z" />
<path fill="#ffffff" opacity="1.00" d=" M 27.15 11.87 C 28.74 12.62 30.18 13.87 32.00 14.00 C 33.84 13.85 35.30 12.58 36.93 11.83 C 39.09 13.92 39.92 16.83 40.30 19.73 C 42.07 20.04 43.84 20.42 45.58 20.88 C 36.61 22.35 27.39 22.36 18.42 20.88 C 20.16 20.42 21.93 20.04 23.70 19.72 C 24.08 16.82 24.90 13.90 27.15 11.87 Z" />
<path fill="#ffffff" opacity="1.00" d=" M 21.82 25.52 C 28.59 26.11 35.41 26.11 42.18 25.52 C 41.81 28.23 41.17 31.12 39.06 33.05 C 35.39 36.93 28.59 36.92 24.93 33.04 C 22.83 31.11 22.19 28.23 21.82 25.52 Z" />
<path fill="#ffffff" opacity="1.00" d=" M 23.84 42.09 C 28.92 39.40 35.08 39.41 40.16 42.09 C 40.07 44.34 39.70 47.42 36.95 47.85 C 33.43 48.05 29.80 48.32 26.33 47.64 C 24.05 46.78 24.03 44.12 23.84 42.09 Z" />
</g>
<g id="#000000ff">
<path fill="#000000" opacity="1.00" d=" M 20.31 16.27 C 21.34 13.13 22.76 9.54 26.13 8.31 C 28.25 7.32 30.22 8.87 31.99 9.85 C 33.77 8.88 35.74 7.31 37.87 8.32 C 41.23 9.56 42.65 13.14 43.69 16.27 C 46.18 16.95 48.95 17.24 51.01 18.94 C 52.05 19.75 52.37 21.40 51.49 22.45 C 50.09 24.24 47.57 24.34 45.60 25.11 C 46.84 27.13 49.64 27.09 51.20 28.79 C 53.31 30.63 53.78 33.51 54.13 36.14 C 50.54 35.99 46.81 34.93 44.70 31.80 C 43.38 34.01 41.63 35.91 39.63 37.53 C 46.96 40.62 51.91 48.05 52.10 55.98 C 50.77 55.99 49.44 56.00 48.11 56.01 C 47.84 52.13 46.44 48.44 44.10 45.35 C 43.95 48.90 44.01 52.45 44.00 56.00 C 42.66 56.00 41.33 56.00 39.99 56.00 C 40.00 54.31 40.01 52.63 40.02 50.95 C 34.91 52.57 29.09 52.56 23.98 50.95 C 23.99 52.63 24.00 54.32 24.01 56.00 C 22.67 56.00 21.34 56.00 20.00 56.00 C 19.99 52.45 20.06 48.90 19.90 45.35 C 17.56 48.44 16.14 52.13 15.89 56.01 C 14.56 56.00 13.23 55.99 11.90 55.98 C 12.07 48.04 17.05 40.63 24.36 37.54 C 20.31 34.65 17.78 29.98 17.87 24.97 C 15.68 24.20 12.33 23.85 11.97 20.99 C 12.71 17.28 17.38 17.19 20.31 16.27 M 27.15 11.87 C 24.90 13.90 24.08 16.82 23.70 19.72 C 21.93 20.04 20.16 20.42 18.42 20.88 C 27.39 22.36 36.61 22.35 45.58 20.88 C 43.84 20.42 42.07 20.04 40.30 19.73 C 39.92 16.83 39.09 13.92 36.93 11.83 C 35.30 12.58 33.84 13.85 32.00 14.00 C 30.18 13.87 28.74 12.62 27.15 11.87 M 21.82 25.52 C 22.19 28.23 22.83 31.11 24.93 33.04 C 28.59 36.92 35.39 36.93 39.06 33.05 C 41.17 31.12 41.81 28.23 42.18 25.52 C 35.41 26.11 28.59 26.11 21.82 25.52 M 23.84 42.09 C 24.03 44.12 24.05 46.78 26.33 47.64 C 29.80 48.32 33.43 48.05 36.95 47.85 C 39.70 47.42 40.07 44.34 40.16 42.09 C 35.08 39.41 28.92 39.40 23.84 42.09 Z" />
</g>
</svg>
