<?xml version="1.0" encoding="UTF-8" ?>
<!DOCTYPE svg PUBLIC "-//W3C//DTD SVG 1.1//EN" "http://www.w3.org/Graphics/SVG/1.1/DTD/svg11.dtd">
<svg width="60pt" height="60pt" viewBox="0 0 60 60" version="1.1" xmlns="http://www.w3.org/2000/svg">
<g id="#ffffffff">
<path fill="#ffffff" opacity="1.00" d=" M 0.00 0.00 L 60.00 0.00 L 60.00 60.00 L 0.00 60.00 L 0.00 0.00 M 24.21 6.02 C 23.71 10.92 24.15 15.87 23.98 20.79 C 23.49 20.79 22.51 20.79 22.02 20.80 C 21.87 16.53 22.27 12.25 21.80 8.00 C 20.96 4.99 15.89 5.69 16.08 8.89 C 15.87 16.44 16.08 24.00 16.00 31.55 C 12.72 30.33 9.66 27.95 6.04 28.05 C 3.83 28.12 2.62 30.08 1.82 31.87 C 7.25 36.61 12.60 41.43 17.98 46.22 C 17.90 48.98 17.53 53.02 21.01 53.86 C 27.36 54.16 33.73 53.99 40.08 53.95 C 42.59 54.01 44.35 51.43 43.96 49.08 C 43.59 45.84 46.24 43.30 45.97 40.08 C 45.99 31.00 46.10 21.91 45.91 12.84 C 46.06 9.67 40.99 9.00 40.19 12.03 C 39.82 14.93 40.03 17.87 39.99 20.79 C 39.49 20.79 38.51 20.79 38.02 20.79 C 37.88 16.55 38.25 12.28 37.82 8.05 C 37.12 5.42 32.93 5.39 32.20 8.01 C 31.73 12.25 32.13 16.53 31.98 20.79 C 31.49 20.79 30.51 20.79 30.02 20.79 C 29.85 15.87 30.28 10.92 29.80 6.02 C 29.09 3.41 24.90 3.40 24.21 6.02 Z" />
<path fill="#ffffff" opacity="1.00" d=" M 29.44 28.53 C 32.21 26.80 34.67 29.89 36.80 31.28 C 39.54 33.40 37.22 36.96 36.51 39.53 C 35.53 42.11 32.36 41.54 30.19 41.61 C 28.32 41.80 26.10 41.05 25.72 38.97 C 25.16 36.70 23.34 34.13 24.94 31.90 C 26.34 30.66 27.87 29.55 29.44 28.53 M 29.61 32.68 C 27.52 33.81 27.86 37.28 30.11 38.01 C 32.06 38.87 34.43 37.13 34.23 35.02 C 34.18 32.81 31.40 31.41 29.61 32.68 Z" />
</g>
<g id="#000000ff">
<path fill="#000000" opacity="1.00" d=" M 24.21 6.02 C 24.90 3.40 29.09 3.41 29.80 6.02 C 30.28 10.92 29.85 15.87 30.02 20.79 C 30.51 20.79 31.49 20.79 31.98 20.79 C 32.13 16.53 31.73 12.25 32.20 8.01 C 32.93 5.39 37.12 5.42 37.82 8.05 C 38.25 12.28 37.88 16.55 38.02 20.79 C 38.51 20.79 39.49 20.79 39.99 20.79 C 40.03 17.87 39.82 14.93 40.19 12.03 C 40.99 9.00 46.06 9.67 45.91 12.84 C 46.10 21.91 45.99 31.00 45.97 40.08 C 46.24 43.30 43.59 45.84 43.96 49.08 C 44.35 51.43 42.59 54.01 40.08 53.95 C 33.73 53.99 27.36 54.16 21.01 53.86 C 17.53 53.02 17.90 48.98 17.98 46.22 C 12.60 41.43 7.25 36.61 1.82 31.87 C 2.62 30.08 3.83 28.12 6.04 28.05 C 9.66 27.95 12.72 30.33 16.00 31.55 C 16.08 24.00 15.87 16.44 16.08 8.89 C 15.89 5.69 20.96 4.99 21.80 8.00 C 22.27 12.25 21.87 16.53 22.02 20.80 C 22.51 20.79 23.49 20.79 23.98 20.79 C 24.15 15.87 23.71 10.92 24.21 6.02 M 29.44 28.53 C 27.87 29.55 26.34 30.66 24.94 31.90 C 23.34 34.13 25.16 36.70 25.72 38.97 C 26.10 41.05 28.32 41.80 30.19 41.61 C 32.36 41.54 35.53 42.11 36.51 39.53 C 37.22 36.96 39.54 33.40 36.80 31.28 C 34.67 29.89 32.21 26.80 29.44 28.53 Z" />
<path fill="#000000" opacity="1.00" d=" M 29.61 32.68 C 31.40 31.41 34.18 32.81 34.23 35.02 C 34.43 37.13 32.06 38.87 30.11 38.01 C 27.86 37.28 27.52 33.81 29.61 32.68 Z" />
</g>
</svg>
