<?xml version="1.0" encoding="UTF-8" ?>
<!DOCTYPE svg PUBLIC "-//W3C//DTD SVG 1.1//EN" "http://www.w3.org/Graphics/SVG/1.1/DTD/svg11.dtd">
<svg width="64pt" height="64pt" viewBox="0 0 64 64" version="1.1" xmlns="http://www.w3.org/2000/svg">
<g id="#ffffffff">
<path fill="#ffffff" opacity="1.00" d=" M 0.00 0.00 L 64.00 0.00 L 64.00 64.00 L 0.00 64.00 L 0.00 0.00 M 26.13 8.21 C 22.74 7.31 18.66 9.21 18.15 12.89 C 17.80 18.38 18.08 23.90 18.03 29.41 C 16.13 27.55 13.82 25.37 10.89 26.11 C 6.64 26.69 4.44 32.41 7.29 35.64 C 11.17 39.88 15.43 43.76 19.43 47.88 C 18.69 50.51 18.02 53.19 17.88 55.93 C 23.87 55.79 29.74 57.39 34.99 60.21 C 40.29 57.49 46.11 55.74 52.12 55.93 C 51.99 53.48 51.45 51.09 50.81 48.73 C 52.49 46.10 54.05 43.24 53.96 40.02 C 54.03 33.31 54.05 26.58 53.95 19.87 C 54.03 15.92 49.88 13.25 46.21 14.14 C 45.88 10.02 41.92 7.03 37.87 8.21 C 36.66 6.02 34.73 3.87 31.99 3.99 C 29.26 3.88 27.34 6.02 26.13 8.21 Z" />
<path fill="#ffffff" opacity="1.00" d=" M 30.17 9.10 C 31.26 7.10 33.53 8.27 34.37 9.80 C 33.78 9.87 32.59 10.00 32.00 10.07 C 32.00 11.37 32.00 12.68 32.00 13.99 C 32.50 13.99 33.50 14.01 34.00 14.01 C 34.00 15.34 34.00 16.66 34.00 17.99 C 33.50 17.99 32.50 18.01 32.00 18.01 C 32.00 19.34 32.00 20.66 32.00 21.99 C 32.50 21.99 33.50 22.01 34.00 22.01 C 34.00 23.34 34.00 24.66 34.00 25.99 C 33.50 25.99 32.50 26.01 32.00 26.01 C 32.00 27.34 32.00 28.67 32.00 30.00 C 34.00 30.00 36.00 30.00 38.00 30.00 C 38.07 24.64 37.87 19.27 38.07 13.92 C 37.86 11.88 41.09 11.28 41.82 13.13 C 42.07 14.74 42.00 16.37 42.04 17.99 C 41.53 17.99 40.51 18.01 40.00 18.01 C 40.00 19.34 40.00 20.66 40.00 21.99 C 40.50 21.99 41.50 22.01 42.00 22.01 C 42.00 23.34 42.00 24.66 42.00 25.99 C 41.50 25.99 40.50 26.01 40.00 26.01 C 40.00 27.34 40.00 28.67 40.00 30.00 C 42.00 30.00 44.00 30.00 46.00 30.00 C 46.08 26.38 45.78 22.74 46.17 19.13 C 47.22 17.08 49.52 18.27 50.38 19.80 C 49.78 19.87 48.59 20.00 48.00 20.06 C 48.00 21.37 48.00 22.68 48.00 23.99 C 48.50 23.99 49.50 24.01 50.00 24.01 C 50.00 24.51 50.00 25.49 50.00 25.99 C 49.50 25.99 48.50 26.01 48.00 26.01 C 48.00 27.34 48.00 28.66 48.00 29.98 C 48.55 30.00 49.66 30.02 50.21 30.03 C 50.26 31.55 49.14 32.37 48.01 33.12 C 47.85 34.64 48.78 35.62 50.00 36.36 C 50.41 40.52 49.57 44.84 46.48 47.85 C 46.83 49.30 47.18 50.74 47.54 52.19 C 43.19 52.72 38.98 53.96 34.99 55.73 C 31.03 53.87 26.78 52.75 22.45 52.19 C 22.92 50.32 23.39 48.44 23.85 46.56 C 19.90 42.70 16.01 38.78 12.05 34.94 C 11.33 34.01 9.97 33.31 10.01 31.98 C 9.77 30.23 12.32 29.29 13.38 30.61 C 16.32 33.39 19.08 36.35 22.00 39.15 C 22.06 30.76 21.89 22.35 22.07 13.96 C 21.90 12.47 23.59 11.67 24.85 12.12 C 26.77 13.39 25.71 16.07 26.05 17.99 C 25.53 17.99 24.51 18.01 24.00 18.01 C 24.00 19.34 24.00 20.66 24.00 21.99 C 24.50 21.99 25.50 22.01 26.00 22.01 C 26.00 23.34 26.00 24.66 26.00 25.99 C 25.50 25.99 24.50 26.01 24.00 26.01 C 24.00 27.34 24.00 28.67 24.00 30.00 C 26.00 30.00 28.00 30.00 30.00 30.00 C 30.12 23.04 29.75 16.05 30.17 9.10 M 25.15 32.13 C 22.87 33.23 24.42 36.86 26.81 35.89 C 29.15 34.81 27.58 31.10 25.15 32.13 M 33.19 32.15 C 30.77 33.09 32.52 37.04 34.79 35.80 C 37.22 34.92 35.53 31.03 33.19 32.15 M 41.13 32.20 C 38.81 33.20 40.46 36.88 42.78 35.86 C 45.24 34.92 43.47 30.92 41.13 32.20 Z" />
</g>
<g id="#000000ff">
<path fill="#000000" opacity="1.00" d=" M 26.13 8.21 C 27.34 6.02 29.26 3.88 31.99 3.99 C 34.73 3.87 36.66 6.02 37.87 8.21 C 41.92 7.03 45.88 10.02 46.21 14.14 C 49.88 13.25 54.03 15.92 53.95 19.87 C 54.05 26.58 54.03 33.31 53.96 40.02 C 54.05 43.24 52.49 46.10 50.81 48.73 C 51.45 51.09 51.99 53.48 52.12 55.93 C 46.11 55.74 40.29 57.49 34.99 60.21 C 29.74 57.39 23.87 55.79 17.88 55.93 C 18.02 53.19 18.69 50.51 19.43 47.88 C 15.43 43.76 11.17 39.88 7.29 35.64 C 4.44 32.41 6.64 26.69 10.89 26.11 C 13.82 25.37 16.13 27.55 18.03 29.41 C 18.08 23.90 17.80 18.38 18.15 12.89 C 18.66 9.21 22.74 7.31 26.13 8.21 M 30.17 9.10 C 29.75 16.05 30.12 23.04 30.00 30.00 C 28.00 30.00 26.00 30.00 24.00 30.00 C 24.00 28.67 24.00 27.34 24.00 26.01 C 24.50 26.01 25.50 25.99 26.00 25.99 C 26.00 24.66 26.00 23.34 26.00 22.01 C 25.50 22.01 24.50 21.99 24.00 21.99 C 24.00 20.66 24.00 19.34 24.00 18.01 C 24.51 18.01 25.53 17.99 26.05 17.99 C 25.71 16.07 26.77 13.39 24.85 12.12 C 23.59 11.67 21.90 12.47 22.07 13.96 C 21.89 22.35 22.06 30.76 22.00 39.15 C 19.08 36.35 16.32 33.39 13.38 30.61 C 12.32 29.29 9.77 30.23 10.01 31.98 C 9.97 33.31 11.33 34.01 12.05 34.94 C 16.01 38.78 19.90 42.70 23.85 46.56 C 23.39 48.44 22.92 50.32 22.45 52.19 C 26.78 52.75 31.03 53.87 34.99 55.73 C 38.98 53.96 43.19 52.72 47.54 52.19 C 47.18 50.74 46.83 49.30 46.48 47.85 C 49.57 44.84 50.41 40.52 50.00 36.36 C 48.78 35.62 47.85 34.64 48.01 33.12 C 49.14 32.37 50.26 31.55 50.21 30.03 C 49.66 30.02 48.55 30.00 48.00 29.98 C 48.00 28.66 48.00 27.34 48.00 26.01 C 48.50 26.01 49.50 25.99 50.00 25.99 C 50.00 25.49 50.00 24.51 50.00 24.01 C 49.50 24.01 48.50 23.99 48.00 23.99 C 48.00 22.68 48.00 21.37 48.00 20.06 C 48.59 20.00 49.78 19.87 50.38 19.80 C 49.52 18.27 47.22 17.08 46.17 19.13 C 45.78 22.74 46.08 26.38 46.00 30.00 C 44.00 30.00 42.00 30.00 40.00 30.00 C 40.00 28.67 40.00 27.34 40.00 26.01 C 40.50 26.01 41.50 25.99 42.00 25.99 C 42.00 24.66 42.00 23.34 42.00 22.01 C 41.50 22.01 40.50 21.99 40.00 21.99 C 40.00 20.66 40.00 19.34 40.00 18.01 C 40.51 18.01 41.53 17.99 42.04 17.99 C 42.00 16.37 42.07 14.74 41.82 13.13 C 41.09 11.28 37.86 11.88 38.07 13.92 C 37.87 19.27 38.07 24.64 38.00 30.00 C 36.00 30.00 34.00 30.00 32.00 30.00 C 32.00 28.67 32.00 27.34 32.00 26.01 C 32.50 26.01 33.50 25.99 34.00 25.99 C 34.00 24.66 34.00 23.34 34.00 22.01 C 33.50 22.01 32.50 21.99 32.00 21.99 C 32.00 20.66 32.00 19.34 32.00 18.01 C 32.50 18.01 33.50 17.99 34.00 17.99 C 34.00 16.66 34.00 15.34 34.00 14.01 C 33.50 14.01 32.50 13.99 32.00 13.99 C 32.00 12.68 32.00 11.37 32.00 10.07 C 32.59 10.00 33.78 9.87 34.37 9.80 C 33.53 8.27 31.26 7.10 30.17 9.10 Z" />
<path fill="#000000" opacity="1.00" d=" M 25.15 32.13 C 27.58 31.10 29.15 34.81 26.81 35.89 C 24.42 36.86 22.87 33.23 25.15 32.13 Z" />
<path fill="#000000" opacity="1.00" d=" M 33.19 32.15 C 35.53 31.03 37.22 34.92 34.79 35.80 C 32.52 37.04 30.77 33.09 33.19 32.15 Z" />
<path fill="#000000" opacity="1.00" d=" M 41.13 32.20 C 43.47 30.92 45.24 34.92 42.78 35.86 C 40.46 36.88 38.81 33.20 41.13 32.20 Z" />
</g>
</svg>
