<?xml version="1.0" encoding="UTF-8" ?>
<!DOCTYPE svg PUBLIC "-//W3C//DTD SVG 1.1//EN" "http://www.w3.org/Graphics/SVG/1.1/DTD/svg11.dtd">
<svg width="60pt" height="60pt" viewBox="0 0 60 60" version="1.1" xmlns="http://www.w3.org/2000/svg">
<g id="#ffffffff">
<path fill="#ffffff" opacity="1.00" d=" M 0.00 0.00 L 60.00 0.00 L 60.00 60.00 L 0.00 60.00 L 0.00 0.00 M 19.44 12.37 C 16.15 19.32 18.98 27.66 23.98 33.03 C 23.79 35.24 24.79 38.13 22.74 39.74 C 18.52 42.58 12.76 42.35 8.98 46.00 C 6.72 48.02 6.21 51.13 5.88 53.98 C 21.96 54.01 38.04 54.01 54.11 53.98 C 53.79 51.13 53.29 48.03 51.03 46.01 C 47.40 42.54 42.05 42.45 37.81 40.15 C 35.19 38.76 36.14 35.46 36.01 33.06 C 39.70 28.96 42.22 23.57 41.95 17.97 C 41.79 14.13 40.08 10.19 36.80 8.02 C 31.22 4.17 22.33 6.01 19.44 12.37 Z" />
</g>
<g id="#000000ff">
<path fill="#000000" opacity="1.00" d=" M 19.44 12.37 C 22.33 6.01 31.22 4.17 36.80 8.02 C 40.08 10.19 41.79 14.13 41.95 17.97 C 42.22 23.57 39.70 28.96 36.01 33.06 C 36.14 35.46 35.19 38.76 37.81 40.15 C 42.05 42.45 47.40 42.54 51.03 46.01 C 53.29 48.03 53.79 51.13 54.11 53.98 C 38.04 54.01 21.96 54.01 5.88 53.98 C 6.21 51.13 6.72 48.02 8.98 46.00 C 12.76 42.35 18.52 42.58 22.74 39.74 C 24.79 38.13 23.79 35.24 23.98 33.03 C 18.98 27.66 16.15 19.32 19.44 12.37 Z" />
</g>
</svg>
