<?xml version="1.0" encoding="UTF-8" ?>
<!DOCTYPE svg PUBLIC "-//W3C//DTD SVG 1.1//EN" "http://www.w3.org/Graphics/SVG/1.1/DTD/svg11.dtd">
<svg width="64pt" height="64pt" viewBox="0 0 64 64" version="1.1" xmlns="http://www.w3.org/2000/svg">
<g id="#ffffffff">
<path fill="#ffffff" opacity="1.00" d=" M 0.00 0.00 L 64.00 0.00 L 64.00 64.00 L 0.00 64.00 L 0.00 0.00 M 28.74 9.75 C 27.10 11.71 28.49 14.15 29.95 15.71 C 29.98 17.14 30.00 18.57 30.02 20.00 C 24.68 20.00 19.34 20.00 14.00 20.00 C 14.00 22.76 14.02 25.53 13.96 28.29 C 11.52 30.30 11.52 33.69 13.95 35.70 C 13.98 37.13 14.00 38.57 14.02 40.00 C 11.35 40.00 8.67 40.00 6.00 40.00 C 6.00 42.76 6.02 45.53 5.95 48.29 C 4.99 49.64 3.50 51.06 4.10 52.91 C 4.72 56.16 9.53 57.13 11.26 54.24 C 12.88 52.28 11.52 49.85 10.05 48.30 C 10.02 46.87 10.00 45.43 9.98 44.00 C 13.99 44.00 18.01 44.00 22.02 44.00 C 22.00 45.43 21.98 46.86 21.96 48.29 C 20.99 49.63 19.53 51.03 20.09 52.86 C 20.67 56.13 25.50 57.15 27.25 54.25 C 28.87 52.31 27.55 49.86 26.05 48.33 C 25.99 45.56 25.99 42.78 26.00 40.00 C 23.32 40.00 20.65 40.00 17.98 40.00 C 18.00 38.57 18.02 37.13 18.04 35.70 C 20.41 33.67 20.51 30.32 18.05 28.29 C 18.02 26.86 17.99 25.43 17.98 24.00 C 27.33 24.00 36.67 24.00 46.02 24.00 C 46.00 25.43 45.98 26.86 45.95 28.30 C 43.50 30.31 43.53 33.69 45.95 35.71 C 45.98 37.14 46.01 38.57 46.02 40.00 C 43.35 40.00 40.67 40.00 38.00 40.00 C 38.00 42.76 38.02 45.53 37.96 48.29 C 37.00 49.63 35.53 51.02 36.08 52.85 C 36.66 56.13 41.50 57.16 43.25 54.25 C 44.89 52.28 43.51 49.86 42.05 48.29 C 42.02 46.86 41.99 45.43 41.98 44.00 C 45.99 44.00 50.01 44.00 54.02 44.00 C 54.00 45.43 53.98 46.86 53.95 48.29 C 52.98 49.62 51.53 51.05 52.09 52.87 C 52.68 56.13 57.48 57.15 59.24 54.27 C 60.89 52.31 59.53 49.85 58.04 48.29 C 57.98 45.53 58.00 42.76 58.00 40.00 C 55.33 40.00 52.65 40.00 49.98 40.00 C 50.00 38.57 50.02 37.13 50.04 35.70 C 52.41 33.67 52.52 30.32 50.05 28.29 C 49.98 25.53 50.00 22.76 50.00 20.00 C 44.66 20.00 39.32 20.00 33.98 20.00 C 33.99 18.57 34.02 17.13 34.05 15.70 C 35.25 14.24 36.76 12.32 35.62 10.36 C 34.53 7.56 30.31 7.18 28.74 9.75 Z" />
</g>
<g id="#000000ff">
<path fill="#000000" opacity="1.00" d=" M 28.74 9.75 C 30.31 7.18 34.53 7.56 35.62 10.36 C 36.76 12.32 35.25 14.24 34.05 15.70 C 34.02 17.13 33.99 18.57 33.98 20.00 C 39.32 20.00 44.66 20.00 50.00 20.00 C 50.00 22.76 49.98 25.53 50.05 28.29 C 52.52 30.32 52.41 33.67 50.04 35.70 C 50.02 37.13 50.00 38.57 49.98 40.00 C 52.65 40.00 55.33 40.00 58.00 40.00 C 58.00 42.76 57.98 45.53 58.04 48.29 C 59.53 49.85 60.89 52.31 59.24 54.27 C 57.48 57.15 52.68 56.13 52.09 52.87 C 51.53 51.05 52.98 49.62 53.95 48.29 C 53.98 46.86 54.00 45.43 54.02 44.00 C 50.01 44.00 45.99 44.00 41.98 44.00 C 41.99 45.43 42.02 46.86 42.05 48.29 C 43.51 49.86 44.89 52.28 43.25 54.25 C 41.50 57.16 36.66 56.13 36.08 52.85 C 35.53 51.02 37.00 49.63 37.96 48.29 C 38.02 45.53 38.00 42.76 38.00 40.00 C 40.67 40.00 43.35 40.00 46.02 40.00 C 46.01 38.57 45.98 37.14 45.95 35.71 C 43.53 33.69 43.50 30.31 45.95 28.30 C 45.98 26.86 46.00 25.43 46.02 24.00 C 36.67 24.00 27.33 24.00 17.98 24.00 C 17.99 25.43 18.02 26.86 18.05 28.29 C 20.51 30.32 20.41 33.67 18.04 35.70 C 18.02 37.13 18.00 38.57 17.98 40.00 C 20.65 40.00 23.32 40.00 26.00 40.00 C 25.99 42.78 25.99 45.56 26.05 48.33 C 27.55 49.86 28.87 52.31 27.25 54.25 C 25.50 57.15 20.67 56.13 20.09 52.86 C 19.53 51.03 20.99 49.63 21.96 48.29 C 21.98 46.86 22.00 45.43 22.02 44.00 C 18.01 44.00 13.99 44.00 9.98 44.00 C 10.00 45.43 10.02 46.87 10.05 48.30 C 11.52 49.85 12.88 52.28 11.26 54.24 C 9.53 57.13 4.72 56.16 4.10 52.91 C 3.50 51.06 4.99 49.64 5.95 48.29 C 6.02 45.53 6.00 42.76 6.00 40.00 C 8.67 40.00 11.35 40.00 14.02 40.00 C 14.00 38.57 13.98 37.13 13.95 35.70 C 11.52 33.69 11.52 30.30 13.96 28.29 C 14.02 25.53 14.00 22.76 14.00 20.00 C 19.34 20.00 24.68 20.00 30.02 20.00 C 30.00 18.57 29.98 17.14 29.95 15.71 C 28.49 14.15 27.10 11.71 28.74 9.75 Z" />
</g>
</svg>
