<?xml version="1.0" encoding="UTF-8" ?>
<!DOCTYPE svg PUBLIC "-//W3C//DTD SVG 1.1//EN" "http://www.w3.org/Graphics/SVG/1.1/DTD/svg11.dtd">
<svg width="64pt" height="64pt" viewBox="0 0 64 64" version="1.1" xmlns="http://www.w3.org/2000/svg">
<g id="#ffffffff">
<path fill="#ffffff" opacity="1.00" d=" M 0.00 0.00 L 64.00 0.00 L 64.00 43.50 C 61.74 41.93 59.82 39.96 57.90 38.01 C 50.60 37.99 43.30 38.00 36.00 38.00 C 36.00 42.00 36.00 46.00 36.00 50.00 C 39.33 50.00 42.67 50.00 46.00 50.00 C 46.00 54.67 46.00 59.33 46.00 64.00 L 0.00 64.00 L 0.00 0.00 M 12.00 6.00 C 12.00 23.33 12.00 40.67 12.00 58.00 C 22.00 58.00 32.00 58.00 42.00 58.00 C 42.00 56.67 42.00 55.33 42.00 54.00 C 33.33 54.00 24.67 54.00 16.00 54.00 C 16.00 39.33 16.00 24.67 16.00 10.00 C 22.67 10.00 29.33 10.00 36.00 10.00 C 36.00 14.00 36.00 18.00 36.00 22.00 C 40.00 22.00 44.00 22.00 48.00 22.00 C 48.00 26.00 48.00 30.00 48.00 34.00 C 49.33 34.00 50.67 34.00 52.00 34.00 C 52.00 29.05 52.00 24.10 52.00 19.15 C 47.61 14.77 43.23 10.39 38.85 6.00 C 29.90 6.00 20.95 6.00 12.00 6.00 Z" />
<path fill="#ffffff" opacity="1.00" d=" M 40.00 12.82 C 41.73 14.54 43.46 16.27 45.18 18.00 C 43.46 18.00 41.73 18.00 40.00 18.00 C 40.00 16.27 40.00 14.54 40.00 12.82 Z" />
<path fill="#ffffff" opacity="1.00" d=" M 40.00 42.00 C 45.41 42.00 50.82 42.01 56.22 41.99 C 56.91 42.66 57.59 43.33 58.28 44.00 C 57.59 44.67 56.90 45.34 56.22 46.01 C 50.81 45.99 45.40 46.00 40.00 46.00 C 40.00 44.67 40.00 43.33 40.00 42.00 Z" />
<path fill="#ffffff" opacity="1.00" d=" M 57.94 50.00 C 59.75 48.24 61.31 46.18 63.40 44.73 L 64.00 44.68 L 64.00 64.00 L 50.00 64.00 C 50.00 59.33 50.00 54.67 50.00 50.00 C 52.65 50.00 55.29 50.00 57.94 50.00 Z" />
</g>
<g id="#000000ff">
<path fill="#000000" opacity="1.00" d=" M 12.00 6.00 C 20.95 6.00 29.90 6.00 38.85 6.00 C 43.23 10.39 47.61 14.77 52.00 19.15 C 52.00 24.10 52.00 29.05 52.00 34.00 C 50.67 34.00 49.33 34.00 48.00 34.00 C 48.00 30.00 48.00 26.00 48.00 22.00 C 44.00 22.00 40.00 22.00 36.00 22.00 C 36.00 18.00 36.00 14.00 36.00 10.00 C 29.33 10.00 22.67 10.00 16.00 10.00 C 16.00 24.67 16.00 39.33 16.00 54.00 C 24.67 54.00 33.33 54.00 42.00 54.00 C 42.00 55.33 42.00 56.67 42.00 58.00 C 32.00 58.00 22.00 58.00 12.00 58.00 C 12.00 40.67 12.00 23.33 12.00 6.00 M 40.00 12.82 C 40.00 14.54 40.00 16.27 40.00 18.00 C 41.73 18.00 43.46 18.00 45.18 18.00 C 43.46 16.27 41.73 14.54 40.00 12.82 Z" />
<path fill="#000000" opacity="1.00" d=" M 36.00 38.00 C 43.30 38.00 50.60 37.99 57.90 38.01 C 59.82 39.96 61.74 41.93 64.00 43.50 L 64.00 44.68 L 63.40 44.73 C 61.31 46.18 59.75 48.24 57.94 50.00 C 55.29 50.00 52.65 50.00 50.00 50.00 C 50.00 54.67 50.00 59.33 50.00 64.00 L 46.00 64.00 C 46.00 59.33 46.00 54.67 46.00 50.00 C 42.67 50.00 39.33 50.00 36.00 50.00 C 36.00 46.00 36.00 42.00 36.00 38.00 M 40.00 42.00 C 40.00 43.33 40.00 44.67 40.00 46.00 C 45.40 46.00 50.81 45.99 56.22 46.01 C 56.90 45.34 57.59 44.67 58.28 44.00 C 57.59 43.33 56.91 42.66 56.22 41.99 C 50.82 42.01 45.41 42.00 40.00 42.00 Z" />
</g>
</svg>
