<?xml version="1.0" encoding="UTF-8" ?>
<!DOCTYPE svg PUBLIC "-//W3C//DTD SVG 1.1//EN" "http://www.w3.org/Graphics/SVG/1.1/DTD/svg11.dtd">
<svg width="60pt" height="60pt" viewBox="0 0 60 60" version="1.1" xmlns="http://www.w3.org/2000/svg">
<g id="#ffffffff">
<path fill="#ffffff" opacity="1.00" d=" M 0.00 0.00 L 60.00 0.00 L 60.00 60.00 L 0.00 60.00 L 0.00 0.00 M 18.88 14.79 C 13.57 15.17 7.68 18.26 6.83 24.00 C 5.71 28.69 8.64 32.96 12.04 35.85 C 11.11 40.54 11.58 46.27 15.77 49.31 C 19.94 52.57 25.69 51.31 29.94 48.87 C 33.82 51.26 38.93 52.68 43.09 50.06 C 48.14 47.35 49.09 40.91 47.94 35.79 C 51.43 32.59 54.40 27.84 52.91 22.93 C 51.53 17.72 46.01 15.21 41.05 14.79 C 39.04 9.95 34.52 5.30 28.86 6.07 C 23.93 6.34 20.55 10.51 18.88 14.79 Z" />
<path fill="#ffffff" opacity="1.00" d=" M 22.94 15.09 C 24.46 12.50 26.71 9.76 30.04 10.01 C 33.26 9.95 35.27 12.74 36.93 15.08 C 34.57 15.91 32.27 16.91 30.04 18.06 C 27.76 16.89 25.38 15.89 22.94 15.09 Z" />
<path fill="#ffffff" opacity="1.00" d=" M 10.93 24.04 C 11.75 20.79 15.19 19.61 18.04 18.75 C 18.08 21.30 18.26 23.85 18.63 26.37 C 16.77 28.14 15.10 30.08 13.52 32.09 C 11.71 29.86 9.82 27.04 10.93 24.04 Z" />
<path fill="#ffffff" opacity="1.00" d=" M 22.03 19.02 C 23.67 19.61 25.31 20.23 26.93 20.87 C 26.37 21.71 25.80 22.56 25.23 23.40 C 24.21 23.69 23.18 23.99 22.15 24.29 C 22.14 22.53 22.09 20.77 22.03 19.02 Z" />
<path fill="#ffffff" opacity="1.00" d=" M 33.08 20.86 C 34.69 20.23 36.32 19.62 37.95 19.04 C 37.87 20.76 37.82 22.49 37.81 24.21 C 36.80 23.95 35.79 23.69 34.78 23.43 C 34.21 22.58 33.64 21.72 33.08 20.86 Z" />
<path fill="#ffffff" opacity="1.00" d=" M 42.18 18.77 C 44.93 19.69 48.26 20.85 49.05 24.02 C 50.03 26.99 48.03 29.67 46.39 31.93 C 44.81 29.98 43.16 28.08 41.34 26.35 C 41.73 23.84 41.98 21.30 42.18 18.77 Z" />
<path fill="#ffffff" opacity="1.00" d=" M 27.60 29.33 C 28.20 28.92 29.40 28.09 30.00 27.67 C 30.55 28.04 31.65 28.78 32.20 29.16 C 32.01 29.87 31.62 31.30 31.43 32.01 C 29.40 32.37 28.01 31.32 27.60 29.33 Z" />
<path fill="#ffffff" opacity="1.00" d=" M 37.61 35.62 C 37.59 33.54 38.28 31.63 39.54 30.00 C 40.70 31.37 41.82 32.78 42.92 34.20 C 41.16 34.69 39.39 35.16 37.61 35.62 Z" />
<path fill="#ffffff" opacity="1.00" d=" M 17.05 34.23 C 18.15 32.84 19.25 31.46 20.37 30.08 C 21.58 31.72 22.20 33.62 22.25 35.67 C 20.52 35.16 18.79 34.68 17.05 34.23 Z" />
<path fill="#ffffff" opacity="1.00" d=" M 15.65 37.93 C 18.05 38.65 20.50 39.21 22.96 39.68 C 24.13 41.90 25.45 44.04 26.92 46.08 C 24.08 47.16 20.49 48.18 17.93 45.90 C 15.54 44.00 15.57 40.71 15.65 37.93 Z" />
<path fill="#ffffff" opacity="1.00" d=" M 37.01 39.65 C 39.50 39.27 41.95 38.68 44.38 38.05 C 44.50 41.02 44.29 44.58 41.50 46.34 C 38.95 48.29 35.72 47.30 33.06 46.22 C 34.54 44.14 35.87 41.95 37.01 39.65 Z" />
<path fill="#ffffff" opacity="1.00" d=" M 27.12 39.42 C 27.90 39.12 29.46 38.52 30.24 38.23 C 30.90 38.49 32.21 39.00 32.87 39.26 C 31.93 40.72 30.96 42.17 29.99 43.60 C 29.03 42.20 28.08 40.81 27.12 39.42 Z" />
</g>
<g id="#000000ff">
<path fill="#000000" opacity="1.00" d=" M 18.88 14.79 C 20.55 10.51 23.93 6.34 28.86 6.07 C 34.52 5.30 39.04 9.95 41.05 14.79 C 46.01 15.21 51.53 17.72 52.91 22.93 C 54.40 27.84 51.43 32.59 47.94 35.79 C 49.09 40.91 48.14 47.35 43.09 50.06 C 38.93 52.68 33.82 51.26 29.94 48.87 C 25.69 51.31 19.94 52.57 15.77 49.31 C 11.58 46.27 11.11 40.54 12.04 35.85 C 8.64 32.96 5.71 28.69 6.83 24.00 C 7.68 18.26 13.57 15.17 18.88 14.79 M 22.94 15.09 C 25.38 15.89 27.76 16.89 30.04 18.06 C 32.27 16.91 34.57 15.91 36.93 15.08 C 35.27 12.74 33.26 9.95 30.04 10.01 C 26.71 9.76 24.46 12.50 22.94 15.09 M 10.93 24.04 C 9.82 27.04 11.71 29.86 13.52 32.09 C 15.10 30.08 16.77 28.14 18.63 26.37 C 18.26 23.85 18.08 21.30 18.04 18.75 C 15.19 19.61 11.75 20.79 10.93 24.04 M 22.03 19.02 C 22.09 20.77 22.14 22.53 22.15 24.29 C 23.18 23.99 24.21 23.69 25.23 23.40 C 25.80 22.56 26.37 21.71 26.93 20.87 C 25.31 20.23 23.67 19.61 22.03 19.02 M 33.08 20.86 C 33.64 21.72 34.21 22.58 34.78 23.43 C 35.79 23.69 36.80 23.95 37.81 24.21 C 37.82 22.49 37.87 20.76 37.95 19.04 C 36.32 19.62 34.69 20.23 33.08 20.86 M 42.18 18.77 C 41.98 21.30 41.73 23.84 41.34 26.35 C 43.16 28.08 44.81 29.98 46.39 31.93 C 48.03 29.67 50.03 26.99 49.05 24.02 C 48.26 20.85 44.93 19.69 42.18 18.77 M 27.60 29.33 C 28.01 31.32 29.40 32.37 31.43 32.01 C 31.62 31.30 32.01 29.87 32.20 29.16 C 31.65 28.78 30.55 28.04 30.00 27.67 C 29.40 28.09 28.20 28.92 27.60 29.33 M 37.61 35.62 C 39.39 35.16 41.16 34.69 42.92 34.20 C 41.82 32.78 40.70 31.37 39.54 30.00 C 38.28 31.63 37.59 33.54 37.61 35.62 M 17.05 34.23 C 18.79 34.68 20.52 35.16 22.25 35.67 C 22.20 33.62 21.58 31.72 20.37 30.08 C 19.25 31.46 18.15 32.84 17.05 34.23 M 15.65 37.93 C 15.57 40.71 15.54 44.00 17.93 45.90 C 20.49 48.18 24.08 47.16 26.92 46.08 C 25.45 44.04 24.13 41.90 22.96 39.68 C 20.50 39.21 18.05 38.65 15.65 37.93 M 37.01 39.65 C 35.87 41.95 34.54 44.14 33.06 46.22 C 35.72 47.30 38.95 48.29 41.50 46.34 C 44.29 44.58 44.50 41.02 44.38 38.05 C 41.95 38.68 39.50 39.27 37.01 39.65 M 27.12 39.42 C 28.08 40.81 29.03 42.20 29.99 43.60 C 30.96 42.17 31.93 40.72 32.87 39.26 C 32.21 39.00 30.90 38.49 30.24 38.23 C 29.46 38.52 27.90 39.12 27.12 39.42 Z" />
</g>
</svg>
