<?xml version="1.0" encoding="UTF-8" ?>
<!DOCTYPE svg PUBLIC "-//W3C//DTD SVG 1.1//EN" "http://www.w3.org/Graphics/SVG/1.1/DTD/svg11.dtd">
<svg width="60pt" height="60pt" viewBox="0 0 60 60" version="1.1" xmlns="http://www.w3.org/2000/svg">
<g id="#ffffffff">
<path fill="#ffffff" opacity="1.00" d=" M 0.00 0.00 L 60.00 0.00 L 60.00 60.00 L 0.00 60.00 L 0.00 0.00 M 6.70 8.72 C 9.68 18.27 11.55 28.24 16.07 37.22 C 13.87 40.29 15.69 43.75 15.96 47.06 C 16.13 49.38 17.54 51.35 18.36 53.47 C 26.46 53.14 34.54 52.52 42.63 52.04 C 43.27 52.92 43.98 53.76 44.75 54.53 C 44.83 52.61 44.77 50.69 44.68 48.78 C 46.16 49.05 47.65 49.33 49.13 49.63 C 49.28 47.57 48.92 45.25 50.26 43.49 C 50.43 41.81 50.51 40.12 50.62 38.44 C 51.40 37.16 52.13 35.84 53.12 34.70 C 52.24 34.44 51.35 34.16 50.47 33.88 C 50.01 32.55 49.55 31.23 49.09 29.91 C 48.68 29.74 47.87 29.41 47.47 29.25 C 46.86 27.75 46.19 26.29 45.45 24.86 C 43.20 24.10 41.73 22.24 40.41 20.38 C 37.10 17.84 33.44 15.51 31.49 11.67 C 29.74 10.99 28.08 10.14 26.42 9.28 C 27.14 8.20 27.86 7.10 28.56 6.00 C 21.32 7.23 13.99 7.85 6.70 8.72 Z" />
</g>
<g id="#000000ff">
<path fill="#000000" opacity="1.00" d=" M 6.70 8.72 C 13.99 7.85 21.32 7.23 28.56 6.00 C 27.86 7.10 27.14 8.20 26.42 9.28 C 28.08 10.14 29.74 10.99 31.49 11.67 C 33.44 15.51 37.10 17.84 40.41 20.38 C 41.73 22.24 43.20 24.10 45.45 24.86 C 46.19 26.29 46.86 27.75 47.47 29.25 C 47.87 29.41 48.68 29.74 49.09 29.91 C 49.55 31.23 50.01 32.55 50.47 33.88 C 51.35 34.16 52.24 34.44 53.12 34.70 C 52.13 35.84 51.40 37.16 50.62 38.44 C 50.51 40.12 50.43 41.81 50.26 43.49 C 48.92 45.25 49.28 47.57 49.13 49.63 C 47.65 49.33 46.16 49.05 44.68 48.78 C 44.77 50.69 44.83 52.61 44.75 54.53 C 43.98 53.76 43.27 52.92 42.63 52.04 C 34.54 52.52 26.46 53.14 18.36 53.47 C 17.54 51.35 16.13 49.38 15.96 47.06 C 15.69 43.75 13.87 40.29 16.07 37.22 C 11.55 28.24 9.68 18.27 6.70 8.72 Z" />
</g>
</svg>
