<?xml version="1.0" encoding="UTF-8" ?>
<!DOCTYPE svg PUBLIC "-//W3C//DTD SVG 1.1//EN" "http://www.w3.org/Graphics/SVG/1.1/DTD/svg11.dtd">
<svg width="60pt" height="60pt" viewBox="0 0 60 60" version="1.1" xmlns="http://www.w3.org/2000/svg">
<g id="#ffffffff">
<path fill="#ffffff" opacity="1.00" d=" M 0.00 0.00 L 60.00 0.00 L 60.00 60.00 L 0.00 60.00 L 0.00 0.00 M 20.85 13.05 C 17.26 18.36 14.44 24.17 11.95 30.07 C 19.93 36.93 31.78 37.19 41.41 34.13 C 40.68 29.58 41.78 24.90 43.97 20.89 C 41.95 17.15 40.06 13.13 36.80 10.29 C 33.90 9.35 32.53 13.59 29.87 14.00 C 27.66 13.12 26.44 10.67 24.13 10.00 C 22.57 10.27 21.83 11.96 20.85 13.05 M 45.09 32.25 C 50.88 30.05 54.24 23.93 54.02 17.88 C 47.91 19.71 44.85 26.23 45.09 32.25 M 3.91 39.99 C 10.77 46.58 20.85 47.89 29.95 47.99 C 39.09 47.90 49.18 46.60 56.10 40.04 C 54.87 37.31 52.92 35.05 50.53 33.28 C 45.71 37.46 39.40 39.48 33.11 39.85 C 24.82 40.45 15.89 38.88 9.46 33.28 C 7.08 35.04 5.16 37.31 3.91 39.99 Z" />
</g>
<g id="#000000ff">
<path fill="#000000" opacity="1.00" d=" M 20.85 13.05 C 21.83 11.96 22.57 10.27 24.13 10.00 C 26.44 10.67 27.66 13.12 29.87 14.00 C 32.53 13.59 33.90 9.35 36.80 10.29 C 40.06 13.13 41.95 17.15 43.97 20.89 C 41.78 24.90 40.68 29.58 41.41 34.13 C 31.78 37.19 19.93 36.93 11.95 30.07 C 14.44 24.17 17.26 18.36 20.85 13.05 Z" />
<path fill="#000000" opacity="1.00" d=" M 45.09 32.25 C 44.85 26.23 47.91 19.71 54.02 17.88 C 54.24 23.93 50.88 30.05 45.09 32.25 Z" />
<path fill="#000000" opacity="1.00" d=" M 3.91 39.99 C 5.16 37.31 7.08 35.04 9.46 33.28 C 15.89 38.88 24.82 40.45 33.11 39.85 C 39.40 39.48 45.71 37.46 50.53 33.28 C 52.92 35.05 54.87 37.31 56.10 40.04 C 49.18 46.60 39.09 47.90 29.95 47.99 C 20.85 47.89 10.77 46.58 3.91 39.99 Z" />
</g>
</svg>
