<?xml version="1.0" encoding="UTF-8" ?>
<!DOCTYPE svg PUBLIC "-//W3C//DTD SVG 1.1//EN" "http://www.w3.org/Graphics/SVG/1.1/DTD/svg11.dtd">
<svg width="64pt" height="64pt" viewBox="0 0 64 64" version="1.1" xmlns="http://www.w3.org/2000/svg">
<g id="#ffffffff">
<path fill="#ffffff" opacity="1.00" d=" M 0.00 0.00 L 64.00 0.00 L 64.00 64.00 L 0.00 64.00 L 0.00 0.00 M 38.48 20.36 C 32.20 22.17 25.94 24.00 19.66 25.81 C 15.66 26.98 11.96 29.13 8.93 31.98 C 5.28 35.66 4.15 40.98 3.90 45.98 C 5.23 45.99 6.56 46.00 7.89 46.01 C 8.10 43.00 8.68 40.02 9.75 37.20 C 10.40 39.21 11.01 41.23 11.63 43.24 C 8.78 47.17 7.03 51.73 4.77 56.00 C 7.22 56.00 9.68 56.00 12.13 55.99 C 12.00 54.40 11.87 52.80 11.59 51.23 C 12.72 48.70 14.19 46.34 16.24 44.45 C 15.00 40.53 12.97 36.38 14.66 32.25 C 20.81 32.58 26.99 33.61 33.15 32.88 C 37.27 32.43 39.87 28.54 41.13 24.93 C 42.75 20.15 44.71 15.49 46.25 10.68 C 47.49 11.99 49.24 12.05 50.92 12.14 C 51.91 13.53 52.91 14.91 53.93 16.28 C 53.17 17.36 52.41 18.45 51.65 19.54 C 50.51 19.81 49.38 20.09 48.25 20.37 C 47.56 24.22 47.04 28.10 46.29 31.93 C 45.69 35.63 41.39 37.91 41.98 41.91 C 41.99 46.61 42.01 51.30 42.00 56.00 C 44.00 56.00 46.00 56.00 48.00 56.00 C 48.00 54.67 48.00 53.34 48.00 52.01 C 47.50 52.00 46.50 52.00 46.00 51.99 C 46.05 48.31 45.86 44.63 46.08 40.95 C 47.01 38.18 49.73 36.21 50.16 33.22 C 50.76 30.03 51.20 26.82 51.75 23.63 C 54.30 22.99 56.85 22.35 59.39 21.70 C 60.52 19.44 61.65 17.18 62.78 14.92 C 60.50 13.99 58.11 13.32 55.95 12.13 C 54.82 10.88 53.99 9.40 53.06 8.01 C 52.25 8.00 50.64 8.00 49.84 7.99 C 48.52 6.14 47.68 2.98 44.73 4.00 C 42.41 9.35 40.62 14.93 38.48 20.36 M 19.55 45.50 C 17.16 48.28 17.11 52.16 16.07 55.52 C 17.36 55.84 18.66 56.16 19.95 56.48 C 20.79 53.61 20.92 50.38 22.86 47.95 C 24.19 46.22 24.76 44.08 25.45 42.04 C 28.27 42.07 31.09 42.12 33.92 42.12 C 33.64 46.89 35.55 51.35 36.19 56.00 C 37.52 56.00 38.84 55.99 40.17 55.98 C 39.33 50.06 37.24 44.31 38.00 38.22 C 32.85 38.17 27.71 38.05 22.56 37.98 C 21.63 40.51 21.18 43.30 19.55 45.50 Z" />
</g>
<g id="#000000ff">
<path fill="#000000" opacity="1.00" d=" M 38.48 20.36 C 40.62 14.93 42.41 9.35 44.73 4.00 C 47.68 2.98 48.52 6.14 49.84 7.99 C 50.64 8.00 52.25 8.00 53.06 8.01 C 53.99 9.40 54.82 10.88 55.95 12.13 C 58.11 13.32 60.50 13.99 62.78 14.92 C 61.65 17.18 60.52 19.44 59.39 21.70 C 56.85 22.35 54.30 22.99 51.75 23.63 C 51.20 26.82 50.76 30.03 50.16 33.22 C 49.73 36.21 47.01 38.18 46.08 40.95 C 45.86 44.63 46.05 48.31 46.00 51.99 C 46.50 52.00 47.50 52.00 48.00 52.01 C 48.00 53.34 48.00 54.67 48.00 56.00 C 46.00 56.00 44.00 56.00 42.00 56.00 C 42.01 51.30 41.99 46.61 41.98 41.91 C 41.39 37.91 45.69 35.63 46.29 31.93 C 47.04 28.10 47.56 24.22 48.25 20.37 C 49.38 20.09 50.51 19.81 51.65 19.54 C 52.41 18.45 53.17 17.36 53.93 16.28 C 52.91 14.91 51.91 13.53 50.92 12.14 C 49.24 12.05 47.49 11.99 46.25 10.68 C 44.71 15.49 42.75 20.15 41.13 24.93 C 39.87 28.54 37.27 32.43 33.15 32.88 C 26.99 33.61 20.81 32.58 14.66 32.25 C 12.97 36.38 15.00 40.53 16.24 44.45 C 14.19 46.34 12.72 48.70 11.59 51.23 C 11.87 52.80 12.00 54.40 12.13 55.99 C 9.68 56.00 7.22 56.00 4.77 56.00 C 7.03 51.73 8.78 47.17 11.63 43.24 C 11.01 41.23 10.40 39.21 9.75 37.20 C 8.68 40.02 8.10 43.00 7.89 46.01 C 6.56 46.00 5.23 45.99 3.90 45.98 C 4.15 40.98 5.28 35.66 8.93 31.98 C 11.96 29.13 15.66 26.98 19.66 25.81 C 25.94 24.00 32.20 22.17 38.48 20.36 Z" />
<path fill="#000000" opacity="1.00" d=" M 19.55 45.50 C 21.18 43.30 21.63 40.51 22.56 37.98 C 27.71 38.05 32.85 38.17 38.00 38.22 C 37.24 44.31 39.33 50.06 40.17 55.98 C 38.84 55.99 37.52 56.00 36.19 56.00 C 35.55 51.35 33.64 46.89 33.92 42.12 C 31.09 42.12 28.27 42.07 25.45 42.04 C 24.76 44.08 24.19 46.22 22.86 47.95 C 20.92 50.38 20.79 53.61 19.95 56.48 C 18.66 56.16 17.36 55.84 16.07 55.52 C 17.11 52.16 17.16 48.28 19.55 45.50 Z" />
</g>
</svg>
