<?xml version="1.0" encoding="UTF-8" ?>
<!DOCTYPE svg PUBLIC "-//W3C//DTD SVG 1.1//EN" "http://www.w3.org/Graphics/SVG/1.1/DTD/svg11.dtd">
<svg width="60pt" height="60pt" viewBox="0 0 60 60" version="1.1" xmlns="http://www.w3.org/2000/svg">
<g id="#ffffffff">
<path fill="#ffffff" opacity="1.00" d=" M 0.00 0.00 L 60.00 0.00 L 60.00 60.00 L 0.00 60.00 L 0.00 0.00 M 28.50 8.66 C 24.53 10.90 25.40 18.24 30.16 18.87 C 33.62 19.73 36.93 16.50 36.38 13.02 C 36.52 9.07 31.74 6.68 28.50 8.66 M 42.51 8.53 C 38.55 16.00 33.77 22.95 28.73 29.73 C 30.37 29.73 32.00 29.73 33.63 29.74 C 37.49 22.21 42.31 15.28 47.39 8.54 C 45.76 8.54 44.14 8.54 42.51 8.53 M 41.38 20.48 C 38.18 23.25 39.46 29.83 44.04 30.21 C 48.04 31.02 51.03 26.64 49.78 23.03 C 49.07 19.38 44.06 18.13 41.38 20.48 M 4.00 34.02 C 4.00 39.35 4.00 44.67 4.00 50.00 C 7.39 48.73 10.52 46.73 14.08 45.98 C 21.28 48.04 27.90 51.80 35.05 54.02 C 38.37 53.03 41.17 50.86 44.24 49.31 C 47.83 47.18 51.69 45.49 55.10 43.07 C 57.04 41.45 55.57 37.95 53.09 38.02 C 47.21 39.49 42.07 43.11 36.09 44.24 C 37.44 42.89 39.01 40.47 37.06 38.88 C 33.65 36.76 29.75 35.56 26.13 33.85 C 22.77 32.54 19.61 30.51 16.00 30.00 C 11.82 30.71 8.03 32.80 4.00 34.02 Z" />
<path fill="#ffffff" opacity="1.00" d=" M 30.35 11.37 C 32.93 10.24 33.19 14.45 31.79 15.76 C 29.41 16.12 29.36 12.79 30.35 11.37 Z" />
<path fill="#ffffff" opacity="1.00" d=" M 43.89 27.31 C 43.59 25.57 42.70 23.22 44.82 22.22 C 47.10 23.25 46.65 27.38 43.89 27.31 Z" />
</g>
<g id="#000000ff">
<path fill="#968176" opacity="1.00" d=" M 28.50 8.66 C 31.74 6.68 36.52 9.07 36.38 13.02 C 36.93 16.50 33.62 19.73 30.16 18.87 C 25.40 18.24 24.53 10.90 28.50 8.66 M 30.35 11.37 C 29.36 12.79 29.41 16.12 31.79 15.76 C 33.19 14.45 32.93 10.24 30.35 11.37 Z" />
<path fill="#968176" opacity="1.00" d=" M 42.51 8.53 C 44.14 8.54 45.76 8.54 47.39 8.54 C 42.31 15.28 37.49 22.21 33.63 29.74 C 32.00 29.73 30.37 29.73 28.73 29.73 C 33.77 22.95 38.55 16.00 42.51 8.53 Z" />
<path fill="#968176" opacity="1.00" d=" M 41.38 20.48 C 44.06 18.13 49.07 19.38 49.78 23.03 C 51.03 26.64 48.04 31.02 44.04 30.21 C 39.46 29.83 38.18 23.25 41.38 20.48 M 43.89 27.31 C 46.65 27.38 47.10 23.25 44.82 22.22 C 42.70 23.22 43.59 25.57 43.89 27.31 Z" />
<path fill="#968176" opacity="1.00" d=" M 4.00 34.02 C 8.03 32.80 11.82 30.71 16.00 30.00 C 19.61 30.51 22.77 32.54 26.13 33.85 C 29.75 35.56 33.65 36.76 37.06 38.88 C 39.01 40.47 37.44 42.89 36.09 44.24 C 42.07 43.11 47.21 39.49 53.09 38.02 C 55.57 37.95 57.04 41.45 55.10 43.07 C 51.69 45.49 47.83 47.18 44.24 49.31 C 41.17 50.86 38.37 53.03 35.05 54.02 C 27.90 51.80 21.28 48.04 14.08 45.98 C 10.52 46.73 7.39 48.73 4.00 50.00 C 4.00 44.67 4.00 39.35 4.00 34.02 Z" />
</g>
</svg>
