<?xml version="1.0" encoding="UTF-8" ?>
<!DOCTYPE svg PUBLIC "-//W3C//DTD SVG 1.1//EN" "http://www.w3.org/Graphics/SVG/1.1/DTD/svg11.dtd">
<svg width="60pt" height="60pt" viewBox="0 0 60 60" version="1.1" xmlns="http://www.w3.org/2000/svg">
<g id="#ffffffff">
<path fill="#ffffff" opacity="1.00" d=" M 0.00 0.00 L 60.00 0.00 L 60.00 60.00 L 0.00 60.00 L 0.00 0.00 M 39.43 6.62 C 36.28 7.70 33.68 10.27 32.62 13.43 C 30.34 19.43 34.53 26.66 40.82 27.75 C 47.72 29.43 54.84 22.99 53.92 15.98 C 53.51 9.15 45.84 4.15 39.43 6.62 M 4.00 34.02 C 4.00 39.35 4.00 44.67 4.00 50.00 C 7.36 48.72 10.51 46.80 14.02 45.96 C 21.24 48.04 27.90 51.78 35.06 54.04 C 41.64 51.24 47.68 47.22 54.01 43.86 C 57.02 42.84 56.30 37.95 53.05 38.02 C 47.20 39.50 42.06 43.14 36.08 44.22 C 37.45 42.89 38.97 40.54 37.11 38.93 C 33.45 36.66 29.28 35.37 25.39 33.52 C 22.26 32.31 19.32 30.40 15.93 29.99 C 11.79 30.76 8.01 32.79 4.00 34.02 Z" />
<path fill="#ffffff" opacity="1.00" d=" M 42.26 10.00 C 42.63 10.00 43.37 10.00 43.74 10.00 C 43.77 12.48 47.41 12.41 47.05 15.09 C 45.07 14.44 42.99 13.34 40.92 14.36 C 42.54 16.72 47.41 15.49 47.36 19.02 C 47.57 21.61 43.66 21.42 43.75 24.00 C 43.37 24.00 42.63 24.00 42.25 24.00 C 42.04 21.66 39.17 21.34 38.21 19.36 C 40.55 18.53 42.69 21.26 44.86 19.62 C 44.31 17.07 38.70 18.58 38.83 15.00 C 38.62 12.45 42.29 12.49 42.26 10.00 Z" />
</g>
<g id="#000000ff">
<path fill="#000000" opacity="1.00" d=" M 39.43 6.62 C 45.84 4.15 53.51 9.15 53.92 15.98 C 54.84 22.99 47.72 29.43 40.82 27.75 C 34.53 26.66 30.34 19.43 32.62 13.43 C 33.68 10.27 36.28 7.70 39.43 6.62 M 42.26 10.00 C 42.29 12.49 38.62 12.45 38.83 15.00 C 38.70 18.58 44.31 17.07 44.86 19.62 C 42.69 21.26 40.55 18.53 38.21 19.36 C 39.17 21.34 42.04 21.66 42.25 24.00 C 42.63 24.00 43.37 24.00 43.75 24.00 C 43.66 21.42 47.57 21.61 47.36 19.02 C 47.41 15.49 42.54 16.72 40.92 14.36 C 42.99 13.34 45.07 14.44 47.05 15.09 C 47.41 12.41 43.77 12.48 43.74 10.00 C 43.37 10.00 42.63 10.00 42.26 10.00 Z" />
<path fill="#000000" opacity="1.00" d=" M 4.00 34.02 C 8.01 32.79 11.79 30.76 15.93 29.99 C 19.32 30.40 22.26 32.31 25.39 33.52 C 29.28 35.37 33.45 36.66 37.11 38.93 C 38.97 40.54 37.45 42.89 36.08 44.22 C 42.06 43.14 47.20 39.50 53.05 38.02 C 56.30 37.95 57.02 42.84 54.01 43.86 C 47.68 47.22 41.64 51.24 35.06 54.04 C 27.90 51.78 21.24 48.04 14.02 45.96 C 10.51 46.80 7.36 48.72 4.00 50.00 C 4.00 44.67 4.00 39.35 4.00 34.02 Z" />
</g>
</svg>
