<?xml version="1.0" encoding="UTF-8" ?>
<!DOCTYPE svg PUBLIC "-//W3C//DTD SVG 1.1//EN" "http://www.w3.org/Graphics/SVG/1.1/DTD/svg11.dtd">
<svg width="200pt" height="200pt" viewBox="0 0 200 200" version="1.1" xmlns="http://www.w3.org/2000/svg">
<g id="#ffffffff">
<path fill="#ffffff" opacity="1.00" d=" M 0.00 0.00 L 200.00 0.00 L 200.00 200.00 L 0.00 200.00 L 0.00 0.00 M 11.77 67.16 C 15.87 73.46 19.98 79.77 24.11 86.06 C 35.99 79.88 47.87 73.70 59.74 67.50 C 59.76 99.49 59.74 131.48 59.75 163.47 C 72.36 163.47 84.97 163.48 97.57 163.46 C 97.50 145.15 97.68 126.83 97.49 108.52 C 88.74 84.50 79.83 60.53 70.99 36.54 C 66.68 36.52 62.37 36.54 58.06 36.52 C 42.62 46.72 27.19 56.94 11.77 67.16 M 76.15 36.54 C 84.12 58.01 91.96 79.52 99.95 100.99 C 108.09 79.58 115.77 57.99 123.84 36.55 C 107.94 36.51 92.05 36.53 76.15 36.54 M 103.58 105.42 C 103.06 106.89 102.29 108.35 102.41 109.97 C 102.42 127.80 102.44 145.63 102.40 163.45 C 115.01 163.49 127.62 163.46 140.24 163.47 C 140.24 131.48 140.23 99.50 140.24 67.52 C 152.13 73.68 163.99 79.89 175.87 86.06 C 180.00 79.77 184.10 73.46 188.21 67.16 C 172.78 56.93 157.35 46.72 141.90 36.52 C 137.59 36.54 133.28 36.52 128.97 36.53 C 120.50 59.49 112.06 82.46 103.58 105.42 Z" />
</g>
<g id="#000000ff">
<path fill="#968176" opacity="1.00" d=" M 11.77 67.16 C 27.19 56.94 42.62 46.72 58.06 36.52 C 62.37 36.54 66.68 36.52 70.99 36.54 C 79.83 60.53 88.74 84.50 97.49 108.52 C 97.68 126.83 97.50 145.15 97.57 163.46 C 84.97 163.48 72.36 163.47 59.75 163.47 C 59.74 131.48 59.76 99.49 59.74 67.50 C 47.87 73.70 35.99 79.88 24.11 86.06 C 19.98 79.77 15.87 73.46 11.77 67.16 Z" />
<path fill="#968176" opacity="1.00" d=" M 76.15 36.54 C 92.05 36.53 107.94 36.51 123.84 36.55 C 115.77 57.99 108.09 79.58 99.95 100.99 C 91.96 79.52 84.12 58.01 76.15 36.54 Z" />
<path fill="#968176" opacity="1.00" d=" M 103.58 105.42 C 112.06 82.46 120.50 59.49 128.97 36.53 C 133.28 36.52 137.59 36.54 141.90 36.52 C 157.35 46.72 172.78 56.93 188.21 67.16 C 184.10 73.46 180.00 79.77 175.87 86.06 C 163.99 79.89 152.13 73.68 140.24 67.52 C 140.23 99.50 140.24 131.48 140.24 163.47 C 127.62 163.46 115.01 163.49 102.40 163.45 C 102.44 145.63 102.42 127.80 102.41 109.97 C 102.29 108.35 103.06 106.89 103.58 105.42 Z" />
</g>
</svg>
