<?xml version="1.0" encoding="UTF-8" ?>
<!DOCTYPE svg PUBLIC "-//W3C//DTD SVG 1.1//EN" "http://www.w3.org/Graphics/SVG/1.1/DTD/svg11.dtd">
<svg width="60pt" height="60pt" viewBox="0 0 60 60" version="1.1" xmlns="http://www.w3.org/2000/svg">
<g id="#ffffffff">
<path fill="#ffffff" opacity="1.00" d=" M 0.00 0.00 L 60.00 0.00 L 60.00 60.00 L 0.00 60.00 L 0.00 0.00 M 22.32 8.23 C 18.29 11.24 17.98 16.64 15.67 20.75 C 13.92 22.73 10.97 23.21 9.27 25.30 C 7.02 27.57 6.28 30.76 5.86 33.82 C 8.40 34.25 11.74 34.25 13.05 36.95 C 13.87 39.12 13.53 41.55 14.22 43.77 C 15.73 45.17 17.98 45.35 19.76 46.33 C 22.74 47.64 23.03 51.69 25.90 53.15 C 28.42 54.34 31.52 54.27 34.03 53.09 C 36.64 51.73 37.26 48.27 39.91 47.00 C 41.36 46.14 43.15 45.68 44.21 44.27 C 45.46 42.29 45.58 39.77 46.93 37.85 C 48.81 36.04 51.63 36.23 54.04 35.89 C 53.88 32.12 54.00 27.77 51.11 24.90 C 49.09 22.36 44.55 23.05 43.54 19.58 C 41.78 15.31 40.77 10.07 36.43 7.58 C 32.13 5.28 26.35 5.40 22.32 8.23 Z" />
<path fill="#ffffff" opacity="1.00" d=" M 23.15 16.15 C 26.90 15.01 26.95 22.89 23.21 21.86 C 21.61 20.37 21.65 17.69 23.15 16.15 Z" />
<path fill="#ffffff" opacity="1.00" d=" M 32.01 22.50 C 29.70 21.07 29.04 16.87 32.06 15.88 C 34.92 17.06 34.26 21.03 32.01 22.50 Z" />
</g>
<g id="#000000ff">
<path fill="#000000" opacity="1.00" d=" M 22.32 8.23 C 26.35 5.40 32.13 5.28 36.43 7.58 C 40.77 10.07 41.78 15.31 43.54 19.58 C 44.55 23.05 49.09 22.36 51.11 24.90 C 54.00 27.77 53.88 32.12 54.04 35.89 C 51.63 36.23 48.81 36.04 46.93 37.85 C 45.58 39.77 45.46 42.29 44.21 44.27 C 43.15 45.68 41.36 46.14 39.91 47.00 C 37.26 48.27 36.64 51.73 34.03 53.09 C 31.52 54.27 28.42 54.34 25.90 53.15 C 23.03 51.69 22.74 47.64 19.76 46.33 C 17.98 45.35 15.73 45.17 14.22 43.77 C 13.53 41.55 13.87 39.12 13.05 36.95 C 11.74 34.25 8.40 34.25 5.86 33.82 C 6.28 30.76 7.02 27.57 9.27 25.30 C 10.97 23.21 13.92 22.73 15.67 20.75 C 17.98 16.64 18.29 11.24 22.32 8.23 M 23.15 16.15 C 21.65 17.69 21.61 20.37 23.21 21.86 C 26.95 22.89 26.90 15.01 23.15 16.15 M 32.01 22.50 C 34.26 21.03 34.92 17.06 32.06 15.88 C 29.04 16.87 29.70 21.07 32.01 22.50 Z" />
</g>
</svg>
