<?xml version="1.0" encoding="UTF-8" ?>
<!DOCTYPE svg PUBLIC "-//W3C//DTD SVG 1.1//EN" "http://www.w3.org/Graphics/SVG/1.1/DTD/svg11.dtd">
<svg width="64pt" height="64pt" viewBox="0 0 64 64" version="1.1" xmlns="http://www.w3.org/2000/svg">
<g id="#ffffffff">
<path fill="#ffffff" opacity="1.00" d=" M 0.00 0.00 L 64.00 0.00 L 64.00 64.00 L 0.00 64.00 L 0.00 0.00 M 12.00 6.00 C 12.00 10.67 11.99 15.33 12.01 20.00 C 13.34 20.00 14.66 20.00 15.99 20.00 C 15.99 16.67 16.01 13.33 16.00 10.00 C 26.67 10.00 37.33 10.00 48.00 10.00 C 47.99 13.33 48.01 16.67 48.01 20.00 C 49.34 20.00 50.66 20.00 51.99 20.00 C 52.01 15.33 52.00 10.67 52.00 6.00 C 38.67 6.00 25.33 6.00 12.00 6.00 M 16.30 28.17 C 16.19 31.19 15.75 34.40 16.74 37.31 C 18.51 40.84 22.97 39.89 26.18 40.01 C 26.18 37.34 26.18 34.68 26.18 32.01 C 24.87 32.00 23.57 31.99 22.27 31.99 C 22.21 33.44 22.13 34.89 22.05 36.35 C 18.63 35.17 20.70 30.59 20.39 27.86 C 22.02 29.47 24.02 30.42 26.37 30.09 C 26.04 28.22 25.86 26.00 24.05 24.90 C 21.29 22.74 16.63 24.65 16.30 28.17 M 30.01 24.00 C 29.99 29.33 29.99 34.67 30.01 40.00 C 31.34 40.00 32.66 40.00 33.99 40.00 C 34.01 34.67 34.01 29.33 33.99 24.00 C 32.66 24.00 31.34 24.00 30.01 24.00 M 38.00 24.00 C 38.00 29.33 37.99 34.67 38.01 40.00 C 39.33 40.00 40.66 40.00 41.98 40.00 C 42.00 38.02 41.99 36.04 41.99 34.07 C 43.33 34.02 44.67 33.97 46.01 33.93 C 46.00 32.64 46.00 31.36 46.01 30.08 C 44.67 30.03 43.33 29.98 41.99 29.93 C 41.99 29.45 41.99 28.50 41.99 28.02 C 44.00 28.00 46.00 28.00 48.01 27.97 C 48.00 26.65 48.00 25.33 48.00 24.01 C 44.67 24.00 41.33 24.00 38.00 24.00 M 12.01 44.00 C 11.99 48.66 12.00 53.33 12.00 58.00 C 25.33 58.00 38.67 58.00 52.00 58.00 C 52.00 53.33 52.01 48.66 51.99 44.00 C 50.66 44.00 49.34 44.00 48.01 44.00 C 48.01 47.33 47.99 50.67 48.00 54.00 C 37.33 54.00 26.67 54.00 16.00 54.00 C 16.01 50.67 15.99 47.33 15.99 44.00 C 14.66 44.00 13.34 44.00 12.01 44.00 Z" />
</g>
<g id="#000000ff">
<path fill="#000000" opacity="1.00" d=" M 12.00 6.00 C 25.33 6.00 38.67 6.00 52.00 6.00 C 52.00 10.67 52.01 15.33 51.99 20.00 C 50.66 20.00 49.34 20.00 48.01 20.00 C 48.01 16.67 47.99 13.33 48.00 10.00 C 37.33 10.00 26.67 10.00 16.00 10.00 C 16.01 13.33 15.99 16.67 15.99 20.00 C 14.66 20.00 13.34 20.00 12.01 20.00 C 11.99 15.33 12.00 10.67 12.00 6.00 Z" />
<path fill="#000000" opacity="1.00" d=" M 16.30 28.17 C 16.63 24.65 21.29 22.74 24.05 24.90 C 25.86 26.00 26.04 28.22 26.37 30.09 C 24.02 30.42 22.02 29.47 20.39 27.86 C 20.70 30.59 18.63 35.17 22.05 36.35 C 22.13 34.89 22.21 33.44 22.27 31.99 C 23.57 31.99 24.87 32.00 26.18 32.01 C 26.18 34.68 26.18 37.34 26.18 40.01 C 22.97 39.89 18.51 40.84 16.74 37.31 C 15.75 34.40 16.19 31.19 16.30 28.17 Z" />
<path fill="#000000" opacity="1.00" d=" M 30.01 24.00 C 31.34 24.00 32.66 24.00 33.99 24.00 C 34.01 29.33 34.01 34.67 33.99 40.00 C 32.66 40.00 31.34 40.00 30.01 40.00 C 29.99 34.67 29.99 29.33 30.01 24.00 Z" />
<path fill="#000000" opacity="1.00" d=" M 38.00 24.00 C 41.33 24.00 44.67 24.00 48.00 24.01 C 48.00 25.33 48.00 26.65 48.01 27.97 C 46.00 28.00 44.00 28.00 41.99 28.02 C 41.99 28.50 41.99 29.45 41.99 29.93 C 43.33 29.98 44.67 30.03 46.01 30.08 C 46.00 31.36 46.00 32.64 46.01 33.93 C 44.67 33.97 43.33 34.02 41.99 34.07 C 41.99 36.04 42.00 38.02 41.98 40.00 C 40.66 40.00 39.33 40.00 38.01 40.00 C 37.99 34.67 38.00 29.33 38.00 24.00 Z" />
<path fill="#000000" opacity="1.00" d=" M 12.01 44.00 C 13.34 44.00 14.66 44.00 15.99 44.00 C 15.99 47.33 16.01 50.67 16.00 54.00 C 26.67 54.00 37.33 54.00 48.00 54.00 C 47.99 50.67 48.01 47.33 48.01 44.00 C 49.34 44.00 50.66 44.00 51.99 44.00 C 52.01 48.66 52.00 53.33 52.00 58.00 C 38.67 58.00 25.33 58.00 12.00 58.00 C 12.00 53.33 11.99 48.66 12.01 44.00 Z" />
</g>
</svg>
