<?xml version="1.0" encoding="UTF-8" ?>
<!DOCTYPE svg PUBLIC "-//W3C//DTD SVG 1.1//EN" "http://www.w3.org/Graphics/SVG/1.1/DTD/svg11.dtd">
<svg width="64pt" height="64pt" viewBox="0 0 64 64" version="1.1" xmlns="http://www.w3.org/2000/svg">
<g id="#ffffffff">
<path fill="#ffffff" opacity="1.00" d=" M 0.00 0.00 L 64.00 0.00 L 64.00 64.00 L 0.00 64.00 L 0.00 0.00 M 18.76 16.01 C 15.18 16.00 11.59 16.00 8.00 16.00 C 8.00 20.66 8.00 25.32 8.00 29.98 C 8.50 29.99 9.50 30.01 10.00 30.02 C 10.00 38.68 9.99 47.34 10.00 56.00 C 24.67 56.00 39.33 56.00 54.00 56.00 C 54.01 47.34 54.00 38.68 54.00 30.02 C 54.50 30.01 55.50 29.99 56.00 29.98 C 56.00 25.32 56.00 20.66 56.00 16.00 C 52.41 16.00 48.83 16.00 45.24 16.01 C 47.51 12.50 43.88 7.85 40.01 8.00 C 36.39 7.96 33.79 10.95 32.01 13.76 C 30.20 10.97 27.63 7.98 24.00 8.00 C 20.13 7.82 16.46 12.50 18.76 16.01 Z" />
<path fill="#ffffff" opacity="1.00" d=" M 23.22 12.10 C 25.77 11.64 27.40 14.20 28.70 15.97 C 26.85 15.95 24.98 16.16 23.15 15.84 C 21.60 15.15 21.66 12.75 23.22 12.10 Z" />
<path fill="#ffffff" opacity="1.00" d=" M 35.30 15.97 C 36.48 14.28 37.84 12.34 40.02 11.96 C 42.06 11.96 42.73 14.91 40.92 15.81 C 39.08 16.20 37.17 15.93 35.30 15.97 Z" />
<path fill="#ffffff" opacity="1.00" d=" M 12.00 20.00 C 18.00 20.00 24.00 20.00 30.00 20.00 C 30.00 22.00 30.00 24.00 30.00 26.00 C 24.00 26.00 18.00 26.00 12.00 26.00 C 12.00 24.00 12.00 22.00 12.00 20.00 Z" />
<path fill="#ffffff" opacity="1.00" d=" M 34.00 20.00 C 40.00 20.00 46.00 20.00 52.00 20.00 C 52.00 22.00 52.00 24.00 52.00 26.00 C 46.00 26.00 40.00 26.00 34.00 26.00 C 34.00 24.00 34.00 22.00 34.00 20.00 Z" />
<path fill="#ffffff" opacity="1.00" d=" M 14.00 30.00 C 19.33 30.00 24.67 30.00 30.00 30.00 C 30.00 37.33 30.00 44.67 30.00 52.00 C 24.67 52.00 19.33 52.00 14.00 52.00 C 14.00 44.67 14.00 37.33 14.00 30.00 Z" />
<path fill="#ffffff" opacity="1.00" d=" M 34.00 30.00 C 39.33 30.00 44.67 30.00 50.00 30.00 C 50.00 37.33 50.00 44.67 50.00 52.00 C 44.67 52.00 39.33 52.00 34.00 52.00 C 34.00 44.67 34.00 37.33 34.00 30.00 Z" />
</g>
<g id="#000000ff">
<path fill="#000000" opacity="1.00" d=" M 18.76 16.01 C 16.46 12.50 20.13 7.82 24.00 8.00 C 27.63 7.98 30.20 10.97 32.01 13.76 C 33.79 10.95 36.39 7.96 40.01 8.00 C 43.88 7.85 47.51 12.50 45.24 16.01 C 48.83 16.00 52.41 16.00 56.00 16.00 C 56.00 20.66 56.00 25.32 56.00 29.98 C 55.50 29.99 54.50 30.01 54.00 30.02 C 54.00 38.68 54.01 47.34 54.00 56.00 C 39.33 56.00 24.67 56.00 10.00 56.00 C 9.99 47.34 10.00 38.68 10.00 30.02 C 9.50 30.01 8.50 29.99 8.00 29.98 C 8.00 25.32 8.00 20.66 8.00 16.00 C 11.59 16.00 15.18 16.00 18.76 16.01 M 23.22 12.10 C 21.66 12.75 21.60 15.15 23.15 15.84 C 24.98 16.16 26.85 15.95 28.70 15.97 C 27.40 14.20 25.77 11.64 23.22 12.10 M 35.30 15.97 C 37.17 15.93 39.08 16.20 40.92 15.81 C 42.73 14.91 42.06 11.96 40.02 11.96 C 37.84 12.34 36.48 14.28 35.30 15.97 M 12.00 20.00 C 12.00 22.00 12.00 24.00 12.00 26.00 C 18.00 26.00 24.00 26.00 30.00 26.00 C 30.00 24.00 30.00 22.00 30.00 20.00 C 24.00 20.00 18.00 20.00 12.00 20.00 M 34.00 20.00 C 34.00 22.00 34.00 24.00 34.00 26.00 C 40.00 26.00 46.00 26.00 52.00 26.00 C 52.00 24.00 52.00 22.00 52.00 20.00 C 46.00 20.00 40.00 20.00 34.00 20.00 M 14.00 30.00 C 14.00 37.33 14.00 44.67 14.00 52.00 C 19.33 52.00 24.67 52.00 30.00 52.00 C 30.00 44.67 30.00 37.33 30.00 30.00 C 24.67 30.00 19.33 30.00 14.00 30.00 M 34.00 30.00 C 34.00 37.33 34.00 44.67 34.00 52.00 C 39.33 52.00 44.67 52.00 50.00 52.00 C 50.00 44.67 50.00 37.33 50.00 30.00 C 44.67 30.00 39.33 30.00 34.00 30.00 Z" />
</g>
</svg>
