<?xml version="1.0" encoding="UTF-8" ?>
<!DOCTYPE svg PUBLIC "-//W3C//DTD SVG 1.1//EN" "http://www.w3.org/Graphics/SVG/1.1/DTD/svg11.dtd">
<svg width="60pt" height="60pt" viewBox="0 0 60 60" version="1.1" xmlns="http://www.w3.org/2000/svg">
<g id="#ffffffff">
<path fill="#ffffff" opacity="1.00" d=" M 0.00 0.00 L 60.00 0.00 L 60.00 60.00 L 0.00 60.00 L 0.00 0.00 M 22.35 5.26 C 20.14 6.77 19.89 9.58 20.13 12.01 C 16.22 12.19 12.20 11.53 8.36 12.38 C 5.35 13.69 6.08 17.37 5.95 20.00 C 21.99 20.00 38.02 20.00 54.05 20.00 C 53.92 17.38 54.63 13.74 51.70 12.37 C 47.83 11.55 43.80 12.17 39.87 12.02 C 40.20 9.37 39.67 6.33 37.14 4.90 C 34.92 3.35 32.20 4.16 30.00 5.26 C 27.63 4.00 24.57 3.35 22.35 5.26 M 8.00 24.00 C 8.06 32.71 7.89 41.44 8.06 50.15 C 7.98 52.25 9.94 54.00 11.99 53.95 C 17.32 54.12 22.66 53.93 28.00 54.00 C 28.00 44.00 28.00 34.00 28.00 24.00 C 21.33 24.00 14.67 24.00 8.00 24.00 M 32.00 24.00 C 32.00 34.00 32.00 44.00 32.00 54.00 C 37.36 53.93 42.73 54.12 48.09 53.94 C 50.12 53.98 51.97 52.15 51.94 50.12 C 52.11 41.42 51.94 32.70 52.00 24.00 C 45.33 24.00 38.67 24.00 32.00 24.00 Z" />
<path fill="#ffffff" opacity="1.00" d=" M 24.18 10.82 C 23.31 9.30 25.25 7.31 26.77 8.18 C 28.37 8.79 27.78 10.88 28.17 12.17 C 26.88 11.79 24.86 12.37 24.18 10.82 Z" />
<path fill="#ffffff" opacity="1.00" d=" M 33.13 8.10 C 34.81 7.50 36.52 9.08 35.88 10.80 C 35.11 12.31 33.18 11.82 31.83 12.17 C 32.14 10.79 31.75 9.00 33.13 8.10 Z" />
</g>
<g id="#000000ff">
<path fill="#000000" opacity="1.00" d=" M 22.35 5.26 C 24.57 3.35 27.63 4.00 30.00 5.26 C 32.20 4.16 34.92 3.35 37.14 4.90 C 39.67 6.33 40.20 9.37 39.87 12.02 C 43.80 12.17 47.83 11.55 51.70 12.37 C 54.63 13.74 53.92 17.38 54.05 20.00 C 38.02 20.00 21.99 20.00 5.95 20.00 C 6.08 17.37 5.35 13.69 8.36 12.38 C 12.20 11.53 16.22 12.19 20.13 12.01 C 19.89 9.58 20.14 6.77 22.35 5.26 M 24.18 10.82 C 24.86 12.37 26.88 11.79 28.17 12.17 C 27.78 10.88 28.37 8.79 26.77 8.18 C 25.25 7.31 23.31 9.30 24.18 10.82 M 33.13 8.10 C 31.75 9.00 32.14 10.79 31.83 12.17 C 33.18 11.82 35.11 12.31 35.88 10.80 C 36.52 9.08 34.81 7.50 33.13 8.10 Z" />
<path fill="#000000" opacity="1.00" d=" M 8.00 24.00 C 14.67 24.00 21.33 24.00 28.00 24.00 C 28.00 34.00 28.00 44.00 28.00 54.00 C 22.66 53.93 17.32 54.12 11.99 53.95 C 9.94 54.00 7.98 52.25 8.06 50.15 C 7.89 41.44 8.06 32.71 8.00 24.00 Z" />
<path fill="#000000" opacity="1.00" d=" M 32.00 24.00 C 38.67 24.00 45.33 24.00 52.00 24.00 C 51.94 32.70 52.11 41.42 51.94 50.12 C 51.97 52.15 50.12 53.98 48.09 53.94 C 42.73 54.12 37.36 53.93 32.00 54.00 C 32.00 44.00 32.00 34.00 32.00 24.00 Z" />
</g>
</svg>
