<?xml version="1.0" encoding="UTF-8" ?>
<!DOCTYPE svg PUBLIC "-//W3C//DTD SVG 1.1//EN" "http://www.w3.org/Graphics/SVG/1.1/DTD/svg11.dtd">
<svg width="60pt" height="60pt" viewBox="0 0 60 60" version="1.1" xmlns="http://www.w3.org/2000/svg">
<g id="#ffffffff">
<path fill="#ffffff" opacity="1.00" d=" M 0.00 0.00 L 60.00 0.00 L 60.00 60.00 L 0.00 60.00 L 0.00 0.00 M 27.73 6.77 C 20.38 11.39 13.01 16.01 5.75 20.79 C 3.10 22.36 3.87 25.96 5.95 27.68 C 6.11 34.47 5.88 41.28 6.05 48.08 C 5.93 50.61 8.54 52.30 10.87 52.00 C 23.62 52.00 36.36 52.00 49.11 52.00 C 51.45 52.32 54.00 50.59 53.95 48.09 C 54.13 41.29 53.88 34.48 54.05 27.68 C 56.09 25.96 56.90 22.41 54.28 20.81 C 47.67 16.38 40.83 12.28 34.18 7.88 C 32.33 6.63 29.85 5.13 27.73 6.77 Z" />
<path fill="#ffffff" opacity="1.00" d=" M 29.17 10.10 C 31.58 9.15 33.13 12.76 30.84 13.88 C 28.41 14.87 26.84 11.21 29.17 10.10 Z" />
<path fill="#ffffff" opacity="1.00" d=" M 23.09 14.10 C 25.56 13.08 27.20 16.85 24.76 17.90 C 22.39 18.79 20.94 15.30 23.09 14.10 Z" />
<path fill="#ffffff" opacity="1.00" d=" M 35.12 14.11 C 37.53 13.13 39.15 16.70 36.86 17.87 C 34.46 18.88 32.88 15.30 35.12 14.11 Z" />
<path fill="#ffffff" opacity="1.00" d=" M 17.19 18.10 C 19.58 17.16 21.10 20.72 18.86 21.89 C 16.42 22.89 14.84 19.19 17.19 18.10 Z" />
<path fill="#ffffff" opacity="1.00" d=" M 41.10 18.11 C 43.45 17.02 45.27 20.86 42.79 21.79 C 40.50 22.99 38.85 19.22 41.10 18.11 Z" />
<path fill="#ffffff" opacity="1.00" d=" M 11.21 22.16 C 13.54 21.10 15.11 24.72 12.90 25.89 C 10.49 26.94 8.76 23.17 11.21 22.16 Z" />
<path fill="#ffffff" opacity="1.00" d=" M 47.24 22.18 C 49.49 20.97 51.26 25.00 48.78 25.79 C 46.54 27.10 44.71 22.96 47.24 22.18 Z" />
<path fill="#ffffff" opacity="1.00" d=" M 11.11 30.10 C 13.55 29.11 15.15 32.74 12.84 33.89 C 10.43 34.86 8.90 31.30 11.11 30.10 Z" />
<path fill="#ffffff" opacity="1.00" d=" M 47.17 30.10 C 49.58 29.16 51.14 32.76 48.84 33.88 C 46.41 34.85 44.85 31.23 47.17 30.10 Z" />
<path fill="#ffffff" opacity="1.00" d=" M 24.35 34.35 C 27.62 30.88 33.90 31.40 36.52 35.40 C 38.97 39.11 37.70 43.83 37.99 48.00 C 32.66 48.00 27.34 48.00 22.01 48.00 C 22.33 43.47 20.75 37.95 24.35 34.35 Z" />
<path fill="#ffffff" opacity="1.00" d=" M 11.23 38.13 C 13.63 37.14 15.13 40.86 12.81 41.89 C 10.40 42.89 8.82 39.10 11.23 38.13 Z" />
<path fill="#ffffff" opacity="1.00" d=" M 47.11 38.12 C 49.51 37.12 51.14 40.66 48.87 41.89 C 46.46 42.86 44.87 39.33 47.11 38.12 Z" />
<path fill="#ffffff" opacity="1.00" d=" M 11.06 46.27 C 12.34 45.83 13.30 46.16 13.93 47.27 C 13.42 49.25 8.07 47.80 11.06 46.27 Z" />
<path fill="#ffffff" opacity="1.00" d=" M 47.07 46.27 C 48.35 45.83 49.30 46.17 49.93 47.28 C 49.40 49.25 44.06 47.78 47.07 46.27 Z" />
</g>
<g id="#000000ff">
<path fill="#968176" opacity="1.00" d=" M 27.73 6.77 C 29.85 5.13 32.33 6.63 34.18 7.88 C 40.83 12.28 47.67 16.38 54.28 20.81 C 56.90 22.41 56.09 25.96 54.05 27.68 C 53.88 34.48 54.13 41.29 53.95 48.09 C 54.00 50.59 51.45 52.32 49.11 52.00 C 36.36 52.00 23.62 52.00 10.87 52.00 C 8.54 52.30 5.93 50.61 6.05 48.08 C 5.88 41.28 6.11 34.47 5.95 27.68 C 3.87 25.96 3.10 22.36 5.75 20.79 C 13.01 16.01 20.38 11.39 27.73 6.77 M 29.17 10.10 C 26.84 11.21 28.41 14.87 30.84 13.88 C 33.13 12.76 31.58 9.15 29.17 10.10 M 23.09 14.10 C 20.94 15.30 22.39 18.79 24.76 17.90 C 27.20 16.85 25.56 13.08 23.09 14.10 M 35.12 14.11 C 32.88 15.30 34.46 18.88 36.86 17.87 C 39.15 16.70 37.53 13.13 35.12 14.11 M 17.19 18.10 C 14.84 19.19 16.42 22.89 18.86 21.89 C 21.10 20.72 19.58 17.16 17.19 18.10 M 41.10 18.11 C 38.85 19.22 40.50 22.99 42.79 21.79 C 45.27 20.86 43.45 17.02 41.10 18.11 M 11.21 22.16 C 8.76 23.17 10.49 26.94 12.90 25.89 C 15.11 24.72 13.54 21.10 11.21 22.16 M 47.24 22.18 C 44.71 22.96 46.54 27.10 48.78 25.79 C 51.26 25.00 49.49 20.97 47.24 22.18 M 11.11 30.10 C 8.90 31.30 10.43 34.86 12.84 33.89 C 15.15 32.74 13.55 29.11 11.11 30.10 M 47.17 30.10 C 44.85 31.23 46.41 34.85 48.84 33.88 C 51.14 32.76 49.58 29.16 47.17 30.10 M 24.35 34.35 C 20.75 37.95 22.33 43.47 22.01 48.00 C 27.34 48.00 32.66 48.00 37.99 48.00 C 37.70 43.83 38.97 39.11 36.52 35.40 C 33.90 31.40 27.62 30.88 24.35 34.35 M 11.23 38.13 C 8.82 39.10 10.40 42.89 12.81 41.89 C 15.13 40.86 13.63 37.14 11.23 38.13 M 47.11 38.12 C 44.87 39.33 46.46 42.86 48.87 41.89 C 51.14 40.66 49.51 37.12 47.11 38.12 M 11.06 46.27 C 8.07 47.80 13.42 49.25 13.93 47.27 C 13.30 46.16 12.34 45.83 11.06 46.27 M 47.07 46.27 C 44.06 47.78 49.40 49.25 49.93 47.28 C 49.30 46.17 48.35 45.83 47.07 46.27 Z" />
</g>
</svg>
