<?xml version="1.0" encoding="UTF-8" ?>
<!DOCTYPE svg PUBLIC "-//W3C//DTD SVG 1.1//EN" "http://www.w3.org/Graphics/SVG/1.1/DTD/svg11.dtd">
<svg width="60pt" height="60pt" viewBox="0 0 60 60" version="1.1" xmlns="http://www.w3.org/2000/svg">
<g id="#ffffffff">
<path fill="#ffffff" opacity="1.00" d=" M 0.00 0.00 L 60.00 0.00 L 60.00 60.00 L 0.00 60.00 L 0.00 0.00 M 24.48 6.65 C 17.36 8.31 11.14 13.41 8.15 20.09 C 4.99 26.94 5.36 35.29 9.14 41.83 C 12.94 48.58 20.17 53.28 27.90 53.89 C 35.82 54.66 43.96 51.11 48.82 44.83 C 55.83 36.29 55.63 22.92 48.37 14.60 C 42.75 7.71 33.11 4.53 24.48 6.65 Z" />
<path fill="#ffffff" opacity="1.00" d=" M 28.51 10.45 C 29.85 9.56 31.59 10.21 32.60 11.30 C 34.95 13.64 35.86 16.92 36.87 19.98 C 32.29 20.01 27.71 20.01 23.13 19.98 C 24.27 16.54 25.30 12.57 28.51 10.45 Z" />
<path fill="#ffffff" opacity="1.00" d=" M 12.63 19.96 C 14.93 16.32 18.24 13.48 22.04 11.50 C 20.83 14.26 19.76 17.08 19.00 20.00 C 16.88 20.00 14.75 19.99 12.63 19.96 Z" />
<path fill="#ffffff" opacity="1.00" d=" M 37.96 11.51 C 41.77 13.49 45.06 16.34 47.39 19.97 C 45.26 19.99 43.13 20.00 41.00 20.00 C 40.24 17.09 39.17 14.27 37.96 11.51 Z" />
<path fill="#ffffff" opacity="1.00" d=" M 10.84 36.01 C 9.84 32.05 9.84 27.95 10.83 23.99 C 13.33 24.00 15.83 24.01 18.32 24.00 C 17.95 27.99 17.95 32.01 18.32 36.00 C 15.83 35.99 13.33 36.00 10.84 36.01 Z" />
<path fill="#ffffff" opacity="1.00" d=" M 22.38 24.01 C 27.46 24.00 32.54 24.00 37.61 24.01 C 38.05 27.99 38.05 32.01 37.61 35.99 C 32.54 36.00 27.46 36.00 22.38 35.99 C 21.95 32.01 21.95 27.99 22.38 24.01 Z" />
<path fill="#ffffff" opacity="1.00" d=" M 41.67 24.00 C 44.17 24.01 46.66 24.00 49.16 23.99 C 50.16 27.95 50.16 32.05 49.16 36.01 C 46.66 36.00 44.17 35.99 41.67 36.00 C 42.05 32.01 42.05 27.99 41.67 24.00 Z" />
<path fill="#ffffff" opacity="1.00" d=" M 12.63 40.04 C 14.76 40.01 16.88 40.00 19.00 39.99 C 19.76 42.91 20.83 45.73 22.04 48.49 C 18.24 46.50 14.94 43.68 12.63 40.04 Z" />
<path fill="#ffffff" opacity="1.00" d=" M 23.13 40.02 C 27.71 39.99 32.29 39.99 36.87 40.02 C 35.81 43.24 34.84 46.77 32.18 49.07 C 31.00 50.23 29.01 50.24 27.83 49.08 C 25.16 46.77 24.19 43.24 23.13 40.02 Z" />
<path fill="#ffffff" opacity="1.00" d=" M 40.99 40.00 C 43.12 40.00 45.25 40.00 47.38 40.03 C 45.06 43.66 41.76 46.50 37.96 48.49 C 39.16 45.74 40.24 42.92 40.99 40.00 Z" />
</g>
<g id="#000000ff">
<path fill="#000000" opacity="1.00" d=" M 24.48 6.65 C 33.11 4.53 42.75 7.71 48.37 14.60 C 55.63 22.92 55.83 36.29 48.82 44.83 C 43.96 51.11 35.82 54.66 27.90 53.89 C 20.17 53.28 12.94 48.58 9.14 41.83 C 5.36 35.29 4.99 26.94 8.15 20.09 C 11.14 13.41 17.36 8.31 24.48 6.65 M 28.51 10.45 C 25.30 12.57 24.27 16.54 23.13 19.98 C 27.71 20.01 32.29 20.01 36.87 19.98 C 35.86 16.92 34.95 13.64 32.60 11.30 C 31.59 10.21 29.85 9.56 28.51 10.45 M 12.63 19.96 C 14.75 19.99 16.88 20.00 19.00 20.00 C 19.76 17.08 20.83 14.26 22.04 11.50 C 18.24 13.48 14.93 16.32 12.63 19.96 M 37.96 11.51 C 39.17 14.27 40.24 17.09 41.00 20.00 C 43.13 20.00 45.26 19.99 47.39 19.97 C 45.06 16.34 41.77 13.49 37.96 11.51 M 10.84 36.01 C 13.33 36.00 15.83 35.99 18.32 36.00 C 17.95 32.01 17.95 27.99 18.32 24.00 C 15.83 24.01 13.33 24.00 10.83 23.99 C 9.84 27.95 9.84 32.05 10.84 36.01 M 22.38 24.01 C 21.95 27.99 21.95 32.01 22.38 35.99 C 27.46 36.00 32.54 36.00 37.61 35.99 C 38.05 32.01 38.05 27.99 37.61 24.01 C 32.54 24.00 27.46 24.00 22.38 24.01 M 41.67 24.00 C 42.05 27.99 42.05 32.01 41.67 36.00 C 44.17 35.99 46.66 36.00 49.16 36.01 C 50.16 32.05 50.16 27.95 49.16 23.99 C 46.66 24.00 44.17 24.01 41.67 24.00 M 12.63 40.04 C 14.94 43.68 18.24 46.50 22.04 48.49 C 20.83 45.73 19.76 42.91 19.00 39.99 C 16.88 40.00 14.76 40.01 12.63 40.04 M 23.13 40.02 C 24.19 43.24 25.16 46.77 27.83 49.08 C 29.01 50.24 31.00 50.23 32.18 49.07 C 34.84 46.77 35.81 43.24 36.87 40.02 C 32.29 39.99 27.71 39.99 23.13 40.02 M 40.99 40.00 C 40.24 42.92 39.16 45.74 37.96 48.49 C 41.76 46.50 45.06 43.66 47.38 40.03 C 45.25 40.00 43.12 40.00 40.99 40.00 Z" />
</g>
</svg>
