<?xml version="1.0" encoding="UTF-8" ?>
<!DOCTYPE svg PUBLIC "-//W3C//DTD SVG 1.1//EN" "http://www.w3.org/Graphics/SVG/1.1/DTD/svg11.dtd">
<svg width="60pt" height="60pt" viewBox="0 0 60 60" version="1.1" xmlns="http://www.w3.org/2000/svg">
<g id="#ffffffff">
<path fill="#ffffff" opacity="1.00" d=" M 0.00 0.00 L 60.00 0.00 L 60.00 60.00 L 0.00 60.00 L 0.00 0.00 M 13.43 6.58 C 11.43 7.52 10.02 9.62 10.05 11.85 C 9.91 22.89 10.07 33.94 9.98 44.98 C 10.00 47.48 9.74 50.44 11.82 52.27 C 13.66 54.24 16.56 54.00 19.02 54.02 C 28.69 53.91 38.37 54.15 48.04 53.91 C 49.56 54.05 50.31 52.37 49.89 51.10 C 49.03 49.79 47.41 50.06 46.07 49.99 C 36.70 50.00 27.34 50.00 17.97 50.01 C 16.61 49.92 14.92 50.28 14.10 48.86 C 13.70 47.59 14.44 45.92 15.96 46.07 C 25.99 45.85 36.04 46.14 46.07 45.95 C 48.15 45.99 50.01 44.10 49.95 42.02 C 50.07 31.66 49.97 21.28 50.00 10.91 C 50.31 8.60 48.67 5.97 46.15 6.05 C 37.10 5.90 28.05 6.07 19.00 5.98 C 17.14 6.05 15.17 5.81 13.43 6.58 Z" />
<path fill="#ffffff" opacity="1.00" d=" M 21.24 13.17 C 21.84 11.73 24.22 11.76 24.79 13.22 C 26.64 16.77 28.62 20.30 30.05 24.05 C 29.82 25.43 28.60 26.36 27.23 25.86 C 25.94 24.95 25.52 23.29 24.70 22.01 C 23.57 22.01 22.44 22.01 21.32 22.01 C 20.50 23.27 20.08 24.91 18.81 25.80 C 17.37 26.71 15.33 24.76 16.20 23.30 C 17.73 19.86 19.46 16.49 21.24 13.17 Z" />
<path fill="#ffffff" opacity="1.00" d=" M 31.96 29.96 C 32.40 27.08 35.95 28.24 37.95 27.95 C 39.96 28.27 43.67 27.02 44.00 29.98 C 43.18 32.48 40.61 34.00 38.86 35.89 C 40.48 36.28 43.01 35.32 43.82 37.27 C 44.51 38.39 43.31 40.15 42.01 39.93 C 39.07 40.08 36.12 40.15 33.19 39.84 C 32.16 39.29 31.80 38.44 32.11 37.29 C 33.58 35.37 35.42 33.77 37.16 32.10 C 35.34 31.84 32.18 32.64 31.96 29.96 Z" />
</g>
<g id="#000000ff">
<path fill="#000000" opacity="1.00" d=" M 13.43 6.58 C 15.17 5.81 17.14 6.05 19.00 5.98 C 28.05 6.07 37.10 5.90 46.15 6.05 C 48.67 5.97 50.31 8.60 50.00 10.91 C 49.97 21.28 50.07 31.66 49.95 42.02 C 50.01 44.10 48.15 45.99 46.07 45.95 C 36.04 46.14 25.99 45.85 15.96 46.07 C 14.44 45.92 13.70 47.59 14.10 48.86 C 14.92 50.28 16.61 49.92 17.97 50.01 C 27.34 50.00 36.70 50.00 46.07 49.99 C 47.41 50.06 49.03 49.79 49.89 51.10 C 50.31 52.37 49.56 54.05 48.04 53.91 C 38.37 54.15 28.69 53.91 19.02 54.02 C 16.56 54.00 13.66 54.24 11.82 52.27 C 9.74 50.44 10.00 47.48 9.98 44.98 C 10.07 33.94 9.91 22.89 10.05 11.85 C 10.02 9.62 11.43 7.52 13.43 6.58 M 21.24 13.17 C 19.46 16.49 17.73 19.86 16.20 23.30 C 15.33 24.76 17.37 26.71 18.81 25.80 C 20.08 24.91 20.50 23.27 21.32 22.01 C 22.44 22.01 23.57 22.01 24.70 22.01 C 25.52 23.29 25.94 24.95 27.23 25.86 C 28.60 26.36 29.82 25.43 30.05 24.05 C 28.62 20.30 26.64 16.77 24.79 13.22 C 24.22 11.76 21.84 11.73 21.24 13.17 M 31.96 29.96 C 32.18 32.64 35.34 31.84 37.16 32.10 C 35.42 33.77 33.58 35.37 32.11 37.29 C 31.80 38.44 32.16 39.29 33.19 39.84 C 36.12 40.15 39.07 40.08 42.01 39.93 C 43.31 40.15 44.51 38.39 43.82 37.27 C 43.01 35.32 40.48 36.28 38.86 35.89 C 40.61 34.00 43.18 32.48 44.00 29.98 C 43.67 27.02 39.96 28.27 37.95 27.95 C 35.95 28.24 32.40 27.08 31.96 29.96 Z" />
</g>
</svg>
