<?xml version="1.0" encoding="UTF-8" ?>
<!DOCTYPE svg PUBLIC "-//W3C//DTD SVG 1.1//EN" "http://www.w3.org/Graphics/SVG/1.1/DTD/svg11.dtd">
<svg width="64pt" height="64pt" viewBox="0 0 64 64" version="1.1" xmlns="http://www.w3.org/2000/svg">
<g id="#ffffffff">
<path fill="#ffffff" opacity="1.00" d=" M 0.00 0.00 L 64.00 0.00 L 64.00 64.00 L 0.00 64.00 L 0.00 0.00 M 18.56 10.52 C 15.85 11.40 13.84 14.08 14.18 16.98 C 14.65 26.66 15.23 36.35 15.82 46.02 C 15.81 48.92 18.14 51.67 21.06 51.89 C 24.03 52.14 27.02 51.98 30.00 51.99 C 30.00 53.33 30.00 54.66 30.00 56.00 C 31.33 56.00 32.67 56.00 34.00 56.00 C 34.00 54.66 34.00 53.33 34.00 51.99 C 36.99 51.98 39.98 52.14 42.96 51.89 C 45.85 51.64 48.16 48.94 48.17 46.07 C 48.77 36.36 49.36 26.63 49.82 16.91 C 50.12 14.02 48.10 11.38 45.41 10.51 C 36.89 7.20 27.08 7.20 18.56 10.52 Z" />
<path fill="#ffffff" opacity="1.00" d=" M 19.48 14.50 C 27.13 11.27 36.07 11.22 43.80 14.20 C 45.06 14.54 46.16 15.50 45.82 16.93 C 45.56 23.29 45.07 29.64 44.75 36.00 C 36.25 36.00 27.75 36.00 19.24 36.00 C 18.92 30.01 18.55 24.02 18.20 18.04 C 18.20 16.76 17.83 14.91 19.48 14.50 M 26.60 30.57 C 28.75 35.77 37.22 34.58 37.91 29.01 C 38.05 24.19 34.36 20.39 32.01 16.48 C 29.57 20.75 24.68 25.27 26.60 30.57 Z" />
<path fill="#ffffff" opacity="1.00" d=" M 30.04 28.71 C 30.01 26.83 31.27 25.29 32.00 23.65 C 32.69 25.32 34.14 26.89 33.91 28.81 C 33.11 30.40 30.74 30.36 30.04 28.71 Z" />
<path fill="#ffffff" opacity="1.00" d=" M 19.44 40.00 C 27.81 40.00 36.18 40.00 44.56 40.00 C 44.00 42.54 45.24 46.08 42.96 47.86 C 35.70 48.11 28.39 48.10 21.13 47.86 C 18.67 46.26 20.04 42.52 19.44 40.00 M 23.56 42.00 C 23.62 43.33 23.68 44.67 23.75 46.00 C 25.83 46.00 27.92 46.00 30.00 46.00 C 30.00 44.67 30.00 43.33 30.00 42.00 C 27.85 42.00 25.71 42.00 23.56 42.00 M 34.00 42.00 C 34.00 43.33 34.00 44.67 34.00 46.00 C 36.08 46.00 38.17 46.00 40.25 46.00 C 40.32 44.67 40.38 43.33 40.44 42.00 C 38.29 42.00 36.15 42.00 34.00 42.00 Z" />
</g>
<g id="#000000ff">
<path fill="#000000" opacity="1.00" d=" M 18.56 10.52 C 27.08 7.20 36.89 7.20 45.41 10.51 C 48.10 11.38 50.12 14.02 49.82 16.91 C 49.36 26.63 48.77 36.36 48.17 46.07 C 48.16 48.94 45.85 51.64 42.96 51.89 C 39.98 52.14 36.99 51.98 34.00 51.99 C 34.00 53.33 34.00 54.66 34.00 56.00 C 32.67 56.00 31.33 56.00 30.00 56.00 C 30.00 54.66 30.00 53.33 30.00 51.99 C 27.02 51.98 24.03 52.14 21.06 51.89 C 18.14 51.67 15.81 48.92 15.82 46.02 C 15.23 36.35 14.65 26.66 14.18 16.98 C 13.84 14.08 15.85 11.40 18.56 10.52 M 19.48 14.50 C 17.83 14.91 18.20 16.76 18.20 18.04 C 18.55 24.02 18.92 30.01 19.24 36.00 C 27.75 36.00 36.25 36.00 44.75 36.00 C 45.07 29.64 45.56 23.29 45.82 16.93 C 46.16 15.50 45.06 14.54 43.80 14.20 C 36.07 11.22 27.13 11.27 19.48 14.50 M 19.44 40.00 C 20.04 42.52 18.67 46.26 21.13 47.86 C 28.39 48.10 35.70 48.11 42.96 47.86 C 45.24 46.08 44.00 42.54 44.56 40.00 C 36.18 40.00 27.81 40.00 19.44 40.00 Z" />
<path fill="#000000" opacity="1.00" d=" M 26.60 30.57 C 24.68 25.27 29.57 20.75 32.01 16.48 C 34.36 20.39 38.05 24.19 37.91 29.01 C 37.22 34.58 28.75 35.77 26.60 30.57 M 30.04 28.71 C 30.74 30.36 33.11 30.40 33.91 28.81 C 34.14 26.89 32.69 25.32 32.00 23.65 C 31.27 25.29 30.01 26.83 30.04 28.71 Z" />
<path fill="#000000" opacity="1.00" d=" M 23.56 42.00 C 25.71 42.00 27.85 42.00 30.00 42.00 C 30.00 43.33 30.00 44.67 30.00 46.00 C 27.92 46.00 25.83 46.00 23.75 46.00 C 23.68 44.67 23.62 43.33 23.56 42.00 Z" />
<path fill="#000000" opacity="1.00" d=" M 34.00 42.00 C 36.15 42.00 38.29 42.00 40.44 42.00 C 40.38 43.33 40.32 44.67 40.25 46.00 C 38.17 46.00 36.08 46.00 34.00 46.00 C 34.00 44.67 34.00 43.33 34.00 42.00 Z" />
</g>
</svg>
