<?xml version="1.0" encoding="UTF-8" ?>
<!DOCTYPE svg PUBLIC "-//W3C//DTD SVG 1.1//EN" "http://www.w3.org/Graphics/SVG/1.1/DTD/svg11.dtd">
<svg width="60pt" height="60pt" viewBox="0 0 60 60" version="1.1" xmlns="http://www.w3.org/2000/svg">
<g id="#ffffffff">
<path fill="#ffffff" opacity="1.00" d=" M 0.00 0.00 L 60.00 0.00 L 60.00 60.00 L 0.00 60.00 L 0.00 0.00 M 6.31 10.38 C 4.53 11.15 3.81 13.16 4.00 14.98 C 4.03 25.37 3.92 35.77 4.05 46.15 C 4.03 48.62 6.63 50.35 8.94 50.00 C 23.33 49.97 37.73 50.07 52.11 49.95 C 54.59 49.98 56.37 47.40 56.00 45.05 C 56.00 35.02 56.00 24.98 56.00 14.94 C 56.36 12.60 54.59 10.01 52.11 10.04 C 38.41 9.92 24.70 10.06 11.00 9.98 C 9.45 10.08 7.79 9.78 6.31 10.38 Z" />
<path fill="#ffffff" opacity="1.00" d=" M 13.40 13.99 C 24.48 14.01 35.56 14.00 46.64 14.00 C 41.08 18.06 35.58 22.20 30.02 26.25 C 24.47 22.17 18.95 18.07 13.40 13.99 Z" />
<path fill="#ffffff" opacity="1.00" d=" M 10.00 18.94 C 16.69 23.85 23.34 28.79 30.00 33.72 C 36.69 28.84 43.32 23.87 50.00 18.98 C 50.01 27.98 50.00 36.99 50.00 46.00 C 36.67 46.00 23.33 46.00 10.00 46.00 C 10.00 36.98 10.00 27.96 10.00 18.94 Z" />
</g>
<g id="#000000ff">
<path fill="#000000" opacity="1.00" d=" M 6.31 10.38 C 7.79 9.78 9.45 10.08 11.00 9.98 C 24.70 10.06 38.41 9.92 52.11 10.04 C 54.59 10.01 56.36 12.60 56.00 14.94 C 56.00 24.98 56.00 35.02 56.00 45.05 C 56.37 47.40 54.59 49.98 52.11 49.95 C 37.73 50.07 23.33 49.97 8.94 50.00 C 6.63 50.35 4.03 48.62 4.05 46.15 C 3.92 35.77 4.03 25.37 4.00 14.98 C 3.81 13.16 4.53 11.15 6.31 10.38 M 13.40 13.99 C 18.95 18.07 24.47 22.17 30.02 26.25 C 35.58 22.20 41.08 18.06 46.64 14.00 C 35.56 14.00 24.48 14.01 13.40 13.99 M 10.00 18.94 C 10.00 27.96 10.00 36.98 10.00 46.00 C 23.33 46.00 36.67 46.00 50.00 46.00 C 50.00 36.99 50.01 27.98 50.00 18.98 C 43.32 23.87 36.69 28.84 30.00 33.72 C 23.34 28.79 16.69 23.85 10.00 18.94 Z" />
</g>
</svg>
