<?xml version="1.0" encoding="UTF-8" ?>
<!DOCTYPE svg PUBLIC "-//W3C//DTD SVG 1.1//EN" "http://www.w3.org/Graphics/SVG/1.1/DTD/svg11.dtd">
<svg width="64pt" height="64pt" viewBox="0 0 64 64" version="1.1" xmlns="http://www.w3.org/2000/svg">
<g id="#ffffffff">
<path fill="#ffffff" opacity="1.00" d=" M 0.00 0.00 L 64.00 0.00 L 64.00 64.00 L 0.00 64.00 L 0.00 0.00 M 26.48 6.60 C 17.80 8.42 10.34 15.03 7.47 23.42 C 4.23 32.35 6.49 42.97 13.10 49.80 C 19.35 56.58 29.37 59.53 38.30 57.21 C 47.68 54.94 55.36 47.05 57.37 37.62 C 59.38 28.88 56.41 19.24 49.85 13.13 C 43.77 7.27 34.72 4.76 26.48 6.60 Z" />
<path fill="#ffffff" opacity="1.00" d=" M 26.54 10.69 C 33.68 8.83 41.69 10.84 47.04 15.94 C 51.72 20.27 54.32 26.74 53.95 33.11 C 53.65 40.93 48.77 48.34 41.71 51.73 C 34.37 55.43 24.98 54.50 18.54 49.38 C 12.35 44.70 9.06 36.57 10.23 28.90 C 11.33 20.27 18.09 12.74 26.54 10.69 M 18.02 31.98 C 20.67 34.66 23.33 37.33 25.99 40.00 C 26.00 38.00 26.00 36.00 26.00 34.00 C 32.67 34.00 39.33 34.00 46.00 34.00 C 46.00 32.67 46.00 31.33 46.00 30.00 C 39.33 30.00 32.67 30.00 26.00 30.00 C 26.00 28.00 26.00 26.00 26.00 24.00 C 23.34 26.66 20.68 29.32 18.02 31.98 Z" />
</g>
<g id="#000000ff">
<path fill="#000000" opacity="1.00" d=" M 26.48 6.60 C 34.72 4.76 43.77 7.27 49.85 13.13 C 56.41 19.24 59.38 28.88 57.37 37.62 C 55.36 47.05 47.68 54.94 38.30 57.21 C 29.37 59.53 19.35 56.58 13.10 49.80 C 6.49 42.97 4.23 32.35 7.47 23.42 C 10.34 15.03 17.80 8.42 26.48 6.60 M 26.54 10.69 C 18.09 12.74 11.33 20.27 10.23 28.90 C 9.06 36.57 12.35 44.70 18.54 49.38 C 24.98 54.50 34.37 55.43 41.71 51.73 C 48.77 48.34 53.65 40.93 53.95 33.11 C 54.32 26.74 51.72 20.27 47.04 15.94 C 41.69 10.84 33.68 8.83 26.54 10.69 Z" />
<path fill="#000000" opacity="1.00" d=" M 18.02 31.98 C 20.68 29.32 23.34 26.66 26.00 24.00 C 26.00 26.00 26.00 28.00 26.00 30.00 C 32.67 30.00 39.33 30.00 46.00 30.00 C 46.00 31.33 46.00 32.67 46.00 34.00 C 39.33 34.00 32.67 34.00 26.00 34.00 C 26.00 36.00 26.00 38.00 25.99 40.00 C 23.33 37.33 20.67 34.66 18.02 31.98 Z" />
</g>
</svg>
