<?xml version="1.0" encoding="UTF-8" ?>
<!DOCTYPE svg PUBLIC "-//W3C//DTD SVG 1.1//EN" "http://www.w3.org/Graphics/SVG/1.1/DTD/svg11.dtd">
<svg width="60pt" height="60pt" viewBox="0 0 60 60" version="1.1" xmlns="http://www.w3.org/2000/svg">
<g id="#ffffffff">
<path fill="#ffffff" opacity="1.00" d=" M 0.00 0.00 L 60.00 0.00 L 60.00 60.00 L 0.00 60.00 L 0.00 0.00 M 12.30 12.30 C 8.00 13.75 4.93 18.41 6.31 22.93 C 7.14 26.58 10.57 28.58 13.73 30.00 C 10.55 31.42 7.10 33.45 6.29 37.13 C 4.97 41.64 8.02 46.25 12.30 47.70 C 13.74 51.96 18.34 55.02 22.85 53.70 C 26.54 52.90 28.58 49.46 30.00 46.27 C 31.41 49.43 33.42 52.86 37.08 53.68 C 41.60 55.05 46.26 51.99 47.70 47.70 C 51.97 46.26 55.03 41.63 53.70 37.13 C 52.89 33.45 49.45 31.41 46.27 30.00 C 49.43 28.58 52.86 26.57 53.68 22.92 C 55.05 18.40 51.99 13.74 47.70 12.30 C 46.26 8.01 41.62 4.95 37.10 6.30 C 33.44 7.11 31.42 10.56 30.00 13.73 C 28.53 10.30 26.14 6.64 22.11 6.13 C 17.77 5.26 13.69 8.30 12.30 12.30 Z" />
<path fill="#ffffff" opacity="1.00" d=" M 25.77 28.72 C 25.10 25.11 29.10 23.63 32.00 23.89 C 32.00 27.93 32.00 31.96 32.00 36.00 C 31.24 36.00 29.71 36.00 28.95 36.00 C 28.96 32.89 28.93 29.78 28.96 26.67 C 27.90 27.36 26.84 28.04 25.77 28.72 Z" />
<path fill="#ffffff" opacity="1.00" d=" M 37.22 24.16 C 44.52 21.49 46.54 34.56 39.99 36.05 C 33.44 37.35 31.93 26.44 37.22 24.16 M 38.99 34.41 C 41.55 32.17 41.56 27.83 39.00 25.58 C 36.43 27.82 36.46 32.14 38.99 34.41 Z" />
<path fill="#ffffff" opacity="1.00" d=" M 14.93 26.00 C 15.61 26.01 16.98 26.03 17.66 26.04 C 18.22 26.56 19.04 29.36 19.84 27.04 C 20.62 26.08 21.70 25.69 23.09 25.88 C 22.30 27.25 21.48 28.61 20.66 29.96 C 21.48 31.34 22.30 32.72 23.09 34.11 C 20.95 34.52 19.68 33.40 18.95 31.54 C 18.39 33.59 16.88 34.30 14.92 34.11 C 15.70 32.75 16.51 31.40 17.33 30.06 C 16.52 28.71 15.72 27.36 14.93 26.00 Z" />
</g>
<g id="#000000ff">
<path fill="#968176" opacity="1.00" d=" M 12.30 12.30 C 13.69 8.30 17.77 5.26 22.11 6.13 C 26.14 6.64 28.53 10.30 30.00 13.73 C 31.42 10.56 33.44 7.11 37.10 6.30 C 41.62 4.95 46.26 8.01 47.70 12.30 C 51.99 13.74 55.05 18.40 53.68 22.92 C 52.86 26.57 49.43 28.58 46.27 30.00 C 49.45 31.41 52.89 33.45 53.70 37.13 C 55.03 41.63 51.97 46.26 47.70 47.70 C 46.26 51.99 41.60 55.05 37.08 53.68 C 33.42 52.86 31.41 49.43 30.00 46.27 C 28.58 49.46 26.54 52.90 22.85 53.70 C 18.34 55.02 13.74 51.96 12.30 47.70 C 8.02 46.25 4.97 41.64 6.29 37.13 C 7.10 33.45 10.55 31.42 13.73 30.00 C 10.57 28.58 7.14 26.58 6.31 22.93 C 4.93 18.41 8.00 13.75 12.30 12.30 M 25.77 28.72 C 26.84 28.04 27.90 27.36 28.96 26.67 C 28.93 29.78 28.96 32.89 28.95 36.00 C 29.71 36.00 31.24 36.00 32.00 36.00 C 32.00 31.96 32.00 27.93 32.00 23.89 C 29.10 23.63 25.10 25.11 25.77 28.72 M 37.22 24.16 C 31.93 26.44 33.44 37.35 39.99 36.05 C 46.54 34.56 44.52 21.49 37.22 24.16 M 14.93 26.00 C 15.72 27.36 16.52 28.71 17.33 30.06 C 16.51 31.40 15.70 32.75 14.92 34.11 C 16.88 34.30 18.39 33.59 18.95 31.54 C 19.68 33.40 20.95 34.52 23.09 34.11 C 22.30 32.72 21.48 31.34 20.66 29.96 C 21.48 28.61 22.30 27.25 23.09 25.88 C 21.70 25.69 20.62 26.08 19.84 27.04 C 19.04 29.36 18.22 26.56 17.66 26.04 C 16.98 26.03 15.61 26.01 14.93 26.00 Z" />
<path fill="#968176" opacity="1.00" d=" M 38.99 34.41 C 36.46 32.14 36.43 27.82 39.00 25.58 C 41.56 27.83 41.55 32.17 38.99 34.41 Z" />
</g>
</svg>
