<?xml version="1.0" encoding="UTF-8" ?>
<!DOCTYPE svg PUBLIC "-//W3C//DTD SVG 1.1//EN" "http://www.w3.org/Graphics/SVG/1.1/DTD/svg11.dtd">
<svg width="64pt" height="64pt" viewBox="0 0 64 64" version="1.1" xmlns="http://www.w3.org/2000/svg">
<g id="#ffffffff">
<path fill="#ffffff" opacity="1.00" d=" M 0.00 0.00 L 64.00 0.00 L 64.00 64.00 L 0.00 64.00 L 0.00 0.00 M 25.16 9.17 C 21.59 11.37 21.14 16.46 23.64 19.64 C 19.57 22.62 15.10 25.09 11.29 28.40 C 9.37 31.13 11.80 34.18 12.69 36.81 C 13.92 36.27 15.14 35.72 16.37 35.18 C 15.75 33.70 15.13 32.22 14.51 30.74 C 18.80 27.82 23.04 24.83 27.36 21.94 C 32.41 22.92 36.41 18.44 36.36 13.62 C 37.01 15.87 37.82 18.07 38.81 20.20 C 35.65 20.99 30.28 20.60 30.01 25.04 C 30.52 28.12 32.08 30.90 33.13 33.82 C 34.51 36.99 34.02 40.55 33.89 43.90 C 32.00 48.04 29.58 51.93 27.51 55.99 C 29.03 55.99 30.54 56.00 32.05 56.01 C 33.93 52.30 36.19 48.77 37.83 44.95 C 38.13 41.75 38.13 38.50 37.87 35.29 C 36.80 31.84 35.23 28.57 34.00 25.18 C 37.08 24.36 42.06 24.87 42.78 20.81 C 42.62 17.26 40.32 14.19 39.18 10.87 C 38.01 11.41 36.83 11.95 35.65 12.48 C 33.94 8.58 28.79 6.58 25.16 9.17 M 10.50 25.30 C 12.41 24.04 14.30 22.76 16.18 21.45 C 15.52 17.66 16.53 13.85 18.84 10.80 C 14.04 14.13 11.36 19.63 10.50 25.30 M 38.00 28.12 C 40.33 37.77 44.87 46.62 48.37 55.85 C 49.87 55.93 51.37 56.00 52.88 56.04 C 49.05 46.54 44.37 37.33 41.94 27.32 C 40.63 27.59 39.31 27.85 38.00 28.12 Z" />
<path fill="#ffffff" opacity="1.00" d=" M 27.38 12.47 C 30.58 10.26 33.88 15.53 30.65 17.49 C 27.44 19.80 24.07 14.42 27.38 12.47 Z" />
</g>
<g id="#000000ff">
<path fill="#000000" opacity="1.00" d=" M 25.16 9.17 C 28.79 6.58 33.94 8.58 35.65 12.48 C 36.83 11.95 38.01 11.41 39.18 10.87 C 40.32 14.19 42.62 17.26 42.78 20.81 C 42.06 24.87 37.08 24.36 34.00 25.18 C 35.23 28.57 36.80 31.84 37.87 35.29 C 38.13 38.50 38.13 41.75 37.83 44.95 C 36.19 48.77 33.93 52.30 32.05 56.01 C 30.54 56.00 29.03 55.99 27.51 55.99 C 29.58 51.93 32.00 48.04 33.89 43.90 C 34.02 40.55 34.51 36.99 33.13 33.82 C 32.08 30.90 30.52 28.12 30.01 25.04 C 30.28 20.60 35.65 20.99 38.81 20.20 C 37.82 18.07 37.01 15.87 36.36 13.62 C 36.41 18.44 32.41 22.92 27.36 21.94 C 23.04 24.83 18.80 27.82 14.51 30.74 C 15.13 32.22 15.75 33.70 16.37 35.18 C 15.14 35.72 13.92 36.27 12.69 36.81 C 11.80 34.18 9.37 31.13 11.29 28.40 C 15.10 25.09 19.57 22.62 23.64 19.64 C 21.14 16.46 21.59 11.37 25.16 9.17 M 27.38 12.47 C 24.07 14.42 27.44 19.80 30.65 17.49 C 33.88 15.53 30.58 10.26 27.38 12.47 Z" />
<path fill="#000000" opacity="1.00" d=" M 10.50 25.30 C 11.36 19.63 14.04 14.13 18.84 10.80 C 16.53 13.85 15.52 17.66 16.18 21.45 C 14.30 22.76 12.41 24.04 10.50 25.30 Z" />
<path fill="#000000" opacity="1.00" d=" M 38.00 28.12 C 39.31 27.85 40.63 27.59 41.94 27.32 C 44.37 37.33 49.05 46.54 52.88 56.04 C 51.37 56.00 49.87 55.93 48.37 55.85 C 44.87 46.62 40.33 37.77 38.00 28.12 Z" />
</g>
</svg>
