<?xml version="1.0" encoding="UTF-8" ?>
<!DOCTYPE svg PUBLIC "-//W3C//DTD SVG 1.1//EN" "http://www.w3.org/Graphics/SVG/1.1/DTD/svg11.dtd">
<svg width="60pt" height="60pt" viewBox="0 0 60 60" version="1.1" xmlns="http://www.w3.org/2000/svg">
<g id="#ffffffff">
<path fill="#ffffff" opacity="1.00" d=" M 0.00 0.00 L 60.00 0.00 L 60.00 60.00 L 0.00 60.00 L 0.00 0.00 M 7.95 14.54 C 6.49 16.00 4.74 17.64 4.95 19.91 C 5.33 24.68 7.08 29.23 7.48 34.00 C 7.09 38.77 5.33 43.32 4.95 48.10 C 4.87 51.24 7.73 54.05 10.88 53.95 C 23.27 54.07 35.67 53.97 48.07 54.00 C 51.54 54.41 55.14 51.66 55.03 48.03 C 54.67 43.28 52.91 38.74 52.52 34.00 C 52.92 29.25 54.66 24.70 55.04 19.94 C 55.28 17.66 53.52 16.00 52.05 14.54 C 51.96 11.61 52.76 7.12 49.01 6.16 C 36.67 5.82 24.29 6.04 11.94 6.04 C 7.47 6.11 7.83 11.38 7.95 14.54 Z" />
<path fill="#ffffff" opacity="1.00" d=" M 12.00 10.00 C 24.00 10.00 36.00 10.00 48.00 10.00 C 48.00 11.33 48.00 12.67 48.00 14.00 C 36.00 14.00 24.00 14.00 12.00 14.00 C 12.00 12.67 12.00 11.33 12.00 10.00 Z" />
<path fill="#ffffff" opacity="1.00" d=" M 17.94 31.10 C 18.77 25.80 26.38 24.47 29.51 28.38 C 30.88 30.06 30.22 32.20 29.68 34.04 C 32.58 33.98 35.48 34.00 38.37 34.00 C 38.37 37.56 38.38 41.11 38.37 44.67 C 39.58 44.66 40.79 44.67 42.00 44.67 C 41.99 41.12 42.00 37.56 42.00 34.00 C 44.09 34.00 46.18 34.00 48.27 34.00 C 49.09 38.32 50.13 42.60 50.88 46.93 C 51.38 48.28 50.60 50.11 48.96 49.92 C 36.96 50.12 24.95 49.92 12.95 50.02 C 11.51 50.01 8.82 50.19 9.01 48.01 C 9.59 43.28 10.90 38.68 11.73 34.00 C 15.20 34.00 18.67 34.00 22.14 34.00 C 22.13 34.66 22.12 35.98 22.11 36.64 C 24.22 36.72 27.58 36.91 27.05 39.93 C 26.37 43.07 22.13 42.24 21.20 39.69 C 20.33 39.69 18.59 39.70 17.72 39.70 C 18.40 45.69 27.51 46.80 30.20 41.82 C 31.52 39.33 30.13 36.57 27.94 35.16 C 28.30 34.87 29.03 34.30 29.40 34.01 C 28.01 33.99 26.62 33.99 25.23 34.01 C 26.62 32.95 27.56 30.50 25.70 29.40 C 23.95 28.41 22.42 29.77 21.42 31.09 C 20.55 31.09 18.81 31.10 17.94 31.10 Z" />
<path fill="#ffffff" opacity="1.00" d=" M 34.03 29.11 C 36.68 28.15 39.34 27.21 41.99 26.26 C 42.00 28.84 42.00 31.42 42.00 34.00 C 40.79 34.00 39.58 34.00 38.37 34.00 C 38.37 33.18 38.37 31.54 38.37 30.71 C 36.92 31.15 35.48 31.60 34.04 32.05 C 34.04 31.31 34.03 29.84 34.03 29.11 Z" />
</g>
<g id="#000000ff">
<path fill="#000000" opacity="1.00" d=" M 7.95 14.54 C 7.83 11.38 7.47 6.11 11.94 6.04 C 24.29 6.04 36.67 5.82 49.01 6.16 C 52.76 7.12 51.96 11.61 52.05 14.54 C 53.52 16.00 55.28 17.66 55.04 19.94 C 54.66 24.70 52.92 29.25 52.52 34.00 C 52.91 38.74 54.67 43.28 55.03 48.03 C 55.14 51.66 51.54 54.41 48.07 54.00 C 35.67 53.97 23.27 54.07 10.88 53.95 C 7.73 54.05 4.87 51.24 4.95 48.10 C 5.33 43.32 7.09 38.77 7.48 34.00 C 7.08 29.23 5.33 24.68 4.95 19.91 C 4.74 17.64 6.49 16.00 7.95 14.54 M 12.00 10.00 C 12.00 11.33 12.00 12.67 12.00 14.00 C 24.00 14.00 36.00 14.00 48.00 14.00 C 48.00 12.67 48.00 11.33 48.00 10.00 C 36.00 10.00 24.00 10.00 12.00 10.00 M 17.94 31.10 C 18.81 31.10 20.55 31.09 21.42 31.09 C 22.42 29.77 23.95 28.41 25.70 29.40 C 27.56 30.50 26.62 32.95 25.23 34.01 C 26.62 33.99 28.01 33.99 29.40 34.01 C 29.03 34.30 28.30 34.87 27.94 35.16 C 30.13 36.57 31.52 39.33 30.20 41.82 C 27.51 46.80 18.40 45.69 17.72 39.70 C 18.59 39.70 20.33 39.69 21.20 39.69 C 22.13 42.24 26.37 43.07 27.05 39.93 C 27.58 36.91 24.22 36.72 22.11 36.64 C 22.12 35.98 22.13 34.66 22.14 34.00 C 18.67 34.00 15.20 34.00 11.73 34.00 C 10.90 38.68 9.59 43.28 9.01 48.01 C 8.82 50.19 11.51 50.01 12.95 50.02 C 24.95 49.92 36.96 50.12 48.96 49.92 C 50.60 50.11 51.38 48.28 50.88 46.93 C 50.13 42.60 49.09 38.32 48.27 34.00 C 46.18 34.00 44.09 34.00 42.00 34.00 C 42.00 31.42 42.00 28.84 41.99 26.26 C 39.34 27.21 36.68 28.15 34.03 29.11 C 34.03 29.84 34.04 31.31 34.04 32.05 C 35.48 31.60 36.92 31.15 38.37 30.71 C 38.37 31.54 38.37 33.18 38.37 34.00 C 35.48 34.00 32.58 33.98 29.68 34.04 C 30.22 32.20 30.88 30.06 29.51 28.38 C 26.38 24.47 18.77 25.80 17.94 31.10 Z" />
<path fill="#000000" opacity="1.00" d=" M 38.37 34.00 C 39.58 34.00 40.79 34.00 42.00 34.00 C 42.00 37.56 41.99 41.12 42.00 44.67 C 40.79 44.67 39.58 44.66 38.37 44.67 C 38.38 41.11 38.37 37.56 38.37 34.00 Z" />
</g>
</svg>
