<?xml version="1.0" encoding="UTF-8" ?>
<!DOCTYPE svg PUBLIC "-//W3C//DTD SVG 1.1//EN" "http://www.w3.org/Graphics/SVG/1.1/DTD/svg11.dtd">
<svg width="60pt" height="60pt" viewBox="0 0 60 60" version="1.1" xmlns="http://www.w3.org/2000/svg">
<g id="#ffffffff">
<path fill="#ffffff" opacity="1.00" d=" M 0.00 0.00 L 60.00 0.00 L 60.00 60.00 L 0.00 60.00 L 0.00 0.00 M 8.04 7.71 C 7.96 20.83 8.01 33.96 8.01 47.08 C 7.63 49.46 9.40 52.01 11.92 51.95 C 19.95 52.09 27.98 51.95 36.01 52.00 C 41.33 46.66 46.67 41.33 52.00 36.00 C 51.97 26.57 52.06 17.14 51.96 7.71 C 49.84 8.14 47.87 9.03 45.93 9.95 C 44.65 9.30 43.36 8.65 42.08 8.01 C 40.71 8.67 39.35 9.34 37.98 10.00 C 36.66 9.33 35.35 8.66 34.03 7.99 C 32.69 8.66 31.34 9.33 30.00 10.00 C 28.70 9.33 27.40 8.66 26.10 8.00 C 24.73 8.67 23.36 9.33 22.00 10.00 C 20.70 9.33 19.40 8.67 18.10 8.00 C 16.74 8.66 15.39 9.31 14.04 9.96 C 12.14 8.97 10.15 8.13 8.04 7.71 Z" />
<path fill="#ffffff" opacity="1.00" d=" M 11.99 13.80 C 14.16 14.74 16.15 13.35 18.09 12.52 C 19.39 13.17 20.68 13.82 21.98 14.47 C 23.33 13.80 24.69 13.14 26.04 12.47 C 27.36 13.14 28.68 13.81 30.00 14.49 C 31.32 13.81 32.64 13.15 33.97 12.47 C 35.31 13.14 36.65 13.80 38.00 14.46 C 39.32 13.81 40.63 13.16 41.95 12.52 C 43.88 13.36 45.85 14.79 48.01 13.80 C 47.98 21.20 48.01 28.60 48.00 36.00 C 42.67 36.00 37.33 36.00 32.00 36.00 C 32.00 36.50 32.00 37.50 32.00 38.00 C 33.33 38.00 34.67 38.00 36.00 38.00 C 36.00 38.50 36.00 39.50 36.00 40.00 C 34.67 40.00 33.33 40.00 32.00 40.00 C 32.00 40.50 32.00 41.50 32.00 42.00 C 33.33 42.00 34.67 42.00 36.00 42.00 C 36.00 44.00 36.00 46.00 36.00 48.00 C 28.00 48.00 20.00 48.00 12.00 48.00 C 11.99 36.60 12.02 25.20 11.99 13.80 M 16.00 18.00 C 16.00 19.33 16.00 20.67 16.00 22.00 C 25.33 22.00 34.67 22.00 44.00 22.00 C 44.00 20.67 44.00 19.33 44.00 18.00 C 34.67 18.00 25.33 18.00 16.00 18.00 M 16.00 24.00 C 16.00 28.67 16.00 33.33 16.00 38.00 C 20.67 38.00 25.33 38.00 30.00 38.00 C 30.00 33.33 30.00 28.67 30.00 24.00 C 25.33 24.00 20.67 24.00 16.00 24.00 M 32.00 24.00 C 32.00 24.50 32.00 25.50 32.00 26.00 C 36.00 26.00 40.00 26.00 44.00 26.00 C 44.00 25.50 44.00 24.50 44.00 24.00 C 40.00 24.00 36.00 24.00 32.00 24.00 M 32.00 28.00 C 32.00 28.50 32.00 29.50 32.00 30.00 C 36.00 30.00 40.00 30.00 44.00 30.00 C 44.00 29.50 44.00 28.50 44.00 28.00 C 40.00 28.00 36.00 28.00 32.00 28.00 M 32.00 32.00 C 32.00 32.50 32.00 33.50 32.00 34.00 C 36.00 34.00 40.00 34.00 44.00 34.00 C 44.00 33.50 44.00 32.50 44.00 32.00 C 40.00 32.00 36.00 32.00 32.00 32.00 M 16.00 40.00 C 16.00 40.50 16.00 41.50 16.00 42.00 C 20.67 42.00 25.33 42.00 30.00 42.00 C 30.00 41.50 30.00 40.50 30.00 40.00 C 25.33 40.00 20.67 40.00 16.00 40.00 Z" />
<path fill="#ffffff" opacity="1.00" d=" M 18.72 26.67 C 21.16 26.74 23.51 25.95 25.93 25.85 C 26.44 26.39 27.46 27.47 27.97 28.00 C 27.01 28.00 25.08 28.00 24.12 27.99 C 24.17 29.94 23.93 31.91 23.09 33.70 C 20.76 31.95 23.40 28.04 20.09 27.03 C 20.00 29.34 19.99 31.66 20.00 33.98 C 22.08 33.95 24.16 33.99 26.24 34.00 C 26.09 33.56 25.78 32.68 25.63 32.24 L 25.24 31.71 C 24.43 29.95 27.00 30.28 27.93 29.66 C 27.97 31.10 28.00 32.54 28.02 33.98 C 27.34 34.65 26.66 35.33 25.99 36.00 C 24.01 36.00 22.03 36.00 20.05 36.00 C 19.36 35.32 18.66 34.63 17.97 33.95 C 18.01 31.50 17.77 28.98 18.72 26.67 Z" />
</g>
<g id="#000000ff">
<path fill="#000000" opacity="1.00" d=" M 8.04 7.71 C 10.15 8.13 12.14 8.97 14.04 9.96 C 15.39 9.31 16.74 8.66 18.10 8.00 C 19.40 8.67 20.70 9.33 22.00 10.00 C 23.36 9.33 24.73 8.67 26.10 8.00 C 27.40 8.66 28.70 9.33 30.00 10.00 C 31.34 9.33 32.69 8.66 34.03 7.99 C 35.35 8.66 36.66 9.33 37.98 10.00 C 39.35 9.34 40.71 8.67 42.08 8.01 C 43.36 8.65 44.65 9.30 45.93 9.95 C 47.87 9.03 49.84 8.14 51.96 7.71 C 52.06 17.14 51.97 26.57 52.00 36.00 C 46.67 41.33 41.33 46.66 36.01 52.00 C 27.98 51.95 19.95 52.09 11.92 51.95 C 9.40 52.01 7.63 49.46 8.01 47.08 C 8.01 33.96 7.96 20.83 8.04 7.71 M 11.99 13.80 C 12.02 25.20 11.99 36.60 12.00 48.00 C 20.00 48.00 28.00 48.00 36.00 48.00 C 36.00 46.00 36.00 44.00 36.00 42.00 C 34.67 42.00 33.33 42.00 32.00 42.00 C 32.00 41.50 32.00 40.50 32.00 40.00 C 33.33 40.00 34.67 40.00 36.00 40.00 C 36.00 39.50 36.00 38.50 36.00 38.00 C 34.67 38.00 33.33 38.00 32.00 38.00 C 32.00 37.50 32.00 36.50 32.00 36.00 C 37.33 36.00 42.67 36.00 48.00 36.00 C 48.01 28.60 47.98 21.20 48.01 13.80 C 45.85 14.79 43.88 13.36 41.95 12.52 C 40.63 13.16 39.32 13.81 38.00 14.46 C 36.65 13.80 35.31 13.14 33.97 12.47 C 32.64 13.15 31.32 13.81 30.00 14.49 C 28.68 13.81 27.36 13.14 26.04 12.47 C 24.69 13.14 23.33 13.80 21.98 14.47 C 20.68 13.82 19.39 13.17 18.09 12.52 C 16.15 13.35 14.16 14.74 11.99 13.80 Z" />
<path fill="#000000" opacity="1.00" d=" M 16.00 18.00 C 25.33 18.00 34.67 18.00 44.00 18.00 C 44.00 19.33 44.00 20.67 44.00 22.00 C 34.67 22.00 25.33 22.00 16.00 22.00 C 16.00 20.67 16.00 19.33 16.00 18.00 Z" />
<path fill="#000000" opacity="1.00" d=" M 16.00 24.00 C 20.67 24.00 25.33 24.00 30.00 24.00 C 30.00 28.67 30.00 33.33 30.00 38.00 C 25.33 38.00 20.67 38.00 16.00 38.00 C 16.00 33.33 16.00 28.67 16.00 24.00 M 18.72 26.67 C 17.77 28.98 18.01 31.50 17.97 33.95 C 18.66 34.63 19.36 35.32 20.05 36.00 C 22.03 36.00 24.01 36.00 25.99 36.00 C 26.66 35.33 27.34 34.65 28.02 33.98 C 28.00 32.54 27.97 31.10 27.93 29.66 C 27.00 30.28 24.43 29.95 25.24 31.71 L 25.63 32.24 C 25.78 32.68 26.09 33.56 26.24 34.00 C 24.16 33.99 22.08 33.95 20.00 33.98 C 19.99 31.66 20.00 29.34 20.09 27.03 C 23.40 28.04 20.76 31.95 23.09 33.70 C 23.93 31.91 24.17 29.94 24.12 27.99 C 25.08 28.00 27.01 28.00 27.97 28.00 C 27.46 27.47 26.44 26.39 25.93 25.85 C 23.51 25.95 21.16 26.74 18.72 26.67 Z" />
<path fill="#000000" opacity="1.00" d=" M 32.00 24.00 C 36.00 24.00 40.00 24.00 44.00 24.00 C 44.00 24.50 44.00 25.50 44.00 26.00 C 40.00 26.00 36.00 26.00 32.00 26.00 C 32.00 25.50 32.00 24.50 32.00 24.00 Z" />
<path fill="#000000" opacity="1.00" d=" M 32.00 28.00 C 36.00 28.00 40.00 28.00 44.00 28.00 C 44.00 28.50 44.00 29.50 44.00 30.00 C 40.00 30.00 36.00 30.00 32.00 30.00 C 32.00 29.50 32.00 28.50 32.00 28.00 Z" />
<path fill="#000000" opacity="1.00" d=" M 32.00 32.00 C 36.00 32.00 40.00 32.00 44.00 32.00 C 44.00 32.50 44.00 33.50 44.00 34.00 C 40.00 34.00 36.00 34.00 32.00 34.00 C 32.00 33.50 32.00 32.50 32.00 32.00 Z" />
<path fill="#000000" opacity="1.00" d=" M 16.00 40.00 C 20.67 40.00 25.33 40.00 30.00 40.00 C 30.00 40.50 30.00 41.50 30.00 42.00 C 25.33 42.00 20.67 42.00 16.00 42.00 C 16.00 41.50 16.00 40.50 16.00 40.00 Z" />
</g>
</svg>
