<?xml version="1.0" encoding="UTF-8" ?>
<!DOCTYPE svg PUBLIC "-//W3C//DTD SVG 1.1//EN" "http://www.w3.org/Graphics/SVG/1.1/DTD/svg11.dtd">
<svg width="60pt" height="60pt" viewBox="0 0 60 60" version="1.1" xmlns="http://www.w3.org/2000/svg">
<g id="#ffffffff">
<path fill="#ffffff" opacity="1.00" d=" M 0.00 0.00 L 60.00 0.00 L 60.00 60.00 L 0.00 60.00 L 0.00 0.00 M 33.94 7.96 C 26.59 8.11 19.23 7.87 11.88 8.06 C 9.37 7.99 7.66 10.61 8.00 12.94 C 8.01 24.99 7.97 37.04 8.03 49.08 C 16.80 40.47 25.42 31.70 34.14 23.04 C 34.77 24.27 35.42 25.50 36.13 26.69 C 35.06 27.82 33.92 28.88 32.83 30.00 C 39.22 36.36 45.56 42.75 51.98 49.08 C 52.00 43.72 52.04 38.37 51.96 33.01 C 51.43 28.33 55.60 25.12 56.80 20.89 C 59.59 14.77 57.29 6.73 51.18 3.62 C 45.36 0.23 37.62 2.49 33.94 7.96 M 10.92 51.98 C 23.64 52.01 36.37 52.03 49.09 51.96 C 42.78 45.53 36.36 39.20 29.99 32.82 C 23.67 39.24 17.22 45.54 10.92 51.98 Z" />
<path fill="#ffffff" opacity="1.00" d=" M 41.12 6.92 C 45.38 4.68 51.19 6.75 53.10 11.17 C 54.86 14.63 53.67 18.71 51.94 21.94 C 50.02 25.99 46.84 29.50 45.94 34.00 C 45.65 34.82 45.26 35.61 44.78 36.35 C 43.86 29.13 37.82 24.07 36.23 17.11 C 35.25 13.09 37.39 8.68 41.12 6.92 M 43.34 12.52 C 40.09 14.48 43.49 19.78 46.63 17.49 C 49.93 15.55 46.50 10.18 43.34 12.52 Z" />
<path fill="#ffffff" opacity="1.00" d=" M 12.92 23.88 C 10.28 19.23 13.59 12.72 18.89 12.12 C 21.41 11.51 23.65 12.86 25.78 13.95 C 25.22 14.53 24.10 15.68 23.54 16.26 C 21.56 15.41 19.12 14.61 17.25 16.21 C 13.94 18.38 15.02 24.04 18.86 24.91 C 21.40 25.76 23.58 23.97 24.83 21.95 C 23.27 21.90 21.72 21.87 20.16 21.85 C 20.17 21.07 20.17 19.51 20.17 18.74 C 22.81 18.72 25.44 18.75 28.08 18.74 C 27.86 21.23 27.82 23.99 25.94 25.90 C 22.42 29.91 15.14 28.66 12.92 23.88 Z" />
</g>
<g id="#000000ff">
<path fill="#000000" opacity="1.00" d=" M 33.94 7.96 C 37.62 2.49 45.36 0.23 51.18 3.62 C 57.29 6.73 59.59 14.77 56.80 20.89 C 55.60 25.12 51.43 28.33 51.96 33.01 C 52.04 38.37 52.00 43.72 51.98 49.08 C 45.56 42.75 39.22 36.36 32.83 30.00 C 33.92 28.88 35.06 27.82 36.13 26.69 C 35.42 25.50 34.77 24.27 34.14 23.04 C 25.42 31.70 16.80 40.47 8.03 49.08 C 7.97 37.04 8.01 24.99 8.00 12.94 C 7.66 10.61 9.37 7.99 11.88 8.06 C 19.23 7.87 26.59 8.11 33.94 7.96 M 41.12 6.92 C 37.39 8.68 35.25 13.09 36.23 17.11 C 37.82 24.07 43.86 29.13 44.78 36.35 C 45.26 35.61 45.65 34.82 45.94 34.00 C 46.84 29.50 50.02 25.99 51.94 21.94 C 53.67 18.71 54.86 14.63 53.10 11.17 C 51.19 6.75 45.38 4.68 41.12 6.92 M 12.92 23.88 C 15.14 28.66 22.42 29.91 25.94 25.90 C 27.82 23.99 27.86 21.23 28.08 18.74 C 25.44 18.75 22.81 18.72 20.17 18.74 C 20.17 19.51 20.17 21.07 20.16 21.85 C 21.72 21.87 23.27 21.90 24.83 21.95 C 23.58 23.97 21.40 25.76 18.86 24.91 C 15.02 24.04 13.94 18.38 17.25 16.21 C 19.12 14.61 21.56 15.41 23.54 16.26 C 24.10 15.68 25.22 14.53 25.78 13.95 C 23.65 12.86 21.41 11.51 18.89 12.12 C 13.59 12.72 10.28 19.23 12.92 23.88 Z" />
<path fill="#000000" opacity="1.00" d=" M 43.34 12.52 C 46.50 10.18 49.93 15.55 46.63 17.49 C 43.49 19.78 40.09 14.48 43.34 12.52 Z" />
<path fill="#000000" opacity="1.00" d=" M 10.92 51.98 C 17.22 45.54 23.67 39.24 29.99 32.82 C 36.36 39.20 42.78 45.53 49.09 51.96 C 36.37 52.03 23.64 52.01 10.92 51.98 Z" />
</g>
</svg>
