<?xml version="1.0" encoding="UTF-8" ?>
<!DOCTYPE svg PUBLIC "-//W3C//DTD SVG 1.1//EN" "http://www.w3.org/Graphics/SVG/1.1/DTD/svg11.dtd">
<svg width="60pt" height="60pt" viewBox="0 0 60 60" version="1.1" xmlns="http://www.w3.org/2000/svg">
<g id="#ffffffff">
<path fill="#ffffff" opacity="1.00" d=" M 0.00 0.00 L 60.00 0.00 L 60.00 60.00 L 0.00 60.00 L 0.00 0.00 M 8.01 10.96 C 7.99 20.99 7.99 31.02 8.01 41.06 C 7.84 42.30 8.37 44.10 9.95 43.93 C 14.63 44.14 19.32 43.93 24.00 44.00 C 24.00 45.33 24.00 46.67 24.00 48.00 C 20.98 47.99 17.95 48.00 14.93 48.03 C 13.74 49.10 12.52 50.15 11.37 51.27 C 10.60 51.76 8.90 54.01 10.99 53.87 C 24.06 54.04 37.16 54.18 50.23 53.79 C 49.36 51.23 46.91 49.81 45.06 48.02 C 42.04 48.00 39.02 47.99 36.00 48.00 C 36.00 46.67 36.00 45.33 36.00 44.00 C 40.95 43.88 45.93 44.25 50.87 43.83 C 51.11 43.59 51.59 43.10 51.83 42.86 C 52.24 32.58 51.87 22.26 52.01 11.97 C 52.03 10.51 52.18 7.97 50.06 8.07 C 36.71 7.94 23.35 7.96 10.00 8.07 C 8.39 7.85 7.83 9.70 8.01 10.96 Z" />
<path fill="#ffffff" opacity="1.00" d=" M 12.00 12.00 C 24.00 12.00 36.00 12.00 48.00 12.00 C 48.00 21.33 48.00 30.67 48.00 40.00 C 36.00 40.00 24.00 40.00 12.00 40.00 C 12.00 30.67 12.00 21.33 12.00 12.00 M 23.20 18.15 C 20.69 20.33 18.33 22.70 16.16 25.21 C 16.16 25.61 16.16 26.40 16.16 26.79 C 18.33 29.30 20.68 31.67 23.19 33.83 C 24.85 34.52 26.54 32.93 25.86 31.24 C 24.37 29.32 22.53 27.71 20.81 26.00 C 22.53 24.28 24.38 22.68 25.88 20.76 C 26.55 19.08 24.88 17.42 23.20 18.15 M 34.17 20.82 C 35.67 22.70 37.50 24.28 39.18 26.00 C 37.50 27.71 35.67 29.29 34.19 31.19 C 33.32 32.78 35.23 34.66 36.81 33.79 C 39.33 31.69 41.67 29.33 43.81 26.84 C 43.82 26.43 43.83 25.61 43.84 25.20 C 41.69 22.67 39.30 20.32 36.78 18.15 C 35.11 17.39 33.38 19.16 34.17 20.82 Z" />
</g>
<g id="#000000ff">
<path fill="#000000" opacity="1.00" d=" M 8.01 10.96 C 7.83 9.70 8.39 7.85 10.00 8.07 C 23.35 7.96 36.71 7.94 50.06 8.07 C 52.18 7.97 52.03 10.51 52.01 11.97 C 51.87 22.26 52.24 32.58 51.83 42.86 C 51.59 43.10 51.11 43.59 50.87 43.83 C 45.93 44.25 40.95 43.88 36.00 44.00 C 36.00 45.33 36.00 46.67 36.00 48.00 C 39.02 47.99 42.04 48.00 45.06 48.02 C 46.91 49.81 49.36 51.23 50.23 53.79 C 37.16 54.18 24.06 54.04 10.99 53.87 C 8.90 54.01 10.60 51.76 11.37 51.27 C 12.52 50.15 13.74 49.10 14.93 48.03 C 17.95 48.00 20.98 47.99 24.00 48.00 C 24.00 46.67 24.00 45.33 24.00 44.00 C 19.32 43.93 14.63 44.14 9.95 43.93 C 8.37 44.10 7.84 42.30 8.01 41.06 C 7.99 31.02 7.99 20.99 8.01 10.96 M 12.00 12.00 C 12.00 21.33 12.00 30.67 12.00 40.00 C 24.00 40.00 36.00 40.00 48.00 40.00 C 48.00 30.67 48.00 21.33 48.00 12.00 C 36.00 12.00 24.00 12.00 12.00 12.00 Z" />
<path fill="#000000" opacity="1.00" d=" M 23.20 18.15 C 24.88 17.42 26.55 19.08 25.88 20.76 C 24.38 22.68 22.53 24.28 20.81 26.00 C 22.53 27.71 24.37 29.32 25.86 31.24 C 26.54 32.93 24.85 34.52 23.19 33.83 C 20.68 31.67 18.33 29.30 16.16 26.79 C 16.16 26.40 16.16 25.61 16.16 25.21 C 18.33 22.70 20.69 20.33 23.20 18.15 Z" />
<path fill="#000000" opacity="1.00" d=" M 34.17 20.82 C 33.38 19.16 35.11 17.39 36.78 18.15 C 39.30 20.32 41.69 22.67 43.84 25.20 C 43.83 25.61 43.82 26.43 43.81 26.84 C 41.67 29.33 39.33 31.69 36.81 33.79 C 35.23 34.66 33.32 32.78 34.19 31.19 C 35.67 29.29 37.50 27.71 39.18 26.00 C 37.50 24.28 35.67 22.70 34.17 20.82 Z" />
</g>
</svg>
