<?xml version="1.0" encoding="UTF-8" ?>
<!DOCTYPE svg PUBLIC "-//W3C//DTD SVG 1.1//EN" "http://www.w3.org/Graphics/SVG/1.1/DTD/svg11.dtd">
<svg width="60pt" height="60pt" viewBox="0 0 60 60" version="1.1" xmlns="http://www.w3.org/2000/svg">
<g id="#ffffffff">
<path fill="#ffffff" opacity="1.00" d=" M 0.00 0.00 L 60.00 0.00 L 60.00 60.00 L 0.00 60.00 L 0.00 0.00 M 11.43 8.58 C 8.99 9.66 7.80 12.38 8.00 14.94 C 8.03 25.32 7.92 35.70 8.05 46.07 C 7.95 49.22 10.75 52.02 13.90 51.94 C 24.64 52.04 35.39 52.05 46.13 51.94 C 49.71 52.03 52.42 48.50 51.99 45.06 C 51.98 34.67 52.08 24.27 51.94 13.88 C 52.01 10.74 49.21 7.96 46.07 8.05 C 36.38 7.90 26.69 8.08 16.99 7.97 C 15.14 8.04 13.17 7.84 11.43 8.58 Z" />
<path fill="#ffffff" opacity="1.00" d=" M 13.15 12.16 C 23.44 11.77 33.75 12.12 44.05 11.99 C 45.50 11.99 48.07 11.83 47.91 13.97 C 48.07 24.65 48.06 35.34 47.91 46.01 C 47.77 48.96 43.93 47.67 42.00 48.08 C 42.00 46.72 42.00 45.36 42.00 44.00 C 38.67 44.00 35.33 44.00 32.00 44.00 C 32.00 45.33 32.00 46.67 32.00 48.00 C 25.72 47.87 19.42 48.26 13.15 47.83 C 11.43 46.86 12.23 44.65 11.97 43.07 C 12.16 33.07 11.73 23.06 12.18 13.07 C 12.42 12.85 12.91 12.39 13.15 12.16 M 28.35 18.38 C 25.91 19.41 25.14 23.00 27.17 24.80 C 28.99 26.82 32.55 26.12 33.60 23.66 C 35.34 20.57 31.46 16.63 28.35 18.38 M 19.38 22.49 C 17.30 23.70 17.74 27.30 20.14 27.83 C 22.28 28.70 24.74 26.17 23.79 24.06 C 23.33 22.23 20.90 21.44 19.38 22.49 M 37.40 22.48 C 35.57 23.53 35.59 26.51 37.44 27.53 C 38.96 28.55 41.35 27.74 41.80 25.93 C 42.87 23.44 39.58 20.90 37.40 22.48 M 22.78 32.82 C 23.07 32.04 23.65 30.48 23.94 29.69 C 21.84 29.48 19.42 29.06 17.76 30.74 C 15.25 32.28 16.16 35.56 15.96 38.00 C 25.32 38.00 34.68 38.00 44.04 38.00 C 43.93 36.11 44.28 34.12 43.62 32.31 C 42.02 29.76 38.86 28.95 36.04 29.70 C 36.33 30.49 36.92 32.06 37.21 32.85 C 35.57 30.35 33.26 27.81 29.99 28.02 C 26.72 27.81 24.45 30.37 22.78 32.82 Z" />
</g>
<g id="#000000ff">
<path fill="#000000" opacity="1.00" d=" M 11.43 8.58 C 13.17 7.84 15.14 8.04 16.99 7.97 C 26.69 8.08 36.38 7.90 46.07 8.05 C 49.21 7.96 52.01 10.74 51.94 13.88 C 52.08 24.27 51.98 34.67 51.99 45.06 C 52.42 48.50 49.71 52.03 46.13 51.94 C 35.39 52.05 24.64 52.04 13.90 51.94 C 10.75 52.02 7.95 49.22 8.05 46.07 C 7.92 35.70 8.03 25.32 8.00 14.94 C 7.80 12.38 8.99 9.66 11.43 8.58 M 13.15 12.16 C 12.91 12.39 12.42 12.85 12.18 13.07 C 11.73 23.06 12.16 33.07 11.97 43.07 C 12.23 44.65 11.43 46.86 13.15 47.83 C 19.42 48.26 25.72 47.87 32.00 48.00 C 32.00 46.67 32.00 45.33 32.00 44.00 C 35.33 44.00 38.67 44.00 42.00 44.00 C 42.00 45.36 42.00 46.72 42.00 48.08 C 43.93 47.67 47.77 48.96 47.91 46.01 C 48.06 35.34 48.07 24.65 47.91 13.97 C 48.07 11.83 45.50 11.99 44.05 11.99 C 33.75 12.12 23.44 11.77 13.15 12.16 Z" />
<path fill="#000000" opacity="1.00" d=" M 28.35 18.38 C 31.46 16.63 35.34 20.57 33.60 23.66 C 32.55 26.12 28.99 26.82 27.17 24.80 C 25.14 23.00 25.91 19.41 28.35 18.38 Z" />
<path fill="#000000" opacity="1.00" d=" M 19.38 22.49 C 20.90 21.44 23.33 22.23 23.79 24.06 C 24.74 26.17 22.28 28.70 20.14 27.83 C 17.74 27.30 17.30 23.70 19.38 22.49 Z" />
<path fill="#000000" opacity="1.00" d=" M 37.40 22.48 C 39.58 20.90 42.87 23.44 41.80 25.93 C 41.35 27.74 38.96 28.55 37.44 27.53 C 35.59 26.51 35.57 23.53 37.40 22.48 Z" />
<path fill="#000000" opacity="1.00" d=" M 22.78 32.82 C 24.45 30.37 26.72 27.81 29.99 28.02 C 33.26 27.81 35.57 30.35 37.21 32.85 C 36.92 32.06 36.33 30.49 36.04 29.70 C 38.86 28.95 42.02 29.76 43.62 32.31 C 44.28 34.12 43.93 36.11 44.04 38.00 C 34.68 38.00 25.32 38.00 15.96 38.00 C 16.16 35.56 15.25 32.28 17.76 30.74 C 19.42 29.06 21.84 29.48 23.94 29.69 C 23.65 30.48 23.07 32.04 22.78 32.82 Z" />
</g>
</svg>
