<?xml version="1.0" encoding="UTF-8" ?>
<!DOCTYPE svg PUBLIC "-//W3C//DTD SVG 1.1//EN" "http://www.w3.org/Graphics/SVG/1.1/DTD/svg11.dtd">
<svg width="60pt" height="60pt" viewBox="0 0 60 60" version="1.1" xmlns="http://www.w3.org/2000/svg">
<g id="#ffffffff">
<path fill="#ffffff" opacity="1.00" d=" M 0.00 0.00 L 60.00 0.00 L 60.00 60.00 L 0.00 60.00 L 0.00 0.00 M 12.39 4.36 C 10.63 5.13 9.78 7.09 10.00 8.92 C 10.03 23.33 9.94 37.74 10.05 52.14 C 9.96 54.66 12.64 56.35 14.96 56.00 C 25.33 55.97 35.70 56.06 46.07 55.96 C 48.58 56.01 50.37 53.41 50.00 51.05 C 49.87 39.42 50.27 27.76 49.80 16.16 C 46.02 11.99 41.97 8.02 37.85 4.20 C 31.59 3.71 25.28 4.15 19.00 3.99 C 16.81 4.10 14.51 3.68 12.39 4.36 Z" />
<path fill="#ffffff" opacity="1.00" d=" M 36.01 7.81 C 39.40 11.20 42.79 14.60 46.19 17.99 C 42.96 17.49 38.79 19.19 36.18 16.92 C 35.81 13.90 36.05 10.84 36.01 7.81 Z" />
<path fill="#ffffff" opacity="1.00" d=" M 19.06 26.18 C 26.04 25.81 33.06 26.01 40.06 26.07 C 42.55 25.83 42.59 30.12 40.09 29.92 C 33.38 30.06 26.65 30.06 19.93 29.93 C 17.90 30.10 17.33 27.03 19.06 26.18 Z" />
<path fill="#ffffff" opacity="1.00" d=" M 19.12 34.17 C 26.07 33.82 33.06 34.01 40.02 34.07 C 42.56 33.81 42.60 38.15 40.05 37.93 C 33.36 38.06 26.66 38.05 19.97 37.93 C 17.89 38.13 17.28 34.97 19.12 34.17 Z" />
<path fill="#ffffff" opacity="1.00" d=" M 19.10 42.17 C 24.07 41.82 29.09 41.99 34.08 42.07 C 36.55 41.85 36.57 46.12 34.09 45.92 C 29.39 46.07 24.66 46.06 19.95 45.93 C 17.89 46.12 17.31 42.99 19.10 42.17 Z" />
</g>
<g id="#000000ff">
<path fill="#000000" opacity="1.00" d=" M 12.39 4.36 C 14.51 3.68 16.81 4.10 19.00 3.99 C 25.28 4.15 31.59 3.71 37.85 4.20 C 41.97 8.02 46.02 11.99 49.80 16.16 C 50.27 27.76 49.87 39.42 50.00 51.05 C 50.37 53.41 48.58 56.01 46.07 55.96 C 35.70 56.06 25.33 55.97 14.96 56.00 C 12.64 56.35 9.96 54.66 10.05 52.14 C 9.94 37.74 10.03 23.33 10.00 8.92 C 9.78 7.09 10.63 5.13 12.39 4.36 M 36.01 7.81 C 36.05 10.84 35.81 13.90 36.18 16.92 C 38.79 19.19 42.96 17.49 46.19 17.99 C 42.79 14.60 39.40 11.20 36.01 7.81 M 19.06 26.18 C 17.33 27.03 17.90 30.10 19.93 29.93 C 26.65 30.06 33.38 30.06 40.09 29.92 C 42.59 30.12 42.55 25.83 40.06 26.07 C 33.06 26.01 26.04 25.81 19.06 26.18 M 19.12 34.17 C 17.28 34.97 17.89 38.13 19.97 37.93 C 26.66 38.05 33.36 38.06 40.05 37.93 C 42.60 38.15 42.56 33.81 40.02 34.07 C 33.06 34.01 26.07 33.82 19.12 34.17 M 19.10 42.17 C 17.31 42.99 17.89 46.12 19.95 45.93 C 24.66 46.06 29.39 46.07 34.09 45.92 C 36.57 46.12 36.55 41.85 34.08 42.07 C 29.09 41.99 24.07 41.82 19.10 42.17 Z" />
</g>
</svg>
