<?xml version="1.0" encoding="UTF-8" ?>
<!DOCTYPE svg PUBLIC "-//W3C//DTD SVG 1.1//EN" "http://www.w3.org/Graphics/SVG/1.1/DTD/svg11.dtd">
<svg width="60pt" height="60pt" viewBox="0 0 60 60" version="1.1" xmlns="http://www.w3.org/2000/svg">
<g id="#ffffffff">
<path fill="#ffffff" opacity="1.00" d=" M 0.00 0.00 L 60.00 0.00 L 60.00 60.00 L 0.00 60.00 L 0.00 0.00 M 6.00 10.95 C 6.09 18.29 5.80 25.65 6.14 32.98 C 7.03 36.49 11.20 36.09 13.99 36.05 C 13.49 36.54 12.49 37.51 12.00 38.00 C 12.00 39.99 12.00 41.97 12.00 43.96 C 13.34 45.32 14.69 46.67 16.05 48.01 C 18.66 48.00 21.27 48.00 23.88 48.00 C 23.84 50.31 24.29 53.25 26.98 53.85 C 34.31 54.21 41.66 53.91 49.00 54.00 C 51.38 54.36 54.02 52.62 53.95 50.06 C 54.04 42.69 54.04 35.32 53.95 27.95 C 54.00 25.92 52.21 23.97 50.12 24.05 C 45.42 23.89 40.71 24.05 36.00 24.00 C 35.94 19.30 36.11 14.61 35.95 9.91 C 35.98 7.86 34.10 5.99 32.05 6.04 C 24.69 5.96 17.32 5.96 9.96 6.04 C 7.39 5.92 5.63 8.56 6.00 10.95 Z" />
<path fill="#ffffff" opacity="1.00" d=" M 10.00 10.00 C 17.33 10.00 24.67 10.00 32.00 10.00 C 32.00 14.66 32.00 19.31 32.00 23.97 C 29.25 23.98 25.76 23.44 24.34 26.47 C 23.98 26.28 23.27 25.90 22.91 25.71 C 25.03 23.68 25.89 20.87 26.11 18.01 C 26.58 18.00 27.53 17.99 28.00 17.98 C 28.00 17.49 28.00 16.50 28.00 16.00 C 26.00 16.00 24.00 16.00 22.00 16.00 C 22.00 15.25 22.00 13.75 22.00 13.00 C 21.50 13.00 20.50 13.00 20.00 13.00 C 20.00 13.75 20.00 15.25 20.00 16.00 C 18.00 16.00 16.00 16.00 14.00 16.00 C 14.00 16.50 14.00 17.50 14.00 18.00 C 17.38 18.00 20.77 17.99 24.15 18.03 C 24.01 21.00 22.70 23.78 20.01 25.23 C 17.08 24.22 16.96 19.79 13.78 19.88 C 14.23 22.18 15.51 24.14 17.10 25.82 C 16.32 25.86 14.77 25.94 14.00 25.98 C 14.00 26.50 14.01 27.55 14.01 28.07 C 17.34 27.61 20.71 27.07 24.01 28.05 C 24.00 29.37 24.00 30.68 24.00 32.00 C 19.33 32.00 14.67 32.00 10.00 32.00 C 10.00 24.67 10.00 17.33 10.00 10.00 Z" />
<path fill="#ffffff" opacity="1.00" d=" M 32.06 46.09 C 33.64 41.37 35.23 36.65 36.81 31.93 C 38.27 31.93 39.72 31.93 41.18 31.93 C 42.76 36.64 44.35 41.35 45.93 46.07 C 44.63 46.06 43.33 46.07 42.04 46.07 C 41.73 45.01 41.43 43.96 41.12 42.91 C 39.56 42.93 38.00 42.97 36.44 43.03 C 36.26 43.78 35.89 45.26 35.70 46.01 C 34.49 46.04 33.28 46.07 32.06 46.09 M 38.86 34.90 C 38.30 36.73 37.75 38.56 37.20 40.40 C 38.02 40.40 39.66 40.40 40.48 40.40 C 39.94 38.56 39.40 36.73 38.86 34.90 Z" />
<path fill="#ffffff" opacity="1.00" d=" M 14.04 36.00 C 17.36 36.00 20.68 36.00 24.00 36.00 C 24.00 38.67 24.00 41.33 24.00 44.00 C 21.33 44.00 18.67 44.00 16.00 44.00 C 16.00 41.99 16.00 39.98 16.00 37.97 C 15.51 37.48 14.53 36.49 14.04 36.00 Z" />
</g>
<g id="#000000ff">
<path fill="#000000" opacity="1.00" d=" M 6.00 10.95 C 5.63 8.56 7.39 5.92 9.96 6.04 C 17.32 5.96 24.69 5.96 32.05 6.04 C 34.10 5.99 35.98 7.86 35.95 9.91 C 36.11 14.61 35.94 19.30 36.00 24.00 C 40.71 24.05 45.42 23.89 50.12 24.05 C 52.21 23.97 54.00 25.92 53.95 27.95 C 54.04 35.32 54.04 42.69 53.95 50.06 C 54.02 52.62 51.38 54.36 49.00 54.00 C 41.66 53.91 34.31 54.21 26.98 53.85 C 24.29 53.25 23.84 50.31 23.88 48.00 C 21.27 48.00 18.66 48.00 16.05 48.01 C 14.69 46.67 13.34 45.32 12.00 43.96 C 12.00 41.97 12.00 39.99 12.00 38.00 C 12.49 37.51 13.49 36.54 13.99 36.05 C 11.20 36.09 7.03 36.49 6.14 32.98 C 5.80 25.65 6.09 18.29 6.00 10.95 M 10.00 10.00 C 10.00 17.33 10.00 24.67 10.00 32.00 C 14.67 32.00 19.33 32.00 24.00 32.00 C 24.00 30.68 24.00 29.37 24.01 28.05 C 20.71 27.07 17.34 27.61 14.01 28.07 C 14.01 27.55 14.00 26.50 14.00 25.98 C 14.77 25.94 16.32 25.86 17.10 25.82 C 15.51 24.14 14.23 22.18 13.78 19.88 C 16.96 19.79 17.08 24.22 20.01 25.23 C 22.70 23.78 24.01 21.00 24.15 18.03 C 20.77 17.99 17.38 18.00 14.00 18.00 C 14.00 17.50 14.00 16.50 14.00 16.00 C 16.00 16.00 18.00 16.00 20.00 16.00 C 20.00 15.25 20.00 13.75 20.00 13.00 C 20.50 13.00 21.50 13.00 22.00 13.00 C 22.00 13.75 22.00 15.25 22.00 16.00 C 24.00 16.00 26.00 16.00 28.00 16.00 C 28.00 16.50 28.00 17.49 28.00 17.98 C 27.53 17.99 26.58 18.00 26.11 18.01 C 25.89 20.87 25.03 23.68 22.91 25.71 C 23.27 25.90 23.98 26.28 24.34 26.47 C 25.76 23.44 29.25 23.98 32.00 23.97 C 32.00 19.31 32.00 14.66 32.00 10.00 C 24.67 10.00 17.33 10.00 10.00 10.00 M 32.06 46.09 C 33.28 46.07 34.49 46.04 35.70 46.01 C 35.89 45.26 36.26 43.78 36.44 43.03 C 38.00 42.97 39.56 42.93 41.12 42.91 C 41.43 43.96 41.73 45.01 42.04 46.07 C 43.33 46.07 44.63 46.06 45.93 46.07 C 44.35 41.35 42.76 36.64 41.18 31.93 C 39.72 31.93 38.27 31.93 36.81 31.93 C 35.23 36.65 33.64 41.37 32.06 46.09 M 14.04 36.00 C 14.53 36.49 15.51 37.48 16.00 37.97 C 16.00 39.98 16.00 41.99 16.00 44.00 C 18.67 44.00 21.33 44.00 24.00 44.00 C 24.00 41.33 24.00 38.67 24.00 36.00 C 20.68 36.00 17.36 36.00 14.04 36.00 Z" />
<path fill="#000000" opacity="1.00" d=" M 38.86 34.90 C 39.40 36.73 39.94 38.56 40.48 40.40 C 39.66 40.40 38.02 40.40 37.20 40.40 C 37.75 38.56 38.30 36.73 38.86 34.90 Z" />
</g>
</svg>
