<?xml version="1.0" encoding="UTF-8" ?>
<!DOCTYPE svg PUBLIC "-//W3C//DTD SVG 1.1//EN" "http://www.w3.org/Graphics/SVG/1.1/DTD/svg11.dtd">
<svg width="60pt" height="60pt" viewBox="0 0 60 60" version="1.1" xmlns="http://www.w3.org/2000/svg">
<g id="#ffffffff">
<path fill="#ffffff" opacity="1.00" d=" M 0.00 0.00 L 60.00 0.00 L 60.00 60.00 L 0.00 60.00 L 0.00 0.00 M 15.18 6.15 C 21.94 13.33 29.09 20.14 36.02 27.16 C 37.80 25.38 39.58 23.61 41.35 21.82 C 32.64 16.59 24.10 11.04 15.18 6.15 M 12.02 8.87 C 11.98 22.96 12.00 37.05 12.01 51.14 C 19.09 44.12 26.12 37.05 33.17 30.00 C 26.12 22.95 19.11 15.87 12.02 8.87 M 38.83 30.00 C 40.81 31.96 42.78 33.94 44.74 35.92 C 47.25 33.94 52.39 33.04 51.87 29.03 C 50.38 26.48 47.21 25.61 44.91 23.95 C 42.87 25.96 40.85 27.98 38.83 30.00 M 15.28 53.69 C 24.06 48.70 32.61 43.30 41.25 38.07 C 39.51 36.32 37.76 34.58 36.02 32.83 C 29.11 39.80 22.07 46.62 15.28 53.69 Z" />
</g>
<g id="#000000ff">
<path fill="#000000" opacity="1.00" d=" M 15.18 6.15 C 24.10 11.04 32.64 16.59 41.35 21.82 C 39.58 23.61 37.80 25.38 36.02 27.16 C 29.09 20.14 21.94 13.33 15.18 6.15 Z" />
<path fill="#000000" opacity="1.00" d=" M 12.02 8.87 C 19.11 15.87 26.12 22.95 33.17 30.00 C 26.12 37.05 19.09 44.12 12.01 51.14 C 12.00 37.05 11.98 22.96 12.02 8.87 Z" />
<path fill="#000000" opacity="1.00" d=" M 38.83 30.00 C 40.85 27.98 42.87 25.96 44.91 23.95 C 47.21 25.61 50.38 26.48 51.87 29.03 C 52.39 33.04 47.25 33.94 44.74 35.92 C 42.78 33.94 40.81 31.96 38.83 30.00 Z" />
<path fill="#000000" opacity="1.00" d=" M 15.28 53.69 C 22.07 46.62 29.11 39.80 36.02 32.83 C 37.76 34.58 39.51 36.32 41.25 38.07 C 32.61 43.30 24.06 48.70 15.28 53.69 Z" />
</g>
</svg>
