<?xml version="1.0" encoding="UTF-8" ?>
<!DOCTYPE svg PUBLIC "-//W3C//DTD SVG 1.1//EN" "http://www.w3.org/Graphics/SVG/1.1/DTD/svg11.dtd">
<svg width="60pt" height="60pt" viewBox="0 0 60 60" version="1.1" xmlns="http://www.w3.org/2000/svg">
<g id="#ffffffff">
<path fill="#ffffff" opacity="1.00" d=" M 0.00 0.00 L 60.00 0.00 L 60.00 60.00 L 0.00 60.00 L 0.00 0.00 M 17.26 10.14 C 18.52 13.99 17.87 18.06 17.99 22.02 C 14.55 22.86 10.68 24.49 9.50 28.15 C 8.47 30.91 10.67 33.34 10.98 35.98 C 10.38 38.81 7.74 40.98 8.02 44.06 C 8.10 50.13 14.42 54.16 20.04 53.97 C 23.41 54.17 26.28 51.97 29.62 51.89 C 29.98 52.37 30.71 53.33 31.08 53.81 C 33.49 54.83 34.47 51.93 33.99 50.07 C 34.06 47.80 31.35 48.05 29.82 47.84 C 28.73 44.75 25.71 42.40 26.03 38.87 C 25.73 33.69 29.95 29.17 34.92 28.34 C 41.35 26.66 49.27 30.77 49.90 37.77 C 50.77 41.74 47.51 44.49 46.18 47.84 C 44.17 47.77 41.34 48.31 41.96 51.01 C 41.27 54.11 45.24 54.92 46.32 52.20 C 50.43 52.74 49.94 48.17 51.78 45.81 C 56.12 39.92 53.66 31.11 47.83 27.17 C 42.58 23.19 35.27 23.25 29.48 25.99 C 27.41 23.96 24.81 22.71 22.01 22.04 C 22.13 18.07 21.49 13.99 22.74 10.13 C 23.39 7.87 23.59 3.35 20.01 3.97 C 16.40 3.33 16.61 7.86 17.26 10.14 M 31.39 40.50 C 29.30 41.66 29.73 45.26 32.10 45.81 C 34.22 46.70 36.62 44.31 35.85 42.17 C 35.42 40.30 32.93 39.39 31.39 40.50 M 41.40 40.48 C 38.12 42.37 41.36 47.70 44.56 45.54 C 47.91 43.67 44.62 38.24 41.40 40.48 M 36.64 51.44 C 37.56 52.48 39.33 51.94 39.93 50.80 C 40.16 49.14 38.77 47.98 37.99 46.70 C 37.27 48.15 34.95 49.84 36.64 51.44 Z" />
<path fill="#ffffff" opacity="1.00" d=" M 16.08 35.09 C 16.85 31.94 20.58 31.34 23.02 32.98 C 22.45 35.27 22.02 37.60 21.77 39.94 C 18.82 40.58 15.24 38.45 16.08 35.09 Z" />
</g>
<g id="#000000ff">
<path fill="#968176" opacity="1.00" d=" M 17.26 10.14 C 16.61 7.86 16.40 3.33 20.01 3.97 C 23.59 3.35 23.39 7.87 22.74 10.13 C 21.49 13.99 22.13 18.07 22.01 22.04 C 24.81 22.71 27.41 23.96 29.48 25.99 C 35.27 23.25 42.58 23.19 47.83 27.17 C 53.66 31.11 56.12 39.92 51.78 45.81 C 49.94 48.17 50.43 52.74 46.32 52.20 C 45.24 54.92 41.27 54.11 41.96 51.01 C 41.34 48.31 44.17 47.77 46.18 47.84 C 47.51 44.49 50.77 41.74 49.90 37.77 C 49.27 30.77 41.35 26.66 34.92 28.34 C 29.95 29.17 25.73 33.69 26.03 38.87 C 25.71 42.40 28.73 44.75 29.82 47.84 C 31.35 48.05 34.06 47.80 33.99 50.07 C 34.47 51.93 33.49 54.83 31.08 53.81 C 30.71 53.33 29.98 52.37 29.62 51.89 C 26.28 51.97 23.41 54.17 20.04 53.97 C 14.42 54.16 8.10 50.13 8.02 44.06 C 7.74 40.98 10.38 38.81 10.98 35.98 C 10.67 33.34 8.47 30.91 9.50 28.15 C 10.68 24.49 14.55 22.86 17.99 22.02 C 17.87 18.06 18.52 13.99 17.26 10.14 M 16.08 35.09 C 15.24 38.45 18.82 40.58 21.77 39.94 C 22.02 37.60 22.45 35.27 23.02 32.98 C 20.58 31.34 16.85 31.94 16.08 35.09 Z" />
<path fill="#968176" opacity="1.00" d=" M 31.39 40.50 C 32.93 39.39 35.42 40.30 35.85 42.17 C 36.62 44.31 34.22 46.70 32.10 45.81 C 29.73 45.26 29.30 41.66 31.39 40.50 Z" />
<path fill="#968176" opacity="1.00" d=" M 41.40 40.48 C 44.62 38.24 47.91 43.67 44.56 45.54 C 41.36 47.70 38.12 42.37 41.40 40.48 Z" />
<path fill="#968176" opacity="1.00" d=" M 36.64 51.44 C 34.95 49.84 37.27 48.15 37.99 46.70 C 38.77 47.98 40.16 49.14 39.93 50.80 C 39.33 51.94 37.56 52.48 36.64 51.44 Z" />
</g>
</svg>
