<?xml version="1.0" encoding="UTF-8" ?>
<!DOCTYPE svg PUBLIC "-//W3C//DTD SVG 1.1//EN" "http://www.w3.org/Graphics/SVG/1.1/DTD/svg11.dtd">
<svg width="60pt" height="60pt" viewBox="0 0 60 60" version="1.1" xmlns="http://www.w3.org/2000/svg">
<g id="#ffffffff">
<path fill="#ffffff" opacity="1.00" d=" M 0.00 0.00 L 60.00 0.00 L 60.00 60.00 L 0.00 60.00 L 0.00 0.00 M 10.39 8.35 C 8.63 9.12 7.82 11.07 8.00 12.90 C 8.03 24.62 7.93 36.35 8.05 48.07 C 7.91 50.64 10.60 52.33 12.95 52.00 C 24.68 51.97 36.41 52.08 48.14 51.95 C 50.64 51.98 52.33 49.40 52.00 47.06 C 51.90 35.03 52.22 22.98 51.84 10.96 C 50.95 7.41 46.77 7.96 43.97 7.98 C 32.79 8.26 21.51 7.52 10.39 8.35 Z" />
<path fill="#ffffff" opacity="1.00" d=" M 18.00 26.00 C 11.81 26.29 10.60 16.22 16.08 14.33 C 19.21 13.09 22.65 14.96 23.58 18.13 C 21.72 18.20 19.98 17.81 18.78 16.29 C 15.46 16.31 14.70 20.52 16.45 22.73 C 17.80 24.48 20.02 23.12 21.15 21.86 C 20.47 21.72 19.12 21.43 18.45 21.29 L 18.56 19.45 C 20.24 19.46 21.92 19.48 23.60 19.51 C 23.80 22.80 21.75 26.50 18.00 26.00 Z" />
<path fill="#ffffff" opacity="1.00" d=" M 26.61 14.32 C 29.81 14.37 35.32 13.35 35.68 17.95 C 36.18 21.50 32.31 22.68 29.49 22.48 C 29.49 23.28 29.50 24.87 29.51 25.67 C 28.78 25.67 27.33 25.66 26.61 25.66 C 26.61 21.88 26.61 18.10 26.61 14.32 M 29.54 16.27 C 29.52 17.69 29.52 19.11 29.54 20.52 C 30.78 19.92 33.12 20.09 32.78 18.11 C 32.61 16.47 30.70 16.68 29.54 16.27 Z" />
<path fill="#ffffff" opacity="1.00" d=" M 40.22 14.33 C 41.40 14.33 42.59 14.33 43.77 14.33 C 45.05 18.15 46.37 21.96 47.58 25.80 C 45.47 26.05 43.82 25.52 43.56 23.20 C 42.44 23.20 41.32 23.20 40.20 23.21 C 39.75 25.15 38.49 26.12 36.42 25.85 C 37.60 21.98 38.95 18.17 40.22 14.33 M 41.88 16.68 C 41.43 18.16 40.99 19.65 40.55 21.13 C 41.21 21.13 42.53 21.13 43.19 21.13 C 42.76 19.64 42.33 18.16 41.88 16.68 Z" />
<path fill="#ffffff" opacity="1.00" d=" M 17.86 37.86 C 18.07 36.49 17.93 33.81 20.01 34.06 C 22.07 33.81 21.91 36.51 22.14 37.86 C 23.52 38.06 26.17 37.94 25.93 40.01 C 26.17 42.06 23.49 41.92 22.14 42.14 C 21.94 43.52 22.05 46.19 19.97 45.93 C 17.92 46.16 18.08 43.49 17.86 42.14 C 16.47 41.95 13.76 42.04 14.07 39.93 C 13.86 37.89 16.53 38.10 17.86 37.86 Z" />
<path fill="#ffffff" opacity="1.00" d=" M 35.09 38.18 C 38.33 37.86 41.64 37.86 44.88 38.18 C 46.35 38.93 46.36 41.13 44.83 41.82 C 41.62 42.15 38.36 42.14 35.15 41.83 C 33.66 41.13 33.66 38.94 35.09 38.18 Z" />
</g>
<g id="#000000ff">
<path fill="#000000" opacity="1.00" d=" M 10.39 8.35 C 21.51 7.52 32.79 8.26 43.97 7.98 C 46.77 7.96 50.95 7.41 51.84 10.96 C 52.22 22.98 51.90 35.03 52.00 47.06 C 52.33 49.40 50.64 51.98 48.14 51.95 C 36.41 52.08 24.68 51.97 12.95 52.00 C 10.60 52.33 7.91 50.64 8.05 48.07 C 7.93 36.35 8.03 24.62 8.00 12.90 C 7.82 11.07 8.63 9.12 10.39 8.35 M 18.00 26.00 C 21.75 26.50 23.80 22.80 23.60 19.51 C 21.92 19.48 20.24 19.46 18.56 19.45 L 18.45 21.29 C 19.12 21.43 20.47 21.72 21.15 21.86 C 20.02 23.12 17.80 24.48 16.45 22.73 C 14.70 20.52 15.46 16.31 18.78 16.29 C 19.98 17.81 21.72 18.20 23.58 18.13 C 22.65 14.96 19.21 13.09 16.08 14.33 C 10.60 16.22 11.81 26.29 18.00 26.00 M 26.61 14.32 C 26.61 18.10 26.61 21.88 26.61 25.66 C 27.33 25.66 28.78 25.67 29.51 25.67 C 29.50 24.87 29.49 23.28 29.49 22.48 C 32.31 22.68 36.18 21.50 35.68 17.95 C 35.32 13.35 29.81 14.37 26.61 14.32 M 40.22 14.33 C 38.95 18.17 37.60 21.98 36.42 25.85 C 38.49 26.12 39.75 25.15 40.20 23.21 C 41.32 23.20 42.44 23.20 43.56 23.20 C 43.82 25.52 45.47 26.05 47.58 25.80 C 46.37 21.96 45.05 18.15 43.77 14.33 C 42.59 14.33 41.40 14.33 40.22 14.33 M 17.86 37.86 C 16.53 38.10 13.86 37.89 14.07 39.93 C 13.76 42.04 16.47 41.95 17.86 42.14 C 18.08 43.49 17.92 46.16 19.97 45.93 C 22.05 46.19 21.94 43.52 22.14 42.14 C 23.49 41.92 26.17 42.06 25.93 40.01 C 26.17 37.94 23.52 38.06 22.14 37.86 C 21.91 36.51 22.07 33.81 20.01 34.06 C 17.93 33.81 18.07 36.49 17.86 37.86 M 35.09 38.18 C 33.66 38.94 33.66 41.13 35.15 41.83 C 38.36 42.14 41.62 42.15 44.83 41.82 C 46.36 41.13 46.35 38.93 44.88 38.18 C 41.64 37.86 38.33 37.86 35.09 38.18 Z" />
<path fill="#000000" opacity="1.00" d=" M 29.54 16.27 C 30.70 16.68 32.61 16.47 32.78 18.11 C 33.12 20.09 30.78 19.92 29.54 20.52 C 29.52 19.11 29.52 17.69 29.54 16.27 Z" />
<path fill="#000000" opacity="1.00" d=" M 41.88 16.68 C 42.33 18.16 42.76 19.64 43.19 21.13 C 42.53 21.13 41.21 21.13 40.55 21.13 C 40.99 19.65 41.43 18.16 41.88 16.68 Z" />
</g>
</svg>
