<?xml version="1.0" encoding="UTF-8" ?>
<!DOCTYPE svg PUBLIC "-//W3C//DTD SVG 1.1//EN" "http://www.w3.org/Graphics/SVG/1.1/DTD/svg11.dtd">
<svg width="60pt" height="60pt" viewBox="0 0 60 60" version="1.1" xmlns="http://www.w3.org/2000/svg">
<g id="#ffffffff">
<path fill="#ffffff" opacity="1.00" d=" M 0.00 0.00 L 60.00 0.00 L 60.00 60.00 L 0.00 60.00 L 0.00 0.00 M 25.13 11.01 C 19.65 23.55 13.80 35.93 8.43 48.51 C 6.88 51.27 10.04 54.86 12.97 53.80 C 18.70 52.10 24.31 49.96 30.00 48.11 C 35.68 49.96 41.27 52.08 46.99 53.79 C 49.34 54.67 52.02 52.47 51.97 50.06 C 51.75 48.70 51.18 47.44 50.65 46.18 C 45.18 34.05 39.73 21.91 34.29 9.76 C 33.50 7.71 31.59 5.54 29.16 6.08 C 26.96 6.83 25.97 9.03 25.13 11.01 Z" />
<path fill="#ffffff" opacity="1.00" d=" M 11.89 50.13 C 17.93 36.77 24.20 23.49 29.76 9.93 C 30.30 21.24 29.85 32.58 30.00 43.90 C 23.96 45.98 17.88 47.93 11.89 50.13 Z" />
</g>
<g id="#000000ff">
<path fill="#968176" opacity="1.00" d=" M 25.13 11.01 C 25.97 9.03 26.96 6.83 29.16 6.08 C 31.59 5.54 33.50 7.71 34.29 9.76 C 39.73 21.91 45.18 34.05 50.65 46.18 C 51.18 47.44 51.75 48.70 51.97 50.06 C 52.02 52.47 49.34 54.67 46.99 53.79 C 41.27 52.08 35.68 49.96 30.00 48.11 C 24.31 49.96 18.70 52.10 12.97 53.80 C 10.04 54.86 6.88 51.27 8.43 48.51 C 13.80 35.93 19.65 23.55 25.13 11.01 M 11.89 50.13 C 17.88 47.93 23.96 45.98 30.00 43.90 C 29.85 32.58 30.30 21.24 29.76 9.93 C 24.20 23.49 17.93 36.77 11.89 50.13 Z" />
</g>
</svg>
