<?xml version="1.0" encoding="UTF-8" ?>
<!DOCTYPE svg PUBLIC "-//W3C//DTD SVG 1.1//EN" "http://www.w3.org/Graphics/SVG/1.1/DTD/svg11.dtd">
<svg width="60pt" height="60pt" viewBox="0 0 60 60" version="1.1" xmlns="http://www.w3.org/2000/svg">
<g id="#ffffffff">
<path fill="#ffffff" opacity="1.00" d=" M 0.00 0.00 L 60.00 0.00 L 60.00 60.00 L 0.00 60.00 L 0.00 0.00 M 53.09 4.11 C 50.90 5.26 52.45 8.90 54.78 7.84 C 57.24 6.83 55.50 3.06 53.09 4.11 M 47.15 10.11 C 44.87 11.14 46.40 14.89 48.74 13.85 C 51.23 12.93 49.54 9.06 47.15 10.11 M 9.13 16.05 C 7.70 16.83 8.17 18.37 8.29 19.68 C 3.84 29.30 6.25 41.67 14.61 48.39 C 21.60 54.42 32.01 55.45 40.34 51.69 C 41.59 51.81 43.29 52.45 43.91 50.86 C 44.50 49.48 43.23 48.46 42.42 47.56 C 32.59 37.74 22.73 27.94 12.94 18.08 C 11.86 17.08 10.81 15.62 9.13 16.05 M 41.21 16.10 C 38.86 17.11 40.35 20.84 42.76 19.87 C 45.18 18.90 43.63 15.16 41.21 16.10 M 32.37 22.37 C 27.58 24.25 31.03 31.99 35.62 29.62 C 40.41 27.77 36.96 19.96 32.37 22.37 Z" />
</g>
<g id="#000000ff">
<path fill="#000000" opacity="1.00" d=" M 53.09 4.11 C 55.50 3.06 57.24 6.83 54.78 7.84 C 52.45 8.90 50.90 5.26 53.09 4.11 Z" />
<path fill="#000000" opacity="1.00" d=" M 47.15 10.11 C 49.54 9.06 51.23 12.93 48.74 13.85 C 46.40 14.89 44.87 11.14 47.15 10.11 Z" />
<path fill="#000000" opacity="1.00" d=" M 9.13 16.05 C 10.81 15.62 11.86 17.08 12.94 18.08 C 22.73 27.94 32.59 37.74 42.42 47.56 C 43.23 48.46 44.50 49.48 43.91 50.86 C 43.29 52.45 41.59 51.81 40.34 51.69 C 32.01 55.45 21.60 54.42 14.61 48.39 C 6.25 41.67 3.84 29.30 8.29 19.68 C 8.17 18.37 7.70 16.83 9.13 16.05 Z" />
<path fill="#000000" opacity="1.00" d=" M 41.21 16.10 C 43.63 15.16 45.18 18.90 42.76 19.87 C 40.35 20.84 38.86 17.11 41.21 16.10 Z" />
<path fill="#000000" opacity="1.00" d=" M 32.37 22.37 C 36.96 19.96 40.41 27.77 35.62 29.62 C 31.03 31.99 27.58 24.25 32.37 22.37 Z" />
</g>
</svg>
