<?xml version="1.0" encoding="UTF-8" ?>
<!DOCTYPE svg PUBLIC "-//W3C//DTD SVG 1.1//EN" "http://www.w3.org/Graphics/SVG/1.1/DTD/svg11.dtd">
<svg width="60pt" height="60pt" viewBox="0 0 60 60" version="1.1" xmlns="http://www.w3.org/2000/svg">
<g id="#ffffffff">
<path fill="#ffffff" opacity="1.00" d=" M 0.00 0.00 L 60.00 0.00 L 60.00 21.29 C 58.16 19.59 55.84 18.61 53.62 17.52 C 45.74 13.64 37.94 9.61 30.00 5.84 C 21.25 10.05 12.65 14.54 3.91 18.78 C 2.12 19.73 -0.39 20.59 0.01 23.11 C 9.90 28.32 19.98 33.18 29.98 38.16 C 40.04 33.24 50.17 28.40 60.00 23.04 L 60.00 51.40 C 59.12 49.71 57.68 48.13 57.97 46.07 C 58.00 40.30 58.01 34.52 58.00 28.74 C 56.67 29.40 55.33 30.05 54.00 30.70 C 53.95 36.19 54.08 41.69 53.98 47.18 C 53.98 49.23 51.41 50.60 52.15 52.76 C 52.92 55.40 54.59 57.65 55.96 59.99 L 54.95 60.00 L 0.00 60.00 L 0.00 0.00 M 12.01 33.70 C 12.39 38.21 10.54 44.00 14.73 47.24 C 20.32 51.83 28.17 52.56 35.10 51.56 C 39.76 50.72 44.97 48.93 47.40 44.55 C 48.59 41.09 47.77 37.31 48.00 33.73 C 41.97 36.36 36.42 40.36 30.04 42.02 C 23.64 40.36 18.08 36.31 12.01 33.70 Z" />
<path fill="#ffffff" opacity="1.00" d=" M 55.99 60.00 C 57.60 57.67 58.98 55.18 60.00 52.54 L 60.00 60.00 L 55.99 60.00 Z" />
</g>
<g id="#000000ff">
<path fill="#968176" opacity="1.00" d=" M 3.91 18.78 C 12.65 14.54 21.25 10.05 30.00 5.84 C 37.94 9.61 45.74 13.64 53.62 17.52 C 55.84 18.61 58.16 19.59 60.00 21.29 L 60.00 23.04 C 50.17 28.40 40.04 33.24 29.98 38.16 C 19.98 33.18 9.90 28.32 0.01 23.11 C -0.39 20.59 2.12 19.73 3.91 18.78 Z" />
<path fill="#968176" opacity="1.00" d=" M 54.00 30.70 C 55.33 30.05 56.67 29.40 58.00 28.74 C 58.01 34.52 58.00 40.30 57.97 46.07 C 57.68 48.13 59.12 49.71 60.00 51.40 L 60.00 52.54 C 58.98 55.18 57.60 57.67 55.99 60.00 L 54.95 60.00 L 55.96 59.99 C 54.59 57.65 52.92 55.40 52.15 52.76 C 51.41 50.60 53.98 49.23 53.98 47.18 C 54.08 41.69 53.95 36.19 54.00 30.70 Z" />
<path fill="#968176" opacity="1.00" d=" M 12.01 33.70 C 18.08 36.31 23.64 40.36 30.04 42.02 C 36.42 40.36 41.97 36.36 48.00 33.73 C 47.77 37.31 48.59 41.09 47.40 44.55 C 44.97 48.93 39.76 50.72 35.10 51.56 C 28.17 52.56 20.32 51.83 14.73 47.24 C 10.54 44.00 12.39 38.21 12.01 33.70 Z" />
</g>
</svg>
