<?xml version="1.0" encoding="UTF-8" ?>
<!DOCTYPE svg PUBLIC "-//W3C//DTD SVG 1.1//EN" "http://www.w3.org/Graphics/SVG/1.1/DTD/svg11.dtd">
<svg width="60pt" height="60pt" viewBox="0 0 60 60" version="1.1" xmlns="http://www.w3.org/2000/svg">
<g id="#ffffffff">
<path fill="#ffffff" opacity="1.00" d=" M 0.00 0.00 L 60.00 0.00 L 60.00 23.40 C 59.82 19.08 56.94 14.19 52.19 14.06 C 37.43 13.95 22.66 13.97 7.90 14.05 C 3.33 14.09 0.46 18.67 0.00 22.78 L 0.00 0.00 Z" />
<path fill="#ffffff" opacity="1.00" d=" M 7.05 18.14 C 10.54 17.80 14.05 18.10 17.55 17.98 C 15.54 21.71 15.55 26.29 17.56 30.02 C 14.04 29.89 10.50 30.22 6.99 29.83 C 2.95 27.50 2.95 20.41 7.05 18.14 Z" />
<path fill="#ffffff" opacity="1.00" d=" M 29.33 18.16 C 34.72 17.79 40.13 18.11 45.53 17.98 C 43.54 21.72 43.54 26.28 45.54 30.02 C 40.13 29.88 34.71 30.23 29.31 29.82 C 27.66 26.10 27.65 21.87 29.33 18.16 Z" />
<path fill="#ffffff" opacity="1.00" d=" M 51.16 18.10 C 57.69 17.50 57.62 30.64 51.08 29.86 C 46.91 27.62 46.93 20.26 51.16 18.10 Z" />
<path fill="#ffffff" opacity="1.00" d=" M 0.00 24.98 C 0.37 28.87 2.74 33.18 6.91 33.85 C 11.93 34.22 16.97 33.89 22.00 34.00 C 22.00 41.33 21.99 48.66 22.00 56.00 C 24.00 53.99 26.02 51.99 28.02 49.98 C 30.01 51.99 32.01 53.98 34.00 56.00 C 34.00 48.67 34.00 41.33 34.00 34.00 C 35.33 34.00 36.67 34.00 38.00 34.00 C 38.00 37.98 38.01 41.97 38.00 45.95 C 40.66 48.64 43.35 51.30 46.00 54.00 C 46.00 51.33 46.00 48.67 46.00 46.00 C 48.68 46.00 51.35 46.00 54.02 45.99 C 50.03 41.99 46.03 38.01 42.04 34.00 C 45.72 33.92 49.41 34.21 53.08 33.84 C 57.20 33.20 59.53 29.00 60.00 25.17 L 60.00 60.00 L 0.00 60.00 L 0.00 24.98 Z" />
</g>
<g id="#000000ff">
<path fill="#968176" opacity="1.00" d=" M 0.00 22.78 C 0.46 18.67 3.33 14.09 7.90 14.05 C 22.66 13.97 37.43 13.95 52.19 14.06 C 56.94 14.19 59.82 19.08 60.00 23.40 L 60.00 25.17 C 59.53 29.00 57.20 33.20 53.08 33.84 C 49.41 34.21 45.72 33.92 42.04 34.00 C 46.03 38.01 50.03 41.99 54.02 45.99 C 51.35 46.00 48.68 46.00 46.00 46.00 C 46.00 48.67 46.00 51.33 46.00 54.00 C 43.35 51.30 40.66 48.64 38.00 45.95 C 38.01 41.97 38.00 37.98 38.00 34.00 C 36.67 34.00 35.33 34.00 34.00 34.00 C 34.00 41.33 34.00 48.67 34.00 56.00 C 32.01 53.98 30.01 51.99 28.02 49.98 C 26.02 51.99 24.00 53.99 22.00 56.00 C 21.99 48.66 22.00 41.33 22.00 34.00 C 16.97 33.89 11.93 34.22 6.91 33.85 C 2.74 33.18 0.37 28.87 0.00 24.98 L 0.00 22.78 M 7.05 18.14 C 2.95 20.41 2.95 27.50 6.99 29.83 C 10.50 30.22 14.04 29.89 17.56 30.02 C 15.55 26.29 15.54 21.71 17.55 17.98 C 14.05 18.10 10.54 17.80 7.05 18.14 M 29.33 18.16 C 27.65 21.87 27.66 26.10 29.31 29.82 C 34.71 30.23 40.13 29.88 45.54 30.02 C 43.54 26.28 43.54 21.72 45.53 17.98 C 40.13 18.11 34.72 17.79 29.33 18.16 M 51.16 18.10 C 46.93 20.26 46.91 27.62 51.08 29.86 C 57.62 30.64 57.69 17.50 51.16 18.10 Z" />
</g>
</svg>
