<?xml version="1.0" encoding="UTF-8" ?>
<!DOCTYPE svg PUBLIC "-//W3C//DTD SVG 1.1//EN" "http://www.w3.org/Graphics/SVG/1.1/DTD/svg11.dtd">
<svg width="60pt" height="60pt" viewBox="0 0 60 60" version="1.1" xmlns="http://www.w3.org/2000/svg">
<g id="#ffffffff">
<path fill="#ffffff" opacity="1.00" d=" M 0.00 0.00 L 60.00 0.00 L 60.00 60.00 L 0.00 60.00 L 0.00 0.00 M 15.47 8.79 C 9.98 10.60 5.99 16.10 6.04 21.91 C 5.95 30.94 6.01 39.98 6.01 49.02 C 5.82 50.29 6.38 52.12 7.99 51.94 C 22.35 52.08 36.72 51.97 51.08 51.99 C 52.36 52.19 54.13 51.55 53.94 49.97 C 54.06 43.27 54.02 36.57 53.96 29.87 C 53.97 26.30 51.85 22.86 48.70 21.20 C 45.22 19.15 40.82 20.85 37.35 18.78 C 33.67 16.53 31.25 12.75 27.67 10.36 C 24.14 7.97 19.49 7.40 15.47 8.79 Z" />
<path fill="#ffffff" opacity="1.00" d=" M 10.00 40.00 C 11.32 40.00 12.65 40.00 13.97 40.00 C 13.99 41.98 14.03 43.96 14.13 45.94 C 15.38 45.95 16.63 45.94 17.88 45.92 C 17.97 43.95 18.00 41.97 18.03 40.00 C 18.51 40.00 19.49 40.00 19.98 40.00 C 19.99 41.97 20.02 43.94 20.10 45.91 C 21.36 45.93 22.62 45.94 23.88 45.93 C 23.97 43.96 24.00 41.98 24.03 40.00 C 26.01 40.00 27.99 40.00 29.98 40.00 C 29.99 41.97 30.02 43.94 30.11 45.91 C 31.36 45.94 32.62 45.95 33.87 45.94 C 33.97 43.96 34.01 41.98 34.03 40.00 C 34.51 40.00 35.49 40.00 35.97 40.00 C 35.99 41.98 36.02 43.95 36.11 45.93 C 37.37 45.94 38.63 45.93 39.89 45.91 C 39.98 43.94 40.00 41.97 40.02 40.00 C 40.51 40.00 41.49 40.00 41.97 40.00 C 41.99 41.98 42.03 43.95 42.12 45.93 C 43.37 45.94 44.63 45.94 45.89 45.92 C 45.97 43.95 46.00 41.97 46.02 40.00 C 47.35 40.00 48.67 40.00 50.00 40.00 C 50.00 42.67 50.00 45.33 50.00 48.00 C 36.67 48.00 23.33 48.00 10.00 48.00 C 10.00 45.33 10.00 42.67 10.00 40.00 Z" />
</g>
<g id="#000000ff">
<path fill="#000000" opacity="1.00" d=" M 15.47 8.79 C 19.49 7.40 24.14 7.97 27.67 10.36 C 31.25 12.75 33.67 16.53 37.35 18.78 C 40.82 20.85 45.22 19.15 48.70 21.20 C 51.85 22.86 53.97 26.30 53.96 29.87 C 54.02 36.57 54.06 43.27 53.94 49.97 C 54.13 51.55 52.36 52.19 51.08 51.99 C 36.72 51.97 22.35 52.08 7.99 51.94 C 6.38 52.12 5.82 50.29 6.01 49.02 C 6.01 39.98 5.95 30.94 6.04 21.91 C 5.99 16.10 9.98 10.60 15.47 8.79 M 10.00 40.00 C 10.00 42.67 10.00 45.33 10.00 48.00 C 23.33 48.00 36.67 48.00 50.00 48.00 C 50.00 45.33 50.00 42.67 50.00 40.00 C 48.67 40.00 47.35 40.00 46.02 40.00 C 46.00 41.97 45.97 43.95 45.89 45.92 C 44.63 45.94 43.37 45.94 42.12 45.93 C 42.03 43.95 41.99 41.98 41.97 40.00 C 41.49 40.00 40.51 40.00 40.02 40.00 C 40.00 41.97 39.98 43.94 39.89 45.91 C 38.63 45.93 37.37 45.94 36.11 45.93 C 36.02 43.95 35.99 41.98 35.97 40.00 C 35.49 40.00 34.51 40.00 34.03 40.00 C 34.01 41.98 33.97 43.96 33.87 45.94 C 32.62 45.95 31.36 45.94 30.11 45.91 C 30.02 43.94 29.99 41.97 29.98 40.00 C 27.99 40.00 26.01 40.00 24.03 40.00 C 24.00 41.98 23.97 43.96 23.88 45.93 C 22.62 45.94 21.36 45.93 20.10 45.91 C 20.02 43.94 19.99 41.97 19.98 40.00 C 19.49 40.00 18.51 40.00 18.03 40.00 C 18.00 41.97 17.97 43.95 17.88 45.92 C 16.63 45.94 15.38 45.95 14.13 45.94 C 14.03 43.96 13.99 41.98 13.97 40.00 C 12.65 40.00 11.32 40.00 10.00 40.00 Z" />
</g>
</svg>
