<?xml version="1.0" encoding="UTF-8" ?>
<!DOCTYPE svg PUBLIC "-//W3C//DTD SVG 1.1//EN" "http://www.w3.org/Graphics/SVG/1.1/DTD/svg11.dtd">
<svg width="60pt" height="60pt" viewBox="0 0 60 60" version="1.1" xmlns="http://www.w3.org/2000/svg">
<g id="#ffffffff">
<path fill="#ffffff" opacity="1.00" d=" M 0.00 0.00 L 60.00 0.00 L 60.00 60.00 L 0.00 60.00 L 0.00 0.00 M 10.51 11.72 C 8.26 12.94 5.05 15.04 6.32 18.05 C 6.88 18.31 8.02 18.84 8.59 19.10 C 11.11 15.76 14.59 13.31 17.88 10.76 C 18.32 9.46 17.36 7.75 15.85 8.03 C 13.38 7.87 11.82 9.97 10.51 11.72 M 46.36 8.37 C 43.62 9.49 43.13 13.71 45.74 15.25 C 48.15 17.22 52.06 15.05 51.99 12.05 C 52.13 9.28 48.87 7.03 46.36 8.37 M 16.16 19.05 C 15.96 20.62 16.01 22.21 16.00 23.79 C 14.73 24.16 12.95 23.79 12.17 25.13 C 11.78 29.06 12.10 33.01 11.97 36.96 C 9.48 39.53 9.22 43.22 8.30 46.51 C 6.88 47.32 5.38 48.05 4.09 49.08 C 3.70 50.41 4.42 52.03 5.99 51.92 C 16.65 52.12 27.33 51.94 38.00 52.00 C 36.59 49.09 35.19 46.18 33.75 43.29 C 30.51 38.08 32.65 31.74 31.93 25.99 C 32.15 23.89 28.88 23.23 28.17 25.17 C 27.74 28.39 28.26 31.65 27.83 34.87 C 27.01 36.70 23.91 36.14 24.08 34.05 C 23.87 28.00 24.07 21.95 24.00 15.90 C 21.40 16.92 18.37 17.25 16.16 19.05 M 44.10 29.97 C 43.54 33.05 44.80 36.65 43.33 39.41 C 40.96 41.48 39.73 37.98 39.81 36.04 C 40.06 33.86 37.11 33.28 36.17 35.10 C 34.81 41.43 39.88 46.45 42.00 52.00 C 46.67 52.00 51.33 52.00 56.00 52.00 C 55.93 46.66 56.13 41.32 55.93 35.99 C 56.25 34.06 52.74 33.04 52.43 35.18 C 51.78 36.27 52.29 38.92 50.33 38.21 C 49.38 35.26 49.10 32.13 48.02 29.22 C 47.46 27.18 43.97 27.91 44.10 29.97 Z" />
<path fill="#ffffff" opacity="1.00" d=" M 17.15 28.09 C 18.46 27.71 20.01 28.45 19.92 29.96 C 20.07 32.93 20.16 35.92 19.82 38.88 C 18.99 40.73 15.87 40.10 16.07 38.00 C 16.37 34.80 14.85 30.66 17.15 28.09 Z" />
</g>
<g id="#000000ff">
<path fill="#968176" opacity="1.00" d=" M 10.51 11.72 C 11.82 9.97 13.38 7.87 15.85 8.03 C 17.36 7.75 18.32 9.46 17.88 10.76 C 14.59 13.31 11.11 15.76 8.59 19.10 C 8.02 18.84 6.88 18.31 6.32 18.05 C 5.05 15.04 8.26 12.94 10.51 11.72 Z" />
<path fill="#968176" opacity="1.00" d=" M 46.36 8.37 C 48.87 7.03 52.13 9.28 51.99 12.05 C 52.06 15.05 48.15 17.22 45.74 15.25 C 43.13 13.71 43.62 9.49 46.36 8.37 Z" />
<path fill="#968176" opacity="1.00" d=" M 16.16 19.05 C 18.37 17.25 21.40 16.92 24.00 15.90 C 24.07 21.95 23.87 28.00 24.08 34.05 C 23.91 36.14 27.01 36.70 27.83 34.87 C 28.26 31.65 27.74 28.39 28.17 25.17 C 28.88 23.23 32.15 23.89 31.93 25.99 C 32.65 31.74 30.51 38.08 33.75 43.29 C 35.19 46.18 36.59 49.09 38.00 52.00 C 27.33 51.94 16.65 52.12 5.99 51.92 C 4.42 52.03 3.70 50.41 4.09 49.08 C 5.38 48.05 6.88 47.32 8.30 46.51 C 9.22 43.22 9.48 39.53 11.97 36.96 C 12.10 33.01 11.78 29.06 12.17 25.13 C 12.95 23.79 14.73 24.16 16.00 23.79 C 16.01 22.21 15.96 20.62 16.16 19.05 M 17.15 28.09 C 14.85 30.66 16.37 34.80 16.07 38.00 C 15.87 40.10 18.99 40.73 19.82 38.88 C 20.16 35.92 20.07 32.93 19.92 29.96 C 20.01 28.45 18.46 27.71 17.15 28.09 Z" />
<path fill="#968176" opacity="1.00" d=" M 44.10 29.97 C 43.97 27.91 47.46 27.18 48.02 29.22 C 49.10 32.13 49.38 35.26 50.33 38.21 C 52.29 38.92 51.78 36.27 52.43 35.18 C 52.74 33.04 56.25 34.06 55.93 35.99 C 56.13 41.32 55.93 46.66 56.00 52.00 C 51.33 52.00 46.67 52.00 42.00 52.00 C 39.88 46.45 34.81 41.43 36.17 35.10 C 37.11 33.28 40.06 33.86 39.81 36.04 C 39.73 37.98 40.96 41.48 43.33 39.41 C 44.80 36.65 43.54 33.05 44.10 29.97 Z" />
</g>
</svg>
