<?xml version="1.0" encoding="UTF-8" ?>
<!DOCTYPE svg PUBLIC "-//W3C//DTD SVG 1.1//EN" "http://www.w3.org/Graphics/SVG/1.1/DTD/svg11.dtd">
<svg width="60pt" height="60pt" viewBox="0 0 60 60" version="1.1" xmlns="http://www.w3.org/2000/svg">
<g id="#ffffffff">
<path fill="#ffffff" opacity="1.00" d=" M 0.00 0.00 L 60.00 0.00 L 60.00 60.00 L 0.00 60.00 L 0.00 0.00 M 28.54 2.66 C 26.48 5.60 31.41 6.29 33.13 7.61 C 32.80 9.61 30.89 12.40 33.15 13.88 C 36.32 14.80 35.71 10.13 37.85 8.95 C 39.64 8.17 41.64 8.06 43.48 7.44 C 44.40 6.38 44.04 4.83 42.84 4.16 C 40.58 3.70 38.36 4.58 36.22 5.19 C 34.23 3.48 31.14 0.80 28.54 2.66 M 16.36 16.37 C 13.61 17.51 13.14 21.75 15.77 23.28 C 18.21 25.22 22.12 23.00 21.99 19.99 C 22.08 17.24 18.84 15.05 16.36 16.37 M 28.38 16.35 C 25.66 17.47 25.12 21.64 27.69 23.22 C 30.10 25.25 34.11 23.05 33.99 20.00 C 34.09 17.26 30.87 15.06 28.38 16.35 M 40.33 16.38 C 37.62 17.53 37.14 21.72 39.74 23.26 C 42.18 25.24 46.14 23.00 45.99 19.96 C 46.06 17.21 42.81 15.03 40.33 16.38 M 10.37 24.36 C 7.67 25.47 7.12 29.62 9.67 31.20 C 12.08 33.27 16.11 31.06 15.99 28.00 C 16.09 25.25 12.86 23.05 10.37 24.36 M 22.42 24.34 C 19.63 25.44 19.11 29.72 21.76 31.27 C 24.19 33.22 28.09 31.03 27.99 28.02 C 28.10 25.28 24.92 23.08 22.42 24.34 M 34.37 24.36 C 31.66 25.47 31.12 29.62 33.67 31.21 C 36.08 33.26 40.08 31.07 39.99 28.02 C 40.11 25.27 36.87 23.05 34.37 24.36 M 46.42 24.34 C 43.65 25.43 43.11 29.66 45.71 31.24 C 48.14 33.25 52.13 31.02 51.99 27.97 C 52.06 25.26 48.90 23.09 46.42 24.34 M 16.38 32.36 C 13.63 33.48 13.12 37.72 15.75 39.26 C 18.18 41.23 22.10 39.02 21.99 36.01 C 22.09 33.26 18.88 31.06 16.38 32.36 M 28.36 32.37 C 25.62 33.49 25.13 37.71 27.74 39.26 C 30.16 41.22 34.07 39.05 33.99 36.04 C 34.12 33.27 30.87 31.04 28.36 32.37 M 40.40 32.35 C 37.65 33.45 37.12 37.67 39.71 39.24 C 42.14 41.25 46.13 39.02 45.99 35.97 C 46.07 33.24 42.88 31.08 40.40 32.35 M 22.37 40.36 C 19.65 41.48 19.12 45.67 21.71 47.24 C 24.13 49.24 28.09 47.05 27.99 44.01 C 28.10 41.26 24.87 39.05 22.37 40.36 M 34.39 40.35 C 31.66 41.46 31.12 45.65 33.70 47.22 C 36.11 49.24 40.09 47.06 39.99 44.02 C 40.11 41.27 36.89 39.06 34.39 40.35 M 28.33 48.38 C 25.62 49.52 25.14 53.71 27.74 55.25 C 30.16 57.23 34.08 55.04 33.99 52.02 C 34.11 49.25 30.83 47.03 28.33 48.38 Z" />
</g>
<g id="#000000ff">
<path fill="#000000" opacity="1.00" d=" M 28.54 2.66 C 31.14 0.80 34.23 3.48 36.22 5.19 C 38.36 4.58 40.58 3.70 42.84 4.16 C 44.04 4.83 44.40 6.38 43.48 7.44 C 41.64 8.06 39.64 8.17 37.85 8.95 C 35.71 10.13 36.32 14.80 33.15 13.88 C 30.89 12.40 32.80 9.61 33.13 7.61 C 31.41 6.29 26.48 5.60 28.54 2.66 Z" />
<path fill="#000000" opacity="1.00" d=" M 16.36 16.37 C 18.84 15.05 22.08 17.24 21.99 19.99 C 22.12 23.00 18.21 25.22 15.77 23.28 C 13.14 21.75 13.61 17.51 16.36 16.37 Z" />
<path fill="#000000" opacity="1.00" d=" M 28.38 16.35 C 30.87 15.06 34.09 17.26 33.99 20.00 C 34.11 23.05 30.10 25.25 27.69 23.22 C 25.12 21.64 25.66 17.47 28.38 16.35 Z" />
<path fill="#000000" opacity="1.00" d=" M 40.33 16.38 C 42.81 15.03 46.06 17.21 45.99 19.96 C 46.14 23.00 42.18 25.24 39.74 23.26 C 37.14 21.72 37.62 17.53 40.33 16.38 Z" />
<path fill="#000000" opacity="1.00" d=" M 10.37 24.36 C 12.86 23.05 16.09 25.25 15.99 28.00 C 16.11 31.06 12.08 33.27 9.67 31.20 C 7.12 29.62 7.67 25.47 10.37 24.36 Z" />
<path fill="#000000" opacity="1.00" d=" M 22.42 24.34 C 24.92 23.08 28.10 25.28 27.99 28.02 C 28.09 31.03 24.19 33.22 21.76 31.27 C 19.11 29.72 19.63 25.44 22.42 24.34 Z" />
<path fill="#000000" opacity="1.00" d=" M 34.37 24.36 C 36.87 23.05 40.11 25.27 39.99 28.02 C 40.08 31.07 36.08 33.26 33.67 31.21 C 31.12 29.62 31.66 25.47 34.37 24.36 Z" />
<path fill="#000000" opacity="1.00" d=" M 46.42 24.34 C 48.90 23.09 52.06 25.26 51.99 27.97 C 52.13 31.02 48.14 33.25 45.71 31.24 C 43.11 29.66 43.65 25.43 46.42 24.34 Z" />
<path fill="#000000" opacity="1.00" d=" M 16.38 32.36 C 18.88 31.06 22.09 33.26 21.99 36.01 C 22.10 39.02 18.18 41.23 15.75 39.26 C 13.12 37.72 13.63 33.48 16.38 32.36 Z" />
<path fill="#000000" opacity="1.00" d=" M 28.36 32.37 C 30.87 31.04 34.12 33.27 33.99 36.04 C 34.07 39.05 30.16 41.22 27.74 39.26 C 25.13 37.71 25.62 33.49 28.36 32.37 Z" />
<path fill="#000000" opacity="1.00" d=" M 40.40 32.35 C 42.88 31.08 46.07 33.24 45.99 35.97 C 46.13 39.02 42.14 41.25 39.71 39.24 C 37.12 37.67 37.65 33.45 40.40 32.35 Z" />
<path fill="#000000" opacity="1.00" d=" M 22.37 40.36 C 24.87 39.05 28.10 41.26 27.99 44.01 C 28.09 47.05 24.13 49.24 21.71 47.24 C 19.12 45.67 19.65 41.48 22.37 40.36 Z" />
<path fill="#000000" opacity="1.00" d=" M 34.39 40.35 C 36.89 39.06 40.11 41.27 39.99 44.02 C 40.09 47.06 36.11 49.24 33.70 47.22 C 31.12 45.65 31.66 41.46 34.39 40.35 Z" />
<path fill="#000000" opacity="1.00" d=" M 28.33 48.38 C 30.83 47.03 34.11 49.25 33.99 52.02 C 34.08 55.04 30.16 57.23 27.74 55.25 C 25.14 53.71 25.62 49.52 28.33 48.38 Z" />
</g>
</svg>
