<?xml version="1.0" encoding="UTF-8" ?>
<!DOCTYPE svg PUBLIC "-//W3C//DTD SVG 1.1//EN" "http://www.w3.org/Graphics/SVG/1.1/DTD/svg11.dtd">
<svg width="60pt" height="60pt" viewBox="0 0 60 60" version="1.1" xmlns="http://www.w3.org/2000/svg">
<g id="#ffffffff">
<path fill="#ffffff" opacity="1.00" d=" M 0.00 0.00 L 60.00 0.00 L 60.00 60.00 L 0.00 60.00 L 0.00 0.00 M 19.52 8.84 C 14.32 9.94 9.16 11.77 4.77 14.80 C 2.72 15.97 4.98 19.40 6.83 17.96 C 12.69 14.71 19.13 12.30 25.90 12.06 C 34.08 11.50 42.14 13.97 49.20 17.98 C 51.06 19.35 53.26 15.94 51.23 14.80 C 42.02 8.71 30.31 6.72 19.52 8.84 M 25.18 16.09 C 24.92 16.36 24.38 16.89 24.12 17.16 C 24.01 20.24 25.50 23.37 27.16 25.89 C 29.87 26.75 30.60 23.37 29.42 21.55 C 28.29 19.64 28.30 15.39 25.18 16.09 M 15.16 18.08 C 14.90 18.35 14.38 18.88 14.12 19.15 C 13.98 22.24 15.52 25.35 17.14 27.90 C 19.82 28.75 20.62 25.44 19.44 23.62 C 18.30 21.68 18.31 17.39 15.16 18.08 M 35.21 18.08 C 32.38 20.38 35.62 24.15 36.35 26.84 C 37.61 29.69 41.33 26.67 39.70 24.39 C 38.46 22.28 38.56 17.55 35.21 18.08 M 14.36 34.28 C 8.47 38.26 4.80 44.96 4.01 51.97 C 5.99 51.97 7.99 52.17 9.96 51.86 C 13.46 50.20 16.62 47.89 20.00 46.00 C 20.00 44.67 20.00 43.33 20.00 42.00 C 21.35 42.00 22.70 42.00 24.05 42.00 C 24.53 42.50 25.50 43.50 25.99 44.00 C 27.32 43.34 28.66 42.68 30.00 42.02 C 29.99 39.35 30.00 36.68 30.03 34.01 C 33.18 34.52 36.18 35.65 38.99 37.15 C 38.69 37.82 38.09 39.15 37.79 39.82 C 36.19 39.85 35.03 40.90 33.94 41.94 C 33.97 43.29 34.00 44.64 34.02 46.00 C 35.37 45.32 36.72 44.65 38.08 43.97 C 40.05 44.63 42.02 45.33 43.99 46.01 C 43.33 47.33 42.67 48.66 42.01 49.98 C 39.61 48.44 36.87 47.66 34.01 47.96 C 32.69 49.32 31.35 50.66 30.00 52.00 C 37.33 51.99 44.65 52.03 51.98 51.98 C 51.20 45.21 47.80 38.71 42.22 34.70 C 34.28 28.64 22.49 28.46 14.36 34.28 Z" />
<path fill="#ffffff" opacity="1.00" d=" M 21.99 34.88 C 23.32 34.61 24.64 34.32 25.96 34.03 C 25.98 35.35 26.00 36.68 26.01 38.00 C 24.68 38.00 23.34 38.00 22.00 38.00 C 22.00 37.22 22.00 35.66 21.99 34.88 Z" />
</g>
<g id="#000000ff">
<path fill="#968176" opacity="1.00" d=" M 19.52 8.84 C 30.31 6.72 42.02 8.71 51.23 14.80 C 53.26 15.94 51.06 19.35 49.20 17.98 C 42.14 13.97 34.08 11.50 25.90 12.06 C 19.13 12.30 12.69 14.71 6.83 17.96 C 4.98 19.40 2.72 15.97 4.77 14.80 C 9.16 11.77 14.32 9.94 19.52 8.84 Z" />
<path fill="#968176" opacity="1.00" d=" M 25.18 16.09 C 28.30 15.39 28.29 19.64 29.42 21.55 C 30.60 23.37 29.87 26.75 27.16 25.89 C 25.50 23.37 24.01 20.24 24.12 17.16 C 24.38 16.89 24.92 16.36 25.18 16.09 Z" />
<path fill="#968176" opacity="1.00" d=" M 15.16 18.08 C 18.31 17.39 18.30 21.68 19.44 23.62 C 20.62 25.44 19.82 28.75 17.14 27.90 C 15.52 25.35 13.98 22.24 14.12 19.15 C 14.38 18.88 14.90 18.35 15.16 18.08 Z" />
<path fill="#968176" opacity="1.00" d=" M 35.21 18.08 C 38.56 17.55 38.46 22.28 39.70 24.39 C 41.33 26.67 37.61 29.69 36.35 26.84 C 35.62 24.15 32.38 20.38 35.21 18.08 Z" />
<path fill="#968176" opacity="1.00" d=" M 14.36 34.28 C 22.49 28.46 34.28 28.64 42.22 34.70 C 47.80 38.71 51.20 45.21 51.98 51.98 C 44.65 52.03 37.33 51.99 30.00 52.00 C 31.35 50.66 32.69 49.32 34.01 47.96 C 36.87 47.66 39.61 48.44 42.01 49.98 C 42.67 48.66 43.33 47.33 43.99 46.01 C 42.02 45.33 40.05 44.63 38.08 43.97 C 36.72 44.65 35.37 45.32 34.02 46.00 C 34.00 44.64 33.97 43.29 33.94 41.94 C 35.03 40.90 36.19 39.85 37.79 39.82 C 38.09 39.15 38.69 37.82 38.99 37.15 C 36.18 35.65 33.18 34.52 30.03 34.01 C 30.00 36.68 29.99 39.35 30.00 42.02 C 28.66 42.68 27.32 43.34 25.99 44.00 C 25.50 43.50 24.53 42.50 24.05 42.00 C 22.70 42.00 21.35 42.00 20.00 42.00 C 20.00 43.33 20.00 44.67 20.00 46.00 C 16.62 47.89 13.46 50.20 9.96 51.86 C 7.99 52.17 5.99 51.97 4.01 51.97 C 4.80 44.96 8.47 38.26 14.36 34.28 M 21.99 34.88 C 22.00 35.66 22.00 37.22 22.00 38.00 C 23.34 38.00 24.68 38.00 26.01 38.00 C 26.00 36.68 25.98 35.35 25.96 34.03 C 24.64 34.32 23.32 34.61 21.99 34.88 Z" />
</g>
</svg>
