<?xml version="1.0" encoding="UTF-8" ?>
<!DOCTYPE svg PUBLIC "-//W3C//DTD SVG 1.1//EN" "http://www.w3.org/Graphics/SVG/1.1/DTD/svg11.dtd">
<svg width="60pt" height="60pt" viewBox="0 0 60 60" version="1.1" xmlns="http://www.w3.org/2000/svg">
<g id="#ffffffff">
<path fill="#ffffff" opacity="1.00" d=" M 0.00 0.00 L 60.00 0.00 L 60.00 60.00 L 0.00 60.00 L 0.00 0.00 M 22.11 7.23 C 18.56 8.20 16.32 11.35 13.96 13.93 C 15.88 16.11 16.69 20.13 20.12 20.23 C 20.86 22.08 21.52 23.96 22.08 25.87 C 16.36 33.53 14.14 43.38 14.17 52.80 C 14.39 53.06 14.85 53.56 15.08 53.81 C 24.03 54.27 33.02 53.86 41.99 54.01 C 43.43 54.02 46.03 54.20 45.89 52.06 C 45.66 42.88 43.53 33.34 37.94 25.86 C 38.50 23.95 39.15 22.07 39.90 20.22 C 43.34 20.15 44.14 16.10 46.07 13.93 C 43.99 11.70 42.11 9.08 39.30 7.75 C 33.86 5.60 27.68 5.49 22.11 7.23 Z" />
<path fill="#ffffff" opacity="1.00" d=" M 26.45 10.20 C 28.81 10.04 31.18 10.03 33.54 10.15 C 32.90 12.76 32.39 15.53 30.72 17.72 C 27.30 17.85 27.50 12.53 26.45 10.20 Z" />
</g>
<g id="#000000ff">
<path fill="#968176" opacity="1.00" d=" M 22.11 7.23 C 27.68 5.49 33.86 5.60 39.30 7.75 C 42.11 9.08 43.99 11.70 46.07 13.93 C 44.14 16.10 43.34 20.15 39.90 20.22 C 39.15 22.07 38.50 23.95 37.94 25.86 C 43.53 33.34 45.66 42.88 45.89 52.06 C 46.03 54.20 43.43 54.02 41.99 54.01 C 33.02 53.86 24.03 54.27 15.08 53.81 C 14.85 53.56 14.39 53.06 14.17 52.80 C 14.14 43.38 16.36 33.53 22.08 25.87 C 21.52 23.96 20.86 22.08 20.12 20.23 C 16.69 20.13 15.88 16.11 13.96 13.93 C 16.32 11.35 18.56 8.20 22.11 7.23 M 26.45 10.20 C 27.50 12.53 27.30 17.85 30.72 17.72 C 32.39 15.53 32.90 12.76 33.54 10.15 C 31.18 10.03 28.81 10.04 26.45 10.20 Z" />
</g>
</svg>
