<?xml version="1.0" encoding="UTF-8" ?>
<!DOCTYPE svg PUBLIC "-//W3C//DTD SVG 1.1//EN" "http://www.w3.org/Graphics/SVG/1.1/DTD/svg11.dtd">
<svg width="60pt" height="60pt" viewBox="0 0 60 60" version="1.1" xmlns="http://www.w3.org/2000/svg">
<g id="#ffffffff">
<path fill="#ffffff" opacity="1.00" d=" M 0.00 0.00 L 60.00 0.00 L 60.00 60.00 L 0.00 60.00 L 0.00 0.00 M 10.15 21.94 C 8.53 29.66 11.71 37.12 13.86 44.38 C 12.97 46.01 10.74 48.41 13.12 49.87 C 17.94 49.83 22.68 48.58 27.47 48.12 C 32.67 52.22 39.42 53.98 45.96 53.93 C 47.25 54.16 48.48 52.43 47.79 51.33 C 45.69 46.79 43.18 42.45 40.89 38.00 C 39.37 34.56 34.27 36.79 32.35 33.42 C 35.64 32.30 38.98 31.31 42.29 30.27 C 44.04 33.37 45.74 36.50 47.48 39.61 C 48.11 40.59 48.65 41.98 50.01 42.08 C 51.36 42.08 52.55 40.48 51.77 39.26 C 49.11 33.95 45.96 28.89 43.22 23.60 C 46.02 20.59 49.23 17.94 51.78 14.71 C 52.56 13.49 51.23 12.32 50.35 11.65 C 43.98 6.91 35.61 5.34 27.83 6.33 C 19.56 7.41 11.80 13.55 10.15 21.94 Z" />
<path fill="#ffffff" opacity="1.00" d=" M 14.33 21.52 C 15.92 15.67 21.34 11.54 27.16 10.47 C 33.90 9.28 41.13 10.45 46.96 14.12 C 44.96 16.18 42.94 18.21 40.91 20.24 C 35.70 14.08 24.91 14.85 20.60 21.61 C 17.09 26.80 18.90 33.45 16.49 39.03 C 14.39 33.51 12.81 27.39 14.33 21.52 Z" />
<path fill="#ffffff" opacity="1.00" d=" M 27.74 20.73 C 31.53 19.04 37.73 20.23 38.30 25.04 C 38.99 25.61 39.70 26.18 40.41 26.73 C 36.48 28.00 32.40 28.87 28.62 30.54 C 27.39 31.80 28.31 33.73 28.91 35.08 C 30.46 38.26 34.12 39.20 37.30 39.80 C 39.06 43.06 40.78 46.34 42.47 49.63 C 37.49 49.10 32.75 47.36 28.78 44.31 C 25.23 43.79 21.56 45.18 17.98 45.43 C 20.28 41.30 22.02 36.76 22.01 31.97 C 22.00 27.67 23.22 22.39 27.74 20.73 Z" />
</g>
<g id="#000000ff">
<path fill="#000000" opacity="1.00" d=" M 10.15 21.94 C 11.80 13.55 19.56 7.41 27.83 6.33 C 35.61 5.34 43.98 6.91 50.35 11.65 C 51.23 12.32 52.56 13.49 51.78 14.71 C 49.23 17.94 46.02 20.59 43.22 23.60 C 45.96 28.89 49.11 33.95 51.77 39.26 C 52.55 40.48 51.36 42.08 50.01 42.08 C 48.65 41.98 48.11 40.59 47.48 39.61 C 45.74 36.50 44.04 33.37 42.29 30.27 C 38.98 31.31 35.64 32.30 32.35 33.42 C 34.27 36.79 39.37 34.56 40.89 38.00 C 43.18 42.45 45.69 46.79 47.79 51.33 C 48.48 52.43 47.25 54.16 45.96 53.93 C 39.42 53.98 32.67 52.22 27.47 48.12 C 22.68 48.58 17.94 49.83 13.12 49.87 C 10.74 48.41 12.97 46.01 13.86 44.38 C 11.71 37.12 8.53 29.66 10.15 21.94 M 14.33 21.52 C 12.81 27.39 14.39 33.51 16.49 39.03 C 18.90 33.45 17.09 26.80 20.60 21.61 C 24.91 14.85 35.70 14.08 40.91 20.24 C 42.94 18.21 44.96 16.18 46.96 14.12 C 41.13 10.45 33.90 9.28 27.16 10.47 C 21.34 11.54 15.92 15.67 14.33 21.52 M 27.74 20.73 C 23.22 22.39 22.00 27.67 22.01 31.97 C 22.02 36.76 20.28 41.30 17.98 45.43 C 21.56 45.18 25.23 43.79 28.78 44.31 C 32.75 47.36 37.49 49.10 42.47 49.63 C 40.78 46.34 39.06 43.06 37.30 39.80 C 34.12 39.20 30.46 38.26 28.91 35.08 C 28.31 33.73 27.39 31.80 28.62 30.54 C 32.40 28.87 36.48 28.00 40.41 26.73 C 39.70 26.18 38.99 25.61 38.30 25.04 C 37.73 20.23 31.53 19.04 27.74 20.73 Z" />
</g>
</svg>
