<?xml version="1.0" encoding="UTF-8" ?>
<!DOCTYPE svg PUBLIC "-//W3C//DTD SVG 1.1//EN" "http://www.w3.org/Graphics/SVG/1.1/DTD/svg11.dtd">
<svg width="60pt" height="60pt" viewBox="0 0 60 60" version="1.1" xmlns="http://www.w3.org/2000/svg">
<g id="#ffffffff">
<path fill="#ffffff" opacity="1.00" d=" M 0.00 0.00 L 60.00 0.00 L 60.00 43.44 C 58.20 38.52 52.78 36.40 48.18 34.92 C 42.09 32.99 35.61 34.49 30.00 37.16 C 24.79 34.75 18.89 33.12 13.17 34.59 C 8.09 35.88 2.46 38.09 0.00 43.07 L 0.00 0.00 M 14.51 8.64 C 6.54 11.41 5.63 23.90 12.52 28.33 C 15.49 30.33 19.57 30.52 22.71 28.78 C 29.90 25.07 29.91 12.93 22.72 9.21 C 20.23 7.84 17.16 7.67 14.51 8.64 M 38.46 8.66 C 31.85 11.00 30.22 19.93 33.65 25.46 C 36.30 29.69 42.32 31.26 46.68 28.80 C 53.64 25.23 53.95 13.77 47.41 9.62 C 44.80 7.90 41.38 7.56 38.46 8.66 Z" />
<path fill="#ffffff" opacity="1.00" d=" M 39.43 12.58 C 43.65 10.36 48.76 14.47 48.03 19.03 C 48.54 22.92 44.91 26.75 40.95 25.89 C 34.83 24.93 34.10 15.08 39.43 12.58 Z" />
<path fill="#ffffff" opacity="1.00" d=" M 33.88 39.72 C 41.31 36.49 50.50 38.16 56.22 43.91 C 49.56 44.09 42.90 43.97 36.24 43.99 C 35.64 42.47 34.78 41.08 33.88 39.72 Z" />
<path fill="#ffffff" opacity="1.00" d=" M 0.00 45.01 C 0.56 46.76 1.91 48.37 3.95 47.99 C 21.32 48.01 38.70 48.01 56.07 47.99 C 58.11 48.38 59.38 46.74 60.00 45.05 L 60.00 60.00 L 0.00 60.00 L 0.00 45.01 Z" />
</g>
<g id="#000000ff">
<path fill="#000000" opacity="1.00" d=" M 14.51 8.64 C 17.16 7.67 20.23 7.84 22.72 9.21 C 29.91 12.93 29.90 25.07 22.71 28.78 C 19.57 30.52 15.49 30.33 12.52 28.33 C 5.63 23.90 6.54 11.41 14.51 8.64 Z" />
<path fill="#000000" opacity="1.00" d=" M 38.46 8.66 C 41.38 7.56 44.80 7.90 47.41 9.62 C 53.95 13.77 53.64 25.23 46.68 28.80 C 42.32 31.26 36.30 29.69 33.65 25.46 C 30.22 19.93 31.85 11.00 38.46 8.66 M 39.43 12.58 C 34.10 15.08 34.83 24.93 40.95 25.89 C 44.91 26.75 48.54 22.92 48.03 19.03 C 48.76 14.47 43.65 10.36 39.43 12.58 Z" />
<path fill="#000000" opacity="1.00" d=" M 0.00 43.07 C 2.46 38.09 8.09 35.88 13.17 34.59 C 18.89 33.12 24.79 34.75 30.00 37.16 C 35.61 34.49 42.09 32.99 48.18 34.92 C 52.78 36.40 58.20 38.52 60.00 43.44 L 60.00 45.05 C 59.38 46.74 58.11 48.38 56.07 47.99 C 38.70 48.01 21.32 48.01 3.95 47.99 C 1.91 48.37 0.56 46.76 0.00 45.01 L 0.00 43.07 M 33.88 39.72 C 34.78 41.08 35.64 42.47 36.24 43.99 C 42.90 43.97 49.56 44.09 56.22 43.91 C 50.50 38.16 41.31 36.49 33.88 39.72 Z" />
</g>
</svg>
