<?xml version="1.0" encoding="UTF-8" ?>
<!DOCTYPE svg PUBLIC "-//W3C//DTD SVG 1.1//EN" "http://www.w3.org/Graphics/SVG/1.1/DTD/svg11.dtd">
<svg width="200pt" height="200pt" viewBox="0 0 200 200" version="1.1" xmlns="http://www.w3.org/2000/svg">
<g id="#ffffffff">
<path fill="#ffffff" opacity="1.00" d=" M 0.00 0.00 L 200.00 0.00 L 200.00 200.00 L 0.00 200.00 L 0.00 0.00 M 96.05 8.95 C 96.31 14.70 96.19 20.46 96.21 26.22 C 94.49 26.15 92.77 26.27 91.17 26.91 C 91.01 27.32 90.70 28.15 90.55 28.56 C 90.40 35.34 90.57 42.13 90.47 48.92 C 87.48 50.78 84.42 52.57 81.47 54.49 C 79.35 55.64 80.20 58.28 80.49 60.15 C 82.39 70.68 83.71 81.29 84.71 91.94 C 87.13 125.92 83.30 160.25 73.87 192.97 C 75.40 194.98 77.91 194.91 80.17 194.54 C 93.45 194.41 106.74 194.59 120.02 194.46 C 122.72 194.46 122.50 191.21 121.81 189.44 C 110.50 142.86 111.02 93.68 121.91 47.07 C 122.36 44.46 124.44 40.85 121.12 39.36 C 116.43 40.18 111.77 41.13 107.27 42.71 C 107.26 37.84 107.20 32.96 107.30 28.08 C 106.00 25.70 103.23 26.25 100.98 26.24 C 100.99 20.14 100.93 14.04 101.04 7.94 C 100.33 7.18 99.61 6.43 98.88 5.69 C 97.47 6.24 96.14 7.32 96.05 8.95 Z" />
<path fill="#ffffff" opacity="1.00" d=" M 85.01 57.46 C 93.56 51.67 103.67 48.94 113.39 45.77 C 104.71 54.52 95.93 63.17 87.28 71.96 C 86.60 67.11 85.74 62.30 85.01 57.46 Z" />
<path fill="#ffffff" opacity="1.00" d=" M 88.16 77.96 C 97.50 68.16 107.49 58.97 116.68 49.03 C 114.96 55.18 114.17 61.54 112.99 67.80 C 105.25 75.75 97.02 83.24 89.47 91.36 C 89.01 86.90 88.64 82.42 88.16 77.96 Z" />
<path fill="#ffffff" opacity="1.00" d=" M 89.81 97.84 C 96.96 90.17 104.78 83.13 111.86 75.39 C 111.20 80.92 110.45 86.44 109.91 91.98 C 103.46 98.74 96.65 105.14 90.21 111.90 C 90.11 107.21 90.00 102.52 89.81 97.84 Z" />
<path fill="#ffffff" opacity="1.00" d=" M 90.00 118.88 C 96.40 112.22 103.28 106.02 109.51 99.21 C 108.89 104.45 108.91 109.73 108.65 114.99 C 102.20 121.40 95.43 127.59 89.50 134.48 C 89.63 129.28 89.87 124.08 90.00 118.88 Z" />
<path fill="#ffffff" opacity="1.00" d=" M 89.07 141.18 C 95.47 134.48 102.30 128.18 108.60 121.38 C 108.61 126.20 108.82 131.01 108.95 135.82 C 101.52 143.58 93.53 150.82 86.36 158.80 C 87.95 153.05 87.65 146.94 89.07 141.18 Z" />
<path fill="#ffffff" opacity="1.00" d=" M 85.30 166.33 C 93.22 158.15 101.58 150.38 109.49 142.18 C 109.78 146.55 110.26 150.90 110.74 155.25 C 100.83 165.79 90.27 175.72 80.36 186.26 C 82.52 179.77 83.71 172.97 85.30 166.33 Z" />
<path fill="#ffffff" opacity="1.00" d=" M 83.16 189.79 C 92.81 180.50 102.28 171.00 111.62 161.40 C 112.81 171.00 114.47 180.58 117.00 189.90 C 105.73 189.58 94.44 189.80 83.16 189.79 Z" />
</g>
<g id="#000000ff">
<path fill="#968176" opacity="1.00" d=" M 96.05 8.95 C 96.14 7.32 97.47 6.24 98.88 5.69 C 99.61 6.43 100.33 7.18 101.04 7.94 C 100.93 14.04 100.99 20.14 100.98 26.24 C 103.23 26.25 106.00 25.70 107.30 28.08 C 107.20 32.96 107.26 37.84 107.27 42.71 C 111.77 41.13 116.43 40.18 121.12 39.36 C 124.44 40.85 122.36 44.46 121.91 47.07 C 111.02 93.68 110.50 142.86 121.81 189.44 C 122.50 191.21 122.72 194.46 120.02 194.46 C 106.74 194.59 93.45 194.41 80.17 194.54 C 77.91 194.91 75.40 194.98 73.87 192.97 C 83.30 160.25 87.13 125.92 84.71 91.94 C 83.71 81.29 82.39 70.68 80.49 60.15 C 80.20 58.28 79.35 55.64 81.47 54.49 C 84.42 52.57 87.48 50.78 90.47 48.92 C 90.57 42.13 90.40 35.34 90.55 28.56 C 90.70 28.15 91.01 27.32 91.17 26.91 C 92.77 26.27 94.49 26.15 96.21 26.22 C 96.19 20.46 96.31 14.70 96.05 8.95 M 85.01 57.46 C 85.74 62.30 86.60 67.11 87.28 71.96 C 95.93 63.17 104.71 54.52 113.39 45.77 C 103.67 48.94 93.56 51.67 85.01 57.46 M 88.16 77.96 C 88.64 82.42 89.01 86.90 89.47 91.36 C 97.02 83.24 105.25 75.75 112.99 67.80 C 114.17 61.54 114.96 55.18 116.68 49.03 C 107.49 58.97 97.50 68.16 88.16 77.96 M 89.81 97.84 C 90.00 102.52 90.11 107.21 90.21 111.90 C 96.65 105.14 103.46 98.74 109.91 91.98 C 110.45 86.44 111.20 80.92 111.86 75.39 C 104.78 83.13 96.96 90.17 89.81 97.84 M 90.00 118.88 C 89.87 124.08 89.63 129.28 89.50 134.48 C 95.43 127.59 102.20 121.40 108.65 114.99 C 108.91 109.73 108.89 104.45 109.51 99.21 C 103.28 106.02 96.40 112.22 90.00 118.88 M 89.07 141.18 C 87.65 146.94 87.95 153.05 86.36 158.80 C 93.53 150.82 101.52 143.58 108.95 135.82 C 108.82 131.01 108.61 126.20 108.60 121.38 C 102.30 128.18 95.47 134.48 89.07 141.18 M 85.30 166.33 C 83.71 172.97 82.52 179.77 80.36 186.26 C 90.27 175.72 100.83 165.79 110.74 155.25 C 110.26 150.90 109.78 146.55 109.49 142.18 C 101.58 150.38 93.22 158.15 85.30 166.33 M 83.16 189.79 C 94.44 189.80 105.73 189.58 117.00 189.90 C 114.47 180.58 112.81 171.00 111.62 161.40 C 102.28 171.00 92.81 180.50 83.16 189.79 Z" />
</g>
</svg>
