<?xml version="1.0" encoding="UTF-8" ?>
<!DOCTYPE svg PUBLIC "-//W3C//DTD SVG 1.1//EN" "http://www.w3.org/Graphics/SVG/1.1/DTD/svg11.dtd">
<svg width="60pt" height="60pt" viewBox="0 0 60 60" version="1.1" xmlns="http://www.w3.org/2000/svg">
<g id="#ffffffff">
<path fill="#ffffff" opacity="1.00" d=" M 0.00 0.00 L 60.00 0.00 L 60.00 60.00 L 0.00 60.00 L 0.00 0.00 M 18.49 9.98 C 16.00 10.02 13.50 9.86 11.03 10.15 C 8.92 10.61 7.76 12.86 8.00 14.90 C 8.03 25.98 7.92 37.06 8.05 48.13 C 7.93 51.14 11.19 52.16 13.64 52.18 C 14.72 54.46 17.47 54.31 18.41 52.01 C 26.21 51.98 34.01 52.01 41.81 51.99 C 42.13 52.55 42.77 53.67 43.08 54.23 C 44.39 53.91 45.51 53.19 46.42 52.20 C 47.91 51.89 49.69 52.00 50.81 50.78 C 52.40 49.28 51.90 46.90 52.02 44.95 C 51.86 34.32 52.23 23.67 51.84 13.05 C 50.55 8.53 44.94 10.35 41.49 9.98 C 38.56 6.74 34.63 3.97 30.08 4.03 C 25.46 3.87 21.40 6.61 18.49 9.98 Z" />
<path fill="#ffffff" opacity="1.00" d=" M 24.22 9.84 C 27.71 7.56 32.12 7.56 35.60 9.86 C 31.81 10.07 28.01 10.08 24.22 9.84 Z" />
<path fill="#ffffff" opacity="1.00" d=" M 12.07 14.10 C 24.02 13.93 35.97 13.95 47.91 14.09 C 48.01 16.69 48.01 19.30 47.92 21.90 C 35.98 22.07 24.03 22.06 12.09 21.91 C 11.99 19.31 11.99 16.70 12.07 14.10 M 17.17 16.15 C 14.82 17.18 16.44 20.89 18.82 19.89 C 21.16 18.82 19.58 15.09 17.17 16.15 M 25.16 16.10 C 22.86 17.24 24.41 20.86 26.83 19.88 C 29.14 18.78 27.58 15.14 25.16 16.10 M 33.18 16.09 C 30.87 17.18 32.37 20.84 34.81 19.90 C 37.14 18.81 35.61 15.16 33.18 16.09 M 41.18 16.10 C 38.89 17.16 40.36 20.85 42.78 19.90 C 45.14 18.86 43.62 15.13 41.18 16.10 Z" />
<path fill="#ffffff" opacity="1.00" d=" M 14.17 26.17 C 15.79 25.65 16.34 26.20 15.82 27.82 C 14.20 28.34 13.65 27.79 14.17 26.17 Z" />
<path fill="#ffffff" opacity="1.00" d=" M 18.17 26.17 C 19.79 25.65 20.34 26.20 19.82 27.82 C 18.20 28.34 17.65 27.79 18.17 26.17 Z" />
<path fill="#ffffff" opacity="1.00" d=" M 22.17 26.17 C 23.79 25.65 24.34 26.20 23.83 27.82 C 22.21 28.34 21.65 27.79 22.17 26.17 Z" />
<path fill="#ffffff" opacity="1.00" d=" M 26.17 26.17 C 27.79 25.65 28.34 26.20 27.82 27.82 C 26.20 28.34 25.65 27.79 26.17 26.17 Z" />
<path fill="#ffffff" opacity="1.00" d=" M 30.17 26.17 C 31.79 25.65 32.34 26.20 31.82 27.82 C 30.20 28.34 29.65 27.79 30.17 26.17 Z" />
<path fill="#ffffff" opacity="1.00" d=" M 34.17 26.17 C 35.79 25.65 36.34 26.20 35.82 27.82 C 34.21 28.34 33.65 27.79 34.17 26.17 Z" />
<path fill="#ffffff" opacity="1.00" d=" M 38.17 26.17 C 39.79 25.65 40.34 26.20 39.82 27.82 C 38.20 28.34 37.65 27.79 38.17 26.17 Z" />
<path fill="#ffffff" opacity="1.00" d=" M 42.17 26.17 C 43.79 25.65 44.34 26.20 43.82 27.82 C 42.20 28.34 41.65 27.79 42.17 26.17 Z" />
<path fill="#ffffff" opacity="1.00" d=" M 46.17 26.17 C 47.79 25.65 48.34 26.20 47.82 27.82 C 46.20 28.34 45.65 27.79 46.17 26.17 Z" />
<path fill="#ffffff" opacity="1.00" d=" M 12.17 30.17 C 13.79 29.65 14.34 30.20 13.82 31.82 C 12.20 32.34 11.65 31.79 12.17 30.17 Z" />
<path fill="#ffffff" opacity="1.00" d=" M 16.17 30.17 C 17.79 29.65 18.34 30.20 17.82 31.82 C 16.20 32.34 15.65 31.79 16.17 30.17 Z" />
<path fill="#ffffff" opacity="1.00" d=" M 20.17 30.17 C 21.79 29.65 22.34 30.20 21.82 31.82 C 20.20 32.34 19.65 31.79 20.17 30.17 Z" />
<path fill="#ffffff" opacity="1.00" d=" M 24.17 30.17 C 25.79 29.65 26.34 30.20 25.82 31.82 C 24.20 32.34 23.65 31.79 24.17 30.17 Z" />
<path fill="#ffffff" opacity="1.00" d=" M 28.17 30.17 C 29.79 29.65 30.34 30.20 29.82 31.82 C 28.20 32.34 27.65 31.79 28.17 30.17 Z" />
<path fill="#ffffff" opacity="1.00" d=" M 32.17 30.17 C 33.79 29.65 34.34 30.21 33.82 31.82 C 32.20 32.34 31.65 31.79 32.17 30.17 Z" />
<path fill="#ffffff" opacity="1.00" d=" M 36.17 30.17 C 37.79 29.65 38.34 30.20 37.82 31.82 C 36.20 32.34 35.65 31.79 36.17 30.17 Z" />
<path fill="#ffffff" opacity="1.00" d=" M 40.17 30.17 C 41.80 29.65 42.34 30.21 41.82 31.83 C 40.19 32.34 39.65 31.78 40.17 30.17 Z" />
<path fill="#ffffff" opacity="1.00" d=" M 44.17 30.17 C 45.79 29.65 46.34 30.20 45.82 31.82 C 44.20 32.34 43.65 31.79 44.17 30.17 Z" />
<path fill="#ffffff" opacity="1.00" d=" M 14.17 34.17 C 15.79 33.65 16.34 34.20 15.82 35.82 C 14.20 36.34 13.65 35.79 14.17 34.17 Z" />
<path fill="#ffffff" opacity="1.00" d=" M 18.17 34.17 C 19.79 33.65 20.34 34.20 19.82 35.82 C 18.20 36.34 17.65 35.79 18.17 34.17 Z" />
<path fill="#ffffff" opacity="1.00" d=" M 22.17 34.17 C 23.79 33.65 24.34 34.20 23.82 35.82 C 22.20 36.34 21.65 35.79 22.17 34.17 Z" />
<path fill="#ffffff" opacity="1.00" d=" M 26.16 34.18 C 27.78 33.65 28.34 34.19 27.83 35.82 C 26.21 36.35 25.65 35.80 26.16 34.18 Z" />
<path fill="#ffffff" opacity="1.00" d=" M 30.17 34.17 C 31.79 33.65 32.34 34.20 31.82 35.82 C 30.20 36.34 29.65 35.79 30.17 34.17 Z" />
<path fill="#ffffff" opacity="1.00" d=" M 34.17 34.17 C 35.79 33.65 36.34 34.20 35.82 35.82 C 34.20 36.34 33.65 35.79 34.17 34.17 Z" />
<path fill="#ffffff" opacity="1.00" d=" M 38.17 34.17 C 39.80 33.65 40.34 34.21 39.82 35.83 C 38.20 36.34 37.65 35.78 38.17 34.17 Z" />
<path fill="#ffffff" opacity="1.00" d=" M 42.17 34.17 C 43.79 33.65 44.34 34.20 43.82 35.82 C 42.20 36.34 41.65 35.79 42.17 34.17 Z" />
<path fill="#ffffff" opacity="1.00" d=" M 46.17 34.17 C 47.79 33.65 48.34 34.20 47.82 35.82 C 46.20 36.34 45.65 35.79 46.17 34.17 Z" />
<path fill="#ffffff" opacity="1.00" d=" M 12.17 38.17 C 13.79 37.65 14.34 38.20 13.82 39.82 C 12.20 40.34 11.65 39.79 12.17 38.17 Z" />
<path fill="#ffffff" opacity="1.00" d=" M 16.17 38.17 C 17.79 37.65 18.34 38.20 17.82 39.82 C 16.20 40.34 15.65 39.79 16.17 38.17 Z" />
<path fill="#ffffff" opacity="1.00" d=" M 20.17 38.17 C 21.79 37.65 22.34 38.20 21.82 39.82 C 20.20 40.34 19.65 39.79 20.17 38.17 Z" />
<path fill="#ffffff" opacity="1.00" d=" M 24.17 38.17 C 25.79 37.65 26.34 38.20 25.82 39.82 C 24.20 40.34 23.65 39.79 24.17 38.17 Z" />
<path fill="#ffffff" opacity="1.00" d=" M 28.17 38.17 C 29.79 37.65 30.34 38.20 29.82 39.82 C 28.20 40.34 27.65 39.79 28.17 38.17 Z" />
<path fill="#ffffff" opacity="1.00" d=" M 32.17 38.17 C 33.79 37.65 34.34 38.20 33.82 39.82 C 32.20 40.34 31.65 39.79 32.17 38.17 Z" />
<path fill="#ffffff" opacity="1.00" d=" M 36.17 38.17 C 37.79 37.65 38.34 38.20 37.82 39.82 C 36.20 40.34 35.65 39.79 36.17 38.17 Z" />
<path fill="#ffffff" opacity="1.00" d=" M 40.17 38.17 C 41.79 37.65 42.34 38.20 41.82 39.82 C 40.20 40.34 39.65 39.79 40.17 38.17 Z" />
<path fill="#ffffff" opacity="1.00" d=" M 44.17 38.17 C 45.79 37.65 46.34 38.20 45.82 39.82 C 44.20 40.34 43.65 39.79 44.17 38.17 Z" />
<path fill="#ffffff" opacity="1.00" d=" M 14.17 42.17 C 15.79 41.65 16.34 42.20 15.82 43.82 C 14.20 44.34 13.65 43.79 14.17 42.17 Z" />
<path fill="#ffffff" opacity="1.00" d=" M 18.17 42.17 C 19.79 41.65 20.34 42.20 19.82 43.82 C 18.20 44.34 17.65 43.79 18.17 42.17 Z" />
<path fill="#ffffff" opacity="1.00" d=" M 22.17 42.17 C 23.79 41.65 24.34 42.20 23.82 43.82 C 22.20 44.34 21.65 43.79 22.17 42.17 Z" />
<path fill="#ffffff" opacity="1.00" d=" M 26.17 42.17 C 27.79 41.65 28.34 42.20 27.82 43.82 C 26.20 44.34 25.65 43.79 26.17 42.17 Z" />
<path fill="#ffffff" opacity="1.00" d=" M 30.17 42.17 C 31.79 41.65 32.34 42.20 31.82 43.82 C 30.20 44.34 29.65 43.79 30.17 42.17 Z" />
<path fill="#ffffff" opacity="1.00" d=" M 34.17 42.17 C 35.79 41.65 36.34 42.20 35.82 43.82 C 34.20 44.34 33.65 43.79 34.17 42.17 Z" />
<path fill="#ffffff" opacity="1.00" d=" M 38.17 42.17 C 39.79 41.65 40.34 42.20 39.82 43.82 C 38.20 44.34 37.65 43.79 38.17 42.17 Z" />
<path fill="#ffffff" opacity="1.00" d=" M 42.17 42.17 C 43.79 41.65 44.34 42.20 43.82 43.82 C 42.20 44.34 41.65 43.79 42.17 42.17 Z" />
<path fill="#ffffff" opacity="1.00" d=" M 46.17 42.17 C 47.79 41.65 48.34 42.20 47.82 43.82 C 46.20 44.34 45.65 43.79 46.17 42.17 Z" />
<path fill="#ffffff" opacity="1.00" d=" M 12.17 46.17 C 13.79 45.65 14.34 46.20 13.82 47.82 C 12.20 48.34 11.65 47.79 12.17 46.17 Z" />
<path fill="#ffffff" opacity="1.00" d=" M 16.17 46.17 C 17.79 45.65 18.34 46.20 17.82 47.82 C 16.20 48.34 15.65 47.79 16.17 46.17 Z" />
<path fill="#ffffff" opacity="1.00" d=" M 20.17 46.17 C 21.79 45.65 22.34 46.20 21.82 47.82 C 20.20 48.34 19.65 47.79 20.17 46.17 Z" />
<path fill="#ffffff" opacity="1.00" d=" M 24.17 46.17 C 25.79 45.65 26.34 46.20 25.82 47.82 C 24.20 48.34 23.65 47.79 24.17 46.17 Z" />
<path fill="#ffffff" opacity="1.00" d=" M 28.17 46.17 C 29.79 45.65 30.34 46.20 29.82 47.82 C 28.20 48.34 27.65 47.79 28.17 46.17 Z" />
<path fill="#ffffff" opacity="1.00" d=" M 32.17 46.17 C 33.79 45.65 34.34 46.20 33.82 47.82 C 32.20 48.34 31.65 47.79 32.17 46.17 Z" />
<path fill="#ffffff" opacity="1.00" d=" M 36.17 46.17 C 37.79 45.65 38.34 46.20 37.82 47.82 C 36.20 48.34 35.65 47.79 36.17 46.17 Z" />
<path fill="#ffffff" opacity="1.00" d=" M 40.17 46.17 C 41.79 45.65 42.34 46.20 41.82 47.82 C 40.20 48.34 39.65 47.79 40.17 46.17 Z" />
<path fill="#ffffff" opacity="1.00" d=" M 44.17 46.17 C 45.79 45.65 46.34 46.20 45.82 47.82 C 44.20 48.34 43.65 47.79 44.17 46.17 Z" />
</g>
<g id="#000000ff">
<path fill="#000000" opacity="1.00" d=" M 18.49 9.98 C 21.40 6.61 25.46 3.87 30.08 4.03 C 34.63 3.97 38.56 6.74 41.49 9.98 C 44.94 10.35 50.55 8.53 51.84 13.05 C 52.23 23.67 51.86 34.32 52.02 44.95 C 51.90 46.90 52.40 49.28 50.81 50.78 C 49.69 52.00 47.91 51.89 46.42 52.20 C 45.51 53.19 44.39 53.91 43.08 54.23 C 42.77 53.67 42.13 52.55 41.81 51.99 C 34.01 52.01 26.21 51.98 18.41 52.01 C 17.47 54.31 14.72 54.46 13.64 52.18 C 11.19 52.16 7.93 51.14 8.05 48.13 C 7.92 37.06 8.03 25.98 8.00 14.90 C 7.76 12.86 8.92 10.61 11.03 10.15 C 13.50 9.86 16.00 10.02 18.49 9.98 M 24.22 9.84 C 28.01 10.08 31.81 10.07 35.60 9.86 C 32.12 7.56 27.71 7.56 24.22 9.84 M 12.07 14.10 C 11.99 16.70 11.99 19.31 12.09 21.91 C 24.03 22.06 35.98 22.07 47.92 21.90 C 48.01 19.30 48.01 16.69 47.91 14.09 C 35.97 13.95 24.02 13.93 12.07 14.10 M 14.17 26.17 C 13.65 27.79 14.20 28.34 15.82 27.82 C 16.34 26.20 15.79 25.65 14.17 26.17 M 18.17 26.17 C 17.65 27.79 18.20 28.34 19.82 27.82 C 20.34 26.20 19.79 25.65 18.17 26.17 M 22.17 26.17 C 21.65 27.79 22.21 28.34 23.83 27.82 C 24.34 26.20 23.79 25.65 22.17 26.17 M 26.17 26.17 C 25.65 27.79 26.20 28.34 27.82 27.82 C 28.34 26.20 27.79 25.65 26.17 26.17 M 30.17 26.17 C 29.65 27.79 30.20 28.34 31.82 27.82 C 32.34 26.20 31.79 25.65 30.17 26.17 M 34.17 26.17 C 33.65 27.79 34.21 28.34 35.82 27.82 C 36.34 26.20 35.79 25.65 34.17 26.17 M 38.17 26.17 C 37.65 27.79 38.20 28.34 39.82 27.82 C 40.34 26.20 39.79 25.65 38.17 26.17 M 42.17 26.17 C 41.65 27.79 42.20 28.34 43.82 27.82 C 44.34 26.20 43.79 25.65 42.17 26.17 M 46.17 26.17 C 45.65 27.79 46.20 28.34 47.82 27.82 C 48.34 26.20 47.79 25.65 46.17 26.17 M 12.17 30.17 C 11.65 31.79 12.20 32.34 13.82 31.82 C 14.34 30.20 13.79 29.65 12.17 30.17 M 16.17 30.17 C 15.65 31.79 16.20 32.34 17.82 31.82 C 18.34 30.20 17.79 29.65 16.17 30.17 M 20.17 30.17 C 19.65 31.79 20.20 32.34 21.82 31.82 C 22.34 30.20 21.79 29.65 20.17 30.17 M 24.17 30.17 C 23.65 31.79 24.20 32.34 25.82 31.82 C 26.34 30.20 25.79 29.65 24.17 30.17 M 28.17 30.17 C 27.65 31.79 28.20 32.34 29.82 31.82 C 30.34 30.20 29.79 29.65 28.17 30.17 M 32.17 30.17 C 31.65 31.79 32.20 32.34 33.82 31.82 C 34.34 30.21 33.79 29.65 32.17 30.17 M 36.17 30.17 C 35.65 31.79 36.20 32.34 37.82 31.82 C 38.34 30.20 37.79 29.65 36.17 30.17 M 40.17 30.17 C 39.65 31.78 40.19 32.34 41.82 31.83 C 42.34 30.21 41.80 29.65 40.17 30.17 M 44.17 30.17 C 43.65 31.79 44.20 32.34 45.82 31.82 C 46.34 30.20 45.79 29.65 44.17 30.17 M 14.17 34.17 C 13.65 35.79 14.20 36.34 15.82 35.82 C 16.34 34.20 15.79 33.65 14.17 34.17 M 18.17 34.17 C 17.65 35.79 18.20 36.34 19.82 35.82 C 20.34 34.20 19.79 33.65 18.17 34.17 M 22.17 34.17 C 21.65 35.79 22.20 36.34 23.82 35.82 C 24.34 34.20 23.79 33.65 22.17 34.17 M 26.16 34.18 C 25.65 35.80 26.21 36.35 27.83 35.82 C 28.34 34.19 27.78 33.65 26.16 34.18 M 30.17 34.17 C 29.65 35.79 30.20 36.34 31.82 35.82 C 32.34 34.20 31.79 33.65 30.17 34.17 M 34.17 34.17 C 33.65 35.79 34.20 36.34 35.82 35.82 C 36.34 34.20 35.79 33.65 34.17 34.17 M 38.17 34.17 C 37.65 35.78 38.20 36.34 39.82 35.83 C 40.34 34.21 39.80 33.65 38.17 34.17 M 42.17 34.17 C 41.65 35.79 42.20 36.34 43.82 35.82 C 44.34 34.20 43.79 33.65 42.17 34.17 M 46.17 34.17 C 45.65 35.79 46.20 36.34 47.82 35.82 C 48.34 34.20 47.79 33.65 46.17 34.17 M 12.17 38.17 C 11.65 39.79 12.20 40.34 13.82 39.82 C 14.34 38.20 13.79 37.65 12.17 38.17 M 16.17 38.17 C 15.65 39.79 16.20 40.34 17.82 39.82 C 18.34 38.20 17.79 37.65 16.17 38.17 M 20.17 38.17 C 19.65 39.79 20.20 40.34 21.82 39.82 C 22.34 38.20 21.79 37.65 20.17 38.17 M 24.17 38.17 C 23.65 39.79 24.20 40.34 25.82 39.82 C 26.34 38.20 25.79 37.65 24.17 38.17 M 28.17 38.17 C 27.65 39.79 28.20 40.34 29.82 39.82 C 30.34 38.20 29.79 37.65 28.17 38.17 M 32.17 38.17 C 31.65 39.79 32.20 40.34 33.82 39.82 C 34.34 38.20 33.79 37.65 32.17 38.17 M 36.17 38.17 C 35.65 39.79 36.20 40.34 37.82 39.82 C 38.34 38.20 37.79 37.65 36.17 38.17 M 40.17 38.17 C 39.65 39.79 40.20 40.34 41.82 39.82 C 42.34 38.20 41.79 37.65 40.17 38.17 M 44.17 38.17 C 43.65 39.79 44.20 40.34 45.82 39.82 C 46.34 38.20 45.79 37.65 44.17 38.17 M 14.17 42.17 C 13.65 43.79 14.20 44.34 15.82 43.82 C 16.34 42.20 15.79 41.65 14.17 42.17 M 18.17 42.17 C 17.65 43.79 18.20 44.34 19.82 43.82 C 20.34 42.20 19.79 41.65 18.17 42.17 M 22.17 42.17 C 21.65 43.79 22.20 44.34 23.82 43.82 C 24.34 42.20 23.79 41.65 22.17 42.17 M 26.17 42.17 C 25.65 43.79 26.20 44.34 27.82 43.82 C 28.34 42.20 27.79 41.65 26.17 42.17 M 30.17 42.17 C 29.65 43.79 30.20 44.34 31.82 43.82 C 32.34 42.20 31.79 41.65 30.17 42.17 M 34.17 42.17 C 33.65 43.79 34.20 44.34 35.82 43.82 C 36.34 42.20 35.79 41.65 34.17 42.17 M 38.17 42.17 C 37.65 43.79 38.20 44.34 39.82 43.82 C 40.34 42.20 39.79 41.65 38.17 42.17 M 42.17 42.17 C 41.65 43.79 42.20 44.34 43.82 43.82 C 44.34 42.20 43.79 41.65 42.17 42.17 M 46.17 42.17 C 45.65 43.79 46.20 44.34 47.82 43.82 C 48.34 42.20 47.79 41.65 46.17 42.17 M 12.17 46.17 C 11.65 47.79 12.20 48.34 13.82 47.82 C 14.34 46.20 13.79 45.65 12.17 46.17 M 16.17 46.17 C 15.65 47.79 16.20 48.34 17.82 47.82 C 18.34 46.20 17.79 45.65 16.17 46.17 M 20.17 46.17 C 19.65 47.79 20.20 48.34 21.82 47.82 C 22.34 46.20 21.79 45.65 20.17 46.17 M 24.17 46.17 C 23.65 47.79 24.20 48.34 25.82 47.82 C 26.34 46.20 25.79 45.65 24.17 46.17 M 28.17 46.17 C 27.65 47.79 28.20 48.34 29.82 47.82 C 30.34 46.20 29.79 45.65 28.17 46.17 M 32.17 46.17 C 31.65 47.79 32.20 48.34 33.82 47.82 C 34.34 46.20 33.79 45.65 32.17 46.17 M 36.17 46.17 C 35.65 47.79 36.20 48.34 37.82 47.82 C 38.34 46.20 37.79 45.65 36.17 46.17 M 40.17 46.17 C 39.65 47.79 40.20 48.34 41.82 47.82 C 42.34 46.20 41.79 45.65 40.17 46.17 M 44.17 46.17 C 43.65 47.79 44.20 48.34 45.82 47.82 C 46.34 46.20 45.79 45.65 44.17 46.17 Z" />
<path fill="#000000" opacity="1.00" d=" M 17.17 16.15 C 19.58 15.09 21.16 18.82 18.82 19.89 C 16.44 20.89 14.82 17.18 17.17 16.15 Z" />
<path fill="#000000" opacity="1.00" d=" M 25.16 16.10 C 27.58 15.14 29.14 18.78 26.83 19.88 C 24.41 20.86 22.86 17.24 25.16 16.10 Z" />
<path fill="#000000" opacity="1.00" d=" M 33.18 16.09 C 35.61 15.16 37.14 18.81 34.81 19.90 C 32.37 20.84 30.87 17.18 33.18 16.09 Z" />
<path fill="#000000" opacity="1.00" d=" M 41.18 16.10 C 43.62 15.13 45.14 18.86 42.78 19.90 C 40.36 20.85 38.89 17.16 41.18 16.10 Z" />
</g>
</svg>
