<?xml version="1.0" encoding="UTF-8" ?>
<!DOCTYPE svg PUBLIC "-//W3C//DTD SVG 1.1//EN" "http://www.w3.org/Graphics/SVG/1.1/DTD/svg11.dtd">
<svg width="60pt" height="60pt" viewBox="0 0 60 60" version="1.1" xmlns="http://www.w3.org/2000/svg">
<g id="#ffffffff">
<path fill="#ffffff" opacity="1.00" d=" M 0.00 0.00 L 60.00 0.00 L 60.00 60.00 L 0.00 60.00 L 0.00 0.00 M 22.07 7.98 C 21.83 15.06 22.17 22.15 21.94 29.23 C 20.43 35.60 17.64 41.62 16.04 47.97 C 15.79 50.04 19.12 50.85 19.74 48.79 C 22.41 43.40 24.77 37.84 27.36 32.40 C 31.10 32.40 34.85 32.40 38.60 32.40 C 41.19 39.18 43.53 46.07 46.26 52.79 C 46.74 54.37 49.17 54.34 49.77 52.85 C 50.22 51.40 49.50 49.90 49.31 48.46 C 47.83 41.89 46.52 35.29 45.04 28.72 C 44.48 25.30 41.56 22.37 38.06 22.10 C 34.56 21.86 31.05 22.05 27.54 21.99 C 26.91 17.04 26.61 12.04 25.78 7.11 C 25.05 5.20 21.80 5.91 22.07 7.98 M 10.47 22.68 C 7.24 24.39 7.23 29.55 10.44 31.28 C 13.55 33.38 18.15 30.71 18.00 27.00 C 18.16 23.31 13.59 20.64 10.47 22.68 M 30.47 36.01 C 29.73 41.36 28.63 46.67 28.08 52.05 C 27.61 54.18 31.29 54.95 31.74 52.82 C 33.59 47.28 34.97 41.59 36.63 36.00 C 34.58 36.00 32.53 36.01 30.47 36.01 Z" />
</g>
<g id="#000000ff">
<path fill="#968176" opacity="1.00" d=" M 22.07 7.98 C 21.80 5.91 25.05 5.20 25.78 7.11 C 26.61 12.04 26.91 17.04 27.54 21.99 C 31.05 22.05 34.56 21.86 38.06 22.10 C 41.56 22.37 44.48 25.30 45.04 28.72 C 46.52 35.29 47.83 41.89 49.31 48.46 C 49.50 49.90 50.22 51.40 49.77 52.85 C 49.17 54.34 46.74 54.37 46.26 52.79 C 43.53 46.07 41.19 39.18 38.60 32.40 C 34.85 32.40 31.10 32.40 27.36 32.40 C 24.77 37.84 22.41 43.40 19.74 48.79 C 19.12 50.85 15.79 50.04 16.04 47.97 C 17.64 41.62 20.43 35.60 21.94 29.23 C 22.17 22.15 21.83 15.06 22.07 7.98 Z" />
<path fill="#968176" opacity="1.00" d=" M 10.47 22.68 C 13.59 20.64 18.16 23.31 18.00 27.00 C 18.15 30.71 13.55 33.38 10.44 31.28 C 7.23 29.55 7.24 24.39 10.47 22.68 Z" />
<path fill="#968176" opacity="1.00" d=" M 30.47 36.01 C 32.53 36.01 34.58 36.00 36.63 36.00 C 34.97 41.59 33.59 47.28 31.74 52.82 C 31.29 54.95 27.61 54.18 28.08 52.05 C 28.63 46.67 29.73 41.36 30.47 36.01 Z" />
</g>
</svg>
