<?xml version="1.0" encoding="UTF-8" ?>
<!DOCTYPE svg PUBLIC "-//W3C//DTD SVG 1.1//EN" "http://www.w3.org/Graphics/SVG/1.1/DTD/svg11.dtd">
<svg width="60pt" height="60pt" viewBox="0 0 60 60" version="1.1" xmlns="http://www.w3.org/2000/svg">
<g id="#ffffffff">
<path fill="#ffffff" opacity="1.00" d=" M 0.00 0.00 L 60.00 0.00 L 60.00 46.02 C 58.26 46.02 56.51 46.03 54.77 46.04 C 56.77 41.63 55.81 36.70 56.00 32.03 C 55.86 26.32 56.29 20.59 55.81 14.90 C 55.44 11.69 52.11 9.70 49.06 10.01 C 36.35 9.99 23.65 9.99 10.95 10.01 C 7.52 9.60 3.97 12.24 4.08 15.83 C 3.84 23.56 4.11 31.30 3.96 39.03 C 3.83 41.45 4.28 43.83 5.22 46.05 C 3.48 46.03 1.74 46.01 0.00 46.00 L 0.00 0.00 Z" />
<path fill="#ffffff" opacity="1.00" d=" M 9.13 14.17 C 22.07 13.76 35.05 14.14 48.01 13.98 C 49.47 13.97 52.08 13.81 51.92 15.98 C 52.06 24.67 52.06 33.38 51.92 42.07 C 52.05 44.19 49.48 44.01 48.05 44.02 C 35.36 43.93 22.67 44.12 9.99 43.93 C 7.83 44.07 7.97 41.53 7.98 40.07 C 8.14 31.74 7.74 23.39 8.19 15.07 C 8.42 14.85 8.89 14.39 9.13 14.17 M 12.84 25.39 C 14.61 26.90 16.55 28.34 17.64 30.46 C 18.98 32.62 19.90 35.76 22.91 35.96 C 25.76 36.48 27.21 33.68 29.10 32.18 C 31.97 31.33 32.74 35.18 35.17 35.78 C 37.55 36.58 40.16 35.15 41.03 32.86 C 42.41 29.89 44.47 27.34 47.16 25.46 C 46.39 24.48 45.63 23.50 44.87 22.52 C 35.78 27.21 24.28 27.25 15.20 22.52 C 14.41 23.48 13.62 24.44 12.84 25.39 Z" />
<path fill="#ffffff" opacity="1.00" d=" M 23.18 28.10 C 25.62 27.13 27.15 30.87 24.78 31.89 C 22.35 32.85 20.89 29.17 23.18 28.10 Z" />
<path fill="#ffffff" opacity="1.00" d=" M 35.17 28.09 C 37.60 27.16 39.12 30.76 36.84 31.88 C 34.43 32.91 32.86 29.21 35.17 28.09 Z" />
<path fill="#ffffff" opacity="1.00" d=" M 0.00 46.83 C 0.64 50.10 3.65 52.39 6.99 51.99 C 22.68 51.96 38.39 52.10 54.08 51.93 C 57.08 52.08 59.30 49.63 60.00 46.92 L 60.00 60.00 L 0.00 60.00 L 0.00 46.83 Z" />
</g>
<g id="#000000ff">
<path fill="#000000" opacity="1.00" d=" M 4.08 15.83 C 3.97 12.24 7.52 9.60 10.95 10.01 C 23.65 9.99 36.35 9.99 49.06 10.01 C 52.11 9.70 55.44 11.69 55.81 14.90 C 56.29 20.59 55.86 26.32 56.00 32.03 C 55.81 36.70 56.77 41.63 54.77 46.04 C 56.51 46.03 58.26 46.02 60.00 46.02 L 60.00 46.92 C 59.30 49.63 57.08 52.08 54.08 51.93 C 38.39 52.10 22.68 51.96 6.99 51.99 C 3.65 52.39 0.64 50.10 0.00 46.83 L 0.00 46.00 C 1.74 46.01 3.48 46.03 5.22 46.05 C 4.28 43.83 3.83 41.45 3.96 39.03 C 4.11 31.30 3.84 23.56 4.08 15.83 M 9.13 14.17 C 8.89 14.39 8.42 14.85 8.19 15.07 C 7.74 23.39 8.14 31.74 7.98 40.07 C 7.97 41.53 7.83 44.07 9.99 43.93 C 22.67 44.12 35.36 43.93 48.05 44.02 C 49.48 44.01 52.05 44.19 51.92 42.07 C 52.06 33.38 52.06 24.67 51.92 15.98 C 52.08 13.81 49.47 13.97 48.01 13.98 C 35.05 14.14 22.07 13.76 9.13 14.17 Z" />
<path fill="#000000" opacity="1.00" d=" M 12.84 25.39 C 13.62 24.44 14.41 23.48 15.20 22.52 C 24.28 27.25 35.78 27.21 44.87 22.52 C 45.63 23.50 46.39 24.48 47.16 25.46 C 44.47 27.34 42.41 29.89 41.03 32.86 C 40.16 35.15 37.55 36.58 35.17 35.78 C 32.74 35.18 31.97 31.33 29.10 32.18 C 27.21 33.68 25.76 36.48 22.91 35.96 C 19.90 35.76 18.98 32.62 17.64 30.46 C 16.55 28.34 14.61 26.90 12.84 25.39 M 23.18 28.10 C 20.89 29.17 22.35 32.85 24.78 31.89 C 27.15 30.87 25.62 27.13 23.18 28.10 M 35.17 28.09 C 32.86 29.21 34.43 32.91 36.84 31.88 C 39.12 30.76 37.60 27.16 35.17 28.09 Z" />
</g>
</svg>
