<?xml version="1.0" encoding="UTF-8" ?>
<!DOCTYPE svg PUBLIC "-//W3C//DTD SVG 1.1//EN" "http://www.w3.org/Graphics/SVG/1.1/DTD/svg11.dtd">
<svg width="60pt" height="60pt" viewBox="0 0 60 60" version="1.1" xmlns="http://www.w3.org/2000/svg">
<g id="#ffffffff">
<path fill="#ffffff" opacity="1.00" d=" M 0.00 0.00 L 60.00 0.00 L 60.00 39.71 C 57.83 37.61 54.76 38.00 52.00 37.88 C 51.92 31.93 52.14 25.97 51.94 20.03 C 52.04 17.87 50.16 15.91 47.98 16.06 C 36.31 15.92 24.62 16.02 12.94 16.01 C 10.53 15.68 7.90 17.41 8.06 20.02 C 7.86 25.97 8.08 31.93 8.00 37.89 C 5.24 38.00 2.16 37.60 0.00 39.71 L 0.00 0.00 Z" />
<path fill="#ffffff" opacity="1.00" d=" M 0.00 42.15 C 1.08 43.16 2.34 44.18 3.93 43.98 C 21.31 44.02 38.69 44.02 56.07 43.98 C 57.67 44.18 58.92 43.16 60.00 42.14 L 60.00 60.00 L 0.00 60.00 L 0.00 42.15 Z" />
</g>
<g id="#000000ff">
<path fill="#000000" opacity="1.00" d=" M 8.06 20.02 C 7.90 17.41 10.53 15.68 12.94 16.01 C 24.62 16.02 36.31 15.92 47.98 16.06 C 50.16 15.91 52.04 17.87 51.94 20.03 C 52.14 25.97 51.92 31.93 52.00 37.88 C 54.76 38.00 57.83 37.61 60.00 39.71 L 60.00 42.14 C 58.92 43.16 57.67 44.18 56.07 43.98 C 38.69 44.02 21.31 44.02 3.93 43.98 C 2.34 44.18 1.08 43.16 0.00 42.15 L 0.00 39.71 C 2.16 37.60 5.24 38.00 8.00 37.89 C 8.08 31.93 7.86 25.97 8.06 20.02 Z" />
</g>
</svg>
