<?xml version="1.0" encoding="UTF-8" ?>
<!DOCTYPE svg PUBLIC "-//W3C//DTD SVG 1.1//EN" "http://www.w3.org/Graphics/SVG/1.1/DTD/svg11.dtd">
<svg width="60pt" height="60pt" viewBox="0 0 60 60" version="1.1" xmlns="http://www.w3.org/2000/svg">
<g id="#ffffffff">
<path fill="#ffffff" opacity="1.00" d=" M 0.00 0.00 L 60.00 0.00 L 60.00 60.00 L 0.00 60.00 L 0.00 0.00 M 3.98 16.97 C 4.31 20.42 3.26 24.31 4.66 27.48 C 8.24 29.61 8.26 24.22 8.07 22.00 C 8.54 22.00 9.47 22.00 9.94 22.00 C 10.23 23.94 9.33 26.53 11.15 27.90 C 12.46 28.33 14.03 27.50 13.91 26.00 C 14.09 22.00 14.08 17.99 13.92 13.99 C 14.07 12.49 12.46 11.65 11.16 12.07 C 9.29 13.43 10.24 16.05 9.94 18.00 C 9.47 18.00 8.53 18.00 8.06 18.00 C 7.75 16.05 8.73 13.38 6.80 12.07 C 3.74 11.25 3.86 14.99 3.98 16.97 M 18.79 13.39 C 17.75 17.53 16.75 21.70 16.11 25.91 C 15.57 27.65 18.37 28.84 19.35 27.45 C 20.36 25.71 20.52 23.64 21.00 21.71 C 21.60 23.80 21.55 26.27 23.09 27.96 C 24.39 28.35 26.21 27.55 25.90 25.97 C 25.29 21.76 24.24 17.61 23.23 13.48 C 22.76 11.43 19.33 11.37 18.79 13.39 M 28.08 13.94 C 27.95 18.25 27.82 22.59 28.18 26.89 C 30.02 28.83 36.69 29.05 35.90 25.09 C 34.95 23.91 33.32 24.11 31.99 23.79 C 31.94 20.22 32.22 16.63 31.81 13.07 C 30.96 11.27 27.91 11.85 28.08 13.94 M 38.08 13.97 C 37.96 18.25 37.82 22.56 38.17 26.84 C 39.15 28.59 41.45 27.89 43.08 28.02 C 44.39 28.14 46.03 27.55 46.03 25.98 C 45.96 23.85 43.45 24.14 41.99 23.79 C 41.93 20.23 42.23 16.66 41.81 13.12 C 41.06 11.22 37.84 11.87 38.08 13.97 M 50.50 12.68 C 47.16 14.57 48.07 18.93 47.99 22.12 C 47.44 26.10 52.82 29.67 56.04 26.94 C 59.01 24.54 57.84 20.21 57.95 16.89 C 58.08 13.25 53.56 10.68 50.50 12.68 M 6.10 36.00 C 6.56 39.46 7.71 42.78 8.46 46.17 C 8.97 47.65 8.99 49.86 10.97 50.08 C 13.36 49.72 13.19 46.79 14.00 45.02 C 14.48 46.53 14.88 48.08 15.60 49.49 C 16.57 50.35 18.43 50.12 18.76 48.74 C 20.00 44.56 21.17 40.31 21.90 36.00 C 22.27 34.32 19.66 33.31 18.64 34.53 C 17.62 36.31 17.37 38.41 16.89 40.38 C 16.23 38.96 16.14 37.06 14.78 36.09 C 12.10 35.30 11.87 38.69 11.10 40.36 C 10.66 38.39 10.34 36.34 9.41 34.53 C 8.33 33.31 5.70 34.25 6.10 36.00 M 24.17 35.17 C 23.86 39.72 23.86 44.31 24.18 48.86 C 25.18 50.60 27.49 49.88 29.13 50.02 C 30.46 50.14 32.00 49.52 32.05 47.99 C 31.90 45.71 29.15 46.16 27.62 45.72 C 28.46 44.25 29.58 42.94 30.13 41.32 C 29.11 40.47 28.07 39.59 27.62 38.30 C 29.59 38.36 33.46 37.29 31.48 34.67 C 29.46 33.71 25.77 33.20 24.17 35.17 M 34.18 35.11 C 33.86 39.70 33.86 44.33 34.18 48.91 C 36.05 50.79 42.59 51.06 41.92 47.16 C 40.92 45.77 39.03 46.14 37.60 45.71 C 38.35 44.43 39.38 43.33 39.99 41.97 C 39.36 40.64 38.35 39.55 37.59 38.30 C 39.39 38.06 42.80 37.90 41.89 35.14 C 40.07 33.38 35.97 33.29 34.18 35.11 M 44.08 35.95 C 43.92 39.97 43.91 44.01 44.09 48.02 C 43.95 49.52 45.58 50.31 46.85 49.91 C 48.49 48.64 47.88 46.34 48.14 44.54 C 48.92 46.19 49.58 47.93 50.64 49.42 C 51.71 50.74 54.17 49.67 53.92 47.99 C 54.08 43.97 54.08 39.93 53.92 35.92 C 54.06 34.42 52.39 33.69 51.14 34.08 C 49.39 35.30 50.23 37.70 49.89 39.49 C 49.00 37.62 48.30 35.58 46.84 34.07 C 45.60 33.74 43.89 34.45 44.08 35.95 Z" />
<path fill="#ffffff" opacity="1.00" d=" M 52.04 16.14 C 52.53 16.16 53.50 16.19 53.98 16.21 C 53.99 18.75 54.00 21.30 53.96 23.84 C 53.47 23.83 52.49 23.79 52.00 23.77 C 52.00 21.23 52.00 18.69 52.04 16.14 Z" />
</g>
<g id="#000000ff">
<path fill="#000000" opacity="1.00" d=" M 3.98 16.97 C 3.86 14.99 3.74 11.25 6.80 12.07 C 8.73 13.38 7.75 16.05 8.06 18.00 C 8.53 18.00 9.47 18.00 9.94 18.00 C 10.24 16.05 9.29 13.43 11.16 12.07 C 12.46 11.65 14.07 12.49 13.92 13.99 C 14.08 17.99 14.09 22.00 13.91 26.00 C 14.03 27.50 12.46 28.33 11.15 27.90 C 9.33 26.53 10.23 23.94 9.94 22.00 C 9.47 22.00 8.54 22.00 8.07 22.00 C 8.26 24.22 8.24 29.61 4.66 27.48 C 3.26 24.31 4.31 20.42 3.98 16.97 Z" />
<path fill="#000000" opacity="1.00" d=" M 18.79 13.39 C 19.33 11.37 22.76 11.43 23.23 13.48 C 24.24 17.61 25.29 21.76 25.90 25.97 C 26.21 27.55 24.39 28.35 23.09 27.96 C 21.55 26.27 21.60 23.80 21.00 21.71 C 20.52 23.64 20.36 25.71 19.35 27.45 C 18.37 28.84 15.57 27.65 16.11 25.91 C 16.75 21.70 17.75 17.53 18.79 13.39 Z" />
<path fill="#000000" opacity="1.00" d=" M 28.08 13.94 C 27.91 11.85 30.96 11.27 31.81 13.07 C 32.22 16.63 31.94 20.22 31.99 23.79 C 33.32 24.11 34.95 23.91 35.90 25.09 C 36.69 29.05 30.02 28.83 28.18 26.89 C 27.82 22.59 27.95 18.25 28.08 13.94 Z" />
<path fill="#000000" opacity="1.00" d=" M 38.08 13.97 C 37.84 11.87 41.06 11.22 41.81 13.12 C 42.23 16.66 41.93 20.23 41.99 23.79 C 43.45 24.14 45.96 23.85 46.03 25.98 C 46.03 27.55 44.39 28.14 43.08 28.02 C 41.45 27.89 39.15 28.59 38.17 26.84 C 37.82 22.56 37.96 18.25 38.08 13.97 Z" />
<path fill="#000000" opacity="1.00" d=" M 50.50 12.68 C 53.56 10.68 58.08 13.25 57.95 16.89 C 57.84 20.21 59.01 24.54 56.04 26.94 C 52.82 29.67 47.44 26.10 47.99 22.12 C 48.07 18.93 47.16 14.57 50.50 12.68 M 52.04 16.14 C 52.00 18.69 52.00 21.23 52.00 23.77 C 52.49 23.79 53.47 23.83 53.96 23.84 C 54.00 21.30 53.99 18.75 53.98 16.21 C 53.50 16.19 52.53 16.16 52.04 16.14 Z" />
<path fill="#000000" opacity="1.00" d=" M 6.10 36.00 C 5.70 34.25 8.33 33.31 9.41 34.53 C 10.34 36.34 10.66 38.39 11.10 40.36 C 11.87 38.69 12.10 35.30 14.78 36.09 C 16.14 37.06 16.23 38.96 16.89 40.38 C 17.37 38.41 17.62 36.31 18.64 34.53 C 19.66 33.31 22.27 34.32 21.90 36.00 C 21.17 40.31 20.00 44.56 18.76 48.74 C 18.43 50.12 16.57 50.35 15.60 49.49 C 14.88 48.08 14.48 46.53 14.00 45.02 C 13.19 46.79 13.36 49.72 10.97 50.08 C 8.99 49.86 8.97 47.65 8.46 46.17 C 7.71 42.78 6.56 39.46 6.10 36.00 Z" />
<path fill="#000000" opacity="1.00" d=" M 24.17 35.17 C 25.77 33.20 29.46 33.71 31.48 34.67 C 33.46 37.29 29.59 38.36 27.62 38.30 C 28.07 39.59 29.11 40.47 30.13 41.32 C 29.58 42.94 28.46 44.25 27.62 45.72 C 29.15 46.16 31.90 45.71 32.05 47.99 C 32.00 49.52 30.46 50.14 29.13 50.02 C 27.49 49.88 25.18 50.60 24.18 48.86 C 23.86 44.31 23.86 39.72 24.17 35.17 Z" />
<path fill="#000000" opacity="1.00" d=" M 34.18 35.11 C 35.97 33.29 40.07 33.38 41.89 35.14 C 42.80 37.90 39.39 38.06 37.59 38.30 C 38.35 39.55 39.36 40.64 39.99 41.97 C 39.38 43.33 38.35 44.43 37.60 45.71 C 39.03 46.14 40.92 45.77 41.92 47.16 C 42.59 51.06 36.05 50.79 34.18 48.91 C 33.86 44.33 33.86 39.70 34.18 35.11 Z" />
<path fill="#000000" opacity="1.00" d=" M 44.08 35.95 C 43.89 34.45 45.60 33.74 46.84 34.07 C 48.30 35.58 49.00 37.62 49.89 39.49 C 50.23 37.70 49.39 35.30 51.14 34.08 C 52.39 33.69 54.06 34.42 53.92 35.92 C 54.08 39.93 54.08 43.97 53.92 47.99 C 54.17 49.67 51.71 50.74 50.64 49.42 C 49.58 47.93 48.92 46.19 48.14 44.54 C 47.88 46.34 48.49 48.64 46.85 49.91 C 45.58 50.31 43.95 49.52 44.09 48.02 C 43.91 44.01 43.92 39.97 44.08 35.95 Z" />
</g>
</svg>
