<?xml version="1.0" encoding="UTF-8" ?>
<!DOCTYPE svg PUBLIC "-//W3C//DTD SVG 1.1//EN" "http://www.w3.org/Graphics/SVG/1.1/DTD/svg11.dtd">
<svg width="60pt" height="60pt" viewBox="0 0 60 60" version="1.1" xmlns="http://www.w3.org/2000/svg">
<g id="#ffffffff">
<path fill="#ffffff" opacity="1.00" d=" M 0.00 0.00 L 60.00 0.00 L 60.00 60.00 L 0.00 60.00 L 0.00 0.00 M 27.18 7.20 C 19.45 9.89 13.90 17.74 14.01 25.94 C 13.87 30.60 15.79 35.00 18.49 38.69 C 14.41 42.91 10.03 46.85 6.14 51.25 C 5.22 53.21 7.92 54.91 9.34 53.40 C 13.44 49.57 17.29 45.47 21.29 41.52 C 24.72 43.95 28.66 45.85 32.93 45.96 C 40.96 46.50 48.95 41.62 52.19 34.28 C 55.54 27.15 54.09 18.12 48.66 12.42 C 43.40 6.58 34.54 4.43 27.18 7.20 Z" />
<path fill="#ffffff" opacity="1.00" d=" M 23.04 14.28 C 26.32 11.46 30.48 9.88 34.81 9.89 C 36.48 14.50 36.11 19.56 34.49 24.12 C 34.22 24.31 33.68 24.67 33.41 24.86 C 31.58 20.10 27.90 16.03 23.04 14.28 Z" />
<path fill="#ffffff" opacity="1.00" d=" M 34.16 26.12 C 39.10 23.75 43.93 20.41 45.78 14.98 C 48.47 18.36 50.08 22.48 50.11 26.83 C 44.90 28.83 39.31 27.66 34.16 26.12 Z" />
<path fill="#ffffff" opacity="1.00" d=" M 17.89 25.19 C 22.40 23.56 27.37 23.84 31.85 25.43 C 32.08 25.73 32.52 26.31 32.75 26.60 C 28.07 28.51 23.55 32.20 22.43 37.35 C 19.68 33.87 17.84 29.69 17.89 25.19 Z" />
<path fill="#ffffff" opacity="1.00" d=" M 32.46 31.91 C 32.88 30.25 32.66 27.88 34.58 27.14 C 36.46 31.93 40.16 36.11 45.14 37.75 C 41.69 40.39 37.57 42.10 33.17 42.11 C 32.09 38.82 31.70 35.32 32.46 31.91 Z" />
</g>
<g id="#000000ff">
<path fill="#000000" opacity="1.00" d=" M 27.18 7.20 C 34.54 4.43 43.40 6.58 48.66 12.42 C 54.09 18.12 55.54 27.15 52.19 34.28 C 48.95 41.62 40.96 46.50 32.93 45.96 C 28.66 45.85 24.72 43.95 21.29 41.52 C 17.29 45.47 13.44 49.57 9.34 53.40 C 7.92 54.91 5.22 53.21 6.14 51.25 C 10.03 46.85 14.41 42.91 18.49 38.69 C 15.79 35.00 13.87 30.60 14.01 25.94 C 13.90 17.74 19.45 9.89 27.18 7.20 M 23.04 14.28 C 27.90 16.03 31.58 20.10 33.41 24.86 C 33.68 24.67 34.22 24.31 34.49 24.12 C 36.11 19.56 36.48 14.50 34.81 9.89 C 30.48 9.88 26.32 11.46 23.04 14.28 M 34.16 26.12 C 39.31 27.66 44.90 28.83 50.11 26.83 C 50.08 22.48 48.47 18.36 45.78 14.98 C 43.93 20.41 39.10 23.75 34.16 26.12 M 17.89 25.19 C 17.84 29.69 19.68 33.87 22.43 37.35 C 23.55 32.20 28.07 28.51 32.75 26.60 C 32.52 26.31 32.08 25.73 31.85 25.43 C 27.37 23.84 22.40 23.56 17.89 25.19 M 32.46 31.91 C 31.70 35.32 32.09 38.82 33.17 42.11 C 37.57 42.10 41.69 40.39 45.14 37.75 C 40.16 36.11 36.46 31.93 34.58 27.14 C 32.66 27.88 32.88 30.25 32.46 31.91 Z" />
</g>
</svg>
