<?xml version="1.0" encoding="UTF-8" ?>
<!DOCTYPE svg PUBLIC "-//W3C//DTD SVG 1.1//EN" "http://www.w3.org/Graphics/SVG/1.1/DTD/svg11.dtd">
<svg width="60pt" height="60pt" viewBox="0 0 60 60" version="1.1" xmlns="http://www.w3.org/2000/svg">
<g id="#ffffffff">
<path fill="#ffffff" opacity="1.00" d=" M 0.00 0.00 L 60.00 0.00 L 60.00 60.00 L 0.00 60.00 L 0.00 0.00 M 17.84 7.75 C 10.87 12.59 9.65 21.76 9.96 29.61 C 8.83 30.40 7.66 31.32 7.99 32.90 C 7.55 36.94 8.51 41.54 12.40 43.60 C 15.46 50.49 22.09 56.26 29.97 55.97 C 37.82 56.27 44.52 50.56 47.52 43.65 C 49.82 42.21 51.74 39.97 51.88 37.14 C 51.91 34.56 52.96 30.99 50.03 29.61 C 49.97 23.49 50.10 16.82 46.59 11.51 C 45.23 9.23 42.64 8.30 40.17 7.81 C 34.21 2.02 24.23 3.41 17.84 7.75 Z" />
<path fill="#ffffff" opacity="1.00" d=" M 22.03 23.90 C 25.15 23.99 27.65 21.88 30.00 20.13 C 32.36 21.85 34.82 23.99 37.93 23.90 C 39.96 24.16 42.46 23.40 44.09 24.99 C 46.02 27.55 45.76 30.96 46.05 33.99 C 46.57 34.00 47.60 34.01 48.12 34.02 C 48.30 36.83 47.52 39.75 44.49 40.57 C 42.32 46.68 36.88 52.24 29.99 51.99 C 23.11 52.24 17.66 46.69 15.52 40.57 C 12.48 39.76 11.69 36.83 11.88 34.02 C 12.40 34.01 13.43 34.00 13.95 33.99 C 14.24 30.95 13.99 27.54 15.93 24.96 C 17.57 23.41 20.02 24.15 22.03 23.90 M 26.38 32.34 C 24.66 35.42 28.47 39.26 31.57 37.65 C 33.56 36.90 33.95 34.67 34.18 32.82 C 32.02 33.56 30.38 32.00 31.18 29.82 C 29.35 30.05 27.17 30.40 26.38 32.34 M 24.09 43.20 C 23.54 47.38 29.14 45.65 31.64 46.03 C 32.45 47.10 33.26 48.43 34.83 47.90 C 37.01 46.38 36.47 41.24 33.08 42.01 C 30.18 42.40 26.30 40.87 24.09 43.20 Z" />
</g>
<g id="#000000ff">
<path fill="#968176" opacity="1.00" d=" M 17.84 7.75 C 24.23 3.41 34.21 2.02 40.17 7.81 C 42.64 8.30 45.23 9.23 46.59 11.51 C 50.10 16.82 49.97 23.49 50.03 29.61 C 52.96 30.99 51.91 34.56 51.88 37.14 C 51.74 39.97 49.82 42.21 47.52 43.65 C 44.52 50.56 37.82 56.27 29.97 55.97 C 22.09 56.26 15.46 50.49 12.40 43.60 C 8.51 41.54 7.55 36.94 7.99 32.90 C 7.66 31.32 8.83 30.40 9.96 29.61 C 9.65 21.76 10.87 12.59 17.84 7.75 M 22.03 23.90 C 20.02 24.15 17.57 23.41 15.93 24.96 C 13.99 27.54 14.24 30.95 13.95 33.99 C 13.43 34.00 12.40 34.01 11.88 34.02 C 11.69 36.83 12.48 39.76 15.52 40.57 C 17.66 46.69 23.11 52.24 29.99 51.99 C 36.88 52.24 42.32 46.68 44.49 40.57 C 47.52 39.75 48.30 36.83 48.12 34.02 C 47.60 34.01 46.57 34.00 46.05 33.99 C 45.76 30.96 46.02 27.55 44.09 24.99 C 42.46 23.40 39.96 24.16 37.93 23.90 C 34.82 23.99 32.36 21.85 30.00 20.13 C 27.65 21.88 25.15 23.99 22.03 23.90 Z" />
<path fill="#968176" opacity="1.00" d=" M 26.38 32.34 C 27.17 30.40 29.35 30.05 31.18 29.82 C 30.38 32.00 32.02 33.56 34.18 32.82 C 33.95 34.67 33.56 36.90 31.57 37.65 C 28.47 39.26 24.66 35.42 26.38 32.34 Z" />
<path fill="#968176" opacity="1.00" d=" M 24.09 43.20 C 26.30 40.87 30.18 42.40 33.08 42.01 C 36.47 41.24 37.01 46.38 34.83 47.90 C 33.26 48.43 32.45 47.10 31.64 46.03 C 29.14 45.65 23.54 47.38 24.09 43.20 Z" />
</g>
</svg>
