<?xml version="1.0" encoding="UTF-8" ?>
<!DOCTYPE svg PUBLIC "-//W3C//DTD SVG 1.1//EN" "http://www.w3.org/Graphics/SVG/1.1/DTD/svg11.dtd">
<svg width="60pt" height="60pt" viewBox="0 0 60 60" version="1.1" xmlns="http://www.w3.org/2000/svg">
<g id="#ffffffff">
<path fill="#ffffff" opacity="1.00" d=" M 0.00 0.00 L 60.00 0.00 L 60.00 60.00 L 0.00 60.00 L 0.00 0.00 M 8.44 8.71 C 5.21 10.45 5.25 15.63 8.50 17.32 C 11.61 19.34 16.10 16.70 16.01 13.05 C 16.18 9.32 11.57 6.60 8.44 8.71 M 45.70 12.32 C 42.74 13.13 39.88 14.29 36.90 14.98 C 31.48 14.28 26.60 17.32 21.47 18.58 C 18.39 19.88 14.01 19.88 12.48 23.38 C 10.97 26.82 13.95 29.82 15.52 32.60 C 18.00 35.89 19.25 39.89 19.72 43.95 C 18.95 46.85 16.79 49.16 15.94 52.05 C 16.07 53.67 18.18 54.75 19.36 53.40 C 20.77 51.34 21.82 49.06 23.00 46.86 C 24.66 44.17 23.82 40.88 24.01 37.90 C 26.98 43.01 29.49 48.40 32.65 53.39 C 34.35 55.45 37.26 52.42 35.50 50.61 C 30.71 42.13 26.34 33.44 22.49 24.49 C 30.45 20.99 37.77 16.04 46.38 14.20 C 48.05 15.86 50.94 16.85 52.76 14.83 C 55.40 12.63 53.45 7.88 50.07 8.00 C 47.57 7.83 46.25 10.25 45.70 12.32 Z" />
</g>
<g id="#000000ff">
<path fill="#000000" opacity="1.00" d=" M 8.44 8.71 C 11.57 6.60 16.18 9.32 16.01 13.05 C 16.10 16.70 11.61 19.34 8.50 17.32 C 5.25 15.63 5.21 10.45 8.44 8.71 Z" />
<path fill="#000000" opacity="1.00" d=" M 45.70 12.32 C 46.25 10.25 47.57 7.83 50.07 8.00 C 53.45 7.88 55.40 12.63 52.76 14.83 C 50.94 16.85 48.05 15.86 46.38 14.20 C 37.77 16.04 30.45 20.99 22.49 24.49 C 26.34 33.44 30.71 42.13 35.50 50.61 C 37.26 52.42 34.35 55.45 32.65 53.39 C 29.49 48.40 26.98 43.01 24.01 37.90 C 23.82 40.88 24.66 44.17 23.00 46.86 C 21.82 49.06 20.77 51.34 19.36 53.40 C 18.18 54.75 16.07 53.67 15.94 52.05 C 16.79 49.16 18.95 46.85 19.72 43.95 C 19.25 39.89 18.00 35.89 15.52 32.60 C 13.95 29.82 10.97 26.82 12.48 23.38 C 14.01 19.88 18.39 19.88 21.47 18.58 C 26.60 17.32 31.48 14.28 36.90 14.98 C 39.88 14.29 42.74 13.13 45.70 12.32 Z" />
</g>
</svg>
