<?xml version="1.0" encoding="UTF-8" ?>
<!DOCTYPE svg PUBLIC "-//W3C//DTD SVG 1.1//EN" "http://www.w3.org/Graphics/SVG/1.1/DTD/svg11.dtd">
<svg width="64pt" height="64pt" viewBox="0 0 64 64" version="1.1" xmlns="http://www.w3.org/2000/svg">
<g id="#ffffffff">
<path fill="#ffffff" opacity="1.00" d=" M 0.00 0.00 L 64.00 0.00 L 64.00 64.00 L 0.00 64.00 L 0.00 0.00 M 16.15 6.06 C 15.60 10.70 15.32 15.37 14.59 19.99 C 14.23 22.81 12.00 25.05 12.01 27.95 C 11.84 31.28 12.00 34.61 12.03 37.94 C 14.68 37.98 17.34 38.02 19.99 38.06 C 20.02 44.70 19.98 51.34 20.02 57.98 C 28.01 58.02 35.99 58.02 43.98 57.98 C 44.02 51.34 43.98 44.70 44.01 38.06 C 46.66 38.02 49.32 37.98 51.98 37.94 C 51.84 33.79 52.60 29.49 51.50 25.45 C 48.18 19.55 48.87 12.54 47.84 6.06 C 37.28 5.95 26.72 5.95 16.15 6.06 Z" />
<path fill="#ffffff" opacity="1.00" d=" M 19.86 10.06 C 27.95 9.95 36.04 9.95 44.14 10.06 C 44.68 14.09 45.02 18.13 45.53 22.16 C 45.93 26.20 48.17 29.78 48.26 33.88 C 45.53 33.97 42.79 34.02 40.05 34.06 C 40.02 36.70 39.98 39.34 39.94 41.98 C 34.65 42.03 29.35 42.03 24.06 41.98 C 24.02 39.34 23.98 36.70 23.95 34.06 C 21.21 34.02 18.48 33.97 15.74 33.88 C 15.83 29.78 18.07 26.20 18.47 22.17 C 18.97 18.14 19.31 14.09 19.86 10.06 M 20.00 20.03 C 20.00 22.64 20.00 25.26 20.00 27.88 C 21.99 27.96 23.99 28.03 25.98 28.11 C 25.99 31.40 26.01 34.70 26.03 37.99 C 30.01 38.02 33.99 38.02 37.96 37.99 C 37.99 34.70 38.01 31.40 38.02 28.11 C 40.01 28.03 42.01 27.96 44.00 27.88 C 44.00 25.26 44.00 22.65 44.00 20.03 C 36.00 19.97 28.00 19.97 20.00 20.03 Z" />
<path fill="#ffffff" opacity="1.00" d=" M 30.02 23.99 C 31.34 23.99 32.66 24.00 33.98 24.00 C 34.00 27.33 34.00 30.67 33.98 34.00 C 32.66 34.00 31.34 34.00 30.02 34.00 C 30.00 30.67 30.00 27.33 30.02 23.99 Z" />
<path fill="#ffffff" opacity="1.00" d=" M 24.00 46.03 C 29.33 45.96 34.67 45.96 40.00 46.03 C 40.00 48.68 40.00 51.32 40.00 53.97 C 34.67 54.04 29.33 54.04 24.00 53.97 C 24.00 51.32 24.00 48.68 24.00 46.03 Z" />
</g>
<g id="#000000ff">
<path fill="#000000" opacity="1.00" d=" M 16.15 6.06 C 26.72 5.95 37.28 5.95 47.84 6.06 C 48.87 12.54 48.18 19.55 51.50 25.45 C 52.60 29.49 51.84 33.79 51.98 37.94 C 49.32 37.98 46.66 38.02 44.01 38.06 C 43.98 44.70 44.02 51.34 43.98 57.98 C 35.99 58.02 28.01 58.02 20.02 57.98 C 19.98 51.34 20.02 44.70 19.99 38.06 C 17.34 38.02 14.68 37.98 12.03 37.94 C 12.00 34.61 11.84 31.28 12.01 27.95 C 12.00 25.05 14.23 22.81 14.59 19.99 C 15.32 15.37 15.60 10.70 16.15 6.06 M 19.86 10.06 C 19.31 14.09 18.97 18.14 18.47 22.17 C 18.07 26.20 15.83 29.78 15.74 33.88 C 18.48 33.97 21.21 34.02 23.95 34.06 C 23.98 36.70 24.02 39.34 24.06 41.98 C 29.35 42.03 34.65 42.03 39.94 41.98 C 39.98 39.34 40.02 36.70 40.05 34.06 C 42.79 34.02 45.53 33.97 48.26 33.88 C 48.17 29.78 45.93 26.20 45.53 22.16 C 45.02 18.13 44.68 14.09 44.14 10.06 C 36.04 9.95 27.95 9.95 19.86 10.06 M 24.00 46.03 C 24.00 48.68 24.00 51.32 24.00 53.97 C 29.33 54.04 34.67 54.04 40.00 53.97 C 40.00 51.32 40.00 48.68 40.00 46.03 C 34.67 45.96 29.33 45.96 24.00 46.03 Z" />
<path fill="#000000" opacity="1.00" d=" M 20.00 20.03 C 28.00 19.97 36.00 19.97 44.00 20.03 C 44.00 22.65 44.00 25.26 44.00 27.88 C 42.01 27.96 40.01 28.03 38.02 28.11 C 38.01 31.40 37.99 34.70 37.96 37.99 C 33.99 38.02 30.01 38.02 26.03 37.99 C 26.01 34.70 25.99 31.40 25.98 28.11 C 23.99 28.03 21.99 27.96 20.00 27.88 C 20.00 25.26 20.00 22.64 20.00 20.03 M 30.02 23.99 C 30.00 27.33 30.00 30.67 30.02 34.00 C 31.34 34.00 32.66 34.00 33.98 34.00 C 34.00 30.67 34.00 27.33 33.98 24.00 C 32.66 24.00 31.34 23.99 30.02 23.99 Z" />
</g>
</svg>
