<?xml version="1.0" encoding="UTF-8" ?>
<!DOCTYPE svg PUBLIC "-//W3C//DTD SVG 1.1//EN" "http://www.w3.org/Graphics/SVG/1.1/DTD/svg11.dtd">
<svg width="64pt" height="64pt" viewBox="0 0 64 64" version="1.1" xmlns="http://www.w3.org/2000/svg">
<g id="#ffffffff">
<path fill="#ffffff" opacity="1.00" d=" M 0.00 0.00 L 64.00 0.00 L 64.00 64.00 L 0.00 64.00 L 0.00 0.00 M 16.00 10.00 C 16.00 11.68 16.00 13.36 16.00 15.03 C 12.67 17.72 9.33 20.39 5.99 23.06 C 5.96 27.62 5.85 32.33 7.50 36.66 C 10.64 45.81 19.30 52.75 28.93 53.80 C 38.19 55.00 47.85 50.67 53.17 43.03 C 57.48 37.32 58.38 29.96 58.01 23.02 C 54.68 20.36 51.35 17.69 48.00 15.04 C 48.00 13.36 48.00 11.68 48.00 10.00 C 46.66 10.00 45.33 10.00 44.00 10.00 C 44.00 11.68 44.00 13.36 44.00 15.03 C 40.68 17.72 37.34 20.38 34.01 23.06 C 34.02 27.06 34.36 31.49 31.79 34.88 C 28.27 40.17 20.32 41.60 15.17 37.86 C 11.84 35.72 10.25 31.84 9.87 28.03 C 16.58 27.97 23.29 28.01 30.00 28.00 C 30.00 26.34 30.00 24.68 30.00 23.03 C 26.68 20.35 23.34 17.69 20.00 15.04 C 20.00 13.36 20.00 11.68 20.00 10.00 C 18.67 10.00 17.33 10.00 16.00 10.00 Z" />
<path fill="#ffffff" opacity="1.00" d=" M 11.19 24.00 C 13.48 22.20 15.75 20.40 18.01 18.57 C 20.28 20.37 22.55 22.17 24.79 23.99 C 20.26 24.00 15.73 24.00 11.19 24.00 Z" />
<path fill="#ffffff" opacity="1.00" d=" M 39.19 24.00 C 41.47 22.21 43.75 20.40 46.01 18.57 C 48.28 20.36 50.55 22.17 52.79 24.00 C 48.26 24.00 43.72 24.00 39.19 24.00 Z" />
<path fill="#ffffff" opacity="1.00" d=" M 38.13 28.00 C 43.45 28.00 48.77 27.98 54.09 28.02 C 53.99 37.62 47.28 46.78 37.89 49.18 C 30.10 51.53 21.47 48.72 15.93 42.93 C 19.36 43.92 23.04 44.48 26.52 43.34 C 33.21 41.43 37.93 34.89 38.13 28.00 Z" />
</g>
<g id="#000000ff">
<path fill="#000000" opacity="1.00" d=" M 16.00 10.00 C 17.33 10.00 18.67 10.00 20.00 10.00 C 20.00 11.68 20.00 13.36 20.00 15.04 C 23.34 17.69 26.68 20.35 30.00 23.03 C 30.00 24.68 30.00 26.34 30.00 28.00 C 23.29 28.01 16.58 27.97 9.87 28.03 C 10.25 31.84 11.84 35.72 15.17 37.86 C 20.32 41.60 28.27 40.17 31.79 34.88 C 34.36 31.49 34.02 27.06 34.01 23.06 C 37.34 20.38 40.68 17.72 44.00 15.03 C 44.00 13.36 44.00 11.68 44.00 10.00 C 45.33 10.00 46.66 10.00 48.00 10.00 C 48.00 11.68 48.00 13.36 48.00 15.04 C 51.35 17.69 54.68 20.36 58.01 23.02 C 58.38 29.96 57.48 37.32 53.17 43.03 C 47.85 50.67 38.19 55.00 28.93 53.80 C 19.30 52.75 10.64 45.81 7.50 36.66 C 5.85 32.33 5.96 27.62 5.99 23.06 C 9.33 20.39 12.67 17.72 16.00 15.03 C 16.00 13.36 16.00 11.68 16.00 10.00 M 11.19 24.00 C 15.73 24.00 20.26 24.00 24.79 23.99 C 22.55 22.17 20.28 20.37 18.01 18.57 C 15.75 20.40 13.48 22.20 11.19 24.00 M 39.19 24.00 C 43.72 24.00 48.26 24.00 52.79 24.00 C 50.55 22.17 48.28 20.36 46.01 18.57 C 43.75 20.40 41.47 22.21 39.19 24.00 M 38.13 28.00 C 37.93 34.89 33.21 41.43 26.52 43.34 C 23.04 44.48 19.36 43.92 15.93 42.93 C 21.47 48.72 30.10 51.53 37.89 49.18 C 47.28 46.78 53.99 37.62 54.09 28.02 C 48.77 27.98 43.45 28.00 38.13 28.00 Z" />
</g>
</svg>
