<?xml version="1.0" encoding="UTF-8" ?>
<!DOCTYPE svg PUBLIC "-//W3C//DTD SVG 1.1//EN" "http://www.w3.org/Graphics/SVG/1.1/DTD/svg11.dtd">
<svg width="64pt" height="64pt" viewBox="0 0 64 64" version="1.1" xmlns="http://www.w3.org/2000/svg">
<g id="#ffffffff">
<path fill="#ffffff" opacity="1.00" d=" M 0.00 0.00 L 64.00 0.00 L 64.00 64.00 L 0.00 64.00 L 0.00 0.00 M 26.45 6.60 C 17.79 8.44 10.35 15.02 7.48 23.39 C 4.31 32.14 6.38 42.53 12.70 49.38 C 18.92 56.42 29.14 59.58 38.25 57.22 C 48.16 54.86 56.15 46.19 57.65 36.11 C 59.15 27.31 55.65 17.91 48.80 12.19 C 42.76 6.97 34.23 4.87 26.45 6.60 Z" />
<path fill="#ffffff" opacity="1.00" d=" M 10.23 28.90 C 11.40 19.45 19.42 11.41 28.87 10.24 C 37.78 8.81 47.21 13.57 51.37 21.57 C 55.59 29.15 54.50 38.91 49.27 45.72 C 47.59 44.71 45.97 43.60 44.43 42.40 C 48.23 37.89 50.36 31.97 49.89 26.05 C 48.30 23.34 44.92 25.75 42.83 26.51 C 41.49 25.42 39.93 24.12 38.06 24.68 C 35.46 24.95 34.38 27.51 33.63 29.64 C 28.73 28.57 23.18 26.68 18.52 29.54 C 17.53 28.69 15.71 27.12 14.57 28.60 C 12.91 30.21 15.23 32.02 16.25 33.22 C 15.76 36.31 16.12 39.44 17.60 42.23 C 16.37 43.20 14.96 43.88 13.40 44.11 C 10.99 39.45 9.35 34.19 10.23 28.90 Z" />
<path fill="#ffffff" opacity="1.00" d=" M 36.01 33.97 C 39.29 33.71 36.12 29.12 39.03 28.41 C 40.09 29.23 41.06 30.15 42.04 31.06 C 43.31 30.64 44.58 30.23 45.86 29.80 C 45.03 33.73 43.70 37.80 40.49 40.45 C 35.78 44.60 28.14 45.93 22.92 41.96 C 20.01 39.98 18.80 35.17 21.38 32.49 C 26.26 30.83 31.10 34.02 36.01 33.97 Z" />
<path fill="#ffffff" opacity="1.00" d=" M 20.32 45.16 C 26.54 49.64 35.10 49.13 41.33 44.95 C 42.93 46.33 44.61 47.62 46.36 48.81 C 40.99 53.06 33.79 55.10 27.06 53.42 C 23.06 52.62 19.59 50.34 16.48 47.81 C 17.75 46.91 19.03 46.03 20.32 45.16 Z" />
</g>
<g id="#000000ff">
<path fill="#000000" opacity="1.00" d=" M 26.45 6.60 C 34.23 4.87 42.76 6.97 48.80 12.19 C 55.65 17.91 59.15 27.31 57.65 36.11 C 56.15 46.19 48.16 54.86 38.25 57.22 C 29.14 59.58 18.92 56.42 12.70 49.38 C 6.38 42.53 4.31 32.14 7.48 23.39 C 10.35 15.02 17.79 8.44 26.45 6.60 M 10.23 28.90 C 9.35 34.19 10.99 39.45 13.40 44.11 C 14.96 43.88 16.37 43.20 17.60 42.23 C 16.12 39.44 15.76 36.31 16.25 33.22 C 15.23 32.02 12.91 30.21 14.57 28.60 C 15.71 27.12 17.53 28.69 18.52 29.54 C 23.18 26.68 28.73 28.57 33.63 29.64 C 34.38 27.51 35.46 24.95 38.06 24.68 C 39.93 24.12 41.49 25.42 42.83 26.51 C 44.92 25.75 48.30 23.34 49.89 26.05 C 50.36 31.97 48.23 37.89 44.43 42.40 C 45.97 43.60 47.59 44.71 49.27 45.72 C 54.50 38.91 55.59 29.15 51.37 21.57 C 47.21 13.57 37.78 8.81 28.87 10.24 C 19.42 11.41 11.40 19.45 10.23 28.90 M 36.01 33.97 C 31.10 34.02 26.26 30.83 21.38 32.49 C 18.80 35.17 20.01 39.98 22.92 41.96 C 28.14 45.93 35.78 44.60 40.49 40.45 C 43.70 37.80 45.03 33.73 45.86 29.80 C 44.58 30.23 43.31 30.64 42.04 31.06 C 41.06 30.15 40.09 29.23 39.03 28.41 C 36.12 29.12 39.29 33.71 36.01 33.97 M 20.32 45.16 C 19.03 46.03 17.75 46.91 16.48 47.81 C 19.59 50.34 23.06 52.62 27.06 53.42 C 33.79 55.10 40.99 53.06 46.36 48.81 C 44.61 47.62 42.93 46.33 41.33 44.95 C 35.10 49.13 26.54 49.64 20.32 45.16 Z" />
</g>
</svg>
