<?xml version="1.0" encoding="UTF-8" ?>
<!DOCTYPE svg PUBLIC "-//W3C//DTD SVG 1.1//EN" "http://www.w3.org/Graphics/SVG/1.1/DTD/svg11.dtd">
<svg width="60pt" height="60pt" viewBox="0 0 60 60" version="1.1" xmlns="http://www.w3.org/2000/svg">
<g id="#ffffffff">
<path fill="#ffffff" opacity="1.00" d=" M 0.00 0.00 L 60.00 0.00 L 60.00 60.00 L 0.00 60.00 L 0.00 0.00 M 10.08 12.02 C 10.07 18.54 9.59 25.15 10.36 31.63 C 12.59 35.62 18.28 33.49 22.01 34.05 C 21.89 25.79 22.25 17.52 21.83 9.28 C 21.56 9.00 21.02 8.44 20.74 8.16 C 17.12 7.95 10.27 6.64 10.08 12.02 M 32.83 23.82 C 30.66 24.28 27.61 23.19 26.14 25.26 C 25.87 28.13 26.04 31.02 25.96 33.89 C 24.64 33.94 23.33 33.99 22.01 34.05 C 22.05 38.98 21.75 43.94 22.18 48.85 C 22.39 51.72 25.68 52.11 27.93 52.01 C 34.23 51.89 40.55 52.27 46.84 51.81 C 49.19 51.63 50.11 49.09 49.98 47.05 C 49.91 42.90 50.48 38.65 49.54 34.57 C 48.40 34.29 47.26 34.01 46.13 33.71 C 45.97 30.90 46.09 28.07 45.85 25.27 C 43.83 22.87 40.01 24.44 37.23 23.88 C 37.18 22.01 38.74 19.45 36.78 18.14 C 33.61 17.44 33.66 21.79 32.83 23.82 Z" />
<path fill="#ffffff" opacity="1.00" d=" M 30.02 28.05 C 34.01 27.93 38.00 27.93 41.98 28.05 C 42.04 30.02 42.04 31.98 41.98 33.95 C 37.99 34.07 34.00 34.07 30.02 33.95 C 29.96 31.98 29.96 30.02 30.02 28.05 Z" />
</g>
<g id="#000000ff">
<path fill="#000000" opacity="1.00" d=" M 10.08 12.02 C 10.27 6.64 17.12 7.95 20.74 8.16 C 21.02 8.44 21.56 9.00 21.83 9.28 C 22.25 17.52 21.89 25.79 22.01 34.05 C 18.28 33.49 12.59 35.62 10.36 31.63 C 9.59 25.15 10.07 18.54 10.08 12.02 Z" />
<path fill="#000000" opacity="1.00" d=" M 32.83 23.82 C 33.66 21.79 33.61 17.44 36.78 18.14 C 38.74 19.45 37.18 22.01 37.23 23.88 C 40.01 24.44 43.83 22.87 45.85 25.27 C 46.09 28.07 45.97 30.90 46.13 33.71 C 47.26 34.01 48.40 34.29 49.54 34.57 C 50.48 38.65 49.91 42.90 49.98 47.05 C 50.11 49.09 49.19 51.63 46.84 51.81 C 40.55 52.27 34.23 51.89 27.93 52.01 C 25.68 52.11 22.39 51.72 22.18 48.85 C 21.75 43.94 22.05 38.98 22.01 34.05 C 23.33 33.99 24.64 33.94 25.96 33.89 C 26.04 31.02 25.87 28.13 26.14 25.26 C 27.61 23.19 30.66 24.28 32.83 23.82 M 30.02 28.05 C 29.96 30.02 29.96 31.98 30.02 33.95 C 34.00 34.07 37.99 34.07 41.98 33.95 C 42.04 31.98 42.04 30.02 41.98 28.05 C 38.00 27.93 34.01 27.93 30.02 28.05 Z" />
</g>
</svg>
