<?xml version="1.0" encoding="UTF-8" ?>
<!DOCTYPE svg PUBLIC "-//W3C//DTD SVG 1.1//EN" "http://www.w3.org/Graphics/SVG/1.1/DTD/svg11.dtd">
<svg width="64pt" height="64pt" viewBox="0 0 64 64" version="1.1" xmlns="http://www.w3.org/2000/svg">
<g id="#ffffffff">
<path fill="#ffffff" opacity="1.00" d=" M 0.00 0.00 L 64.00 0.00 L 64.00 64.00 L 0.00 64.00 L 0.00 0.00 M 3.17 28.28 C 10.37 34.93 17.64 41.51 24.78 48.23 C 25.72 48.94 26.54 50.21 27.89 49.99 C 38.61 50.03 49.33 49.98 60.05 50.00 C 60.03 45.10 59.47 40.12 57.47 35.59 C 52.46 23.29 39.18 14.99 25.90 16.10 C 16.95 16.54 8.83 21.52 3.17 28.28 Z" />
<path fill="#ffffff" opacity="1.00" d=" M 18.10 21.85 C 20.66 21.00 23.29 20.37 25.97 19.96 C 25.94 24.63 26.16 29.32 25.90 33.98 C 25.39 34.18 24.38 34.57 23.87 34.77 C 21.95 30.46 20.01 26.16 18.10 21.85 Z" />
<path fill="#ffffff" opacity="1.00" d=" M 30.02 20.00 C 32.27 20.35 34.51 20.78 36.71 21.36 C 34.83 25.82 33.06 30.32 31.14 34.76 L 30.16 33.91 C 29.76 29.29 30.10 24.63 30.02 20.00 Z" />
<path fill="#ffffff" opacity="1.00" d=" M 40.39 22.91 C 42.42 24.10 44.39 25.41 46.28 26.83 C 42.82 30.25 39.41 33.73 35.85 37.05 L 35.37 35.56 C 36.76 31.24 38.76 27.14 40.39 22.91 Z" />
<path fill="#ffffff" opacity="1.00" d=" M 8.90 28.09 C 10.70 26.51 12.58 25.03 14.55 23.66 C 16.42 28.20 18.91 32.50 20.26 37.24 C 15.58 35.66 12.78 31.00 8.90 28.09 Z" />
<path fill="#ffffff" opacity="1.00" d=" M 39.23 39.56 C 42.42 36.16 45.87 33.03 49.16 29.73 C 50.47 31.49 51.69 33.30 52.86 35.16 C 48.43 36.91 44.20 39.19 39.63 40.56 L 39.23 39.56 Z" />
<path fill="#ffffff" opacity="1.00" d=" M 22.04 40.13 C 24.54 38.61 27.50 37.38 30.46 38.33 C 34.18 39.19 36.58 42.50 37.70 45.95 C 34.59 46.02 31.47 46.01 28.35 45.98 C 26.25 44.03 24.12 42.10 22.04 40.13 Z" />
<path fill="#ffffff" opacity="1.00" d=" M 40.91 44.90 C 45.19 42.39 49.88 40.70 54.47 38.86 C 55.00 41.23 55.48 43.60 55.87 45.98 C 51.32 45.84 46.71 46.34 42.21 45.77 L 40.91 44.90 Z" />
</g>
<g id="#000000ff">
<path fill="#000000" opacity="1.00" d=" M 3.17 28.28 C 8.83 21.52 16.95 16.54 25.90 16.10 C 39.18 14.99 52.46 23.29 57.47 35.59 C 59.47 40.12 60.03 45.10 60.05 50.00 C 49.33 49.98 38.61 50.03 27.89 49.99 C 26.54 50.21 25.72 48.94 24.78 48.23 C 17.64 41.51 10.37 34.93 3.17 28.28 M 18.10 21.85 C 20.01 26.16 21.95 30.46 23.87 34.77 C 24.38 34.57 25.39 34.18 25.90 33.98 C 26.16 29.32 25.94 24.63 25.97 19.96 C 23.29 20.37 20.66 21.00 18.10 21.85 M 30.02 20.00 C 30.10 24.63 29.76 29.29 30.16 33.91 L 31.14 34.76 C 33.06 30.32 34.83 25.82 36.71 21.36 C 34.51 20.78 32.27 20.35 30.02 20.00 M 40.39 22.91 C 38.76 27.14 36.76 31.24 35.37 35.56 L 35.85 37.05 C 39.41 33.73 42.82 30.25 46.28 26.83 C 44.39 25.41 42.42 24.10 40.39 22.91 M 8.90 28.09 C 12.78 31.00 15.58 35.66 20.26 37.24 C 18.91 32.50 16.42 28.20 14.55 23.66 C 12.58 25.03 10.70 26.51 8.90 28.09 M 39.23 39.56 L 39.63 40.56 C 44.20 39.19 48.43 36.91 52.86 35.16 C 51.69 33.30 50.47 31.49 49.16 29.73 C 45.87 33.03 42.42 36.16 39.23 39.56 M 22.04 40.13 C 24.12 42.10 26.25 44.03 28.35 45.98 C 31.47 46.01 34.59 46.02 37.70 45.95 C 36.58 42.50 34.18 39.19 30.46 38.33 C 27.50 37.38 24.54 38.61 22.04 40.13 M 40.91 44.90 L 42.21 45.77 C 46.71 46.34 51.32 45.84 55.87 45.98 C 55.48 43.60 55.00 41.23 54.47 38.86 C 49.88 40.70 45.19 42.39 40.91 44.90 Z" />
</g>
</svg>
