<?xml version="1.0" encoding="UTF-8" ?>
<!DOCTYPE svg PUBLIC "-//W3C//DTD SVG 1.1//EN" "http://www.w3.org/Graphics/SVG/1.1/DTD/svg11.dtd">
<svg width="60pt" height="60pt" viewBox="0 0 60 60" version="1.1" xmlns="http://www.w3.org/2000/svg">
<g id="#ffffffff">
<path fill="#ffffff" opacity="1.00" d=" M 0.00 0.00 L 60.00 0.00 L 60.00 60.00 L 0.00 60.00 L 0.00 0.00 M 35.15 6.10 C 32.87 7.24 34.41 10.85 36.83 9.90 C 39.14 8.76 37.59 5.15 35.15 6.10 M 41.23 8.16 C 38.79 9.09 40.42 12.89 42.81 11.90 C 45.16 10.89 43.58 7.07 41.23 8.16 M 29.16 10.10 C 26.84 11.15 28.45 14.96 30.79 13.81 C 33.22 12.85 31.54 9.12 29.16 10.10 M 18.47 14.93 C 13.19 12.93 6.23 13.98 3.43 19.39 C -1.07 27.79 5.98 38.55 14.93 39.78 C 19.88 40.78 25.46 38.11 27.25 33.27 C 28.59 30.14 27.94 26.69 27.07 23.53 C 28.02 22.18 30.27 21.04 29.58 19.10 C 27.56 16.70 25.33 14.46 22.93 12.45 C 20.99 11.65 19.82 14.00 18.47 14.93 M 43.16 14.09 C 40.85 15.13 42.44 18.94 44.72 17.82 C 47.24 16.99 45.55 13.05 43.16 14.09 M 43.14 20.10 C 40.88 21.26 42.40 24.83 44.82 23.89 C 47.15 22.77 45.57 19.14 43.14 20.10 M 39.11 26.17 C 37.41 27.20 38.28 29.47 37.89 31.09 C 34.35 32.93 30.97 35.80 30.22 39.92 C 29.02 45.49 32.98 50.98 38.12 52.81 C 45.45 56.05 55.92 52.41 57.73 44.10 C 59.11 38.46 54.98 33.35 50.12 31.09 C 49.71 29.46 50.61 27.14 48.83 26.16 C 45.60 25.86 42.34 25.85 39.11 26.17 Z" />
<path fill="#ffffff" opacity="1.00" d=" M 22.11 17.08 C 23.75 15.03 26.99 18.25 24.91 19.90 C 23.25 21.90 20.08 18.73 22.11 17.08 Z" />
<path fill="#ffffff" opacity="1.00" d=" M 11.15 18.14 C 18.84 16.44 27.01 25.72 22.96 32.93 C 19.11 38.55 10.46 35.59 7.64 30.40 C 4.67 26.40 5.72 19.29 11.15 18.14 Z" />
<path fill="#ffffff" opacity="1.00" d=" M 43.12 28.11 C 45.53 27.14 47.14 30.67 44.88 31.88 C 42.46 32.88 40.86 29.31 43.12 28.11 Z" />
<path fill="#ffffff" opacity="1.00" d=" M 40.39 34.55 C 46.05 32.45 54.74 36.11 53.89 43.03 C 51.96 51.91 37.23 52.34 34.31 43.92 C 32.92 39.68 36.46 35.61 40.39 34.55 Z" />
</g>
<g id="#000000ff">
<path fill="#000000" opacity="1.00" d=" M 35.15 6.10 C 37.59 5.15 39.14 8.76 36.83 9.90 C 34.41 10.85 32.87 7.24 35.15 6.10 Z" />
<path fill="#000000" opacity="1.00" d=" M 41.23 8.16 C 43.58 7.07 45.16 10.89 42.81 11.90 C 40.42 12.89 38.79 9.09 41.23 8.16 Z" />
<path fill="#000000" opacity="1.00" d=" M 29.16 10.10 C 31.54 9.12 33.22 12.85 30.79 13.81 C 28.45 14.96 26.84 11.15 29.16 10.10 Z" />
<path fill="#000000" opacity="1.00" d=" M 18.47 14.93 C 19.82 14.00 20.99 11.65 22.93 12.45 C 25.33 14.46 27.56 16.70 29.58 19.10 C 30.27 21.04 28.02 22.18 27.07 23.53 C 27.94 26.69 28.59 30.14 27.25 33.27 C 25.46 38.11 19.88 40.78 14.93 39.78 C 5.98 38.55 -1.07 27.79 3.43 19.39 C 6.23 13.98 13.19 12.93 18.47 14.93 M 22.11 17.08 C 20.08 18.73 23.25 21.90 24.91 19.90 C 26.99 18.25 23.75 15.03 22.11 17.08 M 11.15 18.14 C 5.72 19.29 4.67 26.40 7.64 30.40 C 10.46 35.59 19.11 38.55 22.96 32.93 C 27.01 25.72 18.84 16.44 11.15 18.14 Z" />
<path fill="#000000" opacity="1.00" d=" M 43.16 14.09 C 45.55 13.05 47.24 16.99 44.72 17.82 C 42.44 18.94 40.85 15.13 43.16 14.09 Z" />
<path fill="#000000" opacity="1.00" d=" M 43.14 20.10 C 45.57 19.14 47.15 22.77 44.82 23.89 C 42.40 24.83 40.88 21.26 43.14 20.10 Z" />
<path fill="#000000" opacity="1.00" d=" M 39.11 26.17 C 42.34 25.85 45.60 25.86 48.83 26.16 C 50.61 27.14 49.71 29.46 50.12 31.09 C 54.98 33.35 59.11 38.46 57.73 44.10 C 55.92 52.41 45.45 56.05 38.12 52.81 C 32.98 50.98 29.02 45.49 30.22 39.92 C 30.97 35.80 34.35 32.93 37.89 31.09 C 38.28 29.47 37.41 27.20 39.11 26.17 M 43.12 28.11 C 40.86 29.31 42.46 32.88 44.88 31.88 C 47.14 30.67 45.53 27.14 43.12 28.11 M 40.39 34.55 C 36.46 35.61 32.92 39.68 34.31 43.92 C 37.23 52.34 51.96 51.91 53.89 43.03 C 54.74 36.11 46.05 32.45 40.39 34.55 Z" />
</g>
</svg>
