<?xml version="1.0" encoding="UTF-8" ?>
<!DOCTYPE svg PUBLIC "-//W3C//DTD SVG 1.1//EN" "http://www.w3.org/Graphics/SVG/1.1/DTD/svg11.dtd">
<svg width="64pt" height="64pt" viewBox="0 0 64 64" version="1.1" xmlns="http://www.w3.org/2000/svg">
<g id="#ffffffff">
<path fill="#ffffff" opacity="1.00" d=" M 0.00 0.00 L 64.00 0.00 L 64.00 64.00 L 0.00 64.00 L 0.00 0.00 M 23.05 8.05 C 19.98 11.23 19.87 15.85 19.96 20.00 C 21.29 20.00 22.62 20.00 23.95 20.00 C 24.04 16.89 23.62 13.32 25.91 10.83 C 28.87 7.12 35.13 7.11 38.08 10.84 C 40.37 13.32 39.96 16.89 40.05 20.00 C 41.38 20.00 42.71 20.00 44.04 20.00 C 44.14 15.82 43.99 11.17 40.88 7.98 C 36.45 2.71 27.46 2.79 23.05 8.05 M 21.08 21.77 C 20.76 22.32 20.14 23.44 19.82 24.00 C 17.34 24.00 14.85 24.00 12.37 24.00 C 10.11 35.34 7.83 46.67 5.56 58.00 C 7.70 58.00 9.85 58.00 11.99 58.00 C 12.00 58.50 12.00 59.50 12.01 60.00 C 13.34 60.00 14.66 60.00 15.99 60.00 C 16.00 59.50 16.00 58.50 16.01 58.00 C 26.67 58.00 37.33 58.00 47.99 58.00 C 48.00 58.50 48.00 59.50 48.01 60.00 C 49.33 60.00 50.66 60.00 51.99 60.00 C 52.00 59.50 52.00 58.50 52.01 58.00 C 54.15 58.00 56.29 58.00 58.44 58.00 C 56.17 46.67 53.89 35.34 51.63 24.01 C 49.15 24.00 46.67 24.00 44.18 24.00 C 43.86 23.44 43.22 22.32 42.90 21.76 C 41.51 22.06 40.38 22.86 39.51 23.98 C 34.51 24.01 29.50 24.02 24.50 23.98 C 23.59 22.90 22.48 22.06 21.08 21.77 Z" />
<path fill="#ffffff" opacity="1.00" d=" M 10.43 54.00 C 12.16 45.33 13.90 36.67 15.62 28.00 C 26.54 28.00 37.46 27.99 48.38 28.01 C 50.10 36.67 51.84 45.33 53.56 54.00 C 39.19 54.00 24.81 54.00 10.43 54.00 M 20.00 32.00 C 20.00 33.33 20.00 34.67 20.00 36.00 C 28.00 36.00 36.00 36.00 44.00 36.00 C 44.00 34.67 44.00 33.33 44.00 32.00 C 36.00 32.00 28.00 32.00 20.00 32.00 M 40.00 38.00 C 40.00 40.67 40.00 43.33 40.00 46.00 C 41.33 46.00 42.67 46.00 44.00 46.00 C 44.00 43.33 44.00 40.67 44.00 38.00 C 42.67 38.00 41.33 38.00 40.00 38.00 Z" />
</g>
<g id="#000000ff">
<path fill="#000000" opacity="1.00" d=" M 23.05 8.05 C 27.46 2.79 36.45 2.71 40.88 7.98 C 43.99 11.17 44.14 15.82 44.04 20.00 C 42.71 20.00 41.38 20.00 40.05 20.00 C 39.96 16.89 40.37 13.32 38.08 10.84 C 35.13 7.11 28.87 7.12 25.91 10.83 C 23.62 13.32 24.04 16.89 23.95 20.00 C 22.62 20.00 21.29 20.00 19.96 20.00 C 19.87 15.85 19.98 11.23 23.05 8.05 Z" />
<path fill="#000000" opacity="1.00" d=" M 21.08 21.77 C 22.48 22.06 23.59 22.90 24.50 23.98 C 29.50 24.02 34.51 24.01 39.51 23.98 C 40.38 22.86 41.51 22.06 42.90 21.76 C 43.22 22.32 43.86 23.44 44.18 24.00 C 46.67 24.00 49.15 24.00 51.63 24.01 C 53.89 35.34 56.17 46.67 58.44 58.00 C 56.29 58.00 54.15 58.00 52.01 58.00 C 52.00 58.50 52.00 59.50 51.99 60.00 C 50.66 60.00 49.33 60.00 48.01 60.00 C 48.00 59.50 48.00 58.50 47.99 58.00 C 37.33 58.00 26.67 58.00 16.01 58.00 C 16.00 58.50 16.00 59.50 15.99 60.00 C 14.66 60.00 13.34 60.00 12.01 60.00 C 12.00 59.50 12.00 58.50 11.99 58.00 C 9.85 58.00 7.70 58.00 5.56 58.00 C 7.83 46.67 10.11 35.34 12.37 24.00 C 14.85 24.00 17.34 24.00 19.82 24.00 C 20.14 23.44 20.76 22.32 21.08 21.77 M 10.43 54.00 C 24.81 54.00 39.19 54.00 53.56 54.00 C 51.84 45.33 50.10 36.67 48.38 28.01 C 37.46 27.99 26.54 28.00 15.62 28.00 C 13.90 36.67 12.16 45.33 10.43 54.00 Z" />
<path fill="#000000" opacity="1.00" d=" M 20.00 32.00 C 28.00 32.00 36.00 32.00 44.00 32.00 C 44.00 33.33 44.00 34.67 44.00 36.00 C 36.00 36.00 28.00 36.00 20.00 36.00 C 20.00 34.67 20.00 33.33 20.00 32.00 Z" />
<path fill="#000000" opacity="1.00" d=" M 40.00 38.00 C 41.33 38.00 42.67 38.00 44.00 38.00 C 44.00 40.67 44.00 43.33 44.00 46.00 C 42.67 46.00 41.33 46.00 40.00 46.00 C 40.00 43.33 40.00 40.67 40.00 38.00 Z" />
</g>
</svg>
