<?xml version="1.0" encoding="UTF-8" ?>
<!DOCTYPE svg PUBLIC "-//W3C//DTD SVG 1.1//EN" "http://www.w3.org/Graphics/SVG/1.1/DTD/svg11.dtd">
<svg width="60pt" height="60pt" viewBox="0 0 60 60" version="1.1" xmlns="http://www.w3.org/2000/svg">
<g id="#ffffffff">
<path fill="#ffffff" opacity="1.00" d=" M 0.00 0.00 L 60.00 0.00 L 60.00 60.00 L 0.00 60.00 L 0.00 0.00 M 15.94 8.29 C 16.62 13.01 17.83 18.13 21.70 21.30 C 23.79 23.21 26.64 23.79 29.37 24.10 C 28.10 21.93 26.39 20.05 25.12 17.88 C 25.06 16.51 26.66 14.96 27.99 15.91 C 33.10 20.44 35.86 27.23 36.07 34.00 C 37.33 34.00 38.59 34.01 39.85 34.02 C 40.95 28.58 44.14 23.74 48.20 20.05 C 49.64 18.83 51.96 21.19 50.71 22.63 C 49.25 24.47 47.59 26.15 46.22 28.06 C 48.54 27.80 51.12 27.57 52.79 25.71 C 55.77 22.61 55.79 17.99 56.09 13.97 C 52.19 11.71 46.88 11.08 43.22 14.16 C 39.64 16.81 38.68 21.42 38.95 25.62 C 37.82 22.85 35.58 20.21 36.19 17.02 C 36.80 12.37 33.25 8.05 28.93 6.78 C 24.61 5.31 19.96 6.48 15.94 8.29 M 4.00 34.03 C 4.00 39.35 4.00 44.68 4.00 50.00 C 7.40 48.74 10.54 46.72 14.11 45.98 C 19.73 47.58 24.98 50.29 30.44 52.36 C 32.41 52.96 34.55 54.77 36.61 53.50 C 41.81 50.80 46.84 47.79 52.01 45.03 C 53.39 44.13 55.24 43.54 55.89 41.88 C 56.55 39.81 54.46 37.42 52.32 38.17 C 46.79 39.85 41.80 43.17 36.07 44.20 C 37.51 42.88 38.98 40.46 37.05 38.86 C 33.14 36.55 28.77 35.15 24.67 33.23 C 21.82 32.12 19.13 30.38 16.04 30.00 C 11.85 30.66 8.03 32.74 4.00 34.03 Z" />
</g>
<g id="#000000ff">
<path fill="#968176" opacity="1.00" d=" M 15.94 8.29 C 19.96 6.48 24.61 5.31 28.93 6.78 C 33.25 8.05 36.80 12.37 36.19 17.02 C 35.58 20.21 37.82 22.85 38.95 25.62 C 38.68 21.42 39.64 16.81 43.22 14.16 C 46.88 11.08 52.19 11.71 56.09 13.97 C 55.79 17.99 55.77 22.61 52.79 25.71 C 51.12 27.57 48.54 27.80 46.22 28.06 C 47.59 26.15 49.25 24.47 50.71 22.63 C 51.96 21.19 49.64 18.83 48.20 20.05 C 44.14 23.74 40.95 28.58 39.85 34.02 C 38.59 34.01 37.33 34.00 36.07 34.00 C 35.86 27.23 33.10 20.44 27.99 15.91 C 26.66 14.96 25.06 16.51 25.12 17.88 C 26.39 20.05 28.10 21.93 29.37 24.10 C 26.64 23.79 23.79 23.21 21.70 21.30 C 17.83 18.13 16.62 13.01 15.94 8.29 Z" />
<path fill="#968176" opacity="1.00" d=" M 4.00 34.03 C 8.03 32.74 11.85 30.66 16.04 30.00 C 19.13 30.38 21.82 32.12 24.67 33.23 C 28.77 35.15 33.14 36.55 37.05 38.86 C 38.98 40.46 37.51 42.88 36.07 44.20 C 41.80 43.17 46.79 39.85 52.32 38.17 C 54.46 37.42 56.55 39.81 55.89 41.88 C 55.24 43.54 53.39 44.13 52.01 45.03 C 46.84 47.79 41.81 50.80 36.61 53.50 C 34.55 54.77 32.41 52.96 30.44 52.36 C 24.98 50.29 19.73 47.58 14.11 45.98 C 10.54 46.72 7.40 48.74 4.00 50.00 C 4.00 44.68 4.00 39.35 4.00 34.03 Z" />
</g>
</svg>
