<?xml version="1.0" encoding="UTF-8" ?>
<!DOCTYPE svg PUBLIC "-//W3C//DTD SVG 1.1//EN" "http://www.w3.org/Graphics/SVG/1.1/DTD/svg11.dtd">
<svg width="60pt" height="60pt" viewBox="0 0 60 60" version="1.1" xmlns="http://www.w3.org/2000/svg">
<g id="#ffffffff">
<path fill="#ffffff" opacity="1.00" d=" M 0.00 0.00 L 60.00 0.00 L 60.00 60.00 L 0.00 60.00 L 0.00 0.00 M 26.87 5.75 C 25.55 12.48 25.04 19.36 24.03 26.14 C 23.26 26.10 21.71 26.01 20.94 25.96 C 19.83 20.67 19.09 15.30 17.76 10.07 C 17.12 6.94 11.84 7.69 12.10 10.89 C 13.03 19.13 15.73 27.13 16.13 35.45 C 18.60 33.45 20.76 30.55 23.99 29.82 C 28.47 29.06 31.80 35.18 28.57 38.46 C 26.64 40.35 25.04 43.47 22.31 44.00 C 21.61 41.38 25.04 40.07 26.25 38.11 C 28.26 36.59 28.41 33.17 25.89 32.09 C 23.43 31.01 21.60 33.49 19.84 34.77 C 17.32 37.20 14.00 39.09 12.49 42.37 C 10.87 46.51 13.94 50.46 16.61 53.33 C 20.43 57.09 26.18 55.79 31.00 56.00 C 35.23 55.79 40.36 57.03 43.66 53.62 C 47.38 49.78 45.57 43.97 46.03 39.19 C 43.63 40.35 41.04 39.98 39.00 38.31 C 36.33 40.82 31.41 40.41 30.26 36.57 C 28.97 26.60 31.81 16.75 32.47 6.85 C 32.61 3.84 27.88 2.91 26.87 5.75 M 33.43 24.46 C 30.77 27.12 32.31 31.68 32.11 35.10 C 31.86 38.31 37.00 39.02 37.79 35.98 C 38.17 32.68 38.17 29.33 37.80 26.03 C 37.30 24.25 34.96 23.46 33.43 24.46 M 41.41 26.47 C 39.01 28.54 40.17 32.34 40.10 35.13 C 39.92 37.97 44.18 39.02 45.50 36.61 C 46.37 34.17 46.05 31.45 45.91 28.90 C 46.05 26.66 43.21 25.23 41.41 26.47 Z" />
</g>
<g id="#000000ff">
<path fill="#000000" opacity="1.00" d=" M 26.87 5.75 C 27.88 2.91 32.61 3.84 32.47 6.85 C 31.81 16.75 28.97 26.60 30.26 36.57 C 31.41 40.41 36.33 40.82 39.00 38.31 C 41.04 39.98 43.63 40.35 46.03 39.19 C 45.57 43.97 47.38 49.78 43.66 53.62 C 40.36 57.03 35.23 55.79 31.00 56.00 C 26.18 55.79 20.43 57.09 16.61 53.33 C 13.94 50.46 10.87 46.51 12.49 42.37 C 14.00 39.09 17.32 37.20 19.84 34.77 C 21.60 33.49 23.43 31.01 25.89 32.09 C 28.41 33.17 28.26 36.59 26.25 38.11 C 25.04 40.07 21.61 41.38 22.31 44.00 C 25.04 43.47 26.64 40.35 28.57 38.46 C 31.80 35.18 28.47 29.06 23.99 29.82 C 20.76 30.55 18.60 33.45 16.13 35.45 C 15.73 27.13 13.03 19.13 12.10 10.89 C 11.84 7.69 17.12 6.94 17.76 10.07 C 19.09 15.30 19.83 20.67 20.94 25.96 C 21.71 26.01 23.26 26.10 24.03 26.14 C 25.04 19.36 25.55 12.48 26.87 5.75 Z" />
<path fill="#000000" opacity="1.00" d=" M 33.43 24.46 C 34.96 23.46 37.30 24.25 37.80 26.03 C 38.17 29.33 38.17 32.68 37.79 35.98 C 37.00 39.02 31.86 38.31 32.11 35.10 C 32.31 31.68 30.77 27.12 33.43 24.46 Z" />
<path fill="#000000" opacity="1.00" d=" M 41.41 26.47 C 43.21 25.23 46.05 26.66 45.91 28.90 C 46.05 31.45 46.37 34.17 45.50 36.61 C 44.18 39.02 39.92 37.97 40.10 35.13 C 40.17 32.34 39.01 28.54 41.41 26.47 Z" />
</g>
</svg>
