<?xml version="1.0" encoding="UTF-8" ?>
<!DOCTYPE svg PUBLIC "-//W3C//DTD SVG 1.1//EN" "http://www.w3.org/Graphics/SVG/1.1/DTD/svg11.dtd">
<svg width="60pt" height="60pt" viewBox="0 0 60 60" version="1.1" xmlns="http://www.w3.org/2000/svg">
<g id="#ffffffff">
<path fill="#ffffff" opacity="1.00" d=" M 0.00 0.00 L 60.00 0.00 L 60.00 60.00 L 0.00 60.00 L 0.00 0.00 M 6.38 8.32 C 5.64 11.48 6.02 14.82 6.08 18.05 C 5.87 20.10 9.05 20.72 9.80 18.87 C 10.20 15.93 9.95 12.95 9.99 9.99 C 12.68 9.98 15.36 10.12 18.04 9.92 C 19.57 10.02 20.29 8.43 19.89 7.13 C 18.52 5.30 15.92 6.24 13.98 5.96 C 11.37 6.07 7.70 5.34 6.38 8.32 M 41.18 9.81 C 44.11 10.20 47.07 9.95 50.00 10.00 C 50.05 12.94 49.81 15.91 50.18 18.84 C 50.78 19.87 51.68 20.21 52.88 19.88 C 54.48 18.81 53.83 16.65 54.03 15.03 C 53.82 12.13 54.94 8.05 51.73 6.43 C 48.59 5.57 45.21 6.05 41.98 6.08 C 39.86 5.88 39.24 9.10 41.18 9.81 M 27.94 19.96 C 26.26 22.48 26.03 25.59 25.56 28.49 C 23.97 27.56 22.49 24.86 20.46 26.43 C 18.55 29.68 23.15 31.55 25.38 32.83 C 24.77 34.65 24.85 38.11 22.11 37.97 C 19.55 38.57 20.42 33.73 18.02 34.07 C 16.43 33.75 15.66 35.84 16.10 37.09 C 16.64 41.20 21.79 43.21 25.24 41.25 C 28.09 39.85 28.66 36.43 29.33 33.66 C 30.88 33.79 32.44 33.93 33.99 34.06 C 33.79 37.96 36.03 43.21 40.83 41.84 C 43.67 40.04 40.69 37.55 38.42 37.49 C 37.96 33.67 38.15 29.83 37.93 26.00 C 38.12 24.44 36.39 23.65 35.09 24.11 C 33.28 25.49 34.27 28.10 33.95 30.05 C 32.47 29.93 30.99 29.80 29.50 29.66 C 30.06 26.76 29.87 23.30 32.15 21.08 C 33.69 20.02 35.72 20.15 37.42 19.45 C 38.69 18.29 37.74 15.92 36.02 16.03 C 32.92 15.91 29.65 17.30 27.94 19.96 M 7.08 40.11 C 5.49 41.20 6.17 43.33 5.97 44.95 C 6.19 47.86 5.05 51.99 8.31 53.59 C 11.44 54.40 14.80 53.96 18.01 53.92 C 20.11 54.14 20.77 50.87 18.81 50.19 C 15.89 49.80 12.93 50.05 10.00 50.00 C 9.98 47.31 10.11 44.61 9.93 41.93 C 10.05 40.39 8.37 39.67 7.08 40.11 M 50.17 41.05 C 49.82 44.02 50.04 47.02 50.00 50.01 C 47.05 50.05 44.07 49.80 41.13 50.19 C 40.13 50.79 39.79 51.68 40.12 52.86 C 41.15 54.51 43.33 53.82 44.95 54.03 C 47.87 53.83 52.02 54.95 53.61 51.65 C 54.38 48.51 53.96 45.17 53.93 41.95 C 54.12 39.89 51.05 39.28 50.17 41.05 Z" />
</g>
<g id="#000000ff">
<path fill="#000000" opacity="1.00" d=" M 6.38 8.32 C 7.70 5.34 11.37 6.07 13.98 5.96 C 15.92 6.24 18.52 5.30 19.89 7.13 C 20.29 8.43 19.57 10.02 18.04 9.92 C 15.36 10.12 12.68 9.98 9.99 9.99 C 9.95 12.95 10.20 15.93 9.80 18.87 C 9.05 20.72 5.87 20.10 6.08 18.05 C 6.02 14.82 5.64 11.48 6.38 8.32 Z" />
<path fill="#000000" opacity="1.00" d=" M 41.18 9.81 C 39.24 9.10 39.86 5.88 41.98 6.08 C 45.21 6.05 48.59 5.57 51.73 6.43 C 54.94 8.05 53.82 12.13 54.03 15.03 C 53.83 16.65 54.48 18.81 52.88 19.88 C 51.68 20.21 50.78 19.87 50.18 18.84 C 49.81 15.91 50.05 12.94 50.00 10.00 C 47.07 9.95 44.11 10.20 41.18 9.81 Z" />
<path fill="#000000" opacity="1.00" d=" M 27.94 19.96 C 29.65 17.30 32.92 15.91 36.02 16.03 C 37.74 15.92 38.69 18.29 37.42 19.45 C 35.72 20.15 33.69 20.02 32.15 21.08 C 29.87 23.30 30.06 26.76 29.50 29.66 C 30.99 29.80 32.47 29.93 33.95 30.05 C 34.27 28.10 33.28 25.49 35.09 24.11 C 36.39 23.65 38.12 24.44 37.93 26.00 C 38.15 29.83 37.96 33.67 38.42 37.49 C 40.69 37.55 43.67 40.04 40.83 41.84 C 36.03 43.21 33.79 37.96 33.99 34.06 C 32.44 33.93 30.88 33.79 29.33 33.66 C 28.66 36.43 28.09 39.85 25.24 41.25 C 21.79 43.21 16.64 41.20 16.10 37.09 C 15.66 35.84 16.43 33.75 18.02 34.07 C 20.42 33.73 19.55 38.57 22.11 37.97 C 24.85 38.11 24.77 34.65 25.38 32.83 C 23.15 31.55 18.55 29.68 20.46 26.43 C 22.49 24.86 23.97 27.56 25.56 28.49 C 26.03 25.59 26.26 22.48 27.94 19.96 Z" />
<path fill="#000000" opacity="1.00" d=" M 7.08 40.11 C 8.37 39.67 10.05 40.39 9.93 41.93 C 10.11 44.61 9.98 47.31 10.00 50.00 C 12.93 50.05 15.89 49.80 18.81 50.19 C 20.77 50.87 20.11 54.14 18.01 53.92 C 14.80 53.96 11.44 54.40 8.31 53.59 C 5.05 51.99 6.19 47.86 5.97 44.95 C 6.17 43.33 5.49 41.20 7.08 40.11 Z" />
<path fill="#000000" opacity="1.00" d=" M 50.17 41.05 C 51.05 39.28 54.12 39.89 53.93 41.95 C 53.96 45.17 54.38 48.51 53.61 51.65 C 52.02 54.95 47.87 53.83 44.95 54.03 C 43.33 53.82 41.15 54.51 40.12 52.86 C 39.79 51.68 40.13 50.79 41.13 50.19 C 44.07 49.80 47.05 50.05 50.00 50.01 C 50.04 47.02 49.82 44.02 50.17 41.05 Z" />
</g>
</svg>
