<?xml version="1.0" encoding="UTF-8" ?>
<!DOCTYPE svg PUBLIC "-//W3C//DTD SVG 1.1//EN" "http://www.w3.org/Graphics/SVG/1.1/DTD/svg11.dtd">
<svg width="60pt" height="60pt" viewBox="0 0 60 60" version="1.1" xmlns="http://www.w3.org/2000/svg">
<g id="#ffffffff">
<path fill="#ffffff" opacity="1.00" d=" M 0.00 0.00 L 60.00 0.00 L 60.00 60.00 L 0.00 60.00 L 0.00 0.00 M 42.88 6.86 C 34.49 13.76 26.34 20.97 18.04 28.00 C 22.01 32.01 26.00 36.01 30.00 40.00 C 36.89 31.88 43.89 23.85 50.73 15.69 C 52.13 14.21 52.48 11.74 50.98 10.19 C 49.14 7.89 45.98 4.43 42.88 6.86 M 12.87 34.99 C 12.88 36.93 14.63 38.11 15.67 39.53 C 12.52 42.79 9.07 45.78 6.14 49.25 C 5.48 50.90 7.14 52.51 8.77 51.84 C 12.23 48.91 15.22 45.48 18.47 42.33 C 19.88 43.36 21.07 45.11 23.00 45.13 C 24.75 45.30 25.97 43.85 27.30 42.98 C 23.24 38.87 19.13 34.81 15.06 30.71 C 14.15 32.02 12.68 33.23 12.87 34.99 M 45.24 34.06 C 44.05 34.83 44.10 36.51 43.46 37.66 C 42.86 40.15 39.47 39.46 38.09 41.20 C 37.46 42.96 39.26 44.45 40.94 43.94 C 45.15 43.58 48.49 39.46 47.90 35.27 C 47.35 34.18 46.46 33.78 45.24 34.06 M 53.13 34.06 C 51.27 36.08 51.97 39.27 50.61 41.60 C 48.87 45.85 44.24 47.55 40.03 48.10 C 37.86 47.96 37.23 51.05 39.18 51.82 C 46.86 52.63 54.53 46.78 55.64 39.08 C 56.34 37.05 56.27 33.23 53.13 34.06 Z" />
</g>
<g id="#000000ff">
<path fill="#000000" opacity="1.00" d=" M 42.88 6.86 C 45.98 4.43 49.14 7.89 50.98 10.19 C 52.48 11.74 52.13 14.21 50.73 15.69 C 43.89 23.85 36.89 31.88 30.00 40.00 C 26.00 36.01 22.01 32.01 18.04 28.00 C 26.34 20.97 34.49 13.76 42.88 6.86 Z" />
<path fill="#000000" opacity="1.00" d=" M 12.87 34.99 C 12.68 33.23 14.15 32.02 15.06 30.71 C 19.13 34.81 23.24 38.87 27.30 42.98 C 25.97 43.85 24.75 45.30 23.00 45.13 C 21.07 45.11 19.88 43.36 18.47 42.33 C 15.22 45.48 12.23 48.91 8.77 51.84 C 7.14 52.51 5.48 50.90 6.14 49.25 C 9.07 45.78 12.52 42.79 15.67 39.53 C 14.63 38.11 12.88 36.93 12.87 34.99 Z" />
<path fill="#000000" opacity="1.00" d=" M 45.24 34.06 C 46.46 33.78 47.35 34.18 47.90 35.27 C 48.49 39.46 45.15 43.58 40.94 43.94 C 39.26 44.45 37.46 42.96 38.09 41.20 C 39.47 39.46 42.86 40.15 43.46 37.66 C 44.10 36.51 44.05 34.83 45.24 34.06 Z" />
<path fill="#000000" opacity="1.00" d=" M 53.13 34.06 C 56.27 33.23 56.34 37.05 55.64 39.08 C 54.53 46.78 46.86 52.63 39.18 51.82 C 37.23 51.05 37.86 47.96 40.03 48.10 C 44.24 47.55 48.87 45.85 50.61 41.60 C 51.97 39.27 51.27 36.08 53.13 34.06 Z" />
</g>
</svg>
