<?xml version="1.0" encoding="UTF-8" ?>
<!DOCTYPE svg PUBLIC "-//W3C//DTD SVG 1.1//EN" "http://www.w3.org/Graphics/SVG/1.1/DTD/svg11.dtd">
<svg width="60pt" height="60pt" viewBox="0 0 60 60" version="1.1" xmlns="http://www.w3.org/2000/svg">
<g id="#ffffffff">
<path fill="#ffffff" opacity="1.00" d=" M 0.00 0.00 L 60.00 0.00 L 60.00 60.00 L 0.00 60.00 L 0.00 0.00 M 9.49 15.61 C 7.36 16.45 4.26 17.15 4.09 19.95 C 3.87 28.34 4.06 36.74 4.00 45.14 C 3.73 47.21 4.92 49.35 7.01 49.86 C 10.00 50.16 13.00 49.96 16.00 49.99 C 16.00 48.66 16.00 47.33 16.00 46.00 C 25.33 46.00 34.67 46.00 44.00 46.00 C 44.00 47.33 44.00 48.66 44.00 49.99 C 47.00 49.96 50.02 50.16 53.01 49.86 C 55.04 49.31 56.26 47.18 56.00 45.14 C 55.94 36.74 56.13 28.33 55.90 19.94 C 55.73 17.19 52.70 16.46 50.60 15.59 C 43.71 13.17 37.06 9.97 30.02 8.02 C 23.02 10.01 16.38 13.21 9.49 15.61 Z" />
<path fill="#ffffff" opacity="1.00" d=" M 16.00 30.00 C 25.33 30.00 34.67 30.00 44.00 30.00 C 44.00 31.33 44.00 32.67 44.00 34.00 C 34.67 34.00 25.33 34.00 16.00 34.00 C 16.00 32.67 16.00 31.33 16.00 30.00 Z" />
<path fill="#ffffff" opacity="1.00" d=" M 16.00 38.00 C 25.33 38.00 34.67 38.00 44.00 38.00 C 44.00 39.33 44.00 40.67 44.00 42.00 C 34.67 42.00 25.33 42.00 16.00 42.00 C 16.00 40.67 16.00 39.33 16.00 38.00 Z" />
</g>
<g id="#000000ff">
<path fill="#968176" opacity="1.00" d=" M 9.49 15.61 C 16.38 13.21 23.02 10.01 30.02 8.02 C 37.06 9.97 43.71 13.17 50.60 15.59 C 52.70 16.46 55.73 17.19 55.90 19.94 C 56.13 28.33 55.94 36.74 56.00 45.14 C 56.26 47.18 55.04 49.31 53.01 49.86 C 50.02 50.16 47.00 49.96 44.00 49.99 C 44.00 48.66 44.00 47.33 44.00 46.00 C 34.67 46.00 25.33 46.00 16.00 46.00 C 16.00 47.33 16.00 48.66 16.00 49.99 C 13.00 49.96 10.00 50.16 7.01 49.86 C 4.92 49.35 3.73 47.21 4.00 45.14 C 4.06 36.74 3.87 28.34 4.09 19.95 C 4.26 17.15 7.36 16.45 9.49 15.61 M 16.00 30.00 C 16.00 31.33 16.00 32.67 16.00 34.00 C 25.33 34.00 34.67 34.00 44.00 34.00 C 44.00 32.67 44.00 31.33 44.00 30.00 C 34.67 30.00 25.33 30.00 16.00 30.00 M 16.00 38.00 C 16.00 39.33 16.00 40.67 16.00 42.00 C 25.33 42.00 34.67 42.00 44.00 42.00 C 44.00 40.67 44.00 39.33 44.00 38.00 C 34.67 38.00 25.33 38.00 16.00 38.00 Z" />
</g>
</svg>
