<?xml version="1.0" encoding="UTF-8" ?>
<!DOCTYPE svg PUBLIC "-//W3C//DTD SVG 1.1//EN" "http://www.w3.org/Graphics/SVG/1.1/DTD/svg11.dtd">
<svg width="60pt" height="60pt" viewBox="0 0 60 60" version="1.1" xmlns="http://www.w3.org/2000/svg">
<g id="#ffffffff">
<path fill="#ffffff" opacity="1.00" d=" M 0.00 0.00 L 60.00 0.00 L 60.00 60.00 L 0.00 60.00 L 0.00 0.00 M 44.22 7.96 C 43.58 15.33 44.38 22.76 43.84 30.14 C 43.05 34.22 37.70 35.05 35.00 32.27 C 32.70 34.44 29.30 34.40 27.00 32.27 C 25.53 33.18 23.95 34.41 22.10 33.88 C 17.59 32.27 13.77 28.90 9.01 28.01 C 6.44 27.68 4.67 29.72 3.81 31.87 C 7.20 34.57 11.12 36.71 13.84 40.16 C 16.11 42.81 18.08 45.82 20.93 47.90 C 25.32 50.96 30.95 49.76 35.95 50.00 C 39.48 49.83 43.46 50.71 46.56 48.55 C 49.01 46.92 50.15 43.93 50.00 41.06 C 49.95 30.33 50.12 19.59 49.92 8.86 C 50.08 5.71 45.08 4.99 44.22 7.96 M 29.38 14.50 C 27.79 15.42 28.07 17.47 27.98 19.01 C 28.08 22.67 27.76 26.35 28.21 29.99 C 28.91 32.60 33.11 32.58 33.80 29.96 C 34.20 25.62 34.03 21.23 33.91 16.88 C 34.05 14.63 31.14 13.21 29.38 14.50 M 21.44 16.46 C 18.60 19.42 20.52 24.36 20.02 28.11 C 19.03 31.75 24.72 33.55 25.80 29.95 C 26.18 26.27 26.06 22.54 25.91 18.85 C 26.02 16.65 23.20 15.25 21.44 16.46 M 37.38 16.50 C 35.78 17.42 36.07 19.47 35.99 21.02 C 36.01 24.00 35.82 27.01 36.20 29.99 C 36.92 32.56 41.01 32.60 41.78 30.04 C 42.21 26.34 42.04 22.59 41.92 18.87 C 42.05 16.64 39.14 15.22 37.38 16.50 Z" />
</g>
<g id="#000000ff">
<path fill="#968176" opacity="1.00" d=" M 44.22 7.96 C 45.08 4.99 50.08 5.71 49.92 8.86 C 50.12 19.59 49.95 30.33 50.00 41.06 C 50.15 43.93 49.01 46.92 46.56 48.55 C 43.46 50.71 39.48 49.83 35.95 50.00 C 30.95 49.76 25.32 50.96 20.93 47.90 C 18.08 45.82 16.11 42.81 13.84 40.16 C 11.12 36.71 7.20 34.57 3.81 31.87 C 4.67 29.72 6.44 27.68 9.01 28.01 C 13.77 28.90 17.59 32.27 22.10 33.88 C 23.95 34.41 25.53 33.18 27.00 32.27 C 29.30 34.40 32.70 34.44 35.00 32.27 C 37.70 35.05 43.05 34.22 43.84 30.14 C 44.38 22.76 43.58 15.33 44.22 7.96 Z" />
<path fill="#968176" opacity="1.00" d=" M 29.38 14.50 C 31.14 13.21 34.05 14.63 33.91 16.88 C 34.03 21.23 34.20 25.62 33.80 29.96 C 33.11 32.58 28.91 32.60 28.21 29.99 C 27.76 26.35 28.08 22.67 27.98 19.01 C 28.07 17.47 27.79 15.42 29.38 14.50 Z" />
<path fill="#968176" opacity="1.00" d=" M 21.44 16.46 C 23.20 15.25 26.02 16.65 25.91 18.85 C 26.06 22.54 26.18 26.27 25.80 29.95 C 24.72 33.55 19.03 31.75 20.02 28.11 C 20.52 24.36 18.60 19.42 21.44 16.46 Z" />
<path fill="#968176" opacity="1.00" d=" M 37.38 16.50 C 39.14 15.22 42.05 16.64 41.92 18.87 C 42.04 22.59 42.21 26.34 41.78 30.04 C 41.01 32.60 36.92 32.56 36.20 29.99 C 35.82 27.01 36.01 24.00 35.99 21.02 C 36.07 19.47 35.78 17.42 37.38 16.50 Z" />
</g>
</svg>
