<?xml version="1.0" encoding="UTF-8" ?>
<!DOCTYPE svg PUBLIC "-//W3C//DTD SVG 1.1//EN" "http://www.w3.org/Graphics/SVG/1.1/DTD/svg11.dtd">
<svg width="60pt" height="60pt" viewBox="0 0 60 60" version="1.1" xmlns="http://www.w3.org/2000/svg">
<g id="#ffffffff">
<path fill="#ffffff" opacity="1.00" d=" M 0.00 0.00 L 60.00 0.00 L 60.00 60.00 L 0.00 60.00 L 0.00 0.00 M 33.30 5.39 C 32.30 6.92 33.76 7.81 34.81 8.69 C 39.17 5.94 44.77 5.00 49.35 7.80 C 51.34 9.85 54.60 6.51 52.12 4.87 C 46.61 1.01 38.52 1.06 33.30 5.39 M 12.51 4.71 C 10.51 5.45 8.08 6.04 6.95 8.04 C 6.96 9.37 7.61 10.18 8.90 10.48 C 11.57 9.55 14.09 7.91 17.02 8.01 C 19.93 7.93 22.44 9.56 25.10 10.49 C 26.90 10.29 27.78 7.83 26.09 6.85 C 22.18 4.22 17.05 3.24 12.51 4.71 M 12.66 12.75 C 2.68 16.61 -0.48 29.96 4.07 39.02 C 6.47 44.36 12.04 48.57 18.09 47.93 C 23.13 47.60 27.20 43.98 29.64 39.78 C 31.49 43.83 34.42 47.67 38.75 49.21 C 43.56 51.13 49.22 49.34 52.61 45.58 C 59.63 37.84 59.74 24.91 53.07 16.92 C 49.84 13.03 44.32 10.92 39.40 12.56 C 35.15 13.82 32.11 17.34 30.11 21.14 C 27.20 14.71 19.67 10.05 12.66 12.75 Z" />
<path fill="#ffffff" opacity="1.00" d=" M 13.52 16.76 C 17.02 15.16 21.26 16.35 23.83 19.09 C 29.51 25.04 29.37 35.66 23.37 41.35 C 20.51 44.12 15.83 44.84 12.42 42.67 C 3.50 37.11 3.90 21.37 13.52 16.76 M 14.80 27.61 C 13.36 27.80 11.92 27.98 10.48 28.18 C 11.27 29.51 12.34 30.63 13.48 31.67 C 13.28 33.20 13.06 34.73 12.82 36.25 C 14.22 35.61 15.61 34.93 17.00 34.26 C 18.39 34.93 19.77 35.61 21.18 36.25 C 20.94 34.73 20.73 33.21 20.53 31.69 C 21.67 30.64 22.73 29.51 23.52 28.17 C 22.08 27.98 20.64 27.79 19.20 27.62 C 18.44 26.23 17.77 24.81 17.00 23.43 C 16.24 24.81 15.57 26.24 14.80 27.61 Z" />
<path fill="#ffffff" opacity="1.00" d=" M 40.38 16.47 C 44.22 15.07 48.46 17.14 50.68 20.35 C 55.48 27.06 55.11 37.37 49.21 43.31 C 46.28 46.37 41.13 46.87 37.81 44.17 C 29.34 37.40 30.02 21.02 40.38 16.47 M 40.85 27.62 C 39.39 27.79 37.93 27.98 36.48 28.17 C 37.27 29.51 38.34 30.63 39.48 31.66 C 39.28 33.20 39.06 34.73 38.82 36.25 C 40.22 35.61 41.61 34.93 43.00 34.26 C 44.39 34.93 45.78 35.61 47.18 36.25 C 46.94 34.74 46.73 33.21 46.53 31.69 C 47.66 30.64 48.73 29.51 49.52 28.18 C 48.07 27.98 46.61 27.80 45.15 27.62 C 44.62 26.45 44.12 25.26 43.47 24.14 C 41.68 23.80 41.70 26.54 40.85 27.62 Z" />
</g>
<g id="#000000ff">
<path fill="#000000" opacity="1.00" d=" M 33.30 5.39 C 38.52 1.06 46.61 1.01 52.12 4.87 C 54.60 6.51 51.34 9.85 49.35 7.80 C 44.77 5.00 39.17 5.94 34.81 8.69 C 33.76 7.81 32.30 6.92 33.30 5.39 Z" />
<path fill="#000000" opacity="1.00" d=" M 12.51 4.71 C 17.05 3.24 22.18 4.22 26.09 6.85 C 27.78 7.83 26.90 10.29 25.10 10.49 C 22.44 9.56 19.93 7.93 17.02 8.01 C 14.09 7.91 11.57 9.55 8.90 10.48 C 7.61 10.18 6.96 9.37 6.95 8.04 C 8.08 6.04 10.51 5.45 12.51 4.71 Z" />
<path fill="#000000" opacity="1.00" d=" M 12.66 12.75 C 19.67 10.05 27.20 14.71 30.11 21.14 C 32.11 17.34 35.15 13.82 39.40 12.56 C 44.32 10.92 49.84 13.03 53.07 16.92 C 59.74 24.91 59.63 37.84 52.61 45.58 C 49.22 49.34 43.56 51.13 38.75 49.21 C 34.42 47.67 31.49 43.83 29.64 39.78 C 27.20 43.98 23.13 47.60 18.09 47.93 C 12.04 48.57 6.47 44.36 4.07 39.02 C -0.48 29.96 2.68 16.61 12.66 12.75 M 13.52 16.76 C 3.90 21.37 3.50 37.11 12.42 42.67 C 15.83 44.84 20.51 44.12 23.37 41.35 C 29.37 35.66 29.51 25.04 23.83 19.09 C 21.26 16.35 17.02 15.16 13.52 16.76 M 40.38 16.47 C 30.02 21.02 29.34 37.40 37.81 44.17 C 41.13 46.87 46.28 46.37 49.21 43.31 C 55.11 37.37 55.48 27.06 50.68 20.35 C 48.46 17.14 44.22 15.07 40.38 16.47 Z" />
<path fill="#000000" opacity="1.00" d=" M 14.80 27.61 C 15.57 26.24 16.24 24.81 17.00 23.43 C 17.77 24.81 18.44 26.23 19.20 27.62 C 20.64 27.79 22.08 27.98 23.52 28.17 C 22.73 29.51 21.67 30.64 20.53 31.69 C 20.73 33.21 20.94 34.73 21.18 36.25 C 19.77 35.61 18.39 34.93 17.00 34.26 C 15.61 34.93 14.22 35.61 12.82 36.25 C 13.06 34.73 13.28 33.20 13.48 31.67 C 12.34 30.63 11.27 29.51 10.48 28.18 C 11.92 27.98 13.36 27.80 14.80 27.61 Z" />
<path fill="#000000" opacity="1.00" d=" M 40.85 27.62 C 41.70 26.54 41.68 23.80 43.47 24.14 C 44.12 25.26 44.62 26.45 45.15 27.62 C 46.61 27.80 48.07 27.98 49.52 28.18 C 48.73 29.51 47.66 30.64 46.53 31.69 C 46.73 33.21 46.94 34.74 47.18 36.25 C 45.78 35.61 44.39 34.93 43.00 34.26 C 41.61 34.93 40.22 35.61 38.82 36.25 C 39.06 34.73 39.28 33.20 39.48 31.66 C 38.34 30.63 37.27 29.51 36.48 28.17 C 37.93 27.98 39.39 27.79 40.85 27.62 Z" />
</g>
</svg>
