<?xml version="1.0" encoding="UTF-8" ?>
<!DOCTYPE svg PUBLIC "-//W3C//DTD SVG 1.1//EN" "http://www.w3.org/Graphics/SVG/1.1/DTD/svg11.dtd">
<svg width="60pt" height="60pt" viewBox="0 0 60 60" version="1.1" xmlns="http://www.w3.org/2000/svg">
<g id="#ffffffff">
<path fill="#ffffff" opacity="1.00" d=" M 0.00 0.00 L 60.00 0.00 L 60.00 60.00 L 0.00 60.00 L 0.00 0.00 M 28.99 5.91 C 28.69 6.44 28.10 7.49 27.80 8.01 C 21.83 8.04 15.87 7.91 9.90 8.05 C 7.87 8.01 6.01 9.86 6.05 11.89 C 5.96 17.30 5.95 22.71 6.05 28.12 C 5.95 30.64 8.58 32.31 10.90 32.00 C 23.64 32.00 36.37 32.00 49.11 32.00 C 51.45 32.33 54.01 30.57 53.95 28.08 C 54.05 22.69 54.05 17.29 53.95 11.90 C 53.97 9.87 52.16 7.95 50.09 8.05 C 44.18 7.89 38.26 8.09 32.35 7.97 C 31.63 6.67 30.54 5.84 28.99 5.91 M 28.00 36.00 C 28.01 38.73 27.99 41.45 27.99 44.17 C 26.76 44.86 25.50 45.50 24.26 46.18 C 21.37 45.57 18.54 46.57 16.70 48.87 C 13.89 46.91 10.33 48.71 9.74 51.97 C 22.58 52.02 35.42 52.03 48.26 51.97 C 47.65 49.36 45.45 47.58 42.71 47.96 C 40.71 46.38 38.26 45.69 35.73 46.18 C 34.51 45.48 33.23 44.87 32.01 44.17 C 32.00 41.45 31.99 38.72 32.00 36.00 C 30.67 36.00 29.33 36.00 28.00 36.00 Z" />
<path fill="#ffffff" opacity="1.00" d=" M 17.99 13.92 C 20.83 13.65 20.05 16.93 20.25 18.74 C 21.79 18.73 23.34 18.74 24.88 18.74 C 25.15 17.04 24.24 13.90 26.87 13.91 C 27.13 14.17 27.63 14.69 27.89 14.95 C 28.10 18.30 28.12 21.67 27.88 25.02 C 27.43 26.27 25.43 26.43 25.08 24.96 C 24.96 23.69 24.90 22.41 24.90 21.12 C 23.35 21.13 21.79 21.13 20.24 21.13 C 20.01 22.90 20.92 26.27 18.09 26.05 C 16.57 24.84 17.30 22.66 17.08 21.00 C 17.36 18.68 16.40 15.90 17.99 13.92 Z" />
<path fill="#ffffff" opacity="1.00" d=" M 34.41 14.46 C 36.71 13.52 39.46 13.95 41.88 14.29 C 42.01 14.77 42.26 15.73 42.38 16.21 C 40.44 16.47 38.49 16.44 36.54 16.51 C 36.54 17.09 36.55 18.23 36.55 18.80 C 38.36 18.96 40.17 18.92 41.98 18.96 C 42.33 22.23 38.49 20.71 36.55 21.11 C 36.55 21.71 36.54 22.91 36.54 23.51 C 38.47 23.84 43.15 22.41 42.00 25.74 C 39.52 25.77 35.90 27.08 34.11 24.97 C 34.06 21.50 33.53 17.81 34.41 14.46 Z" />
</g>
<g id="#000000ff">
<path fill="#000000" opacity="1.00" d=" M 28.99 5.91 C 30.54 5.84 31.63 6.67 32.35 7.97 C 38.26 8.09 44.18 7.89 50.09 8.05 C 52.16 7.95 53.97 9.87 53.95 11.90 C 54.05 17.29 54.05 22.69 53.95 28.08 C 54.01 30.57 51.45 32.33 49.11 32.00 C 36.37 32.00 23.64 32.00 10.90 32.00 C 8.58 32.31 5.95 30.64 6.05 28.12 C 5.95 22.71 5.96 17.30 6.05 11.89 C 6.01 9.86 7.87 8.01 9.90 8.05 C 15.87 7.91 21.83 8.04 27.80 8.01 C 28.10 7.49 28.69 6.44 28.99 5.91 M 17.99 13.92 C 16.40 15.90 17.36 18.68 17.08 21.00 C 17.30 22.66 16.57 24.84 18.09 26.05 C 20.92 26.27 20.01 22.90 20.24 21.13 C 21.79 21.13 23.35 21.13 24.90 21.12 C 24.90 22.41 24.96 23.69 25.08 24.96 C 25.43 26.43 27.43 26.27 27.88 25.02 C 28.12 21.67 28.10 18.30 27.89 14.95 C 27.63 14.69 27.13 14.17 26.87 13.91 C 24.24 13.90 25.15 17.04 24.88 18.74 C 23.34 18.74 21.79 18.73 20.25 18.74 C 20.05 16.93 20.83 13.65 17.99 13.92 M 34.41 14.46 C 33.53 17.81 34.06 21.50 34.11 24.97 C 35.90 27.08 39.52 25.77 42.00 25.74 C 43.15 22.41 38.47 23.84 36.54 23.51 C 36.54 22.91 36.55 21.71 36.55 21.11 C 38.49 20.71 42.33 22.23 41.98 18.96 C 40.17 18.92 38.36 18.96 36.55 18.80 C 36.55 18.23 36.54 17.09 36.54 16.51 C 38.49 16.44 40.44 16.47 42.38 16.21 C 42.26 15.73 42.01 14.77 41.88 14.29 C 39.46 13.95 36.71 13.52 34.41 14.46 Z" />
<path fill="#000000" opacity="1.00" d=" M 28.00 36.00 C 29.33 36.00 30.67 36.00 32.00 36.00 C 31.99 38.72 32.00 41.45 32.01 44.17 C 33.23 44.87 34.51 45.48 35.73 46.18 C 38.26 45.69 40.71 46.38 42.71 47.96 C 45.45 47.58 47.65 49.36 48.26 51.97 C 35.42 52.03 22.58 52.02 9.74 51.97 C 10.33 48.71 13.89 46.91 16.70 48.87 C 18.54 46.57 21.37 45.57 24.26 46.18 C 25.50 45.50 26.76 44.86 27.99 44.17 C 27.99 41.45 28.01 38.73 28.00 36.00 Z" />
</g>
</svg>
