<?xml version="1.0" encoding="UTF-8" ?>
<!DOCTYPE svg PUBLIC "-//W3C//DTD SVG 1.1//EN" "http://www.w3.org/Graphics/SVG/1.1/DTD/svg11.dtd">
<svg width="60pt" height="60pt" viewBox="0 0 60 60" version="1.1" xmlns="http://www.w3.org/2000/svg">
<g id="#ffffffff">
<path fill="#ffffff" opacity="1.00" d=" M 0.00 0.00 L 60.00 0.00 L 60.00 60.00 L 0.00 60.00 L 0.00 0.00 M 10.32 8.40 C 8.58 9.17 7.82 11.14 8.00 12.94 C 8.03 24.67 7.93 36.39 8.05 48.11 C 7.94 50.65 10.60 52.32 12.93 52.00 C 24.66 51.97 36.39 52.07 48.11 51.95 C 50.61 51.99 52.33 49.42 52.00 47.08 C 52.01 35.71 52.00 24.34 52.00 12.97 C 52.34 10.60 50.63 7.91 48.04 8.05 C 37.04 7.91 26.04 8.07 15.04 7.97 C 13.47 8.07 11.80 7.78 10.32 8.40 Z" />
<path fill="#ffffff" opacity="1.00" d=" M 21.53 19.94 C 22.06 18.42 21.92 16.04 24.06 15.93 C 26.26 16.15 25.87 18.44 25.89 20.01 C 29.76 19.99 33.64 20.01 37.52 20.00 C 38.05 18.48 37.90 16.09 40.02 15.93 C 42.18 16.10 41.91 18.32 41.89 19.88 C 43.32 20.09 46.10 19.76 45.93 21.96 C 46.06 24.58 42.69 23.83 41.02 24.10 C 40.34 28.03 39.72 31.97 39.02 35.89 C 40.81 36.17 43.84 35.41 44.05 38.04 C 43.63 40.79 40.39 39.78 38.46 40.06 C 37.99 41.54 38.04 43.98 35.94 44.04 C 33.73 43.89 34.13 41.54 34.11 39.99 C 30.23 40.01 26.35 40.00 22.47 40.00 C 21.99 41.49 22.08 43.91 20.00 44.05 C 17.82 43.94 18.08 41.67 18.11 40.12 C 16.56 39.96 14.09 40.21 13.96 38.02 C 14.15 35.38 17.21 36.18 18.98 35.91 C 19.66 31.97 20.27 28.03 20.98 24.10 C 19.20 23.82 16.20 24.60 15.95 22.00 C 16.28 19.20 19.60 20.22 21.53 19.94 M 25.03 24.00 C 24.36 28.00 23.70 32.00 23.02 36.00 C 27.00 36.00 30.99 36.00 34.97 36.00 C 35.64 32.00 36.30 28.00 36.98 24.00 C 32.99 24.00 29.01 24.00 25.03 24.00 Z" />
</g>
<g id="#000000ff">
<path fill="#000000" opacity="1.00" d=" M 10.32 8.40 C 11.80 7.78 13.47 8.07 15.04 7.97 C 26.04 8.07 37.04 7.91 48.04 8.05 C 50.63 7.91 52.34 10.60 52.00 12.97 C 52.00 24.34 52.01 35.71 52.00 47.08 C 52.33 49.42 50.61 51.99 48.11 51.95 C 36.39 52.07 24.66 51.97 12.93 52.00 C 10.60 52.32 7.94 50.65 8.05 48.11 C 7.93 36.39 8.03 24.67 8.00 12.94 C 7.82 11.14 8.58 9.17 10.32 8.40 M 21.53 19.94 C 19.60 20.22 16.28 19.20 15.95 22.00 C 16.20 24.60 19.20 23.82 20.98 24.10 C 20.27 28.03 19.66 31.97 18.98 35.91 C 17.21 36.18 14.15 35.38 13.96 38.02 C 14.09 40.21 16.56 39.96 18.11 40.12 C 18.08 41.67 17.82 43.94 20.00 44.05 C 22.08 43.91 21.99 41.49 22.47 40.00 C 26.35 40.00 30.23 40.01 34.11 39.99 C 34.13 41.54 33.73 43.89 35.94 44.04 C 38.04 43.98 37.99 41.54 38.46 40.06 C 40.39 39.78 43.63 40.79 44.05 38.04 C 43.84 35.41 40.81 36.17 39.02 35.89 C 39.72 31.97 40.34 28.03 41.02 24.10 C 42.69 23.83 46.06 24.58 45.93 21.96 C 46.10 19.76 43.32 20.09 41.89 19.88 C 41.91 18.32 42.18 16.10 40.02 15.93 C 37.90 16.09 38.05 18.48 37.52 20.00 C 33.64 20.01 29.76 19.99 25.89 20.01 C 25.87 18.44 26.26 16.15 24.06 15.93 C 21.92 16.04 22.06 18.42 21.53 19.94 Z" />
<path fill="#000000" opacity="1.00" d=" M 25.03 24.00 C 29.01 24.00 32.99 24.00 36.98 24.00 C 36.30 28.00 35.64 32.00 34.97 36.00 C 30.99 36.00 27.00 36.00 23.02 36.00 C 23.70 32.00 24.36 28.00 25.03 24.00 Z" />
</g>
</svg>
