<?xml version="1.0" encoding="UTF-8" ?>
<!DOCTYPE svg PUBLIC "-//W3C//DTD SVG 1.1//EN" "http://www.w3.org/Graphics/SVG/1.1/DTD/svg11.dtd">
<svg width="64pt" height="64pt" viewBox="0 0 64 64" version="1.1" xmlns="http://www.w3.org/2000/svg">
<g id="#ffffffff">
<path fill="#ffffff" opacity="1.00" d=" M 0.00 0.00 L 64.00 0.00 L 64.00 64.00 L 0.00 64.00 L 0.00 0.00 M 18.88 7.47 C 18.44 9.88 17.56 14.70 17.12 17.11 C 14.85 17.50 10.32 18.26 8.06 18.65 C 8.07 22.24 8.09 25.83 8.13 29.42 C 11.56 30.26 15.00 31.08 18.40 32.02 C 15.93 32.68 11.00 34.00 8.53 34.65 C 8.04 38.12 7.69 41.61 7.47 45.12 C 9.88 45.56 14.70 46.44 17.11 46.88 C 17.50 49.15 18.26 53.68 18.65 55.94 C 22.24 55.93 25.83 55.90 29.42 55.87 C 30.26 52.44 31.08 49.00 32.02 45.60 C 32.68 48.07 34.00 53.00 34.65 55.47 C 38.12 55.96 41.61 56.31 45.12 56.53 C 45.56 54.12 46.44 49.30 46.88 46.89 C 49.15 46.50 53.68 45.74 55.94 45.35 C 55.93 41.76 55.90 38.17 55.87 34.58 C 52.44 33.73 49.00 32.92 45.60 31.98 C 48.07 31.32 53.00 30.00 55.47 29.35 C 55.96 25.87 56.31 22.39 56.53 18.88 C 54.12 18.44 49.30 17.56 46.89 17.12 C 46.50 14.85 45.74 10.32 45.35 8.06 C 41.76 8.07 38.17 8.09 34.58 8.13 C 33.73 11.56 32.92 15.00 31.98 18.40 C 31.32 15.93 30.00 11.00 29.35 8.53 C 25.87 8.04 22.39 7.69 18.88 7.47 Z" />
<path fill="#ffffff" opacity="1.00" d=" M 22.68 12.12 C 23.76 12.06 24.83 12.00 25.90 11.94 C 25.95 14.60 26.03 19.94 26.07 22.60 C 29.88 22.38 33.69 22.03 37.48 21.55 C 37.77 19.17 38.37 14.41 38.66 12.03 C 39.52 12.06 40.38 12.08 41.25 12.10 C 41.67 14.34 42.52 18.82 42.94 21.06 C 45.17 21.47 49.64 22.28 51.88 22.68 C 51.94 23.76 52.00 24.83 52.06 25.90 C 49.40 25.95 44.06 26.03 41.40 26.07 C 41.62 29.88 41.97 33.69 42.45 37.48 C 44.83 37.77 49.59 38.37 51.97 38.66 C 51.94 39.52 51.92 40.38 51.90 41.25 C 49.66 41.67 45.18 42.52 42.94 42.94 C 42.53 45.17 41.72 49.64 41.32 51.88 C 40.24 51.94 39.17 52.00 38.10 52.06 C 38.05 49.40 37.97 44.06 37.93 41.40 C 34.11 41.62 30.31 41.97 26.52 42.45 C 26.23 44.83 25.63 49.59 25.34 51.97 C 24.48 51.94 23.62 51.92 22.75 51.90 C 22.33 49.66 21.48 45.18 21.06 42.94 C 18.83 42.53 14.36 41.72 12.12 41.32 C 12.06 40.24 12.00 39.17 11.94 38.10 C 14.60 38.05 19.94 37.97 22.60 37.93 C 22.38 34.11 22.03 30.31 21.55 26.52 C 19.17 26.23 14.41 25.63 12.03 25.34 C 12.06 24.48 12.08 23.62 12.10 22.75 C 14.34 22.33 18.82 21.48 21.06 21.06 C 21.47 18.83 22.28 14.36 22.68 12.12 M 26.00 26.00 C 26.00 30.00 26.00 34.00 26.00 38.00 C 30.00 38.00 34.00 38.00 38.00 38.00 C 38.00 34.00 38.00 30.00 38.00 26.00 C 34.00 26.00 30.00 26.00 26.00 26.00 Z" />
<path fill="#ffffff" opacity="1.00" d=" M 30.00 30.00 C 31.33 30.00 32.67 30.00 34.00 30.00 C 34.00 31.33 34.00 32.67 34.00 34.00 C 32.67 34.00 31.33 34.00 30.00 34.00 C 30.00 32.67 30.00 31.33 30.00 30.00 Z" />
</g>
<g id="#000000ff">
<path fill="#000000" opacity="1.00" d=" M 18.88 7.47 C 22.39 7.69 25.87 8.04 29.35 8.53 C 30.00 11.00 31.32 15.93 31.98 18.40 C 32.92 15.00 33.73 11.56 34.58 8.13 C 38.17 8.09 41.76 8.07 45.35 8.06 C 45.74 10.32 46.50 14.85 46.89 17.12 C 49.30 17.56 54.12 18.44 56.53 18.88 C 56.31 22.39 55.96 25.87 55.47 29.35 C 53.00 30.00 48.07 31.32 45.60 31.98 C 49.00 32.92 52.44 33.73 55.87 34.58 C 55.90 38.17 55.93 41.76 55.94 45.35 C 53.68 45.74 49.15 46.50 46.88 46.89 C 46.44 49.30 45.56 54.12 45.12 56.53 C 41.61 56.31 38.12 55.96 34.65 55.47 C 34.00 53.00 32.68 48.07 32.02 45.60 C 31.08 49.00 30.26 52.44 29.42 55.87 C 25.83 55.90 22.24 55.93 18.65 55.94 C 18.26 53.68 17.50 49.15 17.11 46.88 C 14.70 46.44 9.88 45.56 7.47 45.12 C 7.69 41.61 8.04 38.12 8.53 34.65 C 11.00 34.00 15.93 32.68 18.40 32.02 C 15.00 31.08 11.56 30.26 8.13 29.42 C 8.09 25.83 8.07 22.24 8.06 18.65 C 10.32 18.26 14.85 17.50 17.12 17.11 C 17.56 14.70 18.44 9.88 18.88 7.47 M 22.68 12.12 C 22.28 14.36 21.47 18.83 21.06 21.06 C 18.82 21.48 14.34 22.33 12.10 22.75 C 12.08 23.62 12.06 24.48 12.03 25.34 C 14.41 25.63 19.17 26.23 21.55 26.52 C 22.03 30.31 22.38 34.11 22.60 37.93 C 19.94 37.97 14.60 38.05 11.94 38.10 C 12.00 39.17 12.06 40.24 12.12 41.32 C 14.36 41.72 18.83 42.53 21.06 42.94 C 21.48 45.18 22.33 49.66 22.75 51.90 C 23.62 51.92 24.48 51.94 25.34 51.97 C 25.63 49.59 26.23 44.83 26.52 42.45 C 30.31 41.97 34.11 41.62 37.93 41.40 C 37.97 44.06 38.05 49.40 38.10 52.06 C 39.17 52.00 40.24 51.94 41.32 51.88 C 41.72 49.64 42.53 45.17 42.94 42.94 C 45.18 42.52 49.66 41.67 51.90 41.25 C 51.92 40.38 51.94 39.52 51.97 38.66 C 49.59 38.37 44.83 37.77 42.45 37.48 C 41.97 33.69 41.62 29.88 41.40 26.07 C 44.06 26.03 49.40 25.95 52.06 25.90 C 52.00 24.83 51.94 23.76 51.88 22.68 C 49.64 22.28 45.17 21.47 42.94 21.06 C 42.52 18.82 41.67 14.34 41.25 12.10 C 40.38 12.08 39.52 12.06 38.66 12.03 C 38.37 14.41 37.77 19.17 37.48 21.55 C 33.69 22.03 29.88 22.38 26.07 22.60 C 26.03 19.94 25.95 14.60 25.90 11.94 C 24.83 12.00 23.76 12.06 22.68 12.12 Z" />
<path fill="#000000" opacity="1.00" d=" M 26.00 26.00 C 30.00 26.00 34.00 26.00 38.00 26.00 C 38.00 30.00 38.00 34.00 38.00 38.00 C 34.00 38.00 30.00 38.00 26.00 38.00 C 26.00 34.00 26.00 30.00 26.00 26.00 M 30.00 30.00 C 30.00 31.33 30.00 32.67 30.00 34.00 C 31.33 34.00 32.67 34.00 34.00 34.00 C 34.00 32.67 34.00 31.33 34.00 30.00 C 32.67 30.00 31.33 30.00 30.00 30.00 Z" />
</g>
</svg>
