<?xml version="1.0" encoding="UTF-8" ?>
<!DOCTYPE svg PUBLIC "-//W3C//DTD SVG 1.1//EN" "http://www.w3.org/Graphics/SVG/1.1/DTD/svg11.dtd">
<svg width="60pt" height="60pt" viewBox="0 0 60 60" version="1.1" xmlns="http://www.w3.org/2000/svg">
<g id="#ffffffff">
<path fill="#ffffff" opacity="1.00" d=" M 0.00 0.00 L 60.00 0.00 L 60.00 38.88 C 59.02 37.58 57.97 35.88 56.08 36.07 C 50.71 35.92 45.32 35.92 39.94 36.07 C 37.85 35.99 35.99 37.87 36.07 39.95 C 35.92 45.32 35.92 50.71 36.07 56.08 C 35.88 57.95 37.57 58.97 38.82 60.00 L 0.00 60.00 L 0.00 0.00 M 8.05 11.92 C 7.93 23.64 8.03 35.36 8.00 47.08 C 7.63 49.46 9.38 52.02 11.92 51.95 C 18.61 52.10 25.31 51.94 32.00 52.00 C 32.00 49.33 32.00 46.67 32.00 44.00 C 30.00 44.00 28.00 44.00 26.00 44.00 C 26.00 42.67 26.00 41.33 26.00 40.00 C 27.98 40.00 29.95 40.00 31.93 40.00 C 32.01 38.67 32.11 37.33 32.22 36.00 C 30.15 36.00 28.07 36.00 26.00 36.00 C 26.00 34.67 26.00 33.34 26.00 32.00 C 28.84 32.29 32.07 31.20 34.62 32.85 C 40.24 31.16 46.22 32.35 52.00 32.00 C 51.94 25.29 52.11 18.58 51.94 11.88 C 51.97 9.85 50.16 7.95 48.09 8.05 C 36.38 7.93 24.67 8.03 12.96 8.00 C 10.60 7.64 7.97 9.38 8.05 11.92 Z" />
<path fill="#ffffff" opacity="1.00" d=" M 14.00 16.00 C 16.67 16.00 19.33 16.00 22.00 16.00 C 22.00 17.33 22.00 18.67 22.00 20.00 C 19.33 20.00 16.67 20.00 14.00 20.00 C 14.00 18.67 14.00 17.33 14.00 16.00 Z" />
<path fill="#ffffff" opacity="1.00" d=" M 26.00 16.00 C 28.67 16.00 31.33 16.00 34.00 16.00 C 34.00 17.33 34.00 18.67 34.00 20.00 C 31.33 20.00 28.67 20.00 26.00 20.00 C 26.00 18.67 26.00 17.33 26.00 16.00 Z" />
<path fill="#ffffff" opacity="1.00" d=" M 38.00 16.00 C 40.67 16.00 43.33 16.00 46.00 16.00 C 46.00 17.33 46.00 18.67 46.00 20.00 C 43.33 20.00 40.67 20.00 38.00 20.00 C 38.00 18.67 38.00 17.33 38.00 16.00 Z" />
<path fill="#ffffff" opacity="1.00" d=" M 14.00 24.00 C 16.67 24.00 19.33 24.00 22.00 24.00 C 22.00 25.33 22.00 26.67 22.00 28.00 C 19.33 28.00 16.67 28.00 14.00 28.00 C 14.00 26.67 14.00 25.33 14.00 24.00 Z" />
<path fill="#ffffff" opacity="1.00" d=" M 26.00 24.00 C 28.67 24.00 31.33 24.00 34.00 24.00 C 34.00 25.33 34.00 26.67 34.00 28.00 C 31.33 28.00 28.67 28.00 26.00 28.00 C 26.00 26.67 26.00 25.33 26.00 24.00 Z" />
<path fill="#ffffff" opacity="1.00" d=" M 38.00 24.00 C 40.67 24.00 43.33 24.00 46.00 24.00 C 46.00 25.33 46.00 26.67 46.00 28.00 C 43.33 28.00 40.67 28.00 38.00 28.00 C 38.00 26.67 38.00 25.33 38.00 24.00 Z" />
<path fill="#ffffff" opacity="1.00" d=" M 14.00 32.00 C 16.67 32.00 19.33 32.00 22.00 32.00 C 22.00 33.33 22.00 34.67 22.00 36.00 C 19.33 36.00 16.67 36.00 14.00 36.00 C 14.00 34.67 14.00 33.33 14.00 32.00 Z" />
<path fill="#ffffff" opacity="1.00" d=" M 14.00 40.00 C 16.67 40.00 19.33 40.00 22.00 40.00 C 22.00 41.33 22.00 42.67 22.00 44.00 C 19.33 44.00 16.67 44.00 14.00 44.00 C 14.00 42.67 14.00 41.33 14.00 40.00 Z" />
<path fill="#ffffff" opacity="1.00" d=" M 42.00 46.50 C 37.78 44.37 42.00 40.51 44.83 39.67 C 45.17 40.25 45.84 41.42 46.17 42.00 C 47.39 42.00 48.61 42.00 49.82 42.00 C 50.16 41.42 50.83 40.25 51.17 39.66 C 53.10 40.34 54.66 41.75 55.85 43.38 C 56.53 44.81 54.70 45.62 54.00 46.52 C 54.00 47.51 54.00 48.50 54.00 49.49 C 59.16 51.59 51.59 59.15 49.50 54.00 C 48.50 54.00 47.50 54.00 46.50 54.00 C 45.64 54.71 44.70 56.73 43.31 55.73 C 42.05 54.74 40.91 53.61 39.70 52.56 C 40.27 51.39 41.05 50.34 41.99 49.43 C 41.99 48.46 42.00 47.48 42.00 46.50 M 46.00 46.00 C 46.00 47.33 46.00 48.67 46.00 50.00 C 47.33 50.00 48.67 50.00 50.00 50.00 C 50.00 48.67 50.00 47.33 50.00 46.00 C 48.67 46.00 47.33 46.00 46.00 46.00 Z" />
<path fill="#ffffff" opacity="1.00" d=" M 57.36 60.00 C 57.45 58.55 59.00 57.93 60.00 57.16 L 60.00 60.00 L 57.36 60.00 Z" />
</g>
<g id="#000000ff">
<path fill="#000000" opacity="1.00" d=" M 8.05 11.92 C 7.97 9.38 10.60 7.64 12.96 8.00 C 24.67 8.03 36.38 7.93 48.09 8.05 C 50.16 7.95 51.97 9.85 51.94 11.88 C 52.11 18.58 51.94 25.29 52.00 32.00 C 46.22 32.35 40.24 31.16 34.62 32.85 C 32.07 31.20 28.84 32.29 26.00 32.00 C 26.00 33.34 26.00 34.67 26.00 36.00 C 28.07 36.00 30.15 36.00 32.22 36.00 C 32.11 37.33 32.01 38.67 31.93 40.00 C 29.95 40.00 27.98 40.00 26.00 40.00 C 26.00 41.33 26.00 42.67 26.00 44.00 C 28.00 44.00 30.00 44.00 32.00 44.00 C 32.00 46.67 32.00 49.33 32.00 52.00 C 25.31 51.94 18.61 52.10 11.92 51.95 C 9.38 52.02 7.63 49.46 8.00 47.08 C 8.03 35.36 7.93 23.64 8.05 11.92 M 14.00 16.00 C 14.00 17.33 14.00 18.67 14.00 20.00 C 16.67 20.00 19.33 20.00 22.00 20.00 C 22.00 18.67 22.00 17.33 22.00 16.00 C 19.33 16.00 16.67 16.00 14.00 16.00 M 26.00 16.00 C 26.00 17.33 26.00 18.67 26.00 20.00 C 28.67 20.00 31.33 20.00 34.00 20.00 C 34.00 18.67 34.00 17.33 34.00 16.00 C 31.33 16.00 28.67 16.00 26.00 16.00 M 38.00 16.00 C 38.00 17.33 38.00 18.67 38.00 20.00 C 40.67 20.00 43.33 20.00 46.00 20.00 C 46.00 18.67 46.00 17.33 46.00 16.00 C 43.33 16.00 40.67 16.00 38.00 16.00 M 14.00 24.00 C 14.00 25.33 14.00 26.67 14.00 28.00 C 16.67 28.00 19.33 28.00 22.00 28.00 C 22.00 26.67 22.00 25.33 22.00 24.00 C 19.33 24.00 16.67 24.00 14.00 24.00 M 26.00 24.00 C 26.00 25.33 26.00 26.67 26.00 28.00 C 28.67 28.00 31.33 28.00 34.00 28.00 C 34.00 26.67 34.00 25.33 34.00 24.00 C 31.33 24.00 28.67 24.00 26.00 24.00 M 38.00 24.00 C 38.00 25.33 38.00 26.67 38.00 28.00 C 40.67 28.00 43.33 28.00 46.00 28.00 C 46.00 26.67 46.00 25.33 46.00 24.00 C 43.33 24.00 40.67 24.00 38.00 24.00 M 14.00 32.00 C 14.00 33.33 14.00 34.67 14.00 36.00 C 16.67 36.00 19.33 36.00 22.00 36.00 C 22.00 34.67 22.00 33.33 22.00 32.00 C 19.33 32.00 16.67 32.00 14.00 32.00 M 14.00 40.00 C 14.00 41.33 14.00 42.67 14.00 44.00 C 16.67 44.00 19.33 44.00 22.00 44.00 C 22.00 42.67 22.00 41.33 22.00 40.00 C 19.33 40.00 16.67 40.00 14.00 40.00 Z" />
<path fill="#000000" opacity="1.00" d=" M 36.07 39.95 C 35.99 37.87 37.85 35.99 39.94 36.07 C 45.32 35.92 50.71 35.92 56.08 36.07 C 57.97 35.88 59.02 37.58 60.00 38.88 L 60.00 57.16 C 59.00 57.93 57.45 58.55 57.36 60.00 L 38.82 60.00 C 37.57 58.97 35.88 57.95 36.07 56.08 C 35.92 50.71 35.92 45.32 36.07 39.95 M 42.00 46.50 C 42.00 47.48 41.99 48.46 41.99 49.43 C 41.05 50.34 40.27 51.39 39.70 52.56 C 40.91 53.61 42.05 54.74 43.31 55.73 C 44.70 56.73 45.64 54.71 46.50 54.00 C 47.50 54.00 48.50 54.00 49.50 54.00 C 51.59 59.15 59.16 51.59 54.00 49.49 C 54.00 48.50 54.00 47.51 54.00 46.52 C 54.70 45.62 56.53 44.81 55.85 43.38 C 54.66 41.75 53.10 40.34 51.17 39.66 C 50.83 40.25 50.16 41.42 49.82 42.00 C 48.61 42.00 47.39 42.00 46.17 42.00 C 45.84 41.42 45.17 40.25 44.83 39.67 C 42.00 40.51 37.78 44.37 42.00 46.50 Z" />
<path fill="#000000" opacity="1.00" d=" M 46.00 46.00 C 47.33 46.00 48.67 46.00 50.00 46.00 C 50.00 47.33 50.00 48.67 50.00 50.00 C 48.67 50.00 47.33 50.00 46.00 50.00 C 46.00 48.67 46.00 47.33 46.00 46.00 Z" />
</g>
</svg>
