<?xml version="1.0" encoding="UTF-8" ?>
<!DOCTYPE svg PUBLIC "-//W3C//DTD SVG 1.1//EN" "http://www.w3.org/Graphics/SVG/1.1/DTD/svg11.dtd">
<svg width="64pt" height="64pt" viewBox="0 0 64 64" version="1.1" xmlns="http://www.w3.org/2000/svg">
<g id="#ffffffff">
<path fill="#ffffff" opacity="1.00" d=" M 0.00 0.00 L 64.00 0.00 L 64.00 21.38 C 59.40 19.95 55.42 17.14 51.94 13.88 C 52.74 13.04 53.55 12.21 54.35 11.37 C 51.90 8.94 49.45 6.50 47.00 4.07 C 46.41 4.66 45.22 5.84 44.63 6.43 C 43.81 5.62 43.00 4.81 42.18 4.00 C 38.84 7.36 35.48 10.71 32.13 14.06 C 32.94 14.88 33.75 15.70 34.56 16.52 C 24.77 26.74 15.05 37.03 5.25 47.24 C 3.32 49.33 0.96 51.23 0.00 54.01 L 0.00 0.00 Z" />
<path fill="#ffffff" opacity="1.00" d=" M 37.82 14.06 C 39.27 12.63 40.72 11.19 42.17 9.76 C 47.46 14.76 52.14 20.81 59.06 23.67 C 57.41 26.92 54.66 29.41 51.51 31.17 C 48.98 24.05 42.87 19.33 37.82 14.06 Z" />
<path fill="#ffffff" opacity="1.00" d=" M 34.42 22.49 C 35.82 21.22 37.65 17.99 39.15 21.01 C 28.22 32.48 17.31 43.97 6.33 55.38 C 5.62 56.67 3.26 55.80 4.18 54.29 C 14.12 43.57 24.40 33.14 34.42 22.49 Z" />
<path fill="#ffffff" opacity="1.00" d=" M 48.75 36.18 C 55.84 34.67 61.73 29.17 64.00 22.32 L 64.00 64.00 L 0.00 64.00 L 0.00 55.81 C 0.82 59.89 6.47 61.59 9.15 58.25 C 20.14 46.81 31.04 35.28 42.00 23.82 C 45.32 27.26 47.81 31.45 48.75 36.18 Z" />
</g>
<g id="#000000ff">
<path fill="#000000" opacity="1.00" d=" M 32.13 14.06 C 35.48 10.71 38.84 7.36 42.18 4.00 C 43.00 4.81 43.81 5.62 44.63 6.43 C 45.22 5.84 46.41 4.66 47.00 4.07 C 49.45 6.50 51.90 8.94 54.35 11.37 C 53.55 12.21 52.74 13.04 51.94 13.88 C 55.42 17.14 59.40 19.95 64.00 21.38 L 64.00 22.32 C 61.73 29.17 55.84 34.67 48.75 36.18 C 47.81 31.45 45.32 27.26 42.00 23.82 C 31.04 35.28 20.14 46.81 9.15 58.25 C 6.47 61.59 0.82 59.89 0.00 55.81 L 0.00 54.01 C 0.96 51.23 3.32 49.33 5.25 47.24 C 15.05 37.03 24.77 26.74 34.56 16.52 C 33.75 15.70 32.94 14.88 32.13 14.06 M 37.82 14.06 C 42.87 19.33 48.98 24.05 51.51 31.17 C 54.66 29.41 57.41 26.92 59.06 23.67 C 52.14 20.81 47.46 14.76 42.17 9.76 C 40.72 11.19 39.27 12.63 37.82 14.06 M 34.42 22.49 C 24.40 33.14 14.12 43.57 4.18 54.29 C 3.26 55.80 5.62 56.67 6.33 55.38 C 17.31 43.97 28.22 32.48 39.15 21.01 C 37.65 17.99 35.82 21.22 34.42 22.49 Z" />
</g>
</svg>
