<?xml version="1.0" encoding="UTF-8" ?>
<!DOCTYPE svg PUBLIC "-//W3C//DTD SVG 1.1//EN" "http://www.w3.org/Graphics/SVG/1.1/DTD/svg11.dtd">
<svg width="200pt" height="200pt" viewBox="0 0 200 200" version="1.1" xmlns="http://www.w3.org/2000/svg">
<g id="#ffffffff">
<path fill="#ffffff" opacity="1.00" d=" M 0.00 0.00 L 200.00 0.00 L 200.00 200.00 L 0.00 200.00 L 0.00 0.00 M 165.08 53.89 C 157.94 56.54 154.92 64.64 147.66 67.21 C 148.23 70.16 147.18 73.04 147.15 75.98 C 147.83 80.13 152.29 81.72 155.57 83.38 C 159.84 79.36 164.91 76.03 170.73 74.84 C 177.59 72.82 185.64 70.29 188.91 63.28 C 185.25 63.75 181.91 65.34 178.41 66.36 L 177.72 65.79 C 181.41 62.36 187.07 62.18 191.81 61.07 C 190.16 58.22 188.17 55.42 185.19 53.85 C 179.03 50.42 171.36 51.20 165.08 53.89 M 81.31 71.13 C 62.45 76.53 44.85 86.21 29.86 98.82 C 26.36 102.23 21.64 105.71 21.54 111.05 C 34.50 115.61 48.25 117.46 61.90 118.42 C 78.23 119.40 94.88 118.37 110.54 113.38 C 121.21 110.06 131.81 106.43 141.95 101.73 C 140.07 100.50 138.19 99.25 136.54 97.73 C 141.76 97.13 145.73 102.96 144.55 107.81 C 142.22 120.42 132.80 130.35 130.24 142.91 C 130.03 144.68 129.36 147.06 131.00 148.37 C 133.75 148.58 136.08 146.76 138.23 145.30 C 145.23 140.05 152.01 134.19 156.68 126.69 C 161.44 118.98 163.99 110.01 164.82 101.02 C 165.07 98.00 164.72 93.70 161.12 92.83 C 155.83 91.74 149.70 91.78 145.75 87.47 C 144.84 86.29 142.52 84.29 144.43 82.94 C 147.17 88.41 153.35 90.65 159.16 90.62 C 159.23 89.03 159.33 87.03 157.64 86.21 C 153.77 83.88 148.71 82.84 146.29 78.65 C 144.25 75.32 146.84 71.53 146.03 68.05 C 141.80 62.69 134.20 62.81 128.00 62.71 C 112.00 62.08 96.44 66.48 81.31 71.13 M 18.19 117.61 C 14.03 118.10 9.32 120.44 8.07 124.72 C 10.22 125.65 12.46 126.47 14.82 126.58 C 27.15 127.84 39.45 124.42 50.47 119.08 C 42.74 118.06 35.06 116.68 27.51 114.75 C 24.77 116.70 21.47 117.31 18.19 117.61 Z" />
<path fill="#ffffff" opacity="1.00" d=" M 172.49 54.48 C 174.93 53.88 178.02 54.73 179.21 57.10 C 178.20 60.52 169.79 57.44 172.49 54.48 Z" />
<path fill="#ffffff" opacity="1.00" d=" M 101.10 105.88 C 113.45 102.99 124.75 96.21 133.34 86.91 C 127.50 95.36 119.00 101.80 109.52 105.66 C 104.04 107.94 98.19 109.10 92.39 110.23 C 79.51 112.71 66.44 114.16 53.34 114.69 C 69.28 111.87 85.32 109.54 101.10 105.88 Z" />
</g>
<g id="#000000ff">
<path fill="#968176" opacity="1.00" d=" M 165.08 53.89 C 171.36 51.20 179.03 50.42 185.19 53.85 C 188.17 55.42 190.16 58.22 191.81 61.07 C 187.07 62.18 181.41 62.36 177.72 65.79 L 178.41 66.36 C 181.91 65.34 185.25 63.75 188.91 63.28 C 185.64 70.29 177.59 72.82 170.73 74.84 C 164.91 76.03 159.84 79.36 155.57 83.38 C 152.29 81.72 147.83 80.13 147.15 75.98 C 147.18 73.04 148.23 70.16 147.66 67.21 C 154.92 64.64 157.94 56.54 165.08 53.89 M 172.49 54.48 C 169.79 57.44 178.20 60.52 179.21 57.10 C 178.02 54.73 174.93 53.88 172.49 54.48 Z" />
<path fill="#968176" opacity="1.00" d=" M 81.31 71.13 C 96.44 66.48 112.00 62.08 128.00 62.71 C 134.20 62.81 141.80 62.69 146.03 68.05 C 146.84 71.53 144.25 75.32 146.29 78.65 C 148.71 82.84 153.77 83.88 157.64 86.21 C 159.33 87.03 159.23 89.03 159.16 90.62 C 153.35 90.65 147.17 88.41 144.43 82.94 C 142.52 84.29 144.84 86.29 145.75 87.47 C 149.70 91.78 155.83 91.74 161.12 92.83 C 164.72 93.70 165.07 98.00 164.82 101.02 C 163.99 110.01 161.44 118.98 156.68 126.69 C 152.01 134.19 145.23 140.05 138.23 145.30 C 136.08 146.76 133.75 148.58 131.00 148.37 C 129.36 147.06 130.03 144.68 130.24 142.91 C 132.80 130.35 142.22 120.42 144.55 107.81 C 145.73 102.96 141.76 97.13 136.54 97.73 C 138.19 99.25 140.07 100.50 141.95 101.73 C 131.81 106.43 121.21 110.06 110.54 113.38 C 94.88 118.37 78.23 119.40 61.90 118.42 C 48.25 117.46 34.50 115.61 21.54 111.05 C 21.64 105.71 26.36 102.23 29.86 98.82 C 44.85 86.21 62.45 76.53 81.31 71.13 M 101.10 105.88 C 85.32 109.54 69.28 111.87 53.34 114.69 C 66.44 114.16 79.51 112.71 92.39 110.23 C 98.19 109.10 104.04 107.94 109.52 105.66 C 119.00 101.80 127.50 95.36 133.34 86.91 C 124.75 96.21 113.45 102.99 101.10 105.88 Z" />
<path fill="#968176" opacity="1.00" d=" M 18.19 117.61 C 21.47 117.31 24.77 116.70 27.51 114.75 C 35.06 116.68 42.74 118.06 50.47 119.08 C 39.45 124.42 27.15 127.84 14.82 126.58 C 12.46 126.47 10.22 125.65 8.07 124.72 C 9.32 120.44 14.03 118.10 18.19 117.61 Z" />
</g>
</svg>
