<?xml version="1.0" encoding="UTF-8" ?>
<!DOCTYPE svg PUBLIC "-//W3C//DTD SVG 1.1//EN" "http://www.w3.org/Graphics/SVG/1.1/DTD/svg11.dtd">
<svg width="64pt" height="64pt" viewBox="0 0 64 64" version="1.1" xmlns="http://www.w3.org/2000/svg">
<g id="#ffffffff">
<path fill="#ffffff" opacity="1.00" d=" M 0.00 0.00 L 64.00 0.00 L 64.00 64.00 L 0.00 64.00 L 0.00 0.00 M 4.54 53.99 C 22.85 54.01 41.16 54.00 59.47 54.00 C 50.31 38.15 41.17 22.29 32.00 6.44 C 22.84 22.29 13.69 38.14 4.54 53.99 Z" />
<path fill="#ffffff" opacity="1.00" d=" M 11.46 50.00 C 18.31 38.15 25.15 26.29 32.00 14.44 C 38.87 26.28 45.68 38.16 52.55 50.00 C 38.86 50.00 25.16 50.00 11.46 50.00 M 18.39 46.00 C 27.46 46.00 36.53 46.01 45.61 45.99 C 41.07 38.14 36.55 30.28 32.00 22.44 C 27.46 30.29 22.93 38.15 18.39 46.00 Z" />
<path fill="#ffffff" opacity="1.00" d=" M 25.32 42.00 C 27.55 38.15 29.77 34.29 32.00 30.44 C 34.24 34.28 36.45 38.14 38.68 41.99 C 34.22 42.01 29.77 42.00 25.32 42.00 Z" />
</g>
<g id="#000000ff">
<path fill="#000000" opacity="1.00" d=" M 4.54 53.99 C 13.69 38.14 22.84 22.29 32.00 6.44 C 41.17 22.29 50.31 38.15 59.47 54.00 C 41.16 54.00 22.85 54.01 4.54 53.99 M 11.46 50.00 C 25.16 50.00 38.86 50.00 52.55 50.00 C 45.68 38.16 38.87 26.28 32.00 14.44 C 25.15 26.29 18.31 38.15 11.46 50.00 Z" />
<path fill="#000000" opacity="1.00" d=" M 18.39 46.00 C 22.93 38.15 27.46 30.29 32.00 22.44 C 36.55 30.28 41.07 38.14 45.61 45.99 C 36.53 46.01 27.46 46.00 18.39 46.00 M 25.32 42.00 C 29.77 42.00 34.22 42.01 38.68 41.99 C 36.45 38.14 34.24 34.28 32.00 30.44 C 29.77 34.29 27.55 38.15 25.32 42.00 Z" />
</g>
</svg>
