<?xml version="1.0" encoding="UTF-8" ?>
<!DOCTYPE svg PUBLIC "-//W3C//DTD SVG 1.1//EN" "http://www.w3.org/Graphics/SVG/1.1/DTD/svg11.dtd">
<svg width="64pt" height="64pt" viewBox="0 0 64 64" version="1.1" xmlns="http://www.w3.org/2000/svg">
<g id="#ffffffff">
<path fill="#ffffff" opacity="1.00" d=" M 0.00 0.00 L 64.00 0.00 L 64.00 64.00 L 0.00 64.00 L 0.00 0.00 M 8.00 12.33 C 8.00 20.20 8.00 28.07 8.00 35.94 C 10.05 35.94 12.11 35.93 14.16 35.90 C 12.64 38.35 11.21 41.06 11.48 44.05 C 11.60 50.10 17.03 55.39 23.09 55.34 C 26.48 55.51 29.50 53.74 32.01 51.63 C 36.47 56.16 44.39 56.69 48.93 52.01 C 53.79 47.60 53.49 39.57 48.95 35.04 C 52.03 33.22 54.79 30.52 55.60 26.91 C 57.25 20.98 53.47 14.28 47.57 12.57 C 44.22 11.39 40.66 12.27 37.54 13.70 C 35.78 13.00 33.97 12.22 32.03 12.32 C 24.02 12.32 16.01 12.35 8.00 12.33 Z" />
<path fill="#ffffff" opacity="1.00" d=" M 12.00 16.26 C 13.46 16.27 14.92 16.27 16.38 16.27 C 16.38 18.22 16.38 20.18 16.38 22.13 C 17.06 22.13 18.44 22.13 19.12 22.13 C 19.12 20.17 19.13 18.22 19.13 16.26 C 20.54 16.27 21.96 16.27 23.38 16.27 C 23.37 21.47 23.39 26.66 23.36 31.86 C 21.95 31.90 20.54 31.93 19.13 31.97 C 19.13 29.93 19.12 27.90 19.12 25.87 C 18.44 25.87 17.06 25.87 16.38 25.87 C 16.38 27.89 16.38 29.91 16.38 31.93 C 14.92 31.93 13.46 31.93 12.00 31.94 C 12.00 26.71 12.00 21.49 12.00 16.26 Z" />
<path fill="#ffffff" opacity="1.00" d=" M 25.44 16.28 C 29.54 16.40 35.31 14.91 37.03 19.96 C 39.35 16.51 44.10 14.77 47.86 16.98 C 52.94 19.50 53.35 27.43 48.62 30.51 C 44.89 33.35 39.50 31.82 37.03 28.08 C 35.44 33.19 29.53 31.84 25.43 31.92 C 25.44 26.71 25.44 21.49 25.44 16.28 M 29.50 22.65 C 30.58 22.47 31.67 22.32 32.73 22.05 C 33.48 19.64 31.21 19.74 29.51 19.54 C 29.51 20.58 29.50 21.62 29.50 22.65 M 42.37 21.32 C 40.72 22.29 40.40 24.82 41.78 26.16 C 43.30 27.82 46.53 27.16 47.02 24.88 C 48.00 22.26 44.66 19.69 42.37 21.32 M 34.93 23.46 C 34.25 26.71 38.16 22.71 34.93 23.46 M 29.51 25.45 C 29.50 26.45 29.51 27.46 29.51 28.46 C 30.97 28.55 32.15 28.08 33.04 27.03 C 32.50 25.45 30.86 25.61 29.51 25.45 Z" />
<path fill="#ffffff" opacity="1.00" d=" M 15.47 42.96 C 15.69 37.80 21.80 34.32 26.40 36.53 C 28.48 37.38 29.66 39.36 30.80 41.17 C 29.82 41.16 27.87 41.15 26.90 41.14 C 25.39 39.96 23.48 38.56 21.50 39.63 C 17.86 41.30 18.95 47.71 22.98 48.05 C 24.81 48.48 26.02 46.85 27.21 45.80 C 25.64 45.73 24.07 45.67 22.49 45.62 C 22.50 44.66 22.50 43.69 22.51 42.73 C 25.40 42.73 28.30 42.73 31.20 42.75 C 30.98 46.15 29.34 49.77 25.87 50.89 C 20.84 52.97 14.84 48.34 15.47 42.96 Z" />
<path fill="#ffffff" opacity="1.00" d=" M 38.28 36.23 C 43.57 34.19 49.71 39.41 48.41 44.97 C 47.60 50.74 39.70 53.50 35.56 49.33 C 31.20 45.70 32.78 37.79 38.28 36.23 M 39.24 41.12 C 37.02 42.26 37.59 46.06 40.05 46.48 C 42.02 47.19 44.17 45.15 43.75 43.15 C 43.51 41.13 40.88 39.88 39.24 41.12 Z" />
</g>
<g id="#000000ff">
<path fill="#000000" opacity="1.00" d=" M 8.00 12.33 C 16.01 12.35 24.02 12.32 32.03 12.32 C 33.97 12.22 35.78 13.00 37.54 13.70 C 40.66 12.27 44.22 11.39 47.57 12.57 C 53.47 14.28 57.25 20.98 55.60 26.91 C 54.79 30.52 52.03 33.22 48.95 35.04 C 53.49 39.57 53.79 47.60 48.93 52.01 C 44.39 56.69 36.47 56.16 32.01 51.63 C 29.50 53.74 26.48 55.51 23.09 55.34 C 17.03 55.39 11.60 50.10 11.48 44.05 C 11.21 41.06 12.64 38.35 14.16 35.90 C 12.11 35.93 10.05 35.94 8.00 35.94 C 8.00 28.07 8.00 20.20 8.00 12.33 M 12.00 16.26 C 12.00 21.49 12.00 26.71 12.00 31.94 C 13.46 31.93 14.92 31.93 16.38 31.93 C 16.38 29.91 16.38 27.89 16.38 25.87 C 17.06 25.87 18.44 25.87 19.12 25.87 C 19.12 27.90 19.13 29.93 19.13 31.97 C 20.54 31.93 21.95 31.90 23.36 31.86 C 23.39 26.66 23.37 21.47 23.38 16.27 C 21.96 16.27 20.54 16.27 19.13 16.26 C 19.13 18.22 19.12 20.17 19.12 22.13 C 18.44 22.13 17.06 22.13 16.38 22.13 C 16.38 20.18 16.38 18.22 16.38 16.27 C 14.92 16.27 13.46 16.27 12.00 16.26 M 25.44 16.28 C 25.44 21.49 25.44 26.71 25.43 31.92 C 29.53 31.84 35.44 33.19 37.03 28.08 C 39.50 31.82 44.89 33.35 48.62 30.51 C 53.35 27.43 52.94 19.50 47.86 16.98 C 44.10 14.77 39.35 16.51 37.03 19.96 C 35.31 14.91 29.54 16.40 25.44 16.28 M 15.47 42.96 C 14.84 48.34 20.84 52.97 25.87 50.89 C 29.34 49.77 30.98 46.15 31.20 42.75 C 28.30 42.73 25.40 42.73 22.51 42.73 C 22.50 43.69 22.50 44.66 22.49 45.62 C 24.07 45.67 25.64 45.73 27.21 45.80 C 26.02 46.85 24.81 48.48 22.98 48.05 C 18.95 47.71 17.86 41.30 21.50 39.63 C 23.48 38.56 25.39 39.96 26.90 41.14 C 27.87 41.15 29.82 41.16 30.80 41.17 C 29.66 39.36 28.48 37.38 26.40 36.53 C 21.80 34.32 15.69 37.80 15.47 42.96 M 38.28 36.23 C 32.78 37.79 31.20 45.70 35.56 49.33 C 39.70 53.50 47.60 50.74 48.41 44.97 C 49.71 39.41 43.57 34.19 38.28 36.23 Z" />
<path fill="#000000" opacity="1.00" d=" M 29.50 22.65 C 29.50 21.62 29.51 20.58 29.51 19.54 C 31.21 19.74 33.48 19.64 32.73 22.05 C 31.67 22.32 30.58 22.47 29.50 22.65 Z" />
<path fill="#000000" opacity="1.00" d=" M 42.37 21.32 C 44.66 19.69 48.00 22.26 47.02 24.88 C 46.53 27.16 43.30 27.82 41.78 26.16 C 40.40 24.82 40.72 22.29 42.37 21.32 Z" />
<path fill="#000000" opacity="1.00" d=" M 34.93 23.46 C 38.16 22.71 34.25 26.71 34.93 23.46 Z" />
<path fill="#000000" opacity="1.00" d=" M 29.51 25.45 C 30.86 25.61 32.50 25.45 33.04 27.03 C 32.15 28.08 30.97 28.55 29.51 28.46 C 29.51 27.46 29.50 26.45 29.51 25.45 Z" />
<path fill="#000000" opacity="1.00" d=" M 39.24 41.12 C 40.88 39.88 43.51 41.13 43.75 43.15 C 44.17 45.15 42.02 47.19 40.05 46.48 C 37.59 46.06 37.02 42.26 39.24 41.12 Z" />
</g>
</svg>
