<?xml version="1.0" encoding="UTF-8" ?>
<!DOCTYPE svg PUBLIC "-//W3C//DTD SVG 1.1//EN" "http://www.w3.org/Graphics/SVG/1.1/DTD/svg11.dtd">
<svg width="64pt" height="64pt" viewBox="0 0 64 64" version="1.1" xmlns="http://www.w3.org/2000/svg">
<g id="#ffffffff">
<path fill="#ffffff" opacity="1.00" d=" M 0.00 0.00 L 64.00 0.00 L 64.00 64.00 L 0.00 64.00 L 0.00 0.00 M 12.40 12.04 C 10.71 19.04 8.93 26.01 7.19 32.99 C 5.13 39.12 6.30 45.66 6.00 52.00 C 23.33 52.00 40.67 52.00 58.00 52.00 C 57.86 46.98 58.29 41.92 57.78 36.93 C 55.76 28.62 53.60 20.34 51.59 12.03 C 38.53 11.98 25.46 11.96 12.40 12.04 Z" />
<path fill="#ffffff" opacity="1.00" d=" M 15.51 16.06 C 26.47 15.91 37.42 16.08 48.37 15.97 C 50.16 22.62 51.74 29.32 53.44 36.00 C 39.15 36.00 24.86 36.00 10.57 36.00 C 12.20 29.35 13.92 22.72 15.51 16.06 Z" />
<path fill="#ffffff" opacity="1.00" d=" M 10.00 40.00 C 24.67 40.00 39.33 40.00 54.00 40.00 C 54.00 42.67 54.00 45.33 54.00 48.00 C 39.33 48.00 24.67 48.00 10.00 48.00 C 10.00 45.33 10.00 42.67 10.00 40.00 M 47.16 42.15 C 44.84 43.21 46.44 46.89 48.84 45.88 C 51.14 44.79 49.57 41.08 47.16 42.15 Z" />
</g>
<g id="#000000ff">
<path fill="#000000" opacity="1.00" d=" M 12.40 12.04 C 25.46 11.96 38.53 11.98 51.59 12.03 C 53.60 20.34 55.76 28.62 57.78 36.93 C 58.29 41.92 57.86 46.98 58.00 52.00 C 40.67 52.00 23.33 52.00 6.00 52.00 C 6.30 45.66 5.13 39.12 7.19 32.99 C 8.93 26.01 10.71 19.04 12.40 12.04 M 15.51 16.06 C 13.92 22.72 12.20 29.35 10.57 36.00 C 24.86 36.00 39.15 36.00 53.44 36.00 C 51.74 29.32 50.16 22.62 48.37 15.97 C 37.42 16.08 26.47 15.91 15.51 16.06 M 10.00 40.00 C 10.00 42.67 10.00 45.33 10.00 48.00 C 24.67 48.00 39.33 48.00 54.00 48.00 C 54.00 45.33 54.00 42.67 54.00 40.00 C 39.33 40.00 24.67 40.00 10.00 40.00 Z" />
<path fill="#000000" opacity="1.00" d=" M 47.16 42.15 C 49.57 41.08 51.14 44.79 48.84 45.88 C 46.44 46.89 44.84 43.21 47.16 42.15 Z" />
</g>
</svg>
