<?xml version="1.0" encoding="UTF-8" ?>
<!DOCTYPE svg PUBLIC "-//W3C//DTD SVG 1.1//EN" "http://www.w3.org/Graphics/SVG/1.1/DTD/svg11.dtd">
<svg width="60pt" height="60pt" viewBox="0 0 60 60" version="1.1" xmlns="http://www.w3.org/2000/svg">
<g id="#ffffffff">
<path fill="#ffffff" opacity="1.00" d=" M 0.00 0.00 L 60.00 0.00 L 60.00 60.00 L 0.00 60.00 L 0.00 0.00 M 12.36 4.38 C 10.61 5.13 9.83 7.10 10.00 8.91 C 10.03 17.97 9.92 27.04 10.05 36.10 C 9.94 38.66 12.60 40.31 14.94 40.00 C 24.99 40.00 35.05 40.01 45.10 40.00 C 47.44 40.32 50.01 38.59 49.94 36.09 C 50.08 27.03 49.97 17.97 50.00 8.92 C 50.30 6.58 48.64 3.93 46.08 4.05 C 36.38 3.89 26.67 4.08 16.97 3.97 C 15.44 4.05 13.82 3.83 12.36 4.38 M 9.98 43.06 C 10.07 46.35 9.80 49.65 10.15 52.92 C 10.50 55.14 12.94 56.21 14.98 56.00 C 25.02 56.00 35.07 56.01 45.11 56.00 C 47.13 56.22 49.34 55.09 49.83 53.02 C 50.21 49.71 49.93 46.38 50.02 43.06 C 48.39 43.52 46.74 44.03 45.02 44.01 C 37.01 44.02 29.00 43.98 20.99 44.00 C 17.31 43.98 13.51 44.37 9.98 43.06 Z" />
<path fill="#ffffff" opacity="1.00" d=" M 20.59 14.60 C 24.70 9.05 33.73 8.47 38.45 13.53 C 43.50 18.28 42.96 27.31 37.37 31.42 C 33.37 34.71 27.56 34.59 23.20 32.07 C 23.94 30.23 27.64 27.42 24.91 25.94 C 23.06 26.52 21.54 27.78 19.94 28.82 C 17.41 24.45 17.27 18.60 20.59 14.60 M 29.22 20.10 C 26.85 21.09 28.35 24.85 30.78 23.89 C 33.13 22.87 31.65 19.17 29.22 20.10 Z" />
<path fill="#ffffff" opacity="1.00" d=" M 43.19 48.10 C 45.62 47.12 47.17 50.91 44.73 51.91 C 42.33 52.79 40.90 49.13 43.19 48.10 Z" />
</g>
<g id="#000000ff">
<path fill="#000000" opacity="1.00" d=" M 12.36 4.38 C 13.82 3.83 15.44 4.05 16.97 3.97 C 26.67 4.08 36.38 3.89 46.08 4.05 C 48.64 3.93 50.30 6.58 50.00 8.92 C 49.97 17.97 50.08 27.03 49.94 36.09 C 50.01 38.59 47.44 40.32 45.10 40.00 C 35.05 40.01 24.99 40.00 14.94 40.00 C 12.60 40.31 9.94 38.66 10.05 36.10 C 9.92 27.04 10.03 17.97 10.00 8.91 C 9.83 7.10 10.61 5.13 12.36 4.38 M 20.59 14.60 C 17.27 18.60 17.41 24.45 19.94 28.82 C 21.54 27.78 23.06 26.52 24.91 25.94 C 27.64 27.42 23.94 30.23 23.20 32.07 C 27.56 34.59 33.37 34.71 37.37 31.42 C 42.96 27.31 43.50 18.28 38.45 13.53 C 33.73 8.47 24.70 9.05 20.59 14.60 Z" />
<path fill="#000000" opacity="1.00" d=" M 29.22 20.10 C 31.65 19.17 33.13 22.87 30.78 23.89 C 28.35 24.85 26.85 21.09 29.22 20.10 Z" />
<path fill="#000000" opacity="1.00" d=" M 9.98 43.06 C 13.51 44.37 17.31 43.98 20.99 44.00 C 29.00 43.98 37.01 44.02 45.02 44.01 C 46.74 44.03 48.39 43.52 50.02 43.06 C 49.93 46.38 50.21 49.71 49.83 53.02 C 49.34 55.09 47.13 56.22 45.11 56.00 C 35.07 56.01 25.02 56.00 14.98 56.00 C 12.94 56.21 10.50 55.14 10.15 52.92 C 9.80 49.65 10.07 46.35 9.98 43.06 M 43.19 48.10 C 40.90 49.13 42.33 52.79 44.73 51.91 C 47.17 50.91 45.62 47.12 43.19 48.10 Z" />
</g>
</svg>
