<?xml version="1.0" encoding="UTF-8" ?>
<!DOCTYPE svg PUBLIC "-//W3C//DTD SVG 1.1//EN" "http://www.w3.org/Graphics/SVG/1.1/DTD/svg11.dtd">
<svg width="64pt" height="64pt" viewBox="0 0 64 64" version="1.1" xmlns="http://www.w3.org/2000/svg">
<g id="#ffffffff">
<path fill="#ffffff" opacity="1.00" d=" M 0.00 0.00 L 64.00 0.00 L 64.00 64.00 L 0.00 64.00 L 0.00 0.00 M 23.55 12.79 C 16.66 14.81 10.10 19.40 7.19 26.14 C 4.89 31.44 6.13 37.79 9.75 42.19 C 14.40 47.93 21.59 51.79 29.02 51.98 C 32.28 51.96 33.85 48.53 34.58 45.84 C 36.28 39.00 36.16 31.85 35.70 24.86 C 35.26 20.96 34.85 16.71 32.31 13.53 C 30.06 11.04 26.37 12.18 23.55 12.79 M 40.00 18.00 C 40.00 19.33 40.00 20.67 40.00 22.00 C 46.00 22.00 52.00 22.00 58.00 22.00 C 58.00 20.67 58.00 19.33 58.00 18.00 C 52.00 18.00 46.00 18.00 40.00 18.00 M 40.00 26.00 C 40.00 27.33 40.00 28.67 40.00 30.00 C 46.00 30.00 52.00 30.00 58.00 30.00 C 58.00 28.67 58.00 27.33 58.00 26.00 C 52.00 26.00 46.00 26.00 40.00 26.00 M 40.00 34.00 C 40.00 35.33 40.00 36.67 40.00 38.00 C 46.00 38.00 52.00 38.00 58.00 38.00 C 58.00 36.67 58.00 35.33 58.00 34.00 C 52.00 34.00 46.00 34.00 40.00 34.00 M 40.00 42.00 C 40.00 43.33 40.00 44.67 40.00 46.00 C 46.00 46.00 52.00 46.00 58.00 46.00 C 58.00 44.67 58.00 43.33 58.00 42.00 C 52.00 42.00 46.00 42.00 40.00 42.00 Z" />
<path fill="#ffffff" opacity="1.00" d=" M 10.01 32.00 C 10.52 22.45 20.62 16.61 29.30 15.90 C 31.69 20.18 31.75 25.24 31.96 30.01 C 31.99 35.22 31.99 40.57 30.46 45.60 C 30.09 46.72 29.58 48.50 27.98 47.91 C 19.75 46.88 10.46 41.04 10.01 32.00 Z" />
</g>
<g id="#000000ff">
<path fill="#000000" opacity="1.00" d=" M 23.55 12.79 C 26.37 12.18 30.06 11.04 32.31 13.53 C 34.85 16.71 35.26 20.96 35.70 24.86 C 36.16 31.85 36.28 39.00 34.58 45.84 C 33.85 48.53 32.28 51.96 29.02 51.98 C 21.59 51.79 14.40 47.93 9.75 42.19 C 6.13 37.79 4.89 31.44 7.19 26.14 C 10.10 19.40 16.66 14.81 23.55 12.79 M 10.01 32.00 C 10.46 41.04 19.75 46.88 27.98 47.91 C 29.58 48.50 30.09 46.72 30.46 45.60 C 31.99 40.57 31.99 35.22 31.96 30.01 C 31.75 25.24 31.69 20.18 29.30 15.90 C 20.62 16.61 10.52 22.45 10.01 32.00 Z" />
<path fill="#000000" opacity="1.00" d=" M 40.00 18.00 C 46.00 18.00 52.00 18.00 58.00 18.00 C 58.00 19.33 58.00 20.67 58.00 22.00 C 52.00 22.00 46.00 22.00 40.00 22.00 C 40.00 20.67 40.00 19.33 40.00 18.00 Z" />
<path fill="#000000" opacity="1.00" d=" M 40.00 26.00 C 46.00 26.00 52.00 26.00 58.00 26.00 C 58.00 27.33 58.00 28.67 58.00 30.00 C 52.00 30.00 46.00 30.00 40.00 30.00 C 40.00 28.67 40.00 27.33 40.00 26.00 Z" />
<path fill="#000000" opacity="1.00" d=" M 40.00 34.00 C 46.00 34.00 52.00 34.00 58.00 34.00 C 58.00 35.33 58.00 36.67 58.00 38.00 C 52.00 38.00 46.00 38.00 40.00 38.00 C 40.00 36.67 40.00 35.33 40.00 34.00 Z" />
<path fill="#000000" opacity="1.00" d=" M 40.00 42.00 C 46.00 42.00 52.00 42.00 58.00 42.00 C 58.00 43.33 58.00 44.67 58.00 46.00 C 52.00 46.00 46.00 46.00 40.00 46.00 C 40.00 44.67 40.00 43.33 40.00 42.00 Z" />
</g>
</svg>
