<?xml version="1.0" encoding="UTF-8" ?>
<!DOCTYPE svg PUBLIC "-//W3C//DTD SVG 1.1//EN" "http://www.w3.org/Graphics/SVG/1.1/DTD/svg11.dtd">
<svg width="60pt" height="60pt" viewBox="0 0 60 60" version="1.1" xmlns="http://www.w3.org/2000/svg">
<g id="#ffffffff">
<path fill="#ffffff" opacity="1.00" d=" M 0.00 0.00 L 60.00 0.00 L 60.00 60.00 L 0.00 60.00 L 0.00 0.00 M 19.41 12.68 C 12.78 14.72 6.97 19.90 4.59 26.47 C 2.86 31.42 5.31 36.68 8.67 40.30 C 12.74 44.86 18.74 48.45 25.02 47.84 C 28.57 45.61 28.98 40.88 29.59 37.10 C 30.19 29.63 30.54 21.63 27.40 14.65 C 26.16 11.24 22.17 11.81 19.41 12.68 M 33.18 12.18 C 31.24 12.89 31.88 16.14 34.00 15.92 C 40.67 16.06 47.35 16.07 54.03 15.92 C 56.53 16.18 56.60 11.89 54.10 12.09 C 47.13 11.99 40.13 11.81 33.18 12.18 M 34.12 20.20 C 32.27 20.95 32.90 24.14 34.97 23.91 C 40.65 24.14 46.34 23.94 52.02 24.01 C 53.36 23.89 55.15 24.29 55.88 22.80 C 56.37 21.51 55.43 19.94 53.99 20.07 C 47.37 20.01 40.73 19.79 34.12 20.20 M 35.07 28.20 C 33.31 29.02 33.91 32.12 35.95 31.91 C 41.98 32.07 48.04 32.08 54.08 31.91 C 56.61 32.13 56.55 27.79 54.01 28.08 C 47.71 28.00 41.36 27.79 35.07 28.20 M 34.14 36.19 C 32.27 36.92 32.90 40.14 34.95 39.91 C 41.31 40.07 47.69 40.07 54.05 39.91 C 55.43 40.08 56.52 38.32 55.80 37.14 C 55.13 35.64 53.27 36.16 51.99 35.99 C 46.04 36.11 40.07 35.75 34.14 36.19 M 33.08 44.21 C 31.29 45.00 31.90 48.11 33.93 47.91 C 40.64 48.07 47.37 48.08 54.08 47.90 C 56.56 48.13 56.57 43.87 54.09 44.09 C 47.10 43.99 40.06 43.79 33.08 44.21 Z" />
</g>
<g id="#000000ff">
<path fill="#968176" opacity="1.00" d=" M 19.41 12.68 C 22.17 11.81 26.16 11.24 27.40 14.65 C 30.54 21.63 30.19 29.63 29.59 37.10 C 28.98 40.88 28.57 45.61 25.02 47.84 C 18.74 48.45 12.74 44.86 8.67 40.30 C 5.31 36.68 2.86 31.42 4.59 26.47 C 6.97 19.90 12.78 14.72 19.41 12.68 Z" />
<path fill="#968176" opacity="1.00" d=" M 33.18 12.18 C 40.13 11.81 47.13 11.99 54.10 12.09 C 56.60 11.89 56.53 16.18 54.03 15.92 C 47.35 16.07 40.67 16.06 34.00 15.92 C 31.88 16.14 31.24 12.89 33.18 12.18 Z" />
<path fill="#968176" opacity="1.00" d=" M 34.12 20.20 C 40.73 19.79 47.37 20.01 53.99 20.07 C 55.43 19.94 56.37 21.51 55.88 22.80 C 55.15 24.29 53.36 23.89 52.02 24.01 C 46.34 23.94 40.65 24.14 34.97 23.91 C 32.90 24.14 32.27 20.95 34.12 20.20 Z" />
<path fill="#968176" opacity="1.00" d=" M 35.07 28.20 C 41.36 27.79 47.71 28.00 54.01 28.08 C 56.55 27.79 56.61 32.13 54.08 31.91 C 48.04 32.08 41.98 32.07 35.95 31.91 C 33.91 32.12 33.31 29.02 35.07 28.20 Z" />
<path fill="#968176" opacity="1.00" d=" M 34.14 36.19 C 40.07 35.75 46.04 36.11 51.99 35.99 C 53.27 36.16 55.13 35.64 55.80 37.14 C 56.52 38.32 55.43 40.08 54.05 39.91 C 47.69 40.07 41.31 40.07 34.95 39.91 C 32.90 40.14 32.27 36.92 34.14 36.19 Z" />
<path fill="#968176" opacity="1.00" d=" M 33.08 44.21 C 40.06 43.79 47.10 43.99 54.09 44.09 C 56.57 43.87 56.56 48.13 54.08 47.90 C 47.37 48.08 40.64 48.07 33.93 47.91 C 31.90 48.11 31.29 45.00 33.08 44.21 Z" />
</g>
</svg>
