<?xml version="1.0" encoding="UTF-8" ?>
<!DOCTYPE svg PUBLIC "-//W3C//DTD SVG 1.1//EN" "http://www.w3.org/Graphics/SVG/1.1/DTD/svg11.dtd">
<svg width="64pt" height="64pt" viewBox="0 0 64 64" version="1.1" xmlns="http://www.w3.org/2000/svg">
<g id="#ffffffff">
<path fill="#ffffff" opacity="1.00" d=" M 0.00 0.00 L 64.00 0.00 L 64.00 64.00 L 0.00 64.00 L 0.00 0.00 M 10.13 25.90 C 9.89 30.63 9.97 35.39 10.05 40.13 C 9.93 42.64 11.91 44.41 13.80 45.70 C 14.24 48.82 15.31 52.09 18.02 53.96 C 20.35 55.91 23.49 55.95 26.36 56.13 C 28.79 58.61 32.61 58.33 35.72 57.61 C 39.05 56.24 38.50 50.83 34.98 50.14 C 32.00 49.84 28.44 49.42 26.30 52.02 C 22.23 52.77 18.29 50.23 17.74 46.06 C 19.16 46.03 20.58 46.01 22.00 45.98 C 22.00 39.98 22.00 33.99 22.00 28.00 C 19.29 28.02 16.58 27.99 13.86 27.98 C 14.18 22.54 16.54 17.13 20.96 13.81 C 27.20 8.77 36.82 8.77 43.05 13.82 C 47.47 17.14 49.81 22.55 50.13 27.98 C 47.42 27.99 44.71 28.02 42.00 28.00 C 42.00 34.00 42.00 40.00 42.00 46.00 C 44.64 45.94 47.34 46.26 49.93 45.65 C 52.69 44.79 54.27 41.83 54.00 39.04 C 53.76 32.35 54.98 25.26 52.04 18.99 C 48.22 10.25 38.30 4.70 28.85 6.24 C 19.10 7.50 10.88 16.07 10.13 25.90 Z" />
<path fill="#ffffff" opacity="1.00" d=" M 14.00 32.00 C 15.33 32.00 16.67 32.00 18.00 32.00 C 18.00 35.39 18.01 38.78 17.99 42.17 C 16.70 41.83 14.93 42.26 14.16 40.86 C 13.82 37.92 14.05 34.95 14.00 32.00 Z" />
<path fill="#ffffff" opacity="1.00" d=" M 46.00 32.00 C 47.33 32.00 48.67 32.00 50.00 32.00 C 49.95 34.95 50.19 37.92 49.83 40.86 C 49.07 42.25 47.29 41.83 46.01 42.17 C 45.99 38.78 46.00 35.39 46.00 32.00 Z" />
</g>
<g id="#000000ff">
<path fill="#000000" opacity="1.00" d=" M 10.13 25.90 C 10.88 16.07 19.10 7.50 28.85 6.24 C 38.30 4.70 48.22 10.25 52.04 18.99 C 54.98 25.26 53.76 32.35 54.00 39.04 C 54.27 41.83 52.69 44.79 49.93 45.65 C 47.34 46.26 44.64 45.94 42.00 46.00 C 42.00 40.00 42.00 34.00 42.00 28.00 C 44.71 28.02 47.42 27.99 50.13 27.98 C 49.81 22.55 47.47 17.14 43.05 13.82 C 36.82 8.77 27.20 8.77 20.96 13.81 C 16.54 17.13 14.18 22.54 13.86 27.98 C 16.58 27.99 19.29 28.02 22.00 28.00 C 22.00 33.99 22.00 39.98 22.00 45.98 C 20.58 46.01 19.16 46.03 17.74 46.06 C 18.29 50.23 22.23 52.77 26.30 52.02 C 28.44 49.42 32.00 49.84 34.98 50.14 C 38.50 50.83 39.05 56.24 35.72 57.61 C 32.61 58.33 28.79 58.61 26.36 56.13 C 23.49 55.95 20.35 55.91 18.02 53.96 C 15.31 52.09 14.24 48.82 13.80 45.70 C 11.91 44.41 9.93 42.64 10.05 40.13 C 9.97 35.39 9.89 30.63 10.13 25.90 M 14.00 32.00 C 14.05 34.95 13.82 37.92 14.16 40.86 C 14.93 42.26 16.70 41.83 17.99 42.17 C 18.01 38.78 18.00 35.39 18.00 32.00 C 16.67 32.00 15.33 32.00 14.00 32.00 M 46.00 32.00 C 46.00 35.39 45.99 38.78 46.01 42.17 C 47.29 41.83 49.07 42.25 49.83 40.86 C 50.19 37.92 49.95 34.95 50.00 32.00 C 48.67 32.00 47.33 32.00 46.00 32.00 Z" />
</g>
</svg>
