<?xml version="1.0" encoding="UTF-8" ?>
<!DOCTYPE svg PUBLIC "-//W3C//DTD SVG 1.1//EN" "http://www.w3.org/Graphics/SVG/1.1/DTD/svg11.dtd">
<svg width="64pt" height="64pt" viewBox="0 0 64 64" version="1.1" xmlns="http://www.w3.org/2000/svg">
<g id="#ffffffff">
<path fill="#ffffff" opacity="1.00" d=" M 0.00 0.00 L 64.00 0.00 L 64.00 64.00 L 0.00 64.00 L 0.00 0.00 M 8.23 24.89 C 7.14 30.87 9.92 36.48 12.34 41.75 C 14.86 46.81 13.79 52.58 14.00 58.00 C 15.33 58.00 16.67 58.00 18.00 58.00 C 18.00 51.43 18.67 44.46 15.28 38.51 C 12.01 32.69 10.60 25.29 14.27 19.30 C 19.41 9.29 34.34 6.84 42.47 14.53 C 46.08 17.75 46.93 22.68 49.12 26.78 C 50.50 29.35 51.73 31.99 53.04 34.59 C 51.36 35.09 49.68 35.59 47.99 36.09 C 47.84 39.42 48.86 43.48 46.11 46.04 C 44.08 48.42 40.78 47.99 38.00 48.04 C 38.00 51.36 38.00 54.68 38.00 58.00 C 39.33 58.00 40.67 58.00 42.00 58.00 C 42.00 56.05 41.99 54.11 42.00 52.16 C 48.38 51.64 52.95 45.47 52.07 39.22 C 54.43 38.49 57.40 37.03 56.83 34.03 C 55.34 28.91 51.97 24.57 50.33 19.49 C 47.58 11.44 39.44 5.99 31.00 6.04 C 20.05 5.29 9.58 14.01 8.23 24.89 Z" />
</g>
<g id="#000000ff">
<path fill="#000000" opacity="1.00" d=" M 8.23 24.89 C 9.58 14.01 20.05 5.29 31.00 6.04 C 39.44 5.99 47.58 11.44 50.33 19.49 C 51.97 24.57 55.34 28.91 56.83 34.03 C 57.40 37.03 54.43 38.49 52.07 39.22 C 52.95 45.47 48.38 51.64 42.00 52.16 C 41.99 54.11 42.00 56.05 42.00 58.00 C 40.67 58.00 39.33 58.00 38.00 58.00 C 38.00 54.68 38.00 51.36 38.00 48.04 C 40.78 47.99 44.08 48.42 46.11 46.04 C 48.86 43.48 47.84 39.42 47.99 36.09 C 49.68 35.59 51.36 35.09 53.04 34.59 C 51.73 31.99 50.50 29.35 49.12 26.78 C 46.93 22.68 46.08 17.75 42.47 14.53 C 34.34 6.84 19.41 9.29 14.27 19.30 C 10.60 25.29 12.01 32.69 15.28 38.51 C 18.67 44.46 18.00 51.43 18.00 58.00 C 16.67 58.00 15.33 58.00 14.00 58.00 C 13.79 52.58 14.86 46.81 12.34 41.75 C 9.92 36.48 7.14 30.87 8.23 24.89 Z" />
</g>
</svg>
