<?xml version="1.0" encoding="UTF-8" ?>
<!DOCTYPE svg PUBLIC "-//W3C//DTD SVG 1.1//EN" "http://www.w3.org/Graphics/SVG/1.1/DTD/svg11.dtd">
<svg width="64pt" height="64pt" viewBox="0 0 64 64" version="1.1" xmlns="http://www.w3.org/2000/svg">
<g id="#ffffffff">
<path fill="#ffffff" opacity="1.00" d=" M 0.00 0.00 L 64.00 0.00 L 64.00 64.00 L 0.00 64.00 L 0.00 0.00 M 38.01 2.00 C 34.69 6.67 31.33 11.32 28.00 16.00 C 30.67 16.00 33.33 16.00 36.00 16.00 C 33.34 20.66 30.67 25.32 28.02 29.98 C 35.37 24.00 42.67 17.96 50.03 12.00 C 46.69 12.00 43.36 12.00 40.02 11.99 C 43.33 8.66 46.67 5.34 49.99 2.00 C 46.00 2.00 42.00 2.00 38.01 2.00 M 12.25 18.32 C 9.39 23.81 9.98 30.19 10.05 36.17 C 9.91 38.76 12.25 40.24 14.18 41.41 C 14.75 45.32 16.13 49.19 18.91 52.09 C 23.64 57.64 32.03 59.54 38.71 56.65 C 44.91 54.15 49.07 47.95 49.82 41.41 C 51.45 40.33 53.50 39.27 53.85 37.12 C 54.20 30.18 54.63 22.65 50.76 16.50 C 49.74 17.38 48.73 18.26 47.72 19.14 C 49.52 22.56 50.13 26.40 50.07 30.24 C 48.71 30.12 47.36 30.02 46.00 29.93 C 46.00 31.25 46.00 32.56 46.00 33.87 C 47.42 34.02 50.21 33.87 49.92 36.04 C 50.14 38.13 47.44 37.95 46.07 38.12 C 46.18 42.62 44.87 47.37 41.32 50.37 C 36.08 55.33 27.03 55.07 22.09 49.81 C 18.91 46.81 17.86 42.35 17.93 38.11 C 16.45 37.98 13.93 38.11 14.00 35.95 C 14.04 33.82 16.52 34.04 18.00 33.87 C 18.00 32.56 18.00 31.25 18.00 29.93 C 16.64 30.02 15.28 30.12 13.93 30.24 C 13.21 21.74 18.52 13.23 26.78 10.77 C 27.95 9.21 29.07 7.61 30.15 6.00 C 22.60 6.75 15.53 11.42 12.25 18.32 Z" />
</g>
<g id="#000000ff">
<path fill="#000000" opacity="1.00" d=" M 38.01 2.00 C 42.00 2.00 46.00 2.00 49.99 2.00 C 46.67 5.34 43.33 8.66 40.02 11.99 C 43.36 12.00 46.69 12.00 50.03 12.00 C 42.67 17.96 35.37 24.00 28.02 29.98 C 30.67 25.32 33.34 20.66 36.00 16.00 C 33.33 16.00 30.67 16.00 28.00 16.00 C 31.33 11.32 34.69 6.67 38.01 2.00 Z" />
<path fill="#000000" opacity="1.00" d=" M 12.25 18.32 C 15.53 11.42 22.60 6.75 30.15 6.00 C 29.07 7.61 27.95 9.21 26.78 10.77 C 18.52 13.23 13.21 21.74 13.93 30.24 C 15.28 30.12 16.64 30.02 18.00 29.93 C 18.00 31.25 18.00 32.56 18.00 33.87 C 16.52 34.04 14.04 33.82 14.00 35.95 C 13.93 38.11 16.45 37.98 17.93 38.11 C 17.86 42.35 18.91 46.81 22.09 49.81 C 27.03 55.07 36.08 55.33 41.32 50.37 C 44.87 47.37 46.18 42.62 46.07 38.12 C 47.44 37.95 50.14 38.13 49.92 36.04 C 50.21 33.87 47.42 34.02 46.00 33.87 C 46.00 32.56 46.00 31.25 46.00 29.93 C 47.36 30.02 48.71 30.12 50.07 30.24 C 50.13 26.40 49.52 22.56 47.72 19.14 C 48.73 18.26 49.74 17.38 50.76 16.50 C 54.63 22.65 54.20 30.18 53.85 37.12 C 53.50 39.27 51.45 40.33 49.82 41.41 C 49.07 47.95 44.91 54.15 38.71 56.65 C 32.03 59.54 23.64 57.64 18.91 52.09 C 16.13 49.19 14.75 45.32 14.18 41.41 C 12.25 40.24 9.91 38.76 10.05 36.17 C 9.98 30.19 9.39 23.81 12.25 18.32 Z" />
</g>
</svg>
