<?xml version="1.0" encoding="UTF-8" ?>
<!DOCTYPE svg PUBLIC "-//W3C//DTD SVG 1.1//EN" "http://www.w3.org/Graphics/SVG/1.1/DTD/svg11.dtd">
<svg width="60pt" height="60pt" viewBox="0 0 60 60" version="1.1" xmlns="http://www.w3.org/2000/svg">
<g id="#ffffffff">
<path fill="#ffffff" opacity="1.00" d=" M 0.00 0.00 L 60.00 0.00 L 60.00 60.00 L 32.62 60.00 C 34.57 59.18 34.29 55.84 31.98 56.06 C 29.79 55.92 29.64 58.75 30.90 60.00 L 0.00 60.00 L 0.00 0.00 M 15.92 6.92 C 8.49 9.43 3.85 18.51 7.03 25.87 C 10.07 32.94 15.68 38.64 21.61 43.39 C 23.44 45.20 27.71 44.57 27.35 47.98 C 29.11 47.97 30.88 47.97 32.64 47.98 C 32.74 47.45 32.94 46.39 33.05 45.85 C 39.17 44.07 43.49 39.14 47.56 34.52 C 50.51 30.92 53.32 26.84 53.92 22.12 C 54.57 15.38 49.96 8.65 43.49 6.72 C 38.94 5.14 33.93 6.32 30.00 8.91 C 25.90 6.20 20.60 5.07 15.92 6.92 M 29.29 50.12 C 27.96 50.55 27.52 52.50 28.60 53.37 C 29.59 54.73 32.22 53.72 31.94 52.00 C 32.19 50.66 30.45 49.60 29.29 50.12 Z" />
</g>
<g id="#000000ff">
<path fill="#000000" opacity="1.00" d=" M 15.92 6.92 C 20.60 5.07 25.90 6.20 30.00 8.91 C 33.93 6.32 38.94 5.14 43.49 6.72 C 49.96 8.65 54.57 15.38 53.92 22.12 C 53.32 26.84 50.51 30.92 47.56 34.52 C 43.49 39.14 39.17 44.07 33.05 45.85 C 32.94 46.39 32.74 47.45 32.64 47.98 C 30.88 47.97 29.11 47.97 27.35 47.98 C 27.71 44.57 23.44 45.20 21.61 43.39 C 15.68 38.64 10.07 32.94 7.03 25.87 C 3.85 18.51 8.49 9.43 15.92 6.92 Z" />
<path fill="#000000" opacity="1.00" d=" M 29.29 50.12 C 30.45 49.60 32.19 50.66 31.94 52.00 C 32.22 53.72 29.59 54.73 28.60 53.37 C 27.52 52.50 27.96 50.55 29.29 50.12 Z" />
<path fill="#000000" opacity="1.00" d=" M 30.90 60.00 C 29.64 58.75 29.79 55.92 31.98 56.06 C 34.29 55.84 34.57 59.18 32.62 60.00 L 30.90 60.00 Z" />
</g>
</svg>
