<?xml version="1.0" encoding="UTF-8" ?>
<!DOCTYPE svg PUBLIC "-//W3C//DTD SVG 1.1//EN" "http://www.w3.org/Graphics/SVG/1.1/DTD/svg11.dtd">
<svg width="60pt" height="60pt" viewBox="0 0 60 60" version="1.1" xmlns="http://www.w3.org/2000/svg">
<g id="#ffffffff">
<path fill="#ffffff" opacity="1.00" d=" M 0.00 0.00 L 60.00 0.00 L 60.00 60.00 L 0.00 60.00 L 0.00 0.00 M 4.78 19.69 C 2.92 24.83 4.52 30.78 8.31 34.61 C 14.12 40.53 20.01 46.36 25.89 52.21 C 28.01 54.53 31.97 54.51 34.10 52.22 C 39.69 46.77 45.14 41.17 50.69 35.68 C 53.57 32.89 55.79 29.22 55.96 25.14 C 56.51 18.09 51.04 11.28 44.08 10.21 C 38.77 9.15 33.59 11.79 30.00 15.55 C 27.49 13.15 24.60 10.89 21.08 10.29 C 14.30 8.82 6.94 13.13 4.78 19.69 Z" />
<path fill="#ffffff" opacity="1.00" d=" M 38.40 14.53 C 44.23 12.41 51.15 16.74 51.86 22.87 C 52.62 26.95 50.33 30.75 47.37 33.34 C 43.32 37.20 39.28 43.09 32.83 41.85 C 24.98 41.04 21.08 30.36 26.66 24.74 C 30.45 21.25 33.50 16.52 38.40 14.53 M 35.22 28.13 C 33.36 29.65 31.65 31.37 30.13 33.24 C 29.46 34.92 31.14 36.51 32.79 35.83 C 34.66 34.33 36.36 32.62 37.88 30.77 C 38.55 29.10 36.89 27.44 35.22 28.13 Z" />
</g>
<g id="#000000ff">
<path fill="#000000" opacity="1.00" d=" M 4.78 19.69 C 6.94 13.13 14.30 8.82 21.08 10.29 C 24.60 10.89 27.49 13.15 30.00 15.55 C 33.59 11.79 38.77 9.15 44.08 10.21 C 51.04 11.28 56.51 18.09 55.96 25.14 C 55.79 29.22 53.57 32.89 50.69 35.68 C 45.14 41.17 39.69 46.77 34.10 52.22 C 31.97 54.51 28.01 54.53 25.89 52.21 C 20.01 46.36 14.12 40.53 8.31 34.61 C 4.52 30.78 2.92 24.83 4.78 19.69 M 38.40 14.53 C 33.50 16.52 30.45 21.25 26.66 24.74 C 21.08 30.36 24.98 41.04 32.83 41.85 C 39.28 43.09 43.32 37.20 47.37 33.34 C 50.33 30.75 52.62 26.95 51.86 22.87 C 51.15 16.74 44.23 12.41 38.40 14.53 Z" />
<path fill="#000000" opacity="1.00" d=" M 35.22 28.13 C 36.89 27.44 38.55 29.10 37.88 30.77 C 36.36 32.62 34.66 34.33 32.79 35.83 C 31.14 36.51 29.46 34.92 30.13 33.24 C 31.65 31.37 33.36 29.65 35.22 28.13 Z" />
</g>
</svg>
