<?xml version="1.0" encoding="UTF-8" ?>
<!DOCTYPE svg PUBLIC "-//W3C//DTD SVG 1.1//EN" "http://www.w3.org/Graphics/SVG/1.1/DTD/svg11.dtd">
<svg width="60pt" height="60pt" viewBox="0 0 60 60" version="1.1" xmlns="http://www.w3.org/2000/svg">
<g id="#ffffffff">
<path fill="#ffffff" opacity="1.00" d=" M 0.00 0.00 L 60.00 0.00 L 60.00 60.00 L 0.00 60.00 L 0.00 0.00 M 8.06 10.02 C 7.88 21.69 8.09 33.37 7.97 45.04 C 8.10 46.96 7.62 49.30 9.19 50.77 C 10.68 52.40 13.10 51.90 15.06 52.03 C 26.71 51.90 38.36 52.14 50.00 51.92 C 52.59 52.21 52.59 47.77 50.01 48.09 C 37.34 47.86 24.67 48.07 12.00 48.00 C 11.94 35.32 12.11 22.63 11.92 9.95 C 12.14 7.35 7.77 7.41 8.06 10.02 M 26.38 8.36 C 23.61 9.48 23.13 13.73 25.76 15.28 C 28.20 17.22 32.11 15.01 31.99 12.00 C 32.09 9.26 28.86 7.05 26.38 8.36 M 17.26 10.18 C 14.74 11.01 16.47 14.96 18.85 13.89 C 21.13 12.86 19.55 9.05 17.26 10.18 M 37.21 10.09 C 34.81 11.08 36.44 14.96 38.76 13.83 C 41.21 12.90 39.58 9.15 37.21 10.09 M 45.20 10.17 C 42.77 11.16 44.48 14.92 46.87 13.90 C 49.13 12.79 47.53 9.04 45.20 10.17 M 34.31 22.40 C 31.59 23.56 31.16 27.76 33.77 29.28 C 36.21 31.22 40.11 29.01 39.99 25.99 C 40.09 23.23 36.79 21.01 34.31 22.40 M 17.17 24.12 C 14.83 25.20 16.43 28.89 18.84 27.88 C 21.14 26.77 19.59 23.14 17.17 24.12 M 25.18 24.10 C 22.86 25.18 24.39 28.85 26.82 27.91 C 29.13 26.77 27.59 23.16 25.18 24.10 M 45.26 24.15 C 42.75 25.05 44.46 28.95 46.86 27.89 C 49.11 26.83 47.60 23.13 45.26 24.15 M 18.36 36.37 C 15.67 37.48 15.13 41.60 17.65 43.19 C 20.05 45.27 24.11 43.08 23.99 40.01 C 24.10 37.26 20.85 35.04 18.36 36.37 M 29.22 38.20 C 26.72 39.00 28.54 43.10 30.84 41.79 C 33.25 40.90 31.46 36.99 29.22 38.20 M 37.12 38.11 C 34.83 39.22 36.50 42.98 38.82 41.80 C 41.24 40.78 39.48 37.08 37.12 38.11 M 45.17 38.10 C 42.88 39.20 44.38 42.84 46.80 41.89 C 49.15 40.82 47.60 37.14 45.17 38.10 Z" />
</g>
<g id="#000000ff">
<path fill="#000000" opacity="1.00" d=" M 8.06 10.02 C 7.77 7.41 12.14 7.35 11.92 9.95 C 12.11 22.63 11.94 35.32 12.00 48.00 C 24.67 48.07 37.34 47.86 50.01 48.09 C 52.59 47.77 52.59 52.21 50.00 51.92 C 38.36 52.14 26.71 51.90 15.06 52.03 C 13.10 51.90 10.68 52.40 9.19 50.77 C 7.62 49.30 8.10 46.96 7.97 45.04 C 8.09 33.37 7.88 21.69 8.06 10.02 Z" />
<path fill="#000000" opacity="1.00" d=" M 26.38 8.36 C 28.86 7.05 32.09 9.26 31.99 12.00 C 32.11 15.01 28.20 17.22 25.76 15.28 C 23.13 13.73 23.61 9.48 26.38 8.36 Z" />
<path fill="#000000" opacity="1.00" d=" M 17.26 10.18 C 19.55 9.05 21.13 12.86 18.85 13.89 C 16.47 14.96 14.74 11.01 17.26 10.18 Z" />
<path fill="#000000" opacity="1.00" d=" M 37.21 10.09 C 39.58 9.15 41.21 12.90 38.76 13.83 C 36.44 14.96 34.81 11.08 37.21 10.09 Z" />
<path fill="#000000" opacity="1.00" d=" M 45.20 10.17 C 47.53 9.04 49.13 12.79 46.87 13.90 C 44.48 14.92 42.77 11.16 45.20 10.17 Z" />
<path fill="#000000" opacity="1.00" d=" M 34.31 22.40 C 36.79 21.01 40.09 23.23 39.99 25.99 C 40.11 29.01 36.21 31.22 33.77 29.28 C 31.16 27.76 31.59 23.56 34.31 22.40 Z" />
<path fill="#000000" opacity="1.00" d=" M 17.17 24.12 C 19.59 23.14 21.14 26.77 18.84 27.88 C 16.43 28.89 14.83 25.20 17.17 24.12 Z" />
<path fill="#000000" opacity="1.00" d=" M 25.18 24.10 C 27.59 23.16 29.13 26.77 26.82 27.91 C 24.39 28.85 22.86 25.18 25.18 24.10 Z" />
<path fill="#000000" opacity="1.00" d=" M 45.26 24.15 C 47.60 23.13 49.11 26.83 46.86 27.89 C 44.46 28.95 42.75 25.05 45.26 24.15 Z" />
<path fill="#000000" opacity="1.00" d=" M 18.36 36.37 C 20.85 35.04 24.10 37.26 23.99 40.01 C 24.11 43.08 20.05 45.27 17.65 43.19 C 15.13 41.60 15.67 37.48 18.36 36.37 Z" />
<path fill="#000000" opacity="1.00" d=" M 29.22 38.20 C 31.46 36.99 33.25 40.90 30.84 41.79 C 28.54 43.10 26.72 39.00 29.22 38.20 Z" />
<path fill="#000000" opacity="1.00" d=" M 37.12 38.11 C 39.48 37.08 41.24 40.78 38.82 41.80 C 36.50 42.98 34.83 39.22 37.12 38.11 Z" />
<path fill="#000000" opacity="1.00" d=" M 45.17 38.10 C 47.60 37.14 49.15 40.82 46.80 41.89 C 44.38 42.84 42.88 39.20 45.17 38.10 Z" />
</g>
</svg>
