<?xml version="1.0" encoding="UTF-8" ?>
<!DOCTYPE svg PUBLIC "-//W3C//DTD SVG 1.1//EN" "http://www.w3.org/Graphics/SVG/1.1/DTD/svg11.dtd">
<svg width="64pt" height="64pt" viewBox="0 0 64 64" version="1.1" xmlns="http://www.w3.org/2000/svg">
<g id="#ffffffff">
<path fill="#ffffff" opacity="1.00" d=" M 0.00 0.00 L 64.00 0.00 L 64.00 64.00 L 0.00 64.00 L 0.00 0.00 M 56.61 4.57 C 53.60 7.58 50.58 10.59 47.58 13.62 C 45.25 10.70 40.80 8.48 37.55 11.36 C 29.51 19.04 21.82 27.10 13.86 34.88 C 12.16 36.61 10.00 38.41 10.02 41.07 C 9.75 43.82 11.94 45.75 13.61 47.59 C 10.59 50.57 7.61 53.58 4.60 56.58 C 5.55 57.51 6.50 58.46 7.44 59.41 C 10.44 56.39 13.45 53.38 16.46 50.38 C 18.75 53.36 23.26 55.49 26.50 52.60 C 34.52 44.93 42.20 36.90 50.14 29.14 C 51.83 27.40 53.97 25.59 53.97 22.95 C 54.25 20.20 52.08 18.25 50.39 16.44 C 53.41 13.43 56.42 10.41 59.44 7.40 C 58.48 6.47 57.54 5.53 56.61 4.57 Z" />
<path fill="#ffffff" opacity="1.00" d=" M 36.62 17.79 C 38.28 16.44 39.52 13.91 41.93 14.02 C 44.84 16.45 47.56 19.15 49.98 22.07 C 50.10 24.49 47.56 25.73 46.21 27.38 C 43.01 24.19 39.81 20.99 36.62 17.79 Z" />
<path fill="#ffffff" opacity="1.00" d=" M 28.62 25.80 C 30.35 24.08 32.07 22.35 33.80 20.63 C 36.99 23.82 40.18 27.01 43.38 30.20 C 41.66 31.92 39.94 33.65 38.22 35.37 C 35.02 32.18 31.82 28.99 28.62 25.80 Z" />
<path fill="#ffffff" opacity="1.00" d=" M 20.64 33.79 C 22.36 32.07 24.09 30.35 25.81 28.63 C 29.00 31.82 32.19 35.01 35.37 38.20 C 33.65 39.93 31.92 41.65 30.20 43.37 C 27.01 40.18 23.81 37.00 20.64 33.79 Z" />
<path fill="#ffffff" opacity="1.00" d=" M 14.01 41.92 C 13.91 39.51 16.44 38.27 17.79 36.62 C 20.99 39.81 24.19 43.01 27.38 46.21 C 25.82 47.80 24.33 49.64 22.08 50.24 C 19.45 47.41 16.38 44.99 14.01 41.92 Z" />
</g>
<g id="#000000ff">
<path fill="#000000" opacity="1.00" d=" M 56.61 4.57 C 57.54 5.53 58.48 6.47 59.44 7.40 C 56.42 10.41 53.41 13.43 50.39 16.44 C 52.08 18.25 54.25 20.20 53.97 22.95 C 53.97 25.59 51.83 27.40 50.14 29.14 C 42.20 36.90 34.52 44.93 26.50 52.60 C 23.26 55.49 18.75 53.36 16.46 50.38 C 13.45 53.38 10.44 56.39 7.44 59.41 C 6.50 58.46 5.55 57.51 4.60 56.58 C 7.61 53.58 10.59 50.57 13.61 47.59 C 11.94 45.75 9.75 43.82 10.02 41.07 C 10.00 38.41 12.16 36.61 13.86 34.88 C 21.82 27.10 29.51 19.04 37.55 11.36 C 40.80 8.48 45.25 10.70 47.58 13.62 C 50.58 10.59 53.60 7.58 56.61 4.57 M 36.62 17.79 C 39.81 20.99 43.01 24.19 46.21 27.38 C 47.56 25.73 50.10 24.49 49.98 22.07 C 47.56 19.15 44.84 16.45 41.93 14.02 C 39.52 13.91 38.28 16.44 36.62 17.79 M 28.62 25.80 C 31.82 28.99 35.02 32.18 38.22 35.37 C 39.94 33.65 41.66 31.92 43.38 30.20 C 40.18 27.01 36.99 23.82 33.80 20.63 C 32.07 22.35 30.35 24.08 28.62 25.80 M 20.64 33.79 C 23.81 37.00 27.01 40.18 30.20 43.37 C 31.92 41.65 33.65 39.93 35.37 38.20 C 32.19 35.01 29.00 31.82 25.81 28.63 C 24.09 30.35 22.36 32.07 20.64 33.79 M 14.01 41.92 C 16.38 44.99 19.45 47.41 22.08 50.24 C 24.33 49.64 25.82 47.80 27.38 46.21 C 24.19 43.01 20.99 39.81 17.79 36.62 C 16.44 38.27 13.91 39.51 14.01 41.92 Z" />
</g>
</svg>
