<?xml version="1.0" encoding="UTF-8" ?>
<!DOCTYPE svg PUBLIC "-//W3C//DTD SVG 1.1//EN" "http://www.w3.org/Graphics/SVG/1.1/DTD/svg11.dtd">
<svg width="60pt" height="60pt" viewBox="0 0 60 60" version="1.1" xmlns="http://www.w3.org/2000/svg">
<g id="#ffffffff">
<path fill="#ffffff" opacity="1.00" d=" M 0.00 0.00 L 60.00 0.00 L 60.00 60.00 L 0.00 60.00 L 0.00 0.00 M 46.35 6.12 C 46.21 6.69 45.92 7.85 45.78 8.42 C 43.54 10.31 39.90 9.07 38.52 12.01 C 38.92 12.53 39.72 13.58 40.12 14.11 C 40.10 15.37 40.10 16.64 40.13 17.91 C 39.73 18.41 38.92 19.43 38.52 19.94 C 39.86 22.94 43.53 21.66 45.77 23.58 C 45.93 24.16 46.24 25.33 46.39 25.91 C 47.46 25.91 48.52 25.91 49.59 25.91 C 49.76 25.35 50.08 24.23 50.24 23.67 C 51.36 23.07 52.46 22.46 53.54 21.82 C 54.13 21.93 55.29 22.14 55.87 22.25 C 56.25 21.65 56.99 20.45 57.36 19.85 C 56.99 19.37 56.25 18.39 55.88 17.91 C 55.90 16.64 55.89 15.37 55.87 14.10 C 56.27 13.58 57.07 12.54 57.47 12.02 C 56.12 9.10 52.52 10.26 50.26 8.45 C 50.09 7.86 49.75 6.66 49.58 6.06 C 48.51 6.08 47.43 6.10 46.35 6.12 M 8.00 15.99 C 9.36 16.00 10.71 16.00 12.07 16.00 C 12.21 20.39 13.46 24.62 13.96 28.96 C 14.51 34.06 10.18 37.97 10.07 42.98 C 9.94 46.73 10.23 51.18 13.18 53.89 C 14.68 54.39 15.51 53.26 16.23 52.16 C 14.99 49.99 14.02 47.60 14.02 45.06 C 13.49 40.34 17.21 36.69 17.79 32.18 C 18.59 26.71 16.18 21.46 16.05 16.02 C 17.37 16.01 18.68 16.00 20.00 15.99 C 18.00 13.33 16.00 10.66 14.00 8.00 C 12.00 10.66 10.00 13.33 8.00 15.99 M 24.00 15.99 C 25.36 16.00 26.71 16.00 28.07 16.00 C 27.97 22.48 31.97 29.26 28.51 35.42 C 25.53 40.67 24.94 47.58 28.17 52.85 C 29.00 54.69 32.12 54.16 31.95 52.02 C 31.14 49.74 29.97 47.51 30.02 45.02 C 29.51 39.93 33.79 36.04 33.93 31.05 C 34.23 25.95 32.19 21.09 32.05 16.02 C 33.37 16.01 34.68 16.00 36.00 15.99 C 34.00 13.33 32.00 10.66 30.00 8.00 C 28.00 10.66 26.00 13.33 24.00 15.99 Z" />
<path fill="#ffffff" opacity="1.00" d=" M 46.32 12.39 C 48.79 11.01 52.07 13.21 51.99 15.96 C 52.14 19.01 48.18 21.24 45.74 19.26 C 43.16 17.72 43.61 13.55 46.32 12.39 Z" />
</g>
<g id="#000000ff">
<path fill="#000000" opacity="1.00" d=" M 46.35 6.12 C 47.43 6.10 48.51 6.08 49.58 6.06 C 49.75 6.66 50.09 7.86 50.26 8.45 C 52.52 10.26 56.12 9.10 57.47 12.02 C 57.07 12.54 56.27 13.58 55.87 14.10 C 55.89 15.37 55.90 16.64 55.88 17.91 C 56.25 18.39 56.99 19.37 57.36 19.85 C 56.99 20.45 56.25 21.65 55.87 22.25 C 55.29 22.14 54.13 21.93 53.54 21.82 C 52.46 22.46 51.36 23.07 50.24 23.67 C 50.08 24.23 49.76 25.35 49.59 25.91 C 48.52 25.91 47.46 25.91 46.39 25.91 C 46.24 25.33 45.93 24.16 45.77 23.58 C 43.53 21.66 39.86 22.94 38.52 19.94 C 38.92 19.43 39.73 18.41 40.13 17.91 C 40.10 16.64 40.10 15.37 40.12 14.11 C 39.72 13.58 38.92 12.53 38.52 12.01 C 39.90 9.07 43.54 10.31 45.78 8.42 C 45.92 7.85 46.21 6.69 46.35 6.12 M 46.32 12.39 C 43.61 13.55 43.16 17.72 45.74 19.26 C 48.18 21.24 52.14 19.01 51.99 15.96 C 52.07 13.21 48.79 11.01 46.32 12.39 Z" />
<path fill="#000000" opacity="1.00" d=" M 8.00 15.99 C 10.00 13.33 12.00 10.66 14.00 8.00 C 16.00 10.66 18.00 13.33 20.00 15.99 C 18.68 16.00 17.37 16.01 16.05 16.02 C 16.18 21.46 18.59 26.71 17.79 32.18 C 17.21 36.69 13.49 40.34 14.02 45.06 C 14.02 47.60 14.99 49.99 16.23 52.16 C 15.51 53.26 14.68 54.39 13.18 53.89 C 10.23 51.18 9.94 46.73 10.07 42.98 C 10.18 37.97 14.51 34.06 13.96 28.96 C 13.46 24.62 12.21 20.39 12.07 16.00 C 10.71 16.00 9.36 16.00 8.00 15.99 Z" />
<path fill="#000000" opacity="1.00" d=" M 24.00 15.99 C 26.00 13.33 28.00 10.66 30.00 8.00 C 32.00 10.66 34.00 13.33 36.00 15.99 C 34.68 16.00 33.37 16.01 32.05 16.02 C 32.19 21.09 34.23 25.95 33.93 31.05 C 33.79 36.04 29.51 39.93 30.02 45.02 C 29.97 47.51 31.14 49.74 31.95 52.02 C 32.12 54.16 29.00 54.69 28.17 52.85 C 24.94 47.58 25.53 40.67 28.51 35.42 C 31.97 29.26 27.97 22.48 28.07 16.00 C 26.71 16.00 25.36 16.00 24.00 15.99 Z" />
</g>
</svg>
