<?xml version="1.0" encoding="UTF-8" ?>
<!DOCTYPE svg PUBLIC "-//W3C//DTD SVG 1.1//EN" "http://www.w3.org/Graphics/SVG/1.1/DTD/svg11.dtd">
<svg width="64pt" height="64pt" viewBox="0 0 64 64" version="1.1" xmlns="http://www.w3.org/2000/svg">
<g id="#ffffffff">
<path fill="#ffffff" opacity="1.00" d=" M 0.00 0.00 L 64.00 0.00 L 64.00 64.00 L 0.00 64.00 L 0.00 0.00 M 11.99 5.99 C 12.01 10.66 12.00 15.33 12.00 20.00 C 13.33 20.00 14.66 20.00 16.00 20.00 C 16.00 16.66 16.00 13.33 15.99 9.99 C 26.66 10.01 37.34 10.01 48.01 9.99 C 48.00 13.33 48.00 16.66 48.00 20.00 C 49.33 20.00 50.67 20.00 52.00 20.00 C 52.00 15.33 51.99 10.66 52.01 5.99 C 38.67 6.01 25.33 6.01 11.99 5.99 M 12.00 24.00 C 12.00 29.33 12.00 34.67 12.00 40.00 C 13.33 40.00 14.66 40.00 15.99 40.00 C 16.00 38.00 16.00 36.00 16.01 33.99 C 16.50 33.99 17.50 33.99 17.99 33.99 C 18.00 36.00 18.00 38.00 18.01 40.00 C 19.34 40.00 20.67 40.00 22.00 40.00 C 22.00 34.67 22.00 29.33 22.00 24.00 C 20.67 24.00 19.34 24.00 18.01 24.00 C 18.00 26.00 18.00 28.00 17.99 30.01 C 17.50 30.01 16.50 30.01 16.01 30.01 C 16.00 28.00 16.00 26.00 15.99 24.00 C 14.66 24.00 13.33 24.00 12.00 24.00 M 23.99 23.99 C 24.01 29.33 24.01 34.67 23.99 40.01 C 27.33 39.99 30.66 39.99 34.00 40.00 C 34.00 38.67 34.00 37.34 34.00 36.01 C 32.00 36.00 30.00 36.00 27.99 36.00 C 27.99 35.51 27.98 34.54 27.98 34.05 C 29.32 34.01 30.66 33.98 32.00 33.95 C 32.01 32.65 32.01 31.35 32.00 30.05 C 30.66 30.02 29.32 29.98 27.98 29.95 C 27.98 29.46 27.99 28.49 27.99 28.00 C 30.00 28.00 32.00 28.00 34.00 27.99 C 34.00 26.66 34.00 25.33 34.00 24.00 C 30.66 24.01 27.33 24.01 23.99 23.99 M 36.00 24.00 C 36.00 29.33 36.00 34.67 36.00 40.00 C 37.33 40.00 38.67 40.00 40.00 40.00 C 40.00 34.67 40.00 29.33 40.00 24.00 C 38.67 24.00 37.33 24.00 36.00 24.00 M 42.12 28.07 C 41.88 30.68 41.88 33.32 42.12 35.92 C 42.56 39.10 46.59 41.11 49.35 39.38 C 51.49 38.40 51.88 35.95 52.23 33.89 C 49.80 33.63 47.71 34.50 46.08 36.29 C 45.98 33.43 45.98 30.56 46.08 27.70 C 47.70 29.49 49.79 30.37 52.23 30.11 C 51.88 28.05 51.50 25.59 49.36 24.61 C 46.60 22.89 42.55 24.88 42.12 28.07 M 12.00 44.00 C 12.00 48.67 12.01 53.34 11.99 58.01 C 25.33 57.99 38.67 57.99 52.01 58.01 C 51.99 53.34 52.00 48.67 52.00 44.00 C 50.67 44.00 49.33 44.00 48.00 44.00 C 48.00 47.33 48.00 50.67 48.01 54.01 C 37.34 53.99 26.66 53.99 15.99 54.01 C 16.00 50.67 16.00 47.33 16.00 44.00 C 14.66 44.00 13.33 44.00 12.00 44.00 Z" />
</g>
<g id="#000000ff">
<path fill="#000000" opacity="1.00" d=" M 11.99 5.99 C 25.33 6.01 38.67 6.01 52.01 5.99 C 51.99 10.66 52.00 15.33 52.00 20.00 C 50.67 20.00 49.33 20.00 48.00 20.00 C 48.00 16.66 48.00 13.33 48.01 9.99 C 37.34 10.01 26.66 10.01 15.99 9.99 C 16.00 13.33 16.00 16.66 16.00 20.00 C 14.66 20.00 13.33 20.00 12.00 20.00 C 12.00 15.33 12.01 10.66 11.99 5.99 Z" />
<path fill="#000000" opacity="1.00" d=" M 12.00 24.00 C 13.33 24.00 14.66 24.00 15.99 24.00 C 16.00 26.00 16.00 28.00 16.01 30.01 C 16.50 30.01 17.50 30.01 17.99 30.01 C 18.00 28.00 18.00 26.00 18.01 24.00 C 19.34 24.00 20.67 24.00 22.00 24.00 C 22.00 29.33 22.00 34.67 22.00 40.00 C 20.67 40.00 19.34 40.00 18.01 40.00 C 18.00 38.00 18.00 36.00 17.99 33.99 C 17.50 33.99 16.50 33.99 16.01 33.99 C 16.00 36.00 16.00 38.00 15.99 40.00 C 14.66 40.00 13.33 40.00 12.00 40.00 C 12.00 34.67 12.00 29.33 12.00 24.00 Z" />
<path fill="#000000" opacity="1.00" d=" M 23.99 23.99 C 27.33 24.01 30.66 24.01 34.00 24.00 C 34.00 25.33 34.00 26.66 34.00 27.99 C 32.00 28.00 30.00 28.00 27.99 28.00 C 27.99 28.49 27.98 29.46 27.98 29.95 C 29.32 29.98 30.66 30.02 32.00 30.05 C 32.01 31.35 32.01 32.65 32.00 33.95 C 30.66 33.98 29.32 34.01 27.98 34.05 C 27.98 34.54 27.99 35.51 27.99 36.00 C 30.00 36.00 32.00 36.00 34.00 36.01 C 34.00 37.34 34.00 38.67 34.00 40.00 C 30.66 39.99 27.33 39.99 23.99 40.01 C 24.01 34.67 24.01 29.33 23.99 23.99 Z" />
<path fill="#000000" opacity="1.00" d=" M 36.00 24.00 C 37.33 24.00 38.67 24.00 40.00 24.00 C 40.00 29.33 40.00 34.67 40.00 40.00 C 38.67 40.00 37.33 40.00 36.00 40.00 C 36.00 34.67 36.00 29.33 36.00 24.00 Z" />
<path fill="#000000" opacity="1.00" d=" M 42.12 28.07 C 42.55 24.88 46.60 22.89 49.36 24.61 C 51.50 25.59 51.88 28.05 52.23 30.11 C 49.79 30.37 47.70 29.49 46.08 27.70 C 45.98 30.56 45.98 33.43 46.08 36.29 C 47.71 34.50 49.80 33.63 52.23 33.89 C 51.88 35.95 51.49 38.40 49.35 39.38 C 46.59 41.11 42.56 39.10 42.12 35.92 C 41.88 33.32 41.88 30.68 42.12 28.07 Z" />
<path fill="#000000" opacity="1.00" d=" M 12.00 44.00 C 13.33 44.00 14.66 44.00 16.00 44.00 C 16.00 47.33 16.00 50.67 15.99 54.01 C 26.66 53.99 37.34 53.99 48.01 54.01 C 48.00 50.67 48.00 47.33 48.00 44.00 C 49.33 44.00 50.67 44.00 52.00 44.00 C 52.00 48.67 51.99 53.34 52.01 58.01 C 38.67 57.99 25.33 57.99 11.99 58.01 C 12.01 53.34 12.00 48.67 12.00 44.00 Z" />
</g>
</svg>
