<?xml version="1.0" encoding="UTF-8" ?>
<!DOCTYPE svg PUBLIC "-//W3C//DTD SVG 1.1//EN" "http://www.w3.org/Graphics/SVG/1.1/DTD/svg11.dtd">
<svg width="60pt" height="60pt" viewBox="0 0 60 60" version="1.1" xmlns="http://www.w3.org/2000/svg">
<g id="#ffffffff">
<path fill="#ffffff" opacity="1.00" d=" M 0.00 0.00 L 60.00 0.00 L 60.00 11.35 C 59.15 9.87 57.42 10.06 55.96 9.98 C 50.11 9.96 44.26 10.07 38.40 9.96 C 37.44 7.56 34.55 7.56 33.60 9.96 C 27.06 10.14 20.52 9.80 13.99 10.10 C 12.21 9.91 11.31 12.31 12.60 13.46 C 13.90 14.24 15.52 13.90 16.97 14.04 C 22.65 13.97 28.33 14.01 34.01 14.00 C 33.99 16.00 33.99 18.00 34.01 20.00 C 24.41 20.00 14.82 20.00 5.23 20.00 C 4.54 17.96 5.01 14.18 2.09 14.01 C 1.57 14.28 0.52 14.83 0.00 15.10 L 0.00 0.00 Z" />
<path fill="#ffffff" opacity="1.00" d=" M 51.03 14.00 C 54.04 13.99 57.14 14.38 60.00 13.21 L 60.00 47.35 C 57.14 43.41 55.27 50.22 52.11 49.92 C 41.41 50.20 30.68 49.79 19.98 50.09 C 18.49 49.97 17.67 51.56 18.10 52.85 C 19.20 54.48 21.38 53.83 23.03 54.04 C 32.72 53.90 42.42 54.12 52.11 53.94 C 55.60 54.03 58.31 51.44 60.00 48.65 L 60.00 60.00 L 0.00 60.00 L 0.00 23.81 C 0.50 24.96 0.98 26.34 2.32 26.74 C 6.50 28.73 11.15 29.58 15.26 31.75 C 19.87 34.94 20.94 41.31 25.78 44.24 C 29.09 46.39 33.20 45.98 36.96 46.02 C 41.28 45.85 45.62 46.33 49.91 45.73 C 52.89 45.20 54.64 42.57 55.92 40.07 C 53.39 40.04 50.79 40.18 48.32 39.53 C 44.43 38.25 42.88 34.05 41.44 30.61 C 40.87 29.63 41.77 28.04 42.96 28.14 C 46.61 27.76 50.30 28.13 53.96 27.94 C 50.56 22.52 44.35 19.52 37.99 19.89 C 38.00 17.92 38.01 15.96 38.00 14.00 C 42.34 14.01 46.69 13.99 51.03 14.00 Z" />
</g>
<g id="#000000ff">
<path fill="#000000" opacity="1.00" d=" M 33.60 9.96 C 34.55 7.56 37.44 7.56 38.40 9.96 C 44.26 10.07 50.11 9.96 55.96 9.98 C 57.42 10.06 59.15 9.87 60.00 11.35 L 60.00 13.21 C 57.14 14.38 54.04 13.99 51.03 14.00 C 46.69 13.99 42.34 14.01 38.00 14.00 C 38.01 15.96 38.00 17.92 37.99 19.89 C 44.35 19.52 50.56 22.52 53.96 27.94 C 50.30 28.13 46.61 27.76 42.96 28.14 C 41.77 28.04 40.87 29.63 41.44 30.61 C 42.88 34.05 44.43 38.25 48.32 39.53 C 50.79 40.18 53.39 40.04 55.92 40.07 C 54.64 42.57 52.89 45.20 49.91 45.73 C 45.62 46.33 41.28 45.85 36.96 46.02 C 33.20 45.98 29.09 46.39 25.78 44.24 C 20.94 41.31 19.87 34.94 15.26 31.75 C 11.15 29.58 6.50 28.73 2.32 26.74 C 0.98 26.34 0.50 24.96 0.00 23.81 L 0.00 15.10 C 0.52 14.83 1.57 14.28 2.09 14.01 C 5.01 14.18 4.54 17.96 5.23 20.00 C 14.82 20.00 24.41 20.00 34.01 20.00 C 33.99 18.00 33.99 16.00 34.01 14.00 C 28.33 14.01 22.65 13.97 16.97 14.04 C 15.52 13.90 13.90 14.24 12.60 13.46 C 11.31 12.31 12.21 9.91 13.99 10.10 C 20.52 9.80 27.06 10.14 33.60 9.96 Z" />
<path fill="#000000" opacity="1.00" d=" M 52.11 49.92 C 55.27 50.22 57.14 43.41 60.00 47.35 L 60.00 48.65 C 58.31 51.44 55.60 54.03 52.11 53.94 C 42.42 54.12 32.72 53.90 23.03 54.04 C 21.38 53.83 19.20 54.48 18.10 52.85 C 17.67 51.56 18.49 49.97 19.98 50.09 C 30.68 49.79 41.41 50.20 52.11 49.92 Z" />
</g>
</svg>
