<?xml version="1.0" encoding="UTF-8" ?>
<!DOCTYPE svg PUBLIC "-//W3C//DTD SVG 1.1//EN" "http://www.w3.org/Graphics/SVG/1.1/DTD/svg11.dtd">
<svg width="64pt" height="64pt" viewBox="0 0 64 64" version="1.1" xmlns="http://www.w3.org/2000/svg">
<g id="#ffffffff">
<path fill="#ffffff" opacity="1.00" d=" M 0.00 0.00 L 64.00 0.00 L 64.00 64.00 L 0.00 64.00 L 0.00 0.00 M 19.98 10.02 C 15.33 13.39 12.69 18.85 11.93 24.44 C 9.95 26.10 7.87 28.20 8.00 31.00 C 7.87 33.93 10.08 36.10 12.22 37.74 C 13.78 44.93 17.62 52.06 24.16 55.84 C 28.68 58.53 34.56 58.69 39.20 56.18 C 46.10 52.57 50.18 45.20 51.73 37.79 C 53.87 36.11 56.13 33.96 56.00 31.00 C 56.12 28.20 54.04 26.09 52.06 24.44 C 51.30 18.86 48.68 13.42 44.05 10.06 C 37.21 4.70 26.84 4.68 19.98 10.02 Z" />
<path fill="#ffffff" opacity="1.00" d=" M 27.99 10.34 C 30.67 10.01 33.38 10.01 36.06 10.35 C 36.00 11.55 35.93 12.74 35.85 13.93 C 33.27 14.02 30.70 14.01 28.12 13.91 C 28.07 12.72 28.02 11.53 27.99 10.34 Z" />
<path fill="#ffffff" opacity="1.00" d=" M 21.29 13.97 C 22.82 12.96 24.39 11.99 25.99 11.09 C 25.96 11.80 25.90 13.22 25.87 13.93 C 24.34 13.94 22.82 13.95 21.29 13.97 Z" />
<path fill="#ffffff" opacity="1.00" d=" M 38.00 11.09 C 39.60 11.99 41.16 12.95 42.70 13.96 C 41.18 13.95 39.66 13.94 38.15 13.94 C 38.11 13.23 38.03 11.80 38.00 11.09 Z" />
<path fill="#ffffff" opacity="1.00" d=" M 19.97 15.97 C 21.96 16.00 23.95 16.03 25.94 16.11 C 25.98 18.04 25.97 19.98 25.92 21.91 C 23.99 21.98 22.05 21.98 20.11 21.93 C 20.03 19.94 20.00 17.96 19.97 15.97 Z" />
<path fill="#ffffff" opacity="1.00" d=" M 28.08 16.10 C 30.69 15.97 33.31 15.99 35.92 16.10 C 35.98 18.03 35.98 19.97 35.93 21.90 C 33.31 22.01 30.70 22.03 28.09 21.90 C 28.02 19.97 28.02 18.03 28.08 16.10 Z" />
<path fill="#ffffff" opacity="1.00" d=" M 38.07 16.11 C 40.06 16.03 42.05 16.00 44.03 15.97 C 44.00 17.96 43.97 19.95 43.89 21.94 C 41.95 21.98 40.02 21.97 38.09 21.92 C 38.02 19.98 38.02 18.05 38.07 16.11 Z" />
<path fill="#ffffff" opacity="1.00" d=" M 17.42 19.27 C 18.85 19.34 18.49 21.78 17.37 22.13 C 15.90 22.10 16.40 19.68 17.42 19.27 Z" />
<path fill="#ffffff" opacity="1.00" d=" M 46.01 19.42 C 47.32 18.79 47.96 21.20 47.22 22.00 C 45.86 22.62 45.20 20.25 46.01 19.42 Z" />
<path fill="#ffffff" opacity="1.00" d=" M 16.21 23.55 C 19.15 24.35 17.68 27.73 17.91 29.92 C 15.83 30.00 13.74 29.97 11.66 29.84 C 13.02 28.89 14.47 28.09 15.96 27.39 C 16.03 26.11 16.11 24.83 16.21 23.55 Z" />
<path fill="#ffffff" opacity="1.00" d=" M 20.09 24.09 C 21.84 24.05 23.58 24.02 25.33 23.96 C 25.82 24.85 26.81 26.63 27.31 27.52 C 27.59 26.64 28.14 24.88 28.41 24.00 C 30.80 24.00 33.20 24.00 35.59 24.00 C 35.86 24.88 36.41 26.64 36.69 27.52 C 37.18 26.63 38.18 24.84 38.67 23.95 C 40.42 24.02 42.16 24.05 43.91 24.10 C 44.05 28.70 44.05 33.30 43.91 37.91 C 42.16 37.95 40.42 37.98 38.67 38.05 C 38.18 37.16 37.18 35.37 36.69 34.47 C 36.41 35.35 35.86 37.11 35.59 38.00 C 33.20 38.00 30.80 38.00 28.41 38.00 C 28.14 37.12 27.59 35.35 27.31 34.47 C 26.82 35.37 25.82 37.15 25.33 38.05 C 23.58 37.98 21.84 37.95 20.09 37.91 C 19.95 33.30 19.95 28.69 20.09 24.09 M 23.40 28.47 C 21.29 29.66 21.73 33.31 24.15 33.82 C 26.26 34.69 28.69 32.22 27.82 30.12 C 27.38 28.27 24.96 27.44 23.40 28.47 M 37.45 28.45 C 34.06 30.31 37.38 35.78 40.61 33.51 C 43.86 31.61 40.64 26.32 37.45 28.45 Z" />
<path fill="#ffffff" opacity="1.00" d=" M 46.09 29.93 C 46.33 27.73 44.82 24.29 47.83 23.57 C 47.90 24.85 47.95 26.14 47.99 27.43 C 49.51 28.09 50.98 28.87 52.33 29.84 C 50.25 29.98 48.17 29.99 46.09 29.93 Z" />
<path fill="#ffffff" opacity="1.00" d=" M 11.67 32.15 C 13.75 32.02 15.84 32.00 17.93 32.09 C 17.78 34.27 18.82 37.10 16.65 38.58 C 16.37 37.22 16.12 35.85 15.91 34.47 C 14.41 33.86 12.98 33.10 11.67 32.15 Z" />
<path fill="#ffffff" opacity="1.00" d=" M 46.07 32.09 C 48.16 32.01 50.24 32.02 52.33 32.16 C 51.01 33.10 49.58 33.86 48.09 34.48 C 47.88 35.85 47.63 37.21 47.36 38.57 C 45.16 37.11 46.23 34.26 46.07 32.09 Z" />
<path fill="#ffffff" opacity="1.00" d=" M 17.16 40.20 C 20.45 40.66 15.33 42.94 17.16 40.20 Z" />
<path fill="#ffffff" opacity="1.00" d=" M 20.12 40.06 C 22.05 40.02 23.99 40.03 25.92 40.08 C 25.97 42.02 25.98 43.95 25.94 45.89 C 23.95 45.96 21.96 46.00 19.96 46.04 C 20.00 44.04 20.03 42.05 20.12 40.06 Z" />
<path fill="#ffffff" opacity="1.00" d=" M 28.07 40.10 C 30.69 39.98 33.31 39.98 35.93 40.10 C 35.98 42.03 35.98 43.97 35.92 45.90 C 33.31 46.02 30.69 46.02 28.08 45.90 C 28.02 43.97 28.02 42.04 28.07 40.10 Z" />
<path fill="#ffffff" opacity="1.00" d=" M 38.09 40.07 C 40.03 40.03 41.96 40.02 43.89 40.07 C 43.97 42.05 44.00 44.04 44.03 46.03 C 42.05 46.00 40.06 45.97 38.07 45.89 C 38.01 43.95 38.02 42.01 38.09 40.07 Z" />
<path fill="#ffffff" opacity="1.00" d=" M 46.03 40.28 C 49.35 40.11 44.78 43.31 46.03 40.28 Z" />
<path fill="#ffffff" opacity="1.00" d=" M 21.03 47.98 C 22.66 48.01 24.29 48.05 25.91 48.10 C 25.95 49.57 25.97 51.04 25.97 52.50 C 24.23 51.10 22.60 49.57 21.03 47.98 Z" />
<path fill="#ffffff" opacity="1.00" d=" M 28.12 48.07 C 30.72 47.98 33.33 47.98 35.93 48.11 C 35.83 49.85 36.40 51.81 35.63 53.43 C 33.12 54.28 30.47 53.88 27.94 53.39 C 28.01 51.62 28.06 49.84 28.12 48.07 Z" />
<path fill="#ffffff" opacity="1.00" d=" M 38.09 48.09 C 39.72 48.05 41.34 48.03 42.97 48.01 C 41.40 49.60 39.75 51.09 38.03 52.50 C 38.04 51.03 38.06 49.56 38.09 48.09 Z" />
</g>
<g id="#000000ff">
<path fill="#000000" opacity="1.00" d=" M 19.98 10.02 C 26.84 4.68 37.21 4.70 44.05 10.06 C 48.68 13.42 51.30 18.86 52.06 24.44 C 54.04 26.09 56.12 28.20 56.00 31.00 C 56.13 33.96 53.87 36.11 51.73 37.79 C 50.18 45.20 46.10 52.57 39.20 56.18 C 34.56 58.69 28.68 58.53 24.16 55.84 C 17.62 52.06 13.78 44.93 12.22 37.74 C 10.08 36.10 7.87 33.93 8.00 31.00 C 7.87 28.20 9.95 26.10 11.93 24.44 C 12.69 18.85 15.33 13.39 19.98 10.02 M 27.99 10.34 C 28.02 11.53 28.07 12.72 28.12 13.91 C 30.70 14.01 33.27 14.02 35.85 13.93 C 35.93 12.74 36.00 11.55 36.06 10.35 C 33.38 10.01 30.67 10.01 27.99 10.34 M 21.29 13.97 C 22.82 13.95 24.34 13.94 25.87 13.93 C 25.90 13.22 25.96 11.80 25.99 11.09 C 24.39 11.99 22.82 12.96 21.29 13.97 M 38.00 11.09 C 38.03 11.80 38.11 13.23 38.15 13.94 C 39.66 13.94 41.18 13.95 42.70 13.96 C 41.16 12.95 39.60 11.99 38.00 11.09 M 19.97 15.97 C 20.00 17.96 20.03 19.94 20.11 21.93 C 22.05 21.98 23.99 21.98 25.92 21.91 C 25.97 19.98 25.98 18.04 25.94 16.11 C 23.95 16.03 21.96 16.00 19.97 15.97 M 28.08 16.10 C 28.02 18.03 28.02 19.97 28.09 21.90 C 30.70 22.03 33.31 22.01 35.93 21.90 C 35.98 19.97 35.98 18.03 35.92 16.10 C 33.31 15.99 30.69 15.97 28.08 16.10 M 38.07 16.11 C 38.02 18.05 38.02 19.98 38.09 21.92 C 40.02 21.97 41.95 21.98 43.89 21.94 C 43.97 19.95 44.00 17.96 44.03 15.97 C 42.05 16.00 40.06 16.03 38.07 16.11 M 17.42 19.27 C 16.40 19.68 15.90 22.10 17.37 22.13 C 18.49 21.78 18.85 19.34 17.42 19.27 M 46.01 19.42 C 45.20 20.25 45.86 22.62 47.22 22.00 C 47.96 21.20 47.32 18.79 46.01 19.42 M 16.21 23.55 C 16.11 24.83 16.03 26.11 15.96 27.39 C 14.47 28.09 13.02 28.89 11.66 29.84 C 13.74 29.97 15.83 30.00 17.91 29.92 C 17.68 27.73 19.15 24.35 16.21 23.55 M 20.09 24.09 C 19.95 28.69 19.95 33.30 20.09 37.91 C 21.84 37.95 23.58 37.98 25.33 38.05 C 25.82 37.15 26.82 35.37 27.31 34.47 C 27.59 35.35 28.14 37.12 28.41 38.00 C 30.80 38.00 33.20 38.00 35.59 38.00 C 35.86 37.11 36.41 35.35 36.69 34.47 C 37.18 35.37 38.18 37.16 38.67 38.05 C 40.42 37.98 42.16 37.95 43.91 37.91 C 44.05 33.30 44.05 28.70 43.91 24.10 C 42.16 24.05 40.42 24.02 38.67 23.95 C 38.18 24.84 37.18 26.63 36.69 27.52 C 36.41 26.64 35.86 24.88 35.59 24.00 C 33.20 24.00 30.80 24.00 28.41 24.00 C 28.14 24.88 27.59 26.64 27.31 27.52 C 26.81 26.63 25.82 24.85 25.33 23.96 C 23.58 24.02 21.84 24.05 20.09 24.09 M 46.09 29.93 C 48.17 29.99 50.25 29.98 52.33 29.84 C 50.98 28.87 49.51 28.09 47.99 27.43 C 47.95 26.14 47.90 24.85 47.83 23.57 C 44.82 24.29 46.33 27.73 46.09 29.93 M 11.67 32.15 C 12.98 33.10 14.41 33.86 15.91 34.47 C 16.12 35.85 16.37 37.22 16.65 38.58 C 18.82 37.10 17.78 34.27 17.93 32.09 C 15.84 32.00 13.75 32.02 11.67 32.15 M 46.07 32.09 C 46.23 34.26 45.16 37.11 47.36 38.57 C 47.63 37.21 47.88 35.85 48.09 34.48 C 49.58 33.86 51.01 33.10 52.33 32.16 C 50.24 32.02 48.16 32.01 46.07 32.09 M 17.16 40.20 C 15.33 42.94 20.45 40.66 17.16 40.20 M 20.12 40.06 C 20.03 42.05 20.00 44.04 19.96 46.04 C 21.96 46.00 23.95 45.96 25.94 45.89 C 25.98 43.95 25.97 42.02 25.92 40.08 C 23.99 40.03 22.05 40.02 20.12 40.06 M 28.07 40.10 C 28.02 42.04 28.02 43.97 28.08 45.90 C 30.69 46.02 33.31 46.02 35.92 45.90 C 35.98 43.97 35.98 42.03 35.93 40.10 C 33.31 39.98 30.69 39.98 28.07 40.10 M 38.09 40.07 C 38.02 42.01 38.01 43.95 38.07 45.89 C 40.06 45.97 42.05 46.00 44.03 46.03 C 44.00 44.04 43.97 42.05 43.89 40.07 C 41.96 40.02 40.03 40.03 38.09 40.07 M 46.03 40.28 C 44.78 43.31 49.35 40.11 46.03 40.28 M 21.03 47.98 C 22.60 49.57 24.23 51.10 25.97 52.50 C 25.97 51.04 25.95 49.57 25.91 48.10 C 24.29 48.05 22.66 48.01 21.03 47.98 M 28.12 48.07 C 28.06 49.84 28.01 51.62 27.94 53.39 C 30.47 53.88 33.12 54.28 35.63 53.43 C 36.40 51.81 35.83 49.85 35.93 48.11 C 33.33 47.98 30.72 47.98 28.12 48.07 M 38.09 48.09 C 38.06 49.56 38.04 51.03 38.03 52.50 C 39.75 51.09 41.40 49.60 42.97 48.01 C 41.34 48.03 39.72 48.05 38.09 48.09 Z" />
<path fill="#000000" opacity="1.00" d=" M 23.40 28.47 C 24.96 27.44 27.38 28.27 27.82 30.12 C 28.69 32.22 26.26 34.69 24.15 33.82 C 21.73 33.31 21.29 29.66 23.40 28.47 Z" />
<path fill="#000000" opacity="1.00" d=" M 37.45 28.45 C 40.64 26.32 43.86 31.61 40.61 33.51 C 37.38 35.78 34.06 30.31 37.45 28.45 Z" />
</g>
</svg>
