<?xml version="1.0" encoding="UTF-8" ?>
<!DOCTYPE svg PUBLIC "-//W3C//DTD SVG 1.1//EN" "http://www.w3.org/Graphics/SVG/1.1/DTD/svg11.dtd">
<svg width="60pt" height="60pt" viewBox="0 0 60 60" version="1.1" xmlns="http://www.w3.org/2000/svg">
<g id="#ffffffff">
<path fill="#ffffff" opacity="1.00" d=" M 0.00 0.00 L 60.00 0.00 L 60.00 60.00 L 0.00 60.00 L 0.00 0.00 M 21.40 8.68 C 16.38 10.24 12.23 14.36 10.68 19.39 C 9.51 23.23 10.29 27.28 9.88 31.22 C 8.33 36.27 5.07 40.72 4.02 45.95 C 3.85 49.58 7.43 52.43 10.93 52.00 C 23.99 51.97 37.06 52.08 50.13 51.95 C 53.62 52.03 56.73 48.39 55.79 44.95 C 54.45 40.16 51.60 35.94 50.12 31.20 C 49.72 27.28 50.47 23.24 49.32 19.41 C 47.39 12.85 40.89 7.91 34.02 8.02 C 29.82 8.06 25.50 7.59 21.40 8.68 Z" />
<path fill="#ffffff" opacity="1.00" d=" M 21.56 12.67 C 26.04 11.76 30.65 11.88 35.19 12.12 C 40.41 12.45 44.97 16.78 45.76 21.91 C 46.05 23.93 46.01 25.97 46.04 28.00 C 38.69 28.07 31.34 27.86 23.99 28.08 C 21.85 27.87 21.22 31.13 23.22 31.81 C 27.26 32.25 31.34 31.91 35.40 31.99 C 35.15 33.88 34.68 37.81 37.74 37.20 C 38.43 35.74 38.82 34.13 39.69 32.75 C 41.48 31.49 43.87 32.17 45.92 31.96 C 47.75 36.14 49.57 40.32 51.55 44.42 C 47.30 41.82 43.42 37.40 37.98 37.97 C 31.63 38.11 25.26 37.80 18.92 38.14 C 14.95 39.28 11.88 42.35 8.39 44.46 C 10.43 40.44 12.14 36.27 14.02 32.18 C 15.37 31.88 18.19 32.11 17.93 30.01 C 18.19 27.87 15.33 28.12 13.96 27.80 C 13.47 22.67 14.74 17.18 19.12 14.01 C 20.34 16.67 18.97 19.03 16.57 20.28 C 16.97 21.49 17.67 22.53 18.75 23.23 C 19.41 22.00 20.06 20.77 20.73 19.55 C 23.04 20.55 25.76 20.76 26.96 18.09 C 24.57 16.92 21.79 15.74 21.56 12.67 M 37.83 18.23 C 35.38 17.99 33.10 18.85 32.07 21.23 C 33.77 21.92 35.60 22.17 37.31 22.84 C 38.60 24.11 38.94 26.01 39.80 27.56 C 40.60 25.67 41.61 23.54 40.17 21.66 C 37.62 19.13 43.22 16.31 39.89 14.28 C 37.89 14.51 38.33 16.86 37.83 18.23 Z" />
</g>
<g id="#000000ff">
<path fill="#000000" opacity="1.00" d=" M 21.40 8.68 C 25.50 7.59 29.82 8.06 34.02 8.02 C 40.89 7.91 47.39 12.85 49.32 19.41 C 50.47 23.24 49.72 27.28 50.12 31.20 C 51.60 35.94 54.45 40.16 55.79 44.95 C 56.73 48.39 53.62 52.03 50.13 51.95 C 37.06 52.08 23.99 51.97 10.93 52.00 C 7.43 52.43 3.85 49.58 4.02 45.95 C 5.07 40.72 8.33 36.27 9.88 31.22 C 10.29 27.28 9.51 23.23 10.68 19.39 C 12.23 14.36 16.38 10.24 21.40 8.68 M 21.56 12.67 C 21.79 15.74 24.57 16.92 26.96 18.09 C 25.76 20.76 23.04 20.55 20.73 19.55 C 20.06 20.77 19.41 22.00 18.75 23.23 C 17.67 22.53 16.97 21.49 16.57 20.28 C 18.97 19.03 20.34 16.67 19.12 14.01 C 14.74 17.18 13.47 22.67 13.96 27.80 C 15.33 28.12 18.19 27.87 17.93 30.01 C 18.19 32.11 15.37 31.88 14.02 32.18 C 12.14 36.27 10.43 40.44 8.39 44.46 C 11.88 42.35 14.95 39.28 18.92 38.14 C 25.26 37.80 31.63 38.11 37.98 37.97 C 43.42 37.40 47.30 41.82 51.55 44.42 C 49.57 40.32 47.75 36.14 45.92 31.96 C 43.87 32.17 41.48 31.49 39.69 32.75 C 38.82 34.13 38.43 35.74 37.74 37.20 C 34.68 37.81 35.15 33.88 35.40 31.99 C 31.34 31.91 27.26 32.25 23.22 31.81 C 21.22 31.13 21.85 27.87 23.99 28.08 C 31.34 27.86 38.69 28.07 46.04 28.00 C 46.01 25.97 46.05 23.93 45.76 21.91 C 44.97 16.78 40.41 12.45 35.19 12.12 C 30.65 11.88 26.04 11.76 21.56 12.67 Z" />
<path fill="#000000" opacity="1.00" d=" M 37.83 18.23 C 38.33 16.86 37.89 14.51 39.89 14.28 C 43.22 16.31 37.62 19.13 40.17 21.66 C 41.61 23.54 40.60 25.67 39.80 27.56 C 38.94 26.01 38.60 24.11 37.31 22.84 C 35.60 22.17 33.77 21.92 32.07 21.23 C 33.10 18.85 35.38 17.99 37.83 18.23 Z" />
</g>
</svg>
