<?xml version="1.0" encoding="UTF-8" ?>
<!DOCTYPE svg PUBLIC "-//W3C//DTD SVG 1.1//EN" "http://www.w3.org/Graphics/SVG/1.1/DTD/svg11.dtd">
<svg width="60pt" height="60pt" viewBox="0 0 60 60" version="1.1" xmlns="http://www.w3.org/2000/svg">
<g id="#ffffffff">
<path fill="#ffffff" opacity="1.00" d=" M 0.00 0.00 L 60.00 0.00 L 60.00 60.00 L 0.00 60.00 L 0.00 0.00 M 24.40 6.66 C 17.06 8.40 10.71 13.80 7.85 20.78 C 5.01 27.49 5.49 35.50 9.13 41.82 C 12.74 48.27 19.50 52.86 26.85 53.77 C 33.66 54.70 40.86 52.54 45.95 47.90 C 51.29 43.20 54.33 36.02 53.96 28.90 C 53.69 22.27 50.50 15.83 45.40 11.60 C 39.70 6.75 31.66 4.90 24.40 6.66 Z" />
<path fill="#ffffff" opacity="1.00" d=" M 21.83 23.97 C 22.20 20.14 24.97 16.47 28.99 16.08 C 33.97 15.26 38.74 20.06 37.92 25.03 C 37.43 28.92 33.59 30.87 31.69 33.98 C 30.39 33.97 29.09 33.97 27.80 33.98 C 28.27 30.62 31.04 28.58 33.15 26.21 C 35.30 23.90 33.01 19.79 29.98 20.01 C 27.66 19.88 26.35 22.08 25.76 24.00 C 24.45 23.97 23.14 23.96 21.83 23.97 Z" />
<path fill="#ffffff" opacity="1.00" d=" M 28.41 39.47 C 31.60 37.29 34.88 42.57 31.63 44.50 C 28.42 46.78 25.07 41.38 28.41 39.47 Z" />
</g>
<g id="#000000ff">
<path fill="#000000" opacity="1.00" d=" M 24.40 6.66 C 31.66 4.90 39.70 6.75 45.40 11.60 C 50.50 15.83 53.69 22.27 53.96 28.90 C 54.33 36.02 51.29 43.20 45.95 47.90 C 40.86 52.54 33.66 54.70 26.85 53.77 C 19.50 52.86 12.74 48.27 9.13 41.82 C 5.49 35.50 5.01 27.49 7.85 20.78 C 10.71 13.80 17.06 8.40 24.40 6.66 M 21.83 23.97 C 23.14 23.96 24.45 23.97 25.76 24.00 C 26.35 22.08 27.66 19.88 29.98 20.01 C 33.01 19.79 35.30 23.90 33.15 26.21 C 31.04 28.58 28.27 30.62 27.80 33.98 C 29.09 33.97 30.39 33.97 31.69 33.98 C 33.59 30.87 37.43 28.92 37.92 25.03 C 38.74 20.06 33.97 15.26 28.99 16.08 C 24.97 16.47 22.20 20.14 21.83 23.97 M 28.41 39.47 C 25.07 41.38 28.42 46.78 31.63 44.50 C 34.88 42.57 31.60 37.29 28.41 39.47 Z" />
</g>
</svg>
