<?xml version="1.0" encoding="UTF-8" ?>
<!DOCTYPE svg PUBLIC "-//W3C//DTD SVG 1.1//EN" "http://www.w3.org/Graphics/SVG/1.1/DTD/svg11.dtd">
<svg width="60pt" height="60pt" viewBox="0 0 60 60" version="1.1" xmlns="http://www.w3.org/2000/svg">
<g id="#ffffffff">
<path fill="#ffffff" opacity="1.00" d=" M 0.00 0.00 L 60.00 0.00 L 60.00 60.00 L 0.00 60.00 L 0.00 0.00 M 10.39 6.00 C 10.15 8.20 9.51 10.80 11.36 12.51 C 14.96 15.94 20.36 15.79 24.92 16.91 C 18.17 23.77 11.18 30.40 4.58 37.41 C 2.51 39.77 6.17 43.47 8.56 41.44 C 12.33 38.15 15.65 34.36 19.30 30.93 C 19.76 31.36 20.69 32.23 21.15 32.66 C 17.00 36.96 12.56 40.99 8.56 45.43 C 6.56 47.78 10.10 51.40 12.51 49.49 C 17.05 45.42 21.16 40.89 25.53 36.64 C 26.02 37.06 26.99 37.90 27.48 38.32 C 24.31 41.53 21.11 44.71 17.91 47.88 C 16.87 48.96 15.42 50.36 16.20 52.02 C 16.80 54.00 19.63 54.67 21.01 53.10 C 24.73 49.61 28.22 45.89 31.87 42.32 C 32.38 42.79 33.41 43.72 33.93 44.18 C 31.40 46.88 28.51 49.25 26.22 52.16 C 25.00 54.59 28.42 57.27 30.39 55.35 C 37.06 49.06 43.37 42.39 49.93 35.97 C 52.42 33.68 54.12 30.41 53.92 26.96 C 53.74 22.53 50.53 19.13 48.53 15.41 C 46.64 11.79 43.33 8.68 39.14 8.17 C 32.75 7.59 26.31 8.50 19.94 7.67 C 16.77 7.05 13.59 6.49 10.39 6.00 Z" />
</g>
<g id="#000000ff">
<path fill="#968176" opacity="1.00" d=" M 10.39 6.00 C 13.59 6.49 16.77 7.05 19.94 7.67 C 26.31 8.50 32.75 7.59 39.14 8.17 C 43.33 8.68 46.64 11.79 48.53 15.41 C 50.53 19.13 53.74 22.53 53.92 26.96 C 54.12 30.41 52.42 33.68 49.93 35.97 C 43.37 42.39 37.06 49.06 30.39 55.35 C 28.42 57.27 25.00 54.59 26.22 52.16 C 28.51 49.25 31.40 46.88 33.93 44.18 C 33.41 43.72 32.38 42.79 31.87 42.32 C 28.22 45.89 24.73 49.61 21.01 53.10 C 19.63 54.67 16.80 54.00 16.20 52.02 C 15.42 50.36 16.87 48.96 17.91 47.88 C 21.11 44.71 24.31 41.53 27.48 38.32 C 26.99 37.90 26.02 37.06 25.53 36.64 C 21.16 40.89 17.05 45.42 12.51 49.49 C 10.10 51.40 6.56 47.78 8.56 45.43 C 12.56 40.99 17.00 36.96 21.15 32.66 C 20.69 32.23 19.76 31.36 19.30 30.93 C 15.65 34.36 12.33 38.15 8.56 41.44 C 6.17 43.47 2.51 39.77 4.58 37.41 C 11.18 30.40 18.17 23.77 24.92 16.91 C 20.36 15.79 14.96 15.94 11.36 12.51 C 9.51 10.80 10.15 8.20 10.39 6.00 Z" />
</g>
</svg>
