<?xml version="1.0" encoding="UTF-8" ?>
<!DOCTYPE svg PUBLIC "-//W3C//DTD SVG 1.1//EN" "http://www.w3.org/Graphics/SVG/1.1/DTD/svg11.dtd">
<svg width="60pt" height="60pt" viewBox="0 0 60 60" version="1.1" xmlns="http://www.w3.org/2000/svg">
<g id="#ffffffff">
<path fill="#ffffff" opacity="1.00" d=" M 0.00 0.00 L 60.00 0.00 L 60.00 60.00 L 0.00 60.00 L 0.00 0.00 M 28.19 4.04 C 26.92 9.76 21.60 13.17 19.46 18.45 C 17.75 22.65 17.05 28.06 20.09 31.84 C 22.11 34.54 25.51 35.47 28.65 36.14 C 26.30 34.92 24.03 32.87 24.01 30.01 C 23.83 27.15 25.74 24.87 27.60 22.95 C 28.39 24.06 28.44 26.08 30.04 26.32 C 32.81 25.54 33.18 22.30 34.10 20.00 C 36.51 25.25 37.43 33.10 31.27 36.13 C 36.20 35.57 41.44 32.39 41.91 27.01 C 42.02 20.39 40.82 13.24 36.96 7.74 C 36.00 8.37 35.50 10.29 34.12 9.91 C 32.04 8.08 31.29 4.32 28.19 4.04 M 12.14 37.16 C 11.92 39.74 11.81 42.38 12.23 44.94 C 17.37 48.83 23.16 51.87 28.55 55.43 C 29.99 56.77 31.56 55.33 32.88 54.60 C 37.30 51.79 41.78 49.06 46.20 46.23 C 49.03 44.94 47.75 41.37 48.00 38.94 C 48.54 35.99 45.02 35.52 43.16 34.34 C 42.12 35.32 41.07 36.29 40.01 37.26 C 41.31 37.89 42.60 38.53 43.90 39.17 C 39.31 41.85 34.62 44.37 30.00 47.00 C 25.37 44.42 20.81 41.74 16.14 39.23 C 17.42 38.57 18.70 37.91 19.98 37.25 C 18.93 36.28 17.88 35.31 16.84 34.34 C 15.28 35.26 13.30 35.70 12.14 37.16 Z" />
</g>
<g id="#000000ff">
<path fill="#000000" opacity="1.00" d=" M 28.19 4.04 C 31.29 4.32 32.04 8.08 34.12 9.91 C 35.50 10.29 36.00 8.37 36.96 7.74 C 40.82 13.24 42.02 20.39 41.91 27.01 C 41.44 32.39 36.20 35.57 31.27 36.13 C 37.43 33.10 36.51 25.25 34.10 20.00 C 33.18 22.30 32.81 25.54 30.04 26.32 C 28.44 26.08 28.39 24.06 27.60 22.95 C 25.74 24.87 23.83 27.15 24.01 30.01 C 24.03 32.87 26.30 34.92 28.65 36.14 C 25.51 35.47 22.11 34.54 20.09 31.84 C 17.05 28.06 17.75 22.65 19.46 18.45 C 21.60 13.17 26.92 9.76 28.19 4.04 Z" />
<path fill="#000000" opacity="1.00" d=" M 12.14 37.16 C 13.30 35.70 15.28 35.26 16.84 34.34 C 17.88 35.31 18.93 36.28 19.98 37.25 C 18.70 37.91 17.42 38.57 16.14 39.23 C 20.81 41.74 25.37 44.42 30.00 47.00 C 34.62 44.37 39.31 41.85 43.90 39.17 C 42.60 38.53 41.31 37.89 40.01 37.26 C 41.07 36.29 42.12 35.32 43.16 34.34 C 45.02 35.52 48.54 35.99 48.00 38.94 C 47.75 41.37 49.03 44.94 46.20 46.23 C 41.78 49.06 37.30 51.79 32.88 54.60 C 31.56 55.33 29.99 56.77 28.55 55.43 C 23.16 51.87 17.37 48.83 12.23 44.94 C 11.81 42.38 11.92 39.74 12.14 37.16 Z" />
</g>
</svg>
