<?xml version="1.0" encoding="UTF-8" ?>
<!DOCTYPE svg PUBLIC "-//W3C//DTD SVG 1.1//EN" "http://www.w3.org/Graphics/SVG/1.1/DTD/svg11.dtd">
<svg width="64pt" height="64pt" viewBox="0 0 64 64" version="1.1" xmlns="http://www.w3.org/2000/svg">
<g id="#ffffffff">
<path fill="#ffffff" opacity="1.00" d=" M 0.00 0.00 L 64.00 0.00 L 64.00 64.00 L 45.11 64.00 C 52.13 63.13 58.00 58.76 62.95 54.01 C 57.75 49.07 51.47 44.21 43.98 44.01 C 36.52 44.22 30.25 49.06 25.06 54.00 C 29.94 58.74 35.78 63.00 42.68 64.00 L 0.00 64.00 L 0.00 0.00 M 10.00 18.17 C 10.01 26.63 9.99 35.09 10.01 43.55 C 14.29 45.91 18.55 48.27 22.81 50.65 C 23.84 49.70 24.88 48.74 25.92 47.79 C 21.94 45.59 17.98 43.38 14.00 41.18 C 14.00 35.01 13.99 28.85 14.01 22.68 C 19.35 25.32 24.68 28.00 30.00 30.69 C 30.00 35.38 30.00 40.07 30.00 44.76 C 31.33 44.01 32.66 43.26 33.99 42.51 C 34.00 38.57 34.01 34.63 34.00 30.69 C 39.34 28.04 44.67 25.38 50.00 22.70 C 50.00 28.77 50.00 34.84 50.00 40.91 C 51.33 41.44 52.67 41.97 54.00 42.51 C 54.00 34.38 54.00 26.26 54.00 18.13 C 46.67 14.84 39.35 11.52 31.99 8.26 C 24.67 11.59 17.34 14.89 10.00 18.17 Z" />
<path fill="#ffffff" opacity="1.00" d=" M 16.67 19.53 C 21.80 17.27 26.91 14.98 32.01 12.65 C 37.14 14.91 42.26 17.21 47.34 19.58 C 42.22 22.10 37.14 24.70 32.03 27.21 C 26.92 24.63 21.78 22.10 16.67 19.53 Z" />
<path fill="#ffffff" opacity="1.00" d=" M 31.06 53.98 C 34.31 51.13 38.21 49.29 42.26 47.86 C 40.15 49.28 37.83 51.18 38.00 54.01 C 37.85 56.98 40.34 58.97 42.69 60.22 C 38.47 58.86 34.40 56.97 31.06 53.98 Z" />
<path fill="#ffffff" opacity="1.00" d=" M 45.39 48.32 C 49.81 48.54 53.57 51.40 56.95 54.00 C 53.59 56.94 49.55 58.85 45.33 60.22 C 48.40 58.86 50.35 55.97 50.16 52.56 C 48.78 53.35 46.99 54.68 45.41 53.51 C 43.50 52.40 43.68 49.54 45.39 48.32 Z" />
</g>
<g id="#000000ff">
<path fill="#000000" opacity="1.00" d=" M 10.00 18.17 C 17.34 14.89 24.67 11.59 31.99 8.26 C 39.35 11.52 46.67 14.84 54.00 18.13 C 54.00 26.26 54.00 34.38 54.00 42.51 C 52.67 41.97 51.33 41.44 50.00 40.91 C 50.00 34.84 50.00 28.77 50.00 22.70 C 44.67 25.38 39.34 28.04 34.00 30.69 C 34.01 34.63 34.00 38.57 33.99 42.51 C 32.66 43.26 31.33 44.01 30.00 44.76 C 30.00 40.07 30.00 35.38 30.00 30.69 C 24.68 28.00 19.35 25.32 14.01 22.68 C 13.99 28.85 14.00 35.01 14.00 41.18 C 17.98 43.38 21.94 45.59 25.92 47.79 C 24.88 48.74 23.84 49.70 22.81 50.65 C 18.55 48.27 14.29 45.91 10.01 43.55 C 9.99 35.09 10.01 26.63 10.00 18.17 M 16.67 19.53 C 21.78 22.10 26.92 24.63 32.03 27.21 C 37.14 24.70 42.22 22.10 47.34 19.58 C 42.26 17.21 37.14 14.91 32.01 12.65 C 26.91 14.98 21.80 17.27 16.67 19.53 Z" />
<path fill="#000000" opacity="1.00" d=" M 25.06 54.00 C 30.25 49.06 36.52 44.22 43.98 44.01 C 51.47 44.21 57.75 49.07 62.95 54.01 C 58.00 58.76 52.13 63.13 45.11 64.00 L 42.68 64.00 C 35.78 63.00 29.94 58.74 25.06 54.00 M 31.06 53.98 C 34.40 56.97 38.47 58.86 42.69 60.22 C 40.34 58.97 37.85 56.98 38.00 54.01 C 37.83 51.18 40.15 49.28 42.26 47.86 C 38.21 49.29 34.31 51.13 31.06 53.98 M 45.39 48.32 C 43.68 49.54 43.50 52.40 45.41 53.51 C 46.99 54.68 48.78 53.35 50.16 52.56 C 50.35 55.97 48.40 58.86 45.33 60.22 C 49.55 58.85 53.59 56.94 56.95 54.00 C 53.57 51.40 49.81 48.54 45.39 48.32 Z" />
</g>
</svg>
