<?xml version="1.0" encoding="UTF-8" ?>
<!DOCTYPE svg PUBLIC "-//W3C//DTD SVG 1.1//EN" "http://www.w3.org/Graphics/SVG/1.1/DTD/svg11.dtd">
<svg width="64pt" height="64pt" viewBox="0 0 64 64" version="1.1" xmlns="http://www.w3.org/2000/svg">
<g id="#ffffffff">
<path fill="#ffffff" opacity="1.00" d=" M 0.00 0.00 L 64.00 0.00 L 64.00 64.00 L 0.00 64.00 L 0.00 0.00 M 24.20 6.20 C 21.56 9.64 19.49 13.51 17.67 17.44 C 15.00 22.89 16.29 29.10 16.00 34.92 C 14.30 36.06 12.60 37.20 10.89 38.34 C 11.63 39.44 12.37 40.55 13.11 41.66 C 15.28 40.05 18.03 38.97 19.58 36.68 C 20.91 31.21 18.81 25.24 21.05 19.91 C 22.60 16.05 24.66 12.38 27.06 8.99 C 28.33 7.19 31.34 8.05 31.88 10.07 C 31.73 12.68 30.98 15.21 30.45 17.76 C 27.90 18.15 25.14 19.35 24.34 22.04 C 23.66 25.30 24.11 28.68 24.01 32.00 C 25.34 32.00 26.67 32.00 28.01 32.00 C 28.04 29.05 27.83 26.09 28.16 23.15 C 28.92 21.24 32.18 21.91 31.94 24.01 C 32.10 27.92 32.26 32.01 30.80 35.72 C 29.15 40.51 25.08 43.80 20.90 46.35 C 21.64 47.45 22.38 48.56 23.12 49.67 C 26.50 47.55 29.75 45.13 32.12 41.85 C 32.95 49.59 38.24 55.99 44.89 59.68 C 45.62 58.56 46.36 57.44 47.10 56.32 C 43.80 54.22 40.41 51.92 38.48 48.40 C 35.68 43.85 35.72 38.28 36.16 33.15 C 36.84 31.62 39.18 31.63 39.84 33.17 C 40.17 36.10 39.96 39.06 39.99 42.00 C 41.33 42.00 42.66 42.00 43.99 42.00 C 43.89 38.69 44.34 35.31 43.65 32.05 C 42.85 29.35 40.10 28.15 37.54 27.75 C 37.02 25.20 36.27 22.67 36.11 20.06 C 36.67 18.03 39.73 17.17 40.97 19.03 C 43.36 22.41 45.40 26.07 46.94 29.91 C 49.19 35.24 47.10 41.21 48.41 46.68 C 49.97 48.96 52.73 50.04 54.89 51.66 C 55.63 50.55 56.37 49.44 57.11 48.33 C 55.40 47.20 53.70 46.06 52.00 44.93 C 51.83 40.33 52.41 35.66 51.60 31.11 C 50.13 25.91 47.26 21.21 44.26 16.77 C 42.24 13.78 38.12 13.45 35.08 14.95 C 35.81 12.43 36.58 9.48 34.87 7.16 C 32.71 3.48 26.97 2.95 24.20 6.20 M 9.40 4.59 C 8.46 5.53 7.53 6.48 6.59 7.42 C 8.59 9.42 10.59 11.41 12.59 13.41 C 13.53 12.46 14.47 11.52 15.41 10.58 C 13.41 8.58 11.41 6.58 9.40 4.59 M 52.58 4.58 C 50.58 6.59 48.58 8.60 46.57 10.61 C 47.55 11.53 48.52 12.46 49.49 13.40 C 51.44 11.38 53.41 9.39 55.41 7.43 C 54.47 6.49 53.52 5.54 52.58 4.58 M 3.52 17.94 C 6.18 18.61 8.85 19.27 11.51 19.95 C 11.84 18.65 12.16 17.35 12.48 16.06 C 9.82 15.39 7.15 14.73 4.49 14.06 C 4.16 15.35 3.84 16.65 3.52 17.94 M 49.52 16.06 C 49.84 17.35 50.16 18.65 50.49 19.95 C 53.15 19.27 55.82 18.61 58.48 17.94 C 58.16 16.65 57.84 15.35 57.51 14.06 C 54.85 14.73 52.18 15.39 49.52 16.06 Z" />
</g>
<g id="#000000ff">
<path fill="#000000" opacity="1.00" d=" M 24.20 6.20 C 26.97 2.95 32.71 3.48 34.87 7.16 C 36.58 9.48 35.81 12.43 35.08 14.95 C 38.12 13.45 42.24 13.78 44.26 16.77 C 47.26 21.21 50.13 25.91 51.60 31.11 C 52.41 35.66 51.83 40.33 52.00 44.93 C 53.70 46.06 55.40 47.20 57.11 48.33 C 56.37 49.44 55.63 50.55 54.89 51.66 C 52.73 50.04 49.97 48.96 48.41 46.68 C 47.10 41.21 49.19 35.24 46.94 29.91 C 45.40 26.07 43.36 22.41 40.97 19.03 C 39.73 17.17 36.67 18.03 36.11 20.06 C 36.27 22.67 37.02 25.20 37.54 27.75 C 40.10 28.15 42.85 29.35 43.65 32.05 C 44.34 35.31 43.89 38.69 43.99 42.00 C 42.66 42.00 41.33 42.00 39.99 42.00 C 39.96 39.06 40.17 36.10 39.84 33.17 C 39.18 31.63 36.84 31.62 36.16 33.15 C 35.72 38.28 35.68 43.85 38.48 48.40 C 40.41 51.92 43.80 54.22 47.10 56.32 C 46.36 57.44 45.62 58.56 44.89 59.68 C 38.24 55.99 32.95 49.59 32.12 41.85 C 29.75 45.13 26.50 47.55 23.12 49.67 C 22.38 48.56 21.64 47.45 20.90 46.35 C 25.08 43.80 29.15 40.51 30.80 35.72 C 32.26 32.01 32.10 27.92 31.94 24.01 C 32.18 21.91 28.92 21.24 28.16 23.15 C 27.83 26.09 28.04 29.05 28.01 32.00 C 26.67 32.00 25.34 32.00 24.01 32.00 C 24.11 28.68 23.66 25.30 24.34 22.04 C 25.14 19.35 27.90 18.15 30.45 17.76 C 30.98 15.21 31.73 12.68 31.88 10.07 C 31.34 8.05 28.33 7.19 27.06 8.99 C 24.66 12.38 22.60 16.05 21.05 19.91 C 18.81 25.24 20.91 31.21 19.58 36.68 C 18.03 38.97 15.28 40.05 13.11 41.66 C 12.37 40.55 11.63 39.44 10.89 38.34 C 12.60 37.20 14.30 36.06 16.00 34.92 C 16.29 29.10 15.00 22.89 17.67 17.44 C 19.49 13.51 21.56 9.64 24.20 6.20 Z" />
<path fill="#000000" opacity="1.00" d=" M 9.40 4.59 C 11.41 6.58 13.41 8.58 15.41 10.58 C 14.47 11.52 13.53 12.46 12.59 13.41 C 10.59 11.41 8.59 9.42 6.59 7.42 C 7.53 6.48 8.46 5.53 9.40 4.59 Z" />
<path fill="#000000" opacity="1.00" d=" M 52.58 4.58 C 53.52 5.54 54.47 6.49 55.41 7.43 C 53.41 9.39 51.44 11.38 49.49 13.40 C 48.52 12.46 47.55 11.53 46.57 10.61 C 48.58 8.60 50.58 6.59 52.58 4.58 Z" />
<path fill="#000000" opacity="1.00" d=" M 3.52 17.94 C 3.84 16.65 4.16 15.35 4.49 14.06 C 7.15 14.73 9.82 15.39 12.48 16.06 C 12.16 17.35 11.84 18.65 11.51 19.95 C 8.85 19.27 6.18 18.61 3.52 17.94 Z" />
<path fill="#000000" opacity="1.00" d=" M 49.52 16.06 C 52.18 15.39 54.85 14.73 57.51 14.06 C 57.84 15.35 58.16 16.65 58.48 17.94 C 55.82 18.61 53.15 19.27 50.49 19.95 C 50.16 18.65 49.84 17.35 49.52 16.06 Z" />
</g>
</svg>
