<?xml version="1.0" encoding="UTF-8" ?>
<!DOCTYPE svg PUBLIC "-//W3C//DTD SVG 1.1//EN" "http://www.w3.org/Graphics/SVG/1.1/DTD/svg11.dtd">
<svg width="60pt" height="60pt" viewBox="0 0 60 60" version="1.1" xmlns="http://www.w3.org/2000/svg">
<g id="#ffffffff">
<path fill="#ffffff" opacity="1.00" d=" M 0.00 0.00 L 60.00 0.00 L 60.00 60.00 L 0.00 60.00 L 0.00 0.00 M 40.30 8.31 C 39.66 15.85 40.13 23.43 40.00 31.00 C 40.10 37.90 39.69 44.81 40.30 51.69 C 44.09 52.15 47.91 52.15 51.69 51.69 C 52.34 44.14 51.87 36.56 52.00 29.00 C 51.90 22.10 52.31 15.19 51.70 8.31 C 47.91 7.85 44.09 7.85 40.30 8.31 M 24.30 20.30 C 23.79 30.75 23.79 41.25 24.30 51.69 C 28.09 52.15 31.91 52.15 35.69 51.69 C 36.21 41.25 36.21 30.75 35.70 20.31 C 31.91 19.85 28.09 19.85 24.30 20.30 M 8.31 32.30 C 7.79 38.75 7.79 45.25 8.31 51.69 C 12.09 52.15 15.91 52.15 19.69 51.69 C 20.21 45.25 20.21 38.75 19.69 32.31 C 15.91 31.85 12.09 31.85 8.31 32.30 Z" />
</g>
<g id="#000000ff">
<path fill="#000000" opacity="1.00" d=" M 40.30 8.31 C 44.09 7.85 47.91 7.85 51.70 8.31 C 52.31 15.19 51.90 22.10 52.00 29.00 C 51.87 36.56 52.34 44.14 51.69 51.69 C 47.91 52.15 44.09 52.15 40.30 51.69 C 39.69 44.81 40.10 37.90 40.00 31.00 C 40.13 23.43 39.66 15.85 40.30 8.31 Z" />
<path fill="#000000" opacity="1.00" d=" M 24.30 20.30 C 28.09 19.85 31.91 19.85 35.70 20.31 C 36.21 30.75 36.21 41.25 35.69 51.69 C 31.91 52.15 28.09 52.15 24.30 51.69 C 23.79 41.25 23.79 30.75 24.30 20.30 Z" />
<path fill="#000000" opacity="1.00" d=" M 8.31 32.30 C 12.09 31.85 15.91 31.85 19.69 32.31 C 20.21 38.75 20.21 45.25 19.69 51.69 C 15.91 52.15 12.09 52.15 8.31 51.69 C 7.79 45.25 7.79 38.75 8.31 32.30 Z" />
</g>
</svg>
