<?xml version="1.0" encoding="UTF-8" ?>
<!DOCTYPE svg PUBLIC "-//W3C//DTD SVG 1.1//EN" "http://www.w3.org/Graphics/SVG/1.1/DTD/svg11.dtd">
<svg width="64pt" height="64pt" viewBox="0 0 64 64" version="1.1" xmlns="http://www.w3.org/2000/svg">
<g id="#ffffffff">
<path fill="#ffffff" opacity="1.00" d=" M 0.00 0.00 L 64.00 0.00 L 64.00 64.00 L 0.00 64.00 L 0.00 0.00 M 17.58 5.54 C 15.04 7.66 12.30 9.68 10.28 12.32 C 8.57 16.12 7.18 20.10 5.93 24.08 C 5.02 27.02 8.11 28.67 10.12 30.01 C 9.59 33.65 11.08 37.74 14.64 39.24 C 17.98 40.97 21.85 39.50 24.38 37.06 C 27.57 38.34 30.76 39.62 33.93 40.95 C 33.85 44.56 35.72 48.38 39.34 49.53 C 42.68 50.86 46.19 49.21 48.58 46.85 C 51.04 47.53 54.48 49.08 56.37 46.49 C 58.49 42.71 61.01 37.81 58.24 33.69 C 55.30 29.96 50.64 28.13 47.31 24.80 C 45.27 20.52 45.71 14.57 41.30 11.75 C 36.34 9.19 31.08 7.24 25.97 4.98 C 23.32 3.70 19.96 3.67 17.58 5.54 M 3.25 41.86 C 17.90 47.88 32.61 53.78 47.24 59.86 C 47.75 58.62 48.25 57.38 48.76 56.14 C 34.11 50.11 19.41 44.17 4.75 38.14 C 4.25 39.38 3.75 40.62 3.25 41.86 Z" />
<path fill="#ffffff" opacity="1.00" d=" M 20.47 8.44 C 23.02 7.28 25.52 9.34 27.87 10.13 C 31.89 12.16 36.46 13.23 40.10 15.89 C 41.90 19.51 42.49 23.60 43.79 27.41 C 47.31 30.13 51.14 32.47 54.48 35.42 C 56.87 38.03 54.23 41.37 53.28 44.04 C 52.21 43.71 51.14 43.39 50.07 43.06 C 50.19 39.18 47.92 35.09 43.92 34.25 C 40.70 33.30 37.63 35.04 35.39 37.20 C 32.25 35.92 29.10 34.69 25.99 33.33 C 26.31 29.63 24.36 25.69 20.70 24.50 C 17.70 23.27 14.49 24.51 12.10 26.41 C 11.51 26.04 10.33 25.31 9.74 24.94 C 11.14 21.46 12.12 17.81 13.73 14.42 C 15.69 12.15 18.06 10.21 20.47 8.44 Z" />
<path fill="#ffffff" opacity="1.00" d=" M 16.30 28.38 C 19.14 26.87 22.75 29.82 21.90 32.90 C 21.36 35.86 17.21 37.09 15.19 34.83 C 13.16 33.02 13.87 29.45 16.30 28.38 Z" />
<path fill="#ffffff" opacity="1.00" d=" M 40.30 38.37 C 43.14 36.87 46.79 39.79 45.90 42.88 C 45.38 45.84 41.25 47.07 39.22 44.85 C 37.16 43.05 37.86 39.45 40.30 38.37 Z" />
</g>
<g id="#000000ff">
<path fill="#000000" opacity="1.00" d=" M 17.58 5.54 C 19.96 3.67 23.32 3.70 25.97 4.98 C 31.08 7.24 36.34 9.19 41.30 11.75 C 45.71 14.57 45.27 20.52 47.31 24.80 C 50.64 28.13 55.30 29.96 58.24 33.69 C 61.01 37.81 58.49 42.71 56.37 46.49 C 54.48 49.08 51.04 47.53 48.58 46.85 C 46.19 49.21 42.68 50.86 39.34 49.53 C 35.72 48.38 33.85 44.56 33.93 40.95 C 30.76 39.62 27.57 38.34 24.38 37.06 C 21.85 39.50 17.98 40.97 14.64 39.24 C 11.08 37.74 9.59 33.65 10.12 30.01 C 8.11 28.67 5.02 27.02 5.93 24.08 C 7.18 20.10 8.57 16.12 10.28 12.32 C 12.30 9.68 15.04 7.66 17.58 5.54 M 20.47 8.44 C 18.06 10.21 15.69 12.15 13.73 14.42 C 12.12 17.81 11.14 21.46 9.74 24.94 C 10.33 25.31 11.51 26.04 12.10 26.41 C 14.49 24.51 17.70 23.27 20.70 24.50 C 24.36 25.69 26.31 29.63 25.99 33.33 C 29.10 34.69 32.25 35.92 35.39 37.20 C 37.63 35.04 40.70 33.30 43.92 34.25 C 47.92 35.09 50.19 39.18 50.07 43.06 C 51.14 43.39 52.21 43.71 53.28 44.04 C 54.23 41.37 56.87 38.03 54.48 35.42 C 51.14 32.47 47.31 30.13 43.79 27.41 C 42.49 23.60 41.90 19.51 40.10 15.89 C 36.46 13.23 31.89 12.16 27.87 10.13 C 25.52 9.34 23.02 7.28 20.47 8.44 M 16.30 28.38 C 13.87 29.45 13.16 33.02 15.19 34.83 C 17.21 37.09 21.36 35.86 21.90 32.90 C 22.75 29.82 19.14 26.87 16.30 28.38 M 40.30 38.37 C 37.86 39.45 37.16 43.05 39.22 44.85 C 41.25 47.07 45.38 45.84 45.90 42.88 C 46.79 39.79 43.14 36.87 40.30 38.37 Z" />
<path fill="#000000" opacity="1.00" d=" M 3.25 41.86 C 3.75 40.62 4.25 39.38 4.75 38.14 C 19.41 44.17 34.11 50.11 48.76 56.14 C 48.25 57.38 47.75 58.62 47.24 59.86 C 32.61 53.78 17.90 47.88 3.25 41.86 Z" />
</g>
</svg>
