<?xml version="1.0" encoding="UTF-8" ?>
<!DOCTYPE svg PUBLIC "-//W3C//DTD SVG 1.1//EN" "http://www.w3.org/Graphics/SVG/1.1/DTD/svg11.dtd">
<svg width="60pt" height="60pt" viewBox="0 0 60 60" version="1.1" xmlns="http://www.w3.org/2000/svg">
<g id="#ffffffff">
<path fill="#ffffff" opacity="1.00" d=" M 0.00 0.00 L 60.00 0.00 L 60.00 60.00 L 0.00 60.00 L 0.00 0.00 M 25.43 6.27 C 18.99 7.17 12.46 10.23 9.10 16.05 C 5.42 22.02 5.97 29.29 6.02 36.00 C 6.13 41.43 7.90 47.30 12.30 50.78 C 15.56 53.15 19.65 51.35 23.19 50.69 C 29.40 49.21 35.78 50.29 41.87 51.79 C 45.15 52.72 48.49 50.92 50.25 48.16 C 55.23 41.15 54.12 32.02 53.64 23.94 C 52.68 14.25 43.95 7.15 34.56 6.27 C 32.23 3.34 27.77 3.33 25.43 6.27 Z" />
<path fill="#ffffff" opacity="1.00" d=" M 28.37 12.00 C 29.46 12.00 30.55 12.00 31.64 12.00 C 32.30 14.89 36.06 15.50 36.61 18.61 C 35.41 18.60 34.21 18.62 33.01 18.65 C 31.91 17.59 30.73 16.22 29.02 16.88 C 27.11 17.28 27.40 19.57 29.14 19.80 C 31.97 20.71 36.76 20.88 36.53 24.99 C 37.18 28.75 32.16 28.89 31.65 32.00 C 30.55 32.00 29.45 32.00 28.36 32.00 C 27.65 29.02 23.51 28.79 23.07 25.43 C 24.00 25.42 25.86 25.40 26.79 25.39 C 27.94 27.77 33.52 27.98 32.37 24.65 C 30.21 23.62 27.74 23.47 25.59 22.41 C 23.58 21.18 23.25 18.23 24.44 16.32 C 25.71 14.81 28.06 14.20 28.37 12.00 Z" />
<path fill="#ffffff" opacity="1.00" d=" M 9.87 34.58 C 23.22 36.41 36.78 36.42 50.13 34.58 C 49.84 39.30 49.12 45.01 44.80 47.82 C 42.31 48.19 39.89 47.15 37.47 46.75 C 31.04 45.30 24.40 46.11 18.09 47.71 C 16.44 48.22 14.57 47.98 13.53 46.48 C 10.70 43.21 10.09 38.74 9.87 34.58 Z" />
</g>
<g id="#000000ff">
<path fill="#000000" opacity="1.00" d=" M 25.43 6.27 C 27.77 3.33 32.23 3.34 34.56 6.27 C 43.95 7.15 52.68 14.25 53.64 23.94 C 54.12 32.02 55.23 41.15 50.25 48.16 C 48.49 50.92 45.15 52.72 41.87 51.79 C 35.78 50.29 29.40 49.21 23.19 50.69 C 19.65 51.35 15.56 53.15 12.30 50.78 C 7.90 47.30 6.13 41.43 6.02 36.00 C 5.97 29.29 5.42 22.02 9.10 16.05 C 12.46 10.23 18.99 7.17 25.43 6.27 M 28.37 12.00 C 28.06 14.20 25.71 14.81 24.44 16.32 C 23.25 18.23 23.58 21.18 25.59 22.41 C 27.74 23.47 30.21 23.62 32.37 24.65 C 33.52 27.98 27.94 27.77 26.79 25.39 C 25.86 25.40 24.00 25.42 23.07 25.43 C 23.51 28.79 27.65 29.02 28.36 32.00 C 29.45 32.00 30.55 32.00 31.65 32.00 C 32.16 28.89 37.18 28.75 36.53 24.99 C 36.76 20.88 31.97 20.71 29.14 19.80 C 27.40 19.57 27.11 17.28 29.02 16.88 C 30.73 16.22 31.91 17.59 33.01 18.65 C 34.21 18.62 35.41 18.60 36.61 18.61 C 36.06 15.50 32.30 14.89 31.64 12.00 C 30.55 12.00 29.46 12.00 28.37 12.00 M 9.87 34.58 C 10.09 38.74 10.70 43.21 13.53 46.48 C 14.57 47.98 16.44 48.22 18.09 47.71 C 24.40 46.11 31.04 45.30 37.47 46.75 C 39.89 47.15 42.31 48.19 44.80 47.82 C 49.12 45.01 49.84 39.30 50.13 34.58 C 36.78 36.42 23.22 36.41 9.87 34.58 Z" />
</g>
</svg>
