<?xml version="1.0" encoding="UTF-8" ?>
<!DOCTYPE svg PUBLIC "-//W3C//DTD SVG 1.1//EN" "http://www.w3.org/Graphics/SVG/1.1/DTD/svg11.dtd">
<svg width="60pt" height="60pt" viewBox="0 0 60 60" version="1.1" xmlns="http://www.w3.org/2000/svg">
<g id="#ffffffff">
<path fill="#ffffff" opacity="1.00" d=" M 0.00 0.00 L 60.00 0.00 L 60.00 60.00 L 0.00 60.00 L 0.00 0.00 M 8.33 8.39 C 6.60 9.16 5.82 11.11 6.00 12.92 C 6.03 21.98 5.93 31.03 6.05 40.08 C 5.93 42.59 8.53 44.31 10.86 44.00 C 23.59 44.01 36.32 44.00 49.06 44.00 C 51.42 44.35 54.01 42.60 53.95 40.08 C 54.07 31.03 53.97 21.96 54.00 12.90 C 54.32 10.58 52.64 7.95 50.13 8.05 C 37.76 7.91 25.39 8.07 13.03 7.98 C 11.47 8.07 9.81 7.78 8.33 8.39 M 19.14 48.20 C 17.26 48.93 17.91 52.13 19.97 51.92 C 26.66 52.06 33.37 52.07 40.06 51.91 C 42.59 52.16 42.56 47.81 40.03 48.08 C 33.08 48.01 26.08 47.79 19.14 48.20 Z" />
<path fill="#ffffff" opacity="1.00" d=" M 10.00 12.00 C 23.33 12.00 36.67 12.00 50.00 12.00 C 50.00 20.00 50.00 28.00 50.00 36.00 C 36.67 36.00 23.33 36.00 10.00 36.00 C 10.00 28.00 10.00 20.00 10.00 12.00 M 25.41 16.61 C 24.14 17.05 21.84 17.11 22.02 19.00 C 20.97 24.64 24.59 30.31 29.96 32.05 C 35.84 30.34 39.87 23.23 37.39 17.56 C 33.66 15.93 29.36 15.64 25.41 16.61 Z" />
<path fill="#ffffff" opacity="1.00" d=" M 29.15 38.10 C 31.54 37.05 33.24 40.96 30.73 41.82 C 28.43 42.93 26.88 39.16 29.15 38.10 Z" />
</g>
<g id="#000000ff">
<path fill="#000000" opacity="1.00" d=" M 8.33 8.39 C 9.81 7.78 11.47 8.07 13.03 7.98 C 25.39 8.07 37.76 7.91 50.13 8.05 C 52.64 7.95 54.32 10.58 54.00 12.90 C 53.97 21.96 54.07 31.03 53.95 40.08 C 54.01 42.60 51.42 44.35 49.06 44.00 C 36.32 44.00 23.59 44.01 10.86 44.00 C 8.53 44.31 5.93 42.59 6.05 40.08 C 5.93 31.03 6.03 21.98 6.00 12.92 C 5.82 11.11 6.60 9.16 8.33 8.39 M 10.00 12.00 C 10.00 20.00 10.00 28.00 10.00 36.00 C 23.33 36.00 36.67 36.00 50.00 36.00 C 50.00 28.00 50.00 20.00 50.00 12.00 C 36.67 12.00 23.33 12.00 10.00 12.00 M 29.15 38.10 C 26.88 39.16 28.43 42.93 30.73 41.82 C 33.24 40.96 31.54 37.05 29.15 38.10 Z" />
<path fill="#000000" opacity="1.00" d=" M 25.41 16.61 C 29.36 15.64 33.66 15.93 37.39 17.56 C 39.87 23.23 35.84 30.34 29.96 32.05 C 24.59 30.31 20.97 24.64 22.02 19.00 C 21.84 17.11 24.14 17.05 25.41 16.61 Z" />
<path fill="#000000" opacity="1.00" d=" M 19.14 48.20 C 26.08 47.79 33.08 48.01 40.03 48.08 C 42.56 47.81 42.59 52.16 40.06 51.91 C 33.37 52.07 26.66 52.06 19.97 51.92 C 17.91 52.13 17.26 48.93 19.14 48.20 Z" />
</g>
</svg>
