<?xml version="1.0" encoding="UTF-8" ?>
<!DOCTYPE svg PUBLIC "-//W3C//DTD SVG 1.1//EN" "http://www.w3.org/Graphics/SVG/1.1/DTD/svg11.dtd">
<svg width="64pt" height="64pt" viewBox="0 0 64 64" version="1.1" xmlns="http://www.w3.org/2000/svg">
<g id="#ffffffff">
<path fill="#ffffff" opacity="1.00" d=" M 0.00 0.00 L 64.00 0.00 L 64.00 64.00 L 0.00 64.00 L 0.00 0.00 M 4.00 10.00 C 4.00 22.00 4.00 34.00 4.00 46.00 C 12.67 46.00 21.34 46.00 30.00 46.00 C 29.99 47.33 29.99 48.67 30.00 50.00 C 26.67 50.00 23.33 50.00 20.00 50.00 C 20.01 51.33 20.01 52.67 20.00 54.00 C 28.00 54.00 36.00 54.00 44.00 54.00 C 43.99 52.67 43.99 51.33 44.00 50.00 C 40.67 50.00 37.33 50.00 34.00 50.00 C 34.01 48.67 34.01 47.33 34.00 46.00 C 42.66 46.00 51.33 46.00 60.00 46.00 C 60.00 34.00 60.00 22.00 60.00 10.00 C 41.33 10.00 22.67 10.00 4.00 10.00 Z" />
<path fill="#ffffff" opacity="1.00" d=" M 8.00 14.00 C 24.00 14.00 40.00 14.00 56.00 14.00 C 56.00 23.33 56.00 32.67 56.00 42.00 C 40.00 42.00 24.00 42.00 8.00 42.00 C 8.00 32.67 8.00 23.33 8.00 14.00 M 30.15 18.23 C 27.46 19.12 24.87 20.41 21.99 20.58 C 21.80 27.70 25.53 34.79 31.93 38.11 C 38.52 34.99 42.12 27.71 42.04 20.61 C 37.89 20.56 34.36 17.14 30.15 18.23 Z" />
</g>
<g id="#000000ff">
<path fill="#000000" opacity="1.00" d=" M 4.00 10.00 C 22.67 10.00 41.33 10.00 60.00 10.00 C 60.00 22.00 60.00 34.00 60.00 46.00 C 51.33 46.00 42.66 46.00 34.00 46.00 C 34.01 47.33 34.01 48.67 34.00 50.00 C 37.33 50.00 40.67 50.00 44.00 50.00 C 43.99 51.33 43.99 52.67 44.00 54.00 C 36.00 54.00 28.00 54.00 20.00 54.00 C 20.01 52.67 20.01 51.33 20.00 50.00 C 23.33 50.00 26.67 50.00 30.00 50.00 C 29.99 48.67 29.99 47.33 30.00 46.00 C 21.34 46.00 12.67 46.00 4.00 46.00 C 4.00 34.00 4.00 22.00 4.00 10.00 M 8.00 14.00 C 8.00 23.33 8.00 32.67 8.00 42.00 C 24.00 42.00 40.00 42.00 56.00 42.00 C 56.00 32.67 56.00 23.33 56.00 14.00 C 40.00 14.00 24.00 14.00 8.00 14.00 Z" />
<path fill="#000000" opacity="1.00" d=" M 30.15 18.23 C 34.36 17.14 37.89 20.56 42.04 20.61 C 42.12 27.71 38.52 34.99 31.93 38.11 C 25.53 34.79 21.80 27.70 21.99 20.58 C 24.87 20.41 27.46 19.12 30.15 18.23 Z" />
</g>
</svg>
