<?xml version="1.0" encoding="UTF-8" ?>
<!DOCTYPE svg PUBLIC "-//W3C//DTD SVG 1.1//EN" "http://www.w3.org/Graphics/SVG/1.1/DTD/svg11.dtd">
<svg width="60pt" height="60pt" viewBox="0 0 60 60" version="1.1" xmlns="http://www.w3.org/2000/svg">
<g id="#ffffffff">
<path fill="#ffffff" opacity="1.00" d=" M 0.00 0.00 L 60.00 0.00 L 60.00 60.00 L 0.00 60.00 L 0.00 0.00 M 28.01 13.42 C 22.41 14.22 16.72 14.72 11.26 16.22 C 9.13 16.74 9.95 20.38 12.09 19.91 C 17.38 19.02 22.65 18.00 28.00 17.45 C 28.02 20.12 27.99 22.79 27.96 25.46 C 24.37 25.86 20.73 25.75 17.14 26.19 C 15.63 26.81 15.63 29.23 17.17 29.80 C 20.77 30.28 24.40 29.64 28.00 29.42 C 28.00 31.99 28.00 34.57 28.00 37.14 C 22.74 36.04 16.16 34.66 11.94 38.94 C 8.52 42.42 10.02 48.63 14.37 50.58 C 21.12 54.54 30.23 49.78 31.63 42.28 C 37.21 43.72 42.48 46.09 47.90 47.96 C 50.08 48.36 50.86 44.86 48.78 44.23 C 43.36 41.79 37.71 39.86 32.00 38.21 C 32.00 35.08 32.00 31.95 32.00 28.82 C 35.84 27.92 39.88 27.34 43.38 25.42 C 44.80 24.41 43.73 21.66 41.94 22.06 C 38.64 23.04 35.40 24.21 32.00 24.82 C 32.00 22.22 32.00 19.63 32.00 17.03 C 37.58 16.40 43.21 16.41 48.79 15.82 C 50.73 15.17 50.14 11.85 48.05 12.08 C 42.69 12.08 37.35 12.60 32.01 13.02 C 31.67 10.77 32.92 7.69 30.84 6.10 C 26.66 5.37 28.28 10.99 28.01 13.42 Z" />
<path fill="#ffffff" opacity="1.00" d=" M 15.83 40.89 C 19.67 39.10 24.01 40.47 27.94 41.25 C 27.17 46.66 20.67 49.80 16.00 46.91 C 13.51 45.87 13.29 41.99 15.83 40.89 Z" />
</g>
<g id="#000000ff">
<path fill="#000000" opacity="1.00" d=" M 28.01 13.42 C 28.28 10.99 26.66 5.37 30.84 6.10 C 32.92 7.69 31.67 10.77 32.01 13.02 C 37.35 12.60 42.69 12.08 48.05 12.08 C 50.14 11.85 50.73 15.17 48.79 15.82 C 43.21 16.41 37.58 16.40 32.00 17.03 C 32.00 19.63 32.00 22.22 32.00 24.82 C 35.40 24.21 38.64 23.04 41.94 22.06 C 43.73 21.66 44.80 24.41 43.38 25.42 C 39.88 27.34 35.84 27.92 32.00 28.82 C 32.00 31.95 32.00 35.08 32.00 38.21 C 37.71 39.86 43.36 41.79 48.78 44.23 C 50.86 44.86 50.08 48.36 47.90 47.96 C 42.48 46.09 37.21 43.72 31.63 42.28 C 30.23 49.78 21.12 54.54 14.37 50.58 C 10.02 48.63 8.52 42.42 11.94 38.94 C 16.16 34.66 22.74 36.04 28.00 37.14 C 28.00 34.57 28.00 31.99 28.00 29.42 C 24.40 29.64 20.77 30.28 17.17 29.80 C 15.63 29.23 15.63 26.81 17.14 26.19 C 20.73 25.75 24.37 25.86 27.96 25.46 C 27.99 22.79 28.02 20.12 28.00 17.45 C 22.65 18.00 17.38 19.02 12.09 19.91 C 9.95 20.38 9.13 16.74 11.26 16.22 C 16.72 14.72 22.41 14.22 28.01 13.42 M 15.83 40.89 C 13.29 41.99 13.51 45.87 16.00 46.91 C 20.67 49.80 27.17 46.66 27.94 41.25 C 24.01 40.47 19.67 39.10 15.83 40.89 Z" />
</g>
</svg>
