<?xml version="1.0" encoding="UTF-8" ?>
<!DOCTYPE svg PUBLIC "-//W3C//DTD SVG 1.1//EN" "http://www.w3.org/Graphics/SVG/1.1/DTD/svg11.dtd">
<svg width="60pt" height="60pt" viewBox="0 0 60 60" version="1.1" xmlns="http://www.w3.org/2000/svg">
<g id="#ffffffff">
<path fill="#ffffff" opacity="1.00" d=" M 0.00 0.00 L 60.00 0.00 L 60.00 60.00 L 0.00 60.00 L 0.00 0.00 M 10.07 7.96 C 9.78 10.10 12.62 9.90 13.99 10.18 C 13.97 14.22 13.95 18.47 15.90 22.13 C 17.40 25.38 20.09 27.82 22.85 29.99 C 20.07 32.18 17.37 34.65 15.87 37.93 C 13.94 41.58 13.97 45.80 13.99 49.82 C 12.54 50.11 9.96 49.86 10.00 52.01 C 10.14 54.57 13.27 53.88 14.98 54.03 C 26.28 53.81 37.61 54.32 48.88 53.78 C 51.78 51.93 48.43 49.21 46.01 49.82 C 46.03 45.80 46.05 41.57 44.12 37.92 C 42.63 34.65 39.92 32.21 37.19 29.98 C 39.93 27.78 42.63 25.34 44.12 22.08 C 46.05 18.43 46.03 14.20 46.01 10.18 C 47.39 9.91 50.19 10.10 49.94 7.97 C 50.23 6.39 48.24 5.90 47.05 6.02 C 35.67 5.99 24.28 5.98 12.89 6.02 C 11.72 5.91 9.77 6.40 10.07 7.96 Z" />
<path fill="#ffffff" opacity="1.00" d=" M 17.82 14.02 C 25.94 13.99 34.06 13.98 42.18 14.02 C 41.76 20.30 37.34 25.09 32.64 28.76 C 30.90 30.24 33.22 31.83 34.32 32.74 C 38.57 35.89 41.69 40.63 42.18 45.97 C 40.86 45.99 39.54 46.00 38.22 46.01 C 37.75 41.81 34.45 37.85 29.97 38.01 C 25.52 37.88 22.23 41.82 21.78 46.01 C 20.46 46.00 19.14 45.99 17.82 45.98 C 18.21 39.44 23.01 34.65 27.82 30.81 C 27.81 30.41 27.81 29.59 27.81 29.18 C 23.01 25.34 18.21 20.56 17.82 14.02 M 24.71 20.04 C 25.38 22.53 27.12 25.13 30.02 25.02 C 32.90 25.10 34.62 22.51 35.29 20.05 C 31.77 19.98 28.24 19.98 24.71 20.04 Z" />
</g>
<g id="#000000ff">
<path fill="#000000" opacity="1.00" d=" M 10.07 7.96 C 9.77 6.40 11.72 5.91 12.89 6.02 C 24.28 5.98 35.67 5.99 47.05 6.02 C 48.24 5.90 50.23 6.39 49.94 7.97 C 50.19 10.10 47.39 9.91 46.01 10.18 C 46.03 14.20 46.05 18.43 44.12 22.08 C 42.63 25.34 39.93 27.78 37.19 29.98 C 39.92 32.21 42.63 34.65 44.12 37.92 C 46.05 41.57 46.03 45.80 46.01 49.82 C 48.43 49.21 51.78 51.93 48.88 53.78 C 37.61 54.32 26.28 53.81 14.98 54.03 C 13.27 53.88 10.14 54.57 10.00 52.01 C 9.96 49.86 12.54 50.11 13.99 49.82 C 13.97 45.80 13.94 41.58 15.87 37.93 C 17.37 34.65 20.07 32.18 22.85 29.99 C 20.09 27.82 17.40 25.38 15.90 22.13 C 13.95 18.47 13.97 14.22 13.99 10.18 C 12.62 9.90 9.78 10.10 10.07 7.96 M 17.82 14.02 C 18.21 20.56 23.01 25.34 27.81 29.18 C 27.81 29.59 27.81 30.41 27.82 30.81 C 23.01 34.65 18.21 39.44 17.82 45.98 C 19.14 45.99 20.46 46.00 21.78 46.01 C 22.23 41.82 25.52 37.88 29.97 38.01 C 34.45 37.85 37.75 41.81 38.22 46.01 C 39.54 46.00 40.86 45.99 42.18 45.97 C 41.69 40.63 38.57 35.89 34.32 32.74 C 33.22 31.83 30.90 30.24 32.64 28.76 C 37.34 25.09 41.76 20.30 42.18 14.02 C 34.06 13.98 25.94 13.99 17.82 14.02 Z" />
<path fill="#000000" opacity="1.00" d=" M 24.71 20.04 C 28.24 19.98 31.77 19.98 35.29 20.05 C 34.62 22.51 32.90 25.10 30.02 25.02 C 27.12 25.13 25.38 22.53 24.71 20.04 Z" />
</g>
</svg>
