<?xml version="1.0" encoding="UTF-8" ?>
<!DOCTYPE svg PUBLIC "-//W3C//DTD SVG 1.1//EN" "http://www.w3.org/Graphics/SVG/1.1/DTD/svg11.dtd">
<svg width="64pt" height="64pt" viewBox="0 0 64 64" version="1.1" xmlns="http://www.w3.org/2000/svg">
<g id="#ffffffff">
<path fill="#ffffff" opacity="1.00" d=" M 0.00 0.00 L 64.00 0.00 L 64.00 64.00 L 0.00 64.00 L 0.00 0.00 M 8.00 8.00 C 8.00 24.00 8.00 40.00 8.00 56.00 C 24.00 56.00 40.00 56.00 56.00 56.00 C 56.00 54.70 56.00 53.40 56.00 52.10 C 54.87 52.11 53.76 51.99 52.69 51.72 C 50.73 42.85 48.82 33.74 44.29 25.75 C 42.43 22.39 39.63 19.55 36.01 18.12 C 36.01 16.74 36.00 15.37 36.00 14.00 C 34.66 14.00 33.33 14.00 32.01 14.00 C 32.00 15.37 31.99 16.74 31.99 18.12 C 27.40 19.86 24.38 23.99 22.35 28.27 C 18.81 35.78 16.91 43.92 15.28 52.02 C 14.46 52.02 12.82 52.00 12.00 51.99 C 12.00 37.33 12.00 22.66 12.00 8.00 C 10.67 8.00 9.33 8.00 8.00 8.00 M 16.00 14.00 C 16.00 15.33 16.00 16.67 16.00 18.00 C 17.33 18.00 18.67 18.00 20.00 18.00 C 20.00 16.67 20.00 15.33 20.00 14.00 C 18.67 14.00 17.33 14.00 16.00 14.00 M 24.00 14.00 C 24.00 15.33 24.00 16.67 24.00 18.00 C 25.33 18.00 26.67 18.00 28.00 18.00 C 28.00 16.67 28.00 15.33 28.00 14.00 C 26.67 14.00 25.33 14.00 24.00 14.00 M 40.00 14.00 C 40.00 15.33 40.00 16.67 40.00 18.00 C 41.33 18.00 42.67 18.00 44.00 18.00 C 44.00 16.67 44.00 15.33 44.00 14.00 C 42.67 14.00 41.33 14.00 40.00 14.00 M 48.00 14.00 C 48.00 15.33 48.00 16.67 48.00 18.00 C 49.33 18.00 50.67 18.00 52.00 18.00 C 52.00 16.67 52.00 15.33 52.00 14.00 C 50.67 14.00 49.33 14.00 48.00 14.00 Z" />
<path fill="#ffffff" opacity="1.00" d=" M 27.35 27.39 C 28.96 24.80 31.35 21.53 34.83 22.10 C 38.01 22.89 39.81 25.98 41.35 28.61 C 45.13 35.91 46.98 44.00 48.63 52.00 C 38.87 52.00 29.12 52.00 19.36 52.00 C 21.13 43.56 23.03 34.94 27.35 27.39 Z" />
</g>
<g id="#000000ff">
<path fill="#000000" opacity="1.00" d=" M 8.00 8.00 C 9.33 8.00 10.67 8.00 12.00 8.00 C 12.00 22.66 12.00 37.33 12.00 51.99 C 12.82 52.00 14.46 52.02 15.28 52.02 C 16.91 43.92 18.81 35.78 22.35 28.27 C 24.38 23.99 27.40 19.86 31.99 18.12 C 31.99 16.74 32.00 15.37 32.01 14.00 C 33.33 14.00 34.66 14.00 36.00 14.00 C 36.00 15.37 36.01 16.74 36.01 18.12 C 39.63 19.55 42.43 22.39 44.29 25.75 C 48.82 33.74 50.73 42.85 52.69 51.72 C 53.76 51.99 54.87 52.11 56.00 52.10 C 56.00 53.40 56.00 54.70 56.00 56.00 C 40.00 56.00 24.00 56.00 8.00 56.00 C 8.00 40.00 8.00 24.00 8.00 8.00 M 27.35 27.39 C 23.03 34.94 21.13 43.56 19.36 52.00 C 29.12 52.00 38.87 52.00 48.63 52.00 C 46.98 44.00 45.13 35.91 41.35 28.61 C 39.81 25.98 38.01 22.89 34.83 22.10 C 31.35 21.53 28.96 24.80 27.35 27.39 Z" />
<path fill="#000000" opacity="1.00" d=" M 16.00 14.00 C 17.33 14.00 18.67 14.00 20.00 14.00 C 20.00 15.33 20.00 16.67 20.00 18.00 C 18.67 18.00 17.33 18.00 16.00 18.00 C 16.00 16.67 16.00 15.33 16.00 14.00 Z" />
<path fill="#000000" opacity="1.00" d=" M 24.00 14.00 C 25.33 14.00 26.67 14.00 28.00 14.00 C 28.00 15.33 28.00 16.67 28.00 18.00 C 26.67 18.00 25.33 18.00 24.00 18.00 C 24.00 16.67 24.00 15.33 24.00 14.00 Z" />
<path fill="#000000" opacity="1.00" d=" M 40.00 14.00 C 41.33 14.00 42.67 14.00 44.00 14.00 C 44.00 15.33 44.00 16.67 44.00 18.00 C 42.67 18.00 41.33 18.00 40.00 18.00 C 40.00 16.67 40.00 15.33 40.00 14.00 Z" />
<path fill="#000000" opacity="1.00" d=" M 48.00 14.00 C 49.33 14.00 50.67 14.00 52.00 14.00 C 52.00 15.33 52.00 16.67 52.00 18.00 C 50.67 18.00 49.33 18.00 48.00 18.00 C 48.00 16.67 48.00 15.33 48.00 14.00 Z" />
</g>
</svg>
