<?xml version="1.0" encoding="UTF-8" ?>
<!DOCTYPE svg PUBLIC "-//W3C//DTD SVG 1.1//EN" "http://www.w3.org/Graphics/SVG/1.1/DTD/svg11.dtd">
<svg width="64pt" height="64pt" viewBox="0 0 64 64" version="1.1" xmlns="http://www.w3.org/2000/svg">
<g id="#ffffffff">
<path fill="#ffffff" opacity="1.00" d=" M 0.00 0.00 L 64.00 0.00 L 64.00 64.00 L 0.00 64.00 L 0.00 0.00 M 12.92 27.99 C 13.69 27.99 15.23 28.00 16.00 28.00 C 16.00 29.61 16.00 31.22 16.00 32.82 C 16.67 33.49 17.34 34.17 18.01 34.84 C 18.01 37.41 18.01 39.99 17.86 42.56 C 16.65 41.29 15.93 39.74 15.74 38.00 C 14.49 38.00 13.24 38.00 12.00 38.00 C 12.00 36.67 12.00 35.33 12.00 34.00 C 10.67 34.00 9.34 34.00 8.01 34.00 C 8.00 35.16 7.99 36.32 7.98 37.48 C 4.99 39.72 3.67 43.67 3.93 47.32 C 3.28 48.16 2.64 48.99 1.99 49.83 C 2.01 51.88 2.03 53.94 2.05 56.00 C 3.38 56.00 4.72 56.00 6.05 56.00 C 6.04 54.40 6.02 52.79 6.01 51.19 C 6.65 50.38 7.29 49.56 7.93 48.75 C 7.92 46.43 8.02 44.09 9.04 41.96 C 10.20 41.98 11.35 42.00 12.50 42.02 C 14.55 45.64 18.45 47.43 21.98 49.29 C 22.02 43.92 21.99 38.55 22.00 33.18 C 21.33 32.51 20.67 31.84 20.01 31.16 C 19.93 28.53 20.33 25.79 19.44 23.25 C 20.92 19.79 22.48 16.37 24.00 12.93 C 25.52 16.36 27.07 19.77 28.55 23.22 C 27.48 27.39 28.19 31.75 28.01 36.00 C 31.34 36.00 34.67 36.00 38.00 36.00 C 38.00 38.67 38.00 41.33 38.00 44.00 C 41.30 44.00 44.61 44.00 47.91 44.00 C 47.82 39.65 49.07 35.46 50.00 31.26 C 50.94 35.46 52.17 39.65 52.09 44.00 C 53.36 44.00 54.63 44.00 55.90 44.00 C 55.91 41.57 56.23 39.15 57.00 36.84 C 58.94 43.03 57.62 49.63 58.00 56.00 C 59.33 56.00 60.67 56.00 62.00 56.00 C 61.99 52.34 62.00 48.68 62.01 45.02 C 62.57 37.35 58.71 30.36 57.00 23.05 C 56.09 26.05 55.19 29.06 54.29 32.06 C 52.85 25.65 51.45 19.22 50.00 12.81 C 47.88 21.77 46.19 30.84 43.87 39.74 C 43.41 39.88 42.49 40.15 42.03 40.29 C 41.97 35.53 42.01 30.76 42.00 26.00 C 40.67 26.00 39.33 26.00 38.00 26.00 C 38.00 28.00 38.00 30.00 38.00 32.00 C 36.00 32.00 34.00 32.00 32.00 32.00 C 32.00 30.67 32.00 29.33 32.00 28.00 C 32.77 28.00 34.31 28.00 35.08 28.00 C 31.38 19.70 27.70 11.38 24.00 3.08 C 20.30 11.38 16.62 19.69 12.92 27.99 Z" />
</g>
<g id="#000000ff">
<path fill="#000000" opacity="1.00" d=" M 12.92 27.99 C 16.62 19.69 20.30 11.38 24.00 3.08 C 27.70 11.38 31.38 19.70 35.08 28.00 C 34.31 28.00 32.77 28.00 32.00 28.00 C 32.00 29.33 32.00 30.67 32.00 32.00 C 34.00 32.00 36.00 32.00 38.00 32.00 C 38.00 30.00 38.00 28.00 38.00 26.00 C 39.33 26.00 40.67 26.00 42.00 26.00 C 42.01 30.76 41.97 35.53 42.03 40.29 C 42.49 40.15 43.41 39.88 43.87 39.74 C 46.19 30.84 47.88 21.77 50.00 12.81 C 51.45 19.22 52.85 25.65 54.29 32.06 C 55.19 29.06 56.09 26.05 57.00 23.05 C 58.71 30.36 62.57 37.35 62.01 45.02 C 62.00 48.68 61.99 52.34 62.00 56.00 C 60.67 56.00 59.33 56.00 58.00 56.00 C 57.62 49.63 58.94 43.03 57.00 36.84 C 56.23 39.15 55.91 41.57 55.90 44.00 C 54.63 44.00 53.36 44.00 52.09 44.00 C 52.17 39.65 50.94 35.46 50.00 31.26 C 49.07 35.46 47.82 39.65 47.91 44.00 C 44.61 44.00 41.30 44.00 38.00 44.00 C 38.00 41.33 38.00 38.67 38.00 36.00 C 34.67 36.00 31.34 36.00 28.01 36.00 C 28.19 31.75 27.48 27.39 28.55 23.22 C 27.07 19.77 25.52 16.36 24.00 12.93 C 22.48 16.37 20.92 19.79 19.44 23.25 C 20.33 25.79 19.93 28.53 20.01 31.16 C 20.67 31.84 21.33 32.51 22.00 33.18 C 21.99 38.55 22.02 43.92 21.98 49.29 C 18.45 47.43 14.55 45.64 12.50 42.02 C 11.35 42.00 10.20 41.98 9.04 41.96 C 8.02 44.09 7.92 46.43 7.93 48.75 C 7.29 49.56 6.65 50.38 6.01 51.19 C 6.02 52.79 6.04 54.40 6.05 56.00 C 4.72 56.00 3.38 56.00 2.05 56.00 C 2.03 53.94 2.01 51.88 1.99 49.83 C 2.64 48.99 3.28 48.16 3.93 47.32 C 3.67 43.67 4.99 39.72 7.98 37.48 C 7.99 36.32 8.00 35.16 8.01 34.00 C 9.34 34.00 10.67 34.00 12.00 34.00 C 12.00 35.33 12.00 36.67 12.00 38.00 C 13.24 38.00 14.49 38.00 15.74 38.00 C 15.93 39.74 16.65 41.29 17.86 42.56 C 18.01 39.99 18.01 37.41 18.01 34.84 C 17.34 34.17 16.67 33.49 16.00 32.82 C 16.00 31.22 16.00 29.61 16.00 28.00 C 15.23 28.00 13.69 27.99 12.92 27.99 Z" />
</g>
</svg>
