<?xml version="1.0" encoding="UTF-8" ?>
<!DOCTYPE svg PUBLIC "-//W3C//DTD SVG 1.1//EN" "http://www.w3.org/Graphics/SVG/1.1/DTD/svg11.dtd">
<svg width="64pt" height="64pt" viewBox="0 0 64 64" version="1.1" xmlns="http://www.w3.org/2000/svg">
<g id="#ffffffff">
<path fill="#ffffff" opacity="1.00" d=" M 0.00 0.00 L 64.00 0.00 L 64.00 64.00 L 0.00 64.00 L 0.00 0.00 M 5.24 20.09 C 5.75 21.32 6.25 22.55 6.76 23.78 C 14.30 20.60 21.95 17.65 29.43 14.32 C 34.35 16.71 39.02 19.56 43.84 22.13 C 46.48 21.15 49.07 20.03 51.79 19.26 C 52.14 20.44 52.50 21.62 52.87 22.80 C 49.57 23.82 46.49 25.77 42.99 25.99 C 39.76 26.24 37.67 23.46 35.21 21.88 C 31.92 19.67 27.76 20.07 23.99 19.93 C 24.01 21.27 24.02 22.60 24.02 23.94 C 27.63 24.05 31.81 23.57 34.59 26.38 C 37.54 29.23 41.80 30.79 45.86 29.64 C 49.97 28.32 53.94 26.61 57.98 25.10 C 56.67 21.38 55.34 17.67 54.02 13.96 C 50.73 15.25 47.43 16.52 44.11 17.73 C 39.39 15.10 34.67 12.48 29.92 9.90 C 21.69 13.30 13.46 16.69 5.24 20.09 M 6.06 38.83 C 7.25 42.60 8.68 46.29 9.98 50.03 C 13.29 48.81 16.58 47.57 19.85 46.25 C 24.62 48.88 29.39 51.49 34.16 54.11 C 42.35 50.68 50.59 47.38 58.76 43.89 C 58.25 42.67 57.74 41.44 57.24 40.22 C 49.58 43.34 41.99 46.63 34.30 49.67 C 29.62 47.01 24.86 44.47 20.15 41.87 C 17.56 42.86 14.97 43.84 12.39 44.85 C 11.97 43.64 11.53 42.43 11.09 41.22 C 14.39 40.19 17.48 38.24 20.99 38.01 C 24.26 37.75 26.35 40.58 28.84 42.15 C 32.13 44.32 36.26 43.93 40.01 44.07 C 39.99 42.73 39.98 41.39 39.97 40.06 C 37.23 39.92 34.35 40.25 31.75 39.21 C 28.83 37.58 26.59 34.60 23.06 34.18 C 16.97 33.27 11.72 37.32 6.06 38.83 Z" />
</g>
<g id="#000000ff">
<path fill="#000000" opacity="1.00" d=" M 5.24 20.09 C 13.46 16.69 21.69 13.30 29.92 9.90 C 34.67 12.48 39.39 15.10 44.11 17.73 C 47.43 16.52 50.73 15.25 54.02 13.96 C 55.34 17.67 56.67 21.38 57.98 25.10 C 53.94 26.61 49.97 28.32 45.86 29.64 C 41.80 30.79 37.54 29.23 34.59 26.38 C 31.81 23.57 27.63 24.05 24.02 23.94 C 24.02 22.60 24.01 21.27 23.99 19.93 C 27.76 20.07 31.92 19.67 35.21 21.88 C 37.67 23.46 39.76 26.24 42.99 25.99 C 46.49 25.77 49.57 23.82 52.87 22.80 C 52.50 21.62 52.14 20.44 51.79 19.26 C 49.07 20.03 46.48 21.15 43.84 22.13 C 39.02 19.56 34.35 16.71 29.43 14.32 C 21.95 17.65 14.30 20.60 6.76 23.78 C 6.25 22.55 5.75 21.32 5.24 20.09 Z" />
<path fill="#000000" opacity="1.00" d=" M 6.06 38.83 C 11.72 37.32 16.97 33.27 23.06 34.18 C 26.59 34.60 28.83 37.58 31.75 39.21 C 34.35 40.25 37.23 39.92 39.97 40.06 C 39.98 41.39 39.99 42.73 40.01 44.07 C 36.26 43.93 32.13 44.32 28.84 42.15 C 26.35 40.58 24.26 37.75 20.99 38.01 C 17.48 38.24 14.39 40.19 11.09 41.22 C 11.53 42.43 11.97 43.64 12.39 44.85 C 14.97 43.84 17.56 42.86 20.15 41.87 C 24.86 44.47 29.62 47.01 34.30 49.67 C 41.99 46.63 49.58 43.34 57.24 40.22 C 57.74 41.44 58.25 42.67 58.76 43.89 C 50.59 47.38 42.35 50.68 34.16 54.11 C 29.39 51.49 24.62 48.88 19.85 46.25 C 16.58 47.57 13.29 48.81 9.98 50.03 C 8.68 46.29 7.25 42.60 6.06 38.83 Z" />
</g>
</svg>
