<?xml version="1.0" encoding="UTF-8" ?>
<!DOCTYPE svg PUBLIC "-//W3C//DTD SVG 1.1//EN" "http://www.w3.org/Graphics/SVG/1.1/DTD/svg11.dtd">
<svg width="64pt" height="64pt" viewBox="0 0 64 64" version="1.1" xmlns="http://www.w3.org/2000/svg">
<g id="#ffffffff">
<path fill="#ffffff" opacity="1.00" d=" M 0.00 0.00 L 64.00 0.00 L 64.00 64.00 L 0.00 64.00 L 0.00 0.00 M 25.88 8.86 C 23.63 11.36 23.69 15.00 24.94 17.96 C 22.14 18.75 19.37 20.44 18.46 23.37 C 17.24 26.43 18.59 29.67 20.55 32.06 C 19.12 32.02 17.69 31.98 16.26 31.95 C 16.25 36.72 13.61 40.93 9.55 43.34 C 11.71 47.53 12.35 52.25 11.90 56.90 C 16.91 54.80 22.30 53.68 27.74 54.00 C 27.76 49.20 30.45 44.98 34.56 42.62 C 32.94 39.77 31.89 36.63 31.78 33.33 C 35.76 34.88 39.95 35.80 44.21 36.09 C 45.15 39.39 46.93 42.38 49.43 44.74 C 48.86 46.87 48.38 49.03 47.97 51.20 C 45.28 50.59 42.55 50.19 39.81 49.92 C 39.11 48.07 38.35 46.25 37.53 44.45 C 36.40 45.14 35.28 45.82 34.16 46.51 C 35.34 48.86 35.97 51.40 36.26 54.00 C 41.70 53.67 47.09 54.81 52.10 56.91 C 51.65 52.25 52.28 47.53 54.45 43.35 C 50.40 40.93 47.74 36.73 47.74 31.95 C 46.31 31.98 44.88 32.02 43.45 32.06 C 45.41 29.64 46.78 26.38 45.51 23.30 C 44.59 20.40 41.83 18.77 39.06 17.95 C 40.31 15.01 40.36 11.38 38.12 8.88 C 35.17 5.10 28.84 5.10 25.88 8.86 Z" />
<path fill="#ffffff" opacity="1.00" d=" M 30.39 10.36 C 32.88 9.05 36.10 11.28 35.99 14.02 C 36.14 17.09 32.16 19.21 29.74 17.26 C 27.13 15.70 27.62 11.47 30.39 10.36 Z" />
<path fill="#ffffff" opacity="1.00" d=" M 24.30 22.41 C 26.77 21.00 30.08 23.22 29.99 25.98 C 30.18 29.07 26.14 31.24 23.72 29.24 C 21.17 27.69 21.61 23.55 24.30 22.41 Z" />
<path fill="#ffffff" opacity="1.00" d=" M 36.41 22.35 C 38.89 21.06 42.09 23.28 41.99 26.00 C 42.16 29.09 38.12 31.24 35.70 29.23 C 33.12 27.64 33.65 23.43 36.41 22.35 Z" />
<path fill="#ffffff" opacity="1.00" d=" M 19.78 36.08 C 22.46 35.80 25.12 35.42 27.75 34.85 C 28.17 37.04 28.67 39.22 29.31 41.35 C 26.87 43.71 25.12 46.65 24.20 49.92 C 21.45 50.20 18.72 50.59 16.03 51.20 C 15.62 49.03 15.14 46.87 14.56 44.74 C 17.07 42.38 18.86 39.40 19.78 36.08 Z" />
</g>
<g id="#000000ff">
<path fill="#000000" opacity="1.00" d=" M 25.88 8.86 C 28.84 5.10 35.17 5.10 38.12 8.88 C 40.36 11.38 40.31 15.01 39.06 17.95 C 41.83 18.77 44.59 20.40 45.51 23.30 C 46.78 26.38 45.41 29.64 43.45 32.06 C 44.88 32.02 46.31 31.98 47.74 31.95 C 47.74 36.73 50.40 40.93 54.45 43.35 C 52.28 47.53 51.65 52.25 52.10 56.91 C 47.09 54.81 41.70 53.67 36.26 54.00 C 35.97 51.40 35.34 48.86 34.16 46.51 C 35.28 45.82 36.40 45.14 37.53 44.45 C 38.35 46.25 39.11 48.07 39.81 49.92 C 42.55 50.19 45.28 50.59 47.97 51.20 C 48.38 49.03 48.86 46.87 49.43 44.74 C 46.93 42.38 45.15 39.39 44.21 36.09 C 39.95 35.80 35.76 34.88 31.78 33.33 C 31.89 36.63 32.94 39.77 34.56 42.62 C 30.45 44.98 27.76 49.20 27.74 54.00 C 22.30 53.68 16.91 54.80 11.90 56.90 C 12.35 52.25 11.71 47.53 9.55 43.34 C 13.61 40.93 16.25 36.72 16.26 31.95 C 17.69 31.98 19.12 32.02 20.55 32.06 C 18.59 29.67 17.24 26.43 18.46 23.37 C 19.37 20.44 22.14 18.75 24.94 17.96 C 23.69 15.00 23.63 11.36 25.88 8.86 M 30.39 10.36 C 27.62 11.47 27.13 15.70 29.74 17.26 C 32.16 19.21 36.14 17.09 35.99 14.02 C 36.10 11.28 32.88 9.05 30.39 10.36 M 24.30 22.41 C 21.61 23.55 21.17 27.69 23.72 29.24 C 26.14 31.24 30.18 29.07 29.99 25.98 C 30.08 23.22 26.77 21.00 24.30 22.41 M 36.41 22.35 C 33.65 23.43 33.12 27.64 35.70 29.23 C 38.12 31.24 42.16 29.09 41.99 26.00 C 42.09 23.28 38.89 21.06 36.41 22.35 M 19.78 36.08 C 18.86 39.40 17.07 42.38 14.56 44.74 C 15.14 46.87 15.62 49.03 16.03 51.20 C 18.72 50.59 21.45 50.20 24.20 49.92 C 25.12 46.65 26.87 43.71 29.31 41.35 C 28.67 39.22 28.17 37.04 27.75 34.85 C 25.12 35.42 22.46 35.80 19.78 36.08 Z" />
</g>
</svg>
