<?xml version="1.0" encoding="UTF-8" ?>
<!DOCTYPE svg PUBLIC "-//W3C//DTD SVG 1.1//EN" "http://www.w3.org/Graphics/SVG/1.1/DTD/svg11.dtd">
<svg width="64pt" height="64pt" viewBox="0 0 64 64" version="1.1" xmlns="http://www.w3.org/2000/svg">
<g id="#ffffffff">
<path fill="#ffffff" opacity="1.00" d=" M 0.00 0.00 L 64.00 0.00 L 64.00 64.00 L 0.00 64.00 L 0.00 0.00 M 12.03 13.98 C 11.97 25.99 11.97 38.01 12.03 50.02 C 11.93 53.20 14.80 56.05 17.98 55.96 C 29.32 56.07 40.67 55.96 52.01 56.01 C 52.00 40.00 52.00 24.00 52.01 7.99 C 40.67 8.04 29.32 7.94 17.98 8.03 C 14.80 7.93 11.93 10.79 12.03 13.98 Z" />
<path fill="#ffffff" opacity="1.00" d=" M 16.30 12.30 C 26.85 11.62 37.44 12.19 48.01 11.99 C 48.00 22.66 48.00 33.34 48.01 44.01 C 37.34 44.08 26.66 43.81 16.00 44.15 C 16.18 33.54 15.62 22.89 16.30 12.30 M 30.02 16.00 C 30.01 18.00 30.00 20.00 30.00 22.00 C 28.00 22.00 26.00 22.01 24.00 22.02 C 24.00 23.34 24.00 24.66 24.00 25.98 C 26.00 25.99 28.01 26.01 30.02 26.02 C 29.96 30.68 30.02 35.34 30.01 40.00 C 31.33 40.00 32.66 40.00 33.99 40.00 C 33.98 35.34 34.04 30.68 33.98 26.02 C 35.99 26.01 38.00 25.99 40.00 25.98 C 40.00 24.66 40.00 23.34 40.00 22.02 C 38.00 22.01 36.00 22.00 34.00 22.00 C 34.00 20.00 33.99 18.00 33.98 16.00 C 32.66 16.00 31.34 16.00 30.02 16.00 Z" />
<path fill="#ffffff" opacity="1.00" d=" M 18.06 51.94 C 15.40 52.25 15.36 47.74 18.05 48.06 C 28.03 47.91 38.02 48.04 48.00 48.01 C 48.00 49.34 48.00 50.66 48.00 51.99 C 38.02 51.96 28.04 52.09 18.06 51.94 Z" />
</g>
<g id="#000000ff">
<path fill="#000000" opacity="1.00" d=" M 12.03 13.98 C 11.93 10.79 14.80 7.93 17.98 8.03 C 29.32 7.94 40.67 8.04 52.01 7.99 C 52.00 24.00 52.00 40.00 52.01 56.01 C 40.67 55.96 29.32 56.07 17.98 55.96 C 14.80 56.05 11.93 53.20 12.03 50.02 C 11.97 38.01 11.97 25.99 12.03 13.98 M 16.30 12.30 C 15.62 22.89 16.18 33.54 16.00 44.15 C 26.66 43.81 37.34 44.08 48.01 44.01 C 48.00 33.34 48.00 22.66 48.01 11.99 C 37.44 12.19 26.85 11.62 16.30 12.30 M 18.06 51.94 C 28.04 52.09 38.02 51.96 48.00 51.99 C 48.00 50.66 48.00 49.34 48.00 48.01 C 38.02 48.04 28.03 47.91 18.05 48.06 C 15.36 47.74 15.40 52.25 18.06 51.94 Z" />
<path fill="#000000" opacity="1.00" d=" M 30.02 16.00 C 31.34 16.00 32.66 16.00 33.98 16.00 C 33.99 18.00 34.00 20.00 34.00 22.00 C 36.00 22.00 38.00 22.01 40.00 22.02 C 40.00 23.34 40.00 24.66 40.00 25.98 C 38.00 25.99 35.99 26.01 33.98 26.02 C 34.04 30.68 33.98 35.34 33.99 40.00 C 32.66 40.00 31.33 40.00 30.01 40.00 C 30.02 35.34 29.96 30.68 30.02 26.02 C 28.01 26.01 26.00 25.99 24.00 25.98 C 24.00 24.66 24.00 23.34 24.00 22.02 C 26.00 22.01 28.00 22.00 30.00 22.00 C 30.00 20.00 30.01 18.00 30.02 16.00 Z" />
</g>
</svg>
