<?xml version="1.0" encoding="UTF-8" ?>
<!DOCTYPE svg PUBLIC "-//W3C//DTD SVG 1.1//EN" "http://www.w3.org/Graphics/SVG/1.1/DTD/svg11.dtd">
<svg width="60pt" height="60pt" viewBox="0 0 60 60" version="1.1" xmlns="http://www.w3.org/2000/svg">
<g id="#ffffffff">
<path fill="#ffffff" opacity="1.00" d=" M 0.00 0.00 L 60.00 0.00 L 60.00 60.00 L 0.00 60.00 L 0.00 0.00 M 8.26 11.15 C 6.84 11.72 5.13 11.92 4.09 13.14 C 3.50 14.76 5.07 16.55 6.73 15.81 C 14.51 13.33 22.25 10.71 29.99 8.11 C 37.31 10.45 44.55 12.98 51.84 15.40 C 52.94 15.66 54.43 16.53 55.36 15.40 C 56.83 14.21 55.60 12.03 53.90 11.86 C 45.94 9.26 38.06 6.35 30.01 4.04 C 22.69 6.16 15.53 8.86 8.26 11.15 M 9.12 18.17 C 7.42 19.16 8.20 21.40 7.98 23.00 C 8.14 32.28 7.75 41.59 8.17 50.85 C 8.40 51.10 8.86 51.58 9.09 51.82 C 12.34 52.14 15.64 52.14 18.89 51.82 C 20.57 50.80 19.81 48.59 20.02 46.98 C 19.86 37.72 20.24 28.44 19.84 19.19 C 19.60 18.94 19.13 18.43 18.90 18.18 C 15.66 17.86 12.37 17.87 9.12 18.17 M 41.08 20.18 C 40.85 20.43 40.39 20.94 40.16 21.19 C 39.77 29.78 40.13 38.41 39.98 47.01 C 40.19 48.61 39.44 50.79 41.09 51.82 C 44.34 52.14 47.64 52.14 50.89 51.82 C 52.31 51.07 51.90 49.34 52.01 48.04 C 51.98 39.68 52.03 31.33 51.99 22.97 C 52.17 21.71 51.61 19.88 50.01 20.07 C 47.04 19.93 44.04 19.85 41.08 20.18 M 25.14 24.16 C 23.42 25.14 24.20 27.37 23.98 28.97 C 24.15 36.28 23.74 43.61 24.18 50.91 C 25.80 52.89 28.81 51.68 31.03 52.04 C 32.71 51.88 35.90 52.60 35.93 50.05 C 35.98 41.73 36.20 33.39 35.81 25.09 C 32.99 22.85 28.57 24.33 25.14 24.16 Z" />
<path fill="#ffffff" opacity="1.00" d=" M 10.20 24.02 C 12.73 24.00 15.26 24.00 17.79 24.02 C 17.79 24.51 17.79 25.49 17.79 25.98 C 15.26 26.00 12.74 26.00 10.21 25.98 C 10.21 25.49 10.20 24.51 10.20 24.02 Z" />
<path fill="#ffffff" opacity="1.00" d=" M 42.20 26.02 C 44.73 26.00 47.27 26.00 49.80 26.03 C 49.79 26.51 49.78 27.49 49.78 27.98 C 47.26 28.00 44.74 28.00 42.21 27.98 C 42.21 27.49 42.20 26.51 42.20 26.02 Z" />
<path fill="#ffffff" opacity="1.00" d=" M 26.20 30.02 C 28.73 30.00 31.26 30.00 33.79 30.02 C 33.79 30.51 33.79 31.49 33.79 31.98 C 31.26 32.00 28.74 32.00 26.21 31.98 C 26.21 31.49 26.20 30.51 26.20 30.02 Z" />
<path fill="#ffffff" opacity="1.00" d=" M 10.20 40.02 C 12.73 40.00 15.26 40.00 17.79 40.02 C 17.79 40.51 17.79 41.49 17.79 41.98 C 15.26 42.00 12.74 42.00 10.21 41.98 C 10.21 41.49 10.20 40.51 10.20 40.02 Z" />
<path fill="#ffffff" opacity="1.00" d=" M 26.20 40.02 C 28.73 40.00 31.26 40.00 33.80 40.03 C 33.79 40.51 33.78 41.49 33.78 41.98 C 31.26 42.00 28.74 42.00 26.22 41.98 C 26.21 41.49 26.20 40.51 26.20 40.02 Z" />
<path fill="#ffffff" opacity="1.00" d=" M 42.20 40.02 C 44.73 40.00 47.26 40.00 49.79 40.02 C 49.79 40.51 49.79 41.49 49.78 41.98 C 47.26 42.00 44.74 42.00 42.21 41.98 C 42.21 41.49 42.20 40.51 42.20 40.02 Z" />
<path fill="#ffffff" opacity="1.00" d=" M 10.21 44.02 C 12.74 44.00 15.26 44.00 17.79 44.02 C 17.79 44.51 17.78 45.49 17.78 45.98 C 15.26 46.00 12.73 46.00 10.20 45.97 C 10.20 45.48 10.21 44.51 10.21 44.02 Z" />
<path fill="#ffffff" opacity="1.00" d=" M 26.19 44.02 C 28.73 44.00 31.26 44.00 33.80 44.03 C 33.79 44.51 33.78 45.49 33.78 45.98 C 31.26 46.00 28.74 46.00 26.21 45.98 C 26.21 45.49 26.20 44.51 26.19 44.02 Z" />
<path fill="#ffffff" opacity="1.00" d=" M 42.20 44.02 C 44.73 44.00 47.27 44.00 49.80 44.03 C 49.80 44.52 49.78 45.49 49.78 45.98 C 47.25 46.00 44.73 46.00 42.21 45.98 C 42.21 45.49 42.20 44.51 42.20 44.02 Z" />
</g>
<g id="#000000ff">
<path fill="#968176" opacity="1.00" d=" M 8.26 11.15 C 15.53 8.86 22.69 6.16 30.01 4.04 C 38.06 6.35 45.94 9.26 53.90 11.86 C 55.60 12.03 56.83 14.21 55.36 15.40 C 54.43 16.53 52.94 15.66 51.84 15.40 C 44.55 12.98 37.31 10.45 29.99 8.11 C 22.25 10.71 14.51 13.33 6.73 15.81 C 5.07 16.55 3.50 14.76 4.09 13.14 C 5.13 11.92 6.84 11.72 8.26 11.15 Z" />
<path fill="#968176" opacity="1.00" d=" M 9.12 18.17 C 12.37 17.87 15.66 17.86 18.90 18.18 C 19.13 18.43 19.60 18.94 19.84 19.19 C 20.24 28.44 19.86 37.72 20.02 46.98 C 19.81 48.59 20.57 50.80 18.89 51.82 C 15.64 52.14 12.34 52.14 9.09 51.82 C 8.86 51.58 8.40 51.10 8.17 50.85 C 7.75 41.59 8.14 32.28 7.98 23.00 C 8.20 21.40 7.42 19.16 9.12 18.17 M 10.20 24.02 C 10.20 24.51 10.21 25.49 10.21 25.98 C 12.74 26.00 15.26 26.00 17.79 25.98 C 17.79 25.49 17.79 24.51 17.79 24.02 C 15.26 24.00 12.73 24.00 10.20 24.02 M 10.20 40.02 C 10.20 40.51 10.21 41.49 10.21 41.98 C 12.74 42.00 15.26 42.00 17.79 41.98 C 17.79 41.49 17.79 40.51 17.79 40.02 C 15.26 40.00 12.73 40.00 10.20 40.02 M 10.21 44.02 C 10.21 44.51 10.20 45.48 10.20 45.97 C 12.73 46.00 15.26 46.00 17.78 45.98 C 17.78 45.49 17.79 44.51 17.79 44.02 C 15.26 44.00 12.74 44.00 10.21 44.02 Z" />
<path fill="#968176" opacity="1.00" d=" M 41.08 20.18 C 44.04 19.85 47.04 19.93 50.01 20.07 C 51.61 19.88 52.17 21.71 51.99 22.97 C 52.03 31.33 51.98 39.68 52.01 48.04 C 51.90 49.34 52.31 51.07 50.89 51.82 C 47.64 52.14 44.34 52.14 41.09 51.82 C 39.44 50.79 40.19 48.61 39.98 47.01 C 40.13 38.41 39.77 29.78 40.16 21.19 C 40.39 20.94 40.85 20.43 41.08 20.18 M 42.20 26.02 C 42.20 26.51 42.21 27.49 42.21 27.98 C 44.74 28.00 47.26 28.00 49.78 27.98 C 49.78 27.49 49.79 26.51 49.80 26.03 C 47.27 26.00 44.73 26.00 42.20 26.02 M 42.20 40.02 C 42.20 40.51 42.21 41.49 42.21 41.98 C 44.74 42.00 47.26 42.00 49.78 41.98 C 49.79 41.49 49.79 40.51 49.79 40.02 C 47.26 40.00 44.73 40.00 42.20 40.02 M 42.20 44.02 C 42.20 44.51 42.21 45.49 42.21 45.98 C 44.73 46.00 47.25 46.00 49.78 45.98 C 49.78 45.49 49.80 44.52 49.80 44.03 C 47.27 44.00 44.73 44.00 42.20 44.02 Z" />
<path fill="#968176" opacity="1.00" d=" M 25.14 24.16 C 28.57 24.33 32.99 22.85 35.81 25.09 C 36.20 33.39 35.98 41.73 35.93 50.05 C 35.90 52.60 32.71 51.88 31.03 52.04 C 28.81 51.68 25.80 52.89 24.18 50.91 C 23.74 43.61 24.15 36.28 23.98 28.97 C 24.20 27.37 23.42 25.14 25.14 24.16 M 26.20 30.02 C 26.20 30.51 26.21 31.49 26.21 31.98 C 28.74 32.00 31.26 32.00 33.79 31.98 C 33.79 31.49 33.79 30.51 33.79 30.02 C 31.26 30.00 28.73 30.00 26.20 30.02 M 26.20 40.02 C 26.20 40.51 26.21 41.49 26.22 41.98 C 28.74 42.00 31.26 42.00 33.78 41.98 C 33.78 41.49 33.79 40.51 33.80 40.03 C 31.26 40.00 28.73 40.00 26.20 40.02 M 26.19 44.02 C 26.20 44.51 26.21 45.49 26.21 45.98 C 28.74 46.00 31.26 46.00 33.78 45.98 C 33.78 45.49 33.79 44.51 33.80 44.03 C 31.26 44.00 28.73 44.00 26.19 44.02 Z" />
</g>
</svg>
