<?xml version="1.0" encoding="UTF-8" ?>
<!DOCTYPE svg PUBLIC "-//W3C//DTD SVG 1.1//EN" "http://www.w3.org/Graphics/SVG/1.1/DTD/svg11.dtd">
<svg width="60pt" height="60pt" viewBox="0 0 60 60" version="1.1" xmlns="http://www.w3.org/2000/svg">
<g id="#ffffffff">
<path fill="#ffffff" opacity="1.00" d=" M 0.00 0.00 L 60.00 0.00 L 60.00 60.00 L 0.00 60.00 L 0.00 0.00 M 27.00 5.85 C 20.15 11.73 12.84 17.10 6.18 23.17 C 5.17 25.68 8.25 26.14 10.00 26.19 C 10.07 33.50 9.87 40.82 10.07 48.13 C 9.95 50.68 12.62 52.30 14.95 52.00 C 24.97 52.01 35.00 52.01 45.02 52.00 C 47.37 52.33 49.98 50.66 49.93 48.13 C 50.12 40.82 49.94 33.50 50.00 26.19 C 51.34 25.89 53.09 26.17 53.92 24.79 C 54.35 22.27 51.44 21.27 50.00 19.75 C 50.02 16.86 50.15 13.97 49.81 11.09 C 48.83 9.47 46.66 9.99 45.10 10.16 C 43.45 11.14 44.34 13.31 43.84 14.84 C 39.74 11.40 35.67 7.90 31.42 4.66 C 29.92 3.09 28.26 4.93 27.00 5.85 Z" />
<path fill="#ffffff" opacity="1.00" d=" M 36.00 30.00 C 38.67 30.00 41.33 30.00 44.00 30.00 C 44.00 35.33 44.00 40.67 44.00 46.00 C 41.33 46.00 38.67 46.00 36.00 46.00 C 36.00 40.67 36.00 35.33 36.00 30.00 Z" />
</g>
<g id="#000000ff">
<path fill="#968176" opacity="1.00" d=" M 27.00 5.85 C 28.26 4.93 29.92 3.09 31.42 4.66 C 35.67 7.90 39.74 11.40 43.84 14.84 C 44.34 13.31 43.45 11.14 45.10 10.16 C 46.66 9.99 48.83 9.47 49.81 11.09 C 50.15 13.97 50.02 16.86 50.00 19.75 C 51.44 21.27 54.35 22.27 53.92 24.79 C 53.09 26.17 51.34 25.89 50.00 26.19 C 49.94 33.50 50.12 40.82 49.93 48.13 C 49.98 50.66 47.37 52.33 45.02 52.00 C 35.00 52.01 24.97 52.01 14.95 52.00 C 12.62 52.30 9.95 50.68 10.07 48.13 C 9.87 40.82 10.07 33.50 10.00 26.19 C 8.25 26.14 5.17 25.68 6.18 23.17 C 12.84 17.10 20.15 11.73 27.00 5.85 M 36.00 30.00 C 36.00 35.33 36.00 40.67 36.00 46.00 C 38.67 46.00 41.33 46.00 44.00 46.00 C 44.00 40.67 44.00 35.33 44.00 30.00 C 41.33 30.00 38.67 30.00 36.00 30.00 Z" />
</g>
</svg>
