<?xml version="1.0" encoding="UTF-8" ?>
<!DOCTYPE svg PUBLIC "-//W3C//DTD SVG 1.1//EN" "http://www.w3.org/Graphics/SVG/1.1/DTD/svg11.dtd">
<svg width="60pt" height="60pt" viewBox="0 0 60 60" version="1.1" xmlns="http://www.w3.org/2000/svg">
<g id="#ffffffff">
<path fill="#ffffff" opacity="1.00" d=" M 0.00 0.00 L 60.00 0.00 L 60.00 60.00 L 0.00 60.00 L 0.00 0.00 M 29.18 4.18 C 26.76 5.06 28.52 9.04 30.77 7.80 C 33.27 6.99 31.48 2.96 29.18 4.18 M 6.34 10.36 C 4.56 11.12 3.85 13.11 4.00 14.92 C 4.03 25.31 3.92 35.71 4.06 46.10 C 4.00 48.62 6.61 50.34 8.96 50.00 C 23.34 49.96 37.72 50.08 52.09 49.94 C 54.61 49.99 56.34 47.39 56.00 45.03 C 55.97 34.66 56.08 24.29 55.94 13.92 C 56.00 11.38 53.38 9.65 51.01 10.00 C 37.67 9.98 24.33 10.04 10.99 9.97 C 9.44 10.03 7.83 9.86 6.34 10.36 Z" />
<path fill="#ffffff" opacity="1.00" d=" M 8.00 14.00 C 22.67 14.00 37.33 14.00 52.00 14.00 C 52.00 24.67 52.00 35.33 52.00 46.00 C 37.33 46.00 22.67 46.00 8.00 46.00 C 8.00 35.33 8.00 24.67 8.00 14.00 M 24.75 22.83 C 22.42 22.76 19.70 23.35 18.78 25.80 C 17.44 28.48 19.17 31.33 21.54 32.66 C 20.61 35.13 20.61 38.38 23.20 39.87 C 25.39 41.44 28.09 40.38 30.00 38.90 C 31.89 40.36 34.57 41.43 36.76 39.89 C 39.38 38.43 39.39 35.15 38.46 32.66 C 40.67 31.33 42.44 28.79 41.36 26.15 C 40.56 23.49 37.70 22.72 35.23 22.81 C 34.58 20.39 32.86 17.92 30.06 17.98 C 27.20 17.83 25.40 20.35 24.75 22.83 Z" />
<path fill="#ffffff" opacity="1.00" d=" M 28.32 26.40 C 30.80 25.00 34.11 27.25 33.99 30.01 C 34.11 33.04 30.15 35.23 27.73 33.25 C 25.16 31.70 25.61 27.53 28.32 26.40 Z" />
</g>
<g id="#000000ff">
<path fill="#000000" opacity="1.00" d=" M 29.18 4.18 C 31.48 2.96 33.27 6.99 30.77 7.80 C 28.52 9.04 26.76 5.06 29.18 4.18 Z" />
<path fill="#000000" opacity="1.00" d=" M 6.34 10.36 C 7.83 9.86 9.44 10.03 10.99 9.97 C 24.33 10.04 37.67 9.98 51.01 10.00 C 53.38 9.65 56.00 11.38 55.94 13.92 C 56.08 24.29 55.97 34.66 56.00 45.03 C 56.34 47.39 54.61 49.99 52.09 49.94 C 37.72 50.08 23.34 49.96 8.96 50.00 C 6.61 50.34 4.00 48.62 4.06 46.10 C 3.92 35.71 4.03 25.31 4.00 14.92 C 3.85 13.11 4.56 11.12 6.34 10.36 M 8.00 14.00 C 8.00 24.67 8.00 35.33 8.00 46.00 C 22.67 46.00 37.33 46.00 52.00 46.00 C 52.00 35.33 52.00 24.67 52.00 14.00 C 37.33 14.00 22.67 14.00 8.00 14.00 Z" />
<path fill="#000000" opacity="1.00" d=" M 24.75 22.83 C 25.40 20.35 27.20 17.83 30.06 17.98 C 32.86 17.92 34.58 20.39 35.23 22.81 C 37.70 22.72 40.56 23.49 41.36 26.15 C 42.44 28.79 40.67 31.33 38.46 32.66 C 39.39 35.15 39.38 38.43 36.76 39.89 C 34.57 41.43 31.89 40.36 30.00 38.90 C 28.09 40.38 25.39 41.44 23.20 39.87 C 20.61 38.38 20.61 35.13 21.54 32.66 C 19.17 31.33 17.44 28.48 18.78 25.80 C 19.70 23.35 22.42 22.76 24.75 22.83 M 28.32 26.40 C 25.61 27.53 25.16 31.70 27.73 33.25 C 30.15 35.23 34.11 33.04 33.99 30.01 C 34.11 27.25 30.80 25.00 28.32 26.40 Z" />
</g>
</svg>
