<?xml version="1.0" encoding="UTF-8" ?>
<!DOCTYPE svg PUBLIC "-//W3C//DTD SVG 1.1//EN" "http://www.w3.org/Graphics/SVG/1.1/DTD/svg11.dtd">
<svg width="60pt" height="60pt" viewBox="0 0 60 60" version="1.1" xmlns="http://www.w3.org/2000/svg">
<g id="#ffffffff">
<path fill="#ffffff" opacity="1.00" d=" M 0.00 0.00 L 60.00 0.00 L 60.00 60.00 L 0.00 60.00 L 0.00 0.00 M 16.87 16.86 C 13.02 16.22 8.12 18.72 5.69 14.49 C 3.03 16.46 1.80 19.85 2.04 23.09 C 2.14 29.49 6.43 35.17 12.26 37.60 C 10.78 40.07 10.36 42.91 9.64 45.65 C 8.65 46.75 7.21 47.25 5.97 48.00 C 10.56 57.45 24.50 57.29 30.87 49.88 C 32.82 51.49 35.11 52.58 37.28 53.84 C 38.49 54.98 38.36 56.81 38.76 58.31 C 42.89 57.18 46.59 54.20 47.97 50.06 C 49.94 45.13 49.22 39.50 46.73 34.89 C 49.48 34.29 51.83 32.72 53.52 30.49 C 54.98 30.27 56.43 30.05 57.89 29.82 C 58.71 19.95 48.04 12.24 38.80 14.94 C 38.36 12.06 36.72 9.64 35.57 7.03 C 35.71 5.56 36.43 4.26 36.98 2.92 C 27.66 -0.87 17.19 7.22 16.87 16.86 Z" />
<path fill="#ffffff" opacity="1.00" d=" M 26.01 18.00 C 27.33 18.00 28.66 18.00 29.99 18.00 C 30.00 19.36 30.01 20.72 30.02 22.08 C 32.32 22.98 34.28 24.58 34.84 27.10 C 34.03 27.10 32.39 27.10 31.58 27.09 C 30.40 24.23 24.57 24.00 25.16 27.80 C 27.97 30.19 33.54 28.86 34.75 33.13 C 35.74 36.47 33.00 39.16 30.02 39.97 C 30.01 41.31 30.00 42.66 29.99 44.00 C 28.66 44.00 27.33 44.00 26.01 44.00 C 26.00 42.65 25.99 41.29 25.98 39.94 C 23.46 39.19 21.41 37.50 20.83 34.84 C 21.67 34.84 23.33 34.84 24.16 34.84 C 25.31 36.28 26.93 37.48 28.90 37.02 C 30.61 37.02 32.38 34.78 30.60 33.51 C 27.67 32.03 23.02 32.62 21.71 28.93 C 20.57 25.73 23.09 22.97 25.98 22.10 C 25.99 20.73 26.00 19.37 26.01 18.00 Z" />
</g>
<g id="#000000ff">
<path fill="#000000" opacity="1.00" d=" M 16.87 16.86 C 17.19 7.22 27.66 -0.87 36.98 2.92 C 36.43 4.26 35.71 5.56 35.57 7.03 C 36.72 9.64 38.36 12.06 38.80 14.94 C 48.04 12.24 58.71 19.95 57.89 29.82 C 56.43 30.05 54.98 30.27 53.52 30.49 C 51.83 32.72 49.48 34.29 46.73 34.89 C 49.22 39.50 49.94 45.13 47.97 50.06 C 46.59 54.20 42.89 57.18 38.76 58.31 C 38.36 56.81 38.49 54.98 37.28 53.84 C 35.11 52.58 32.82 51.49 30.87 49.88 C 24.50 57.29 10.56 57.45 5.97 48.00 C 7.21 47.25 8.65 46.75 9.64 45.65 C 10.36 42.91 10.78 40.07 12.26 37.60 C 6.43 35.17 2.14 29.49 2.04 23.09 C 1.80 19.85 3.03 16.46 5.69 14.49 C 8.12 18.72 13.02 16.22 16.87 16.86 M 26.01 18.00 C 26.00 19.37 25.99 20.73 25.98 22.10 C 23.09 22.97 20.57 25.73 21.71 28.93 C 23.02 32.62 27.67 32.03 30.60 33.51 C 32.38 34.78 30.61 37.02 28.90 37.02 C 26.93 37.48 25.31 36.28 24.16 34.84 C 23.33 34.84 21.67 34.84 20.83 34.84 C 21.41 37.50 23.46 39.19 25.98 39.94 C 25.99 41.29 26.00 42.65 26.01 44.00 C 27.33 44.00 28.66 44.00 29.99 44.00 C 30.00 42.66 30.01 41.31 30.02 39.97 C 33.00 39.16 35.74 36.47 34.75 33.13 C 33.54 28.86 27.97 30.19 25.16 27.80 C 24.57 24.00 30.40 24.23 31.58 27.09 C 32.39 27.10 34.03 27.10 34.84 27.10 C 34.28 24.58 32.32 22.98 30.02 22.08 C 30.01 20.72 30.00 19.36 29.99 18.00 C 28.66 18.00 27.33 18.00 26.01 18.00 Z" />
</g>
</svg>
