<?xml version="1.0" encoding="UTF-8" ?>
<!DOCTYPE svg PUBLIC "-//W3C//DTD SVG 1.1//EN" "http://www.w3.org/Graphics/SVG/1.1/DTD/svg11.dtd">
<svg width="60pt" height="60pt" viewBox="0 0 60 60" version="1.1" xmlns="http://www.w3.org/2000/svg">
<g id="#ffffffff">
<path fill="#ffffff" opacity="1.00" d=" M 0.00 0.00 L 60.00 0.00 L 60.00 60.00 L 0.00 60.00 L 0.00 0.00 M 35.47 4.70 C 32.37 6.13 30.43 11.14 33.71 13.39 C 37.82 15.71 43.20 10.77 41.75 6.44 C 40.91 3.90 37.54 3.43 35.47 4.70 M 44.40 10.38 C 42.36 11.19 40.87 14.54 43.24 15.86 C 45.78 16.59 48.72 13.75 47.77 11.23 C 47.31 9.85 45.47 9.77 44.40 10.38 M 24.17 22.94 C 23.85 27.80 21.47 32.59 17.35 35.30 C 14.26 37.77 9.97 39.38 8.49 43.33 C 6.82 47.59 9.62 52.76 14.06 53.74 C 17.93 54.81 21.28 52.08 24.43 50.29 C 25.76 51.22 27.18 52.24 28.91 51.99 C 33.14 51.83 37.50 52.47 41.64 51.60 C 45.88 48.98 43.28 43.06 44.03 38.99 C 46.46 37.09 48.51 34.20 47.91 30.95 C 47.45 27.20 44.07 24.96 41.70 22.39 C 39.09 19.99 36.84 16.51 33.01 16.08 C 28.85 15.44 24.47 18.68 24.17 22.94 M 49.28 16.12 C 47.30 16.67 45.67 19.12 46.99 21.03 C 49.38 22.54 52.50 19.83 51.91 17.26 C 51.35 16.18 50.47 15.80 49.28 16.12 M 51.17 23.22 C 48.88 23.76 47.93 28.24 51.05 27.92 C 54.34 28.17 55.15 21.71 51.17 23.22 Z" />
<path fill="#ffffff" opacity="1.00" d=" M 28.00 31.00 C 30.00 29.50 32.00 28.00 34.00 26.50 C 36.00 28.00 38.00 29.50 40.00 31.00 C 40.00 36.67 40.00 42.33 40.00 48.00 C 36.00 48.00 32.00 48.00 28.00 48.00 C 28.00 42.33 28.00 36.67 28.00 31.00 M 33.20 32.10 C 30.87 33.14 32.36 36.83 34.78 35.90 C 37.14 34.85 35.63 31.16 33.20 32.10 Z" />
</g>
<g id="#000000ff">
<path fill="#000000" opacity="1.00" d=" M 35.47 4.70 C 37.54 3.43 40.91 3.90 41.75 6.44 C 43.20 10.77 37.82 15.71 33.71 13.39 C 30.43 11.14 32.37 6.13 35.47 4.70 Z" />
<path fill="#000000" opacity="1.00" d=" M 44.40 10.38 C 45.47 9.77 47.31 9.85 47.77 11.23 C 48.72 13.75 45.78 16.59 43.24 15.86 C 40.87 14.54 42.36 11.19 44.40 10.38 Z" />
<path fill="#000000" opacity="1.00" d=" M 24.17 22.94 C 24.47 18.68 28.85 15.44 33.01 16.08 C 36.84 16.51 39.09 19.99 41.70 22.39 C 44.07 24.96 47.45 27.20 47.91 30.95 C 48.51 34.20 46.46 37.09 44.03 38.99 C 43.28 43.06 45.88 48.98 41.64 51.60 C 37.50 52.47 33.14 51.83 28.91 51.99 C 27.18 52.24 25.76 51.22 24.43 50.29 C 21.28 52.08 17.93 54.81 14.06 53.74 C 9.62 52.76 6.82 47.59 8.49 43.33 C 9.97 39.38 14.26 37.77 17.35 35.30 C 21.47 32.59 23.85 27.80 24.17 22.94 M 28.00 31.00 C 28.00 36.67 28.00 42.33 28.00 48.00 C 32.00 48.00 36.00 48.00 40.00 48.00 C 40.00 42.33 40.00 36.67 40.00 31.00 C 38.00 29.50 36.00 28.00 34.00 26.50 C 32.00 28.00 30.00 29.50 28.00 31.00 Z" />
<path fill="#000000" opacity="1.00" d=" M 49.28 16.12 C 50.47 15.80 51.35 16.18 51.91 17.26 C 52.50 19.83 49.38 22.54 46.99 21.03 C 45.67 19.12 47.30 16.67 49.28 16.12 Z" />
<path fill="#000000" opacity="1.00" d=" M 51.17 23.22 C 55.15 21.71 54.34 28.17 51.05 27.92 C 47.93 28.24 48.88 23.76 51.17 23.22 Z" />
<path fill="#000000" opacity="1.00" d=" M 33.20 32.10 C 35.63 31.16 37.14 34.85 34.78 35.90 C 32.36 36.83 30.87 33.14 33.20 32.10 Z" />
</g>
</svg>
