<?xml version="1.0" encoding="UTF-8" ?>
<!DOCTYPE svg PUBLIC "-//W3C//DTD SVG 1.1//EN" "http://www.w3.org/Graphics/SVG/1.1/DTD/svg11.dtd">
<svg width="60pt" height="60pt" viewBox="0 0 60 60" version="1.1" xmlns="http://www.w3.org/2000/svg">
<g id="#ffffffff">
<path fill="#ffffff" opacity="1.00" d=" M 0.00 0.00 L 60.00 0.00 L 60.00 60.00 L 0.00 60.00 L 0.00 0.00 M 28.36 6.43 C 22.32 9.63 16.41 13.08 10.40 16.36 C 8.63 17.15 7.81 19.06 8.00 20.93 C 8.02 29.98 7.93 39.04 8.05 48.09 C 7.93 50.64 10.59 52.32 12.93 52.00 C 24.66 51.97 36.38 52.07 48.10 51.95 C 50.57 52.00 52.32 49.47 52.00 47.14 C 51.97 38.04 52.09 28.94 51.94 19.85 C 52.04 17.68 49.99 16.52 48.36 15.61 C 43.43 12.90 38.52 10.15 33.61 7.40 C 32.04 6.57 30.13 5.38 28.36 6.43 Z" />
<path fill="#ffffff" opacity="1.00" d=" M 13.89 34.71 C 15.53 26.66 22.02 19.87 29.99 17.90 C 30.24 18.59 30.72 19.97 30.96 20.66 C 32.40 19.21 34.04 17.97 35.90 17.11 C 35.96 18.72 36.00 20.34 36.03 21.95 C 40.06 24.04 40.00 29.02 43.14 31.87 C 44.08 32.91 45.17 33.84 45.93 35.03 C 46.08 36.75 45.57 38.43 45.30 40.11 C 43.37 40.19 41.18 41.03 39.50 39.67 C 36.90 37.56 33.17 37.98 30.76 35.53 C 28.39 38.90 30.98 43.14 29.06 46.73 C 23.16 44.02 17.21 40.51 13.89 34.71 M 36.17 28.17 C 35.65 29.79 36.20 30.34 37.82 29.82 C 38.34 28.20 37.79 27.65 36.17 28.17 Z" />
</g>
<g id="#000000ff">
<path fill="#968176" opacity="1.00" d=" M 28.36 6.43 C 30.13 5.38 32.04 6.57 33.61 7.40 C 38.52 10.15 43.43 12.90 48.36 15.61 C 49.99 16.52 52.04 17.68 51.94 19.85 C 52.09 28.94 51.97 38.04 52.00 47.14 C 52.32 49.47 50.57 52.00 48.10 51.95 C 36.38 52.07 24.66 51.97 12.93 52.00 C 10.59 52.32 7.93 50.64 8.05 48.09 C 7.93 39.04 8.02 29.98 8.00 20.93 C 7.81 19.06 8.63 17.15 10.40 16.36 C 16.41 13.08 22.32 9.63 28.36 6.43 M 13.89 34.71 C 17.21 40.51 23.16 44.02 29.06 46.73 C 30.98 43.14 28.39 38.90 30.76 35.53 C 33.17 37.98 36.90 37.56 39.50 39.67 C 41.18 41.03 43.37 40.19 45.30 40.11 C 45.57 38.43 46.08 36.75 45.93 35.03 C 45.17 33.84 44.08 32.91 43.14 31.87 C 40.00 29.02 40.06 24.04 36.03 21.95 C 36.00 20.34 35.96 18.72 35.90 17.11 C 34.04 17.97 32.40 19.21 30.96 20.66 C 30.72 19.97 30.24 18.59 29.99 17.90 C 22.02 19.87 15.53 26.66 13.89 34.71 Z" />
<path fill="#968176" opacity="1.00" d=" M 36.17 28.17 C 37.79 27.65 38.34 28.20 37.82 29.82 C 36.20 30.34 35.65 29.79 36.17 28.17 Z" />
</g>
</svg>
