<?xml version="1.0" encoding="UTF-8" ?>
<!DOCTYPE svg PUBLIC "-//W3C//DTD SVG 1.1//EN" "http://www.w3.org/Graphics/SVG/1.1/DTD/svg11.dtd">
<svg width="60pt" height="60pt" viewBox="0 0 60 60" version="1.1" xmlns="http://www.w3.org/2000/svg">
<g id="#ffffffff">
<path fill="#ffffff" opacity="1.00" d=" M 0.00 0.00 L 60.00 0.00 L 60.00 60.00 L 0.00 60.00 L 0.00 0.00 M 31.96 11.94 C 31.30 10.60 30.63 9.27 29.97 7.93 C 17.94 10.54 7.71 20.30 4.40 32.13 C 3.38 34.48 5.15 36.65 6.39 38.49 C 11.88 45.75 20.07 50.23 28.12 54.08 C 30.08 50.71 30.28 46.78 29.47 43.04 C 28.77 40.41 29.60 37.67 31.79 36.01 C 34.28 39.03 38.11 40.07 41.88 40.11 C 45.01 44.04 50.38 44.87 54.89 43.00 C 55.25 40.03 56.89 36.67 55.19 33.84 C 51.23 30.31 47.20 26.27 45.97 20.92 C 45.44 17.64 42.11 16.13 39.99 13.96 C 40.01 11.47 40.00 8.97 39.97 6.48 C 36.49 6.66 34.19 9.64 31.96 11.94 Z" />
<path fill="#ffffff" opacity="1.00" d=" M 41.12 24.27 C 43.20 22.31 46.06 26.02 43.68 27.57 C 41.64 29.08 39.06 25.81 41.12 24.27 Z" />
</g>
<g id="#000000ff">
<path fill="#000000" opacity="1.00" d=" M 31.96 11.94 C 34.19 9.64 36.49 6.66 39.97 6.48 C 40.00 8.97 40.01 11.47 39.99 13.96 C 42.11 16.13 45.44 17.64 45.97 20.92 C 47.20 26.27 51.23 30.31 55.19 33.84 C 56.89 36.67 55.25 40.03 54.89 43.00 C 50.38 44.87 45.01 44.04 41.88 40.11 C 38.11 40.07 34.28 39.03 31.79 36.01 C 29.60 37.67 28.77 40.41 29.47 43.04 C 30.28 46.78 30.08 50.71 28.12 54.08 C 20.07 50.23 11.88 45.75 6.39 38.49 C 5.15 36.65 3.38 34.48 4.40 32.13 C 7.71 20.30 17.94 10.54 29.97 7.93 C 30.63 9.27 31.30 10.60 31.96 11.94 M 41.12 24.27 C 39.06 25.81 41.64 29.08 43.68 27.57 C 46.06 26.02 43.20 22.31 41.12 24.27 Z" />
</g>
</svg>
