<?xml version="1.0" encoding="UTF-8" ?>
<!DOCTYPE svg PUBLIC "-//W3C//DTD SVG 1.1//EN" "http://www.w3.org/Graphics/SVG/1.1/DTD/svg11.dtd">
<svg width="64pt" height="64pt" viewBox="0 0 64 64" version="1.1" xmlns="http://www.w3.org/2000/svg">
<g id="#ffffffff">
<path fill="#ffffff" opacity="1.00" d=" M 0.00 0.00 L 64.00 0.00 L 64.00 64.00 L 0.00 64.00 L 0.00 0.00 M 18.97 18.12 C 12.30 18.41 6.46 24.21 6.12 30.87 C 5.91 34.61 5.85 38.38 6.21 42.11 C 6.60 45.47 8.67 49.14 12.22 49.87 C 14.71 50.49 17.90 48.82 17.93 46.05 C 18.25 41.09 17.68 36.10 18.17 31.15 C 18.41 30.90 18.91 30.41 19.16 30.16 C 23.44 29.61 28.06 30.83 32.00 28.55 C 36.07 31.19 41.26 29.00 45.41 30.61 C 47.09 35.97 44.99 42.16 46.47 47.65 C 48.36 51.04 53.51 50.42 55.56 47.50 C 58.99 43.10 57.85 37.16 57.96 31.98 C 58.09 24.94 52.15 18.45 45.08 18.13 C 42.26 18.21 40.01 16.55 37.75 15.11 C 35.48 13.55 32.61 14.40 30.05 14.18 C 25.82 13.78 23.27 18.50 18.97 18.12 Z" />
<path fill="#ffffff" opacity="1.00" d=" M 23.54 21.32 C 25.69 20.29 27.65 18.91 29.75 17.78 C 30.32 18.27 31.44 19.25 32.00 19.73 C 32.56 19.24 33.68 18.27 34.24 17.78 C 37.37 19.43 40.23 21.97 43.97 21.99 C 48.87 22.01 53.51 25.86 53.87 30.84 C 54.05 34.85 54.30 38.95 53.58 42.92 C 53.25 44.73 51.67 45.75 50.05 46.31 C 49.89 41.49 50.14 36.66 49.94 31.84 C 49.96 29.10 47.78 26.50 45.04 26.14 C 41.77 25.74 38.45 26.31 35.20 25.76 C 33.75 25.22 33.03 23.67 32.00 22.61 C 29.73 27.42 24.11 25.68 19.88 26.04 C 16.77 25.98 13.98 28.77 14.05 31.88 C 13.87 36.69 14.11 41.50 13.95 46.31 C 11.09 45.69 9.90 42.78 10.04 40.11 C 10.12 34.86 8.82 28.35 13.39 24.51 C 16.09 21.79 20.14 22.32 23.54 21.32 Z" />
</g>
<g id="#000000ff">
<path fill="#000000" opacity="1.00" d=" M 18.97 18.12 C 23.27 18.50 25.82 13.78 30.05 14.18 C 32.61 14.40 35.48 13.55 37.75 15.11 C 40.01 16.55 42.26 18.21 45.08 18.13 C 52.15 18.45 58.09 24.94 57.96 31.98 C 57.85 37.16 58.99 43.10 55.56 47.50 C 53.51 50.42 48.36 51.04 46.47 47.65 C 44.99 42.16 47.09 35.97 45.41 30.61 C 41.26 29.00 36.07 31.19 32.00 28.55 C 28.06 30.83 23.44 29.61 19.16 30.16 C 18.91 30.41 18.41 30.90 18.17 31.15 C 17.68 36.10 18.25 41.09 17.93 46.05 C 17.90 48.82 14.71 50.49 12.22 49.87 C 8.67 49.14 6.60 45.47 6.21 42.11 C 5.85 38.38 5.91 34.61 6.12 30.87 C 6.46 24.21 12.30 18.41 18.97 18.12 M 23.54 21.32 C 20.14 22.32 16.09 21.79 13.39 24.51 C 8.82 28.35 10.12 34.86 10.04 40.11 C 9.90 42.78 11.09 45.69 13.95 46.31 C 14.11 41.50 13.87 36.69 14.05 31.88 C 13.98 28.77 16.77 25.98 19.88 26.04 C 24.11 25.68 29.73 27.42 32.00 22.61 C 33.03 23.67 33.75 25.22 35.20 25.76 C 38.45 26.31 41.77 25.74 45.04 26.14 C 47.78 26.50 49.96 29.10 49.94 31.84 C 50.14 36.66 49.89 41.49 50.05 46.31 C 51.67 45.75 53.25 44.73 53.58 42.92 C 54.30 38.95 54.05 34.85 53.87 30.84 C 53.51 25.86 48.87 22.01 43.97 21.99 C 40.23 21.97 37.37 19.43 34.24 17.78 C 33.68 18.27 32.56 19.24 32.00 19.73 C 31.44 19.25 30.32 18.27 29.75 17.78 C 27.65 18.91 25.69 20.29 23.54 21.32 Z" />
</g>
</svg>
