<?xml version="1.0" encoding="UTF-8" ?>
<!DOCTYPE svg PUBLIC "-//W3C//DTD SVG 1.1//EN" "http://www.w3.org/Graphics/SVG/1.1/DTD/svg11.dtd">
<svg width="60pt" height="60pt" viewBox="0 0 60 60" version="1.1" xmlns="http://www.w3.org/2000/svg">
<g id="#ffffffff">
<path fill="#ffffff" opacity="1.00" d=" M 0.00 0.00 L 60.00 0.00 L 60.00 60.00 L 0.00 60.00 L 0.00 0.00 M 8.40 23.84 C 6.66 32.87 11.04 41.35 13.82 49.67 C 11.44 49.40 8.27 51.95 11.12 53.81 C 13.29 53.88 16.35 54.86 17.85 52.83 C 18.33 44.22 14.95 35.67 16.46 27.08 C 19.81 15.02 39.93 14.92 43.47 26.89 C 45.14 35.52 41.63 44.17 42.14 52.84 C 43.64 54.83 46.64 53.91 48.78 53.82 C 51.77 52.18 48.64 49.23 46.19 49.65 C 48.81 41.74 52.87 33.80 51.82 25.23 C 50.68 14.93 41.42 6.33 31.05 6.04 C 20.45 5.29 10.21 13.39 8.40 23.84 Z" />
<path fill="#ffffff" opacity="1.00" d=" M 29.16 10.10 C 31.61 9.13 33.15 12.84 30.79 13.90 C 28.37 14.82 26.88 11.21 29.16 10.10 Z" />
<path fill="#ffffff" opacity="1.00" d=" M 17.12 14.11 C 19.55 13.15 21.14 16.69 18.86 17.89 C 16.44 18.87 14.88 15.30 17.12 14.11 Z" />
<path fill="#ffffff" opacity="1.00" d=" M 41.19 14.11 C 43.60 13.16 45.13 16.78 42.83 17.88 C 40.40 18.88 38.85 15.17 41.19 14.11 Z" />
<path fill="#ffffff" opacity="1.00" d=" M 11.24 24.19 C 13.53 23.05 15.15 26.81 12.86 27.88 C 10.48 29.02 8.75 25.03 11.24 24.19 Z" />
<path fill="#ffffff" opacity="1.00" d=" M 47.14 24.11 C 49.57 23.13 51.14 26.74 48.84 27.89 C 46.42 28.87 44.88 25.26 47.14 24.11 Z" />
</g>
<g id="#000000ff">
<path fill="#000000" opacity="1.00" d=" M 8.40 23.84 C 10.21 13.39 20.45 5.29 31.05 6.04 C 41.42 6.33 50.68 14.93 51.82 25.23 C 52.87 33.80 48.81 41.74 46.19 49.65 C 48.64 49.23 51.77 52.18 48.78 53.82 C 46.64 53.91 43.64 54.83 42.14 52.84 C 41.63 44.17 45.14 35.52 43.47 26.89 C 39.93 14.92 19.81 15.02 16.46 27.08 C 14.95 35.67 18.33 44.22 17.85 52.83 C 16.35 54.86 13.29 53.88 11.12 53.81 C 8.27 51.95 11.44 49.40 13.82 49.67 C 11.04 41.35 6.66 32.87 8.40 23.84 M 29.16 10.10 C 26.88 11.21 28.37 14.82 30.79 13.90 C 33.15 12.84 31.61 9.13 29.16 10.10 M 17.12 14.11 C 14.88 15.30 16.44 18.87 18.86 17.89 C 21.14 16.69 19.55 13.15 17.12 14.11 M 41.19 14.11 C 38.85 15.17 40.40 18.88 42.83 17.88 C 45.13 16.78 43.60 13.16 41.19 14.11 M 11.24 24.19 C 8.75 25.03 10.48 29.02 12.86 27.88 C 15.15 26.81 13.53 23.05 11.24 24.19 M 47.14 24.11 C 44.88 25.26 46.42 28.87 48.84 27.89 C 51.14 26.74 49.57 23.13 47.14 24.11 Z" />
</g>
</svg>
