<?xml version="1.0" encoding="UTF-8" ?>
<!DOCTYPE svg PUBLIC "-//W3C//DTD SVG 1.1//EN" "http://www.w3.org/Graphics/SVG/1.1/DTD/svg11.dtd">
<svg width="64pt" height="64pt" viewBox="0 0 64 64" version="1.1" xmlns="http://www.w3.org/2000/svg">
<g id="#ffffffff">
<path fill="#ffffff" opacity="1.00" d=" M 0.00 0.00 L 64.00 0.00 L 64.00 64.00 L 0.00 64.00 L 0.00 0.00 M 5.17 20.20 C 5.59 21.11 6.43 22.91 6.85 23.82 C 15.23 19.95 23.64 16.13 32.00 12.20 C 40.41 16.03 48.78 19.93 57.17 23.82 C 57.72 22.59 58.28 21.37 58.84 20.15 C 49.89 16.04 40.96 11.90 32.02 7.78 C 23.08 11.96 14.12 16.07 5.17 20.20 M 18.00 22.00 C 18.00 32.67 18.00 43.33 18.00 54.00 C 19.33 54.00 20.67 54.00 22.00 54.00 C 22.00 52.67 22.00 51.33 22.00 50.00 C 26.00 50.00 30.00 50.00 34.00 50.00 C 34.00 51.33 34.00 52.67 34.00 54.00 C 35.33 54.00 36.67 54.00 38.00 54.00 C 38.00 52.67 38.00 51.33 38.00 50.00 C 39.33 50.00 40.67 50.00 42.00 50.00 C 42.00 51.33 42.00 52.67 42.00 54.00 C 43.33 54.00 44.67 54.00 46.00 54.00 C 46.00 44.67 46.00 35.33 46.00 26.00 C 44.67 26.00 43.33 26.00 42.00 26.00 C 42.00 27.33 42.00 28.67 42.00 30.00 C 38.06 30.00 34.12 30.00 30.18 30.00 C 29.98 28.21 29.25 25.93 27.03 25.98 C 24.77 25.86 24.01 28.19 23.81 30.00 C 23.36 30.00 22.45 30.00 22.00 30.01 C 22.00 27.34 22.00 24.67 22.00 22.00 C 20.67 22.00 19.33 22.00 18.00 22.00 M 8.00 26.00 C 8.00 27.33 8.00 28.67 8.00 30.00 C 9.33 30.00 10.67 30.00 12.00 30.00 C 12.00 28.67 12.00 27.33 12.00 26.00 C 10.67 26.00 9.33 26.00 8.00 26.00 M 52.00 26.00 C 52.00 27.33 52.00 28.67 52.00 30.00 C 53.33 30.00 54.67 30.00 56.00 30.00 C 56.00 28.67 56.00 27.33 56.00 26.00 C 54.67 26.00 53.33 26.00 52.00 26.00 M 8.00 34.00 C 8.00 35.33 8.00 36.67 8.00 38.00 C 9.33 38.00 10.67 38.00 12.00 38.00 C 12.00 36.67 12.00 35.33 12.00 34.00 C 10.67 34.00 9.33 34.00 8.00 34.00 M 52.00 34.00 C 52.00 35.33 52.00 36.67 52.00 38.00 C 53.33 38.00 54.67 38.00 56.00 38.00 C 56.00 36.67 56.00 35.33 56.00 34.00 C 54.67 34.00 53.33 34.00 52.00 34.00 M 8.00 42.00 C 8.00 43.33 8.00 44.67 8.00 46.00 C 9.33 46.00 10.67 46.00 12.00 46.00 C 12.00 44.67 12.00 43.33 12.00 42.00 C 10.67 42.00 9.33 42.00 8.00 42.00 M 52.00 42.00 C 52.00 43.33 52.00 44.67 52.00 46.00 C 53.33 46.00 54.67 46.00 56.00 46.00 C 56.00 44.67 56.00 43.33 56.00 42.00 C 54.67 42.00 53.33 42.00 52.00 42.00 M 8.00 50.00 C 8.00 51.33 8.00 52.67 8.00 54.00 C 9.33 54.00 10.67 54.00 12.00 54.00 C 12.00 52.67 12.00 51.33 12.00 50.00 C 10.67 50.00 9.33 50.00 8.00 50.00 M 52.00 50.00 C 52.00 51.33 52.00 52.67 52.00 54.00 C 53.33 54.00 54.67 54.00 56.00 54.00 C 56.00 52.67 56.00 51.33 56.00 50.00 C 54.67 50.00 53.33 50.00 52.00 50.00 Z" />
<path fill="#ffffff" opacity="1.00" d=" M 22.00 34.00 C 26.00 34.00 30.00 34.00 34.00 34.00 C 34.00 38.00 34.00 42.00 34.00 46.00 C 32.73 46.00 31.46 46.00 30.19 46.00 C 29.97 44.20 29.24 41.91 27.01 41.98 C 24.76 41.89 24.02 44.20 23.81 46.00 C 23.36 46.00 22.45 46.00 22.00 46.01 C 22.00 42.00 22.00 38.00 22.00 34.00 Z" />
<path fill="#ffffff" opacity="1.00" d=" M 38.00 34.00 C 39.33 34.00 40.67 34.00 42.00 34.00 C 42.00 35.33 42.00 36.67 42.00 38.00 C 40.67 38.00 39.33 38.00 38.00 38.00 C 38.00 36.67 38.00 35.33 38.00 34.00 Z" />
<path fill="#ffffff" opacity="1.00" d=" M 38.00 42.00 C 39.33 42.00 40.67 42.00 42.00 42.00 C 42.00 43.33 42.00 44.67 42.00 46.00 C 40.67 46.00 39.33 46.00 38.00 46.00 C 38.00 44.67 38.00 43.33 38.00 42.00 Z" />
</g>
<g id="#000000ff">
<path fill="#000000" opacity="1.00" d=" M 5.17 20.20 C 14.12 16.07 23.08 11.96 32.02 7.78 C 40.96 11.90 49.89 16.04 58.84 20.15 C 58.28 21.37 57.72 22.59 57.17 23.82 C 48.78 19.93 40.41 16.03 32.00 12.20 C 23.64 16.13 15.23 19.95 6.85 23.82 C 6.43 22.91 5.59 21.11 5.17 20.20 Z" />
<path fill="#000000" opacity="1.00" d=" M 18.00 22.00 C 19.33 22.00 20.67 22.00 22.00 22.00 C 22.00 24.67 22.00 27.34 22.00 30.01 C 22.45 30.00 23.36 30.00 23.81 30.00 C 24.01 28.19 24.77 25.86 27.03 25.98 C 29.25 25.93 29.98 28.21 30.18 30.00 C 34.12 30.00 38.06 30.00 42.00 30.00 C 42.00 28.67 42.00 27.33 42.00 26.00 C 43.33 26.00 44.67 26.00 46.00 26.00 C 46.00 35.33 46.00 44.67 46.00 54.00 C 44.67 54.00 43.33 54.00 42.00 54.00 C 42.00 52.67 42.00 51.33 42.00 50.00 C 40.67 50.00 39.33 50.00 38.00 50.00 C 38.00 51.33 38.00 52.67 38.00 54.00 C 36.67 54.00 35.33 54.00 34.00 54.00 C 34.00 52.67 34.00 51.33 34.00 50.00 C 30.00 50.00 26.00 50.00 22.00 50.00 C 22.00 51.33 22.00 52.67 22.00 54.00 C 20.67 54.00 19.33 54.00 18.00 54.00 C 18.00 43.33 18.00 32.67 18.00 22.00 M 22.00 34.00 C 22.00 38.00 22.00 42.00 22.00 46.01 C 22.45 46.00 23.36 46.00 23.81 46.00 C 24.02 44.20 24.76 41.89 27.01 41.98 C 29.24 41.91 29.97 44.20 30.19 46.00 C 31.46 46.00 32.73 46.00 34.00 46.00 C 34.00 42.00 34.00 38.00 34.00 34.00 C 30.00 34.00 26.00 34.00 22.00 34.00 M 38.00 34.00 C 38.00 35.33 38.00 36.67 38.00 38.00 C 39.33 38.00 40.67 38.00 42.00 38.00 C 42.00 36.67 42.00 35.33 42.00 34.00 C 40.67 34.00 39.33 34.00 38.00 34.00 M 38.00 42.00 C 38.00 43.33 38.00 44.67 38.00 46.00 C 39.33 46.00 40.67 46.00 42.00 46.00 C 42.00 44.67 42.00 43.33 42.00 42.00 C 40.67 42.00 39.33 42.00 38.00 42.00 Z" />
<path fill="#000000" opacity="1.00" d=" M 8.00 26.00 C 9.33 26.00 10.67 26.00 12.00 26.00 C 12.00 27.33 12.00 28.67 12.00 30.00 C 10.67 30.00 9.33 30.00 8.00 30.00 C 8.00 28.67 8.00 27.33 8.00 26.00 Z" />
<path fill="#000000" opacity="1.00" d=" M 52.00 26.00 C 53.33 26.00 54.67 26.00 56.00 26.00 C 56.00 27.33 56.00 28.67 56.00 30.00 C 54.67 30.00 53.33 30.00 52.00 30.00 C 52.00 28.67 52.00 27.33 52.00 26.00 Z" />
<path fill="#000000" opacity="1.00" d=" M 8.00 34.00 C 9.33 34.00 10.67 34.00 12.00 34.00 C 12.00 35.33 12.00 36.67 12.00 38.00 C 10.67 38.00 9.33 38.00 8.00 38.00 C 8.00 36.67 8.00 35.33 8.00 34.00 Z" />
<path fill="#000000" opacity="1.00" d=" M 52.00 34.00 C 53.33 34.00 54.67 34.00 56.00 34.00 C 56.00 35.33 56.00 36.67 56.00 38.00 C 54.67 38.00 53.33 38.00 52.00 38.00 C 52.00 36.67 52.00 35.33 52.00 34.00 Z" />
<path fill="#000000" opacity="1.00" d=" M 8.00 42.00 C 9.33 42.00 10.67 42.00 12.00 42.00 C 12.00 43.33 12.00 44.67 12.00 46.00 C 10.67 46.00 9.33 46.00 8.00 46.00 C 8.00 44.67 8.00 43.33 8.00 42.00 Z" />
<path fill="#000000" opacity="1.00" d=" M 52.00 42.00 C 53.33 42.00 54.67 42.00 56.00 42.00 C 56.00 43.33 56.00 44.67 56.00 46.00 C 54.67 46.00 53.33 46.00 52.00 46.00 C 52.00 44.67 52.00 43.33 52.00 42.00 Z" />
<path fill="#000000" opacity="1.00" d=" M 8.00 50.00 C 9.33 50.00 10.67 50.00 12.00 50.00 C 12.00 51.33 12.00 52.67 12.00 54.00 C 10.67 54.00 9.33 54.00 8.00 54.00 C 8.00 52.67 8.00 51.33 8.00 50.00 Z" />
<path fill="#000000" opacity="1.00" d=" M 52.00 50.00 C 53.33 50.00 54.67 50.00 56.00 50.00 C 56.00 51.33 56.00 52.67 56.00 54.00 C 54.67 54.00 53.33 54.00 52.00 54.00 C 52.00 52.67 52.00 51.33 52.00 50.00 Z" />
</g>
</svg>
