<?xml version="1.0" encoding="UTF-8" ?>
<!DOCTYPE svg PUBLIC "-//W3C//DTD SVG 1.1//EN" "http://www.w3.org/Graphics/SVG/1.1/DTD/svg11.dtd">
<svg width="60pt" height="60pt" viewBox="0 0 60 60" version="1.1" xmlns="http://www.w3.org/2000/svg">
<g id="#ffffffff">
<path fill="#ffffff" opacity="1.00" d=" M 0.00 0.00 L 60.00 0.00 L 60.00 60.00 L 0.00 60.00 L 0.00 0.00 M 36.01 22.11 C 35.97 26.32 39.73 30.04 43.93 29.99 C 48.19 30.11 52.04 26.35 51.98 22.09 C 51.84 18.03 50.28 14.11 48.27 10.62 C 45.51 9.49 44.05 7.04 43.79 4.11 C 40.20 9.56 36.22 15.35 36.01 22.11 M 14.25 10.23 C 10.39 11.71 7.53 15.92 8.06 20.11 C 8.56 24.62 11.18 28.51 13.85 32.04 C 17.85 37.06 22.42 41.64 27.39 45.70 C 31.09 48.56 35.17 51.43 39.95 51.94 C 43.89 52.40 47.78 49.88 49.51 46.40 C 50.11 45.32 50.29 43.63 49.05 42.91 C 45.97 40.86 42.72 39.05 39.48 37.26 C 36.38 35.67 33.88 41.11 30.81 39.28 C 26.80 36.28 23.08 32.72 20.32 28.52 C 20.14 26.06 22.50 24.22 23.15 21.92 C 22.31 18.79 20.08 16.26 18.65 13.39 C 17.72 11.84 16.53 9.19 14.25 10.23 Z" />
<path fill="#ffffff" opacity="1.00" d=" M 41.53 24.67 C 40.00 21.59 42.62 18.54 43.96 15.92 C 45.09 18.24 46.57 20.48 47.00 23.07 C 47.03 25.88 42.98 27.05 41.53 24.67 Z" />
</g>
<g id="#000000ff">
<path fill="#968176" opacity="1.00" d=" M 36.01 22.11 C 36.22 15.35 40.20 9.56 43.79 4.11 C 44.05 7.04 45.51 9.49 48.27 10.62 C 50.28 14.11 51.84 18.03 51.98 22.09 C 52.04 26.35 48.19 30.11 43.93 29.99 C 39.73 30.04 35.97 26.32 36.01 22.11 M 41.53 24.67 C 42.98 27.05 47.03 25.88 47.00 23.07 C 46.57 20.48 45.09 18.24 43.96 15.92 C 42.62 18.54 40.00 21.59 41.53 24.67 Z" />
<path fill="#968176" opacity="1.00" d=" M 14.25 10.23 C 16.53 9.19 17.72 11.84 18.65 13.39 C 20.08 16.26 22.31 18.79 23.15 21.92 C 22.50 24.22 20.14 26.06 20.32 28.52 C 23.08 32.72 26.80 36.28 30.81 39.28 C 33.88 41.11 36.38 35.67 39.48 37.26 C 42.72 39.05 45.97 40.86 49.05 42.91 C 50.29 43.63 50.11 45.32 49.51 46.40 C 47.78 49.88 43.89 52.40 39.95 51.94 C 35.17 51.43 31.09 48.56 27.39 45.70 C 22.42 41.64 17.85 37.06 13.85 32.04 C 11.18 28.51 8.56 24.62 8.06 20.11 C 7.53 15.92 10.39 11.71 14.25 10.23 Z" />
</g>
</svg>
