<?xml version="1.0" encoding="UTF-8" ?>
<!DOCTYPE svg PUBLIC "-//W3C//DTD SVG 1.1//EN" "http://www.w3.org/Graphics/SVG/1.1/DTD/svg11.dtd">
<svg width="60pt" height="60pt" viewBox="0 0 60 60" version="1.1" xmlns="http://www.w3.org/2000/svg">
<g id="#ffffffff">
<path fill="#ffffff" opacity="1.00" d=" M 0.00 0.00 L 60.00 0.00 L 60.00 19.31 C 55.58 16.57 50.84 14.35 46.13 12.18 C 41.08 11.78 35.99 12.04 30.93 12.02 C 29.37 11.73 28.43 12.92 27.52 13.95 C 23.84 14.03 20.16 14.03 16.48 13.95 C 13.90 10.47 8.82 12.33 5.12 12.19 C 3.04 14.00 4.14 17.40 4.21 19.84 C 5.69 21.49 7.58 22.67 9.32 24.01 C 8.13 31.33 5.37 38.53 6.04 46.05 C 5.96 48.14 7.81 49.95 9.88 49.93 C 13.12 50.01 16.48 50.36 19.66 49.61 C 23.18 47.79 21.70 43.18 22.10 40.00 C 26.36 39.90 30.65 40.26 34.89 39.80 C 37.03 38.79 35.36 36.61 34.30 35.47 C 32.33 33.50 32.26 30.61 31.84 28.03 C 36.59 27.86 41.36 28.26 46.10 27.84 C 50.82 25.67 55.56 23.44 60.00 20.70 L 60.00 60.00 L 0.00 60.00 L 0.00 0.00 Z" />
<path fill="#ffffff" opacity="1.00" d=" M 16.00 18.00 C 20.00 18.00 24.00 18.00 28.00 18.00 C 28.00 19.33 28.00 20.67 28.00 22.00 C 24.00 22.00 20.00 22.00 16.00 22.00 C 16.00 20.67 16.00 19.33 16.00 18.00 Z" />
<path fill="#ffffff" opacity="1.00" d=" M 48.01 17.54 C 49.62 18.36 51.37 18.97 52.81 20.10 C 51.24 20.95 49.61 21.69 48.00 22.46 C 48.00 20.82 48.00 19.18 48.01 17.54 Z" />
<path fill="#ffffff" opacity="1.00" d=" M 22.67 35.96 C 23.75 33.22 25.55 30.88 27.91 29.13 C 28.28 31.48 28.86 33.80 29.73 36.02 C 27.38 36.01 25.02 36.00 22.67 35.96 Z" />
</g>
<g id="#000000ff">
<path fill="#968176" opacity="1.00" d=" M 5.12 12.19 C 8.82 12.33 13.90 10.47 16.48 13.95 C 20.16 14.03 23.84 14.03 27.52 13.95 C 28.43 12.92 29.37 11.73 30.93 12.02 C 35.99 12.04 41.08 11.78 46.13 12.18 C 50.84 14.35 55.58 16.57 60.00 19.31 L 60.00 20.70 C 55.56 23.44 50.82 25.67 46.10 27.84 C 41.36 28.26 36.59 27.86 31.84 28.03 C 32.26 30.61 32.33 33.50 34.30 35.47 C 35.36 36.61 37.03 38.79 34.89 39.80 C 30.65 40.26 26.36 39.90 22.10 40.00 C 21.70 43.18 23.18 47.79 19.66 49.61 C 16.48 50.36 13.12 50.01 9.88 49.93 C 7.81 49.95 5.96 48.14 6.04 46.05 C 5.37 38.53 8.13 31.33 9.32 24.01 C 7.58 22.67 5.69 21.49 4.21 19.84 C 4.14 17.40 3.04 14.00 5.12 12.19 M 16.00 18.00 C 16.00 19.33 16.00 20.67 16.00 22.00 C 20.00 22.00 24.00 22.00 28.00 22.00 C 28.00 20.67 28.00 19.33 28.00 18.00 C 24.00 18.00 20.00 18.00 16.00 18.00 M 48.01 17.54 C 48.00 19.18 48.00 20.82 48.00 22.46 C 49.61 21.69 51.24 20.95 52.81 20.10 C 51.37 18.97 49.62 18.36 48.01 17.54 M 22.67 35.96 C 25.02 36.00 27.38 36.01 29.73 36.02 C 28.86 33.80 28.28 31.48 27.91 29.13 C 25.55 30.88 23.75 33.22 22.67 35.96 Z" />
</g>
</svg>
