<?xml version="1.0" encoding="UTF-8" ?>
<!DOCTYPE svg PUBLIC "-//W3C//DTD SVG 1.1//EN" "http://www.w3.org/Graphics/SVG/1.1/DTD/svg11.dtd">
<svg width="60pt" height="60pt" viewBox="0 0 60 60" version="1.1" xmlns="http://www.w3.org/2000/svg">
<g id="#ffffffff">
<path fill="#ffffff" opacity="1.00" d=" M 0.00 0.00 L 60.00 0.00 L 60.00 60.00 L 0.00 60.00 L 0.00 0.00 M 6.21 6.94 C 6.10 8.81 7.37 11.09 5.85 12.65 C 4.75 14.02 3.13 12.65 1.89 12.31 C 2.22 17.40 3.07 23.27 7.83 26.20 C 14.53 19.50 21.15 12.72 27.97 6.14 C 25.97 6.62 23.96 7.42 21.86 7.23 C 19.90 7.42 20.08 4.92 19.56 3.73 C 16.10 3.84 16.30 8.85 13.12 8.75 C 10.26 7.85 10.49 4.15 9.68 1.82 C 8.10 3.14 5.64 4.46 6.21 6.94 M 32.30 6.40 C 23.90 13.93 16.28 22.35 8.13 30.19 C 6.14 31.71 5.11 34.88 7.22 36.77 C 12.48 42.17 17.84 47.51 23.23 52.79 C 25.13 54.89 28.29 53.85 29.82 51.87 C 37.65 43.73 46.06 36.10 53.59 27.71 C 54.43 23.19 53.91 18.49 53.95 13.90 C 54.04 9.71 50.31 5.95 46.11 6.05 C 41.52 6.10 36.83 5.57 32.30 6.40 Z" />
<path fill="#ffffff" opacity="1.00" d=" M 44.31 10.40 C 46.79 9.00 50.12 11.25 49.99 14.02 C 50.09 17.07 46.09 19.25 43.68 17.22 C 41.16 15.65 41.63 11.55 44.31 10.40 Z" />
</g>
<g id="#000000ff">
<path fill="#968176" opacity="1.00" d=" M 6.21 6.94 C 5.64 4.46 8.10 3.14 9.68 1.82 C 10.49 4.15 10.26 7.85 13.12 8.75 C 16.30 8.85 16.10 3.84 19.56 3.73 C 20.08 4.92 19.90 7.42 21.86 7.23 C 23.96 7.42 25.97 6.62 27.97 6.14 C 21.15 12.72 14.53 19.50 7.83 26.20 C 3.07 23.27 2.22 17.40 1.89 12.31 C 3.13 12.65 4.75 14.02 5.85 12.65 C 7.37 11.09 6.10 8.81 6.21 6.94 Z" />
<path fill="#968176" opacity="1.00" d=" M 32.30 6.40 C 36.83 5.57 41.52 6.10 46.11 6.05 C 50.31 5.95 54.04 9.71 53.95 13.90 C 53.91 18.49 54.43 23.19 53.59 27.71 C 46.06 36.10 37.65 43.73 29.82 51.87 C 28.29 53.85 25.13 54.89 23.23 52.79 C 17.84 47.51 12.48 42.17 7.22 36.77 C 5.11 34.88 6.14 31.71 8.13 30.19 C 16.28 22.35 23.90 13.93 32.30 6.40 M 44.31 10.40 C 41.63 11.55 41.16 15.65 43.68 17.22 C 46.09 19.25 50.09 17.07 49.99 14.02 C 50.12 11.25 46.79 9.00 44.31 10.40 Z" />
</g>
</svg>
