<?xml version="1.0" encoding="UTF-8" ?>
<!DOCTYPE svg PUBLIC "-//W3C//DTD SVG 1.1//EN" "http://www.w3.org/Graphics/SVG/1.1/DTD/svg11.dtd">
<svg width="60pt" height="60pt" viewBox="0 0 60 60" version="1.1" xmlns="http://www.w3.org/2000/svg">
<g id="#ffffffff">
<path fill="#ffffff" opacity="1.00" d=" M 0.00 0.00 L 60.00 0.00 L 60.00 60.00 L 0.00 60.00 L 0.00 0.00 M 23.25 8.16 C 21.01 9.87 19.20 12.05 17.19 14.01 C 19.32 14.00 21.45 13.98 23.57 13.99 C 24.80 12.73 26.03 11.47 27.28 10.22 C 26.04 9.40 24.97 7.61 23.25 8.16 M 29.20 14.00 C 33.74 14.00 38.29 14.00 42.84 14.00 C 40.54 12.11 38.83 8.95 35.95 8.07 C 33.13 9.07 31.47 12.11 29.20 14.00 M 10.51 19.37 C 9.20 21.14 10.65 24.07 12.91 23.91 C 21.28 24.23 29.67 23.78 38.04 24.08 C 40.58 23.83 40.57 28.18 38.03 27.91 C 29.36 28.14 20.67 27.93 12.00 28.00 C 12.07 34.69 11.88 41.38 12.05 48.07 C 11.95 51.19 14.72 54.00 17.84 53.94 C 24.88 54.13 31.94 53.91 38.99 54.03 C 41.46 53.97 44.39 54.26 46.22 52.24 C 48.87 49.60 47.80 45.49 47.99 42.14 C 52.60 42.62 56.50 39.75 58.13 35.56 C 57.94 33.00 57.66 30.17 55.61 28.34 C 53.60 26.11 50.46 26.05 47.69 25.82 C 48.07 24.29 48.87 22.95 50.07 21.91 C 49.95 20.17 49.24 17.91 47.05 18.09 C 36.71 17.85 26.35 18.11 16.01 17.97 C 14.18 18.15 11.67 17.53 10.51 19.37 Z" />
<path fill="#ffffff" opacity="1.00" d=" M 48.00 29.83 C 50.65 29.73 54.16 30.76 54.00 34.05 C 54.08 37.29 50.61 38.24 48.00 38.17 C 48.00 35.39 48.00 32.61 48.00 29.83 Z" />
</g>
<g id="#000000ff">
<path fill="#000000" opacity="1.00" d=" M 23.25 8.16 C 24.97 7.61 26.04 9.40 27.28 10.22 C 26.03 11.47 24.80 12.73 23.57 13.99 C 21.45 13.98 19.32 14.00 17.19 14.01 C 19.20 12.05 21.01 9.87 23.25 8.16 Z" />
<path fill="#000000" opacity="1.00" d=" M 29.20 14.00 C 31.47 12.11 33.13 9.07 35.95 8.07 C 38.83 8.95 40.54 12.11 42.84 14.00 C 38.29 14.00 33.74 14.00 29.20 14.00 Z" />
<path fill="#000000" opacity="1.00" d=" M 10.51 19.37 C 11.67 17.53 14.18 18.15 16.01 17.97 C 26.35 18.11 36.71 17.85 47.05 18.09 C 49.24 17.91 49.95 20.17 50.07 21.91 C 48.87 22.95 48.07 24.29 47.69 25.82 C 50.46 26.05 53.60 26.11 55.61 28.34 C 57.66 30.17 57.94 33.00 58.13 35.56 C 56.50 39.75 52.60 42.62 47.99 42.14 C 47.80 45.49 48.87 49.60 46.22 52.24 C 44.39 54.26 41.46 53.97 38.99 54.03 C 31.94 53.91 24.88 54.13 17.84 53.94 C 14.72 54.00 11.95 51.19 12.05 48.07 C 11.88 41.38 12.07 34.69 12.00 28.00 C 20.67 27.93 29.36 28.14 38.03 27.91 C 40.57 28.18 40.58 23.83 38.04 24.08 C 29.67 23.78 21.28 24.23 12.91 23.91 C 10.65 24.07 9.20 21.14 10.51 19.37 M 48.00 29.83 C 48.00 32.61 48.00 35.39 48.00 38.17 C 50.61 38.24 54.08 37.29 54.00 34.05 C 54.16 30.76 50.65 29.73 48.00 29.83 Z" />
</g>
</svg>
