<?xml version="1.0" encoding="UTF-8" ?>
<!DOCTYPE svg PUBLIC "-//W3C//DTD SVG 1.1//EN" "http://www.w3.org/Graphics/SVG/1.1/DTD/svg11.dtd">
<svg width="64pt" height="64pt" viewBox="0 0 64 64" version="1.1" xmlns="http://www.w3.org/2000/svg">
<g id="#ffffffff">
<path fill="#ffffff" opacity="1.00" d=" M 0.00 0.00 L 64.00 0.00 L 64.00 9.00 C 58.67 9.00 53.34 9.00 48.00 9.00 C 48.00 10.33 48.00 11.67 48.00 13.00 C 45.33 13.00 42.67 13.00 40.00 13.00 C 40.00 11.67 40.00 10.33 40.00 9.00 C 29.33 9.00 18.67 9.00 8.00 9.00 C 8.00 10.34 8.00 11.67 8.00 13.01 C 5.34 14.66 2.71 16.37 0.03 18.00 L 0.00 17.15 L 0.00 0.00 Z" />
<path fill="#ffffff" opacity="1.00" d=" M 12.00 13.00 C 20.00 13.00 28.00 13.00 36.00 13.00 C 36.00 14.33 36.00 15.67 36.00 17.00 C 41.33 17.00 46.67 17.00 52.00 17.00 C 52.00 15.67 52.00 14.33 52.00 13.00 C 54.67 13.00 57.33 13.00 60.00 13.00 C 60.00 14.64 60.00 16.28 60.00 17.92 C 57.95 19.29 55.90 20.67 53.85 22.04 C 55.14 31.69 56.43 41.35 57.71 51.00 C 53.68 50.95 49.65 51.13 45.63 50.88 C 44.98 45.39 44.20 39.92 43.33 34.46 C 42.27 28.16 36.43 23.08 30.01 23.05 C 24.01 22.92 18.00 23.04 12.00 23.00 C 12.00 19.67 12.00 16.33 12.00 13.00 Z" />
<path fill="#ffffff" opacity="1.00" d=" M 0.00 17.95 C 2.61 19.70 5.33 21.29 8.00 22.95 C 8.00 24.30 8.00 25.65 8.00 27.00 C 15.60 27.11 23.21 26.77 30.79 27.15 C 33.17 31.36 30.58 36.74 29.08 41.00 C 32.81 40.99 36.54 41.00 40.27 41.00 C 40.94 45.66 41.60 50.32 42.25 54.99 C 48.93 55.01 55.60 55.00 62.28 55.00 C 60.91 44.66 59.52 34.32 58.15 23.97 C 60.12 22.69 62.12 21.43 64.00 20.02 L 64.00 64.00 L 0.00 64.00 L 0.00 17.95 Z" />
<path fill="#ffffff" opacity="1.00" d=" M 35.88 29.10 C 38.13 31.17 39.39 33.97 39.78 36.98 C 38.08 36.99 36.38 37.00 34.68 37.01 C 35.47 34.44 35.77 31.77 35.88 29.10 Z" />
</g>
<g id="#000000ff">
<path fill="#000000" opacity="1.00" d=" M 8.00 9.00 C 18.67 9.00 29.33 9.00 40.00 9.00 C 40.00 10.33 40.00 11.67 40.00 13.00 C 42.67 13.00 45.33 13.00 48.00 13.00 C 48.00 11.67 48.00 10.33 48.00 9.00 C 53.34 9.00 58.67 9.00 64.00 9.00 L 64.00 20.02 C 62.12 21.43 60.12 22.69 58.15 23.97 C 59.52 34.32 60.91 44.66 62.28 55.00 C 55.60 55.00 48.93 55.01 42.25 54.99 C 41.60 50.32 40.94 45.66 40.27 41.00 C 36.54 41.00 32.81 40.99 29.08 41.00 C 30.58 36.74 33.17 31.36 30.79 27.15 C 23.21 26.77 15.60 27.11 8.00 27.00 C 8.00 25.65 8.00 24.30 8.00 22.95 C 5.33 21.29 2.61 19.70 0.00 17.95 L 0.00 17.15 L 0.03 18.00 C 2.71 16.37 5.34 14.66 8.00 13.01 C 8.00 11.67 8.00 10.34 8.00 9.00 M 12.00 13.00 C 12.00 16.33 12.00 19.67 12.00 23.00 C 18.00 23.04 24.01 22.92 30.01 23.05 C 36.43 23.08 42.27 28.16 43.33 34.46 C 44.20 39.92 44.98 45.39 45.63 50.88 C 49.65 51.13 53.68 50.95 57.71 51.00 C 56.43 41.35 55.14 31.69 53.85 22.04 C 55.90 20.67 57.95 19.29 60.00 17.92 C 60.00 16.28 60.00 14.64 60.00 13.00 C 57.33 13.00 54.67 13.00 52.00 13.00 C 52.00 14.33 52.00 15.67 52.00 17.00 C 46.67 17.00 41.33 17.00 36.00 17.00 C 36.00 15.67 36.00 14.33 36.00 13.00 C 28.00 13.00 20.00 13.00 12.00 13.00 M 35.88 29.10 C 35.77 31.77 35.47 34.44 34.68 37.01 C 36.38 37.00 38.08 36.99 39.78 36.98 C 39.39 33.97 38.13 31.17 35.88 29.10 Z" />
</g>
</svg>
