<?xml version="1.0" encoding="UTF-8" ?>
<!DOCTYPE svg PUBLIC "-//W3C//DTD SVG 1.1//EN" "http://www.w3.org/Graphics/SVG/1.1/DTD/svg11.dtd">
<svg width="60pt" height="60pt" viewBox="0 0 60 60" version="1.1" xmlns="http://www.w3.org/2000/svg">
<g id="#ffffffff">
<path fill="#ffffff" opacity="1.00" d=" M 0.00 0.00 L 60.00 0.00 L 60.00 60.00 L 0.00 60.00 L 0.00 0.00 M 7.89 15.60 C 6.88 16.44 5.63 17.34 6.09 18.86 C 7.20 20.46 9.32 19.84 10.96 20.03 C 24.65 19.90 38.35 20.15 52.04 19.91 C 53.69 20.13 53.77 18.14 54.22 17.08 C 53.67 16.77 52.59 16.14 52.05 15.83 C 52.50 12.71 51.50 8.77 48.02 8.07 C 44.42 8.75 43.53 12.83 43.92 16.00 C 42.64 16.00 41.36 16.00 40.08 16.00 C 40.46 12.84 39.59 8.77 36.00 8.08 C 32.42 8.76 31.53 12.84 31.92 16.00 C 30.64 16.00 29.36 16.00 28.08 16.00 C 28.47 12.85 27.61 8.82 24.05 8.08 C 20.44 8.71 19.51 12.83 19.92 16.00 C 18.64 16.00 17.36 16.00 16.08 16.00 C 16.46 12.84 15.59 8.76 12.01 8.08 C 8.61 8.73 7.55 12.54 7.89 15.60 M 8.00 24.00 C 7.99 28.53 8.03 33.06 7.98 37.60 C 5.88 38.31 5.13 41.89 7.98 41.91 C 21.66 42.15 35.36 41.89 49.05 42.03 C 50.68 41.86 52.72 42.41 53.90 40.93 C 54.42 39.34 53.08 38.43 52.02 37.57 C 51.98 33.04 52.00 28.52 52.00 24.00 C 49.33 24.00 46.67 24.00 44.00 24.00 C 44.01 28.67 43.99 33.33 44.00 38.00 C 42.67 38.00 41.33 38.00 40.00 38.00 C 40.00 33.33 39.99 28.67 40.00 24.00 C 37.33 24.00 34.67 24.00 32.00 24.00 C 32.01 28.67 31.99 33.33 32.00 38.00 C 30.67 38.00 29.33 38.00 28.00 38.00 C 28.00 33.33 27.99 28.67 28.00 24.00 C 25.33 24.00 22.67 24.00 20.00 24.00 C 20.01 28.67 19.99 33.33 20.00 38.00 C 18.67 38.00 17.33 38.00 16.00 38.00 C 16.01 33.33 15.99 28.67 16.00 24.00 C 13.33 24.00 10.67 24.00 8.00 24.00 M 8.00 46.00 C 8.00 48.00 8.00 50.00 8.00 52.00 C 10.67 52.00 13.33 52.00 16.00 52.00 C 16.00 50.00 16.00 48.00 16.00 46.00 C 13.33 46.00 10.67 46.00 8.00 46.00 M 20.00 46.00 C 20.00 48.00 20.00 50.00 20.00 52.00 C 22.67 52.00 25.33 52.00 28.00 52.00 C 28.00 50.00 28.00 48.00 28.00 46.00 C 25.33 46.00 22.67 46.00 20.00 46.00 M 32.00 46.00 C 32.00 48.00 32.00 50.00 32.00 52.00 C 34.67 52.00 37.33 52.00 40.00 52.00 C 40.00 50.00 40.00 48.00 40.00 46.00 C 37.33 46.00 34.67 46.00 32.00 46.00 M 44.00 46.00 C 44.00 48.00 44.00 50.00 44.00 52.00 C 46.67 52.00 49.33 52.00 52.00 52.00 C 52.00 50.00 52.00 48.00 52.00 46.00 C 49.33 46.00 46.67 46.00 44.00 46.00 Z" />
</g>
<g id="#000000ff">
<path fill="#000000" opacity="1.00" d=" M 7.89 15.60 C 7.55 12.54 8.61 8.73 12.01 8.08 C 15.59 8.76 16.46 12.84 16.08 16.00 C 17.36 16.00 18.64 16.00 19.92 16.00 C 19.51 12.83 20.44 8.71 24.05 8.08 C 27.61 8.82 28.47 12.85 28.08 16.00 C 29.36 16.00 30.64 16.00 31.92 16.00 C 31.53 12.84 32.42 8.76 36.00 8.08 C 39.59 8.77 40.46 12.84 40.08 16.00 C 41.36 16.00 42.64 16.00 43.92 16.00 C 43.53 12.83 44.42 8.75 48.02 8.07 C 51.50 8.77 52.50 12.71 52.05 15.83 C 52.59 16.14 53.67 16.77 54.22 17.08 C 53.77 18.14 53.69 20.13 52.04 19.91 C 38.35 20.15 24.65 19.90 10.96 20.03 C 9.32 19.84 7.20 20.46 6.09 18.86 C 5.63 17.34 6.88 16.44 7.89 15.60 Z" />
<path fill="#000000" opacity="1.00" d=" M 8.00 24.00 C 10.67 24.00 13.33 24.00 16.00 24.00 C 15.99 28.67 16.01 33.33 16.00 38.00 C 17.33 38.00 18.67 38.00 20.00 38.00 C 19.99 33.33 20.01 28.67 20.00 24.00 C 22.67 24.00 25.33 24.00 28.00 24.00 C 27.99 28.67 28.00 33.33 28.00 38.00 C 29.33 38.00 30.67 38.00 32.00 38.00 C 31.99 33.33 32.01 28.67 32.00 24.00 C 34.67 24.00 37.33 24.00 40.00 24.00 C 39.99 28.67 40.00 33.33 40.00 38.00 C 41.33 38.00 42.67 38.00 44.00 38.00 C 43.99 33.33 44.01 28.67 44.00 24.00 C 46.67 24.00 49.33 24.00 52.00 24.00 C 52.00 28.52 51.98 33.04 52.02 37.57 C 53.08 38.43 54.42 39.34 53.90 40.93 C 52.72 42.41 50.68 41.86 49.05 42.03 C 35.36 41.89 21.66 42.15 7.98 41.91 C 5.13 41.89 5.88 38.31 7.98 37.60 C 8.03 33.06 7.99 28.53 8.00 24.00 Z" />
<path fill="#000000" opacity="1.00" d=" M 8.00 46.00 C 10.67 46.00 13.33 46.00 16.00 46.00 C 16.00 48.00 16.00 50.00 16.00 52.00 C 13.33 52.00 10.67 52.00 8.00 52.00 C 8.00 50.00 8.00 48.00 8.00 46.00 Z" />
<path fill="#000000" opacity="1.00" d=" M 20.00 46.00 C 22.67 46.00 25.33 46.00 28.00 46.00 C 28.00 48.00 28.00 50.00 28.00 52.00 C 25.33 52.00 22.67 52.00 20.00 52.00 C 20.00 50.00 20.00 48.00 20.00 46.00 Z" />
<path fill="#000000" opacity="1.00" d=" M 32.00 46.00 C 34.67 46.00 37.33 46.00 40.00 46.00 C 40.00 48.00 40.00 50.00 40.00 52.00 C 37.33 52.00 34.67 52.00 32.00 52.00 C 32.00 50.00 32.00 48.00 32.00 46.00 Z" />
<path fill="#000000" opacity="1.00" d=" M 44.00 46.00 C 46.67 46.00 49.33 46.00 52.00 46.00 C 52.00 48.00 52.00 50.00 52.00 52.00 C 49.33 52.00 46.67 52.00 44.00 52.00 C 44.00 50.00 44.00 48.00 44.00 46.00 Z" />
</g>
</svg>
