<?xml version="1.0" encoding="UTF-8" ?>
<!DOCTYPE svg PUBLIC "-//W3C//DTD SVG 1.1//EN" "http://www.w3.org/Graphics/SVG/1.1/DTD/svg11.dtd">
<svg width="60pt" height="60pt" viewBox="0 0 60 60" version="1.1" xmlns="http://www.w3.org/2000/svg">
<g id="#ffffffff">
<path fill="#ffffff" opacity="1.00" d=" M 0.00 0.00 L 60.00 0.00 L 60.00 60.00 L 0.00 60.00 L 0.00 0.00 M 18.80 15.90 C 16.99 20.18 14.01 24.03 13.17 28.67 C 9.73 32.77 8.05 37.95 5.46 42.56 C 4.44 44.89 2.20 47.61 3.93 50.15 C 5.98 53.06 10.08 51.77 13.09 51.98 C 16.54 52.30 18.79 49.38 20.00 46.56 C 21.13 48.71 22.39 51.32 25.06 51.79 C 28.33 52.16 31.67 52.16 34.94 51.77 C 37.57 51.40 38.51 48.70 40.09 46.99 C 41.39 48.88 42.53 51.37 45.07 51.78 C 48.01 52.14 51.02 52.19 53.96 51.78 C 56.70 50.96 57.43 47.45 55.87 45.25 C 52.82 39.76 50.79 33.65 46.86 28.70 C 46.36 25.25 44.29 22.35 42.86 19.24 C 41.21 16.17 39.98 12.86 37.95 10.01 C 34.88 6.80 29.93 8.25 25.99 8.09 C 21.78 8.23 20.44 12.81 18.80 15.90 Z" />
<path fill="#ffffff" opacity="1.00" d=" M 25.26 12.39 C 27.64 11.58 30.27 12.15 32.75 12.00 C 30.00 17.17 27.77 22.64 24.70 27.62 C 22.31 28.40 19.71 27.87 17.24 27.99 C 19.99 22.83 22.23 17.38 25.26 12.39 Z" />
<path fill="#ffffff" opacity="1.00" d=" M 28.07 29.98 C 28.72 28.84 29.36 27.70 30.01 26.55 C 30.65 27.71 31.29 28.86 31.94 30.00 C 31.29 31.15 30.64 32.29 29.99 33.43 C 29.35 32.28 28.71 31.13 28.07 29.98 Z" />
<path fill="#ffffff" opacity="1.00" d=" M 15.26 32.40 C 17.62 31.54 20.28 32.17 22.75 32.01 C 19.99 37.18 17.76 42.65 14.69 47.64 C 12.29 48.37 9.71 47.89 7.24 47.99 C 10.00 42.84 12.22 37.38 15.26 32.40 Z" />
<path fill="#ffffff" opacity="1.00" d=" M 35.25 32.40 C 37.62 31.56 40.27 32.16 42.75 32.01 C 40.50 36.51 38.25 41.01 35.99 45.50 C 34.74 43.01 33.49 40.50 32.24 38.00 C 33.19 36.11 33.98 34.11 35.25 32.40 Z" />
<path fill="#ffffff" opacity="1.00" d=" M 45.74 35.09 C 45.87 35.11 46.15 35.16 46.28 35.18 C 48.59 39.37 50.56 43.75 52.76 47.99 C 50.29 47.81 47.61 48.49 45.27 47.57 C 43.97 45.88 43.20 43.86 42.25 41.97 C 43.43 39.68 44.43 37.31 45.74 35.09 Z" />
</g>
<g id="#000000ff">
<path fill="#000000" opacity="1.00" d=" M 18.80 15.90 C 20.44 12.81 21.78 8.23 25.99 8.09 C 29.93 8.25 34.88 6.80 37.95 10.01 C 39.98 12.86 41.21 16.17 42.86 19.24 C 44.29 22.35 46.36 25.25 46.86 28.70 C 50.79 33.65 52.82 39.76 55.87 45.25 C 57.43 47.45 56.70 50.96 53.96 51.78 C 51.02 52.19 48.01 52.14 45.07 51.78 C 42.53 51.37 41.39 48.88 40.09 46.99 C 38.51 48.70 37.57 51.40 34.94 51.77 C 31.67 52.16 28.33 52.16 25.06 51.79 C 22.39 51.32 21.13 48.71 20.00 46.56 C 18.79 49.38 16.54 52.30 13.09 51.98 C 10.08 51.77 5.98 53.06 3.93 50.15 C 2.20 47.61 4.44 44.89 5.46 42.56 C 8.05 37.95 9.73 32.77 13.17 28.67 C 14.01 24.03 16.99 20.18 18.80 15.90 M 25.26 12.39 C 22.23 17.38 19.99 22.83 17.24 27.99 C 19.71 27.87 22.31 28.40 24.70 27.62 C 27.77 22.64 30.00 17.17 32.75 12.00 C 30.27 12.15 27.64 11.58 25.26 12.39 M 28.07 29.98 C 28.71 31.13 29.35 32.28 29.99 33.43 C 30.64 32.29 31.29 31.15 31.94 30.00 C 31.29 28.86 30.65 27.71 30.01 26.55 C 29.36 27.70 28.72 28.84 28.07 29.98 M 15.26 32.40 C 12.22 37.38 10.00 42.84 7.24 47.99 C 9.71 47.89 12.29 48.37 14.69 47.64 C 17.76 42.65 19.99 37.18 22.75 32.01 C 20.28 32.17 17.62 31.54 15.26 32.40 M 35.25 32.40 C 33.98 34.11 33.19 36.11 32.24 38.00 C 33.49 40.50 34.74 43.01 35.99 45.50 C 38.25 41.01 40.50 36.51 42.75 32.01 C 40.27 32.16 37.62 31.56 35.25 32.40 M 45.74 35.09 C 44.43 37.31 43.43 39.68 42.25 41.97 C 43.20 43.86 43.97 45.88 45.27 47.57 C 47.61 48.49 50.29 47.81 52.76 47.99 C 50.56 43.75 48.59 39.37 46.28 35.18 C 46.15 35.16 45.87 35.11 45.74 35.09 Z" />
</g>
</svg>
