<?xml version="1.0" encoding="UTF-8" ?>
<!DOCTYPE svg PUBLIC "-//W3C//DTD SVG 1.1//EN" "http://www.w3.org/Graphics/SVG/1.1/DTD/svg11.dtd">
<svg width="60pt" height="60pt" viewBox="0 0 60 60" version="1.1" xmlns="http://www.w3.org/2000/svg">
<g id="#ffffffff">
<path fill="#ffffff" opacity="1.00" d=" M 0.00 0.00 L 60.00 0.00 L 60.00 60.00 L 0.00 60.00 L 0.00 0.00 M 6.33 10.40 C 5.04 11.03 3.98 12.40 4.03 13.89 C 3.98 24.63 3.98 35.37 4.03 46.11 C 3.95 48.61 6.60 50.37 8.93 50.00 C 23.32 49.98 37.71 50.04 52.10 49.97 C 54.13 49.99 56.01 48.09 55.97 46.06 C 56.02 35.33 56.02 24.60 55.97 13.87 C 55.97 11.87 54.14 9.94 52.09 10.03 C 38.40 9.96 24.70 10.03 11.00 9.99 C 9.46 10.12 7.76 9.69 6.33 10.40 Z" />
<path fill="#ffffff" opacity="1.00" d=" M 8.00 22.00 C 8.78 22.00 10.34 22.00 11.12 22.00 C 11.11 24.14 11.12 26.27 11.14 28.41 C 12.21 28.40 13.29 28.40 14.36 28.39 C 14.36 26.26 14.37 24.14 14.36 22.01 C 15.14 22.01 16.70 22.00 17.48 22.00 C 17.49 27.33 17.48 32.67 17.48 38.00 C 16.70 38.00 15.14 37.99 14.36 37.99 C 14.36 35.78 14.36 33.56 14.37 31.35 C 13.29 31.34 12.21 31.33 11.13 31.32 C 11.12 33.55 11.11 35.77 11.11 38.00 C 10.34 38.00 8.78 38.00 8.00 38.00 C 8.00 32.67 8.00 27.33 8.00 22.00 Z" />
<path fill="#ffffff" opacity="1.00" d=" M 19.72 24.86 C 19.72 23.91 19.73 22.95 19.73 22.00 C 22.65 22.00 25.57 22.00 28.49 22.00 C 28.50 22.95 28.51 23.89 28.52 24.84 C 27.80 24.85 26.38 24.87 25.66 24.88 C 25.65 29.25 25.66 33.62 25.66 37.99 C 24.88 37.99 23.32 38.00 22.55 38.00 C 22.45 33.61 22.71 29.20 22.42 24.81 C 21.74 24.83 20.39 24.85 19.72 24.86 Z" />
<path fill="#ffffff" opacity="1.00" d=" M 31.28 22.00 C 32.38 22.01 33.49 22.01 34.59 22.02 C 35.43 25.77 36.18 29.55 37.01 33.31 C 37.75 29.53 38.43 25.75 39.31 22.01 C 40.41 22.01 41.51 22.01 42.61 22.01 C 42.92 27.34 43.26 32.67 43.57 38.00 C 42.87 38.00 41.49 38.00 40.79 38.00 C 40.56 34.33 40.47 30.65 40.31 26.98 C 39.59 30.61 38.82 34.22 37.83 37.78 C 37.29 37.76 36.20 37.72 35.66 37.69 C 34.80 34.10 33.94 30.51 33.43 26.84 C 33.13 30.56 33.00 34.28 32.80 38.00 C 32.14 38.00 30.81 38.00 30.15 38.00 C 30.51 32.67 30.91 27.34 31.28 22.00 Z" />
<path fill="#ffffff" opacity="1.00" d=" M 46.44 22.01 C 47.48 22.01 48.52 22.01 49.56 22.01 C 49.56 26.45 49.55 30.89 49.57 35.33 C 50.93 35.33 52.28 35.33 53.64 35.34 C 53.65 36.00 53.66 37.32 53.67 37.98 C 51.26 38.01 48.85 38.01 46.44 37.98 C 46.45 32.66 46.45 27.33 46.44 22.01 Z" />
</g>
<g id="#000000ff">
<path fill="#000000" opacity="1.00" d=" M 6.33 10.40 C 7.76 9.69 9.46 10.12 11.00 9.99 C 24.70 10.03 38.40 9.96 52.09 10.03 C 54.14 9.94 55.97 11.87 55.97 13.87 C 56.02 24.60 56.02 35.33 55.97 46.06 C 56.01 48.09 54.13 49.99 52.10 49.97 C 37.71 50.04 23.32 49.98 8.93 50.00 C 6.60 50.37 3.95 48.61 4.03 46.11 C 3.98 35.37 3.98 24.63 4.03 13.89 C 3.98 12.40 5.04 11.03 6.33 10.40 M 8.00 22.00 C 8.00 27.33 8.00 32.67 8.00 38.00 C 8.78 38.00 10.34 38.00 11.11 38.00 C 11.11 35.77 11.12 33.55 11.13 31.32 C 12.21 31.33 13.29 31.34 14.37 31.35 C 14.36 33.56 14.36 35.78 14.36 37.99 C 15.14 37.99 16.70 38.00 17.48 38.00 C 17.48 32.67 17.49 27.33 17.48 22.00 C 16.70 22.00 15.14 22.01 14.36 22.01 C 14.37 24.14 14.36 26.26 14.36 28.39 C 13.29 28.40 12.21 28.40 11.14 28.41 C 11.12 26.27 11.11 24.14 11.12 22.00 C 10.34 22.00 8.78 22.00 8.00 22.00 M 19.72 24.86 C 20.39 24.85 21.74 24.83 22.42 24.81 C 22.71 29.20 22.45 33.61 22.55 38.00 C 23.32 38.00 24.88 37.99 25.66 37.99 C 25.66 33.62 25.65 29.25 25.66 24.88 C 26.38 24.87 27.80 24.85 28.52 24.84 C 28.51 23.89 28.50 22.95 28.49 22.00 C 25.57 22.00 22.65 22.00 19.73 22.00 C 19.73 22.95 19.72 23.91 19.72 24.86 M 31.28 22.00 C 30.91 27.34 30.51 32.67 30.15 38.00 C 30.81 38.00 32.14 38.00 32.80 38.00 C 33.00 34.28 33.13 30.56 33.43 26.84 C 33.94 30.51 34.80 34.10 35.66 37.69 C 36.20 37.72 37.29 37.76 37.83 37.78 C 38.82 34.22 39.59 30.61 40.31 26.98 C 40.47 30.65 40.56 34.33 40.79 38.00 C 41.49 38.00 42.87 38.00 43.57 38.00 C 43.26 32.67 42.92 27.34 42.61 22.01 C 41.51 22.01 40.41 22.01 39.31 22.01 C 38.43 25.75 37.75 29.53 37.01 33.31 C 36.18 29.55 35.43 25.77 34.59 22.02 C 33.49 22.01 32.38 22.01 31.28 22.00 M 46.44 22.01 C 46.45 27.33 46.45 32.66 46.44 37.98 C 48.85 38.01 51.26 38.01 53.67 37.98 C 53.66 37.32 53.65 36.00 53.64 35.34 C 52.28 35.33 50.93 35.33 49.57 35.33 C 49.55 30.89 49.56 26.45 49.56 22.01 C 48.52 22.01 47.48 22.01 46.44 22.01 Z" />
</g>
</svg>
