<?xml version="1.0" encoding="UTF-8" ?>
<!DOCTYPE svg PUBLIC "-//W3C//DTD SVG 1.1//EN" "http://www.w3.org/Graphics/SVG/1.1/DTD/svg11.dtd">
<svg width="60pt" height="60pt" viewBox="0 0 60 60" version="1.1" xmlns="http://www.w3.org/2000/svg">
<g id="#ffffffff">
<path fill="#ffffff" opacity="1.00" d=" M 0.00 0.00 L 60.00 0.00 L 60.00 60.00 L 0.00 60.00 L 0.00 0.00 M 10.33 8.37 C 8.62 9.16 7.83 11.06 8.01 12.88 C 8.03 24.61 7.93 36.35 8.05 48.09 C 7.92 50.63 10.56 52.31 12.89 51.99 C 24.61 51.97 36.34 52.07 48.06 51.95 C 50.58 52.03 52.33 49.46 51.99 47.11 C 51.91 35.09 52.21 23.05 51.84 11.05 C 51.07 7.42 46.78 7.96 43.98 7.98 C 32.78 8.27 21.47 7.49 10.33 8.37 Z" />
<path fill="#ffffff" opacity="1.00" d=" M 26.38 14.33 C 27.65 11.29 32.45 11.26 33.64 14.38 C 34.78 16.40 33.14 18.28 32.01 19.82 C 32.25 22.45 31.04 25.80 33.56 27.63 C 35.59 26.52 37.60 25.36 39.58 24.16 C 40.38 22.25 41.58 19.84 44.04 20.00 C 47.07 19.87 49.20 23.83 47.27 26.23 C 46.08 28.23 43.62 27.99 41.66 27.69 C 39.80 28.74 37.92 29.77 36.06 30.83 C 35.97 31.67 35.81 33.34 35.72 34.18 C 37.25 35.44 38.80 36.68 40.34 37.93 C 42.35 38.00 44.83 38.18 45.64 40.40 C 47.27 43.48 43.43 47.30 40.36 45.62 C 38.44 44.92 38.19 42.76 37.71 41.07 C 36.25 39.83 34.80 38.60 33.34 37.36 C 31.13 37.97 28.87 37.98 26.66 37.36 C 25.21 38.59 23.75 39.83 22.30 41.06 C 21.84 43.02 21.21 45.42 18.92 45.90 C 15.58 46.87 12.48 42.50 14.74 39.75 C 15.75 37.98 17.92 38.13 19.66 37.94 C 21.22 36.72 22.75 35.47 24.27 34.20 C 24.19 33.36 24.03 31.68 23.95 30.84 C 22.27 29.84 20.62 28.78 18.83 27.97 C 16.77 27.58 14.07 28.44 12.73 26.31 C 10.77 23.85 12.95 19.86 16.03 20.00 C 18.47 19.87 19.57 22.32 20.42 24.16 C 22.41 25.37 24.42 26.53 26.46 27.63 C 28.95 25.78 27.75 22.45 27.99 19.82 C 26.84 18.27 25.20 16.35 26.38 14.33 Z" />
</g>
<g id="#000000ff">
<path fill="#000000" opacity="1.00" d=" M 10.33 8.37 C 21.47 7.49 32.78 8.27 43.98 7.98 C 46.78 7.96 51.07 7.42 51.84 11.05 C 52.21 23.05 51.91 35.09 51.99 47.11 C 52.33 49.46 50.58 52.03 48.06 51.95 C 36.34 52.07 24.61 51.97 12.89 51.99 C 10.56 52.31 7.92 50.63 8.05 48.09 C 7.93 36.35 8.03 24.61 8.01 12.88 C 7.83 11.06 8.62 9.16 10.33 8.37 M 26.38 14.33 C 25.20 16.35 26.84 18.27 27.99 19.82 C 27.75 22.45 28.95 25.78 26.46 27.63 C 24.42 26.53 22.41 25.37 20.42 24.16 C 19.57 22.32 18.47 19.87 16.03 20.00 C 12.95 19.86 10.77 23.85 12.73 26.31 C 14.07 28.44 16.77 27.58 18.83 27.97 C 20.62 28.78 22.27 29.84 23.95 30.84 C 24.03 31.68 24.19 33.36 24.27 34.20 C 22.75 35.47 21.22 36.72 19.66 37.94 C 17.92 38.13 15.75 37.98 14.74 39.75 C 12.48 42.50 15.58 46.87 18.92 45.90 C 21.21 45.42 21.84 43.02 22.30 41.06 C 23.75 39.83 25.21 38.59 26.66 37.36 C 28.87 37.98 31.13 37.97 33.34 37.36 C 34.80 38.60 36.25 39.83 37.71 41.07 C 38.19 42.76 38.44 44.92 40.36 45.62 C 43.43 47.30 47.27 43.48 45.64 40.40 C 44.83 38.18 42.35 38.00 40.34 37.93 C 38.80 36.68 37.25 35.44 35.72 34.18 C 35.81 33.34 35.97 31.67 36.06 30.83 C 37.92 29.77 39.80 28.74 41.66 27.69 C 43.62 27.99 46.08 28.23 47.27 26.23 C 49.20 23.83 47.07 19.87 44.04 20.00 C 41.58 19.84 40.38 22.25 39.58 24.16 C 37.60 25.36 35.59 26.52 33.56 27.63 C 31.04 25.80 32.25 22.45 32.01 19.82 C 33.14 18.28 34.78 16.40 33.64 14.38 C 32.45 11.26 27.65 11.29 26.38 14.33 Z" />
</g>
</svg>
