<?xml version="1.0" encoding="UTF-8" ?>
<!DOCTYPE svg PUBLIC "-//W3C//DTD SVG 1.1//EN" "http://www.w3.org/Graphics/SVG/1.1/DTD/svg11.dtd">
<svg width="60pt" height="60pt" viewBox="0 0 60 60" version="1.1" xmlns="http://www.w3.org/2000/svg">
<g id="#ffffffff">
<path fill="#ffffff" opacity="1.00" d=" M 0.00 0.00 L 60.00 0.00 L 60.00 60.00 L 0.00 60.00 L 0.00 0.00 M 24.14 6.16 C 21.02 7.67 21.36 13.49 25.00 14.02 C 29.38 13.57 28.73 5.10 24.14 6.16 M 34.14 6.16 C 30.99 7.68 31.38 13.58 35.07 14.03 C 39.39 13.44 38.70 5.12 34.14 6.16 M 17.14 8.11 C 15.76 9.52 16.72 13.36 19.04 12.55 C 22.14 11.62 19.81 5.18 17.14 8.11 M 40.09 8.01 C 38.84 9.58 39.57 13.22 42.08 12.62 C 44.94 11.40 42.99 5.42 40.09 8.01 M 11.67 10.93 L 12.79 12.12 C 11.66 12.75 10.46 13.22 9.28 13.72 C 9.58 14.95 9.92 16.28 11.29 16.81 C 11.79 15.54 12.24 14.25 12.71 12.96 L 14.20 14.56 C 17.26 12.47 14.37 6.86 11.67 10.93 M 45.89 14.59 L 47.18 13.00 C 47.83 14.33 48.49 15.67 49.15 17.00 C 50.39 15.82 50.66 14.29 50.16 12.67 L 48.79 13.99 C 47.95 12.38 47.82 10.20 46.11 9.20 C 43.59 10.20 44.38 13.10 45.89 14.59 M 18.20 16.22 C 13.05 17.19 8.59 21.58 8.06 26.87 C 7.55 32.30 11.25 36.88 11.75 42.16 C 12.06 45.04 11.94 48.51 14.58 50.41 C 18.19 53.62 24.56 51.61 25.71 46.93 C 27.38 41.75 21.35 38.07 22.15 33.01 C 23.47 29.64 28.29 28.21 27.98 24.03 C 28.31 18.95 23.06 14.85 18.20 16.22 M 38.21 16.17 C 33.83 16.85 31.02 21.80 32.31 25.97 C 33.26 28.97 36.87 30.14 37.87 33.08 C 38.55 37.84 33.30 41.22 34.09 46.03 C 34.60 50.89 40.83 53.71 44.81 50.85 C 47.58 49.25 48.06 45.89 48.16 42.99 C 48.40 37.73 51.91 33.26 51.98 27.98 C 52.04 21.04 45.03 15.09 38.21 16.17 M 8.21 17.51 C 6.84 18.48 8.30 21.18 9.78 19.96 C 11.16 18.98 9.71 16.34 8.21 17.51 M 50.21 17.51 C 48.84 18.48 50.30 21.18 51.78 19.95 C 53.16 18.98 51.72 16.34 50.21 17.51 Z" />
</g>
<g id="#000000ff">
<path fill="#000000" opacity="1.00" d=" M 24.14 6.16 C 28.73 5.10 29.38 13.57 25.00 14.02 C 21.36 13.49 21.02 7.67 24.14 6.16 Z" />
<path fill="#000000" opacity="1.00" d=" M 34.14 6.16 C 38.70 5.12 39.39 13.44 35.07 14.03 C 31.38 13.58 30.99 7.68 34.14 6.16 Z" />
<path fill="#000000" opacity="1.00" d=" M 17.14 8.11 C 19.81 5.18 22.14 11.62 19.04 12.55 C 16.72 13.36 15.76 9.52 17.14 8.11 Z" />
<path fill="#000000" opacity="1.00" d=" M 40.09 8.01 C 42.99 5.42 44.94 11.40 42.08 12.62 C 39.57 13.22 38.84 9.58 40.09 8.01 Z" />
<path fill="#000000" opacity="1.00" d=" M 11.67 10.93 C 14.37 6.86 17.26 12.47 14.20 14.56 L 12.71 12.96 C 12.24 14.25 11.79 15.54 11.29 16.81 C 9.92 16.28 9.58 14.95 9.28 13.72 C 10.46 13.22 11.66 12.75 12.79 12.12 L 11.67 10.93 Z" />
<path fill="#000000" opacity="1.00" d=" M 45.89 14.59 C 44.38 13.10 43.59 10.20 46.11 9.20 C 47.82 10.20 47.95 12.38 48.79 13.99 L 50.16 12.67 C 50.66 14.29 50.39 15.82 49.15 17.00 C 48.49 15.67 47.83 14.33 47.18 13.00 L 45.89 14.59 Z" />
<path fill="#000000" opacity="1.00" d=" M 18.20 16.22 C 23.06 14.85 28.31 18.95 27.98 24.03 C 28.29 28.21 23.47 29.64 22.15 33.01 C 21.35 38.07 27.38 41.75 25.71 46.93 C 24.56 51.61 18.19 53.62 14.58 50.41 C 11.94 48.51 12.06 45.04 11.75 42.16 C 11.25 36.88 7.55 32.30 8.06 26.87 C 8.59 21.58 13.05 17.19 18.20 16.22 Z" />
<path fill="#000000" opacity="1.00" d=" M 38.21 16.17 C 45.03 15.09 52.04 21.04 51.98 27.98 C 51.91 33.26 48.40 37.73 48.16 42.99 C 48.06 45.89 47.58 49.25 44.81 50.85 C 40.83 53.71 34.60 50.89 34.09 46.03 C 33.30 41.22 38.55 37.84 37.87 33.08 C 36.87 30.14 33.26 28.97 32.31 25.97 C 31.02 21.80 33.83 16.85 38.21 16.17 Z" />
<path fill="#000000" opacity="1.00" d=" M 8.21 17.51 C 9.71 16.34 11.16 18.98 9.78 19.96 C 8.30 21.18 6.84 18.48 8.21 17.51 Z" />
<path fill="#000000" opacity="1.00" d=" M 50.21 17.51 C 51.72 16.34 53.16 18.98 51.78 19.95 C 50.30 21.18 48.84 18.48 50.21 17.51 Z" />
</g>
</svg>
