<?xml version="1.0" encoding="UTF-8" ?>
<!DOCTYPE svg PUBLIC "-//W3C//DTD SVG 1.1//EN" "http://www.w3.org/Graphics/SVG/1.1/DTD/svg11.dtd">
<svg width="200pt" height="200pt" viewBox="0 0 200 200" version="1.1" xmlns="http://www.w3.org/2000/svg">
<g id="#ffffffff">
<path fill="#ffffff" opacity="1.00" d=" M 0.00 0.00 L 200.00 0.00 L 200.00 200.00 L 0.00 200.00 L 0.00 0.00 M 76.07 14.10 C 73.83 14.50 72.35 16.81 72.59 19.02 C 72.56 71.34 72.59 123.66 72.57 175.98 C 72.59 178.29 72.42 180.63 72.79 182.93 C 73.45 185.06 75.71 186.22 77.85 186.02 C 92.93 185.98 108.00 186.08 123.08 185.97 C 125.65 186.02 127.67 183.49 127.39 181.00 C 127.42 126.98 127.42 72.95 127.39 18.93 C 127.74 16.01 124.98 13.55 122.13 13.97 C 106.78 14.05 91.41 13.79 76.07 14.10 Z" />
<path fill="#ffffff" opacity="1.00" d=" M 95.97 22.35 C 98.65 22.35 101.32 22.34 103.99 22.34 C 104.02 67.64 103.97 112.93 104.02 158.23 C 106.93 159.85 109.45 162.50 109.90 165.94 C 110.98 171.50 106.48 177.26 100.83 177.58 C 95.38 178.19 90.09 173.57 89.97 168.09 C 89.61 163.87 92.35 160.10 95.96 158.21 C 95.99 112.92 95.96 67.63 95.97 22.35 Z" />
</g>
<g id="#000000ff">
<path fill="#968176" opacity="1.00" d=" M 76.07 14.10 C 91.41 13.79 106.78 14.05 122.13 13.97 C 124.98 13.55 127.74 16.01 127.39 18.93 C 127.42 72.95 127.42 126.98 127.39 181.00 C 127.67 183.49 125.65 186.02 123.08 185.97 C 108.00 186.08 92.93 185.98 77.85 186.02 C 75.71 186.22 73.45 185.06 72.79 182.93 C 72.42 180.63 72.59 178.29 72.57 175.98 C 72.59 123.66 72.56 71.34 72.59 19.02 C 72.35 16.81 73.83 14.50 76.07 14.10 M 95.97 22.35 C 95.96 67.63 95.99 112.92 95.96 158.21 C 92.35 160.10 89.61 163.87 89.97 168.09 C 90.09 173.57 95.38 178.19 100.83 177.58 C 106.48 177.26 110.98 171.50 109.90 165.94 C 109.45 162.50 106.93 159.85 104.02 158.23 C 103.97 112.93 104.02 67.64 103.99 22.34 C 101.32 22.34 98.65 22.35 95.97 22.35 Z" />
</g>
</svg>
