<?xml version="1.0" encoding="UTF-8" ?>
<!DOCTYPE svg PUBLIC "-//W3C//DTD SVG 1.1//EN" "http://www.w3.org/Graphics/SVG/1.1/DTD/svg11.dtd">
<svg width="60pt" height="60pt" viewBox="0 0 60 60" version="1.1" xmlns="http://www.w3.org/2000/svg">
<g id="#ffffffff">
<path fill="#ffffff" opacity="1.00" d=" M 0.00 0.00 L 60.00 0.00 L 60.00 60.00 L 0.00 60.00 L 0.00 0.00 M 27.84 8.02 C 25.46 8.46 23.12 9.10 20.84 9.90 C 19.96 8.59 18.64 6.18 16.77 7.62 C 15.18 8.84 16.72 10.65 17.11 12.06 C 15.31 13.62 13.62 15.31 12.06 17.12 C 10.55 16.54 8.39 15.12 7.30 17.13 C 6.65 19.01 8.79 19.77 9.77 20.95 C 9.19 23.25 8.47 25.50 8.00 27.83 C 6.62 28.09 3.80 27.88 4.08 30.02 C 3.83 32.14 6.66 31.90 8.01 32.18 C 8.47 34.54 9.10 36.86 9.90 39.13 C 8.74 40.15 6.59 40.93 7.28 42.86 C 8.40 44.89 10.54 43.46 12.09 42.86 C 13.06 43.93 14.01 45.02 14.97 46.10 C 17.30 45.37 19.57 44.35 22.00 44.01 C 24.75 44.33 27.21 45.94 30.01 45.98 C 32.80 45.93 35.26 44.31 38.00 44.01 C 40.45 44.36 42.73 45.38 45.09 46.07 C 46.02 45.00 46.96 43.92 47.90 42.86 C 49.37 43.38 51.67 44.98 52.60 42.86 C 53.65 41.08 51.18 40.06 50.09 39.22 C 50.89 36.91 51.50 34.56 51.97 32.17 C 53.44 31.92 56.02 32.14 56.01 29.98 C 56.00 27.83 53.43 28.10 51.98 27.83 C 51.51 25.43 50.89 23.07 50.10 20.77 C 51.47 19.96 53.81 18.56 52.38 16.71 C 51.09 15.17 49.37 16.69 47.95 17.13 C 46.38 15.33 44.69 13.64 42.90 12.07 C 43.26 10.67 44.82 8.88 43.24 7.66 C 41.41 6.18 40.08 8.63 39.14 9.90 C 36.86 9.10 34.53 8.47 32.16 8.01 C 31.93 6.60 32.16 3.84 30.00 4.04 C 27.83 3.81 28.07 6.62 27.84 8.02 M 4.64 51.40 C 9.82 54.61 16.46 54.59 22.00 52.29 C 27.10 54.45 32.90 54.44 38.00 52.29 C 43.56 54.62 50.18 54.57 55.41 51.41 C 56.70 50.29 55.73 47.82 53.98 48.07 C 51.67 48.59 49.51 49.68 47.13 49.90 C 43.95 50.24 40.93 48.97 37.99 47.96 C 32.92 50.43 27.08 50.43 22.01 47.96 C 19.06 48.98 16.03 50.25 12.84 49.89 C 10.48 49.67 8.33 48.58 6.04 48.10 C 4.29 47.56 3.16 50.52 4.64 51.40 Z" />
<path fill="#ffffff" opacity="1.00" d=" M 22.00 32.00 C 24.66 27.33 27.33 22.67 29.99 18.01 C 30.00 21.34 30.00 24.67 30.00 28.00 C 32.67 28.00 35.34 28.00 38.00 28.01 C 35.32 32.66 32.68 37.33 30.00 41.99 C 30.00 38.66 30.00 35.33 30.00 32.00 C 27.33 32.00 24.67 32.00 22.00 32.00 Z" />
</g>
<g id="#000000ff">
<path fill="#000000" opacity="1.00" d=" M 27.84 8.02 C 28.07 6.62 27.83 3.81 30.00 4.04 C 32.16 3.84 31.93 6.60 32.16 8.01 C 34.53 8.47 36.86 9.10 39.14 9.90 C 40.08 8.63 41.41 6.18 43.24 7.66 C 44.82 8.88 43.26 10.67 42.90 12.07 C 44.69 13.64 46.38 15.33 47.95 17.13 C 49.37 16.69 51.09 15.17 52.38 16.71 C 53.81 18.56 51.47 19.96 50.10 20.77 C 50.89 23.07 51.51 25.43 51.98 27.83 C 53.43 28.10 56.00 27.83 56.01 29.98 C 56.02 32.14 53.44 31.92 51.97 32.17 C 51.50 34.56 50.89 36.91 50.09 39.22 C 51.18 40.06 53.65 41.08 52.60 42.86 C 51.67 44.98 49.37 43.38 47.90 42.86 C 46.96 43.92 46.02 45.00 45.09 46.07 C 42.73 45.38 40.45 44.36 38.00 44.01 C 35.26 44.31 32.80 45.93 30.01 45.98 C 27.21 45.94 24.75 44.33 22.00 44.01 C 19.57 44.35 17.30 45.37 14.97 46.10 C 14.01 45.02 13.06 43.93 12.09 42.86 C 10.54 43.46 8.40 44.89 7.28 42.86 C 6.59 40.93 8.74 40.15 9.90 39.13 C 9.10 36.86 8.47 34.54 8.01 32.18 C 6.66 31.90 3.83 32.14 4.08 30.02 C 3.80 27.88 6.62 28.09 8.00 27.83 C 8.47 25.50 9.19 23.25 9.77 20.95 C 8.79 19.77 6.65 19.01 7.30 17.13 C 8.39 15.12 10.55 16.54 12.06 17.12 C 13.62 15.31 15.31 13.62 17.11 12.06 C 16.72 10.65 15.18 8.84 16.77 7.62 C 18.64 6.18 19.96 8.59 20.84 9.90 C 23.12 9.10 25.46 8.46 27.84 8.02 M 22.00 32.00 C 24.67 32.00 27.33 32.00 30.00 32.00 C 30.00 35.33 30.00 38.66 30.00 41.99 C 32.68 37.33 35.32 32.66 38.00 28.01 C 35.34 28.00 32.67 28.00 30.00 28.00 C 30.00 24.67 30.00 21.34 29.99 18.01 C 27.33 22.67 24.66 27.33 22.00 32.00 Z" />
<path fill="#000000" opacity="1.00" d=" M 4.64 51.40 C 3.16 50.52 4.29 47.56 6.04 48.10 C 8.33 48.58 10.48 49.67 12.84 49.89 C 16.03 50.25 19.06 48.98 22.01 47.96 C 27.08 50.43 32.92 50.43 37.99 47.96 C 40.93 48.97 43.95 50.24 47.13 49.90 C 49.51 49.68 51.67 48.59 53.98 48.07 C 55.73 47.82 56.70 50.29 55.41 51.41 C 50.18 54.57 43.56 54.62 38.00 52.29 C 32.90 54.44 27.10 54.45 22.00 52.29 C 16.46 54.59 9.82 54.61 4.64 51.40 Z" />
</g>
</svg>
