<?xml version="1.0" encoding="UTF-8" ?>
<!DOCTYPE svg PUBLIC "-//W3C//DTD SVG 1.1//EN" "http://www.w3.org/Graphics/SVG/1.1/DTD/svg11.dtd">
<svg width="64pt" height="64pt" viewBox="0 0 64 64" version="1.1" xmlns="http://www.w3.org/2000/svg">
<g id="#ffffffff">
<path fill="#ffffff" opacity="1.00" d=" M 0.00 0.00 L 64.00 0.00 L 64.00 64.00 L 0.00 64.00 L 0.00 0.00 M 22.93 16.42 C 20.11 18.25 17.86 20.75 15.97 23.50 C 15.50 22.44 15.04 21.36 14.59 20.28 C 13.40 19.87 12.20 19.48 10.99 19.09 C 10.44 22.29 11.78 25.36 14.60 27.01 C 13.85 30.46 14.05 33.99 14.51 37.47 C 12.42 35.79 10.17 36.55 8.06 37.69 C 9.81 40.58 13.09 41.90 16.37 41.03 C 19.33 45.81 24.28 48.96 29.77 50.04 C 27.35 53.30 22.17 52.13 21.71 48.00 C 20.57 48.00 19.43 48.00 18.29 48.00 C 17.70 50.00 16.40 52.23 13.98 52.00 C 11.57 52.22 10.29 49.99 9.71 47.99 C 8.41 48.01 7.10 48.02 5.79 48.04 C 6.32 51.00 7.74 54.08 10.70 55.27 C 13.83 56.82 17.45 55.67 20.00 53.55 C 23.35 56.69 28.65 56.68 32.00 53.55 C 35.35 56.69 40.65 56.68 44.00 53.55 C 46.56 55.68 50.20 56.83 53.34 55.25 C 56.28 54.05 57.67 50.98 58.20 48.04 C 56.90 48.02 55.59 48.01 54.28 47.99 C 53.69 49.96 52.46 52.18 50.07 52.00 C 47.62 52.26 46.29 50.03 45.71 48.00 C 44.57 48.00 43.43 48.00 42.29 48.00 C 41.82 52.12 36.65 53.31 34.23 50.04 C 39.98 48.96 44.97 45.46 48.03 40.50 C 48.51 41.57 48.96 42.64 49.40 43.72 C 50.59 44.13 51.79 44.52 52.99 44.91 C 53.55 41.71 52.22 38.64 49.40 36.99 C 50.14 33.53 49.93 30.00 49.50 26.52 C 51.56 28.21 53.80 27.44 55.90 26.35 C 54.16 23.31 50.75 22.21 47.43 22.87 C 45.75 20.00 43.18 17.86 40.50 15.97 C 41.57 15.49 42.64 15.03 43.72 14.59 C 44.13 13.39 44.52 12.19 44.91 10.99 C 41.71 10.40 38.66 11.83 37.00 14.61 C 33.54 13.85 30.00 14.06 26.52 14.51 C 28.22 12.42 27.41 10.17 26.31 8.06 C 23.38 9.81 22.13 13.15 22.93 16.42 Z" />
<path fill="#ffffff" opacity="1.00" d=" M 27.48 18.78 C 34.73 16.08 43.51 20.66 45.42 28.14 C 47.67 35.28 43.07 43.57 35.83 45.43 C 28.72 47.66 20.46 43.09 18.58 35.89 C 16.41 28.98 20.58 20.94 27.48 18.78 M 27.31 30.89 C 28.64 31.56 29.97 32.22 31.31 32.89 C 30.27 34.97 29.22 37.05 28.19 39.14 C 29.40 39.71 30.61 40.29 31.82 40.87 C 33.44 37.62 35.07 34.37 36.69 31.11 C 35.36 30.44 34.03 29.78 32.70 29.12 C 33.73 27.03 34.78 24.95 35.81 22.86 C 34.60 22.29 33.39 21.71 32.18 21.13 C 30.56 24.39 28.93 27.63 27.31 30.89 Z" />
</g>
<g id="#000000ff">
<path fill="#000000" opacity="1.00" d=" M 22.93 16.42 C 22.13 13.15 23.38 9.81 26.31 8.06 C 27.41 10.17 28.22 12.42 26.52 14.51 C 30.00 14.06 33.54 13.85 37.00 14.61 C 38.66 11.83 41.71 10.40 44.91 10.99 C 44.52 12.19 44.13 13.39 43.72 14.59 C 42.64 15.03 41.57 15.49 40.50 15.97 C 43.18 17.86 45.75 20.00 47.43 22.87 C 50.75 22.21 54.16 23.31 55.90 26.35 C 53.80 27.44 51.56 28.21 49.50 26.52 C 49.93 30.00 50.14 33.53 49.40 36.99 C 52.22 38.64 53.55 41.71 52.99 44.91 C 51.79 44.52 50.59 44.13 49.40 43.72 C 48.96 42.64 48.51 41.57 48.03 40.50 C 44.97 45.46 39.98 48.96 34.23 50.04 C 36.65 53.31 41.82 52.12 42.29 48.00 C 43.43 48.00 44.57 48.00 45.71 48.00 C 46.29 50.03 47.62 52.26 50.07 52.00 C 52.46 52.18 53.69 49.96 54.28 47.99 C 55.59 48.01 56.90 48.02 58.20 48.04 C 57.67 50.98 56.28 54.05 53.34 55.25 C 50.20 56.83 46.56 55.68 44.00 53.55 C 40.65 56.68 35.35 56.69 32.00 53.55 C 28.65 56.68 23.35 56.69 20.00 53.55 C 17.45 55.67 13.83 56.82 10.70 55.27 C 7.74 54.08 6.32 51.00 5.79 48.04 C 7.10 48.02 8.41 48.01 9.71 47.99 C 10.29 49.99 11.57 52.22 13.98 52.00 C 16.40 52.23 17.70 50.00 18.29 48.00 C 19.43 48.00 20.57 48.00 21.71 48.00 C 22.17 52.13 27.35 53.30 29.77 50.04 C 24.28 48.96 19.33 45.81 16.37 41.03 C 13.09 41.90 9.81 40.58 8.06 37.69 C 10.17 36.55 12.42 35.79 14.51 37.47 C 14.05 33.99 13.85 30.46 14.60 27.01 C 11.78 25.36 10.44 22.29 10.99 19.09 C 12.20 19.48 13.40 19.87 14.59 20.28 C 15.04 21.36 15.50 22.44 15.97 23.50 C 17.86 20.75 20.11 18.25 22.93 16.42 M 27.48 18.78 C 20.58 20.94 16.41 28.98 18.58 35.89 C 20.46 43.09 28.72 47.66 35.83 45.43 C 43.07 43.57 47.67 35.28 45.42 28.14 C 43.51 20.66 34.73 16.08 27.48 18.78 Z" />
<path fill="#000000" opacity="1.00" d=" M 27.31 30.89 C 28.93 27.63 30.56 24.39 32.18 21.13 C 33.39 21.71 34.60 22.29 35.81 22.86 C 34.78 24.95 33.73 27.03 32.70 29.12 C 34.03 29.78 35.36 30.44 36.69 31.11 C 35.07 34.37 33.44 37.62 31.82 40.87 C 30.61 40.29 29.40 39.71 28.19 39.14 C 29.22 37.05 30.27 34.97 31.31 32.89 C 29.97 32.22 28.64 31.56 27.31 30.89 Z" />
</g>
</svg>
