<?xml version="1.0" encoding="UTF-8" ?>
<!DOCTYPE svg PUBLIC "-//W3C//DTD SVG 1.1//EN" "http://www.w3.org/Graphics/SVG/1.1/DTD/svg11.dtd">
<svg width="64pt" height="64pt" viewBox="0 0 64 64" version="1.1" xmlns="http://www.w3.org/2000/svg">
<g id="#ffffffff">
<path fill="#ffffff" opacity="1.00" d=" M 0.00 0.00 L 64.00 0.00 L 64.00 64.00 L 0.00 64.00 L 0.00 0.00 M 13.03 30.07 C 11.27 34.14 9.17 38.57 10.39 43.10 C 11.88 50.38 19.84 55.46 27.07 53.61 C 34.53 52.13 39.76 43.73 37.41 36.41 C 34.31 27.05 29.04 18.61 24.00 10.19 C 20.02 16.63 16.24 23.21 13.03 30.07 M 46.00 10.00 C 46.00 11.33 46.00 12.67 46.00 14.00 C 49.33 14.00 52.67 14.00 56.00 14.00 C 56.00 12.67 56.00 11.33 56.00 10.00 C 52.67 10.00 49.33 10.00 46.00 10.00 M 50.00 20.00 C 50.00 21.33 50.00 22.67 50.00 24.00 C 52.00 24.00 54.00 24.00 56.00 24.00 C 56.00 22.67 56.00 21.33 56.00 20.00 C 54.00 20.00 52.00 20.00 50.00 20.00 M 46.00 30.00 C 46.00 31.33 46.00 32.67 46.00 34.00 C 49.33 34.00 52.67 34.00 56.00 34.00 C 56.00 32.67 56.00 31.33 56.00 30.00 C 52.67 30.00 49.33 30.00 46.00 30.00 M 50.00 40.00 C 50.00 41.33 50.00 42.67 50.00 44.00 C 52.00 44.00 54.00 44.00 56.00 44.00 C 56.00 42.67 56.00 41.33 56.00 40.00 C 54.00 40.00 52.00 40.00 50.00 40.00 M 46.00 50.00 C 46.00 51.33 46.00 52.67 46.00 54.00 C 49.33 54.00 52.67 54.00 56.00 54.00 C 56.00 52.67 56.00 51.33 56.00 50.00 C 52.67 50.00 49.33 50.00 46.00 50.00 Z" />
<path fill="#ffffff" opacity="1.00" d=" M 16.58 31.99 C 18.81 27.20 21.21 22.49 24.00 17.99 C 26.80 22.48 29.18 27.22 31.44 32.00 C 26.48 32.00 21.53 32.01 16.58 31.99 Z" />
</g>
<g id="#000000ff">
<path fill="#000000" opacity="1.00" d=" M 13.03 30.07 C 16.24 23.21 20.02 16.63 24.00 10.19 C 29.04 18.61 34.31 27.05 37.41 36.41 C 39.76 43.73 34.53 52.13 27.07 53.61 C 19.84 55.46 11.88 50.38 10.39 43.10 C 9.17 38.57 11.27 34.14 13.03 30.07 M 16.58 31.99 C 21.53 32.01 26.48 32.00 31.44 32.00 C 29.18 27.22 26.80 22.48 24.00 17.99 C 21.21 22.49 18.81 27.20 16.58 31.99 Z" />
<path fill="#000000" opacity="1.00" d=" M 46.00 10.00 C 49.33 10.00 52.67 10.00 56.00 10.00 C 56.00 11.33 56.00 12.67 56.00 14.00 C 52.67 14.00 49.33 14.00 46.00 14.00 C 46.00 12.67 46.00 11.33 46.00 10.00 Z" />
<path fill="#000000" opacity="1.00" d=" M 50.00 20.00 C 52.00 20.00 54.00 20.00 56.00 20.00 C 56.00 21.33 56.00 22.67 56.00 24.00 C 54.00 24.00 52.00 24.00 50.00 24.00 C 50.00 22.67 50.00 21.33 50.00 20.00 Z" />
<path fill="#000000" opacity="1.00" d=" M 46.00 30.00 C 49.33 30.00 52.67 30.00 56.00 30.00 C 56.00 31.33 56.00 32.67 56.00 34.00 C 52.67 34.00 49.33 34.00 46.00 34.00 C 46.00 32.67 46.00 31.33 46.00 30.00 Z" />
<path fill="#000000" opacity="1.00" d=" M 50.00 40.00 C 52.00 40.00 54.00 40.00 56.00 40.00 C 56.00 41.33 56.00 42.67 56.00 44.00 C 54.00 44.00 52.00 44.00 50.00 44.00 C 50.00 42.67 50.00 41.33 50.00 40.00 Z" />
<path fill="#000000" opacity="1.00" d=" M 46.00 50.00 C 49.33 50.00 52.67 50.00 56.00 50.00 C 56.00 51.33 56.00 52.67 56.00 54.00 C 52.67 54.00 49.33 54.00 46.00 54.00 C 46.00 52.67 46.00 51.33 46.00 50.00 Z" />
</g>
</svg>
