<?xml version="1.0" encoding="UTF-8" ?>
<!DOCTYPE svg PUBLIC "-//W3C//DTD SVG 1.1//EN" "http://www.w3.org/Graphics/SVG/1.1/DTD/svg11.dtd">
<svg width="60pt" height="60pt" viewBox="0 0 60 60" version="1.1" xmlns="http://www.w3.org/2000/svg">
<g id="#ffffffff">
<path fill="#ffffff" opacity="1.00" d=" M 0.00 0.00 L 60.00 0.00 L 60.00 57.14 C 56.69 51.47 53.03 46.02 49.65 40.39 C 48.65 38.91 47.83 37.06 46.00 36.46 C 44.16 37.06 43.36 38.91 42.36 40.38 C 39.25 45.57 35.90 50.61 32.78 55.79 C 31.58 57.16 32.18 58.76 33.22 60.00 L 0.00 60.00 L 0.00 0.00 M 5.87 21.85 C 8.73 21.74 11.48 22.49 13.58 24.49 C 15.23 21.21 16.61 17.77 18.61 14.68 C 19.21 13.48 21.49 13.88 21.74 15.22 C 23.41 19.42 24.64 23.78 26.10 28.05 C 27.09 24.20 30.34 21.51 34.39 21.81 C 35.85 20.65 37.75 19.30 39.67 20.36 C 42.40 21.53 42.82 25.71 40.22 27.27 C 38.23 28.89 35.72 27.51 34.24 25.93 C 28.00 25.19 30.77 36.07 25.12 35.90 C 22.32 31.53 21.60 26.03 19.62 21.22 C 17.70 24.05 17.23 28.36 14.08 30.08 C 11.30 29.11 9.96 25.49 6.61 25.77 C 9.42 34.78 16.35 41.69 23.33 47.70 C 25.45 49.29 27.30 51.56 30.02 52.10 C 34.42 46.63 37.31 40.01 41.65 34.47 C 43.77 32.19 47.15 32.48 49.77 33.66 C 52.32 29.20 54.71 24.13 53.77 18.86 C 52.80 12.41 46.40 7.40 39.90 8.08 C 35.89 8.33 32.57 10.92 30.00 13.80 C 26.83 10.03 21.98 7.17 16.90 8.22 C 10.39 9.15 5.78 15.43 5.87 21.85 Z" />
<path fill="#ffffff" opacity="1.00" d=" M 44.00 44.00 C 45.33 44.00 46.67 44.00 48.00 44.00 C 47.89 46.67 47.78 49.33 47.68 52.00 C 46.56 52.00 45.44 52.00 44.32 52.00 C 44.22 49.33 44.11 46.67 44.00 44.00 Z" />
<path fill="#ffffff" opacity="1.00" d=" M 44.61 53.66 C 46.34 51.91 49.47 54.79 47.37 56.34 C 45.61 58.03 42.59 55.28 44.61 53.66 Z" />
</g>
<g id="#000000ff">
<path fill="#968176" opacity="1.00" d=" M 5.87 21.85 C 5.78 15.43 10.39 9.15 16.90 8.22 C 21.98 7.17 26.83 10.03 30.00 13.80 C 32.57 10.92 35.89 8.33 39.90 8.08 C 46.40 7.40 52.80 12.41 53.77 18.86 C 54.71 24.13 52.32 29.20 49.77 33.66 C 47.15 32.48 43.77 32.19 41.65 34.47 C 37.31 40.01 34.42 46.63 30.02 52.10 C 27.30 51.56 25.45 49.29 23.33 47.70 C 16.35 41.69 9.42 34.78 6.61 25.77 C 9.96 25.49 11.30 29.11 14.08 30.08 C 17.23 28.36 17.70 24.05 19.62 21.22 C 21.60 26.03 22.32 31.53 25.12 35.90 C 30.77 36.07 28.00 25.19 34.24 25.93 C 35.72 27.51 38.23 28.89 40.22 27.27 C 42.82 25.71 42.40 21.53 39.67 20.36 C 37.75 19.30 35.85 20.65 34.39 21.81 C 30.34 21.51 27.09 24.20 26.10 28.05 C 24.64 23.78 23.41 19.42 21.74 15.22 C 21.49 13.88 19.21 13.48 18.61 14.68 C 16.61 17.77 15.23 21.21 13.58 24.49 C 11.48 22.49 8.73 21.74 5.87 21.85 Z" />
<path fill="#968176" opacity="1.00" d=" M 42.36 40.38 C 43.36 38.91 44.16 37.06 46.00 36.46 C 47.83 37.06 48.65 38.91 49.65 40.39 C 53.03 46.02 56.69 51.47 60.00 57.14 L 60.00 60.00 L 33.22 60.00 C 32.18 58.76 31.58 57.16 32.78 55.79 C 35.90 50.61 39.25 45.57 42.36 40.38 M 44.00 44.00 C 44.11 46.67 44.22 49.33 44.32 52.00 C 45.44 52.00 46.56 52.00 47.68 52.00 C 47.78 49.33 47.89 46.67 48.00 44.00 C 46.67 44.00 45.33 44.00 44.00 44.00 M 44.61 53.66 C 42.59 55.28 45.61 58.03 47.37 56.34 C 49.47 54.79 46.34 51.91 44.61 53.66 Z" />
</g>
</svg>
