<?xml version="1.0" encoding="UTF-8" ?>
<!DOCTYPE svg PUBLIC "-//W3C//DTD SVG 1.1//EN" "http://www.w3.org/Graphics/SVG/1.1/DTD/svg11.dtd">
<svg width="64pt" height="64pt" viewBox="0 0 64 64" version="1.1" xmlns="http://www.w3.org/2000/svg">
<g id="#ffffffff">
<path fill="#ffffff" opacity="1.00" d=" M 0.00 0.00 L 64.00 0.00 L 64.00 18.00 C 60.27 18.42 55.73 16.70 52.71 19.61 C 56.45 20.15 60.24 20.02 64.00 20.00 L 64.00 22.00 C 59.82 22.44 54.94 20.72 51.35 23.50 C 55.52 24.32 59.78 24.04 64.00 24.07 L 64.00 42.00 C 61.33 41.99 58.66 41.99 56.00 42.00 C 56.00 42.50 56.00 43.50 56.00 44.00 C 58.67 44.01 61.33 44.01 64.00 44.00 L 64.00 46.00 C 61.33 45.99 58.66 45.99 56.00 46.00 C 56.00 46.50 56.00 47.50 56.00 48.00 C 58.66 48.01 61.33 48.01 64.00 48.00 L 64.00 64.00 L 0.00 64.00 L 0.00 48.00 C 4.00 47.99 8.00 48.01 12.00 48.00 C 12.00 47.50 12.00 46.50 12.00 46.00 C 8.00 45.99 4.00 46.02 0.00 45.99 L 0.00 44.00 C 4.00 43.99 8.00 44.01 12.00 44.00 C 12.00 43.50 12.00 42.50 12.00 42.00 C 8.00 41.99 4.00 42.02 0.00 41.99 L 0.00 24.00 C 4.00 23.99 8.00 24.01 12.00 24.00 C 12.00 23.50 12.00 22.50 12.00 22.00 C 8.00 21.99 4.00 22.02 0.00 21.99 L 0.00 20.00 C 4.00 19.99 8.00 20.01 12.00 20.00 C 12.00 19.50 12.00 18.50 12.00 18.00 C 8.00 17.99 4.00 18.02 0.00 17.99 L 0.00 0.00 M 14.00 18.00 C 14.00 18.50 14.00 19.50 14.00 20.00 C 20.19 19.90 26.40 20.23 32.59 19.79 C 31.14 19.06 29.71 18.02 28.02 18.03 C 23.35 17.92 18.67 18.04 14.00 18.00 M 36.00 18.00 C 36.00 18.50 36.00 19.50 36.00 20.00 C 39.55 20.00 43.10 20.07 46.65 19.89 C 46.40 19.46 45.89 18.60 45.64 18.17 C 42.44 17.79 39.21 18.06 36.00 18.00 M 14.00 22.00 C 14.00 22.50 14.00 23.50 14.00 24.00 C 20.83 23.89 27.68 24.24 34.50 23.80 C 33.82 22.47 32.54 21.70 31.03 21.98 C 25.36 21.99 19.68 22.01 14.00 22.00 M 36.00 22.00 C 36.00 22.50 36.00 23.50 36.00 24.00 C 39.95 23.99 43.90 24.09 47.84 23.88 C 47.56 23.44 47.02 22.57 46.74 22.14 C 43.17 21.80 39.58 22.07 36.00 22.00 M 4.00 26.00 C 4.00 26.50 4.00 27.50 4.00 28.00 C 5.33 28.00 6.67 28.00 8.00 28.00 C 8.00 27.50 8.00 26.50 8.00 26.00 C 6.67 26.00 5.33 26.00 4.00 26.00 M 18.00 26.00 C 18.00 26.50 18.00 27.50 18.00 28.00 C 19.33 28.00 20.67 28.00 22.00 28.00 C 22.00 27.50 22.00 26.50 22.00 26.00 C 20.67 26.00 19.33 26.00 18.00 26.00 M 28.00 25.99 C 28.00 26.50 28.00 27.51 28.00 28.02 C 30.23 27.60 34.01 29.29 34.54 26.10 C 32.36 25.98 30.18 25.97 28.00 25.99 M 40.00 26.00 C 40.00 26.50 40.00 27.50 40.00 28.00 C 43.02 28.02 46.03 28.04 49.04 27.85 C 47.49 24.45 42.96 26.56 40.00 26.00 M 50.50 27.77 C 53.66 28.09 56.83 28.02 60.00 28.00 C 60.00 27.50 60.00 26.50 60.00 26.00 C 56.90 26.53 52.47 24.50 50.50 27.77 M 4.00 30.00 C 4.00 30.50 4.00 31.50 4.00 32.00 C 5.33 32.00 6.67 32.00 8.00 32.00 C 8.00 31.50 8.00 30.50 8.00 30.00 C 6.67 30.00 5.33 30.00 4.00 30.00 M 18.00 30.00 C 18.00 30.50 18.00 31.50 18.00 32.00 C 22.58 31.99 27.16 32.03 31.74 31.98 C 32.10 31.49 32.81 30.50 33.17 30.00 C 28.11 30.00 23.06 30.00 18.00 30.00 M 40.00 29.99 C 40.00 30.50 40.00 31.51 40.00 32.02 C 46.67 31.91 53.33 31.93 60.00 32.02 C 60.00 31.51 60.00 30.50 60.00 30.00 C 53.33 30.05 46.67 30.13 40.00 29.99 M 4.00 34.00 C 4.00 34.50 4.00 35.50 4.00 36.00 C 5.33 36.00 6.67 36.00 8.00 36.00 C 8.00 35.50 8.00 34.50 8.00 34.00 C 6.67 34.00 5.33 34.00 4.00 34.00 M 18.00 34.00 C 18.00 34.50 18.00 35.50 18.00 36.00 C 23.05 36.00 28.10 36.00 33.15 36.00 C 32.80 35.51 32.09 34.52 31.73 34.03 C 27.15 33.96 22.58 34.01 18.00 34.00 M 40.00 34.00 C 40.00 34.50 40.00 35.50 40.00 36.00 C 41.33 36.00 42.67 36.00 44.00 36.00 C 44.00 35.50 44.00 34.50 44.00 34.00 C 42.67 34.00 41.33 34.00 40.00 34.00 M 45.35 34.11 C 45.60 34.54 46.11 35.40 46.36 35.83 C 49.05 35.84 52.95 37.19 54.50 34.20 C 51.46 33.92 48.40 33.94 45.35 34.11 M 56.00 34.00 C 56.00 34.50 56.00 35.50 56.00 36.00 C 57.33 36.00 58.67 36.00 60.00 36.00 C 60.00 35.50 60.00 34.50 60.00 34.00 C 58.67 34.00 57.33 34.00 56.00 34.00 M 4.00 38.00 C 4.00 38.50 4.00 39.50 4.00 40.00 C 5.33 40.00 6.67 40.00 8.00 40.00 C 8.00 39.50 8.00 38.50 8.00 38.00 C 6.67 38.00 5.33 38.00 4.00 38.00 M 18.00 38.00 C 18.00 38.50 18.00 39.50 18.00 40.00 C 19.33 40.00 20.67 40.00 22.00 40.00 C 22.00 39.50 22.00 38.50 22.00 38.00 C 20.67 38.00 19.33 38.00 18.00 38.00 M 28.62 39.97 C 30.59 40.07 32.57 40.00 34.54 39.92 C 34.33 39.46 33.91 38.54 33.70 38.09 C 31.95 38.22 27.40 36.75 28.62 39.97 M 40.00 38.00 C 40.00 38.50 40.00 39.50 40.00 40.00 C 41.33 40.00 42.67 40.00 44.00 40.00 C 44.00 39.50 44.00 38.50 44.00 38.00 C 42.67 38.00 41.33 38.00 40.00 38.00 M 46.48 38.05 C 47.31 41.08 52.09 40.65 53.54 38.27 C 51.20 38.00 48.83 37.94 46.48 38.05 M 56.00 38.00 C 56.00 38.50 56.00 39.50 56.00 40.00 C 57.33 40.00 58.67 40.00 60.00 40.00 C 60.00 39.50 60.00 38.50 60.00 38.00 C 58.67 38.00 57.33 38.00 56.00 38.00 M 14.00 42.00 C 14.00 42.50 14.00 43.50 14.00 44.00 C 20.23 43.94 26.47 44.12 32.69 43.94 C 33.15 43.51 34.06 42.64 34.51 42.21 C 27.69 41.76 20.84 42.11 14.00 42.00 M 36.00 42.00 C 36.00 42.50 36.00 43.50 36.00 44.00 C 38.67 44.00 41.33 44.00 44.00 44.00 C 44.00 43.50 44.00 42.50 44.00 42.00 C 41.33 42.00 38.67 42.00 36.00 42.00 M 48.39 42.20 C 47.18 43.80 50.25 44.78 51.18 43.63 C 52.51 41.98 49.35 41.23 48.39 42.20 M 14.00 46.00 C 14.00 46.50 14.00 47.50 14.00 48.00 C 20.10 47.38 26.88 49.58 32.40 46.22 C 26.28 45.76 20.13 46.10 14.00 46.00 M 36.00 46.00 C 36.00 46.50 36.00 47.50 36.00 48.00 C 38.67 48.00 41.33 48.00 44.00 48.00 C 44.00 47.50 44.00 46.50 44.00 46.00 C 41.33 46.00 38.67 46.00 36.00 46.00 M 49.04 46.05 C 48.57 47.43 49.03 47.90 50.44 47.45 C 50.89 46.05 50.43 45.58 49.04 46.05 Z" />
</g>
<g id="#040404ff">
<path fill="#040404" opacity="1.00" d=" M 0.00 17.99 C 4.00 18.02 8.00 17.99 12.00 18.00 C 12.00 18.50 12.00 19.50 12.00 20.00 C 8.00 20.01 4.00 19.99 0.00 20.00 L 0.00 17.99 Z" />
<path fill="#040404" opacity="1.00" d=" M 14.00 18.00 C 18.67 18.04 23.35 17.92 28.02 18.03 C 29.71 18.02 31.14 19.06 32.59 19.79 C 26.40 20.23 20.19 19.90 14.00 20.00 C 14.00 19.50 14.00 18.50 14.00 18.00 Z" />
<path fill="#040404" opacity="1.00" d=" M 36.00 18.00 C 39.21 18.06 42.44 17.79 45.64 18.17 C 45.89 18.60 46.40 19.46 46.65 19.89 C 43.10 20.07 39.55 20.00 36.00 20.00 C 36.00 19.50 36.00 18.50 36.00 18.00 Z" />
<path fill="#040404" opacity="1.00" d=" M 52.71 19.61 C 55.73 16.70 60.27 18.42 64.00 18.00 L 64.00 20.00 C 60.24 20.02 56.45 20.15 52.71 19.61 Z" />
<path fill="#040404" opacity="1.00" d=" M 0.00 21.99 C 4.00 22.02 8.00 21.99 12.00 22.00 C 12.00 22.50 12.00 23.50 12.00 24.00 C 8.00 24.01 4.00 23.99 0.00 24.00 L 0.00 21.99 Z" />
<path fill="#040404" opacity="1.00" d=" M 14.00 22.00 C 19.68 22.01 25.36 21.99 31.03 21.98 C 32.54 21.70 33.82 22.47 34.50 23.80 C 27.68 24.24 20.83 23.89 14.00 24.00 C 14.00 23.50 14.00 22.50 14.00 22.00 Z" />
<path fill="#040404" opacity="1.00" d=" M 36.00 22.00 C 39.58 22.07 43.17 21.80 46.74 22.14 C 47.02 22.57 47.56 23.44 47.84 23.88 C 43.90 24.09 39.95 23.99 36.00 24.00 C 36.00 23.50 36.00 22.50 36.00 22.00 Z" />
<path fill="#040404" opacity="1.00" d=" M 51.35 23.50 C 54.94 20.72 59.82 22.44 64.00 22.00 L 64.00 24.07 C 59.78 24.04 55.52 24.32 51.35 23.50 Z" />
<path fill="#040404" opacity="1.00" d=" M 4.00 26.00 C 5.33 26.00 6.67 26.00 8.00 26.00 C 8.00 26.50 8.00 27.50 8.00 28.00 C 6.67 28.00 5.33 28.00 4.00 28.00 C 4.00 27.50 4.00 26.50 4.00 26.00 Z" />
<path fill="#040404" opacity="1.00" d=" M 18.00 26.00 C 19.33 26.00 20.67 26.00 22.00 26.00 C 22.00 26.50 22.00 27.50 22.00 28.00 C 20.67 28.00 19.33 28.00 18.00 28.00 C 18.00 27.50 18.00 26.50 18.00 26.00 Z" />
<path fill="#040404" opacity="1.00" d=" M 28.00 25.99 C 30.18 25.97 32.36 25.98 34.54 26.10 C 34.01 29.29 30.23 27.60 28.00 28.02 C 28.00 27.51 28.00 26.50 28.00 25.99 Z" />
<path fill="#040404" opacity="1.00" d=" M 40.00 26.00 C 42.96 26.56 47.49 24.45 49.04 27.85 C 46.03 28.04 43.02 28.02 40.00 28.00 C 40.00 27.50 40.00 26.50 40.00 26.00 Z" />
<path fill="#040404" opacity="1.00" d=" M 50.50 27.77 C 52.47 24.50 56.90 26.53 60.00 26.00 C 60.00 26.50 60.00 27.50 60.00 28.00 C 56.83 28.02 53.66 28.09 50.50 27.77 Z" />
<path fill="#040404" opacity="1.00" d=" M 4.00 30.00 C 5.33 30.00 6.67 30.00 8.00 30.00 C 8.00 30.50 8.00 31.50 8.00 32.00 C 6.67 32.00 5.33 32.00 4.00 32.00 C 4.00 31.50 4.00 30.50 4.00 30.00 Z" />
<path fill="#040404" opacity="1.00" d=" M 18.00 30.00 C 23.06 30.00 28.11 30.00 33.17 30.00 C 32.81 30.50 32.10 31.49 31.74 31.98 C 27.16 32.03 22.58 31.99 18.00 32.00 C 18.00 31.50 18.00 30.50 18.00 30.00 Z" />
<path fill="#040404" opacity="1.00" d=" M 40.00 29.99 C 46.67 30.13 53.33 30.05 60.00 30.00 C 60.00 30.50 60.00 31.51 60.00 32.02 C 53.33 31.93 46.67 31.91 40.00 32.02 C 40.00 31.51 40.00 30.50 40.00 29.99 Z" />
<path fill="#040404" opacity="1.00" d=" M 4.00 34.00 C 5.33 34.00 6.67 34.00 8.00 34.00 C 8.00 34.50 8.00 35.50 8.00 36.00 C 6.67 36.00 5.33 36.00 4.00 36.00 C 4.00 35.50 4.00 34.50 4.00 34.00 Z" />
<path fill="#040404" opacity="1.00" d=" M 18.00 34.00 C 22.58 34.01 27.15 33.96 31.73 34.03 C 32.09 34.52 32.80 35.51 33.15 36.00 C 28.10 36.00 23.05 36.00 18.00 36.00 C 18.00 35.50 18.00 34.50 18.00 34.00 Z" />
<path fill="#040404" opacity="1.00" d=" M 40.00 34.00 C 41.33 34.00 42.67 34.00 44.00 34.00 C 44.00 34.50 44.00 35.50 44.00 36.00 C 42.67 36.00 41.33 36.00 40.00 36.00 C 40.00 35.50 40.00 34.50 40.00 34.00 Z" />
<path fill="#040404" opacity="1.00" d=" M 45.35 34.11 C 48.40 33.94 51.46 33.92 54.50 34.20 C 52.95 37.19 49.05 35.84 46.36 35.83 C 46.11 35.40 45.60 34.54 45.35 34.11 Z" />
<path fill="#040404" opacity="1.00" d=" M 56.00 34.00 C 57.33 34.00 58.67 34.00 60.00 34.00 C 60.00 34.50 60.00 35.50 60.00 36.00 C 58.67 36.00 57.33 36.00 56.00 36.00 C 56.00 35.50 56.00 34.50 56.00 34.00 Z" />
<path fill="#040404" opacity="1.00" d=" M 4.00 38.00 C 5.33 38.00 6.67 38.00 8.00 38.00 C 8.00 38.50 8.00 39.50 8.00 40.00 C 6.67 40.00 5.33 40.00 4.00 40.00 C 4.00 39.50 4.00 38.50 4.00 38.00 Z" />
<path fill="#040404" opacity="1.00" d=" M 18.00 38.00 C 19.33 38.00 20.67 38.00 22.00 38.00 C 22.00 38.50 22.00 39.50 22.00 40.00 C 20.67 40.00 19.33 40.00 18.00 40.00 C 18.00 39.50 18.00 38.50 18.00 38.00 Z" />
<path fill="#040404" opacity="1.00" d=" M 28.62 39.97 C 27.40 36.75 31.95 38.22 33.70 38.09 C 33.91 38.54 34.33 39.46 34.54 39.92 C 32.57 40.00 30.59 40.07 28.62 39.97 Z" />
<path fill="#040404" opacity="1.00" d=" M 40.00 38.00 C 41.33 38.00 42.67 38.00 44.00 38.00 C 44.00 38.50 44.00 39.50 44.00 40.00 C 42.67 40.00 41.33 40.00 40.00 40.00 C 40.00 39.50 40.00 38.50 40.00 38.00 Z" />
<path fill="#040404" opacity="1.00" d=" M 46.48 38.05 C 48.83 37.94 51.20 38.00 53.54 38.27 C 52.09 40.65 47.31 41.08 46.48 38.05 Z" />
<path fill="#040404" opacity="1.00" d=" M 56.00 38.00 C 57.33 38.00 58.67 38.00 60.00 38.00 C 60.00 38.50 60.00 39.50 60.00 40.00 C 58.67 40.00 57.33 40.00 56.00 40.00 C 56.00 39.50 56.00 38.50 56.00 38.00 Z" />
<path fill="#040404" opacity="1.00" d=" M 0.00 41.99 C 4.00 42.02 8.00 41.99 12.00 42.00 C 12.00 42.50 12.00 43.50 12.00 44.00 C 8.00 44.01 4.00 43.99 0.00 44.00 L 0.00 41.99 Z" />
<path fill="#040404" opacity="1.00" d=" M 14.00 42.00 C 20.84 42.11 27.69 41.76 34.51 42.21 C 34.06 42.64 33.15 43.51 32.69 43.94 C 26.47 44.12 20.23 43.94 14.00 44.00 C 14.00 43.50 14.00 42.50 14.00 42.00 Z" />
<path fill="#040404" opacity="1.00" d=" M 36.00 42.00 C 38.67 42.00 41.33 42.00 44.00 42.00 C 44.00 42.50 44.00 43.50 44.00 44.00 C 41.33 44.00 38.67 44.00 36.00 44.00 C 36.00 43.50 36.00 42.50 36.00 42.00 Z" />
<path fill="#040404" opacity="1.00" d=" M 48.39 42.20 C 49.35 41.23 52.51 41.98 51.18 43.63 C 50.25 44.78 47.18 43.80 48.39 42.20 Z" />
<path fill="#040404" opacity="1.00" d=" M 56.00 42.00 C 58.66 41.99 61.33 41.99 64.00 42.00 L 64.00 44.00 C 61.33 44.01 58.67 44.01 56.00 44.00 C 56.00 43.50 56.00 42.50 56.00 42.00 Z" />
<path fill="#040404" opacity="1.00" d=" M 0.00 45.99 C 4.00 46.02 8.00 45.99 12.00 46.00 C 12.00 46.50 12.00 47.50 12.00 48.00 C 8.00 48.01 4.00 47.99 0.00 48.00 L 0.00 45.99 Z" />
<path fill="#040404" opacity="1.00" d=" M 14.00 46.00 C 20.13 46.10 26.28 45.76 32.40 46.22 C 26.88 49.58 20.10 47.38 14.00 48.00 C 14.00 47.50 14.00 46.50 14.00 46.00 Z" />
<path fill="#040404" opacity="1.00" d=" M 36.00 46.00 C 38.67 46.00 41.33 46.00 44.00 46.00 C 44.00 46.50 44.00 47.50 44.00 48.00 C 41.33 48.00 38.67 48.00 36.00 48.00 C 36.00 47.50 36.00 46.50 36.00 46.00 Z" />
<path fill="#040404" opacity="1.00" d=" M 49.04 46.05 C 50.43 45.58 50.89 46.05 50.44 47.45 C 49.03 47.90 48.57 47.43 49.04 46.05 Z" />
<path fill="#040404" opacity="1.00" d=" M 56.00 46.00 C 58.66 45.99 61.33 45.99 64.00 46.00 L 64.00 48.00 C 61.33 48.01 58.66 48.01 56.00 48.00 C 56.00 47.50 56.00 46.50 56.00 46.00 Z" />
</g>
</svg>
