<?xml version="1.0" encoding="UTF-8" ?>
<!DOCTYPE svg PUBLIC "-//W3C//DTD SVG 1.1//EN" "http://www.w3.org/Graphics/SVG/1.1/DTD/svg11.dtd">
<svg width="60pt" height="60pt" viewBox="0 0 60 60" version="1.1" xmlns="http://www.w3.org/2000/svg">
<g id="#ffffffff">
<path fill="#ffffff" opacity="1.00" d=" M 0.00 0.00 L 60.00 0.00 L 60.00 60.00 L 0.00 60.00 L 0.00 0.00 M 40.76 2.79 C 34.98 4.67 28.87 3.69 22.92 4.12 C 18.98 4.47 16.35 8.08 15.83 11.77 C 13.76 12.39 11.48 13.27 10.59 15.43 C 8.93 18.73 11.65 22.29 14.43 23.96 C 15.61 32.80 16.43 41.69 17.65 50.53 C 17.84 52.60 19.85 54.11 21.88 53.96 C 27.29 54.04 32.71 54.04 38.12 53.96 C 40.14 54.11 42.13 52.61 42.34 50.56 C 43.57 41.71 44.38 32.81 45.57 23.95 C 48.35 22.28 51.09 18.71 49.39 15.41 C 48.53 13.38 46.39 12.52 44.47 11.79 C 44.95 8.94 45.95 6.13 45.86 3.22 C 44.85 1.14 42.41 2.49 40.76 2.79 Z" />
<path fill="#ffffff" opacity="1.00" d=" M 22.97 8.15 C 29.10 7.67 35.37 8.62 41.39 6.90 C 41.04 8.60 40.70 10.31 40.35 12.01 C 37.29 12.05 34.20 11.79 31.15 12.19 C 29.61 12.81 29.63 15.27 31.21 15.81 C 35.74 16.37 40.33 15.64 44.86 16.17 C 46.36 16.85 46.38 19.19 44.82 19.82 C 42.91 20.08 40.97 19.93 39.07 20.18 C 37.02 21.50 39.13 25.84 36.05 25.92 C 32.81 25.99 35.05 21.40 32.86 20.16 C 26.96 19.65 21.01 20.36 15.12 19.83 C 13.64 19.13 13.62 16.81 15.15 16.17 C 18.38 15.73 21.66 16.30 24.87 15.80 C 26.36 15.13 26.37 12.82 24.84 12.20 C 23.15 11.93 21.43 12.00 19.72 11.89 C 20.39 10.38 21.09 8.45 22.97 8.15 Z" />
<path fill="#ffffff" opacity="1.00" d=" M 19.87 27.96 C 21.06 26.10 23.04 26.07 24.16 28.02 C 23.44 28.61 22.71 29.21 21.99 29.81 C 21.27 29.20 20.57 28.59 19.87 27.96 Z" />
<path fill="#ffffff" opacity="1.00" d=" M 23.92 32.05 C 24.62 31.40 25.30 30.73 25.96 30.04 C 26.44 30.42 27.42 31.19 27.91 31.57 C 27.44 32.44 26.96 33.35 26.05 33.85 C 25.34 33.24 24.64 32.65 23.92 32.05 Z" />
<path fill="#ffffff" opacity="1.00" d=" M 20.01 35.97 C 20.71 35.30 21.40 34.62 22.07 33.92 C 23.97 35.02 23.87 36.93 22.07 38.08 C 21.39 37.37 20.70 36.66 20.01 35.97 Z" />
<path fill="#ffffff" opacity="1.00" d=" M 29.90 38.07 C 28.17 36.88 28.08 35.01 29.96 33.92 C 30.64 34.62 31.33 35.31 32.02 35.99 C 31.32 36.69 30.61 37.38 29.90 38.07 Z" />
<path fill="#ffffff" opacity="1.00" d=" M 23.96 40.02 C 24.66 39.35 25.35 38.67 26.02 37.97 C 26.72 38.66 27.40 39.37 28.07 40.09 C 26.93 41.89 25.02 41.90 23.96 40.02 Z" />
<path fill="#ffffff" opacity="1.00" d=" M 20.28 44.00 C 20.78 43.21 21.36 42.48 22.03 41.82 C 22.64 42.55 23.25 43.29 23.83 44.04 C 23.21 44.74 22.59 45.45 21.98 46.16 C 21.38 45.47 20.81 44.75 20.28 44.00 Z" />
<path fill="#ffffff" opacity="1.00" d=" M 28.02 43.99 C 28.69 43.32 29.35 42.65 30.00 41.98 C 30.68 42.64 31.34 43.31 32.01 43.98 C 31.34 44.66 30.67 45.34 29.99 46.01 C 29.35 45.32 28.69 44.65 28.02 43.99 Z" />
<path fill="#ffffff" opacity="1.00" d=" M 23.96 48.02 C 24.65 47.35 25.33 46.68 26.00 45.99 C 26.69 46.67 27.38 47.35 28.09 48.03 C 26.99 49.88 25.03 49.93 23.96 48.02 Z" />
</g>
<g id="#000000ff">
<path fill="#000000" opacity="1.00" d=" M 40.76 2.79 C 42.41 2.49 44.85 1.14 45.86 3.22 C 45.95 6.13 44.95 8.94 44.47 11.79 C 46.39 12.52 48.53 13.38 49.39 15.41 C 51.09 18.71 48.35 22.28 45.57 23.95 C 44.38 32.81 43.57 41.71 42.34 50.56 C 42.13 52.61 40.14 54.11 38.12 53.96 C 32.71 54.04 27.29 54.04 21.88 53.96 C 19.85 54.11 17.84 52.60 17.65 50.53 C 16.43 41.69 15.61 32.80 14.43 23.96 C 11.65 22.29 8.93 18.73 10.59 15.43 C 11.48 13.27 13.76 12.39 15.83 11.77 C 16.35 8.08 18.98 4.47 22.92 4.12 C 28.87 3.69 34.98 4.67 40.76 2.79 M 22.97 8.15 C 21.09 8.45 20.39 10.38 19.72 11.89 C 21.43 12.00 23.15 11.93 24.84 12.20 C 26.37 12.82 26.36 15.13 24.87 15.80 C 21.66 16.30 18.38 15.73 15.15 16.17 C 13.62 16.81 13.64 19.13 15.12 19.83 C 21.01 20.36 26.96 19.65 32.86 20.16 C 35.05 21.40 32.81 25.99 36.05 25.92 C 39.13 25.84 37.02 21.50 39.07 20.18 C 40.97 19.93 42.91 20.08 44.82 19.82 C 46.38 19.19 46.36 16.85 44.86 16.17 C 40.33 15.64 35.74 16.37 31.21 15.81 C 29.63 15.27 29.61 12.81 31.15 12.19 C 34.20 11.79 37.29 12.05 40.35 12.01 C 40.70 10.31 41.04 8.60 41.39 6.90 C 35.37 8.62 29.10 7.67 22.97 8.15 M 19.87 27.96 C 20.57 28.59 21.27 29.20 21.99 29.81 C 22.71 29.21 23.44 28.61 24.16 28.02 C 23.04 26.07 21.06 26.10 19.87 27.96 M 23.92 32.05 C 24.64 32.65 25.34 33.24 26.05 33.85 C 26.96 33.35 27.44 32.44 27.91 31.57 C 27.42 31.19 26.44 30.42 25.96 30.04 C 25.30 30.73 24.62 31.40 23.92 32.05 M 20.01 35.97 C 20.70 36.66 21.39 37.37 22.07 38.08 C 23.87 36.93 23.97 35.02 22.07 33.92 C 21.40 34.62 20.71 35.30 20.01 35.97 M 29.90 38.07 C 30.61 37.38 31.32 36.69 32.02 35.99 C 31.33 35.31 30.64 34.62 29.96 33.92 C 28.08 35.01 28.17 36.88 29.90 38.07 M 23.96 40.02 C 25.02 41.90 26.93 41.89 28.07 40.09 C 27.40 39.37 26.72 38.66 26.02 37.97 C 25.35 38.67 24.66 39.35 23.96 40.02 M 20.28 44.00 C 20.81 44.75 21.38 45.47 21.98 46.16 C 22.59 45.45 23.21 44.74 23.83 44.04 C 23.25 43.29 22.64 42.55 22.03 41.82 C 21.36 42.48 20.78 43.21 20.28 44.00 M 28.02 43.99 C 28.69 44.65 29.35 45.32 29.99 46.01 C 30.67 45.34 31.34 44.66 32.01 43.98 C 31.34 43.31 30.68 42.64 30.00 41.98 C 29.35 42.65 28.69 43.32 28.02 43.99 M 23.96 48.02 C 25.03 49.93 26.99 49.88 28.09 48.03 C 27.38 47.35 26.69 46.67 26.00 45.99 C 25.33 46.68 24.65 47.35 23.96 48.02 Z" />
</g>
</svg>
