<?xml version="1.0" encoding="UTF-8" ?>
<!DOCTYPE svg PUBLIC "-//W3C//DTD SVG 1.1//EN" "http://www.w3.org/Graphics/SVG/1.1/DTD/svg11.dtd">
<svg width="60pt" height="60pt" viewBox="0 0 60 60" version="1.1" xmlns="http://www.w3.org/2000/svg">
<g id="#ffffffff">
<path fill="#ffffff" opacity="1.00" d=" M 0.00 0.00 L 60.00 0.00 L 60.00 60.00 L 0.00 60.00 L 0.00 0.00 M 20.19 12.19 C 15.10 13.43 11.33 18.22 12.00 23.55 C 11.12 24.42 9.48 25.22 10.20 26.73 C 10.94 29.13 11.37 31.94 13.13 33.82 C 23.07 34.27 33.05 33.84 43.01 34.03 C 44.89 33.96 47.70 34.50 48.10 31.94 C 48.91 29.25 51.58 25.36 48.01 23.55 C 48.62 18.24 44.91 13.43 39.80 12.20 C 38.60 7.79 34.82 3.86 30.00 4.02 C 25.19 3.86 21.38 7.78 20.19 12.19 M 18.00 38.00 C 19.92 43.13 21.09 48.58 23.51 53.51 C 26.97 57.66 35.91 57.17 37.51 51.39 C 39.10 46.96 40.46 42.45 42.00 38.00 C 34.00 38.00 26.00 38.00 18.00 38.00 Z" />
<path fill="#ffffff" opacity="1.00" d=" M 24.10 11.99 C 25.67 8.95 29.35 6.84 32.65 8.62 C 35.45 9.73 35.66 12.94 36.60 15.37 C 38.64 16.36 41.37 16.25 42.75 18.33 C 44.09 19.87 43.88 22.01 43.96 23.90 C 42.20 24.11 40.19 23.55 38.64 24.58 C 37.41 26.21 38.81 29.69 36.04 30.04 C 32.83 29.76 35.04 25.44 32.82 24.17 C 27.23 23.73 21.60 24.18 16.00 23.94 C 15.91 21.32 16.29 18.26 18.86 16.89 C 21.42 15.07 24.39 16.77 27.05 17.35 C 30.73 15.29 26.37 12.65 24.10 11.99 Z" />
</g>
<g id="#000000ff">
<path fill="#000000" opacity="1.00" d=" M 20.19 12.19 C 21.38 7.78 25.19 3.86 30.00 4.02 C 34.82 3.86 38.60 7.79 39.80 12.20 C 44.91 13.43 48.62 18.24 48.01 23.55 C 51.58 25.36 48.91 29.25 48.10 31.94 C 47.70 34.50 44.89 33.96 43.01 34.03 C 33.05 33.84 23.07 34.27 13.13 33.82 C 11.37 31.94 10.94 29.13 10.20 26.73 C 9.48 25.22 11.12 24.42 12.00 23.55 C 11.33 18.22 15.10 13.43 20.19 12.19 M 24.10 11.99 C 26.37 12.65 30.73 15.29 27.05 17.35 C 24.39 16.77 21.42 15.07 18.86 16.89 C 16.29 18.26 15.91 21.32 16.00 23.94 C 21.60 24.18 27.23 23.73 32.82 24.17 C 35.04 25.44 32.83 29.76 36.04 30.04 C 38.81 29.69 37.41 26.21 38.64 24.58 C 40.19 23.55 42.20 24.11 43.96 23.90 C 43.88 22.01 44.09 19.87 42.75 18.33 C 41.37 16.25 38.64 16.36 36.60 15.37 C 35.66 12.94 35.45 9.73 32.65 8.62 C 29.35 6.84 25.67 8.95 24.10 11.99 Z" />
<path fill="#000000" opacity="1.00" d=" M 18.00 38.00 C 26.00 38.00 34.00 38.00 42.00 38.00 C 40.46 42.45 39.10 46.96 37.51 51.39 C 35.91 57.17 26.97 57.66 23.51 53.51 C 21.09 48.58 19.92 43.13 18.00 38.00 Z" />
</g>
</svg>
