<?xml version="1.0" encoding="UTF-8" ?>
<!DOCTYPE svg PUBLIC "-//W3C//DTD SVG 1.1//EN" "http://www.w3.org/Graphics/SVG/1.1/DTD/svg11.dtd">
<svg width="60pt" height="60pt" viewBox="0 0 60 60" version="1.1" xmlns="http://www.w3.org/2000/svg">
<g id="#ffffffff">
<path fill="#ffffff" opacity="1.00" d=" M 0.00 0.00 L 60.00 0.00 L 60.00 60.00 L 0.00 60.00 L 0.00 0.00 M 15.48 13.41 C 12.79 19.57 14.47 26.51 14.00 33.02 C 14.44 36.49 12.53 41.53 16.35 43.60 C 19.47 44.44 22.80 43.84 26.01 43.99 C 26.14 47.21 25.59 50.54 26.37 53.69 C 27.66 56.70 32.36 56.70 33.61 53.65 C 34.43 50.53 33.85 47.20 33.99 43.99 C 36.70 43.99 39.41 44.09 42.11 43.95 C 44.15 43.97 46.00 42.09 45.95 40.06 C 46.06 33.35 46.00 26.64 45.98 19.93 C 46.07 13.77 42.11 7.95 36.55 5.44 C 28.92 1.76 18.89 5.75 15.48 13.41 Z" />
<path fill="#ffffff" opacity="1.00" d=" M 18.11 18.89 C 18.46 12.46 24.83 7.27 31.19 8.10 C 37.12 8.50 42.04 13.98 41.96 19.90 C 42.08 26.60 41.96 33.30 42.00 40.00 C 34.00 40.00 26.00 40.00 18.00 40.00 C 18.08 32.96 17.84 25.92 18.11 18.89 Z" />
</g>
<g id="#000000ff">
<path fill="#000000" opacity="1.00" d=" M 15.48 13.41 C 18.89 5.75 28.92 1.76 36.55 5.44 C 42.11 7.95 46.07 13.77 45.98 19.93 C 46.00 26.64 46.06 33.35 45.95 40.06 C 46.00 42.09 44.15 43.97 42.11 43.95 C 39.41 44.09 36.70 43.99 33.99 43.99 C 33.85 47.20 34.43 50.53 33.61 53.65 C 32.36 56.70 27.66 56.70 26.37 53.69 C 25.59 50.54 26.14 47.21 26.01 43.99 C 22.80 43.84 19.47 44.44 16.35 43.60 C 12.53 41.53 14.44 36.49 14.00 33.02 C 14.47 26.51 12.79 19.57 15.48 13.41 M 18.11 18.89 C 17.84 25.92 18.08 32.96 18.00 40.00 C 26.00 40.00 34.00 40.00 42.00 40.00 C 41.96 33.30 42.08 26.60 41.96 19.90 C 42.04 13.98 37.12 8.50 31.19 8.10 C 24.83 7.27 18.46 12.46 18.11 18.89 Z" />
</g>
</svg>
