<?xml version="1.0" encoding="UTF-8" ?>
<!DOCTYPE svg PUBLIC "-//W3C//DTD SVG 1.1//EN" "http://www.w3.org/Graphics/SVG/1.1/DTD/svg11.dtd">
<svg width="60pt" height="60pt" viewBox="0 0 60 60" version="1.1" xmlns="http://www.w3.org/2000/svg">
<g id="#ffffffff">
<path fill="#ffffff" opacity="1.00" d=" M 0.00 0.00 L 60.00 0.00 L 60.00 60.00 L 0.00 60.00 L 0.00 0.00 M 46.07 7.00 C 40.04 13.43 34.72 20.52 28.99 27.22 C 27.70 26.57 25.91 25.37 24.61 26.63 C 21.68 29.79 20.23 34.08 17.06 37.07 C 14.06 40.23 9.78 41.69 6.61 44.62 C 5.02 46.38 6.92 48.59 8.25 49.82 C 14.09 55.58 24.62 55.24 29.99 49.00 C 34.41 44.34 35.01 37.10 32.25 31.45 C 39.12 25.62 46.33 20.15 52.93 14.02 C 56.70 9.85 50.31 3.32 46.07 7.00 Z" />
</g>
<g id="#000000ff">
<path fill="#968176" opacity="1.00" d=" M 46.07 7.00 C 50.31 3.32 56.70 9.85 52.93 14.02 C 46.33 20.15 39.12 25.62 32.25 31.45 C 35.01 37.10 34.41 44.34 29.99 49.00 C 24.62 55.24 14.09 55.58 8.25 49.82 C 6.92 48.59 5.02 46.38 6.61 44.62 C 9.78 41.69 14.06 40.23 17.06 37.07 C 20.23 34.08 21.68 29.79 24.61 26.63 C 25.91 25.37 27.70 26.57 28.99 27.22 C 34.72 20.52 40.04 13.43 46.07 7.00 Z" />
</g>
</svg>
