<?xml version="1.0" encoding="UTF-8" ?>
<!DOCTYPE svg PUBLIC "-//W3C//DTD SVG 1.1//EN" "http://www.w3.org/Graphics/SVG/1.1/DTD/svg11.dtd">
<svg width="60pt" height="60pt" viewBox="0 0 60 60" version="1.1" xmlns="http://www.w3.org/2000/svg">
<g id="#ffffffff">
<path fill="#ffffff" opacity="1.00" d=" M 0.00 0.00 L 60.00 0.00 L 60.00 60.00 L 0.00 60.00 L 0.00 0.00 M 14.07 18.89 C 13.90 25.62 14.04 32.36 14.00 39.09 C 13.74 41.15 14.94 43.30 17.00 43.85 C 19.99 44.17 23.01 43.96 26.01 43.99 C 26.14 47.22 25.59 50.55 26.38 53.70 C 27.66 56.69 32.35 56.70 33.60 53.67 C 34.44 50.54 33.84 47.20 33.99 43.99 C 36.98 43.96 39.99 44.17 42.97 43.86 C 45.05 43.34 46.25 41.15 46.00 39.09 C 45.96 32.38 46.10 25.66 45.93 18.96 C 45.63 10.11 36.66 2.58 27.88 4.27 C 20.65 5.20 14.41 11.53 14.07 18.89 Z" />
<path fill="#ffffff" opacity="1.00" d=" M 18.11 18.87 C 18.47 12.47 24.79 7.31 31.12 8.09 C 37.10 8.46 42.06 13.98 41.96 19.94 C 42.08 26.62 41.96 33.31 42.00 40.00 C 34.00 40.00 26.00 40.00 18.00 40.00 C 18.08 32.96 17.83 25.90 18.11 18.87 M 27.36 12.47 C 24.01 13.59 21.55 17.22 22.13 20.77 C 22.63 22.22 25.23 22.56 25.58 20.85 C 26.36 19.38 26.30 17.00 28.27 16.52 C 29.60 15.79 31.91 15.99 32.05 14.01 C 31.87 11.61 29.01 11.77 27.36 12.47 Z" />
</g>
<g id="#000000ff">
<path fill="#968176" opacity="1.00" d=" M 14.07 18.89 C 14.41 11.53 20.65 5.20 27.88 4.27 C 36.66 2.58 45.63 10.11 45.93 18.96 C 46.10 25.66 45.96 32.38 46.00 39.09 C 46.25 41.15 45.05 43.34 42.97 43.86 C 39.99 44.17 36.98 43.96 33.99 43.99 C 33.84 47.20 34.44 50.54 33.60 53.67 C 32.35 56.70 27.66 56.69 26.38 53.70 C 25.59 50.55 26.14 47.22 26.01 43.99 C 23.01 43.96 19.99 44.17 17.00 43.85 C 14.94 43.30 13.74 41.15 14.00 39.09 C 14.04 32.36 13.90 25.62 14.07 18.89 M 18.11 18.87 C 17.83 25.90 18.08 32.96 18.00 40.00 C 26.00 40.00 34.00 40.00 42.00 40.00 C 41.96 33.31 42.08 26.62 41.96 19.94 C 42.06 13.98 37.10 8.46 31.12 8.09 C 24.79 7.31 18.47 12.47 18.11 18.87 Z" />
<path fill="#968176" opacity="1.00" d=" M 27.36 12.47 C 29.01 11.77 31.87 11.61 32.05 14.01 C 31.91 15.99 29.60 15.79 28.27 16.52 C 26.30 17.00 26.36 19.38 25.58 20.85 C 25.23 22.56 22.63 22.22 22.13 20.77 C 21.55 17.22 24.01 13.59 27.36 12.47 Z" />
</g>
</svg>
