<?xml version="1.0" encoding="UTF-8" ?>
<!DOCTYPE svg PUBLIC "-//W3C//DTD SVG 1.1//EN" "http://www.w3.org/Graphics/SVG/1.1/DTD/svg11.dtd">
<svg width="60pt" height="60pt" viewBox="0 0 60 60" version="1.1" xmlns="http://www.w3.org/2000/svg">
<g id="#ffffffff">
<path fill="#ffffff" opacity="1.00" d=" M 0.00 0.00 L 60.00 0.00 L 60.00 60.00 L 0.00 60.00 L 0.00 0.00 M 20.20 12.20 C 15.08 13.42 11.32 18.25 12.00 23.59 C 11.09 24.39 9.46 25.25 10.19 26.74 C 11.01 29.12 11.34 32.07 13.20 33.84 C 23.12 34.24 33.07 33.85 43.00 34.03 C 44.87 33.94 47.74 34.54 48.10 31.94 C 48.88 29.26 51.63 25.32 47.99 23.58 C 48.66 18.26 44.91 13.42 39.80 12.20 C 38.62 7.80 34.85 3.90 30.06 4.02 C 25.22 3.84 21.37 7.75 20.20 12.20 M 18.00 38.00 C 19.92 43.13 21.10 48.57 23.50 53.50 C 26.94 57.64 35.86 57.19 37.49 51.44 C 39.08 46.99 40.46 42.47 42.00 38.00 C 34.00 38.00 26.00 38.00 18.00 38.00 Z" />
<path fill="#ffffff" opacity="1.00" d=" M 24.11 12.02 C 25.62 8.97 29.28 6.88 32.56 8.57 C 35.43 9.66 35.68 12.90 36.59 15.38 C 38.62 16.37 41.34 16.21 42.72 18.30 C 44.11 19.86 43.90 22.03 43.91 23.97 C 34.63 24.02 25.35 24.03 16.07 23.96 C 15.83 21.32 16.31 18.24 18.89 16.87 C 21.46 15.07 24.40 16.77 27.05 17.37 C 30.71 15.30 26.41 12.64 24.11 12.02 Z" />
</g>
<g id="#000000ff">
<path fill="#000000" opacity="1.00" d=" M 20.20 12.20 C 21.37 7.75 25.22 3.84 30.06 4.02 C 34.85 3.90 38.62 7.80 39.80 12.20 C 44.91 13.42 48.66 18.26 47.99 23.58 C 51.63 25.32 48.88 29.26 48.10 31.94 C 47.74 34.54 44.87 33.94 43.00 34.03 C 33.07 33.85 23.12 34.24 13.20 33.84 C 11.34 32.07 11.01 29.12 10.19 26.74 C 9.46 25.25 11.09 24.39 12.00 23.59 C 11.32 18.25 15.08 13.42 20.20 12.20 M 24.11 12.02 C 26.41 12.64 30.71 15.30 27.05 17.37 C 24.40 16.77 21.46 15.07 18.89 16.87 C 16.31 18.24 15.83 21.32 16.07 23.96 C 25.35 24.03 34.63 24.02 43.91 23.97 C 43.90 22.03 44.11 19.86 42.72 18.30 C 41.34 16.21 38.62 16.37 36.59 15.38 C 35.68 12.90 35.43 9.66 32.56 8.57 C 29.28 6.88 25.62 8.97 24.11 12.02 Z" />
<path fill="#000000" opacity="1.00" d=" M 18.00 38.00 C 26.00 38.00 34.00 38.00 42.00 38.00 C 40.46 42.47 39.08 46.99 37.49 51.44 C 35.86 57.19 26.94 57.64 23.50 53.50 C 21.10 48.57 19.92 43.13 18.00 38.00 Z" />
</g>
</svg>
