<?xml version="1.0" encoding="UTF-8" ?>
<!DOCTYPE svg PUBLIC "-//W3C//DTD SVG 1.1//EN" "http://www.w3.org/Graphics/SVG/1.1/DTD/svg11.dtd">
<svg width="60pt" height="60pt" viewBox="0 0 60 60" version="1.1" xmlns="http://www.w3.org/2000/svg">
<g id="#ffffffff">
<path fill="#ffffff" opacity="1.00" d=" M 0.00 0.00 L 60.00 0.00 L 60.00 60.00 L 0.00 60.00 L 0.00 0.00 M 17.31 10.40 C 12.72 15.89 14.24 23.41 14.00 29.97 C 14.20 33.85 13.52 37.86 14.39 41.66 C 16.76 45.67 22.23 43.45 26.01 43.99 C 26.14 47.22 25.59 50.56 26.38 53.72 C 27.69 56.71 32.38 56.68 33.62 53.64 C 34.41 50.51 33.86 47.20 33.99 43.99 C 37.20 43.85 40.55 44.44 43.67 43.59 C 47.46 41.49 45.56 36.47 46.00 32.99 C 45.50 25.04 47.98 15.56 41.75 9.23 C 35.52 1.82 22.92 2.73 17.31 10.40 Z" />
<path fill="#ffffff" opacity="1.00" d=" M 18.04 19.91 C 17.95 14.31 22.32 9.13 27.84 8.22 C 34.51 6.77 41.55 12.13 41.89 18.94 C 42.17 25.96 41.92 32.98 42.00 40.00 C 34.00 40.00 26.00 40.00 18.00 40.00 C 18.04 33.30 17.92 26.61 18.04 19.91 M 23.11 18.08 C 22.87 18.36 22.39 18.93 22.15 19.21 C 21.89 23.72 21.86 28.27 22.17 32.78 C 22.86 34.78 26.16 34.12 25.92 31.98 C 26.09 28.00 26.06 24.00 25.94 20.02 C 26.08 18.46 24.45 17.65 23.11 18.08 M 35.17 18.07 C 34.92 18.33 34.42 18.86 34.17 19.12 C 33.88 23.69 33.85 28.30 34.18 32.86 C 34.97 34.73 38.09 34.12 37.92 32.03 C 38.09 28.03 38.06 24.02 37.94 20.02 C 38.09 18.51 36.48 17.66 35.17 18.07 Z" />
</g>
<g id="#000000ff">
<path fill="#000000" opacity="1.00" d=" M 17.31 10.40 C 22.92 2.73 35.52 1.82 41.75 9.23 C 47.98 15.56 45.50 25.04 46.00 32.99 C 45.56 36.47 47.46 41.49 43.67 43.59 C 40.55 44.44 37.20 43.85 33.99 43.99 C 33.86 47.20 34.41 50.51 33.62 53.64 C 32.38 56.68 27.69 56.71 26.38 53.72 C 25.59 50.56 26.14 47.22 26.01 43.99 C 22.23 43.45 16.76 45.67 14.39 41.66 C 13.52 37.86 14.20 33.85 14.00 29.97 C 14.24 23.41 12.72 15.89 17.31 10.40 M 18.04 19.91 C 17.92 26.61 18.04 33.30 18.00 40.00 C 26.00 40.00 34.00 40.00 42.00 40.00 C 41.92 32.98 42.17 25.96 41.89 18.94 C 41.55 12.13 34.51 6.77 27.84 8.22 C 22.32 9.13 17.95 14.31 18.04 19.91 Z" />
<path fill="#000000" opacity="1.00" d=" M 23.11 18.08 C 24.45 17.65 26.08 18.46 25.94 20.02 C 26.06 24.00 26.09 28.00 25.92 31.98 C 26.16 34.12 22.86 34.78 22.17 32.78 C 21.86 28.27 21.89 23.72 22.15 19.21 C 22.39 18.93 22.87 18.36 23.11 18.08 Z" />
<path fill="#000000" opacity="1.00" d=" M 35.17 18.07 C 36.48 17.66 38.09 18.51 37.94 20.02 C 38.06 24.02 38.09 28.03 37.92 32.03 C 38.09 34.12 34.97 34.73 34.18 32.86 C 33.85 28.30 33.88 23.69 34.17 19.12 C 34.42 18.86 34.92 18.33 35.17 18.07 Z" />
</g>
</svg>
