<?xml version="1.0" encoding="UTF-8" ?>
<!DOCTYPE svg PUBLIC "-//W3C//DTD SVG 1.1//EN" "http://www.w3.org/Graphics/SVG/1.1/DTD/svg11.dtd">
<svg width="60pt" height="60pt" viewBox="0 0 60 60" version="1.1" xmlns="http://www.w3.org/2000/svg">
<g id="#ffffffff">
<path fill="#ffffff" opacity="1.00" d=" M 0.00 0.00 L 60.00 0.00 L 60.00 60.00 L 0.00 60.00 L 0.00 0.00 M 8.01 10.85 C 7.99 23.60 7.99 36.34 8.01 49.09 C 7.74 50.73 9.27 52.27 10.92 51.99 C 16.30 52.01 21.69 52.01 27.08 51.99 C 28.34 52.16 29.68 51.35 29.93 50.06 C 30.02 47.31 30.07 44.56 30.41 41.82 C 30.18 47.88 36.29 52.65 42.09 51.91 C 47.94 51.46 52.66 45.71 51.91 39.88 C 51.49 34.75 47.10 30.58 42.05 29.99 C 45.75 29.47 49.25 27.27 50.84 23.81 C 53.84 18.18 50.63 10.53 44.58 8.63 C 38.28 6.16 30.11 11.10 30.44 18.14 C 30.09 15.43 30.00 12.70 29.93 9.97 C 29.72 8.63 28.31 7.84 27.04 8.01 C 21.65 7.99 16.27 7.99 10.89 8.01 C 9.28 7.75 7.75 9.23 8.01 10.85 Z" />
<path fill="#ffffff" opacity="1.00" d=" M 30.41 40.15 C 29.80 33.40 29.75 26.57 30.44 19.83 C 30.17 25.21 34.97 29.47 40.05 30.00 C 34.96 30.53 30.20 34.78 30.41 40.15 Z" />
</g>
<g id="#000000ff">
<path fill="#000000" opacity="1.00" d=" M 8.01 10.85 C 7.75 9.23 9.28 7.75 10.89 8.01 C 16.27 7.99 21.65 7.99 27.04 8.01 C 28.31 7.84 29.72 8.63 29.93 9.97 C 30.00 12.70 30.09 15.43 30.44 18.14 C 30.11 11.10 38.28 6.16 44.58 8.63 C 50.63 10.53 53.84 18.18 50.84 23.81 C 49.25 27.27 45.75 29.47 42.05 29.99 C 47.10 30.58 51.49 34.75 51.91 39.88 C 52.66 45.71 47.94 51.46 42.09 51.91 C 36.29 52.65 30.18 47.88 30.41 41.82 C 30.07 44.56 30.02 47.31 29.93 50.06 C 29.68 51.35 28.34 52.16 27.08 51.99 C 21.69 52.01 16.30 52.01 10.92 51.99 C 9.27 52.27 7.74 50.73 8.01 49.09 C 7.99 36.34 7.99 23.60 8.01 10.85 M 30.41 40.15 C 30.20 34.78 34.96 30.53 40.05 30.00 C 34.97 29.47 30.17 25.21 30.44 19.83 C 29.75 26.57 29.80 33.40 30.41 40.15 Z" />
</g>
</svg>
