<?xml version="1.0" encoding="UTF-8" ?>
<!DOCTYPE svg PUBLIC "-//W3C//DTD SVG 1.1//EN" "http://www.w3.org/Graphics/SVG/1.1/DTD/svg11.dtd">
<svg width="64pt" height="64pt" viewBox="0 0 64 64" version="1.1" xmlns="http://www.w3.org/2000/svg">
<g id="#ffffffff">
<path fill="#ffffff" opacity="1.00" d=" M 0.00 0.00 L 64.00 0.00 L 64.00 64.00 L 0.00 64.00 L 0.00 0.00 M 12.00 9.98 C 12.00 11.49 12.01 12.99 12.02 14.50 C 14.13 15.48 15.94 17.38 15.92 19.84 C 16.26 27.58 15.70 35.35 16.16 43.08 C 16.69 47.69 23.17 49.67 26.24 46.20 C 28.99 43.64 27.36 39.56 28.42 36.39 C 29.47 35.28 31.24 35.66 31.85 37.00 C 32.54 42.16 31.20 47.53 32.59 52.58 C 34.59 57.31 42.20 56.90 43.65 51.96 C 44.66 44.86 43.38 37.58 44.28 30.46 C 45.38 27.01 49.38 27.26 52.01 28.67 C 52.01 27.10 52.00 25.53 51.99 23.97 C 38.65 19.34 25.33 14.65 12.00 9.98 Z" />
<path fill="#ffffff" opacity="1.00" d=" M 19.81 17.47 C 27.46 20.19 35.13 22.86 42.80 25.49 C 41.74 27.20 40.24 28.82 40.14 30.94 C 39.66 37.57 40.37 44.25 39.82 50.89 C 39.10 52.34 36.91 52.34 36.18 50.91 C 35.57 45.97 36.49 40.95 35.70 36.03 C 34.71 32.04 29.26 30.39 26.22 33.16 C 23.16 35.47 24.34 39.64 23.81 42.90 C 23.01 44.69 19.89 44.13 20.08 42.08 C 19.77 33.88 20.28 25.67 19.81 17.47 Z" />
</g>
<g id="#000000ff">
<path fill="#000000" opacity="1.00" d=" M 12.00 9.98 C 25.33 14.65 38.65 19.34 51.99 23.97 C 52.00 25.53 52.01 27.10 52.01 28.67 C 49.38 27.26 45.38 27.01 44.28 30.46 C 43.38 37.58 44.66 44.86 43.65 51.96 C 42.20 56.90 34.59 57.31 32.59 52.58 C 31.20 47.53 32.54 42.16 31.85 37.00 C 31.24 35.66 29.47 35.28 28.42 36.39 C 27.36 39.56 28.99 43.64 26.24 46.20 C 23.17 49.67 16.69 47.69 16.16 43.08 C 15.70 35.35 16.26 27.58 15.92 19.84 C 15.94 17.38 14.13 15.48 12.02 14.50 C 12.01 12.99 12.00 11.49 12.00 9.98 M 19.81 17.47 C 20.28 25.67 19.77 33.88 20.08 42.08 C 19.89 44.13 23.01 44.69 23.81 42.90 C 24.34 39.64 23.16 35.47 26.22 33.16 C 29.26 30.39 34.71 32.04 35.70 36.03 C 36.49 40.95 35.57 45.97 36.18 50.91 C 36.91 52.34 39.10 52.34 39.82 50.89 C 40.37 44.25 39.66 37.57 40.14 30.94 C 40.24 28.82 41.74 27.20 42.80 25.49 C 35.13 22.86 27.46 20.19 19.81 17.47 Z" />
</g>
</svg>
