<?xml version="1.0" encoding="UTF-8" ?>
<!DOCTYPE svg PUBLIC "-//W3C//DTD SVG 1.1//EN" "http://www.w3.org/Graphics/SVG/1.1/DTD/svg11.dtd">
<svg width="60pt" height="60pt" viewBox="0 0 60 60" version="1.1" xmlns="http://www.w3.org/2000/svg">
<g id="#ffffffff">
<path fill="#ffffff" opacity="1.00" d=" M 0.00 0.00 L 29.24 0.00 C 26.15 0.48 24.36 3.15 23.69 6.00 C 20.50 6.05 17.26 5.72 14.11 6.32 C 11.31 7.13 9.76 10.12 10.01 12.92 C 9.99 24.32 9.99 35.72 10.01 47.12 C 9.70 50.18 11.73 53.45 14.91 53.84 C 19.87 54.26 24.86 53.87 29.82 54.01 C 29.35 52.67 28.88 51.33 28.40 50.00 C 24.00 49.89 19.58 50.27 15.19 49.82 C 13.69 49.14 14.12 47.35 13.98 46.04 C 14.01 35.33 14.01 24.61 13.98 13.90 C 14.12 12.61 13.70 10.86 15.17 10.18 C 18.02 9.80 20.91 10.03 23.77 10.00 C 24.18 11.26 23.77 13.10 25.20 13.81 C 28.39 14.18 31.65 14.17 34.84 13.80 C 36.20 13.05 35.83 11.25 36.23 10.00 C 39.31 10.48 43.47 8.78 45.81 11.20 C 46.29 16.75 45.86 22.35 46.00 27.92 C 47.33 28.09 48.67 28.25 50.00 28.41 C 49.78 22.30 50.46 16.12 49.65 10.06 C 47.71 4.49 40.83 6.23 36.31 6.00 C 35.63 3.20 33.90 0.59 30.90 0.00 L 60.00 0.00 L 60.00 45.68 C 59.89 38.34 53.40 31.86 46.02 32.04 C 38.55 31.82 31.83 38.53 32.04 46.00 C 31.85 53.35 38.27 59.82 45.57 60.00 L 0.00 60.00 L 0.00 0.00 M 26.76 18.77 C 23.41 20.64 24.45 24.85 24.32 27.98 C 25.46 30.04 28.39 32.31 26.78 34.81 C 24.14 36.91 20.06 37.96 19.78 41.97 C 22.65 42.02 25.53 42.00 28.40 41.98 C 29.14 39.16 30.63 36.66 32.24 34.26 C 33.10 32.02 34.18 29.87 35.68 27.98 C 35.64 25.43 35.98 22.81 34.99 20.38 C 32.60 18.80 29.58 16.95 26.76 18.77 Z" />
<path fill="#ffffff" opacity="1.00" d=" M 29.18 4.10 C 31.60 3.15 33.14 6.77 30.84 7.89 C 28.40 8.90 26.84 5.19 29.18 4.10 Z" />
<path fill="#ffffff" opacity="1.00" d=" M 40.10 41.18 C 41.96 38.33 44.53 41.64 46.00 43.13 C 47.48 41.96 48.63 39.58 50.85 40.11 C 53.64 41.99 50.37 44.51 48.90 46.00 C 50.37 47.48 53.64 50.01 50.84 51.89 C 48.63 52.42 47.48 50.04 46.00 48.87 C 44.53 50.04 43.37 52.39 41.17 51.90 C 38.34 50.01 41.65 47.47 43.15 46.00 C 41.98 44.53 39.60 43.39 40.10 41.18 Z" />
<path fill="#ffffff" opacity="1.00" d=" M 46.31 60.00 C 53.56 59.89 59.83 53.65 60.00 46.41 L 60.00 60.00 L 46.31 60.00 Z" />
</g>
<g id="#000000ff">
<path fill="#000000" opacity="1.00" d=" M 29.24 0.00 L 30.90 0.00 C 33.90 0.59 35.63 3.20 36.31 6.00 C 40.83 6.23 47.71 4.49 49.65 10.06 C 50.46 16.12 49.78 22.30 50.00 28.41 C 48.67 28.25 47.33 28.09 46.00 27.92 C 45.86 22.35 46.29 16.75 45.81 11.20 C 43.47 8.78 39.31 10.48 36.23 10.00 C 35.83 11.25 36.20 13.05 34.84 13.80 C 31.65 14.17 28.39 14.18 25.20 13.81 C 23.77 13.10 24.18 11.26 23.77 10.00 C 20.91 10.03 18.02 9.80 15.17 10.18 C 13.70 10.86 14.12 12.61 13.98 13.90 C 14.01 24.61 14.01 35.33 13.98 46.04 C 14.12 47.35 13.69 49.14 15.19 49.82 C 19.58 50.27 24.00 49.89 28.40 50.00 C 28.88 51.33 29.35 52.67 29.82 54.01 C 24.86 53.87 19.87 54.26 14.91 53.84 C 11.73 53.45 9.70 50.18 10.01 47.12 C 9.99 35.72 9.99 24.32 10.01 12.92 C 9.76 10.12 11.31 7.13 14.11 6.32 C 17.26 5.72 20.50 6.05 23.69 6.00 C 24.36 3.15 26.15 0.48 29.24 0.00 M 29.18 4.10 C 26.84 5.19 28.40 8.90 30.84 7.89 C 33.14 6.77 31.60 3.15 29.18 4.10 Z" />
<path fill="#000000" opacity="1.00" d=" M 26.76 18.77 C 29.58 16.95 32.60 18.80 34.99 20.38 C 35.98 22.81 35.64 25.43 35.68 27.98 C 34.18 29.87 33.10 32.02 32.24 34.26 C 30.63 36.66 29.14 39.16 28.40 41.98 C 25.53 42.00 22.65 42.02 19.78 41.97 C 20.06 37.96 24.14 36.91 26.78 34.81 C 28.39 32.31 25.46 30.04 24.32 27.98 C 24.45 24.85 23.41 20.64 26.76 18.77 Z" />
<path fill="#000000" opacity="1.00" d=" M 32.04 46.00 C 31.83 38.53 38.55 31.82 46.02 32.04 C 53.40 31.86 59.89 38.34 60.00 45.68 L 60.00 46.41 C 59.83 53.65 53.56 59.89 46.31 60.00 L 45.57 60.00 C 38.27 59.82 31.85 53.35 32.04 46.00 M 40.10 41.18 C 39.60 43.39 41.98 44.53 43.15 46.00 C 41.65 47.47 38.34 50.01 41.17 51.90 C 43.37 52.39 44.53 50.04 46.00 48.87 C 47.48 50.04 48.63 52.42 50.84 51.89 C 53.64 50.01 50.37 47.48 48.90 46.00 C 50.37 44.51 53.64 41.99 50.85 40.11 C 48.63 39.58 47.48 41.96 46.00 43.13 C 44.53 41.64 41.96 38.33 40.10 41.18 Z" />
</g>
</svg>
