<?xml version="1.0" encoding="UTF-8" ?>
<!DOCTYPE svg PUBLIC "-//W3C//DTD SVG 1.1//EN" "http://www.w3.org/Graphics/SVG/1.1/DTD/svg11.dtd">
<svg width="60pt" height="60pt" viewBox="0 0 60 60" version="1.1" xmlns="http://www.w3.org/2000/svg">
<g id="#ffffffff">
<path fill="#ffffff" opacity="1.00" d=" M 0.00 0.00 L 29.18 0.00 C 26.13 0.53 24.34 3.16 23.70 6.00 C 20.49 6.05 17.23 5.71 14.07 6.34 C 11.27 7.18 9.74 10.17 10.00 12.98 C 9.99 24.33 9.99 35.68 10.00 47.03 C 9.67 50.12 11.70 53.46 14.93 53.84 C 19.88 54.25 24.86 53.88 29.82 54.00 C 29.35 52.67 28.88 51.34 28.42 50.01 C 23.99 49.89 19.54 50.26 15.13 49.81 C 13.46 48.82 14.19 46.64 13.97 45.05 C 14.17 33.74 13.71 22.41 14.19 11.12 C 16.63 8.84 20.69 10.45 23.78 10.00 C 24.15 11.26 23.81 13.01 25.12 13.80 C 28.34 14.17 31.62 14.17 34.83 13.81 C 36.20 13.07 35.84 11.26 36.22 10.00 C 38.82 9.99 41.42 9.89 44.02 10.08 C 45.62 9.89 46.13 11.74 45.99 12.98 C 46.08 17.96 45.95 22.95 46.00 27.93 C 47.33 28.09 48.67 28.25 50.00 28.41 C 49.92 22.91 50.14 17.40 49.94 11.90 C 49.99 9.16 47.86 6.53 45.13 6.17 C 42.20 5.83 39.24 6.01 36.30 6.00 C 35.64 3.18 33.88 0.58 30.87 0.00 L 60.00 0.00 L 60.00 45.50 C 59.80 37.84 52.62 31.28 44.95 32.08 C 37.48 32.43 31.27 39.66 32.09 47.12 C 32.47 53.99 38.57 59.70 45.39 60.00 L 0.00 60.00 L 0.00 0.00 M 25.68 19.62 C 23.50 21.88 24.55 25.18 24.32 27.96 C 25.41 30.05 28.34 32.19 26.83 34.75 C 24.22 36.90 20.06 37.92 19.78 41.96 C 22.67 42.03 25.56 42.01 28.45 41.95 C 29.12 39.12 30.63 36.67 32.22 34.30 C 33.08 32.03 34.19 29.89 35.67 27.96 C 35.36 25.27 36.70 21.66 34.00 19.83 C 31.73 17.78 27.92 17.25 25.68 19.62 Z" />
<path fill="#ffffff" opacity="1.00" d=" M 29.14 4.10 C 31.58 3.10 33.13 6.74 30.86 7.89 C 28.42 8.88 26.86 5.26 29.14 4.10 Z" />
<path fill="#ffffff" opacity="1.00" d=" M 51.18 40.17 C 53.17 39.21 54.99 41.98 53.36 43.40 C 50.56 46.28 47.80 49.23 44.77 51.86 C 42.41 52.36 41.17 49.70 39.58 48.44 C 38.20 47.47 37.18 45.12 39.16 44.16 C 41.34 43.49 42.55 46.03 44.02 47.15 C 46.44 44.85 48.61 42.30 51.18 40.17 Z" />
<path fill="#ffffff" opacity="1.00" d=" M 46.55 60.00 C 53.64 59.74 59.71 53.70 60.00 46.61 L 60.00 60.00 L 46.55 60.00 Z" />
</g>
<g id="#000000ff">
<path fill="#000000" opacity="1.00" d=" M 29.18 0.00 L 30.87 0.00 C 33.88 0.58 35.64 3.18 36.30 6.00 C 39.24 6.01 42.20 5.83 45.13 6.17 C 47.86 6.53 49.99 9.16 49.94 11.90 C 50.14 17.40 49.92 22.91 50.00 28.41 C 48.67 28.25 47.33 28.09 46.00 27.93 C 45.95 22.95 46.08 17.96 45.99 12.98 C 46.13 11.74 45.62 9.89 44.02 10.08 C 41.42 9.89 38.82 9.99 36.22 10.00 C 35.84 11.26 36.20 13.07 34.83 13.81 C 31.62 14.17 28.34 14.17 25.12 13.80 C 23.81 13.01 24.15 11.26 23.78 10.00 C 20.69 10.45 16.63 8.84 14.19 11.12 C 13.71 22.41 14.17 33.74 13.97 45.05 C 14.19 46.64 13.46 48.82 15.13 49.81 C 19.54 50.26 23.99 49.89 28.42 50.01 C 28.88 51.34 29.35 52.67 29.82 54.00 C 24.86 53.88 19.88 54.25 14.93 53.84 C 11.70 53.46 9.67 50.12 10.00 47.03 C 9.99 35.68 9.99 24.33 10.00 12.98 C 9.74 10.17 11.27 7.18 14.07 6.34 C 17.23 5.71 20.49 6.05 23.70 6.00 C 24.34 3.16 26.13 0.53 29.18 0.00 M 29.14 4.10 C 26.86 5.26 28.42 8.88 30.86 7.89 C 33.13 6.74 31.58 3.10 29.14 4.10 Z" />
<path fill="#000000" opacity="1.00" d=" M 25.68 19.62 C 27.92 17.25 31.73 17.78 34.00 19.83 C 36.70 21.66 35.36 25.27 35.67 27.96 C 34.19 29.89 33.08 32.03 32.22 34.30 C 30.63 36.67 29.12 39.12 28.45 41.95 C 25.56 42.01 22.67 42.03 19.78 41.96 C 20.06 37.92 24.22 36.90 26.83 34.75 C 28.34 32.19 25.41 30.05 24.32 27.96 C 24.55 25.18 23.50 21.88 25.68 19.62 Z" />
<path fill="#000000" opacity="1.00" d=" M 32.09 47.12 C 31.27 39.66 37.48 32.43 44.95 32.08 C 52.62 31.28 59.80 37.84 60.00 45.50 L 60.00 46.61 C 59.71 53.70 53.64 59.74 46.55 60.00 L 45.39 60.00 C 38.57 59.70 32.47 53.99 32.09 47.12 M 51.18 40.17 C 48.61 42.30 46.44 44.85 44.02 47.15 C 42.55 46.03 41.34 43.49 39.16 44.16 C 37.18 45.12 38.20 47.47 39.58 48.44 C 41.17 49.70 42.41 52.36 44.77 51.86 C 47.80 49.23 50.56 46.28 53.36 43.40 C 54.99 41.98 53.17 39.21 51.18 40.17 Z" />
</g>
</svg>
