<?xml version="1.0" encoding="UTF-8" ?>
<!DOCTYPE svg PUBLIC "-//W3C//DTD SVG 1.1//EN" "http://www.w3.org/Graphics/SVG/1.1/DTD/svg11.dtd">
<svg width="60pt" height="60pt" viewBox="0 0 60 60" version="1.1" xmlns="http://www.w3.org/2000/svg">
<g id="#ffffffff">
<path fill="#ffffff" opacity="1.00" d=" M 0.00 0.00 L 60.00 0.00 L 60.00 60.00 L 0.00 60.00 L 0.00 0.00 M 25.13 6.10 C 22.86 7.31 24.46 10.89 26.90 9.88 C 29.11 8.64 27.54 5.16 25.13 6.10 M 30.10 12.94 C 29.30 17.27 33.50 20.04 34.31 24.00 C 36.77 24.00 39.23 24.00 41.69 24.00 C 42.36 21.52 43.88 19.45 45.18 17.28 C 47.52 13.03 44.57 7.22 39.90 6.24 C 35.48 4.99 30.51 8.37 30.10 12.94 M 49.19 6.10 C 46.79 7.09 48.47 11.01 50.80 9.80 C 53.20 8.87 51.54 5.09 49.19 6.10 M 23.10 14.12 C 20.91 15.30 22.42 18.86 24.81 17.89 C 27.18 16.76 25.54 13.10 23.10 14.12 M 51.29 14.19 C 48.71 14.85 50.48 19.05 52.71 17.81 C 55.27 17.11 53.53 12.96 51.29 14.19 M 25.15 22.09 C 22.89 23.26 24.41 26.84 26.80 25.90 C 29.16 24.77 27.57 21.13 25.15 22.09 M 49.20 22.11 C 46.85 23.05 48.37 26.87 50.69 25.85 C 53.24 25.03 51.62 21.11 49.20 22.11 M 33.61 26.08 C 34.49 27.86 35.61 30.15 37.98 30.00 C 40.32 30.11 41.39 27.83 42.36 26.11 C 39.44 25.97 36.52 25.97 33.61 26.08 M 4.00 34.03 C 4.00 39.35 4.00 44.68 4.00 50.01 C 7.36 48.70 10.52 46.79 14.05 45.97 C 21.26 48.04 27.90 51.79 35.05 54.03 C 41.98 50.95 48.58 46.97 55.08 43.07 C 57.32 41.30 55.09 37.22 52.39 38.16 C 46.86 39.89 41.81 42.99 36.14 44.31 C 37.34 42.85 39.06 40.44 37.03 38.86 C 33.38 36.66 29.26 35.35 25.41 33.53 C 22.28 32.30 19.32 30.41 15.93 29.99 C 11.79 30.76 8.00 32.77 4.00 34.03 Z" />
</g>
<g id="#000000ff">
<path fill="#000000" opacity="1.00" d=" M 25.13 6.10 C 27.54 5.16 29.11 8.64 26.90 9.88 C 24.46 10.89 22.86 7.31 25.13 6.10 Z" />
<path fill="#000000" opacity="1.00" d=" M 30.10 12.94 C 30.51 8.37 35.48 4.99 39.90 6.24 C 44.57 7.22 47.52 13.03 45.18 17.28 C 43.88 19.45 42.36 21.52 41.69 24.00 C 39.23 24.00 36.77 24.00 34.31 24.00 C 33.50 20.04 29.30 17.27 30.10 12.94 Z" />
<path fill="#000000" opacity="1.00" d=" M 49.19 6.10 C 51.54 5.09 53.20 8.87 50.80 9.80 C 48.47 11.01 46.79 7.09 49.19 6.10 Z" />
<path fill="#000000" opacity="1.00" d=" M 23.10 14.12 C 25.54 13.10 27.18 16.76 24.81 17.89 C 22.42 18.86 20.91 15.30 23.10 14.12 Z" />
<path fill="#000000" opacity="1.00" d=" M 51.29 14.19 C 53.53 12.96 55.27 17.11 52.71 17.81 C 50.48 19.05 48.71 14.85 51.29 14.19 Z" />
<path fill="#000000" opacity="1.00" d=" M 25.15 22.09 C 27.57 21.13 29.16 24.77 26.80 25.90 C 24.41 26.84 22.89 23.26 25.15 22.09 Z" />
<path fill="#000000" opacity="1.00" d=" M 49.20 22.11 C 51.62 21.11 53.24 25.03 50.69 25.85 C 48.37 26.87 46.85 23.05 49.20 22.11 Z" />
<path fill="#000000" opacity="1.00" d=" M 33.61 26.08 C 36.52 25.97 39.44 25.97 42.36 26.11 C 41.39 27.83 40.32 30.11 37.98 30.00 C 35.61 30.15 34.49 27.86 33.61 26.08 Z" />
<path fill="#000000" opacity="1.00" d=" M 4.00 34.03 C 8.00 32.77 11.79 30.76 15.93 29.99 C 19.32 30.41 22.28 32.30 25.41 33.53 C 29.26 35.35 33.38 36.66 37.03 38.86 C 39.06 40.44 37.34 42.85 36.14 44.31 C 41.81 42.99 46.86 39.89 52.39 38.16 C 55.09 37.22 57.32 41.30 55.08 43.07 C 48.58 46.97 41.98 50.95 35.05 54.03 C 27.90 51.79 21.26 48.04 14.05 45.97 C 10.52 46.79 7.36 48.70 4.00 50.01 C 4.00 44.68 4.00 39.35 4.00 34.03 Z" />
</g>
</svg>
