<?xml version="1.0" encoding="UTF-8" ?>
<!DOCTYPE svg PUBLIC "-//W3C//DTD SVG 1.1//EN" "http://www.w3.org/Graphics/SVG/1.1/DTD/svg11.dtd">
<svg width="64pt" height="64pt" viewBox="0 0 64 64" version="1.1" xmlns="http://www.w3.org/2000/svg">
<g id="#ffffffff">
<path fill="#ffffff" opacity="1.00" d=" M 0.00 0.00 L 64.00 0.00 L 64.00 64.00 L 0.00 64.00 L 0.00 0.00 M 44.03 8.00 C 44.05 9.36 44.02 10.73 43.93 12.09 C 41.75 13.72 39.34 15.99 40.10 19.03 C 40.73 23.97 47.94 25.79 50.85 21.79 C 53.31 18.55 51.60 13.82 48.02 12.26 C 48.01 10.84 48.00 9.42 47.99 8.00 C 46.67 8.00 45.35 8.00 44.03 8.00 M 9.60 29.42 C 6.30 37.64 8.29 47.38 14.05 54.01 C 26.02 54.00 37.98 53.99 49.95 54.02 C 55.75 47.35 57.57 37.69 54.49 29.39 C 53.38 30.29 52.28 31.20 51.18 32.10 C 52.91 38.21 51.68 44.92 47.91 50.02 C 37.30 49.99 26.69 49.99 16.09 50.02 C 11.83 44.27 10.70 36.27 13.78 29.73 C 16.60 23.23 23.10 18.82 30.07 18.00 C 30.48 16.65 30.87 15.29 31.26 13.94 C 21.82 14.30 12.87 20.50 9.60 29.42 M 34.17 16.17 C 33.65 17.79 34.20 18.34 35.82 17.82 C 36.34 16.20 35.79 15.65 34.17 16.17 M 56.19 16.15 C 55.64 17.77 56.18 18.33 57.81 17.84 C 58.36 16.23 57.81 15.66 56.19 16.15 M 22.63 22.64 C 20.58 24.40 23.78 27.57 25.50 25.44 C 27.24 23.70 24.35 20.89 22.63 22.64 M 36.18 22.16 C 35.64 23.78 36.19 24.34 37.82 23.83 C 38.35 22.21 37.80 21.66 36.18 22.16 M 54.16 22.18 C 53.66 23.80 54.21 24.35 55.83 23.82 C 56.33 22.19 55.78 21.64 54.16 22.18 M 16.67 28.67 C 14.85 30.36 17.76 33.24 19.48 31.50 C 21.55 29.72 18.33 26.55 16.67 28.67 M 27.15 35.99 C 22.77 36.05 18.38 35.97 14.00 36.00 C 14.00 37.33 14.00 38.67 14.00 40.00 C 18.79 40.02 23.58 39.94 28.37 40.05 C 29.92 41.96 32.96 42.84 34.80 40.80 C 37.39 38.56 35.41 33.84 32.04 34.01 C 30.09 33.80 29.06 36.19 27.15 35.99 M 47.27 36.14 C 44.77 37.06 46.44 40.95 48.86 39.89 C 51.12 38.85 49.60 35.13 47.27 36.14 M 16.69 44.65 C 14.85 46.30 17.71 49.28 19.42 47.49 C 21.61 45.81 18.36 42.55 16.69 44.65 M 45.20 44.04 C 42.59 44.96 44.42 49.19 46.78 47.74 C 49.02 46.80 47.44 43.26 45.20 44.04 Z" />
<path fill="#ffffff" opacity="1.00" d=" M 45.25 16.18 C 47.54 15.01 49.20 18.96 46.78 19.87 C 44.42 20.92 42.78 17.00 45.25 16.18 Z" />
</g>
<g id="#000000ff">
<path fill="#000000" opacity="1.00" d=" M 44.03 8.00 C 45.35 8.00 46.67 8.00 47.99 8.00 C 48.00 9.42 48.01 10.84 48.02 12.26 C 51.60 13.82 53.31 18.55 50.85 21.79 C 47.94 25.79 40.73 23.97 40.10 19.03 C 39.34 15.99 41.75 13.72 43.93 12.09 C 44.02 10.73 44.05 9.36 44.03 8.00 M 45.25 16.18 C 42.78 17.00 44.42 20.92 46.78 19.87 C 49.20 18.96 47.54 15.01 45.25 16.18 Z" />
<path fill="#000000" opacity="1.00" d=" M 9.60 29.42 C 12.87 20.50 21.82 14.30 31.26 13.94 C 30.87 15.29 30.48 16.65 30.07 18.00 C 23.10 18.82 16.60 23.23 13.78 29.73 C 10.70 36.27 11.83 44.27 16.09 50.02 C 26.69 49.99 37.30 49.99 47.91 50.02 C 51.68 44.92 52.91 38.21 51.18 32.10 C 52.28 31.20 53.38 30.29 54.49 29.39 C 57.57 37.69 55.75 47.35 49.95 54.02 C 37.98 53.99 26.02 54.00 14.05 54.01 C 8.29 47.38 6.30 37.64 9.60 29.42 Z" />
<path fill="#000000" opacity="1.00" d=" M 34.17 16.17 C 35.79 15.65 36.34 16.20 35.82 17.82 C 34.20 18.34 33.65 17.79 34.17 16.17 Z" />
<path fill="#000000" opacity="1.00" d=" M 56.19 16.15 C 57.81 15.66 58.36 16.23 57.81 17.84 C 56.18 18.33 55.64 17.77 56.19 16.15 Z" />
<path fill="#000000" opacity="1.00" d=" M 22.63 22.64 C 24.35 20.89 27.24 23.70 25.50 25.44 C 23.78 27.57 20.58 24.40 22.63 22.64 Z" />
<path fill="#000000" opacity="1.00" d=" M 36.18 22.16 C 37.80 21.66 38.35 22.21 37.82 23.83 C 36.19 24.34 35.64 23.78 36.18 22.16 Z" />
<path fill="#000000" opacity="1.00" d=" M 54.16 22.18 C 55.78 21.64 56.33 22.19 55.83 23.82 C 54.21 24.35 53.66 23.80 54.16 22.18 Z" />
<path fill="#000000" opacity="1.00" d=" M 16.67 28.67 C 18.33 26.55 21.55 29.72 19.48 31.50 C 17.76 33.24 14.85 30.36 16.67 28.67 Z" />
<path fill="#000000" opacity="1.00" d=" M 27.15 35.99 C 29.06 36.19 30.09 33.80 32.04 34.01 C 35.41 33.84 37.39 38.56 34.80 40.80 C 32.96 42.84 29.92 41.96 28.37 40.05 C 23.58 39.94 18.79 40.02 14.00 40.00 C 14.00 38.67 14.00 37.33 14.00 36.00 C 18.38 35.97 22.77 36.05 27.15 35.99 Z" />
<path fill="#000000" opacity="1.00" d=" M 47.27 36.14 C 49.60 35.13 51.12 38.85 48.86 39.89 C 46.44 40.95 44.77 37.06 47.27 36.14 Z" />
<path fill="#000000" opacity="1.00" d=" M 16.69 44.65 C 18.36 42.55 21.61 45.81 19.42 47.49 C 17.71 49.28 14.85 46.30 16.69 44.65 Z" />
<path fill="#000000" opacity="1.00" d=" M 45.20 44.04 C 47.44 43.26 49.02 46.80 46.78 47.74 C 44.42 49.19 42.59 44.96 45.20 44.04 Z" />
</g>
</svg>
