<?xml version="1.0" encoding="UTF-8" ?>
<!DOCTYPE svg PUBLIC "-//W3C//DTD SVG 1.1//EN" "http://www.w3.org/Graphics/SVG/1.1/DTD/svg11.dtd">
<svg width="60pt" height="60pt" viewBox="0 0 60 60" version="1.1" xmlns="http://www.w3.org/2000/svg">
<g id="#ffffffff">
<path fill="#ffffff" opacity="1.00" d=" M 0.00 0.00 L 60.00 0.00 L 60.00 60.00 L 0.00 60.00 L 0.00 0.00 M 12.35 4.38 C 10.61 5.15 9.81 7.11 10.00 8.92 C 10.03 23.31 9.94 37.70 10.04 52.08 C 9.93 54.61 12.57 56.33 14.90 56.00 C 25.28 55.97 35.65 56.06 46.03 55.96 C 48.54 56.04 50.35 53.47 50.00 51.10 C 49.87 40.14 50.26 29.14 49.81 18.19 C 45.37 13.33 40.64 8.67 35.81 4.19 C 30.23 3.72 24.60 4.15 19.00 3.99 C 16.80 4.10 14.48 3.68 12.35 4.38 Z" />
<path fill="#ffffff" opacity="1.00" d=" M 34.01 7.81 C 38.07 11.87 42.13 15.93 46.18 19.99 C 42.51 19.92 38.83 20.21 35.17 19.84 C 34.92 19.59 34.42 19.10 34.16 18.85 C 33.78 15.18 34.08 11.49 34.01 7.81 Z" />
<path fill="#ffffff" opacity="1.00" d=" M 18.37 20.37 C 21.48 18.66 25.32 22.56 23.61 25.64 C 22.67 27.83 19.60 28.79 17.69 27.22 C 15.13 25.65 15.64 21.47 18.37 20.37 Z" />
<path fill="#ffffff" opacity="1.00" d=" M 16.00 42.02 C 18.72 39.75 20.91 35.34 25.04 36.12 C 28.50 37.31 30.24 40.98 33.26 42.88 C 34.86 43.33 36.55 41.71 35.94 40.09 C 35.14 38.85 34.03 37.84 33.06 36.73 C 37.86 34.18 41.05 39.13 44.00 42.02 C 44.00 44.01 44.00 46.01 44.00 48.00 C 34.67 48.00 25.33 48.00 16.00 48.00 C 16.00 46.01 16.00 44.01 16.00 42.02 Z" />
</g>
<g id="#000000ff">
<path fill="#000000" opacity="1.00" d=" M 12.35 4.38 C 14.48 3.68 16.80 4.10 19.00 3.99 C 24.60 4.15 30.23 3.72 35.81 4.19 C 40.64 8.67 45.37 13.33 49.81 18.19 C 50.26 29.14 49.87 40.14 50.00 51.10 C 50.35 53.47 48.54 56.04 46.03 55.96 C 35.65 56.06 25.28 55.97 14.90 56.00 C 12.57 56.33 9.93 54.61 10.04 52.08 C 9.94 37.70 10.03 23.31 10.00 8.92 C 9.81 7.11 10.61 5.15 12.35 4.38 M 34.01 7.81 C 34.08 11.49 33.78 15.18 34.16 18.85 C 34.42 19.10 34.92 19.59 35.17 19.84 C 38.83 20.21 42.51 19.92 46.18 19.99 C 42.13 15.93 38.07 11.87 34.01 7.81 M 18.37 20.37 C 15.64 21.47 15.13 25.65 17.69 27.22 C 19.60 28.79 22.67 27.83 23.61 25.64 C 25.32 22.56 21.48 18.66 18.37 20.37 M 16.00 42.02 C 16.00 44.01 16.00 46.01 16.00 48.00 C 25.33 48.00 34.67 48.00 44.00 48.00 C 44.00 46.01 44.00 44.01 44.00 42.02 C 41.05 39.13 37.86 34.18 33.06 36.73 C 34.03 37.84 35.14 38.85 35.94 40.09 C 36.55 41.71 34.86 43.33 33.26 42.88 C 30.24 40.98 28.50 37.31 25.04 36.12 C 20.91 35.34 18.72 39.75 16.00 42.02 Z" />
</g>
</svg>
