<?xml version="1.0" encoding="UTF-8" ?>
<!DOCTYPE svg PUBLIC "-//W3C//DTD SVG 1.1//EN" "http://www.w3.org/Graphics/SVG/1.1/DTD/svg11.dtd">
<svg width="64pt" height="64pt" viewBox="0 0 64 64" version="1.1" xmlns="http://www.w3.org/2000/svg">
<g id="#ffffffff">
<path fill="#ffffff" opacity="1.00" d=" M 0.00 0.00 L 64.00 0.00 L 64.00 64.00 L 0.00 64.00 L 0.00 0.00 M 4.12 31.76 C 4.61 37.26 9.49 41.79 15.00 41.92 C 20.68 42.03 26.77 42.44 32.00 39.79 C 37.49 42.52 43.88 42.08 49.82 41.84 C 56.93 41.45 62.60 32.53 58.68 26.28 C 55.37 21.77 48.04 24.62 47.77 29.97 C 49.06 29.98 50.35 29.99 51.65 29.98 C 52.30 28.18 54.82 27.09 55.88 29.18 C 56.23 31.23 55.48 33.22 54.43 34.94 C 47.84 34.23 43.19 29.14 37.52 26.35 C 35.62 25.41 33.68 26.60 31.99 27.40 C 30.32 26.61 28.43 25.43 26.54 26.33 C 20.76 29.01 16.10 34.73 9.29 34.74 C 8.19 32.69 6.71 27.63 10.52 28.13 C 11.92 30.00 14.04 30.27 16.23 30.02 C 15.71 26.93 13.41 23.89 10.01 24.00 C 6.06 23.89 3.17 28.04 4.12 31.76 Z" />
<path fill="#ffffff" opacity="1.00" d=" M 14.66 38.02 C 19.87 35.97 23.89 31.85 29.04 29.75 C 29.32 30.31 29.88 31.44 30.16 32.01 C 31.39 32.01 32.61 32.01 33.83 32.01 C 34.11 31.44 34.67 30.31 34.95 29.75 C 40.12 31.85 44.18 35.94 49.38 38.01 C 44.37 37.88 39.11 38.50 34.39 36.48 C 31.86 35.15 29.29 36.72 26.85 37.40 C 22.84 38.22 18.72 37.94 14.66 38.02 Z" />
</g>
<g id="#000000ff">
<path fill="#000000" opacity="1.00" d=" M 4.12 31.76 C 3.17 28.04 6.06 23.89 10.01 24.00 C 13.41 23.89 15.71 26.93 16.23 30.02 C 14.04 30.27 11.92 30.00 10.52 28.13 C 6.71 27.63 8.19 32.69 9.29 34.74 C 16.10 34.73 20.76 29.01 26.54 26.33 C 28.43 25.43 30.32 26.61 31.99 27.40 C 33.68 26.60 35.62 25.41 37.52 26.35 C 43.19 29.14 47.84 34.23 54.43 34.94 C 55.48 33.22 56.23 31.23 55.88 29.18 C 54.82 27.09 52.30 28.18 51.65 29.98 C 50.35 29.99 49.06 29.98 47.77 29.97 C 48.04 24.62 55.37 21.77 58.68 26.28 C 62.60 32.53 56.93 41.45 49.82 41.84 C 43.88 42.08 37.49 42.52 32.00 39.79 C 26.77 42.44 20.68 42.03 15.00 41.92 C 9.49 41.79 4.61 37.26 4.12 31.76 M 14.66 38.02 C 18.72 37.94 22.84 38.22 26.85 37.40 C 29.29 36.72 31.86 35.15 34.39 36.48 C 39.11 38.50 44.37 37.88 49.38 38.01 C 44.18 35.94 40.12 31.85 34.95 29.75 C 34.67 30.31 34.11 31.44 33.83 32.01 C 32.61 32.01 31.39 32.01 30.16 32.01 C 29.88 31.44 29.32 30.31 29.04 29.75 C 23.89 31.85 19.87 35.97 14.66 38.02 Z" />
</g>
</svg>
