<?xml version="1.0" encoding="UTF-8" ?>
<!DOCTYPE svg PUBLIC "-//W3C//DTD SVG 1.1//EN" "http://www.w3.org/Graphics/SVG/1.1/DTD/svg11.dtd">
<svg width="60pt" height="60pt" viewBox="0 0 60 60" version="1.1" xmlns="http://www.w3.org/2000/svg">
<g id="#ffffffff">
<path fill="#ffffff" opacity="1.00" d=" M 0.00 0.00 L 60.00 0.00 L 60.00 45.51 C 59.71 41.56 57.98 37.66 54.82 35.18 C 50.47 31.52 43.82 31.01 38.96 33.95 C 33.77 36.86 30.98 43.30 32.38 49.08 C 33.63 55.14 39.30 59.70 45.43 60.00 L 0.00 60.00 L 0.00 0.00 M 4.00 12.97 C 3.99 25.98 4.01 38.99 4.00 52.00 C 12.31 52.00 20.63 51.98 28.95 52.01 C 28.74 50.66 28.41 49.32 28.03 48.01 C 21.35 47.99 14.68 48.00 8.00 48.00 C 8.00 38.67 8.00 29.33 8.00 20.00 C 22.67 20.00 37.33 20.00 52.00 20.00 C 51.99 22.99 52.00 25.98 52.02 28.97 C 53.33 29.67 54.67 30.31 56.02 30.92 C 55.92 24.58 56.12 18.24 55.94 11.91 C 56.02 9.38 53.43 7.61 51.05 8.00 C 36.65 8.04 22.24 7.92 7.83 8.06 C 5.35 8.01 3.63 10.65 4.00 12.97 M 15.12 26.11 C 12.90 27.24 14.41 30.87 16.79 29.86 C 19.20 28.84 17.55 25.07 15.12 26.11 M 22.12 27.13 C 21.81 28.29 22.14 29.18 23.10 29.82 C 27.03 30.25 30.99 29.86 34.94 30.04 C 38.21 30.25 41.11 28.48 44.26 27.94 C 43.90 27.49 43.19 26.60 42.83 26.16 C 37.57 25.75 32.28 26.15 27.01 25.97 C 25.37 26.18 23.16 25.46 22.12 27.13 M 15.19 34.09 C 12.82 35.20 14.46 38.93 16.89 37.86 C 19.09 36.71 17.59 33.18 15.19 34.09 M 22.10 35.17 C 21.50 39.43 27.27 37.70 29.82 37.97 C 30.73 36.64 31.65 35.31 32.53 33.97 C 29.17 34.60 24.77 32.70 22.10 35.17 Z" />
<path fill="#ffffff" opacity="1.00" d=" M 44.00 37.99 C 45.33 38.02 46.67 38.02 48.00 37.99 C 47.89 41.99 47.78 46.00 47.68 50.00 C 46.56 49.98 45.44 49.98 44.33 50.00 C 44.22 46.00 44.11 42.00 44.00 37.99 Z" />
<path fill="#ffffff" opacity="1.00" d=" M 46.55 60.00 C 53.64 59.74 59.71 53.69 60.00 46.60 L 60.00 60.00 L 46.55 60.00 Z" />
<path fill="#ffffff" opacity="1.00" d=" M 45.15 52.10 C 47.59 51.12 49.14 54.80 46.81 55.89 C 44.38 56.85 42.89 53.23 45.15 52.10 Z" />
</g>
<g id="#000000ff">
<path fill="#000000" opacity="1.00" d=" M 4.00 12.97 C 3.63 10.65 5.35 8.01 7.83 8.06 C 22.24 7.92 36.65 8.04 51.05 8.00 C 53.43 7.61 56.02 9.38 55.94 11.91 C 56.12 18.24 55.92 24.58 56.02 30.92 C 54.67 30.31 53.33 29.67 52.02 28.97 C 52.00 25.98 51.99 22.99 52.00 20.00 C 37.33 20.00 22.67 20.00 8.00 20.00 C 8.00 29.33 8.00 38.67 8.00 48.00 C 14.68 48.00 21.35 47.99 28.03 48.01 C 28.41 49.32 28.74 50.66 28.95 52.01 C 20.63 51.98 12.31 52.00 4.00 52.00 C 4.01 38.99 3.99 25.98 4.00 12.97 Z" />
<path fill="#000000" opacity="1.00" d=" M 15.12 26.11 C 17.55 25.07 19.20 28.84 16.79 29.86 C 14.41 30.87 12.90 27.24 15.12 26.11 Z" />
<path fill="#000000" opacity="1.00" d=" M 22.12 27.13 C 23.16 25.46 25.37 26.18 27.01 25.97 C 32.28 26.15 37.57 25.75 42.83 26.16 C 43.19 26.60 43.90 27.49 44.26 27.94 C 41.11 28.48 38.21 30.25 34.94 30.04 C 30.99 29.86 27.03 30.25 23.10 29.82 C 22.14 29.18 21.81 28.29 22.12 27.13 Z" />
<path fill="#000000" opacity="1.00" d=" M 38.96 33.95 C 43.82 31.01 50.47 31.52 54.82 35.18 C 57.98 37.66 59.71 41.56 60.00 45.51 L 60.00 46.60 C 59.71 53.69 53.64 59.74 46.55 60.00 L 45.43 60.00 C 39.30 59.70 33.63 55.14 32.38 49.08 C 30.98 43.30 33.77 36.86 38.96 33.95 M 44.00 37.99 C 44.11 42.00 44.22 46.00 44.33 50.00 C 45.44 49.98 46.56 49.98 47.68 50.00 C 47.78 46.00 47.89 41.99 48.00 37.99 C 46.67 38.02 45.33 38.02 44.00 37.99 M 45.15 52.10 C 42.89 53.23 44.38 56.85 46.81 55.89 C 49.14 54.80 47.59 51.12 45.15 52.10 Z" />
<path fill="#000000" opacity="1.00" d=" M 15.19 34.09 C 17.59 33.18 19.09 36.71 16.89 37.86 C 14.46 38.93 12.82 35.20 15.19 34.09 Z" />
<path fill="#000000" opacity="1.00" d=" M 22.10 35.17 C 24.77 32.70 29.17 34.60 32.53 33.97 C 31.65 35.31 30.73 36.64 29.82 37.97 C 27.27 37.70 21.50 39.43 22.10 35.17 Z" />
</g>
</svg>
