<?xml version="1.0" encoding="UTF-8" ?>
<!DOCTYPE svg PUBLIC "-//W3C//DTD SVG 1.1//EN" "http://www.w3.org/Graphics/SVG/1.1/DTD/svg11.dtd">
<svg width="64pt" height="64pt" viewBox="0 0 64 64" version="1.1" xmlns="http://www.w3.org/2000/svg">
<g id="#ffffffff">
<path fill="#ffffff" opacity="1.00" d=" M 0.00 0.00 L 64.00 0.00 L 64.00 47.58 C 63.84 40.57 58.71 34.34 52.02 32.47 C 51.98 28.04 52.01 23.60 52.00 19.16 C 47.62 14.76 43.23 10.38 38.84 6.00 C 29.89 6.00 20.95 6.00 12.00 6.00 C 12.00 23.33 12.00 40.67 12.00 58.00 C 19.83 58.02 27.66 57.96 35.49 58.03 C 38.33 61.33 42.32 63.53 46.66 64.00 L 0.00 64.00 L 0.00 0.00 Z" />
<path fill="#ffffff" opacity="1.00" d=" M 16.00 10.00 C 22.67 10.00 29.33 10.00 36.00 10.00 C 36.00 14.00 36.00 18.00 36.00 22.00 C 40.00 22.00 44.00 22.00 48.00 22.00 C 48.00 25.31 48.00 28.61 48.00 31.91 C 42.14 32.04 36.49 35.46 33.81 40.70 C 31.56 44.75 31.55 49.72 33.17 54.00 C 27.44 53.99 21.72 54.00 16.00 54.00 C 16.00 39.33 16.00 24.67 16.00 10.00 Z" />
<path fill="#ffffff" opacity="1.00" d=" M 40.01 12.82 C 41.74 14.54 43.46 16.26 45.17 17.99 C 43.44 18.00 41.72 18.00 40.00 18.00 C 40.00 16.28 40.00 14.55 40.01 12.82 Z" />
<path fill="#ffffff" opacity="1.00" d=" M 44.37 36.60 C 51.31 34.09 59.41 39.54 59.91 46.83 C 60.92 54.40 53.33 61.42 45.86 59.77 C 39.28 58.69 34.55 51.55 36.39 45.08 C 37.35 41.11 40.50 37.84 44.37 36.60 M 46.00 40.00 C 46.00 43.33 46.00 46.67 46.00 50.00 C 47.33 50.00 48.67 50.00 50.00 50.00 C 50.00 46.67 50.00 43.33 50.00 40.00 C 48.67 40.00 47.33 40.00 46.00 40.00 M 46.00 52.00 C 46.00 53.33 46.00 54.67 46.00 56.00 C 47.33 56.00 48.67 56.00 50.00 56.00 C 50.00 54.67 50.00 53.33 50.00 52.00 C 48.67 52.00 47.33 52.00 46.00 52.00 Z" />
<path fill="#ffffff" opacity="1.00" d=" M 49.19 64.00 C 56.81 63.43 63.31 56.96 64.00 49.36 L 64.00 64.00 L 49.19 64.00 Z" />
</g>
<g id="#000000ff">
<path fill="#000000" opacity="1.00" d=" M 12.00 6.00 C 20.95 6.00 29.89 6.00 38.84 6.00 C 43.23 10.38 47.62 14.76 52.00 19.16 C 52.01 23.60 51.98 28.04 52.02 32.47 C 58.71 34.34 63.84 40.57 64.00 47.58 L 64.00 49.36 C 63.31 56.96 56.81 63.43 49.19 64.00 L 46.66 64.00 C 42.32 63.53 38.33 61.33 35.49 58.03 C 27.66 57.96 19.83 58.02 12.00 58.00 C 12.00 40.67 12.00 23.33 12.00 6.00 M 16.00 10.00 C 16.00 24.67 16.00 39.33 16.00 54.00 C 21.72 54.00 27.44 53.99 33.17 54.00 C 31.55 49.72 31.56 44.75 33.81 40.70 C 36.49 35.46 42.14 32.04 48.00 31.91 C 48.00 28.61 48.00 25.31 48.00 22.00 C 44.00 22.00 40.00 22.00 36.00 22.00 C 36.00 18.00 36.00 14.00 36.00 10.00 C 29.33 10.00 22.67 10.00 16.00 10.00 M 40.01 12.82 C 40.00 14.55 40.00 16.28 40.00 18.00 C 41.72 18.00 43.44 18.00 45.17 17.99 C 43.46 16.26 41.74 14.54 40.01 12.82 M 44.37 36.60 C 40.50 37.84 37.35 41.11 36.39 45.08 C 34.55 51.55 39.28 58.69 45.86 59.77 C 53.33 61.42 60.92 54.40 59.91 46.83 C 59.41 39.54 51.31 34.09 44.37 36.60 Z" />
<path fill="#000000" opacity="1.00" d=" M 46.00 40.00 C 47.33 40.00 48.67 40.00 50.00 40.00 C 50.00 43.33 50.00 46.67 50.00 50.00 C 48.67 50.00 47.33 50.00 46.00 50.00 C 46.00 46.67 46.00 43.33 46.00 40.00 Z" />
<path fill="#000000" opacity="1.00" d=" M 46.00 52.00 C 47.33 52.00 48.67 52.00 50.00 52.00 C 50.00 53.33 50.00 54.67 50.00 56.00 C 48.67 56.00 47.33 56.00 46.00 56.00 C 46.00 54.67 46.00 53.33 46.00 52.00 Z" />
</g>
</svg>
