<?xml version="1.0" encoding="UTF-8" ?>
<!DOCTYPE svg PUBLIC "-//W3C//DTD SVG 1.1//EN" "http://www.w3.org/Graphics/SVG/1.1/DTD/svg11.dtd">
<svg width="60pt" height="60pt" viewBox="0 0 60 60" version="1.1" xmlns="http://www.w3.org/2000/svg">
<g id="#ffffffff">
<path fill="#ffffff" opacity="1.00" d=" M 0.00 0.00 L 45.51 0.00 C 37.82 0.18 31.22 7.43 32.09 15.13 C 32.49 22.56 39.67 28.69 47.07 27.91 C 53.99 27.54 59.75 21.40 60.00 14.52 L 60.00 60.00 L 0.00 60.00 L 0.00 0.00 M 5.12 12.00 C 12.32 18.79 19.57 25.51 26.78 32.27 C 27.99 33.55 29.95 34.60 31.64 33.51 C 33.40 32.29 34.86 30.71 36.43 29.26 C 30.68 25.59 27.41 18.78 28.02 12.00 C 20.39 12.00 12.75 12.00 5.12 12.00 M 2.01 14.61 C 2.00 24.80 2.00 34.99 2.00 45.17 C 7.28 39.91 12.54 34.63 17.81 29.36 C 12.54 24.45 7.28 19.52 2.01 14.61 M 44.86 32.12 C 49.32 36.39 53.62 40.81 58.00 45.15 C 58.02 39.25 57.97 33.35 58.03 27.45 C 54.34 30.52 49.66 32.15 44.86 32.12 M 4.85 48.00 C 21.63 48.00 38.40 48.01 55.18 47.99 C 49.87 42.69 44.57 37.38 39.25 32.09 C 36.53 34.47 34.00 38.06 29.98 37.96 C 25.96 38.04 23.47 34.45 20.74 32.09 C 15.45 37.40 10.15 42.69 4.85 48.00 Z" />
<path fill="#ffffff" opacity="1.00" d=" M 46.52 0.00 L 60.00 0.00 L 60.00 13.55 C 59.81 6.39 53.68 0.22 46.52 0.00 Z" />
<path fill="#ffffff" opacity="1.00" d=" M 44.00 6.00 C 45.33 6.00 46.67 6.00 48.00 6.00 C 47.89 10.00 47.78 14.00 47.68 17.99 C 46.56 18.00 45.44 18.00 44.32 17.99 C 44.22 14.00 44.11 10.00 44.00 6.00 Z" />
<path fill="#ffffff" opacity="1.00" d=" M 45.10 20.12 C 47.55 19.09 49.17 22.76 46.82 23.89 C 44.42 24.82 42.91 21.32 45.10 20.12 Z" />
</g>
<g id="#000000ff">
<path fill="#000000" opacity="1.00" d=" M 45.51 0.00 L 46.52 0.00 C 53.68 0.22 59.81 6.39 60.00 13.55 L 60.00 14.52 C 59.75 21.40 53.99 27.54 47.07 27.91 C 39.67 28.69 32.49 22.56 32.09 15.13 C 31.22 7.43 37.82 0.18 45.51 0.00 M 44.00 6.00 C 44.11 10.00 44.22 14.00 44.32 17.99 C 45.44 18.00 46.56 18.00 47.68 17.99 C 47.78 14.00 47.89 10.00 48.00 6.00 C 46.67 6.00 45.33 6.00 44.00 6.00 M 45.10 20.12 C 42.91 21.32 44.42 24.82 46.82 23.89 C 49.17 22.76 47.55 19.09 45.10 20.12 Z" />
<path fill="#000000" opacity="1.00" d=" M 5.12 12.00 C 12.75 12.00 20.39 12.00 28.02 12.00 C 27.41 18.78 30.68 25.59 36.43 29.26 C 34.86 30.71 33.40 32.29 31.64 33.51 C 29.95 34.60 27.99 33.55 26.78 32.27 C 19.57 25.51 12.32 18.79 5.12 12.00 Z" />
<path fill="#000000" opacity="1.00" d=" M 2.01 14.61 C 7.28 19.52 12.54 24.45 17.81 29.36 C 12.54 34.63 7.28 39.91 2.00 45.17 C 2.00 34.99 2.00 24.80 2.01 14.61 Z" />
<path fill="#000000" opacity="1.00" d=" M 44.86 32.12 C 49.66 32.15 54.34 30.52 58.03 27.45 C 57.97 33.35 58.02 39.25 58.00 45.15 C 53.62 40.81 49.32 36.39 44.86 32.12 Z" />
<path fill="#000000" opacity="1.00" d=" M 4.85 48.00 C 10.15 42.69 15.45 37.40 20.74 32.09 C 23.47 34.45 25.96 38.04 29.98 37.96 C 34.00 38.06 36.53 34.47 39.25 32.09 C 44.57 37.38 49.87 42.69 55.18 47.99 C 38.40 48.01 21.63 48.00 4.85 48.00 Z" />
</g>
</svg>
