<?xml version="1.0" encoding="UTF-8" ?>
<!DOCTYPE svg PUBLIC "-//W3C//DTD SVG 1.1//EN" "http://www.w3.org/Graphics/SVG/1.1/DTD/svg11.dtd">
<svg width="60pt" height="60pt" viewBox="0 0 60 60" version="1.1" xmlns="http://www.w3.org/2000/svg">
<g id="#ffffffff">
<path fill="#ffffff" opacity="1.00" d=" M 0.00 0.00 L 60.00 0.00 L 60.00 60.00 L 0.00 60.00 L 0.00 0.00 M 3.28 13.75 C 18.98 18.51 34.79 22.99 50.54 27.64 C 51.91 28.30 54.03 27.87 53.99 26.01 C 52.97 22.57 51.30 19.37 50.02 16.03 C 51.48 14.62 54.48 13.64 53.88 11.14 C 53.10 9.75 51.43 10.08 50.10 9.99 C 34.74 10.06 19.37 9.90 4.01 10.06 C 1.92 9.74 1.14 13.31 3.28 13.75 M 12.44 22.70 C 9.23 24.43 9.24 29.58 12.46 31.30 C 15.58 33.37 20.15 30.69 20.00 27.00 C 20.15 23.29 15.56 20.62 12.44 22.70 M 15.99 40.02 C 13.03 40.04 10.06 39.79 7.12 40.20 C 5.26 40.95 5.90 44.11 7.96 43.92 C 11.55 44.01 15.21 44.26 18.77 43.75 C 20.52 42.72 22.00 41.30 23.57 40.03 C 27.59 40.99 32.02 40.98 35.55 43.38 C 40.15 46.14 44.63 49.13 49.30 51.76 C 51.08 52.88 53.06 49.93 51.37 48.69 C 46.24 43.86 41.11 38.94 35.67 34.46 C 31.56 33.41 27.34 32.19 23.08 32.12 C 19.76 33.56 18.40 37.48 15.99 40.02 Z" />
</g>
<g id="#000000ff">
<path fill="#000000" opacity="1.00" d=" M 3.28 13.75 C 1.14 13.31 1.92 9.74 4.01 10.06 C 19.37 9.90 34.74 10.06 50.10 9.99 C 51.43 10.08 53.10 9.75 53.88 11.14 C 54.48 13.64 51.48 14.62 50.02 16.03 C 51.30 19.37 52.97 22.57 53.99 26.01 C 54.03 27.87 51.91 28.30 50.54 27.64 C 34.79 22.99 18.98 18.51 3.28 13.75 Z" />
<path fill="#000000" opacity="1.00" d=" M 12.44 22.70 C 15.56 20.62 20.15 23.29 20.00 27.00 C 20.15 30.69 15.58 33.37 12.46 31.30 C 9.24 29.58 9.23 24.43 12.44 22.70 Z" />
<path fill="#000000" opacity="1.00" d=" M 15.99 40.02 C 18.40 37.48 19.76 33.56 23.08 32.12 C 27.34 32.19 31.56 33.41 35.67 34.46 C 41.11 38.94 46.24 43.86 51.37 48.69 C 53.06 49.93 51.08 52.88 49.30 51.76 C 44.63 49.13 40.15 46.14 35.55 43.38 C 32.02 40.98 27.59 40.99 23.57 40.03 C 22.00 41.30 20.52 42.72 18.77 43.75 C 15.21 44.26 11.55 44.01 7.96 43.92 C 5.90 44.11 5.26 40.95 7.12 40.20 C 10.06 39.79 13.03 40.04 15.99 40.02 Z" />
</g>
</svg>
