<?xml version="1.0" encoding="UTF-8" ?>
<!DOCTYPE svg PUBLIC "-//W3C//DTD SVG 1.1//EN" "http://www.w3.org/Graphics/SVG/1.1/DTD/svg11.dtd">
<svg width="64pt" height="64pt" viewBox="0 0 64 64" version="1.1" xmlns="http://www.w3.org/2000/svg">
<g id="#ffffffff">
<path fill="#ffffff" opacity="1.00" d=" M 0.00 0.00 L 64.00 0.00 L 64.00 64.00 L 0.00 64.00 L 0.00 0.00 M 23.53 13.47 C 21.13 12.46 18.51 11.52 15.89 12.26 C 10.25 13.32 6.53 19.82 8.55 25.21 C 9.53 28.42 12.35 30.46 15.28 31.76 C 14.43 36.46 14.07 41.23 13.99 46.00 C 15.32 46.00 16.66 46.00 17.99 46.00 C 18.07 41.31 18.36 36.61 19.33 32.00 C 21.89 31.31 24.22 30.02 26.04 28.06 C 25.95 37.37 26.03 46.69 26.00 56.00 C 35.33 56.00 44.67 56.00 54.00 56.00 C 54.00 44.67 54.00 33.33 54.00 22.00 C 52.56 22.00 51.12 22.00 49.69 22.00 C 49.25 19.33 48.81 16.67 48.37 14.00 C 49.28 14.00 51.10 14.00 52.00 14.00 C 52.00 12.00 52.00 10.00 52.00 8.00 C 45.62 8.03 39.24 7.95 32.86 8.01 C 29.03 8.11 26.18 11.06 23.53 13.47 Z" />
<path fill="#ffffff" opacity="1.00" d=" M 36.05 12.00 C 38.68 12.00 41.32 12.00 43.95 12.00 C 44.51 15.33 45.07 18.67 45.62 22.00 C 41.87 22.00 38.13 22.00 34.38 22.00 C 34.93 18.67 35.49 15.33 36.05 12.00 Z" />
<path fill="#ffffff" opacity="1.00" d=" M 26.65 16.71 C 28.23 15.78 29.86 14.92 31.52 14.11 C 31.10 16.69 30.91 19.33 30.17 21.84 C 29.68 21.92 28.71 22.06 28.22 22.14 C 27.79 20.30 27.27 18.49 26.65 16.71 Z" />
<path fill="#ffffff" opacity="1.00" d=" M 12.52 19.54 C 13.85 16.22 17.87 15.40 20.97 16.55 C 19.02 20.21 17.38 24.01 16.05 27.94 C 13.03 26.43 10.92 22.83 12.52 19.54 Z" />
<path fill="#ffffff" opacity="1.00" d=" M 20.40 27.66 C 21.21 24.99 22.38 22.44 24.04 20.20 C 24.30 23.21 23.15 26.17 20.40 27.66 Z" />
<path fill="#ffffff" opacity="1.00" d=" M 30.00 26.00 C 36.67 26.00 43.33 26.00 50.00 26.00 C 50.00 34.67 50.00 43.33 50.00 52.00 C 43.33 52.00 36.67 52.00 30.00 52.00 C 30.00 43.33 30.00 34.67 30.00 26.00 M 34.00 32.00 C 34.00 33.33 34.00 34.67 34.00 36.00 C 38.00 36.00 42.00 36.00 46.00 36.00 C 46.00 34.67 46.00 33.33 46.00 32.00 C 42.00 32.00 38.00 32.00 34.00 32.00 Z" />
</g>
<g id="#000000ff">
<path fill="#000000" opacity="1.00" d=" M 23.53 13.47 C 26.18 11.06 29.03 8.11 32.86 8.01 C 39.24 7.95 45.62 8.03 52.00 8.00 C 52.00 10.00 52.00 12.00 52.00 14.00 C 51.10 14.00 49.28 14.00 48.37 14.00 C 48.81 16.67 49.25 19.33 49.69 22.00 C 51.12 22.00 52.56 22.00 54.00 22.00 C 54.00 33.33 54.00 44.67 54.00 56.00 C 44.67 56.00 35.33 56.00 26.00 56.00 C 26.03 46.69 25.95 37.37 26.04 28.06 C 24.22 30.02 21.89 31.31 19.33 32.00 C 18.36 36.61 18.07 41.31 17.99 46.00 C 16.66 46.00 15.32 46.00 13.99 46.00 C 14.07 41.23 14.43 36.46 15.28 31.76 C 12.35 30.46 9.53 28.42 8.55 25.21 C 6.53 19.82 10.25 13.32 15.89 12.26 C 18.51 11.52 21.13 12.46 23.53 13.47 M 36.05 12.00 C 35.49 15.33 34.93 18.67 34.38 22.00 C 38.13 22.00 41.87 22.00 45.62 22.00 C 45.07 18.67 44.51 15.33 43.95 12.00 C 41.32 12.00 38.68 12.00 36.05 12.00 M 26.65 16.71 C 27.27 18.49 27.79 20.30 28.22 22.14 C 28.71 22.06 29.68 21.92 30.17 21.84 C 30.91 19.33 31.10 16.69 31.52 14.11 C 29.86 14.92 28.23 15.78 26.65 16.71 M 12.52 19.54 C 10.92 22.83 13.03 26.43 16.05 27.94 C 17.38 24.01 19.02 20.21 20.97 16.55 C 17.87 15.40 13.85 16.22 12.52 19.54 M 20.40 27.66 C 23.15 26.17 24.30 23.21 24.04 20.20 C 22.38 22.44 21.21 24.99 20.40 27.66 M 30.00 26.00 C 30.00 34.67 30.00 43.33 30.00 52.00 C 36.67 52.00 43.33 52.00 50.00 52.00 C 50.00 43.33 50.00 34.67 50.00 26.00 C 43.33 26.00 36.67 26.00 30.00 26.00 Z" />
<path fill="#000000" opacity="1.00" d=" M 34.00 32.00 C 38.00 32.00 42.00 32.00 46.00 32.00 C 46.00 33.33 46.00 34.67 46.00 36.00 C 42.00 36.00 38.00 36.00 34.00 36.00 C 34.00 34.67 34.00 33.33 34.00 32.00 Z" />
</g>
</svg>
