<?xml version="1.0" encoding="UTF-8" ?>
<!DOCTYPE svg PUBLIC "-//W3C//DTD SVG 1.1//EN" "http://www.w3.org/Graphics/SVG/1.1/DTD/svg11.dtd">
<svg width="64pt" height="64pt" viewBox="0 0 64 64" version="1.1" xmlns="http://www.w3.org/2000/svg">
<g id="#ffffffff">
<path fill="#ffffff" opacity="1.00" d=" M 0.00 0.00 L 64.00 0.00 L 64.00 64.00 L 0.00 64.00 L 0.00 0.00 M 10.26 15.99 C 8.17 16.01 6.09 16.00 4.00 16.00 C 4.00 17.33 4.00 18.67 4.00 20.00 C 6.07 20.00 8.13 19.99 10.20 19.98 C 11.60 22.68 14.73 24.93 17.85 23.67 C 19.75 23.17 20.62 21.31 21.93 20.05 C 23.37 19.97 24.82 19.95 26.26 20.00 C 27.41 22.13 29.42 24.08 32.01 24.00 C 34.63 24.08 36.57 22.05 37.82 19.98 C 39.29 19.98 40.76 19.99 42.23 20.00 C 43.42 22.11 45.41 24.08 48.01 24.00 C 50.60 24.08 52.56 22.10 53.76 20.00 C 55.84 19.99 57.92 20.00 60.00 20.00 C 60.00 18.67 60.00 17.33 60.00 16.00 C 57.92 16.00 55.83 16.00 53.75 15.99 C 52.54 13.89 50.58 11.88 47.96 12.00 C 45.34 11.91 43.42 13.97 42.16 16.03 C 40.71 16.02 39.26 16.02 37.81 16.02 C 36.57 13.96 34.65 11.91 32.04 12.00 C 29.42 11.88 27.44 13.89 26.24 15.99 C 24.75 16.01 23.27 16.01 21.78 16.01 C 20.57 13.91 18.58 11.88 15.96 12.00 C 13.39 11.93 11.42 13.89 10.26 15.99 M 6.20 46.00 C 10.74 50.44 15.08 55.10 19.75 59.40 C 20.64 58.47 21.53 57.54 22.42 56.62 C 19.70 53.68 16.78 50.93 13.97 48.08 C 27.98 47.90 41.99 48.05 56.00 48.00 C 56.00 46.67 56.00 45.33 56.00 44.00 C 41.97 43.97 27.94 44.05 13.91 43.96 C 16.77 41.21 19.47 38.30 22.40 35.63 C 21.56 34.57 20.65 33.57 19.76 32.55 C 15.13 36.92 10.73 41.53 6.20 46.00 Z" />
<path fill="#ffffff" opacity="1.00" d=" M 15.14 16.15 C 17.51 15.00 19.22 18.86 16.81 19.83 C 14.46 20.97 12.83 17.17 15.14 16.15 Z" />
<path fill="#ffffff" opacity="1.00" d=" M 31.14 16.10 C 33.50 15.04 35.22 18.84 32.82 19.79 C 30.51 21.05 28.81 17.17 31.14 16.10 Z" />
<path fill="#ffffff" opacity="1.00" d=" M 47.18 16.15 C 49.50 15.01 51.22 18.87 48.83 19.79 C 46.52 21.08 44.77 17.11 47.18 16.15 Z" />
</g>
<g id="#000000ff">
<path fill="#000000" opacity="1.00" d=" M 10.26 15.99 C 11.42 13.89 13.39 11.93 15.96 12.00 C 18.58 11.88 20.57 13.91 21.78 16.01 C 23.27 16.01 24.75 16.01 26.24 15.99 C 27.44 13.89 29.42 11.88 32.04 12.00 C 34.65 11.91 36.57 13.96 37.81 16.02 C 39.26 16.02 40.71 16.02 42.16 16.03 C 43.42 13.97 45.34 11.91 47.96 12.00 C 50.58 11.88 52.54 13.89 53.75 15.99 C 55.83 16.00 57.92 16.00 60.00 16.00 C 60.00 17.33 60.00 18.67 60.00 20.00 C 57.92 20.00 55.84 19.99 53.76 20.00 C 52.56 22.10 50.60 24.08 48.01 24.00 C 45.41 24.08 43.42 22.11 42.23 20.00 C 40.76 19.99 39.29 19.98 37.82 19.98 C 36.57 22.05 34.63 24.08 32.01 24.00 C 29.42 24.08 27.41 22.13 26.26 20.00 C 24.82 19.95 23.37 19.97 21.93 20.05 C 20.62 21.31 19.75 23.17 17.85 23.67 C 14.73 24.93 11.60 22.68 10.20 19.98 C 8.13 19.99 6.07 20.00 4.00 20.00 C 4.00 18.67 4.00 17.33 4.00 16.00 C 6.09 16.00 8.17 16.01 10.26 15.99 M 15.14 16.15 C 12.83 17.17 14.46 20.97 16.81 19.83 C 19.22 18.86 17.51 15.00 15.14 16.15 M 31.14 16.10 C 28.81 17.17 30.51 21.05 32.82 19.79 C 35.22 18.84 33.50 15.04 31.14 16.10 M 47.18 16.15 C 44.77 17.11 46.52 21.08 48.83 19.79 C 51.22 18.87 49.50 15.01 47.18 16.15 Z" />
<path fill="#000000" opacity="1.00" d=" M 6.20 46.00 C 10.73 41.53 15.13 36.92 19.76 32.55 C 20.65 33.57 21.56 34.57 22.40 35.63 C 19.47 38.30 16.77 41.21 13.91 43.96 C 27.94 44.05 41.97 43.97 56.00 44.00 C 56.00 45.33 56.00 46.67 56.00 48.00 C 41.99 48.05 27.98 47.90 13.97 48.08 C 16.78 50.93 19.70 53.68 22.42 56.62 C 21.53 57.54 20.64 58.47 19.75 59.40 C 15.08 55.10 10.74 50.44 6.20 46.00 Z" />
</g>
</svg>
