<?xml version="1.0" encoding="UTF-8" ?>
<!DOCTYPE svg PUBLIC "-//W3C//DTD SVG 1.1//EN" "http://www.w3.org/Graphics/SVG/1.1/DTD/svg11.dtd">
<svg width="64pt" height="64pt" viewBox="0 0 64 64" version="1.1" xmlns="http://www.w3.org/2000/svg">
<g id="#ffffffff">
<path fill="#ffffff" opacity="1.00" d=" M 0.00 0.00 L 64.00 0.00 L 64.00 64.00 L 0.00 64.00 L 0.00 0.00 M 9.99 7.99 C 10.00 24.00 10.00 40.00 9.99 56.01 C 16.66 55.99 23.34 55.99 30.01 56.01 C 30.00 40.00 29.99 24.00 30.01 7.99 C 23.34 8.01 16.66 8.01 9.99 7.99 M 37.35 16.38 C 35.10 17.19 33.84 19.61 34.01 21.93 C 34.02 29.62 33.91 37.32 34.06 45.01 C 34.08 47.61 36.39 49.92 39.00 49.93 C 42.61 50.05 46.26 50.18 49.87 49.82 C 52.52 49.37 54.20 46.65 53.99 44.07 C 53.98 36.38 54.09 28.68 53.93 21.00 C 53.91 18.39 51.61 16.08 49.00 16.07 C 45.13 16.03 41.16 15.63 37.35 16.38 Z" />
<path fill="#ffffff" opacity="1.00" d=" M 13.99 12.00 C 18.00 12.00 22.00 12.00 26.01 12.00 C 25.99 25.33 25.99 38.67 26.01 52.00 C 22.00 52.00 18.00 52.00 13.99 52.00 C 14.01 38.67 14.01 25.33 13.99 12.00 Z" />
<path fill="#ffffff" opacity="1.00" d=" M 38.13 20.15 C 42.04 19.93 45.96 19.93 49.86 20.15 C 50.09 28.71 50.09 37.29 49.86 45.85 C 45.96 46.07 42.04 46.07 38.13 45.85 C 37.91 37.29 37.91 28.71 38.13 20.15 Z" />
</g>
<g id="#000000ff">
<path fill="#000000" opacity="1.00" d=" M 9.99 7.99 C 16.66 8.01 23.34 8.01 30.01 7.99 C 29.99 24.00 30.00 40.00 30.01 56.01 C 23.34 55.99 16.66 55.99 9.99 56.01 C 10.00 40.00 10.00 24.00 9.99 7.99 M 13.99 12.00 C 14.01 25.33 14.01 38.67 13.99 52.00 C 18.00 52.00 22.00 52.00 26.01 52.00 C 25.99 38.67 25.99 25.33 26.01 12.00 C 22.00 12.00 18.00 12.00 13.99 12.00 Z" />
<path fill="#000000" opacity="1.00" d=" M 37.35 16.38 C 41.16 15.63 45.13 16.03 49.00 16.07 C 51.61 16.08 53.91 18.39 53.93 21.00 C 54.09 28.68 53.98 36.38 53.99 44.07 C 54.20 46.65 52.52 49.37 49.87 49.82 C 46.26 50.18 42.61 50.05 39.00 49.93 C 36.39 49.92 34.08 47.61 34.06 45.01 C 33.91 37.32 34.02 29.62 34.01 21.93 C 33.84 19.61 35.10 17.19 37.35 16.38 M 38.13 20.15 C 37.91 28.71 37.91 37.29 38.13 45.85 C 42.04 46.07 45.96 46.07 49.86 45.85 C 50.09 37.29 50.09 28.71 49.86 20.15 C 45.96 19.93 42.04 19.93 38.13 20.15 Z" />
</g>
</svg>
