<?xml version="1.0" encoding="UTF-8" ?>
<!DOCTYPE svg PUBLIC "-//W3C//DTD SVG 1.1//EN" "http://www.w3.org/Graphics/SVG/1.1/DTD/svg11.dtd">
<svg width="64pt" height="64pt" viewBox="0 0 64 64" version="1.1" xmlns="http://www.w3.org/2000/svg">
<g id="#ffffffff">
<path fill="#ffffff" opacity="1.00" d=" M 0.00 0.00 L 64.00 0.00 L 64.00 64.00 L 0.00 64.00 L 0.00 0.00 M 12.04 13.87 C 11.97 25.95 11.97 38.04 12.05 50.12 C 11.98 53.22 14.75 55.98 17.84 55.95 C 29.23 56.08 40.61 55.96 52.00 56.00 C 52.00 40.00 52.00 24.00 52.00 8.00 C 40.63 8.04 29.26 7.93 17.89 8.04 C 14.78 7.98 11.98 10.76 12.04 13.87 Z" />
<path fill="#ffffff" opacity="1.00" d=" M 17.16 12.15 C 27.43 11.78 37.72 12.11 48.00 12.00 C 48.00 22.67 48.00 33.33 48.00 44.00 C 37.33 44.12 26.65 43.76 15.99 44.20 C 16.12 33.85 15.78 23.49 16.16 13.16 C 16.41 12.91 16.91 12.40 17.16 12.15 M 20.00 14.00 C 20.00 18.00 20.00 22.00 20.00 26.00 C 21.33 26.00 22.67 26.00 24.00 26.00 C 24.00 22.00 24.00 18.00 24.00 14.00 C 22.67 14.00 21.33 14.00 20.00 14.00 M 29.44 14.58 C 25.24 16.34 24.86 22.87 28.85 25.08 C 32.57 27.66 38.14 24.50 37.99 20.03 C 38.17 15.82 33.21 12.58 29.44 14.58 M 40.00 14.00 C 40.00 18.00 40.00 22.00 40.00 26.00 C 41.33 26.00 42.67 26.00 44.00 26.00 C 44.00 22.00 44.00 18.00 44.00 14.00 C 42.67 14.00 41.33 14.00 40.00 14.00 M 21.42 30.60 C 17.25 32.36 16.87 38.83 20.81 41.06 C 24.52 43.68 30.14 40.52 29.99 36.03 C 30.17 31.81 25.18 28.57 21.42 30.60 M 32.00 30.00 C 32.00 34.00 32.00 38.00 32.00 42.00 C 33.33 42.00 34.67 42.00 36.00 42.00 C 36.00 38.00 36.00 34.00 36.00 30.00 C 34.67 30.00 33.33 30.00 32.00 30.00 M 40.00 30.00 C 40.00 34.00 40.00 38.00 40.00 42.00 C 41.33 42.00 42.67 42.00 44.00 42.00 C 44.00 38.00 44.00 34.00 44.00 30.00 C 42.67 30.00 41.33 30.00 40.00 30.00 Z" />
<path fill="#ffffff" opacity="1.00" d=" M 31.13 18.11 C 33.57 17.10 35.17 20.78 32.83 21.89 C 30.41 22.87 28.87 19.26 31.13 18.11 Z" />
<path fill="#ffffff" opacity="1.00" d=" M 23.11 34.11 C 25.55 33.11 27.15 36.71 24.86 37.89 C 22.43 38.88 20.87 35.30 23.11 34.11 Z" />
<path fill="#ffffff" opacity="1.00" d=" M 18.01 51.94 C 15.40 52.28 15.40 47.74 18.01 48.06 C 28.00 47.91 38.00 48.05 48.00 48.00 C 48.00 49.33 48.00 50.67 48.00 52.00 C 38.00 51.95 28.00 52.10 18.01 51.94 Z" />
</g>
<g id="#000000ff">
<path fill="#000000" opacity="1.00" d=" M 12.04 13.87 C 11.98 10.76 14.78 7.98 17.89 8.04 C 29.26 7.93 40.63 8.04 52.00 8.00 C 52.00 24.00 52.00 40.00 52.00 56.00 C 40.61 55.96 29.23 56.08 17.84 55.95 C 14.75 55.98 11.98 53.22 12.05 50.12 C 11.97 38.04 11.97 25.95 12.04 13.87 M 17.16 12.15 C 16.91 12.40 16.41 12.91 16.16 13.16 C 15.78 23.49 16.12 33.85 15.99 44.20 C 26.65 43.76 37.33 44.12 48.00 44.00 C 48.00 33.33 48.00 22.67 48.00 12.00 C 37.72 12.11 27.43 11.78 17.16 12.15 M 18.01 51.94 C 28.00 52.10 38.00 51.95 48.00 52.00 C 48.00 50.67 48.00 49.33 48.00 48.00 C 38.00 48.05 28.00 47.91 18.01 48.06 C 15.40 47.74 15.40 52.28 18.01 51.94 Z" />
<path fill="#000000" opacity="1.00" d=" M 20.00 14.00 C 21.33 14.00 22.67 14.00 24.00 14.00 C 24.00 18.00 24.00 22.00 24.00 26.00 C 22.67 26.00 21.33 26.00 20.00 26.00 C 20.00 22.00 20.00 18.00 20.00 14.00 Z" />
<path fill="#000000" opacity="1.00" d=" M 29.44 14.58 C 33.21 12.58 38.17 15.82 37.99 20.03 C 38.14 24.50 32.57 27.66 28.85 25.08 C 24.86 22.87 25.24 16.34 29.44 14.58 M 31.13 18.11 C 28.87 19.26 30.41 22.87 32.83 21.89 C 35.17 20.78 33.57 17.10 31.13 18.11 Z" />
<path fill="#000000" opacity="1.00" d=" M 40.00 14.00 C 41.33 14.00 42.67 14.00 44.00 14.00 C 44.00 18.00 44.00 22.00 44.00 26.00 C 42.67 26.00 41.33 26.00 40.00 26.00 C 40.00 22.00 40.00 18.00 40.00 14.00 Z" />
<path fill="#000000" opacity="1.00" d=" M 21.42 30.60 C 25.18 28.57 30.17 31.81 29.99 36.03 C 30.14 40.52 24.52 43.68 20.81 41.06 C 16.87 38.83 17.25 32.36 21.42 30.60 M 23.11 34.11 C 20.87 35.30 22.43 38.88 24.86 37.89 C 27.15 36.71 25.55 33.11 23.11 34.11 Z" />
<path fill="#000000" opacity="1.00" d=" M 32.00 30.00 C 33.33 30.00 34.67 30.00 36.00 30.00 C 36.00 34.00 36.00 38.00 36.00 42.00 C 34.67 42.00 33.33 42.00 32.00 42.00 C 32.00 38.00 32.00 34.00 32.00 30.00 Z" />
<path fill="#000000" opacity="1.00" d=" M 40.00 30.00 C 41.33 30.00 42.67 30.00 44.00 30.00 C 44.00 34.00 44.00 38.00 44.00 42.00 C 42.67 42.00 41.33 42.00 40.00 42.00 C 40.00 38.00 40.00 34.00 40.00 30.00 Z" />
</g>
</svg>
