<?xml version="1.0" encoding="UTF-8" ?>
<!DOCTYPE svg PUBLIC "-//W3C//DTD SVG 1.1//EN" "http://www.w3.org/Graphics/SVG/1.1/DTD/svg11.dtd">
<svg width="64pt" height="64pt" viewBox="0 0 64 64" version="1.1" xmlns="http://www.w3.org/2000/svg">
<g id="#ffffffff">
<path fill="#ffffff" opacity="1.00" d=" M 0.00 0.00 L 64.00 0.00 L 64.00 64.00 L 0.00 64.00 L 0.00 0.00 M 18.00 8.00 C 18.01 10.66 17.99 13.32 18.00 15.99 C 17.50 15.99 16.50 16.01 16.00 16.01 C 15.99 18.01 16.01 20.00 16.00 22.00 C 14.67 22.00 13.33 22.00 12.00 22.00 C 12.00 28.93 12.00 35.87 12.00 42.80 C 13.93 44.71 15.70 46.81 17.97 48.34 C 18.01 50.89 18.01 53.45 18.00 56.00 C 19.33 56.00 20.67 56.00 22.00 56.00 C 21.99 53.45 21.99 50.89 22.03 48.34 C 23.49 47.33 24.83 46.17 26.02 44.84 C 27.19 46.17 28.53 47.31 29.97 48.34 C 30.01 50.89 30.01 53.45 30.00 56.00 C 31.33 56.00 32.67 56.00 34.00 56.00 C 33.99 53.45 33.99 50.89 34.02 48.34 C 35.49 47.34 36.83 46.17 38.02 44.84 C 39.19 46.16 40.53 47.31 41.97 48.34 C 42.01 50.89 42.01 53.45 42.00 56.00 C 43.33 56.00 44.67 56.00 46.00 56.00 C 45.99 53.45 45.99 50.89 46.03 48.34 C 48.32 46.86 50.05 44.73 51.99 42.84 C 52.01 35.90 51.99 28.95 52.00 22.00 C 50.67 22.00 49.33 22.00 48.00 22.00 C 47.99 20.00 48.01 18.01 48.00 16.01 C 47.50 16.01 46.50 15.99 46.00 15.99 C 46.01 13.32 45.99 10.66 46.00 8.00 C 44.67 8.00 43.33 8.00 42.00 8.00 C 42.01 10.66 41.99 13.32 42.00 15.99 C 41.50 15.99 40.50 16.01 40.00 16.01 C 39.99 18.01 40.01 20.00 40.00 22.00 C 38.67 22.00 37.33 22.00 36.00 22.00 C 35.99 20.01 36.01 18.01 36.00 16.02 C 35.50 16.01 34.50 15.99 34.00 15.98 C 34.01 13.32 33.99 10.66 34.00 8.00 C 32.67 8.00 31.33 8.00 30.00 8.00 C 30.00 10.66 29.99 13.32 30.00 15.99 C 29.50 15.99 28.50 16.01 28.00 16.01 C 27.99 18.01 28.01 20.01 28.00 22.00 C 26.67 22.00 25.33 22.00 24.00 22.00 C 23.99 20.01 24.01 18.01 24.00 16.02 C 23.50 16.01 22.50 15.99 22.00 15.98 C 22.01 13.32 21.99 10.66 22.00 8.00 C 20.67 8.00 19.33 8.00 18.00 8.00 Z" />
<path fill="#ffffff" opacity="1.00" d=" M 16.00 26.00 C 18.67 26.00 21.33 26.00 24.00 26.00 C 24.00 31.06 23.99 36.11 24.01 41.17 C 22.58 42.52 21.29 44.74 18.96 43.98 C 17.88 43.14 16.95 42.13 15.98 41.17 C 16.01 39.45 16.00 37.73 16.00 36.00 C 17.33 36.00 18.67 36.00 20.00 36.00 C 20.00 34.67 20.00 33.33 20.00 32.00 C 18.67 32.00 17.33 32.00 16.00 32.00 C 16.00 30.00 16.00 28.00 16.00 26.00 Z" />
<path fill="#ffffff" opacity="1.00" d=" M 28.00 26.00 C 30.67 26.00 33.33 26.00 36.00 26.00 C 36.01 31.06 35.98 36.11 36.02 41.17 C 34.55 42.51 33.27 44.79 30.92 43.95 C 29.85 43.12 28.93 42.12 27.98 41.16 C 28.00 39.44 28.00 37.72 28.00 36.00 C 29.33 36.00 30.67 36.00 32.00 36.00 C 32.00 34.67 32.00 33.33 32.00 32.00 C 30.67 32.00 29.33 32.00 28.00 32.00 C 28.00 30.00 28.00 28.00 28.00 26.00 Z" />
<path fill="#ffffff" opacity="1.00" d=" M 40.00 26.00 C 42.67 26.00 45.33 26.00 48.00 26.00 C 48.01 31.06 47.98 36.11 48.01 41.16 C 46.58 42.51 45.26 44.76 42.94 43.96 C 41.86 43.14 40.94 42.12 39.98 41.17 C 40.01 39.44 40.00 37.72 40.00 36.00 C 41.33 36.00 42.67 36.00 44.00 36.00 C 44.00 34.67 44.00 33.33 44.00 32.00 C 42.67 32.00 41.33 32.00 40.00 32.00 C 40.00 30.00 40.00 28.00 40.00 26.00 Z" />
</g>
<g id="#000000ff">
<path fill="#000000" opacity="1.00" d=" M 18.00 8.00 C 19.33 8.00 20.67 8.00 22.00 8.00 C 21.99 10.66 22.01 13.32 22.00 15.98 C 22.50 15.99 23.50 16.01 24.00 16.02 C 24.01 18.01 23.99 20.01 24.00 22.00 C 25.33 22.00 26.67 22.00 28.00 22.00 C 28.01 20.01 27.99 18.01 28.00 16.01 C 28.50 16.01 29.50 15.99 30.00 15.99 C 29.99 13.32 30.00 10.66 30.00 8.00 C 31.33 8.00 32.67 8.00 34.00 8.00 C 33.99 10.66 34.01 13.32 34.00 15.98 C 34.50 15.99 35.50 16.01 36.00 16.02 C 36.01 18.01 35.99 20.01 36.00 22.00 C 37.33 22.00 38.67 22.00 40.00 22.00 C 40.01 20.00 39.99 18.01 40.00 16.01 C 40.50 16.01 41.50 15.99 42.00 15.99 C 41.99 13.32 42.01 10.66 42.00 8.00 C 43.33 8.00 44.67 8.00 46.00 8.00 C 45.99 10.66 46.01 13.32 46.00 15.99 C 46.50 15.99 47.50 16.01 48.00 16.01 C 48.01 18.01 47.99 20.00 48.00 22.00 C 49.33 22.00 50.67 22.00 52.00 22.00 C 51.99 28.95 52.01 35.90 51.99 42.84 C 50.05 44.73 48.32 46.86 46.03 48.34 C 45.99 50.89 45.99 53.45 46.00 56.00 C 44.67 56.00 43.33 56.00 42.00 56.00 C 42.01 53.45 42.01 50.89 41.97 48.34 C 40.53 47.31 39.19 46.16 38.02 44.84 C 36.83 46.17 35.49 47.34 34.02 48.34 C 33.99 50.89 33.99 53.45 34.00 56.00 C 32.67 56.00 31.33 56.00 30.00 56.00 C 30.01 53.45 30.01 50.89 29.97 48.34 C 28.53 47.31 27.19 46.17 26.02 44.84 C 24.83 46.17 23.49 47.33 22.03 48.34 C 21.99 50.89 21.99 53.45 22.00 56.00 C 20.67 56.00 19.33 56.00 18.00 56.00 C 18.01 53.45 18.01 50.89 17.97 48.34 C 15.70 46.81 13.93 44.71 12.00 42.80 C 12.00 35.87 12.00 28.93 12.00 22.00 C 13.33 22.00 14.67 22.00 16.00 22.00 C 16.01 20.00 15.99 18.01 16.00 16.01 C 16.50 16.01 17.50 15.99 18.00 15.99 C 17.99 13.32 18.01 10.66 18.00 8.00 M 16.00 26.00 C 16.00 28.00 16.00 30.00 16.00 32.00 C 17.33 32.00 18.67 32.00 20.00 32.00 C 20.00 33.33 20.00 34.67 20.00 36.00 C 18.67 36.00 17.33 36.00 16.00 36.00 C 16.00 37.73 16.01 39.45 15.98 41.17 C 16.95 42.13 17.88 43.14 18.96 43.98 C 21.29 44.74 22.58 42.52 24.01 41.17 C 23.99 36.11 24.00 31.06 24.00 26.00 C 21.33 26.00 18.67 26.00 16.00 26.00 M 28.00 26.00 C 28.00 28.00 28.00 30.00 28.00 32.00 C 29.33 32.00 30.67 32.00 32.00 32.00 C 32.00 33.33 32.00 34.67 32.00 36.00 C 30.67 36.00 29.33 36.00 28.00 36.00 C 28.00 37.72 28.00 39.44 27.98 41.16 C 28.93 42.12 29.85 43.12 30.92 43.95 C 33.27 44.79 34.55 42.51 36.02 41.17 C 35.98 36.11 36.01 31.06 36.00 26.00 C 33.33 26.00 30.67 26.00 28.00 26.00 M 40.00 26.00 C 40.00 28.00 40.00 30.00 40.00 32.00 C 41.33 32.00 42.67 32.00 44.00 32.00 C 44.00 33.33 44.00 34.67 44.00 36.00 C 42.67 36.00 41.33 36.00 40.00 36.00 C 40.00 37.72 40.01 39.44 39.98 41.17 C 40.94 42.12 41.86 43.14 42.94 43.96 C 45.26 44.76 46.58 42.51 48.01 41.16 C 47.98 36.11 48.01 31.06 48.00 26.00 C 45.33 26.00 42.67 26.00 40.00 26.00 Z" />
</g>
</svg>
