<?xml version="1.0" encoding="UTF-8" ?>
<!DOCTYPE svg PUBLIC "-//W3C//DTD SVG 1.1//EN" "http://www.w3.org/Graphics/SVG/1.1/DTD/svg11.dtd">
<svg width="60pt" height="60pt" viewBox="0 0 60 60" version="1.1" xmlns="http://www.w3.org/2000/svg">
<g id="#ffffffff">
<path fill="#ffffff" opacity="1.00" d=" M 0.00 0.00 L 60.00 0.00 L 60.00 60.00 L 0.00 60.00 L 0.00 0.00 M 17.95 7.94 C 18.73 10.51 20.77 12.36 22.71 14.09 C 21.57 15.03 20.43 15.96 19.32 16.94 C 16.91 15.87 14.81 13.64 11.98 13.93 C 10.61 13.95 7.85 13.88 8.07 15.92 C 7.90 18.56 11.38 17.85 13.06 18.11 C 19.17 22.35 26.92 22.16 34.03 21.92 C 38.58 21.82 43.13 20.68 46.93 18.11 C 48.57 17.80 50.79 18.50 51.88 16.85 C 52.59 14.98 50.71 13.69 49.02 13.97 C 45.78 13.28 43.31 15.66 40.63 16.97 C 39.54 15.99 38.43 15.04 37.32 14.09 C 39.21 12.36 41.23 10.55 42.02 8.03 C 42.13 6.31 40.39 5.78 39.03 5.72 C 37.89 8.00 36.35 10.10 34.08 11.35 C 31.55 9.69 28.44 9.70 25.91 11.35 C 23.65 10.06 22.03 7.99 20.94 5.65 C 19.65 5.97 17.93 6.22 17.95 7.94 M 4.57 24.60 C 3.28 25.73 4.32 28.20 6.04 27.94 C 8.44 27.47 10.68 26.24 13.18 26.32 C 11.55 31.08 11.72 36.27 13.52 40.96 C 13.14 42.20 12.76 43.43 12.37 44.67 C 10.24 46.13 7.93 47.38 6.09 49.22 C 5.47 50.76 7.19 52.71 8.75 51.74 C 11.58 50.14 14.61 48.51 16.49 45.76 C 18.66 48.32 21.28 50.62 24.51 51.71 C 25.64 52.14 27.28 52.20 27.82 50.86 C 28.39 44.30 27.61 37.68 28.18 31.12 C 28.95 29.28 32.11 29.91 31.92 31.94 C 32.26 38.24 31.68 44.56 32.17 50.85 C 32.43 51.11 32.96 51.62 33.22 51.88 C 37.45 52.09 40.87 48.71 43.49 45.77 C 45.40 48.52 48.43 50.14 51.28 51.75 C 52.69 52.77 54.72 50.64 53.81 49.20 C 52.09 47.29 49.71 46.15 47.64 44.68 C 47.25 43.44 46.86 42.21 46.48 40.97 C 48.43 36.16 48.14 30.94 47.00 25.98 C 49.35 26.54 51.60 27.43 53.97 27.94 C 55.68 28.24 56.78 25.56 55.36 24.62 C 53.09 23.30 50.46 22.77 47.99 21.92 C 36.73 27.34 23.25 27.33 11.99 21.92 C 9.50 22.75 6.90 23.37 4.57 24.60 Z" />
</g>
<g id="#000000ff">
<path fill="#000000" opacity="1.00" d=" M 17.95 7.94 C 17.93 6.22 19.65 5.97 20.94 5.65 C 22.03 7.99 23.65 10.06 25.91 11.35 C 28.44 9.70 31.55 9.69 34.08 11.35 C 36.35 10.10 37.89 8.00 39.03 5.72 C 40.39 5.78 42.13 6.31 42.02 8.03 C 41.23 10.55 39.21 12.36 37.32 14.09 C 38.43 15.04 39.54 15.99 40.63 16.97 C 43.31 15.66 45.78 13.28 49.02 13.97 C 50.71 13.69 52.59 14.98 51.88 16.85 C 50.79 18.50 48.57 17.80 46.93 18.11 C 43.13 20.68 38.58 21.82 34.03 21.92 C 26.92 22.16 19.17 22.35 13.06 18.11 C 11.38 17.85 7.90 18.56 8.07 15.92 C 7.85 13.88 10.61 13.95 11.98 13.93 C 14.81 13.64 16.91 15.87 19.32 16.94 C 20.43 15.96 21.57 15.03 22.71 14.09 C 20.77 12.36 18.73 10.51 17.95 7.94 Z" />
<path fill="#000000" opacity="1.00" d=" M 4.57 24.60 C 6.90 23.37 9.50 22.75 11.99 21.92 C 23.25 27.33 36.73 27.34 47.99 21.92 C 50.46 22.77 53.09 23.30 55.36 24.62 C 56.78 25.56 55.68 28.24 53.97 27.94 C 51.60 27.43 49.35 26.54 47.00 25.98 C 48.14 30.94 48.43 36.16 46.48 40.97 C 46.86 42.21 47.25 43.44 47.64 44.68 C 49.71 46.15 52.09 47.29 53.81 49.20 C 54.72 50.64 52.69 52.77 51.28 51.75 C 48.43 50.14 45.40 48.52 43.49 45.77 C 40.87 48.71 37.45 52.09 33.22 51.88 C 32.96 51.62 32.43 51.11 32.17 50.85 C 31.68 44.56 32.26 38.24 31.92 31.94 C 32.11 29.91 28.95 29.28 28.18 31.12 C 27.61 37.68 28.39 44.30 27.82 50.86 C 27.28 52.20 25.64 52.14 24.51 51.71 C 21.28 50.62 18.66 48.32 16.49 45.76 C 14.61 48.51 11.58 50.14 8.75 51.74 C 7.19 52.71 5.47 50.76 6.09 49.22 C 7.93 47.38 10.24 46.13 12.37 44.67 C 12.76 43.43 13.14 42.20 13.52 40.96 C 11.72 36.27 11.55 31.08 13.18 26.32 C 10.68 26.24 8.44 27.47 6.04 27.94 C 4.32 28.20 3.28 25.73 4.57 24.60 Z" />
</g>
</svg>
