<?xml version="1.0" encoding="UTF-8" ?>
<!DOCTYPE svg PUBLIC "-//W3C//DTD SVG 1.1//EN" "http://www.w3.org/Graphics/SVG/1.1/DTD/svg11.dtd">
<svg width="64pt" height="64pt" viewBox="0 0 64 64" version="1.1" xmlns="http://www.w3.org/2000/svg">
<g id="#ffffffff">
<path fill="#ffffff" opacity="1.00" d=" M 0.00 0.00 L 64.00 0.00 L 64.00 64.00 L 0.00 64.00 L 0.00 0.00 M 23.60 9.36 C 22.40 9.83 21.20 10.31 20.01 10.78 C 21.04 12.22 22.10 13.65 23.19 15.04 C 22.21 16.36 21.25 17.68 20.37 19.06 C 18.73 16.23 15.67 15.12 12.75 14.12 C 12.26 15.36 11.76 16.61 11.26 17.85 C 14.01 18.68 16.52 20.08 18.04 22.60 C 17.78 22.97 17.26 23.70 16.99 24.07 C 15.04 24.42 13.08 24.78 11.12 25.13 C 9.96 26.64 8.79 28.16 7.63 29.67 C 8.65 30.48 9.67 31.28 10.68 32.09 C 11.84 30.62 13.05 29.16 14.69 28.20 C 13.76 32.86 13.73 37.76 15.82 42.13 C 15.35 43.63 14.87 45.12 14.40 46.61 C 12.56 47.85 10.72 49.09 8.87 50.31 C 9.63 51.43 10.37 52.56 11.12 53.69 C 13.29 52.25 15.45 50.80 17.62 49.37 C 17.97 48.31 18.31 47.24 18.65 46.17 C 22.25 50.06 27.02 52.53 32.00 54.17 C 37.00 52.57 41.73 50.04 45.35 46.19 C 45.69 47.25 46.03 48.31 46.38 49.38 C 48.55 50.80 50.72 52.24 52.88 53.68 C 53.63 52.56 54.37 51.43 55.12 50.31 C 53.28 49.08 51.44 47.83 49.60 46.60 C 49.12 45.11 48.65 43.63 48.18 42.14 C 50.24 37.76 50.23 32.87 49.38 28.20 C 50.95 29.20 52.17 30.62 53.31 32.08 C 54.33 31.28 55.36 30.49 56.38 29.71 C 55.23 28.17 54.06 26.65 52.88 25.13 C 50.43 24.72 47.83 24.50 45.73 23.03 C 47.27 20.33 49.78 18.66 52.74 17.85 C 52.24 16.61 51.74 15.36 51.25 14.12 C 48.34 15.13 45.25 16.20 43.68 19.09 C 42.77 17.73 41.79 16.42 40.79 15.12 C 41.90 13.70 42.96 12.24 44.00 10.77 C 42.79 10.31 41.58 9.84 40.37 9.37 C 39.19 10.97 37.86 12.46 36.15 13.50 C 33.62 11.65 30.37 11.64 27.84 13.50 C 26.13 12.44 24.81 10.94 23.60 9.36 Z" />
<path fill="#ffffff" opacity="1.00" d=" M 25.97 17.98 C 29.97 18.02 33.97 18.00 37.96 18.00 C 38.61 19.10 39.25 20.19 39.89 21.30 C 34.59 22.26 29.17 22.12 23.87 21.30 C 24.55 20.19 25.26 19.08 25.97 17.98 Z" />
<path fill="#ffffff" opacity="1.00" d=" M 21.35 24.74 C 28.29 26.42 35.63 26.44 42.58 24.74 C 45.96 28.90 47.03 34.86 44.81 39.81 C 42.82 44.40 38.43 47.28 34.03 49.26 C 33.97 42.18 34.01 35.09 34.00 28.00 C 32.67 28.00 31.33 28.00 30.00 28.00 C 29.98 35.09 30.03 42.18 29.97 49.27 C 25.58 47.21 21.10 44.40 19.15 39.73 C 16.95 34.79 18.12 28.94 21.35 24.74 Z" />
</g>
<g id="#000000ff">
<path fill="#000000" opacity="1.00" d=" M 23.60 9.36 C 24.81 10.94 26.13 12.44 27.84 13.50 C 30.37 11.64 33.62 11.65 36.15 13.50 C 37.86 12.46 39.19 10.97 40.37 9.37 C 41.58 9.84 42.79 10.31 44.00 10.77 C 42.96 12.24 41.90 13.70 40.79 15.12 C 41.79 16.42 42.77 17.73 43.68 19.09 C 45.25 16.20 48.34 15.13 51.25 14.12 C 51.74 15.36 52.24 16.61 52.74 17.85 C 49.78 18.66 47.27 20.33 45.73 23.03 C 47.83 24.50 50.43 24.72 52.88 25.13 C 54.06 26.65 55.23 28.17 56.38 29.71 C 55.36 30.49 54.33 31.28 53.31 32.08 C 52.17 30.62 50.95 29.20 49.38 28.20 C 50.23 32.87 50.24 37.76 48.18 42.14 C 48.65 43.63 49.12 45.11 49.60 46.60 C 51.44 47.83 53.28 49.08 55.12 50.31 C 54.37 51.43 53.63 52.56 52.88 53.68 C 50.72 52.24 48.55 50.80 46.38 49.38 C 46.03 48.31 45.69 47.25 45.35 46.19 C 41.73 50.04 37.00 52.57 32.00 54.17 C 27.02 52.53 22.25 50.06 18.65 46.17 C 18.31 47.24 17.97 48.31 17.62 49.37 C 15.45 50.80 13.29 52.25 11.12 53.69 C 10.37 52.56 9.63 51.43 8.87 50.31 C 10.72 49.09 12.56 47.85 14.40 46.61 C 14.87 45.12 15.35 43.63 15.82 42.13 C 13.73 37.76 13.76 32.86 14.69 28.20 C 13.05 29.16 11.84 30.62 10.68 32.09 C 9.67 31.28 8.65 30.48 7.63 29.67 C 8.79 28.16 9.96 26.64 11.12 25.13 C 13.08 24.78 15.04 24.42 16.99 24.07 C 17.26 23.70 17.78 22.97 18.04 22.60 C 16.52 20.08 14.01 18.68 11.26 17.85 C 11.76 16.61 12.26 15.36 12.75 14.12 C 15.67 15.12 18.73 16.23 20.37 19.06 C 21.25 17.68 22.21 16.36 23.19 15.04 C 22.10 13.65 21.04 12.22 20.01 10.78 C 21.20 10.31 22.40 9.83 23.60 9.36 M 25.97 17.98 C 25.26 19.08 24.55 20.19 23.87 21.30 C 29.17 22.12 34.59 22.26 39.89 21.30 C 39.25 20.19 38.61 19.10 37.96 18.00 C 33.97 18.00 29.97 18.02 25.97 17.98 M 21.35 24.74 C 18.12 28.94 16.95 34.79 19.15 39.73 C 21.10 44.40 25.58 47.21 29.97 49.27 C 30.03 42.18 29.98 35.09 30.00 28.00 C 31.33 28.00 32.67 28.00 34.00 28.00 C 34.01 35.09 33.97 42.18 34.03 49.26 C 38.43 47.28 42.82 44.40 44.81 39.81 C 47.03 34.86 45.96 28.90 42.58 24.74 C 35.63 26.44 28.29 26.42 21.35 24.74 Z" />
</g>
</svg>
