<?xml version="1.0" encoding="UTF-8" ?>
<!DOCTYPE svg PUBLIC "-//W3C//DTD SVG 1.1//EN" "http://www.w3.org/Graphics/SVG/1.1/DTD/svg11.dtd">
<svg width="64pt" height="64pt" viewBox="0 0 64 64" version="1.1" xmlns="http://www.w3.org/2000/svg">
<g id="#ffffffff">
<path fill="#ffffff" opacity="1.00" d=" M 0.00 0.00 L 64.00 0.00 L 64.00 64.00 L 0.00 64.00 L 0.00 0.00 M 16.10 13.04 C 12.90 14.68 11.71 18.42 12.03 21.81 C 10.11 22.86 7.90 24.32 8.05 26.83 C 7.91 36.55 8.05 46.28 8.00 56.00 C 11.33 56.00 14.67 56.00 18.00 56.00 C 18.00 54.67 18.00 53.33 18.00 52.00 C 27.33 52.00 36.67 52.00 46.00 52.00 C 46.00 53.33 46.00 54.67 46.00 56.00 C 49.33 56.00 52.67 56.00 56.00 56.00 C 55.94 49.29 56.10 42.57 55.95 35.86 C 55.99 32.76 53.22 29.98 50.11 30.05 C 42.48 29.90 34.85 30.06 27.22 29.99 C 26.60 28.69 25.97 27.39 25.35 26.08 C 27.15 23.85 28.64 21.00 27.74 18.07 C 26.68 13.12 20.43 10.38 16.10 13.04 Z" />
<path fill="#ffffff" opacity="1.00" d=" M 18.29 16.37 C 20.81 15.06 24.13 17.18 24.01 20.01 C 24.14 23.12 20.18 25.18 17.71 23.29 C 15.20 21.72 15.56 17.49 18.29 16.37 Z" />
<path fill="#ffffff" opacity="1.00" d=" M 12.14 26.48 C 12.58 26.37 13.47 26.16 13.91 26.06 C 14.09 32.04 13.96 38.02 14.00 44.00 C 26.67 44.00 39.33 44.00 52.00 44.00 C 52.00 46.67 52.00 49.33 52.00 52.00 C 51.50 52.00 50.50 52.00 50.00 52.00 C 50.00 50.67 50.00 49.33 50.00 48.00 C 38.00 48.00 26.00 48.00 14.00 48.00 C 14.00 49.33 14.00 50.67 14.00 52.00 C 13.50 52.00 12.50 52.00 12.00 52.00 C 12.10 43.50 11.80 34.98 12.14 26.48 Z" />
<path fill="#ffffff" opacity="1.00" d=" M 17.99 27.84 C 19.23 27.88 20.47 27.91 21.71 27.93 C 24.31 31.47 24.21 35.82 23.99 40.00 C 21.99 40.00 20.00 40.00 18.00 40.00 C 18.00 35.95 18.00 31.89 17.99 27.84 Z" />
<path fill="#ffffff" opacity="1.00" d=" M 28.00 34.00 C 35.60 34.12 43.22 33.76 50.80 34.17 C 52.81 35.34 51.68 38.11 52.06 40.00 C 44.04 40.00 36.02 40.00 28.00 40.00 C 28.00 38.00 28.00 36.00 28.00 34.00 Z" />
</g>
<g id="#000000ff">
<path fill="#000000" opacity="1.00" d=" M 16.10 13.04 C 20.43 10.38 26.68 13.12 27.74 18.07 C 28.64 21.00 27.15 23.85 25.35 26.08 C 25.97 27.39 26.60 28.69 27.22 29.99 C 34.85 30.06 42.48 29.90 50.11 30.05 C 53.22 29.98 55.99 32.76 55.95 35.86 C 56.10 42.57 55.94 49.29 56.00 56.00 C 52.67 56.00 49.33 56.00 46.00 56.00 C 46.00 54.67 46.00 53.33 46.00 52.00 C 36.67 52.00 27.33 52.00 18.00 52.00 C 18.00 53.33 18.00 54.67 18.00 56.00 C 14.67 56.00 11.33 56.00 8.00 56.00 C 8.05 46.28 7.91 36.55 8.05 26.83 C 7.90 24.32 10.11 22.86 12.03 21.81 C 11.71 18.42 12.90 14.68 16.10 13.04 M 18.29 16.37 C 15.56 17.49 15.20 21.72 17.71 23.29 C 20.18 25.18 24.14 23.12 24.01 20.01 C 24.13 17.18 20.81 15.06 18.29 16.37 M 12.14 26.48 C 11.80 34.98 12.10 43.50 12.00 52.00 C 12.50 52.00 13.50 52.00 14.00 52.00 C 14.00 50.67 14.00 49.33 14.00 48.00 C 26.00 48.00 38.00 48.00 50.00 48.00 C 50.00 49.33 50.00 50.67 50.00 52.00 C 50.50 52.00 51.50 52.00 52.00 52.00 C 52.00 49.33 52.00 46.67 52.00 44.00 C 39.33 44.00 26.67 44.00 14.00 44.00 C 13.96 38.02 14.09 32.04 13.91 26.06 C 13.47 26.16 12.58 26.37 12.14 26.48 M 17.99 27.84 C 18.00 31.89 18.00 35.95 18.00 40.00 C 20.00 40.00 21.99 40.00 23.99 40.00 C 24.21 35.82 24.31 31.47 21.71 27.93 C 20.47 27.91 19.23 27.88 17.99 27.84 M 28.00 34.00 C 28.00 36.00 28.00 38.00 28.00 40.00 C 36.02 40.00 44.04 40.00 52.06 40.00 C 51.68 38.11 52.81 35.34 50.80 34.17 C 43.22 33.76 35.60 34.12 28.00 34.00 Z" />
</g>
</svg>
