<?xml version="1.0" encoding="UTF-8" ?>
<!DOCTYPE svg PUBLIC "-//W3C//DTD SVG 1.1//EN" "http://www.w3.org/Graphics/SVG/1.1/DTD/svg11.dtd">
<svg width="60pt" height="60pt" viewBox="0 0 60 60" version="1.1" xmlns="http://www.w3.org/2000/svg">
<g id="#ffffffff">
<path fill="#ffffff" opacity="1.00" d=" M 0.00 0.00 L 60.00 0.00 L 60.00 60.00 L 0.00 60.00 L 0.00 0.00 M 24.50 4.65 C 14.69 6.84 6.87 15.77 6.11 25.82 C 5.08 35.48 10.68 45.34 19.43 49.52 C 27.04 53.39 35.82 51.58 44.00 52.01 C 47.32 51.76 52.59 53.26 53.85 48.97 C 54.20 41.97 53.93 34.94 53.98 27.93 C 54.00 20.95 50.75 14.07 45.39 9.61 C 39.73 4.77 31.73 2.92 24.50 4.65 Z" />
<path fill="#ffffff" opacity="1.00" d=" M 27.16 8.20 C 33.53 7.26 40.28 9.60 44.63 14.37 C 49.48 19.46 51.23 27.23 49.09 33.92 C 46.98 41.06 40.52 46.66 33.16 47.73 C 26.45 48.88 19.27 46.26 14.87 41.08 C 10.15 35.74 8.72 27.79 11.22 21.13 C 13.61 14.32 20.00 9.15 27.16 8.20 M 31.17 14.06 C 29.83 14.95 29.94 16.75 29.59 18.14 C 28.52 25.42 27.02 32.63 26.10 39.92 C 25.79 41.52 27.59 42.35 28.91 41.90 C 30.27 40.68 30.15 38.69 30.54 37.05 C 31.57 30.04 33.03 23.08 33.91 16.04 C 34.17 14.51 32.47 13.67 31.17 14.06 M 20.67 20.63 C 18.87 22.95 17.04 25.34 15.93 28.08 C 17.30 30.89 19.08 33.52 21.14 35.87 C 22.48 36.34 23.99 35.51 24.01 34.02 C 23.28 31.77 21.64 29.97 20.40 28.00 C 21.66 26.03 23.26 24.22 24.05 22.00 C 24.17 20.28 21.67 19.19 20.67 20.63 M 36.03 22.03 C 36.72 24.26 38.38 26.04 39.60 28.00 C 38.33 29.96 36.78 31.80 35.95 34.02 C 35.97 35.63 38.16 36.77 39.28 35.41 C 41.12 33.13 42.87 30.70 44.07 28.01 C 42.89 25.31 41.13 22.89 39.29 20.60 C 38.28 19.22 35.77 20.38 36.03 22.03 Z" />
</g>
<g id="#000000ff">
<path fill="#968176" opacity="1.00" d=" M 24.50 4.65 C 31.73 2.92 39.73 4.77 45.39 9.61 C 50.75 14.07 54.00 20.95 53.98 27.93 C 53.93 34.94 54.20 41.97 53.85 48.97 C 52.59 53.26 47.32 51.76 44.00 52.01 C 35.82 51.58 27.04 53.39 19.43 49.52 C 10.68 45.34 5.08 35.48 6.11 25.82 C 6.87 15.77 14.69 6.84 24.50 4.65 M 27.16 8.20 C 20.00 9.15 13.61 14.32 11.22 21.13 C 8.72 27.79 10.15 35.74 14.87 41.08 C 19.27 46.26 26.45 48.88 33.16 47.73 C 40.52 46.66 46.98 41.06 49.09 33.92 C 51.23 27.23 49.48 19.46 44.63 14.37 C 40.28 9.60 33.53 7.26 27.16 8.20 Z" />
<path fill="#968176" opacity="1.00" d=" M 31.17 14.06 C 32.47 13.67 34.17 14.51 33.91 16.04 C 33.03 23.08 31.57 30.04 30.54 37.05 C 30.15 38.69 30.27 40.68 28.91 41.90 C 27.59 42.35 25.79 41.52 26.10 39.92 C 27.02 32.63 28.52 25.42 29.59 18.14 C 29.94 16.75 29.83 14.95 31.17 14.06 Z" />
<path fill="#968176" opacity="1.00" d=" M 20.67 20.63 C 21.67 19.19 24.17 20.28 24.05 22.00 C 23.26 24.22 21.66 26.03 20.40 28.00 C 21.64 29.97 23.28 31.77 24.01 34.02 C 23.99 35.51 22.48 36.34 21.14 35.87 C 19.08 33.52 17.30 30.89 15.93 28.08 C 17.04 25.34 18.87 22.95 20.67 20.63 Z" />
<path fill="#968176" opacity="1.00" d=" M 36.03 22.03 C 35.77 20.38 38.28 19.22 39.29 20.60 C 41.13 22.89 42.89 25.31 44.07 28.01 C 42.87 30.70 41.12 33.13 39.28 35.41 C 38.16 36.77 35.97 35.63 35.95 34.02 C 36.78 31.80 38.33 29.96 39.60 28.00 C 38.38 26.04 36.72 24.26 36.03 22.03 Z" />
</g>
</svg>
