<?xml version="1.0" encoding="UTF-8" ?>
<!DOCTYPE svg PUBLIC "-//W3C//DTD SVG 1.1//EN" "http://www.w3.org/Graphics/SVG/1.1/DTD/svg11.dtd">
<svg width="60pt" height="60pt" viewBox="0 0 60 60" version="1.1" xmlns="http://www.w3.org/2000/svg">
<g id="#ffffffff">
<path fill="#ffffff" opacity="1.00" d=" M 0.00 0.00 L 29.05 0.00 C 26.05 0.65 24.44 3.27 23.58 6.00 C 20.43 6.05 17.23 5.72 14.12 6.33 C 11.33 7.12 9.77 10.10 10.01 12.88 C 10.02 24.62 9.91 36.36 10.06 48.09 C 9.97 51.22 12.75 54.00 15.88 53.93 C 25.30 54.05 34.73 54.06 44.15 53.93 C 47.25 53.98 50.01 51.21 49.93 48.10 C 50.09 36.38 49.97 24.64 49.99 12.91 C 50.21 10.16 48.72 7.20 45.97 6.36 C 42.83 5.70 39.59 6.06 36.41 6.00 C 35.54 3.28 33.94 0.63 30.93 0.00 L 60.00 0.00 L 60.00 60.00 L 0.00 60.00 L 0.00 0.00 Z" />
<path fill="#ffffff" opacity="1.00" d=" M 29.16 4.09 C 31.55 3.12 33.20 6.82 30.82 7.83 C 28.46 8.98 26.83 5.16 29.16 4.09 Z" />
<path fill="#ffffff" opacity="1.00" d=" M 15.05 10.18 C 16.56 9.97 18.09 10.00 19.62 9.96 C 20.42 11.77 21.52 14.07 23.88 13.94 C 28.25 14.02 32.65 14.17 37.01 13.84 C 38.93 13.47 39.55 11.44 40.39 9.96 C 42.22 10.25 45.77 9.14 45.92 11.92 C 45.99 24.24 46.19 36.59 45.82 48.90 C 45.59 49.13 45.12 49.59 44.89 49.82 C 35.94 50.25 26.95 49.87 17.98 50.01 C 16.54 50.03 13.95 50.20 14.07 48.07 C 13.89 36.70 14.06 25.34 13.99 13.97 C 14.10 12.66 13.71 10.99 15.05 10.18 M 39.22 24.17 C 35.26 27.59 31.79 31.55 28.01 35.17 C 26.29 33.48 24.69 31.64 22.77 30.17 C 21.11 29.47 19.41 31.11 20.18 32.77 C 22.30 35.32 24.69 37.67 27.21 39.83 C 27.60 39.83 28.38 39.84 28.76 39.84 C 33.17 35.93 37.21 31.59 41.35 27.41 C 43.04 26.00 41.21 23.14 39.22 24.17 Z" />
</g>
<g id="#000000ff">
<path fill="#968176" opacity="1.00" d=" M 29.05 0.00 L 30.93 0.00 C 33.94 0.63 35.54 3.28 36.41 6.00 C 39.59 6.06 42.83 5.70 45.97 6.36 C 48.72 7.20 50.21 10.16 49.99 12.91 C 49.97 24.64 50.09 36.38 49.93 48.10 C 50.01 51.21 47.25 53.98 44.15 53.93 C 34.73 54.06 25.30 54.05 15.88 53.93 C 12.75 54.00 9.97 51.22 10.06 48.09 C 9.91 36.36 10.02 24.62 10.01 12.88 C 9.77 10.10 11.33 7.12 14.12 6.33 C 17.23 5.72 20.43 6.05 23.58 6.00 C 24.44 3.27 26.05 0.65 29.05 0.00 M 29.16 4.09 C 26.83 5.16 28.46 8.98 30.82 7.83 C 33.20 6.82 31.55 3.12 29.16 4.09 M 15.05 10.18 C 13.71 10.99 14.10 12.66 13.99 13.97 C 14.06 25.34 13.89 36.70 14.07 48.07 C 13.95 50.20 16.54 50.03 17.98 50.01 C 26.95 49.87 35.94 50.25 44.89 49.82 C 45.12 49.59 45.59 49.13 45.82 48.90 C 46.19 36.59 45.99 24.24 45.92 11.92 C 45.77 9.14 42.22 10.25 40.39 9.96 C 39.55 11.44 38.93 13.47 37.01 13.84 C 32.65 14.17 28.25 14.02 23.88 13.94 C 21.52 14.07 20.42 11.77 19.62 9.96 C 18.09 10.00 16.56 9.97 15.05 10.18 Z" />
<path fill="#968176" opacity="1.00" d=" M 39.22 24.17 C 41.21 23.14 43.04 26.00 41.35 27.41 C 37.21 31.59 33.17 35.93 28.76 39.84 C 28.38 39.84 27.60 39.83 27.21 39.83 C 24.69 37.67 22.30 35.32 20.18 32.77 C 19.41 31.11 21.11 29.47 22.77 30.17 C 24.69 31.64 26.29 33.48 28.01 35.17 C 31.79 31.55 35.26 27.59 39.22 24.17 Z" />
</g>
</svg>
