<?xml version="1.0" encoding="UTF-8" ?>
<!DOCTYPE svg PUBLIC "-//W3C//DTD SVG 1.1//EN" "http://www.w3.org/Graphics/SVG/1.1/DTD/svg11.dtd">
<svg width="60pt" height="60pt" viewBox="0 0 60 60" version="1.1" xmlns="http://www.w3.org/2000/svg">
<g id="#ffffffff">
<path fill="#ffffff" opacity="1.00" d=" M 0.00 0.00 L 60.00 0.00 L 60.00 60.00 L 0.00 60.00 L 0.00 0.00 M 10.34 8.39 C 8.58 9.14 7.84 11.13 8.00 12.93 C 8.04 24.66 7.92 36.39 8.05 48.11 C 7.95 50.68 10.64 52.32 12.98 52.00 C 24.68 51.97 36.39 52.08 48.10 51.95 C 50.61 52.00 52.34 49.41 52.00 47.06 C 52.01 35.68 52.00 24.29 52.00 12.91 C 52.31 10.58 50.64 7.94 48.10 8.05 C 37.06 7.90 26.00 8.08 14.95 7.97 C 13.42 8.06 11.80 7.81 10.34 8.39 Z" />
<path fill="#ffffff" opacity="1.00" d=" M 12.00 12.00 C 24.00 12.00 36.00 12.00 48.00 12.00 C 48.00 16.00 48.00 20.01 48.00 24.01 C 45.86 24.00 43.71 24.00 41.57 23.96 C 38.59 20.14 33.88 17.55 28.93 18.05 C 24.72 18.26 21.02 20.72 18.45 23.95 C 16.30 24.00 14.15 23.99 12.00 24.02 C 12.00 20.01 12.00 16.00 12.00 12.00 M 42.00 16.00 C 42.00 17.33 42.00 18.67 42.00 20.00 C 43.33 20.00 44.67 20.00 46.00 20.00 C 46.00 18.67 46.00 17.33 46.00 16.00 C 44.67 16.00 43.33 16.00 42.00 16.00 Z" />
<path fill="#ffffff" opacity="1.00" d=" M 26.48 22.66 C 33.34 19.72 41.47 26.50 39.82 33.77 C 38.84 40.85 29.48 44.53 23.97 39.93 C 17.74 35.67 19.32 24.99 26.48 22.66 M 27.79 26.19 C 28.83 28.96 26.63 30.52 24.14 29.82 C 23.69 32.71 24.44 36.12 27.39 37.39 C 31.52 39.66 36.94 35.54 35.90 30.96 C 35.36 27.17 31.26 25.36 27.79 26.19 Z" />
</g>
<g id="#000000ff">
<path fill="#000000" opacity="1.00" d=" M 10.34 8.39 C 11.80 7.81 13.42 8.06 14.95 7.97 C 26.00 8.08 37.06 7.90 48.10 8.05 C 50.64 7.94 52.31 10.58 52.00 12.91 C 52.00 24.29 52.01 35.68 52.00 47.06 C 52.34 49.41 50.61 52.00 48.10 51.95 C 36.39 52.08 24.68 51.97 12.98 52.00 C 10.64 52.32 7.95 50.68 8.05 48.11 C 7.92 36.39 8.04 24.66 8.00 12.93 C 7.84 11.13 8.58 9.14 10.34 8.39 M 12.00 12.00 C 12.00 16.00 12.00 20.01 12.00 24.02 C 14.15 23.99 16.30 24.00 18.45 23.95 C 21.02 20.72 24.72 18.26 28.93 18.05 C 33.88 17.55 38.59 20.14 41.57 23.96 C 43.71 24.00 45.86 24.00 48.00 24.01 C 48.00 20.01 48.00 16.00 48.00 12.00 C 36.00 12.00 24.00 12.00 12.00 12.00 M 26.48 22.66 C 19.32 24.99 17.74 35.67 23.97 39.93 C 29.48 44.53 38.84 40.85 39.82 33.77 C 41.47 26.50 33.34 19.72 26.48 22.66 Z" />
<path fill="#000000" opacity="1.00" d=" M 42.00 16.00 C 43.33 16.00 44.67 16.00 46.00 16.00 C 46.00 17.33 46.00 18.67 46.00 20.00 C 44.67 20.00 43.33 20.00 42.00 20.00 C 42.00 18.67 42.00 17.33 42.00 16.00 Z" />
<path fill="#000000" opacity="1.00" d=" M 27.79 26.19 C 31.26 25.36 35.36 27.17 35.90 30.96 C 36.94 35.54 31.52 39.66 27.39 37.39 C 24.44 36.12 23.69 32.71 24.14 29.82 C 26.63 30.52 28.83 28.96 27.79 26.19 Z" />
</g>
</svg>
