<?xml version="1.0" encoding="UTF-8" ?>
<!DOCTYPE svg PUBLIC "-//W3C//DTD SVG 1.1//EN" "http://www.w3.org/Graphics/SVG/1.1/DTD/svg11.dtd">
<svg width="64pt" height="64pt" viewBox="0 0 64 64" version="1.1" xmlns="http://www.w3.org/2000/svg">
<g id="#ffffffff">
<path fill="#ffffff" opacity="1.00" d=" M 0.00 0.00 L 64.00 0.00 L 64.00 64.00 L 0.00 64.00 L 0.00 0.00 M 19.38 10.54 C 13.98 12.02 9.95 17.33 10.03 22.95 C 10.01 29.34 9.89 35.74 10.10 42.13 C 10.47 48.61 16.43 54.06 22.90 53.96 C 28.98 54.03 35.06 54.04 41.14 53.96 C 47.28 54.04 52.95 49.13 53.79 43.06 C 54.25 38.39 53.89 33.68 54.00 28.99 C 53.95 24.67 54.54 19.92 51.99 16.12 C 49.37 11.69 44.09 9.59 39.08 9.99 C 32.53 10.28 25.87 9.40 19.38 10.54 Z" />
<path fill="#ffffff" opacity="1.00" d=" M 21.20 14.20 C 27.82 13.77 34.48 14.06 41.12 14.03 C 45.85 13.91 50.07 18.15 49.96 22.88 C 50.03 28.95 50.03 35.03 49.96 41.10 C 50.09 45.86 45.81 50.10 41.05 49.97 C 35.00 50.03 28.95 50.03 22.90 49.96 C 18.15 50.08 13.89 45.83 14.03 41.07 C 13.97 35.03 13.97 28.98 14.03 22.93 C 13.93 18.79 17.12 14.89 21.20 14.20 M 43.08 21.97 C 45.88 22.62 46.30 19.07 44.08 18.06 C 42.23 18.47 41.12 20.85 43.08 21.97 M 28.42 20.58 C 24.51 21.78 21.37 25.12 20.39 29.09 C 18.43 35.91 23.86 43.46 30.91 43.92 C 38.07 44.79 44.81 38.04 43.91 30.88 C 43.44 23.58 35.36 18.12 28.42 20.58 Z" />
<path fill="#ffffff" opacity="1.00" d=" M 29.31 24.47 C 34.98 22.13 41.51 28.02 39.75 33.90 C 38.66 39.47 31.12 41.93 26.91 38.16 C 22.16 34.60 23.60 26.20 29.31 24.47 Z" />
</g>
<g id="#000000ff">
<path fill="#000000" opacity="1.00" d=" M 19.38 10.54 C 25.87 9.40 32.53 10.28 39.08 9.99 C 44.09 9.59 49.37 11.69 51.99 16.12 C 54.54 19.92 53.95 24.67 54.00 28.99 C 53.89 33.68 54.25 38.39 53.79 43.06 C 52.95 49.13 47.28 54.04 41.14 53.96 C 35.06 54.04 28.98 54.03 22.90 53.96 C 16.43 54.06 10.47 48.61 10.10 42.13 C 9.89 35.74 10.01 29.34 10.03 22.95 C 9.95 17.33 13.98 12.02 19.38 10.54 M 21.20 14.20 C 17.12 14.89 13.93 18.79 14.03 22.93 C 13.97 28.98 13.97 35.03 14.03 41.07 C 13.89 45.83 18.15 50.08 22.90 49.96 C 28.95 50.03 35.00 50.03 41.05 49.97 C 45.81 50.10 50.09 45.86 49.96 41.10 C 50.03 35.03 50.03 28.95 49.96 22.88 C 50.07 18.15 45.85 13.91 41.12 14.03 C 34.48 14.06 27.82 13.77 21.20 14.20 Z" />
<path fill="#000000" opacity="1.00" d=" M 43.08 21.97 C 41.12 20.85 42.23 18.47 44.08 18.06 C 46.30 19.07 45.88 22.62 43.08 21.97 Z" />
<path fill="#000000" opacity="1.00" d=" M 28.42 20.58 C 35.36 18.12 43.44 23.58 43.91 30.88 C 44.81 38.04 38.07 44.79 30.91 43.92 C 23.86 43.46 18.43 35.91 20.39 29.09 C 21.37 25.12 24.51 21.78 28.42 20.58 M 29.31 24.47 C 23.60 26.20 22.16 34.60 26.91 38.16 C 31.12 41.93 38.66 39.47 39.75 33.90 C 41.51 28.02 34.98 22.13 29.31 24.47 Z" />
</g>
</svg>
