<?xml version="1.0" encoding="UTF-8" ?>
<!DOCTYPE svg PUBLIC "-//W3C//DTD SVG 1.1//EN" "http://www.w3.org/Graphics/SVG/1.1/DTD/svg11.dtd">
<svg width="64pt" height="64pt" viewBox="0 0 64 64" version="1.1" xmlns="http://www.w3.org/2000/svg">
<g id="#ffffffff">
<path fill="#ffffff" opacity="1.00" d=" M 0.00 0.00 L 64.00 0.00 L 64.00 64.00 L 0.00 64.00 L 0.00 0.00 M 42.60 2.58 C 39.46 5.71 36.32 8.85 33.19 12.00 C 36.30 15.15 39.45 18.27 42.58 21.41 C 43.52 20.46 44.47 19.52 45.42 18.59 C 43.88 17.07 42.37 15.53 40.84 14.01 C 45.61 13.99 50.39 14.00 55.16 14.01 C 53.65 15.53 52.12 17.05 50.59 18.56 C 51.52 19.51 52.45 20.46 53.38 21.41 C 56.56 18.30 59.67 15.13 62.84 12.00 C 59.71 8.86 56.55 5.74 53.44 2.58 C 52.49 3.53 51.54 4.48 50.58 5.42 C 52.12 6.93 53.64 8.47 55.18 9.99 C 50.40 10.01 45.63 10.00 40.86 10.00 C 42.37 8.46 43.89 6.93 45.42 5.41 C 44.48 4.47 43.53 3.53 42.60 2.58 M 13.71 7.74 C 11.36 10.33 8.58 12.58 6.60 15.48 C 4.92 19.46 7.71 23.36 9.17 26.94 C 16.23 41.26 29.08 52.56 44.16 57.77 C 49.42 59.05 52.46 53.81 55.81 50.83 C 58.09 49.17 58.73 45.56 56.50 43.59 C 53.41 40.61 50.65 37.20 47.20 34.66 C 43.24 32.99 40.81 37.33 38.30 39.54 C 32.38 36.62 27.25 31.94 24.58 25.83 C 26.76 23.29 31.10 20.93 29.62 16.96 C 27.13 13.64 23.90 10.92 21.11 7.86 C 19.29 5.59 15.57 5.43 13.71 7.74 Z" />
<path fill="#ffffff" opacity="1.00" d=" M 17.24 9.81 C 20.33 12.57 23.02 15.73 26.02 18.58 C 24.08 20.80 21.92 22.81 19.85 24.90 C 22.94 33.97 30.45 40.73 39.14 44.36 C 41.23 42.28 43.31 40.20 45.37 38.10 C 48.30 41.02 51.33 43.86 54.08 46.96 C 51.25 49.14 49.37 52.78 45.95 54.01 C 29.43 48.79 15.77 35.22 10.15 18.85 C 9.53 17.51 10.89 16.50 11.62 15.61 C 13.50 13.68 15.40 11.78 17.24 9.81 Z" />
</g>
<g id="#000000ff">
<path fill="#000000" opacity="1.00" d=" M 42.60 2.58 C 43.53 3.53 44.48 4.47 45.42 5.41 C 43.89 6.93 42.37 8.46 40.86 10.00 C 45.63 10.00 50.40 10.01 55.18 9.99 C 53.64 8.47 52.12 6.93 50.58 5.42 C 51.54 4.48 52.49 3.53 53.44 2.58 C 56.55 5.74 59.71 8.86 62.84 12.00 C 59.67 15.13 56.56 18.30 53.38 21.41 C 52.45 20.46 51.52 19.51 50.59 18.56 C 52.12 17.05 53.65 15.53 55.16 14.01 C 50.39 14.00 45.61 13.99 40.84 14.01 C 42.37 15.53 43.88 17.07 45.42 18.59 C 44.47 19.52 43.52 20.46 42.58 21.41 C 39.45 18.27 36.30 15.15 33.19 12.00 C 36.32 8.85 39.46 5.71 42.60 2.58 Z" />
<path fill="#000000" opacity="1.00" d=" M 13.71 7.74 C 15.57 5.43 19.29 5.59 21.11 7.86 C 23.90 10.92 27.13 13.64 29.62 16.96 C 31.10 20.93 26.76 23.29 24.58 25.83 C 27.25 31.94 32.38 36.62 38.30 39.54 C 40.81 37.33 43.24 32.99 47.20 34.66 C 50.65 37.20 53.41 40.61 56.50 43.59 C 58.73 45.56 58.09 49.17 55.81 50.83 C 52.46 53.81 49.42 59.05 44.16 57.77 C 29.08 52.56 16.23 41.26 9.17 26.94 C 7.71 23.36 4.92 19.46 6.60 15.48 C 8.58 12.58 11.36 10.33 13.71 7.74 M 17.24 9.81 C 15.40 11.78 13.50 13.68 11.62 15.61 C 10.89 16.50 9.53 17.51 10.15 18.85 C 15.77 35.22 29.43 48.79 45.95 54.01 C 49.37 52.78 51.25 49.14 54.08 46.96 C 51.33 43.86 48.30 41.02 45.37 38.10 C 43.31 40.20 41.23 42.28 39.14 44.36 C 30.45 40.73 22.94 33.97 19.85 24.90 C 21.92 22.81 24.08 20.80 26.02 18.58 C 23.02 15.73 20.33 12.57 17.24 9.81 Z" />
</g>
</svg>
