<?xml version="1.0" encoding="UTF-8" ?>
<!DOCTYPE svg PUBLIC "-//W3C//DTD SVG 1.1//EN" "http://www.w3.org/Graphics/SVG/1.1/DTD/svg11.dtd">
<svg width="64pt" height="64pt" viewBox="0 0 64 64" version="1.1" xmlns="http://www.w3.org/2000/svg">
<g id="#ffffffff">
<path fill="#ffffff" opacity="1.00" d=" M 0.00 0.00 L 64.00 0.00 L 64.00 64.00 L 0.00 64.00 L 0.00 0.00 M 6.00 20.92 C 6.01 32.62 6.00 44.31 6.00 56.00 C 23.33 56.00 40.67 56.00 58.00 56.00 C 58.00 44.31 57.99 32.62 58.00 20.93 C 49.38 15.09 40.71 9.31 31.99 3.60 C 23.31 9.35 14.67 15.16 6.00 20.92 Z" />
<path fill="#ffffff" opacity="1.00" d=" M 11.53 22.16 C 18.30 17.51 25.20 13.05 32.00 8.44 C 38.87 12.94 45.66 17.56 52.51 22.09 C 45.71 27.27 38.85 32.37 32.00 37.50 C 25.19 32.38 18.38 27.24 11.53 22.16 M 30.00 14.00 C 30.00 16.00 30.00 18.00 30.00 20.00 C 28.00 20.00 26.00 20.00 24.00 20.00 C 24.00 21.33 24.00 22.67 24.00 24.00 C 26.00 24.00 28.00 24.00 30.00 24.00 C 30.00 26.00 30.00 28.00 30.00 30.00 C 31.33 30.00 32.67 30.00 34.00 30.00 C 34.00 28.00 34.00 26.00 34.00 24.00 C 36.00 24.00 38.00 24.00 40.00 24.00 C 40.00 22.67 40.00 21.33 40.00 20.00 C 38.00 20.00 36.00 20.00 34.00 20.00 C 34.00 18.00 34.00 16.00 34.00 14.00 C 32.67 14.00 31.33 14.00 30.00 14.00 Z" />
<path fill="#ffffff" opacity="1.00" d=" M 10.01 26.00 C 17.35 31.48 24.67 37.00 32.00 42.50 C 39.36 37.05 46.66 31.52 53.99 26.03 C 54.01 34.69 54.00 43.34 54.00 52.00 C 39.33 52.00 24.67 52.00 10.00 52.00 C 10.00 43.33 9.99 34.67 10.01 26.00 Z" />
</g>
<g id="#000000ff">
<path fill="#000000" opacity="1.00" d=" M 6.00 20.92 C 14.67 15.16 23.31 9.35 31.99 3.60 C 40.71 9.31 49.38 15.09 58.00 20.93 C 57.99 32.62 58.00 44.31 58.00 56.00 C 40.67 56.00 23.33 56.00 6.00 56.00 C 6.00 44.31 6.01 32.62 6.00 20.92 M 11.53 22.16 C 18.38 27.24 25.19 32.38 32.00 37.50 C 38.85 32.37 45.71 27.27 52.51 22.09 C 45.66 17.56 38.87 12.94 32.00 8.44 C 25.20 13.05 18.30 17.51 11.53 22.16 M 10.01 26.00 C 9.99 34.67 10.00 43.33 10.00 52.00 C 24.67 52.00 39.33 52.00 54.00 52.00 C 54.00 43.34 54.01 34.69 53.99 26.03 C 46.66 31.52 39.36 37.05 32.00 42.50 C 24.67 37.00 17.35 31.48 10.01 26.00 Z" />
<path fill="#000000" opacity="1.00" d=" M 30.00 14.00 C 31.33 14.00 32.67 14.00 34.00 14.00 C 34.00 16.00 34.00 18.00 34.00 20.00 C 36.00 20.00 38.00 20.00 40.00 20.00 C 40.00 21.33 40.00 22.67 40.00 24.00 C 38.00 24.00 36.00 24.00 34.00 24.00 C 34.00 26.00 34.00 28.00 34.00 30.00 C 32.67 30.00 31.33 30.00 30.00 30.00 C 30.00 28.00 30.00 26.00 30.00 24.00 C 28.00 24.00 26.00 24.00 24.00 24.00 C 24.00 22.67 24.00 21.33 24.00 20.00 C 26.00 20.00 28.00 20.00 30.00 20.00 C 30.00 18.00 30.00 16.00 30.00 14.00 Z" />
</g>
</svg>
