<?xml version="1.0" encoding="UTF-8" ?>
<!DOCTYPE svg PUBLIC "-//W3C//DTD SVG 1.1//EN" "http://www.w3.org/Graphics/SVG/1.1/DTD/svg11.dtd">
<svg width="60pt" height="60pt" viewBox="0 0 60 60" version="1.1" xmlns="http://www.w3.org/2000/svg">
<g id="#ffffffff">
<path fill="#ffffff" opacity="1.00" d=" M 0.00 0.00 L 60.00 0.00 L 60.00 60.00 L 0.00 60.00 L 0.00 0.00 M 25.04 3.85 C 18.41 9.02 11.69 14.07 5.12 19.30 C 8.79 22.08 12.38 24.97 16.00 27.81 C 16.08 24.19 15.82 20.56 16.13 16.95 C 16.66 15.33 18.20 13.96 19.97 14.04 C 26.68 13.97 33.39 13.96 40.10 14.04 C 42.15 13.95 43.97 15.86 43.95 17.87 C 44.10 21.18 43.95 24.50 44.01 27.81 C 47.63 24.99 51.21 22.10 54.88 19.34 C 48.35 14.04 41.63 8.98 34.98 3.85 C 32.20 1.46 27.81 1.44 25.04 3.85 M 27.98 23.98 C 25.97 24.24 22.45 23.08 21.95 25.94 C 22.29 28.92 25.96 27.78 27.98 28.02 C 27.99 30.22 27.30 34.80 30.93 33.88 C 32.66 32.45 31.79 29.96 32.02 28.02 C 34.00 27.78 37.79 28.92 38.00 25.94 C 37.62 23.07 33.99 24.24 32.02 23.98 C 31.75 22.04 32.95 18.16 29.99 18.03 C 27.04 18.18 28.25 22.04 27.98 23.98 M 4.00 23.48 C 4.00 31.38 3.99 39.28 4.01 47.17 C 8.43 42.75 12.85 38.33 17.27 33.90 C 12.88 30.39 8.44 26.94 4.00 23.48 M 42.75 33.89 C 47.15 38.32 51.58 42.73 55.99 47.14 C 56.00 39.25 56.01 31.37 55.99 23.48 C 51.59 26.97 47.17 30.43 42.75 33.89 M 4.86 51.99 C 21.63 52.00 38.40 52.00 55.18 51.99 C 49.99 46.79 44.77 41.61 39.59 36.39 C 36.55 38.46 33.93 41.94 29.95 42.01 C 26.02 41.92 23.51 38.39 20.48 36.39 C 15.24 41.56 10.06 46.79 4.86 51.99 Z" />
</g>
<g id="#000000ff">
<path fill="#000000" opacity="1.00" d=" M 25.04 3.85 C 27.81 1.44 32.20 1.46 34.98 3.85 C 41.63 8.98 48.35 14.04 54.88 19.34 C 51.21 22.10 47.63 24.99 44.01 27.81 C 43.95 24.50 44.10 21.18 43.95 17.87 C 43.97 15.86 42.15 13.95 40.10 14.04 C 33.39 13.96 26.68 13.97 19.97 14.04 C 18.20 13.96 16.66 15.33 16.13 16.95 C 15.82 20.56 16.08 24.19 16.00 27.81 C 12.38 24.97 8.79 22.08 5.12 19.30 C 11.69 14.07 18.41 9.02 25.04 3.85 Z" />
<path fill="#000000" opacity="1.00" d=" M 27.98 23.98 C 28.25 22.04 27.04 18.18 29.99 18.03 C 32.95 18.16 31.75 22.04 32.02 23.98 C 33.99 24.24 37.62 23.07 38.00 25.94 C 37.79 28.92 34.00 27.78 32.02 28.02 C 31.79 29.96 32.66 32.45 30.93 33.88 C 27.30 34.80 27.99 30.22 27.98 28.02 C 25.96 27.78 22.29 28.92 21.95 25.94 C 22.45 23.08 25.97 24.24 27.98 23.98 Z" />
<path fill="#000000" opacity="1.00" d=" M 4.00 23.48 C 8.44 26.94 12.88 30.39 17.27 33.90 C 12.85 38.33 8.43 42.75 4.01 47.17 C 3.99 39.28 4.00 31.38 4.00 23.48 Z" />
<path fill="#000000" opacity="1.00" d=" M 42.75 33.89 C 47.17 30.43 51.59 26.97 55.99 23.48 C 56.01 31.37 56.00 39.25 55.99 47.14 C 51.58 42.73 47.15 38.32 42.75 33.89 Z" />
<path fill="#000000" opacity="1.00" d=" M 4.86 51.99 C 10.06 46.79 15.24 41.56 20.48 36.39 C 23.51 38.39 26.02 41.92 29.95 42.01 C 33.93 41.94 36.55 38.46 39.59 36.39 C 44.77 41.61 49.99 46.79 55.18 51.99 C 38.40 52.00 21.63 52.00 4.86 51.99 Z" />
</g>
</svg>
