<?xml version="1.0" encoding="UTF-8" ?>
<!DOCTYPE svg PUBLIC "-//W3C//DTD SVG 1.1//EN" "http://www.w3.org/Graphics/SVG/1.1/DTD/svg11.dtd">
<svg width="64pt" height="64pt" viewBox="0 0 64 64" version="1.1" xmlns="http://www.w3.org/2000/svg">
<g id="#ffffffff">
<path fill="#ffffff" opacity="1.00" d=" M 0.00 0.00 L 64.00 0.00 L 64.00 64.00 L 0.00 64.00 L 0.00 0.00 M 8.00 12.01 C 8.00 25.34 8.00 38.67 7.99 52.00 C 24.00 52.01 40.00 52.01 56.00 51.99 C 56.00 38.66 56.00 25.33 56.01 12.00 C 40.00 11.99 24.00 11.99 8.00 12.01 Z" />
<path fill="#ffffff" opacity="1.00" d=" M 12.00 16.00 C 25.33 16.00 38.67 16.00 52.01 16.00 C 51.99 26.67 51.99 37.34 52.00 48.00 C 38.67 48.00 25.33 48.00 11.99 48.00 C 12.01 37.33 12.01 26.66 12.00 16.00 M 16.00 24.00 C 16.00 25.33 16.00 26.67 16.00 28.00 C 23.34 28.00 30.67 28.00 38.00 28.00 C 38.00 26.67 38.00 25.33 38.00 24.00 C 30.66 24.00 23.33 24.00 16.00 24.00 M 42.00 24.00 C 42.00 25.33 42.00 26.67 42.00 28.00 C 43.50 28.00 46.50 28.00 48.00 28.00 C 48.00 26.67 48.00 25.33 48.00 24.00 C 46.50 24.00 43.50 24.00 42.00 24.00 M 16.00 32.00 C 16.00 33.33 16.00 34.67 16.00 36.00 C 23.34 36.00 30.67 36.00 38.00 36.00 C 38.00 34.67 38.00 33.33 38.00 32.00 C 30.66 32.00 23.33 32.00 16.00 32.00 M 42.00 32.00 C 42.00 33.33 42.00 34.67 42.00 36.00 C 43.50 36.00 46.50 36.00 48.00 36.00 C 48.00 34.67 48.00 33.33 48.00 32.00 C 46.50 32.00 43.50 32.00 42.00 32.00 M 42.00 40.00 C 42.00 41.33 42.00 42.67 42.00 44.00 C 43.50 44.00 46.50 44.00 48.00 44.00 C 48.00 42.67 48.00 41.33 48.00 40.00 C 46.50 40.00 43.50 40.00 42.00 40.00 Z" />
</g>
<g id="#000000ff">
<path fill="#000000" opacity="1.00" d=" M 8.00 12.01 C 24.00 11.99 40.00 11.99 56.01 12.00 C 56.00 25.33 56.00 38.66 56.00 51.99 C 40.00 52.01 24.00 52.01 7.99 52.00 C 8.00 38.67 8.00 25.34 8.00 12.01 M 12.00 16.00 C 12.01 26.66 12.01 37.33 11.99 48.00 C 25.33 48.00 38.67 48.00 52.00 48.00 C 51.99 37.34 51.99 26.67 52.01 16.00 C 38.67 16.00 25.33 16.00 12.00 16.00 Z" />
<path fill="#000000" opacity="1.00" d=" M 16.00 24.00 C 23.33 24.00 30.66 24.00 38.00 24.00 C 38.00 25.33 38.00 26.67 38.00 28.00 C 30.67 28.00 23.34 28.00 16.00 28.00 C 16.00 26.67 16.00 25.33 16.00 24.00 Z" />
<path fill="#000000" opacity="1.00" d=" M 42.00 24.00 C 43.50 24.00 46.50 24.00 48.00 24.00 C 48.00 25.33 48.00 26.67 48.00 28.00 C 46.50 28.00 43.50 28.00 42.00 28.00 C 42.00 26.67 42.00 25.33 42.00 24.00 Z" />
<path fill="#000000" opacity="1.00" d=" M 16.00 32.00 C 23.33 32.00 30.66 32.00 38.00 32.00 C 38.00 33.33 38.00 34.67 38.00 36.00 C 30.67 36.00 23.34 36.00 16.00 36.00 C 16.00 34.67 16.00 33.33 16.00 32.00 Z" />
<path fill="#000000" opacity="1.00" d=" M 42.00 32.00 C 43.50 32.00 46.50 32.00 48.00 32.00 C 48.00 33.33 48.00 34.67 48.00 36.00 C 46.50 36.00 43.50 36.00 42.00 36.00 C 42.00 34.67 42.00 33.33 42.00 32.00 Z" />
<path fill="#000000" opacity="1.00" d=" M 42.00 40.00 C 43.50 40.00 46.50 40.00 48.00 40.00 C 48.00 41.33 48.00 42.67 48.00 44.00 C 46.50 44.00 43.50 44.00 42.00 44.00 C 42.00 42.67 42.00 41.33 42.00 40.00 Z" />
</g>
</svg>
