<?xml version="1.0" encoding="UTF-8" ?>
<!DOCTYPE svg PUBLIC "-//W3C//DTD SVG 1.1//EN" "http://www.w3.org/Graphics/SVG/1.1/DTD/svg11.dtd">
<svg width="60pt" height="60pt" viewBox="0 0 60 60" version="1.1" xmlns="http://www.w3.org/2000/svg">
<g id="#ffffffff">
<path fill="#ffffff" opacity="1.00" d=" M 0.00 0.00 L 60.00 0.00 L 60.00 60.00 L 0.00 60.00 L 0.00 0.00 M 21.43 8.65 C 18.49 8.91 15.16 8.56 12.73 10.68 C 9.32 12.97 8.41 17.28 8.81 21.13 C 6.96 23.13 4.65 25.02 4.23 27.90 C 3.16 32.08 5.45 36.13 8.70 38.60 C 8.84 41.56 8.61 44.85 10.68 47.28 C 13.02 50.65 17.28 51.61 21.14 51.20 C 23.08 52.94 24.82 55.18 27.55 55.69 C 31.88 56.93 36.31 54.58 38.77 51.05 C 42.65 51.84 46.98 50.57 49.33 47.27 C 51.30 44.82 51.37 41.55 51.15 38.56 C 54.96 36.17 57.03 31.26 55.50 26.93 C 54.87 24.60 53.00 23.02 51.33 21.42 C 51.01 18.70 51.49 15.66 49.72 13.30 C 47.50 9.56 42.95 8.31 38.85 8.80 C 36.86 6.97 35.00 4.67 32.14 4.24 C 27.97 3.14 23.91 5.42 21.43 8.65 Z" />
<path fill="#ffffff" opacity="1.00" d=" M 24.38 10.25 C 27.35 6.75 32.54 6.85 35.63 10.13 C 33.81 12.10 31.91 13.98 30.00 15.85 C 28.13 13.98 26.24 12.13 24.38 10.25 Z" />
<path fill="#ffffff" opacity="1.00" d=" M 12.29 20.13 C 11.32 15.56 15.47 11.61 19.95 12.08 C 20.02 14.72 20.01 17.35 20.00 19.99 C 17.43 19.98 14.86 20.00 12.29 20.13 Z" />
<path fill="#ffffff" opacity="1.00" d=" M 39.83 12.37 C 44.40 11.21 48.38 15.50 47.92 19.95 C 45.28 20.02 42.65 20.01 40.01 20.00 C 40.02 17.45 40.01 14.91 39.83 12.37 Z" />
<path fill="#ffffff" opacity="1.00" d=" M 23.50 14.30 C 24.98 15.78 26.46 17.26 27.91 18.78 C 27.58 20.11 27.28 21.44 27.00 22.79 C 25.85 22.02 24.68 21.26 23.51 20.53 C 23.50 18.45 23.50 16.38 23.50 14.30 Z" />
<path fill="#ffffff" opacity="1.00" d=" M 32.16 18.56 C 33.63 17.17 35.07 15.74 36.51 14.31 C 36.50 16.38 36.49 18.46 36.49 20.53 C 35.30 21.27 34.12 22.03 32.96 22.80 C 32.71 21.39 32.42 19.98 32.16 18.56 Z" />
<path fill="#ffffff" opacity="1.00" d=" M 14.35 23.53 C 16.41 23.54 18.48 23.53 20.55 23.53 C 21.28 24.71 22.03 25.88 22.80 27.04 C 21.37 27.29 19.96 27.57 18.53 27.83 C 17.17 26.37 15.76 24.94 14.35 23.53 Z" />
<path fill="#ffffff" opacity="1.00" d=" M 39.45 23.53 C 41.52 23.53 43.59 23.53 45.67 23.53 C 44.19 25.03 42.70 26.51 41.15 27.93 C 39.84 27.59 38.54 27.28 37.22 26.98 C 37.98 25.84 38.72 24.69 39.45 23.53 Z" />
<path fill="#ffffff" opacity="1.00" d=" M 10.33 35.59 C 6.72 32.73 6.76 27.33 10.25 24.37 C 12.13 26.24 13.98 28.13 15.85 30.00 C 14.00 31.85 12.16 33.71 10.33 35.59 Z" />
<path fill="#ffffff" opacity="1.00" d=" M 44.15 30.00 C 46.02 28.13 47.87 26.24 49.75 24.38 C 53.22 27.32 53.29 32.75 49.64 35.58 C 47.83 33.70 46.00 31.84 44.15 30.00 Z" />
<path fill="#ffffff" opacity="1.00" d=" M 28.38 26.36 C 32.97 23.99 36.40 31.76 31.63 33.62 C 27.03 36.00 23.57 28.24 28.38 26.36 Z" />
<path fill="#ffffff" opacity="1.00" d=" M 14.27 36.53 C 15.76 35.05 17.24 33.57 18.74 32.10 C 19.76 32.32 21.79 32.76 22.80 32.98 C 22.01 34.15 21.25 35.33 20.49 36.52 C 18.42 36.53 16.34 36.53 14.27 36.53 Z" />
<path fill="#ffffff" opacity="1.00" d=" M 37.21 32.99 C 38.22 32.77 40.25 32.32 41.26 32.10 C 42.77 33.57 44.25 35.05 45.74 36.54 C 43.66 36.53 41.58 36.53 39.50 36.52 C 38.75 35.33 37.99 34.15 37.21 32.99 Z" />
<path fill="#ffffff" opacity="1.00" d=" M 23.51 39.47 C 24.68 38.73 25.85 37.98 27.00 37.21 C 27.28 38.56 27.58 39.90 27.91 41.24 C 26.45 42.74 24.98 44.22 23.50 45.69 C 23.50 43.62 23.50 41.55 23.51 39.47 Z" />
<path fill="#ffffff" opacity="1.00" d=" M 32.97 37.23 C 34.11 37.95 35.26 38.65 36.42 39.33 C 36.49 41.45 36.50 43.56 36.50 45.68 C 35.02 44.22 33.55 42.75 32.10 41.26 C 32.32 40.25 32.76 38.23 32.97 37.23 Z" />
<path fill="#ffffff" opacity="1.00" d=" M 12.05 40.09 C 14.69 39.97 17.34 39.98 19.99 40.00 C 19.98 42.55 19.99 45.10 20.16 47.64 C 15.60 48.77 11.65 44.53 12.05 40.09 Z" />
<path fill="#ffffff" opacity="1.00" d=" M 40.00 40.00 C 42.65 39.99 45.29 39.98 47.93 40.07 C 48.36 44.58 44.47 48.50 39.92 47.85 C 39.99 45.23 40.01 42.62 40.00 40.00 Z" />
<path fill="#ffffff" opacity="1.00" d=" M 24.38 49.75 C 26.24 47.87 28.13 46.02 30.00 44.15 C 31.85 46.00 33.71 47.84 35.59 49.67 C 32.72 53.27 27.33 53.22 24.38 49.75 Z" />
</g>
<g id="#000000ff">
<path fill="#000000" opacity="1.00" d=" M 21.43 8.65 C 23.91 5.42 27.97 3.14 32.14 4.24 C 35.00 4.67 36.86 6.97 38.85 8.80 C 42.95 8.31 47.50 9.56 49.72 13.30 C 51.49 15.66 51.01 18.70 51.33 21.42 C 53.00 23.02 54.87 24.60 55.50 26.93 C 57.03 31.26 54.96 36.17 51.15 38.56 C 51.37 41.55 51.30 44.82 49.33 47.27 C 46.98 50.57 42.65 51.84 38.77 51.05 C 36.31 54.58 31.88 56.93 27.55 55.69 C 24.82 55.18 23.08 52.94 21.14 51.20 C 17.28 51.61 13.02 50.65 10.68 47.28 C 8.61 44.85 8.84 41.56 8.70 38.60 C 5.45 36.13 3.16 32.08 4.23 27.90 C 4.65 25.02 6.96 23.13 8.81 21.13 C 8.41 17.28 9.32 12.97 12.73 10.68 C 15.16 8.56 18.49 8.91 21.43 8.65 M 24.38 10.25 C 26.24 12.13 28.13 13.98 30.00 15.85 C 31.91 13.98 33.81 12.10 35.63 10.13 C 32.54 6.85 27.35 6.75 24.38 10.25 M 12.29 20.13 C 14.86 20.00 17.43 19.98 20.00 19.99 C 20.01 17.35 20.02 14.72 19.95 12.08 C 15.47 11.61 11.32 15.56 12.29 20.13 M 39.83 12.37 C 40.01 14.91 40.02 17.45 40.01 20.00 C 42.65 20.01 45.28 20.02 47.92 19.95 C 48.38 15.50 44.40 11.21 39.83 12.37 M 23.50 14.30 C 23.50 16.38 23.50 18.45 23.51 20.53 C 24.68 21.26 25.85 22.02 27.00 22.79 C 27.28 21.44 27.58 20.11 27.91 18.78 C 26.46 17.26 24.98 15.78 23.50 14.30 M 32.16 18.56 C 32.42 19.98 32.71 21.39 32.96 22.80 C 34.12 22.03 35.30 21.27 36.49 20.53 C 36.49 18.46 36.50 16.38 36.51 14.31 C 35.07 15.74 33.63 17.17 32.16 18.56 M 14.35 23.53 C 15.76 24.94 17.17 26.37 18.53 27.83 C 19.96 27.57 21.37 27.29 22.80 27.04 C 22.03 25.88 21.28 24.71 20.55 23.53 C 18.48 23.53 16.41 23.54 14.35 23.53 M 39.45 23.53 C 38.72 24.69 37.98 25.84 37.22 26.98 C 38.54 27.28 39.84 27.59 41.15 27.93 C 42.70 26.51 44.19 25.03 45.67 23.53 C 43.59 23.53 41.52 23.53 39.45 23.53 M 10.33 35.59 C 12.16 33.71 14.00 31.85 15.85 30.00 C 13.98 28.13 12.13 26.24 10.25 24.37 C 6.76 27.33 6.72 32.73 10.33 35.59 M 44.15 30.00 C 46.00 31.84 47.83 33.70 49.64 35.58 C 53.29 32.75 53.22 27.32 49.75 24.38 C 47.87 26.24 46.02 28.13 44.15 30.00 M 28.38 26.36 C 23.57 28.24 27.03 36.00 31.63 33.62 C 36.40 31.76 32.97 23.99 28.38 26.36 M 14.27 36.53 C 16.34 36.53 18.42 36.53 20.49 36.52 C 21.25 35.33 22.01 34.15 22.80 32.98 C 21.79 32.76 19.76 32.32 18.74 32.10 C 17.24 33.57 15.76 35.05 14.27 36.53 M 37.21 32.99 C 37.99 34.15 38.75 35.33 39.50 36.52 C 41.58 36.53 43.66 36.53 45.74 36.54 C 44.25 35.05 42.77 33.57 41.26 32.10 C 40.25 32.32 38.22 32.77 37.21 32.99 M 23.51 39.47 C 23.50 41.55 23.50 43.62 23.50 45.69 C 24.98 44.22 26.45 42.74 27.91 41.24 C 27.58 39.90 27.28 38.56 27.00 37.21 C 25.85 37.98 24.68 38.73 23.51 39.47 M 32.97 37.23 C 32.76 38.23 32.32 40.25 32.10 41.26 C 33.55 42.75 35.02 44.22 36.50 45.68 C 36.50 43.56 36.49 41.45 36.42 39.33 C 35.26 38.65 34.11 37.95 32.97 37.23 M 12.05 40.09 C 11.65 44.53 15.60 48.77 20.16 47.64 C 19.99 45.10 19.98 42.55 19.99 40.00 C 17.34 39.98 14.69 39.97 12.05 40.09 M 40.00 40.00 C 40.01 42.62 39.99 45.23 39.92 47.85 C 44.47 48.50 48.36 44.58 47.93 40.07 C 45.29 39.98 42.65 39.99 40.00 40.00 M 24.38 49.75 C 27.33 53.22 32.72 53.27 35.59 49.67 C 33.71 47.84 31.85 46.00 30.00 44.15 C 28.13 46.02 26.24 47.87 24.38 49.75 Z" />
</g>
</svg>
