<?xml version="1.0" encoding="UTF-8" ?>
<!DOCTYPE svg PUBLIC "-//W3C//DTD SVG 1.1//EN" "http://www.w3.org/Graphics/SVG/1.1/DTD/svg11.dtd">
<svg width="60pt" height="60pt" viewBox="0 0 60 60" version="1.1" xmlns="http://www.w3.org/2000/svg">
<g id="#ffffffff">
<path fill="#ffffff" opacity="1.00" d=" M 0.00 0.00 L 60.00 0.00 L 60.00 60.00 L 0.00 60.00 L 0.00 0.00 M 14.32 4.39 C 12.58 5.17 11.81 7.14 12.00 8.96 C 12.03 23.33 11.94 37.71 12.04 52.08 C 11.93 54.64 14.60 56.34 16.95 56.00 C 25.99 55.97 35.03 56.06 44.07 55.96 C 46.58 56.01 48.36 53.43 48.00 51.07 C 47.91 36.39 48.18 21.70 47.86 7.03 C 47.00 3.44 42.82 3.93 40.00 3.99 C 31.46 4.28 22.78 3.46 14.32 4.39 Z" />
<path fill="#ffffff" opacity="1.00" d=" M 16.08 10.09 C 17.35 10.07 18.62 10.06 19.89 10.06 C 19.92 11.34 19.94 12.62 19.94 13.90 C 18.65 13.92 17.36 13.92 16.08 13.91 C 16.06 12.64 16.06 11.37 16.08 10.09 Z" />
<path fill="#ffffff" opacity="1.00" d=" M 24.07 10.08 C 25.37 10.07 26.66 10.08 27.95 10.11 C 27.94 11.38 27.92 12.66 27.88 13.93 C 26.62 13.94 25.36 13.93 24.09 13.92 C 24.07 12.64 24.07 11.36 24.07 10.08 Z" />
<path fill="#ffffff" opacity="1.00" d=" M 32.06 10.10 C 33.35 10.09 34.65 10.09 35.94 10.10 C 35.94 11.37 35.93 12.65 35.90 13.92 C 34.63 13.93 33.35 13.92 32.08 13.90 C 32.06 12.63 32.05 11.37 32.06 10.10 Z" />
<path fill="#ffffff" opacity="1.00" d=" M 40.10 10.06 C 41.37 10.06 42.65 10.07 43.92 10.09 C 43.93 11.37 43.92 12.65 43.90 13.92 C 42.63 13.94 41.35 13.93 40.08 13.91 C 40.07 12.63 40.08 11.35 40.10 10.06 Z" />
<path fill="#ffffff" opacity="1.00" d=" M 16.10 18.07 C 17.38 18.07 18.66 18.08 19.94 18.11 C 19.94 19.38 19.93 20.65 19.91 21.92 C 18.62 21.92 17.33 21.91 16.04 21.88 C 16.05 20.61 16.07 19.34 16.10 18.07 Z" />
<path fill="#ffffff" opacity="1.00" d=" M 24.05 18.10 C 25.34 18.08 26.63 18.07 27.91 18.08 C 27.93 19.35 27.94 20.62 27.93 21.89 C 26.66 21.92 25.38 21.94 24.11 21.94 C 24.08 20.66 24.06 19.38 24.05 18.10 Z" />
<path fill="#ffffff" opacity="1.00" d=" M 32.10 18.06 C 33.38 18.06 34.66 18.08 35.95 18.12 C 35.94 19.39 35.92 20.66 35.89 21.93 C 34.62 21.93 33.34 21.92 32.07 21.90 C 32.06 20.62 32.07 19.34 32.10 18.06 Z" />
<path fill="#ffffff" opacity="1.00" d=" M 40.08 18.08 C 41.37 18.07 42.65 18.08 43.93 18.11 C 43.94 19.37 43.94 20.64 43.92 21.91 C 42.64 21.92 41.35 21.92 40.07 21.90 C 40.06 20.63 40.06 19.35 40.08 18.08 Z" />
<path fill="#ffffff" opacity="1.00" d=" M 16.09 26.07 C 17.37 26.07 18.65 26.07 19.93 26.10 C 19.94 27.37 19.93 28.64 19.91 29.91 C 18.63 29.93 17.36 29.93 16.08 29.91 C 16.07 28.63 16.07 27.35 16.09 26.07 Z" />
<path fill="#ffffff" opacity="1.00" d=" M 24.04 26.11 C 25.33 26.09 26.62 26.08 27.91 26.08 C 27.94 27.34 27.96 28.60 27.96 29.86 C 26.68 29.90 25.39 29.93 24.11 29.95 C 24.07 28.67 24.05 27.39 24.04 26.11 Z" />
<path fill="#ffffff" opacity="1.00" d=" M 32.09 26.08 C 33.37 26.07 34.65 26.08 35.93 26.10 C 35.94 27.37 35.93 28.64 35.91 29.92 C 34.63 29.93 33.35 29.92 32.06 29.89 C 32.06 28.62 32.07 27.35 32.09 26.08 Z" />
<path fill="#ffffff" opacity="1.00" d=" M 40.09 26.07 C 41.37 26.06 42.65 26.07 43.93 26.10 C 43.94 27.37 43.93 28.64 43.91 29.91 C 42.64 29.93 41.36 29.93 40.09 29.92 C 40.07 28.64 40.07 27.35 40.09 26.07 Z" />
<path fill="#ffffff" opacity="1.00" d=" M 16.08 34.07 C 17.37 34.07 18.66 34.08 19.94 34.11 C 19.94 35.38 19.92 36.65 19.89 37.92 C 18.63 37.94 17.36 37.94 16.10 37.92 C 16.08 36.64 16.07 35.36 16.08 34.07 Z" />
<path fill="#ffffff" opacity="1.00" d=" M 24.07 34.08 C 25.35 34.06 26.62 34.06 27.90 34.08 C 27.93 35.35 27.94 36.61 27.94 37.88 C 26.66 37.92 25.39 37.94 24.11 37.95 C 24.08 36.66 24.07 35.37 24.07 34.08 Z" />
<path fill="#ffffff" opacity="1.00" d=" M 32.10 34.06 C 33.37 34.05 34.63 34.06 35.90 34.08 C 35.92 35.35 35.93 36.63 35.93 37.90 C 34.65 37.93 33.37 37.94 32.09 37.93 C 32.08 36.64 32.08 35.35 32.10 34.06 Z" />
<path fill="#ffffff" opacity="1.00" d=" M 40.08 34.08 C 41.35 34.07 42.64 34.07 43.92 34.09 C 43.94 35.36 43.94 36.62 43.94 37.88 C 42.66 37.92 41.38 37.94 40.10 37.94 C 40.08 36.65 40.07 35.37 40.08 34.08 Z" />
<path fill="#ffffff" opacity="1.00" d=" M 16.13 46.04 C 17.39 46.04 18.65 46.06 19.91 46.09 C 19.92 47.37 19.92 48.65 19.90 49.93 C 18.62 49.94 17.34 49.93 16.06 49.91 C 16.07 48.62 16.09 47.33 16.13 46.04 Z" />
<path fill="#ffffff" opacity="1.00" d=" M 24.07 46.10 C 25.34 46.07 26.62 46.05 27.89 46.05 C 27.91 47.34 27.92 48.63 27.91 49.92 C 26.64 49.94 25.37 49.93 24.10 49.92 C 24.07 48.65 24.06 47.37 24.07 46.10 Z" />
<path fill="#ffffff" opacity="1.00" d=" M 32.08 46.07 C 33.36 46.07 34.65 46.08 35.94 46.11 C 35.94 47.38 35.93 48.64 35.91 49.91 C 34.64 49.93 33.37 49.94 32.10 49.93 C 32.07 48.64 32.07 47.36 32.08 46.07 Z" />
<path fill="#ffffff" opacity="1.00" d=" M 40.05 46.11 C 41.34 46.08 42.63 46.07 43.91 46.07 C 43.93 47.35 43.93 48.64 43.91 49.92 C 42.64 49.93 41.37 49.93 40.10 49.92 C 40.07 48.65 40.05 47.38 40.05 46.11 Z" />
</g>
<g id="#000000ff">
<path fill="#000000" opacity="1.00" d=" M 14.32 4.39 C 22.78 3.46 31.46 4.28 40.00 3.99 C 42.82 3.93 47.00 3.44 47.86 7.03 C 48.18 21.70 47.91 36.39 48.00 51.07 C 48.36 53.43 46.58 56.01 44.07 55.96 C 35.03 56.06 25.99 55.97 16.95 56.00 C 14.60 56.34 11.93 54.64 12.04 52.08 C 11.94 37.71 12.03 23.33 12.00 8.96 C 11.81 7.14 12.58 5.17 14.32 4.39 M 16.08 10.09 C 16.06 11.37 16.06 12.64 16.08 13.91 C 17.36 13.92 18.65 13.92 19.94 13.90 C 19.94 12.62 19.92 11.34 19.89 10.06 C 18.62 10.06 17.35 10.07 16.08 10.09 M 24.07 10.08 C 24.07 11.36 24.07 12.64 24.09 13.92 C 25.36 13.93 26.62 13.94 27.88 13.93 C 27.92 12.66 27.94 11.38 27.95 10.11 C 26.66 10.08 25.37 10.07 24.07 10.08 M 32.06 10.10 C 32.05 11.37 32.06 12.63 32.08 13.90 C 33.35 13.92 34.63 13.93 35.90 13.92 C 35.93 12.65 35.94 11.37 35.94 10.10 C 34.65 10.09 33.35 10.09 32.06 10.10 M 40.10 10.06 C 40.08 11.35 40.07 12.63 40.08 13.91 C 41.35 13.93 42.63 13.94 43.90 13.92 C 43.92 12.65 43.93 11.37 43.92 10.09 C 42.65 10.07 41.37 10.06 40.10 10.06 M 16.10 18.07 C 16.07 19.34 16.05 20.61 16.04 21.88 C 17.33 21.91 18.62 21.92 19.91 21.92 C 19.93 20.65 19.94 19.38 19.94 18.11 C 18.66 18.08 17.38 18.07 16.10 18.07 M 24.05 18.10 C 24.06 19.38 24.08 20.66 24.11 21.94 C 25.38 21.94 26.66 21.92 27.93 21.89 C 27.94 20.62 27.93 19.35 27.91 18.08 C 26.63 18.07 25.34 18.08 24.05 18.10 M 32.10 18.06 C 32.07 19.34 32.06 20.62 32.07 21.90 C 33.34 21.92 34.62 21.93 35.89 21.93 C 35.92 20.66 35.94 19.39 35.95 18.12 C 34.66 18.08 33.38 18.06 32.10 18.06 M 40.08 18.08 C 40.06 19.35 40.06 20.63 40.07 21.90 C 41.35 21.92 42.64 21.92 43.92 21.91 C 43.94 20.64 43.94 19.37 43.93 18.11 C 42.65 18.08 41.37 18.07 40.08 18.08 M 16.09 26.07 C 16.07 27.35 16.07 28.63 16.08 29.91 C 17.36 29.93 18.63 29.93 19.91 29.91 C 19.93 28.64 19.94 27.37 19.93 26.10 C 18.65 26.07 17.37 26.07 16.09 26.07 M 24.04 26.11 C 24.05 27.39 24.07 28.67 24.11 29.95 C 25.39 29.93 26.68 29.90 27.96 29.86 C 27.96 28.60 27.94 27.34 27.91 26.08 C 26.62 26.08 25.33 26.09 24.04 26.11 M 32.09 26.08 C 32.07 27.35 32.06 28.62 32.06 29.89 C 33.35 29.92 34.63 29.93 35.91 29.92 C 35.93 28.64 35.94 27.37 35.93 26.10 C 34.65 26.08 33.37 26.07 32.09 26.08 M 40.09 26.07 C 40.07 27.35 40.07 28.64 40.09 29.92 C 41.36 29.93 42.64 29.93 43.91 29.91 C 43.93 28.64 43.94 27.37 43.93 26.10 C 42.65 26.07 41.37 26.06 40.09 26.07 M 16.08 34.07 C 16.07 35.36 16.08 36.64 16.10 37.92 C 17.36 37.94 18.63 37.94 19.89 37.92 C 19.92 36.65 19.94 35.38 19.94 34.11 C 18.66 34.08 17.37 34.07 16.08 34.07 M 24.07 34.08 C 24.07 35.37 24.08 36.66 24.11 37.95 C 25.39 37.94 26.66 37.92 27.94 37.88 C 27.94 36.61 27.93 35.35 27.90 34.08 C 26.62 34.06 25.35 34.06 24.07 34.08 M 32.10 34.06 C 32.08 35.35 32.08 36.64 32.09 37.93 C 33.37 37.94 34.65 37.93 35.93 37.90 C 35.93 36.63 35.92 35.35 35.90 34.08 C 34.63 34.06 33.37 34.05 32.10 34.06 M 40.08 34.08 C 40.07 35.37 40.08 36.65 40.10 37.94 C 41.38 37.94 42.66 37.92 43.94 37.88 C 43.94 36.62 43.94 35.36 43.92 34.09 C 42.64 34.07 41.35 34.07 40.08 34.08 M 16.13 46.04 C 16.09 47.33 16.07 48.62 16.06 49.91 C 17.34 49.93 18.62 49.94 19.90 49.93 C 19.92 48.65 19.92 47.37 19.91 46.09 C 18.65 46.06 17.39 46.04 16.13 46.04 M 24.07 46.10 C 24.06 47.37 24.07 48.65 24.10 49.92 C 25.37 49.93 26.64 49.94 27.91 49.92 C 27.92 48.63 27.91 47.34 27.89 46.05 C 26.62 46.05 25.34 46.07 24.07 46.10 M 32.08 46.07 C 32.07 47.36 32.07 48.64 32.10 49.93 C 33.37 49.94 34.64 49.93 35.91 49.91 C 35.93 48.64 35.94 47.38 35.94 46.11 C 34.65 46.08 33.36 46.07 32.08 46.07 M 40.05 46.11 C 40.05 47.38 40.07 48.65 40.10 49.92 C 41.37 49.93 42.64 49.93 43.91 49.92 C 43.93 48.64 43.93 47.35 43.91 46.07 C 42.63 46.07 41.34 46.08 40.05 46.11 Z" />
</g>
</svg>
