<?xml version="1.0" encoding="UTF-8" ?>
<!DOCTYPE svg PUBLIC "-//W3C//DTD SVG 1.1//EN" "http://www.w3.org/Graphics/SVG/1.1/DTD/svg11.dtd">
<svg width="60pt" height="60pt" viewBox="0 0 60 60" version="1.1" xmlns="http://www.w3.org/2000/svg">
<g id="#ffffffff">
<path fill="#ffffff" opacity="1.00" d=" M 0.00 0.00 L 60.00 0.00 L 60.00 60.00 L 0.00 60.00 L 0.00 0.00 M 10.33 8.38 C 8.57 9.16 7.84 11.14 8.00 12.96 C 8.04 24.68 7.92 36.40 8.06 48.11 C 7.94 50.65 10.58 52.30 12.91 52.00 C 24.31 52.00 35.72 52.01 47.12 52.00 C 49.43 52.31 51.97 50.62 51.94 48.15 C 52.09 36.42 51.96 24.69 52.00 12.96 C 52.33 10.59 50.63 7.90 48.04 8.05 C 37.05 7.90 26.06 8.08 15.07 7.97 C 13.50 8.05 11.84 7.83 10.33 8.38 Z" />
<path fill="#ffffff" opacity="1.00" d=" M 15.36 24.65 C 15.32 20.57 20.37 19.52 23.46 18.42 C 23.54 26.01 23.48 33.61 23.50 41.20 C 22.65 41.20 20.94 41.20 20.09 41.20 C 20.10 35.10 20.08 29.00 20.11 22.90 C 18.53 23.49 16.95 24.08 15.36 24.65 Z" />
<path fill="#ffffff" opacity="1.00" d=" M 33.18 19.17 C 36.79 17.35 41.79 18.89 43.19 22.84 C 44.93 27.58 44.96 33.18 42.80 37.78 C 40.77 42.25 33.88 42.90 30.92 39.08 C 28.56 35.97 28.37 31.81 28.58 28.07 C 28.85 24.71 29.94 20.81 33.18 19.17 M 34.20 21.98 C 31.13 25.41 31.98 30.69 32.50 34.90 C 32.73 38.21 37.25 40.36 39.40 37.36 C 41.56 33.52 41.08 28.68 40.30 24.50 C 39.86 21.77 36.43 20.11 34.20 21.98 Z" />
</g>
<g id="#000000ff">
<path fill="#968176" opacity="1.00" d=" M 10.33 8.38 C 11.84 7.83 13.50 8.05 15.07 7.97 C 26.06 8.08 37.05 7.90 48.04 8.05 C 50.63 7.90 52.33 10.59 52.00 12.96 C 51.96 24.69 52.09 36.42 51.94 48.15 C 51.97 50.62 49.43 52.31 47.12 52.00 C 35.72 52.01 24.31 52.00 12.91 52.00 C 10.58 52.30 7.94 50.65 8.06 48.11 C 7.92 36.40 8.04 24.68 8.00 12.96 C 7.84 11.14 8.57 9.16 10.33 8.38 M 15.36 24.65 C 16.95 24.08 18.53 23.49 20.11 22.90 C 20.08 29.00 20.10 35.10 20.09 41.20 C 20.94 41.20 22.65 41.20 23.50 41.20 C 23.48 33.61 23.54 26.01 23.46 18.42 C 20.37 19.52 15.32 20.57 15.36 24.65 M 33.18 19.17 C 29.94 20.81 28.85 24.71 28.58 28.07 C 28.37 31.81 28.56 35.97 30.92 39.08 C 33.88 42.90 40.77 42.25 42.80 37.78 C 44.96 33.18 44.93 27.58 43.19 22.84 C 41.79 18.89 36.79 17.35 33.18 19.17 Z" />
<path fill="#968176" opacity="1.00" d=" M 34.20 21.98 C 36.43 20.11 39.86 21.77 40.30 24.50 C 41.08 28.68 41.56 33.52 39.40 37.36 C 37.25 40.36 32.73 38.21 32.50 34.90 C 31.98 30.69 31.13 25.41 34.20 21.98 Z" />
</g>
</svg>
