<?xml version="1.0" encoding="UTF-8" ?>
<!DOCTYPE svg PUBLIC "-//W3C//DTD SVG 1.1//EN" "http://www.w3.org/Graphics/SVG/1.1/DTD/svg11.dtd">
<svg width="60pt" height="60pt" viewBox="0 0 60 60" version="1.1" xmlns="http://www.w3.org/2000/svg">
<g id="#ffffffff">
<path fill="#ffffff" opacity="1.00" d=" M 0.00 0.00 L 60.00 0.00 L 60.00 60.00 L 0.00 60.00 L 0.00 0.00 M 10.35 8.38 C 8.60 9.15 7.82 11.11 8.00 12.92 C 8.03 24.64 7.92 36.37 8.05 48.09 C 7.93 50.61 10.56 52.32 12.89 52.00 C 24.27 52.01 35.64 52.00 47.02 52.00 C 49.38 52.34 52.00 50.63 51.95 48.09 C 52.08 36.37 51.97 24.65 52.00 12.93 C 52.32 10.57 50.61 7.90 48.04 8.05 C 37.01 7.91 25.98 8.07 14.95 7.97 C 13.42 8.05 11.81 7.82 10.35 8.38 Z" />
<path fill="#ffffff" opacity="1.00" d=" M 16.01 26.68 C 15.21 25.57 12.72 23.23 15.13 22.50 C 17.34 21.41 18.39 25.83 15.41 25.02 C 18.54 28.21 16.43 33.29 17.04 37.28 C 16.32 37.27 14.88 37.23 14.16 37.22 C 14.30 33.74 14.25 30.26 14.23 26.78 L 16.01 26.68 Z" />
<path fill="#ffffff" opacity="1.00" d=" M 23.47 23.57 C 27.05 22.05 31.82 24.02 32.51 28.05 C 33.85 32.33 31.07 38.00 26.07 37.58 C 18.65 38.02 17.10 26.10 23.47 23.57 M 24.25 26.15 C 21.02 28.49 22.19 35.97 27.00 34.98 C 32.09 33.51 29.84 23.08 24.25 26.15 Z" />
<path fill="#ffffff" opacity="1.00" d=" M 35.23 27.82 C 34.79 21.65 45.34 21.51 46.04 27.38 C 43.60 27.96 42.20 25.32 39.93 25.43 C 38.53 25.69 37.94 26.52 38.14 27.92 C 40.80 29.46 45.84 28.91 45.99 33.02 C 45.85 39.09 36.04 38.96 34.39 33.70 C 35.44 33.56 36.49 33.42 37.54 33.29 C 37.85 33.77 38.48 34.73 38.80 35.21 C 40.48 35.09 43.25 35.44 43.22 33.00 C 40.82 30.86 35.67 31.90 35.23 27.82 Z" />
</g>
<g id="#000000ff">
<path fill="#000000" opacity="1.00" d=" M 10.35 8.38 C 11.81 7.82 13.42 8.05 14.95 7.97 C 25.98 8.07 37.01 7.91 48.04 8.05 C 50.61 7.90 52.32 10.57 52.00 12.93 C 51.97 24.65 52.08 36.37 51.95 48.09 C 52.00 50.63 49.38 52.34 47.02 52.00 C 35.64 52.00 24.27 52.01 12.89 52.00 C 10.56 52.32 7.93 50.61 8.05 48.09 C 7.92 36.37 8.03 24.64 8.00 12.92 C 7.82 11.11 8.60 9.15 10.35 8.38 M 16.01 26.68 L 14.23 26.78 C 14.25 30.26 14.30 33.74 14.16 37.22 C 14.88 37.23 16.32 37.27 17.04 37.28 C 16.43 33.29 18.54 28.21 15.41 25.02 C 18.39 25.83 17.34 21.41 15.13 22.50 C 12.72 23.23 15.21 25.57 16.01 26.68 M 23.47 23.57 C 17.10 26.10 18.65 38.02 26.07 37.58 C 31.07 38.00 33.85 32.33 32.51 28.05 C 31.82 24.02 27.05 22.05 23.47 23.57 M 35.23 27.82 C 35.67 31.90 40.82 30.86 43.22 33.00 C 43.25 35.44 40.48 35.09 38.80 35.21 C 38.48 34.73 37.85 33.77 37.54 33.29 C 36.49 33.42 35.44 33.56 34.39 33.70 C 36.04 38.96 45.85 39.09 45.99 33.02 C 45.84 28.91 40.80 29.46 38.14 27.92 C 37.94 26.52 38.53 25.69 39.93 25.43 C 42.20 25.32 43.60 27.96 46.04 27.38 C 45.34 21.51 34.79 21.65 35.23 27.82 Z" />
<path fill="#000000" opacity="1.00" d=" M 24.25 26.15 C 29.84 23.08 32.09 33.51 27.00 34.98 C 22.19 35.97 21.02 28.49 24.25 26.15 Z" />
</g>
</svg>
