<?xml version="1.0" encoding="UTF-8" ?>
<!DOCTYPE svg PUBLIC "-//W3C//DTD SVG 1.1//EN" "http://www.w3.org/Graphics/SVG/1.1/DTD/svg11.dtd">
<svg width="60pt" height="60pt" viewBox="0 0 60 60" version="1.1" xmlns="http://www.w3.org/2000/svg">
<g id="#ffffffff">
<path fill="#ffffff" opacity="1.00" d=" M 0.00 0.00 L 60.00 0.00 L 60.00 60.00 L 0.00 60.00 L 0.00 0.00 M 14.36 2.35 C 12.60 3.14 11.82 5.09 12.00 6.93 C 12.03 22.62 11.94 38.32 12.04 54.01 C 11.91 56.15 13.89 58.04 16.00 57.96 C 25.33 58.03 34.67 58.03 44.00 57.96 C 46.56 58.07 48.36 55.46 48.00 53.07 C 47.97 37.38 48.06 21.68 47.96 6.00 C 48.08 3.42 45.48 1.62 43.07 2.00 C 33.51 2.23 23.86 1.53 14.36 2.35 Z" />
<path fill="#ffffff" opacity="1.00" d=" M 26.17 4.03 C 28.06 4.02 29.94 4.02 31.82 4.03 C 31.82 4.52 31.82 5.48 31.82 5.96 C 29.94 5.98 28.06 5.98 26.18 5.97 C 26.18 5.48 26.18 4.52 26.17 4.03 Z" />
<path fill="#ffffff" opacity="1.00" d=" M 34.17 4.17 C 35.79 3.65 36.34 4.20 35.83 5.83 C 34.20 6.35 33.65 5.80 34.17 4.17 Z" />
<path fill="#ffffff" opacity="1.00" d=" M 16.02 5.99 C 19.26 5.60 22.34 6.18 25.11 7.89 C 29.24 7.82 33.88 9.00 37.57 6.61 C 39.51 5.48 41.85 6.15 43.98 5.99 C 44.02 21.99 44.00 37.99 43.99 53.99 C 34.66 54.01 25.34 54.01 16.01 53.99 C 16.00 37.99 15.98 21.99 16.02 5.99 M 24.01 18.00 C 23.99 20.67 23.99 23.34 24.02 26.00 C 25.32 26.00 26.62 26.00 27.92 26.01 C 27.96 24.69 28.01 23.37 28.05 22.05 C 29.37 22.01 30.69 21.96 32.01 21.92 C 32.00 20.62 32.00 19.32 32.00 18.02 C 29.34 17.99 26.67 17.99 24.01 18.00 M 36.00 18.00 C 36.00 19.33 36.00 20.67 36.00 22.00 C 37.33 22.00 38.67 22.00 40.00 22.00 C 40.00 20.67 40.00 19.33 40.00 18.00 C 38.66 18.00 37.33 18.00 36.00 18.00 M 24.00 30.00 C 24.00 31.33 24.00 32.66 24.00 34.00 C 25.33 34.00 26.66 34.00 28.00 34.00 C 28.00 32.67 28.00 31.34 28.00 30.00 C 26.67 30.00 25.34 30.00 24.00 30.00 M 24.00 38.00 C 24.00 39.33 24.00 40.67 24.00 42.00 C 25.34 42.00 26.67 42.00 28.00 42.00 C 28.00 40.66 28.00 39.33 28.00 38.00 C 26.66 38.00 25.33 38.00 24.00 38.00 M 24.00 46.00 C 24.00 47.33 24.00 48.66 24.00 50.00 C 25.33 50.00 26.66 50.00 28.00 50.00 C 28.00 48.67 28.00 47.33 28.00 46.00 C 26.67 46.00 25.33 46.00 24.00 46.00 Z" />
</g>
<g id="#000000ff">
<path fill="#000000" opacity="1.00" d=" M 14.36 2.35 C 23.86 1.53 33.51 2.23 43.07 2.00 C 45.48 1.62 48.08 3.42 47.96 6.00 C 48.06 21.68 47.97 37.38 48.00 53.07 C 48.36 55.46 46.56 58.07 44.00 57.96 C 34.67 58.03 25.33 58.03 16.00 57.96 C 13.89 58.04 11.91 56.15 12.04 54.01 C 11.94 38.32 12.03 22.62 12.00 6.93 C 11.82 5.09 12.60 3.14 14.36 2.35 M 26.17 4.03 C 26.18 4.52 26.18 5.48 26.18 5.97 C 28.06 5.98 29.94 5.98 31.82 5.96 C 31.82 5.48 31.82 4.52 31.82 4.03 C 29.94 4.02 28.06 4.02 26.17 4.03 M 34.17 4.17 C 33.65 5.80 34.20 6.35 35.83 5.83 C 36.34 4.20 35.79 3.65 34.17 4.17 M 16.02 5.99 C 15.98 21.99 16.00 37.99 16.01 53.99 C 25.34 54.01 34.66 54.01 43.99 53.99 C 44.00 37.99 44.02 21.99 43.98 5.99 C 41.85 6.15 39.51 5.48 37.57 6.61 C 33.88 9.00 29.24 7.82 25.11 7.89 C 22.34 6.18 19.26 5.60 16.02 5.99 Z" />
<path fill="#000000" opacity="1.00" d=" M 24.01 18.00 C 26.67 17.99 29.34 17.99 32.00 18.02 C 32.00 19.32 32.00 20.62 32.01 21.92 C 30.69 21.96 29.37 22.01 28.05 22.05 C 28.01 23.37 27.96 24.69 27.92 26.01 C 26.62 26.00 25.32 26.00 24.02 26.00 C 23.99 23.34 23.99 20.67 24.01 18.00 Z" />
<path fill="#000000" opacity="1.00" d=" M 36.00 18.00 C 37.33 18.00 38.66 18.00 40.00 18.00 C 40.00 19.33 40.00 20.67 40.00 22.00 C 38.67 22.00 37.33 22.00 36.00 22.00 C 36.00 20.67 36.00 19.33 36.00 18.00 Z" />
<path fill="#000000" opacity="1.00" d=" M 24.00 30.00 C 25.34 30.00 26.67 30.00 28.00 30.00 C 28.00 31.34 28.00 32.67 28.00 34.00 C 26.66 34.00 25.33 34.00 24.00 34.00 C 24.00 32.66 24.00 31.33 24.00 30.00 Z" />
<path fill="#000000" opacity="1.00" d=" M 24.00 38.00 C 25.33 38.00 26.66 38.00 28.00 38.00 C 28.00 39.33 28.00 40.66 28.00 42.00 C 26.67 42.00 25.34 42.00 24.00 42.00 C 24.00 40.67 24.00 39.33 24.00 38.00 Z" />
<path fill="#000000" opacity="1.00" d=" M 24.00 46.00 C 25.33 46.00 26.67 46.00 28.00 46.00 C 28.00 47.33 28.00 48.67 28.00 50.00 C 26.66 50.00 25.33 50.00 24.00 50.00 C 24.00 48.66 24.00 47.33 24.00 46.00 Z" />
</g>
</svg>
