<?xml version="1.0" encoding="UTF-8" ?>
<!DOCTYPE svg PUBLIC "-//W3C//DTD SVG 1.1//EN" "http://www.w3.org/Graphics/SVG/1.1/DTD/svg11.dtd">
<svg width="60pt" height="60pt" viewBox="0 0 60 60" version="1.1" xmlns="http://www.w3.org/2000/svg">
<g id="#ffffffff">
<path fill="#ffffff" opacity="1.00" d=" M 0.00 0.00 L 16.74 0.00 C 16.43 1.08 15.50 2.43 16.66 3.36 C 21.44 8.73 27.12 13.30 31.66 18.88 C 32.03 20.67 29.63 22.19 28.36 20.71 C 24.36 17.71 21.85 12.72 16.95 11.02 C 15.28 10.07 14.14 7.96 12.01 8.05 C 9.19 7.83 7.12 11.17 8.40 13.64 C 9.30 15.14 10.66 16.27 11.83 17.53 C 6.86 24.96 6.86 35.04 11.78 42.49 C 10.49 43.94 8.79 45.16 8.14 47.06 C 7.49 49.44 9.45 52.10 11.97 51.95 C 14.41 52.00 15.79 49.60 17.50 48.25 C 20.17 49.75 23.02 50.92 25.98 51.71 C 25.99 53.14 26.00 54.57 26.01 56.00 C 28.67 56.00 31.34 56.00 34.00 56.00 C 34.00 54.57 34.00 53.15 34.00 51.72 C 36.97 50.92 39.81 49.74 42.50 48.25 C 44.34 49.79 46.06 52.55 48.85 51.87 C 51.28 51.50 52.70 48.52 51.60 46.37 C 50.73 44.87 49.39 43.73 48.23 42.47 C 53.13 35.02 53.13 24.97 48.23 17.53 C 49.83 15.70 52.52 13.91 51.87 11.11 C 51.47 8.69 48.52 7.32 46.37 8.40 C 44.87 9.26 43.73 10.61 42.47 11.78 C 37.87 8.89 32.45 7.59 27.03 8.14 C 24.22 5.46 21.58 2.59 18.68 0.00 L 60.00 0.00 L 60.00 60.00 L 0.00 60.00 L 0.00 0.00 Z" />
<path fill="#ffffff" opacity="1.00" d=" M 19.13 26.18 C 26.10 25.81 33.11 26.00 40.09 26.07 C 42.54 25.87 42.57 30.09 40.12 29.92 C 33.39 30.07 26.65 30.05 19.93 29.93 C 17.86 30.08 17.29 26.95 19.13 26.18 Z" />
<path fill="#ffffff" opacity="1.00" d=" M 19.16 34.17 C 24.12 33.82 29.12 33.99 34.09 34.07 C 36.57 33.86 36.55 38.18 34.05 37.93 C 29.37 38.06 24.67 38.06 19.99 37.93 C 17.89 38.16 17.25 34.90 19.16 34.17 Z" />
</g>
<g id="#000000ff">
<path fill="#000000" opacity="1.00" d=" M 16.74 0.00 L 18.68 0.00 C 21.58 2.59 24.22 5.46 27.03 8.14 C 32.45 7.59 37.87 8.89 42.47 11.78 C 43.73 10.61 44.87 9.26 46.37 8.40 C 48.52 7.32 51.47 8.69 51.87 11.11 C 52.52 13.91 49.83 15.70 48.23 17.53 C 53.13 24.97 53.13 35.02 48.23 42.47 C 49.39 43.73 50.73 44.87 51.60 46.37 C 52.70 48.52 51.28 51.50 48.85 51.87 C 46.06 52.55 44.34 49.79 42.50 48.25 C 39.81 49.74 36.97 50.92 34.00 51.72 C 34.00 53.15 34.00 54.57 34.00 56.00 C 31.34 56.00 28.67 56.00 26.01 56.00 C 26.00 54.57 25.99 53.14 25.98 51.71 C 23.02 50.92 20.17 49.75 17.50 48.25 C 15.79 49.60 14.41 52.00 11.97 51.95 C 9.45 52.10 7.49 49.44 8.14 47.06 C 8.79 45.16 10.49 43.94 11.78 42.49 C 6.86 35.04 6.86 24.96 11.83 17.53 C 10.66 16.27 9.30 15.14 8.40 13.64 C 7.12 11.17 9.19 7.83 12.01 8.05 C 14.14 7.96 15.28 10.07 16.95 11.02 C 21.85 12.72 24.36 17.71 28.36 20.71 C 29.63 22.19 32.03 20.67 31.66 18.88 C 27.12 13.30 21.44 8.73 16.66 3.36 C 15.50 2.43 16.43 1.08 16.74 0.00 M 19.13 26.18 C 17.29 26.95 17.86 30.08 19.93 29.93 C 26.65 30.05 33.39 30.07 40.12 29.92 C 42.57 30.09 42.54 25.87 40.09 26.07 C 33.11 26.00 26.10 25.81 19.13 26.18 M 19.16 34.17 C 17.25 34.90 17.89 38.16 19.99 37.93 C 24.67 38.06 29.37 38.06 34.05 37.93 C 36.55 38.18 36.57 33.86 34.09 34.07 C 29.12 33.99 24.12 33.82 19.16 34.17 Z" />
</g>
</svg>
