<?xml version="1.0" encoding="UTF-8" ?>
<!DOCTYPE svg PUBLIC "-//W3C//DTD SVG 1.1//EN" "http://www.w3.org/Graphics/SVG/1.1/DTD/svg11.dtd">
<svg width="60pt" height="60pt" viewBox="0 0 60 60" version="1.1" xmlns="http://www.w3.org/2000/svg">
<g id="#ffffffff">
<path fill="#ffffff" opacity="1.00" d=" M 0.00 0.00 L 60.00 0.00 L 60.00 60.00 L 0.00 60.00 L 0.00 0.00 M 6.37 10.35 C 4.60 11.13 3.81 13.09 4.00 14.94 C 4.03 25.29 3.94 35.65 4.04 46.00 C 3.88 48.59 6.55 50.34 8.94 50.00 C 23.29 49.97 37.65 50.06 52.00 49.96 C 54.14 50.07 56.07 48.14 55.96 46.00 C 56.06 35.65 55.97 25.29 56.00 14.93 C 56.34 12.55 54.59 9.88 52.00 10.04 C 38.32 9.92 24.63 10.06 10.95 9.98 C 9.43 10.04 7.84 9.84 6.37 10.35 Z" />
<path fill="#ffffff" opacity="1.00" d=" M 7.99 13.99 C 22.00 14.01 36.00 14.01 50.01 13.99 C 49.99 17.98 49.98 21.98 49.99 25.97 C 49.75 27.70 51.33 28.74 52.18 30.00 C 51.33 31.26 49.75 32.30 49.99 34.02 C 49.98 38.02 49.99 42.01 50.01 46.01 C 36.00 45.99 22.00 45.99 7.99 46.01 C 8.01 35.34 8.01 24.66 7.99 13.99 Z" />
</g>
<g id="#000000ff">
<path fill="#000000" opacity="1.00" d=" M 6.37 10.35 C 7.84 9.84 9.43 10.04 10.95 9.98 C 24.63 10.06 38.32 9.92 52.00 10.04 C 54.59 9.88 56.34 12.55 56.00 14.93 C 55.97 25.29 56.06 35.65 55.96 46.00 C 56.07 48.14 54.14 50.07 52.00 49.96 C 37.65 50.06 23.29 49.97 8.94 50.00 C 6.55 50.34 3.88 48.59 4.04 46.00 C 3.94 35.65 4.03 25.29 4.00 14.94 C 3.81 13.09 4.60 11.13 6.37 10.35 M 7.99 13.99 C 8.01 24.66 8.01 35.34 7.99 46.01 C 22.00 45.99 36.00 45.99 50.01 46.01 C 49.99 42.01 49.98 38.02 49.99 34.02 C 49.75 32.30 51.33 31.26 52.18 30.00 C 51.33 28.74 49.75 27.70 49.99 25.97 C 49.98 21.98 49.99 17.98 50.01 13.99 C 36.00 14.01 22.00 14.01 7.99 13.99 Z" />
</g>
</svg>
