<?xml version="1.0" encoding="UTF-8" ?>
<!DOCTYPE svg PUBLIC "-//W3C//DTD SVG 1.1//EN" "http://www.w3.org/Graphics/SVG/1.1/DTD/svg11.dtd">
<svg width="64pt" height="64pt" viewBox="0 0 64 64" version="1.1" xmlns="http://www.w3.org/2000/svg">
<g id="#ffffffff">
<path fill="#ffffff" opacity="1.00" d=" M 0.00 0.00 L 64.00 0.00 L 64.00 64.00 L 0.00 64.00 L 0.00 0.00 M 7.46 12.57 C 5.44 13.52 4.02 15.63 4.05 17.88 C 3.90 26.26 4.08 34.65 3.98 43.03 C 4.01 45.48 3.75 48.38 5.74 50.19 C 7.59 52.25 10.55 52.00 13.05 52.02 C 26.74 51.93 40.43 52.09 54.12 51.95 C 57.24 52.00 60.01 49.21 59.95 46.09 C 60.04 36.70 60.04 27.30 59.95 17.91 C 60.02 14.82 57.29 12.02 54.19 12.06 C 40.46 11.90 26.72 12.07 12.98 11.98 C 11.14 12.04 9.20 11.83 7.46 12.57 Z" />
<path fill="#ffffff" opacity="1.00" d=" M 9.06 16.19 C 23.35 15.74 37.67 16.14 51.97 15.99 C 53.46 15.97 56.04 15.81 55.93 17.98 C 56.12 26.65 55.93 35.33 56.01 44.00 C 56.01 45.47 56.19 48.03 54.04 47.92 C 40.03 48.12 26.00 47.93 11.98 48.01 C 10.52 48.03 7.91 48.17 8.07 46.00 C 8.01 36.39 7.81 26.75 8.18 17.16 C 8.40 16.92 8.84 16.43 9.06 16.19 M 11.17 30.20 C 8.80 31.18 10.46 34.91 12.84 33.89 C 15.17 32.84 13.52 28.99 11.17 30.20 Z" />
</g>
<g id="#000000ff">
<path fill="#000000" opacity="1.00" d=" M 7.46 12.57 C 9.20 11.83 11.14 12.04 12.98 11.98 C 26.72 12.07 40.46 11.90 54.19 12.06 C 57.29 12.02 60.02 14.82 59.95 17.91 C 60.04 27.30 60.04 36.70 59.95 46.09 C 60.01 49.21 57.24 52.00 54.12 51.95 C 40.43 52.09 26.74 51.93 13.05 52.02 C 10.55 52.00 7.59 52.25 5.74 50.19 C 3.75 48.38 4.01 45.48 3.98 43.03 C 4.08 34.65 3.90 26.26 4.05 17.88 C 4.02 15.63 5.44 13.52 7.46 12.57 M 9.06 16.19 C 8.84 16.43 8.40 16.92 8.18 17.16 C 7.81 26.75 8.01 36.39 8.07 46.00 C 7.91 48.17 10.52 48.03 11.98 48.01 C 26.00 47.93 40.03 48.12 54.04 47.92 C 56.19 48.03 56.01 45.47 56.01 44.00 C 55.93 35.33 56.12 26.65 55.93 17.98 C 56.04 15.81 53.46 15.97 51.97 15.99 C 37.67 16.14 23.35 15.74 9.06 16.19 Z" />
<path fill="#000000" opacity="1.00" d=" M 11.17 30.20 C 13.52 28.99 15.17 32.84 12.84 33.89 C 10.46 34.91 8.80 31.18 11.17 30.20 Z" />
</g>
</svg>
