<?xml version="1.0" encoding="UTF-8" ?>
<!DOCTYPE svg PUBLIC "-//W3C//DTD SVG 1.1//EN" "http://www.w3.org/Graphics/SVG/1.1/DTD/svg11.dtd">
<svg width="60pt" height="60pt" viewBox="0 0 60 60" version="1.1" xmlns="http://www.w3.org/2000/svg">
<g id="#ffffffff">
<path fill="#ffffff" opacity="1.00" d=" M 0.00 0.00 L 60.00 0.00 L 60.00 60.00 L 0.00 60.00 L 0.00 0.00 M 17.09 12.21 C 11.42 16.20 8.17 22.96 7.89 29.82 C 6.55 30.11 3.87 29.89 4.07 31.95 C 3.80 34.12 6.51 34.00 7.94 34.02 C 23.57 33.84 39.22 34.27 54.82 33.81 C 57.78 32.03 54.54 29.22 52.09 29.82 C 51.81 22.95 48.56 16.19 42.89 12.20 C 35.47 6.64 24.50 6.64 17.09 12.21 M 9.46 38.02 C 12.95 46.52 21.81 52.58 31.09 51.92 C 39.64 51.65 47.28 45.79 50.55 38.02 C 49.10 38.02 47.65 38.01 46.21 38.01 C 43.15 43.54 37.47 47.70 31.04 47.94 C 23.91 48.51 17.13 44.19 13.81 38.01 C 12.36 38.02 10.91 38.02 9.46 38.02 M 20.99 38.11 C 25.81 43.16 34.22 43.10 39.06 38.10 C 33.04 37.94 27.01 37.94 20.99 38.11 Z" />
<path fill="#ffffff" opacity="1.00" d=" M 19.38 15.47 C 26.02 10.42 36.15 10.99 42.17 16.77 C 45.97 20.10 47.77 25.06 48.15 29.99 C 46.18 29.99 44.20 29.98 42.23 30.01 C 41.75 28.37 41.34 26.70 41.08 25.01 C 39.20 25.84 36.77 26.64 35.18 24.80 C 33.33 23.26 34.16 20.80 34.97 18.96 C 30.88 17.50 26.05 17.72 22.60 20.59 C 19.58 22.78 18.30 26.45 17.84 30.01 C 15.84 29.98 13.85 29.99 11.85 29.99 C 12.19 24.37 14.68 18.77 19.38 15.47 Z" />
</g>
<g id="#000000ff">
<path fill="#000000" opacity="1.00" d=" M 17.09 12.21 C 24.50 6.64 35.47 6.64 42.89 12.20 C 48.56 16.19 51.81 22.95 52.09 29.82 C 54.54 29.22 57.78 32.03 54.82 33.81 C 39.22 34.27 23.57 33.84 7.94 34.02 C 6.51 34.00 3.80 34.12 4.07 31.95 C 3.87 29.89 6.55 30.11 7.89 29.82 C 8.17 22.96 11.42 16.20 17.09 12.21 M 19.38 15.47 C 14.68 18.77 12.19 24.37 11.85 29.99 C 13.85 29.99 15.84 29.98 17.84 30.01 C 18.30 26.45 19.58 22.78 22.60 20.59 C 26.05 17.72 30.88 17.50 34.97 18.96 C 34.16 20.80 33.33 23.26 35.18 24.80 C 36.77 26.64 39.20 25.84 41.08 25.01 C 41.34 26.70 41.75 28.37 42.23 30.01 C 44.20 29.98 46.18 29.99 48.15 29.99 C 47.77 25.06 45.97 20.10 42.17 16.77 C 36.15 10.99 26.02 10.42 19.38 15.47 Z" />
<path fill="#000000" opacity="1.00" d=" M 9.46 38.02 C 10.91 38.02 12.36 38.02 13.81 38.01 C 17.13 44.19 23.91 48.51 31.04 47.94 C 37.47 47.70 43.15 43.54 46.21 38.01 C 47.65 38.01 49.10 38.02 50.55 38.02 C 47.28 45.79 39.64 51.65 31.09 51.92 C 21.81 52.58 12.95 46.52 9.46 38.02 Z" />
<path fill="#000000" opacity="1.00" d=" M 20.99 38.11 C 27.01 37.94 33.04 37.94 39.06 38.10 C 34.22 43.10 25.81 43.16 20.99 38.11 Z" />
</g>
</svg>
