<?xml version="1.0" encoding="UTF-8" ?>
<!DOCTYPE svg PUBLIC "-//W3C//DTD SVG 1.1//EN" "http://www.w3.org/Graphics/SVG/1.1/DTD/svg11.dtd">
<svg width="64pt" height="64pt" viewBox="0 0 64 64" version="1.1" xmlns="http://www.w3.org/2000/svg">
<g id="#ffffffff">
<path fill="#ffffff" opacity="1.00" d=" M 0.00 0.00 L 64.00 0.00 L 64.00 64.00 L 0.00 64.00 L 0.00 0.00 M 16.28 11.39 C 13.56 14.57 14.19 19.08 13.02 22.84 C 11.24 26.31 12.38 30.30 12.34 34.02 C 12.19 35.52 13.13 36.69 14.08 37.73 C 15.46 42.47 15.97 47.76 19.31 51.66 C 21.73 54.58 24.74 57.93 28.88 57.76 C 32.85 57.65 37.45 58.43 40.80 55.77 C 46.62 51.54 48.49 44.37 49.92 37.72 C 53.03 34.41 51.52 29.21 51.83 25.09 C 49.97 21.56 50.39 17.45 49.11 13.75 C 48.31 11.08 45.65 9.78 43.36 8.60 C 34.78 4.40 23.74 5.31 16.28 11.39 Z" />
<path fill="#ffffff" opacity="1.00" d=" M 19.03 14.17 C 26.67 8.78 37.34 8.79 44.97 14.17 C 46.59 18.47 46.25 23.16 47.67 27.49 C 48.08 29.54 47.72 31.66 47.70 33.73 L 46.34 33.83 C 45.55 39.69 44.26 45.64 40.91 50.61 C 40.45 49.95 40.00 49.28 39.55 48.62 L 40.34 48.82 C 41.04 42.71 45.20 37.82 46.13 31.79 C 42.91 27.38 44.23 21.81 44.01 16.75 C 41.02 15.25 38.01 13.78 35.02 12.27 C 34.24 15.59 33.49 18.92 32.76 22.25 C 32.38 22.13 31.62 21.88 31.24 21.76 C 30.27 18.65 29.77 15.42 29.01 12.26 C 26.01 13.77 23.01 15.28 19.99 16.75 C 19.76 21.81 21.10 27.38 17.87 31.78 C 19.20 38.47 23.48 44.13 24.21 51.02 C 19.44 46.62 18.64 39.88 17.65 33.83 L 16.28 33.74 C 16.21 31.57 16.15 29.41 16.20 27.24 C 18.11 23.17 17.10 18.33 19.03 14.17 Z" />
<path fill="#ffffff" opacity="1.00" d=" M 24.14 19.34 C 24.63 19.00 25.63 18.33 26.13 17.99 C 26.78 20.65 27.37 23.33 27.99 26.00 C 30.66 26.00 33.34 26.00 36.01 26.00 C 36.63 23.33 37.22 20.65 37.87 17.99 C 41.10 18.93 39.75 22.47 39.99 24.94 C 39.67 27.47 40.44 29.85 41.69 32.02 C 39.13 32.00 36.56 31.99 34.00 32.00 C 34.00 33.33 34.00 34.67 34.00 36.00 C 36.25 36.00 38.49 36.00 40.74 35.99 C 38.97 39.14 37.63 42.49 36.88 46.02 C 33.63 45.99 30.37 45.99 27.12 46.02 C 26.37 42.49 25.03 39.13 23.26 36.00 C 25.50 36.00 27.75 36.00 30.00 36.00 C 30.00 34.67 30.00 33.33 30.00 32.00 C 27.44 31.99 24.87 32.00 22.31 32.02 C 24.97 28.24 23.60 23.59 24.14 19.34 Z" />
<path fill="#ffffff" opacity="1.00" d=" M 24.24 51.32 C 26.80 50.71 29.32 49.76 32.00 49.94 C 35.07 49.64 37.89 51.47 40.96 50.81 C 37.30 54.17 32.23 54.21 27.61 53.56 C 26.30 53.14 25.34 52.09 24.24 51.32 Z" />
</g>
<g id="#000000ff">
<path fill="#000000" opacity="1.00" d=" M 16.28 11.39 C 23.74 5.31 34.78 4.40 43.36 8.60 C 45.65 9.78 48.31 11.08 49.11 13.75 C 50.39 17.45 49.97 21.56 51.83 25.09 C 51.52 29.21 53.03 34.41 49.92 37.72 C 48.49 44.37 46.62 51.54 40.80 55.77 C 37.45 58.43 32.85 57.65 28.88 57.76 C 24.74 57.93 21.73 54.58 19.31 51.66 C 15.97 47.76 15.46 42.47 14.08 37.73 C 13.13 36.69 12.19 35.52 12.34 34.02 C 12.38 30.30 11.24 26.31 13.02 22.84 C 14.19 19.08 13.56 14.57 16.28 11.39 M 19.03 14.17 C 17.10 18.33 18.11 23.17 16.20 27.24 C 16.15 29.41 16.21 31.57 16.28 33.74 L 17.65 33.83 C 18.64 39.88 19.44 46.62 24.21 51.02 C 23.48 44.13 19.20 38.47 17.87 31.78 C 21.10 27.38 19.76 21.81 19.99 16.75 C 23.01 15.28 26.01 13.77 29.01 12.26 C 29.77 15.42 30.27 18.65 31.24 21.76 C 31.62 21.88 32.38 22.13 32.76 22.25 C 33.49 18.92 34.24 15.59 35.02 12.27 C 38.01 13.78 41.02 15.25 44.01 16.75 C 44.23 21.81 42.91 27.38 46.13 31.79 C 45.20 37.82 41.04 42.71 40.34 48.82 L 39.55 48.62 C 40.00 49.28 40.45 49.95 40.91 50.61 C 44.26 45.64 45.55 39.69 46.34 33.83 L 47.70 33.73 C 47.72 31.66 48.08 29.54 47.67 27.49 C 46.25 23.16 46.59 18.47 44.97 14.17 C 37.34 8.79 26.67 8.78 19.03 14.17 M 24.14 19.34 C 23.60 23.59 24.97 28.24 22.31 32.02 C 24.87 32.00 27.44 31.99 30.00 32.00 C 30.00 33.33 30.00 34.67 30.00 36.00 C 27.75 36.00 25.50 36.00 23.26 36.00 C 25.03 39.13 26.37 42.49 27.12 46.02 C 30.37 45.99 33.63 45.99 36.88 46.02 C 37.63 42.49 38.97 39.14 40.74 35.99 C 38.49 36.00 36.25 36.00 34.00 36.00 C 34.00 34.67 34.00 33.33 34.00 32.00 C 36.56 31.99 39.13 32.00 41.69 32.02 C 40.44 29.85 39.67 27.47 39.99 24.94 C 39.75 22.47 41.10 18.93 37.87 17.99 C 37.22 20.65 36.63 23.33 36.01 26.00 C 33.34 26.00 30.66 26.00 27.99 26.00 C 27.37 23.33 26.78 20.65 26.13 17.99 C 25.63 18.33 24.63 19.00 24.14 19.34 M 24.24 51.32 C 25.34 52.09 26.30 53.14 27.61 53.56 C 32.23 54.21 37.30 54.17 40.96 50.81 C 37.89 51.47 35.07 49.64 32.00 49.94 C 29.32 49.76 26.80 50.71 24.24 51.32 Z" />
</g>
</svg>
