<?xml version="1.0" encoding="UTF-8" ?>
<!DOCTYPE svg PUBLIC "-//W3C//DTD SVG 1.1//EN" "http://www.w3.org/Graphics/SVG/1.1/DTD/svg11.dtd">
<svg width="64pt" height="64pt" viewBox="0 0 64 64" version="1.1" xmlns="http://www.w3.org/2000/svg">
<g id="#ffffffff">
<path fill="#ffffff" opacity="1.00" d=" M 0.00 0.00 L 64.00 0.00 L 64.00 64.00 L 0.00 64.00 L 0.00 0.00 M 20.39 12.34 C 18.59 15.86 23.21 19.65 26.31 17.23 C 28.70 14.79 29.00 11.10 30.02 7.97 C 26.80 9.21 22.44 9.21 20.39 12.34 M 44.76 11.69 C 42.37 14.78 46.11 19.39 49.63 17.62 C 52.79 15.59 52.85 11.22 54.02 7.97 C 50.91 9.05 47.21 9.32 44.76 11.69 M 30.75 23.70 C 28.38 26.81 32.14 31.40 35.66 29.61 C 38.79 27.57 38.85 23.22 40.02 19.97 C 36.91 21.06 33.19 21.31 30.75 23.70 M 7.61 33.92 C 9.07 39.02 10.83 44.44 14.91 48.08 C 17.98 50.68 22.52 50.34 25.75 48.22 C 24.86 47.24 23.96 46.27 23.06 45.30 C 21.34 45.69 19.29 46.61 17.74 45.25 C 14.92 42.90 13.72 39.25 12.41 35.94 C 16.41 34.33 21.45 32.84 25.30 35.59 C 27.16 36.72 27.70 38.90 28.22 40.85 C 25.17 38.93 22.03 37.16 18.65 35.89 C 18.35 36.85 17.75 38.77 17.45 39.73 C 21.66 41.41 26.10 43.49 28.65 47.44 C 30.33 49.96 29.95 53.13 30.03 56.00 C 31.27 56.00 32.51 56.00 33.75 56.00 C 34.75 50.15 40.60 47.31 45.36 44.87 C 44.85 43.66 44.35 42.45 43.86 41.23 C 42.48 41.90 41.09 42.55 39.68 43.14 C 41.31 38.01 47.41 39.86 51.03 41.47 C 49.61 43.50 48.46 45.82 46.50 47.40 C 44.25 48.07 41.90 48.54 40.03 50.09 C 42.49 52.67 46.66 52.59 49.27 50.31 C 52.53 47.45 54.55 43.52 56.74 39.85 C 51.95 36.97 45.99 34.06 40.41 36.52 C 36.95 38.01 35.49 42.00 36.11 45.55 C 35.21 46.37 34.30 47.18 33.39 48.00 C 32.67 46.74 31.98 45.47 31.36 44.17 C 33.16 39.40 31.01 33.77 26.43 31.53 C 20.33 28.36 13.20 30.78 7.61 33.92 Z" />
</g>
<g id="#000000ff">
<path fill="#000000" opacity="1.00" d=" M 20.39 12.34 C 22.44 9.21 26.80 9.21 30.02 7.97 C 29.00 11.10 28.70 14.79 26.31 17.23 C 23.21 19.65 18.59 15.86 20.39 12.34 Z" />
<path fill="#000000" opacity="1.00" d=" M 44.76 11.69 C 47.21 9.32 50.91 9.05 54.02 7.97 C 52.85 11.22 52.79 15.59 49.63 17.62 C 46.11 19.39 42.37 14.78 44.76 11.69 Z" />
<path fill="#000000" opacity="1.00" d=" M 30.75 23.70 C 33.19 21.31 36.91 21.06 40.02 19.97 C 38.85 23.22 38.79 27.57 35.66 29.61 C 32.14 31.40 28.38 26.81 30.75 23.70 Z" />
<path fill="#000000" opacity="1.00" d=" M 7.61 33.92 C 13.20 30.78 20.33 28.36 26.43 31.53 C 31.01 33.77 33.16 39.40 31.36 44.17 C 31.98 45.47 32.67 46.74 33.39 48.00 C 34.30 47.18 35.21 46.37 36.11 45.55 C 35.49 42.00 36.95 38.01 40.41 36.52 C 45.99 34.06 51.95 36.97 56.74 39.85 C 54.55 43.52 52.53 47.45 49.27 50.31 C 46.66 52.59 42.49 52.67 40.03 50.09 C 41.90 48.54 44.25 48.07 46.50 47.40 C 48.46 45.82 49.61 43.50 51.03 41.47 C 47.41 39.86 41.31 38.01 39.68 43.14 C 41.09 42.55 42.48 41.90 43.86 41.23 C 44.35 42.45 44.85 43.66 45.36 44.87 C 40.60 47.31 34.75 50.15 33.75 56.00 C 32.51 56.00 31.27 56.00 30.03 56.00 C 29.95 53.13 30.33 49.96 28.65 47.44 C 26.10 43.49 21.66 41.41 17.45 39.73 C 17.75 38.77 18.35 36.85 18.65 35.89 C 22.03 37.16 25.17 38.93 28.22 40.85 C 27.70 38.90 27.16 36.72 25.30 35.59 C 21.45 32.84 16.41 34.33 12.41 35.94 C 13.72 39.25 14.92 42.90 17.74 45.25 C 19.29 46.61 21.34 45.69 23.06 45.30 C 23.96 46.27 24.86 47.24 25.75 48.22 C 22.52 50.34 17.98 50.68 14.91 48.08 C 10.83 44.44 9.07 39.02 7.61 33.92 Z" />
</g>
</svg>
