<?xml version="1.0" encoding="UTF-8" ?>
<!DOCTYPE svg PUBLIC "-//W3C//DTD SVG 1.1//EN" "http://www.w3.org/Graphics/SVG/1.1/DTD/svg11.dtd">
<svg width="60pt" height="60pt" viewBox="0 0 60 60" version="1.1" xmlns="http://www.w3.org/2000/svg">
<g id="#ffffffff">
<path fill="#ffffff" opacity="1.00" d=" M 0.00 0.00 L 60.00 0.00 L 60.00 44.78 C 58.11 44.03 56.06 43.95 54.05 43.97 C 37.68 44.03 21.30 44.00 4.93 43.98 C 3.25 43.96 1.58 44.19 0.00 44.76 L 0.00 0.00 M 5.19 12.17 C 2.20 13.95 6.09 17.40 8.07 17.93 C 22.95 17.98 37.88 18.20 52.75 17.82 C 53.96 16.47 56.30 15.36 55.93 13.24 C 54.96 11.45 52.68 12.18 51.04 11.98 C 35.76 12.15 20.45 11.75 5.19 12.17 M 8.02 22.00 C 7.99 26.60 7.99 31.21 8.01 35.82 C 6.76 36.01 5.52 36.24 4.28 36.49 C 3.90 37.90 4.02 40.11 6.04 39.93 C 22.01 40.05 37.99 40.04 53.95 39.93 C 55.95 40.09 56.14 37.91 55.71 36.49 C 54.48 36.24 53.24 36.01 51.99 35.81 C 52.01 31.21 52.00 26.60 51.98 22.00 C 50.66 22.00 49.34 22.00 48.02 22.00 C 47.98 26.67 48.02 31.33 47.98 36.00 C 46.66 36.00 45.34 36.00 44.02 36.00 C 43.98 31.33 44.02 26.67 43.98 22.00 C 42.66 22.00 41.34 22.00 40.02 22.00 C 39.98 26.67 40.02 31.33 39.98 36.00 C 38.66 36.00 37.34 36.00 36.02 36.00 C 35.98 31.33 36.02 26.67 35.98 22.00 C 34.66 22.00 33.34 22.00 32.02 22.00 C 31.98 26.67 32.02 31.33 31.98 36.00 C 30.66 36.00 29.34 36.00 28.02 36.00 C 27.98 31.33 28.02 26.67 27.98 22.00 C 26.66 22.00 25.34 22.00 24.02 22.00 C 23.98 26.67 24.02 31.33 23.98 36.00 C 22.66 36.00 21.34 36.00 20.02 36.00 C 19.98 31.33 20.02 26.67 19.98 22.00 C 18.66 22.00 17.34 22.00 16.02 22.00 C 15.98 26.67 16.02 31.33 15.98 36.00 C 14.66 36.00 13.34 36.00 12.02 36.00 C 11.98 31.33 12.02 26.67 11.98 22.00 C 10.66 22.00 9.34 22.00 8.02 22.00 Z" />
<path fill="#ffffff" opacity="1.00" d=" M 0.00 47.33 C 3.59 48.32 7.33 47.98 11.00 48.01 C 25.35 48.00 39.70 47.97 54.05 48.03 C 56.06 48.07 58.05 47.81 60.00 47.35 L 60.00 60.00 L 0.00 60.00 L 0.00 47.33 Z" />
</g>
<g id="#000000ff">
<path fill="#000000" opacity="1.00" d=" M 5.19 12.17 C 20.45 11.75 35.76 12.15 51.04 11.98 C 52.68 12.18 54.96 11.45 55.93 13.24 C 56.30 15.36 53.96 16.47 52.75 17.82 C 37.88 18.20 22.95 17.98 8.07 17.93 C 6.09 17.40 2.20 13.95 5.19 12.17 Z" />
<path fill="#000000" opacity="1.00" d=" M 8.02 22.00 C 9.34 22.00 10.66 22.00 11.98 22.00 C 12.02 26.67 11.98 31.33 12.02 36.00 C 13.34 36.00 14.66 36.00 15.98 36.00 C 16.02 31.33 15.98 26.67 16.02 22.00 C 17.34 22.00 18.66 22.00 19.98 22.00 C 20.02 26.67 19.98 31.33 20.02 36.00 C 21.34 36.00 22.66 36.00 23.98 36.00 C 24.02 31.33 23.98 26.67 24.02 22.00 C 25.34 22.00 26.66 22.00 27.98 22.00 C 28.02 26.67 27.98 31.33 28.02 36.00 C 29.34 36.00 30.66 36.00 31.98 36.00 C 32.02 31.33 31.98 26.67 32.02 22.00 C 33.34 22.00 34.66 22.00 35.98 22.00 C 36.02 26.67 35.98 31.33 36.02 36.00 C 37.34 36.00 38.66 36.00 39.98 36.00 C 40.02 31.33 39.98 26.67 40.02 22.00 C 41.34 22.00 42.66 22.00 43.98 22.00 C 44.02 26.67 43.98 31.33 44.02 36.00 C 45.34 36.00 46.66 36.00 47.98 36.00 C 48.02 31.33 47.98 26.67 48.02 22.00 C 49.34 22.00 50.66 22.00 51.98 22.00 C 52.00 26.60 52.01 31.21 51.99 35.81 C 53.24 36.01 54.48 36.24 55.71 36.49 C 56.14 37.91 55.95 40.09 53.95 39.93 C 37.99 40.04 22.01 40.05 6.04 39.93 C 4.02 40.11 3.90 37.90 4.28 36.49 C 5.52 36.24 6.76 36.01 8.01 35.82 C 7.99 31.21 7.99 26.60 8.02 22.00 Z" />
<path fill="#000000" opacity="1.00" d=" M 0.00 44.76 C 1.58 44.19 3.25 43.96 4.93 43.98 C 21.30 44.00 37.68 44.03 54.05 43.97 C 56.06 43.95 58.11 44.03 60.00 44.78 L 60.00 47.35 C 58.05 47.81 56.06 48.07 54.05 48.03 C 39.70 47.97 25.35 48.00 11.00 48.01 C 7.33 47.98 3.59 48.32 0.00 47.33 L 0.00 44.76 Z" />
</g>
</svg>
