<?xml version="1.0" encoding="UTF-8" ?>
<!DOCTYPE svg PUBLIC "-//W3C//DTD SVG 1.1//EN" "http://www.w3.org/Graphics/SVG/1.1/DTD/svg11.dtd">
<svg width="147pt" height="130pt" viewBox="0 0 147 130" version="1.1" xmlns="http://www.w3.org/2000/svg">
<g id="#fffffff">
<path fill="#ffffff" opacity="1.00" d=" M 0.00 0.00 L 147.00 0.00 L 147.00 130.00 L 0.00 130.00 L 0.00 0.00 M 122.08 16.63 C 116.44 21.01 110.10 25.23 106.73 31.75 C 106.43 34.31 104.62 36.15 102.49 37.38 C 101.32 37.61 100.17 37.86 99.02 38.16 C 98.21 38.26 96.57 38.44 95.76 38.53 C 91.19 43.18 86.69 47.92 81.98 52.42 C 81.28 52.46 79.88 52.54 79.18 52.58 C 79.29 51.94 79.51 50.68 79.61 50.04 C 83.51 45.82 87.63 41.81 91.77 37.82 C 91.31 37.66 90.38 37.33 89.91 37.17 C 89.66 36.63 89.15 35.54 88.89 34.99 C 88.24 33.99 87.60 32.98 86.95 31.97 C 82.49 35.45 78.81 39.81 74.86 43.85 C 74.88 47.54 74.95 51.23 74.84 54.92 C 75.91 52.24 79.47 52.99 78.67 56.01 C 65.98 68.71 53.37 81.50 40.66 94.19 C 43.84 95.66 47.15 96.77 50.46 97.90 C 50.55 97.20 50.72 95.80 50.81 95.10 C 53.44 92.10 56.58 89.59 59.09 86.47 C 60.01 86.42 60.94 86.38 61.87 86.35 C 61.60 87.48 61.95 88.93 60.94 89.77 C 58.23 92.64 55.33 95.32 52.73 98.29 C 55.75 98.86 58.78 99.61 61.88 99.58 C 63.81 98.34 65.25 96.48 66.88 94.89 C 76.82 84.83 86.80 74.84 96.69 64.75 C 98.33 63.17 99.82 60.92 102.43 61.35 C 102.99 64.49 100.03 66.17 98.22 68.17 C 87.80 78.74 77.31 89.25 66.97 99.89 C 68.95 100.38 70.43 101.80 71.93 103.11 C 72.19 103.53 72.71 104.37 72.97 104.80 C 76.07 101.28 79.54 98.12 82.75 94.71 C 84.49 92.96 86.09 90.82 88.72 90.42 C 88.90 92.19 88.91 94.17 87.25 95.26 C 84.49 98.10 81.59 100.79 78.83 103.64 C 77.79 104.56 78.62 106.08 78.63 107.24 C 79.52 107.32 80.41 107.40 81.31 107.49 C 82.68 104.83 83.76 102.03 84.79 99.22 C 87.25 99.99 89.71 100.72 92.18 101.44 C 98.19 95.37 104.16 89.24 110.24 83.24 C 111.04 82.14 112.49 82.61 113.62 82.45 C 113.92 85.54 111.03 87.22 109.23 89.25 C 105.06 93.62 100.44 97.60 96.72 102.37 C 99.17 102.53 101.62 102.49 104.06 102.17 C 105.41 101.85 106.79 101.70 108.17 101.57 C 109.64 106.56 113.32 111.65 118.53 113.01 C 120.31 107.50 120.46 101.58 119.60 95.89 C 119.14 92.61 118.59 89.19 119.65 85.97 C 120.65 82.87 121.49 79.71 121.65 76.45 C 119.34 78.72 117.49 81.71 114.20 82.66 C 113.11 77.51 118.82 75.19 121.61 71.90 C 121.71 68.90 121.36 65.91 121.09 62.92 C 120.58 63.04 119.57 63.28 119.06 63.40 C 109.69 72.04 101.21 81.63 91.94 90.36 C 91.30 90.42 90.03 90.54 89.39 90.60 C 88.98 87.74 91.45 86.12 93.16 84.30 C 102.01 75.55 110.56 66.49 119.53 57.85 C 119.07 54.40 118.73 50.93 118.63 47.45 C 114.54 51.93 110.04 56.00 106.00 60.52 C 105.09 60.62 104.18 60.71 103.27 60.80 C 103.25 60.12 103.20 58.77 103.18 58.10 C 108.57 52.87 113.75 47.43 119.07 42.12 C 119.36 37.75 120.80 33.61 121.81 29.38 L 123.12 28.82 C 122.14 28.43 121.23 28.58 120.63 29.48 C 103.39 46.88 86.15 64.29 68.95 81.73 C 66.98 83.67 65.21 86.03 62.40 86.78 C 62.39 85.86 62.38 84.02 62.37 83.10 C 65.46 80.55 68.07 77.50 70.93 74.72 C 88.68 56.75 106.34 38.67 124.27 20.88 C 124.35 20.07 124.52 18.47 124.60 17.67 C 123.97 17.41 122.71 16.89 122.08 16.63 M 18.86 25.96 C 17.63 36.48 19.20 47.01 19.70 57.51 C 34.36 57.87 49.04 57.45 63.70 57.73 C 63.67 58.61 63.61 60.35 63.58 61.23 C 61.42 61.27 59.26 61.31 57.10 61.44 C 51.81 67.37 45.95 72.77 40.45 78.51 C 39.59 79.59 37.78 80.61 36.62 79.36 C 36.36 78.64 36.32 77.89 36.51 77.11 C 42.14 72.22 47.07 66.57 52.46 61.42 C 48.79 61.25 45.11 61.26 41.44 61.34 C 35.86 67.30 29.86 72.87 24.26 78.82 C 25.42 80.81 26.63 82.76 27.86 84.71 C 28.26 84.67 29.07 84.59 29.48 84.56 C 31.55 83.07 32.96 79.03 35.88 80.19 L 36.67 80.62 C 36.41 83.89 32.76 85.35 31.20 88.00 C 32.86 89.92 35.12 91.16 37.16 92.63 C 47.56 82.59 57.48 72.07 67.83 61.97 C 66.95 60.92 66.08 59.85 65.23 58.79 C 67.08 57.50 69.34 57.58 71.49 57.57 C 71.50 46.93 71.51 36.28 71.49 25.64 C 60.60 24.28 49.83 26.94 38.98 27.15 C 34.34 27.32 30.39 24.78 27.03 21.85 C 23.52 20.54 20.63 23.21 18.86 25.96 M 74.98 26.32 C 74.80 30.44 74.77 34.59 75.45 38.67 C 77.74 35.31 80.74 32.54 83.80 29.89 C 83.36 29.61 82.49 29.03 82.06 28.74 C 79.77 27.74 77.40 26.93 74.98 26.32 M 20.38 61.26 C 20.61 65.96 21.83 70.52 22.96 75.07 C 26.96 70.93 31.16 67.00 35.06 62.76 C 35.71 62.41 36.36 62.05 37.01 61.70 C 31.50 60.89 25.92 61.40 20.38 61.26 Z" />
<path fill="#ffffff" opacity="1.00" d=" M 28.21 39.70 C 28.82 38.10 29.74 36.65 30.86 35.36 C 31.26 35.68 32.08 36.32 32.48 36.64 C 32.80 37.67 33.11 38.69 33.43 39.72 C 34.66 39.73 35.89 39.75 37.12 39.77 C 37.49 42.63 40.11 42.05 40.78 39.74 C 41.92 39.73 43.06 39.71 44.20 39.70 C 44.62 38.62 45.04 37.55 45.48 36.48 C 45.86 36.24 46.63 35.77 47.01 35.53 C 47.38 35.83 48.10 36.44 48.46 36.74 C 48.73 37.73 49.00 38.72 49.27 39.71 C 50.01 39.71 51.47 39.72 52.20 39.73 C 53.23 40.41 54.28 41.06 55.33 41.72 C 56.18 39.60 58.05 39.57 60.04 39.61 C 60.56 37.95 61.32 36.38 62.84 35.43 C 63.25 35.78 64.08 36.47 64.50 36.81 C 64.59 37.51 64.77 38.91 64.86 39.61 C 66.13 39.64 67.41 39.64 68.68 39.64 C 69.41 40.56 69.64 41.65 69.59 42.81 C 66.38 43.83 67.57 46.94 67.61 49.42 C 66.93 49.55 65.58 49.81 64.91 49.94 C 64.69 49.50 64.24 48.61 64.01 48.16 C 61.79 48.54 59.83 50.11 57.49 49.56 C 57.80 47.93 58.13 46.31 58.50 44.70 C 56.95 43.63 55.38 42.59 53.87 41.47 C 53.20 42.59 52.43 43.65 51.55 44.63 C 51.30 46.30 51.69 48.02 51.55 49.71 C 49.59 50.08 47.95 48.64 46.10 48.26 C 45.26 49.15 44.25 49.70 43.08 49.90 C 40.57 49.22 42.44 46.37 42.56 44.65 C 41.41 43.75 40.28 42.82 39.09 41.97 C 37.61 42.32 36.50 43.49 35.52 44.57 C 35.48 46.31 35.68 48.05 35.59 49.80 C 33.66 49.89 32.04 48.65 30.20 48.29 C 29.16 48.99 28.10 49.66 27.02 50.29 C 26.57 49.57 26.11 48.85 25.67 48.12 C 25.89 47.28 26.33 45.60 26.55 44.76 C 25.55 43.77 24.46 42.88 23.39 41.97 C 23.71 41.40 24.34 40.28 24.66 39.72 C 25.84 39.71 27.03 39.71 28.21 39.70 Z" />
</g>
<g id="#000000ff">
<path fill="#968176" opacity="1.00" d=" M 122.08 16.63 C 122.71 16.89 123.97 17.41 124.60 17.67 C 124.52 18.47 124.35 20.07 124.27 20.88 C 106.34 38.67 88.68 56.75 70.93 74.72 C 68.07 77.50 65.46 80.55 62.37 83.10 C 62.38 84.02 62.39 85.86 62.40 86.78 C 65.21 86.03 66.98 83.67 68.95 81.73 C 86.15 64.29 103.39 46.88 120.63 29.48 C 121.23 28.58 122.14 28.43 123.12 28.82 L 121.81 29.38 C 120.80 33.61 119.36 37.75 119.07 42.12 C 113.75 47.43 108.57 52.87 103.18 58.10 C 103.20 58.77 103.25 60.12 103.27 60.80 C 104.18 60.71 105.09 60.62 106.00 60.52 C 110.04 56.00 114.54 51.93 118.63 47.45 C 118.73 50.93 119.07 54.40 119.53 57.85 C 110.56 66.49 102.01 75.55 93.16 84.30 C 91.45 86.12 88.98 87.74 89.39 90.60 C 90.03 90.54 91.30 90.42 91.94 90.36 C 101.21 81.63 109.69 72.04 119.06 63.40 C 119.57 63.28 120.58 63.04 121.09 62.92 C 121.36 65.91 121.71 68.90 121.61 71.90 C 118.82 75.19 113.11 77.51 114.20 82.66 C 117.49 81.71 119.34 78.72 121.65 76.45 C 121.49 79.71 120.65 82.87 119.65 85.97 C 118.59 89.19 119.14 92.61 119.60 95.89 C 120.46 101.58 120.31 107.50 118.53 113.01 C 113.32 111.65 109.64 106.56 108.17 101.57 C 106.79 101.70 105.41 101.85 104.06 102.17 C 101.62 102.49 99.17 102.53 96.72 102.37 C 100.44 97.60 105.06 93.62 109.23 89.25 C 111.03 87.22 113.92 85.54 113.62 82.45 C 112.49 82.61 111.04 82.14 110.24 83.24 C 104.16 89.24 98.19 95.37 92.18 101.44 C 89.71 100.72 87.25 99.99 84.79 99.22 C 83.76 102.03 82.68 104.83 81.31 107.49 C 80.41 107.40 79.52 107.32 78.63 107.24 C 78.62 106.08 77.79 104.56 78.83 103.64 C 81.59 100.79 84.49 98.10 87.25 95.26 C 88.91 94.17 88.90 92.19 88.72 90.42 C 86.09 90.82 84.49 92.96 82.75 94.71 C 79.54 98.12 76.07 101.28 72.97 104.80 C 72.71 104.37 72.19 103.53 71.93 103.11 C 70.43 101.80 68.95 100.38 66.97 99.89 C 77.31 89.25 87.80 78.74 98.22 68.17 C 100.03 66.17 102.99 64.49 102.43 61.35 C 99.82 60.92 98.33 63.17 96.69 64.75 C 86.80 74.84 76.82 84.83 66.88 94.89 C 65.25 96.48 63.81 98.34 61.88 99.58 C 58.78 99.61 55.75 98.86 52.73 98.29 C 55.33 95.32 58.23 92.64 60.94 89.77 C 61.95 88.93 61.60 87.48 61.87 86.35 C 60.94 86.38 60.01 86.42 59.09 86.47 C 56.58 89.59 53.44 92.10 50.81 95.10 C 50.72 95.80 50.55 97.20 50.46 97.90 C 47.15 96.77 43.84 95.66 40.66 94.19 C 53.37 81.50 65.98 68.71 78.67 56.01 C 79.47 52.99 75.91 52.24 74.84 54.92 C 74.95 51.23 74.88 47.54 74.86 43.85 C 78.81 39.81 82.49 35.45 86.95 31.97 C 87.60 32.98 88.24 33.99 88.89 34.99 C 89.15 35.54 89.66 36.63 89.91 37.17 C 90.38 37.33 91.31 37.66 91.77 37.82 C 87.63 41.81 83.51 45.82 79.61 50.04 C 79.51 50.68 79.29 51.94 79.18 52.58 C 79.88 52.54 81.28 52.46 81.98 52.42 C 86.69 47.92 91.19 43.18 95.76 38.53 C 96.57 38.44 98.21 38.26 99.02 38.16 C 100.17 37.86 101.32 37.61 102.49 37.38 C 104.62 36.15 106.43 34.31 106.73 31.75 C 110.10 25.23 116.44 21.01 122.08 16.63 Z" />
<path fill="#968176" opacity="1.00" d=" M 18.86 25.96 C 20.63 23.21 23.52 20.54 27.03 21.85 C 30.39 24.78 34.34 27.32 38.98 27.15 C 49.83 26.94 60.60 24.28 71.49 25.64 C 71.51 36.28 71.50 46.93 71.49 57.57 C 69.34 57.58 67.08 57.50 65.23 58.79 C 66.08 59.85 66.95 60.92 67.83 61.97 C 57.48 72.07 47.56 82.59 37.16 92.63 C 35.12 91.16 32.86 89.92 31.20 88.00 C 32.76 85.35 36.41 83.89 36.67 80.62 L 35.88 80.19 C 32.96 79.03 31.55 83.07 29.48 84.56 C 29.07 84.59 28.26 84.67 27.86 84.71 C 26.63 82.76 25.42 80.81 24.26 78.82 C 29.86 72.87 35.86 67.30 41.44 61.34 C 45.11 61.26 48.79 61.25 52.46 61.42 C 47.07 66.57 42.14 72.22 36.51 77.11 C 36.32 77.89 36.36 78.64 36.62 79.36 C 37.78 80.61 39.59 79.59 40.45 78.51 C 45.95 72.77 51.81 67.37 57.10 61.44 C 59.26 61.31 61.42 61.27 63.58 61.23 C 63.61 60.35 63.67 58.61 63.70 57.73 C 49.04 57.45 34.36 57.87 19.70 57.51 C 19.20 47.01 17.63 36.48 18.86 25.96 M 28.21 39.70 C 27.03 39.71 25.84 39.71 24.66 39.72 C 24.34 40.28 23.71 41.40 23.39 41.97 C 24.46 42.88 25.55 43.77 26.55 44.76 C 26.33 45.60 25.89 47.28 25.67 48.12 C 26.11 48.85 26.57 49.57 27.02 50.29 C 28.10 49.66 29.16 48.99 30.20 48.29 C 32.04 48.65 33.66 49.89 35.59 49.80 C 35.68 48.05 35.48 46.31 35.52 44.57 C 36.50 43.49 37.61 42.32 39.09 41.97 C 40.28 42.82 41.41 43.75 42.56 44.65 C 42.44 46.37 40.57 49.22 43.08 49.90 C 44.25 49.70 45.26 49.15 46.10 48.26 C 47.95 48.64 49.59 50.08 51.55 49.71 C 51.69 48.02 51.30 46.30 51.55 44.63 C 52.43 43.65 53.20 42.59 53.87 41.47 C 55.38 42.59 56.95 43.63 58.50 44.70 C 58.13 46.31 57.80 47.93 57.49 49.56 C 59.83 50.11 61.79 48.54 64.01 48.16 C 64.24 48.61 64.69 49.50 64.91 49.94 C 65.58 49.81 66.93 49.55 67.61 49.42 C 67.57 46.94 66.38 43.83 69.59 42.81 C 69.64 41.65 69.41 40.56 68.68 39.64 C 67.41 39.64 66.13 39.64 64.86 39.61 C 64.77 38.91 64.59 37.51 64.50 36.81 C 64.08 36.47 63.25 35.78 62.84 35.43 C 61.32 36.38 60.56 37.95 60.04 39.61 C 58.05 39.57 56.18 39.60 55.33 41.72 C 54.28 41.06 53.23 40.41 52.20 39.73 C 51.47 39.72 50.01 39.71 49.27 39.71 C 49.00 38.72 48.73 37.73 48.46 36.74 C 48.10 36.44 47.38 35.83 47.01 35.53 C 46.63 35.77 45.86 36.24 45.48 36.48 C 45.04 37.55 44.62 38.62 44.20 39.70 C 43.06 39.71 41.92 39.73 40.78 39.74 C 40.11 42.05 37.49 42.63 37.12 39.77 C 35.89 39.75 34.66 39.73 33.43 39.72 C 33.11 38.69 32.80 37.67 32.48 36.64 C 32.08 36.32 31.26 35.68 30.86 35.36 C 29.74 36.65 28.82 38.10 28.21 39.70 Z" />
<path fill="#968176" opacity="1.00" d=" M 74.98 26.32 C 77.40 26.93 79.77 27.74 82.06 28.74 C 82.49 29.03 83.36 29.61 83.80 29.89 C 80.74 32.54 77.74 35.31 75.45 38.67 C 74.77 34.59 74.80 30.44 74.98 26.32 Z" />
<path fill="#968176" opacity="1.00" d=" M 20.38 61.26 C 25.92 61.40 31.50 60.89 37.01 61.70 C 36.36 62.05 35.71 62.41 35.06 62.76 C 31.16 67.00 26.96 70.93 22.96 75.07 C 21.83 70.52 20.61 65.96 20.38 61.26 Z" />
</g>
</svg>
