<?xml version="1.0" encoding="UTF-8" ?>
<!DOCTYPE svg PUBLIC "-//W3C//DTD SVG 1.1//EN" "http://www.w3.org/Graphics/SVG/1.1/DTD/svg11.dtd">
<svg width="60pt" height="60pt" viewBox="0 0 60 60" version="1.1" xmlns="http://www.w3.org/2000/svg">
<g id="#ffffffff">
<path fill="#ffffff" opacity="1.00" d=" M 0.00 0.00 L 60.00 0.00 L 60.00 60.00 L 0.00 60.00 L 0.00 0.00 M 24.48 6.65 C 16.90 8.41 10.36 14.10 7.61 21.39 C 5.11 27.78 5.57 35.24 8.83 41.28 C 12.55 48.32 19.97 53.27 27.93 53.89 C 36.35 54.70 45.01 50.63 49.73 43.61 C 55.70 35.26 55.30 23.10 48.82 15.15 C 43.26 7.90 33.35 4.46 24.48 6.65 Z" />
<path fill="#ffffff" opacity="1.00" d=" M 36.86 18.17 C 37.82 18.26 39.79 17.48 39.89 19.02 C 40.13 24.71 40.01 30.44 39.94 36.14 C 40.30 40.55 32.11 41.67 32.01 36.96 C 31.86 33.43 36.19 34.66 37.90 33.11 C 38.15 30.10 37.96 27.08 38.00 24.07 C 33.34 24.58 28.68 25.12 24.02 25.60 C 23.89 30.07 24.22 34.55 23.85 39.01 C 23.14 43.29 14.75 42.95 16.15 38.00 C 16.86 35.28 20.59 36.78 21.89 35.03 C 22.23 30.01 21.80 24.96 22.12 19.93 C 27.01 19.19 31.95 18.79 36.86 18.17 Z" />
</g>
<g id="#000000ff">
<path fill="#000000" opacity="1.00" d=" M 24.48 6.65 C 33.35 4.46 43.26 7.90 48.82 15.15 C 55.30 23.10 55.70 35.26 49.73 43.61 C 45.01 50.63 36.35 54.70 27.93 53.89 C 19.97 53.27 12.55 48.32 8.83 41.28 C 5.57 35.24 5.11 27.78 7.61 21.39 C 10.36 14.10 16.90 8.41 24.48 6.65 M 36.86 18.17 C 31.95 18.79 27.01 19.19 22.12 19.93 C 21.80 24.96 22.23 30.01 21.89 35.03 C 20.59 36.78 16.86 35.28 16.15 38.00 C 14.75 42.95 23.14 43.29 23.85 39.01 C 24.22 34.55 23.89 30.07 24.02 25.60 C 28.68 25.12 33.34 24.58 38.00 24.07 C 37.96 27.08 38.15 30.10 37.90 33.11 C 36.19 34.66 31.86 33.43 32.01 36.96 C 32.11 41.67 40.30 40.55 39.94 36.14 C 40.01 30.44 40.13 24.71 39.89 19.02 C 39.79 17.48 37.82 18.26 36.86 18.17 Z" />
</g>
</svg>
