<?xml version="1.0" encoding="UTF-8" ?>
<!DOCTYPE svg PUBLIC "-//W3C//DTD SVG 1.1//EN" "http://www.w3.org/Graphics/SVG/1.1/DTD/svg11.dtd">
<svg width="60pt" height="60pt" viewBox="0 0 60 60" version="1.1" xmlns="http://www.w3.org/2000/svg">
<g id="#ffffffff">
<path fill="#ffffff" opacity="1.00" d=" M 0.00 0.00 L 60.00 0.00 L 60.00 60.00 L 0.00 60.00 L 0.00 0.00 M 22.69 12.95 C 17.39 13.08 11.23 14.31 8.46 19.39 C 3.62 28.53 5.82 41.32 14.48 47.45 C 18.55 50.28 23.93 53.51 28.88 50.87 C 34.76 53.31 41.47 51.20 46.13 47.22 C 53.67 40.88 55.90 29.48 52.36 20.47 C 48.29 10.86 35.35 7.46 26.43 12.20 C 26.51 9.89 27.90 8.42 30.09 7.92 C 32.10 7.70 32.67 5.11 30.85 4.14 C 25.99 3.43 21.72 8.14 22.69 12.95 Z" />
<path fill="#ffffff" opacity="1.00" d=" M 32.38 24.55 C 34.74 21.42 37.09 18.28 39.44 15.15 C 40.62 16.71 41.79 18.28 42.97 19.84 C 42.19 21.03 41.40 22.21 40.61 23.39 C 37.87 23.77 35.13 24.16 32.38 24.55 Z" />
<path fill="#ffffff" opacity="1.00" d=" M 14.73 22.21 C 15.91 21.04 17.09 19.86 18.27 18.67 C 20.62 20.61 22.95 22.57 25.28 24.53 C 22.56 24.54 19.85 24.52 17.13 24.55 C 16.33 23.77 15.53 22.99 14.73 22.21 Z" />
<path fill="#ffffff" opacity="1.00" d=" M 46.67 20.82 C 51.15 26.62 51.14 35.32 46.66 41.13 C 46.32 39.95 45.99 38.76 45.67 37.58 C 45.03 39.64 44.20 41.63 43.12 43.50 C 42.81 42.88 42.17 41.64 41.86 41.02 C 41.29 41.91 40.16 43.69 39.60 44.58 C 38.85 43.78 38.11 42.99 37.37 42.19 C 37.02 43.10 36.32 44.92 35.98 45.83 C 35.07 45.02 34.16 44.20 33.26 43.39 C 33.00 44.27 32.49 46.02 32.24 46.90 C 31.45 45.69 30.68 44.48 29.88 43.28 C 29.57 44.17 28.94 45.95 28.63 46.84 C 27.51 45.65 26.36 44.50 25.21 43.34 C 24.91 44.24 24.32 46.03 24.02 46.93 C 23.20 45.75 22.39 44.57 21.58 43.38 C 21.26 44.00 20.62 45.23 20.29 45.85 C 18.98 44.39 17.75 42.84 16.81 41.11 C 16.40 42.23 16.03 43.36 15.68 44.51 C 10.33 39.43 8.09 30.94 12.24 24.43 C 11.98 28.02 12.00 31.65 13.09 35.12 C 13.92 33.51 14.76 31.90 15.67 30.33 C 16.04 32.67 16.39 35.02 16.85 37.34 C 17.60 35.78 18.38 34.24 19.18 32.71 C 19.66 35.36 20.80 37.82 22.55 39.89 C 23.38 38.30 24.21 36.71 25.08 35.14 C 26.24 37.10 27.46 39.04 28.65 40.99 C 29.02 39.04 29.40 37.09 29.87 35.16 C 31.08 36.81 32.33 38.43 33.67 39.98 C 34.16 37.97 34.56 35.93 34.91 33.88 C 36.80 35.66 38.41 37.69 39.81 39.87 C 40.98 37.23 41.70 34.43 41.97 31.55 C 42.83 33.04 43.69 34.53 44.52 36.05 C 45.07 33.43 45.60 30.81 45.73 28.13 C 46.50 29.62 47.31 31.08 48.07 32.57 C 48.06 28.61 47.60 24.67 46.67 20.82 Z" />
<path fill="#ffffff" opacity="1.00" d=" M 25.31 28.07 C 27.67 28.07 30.04 28.07 32.40 28.07 C 31.22 29.25 30.04 30.43 28.85 31.61 C 27.67 30.43 26.49 29.25 25.31 28.07 Z" />
</g>
<g id="#000000ff">
<path fill="#000000" opacity="1.00" d=" M 22.69 12.95 C 21.72 8.14 25.99 3.43 30.85 4.14 C 32.67 5.11 32.10 7.70 30.09 7.92 C 27.90 8.42 26.51 9.89 26.43 12.20 C 35.35 7.46 48.29 10.86 52.36 20.47 C 55.90 29.48 53.67 40.88 46.13 47.22 C 41.47 51.20 34.76 53.31 28.88 50.87 C 23.93 53.51 18.55 50.28 14.48 47.45 C 5.82 41.32 3.62 28.53 8.46 19.39 C 11.23 14.31 17.39 13.08 22.69 12.95 M 32.38 24.55 C 35.13 24.16 37.87 23.77 40.61 23.39 C 41.40 22.21 42.19 21.03 42.97 19.84 C 41.79 18.28 40.62 16.71 39.44 15.15 C 37.09 18.28 34.74 21.42 32.38 24.55 M 14.73 22.21 C 15.53 22.99 16.33 23.77 17.13 24.55 C 19.85 24.52 22.56 24.54 25.28 24.53 C 22.95 22.57 20.62 20.61 18.27 18.67 C 17.09 19.86 15.91 21.04 14.73 22.21 M 46.67 20.82 C 47.60 24.67 48.06 28.61 48.07 32.57 C 47.31 31.08 46.50 29.62 45.73 28.13 C 45.60 30.81 45.07 33.43 44.52 36.05 C 43.69 34.53 42.83 33.04 41.97 31.55 C 41.70 34.43 40.98 37.23 39.81 39.87 C 38.41 37.69 36.80 35.66 34.91 33.88 C 34.56 35.93 34.16 37.97 33.67 39.98 C 32.33 38.43 31.08 36.81 29.87 35.16 C 29.40 37.09 29.02 39.04 28.65 40.99 C 27.46 39.04 26.24 37.10 25.08 35.14 C 24.21 36.71 23.38 38.30 22.55 39.89 C 20.80 37.82 19.66 35.36 19.18 32.71 C 18.38 34.24 17.60 35.78 16.85 37.34 C 16.39 35.02 16.04 32.67 15.67 30.33 C 14.76 31.90 13.92 33.51 13.09 35.12 C 12.00 31.65 11.98 28.02 12.24 24.43 C 8.09 30.94 10.33 39.43 15.68 44.51 C 16.03 43.36 16.40 42.23 16.81 41.11 C 17.75 42.84 18.98 44.39 20.29 45.85 C 20.62 45.23 21.26 44.00 21.58 43.38 C 22.39 44.57 23.20 45.75 24.02 46.93 C 24.32 46.03 24.91 44.24 25.21 43.34 C 26.36 44.50 27.51 45.65 28.63 46.84 C 28.94 45.95 29.57 44.17 29.88 43.28 C 30.68 44.48 31.45 45.69 32.24 46.90 C 32.49 46.02 33.00 44.27 33.26 43.39 C 34.16 44.20 35.07 45.02 35.98 45.83 C 36.32 44.92 37.02 43.10 37.37 42.19 C 38.11 42.99 38.85 43.78 39.60 44.58 C 40.16 43.69 41.29 41.91 41.86 41.02 C 42.17 41.64 42.81 42.88 43.12 43.50 C 44.20 41.63 45.03 39.64 45.67 37.58 C 45.99 38.76 46.32 39.95 46.66 41.13 C 51.14 35.32 51.15 26.62 46.67 20.82 M 25.31 28.07 C 26.49 29.25 27.67 30.43 28.85 31.61 C 30.04 30.43 31.22 29.25 32.40 28.07 C 30.04 28.07 27.67 28.07 25.31 28.07 Z" />
</g>
</svg>
