<?xml version="1.0" encoding="UTF-8" ?>
<!DOCTYPE svg PUBLIC "-//W3C//DTD SVG 1.1//EN" "http://www.w3.org/Graphics/SVG/1.1/DTD/svg11.dtd">
<svg width="60pt" height="60pt" viewBox="0 0 60 60" version="1.1" xmlns="http://www.w3.org/2000/svg">
<g id="#ffffffff">
<path fill="#ffffff" opacity="1.00" d=" M 0.00 0.00 L 60.00 0.00 L 60.00 60.00 L 0.00 60.00 L 0.00 0.00 M 35.40 10.48 C 32.04 12.39 35.50 17.84 38.66 15.46 C 41.88 13.53 38.55 8.27 35.40 10.48 M 3.96 18.35 C 4.10 25.59 3.89 32.84 4.05 40.09 C 3.94 45.37 8.69 50.09 13.97 49.96 C 24.66 50.03 35.36 50.03 46.04 49.96 C 51.33 50.08 56.06 45.36 55.95 40.08 C 56.11 32.84 55.91 25.59 56.03 18.35 C 56.50 17.97 57.42 17.21 57.88 16.82 C 58.71 14.67 55.98 13.22 54.29 14.39 C 50.78 16.23 52.30 20.83 52.01 24.00 C 37.34 24.00 22.66 24.00 7.99 24.00 C 7.82 20.61 9.19 15.44 4.93 14.07 C 1.76 13.18 1.07 17.50 3.96 18.35 Z" />
<path fill="#ffffff" opacity="1.00" d=" M 26.35 28.38 C 29.45 26.64 33.33 30.56 31.61 33.64 C 30.66 35.84 27.60 36.79 25.69 35.23 C 23.14 33.66 23.64 29.49 26.35 28.38 Z" />
<path fill="#ffffff" opacity="1.00" d=" M 43.23 28.09 C 45.61 27.21 47.11 30.77 44.85 31.87 C 42.43 32.92 40.81 29.13 43.23 28.09 Z" />
<path fill="#ffffff" opacity="1.00" d=" M 37.16 38.18 C 39.51 37.05 41.16 40.75 38.87 41.88 C 36.50 42.90 34.78 39.22 37.16 38.18 Z" />
</g>
<g id="#000000ff">
<path fill="#000000" opacity="1.00" d=" M 35.40 10.48 C 38.55 8.27 41.88 13.53 38.66 15.46 C 35.50 17.84 32.04 12.39 35.40 10.48 Z" />
<path fill="#000000" opacity="1.00" d=" M 3.96 18.35 C 1.07 17.50 1.76 13.18 4.93 14.07 C 9.19 15.44 7.82 20.61 7.99 24.00 C 22.66 24.00 37.34 24.00 52.01 24.00 C 52.30 20.83 50.78 16.23 54.29 14.39 C 55.98 13.22 58.71 14.67 57.88 16.82 C 57.42 17.21 56.50 17.97 56.03 18.35 C 55.91 25.59 56.11 32.84 55.95 40.08 C 56.06 45.36 51.33 50.08 46.04 49.96 C 35.36 50.03 24.66 50.03 13.97 49.96 C 8.69 50.09 3.94 45.37 4.05 40.09 C 3.89 32.84 4.10 25.59 3.96 18.35 M 26.35 28.38 C 23.64 29.49 23.14 33.66 25.69 35.23 C 27.60 36.79 30.66 35.84 31.61 33.64 C 33.33 30.56 29.45 26.64 26.35 28.38 M 43.23 28.09 C 40.81 29.13 42.43 32.92 44.85 31.87 C 47.11 30.77 45.61 27.21 43.23 28.09 M 37.16 38.18 C 34.78 39.22 36.50 42.90 38.87 41.88 C 41.16 40.75 39.51 37.05 37.16 38.18 Z" />
</g>
</svg>
