<?xml version="1.0" encoding="UTF-8" ?>
<!DOCTYPE svg PUBLIC "-//W3C//DTD SVG 1.1//EN" "http://www.w3.org/Graphics/SVG/1.1/DTD/svg11.dtd">
<svg width="64pt" height="64pt" viewBox="0 0 64 64" version="1.1" xmlns="http://www.w3.org/2000/svg">
<g id="#ffffffff">
<path fill="#ffffff" opacity="1.00" d=" M 0.00 0.00 L 64.00 0.00 L 64.00 64.00 L 0.00 64.00 L 0.00 0.00 M 21.48 10.57 C 17.51 12.21 16.80 18.20 20.31 20.70 C 23.59 23.55 29.26 21.34 29.89 17.09 C 30.95 12.56 25.62 8.37 21.48 10.57 M 2.00 17.92 C 2.00 19.24 2.00 20.56 2.00 21.89 C 3.31 22.17 5.14 21.66 5.84 23.18 C 6.31 29.79 5.72 36.44 6.11 43.06 C 6.48 47.93 10.99 52.00 15.87 51.95 C 26.58 52.04 37.30 52.02 48.01 51.96 C 52.91 52.06 57.48 48.01 57.88 43.11 C 58.29 36.48 57.69 29.82 58.16 23.19 C 58.84 21.66 60.69 22.16 62.00 21.89 C 62.00 20.57 62.00 19.24 62.00 17.92 C 59.81 18.01 57.30 18.01 55.73 19.81 C 53.99 21.39 54.03 23.85 53.91 26.00 C 51.85 26.01 49.80 26.00 47.74 25.98 C 46.53 23.90 44.61 21.90 42.00 22.00 C 39.40 21.91 37.42 23.92 36.21 26.01 C 27.50 25.99 18.80 26.00 10.09 26.00 C 9.97 23.84 9.99 21.37 8.24 19.79 C 6.68 18.01 4.18 18.02 2.00 17.92 Z" />
<path fill="#ffffff" opacity="1.00" d=" M 23.18 14.19 C 25.53 12.97 27.21 16.90 24.80 17.89 C 22.44 18.91 20.80 15.13 23.18 14.19 Z" />
<path fill="#ffffff" opacity="1.00" d=" M 41.21 26.18 C 43.57 25.00 45.20 28.95 42.78 29.88 C 40.43 30.92 38.79 27.06 41.21 26.18 Z" />
<path fill="#ffffff" opacity="1.00" d=" M 10.00 30.00 C 18.75 30.02 27.50 29.97 36.25 30.02 C 37.45 32.12 39.40 34.09 42.00 34.00 C 44.60 34.08 46.54 32.11 47.74 30.02 C 49.83 30.00 51.91 29.99 54.00 30.00 C 53.94 34.05 54.11 38.10 53.95 42.15 C 54.01 45.24 51.23 48.01 48.14 47.95 C 37.76 48.07 27.37 47.97 16.99 48.00 C 13.90 48.36 10.61 46.30 10.14 43.12 C 9.80 38.76 10.09 34.37 10.00 30.00 M 21.43 34.59 C 17.49 36.27 16.83 42.24 20.33 44.72 C 23.62 47.54 29.24 45.34 29.88 41.11 C 30.97 36.55 25.58 32.33 21.43 34.59 Z" />
<path fill="#ffffff" opacity="1.00" d=" M 23.19 38.11 C 25.62 37.06 27.22 41.02 24.71 41.87 C 22.37 42.88 20.86 39.07 23.19 38.11 Z" />
</g>
<g id="#000000ff">
<path fill="#000000" opacity="1.00" d=" M 21.48 10.57 C 25.62 8.37 30.95 12.56 29.89 17.09 C 29.26 21.34 23.59 23.55 20.31 20.70 C 16.80 18.20 17.51 12.21 21.48 10.57 M 23.18 14.19 C 20.80 15.13 22.44 18.91 24.80 17.89 C 27.21 16.90 25.53 12.97 23.18 14.19 Z" />
<path fill="#000000" opacity="1.00" d=" M 2.00 17.92 C 4.18 18.02 6.68 18.01 8.24 19.79 C 9.99 21.37 9.97 23.84 10.09 26.00 C 18.80 26.00 27.50 25.99 36.21 26.01 C 37.42 23.92 39.40 21.91 42.00 22.00 C 44.61 21.90 46.53 23.90 47.74 25.98 C 49.80 26.00 51.85 26.01 53.91 26.00 C 54.03 23.85 53.99 21.39 55.73 19.81 C 57.30 18.01 59.81 18.01 62.00 17.92 C 62.00 19.24 62.00 20.57 62.00 21.89 C 60.69 22.16 58.84 21.66 58.16 23.19 C 57.69 29.82 58.29 36.48 57.88 43.11 C 57.48 48.01 52.91 52.06 48.01 51.96 C 37.30 52.02 26.58 52.04 15.87 51.95 C 10.99 52.00 6.48 47.93 6.11 43.06 C 5.72 36.44 6.31 29.79 5.84 23.18 C 5.14 21.66 3.31 22.17 2.00 21.89 C 2.00 20.56 2.00 19.24 2.00 17.92 M 41.21 26.18 C 38.79 27.06 40.43 30.92 42.78 29.88 C 45.20 28.95 43.57 25.00 41.21 26.18 M 10.00 30.00 C 10.09 34.37 9.80 38.76 10.14 43.12 C 10.61 46.30 13.90 48.36 16.99 48.00 C 27.37 47.97 37.76 48.07 48.14 47.95 C 51.23 48.01 54.01 45.24 53.95 42.15 C 54.11 38.10 53.94 34.05 54.00 30.00 C 51.91 29.99 49.83 30.00 47.74 30.02 C 46.54 32.11 44.60 34.08 42.00 34.00 C 39.40 34.09 37.45 32.12 36.25 30.02 C 27.50 29.97 18.75 30.02 10.00 30.00 Z" />
<path fill="#000000" opacity="1.00" d=" M 21.43 34.59 C 25.58 32.33 30.97 36.55 29.88 41.11 C 29.24 45.34 23.62 47.54 20.33 44.72 C 16.83 42.24 17.49 36.27 21.43 34.59 M 23.19 38.11 C 20.86 39.07 22.37 42.88 24.71 41.87 C 27.22 41.02 25.62 37.06 23.19 38.11 Z" />
</g>
</svg>
