<?xml version="1.0" encoding="UTF-8" ?>
<!DOCTYPE svg PUBLIC "-//W3C//DTD SVG 1.1//EN" "http://www.w3.org/Graphics/SVG/1.1/DTD/svg11.dtd">
<svg width="64pt" height="64pt" viewBox="0 0 64 64" version="1.1" xmlns="http://www.w3.org/2000/svg">
<g id="#ffffffff">
<path fill="#ffffff" opacity="1.00" d=" M 0.00 0.00 L 64.00 0.00 L 64.00 64.00 L 0.00 64.00 L 0.00 0.00 M 6.00 6.00 C 6.00 23.33 6.00 40.66 6.00 58.00 C 23.33 58.00 40.67 58.00 58.00 58.00 C 58.00 40.66 58.00 23.33 58.00 6.00 C 40.67 6.00 23.34 6.00 6.00 6.00 Z" />
<path fill="#ffffff" opacity="1.00" d=" M 10.02 10.00 C 11.34 10.00 12.66 10.00 13.98 10.00 C 14.01 14.67 14.01 19.33 13.98 24.00 C 12.66 24.00 11.34 24.00 10.02 24.00 C 9.99 19.33 9.99 14.67 10.02 10.00 Z" />
<path fill="#ffffff" opacity="1.00" d=" M 18.02 10.00 C 19.34 10.00 20.66 10.00 21.98 10.00 C 22.01 14.67 22.01 19.33 21.98 24.00 C 20.66 24.00 19.34 24.00 18.02 24.00 C 17.99 19.33 17.99 14.67 18.02 10.00 Z" />
<path fill="#ffffff" opacity="1.00" d=" M 26.02 10.00 C 27.34 10.00 28.66 10.00 29.98 10.00 C 30.01 14.67 30.01 19.33 29.98 24.00 C 28.66 24.00 27.34 24.00 26.02 24.00 C 25.99 19.33 25.99 14.67 26.02 10.00 Z" />
<path fill="#ffffff" opacity="1.00" d=" M 34.02 10.00 C 35.34 10.00 36.66 10.00 37.98 10.00 C 38.01 14.67 38.01 19.33 37.98 24.00 C 36.66 24.00 35.34 24.00 34.02 24.00 C 33.99 19.33 33.99 14.67 34.02 10.00 Z" />
<path fill="#ffffff" opacity="1.00" d=" M 42.02 10.00 C 43.34 10.00 44.66 10.00 45.98 10.00 C 46.01 14.67 46.01 19.33 45.98 24.00 C 44.66 24.00 43.34 24.00 42.02 24.00 C 41.99 19.33 41.99 14.67 42.02 10.00 Z" />
<path fill="#ffffff" opacity="1.00" d=" M 50.02 10.00 C 51.34 10.00 52.66 10.00 53.98 10.00 C 54.01 14.67 54.01 19.33 53.98 24.00 C 52.66 24.00 51.34 24.00 50.02 24.00 C 49.99 19.33 49.99 14.67 50.02 10.00 Z" />
<path fill="#ffffff" opacity="1.00" d=" M 10.00 28.00 C 16.67 28.00 23.33 28.00 30.00 28.00 C 30.00 30.67 30.00 33.33 30.00 36.00 C 23.33 36.00 16.67 36.00 10.00 36.00 C 10.00 33.33 10.00 30.67 10.00 28.00 M 25.21 30.09 C 22.86 31.16 24.37 34.82 26.79 33.90 C 29.14 32.84 27.62 29.17 25.21 30.09 Z" />
<path fill="#ffffff" opacity="1.00" d=" M 34.00 28.00 C 40.67 28.00 47.33 27.99 54.00 28.01 C 54.00 30.67 54.00 33.33 54.00 36.00 C 47.33 36.00 40.67 36.00 34.00 36.00 C 34.00 33.33 34.00 30.67 34.00 28.00 M 37.20 30.09 C 34.86 31.18 36.37 34.81 38.79 33.90 C 41.14 32.82 39.62 29.18 37.20 30.09 Z" />
<path fill="#ffffff" opacity="1.00" d=" M 10.00 40.00 C 16.67 40.00 23.33 40.00 29.99 40.00 C 30.00 44.67 30.01 49.33 29.98 54.00 C 28.66 54.00 27.34 54.00 26.01 54.00 C 26.00 50.67 26.00 47.33 25.99 44.00 C 24.66 44.00 23.34 44.00 22.01 44.00 C 22.00 47.33 22.00 50.67 21.99 54.00 C 20.66 54.00 19.34 54.00 18.01 54.00 C 18.00 50.67 18.00 47.33 17.99 44.00 C 16.66 44.00 15.34 44.00 14.01 44.00 C 14.00 47.33 14.00 50.67 13.99 54.00 C 12.66 54.00 11.34 54.00 10.02 54.00 C 9.99 49.34 10.00 44.67 10.00 40.00 Z" />
<path fill="#ffffff" opacity="1.00" d=" M 34.01 40.00 C 40.67 40.00 47.33 40.00 53.99 40.00 C 54.00 44.67 54.01 49.34 53.98 54.00 C 52.66 54.00 51.34 54.00 50.01 54.00 C 50.00 50.67 50.00 47.33 49.98 44.00 C 48.66 44.00 47.34 44.00 46.01 44.00 C 46.00 47.33 46.00 50.67 45.99 54.00 C 44.66 54.00 43.34 54.00 42.01 54.00 C 42.00 50.67 42.00 47.33 41.99 44.00 C 40.66 44.00 39.34 44.00 38.01 44.00 C 38.00 47.33 38.00 50.67 37.98 54.00 C 36.66 54.00 35.34 54.00 34.02 54.00 C 33.99 49.33 34.00 44.67 34.01 40.00 Z" />
</g>
<g id="#000000ff">
<path fill="#000000" opacity="1.00" d=" M 6.00 6.00 C 23.34 6.00 40.67 6.00 58.00 6.00 C 58.00 23.33 58.00 40.66 58.00 58.00 C 40.67 58.00 23.33 58.00 6.00 58.00 C 6.00 40.66 6.00 23.33 6.00 6.00 M 10.02 10.00 C 9.99 14.67 9.99 19.33 10.02 24.00 C 11.34 24.00 12.66 24.00 13.98 24.00 C 14.01 19.33 14.01 14.67 13.98 10.00 C 12.66 10.00 11.34 10.00 10.02 10.00 M 18.02 10.00 C 17.99 14.67 17.99 19.33 18.02 24.00 C 19.34 24.00 20.66 24.00 21.98 24.00 C 22.01 19.33 22.01 14.67 21.98 10.00 C 20.66 10.00 19.34 10.00 18.02 10.00 M 26.02 10.00 C 25.99 14.67 25.99 19.33 26.02 24.00 C 27.34 24.00 28.66 24.00 29.98 24.00 C 30.01 19.33 30.01 14.67 29.98 10.00 C 28.66 10.00 27.34 10.00 26.02 10.00 M 34.02 10.00 C 33.99 14.67 33.99 19.33 34.02 24.00 C 35.34 24.00 36.66 24.00 37.98 24.00 C 38.01 19.33 38.01 14.67 37.98 10.00 C 36.66 10.00 35.34 10.00 34.02 10.00 M 42.02 10.00 C 41.99 14.67 41.99 19.33 42.02 24.00 C 43.34 24.00 44.66 24.00 45.98 24.00 C 46.01 19.33 46.01 14.67 45.98 10.00 C 44.66 10.00 43.34 10.00 42.02 10.00 M 50.02 10.00 C 49.99 14.67 49.99 19.33 50.02 24.00 C 51.34 24.00 52.66 24.00 53.98 24.00 C 54.01 19.33 54.01 14.67 53.98 10.00 C 52.66 10.00 51.34 10.00 50.02 10.00 M 10.00 28.00 C 10.00 30.67 10.00 33.33 10.00 36.00 C 16.67 36.00 23.33 36.00 30.00 36.00 C 30.00 33.33 30.00 30.67 30.00 28.00 C 23.33 28.00 16.67 28.00 10.00 28.00 M 34.00 28.00 C 34.00 30.67 34.00 33.33 34.00 36.00 C 40.67 36.00 47.33 36.00 54.00 36.00 C 54.00 33.33 54.00 30.67 54.00 28.01 C 47.33 27.99 40.67 28.00 34.00 28.00 M 10.00 40.00 C 10.00 44.67 9.99 49.34 10.02 54.00 C 11.34 54.00 12.66 54.00 13.99 54.00 C 14.00 50.67 14.00 47.33 14.01 44.00 C 15.34 44.00 16.66 44.00 17.99 44.00 C 18.00 47.33 18.00 50.67 18.01 54.00 C 19.34 54.00 20.66 54.00 21.99 54.00 C 22.00 50.67 22.00 47.33 22.01 44.00 C 23.34 44.00 24.66 44.00 25.99 44.00 C 26.00 47.33 26.00 50.67 26.01 54.00 C 27.34 54.00 28.66 54.00 29.98 54.00 C 30.01 49.33 30.00 44.67 29.99 40.00 C 23.33 40.00 16.67 40.00 10.00 40.00 M 34.01 40.00 C 34.00 44.67 33.99 49.33 34.02 54.00 C 35.34 54.00 36.66 54.00 37.98 54.00 C 38.00 50.67 38.00 47.33 38.01 44.00 C 39.34 44.00 40.66 44.00 41.99 44.00 C 42.00 47.33 42.00 50.67 42.01 54.00 C 43.34 54.00 44.66 54.00 45.99 54.00 C 46.00 50.67 46.00 47.33 46.01 44.00 C 47.34 44.00 48.66 44.00 49.98 44.00 C 50.00 47.33 50.00 50.67 50.01 54.00 C 51.34 54.00 52.66 54.00 53.98 54.00 C 54.01 49.34 54.00 44.67 53.99 40.00 C 47.33 40.00 40.67 40.00 34.01 40.00 Z" />
<path fill="#000000" opacity="1.00" d=" M 25.21 30.09 C 27.62 29.17 29.14 32.84 26.79 33.90 C 24.37 34.82 22.86 31.16 25.21 30.09 Z" />
<path fill="#000000" opacity="1.00" d=" M 37.20 30.09 C 39.62 29.18 41.14 32.82 38.79 33.90 C 36.37 34.81 34.86 31.18 37.20 30.09 Z" />
</g>
</svg>
