<?xml version="1.0" encoding="UTF-8" ?>
<!DOCTYPE svg PUBLIC "-//W3C//DTD SVG 1.1//EN" "http://www.w3.org/Graphics/SVG/1.1/DTD/svg11.dtd">
<svg width="60pt" height="60pt" viewBox="0 0 60 60" version="1.1" xmlns="http://www.w3.org/2000/svg">
<g id="#ffffffff">
<path fill="#ffffff" opacity="1.00" d=" M 0.00 0.00 L 60.00 0.00 L 60.00 60.00 L 0.00 60.00 L 0.00 0.00 M 4.37 10.30 C 4.10 13.08 4.21 16.08 1.82 18.00 C 2.65 19.25 4.24 20.28 4.01 21.98 C 4.01 27.32 4.01 32.66 4.01 38.00 C 4.25 39.71 2.67 40.74 1.82 41.99 C 4.21 43.92 4.10 46.91 4.37 49.70 C 9.23 50.26 14.12 49.91 19.00 50.00 C 31.20 49.81 43.44 50.39 55.63 49.69 C 55.90 46.91 55.79 43.92 58.18 41.99 C 57.33 40.74 55.75 39.71 55.99 38.00 C 55.99 32.67 55.99 27.33 55.99 22.00 C 55.75 20.29 57.33 19.25 58.18 18.01 C 55.79 16.08 55.90 13.09 55.63 10.30 C 50.77 9.74 45.88 10.09 41.00 10.00 C 28.79 10.18 16.56 9.62 4.37 10.30 Z" />
<path fill="#ffffff" opacity="1.00" d=" M 8.01 14.00 C 9.34 14.00 10.66 14.00 11.99 14.00 C 12.00 17.33 12.00 20.67 11.99 24.00 C 10.66 24.00 9.34 24.00 8.01 24.00 C 8.00 20.67 8.00 17.33 8.01 14.00 Z" />
<path fill="#ffffff" opacity="1.00" d=" M 16.01 14.00 C 17.34 14.00 18.66 14.00 19.99 14.00 C 20.00 17.33 20.00 20.67 19.99 24.00 C 18.66 24.00 17.34 24.00 16.01 24.00 C 16.00 20.67 16.00 17.33 16.01 14.00 Z" />
<path fill="#ffffff" opacity="1.00" d=" M 24.01 14.00 C 25.34 14.00 26.66 14.00 27.99 14.00 C 28.00 17.33 28.00 20.67 27.99 24.00 C 26.66 24.00 25.34 24.00 24.01 24.00 C 24.00 20.67 24.00 17.33 24.01 14.00 Z" />
<path fill="#ffffff" opacity="1.00" d=" M 32.01 14.00 C 33.34 14.00 34.66 14.00 35.99 14.00 C 36.00 17.33 36.00 20.67 35.99 24.00 C 34.66 24.00 33.34 24.00 32.01 24.00 C 32.00 20.67 32.00 17.33 32.01 14.00 Z" />
<path fill="#ffffff" opacity="1.00" d=" M 40.01 14.00 C 41.34 14.00 42.66 14.00 43.99 14.00 C 44.00 17.33 44.00 20.67 43.99 24.00 C 42.66 24.00 41.34 24.00 40.01 24.00 C 40.00 20.67 40.00 17.33 40.01 14.00 Z" />
<path fill="#ffffff" opacity="1.00" d=" M 48.01 14.00 C 49.34 14.00 50.66 14.00 51.99 14.00 C 52.00 17.33 52.00 20.67 51.99 24.00 C 50.66 24.00 49.34 24.00 48.01 24.00 C 48.00 20.67 48.00 17.33 48.01 14.00 Z" />
<path fill="#ffffff" opacity="1.00" d=" M 8.00 28.00 C 10.67 28.01 13.33 28.01 16.00 28.00 C 16.00 29.33 16.00 30.67 16.00 32.00 C 13.33 31.99 10.67 31.99 8.00 32.00 C 8.00 30.67 8.00 29.33 8.00 28.00 Z" />
<path fill="#ffffff" opacity="1.00" d=" M 25.21 28.09 C 27.62 27.17 29.14 30.84 26.79 31.90 C 24.37 32.84 22.85 29.15 25.21 28.09 Z" />
<path fill="#ffffff" opacity="1.00" d=" M 33.21 28.09 C 35.62 27.18 37.14 30.83 34.79 31.90 C 32.38 32.84 30.85 29.15 33.21 28.09 Z" />
<path fill="#ffffff" opacity="1.00" d=" M 44.00 28.00 C 46.67 28.01 49.33 28.01 52.00 28.00 C 52.00 29.33 52.00 30.67 52.00 32.00 C 49.33 31.99 46.67 31.99 44.00 32.00 C 44.00 30.67 44.00 29.33 44.00 28.00 Z" />
<path fill="#ffffff" opacity="1.00" d=" M 8.01 36.00 C 9.34 36.00 10.66 36.00 11.99 36.00 C 12.00 39.33 12.00 42.67 11.99 46.00 C 10.66 46.00 9.34 46.00 8.01 46.00 C 8.00 42.67 8.00 39.33 8.01 36.00 Z" />
<path fill="#ffffff" opacity="1.00" d=" M 16.01 36.00 C 17.34 36.00 18.66 36.00 19.99 36.00 C 20.00 39.33 20.00 42.67 19.99 46.00 C 18.66 46.00 17.34 46.00 16.01 46.00 C 16.00 42.67 16.00 39.33 16.01 36.00 Z" />
<path fill="#ffffff" opacity="1.00" d=" M 24.01 36.00 C 25.34 36.00 26.66 36.00 27.99 36.00 C 28.00 39.33 28.00 42.67 27.99 46.00 C 26.66 46.00 25.34 46.00 24.01 46.00 C 24.00 42.67 24.00 39.33 24.01 36.00 Z" />
<path fill="#ffffff" opacity="1.00" d=" M 32.01 36.00 C 33.34 36.00 34.66 36.00 35.99 36.00 C 36.00 39.33 36.00 42.67 35.99 46.00 C 34.66 46.00 33.34 46.00 32.01 46.00 C 32.00 42.67 32.00 39.33 32.01 36.00 Z" />
<path fill="#ffffff" opacity="1.00" d=" M 40.01 36.00 C 41.34 36.00 42.66 36.00 43.99 36.00 C 44.00 39.33 44.00 42.67 43.99 46.00 C 42.66 46.00 41.34 46.00 40.01 46.00 C 40.00 42.67 40.00 39.33 40.01 36.00 Z" />
<path fill="#ffffff" opacity="1.00" d=" M 48.01 36.00 C 49.34 36.00 50.66 36.00 51.99 36.00 C 52.00 39.33 52.00 42.67 51.99 46.00 C 50.66 46.00 49.34 46.00 48.01 46.00 C 48.00 42.67 48.00 39.33 48.01 36.00 Z" />
</g>
<g id="#000000ff">
<path fill="#000000" opacity="1.00" d=" M 4.37 10.30 C 16.56 9.62 28.79 10.18 41.00 10.00 C 45.88 10.09 50.77 9.74 55.63 10.30 C 55.90 13.09 55.79 16.08 58.18 18.01 C 57.33 19.25 55.75 20.29 55.99 22.00 C 55.99 27.33 55.99 32.67 55.99 38.00 C 55.75 39.71 57.33 40.74 58.18 41.99 C 55.79 43.92 55.90 46.91 55.63 49.69 C 43.44 50.39 31.20 49.81 19.00 50.00 C 14.12 49.91 9.23 50.26 4.37 49.70 C 4.10 46.91 4.21 43.92 1.82 41.99 C 2.67 40.74 4.25 39.71 4.01 38.00 C 4.01 32.66 4.01 27.32 4.01 21.98 C 4.24 20.28 2.65 19.25 1.82 18.00 C 4.21 16.08 4.10 13.08 4.37 10.30 M 8.01 14.00 C 8.00 17.33 8.00 20.67 8.01 24.00 C 9.34 24.00 10.66 24.00 11.99 24.00 C 12.00 20.67 12.00 17.33 11.99 14.00 C 10.66 14.00 9.34 14.00 8.01 14.00 M 16.01 14.00 C 16.00 17.33 16.00 20.67 16.01 24.00 C 17.34 24.00 18.66 24.00 19.99 24.00 C 20.00 20.67 20.00 17.33 19.99 14.00 C 18.66 14.00 17.34 14.00 16.01 14.00 M 24.01 14.00 C 24.00 17.33 24.00 20.67 24.01 24.00 C 25.34 24.00 26.66 24.00 27.99 24.00 C 28.00 20.67 28.00 17.33 27.99 14.00 C 26.66 14.00 25.34 14.00 24.01 14.00 M 32.01 14.00 C 32.00 17.33 32.00 20.67 32.01 24.00 C 33.34 24.00 34.66 24.00 35.99 24.00 C 36.00 20.67 36.00 17.33 35.99 14.00 C 34.66 14.00 33.34 14.00 32.01 14.00 M 40.01 14.00 C 40.00 17.33 40.00 20.67 40.01 24.00 C 41.34 24.00 42.66 24.00 43.99 24.00 C 44.00 20.67 44.00 17.33 43.99 14.00 C 42.66 14.00 41.34 14.00 40.01 14.00 M 48.01 14.00 C 48.00 17.33 48.00 20.67 48.01 24.00 C 49.34 24.00 50.66 24.00 51.99 24.00 C 52.00 20.67 52.00 17.33 51.99 14.00 C 50.66 14.00 49.34 14.00 48.01 14.00 M 8.00 28.00 C 8.00 29.33 8.00 30.67 8.00 32.00 C 10.67 31.99 13.33 31.99 16.00 32.00 C 16.00 30.67 16.00 29.33 16.00 28.00 C 13.33 28.01 10.67 28.01 8.00 28.00 M 25.21 28.09 C 22.85 29.15 24.37 32.84 26.79 31.90 C 29.14 30.84 27.62 27.17 25.21 28.09 M 33.21 28.09 C 30.85 29.15 32.38 32.84 34.79 31.90 C 37.14 30.83 35.62 27.18 33.21 28.09 M 44.00 28.00 C 44.00 29.33 44.00 30.67 44.00 32.00 C 46.67 31.99 49.33 31.99 52.00 32.00 C 52.00 30.67 52.00 29.33 52.00 28.00 C 49.33 28.01 46.67 28.01 44.00 28.00 M 8.01 36.00 C 8.00 39.33 8.00 42.67 8.01 46.00 C 9.34 46.00 10.66 46.00 11.99 46.00 C 12.00 42.67 12.00 39.33 11.99 36.00 C 10.66 36.00 9.34 36.00 8.01 36.00 M 16.01 36.00 C 16.00 39.33 16.00 42.67 16.01 46.00 C 17.34 46.00 18.66 46.00 19.99 46.00 C 20.00 42.67 20.00 39.33 19.99 36.00 C 18.66 36.00 17.34 36.00 16.01 36.00 M 24.01 36.00 C 24.00 39.33 24.00 42.67 24.01 46.00 C 25.34 46.00 26.66 46.00 27.99 46.00 C 28.00 42.67 28.00 39.33 27.99 36.00 C 26.66 36.00 25.34 36.00 24.01 36.00 M 32.01 36.00 C 32.00 39.33 32.00 42.67 32.01 46.00 C 33.34 46.00 34.66 46.00 35.99 46.00 C 36.00 42.67 36.00 39.33 35.99 36.00 C 34.66 36.00 33.34 36.00 32.01 36.00 M 40.01 36.00 C 40.00 39.33 40.00 42.67 40.01 46.00 C 41.34 46.00 42.66 46.00 43.99 46.00 C 44.00 42.67 44.00 39.33 43.99 36.00 C 42.66 36.00 41.34 36.00 40.01 36.00 M 48.01 36.00 C 48.00 39.33 48.00 42.67 48.01 46.00 C 49.34 46.00 50.66 46.00 51.99 46.00 C 52.00 42.67 52.00 39.33 51.99 36.00 C 50.66 36.00 49.34 36.00 48.01 36.00 Z" />
</g>
</svg>
