<?xml version="1.0" encoding="UTF-8" ?>
<!DOCTYPE svg PUBLIC "-//W3C//DTD SVG 1.1//EN" "http://www.w3.org/Graphics/SVG/1.1/DTD/svg11.dtd">
<svg width="60pt" height="60pt" viewBox="0 0 60 60" version="1.1" xmlns="http://www.w3.org/2000/svg">
<g id="#ffffffff">
<path fill="#ffffff" opacity="1.00" d=" M 0.00 0.00 L 60.00 0.00 L 60.00 60.00 L 0.00 60.00 L 0.00 0.00 M 11.63 13.66 C 5.91 19.90 3.43 28.69 4.10 37.04 C 4.13 38.68 5.19 39.98 5.95 41.34 C 6.03 43.84 5.85 46.37 6.19 48.86 C 6.86 50.35 9.12 50.38 9.79 48.88 C 10.14 46.49 10.00 44.06 10.05 41.66 C 11.19 40.95 12.63 40.55 13.45 39.41 C 14.61 38.25 13.80 35.78 12.02 36.02 C 10.61 36.45 9.55 37.60 8.24 38.26 C 7.41 30.80 9.11 22.81 14.01 16.97 C 20.59 8.99 33.28 7.94 41.81 13.24 C 49.80 18.61 52.85 29.07 51.74 38.28 C 50.08 37.62 48.42 34.95 46.57 36.53 C 44.65 38.96 48.07 40.86 49.96 41.68 C 50.00 44.05 49.87 46.44 50.19 48.80 C 50.76 50.36 53.14 50.38 53.80 48.87 C 54.16 46.37 53.96 43.84 54.05 41.33 C 54.80 39.98 55.86 38.68 55.90 37.05 C 56.57 28.68 54.07 19.84 48.32 13.60 C 38.99 3.43 20.92 3.46 11.63 13.66 M 14.03 27.01 C 13.89 29.71 15.82 31.72 17.69 33.36 C 15.34 38.52 15.29 44.99 18.14 49.94 C 20.06 52.90 24.12 52.22 26.36 50.03 C 28.79 49.99 31.21 49.99 33.63 50.03 C 35.89 52.26 40.02 52.88 41.91 49.86 C 44.69 44.91 44.66 38.49 42.30 33.36 C 44.16 31.71 46.10 29.72 45.97 27.02 C 46.18 22.54 41.33 18.88 37.07 20.28 C 34.27 20.92 32.81 23.57 31.85 26.03 C 30.62 26.04 29.38 26.04 28.14 26.03 C 27.18 23.56 25.71 20.92 22.91 20.27 C 18.66 18.89 13.82 22.54 14.03 27.01 Z" />
<path fill="#ffffff" opacity="1.00" d=" M 19.76 22.73 C 22.55 20.60 25.93 23.26 26.24 26.29 C 24.14 27.31 22.12 28.48 20.20 29.81 C 17.94 28.13 17.01 24.46 19.76 22.73 Z" />
<path fill="#ffffff" opacity="1.00" d=" M 38.38 22.36 C 41.23 20.86 44.75 23.91 43.90 26.94 C 43.49 28.82 41.61 29.53 40.09 30.29 C 38.69 29.20 37.27 28.14 35.83 27.10 C 36.06 25.27 36.45 23.13 38.38 22.36 Z" />
<path fill="#ffffff" opacity="1.00" d=" M 20.06 42.02 C 18.96 35.40 25.28 28.45 32.09 30.21 C 39.82 31.85 42.23 42.30 38.06 48.25 C 35.37 45.77 35.71 40.90 37.10 37.71 C 34.47 32.64 25.51 32.64 22.88 37.72 C 24.53 40.90 23.89 44.63 22.86 47.90 C 19.91 48.17 20.55 43.96 20.06 42.02 Z" />
<path fill="#ffffff" opacity="1.00" d=" M 27.96 41.91 C 29.32 41.91 30.68 41.91 32.04 41.91 C 32.17 43.27 32.30 44.64 32.43 46.00 C 30.81 46.00 29.18 46.00 27.56 46.00 C 27.69 44.64 27.83 43.27 27.96 41.91 Z" />
</g>
<g id="#000000ff">
<path fill="#000000" opacity="1.00" d=" M 11.63 13.66 C 20.92 3.46 38.99 3.43 48.32 13.60 C 54.07 19.84 56.57 28.68 55.90 37.05 C 55.86 38.68 54.80 39.98 54.05 41.33 C 53.96 43.84 54.16 46.37 53.80 48.87 C 53.14 50.38 50.76 50.36 50.19 48.80 C 49.87 46.44 50.00 44.05 49.96 41.68 C 48.07 40.86 44.65 38.96 46.57 36.53 C 48.42 34.95 50.08 37.62 51.74 38.28 C 52.85 29.07 49.80 18.61 41.81 13.24 C 33.28 7.94 20.59 8.99 14.01 16.97 C 9.11 22.81 7.41 30.80 8.24 38.26 C 9.55 37.60 10.61 36.45 12.02 36.02 C 13.80 35.78 14.61 38.25 13.45 39.41 C 12.63 40.55 11.19 40.95 10.05 41.66 C 10.00 44.06 10.14 46.49 9.79 48.88 C 9.12 50.38 6.86 50.35 6.19 48.86 C 5.85 46.37 6.03 43.84 5.95 41.34 C 5.19 39.98 4.13 38.68 4.10 37.04 C 3.43 28.69 5.91 19.90 11.63 13.66 Z" />
<path fill="#000000" opacity="1.00" d=" M 14.03 27.01 C 13.82 22.54 18.66 18.89 22.91 20.27 C 25.71 20.92 27.18 23.56 28.14 26.03 C 29.38 26.04 30.62 26.04 31.85 26.03 C 32.81 23.57 34.27 20.92 37.07 20.28 C 41.33 18.88 46.18 22.54 45.97 27.02 C 46.10 29.72 44.16 31.71 42.30 33.36 C 44.66 38.49 44.69 44.91 41.91 49.86 C 40.02 52.88 35.89 52.26 33.63 50.03 C 31.21 49.99 28.79 49.99 26.36 50.03 C 24.12 52.22 20.06 52.90 18.14 49.94 C 15.29 44.99 15.34 38.52 17.69 33.36 C 15.82 31.72 13.89 29.71 14.03 27.01 M 19.76 22.73 C 17.01 24.46 17.94 28.13 20.20 29.81 C 22.12 28.48 24.14 27.31 26.24 26.29 C 25.93 23.26 22.55 20.60 19.76 22.73 M 38.38 22.36 C 36.45 23.13 36.06 25.27 35.83 27.10 C 37.27 28.14 38.69 29.20 40.09 30.29 C 41.61 29.53 43.49 28.82 43.90 26.94 C 44.75 23.91 41.23 20.86 38.38 22.36 M 20.06 42.02 C 20.55 43.96 19.91 48.17 22.86 47.90 C 23.89 44.63 24.53 40.90 22.88 37.72 C 25.51 32.64 34.47 32.64 37.10 37.71 C 35.71 40.90 35.37 45.77 38.06 48.25 C 42.23 42.30 39.82 31.85 32.09 30.21 C 25.28 28.45 18.96 35.40 20.06 42.02 M 27.96 41.91 C 27.83 43.27 27.69 44.64 27.56 46.00 C 29.18 46.00 30.81 46.00 32.43 46.00 C 32.30 44.64 32.17 43.27 32.04 41.91 C 30.68 41.91 29.32 41.91 27.96 41.91 Z" />
</g>
</svg>
