<?xml version="1.0" encoding="UTF-8" ?>
<!DOCTYPE svg PUBLIC "-//W3C//DTD SVG 1.1//EN" "http://www.w3.org/Graphics/SVG/1.1/DTD/svg11.dtd">
<svg width="60pt" height="60pt" viewBox="0 0 60 60" version="1.1" xmlns="http://www.w3.org/2000/svg">
<g id="#ffffffff">
<path fill="#ffffff" opacity="1.00" d=" M 0.00 0.00 L 60.00 0.00 L 60.00 60.00 L 0.00 60.00 L 0.00 0.00 M 12.37 15.55 C 10.77 18.01 9.23 20.54 8.21 23.30 C 7.36 24.73 9.25 25.64 9.96 26.56 C 10.11 33.07 9.87 39.59 10.05 46.11 C 9.96 49.24 12.79 52.04 15.92 51.95 C 25.32 52.04 34.73 52.04 44.13 51.95 C 47.23 52.02 50.02 49.24 49.94 46.13 C 50.13 39.61 49.89 33.08 50.04 26.56 C 50.74 25.66 52.61 24.74 51.80 23.34 C 50.79 20.57 49.27 18.03 47.63 15.59 C 47.95 13.42 48.28 11.19 47.83 9.01 C 47.35 6.91 45.11 5.76 43.07 6.00 C 33.72 6.10 24.34 5.78 15.00 6.16 C 10.93 7.26 11.90 12.42 12.37 15.55 Z" />
<path fill="#ffffff" opacity="1.00" d=" M 16.00 10.00 C 25.33 10.00 34.67 10.00 44.00 10.00 C 44.00 11.33 44.00 12.67 44.00 14.00 C 37.97 14.08 31.93 13.84 25.90 14.09 C 23.87 13.93 23.29 17.07 25.13 17.79 C 31.61 18.54 38.26 17.37 44.70 18.35 C 45.87 19.86 46.58 21.65 47.43 23.35 C 44.16 24.65 41.00 23.34 37.99 22.08 C 33.62 23.71 28.73 24.89 24.29 22.77 C 21.81 21.16 19.49 23.37 17.07 23.88 C 15.54 24.10 14.05 23.59 12.56 23.35 C 13.41 21.68 14.10 19.88 15.29 18.40 C 16.79 17.76 20.02 18.36 19.94 16.01 C 20.17 13.88 17.39 14.08 16.00 13.83 C 16.00 12.55 16.00 11.28 16.00 10.00 Z" />
</g>
<g id="#000000ff">
<path fill="#000000" opacity="1.00" d=" M 12.37 15.55 C 11.90 12.42 10.93 7.26 15.00 6.16 C 24.34 5.78 33.72 6.10 43.07 6.00 C 45.11 5.76 47.35 6.91 47.83 9.01 C 48.28 11.19 47.95 13.42 47.63 15.59 C 49.27 18.03 50.79 20.57 51.80 23.34 C 52.61 24.74 50.74 25.66 50.04 26.56 C 49.89 33.08 50.13 39.61 49.94 46.13 C 50.02 49.24 47.23 52.02 44.13 51.95 C 34.73 52.04 25.32 52.04 15.92 51.95 C 12.79 52.04 9.96 49.24 10.05 46.11 C 9.87 39.59 10.11 33.07 9.96 26.56 C 9.25 25.64 7.36 24.73 8.21 23.30 C 9.23 20.54 10.77 18.01 12.37 15.55 M 16.00 10.00 C 16.00 11.28 16.00 12.55 16.00 13.83 C 17.39 14.08 20.17 13.88 19.94 16.01 C 20.02 18.36 16.79 17.76 15.29 18.40 C 14.10 19.88 13.41 21.68 12.56 23.35 C 14.05 23.59 15.54 24.10 17.07 23.88 C 19.49 23.37 21.81 21.16 24.29 22.77 C 28.73 24.89 33.62 23.71 37.99 22.08 C 41.00 23.34 44.16 24.65 47.43 23.35 C 46.58 21.65 45.87 19.86 44.70 18.35 C 38.26 17.37 31.61 18.54 25.13 17.79 C 23.29 17.07 23.87 13.93 25.90 14.09 C 31.93 13.84 37.97 14.08 44.00 14.00 C 44.00 12.67 44.00 11.33 44.00 10.00 C 34.67 10.00 25.33 10.00 16.00 10.00 Z" />
</g>
</svg>
