<?xml version="1.0" encoding="UTF-8" ?>
<!DOCTYPE svg PUBLIC "-//W3C//DTD SVG 1.1//EN" "http://www.w3.org/Graphics/SVG/1.1/DTD/svg11.dtd">
<svg width="60pt" height="60pt" viewBox="0 0 60 60" version="1.1" xmlns="http://www.w3.org/2000/svg">
<g id="#ffffffff">
<path fill="#ffffff" opacity="1.00" d=" M 0.00 0.00 L 60.00 0.00 L 60.00 60.00 L 0.00 60.00 L 0.00 0.00 M 24.47 6.65 C 17.34 8.31 11.13 13.42 8.14 20.10 C 5.09 26.75 5.34 34.80 8.81 41.25 C 12.35 47.98 19.26 52.83 26.82 53.77 C 33.63 54.71 40.82 52.55 45.92 47.93 C 51.27 43.24 54.31 36.07 53.96 28.96 C 53.71 22.07 50.28 15.39 44.84 11.15 C 39.21 6.64 31.47 4.97 24.47 6.65 Z" />
<path fill="#ffffff" opacity="1.00" d=" M 20.95 19.97 C 22.49 20.03 24.04 20.06 25.58 20.07 C 26.97 22.92 28.47 25.71 29.99 28.49 C 31.60 25.69 33.02 22.77 34.61 19.96 C 35.72 19.97 37.93 20.01 39.04 20.02 C 36.82 24.02 34.59 28.00 32.36 32.00 C 33.27 32.00 35.09 32.00 36.00 32.00 C 36.00 32.50 36.00 33.50 36.00 34.00 C 34.67 34.00 33.33 34.00 32.00 34.00 C 32.00 34.50 32.00 35.50 32.00 36.00 C 33.33 36.00 34.67 36.00 36.00 36.00 C 36.00 36.50 36.00 37.50 36.00 38.00 C 34.67 38.00 33.34 38.00 32.02 38.00 C 32.01 38.50 31.99 39.50 31.98 40.00 C 30.66 40.00 29.34 40.00 28.01 40.00 C 28.01 39.50 27.99 38.50 27.99 38.00 C 26.66 38.00 25.33 38.00 24.00 38.00 C 24.00 37.50 24.00 36.50 24.00 36.00 C 25.33 36.00 26.67 36.00 28.00 36.00 C 28.00 35.50 28.00 34.50 28.00 34.00 C 26.67 34.00 25.33 34.00 24.00 34.00 C 24.00 33.50 24.00 32.50 24.00 32.01 C 24.91 32.00 26.73 31.99 27.64 31.98 C 25.41 27.98 23.14 24.00 20.95 19.97 Z" />
</g>
<g id="#000000ff">
<path fill="#968176" opacity="1.00" d=" M 24.47 6.65 C 31.47 4.97 39.21 6.64 44.84 11.15 C 50.28 15.39 53.71 22.07 53.96 28.96 C 54.31 36.07 51.27 43.24 45.92 47.93 C 40.82 52.55 33.63 54.71 26.82 53.77 C 19.26 52.83 12.35 47.98 8.81 41.25 C 5.34 34.80 5.09 26.75 8.14 20.10 C 11.13 13.42 17.34 8.31 24.47 6.65 M 20.95 19.97 C 23.14 24.00 25.41 27.98 27.64 31.98 C 26.73 31.99 24.91 32.00 24.00 32.01 C 24.00 32.50 24.00 33.50 24.00 34.00 C 25.33 34.00 26.67 34.00 28.00 34.00 C 28.00 34.50 28.00 35.50 28.00 36.00 C 26.67 36.00 25.33 36.00 24.00 36.00 C 24.00 36.50 24.00 37.50 24.00 38.00 C 25.33 38.00 26.66 38.00 27.99 38.00 C 27.99 38.50 28.01 39.50 28.01 40.00 C 29.34 40.00 30.66 40.00 31.98 40.00 C 31.99 39.50 32.01 38.50 32.02 38.00 C 33.34 38.00 34.67 38.00 36.00 38.00 C 36.00 37.50 36.00 36.50 36.00 36.00 C 34.67 36.00 33.33 36.00 32.00 36.00 C 32.00 35.50 32.00 34.50 32.00 34.00 C 33.33 34.00 34.67 34.00 36.00 34.00 C 36.00 33.50 36.00 32.50 36.00 32.00 C 35.09 32.00 33.27 32.00 32.36 32.00 C 34.59 28.00 36.82 24.02 39.04 20.02 C 37.93 20.01 35.72 19.97 34.61 19.96 C 33.02 22.77 31.60 25.69 29.99 28.49 C 28.47 25.71 26.97 22.92 25.58 20.07 C 24.04 20.06 22.49 20.03 20.95 19.97 Z" />
</g>
</svg>
