<?xml version="1.0" encoding="UTF-8" ?>
<!DOCTYPE svg PUBLIC "-//W3C//DTD SVG 1.1//EN" "http://www.w3.org/Graphics/SVG/1.1/DTD/svg11.dtd">
<svg width="60pt" height="60pt" viewBox="0 0 60 60" version="1.1" xmlns="http://www.w3.org/2000/svg">
<g id="#ffffffff">
<path fill="#ffffff" opacity="1.00" d=" M 0.00 0.00 L 60.00 0.00 L 60.00 60.00 L 0.00 60.00 L 0.00 0.00 M 34.05 18.07 C 25.48 26.50 16.56 34.58 7.81 42.83 C 5.99 44.34 5.47 47.11 6.60 49.18 C 8.01 52.08 12.27 52.96 14.62 50.70 C 18.79 46.86 22.62 42.63 25.89 37.99 C 26.65 37.19 27.45 35.24 28.86 36.12 C 31.70 38.15 32.71 41.74 34.91 44.34 C 40.03 39.71 45.55 35.28 49.33 29.42 C 53.40 23.11 54.12 15.34 53.91 8.01 C 46.28 8.51 39.36 12.76 34.05 18.07 Z" />
</g>
<g id="#000000ff">
<path fill="#000000" opacity="1.00" d=" M 34.05 18.07 C 39.36 12.76 46.28 8.51 53.91 8.01 C 54.12 15.34 53.40 23.11 49.33 29.42 C 45.55 35.28 40.03 39.71 34.91 44.34 C 32.71 41.74 31.70 38.15 28.86 36.12 C 27.45 35.24 26.65 37.19 25.89 37.99 C 22.62 42.63 18.79 46.86 14.62 50.70 C 12.27 52.96 8.01 52.08 6.60 49.18 C 5.47 47.11 5.99 44.34 7.81 42.83 C 16.56 34.58 25.48 26.50 34.05 18.07 Z" />
</g>
</svg>
