<?xml version="1.0" encoding="UTF-8" ?>
<!DOCTYPE svg PUBLIC "-//W3C//DTD SVG 1.1//EN" "http://www.w3.org/Graphics/SVG/1.1/DTD/svg11.dtd">
<svg width="64pt" height="64pt" viewBox="0 0 64 64" version="1.1" xmlns="http://www.w3.org/2000/svg">
<g id="#ffffffff">
<path fill="#ffffff" opacity="1.00" d=" M 0.00 0.00 L 64.00 0.00 L 64.00 64.00 L 0.00 64.00 L 0.00 0.00 M 26.48 6.64 C 17.93 8.51 10.43 15.98 10.05 24.96 C 9.83 33.15 12.29 41.38 16.80 48.21 C 19.91 52.79 24.40 56.97 30.07 57.83 C 35.64 58.69 41.02 55.64 44.58 51.55 C 50.48 44.83 53.58 35.90 53.97 27.03 C 54.29 21.47 51.91 15.92 47.84 12.16 C 42.27 6.83 33.92 4.86 26.48 6.64 Z" />
<path fill="#ffffff" opacity="1.00" d=" M 31.20 10.10 C 33.63 9.14 35.12 12.85 32.80 13.89 C 30.37 14.85 28.86 11.15 31.20 10.10 Z" />
<path fill="#ffffff" opacity="1.00" d=" M 13.89 25.97 C 14.14 18.15 20.55 11.86 27.98 10.31 C 27.99 12.20 28.00 14.10 28.00 16.00 C 30.67 16.00 33.33 16.00 36.00 16.00 C 36.00 14.10 36.01 12.20 36.02 10.30 C 43.45 11.87 49.86 18.15 50.11 25.98 C 48.74 25.99 47.37 26.00 46.00 26.01 C 46.00 28.67 46.00 31.33 46.00 33.99 C 46.76 34.00 48.28 34.01 49.04 34.02 C 47.28 40.82 44.08 47.51 38.47 51.96 C 37.64 50.28 35.18 49.06 34.09 51.21 C 34.17 51.88 34.33 53.22 34.41 53.89 C 32.80 53.91 31.19 53.90 29.59 53.91 C 29.76 52.56 30.34 50.94 28.87 50.08 C 27.28 49.63 26.38 50.88 25.53 51.96 C 19.92 47.50 16.71 40.83 14.96 34.02 C 15.72 34.02 17.24 34.00 18.00 33.99 C 18.00 31.33 18.00 28.67 18.00 26.01 C 16.63 26.00 15.26 25.99 13.89 25.97 M 23.39 26.49 C 21.31 27.67 21.73 31.26 24.10 31.81 C 25.89 32.55 28.05 30.93 27.97 29.02 C 28.11 26.73 25.25 25.19 23.39 26.49 M 37.42 26.48 C 34.06 28.37 37.45 33.80 40.65 31.49 C 43.88 29.55 40.56 24.27 37.42 26.48 M 27.92 39.90 C 30.64 40.03 33.36 40.03 36.09 39.90 C 33.58 37.73 30.42 37.72 27.92 39.90 M 27.19 44.11 C 24.85 45.18 26.40 48.87 28.83 47.89 C 31.12 46.79 29.61 43.14 27.19 44.11 M 35.23 44.09 C 32.85 45.13 34.36 48.85 36.81 47.89 C 39.11 46.84 37.64 43.18 35.23 44.09 Z" />
<path fill="#ffffff" opacity="1.00" d=" M 14.00 31.62 C 14.12 30.09 13.54 27.86 15.86 28.10 C 15.89 29.30 15.90 30.50 15.89 31.71 C 15.42 31.68 14.48 31.64 14.00 31.62 Z" />
<path fill="#ffffff" opacity="1.00" d=" M 48.07 28.33 C 48.55 28.33 49.49 28.34 49.96 28.34 C 49.86 29.88 50.48 32.12 48.16 31.91 C 48.11 30.71 48.08 29.52 48.07 28.33 Z" />
</g>
<g id="#000000ff">
<path fill="#000000" opacity="1.00" d=" M 26.48 6.64 C 33.92 4.86 42.27 6.83 47.84 12.16 C 51.91 15.92 54.29 21.47 53.97 27.03 C 53.58 35.90 50.48 44.83 44.58 51.55 C 41.02 55.64 35.64 58.69 30.07 57.83 C 24.40 56.97 19.91 52.79 16.80 48.21 C 12.29 41.38 9.83 33.15 10.05 24.96 C 10.43 15.98 17.93 8.51 26.48 6.64 M 31.20 10.10 C 28.86 11.15 30.37 14.85 32.80 13.89 C 35.12 12.85 33.63 9.14 31.20 10.10 M 13.89 25.97 C 15.26 25.99 16.63 26.00 18.00 26.01 C 18.00 28.67 18.00 31.33 18.00 33.99 C 17.24 34.00 15.72 34.02 14.96 34.02 C 16.71 40.83 19.92 47.50 25.53 51.96 C 26.38 50.88 27.28 49.63 28.87 50.08 C 30.34 50.94 29.76 52.56 29.59 53.91 C 31.19 53.90 32.80 53.91 34.41 53.89 C 34.33 53.22 34.17 51.88 34.09 51.21 C 35.18 49.06 37.64 50.28 38.47 51.96 C 44.08 47.51 47.28 40.82 49.04 34.02 C 48.28 34.01 46.76 34.00 46.00 33.99 C 46.00 31.33 46.00 28.67 46.00 26.01 C 47.37 26.00 48.74 25.99 50.11 25.98 C 49.86 18.15 43.45 11.87 36.02 10.30 C 36.01 12.20 36.00 14.10 36.00 16.00 C 33.33 16.00 30.67 16.00 28.00 16.00 C 28.00 14.10 27.99 12.20 27.98 10.31 C 20.55 11.86 14.14 18.15 13.89 25.97 M 14.00 31.62 C 14.48 31.64 15.42 31.68 15.89 31.71 C 15.90 30.50 15.89 29.30 15.86 28.10 C 13.54 27.86 14.12 30.09 14.00 31.62 M 48.07 28.33 C 48.08 29.52 48.11 30.71 48.16 31.91 C 50.48 32.12 49.86 29.88 49.96 28.34 C 49.49 28.34 48.55 28.33 48.07 28.33 Z" />
<path fill="#000000" opacity="1.00" d=" M 23.39 26.49 C 25.25 25.19 28.11 26.73 27.97 29.02 C 28.05 30.93 25.89 32.55 24.10 31.81 C 21.73 31.26 21.31 27.67 23.39 26.49 Z" />
<path fill="#000000" opacity="1.00" d=" M 37.42 26.48 C 40.56 24.27 43.88 29.55 40.65 31.49 C 37.45 33.80 34.06 28.37 37.42 26.48 Z" />
<path fill="#000000" opacity="1.00" d=" M 27.92 39.90 C 30.42 37.72 33.58 37.73 36.09 39.90 C 33.36 40.03 30.64 40.03 27.92 39.90 Z" />
<path fill="#000000" opacity="1.00" d=" M 27.19 44.11 C 29.61 43.14 31.12 46.79 28.83 47.89 C 26.40 48.87 24.85 45.18 27.19 44.11 Z" />
<path fill="#000000" opacity="1.00" d=" M 35.23 44.09 C 37.64 43.18 39.11 46.84 36.81 47.89 C 34.36 48.85 32.85 45.13 35.23 44.09 Z" />
</g>
</svg>
