<?xml version="1.0" encoding="UTF-8" ?>
<!DOCTYPE svg PUBLIC "-//W3C//DTD SVG 1.1//EN" "http://www.w3.org/Graphics/SVG/1.1/DTD/svg11.dtd">
<svg width="60pt" height="60pt" viewBox="0 0 60 60" version="1.1" xmlns="http://www.w3.org/2000/svg">
<g id="#ffffffff">
<path fill="#ffffff" opacity="1.00" d=" M 0.00 0.00 L 60.00 0.00 L 60.00 60.00 L 0.00 60.00 L 0.00 0.00 M 14.30 6.30 C 13.65 14.18 14.14 22.10 14.00 30.00 C 14.15 37.89 13.64 45.80 14.30 53.68 C 17.55 53.96 20.81 54.21 24.06 54.06 C 25.20 53.69 27.55 54.33 27.71 52.68 C 28.68 44.93 27.34 37.03 28.26 29.27 C 28.76 27.52 31.23 27.53 31.74 29.27 C 32.78 37.29 31.06 45.52 32.51 53.49 C 36.81 54.62 41.32 53.96 45.69 53.68 C 46.42 39.45 45.77 25.18 46.04 10.93 C 45.81 9.21 46.53 5.93 43.87 6.13 C 34.03 5.94 24.14 5.75 14.30 6.30 Z" />
<path fill="#ffffff" opacity="1.00" d=" M 18.00 12.00 C 20.67 12.01 23.33 12.01 25.99 12.00 C 26.02 14.02 26.03 16.05 26.03 18.07 C 24.71 18.66 23.45 19.42 22.04 19.76 C 20.64 19.32 19.32 18.65 17.99 18.03 C 17.98 16.02 17.98 14.01 18.00 12.00 Z" />
<path fill="#ffffff" opacity="1.00" d=" M 34.00 12.00 C 36.67 12.01 39.33 12.01 41.99 12.00 C 42.02 14.02 42.03 16.04 42.03 18.07 C 40.72 18.67 39.45 19.40 38.04 19.77 C 36.64 19.32 35.32 18.65 33.99 18.03 C 33.98 16.02 33.98 14.01 34.00 12.00 Z" />
</g>
<g id="#000000ff">
<path fill="#968176" opacity="1.00" d=" M 14.30 6.30 C 24.14 5.75 34.03 5.94 43.87 6.13 C 46.53 5.93 45.81 9.21 46.04 10.93 C 45.77 25.18 46.42 39.45 45.69 53.68 C 41.32 53.96 36.81 54.62 32.51 53.49 C 31.06 45.52 32.78 37.29 31.74 29.27 C 31.23 27.53 28.76 27.52 28.26 29.27 C 27.34 37.03 28.68 44.93 27.71 52.68 C 27.55 54.33 25.20 53.69 24.06 54.06 C 20.81 54.21 17.55 53.96 14.30 53.68 C 13.64 45.80 14.15 37.89 14.00 30.00 C 14.14 22.10 13.65 14.18 14.30 6.30 M 18.00 12.00 C 17.98 14.01 17.98 16.02 17.99 18.03 C 19.32 18.65 20.64 19.32 22.04 19.76 C 23.45 19.42 24.71 18.66 26.03 18.07 C 26.03 16.05 26.02 14.02 25.99 12.00 C 23.33 12.01 20.67 12.01 18.00 12.00 M 34.00 12.00 C 33.98 14.01 33.98 16.02 33.99 18.03 C 35.32 18.65 36.64 19.32 38.04 19.77 C 39.45 19.40 40.72 18.67 42.03 18.07 C 42.03 16.04 42.02 14.02 41.99 12.00 C 39.33 12.01 36.67 12.01 34.00 12.00 Z" />
</g>
</svg>
