<?xml version="1.0" encoding="UTF-8" ?>
<!DOCTYPE svg PUBLIC "-//W3C//DTD SVG 1.1//EN" "http://www.w3.org/Graphics/SVG/1.1/DTD/svg11.dtd">
<svg width="60pt" height="60pt" viewBox="0 0 60 60" version="1.1" xmlns="http://www.w3.org/2000/svg">
<g id="#ffffffff">
<path fill="#ffffff" opacity="1.00" d=" M 0.00 0.00 L 60.00 0.00 L 60.00 60.00 L 0.00 60.00 L 0.00 0.00 M 24.49 6.65 C 16.88 8.41 10.33 14.12 7.59 21.44 C 4.57 29.15 5.97 38.38 11.16 44.83 C 16.46 51.66 25.61 55.21 34.13 53.62 C 43.11 52.15 50.82 45.09 53.14 36.30 C 55.51 27.95 52.82 18.46 46.46 12.57 C 40.76 7.04 32.19 4.80 24.49 6.65 Z" />
<path fill="#ffffff" opacity="1.00" d=" M 31.16 10.00 C 33.19 10.34 35.22 10.76 37.23 11.23 C 34.35 14.29 32.20 17.93 30.65 21.83 C 33.16 22.61 35.45 24.03 37.12 26.08 C 37.36 27.57 37.76 29.03 38.12 30.50 C 42.08 29.74 46.14 29.92 49.99 31.14 C 49.66 33.18 49.24 35.21 48.77 37.23 C 45.70 34.35 42.06 32.21 38.17 30.65 C 37.39 33.16 35.96 35.45 33.93 37.12 C 32.42 37.36 30.95 37.76 29.48 38.12 C 30.23 42.08 30.07 46.15 28.86 50.00 C 26.81 49.66 24.78 49.24 22.76 48.77 C 25.65 45.71 27.78 42.06 29.33 38.17 C 26.84 37.34 24.54 35.96 22.86 33.93 C 22.63 32.41 22.23 30.94 21.88 29.45 C 17.92 30.28 13.85 30.04 10.00 28.85 C 10.34 26.81 10.75 24.79 11.22 22.77 C 14.30 25.63 17.91 27.81 21.83 29.30 C 22.67 26.83 24.03 24.51 26.09 22.87 C 27.58 22.64 29.04 22.24 30.50 21.88 C 29.74 17.91 29.94 13.85 31.16 10.00 M 28.39 26.35 C 23.60 28.21 26.96 35.93 31.58 33.65 C 36.40 31.83 33.03 24.01 28.39 26.35 Z" />
<path fill="#ffffff" opacity="1.00" d=" M 21.00 12.06 C 22.93 11.38 24.87 10.75 26.82 10.12 C 25.60 13.95 26.87 18.16 25.31 21.85 C 23.43 18.80 21.79 15.58 21.00 12.06 Z" />
<path fill="#ffffff" opacity="1.00" d=" M 13.22 18.95 C 14.56 17.37 15.94 15.84 17.39 14.37 C 18.76 17.91 19.83 22.12 23.24 24.27 C 22.79 24.58 22.35 24.90 21.90 25.22 C 18.69 23.60 15.65 21.62 13.22 18.95 Z" />
<path fill="#ffffff" opacity="1.00" d=" M 35.22 22.80 C 35.29 18.90 38.53 15.91 41.05 13.22 C 42.63 14.56 44.16 15.95 45.64 17.39 C 41.79 18.42 38.41 20.53 35.22 22.80 Z" />
<path fill="#ffffff" opacity="1.00" d=" M 38.21 25.28 C 41.22 23.39 44.44 21.78 47.94 21.00 C 48.62 22.93 49.25 24.88 49.88 26.82 C 46.08 25.59 41.85 26.94 38.21 25.28 Z" />
<path fill="#ffffff" opacity="1.00" d=" M 10.13 33.16 C 13.94 34.46 18.17 33.09 21.84 34.70 C 18.79 36.57 15.57 38.20 12.06 39.00 C 11.38 37.07 10.75 35.11 10.13 33.16 Z" />
<path fill="#ffffff" opacity="1.00" d=" M 37.19 35.22 C 41.10 35.30 44.08 38.54 46.77 41.05 C 45.43 42.63 44.04 44.17 42.60 45.67 C 41.58 41.81 39.46 38.43 37.19 35.22 Z" />
<path fill="#ffffff" opacity="1.00" d=" M 24.25 36.72 C 24.57 37.18 24.89 37.64 25.22 38.10 C 23.59 41.31 21.61 44.34 18.94 46.78 C 17.37 45.44 15.84 44.05 14.37 42.61 C 17.90 41.23 22.16 40.17 24.25 36.72 Z" />
<path fill="#ffffff" opacity="1.00" d=" M 33.17 49.88 C 34.38 46.05 33.11 41.84 34.70 38.16 C 36.58 41.20 38.20 44.43 39.00 47.94 C 37.07 48.62 35.12 49.25 33.17 49.88 Z" />
</g>
<g id="#000000ff">
<path fill="#968176" opacity="1.00" d=" M 24.49 6.65 C 32.19 4.80 40.76 7.04 46.46 12.57 C 52.82 18.46 55.51 27.95 53.14 36.30 C 50.82 45.09 43.11 52.15 34.13 53.62 C 25.61 55.21 16.46 51.66 11.16 44.83 C 5.97 38.38 4.57 29.15 7.59 21.44 C 10.33 14.12 16.88 8.41 24.49 6.65 M 31.16 10.00 C 29.94 13.85 29.74 17.91 30.50 21.88 C 29.04 22.24 27.58 22.64 26.09 22.87 C 24.03 24.51 22.67 26.83 21.83 29.30 C 17.91 27.81 14.30 25.63 11.22 22.77 C 10.75 24.79 10.34 26.81 10.00 28.85 C 13.85 30.04 17.92 30.28 21.88 29.45 C 22.23 30.94 22.63 32.41 22.86 33.93 C 24.54 35.96 26.84 37.34 29.33 38.17 C 27.78 42.06 25.65 45.71 22.76 48.77 C 24.78 49.24 26.81 49.66 28.86 50.00 C 30.07 46.15 30.23 42.08 29.48 38.12 C 30.95 37.76 32.42 37.36 33.93 37.12 C 35.96 35.45 37.39 33.16 38.17 30.65 C 42.06 32.21 45.70 34.35 48.77 37.23 C 49.24 35.21 49.66 33.18 49.99 31.14 C 46.14 29.92 42.08 29.74 38.12 30.50 C 37.76 29.03 37.36 27.57 37.12 26.08 C 35.45 24.03 33.16 22.61 30.65 21.83 C 32.20 17.93 34.35 14.29 37.23 11.23 C 35.22 10.76 33.19 10.34 31.16 10.00 M 21.00 12.06 C 21.79 15.58 23.43 18.80 25.31 21.85 C 26.87 18.16 25.60 13.95 26.82 10.12 C 24.87 10.75 22.93 11.38 21.00 12.06 M 13.22 18.95 C 15.65 21.62 18.69 23.60 21.90 25.22 C 22.35 24.90 22.79 24.58 23.24 24.27 C 19.83 22.12 18.76 17.91 17.39 14.37 C 15.94 15.84 14.56 17.37 13.22 18.95 M 35.22 22.80 C 38.41 20.53 41.79 18.42 45.64 17.39 C 44.16 15.95 42.63 14.56 41.05 13.22 C 38.53 15.91 35.29 18.90 35.22 22.80 M 38.21 25.28 C 41.85 26.94 46.08 25.59 49.88 26.82 C 49.25 24.88 48.62 22.93 47.94 21.00 C 44.44 21.78 41.22 23.39 38.21 25.28 M 10.13 33.16 C 10.75 35.11 11.38 37.07 12.06 39.00 C 15.57 38.20 18.79 36.57 21.84 34.70 C 18.17 33.09 13.94 34.46 10.13 33.16 M 37.19 35.22 C 39.46 38.43 41.58 41.81 42.60 45.67 C 44.04 44.17 45.43 42.63 46.77 41.05 C 44.08 38.54 41.10 35.30 37.19 35.22 M 24.25 36.72 C 22.16 40.17 17.90 41.23 14.37 42.61 C 15.84 44.05 17.37 45.44 18.94 46.78 C 21.61 44.34 23.59 41.31 25.22 38.10 C 24.89 37.64 24.57 37.18 24.25 36.72 M 33.17 49.88 C 35.12 49.25 37.07 48.62 39.00 47.94 C 38.20 44.43 36.58 41.20 34.70 38.16 C 33.11 41.84 34.38 46.05 33.17 49.88 Z" />
<path fill="#968176" opacity="1.00" d=" M 28.39 26.35 C 33.03 24.01 36.40 31.83 31.58 33.65 C 26.96 35.93 23.60 28.21 28.39 26.35 Z" />
</g>
</svg>
