<?xml version="1.0" encoding="UTF-8" ?>
<!DOCTYPE svg PUBLIC "-//W3C//DTD SVG 1.1//EN" "http://www.w3.org/Graphics/SVG/1.1/DTD/svg11.dtd">
<svg width="64pt" height="64pt" viewBox="0 0 64 64" version="1.1" xmlns="http://www.w3.org/2000/svg">
<g id="#ffffffff">
<path fill="#ffffff" opacity="1.00" d=" M 0.00 0.00 L 64.00 0.00 L 64.00 64.00 L 0.00 64.00 L 0.00 0.00 M 26.45 8.66 C 19.35 10.32 13.15 15.41 10.16 22.07 C 7.09 28.72 7.34 36.79 10.81 43.24 C 14.35 49.98 21.28 54.82 28.84 55.77 C 35.65 56.71 42.85 54.53 47.95 49.89 C 53.26 45.20 56.32 38.06 55.96 30.97 C 55.71 24.10 52.28 17.45 46.89 13.20 C 41.25 8.64 33.48 6.97 26.45 8.66 Z" />
<path fill="#ffffff" opacity="1.00" d=" M 29.22 12.19 C 35.37 11.31 41.86 13.46 46.19 17.91 C 50.89 22.56 52.96 29.64 51.56 36.09 C 50.08 43.72 43.71 50.09 36.08 51.57 C 29.35 53.03 21.97 50.69 17.34 45.60 C 12.27 40.27 10.64 32.03 13.21 25.16 C 15.60 18.31 22.03 13.12 29.22 12.19 M 32.98 16.02 C 31.77 19.22 31.09 22.58 30.57 25.96 C 32.70 25.77 34.71 26.43 36.42 27.67 C 38.38 25.00 40.68 22.61 43.27 20.53 C 42.47 19.92 41.68 19.30 40.88 18.69 C 38.48 20.72 36.00 22.80 34.59 25.68 C 33.11 22.62 35.26 19.44 36.09 16.48 C 35.31 16.37 33.76 16.13 32.98 16.02 M 24.91 17.54 C 25.32 21.06 26.56 24.39 27.76 27.70 C 28.42 27.30 29.73 26.51 30.39 26.11 C 29.19 23.02 28.20 19.85 27.73 16.56 C 27.02 16.81 25.62 17.30 24.91 17.54 M 20.52 20.73 C 20.06 21.33 19.14 22.52 18.68 23.11 C 20.69 25.44 22.68 27.92 25.52 29.27 C 24.93 29.59 24.33 29.91 23.73 30.22 C 21.28 29.56 18.87 28.77 16.48 27.91 C 16.37 28.69 16.14 30.24 16.02 31.01 C 19.29 32.25 22.71 32.94 26.16 33.43 C 26.02 31.93 25.91 30.44 25.82 28.94 L 27.01 30.36 C 27.09 29.62 27.25 28.15 27.33 27.41 C 24.90 25.36 22.51 23.24 20.52 20.73 M 36.42 27.81 C 36.78 28.47 37.49 29.80 37.84 30.47 C 40.92 29.18 44.13 28.20 47.44 27.73 C 47.19 27.02 46.68 25.59 46.42 24.88 C 42.96 25.37 39.64 26.48 36.42 27.81 M 30.39 28.35 C 25.57 30.23 29.03 38.03 33.65 35.61 C 38.38 33.72 34.98 26.02 30.39 28.35 M 37.97 30.63 C 37.93 31.38 37.87 32.89 37.83 33.64 C 41.16 34.02 44.41 34.83 47.51 36.08 C 47.63 35.31 47.86 33.76 47.98 32.98 C 44.75 31.76 41.38 31.05 37.97 30.63 M 16.56 36.26 C 16.81 36.98 17.32 38.40 17.57 39.12 C 21.04 38.62 24.36 37.51 27.59 36.17 C 27.23 35.53 26.50 34.23 26.14 33.58 C 23.04 34.81 19.86 35.79 16.56 36.26 M 36.25 36.35 C 38.95 38.33 41.37 40.66 43.46 43.27 C 43.93 42.67 44.86 41.47 45.32 40.87 C 43.13 38.17 40.56 35.83 37.80 33.73 C 37.41 34.39 36.64 35.70 36.25 36.35 M 20.73 43.46 C 21.52 44.08 22.31 44.70 23.11 45.31 C 25.51 43.28 27.98 41.19 29.42 38.32 C 30.88 41.38 28.74 44.55 27.91 47.51 C 28.69 47.63 30.24 47.87 31.01 47.98 C 32.21 44.78 32.91 41.43 33.42 38.05 C 31.29 38.22 29.29 37.56 27.57 36.33 C 25.62 39.00 23.31 41.39 20.73 43.46 M 33.60 37.87 C 34.84 41.02 35.78 44.28 36.35 47.63 C 37.30 47.20 38.20 46.69 39.04 46.10 C 38.68 42.71 37.41 39.53 36.16 36.40 C 35.52 36.77 34.24 37.50 33.60 37.87 Z" />
</g>
<g id="#000000ff">
<path fill="#000000" opacity="1.00" d=" M 26.45 8.66 C 33.48 6.97 41.25 8.64 46.89 13.20 C 52.28 17.45 55.71 24.10 55.96 30.97 C 56.32 38.06 53.26 45.20 47.95 49.89 C 42.85 54.53 35.65 56.71 28.84 55.77 C 21.28 54.82 14.35 49.98 10.81 43.24 C 7.34 36.79 7.09 28.72 10.16 22.07 C 13.15 15.41 19.35 10.32 26.45 8.66 M 29.22 12.19 C 22.03 13.12 15.60 18.31 13.21 25.16 C 10.64 32.03 12.27 40.27 17.34 45.60 C 21.97 50.69 29.35 53.03 36.08 51.57 C 43.71 50.09 50.08 43.72 51.56 36.09 C 52.96 29.64 50.89 22.56 46.19 17.91 C 41.86 13.46 35.37 11.31 29.22 12.19 Z" />
<path fill="#000000" opacity="1.00" d=" M 32.98 16.02 C 33.76 16.13 35.31 16.37 36.09 16.48 C 35.26 19.44 33.11 22.62 34.59 25.68 C 36.00 22.80 38.48 20.72 40.88 18.69 C 41.68 19.30 42.47 19.92 43.27 20.53 C 40.68 22.61 38.38 25.00 36.42 27.67 C 34.71 26.43 32.70 25.77 30.57 25.96 C 31.09 22.58 31.77 19.22 32.98 16.02 Z" />
<path fill="#000000" opacity="1.00" d=" M 24.91 17.54 C 25.62 17.30 27.02 16.81 27.73 16.56 C 28.20 19.85 29.19 23.02 30.39 26.11 C 29.73 26.51 28.42 27.30 27.76 27.70 C 26.56 24.39 25.32 21.06 24.91 17.54 Z" />
<path fill="#000000" opacity="1.00" d=" M 20.52 20.73 C 22.51 23.24 24.90 25.36 27.33 27.41 C 27.25 28.15 27.09 29.62 27.01 30.36 L 25.82 28.94 C 25.91 30.44 26.02 31.93 26.16 33.43 C 22.71 32.94 19.29 32.25 16.02 31.01 C 16.14 30.24 16.37 28.69 16.48 27.91 C 18.87 28.77 21.28 29.56 23.73 30.22 C 24.33 29.91 24.93 29.59 25.52 29.27 C 22.68 27.92 20.69 25.44 18.68 23.11 C 19.14 22.52 20.06 21.33 20.52 20.73 Z" />
<path fill="#000000" opacity="1.00" d=" M 36.42 27.81 C 39.64 26.48 42.96 25.37 46.42 24.88 C 46.68 25.59 47.19 27.02 47.44 27.73 C 44.13 28.20 40.92 29.18 37.84 30.47 C 37.49 29.80 36.78 28.47 36.42 27.81 Z" />
<path fill="#000000" opacity="1.00" d=" M 30.39 28.35 C 34.98 26.02 38.38 33.72 33.65 35.61 C 29.03 38.03 25.57 30.23 30.39 28.35 Z" />
<path fill="#000000" opacity="1.00" d=" M 37.97 30.63 C 41.38 31.05 44.75 31.76 47.98 32.98 C 47.86 33.76 47.63 35.31 47.51 36.08 C 44.41 34.83 41.16 34.02 37.83 33.64 C 37.87 32.89 37.93 31.38 37.97 30.63 Z" />
<path fill="#000000" opacity="1.00" d=" M 16.56 36.26 C 19.86 35.79 23.04 34.81 26.14 33.58 C 26.50 34.23 27.23 35.53 27.59 36.17 C 24.36 37.51 21.04 38.62 17.57 39.12 C 17.32 38.40 16.81 36.98 16.56 36.26 Z" />
<path fill="#000000" opacity="1.00" d=" M 36.25 36.35 C 36.64 35.70 37.41 34.39 37.80 33.73 C 40.56 35.83 43.13 38.17 45.32 40.87 C 44.86 41.47 43.93 42.67 43.46 43.27 C 41.37 40.66 38.95 38.33 36.25 36.35 Z" />
<path fill="#000000" opacity="1.00" d=" M 20.73 43.46 C 23.31 41.39 25.62 39.00 27.57 36.33 C 29.29 37.56 31.29 38.22 33.42 38.05 C 32.91 41.43 32.21 44.78 31.01 47.98 C 30.24 47.87 28.69 47.63 27.91 47.51 C 28.74 44.55 30.88 41.38 29.42 38.32 C 27.98 41.19 25.51 43.28 23.11 45.31 C 22.31 44.70 21.52 44.08 20.73 43.46 Z" />
<path fill="#000000" opacity="1.00" d=" M 33.60 37.87 C 34.24 37.50 35.52 36.77 36.16 36.40 C 37.41 39.53 38.68 42.71 39.04 46.10 C 38.20 46.69 37.30 47.20 36.35 47.63 C 35.78 44.28 34.84 41.02 33.60 37.87 Z" />
</g>
</svg>
