<?xml version="1.0" encoding="UTF-8" ?>
<!DOCTYPE svg PUBLIC "-//W3C//DTD SVG 1.1//EN" "http://www.w3.org/Graphics/SVG/1.1/DTD/svg11.dtd">
<svg width="60pt" height="60pt" viewBox="0 0 60 60" version="1.1" xmlns="http://www.w3.org/2000/svg">
<g id="#ffffffff">
<path fill="#ffffff" opacity="1.00" d=" M 0.00 0.00 L 60.00 0.00 L 60.00 60.00 L 0.00 60.00 L 0.00 0.00 M 24.30 4.00 C 23.84 5.72 23.05 7.31 21.93 8.69 C 22.56 13.01 26.57 16.67 31.07 15.91 C 34.82 15.52 37.41 12.22 38.08 8.70 C 36.94 7.32 36.16 5.72 35.69 4.00 C 31.90 4.00 28.10 4.00 24.30 4.00 M 5.95 11.98 C 6.24 25.86 10.25 39.44 15.99 52.01 C 25.33 51.99 34.67 52.00 44.02 52.01 C 49.75 39.45 53.75 25.88 54.04 12.00 C 50.08 11.01 46.09 10.13 42.09 9.29 C 41.13 15.12 36.07 20.15 29.97 19.97 C 23.89 20.12 18.87 15.09 17.88 9.29 C 13.91 10.18 9.93 11.07 5.95 11.98 Z" />
<path fill="#ffffff" opacity="1.00" d=" M 24.35 26.01 C 26.24 24.13 28.12 22.23 30.01 20.35 C 31.89 22.23 33.77 24.11 35.66 25.99 C 33.78 28.55 31.89 31.11 30.00 33.66 C 28.13 31.10 26.24 28.56 24.35 26.01 Z" />
</g>
<g id="#000000ff">
<path fill="#000000" opacity="1.00" d=" M 24.30 4.00 C 28.10 4.00 31.90 4.00 35.69 4.00 C 36.16 5.72 36.94 7.32 38.08 8.70 C 37.41 12.22 34.82 15.52 31.07 15.91 C 26.57 16.67 22.56 13.01 21.93 8.69 C 23.05 7.31 23.84 5.72 24.30 4.00 Z" />
<path fill="#000000" opacity="1.00" d=" M 5.95 11.98 C 9.93 11.07 13.91 10.18 17.88 9.29 C 18.87 15.09 23.89 20.12 29.97 19.97 C 36.07 20.15 41.13 15.12 42.09 9.29 C 46.09 10.13 50.08 11.01 54.04 12.00 C 53.75 25.88 49.75 39.45 44.02 52.01 C 34.67 52.00 25.33 51.99 15.99 52.01 C 10.25 39.44 6.24 25.86 5.95 11.98 M 24.35 26.01 C 26.24 28.56 28.13 31.10 30.00 33.66 C 31.89 31.11 33.78 28.55 35.66 25.99 C 33.77 24.11 31.89 22.23 30.01 20.35 C 28.12 22.23 26.24 24.13 24.35 26.01 Z" />
</g>
</svg>
