<?xml version="1.0" encoding="UTF-8" ?>
<!DOCTYPE svg PUBLIC "-//W3C//DTD SVG 1.1//EN" "http://www.w3.org/Graphics/SVG/1.1/DTD/svg11.dtd">
<svg width="64pt" height="64pt" viewBox="0 0 64 64" version="1.1" xmlns="http://www.w3.org/2000/svg">
<g id="#ffffffff">
<path fill="#ffffff" opacity="1.00" d=" M 0.00 0.00 L 64.00 0.00 L 64.00 64.00 L 0.00 64.00 L 0.00 0.00 M 8.06 18.00 C 7.91 26.67 8.04 35.33 8.00 44.00 C 9.33 44.00 10.67 44.00 12.00 44.00 C 12.00 46.00 12.00 48.00 12.00 50.00 C 10.67 50.00 9.33 50.00 8.00 50.00 C 8.00 51.33 8.00 52.67 8.00 54.00 C 9.33 54.00 10.67 54.00 12.00 54.00 C 12.00 56.00 12.00 58.00 12.00 60.00 C 13.33 60.00 14.67 60.00 16.00 60.00 C 16.00 58.00 16.00 56.00 16.00 54.00 C 28.67 54.00 41.33 54.00 54.00 54.00 C 54.03 46.29 53.94 38.58 54.03 30.87 C 54.92 25.53 56.90 20.41 57.91 15.09 C 58.68 10.30 54.54 5.93 49.88 5.62 C 40.92 5.04 31.95 4.63 22.99 4.17 C 15.32 3.67 8.14 10.31 8.06 18.00 Z" />
<path fill="#ffffff" opacity="1.00" d=" M 12.06 17.93 C 12.18 12.38 17.47 7.68 22.99 8.17 C 31.61 8.61 40.24 9.05 48.86 9.54 C 51.28 9.59 54.15 11.27 54.02 13.99 C 53.04 19.36 51.14 24.52 50.07 29.87 C 49.89 36.57 50.06 43.29 50.00 50.00 C 43.33 50.00 36.67 50.00 30.00 50.00 C 30.00 46.67 30.00 43.33 30.00 40.00 C 24.00 40.00 18.00 40.00 12.00 40.00 C 12.05 32.64 11.91 25.28 12.06 17.93 M 16.15 17.89 C 15.86 20.58 16.03 23.30 16.01 26.00 C 26.22 25.99 36.43 26.02 46.64 25.98 C 47.44 21.99 48.29 18.01 49.11 14.02 C 40.40 13.53 31.69 12.95 22.97 12.54 C 19.78 12.27 16.68 14.75 16.15 17.89 M 34.00 32.00 C 34.00 33.33 34.00 34.67 34.00 36.00 C 38.00 36.00 42.00 36.00 46.00 36.00 C 46.00 34.67 46.00 33.33 46.00 32.00 C 42.00 32.00 38.00 32.00 34.00 32.00 M 34.00 40.00 C 34.00 41.33 34.00 42.67 34.00 44.00 C 38.00 44.00 42.00 44.00 46.00 44.00 C 46.00 42.67 46.00 41.33 46.00 40.00 C 42.00 40.00 38.00 40.00 34.00 40.00 Z" />
<path fill="#ffffff" opacity="1.00" d=" M 19.96 22.00 C 20.08 20.13 19.50 17.07 22.03 16.59 C 29.44 16.69 36.84 17.40 44.24 17.75 C 43.97 19.14 43.70 20.53 43.44 21.92 C 35.61 22.09 27.79 21.96 19.96 22.00 Z" />
<path fill="#ffffff" opacity="1.00" d=" M 16.00 44.00 C 19.33 44.00 22.67 44.00 26.00 44.00 C 26.00 46.00 26.00 48.00 26.00 50.00 C 22.67 50.00 19.33 50.00 16.00 50.00 C 16.00 48.00 16.00 46.00 16.00 44.00 Z" />
</g>
<g id="#000000ff">
<path fill="#000000" opacity="1.00" d=" M 8.06 18.00 C 8.14 10.31 15.32 3.67 22.99 4.17 C 31.95 4.63 40.92 5.04 49.88 5.62 C 54.54 5.93 58.68 10.30 57.91 15.09 C 56.90 20.41 54.92 25.53 54.03 30.87 C 53.94 38.58 54.03 46.29 54.00 54.00 C 41.33 54.00 28.67 54.00 16.00 54.00 C 16.00 56.00 16.00 58.00 16.00 60.00 C 14.67 60.00 13.33 60.00 12.00 60.00 C 12.00 58.00 12.00 56.00 12.00 54.00 C 10.67 54.00 9.33 54.00 8.00 54.00 C 8.00 52.67 8.00 51.33 8.00 50.00 C 9.33 50.00 10.67 50.00 12.00 50.00 C 12.00 48.00 12.00 46.00 12.00 44.00 C 10.67 44.00 9.33 44.00 8.00 44.00 C 8.04 35.33 7.91 26.67 8.06 18.00 M 12.06 17.93 C 11.91 25.28 12.05 32.64 12.00 40.00 C 18.00 40.00 24.00 40.00 30.00 40.00 C 30.00 43.33 30.00 46.67 30.00 50.00 C 36.67 50.00 43.33 50.00 50.00 50.00 C 50.06 43.29 49.89 36.57 50.07 29.87 C 51.14 24.52 53.04 19.36 54.02 13.99 C 54.15 11.27 51.28 9.59 48.86 9.54 C 40.24 9.05 31.61 8.61 22.99 8.17 C 17.47 7.68 12.18 12.38 12.06 17.93 M 16.00 44.00 C 16.00 46.00 16.00 48.00 16.00 50.00 C 19.33 50.00 22.67 50.00 26.00 50.00 C 26.00 48.00 26.00 46.00 26.00 44.00 C 22.67 44.00 19.33 44.00 16.00 44.00 Z" />
<path fill="#000000" opacity="1.00" d=" M 16.15 17.89 C 16.68 14.75 19.78 12.27 22.97 12.54 C 31.69 12.95 40.40 13.53 49.11 14.02 C 48.29 18.01 47.44 21.99 46.64 25.98 C 36.43 26.02 26.22 25.99 16.01 26.00 C 16.03 23.30 15.86 20.58 16.15 17.89 M 19.96 22.00 C 27.79 21.96 35.61 22.09 43.44 21.92 C 43.70 20.53 43.97 19.14 44.24 17.75 C 36.84 17.40 29.44 16.69 22.03 16.59 C 19.50 17.07 20.08 20.13 19.96 22.00 Z" />
<path fill="#000000" opacity="1.00" d=" M 34.00 32.00 C 38.00 32.00 42.00 32.00 46.00 32.00 C 46.00 33.33 46.00 34.67 46.00 36.00 C 42.00 36.00 38.00 36.00 34.00 36.00 C 34.00 34.67 34.00 33.33 34.00 32.00 Z" />
<path fill="#000000" opacity="1.00" d=" M 34.00 40.00 C 38.00 40.00 42.00 40.00 46.00 40.00 C 46.00 41.33 46.00 42.67 46.00 44.00 C 42.00 44.00 38.00 44.00 34.00 44.00 C 34.00 42.67 34.00 41.33 34.00 40.00 Z" />
</g>
</svg>
