<?xml version="1.0" encoding="UTF-8" ?>
<!DOCTYPE svg PUBLIC "-//W3C//DTD SVG 1.1//EN" "http://www.w3.org/Graphics/SVG/1.1/DTD/svg11.dtd">
<svg width="64pt" height="64pt" viewBox="0 0 64 64" version="1.1" xmlns="http://www.w3.org/2000/svg">
<g id="#ffffffff">
<path fill="#ffffff" opacity="1.00" d=" M 0.00 0.00 L 64.00 0.00 L 64.00 64.00 L 0.00 64.00 L 0.00 0.00 M 12.26 14.84 C 12.82 17.33 15.05 18.74 17.12 19.89 C 14.80 28.00 16.69 36.54 15.83 44.82 C 15.13 46.29 13.29 45.84 12.00 46.15 C 12.00 47.43 12.00 48.72 12.00 50.00 C 16.72 49.99 21.43 50.01 26.15 49.99 C 25.20 53.79 27.90 58.09 32.01 58.00 C 36.11 58.07 38.78 53.77 37.85 49.99 C 42.57 50.01 47.28 49.99 52.00 50.00 C 52.00 48.72 52.00 47.43 52.00 46.15 C 50.71 45.86 48.98 46.26 48.18 44.92 C 47.28 36.69 49.21 28.18 46.89 20.12 C 49.16 19.20 51.52 17.87 52.31 15.38 C 54.05 11.15 50.55 6.03 46.01 6.01 C 42.48 6.16 39.43 8.24 36.29 9.65 C 35.40 7.98 34.22 5.81 31.98 6.03 C 29.89 5.88 28.80 7.80 27.79 9.27 C 24.91 8.04 22.14 6.25 18.95 6.00 C 14.55 5.91 10.93 10.61 12.26 14.84 Z" />
<path fill="#ffffff" opacity="1.00" d=" M 18.13 15.85 C 14.98 15.12 15.63 9.91 18.90 10.02 C 21.94 10.72 24.65 12.32 27.43 13.66 C 24.38 14.49 21.36 16.05 18.13 15.85 Z" />
<path fill="#ffffff" opacity="1.00" d=" M 37.32 13.64 C 40.16 12.30 42.92 10.63 46.03 10.00 C 49.07 10.15 49.73 14.90 46.79 15.77 C 43.53 16.18 40.42 14.49 37.32 13.64 Z" />
<path fill="#ffffff" opacity="1.00" d=" M 21.82 19.74 C 25.30 18.31 28.98 17.44 32.50 16.13 C 35.61 17.29 38.75 18.39 41.96 19.26 C 42.85 21.04 43.83 22.85 43.89 24.89 C 44.26 31.93 43.71 38.98 44.19 46.01 C 36.06 45.99 27.94 45.99 19.81 46.01 C 20.24 39.33 19.84 32.64 20.03 25.95 C 20.09 23.78 20.57 21.55 21.82 19.74 Z" />
<path fill="#ffffff" opacity="1.00" d=" M 31.17 50.21 C 33.47 48.88 35.29 53.02 32.76 53.83 C 30.51 55.01 28.77 51.06 31.17 50.21 Z" />
</g>
<g id="#000000ff">
<path fill="#000000" opacity="1.00" d=" M 12.26 14.84 C 10.93 10.61 14.55 5.91 18.95 6.00 C 22.14 6.25 24.91 8.04 27.79 9.27 C 28.80 7.80 29.89 5.88 31.98 6.03 C 34.22 5.81 35.40 7.98 36.29 9.65 C 39.43 8.24 42.48 6.16 46.01 6.01 C 50.55 6.03 54.05 11.15 52.31 15.38 C 51.52 17.87 49.16 19.20 46.89 20.12 C 49.21 28.18 47.28 36.69 48.18 44.92 C 48.98 46.26 50.71 45.86 52.00 46.15 C 52.00 47.43 52.00 48.72 52.00 50.00 C 47.28 49.99 42.57 50.01 37.85 49.99 C 38.78 53.77 36.11 58.07 32.01 58.00 C 27.90 58.09 25.20 53.79 26.15 49.99 C 21.43 50.01 16.72 49.99 12.00 50.00 C 12.00 48.72 12.00 47.43 12.00 46.15 C 13.29 45.84 15.13 46.29 15.83 44.82 C 16.69 36.54 14.80 28.00 17.12 19.89 C 15.05 18.74 12.82 17.33 12.26 14.84 M 18.13 15.85 C 21.36 16.05 24.38 14.49 27.43 13.66 C 24.65 12.32 21.94 10.72 18.90 10.02 C 15.63 9.91 14.98 15.12 18.13 15.85 M 37.32 13.64 C 40.42 14.49 43.53 16.18 46.79 15.77 C 49.73 14.90 49.07 10.15 46.03 10.00 C 42.92 10.63 40.16 12.30 37.32 13.64 M 21.82 19.74 C 20.57 21.55 20.09 23.78 20.03 25.95 C 19.84 32.64 20.24 39.33 19.81 46.01 C 27.94 45.99 36.06 45.99 44.19 46.01 C 43.71 38.98 44.26 31.93 43.89 24.89 C 43.83 22.85 42.85 21.04 41.96 19.26 C 38.75 18.39 35.61 17.29 32.50 16.13 C 28.98 17.44 25.30 18.31 21.82 19.74 M 31.17 50.21 C 28.77 51.06 30.51 55.01 32.76 53.83 C 35.29 53.02 33.47 48.88 31.17 50.21 Z" />
</g>
</svg>
