<?xml version="1.0" encoding="UTF-8" ?>
<!DOCTYPE svg PUBLIC "-//W3C//DTD SVG 1.1//EN" "http://www.w3.org/Graphics/SVG/1.1/DTD/svg11.dtd">
<svg width="60pt" height="60pt" viewBox="0 0 60 60" version="1.1" xmlns="http://www.w3.org/2000/svg">
<g id="#ffffffff">
<path fill="#ffffff" opacity="1.00" d=" M 0.00 0.00 L 60.00 0.00 L 60.00 60.00 L 0.00 60.00 L 0.00 0.00 M 35.19 4.13 C 30.90 7.04 28.65 13.05 30.90 17.88 C 32.75 22.03 37.29 23.70 40.43 26.64 C 42.03 27.97 41.72 30.40 43.08 31.89 C 44.38 32.32 46.13 31.52 45.95 29.96 C 46.13 26.00 42.93 23.11 39.88 21.14 C 37.15 19.21 33.35 16.97 34.05 13.01 C 34.08 10.35 36.30 8.69 37.76 6.75 C 38.72 5.09 36.79 3.44 35.19 4.13 M 40.10 14.89 C 41.51 16.33 44.01 15.91 45.30 17.50 C 45.78 18.77 46.07 20.11 46.60 21.37 C 47.97 22.05 49.53 22.25 50.85 23.02 C 52.14 24.33 51.78 26.56 53.06 27.89 C 54.39 28.31 56.11 27.54 55.94 25.96 C 56.20 22.19 53.34 19.01 49.80 18.12 C 48.90 15.82 47.75 13.32 45.15 12.58 C 43.19 11.52 39.18 11.75 40.10 14.89 M 40.16 36.26 C 28.10 37.24 16.02 38.05 3.97 39.06 C 1.09 39.11 1.11 44.91 3.98 44.94 C 17.62 45.89 31.25 47.37 44.90 47.83 C 47.10 45.27 45.69 41.15 45.91 37.98 C 45.78 35.06 42.05 36.31 40.16 36.26 M 49.17 36.07 C 46.86 38.59 48.33 42.78 48.08 45.97 C 47.83 48.05 50.98 48.78 51.78 46.90 C 52.20 43.65 52.14 40.33 51.81 37.07 C 51.19 36.12 50.31 35.79 49.17 36.07 M 55.09 36.09 C 53.33 37.50 54.24 40.05 53.94 42.00 C 54.21 43.94 53.37 46.48 55.10 47.89 C 58.71 48.79 57.96 44.16 58.06 41.98 C 57.96 39.78 58.72 35.20 55.09 36.09 Z" />
</g>
<g id="#000000ff">
<path fill="#000000" opacity="1.00" d=" M 35.19 4.13 C 36.79 3.44 38.72 5.09 37.76 6.75 C 36.30 8.69 34.08 10.35 34.05 13.01 C 33.35 16.97 37.15 19.21 39.88 21.14 C 42.93 23.11 46.13 26.00 45.95 29.96 C 46.13 31.52 44.38 32.32 43.08 31.89 C 41.72 30.40 42.03 27.97 40.43 26.64 C 37.29 23.70 32.75 22.03 30.90 17.88 C 28.65 13.05 30.90 7.04 35.19 4.13 Z" />
<path fill="#000000" opacity="1.00" d=" M 40.10 14.89 C 39.18 11.75 43.19 11.52 45.15 12.58 C 47.75 13.32 48.90 15.82 49.80 18.12 C 53.34 19.01 56.20 22.19 55.94 25.96 C 56.11 27.54 54.39 28.31 53.06 27.89 C 51.78 26.56 52.14 24.33 50.85 23.02 C 49.53 22.25 47.97 22.05 46.60 21.37 C 46.07 20.11 45.78 18.77 45.30 17.50 C 44.01 15.91 41.51 16.33 40.10 14.89 Z" />
<path fill="#000000" opacity="1.00" d=" M 40.16 36.26 C 42.05 36.31 45.78 35.06 45.91 37.98 C 45.69 41.15 47.10 45.27 44.90 47.83 C 31.25 47.37 17.62 45.89 3.98 44.94 C 1.11 44.91 1.09 39.11 3.97 39.06 C 16.02 38.05 28.10 37.24 40.16 36.26 Z" />
<path fill="#000000" opacity="1.00" d=" M 49.17 36.07 C 50.31 35.79 51.19 36.12 51.81 37.07 C 52.14 40.33 52.20 43.65 51.78 46.90 C 50.98 48.78 47.83 48.05 48.08 45.97 C 48.33 42.78 46.86 38.59 49.17 36.07 Z" />
<path fill="#000000" opacity="1.00" d=" M 55.09 36.09 C 58.72 35.20 57.96 39.78 58.06 41.98 C 57.96 44.16 58.71 48.79 55.10 47.89 C 53.37 46.48 54.21 43.94 53.94 42.00 C 54.24 40.05 53.33 37.50 55.09 36.09 Z" />
</g>
</svg>
