<?xml version="1.0" encoding="UTF-8" ?>
<!DOCTYPE svg PUBLIC "-//W3C//DTD SVG 1.1//EN" "http://www.w3.org/Graphics/SVG/1.1/DTD/svg11.dtd">
<svg width="64pt" height="64pt" viewBox="0 0 64 64" version="1.1" xmlns="http://www.w3.org/2000/svg">
<g id="#ffffffff">
<path fill="#ffffff" opacity="1.00" d=" M 0.00 0.00 L 64.00 0.00 L 64.00 64.00 L 0.00 64.00 L 0.00 0.00 M 37.98 8.00 C 37.99 13.81 38.74 20.57 43.92 24.18 C 47.32 26.25 48.08 30.32 48.06 34.01 C 49.38 33.99 50.71 33.99 52.04 33.99 C 51.86 30.93 51.72 27.72 50.15 24.99 C 48.63 22.20 45.41 20.90 43.79 18.20 C 42.10 15.08 42.14 11.44 41.97 8.00 C 40.64 8.01 39.31 8.01 37.98 8.00 M 45.98 8.00 C 46.17 10.84 46.02 13.91 47.56 16.43 C 49.21 18.71 51.77 20.17 53.29 22.57 C 55.56 25.89 55.87 30.04 56.03 33.93 C 57.35 33.93 58.68 33.93 60.01 33.94 C 59.89 29.26 59.33 24.34 56.65 20.36 C 55.14 17.94 52.70 16.36 50.91 14.19 C 49.95 12.28 50.16 10.06 49.96 8.00 C 48.63 8.01 47.30 8.01 45.98 8.00 M 2.22 46.00 C 9.54 50.09 17.42 53.84 25.98 53.95 C 37.32 54.06 48.66 53.97 60.00 54.00 C 60.00 48.67 60.00 43.33 60.00 38.00 C 48.66 38.03 37.32 37.94 25.99 38.04 C 17.42 38.14 9.54 41.90 2.22 46.00 Z" />
<path fill="#ffffff" opacity="1.00" d=" M 28.10 42.01 C 31.64 42.00 35.18 42.00 38.72 42.01 C 41.12 44.67 43.52 47.32 45.90 50.00 C 42.36 50.00 38.82 50.00 35.28 50.00 C 32.89 47.32 30.50 44.67 28.10 42.01 Z" />
<path fill="#ffffff" opacity="1.00" d=" M 44.10 42.01 C 48.06 41.99 52.03 42.00 56.00 42.00 C 56.00 44.67 56.00 47.34 56.00 50.00 C 54.43 49.99 52.86 49.99 51.29 50.00 C 48.90 47.33 46.50 44.67 44.10 42.01 Z" />
<path fill="#ffffff" opacity="1.00" d=" M 10.91 46.01 C 14.70 44.12 18.75 42.85 22.93 42.24 C 25.26 44.83 27.61 47.41 29.91 50.03 C 23.36 50.20 16.77 49.02 10.91 46.01 Z" />
</g>
<g id="#000000ff">
<path fill="#000000" opacity="1.00" d=" M 37.98 8.00 C 39.31 8.01 40.64 8.01 41.97 8.00 C 42.14 11.44 42.10 15.08 43.79 18.20 C 45.41 20.90 48.63 22.20 50.15 24.99 C 51.72 27.72 51.86 30.93 52.04 33.99 C 50.71 33.99 49.38 33.99 48.06 34.01 C 48.08 30.32 47.32 26.25 43.92 24.18 C 38.74 20.57 37.99 13.81 37.98 8.00 Z" />
<path fill="#000000" opacity="1.00" d=" M 45.98 8.00 C 47.30 8.01 48.63 8.01 49.96 8.00 C 50.16 10.06 49.95 12.28 50.91 14.19 C 52.70 16.36 55.14 17.94 56.65 20.36 C 59.33 24.34 59.89 29.26 60.01 33.94 C 58.68 33.93 57.35 33.93 56.03 33.93 C 55.87 30.04 55.56 25.89 53.29 22.57 C 51.77 20.17 49.21 18.71 47.56 16.43 C 46.02 13.91 46.17 10.84 45.98 8.00 Z" />
<path fill="#000000" opacity="1.00" d=" M 2.22 46.00 C 9.54 41.90 17.42 38.14 25.99 38.04 C 37.32 37.94 48.66 38.03 60.00 38.00 C 60.00 43.33 60.00 48.67 60.00 54.00 C 48.66 53.97 37.32 54.06 25.98 53.95 C 17.42 53.84 9.54 50.09 2.22 46.00 M 28.10 42.01 C 30.50 44.67 32.89 47.32 35.28 50.00 C 38.82 50.00 42.36 50.00 45.90 50.00 C 43.52 47.32 41.12 44.67 38.72 42.01 C 35.18 42.00 31.64 42.00 28.10 42.01 M 44.10 42.01 C 46.50 44.67 48.90 47.33 51.29 50.00 C 52.86 49.99 54.43 49.99 56.00 50.00 C 56.00 47.34 56.00 44.67 56.00 42.00 C 52.03 42.00 48.06 41.99 44.10 42.01 M 10.91 46.01 C 16.77 49.02 23.36 50.20 29.91 50.03 C 27.61 47.41 25.26 44.83 22.93 42.24 C 18.75 42.85 14.70 44.12 10.91 46.01 Z" />
</g>
</svg>
