<?xml version="1.0" encoding="UTF-8" ?>
<!DOCTYPE svg PUBLIC "-//W3C//DTD SVG 1.1//EN" "http://www.w3.org/Graphics/SVG/1.1/DTD/svg11.dtd">
<svg width="60pt" height="60pt" viewBox="0 0 60 60" version="1.1" xmlns="http://www.w3.org/2000/svg">
<g id="#ffffffff">
<path fill="#ffffff" opacity="1.00" d=" M 0.00 0.00 L 60.00 0.00 L 60.00 11.04 C 58.78 7.37 54.30 7.32 52.08 10.09 C 43.84 10.86 35.35 14.81 31.79 22.71 C 27.29 13.54 17.90 7.50 7.89 6.14 C 5.74 3.28 1.34 3.42 0.00 6.96 L 0.00 0.00 Z" />
<path fill="#ffffff" opacity="1.00" d=" M 0.00 8.82 C 1.05 12.56 5.17 12.36 7.90 10.69 C 13.59 14.32 15.38 21.93 12.95 28.03 C 10.90 33.11 9.95 38.53 9.96 43.99 C 23.99 44.00 38.01 44.01 52.04 43.99 C 51.82 39.44 51.39 34.79 49.50 30.57 C 48.40 27.70 46.41 25.11 46.02 22.00 C 45.89 18.26 49.17 15.77 52.25 14.42 C 54.75 16.63 58.73 16.41 60.00 13.00 L 60.00 60.00 L 0.00 60.00 L 0.00 8.82 M 9.16 48.18 C 7.26 48.92 7.88 52.14 9.99 51.93 C 23.68 52.09 37.38 51.97 51.07 51.99 C 52.28 52.14 54.23 51.57 53.93 50.00 C 54.16 47.88 51.47 47.94 50.03 47.99 C 36.41 48.14 22.76 47.75 9.16 48.18 Z" />
<path fill="#ffffff" opacity="1.00" d=" M 15.10 12.15 C 20.93 14.85 26.17 19.34 28.60 25.41 C 30.59 30.01 29.88 35.13 29.99 40.00 C 24.69 39.99 19.38 40.03 14.07 39.97 C 14.30 33.74 18.21 28.31 17.98 22.02 C 18.05 18.51 16.76 15.19 15.10 12.15 Z" />
</g>
<g id="#000000ff">
<path fill="#000000" opacity="1.00" d=" M 0.00 6.96 C 1.34 3.42 5.74 3.28 7.89 6.14 C 17.90 7.50 27.29 13.54 31.79 22.71 C 35.35 14.81 43.84 10.86 52.08 10.09 C 54.30 7.32 58.78 7.37 60.00 11.04 L 60.00 13.00 C 58.73 16.41 54.75 16.63 52.25 14.42 C 49.17 15.77 45.89 18.26 46.02 22.00 C 46.41 25.11 48.40 27.70 49.50 30.57 C 51.39 34.79 51.82 39.44 52.04 43.99 C 38.01 44.01 23.99 44.00 9.96 43.99 C 9.95 38.53 10.90 33.11 12.95 28.03 C 15.38 21.93 13.59 14.32 7.90 10.69 C 5.17 12.36 1.05 12.56 0.00 8.82 L 0.00 6.96 M 15.10 12.15 C 16.76 15.19 18.05 18.51 17.98 22.02 C 18.21 28.31 14.30 33.74 14.07 39.97 C 19.38 40.03 24.69 39.99 29.99 40.00 C 29.88 35.13 30.59 30.01 28.60 25.41 C 26.17 19.34 20.93 14.85 15.10 12.15 Z" />
<path fill="#000000" opacity="1.00" d=" M 9.16 48.18 C 22.76 47.75 36.41 48.14 50.03 47.99 C 51.47 47.94 54.16 47.88 53.93 50.00 C 54.23 51.57 52.28 52.14 51.07 51.99 C 37.38 51.97 23.68 52.09 9.99 51.93 C 7.88 52.14 7.26 48.92 9.16 48.18 Z" />
</g>
</svg>
