<?xml version="1.0" encoding="UTF-8" ?>
<!DOCTYPE svg PUBLIC "-//W3C//DTD SVG 1.1//EN" "http://www.w3.org/Graphics/SVG/1.1/DTD/svg11.dtd">
<svg width="60pt" height="60pt" viewBox="0 0 60 60" version="1.1" xmlns="http://www.w3.org/2000/svg">
<g id="#ffffffff">
<path fill="#ffffff" opacity="1.00" d=" M 0.00 0.00 L 60.00 0.00 L 60.00 60.00 L 25.76 60.00 C 26.03 55.86 26.05 51.72 25.91 47.58 C 22.88 48.25 19.92 49.23 16.88 49.87 C 15.16 50.37 13.58 48.84 13.83 47.11 C 15.96 45.79 18.55 45.98 20.95 45.93 C 26.63 45.98 32.31 46.03 37.99 45.99 C 38.01 32.66 38.01 19.34 37.99 6.02 C 31.63 6.04 25.28 5.91 18.92 5.95 C 16.49 6.09 13.63 5.89 11.75 7.75 C 9.89 9.63 10.08 12.49 9.95 14.92 C 9.98 24.30 10.04 33.68 9.94 43.06 C 9.99 46.29 9.88 50.08 12.42 52.50 C 14.52 54.11 17.39 53.90 19.88 54.37 C 19.97 56.25 20.13 58.13 20.40 60.00 L 0.00 60.00 L 0.00 0.00 M 42.03 5.84 C 41.98 19.28 41.98 32.72 42.03 46.17 C 44.10 45.92 46.35 46.21 48.27 45.28 C 50.58 43.66 49.83 40.44 50.05 38.04 C 49.79 28.41 50.35 18.76 49.79 9.16 C 49.31 5.40 44.75 6.13 42.03 5.84 M 29.99 50.02 C 30.01 51.34 30.01 52.65 29.99 53.97 C 36.66 53.94 43.35 54.30 49.99 53.63 C 49.87 52.57 49.68 51.51 49.44 50.47 C 43.03 49.40 36.46 50.24 29.99 50.02 Z" />
<path fill="#ffffff" opacity="1.00" d=" M 21.05 60.00 C 21.32 57.32 24.71 57.32 25.00 60.00 L 21.05 60.00 Z" />
</g>
<g id="#000000ff">
<path fill="#000000" opacity="1.00" d=" M 11.75 7.75 C 13.63 5.89 16.49 6.09 18.92 5.95 C 25.28 5.91 31.63 6.04 37.99 6.02 C 38.01 19.34 38.01 32.66 37.99 45.99 C 32.31 46.03 26.63 45.98 20.95 45.93 C 18.55 45.98 15.96 45.79 13.83 47.11 C 13.58 48.84 15.16 50.37 16.88 49.87 C 19.92 49.23 22.88 48.25 25.91 47.58 C 26.05 51.72 26.03 55.86 25.76 60.00 L 25.00 60.00 C 24.71 57.32 21.32 57.32 21.05 60.00 L 20.40 60.00 C 20.13 58.13 19.97 56.25 19.88 54.37 C 17.39 53.90 14.52 54.11 12.42 52.50 C 9.88 50.08 9.99 46.29 9.94 43.06 C 10.04 33.68 9.98 24.30 9.95 14.92 C 10.08 12.49 9.89 9.63 11.75 7.75 Z" />
<path fill="#000000" opacity="1.00" d=" M 42.03 5.84 C 44.75 6.13 49.31 5.40 49.79 9.16 C 50.35 18.76 49.79 28.41 50.05 38.04 C 49.83 40.44 50.58 43.66 48.27 45.28 C 46.35 46.21 44.10 45.92 42.03 46.17 C 41.98 32.72 41.98 19.28 42.03 5.84 Z" />
<path fill="#000000" opacity="1.00" d=" M 29.99 50.02 C 36.46 50.24 43.03 49.40 49.44 50.47 C 49.68 51.51 49.87 52.57 49.99 53.63 C 43.35 54.30 36.66 53.94 29.99 53.97 C 30.01 52.65 30.01 51.34 29.99 50.02 Z" />
</g>
</svg>
