<?xml version="1.0" encoding="UTF-8" ?>
<!DOCTYPE svg PUBLIC "-//W3C//DTD SVG 1.1//EN" "http://www.w3.org/Graphics/SVG/1.1/DTD/svg11.dtd">
<svg width="64pt" height="64pt" viewBox="0 0 64 64" version="1.1" xmlns="http://www.w3.org/2000/svg">
<g id="#ffffffff">
<path fill="#ffffff" opacity="1.00" d=" M 0.00 0.00 L 64.00 0.00 L 64.00 64.00 L 0.00 64.00 L 0.00 0.00 M 44.14 13.97 C 35.37 14.08 26.59 13.90 17.82 14.05 C 15.15 13.89 13.46 16.08 12.15 18.07 C 9.97 19.30 7.82 21.18 8.00 23.95 C 7.77 26.75 9.93 28.69 12.15 29.93 C 13.46 31.91 15.16 34.10 17.83 33.95 C 27.68 34.06 37.53 33.99 47.38 33.97 C 45.80 35.65 43.84 37.43 44.00 39.97 C 43.81 42.54 45.80 44.33 47.38 46.02 C 38.21 45.95 29.03 46.05 19.86 45.97 C 18.42 42.85 14.68 40.95 11.42 42.55 C 6.92 44.34 6.91 51.64 11.40 53.44 C 14.66 55.04 18.42 53.16 19.86 50.03 C 28.60 49.92 37.35 50.10 46.09 49.96 C 48.79 50.13 50.52 47.94 51.84 45.93 C 54.05 44.70 56.19 42.79 55.99 40.00 C 56.20 37.21 54.05 35.30 51.84 34.06 C 50.53 32.07 48.82 29.88 46.13 30.04 C 36.30 29.94 26.45 30.01 16.62 30.02 C 18.21 28.34 20.17 26.54 20.00 23.98 C 20.16 21.44 18.20 19.66 16.62 17.98 C 25.79 18.05 34.97 17.95 44.14 18.03 C 45.57 21.15 49.30 23.03 52.55 21.45 C 57.07 19.68 57.10 12.38 52.61 10.57 C 49.35 8.95 45.58 10.83 44.14 13.97 Z" />
<path fill="#ffffff" opacity="1.00" d=" M 49.26 14.13 C 52.17 12.75 53.16 18.27 50.00 17.96 C 47.80 18.38 47.21 14.59 49.26 14.13 Z" />
<path fill="#ffffff" opacity="1.00" d=" M 13.23 22.15 C 15.66 20.88 17.24 25.17 14.73 25.86 C 12.33 27.07 10.79 22.88 13.23 22.15 Z" />
<path fill="#ffffff" opacity="1.00" d=" M 49.22 38.09 C 51.72 36.97 53.22 41.19 50.69 41.87 C 48.28 42.99 46.84 38.93 49.22 38.09 Z" />
<path fill="#ffffff" opacity="1.00" d=" M 13.24 46.14 C 15.64 44.90 17.22 49.10 14.78 49.84 C 12.37 51.13 10.76 46.88 13.24 46.14 Z" />
</g>
<g id="#000000ff">
<path fill="#000000" opacity="1.00" d=" M 44.14 13.97 C 45.58 10.83 49.35 8.95 52.61 10.57 C 57.10 12.38 57.07 19.68 52.55 21.45 C 49.30 23.03 45.57 21.15 44.14 18.03 C 34.97 17.95 25.79 18.05 16.62 17.98 C 18.20 19.66 20.16 21.44 20.00 23.98 C 20.17 26.54 18.21 28.34 16.62 30.02 C 26.45 30.01 36.30 29.94 46.13 30.04 C 48.82 29.88 50.53 32.07 51.84 34.06 C 54.05 35.30 56.20 37.21 55.99 40.00 C 56.19 42.79 54.05 44.70 51.84 45.93 C 50.52 47.94 48.79 50.13 46.09 49.96 C 37.35 50.10 28.60 49.92 19.86 50.03 C 18.42 53.16 14.66 55.04 11.40 53.44 C 6.91 51.64 6.92 44.34 11.42 42.55 C 14.68 40.95 18.42 42.85 19.86 45.97 C 29.03 46.05 38.21 45.95 47.38 46.02 C 45.80 44.33 43.81 42.54 44.00 39.97 C 43.84 37.43 45.80 35.65 47.38 33.97 C 37.53 33.99 27.68 34.06 17.83 33.95 C 15.16 34.10 13.46 31.91 12.15 29.93 C 9.93 28.69 7.77 26.75 8.00 23.95 C 7.82 21.18 9.97 19.30 12.15 18.07 C 13.46 16.08 15.15 13.89 17.82 14.05 C 26.59 13.90 35.37 14.08 44.14 13.97 M 49.26 14.13 C 47.21 14.59 47.80 18.38 50.00 17.96 C 53.16 18.27 52.17 12.75 49.26 14.13 M 13.23 22.15 C 10.79 22.88 12.33 27.07 14.73 25.86 C 17.24 25.17 15.66 20.88 13.23 22.15 M 49.22 38.09 C 46.84 38.93 48.28 42.99 50.69 41.87 C 53.22 41.19 51.72 36.97 49.22 38.09 M 13.24 46.14 C 10.76 46.88 12.37 51.13 14.78 49.84 C 17.22 49.10 15.64 44.90 13.24 46.14 Z" />
</g>
</svg>
