<?xml version="1.0" encoding="UTF-8" ?>
<!DOCTYPE svg PUBLIC "-//W3C//DTD SVG 1.1//EN" "http://www.w3.org/Graphics/SVG/1.1/DTD/svg11.dtd">
<svg width="64pt" height="64pt" viewBox="0 0 64 64" version="1.1" xmlns="http://www.w3.org/2000/svg">
<g id="#ffffffff">
<path fill="#ffffff" opacity="1.00" d=" M 0.00 0.00 L 64.00 0.00 L 64.00 64.00 L 0.00 64.00 L 0.00 0.00 M 12.00 6.00 C 12.00 10.67 12.00 15.33 12.00 20.00 C 13.33 20.00 14.67 20.00 16.00 20.00 C 16.00 16.67 16.00 13.33 16.00 10.00 C 26.67 10.00 37.33 10.00 48.00 10.00 C 48.00 13.33 48.00 16.67 48.00 20.00 C 49.33 20.00 50.67 20.00 52.00 20.00 C 52.00 15.33 52.00 10.67 52.00 6.00 C 38.67 6.00 25.33 6.00 12.00 6.00 M 19.99 24.00 C 19.45 28.04 21.25 32.76 18.96 36.35 C 18.42 33.57 15.87 33.94 13.71 33.90 C 14.17 35.84 14.42 38.25 16.42 39.27 C 19.13 41.10 23.34 39.32 23.81 36.08 C 24.26 32.07 23.90 28.02 24.00 24.00 C 22.66 24.00 21.33 24.00 19.99 24.00 M 28.00 23.93 C 28.00 29.29 28.00 34.64 28.00 40.00 C 29.33 40.00 30.67 40.00 32.00 40.00 C 32.00 38.77 31.99 37.54 31.99 36.31 C 36.03 35.70 39.49 31.46 37.41 27.44 C 35.83 23.71 31.37 23.89 28.00 23.93 M 40.06 28.80 C 39.98 31.68 39.54 34.79 40.68 37.50 C 42.54 40.84 46.85 39.86 50.00 40.03 C 50.00 37.35 50.00 34.68 50.00 32.00 C 48.67 32.00 47.33 32.00 46.00 32.00 C 46.00 33.49 46.00 34.97 45.99 36.46 C 44.73 36.09 44.07 35.29 44.01 34.08 C 43.98 31.93 43.40 29.38 45.06 27.67 C 45.58 30.45 48.14 30.06 50.29 30.10 C 49.82 28.15 49.56 25.73 47.56 24.71 C 44.53 22.68 39.95 25.14 40.06 28.80 M 12.00 44.00 C 12.00 48.67 12.00 53.33 12.00 58.00 C 25.33 58.00 38.67 58.00 52.00 58.00 C 52.00 53.33 52.00 48.67 52.00 44.00 C 50.67 44.00 49.33 44.00 48.00 44.00 C 48.00 47.33 48.00 50.67 48.00 54.00 C 37.33 54.00 26.67 54.00 16.00 54.00 C 16.00 50.67 16.00 47.33 16.00 44.00 C 14.67 44.00 13.33 44.00 12.00 44.00 Z" />
<path fill="#ffffff" opacity="1.00" d=" M 32.26 28.35 C 34.14 27.40 34.51 31.57 32.78 31.90 C 31.43 31.41 31.57 29.34 32.26 28.35 Z" />
</g>
<g id="#000000ff">
<path fill="#000000" opacity="1.00" d=" M 12.00 6.00 C 25.33 6.00 38.67 6.00 52.00 6.00 C 52.00 10.67 52.00 15.33 52.00 20.00 C 50.67 20.00 49.33 20.00 48.00 20.00 C 48.00 16.67 48.00 13.33 48.00 10.00 C 37.33 10.00 26.67 10.00 16.00 10.00 C 16.00 13.33 16.00 16.67 16.00 20.00 C 14.67 20.00 13.33 20.00 12.00 20.00 C 12.00 15.33 12.00 10.67 12.00 6.00 Z" />
<path fill="#000000" opacity="1.00" d=" M 19.99 24.00 C 21.33 24.00 22.66 24.00 24.00 24.00 C 23.90 28.02 24.26 32.07 23.81 36.08 C 23.34 39.32 19.13 41.10 16.42 39.27 C 14.42 38.25 14.17 35.84 13.71 33.90 C 15.87 33.94 18.42 33.57 18.96 36.35 C 21.25 32.76 19.45 28.04 19.99 24.00 Z" />
<path fill="#000000" opacity="1.00" d=" M 28.00 23.93 C 31.37 23.89 35.83 23.71 37.41 27.44 C 39.49 31.46 36.03 35.70 31.99 36.31 C 31.99 37.54 32.00 38.77 32.00 40.00 C 30.67 40.00 29.33 40.00 28.00 40.00 C 28.00 34.64 28.00 29.29 28.00 23.93 M 32.26 28.35 C 31.57 29.34 31.43 31.41 32.78 31.90 C 34.51 31.57 34.14 27.40 32.26 28.35 Z" />
<path fill="#000000" opacity="1.00" d=" M 40.06 28.80 C 39.95 25.14 44.53 22.68 47.56 24.71 C 49.56 25.73 49.82 28.15 50.29 30.10 C 48.14 30.06 45.58 30.45 45.06 27.67 C 43.40 29.38 43.98 31.93 44.01 34.08 C 44.07 35.29 44.73 36.09 45.99 36.46 C 46.00 34.97 46.00 33.49 46.00 32.00 C 47.33 32.00 48.67 32.00 50.00 32.00 C 50.00 34.68 50.00 37.35 50.00 40.03 C 46.85 39.86 42.54 40.84 40.68 37.50 C 39.54 34.79 39.98 31.68 40.06 28.80 Z" />
<path fill="#000000" opacity="1.00" d=" M 12.00 44.00 C 13.33 44.00 14.67 44.00 16.00 44.00 C 16.00 47.33 16.00 50.67 16.00 54.00 C 26.67 54.00 37.33 54.00 48.00 54.00 C 48.00 50.67 48.00 47.33 48.00 44.00 C 49.33 44.00 50.67 44.00 52.00 44.00 C 52.00 48.67 52.00 53.33 52.00 58.00 C 38.67 58.00 25.33 58.00 12.00 58.00 C 12.00 53.33 12.00 48.67 12.00 44.00 Z" />
</g>
</svg>
