<?xml version="1.0" encoding="UTF-8" ?>
<!DOCTYPE svg PUBLIC "-//W3C//DTD SVG 1.1//EN" "http://www.w3.org/Graphics/SVG/1.1/DTD/svg11.dtd">
<svg width="60pt" height="60pt" viewBox="0 0 60 60" version="1.1" xmlns="http://www.w3.org/2000/svg">
<g id="#ffffffff">
<path fill="#ffffff" opacity="1.00" d=" M 0.00 0.00 L 60.00 0.00 L 60.00 10.90 C 59.50 10.65 58.50 10.15 57.99 9.90 C 54.04 11.82 50.32 14.25 46.62 16.61 C 45.13 18.78 47.34 21.65 47.48 24.01 C 45.28 22.92 43.08 21.84 40.86 20.79 C 39.78 17.63 38.97 14.38 37.78 11.26 C 37.29 9.11 33.72 9.90 34.05 12.04 C 34.66 16.31 35.29 20.59 36.21 24.81 C 38.15 26.98 41.32 27.66 43.73 29.27 C 42.49 30.53 41.24 31.78 39.98 33.02 C 32.81 27.34 25.00 22.58 16.87 18.43 C 14.68 17.36 11.86 18.41 10.70 20.50 C 8.74 23.64 6.88 26.83 4.98 30.00 C 2.68 33.79 5.68 38.00 6.31 41.88 C 4.23 45.11 2.04 48.27 0.00 51.52 L 0.00 0.00 M 18.45 6.70 C 15.22 8.43 15.24 13.60 18.48 15.31 C 21.60 17.37 26.11 14.69 26.01 11.03 C 26.16 7.32 21.59 4.60 18.45 6.70 Z" />
<path fill="#ffffff" opacity="1.00" d=" M 51.91 19.43 C 54.60 17.21 57.35 15.08 60.00 12.83 L 60.00 60.00 L 0.00 60.00 L 0.00 52.98 C 0.50 53.29 1.49 53.90 1.99 54.21 C 5.63 51.78 7.66 47.61 10.63 44.45 C 12.53 42.83 11.88 40.28 11.76 38.11 C 13.42 39.85 15.26 41.41 16.84 43.23 C 18.44 46.47 18.94 50.16 20.53 53.43 C 21.63 54.86 24.31 53.79 23.95 51.97 C 23.35 48.38 22.72 44.77 21.78 41.25 C 19.80 38.14 17.35 35.37 15.21 32.37 C 16.62 30.01 18.03 27.65 19.44 25.29 C 22.47 26.98 25.74 28.28 28.54 30.35 C 32.40 33.82 36.12 37.45 39.98 40.92 C 41.79 42.50 44.75 42.29 46.42 40.59 C 48.86 38.31 51.14 35.87 53.54 33.54 C 55.10 32.15 56.51 30.11 55.86 27.91 C 54.81 24.96 53.18 22.28 51.91 19.43 M 30.42 40.72 C 27.22 42.47 27.25 47.61 30.48 49.31 C 33.60 51.38 38.13 48.68 38.01 45.01 C 38.16 41.30 33.54 38.58 30.42 40.72 Z" />
</g>
<g id="#000000ff">
<path fill="#000000" opacity="1.00" d=" M 18.45 6.70 C 21.59 4.60 26.16 7.32 26.01 11.03 C 26.11 14.69 21.60 17.37 18.48 15.31 C 15.24 13.60 15.22 8.43 18.45 6.70 Z" />
<path fill="#000000" opacity="1.00" d=" M 34.05 12.04 C 33.72 9.90 37.29 9.11 37.78 11.26 C 38.97 14.38 39.78 17.63 40.86 20.79 C 43.08 21.84 45.28 22.92 47.48 24.01 C 47.34 21.65 45.13 18.78 46.62 16.61 C 50.32 14.25 54.04 11.82 57.99 9.90 C 58.50 10.15 59.50 10.65 60.00 10.90 L 60.00 12.83 C 57.35 15.08 54.60 17.21 51.91 19.43 C 53.18 22.28 54.81 24.96 55.86 27.91 C 56.51 30.11 55.10 32.15 53.54 33.54 C 51.14 35.87 48.86 38.31 46.42 40.59 C 44.75 42.29 41.79 42.50 39.98 40.92 C 36.12 37.45 32.40 33.82 28.54 30.35 C 25.74 28.28 22.47 26.98 19.44 25.29 C 18.03 27.65 16.62 30.01 15.21 32.37 C 17.35 35.37 19.80 38.14 21.78 41.25 C 22.72 44.77 23.35 48.38 23.95 51.97 C 24.31 53.79 21.63 54.86 20.53 53.43 C 18.94 50.16 18.44 46.47 16.84 43.23 C 15.26 41.41 13.42 39.85 11.76 38.11 C 11.88 40.28 12.53 42.83 10.63 44.45 C 7.66 47.61 5.63 51.78 1.99 54.21 C 1.49 53.90 0.50 53.29 0.00 52.98 L 0.00 51.52 C 2.04 48.27 4.23 45.11 6.31 41.88 C 5.68 38.00 2.68 33.79 4.98 30.00 C 6.88 26.83 8.74 23.64 10.70 20.50 C 11.86 18.41 14.68 17.36 16.87 18.43 C 25.00 22.58 32.81 27.34 39.98 33.02 C 41.24 31.78 42.49 30.53 43.73 29.27 C 41.32 27.66 38.15 26.98 36.21 24.81 C 35.29 20.59 34.66 16.31 34.05 12.04 Z" />
<path fill="#000000" opacity="1.00" d=" M 30.42 40.72 C 33.54 38.58 38.16 41.30 38.01 45.01 C 38.13 48.68 33.60 51.38 30.48 49.31 C 27.25 47.61 27.22 42.47 30.42 40.72 Z" />
</g>
</svg>
