<?xml version="1.0" encoding="UTF-8" ?>
<!DOCTYPE svg PUBLIC "-//W3C//DTD SVG 1.1//EN" "http://www.w3.org/Graphics/SVG/1.1/DTD/svg11.dtd">
<svg width="60pt" height="60pt" viewBox="0 0 60 60" version="1.1" xmlns="http://www.w3.org/2000/svg">
<g id="#ffffffff">
<path fill="#ffffff" opacity="1.00" d=" M 0.00 0.00 L 60.00 0.00 L 60.00 60.00 L 0.00 60.00 L 0.00 0.00 M 12.69 7.77 C 11.40 10.12 12.03 13.01 12.40 15.53 C 10.77 17.97 9.26 20.52 8.22 23.28 C 7.32 24.71 9.19 25.64 9.96 26.52 C 10.11 33.07 9.88 39.62 10.05 46.17 C 9.99 49.27 12.81 52.03 15.91 51.95 C 25.30 52.04 34.70 52.04 44.10 51.95 C 47.22 52.03 50.03 49.24 49.95 46.11 C 50.12 39.58 49.89 33.05 50.04 26.52 C 50.79 25.64 52.67 24.72 51.79 23.30 C 50.75 20.52 49.24 17.97 47.59 15.52 C 48.20 12.38 48.99 7.35 44.99 6.14 C 36.34 5.78 27.67 6.13 19.01 5.98 C 16.84 6.04 14.03 5.60 12.69 7.77 Z" />
<path fill="#ffffff" opacity="1.00" d=" M 16.00 10.00 C 25.33 10.00 34.67 10.00 44.00 10.00 C 44.00 11.33 44.00 12.67 44.00 14.00 C 37.99 14.08 31.98 13.86 25.98 14.08 C 23.91 13.85 23.24 17.06 25.13 17.79 C 31.40 18.40 37.74 17.66 44.03 18.12 C 45.98 18.99 46.33 21.64 47.41 23.33 C 44.14 24.68 40.97 23.33 37.95 22.05 C 33.63 23.75 28.73 24.87 24.31 22.78 C 22.16 21.32 20.06 22.87 17.99 23.63 C 16.22 24.36 14.36 23.64 12.59 23.33 C 13.41 21.67 14.10 19.90 15.24 18.42 C 16.75 17.72 20.08 18.43 19.93 15.98 C 20.17 13.84 17.37 14.09 16.00 13.86 C 16.00 12.57 16.00 11.28 16.00 10.00 Z" />
<path fill="#ffffff" opacity="1.00" d=" M 19.14 32.10 C 21.54 31.08 23.17 34.81 20.80 35.87 C 18.39 36.87 16.89 33.21 19.14 32.10 Z" />
<path fill="#ffffff" opacity="1.00" d=" M 39.21 32.15 C 41.58 31.08 43.16 34.88 40.82 35.87 C 38.42 36.91 36.80 33.12 39.21 32.15 Z" />
<path fill="#ffffff" opacity="1.00" d=" M 25.75 36.04 C 28.58 35.98 31.42 35.99 34.26 36.04 C 33.61 37.93 32.29 40.13 29.99 39.98 C 27.70 40.11 26.32 37.97 25.75 36.04 Z" />
</g>
<g id="#000000ff">
<path fill="#000000" opacity="1.00" d=" M 12.69 7.77 C 14.03 5.60 16.84 6.04 19.01 5.98 C 27.67 6.13 36.34 5.78 44.99 6.14 C 48.99 7.35 48.20 12.38 47.59 15.52 C 49.24 17.97 50.75 20.52 51.79 23.30 C 52.67 24.72 50.79 25.64 50.04 26.52 C 49.89 33.05 50.12 39.58 49.95 46.11 C 50.03 49.24 47.22 52.03 44.10 51.95 C 34.70 52.04 25.30 52.04 15.91 51.95 C 12.81 52.03 9.99 49.27 10.05 46.17 C 9.88 39.62 10.11 33.07 9.96 26.52 C 9.19 25.64 7.32 24.71 8.22 23.28 C 9.26 20.52 10.77 17.97 12.40 15.53 C 12.03 13.01 11.40 10.12 12.69 7.77 M 16.00 10.00 C 16.00 11.28 16.00 12.57 16.00 13.86 C 17.37 14.09 20.17 13.84 19.93 15.98 C 20.08 18.43 16.75 17.72 15.24 18.42 C 14.10 19.90 13.41 21.67 12.59 23.33 C 14.36 23.64 16.22 24.36 17.99 23.63 C 20.06 22.87 22.16 21.32 24.31 22.78 C 28.73 24.87 33.63 23.75 37.95 22.05 C 40.97 23.33 44.14 24.68 47.41 23.33 C 46.33 21.64 45.98 18.99 44.03 18.12 C 37.74 17.66 31.40 18.40 25.13 17.79 C 23.24 17.06 23.91 13.85 25.98 14.08 C 31.98 13.86 37.99 14.08 44.00 14.00 C 44.00 12.67 44.00 11.33 44.00 10.00 C 34.67 10.00 25.33 10.00 16.00 10.00 M 19.14 32.10 C 16.89 33.21 18.39 36.87 20.80 35.87 C 23.17 34.81 21.54 31.08 19.14 32.10 M 39.21 32.15 C 36.80 33.12 38.42 36.91 40.82 35.87 C 43.16 34.88 41.58 31.08 39.21 32.15 M 25.75 36.04 C 26.32 37.97 27.70 40.11 29.99 39.98 C 32.29 40.13 33.61 37.93 34.26 36.04 C 31.42 35.99 28.58 35.98 25.75 36.04 Z" />
</g>
</svg>
