<?xml version="1.0" encoding="UTF-8" ?>
<!DOCTYPE svg PUBLIC "-//W3C//DTD SVG 1.1//EN" "http://www.w3.org/Graphics/SVG/1.1/DTD/svg11.dtd">
<svg width="60pt" height="60pt" viewBox="0 0 60 60" version="1.1" xmlns="http://www.w3.org/2000/svg">
<g id="#ffffffff">
<path fill="#ffffff" opacity="1.00" d=" M 0.00 0.00 L 60.00 0.00 L 60.00 60.00 L 0.00 60.00 L 0.00 0.00 M 28.00 8.14 C 28.01 9.78 28.01 11.43 27.99 13.07 C 36.00 12.58 44.05 12.56 52.04 11.78 C 55.03 10.91 54.27 5.85 51.08 6.09 C 43.37 6.56 35.70 7.51 28.00 8.14 M 21.07 7.06 C 20.84 7.34 20.38 7.90 20.15 8.18 C 19.87 12.80 19.94 17.46 20.09 22.08 C 19.91 24.14 23.12 24.73 23.80 22.83 C 24.21 18.20 24.01 13.53 23.92 8.89 C 24.05 7.34 22.36 6.67 21.07 7.06 M 11.69 9.60 C 9.74 10.12 6.29 9.23 5.96 12.03 C 6.40 14.98 9.99 13.70 12.00 13.84 C 12.00 15.15 12.00 16.46 12.00 17.77 C 9.97 18.20 6.34 17.09 5.96 20.02 C 6.40 22.94 9.97 21.75 12.00 22.04 C 11.99 24.69 12.01 27.35 12.00 30.00 C 13.33 30.00 14.67 30.00 16.00 30.00 C 15.87 23.04 16.25 16.06 15.83 9.12 C 14.88 7.19 12.55 8.13 11.69 9.60 M 28.00 17.07 C 28.01 18.71 28.01 20.36 27.99 22.00 C 34.99 22.00 41.99 21.99 48.99 22.02 C 50.51 21.92 52.52 22.21 53.46 20.69 C 54.82 18.91 53.38 15.92 51.09 16.09 C 43.39 16.21 35.70 16.80 28.00 17.07 M 6.11 35.07 C 5.55 36.65 6.80 37.54 7.93 38.34 C 7.74 42.83 8.29 47.86 12.00 50.92 C 16.90 55.43 23.98 53.66 30.00 54.00 C 36.00 53.65 43.08 55.43 47.97 50.92 C 51.69 47.82 52.27 42.72 52.01 38.19 C 52.52 37.88 53.55 37.27 54.07 36.97 C 53.98 35.77 53.67 33.88 52.02 34.08 C 38.35 33.86 24.66 34.10 10.99 33.97 C 9.35 34.14 7.27 33.55 6.11 35.07 Z" />
<path fill="#ffffff" opacity="1.00" d=" M 19.10 40.11 C 21.54 39.10 23.16 42.75 20.83 43.89 C 18.42 44.87 16.92 41.32 19.10 40.11 Z" />
<path fill="#ffffff" opacity="1.00" d=" M 39.13 40.12 C 41.56 39.10 43.15 42.77 40.82 43.89 C 38.41 44.84 36.88 41.27 39.13 40.12 Z" />
<path fill="#ffffff" opacity="1.00" d=" M 25.76 44.03 C 28.59 43.98 31.42 43.99 34.25 44.04 C 33.62 45.93 32.32 48.09 30.04 47.99 C 27.72 48.13 26.32 46.00 25.76 44.03 Z" />
</g>
<g id="#000000ff">
<path fill="#000000" opacity="1.00" d=" M 28.00 8.14 C 35.70 7.51 43.37 6.56 51.08 6.09 C 54.27 5.85 55.03 10.91 52.04 11.78 C 44.05 12.56 36.00 12.58 27.99 13.07 C 28.01 11.43 28.01 9.78 28.00 8.14 Z" />
<path fill="#000000" opacity="1.00" d=" M 21.07 7.06 C 22.36 6.67 24.05 7.34 23.92 8.89 C 24.01 13.53 24.21 18.20 23.80 22.83 C 23.12 24.73 19.91 24.14 20.09 22.08 C 19.94 17.46 19.87 12.80 20.15 8.18 C 20.38 7.90 20.84 7.34 21.07 7.06 Z" />
<path fill="#000000" opacity="1.00" d=" M 11.69 9.60 C 12.55 8.13 14.88 7.19 15.83 9.12 C 16.25 16.06 15.87 23.04 16.00 30.00 C 14.67 30.00 13.33 30.00 12.00 30.00 C 12.01 27.35 11.99 24.69 12.00 22.04 C 9.97 21.75 6.40 22.94 5.96 20.02 C 6.34 17.09 9.97 18.20 12.00 17.77 C 12.00 16.46 12.00 15.15 12.00 13.84 C 9.99 13.70 6.40 14.98 5.96 12.03 C 6.29 9.23 9.74 10.12 11.69 9.60 Z" />
<path fill="#000000" opacity="1.00" d=" M 28.00 17.07 C 35.70 16.80 43.39 16.21 51.09 16.09 C 53.38 15.92 54.82 18.91 53.46 20.69 C 52.52 22.21 50.51 21.92 48.99 22.02 C 41.99 21.99 34.99 22.00 27.99 22.00 C 28.01 20.36 28.01 18.71 28.00 17.07 Z" />
<path fill="#000000" opacity="1.00" d=" M 6.11 35.07 C 7.27 33.55 9.35 34.14 10.99 33.97 C 24.66 34.10 38.35 33.86 52.02 34.08 C 53.67 33.88 53.98 35.77 54.07 36.97 C 53.55 37.27 52.52 37.88 52.01 38.19 C 52.27 42.72 51.69 47.82 47.97 50.92 C 43.08 55.43 36.00 53.65 30.00 54.00 C 23.98 53.66 16.90 55.43 12.00 50.92 C 8.29 47.86 7.74 42.83 7.93 38.34 C 6.80 37.54 5.55 36.65 6.11 35.07 M 19.10 40.11 C 16.92 41.32 18.42 44.87 20.83 43.89 C 23.16 42.75 21.54 39.10 19.10 40.11 M 39.13 40.12 C 36.88 41.27 38.41 44.84 40.82 43.89 C 43.15 42.77 41.56 39.10 39.13 40.12 M 25.76 44.03 C 26.32 46.00 27.72 48.13 30.04 47.99 C 32.32 48.09 33.62 45.93 34.25 44.04 C 31.42 43.99 28.59 43.98 25.76 44.03 Z" />
</g>
</svg>
