<?xml version="1.0" encoding="UTF-8" ?>
<!DOCTYPE svg PUBLIC "-//W3C//DTD SVG 1.1//EN" "http://www.w3.org/Graphics/SVG/1.1/DTD/svg11.dtd">
<svg width="60pt" height="60pt" viewBox="0 0 60 60" version="1.1" xmlns="http://www.w3.org/2000/svg">
<g id="#ffffffff">
<path fill="#ffffff" opacity="1.00" d=" M 0.00 0.00 L 60.00 0.00 L 60.00 60.00 L 0.00 60.00 L 0.00 0.00 M 25.45 4.66 C 18.93 6.61 13.93 13.00 14.02 19.88 C 14.00 26.62 13.93 33.36 14.05 40.10 C 13.94 42.60 16.52 44.29 18.84 44.00 C 26.58 43.98 34.32 44.07 42.05 43.95 C 44.60 44.07 46.32 41.50 46.00 39.13 C 45.92 32.05 46.21 24.96 45.83 17.88 C 44.87 8.51 34.45 1.65 25.45 4.66 M 26.00 48.00 C 26.02 50.30 25.86 52.62 26.14 54.92 C 26.64 57.86 30.83 59.08 32.81 56.79 C 34.89 54.39 33.70 50.89 34.01 48.00 C 31.34 48.00 28.67 48.00 26.00 48.00 Z" />
<path fill="#ffffff" opacity="1.00" d=" M 21.33 24.40 C 23.56 23.50 25.19 27.26 22.82 28.05 C 20.55 29.53 18.67 25.21 21.33 24.40 Z" />
<path fill="#ffffff" opacity="1.00" d=" M 37.31 24.40 C 40.44 23.68 40.69 27.97 37.97 28.77 C 36.24 27.89 35.02 25.43 37.31 24.40 Z" />
<path fill="#ffffff" opacity="1.00" d=" M 25.67 30.06 C 28.56 29.98 31.45 29.97 34.34 30.06 C 33.51 31.88 32.34 34.15 29.98 33.99 C 27.65 34.11 26.42 31.91 25.67 30.06 Z" />
</g>
<g id="#000000ff">
<path fill="#968176" opacity="1.00" d=" M 25.45 4.66 C 34.45 1.65 44.87 8.51 45.83 17.88 C 46.21 24.96 45.92 32.05 46.00 39.13 C 46.32 41.50 44.60 44.07 42.05 43.95 C 34.32 44.07 26.58 43.98 18.84 44.00 C 16.52 44.29 13.94 42.60 14.05 40.10 C 13.93 33.36 14.00 26.62 14.02 19.88 C 13.93 13.00 18.93 6.61 25.45 4.66 M 21.33 24.40 C 18.67 25.21 20.55 29.53 22.82 28.05 C 25.19 27.26 23.56 23.50 21.33 24.40 M 37.31 24.40 C 35.02 25.43 36.24 27.89 37.97 28.77 C 40.69 27.97 40.44 23.68 37.31 24.40 M 25.67 30.06 C 26.42 31.91 27.65 34.11 29.98 33.99 C 32.34 34.15 33.51 31.88 34.34 30.06 C 31.45 29.97 28.56 29.98 25.67 30.06 Z" />
<path fill="#968176" opacity="1.00" d=" M 26.00 48.00 C 28.67 48.00 31.34 48.00 34.01 48.00 C 33.70 50.89 34.89 54.39 32.81 56.79 C 30.83 59.08 26.64 57.86 26.14 54.92 C 25.86 52.62 26.02 50.30 26.00 48.00 Z" />
</g>
</svg>
