<?xml version="1.0" encoding="UTF-8" ?>
<!DOCTYPE svg PUBLIC "-//W3C//DTD SVG 1.1//EN" "http://www.w3.org/Graphics/SVG/1.1/DTD/svg11.dtd">
<svg width="60pt" height="60pt" viewBox="0 0 60 60" version="1.1" xmlns="http://www.w3.org/2000/svg">
<g id="#ffffffff">
<path fill="#ffffff" opacity="1.00" d=" M 0.00 0.00 L 60.00 0.00 L 60.00 60.00 L 0.00 60.00 L 0.00 0.00 M 20.01 6.04 C 17.86 6.01 18.04 8.50 17.86 9.97 C 16.27 10.01 14.66 9.94 13.08 10.18 C 11.27 11.51 12.28 14.10 11.95 16.00 C 23.98 16.00 36.02 16.00 48.05 16.00 C 48.00 14.38 48.05 12.75 47.82 11.14 C 46.58 9.24 43.93 10.28 42.04 9.96 C 42.00 8.33 42.06 6.69 41.80 5.07 C 41.01 3.63 39.27 4.16 37.94 4.18 C 31.97 4.85 25.97 5.30 20.01 6.04 M 14.00 20.00 C 15.19 29.97 16.31 39.95 17.54 49.91 C 17.60 52.19 19.55 54.16 21.89 53.96 C 27.31 54.04 32.74 54.04 38.16 53.96 C 40.47 54.14 42.38 52.18 42.46 49.94 C 43.69 39.97 44.80 29.98 46.00 20.00 C 35.33 20.00 24.67 20.00 14.00 20.00 Z" />
<path fill="#ffffff" opacity="1.00" d=" M 21.42 32.38 C 23.66 31.67 25.07 35.12 22.89 36.11 C 20.36 37.45 18.73 33.09 21.42 32.38 Z" />
<path fill="#ffffff" opacity="1.00" d=" M 37.43 32.39 C 38.80 31.92 40.55 33.46 39.86 34.86 C 39.53 36.44 37.39 36.86 36.41 35.54 C 35.53 34.53 36.11 32.72 37.43 32.39 Z" />
<path fill="#ffffff" opacity="1.00" d=" M 25.72 38.04 C 28.57 37.98 31.43 37.98 34.29 38.04 C 33.57 39.90 32.33 42.12 30.01 41.99 C 27.69 42.12 26.36 39.95 25.72 38.04 Z" />
</g>
<g id="#000000ff">
<path fill="#000000" opacity="1.00" d=" M 20.01 6.04 C 25.97 5.30 31.97 4.85 37.94 4.18 C 39.27 4.16 41.01 3.63 41.80 5.07 C 42.06 6.69 42.00 8.33 42.04 9.96 C 43.93 10.28 46.58 9.24 47.82 11.14 C 48.05 12.75 48.00 14.38 48.05 16.00 C 36.02 16.00 23.98 16.00 11.95 16.00 C 12.28 14.10 11.27 11.51 13.08 10.18 C 14.66 9.94 16.27 10.01 17.86 9.97 C 18.04 8.50 17.86 6.01 20.01 6.04 Z" />
<path fill="#000000" opacity="1.00" d=" M 14.00 20.00 C 24.67 20.00 35.33 20.00 46.00 20.00 C 44.80 29.98 43.69 39.97 42.46 49.94 C 42.38 52.18 40.47 54.14 38.16 53.96 C 32.74 54.04 27.31 54.04 21.89 53.96 C 19.55 54.16 17.60 52.19 17.54 49.91 C 16.31 39.95 15.19 29.97 14.00 20.00 M 21.42 32.38 C 18.73 33.09 20.36 37.45 22.89 36.11 C 25.07 35.12 23.66 31.67 21.42 32.38 M 37.43 32.39 C 36.11 32.72 35.53 34.53 36.41 35.54 C 37.39 36.86 39.53 36.44 39.86 34.86 C 40.55 33.46 38.80 31.92 37.43 32.39 M 25.72 38.04 C 26.36 39.95 27.69 42.12 30.01 41.99 C 32.33 42.12 33.57 39.90 34.29 38.04 C 31.43 37.98 28.57 37.98 25.72 38.04 Z" />
</g>
</svg>
