<?xml version="1.0" encoding="UTF-8" ?>
<!DOCTYPE svg PUBLIC "-//W3C//DTD SVG 1.1//EN" "http://www.w3.org/Graphics/SVG/1.1/DTD/svg11.dtd">
<svg width="60pt" height="60pt" viewBox="0 0 60 60" version="1.1" xmlns="http://www.w3.org/2000/svg">
<g id="#ffffffff">
<path fill="#ffffff" opacity="1.00" d=" M 0.00 0.00 L 60.00 0.00 L 60.00 60.00 L 0.00 60.00 L 0.00 0.00 M 26.45 6.78 C 22.55 8.48 19.70 11.90 17.53 15.45 C 13.68 21.94 11.80 29.57 12.06 37.10 C 12.35 44.13 17.29 50.63 23.92 52.93 C 30.08 55.22 37.41 53.72 42.19 49.22 C 46.12 45.64 48.25 40.28 47.98 34.99 C 47.66 26.10 44.79 16.94 38.59 10.38 C 35.60 7.15 30.78 4.72 26.45 6.78 Z" />
<path fill="#ffffff" opacity="1.00" d=" M 19.20 30.19 C 21.46 28.98 23.24 32.89 20.83 33.79 C 18.56 35.09 16.72 31.05 19.20 30.19 Z" />
<path fill="#ffffff" opacity="1.00" d=" M 39.20 30.18 C 41.49 28.95 43.26 32.99 40.77 33.81 C 38.52 35.04 36.75 31.03 39.20 30.18 Z" />
<path fill="#ffffff" opacity="1.00" d=" M 25.75 34.04 C 28.58 33.98 31.42 33.99 34.25 34.04 C 33.61 35.92 32.33 38.10 30.04 37.99 C 27.71 38.13 26.33 36.00 25.75 34.04 Z" />
</g>
<g id="#000000ff">
<path fill="#000000" opacity="1.00" d=" M 26.45 6.78 C 30.78 4.72 35.60 7.15 38.59 10.38 C 44.79 16.94 47.66 26.10 47.98 34.99 C 48.25 40.28 46.12 45.64 42.19 49.22 C 37.41 53.72 30.08 55.22 23.92 52.93 C 17.29 50.63 12.35 44.13 12.06 37.10 C 11.80 29.57 13.68 21.94 17.53 15.45 C 19.70 11.90 22.55 8.48 26.45 6.78 M 19.20 30.19 C 16.72 31.05 18.56 35.09 20.83 33.79 C 23.24 32.89 21.46 28.98 19.20 30.19 M 39.20 30.18 C 36.75 31.03 38.52 35.04 40.77 33.81 C 43.26 32.99 41.49 28.95 39.20 30.18 M 25.75 34.04 C 26.33 36.00 27.71 38.13 30.04 37.99 C 32.33 38.10 33.61 35.92 34.25 34.04 C 31.42 33.99 28.58 33.98 25.75 34.04 Z" />
</g>
</svg>
