<?xml version="1.0" encoding="UTF-8" ?>
<!DOCTYPE svg PUBLIC "-//W3C//DTD SVG 1.1//EN" "http://www.w3.org/Graphics/SVG/1.1/DTD/svg11.dtd">
<svg width="60pt" height="60pt" viewBox="0 0 60 60" version="1.1" xmlns="http://www.w3.org/2000/svg">
<g id="#ffffffff">
<path fill="#ffffff" opacity="1.00" d=" M 0.00 0.00 L 60.00 0.00 L 60.00 60.00 L 0.00 60.00 L 0.00 0.00 M 8.58 10.58 C 5.40 12.37 5.35 16.88 7.96 19.18 C 8.09 28.80 7.90 38.42 8.04 48.03 C 7.96 50.54 10.55 52.35 12.91 52.00 C 24.64 51.97 36.38 52.07 48.11 51.95 C 50.18 52.02 52.04 50.11 51.95 48.04 C 52.10 38.21 51.90 28.38 52.04 18.55 C 53.06 17.31 54.42 15.93 53.93 14.16 C 53.30 11.00 49.88 9.68 47.11 8.95 C 40.19 7.40 33.04 8.18 26.01 8.01 C 20.18 8.25 13.88 7.72 8.58 10.58 Z" />
<path fill="#ffffff" opacity="1.00" d=" M 14.51 12.71 C 20.32 11.82 26.23 12.00 32.08 12.14 C 36.93 12.39 42.03 12.53 46.39 14.91 C 45.60 15.61 44.84 16.34 44.11 17.10 C 43.86 27.40 44.07 37.70 44.00 48.00 C 33.33 48.00 22.67 48.00 12.00 48.00 C 11.91 37.69 12.18 27.38 11.86 17.08 C 11.11 16.46 10.45 15.77 9.86 15.02 C 10.68 13.31 12.89 13.16 14.51 12.71 M 17.09 28.11 C 14.87 29.27 16.51 32.99 18.83 31.80 C 21.25 30.78 19.44 27.04 17.09 28.11 M 37.14 28.11 C 34.91 29.22 36.36 32.80 38.76 31.90 C 41.18 30.87 39.60 27.11 37.14 28.11 M 23.77 32.03 C 24.29 34.01 25.74 36.13 28.04 35.98 C 30.31 36.09 31.65 33.94 32.23 32.04 C 29.41 31.99 26.59 31.98 23.77 32.03 Z" />
</g>
<g id="#000000ff">
<path fill="#000000" opacity="1.00" d=" M 8.58 10.58 C 13.88 7.72 20.18 8.25 26.01 8.01 C 33.04 8.18 40.19 7.40 47.11 8.95 C 49.88 9.68 53.30 11.00 53.93 14.16 C 54.42 15.93 53.06 17.31 52.04 18.55 C 51.90 28.38 52.10 38.21 51.95 48.04 C 52.04 50.11 50.18 52.02 48.11 51.95 C 36.38 52.07 24.64 51.97 12.91 52.00 C 10.55 52.35 7.96 50.54 8.04 48.03 C 7.90 38.42 8.09 28.80 7.96 19.18 C 5.35 16.88 5.40 12.37 8.58 10.58 M 14.51 12.71 C 12.89 13.16 10.68 13.31 9.86 15.02 C 10.45 15.77 11.11 16.46 11.86 17.08 C 12.18 27.38 11.91 37.69 12.00 48.00 C 22.67 48.00 33.33 48.00 44.00 48.00 C 44.07 37.70 43.86 27.40 44.11 17.10 C 44.84 16.34 45.60 15.61 46.39 14.91 C 42.03 12.53 36.93 12.39 32.08 12.14 C 26.23 12.00 20.32 11.82 14.51 12.71 Z" />
<path fill="#000000" opacity="1.00" d=" M 17.09 28.11 C 19.44 27.04 21.25 30.78 18.83 31.80 C 16.51 32.99 14.87 29.27 17.09 28.11 Z" />
<path fill="#000000" opacity="1.00" d=" M 37.14 28.11 C 39.60 27.11 41.18 30.87 38.76 31.90 C 36.36 32.80 34.91 29.22 37.14 28.11 Z" />
<path fill="#000000" opacity="1.00" d=" M 23.77 32.03 C 26.59 31.98 29.41 31.99 32.23 32.04 C 31.65 33.94 30.31 36.09 28.04 35.98 C 25.74 36.13 24.29 34.01 23.77 32.03 Z" />
</g>
</svg>
