<?xml version="1.0" encoding="UTF-8" ?>
<!DOCTYPE svg PUBLIC "-//W3C//DTD SVG 1.1//EN" "http://www.w3.org/Graphics/SVG/1.1/DTD/svg11.dtd">
<svg width="60pt" height="60pt" viewBox="0 0 60 60" version="1.1" xmlns="http://www.w3.org/2000/svg">
<g id="#ffffffff">
<path fill="#ffffff" opacity="1.00" d=" M 0.00 0.00 L 60.00 0.00 L 60.00 60.00 L 0.00 60.00 L 0.00 0.00 M 20.56 6.79 C 16.17 7.59 11.74 8.68 7.75 10.72 C 4.93 12.50 5.88 16.75 8.74 17.96 C 14.71 29.12 20.43 40.42 26.34 51.60 C 27.57 54.67 32.45 54.62 33.68 51.57 C 39.43 40.63 45.09 29.64 50.83 18.69 C 51.35 17.34 53.11 17.08 53.60 15.69 C 54.60 13.77 53.60 11.19 51.62 10.35 C 41.91 6.15 30.96 5.12 20.56 6.79 Z" />
<path fill="#ffffff" opacity="1.00" d=" M 12.86 17.09 C 23.77 12.96 36.22 12.97 47.13 17.09 C 43.92 23.34 40.61 29.53 37.44 35.80 C 33.25 35.71 30.35 40.72 33.05 44.11 C 32.04 46.05 31.12 48.05 29.95 49.91 C 28.40 46.89 26.78 43.91 25.29 40.87 C 27.42 37.07 24.58 32.51 20.52 31.85 C 18.00 26.92 15.41 22.02 12.86 17.09 M 21.24 20.15 C 18.80 21.06 20.40 24.91 22.81 23.88 C 25.14 22.89 23.60 19.09 21.24 20.15 M 37.11 20.12 C 34.87 21.25 36.47 24.92 38.81 23.84 C 41.23 22.80 39.49 19.06 37.11 20.12 M 25.89 24.02 C 26.09 26.09 27.82 28.08 30.00 27.97 C 32.19 28.09 33.83 26.05 34.11 24.02 C 31.37 23.99 28.63 23.99 25.89 24.02 Z" />
</g>
<g id="#000000ff">
<path fill="#968176" opacity="1.00" d=" M 20.56 6.79 C 30.96 5.12 41.91 6.15 51.62 10.35 C 53.60 11.19 54.60 13.77 53.60 15.69 C 53.11 17.08 51.35 17.34 50.83 18.69 C 45.09 29.64 39.43 40.63 33.68 51.57 C 32.45 54.62 27.57 54.67 26.34 51.60 C 20.43 40.42 14.71 29.12 8.74 17.96 C 5.88 16.75 4.93 12.50 7.75 10.72 C 11.74 8.68 16.17 7.59 20.56 6.79 M 12.86 17.09 C 15.41 22.02 18.00 26.92 20.52 31.85 C 24.58 32.51 27.42 37.07 25.29 40.87 C 26.78 43.91 28.40 46.89 29.95 49.91 C 31.12 48.05 32.04 46.05 33.05 44.11 C 30.35 40.72 33.25 35.71 37.44 35.80 C 40.61 29.53 43.92 23.34 47.13 17.09 C 36.22 12.97 23.77 12.96 12.86 17.09 Z" />
<path fill="#968176" opacity="1.00" d=" M 21.24 20.15 C 23.60 19.09 25.14 22.89 22.81 23.88 C 20.40 24.91 18.80 21.06 21.24 20.15 Z" />
<path fill="#968176" opacity="1.00" d=" M 37.11 20.12 C 39.49 19.06 41.23 22.80 38.81 23.84 C 36.47 24.92 34.87 21.25 37.11 20.12 Z" />
<path fill="#968176" opacity="1.00" d=" M 25.89 24.02 C 28.63 23.99 31.37 23.99 34.11 24.02 C 33.83 26.05 32.19 28.09 30.00 27.97 C 27.82 28.08 26.09 26.09 25.89 24.02 Z" />
</g>
</svg>
