<?xml version="1.0" encoding="UTF-8" ?>
<!DOCTYPE svg PUBLIC "-//W3C//DTD SVG 1.1//EN" "http://www.w3.org/Graphics/SVG/1.1/DTD/svg11.dtd">
<svg width="60pt" height="60pt" viewBox="0 0 60 60" version="1.1" xmlns="http://www.w3.org/2000/svg">
<g id="#ffffffff">
<path fill="#ffffff" opacity="1.00" d=" M 0.00 0.00 L 60.00 0.00 L 60.00 60.00 L 0.00 60.00 L 0.00 0.00 M 27.41 6.57 C 25.05 7.78 24.22 10.78 21.79 11.92 C 19.08 12.66 15.64 11.10 13.49 13.49 C 10.82 15.85 13.13 19.82 11.51 22.51 C 9.34 24.24 5.19 25.21 6.12 28.87 C 7.90 32.63 10.82 35.94 14.10 38.48 C 24.53 40.47 35.42 40.45 45.86 38.50 C 49.16 35.97 52.09 32.64 53.88 28.86 C 54.80 25.23 50.70 24.24 48.52 22.55 C 46.81 19.90 49.20 15.88 46.52 13.52 C 44.36 11.06 40.86 12.71 38.13 11.89 C 35.95 10.79 35.05 8.26 33.12 6.85 C 31.42 5.83 29.21 5.75 27.41 6.57 M 8.59 42.58 C 6.83 44.67 9.73 46.66 11.38 47.60 C 22.82 53.42 37.13 53.43 48.58 47.61 C 50.26 46.67 53.17 44.72 51.42 42.58 C 50.17 41.55 48.42 42.43 46.99 42.46 C 35.78 44.45 24.24 44.47 13.03 42.46 C 11.59 42.43 9.84 41.55 8.59 42.58 Z" />
<path fill="#ffffff" opacity="1.00" d=" M 19.12 26.11 C 21.49 25.05 23.27 28.91 20.76 29.80 C 18.48 30.96 16.85 27.18 19.12 26.11 Z" />
<path fill="#ffffff" opacity="1.00" d=" M 39.24 26.18 C 41.50 24.98 43.24 28.99 40.77 29.82 C 38.47 31.03 36.76 26.96 39.24 26.18 Z" />
<path fill="#ffffff" opacity="1.00" d=" M 25.70 30.04 C 28.57 29.98 31.43 29.98 34.30 30.05 C 33.56 31.89 32.33 34.13 30.01 33.99 C 27.68 34.13 26.37 31.94 25.70 30.04 Z" />
</g>
<g id="#000000ff">
<path fill="#000000" opacity="1.00" d=" M 27.41 6.57 C 29.21 5.75 31.42 5.83 33.12 6.85 C 35.05 8.26 35.95 10.79 38.13 11.89 C 40.86 12.71 44.36 11.06 46.52 13.52 C 49.20 15.88 46.81 19.90 48.52 22.55 C 50.70 24.24 54.80 25.23 53.88 28.86 C 52.09 32.64 49.16 35.97 45.86 38.50 C 35.42 40.45 24.53 40.47 14.10 38.48 C 10.82 35.94 7.90 32.63 6.12 28.87 C 5.19 25.21 9.34 24.24 11.51 22.51 C 13.13 19.82 10.82 15.85 13.49 13.49 C 15.64 11.10 19.08 12.66 21.79 11.92 C 24.22 10.78 25.05 7.78 27.41 6.57 M 19.12 26.11 C 16.85 27.18 18.48 30.96 20.76 29.80 C 23.27 28.91 21.49 25.05 19.12 26.11 M 39.24 26.18 C 36.76 26.96 38.47 31.03 40.77 29.82 C 43.24 28.99 41.50 24.98 39.24 26.18 M 25.70 30.04 C 26.37 31.94 27.68 34.13 30.01 33.99 C 32.33 34.13 33.56 31.89 34.30 30.05 C 31.43 29.98 28.57 29.98 25.70 30.04 Z" />
<path fill="#000000" opacity="1.00" d=" M 8.59 42.58 C 9.84 41.55 11.59 42.43 13.03 42.46 C 24.24 44.47 35.78 44.45 46.99 42.46 C 48.42 42.43 50.17 41.55 51.42 42.58 C 53.17 44.72 50.26 46.67 48.58 47.61 C 37.13 53.43 22.82 53.42 11.38 47.60 C 9.73 46.66 6.83 44.67 8.59 42.58 Z" />
</g>
</svg>
