<?xml version="1.0" encoding="UTF-8" ?>
<!DOCTYPE svg PUBLIC "-//W3C//DTD SVG 1.1//EN" "http://www.w3.org/Graphics/SVG/1.1/DTD/svg11.dtd">
<svg width="60pt" height="60pt" viewBox="0 0 60 60" version="1.1" xmlns="http://www.w3.org/2000/svg">
<g id="#ffffffff">
<path fill="#ffffff" opacity="1.00" d=" M 0.00 0.00 L 60.00 0.00 L 60.00 60.00 L 0.00 60.00 L 0.00 0.00 M 23.46 10.62 C 20.46 11.23 17.49 12.20 14.87 13.82 C 13.54 14.52 14.08 16.13 14.59 17.17 C 17.32 23.22 20.07 29.25 22.77 35.31 C 23.35 36.24 23.61 37.92 25.01 37.91 C 28.34 38.09 31.70 38.08 35.03 37.92 C 36.37 37.87 36.63 36.29 37.20 35.37 C 40.00 29.02 42.95 22.74 45.73 16.39 C 46.33 15.26 45.75 13.86 44.55 13.44 C 38.16 9.99 30.53 9.36 23.46 10.62 M 4.23 32.69 C 8.11 37.09 14.21 39.66 20.04 39.90 C 18.05 33.28 14.47 27.21 11.84 20.82 C 8.46 23.92 4.11 27.83 4.23 32.69 M 48.16 20.82 C 45.52 27.22 41.94 33.28 39.97 39.91 C 45.79 39.64 51.89 37.10 55.76 32.69 C 55.88 27.85 51.55 23.92 48.16 20.82 M 3.93 38.14 C 4.27 42.49 5.04 48.61 9.96 50.01 C 13.11 49.51 13.81 45.76 15.24 43.42 C 11.23 42.23 7.39 40.51 3.93 38.14 M 44.75 43.42 C 46.19 45.75 46.87 49.43 49.97 50.02 C 54.94 48.68 55.72 42.51 56.06 38.14 C 52.60 40.51 48.77 42.23 44.75 43.42 Z" />
<path fill="#ffffff" opacity="1.00" d=" M 21.10 18.11 C 23.51 17.11 25.17 20.71 22.85 21.89 C 20.46 22.86 18.88 19.32 21.10 18.11 Z" />
<path fill="#ffffff" opacity="1.00" d=" M 37.17 18.16 C 39.54 17.02 41.23 20.93 38.77 21.83 C 36.46 22.96 34.81 19.10 37.17 18.16 Z" />
<path fill="#ffffff" opacity="1.00" d=" M 25.80 22.03 C 28.60 21.98 31.40 21.99 34.20 22.03 C 33.68 23.99 32.27 26.11 29.99 25.99 C 27.72 26.08 26.25 24.03 25.80 22.03 Z" />
</g>
<g id="#000000ff">
<path fill="#000000" opacity="1.00" d=" M 23.46 10.62 C 30.53 9.36 38.16 9.99 44.55 13.44 C 45.75 13.86 46.33 15.26 45.73 16.39 C 42.95 22.74 40.00 29.02 37.20 35.37 C 36.63 36.29 36.37 37.87 35.03 37.92 C 31.70 38.08 28.34 38.09 25.01 37.91 C 23.61 37.92 23.35 36.24 22.77 35.31 C 20.07 29.25 17.32 23.22 14.59 17.17 C 14.08 16.13 13.54 14.52 14.87 13.82 C 17.49 12.20 20.46 11.23 23.46 10.62 M 21.10 18.11 C 18.88 19.32 20.46 22.86 22.85 21.89 C 25.17 20.71 23.51 17.11 21.10 18.11 M 37.17 18.16 C 34.81 19.10 36.46 22.96 38.77 21.83 C 41.23 20.93 39.54 17.02 37.17 18.16 M 25.80 22.03 C 26.25 24.03 27.72 26.08 29.99 25.99 C 32.27 26.11 33.68 23.99 34.20 22.03 C 31.40 21.99 28.60 21.98 25.80 22.03 Z" />
<path fill="#000000" opacity="1.00" d=" M 4.23 32.69 C 4.11 27.83 8.46 23.92 11.84 20.82 C 14.47 27.21 18.05 33.28 20.04 39.90 C 14.21 39.66 8.11 37.09 4.23 32.69 Z" />
<path fill="#000000" opacity="1.00" d=" M 48.16 20.82 C 51.55 23.92 55.88 27.85 55.76 32.69 C 51.89 37.10 45.79 39.64 39.97 39.91 C 41.94 33.28 45.52 27.22 48.16 20.82 Z" />
<path fill="#000000" opacity="1.00" d=" M 3.93 38.14 C 7.39 40.51 11.23 42.23 15.24 43.42 C 13.81 45.76 13.11 49.51 9.96 50.01 C 5.04 48.61 4.27 42.49 3.93 38.14 Z" />
<path fill="#000000" opacity="1.00" d=" M 44.75 43.42 C 48.77 42.23 52.60 40.51 56.06 38.14 C 55.72 42.51 54.94 48.68 49.97 50.02 C 46.87 49.43 46.19 45.75 44.75 43.42 Z" />
</g>
</svg>
