<?xml version="1.0" encoding="UTF-8" ?>
<!DOCTYPE svg PUBLIC "-//W3C//DTD SVG 1.1//EN" "http://www.w3.org/Graphics/SVG/1.1/DTD/svg11.dtd">
<svg width="64pt" height="64pt" viewBox="0 0 64 64" version="1.1" xmlns="http://www.w3.org/2000/svg">
<g id="#ffffffff">
<path fill="#ffffff" opacity="1.00" d=" M 0.00 0.00 L 64.00 0.00 L 64.00 64.00 L 0.00 64.00 L 0.00 0.00 M 12.44 23.86 C 11.52 28.92 12.31 34.09 11.91 39.19 C 10.32 42.91 6.29 46.91 8.90 51.14 C 11.27 55.41 18.34 54.59 19.67 49.89 C 21.37 45.00 15.60 41.72 15.98 37.03 C 16.00 33.67 15.92 30.31 16.07 26.95 C 16.33 19.90 22.00 13.56 28.90 12.30 C 35.70 10.84 43.13 14.45 46.19 20.68 C 49.42 27.29 47.46 34.93 48.00 42.00 C 46.00 42.00 44.00 42.00 42.00 42.00 C 42.00 43.33 42.00 44.67 42.00 46.00 C 41.50 46.00 40.51 46.00 40.01 46.00 C 40.01 45.50 39.99 44.50 39.99 44.00 C 38.66 44.00 37.33 44.00 36.00 44.00 C 36.00 46.67 36.00 49.33 36.00 52.00 C 37.33 52.00 38.66 52.00 39.99 52.00 C 39.99 51.50 40.01 50.50 40.01 50.00 C 40.51 50.00 41.50 50.00 42.00 50.00 C 42.00 51.33 42.00 52.67 42.00 54.00 C 47.33 54.00 52.67 54.00 58.00 54.00 C 58.00 50.00 58.00 46.00 58.00 42.00 C 56.00 42.00 54.00 42.00 52.00 42.00 C 51.89 36.39 52.25 30.76 51.78 25.17 C 50.57 15.21 40.94 7.26 30.92 8.04 C 22.12 8.36 14.14 15.23 12.44 23.86 Z" />
<path fill="#ffffff" opacity="1.00" d=" M 13.93 50.02 C 10.37 49.34 13.03 45.51 14.00 43.63 C 15.02 45.51 17.66 49.49 13.93 50.02 Z" />
<path fill="#ffffff" opacity="1.00" d=" M 46.00 46.00 C 48.67 46.00 51.33 46.00 54.00 46.00 C 54.00 47.33 54.00 48.67 54.00 50.00 C 51.33 50.00 48.67 50.00 46.00 50.00 C 46.00 48.67 46.00 47.33 46.00 46.00 Z" />
</g>
<g id="#000000ff">
<path fill="#000000" opacity="1.00" d=" M 12.44 23.86 C 14.14 15.23 22.12 8.36 30.92 8.04 C 40.94 7.26 50.57 15.21 51.78 25.17 C 52.25 30.76 51.89 36.39 52.00 42.00 C 54.00 42.00 56.00 42.00 58.00 42.00 C 58.00 46.00 58.00 50.00 58.00 54.00 C 52.67 54.00 47.33 54.00 42.00 54.00 C 42.00 52.67 42.00 51.33 42.00 50.00 C 41.50 50.00 40.51 50.00 40.01 50.00 C 40.01 50.50 39.99 51.50 39.99 52.00 C 38.66 52.00 37.33 52.00 36.00 52.00 C 36.00 49.33 36.00 46.67 36.00 44.00 C 37.33 44.00 38.66 44.00 39.99 44.00 C 39.99 44.50 40.01 45.50 40.01 46.00 C 40.51 46.00 41.50 46.00 42.00 46.00 C 42.00 44.67 42.00 43.33 42.00 42.00 C 44.00 42.00 46.00 42.00 48.00 42.00 C 47.46 34.93 49.42 27.29 46.19 20.68 C 43.13 14.45 35.70 10.84 28.90 12.30 C 22.00 13.56 16.33 19.90 16.07 26.95 C 15.92 30.31 16.00 33.67 15.98 37.03 C 15.60 41.72 21.37 45.00 19.67 49.89 C 18.34 54.59 11.27 55.41 8.90 51.14 C 6.29 46.91 10.32 42.91 11.91 39.19 C 12.31 34.09 11.52 28.92 12.44 23.86 M 13.93 50.02 C 17.66 49.49 15.02 45.51 14.00 43.63 C 13.03 45.51 10.37 49.34 13.93 50.02 M 46.00 46.00 C 46.00 47.33 46.00 48.67 46.00 50.00 C 48.67 50.00 51.33 50.00 54.00 50.00 C 54.00 48.67 54.00 47.33 54.00 46.00 C 51.33 46.00 48.67 46.00 46.00 46.00 Z" />
</g>
</svg>
