<?xml version="1.0" encoding="UTF-8" ?>
<!DOCTYPE svg PUBLIC "-//W3C//DTD SVG 1.1//EN" "http://www.w3.org/Graphics/SVG/1.1/DTD/svg11.dtd">
<svg width="60pt" height="60pt" viewBox="0 0 60 60" version="1.1" xmlns="http://www.w3.org/2000/svg">
<g id="#ffffffff">
<path fill="#ffffff" opacity="1.00" d=" M 0.00 0.00 L 60.00 0.00 L 60.00 60.00 L 0.00 60.00 L 0.00 0.00 M 11.22 21.16 C 9.51 25.58 10.08 30.40 10.03 35.02 C 10.39 38.55 7.22 40.94 6.37 44.15 C 5.03 47.45 7.53 51.37 10.96 51.90 C 14.85 52.75 18.82 48.82 17.84 44.92 C 17.21 41.35 13.66 38.82 13.98 35.04 C 13.88 28.93 13.43 21.91 18.19 17.25 C 24.23 10.09 36.51 10.39 42.27 17.75 C 47.65 23.87 45.62 32.47 46.00 39.87 C 43.24 39.38 41.40 41.25 41.87 44.00 C 40.62 44.00 39.37 44.00 38.13 44.00 C 37.97 42.55 38.16 39.87 35.99 40.02 C 33.04 40.21 34.27 44.07 33.95 46.02 C 34.23 48.04 33.10 51.66 36.03 52.05 C 38.15 51.91 37.94 49.51 38.14 48.00 C 39.38 48.00 40.63 48.00 41.87 48.00 C 42.04 49.43 41.82 52.05 43.97 51.92 C 47.15 51.66 51.19 53.08 53.80 50.95 C 54.15 47.71 54.14 44.41 53.83 41.16 C 53.11 39.70 51.30 40.15 50.00 39.87 C 49.93 35.24 50.17 30.60 49.87 25.97 C 49.15 17.17 41.78 9.60 33.07 8.37 C 23.93 6.50 14.24 12.45 11.22 21.16 Z" />
<path fill="#ffffff" opacity="1.00" d=" M 9.78 47.01 C 10.30 45.13 11.03 43.33 12.00 41.64 C 12.76 43.31 14.09 44.92 13.91 46.86 C 12.92 48.57 11.09 47.84 9.78 47.01 Z" />
</g>
<g id="#000000ff">
<path fill="#000000" opacity="1.00" d=" M 11.22 21.16 C 14.24 12.45 23.93 6.50 33.07 8.37 C 41.78 9.60 49.15 17.17 49.87 25.97 C 50.17 30.60 49.93 35.24 50.00 39.87 C 51.30 40.15 53.11 39.70 53.83 41.16 C 54.14 44.41 54.15 47.71 53.80 50.95 C 51.19 53.08 47.15 51.66 43.97 51.92 C 41.82 52.05 42.04 49.43 41.87 48.00 C 40.63 48.00 39.38 48.00 38.14 48.00 C 37.94 49.51 38.15 51.91 36.03 52.05 C 33.10 51.66 34.23 48.04 33.95 46.02 C 34.27 44.07 33.04 40.21 35.99 40.02 C 38.16 39.87 37.97 42.55 38.13 44.00 C 39.37 44.00 40.62 44.00 41.87 44.00 C 41.40 41.25 43.24 39.38 46.00 39.87 C 45.62 32.47 47.65 23.87 42.27 17.75 C 36.51 10.39 24.23 10.09 18.19 17.25 C 13.43 21.91 13.88 28.93 13.98 35.04 C 13.66 38.82 17.21 41.35 17.84 44.92 C 18.82 48.82 14.85 52.75 10.96 51.90 C 7.53 51.37 5.03 47.45 6.37 44.15 C 7.22 40.94 10.39 38.55 10.03 35.02 C 10.08 30.40 9.51 25.58 11.22 21.16 M 9.78 47.01 C 11.09 47.84 12.92 48.57 13.91 46.86 C 14.09 44.92 12.76 43.31 12.00 41.64 C 11.03 43.33 10.30 45.13 9.78 47.01 Z" />
</g>
</svg>
