<?xml version="1.0" encoding="UTF-8" ?>
<!DOCTYPE svg PUBLIC "-//W3C//DTD SVG 1.1//EN" "http://www.w3.org/Graphics/SVG/1.1/DTD/svg11.dtd">
<svg width="60pt" height="60pt" viewBox="0 0 60 60" version="1.1" xmlns="http://www.w3.org/2000/svg">
<g id="#ffffffff">
<path fill="#ffffff" opacity="1.00" d=" M 0.00 0.00 L 60.00 0.00 L 60.00 60.00 L 0.00 60.00 L 0.00 0.00 M 28.38 5.29 C 25.48 7.76 23.01 10.68 20.22 13.27 C 18.40 15.18 15.90 17.06 16.00 19.99 C 16.02 23.68 19.55 25.78 21.77 28.23 C 16.51 33.49 11.26 38.74 6.00 44.00 C 6.00 47.33 6.00 50.66 6.00 54.00 C 9.33 54.00 12.67 54.00 16.00 54.00 C 16.01 52.00 15.99 50.00 16.00 48.00 C 18.00 47.99 20.00 48.01 22.00 48.00 C 22.00 46.00 21.99 44.00 22.00 42.00 C 24.00 42.00 25.99 42.00 27.99 42.00 C 29.25 40.75 30.50 39.48 31.77 38.24 C 34.41 40.68 36.96 44.79 41.15 43.87 C 44.86 42.81 46.95 39.14 49.75 36.74 C 52.09 34.09 55.88 31.93 56.00 28.01 C 56.11 25.33 53.97 23.49 52.27 21.74 C 46.83 16.49 41.62 11.01 36.16 5.79 C 34.17 3.73 30.58 3.38 28.38 5.29 Z" />
<path fill="#ffffff" opacity="1.00" d=" M 35.22 14.12 C 35.62 14.15 36.44 14.20 36.85 14.23 C 39.88 16.82 42.62 19.75 45.38 22.63 C 46.98 24.02 45.14 26.79 43.22 25.82 C 40.15 23.22 37.39 20.24 34.60 17.33 C 33.51 16.43 34.03 14.66 35.22 14.12 Z" />
</g>
<g id="#000000ff">
<path fill="#000000" opacity="1.00" d=" M 28.38 5.29 C 30.58 3.38 34.17 3.73 36.16 5.79 C 41.62 11.01 46.83 16.49 52.27 21.74 C 53.97 23.49 56.11 25.33 56.00 28.01 C 55.88 31.93 52.09 34.09 49.75 36.74 C 46.95 39.14 44.86 42.81 41.15 43.87 C 36.96 44.79 34.41 40.68 31.77 38.24 C 30.50 39.48 29.25 40.75 27.99 42.00 C 25.99 42.00 24.00 42.00 22.00 42.00 C 21.99 44.00 22.00 46.00 22.00 48.00 C 20.00 48.01 18.00 47.99 16.00 48.00 C 15.99 50.00 16.01 52.00 16.00 54.00 C 12.67 54.00 9.33 54.00 6.00 54.00 C 6.00 50.66 6.00 47.33 6.00 44.00 C 11.26 38.74 16.51 33.49 21.77 28.23 C 19.55 25.78 16.02 23.68 16.00 19.99 C 15.90 17.06 18.40 15.18 20.22 13.27 C 23.01 10.68 25.48 7.76 28.38 5.29 M 35.22 14.12 C 34.03 14.66 33.51 16.43 34.60 17.33 C 37.39 20.24 40.15 23.22 43.22 25.82 C 45.14 26.79 46.98 24.02 45.38 22.63 C 42.62 19.75 39.88 16.82 36.85 14.23 C 36.44 14.20 35.62 14.15 35.22 14.12 Z" />
</g>
</svg>
