<?xml version="1.0" encoding="UTF-8" ?>
<!DOCTYPE svg PUBLIC "-//W3C//DTD SVG 1.1//EN" "http://www.w3.org/Graphics/SVG/1.1/DTD/svg11.dtd">
<svg width="64pt" height="64pt" viewBox="0 0 64 64" version="1.1" xmlns="http://www.w3.org/2000/svg">
<g id="#ffffffff">
<path fill="#ffffff" opacity="1.00" d=" M 0.00 0.00 L 64.00 0.00 L 64.00 64.00 L 0.00 64.00 L 0.00 0.00 M 27.28 11.31 C 23.17 15.31 21.36 21.29 22.22 26.93 C 16.86 32.37 11.39 37.71 6.00 43.14 C 6.00 48.09 6.00 53.05 6.00 58.00 C 10.67 58.00 15.33 58.00 20.00 58.00 C 20.00 56.00 20.00 54.00 20.00 52.00 C 22.00 52.00 24.00 52.00 26.00 52.00 C 26.00 50.00 26.00 48.00 26.00 46.00 C 28.00 46.00 30.00 46.00 32.00 46.00 C 32.00 44.05 32.00 42.09 31.99 40.14 C 36.12 41.94 40.86 42.65 45.22 41.20 C 52.25 39.13 57.60 32.42 57.95 25.08 C 58.52 17.62 53.81 10.20 46.90 7.40 C 40.36 4.55 32.23 6.20 27.28 11.31 Z" />
<path fill="#ffffff" opacity="1.00" d=" M 26.49 28.32 C 24.31 20.76 29.01 11.98 36.87 10.40 C 45.23 8.14 54.24 15.37 53.96 23.99 C 54.25 32.61 45.24 39.85 36.89 37.60 C 34.04 36.48 31.10 35.62 28.00 35.97 C 28.00 37.98 28.00 39.99 28.00 42.00 C 26.00 42.00 24.00 42.00 22.00 42.00 C 22.00 44.00 22.00 46.00 22.00 48.00 C 20.00 48.00 18.00 48.00 16.00 48.00 C 16.00 50.00 16.00 52.00 16.00 54.00 C 14.00 54.00 12.00 54.00 10.00 54.00 C 10.00 50.96 10.00 47.92 10.00 44.89 C 15.49 39.35 21.00 33.85 26.49 28.32 M 42.33 16.39 C 39.61 17.53 39.15 21.72 41.74 23.25 C 44.15 25.24 48.13 23.02 47.98 20.00 C 48.11 17.25 44.79 15.00 42.33 16.39 Z" />
</g>
<g id="#000000ff">
<path fill="#000000" opacity="1.00" d=" M 27.28 11.31 C 32.23 6.20 40.36 4.55 46.90 7.40 C 53.81 10.20 58.52 17.62 57.95 25.08 C 57.60 32.42 52.25 39.13 45.22 41.20 C 40.86 42.65 36.12 41.94 31.99 40.14 C 32.00 42.09 32.00 44.05 32.00 46.00 C 30.00 46.00 28.00 46.00 26.00 46.00 C 26.00 48.00 26.00 50.00 26.00 52.00 C 24.00 52.00 22.00 52.00 20.00 52.00 C 20.00 54.00 20.00 56.00 20.00 58.00 C 15.33 58.00 10.67 58.00 6.00 58.00 C 6.00 53.05 6.00 48.09 6.00 43.14 C 11.39 37.71 16.86 32.37 22.22 26.93 C 21.36 21.29 23.17 15.31 27.28 11.31 M 26.49 28.32 C 21.00 33.85 15.49 39.35 10.00 44.89 C 10.00 47.92 10.00 50.96 10.00 54.00 C 12.00 54.00 14.00 54.00 16.00 54.00 C 16.00 52.00 16.00 50.00 16.00 48.00 C 18.00 48.00 20.00 48.00 22.00 48.00 C 22.00 46.00 22.00 44.00 22.00 42.00 C 24.00 42.00 26.00 42.00 28.00 42.00 C 28.00 39.99 28.00 37.98 28.00 35.97 C 31.10 35.62 34.04 36.48 36.89 37.60 C 45.24 39.85 54.25 32.61 53.96 23.99 C 54.24 15.37 45.23 8.14 36.87 10.40 C 29.01 11.98 24.31 20.76 26.49 28.32 Z" />
<path fill="#000000" opacity="1.00" d=" M 42.33 16.39 C 44.79 15.00 48.11 17.25 47.98 20.00 C 48.13 23.02 44.15 25.24 41.74 23.25 C 39.15 21.72 39.61 17.53 42.33 16.39 Z" />
</g>
</svg>
