<?xml version="1.0" encoding="UTF-8" ?>
<!DOCTYPE svg PUBLIC "-//W3C//DTD SVG 1.1//EN" "http://www.w3.org/Graphics/SVG/1.1/DTD/svg11.dtd">
<svg width="64pt" height="64pt" viewBox="0 0 64 64" version="1.1" xmlns="http://www.w3.org/2000/svg">
<g id="#ffffffff">
<path fill="#ffffff" opacity="1.00" d=" M 0.00 0.00 L 64.00 0.00 L 64.00 64.00 L 0.00 64.00 L 0.00 0.00 M 34.00 8.01 C 34.00 9.34 34.00 10.67 34.00 11.99 C 36.16 12.00 38.31 12.01 40.47 12.01 C 42.67 19.97 44.90 27.92 47.11 35.88 C 44.27 39.78 41.96 44.09 38.81 47.77 C 31.86 48.31 24.84 47.87 17.85 47.97 C 16.42 44.84 12.67 42.95 9.40 44.56 C 4.89 46.37 4.92 53.70 9.46 55.46 C 12.72 57.03 16.43 55.14 17.85 52.03 C 24.25 51.93 30.66 52.06 37.06 51.99 C 38.89 52.03 40.89 51.62 42.13 50.15 C 44.54 47.27 46.32 43.93 48.57 40.93 C 48.76 41.76 49.15 43.42 49.35 44.25 C 47.05 46.07 45.10 48.88 46.31 51.96 C 47.65 56.97 55.57 57.35 57.46 52.56 C 59.12 49.15 57.00 45.23 53.57 44.06 C 50.33 32.96 47.47 21.73 44.15 10.66 C 42.56 6.60 37.33 8.35 34.00 8.01 Z" />
<path fill="#ffffff" opacity="1.00" d=" M 11.12 48.09 C 13.58 46.93 15.26 50.99 12.79 51.84 C 10.40 53.04 8.83 49.15 11.12 48.09 Z" />
<path fill="#ffffff" opacity="1.00" d=" M 51.13 48.09 C 53.58 46.98 55.23 50.87 52.83 51.87 C 50.39 53.02 48.83 49.17 51.13 48.09 Z" />
</g>
<g id="#000000ff">
<path fill="#000000" opacity="1.00" d=" M 34.00 8.01 C 37.33 8.35 42.56 6.60 44.15 10.66 C 47.47 21.73 50.33 32.96 53.57 44.06 C 57.00 45.23 59.12 49.15 57.46 52.56 C 55.57 57.35 47.65 56.97 46.31 51.96 C 45.10 48.88 47.05 46.07 49.35 44.25 C 49.15 43.42 48.76 41.76 48.57 40.93 C 46.32 43.93 44.54 47.27 42.13 50.15 C 40.89 51.62 38.89 52.03 37.06 51.99 C 30.66 52.06 24.25 51.93 17.85 52.03 C 16.43 55.14 12.72 57.03 9.46 55.46 C 4.92 53.70 4.89 46.37 9.40 44.56 C 12.67 42.95 16.42 44.84 17.85 47.97 C 24.84 47.87 31.86 48.31 38.81 47.77 C 41.96 44.09 44.27 39.78 47.11 35.88 C 44.90 27.92 42.67 19.97 40.47 12.01 C 38.31 12.01 36.16 12.00 34.00 11.99 C 34.00 10.67 34.00 9.34 34.00 8.01 M 11.12 48.09 C 8.83 49.15 10.40 53.04 12.79 51.84 C 15.26 50.99 13.58 46.93 11.12 48.09 M 51.13 48.09 C 48.83 49.17 50.39 53.02 52.83 51.87 C 55.23 50.87 53.58 46.98 51.13 48.09 Z" />
</g>
</svg>
