<?xml version="1.0" encoding="UTF-8" ?>
<!DOCTYPE svg PUBLIC "-//W3C//DTD SVG 1.1//EN" "http://www.w3.org/Graphics/SVG/1.1/DTD/svg11.dtd">
<svg width="64pt" height="64pt" viewBox="0 0 64 64" version="1.1" xmlns="http://www.w3.org/2000/svg">
<g id="#ffffffff">
<path fill="#ffffff" opacity="1.00" d=" M 0.00 0.00 L 64.00 0.00 L 64.00 64.00 L 0.00 64.00 L 0.00 0.00 M 18.56 8.40 C 14.05 16.52 10.98 25.32 8.00 34.09 C 11.32 35.38 14.68 36.59 18.00 37.90 C 18.01 44.60 18.00 51.30 18.00 58.00 C 27.33 58.00 36.67 58.00 46.00 58.00 C 46.00 51.29 46.00 44.59 46.00 37.89 C 49.35 36.63 52.68 35.35 55.99 33.99 C 53.08 25.25 49.90 16.55 45.50 8.43 C 39.37 5.40 32.53 5.86 25.90 6.07 C 23.38 6.60 21.02 7.67 18.56 8.40 Z" />
<path fill="#ffffff" opacity="1.00" d=" M 28.69 10.00 C 30.90 10.00 33.10 10.00 35.31 10.00 C 34.21 13.65 33.12 17.30 32.00 20.94 C 30.87 17.30 29.79 13.65 28.69 10.00 Z" />
<path fill="#ffffff" opacity="1.00" d=" M 21.49 11.57 C 22.54 11.21 23.59 10.86 24.64 10.51 C 26.73 18.95 31.02 27.08 30.00 36.00 C 27.33 36.00 24.66 36.00 22.00 36.00 C 22.01 33.33 21.99 30.67 22.00 28.00 C 20.67 28.00 19.33 28.00 18.00 28.00 C 18.00 29.87 18.00 31.75 18.00 33.62 C 16.33 33.00 14.66 32.37 12.99 31.75 C 15.37 24.84 18.07 18.03 21.49 11.57 Z" />
<path fill="#ffffff" opacity="1.00" d=" M 39.36 10.51 C 40.41 10.86 41.46 11.21 42.51 11.57 C 45.92 18.02 48.63 24.80 51.00 31.69 C 49.33 32.33 47.67 32.98 46.00 33.62 C 45.99 31.75 46.00 29.87 46.00 28.00 C 44.66 28.00 43.33 28.00 42.00 28.00 C 42.01 30.67 41.99 33.33 42.00 36.00 C 39.33 36.00 36.67 36.00 34.00 36.00 C 32.97 27.08 37.27 18.95 39.36 10.51 Z" />
<path fill="#ffffff" opacity="1.00" d=" M 22.00 40.00 C 24.67 40.00 27.33 40.00 30.00 40.00 C 30.00 44.67 30.00 49.33 30.00 54.00 C 27.33 54.00 24.67 54.00 22.00 54.00 C 22.00 49.33 22.00 44.67 22.00 40.00 Z" />
<path fill="#ffffff" opacity="1.00" d=" M 34.00 40.00 C 36.67 40.00 39.33 40.00 42.00 40.00 C 42.00 44.67 42.00 49.33 42.00 54.00 C 39.33 54.00 36.67 54.00 34.00 54.00 C 34.00 49.33 34.00 44.67 34.00 40.00 Z" />
</g>
<g id="#000000ff">
<path fill="#000000" opacity="1.00" d=" M 18.56 8.40 C 21.02 7.67 23.38 6.60 25.90 6.07 C 32.53 5.86 39.37 5.40 45.50 8.43 C 49.90 16.55 53.08 25.25 55.99 33.99 C 52.68 35.35 49.35 36.63 46.00 37.89 C 46.00 44.59 46.00 51.29 46.00 58.00 C 36.67 58.00 27.33 58.00 18.00 58.00 C 18.00 51.30 18.01 44.60 18.00 37.90 C 14.68 36.59 11.32 35.38 8.00 34.09 C 10.98 25.32 14.05 16.52 18.56 8.40 M 28.69 10.00 C 29.79 13.65 30.87 17.30 32.00 20.94 C 33.12 17.30 34.21 13.65 35.31 10.00 C 33.10 10.00 30.90 10.00 28.69 10.00 M 21.49 11.57 C 18.07 18.03 15.37 24.84 12.99 31.75 C 14.66 32.37 16.33 33.00 18.00 33.62 C 18.00 31.75 18.00 29.87 18.00 28.00 C 19.33 28.00 20.67 28.00 22.00 28.00 C 21.99 30.67 22.01 33.33 22.00 36.00 C 24.66 36.00 27.33 36.00 30.00 36.00 C 31.02 27.08 26.73 18.95 24.64 10.51 C 23.59 10.86 22.54 11.21 21.49 11.57 M 39.36 10.51 C 37.27 18.95 32.97 27.08 34.00 36.00 C 36.67 36.00 39.33 36.00 42.00 36.00 C 41.99 33.33 42.01 30.67 42.00 28.00 C 43.33 28.00 44.66 28.00 46.00 28.00 C 46.00 29.87 45.99 31.75 46.00 33.62 C 47.67 32.98 49.33 32.33 51.00 31.69 C 48.63 24.80 45.92 18.02 42.51 11.57 C 41.46 11.21 40.41 10.86 39.36 10.51 M 22.00 40.00 C 22.00 44.67 22.00 49.33 22.00 54.00 C 24.67 54.00 27.33 54.00 30.00 54.00 C 30.00 49.33 30.00 44.67 30.00 40.00 C 27.33 40.00 24.67 40.00 22.00 40.00 M 34.00 40.00 C 34.00 44.67 34.00 49.33 34.00 54.00 C 36.67 54.00 39.33 54.00 42.00 54.00 C 42.00 49.33 42.00 44.67 42.00 40.00 C 39.33 40.00 36.67 40.00 34.00 40.00 Z" />
</g>
</svg>
