<?xml version="1.0" encoding="UTF-8" ?>
<!DOCTYPE svg PUBLIC "-//W3C//DTD SVG 1.1//EN" "http://www.w3.org/Graphics/SVG/1.1/DTD/svg11.dtd">
<svg width="60pt" height="60pt" viewBox="0 0 60 60" version="1.1" xmlns="http://www.w3.org/2000/svg">
<g id="#ffffffff">
<path fill="#ffffff" opacity="1.00" d=" M 0.00 0.00 L 60.00 0.00 L 60.00 60.00 L 0.00 60.00 L 0.00 0.00 M 28.01 6.00 C 28.00 8.07 27.99 10.14 27.98 12.21 C 26.16 12.58 24.35 12.99 22.55 13.44 C 19.52 10.72 16.04 8.37 11.92 7.79 C 12.36 11.63 13.23 15.44 14.97 18.91 C 12.03 23.64 9.90 28.80 7.95 34.01 C 11.66 35.10 15.73 35.77 18.80 38.29 C 20.97 41.04 20.86 45.02 23.33 47.61 C 24.55 48.94 26.38 49.37 27.99 50.04 C 27.99 51.36 28.00 52.68 28.01 54.00 C 29.34 54.00 30.67 54.00 32.00 54.00 C 32.00 52.00 32.00 50.00 32.00 48.00 C 34.96 47.32 37.99 46.42 40.32 44.38 C 44.51 40.95 46.31 35.59 47.34 30.46 C 50.22 30.49 53.67 29.18 54.03 25.91 C 54.40 21.22 49.42 18.59 45.37 18.27 C 44.49 17.58 43.62 16.90 42.74 16.21 C 43.33 13.82 43.99 11.41 43.98 8.93 C 43.88 7.78 44.13 5.97 42.47 6.05 C 40.65 8.72 39.01 11.64 36.14 13.34 C 34.76 12.99 33.38 12.64 32.00 12.30 C 32.00 10.20 32.00 8.10 32.00 6.00 C 30.67 6.00 29.34 6.00 28.01 6.00 Z" />
<path fill="#ffffff" opacity="1.00" d=" M 32.03 16.37 C 36.35 17.31 40.66 18.88 43.80 22.13 C 46.51 22.31 49.64 23.08 50.47 26.07 C 48.34 26.54 46.16 26.52 44.01 26.22 C 43.30 31.04 42.40 36.20 39.07 39.97 C 37.29 42.07 34.56 42.87 32.02 43.65 C 32.03 42.85 32.03 41.25 32.03 40.44 C 33.18 39.59 33.98 38.48 34.19 37.04 C 33.64 36.74 32.54 36.13 31.99 35.83 C 32.03 29.34 31.96 22.86 32.03 16.37 M 35.26 28.17 C 32.75 28.90 34.46 33.03 36.72 31.82 C 39.25 31.09 37.55 26.99 35.26 28.17 Z" />
<path fill="#ffffff" opacity="1.00" d=" M 21.14 30.77 C 19.37 29.23 20.16 26.82 20.93 25.00 C 23.00 26.97 25.02 29.00 27.00 31.07 C 25.13 31.90 22.70 32.59 21.14 30.77 Z" />
</g>
<g id="#000000ff">
<path fill="#000000" opacity="1.00" d=" M 28.01 6.00 C 29.34 6.00 30.67 6.00 32.00 6.00 C 32.00 8.10 32.00 10.20 32.00 12.30 C 33.38 12.64 34.76 12.99 36.14 13.34 C 39.01 11.64 40.65 8.72 42.47 6.05 C 44.13 5.97 43.88 7.78 43.98 8.93 C 43.99 11.41 43.33 13.82 42.74 16.21 C 43.62 16.90 44.49 17.58 45.37 18.27 C 49.42 18.59 54.40 21.22 54.03 25.91 C 53.67 29.18 50.22 30.49 47.34 30.46 C 46.31 35.59 44.51 40.95 40.32 44.38 C 37.99 46.42 34.96 47.32 32.00 48.00 C 32.00 50.00 32.00 52.00 32.00 54.00 C 30.67 54.00 29.34 54.00 28.01 54.00 C 28.00 52.68 27.99 51.36 27.99 50.04 C 26.38 49.37 24.55 48.94 23.33 47.61 C 20.86 45.02 20.97 41.04 18.80 38.29 C 15.73 35.77 11.66 35.10 7.95 34.01 C 9.90 28.80 12.03 23.64 14.97 18.91 C 13.23 15.44 12.36 11.63 11.92 7.79 C 16.04 8.37 19.52 10.72 22.55 13.44 C 24.35 12.99 26.16 12.58 27.98 12.21 C 27.99 10.14 28.00 8.07 28.01 6.00 M 32.03 16.37 C 31.96 22.86 32.03 29.34 31.99 35.83 C 32.54 36.13 33.64 36.74 34.19 37.04 C 33.98 38.48 33.18 39.59 32.03 40.44 C 32.03 41.25 32.03 42.85 32.02 43.65 C 34.56 42.87 37.29 42.07 39.07 39.97 C 42.40 36.20 43.30 31.04 44.01 26.22 C 46.16 26.52 48.34 26.54 50.47 26.07 C 49.64 23.08 46.51 22.31 43.80 22.13 C 40.66 18.88 36.35 17.31 32.03 16.37 M 21.14 30.77 C 22.70 32.59 25.13 31.90 27.00 31.07 C 25.02 29.00 23.00 26.97 20.93 25.00 C 20.16 26.82 19.37 29.23 21.14 30.77 Z" />
<path fill="#000000" opacity="1.00" d=" M 35.26 28.17 C 37.55 26.99 39.25 31.09 36.72 31.82 C 34.46 33.03 32.75 28.90 35.26 28.17 Z" />
</g>
</svg>
