<?xml version="1.0" encoding="UTF-8" ?>
<!DOCTYPE svg PUBLIC "-//W3C//DTD SVG 1.1//EN" "http://www.w3.org/Graphics/SVG/1.1/DTD/svg11.dtd">
<svg width="60pt" height="60pt" viewBox="0 0 60 60" version="1.1" xmlns="http://www.w3.org/2000/svg">
<g id="#ffffffff">
<path fill="#ffffff" opacity="1.00" d=" M 0.00 0.00 L 60.00 0.00 L 60.00 60.00 L 0.00 60.00 L 0.00 0.00 M 14.31 6.41 C 12.63 7.18 11.79 9.08 12.00 10.86 C 12.03 23.94 11.94 37.03 12.04 50.10 C 11.94 52.60 14.57 54.34 16.89 54.00 C 25.96 53.97 35.03 54.06 44.09 53.96 C 46.14 54.02 48.01 52.16 47.96 50.11 C 48.06 37.05 47.97 23.98 48.00 10.91 C 48.34 8.60 46.63 5.96 44.13 6.04 C 35.77 5.92 27.40 6.06 19.03 5.98 C 17.47 6.11 15.77 5.72 14.31 6.41 Z" />
<path fill="#ffffff" opacity="1.00" d=" M 16.00 10.00 C 25.33 10.00 34.67 10.00 44.00 10.00 C 44.00 22.00 44.00 34.00 44.00 46.00 C 34.67 46.00 25.33 46.00 16.00 46.00 C 16.00 34.00 16.00 22.00 16.00 10.00 M 21.15 16.18 C 19.27 16.92 19.89 20.14 21.98 19.93 C 27.34 20.05 32.72 20.06 38.08 19.93 C 40.61 20.08 40.56 15.84 38.03 16.07 C 32.41 16.01 26.75 15.80 21.15 16.18 M 21.16 24.18 C 19.27 24.90 19.87 28.11 21.96 27.93 C 25.59 28.02 29.25 28.19 32.86 27.81 C 34.75 27.05 34.11 23.87 32.01 24.07 C 28.40 23.98 24.76 23.81 21.16 24.18 M 21.15 32.20 C 19.28 32.90 19.88 36.07 21.91 35.93 C 27.29 36.06 32.69 36.06 38.07 35.93 C 40.64 36.09 40.54 31.79 37.98 32.06 C 32.38 32.03 26.74 31.78 21.15 32.20 Z" />
<path fill="#ffffff" opacity="1.00" d=" M 18.17 48.17 C 19.79 47.65 20.34 48.20 19.82 49.82 C 18.20 50.34 17.65 49.79 18.17 48.17 Z" />
<path fill="#ffffff" opacity="1.00" d=" M 22.17 48.17 C 23.79 47.65 24.34 48.20 23.82 49.82 C 22.20 50.34 21.65 49.79 22.17 48.17 Z" />
<path fill="#ffffff" opacity="1.00" d=" M 28.00 48.00 C 29.33 48.00 30.67 48.00 32.00 48.00 C 32.00 49.33 32.00 50.67 32.00 52.00 C 30.67 52.00 29.33 52.00 28.00 52.00 C 28.00 50.67 28.00 49.33 28.00 48.00 Z" />
<path fill="#ffffff" opacity="1.00" d=" M 36.17 48.17 C 37.79 47.65 38.34 48.20 37.82 49.82 C 36.20 50.34 35.65 49.79 36.17 48.17 Z" />
<path fill="#ffffff" opacity="1.00" d=" M 40.17 48.17 C 41.79 47.65 42.34 48.21 41.82 49.82 C 40.20 50.34 39.65 49.79 40.17 48.17 Z" />
</g>
<g id="#000000ff">
<path fill="#000000" opacity="1.00" d=" M 14.31 6.41 C 15.77 5.72 17.47 6.11 19.03 5.98 C 27.40 6.06 35.77 5.92 44.13 6.04 C 46.63 5.96 48.34 8.60 48.00 10.91 C 47.97 23.98 48.06 37.05 47.96 50.11 C 48.01 52.16 46.14 54.02 44.09 53.96 C 35.03 54.06 25.96 53.97 16.89 54.00 C 14.57 54.34 11.94 52.60 12.04 50.10 C 11.94 37.03 12.03 23.94 12.00 10.86 C 11.79 9.08 12.63 7.18 14.31 6.41 M 16.00 10.00 C 16.00 22.00 16.00 34.00 16.00 46.00 C 25.33 46.00 34.67 46.00 44.00 46.00 C 44.00 34.00 44.00 22.00 44.00 10.00 C 34.67 10.00 25.33 10.00 16.00 10.00 M 18.17 48.17 C 17.65 49.79 18.20 50.34 19.82 49.82 C 20.34 48.20 19.79 47.65 18.17 48.17 M 22.17 48.17 C 21.65 49.79 22.20 50.34 23.82 49.82 C 24.34 48.20 23.79 47.65 22.17 48.17 M 28.00 48.00 C 28.00 49.33 28.00 50.67 28.00 52.00 C 29.33 52.00 30.67 52.00 32.00 52.00 C 32.00 50.67 32.00 49.33 32.00 48.00 C 30.67 48.00 29.33 48.00 28.00 48.00 M 36.17 48.17 C 35.65 49.79 36.20 50.34 37.82 49.82 C 38.34 48.20 37.79 47.65 36.17 48.17 M 40.17 48.17 C 39.65 49.79 40.20 50.34 41.82 49.82 C 42.34 48.21 41.79 47.65 40.17 48.17 Z" />
<path fill="#000000" opacity="1.00" d=" M 21.15 16.18 C 26.75 15.80 32.41 16.01 38.03 16.07 C 40.56 15.84 40.61 20.08 38.08 19.93 C 32.72 20.06 27.34 20.05 21.98 19.93 C 19.89 20.14 19.27 16.92 21.15 16.18 Z" />
<path fill="#000000" opacity="1.00" d=" M 21.16 24.18 C 24.76 23.81 28.40 23.98 32.01 24.07 C 34.11 23.87 34.75 27.05 32.86 27.81 C 29.25 28.19 25.59 28.02 21.96 27.93 C 19.87 28.11 19.27 24.90 21.16 24.18 Z" />
<path fill="#000000" opacity="1.00" d=" M 21.15 32.20 C 26.74 31.78 32.38 32.03 37.98 32.06 C 40.54 31.79 40.64 36.09 38.07 35.93 C 32.69 36.06 27.29 36.06 21.91 35.93 C 19.88 36.07 19.28 32.90 21.15 32.20 Z" />
</g>
</svg>
