<?xml version="1.0" encoding="UTF-8" ?>
<!DOCTYPE svg PUBLIC "-//W3C//DTD SVG 1.1//EN" "http://www.w3.org/Graphics/SVG/1.1/DTD/svg11.dtd">
<svg width="64pt" height="64pt" viewBox="0 0 64 64" version="1.1" xmlns="http://www.w3.org/2000/svg">
<g id="#ffffffff">
<path fill="#ffffff" opacity="1.00" d=" M 0.00 0.00 L 64.00 0.00 L 64.00 64.00 L 0.00 64.00 L 0.00 0.00 M 28.23 12.02 C 24.15 11.98 20.08 12.01 16.00 12.00 C 16.00 13.58 16.00 15.16 16.00 16.74 C 18.49 19.67 20.93 22.64 23.44 25.56 C 23.04 26.16 22.26 27.36 21.87 27.97 C 21.70 29.88 24.07 29.79 25.26 30.34 C 23.82 34.86 22.96 39.58 20.92 43.89 C 19.30 44.19 17.15 43.51 16.05 45.10 C 15.43 46.57 16.89 47.54 17.73 48.45 C 16.47 50.05 15.24 51.67 14.00 53.28 C 14.00 54.85 14.00 56.43 14.00 58.00 C 26.00 58.00 38.00 58.00 50.00 58.00 C 50.00 56.43 50.00 54.86 50.00 53.29 C 48.76 51.65 47.51 50.01 46.25 48.38 C 47.17 47.50 48.32 46.57 47.92 45.11 C 46.77 43.62 44.71 44.17 43.09 43.88 C 41.02 39.58 40.18 34.85 38.74 30.34 C 39.97 30.11 41.09 29.65 42.09 28.96 C 42.15 27.62 41.66 26.49 40.63 25.58 C 43.13 22.67 45.55 19.69 48.00 16.73 C 48.00 15.15 48.00 13.57 48.00 12.00 C 43.93 12.01 39.85 11.98 35.77 12.02 C 36.53 9.37 35.12 5.95 32.01 6.00 C 28.85 5.88 27.46 9.36 28.23 12.02 Z" />
<path fill="#ffffff" opacity="1.00" d=" M 20.62 16.00 C 28.21 16.00 35.79 16.00 43.38 16.00 C 40.60 19.33 37.84 22.68 35.07 26.01 C 33.02 26.00 30.98 26.00 28.93 26.00 C 26.18 22.65 23.41 19.32 20.62 16.00 Z" />
<path fill="#ffffff" opacity="1.00" d=" M 29.50 29.99 C 31.17 30.01 32.84 30.01 34.52 30.02 C 35.85 34.69 37.06 39.40 38.60 44.01 C 34.20 43.99 29.80 43.99 25.39 44.01 C 26.94 39.39 28.15 34.67 29.50 29.99 Z" />
<path fill="#ffffff" opacity="1.00" d=" M 23.00 48.00 C 29.00 48.00 35.00 48.00 41.00 48.00 C 42.50 50.00 44.00 52.00 45.50 54.00 C 36.50 54.00 27.50 54.00 18.50 54.00 C 20.00 52.00 21.50 50.00 23.00 48.00 Z" />
</g>
<g id="#000000ff">
<path fill="#000000" opacity="1.00" d=" M 28.23 12.02 C 27.46 9.36 28.85 5.88 32.01 6.00 C 35.12 5.95 36.53 9.37 35.77 12.02 C 39.85 11.98 43.93 12.01 48.00 12.00 C 48.00 13.57 48.00 15.15 48.00 16.73 C 45.55 19.69 43.13 22.67 40.63 25.58 C 41.66 26.49 42.15 27.62 42.09 28.96 C 41.09 29.65 39.97 30.11 38.74 30.34 C 40.18 34.85 41.02 39.58 43.09 43.88 C 44.71 44.17 46.77 43.62 47.92 45.11 C 48.32 46.57 47.17 47.50 46.25 48.38 C 47.51 50.01 48.76 51.65 50.00 53.29 C 50.00 54.86 50.00 56.43 50.00 58.00 C 38.00 58.00 26.00 58.00 14.00 58.00 C 14.00 56.43 14.00 54.85 14.00 53.28 C 15.24 51.67 16.47 50.05 17.73 48.45 C 16.89 47.54 15.43 46.57 16.05 45.10 C 17.15 43.51 19.30 44.19 20.92 43.89 C 22.96 39.58 23.82 34.86 25.26 30.34 C 24.07 29.79 21.70 29.88 21.87 27.97 C 22.26 27.36 23.04 26.16 23.44 25.56 C 20.93 22.64 18.49 19.67 16.00 16.74 C 16.00 15.16 16.00 13.58 16.00 12.00 C 20.08 12.01 24.15 11.98 28.23 12.02 M 20.62 16.00 C 23.41 19.32 26.18 22.65 28.93 26.00 C 30.98 26.00 33.02 26.00 35.07 26.01 C 37.84 22.68 40.60 19.33 43.38 16.00 C 35.79 16.00 28.21 16.00 20.62 16.00 M 29.50 29.99 C 28.15 34.67 26.94 39.39 25.39 44.01 C 29.80 43.99 34.20 43.99 38.60 44.01 C 37.06 39.40 35.85 34.69 34.52 30.02 C 32.84 30.01 31.17 30.01 29.50 29.99 M 23.00 48.00 C 21.50 50.00 20.00 52.00 18.50 54.00 C 27.50 54.00 36.50 54.00 45.50 54.00 C 44.00 52.00 42.50 50.00 41.00 48.00 C 35.00 48.00 29.00 48.00 23.00 48.00 Z" />
</g>
</svg>
