<?xml version="1.0" encoding="UTF-8" ?>
<!DOCTYPE svg PUBLIC "-//W3C//DTD SVG 1.1//EN" "http://www.w3.org/Graphics/SVG/1.1/DTD/svg11.dtd">
<svg width="60pt" height="60pt" viewBox="0 0 60 60" version="1.1" xmlns="http://www.w3.org/2000/svg">
<g id="#ffffffff">
<path fill="#ffffff" opacity="1.00" d=" M 0.00 0.00 L 60.00 0.00 L 60.00 60.00 L 0.00 60.00 L 0.00 0.00 M 14.59 11.63 C 8.11 16.96 4.85 25.84 6.36 34.10 C 7.82 43.10 14.90 50.84 23.72 53.15 C 30.21 55.00 37.25 53.64 42.98 50.24 C 41.98 49.29 40.99 48.34 40.00 47.38 C 33.38 51.01 24.78 50.88 18.60 46.40 C 11.54 41.65 8.24 32.14 10.92 24.06 C 13.23 16.24 20.77 10.36 28.92 10.04 C 36.45 9.53 43.97 13.78 47.53 20.41 C 49.93 24.60 50.39 29.59 49.60 34.29 C 50.97 34.12 52.35 34.03 53.73 34.02 C 55.54 23.33 49.39 11.92 39.29 7.88 C 31.20 4.39 21.27 5.89 14.59 11.63 M 17.16 26.20 C 15.60 26.79 15.64 29.19 17.18 29.80 C 19.71 30.15 22.32 30.16 24.84 29.79 C 26.41 29.18 26.36 26.78 24.80 26.19 C 22.28 25.85 19.68 25.84 17.16 26.20 M 35.17 26.20 C 32.73 27.29 34.55 30.74 36.92 30.01 C 39.27 29.84 44.58 31.15 43.89 27.21 C 41.78 24.93 37.96 26.21 35.17 26.20 M 31.24 34.16 C 27.98 36.18 32.01 38.23 33.91 39.11 C 34.75 41.70 31.49 41.83 30.08 43.14 C 29.68 44.49 30.56 46.10 32.10 45.99 C 35.28 45.99 38.07 43.12 38.00 39.96 C 38.05 36.56 34.65 33.38 31.24 34.16 M 42.08 41.13 C 41.59 45.26 46.09 47.30 49.00 49.13 C 51.90 47.30 56.41 45.27 55.92 41.14 C 55.22 37.92 51.48 37.39 49.00 38.90 C 46.52 37.38 42.81 37.96 42.08 41.13 Z" />
</g>
<g id="#000000ff">
<path fill="#000000" opacity="1.00" d=" M 14.59 11.63 C 21.27 5.89 31.20 4.39 39.29 7.88 C 49.39 11.92 55.54 23.33 53.73 34.02 C 52.35 34.03 50.97 34.12 49.60 34.29 C 50.39 29.59 49.93 24.60 47.53 20.41 C 43.97 13.78 36.45 9.53 28.92 10.04 C 20.77 10.36 13.23 16.24 10.92 24.06 C 8.24 32.14 11.54 41.65 18.60 46.40 C 24.78 50.88 33.38 51.01 40.00 47.38 C 40.99 48.34 41.98 49.29 42.98 50.24 C 37.25 53.64 30.21 55.00 23.72 53.15 C 14.90 50.84 7.82 43.10 6.36 34.10 C 4.85 25.84 8.11 16.96 14.59 11.63 Z" />
<path fill="#000000" opacity="1.00" d=" M 17.16 26.20 C 19.68 25.84 22.28 25.85 24.80 26.19 C 26.36 26.78 26.41 29.18 24.84 29.79 C 22.32 30.16 19.71 30.15 17.18 29.80 C 15.64 29.19 15.60 26.79 17.16 26.20 Z" />
<path fill="#000000" opacity="1.00" d=" M 35.17 26.20 C 37.96 26.21 41.78 24.93 43.89 27.21 C 44.58 31.15 39.27 29.84 36.92 30.01 C 34.55 30.74 32.73 27.29 35.17 26.20 Z" />
<path fill="#000000" opacity="1.00" d=" M 31.24 34.16 C 34.65 33.38 38.05 36.56 38.00 39.96 C 38.07 43.12 35.28 45.99 32.10 45.99 C 30.56 46.10 29.68 44.49 30.08 43.14 C 31.49 41.83 34.75 41.70 33.91 39.11 C 32.01 38.23 27.98 36.18 31.24 34.16 Z" />
<path fill="#000000" opacity="1.00" d=" M 42.08 41.13 C 42.81 37.96 46.52 37.38 49.00 38.90 C 51.48 37.39 55.22 37.92 55.92 41.14 C 56.41 45.27 51.90 47.30 49.00 49.13 C 46.09 47.30 41.59 45.26 42.08 41.13 Z" />
</g>
</svg>
