<?xml version="1.0" encoding="UTF-8" ?>
<!DOCTYPE svg PUBLIC "-//W3C//DTD SVG 1.1//EN" "http://www.w3.org/Graphics/SVG/1.1/DTD/svg11.dtd">
<svg width="60pt" height="60pt" viewBox="0 0 60 60" version="1.1" xmlns="http://www.w3.org/2000/svg">
<g id="#ffffffff">
<path fill="#ffffff" opacity="1.00" d=" M 0.00 0.00 L 60.00 0.00 L 60.00 60.00 L 0.00 60.00 L 0.00 0.00 M 8.09 12.93 C 7.47 15.35 9.35 17.21 10.67 18.95 C 6.94 24.21 4.35 31.33 7.30 37.55 C 10.95 45.10 18.05 50.87 26.01 53.39 C 32.60 55.44 39.07 51.69 44.24 47.94 C 43.19 47.08 42.15 46.21 41.13 45.32 C 37.77 47.49 34.17 49.85 30.04 49.98 C 25.14 49.77 20.85 46.87 17.19 43.83 C 13.77 40.77 10.30 36.91 10.02 32.09 C 10.04 25.40 14.45 19.40 19.95 15.94 C 24.44 13.00 30.05 14.13 35.09 14.11 C 42.81 15.58 48.34 22.73 50.02 30.12 C 51.34 30.12 52.66 30.12 53.98 30.12 C 53.27 26.10 51.68 22.29 49.33 18.94 C 50.62 17.22 52.49 15.40 51.91 13.02 C 51.21 9.35 47.85 6.08 44.03 6.00 C 41.23 5.97 39.63 8.53 38.30 10.60 C 32.83 9.70 27.17 9.70 21.69 10.61 C 20.45 8.80 19.23 6.47 16.81 6.10 C 12.71 5.55 8.88 9.06 8.09 12.93 M 22.20 18.11 C 16.70 19.17 13.55 27.73 18.42 31.32 C 22.68 33.64 27.28 29.21 27.85 25.06 C 28.81 21.64 26.11 17.15 22.20 18.11 M 34.44 18.66 C 28.97 22.61 33.53 32.78 40.05 31.91 C 43.50 31.27 44.67 27.02 43.65 24.05 C 42.72 20.26 38.36 16.51 34.44 18.66 M 31.22 34.11 C 28.58 35.22 31.04 37.56 31.92 39.00 C 31.36 40.27 28.86 42.20 30.65 43.39 C 32.26 45.04 34.34 42.97 35.28 41.56 C 37.30 38.68 34.81 33.64 31.22 34.11 M 42.45 36.34 C 40.56 40.99 45.72 44.04 49.00 46.14 C 52.31 44.09 57.42 40.97 55.55 36.35 C 54.43 33.60 51.25 33.80 49.00 34.85 C 46.75 33.80 43.56 33.60 42.45 36.34 Z" />
<path fill="#ffffff" opacity="1.00" d=" M 21.07 20.23 C 22.01 19.65 24.45 20.40 23.68 21.75 C 22.49 22.95 18.41 21.66 21.07 20.23 Z" />
<path fill="#ffffff" opacity="1.00" d=" M 37.06 20.24 C 38.00 19.64 40.44 20.39 39.68 21.75 C 38.50 22.94 34.41 21.68 37.06 20.24 Z" />
</g>
<g id="#000000ff">
<path fill="#000000" opacity="1.00" d=" M 8.09 12.93 C 8.88 9.06 12.71 5.55 16.81 6.10 C 19.23 6.47 20.45 8.80 21.69 10.61 C 27.17 9.70 32.83 9.70 38.30 10.60 C 39.63 8.53 41.23 5.97 44.03 6.00 C 47.85 6.08 51.21 9.35 51.91 13.02 C 52.49 15.40 50.62 17.22 49.33 18.94 C 51.68 22.29 53.27 26.10 53.98 30.12 C 52.66 30.12 51.34 30.12 50.02 30.12 C 48.34 22.73 42.81 15.58 35.09 14.11 C 30.05 14.13 24.44 13.00 19.95 15.94 C 14.45 19.40 10.04 25.40 10.02 32.09 C 10.30 36.91 13.77 40.77 17.19 43.83 C 20.85 46.87 25.14 49.77 30.04 49.98 C 34.17 49.85 37.77 47.49 41.13 45.32 C 42.15 46.21 43.19 47.08 44.24 47.94 C 39.07 51.69 32.60 55.44 26.01 53.39 C 18.05 50.87 10.95 45.10 7.30 37.55 C 4.35 31.33 6.94 24.21 10.67 18.95 C 9.35 17.21 7.47 15.35 8.09 12.93 Z" />
<path fill="#000000" opacity="1.00" d=" M 22.20 18.11 C 26.11 17.15 28.81 21.64 27.85 25.06 C 27.28 29.21 22.68 33.64 18.42 31.32 C 13.55 27.73 16.70 19.17 22.20 18.11 M 21.07 20.23 C 18.41 21.66 22.49 22.95 23.68 21.75 C 24.45 20.40 22.01 19.65 21.07 20.23 Z" />
<path fill="#000000" opacity="1.00" d=" M 34.44 18.66 C 38.36 16.51 42.72 20.26 43.65 24.05 C 44.67 27.02 43.50 31.27 40.05 31.91 C 33.53 32.78 28.97 22.61 34.44 18.66 M 37.06 20.24 C 34.41 21.68 38.50 22.94 39.68 21.75 C 40.44 20.39 38.00 19.64 37.06 20.24 Z" />
<path fill="#000000" opacity="1.00" d=" M 31.22 34.11 C 34.81 33.64 37.30 38.68 35.28 41.56 C 34.34 42.97 32.26 45.04 30.65 43.39 C 28.86 42.20 31.36 40.27 31.92 39.00 C 31.04 37.56 28.58 35.22 31.22 34.11 Z" />
<path fill="#000000" opacity="1.00" d=" M 42.45 36.34 C 43.56 33.60 46.75 33.80 49.00 34.85 C 51.25 33.80 54.43 33.60 55.55 36.35 C 57.42 40.97 52.31 44.09 49.00 46.14 C 45.72 44.04 40.56 40.99 42.45 36.34 Z" />
</g>
</svg>
