<?xml version="1.0" encoding="UTF-8" ?>
<!DOCTYPE svg PUBLIC "-//W3C//DTD SVG 1.1//EN" "http://www.w3.org/Graphics/SVG/1.1/DTD/svg11.dtd">
<svg width="64pt" height="64pt" viewBox="0 0 64 64" version="1.1" xmlns="http://www.w3.org/2000/svg">
<g id="#ffffffff">
<path fill="#ffffff" opacity="1.00" d=" M 0.00 0.00 L 64.00 0.00 L 64.00 64.00 L 0.00 64.00 L 0.00 0.00 M 33.99 8.00 C 32.74 15.18 31.55 22.37 30.35 29.55 C 30.06 31.86 28.12 33.39 26.89 35.21 C 25.87 33.73 25.05 32.14 24.17 30.57 C 22.90 32.74 21.60 34.89 20.33 37.05 C 22.13 37.08 23.94 37.16 25.75 37.17 C 23.73 41.11 22.97 45.49 21.36 49.57 C 19.63 53.51 12.63 52.55 12.10 48.17 C 11.18 40.48 18.20 34.63 17.69 27.01 C 17.52 22.97 15.42 19.34 12.95 16.26 C 11.98 17.19 11.02 18.13 10.06 19.07 C 12.32 22.07 14.40 25.77 13.53 29.66 C 12.25 34.55 9.06 38.79 8.31 43.86 C 7.70 46.95 7.96 50.44 10.11 52.91 C 13.27 56.92 19.88 56.92 23.46 53.51 C 26.94 49.70 26.29 43.87 29.27 39.79 C 29.94 41.10 30.58 42.42 31.21 43.75 C 32.64 41.69 34.00 39.57 35.30 37.42 C 33.62 37.39 31.95 37.35 30.27 37.30 C 31.16 36.14 32.08 34.99 32.99 33.85 C 40.68 32.70 48.33 31.30 56.00 30.01 C 56.00 22.67 56.00 15.34 56.00 8.00 C 48.66 8.00 41.33 8.00 33.99 8.00 Z" />
<path fill="#ffffff" opacity="1.00" d=" M 38.52 12.01 C 42.56 11.99 46.60 12.00 50.64 12.00 C 48.59 14.02 46.54 16.04 44.48 18.06 C 42.50 16.04 40.51 14.02 38.52 12.01 Z" />
<path fill="#ffffff" opacity="1.00" d=" M 37.13 13.50 C 39.11 15.49 41.08 17.49 43.06 19.49 C 40.31 22.28 37.53 25.03 34.76 27.79 C 35.54 23.03 36.33 18.26 37.13 13.50 Z" />
<path fill="#ffffff" opacity="1.00" d=" M 45.94 19.49 C 47.96 17.46 49.98 15.42 52.00 13.39 C 52.00 17.48 52.00 21.58 52.00 25.68 C 49.97 23.62 47.96 21.56 45.94 19.49 Z" />
<path fill="#ffffff" opacity="1.00" d=" M 44.48 20.94 C 46.46 22.90 48.42 24.88 50.36 26.88 C 45.64 27.63 40.95 28.55 36.22 29.24 C 38.96 26.45 41.74 23.72 44.48 20.94 Z" />
</g>
<g id="#000000ff">
<path fill="#000000" opacity="1.00" d=" M 33.99 8.00 C 41.33 8.00 48.66 8.00 56.00 8.00 C 56.00 15.34 56.00 22.67 56.00 30.01 C 48.33 31.30 40.68 32.70 32.99 33.85 C 32.08 34.99 31.16 36.14 30.27 37.30 C 31.95 37.35 33.62 37.39 35.30 37.42 C 34.00 39.57 32.64 41.69 31.21 43.75 C 30.58 42.42 29.94 41.10 29.27 39.79 C 26.29 43.87 26.94 49.70 23.46 53.51 C 19.88 56.92 13.27 56.92 10.11 52.91 C 7.96 50.44 7.70 46.95 8.31 43.86 C 9.06 38.79 12.25 34.55 13.53 29.66 C 14.40 25.77 12.32 22.07 10.06 19.07 C 11.02 18.13 11.98 17.19 12.95 16.26 C 15.42 19.34 17.52 22.97 17.69 27.01 C 18.20 34.63 11.18 40.48 12.10 48.17 C 12.63 52.55 19.63 53.51 21.36 49.57 C 22.97 45.49 23.73 41.11 25.75 37.17 C 23.94 37.16 22.13 37.08 20.33 37.05 C 21.60 34.89 22.90 32.74 24.17 30.57 C 25.05 32.14 25.87 33.73 26.89 35.21 C 28.12 33.39 30.06 31.86 30.35 29.55 C 31.55 22.37 32.74 15.18 33.99 8.00 M 38.52 12.01 C 40.51 14.02 42.50 16.04 44.48 18.06 C 46.54 16.04 48.59 14.02 50.64 12.00 C 46.60 12.00 42.56 11.99 38.52 12.01 M 37.13 13.50 C 36.33 18.26 35.54 23.03 34.76 27.79 C 37.53 25.03 40.31 22.28 43.06 19.49 C 41.08 17.49 39.11 15.49 37.13 13.50 M 45.94 19.49 C 47.96 21.56 49.97 23.62 52.00 25.68 C 52.00 21.58 52.00 17.48 52.00 13.39 C 49.98 15.42 47.96 17.46 45.94 19.49 M 44.48 20.94 C 41.74 23.72 38.96 26.45 36.22 29.24 C 40.95 28.55 45.64 27.63 50.36 26.88 C 48.42 24.88 46.46 22.90 44.48 20.94 Z" />
</g>
</svg>
