<?xml version="1.0" encoding="UTF-8" ?>
<!DOCTYPE svg PUBLIC "-//W3C//DTD SVG 1.1//EN" "http://www.w3.org/Graphics/SVG/1.1/DTD/svg11.dtd">
<svg width="64pt" height="64pt" viewBox="0 0 64 64" version="1.1" xmlns="http://www.w3.org/2000/svg">
<g id="#ffffffff">
<path fill="#ffffff" opacity="1.00" d=" M 0.00 0.00 L 64.00 0.00 L 64.00 64.00 L 0.00 64.00 L 0.00 0.00 M 21.82 13.64 C 20.60 16.54 20.06 19.65 19.92 22.78 C 21.41 24.39 23.02 25.89 24.74 27.26 C 23.05 29.03 21.67 31.07 20.65 33.30 C 21.90 33.74 23.16 34.18 24.41 34.62 C 25.47 32.51 26.88 30.59 28.83 29.23 C 32.23 30.16 35.78 30.15 39.18 29.23 C 42.16 31.19 43.82 34.46 44.18 37.96 C 45.50 37.94 46.81 37.92 48.13 37.91 C 47.86 33.88 46.18 30.08 43.24 27.30 C 44.95 25.92 46.55 24.40 48.07 22.81 C 47.94 19.66 47.40 16.55 46.17 13.64 C 47.18 9.55 45.21 5.64 41.96 3.22 C 40.36 4.82 38.76 6.42 37.15 8.01 C 35.04 8.00 32.94 8.00 30.83 8.00 C 29.24 6.42 27.65 4.83 26.07 3.24 C 22.75 5.60 20.74 9.55 21.82 13.64 M 6.01 42.90 C 7.33 46.61 8.65 50.32 9.98 54.03 C 13.28 52.81 16.58 51.58 19.84 50.25 C 24.61 52.87 29.39 55.49 34.16 58.12 C 42.35 54.69 50.58 51.36 58.76 47.90 C 58.25 46.67 57.74 45.44 57.24 44.21 C 49.59 47.35 42.00 50.60 34.33 53.68 C 29.62 51.03 24.87 48.46 20.13 45.86 C 17.55 46.86 14.96 47.85 12.38 48.84 C 11.95 47.64 11.52 46.44 11.09 45.24 C 14.39 44.15 17.52 42.24 21.04 42.01 C 24.26 41.80 26.36 44.58 28.84 46.13 C 32.11 48.34 36.26 47.91 40.01 48.08 C 40.00 46.74 39.99 45.40 39.97 44.07 C 37.24 43.92 34.34 44.25 31.74 43.20 C 28.60 41.38 26.04 38.14 22.12 38.06 C 16.36 37.79 11.37 41.32 6.01 42.90 Z" />
<path fill="#ffffff" opacity="1.00" d=" M 38.81 12.00 C 39.89 10.94 40.97 9.88 42.07 8.84 C 42.74 10.58 42.57 12.41 41.95 14.15 C 42.86 16.94 45.47 21.15 42.12 23.20 C 37.02 27.42 28.49 26.83 24.27 21.62 C 23.97 18.99 25.12 16.52 26.06 14.14 C 25.43 12.42 25.09 10.55 26.04 8.87 C 27.09 9.91 28.14 10.95 29.17 12.00 C 32.39 12.00 35.60 12.00 38.81 12.00 M 29.22 16.17 C 26.79 17.09 28.45 20.93 30.81 19.90 C 33.15 18.86 31.57 15.07 29.22 16.17 M 37.11 16.10 C 34.88 17.34 36.47 20.88 38.87 19.88 C 41.14 18.69 39.53 15.12 37.11 16.10 Z" />
</g>
<g id="#000000ff">
<path fill="#000000" opacity="1.00" d=" M 21.82 13.64 C 20.74 9.55 22.75 5.60 26.07 3.24 C 27.65 4.83 29.24 6.42 30.83 8.00 C 32.94 8.00 35.04 8.00 37.15 8.01 C 38.76 6.42 40.36 4.82 41.96 3.22 C 45.21 5.64 47.18 9.55 46.17 13.64 C 47.40 16.55 47.94 19.66 48.07 22.81 C 46.55 24.40 44.95 25.92 43.24 27.30 C 46.18 30.08 47.86 33.88 48.13 37.91 C 46.81 37.92 45.50 37.94 44.18 37.96 C 43.82 34.46 42.16 31.19 39.18 29.23 C 35.78 30.15 32.23 30.16 28.83 29.23 C 26.88 30.59 25.47 32.51 24.41 34.62 C 23.16 34.18 21.90 33.74 20.65 33.30 C 21.67 31.07 23.05 29.03 24.74 27.26 C 23.02 25.89 21.41 24.39 19.92 22.78 C 20.06 19.65 20.60 16.54 21.82 13.64 M 38.81 12.00 C 35.60 12.00 32.39 12.00 29.17 12.00 C 28.14 10.95 27.09 9.91 26.04 8.87 C 25.09 10.55 25.43 12.42 26.06 14.14 C 25.12 16.52 23.97 18.99 24.27 21.62 C 28.49 26.83 37.02 27.42 42.12 23.20 C 45.47 21.15 42.86 16.94 41.95 14.15 C 42.57 12.41 42.74 10.58 42.07 8.84 C 40.97 9.88 39.89 10.94 38.81 12.00 Z" />
<path fill="#000000" opacity="1.00" d=" M 29.22 16.17 C 31.57 15.07 33.15 18.86 30.81 19.90 C 28.45 20.93 26.79 17.09 29.22 16.17 Z" />
<path fill="#000000" opacity="1.00" d=" M 37.11 16.10 C 39.53 15.12 41.14 18.69 38.87 19.88 C 36.47 20.88 34.88 17.34 37.11 16.10 Z" />
<path fill="#000000" opacity="1.00" d=" M 6.01 42.90 C 11.37 41.32 16.36 37.79 22.12 38.06 C 26.04 38.14 28.60 41.38 31.74 43.20 C 34.34 44.25 37.24 43.92 39.97 44.07 C 39.99 45.40 40.00 46.74 40.01 48.08 C 36.26 47.91 32.11 48.34 28.84 46.13 C 26.36 44.58 24.26 41.80 21.04 42.01 C 17.52 42.24 14.39 44.15 11.09 45.24 C 11.52 46.44 11.95 47.64 12.38 48.84 C 14.96 47.85 17.55 46.86 20.13 45.86 C 24.87 48.46 29.62 51.03 34.33 53.68 C 42.00 50.60 49.59 47.35 57.24 44.21 C 57.74 45.44 58.25 46.67 58.76 47.90 C 50.58 51.36 42.35 54.69 34.16 58.12 C 29.39 55.49 24.61 52.87 19.84 50.25 C 16.58 51.58 13.28 52.81 9.98 54.03 C 8.65 50.32 7.33 46.61 6.01 42.90 Z" />
</g>
</svg>
