<?xml version="1.0" encoding="UTF-8" ?>
<!DOCTYPE svg PUBLIC "-//W3C//DTD SVG 1.1//EN" "http://www.w3.org/Graphics/SVG/1.1/DTD/svg11.dtd">
<svg width="60pt" height="60pt" viewBox="0 0 60 60" version="1.1" xmlns="http://www.w3.org/2000/svg">
<g id="#ffffffff">
<path fill="#ffffff" opacity="1.00" d=" M 0.00 0.00 L 60.00 0.00 L 60.00 60.00 L 0.00 60.00 L 0.00 0.00 M 28.56 6.74 C 14.97 9.97 4.11 23.97 6.34 38.12 C 7.49 46.31 14.62 53.03 22.85 53.78 C 38.90 55.62 54.34 40.99 53.95 24.96 C 53.86 19.06 51.10 13.16 46.25 9.71 C 41.23 6.01 34.51 5.27 28.56 6.74 Z" />
<path fill="#ffffff" opacity="1.00" d=" M 30.63 24.31 C 29.59 22.44 27.01 19.42 30.08 18.11 C 34.02 18.17 31.87 22.37 30.63 24.31 Z" />
<path fill="#ffffff" opacity="1.00" d=" M 37.12 20.10 C 38.53 19.65 39.92 20.54 40.06 22.03 C 39.71 24.38 36.73 24.14 35.06 24.94 C 35.66 23.32 35.74 21.32 37.12 20.10 Z" />
<path fill="#ffffff" opacity="1.00" d=" M 22.55 22.58 C 25.45 20.38 26.53 24.93 26.94 26.94 C 24.94 26.52 20.42 25.48 22.55 22.58 Z" />
<path fill="#ffffff" opacity="1.00" d=" M 35.71 29.49 C 37.20 28.66 38.71 27.85 40.28 27.17 C 42.03 28.25 42.49 30.96 40.09 31.56 C 38.53 31.09 37.14 30.23 35.71 29.49 Z" />
<path fill="#ffffff" opacity="1.00" d=" M 18.45 31.70 C 17.68 30.31 18.48 28.92 19.88 28.42 C 21.49 28.85 22.89 29.80 24.28 30.69 C 22.42 31.28 20.21 33.64 18.45 31.70 Z" />
<path fill="#ffffff" opacity="1.00" d=" M 33.06 33.06 C 34.66 33.71 36.80 33.69 37.91 35.21 C 38.64 37.13 36.14 38.94 34.62 37.48 C 33.93 36.07 33.41 34.60 33.06 33.06 Z" />
<path fill="#ffffff" opacity="1.00" d=" M 20.52 36.62 C 21.92 35.92 23.40 35.41 24.94 35.06 C 24.14 36.71 24.39 39.79 21.99 40.04 C 20.31 39.98 19.34 37.87 20.52 36.62 Z" />
<path fill="#ffffff" opacity="1.00" d=" M 27.40 40.15 C 27.77 38.54 28.62 37.09 29.55 35.74 C 30.14 37.58 32.72 39.84 30.58 41.53 C 29.34 42.39 27.80 41.46 27.40 40.15 Z" />
</g>
<g id="#000000ff">
<path fill="#000000" opacity="1.00" d=" M 28.56 6.74 C 34.51 5.27 41.23 6.01 46.25 9.71 C 51.10 13.16 53.86 19.06 53.95 24.96 C 54.34 40.99 38.90 55.62 22.85 53.78 C 14.62 53.03 7.49 46.31 6.34 38.12 C 4.11 23.97 14.97 9.97 28.56 6.74 M 30.63 24.31 C 31.87 22.37 34.02 18.17 30.08 18.11 C 27.01 19.42 29.59 22.44 30.63 24.31 M 37.12 20.10 C 35.74 21.32 35.66 23.32 35.06 24.94 C 36.73 24.14 39.71 24.38 40.06 22.03 C 39.92 20.54 38.53 19.65 37.12 20.10 M 22.55 22.58 C 20.42 25.48 24.94 26.52 26.94 26.94 C 26.53 24.93 25.45 20.38 22.55 22.58 M 35.71 29.49 C 37.14 30.23 38.53 31.09 40.09 31.56 C 42.49 30.96 42.03 28.25 40.28 27.17 C 38.71 27.85 37.20 28.66 35.71 29.49 M 18.45 31.70 C 20.21 33.64 22.42 31.28 24.28 30.69 C 22.89 29.80 21.49 28.85 19.88 28.42 C 18.48 28.92 17.68 30.31 18.45 31.70 M 33.06 33.06 C 33.41 34.60 33.93 36.07 34.62 37.48 C 36.14 38.94 38.64 37.13 37.91 35.21 C 36.80 33.69 34.66 33.71 33.06 33.06 M 20.52 36.62 C 19.34 37.87 20.31 39.98 21.99 40.04 C 24.39 39.79 24.14 36.71 24.94 35.06 C 23.40 35.41 21.92 35.92 20.52 36.62 M 27.40 40.15 C 27.80 41.46 29.34 42.39 30.58 41.53 C 32.72 39.84 30.14 37.58 29.55 35.74 C 28.62 37.09 27.77 38.54 27.40 40.15 Z" />
</g>
</svg>
