<?xml version="1.0" encoding="UTF-8" ?>
<!DOCTYPE svg PUBLIC "-//W3C//DTD SVG 1.1//EN" "http://www.w3.org/Graphics/SVG/1.1/DTD/svg11.dtd">
<svg width="60pt" height="60pt" viewBox="0 0 60 60" version="1.1" xmlns="http://www.w3.org/2000/svg">
<g id="#ffffffff">
<path fill="#ffffff" opacity="1.00" d=" M 0.00 0.00 L 60.00 0.00 L 60.00 60.00 L 0.00 60.00 L 0.00 0.00 M 47.25 6.16 C 34.09 17.64 22.33 30.66 8.90 41.85 C 7.04 43.25 5.44 45.45 6.14 47.90 C 6.78 51.59 11.87 53.37 14.58 50.72 C 19.19 46.23 22.94 40.94 27.33 36.23 C 30.01 33.67 34.14 37.37 36.99 35.01 C 40.06 32.42 43.11 29.76 45.77 26.76 C 49.64 21.36 49.94 14.32 49.91 7.92 C 50.06 6.50 48.47 5.67 47.25 6.16 Z" />
</g>
<g id="#000000ff">
<path fill="#000000" opacity="1.00" d=" M 47.25 6.16 C 48.47 5.67 50.06 6.50 49.91 7.92 C 49.94 14.32 49.64 21.36 45.77 26.76 C 43.11 29.76 40.06 32.42 36.99 35.01 C 34.14 37.37 30.01 33.67 27.33 36.23 C 22.94 40.94 19.19 46.23 14.58 50.72 C 11.87 53.37 6.78 51.59 6.14 47.90 C 5.44 45.45 7.04 43.25 8.90 41.85 C 22.33 30.66 34.09 17.64 47.25 6.16 Z" />
</g>
</svg>
