<?xml version="1.0" encoding="UTF-8" ?>
<!DOCTYPE svg PUBLIC "-//W3C//DTD SVG 1.1//EN" "http://www.w3.org/Graphics/SVG/1.1/DTD/svg11.dtd">
<svg width="64pt" height="64pt" viewBox="0 0 64 64" version="1.1" xmlns="http://www.w3.org/2000/svg">
<g id="#ffffffff">
<path fill="#ffffff" opacity="1.00" d=" M 0.00 0.00 L 64.00 0.00 L 64.00 64.00 L 0.00 64.00 L 0.00 0.00 M 30.00 4.00 C 30.00 7.20 30.00 10.41 29.99 13.61 C 29.05 12.01 28.12 10.42 27.19 8.82 C 22.18 10.92 17.39 14.35 15.32 19.55 C 12.21 26.76 15.96 34.79 13.44 42.11 C 12.70 44.34 11.09 46.09 9.59 47.82 C 12.69 54.24 19.41 57.60 25.73 60.08 C 28.55 61.00 31.58 62.75 34.54 61.37 C 42.11 58.83 50.57 55.43 54.28 47.80 C 52.85 46.04 51.25 44.32 50.55 42.12 C 48.22 34.78 51.65 26.78 48.69 19.57 C 46.60 14.34 41.87 10.76 36.84 8.59 C 35.89 10.26 34.95 11.93 34.00 13.61 C 34.00 10.40 34.00 7.20 34.00 4.00 C 32.67 4.00 31.33 4.00 30.00 4.00 Z" />
<path fill="#ffffff" opacity="1.00" d=" M 18.02 26.01 C 17.87 20.81 21.30 16.35 25.56 13.73 C 27.75 17.40 29.80 21.14 32.00 24.80 C 34.20 21.14 36.26 17.40 38.44 13.73 C 43.05 16.48 46.46 21.48 45.99 27.01 C 45.58 34.21 44.66 42.21 49.36 48.33 C 44.90 53.50 38.32 55.99 32.00 58.02 C 25.67 55.92 18.99 53.61 14.40 48.52 C 19.63 42.13 17.84 33.58 18.02 26.01 M 19.90 30.01 C 21.09 32.87 21.99 36.42 25.03 37.86 C 27.70 38.71 29.66 36.45 30.21 34.09 C 26.78 32.72 23.36 31.31 19.90 30.01 M 33.79 34.09 C 34.34 36.44 36.28 38.68 38.94 37.88 C 42.00 36.43 42.91 32.88 44.10 30.01 C 40.64 31.31 37.22 32.72 33.79 34.09 Z" />
</g>
<g id="#000000ff">
<path fill="#000000" opacity="1.00" d=" M 30.00 4.00 C 31.33 4.00 32.67 4.00 34.00 4.00 C 34.00 7.20 34.00 10.40 34.00 13.61 C 34.95 11.93 35.89 10.26 36.84 8.59 C 41.87 10.76 46.60 14.34 48.69 19.57 C 51.65 26.78 48.22 34.78 50.55 42.12 C 51.25 44.32 52.85 46.04 54.28 47.80 C 50.57 55.43 42.11 58.83 34.54 61.37 C 31.58 62.75 28.55 61.00 25.73 60.08 C 19.41 57.60 12.69 54.24 9.59 47.82 C 11.09 46.09 12.70 44.34 13.44 42.11 C 15.96 34.79 12.21 26.76 15.32 19.55 C 17.39 14.35 22.18 10.92 27.19 8.82 C 28.12 10.42 29.05 12.01 29.99 13.61 C 30.00 10.41 30.00 7.20 30.00 4.00 M 18.02 26.01 C 17.84 33.58 19.63 42.13 14.40 48.52 C 18.99 53.61 25.67 55.92 32.00 58.02 C 38.32 55.99 44.90 53.50 49.36 48.33 C 44.66 42.21 45.58 34.21 45.99 27.01 C 46.46 21.48 43.05 16.48 38.44 13.73 C 36.26 17.40 34.20 21.14 32.00 24.80 C 29.80 21.14 27.75 17.40 25.56 13.73 C 21.30 16.35 17.87 20.81 18.02 26.01 Z" />
<path fill="#000000" opacity="1.00" d=" M 19.90 30.01 C 23.36 31.31 26.78 32.72 30.21 34.09 C 29.66 36.45 27.70 38.71 25.03 37.86 C 21.99 36.42 21.09 32.87 19.90 30.01 Z" />
<path fill="#000000" opacity="1.00" d=" M 33.79 34.09 C 37.22 32.72 40.64 31.31 44.10 30.01 C 42.91 32.88 42.00 36.43 38.94 37.88 C 36.28 38.68 34.34 36.44 33.79 34.09 Z" />
</g>
</svg>
