<?xml version="1.0" encoding="UTF-8" ?>
<!DOCTYPE svg PUBLIC "-//W3C//DTD SVG 1.1//EN" "http://www.w3.org/Graphics/SVG/1.1/DTD/svg11.dtd">
<svg width="60pt" height="60pt" viewBox="0 0 60 60" version="1.1" xmlns="http://www.w3.org/2000/svg">
<g id="#ffffffff">
<path fill="#ffffff" opacity="1.00" d=" M 0.00 0.00 L 60.00 0.00 L 60.00 60.00 L 0.00 60.00 L 0.00 0.00 M 25.75 9.89 C 23.59 11.33 21.48 13.09 20.72 15.68 C 18.66 21.69 21.73 27.71 22.10 33.72 C 21.65 34.02 20.76 34.61 20.31 34.91 C 20.33 37.72 16.94 38.50 16.49 41.08 C 16.32 41.81 15.98 43.26 15.82 43.98 C 25.27 44.01 34.72 44.01 44.18 43.98 C 43.93 41.08 42.54 38.51 40.13 36.86 C 40.01 35.50 39.32 34.43 38.18 33.68 C 37.59 28.79 34.52 24.55 30.27 22.13 C 31.91 21.65 33.47 20.93 34.95 20.07 C 36.93 20.02 38.94 20.09 40.91 19.81 C 42.70 18.64 41.80 16.23 41.82 14.47 C 37.70 13.35 34.31 10.40 30.01 9.83 C 30.00 8.47 29.98 7.11 29.95 5.75 C 27.87 6.34 26.25 7.73 25.75 9.89 M 13.14 48.20 C 11.24 48.96 11.91 52.15 14.01 51.92 C 24.67 52.06 35.35 52.06 46.00 51.92 C 48.61 52.16 48.60 47.83 46.00 48.08 C 35.05 48.02 24.07 47.78 13.14 48.20 Z" />
</g>
<g id="#000000ff">
<path fill="#968176" opacity="1.00" d=" M 25.75 9.89 C 26.25 7.73 27.87 6.34 29.95 5.75 C 29.98 7.11 30.00 8.47 30.01 9.83 C 34.31 10.40 37.70 13.35 41.82 14.47 C 41.80 16.23 42.70 18.64 40.91 19.81 C 38.94 20.09 36.93 20.02 34.95 20.07 C 33.47 20.93 31.91 21.65 30.27 22.13 C 34.52 24.55 37.59 28.79 38.18 33.68 C 39.32 34.43 40.01 35.50 40.13 36.86 C 42.54 38.51 43.93 41.08 44.18 43.98 C 34.72 44.01 25.27 44.01 15.82 43.98 C 15.98 43.26 16.32 41.81 16.49 41.08 C 16.94 38.50 20.33 37.72 20.31 34.91 C 20.76 34.61 21.65 34.02 22.10 33.72 C 21.73 27.71 18.66 21.69 20.72 15.68 C 21.48 13.09 23.59 11.33 25.75 9.89 Z" />
<path fill="#968176" opacity="1.00" d=" M 13.14 48.20 C 24.07 47.78 35.05 48.02 46.00 48.08 C 48.60 47.83 48.61 52.16 46.00 51.92 C 35.35 52.06 24.67 52.06 14.01 51.92 C 11.91 52.15 11.24 48.96 13.14 48.20 Z" />
</g>
</svg>
