<?xml version="1.0" encoding="UTF-8" ?>
<!DOCTYPE svg PUBLIC "-//W3C//DTD SVG 1.1//EN" "http://www.w3.org/Graphics/SVG/1.1/DTD/svg11.dtd">
<svg width="60pt" height="60pt" viewBox="0 0 60 60" version="1.1" xmlns="http://www.w3.org/2000/svg">
<g id="#ffffffff">
<path fill="#ffffff" opacity="1.00" d=" M 0.00 0.00 L 60.00 0.00 L 60.00 60.00 L 0.00 60.00 L 0.00 0.00 M 29.24 4.19 C 26.73 5.09 28.52 9.01 30.91 7.89 C 33.12 6.73 31.51 3.06 29.24 4.19 M 19.19 8.15 C 16.81 9.15 18.43 12.88 20.81 11.88 C 23.17 10.88 21.57 7.07 19.19 8.15 M 39.13 8.11 C 36.91 9.24 38.38 12.80 40.78 11.91 C 43.18 10.82 41.56 7.10 39.13 8.11 M 15.15 16.11 C 12.84 17.15 14.45 20.96 16.77 19.81 C 19.24 18.91 17.51 15.05 15.15 16.11 M 43.26 16.12 C 40.81 17.03 42.36 20.88 44.79 19.89 C 47.13 18.90 45.65 15.17 43.26 16.12 M 8.04 26.25 C 7.95 34.83 8.03 43.42 8.00 52.00 C 11.29 52.00 14.59 52.00 17.88 52.00 C 17.94 50.74 18.07 49.49 18.27 48.24 C 20.07 46.62 22.97 47.21 24.95 45.85 C 26.72 44.29 25.56 41.73 25.54 39.74 C 26.48 39.23 27.41 38.69 28.31 38.12 C 27.01 36.68 25.88 35.08 25.73 33.08 C 25.02 28.37 20.85 24.42 16.08 24.09 C 13.20 23.66 10.49 24.89 8.04 26.25 M 36.76 27.78 C 33.77 30.62 34.89 35.45 31.68 38.12 C 32.59 38.69 33.51 39.23 34.46 39.74 C 34.45 41.60 33.46 43.77 34.65 45.44 C 36.49 47.39 39.85 46.44 41.73 48.26 C 41.93 49.50 42.06 50.75 42.12 52.00 C 45.41 52.00 48.71 52.00 52.00 52.00 C 51.97 43.41 52.07 34.81 51.94 26.22 C 47.32 23.07 40.43 23.23 36.76 27.78 Z" />
<path fill="#ffffff" opacity="1.00" d=" M 13.21 28.10 C 15.60 27.15 17.19 30.90 14.77 31.84 C 12.40 32.93 10.83 29.06 13.21 28.10 Z" />
<path fill="#ffffff" opacity="1.00" d=" M 45.08 28.10 C 47.48 27.02 49.26 30.86 46.77 31.83 C 44.45 32.90 42.91 29.27 45.08 28.10 Z" />
<path fill="#ffffff" opacity="1.00" d=" M 13.19 36.11 C 15.58 35.17 17.11 38.71 14.87 39.90 C 12.42 40.89 10.83 37.18 13.19 36.11 Z" />
<path fill="#ffffff" opacity="1.00" d=" M 45.09 36.10 C 47.52 35.11 49.14 38.68 46.87 39.88 C 44.47 40.87 42.90 37.35 45.09 36.10 Z" />
<path fill="#ffffff" opacity="1.00" d=" M 13.22 44.09 C 15.66 43.17 17.15 46.92 14.75 47.90 C 12.32 48.82 10.88 45.09 13.22 44.09 Z" />
</g>
<g id="#000000ff">
<path fill="#968176" opacity="1.00" d=" M 29.24 4.19 C 31.51 3.06 33.12 6.73 30.91 7.89 C 28.52 9.01 26.73 5.09 29.24 4.19 Z" />
<path fill="#968176" opacity="1.00" d=" M 19.19 8.15 C 21.57 7.07 23.17 10.88 20.81 11.88 C 18.43 12.88 16.81 9.15 19.19 8.15 Z" />
<path fill="#968176" opacity="1.00" d=" M 39.13 8.11 C 41.56 7.10 43.18 10.82 40.78 11.91 C 38.38 12.80 36.91 9.24 39.13 8.11 Z" />
<path fill="#968176" opacity="1.00" d=" M 15.15 16.11 C 17.51 15.05 19.24 18.91 16.77 19.81 C 14.45 20.96 12.84 17.15 15.15 16.11 Z" />
<path fill="#968176" opacity="1.00" d=" M 43.26 16.12 C 45.65 15.17 47.13 18.90 44.79 19.89 C 42.36 20.88 40.81 17.03 43.26 16.12 Z" />
<path fill="#968176" opacity="1.00" d=" M 8.04 26.25 C 10.49 24.89 13.20 23.66 16.08 24.09 C 20.85 24.42 25.02 28.37 25.73 33.08 C 25.88 35.08 27.01 36.68 28.31 38.12 C 27.41 38.69 26.48 39.23 25.54 39.74 C 25.56 41.73 26.72 44.29 24.95 45.85 C 22.97 47.21 20.07 46.62 18.27 48.24 C 18.07 49.49 17.94 50.74 17.88 52.00 C 14.59 52.00 11.29 52.00 8.00 52.00 C 8.03 43.42 7.95 34.83 8.04 26.25 M 13.21 28.10 C 10.83 29.06 12.40 32.93 14.77 31.84 C 17.19 30.90 15.60 27.15 13.21 28.10 M 13.19 36.11 C 10.83 37.18 12.42 40.89 14.87 39.90 C 17.11 38.71 15.58 35.17 13.19 36.11 M 13.22 44.09 C 10.88 45.09 12.32 48.82 14.75 47.90 C 17.15 46.92 15.66 43.17 13.22 44.09 Z" />
<path fill="#968176" opacity="1.00" d=" M 36.76 27.78 C 40.43 23.23 47.32 23.07 51.94 26.22 C 52.07 34.81 51.97 43.41 52.00 52.00 C 48.71 52.00 45.41 52.00 42.12 52.00 C 42.06 50.75 41.93 49.50 41.73 48.26 C 39.85 46.44 36.49 47.39 34.65 45.44 C 33.46 43.77 34.45 41.60 34.46 39.74 C 33.51 39.23 32.59 38.69 31.68 38.12 C 34.89 35.45 33.77 30.62 36.76 27.78 M 45.08 28.10 C 42.91 29.27 44.45 32.90 46.77 31.83 C 49.26 30.86 47.48 27.02 45.08 28.10 M 45.09 36.10 C 42.90 37.35 44.47 40.87 46.87 39.88 C 49.14 38.68 47.52 35.11 45.09 36.10 Z" />
</g>
</svg>
