<?xml version="1.0" encoding="UTF-8" ?>
<!DOCTYPE svg PUBLIC "-//W3C//DTD SVG 1.1//EN" "http://www.w3.org/Graphics/SVG/1.1/DTD/svg11.dtd">
<svg width="60pt" height="60pt" viewBox="0 0 60 60" version="1.1" xmlns="http://www.w3.org/2000/svg">
<g id="#ffffffff">
<path fill="#ffffff" opacity="1.00" d=" M 0.00 0.00 L 60.00 0.00 L 60.00 60.00 L 0.00 60.00 L 0.00 0.00 M 22.08 7.98 C 21.97 13.60 21.84 19.25 22.17 24.86 C 22.40 25.08 22.88 25.52 23.12 25.75 C 28.36 26.05 33.33 27.60 37.97 30.01 C 41.54 28.61 44.93 26.51 48.86 26.30 C 50.49 25.85 52.74 26.47 53.83 24.86 C 54.12 18.95 54.14 13.00 53.82 7.09 C 53.56 6.85 53.06 6.37 52.80 6.13 C 47.64 5.64 42.61 7.45 38.00 9.59 C 33.90 7.68 29.54 6.10 24.98 6.03 C 23.71 5.78 21.87 6.38 22.08 7.98 M 4.00 34.02 C 4.00 39.35 4.00 44.67 4.00 50.00 C 7.39 48.73 10.53 46.75 14.07 45.97 C 21.26 48.06 27.89 51.76 35.01 54.03 C 41.64 51.28 47.70 47.20 54.05 43.83 C 57.01 42.79 56.29 38.01 53.10 38.02 C 47.22 39.48 42.08 43.13 36.08 44.23 C 37.43 42.88 38.96 40.58 37.13 38.93 C 33.68 36.77 29.74 35.56 26.07 33.82 C 22.73 32.53 19.59 30.49 15.99 30.00 C 11.81 30.71 8.03 32.80 4.00 34.02 Z" />
<path fill="#ffffff" opacity="1.00" d=" M 26.01 10.17 C 29.47 10.69 32.85 11.58 36.01 13.10 C 35.99 16.96 36.00 20.83 36.01 24.69 C 32.81 23.37 29.44 22.54 26.00 22.18 C 26.01 18.18 25.99 14.17 26.01 10.17 Z" />
<path fill="#ffffff" opacity="1.00" d=" M 39.99 13.10 C 43.15 11.57 46.54 10.69 49.99 10.17 C 50.01 14.17 49.99 18.17 50.00 22.18 C 46.56 22.54 43.19 23.36 39.99 24.69 C 40.00 20.82 40.01 16.96 39.99 13.10 Z" />
</g>
<g id="#000000ff">
<path fill="#000000" opacity="1.00" d=" M 22.08 7.98 C 21.87 6.38 23.71 5.78 24.98 6.03 C 29.54 6.10 33.90 7.68 38.00 9.59 C 42.61 7.45 47.64 5.64 52.80 6.13 C 53.06 6.37 53.56 6.85 53.82 7.09 C 54.14 13.00 54.12 18.95 53.83 24.86 C 52.74 26.47 50.49 25.85 48.86 26.30 C 44.93 26.51 41.54 28.61 37.97 30.01 C 33.33 27.60 28.36 26.05 23.12 25.75 C 22.88 25.52 22.40 25.08 22.17 24.86 C 21.84 19.25 21.97 13.60 22.08 7.98 M 26.01 10.17 C 25.99 14.17 26.01 18.18 26.00 22.18 C 29.44 22.54 32.81 23.37 36.01 24.69 C 36.00 20.83 35.99 16.96 36.01 13.10 C 32.85 11.58 29.47 10.69 26.01 10.17 M 39.99 13.10 C 40.01 16.96 40.00 20.82 39.99 24.69 C 43.19 23.36 46.56 22.54 50.00 22.18 C 49.99 18.17 50.01 14.17 49.99 10.17 C 46.54 10.69 43.15 11.57 39.99 13.10 Z" />
<path fill="#000000" opacity="1.00" d=" M 4.00 34.02 C 8.03 32.80 11.81 30.71 15.99 30.00 C 19.59 30.49 22.73 32.53 26.07 33.82 C 29.74 35.56 33.68 36.77 37.13 38.93 C 38.96 40.58 37.43 42.88 36.08 44.23 C 42.08 43.13 47.22 39.48 53.10 38.02 C 56.29 38.01 57.01 42.79 54.05 43.83 C 47.70 47.20 41.64 51.28 35.01 54.03 C 27.89 51.76 21.26 48.06 14.07 45.97 C 10.53 46.75 7.39 48.73 4.00 50.00 C 4.00 44.67 4.00 39.35 4.00 34.02 Z" />
</g>
</svg>
