<?xml version="1.0" encoding="UTF-8" ?>
<!DOCTYPE svg PUBLIC "-//W3C//DTD SVG 1.1//EN" "http://www.w3.org/Graphics/SVG/1.1/DTD/svg11.dtd">
<svg width="64pt" height="64pt" viewBox="0 0 64 64" version="1.1" xmlns="http://www.w3.org/2000/svg">
<g id="#ffffffff">
<path fill="#ffffff" opacity="1.00" d=" M 0.00 0.00 L 64.00 0.00 L 64.00 64.00 L 0.00 64.00 L 0.00 0.00 M 38.45 5.84 C 36.89 9.83 35.33 13.83 33.77 17.82 C 35.94 18.67 38.03 19.70 40.03 20.89 C 42.71 16.55 45.38 12.22 48.06 7.88 C 46.94 7.16 45.82 6.45 44.70 5.73 C 43.08 8.38 41.47 11.04 39.72 13.61 C 40.47 11.51 41.31 9.45 42.13 7.38 C 40.90 6.86 39.68 6.35 38.45 5.84 M 17.34 14.42 C 17.00 12.99 16.65 11.57 16.28 10.15 C 15.12 10.76 13.95 11.37 12.79 11.99 C 14.61 18.27 9.13 23.01 8.40 28.91 C 6.73 37.39 10.45 46.56 17.47 51.57 C 24.43 56.78 34.44 57.42 42.00 53.13 C 45.18 50.95 48.97 50.18 52.75 49.92 C 52.75 48.61 52.75 47.31 52.76 46.01 C 52.05 46.05 50.65 46.15 49.94 46.19 C 53.33 41.83 52.77 34.94 58.12 32.15 C 57.63 30.96 57.14 29.77 56.65 28.58 C 55.71 29.11 54.78 29.66 53.85 30.23 C 53.31 24.82 50.10 20.42 47.73 15.72 C 46.92 16.96 46.09 18.19 45.26 19.42 C 45.98 20.85 46.80 22.24 47.65 23.60 C 45.37 24.18 43.45 25.58 41.57 26.95 C 42.29 28.04 43.02 29.13 43.74 30.23 C 45.45 29.03 47.22 27.57 49.46 28.02 C 51.55 36.41 47.63 45.92 39.80 49.82 C 32.04 54.08 21.52 51.84 16.14 44.82 C 10.67 38.19 10.65 27.80 16.12 21.16 C 19.75 16.40 25.67 14.15 31.49 13.72 C 31.98 12.22 32.48 10.73 32.98 9.24 C 27.56 10.23 21.85 10.94 17.34 14.42 M 22.32 23.71 C 23.79 24.29 25.25 24.87 26.72 25.46 C 27.31 26.62 27.90 27.79 28.48 28.96 C 29.69 28.34 30.92 27.76 32.13 27.15 C 31.27 25.53 30.40 23.92 29.55 22.29 C 27.64 21.51 25.73 20.76 23.81 19.99 C 23.31 21.23 22.81 22.47 22.32 23.71 M 18.07 32.00 C 17.58 33.23 17.10 34.46 16.63 35.69 C 17.98 36.25 19.33 36.81 20.69 37.37 C 21.13 38.52 21.56 39.66 22.00 40.81 C 23.25 40.35 24.50 39.90 25.75 39.44 C 25.09 37.70 24.44 35.97 23.79 34.23 C 21.88 33.50 19.97 32.75 18.07 32.00 M 32.13 38.25 C 32.34 39.56 32.54 40.87 32.75 42.18 C 34.25 41.94 35.75 41.69 37.24 41.44 C 38.49 42.55 39.75 43.64 41.00 44.75 C 41.87 43.75 42.74 42.76 43.61 41.76 C 41.98 40.29 40.40 38.75 38.65 37.42 C 36.48 37.14 34.29 37.98 32.13 38.25 Z" />
</g>
<g id="#000000ff">
<path fill="#000000" opacity="1.00" d=" M 38.45 5.84 C 39.68 6.35 40.90 6.86 42.13 7.38 C 41.31 9.45 40.47 11.51 39.72 13.61 C 41.47 11.04 43.08 8.38 44.70 5.73 C 45.82 6.45 46.94 7.16 48.06 7.88 C 45.38 12.22 42.71 16.55 40.03 20.89 C 38.03 19.70 35.94 18.67 33.77 17.82 C 35.33 13.83 36.89 9.83 38.45 5.84 Z" />
<path fill="#000000" opacity="1.00" d=" M 17.34 14.42 C 21.85 10.94 27.56 10.23 32.98 9.24 C 32.48 10.73 31.98 12.22 31.49 13.72 C 25.67 14.15 19.75 16.40 16.12 21.16 C 10.65 27.80 10.67 38.19 16.14 44.82 C 21.52 51.84 32.04 54.08 39.80 49.82 C 47.63 45.92 51.55 36.41 49.46 28.02 C 47.22 27.57 45.45 29.03 43.74 30.23 C 43.02 29.13 42.29 28.04 41.57 26.95 C 43.45 25.58 45.37 24.18 47.65 23.60 C 46.80 22.24 45.98 20.85 45.26 19.42 C 46.09 18.19 46.92 16.96 47.73 15.72 C 50.10 20.42 53.31 24.82 53.85 30.23 C 54.78 29.66 55.71 29.11 56.65 28.58 C 57.14 29.77 57.63 30.96 58.12 32.15 C 52.77 34.94 53.33 41.83 49.94 46.19 C 50.65 46.15 52.05 46.05 52.76 46.01 C 52.75 47.31 52.75 48.61 52.75 49.92 C 48.97 50.18 45.18 50.95 42.00 53.13 C 34.44 57.42 24.43 56.78 17.47 51.57 C 10.45 46.56 6.73 37.39 8.40 28.91 C 9.13 23.01 14.61 18.27 12.79 11.99 C 13.95 11.37 15.12 10.76 16.28 10.15 C 16.65 11.57 17.00 12.99 17.34 14.42 Z" />
<path fill="#000000" opacity="1.00" d=" M 22.32 23.71 C 22.81 22.47 23.31 21.23 23.81 19.99 C 25.73 20.76 27.64 21.51 29.55 22.29 C 30.40 23.92 31.27 25.53 32.13 27.15 C 30.92 27.76 29.69 28.34 28.48 28.96 C 27.90 27.79 27.31 26.62 26.72 25.46 C 25.25 24.87 23.79 24.29 22.32 23.71 Z" />
<path fill="#000000" opacity="1.00" d=" M 18.07 32.00 C 19.97 32.75 21.88 33.50 23.79 34.23 C 24.44 35.97 25.09 37.70 25.75 39.44 C 24.50 39.90 23.25 40.35 22.00 40.81 C 21.56 39.66 21.13 38.52 20.69 37.37 C 19.33 36.81 17.98 36.25 16.63 35.69 C 17.10 34.46 17.58 33.23 18.07 32.00 Z" />
<path fill="#000000" opacity="1.00" d=" M 32.13 38.25 C 34.29 37.98 36.48 37.14 38.65 37.42 C 40.40 38.75 41.98 40.29 43.61 41.76 C 42.74 42.76 41.87 43.75 41.00 44.75 C 39.75 43.64 38.49 42.55 37.24 41.44 C 35.75 41.69 34.25 41.94 32.75 42.18 C 32.54 40.87 32.34 39.56 32.13 38.25 Z" />
</g>
</svg>
