<?xml version="1.0" encoding="UTF-8" ?>
<!DOCTYPE svg PUBLIC "-//W3C//DTD SVG 1.1//EN" "http://www.w3.org/Graphics/SVG/1.1/DTD/svg11.dtd">
<svg width="64pt" height="64pt" viewBox="0 0 64 64" version="1.1" xmlns="http://www.w3.org/2000/svg">
<g id="#ffffffff">
<path fill="#ffffff" opacity="1.00" d=" M 0.00 0.00 L 64.00 0.00 L 64.00 64.00 L 0.00 64.00 L 0.00 0.00 M 10.00 10.00 C 10.00 24.67 10.00 39.33 10.00 54.00 C 24.67 54.00 39.33 54.00 54.00 54.00 C 54.00 39.33 54.00 24.67 54.00 10.00 C 39.33 10.00 24.67 10.00 10.00 10.00 Z" />
<path fill="#ffffff" opacity="1.00" d=" M 14.00 14.00 C 26.00 14.00 38.00 14.00 50.00 14.00 C 50.00 26.00 50.00 38.00 50.00 50.00 C 38.00 50.00 26.00 50.00 14.00 50.00 C 14.00 38.00 14.00 26.00 14.00 14.00 M 20.00 20.00 C 20.00 23.91 20.00 27.82 20.01 31.74 C 25.22 31.73 30.43 31.74 35.64 31.73 C 38.09 27.82 40.57 23.92 43.01 20.01 C 39.96 20.00 36.90 20.00 33.85 20.00 C 31.90 23.66 29.97 27.33 28.01 30.98 C 27.99 27.32 28.00 23.66 28.00 20.00 C 25.33 20.00 22.67 20.00 20.00 20.00 M 20.00 33.00 C 20.00 36.65 20.00 40.29 20.00 43.93 C 22.67 43.93 25.33 43.93 28.00 43.93 C 27.99 40.51 27.97 37.08 28.09 33.65 C 30.03 37.10 32.01 40.52 34.00 43.93 C 37.23 43.93 40.47 43.92 43.70 43.96 C 41.15 40.34 38.72 36.64 36.21 32.99 C 30.81 33.01 25.40 33.00 20.00 33.00 Z" />
</g>
<g id="#000000ff">
<path fill="#000000" opacity="1.00" d=" M 10.00 10.00 C 24.67 10.00 39.33 10.00 54.00 10.00 C 54.00 24.67 54.00 39.33 54.00 54.00 C 39.33 54.00 24.67 54.00 10.00 54.00 C 10.00 39.33 10.00 24.67 10.00 10.00 M 14.00 14.00 C 14.00 26.00 14.00 38.00 14.00 50.00 C 26.00 50.00 38.00 50.00 50.00 50.00 C 50.00 38.00 50.00 26.00 50.00 14.00 C 38.00 14.00 26.00 14.00 14.00 14.00 Z" />
<path fill="#000000" opacity="1.00" d=" M 20.00 20.00 C 22.67 20.00 25.33 20.00 28.00 20.00 C 28.00 23.66 27.99 27.32 28.01 30.98 C 29.97 27.33 31.90 23.66 33.85 20.00 C 36.90 20.00 39.96 20.00 43.01 20.01 C 40.57 23.92 38.09 27.82 35.64 31.73 C 30.43 31.74 25.22 31.73 20.01 31.74 C 20.00 27.82 20.00 23.91 20.00 20.00 Z" />
<path fill="#000000" opacity="1.00" d=" M 20.00 33.00 C 25.40 33.00 30.81 33.01 36.21 32.99 C 38.72 36.64 41.15 40.34 43.70 43.96 C 40.47 43.92 37.23 43.93 34.00 43.93 C 32.01 40.52 30.03 37.10 28.09 33.65 C 27.97 37.08 27.99 40.51 28.00 43.93 C 25.33 43.93 22.67 43.93 20.00 43.93 C 20.00 40.29 20.00 36.65 20.00 33.00 Z" />
</g>
</svg>
