<?xml version="1.0" encoding="UTF-8" ?>
<!DOCTYPE svg PUBLIC "-//W3C//DTD SVG 1.1//EN" "http://www.w3.org/Graphics/SVG/1.1/DTD/svg11.dtd">
<svg width="64pt" height="64pt" viewBox="0 0 64 64" version="1.1" xmlns="http://www.w3.org/2000/svg">
<g id="#ffffffff">
<path fill="#ffffff" opacity="1.00" d=" M 0.00 0.00 L 64.00 0.00 L 64.00 64.00 L 0.00 64.00 L 0.00 0.00 M 14.01 8.01 C 13.99 14.61 14.00 21.21 14.01 27.81 C 10.62 27.69 6.49 29.20 6.11 33.08 C 5.83 40.71 6.08 48.36 6.01 55.99 C 23.34 56.00 40.67 56.01 57.99 55.99 C 57.92 48.33 58.18 40.65 57.87 33.00 C 57.43 29.17 53.35 27.71 49.99 27.81 C 50.00 21.21 50.01 14.61 49.99 8.01 C 38.00 8.00 26.00 8.00 14.01 8.01 Z" />
<path fill="#ffffff" opacity="1.00" d=" M 18.01 12.01 C 27.34 11.99 36.66 11.99 45.99 12.01 C 46.01 20.67 46.01 29.33 45.99 37.99 C 36.66 38.01 27.34 38.01 18.01 37.99 C 17.99 29.33 17.99 20.67 18.01 12.01 M 22.00 16.00 C 21.99 18.67 21.99 21.33 22.00 24.00 C 24.67 24.00 27.33 24.00 30.00 24.00 C 30.00 21.33 30.00 18.67 30.00 16.00 C 27.33 16.00 24.67 16.00 22.00 16.00 M 34.00 18.02 C 34.00 19.34 34.00 20.66 34.00 21.98 C 36.67 22.01 39.33 22.01 42.00 21.98 C 42.00 20.66 42.00 19.34 42.00 18.02 C 39.33 17.99 36.67 17.99 34.00 18.02 M 22.00 28.00 C 22.01 30.00 22.01 32.00 22.00 34.00 C 23.33 34.00 24.67 34.00 26.00 34.00 C 25.99 32.00 25.99 30.00 26.00 28.00 C 24.67 28.00 23.33 28.00 22.00 28.00 M 28.00 28.00 C 28.01 30.00 28.01 32.00 28.00 34.00 C 28.50 34.00 29.50 34.00 30.00 34.01 C 29.99 32.00 29.99 30.00 30.00 27.99 C 29.50 27.99 28.50 28.00 28.00 28.00 M 32.00 28.00 C 32.01 30.00 32.01 32.00 32.00 34.00 C 33.33 34.00 34.67 34.00 36.00 34.00 C 35.99 32.00 35.99 30.00 36.00 28.00 C 34.66 28.00 33.33 28.00 32.00 28.00 M 38.00 28.00 C 38.01 30.00 38.01 32.00 38.00 34.00 C 39.33 34.00 40.66 34.00 42.00 34.00 C 41.99 32.00 41.99 30.00 42.00 28.00 C 40.66 28.00 39.33 28.00 38.00 28.00 Z" />
<path fill="#ffffff" opacity="1.00" d=" M 10.06 34.09 C 9.82 31.84 12.49 32.06 13.96 31.86 C 14.00 35.24 14.01 38.61 14.00 41.99 C 26.00 42.01 38.00 42.01 50.00 41.99 C 49.99 38.62 50.00 35.25 50.04 31.88 C 51.25 32.03 52.45 32.19 53.66 32.37 C 54.40 38.88 53.83 45.46 53.99 51.99 C 39.33 52.00 24.67 52.00 10.01 51.99 C 10.05 46.03 9.89 40.06 10.06 34.09 M 49.20 46.09 C 46.86 47.15 48.38 50.83 50.79 49.90 C 53.14 48.83 51.62 45.18 49.20 46.09 Z" />
</g>
<g id="#000000ff">
<path fill="#000000" opacity="1.00" d=" M 14.01 8.01 C 26.00 8.00 38.00 8.00 49.99 8.01 C 50.01 14.61 50.00 21.21 49.99 27.81 C 53.35 27.71 57.43 29.17 57.87 33.00 C 58.18 40.65 57.92 48.33 57.99 55.99 C 40.67 56.01 23.34 56.00 6.01 55.99 C 6.08 48.36 5.83 40.71 6.11 33.08 C 6.49 29.20 10.62 27.69 14.01 27.81 C 14.00 21.21 13.99 14.61 14.01 8.01 M 18.01 12.01 C 17.99 20.67 17.99 29.33 18.01 37.99 C 27.34 38.01 36.66 38.01 45.99 37.99 C 46.01 29.33 46.01 20.67 45.99 12.01 C 36.66 11.99 27.34 11.99 18.01 12.01 M 10.06 34.09 C 9.89 40.06 10.05 46.03 10.01 51.99 C 24.67 52.00 39.33 52.00 53.99 51.99 C 53.83 45.46 54.40 38.88 53.66 32.37 C 52.45 32.19 51.25 32.03 50.04 31.88 C 50.00 35.25 49.99 38.62 50.00 41.99 C 38.00 42.01 26.00 42.01 14.00 41.99 C 14.01 38.61 14.00 35.24 13.96 31.86 C 12.49 32.06 9.82 31.84 10.06 34.09 Z" />
<path fill="#000000" opacity="1.00" d=" M 22.00 16.00 C 24.67 16.00 27.33 16.00 30.00 16.00 C 30.00 18.67 30.00 21.33 30.00 24.00 C 27.33 24.00 24.67 24.00 22.00 24.00 C 21.99 21.33 21.99 18.67 22.00 16.00 Z" />
<path fill="#000000" opacity="1.00" d=" M 34.00 18.02 C 36.67 17.99 39.33 17.99 42.00 18.02 C 42.00 19.34 42.00 20.66 42.00 21.98 C 39.33 22.01 36.67 22.01 34.00 21.98 C 34.00 20.66 34.00 19.34 34.00 18.02 Z" />
<path fill="#000000" opacity="1.00" d=" M 22.00 28.00 C 23.33 28.00 24.67 28.00 26.00 28.00 C 25.99 30.00 25.99 32.00 26.00 34.00 C 24.67 34.00 23.33 34.00 22.00 34.00 C 22.01 32.00 22.01 30.00 22.00 28.00 Z" />
<path fill="#000000" opacity="1.00" d=" M 28.00 28.00 C 28.50 28.00 29.50 27.99 30.00 27.99 C 29.99 30.00 29.99 32.00 30.00 34.01 C 29.50 34.00 28.50 34.00 28.00 34.00 C 28.01 32.00 28.01 30.00 28.00 28.00 Z" />
<path fill="#000000" opacity="1.00" d=" M 32.00 28.00 C 33.33 28.00 34.66 28.00 36.00 28.00 C 35.99 30.00 35.99 32.00 36.00 34.00 C 34.67 34.00 33.33 34.00 32.00 34.00 C 32.01 32.00 32.01 30.00 32.00 28.00 Z" />
<path fill="#000000" opacity="1.00" d=" M 38.00 28.00 C 39.33 28.00 40.66 28.00 42.00 28.00 C 41.99 30.00 41.99 32.00 42.00 34.00 C 40.66 34.00 39.33 34.00 38.00 34.00 C 38.01 32.00 38.01 30.00 38.00 28.00 Z" />
<path fill="#000000" opacity="1.00" d=" M 49.20 46.09 C 51.62 45.18 53.14 48.83 50.79 49.90 C 48.38 50.83 46.86 47.15 49.20 46.09 Z" />
</g>
</svg>
