<?xml version="1.0" encoding="UTF-8" ?>
<!DOCTYPE svg PUBLIC "-//W3C//DTD SVG 1.1//EN" "http://www.w3.org/Graphics/SVG/1.1/DTD/svg11.dtd">
<svg width="60pt" height="60pt" viewBox="0 0 60 60" version="1.1" xmlns="http://www.w3.org/2000/svg">
<g id="#ffffffff">
<path fill="#ffffff" opacity="1.00" d=" M 0.00 0.00 L 60.00 0.00 L 60.00 60.00 L 0.00 60.00 L 0.00 0.00 M 36.01 9.87 C 35.98 18.44 36.01 27.01 36.00 35.58 C 30.48 33.67 24.42 33.60 18.73 34.76 C 16.22 35.42 13.12 36.33 12.13 39.03 C 11.25 43.82 13.34 49.01 17.57 51.53 C 25.01 56.66 37.55 53.48 39.74 44.16 C 40.34 32.80 39.81 21.38 40.02 9.99 C 39.84 7.88 43.07 7.27 43.85 9.15 C 44.18 10.82 43.40 13.94 45.99 13.97 C 48.57 13.91 48.06 10.63 47.89 8.91 C 47.34 6.02 44.38 4.92 42.00 3.91 C 39.33 4.94 35.94 6.49 36.01 9.87 Z" />
<path fill="#ffffff" opacity="1.00" d=" M 16.13 39.99 C 22.07 37.24 29.34 37.38 35.41 39.70 C 35.46 39.81 35.57 40.05 35.62 40.17 C 29.54 42.66 22.13 42.78 16.13 39.99 Z" />
</g>
<g id="#000000ff">
<path fill="#000000" opacity="1.00" d=" M 36.01 9.87 C 35.94 6.49 39.33 4.94 42.00 3.91 C 44.38 4.92 47.34 6.02 47.89 8.91 C 48.06 10.63 48.57 13.91 45.99 13.97 C 43.40 13.94 44.18 10.82 43.85 9.15 C 43.07 7.27 39.84 7.88 40.02 9.99 C 39.81 21.38 40.34 32.80 39.74 44.16 C 37.55 53.48 25.01 56.66 17.57 51.53 C 13.34 49.01 11.25 43.82 12.13 39.03 C 13.12 36.33 16.22 35.42 18.73 34.76 C 24.42 33.60 30.48 33.67 36.00 35.58 C 36.01 27.01 35.98 18.44 36.01 9.87 M 16.13 39.99 C 22.13 42.78 29.54 42.66 35.62 40.17 C 35.57 40.05 35.46 39.81 35.41 39.70 C 29.34 37.38 22.07 37.24 16.13 39.99 Z" />
</g>
</svg>
