<?xml version="1.0" encoding="UTF-8" ?>
<!DOCTYPE svg PUBLIC "-//W3C//DTD SVG 1.1//EN" "http://www.w3.org/Graphics/SVG/1.1/DTD/svg11.dtd">
<svg width="64pt" height="64pt" viewBox="0 0 64 64" version="1.1" xmlns="http://www.w3.org/2000/svg">
<g id="#ffffffff">
<path fill="#ffffff" opacity="1.00" d=" M 0.00 0.00 L 64.00 0.00 L 64.00 64.00 L 0.00 64.00 L 0.00 0.00 M 18.00 9.99 C 18.00 11.33 18.00 12.66 18.00 13.99 C 20.41 14.14 23.69 13.30 25.22 15.75 C 26.64 18.49 27.54 21.47 28.81 24.28 C 24.61 34.21 20.27 44.08 16.00 53.98 C 17.44 53.99 18.89 54.01 20.33 54.03 C 23.90 45.93 27.34 37.77 30.87 29.65 C 33.67 36.36 36.18 43.19 39.10 49.85 C 41.03 53.97 46.03 54.33 50.00 54.01 C 50.00 52.67 50.00 51.34 50.00 50.01 C 47.40 49.94 43.64 50.68 42.44 47.61 C 37.79 36.47 33.58 25.14 28.84 14.04 C 26.87 9.98 21.93 9.69 18.00 9.99 Z" />
</g>
<g id="#000000ff">
<path fill="#000000" opacity="1.00" d=" M 18.00 9.99 C 21.93 9.69 26.87 9.98 28.84 14.04 C 33.58 25.14 37.79 36.47 42.44 47.61 C 43.64 50.68 47.40 49.94 50.00 50.01 C 50.00 51.34 50.00 52.67 50.00 54.01 C 46.03 54.33 41.03 53.97 39.10 49.85 C 36.18 43.19 33.67 36.36 30.87 29.65 C 27.34 37.77 23.90 45.93 20.33 54.03 C 18.89 54.01 17.44 53.99 16.00 53.98 C 20.27 44.08 24.61 34.21 28.81 24.28 C 27.54 21.47 26.64 18.49 25.22 15.75 C 23.69 13.30 20.41 14.14 18.00 13.99 C 18.00 12.66 18.00 11.33 18.00 9.99 Z" />
</g>
</svg>
