<?xml version="1.0" encoding="UTF-8" ?>
<!DOCTYPE svg PUBLIC "-//W3C//DTD SVG 1.1//EN" "http://www.w3.org/Graphics/SVG/1.1/DTD/svg11.dtd">
<svg width="60pt" height="60pt" viewBox="0 0 60 60" version="1.1" xmlns="http://www.w3.org/2000/svg">
<g id="#ffffffff">
<path fill="#ffffff" opacity="1.00" d=" M 0.00 0.00 L 60.00 0.00 L 60.00 60.00 L 0.00 60.00 L 0.00 0.00 M 12.35 4.38 C 10.59 5.15 9.82 7.12 10.00 8.94 C 10.03 23.31 9.94 37.68 10.04 52.04 C 9.91 54.62 12.58 56.33 14.94 56.00 C 25.32 55.97 35.71 56.07 46.09 55.95 C 48.59 56.00 50.33 53.45 50.00 51.10 C 49.97 36.71 50.06 22.32 49.95 7.93 C 50.02 5.40 47.48 3.63 45.09 4.00 C 34.19 4.25 23.17 3.50 12.35 4.38 Z" />
<path fill="#ffffff" opacity="1.00" d=" M 26.51 8.65 C 31.96 6.42 38.72 10.14 39.75 15.93 C 41.04 21.23 37.14 26.99 31.76 27.82 C 26.57 28.89 21.05 25.08 20.20 19.85 C 19.22 15.22 22.06 10.23 26.51 8.65 M 25.11 16.10 C 22.90 17.30 24.42 20.83 26.82 19.90 C 29.17 18.74 27.53 15.10 25.11 16.10 M 33.25 16.15 C 30.73 17.10 32.48 20.95 34.91 19.88 C 37.10 18.72 35.55 15.13 33.25 16.15 Z" />
<path fill="#ffffff" opacity="1.00" d=" M 22.00 36.00 C 27.33 36.00 32.67 36.00 38.00 36.00 C 38.00 39.33 38.00 42.67 38.00 46.00 C 36.67 46.00 35.33 46.00 34.00 46.00 C 34.00 47.33 34.00 48.67 34.00 50.00 C 31.33 50.00 28.67 50.00 26.00 50.00 C 26.00 48.67 26.00 47.33 26.00 46.00 C 24.67 46.00 23.33 46.00 22.00 46.00 C 22.00 42.67 22.00 39.33 22.00 36.00 Z" />
</g>
<g id="#000000ff">
<path fill="#000000" opacity="1.00" d=" M 12.35 4.38 C 23.17 3.50 34.19 4.25 45.09 4.00 C 47.48 3.63 50.02 5.40 49.95 7.93 C 50.06 22.32 49.97 36.71 50.00 51.10 C 50.33 53.45 48.59 56.00 46.09 55.95 C 35.71 56.07 25.32 55.97 14.94 56.00 C 12.58 56.33 9.91 54.62 10.04 52.04 C 9.94 37.68 10.03 23.31 10.00 8.94 C 9.82 7.12 10.59 5.15 12.35 4.38 M 26.51 8.65 C 22.06 10.23 19.22 15.22 20.20 19.85 C 21.05 25.08 26.57 28.89 31.76 27.82 C 37.14 26.99 41.04 21.23 39.75 15.93 C 38.72 10.14 31.96 6.42 26.51 8.65 M 22.00 36.00 C 22.00 39.33 22.00 42.67 22.00 46.00 C 23.33 46.00 24.67 46.00 26.00 46.00 C 26.00 47.33 26.00 48.67 26.00 50.00 C 28.67 50.00 31.33 50.00 34.00 50.00 C 34.00 48.67 34.00 47.33 34.00 46.00 C 35.33 46.00 36.67 46.00 38.00 46.00 C 38.00 42.67 38.00 39.33 38.00 36.00 C 32.67 36.00 27.33 36.00 22.00 36.00 Z" />
<path fill="#000000" opacity="1.00" d=" M 25.11 16.10 C 27.53 15.10 29.17 18.74 26.82 19.90 C 24.42 20.83 22.90 17.30 25.11 16.10 Z" />
<path fill="#000000" opacity="1.00" d=" M 33.25 16.15 C 35.55 15.13 37.10 18.72 34.91 19.88 C 32.48 20.95 30.73 17.10 33.25 16.15 Z" />
</g>
</svg>
