<?xml version="1.0" encoding="UTF-8" ?>
<!DOCTYPE svg PUBLIC "-//W3C//DTD SVG 1.1//EN" "http://www.w3.org/Graphics/SVG/1.1/DTD/svg11.dtd">
<svg width="64pt" height="64pt" viewBox="0 0 64 64" version="1.1" xmlns="http://www.w3.org/2000/svg">
<g id="#ffffffff">
<path fill="#ffffff" opacity="1.00" d=" M 0.00 0.00 L 64.00 0.00 L 64.00 64.00 L 58.32 64.00 C 50.97 60.24 43.59 56.50 36.36 52.51 C 29.31 44.92 23.47 36.22 16.51 28.53 C 11.19 24.87 5.40 21.95 0.00 18.40 L 0.00 0.00 M 12.00 8.00 C 10.67 10.00 9.34 12.00 8.00 14.00 C 9.34 15.99 10.67 18.00 12.00 20.00 C 15.96 19.14 19.55 17.31 22.00 14.00 C 20.67 11.33 19.33 8.66 18.00 6.00 C 16.00 6.67 14.00 7.33 12.00 8.00 M 24.02 7.98 C 25.34 9.32 26.67 10.66 28.00 12.00 C 28.67 10.00 29.33 8.00 30.00 6.00 C 28.67 6.00 27.34 6.00 26.01 5.99 C 25.51 6.49 24.52 7.48 24.02 7.98 M 22.00 22.00 C 23.33 24.66 24.65 27.31 25.99 29.97 C 28.66 30.64 31.32 31.33 33.99 32.00 C 36.00 30.67 37.99 29.33 39.99 28.01 C 38.59 25.37 37.51 22.55 35.87 20.06 C 33.37 18.49 30.62 17.37 28.01 15.99 C 26.01 17.99 24.00 19.99 22.00 22.00 M 34.02 39.97 C 35.34 41.32 36.67 42.66 37.99 44.00 C 39.34 41.98 40.69 39.96 42.04 37.94 C 40.03 37.29 38.03 36.61 36.02 35.97 C 35.34 37.30 34.68 38.63 34.02 39.97 M 50.03 37.97 C 48.01 40.64 46.00 43.32 44.00 46.01 C 46.02 47.98 48.03 49.98 50.00 52.00 C 52.01 50.66 54.03 49.33 56.03 47.96 C 56.67 45.30 57.34 42.65 58.00 39.99 C 55.35 39.30 52.68 38.65 50.03 37.97 Z" />
<path fill="#ffffff" opacity="1.00" d=" M 12.90 15.08 C 13.02 13.32 14.19 11.98 15.15 10.61 C 16.24 11.33 16.78 12.49 17.18 13.69 C 15.86 14.44 14.44 15.01 12.90 15.08 Z" />
<path fill="#ffffff" opacity="1.00" d=" M 28.53 21.08 C 31.68 21.43 34.09 23.77 34.95 26.78 C 33.06 28.18 30.85 26.98 28.82 26.66 C 27.98 24.88 25.81 22.36 28.53 21.08 Z" />
<path fill="#ffffff" opacity="1.00" d=" M 4.00 25.54 C 8.03 28.34 13.13 29.88 16.06 34.04 C 21.67 41.04 27.26 48.06 32.95 55.00 C 35.55 57.17 38.90 58.24 41.84 59.88 C 29.23 60.15 16.61 59.93 4.00 60.00 C 4.00 48.51 4.00 37.02 4.00 25.54 Z" />
<path fill="#ffffff" opacity="1.00" d=" M 51.63 42.50 C 52.01 42.61 52.76 42.82 53.14 42.93 C 52.97 43.62 52.64 45.00 52.48 45.69 C 51.36 46.37 50.17 47.10 49.19 45.77 C 49.99 44.67 50.80 43.58 51.63 42.50 Z" />
</g>
<g id="#000000ff">
<path fill="#000000" opacity="1.00" d=" M 12.00 8.00 C 14.00 7.33 16.00 6.67 18.00 6.00 C 19.33 8.66 20.67 11.33 22.00 14.00 C 19.55 17.31 15.96 19.14 12.00 20.00 C 10.67 18.00 9.34 15.99 8.00 14.00 C 9.34 12.00 10.67 10.00 12.00 8.00 M 12.90 15.08 C 14.44 15.01 15.86 14.44 17.18 13.69 C 16.78 12.49 16.24 11.33 15.15 10.61 C 14.19 11.98 13.02 13.32 12.90 15.08 Z" />
<path fill="#000000" opacity="1.00" d=" M 24.02 7.98 C 24.52 7.48 25.51 6.49 26.01 5.99 C 27.34 6.00 28.67 6.00 30.00 6.00 C 29.33 8.00 28.67 10.00 28.00 12.00 C 26.67 10.66 25.34 9.32 24.02 7.98 Z" />
<path fill="#000000" opacity="1.00" d=" M 22.00 22.00 C 24.00 19.99 26.01 17.99 28.01 15.99 C 30.62 17.37 33.37 18.49 35.87 20.06 C 37.51 22.55 38.59 25.37 39.99 28.01 C 37.99 29.33 36.00 30.67 33.99 32.00 C 31.32 31.33 28.66 30.64 25.99 29.97 C 24.65 27.31 23.33 24.66 22.00 22.00 M 28.53 21.08 C 25.81 22.36 27.98 24.88 28.82 26.66 C 30.85 26.98 33.06 28.18 34.95 26.78 C 34.09 23.77 31.68 21.43 28.53 21.08 Z" />
<path fill="#000000" opacity="1.00" d=" M 0.00 18.40 C 5.40 21.95 11.19 24.87 16.51 28.53 C 23.47 36.22 29.31 44.92 36.36 52.51 C 43.59 56.50 50.97 60.24 58.32 64.00 L 0.00 64.00 L 0.00 18.40 M 4.00 25.54 C 4.00 37.02 4.00 48.51 4.00 60.00 C 16.61 59.93 29.23 60.15 41.84 59.88 C 38.90 58.24 35.55 57.17 32.95 55.00 C 27.26 48.06 21.67 41.04 16.06 34.04 C 13.13 29.88 8.03 28.34 4.00 25.54 Z" />
<path fill="#000000" opacity="1.00" d=" M 34.02 39.97 C 34.68 38.63 35.34 37.30 36.02 35.97 C 38.03 36.61 40.03 37.29 42.04 37.94 C 40.69 39.96 39.34 41.98 37.99 44.00 C 36.67 42.66 35.34 41.32 34.02 39.97 Z" />
<path fill="#000000" opacity="1.00" d=" M 50.03 37.97 C 52.68 38.65 55.35 39.30 58.00 39.99 C 57.34 42.65 56.67 45.30 56.03 47.96 C 54.03 49.33 52.01 50.66 50.00 52.00 C 48.03 49.98 46.02 47.98 44.00 46.01 C 46.00 43.32 48.01 40.64 50.03 37.97 M 51.63 42.50 C 50.80 43.58 49.99 44.67 49.19 45.77 C 50.17 47.10 51.36 46.37 52.48 45.69 C 52.64 45.00 52.97 43.62 53.14 42.93 C 52.76 42.82 52.01 42.61 51.63 42.50 Z" />
</g>
</svg>
