<?xml version="1.0" encoding="UTF-8" ?>
<!DOCTYPE svg PUBLIC "-//W3C//DTD SVG 1.1//EN" "http://www.w3.org/Graphics/SVG/1.1/DTD/svg11.dtd">
<svg width="60pt" height="60pt" viewBox="0 0 60 60" version="1.1" xmlns="http://www.w3.org/2000/svg">
<g id="#ffffffff">
<path fill="#ffffff" opacity="1.00" d=" M 0.00 0.00 L 60.00 0.00 L 60.00 60.00 L 0.00 60.00 L 0.00 0.00 M 27.52 8.04 C 24.10 8.74 20.71 9.74 17.84 11.79 C 16.47 12.94 14.57 12.30 13.06 13.03 C 12.29 14.52 12.95 16.42 11.81 17.78 C 9.74 20.67 8.78 24.08 8.04 27.50 C 6.92 28.39 6.05 29.49 5.78 30.92 C 6.36 31.26 7.52 31.93 8.10 32.27 C 8.59 36.10 10.04 39.69 12.19 42.89 C 13.13 44.20 11.89 46.79 13.84 47.24 C 16.93 46.94 19.12 49.33 21.79 50.38 C 23.65 51.08 25.60 51.47 27.52 51.97 C 28.61 54.44 31.39 54.43 32.47 51.96 C 36.77 51.18 40.84 49.49 44.30 46.81 C 46.35 48.71 45.63 52.37 48.34 53.61 C 51.44 55.35 55.36 51.39 53.59 48.31 C 52.34 45.64 48.73 46.34 46.83 44.31 C 49.48 40.83 51.20 36.77 51.96 32.47 C 54.43 31.43 54.45 28.56 51.95 27.55 C 51.59 22.21 47.42 18.28 46.94 13.09 C 41.78 12.58 37.81 8.44 32.49 8.04 C 31.42 5.54 28.56 5.53 27.52 8.04 Z" />
<path fill="#ffffff" opacity="1.00" d=" M 18.19 20.30 C 19.02 19.17 20.22 17.64 21.83 18.12 C 23.05 18.96 24.07 20.05 25.16 21.05 C 23.74 22.31 22.39 23.66 21.27 25.21 C 20.08 23.70 17.46 22.59 18.19 20.30 Z" />
<path fill="#ffffff" opacity="1.00" d=" M 34.84 21.05 C 36.34 20.02 37.57 17.39 39.72 18.23 C 40.85 19.03 42.43 20.27 41.85 21.87 C 41.01 23.08 39.94 24.09 38.95 25.16 C 37.63 23.74 36.26 22.37 34.84 21.05 Z" />
<path fill="#ffffff" opacity="1.00" d=" M 27.43 24.57 C 31.60 22.35 36.99 26.50 35.89 31.09 C 35.31 35.36 29.67 37.50 26.36 34.77 C 22.83 32.31 23.44 26.24 27.43 24.57 Z" />
<path fill="#ffffff" opacity="1.00" d=" M 18.20 39.72 C 17.49 37.54 19.97 36.34 21.06 34.85 C 22.37 36.27 23.74 37.64 25.16 38.95 C 23.64 39.99 22.46 42.58 20.30 41.79 C 19.46 41.24 18.76 40.55 18.20 39.72 Z" />
<path fill="#ffffff" opacity="1.00" d=" M 34.80 38.94 C 36.29 37.67 37.66 36.27 38.94 34.80 C 39.93 35.90 41.00 36.94 41.88 38.14 C 42.39 39.76 40.82 40.98 39.68 41.81 C 37.50 42.51 36.33 39.99 34.80 38.94 Z" />
</g>
<g id="#000000ff">
<path fill="#000000" opacity="1.00" d=" M 27.52 8.04 C 28.56 5.53 31.42 5.54 32.49 8.04 C 37.81 8.44 41.78 12.58 46.94 13.09 C 47.42 18.28 51.59 22.21 51.95 27.55 C 54.45 28.56 54.43 31.43 51.96 32.47 C 51.20 36.77 49.48 40.83 46.83 44.31 C 48.73 46.34 52.34 45.64 53.59 48.31 C 55.36 51.39 51.44 55.35 48.34 53.61 C 45.63 52.37 46.35 48.71 44.30 46.81 C 40.84 49.49 36.77 51.18 32.47 51.96 C 31.39 54.43 28.61 54.44 27.52 51.97 C 25.60 51.47 23.65 51.08 21.79 50.38 C 19.12 49.33 16.93 46.94 13.84 47.24 C 11.89 46.79 13.13 44.20 12.19 42.89 C 10.04 39.69 8.59 36.10 8.10 32.27 C 7.52 31.93 6.36 31.26 5.78 30.92 C 6.05 29.49 6.92 28.39 8.04 27.50 C 8.78 24.08 9.74 20.67 11.81 17.78 C 12.95 16.42 12.29 14.52 13.06 13.03 C 14.57 12.30 16.47 12.94 17.84 11.79 C 20.71 9.74 24.10 8.74 27.52 8.04 M 18.19 20.30 C 17.46 22.59 20.08 23.70 21.27 25.21 C 22.39 23.66 23.74 22.31 25.16 21.05 C 24.07 20.05 23.05 18.96 21.83 18.12 C 20.22 17.64 19.02 19.17 18.19 20.30 M 34.84 21.05 C 36.26 22.37 37.63 23.74 38.95 25.16 C 39.94 24.09 41.01 23.08 41.85 21.87 C 42.43 20.27 40.85 19.03 39.72 18.23 C 37.57 17.39 36.34 20.02 34.84 21.05 M 27.43 24.57 C 23.44 26.24 22.83 32.31 26.36 34.77 C 29.67 37.50 35.31 35.36 35.89 31.09 C 36.99 26.50 31.60 22.35 27.43 24.57 M 18.20 39.72 C 18.76 40.55 19.46 41.24 20.30 41.79 C 22.46 42.58 23.64 39.99 25.16 38.95 C 23.74 37.64 22.37 36.27 21.06 34.85 C 19.97 36.34 17.49 37.54 18.20 39.72 M 34.80 38.94 C 36.33 39.99 37.50 42.51 39.68 41.81 C 40.82 40.98 42.39 39.76 41.88 38.14 C 41.00 36.94 39.93 35.90 38.94 34.80 C 37.66 36.27 36.29 37.67 34.80 38.94 Z" />
</g>
</svg>
