<?xml version="1.0" encoding="UTF-8" ?>
<!DOCTYPE svg PUBLIC "-//W3C//DTD SVG 1.1//EN" "http://www.w3.org/Graphics/SVG/1.1/DTD/svg11.dtd">
<svg width="60pt" height="60pt" viewBox="0 0 60 60" version="1.1" xmlns="http://www.w3.org/2000/svg">
<g id="#ffffffff">
<path fill="#ffffff" opacity="1.00" d=" M 0.00 0.00 L 60.00 0.00 L 60.00 41.04 C 58.54 40.24 56.90 39.97 55.28 39.70 C 54.92 38.81 54.56 37.93 54.21 37.05 C 55.12 35.54 57.21 33.22 54.80 31.98 C 53.34 32.02 52.23 33.10 50.99 33.74 C 50.09 33.34 49.18 32.95 48.28 32.55 C 47.93 31.04 48.04 29.29 46.96 28.06 C 44.24 27.13 44.02 30.45 43.62 32.23 C 41.49 32.57 38.84 31.36 37.19 33.20 C 35.38 34.86 36.54 37.49 36.23 39.61 C 34.85 40.09 33.10 39.99 32.06 41.19 C 31.24 44.00 34.75 43.92 36.56 44.29 C 36.95 45.18 37.33 46.07 37.72 46.96 C 36.94 48.47 34.84 50.72 37.14 51.96 C 38.64 51.98 39.80 50.88 41.06 50.21 C 41.95 50.57 42.85 50.93 43.74 51.29 C 44.02 53.19 43.98 56.80 46.91 55.94 C 47.78 54.87 47.88 53.42 48.33 52.17 C 49.63 51.86 50.93 51.54 52.23 51.21 C 49.75 48.42 46.94 45.91 44.67 42.94 C 44.88 41.64 45.63 40.88 46.92 40.66 C 49.85 42.83 52.16 45.71 55.03 47.96 C 55.54 46.73 55.96 45.47 56.30 44.18 C 57.53 43.90 58.77 43.62 60.00 43.32 L 60.00 60.00 L 0.00 60.00 L 0.00 46.99 C 0.77 49.63 2.90 52.06 5.86 51.93 C 14.58 52.15 23.31 51.90 32.03 52.02 C 30.74 49.45 29.69 46.78 28.92 44.01 C 22.32 43.84 15.69 44.31 9.10 43.80 C 7.48 42.76 8.20 40.60 7.97 39.01 C 8.17 31.06 7.69 23.08 8.20 15.15 C 8.42 14.91 8.86 14.44 9.08 14.20 C 16.03 13.70 23.03 14.15 30.00 14.00 C 36.97 14.15 43.95 13.69 50.90 14.21 C 51.12 14.44 51.57 14.90 51.79 15.12 C 52.24 18.74 51.95 22.40 51.99 26.04 C 53.33 26.74 54.66 27.45 55.99 28.16 C 55.92 23.74 56.24 19.30 55.82 14.88 C 55.48 12.14 52.84 10.00 50.10 10.07 C 37.73 9.87 25.34 10.09 12.97 9.97 C 10.49 10.04 7.54 9.76 5.72 11.81 C 3.72 13.65 4.06 16.59 3.97 19.05 C 4.03 26.03 3.98 33.02 3.98 40.01 C 3.94 42.07 4.49 44.07 5.08 46.03 C 3.38 46.02 1.69 46.01 0.00 46.00 L 0.00 0.00 Z" />
</g>
<g id="#000000ff">
<path fill="#000000" opacity="1.00" d=" M 5.72 11.81 C 7.54 9.76 10.49 10.04 12.97 9.97 C 25.34 10.09 37.73 9.87 50.10 10.07 C 52.84 10.00 55.48 12.14 55.82 14.88 C 56.24 19.30 55.92 23.74 55.99 28.16 C 54.66 27.45 53.33 26.74 51.99 26.04 C 51.95 22.40 52.24 18.74 51.79 15.12 C 51.57 14.90 51.12 14.44 50.90 14.21 C 43.95 13.69 36.97 14.15 30.00 14.00 C 23.03 14.15 16.03 13.70 9.08 14.20 C 8.86 14.44 8.42 14.91 8.20 15.15 C 7.69 23.08 8.17 31.06 7.97 39.01 C 8.20 40.60 7.48 42.76 9.10 43.80 C 15.69 44.31 22.32 43.84 28.92 44.01 C 29.69 46.78 30.74 49.45 32.03 52.02 C 23.31 51.90 14.58 52.15 5.86 51.93 C 2.90 52.06 0.77 49.63 0.00 46.99 L 0.00 46.00 C 1.69 46.01 3.38 46.02 5.08 46.03 C 4.49 44.07 3.94 42.07 3.98 40.01 C 3.98 33.02 4.03 26.03 3.97 19.05 C 4.06 16.59 3.72 13.65 5.72 11.81 Z" />
<path fill="#000000" opacity="1.00" d=" M 43.62 32.23 C 44.02 30.45 44.24 27.13 46.96 28.06 C 48.04 29.29 47.93 31.04 48.28 32.55 C 49.18 32.95 50.09 33.34 50.99 33.74 C 52.23 33.10 53.34 32.02 54.80 31.98 C 57.21 33.22 55.12 35.54 54.21 37.05 C 54.56 37.93 54.92 38.81 55.28 39.70 C 56.90 39.97 58.54 40.24 60.00 41.04 L 60.00 43.32 C 58.77 43.62 57.53 43.90 56.30 44.18 C 55.96 45.47 55.54 46.73 55.03 47.96 C 52.16 45.71 49.85 42.83 46.92 40.66 C 45.63 40.88 44.88 41.64 44.67 42.94 C 46.94 45.91 49.75 48.42 52.23 51.21 C 50.93 51.54 49.63 51.86 48.33 52.17 C 47.88 53.42 47.78 54.87 46.91 55.94 C 43.98 56.80 44.02 53.19 43.74 51.29 C 42.85 50.93 41.95 50.57 41.06 50.21 C 39.80 50.88 38.64 51.98 37.14 51.96 C 34.84 50.72 36.94 48.47 37.72 46.96 C 37.33 46.07 36.95 45.18 36.56 44.29 C 34.75 43.92 31.24 44.00 32.06 41.19 C 33.10 39.99 34.85 40.09 36.23 39.61 C 36.54 37.49 35.38 34.86 37.19 33.20 C 38.84 31.36 41.49 32.57 43.62 32.23 Z" />
</g>
</svg>
