<?xml version="1.0" encoding="UTF-8" ?>
<!DOCTYPE svg PUBLIC "-//W3C//DTD SVG 1.1//EN" "http://www.w3.org/Graphics/SVG/1.1/DTD/svg11.dtd">
<svg width="64pt" height="64pt" viewBox="0 0 64 64" version="1.1" xmlns="http://www.w3.org/2000/svg">
<g id="#ffffffff">
<path fill="#ffffff" opacity="1.00" d=" M 0.00 0.00 L 64.00 0.00 L 64.00 64.00 L 0.00 64.00 L 0.00 0.00 M 12.00 6.00 C 12.00 14.67 11.98 23.33 12.01 32.00 C 13.34 32.00 14.66 32.00 15.99 32.00 C 16.02 24.67 15.99 17.33 16.00 10.00 C 22.67 10.00 29.34 9.99 36.00 10.00 C 35.98 14.00 36.02 18.00 36.00 22.00 C 40.00 21.98 44.00 22.02 48.00 22.00 C 48.01 32.64 47.98 43.29 48.02 53.94 C 46.67 53.98 45.33 54.02 43.99 54.07 C 43.99 55.38 43.99 56.68 44.00 57.99 C 46.67 58.00 49.33 58.00 52.00 58.00 C 51.99 45.04 52.03 32.08 51.98 19.12 C 47.61 14.76 43.24 10.39 38.88 6.02 C 29.92 5.98 20.96 6.01 12.00 6.00 M 8.00 36.00 C 8.00 41.98 7.99 47.96 8.02 53.94 C 6.67 53.98 5.33 54.02 3.99 54.07 C 3.99 55.37 4.00 56.68 4.00 57.98 C 16.00 58.01 28.00 58.01 40.00 57.98 C 40.00 56.68 40.01 55.37 40.01 54.07 C 38.67 54.02 37.32 53.98 35.98 53.94 C 36.01 47.96 36.00 41.98 36.00 36.00 C 26.66 36.00 17.33 36.00 8.00 36.00 Z" />
<path fill="#ffffff" opacity="1.00" d=" M 40.03 12.90 C 41.77 14.54 43.46 16.23 45.10 17.97 C 43.39 17.98 41.69 17.99 39.99 18.01 C 40.01 16.31 40.02 14.60 40.03 12.90 Z" />
<path fill="#ffffff" opacity="1.00" d=" M 12.00 40.00 C 18.67 40.00 25.33 40.00 32.00 40.00 C 32.00 44.67 32.00 49.33 32.00 54.00 C 25.33 54.00 18.67 54.00 12.00 54.00 C 11.99 49.33 11.99 44.67 12.00 40.00 M 21.20 42.10 C 18.86 43.15 20.38 46.84 22.79 45.90 C 25.14 44.83 23.62 41.17 21.20 42.10 Z" />
</g>
<g id="#000000ff">
<path fill="#000000" opacity="1.00" d=" M 12.00 6.00 C 20.96 6.01 29.92 5.98 38.88 6.02 C 43.24 10.39 47.61 14.76 51.98 19.12 C 52.03 32.08 51.99 45.04 52.00 58.00 C 49.33 58.00 46.67 58.00 44.00 57.99 C 43.99 56.68 43.99 55.38 43.99 54.07 C 45.33 54.02 46.67 53.98 48.02 53.94 C 47.98 43.29 48.01 32.64 48.00 22.00 C 44.00 22.02 40.00 21.98 36.00 22.00 C 36.02 18.00 35.98 14.00 36.00 10.00 C 29.34 9.99 22.67 10.00 16.00 10.00 C 15.99 17.33 16.02 24.67 15.99 32.00 C 14.66 32.00 13.34 32.00 12.01 32.00 C 11.98 23.33 12.00 14.67 12.00 6.00 M 40.03 12.90 C 40.02 14.60 40.01 16.31 39.99 18.01 C 41.69 17.99 43.39 17.98 45.10 17.97 C 43.46 16.23 41.77 14.54 40.03 12.90 Z" />
<path fill="#000000" opacity="1.00" d=" M 8.00 36.00 C 17.33 36.00 26.66 36.00 36.00 36.00 C 36.00 41.98 36.01 47.96 35.98 53.94 C 37.32 53.98 38.67 54.02 40.01 54.07 C 40.01 55.37 40.00 56.68 40.00 57.98 C 28.00 58.01 16.00 58.01 4.00 57.98 C 4.00 56.68 3.99 55.37 3.99 54.07 C 5.33 54.02 6.67 53.98 8.02 53.94 C 7.99 47.96 8.00 41.98 8.00 36.00 M 12.00 40.00 C 11.99 44.67 11.99 49.33 12.00 54.00 C 18.67 54.00 25.33 54.00 32.00 54.00 C 32.00 49.33 32.00 44.67 32.00 40.00 C 25.33 40.00 18.67 40.00 12.00 40.00 Z" />
<path fill="#000000" opacity="1.00" d=" M 21.20 42.10 C 23.62 41.17 25.14 44.83 22.79 45.90 C 20.38 46.84 18.86 43.15 21.20 42.10 Z" />
</g>
</svg>
