<?xml version="1.0" encoding="UTF-8" ?>
<!DOCTYPE svg PUBLIC "-//W3C//DTD SVG 1.1//EN" "http://www.w3.org/Graphics/SVG/1.1/DTD/svg11.dtd">
<svg width="64pt" height="64pt" viewBox="0 0 64 64" version="1.1" xmlns="http://www.w3.org/2000/svg">
<g id="#ffffffff">
<path fill="#ffffff" opacity="1.00" d=" M 0.00 0.00 L 64.00 0.00 L 64.00 64.00 L 0.00 64.00 L 0.00 0.00 M 13.78 17.83 C 9.20 22.78 10.25 29.97 8.88 36.08 C 8.11 41.92 5.25 47.11 2.74 52.33 C 5.41 50.44 8.03 48.49 10.55 46.42 C 9.30 48.99 8.08 51.59 6.86 54.18 C 10.32 51.56 14.37 49.41 16.68 45.59 C 19.31 41.81 20.40 37.30 22.05 33.07 C 23.91 28.91 28.96 27.71 33.11 28.04 C 36.84 28.10 40.91 29.95 42.21 33.68 C 43.96 38.88 45.65 44.38 49.57 48.42 C 51.86 50.60 54.61 52.23 57.12 54.14 C 55.91 51.56 54.70 48.98 53.44 46.42 C 55.97 48.50 58.61 50.42 61.27 52.32 C 58.74 47.12 55.89 41.94 55.13 36.12 C 53.75 29.99 54.80 22.79 50.21 17.83 C 45.77 12.53 38.38 12.10 31.98 12.00 C 25.60 12.10 18.21 12.54 13.78 17.83 Z" />
<path fill="#ffffff" opacity="1.00" d=" M 15.38 22.36 C 18.29 16.70 25.37 16.15 31.00 16.01 C 36.42 16.15 42.77 15.93 46.93 20.04 C 49.67 22.65 49.86 26.64 50.35 30.14 C 50.95 33.80 49.69 37.39 49.28 40.99 C 46.79 36.36 46.54 30.32 42.03 26.99 C 36.48 23.01 28.35 23.01 22.59 26.53 C 17.56 29.72 17.28 36.14 14.72 40.98 C 13.36 34.86 12.86 28.26 15.38 22.36 Z" />
</g>
<g id="#000000ff">
<path fill="#000000" opacity="1.00" d=" M 13.78 17.83 C 18.21 12.54 25.60 12.10 31.98 12.00 C 38.38 12.10 45.77 12.53 50.21 17.83 C 54.80 22.79 53.75 29.99 55.13 36.12 C 55.89 41.94 58.74 47.12 61.27 52.32 C 58.61 50.42 55.97 48.50 53.44 46.42 C 54.70 48.98 55.91 51.56 57.12 54.14 C 54.61 52.23 51.86 50.60 49.57 48.42 C 45.65 44.38 43.96 38.88 42.21 33.68 C 40.91 29.95 36.84 28.10 33.11 28.04 C 28.96 27.71 23.91 28.91 22.05 33.07 C 20.40 37.30 19.31 41.81 16.68 45.59 C 14.37 49.41 10.32 51.56 6.86 54.18 C 8.08 51.59 9.30 48.99 10.55 46.42 C 8.03 48.49 5.41 50.44 2.74 52.33 C 5.25 47.11 8.11 41.92 8.88 36.08 C 10.25 29.97 9.20 22.78 13.78 17.83 M 15.38 22.36 C 12.86 28.26 13.36 34.86 14.72 40.98 C 17.28 36.14 17.56 29.72 22.59 26.53 C 28.35 23.01 36.48 23.01 42.03 26.99 C 46.54 30.32 46.79 36.36 49.28 40.99 C 49.69 37.39 50.95 33.80 50.35 30.14 C 49.86 26.64 49.67 22.65 46.93 20.04 C 42.77 15.93 36.42 16.15 31.00 16.01 C 25.37 16.15 18.29 16.70 15.38 22.36 Z" />
</g>
</svg>
