<?xml version="1.0" encoding="UTF-8" ?>
<!DOCTYPE svg PUBLIC "-//W3C//DTD SVG 1.1//EN" "http://www.w3.org/Graphics/SVG/1.1/DTD/svg11.dtd">
<svg width="64pt" height="64pt" viewBox="0 0 64 64" version="1.1" xmlns="http://www.w3.org/2000/svg">
<g id="#ffffffff">
<path fill="#ffffff" opacity="1.00" d=" M 0.00 0.00 L 64.00 0.00 L 64.00 64.00 L 0.00 64.00 L 0.00 0.00 M 21.81 5.85 C 22.01 9.29 22.60 12.71 23.74 15.97 C 18.31 16.66 13.42 13.49 8.00 13.93 C 8.00 17.94 8.00 21.94 8.00 25.95 C 9.21 26.01 10.42 26.08 11.62 26.15 C 11.65 27.49 11.66 28.84 11.68 30.18 C 10.76 30.12 8.92 30.00 8.00 29.94 C 8.00 33.94 8.00 37.95 8.00 41.95 C 9.21 42.01 10.41 42.08 11.62 42.15 C 11.64 43.49 11.67 44.84 11.69 46.18 C 10.46 46.10 9.23 46.02 8.00 45.94 C 8.00 49.96 8.00 53.98 8.00 58.00 C 24.00 58.00 40.00 58.00 56.00 58.00 C 56.00 53.98 56.00 49.96 56.00 45.94 C 54.76 46.02 53.53 46.09 52.29 46.18 C 52.33 44.83 52.36 43.49 52.39 42.15 C 53.59 42.08 54.80 42.01 56.00 41.95 C 56.00 37.95 56.00 33.94 56.00 29.94 C 55.08 30.00 53.24 30.12 52.33 30.19 C 52.34 28.85 52.35 27.51 52.36 26.17 C 53.57 26.09 54.79 26.01 56.00 25.94 C 56.00 21.94 56.00 17.93 56.00 13.93 C 51.19 13.56 46.83 15.91 42.10 16.14 C 43.43 12.86 43.99 9.36 44.19 5.85 C 40.35 6.03 36.46 6.49 33.00 8.26 C 29.54 6.49 25.64 6.02 21.81 5.85 Z" />
<path fill="#ffffff" opacity="1.00" d=" M 26.22 10.14 C 28.29 10.89 31.50 11.12 31.63 13.97 C 30.64 14.09 28.66 14.33 27.68 14.45 C 27.16 13.03 26.67 11.59 26.22 10.14 Z" />
<path fill="#ffffff" opacity="1.00" d=" M 35.28 14.36 C 34.41 11.19 37.57 10.76 39.82 10.14 C 39.26 11.77 38.67 13.39 38.03 14.99 C 37.34 14.83 35.97 14.52 35.28 14.36 Z" />
<path fill="#ffffff" opacity="1.00" d=" M 22.08 19.97 C 25.49 19.80 28.59 17.97 32.02 17.98 C 35.44 18.00 38.52 19.82 41.93 19.95 C 45.39 20.26 48.70 18.97 52.03 18.27 C 52.00 19.63 51.96 21.00 51.91 22.37 C 49.28 22.76 46.72 23.56 44.09 23.95 C 39.91 24.46 36.17 21.80 32.00 22.00 C 27.84 21.79 24.10 24.46 19.92 23.95 C 17.28 23.57 14.72 22.76 12.07 22.36 C 12.03 21.00 12.00 19.64 11.97 18.27 C 15.31 18.98 18.61 20.25 22.08 19.97 Z" />
<path fill="#ffffff" opacity="1.00" d=" M 27.49 26.78 C 34.46 24.04 41.32 30.26 48.36 27.16 C 48.35 28.14 48.34 30.10 48.34 31.08 C 41.34 34.18 34.45 28.01 27.41 30.66 C 23.64 32.07 19.51 32.47 15.66 31.08 C 15.66 30.10 15.64 28.15 15.64 27.17 C 19.53 28.34 23.69 28.20 27.49 26.78 Z" />
<path fill="#ffffff" opacity="1.00" d=" M 22.11 35.96 C 25.50 35.81 28.57 33.97 31.98 33.98 C 35.39 33.96 38.47 35.80 41.86 35.96 C 45.32 36.26 48.62 35.01 51.94 34.27 C 51.97 35.27 52.03 37.26 52.07 38.25 C 49.39 38.74 46.79 39.57 44.10 39.95 C 39.94 40.46 36.22 37.84 32.09 38.00 C 27.88 37.76 24.11 40.47 19.89 39.95 C 17.23 39.56 14.65 38.75 11.99 38.29 C 12.00 37.29 12.01 35.28 12.02 34.28 C 15.35 35.00 18.65 36.25 22.11 35.96 Z" />
<path fill="#ffffff" opacity="1.00" d=" M 15.64 43.17 C 20.03 44.63 24.62 43.87 28.89 42.40 C 33.74 40.77 38.24 44.17 43.06 44.00 C 44.86 43.97 46.61 43.51 48.36 43.16 C 48.36 44.14 48.34 46.10 48.34 47.08 C 41.37 50.17 34.52 44.05 27.50 46.63 C 23.70 48.05 19.54 48.50 15.66 47.08 C 15.66 46.10 15.64 44.14 15.64 43.17 Z" />
<path fill="#ffffff" opacity="1.00" d=" M 22.07 51.97 C 25.47 51.82 28.56 49.96 31.98 49.98 C 35.41 49.96 38.51 51.82 41.93 51.97 C 45.37 52.24 48.66 50.99 51.98 50.27 C 51.98 51.21 52.00 53.07 52.01 54.00 C 38.67 54.00 25.33 54.00 11.99 54.00 C 12.00 53.07 12.02 51.21 12.03 50.28 C 15.34 51.00 18.62 52.24 22.07 51.97 Z" />
</g>
<g id="#000000ff">
<path fill="#000000" opacity="1.00" d=" M 21.81 5.85 C 25.64 6.02 29.54 6.49 33.00 8.26 C 36.46 6.49 40.35 6.03 44.19 5.85 C 43.99 9.36 43.43 12.86 42.10 16.14 C 46.83 15.91 51.19 13.56 56.00 13.93 C 56.00 17.93 56.00 21.94 56.00 25.94 C 54.79 26.01 53.57 26.09 52.36 26.17 C 52.35 27.51 52.34 28.85 52.33 30.19 C 53.24 30.12 55.08 30.00 56.00 29.94 C 56.00 33.94 56.00 37.95 56.00 41.95 C 54.80 42.01 53.59 42.08 52.39 42.15 C 52.36 43.49 52.33 44.83 52.29 46.18 C 53.53 46.09 54.76 46.02 56.00 45.94 C 56.00 49.96 56.00 53.98 56.00 58.00 C 40.00 58.00 24.00 58.00 8.00 58.00 C 8.00 53.98 8.00 49.96 8.00 45.94 C 9.23 46.02 10.46 46.10 11.69 46.18 C 11.67 44.84 11.64 43.49 11.62 42.15 C 10.41 42.08 9.21 42.01 8.00 41.95 C 8.00 37.95 8.00 33.94 8.00 29.94 C 8.92 30.00 10.76 30.12 11.68 30.18 C 11.66 28.84 11.65 27.49 11.62 26.15 C 10.42 26.08 9.21 26.01 8.00 25.95 C 8.00 21.94 8.00 17.94 8.00 13.93 C 13.42 13.49 18.31 16.66 23.74 15.97 C 22.60 12.71 22.01 9.29 21.81 5.85 M 26.22 10.14 C 26.67 11.59 27.16 13.03 27.68 14.45 C 28.66 14.33 30.64 14.09 31.63 13.97 C 31.50 11.12 28.29 10.89 26.22 10.14 M 35.28 14.36 C 35.97 14.52 37.34 14.83 38.03 14.99 C 38.67 13.39 39.26 11.77 39.82 10.14 C 37.57 10.76 34.41 11.19 35.28 14.36 M 22.08 19.97 C 18.61 20.25 15.31 18.98 11.97 18.27 C 12.00 19.64 12.03 21.00 12.07 22.36 C 14.72 22.76 17.28 23.57 19.92 23.95 C 24.10 24.46 27.84 21.79 32.00 22.00 C 36.17 21.80 39.91 24.46 44.09 23.95 C 46.72 23.56 49.28 22.76 51.91 22.37 C 51.96 21.00 52.00 19.63 52.03 18.27 C 48.70 18.97 45.39 20.26 41.93 19.95 C 38.52 19.82 35.44 18.00 32.02 17.98 C 28.59 17.97 25.49 19.80 22.08 19.97 M 27.49 26.78 C 23.69 28.20 19.53 28.34 15.64 27.17 C 15.64 28.15 15.66 30.10 15.66 31.08 C 19.51 32.47 23.64 32.07 27.41 30.66 C 34.45 28.01 41.34 34.18 48.34 31.08 C 48.34 30.10 48.35 28.14 48.36 27.16 C 41.32 30.26 34.46 24.04 27.49 26.78 M 22.11 35.96 C 18.65 36.25 15.35 35.00 12.02 34.28 C 12.01 35.28 12.00 37.29 11.99 38.29 C 14.65 38.75 17.23 39.56 19.89 39.95 C 24.11 40.47 27.88 37.76 32.09 38.00 C 36.22 37.84 39.94 40.46 44.10 39.95 C 46.79 39.57 49.39 38.74 52.07 38.25 C 52.03 37.26 51.97 35.27 51.94 34.27 C 48.62 35.01 45.32 36.26 41.86 35.96 C 38.47 35.80 35.39 33.96 31.98 33.98 C 28.57 33.97 25.50 35.81 22.11 35.96 M 15.64 43.17 C 15.64 44.14 15.66 46.10 15.66 47.08 C 19.54 48.50 23.70 48.05 27.50 46.63 C 34.52 44.05 41.37 50.17 48.34 47.08 C 48.34 46.10 48.36 44.14 48.36 43.16 C 46.61 43.51 44.86 43.97 43.06 44.00 C 38.24 44.17 33.74 40.77 28.89 42.40 C 24.62 43.87 20.03 44.63 15.64 43.17 M 22.07 51.97 C 18.62 52.24 15.34 51.00 12.03 50.28 C 12.02 51.21 12.00 53.07 11.99 54.00 C 25.33 54.00 38.67 54.00 52.01 54.00 C 52.00 53.07 51.98 51.21 51.98 50.27 C 48.66 50.99 45.37 52.24 41.93 51.97 C 38.51 51.82 35.41 49.96 31.98 49.98 C 28.56 49.96 25.47 51.82 22.07 51.97 Z" />
</g>
</svg>
