<?xml version="1.0" encoding="UTF-8" ?>
<!DOCTYPE svg PUBLIC "-//W3C//DTD SVG 1.1//EN" "http://www.w3.org/Graphics/SVG/1.1/DTD/svg11.dtd">
<svg width="60pt" height="60pt" viewBox="0 0 60 60" version="1.1" xmlns="http://www.w3.org/2000/svg">
<g id="#ffffffff">
<path fill="#ffffff" opacity="1.00" d=" M 0.00 0.00 L 60.00 0.00 L 60.00 60.00 L 0.00 60.00 L 0.00 0.00 M 28.08 5.90 C 27.83 14.07 28.16 22.24 27.93 30.41 C 26.06 31.94 25.15 34.99 27.17 36.79 C 29.21 39.09 33.26 37.83 33.90 34.91 C 34.69 32.62 31.98 31.29 32.01 29.14 C 31.96 22.09 32.02 15.03 32.02 7.98 C 31.93 6.62 32.26 4.94 30.89 4.09 C 29.63 3.70 27.93 4.38 28.08 5.90 M 49.19 12.19 C 45.16 15.81 41.40 19.76 37.62 23.65 C 35.64 25.36 38.67 28.32 40.36 26.38 C 44.10 22.81 47.76 19.13 51.35 15.41 C 53.09 14.05 51.13 11.08 49.19 12.19 M 15.13 18.07 C 13.95 18.69 13.55 20.42 14.60 21.35 C 16.71 23.59 18.82 25.88 21.22 27.81 C 23.63 28.88 25.03 25.34 22.92 24.11 C 20.39 22.14 18.60 18.13 15.13 18.07 M 7.20 35.81 C 10.86 36.26 14.57 35.88 18.26 36.01 C 18.89 37.65 19.57 39.27 20.29 40.87 C 18.83 42.78 15.71 44.13 16.09 46.89 C 18.60 49.88 21.15 45.35 23.02 43.82 C 24.65 44.60 26.31 45.32 27.99 45.96 C 28.05 48.94 27.78 51.94 28.21 54.90 C 28.89 56.37 31.20 56.36 31.81 54.82 C 32.20 51.89 31.95 48.92 32.01 45.98 C 33.69 45.32 35.32 44.58 36.94 43.79 C 39.76 46.37 42.18 49.41 45.20 51.76 C 46.67 52.73 48.69 50.77 47.82 49.24 C 45.38 46.20 42.36 43.70 39.70 40.86 C 40.46 39.26 41.13 37.63 41.75 35.98 C 45.44 35.90 49.16 36.27 52.83 35.80 C 54.76 35.10 54.10 31.88 52.04 32.08 C 47.74 31.95 43.41 31.84 39.12 32.17 C 37.33 33.76 38.16 36.73 36.62 38.56 C 33.73 43.08 26.26 43.07 23.37 38.56 C 21.84 36.73 22.67 33.80 20.90 32.18 C 16.61 31.83 12.27 31.96 7.96 32.08 C 5.86 31.88 5.23 35.15 7.20 35.81 Z" />
</g>
<g id="#000000ff">
<path fill="#000000" opacity="1.00" d=" M 28.08 5.90 C 27.93 4.38 29.63 3.70 30.89 4.09 C 32.26 4.94 31.93 6.62 32.02 7.98 C 32.02 15.03 31.96 22.09 32.01 29.14 C 31.98 31.29 34.69 32.62 33.90 34.91 C 33.26 37.83 29.21 39.09 27.17 36.79 C 25.15 34.99 26.06 31.94 27.93 30.41 C 28.16 22.24 27.83 14.07 28.08 5.90 Z" />
<path fill="#000000" opacity="1.00" d=" M 49.19 12.19 C 51.13 11.08 53.09 14.05 51.35 15.41 C 47.76 19.13 44.10 22.81 40.36 26.38 C 38.67 28.32 35.64 25.36 37.62 23.65 C 41.40 19.76 45.16 15.81 49.19 12.19 Z" />
<path fill="#000000" opacity="1.00" d=" M 15.13 18.07 C 18.60 18.13 20.39 22.14 22.92 24.11 C 25.03 25.34 23.63 28.88 21.22 27.81 C 18.82 25.88 16.71 23.59 14.60 21.35 C 13.55 20.42 13.95 18.69 15.13 18.07 Z" />
<path fill="#000000" opacity="1.00" d=" M 7.20 35.81 C 5.23 35.15 5.86 31.88 7.96 32.08 C 12.27 31.96 16.61 31.83 20.90 32.18 C 22.67 33.80 21.84 36.73 23.37 38.56 C 26.26 43.07 33.73 43.08 36.62 38.56 C 38.16 36.73 37.33 33.76 39.12 32.17 C 43.41 31.84 47.74 31.95 52.04 32.08 C 54.10 31.88 54.76 35.10 52.83 35.80 C 49.16 36.27 45.44 35.90 41.75 35.98 C 41.13 37.63 40.46 39.26 39.70 40.86 C 42.36 43.70 45.38 46.20 47.82 49.24 C 48.69 50.77 46.67 52.73 45.20 51.76 C 42.18 49.41 39.76 46.37 36.94 43.79 C 35.32 44.58 33.69 45.32 32.01 45.98 C 31.95 48.92 32.20 51.89 31.81 54.82 C 31.20 56.36 28.89 56.37 28.21 54.90 C 27.78 51.94 28.05 48.94 27.99 45.96 C 26.31 45.32 24.65 44.60 23.02 43.82 C 21.15 45.35 18.60 49.88 16.09 46.89 C 15.71 44.13 18.83 42.78 20.29 40.87 C 19.57 39.27 18.89 37.65 18.26 36.01 C 14.57 35.88 10.86 36.26 7.20 35.81 Z" />
</g>
</svg>
