<?xml version="1.0" encoding="UTF-8" ?>
<!DOCTYPE svg PUBLIC "-//W3C//DTD SVG 1.1//EN" "http://www.w3.org/Graphics/SVG/1.1/DTD/svg11.dtd">
<svg width="60pt" height="60pt" viewBox="0 0 60 60" version="1.1" xmlns="http://www.w3.org/2000/svg">
<g id="#ffffffff">
<path fill="#ffffff" opacity="1.00" d=" M 0.00 0.00 L 60.00 0.00 L 60.00 60.00 L 0.00 60.00 L 0.00 0.00 M 8.00 12.90 C 8.09 24.94 7.82 37.00 8.13 49.03 C 9.12 52.47 13.10 52.11 15.92 52.01 C 16.13 53.32 15.69 55.05 17.10 55.82 C 20.33 56.13 23.62 56.12 26.85 55.83 C 28.33 55.10 27.86 53.31 28.09 52.00 C 34.75 51.96 41.42 52.07 48.09 51.96 C 50.12 52.00 52.00 50.12 51.96 48.08 C 52.06 37.70 51.97 27.31 52.00 16.93 C 52.35 14.61 50.65 11.97 48.15 12.04 C 44.17 11.91 40.18 12.06 36.20 11.99 C 35.69 10.06 34.33 7.94 32.08 8.04 C 25.34 7.97 18.60 7.97 11.87 8.04 C 9.38 7.98 7.63 10.56 8.00 12.90 Z" />
<path fill="#ffffff" opacity="1.00" d=" M 12.00 12.00 C 18.67 12.00 25.33 12.00 32.00 12.00 C 32.00 24.00 32.00 36.00 32.00 48.00 C 25.33 48.00 18.67 48.00 12.00 48.00 C 12.00 36.00 12.00 24.00 12.00 12.00 M 16.35 33.98 C 17.98 39.64 27.13 38.96 27.89 33.11 C 27.98 28.10 24.84 23.56 22.00 19.64 C 19.10 23.77 15.38 28.69 16.35 33.98 Z" />
</g>
<g id="#000000ff">
<path fill="#000000" opacity="1.00" d=" M 8.00 12.90 C 7.63 10.56 9.38 7.98 11.87 8.04 C 18.60 7.97 25.34 7.97 32.08 8.04 C 34.33 7.94 35.69 10.06 36.20 11.99 C 40.18 12.06 44.17 11.91 48.15 12.04 C 50.65 11.97 52.35 14.61 52.00 16.93 C 51.97 27.31 52.06 37.70 51.96 48.08 C 52.00 50.12 50.12 52.00 48.09 51.96 C 41.42 52.07 34.75 51.96 28.09 52.00 C 27.86 53.31 28.33 55.10 26.85 55.83 C 23.62 56.12 20.33 56.13 17.10 55.82 C 15.69 55.05 16.13 53.32 15.92 52.01 C 13.10 52.11 9.12 52.47 8.13 49.03 C 7.82 37.00 8.09 24.94 8.00 12.90 M 12.00 12.00 C 12.00 24.00 12.00 36.00 12.00 48.00 C 18.67 48.00 25.33 48.00 32.00 48.00 C 32.00 36.00 32.00 24.00 32.00 12.00 C 25.33 12.00 18.67 12.00 12.00 12.00 Z" />
<path fill="#000000" opacity="1.00" d=" M 16.35 33.98 C 15.38 28.69 19.10 23.77 22.00 19.64 C 24.84 23.56 27.98 28.10 27.89 33.11 C 27.13 38.96 17.98 39.64 16.35 33.98 Z" />
</g>
</svg>
