<?xml version="1.0" encoding="UTF-8" ?>
<!DOCTYPE svg PUBLIC "-//W3C//DTD SVG 1.1//EN" "http://www.w3.org/Graphics/SVG/1.1/DTD/svg11.dtd">
<svg width="64pt" height="64pt" viewBox="0 0 64 64" version="1.1" xmlns="http://www.w3.org/2000/svg">
<g id="#ffffffff">
<path fill="#ffffff" opacity="1.00" d=" M 0.00 0.00 L 64.00 0.00 L 64.00 64.00 L 0.00 64.00 L 0.00 0.00 M 52.59 4.55 C 50.92 6.22 49.23 7.88 47.57 9.56 C 47.18 9.16 46.41 8.38 46.02 7.98 C 44.50 9.50 42.98 11.01 41.48 12.54 C 40.31 11.42 39.15 10.30 37.99 9.17 C 36.23 10.75 34.80 12.75 32.77 14.00 C 29.53 15.36 26.30 17.25 24.34 20.26 C 21.60 24.21 18.78 28.09 15.99 32.00 C 16.67 32.65 17.34 33.32 18.00 34.00 C 22.46 30.77 27.02 27.67 31.43 24.37 C 34.48 21.78 35.14 17.55 37.97 14.85 C 39.69 16.57 41.41 18.28 43.12 20.00 C 41.39 21.70 39.72 23.44 38.00 25.15 C 38.00 26.39 38.00 27.63 38.00 28.88 C 35.49 30.87 32.69 32.74 29.30 32.02 C 23.64 36.25 18.36 41.01 12.49 44.94 C 13.25 41.72 15.82 39.39 17.38 36.56 C 15.87 35.04 14.38 33.52 12.87 32.00 C 11.92 32.96 10.97 33.92 10.00 34.86 C 10.56 35.43 11.69 36.57 12.25 37.14 C 10.66 39.40 9.15 41.71 7.59 43.99 C 9.05 46.23 10.53 48.46 12.05 50.67 C 17.03 46.73 22.04 42.82 27.03 38.89 C 28.76 37.56 30.36 35.66 32.78 35.88 C 36.79 43.29 40.91 50.64 44.93 58.04 C 47.97 56.37 51.02 54.73 54.06 53.06 C 50.01 45.35 45.69 37.78 41.78 30.00 C 43.19 30.00 44.60 30.00 46.00 29.99 C 46.00 28.67 46.00 27.34 46.00 26.01 C 45.22 26.00 43.66 25.99 42.88 25.98 C 44.89 24.03 46.85 22.04 48.81 20.03 C 48.47 19.65 47.80 18.89 47.47 18.50 C 49.00 17.00 50.51 15.49 52.03 13.97 C 51.63 13.60 50.83 12.84 50.44 12.46 C 52.11 10.79 53.77 9.09 55.46 7.43 C 54.48 6.49 53.52 5.53 52.59 4.55 Z" />
<path fill="#ffffff" opacity="1.00" d=" M 36.63 34.67 C 37.38 34.18 38.13 33.68 38.88 33.19 C 42.15 39.29 45.45 45.37 48.69 51.48 C 48.13 51.76 47.03 52.32 46.47 52.60 C 43.21 46.61 39.90 40.65 36.63 34.67 Z" />
</g>
<g id="#000000ff">
<path fill="#000000" opacity="1.00" d=" M 52.59 4.55 C 53.52 5.53 54.48 6.49 55.46 7.43 C 53.77 9.09 52.11 10.79 50.44 12.46 C 50.83 12.84 51.63 13.60 52.03 13.97 C 50.51 15.49 49.00 17.00 47.47 18.50 C 47.80 18.89 48.47 19.65 48.81 20.03 C 46.85 22.04 44.89 24.03 42.88 25.98 C 43.66 25.99 45.22 26.00 46.00 26.01 C 46.00 27.34 46.00 28.67 46.00 29.99 C 44.60 30.00 43.19 30.00 41.78 30.00 C 45.69 37.78 50.01 45.35 54.06 53.06 C 51.02 54.73 47.97 56.37 44.93 58.04 C 40.91 50.64 36.79 43.29 32.78 35.88 C 30.36 35.66 28.76 37.56 27.03 38.89 C 22.04 42.82 17.03 46.73 12.05 50.67 C 10.53 48.46 9.05 46.23 7.59 43.99 C 9.15 41.71 10.66 39.40 12.25 37.14 C 11.69 36.57 10.56 35.43 10.00 34.86 C 10.97 33.92 11.92 32.96 12.87 32.00 C 14.38 33.52 15.87 35.04 17.38 36.56 C 15.82 39.39 13.25 41.72 12.49 44.94 C 18.36 41.01 23.64 36.25 29.30 32.02 C 32.69 32.74 35.49 30.87 38.00 28.88 C 38.00 27.63 38.00 26.39 38.00 25.15 C 39.72 23.44 41.39 21.70 43.12 20.00 C 41.41 18.28 39.69 16.57 37.97 14.85 C 35.14 17.55 34.48 21.78 31.43 24.37 C 27.02 27.67 22.46 30.77 18.00 34.00 C 17.34 33.32 16.67 32.65 15.99 32.00 C 18.78 28.09 21.60 24.21 24.34 20.26 C 26.30 17.25 29.53 15.36 32.77 14.00 C 34.80 12.75 36.23 10.75 37.99 9.17 C 39.15 10.30 40.31 11.42 41.48 12.54 C 42.98 11.01 44.50 9.50 46.02 7.98 C 46.41 8.38 47.18 9.16 47.57 9.56 C 49.23 7.88 50.92 6.22 52.59 4.55 M 36.63 34.67 C 39.90 40.65 43.21 46.61 46.47 52.60 C 47.03 52.32 48.13 51.76 48.69 51.48 C 45.45 45.37 42.15 39.29 38.88 33.19 C 38.13 33.68 37.38 34.18 36.63 34.67 Z" />
</g>
</svg>
