<?xml version="1.0" encoding="UTF-8" ?>
<!DOCTYPE svg PUBLIC "-//W3C//DTD SVG 1.1//EN" "http://www.w3.org/Graphics/SVG/1.1/DTD/svg11.dtd">
<svg width="200pt" height="200pt" viewBox="0 0 200 200" version="1.1" xmlns="http://www.w3.org/2000/svg">
<g id="#ffffffff">
<path fill="#ffffff" opacity="1.00" d=" M 0.00 0.00 L 200.00 0.00 L 200.00 200.00 L 0.00 200.00 L 0.00 0.00 M 76.81 9.96 C 76.88 14.95 76.55 19.96 76.99 24.93 C 78.56 29.38 84.04 27.70 87.61 28.02 C 87.59 31.07 87.59 34.12 87.59 37.16 C 73.54 39.34 60.20 45.43 49.17 54.37 C 46.98 52.18 44.79 49.99 42.60 47.81 C 44.79 45.57 48.61 42.86 46.61 39.28 C 44.74 36.88 42.48 34.80 40.24 32.76 C 38.30 31.06 35.31 31.86 33.82 33.75 C 28.24 39.59 22.28 45.10 16.93 51.14 C 14.92 55.92 20.72 58.79 23.37 61.83 C 26.84 64.56 30.20 60.59 32.38 58.20 C 34.59 60.39 36.80 62.58 38.97 64.82 C 27.89 77.95 21.38 94.82 20.68 111.99 C 19.96 127.41 23.84 143.02 31.82 156.25 C 41.30 172.18 56.52 184.61 74.07 190.64 C 90.71 196.43 109.29 196.43 125.93 190.63 C 143.24 184.67 158.31 172.49 167.79 156.84 C 176.90 142.05 180.82 124.20 178.91 106.95 C 177.32 91.62 170.98 76.88 161.20 64.99 C 163.39 62.79 165.59 60.59 167.79 58.40 C 169.84 60.55 172.23 64.15 175.71 62.60 C 178.29 60.93 180.26 58.48 182.40 56.30 C 184.17 54.55 183.79 51.47 181.93 49.94 C 176.82 44.78 171.64 39.68 166.54 34.52 C 165.34 33.27 163.83 31.97 161.96 32.25 C 159.70 32.46 158.38 34.55 156.82 35.93 C 155.22 37.74 152.66 39.30 152.82 42.04 C 153.08 44.79 155.71 46.29 157.38 48.18 C 155.20 50.39 153.00 52.59 150.79 54.78 C 139.79 45.64 126.31 39.57 112.19 37.37 C 112.19 34.24 112.19 31.12 112.18 28.00 C 115.78 27.74 121.40 29.37 122.82 24.77 C 123.20 19.82 122.93 14.84 122.97 9.88 C 123.20 7.20 120.69 4.86 118.04 5.19 C 105.70 5.20 93.36 5.13 81.02 5.23 C 78.57 5.19 76.57 7.57 76.81 9.96 Z" />
<path fill="#ffffff" opacity="1.00" d=" M 90.56 53.76 C 104.57 51.59 119.29 54.38 131.50 61.59 C 143.81 68.77 153.56 80.26 158.55 93.61 C 163.88 107.64 163.86 123.61 158.52 137.64 C 153.00 152.38 141.67 164.82 127.53 171.72 C 114.16 178.38 98.35 179.91 83.93 176.03 C 68.32 171.94 54.54 161.49 46.29 147.63 C 38.97 135.55 36.07 120.93 38.03 106.95 C 39.90 92.95 46.78 79.71 57.08 70.06 C 66.23 61.38 78.08 55.60 90.56 53.76 M 91.61 75.99 C 91.59 89.31 91.55 102.63 91.63 115.94 C 91.66 120.26 95.59 124.04 99.89 123.97 C 109.29 124.02 118.69 124.02 128.08 123.98 C 132.02 124.03 135.62 120.89 136.27 117.04 C 137.16 112.18 132.98 107.10 128.01 107.21 C 121.47 107.13 114.94 107.21 108.41 107.19 C 108.34 96.79 108.45 86.39 108.37 75.99 C 108.49 71.53 104.50 67.52 100.05 67.59 C 95.56 67.45 91.47 71.48 91.61 75.99 Z" />
</g>
<g id="#000000ff">
<path fill="#968176" opacity="1.00" d=" M 76.81 9.96 C 76.57 7.57 78.57 5.19 81.02 5.23 C 93.36 5.13 105.70 5.20 118.04 5.19 C 120.69 4.86 123.20 7.20 122.97 9.88 C 122.93 14.84 123.20 19.82 122.82 24.77 C 121.40 29.37 115.78 27.74 112.18 28.00 C 112.19 31.12 112.19 34.24 112.19 37.37 C 126.31 39.57 139.79 45.64 150.79 54.78 C 153.00 52.59 155.20 50.39 157.38 48.18 C 155.71 46.29 153.08 44.79 152.82 42.04 C 152.66 39.30 155.22 37.74 156.82 35.93 C 158.38 34.55 159.70 32.46 161.96 32.25 C 163.83 31.97 165.34 33.27 166.54 34.52 C 171.64 39.68 176.82 44.78 181.93 49.94 C 183.79 51.47 184.17 54.55 182.40 56.30 C 180.26 58.48 178.29 60.93 175.71 62.60 C 172.23 64.15 169.84 60.55 167.79 58.40 C 165.59 60.59 163.39 62.79 161.20 64.99 C 170.98 76.88 177.32 91.62 178.91 106.95 C 180.82 124.20 176.90 142.05 167.79 156.84 C 158.31 172.49 143.24 184.67 125.93 190.63 C 109.29 196.43 90.71 196.43 74.07 190.64 C 56.52 184.61 41.30 172.18 31.82 156.25 C 23.84 143.02 19.96 127.41 20.68 111.99 C 21.38 94.82 27.89 77.95 38.97 64.82 C 36.80 62.58 34.59 60.39 32.38 58.20 C 30.20 60.59 26.84 64.56 23.37 61.83 C 20.72 58.79 14.92 55.92 16.93 51.14 C 22.28 45.10 28.24 39.59 33.82 33.75 C 35.31 31.86 38.30 31.06 40.24 32.76 C 42.48 34.80 44.74 36.88 46.61 39.28 C 48.61 42.86 44.79 45.57 42.60 47.81 C 44.79 49.99 46.98 52.18 49.17 54.37 C 60.20 45.43 73.54 39.34 87.59 37.16 C 87.59 34.12 87.59 31.07 87.61 28.02 C 84.04 27.70 78.56 29.38 76.99 24.93 C 76.55 19.96 76.88 14.95 76.81 9.96 M 90.56 53.76 C 78.08 55.60 66.23 61.38 57.08 70.06 C 46.78 79.71 39.90 92.95 38.03 106.95 C 36.07 120.93 38.97 135.55 46.29 147.63 C 54.54 161.49 68.32 171.94 83.93 176.03 C 98.35 179.91 114.16 178.38 127.53 171.72 C 141.67 164.82 153.00 152.38 158.52 137.64 C 163.86 123.61 163.88 107.64 158.55 93.61 C 153.56 80.26 143.81 68.77 131.50 61.59 C 119.29 54.38 104.57 51.59 90.56 53.76 Z" />
<path fill="#968176" opacity="1.00" d=" M 91.61 75.99 C 91.47 71.48 95.56 67.45 100.05 67.59 C 104.50 67.52 108.49 71.53 108.37 75.99 C 108.45 86.39 108.34 96.79 108.41 107.19 C 114.94 107.21 121.47 107.13 128.01 107.21 C 132.98 107.10 137.16 112.18 136.27 117.04 C 135.62 120.89 132.02 124.03 128.08 123.98 C 118.69 124.02 109.29 124.02 99.89 123.97 C 95.59 124.04 91.66 120.26 91.63 115.94 C 91.55 102.63 91.59 89.31 91.61 75.99 Z" />
</g>
</svg>
