<?xml version="1.0" encoding="UTF-8" ?>
<!DOCTYPE svg PUBLIC "-//W3C//DTD SVG 1.1//EN" "http://www.w3.org/Graphics/SVG/1.1/DTD/svg11.dtd">
<svg width="60pt" height="60pt" viewBox="0 0 60 60" version="1.1" xmlns="http://www.w3.org/2000/svg">
<g id="#ffffffff">
<path fill="#ffffff" opacity="1.00" d=" M 0.00 0.00 L 60.00 0.00 L 60.00 27.84 C 58.10 26.92 56.11 26.23 54.10 25.59 C 54.02 28.52 54.02 31.45 54.09 34.39 C 56.07 33.72 58.04 33.03 60.00 32.31 L 60.00 60.00 L 0.00 60.00 L 0.00 32.08 C 3.02 33.59 6.12 34.93 9.23 36.25 C 10.35 32.14 10.34 27.84 9.25 23.72 C 6.12 25.08 2.93 26.29 0.00 28.05 L 0.00 0.00 M 42.06 26.00 C 32.71 26.10 23.35 25.87 14.00 26.04 C 13.99 28.68 13.99 31.32 14.00 33.95 C 21.99 34.13 29.98 33.87 37.97 34.04 C 38.01 38.01 38.55 42.17 36.86 45.91 C 35.96 47.69 35.70 50.19 37.75 51.31 C 40.31 53.36 45.03 50.59 43.60 47.35 C 41.65 43.06 41.76 38.32 42.12 33.72 C 44.55 34.19 46.86 35.07 49.10 36.08 C 50.54 32.20 50.48 27.77 49.13 23.87 C 46.85 24.82 44.61 26.10 42.06 26.00 Z" />
</g>
<g id="#000000ff">
<path fill="#968176" opacity="1.00" d=" M 0.00 28.05 C 2.93 26.29 6.12 25.08 9.25 23.72 C 10.34 27.84 10.35 32.14 9.23 36.25 C 6.12 34.93 3.02 33.59 0.00 32.08 L 0.00 28.05 Z" />
<path fill="#968176" opacity="1.00" d=" M 42.06 26.00 C 44.61 26.10 46.85 24.82 49.13 23.87 C 50.48 27.77 50.54 32.20 49.10 36.08 C 46.86 35.07 44.55 34.19 42.12 33.72 C 41.76 38.32 41.65 43.06 43.60 47.35 C 45.03 50.59 40.31 53.36 37.75 51.31 C 35.70 50.19 35.96 47.69 36.86 45.91 C 38.55 42.17 38.01 38.01 37.97 34.04 C 29.98 33.87 21.99 34.13 14.00 33.95 C 13.99 31.32 13.99 28.68 14.00 26.04 C 23.35 25.87 32.71 26.10 42.06 26.00 Z" />
<path fill="#968176" opacity="1.00" d=" M 54.10 25.59 C 56.11 26.23 58.10 26.92 60.00 27.84 L 60.00 32.31 C 58.04 33.03 56.07 33.72 54.09 34.39 C 54.02 31.45 54.02 28.52 54.10 25.59 Z" />
</g>
</svg>
