<?xml version="1.0" encoding="UTF-8" ?>
<!DOCTYPE svg PUBLIC "-//W3C//DTD SVG 1.1//EN" "http://www.w3.org/Graphics/SVG/1.1/DTD/svg11.dtd">
<svg width="64pt" height="64pt" viewBox="0 0 64 64" version="1.1" xmlns="http://www.w3.org/2000/svg">
<g id="#ffffffff">
<path fill="#ffffff" opacity="1.00" d=" M 0.00 0.00 L 64.00 0.00 L 64.00 64.00 L 0.00 64.00 L 0.00 0.00 M 26.50 8.65 C 19.38 10.30 13.18 15.38 10.18 22.04 C 7.19 28.47 7.31 36.23 10.47 42.57 C 13.90 49.65 21.02 54.79 28.84 55.77 C 36.83 56.90 45.25 53.64 50.36 47.40 C 57.82 38.87 57.80 25.06 50.33 16.54 C 44.70 9.70 35.10 6.54 26.50 8.65 Z" />
<path fill="#ffffff" opacity="1.00" d=" M 17.73 17.94 C 25.24 10.09 38.79 10.16 46.31 17.95 C 36.79 18.03 27.26 18.04 17.73 17.94 Z" />
<path fill="#ffffff" opacity="1.00" d=" M 12.05 29.97 C 12.54 27.17 13.25 24.38 14.76 21.93 C 26.18 22.09 37.61 21.95 49.03 22.00 L 49.60 22.34 C 50.71 24.77 51.52 27.33 51.95 29.97 C 38.65 30.01 25.35 30.02 12.05 29.97 Z" />
<path fill="#ffffff" opacity="1.00" d=" M 12.05 34.03 C 25.35 33.98 38.65 33.99 51.95 34.03 C 51.44 36.83 50.75 39.64 49.21 42.08 C 37.74 41.95 26.26 41.95 14.79 42.07 C 13.24 39.64 12.56 36.83 12.05 34.03 Z" />
<path fill="#ffffff" opacity="1.00" d=" M 17.73 46.05 C 27.25 45.96 36.78 45.97 46.31 46.05 C 38.78 53.84 25.24 53.90 17.73 46.05 Z" />
</g>
<g id="#000000ff">
<path fill="#000000" opacity="1.00" d=" M 26.50 8.65 C 35.10 6.54 44.70 9.70 50.33 16.54 C 57.80 25.06 57.82 38.87 50.36 47.40 C 45.25 53.64 36.83 56.90 28.84 55.77 C 21.02 54.79 13.90 49.65 10.47 42.57 C 7.31 36.23 7.19 28.47 10.18 22.04 C 13.18 15.38 19.38 10.30 26.50 8.65 M 17.73 17.94 C 27.26 18.04 36.79 18.03 46.31 17.95 C 38.79 10.16 25.24 10.09 17.73 17.94 M 12.05 29.97 C 25.35 30.02 38.65 30.01 51.95 29.97 C 51.52 27.33 50.71 24.77 49.60 22.34 L 49.03 22.00 C 37.61 21.95 26.18 22.09 14.76 21.93 C 13.25 24.38 12.54 27.17 12.05 29.97 M 12.05 34.03 C 12.56 36.83 13.24 39.64 14.79 42.07 C 26.26 41.95 37.74 41.95 49.21 42.08 C 50.75 39.64 51.44 36.83 51.95 34.03 C 38.65 33.99 25.35 33.98 12.05 34.03 M 17.73 46.05 C 25.24 53.90 38.78 53.84 46.31 46.05 C 36.78 45.97 27.25 45.96 17.73 46.05 Z" />
</g>
</svg>
