<?xml version="1.0" encoding="UTF-8" ?>
<!DOCTYPE svg PUBLIC "-//W3C//DTD SVG 1.1//EN" "http://www.w3.org/Graphics/SVG/1.1/DTD/svg11.dtd">
<svg width="60pt" height="60pt" viewBox="0 0 60 60" version="1.1" xmlns="http://www.w3.org/2000/svg">
<g id="#ffffffff">
<path fill="#ffffff" opacity="1.00" d=" M 0.00 0.00 L 60.00 0.00 L 60.00 60.00 L 0.00 60.00 L 0.00 0.00 M 24.49 6.65 C 17.60 8.25 11.55 13.07 8.46 19.43 C 5.19 25.99 5.21 34.05 8.48 40.60 C 11.94 47.68 19.07 52.82 26.90 53.78 C 33.71 54.70 40.86 52.50 45.95 47.88 C 51.25 43.20 54.30 36.08 53.96 29.00 C 53.72 22.36 50.53 15.91 45.44 11.66 C 39.78 6.78 31.74 4.91 24.49 6.65 Z" />
<path fill="#ffffff" opacity="1.00" d=" M 15.65 15.94 C 23.23 8.09 36.80 8.15 44.38 15.96 C 34.81 16.02 25.23 16.04 15.65 15.94 Z" />
<path fill="#ffffff" opacity="1.00" d=" M 12.41 20.15 C 24.02 19.76 35.65 20.17 47.26 19.95 C 48.70 22.42 49.50 25.17 49.98 27.97 C 36.65 28.01 23.33 28.03 10.01 27.96 C 10.47 25.27 11.34 22.67 12.41 20.15 Z" />
<path fill="#ffffff" opacity="1.00" d=" M 10.01 32.04 C 23.33 31.97 36.66 31.98 49.98 32.03 C 49.51 34.82 48.66 37.54 47.31 40.03 C 35.69 39.88 24.06 40.19 12.44 39.87 C 11.34 37.36 10.48 34.74 10.01 32.04 Z" />
<path fill="#ffffff" opacity="1.00" d=" M 15.65 44.06 C 25.22 43.96 34.78 43.97 44.34 44.05 C 36.78 51.86 23.22 51.88 15.65 44.06 Z" />
</g>
<g id="#000000ff">
<path fill="#000000" opacity="1.00" d=" M 24.49 6.65 C 31.74 4.91 39.78 6.78 45.44 11.66 C 50.53 15.91 53.72 22.36 53.96 29.00 C 54.30 36.08 51.25 43.20 45.95 47.88 C 40.86 52.50 33.71 54.70 26.90 53.78 C 19.07 52.82 11.94 47.68 8.48 40.60 C 5.21 34.05 5.19 25.99 8.46 19.43 C 11.55 13.07 17.60 8.25 24.49 6.65 M 15.65 15.94 C 25.23 16.04 34.81 16.02 44.38 15.96 C 36.80 8.15 23.23 8.09 15.65 15.94 M 12.41 20.15 C 11.34 22.67 10.47 25.27 10.01 27.96 C 23.33 28.03 36.65 28.01 49.98 27.97 C 49.50 25.17 48.70 22.42 47.26 19.95 C 35.65 20.17 24.02 19.76 12.41 20.15 M 10.01 32.04 C 10.48 34.74 11.34 37.36 12.44 39.87 C 24.06 40.19 35.69 39.88 47.31 40.03 C 48.66 37.54 49.51 34.82 49.98 32.03 C 36.66 31.98 23.33 31.97 10.01 32.04 M 15.65 44.06 C 23.22 51.88 36.78 51.86 44.34 44.05 C 34.78 43.97 25.22 43.96 15.65 44.06 Z" />
</g>
</svg>
