<?xml version="1.0" encoding="UTF-8" ?>
<!DOCTYPE svg PUBLIC "-//W3C//DTD SVG 1.1//EN" "http://www.w3.org/Graphics/SVG/1.1/DTD/svg11.dtd">
<svg width="64pt" height="64pt" viewBox="0 0 64 64" version="1.1" xmlns="http://www.w3.org/2000/svg">
<g id="#ffffffff">
<path fill="#ffffff" opacity="1.00" d=" M 0.00 0.00 L 64.00 0.00 L 64.00 64.00 L 0.00 64.00 L 0.00 0.00 M 26.45 6.60 C 17.77 8.44 10.31 15.06 7.46 23.46 C 4.33 32.18 6.38 42.49 12.65 49.32 C 18.87 56.40 29.11 59.59 38.24 57.22 C 47.67 54.97 55.41 47.02 57.39 37.53 C 59.43 28.58 56.22 18.72 49.34 12.66 C 43.27 7.11 34.47 4.81 26.45 6.60 Z" />
<path fill="#ffffff" opacity="1.00" d=" M 26.46 10.70 C 32.74 9.06 39.70 10.36 44.93 14.19 C 51.14 18.64 54.69 26.48 53.88 34.09 C 53.26 41.30 48.79 48.01 42.39 51.38 C 35.38 55.21 26.31 54.76 19.72 50.25 C 12.81 45.71 8.95 37.05 10.23 28.87 C 11.33 20.27 18.06 12.78 26.46 10.70 M 26.09 27.89 C 21.47 28.25 16.62 29.91 13.95 33.94 C 17.32 34.03 20.69 34.01 24.06 34.00 C 23.40 35.34 22.73 36.67 22.06 38.00 C 23.38 39.33 24.69 40.67 26.00 42.00 C 27.33 41.33 28.67 40.66 30.01 39.99 C 29.99 43.37 29.97 46.75 30.08 50.13 C 34.07 47.43 35.75 42.60 36.10 37.98 C 41.19 32.46 45.60 25.72 45.98 18.00 C 38.30 18.42 31.57 22.80 26.09 27.89 M 17.92 46.09 C 20.66 45.92 23.59 45.12 25.06 42.58 C 23.47 42.99 21.87 43.35 20.26 43.68 C 20.67 42.05 21.08 40.42 21.50 38.80 C 19.04 40.42 18.00 43.23 17.92 46.09 Z" />
<path fill="#ffffff" opacity="1.00" d=" M 37.17 24.11 C 39.56 23.15 41.14 26.75 38.84 27.89 C 36.44 28.88 34.85 25.24 37.17 24.11 Z" />
</g>
<g id="#000000ff">
<path fill="#000000" opacity="1.00" d=" M 26.45 6.60 C 34.47 4.81 43.27 7.11 49.34 12.66 C 56.22 18.72 59.43 28.58 57.39 37.53 C 55.41 47.02 47.67 54.97 38.24 57.22 C 29.11 59.59 18.87 56.40 12.65 49.32 C 6.38 42.49 4.33 32.18 7.46 23.46 C 10.31 15.06 17.77 8.44 26.45 6.60 M 26.46 10.70 C 18.06 12.78 11.33 20.27 10.23 28.87 C 8.95 37.05 12.81 45.71 19.72 50.25 C 26.31 54.76 35.38 55.21 42.39 51.38 C 48.79 48.01 53.26 41.30 53.88 34.09 C 54.69 26.48 51.14 18.64 44.93 14.19 C 39.70 10.36 32.74 9.06 26.46 10.70 Z" />
<path fill="#000000" opacity="1.00" d=" M 26.09 27.89 C 31.57 22.80 38.30 18.42 45.98 18.00 C 45.60 25.72 41.19 32.46 36.10 37.98 C 35.75 42.60 34.07 47.43 30.08 50.13 C 29.97 46.75 29.99 43.37 30.01 39.99 C 28.67 40.66 27.33 41.33 26.00 42.00 C 24.69 40.67 23.38 39.33 22.06 38.00 C 22.73 36.67 23.40 35.34 24.06 34.00 C 20.69 34.01 17.32 34.03 13.95 33.94 C 16.62 29.91 21.47 28.25 26.09 27.89 M 37.17 24.11 C 34.85 25.24 36.44 28.88 38.84 27.89 C 41.14 26.75 39.56 23.15 37.17 24.11 Z" />
<path fill="#000000" opacity="1.00" d=" M 17.92 46.09 C 18.00 43.23 19.04 40.42 21.50 38.80 C 21.08 40.42 20.67 42.05 20.26 43.68 C 21.87 43.35 23.47 42.99 25.06 42.58 C 23.59 45.12 20.66 45.92 17.92 46.09 Z" />
</g>
</svg>
