<?xml version="1.0" encoding="UTF-8" ?>
<!DOCTYPE svg PUBLIC "-//W3C//DTD SVG 1.1//EN" "http://www.w3.org/Graphics/SVG/1.1/DTD/svg11.dtd">
<svg width="60pt" height="60pt" viewBox="0 0 60 60" version="1.1" xmlns="http://www.w3.org/2000/svg">
<g id="#ffffffff">
<path fill="#ffffff" opacity="1.00" d=" M 0.00 0.00 L 60.00 0.00 L 60.00 60.00 L 0.00 60.00 L 0.00 0.00 M 29.25 6.11 C 22.42 9.19 15.85 12.86 9.17 16.26 C 7.62 16.83 7.62 19.18 9.17 19.75 C 14.41 22.66 19.87 25.17 25.14 28.03 C 27.28 29.07 29.76 30.85 32.13 29.38 C 38.38 26.20 44.72 23.17 50.83 19.75 C 52.40 19.20 52.39 16.82 50.83 16.26 C 45.83 13.42 40.59 11.02 35.53 8.29 C 33.52 7.42 31.55 5.78 29.25 6.11 M 8.14 29.28 C 7.37 30.92 9.28 31.92 10.46 32.51 C 15.99 35.30 21.50 38.13 27.00 40.97 C 28.59 41.87 30.51 42.40 32.17 41.36 C 38.61 38.03 45.24 35.01 51.48 31.32 C 53.43 28.43 48.85 27.34 47.07 26.23 C 42.70 28.47 38.35 30.73 33.96 32.92 C 31.75 34.10 29.03 34.40 26.75 33.22 C 22.08 31.03 17.55 28.54 12.94 26.23 C 11.34 27.21 9.27 27.71 8.14 29.28 M 8.11 41.26 C 7.44 43.84 10.76 44.43 12.37 45.50 C 18.33 48.15 23.83 51.98 30.01 54.00 C 36.21 52.02 41.69 48.20 47.62 45.55 C 49.28 44.44 52.61 43.81 51.90 41.16 C 50.58 39.78 48.71 39.14 47.08 38.23 C 42.70 40.47 38.34 42.74 33.94 44.93 C 31.73 46.11 29.01 46.39 26.74 45.21 C 22.07 43.02 17.55 40.54 12.94 38.23 C 11.31 39.18 9.33 39.75 8.11 41.26 Z" />
</g>
<g id="#000000ff">
<path fill="#000000" opacity="1.00" d=" M 29.25 6.11 C 31.55 5.78 33.52 7.42 35.53 8.29 C 40.59 11.02 45.83 13.42 50.83 16.26 C 52.39 16.82 52.40 19.20 50.83 19.75 C 44.72 23.17 38.38 26.20 32.13 29.38 C 29.76 30.85 27.28 29.07 25.14 28.03 C 19.87 25.17 14.41 22.66 9.17 19.75 C 7.62 19.18 7.62 16.83 9.17 16.26 C 15.85 12.86 22.42 9.19 29.25 6.11 Z" />
<path fill="#000000" opacity="1.00" d=" M 8.14 29.28 C 9.27 27.71 11.34 27.21 12.94 26.23 C 17.55 28.54 22.08 31.03 26.75 33.22 C 29.03 34.40 31.75 34.10 33.96 32.92 C 38.35 30.73 42.70 28.47 47.07 26.23 C 48.85 27.34 53.43 28.43 51.48 31.32 C 45.24 35.01 38.61 38.03 32.17 41.36 C 30.51 42.40 28.59 41.87 27.00 40.97 C 21.50 38.13 15.99 35.30 10.46 32.51 C 9.28 31.92 7.37 30.92 8.14 29.28 Z" />
<path fill="#000000" opacity="1.00" d=" M 8.11 41.26 C 9.33 39.75 11.31 39.18 12.94 38.23 C 17.55 40.54 22.07 43.02 26.74 45.21 C 29.01 46.39 31.73 46.11 33.94 44.93 C 38.34 42.74 42.70 40.47 47.08 38.23 C 48.71 39.14 50.58 39.78 51.90 41.16 C 52.61 43.81 49.28 44.44 47.62 45.55 C 41.69 48.20 36.21 52.02 30.01 54.00 C 23.83 51.98 18.33 48.15 12.37 45.50 C 10.76 44.43 7.44 43.84 8.11 41.26 Z" />
</g>
</svg>
