<?xml version="1.0" encoding="UTF-8" ?>
<!DOCTYPE svg PUBLIC "-//W3C//DTD SVG 1.1//EN" "http://www.w3.org/Graphics/SVG/1.1/DTD/svg11.dtd">
<svg width="60pt" height="60pt" viewBox="0 0 60 60" version="1.1" xmlns="http://www.w3.org/2000/svg">
<g id="#ffffffff">
<path fill="#ffffff" opacity="1.00" d=" M 0.00 0.00 L 60.00 0.00 L 60.00 47.36 C 59.50 46.91 58.50 46.00 58.01 45.54 C 57.83 38.75 58.34 31.93 57.78 25.16 C 57.57 24.93 57.15 24.45 56.94 24.22 C 51.98 23.70 46.97 24.12 41.99 24.01 C 41.88 19.01 42.31 13.99 41.77 9.02 C 40.65 7.55 38.59 8.16 37.00 7.97 C 31.02 8.14 25.02 7.69 19.07 8.22 C 16.91 10.82 18.42 14.84 18.00 18.01 C 13.03 18.12 8.04 17.70 3.09 18.21 C 2.87 18.45 2.43 18.92 2.21 19.16 C 1.68 28.01 2.16 36.92 2.00 45.80 C 1.50 46.10 0.50 46.72 0.00 47.02 L 0.00 0.00 Z" />
<path fill="#ffffff" opacity="1.00" d=" M 25.45 18.69 C 25.02 15.05 28.91 13.72 31.80 13.83 C 31.82 17.89 31.80 21.94 31.81 26.00 C 31.05 26.00 29.52 26.00 28.76 26.00 C 28.76 22.91 28.75 19.83 28.78 16.74 C 27.68 17.40 26.57 18.05 25.45 18.69 Z" />
<path fill="#ffffff" opacity="1.00" d=" M 7.17 28.36 C 7.31 23.82 13.69 22.47 16.06 25.99 C 17.33 29.43 13.46 31.51 11.52 33.69 C 13.14 33.67 14.76 33.66 16.38 33.66 C 16.49 34.23 16.71 35.39 16.82 35.96 C 13.65 35.98 10.48 35.99 7.30 36.01 C 7.97 32.39 11.75 30.89 13.57 27.97 C 12.77 24.09 9.32 28.59 7.17 28.36 Z" />
<path fill="#ffffff" opacity="1.00" d=" M 43.14 33.80 C 43.81 29.95 48.90 28.81 51.51 31.34 C 52.96 32.61 52.00 34.77 50.54 35.59 C 51.82 36.70 53.39 38.04 52.34 39.89 C 49.96 43.25 44.28 42.41 42.92 38.51 C 43.58 38.47 44.89 38.40 45.55 38.37 C 46.62 39.11 48.21 40.52 49.41 39.10 C 50.85 36.87 46.69 36.80 45.54 36.07 C 46.64 35.07 50.70 34.78 49.20 32.52 C 47.15 31.55 45.34 34.14 43.14 33.80 Z" />
<path fill="#ffffff" opacity="1.00" d=" M 0.00 48.91 C 1.43 50.07 3.27 50.04 5.01 50.03 C 21.67 49.98 38.34 49.99 55.00 50.02 C 56.70 50.06 58.39 49.81 60.00 49.26 L 60.00 60.00 L 0.00 60.00 L 0.00 48.91 Z" />
</g>
<g id="#000000ff">
<path fill="#000000" opacity="1.00" d=" M 19.07 8.22 C 25.02 7.69 31.02 8.14 37.00 7.97 C 38.59 8.16 40.65 7.55 41.77 9.02 C 42.31 13.99 41.88 19.01 41.99 24.01 C 46.97 24.12 51.98 23.70 56.94 24.22 C 57.15 24.45 57.57 24.93 57.78 25.16 C 58.34 31.93 57.83 38.75 58.01 45.54 C 58.50 46.00 59.50 46.91 60.00 47.36 L 60.00 49.26 C 58.39 49.81 56.70 50.06 55.00 50.02 C 38.34 49.99 21.67 49.98 5.01 50.03 C 3.27 50.04 1.43 50.07 0.00 48.91 L 0.00 47.02 C 0.50 46.72 1.50 46.10 2.00 45.80 C 2.16 36.92 1.68 28.01 2.21 19.16 C 2.43 18.92 2.87 18.45 3.09 18.21 C 8.04 17.70 13.03 18.12 18.00 18.01 C 18.42 14.84 16.91 10.82 19.07 8.22 M 25.45 18.69 C 26.57 18.05 27.68 17.40 28.78 16.74 C 28.75 19.83 28.76 22.91 28.76 26.00 C 29.52 26.00 31.05 26.00 31.81 26.00 C 31.80 21.94 31.82 17.89 31.80 13.83 C 28.91 13.72 25.02 15.05 25.45 18.69 M 7.17 28.36 C 9.32 28.59 12.77 24.09 13.57 27.97 C 11.75 30.89 7.97 32.39 7.30 36.01 C 10.48 35.99 13.65 35.98 16.82 35.96 C 16.71 35.39 16.49 34.23 16.38 33.66 C 14.76 33.66 13.14 33.67 11.52 33.69 C 13.46 31.51 17.33 29.43 16.06 25.99 C 13.69 22.47 7.31 23.82 7.17 28.36 M 43.14 33.80 C 45.34 34.14 47.15 31.55 49.20 32.52 C 50.70 34.78 46.64 35.07 45.54 36.07 C 46.69 36.80 50.85 36.87 49.41 39.10 C 48.21 40.52 46.62 39.11 45.55 38.37 C 44.89 38.40 43.58 38.47 42.92 38.51 C 44.28 42.41 49.96 43.25 52.34 39.89 C 53.39 38.04 51.82 36.70 50.54 35.59 C 52.00 34.77 52.96 32.61 51.51 31.34 C 48.90 28.81 43.81 29.95 43.14 33.80 Z" />
</g>
</svg>
