<?xml version="1.0" encoding="UTF-8" ?>
<!DOCTYPE svg PUBLIC "-//W3C//DTD SVG 1.1//EN" "http://www.w3.org/Graphics/SVG/1.1/DTD/svg11.dtd">
<svg width="64pt" height="64pt" viewBox="0 0 64 64" version="1.1" xmlns="http://www.w3.org/2000/svg">
<g id="#ffffffff">
<path fill="#ffffff" opacity="1.00" d=" M 0.00 0.00 L 64.00 0.00 L 64.00 64.00 L 0.00 64.00 L 0.00 0.00 M 20.00 12.00 C 20.00 15.33 20.00 18.67 20.00 22.00 C 14.67 22.00 9.33 22.00 4.00 22.00 C 4.00 32.00 4.00 42.00 4.00 52.00 C 22.67 52.00 41.33 52.00 60.00 52.00 C 60.00 42.67 60.00 33.33 60.00 24.00 C 55.33 24.00 50.67 24.00 46.00 24.00 C 46.00 20.00 46.00 16.00 46.00 12.00 C 37.33 12.00 28.67 12.00 20.00 12.00 Z" />
<path fill="#ffffff" opacity="1.00" d=" M 24.00 16.00 C 30.00 16.00 36.00 16.00 42.00 16.00 C 42.00 20.00 42.00 24.00 42.00 28.00 C 46.67 28.00 51.33 28.00 56.00 28.00 C 56.00 34.67 56.00 41.33 56.00 48.00 C 40.00 48.00 24.00 48.00 8.00 48.00 C 8.00 40.67 8.00 33.33 8.00 26.00 C 13.33 26.00 18.67 26.00 24.00 26.00 C 24.00 22.67 24.00 19.33 24.00 16.00 M 29.06 22.42 C 29.07 23.66 29.09 24.90 29.10 26.15 C 29.83 25.90 31.28 25.41 32.01 25.16 C 32.01 27.44 31.99 29.72 32.00 32.00 C 33.33 32.00 34.67 32.00 36.00 32.00 C 36.00 27.33 36.00 22.66 36.00 18.00 C 34.60 18.00 33.19 18.00 31.79 18.01 C 31.23 19.68 30.38 21.23 29.06 22.42 M 11.84 36.02 C 13.79 35.93 16.61 36.77 16.47 33.83 C 17.69 33.99 18.19 34.67 17.98 35.89 C 16.13 37.71 14.00 39.20 12.00 40.84 C 12.00 41.63 12.00 43.21 12.00 44.00 C 15.33 44.00 18.67 44.00 22.00 44.00 C 22.00 42.66 22.00 41.32 22.00 39.98 C 21.40 40.00 20.20 40.04 19.60 40.06 C 22.85 37.71 22.88 31.99 18.92 30.40 C 15.23 28.68 11.52 32.31 11.84 36.02 M 41.93 32.00 C 42.02 33.50 42.08 35.01 42.26 36.51 C 42.17 37.38 42.00 39.12 41.92 39.99 C 43.88 40.01 45.84 40.01 47.81 40.04 C 47.81 40.52 47.82 41.47 47.83 41.95 C 45.88 41.99 43.94 41.99 42.00 42.02 C 42.00 43.35 42.00 44.68 42.00 46.01 C 45.15 45.89 49.42 46.83 51.29 43.52 C 53.13 40.84 51.14 37.79 48.67 36.46 C 49.11 36.15 50.00 35.52 50.44 35.20 C 50.44 34.40 50.44 32.80 50.44 32.00 C 47.60 32.00 44.77 32.00 41.93 32.00 Z" />
</g>
<g id="#000000ff">
<path fill="#000000" opacity="1.00" d=" M 20.00 12.00 C 28.67 12.00 37.33 12.00 46.00 12.00 C 46.00 16.00 46.00 20.00 46.00 24.00 C 50.67 24.00 55.33 24.00 60.00 24.00 C 60.00 33.33 60.00 42.67 60.00 52.00 C 41.33 52.00 22.67 52.00 4.00 52.00 C 4.00 42.00 4.00 32.00 4.00 22.00 C 9.33 22.00 14.67 22.00 20.00 22.00 C 20.00 18.67 20.00 15.33 20.00 12.00 M 24.00 16.00 C 24.00 19.33 24.00 22.67 24.00 26.00 C 18.67 26.00 13.33 26.00 8.00 26.00 C 8.00 33.33 8.00 40.67 8.00 48.00 C 24.00 48.00 40.00 48.00 56.00 48.00 C 56.00 41.33 56.00 34.67 56.00 28.00 C 51.33 28.00 46.67 28.00 42.00 28.00 C 42.00 24.00 42.00 20.00 42.00 16.00 C 36.00 16.00 30.00 16.00 24.00 16.00 Z" />
<path fill="#000000" opacity="1.00" d=" M 29.06 22.42 C 30.38 21.23 31.23 19.68 31.79 18.01 C 33.19 18.00 34.60 18.00 36.00 18.00 C 36.00 22.66 36.00 27.33 36.00 32.00 C 34.67 32.00 33.33 32.00 32.00 32.00 C 31.99 29.72 32.01 27.44 32.01 25.16 C 31.28 25.41 29.83 25.90 29.10 26.15 C 29.09 24.90 29.07 23.66 29.06 22.42 Z" />
<path fill="#000000" opacity="1.00" d=" M 11.84 36.02 C 11.52 32.31 15.23 28.68 18.92 30.40 C 22.88 31.99 22.85 37.71 19.60 40.06 C 20.20 40.04 21.40 40.00 22.00 39.98 C 22.00 41.32 22.00 42.66 22.00 44.00 C 18.67 44.00 15.33 44.00 12.00 44.00 C 12.00 43.21 12.00 41.63 12.00 40.84 C 14.00 39.20 16.13 37.71 17.98 35.89 C 18.19 34.67 17.69 33.99 16.47 33.83 C 16.61 36.77 13.79 35.93 11.84 36.02 Z" />
<path fill="#000000" opacity="1.00" d=" M 41.93 32.00 C 44.77 32.00 47.60 32.00 50.44 32.00 C 50.44 32.80 50.44 34.40 50.44 35.20 C 50.00 35.52 49.11 36.15 48.67 36.46 C 51.14 37.79 53.13 40.84 51.29 43.52 C 49.42 46.83 45.15 45.89 42.00 46.01 C 42.00 44.68 42.00 43.35 42.00 42.02 C 43.94 41.99 45.88 41.99 47.83 41.95 C 47.82 41.47 47.81 40.52 47.81 40.04 C 45.84 40.01 43.88 40.01 41.92 39.99 C 42.00 39.12 42.17 37.38 42.26 36.51 C 42.08 35.01 42.02 33.50 41.93 32.00 Z" />
</g>
</svg>
