<?xml version="1.0" encoding="UTF-8" ?>
<!DOCTYPE svg PUBLIC "-//W3C//DTD SVG 1.1//EN" "http://www.w3.org/Graphics/SVG/1.1/DTD/svg11.dtd">
<svg width="60pt" height="60pt" viewBox="0 0 60 60" version="1.1" xmlns="http://www.w3.org/2000/svg">
<g id="#ffffffff">
<path fill="#ffffff" opacity="1.00" d=" M 0.00 0.00 L 60.00 0.00 L 60.00 60.00 L 0.00 60.00 L 0.00 0.00 M 13.99 8.01 C 15.29 10.29 17.07 12.37 17.92 14.87 C 18.12 24.25 17.92 33.64 18.02 43.02 C 18.42 46.61 15.31 49.09 13.76 51.99 C 23.81 52.01 33.87 51.99 43.92 52.00 C 45.95 49.33 47.98 46.68 50.00 44.00 C 42.66 44.00 35.33 44.00 28.00 44.00 C 28.00 32.00 28.00 20.00 28.00 8.00 C 23.33 8.00 18.66 7.99 13.99 8.01 M 32.05 8.00 C 32.01 9.34 31.99 10.68 32.00 12.02 C 38.11 12.90 43.74 16.80 46.30 22.47 C 49.07 28.03 48.22 34.82 45.03 40.03 C 46.59 40.03 48.15 40.00 49.72 39.94 C 52.52 33.80 52.86 26.45 49.75 20.36 C 46.50 13.49 39.51 8.90 32.05 8.00 M 13.93 44.97 C 14.26 41.42 14.09 37.85 12.66 34.55 C 10.14 27.89 15.41 21.71 13.92 14.99 C 6.12 23.04 6.09 36.93 13.93 44.97 Z" />
</g>
<g id="#000000ff">
<path fill="#000000" opacity="1.00" d=" M 13.99 8.01 C 18.66 7.99 23.33 8.00 28.00 8.00 C 28.00 20.00 28.00 32.00 28.00 44.00 C 35.33 44.00 42.66 44.00 50.00 44.00 C 47.98 46.68 45.95 49.33 43.92 52.00 C 33.87 51.99 23.81 52.01 13.76 51.99 C 15.31 49.09 18.42 46.61 18.02 43.02 C 17.92 33.64 18.12 24.25 17.92 14.87 C 17.07 12.37 15.29 10.29 13.99 8.01 Z" />
<path fill="#000000" opacity="1.00" d=" M 32.05 8.00 C 39.51 8.90 46.50 13.49 49.75 20.36 C 52.86 26.45 52.52 33.80 49.72 39.94 C 48.15 40.00 46.59 40.03 45.03 40.03 C 48.22 34.82 49.07 28.03 46.30 22.47 C 43.74 16.80 38.11 12.90 32.00 12.02 C 31.99 10.68 32.01 9.34 32.05 8.00 Z" />
<path fill="#000000" opacity="1.00" d=" M 13.93 44.97 C 6.09 36.93 6.12 23.04 13.92 14.99 C 15.41 21.71 10.14 27.89 12.66 34.55 C 14.09 37.85 14.26 41.42 13.93 44.97 Z" />
</g>
</svg>
