<?xml version="1.0" encoding="UTF-8" ?>
<!DOCTYPE svg PUBLIC "-//W3C//DTD SVG 1.1//EN" "http://www.w3.org/Graphics/SVG/1.1/DTD/svg11.dtd">
<svg width="64pt" height="64pt" viewBox="0 0 64 64" version="1.1" xmlns="http://www.w3.org/2000/svg">
<g id="#ffffffff">
<path fill="#ffffff" opacity="1.00" d=" M 0.00 0.00 L 64.00 0.00 L 64.00 64.00 L 0.00 64.00 L 0.00 0.00 M 22.69 22.00 C 25.13 21.99 27.56 22.01 30.00 22.00 C 30.00 30.00 30.00 38.00 30.00 46.00 C 31.33 45.99 32.67 45.99 34.00 46.00 C 34.00 38.00 34.00 30.00 34.00 22.00 C 36.44 22.01 38.88 21.99 41.33 22.00 C 38.21 17.34 35.11 12.66 32.00 8.00 C 28.91 12.67 25.79 17.33 22.69 22.00 M 9.32 42.50 C 6.70 45.32 8.39 49.80 11.51 51.45 C 18.23 55.45 26.37 56.03 34.01 55.94 C 40.55 55.61 47.48 54.79 53.05 51.05 C 55.89 49.29 57.10 45.03 54.63 42.45 C 50.36 37.99 43.81 37.13 38.00 36.29 C 38.00 37.29 38.00 39.29 38.00 40.29 C 42.99 41.17 49.03 41.61 52.31 46.00 C 49.62 49.73 44.68 50.47 40.47 51.33 C 32.04 52.48 23.06 52.34 15.14 48.91 C 13.82 48.13 11.40 47.17 12.21 45.22 C 15.79 41.62 21.23 41.09 26.00 40.29 C 26.00 39.29 26.00 37.29 26.00 36.29 C 20.17 37.14 13.58 37.99 9.32 42.50 Z" />
</g>
<g id="#000000ff">
<path fill="#000000" opacity="1.00" d=" M 22.69 22.00 C 25.79 17.33 28.91 12.67 32.00 8.00 C 35.11 12.66 38.21 17.34 41.33 22.00 C 38.88 21.99 36.44 22.01 34.00 22.00 C 34.00 30.00 34.00 38.00 34.00 46.00 C 32.67 45.99 31.33 45.99 30.00 46.00 C 30.00 38.00 30.00 30.00 30.00 22.00 C 27.56 22.01 25.13 21.99 22.69 22.00 Z" />
<path fill="#000000" opacity="1.00" d=" M 9.32 42.50 C 13.58 37.99 20.17 37.14 26.00 36.29 C 26.00 37.29 26.00 39.29 26.00 40.29 C 21.23 41.09 15.79 41.62 12.21 45.22 C 11.40 47.17 13.82 48.13 15.14 48.91 C 23.06 52.34 32.04 52.48 40.47 51.33 C 44.68 50.47 49.62 49.73 52.31 46.00 C 49.03 41.61 42.99 41.17 38.00 40.29 C 38.00 39.29 38.00 37.29 38.00 36.29 C 43.81 37.13 50.36 37.99 54.63 42.45 C 57.10 45.03 55.89 49.29 53.05 51.05 C 47.48 54.79 40.55 55.61 34.01 55.94 C 26.37 56.03 18.23 55.45 11.51 51.45 C 8.39 49.80 6.70 45.32 9.32 42.50 Z" />
</g>
</svg>
