<?xml version="1.0" encoding="UTF-8" ?>
<!DOCTYPE svg PUBLIC "-//W3C//DTD SVG 1.1//EN" "http://www.w3.org/Graphics/SVG/1.1/DTD/svg11.dtd">
<svg width="60pt" height="60pt" viewBox="0 0 60 60" version="1.1" xmlns="http://www.w3.org/2000/svg">
<g id="#ffffffff">
<path fill="#ffffff" opacity="1.00" d=" M 0.00 0.00 L 60.00 0.00 L 60.00 60.00 L 0.00 60.00 L 0.00 0.00 M 10.39 8.40 C 7.69 9.32 8.07 12.66 7.96 14.93 C 8.12 25.95 7.82 36.97 8.09 47.99 C 7.87 50.70 10.51 52.22 12.94 51.98 C 24.31 52.03 35.69 52.03 47.06 51.98 C 49.48 52.23 52.08 50.66 51.90 47.98 C 52.22 38.66 51.86 29.33 52.02 20.00 C 51.96 16.81 52.32 13.54 51.60 10.39 C 50.92 8.01 48.07 8.04 46.08 7.98 C 36.38 7.95 26.68 8.07 16.98 7.95 C 14.78 8.00 12.53 7.83 10.39 8.40 Z" />
<path fill="#ffffff" opacity="1.00" d=" M 12.00 12.04 C 24.00 11.96 36.00 11.96 48.01 12.04 C 48.00 14.68 48.00 17.32 48.01 19.96 C 36.00 20.03 24.00 20.04 11.99 19.96 C 12.00 17.32 12.00 14.68 12.00 12.04 Z" />
<path fill="#ffffff" opacity="1.00" d=" M 27.83 24.00 C 29.27 24.00 30.72 24.00 32.17 24.00 C 32.24 28.67 32.10 33.34 31.87 38.00 C 30.62 38.00 29.37 38.01 28.12 38.01 C 27.90 33.34 27.76 28.67 27.83 24.00 Z" />
<path fill="#ffffff" opacity="1.00" d=" M 27.93 42.76 C 29.21 42.80 30.48 42.93 31.74 43.15 C 33.15 44.21 32.49 46.06 32.53 47.53 C 30.84 47.58 29.14 47.56 27.45 47.52 C 27.36 45.91 27.48 44.30 27.93 42.76 Z" />
</g>
<g id="#000000ff">
<path fill="#000000" opacity="1.00" d=" M 10.39 8.40 C 12.53 7.83 14.78 8.00 16.98 7.95 C 26.68 8.07 36.38 7.95 46.08 7.98 C 48.07 8.04 50.92 8.01 51.60 10.39 C 52.32 13.54 51.96 16.81 52.02 20.00 C 51.86 29.33 52.22 38.66 51.90 47.98 C 52.08 50.66 49.48 52.23 47.06 51.98 C 35.69 52.03 24.31 52.03 12.94 51.98 C 10.51 52.22 7.87 50.70 8.09 47.99 C 7.82 36.97 8.12 25.95 7.96 14.93 C 8.07 12.66 7.69 9.32 10.39 8.40 M 12.00 12.04 C 12.00 14.68 12.00 17.32 11.99 19.96 C 24.00 20.04 36.00 20.03 48.01 19.96 C 48.00 17.32 48.00 14.68 48.01 12.04 C 36.00 11.96 24.00 11.96 12.00 12.04 M 27.83 24.00 C 27.76 28.67 27.90 33.34 28.12 38.01 C 29.37 38.01 30.62 38.00 31.87 38.00 C 32.10 33.34 32.24 28.67 32.17 24.00 C 30.72 24.00 29.27 24.00 27.83 24.00 M 27.93 42.76 C 27.48 44.30 27.36 45.91 27.45 47.52 C 29.14 47.56 30.84 47.58 32.53 47.53 C 32.49 46.06 33.15 44.21 31.74 43.15 C 30.48 42.93 29.21 42.80 27.93 42.76 Z" />
</g>
</svg>
