<?xml version="1.0" encoding="UTF-8" ?>
<!DOCTYPE svg PUBLIC "-//W3C//DTD SVG 1.1//EN" "http://www.w3.org/Graphics/SVG/1.1/DTD/svg11.dtd">
<svg width="60pt" height="60pt" viewBox="0 0 60 60" version="1.1" xmlns="http://www.w3.org/2000/svg">
<g id="#ffffffff">
<path fill="#ffffff" opacity="1.00" d=" M 0.00 0.00 L 60.00 0.00 L 60.00 60.00 L 0.00 60.00 L 0.00 0.00 M 29.24 6.11 C 25.54 9.47 22.08 13.09 18.59 16.67 C 16.91 18.08 19.00 20.90 20.88 19.77 C 23.42 17.65 25.59 15.13 28.00 12.86 C 28.06 22.58 27.90 32.31 28.07 42.03 C 27.83 44.54 32.08 44.60 31.93 42.10 C 32.11 32.34 31.93 22.58 32.01 12.83 C 34.46 15.12 36.61 17.75 39.24 19.84 C 41.16 20.77 43.04 17.98 41.37 16.60 C 37.90 13.06 34.49 9.44 30.79 6.14 C 30.40 6.13 29.63 6.12 29.24 6.11 M 6.95 40.97 C 4.79 43.88 6.63 47.87 9.53 49.46 C 15.95 53.30 23.70 53.94 31.02 53.97 C 37.87 53.72 45.16 52.96 51.00 49.08 C 53.88 47.33 55.11 43.01 52.61 40.43 C 48.34 35.98 41.80 35.11 36.00 34.28 C 36.00 35.29 36.00 37.30 36.00 38.30 C 40.98 39.20 47.09 39.59 50.31 44.05 C 47.55 47.71 42.67 48.49 38.46 49.33 C 30.01 50.48 20.99 50.35 13.07 46.87 C 11.58 46.19 8.77 44.45 10.70 42.70 C 14.39 39.62 19.42 39.03 24.00 38.30 C 24.00 37.29 24.00 35.29 24.00 34.29 C 18.02 35.16 11.06 36.02 6.95 40.97 Z" />
</g>
<g id="#000000ff">
<path fill="#000000" opacity="1.00" d=" M 29.24 6.11 C 29.63 6.12 30.40 6.13 30.79 6.14 C 34.49 9.44 37.90 13.06 41.37 16.60 C 43.04 17.98 41.16 20.77 39.24 19.84 C 36.61 17.75 34.46 15.12 32.01 12.83 C 31.93 22.58 32.11 32.34 31.93 42.10 C 32.08 44.60 27.83 44.54 28.07 42.03 C 27.90 32.31 28.06 22.58 28.00 12.86 C 25.59 15.13 23.42 17.65 20.88 19.77 C 19.00 20.90 16.91 18.08 18.59 16.67 C 22.08 13.09 25.54 9.47 29.24 6.11 Z" />
<path fill="#000000" opacity="1.00" d=" M 6.95 40.97 C 11.06 36.02 18.02 35.16 24.00 34.29 C 24.00 35.29 24.00 37.29 24.00 38.30 C 19.42 39.03 14.39 39.62 10.70 42.70 C 8.77 44.45 11.58 46.19 13.07 46.87 C 20.99 50.35 30.01 50.48 38.46 49.33 C 42.67 48.49 47.55 47.71 50.31 44.05 C 47.09 39.59 40.98 39.20 36.00 38.30 C 36.00 37.30 36.00 35.29 36.00 34.28 C 41.80 35.11 48.34 35.98 52.61 40.43 C 55.11 43.01 53.88 47.33 51.00 49.08 C 45.16 52.96 37.87 53.72 31.02 53.97 C 23.70 53.94 15.95 53.30 9.53 49.46 C 6.63 47.87 4.79 43.88 6.95 40.97 Z" />
</g>
</svg>
