<?xml version="1.0" encoding="UTF-8" ?>
<!DOCTYPE svg PUBLIC "-//W3C//DTD SVG 1.1//EN" "http://www.w3.org/Graphics/SVG/1.1/DTD/svg11.dtd">
<svg width="64pt" height="64pt" viewBox="0 0 64 64" version="1.1" xmlns="http://www.w3.org/2000/svg">
<g id="#ffffffff">
<path fill="#ffffff" opacity="1.00" d=" M 0.00 0.00 L 64.00 0.00 L 64.00 30.86 C 63.49 24.88 59.56 19.32 53.93 17.13 C 48.57 15.05 42.70 16.57 37.15 15.80 C 35.93 15.00 36.16 13.22 35.65 12.00 C 31.76 12.00 27.88 12.00 24.00 12.00 C 24.00 14.67 24.00 17.33 24.00 20.00 C 16.00 20.00 8.00 20.00 0.00 20.00 L 0.00 0.00 Z" />
<path fill="#ffffff" opacity="1.00" d=" M 28.00 16.00 C 29.33 16.00 30.67 16.00 32.00 16.00 C 32.00 26.67 32.00 37.33 32.00 48.00 C 30.67 48.00 29.33 48.00 28.00 48.00 C 28.00 37.33 28.00 26.67 28.00 16.00 Z" />
<path fill="#ffffff" opacity="1.00" d=" M 35.99 19.77 C 42.44 20.80 49.93 18.23 55.50 22.60 C 61.41 27.02 61.41 36.98 55.49 41.40 C 49.93 45.76 42.44 43.21 35.99 44.22 C 36.01 40.72 35.97 37.21 36.03 33.71 C 39.18 33.69 39.94 37.60 42.95 37.91 C 46.88 38.75 50.80 34.80 49.88 30.87 C 49.30 27.42 45.29 25.00 42.00 26.37 C 39.64 27.21 38.86 30.36 36.03 30.29 C 35.98 26.78 36.01 23.28 35.99 19.77 Z" />
<path fill="#ffffff" opacity="1.00" d=" M 0.00 24.00 C 8.00 24.00 16.00 24.00 24.00 24.00 C 24.00 29.33 24.00 34.67 24.00 40.00 C 16.00 40.00 8.00 40.00 0.00 40.00 L 0.00 24.00 Z" />
<path fill="#ffffff" opacity="1.00" d=" M 43.09 30.12 C 45.55 29.07 47.19 32.79 44.81 33.89 C 42.41 34.87 40.91 31.30 43.09 30.12 Z" />
<path fill="#ffffff" opacity="1.00" d=" M 55.27 46.22 C 60.21 43.85 63.36 38.73 64.00 33.36 L 64.00 64.00 L 0.00 64.00 L 0.00 44.00 C 8.00 44.00 16.00 44.00 24.00 44.00 C 24.00 46.67 24.00 49.33 24.00 52.00 C 27.88 52.00 31.76 52.00 35.64 52.00 C 36.17 50.79 35.93 49.00 37.14 48.20 C 43.14 47.38 49.68 49.22 55.27 46.22 Z" />
</g>
<g id="#000000ff">
<path fill="#000000" opacity="1.00" d=" M 24.00 12.00 C 27.88 12.00 31.76 12.00 35.65 12.00 C 36.16 13.22 35.93 15.00 37.15 15.80 C 42.70 16.57 48.57 15.05 53.93 17.13 C 59.56 19.32 63.49 24.88 64.00 30.86 L 64.00 33.36 C 63.36 38.73 60.21 43.85 55.27 46.22 C 49.68 49.22 43.14 47.38 37.14 48.20 C 35.93 49.00 36.17 50.79 35.64 52.00 C 31.76 52.00 27.88 52.00 24.00 52.00 C 24.00 49.33 24.00 46.67 24.00 44.00 C 16.00 44.00 8.00 44.00 0.00 44.00 L 0.00 40.00 C 8.00 40.00 16.00 40.00 24.00 40.00 C 24.00 34.67 24.00 29.33 24.00 24.00 C 16.00 24.00 8.00 24.00 0.00 24.00 L 0.00 20.00 C 8.00 20.00 16.00 20.00 24.00 20.00 C 24.00 17.33 24.00 14.67 24.00 12.00 M 28.00 16.00 C 28.00 26.67 28.00 37.33 28.00 48.00 C 29.33 48.00 30.67 48.00 32.00 48.00 C 32.00 37.33 32.00 26.67 32.00 16.00 C 30.67 16.00 29.33 16.00 28.00 16.00 M 35.99 19.77 C 36.01 23.28 35.98 26.78 36.03 30.29 C 38.86 30.36 39.64 27.21 42.00 26.37 C 45.29 25.00 49.30 27.42 49.88 30.87 C 50.80 34.80 46.88 38.75 42.95 37.91 C 39.94 37.60 39.18 33.69 36.03 33.71 C 35.97 37.21 36.01 40.72 35.99 44.22 C 42.44 43.21 49.93 45.76 55.49 41.40 C 61.41 36.98 61.41 27.02 55.50 22.60 C 49.93 18.23 42.44 20.80 35.99 19.77 M 43.09 30.12 C 40.91 31.30 42.41 34.87 44.81 33.89 C 47.19 32.79 45.55 29.07 43.09 30.12 Z" />
</g>
</svg>
