<?xml version="1.0" encoding="UTF-8" ?>
<!DOCTYPE svg PUBLIC "-//W3C//DTD SVG 1.1//EN" "http://www.w3.org/Graphics/SVG/1.1/DTD/svg11.dtd">
<svg width="60pt" height="60pt" viewBox="0 0 60 60" version="1.1" xmlns="http://www.w3.org/2000/svg">
<g id="#ffffffff">
<path fill="#ffffff" opacity="1.00" d=" M 0.00 0.00 L 60.00 0.00 L 60.00 60.00 L 0.00 60.00 L 0.00 0.00 M 36.11 6.13 C 33.03 7.74 33.36 13.53 37.04 14.02 C 41.39 13.49 40.72 5.11 36.11 6.13 M 29.16 8.07 C 27.80 9.53 28.62 13.18 31.03 12.62 C 34.09 11.60 31.91 5.29 29.16 8.07 M 23.19 14.01 L 22.05 12.75 C 21.03 14.35 21.46 15.82 22.90 16.85 C 23.56 15.55 24.21 14.24 24.87 12.94 L 25.62 14.35 L 27.18 13.24 C 27.27 12.68 27.45 11.55 27.54 10.98 C 25.59 6.97 23.80 12.00 23.19 14.01 M 30.18 16.22 C 24.68 17.25 19.97 22.26 20.02 27.98 C 20.03 33.01 23.34 37.26 23.76 42.22 C 24.05 45.08 23.95 48.47 26.53 50.37 C 30.13 53.63 36.56 51.64 37.71 46.93 C 39.24 42.07 34.20 38.60 34.02 34.00 C 34.20 30.05 39.56 29.07 39.88 25.11 C 41.00 19.69 35.46 14.68 30.18 16.22 M 20.23 17.47 C 18.90 18.44 20.26 21.20 21.78 19.96 C 23.08 18.97 21.76 16.30 20.23 17.47 Z" />
</g>
<g id="#000000ff">
<path fill="#000000" opacity="1.00" d=" M 36.11 6.13 C 40.72 5.11 41.39 13.49 37.04 14.02 C 33.36 13.53 33.03 7.74 36.11 6.13 Z" />
<path fill="#000000" opacity="1.00" d=" M 29.16 8.07 C 31.91 5.29 34.09 11.60 31.03 12.62 C 28.62 13.18 27.80 9.53 29.16 8.07 Z" />
<path fill="#000000" opacity="1.00" d=" M 23.19 14.01 C 23.80 12.00 25.59 6.97 27.54 10.98 C 27.45 11.55 27.27 12.68 27.18 13.24 L 25.62 14.35 L 24.87 12.94 C 24.21 14.24 23.56 15.55 22.90 16.85 C 21.46 15.82 21.03 14.35 22.05 12.75 L 23.19 14.01 Z" />
<path fill="#000000" opacity="1.00" d=" M 30.18 16.22 C 35.46 14.68 41.00 19.69 39.88 25.11 C 39.56 29.07 34.20 30.05 34.02 34.00 C 34.20 38.60 39.24 42.07 37.71 46.93 C 36.56 51.64 30.13 53.63 26.53 50.37 C 23.95 48.47 24.05 45.08 23.76 42.22 C 23.34 37.26 20.03 33.01 20.02 27.98 C 19.97 22.26 24.68 17.25 30.18 16.22 Z" />
<path fill="#000000" opacity="1.00" d=" M 20.23 17.47 C 21.76 16.30 23.08 18.97 21.78 19.96 C 20.26 21.20 18.90 18.44 20.23 17.47 Z" />
</g>
</svg>
