<?xml version="1.0" encoding="UTF-8" ?>
<!DOCTYPE svg PUBLIC "-//W3C//DTD SVG 1.1//EN" "http://www.w3.org/Graphics/SVG/1.1/DTD/svg11.dtd">
<svg width="60pt" height="60pt" viewBox="0 0 60 60" version="1.1" xmlns="http://www.w3.org/2000/svg">
<g id="#ffffffff">
<path fill="#ffffff" opacity="1.00" d=" M 0.00 0.00 L 60.00 0.00 L 60.00 60.00 L 0.00 60.00 L 0.00 0.00 M 4.04 11.99 C 3.94 25.32 4.02 38.66 4.01 51.99 C 21.34 52.01 38.66 52.01 55.99 51.99 C 55.98 38.66 56.06 25.32 55.96 11.99 C 56.03 9.89 54.11 7.96 52.01 8.04 C 37.65 7.94 23.29 8.03 8.93 8.00 C 6.54 7.64 3.92 9.43 4.04 11.99 Z" />
<path fill="#ffffff" opacity="1.00" d=" M 24.01 12.01 C 33.34 11.99 42.66 11.99 51.99 12.01 C 52.01 24.00 52.01 36.00 51.99 47.99 C 42.66 48.01 33.34 48.01 24.01 47.99 C 23.99 36.00 23.99 24.00 24.01 12.01 Z" />
<path fill="#ffffff" opacity="1.00" d=" M 9.20 14.10 C 11.62 13.16 13.14 16.84 10.80 17.91 C 8.37 18.82 6.85 15.17 9.20 14.10 Z" />
<path fill="#ffffff" opacity="1.00" d=" M 17.21 14.09 C 19.63 13.19 21.15 16.83 18.79 17.90 C 16.37 18.85 14.85 15.13 17.21 14.09 Z" />
<path fill="#ffffff" opacity="1.00" d=" M 8.00 22.03 C 12.00 21.98 16.00 21.98 20.00 22.03 C 20.01 23.34 20.01 24.66 20.00 25.97 C 16.00 26.02 12.00 26.02 8.00 25.97 C 7.99 24.66 7.99 23.34 8.00 22.03 Z" />
</g>
<g id="#000000ff">
<path fill="#000000" opacity="1.00" d=" M 4.04 11.99 C 3.92 9.43 6.54 7.64 8.93 8.00 C 23.29 8.03 37.65 7.94 52.01 8.04 C 54.11 7.96 56.03 9.89 55.96 11.99 C 56.06 25.32 55.98 38.66 55.99 51.99 C 38.66 52.01 21.34 52.01 4.01 51.99 C 4.02 38.66 3.94 25.32 4.04 11.99 M 24.01 12.01 C 23.99 24.00 23.99 36.00 24.01 47.99 C 33.34 48.01 42.66 48.01 51.99 47.99 C 52.01 36.00 52.01 24.00 51.99 12.01 C 42.66 11.99 33.34 11.99 24.01 12.01 M 9.20 14.10 C 6.85 15.17 8.37 18.82 10.80 17.91 C 13.14 16.84 11.62 13.16 9.20 14.10 M 17.21 14.09 C 14.85 15.13 16.37 18.85 18.79 17.90 C 21.15 16.83 19.63 13.19 17.21 14.09 M 8.00 22.03 C 7.99 23.34 7.99 24.66 8.00 25.97 C 12.00 26.02 16.00 26.02 20.00 25.97 C 20.01 24.66 20.01 23.34 20.00 22.03 C 16.00 21.98 12.00 21.98 8.00 22.03 Z" />
</g>
</svg>
