<?xml version="1.0" encoding="UTF-8" ?>
<!DOCTYPE svg PUBLIC "-//W3C//DTD SVG 1.1//EN" "http://www.w3.org/Graphics/SVG/1.1/DTD/svg11.dtd">
<svg width="60pt" height="60pt" viewBox="0 0 60 60" version="1.1" xmlns="http://www.w3.org/2000/svg">
<g id="#ffffffff">
<path fill="#ffffff" opacity="1.00" d=" M 0.00 0.00 L 60.00 0.00 L 60.00 60.00 L 0.00 60.00 L 0.00 0.00 M 18.03 21.94 C 18.52 24.35 19.52 26.61 20.02 29.01 C 21.02 33.87 23.66 38.14 25.30 42.78 C 25.51 43.95 26.66 45.53 25.52 46.53 C 21.90 48.49 17.78 49.31 14.10 51.16 C 13.70 52.53 14.62 53.70 16.01 53.81 C 21.33 54.40 26.66 53.29 31.97 53.87 C 33.55 54.09 35.09 53.17 35.85 51.82 C 36.34 49.90 34.97 48.21 34.38 46.48 C 30.67 38.69 35.78 29.04 30.11 21.90 C 36.63 18.21 45.39 14.63 46.17 6.04 C 40.10 5.96 34.03 6.03 27.96 5.99 C 23.91 10.75 19.94 15.93 18.03 21.94 Z" />
</g>
<g id="#000000ff">
<path fill="#000000" opacity="1.00" d=" M 18.03 21.94 C 19.94 15.93 23.91 10.75 27.96 5.99 C 34.03 6.03 40.10 5.96 46.17 6.04 C 45.39 14.63 36.63 18.21 30.11 21.90 C 35.78 29.04 30.67 38.69 34.38 46.48 C 34.97 48.21 36.34 49.90 35.85 51.82 C 35.09 53.17 33.55 54.09 31.97 53.87 C 26.66 53.29 21.33 54.40 16.01 53.81 C 14.62 53.70 13.70 52.53 14.10 51.16 C 17.78 49.31 21.90 48.49 25.52 46.53 C 26.66 45.53 25.51 43.95 25.30 42.78 C 23.66 38.14 21.02 33.87 20.02 29.01 C 19.52 26.61 18.52 24.35 18.03 21.94 Z" />
</g>
</svg>
