<?xml version="1.0" encoding="UTF-8" ?>
<!DOCTYPE svg PUBLIC "-//W3C//DTD SVG 1.1//EN" "http://www.w3.org/Graphics/SVG/1.1/DTD/svg11.dtd">
<svg width="60pt" height="60pt" viewBox="0 0 60 60" version="1.1" xmlns="http://www.w3.org/2000/svg">
<g id="#ffffffff">
<path fill="#ffffff" opacity="1.00" d=" M 0.00 0.00 L 60.00 0.00 L 60.00 60.00 L 0.00 60.00 L 0.00 0.00 M 21.17 6.20 C 19.25 6.89 19.90 10.18 22.00 9.92 C 27.35 10.06 32.71 10.08 38.06 9.91 C 40.61 10.14 40.55 5.79 38.00 6.07 C 32.40 6.01 26.76 5.79 21.17 6.20 M 6.04 21.94 C 6.02 28.97 5.86 36.03 6.12 43.06 C 6.53 47.80 11.46 50.55 15.89 50.08 C 16.03 51.50 15.86 54.06 17.97 53.93 C 25.99 54.05 34.02 54.06 42.04 53.93 C 44.14 54.04 43.96 51.49 44.11 50.08 C 48.53 50.54 53.44 47.82 53.87 43.09 C 54.15 36.04 53.98 28.97 53.96 21.92 C 54.05 17.72 50.31 13.95 46.10 14.04 C 35.37 13.97 24.63 13.97 13.90 14.04 C 9.69 13.95 5.93 17.73 6.04 21.94 Z" />
<path fill="#ffffff" opacity="1.00" d=" M 19.36 24.49 C 22.55 22.25 25.90 27.54 22.64 29.50 C 19.46 31.77 16.10 26.45 19.36 24.49 Z" />
<path fill="#ffffff" opacity="1.00" d=" M 37.39 24.48 C 40.58 22.27 43.89 27.57 40.62 29.50 C 37.43 31.78 34.08 26.40 37.39 24.48 Z" />
<path fill="#ffffff" opacity="1.00" d=" M 21.26 36.14 C 22.50 35.81 23.62 36.71 24.78 37.00 C 28.84 38.69 33.42 37.97 37.33 36.24 C 39.18 35.25 40.99 38.07 39.40 39.42 C 34.01 42.77 26.77 42.80 21.20 39.82 C 19.60 39.23 19.61 36.67 21.26 36.14 Z" />
</g>
<g id="#000000ff">
<path fill="#968176" opacity="1.00" d=" M 21.17 6.20 C 26.76 5.79 32.40 6.01 38.00 6.07 C 40.55 5.79 40.61 10.14 38.06 9.91 C 32.71 10.08 27.35 10.06 22.00 9.92 C 19.90 10.18 19.25 6.89 21.17 6.20 Z" />
<path fill="#968176" opacity="1.00" d=" M 6.04 21.94 C 5.93 17.73 9.69 13.95 13.90 14.04 C 24.63 13.97 35.37 13.97 46.10 14.04 C 50.31 13.95 54.05 17.72 53.96 21.92 C 53.98 28.97 54.15 36.04 53.87 43.09 C 53.44 47.82 48.53 50.54 44.11 50.08 C 43.96 51.49 44.14 54.04 42.04 53.93 C 34.02 54.06 25.99 54.05 17.97 53.93 C 15.86 54.06 16.03 51.50 15.89 50.08 C 11.46 50.55 6.53 47.80 6.12 43.06 C 5.86 36.03 6.02 28.97 6.04 21.94 M 19.36 24.49 C 16.10 26.45 19.46 31.77 22.64 29.50 C 25.90 27.54 22.55 22.25 19.36 24.49 M 37.39 24.48 C 34.08 26.40 37.43 31.78 40.62 29.50 C 43.89 27.57 40.58 22.27 37.39 24.48 M 21.26 36.14 C 19.61 36.67 19.60 39.23 21.20 39.82 C 26.77 42.80 34.01 42.77 39.40 39.42 C 40.99 38.07 39.18 35.25 37.33 36.24 C 33.42 37.97 28.84 38.69 24.78 37.00 C 23.62 36.71 22.50 35.81 21.26 36.14 Z" />
</g>
</svg>
