<?xml version="1.0" encoding="UTF-8" ?>
<!DOCTYPE svg PUBLIC "-//W3C//DTD SVG 1.1//EN" "http://www.w3.org/Graphics/SVG/1.1/DTD/svg11.dtd">
<svg width="60pt" height="60pt" viewBox="0 0 60 60" version="1.1" xmlns="http://www.w3.org/2000/svg">
<g id="#ffffffff">
<path fill="#ffffff" opacity="1.00" d=" M 0.00 0.00 L 60.00 0.00 L 60.00 60.00 L 0.00 60.00 L 0.00 0.00 M 19.83 12.70 C 17.07 17.51 17.87 23.41 20.01 28.29 C 17.20 27.92 14.09 27.84 11.70 29.61 C 7.04 32.76 6.78 40.37 11.09 43.92 C 15.45 47.67 23.33 46.13 25.31 40.53 C 28.63 31.80 19.18 23.66 23.06 15.08 C 25.67 9.61 33.47 8.58 38.18 11.82 C 42.05 14.51 42.82 20.05 41.05 24.19 C 38.30 30.97 33.72 37.42 34.03 45.06 C 34.04 50.15 38.87 54.68 44.00 53.92 C 49.13 53.52 52.66 48.11 51.84 43.22 C 51.32 41.93 49.55 41.59 48.56 42.56 C 47.69 44.70 47.94 47.48 45.95 49.02 C 43.29 51.18 38.68 49.63 38.17 46.16 C 37.24 38.73 42.12 32.46 44.72 25.90 C 46.81 21.11 46.27 15.19 43.06 11.02 C 37.40 3.75 24.27 4.47 19.83 12.70 Z" />
<path fill="#ffffff" opacity="1.00" d=" M 15.19 32.25 C 18.81 30.80 22.91 34.19 21.91 38.03 C 21.47 41.98 15.95 43.30 13.37 40.60 C 10.98 38.18 11.79 33.28 15.19 32.25 Z" />
</g>
<g id="#000000ff">
<path fill="#000000" opacity="1.00" d=" M 19.83 12.70 C 24.27 4.47 37.40 3.75 43.06 11.02 C 46.27 15.19 46.81 21.11 44.72 25.90 C 42.12 32.46 37.24 38.73 38.17 46.16 C 38.68 49.63 43.29 51.18 45.95 49.02 C 47.94 47.48 47.69 44.70 48.56 42.56 C 49.55 41.59 51.32 41.93 51.84 43.22 C 52.66 48.11 49.13 53.52 44.00 53.92 C 38.87 54.68 34.04 50.15 34.03 45.06 C 33.72 37.42 38.30 30.97 41.05 24.19 C 42.82 20.05 42.05 14.51 38.18 11.82 C 33.47 8.58 25.67 9.61 23.06 15.08 C 19.18 23.66 28.63 31.80 25.31 40.53 C 23.33 46.13 15.45 47.67 11.09 43.92 C 6.78 40.37 7.04 32.76 11.70 29.61 C 14.09 27.84 17.20 27.92 20.01 28.29 C 17.87 23.41 17.07 17.51 19.83 12.70 M 15.19 32.25 C 11.79 33.28 10.98 38.18 13.37 40.60 C 15.95 43.30 21.47 41.98 21.91 38.03 C 22.91 34.19 18.81 30.80 15.19 32.25 Z" />
</g>
</svg>
