<?xml version="1.0" encoding="UTF-8" ?>
<!DOCTYPE svg PUBLIC "-//W3C//DTD SVG 1.1//EN" "http://www.w3.org/Graphics/SVG/1.1/DTD/svg11.dtd">
<svg width="64pt" height="64pt" viewBox="0 0 64 64" version="1.1" xmlns="http://www.w3.org/2000/svg">
<g id="#ffffffff">
<path fill="#ffffff" opacity="1.00" d=" M 0.00 0.00 L 64.00 0.00 L 64.00 64.00 L 0.00 64.00 L 0.00 0.00 M 21.50 15.47 C 19.11 20.17 19.95 25.75 21.97 30.42 C 15.09 27.86 7.67 35.45 10.62 42.21 C 12.85 48.99 23.20 49.99 26.59 43.67 C 31.50 35.06 21.31 26.44 24.83 17.69 C 27.79 10.30 40.53 9.87 43.25 17.67 C 45.36 22.75 42.46 27.82 40.21 32.28 C 37.61 37.54 35.07 43.51 36.42 49.47 C 37.74 54.68 44.13 57.59 48.91 55.08 C 52.43 53.53 53.83 49.61 54.12 46.03 C 52.80 46.01 51.47 46.00 50.15 46.00 C 49.76 47.95 49.40 50.27 47.48 51.33 C 44.70 53.08 40.51 51.33 40.13 47.99 C 39.38 40.88 43.84 34.81 46.47 28.57 C 48.87 23.42 48.44 16.82 44.69 12.42 C 38.62 5.40 25.51 7.04 21.50 15.47 Z" />
<path fill="#ffffff" opacity="1.00" d=" M 16.43 34.70 C 19.81 32.42 24.75 35.85 23.87 39.79 C 23.50 43.42 18.71 45.32 15.93 42.95 C 13.17 40.99 13.47 36.32 16.43 34.70 Z" />
</g>
<g id="#000000ff">
<path fill="#000000" opacity="1.00" d=" M 21.50 15.47 C 25.51 7.04 38.62 5.40 44.69 12.42 C 48.44 16.82 48.87 23.42 46.47 28.57 C 43.84 34.81 39.38 40.88 40.13 47.99 C 40.51 51.33 44.70 53.08 47.48 51.33 C 49.40 50.27 49.76 47.95 50.15 46.00 C 51.47 46.00 52.80 46.01 54.12 46.03 C 53.83 49.61 52.43 53.53 48.91 55.08 C 44.13 57.59 37.74 54.68 36.42 49.47 C 35.07 43.51 37.61 37.54 40.21 32.28 C 42.46 27.82 45.36 22.75 43.25 17.67 C 40.53 9.87 27.79 10.30 24.83 17.69 C 21.31 26.44 31.50 35.06 26.59 43.67 C 23.20 49.99 12.85 48.99 10.62 42.21 C 7.67 35.45 15.09 27.86 21.97 30.42 C 19.95 25.75 19.11 20.17 21.50 15.47 M 16.43 34.70 C 13.47 36.32 13.17 40.99 15.93 42.95 C 18.71 45.32 23.50 43.42 23.87 39.79 C 24.75 35.85 19.81 32.42 16.43 34.70 Z" />
</g>
</svg>
