<?xml version="1.0" encoding="UTF-8" ?>
<!DOCTYPE svg PUBLIC "-//W3C//DTD SVG 1.1//EN" "http://www.w3.org/Graphics/SVG/1.1/DTD/svg11.dtd">
<svg width="60pt" height="60pt" viewBox="0 0 60 60" version="1.1" xmlns="http://www.w3.org/2000/svg">
<g id="#ffffffff">
<path fill="#ffffff" opacity="1.00" d=" M 0.00 0.00 L 60.00 0.00 L 60.00 60.00 L 0.00 60.00 L 0.00 0.00 M 10.35 8.38 C 8.60 9.15 7.80 11.12 8.00 12.95 C 8.03 24.68 7.93 36.41 8.05 48.13 C 7.96 50.65 10.61 52.34 12.92 52.00 C 24.65 51.97 36.37 52.06 48.09 51.95 C 50.60 52.00 52.36 49.40 52.00 47.04 C 52.00 35.67 52.00 24.30 52.00 12.93 C 52.33 10.60 50.64 7.94 48.11 8.05 C 37.09 7.91 26.06 8.06 15.03 7.98 C 13.48 8.08 11.82 7.77 10.35 8.38 Z" />
<path fill="#ffffff" opacity="1.00" d=" M 34.54 18.59 C 36.11 17.05 38.71 18.85 37.88 20.87 C 33.52 24.38 28.42 26.87 23.79 30.01 C 28.30 32.93 33.06 35.51 37.40 38.67 C 39.12 39.91 36.91 42.99 35.19 41.73 C 29.76 38.59 24.51 35.13 19.21 31.79 C 17.67 31.16 17.62 28.87 19.18 28.24 C 24.25 24.96 29.40 21.77 34.54 18.59 Z" />
</g>
<g id="#000000ff">
<path fill="#000000" opacity="1.00" d=" M 10.35 8.38 C 11.82 7.77 13.48 8.08 15.03 7.98 C 26.06 8.06 37.09 7.91 48.11 8.05 C 50.64 7.94 52.33 10.60 52.00 12.93 C 52.00 24.30 52.00 35.67 52.00 47.04 C 52.36 49.40 50.60 52.00 48.09 51.95 C 36.37 52.06 24.65 51.97 12.92 52.00 C 10.61 52.34 7.96 50.65 8.05 48.13 C 7.93 36.41 8.03 24.68 8.00 12.95 C 7.80 11.12 8.60 9.15 10.35 8.38 M 34.54 18.59 C 29.40 21.77 24.25 24.96 19.18 28.24 C 17.62 28.87 17.67 31.16 19.21 31.79 C 24.51 35.13 29.76 38.59 35.19 41.73 C 36.91 42.99 39.12 39.91 37.40 38.67 C 33.06 35.51 28.30 32.93 23.79 30.01 C 28.42 26.87 33.52 24.38 37.88 20.87 C 38.71 18.85 36.11 17.05 34.54 18.59 Z" />
</g>
</svg>
