<?xml version="1.0" encoding="UTF-8" ?>
<!DOCTYPE svg PUBLIC "-//W3C//DTD SVG 1.1//EN" "http://www.w3.org/Graphics/SVG/1.1/DTD/svg11.dtd">
<svg width="60pt" height="60pt" viewBox="0 0 60 60" version="1.1" xmlns="http://www.w3.org/2000/svg">
<g id="#ffffffff">
<path fill="#ffffff" opacity="1.00" d=" M 0.00 0.00 L 60.00 0.00 L 60.00 60.00 L 0.00 60.00 L 0.00 0.00 M 44.21 4.32 C 42.42 6.09 44.67 7.92 45.88 9.15 C 48.62 11.55 50.76 14.70 53.94 16.53 C 54.37 16.33 55.24 15.94 55.67 15.74 C 56.90 12.66 52.77 10.92 51.22 8.77 C 49.02 7.21 47.30 3.05 44.21 4.32 M 30.08 18.62 C 30.48 20.05 30.90 21.48 31.12 22.95 C 28.66 25.91 25.93 28.68 22.95 31.11 C 21.48 30.90 20.05 30.49 18.62 30.08 C 15.72 33.16 12.43 35.88 9.76 39.17 C 9.12 40.59 10.67 41.62 11.43 42.59 C 14.05 45.03 16.37 47.80 19.16 50.05 C 20.55 51.11 21.76 49.44 22.71 48.64 C 31.66 39.55 40.82 30.66 49.71 21.51 C 51.46 19.90 49.19 18.09 48.09 16.93 C 45.34 14.57 43.25 11.34 40.04 9.60 C 36.04 11.52 33.47 15.74 30.08 18.62 M 4.31 44.23 C 4.20 44.66 3.98 45.54 3.88 45.98 C 6.77 49.43 10.02 52.61 13.38 55.60 C 14.74 57.14 17.57 54.62 16.12 53.17 C 14.09 50.47 11.42 48.32 9.13 45.85 C 7.88 44.66 6.06 42.40 4.31 44.23 Z" />
<path fill="#ffffff" opacity="1.00" d=" M 38.38 16.42 C 40.80 15.37 43.94 17.22 43.84 19.96 C 44.21 23.21 39.97 25.31 37.50 23.30 C 35.09 21.64 35.57 17.38 38.38 16.42 Z" />
<path fill="#ffffff" opacity="1.00" d=" M 18.35 36.30 C 21.23 34.72 24.96 37.76 23.94 40.90 C 23.40 43.85 19.21 44.85 17.24 42.69 C 15.40 40.89 15.95 37.35 18.35 36.30 Z" />
</g>
<g id="#000000ff">
<path fill="#000000" opacity="1.00" d=" M 44.21 4.32 C 47.30 3.05 49.02 7.21 51.22 8.77 C 52.77 10.92 56.90 12.66 55.67 15.74 C 55.24 15.94 54.37 16.33 53.94 16.53 C 50.76 14.70 48.62 11.55 45.88 9.15 C 44.67 7.92 42.42 6.09 44.21 4.32 Z" />
<path fill="#000000" opacity="1.00" d=" M 30.08 18.62 C 33.47 15.74 36.04 11.52 40.04 9.60 C 43.25 11.34 45.34 14.57 48.09 16.93 C 49.19 18.09 51.46 19.90 49.71 21.51 C 40.82 30.66 31.66 39.55 22.71 48.64 C 21.76 49.44 20.55 51.11 19.16 50.05 C 16.37 47.80 14.05 45.03 11.43 42.59 C 10.67 41.62 9.12 40.59 9.76 39.17 C 12.43 35.88 15.72 33.16 18.62 30.08 C 20.05 30.49 21.48 30.90 22.95 31.11 C 25.93 28.68 28.66 25.91 31.12 22.95 C 30.90 21.48 30.48 20.05 30.08 18.62 M 38.38 16.42 C 35.57 17.38 35.09 21.64 37.50 23.30 C 39.97 25.31 44.21 23.21 43.84 19.96 C 43.94 17.22 40.80 15.37 38.38 16.42 M 18.35 36.30 C 15.95 37.35 15.40 40.89 17.24 42.69 C 19.21 44.85 23.40 43.85 23.94 40.90 C 24.96 37.76 21.23 34.72 18.35 36.30 Z" />
<path fill="#000000" opacity="1.00" d=" M 4.31 44.23 C 6.06 42.40 7.88 44.66 9.13 45.85 C 11.42 48.32 14.09 50.47 16.12 53.17 C 17.57 54.62 14.74 57.14 13.38 55.60 C 10.02 52.61 6.77 49.43 3.88 45.98 C 3.98 45.54 4.20 44.66 4.31 44.23 Z" />
</g>
</svg>
