<?xml version="1.0" encoding="UTF-8" ?>
<!DOCTYPE svg PUBLIC "-//W3C//DTD SVG 1.1//EN" "http://www.w3.org/Graphics/SVG/1.1/DTD/svg11.dtd">
<svg width="64pt" height="64pt" viewBox="0 0 64 64" version="1.1" xmlns="http://www.w3.org/2000/svg">
<g id="#ffffffff">
<path fill="#ffffff" opacity="1.00" d=" M 0.00 0.00 L 64.00 0.00 L 64.00 64.00 L 0.00 64.00 L 0.00 0.00 M 24.27 7.19 C 14.94 9.98 7.81 18.42 6.26 27.99 C 4.51 28.00 2.76 28.00 1.00 28.00 C 3.33 30.92 5.67 33.83 8.00 36.74 C 10.34 33.83 12.66 30.92 15.00 28.01 C 13.82 28.00 11.47 27.99 10.30 27.98 C 11.91 19.80 18.27 12.72 26.43 10.71 C 33.89 8.67 42.10 11.07 47.63 16.39 C 48.55 15.45 49.47 14.51 50.41 13.58 C 43.67 6.95 33.32 4.23 24.27 7.19 M 26.40 22.32 C 23.18 25.30 23.42 30.56 26.28 33.71 C 23.75 35.78 22.09 38.70 21.85 41.98 C 23.18 41.97 24.50 41.98 25.82 42.00 C 26.19 38.86 28.63 35.88 32.01 36.00 C 35.39 35.89 37.80 38.87 38.18 42.00 C 39.50 41.98 40.82 41.97 42.14 41.98 C 41.87 38.69 40.22 35.78 37.73 33.65 C 39.98 31.02 40.82 27.08 38.90 24.01 C 36.54 19.57 29.85 18.66 26.40 22.32 M 49.01 33.98 C 50.65 34.02 52.30 34.01 53.96 34.03 C 53.07 42.05 47.78 49.51 40.15 52.42 C 32.16 55.76 22.53 53.60 16.37 47.60 C 15.45 48.55 14.53 49.48 13.59 50.42 C 20.55 57.28 31.39 59.92 40.61 56.50 C 50.18 53.25 57.07 44.01 57.93 34.01 C 59.62 33.99 61.31 34.00 63.00 33.99 C 60.66 31.08 58.33 28.16 56.00 25.25 C 53.67 28.16 51.35 31.08 49.01 33.98 Z" />
<path fill="#ffffff" opacity="1.00" d=" M 30.32 24.35 C 32.84 23.08 36.14 25.19 36.00 28.02 C 36.14 31.15 32.11 33.20 29.66 31.25 C 27.19 29.65 27.59 25.45 30.32 24.35 Z" />
</g>
<g id="#000000ff">
<path fill="#000000" opacity="1.00" d=" M 24.27 7.19 C 33.32 4.23 43.67 6.95 50.41 13.58 C 49.47 14.51 48.55 15.45 47.63 16.39 C 42.10 11.07 33.89 8.67 26.43 10.71 C 18.27 12.72 11.91 19.80 10.30 27.98 C 11.47 27.99 13.82 28.00 15.00 28.01 C 12.66 30.92 10.34 33.83 8.00 36.74 C 5.67 33.83 3.33 30.92 1.00 28.00 C 2.76 28.00 4.51 28.00 6.26 27.99 C 7.81 18.42 14.94 9.98 24.27 7.19 Z" />
<path fill="#000000" opacity="1.00" d=" M 26.40 22.32 C 29.85 18.66 36.54 19.57 38.90 24.01 C 40.82 27.08 39.98 31.02 37.73 33.65 C 40.22 35.78 41.87 38.69 42.14 41.98 C 40.82 41.97 39.50 41.98 38.18 42.00 C 37.80 38.87 35.39 35.89 32.01 36.00 C 28.63 35.88 26.19 38.86 25.82 42.00 C 24.50 41.98 23.18 41.97 21.85 41.98 C 22.09 38.70 23.75 35.78 26.28 33.71 C 23.42 30.56 23.18 25.30 26.40 22.32 M 30.32 24.35 C 27.59 25.45 27.19 29.65 29.66 31.25 C 32.11 33.20 36.14 31.15 36.00 28.02 C 36.14 25.19 32.84 23.08 30.32 24.35 Z" />
<path fill="#000000" opacity="1.00" d=" M 49.01 33.98 C 51.35 31.08 53.67 28.16 56.00 25.25 C 58.33 28.16 60.66 31.08 63.00 33.99 C 61.31 34.00 59.62 33.99 57.93 34.01 C 57.07 44.01 50.18 53.25 40.61 56.50 C 31.39 59.92 20.55 57.28 13.59 50.42 C 14.53 49.48 15.45 48.55 16.37 47.60 C 22.53 53.60 32.16 55.76 40.15 52.42 C 47.78 49.51 53.07 42.05 53.96 34.03 C 52.30 34.01 50.65 34.02 49.01 33.98 Z" />
</g>
</svg>
