<?xml version="1.0" encoding="UTF-8" ?>
<!DOCTYPE svg PUBLIC "-//W3C//DTD SVG 1.1//EN" "http://www.w3.org/Graphics/SVG/1.1/DTD/svg11.dtd">
<svg width="60pt" height="60pt" viewBox="0 0 60 60" version="1.1" xmlns="http://www.w3.org/2000/svg">
<g id="#ffffffff">
<path fill="#ffffff" opacity="1.00" d=" M 0.00 0.00 L 60.00 0.00 L 60.00 60.00 L 0.00 60.00 L 0.00 0.00 M 10.41 8.40 C 8.04 9.08 8.04 11.93 7.98 13.92 C 7.96 23.97 8.06 34.01 7.95 44.05 C 8.05 46.13 7.77 48.36 8.69 50.30 C 9.78 52.05 12.12 51.90 13.92 52.02 C 24.30 52.02 34.69 51.97 45.07 52.04 C 47.00 51.90 49.28 52.23 50.85 50.84 C 52.23 49.27 51.90 47.00 52.04 45.07 C 51.97 34.69 52.02 24.31 52.02 13.92 C 52.07 11.67 51.71 8.37 48.82 8.20 C 43.57 7.67 38.27 8.11 33.00 8.00 C 25.48 8.28 17.87 7.42 10.41 8.40 Z" />
<path fill="#ffffff" opacity="1.00" d=" M 22.41 14.40 C 27.14 13.61 32.05 13.83 36.82 14.21 C 39.71 14.38 40.07 17.67 40.02 19.92 C 39.99 26.96 40.08 34.01 39.98 41.05 C 40.07 43.09 39.20 45.63 36.82 45.78 C 32.30 46.23 27.70 46.23 23.18 45.78 C 20.75 45.67 19.93 43.10 20.02 41.05 C 19.92 34.01 20.01 26.97 19.98 19.92 C 20.04 17.93 20.04 15.08 22.41 14.40 M 24.15 30.14 C 23.82 34.03 23.82 37.96 24.14 41.86 C 28.03 42.18 31.96 42.18 35.86 41.86 C 36.18 37.96 36.18 34.04 35.86 30.14 C 31.97 29.82 28.04 29.82 24.15 30.14 Z" />
</g>
<g id="#000000ff">
<path fill="#968176" opacity="1.00" d=" M 10.41 8.40 C 17.87 7.42 25.48 8.28 33.00 8.00 C 38.27 8.11 43.57 7.67 48.82 8.20 C 51.71 8.37 52.07 11.67 52.02 13.92 C 52.02 24.31 51.97 34.69 52.04 45.07 C 51.90 47.00 52.23 49.27 50.85 50.84 C 49.28 52.23 47.00 51.90 45.07 52.04 C 34.69 51.97 24.30 52.02 13.92 52.02 C 12.12 51.90 9.78 52.05 8.69 50.30 C 7.77 48.36 8.05 46.13 7.95 44.05 C 8.06 34.01 7.96 23.97 7.98 13.92 C 8.04 11.93 8.04 9.08 10.41 8.40 M 22.41 14.40 C 20.04 15.08 20.04 17.93 19.98 19.92 C 20.01 26.97 19.92 34.01 20.02 41.05 C 19.93 43.10 20.75 45.67 23.18 45.78 C 27.70 46.23 32.30 46.23 36.82 45.78 C 39.20 45.63 40.07 43.09 39.98 41.05 C 40.08 34.01 39.99 26.96 40.02 19.92 C 40.07 17.67 39.71 14.38 36.82 14.21 C 32.05 13.83 27.14 13.61 22.41 14.40 Z" />
<path fill="#968176" opacity="1.00" d=" M 24.15 30.14 C 28.04 29.82 31.97 29.82 35.86 30.14 C 36.18 34.04 36.18 37.96 35.86 41.86 C 31.96 42.18 28.03 42.18 24.14 41.86 C 23.82 37.96 23.82 34.03 24.15 30.14 Z" />
</g>
</svg>
