<?xml version="1.0" encoding="UTF-8" ?>
<!DOCTYPE svg PUBLIC "-//W3C//DTD SVG 1.1//EN" "http://www.w3.org/Graphics/SVG/1.1/DTD/svg11.dtd">
<svg width="60pt" height="60pt" viewBox="0 0 60 60" version="1.1" xmlns="http://www.w3.org/2000/svg">
<g id="#ffffffff">
<path fill="#ffffff" opacity="1.00" d=" M 0.00 0.00 L 60.00 0.00 L 60.00 60.00 L 0.00 60.00 L 0.00 0.00 M 29.14 6.09 C 27.42 7.71 28.55 11.17 25.62 11.87 C 24.41 12.11 22.93 12.00 22.10 13.12 C 21.58 14.68 22.97 15.56 23.97 16.43 C 23.98 17.47 23.99 18.52 24.00 19.57 C 23.07 20.25 21.64 20.71 21.64 22.09 C 20.45 29.95 19.39 37.84 18.34 45.72 C 16.74 46.14 14.74 46.22 13.82 47.83 C 12.85 49.77 12.54 51.95 12.03 54.04 C 15.46 54.10 18.82 53.36 22.00 52.10 C 27.09 54.45 32.91 54.46 38.00 52.10 C 41.18 53.37 44.54 54.09 47.97 54.04 C 47.46 51.94 47.15 49.73 46.14 47.78 C 45.27 46.19 43.21 46.22 41.69 45.72 C 40.57 37.86 39.57 29.98 38.37 22.13 C 38.38 20.72 36.94 20.26 36.00 19.57 C 36.00 18.52 36.01 17.47 36.03 16.42 C 37.04 15.55 38.43 14.68 37.91 13.10 C 37.06 12.08 35.63 12.11 34.45 11.79 C 33.67 11.32 32.90 10.84 32.13 10.35 C 32.18 8.47 31.86 5.21 29.14 6.09 Z" />
<path fill="#ffffff" opacity="1.00" d=" M 28.00 16.00 C 29.33 16.00 30.67 16.00 32.00 16.00 C 32.00 17.33 32.00 18.67 32.00 20.00 C 30.67 20.00 29.33 20.00 28.00 20.00 C 28.00 18.67 28.00 17.33 28.00 16.00 Z" />
<path fill="#ffffff" opacity="1.00" d=" M 24.62 29.35 C 28.09 28.51 31.55 27.65 35.01 26.75 C 35.90 33.17 36.80 39.58 37.70 46.00 C 36.82 46.00 35.06 46.00 34.18 46.00 C 34.23 43.41 33.25 39.88 30.02 40.00 C 26.80 39.90 25.74 43.38 25.82 46.00 C 24.94 46.00 23.18 46.00 22.30 46.00 C 23.08 40.45 23.86 34.90 24.62 29.35 M 29.20 32.21 C 26.74 32.99 28.53 37.04 30.73 35.81 C 33.29 35.07 31.47 30.89 29.20 32.21 Z" />
</g>
<g id="#000000ff">
<path fill="#000000" opacity="1.00" d=" M 29.14 6.09 C 31.86 5.21 32.18 8.47 32.13 10.35 C 32.90 10.84 33.67 11.32 34.45 11.79 C 35.63 12.11 37.06 12.08 37.91 13.10 C 38.43 14.68 37.04 15.55 36.03 16.42 C 36.01 17.47 36.00 18.52 36.00 19.57 C 36.94 20.26 38.38 20.72 38.37 22.13 C 39.57 29.98 40.57 37.86 41.69 45.72 C 43.21 46.22 45.27 46.19 46.14 47.78 C 47.15 49.73 47.46 51.94 47.97 54.04 C 44.54 54.09 41.18 53.37 38.00 52.10 C 32.91 54.46 27.09 54.45 22.00 52.10 C 18.82 53.36 15.46 54.10 12.03 54.04 C 12.54 51.95 12.85 49.77 13.82 47.83 C 14.74 46.22 16.74 46.14 18.34 45.72 C 19.39 37.84 20.45 29.95 21.64 22.09 C 21.64 20.71 23.07 20.25 24.00 19.57 C 23.99 18.52 23.98 17.47 23.97 16.43 C 22.97 15.56 21.58 14.68 22.10 13.12 C 22.93 12.00 24.41 12.11 25.62 11.87 C 28.55 11.17 27.42 7.71 29.14 6.09 M 28.00 16.00 C 28.00 17.33 28.00 18.67 28.00 20.00 C 29.33 20.00 30.67 20.00 32.00 20.00 C 32.00 18.67 32.00 17.33 32.00 16.00 C 30.67 16.00 29.33 16.00 28.00 16.00 M 24.62 29.35 C 23.86 34.90 23.08 40.45 22.30 46.00 C 23.18 46.00 24.94 46.00 25.82 46.00 C 25.74 43.38 26.80 39.90 30.02 40.00 C 33.25 39.88 34.23 43.41 34.18 46.00 C 35.06 46.00 36.82 46.00 37.70 46.00 C 36.80 39.58 35.90 33.17 35.01 26.75 C 31.55 27.65 28.09 28.51 24.62 29.35 Z" />
<path fill="#000000" opacity="1.00" d=" M 29.20 32.21 C 31.47 30.89 33.29 35.07 30.73 35.81 C 28.53 37.04 26.74 32.99 29.20 32.21 Z" />
</g>
</svg>
