<?xml version="1.0" encoding="UTF-8" ?>
<!DOCTYPE svg PUBLIC "-//W3C//DTD SVG 1.1//EN" "http://www.w3.org/Graphics/SVG/1.1/DTD/svg11.dtd">
<svg width="60pt" height="60pt" viewBox="0 0 60 60" version="1.1" xmlns="http://www.w3.org/2000/svg">
<g id="#ffffffff">
<path fill="#ffffff" opacity="1.00" d=" M 0.00 0.00 L 60.00 0.00 L 60.00 60.00 L 0.00 60.00 L 0.00 0.00 M 27.76 9.02 C 25.87 10.39 23.79 11.54 22.09 13.16 C 21.60 14.73 22.88 15.60 23.99 16.39 C 23.99 18.13 23.99 19.88 24.00 21.63 C 23.19 22.33 22.41 23.06 21.67 23.82 C 20.53 24.20 18.73 23.82 18.20 25.19 C 17.26 26.86 19.36 27.89 20.56 28.40 C 19.46 34.15 18.43 39.91 17.40 45.67 C 13.25 46.28 12.73 50.65 12.04 53.99 C 15.48 54.16 18.84 53.36 22.00 52.07 C 27.07 54.48 32.92 54.47 38.00 52.07 C 41.16 53.36 44.52 54.16 47.95 54.00 C 47.29 50.61 46.70 46.28 42.55 45.61 C 41.60 39.86 40.51 34.13 39.45 28.40 C 40.06 28.03 41.29 27.29 41.90 26.92 C 42.74 24.53 40.12 23.87 38.33 23.83 C 37.58 23.06 36.81 22.33 36.00 21.63 C 36.00 19.88 36.01 18.13 36.01 16.38 C 37.12 15.59 38.42 14.73 37.90 13.15 C 36.21 11.51 34.14 10.35 32.25 8.98 C 31.82 7.87 31.71 5.81 30.01 6.00 C 28.27 5.78 28.18 7.89 27.76 9.02 Z" />
<path fill="#ffffff" opacity="1.00" d=" M 28.00 16.00 C 29.33 16.00 30.67 16.00 32.00 16.00 C 32.00 18.00 32.00 20.00 32.00 22.00 C 30.67 22.00 29.33 22.00 28.00 22.00 C 28.00 20.00 28.00 18.00 28.00 16.00 Z" />
<path fill="#ffffff" opacity="1.00" d=" M 24.69 28.33 C 28.04 27.54 31.89 28.15 35.43 28.09 C 36.36 34.08 37.56 40.03 38.60 46.00 C 37.08 46.00 35.57 46.00 34.05 46.00 C 33.72 43.98 34.94 40.41 32.03 39.96 C 29.05 40.32 30.27 43.98 29.95 46.00 C 27.10 46.00 24.25 46.00 21.40 46.00 C 22.55 40.12 23.39 34.18 24.69 28.33 M 31.21 32.18 C 28.72 33.01 30.57 37.12 32.81 35.78 C 35.25 34.95 33.47 30.96 31.21 32.18 Z" />
</g>
<g id="#000000ff">
<path fill="#000000" opacity="1.00" d=" M 27.76 9.02 C 28.18 7.89 28.27 5.78 30.01 6.00 C 31.71 5.81 31.82 7.87 32.25 8.98 C 34.14 10.35 36.21 11.51 37.90 13.15 C 38.42 14.73 37.12 15.59 36.01 16.38 C 36.01 18.13 36.00 19.88 36.00 21.63 C 36.81 22.33 37.58 23.06 38.33 23.83 C 40.12 23.87 42.74 24.53 41.90 26.92 C 41.29 27.29 40.06 28.03 39.45 28.40 C 40.51 34.13 41.60 39.86 42.55 45.61 C 46.70 46.28 47.29 50.61 47.95 54.00 C 44.52 54.16 41.16 53.36 38.00 52.07 C 32.92 54.47 27.07 54.48 22.00 52.07 C 18.84 53.36 15.48 54.16 12.04 53.99 C 12.73 50.65 13.25 46.28 17.40 45.67 C 18.43 39.91 19.46 34.15 20.56 28.40 C 19.36 27.89 17.26 26.86 18.20 25.19 C 18.73 23.82 20.53 24.20 21.67 23.82 C 22.41 23.06 23.19 22.33 24.00 21.63 C 23.99 19.88 23.99 18.13 23.99 16.39 C 22.88 15.60 21.60 14.73 22.09 13.16 C 23.79 11.54 25.87 10.39 27.76 9.02 M 28.00 16.00 C 28.00 18.00 28.00 20.00 28.00 22.00 C 29.33 22.00 30.67 22.00 32.00 22.00 C 32.00 20.00 32.00 18.00 32.00 16.00 C 30.67 16.00 29.33 16.00 28.00 16.00 M 24.69 28.33 C 23.39 34.18 22.55 40.12 21.40 46.00 C 24.25 46.00 27.10 46.00 29.95 46.00 C 30.27 43.98 29.05 40.32 32.03 39.96 C 34.94 40.41 33.72 43.98 34.05 46.00 C 35.57 46.00 37.08 46.00 38.60 46.00 C 37.56 40.03 36.36 34.08 35.43 28.09 C 31.89 28.15 28.04 27.54 24.69 28.33 Z" />
<path fill="#000000" opacity="1.00" d=" M 31.21 32.18 C 33.47 30.96 35.25 34.95 32.81 35.78 C 30.57 37.12 28.72 33.01 31.21 32.18 Z" />
</g>
</svg>
