<?xml version="1.0" encoding="UTF-8" ?>
<!DOCTYPE svg PUBLIC "-//W3C//DTD SVG 1.1//EN" "http://www.w3.org/Graphics/SVG/1.1/DTD/svg11.dtd">
<svg width="60pt" height="60pt" viewBox="0 0 60 60" version="1.1" xmlns="http://www.w3.org/2000/svg">
<g id="#ffffffff">
<path fill="#ffffff" opacity="1.00" d=" M 0.00 0.00 L 60.00 0.00 L 60.00 60.00 L 0.00 60.00 L 0.00 0.00 M 23.71 12.34 C 18.38 10.71 12.79 14.57 11.96 19.97 C 8.01 20.73 4.40 23.85 4.07 28.02 C 3.37 33.09 7.77 38.07 12.89 37.96 C 23.26 38.07 33.64 37.94 44.01 38.02 C 46.56 38.00 49.32 38.16 51.57 36.72 C 55.78 34.38 57.29 28.42 54.68 24.37 C 53.33 21.92 50.70 20.67 48.11 20.00 C 48.24 14.06 44.51 8.10 38.62 6.55 C 33.01 4.74 26.82 7.49 23.71 12.34 M 29.13 42.09 C 27.32 43.42 27.31 47.67 29.96 48.04 C 33.25 47.79 32.73 40.91 29.13 42.09 M 45.18 46.08 C 43.27 47.34 43.31 51.76 46.03 52.04 C 49.21 51.69 48.73 45.00 45.18 46.08 Z" />
</g>
<g id="#000000ff">
<path fill="#000000" opacity="1.00" d=" M 23.71 12.34 C 26.82 7.49 33.01 4.74 38.62 6.55 C 44.51 8.10 48.24 14.06 48.11 20.00 C 50.70 20.67 53.33 21.92 54.68 24.37 C 57.29 28.42 55.78 34.38 51.57 36.72 C 49.32 38.16 46.56 38.00 44.01 38.02 C 33.64 37.94 23.26 38.07 12.89 37.96 C 7.77 38.07 3.37 33.09 4.07 28.02 C 4.40 23.85 8.01 20.73 11.96 19.97 C 12.79 14.57 18.38 10.71 23.71 12.34 Z" />
<path fill="#000000" opacity="1.00" d=" M 29.13 42.09 C 32.73 40.91 33.25 47.79 29.96 48.04 C 27.31 47.67 27.32 43.42 29.13 42.09 Z" />
<path fill="#000000" opacity="1.00" d=" M 45.18 46.08 C 48.73 45.00 49.21 51.69 46.03 52.04 C 43.31 51.76 43.27 47.34 45.18 46.08 Z" />
</g>
</svg>
