<?xml version="1.0" encoding="UTF-8" ?>
<!DOCTYPE svg PUBLIC "-//W3C//DTD SVG 1.1//EN" "http://www.w3.org/Graphics/SVG/1.1/DTD/svg11.dtd">
<svg width="64pt" height="64pt" viewBox="0 0 64 64" version="1.1" xmlns="http://www.w3.org/2000/svg">
<g id="#ffffffff">
<path fill="#ffffff" opacity="1.00" d=" M 0.00 0.00 L 64.00 0.00 L 64.00 64.00 L 0.00 64.00 L 0.00 0.00 M 54.43 5.34 C 44.27 15.47 34.16 25.64 24.00 35.76 C 24.00 38.58 24.00 41.41 24.01 44.23 C 35.57 32.67 47.15 21.14 58.68 9.55 C 60.29 8.33 60.46 5.61 58.64 4.51 C 57.26 3.52 55.44 4.14 54.43 5.34 M 16.01 41.98 C 15.61 41.59 14.79 40.81 14.38 40.42 C 13.40 41.42 12.41 42.42 11.43 43.42 C 11.82 43.82 12.60 44.61 12.99 45.01 C 10.00 48.00 7.01 50.99 4.02 53.98 C 6.02 55.98 8.02 57.98 10.00 60.00 C 14.00 55.99 18.01 52.00 22.00 47.99 C 22.00 43.99 22.00 40.00 22.00 36.00 C 20.00 38.00 18.00 39.99 16.01 41.98 Z" />
</g>
<g id="#000000ff">
<path fill="#000000" opacity="1.00" d=" M 54.43 5.34 C 55.44 4.14 57.26 3.52 58.64 4.51 C 60.46 5.61 60.29 8.33 58.68 9.55 C 47.15 21.14 35.57 32.67 24.01 44.23 C 24.00 41.41 24.00 38.58 24.00 35.76 C 34.16 25.64 44.27 15.47 54.43 5.34 Z" />
<path fill="#000000" opacity="1.00" d=" M 16.01 41.98 C 18.00 39.99 20.00 38.00 22.00 36.00 C 22.00 40.00 22.00 43.99 22.00 47.99 C 18.01 52.00 14.00 55.99 10.00 60.00 C 8.02 57.98 6.02 55.98 4.02 53.98 C 7.01 50.99 10.00 48.00 12.99 45.01 C 12.60 44.61 11.82 43.82 11.43 43.42 C 12.41 42.42 13.40 41.42 14.38 40.42 C 14.79 40.81 15.61 41.59 16.01 41.98 Z" />
</g>
</svg>
