<?xml version="1.0" encoding="UTF-8" ?>
<!DOCTYPE svg PUBLIC "-//W3C//DTD SVG 1.1//EN" "http://www.w3.org/Graphics/SVG/1.1/DTD/svg11.dtd">
<svg width="60pt" height="60pt" viewBox="0 0 60 60" version="1.1" xmlns="http://www.w3.org/2000/svg">
<g id="#ffffffff">
<path fill="#ffffff" opacity="1.00" d=" M 0.00 0.00 L 60.00 0.00 L 60.00 60.00 L 0.00 60.00 L 0.00 0.00 M 46.33 8.39 C 44.31 9.22 43.93 11.54 44.02 13.47 C 41.72 16.36 39.25 19.10 36.86 21.92 C 36.17 22.02 34.80 22.22 34.11 22.32 C 32.18 21.05 30.25 19.78 28.35 18.47 C 27.75 16.41 26.56 13.76 23.96 14.03 C 21.69 13.90 20.52 16.00 19.78 17.79 C 18.06 18.77 16.29 19.65 14.50 20.48 C 12.52 19.98 10.02 19.68 8.77 21.70 C 6.47 24.41 9.53 28.91 12.89 27.86 C 14.77 27.58 15.48 25.68 16.23 24.21 C 17.94 23.23 19.71 22.35 21.50 21.54 C 22.97 21.73 24.45 21.82 25.94 21.82 C 27.90 22.96 29.79 24.22 31.66 25.52 C 32.18 27.65 33.48 30.14 36.04 29.99 C 38.88 30.04 40.35 27.03 39.99 24.52 C 42.29 21.67 44.68 18.90 47.13 16.19 C 48.84 15.86 50.90 15.48 51.61 13.64 C 53.34 10.55 49.43 6.62 46.33 8.39 M 20.02 37.47 C 17.72 40.32 15.33 43.09 12.88 45.81 C 10.57 45.96 7.89 47.34 8.01 50.00 C 7.83 53.06 11.86 55.22 14.27 53.25 C 15.90 52.25 15.94 50.22 15.99 48.52 C 18.40 45.67 20.66 42.67 23.33 40.05 C 23.74 40.04 24.57 40.01 24.99 40.00 C 27.52 42.04 29.64 44.53 31.92 46.84 C 31.76 49.30 33.25 52.11 36.03 51.99 C 38.58 52.10 39.76 49.56 40.36 47.51 C 42.24 46.23 44.14 44.98 46.07 43.79 C 47.92 44.03 50.17 44.07 51.27 42.24 C 53.20 39.82 51.05 35.83 47.99 36.00 C 45.44 35.87 44.22 38.41 43.65 40.49 C 41.77 41.80 39.83 43.02 37.92 44.29 C 37.16 44.22 35.63 44.08 34.87 44.01 C 32.60 41.75 30.26 39.54 28.09 37.16 C 28.16 34.75 26.80 31.85 24.00 32.01 C 21.15 31.91 19.62 34.95 20.02 37.47 Z" />
</g>
<g id="#000000ff">
<path fill="#968176" opacity="1.00" d=" M 46.33 8.39 C 49.43 6.62 53.34 10.55 51.61 13.64 C 50.90 15.48 48.84 15.86 47.13 16.19 C 44.68 18.90 42.29 21.67 39.99 24.52 C 40.35 27.03 38.88 30.04 36.04 29.99 C 33.48 30.14 32.18 27.65 31.66 25.52 C 29.79 24.22 27.90 22.96 25.94 21.82 C 24.45 21.82 22.97 21.73 21.50 21.54 C 19.71 22.35 17.94 23.23 16.23 24.21 C 15.48 25.68 14.77 27.58 12.89 27.86 C 9.53 28.91 6.47 24.41 8.77 21.70 C 10.02 19.68 12.52 19.98 14.50 20.48 C 16.29 19.65 18.06 18.77 19.78 17.79 C 20.52 16.00 21.69 13.90 23.96 14.03 C 26.56 13.76 27.75 16.41 28.35 18.47 C 30.25 19.78 32.18 21.05 34.11 22.32 C 34.80 22.22 36.17 22.02 36.86 21.92 C 39.25 19.10 41.72 16.36 44.02 13.47 C 43.93 11.54 44.31 9.22 46.33 8.39 Z" />
<path fill="#968176" opacity="1.00" d=" M 20.02 37.47 C 19.62 34.95 21.15 31.91 24.00 32.01 C 26.80 31.85 28.16 34.75 28.09 37.16 C 30.26 39.54 32.60 41.75 34.87 44.01 C 35.63 44.08 37.16 44.22 37.92 44.29 C 39.83 43.02 41.77 41.80 43.65 40.49 C 44.22 38.41 45.44 35.87 47.99 36.00 C 51.05 35.83 53.20 39.82 51.27 42.24 C 50.17 44.07 47.92 44.03 46.07 43.79 C 44.14 44.98 42.24 46.23 40.36 47.51 C 39.76 49.56 38.58 52.10 36.03 51.99 C 33.25 52.11 31.76 49.30 31.92 46.84 C 29.64 44.53 27.52 42.04 24.99 40.00 C 24.57 40.01 23.74 40.04 23.33 40.05 C 20.66 42.67 18.40 45.67 15.99 48.52 C 15.94 50.22 15.90 52.25 14.27 53.25 C 11.86 55.22 7.83 53.06 8.01 50.00 C 7.89 47.34 10.57 45.96 12.88 45.81 C 15.33 43.09 17.72 40.32 20.02 37.47 Z" />
</g>
</svg>
