<?xml version="1.0" encoding="UTF-8" ?>
<!DOCTYPE svg PUBLIC "-//W3C//DTD SVG 1.1//EN" "http://www.w3.org/Graphics/SVG/1.1/DTD/svg11.dtd">
<svg width="64pt" height="64pt" viewBox="0 0 64 64" version="1.1" xmlns="http://www.w3.org/2000/svg">
<g id="#ffffffff">
<path fill="#ffffff" opacity="1.00" d=" M 0.00 0.00 L 64.00 0.00 L 64.00 64.00 L 0.00 64.00 L 0.00 0.00 M 54.48 10.73 C 52.10 13.64 49.79 16.60 47.41 19.50 C 44.75 18.09 42.05 16.75 39.34 15.43 C 36.66 19.28 34.12 23.22 31.50 27.12 C 29.03 25.21 26.50 23.37 24.00 21.50 C 21.18 23.59 18.39 25.72 15.56 27.81 C 13.21 27.23 10.86 26.65 8.51 26.06 C 8.17 27.33 7.84 28.60 7.50 29.88 C 10.45 30.66 13.42 31.41 16.38 32.19 C 18.95 30.33 21.48 28.43 24.00 26.50 C 26.84 28.62 29.67 30.76 32.52 32.88 C 35.25 28.80 37.96 24.70 40.69 20.63 C 43.32 21.93 45.94 23.26 48.61 24.49 C 51.55 20.70 54.61 17.00 57.57 13.22 C 56.53 12.40 55.51 11.57 54.48 10.73 M 31.63 47.24 C 29.10 45.32 26.55 43.40 24.00 41.50 C 21.26 43.52 18.55 45.60 15.81 47.63 C 13.51 46.47 11.20 45.33 8.90 44.20 C 8.30 45.35 7.70 46.49 7.09 47.64 C 10.02 49.39 13.16 50.74 16.18 52.34 C 18.82 50.44 21.39 48.45 24.00 46.51 C 26.79 48.58 29.57 50.67 32.35 52.76 C 34.84 49.67 37.32 46.55 39.80 43.45 C 42.52 47.40 45.11 51.44 47.88 55.36 C 51.11 51.32 54.35 47.29 57.56 43.24 C 56.51 42.42 55.47 41.59 54.43 40.76 C 52.35 43.36 50.28 45.97 48.18 48.55 C 45.50 44.58 42.87 40.57 40.13 36.63 C 37.31 40.18 34.46 43.70 31.63 47.24 Z" />
</g>
<g id="#000000ff">
<path fill="#000000" opacity="1.00" d=" M 54.48 10.73 C 55.51 11.57 56.53 12.40 57.57 13.22 C 54.61 17.00 51.55 20.70 48.61 24.49 C 45.94 23.26 43.32 21.93 40.69 20.63 C 37.96 24.70 35.25 28.80 32.52 32.88 C 29.67 30.76 26.84 28.62 24.00 26.50 C 21.48 28.43 18.95 30.33 16.38 32.19 C 13.42 31.41 10.45 30.66 7.50 29.88 C 7.84 28.60 8.17 27.33 8.51 26.06 C 10.86 26.65 13.21 27.23 15.56 27.81 C 18.39 25.72 21.18 23.59 24.00 21.50 C 26.50 23.37 29.03 25.21 31.50 27.12 C 34.12 23.22 36.66 19.28 39.34 15.43 C 42.05 16.75 44.75 18.09 47.41 19.50 C 49.79 16.60 52.10 13.64 54.48 10.73 Z" />
<path fill="#000000" opacity="1.00" d=" M 31.63 47.24 C 34.46 43.70 37.31 40.18 40.13 36.63 C 42.87 40.57 45.50 44.58 48.18 48.55 C 50.28 45.97 52.35 43.36 54.43 40.76 C 55.47 41.59 56.51 42.42 57.56 43.24 C 54.35 47.29 51.11 51.32 47.88 55.36 C 45.11 51.44 42.52 47.40 39.80 43.45 C 37.32 46.55 34.84 49.67 32.35 52.76 C 29.57 50.67 26.79 48.58 24.00 46.51 C 21.39 48.45 18.82 50.44 16.18 52.34 C 13.16 50.74 10.02 49.39 7.09 47.64 C 7.70 46.49 8.30 45.35 8.90 44.20 C 11.20 45.33 13.51 46.47 15.81 47.63 C 18.55 45.60 21.26 43.52 24.00 41.50 C 26.55 43.40 29.10 45.32 31.63 47.24 Z" />
</g>
</svg>
