<?xml version="1.0" encoding="UTF-8" ?>
<!DOCTYPE svg PUBLIC "-//W3C//DTD SVG 1.1//EN" "http://www.w3.org/Graphics/SVG/1.1/DTD/svg11.dtd">
<svg width="60pt" height="60pt" viewBox="0 0 60 60" version="1.1" xmlns="http://www.w3.org/2000/svg">
<g id="#ffffffff">
<path fill="#ffffff" opacity="1.00" d=" M 0.00 0.00 L 60.00 0.00 L 60.00 60.00 L 0.00 60.00 L 0.00 0.00 M 10.34 8.39 C 8.60 9.14 7.83 11.11 8.00 12.91 C 8.03 24.64 7.93 36.38 8.05 48.11 C 7.95 50.64 10.57 52.31 12.91 52.00 C 24.63 51.97 36.35 52.07 48.07 51.95 C 50.59 52.01 52.34 49.44 52.00 47.07 C 52.01 35.69 52.00 24.30 52.00 12.91 C 52.32 10.57 50.63 7.94 48.09 8.05 C 37.04 7.91 25.99 8.07 14.94 7.98 C 13.41 8.06 11.79 7.80 10.34 8.39 Z" />
<path fill="#ffffff" opacity="1.00" d=" M 16.48 16.44 C 18.46 14.21 22.71 16.05 22.27 19.05 C 22.33 21.50 19.23 23.12 17.20 21.82 C 15.27 20.82 14.88 17.92 16.48 16.44 Z" />
<path fill="#ffffff" opacity="1.00" d=" M 16.01 25.00 C 17.97 25.01 19.94 25.00 21.91 25.00 C 21.90 31.33 21.90 37.67 21.91 44.00 C 19.94 43.99 17.97 43.99 16.01 44.00 C 16.01 37.67 16.01 31.33 16.01 25.00 Z" />
<path fill="#ffffff" opacity="1.00" d=" M 25.61 25.00 C 27.51 25.00 29.41 25.00 31.31 25.00 C 31.26 25.63 31.18 26.88 31.14 27.51 C 34.02 23.50 41.56 23.36 43.32 28.45 C 44.61 33.52 43.78 38.83 44.01 44.00 C 42.04 43.99 40.08 43.99 38.11 44.00 C 38.02 40.01 38.38 35.99 37.86 32.02 C 37.51 28.84 32.24 29.06 31.81 32.09 C 31.19 36.03 31.61 40.04 31.50 44.00 C 29.54 44.00 27.57 44.00 25.61 44.00 C 25.61 37.67 25.61 31.33 25.61 25.00 Z" />
</g>
<g id="#000000ff">
<path fill="#000000" opacity="1.00" d=" M 10.34 8.39 C 11.79 7.80 13.41 8.06 14.94 7.98 C 25.99 8.07 37.04 7.91 48.09 8.05 C 50.63 7.94 52.32 10.57 52.00 12.91 C 52.00 24.30 52.01 35.69 52.00 47.07 C 52.34 49.44 50.59 52.01 48.07 51.95 C 36.35 52.07 24.63 51.97 12.91 52.00 C 10.57 52.31 7.95 50.64 8.05 48.11 C 7.93 36.38 8.03 24.64 8.00 12.91 C 7.83 11.11 8.60 9.14 10.34 8.39 M 16.48 16.44 C 14.88 17.92 15.27 20.82 17.20 21.82 C 19.23 23.12 22.33 21.50 22.27 19.05 C 22.71 16.05 18.46 14.21 16.48 16.44 M 16.01 25.00 C 16.01 31.33 16.01 37.67 16.01 44.00 C 17.97 43.99 19.94 43.99 21.91 44.00 C 21.90 37.67 21.90 31.33 21.91 25.00 C 19.94 25.00 17.97 25.01 16.01 25.00 M 25.61 25.00 C 25.61 31.33 25.61 37.67 25.61 44.00 C 27.57 44.00 29.54 44.00 31.50 44.00 C 31.61 40.04 31.19 36.03 31.81 32.09 C 32.24 29.06 37.51 28.84 37.86 32.02 C 38.38 35.99 38.02 40.01 38.11 44.00 C 40.08 43.99 42.04 43.99 44.01 44.00 C 43.78 38.83 44.61 33.52 43.32 28.45 C 41.56 23.36 34.02 23.50 31.14 27.51 C 31.18 26.88 31.26 25.63 31.31 25.00 C 29.41 25.00 27.51 25.00 25.61 25.00 Z" />
</g>
</svg>
