<?xml version="1.0" encoding="UTF-8" ?>
<!DOCTYPE svg PUBLIC "-//W3C//DTD SVG 1.1//EN" "http://www.w3.org/Graphics/SVG/1.1/DTD/svg11.dtd">
<svg width="64pt" height="64pt" viewBox="0 0 64 64" version="1.1" xmlns="http://www.w3.org/2000/svg">
<g id="#ffffffff">
<path fill="#ffffff" opacity="1.00" d=" M 0.00 0.00 L 64.00 0.00 L 64.00 64.00 L 0.00 64.00 L 0.00 0.00 M 12.47 10.70 C 10.63 11.73 9.83 13.90 10.00 15.92 C 10.03 26.99 9.93 38.06 10.05 49.12 C 9.96 52.17 13.05 54.40 15.94 54.00 C 27.00 53.97 38.07 54.07 49.13 53.95 C 51.70 53.99 54.02 51.66 53.95 49.08 C 54.06 38.03 53.97 26.96 54.00 15.90 C 54.38 13.05 52.19 10.01 49.20 10.05 C 38.48 9.91 27.76 10.06 17.04 9.98 C 15.51 10.06 13.83 9.84 12.47 10.70 Z" />
<path fill="#ffffff" opacity="1.00" d=" M 14.12 14.08 C 26.04 13.96 37.98 13.92 49.90 14.10 C 50.07 26.03 50.06 37.97 49.90 49.90 C 37.97 50.08 26.04 50.05 14.11 49.91 C 13.94 37.97 13.91 26.02 14.12 14.08 M 18.45 18.46 C 16.22 20.44 18.05 24.65 21.03 24.24 C 23.48 24.34 25.15 21.21 23.83 19.18 C 22.85 17.24 19.92 16.88 18.45 18.46 M 18.00 27.00 C 18.00 33.33 18.00 39.67 18.00 46.00 C 19.98 46.00 21.96 46.00 23.94 46.00 C 23.94 39.67 23.94 33.33 23.94 27.00 C 21.96 27.00 19.98 27.00 18.00 27.00 M 27.62 27.00 C 27.62 33.33 27.62 39.67 27.62 46.00 C 29.59 46.00 31.55 46.00 33.51 45.99 C 33.61 42.02 33.21 38.00 33.78 34.06 C 34.33 31.11 39.47 30.85 39.87 33.99 C 40.40 37.97 40.02 42.00 40.12 46.00 C 42.08 46.00 44.04 46.00 46.00 46.00 C 45.77 40.84 46.59 35.55 45.33 30.50 C 43.65 25.39 35.87 25.43 33.18 29.66 C 33.20 28.99 33.25 27.67 33.28 27.00 C 31.39 27.00 29.51 27.00 27.62 27.00 Z" />
</g>
<g id="#000000ff">
<path fill="#000000" opacity="1.00" d=" M 12.47 10.70 C 13.83 9.84 15.51 10.06 17.04 9.98 C 27.76 10.06 38.48 9.91 49.20 10.05 C 52.19 10.01 54.38 13.05 54.00 15.90 C 53.97 26.96 54.06 38.03 53.95 49.08 C 54.02 51.66 51.70 53.99 49.13 53.95 C 38.07 54.07 27.00 53.97 15.94 54.00 C 13.05 54.40 9.96 52.17 10.05 49.12 C 9.93 38.06 10.03 26.99 10.00 15.92 C 9.83 13.90 10.63 11.73 12.47 10.70 M 14.12 14.08 C 13.91 26.02 13.94 37.97 14.11 49.91 C 26.04 50.05 37.97 50.08 49.90 49.90 C 50.06 37.97 50.07 26.03 49.90 14.10 C 37.98 13.92 26.04 13.96 14.12 14.08 Z" />
<path fill="#000000" opacity="1.00" d=" M 18.45 18.46 C 19.92 16.88 22.85 17.24 23.83 19.18 C 25.15 21.21 23.48 24.34 21.03 24.24 C 18.05 24.65 16.22 20.44 18.45 18.46 Z" />
<path fill="#000000" opacity="1.00" d=" M 18.00 27.00 C 19.98 27.00 21.96 27.00 23.94 27.00 C 23.94 33.33 23.94 39.67 23.94 46.00 C 21.96 46.00 19.98 46.00 18.00 46.00 C 18.00 39.67 18.00 33.33 18.00 27.00 Z" />
<path fill="#000000" opacity="1.00" d=" M 27.62 27.00 C 29.51 27.00 31.39 27.00 33.28 27.00 C 33.25 27.67 33.20 28.99 33.18 29.66 C 35.87 25.43 43.65 25.39 45.33 30.50 C 46.59 35.55 45.77 40.84 46.00 46.00 C 44.04 46.00 42.08 46.00 40.12 46.00 C 40.02 42.00 40.40 37.97 39.87 33.99 C 39.47 30.85 34.33 31.11 33.78 34.06 C 33.21 38.00 33.61 42.02 33.51 45.99 C 31.55 46.00 29.59 46.00 27.62 46.00 C 27.62 39.67 27.62 33.33 27.62 27.00 Z" />
</g>
</svg>
