<?xml version="1.0" encoding="UTF-8" ?>
<!DOCTYPE svg PUBLIC "-//W3C//DTD SVG 1.1//EN" "http://www.w3.org/Graphics/SVG/1.1/DTD/svg11.dtd">
<svg width="64pt" height="64pt" viewBox="0 0 64 64" version="1.1" xmlns="http://www.w3.org/2000/svg">
<g id="#ffffffff">
<path fill="#ffffff" opacity="1.00" d=" M 0.00 0.00 L 64.00 0.00 L 64.00 38.96 C 63.36 33.96 57.80 30.58 53.11 32.53 C 48.77 34.55 45.26 39.06 46.05 44.07 C 48.95 41.63 51.26 38.54 54.34 36.33 C 57.45 34.60 61.29 38.42 59.65 41.55 C 57.45 44.71 54.27 47.03 51.84 50.01 C 57.48 50.78 62.49 46.37 64.00 41.19 L 64.00 64.00 L 40.98 64.00 C 46.27 62.70 50.78 57.52 49.97 51.87 C 47.02 54.28 44.74 57.46 41.57 59.60 C 38.43 61.12 34.73 57.51 36.35 54.36 C 38.52 51.25 41.64 48.96 44.07 46.06 C 38.70 45.23 33.68 49.29 32.19 54.25 C 31.09 58.70 34.41 63.16 38.78 64.00 L 0.00 64.00 L 0.00 0.00 M 12.00 6.00 C 12.00 23.33 12.00 40.67 12.00 58.00 C 17.37 58.00 22.74 58.00 28.11 58.00 C 28.09 56.67 28.09 55.33 28.09 54.00 C 24.06 54.00 20.03 54.00 16.00 54.00 C 16.00 39.33 16.00 24.67 16.00 10.00 C 22.67 10.00 29.33 10.00 36.00 10.00 C 36.00 14.00 36.00 18.00 36.00 22.00 C 40.00 22.00 44.00 22.00 48.00 22.00 C 48.00 24.97 48.01 27.95 47.98 30.93 C 49.29 30.11 50.63 29.34 51.99 28.59 C 52.01 25.44 52.00 22.30 52.00 19.16 C 47.61 14.77 43.23 10.38 38.84 6.00 C 29.89 6.00 20.95 6.00 12.00 6.00 M 52.58 40.59 C 48.58 44.60 44.58 48.59 40.58 52.59 C 41.53 53.53 42.47 54.47 43.42 55.41 C 47.42 51.40 51.42 47.41 55.42 43.40 C 54.47 42.46 53.52 41.53 52.58 40.59 Z" />
<path fill="#ffffff" opacity="1.00" d=" M 40.00 12.82 C 41.73 14.54 43.46 16.27 45.18 18.00 C 43.45 18.00 41.72 18.00 40.00 18.00 C 40.00 16.27 40.00 14.55 40.00 12.82 Z" />
</g>
<g id="#000000ff">
<path fill="#000000" opacity="1.00" d=" M 12.00 6.00 C 20.95 6.00 29.89 6.00 38.84 6.00 C 43.23 10.38 47.61 14.77 52.00 19.16 C 52.00 22.30 52.01 25.44 51.99 28.59 C 50.63 29.34 49.29 30.11 47.98 30.93 C 48.01 27.95 48.00 24.97 48.00 22.00 C 44.00 22.00 40.00 22.00 36.00 22.00 C 36.00 18.00 36.00 14.00 36.00 10.00 C 29.33 10.00 22.67 10.00 16.00 10.00 C 16.00 24.67 16.00 39.33 16.00 54.00 C 20.03 54.00 24.06 54.00 28.09 54.00 C 28.09 55.33 28.09 56.67 28.11 58.00 C 22.74 58.00 17.37 58.00 12.00 58.00 C 12.00 40.67 12.00 23.33 12.00 6.00 M 40.00 12.82 C 40.00 14.55 40.00 16.27 40.00 18.00 C 41.72 18.00 43.45 18.00 45.18 18.00 C 43.46 16.27 41.73 14.54 40.00 12.82 Z" />
<path fill="#000000" opacity="1.00" d=" M 46.05 44.07 C 45.26 39.06 48.77 34.55 53.11 32.53 C 57.80 30.58 63.36 33.96 64.00 38.96 L 64.00 41.19 C 62.49 46.37 57.48 50.78 51.84 50.01 C 54.27 47.03 57.45 44.71 59.65 41.55 C 61.29 38.42 57.45 34.60 54.34 36.33 C 51.26 38.54 48.95 41.63 46.05 44.07 Z" />
<path fill="#000000" opacity="1.00" d=" M 52.58 40.59 C 53.52 41.53 54.47 42.46 55.42 43.40 C 51.42 47.41 47.42 51.40 43.42 55.41 C 42.47 54.47 41.53 53.53 40.58 52.59 C 44.58 48.59 48.58 44.60 52.58 40.59 Z" />
<path fill="#000000" opacity="1.00" d=" M 32.19 54.25 C 33.68 49.29 38.70 45.23 44.07 46.06 C 41.64 48.96 38.52 51.25 36.35 54.36 C 34.73 57.51 38.43 61.12 41.57 59.60 C 44.74 57.46 47.02 54.28 49.97 51.87 C 50.78 57.52 46.27 62.70 40.98 64.00 L 38.78 64.00 C 34.41 63.16 31.09 58.70 32.19 54.25 Z" />
</g>
</svg>
