<?xml version="1.0" encoding="UTF-8" ?>
<!DOCTYPE svg PUBLIC "-//W3C//DTD SVG 1.1//EN" "http://www.w3.org/Graphics/SVG/1.1/DTD/svg11.dtd">
<svg width="60pt" height="60pt" viewBox="0 0 60 60" version="1.1" xmlns="http://www.w3.org/2000/svg">
<g id="#ffffffff">
<path fill="#ffffff" opacity="1.00" d=" M 0.00 0.00 L 60.00 0.00 L 60.00 60.00 L 0.00 60.00 L 0.00 0.00 M 8.95 19.77 C 6.31 29.10 10.22 38.55 9.39 47.96 C 9.29 50.34 7.95 52.35 6.37 54.03 C 8.32 54.01 10.28 54.00 12.23 53.97 C 12.75 52.32 13.30 50.67 13.49 48.94 C 14.14 45.96 11.52 43.76 10.93 41.02 C 10.69 38.87 12.21 37.17 13.24 35.46 C 11.81 32.95 10.38 30.01 11.33 27.06 C 12.06 24.43 15.34 22.73 17.79 24.23 C 20.03 25.26 20.53 27.91 21.28 30.00 C 22.79 30.00 24.29 30.00 25.79 30.00 C 26.14 26.30 28.87 22.22 33.10 23.18 C 38.31 24.10 39.11 30.44 37.67 34.64 C 38.84 35.99 40.48 37.20 40.71 39.10 C 41.00 41.45 39.51 43.47 38.54 45.47 C 39.70 48.31 40.85 51.15 42.00 54.00 C 45.88 54.00 49.77 54.00 53.65 54.01 C 49.47 48.65 48.82 41.61 48.27 35.08 C 47.77 27.84 48.86 19.81 44.43 13.53 C 39.56 6.55 29.98 5.15 22.13 6.47 C 15.46 7.59 10.34 13.29 8.95 19.77 M 15.99 35.58 C 14.00 37.16 10.90 39.57 12.62 42.43 C 14.87 45.36 17.78 47.98 21.08 49.67 C 25.63 50.96 29.46 47.39 33.03 45.16 C 35.18 43.58 38.69 42.20 38.38 38.97 C 37.50 36.79 35.01 36.31 33.06 35.56 C 34.10 34.22 35.74 32.91 35.33 30.99 C 35.39 28.50 32.31 26.52 30.27 28.22 C 28.58 29.53 29.08 31.84 29.10 33.67 C 28.08 33.96 27.06 34.29 26.05 34.61 L 27.40 36.57 C 26.54 36.16 24.81 35.32 23.95 34.90 C 25.06 34.29 26.17 33.66 27.27 33.04 C 24.55 32.45 21.75 32.31 19.14 33.39 C 19.19 30.97 18.44 26.77 15.03 27.72 C 11.70 29.69 13.75 33.67 15.99 35.58 Z" />
<path fill="#ffffff" opacity="1.00" d=" M 32.90 11.09 C 34.75 10.56 36.70 11.38 37.64 13.05 C 38.42 17.50 30.87 14.28 32.90 11.09 Z" />
<path fill="#ffffff" opacity="1.00" d=" M 20.24 34.22 C 21.55 34.76 21.52 35.41 20.15 36.18 C 18.83 35.62 18.87 34.97 20.24 34.22 Z" />
<path fill="#ffffff" opacity="1.00" d=" M 22.98 44.37 C 27.58 44.11 31.63 41.72 35.75 39.91 C 32.03 42.94 28.02 46.36 23.03 46.78 C 19.10 46.86 16.10 43.97 13.30 41.60 C 16.43 42.76 19.55 44.42 22.98 44.37 Z" />
</g>
<g id="#000000ff">
<path fill="#000000" opacity="1.00" d=" M 8.95 19.77 C 10.34 13.29 15.46 7.59 22.13 6.47 C 29.98 5.15 39.56 6.55 44.43 13.53 C 48.86 19.81 47.77 27.84 48.27 35.08 C 48.82 41.61 49.47 48.65 53.65 54.01 C 49.77 54.00 45.88 54.00 42.00 54.00 C 40.85 51.15 39.70 48.31 38.54 45.47 C 39.51 43.47 41.00 41.45 40.71 39.10 C 40.48 37.20 38.84 35.99 37.67 34.64 C 39.11 30.44 38.31 24.10 33.10 23.18 C 28.87 22.22 26.14 26.30 25.79 30.00 C 24.29 30.00 22.79 30.00 21.28 30.00 C 20.53 27.91 20.03 25.26 17.79 24.23 C 15.34 22.73 12.06 24.43 11.33 27.06 C 10.38 30.01 11.81 32.95 13.24 35.46 C 12.21 37.17 10.69 38.87 10.93 41.02 C 11.52 43.76 14.14 45.96 13.49 48.94 C 13.30 50.67 12.75 52.32 12.23 53.97 C 10.28 54.00 8.32 54.01 6.37 54.03 C 7.95 52.35 9.29 50.34 9.39 47.96 C 10.22 38.55 6.31 29.10 8.95 19.77 M 32.90 11.09 C 30.87 14.28 38.42 17.50 37.64 13.05 C 36.70 11.38 34.75 10.56 32.90 11.09 Z" />
<path fill="#000000" opacity="1.00" d=" M 15.99 35.58 C 13.75 33.67 11.70 29.69 15.03 27.72 C 18.44 26.77 19.19 30.97 19.14 33.39 C 21.75 32.31 24.55 32.45 27.27 33.04 C 26.17 33.66 25.06 34.29 23.95 34.90 C 24.81 35.32 26.54 36.16 27.40 36.57 L 26.05 34.61 C 27.06 34.29 28.08 33.96 29.10 33.67 C 29.08 31.84 28.58 29.53 30.27 28.22 C 32.31 26.52 35.39 28.50 35.33 30.99 C 35.74 32.91 34.10 34.22 33.06 35.56 C 35.01 36.31 37.50 36.79 38.38 38.97 C 38.69 42.20 35.18 43.58 33.03 45.16 C 29.46 47.39 25.63 50.96 21.08 49.67 C 17.78 47.98 14.87 45.36 12.62 42.43 C 10.90 39.57 14.00 37.16 15.99 35.58 M 20.24 34.22 C 18.87 34.97 18.83 35.62 20.15 36.18 C 21.52 35.41 21.55 34.76 20.24 34.22 M 22.98 44.37 C 19.55 44.42 16.43 42.76 13.30 41.60 C 16.10 43.97 19.10 46.86 23.03 46.78 C 28.02 46.36 32.03 42.94 35.75 39.91 C 31.63 41.72 27.58 44.11 22.98 44.37 Z" />
</g>
</svg>
