<?xml version="1.0" encoding="UTF-8" ?>
<!DOCTYPE svg PUBLIC "-//W3C//DTD SVG 1.1//EN" "http://www.w3.org/Graphics/SVG/1.1/DTD/svg11.dtd">
<svg width="60pt" height="60pt" viewBox="0 0 60 60" version="1.1" xmlns="http://www.w3.org/2000/svg">
<g id="#ffffffff">
<path fill="#ffffff" opacity="1.00" d=" M 0.00 0.00 L 60.00 0.00 L 60.00 60.00 L 0.00 60.00 L 0.00 0.00 M 24.43 4.24 C 22.53 4.90 22.11 6.98 21.63 8.67 C 21.19 8.98 20.30 9.60 19.86 9.90 C 18.46 10.03 15.84 9.90 16.07 11.99 C 16.34 16.24 23.58 11.77 23.93 15.97 C 23.84 18.97 19.87 17.65 17.94 18.09 C 15.92 17.90 16.06 20.42 15.84 21.76 C 14.75 23.69 13.47 25.79 14.06 28.11 C 14.36 30.93 16.77 32.71 18.08 35.02 C 17.89 36.79 16.88 38.32 16.13 39.89 C 14.75 40.13 12.97 39.71 12.11 41.13 C 11.69 42.45 12.48 44.04 13.99 43.96 C 16.21 43.94 19.05 44.60 20.71 42.71 C 23.21 39.48 25.82 36.05 26.25 31.84 C 30.89 32.44 34.02 36.04 35.99 40.00 C 33.72 40.02 31.44 39.86 29.18 40.16 C 27.26 40.89 27.86 44.11 29.97 43.94 C 34.92 44.00 39.89 44.18 44.83 43.83 C 46.34 43.21 45.75 41.63 45.67 40.40 C 47.34 38.37 48.64 35.68 47.70 33.03 C 46.14 28.35 41.76 25.50 37.81 22.96 C 39.93 19.67 40.79 15.48 39.28 11.76 C 37.26 5.83 30.33 2.71 24.43 4.24 M 9.18 48.16 C 7.26 48.90 7.87 52.13 9.98 51.94 C 22.99 52.08 36.01 51.97 49.03 51.99 C 50.74 52.34 52.53 51.03 51.90 49.19 C 50.88 47.44 48.65 48.17 47.00 47.98 C 34.40 48.13 21.77 47.77 9.18 48.16 Z" />
<path fill="#ffffff" opacity="1.00" d=" M 25.69 7.97 C 28.00 8.12 30.54 7.97 32.53 9.37 C 36.49 11.91 37.17 18.35 33.49 21.43 C 29.26 25.12 23.51 26.30 19.14 29.81 C 18.55 28.29 17.25 26.19 18.86 24.85 C 22.41 22.11 28.48 22.00 29.81 16.94 C 31.05 13.21 27.89 10.44 25.69 7.97 Z" />
</g>
<g id="#000000ff">
<path fill="#000000" opacity="1.00" d=" M 24.43 4.24 C 30.33 2.71 37.26 5.83 39.28 11.76 C 40.79 15.48 39.93 19.67 37.81 22.96 C 41.76 25.50 46.14 28.35 47.70 33.03 C 48.64 35.68 47.34 38.37 45.67 40.40 C 45.75 41.63 46.34 43.21 44.83 43.83 C 39.89 44.18 34.92 44.00 29.97 43.94 C 27.86 44.11 27.26 40.89 29.18 40.16 C 31.44 39.86 33.72 40.02 35.99 40.00 C 34.02 36.04 30.89 32.44 26.25 31.84 C 25.82 36.05 23.21 39.48 20.71 42.71 C 19.05 44.60 16.21 43.94 13.99 43.96 C 12.48 44.04 11.69 42.45 12.11 41.13 C 12.97 39.71 14.75 40.13 16.13 39.89 C 16.88 38.32 17.89 36.79 18.08 35.02 C 16.77 32.71 14.36 30.93 14.06 28.11 C 13.47 25.79 14.75 23.69 15.84 21.76 C 16.06 20.42 15.92 17.90 17.94 18.09 C 19.87 17.65 23.84 18.97 23.93 15.97 C 23.58 11.77 16.34 16.24 16.07 11.99 C 15.84 9.90 18.46 10.03 19.86 9.90 C 20.30 9.60 21.19 8.98 21.63 8.67 C 22.11 6.98 22.53 4.90 24.43 4.24 M 25.69 7.97 C 27.89 10.44 31.05 13.21 29.81 16.94 C 28.48 22.00 22.41 22.11 18.86 24.85 C 17.25 26.19 18.55 28.29 19.14 29.81 C 23.51 26.30 29.26 25.12 33.49 21.43 C 37.17 18.35 36.49 11.91 32.53 9.37 C 30.54 7.97 28.00 8.12 25.69 7.97 Z" />
<path fill="#000000" opacity="1.00" d=" M 9.18 48.16 C 21.77 47.77 34.40 48.13 47.00 47.98 C 48.65 48.17 50.88 47.44 51.90 49.19 C 52.53 51.03 50.74 52.34 49.03 51.99 C 36.01 51.97 22.99 52.08 9.98 51.94 C 7.87 52.13 7.26 48.90 9.18 48.16 Z" />
</g>
</svg>
