<?xml version="1.0" encoding="UTF-8" ?>
<!DOCTYPE svg PUBLIC "-//W3C//DTD SVG 1.1//EN" "http://www.w3.org/Graphics/SVG/1.1/DTD/svg11.dtd">
<svg width="64pt" height="64pt" viewBox="0 0 64 64" version="1.1" xmlns="http://www.w3.org/2000/svg">
<g id="#ffffffff">
<path fill="#ffffff" opacity="1.00" d=" M 0.00 0.00 L 64.00 0.00 L 64.00 64.00 L 0.00 64.00 L 0.00 0.00 M 16.15 9.11 C 16.32 12.13 14.58 16.66 17.98 18.31 C 18.02 24.21 17.99 30.10 18.00 36.00 C 16.00 36.00 13.99 36.00 11.99 36.00 C 11.93 43.36 12.48 50.78 14.40 57.91 C 18.14 58.05 21.87 58.05 25.60 57.91 C 27.48 50.77 28.06 43.36 28.02 36.00 C 26.01 36.00 24.00 36.00 22.00 36.00 C 22.01 30.11 21.97 24.21 22.02 18.32 C 22.47 17.97 23.36 17.28 23.81 16.93 C 24.15 13.69 24.13 10.40 23.83 7.16 C 21.75 4.53 18.12 7.67 16.15 9.11 M 38.00 18.00 C 38.00 20.00 38.00 22.00 38.00 24.00 C 36.66 24.00 35.33 24.00 33.99 24.00 C 34.07 35.35 34.18 46.79 36.34 57.97 C 41.44 58.02 46.54 58.01 51.65 57.98 C 53.90 46.81 53.90 35.35 54.01 24.00 C 52.67 24.00 51.34 24.00 50.00 24.00 C 50.00 22.00 50.00 20.00 50.00 18.00 C 46.00 18.00 42.00 18.00 38.00 18.00 Z" />
<path fill="#ffffff" opacity="1.00" d=" M 42.00 22.00 C 43.33 22.00 44.67 22.00 46.00 22.00 C 46.00 22.50 46.00 23.50 46.00 24.00 C 44.67 24.00 43.33 24.00 42.00 24.00 C 42.00 23.50 42.00 22.50 42.00 22.00 Z" />
<path fill="#ffffff" opacity="1.00" d=" M 38.06 28.00 C 42.02 28.00 45.98 28.00 49.94 28.00 C 49.73 36.68 49.67 45.40 48.35 54.00 C 45.47 54.00 42.59 54.00 39.71 54.00 C 38.34 45.40 38.26 36.68 38.06 28.00 Z" />
<path fill="#ffffff" opacity="1.00" d=" M 16.12 40.00 C 18.71 40.00 21.29 40.00 23.88 40.00 C 23.74 44.66 23.34 49.31 22.59 53.91 C 20.88 53.93 19.17 53.96 17.46 53.99 C 16.63 49.37 16.26 44.69 16.12 40.00 Z" />
</g>
<g id="#000000ff">
<path fill="#000000" opacity="1.00" d=" M 16.15 9.11 C 18.12 7.67 21.75 4.53 23.83 7.16 C 24.13 10.40 24.15 13.69 23.81 16.93 C 23.36 17.28 22.47 17.97 22.02 18.32 C 21.97 24.21 22.01 30.11 22.00 36.00 C 24.00 36.00 26.01 36.00 28.02 36.00 C 28.06 43.36 27.48 50.77 25.60 57.91 C 21.87 58.05 18.14 58.05 14.40 57.91 C 12.48 50.78 11.93 43.36 11.99 36.00 C 13.99 36.00 16.00 36.00 18.00 36.00 C 17.99 30.10 18.02 24.21 17.98 18.31 C 14.58 16.66 16.32 12.13 16.15 9.11 M 16.12 40.00 C 16.26 44.69 16.63 49.37 17.46 53.99 C 19.17 53.96 20.88 53.93 22.59 53.91 C 23.34 49.31 23.74 44.66 23.88 40.00 C 21.29 40.00 18.71 40.00 16.12 40.00 Z" />
<path fill="#000000" opacity="1.00" d=" M 38.00 18.00 C 42.00 18.00 46.00 18.00 50.00 18.00 C 50.00 20.00 50.00 22.00 50.00 24.00 C 51.34 24.00 52.67 24.00 54.01 24.00 C 53.90 35.35 53.90 46.81 51.65 57.98 C 46.54 58.01 41.44 58.02 36.34 57.97 C 34.18 46.79 34.07 35.35 33.99 24.00 C 35.33 24.00 36.66 24.00 38.00 24.00 C 38.00 22.00 38.00 20.00 38.00 18.00 M 42.00 22.00 C 42.00 22.50 42.00 23.50 42.00 24.00 C 43.33 24.00 44.67 24.00 46.00 24.00 C 46.00 23.50 46.00 22.50 46.00 22.00 C 44.67 22.00 43.33 22.00 42.00 22.00 M 38.06 28.00 C 38.26 36.68 38.34 45.40 39.71 54.00 C 42.59 54.00 45.47 54.00 48.35 54.00 C 49.67 45.40 49.73 36.68 49.94 28.00 C 45.98 28.00 42.02 28.00 38.06 28.00 Z" />
</g>
</svg>
