<?xml version="1.0" encoding="UTF-8" ?>
<!DOCTYPE svg PUBLIC "-//W3C//DTD SVG 1.1//EN" "http://www.w3.org/Graphics/SVG/1.1/DTD/svg11.dtd">
<svg width="60pt" height="60pt" viewBox="0 0 60 60" version="1.1" xmlns="http://www.w3.org/2000/svg">
<g id="#ffffffff">
<path fill="#ffffff" opacity="1.00" d=" M 0.00 0.00 L 60.00 0.00 L 60.00 60.00 L 0.00 60.00 L 0.00 0.00 M 23.88 11.90 C 23.49 13.90 21.57 14.93 20.42 16.46 C 19.15 21.35 20.97 26.61 19.41 31.44 C 16.96 36.28 18.28 41.86 17.97 47.06 C 17.95 49.55 17.82 53.48 21.16 53.79 C 27.03 54.18 32.97 54.19 38.83 53.80 C 42.12 53.43 42.07 49.55 42.03 47.05 C 41.73 41.85 43.03 36.28 40.59 31.44 C 39.04 26.60 40.84 21.35 39.59 16.45 C 38.60 15.10 36.82 14.35 36.22 12.76 C 35.85 9.99 36.17 7.15 35.44 4.44 C 30.61 3.74 24.80 6.83 23.88 11.90 Z" />
<path fill="#ffffff" opacity="1.00" d=" M 24.12 18.13 C 28.03 17.84 31.97 17.84 35.87 18.13 C 36.15 22.70 36.15 27.30 35.87 31.87 C 31.97 32.16 28.03 32.16 24.13 31.87 C 23.85 27.30 23.85 22.70 24.12 18.13 Z" />
</g>
<g id="#000000ff">
<path fill="#000000" opacity="1.00" d=" M 23.88 11.90 C 24.80 6.83 30.61 3.74 35.44 4.44 C 36.17 7.15 35.85 9.99 36.22 12.76 C 36.82 14.35 38.60 15.10 39.59 16.45 C 40.84 21.35 39.04 26.60 40.59 31.44 C 43.03 36.28 41.73 41.85 42.03 47.05 C 42.07 49.55 42.12 53.43 38.83 53.80 C 32.97 54.19 27.03 54.18 21.16 53.79 C 17.82 53.48 17.95 49.55 17.97 47.06 C 18.28 41.86 16.96 36.28 19.41 31.44 C 20.97 26.61 19.15 21.35 20.42 16.46 C 21.57 14.93 23.49 13.90 23.88 11.90 M 24.12 18.13 C 23.85 22.70 23.85 27.30 24.13 31.87 C 28.03 32.16 31.97 32.16 35.87 31.87 C 36.15 27.30 36.15 22.70 35.87 18.13 C 31.97 17.84 28.03 17.84 24.12 18.13 Z" />
</g>
</svg>
