<?xml version="1.0" encoding="UTF-8" ?>
<!DOCTYPE svg PUBLIC "-//W3C//DTD SVG 1.1//EN" "http://www.w3.org/Graphics/SVG/1.1/DTD/svg11.dtd">
<svg width="64pt" height="64pt" viewBox="0 0 64 64" version="1.1" xmlns="http://www.w3.org/2000/svg">
<g id="#ffffffff">
<path fill="#ffffff" opacity="1.00" d=" M 0.00 0.00 L 64.00 0.00 L 64.00 64.00 L 0.00 64.00 L 0.00 0.00 M 5.99 13.10 C 6.01 26.74 5.99 40.37 6.00 54.00 C 13.46 54.03 20.91 53.94 28.37 54.05 C 30.25 56.52 33.75 56.49 35.64 54.05 C 43.10 53.94 50.55 54.03 58.00 54.00 C 58.00 40.37 57.99 26.74 58.01 13.11 C 49.80 9.52 40.39 9.00 32.00 12.31 C 23.61 9.00 14.20 9.51 5.99 13.10 Z" />
<path fill="#ffffff" opacity="1.00" d=" M 9.99 15.89 C 16.43 13.47 23.55 13.55 30.01 15.87 C 30.00 26.60 30.00 37.34 30.01 48.08 C 23.51 46.01 16.47 45.95 9.99 48.11 C 10.00 37.37 10.01 26.63 9.99 15.89 Z" />
<path fill="#ffffff" opacity="1.00" d=" M 33.99 15.86 C 40.45 13.55 47.57 13.48 54.01 15.89 C 53.99 26.63 54.00 37.37 54.01 48.11 C 47.52 45.96 40.49 46.01 33.99 48.07 C 34.00 37.34 34.00 26.60 33.99 15.86 Z" />
</g>
<g id="#000000ff">
<path fill="#000000" opacity="1.00" d=" M 5.99 13.10 C 14.20 9.51 23.61 9.00 32.00 12.31 C 40.39 9.00 49.80 9.52 58.01 13.11 C 57.99 26.74 58.00 40.37 58.00 54.00 C 50.55 54.03 43.10 53.94 35.64 54.05 C 33.75 56.49 30.25 56.52 28.37 54.05 C 20.91 53.94 13.46 54.03 6.00 54.00 C 5.99 40.37 6.01 26.74 5.99 13.10 M 9.99 15.89 C 10.01 26.63 10.00 37.37 9.99 48.11 C 16.47 45.95 23.51 46.01 30.01 48.08 C 30.00 37.34 30.00 26.60 30.01 15.87 C 23.55 13.55 16.43 13.47 9.99 15.89 M 33.99 15.86 C 34.00 26.60 34.00 37.34 33.99 48.07 C 40.49 46.01 47.52 45.96 54.01 48.11 C 54.00 37.37 53.99 26.63 54.01 15.89 C 47.57 13.48 40.45 13.55 33.99 15.86 Z" />
</g>
</svg>
