<?xml version="1.0" encoding="UTF-8" ?>
<!DOCTYPE svg PUBLIC "-//W3C//DTD SVG 1.1//EN" "http://www.w3.org/Graphics/SVG/1.1/DTD/svg11.dtd">
<svg width="64pt" height="64pt" viewBox="0 0 64 64" version="1.1" xmlns="http://www.w3.org/2000/svg">
<g id="#ffffffff">
<path fill="#ffffff" opacity="1.00" d=" M 0.00 0.00 L 64.00 0.00 L 64.00 64.00 L 0.00 64.00 L 0.00 0.00 M 20.00 5.99 C 19.51 13.25 20.92 20.38 21.88 27.52 C 19.70 30.25 17.74 33.24 16.84 36.65 C 15.21 43.63 16.33 50.90 16.00 58.00 C 26.67 58.00 37.33 58.00 48.00 58.00 C 47.93 52.29 48.15 46.58 47.90 40.87 C 47.63 35.88 45.24 31.30 42.11 27.51 C 43.09 20.37 44.47 13.24 44.00 5.99 C 42.73 6.00 41.46 6.01 40.19 6.02 C 38.43 14.03 25.58 14.02 23.80 6.02 C 22.53 6.01 21.27 6.00 20.00 5.99 Z" />
<path fill="#ffffff" opacity="1.00" d=" M 23.92 13.43 C 28.63 16.97 35.37 16.97 40.08 13.43 C 39.32 18.48 38.61 23.55 37.91 28.61 C 40.89 31.70 43.29 35.53 43.79 39.87 C 44.24 44.57 43.90 49.29 44.00 54.00 C 36.00 54.00 28.00 54.00 20.00 54.00 C 20.09 45.82 18.64 36.40 24.97 29.97 C 27.98 30.03 30.99 29.98 34.00 30.00 C 33.99 28.67 33.99 27.33 34.00 26.00 C 31.25 26.02 28.49 25.98 25.73 26.00 C 25.12 21.81 24.56 17.62 23.92 13.43 Z" />
</g>
<g id="#000000ff">
<path fill="#000000" opacity="1.00" d=" M 20.00 5.99 C 21.27 6.00 22.53 6.01 23.80 6.02 C 25.58 14.02 38.43 14.03 40.19 6.02 C 41.46 6.01 42.73 6.00 44.00 5.99 C 44.47 13.24 43.09 20.37 42.11 27.51 C 45.24 31.30 47.63 35.88 47.90 40.87 C 48.15 46.58 47.93 52.29 48.00 58.00 C 37.33 58.00 26.67 58.00 16.00 58.00 C 16.33 50.90 15.21 43.63 16.84 36.65 C 17.74 33.24 19.70 30.25 21.88 27.52 C 20.92 20.38 19.51 13.25 20.00 5.99 M 23.92 13.43 C 24.56 17.62 25.12 21.81 25.73 26.00 C 28.49 25.98 31.25 26.02 34.00 26.00 C 33.99 27.33 33.99 28.67 34.00 30.00 C 30.99 29.98 27.98 30.03 24.97 29.97 C 18.64 36.40 20.09 45.82 20.00 54.00 C 28.00 54.00 36.00 54.00 44.00 54.00 C 43.90 49.29 44.24 44.57 43.79 39.87 C 43.29 35.53 40.89 31.70 37.91 28.61 C 38.61 23.55 39.32 18.48 40.08 13.43 C 35.37 16.97 28.63 16.97 23.92 13.43 Z" />
</g>
</svg>
