<?xml version="1.0" encoding="UTF-8" ?>
<!DOCTYPE svg PUBLIC "-//W3C//DTD SVG 1.1//EN" "http://www.w3.org/Graphics/SVG/1.1/DTD/svg11.dtd">
<svg width="64pt" height="64pt" viewBox="0 0 64 64" version="1.1" xmlns="http://www.w3.org/2000/svg">
<g id="#ffffffff">
<path fill="#ffffff" opacity="1.00" d=" M 0.00 0.00 L 64.00 0.00 L 64.00 64.00 L 0.00 64.00 L 0.00 0.00 M 42.05 9.86 C 35.21 11.49 27.96 11.58 21.51 14.62 C 15.27 17.25 10.21 22.76 8.74 29.44 C 6.70 38.45 9.50 47.61 12.56 56.04 C 24.23 56.38 33.33 47.53 39.95 38.92 C 41.92 35.76 45.79 34.86 48.38 32.36 C 54.26 27.13 56.27 18.79 55.90 11.19 C 55.76 9.25 53.79 7.94 51.96 8.02 C 48.58 8.16 45.34 9.18 42.05 9.86 Z" />
<path fill="#ffffff" opacity="1.00" d=" M 38.79 14.65 C 43.19 13.69 47.57 12.59 52.04 11.95 C 52.28 19.85 49.21 28.28 41.87 32.13 C 42.23 26.16 41.62 20.01 38.79 14.65 Z" />
<path fill="#ffffff" opacity="1.00" d=" M 14.17 26.05 C 18.17 18.82 26.89 16.48 34.49 15.32 C 38.22 21.45 38.88 29.23 37.05 36.06 C 31.73 43.32 24.63 50.38 15.37 51.89 C 12.63 43.72 10.03 34.21 14.17 26.05 Z" />
</g>
<g id="#000000ff">
<path fill="#000000" opacity="1.00" d=" M 42.05 9.86 C 45.34 9.18 48.58 8.16 51.96 8.02 C 53.79 7.94 55.76 9.25 55.90 11.19 C 56.27 18.79 54.26 27.13 48.38 32.36 C 45.79 34.86 41.92 35.76 39.95 38.92 C 33.33 47.53 24.23 56.38 12.56 56.04 C 9.50 47.61 6.70 38.45 8.74 29.44 C 10.21 22.76 15.27 17.25 21.51 14.62 C 27.96 11.58 35.21 11.49 42.05 9.86 M 38.79 14.65 C 41.62 20.01 42.23 26.16 41.87 32.13 C 49.21 28.28 52.28 19.85 52.04 11.95 C 47.57 12.59 43.19 13.69 38.79 14.65 M 14.17 26.05 C 10.03 34.21 12.63 43.72 15.37 51.89 C 24.63 50.38 31.73 43.32 37.05 36.06 C 38.88 29.23 38.22 21.45 34.49 15.32 C 26.89 16.48 18.17 18.82 14.17 26.05 Z" />
</g>
</svg>
