<?xml version="1.0" encoding="UTF-8" ?>
<!DOCTYPE svg PUBLIC "-//W3C//DTD SVG 1.1//EN" "http://www.w3.org/Graphics/SVG/1.1/DTD/svg11.dtd">
<svg width="64pt" height="64pt" viewBox="0 0 64 64" version="1.1" xmlns="http://www.w3.org/2000/svg">
<g id="#ffffffff">
<path fill="#ffffff" opacity="1.00" d=" M 0.00 0.00 L 64.00 0.00 L 64.00 64.00 L 0.00 64.00 L 0.00 0.00 M 4.00 18.00 C 4.00 27.33 4.00 36.66 4.00 46.00 C 22.67 46.00 41.33 46.00 60.00 46.00 C 60.00 36.67 60.00 27.33 60.00 18.00 C 41.33 18.00 22.67 18.00 4.00 18.00 Z" />
<path fill="#ffffff" opacity="1.00" d=" M 8.00 22.00 C 24.00 22.00 40.00 22.00 56.00 22.00 C 56.00 28.67 56.00 35.33 56.00 42.00 C 40.00 42.00 24.00 42.00 8.00 42.00 C 8.00 35.33 8.00 28.66 8.00 22.00 Z" />
</g>
<g id="#000000ff">
<path fill="#000000" opacity="1.00" d=" M 4.00 18.00 C 22.67 18.00 41.33 18.00 60.00 18.00 C 60.00 27.33 60.00 36.67 60.00 46.00 C 41.33 46.00 22.67 46.00 4.00 46.00 C 4.00 36.66 4.00 27.33 4.00 18.00 M 8.00 22.00 C 8.00 28.66 8.00 35.33 8.00 42.00 C 24.00 42.00 40.00 42.00 56.00 42.00 C 56.00 35.33 56.00 28.67 56.00 22.00 C 40.00 22.00 24.00 22.00 8.00 22.00 Z" />
</g>
</svg>
