<?xml version="1.0" encoding="UTF-8" ?>
<!DOCTYPE svg PUBLIC "-//W3C//DTD SVG 1.1//EN" "http://www.w3.org/Graphics/SVG/1.1/DTD/svg11.dtd">
<svg width="60pt" height="60pt" viewBox="0 0 60 60" version="1.1" xmlns="http://www.w3.org/2000/svg">
<g id="#ffffffff">
<path fill="#ffffff" opacity="1.00" d=" M 0.00 0.00 L 60.00 0.00 L 60.00 60.00 L 0.00 60.00 L 0.00 0.00 M 27.74 6.01 C 16.54 7.13 7.14 16.53 6.01 27.73 C 4.54 28.18 2.09 27.87 1.94 29.98 C 2.04 32.13 4.53 31.81 6.01 32.27 C 7.15 43.47 16.53 52.85 27.72 53.98 C 28.22 55.26 27.87 58.17 29.94 57.93 C 32.07 58.26 31.83 55.31 32.27 53.99 C 43.46 52.85 52.84 43.46 53.98 32.27 C 55.41 31.81 57.94 32.14 58.03 30.03 C 58.02 27.87 55.42 28.18 53.98 27.73 C 52.85 16.53 43.46 7.13 32.26 6.00 C 31.84 4.67 32.10 1.74 29.98 2.04 C 27.86 1.77 28.18 4.70 27.74 6.01 Z" />
<path fill="#ffffff" opacity="1.00" d=" M 9.92 27.58 C 11.33 18.61 18.64 11.36 27.59 9.92 C 28.16 11.36 27.89 13.93 30.01 14.05 C 32.12 13.90 31.83 11.36 32.42 9.92 C 36.47 10.93 40.57 12.37 43.59 15.38 C 47.17 18.53 49.02 23.05 50.08 27.59 C 48.76 28.16 45.78 27.91 46.07 30.05 C 45.89 32.11 48.79 31.82 50.08 32.42 C 49.04 36.69 47.41 40.98 44.15 44.07 C 41.04 47.37 36.72 49.04 32.41 50.08 C 31.84 48.76 32.12 45.82 30.00 46.04 C 27.88 45.76 28.17 48.77 27.59 50.08 C 18.64 48.65 11.35 41.38 9.92 32.41 C 11.31 31.84 14.05 32.10 14.00 29.96 C 13.97 27.85 11.29 28.18 9.92 27.58 M 22.15 24.71 C 23.58 26.70 25.48 28.28 27.21 30.00 C 25.49 31.70 23.61 33.28 22.20 35.25 C 21.38 36.87 23.14 38.58 24.74 37.79 C 26.73 36.39 28.30 34.51 30.00 32.81 C 31.70 34.52 33.28 36.39 35.26 37.80 C 36.89 38.58 38.60 36.86 37.79 35.24 C 36.38 33.27 34.52 31.70 32.82 30.00 C 34.54 28.28 36.41 26.69 37.84 24.72 C 38.60 23.11 36.84 21.36 35.24 22.20 C 33.27 23.61 31.70 25.49 30.00 27.19 C 28.28 25.47 26.68 23.58 24.69 22.15 C 23.07 21.47 21.42 23.09 22.15 24.71 Z" />
</g>
<g id="#000000ff">
<path fill="#000000" opacity="1.00" d=" M 27.74 6.01 C 28.18 4.70 27.86 1.77 29.98 2.04 C 32.10 1.74 31.84 4.67 32.26 6.00 C 43.46 7.13 52.85 16.53 53.98 27.73 C 55.42 28.18 58.02 27.87 58.03 30.03 C 57.94 32.14 55.41 31.81 53.98 32.27 C 52.84 43.46 43.46 52.85 32.27 53.99 C 31.83 55.31 32.07 58.26 29.94 57.93 C 27.87 58.17 28.22 55.26 27.72 53.98 C 16.53 52.85 7.15 43.47 6.01 32.27 C 4.53 31.81 2.04 32.13 1.94 29.98 C 2.09 27.87 4.54 28.18 6.01 27.73 C 7.14 16.53 16.54 7.13 27.74 6.01 M 9.92 27.58 C 11.29 28.18 13.97 27.85 14.00 29.96 C 14.05 32.10 11.31 31.84 9.92 32.41 C 11.35 41.38 18.64 48.65 27.59 50.08 C 28.17 48.77 27.88 45.76 30.00 46.04 C 32.12 45.82 31.84 48.76 32.41 50.08 C 36.72 49.04 41.04 47.37 44.15 44.07 C 47.41 40.98 49.04 36.69 50.08 32.42 C 48.79 31.82 45.89 32.11 46.07 30.05 C 45.78 27.91 48.76 28.16 50.08 27.59 C 49.02 23.05 47.17 18.53 43.59 15.38 C 40.57 12.37 36.47 10.93 32.42 9.92 C 31.83 11.36 32.12 13.90 30.01 14.05 C 27.89 13.93 28.16 11.36 27.59 9.92 C 18.64 11.36 11.33 18.61 9.92 27.58 Z" />
<path fill="#000000" opacity="1.00" d=" M 22.15 24.71 C 21.42 23.09 23.07 21.47 24.69 22.15 C 26.68 23.58 28.28 25.47 30.00 27.19 C 31.70 25.49 33.27 23.61 35.24 22.20 C 36.84 21.36 38.60 23.11 37.84 24.72 C 36.41 26.69 34.54 28.28 32.82 30.00 C 34.52 31.70 36.38 33.27 37.79 35.24 C 38.60 36.86 36.89 38.58 35.26 37.80 C 33.28 36.39 31.70 34.52 30.00 32.81 C 28.30 34.51 26.73 36.39 24.74 37.79 C 23.14 38.58 21.38 36.87 22.20 35.25 C 23.61 33.28 25.49 31.70 27.21 30.00 C 25.48 28.28 23.58 26.70 22.15 24.71 Z" />
</g>
</svg>
