<?xml version="1.0" encoding="UTF-8" ?>
<!DOCTYPE svg PUBLIC "-//W3C//DTD SVG 1.1//EN" "http://www.w3.org/Graphics/SVG/1.1/DTD/svg11.dtd">
<svg width="60pt" height="60pt" viewBox="0 0 60 60" version="1.1" xmlns="http://www.w3.org/2000/svg">
<g id="#ffffffff">
<path fill="#ffffff" opacity="1.00" d=" M 0.00 0.00 L 60.00 0.00 L 60.00 60.00 L 0.00 60.00 L 0.00 0.00 M 8.31 12.40 C 6.59 13.16 5.85 15.10 6.00 16.88 C 6.03 25.95 5.92 35.02 6.06 44.09 C 5.94 46.65 8.59 48.30 10.93 48.00 C 23.63 48.00 36.33 48.00 49.03 48.00 C 51.42 48.34 54.07 46.65 53.94 44.05 C 54.08 35.01 53.97 25.97 54.00 16.93 C 54.30 14.61 52.67 11.96 50.13 12.06 C 37.75 11.89 25.35 12.08 12.97 11.97 C 11.42 12.05 9.78 11.81 8.31 12.40 Z" />
<path fill="#ffffff" opacity="1.00" d=" M 21.90 27.82 C 21.36 23.00 24.83 17.85 29.99 18.01 C 35.08 17.85 38.50 22.86 38.16 27.61 C 41.55 30.21 39.63 35.24 39.80 38.91 C 37.27 41.15 33.21 39.53 30.07 40.00 C 26.89 39.49 22.71 41.20 20.19 38.88 C 19.74 35.58 20.07 32.25 20.08 28.94 C 20.54 28.66 21.45 28.10 21.90 27.82 M 25.85 28.00 C 28.62 28.00 31.39 28.00 34.16 28.00 C 34.27 25.40 33.23 21.92 30.04 22.00 C 26.83 21.88 25.69 25.36 25.85 28.00 Z" />
</g>
<g id="#000000ff">
<path fill="#000000" opacity="1.00" d=" M 8.31 12.40 C 9.78 11.81 11.42 12.05 12.97 11.97 C 25.35 12.08 37.75 11.89 50.13 12.06 C 52.67 11.96 54.30 14.61 54.00 16.93 C 53.97 25.97 54.08 35.01 53.94 44.05 C 54.07 46.65 51.42 48.34 49.03 48.00 C 36.33 48.00 23.63 48.00 10.93 48.00 C 8.59 48.30 5.94 46.65 6.06 44.09 C 5.92 35.02 6.03 25.95 6.00 16.88 C 5.85 15.10 6.59 13.16 8.31 12.40 M 21.90 27.82 C 21.45 28.10 20.54 28.66 20.08 28.94 C 20.07 32.25 19.74 35.58 20.19 38.88 C 22.71 41.20 26.89 39.49 30.07 40.00 C 33.21 39.53 37.27 41.15 39.80 38.91 C 39.63 35.24 41.55 30.21 38.16 27.61 C 38.50 22.86 35.08 17.85 29.99 18.01 C 24.83 17.85 21.36 23.00 21.90 27.82 Z" />
<path fill="#000000" opacity="1.00" d=" M 25.85 28.00 C 25.69 25.36 26.83 21.88 30.04 22.00 C 33.23 21.92 34.27 25.40 34.16 28.00 C 31.39 28.00 28.62 28.00 25.85 28.00 Z" />
</g>
</svg>
