<?xml version="1.0" encoding="UTF-8" ?>
<!DOCTYPE svg PUBLIC "-//W3C//DTD SVG 1.1//EN" "http://www.w3.org/Graphics/SVG/1.1/DTD/svg11.dtd">
<svg width="60pt" height="60pt" viewBox="0 0 60 60" version="1.1" xmlns="http://www.w3.org/2000/svg">
<g id="#ffffffff">
<path fill="#ffffff" opacity="1.00" d=" M 0.00 0.00 L 60.00 0.00 L 60.00 57.12 C 56.08 50.67 52.10 44.25 48.00 37.92 C 47.25 36.24 44.72 36.24 43.99 37.93 C 40.06 44.06 36.17 50.24 32.40 56.46 C 31.45 57.71 32.51 59.12 33.40 60.00 L 0.00 60.00 L 0.00 0.00 M 20.63 7.67 C 16.45 11.15 15.65 16.86 15.98 21.98 C 13.15 21.91 9.01 21.49 8.12 25.05 C 7.86 33.40 8.02 41.77 8.04 50.13 C 7.96 52.21 9.93 54.00 11.96 53.96 C 17.69 54.08 23.43 53.96 29.16 54.00 C 32.73 48.29 36.30 42.59 39.86 36.88 C 41.08 34.61 43.24 32.56 46.00 32.69 C 48.65 32.56 50.65 34.51 52.04 36.52 C 51.88 32.69 52.20 28.85 51.87 25.02 C 51.00 21.45 46.84 21.93 44.02 21.98 C 44.13 17.79 43.99 13.23 41.25 9.81 C 36.67 3.37 26.36 2.05 20.63 7.67 Z" />
<path fill="#ffffff" opacity="1.00" d=" M 22.48 11.42 C 26.17 6.95 33.77 6.92 37.48 11.39 C 40.21 14.21 40.07 18.35 40.02 22.00 C 33.34 22.00 26.66 22.00 19.98 22.00 C 19.92 18.36 19.78 14.25 22.48 11.42 Z" />
<path fill="#ffffff" opacity="1.00" d=" M 44.00 44.00 C 45.33 44.00 46.67 44.00 48.00 44.00 C 47.89 46.67 47.78 49.33 47.67 52.00 C 46.56 52.00 45.44 52.00 44.33 52.00 C 44.22 49.33 44.11 46.67 44.00 44.00 Z" />
<path fill="#ffffff" opacity="1.00" d=" M 44.51 53.65 C 46.03 52.40 48.76 53.72 47.88 55.81 C 46.58 58.22 42.44 55.91 44.51 53.65 Z" />
</g>
<g id="#000000ff">
<path fill="#968176" opacity="1.00" d=" M 20.63 7.67 C 26.36 2.05 36.67 3.37 41.25 9.81 C 43.99 13.23 44.13 17.79 44.02 21.98 C 46.84 21.93 51.00 21.45 51.87 25.02 C 52.20 28.85 51.88 32.69 52.04 36.52 C 50.65 34.51 48.65 32.56 46.00 32.69 C 43.24 32.56 41.08 34.61 39.86 36.88 C 36.30 42.59 32.73 48.29 29.16 54.00 C 23.43 53.96 17.69 54.08 11.96 53.96 C 9.93 54.00 7.96 52.21 8.04 50.13 C 8.02 41.77 7.86 33.40 8.12 25.05 C 9.01 21.49 13.15 21.91 15.98 21.98 C 15.65 16.86 16.45 11.15 20.63 7.67 M 22.48 11.42 C 19.78 14.25 19.92 18.36 19.98 22.00 C 26.66 22.00 33.34 22.00 40.02 22.00 C 40.07 18.35 40.21 14.21 37.48 11.39 C 33.77 6.92 26.17 6.95 22.48 11.42 Z" />
<path fill="#968176" opacity="1.00" d=" M 43.99 37.93 C 44.72 36.24 47.25 36.24 48.00 37.92 C 52.10 44.25 56.08 50.67 60.00 57.12 L 60.00 60.00 L 33.40 60.00 C 32.51 59.12 31.45 57.71 32.40 56.46 C 36.17 50.24 40.06 44.06 43.99 37.93 M 44.00 44.00 C 44.11 46.67 44.22 49.33 44.33 52.00 C 45.44 52.00 46.56 52.00 47.67 52.00 C 47.78 49.33 47.89 46.67 48.00 44.00 C 46.67 44.00 45.33 44.00 44.00 44.00 M 44.51 53.65 C 42.44 55.91 46.58 58.22 47.88 55.81 C 48.76 53.72 46.03 52.40 44.51 53.65 Z" />
</g>
</svg>
