<?xml version="1.0" encoding="UTF-8" ?>
<!DOCTYPE svg PUBLIC "-//W3C//DTD SVG 1.1//EN" "http://www.w3.org/Graphics/SVG/1.1/DTD/svg11.dtd">
<svg width="60pt" height="60pt" viewBox="0 0 60 60" version="1.1" xmlns="http://www.w3.org/2000/svg">
<g id="#ffffffff">
<path fill="#ffffff" opacity="1.00" d=" M 0.00 0.00 L 60.00 0.00 L 60.00 60.00 L 0.00 60.00 L 0.00 0.00 M 14.32 6.40 C 12.60 7.16 11.82 9.11 12.00 10.91 C 12.03 23.97 11.93 37.03 12.05 50.09 C 11.93 52.63 14.59 54.33 16.93 54.00 C 25.99 53.97 35.06 54.08 44.13 53.95 C 46.19 54.00 48.04 52.10 47.95 50.04 C 48.07 37.02 47.97 23.99 48.00 10.97 C 48.33 8.63 46.65 5.93 44.10 6.05 C 35.76 5.90 27.42 6.08 19.09 5.98 C 17.51 6.08 15.81 5.76 14.32 6.40 Z" />
<path fill="#ffffff" opacity="1.00" d=" M 21.88 27.68 C 21.41 22.91 24.89 17.87 29.98 18.01 C 35.08 17.84 38.58 22.90 38.12 27.68 C 38.54 28.04 39.38 28.77 39.80 29.13 C 40.16 32.37 40.14 35.65 39.82 38.89 C 39.58 39.12 39.10 39.59 38.86 39.82 C 33.92 40.25 28.95 39.88 23.99 40.02 C 22.67 39.87 20.90 40.34 20.17 38.87 C 19.87 35.62 19.82 32.32 20.22 29.08 C 20.63 28.73 21.47 28.03 21.88 27.68 M 25.90 28.00 C 28.63 28.00 31.37 28.00 34.10 28.00 C 34.36 25.38 33.19 21.92 30.03 22.00 C 26.87 21.91 25.61 25.34 25.90 28.00 Z" />
</g>
<g id="#000000ff">
<path fill="#000000" opacity="1.00" d=" M 14.32 6.40 C 15.81 5.76 17.51 6.08 19.09 5.98 C 27.42 6.08 35.76 5.90 44.10 6.05 C 46.65 5.93 48.33 8.63 48.00 10.97 C 47.97 23.99 48.07 37.02 47.95 50.04 C 48.04 52.10 46.19 54.00 44.13 53.95 C 35.06 54.08 25.99 53.97 16.93 54.00 C 14.59 54.33 11.93 52.63 12.05 50.09 C 11.93 37.03 12.03 23.97 12.00 10.91 C 11.82 9.11 12.60 7.16 14.32 6.40 M 21.88 27.68 C 21.47 28.03 20.63 28.73 20.22 29.08 C 19.82 32.32 19.87 35.62 20.17 38.87 C 20.90 40.34 22.67 39.87 23.99 40.02 C 28.95 39.88 33.92 40.25 38.86 39.82 C 39.10 39.59 39.58 39.12 39.82 38.89 C 40.14 35.65 40.16 32.37 39.80 29.13 C 39.38 28.77 38.54 28.04 38.12 27.68 C 38.58 22.90 35.08 17.84 29.98 18.01 C 24.89 17.87 21.41 22.91 21.88 27.68 Z" />
<path fill="#000000" opacity="1.00" d=" M 25.90 28.00 C 25.61 25.34 26.87 21.91 30.03 22.00 C 33.19 21.92 34.36 25.38 34.10 28.00 C 31.37 28.00 28.63 28.00 25.90 28.00 Z" />
</g>
</svg>
