<?xml version="1.0" encoding="UTF-8" ?>
<!DOCTYPE svg PUBLIC "-//W3C//DTD SVG 1.1//EN" "http://www.w3.org/Graphics/SVG/1.1/DTD/svg11.dtd">
<svg width="60pt" height="60pt" viewBox="0 0 60 60" version="1.1" xmlns="http://www.w3.org/2000/svg">
<g id="#ffffffff">
<path fill="#ffffff" opacity="1.00" d=" M 0.00 0.00 L 60.00 0.00 L 60.00 60.00 L 0.00 60.00 L 0.00 0.00 M 20.64 7.66 C 16.46 11.14 15.66 16.85 15.97 21.97 C 13.18 21.93 9.02 21.48 8.15 25.01 C 7.83 33.35 8.03 41.71 8.05 50.06 C 7.91 52.61 10.55 54.31 12.89 54.00 C 24.62 53.97 36.36 54.07 48.09 53.95 C 50.57 54.00 52.32 51.47 52.00 49.14 C 51.91 41.10 52.20 33.03 51.85 25.00 C 50.99 21.44 46.82 21.96 44.03 21.97 C 44.07 18.02 44.07 13.75 41.66 10.40 C 37.31 3.50 26.57 1.87 20.64 7.66 Z" />
<path fill="#ffffff" opacity="1.00" d=" M 22.45 11.46 C 26.14 6.93 33.83 6.91 37.53 11.45 C 40.22 14.27 40.05 18.38 40.04 22.00 C 33.35 22.00 26.66 22.00 19.97 22.00 C 19.95 18.38 19.77 14.29 22.45 11.46 Z" />
</g>
<g id="#000000ff">
<path fill="#000000" opacity="1.00" d=" M 20.64 7.66 C 26.57 1.87 37.31 3.50 41.66 10.40 C 44.07 13.75 44.07 18.02 44.03 21.97 C 46.82 21.96 50.99 21.44 51.85 25.00 C 52.20 33.03 51.91 41.10 52.00 49.14 C 52.32 51.47 50.57 54.00 48.09 53.95 C 36.36 54.07 24.62 53.97 12.89 54.00 C 10.55 54.31 7.91 52.61 8.05 50.06 C 8.03 41.71 7.83 33.35 8.15 25.01 C 9.02 21.48 13.18 21.93 15.97 21.97 C 15.66 16.85 16.46 11.14 20.64 7.66 M 22.45 11.46 C 19.77 14.29 19.95 18.38 19.97 22.00 C 26.66 22.00 33.35 22.00 40.04 22.00 C 40.05 18.38 40.22 14.27 37.53 11.45 C 33.83 6.91 26.14 6.93 22.45 11.46 Z" />
</g>
</svg>
