<?xml version="1.0" encoding="UTF-8" ?>
<!DOCTYPE svg PUBLIC "-//W3C//DTD SVG 1.1//EN" "http://www.w3.org/Graphics/SVG/1.1/DTD/svg11.dtd">
<svg width="60pt" height="60pt" viewBox="0 0 60 60" version="1.1" xmlns="http://www.w3.org/2000/svg">
<g id="#ffffffff">
<path fill="#ffffff" opacity="1.00" d=" M 0.00 0.00 L 60.00 0.00 L 60.00 28.20 C 57.99 28.14 55.98 28.00 53.96 27.94 C 53.20 21.19 49.78 14.72 44.23 10.71 C 36.49 4.81 25.10 4.46 17.00 9.84 C 9.31 14.70 4.90 24.17 6.23 33.18 C 7.33 42.26 14.15 50.28 22.91 52.91 C 30.71 55.36 40.01 53.57 45.90 47.78 C 47.46 46.35 44.80 43.59 43.27 45.15 C 40.46 47.04 37.55 48.97 34.14 49.56 C 25.99 51.41 17.00 47.47 12.82 40.25 C 8.30 32.89 9.34 22.64 15.34 16.40 C 21.10 9.95 31.23 8.14 38.91 12.09 C 45.05 15.03 49.09 21.28 50.01 27.94 C 48.00 27.99 45.98 28.02 43.97 28.07 C 46.74 31.99 49.33 36.02 52.00 39.99 C 54.71 36.20 56.90 32.04 60.00 28.54 L 60.00 60.00 L 0.00 60.00 L 0.00 0.00 M 24.38 18.33 C 21.73 20.72 21.95 24.50 21.96 27.75 C 21.52 28.06 20.63 28.69 20.18 29.01 C 19.88 32.93 19.88 36.92 20.16 40.85 C 22.61 43.25 26.85 41.45 30.01 42.00 C 33.17 41.46 37.37 43.24 39.84 40.85 C 40.10 36.96 40.15 33.01 39.82 29.13 C 39.60 28.89 39.16 28.42 38.94 28.18 C 34.64 27.75 30.30 28.12 25.99 28.00 C 26.00 26.31 25.91 24.60 26.14 22.92 C 26.65 20.90 28.94 19.50 30.96 20.15 C 33.04 20.47 33.43 22.94 35.02 23.95 C 36.89 24.60 38.31 22.26 37.28 20.77 C 35.30 15.75 28.05 14.40 24.38 18.33 Z" />
</g>
<g id="#000000ff">
<path fill="#000000" opacity="1.00" d=" M 17.00 9.84 C 25.10 4.46 36.49 4.81 44.23 10.71 C 49.78 14.72 53.20 21.19 53.96 27.94 C 55.98 28.00 57.99 28.14 60.00 28.20 L 60.00 28.54 C 56.90 32.04 54.71 36.20 52.00 39.99 C 49.33 36.02 46.74 31.99 43.97 28.07 C 45.98 28.02 48.00 27.99 50.01 27.94 C 49.09 21.28 45.05 15.03 38.91 12.09 C 31.23 8.14 21.10 9.95 15.34 16.40 C 9.34 22.64 8.30 32.89 12.82 40.25 C 17.00 47.47 25.99 51.41 34.14 49.56 C 37.55 48.97 40.46 47.04 43.27 45.15 C 44.80 43.59 47.46 46.35 45.90 47.78 C 40.01 53.57 30.71 55.36 22.91 52.91 C 14.15 50.28 7.33 42.26 6.23 33.18 C 4.90 24.17 9.31 14.70 17.00 9.84 Z" />
<path fill="#000000" opacity="1.00" d=" M 24.38 18.33 C 28.05 14.40 35.30 15.75 37.28 20.77 C 38.31 22.26 36.89 24.60 35.02 23.95 C 33.43 22.94 33.04 20.47 30.96 20.15 C 28.94 19.50 26.65 20.90 26.14 22.92 C 25.91 24.60 26.00 26.31 25.99 28.00 C 30.30 28.12 34.64 27.75 38.94 28.18 C 39.16 28.42 39.60 28.89 39.82 29.13 C 40.15 33.01 40.10 36.96 39.84 40.85 C 37.37 43.24 33.17 41.46 30.01 42.00 C 26.85 41.45 22.61 43.25 20.16 40.85 C 19.88 36.92 19.88 32.93 20.18 29.01 C 20.63 28.69 21.52 28.06 21.96 27.75 C 21.95 24.50 21.73 20.72 24.38 18.33 Z" />
</g>
</svg>
