<?xml version="1.0" encoding="UTF-8" ?>
<!DOCTYPE svg PUBLIC "-//W3C//DTD SVG 1.1//EN" "http://www.w3.org/Graphics/SVG/1.1/DTD/svg11.dtd">
<svg width="60pt" height="60pt" viewBox="0 0 60 60" version="1.1" xmlns="http://www.w3.org/2000/svg">
<g id="#ffffffff">
<path fill="#ffffff" opacity="1.00" d=" M 0.00 0.00 L 60.00 0.00 L 60.00 60.00 L 0.00 60.00 L 0.00 0.00 M 21.09 8.02 C 17.32 11.89 18.02 17.60 17.98 22.54 C 13.79 26.49 11.35 32.31 12.13 38.09 C 12.92 46.18 19.87 53.09 27.96 53.87 C 36.03 54.95 44.33 49.74 46.94 42.04 C 49.48 35.29 47.28 27.37 42.02 22.54 C 41.92 17.87 42.71 12.54 39.41 8.70 C 35.13 3.03 25.71 2.45 21.09 8.02 Z" />
<path fill="#ffffff" opacity="1.00" d=" M 23.85 10.88 C 26.81 7.08 33.22 7.10 36.17 10.91 C 38.34 13.35 37.98 16.80 38.05 19.82 C 32.97 17.47 27.03 17.46 21.95 19.82 C 22.03 16.79 21.65 13.32 23.85 10.88 Z" />
<path fill="#ffffff" opacity="1.00" d=" M 26.75 33.73 C 28.33 31.17 32.56 31.57 33.63 34.39 C 34.68 36.27 33.39 38.24 32.12 39.60 C 31.92 41.13 32.34 44.04 30.04 43.93 C 27.69 44.14 28.05 41.16 27.89 39.60 C 26.34 38.13 25.17 35.62 26.75 33.73 Z" />
</g>
<g id="#000000ff">
<path fill="#000000" opacity="1.00" d=" M 21.09 8.02 C 25.71 2.45 35.13 3.03 39.41 8.70 C 42.71 12.54 41.92 17.87 42.02 22.54 C 47.28 27.37 49.48 35.29 46.94 42.04 C 44.33 49.74 36.03 54.95 27.96 53.87 C 19.87 53.09 12.92 46.18 12.13 38.09 C 11.35 32.31 13.79 26.49 17.98 22.54 C 18.02 17.60 17.32 11.89 21.09 8.02 M 23.85 10.88 C 21.65 13.32 22.03 16.79 21.95 19.82 C 27.03 17.46 32.97 17.47 38.05 19.82 C 37.98 16.80 38.34 13.35 36.17 10.91 C 33.22 7.10 26.81 7.08 23.85 10.88 M 26.75 33.73 C 25.17 35.62 26.34 38.13 27.89 39.60 C 28.05 41.16 27.69 44.14 30.04 43.93 C 32.34 44.04 31.92 41.13 32.12 39.60 C 33.39 38.24 34.68 36.27 33.63 34.39 C 32.56 31.57 28.33 31.17 26.75 33.73 Z" />
</g>
</svg>
