<?xml version="1.0" encoding="UTF-8" ?>
<!DOCTYPE svg PUBLIC "-//W3C//DTD SVG 1.1//EN" "http://www.w3.org/Graphics/SVG/1.1/DTD/svg11.dtd">
<svg width="60pt" height="60pt" viewBox="0 0 60 60" version="1.1" xmlns="http://www.w3.org/2000/svg">
<g id="#ffffffff">
<path fill="#ffffff" opacity="1.00" d=" M 0.00 0.00 L 60.00 0.00 L 60.00 60.00 L 0.00 60.00 L 0.00 0.00 M 6.34 17.87 C 4.81 18.14 1.89 17.66 2.06 20.01 C 1.85 22.17 4.55 21.88 5.95 22.15 C 6.65 25.55 8.43 28.86 11.60 30.54 C 16.59 33.57 23.71 31.58 26.49 26.46 C 27.94 24.27 27.77 21.57 28.24 19.09 C 29.46 16.72 32.71 18.65 32.02 20.98 C 31.85 27.63 38.59 33.28 45.11 31.76 C 49.84 30.95 53.27 26.75 54.05 22.15 C 55.45 21.88 58.12 22.17 57.94 20.02 C 58.09 17.66 55.20 18.14 53.65 17.87 C 52.13 13.81 48.54 10.39 44.07 10.07 C 39.91 9.50 36.06 11.85 33.60 15.04 C 31.29 13.79 28.71 13.78 26.40 15.04 C 23.92 11.86 20.06 9.48 15.88 10.08 C 11.43 10.40 7.86 13.83 6.34 17.87 M 22.34 37.34 C 19.59 39.95 17.61 44.84 12.99 43.92 C 9.69 43.93 8.03 40.83 7.47 38.00 C 6.74 40.20 5.40 42.52 6.33 44.89 C 7.46 48.02 10.96 49.23 13.96 49.70 C 19.39 50.34 25.33 50.05 30.00 46.89 C 36.15 50.70 44.56 51.13 51.07 48.00 C 54.83 45.97 54.27 41.20 52.51 37.99 C 51.96 40.83 50.28 43.94 46.98 43.92 C 42.36 44.83 40.40 39.90 37.62 37.32 C 35.50 35.33 32.34 35.93 30.00 37.16 C 27.64 35.93 24.47 35.33 22.34 37.34 Z" />
<path fill="#ffffff" opacity="1.00" d=" M 14.32 14.54 C 19.06 12.31 24.90 16.87 23.92 21.99 C 23.43 27.21 16.45 29.90 12.56 26.41 C 8.51 23.37 9.55 16.26 14.32 14.54 Z" />
<path fill="#ffffff" opacity="1.00" d=" M 40.41 14.50 C 45.14 12.37 50.89 16.91 49.92 21.99 C 49.43 27.20 42.49 29.89 38.59 26.43 C 34.47 23.38 35.56 16.17 40.41 14.50 Z" />
</g>
<g id="#000000ff">
<path fill="#968176" opacity="1.00" d=" M 6.34 17.87 C 7.86 13.83 11.43 10.40 15.88 10.08 C 20.06 9.48 23.92 11.86 26.40 15.04 C 28.71 13.78 31.29 13.79 33.60 15.04 C 36.06 11.85 39.91 9.50 44.07 10.07 C 48.54 10.39 52.13 13.81 53.65 17.87 C 55.20 18.14 58.09 17.66 57.94 20.02 C 58.12 22.17 55.45 21.88 54.05 22.15 C 53.27 26.75 49.84 30.95 45.11 31.76 C 38.59 33.28 31.85 27.63 32.02 20.98 C 32.71 18.65 29.46 16.72 28.24 19.09 C 27.77 21.57 27.94 24.27 26.49 26.46 C 23.71 31.58 16.59 33.57 11.60 30.54 C 8.43 28.86 6.65 25.55 5.95 22.15 C 4.55 21.88 1.85 22.17 2.06 20.01 C 1.89 17.66 4.81 18.14 6.34 17.87 M 14.32 14.54 C 9.55 16.26 8.51 23.37 12.56 26.41 C 16.45 29.90 23.43 27.21 23.92 21.99 C 24.90 16.87 19.06 12.31 14.32 14.54 M 40.41 14.50 C 35.56 16.17 34.47 23.38 38.59 26.43 C 42.49 29.89 49.43 27.20 49.92 21.99 C 50.89 16.91 45.14 12.37 40.41 14.50 Z" />
<path fill="#968176" opacity="1.00" d=" M 22.34 37.34 C 24.47 35.33 27.64 35.93 30.00 37.16 C 32.34 35.93 35.50 35.33 37.62 37.32 C 40.40 39.90 42.36 44.83 46.98 43.92 C 50.28 43.94 51.96 40.83 52.51 37.99 C 54.27 41.20 54.83 45.97 51.07 48.00 C 44.56 51.13 36.15 50.70 30.00 46.89 C 25.33 50.05 19.39 50.34 13.96 49.70 C 10.96 49.23 7.46 48.02 6.33 44.89 C 5.40 42.52 6.74 40.20 7.47 38.00 C 8.03 40.83 9.69 43.93 12.99 43.92 C 17.61 44.84 19.59 39.95 22.34 37.34 Z" />
</g>
</svg>
