<?xml version="1.0" encoding="UTF-8" ?>
<!DOCTYPE svg PUBLIC "-//W3C//DTD SVG 1.1//EN" "http://www.w3.org/Graphics/SVG/1.1/DTD/svg11.dtd">
<svg width="64pt" height="64pt" viewBox="0 0 64 64" version="1.1" xmlns="http://www.w3.org/2000/svg">
<g id="#ffffffff">
<path fill="#ffffff" opacity="1.00" d=" M 0.00 0.00 L 64.00 0.00 L 64.00 64.00 L 0.00 64.00 L 0.00 0.00 M 6.06 21.99 C 4.70 21.99 3.35 22.00 2.00 22.00 C 2.00 23.33 2.00 24.67 2.00 26.00 C 3.35 26.00 4.70 26.00 6.06 26.01 C 7.02 29.28 8.73 32.52 11.81 34.24 C 16.97 37.55 24.46 35.90 27.82 30.80 C 29.54 28.61 29.64 25.75 30.32 23.16 C 30.62 21.59 33.37 21.62 33.68 23.16 C 34.35 25.74 34.45 28.59 36.15 30.77 C 39.52 35.91 47.05 37.56 52.22 34.21 C 55.28 32.49 56.97 29.26 57.94 26.01 C 59.30 26.00 60.65 26.00 62.00 26.00 C 62.00 24.67 62.00 23.33 62.00 22.00 C 60.65 22.00 59.29 21.99 57.94 21.99 C 56.79 17.22 53.10 12.96 48.09 12.21 C 42.87 11.11 37.69 14.14 35.11 18.61 C 33.05 18.02 30.94 18.02 28.89 18.61 C 26.32 14.12 21.10 11.11 15.88 12.22 C 10.89 12.97 7.20 17.24 6.06 21.99 M 27.30 42.23 C 24.19 43.08 22.49 46.09 19.97 47.87 C 17.94 48.66 16.83 46.55 15.58 45.40 C 14.36 45.86 13.15 46.33 11.94 46.80 C 13.53 49.31 15.70 52.10 19.02 51.98 C 23.49 52.15 25.28 47.22 28.98 45.66 C 29.61 46.51 30.24 47.36 30.86 48.22 C 32.69 48.17 34.19 47.26 35.16 45.74 C 38.80 47.35 40.62 52.24 45.10 51.98 C 48.36 52.03 50.47 49.28 52.05 46.80 C 50.85 46.33 49.64 45.86 48.43 45.39 C 47.23 47.05 44.90 49.28 43.07 47.07 C 40.26 44.08 36.35 40.34 32.00 42.87 C 30.49 42.42 28.90 41.63 27.30 42.23 Z" />
<path fill="#ffffff" opacity="1.00" d=" M 15.32 16.47 C 20.99 14.14 27.50 20.02 25.75 25.90 C 24.66 31.49 17.07 33.94 12.87 30.13 C 8.16 26.53 9.62 18.18 15.32 16.47 Z" />
<path fill="#ffffff" opacity="1.00" d=" M 43.29 16.48 C 48.98 14.12 55.53 20.03 53.74 25.93 C 52.63 31.49 45.10 33.92 40.90 30.16 C 36.17 26.59 37.60 18.21 43.29 16.48 Z" />
</g>
<g id="#000000ff">
<path fill="#000000" opacity="1.00" d=" M 6.06 21.99 C 7.20 17.24 10.89 12.97 15.88 12.22 C 21.10 11.11 26.32 14.12 28.89 18.61 C 30.94 18.02 33.05 18.02 35.11 18.61 C 37.69 14.14 42.87 11.11 48.09 12.21 C 53.10 12.96 56.79 17.22 57.94 21.99 C 59.29 21.99 60.65 22.00 62.00 22.00 C 62.00 23.33 62.00 24.67 62.00 26.00 C 60.65 26.00 59.30 26.00 57.94 26.01 C 56.97 29.26 55.28 32.49 52.22 34.21 C 47.05 37.56 39.52 35.91 36.15 30.77 C 34.45 28.59 34.35 25.74 33.68 23.16 C 33.37 21.62 30.62 21.59 30.32 23.16 C 29.64 25.75 29.54 28.61 27.82 30.80 C 24.46 35.90 16.97 37.55 11.81 34.24 C 8.73 32.52 7.02 29.28 6.06 26.01 C 4.70 26.00 3.35 26.00 2.00 26.00 C 2.00 24.67 2.00 23.33 2.00 22.00 C 3.35 22.00 4.70 21.99 6.06 21.99 M 15.32 16.47 C 9.62 18.18 8.16 26.53 12.87 30.13 C 17.07 33.94 24.66 31.49 25.75 25.90 C 27.50 20.02 20.99 14.14 15.32 16.47 M 43.29 16.48 C 37.60 18.21 36.17 26.59 40.90 30.16 C 45.10 33.92 52.63 31.49 53.74 25.93 C 55.53 20.03 48.98 14.12 43.29 16.48 Z" />
<path fill="#000000" opacity="1.00" d=" M 27.30 42.23 C 28.90 41.63 30.49 42.42 32.00 42.87 C 36.35 40.34 40.26 44.08 43.07 47.07 C 44.90 49.28 47.23 47.05 48.43 45.39 C 49.64 45.86 50.85 46.33 52.05 46.80 C 50.47 49.28 48.36 52.03 45.10 51.98 C 40.62 52.24 38.80 47.35 35.16 45.74 C 34.19 47.26 32.69 48.17 30.86 48.22 C 30.24 47.36 29.61 46.51 28.98 45.66 C 25.28 47.22 23.49 52.15 19.02 51.98 C 15.70 52.10 13.53 49.31 11.94 46.80 C 13.15 46.33 14.36 45.86 15.58 45.40 C 16.83 46.55 17.94 48.66 19.97 47.87 C 22.49 46.09 24.19 43.08 27.30 42.23 Z" />
</g>
</svg>
