<?xml version="1.0" encoding="UTF-8" ?>
<!DOCTYPE svg PUBLIC "-//W3C//DTD SVG 1.1//EN" "http://www.w3.org/Graphics/SVG/1.1/DTD/svg11.dtd">
<svg width="60pt" height="60pt" viewBox="0 0 60 60" version="1.1" xmlns="http://www.w3.org/2000/svg">
<g id="#ffffffff">
<path fill="#ffffff" opacity="1.00" d=" M 0.00 0.00 L 60.00 0.00 L 60.00 60.00 L 0.00 60.00 L 0.00 0.00 M 24.42 6.67 C 16.84 8.44 10.33 14.14 7.60 21.43 C 4.57 29.15 5.97 38.39 11.17 44.84 C 16.44 51.63 25.53 55.18 34.01 53.64 C 43.04 52.21 50.81 45.12 53.14 36.29 C 55.43 28.18 52.98 18.99 46.98 13.08 C 41.26 7.18 32.38 4.71 24.42 6.67 Z" />
<path fill="#ffffff" opacity="1.00" d=" M 27.21 10.19 C 37.27 8.54 47.67 15.83 49.56 25.84 C 51.27 33.50 47.96 41.95 41.47 46.38 C 34.44 51.46 24.11 51.11 17.44 45.57 C 11.14 40.62 8.43 31.68 10.91 24.06 C 13.05 16.79 19.70 11.16 27.21 10.19 M 17.12 26.20 C 15.61 26.87 15.65 29.17 17.17 29.81 C 19.70 30.15 22.30 30.16 24.83 29.80 C 26.39 29.21 26.36 26.79 24.83 26.20 C 22.28 25.83 19.67 25.85 17.12 26.20 M 35.20 26.19 C 33.60 26.79 33.62 29.16 35.17 29.80 C 37.70 30.16 40.32 30.16 42.85 29.79 C 44.40 29.15 44.37 26.79 42.80 26.19 C 40.29 25.85 37.71 25.84 35.20 26.19 M 19.78 36.04 C 20.26 41.26 24.46 46.14 29.97 45.97 C 35.50 46.16 39.73 41.28 40.22 36.04 C 33.41 35.97 26.59 35.98 19.78 36.04 Z" />
</g>
<g id="#000000ff">
<path fill="#000000" opacity="1.00" d=" M 24.42 6.67 C 32.38 4.71 41.26 7.18 46.98 13.08 C 52.98 18.99 55.43 28.18 53.14 36.29 C 50.81 45.12 43.04 52.21 34.01 53.64 C 25.53 55.18 16.44 51.63 11.17 44.84 C 5.97 38.39 4.57 29.15 7.60 21.43 C 10.33 14.14 16.84 8.44 24.42 6.67 M 27.21 10.19 C 19.70 11.16 13.05 16.79 10.91 24.06 C 8.43 31.68 11.14 40.62 17.44 45.57 C 24.11 51.11 34.44 51.46 41.47 46.38 C 47.96 41.95 51.27 33.50 49.56 25.84 C 47.67 15.83 37.27 8.54 27.21 10.19 Z" />
<path fill="#000000" opacity="1.00" d=" M 17.12 26.20 C 19.67 25.85 22.28 25.83 24.83 26.20 C 26.36 26.79 26.39 29.21 24.83 29.80 C 22.30 30.16 19.70 30.15 17.17 29.81 C 15.65 29.17 15.61 26.87 17.12 26.20 Z" />
<path fill="#000000" opacity="1.00" d=" M 35.20 26.19 C 37.71 25.84 40.29 25.85 42.80 26.19 C 44.37 26.79 44.40 29.15 42.85 29.79 C 40.32 30.16 37.70 30.16 35.17 29.80 C 33.62 29.16 33.60 26.79 35.20 26.19 Z" />
<path fill="#000000" opacity="1.00" d=" M 19.78 36.04 C 26.59 35.98 33.41 35.97 40.22 36.04 C 39.73 41.28 35.50 46.16 29.97 45.97 C 24.46 46.14 20.26 41.26 19.78 36.04 Z" />
</g>
</svg>
