<?xml version="1.0" encoding="UTF-8" ?>
<!DOCTYPE svg PUBLIC "-//W3C//DTD SVG 1.1//EN" "http://www.w3.org/Graphics/SVG/1.1/DTD/svg11.dtd">
<svg width="64pt" height="64pt" viewBox="0 0 64 64" version="1.1" xmlns="http://www.w3.org/2000/svg">
<g id="#ffffffff">
<path fill="#ffffff" opacity="1.00" d=" M 0.00 0.00 L 64.00 0.00 L 64.00 64.00 L 0.00 64.00 L 0.00 0.00 M 7.35 10.34 C 1.64 16.29 3.71 26.90 11.01 30.59 C 10.11 35.96 9.13 41.72 11.13 46.97 C 12.46 50.24 16.15 51.35 19.13 52.60 C 23.65 54.08 28.24 55.69 33.02 55.96 C 38.04 55.68 42.89 54.09 47.59 52.37 C 50.60 51.15 54.20 49.76 55.21 46.31 C 56.82 40.87 56.05 35.02 54.63 29.63 C 58.04 26.79 60.46 22.49 59.92 17.94 C 59.53 11.80 54.22 6.47 48.07 6.08 C 43.52 5.52 39.25 7.94 36.36 11.30 C 33.43 11.16 30.50 11.17 27.57 11.29 C 22.89 4.86 12.53 4.20 7.35 10.34 Z" />
<path fill="#ffffff" opacity="1.00" d=" M 9.31 14.36 C 11.98 9.59 18.70 8.78 22.89 12.02 C 19.83 13.00 16.47 14.47 15.74 17.97 C 17.02 17.98 18.30 17.98 19.58 17.96 C 23.82 15.13 29.15 15.07 34.06 15.18 C 37.65 15.35 41.37 15.88 44.40 17.96 C 45.69 17.98 46.97 17.98 48.26 17.97 C 47.53 14.48 44.18 13.01 41.13 12.01 C 45.10 8.98 51.36 9.45 54.26 13.72 C 57.30 17.64 56.01 23.45 52.25 26.41 C 46.48 22.11 38.92 22.09 32.04 22.07 C 25.46 22.24 17.96 22.27 12.90 27.14 C 8.51 24.68 6.49 18.72 9.31 14.36 Z" />
<path fill="#ffffff" opacity="1.00" d=" M 27.20 26.25 C 34.04 26.00 41.28 25.57 47.72 28.28 C 52.12 30.34 51.91 35.90 52.09 40.00 C 51.98 42.56 52.12 46.12 49.25 47.25 C 44.13 49.59 38.65 51.45 33.03 51.97 C 26.95 51.25 20.82 49.47 15.51 46.40 C 12.88 42.40 14.12 36.96 14.78 32.48 C 16.13 27.09 22.65 26.69 27.20 26.25 M 24.03 30.00 C 23.95 31.37 23.85 32.75 23.75 34.12 C 21.71 33.83 19.26 34.22 18.38 36.35 C 16.65 39.46 20.54 43.31 23.64 41.62 C 27.57 39.23 27.74 34.09 28.05 30.01 C 26.71 30.00 25.37 30.00 24.03 30.00 M 37.95 30.01 C 38.25 34.10 38.43 39.25 42.38 41.63 C 45.45 43.29 49.29 39.46 47.63 36.39 C 46.80 34.18 44.29 33.84 42.25 34.12 C 42.15 32.75 42.05 31.37 41.97 30.00 C 40.63 30.00 39.29 30.00 37.95 30.01 M 31.36 42.50 C 29.83 43.45 29.57 45.81 30.85 47.07 C 32.26 48.67 35.28 48.03 35.80 45.93 C 36.88 43.42 33.54 40.89 31.36 42.50 Z" />
</g>
<g id="#000000ff">
<path fill="#000000" opacity="1.00" d=" M 7.35 10.34 C 12.53 4.20 22.89 4.86 27.57 11.29 C 30.50 11.17 33.43 11.16 36.36 11.30 C 39.25 7.94 43.52 5.52 48.07 6.08 C 54.22 6.47 59.53 11.80 59.92 17.94 C 60.46 22.49 58.04 26.79 54.63 29.63 C 56.05 35.02 56.82 40.87 55.21 46.31 C 54.20 49.76 50.60 51.15 47.59 52.37 C 42.89 54.09 38.04 55.68 33.02 55.96 C 28.24 55.69 23.65 54.08 19.13 52.60 C 16.15 51.35 12.46 50.24 11.13 46.97 C 9.13 41.72 10.11 35.96 11.01 30.59 C 3.71 26.90 1.64 16.29 7.35 10.34 M 9.31 14.36 C 6.49 18.72 8.51 24.68 12.90 27.14 C 17.96 22.27 25.46 22.24 32.04 22.07 C 38.92 22.09 46.48 22.11 52.25 26.41 C 56.01 23.45 57.30 17.64 54.26 13.72 C 51.36 9.45 45.10 8.98 41.13 12.01 C 44.18 13.01 47.53 14.48 48.26 17.97 C 46.97 17.98 45.69 17.98 44.40 17.96 C 41.37 15.88 37.65 15.35 34.06 15.18 C 29.15 15.07 23.82 15.13 19.58 17.96 C 18.30 17.98 17.02 17.98 15.74 17.97 C 16.47 14.47 19.83 13.00 22.89 12.02 C 18.70 8.78 11.98 9.59 9.31 14.36 M 27.20 26.25 C 22.65 26.69 16.13 27.09 14.78 32.48 C 14.12 36.96 12.88 42.40 15.51 46.40 C 20.82 49.47 26.95 51.25 33.03 51.97 C 38.65 51.45 44.13 49.59 49.25 47.25 C 52.12 46.12 51.98 42.56 52.09 40.00 C 51.91 35.90 52.12 30.34 47.72 28.28 C 41.28 25.57 34.04 26.00 27.20 26.25 Z" />
<path fill="#000000" opacity="1.00" d=" M 24.03 30.00 C 25.37 30.00 26.71 30.00 28.05 30.01 C 27.74 34.09 27.57 39.23 23.64 41.62 C 20.54 43.31 16.65 39.46 18.38 36.35 C 19.26 34.22 21.71 33.83 23.75 34.12 C 23.85 32.75 23.95 31.37 24.03 30.00 Z" />
<path fill="#000000" opacity="1.00" d=" M 37.95 30.01 C 39.29 30.00 40.63 30.00 41.97 30.00 C 42.05 31.37 42.15 32.75 42.25 34.12 C 44.29 33.84 46.80 34.18 47.63 36.39 C 49.29 39.46 45.45 43.29 42.38 41.63 C 38.43 39.25 38.25 34.10 37.95 30.01 Z" />
<path fill="#000000" opacity="1.00" d=" M 31.36 42.50 C 33.54 40.89 36.88 43.42 35.80 45.93 C 35.28 48.03 32.26 48.67 30.85 47.07 C 29.57 45.81 29.83 43.45 31.36 42.50 Z" />
</g>
</svg>
