<?xml version="1.0" encoding="UTF-8" ?>
<!DOCTYPE svg PUBLIC "-//W3C//DTD SVG 1.1//EN" "http://www.w3.org/Graphics/SVG/1.1/DTD/svg11.dtd">
<svg width="60pt" height="60pt" viewBox="0 0 60 60" version="1.1" xmlns="http://www.w3.org/2000/svg">
<g id="#ffffffff">
<path fill="#ffffff" opacity="1.00" d=" M 0.00 0.00 L 60.00 0.00 L 60.00 60.00 L 0.00 60.00 L 0.00 0.00 M 44.15 20.78 C 46.27 23.39 48.88 25.55 51.18 28.00 C 36.11 27.99 21.05 28.02 5.98 27.98 C 4.71 28.17 2.78 27.64 2.18 29.20 C 1.31 30.95 3.34 32.36 4.94 31.98 C 20.35 32.04 35.76 31.98 51.18 32.00 C 48.88 34.45 46.27 36.60 44.17 39.22 C 43.19 41.19 45.93 42.94 47.36 41.38 C 50.77 38.14 54.12 34.82 57.35 31.40 C 58.48 30.47 57.92 28.84 56.91 28.09 C 53.76 24.90 50.63 21.68 47.36 18.62 C 45.92 16.98 43.19 18.80 44.15 20.78 Z" />
</g>
<g id="#000000ff">
<path fill="#000000" opacity="1.00" d=" M 44.15 20.78 C 43.19 18.80 45.92 16.98 47.36 18.62 C 50.63 21.68 53.76 24.90 56.91 28.09 C 57.92 28.84 58.48 30.47 57.35 31.40 C 54.12 34.82 50.77 38.14 47.36 41.38 C 45.93 42.94 43.19 41.19 44.17 39.22 C 46.27 36.60 48.88 34.45 51.18 32.00 C 35.76 31.98 20.35 32.04 4.94 31.98 C 3.34 32.36 1.31 30.95 2.18 29.20 C 2.78 27.64 4.71 28.17 5.98 27.98 C 21.05 28.02 36.11 27.99 51.18 28.00 C 48.88 25.55 46.27 23.39 44.15 20.78 Z" />
</g>
</svg>
