<?xml version="1.0" encoding="UTF-8" ?>
<!DOCTYPE svg PUBLIC "-//W3C//DTD SVG 1.1//EN" "http://www.w3.org/Graphics/SVG/1.1/DTD/svg11.dtd">
<svg width="60pt" height="60pt" viewBox="0 0 60 60" version="1.1" xmlns="http://www.w3.org/2000/svg">
<g id="#ffffffff">
<path fill="#ffffff" opacity="1.00" d=" M 0.00 0.00 L 60.00 0.00 L 60.00 60.00 L 0.00 60.00 L 0.00 0.00 M 13.19 6.19 C 11.21 6.87 11.90 10.20 14.04 9.91 C 24.69 10.06 35.36 10.07 46.01 9.91 C 48.59 10.16 48.60 5.85 46.03 6.09 C 35.09 6.00 24.12 5.80 13.19 6.19 M 13.10 14.18 C 10.83 16.78 12.45 20.97 12.05 24.21 C 17.46 23.76 21.76 19.46 22.21 14.05 C 19.18 14.00 16.12 13.83 13.10 14.18 M 26.15 14.00 C 25.90 21.56 19.56 27.90 12.00 28.15 C 12.13 36.38 11.75 44.62 12.17 52.84 C 12.41 53.09 12.89 53.58 13.13 53.83 C 17.67 54.14 22.26 54.14 26.80 53.83 C 27.06 53.59 27.57 53.12 27.82 52.88 C 28.39 46.97 27.61 41.02 28.18 35.11 C 28.89 33.64 31.17 33.65 31.83 35.17 C 32.38 41.03 31.62 46.94 32.16 52.80 C 32.40 53.06 32.88 53.57 33.12 53.83 C 37.68 54.13 42.30 54.15 46.86 53.82 C 47.10 53.58 47.58 53.09 47.83 52.85 C 48.26 44.63 47.86 36.38 48.00 28.15 C 40.45 27.90 34.08 21.56 33.85 14.00 C 31.28 14.00 28.72 14.00 26.15 14.00 M 37.79 14.05 C 38.22 19.47 42.54 23.76 47.95 24.21 C 47.75 21.08 48.70 17.48 47.39 14.63 C 44.54 13.29 40.92 14.26 37.79 14.05 Z" />
</g>
<g id="#000000ff">
<path fill="#968176" opacity="1.00" d=" M 13.19 6.19 C 24.12 5.80 35.09 6.00 46.03 6.09 C 48.60 5.85 48.59 10.16 46.01 9.91 C 35.36 10.07 24.69 10.06 14.04 9.91 C 11.90 10.20 11.21 6.87 13.19 6.19 Z" />
<path fill="#968176" opacity="1.00" d=" M 13.10 14.18 C 16.12 13.83 19.18 14.00 22.21 14.05 C 21.76 19.46 17.46 23.76 12.05 24.21 C 12.45 20.97 10.83 16.78 13.10 14.18 Z" />
<path fill="#968176" opacity="1.00" d=" M 26.15 14.00 C 28.72 14.00 31.28 14.00 33.85 14.00 C 34.08 21.56 40.45 27.90 48.00 28.15 C 47.86 36.38 48.26 44.63 47.83 52.85 C 47.58 53.09 47.10 53.58 46.86 53.82 C 42.30 54.15 37.68 54.13 33.12 53.83 C 32.88 53.57 32.40 53.06 32.16 52.80 C 31.62 46.94 32.38 41.03 31.83 35.17 C 31.17 33.65 28.89 33.64 28.18 35.11 C 27.61 41.02 28.39 46.97 27.82 52.88 C 27.57 53.12 27.06 53.59 26.80 53.83 C 22.26 54.14 17.67 54.14 13.13 53.83 C 12.89 53.58 12.41 53.09 12.17 52.84 C 11.75 44.62 12.13 36.38 12.00 28.15 C 19.56 27.90 25.90 21.56 26.15 14.00 Z" />
<path fill="#968176" opacity="1.00" d=" M 37.79 14.05 C 40.92 14.26 44.54 13.29 47.39 14.63 C 48.70 17.48 47.75 21.08 47.95 24.21 C 42.54 23.76 38.22 19.47 37.79 14.05 Z" />
</g>
</svg>
