<?xml version="1.0" encoding="UTF-8" ?>
<!DOCTYPE svg PUBLIC "-//W3C//DTD SVG 1.1//EN" "http://www.w3.org/Graphics/SVG/1.1/DTD/svg11.dtd">
<svg width="60pt" height="60pt" viewBox="0 0 60 60" version="1.1" xmlns="http://www.w3.org/2000/svg">
<g id="#ffffffff">
<path fill="#ffffff" opacity="1.00" d=" M 0.00 0.00 L 60.00 0.00 L 60.00 60.00 L 0.00 60.00 L 0.00 0.00 M 23.31 4.03 C 22.78 5.63 21.93 7.22 22.03 8.95 C 22.72 11.54 24.66 13.99 23.79 16.80 C 22.75 20.53 20.52 23.91 20.23 27.86 C 19.79 32.92 20.11 38.04 19.36 43.08 C 18.70 47.66 17.95 52.75 14.35 56.05 C 19.60 55.95 24.84 56.01 30.09 56.01 C 32.43 46.99 31.34 37.59 32.57 28.43 C 32.58 34.29 33.82 40.04 35.25 45.69 C 36.24 49.34 37.31 53.13 39.87 56.04 C 42.54 55.98 45.21 55.98 47.89 56.03 C 40.91 49.33 40.05 39.02 39.89 29.90 C 39.89 25.24 37.38 21.19 36.20 16.82 C 34.94 12.85 39.56 9.35 37.36 5.46 C 35.91 2.24 31.96 5.52 30.00 6.65 C 28.02 5.24 25.82 4.02 23.31 4.03 Z" />
</g>
<g id="#000000ff">
<path fill="#968176" opacity="1.00" d=" M 23.31 4.03 C 25.82 4.02 28.02 5.24 30.00 6.65 C 31.96 5.52 35.91 2.24 37.36 5.46 C 39.56 9.35 34.94 12.85 36.20 16.82 C 37.38 21.19 39.89 25.24 39.89 29.90 C 40.05 39.02 40.91 49.33 47.89 56.03 C 45.21 55.98 42.54 55.98 39.87 56.04 C 37.31 53.13 36.24 49.34 35.25 45.69 C 33.82 40.04 32.58 34.29 32.57 28.43 C 31.34 37.59 32.43 46.99 30.09 56.01 C 24.84 56.01 19.60 55.95 14.35 56.05 C 17.95 52.75 18.70 47.66 19.36 43.08 C 20.11 38.04 19.79 32.92 20.23 27.86 C 20.52 23.91 22.75 20.53 23.79 16.80 C 24.66 13.99 22.72 11.54 22.03 8.95 C 21.93 7.22 22.78 5.63 23.31 4.03 Z" />
</g>
</svg>
