<?xml version="1.0" encoding="UTF-8" ?>
<!DOCTYPE svg PUBLIC "-//W3C//DTD SVG 1.1//EN" "http://www.w3.org/Graphics/SVG/1.1/DTD/svg11.dtd">
<svg width="64pt" height="64pt" viewBox="0 0 64 64" version="1.1" xmlns="http://www.w3.org/2000/svg">
<g id="#ffffffff">
<path fill="#ffffff" opacity="1.00" d=" M 0.00 0.00 L 64.00 0.00 L 64.00 64.00 L 0.00 64.00 L 0.00 0.00 M 26.45 8.66 C 19.34 10.33 13.14 15.42 10.15 22.09 C 7.09 28.72 7.34 36.76 10.79 43.20 C 14.33 49.97 21.27 54.83 28.86 55.77 C 35.89 56.73 43.31 54.38 48.43 49.45 C 53.46 44.76 56.31 37.82 55.95 30.93 C 55.70 24.05 52.24 17.40 46.84 13.16 C 41.21 8.63 33.46 6.98 26.45 8.66 Z" />
<path fill="#ffffff" opacity="1.00" d=" M 22.03 31.98 C 22.16 24.86 23.66 16.60 29.91 12.22 C 30.06 25.40 30.06 38.59 29.91 51.78 C 23.65 47.40 22.16 39.12 22.03 31.98 Z" />
<path fill="#ffffff" opacity="1.00" d=" M 34.09 12.22 C 40.34 16.61 41.84 24.87 41.96 32.01 C 41.84 39.14 40.34 47.39 34.09 51.78 C 33.94 38.59 33.94 25.40 34.09 12.22 Z" />
<path fill="#ffffff" opacity="1.00" d=" M 12.03 32.00 C 11.85 24.79 16.17 18.18 22.16 14.44 C 16.64 25.29 16.64 38.71 22.17 49.56 C 16.18 45.81 11.85 39.21 12.03 32.00 Z" />
<path fill="#ffffff" opacity="1.00" d=" M 41.83 14.44 C 48.14 18.35 52.53 25.51 51.94 33.07 C 51.74 39.91 47.49 45.97 41.83 49.56 C 47.35 38.71 47.36 25.29 41.83 14.44 Z" />
</g>
<g id="#000000ff">
<path fill="#000000" opacity="1.00" d=" M 26.45 8.66 C 33.46 6.98 41.21 8.63 46.84 13.16 C 52.24 17.40 55.70 24.05 55.95 30.93 C 56.31 37.82 53.46 44.76 48.43 49.45 C 43.31 54.38 35.89 56.73 28.86 55.77 C 21.27 54.83 14.33 49.97 10.79 43.20 C 7.34 36.76 7.09 28.72 10.15 22.09 C 13.14 15.42 19.34 10.33 26.45 8.66 M 22.03 31.98 C 22.16 39.12 23.65 47.40 29.91 51.78 C 30.06 38.59 30.06 25.40 29.91 12.22 C 23.66 16.60 22.16 24.86 22.03 31.98 M 34.09 12.22 C 33.94 25.40 33.94 38.59 34.09 51.78 C 40.34 47.39 41.84 39.14 41.96 32.01 C 41.84 24.87 40.34 16.61 34.09 12.22 M 12.03 32.00 C 11.85 39.21 16.18 45.81 22.17 49.56 C 16.64 38.71 16.64 25.29 22.16 14.44 C 16.17 18.18 11.85 24.79 12.03 32.00 M 41.83 14.44 C 47.36 25.29 47.35 38.71 41.83 49.56 C 47.49 45.97 51.74 39.91 51.94 33.07 C 52.53 25.51 48.14 18.35 41.83 14.44 Z" />
</g>
</svg>
