<?xml version="1.0" encoding="UTF-8" ?>
<!DOCTYPE svg PUBLIC "-//W3C//DTD SVG 1.1//EN" "http://www.w3.org/Graphics/SVG/1.1/DTD/svg11.dtd">
<svg width="60pt" height="60pt" viewBox="0 0 60 60" version="1.1" xmlns="http://www.w3.org/2000/svg">
<g id="#ffffffff">
<path fill="#ffffff" opacity="1.00" d=" M 0.00 0.00 L 60.00 0.00 L 60.00 60.00 L 0.00 60.00 L 0.00 0.00 M 14.95 9.91 C 12.43 11.94 11.56 15.23 10.03 17.97 C 8.72 20.92 6.71 23.64 6.11 26.86 C 5.89 31.19 5.96 35.55 6.12 39.89 C 8.03 40.02 9.96 40.02 11.87 39.90 C 12.16 36.22 11.86 32.53 12.05 28.85 C 13.02 26.27 14.74 24.03 16.00 21.59 C 19.87 30.45 16.23 39.87 16.06 49.03 C 15.75 50.31 16.41 52.11 17.99 51.94 C 25.34 52.09 32.69 51.94 40.03 52.02 C 41.33 51.91 43.06 52.32 43.81 50.91 C 44.41 41.14 39.84 31.06 44.00 21.59 C 45.25 24.06 47.04 26.29 47.95 28.90 C 48.13 32.56 47.86 36.22 48.11 39.88 C 50.04 40.03 51.98 40.03 53.91 39.86 C 54.02 35.53 54.12 31.19 53.89 26.86 C 53.28 23.66 51.31 20.94 49.99 18.00 C 48.44 15.25 47.56 11.91 45.00 9.88 C 40.46 7.21 35.37 5.24 30.01 6.00 C 24.62 5.23 19.53 7.26 14.95 9.91 Z" />
<path fill="#ffffff" opacity="1.00" d=" M 23.81 10.04 C 27.94 9.98 32.06 9.98 36.19 10.04 C 35.01 12.68 33.32 16.08 29.94 15.98 C 26.60 15.99 24.99 12.64 23.81 10.04 Z" />
</g>
<g id="#000000ff">
<path fill="#000000" opacity="1.00" d=" M 14.95 9.91 C 19.53 7.26 24.62 5.23 30.01 6.00 C 35.37 5.24 40.46 7.21 45.00 9.88 C 47.56 11.91 48.44 15.25 49.99 18.00 C 51.31 20.94 53.28 23.66 53.89 26.86 C 54.12 31.19 54.02 35.53 53.91 39.86 C 51.98 40.03 50.04 40.03 48.11 39.88 C 47.86 36.22 48.13 32.56 47.95 28.90 C 47.04 26.29 45.25 24.06 44.00 21.59 C 39.84 31.06 44.41 41.14 43.81 50.91 C 43.06 52.32 41.33 51.91 40.03 52.02 C 32.69 51.94 25.34 52.09 17.99 51.94 C 16.41 52.11 15.75 50.31 16.06 49.03 C 16.23 39.87 19.87 30.45 16.00 21.59 C 14.74 24.03 13.02 26.27 12.05 28.85 C 11.86 32.53 12.16 36.22 11.87 39.90 C 9.96 40.02 8.03 40.02 6.12 39.89 C 5.96 35.55 5.89 31.19 6.11 26.86 C 6.71 23.64 8.72 20.92 10.03 17.97 C 11.56 15.23 12.43 11.94 14.95 9.91 M 23.81 10.04 C 24.99 12.64 26.60 15.99 29.94 15.98 C 33.32 16.08 35.01 12.68 36.19 10.04 C 32.06 9.98 27.94 9.98 23.81 10.04 Z" />
</g>
</svg>
