<?xml version="1.0" encoding="UTF-8" ?>
<!DOCTYPE svg PUBLIC "-//W3C//DTD SVG 1.1//EN" "http://www.w3.org/Graphics/SVG/1.1/DTD/svg11.dtd">
<svg width="60pt" height="60pt" viewBox="0 0 60 60" version="1.1" xmlns="http://www.w3.org/2000/svg">
<g id="#ffffffff">
<path fill="#ffffff" opacity="1.00" d=" M 0.00 0.00 L 60.00 0.00 L 60.00 60.00 L 0.00 60.00 L 0.00 0.00 M 38.85 8.77 C 37.03 11.43 38.47 14.66 40.56 16.65 C 34.07 23.07 27.64 29.56 21.17 36.02 C 18.51 36.01 15.82 35.80 13.17 36.21 C 10.65 38.34 8.30 40.71 6.16 43.22 C 5.18 46.35 9.17 46.08 11.13 46.06 C 9.92 47.48 7.62 48.64 8.08 50.83 C 9.94 53.62 12.53 50.41 13.94 48.87 C 13.91 50.84 13.66 54.82 16.80 53.82 C 19.31 51.70 21.66 49.35 23.78 46.83 C 24.20 44.19 23.99 41.50 23.98 38.83 C 30.47 32.37 36.99 25.94 43.38 19.38 C 45.27 21.54 48.47 22.95 51.12 21.21 C 55.10 18.91 53.90 13.69 53.96 9.88 C 54.14 7.71 52.22 5.84 50.07 6.04 C 46.30 6.07 41.24 4.99 38.85 8.77 Z" />
<path fill="#ffffff" opacity="1.00" d=" M 43.19 10.17 C 45.44 9.86 47.73 9.98 49.99 10.01 C 49.59 12.77 51.36 16.93 48.04 18.32 C 47.71 17.95 47.05 17.23 46.72 16.86 C 46.67 14.93 46.07 13.39 43.91 13.36 C 41.89 13.61 41.21 10.72 43.19 10.17 Z" />
</g>
<g id="#000000ff">
<path fill="#968176" opacity="1.00" d=" M 38.85 8.77 C 41.24 4.99 46.30 6.07 50.07 6.04 C 52.22 5.84 54.14 7.71 53.96 9.88 C 53.90 13.69 55.10 18.91 51.12 21.21 C 48.47 22.95 45.27 21.54 43.38 19.38 C 36.99 25.94 30.47 32.37 23.98 38.83 C 23.99 41.50 24.20 44.19 23.78 46.83 C 21.66 49.35 19.31 51.70 16.80 53.82 C 13.66 54.82 13.91 50.84 13.94 48.87 C 12.53 50.41 9.94 53.62 8.08 50.83 C 7.62 48.64 9.92 47.48 11.13 46.06 C 9.17 46.08 5.18 46.35 6.16 43.22 C 8.30 40.71 10.65 38.34 13.17 36.21 C 15.82 35.80 18.51 36.01 21.17 36.02 C 27.64 29.56 34.07 23.07 40.56 16.65 C 38.47 14.66 37.03 11.43 38.85 8.77 M 43.19 10.17 C 41.21 10.72 41.89 13.61 43.91 13.36 C 46.07 13.39 46.67 14.93 46.72 16.86 C 47.05 17.23 47.71 17.95 48.04 18.32 C 51.36 16.93 49.59 12.77 49.99 10.01 C 47.73 9.98 45.44 9.86 43.19 10.17 Z" />
</g>
</svg>
