<?xml version="1.0" encoding="UTF-8" ?>
<!DOCTYPE svg PUBLIC "-//W3C//DTD SVG 1.1//EN" "http://www.w3.org/Graphics/SVG/1.1/DTD/svg11.dtd">
<svg width="60pt" height="60pt" viewBox="0 0 60 60" version="1.1" xmlns="http://www.w3.org/2000/svg">
<g id="#ffffffff">
<path fill="#ffffff" opacity="1.00" d=" M 0.00 0.00 L 60.00 0.00 L 60.00 60.00 L 0.00 60.00 L 0.00 0.00 M 12.05 11.90 C 11.91 19.88 12.05 27.87 12.00 35.86 C 10.19 35.82 7.29 36.28 8.12 38.81 C 14.40 43.94 21.19 48.47 27.77 53.23 C 30.09 55.07 32.69 53.08 34.60 51.67 C 40.28 47.29 46.41 43.49 51.86 38.85 C 52.74 36.30 49.82 35.82 48.00 35.86 C 47.95 27.89 48.08 19.92 47.95 11.96 C 47.99 9.91 46.21 7.97 44.11 8.05 C 35.05 7.93 25.99 8.03 16.92 8.00 C 14.57 7.65 11.99 9.40 12.05 11.90 Z" />
<path fill="#ffffff" opacity="1.00" d=" M 28.01 15.00 C 29.34 15.00 30.66 15.00 31.99 15.00 C 32.00 15.77 32.02 17.31 32.03 18.08 C 34.31 19.02 36.30 20.53 36.83 23.10 C 36.01 23.09 34.37 23.09 33.55 23.09 C 32.59 22.10 31.66 20.66 30.05 20.93 C 28.32 20.58 26.01 22.64 27.60 24.20 C 30.51 25.97 35.62 25.13 36.75 29.14 C 37.74 32.48 35.01 35.15 32.03 35.97 C 32.02 36.73 32.00 38.24 31.99 39.00 C 30.66 39.00 29.34 39.00 28.01 39.00 C 28.00 38.23 27.99 36.70 27.98 35.93 C 25.45 35.19 23.42 33.52 22.85 30.84 C 23.68 30.84 25.36 30.84 26.19 30.83 C 27.18 31.91 28.23 33.22 29.89 33.06 C 31.86 33.54 34.76 31.15 32.56 29.48 C 29.63 28.05 25.05 28.59 23.71 24.96 C 22.56 21.74 25.07 18.99 27.97 18.10 C 27.98 17.33 28.00 15.77 28.01 15.00 Z" />
</g>
<g id="#000000ff">
<path fill="#000000" opacity="1.00" d=" M 12.05 11.90 C 11.99 9.40 14.57 7.65 16.92 8.00 C 25.99 8.03 35.05 7.93 44.11 8.05 C 46.21 7.97 47.99 9.91 47.95 11.96 C 48.08 19.92 47.95 27.89 48.00 35.86 C 49.82 35.82 52.74 36.30 51.86 38.85 C 46.41 43.49 40.28 47.29 34.60 51.67 C 32.69 53.08 30.09 55.07 27.77 53.23 C 21.19 48.47 14.40 43.94 8.12 38.81 C 7.29 36.28 10.19 35.82 12.00 35.86 C 12.05 27.87 11.91 19.88 12.05 11.90 M 28.01 15.00 C 28.00 15.77 27.98 17.33 27.97 18.10 C 25.07 18.99 22.56 21.74 23.71 24.96 C 25.05 28.59 29.63 28.05 32.56 29.48 C 34.76 31.15 31.86 33.54 29.89 33.06 C 28.23 33.22 27.18 31.91 26.19 30.83 C 25.36 30.84 23.68 30.84 22.85 30.84 C 23.42 33.52 25.45 35.19 27.98 35.93 C 27.99 36.70 28.00 38.23 28.01 39.00 C 29.34 39.00 30.66 39.00 31.99 39.00 C 32.00 38.24 32.02 36.73 32.03 35.97 C 35.01 35.15 37.74 32.48 36.75 29.14 C 35.62 25.13 30.51 25.97 27.60 24.20 C 26.01 22.64 28.32 20.58 30.05 20.93 C 31.66 20.66 32.59 22.10 33.55 23.09 C 34.37 23.09 36.01 23.09 36.83 23.10 C 36.30 20.53 34.31 19.02 32.03 18.08 C 32.02 17.31 32.00 15.77 31.99 15.00 C 30.66 15.00 29.34 15.00 28.01 15.00 Z" />
</g>
</svg>
