<?xml version="1.0" encoding="UTF-8" ?>
<!DOCTYPE svg PUBLIC "-//W3C//DTD SVG 1.1//EN" "http://www.w3.org/Graphics/SVG/1.1/DTD/svg11.dtd">
<svg width="60pt" height="60pt" viewBox="0 0 60 60" version="1.1" xmlns="http://www.w3.org/2000/svg">
<g id="#ffffffff">
<path fill="#ffffff" opacity="1.00" d=" M 0.00 0.00 L 60.00 0.00 L 60.00 60.00 L 0.00 60.00 L 0.00 0.00 M 12.04 11.93 C 11.92 19.91 12.04 27.90 12.00 35.88 C 10.71 36.17 8.74 35.65 8.15 37.26 C 7.40 38.89 9.34 39.89 10.37 40.74 C 16.21 44.85 21.90 49.17 27.77 53.23 C 30.36 55.20 33.09 52.74 35.17 51.25 C 40.66 47.00 46.64 43.37 51.87 38.80 C 52.72 36.29 49.79 35.79 48.00 35.88 C 47.95 27.87 48.09 19.86 47.95 11.86 C 47.96 9.83 46.12 7.94 44.06 8.04 C 35.01 7.93 25.97 8.03 16.92 8.00 C 14.56 7.65 11.97 9.42 12.04 11.93 Z" />
<path fill="#ffffff" opacity="1.00" d=" M 26.01 17.95 C 28.91 15.35 33.12 16.01 36.67 16.35 C 36.69 17.44 36.70 18.52 36.72 19.61 C 34.33 19.50 31.49 18.67 29.44 20.37 C 28.40 21.57 29.08 23.20 29.17 24.59 C 31.11 24.58 33.05 24.59 34.99 24.61 C 34.99 25.33 34.99 26.77 34.99 27.49 C 33.48 27.46 31.98 27.44 30.47 27.44 C 30.44 29.47 29.55 31.27 28.04 32.61 C 31.22 32.49 34.41 32.53 37.59 32.54 C 37.60 33.69 37.60 34.84 37.60 36.00 C 32.53 36.00 27.46 36.00 22.39 36.00 C 22.40 34.97 22.41 33.94 22.43 32.92 C 24.86 32.14 26.75 30.20 26.61 27.49 C 25.22 27.48 23.84 27.47 22.46 27.45 C 22.46 26.74 22.46 25.31 22.47 24.59 C 23.18 24.60 24.62 24.62 25.33 24.63 C 24.82 22.44 24.09 19.70 26.01 17.95 Z" />
</g>
<g id="#000000ff">
<path fill="#000000" opacity="1.00" d=" M 12.04 11.93 C 11.97 9.42 14.56 7.65 16.92 8.00 C 25.97 8.03 35.01 7.93 44.06 8.04 C 46.12 7.94 47.96 9.83 47.95 11.86 C 48.09 19.86 47.95 27.87 48.00 35.88 C 49.79 35.79 52.72 36.29 51.87 38.80 C 46.64 43.37 40.66 47.00 35.17 51.25 C 33.09 52.74 30.36 55.20 27.77 53.23 C 21.90 49.17 16.21 44.85 10.37 40.74 C 9.34 39.89 7.40 38.89 8.15 37.26 C 8.74 35.65 10.71 36.17 12.00 35.88 C 12.04 27.90 11.92 19.91 12.04 11.93 M 26.01 17.95 C 24.09 19.70 24.82 22.44 25.33 24.63 C 24.62 24.62 23.18 24.60 22.47 24.59 C 22.46 25.31 22.46 26.74 22.46 27.45 C 23.84 27.47 25.22 27.48 26.61 27.49 C 26.75 30.20 24.86 32.14 22.43 32.92 C 22.41 33.94 22.40 34.97 22.39 36.00 C 27.46 36.00 32.53 36.00 37.60 36.00 C 37.60 34.84 37.60 33.69 37.59 32.54 C 34.41 32.53 31.22 32.49 28.04 32.61 C 29.55 31.27 30.44 29.47 30.47 27.44 C 31.98 27.44 33.48 27.46 34.99 27.49 C 34.99 26.77 34.99 25.33 34.99 24.61 C 33.05 24.59 31.11 24.58 29.17 24.59 C 29.08 23.20 28.40 21.57 29.44 20.37 C 31.49 18.67 34.33 19.50 36.72 19.61 C 36.70 18.52 36.69 17.44 36.67 16.35 C 33.12 16.01 28.91 15.35 26.01 17.95 Z" />
</g>
</svg>
