<?xml version="1.0" encoding="UTF-8" ?>
<!DOCTYPE svg PUBLIC "-//W3C//DTD SVG 1.1//EN" "http://www.w3.org/Graphics/SVG/1.1/DTD/svg11.dtd">
<svg width="64pt" height="64pt" viewBox="0 0 64 64" version="1.1" xmlns="http://www.w3.org/2000/svg">
<g id="#ffffffff">
<path fill="#ffffff" opacity="1.00" d=" M 0.00 0.00 L 64.00 0.00 L 64.00 64.00 L 0.00 64.00 L 0.00 0.00 M 4.00 12.00 C 4.00 25.33 4.00 38.67 4.00 52.00 C 22.67 52.00 41.33 52.00 60.00 52.00 C 60.00 38.67 60.00 25.33 60.00 12.00 C 41.33 12.00 22.67 12.00 4.00 12.00 Z" />
<path fill="#ffffff" opacity="1.00" d=" M 8.00 16.00 C 24.00 16.00 40.00 16.00 56.00 16.00 C 56.00 26.67 56.00 37.33 56.00 48.00 C 40.00 48.00 24.00 48.00 8.00 48.00 C 8.00 37.33 8.00 26.67 8.00 16.00 M 21.40 43.99 C 22.99 43.99 24.59 44.00 26.18 44.00 C 31.67 36.01 37.14 28.00 42.62 20.00 C 41.02 20.00 39.42 20.00 37.83 19.99 C 32.34 27.99 26.85 35.98 21.40 43.99 M 22.29 22.39 C 19.54 23.54 19.21 27.75 21.80 29.27 C 24.23 31.27 28.10 28.94 28.01 25.97 C 28.01 23.25 24.78 21.01 22.29 22.39 M 38.26 34.41 C 36.14 35.37 35.23 38.37 36.74 40.23 C 38.30 42.79 42.44 42.42 43.59 39.67 C 45.39 36.57 41.34 32.60 38.26 34.41 Z" />
</g>
<g id="#000000ff">
<path fill="#000000" opacity="1.00" d=" M 4.00 12.00 C 22.67 12.00 41.33 12.00 60.00 12.00 C 60.00 25.33 60.00 38.67 60.00 52.00 C 41.33 52.00 22.67 52.00 4.00 52.00 C 4.00 38.67 4.00 25.33 4.00 12.00 M 8.00 16.00 C 8.00 26.67 8.00 37.33 8.00 48.00 C 24.00 48.00 40.00 48.00 56.00 48.00 C 56.00 37.33 56.00 26.67 56.00 16.00 C 40.00 16.00 24.00 16.00 8.00 16.00 Z" />
<path fill="#000000" opacity="1.00" d=" M 21.40 43.99 C 26.85 35.98 32.34 27.99 37.83 19.99 C 39.42 20.00 41.02 20.00 42.62 20.00 C 37.14 28.00 31.67 36.01 26.18 44.00 C 24.59 44.00 22.99 43.99 21.40 43.99 Z" />
<path fill="#000000" opacity="1.00" d=" M 22.29 22.39 C 24.78 21.01 28.01 23.25 28.01 25.97 C 28.10 28.94 24.23 31.27 21.80 29.27 C 19.21 27.75 19.54 23.54 22.29 22.39 Z" />
<path fill="#000000" opacity="1.00" d=" M 38.26 34.41 C 41.34 32.60 45.39 36.57 43.59 39.67 C 42.44 42.42 38.30 42.79 36.74 40.23 C 35.23 38.37 36.14 35.37 38.26 34.41 Z" />
</g>
</svg>
