<?xml version="1.0" encoding="UTF-8" ?>
<!DOCTYPE svg PUBLIC "-//W3C//DTD SVG 1.1//EN" "http://www.w3.org/Graphics/SVG/1.1/DTD/svg11.dtd">
<svg width="64pt" height="64pt" viewBox="0 0 64 64" version="1.1" xmlns="http://www.w3.org/2000/svg">
<g id="#ffffffff">
<path fill="#ffffff" opacity="1.00" d=" M 0.00 0.00 L 64.00 0.00 L 64.00 64.00 L 0.00 64.00 L 0.00 0.00 M 8.31 16.11 C 6.88 20.04 3.43 23.57 4.15 28.00 C 4.57 31.87 4.09 36.09 6.45 39.44 C 8.18 41.76 8.65 45.79 11.96 46.28 C 11.51 50.19 12.77 54.23 16.42 56.19 C 16.87 54.97 17.31 53.75 17.75 52.53 C 15.89 50.81 15.87 48.35 15.93 46.00 C 17.26 46.00 18.60 46.00 19.93 46.00 C 19.53 49.99 20.65 54.15 24.39 56.20 C 24.86 54.98 25.30 53.76 25.75 52.54 C 23.91 50.80 23.85 48.37 23.93 46.00 C 26.60 46.00 29.26 46.00 31.93 46.00 C 31.58 49.93 32.52 54.45 36.64 56.03 C 37.00 54.85 37.35 53.67 37.71 52.49 C 35.90 50.76 35.86 48.34 35.93 46.00 C 37.26 46.00 38.60 46.00 39.93 46.00 C 39.53 49.99 40.65 54.14 44.38 56.20 C 44.85 54.98 45.30 53.76 45.76 52.54 C 44.03 50.91 43.82 48.64 43.95 46.40 C 45.29 46.07 46.26 45.16 46.94 43.99 C 51.23 37.43 55.58 30.91 59.90 24.37 C 53.49 18.93 47.10 13.47 40.68 8.06 C 29.91 10.82 19.07 13.33 8.31 16.11 Z" />
<path fill="#ffffff" opacity="1.00" d=" M 11.18 19.45 C 19.85 17.35 28.51 15.24 37.15 13.05 C 36.59 14.79 36.02 16.52 35.46 18.25 C 26.80 19.74 18.16 21.39 9.49 22.83 C 10.05 21.70 10.61 20.57 11.18 19.45 Z" />
<path fill="#ffffff" opacity="1.00" d=" M 41.15 13.71 C 43.87 15.98 46.57 18.29 49.25 20.60 C 46.03 19.91 42.80 19.21 39.58 18.51 C 40.10 16.91 40.63 15.31 41.15 13.71 Z" />
<path fill="#ffffff" opacity="1.00" d=" M 8.12 27.17 C 17.16 25.52 26.22 24.01 35.26 22.33 C 35.65 25.60 36.04 28.86 36.43 32.12 C 27.15 32.63 17.87 33.14 8.60 33.64 C 8.44 31.48 8.29 29.33 8.12 27.17 Z" />
<path fill="#ffffff" opacity="1.00" d=" M 39.31 22.55 C 43.43 23.38 47.52 24.31 51.62 25.23 C 47.86 27.15 44.08 29.01 40.34 30.94 C 39.97 28.14 39.65 25.35 39.31 22.55 Z" />
<path fill="#ffffff" opacity="1.00" d=" M 41.48 34.82 C 44.82 33.13 48.17 31.45 51.51 29.76 C 49.22 33.26 46.96 36.78 44.53 40.18 C 43.52 38.39 42.50 36.60 41.48 34.82 Z" />
<path fill="#ffffff" opacity="1.00" d=" M 10.04 37.56 C 19.22 37.09 28.40 36.54 37.59 36.08 C 38.72 38.06 39.87 40.03 41.03 42.00 C 31.47 41.96 21.91 42.07 12.35 41.94 C 11.59 40.48 10.82 39.02 10.04 37.56 Z" />
</g>
<g id="#000000ff">
<path fill="#000000" opacity="1.00" d=" M 8.31 16.11 C 19.07 13.33 29.91 10.82 40.68 8.06 C 47.10 13.47 53.49 18.93 59.90 24.37 C 55.58 30.91 51.23 37.43 46.94 43.99 C 46.26 45.16 45.29 46.07 43.95 46.40 C 43.82 48.64 44.03 50.91 45.76 52.54 C 45.30 53.76 44.85 54.98 44.38 56.20 C 40.65 54.14 39.53 49.99 39.93 46.00 C 38.60 46.00 37.26 46.00 35.93 46.00 C 35.86 48.34 35.90 50.76 37.71 52.49 C 37.35 53.67 37.00 54.85 36.64 56.03 C 32.52 54.45 31.58 49.93 31.93 46.00 C 29.26 46.00 26.60 46.00 23.93 46.00 C 23.85 48.37 23.91 50.80 25.75 52.54 C 25.30 53.76 24.86 54.98 24.39 56.20 C 20.65 54.15 19.53 49.99 19.93 46.00 C 18.60 46.00 17.26 46.00 15.93 46.00 C 15.87 48.35 15.89 50.81 17.75 52.53 C 17.31 53.75 16.87 54.97 16.42 56.19 C 12.77 54.23 11.51 50.19 11.96 46.28 C 8.65 45.79 8.18 41.76 6.45 39.44 C 4.09 36.09 4.57 31.87 4.15 28.00 C 3.43 23.57 6.88 20.04 8.31 16.11 M 11.18 19.45 C 10.61 20.57 10.05 21.70 9.49 22.83 C 18.16 21.39 26.80 19.74 35.46 18.25 C 36.02 16.52 36.59 14.79 37.15 13.05 C 28.51 15.24 19.85 17.35 11.18 19.45 M 41.15 13.71 C 40.63 15.31 40.10 16.91 39.58 18.51 C 42.80 19.21 46.03 19.91 49.25 20.60 C 46.57 18.29 43.87 15.98 41.15 13.71 M 8.12 27.17 C 8.29 29.33 8.44 31.48 8.60 33.64 C 17.87 33.14 27.15 32.63 36.43 32.12 C 36.04 28.86 35.65 25.60 35.26 22.33 C 26.22 24.01 17.16 25.52 8.12 27.17 M 39.31 22.55 C 39.65 25.35 39.97 28.14 40.34 30.94 C 44.08 29.01 47.86 27.15 51.62 25.23 C 47.52 24.31 43.43 23.38 39.31 22.55 M 41.48 34.82 C 42.50 36.60 43.52 38.39 44.53 40.18 C 46.96 36.78 49.22 33.26 51.51 29.76 C 48.17 31.45 44.82 33.13 41.48 34.82 M 10.04 37.56 C 10.82 39.02 11.59 40.48 12.35 41.94 C 21.91 42.07 31.47 41.96 41.03 42.00 C 39.87 40.03 38.72 38.06 37.59 36.08 C 28.40 36.54 19.22 37.09 10.04 37.56 Z" />
</g>
</svg>
