<?xml version="1.0" encoding="UTF-8" ?>
<!DOCTYPE svg PUBLIC "-//W3C//DTD SVG 1.1//EN" "http://www.w3.org/Graphics/SVG/1.1/DTD/svg11.dtd">
<svg width="60pt" height="60pt" viewBox="0 0 60 60" version="1.1" xmlns="http://www.w3.org/2000/svg">
<g id="#ffffffff">
<path fill="#ffffff" opacity="1.00" d=" M 0.00 0.00 L 60.00 0.00 L 60.00 60.00 L 0.00 60.00 L 0.00 0.00 M 8.38 10.39 C 6.13 11.26 5.88 13.87 5.99 15.94 C 6.07 25.98 5.89 36.03 6.07 46.07 C 5.96 48.61 8.58 50.29 10.92 49.99 C 23.98 49.98 37.04 50.07 50.09 49.94 C 52.58 50.00 54.33 47.45 53.99 45.11 C 53.97 34.70 54.08 24.28 53.94 13.87 C 53.98 11.40 51.44 9.67 49.11 10.00 C 37.08 9.97 25.05 10.04 13.01 9.98 C 11.47 10.04 9.86 9.85 8.38 10.39 Z" />
<path fill="#ffffff" opacity="1.00" d=" M 29.72 14.00 C 36.48 14.00 43.24 14.00 50.00 14.00 C 50.00 24.67 50.00 35.33 50.00 46.00 C 44.51 46.00 39.02 46.00 33.53 46.00 C 33.22 44.55 32.94 43.09 32.51 41.67 C 26.63 42.58 20.38 40.90 15.62 37.37 C 13.90 36.20 15.94 32.99 17.75 34.30 C 22.02 36.58 26.86 38.66 31.79 37.82 C 32.66 36.01 31.95 33.97 32.02 32.06 C 30.09 32.01 28.16 32.04 26.25 31.77 C 25.68 25.67 27.48 19.60 29.72 14.00 M 41.15 20.10 C 38.99 21.48 39.55 26.89 42.83 25.90 C 44.98 24.47 44.49 19.08 41.15 20.10 M 42.31 34.28 C 39.32 35.83 36.18 37.03 33.02 38.16 C 31.30 38.92 33.58 40.76 33.75 41.95 C 37.42 40.80 41.36 39.88 44.39 37.36 C 46.06 36.09 44.06 33.09 42.31 34.28 Z" />
<path fill="#ffffff" opacity="1.00" d=" M 17.15 20.10 C 20.47 19.10 21.05 24.60 18.77 25.90 C 15.48 26.77 15.05 21.52 17.15 20.10 Z" />
</g>
<g id="#000000ff">
<path fill="#000000" opacity="1.00" d=" M 8.38 10.39 C 9.86 9.85 11.47 10.04 13.01 9.98 C 25.05 10.04 37.08 9.97 49.11 10.00 C 51.44 9.67 53.98 11.40 53.94 13.87 C 54.08 24.28 53.97 34.70 53.99 45.11 C 54.33 47.45 52.58 50.00 50.09 49.94 C 37.04 50.07 23.98 49.98 10.92 49.99 C 8.58 50.29 5.96 48.61 6.07 46.07 C 5.89 36.03 6.07 25.98 5.99 15.94 C 5.88 13.87 6.13 11.26 8.38 10.39 M 29.72 14.00 C 27.48 19.60 25.68 25.67 26.25 31.77 C 28.16 32.04 30.09 32.01 32.02 32.06 C 31.95 33.97 32.66 36.01 31.79 37.82 C 26.86 38.66 22.02 36.58 17.75 34.30 C 15.94 32.99 13.90 36.20 15.62 37.37 C 20.38 40.90 26.63 42.58 32.51 41.67 C 32.94 43.09 33.22 44.55 33.53 46.00 C 39.02 46.00 44.51 46.00 50.00 46.00 C 50.00 35.33 50.00 24.67 50.00 14.00 C 43.24 14.00 36.48 14.00 29.72 14.00 M 17.15 20.10 C 15.05 21.52 15.48 26.77 18.77 25.90 C 21.05 24.60 20.47 19.10 17.15 20.10 Z" />
<path fill="#000000" opacity="1.00" d=" M 41.15 20.10 C 44.49 19.08 44.98 24.47 42.83 25.90 C 39.55 26.89 38.99 21.48 41.15 20.10 Z" />
<path fill="#000000" opacity="1.00" d=" M 42.31 34.28 C 44.06 33.09 46.06 36.09 44.39 37.36 C 41.36 39.88 37.42 40.80 33.75 41.95 C 33.58 40.76 31.30 38.92 33.02 38.16 C 36.18 37.03 39.32 35.83 42.31 34.28 Z" />
</g>
</svg>
