<?xml version="1.0" encoding="UTF-8" ?>
<!DOCTYPE svg PUBLIC "-//W3C//DTD SVG 1.1//EN" "http://www.w3.org/Graphics/SVG/1.1/DTD/svg11.dtd">
<svg width="60pt" height="60pt" viewBox="0 0 60 60" version="1.1" xmlns="http://www.w3.org/2000/svg">
<g id="#ffffffff">
<path fill="#ffffff" opacity="1.00" d=" M 0.00 0.00 L 60.00 0.00 L 60.00 60.00 L 0.00 60.00 L 0.00 0.00 M 29.83 13.58 C 36.49 13.44 41.34 6.90 41.24 0.56 C 34.81 1.15 29.31 7.01 29.83 13.58 M 9.53 21.58 C 6.34 27.79 7.26 35.24 9.51 41.60 C 11.43 46.73 14.37 51.77 18.82 55.07 C 22.50 57.49 26.30 54.26 30.01 53.78 C 34.57 53.01 38.79 57.83 43.22 55.15 C 47.80 51.89 50.39 46.55 52.56 41.51 C 48.38 39.22 44.94 35.01 45.06 30.04 C 44.93 25.63 47.72 21.87 51.12 19.36 C 49.11 16.99 46.60 14.88 43.42 14.36 C 39.52 13.41 35.74 15.08 32.07 16.17 C 29.69 17.19 27.42 15.54 25.18 14.88 C 19.24 12.43 12.32 16.13 9.53 21.58 Z" />
</g>
<g id="#000000ff">
<path fill="#968176" opacity="1.00" d=" M 29.83 13.58 C 29.31 7.01 34.81 1.15 41.24 0.56 C 41.34 6.90 36.49 13.44 29.83 13.58 Z" />
<path fill="#968176" opacity="1.00" d=" M 9.53 21.58 C 12.32 16.13 19.24 12.43 25.18 14.88 C 27.42 15.54 29.69 17.19 32.07 16.17 C 35.74 15.08 39.52 13.41 43.42 14.36 C 46.60 14.88 49.11 16.99 51.12 19.36 C 47.72 21.87 44.93 25.63 45.06 30.04 C 44.94 35.01 48.38 39.22 52.56 41.51 C 50.39 46.55 47.80 51.89 43.22 55.15 C 38.79 57.83 34.57 53.01 30.01 53.78 C 26.30 54.26 22.50 57.49 18.82 55.07 C 14.37 51.77 11.43 46.73 9.51 41.60 C 7.26 35.24 6.34 27.79 9.53 21.58 Z" />
</g>
</svg>
