<?xml version="1.0" encoding="UTF-8" ?>
<!DOCTYPE svg PUBLIC "-//W3C//DTD SVG 1.1//EN" "http://www.w3.org/Graphics/SVG/1.1/DTD/svg11.dtd">
<svg width="200pt" height="200pt" viewBox="0 0 200 200" version="1.1" xmlns="http://www.w3.org/2000/svg">
<g id="#ffffffff">
<path fill="#ffffff" opacity="1.00" d=" M 0.00 0.00 L 200.00 0.00 L 200.00 200.00 L 0.00 200.00 L 0.00 0.00 M 56.95 49.96 C 53.77 56.38 54.95 64.01 53.03 70.80 C 43.86 75.91 33.24 78.34 24.73 84.67 C 18.64 89.28 16.70 97.20 11.13 102.24 C 9.68 103.77 10.07 106.24 11.56 107.60 C 11.03 109.38 10.39 111.54 11.79 113.12 C 14.70 116.10 19.20 116.01 22.98 117.05 C 28.96 118.32 33.69 122.48 39.28 124.74 C 57.99 132.86 79.31 132.51 98.93 128.18 C 103.05 127.10 106.59 129.74 109.56 132.21 C 118.40 138.95 130.71 141.10 141.23 137.39 C 145.88 135.85 149.21 130.92 148.11 125.99 C 147.25 121.23 142.47 118.93 138.48 117.20 C 144.81 116.80 151.84 115.83 157.43 119.57 C 163.86 123.56 171.29 126.92 179.04 125.97 C 185.21 124.86 188.43 118.47 189.56 112.87 C 190.46 106.43 190.11 99.62 187.73 93.52 C 186.12 89.31 182.40 85.70 177.75 85.33 C 170.14 84.88 162.01 85.15 155.32 89.24 C 151.43 91.73 146.32 92.87 142.20 90.21 C 143.12 86.16 143.66 81.95 142.84 77.84 C 141.52 69.68 135.16 62.24 126.93 60.58 C 120.45 59.60 114.39 62.82 108.92 65.87 C 104.92 68.11 99.55 68.46 96.37 64.72 C 91.84 63.34 88.86 59.66 85.62 56.45 C 83.65 52.90 80.61 49.93 77.11 47.93 C 73.70 47.51 70.29 47.21 67.04 46.01 C 63.74 47.49 60.70 49.63 56.95 49.96 M 61.59 132.43 C 64.51 136.15 67.52 139.80 70.86 143.14 C 75.91 147.98 81.62 153.44 88.95 153.97 C 92.28 151.86 91.90 147.37 92.12 143.95 C 92.21 139.78 92.26 134.41 88.28 131.91 C 79.42 132.86 70.48 133.49 61.59 132.43 Z" />
<path fill="#ffffff" opacity="1.00" d=" M 87.20 61.22 C 89.16 63.16 91.27 65.03 93.91 65.99 C 96.53 67.02 98.32 69.51 101.04 70.33 C 104.86 70.62 108.49 69.06 111.66 67.07 C 109.62 69.29 107.11 71.70 107.44 75.01 C 107.82 83.81 112.03 92.10 111.35 101.01 C 110.59 109.54 108.78 117.94 106.86 126.28 C 103.66 125.03 100.19 124.44 96.84 125.45 C 96.13 124.05 95.69 122.27 94.16 121.52 C 89.48 121.40 84.66 122.05 80.12 120.58 C 77.55 119.70 74.98 118.80 72.39 117.98 C 77.67 117.83 82.64 120.27 87.95 119.69 C 92.15 119.33 97.77 119.14 99.77 114.69 C 102.36 108.89 101.69 102.22 100.45 96.18 C 99.68 93.39 98.98 90.22 96.65 88.30 C 94.15 86.92 90.65 87.56 88.77 89.72 C 85.38 93.33 82.30 97.23 78.82 100.75 C 76.53 103.20 73.01 103.45 69.88 103.30 C 73.15 102.55 76.70 101.73 78.82 98.86 C 82.05 94.79 85.44 90.77 88.15 86.33 C 90.42 78.14 91.09 69.05 87.20 61.22 Z" />
<path fill="#ffffff" opacity="1.00" d=" M 35.94 80.25 C 41.17 78.27 46.21 74.23 51.97 74.67 C 58.03 78.48 61.90 85.30 63.38 92.21 C 65.43 102.94 62.62 114.11 57.64 123.65 C 54.94 128.04 49.05 125.75 45.23 124.34 C 50.69 118.30 52.35 109.70 50.72 101.85 C 49.31 93.02 45.06 83.33 35.94 80.25 Z" />
<path fill="#ffffff" opacity="1.00" d=" M 140.84 92.40 C 145.51 95.32 151.58 94.71 155.71 91.14 C 153.36 94.35 151.04 97.91 150.84 102.01 C 150.52 107.10 152.68 111.97 155.63 116.01 C 151.43 113.85 146.61 113.48 142.01 114.25 C 141.53 109.13 140.59 104.06 139.44 99.05 C 138.76 96.71 139.62 94.38 140.84 92.40 Z" />
<path fill="#ffffff" opacity="1.00" d=" M 30.41 92.45 C 33.12 90.19 37.75 91.69 38.59 95.12 C 39.98 99.12 35.25 103.28 31.46 101.35 C 27.93 99.96 27.31 94.62 30.41 92.45 M 32.05 93.11 C 29.53 94.16 29.25 98.04 31.61 99.42 C 33.67 100.92 36.85 99.44 37.17 96.96 C 37.71 94.23 34.53 91.79 32.05 93.11 Z" />
</g>
<g id="#000000ff">
<path fill="#968176" opacity="1.00" d=" M 56.95 49.96 C 60.70 49.63 63.74 47.49 67.04 46.01 C 70.29 47.21 73.70 47.51 77.11 47.93 C 80.61 49.93 83.65 52.90 85.62 56.45 C 88.86 59.66 91.84 63.34 96.37 64.72 C 99.55 68.46 104.92 68.11 108.92 65.87 C 114.39 62.82 120.45 59.60 126.93 60.58 C 135.16 62.24 141.52 69.68 142.84 77.84 C 143.66 81.95 143.12 86.16 142.20 90.21 C 146.32 92.87 151.43 91.73 155.32 89.24 C 162.01 85.15 170.14 84.88 177.75 85.33 C 182.40 85.70 186.12 89.31 187.73 93.52 C 190.11 99.62 190.46 106.43 189.56 112.87 C 188.43 118.47 185.21 124.86 179.04 125.97 C 171.29 126.92 163.86 123.56 157.43 119.57 C 151.84 115.83 144.81 116.80 138.48 117.20 C 142.47 118.93 147.25 121.23 148.11 125.99 C 149.21 130.92 145.88 135.85 141.23 137.39 C 130.71 141.10 118.40 138.95 109.56 132.21 C 106.59 129.74 103.05 127.10 98.93 128.18 C 79.31 132.51 57.99 132.86 39.28 124.74 C 33.69 122.48 28.96 118.32 22.98 117.05 C 19.20 116.01 14.70 116.10 11.79 113.12 C 10.39 111.54 11.03 109.38 11.56 107.60 C 10.07 106.24 9.68 103.77 11.13 102.24 C 16.70 97.20 18.64 89.28 24.73 84.67 C 33.24 78.34 43.86 75.91 53.03 70.80 C 54.95 64.01 53.77 56.38 56.95 49.96 M 87.20 61.22 C 91.09 69.05 90.42 78.14 88.15 86.33 C 85.44 90.77 82.05 94.79 78.82 98.86 C 76.70 101.73 73.15 102.55 69.88 103.30 C 73.01 103.45 76.53 103.20 78.82 100.75 C 82.30 97.23 85.38 93.33 88.77 89.72 C 90.65 87.56 94.15 86.92 96.65 88.30 C 98.98 90.22 99.68 93.39 100.45 96.18 C 101.69 102.22 102.36 108.89 99.77 114.69 C 97.77 119.14 92.15 119.33 87.95 119.69 C 82.64 120.27 77.67 117.83 72.39 117.98 C 74.98 118.80 77.55 119.70 80.12 120.58 C 84.66 122.05 89.48 121.40 94.16 121.52 C 95.69 122.27 96.13 124.05 96.84 125.45 C 100.19 124.44 103.66 125.03 106.86 126.28 C 108.78 117.94 110.59 109.54 111.35 101.01 C 112.03 92.10 107.82 83.81 107.44 75.01 C 107.11 71.70 109.62 69.29 111.66 67.07 C 108.49 69.06 104.86 70.62 101.04 70.33 C 98.32 69.51 96.53 67.02 93.91 65.99 C 91.27 65.03 89.16 63.16 87.20 61.22 M 35.94 80.25 C 45.06 83.33 49.31 93.02 50.72 101.85 C 52.35 109.70 50.69 118.30 45.23 124.34 C 49.05 125.75 54.94 128.04 57.64 123.65 C 62.62 114.11 65.43 102.94 63.38 92.21 C 61.90 85.30 58.03 78.48 51.97 74.67 C 46.21 74.23 41.17 78.27 35.94 80.25 M 140.84 92.40 C 139.62 94.38 138.76 96.71 139.44 99.05 C 140.59 104.06 141.53 109.13 142.01 114.25 C 146.61 113.48 151.43 113.85 155.63 116.01 C 152.68 111.97 150.52 107.10 150.84 102.01 C 151.04 97.91 153.36 94.35 155.71 91.14 C 151.58 94.71 145.51 95.32 140.84 92.40 M 30.41 92.45 C 27.31 94.62 27.93 99.96 31.46 101.35 C 35.25 103.28 39.98 99.12 38.59 95.12 C 37.75 91.69 33.12 90.19 30.41 92.45 Z" />
<path fill="#968176" opacity="1.00" d=" M 32.05 93.11 C 34.53 91.79 37.71 94.23 37.17 96.96 C 36.85 99.44 33.67 100.92 31.61 99.42 C 29.25 98.04 29.53 94.16 32.05 93.11 Z" />
<path fill="#968176" opacity="1.00" d=" M 61.59 132.43 C 70.48 133.49 79.42 132.86 88.28 131.91 C 92.26 134.41 92.21 139.78 92.12 143.95 C 91.90 147.37 92.28 151.86 88.95 153.97 C 81.62 153.44 75.91 147.98 70.86 143.14 C 67.52 139.80 64.51 136.15 61.59 132.43 Z" />
</g>
</svg>
