<?xml version="1.0" encoding="UTF-8" ?>
<!DOCTYPE svg PUBLIC "-//W3C//DTD SVG 1.1//EN" "http://www.w3.org/Graphics/SVG/1.1/DTD/svg11.dtd">
<svg width="64pt" height="64pt" viewBox="0 0 64 64" version="1.1" xmlns="http://www.w3.org/2000/svg">
<g id="#ffffffff">
<path fill="#ffffff" opacity="1.00" d=" M 0.00 0.00 L 64.00 0.00 L 64.00 64.00 L 0.00 64.00 L 0.00 0.00 M 27.88 12.00 C 23.23 12.06 18.58 11.89 13.93 12.05 C 11.84 11.97 9.97 13.86 10.05 15.94 C 9.92 23.69 10.03 31.43 10.01 39.17 C 8.17 41.04 6.16 42.76 4.60 44.88 C 2.72 47.89 5.38 52.22 8.91 51.96 C 24.30 52.03 39.71 52.03 55.11 51.96 C 58.62 52.19 61.26 47.89 59.39 44.88 C 57.86 42.74 55.84 41.03 53.99 39.17 C 54.01 35.52 54.00 31.88 54.00 28.23 C 56.64 27.68 59.44 26.07 59.84 23.16 C 60.17 18.75 60.01 14.30 59.95 9.88 C 60.00 6.77 57.22 3.97 54.10 4.05 C 47.05 4.02 39.97 3.84 32.93 4.14 C 29.17 4.61 27.61 8.65 27.88 12.00 Z" />
<path fill="#ffffff" opacity="1.00" d=" M 33.16 8.16 C 40.12 7.84 47.10 7.99 54.06 8.08 C 56.20 7.95 55.93 10.60 56.14 12.00 C 48.76 12.00 41.38 12.00 34.00 12.00 C 34.00 13.33 34.00 14.67 34.00 16.00 C 41.33 16.00 48.67 16.00 56.00 16.00 C 55.63 18.52 56.99 21.90 54.92 23.81 C 47.69 24.15 40.42 24.10 33.19 23.84 C 32.94 23.61 32.43 23.16 32.18 22.93 C 31.87 18.33 31.86 13.67 32.18 9.06 C 32.43 8.84 32.92 8.38 33.16 8.16 Z" />
<path fill="#ffffff" opacity="1.00" d=" M 14.00 16.00 C 18.67 16.00 23.34 16.00 28.00 16.00 C 27.96 20.09 27.08 26.02 32.04 27.65 C 37.97 28.45 44.02 27.79 50.00 28.00 C 50.00 31.33 50.00 34.67 50.00 38.00 C 38.00 38.00 26.00 38.00 14.00 38.00 C 14.00 30.67 14.00 23.33 14.00 16.00 Z" />
<path fill="#ffffff" opacity="1.00" d=" M 7.68 47.82 C 8.97 45.52 10.99 43.80 12.87 42.00 C 25.63 42.00 38.40 41.99 51.17 42.01 C 53.02 43.81 55.03 45.53 56.32 47.82 C 40.11 48.12 23.88 48.12 7.68 47.82 Z" />
</g>
<g id="#000000ff">
<path fill="#000000" opacity="1.00" d=" M 27.88 12.00 C 27.61 8.65 29.17 4.61 32.93 4.14 C 39.97 3.84 47.05 4.02 54.10 4.05 C 57.22 3.97 60.00 6.77 59.95 9.88 C 60.01 14.30 60.17 18.75 59.84 23.16 C 59.44 26.07 56.64 27.68 54.00 28.23 C 54.00 31.88 54.01 35.52 53.99 39.17 C 55.84 41.03 57.86 42.74 59.39 44.88 C 61.26 47.89 58.62 52.19 55.11 51.96 C 39.71 52.03 24.30 52.03 8.91 51.96 C 5.38 52.22 2.72 47.89 4.60 44.88 C 6.16 42.76 8.17 41.04 10.01 39.17 C 10.03 31.43 9.92 23.69 10.05 15.94 C 9.97 13.86 11.84 11.97 13.93 12.05 C 18.58 11.89 23.23 12.06 27.88 12.00 M 33.16 8.16 C 32.92 8.38 32.43 8.84 32.18 9.06 C 31.86 13.67 31.87 18.33 32.18 22.93 C 32.43 23.16 32.94 23.61 33.19 23.84 C 40.42 24.10 47.69 24.15 54.92 23.81 C 56.99 21.90 55.63 18.52 56.00 16.00 C 48.67 16.00 41.33 16.00 34.00 16.00 C 34.00 14.67 34.00 13.33 34.00 12.00 C 41.38 12.00 48.76 12.00 56.14 12.00 C 55.93 10.60 56.20 7.95 54.06 8.08 C 47.10 7.99 40.12 7.84 33.16 8.16 M 14.00 16.00 C 14.00 23.33 14.00 30.67 14.00 38.00 C 26.00 38.00 38.00 38.00 50.00 38.00 C 50.00 34.67 50.00 31.33 50.00 28.00 C 44.02 27.79 37.97 28.45 32.04 27.65 C 27.08 26.02 27.96 20.09 28.00 16.00 C 23.34 16.00 18.67 16.00 14.00 16.00 M 7.68 47.82 C 23.88 48.12 40.11 48.12 56.32 47.82 C 55.03 45.53 53.02 43.81 51.17 42.01 C 38.40 41.99 25.63 42.00 12.87 42.00 C 10.99 43.80 8.97 45.52 7.68 47.82 Z" />
</g>
</svg>
