<?xml version="1.0" encoding="UTF-8" ?>
<!DOCTYPE svg PUBLIC "-//W3C//DTD SVG 1.1//EN" "http://www.w3.org/Graphics/SVG/1.1/DTD/svg11.dtd">
<svg width="60pt" height="60pt" viewBox="0 0 60 60" version="1.1" xmlns="http://www.w3.org/2000/svg">
<g id="#ffffffff">
<path fill="#ffffff" opacity="1.00" d=" M 0.00 0.00 L 60.00 0.00 L 60.00 60.00 L 0.00 60.00 L 0.00 0.00 M 6.09 10.95 C 7.28 14.25 8.96 17.40 9.60 20.89 C 9.90 23.12 10.62 26.13 13.66 25.51 C 13.45 26.09 13.04 27.24 12.84 27.81 L 12.23 26.90 C 11.20 28.76 9.50 30.70 10.11 33.01 C 10.77 36.05 12.60 38.96 11.82 42.18 C 11.74 45.30 9.47 47.52 7.89 49.98 C 8.08 51.35 9.44 52.40 10.82 51.89 C 12.64 50.05 13.36 46.79 16.04 46.00 C 18.07 46.63 19.97 47.60 21.98 48.31 C 25.17 44.85 24.92 39.74 22.27 36.06 C 24.78 33.33 24.74 29.26 21.88 26.80 C 20.58 27.09 19.28 27.36 17.98 27.62 C 17.38 28.72 16.57 29.67 15.63 30.50 C 15.76 31.86 15.67 33.22 15.38 34.56 C 16.31 35.55 16.84 36.77 17.06 38.11 C 19.26 38.64 20.07 40.49 20.04 42.63 C 15.22 40.35 12.33 34.35 14.14 29.24 C 15.37 26.31 18.84 26.26 21.43 25.41 C 23.11 24.00 22.30 21.94 21.43 20.35 C 22.84 19.53 24.42 18.70 24.68 16.90 C 23.05 13.35 19.71 11.03 16.56 8.91 C 16.14 9.75 15.71 10.58 15.28 11.41 C 16.30 12.68 15.98 14.11 15.43 15.47 C 16.18 16.75 15.91 18.13 15.47 19.45 C 16.14 20.74 15.89 22.11 15.50 23.43 C 15.46 24.26 15.39 25.93 15.35 26.76 C 14.35 25.81 13.47 24.74 12.56 23.71 C 13.60 22.29 13.68 20.89 12.78 19.51 C 13.60 18.14 13.60 16.80 12.77 15.51 C 12.92 14.88 13.23 13.63 13.39 13.00 L 12.76 11.49 C 13.45 10.40 13.60 9.24 13.22 8.02 C 10.79 8.00 6.70 7.93 6.09 10.95 M 46.88 8.04 C 46.96 8.91 47.13 10.64 47.22 11.51 C 46.43 12.81 46.42 14.15 47.20 15.53 C 46.43 16.81 46.42 18.14 47.19 19.51 C 46.35 20.87 46.41 22.26 47.37 23.67 C 46.98 24.20 46.21 25.26 45.82 25.79 C 47.57 25.63 49.86 25.14 49.91 22.96 C 50.63 18.74 52.34 14.84 53.94 10.91 C 53.19 7.97 49.31 7.97 46.88 8.04 M 35.32 16.91 C 35.58 18.72 37.16 19.54 38.58 20.36 C 36.54 22.68 37.86 26.82 41.48 26.01 C 42.28 28.25 39.17 27.28 38.00 26.79 C 35.34 29.36 35.20 33.30 37.69 36.04 C 35.11 39.76 34.81 44.84 38.00 48.31 C 40.25 47.75 42.32 45.99 44.66 46.15 C 46.69 47.62 47.59 50.09 49.20 51.94 C 50.61 52.31 51.86 51.40 52.10 50.00 C 50.53 47.52 48.25 45.29 48.17 42.16 C 46.89 37.63 51.87 33.27 49.08 28.97 C 48.14 26.26 42.26 26.88 44.54 23.44 C 44.08 22.12 43.87 20.75 44.55 19.46 C 43.89 18.17 44.01 16.79 44.54 15.49 C 43.87 14.12 43.95 12.66 44.71 11.35 C 44.39 10.74 43.75 9.53 43.42 8.93 C 40.29 11.04 36.93 13.36 35.32 16.91 M 26.94 22.40 C 27.70 28.20 27.50 34.21 29.00 39.87 C 32.06 40.87 31.63 36.92 31.94 35.03 C 31.97 30.77 32.96 26.60 33.04 22.35 C 31.96 20.93 31.74 18.63 29.96 17.88 C 28.25 18.74 27.98 20.95 26.94 22.40 Z" />
<path fill="#ffffff" opacity="1.00" d=" M 44.38 30.45 C 42.78 29.56 41.31 27.83 43.77 27.08 C 48.01 29.63 46.05 35.07 44.97 38.80 C 43.24 37.54 42.63 36.09 44.60 34.52 C 44.31 33.18 44.26 31.81 44.38 30.45 Z" />
<path fill="#ffffff" opacity="1.00" d=" M 40.23 42.73 C 40.18 41.16 40.35 39.62 41.38 38.36 C 42.25 38.84 43.11 39.33 43.97 39.83 C 43.04 40.55 41.17 42.00 40.23 42.73 Z" />
</g>
<g id="#000000ff">
<path fill="#000000" opacity="1.00" d=" M 6.09 10.95 C 6.70 7.93 10.79 8.00 13.22 8.02 C 13.60 9.24 13.45 10.40 12.76 11.49 L 13.39 13.00 C 13.23 13.63 12.92 14.88 12.77 15.51 C 13.60 16.80 13.60 18.14 12.78 19.51 C 13.68 20.89 13.60 22.29 12.56 23.71 C 13.47 24.74 14.35 25.81 15.35 26.76 C 15.39 25.93 15.46 24.26 15.50 23.43 C 15.89 22.11 16.14 20.74 15.47 19.45 C 15.91 18.13 16.18 16.75 15.43 15.47 C 15.98 14.11 16.30 12.68 15.28 11.41 C 15.71 10.58 16.14 9.75 16.56 8.91 C 19.71 11.03 23.05 13.35 24.68 16.90 C 24.42 18.70 22.84 19.53 21.43 20.35 C 22.30 21.94 23.11 24.00 21.43 25.41 C 18.84 26.26 15.37 26.31 14.14 29.24 C 12.33 34.35 15.22 40.35 20.04 42.63 C 20.07 40.49 19.26 38.64 17.06 38.11 C 16.84 36.77 16.31 35.55 15.38 34.56 C 15.67 33.22 15.76 31.86 15.63 30.50 C 16.57 29.67 17.38 28.72 17.98 27.62 C 19.28 27.36 20.58 27.09 21.88 26.80 C 24.74 29.26 24.78 33.33 22.27 36.06 C 24.92 39.74 25.17 44.85 21.98 48.31 C 19.97 47.60 18.07 46.63 16.04 46.00 C 13.36 46.79 12.64 50.05 10.82 51.89 C 9.44 52.40 8.08 51.35 7.89 49.98 C 9.47 47.52 11.74 45.30 11.82 42.18 C 12.60 38.96 10.77 36.05 10.11 33.01 C 9.50 30.70 11.20 28.76 12.23 26.90 L 12.84 27.81 C 13.04 27.24 13.45 26.09 13.66 25.51 C 10.62 26.13 9.90 23.12 9.60 20.89 C 8.96 17.40 7.28 14.25 6.09 10.95 Z" />
<path fill="#000000" opacity="1.00" d=" M 46.88 8.04 C 49.31 7.97 53.19 7.97 53.94 10.91 C 52.34 14.84 50.63 18.74 49.91 22.96 C 49.86 25.14 47.57 25.63 45.82 25.79 C 46.21 25.26 46.98 24.20 47.37 23.67 C 46.41 22.26 46.35 20.87 47.19 19.51 C 46.42 18.14 46.43 16.81 47.20 15.53 C 46.42 14.15 46.43 12.81 47.22 11.51 C 47.13 10.64 46.96 8.91 46.88 8.04 Z" />
<path fill="#000000" opacity="1.00" d=" M 35.32 16.91 C 36.93 13.36 40.29 11.04 43.42 8.93 C 43.75 9.53 44.39 10.74 44.71 11.35 C 43.95 12.66 43.87 14.12 44.54 15.49 C 44.01 16.79 43.89 18.17 44.55 19.46 C 43.87 20.75 44.08 22.12 44.54 23.44 C 42.26 26.88 48.14 26.26 49.08 28.97 C 51.87 33.27 46.89 37.63 48.17 42.16 C 48.25 45.29 50.53 47.52 52.10 50.00 C 51.86 51.40 50.61 52.31 49.20 51.94 C 47.59 50.09 46.69 47.62 44.66 46.15 C 42.32 45.99 40.25 47.75 38.00 48.31 C 34.81 44.84 35.11 39.76 37.69 36.04 C 35.20 33.30 35.34 29.36 38.00 26.79 C 39.17 27.28 42.28 28.25 41.48 26.01 C 37.86 26.82 36.54 22.68 38.58 20.36 C 37.16 19.54 35.58 18.72 35.32 16.91 M 44.38 30.45 C 44.26 31.81 44.31 33.18 44.60 34.52 C 42.63 36.09 43.24 37.54 44.97 38.80 C 46.05 35.07 48.01 29.63 43.77 27.08 C 41.31 27.83 42.78 29.56 44.38 30.45 M 40.23 42.73 C 41.17 42.00 43.04 40.55 43.97 39.83 C 43.11 39.33 42.25 38.84 41.38 38.36 C 40.35 39.62 40.18 41.16 40.23 42.73 Z" />
<path fill="#000000" opacity="1.00" d=" M 26.94 22.40 C 27.98 20.95 28.25 18.74 29.96 17.88 C 31.74 18.63 31.96 20.93 33.04 22.35 C 32.96 26.60 31.97 30.77 31.94 35.03 C 31.63 36.92 32.06 40.87 29.00 39.87 C 27.50 34.21 27.70 28.20 26.94 22.40 Z" />
</g>
</svg>
