<?xml version="1.0" encoding="UTF-8" ?>
<!DOCTYPE svg PUBLIC "-//W3C//DTD SVG 1.1//EN" "http://www.w3.org/Graphics/SVG/1.1/DTD/svg11.dtd">
<svg width="60pt" height="60pt" viewBox="0 0 60 60" version="1.1" xmlns="http://www.w3.org/2000/svg">
<g id="#ffffffff">
<path fill="#ffffff" opacity="1.00" d=" M 0.00 0.00 L 60.00 0.00 L 60.00 60.00 L 0.00 60.00 L 0.00 0.00 M 37.01 11.90 C 35.94 13.97 36.14 16.42 35.51 18.63 C 33.67 21.45 30.28 22.59 27.83 24.75 C 25.01 28.11 23.72 32.52 20.73 35.77 C 15.95 40.99 10.82 45.90 6.15 51.22 C 5.24 53.19 7.97 54.96 9.39 53.37 C 15.67 47.66 21.89 41.89 28.02 36.03 C 31.82 32.46 33.76 26.70 39.05 24.94 C 43.40 23.22 48.27 22.15 51.89 19.06 C 51.80 15.64 52.71 11.73 51.37 8.59 C 48.19 7.27 44.31 8.29 40.87 8.08 C 39.68 9.45 38.12 10.46 37.01 11.90 Z" />
<path fill="#ffffff" opacity="1.00" d=" M 43.35 12.00 C 44.90 12.01 46.45 12.01 48.01 11.99 C 47.99 13.54 47.99 15.10 48.00 16.65 C 46.15 16.95 44.29 17.25 42.44 17.56 C 42.75 15.71 43.05 13.86 43.35 12.00 Z" />
</g>
<g id="#000000ff">
<path fill="#000000" opacity="1.00" d=" M 37.01 11.90 C 38.12 10.46 39.68 9.45 40.87 8.08 C 44.31 8.29 48.19 7.27 51.37 8.59 C 52.71 11.73 51.80 15.64 51.89 19.06 C 48.27 22.15 43.40 23.22 39.05 24.94 C 33.76 26.70 31.82 32.46 28.02 36.03 C 21.89 41.89 15.67 47.66 9.39 53.37 C 7.97 54.96 5.24 53.19 6.15 51.22 C 10.82 45.90 15.95 40.99 20.73 35.77 C 23.72 32.52 25.01 28.11 27.83 24.75 C 30.28 22.59 33.67 21.45 35.51 18.63 C 36.14 16.42 35.94 13.97 37.01 11.90 M 43.35 12.00 C 43.05 13.86 42.75 15.71 42.44 17.56 C 44.29 17.25 46.15 16.95 48.00 16.65 C 47.99 15.10 47.99 13.54 48.01 11.99 C 46.45 12.01 44.90 12.01 43.35 12.00 Z" />
</g>
</svg>
