<?xml version="1.0" encoding="UTF-8" ?>
<!DOCTYPE svg PUBLIC "-//W3C//DTD SVG 1.1//EN" "http://www.w3.org/Graphics/SVG/1.1/DTD/svg11.dtd">
<svg width="64pt" height="64pt" viewBox="0 0 64 64" version="1.1" xmlns="http://www.w3.org/2000/svg">
<g id="#ffffffff">
<path fill="#ffffff" opacity="1.00" d=" M 0.00 0.00 L 64.00 0.00 L 64.00 64.00 L 0.00 64.00 L 0.00 0.00 M 25.79 17.95 C 26.09 18.46 26.70 19.48 27.00 19.99 C 24.09 21.71 22.89 24.97 21.80 27.98 C 25.88 28.01 29.97 28.02 34.06 27.97 C 33.00 24.98 31.90 21.68 28.98 20.02 C 29.29 19.50 29.90 18.47 30.21 17.95 C 29.64 15.48 26.36 15.48 25.79 17.95 M 1.71 30.01 C 2.13 38.76 9.14 46.63 17.93 47.58 C 20.89 47.65 23.36 49.41 26.20 49.99 C 23.69 50.55 21.34 51.75 19.81 53.87 C 25.25 54.11 30.70 54.02 36.14 53.93 C 34.61 51.58 31.99 50.35 29.27 49.98 C 36.48 49.55 41.74 44.26 46.77 39.71 C 49.10 37.43 52.58 37.83 55.43 36.69 C 58.47 35.60 61.72 33.54 62.15 30.04 C 60.85 30.02 59.55 30.01 58.25 30.01 C 56.07 32.81 52.41 33.71 49.03 33.95 C 44.68 34.16 39.91 33.31 36.78 30.02 C 25.09 29.98 13.40 30.00 1.71 30.01 Z" />
<path fill="#ffffff" opacity="1.00" d=" M 6.58 34.03 C 9.05 33.99 11.51 33.99 13.98 34.01 C 14.27 37.28 15.19 40.44 16.60 43.40 C 11.94 42.15 8.16 38.57 6.58 34.03 Z" />
<path fill="#ffffff" opacity="1.00" d=" M 17.95 34.03 C 23.65 34.01 29.35 33.95 35.04 34.03 C 37.51 35.68 40.20 36.85 43.08 37.59 C 38.44 41.96 32.86 47.17 25.91 45.78 C 20.53 44.74 18.56 38.79 17.95 34.03 Z" />
</g>
<g id="#000000ff">
<path fill="#000000" opacity="1.00" d=" M 25.79 17.95 C 26.36 15.48 29.64 15.48 30.21 17.95 C 29.90 18.47 29.29 19.50 28.98 20.02 C 31.90 21.68 33.00 24.98 34.06 27.97 C 29.97 28.02 25.88 28.01 21.80 27.98 C 22.89 24.97 24.09 21.71 27.00 19.99 C 26.70 19.48 26.09 18.46 25.79 17.95 Z" />
<path fill="#000000" opacity="1.00" d=" M 1.71 30.01 C 13.40 30.00 25.09 29.98 36.78 30.02 C 39.91 33.31 44.68 34.16 49.03 33.95 C 52.41 33.71 56.07 32.81 58.25 30.01 C 59.55 30.01 60.85 30.02 62.15 30.04 C 61.72 33.54 58.47 35.60 55.43 36.69 C 52.58 37.83 49.10 37.43 46.77 39.71 C 41.74 44.26 36.48 49.55 29.27 49.98 C 31.99 50.35 34.61 51.58 36.14 53.93 C 30.70 54.02 25.25 54.11 19.81 53.87 C 21.34 51.75 23.69 50.55 26.20 49.99 C 23.36 49.41 20.89 47.65 17.93 47.58 C 9.14 46.63 2.13 38.76 1.71 30.01 M 6.58 34.03 C 8.16 38.57 11.94 42.15 16.60 43.40 C 15.19 40.44 14.27 37.28 13.98 34.01 C 11.51 33.99 9.05 33.99 6.58 34.03 M 17.95 34.03 C 18.56 38.79 20.53 44.74 25.91 45.78 C 32.86 47.17 38.44 41.96 43.08 37.59 C 40.20 36.85 37.51 35.68 35.04 34.03 C 29.35 33.95 23.65 34.01 17.95 34.03 Z" />
</g>
</svg>
