<?xml version="1.0" encoding="UTF-8" ?>
<!DOCTYPE svg PUBLIC "-//W3C//DTD SVG 1.1//EN" "http://www.w3.org/Graphics/SVG/1.1/DTD/svg11.dtd">
<svg width="60pt" height="60pt" viewBox="0 0 60 60" version="1.1" xmlns="http://www.w3.org/2000/svg">
<g id="#ffffffff">
<path fill="#ffffff" opacity="1.00" d=" M 0.00 0.00 L 60.00 0.00 L 60.00 60.00 L 0.00 60.00 L 0.00 0.00 M 14.02 12.12 C 7.33 17.96 4.43 27.69 6.85 36.24 C 8.00 40.90 10.88 44.87 14.26 48.19 C 13.25 49.82 10.62 52.23 13.10 53.83 C 24.35 54.12 35.65 54.13 46.90 53.82 C 49.38 52.23 46.76 49.84 45.75 48.21 C 51.01 43.30 54.39 36.25 53.96 28.96 C 53.67 19.59 47.29 10.81 38.51 7.57 C 30.34 4.38 20.50 6.19 14.02 12.12 M 51.22 8.17 C 48.77 9.00 50.46 12.96 52.72 11.82 C 55.27 11.07 53.52 6.96 51.22 8.17 Z" />
<path fill="#ffffff" opacity="1.00" d=" M 19.15 13.19 C 25.96 8.68 35.54 9.01 42.01 14.01 C 48.38 18.67 51.42 27.32 49.35 34.94 C 48.34 39.39 45.47 43.08 42.10 46.03 C 34.07 45.98 26.03 45.97 17.99 46.04 C 13.46 42.41 10.26 37.00 10.05 31.11 C 9.55 24.07 13.19 16.97 19.15 13.19 M 25.44 14.66 C 21.98 15.75 18.72 17.91 16.86 21.07 C 16.90 22.51 17.63 23.33 19.05 23.53 C 21.43 22.20 23.00 19.66 25.67 18.80 C 27.56 18.23 29.58 18.15 31.42 17.41 C 32.43 16.49 32.03 14.83 30.92 14.19 C 29.10 13.80 27.21 14.18 25.44 14.66 M 37.96 21.94 C 36.67 22.41 35.37 22.86 34.12 23.42 C 33.74 25.51 36.69 25.22 37.95 26.05 C 38.41 27.32 38.85 28.60 39.40 29.84 C 41.50 30.34 41.22 27.30 42.05 26.05 C 43.31 25.59 44.59 25.16 45.81 24.61 C 46.41 22.50 43.29 22.78 42.04 21.95 C 41.59 20.68 41.15 19.39 40.61 18.16 C 38.49 17.68 38.77 20.67 37.96 21.94 M 15.25 28.08 C 12.83 28.99 14.39 32.96 16.73 31.82 C 19.20 30.99 17.60 27.13 15.25 28.08 M 31.25 35.25 C 30.21 35.66 29.17 36.08 28.13 36.52 C 27.72 38.24 30.25 38.00 31.24 38.75 C 32.00 39.74 31.76 42.20 33.45 41.90 C 33.90 40.85 34.34 39.80 34.75 38.75 C 35.80 38.34 36.84 37.92 37.87 37.47 C 38.26 35.76 35.74 36.00 34.75 35.25 C 34.35 34.21 33.92 33.17 33.48 32.15 C 31.75 31.70 32.00 34.26 31.25 35.25 Z" />
</g>
<g id="#000000ff">
<path fill="#000000" opacity="1.00" d=" M 14.02 12.12 C 20.50 6.19 30.34 4.38 38.51 7.57 C 47.29 10.81 53.67 19.59 53.96 28.96 C 54.39 36.25 51.01 43.30 45.75 48.21 C 46.76 49.84 49.38 52.23 46.90 53.82 C 35.65 54.13 24.35 54.12 13.10 53.83 C 10.62 52.23 13.25 49.82 14.26 48.19 C 10.88 44.87 8.00 40.90 6.85 36.24 C 4.43 27.69 7.33 17.96 14.02 12.12 M 19.15 13.19 C 13.19 16.97 9.55 24.07 10.05 31.11 C 10.26 37.00 13.46 42.41 17.99 46.04 C 26.03 45.97 34.07 45.98 42.10 46.03 C 45.47 43.08 48.34 39.39 49.35 34.94 C 51.42 27.32 48.38 18.67 42.01 14.01 C 35.54 9.01 25.96 8.68 19.15 13.19 Z" />
<path fill="#000000" opacity="1.00" d=" M 51.22 8.17 C 53.52 6.96 55.27 11.07 52.72 11.82 C 50.46 12.96 48.77 9.00 51.22 8.17 Z" />
<path fill="#000000" opacity="1.00" d=" M 25.44 14.66 C 27.21 14.18 29.10 13.80 30.92 14.19 C 32.03 14.83 32.43 16.49 31.42 17.41 C 29.58 18.15 27.56 18.23 25.67 18.80 C 23.00 19.66 21.43 22.20 19.05 23.53 C 17.63 23.33 16.90 22.51 16.86 21.07 C 18.72 17.91 21.98 15.75 25.44 14.66 Z" />
<path fill="#000000" opacity="1.00" d=" M 37.96 21.94 C 38.77 20.67 38.49 17.68 40.61 18.16 C 41.15 19.39 41.59 20.68 42.04 21.95 C 43.29 22.78 46.41 22.50 45.81 24.61 C 44.59 25.16 43.31 25.59 42.05 26.05 C 41.22 27.30 41.50 30.34 39.40 29.84 C 38.85 28.60 38.41 27.32 37.95 26.05 C 36.69 25.22 33.74 25.51 34.12 23.42 C 35.37 22.86 36.67 22.41 37.96 21.94 Z" />
<path fill="#000000" opacity="1.00" d=" M 15.25 28.08 C 17.60 27.13 19.20 30.99 16.73 31.82 C 14.39 32.96 12.83 28.99 15.25 28.08 Z" />
<path fill="#000000" opacity="1.00" d=" M 31.25 35.25 C 32.00 34.26 31.75 31.70 33.48 32.15 C 33.92 33.17 34.35 34.21 34.75 35.25 C 35.74 36.00 38.26 35.76 37.87 37.47 C 36.84 37.92 35.80 38.34 34.75 38.75 C 34.34 39.80 33.90 40.85 33.45 41.90 C 31.76 42.20 32.00 39.74 31.24 38.75 C 30.25 38.00 27.72 38.24 28.13 36.52 C 29.17 36.08 30.21 35.66 31.25 35.25 Z" />
</g>
</svg>
