<?xml version="1.0" encoding="UTF-8" ?>
<!DOCTYPE svg PUBLIC "-//W3C//DTD SVG 1.1//EN" "http://www.w3.org/Graphics/SVG/1.1/DTD/svg11.dtd">
<svg width="60pt" height="60pt" viewBox="0 0 60 60" version="1.1" xmlns="http://www.w3.org/2000/svg">
<g id="#ffffffff">
<path fill="#ffffff" opacity="1.00" d=" M 0.00 0.00 L 60.00 0.00 L 60.00 60.00 L 0.00 60.00 L 0.00 0.00 M 4.00 10.95 C 4.10 22.96 3.79 34.99 4.15 46.99 C 4.93 50.44 9.03 50.08 11.74 50.03 C 12.10 48.24 12.71 45.92 15.01 45.99 C 17.28 45.95 17.90 48.23 18.25 50.00 C 26.08 50.00 33.91 50.00 41.74 50.00 C 42.12 48.27 42.69 45.91 44.96 46.03 C 47.28 45.85 47.89 48.27 48.26 50.03 C 51.00 50.09 55.00 50.42 55.84 47.00 C 56.22 36.33 55.90 25.62 56.00 14.93 C 56.32 12.60 54.64 9.94 52.10 10.05 C 42.23 9.90 32.35 10.08 22.48 9.98 C 21.41 8.62 20.69 6.62 18.83 6.18 C 15.19 5.81 11.53 5.97 7.88 6.05 C 5.37 6.00 3.65 8.61 4.00 10.95 Z" />
<path fill="#ffffff" opacity="1.00" d=" M 16.48 17.99 C 25.51 18.01 34.53 17.99 43.56 18.00 C 38.94 21.20 34.93 25.51 29.92 28.01 C 25.07 25.27 21.02 21.23 16.48 17.99 Z" />
<path fill="#ffffff" opacity="1.00" d=" M 14.01 21.16 C 18.14 24.29 22.15 27.59 26.32 30.69 C 28.40 32.41 31.55 32.39 33.65 30.72 C 37.85 27.64 41.88 24.34 46.00 21.15 C 46.00 26.77 46.00 32.39 46.00 38.00 C 35.33 38.00 24.67 38.00 14.00 38.00 C 14.00 32.39 13.99 26.77 14.01 21.16 Z" />
</g>
<g id="#000000ff">
<path fill="#968176" opacity="1.00" d=" M 4.00 10.95 C 3.65 8.61 5.37 6.00 7.88 6.05 C 11.53 5.97 15.19 5.81 18.83 6.18 C 20.69 6.62 21.41 8.62 22.48 9.98 C 32.35 10.08 42.23 9.90 52.10 10.05 C 54.64 9.94 56.32 12.60 56.00 14.93 C 55.90 25.62 56.22 36.33 55.84 47.00 C 55.00 50.42 51.00 50.09 48.26 50.03 C 47.89 48.27 47.28 45.85 44.96 46.03 C 42.69 45.91 42.12 48.27 41.74 50.00 C 33.91 50.00 26.08 50.00 18.25 50.00 C 17.90 48.23 17.28 45.95 15.01 45.99 C 12.71 45.92 12.10 48.24 11.74 50.03 C 9.03 50.08 4.93 50.44 4.15 46.99 C 3.79 34.99 4.10 22.96 4.00 10.95 M 16.48 17.99 C 21.02 21.23 25.07 25.27 29.92 28.01 C 34.93 25.51 38.94 21.20 43.56 18.00 C 34.53 17.99 25.51 18.01 16.48 17.99 M 14.01 21.16 C 13.99 26.77 14.00 32.39 14.00 38.00 C 24.67 38.00 35.33 38.00 46.00 38.00 C 46.00 32.39 46.00 26.77 46.00 21.15 C 41.88 24.34 37.85 27.64 33.65 30.72 C 31.55 32.39 28.40 32.41 26.32 30.69 C 22.15 27.59 18.14 24.29 14.01 21.16 Z" />
</g>
</svg>
