<?xml version="1.0" encoding="UTF-8" ?>
<!DOCTYPE svg PUBLIC "-//W3C//DTD SVG 1.1//EN" "http://www.w3.org/Graphics/SVG/1.1/DTD/svg11.dtd">
<svg width="64pt" height="64pt" viewBox="0 0 64 64" version="1.1" xmlns="http://www.w3.org/2000/svg">
<g id="#ffffffff">
<path fill="#ffffff" opacity="1.00" d=" M 0.00 0.00 L 64.00 0.00 L 64.00 64.00 L 0.00 64.00 L 0.00 0.00 M 14.11 17.88 C 11.22 17.78 7.94 19.57 8.07 22.83 C 7.89 32.55 8.06 42.28 8.00 52.00 C 11.33 52.00 14.67 52.00 18.00 52.00 C 18.00 50.67 18.00 49.33 18.00 48.00 C 27.33 48.00 36.67 48.00 46.00 48.00 C 46.00 49.33 46.00 50.67 46.00 52.00 C 49.33 52.00 52.67 52.00 56.00 52.00 C 55.94 40.64 56.10 29.27 55.94 17.91 C 56.03 14.81 53.26 11.99 50.15 12.06 C 43.44 11.86 36.72 12.12 30.01 11.96 C 28.52 12.09 26.66 11.54 25.53 12.85 C 21.01 10.50 15.74 13.33 14.11 17.88 Z" />
<path fill="#ffffff" opacity="1.00" d=" M 20.34 16.35 C 22.84 15.09 26.10 17.17 26.00 19.97 C 26.19 23.10 22.19 25.18 19.71 23.29 C 17.18 21.71 17.57 17.44 20.34 16.35 Z" />
<path fill="#ffffff" opacity="1.00" d=" M 30.00 16.00 C 36.96 16.14 43.93 15.74 50.88 16.18 C 52.33 16.91 51.83 18.65 52.03 19.94 C 52.00 25.30 51.99 30.65 52.00 36.00 C 44.67 36.00 37.33 36.00 30.00 36.00 C 30.00 29.33 30.00 22.67 30.00 16.00 M 34.36 26.84 C 36.23 29.47 38.82 31.46 41.00 33.82 C 43.11 31.57 45.53 29.60 47.43 27.15 C 48.92 25.18 47.09 22.23 44.80 22.04 C 43.31 21.76 42.23 22.99 40.97 23.51 C 40.03 22.99 39.06 22.52 38.07 22.10 C 35.53 21.31 33.08 24.57 34.36 26.84 Z" />
<path fill="#ffffff" opacity="1.00" d=" M 12.01 22.32 C 12.50 22.31 13.49 22.29 13.99 22.28 C 13.99 28.19 14.01 34.10 14.00 40.00 C 26.66 39.99 39.33 40.01 52.00 40.00 C 52.00 42.66 51.99 45.33 52.00 48.00 C 51.50 48.00 50.50 48.00 50.00 48.00 C 50.00 46.67 50.00 45.33 50.00 44.00 C 38.00 44.00 26.00 44.00 14.00 44.00 C 14.00 45.33 14.00 46.67 14.00 48.00 C 13.50 48.00 12.50 48.00 12.00 48.00 C 12.00 39.44 11.99 30.88 12.01 22.32 Z" />
<path fill="#ffffff" opacity="1.00" d=" M 20.33 28.35 C 22.83 27.09 26.11 29.17 26.00 31.98 C 26.18 35.11 22.17 37.19 19.70 35.28 C 17.19 33.70 17.57 29.46 20.33 28.35 Z" />
</g>
<g id="#000000ff">
<path fill="#000000" opacity="1.00" d=" M 14.11 17.88 C 15.74 13.33 21.01 10.50 25.53 12.85 C 26.66 11.54 28.52 12.09 30.01 11.96 C 36.72 12.12 43.44 11.86 50.15 12.06 C 53.26 11.99 56.03 14.81 55.94 17.91 C 56.10 29.27 55.94 40.64 56.00 52.00 C 52.67 52.00 49.33 52.00 46.00 52.00 C 46.00 50.67 46.00 49.33 46.00 48.00 C 36.67 48.00 27.33 48.00 18.00 48.00 C 18.00 49.33 18.00 50.67 18.00 52.00 C 14.67 52.00 11.33 52.00 8.00 52.00 C 8.06 42.28 7.89 32.55 8.07 22.83 C 7.94 19.57 11.22 17.78 14.11 17.88 M 20.34 16.35 C 17.57 17.44 17.18 21.71 19.71 23.29 C 22.19 25.18 26.19 23.10 26.00 19.97 C 26.10 17.17 22.84 15.09 20.34 16.35 M 30.00 16.00 C 30.00 22.67 30.00 29.33 30.00 36.00 C 37.33 36.00 44.67 36.00 52.00 36.00 C 51.99 30.65 52.00 25.30 52.03 19.94 C 51.83 18.65 52.33 16.91 50.88 16.18 C 43.93 15.74 36.96 16.14 30.00 16.00 M 12.01 22.32 C 11.99 30.88 12.00 39.44 12.00 48.00 C 12.50 48.00 13.50 48.00 14.00 48.00 C 14.00 46.67 14.00 45.33 14.00 44.00 C 26.00 44.00 38.00 44.00 50.00 44.00 C 50.00 45.33 50.00 46.67 50.00 48.00 C 50.50 48.00 51.50 48.00 52.00 48.00 C 51.99 45.33 52.00 42.66 52.00 40.00 C 39.33 40.01 26.66 39.99 14.00 40.00 C 14.01 34.10 13.99 28.19 13.99 22.28 C 13.49 22.29 12.50 22.31 12.01 22.32 M 20.33 28.35 C 17.57 29.46 17.19 33.70 19.70 35.28 C 22.17 37.19 26.18 35.11 26.00 31.98 C 26.11 29.17 22.83 27.09 20.33 28.35 Z" />
<path fill="#000000" opacity="1.00" d=" M 34.36 26.84 C 33.08 24.57 35.53 21.31 38.07 22.10 C 39.06 22.52 40.03 22.99 40.97 23.51 C 42.23 22.99 43.31 21.76 44.80 22.04 C 47.09 22.23 48.92 25.18 47.43 27.15 C 45.53 29.60 43.11 31.57 41.00 33.82 C 38.82 31.46 36.23 29.47 34.36 26.84 Z" />
</g>
</svg>
