<?xml version="1.0" encoding="UTF-8" ?>
<!DOCTYPE svg PUBLIC "-//W3C//DTD SVG 1.1//EN" "http://www.w3.org/Graphics/SVG/1.1/DTD/svg11.dtd">
<svg width="60pt" height="60pt" viewBox="0 0 60 60" version="1.1" xmlns="http://www.w3.org/2000/svg">
<g id="#ffffffff">
<path fill="#ffffff" opacity="1.00" d=" M 0.00 0.00 L 60.00 0.00 L 60.00 60.00 L 0.00 60.00 L 0.00 0.00 M 27.40 4.59 C 23.46 6.29 22.84 12.27 26.34 14.74 C 29.65 17.55 35.36 15.33 35.90 11.02 C 36.93 6.45 31.53 2.35 27.40 4.59 M 16.19 7.10 C 15.86 10.37 15.83 13.72 16.24 16.99 C 17.06 20.64 21.15 21.64 24.00 23.25 C 24.01 32.17 23.99 41.09 23.99 50.01 C 24.07 51.36 23.75 53.07 25.16 53.86 C 26.49 54.38 28.08 53.53 28.05 52.02 C 28.64 47.25 28.53 42.41 29.30 37.66 C 29.68 37.90 30.43 38.36 30.80 38.60 C 31.63 43.29 31.26 48.13 32.10 52.83 C 32.83 54.80 36.06 54.08 35.93 52.01 C 36.12 42.43 35.93 32.84 36.00 23.25 C 38.20 22.08 40.63 21.22 42.46 19.48 C 44.56 17.19 43.89 13.84 44.04 11.01 C 43.84 9.36 44.49 7.18 42.85 6.10 C 41.66 5.78 40.78 6.13 40.21 7.15 C 39.60 10.29 40.51 13.62 39.62 16.69 C 34.19 21.28 25.78 21.24 20.34 16.68 C 19.56 13.56 20.34 10.26 19.82 7.08 C 19.09 5.65 16.89 5.61 16.19 7.10 M 46.81 19.00 C 45.78 21.86 49.42 23.96 48.85 26.81 C 45.07 27.81 45.41 22.82 43.32 21.04 C 42.86 22.92 42.86 24.81 43.33 26.68 C 43.00 27.01 42.33 27.67 42.00 28.00 C 42.66 28.67 43.32 29.34 44.00 30.00 C 44.33 29.66 45.01 28.99 45.34 28.65 C 48.32 30.52 53.41 27.83 51.11 24.20 C 50.48 22.73 47.58 19.06 50.90 19.17 C 52.62 19.79 52.81 21.59 52.91 23.17 C 53.40 23.47 54.38 24.06 54.87 24.36 C 54.88 22.11 54.73 19.76 55.68 17.65 C 55.34 17.32 54.68 16.67 54.35 16.34 C 51.93 17.63 48.16 16.01 46.81 19.00 M 6.36 23.64 C 7.54 26.09 6.05 29.85 9.03 31.20 C 11.93 32.18 13.99 28.51 16.90 29.18 C 17.49 31.74 14.99 33.10 12.78 33.03 C 12.42 33.54 11.69 34.57 11.33 35.08 C 13.12 35.10 14.91 34.97 16.68 34.69 C 17.01 35.01 17.68 35.67 18.01 35.99 C 18.68 35.32 19.35 34.65 20.02 33.98 C 19.68 33.65 18.99 32.99 18.65 32.66 C 19.05 30.74 19.84 28.23 17.76 26.95 C 14.82 24.14 11.34 30.88 9.03 27.74 C 9.34 25.63 11.34 25.07 13.19 25.08 C 13.46 24.58 14.00 23.58 14.26 23.08 C 12.04 23.05 9.70 23.39 7.65 22.31 C 7.33 22.65 6.68 23.31 6.36 23.64 Z" />
</g>
<g id="#000000ff">
<path fill="#000000" opacity="1.00" d=" M 27.40 4.59 C 31.53 2.35 36.93 6.45 35.90 11.02 C 35.36 15.33 29.65 17.55 26.34 14.74 C 22.84 12.27 23.46 6.29 27.40 4.59 Z" />
<path fill="#000000" opacity="1.00" d=" M 16.19 7.10 C 16.89 5.61 19.09 5.65 19.82 7.08 C 20.34 10.26 19.56 13.56 20.34 16.68 C 25.78 21.24 34.19 21.28 39.62 16.69 C 40.51 13.62 39.60 10.29 40.21 7.15 C 40.78 6.13 41.66 5.78 42.85 6.10 C 44.49 7.18 43.84 9.36 44.04 11.01 C 43.89 13.84 44.56 17.19 42.46 19.48 C 40.63 21.22 38.20 22.08 36.00 23.25 C 35.93 32.84 36.12 42.43 35.93 52.01 C 36.06 54.08 32.83 54.80 32.10 52.83 C 31.26 48.13 31.63 43.29 30.80 38.60 C 30.43 38.36 29.68 37.90 29.30 37.66 C 28.53 42.41 28.64 47.25 28.05 52.02 C 28.08 53.53 26.49 54.38 25.16 53.86 C 23.75 53.07 24.07 51.36 23.99 50.01 C 23.99 41.09 24.01 32.17 24.00 23.25 C 21.15 21.64 17.06 20.64 16.24 16.99 C 15.83 13.72 15.86 10.37 16.19 7.10 Z" />
<path fill="#000000" opacity="1.00" d=" M 46.81 19.00 C 48.16 16.01 51.93 17.63 54.35 16.34 C 54.68 16.67 55.34 17.32 55.68 17.65 C 54.73 19.76 54.88 22.11 54.87 24.36 C 54.38 24.06 53.40 23.47 52.91 23.17 C 52.81 21.59 52.62 19.79 50.90 19.17 C 47.58 19.06 50.48 22.73 51.11 24.20 C 53.41 27.83 48.32 30.52 45.34 28.65 C 45.01 28.99 44.33 29.66 44.00 30.00 C 43.32 29.34 42.66 28.67 42.00 28.00 C 42.33 27.67 43.00 27.01 43.33 26.68 C 42.86 24.81 42.86 22.92 43.32 21.04 C 45.41 22.82 45.07 27.81 48.85 26.81 C 49.42 23.96 45.78 21.86 46.81 19.00 Z" />
<path fill="#000000" opacity="1.00" d=" M 6.36 23.64 C 6.68 23.31 7.33 22.65 7.65 22.31 C 9.70 23.39 12.04 23.05 14.26 23.08 C 14.00 23.58 13.46 24.58 13.19 25.08 C 11.34 25.07 9.34 25.63 9.03 27.74 C 11.34 30.88 14.82 24.14 17.76 26.95 C 19.84 28.23 19.05 30.74 18.65 32.66 C 18.99 32.99 19.68 33.65 20.02 33.98 C 19.35 34.65 18.68 35.32 18.01 35.99 C 17.68 35.67 17.01 35.01 16.68 34.69 C 14.91 34.97 13.12 35.10 11.33 35.08 C 11.69 34.57 12.42 33.54 12.78 33.03 C 14.99 33.10 17.49 31.74 16.90 29.18 C 13.99 28.51 11.93 32.18 9.03 31.20 C 6.05 29.85 7.54 26.09 6.36 23.64 Z" />
</g>
</svg>
