<?xml version="1.0" encoding="UTF-8" ?>
<!DOCTYPE svg PUBLIC "-//W3C//DTD SVG 1.1//EN" "http://www.w3.org/Graphics/SVG/1.1/DTD/svg11.dtd">
<svg width="60pt" height="60pt" viewBox="0 0 60 60" version="1.1" xmlns="http://www.w3.org/2000/svg">
<g id="#ffffffff">
<path fill="#ffffff" opacity="1.00" d=" M 0.00 0.00 L 60.00 0.00 L 60.00 60.00 L 0.00 60.00 L 0.00 0.00 M 20.28 10.25 C 17.75 13.69 17.61 18.28 18.76 22.26 C 18.28 23.59 17.73 25.20 18.64 26.49 C 20.47 29.05 21.79 31.97 24.03 34.22 C 23.97 35.86 23.90 37.50 23.76 39.14 C 25.58 40.57 27.55 42.20 30.00 42.14 C 32.44 42.19 34.46 40.63 36.24 39.14 C 36.09 37.50 36.03 35.86 35.97 34.21 C 38.21 31.99 39.48 29.05 41.33 26.53 C 42.27 25.24 41.70 23.62 41.25 22.28 C 42.42 18.02 42.58 11.67 37.91 9.48 C 35.47 8.64 33.74 6.23 31.06 6.08 C 27.12 5.76 22.70 6.92 20.28 10.25 M 9.60 45.42 C 6.91 47.42 6.16 50.84 5.86 53.98 C 21.95 54.01 38.05 54.02 54.14 53.98 C 53.78 51.33 53.42 48.46 51.47 46.45 C 48.33 43.15 43.60 42.43 39.47 41.03 C 38.33 43.35 37.16 45.67 36.01 47.98 C 34.51 46.49 33.00 44.99 31.40 43.61 L 31.84 42.87 C 30.61 42.87 29.38 42.87 28.16 42.88 L 28.61 43.60 C 27.01 44.99 25.49 46.48 23.99 47.98 C 22.83 45.66 21.67 43.35 20.53 41.02 C 16.81 42.26 12.78 43.01 9.60 45.42 Z" />
</g>
<g id="#000000ff">
<path fill="#000000" opacity="1.00" d=" M 20.28 10.25 C 22.70 6.92 27.12 5.76 31.06 6.08 C 33.74 6.23 35.47 8.64 37.91 9.48 C 42.58 11.67 42.42 18.02 41.25 22.28 C 41.70 23.62 42.27 25.24 41.33 26.53 C 39.48 29.05 38.21 31.99 35.97 34.21 C 36.03 35.86 36.09 37.50 36.24 39.14 C 34.46 40.63 32.44 42.19 30.00 42.14 C 27.55 42.20 25.58 40.57 23.76 39.14 C 23.90 37.50 23.97 35.86 24.03 34.22 C 21.79 31.97 20.47 29.05 18.64 26.49 C 17.73 25.20 18.28 23.59 18.76 22.26 C 17.61 18.28 17.75 13.69 20.28 10.25 Z" />
<path fill="#000000" opacity="1.00" d=" M 9.60 45.42 C 12.78 43.01 16.81 42.26 20.53 41.02 C 21.67 43.35 22.83 45.66 23.99 47.98 C 25.49 46.48 27.01 44.99 28.61 43.60 L 28.16 42.88 C 29.38 42.87 30.61 42.87 31.84 42.87 L 31.40 43.61 C 33.00 44.99 34.51 46.49 36.01 47.98 C 37.16 45.67 38.33 43.35 39.47 41.03 C 43.60 42.43 48.33 43.15 51.47 46.45 C 53.42 48.46 53.78 51.33 54.14 53.98 C 38.05 54.02 21.95 54.01 5.86 53.98 C 6.16 50.84 6.91 47.42 9.60 45.42 Z" />
</g>
</svg>
