<?xml version="1.0" encoding="UTF-8" ?>
<!DOCTYPE svg PUBLIC "-//W3C//DTD SVG 1.1//EN" "http://www.w3.org/Graphics/SVG/1.1/DTD/svg11.dtd">
<svg width="64pt" height="64pt" viewBox="0 0 64 64" version="1.1" xmlns="http://www.w3.org/2000/svg">
<g id="#ffffffff">
<path fill="#ffffff" opacity="1.00" d=" M 0.00 0.00 L 64.00 0.00 L 64.00 64.00 L 0.00 64.00 L 0.00 0.00 M 21.61 12.69 C 15.94 18.62 17.35 28.85 23.91 33.55 C 15.67 36.81 10.09 45.16 9.90 53.98 C 11.23 53.99 12.56 54.00 13.89 54.01 C 14.05 45.52 20.39 37.92 28.70 36.22 C 29.14 37.48 29.58 38.74 30.01 40.00 C 31.34 40.00 32.67 40.00 34.00 40.00 C 34.43 38.74 34.86 37.48 35.29 36.23 C 43.64 37.91 49.89 45.53 50.15 54.00 C 51.47 54.00 52.78 53.99 54.10 53.98 C 53.88 45.18 48.35 36.79 40.09 33.56 C 46.18 29.10 47.98 19.85 43.26 13.76 C 38.46 6.69 27.08 6.12 21.61 12.69 M 30.00 42.00 C 29.33 46.00 28.67 50.00 28.00 54.00 C 30.67 54.00 33.33 54.00 36.00 54.00 C 35.33 50.00 34.67 46.00 34.00 42.00 C 32.67 42.00 31.33 42.00 30.00 42.00 Z" />
<path fill="#ffffff" opacity="1.00" d=" M 28.46 12.66 C 33.66 10.54 40.14 13.74 41.57 19.17 C 43.25 24.37 39.83 30.44 34.50 31.66 C 29.62 33.03 24.07 30.05 22.55 25.22 C 20.76 20.32 23.54 14.39 28.46 12.66 Z" />
</g>
<g id="#000000ff">
<path fill="#000000" opacity="1.00" d=" M 21.61 12.69 C 27.08 6.12 38.46 6.69 43.26 13.76 C 47.98 19.85 46.18 29.10 40.09 33.56 C 48.35 36.79 53.88 45.18 54.10 53.98 C 52.78 53.99 51.47 54.00 50.15 54.00 C 49.89 45.53 43.64 37.91 35.29 36.23 C 34.86 37.48 34.43 38.74 34.00 40.00 C 32.67 40.00 31.34 40.00 30.01 40.00 C 29.58 38.74 29.14 37.48 28.70 36.22 C 20.39 37.92 14.05 45.52 13.89 54.01 C 12.56 54.00 11.23 53.99 9.90 53.98 C 10.09 45.16 15.67 36.81 23.91 33.55 C 17.35 28.85 15.94 18.62 21.61 12.69 M 28.46 12.66 C 23.54 14.39 20.76 20.32 22.55 25.22 C 24.07 30.05 29.62 33.03 34.50 31.66 C 39.83 30.44 43.25 24.37 41.57 19.17 C 40.14 13.74 33.66 10.54 28.46 12.66 Z" />
<path fill="#000000" opacity="1.00" d=" M 30.00 42.00 C 31.33 42.00 32.67 42.00 34.00 42.00 C 34.67 46.00 35.33 50.00 36.00 54.00 C 33.33 54.00 30.67 54.00 28.00 54.00 C 28.67 50.00 29.33 46.00 30.00 42.00 Z" />
</g>
</svg>
