<?xml version="1.0" encoding="UTF-8" ?>
<!DOCTYPE svg PUBLIC "-//W3C//DTD SVG 1.1//EN" "http://www.w3.org/Graphics/SVG/1.1/DTD/svg11.dtd">
<svg width="64pt" height="64pt" viewBox="0 0 64 64" version="1.1" xmlns="http://www.w3.org/2000/svg">
<g id="#ffffffff">
<path fill="#ffffff" opacity="1.00" d=" M 0.00 0.00 L 64.00 0.00 L 64.00 64.00 L 0.00 64.00 L 0.00 0.00 M 19.41 12.46 C 12.73 15.48 9.91 23.09 9.92 30.00 C 8.56 30.00 7.21 30.00 5.86 30.01 C 6.10 39.17 11.08 48.14 19.19 52.60 C 28.38 57.99 40.84 56.81 48.84 49.77 C 54.68 44.94 57.82 37.49 58.14 30.01 C 56.79 30.00 55.43 30.00 54.08 30.00 C 54.12 22.85 51.00 14.99 43.95 12.16 C 36.21 9.17 27.05 9.14 19.41 12.46 Z" />
<path fill="#ffffff" opacity="1.00" d=" M 25.93 29.99 C 26.03 24.20 26.94 17.57 32.01 13.92 C 37.05 17.60 37.96 24.20 38.06 29.99 C 34.02 30.01 29.98 30.01 25.93 29.99 Z" />
<path fill="#ffffff" opacity="1.00" d=" M 17.59 18.68 C 19.72 16.28 22.90 15.40 25.86 14.54 C 22.98 19.17 21.98 24.62 21.94 30.00 C 19.26 30.00 16.58 30.00 13.91 29.99 C 14.14 26.02 14.69 21.67 17.59 18.68 Z" />
<path fill="#ffffff" opacity="1.00" d=" M 38.14 14.54 C 41.07 15.41 44.26 16.27 46.38 18.65 C 49.30 21.65 49.84 26.00 50.09 29.99 C 47.41 30.00 44.74 30.00 42.06 30.00 C 42.01 24.62 41.01 19.17 38.14 14.54 Z" />
<path fill="#ffffff" opacity="1.00" d=" M 10.59 34.02 C 24.86 33.99 39.14 33.99 53.41 34.02 C 51.99 40.32 48.16 46.18 42.41 49.30 C 35.48 53.21 26.36 52.83 19.87 48.21 C 14.99 44.98 11.88 39.65 10.59 34.02 Z" />
</g>
<g id="#000000ff">
<path fill="#000000" opacity="1.00" d=" M 19.41 12.46 C 27.05 9.14 36.21 9.17 43.95 12.16 C 51.00 14.99 54.12 22.85 54.08 30.00 C 55.43 30.00 56.79 30.00 58.14 30.01 C 57.82 37.49 54.68 44.94 48.84 49.77 C 40.84 56.81 28.38 57.99 19.19 52.60 C 11.08 48.14 6.10 39.17 5.86 30.01 C 7.21 30.00 8.56 30.00 9.92 30.00 C 9.91 23.09 12.73 15.48 19.41 12.46 M 25.93 29.99 C 29.98 30.01 34.02 30.01 38.06 29.99 C 37.96 24.20 37.05 17.60 32.01 13.92 C 26.94 17.57 26.03 24.20 25.93 29.99 M 17.59 18.68 C 14.69 21.67 14.14 26.02 13.91 29.99 C 16.58 30.00 19.26 30.00 21.94 30.00 C 21.98 24.62 22.98 19.17 25.86 14.54 C 22.90 15.40 19.72 16.28 17.59 18.68 M 38.14 14.54 C 41.01 19.17 42.01 24.62 42.06 30.00 C 44.74 30.00 47.41 30.00 50.09 29.99 C 49.84 26.00 49.30 21.65 46.38 18.65 C 44.26 16.27 41.07 15.41 38.14 14.54 M 10.59 34.02 C 11.88 39.65 14.99 44.98 19.87 48.21 C 26.36 52.83 35.48 53.21 42.41 49.30 C 48.16 46.18 51.99 40.32 53.41 34.02 C 39.14 33.99 24.86 33.99 10.59 34.02 Z" />
</g>
</svg>
