<?xml version="1.0" encoding="UTF-8" ?>
<!DOCTYPE svg PUBLIC "-//W3C//DTD SVG 1.1//EN" "http://www.w3.org/Graphics/SVG/1.1/DTD/svg11.dtd">
<svg width="60pt" height="60pt" viewBox="0 0 60 60" version="1.1" xmlns="http://www.w3.org/2000/svg">
<g id="#ffffffff">
<path fill="#ffffff" opacity="1.00" d=" M 0.00 0.00 L 60.00 0.00 L 60.00 60.00 L 0.00 60.00 L 0.00 0.00 M 24.44 6.66 C 17.58 8.27 11.57 13.07 8.48 19.40 C 5.08 26.18 5.21 34.58 8.82 41.25 C 12.53 48.31 19.96 53.27 27.93 53.89 C 35.35 54.59 42.99 51.53 47.91 45.92 C 53.63 39.61 55.54 30.14 52.64 22.11 C 48.94 10.77 36.02 3.62 24.44 6.66 Z" />
<path fill="#ffffff" opacity="1.00" d=" M 24.43 10.78 C 30.61 8.99 37.62 10.35 42.58 14.45 C 47.80 18.61 50.64 25.50 49.87 32.12 C 49.22 39.04 44.61 45.38 38.28 48.20 C 31.78 51.21 23.68 50.35 17.99 45.99 C 12.72 42.10 9.63 35.50 10.04 28.96 C 10.31 20.64 16.42 12.98 24.43 10.78 M 14.05 30.02 C 13.86 37.78 20.09 44.63 27.63 45.87 C 28.62 43.60 31.37 43.64 32.37 45.87 C 39.90 44.62 46.12 37.79 45.95 30.04 C 46.17 22.26 39.94 15.37 32.38 14.12 C 31.36 16.36 28.64 16.38 27.62 14.13 C 20.06 15.36 13.83 22.25 14.05 30.02 Z" />
<path fill="#ffffff" opacity="1.00" d=" M 23.17 19.84 C 24.76 20.26 26.90 19.50 27.90 21.18 C 28.19 22.35 27.84 23.23 26.83 23.83 C 24.38 24.13 21.91 24.06 19.45 23.91 C 20.71 22.57 21.95 21.21 23.17 19.84 Z" />
<path fill="#ffffff" opacity="1.00" d=" M 32.09 21.24 C 33.01 19.46 35.22 20.28 36.82 19.84 C 38.04 21.21 39.28 22.57 40.54 23.91 C 38.09 24.05 35.61 24.13 33.17 23.83 C 32.17 23.25 31.81 22.39 32.09 21.24 Z" />
<path fill="#ffffff" opacity="1.00" d=" M 18.05 28.04 C 21.01 28.04 23.98 27.79 26.92 28.18 C 28.33 28.96 28.35 31.11 26.86 31.82 C 23.94 32.21 20.99 31.96 18.05 31.96 C 18.10 30.65 18.10 29.35 18.05 28.04 Z" />
<path fill="#ffffff" opacity="1.00" d=" M 33.18 28.17 C 36.09 27.79 39.03 28.05 41.95 28.04 C 41.90 29.35 41.90 30.65 41.95 31.96 C 39.01 31.96 36.06 32.20 33.13 31.83 C 31.65 31.10 31.62 28.81 33.18 28.17 Z" />
<path fill="#ffffff" opacity="1.00" d=" M 19.46 36.09 C 22.15 36.49 27.02 34.46 28.06 38.00 C 27.80 40.53 24.92 39.79 23.18 40.16 C 21.95 38.79 20.72 37.43 19.46 36.09 Z" />
<path fill="#ffffff" opacity="1.00" d=" M 32.18 38.78 C 31.52 37.66 32.60 35.85 33.94 36.08 C 36.14 35.89 38.35 35.96 40.54 36.09 C 39.28 37.43 38.03 38.78 36.81 40.16 C 35.29 39.69 32.99 40.59 32.18 38.78 Z" />
</g>
<g id="#000000ff">
<path fill="#000000" opacity="1.00" d=" M 24.44 6.66 C 36.02 3.62 48.94 10.77 52.64 22.11 C 55.54 30.14 53.63 39.61 47.91 45.92 C 42.99 51.53 35.35 54.59 27.93 53.89 C 19.96 53.27 12.53 48.31 8.82 41.25 C 5.21 34.58 5.08 26.18 8.48 19.40 C 11.57 13.07 17.58 8.27 24.44 6.66 M 24.43 10.78 C 16.42 12.98 10.31 20.64 10.04 28.96 C 9.63 35.50 12.72 42.10 17.99 45.99 C 23.68 50.35 31.78 51.21 38.28 48.20 C 44.61 45.38 49.22 39.04 49.87 32.12 C 50.64 25.50 47.80 18.61 42.58 14.45 C 37.62 10.35 30.61 8.99 24.43 10.78 Z" />
<path fill="#000000" opacity="1.00" d=" M 14.05 30.02 C 13.83 22.25 20.06 15.36 27.62 14.13 C 28.64 16.38 31.36 16.36 32.38 14.12 C 39.94 15.37 46.17 22.26 45.95 30.04 C 46.12 37.79 39.90 44.62 32.37 45.87 C 31.37 43.64 28.62 43.60 27.63 45.87 C 20.09 44.63 13.86 37.78 14.05 30.02 M 23.17 19.84 C 21.95 21.21 20.71 22.57 19.45 23.91 C 21.91 24.06 24.38 24.13 26.83 23.83 C 27.84 23.23 28.19 22.35 27.90 21.18 C 26.90 19.50 24.76 20.26 23.17 19.84 M 32.09 21.24 C 31.81 22.39 32.17 23.25 33.17 23.83 C 35.61 24.13 38.09 24.05 40.54 23.91 C 39.28 22.57 38.04 21.21 36.82 19.84 C 35.22 20.28 33.01 19.46 32.09 21.24 M 18.05 28.04 C 18.10 29.35 18.10 30.65 18.05 31.96 C 20.99 31.96 23.94 32.21 26.86 31.82 C 28.35 31.11 28.33 28.96 26.92 28.18 C 23.98 27.79 21.01 28.04 18.05 28.04 M 33.18 28.17 C 31.62 28.81 31.65 31.10 33.13 31.83 C 36.06 32.20 39.01 31.96 41.95 31.96 C 41.90 30.65 41.90 29.35 41.95 28.04 C 39.03 28.05 36.09 27.79 33.18 28.17 M 19.46 36.09 C 20.72 37.43 21.95 38.79 23.18 40.16 C 24.92 39.79 27.80 40.53 28.06 38.00 C 27.02 34.46 22.15 36.49 19.46 36.09 M 32.18 38.78 C 32.99 40.59 35.29 39.69 36.81 40.16 C 38.03 38.78 39.28 37.43 40.54 36.09 C 38.35 35.96 36.14 35.89 33.94 36.08 C 32.60 35.85 31.52 37.66 32.18 38.78 Z" />
</g>
</svg>
