<?xml version="1.0" encoding="UTF-8" ?>
<!DOCTYPE svg PUBLIC "-//W3C//DTD SVG 1.1//EN" "http://www.w3.org/Graphics/SVG/1.1/DTD/svg11.dtd">
<svg width="60pt" height="60pt" viewBox="0 0 60 60" version="1.1" xmlns="http://www.w3.org/2000/svg">
<g id="#ffffffff">
<path fill="#ffffff" opacity="1.00" d=" M 0.00 0.00 L 60.00 0.00 L 60.00 60.00 L 0.00 60.00 L 0.00 0.00 M 10.35 8.38 C 8.61 9.14 7.82 11.10 8.00 12.91 C 8.03 24.65 7.93 36.40 8.05 48.14 C 7.96 50.68 10.63 52.32 12.95 52.00 C 24.67 51.97 36.39 52.07 48.10 51.95 C 50.63 52.00 52.35 49.38 52.00 47.03 C 52.00 35.67 52.00 24.31 52.00 12.95 C 52.32 10.59 50.63 7.91 48.05 8.05 C 37.04 7.91 26.01 8.07 14.99 7.98 C 13.45 8.06 11.82 7.80 10.35 8.38 Z" />
<path fill="#ffffff" opacity="1.00" d=" M 27.76 13.13 C 28.64 11.32 31.80 11.84 31.89 13.89 C 32.27 17.55 31.73 21.23 32.12 24.89 C 32.56 25.11 33.43 25.55 33.87 25.77 C 34.26 22.48 34.10 19.10 34.80 15.85 C 35.57 14.17 38.29 14.41 38.79 16.17 C 39.01 18.44 38.65 20.71 38.53 22.97 C 38.47 24.81 37.67 27.20 40.04 27.87 C 40.48 25.31 40.67 22.70 41.43 20.22 C 42.28 18.85 44.73 19.35 44.87 21.01 C 44.51 26.40 42.79 31.65 42.89 37.09 C 43.13 41.38 40.51 45.63 36.50 47.22 C 32.09 48.47 26.24 48.94 22.96 45.05 C 19.38 41.36 15.82 37.66 12.21 34.00 C 13.52 32.92 14.94 30.86 16.91 31.84 C 18.87 32.89 20.57 34.36 22.38 35.66 C 22.85 29.27 20.45 23.21 19.73 16.95 C 19.89 15.12 22.30 14.23 23.62 15.52 C 25.59 18.70 24.32 23.13 27.04 25.94 C 28.11 21.74 26.95 17.36 27.76 13.13 Z" />
</g>
<g id="#000000ff">
<path fill="#000000" opacity="1.00" d=" M 10.35 8.38 C 11.82 7.80 13.45 8.06 14.99 7.98 C 26.01 8.07 37.04 7.91 48.05 8.05 C 50.63 7.91 52.32 10.59 52.00 12.95 C 52.00 24.31 52.00 35.67 52.00 47.03 C 52.35 49.38 50.63 52.00 48.10 51.95 C 36.39 52.07 24.67 51.97 12.95 52.00 C 10.63 52.32 7.96 50.68 8.05 48.14 C 7.93 36.40 8.03 24.65 8.00 12.91 C 7.82 11.10 8.61 9.14 10.35 8.38 M 27.76 13.13 C 26.95 17.36 28.11 21.74 27.04 25.94 C 24.32 23.13 25.59 18.70 23.62 15.52 C 22.30 14.23 19.89 15.12 19.73 16.95 C 20.45 23.21 22.85 29.27 22.38 35.66 C 20.57 34.36 18.87 32.89 16.91 31.84 C 14.94 30.86 13.52 32.92 12.21 34.00 C 15.82 37.66 19.38 41.36 22.96 45.05 C 26.24 48.94 32.09 48.47 36.50 47.22 C 40.51 45.63 43.13 41.38 42.89 37.09 C 42.79 31.65 44.51 26.40 44.87 21.01 C 44.73 19.35 42.28 18.85 41.43 20.22 C 40.67 22.70 40.48 25.31 40.04 27.87 C 37.67 27.20 38.47 24.81 38.53 22.97 C 38.65 20.71 39.01 18.44 38.79 16.17 C 38.29 14.41 35.57 14.17 34.80 15.85 C 34.10 19.10 34.26 22.48 33.87 25.77 C 33.43 25.55 32.56 25.11 32.12 24.89 C 31.73 21.23 32.27 17.55 31.89 13.89 C 31.80 11.84 28.64 11.32 27.76 13.13 Z" />
</g>
</svg>
