<?xml version="1.0" encoding="UTF-8" ?>
<!DOCTYPE svg PUBLIC "-//W3C//DTD SVG 1.1//EN" "http://www.w3.org/Graphics/SVG/1.1/DTD/svg11.dtd">
<svg width="60pt" height="60pt" viewBox="0 0 60 60" version="1.1" xmlns="http://www.w3.org/2000/svg">
<g id="#ffffffff">
<path fill="#ffffff" opacity="1.00" d=" M 0.00 0.00 L 60.00 0.00 L 60.00 31.29 C 58.96 30.17 57.40 30.04 56.00 29.71 C 56.00 32.57 56.02 35.43 55.99 38.29 C 57.34 37.95 58.68 37.58 60.00 37.17 L 60.00 60.00 L 0.00 60.00 L 0.00 0.00 M 9.12 12.23 C 7.27 12.95 7.88 16.05 9.92 15.91 C 22.27 16.12 34.65 15.95 47.01 15.99 C 48.18 16.07 50.25 15.64 49.93 14.04 C 50.22 11.91 47.47 11.96 46.05 11.98 C 33.74 12.18 21.40 11.68 9.12 12.23 M 7.44 20.58 C 5.43 21.54 4.02 23.63 4.05 25.87 C 3.95 31.29 3.95 36.72 4.06 42.14 C 3.96 45.74 7.54 48.42 10.98 48.00 C 23.36 47.96 35.74 48.08 48.12 47.94 C 51.24 48.00 54.02 45.20 53.95 42.08 C 54.05 36.67 54.06 31.26 53.94 25.85 C 53.99 22.73 51.18 19.95 48.05 20.05 C 36.36 19.91 24.67 20.07 12.98 19.97 C 11.13 20.04 9.17 19.83 7.44 20.58 Z" />
<path fill="#ffffff" opacity="1.00" d=" M 9.09 24.19 C 21.38 23.73 33.71 24.15 46.02 23.98 C 47.45 23.98 50.00 23.80 49.92 25.90 C 50.07 31.29 50.07 36.69 49.92 42.07 C 50.08 43.67 48.25 44.13 47.01 44.00 C 34.98 44.00 22.95 44.01 10.92 43.99 C 9.68 44.14 7.93 43.64 8.08 42.07 C 7.99 36.43 7.80 30.75 8.19 25.12 C 8.41 24.89 8.87 24.42 9.09 24.19 M 12.00 28.00 C 12.00 32.00 12.00 36.00 12.00 40.00 C 23.33 40.00 34.67 40.00 46.00 40.00 C 46.00 36.00 46.00 32.00 46.00 28.00 C 34.67 28.00 23.33 28.00 12.00 28.00 Z" />
</g>
<g id="#000000ff">
<path fill="#000000" opacity="1.00" d=" M 9.12 12.23 C 21.40 11.68 33.74 12.18 46.05 11.98 C 47.47 11.96 50.22 11.91 49.93 14.04 C 50.25 15.64 48.18 16.07 47.01 15.99 C 34.65 15.95 22.27 16.12 9.92 15.91 C 7.88 16.05 7.27 12.95 9.12 12.23 Z" />
<path fill="#000000" opacity="1.00" d=" M 7.44 20.58 C 9.17 19.83 11.13 20.04 12.98 19.97 C 24.67 20.07 36.36 19.91 48.05 20.05 C 51.18 19.95 53.99 22.73 53.94 25.85 C 54.06 31.26 54.05 36.67 53.95 42.08 C 54.02 45.20 51.24 48.00 48.12 47.94 C 35.74 48.08 23.36 47.96 10.98 48.00 C 7.54 48.42 3.96 45.74 4.06 42.14 C 3.95 36.72 3.95 31.29 4.05 25.87 C 4.02 23.63 5.43 21.54 7.44 20.58 M 9.09 24.19 C 8.87 24.42 8.41 24.89 8.19 25.12 C 7.80 30.75 7.99 36.43 8.08 42.07 C 7.93 43.64 9.68 44.14 10.92 43.99 C 22.95 44.01 34.98 44.00 47.01 44.00 C 48.25 44.13 50.08 43.67 49.92 42.07 C 50.07 36.69 50.07 31.29 49.92 25.90 C 50.00 23.80 47.45 23.98 46.02 23.98 C 33.71 24.15 21.38 23.73 9.09 24.19 Z" />
<path fill="#000000" opacity="1.00" d=" M 12.00 28.00 C 23.33 28.00 34.67 28.00 46.00 28.00 C 46.00 32.00 46.00 36.00 46.00 40.00 C 34.67 40.00 23.33 40.00 12.00 40.00 C 12.00 36.00 12.00 32.00 12.00 28.00 Z" />
<path fill="#000000" opacity="1.00" d=" M 56.00 29.71 C 57.40 30.04 58.96 30.17 60.00 31.29 L 60.00 37.17 C 58.68 37.58 57.34 37.95 55.99 38.29 C 56.02 35.43 56.00 32.57 56.00 29.71 Z" />
</g>
</svg>
