<?xml version="1.0" encoding="UTF-8" ?>
<!DOCTYPE svg PUBLIC "-//W3C//DTD SVG 1.1//EN" "http://www.w3.org/Graphics/SVG/1.1/DTD/svg11.dtd">
<svg width="60pt" height="60pt" viewBox="0 0 60 60" version="1.1" xmlns="http://www.w3.org/2000/svg">
<g id="#ffffffff">
<path fill="#ffffff" opacity="1.00" d=" M 0.00 0.00 L 60.00 0.00 L 60.00 60.00 L 0.00 60.00 L 0.00 0.00 M 4.05 12.01 C 4.04 22.95 3.82 33.91 4.16 44.84 C 8.15 47.45 13.47 47.80 18.00 49.50 C 17.99 37.47 18.03 25.43 17.97 13.39 C 14.34 12.34 10.71 11.25 7.06 10.23 C 5.79 9.53 3.87 10.45 4.05 12.01 M 21.97 13.67 C 22.05 25.64 21.97 37.62 22.01 49.60 C 27.31 48.55 32.59 47.42 37.91 46.47 C 38.12 34.44 37.95 22.40 38.00 10.37 C 32.66 11.49 27.29 12.47 21.97 13.67 M 42.00 10.51 C 42.01 22.54 41.98 34.57 42.02 46.60 C 45.77 47.58 49.45 48.82 53.19 49.81 C 54.41 50.42 56.14 49.40 55.95 47.98 C 56.08 38.00 55.95 28.00 56.02 18.01 C 55.89 16.74 56.41 14.77 54.78 14.26 C 50.57 12.84 46.26 11.76 42.00 10.51 Z" />
</g>
<g id="#000000ff">
<path fill="#000000" opacity="1.00" d=" M 4.05 12.01 C 3.87 10.45 5.79 9.53 7.06 10.23 C 10.71 11.25 14.34 12.34 17.97 13.39 C 18.03 25.43 17.99 37.47 18.00 49.50 C 13.47 47.80 8.15 47.45 4.16 44.84 C 3.82 33.91 4.04 22.95 4.05 12.01 Z" />
<path fill="#000000" opacity="1.00" d=" M 21.97 13.67 C 27.29 12.47 32.66 11.49 38.00 10.37 C 37.95 22.40 38.12 34.44 37.91 46.47 C 32.59 47.42 27.31 48.55 22.01 49.60 C 21.97 37.62 22.05 25.64 21.97 13.67 Z" />
<path fill="#000000" opacity="1.00" d=" M 42.00 10.51 C 46.26 11.76 50.57 12.84 54.78 14.26 C 56.41 14.77 55.89 16.74 56.02 18.01 C 55.95 28.00 56.08 38.00 55.95 47.98 C 56.14 49.40 54.41 50.42 53.19 49.81 C 49.45 48.82 45.77 47.58 42.02 46.60 C 41.98 34.57 42.01 22.54 42.00 10.51 Z" />
</g>
</svg>
