<?xml version="1.0" encoding="UTF-8" ?>
<!DOCTYPE svg PUBLIC "-//W3C//DTD SVG 1.1//EN" "http://www.w3.org/Graphics/SVG/1.1/DTD/svg11.dtd">
<svg width="60pt" height="60pt" viewBox="0 0 60 60" version="1.1" xmlns="http://www.w3.org/2000/svg">
<g id="#ffffffff">
<path fill="#ffffff" opacity="1.00" d=" M 0.00 0.00 L 60.00 0.00 L 60.00 60.00 L 0.00 60.00 L 0.00 0.00 M 25.57 10.75 C 23.13 9.61 20.65 8.49 18.03 7.85 C 18.89 14.15 21.10 20.16 22.53 26.34 C 18.34 24.89 14.34 22.82 9.98 21.94 C 10.18 23.58 10.46 25.20 10.78 26.82 C 8.57 27.92 5.37 28.08 3.92 30.08 C 5.55 32.04 7.79 33.36 9.73 34.98 C 8.96 36.57 8.30 38.21 7.89 39.93 C 12.08 39.92 16.26 39.39 20.44 39.13 C 19.40 41.33 18.42 43.57 17.89 45.95 C 21.27 45.76 24.63 45.36 28.01 45.07 C 28.07 48.33 27.77 51.62 28.20 54.87 C 28.84 56.34 31.11 56.36 31.78 54.90 C 32.26 51.65 31.92 48.34 31.99 45.07 C 35.36 45.36 38.72 45.76 42.09 45.95 C 41.58 43.54 40.60 41.28 39.53 39.08 C 43.72 39.44 47.91 39.88 52.12 39.93 C 51.69 38.22 51.04 36.59 50.28 35.01 C 52.44 33.41 54.50 31.69 56.50 29.91 C 54.25 28.49 51.73 27.61 49.21 26.78 C 49.54 25.16 49.83 23.54 49.99 21.90 C 45.64 22.84 41.67 24.96 37.47 26.36 C 38.91 20.19 41.04 14.17 42.01 7.90 C 39.35 8.44 36.89 9.62 34.44 10.75 C 33.07 8.27 31.70 5.76 29.96 3.50 C 28.33 5.81 26.92 8.26 25.57 10.75 Z" />
</g>
<g id="#000000ff">
<path fill="#000000" opacity="1.00" d=" M 25.57 10.75 C 26.92 8.26 28.33 5.81 29.96 3.50 C 31.70 5.76 33.07 8.27 34.44 10.75 C 36.89 9.62 39.35 8.44 42.01 7.90 C 41.04 14.17 38.91 20.19 37.47 26.36 C 41.67 24.96 45.64 22.84 49.99 21.90 C 49.83 23.54 49.54 25.16 49.21 26.78 C 51.73 27.61 54.25 28.49 56.50 29.91 C 54.50 31.69 52.44 33.41 50.28 35.01 C 51.04 36.59 51.69 38.22 52.12 39.93 C 47.91 39.88 43.72 39.44 39.53 39.08 C 40.60 41.28 41.58 43.54 42.09 45.95 C 38.72 45.76 35.36 45.36 31.99 45.07 C 31.92 48.34 32.26 51.65 31.78 54.90 C 31.11 56.36 28.84 56.34 28.20 54.87 C 27.77 51.62 28.07 48.33 28.01 45.07 C 24.63 45.36 21.27 45.76 17.89 45.95 C 18.42 43.57 19.40 41.33 20.44 39.13 C 16.26 39.39 12.08 39.92 7.89 39.93 C 8.30 38.21 8.96 36.57 9.73 34.98 C 7.79 33.36 5.55 32.04 3.92 30.08 C 5.37 28.08 8.57 27.92 10.78 26.82 C 10.46 25.20 10.18 23.58 9.98 21.94 C 14.34 22.82 18.34 24.89 22.53 26.34 C 21.10 20.16 18.89 14.15 18.03 7.85 C 20.65 8.49 23.13 9.61 25.57 10.75 Z" />
</g>
</svg>
