<?xml version="1.0" encoding="UTF-8" ?>
<!DOCTYPE svg PUBLIC "-//W3C//DTD SVG 1.1//EN" "http://www.w3.org/Graphics/SVG/1.1/DTD/svg11.dtd">
<svg width="60pt" height="60pt" viewBox="0 0 60 60" version="1.1" xmlns="http://www.w3.org/2000/svg">
<g id="#ffffffff">
<path fill="#ffffff" opacity="1.00" d=" M 0.00 0.00 L 60.00 0.00 L 60.00 23.65 C 57.79 17.35 49.57 18.15 44.20 18.01 C 45.82 19.26 47.41 20.55 48.95 21.89 C 51.50 22.26 54.01 22.87 56.33 24.01 C 54.39 24.87 52.36 25.53 50.30 26.03 C 47.05 31.58 48.12 38.01 48.01 44.13 C 51.36 43.63 55.46 43.68 57.79 40.78 C 58.31 36.45 57.84 32.06 58.03 27.71 C 58.70 26.79 59.35 25.87 60.00 24.94 L 60.00 60.00 L 0.00 60.00 L 0.00 0.00 M 22.15 7.23 C 21.86 9.76 21.86 12.32 22.17 14.85 C 23.40 16.79 26.11 15.72 28.00 16.03 C 28.00 17.36 28.00 18.70 28.00 20.04 C 23.53 20.56 18.31 20.51 14.83 23.81 C 13.11 25.61 14.42 28.05 15.96 29.43 C 16.11 35.98 15.86 42.53 16.07 49.07 C 16.07 51.56 18.89 52.46 20.86 52.99 C 26.88 54.31 33.23 54.32 39.25 52.96 C 41.18 52.43 43.90 51.53 43.93 49.11 C 44.14 42.55 43.89 35.99 44.04 29.43 C 45.57 28.05 46.87 25.61 45.16 23.81 C 41.69 20.52 36.48 20.56 32.00 20.04 C 32.00 18.70 32.00 17.36 32.00 16.03 C 33.89 15.73 36.57 16.77 37.82 14.86 C 38.13 12.59 38.12 10.28 37.92 7.99 C 38.04 6.49 36.47 5.68 35.16 6.10 C 33.28 7.43 34.23 10.06 33.97 12.00 C 31.32 12.00 28.68 12.00 26.03 12.00 C 25.75 10.05 26.73 7.44 24.86 6.08 C 23.61 5.75 22.71 6.13 22.15 7.23 M 2.38 20.30 C 0.21 21.31 0.69 23.97 0.46 25.91 C 0.87 26.34 1.69 27.20 2.10 27.63 C 2.21 32.00 1.82 36.41 2.28 40.77 C 4.61 43.65 8.71 43.70 12.09 44.08 C 12.07 39.76 12.14 35.44 12.04 31.12 C 10.98 29.57 10.27 27.83 9.91 25.98 C 7.81 25.60 5.75 25.03 3.87 24.00 C 6.12 22.72 8.65 22.24 11.18 21.95 C 12.61 20.48 14.23 19.21 15.94 18.08 C 11.38 17.97 6.40 17.77 2.38 20.30 Z" />
<path fill="#ffffff" opacity="1.00" d=" M 22.50 24.67 C 28.56 23.65 34.94 23.66 40.83 25.55 C 40.83 25.78 40.82 26.22 40.82 26.44 C 33.85 28.56 26.15 28.56 19.18 26.44 C 18.78 24.73 21.47 25.20 22.50 24.67 Z" />
<path fill="#ffffff" opacity="1.00" d=" M 21.91 31.31 C 23.31 31.49 24.71 31.66 26.11 31.83 C 25.96 33.30 26.23 36.12 23.99 35.93 C 21.53 36.07 22.10 32.89 21.91 31.31 Z" />
<path fill="#ffffff" opacity="1.00" d=" M 33.90 31.83 C 35.29 31.66 36.69 31.49 38.09 31.31 C 37.89 32.89 38.47 36.06 36.00 35.93 C 33.77 36.14 34.03 33.29 33.90 31.83 Z" />
<path fill="#ffffff" opacity="1.00" d=" M 21.30 49.00 C 27.01 47.71 33.00 47.69 38.70 49.01 C 32.99 50.28 27.01 50.30 21.30 49.00 Z" />
</g>
<g id="#000000ff">
<path fill="#968176" opacity="1.00" d=" M 22.15 7.23 C 22.71 6.13 23.61 5.75 24.86 6.08 C 26.73 7.44 25.75 10.05 26.03 12.00 C 28.68 12.00 31.32 12.00 33.97 12.00 C 34.23 10.06 33.28 7.43 35.16 6.10 C 36.47 5.68 38.04 6.49 37.92 7.99 C 38.12 10.28 38.13 12.59 37.82 14.86 C 36.57 16.77 33.89 15.73 32.00 16.03 C 32.00 17.36 32.00 18.70 32.00 20.04 C 36.48 20.56 41.69 20.52 45.16 23.81 C 46.87 25.61 45.57 28.05 44.04 29.43 C 43.89 35.99 44.14 42.55 43.93 49.11 C 43.90 51.53 41.18 52.43 39.25 52.96 C 33.23 54.32 26.88 54.31 20.86 52.99 C 18.89 52.46 16.07 51.56 16.07 49.07 C 15.86 42.53 16.11 35.98 15.96 29.43 C 14.42 28.05 13.11 25.61 14.83 23.81 C 18.31 20.51 23.53 20.56 28.00 20.04 C 28.00 18.70 28.00 17.36 28.00 16.03 C 26.11 15.72 23.40 16.79 22.17 14.85 C 21.86 12.32 21.86 9.76 22.15 7.23 M 22.50 24.67 C 21.47 25.20 18.78 24.73 19.18 26.44 C 26.15 28.56 33.85 28.56 40.82 26.44 C 40.82 26.22 40.83 25.78 40.83 25.55 C 34.94 23.66 28.56 23.65 22.50 24.67 M 21.91 31.31 C 22.10 32.89 21.53 36.07 23.99 35.93 C 26.23 36.12 25.96 33.30 26.11 31.83 C 24.71 31.66 23.31 31.49 21.91 31.31 M 33.90 31.83 C 34.03 33.29 33.77 36.14 36.00 35.93 C 38.47 36.06 37.89 32.89 38.09 31.31 C 36.69 31.49 35.29 31.66 33.90 31.83 M 21.30 49.00 C 27.01 50.30 32.99 50.28 38.70 49.01 C 33.00 47.69 27.01 47.71 21.30 49.00 Z" />
<path fill="#968176" opacity="1.00" d=" M 2.38 20.30 C 6.40 17.77 11.38 17.97 15.94 18.08 C 14.23 19.21 12.61 20.48 11.18 21.95 C 8.65 22.24 6.12 22.72 3.87 24.00 C 5.75 25.03 7.81 25.60 9.91 25.98 C 10.27 27.83 10.98 29.57 12.04 31.12 C 12.14 35.44 12.07 39.76 12.09 44.08 C 8.71 43.70 4.61 43.65 2.28 40.77 C 1.82 36.41 2.21 32.00 2.10 27.63 C 1.69 27.20 0.87 26.34 0.46 25.91 C 0.69 23.97 0.21 21.31 2.38 20.30 Z" />
<path fill="#968176" opacity="1.00" d=" M 44.20 18.01 C 49.57 18.15 57.79 17.35 60.00 23.65 L 60.00 24.94 C 59.35 25.87 58.70 26.79 58.03 27.71 C 57.84 32.06 58.31 36.45 57.79 40.78 C 55.46 43.68 51.36 43.63 48.01 44.13 C 48.12 38.01 47.05 31.58 50.30 26.03 C 52.36 25.53 54.39 24.87 56.33 24.01 C 54.01 22.87 51.50 22.26 48.95 21.89 C 47.41 20.55 45.82 19.26 44.20 18.01 Z" />
</g>
</svg>
