<?xml version="1.0" encoding="UTF-8" ?>
<!DOCTYPE svg PUBLIC "-//W3C//DTD SVG 1.1//EN" "http://www.w3.org/Graphics/SVG/1.1/DTD/svg11.dtd">
<svg width="60pt" height="60pt" viewBox="0 0 60 60" version="1.1" xmlns="http://www.w3.org/2000/svg">
<g id="#ffffffff">
<path fill="#ffffff" opacity="1.00" d=" M 0.00 0.00 L 60.00 0.00 L 60.00 60.00 L 0.00 60.00 L 0.00 0.00 M 44.07 6.08 C 42.85 6.32 41.92 7.21 40.95 7.89 C 34.04 13.34 27.13 18.79 20.19 24.20 C 19.12 25.01 17.39 26.46 18.81 27.83 C 22.88 32.21 27.23 36.33 31.44 40.58 C 32.46 42.07 34.48 41.95 35.33 40.37 C 41.24 32.87 47.18 25.38 53.01 17.82 C 54.73 15.72 53.93 12.59 51.92 10.99 C 49.65 8.98 47.59 5.40 44.07 6.08 M 11.59 32.49 C 10.51 34.60 13.19 36.07 13.44 38.06 C 13.90 39.74 12.89 41.25 12.18 42.68 C 13.89 44.38 15.60 46.10 17.31 47.82 C 18.74 47.09 20.27 46.07 21.97 46.55 C 23.96 46.83 25.44 49.54 27.56 48.37 C 28.51 47.78 29.32 46.94 29.81 45.92 C 29.99 44.36 28.51 43.44 27.62 42.41 C 23.71 38.64 19.98 34.68 16.05 30.93 C 14.56 29.16 12.39 30.99 11.59 32.49 M 5.89 49.57 C 7.97 50.58 10.00 51.66 12.05 52.70 C 12.62 52.15 13.76 51.04 14.32 50.49 C 12.76 48.93 11.23 47.33 9.64 45.80 C 8.39 47.05 7.15 48.32 5.89 49.57 Z" />
</g>
<g id="#000000ff">
<path fill="#000000" opacity="1.00" d=" M 44.07 6.08 C 47.59 5.40 49.65 8.98 51.92 10.99 C 53.93 12.59 54.73 15.72 53.01 17.82 C 47.18 25.38 41.24 32.87 35.33 40.37 C 34.48 41.95 32.46 42.07 31.44 40.58 C 27.23 36.33 22.88 32.21 18.81 27.83 C 17.39 26.46 19.12 25.01 20.19 24.20 C 27.13 18.79 34.04 13.34 40.95 7.89 C 41.92 7.21 42.85 6.32 44.07 6.08 Z" />
<path fill="#000000" opacity="1.00" d=" M 11.59 32.49 C 12.39 30.99 14.56 29.16 16.05 30.93 C 19.98 34.68 23.71 38.64 27.62 42.41 C 28.51 43.44 29.99 44.36 29.81 45.92 C 29.32 46.94 28.51 47.78 27.56 48.37 C 25.44 49.54 23.96 46.83 21.97 46.55 C 20.27 46.07 18.74 47.09 17.31 47.82 C 15.60 46.10 13.89 44.38 12.18 42.68 C 12.89 41.25 13.90 39.74 13.44 38.06 C 13.19 36.07 10.51 34.60 11.59 32.49 Z" />
<path fill="#000000" opacity="1.00" d=" M 5.89 49.57 C 7.15 48.32 8.39 47.05 9.64 45.80 C 11.23 47.33 12.76 48.93 14.32 50.49 C 13.76 51.04 12.62 52.15 12.05 52.70 C 10.00 51.66 7.97 50.58 5.89 49.57 Z" />
</g>
</svg>
