<?xml version="1.0" encoding="UTF-8" ?>
<!DOCTYPE svg PUBLIC "-//W3C//DTD SVG 1.1//EN" "http://www.w3.org/Graphics/SVG/1.1/DTD/svg11.dtd">
<svg width="64pt" height="64pt" viewBox="0 0 64 64" version="1.1" xmlns="http://www.w3.org/2000/svg">
<g id="#ffffffff">
<path fill="#ffffff" opacity="1.00" d=" M 0.00 0.00 L 64.00 0.00 L 64.00 64.00 L 0.00 64.00 L 0.00 0.00 M 27.49 6.59 C 28.19 10.32 31.37 12.74 32.55 16.26 C 30.93 16.17 29.26 16.06 28.08 14.82 C 25.08 12.26 20.75 12.63 17.63 10.22 C 20.04 13.24 23.73 14.64 26.46 17.29 C 24.80 17.92 23.09 18.00 21.42 17.41 C 17.83 16.38 14.13 18.51 10.57 16.99 C 13.60 19.19 17.40 19.12 20.89 20.08 C 20.47 20.70 19.64 21.92 19.22 22.54 C 14.36 21.95 10.93 25.88 6.56 27.15 C 10.18 27.08 13.62 25.85 17.21 25.44 C 17.04 26.09 16.71 27.39 16.54 28.04 C 12.04 29.25 10.40 33.91 6.83 36.42 C 10.47 35.70 12.82 32.54 16.29 31.45 C 16.67 34.76 13.38 36.49 12.83 39.50 C 12.33 41.81 11.45 44.00 10.18 45.99 C 13.17 43.85 14.51 40.34 16.89 37.65 C 17.70 39.04 18.51 40.43 19.32 41.81 C 16.39 44.72 13.48 47.65 10.56 50.56 C 11.52 51.52 12.48 52.48 13.44 53.44 C 16.44 50.43 19.44 47.43 22.46 44.43 C 21.92 49.43 25.77 52.98 27.13 57.45 C 27.09 53.82 25.85 50.37 25.43 46.79 C 26.08 46.96 27.38 47.29 28.04 47.46 C 29.24 52.10 34.22 53.62 36.53 57.49 C 35.84 53.72 32.62 51.27 31.45 47.71 C 33.03 47.89 34.68 48.06 35.85 49.28 C 38.75 51.76 42.94 51.49 45.98 53.79 C 43.99 50.56 39.77 49.88 37.85 46.68 C 39.15 46.05 40.47 45.96 41.81 46.40 C 45.64 47.84 49.76 45.18 53.30 47.68 C 50.84 44.37 46.60 45.07 43.11 43.90 C 43.53 43.29 44.36 42.07 44.78 41.46 C 49.65 42.04 53.07 38.11 57.45 36.85 C 53.82 36.92 50.37 38.15 46.79 38.56 C 46.96 37.91 47.30 36.61 47.46 35.96 C 52.12 34.75 53.63 29.74 57.54 27.46 C 53.74 28.14 51.28 31.36 47.72 32.56 C 47.31 29.25 50.60 27.54 51.16 24.55 C 51.66 22.23 52.56 20.02 53.79 17.99 C 50.81 20.18 49.48 23.72 47.05 26.40 C 46.72 25.77 46.04 24.52 45.70 23.89 C 44.78 24.83 43.86 25.77 42.94 26.70 C 44.37 30.66 44.42 35.31 41.83 38.82 C 38.33 44.18 30.30 45.61 25.14 41.81 C 19.56 38.16 18.34 29.63 22.63 24.53 C 26.00 20.08 32.27 19.04 37.29 21.05 C 38.73 19.60 40.17 18.15 41.60 16.68 C 40.42 13.08 37.98 10.09 36.82 6.48 C 36.90 10.15 38.17 13.63 38.56 17.26 C 37.91 17.08 36.61 16.73 35.96 16.55 C 34.76 11.93 29.86 10.38 27.49 6.59 M 48.00 10.00 C 48.00 10.78 48.00 12.34 48.00 13.12 C 44.17 16.92 40.41 20.79 36.56 24.57 C 37.52 25.52 38.48 26.48 39.44 27.43 C 43.25 23.62 47.06 19.81 50.88 16.00 C 51.66 16.00 53.22 16.00 54.00 16.00 C 54.67 13.33 55.33 10.67 56.00 8.00 C 53.33 8.67 50.67 9.33 48.00 10.00 Z" />
</g>
<g id="#000000ff">
<path fill="#000000" opacity="1.00" d=" M 27.49 6.59 C 29.86 10.38 34.76 11.93 35.96 16.55 C 36.61 16.73 37.91 17.08 38.56 17.26 C 38.17 13.63 36.90 10.15 36.82 6.48 C 37.98 10.09 40.42 13.08 41.60 16.68 C 40.17 18.15 38.73 19.60 37.29 21.05 C 32.27 19.04 26.00 20.08 22.63 24.53 C 18.34 29.63 19.56 38.16 25.14 41.81 C 30.30 45.61 38.33 44.18 41.83 38.82 C 44.42 35.31 44.37 30.66 42.94 26.70 C 43.86 25.77 44.78 24.83 45.70 23.89 C 46.04 24.52 46.72 25.77 47.05 26.40 C 49.48 23.72 50.81 20.18 53.79 17.99 C 52.56 20.02 51.66 22.23 51.16 24.55 C 50.60 27.54 47.31 29.25 47.72 32.56 C 51.28 31.36 53.74 28.14 57.54 27.46 C 53.63 29.74 52.12 34.75 47.46 35.96 C 47.30 36.61 46.96 37.91 46.79 38.56 C 50.37 38.15 53.82 36.92 57.45 36.85 C 53.07 38.11 49.65 42.04 44.78 41.46 C 44.36 42.07 43.53 43.29 43.11 43.90 C 46.60 45.07 50.84 44.37 53.30 47.68 C 49.76 45.18 45.64 47.84 41.81 46.40 C 40.47 45.96 39.15 46.05 37.85 46.68 C 39.77 49.88 43.99 50.56 45.98 53.79 C 42.94 51.49 38.75 51.76 35.85 49.28 C 34.68 48.06 33.03 47.89 31.45 47.71 C 32.62 51.27 35.84 53.72 36.53 57.49 C 34.22 53.62 29.24 52.10 28.04 47.46 C 27.38 47.29 26.08 46.96 25.43 46.79 C 25.85 50.37 27.09 53.82 27.13 57.45 C 25.77 52.98 21.92 49.43 22.46 44.43 C 19.44 47.43 16.44 50.43 13.44 53.44 C 12.48 52.48 11.52 51.52 10.56 50.56 C 13.48 47.65 16.39 44.72 19.32 41.81 C 18.51 40.43 17.70 39.04 16.89 37.65 C 14.51 40.34 13.17 43.85 10.18 45.99 C 11.45 44.00 12.33 41.81 12.83 39.50 C 13.38 36.49 16.67 34.76 16.29 31.45 C 12.82 32.54 10.47 35.70 6.83 36.42 C 10.40 33.91 12.04 29.25 16.54 28.04 C 16.71 27.39 17.04 26.09 17.21 25.44 C 13.62 25.85 10.18 27.08 6.56 27.15 C 10.93 25.88 14.36 21.95 19.22 22.54 C 19.64 21.92 20.47 20.70 20.89 20.08 C 17.40 19.12 13.60 19.19 10.57 16.99 C 14.13 18.51 17.83 16.38 21.42 17.41 C 23.09 18.00 24.80 17.92 26.46 17.29 C 23.73 14.64 20.04 13.24 17.63 10.22 C 20.75 12.63 25.08 12.26 28.08 14.82 C 29.26 16.06 30.93 16.17 32.55 16.26 C 31.37 12.74 28.19 10.32 27.49 6.59 Z" />
<path fill="#000000" opacity="1.00" d=" M 48.00 10.00 C 50.67 9.33 53.33 8.67 56.00 8.00 C 55.33 10.67 54.67 13.33 54.00 16.00 C 53.22 16.00 51.66 16.00 50.88 16.00 C 47.06 19.81 43.25 23.62 39.44 27.43 C 38.48 26.48 37.52 25.52 36.56 24.57 C 40.41 20.79 44.17 16.92 48.00 13.12 C 48.00 12.34 48.00 10.78 48.00 10.00 Z" />
</g>
</svg>
