<?xml version="1.0" encoding="UTF-8" ?>
<!DOCTYPE svg PUBLIC "-//W3C//DTD SVG 1.1//EN" "http://www.w3.org/Graphics/SVG/1.1/DTD/svg11.dtd">
<svg width="64pt" height="64pt" viewBox="0 0 64 64" version="1.1" xmlns="http://www.w3.org/2000/svg">
<g id="#ffffffff">
<path fill="#ffffff" opacity="1.00" d=" M 0.00 0.00 L 64.00 0.00 L 64.00 64.00 L 0.00 64.00 L 0.00 0.00 M 15.52 6.11 C 16.15 7.84 16.85 9.53 17.68 11.17 C 16.94 12.11 16.21 13.06 15.49 14.02 C 16.30 15.03 17.13 16.02 17.97 17.01 C 17.20 17.91 16.44 18.80 15.70 19.71 C 19.37 24.36 17.69 30.51 17.99 35.95 C 16.00 35.98 14.00 36.02 12.00 36.05 C 12.17 41.93 11.56 47.85 12.30 53.70 C 13.21 58.02 18.36 58.43 21.94 58.01 C 24.83 58.04 27.69 55.88 27.84 52.87 C 28.29 47.28 27.89 41.66 28.00 36.05 C 26.00 36.02 24.00 35.98 22.00 35.95 C 22.31 30.51 20.64 24.37 24.30 19.71 C 23.56 18.80 22.80 17.90 22.03 17.01 C 22.87 16.02 23.70 15.03 24.51 14.02 C 23.79 13.06 23.06 12.11 22.32 11.17 C 23.15 9.53 23.85 7.84 24.48 6.11 C 21.49 6.00 18.51 6.00 15.52 6.11 M 38.04 18.00 C 38.02 19.96 38.00 21.92 37.99 23.87 C 36.66 23.96 35.33 24.05 34.00 24.14 C 34.06 33.11 33.91 42.08 34.01 51.06 C 33.84 53.89 35.30 57.06 38.30 57.68 C 42.05 58.28 45.95 58.28 49.70 57.68 C 52.69 57.06 54.16 53.88 53.99 51.05 C 54.09 42.08 53.94 33.11 54.00 24.14 C 52.67 24.05 51.34 23.96 50.01 23.87 C 50.00 21.92 49.98 19.96 49.96 18.00 C 45.99 18.00 42.01 18.00 38.04 18.00 Z" />
<path fill="#ffffff" opacity="1.00" d=" M 42.00 22.00 C 43.33 22.00 44.67 22.00 46.00 22.00 C 46.00 22.50 45.99 23.50 45.99 24.00 C 44.66 24.00 43.33 24.00 42.01 24.00 C 42.00 23.50 42.00 22.50 42.00 22.00 Z" />
<path fill="#ffffff" opacity="1.00" d=" M 38.00 28.00 C 42.00 28.00 46.00 28.00 50.01 28.00 C 50.01 28.50 50.01 29.50 50.01 30.00 C 46.00 30.00 41.99 30.00 37.99 30.00 C 37.99 29.50 38.00 28.50 38.00 28.00 Z" />
<path fill="#ffffff" opacity="1.00" d=" M 38.01 34.00 C 42.00 34.00 46.00 34.00 49.99 34.00 C 49.97 40.59 50.18 47.19 49.76 53.78 C 45.93 54.05 42.07 54.05 38.24 53.78 C 37.82 47.20 38.03 40.59 38.01 34.00 Z" />
<path fill="#ffffff" opacity="1.00" d=" M 16.01 40.00 C 18.67 40.00 21.33 40.00 23.99 40.00 C 24.02 44.61 24.08 49.24 23.76 53.85 C 21.25 53.92 18.75 53.92 16.25 53.85 C 15.92 49.24 15.97 44.62 16.01 40.00 Z" />
</g>
<g id="#000000ff">
<path fill="#000000" opacity="1.00" d=" M 15.52 6.11 C 18.51 6.00 21.49 6.00 24.48 6.11 C 23.85 7.84 23.15 9.53 22.32 11.17 C 23.06 12.11 23.79 13.06 24.51 14.02 C 23.70 15.03 22.87 16.02 22.03 17.01 C 22.80 17.90 23.56 18.80 24.30 19.71 C 20.64 24.37 22.31 30.51 22.00 35.95 C 24.00 35.98 26.00 36.02 28.00 36.05 C 27.89 41.66 28.29 47.28 27.84 52.87 C 27.69 55.88 24.83 58.04 21.94 58.01 C 18.36 58.43 13.21 58.02 12.30 53.70 C 11.56 47.85 12.17 41.93 12.00 36.05 C 14.00 36.02 16.00 35.98 17.99 35.95 C 17.69 30.51 19.37 24.36 15.70 19.71 C 16.44 18.80 17.20 17.91 17.97 17.01 C 17.13 16.02 16.30 15.03 15.49 14.02 C 16.21 13.06 16.94 12.11 17.68 11.17 C 16.85 9.53 16.15 7.84 15.52 6.11 M 16.01 40.00 C 15.97 44.62 15.92 49.24 16.25 53.85 C 18.75 53.92 21.25 53.92 23.76 53.85 C 24.08 49.24 24.02 44.61 23.99 40.00 C 21.33 40.00 18.67 40.00 16.01 40.00 Z" />
<path fill="#000000" opacity="1.00" d=" M 38.04 18.00 C 42.01 18.00 45.99 18.00 49.96 18.00 C 49.98 19.96 50.00 21.92 50.01 23.87 C 51.34 23.96 52.67 24.05 54.00 24.14 C 53.94 33.11 54.09 42.08 53.99 51.05 C 54.16 53.88 52.69 57.06 49.70 57.68 C 45.95 58.28 42.05 58.28 38.30 57.68 C 35.30 57.06 33.84 53.89 34.01 51.06 C 33.91 42.08 34.06 33.11 34.00 24.14 C 35.33 24.05 36.66 23.96 37.99 23.87 C 38.00 21.92 38.02 19.96 38.04 18.00 M 42.00 22.00 C 42.00 22.50 42.00 23.50 42.01 24.00 C 43.33 24.00 44.66 24.00 45.99 24.00 C 45.99 23.50 46.00 22.50 46.00 22.00 C 44.67 22.00 43.33 22.00 42.00 22.00 M 38.00 28.00 C 38.00 28.50 37.99 29.50 37.99 30.00 C 41.99 30.00 46.00 30.00 50.01 30.00 C 50.01 29.50 50.01 28.50 50.01 28.00 C 46.00 28.00 42.00 28.00 38.00 28.00 M 38.01 34.00 C 38.03 40.59 37.82 47.20 38.24 53.78 C 42.07 54.05 45.93 54.05 49.76 53.78 C 50.18 47.19 49.97 40.59 49.99 34.00 C 46.00 34.00 42.00 34.00 38.01 34.00 Z" />
</g>
</svg>
