<?xml version="1.0" encoding="UTF-8" ?>
<!DOCTYPE svg PUBLIC "-//W3C//DTD SVG 1.1//EN" "http://www.w3.org/Graphics/SVG/1.1/DTD/svg11.dtd">
<svg width="64pt" height="64pt" viewBox="0 0 64 64" version="1.1" xmlns="http://www.w3.org/2000/svg">
<g id="#ffffffff">
<path fill="#ffffff" opacity="1.00" d=" M 0.00 0.00 L 64.00 0.00 L 64.00 64.00 L 0.00 64.00 L 0.00 0.00 M 12.43 12.01 C 10.38 20.41 8.17 28.78 6.18 37.19 C 5.75 42.11 6.12 47.06 6.00 52.00 C 23.33 52.00 40.67 52.00 58.00 52.00 C 57.88 47.06 58.25 42.10 57.82 37.18 C 55.83 28.77 53.62 20.41 51.57 12.01 C 38.52 11.99 25.48 12.00 12.43 12.01 Z" />
<path fill="#ffffff" opacity="1.00" d=" M 15.56 16.01 C 26.52 16.00 37.48 15.99 48.45 16.01 C 50.10 22.68 51.77 29.33 53.44 36.00 C 39.15 36.00 24.85 36.00 10.56 36.00 C 12.23 29.33 13.90 22.67 15.56 16.01 M 28.00 26.01 C 26.00 25.32 24.01 24.61 22.01 23.94 C 22.65 26.63 23.32 29.32 24.00 32.00 C 29.33 32.00 34.67 32.00 40.00 32.00 C 40.67 29.33 41.33 26.67 42.00 24.00 C 40.00 24.66 38.00 25.33 36.00 26.00 C 34.68 23.99 33.34 22.00 32.00 20.00 C 30.67 22.00 29.33 24.00 28.00 26.01 Z" />
<path fill="#ffffff" opacity="1.00" d=" M 10.00 40.00 C 24.67 40.00 39.33 40.00 54.00 40.00 C 54.00 42.67 54.00 45.33 54.00 48.00 C 39.33 48.00 24.67 48.00 10.00 48.00 C 10.00 45.33 10.00 42.67 10.00 40.00 M 47.26 42.17 C 44.75 43.03 46.46 46.95 48.84 45.89 C 51.14 44.84 49.55 41.08 47.26 42.17 Z" />
</g>
<g id="#000000ff">
<path fill="#000000" opacity="1.00" d=" M 12.43 12.01 C 25.48 12.00 38.52 11.99 51.57 12.01 C 53.62 20.41 55.83 28.77 57.82 37.18 C 58.25 42.10 57.88 47.06 58.00 52.00 C 40.67 52.00 23.33 52.00 6.00 52.00 C 6.12 47.06 5.75 42.11 6.18 37.19 C 8.17 28.78 10.38 20.41 12.43 12.01 M 15.56 16.01 C 13.90 22.67 12.23 29.33 10.56 36.00 C 24.85 36.00 39.15 36.00 53.44 36.00 C 51.77 29.33 50.10 22.68 48.45 16.01 C 37.48 15.99 26.52 16.00 15.56 16.01 M 10.00 40.00 C 10.00 42.67 10.00 45.33 10.00 48.00 C 24.67 48.00 39.33 48.00 54.00 48.00 C 54.00 45.33 54.00 42.67 54.00 40.00 C 39.33 40.00 24.67 40.00 10.00 40.00 Z" />
<path fill="#000000" opacity="1.00" d=" M 28.00 26.01 C 29.33 24.00 30.67 22.00 32.00 20.00 C 33.34 22.00 34.68 23.99 36.00 26.00 C 38.00 25.33 40.00 24.66 42.00 24.00 C 41.33 26.67 40.67 29.33 40.00 32.00 C 34.67 32.00 29.33 32.00 24.00 32.00 C 23.32 29.32 22.65 26.63 22.01 23.94 C 24.01 24.61 26.00 25.32 28.00 26.01 Z" />
<path fill="#000000" opacity="1.00" d=" M 47.26 42.17 C 49.55 41.08 51.14 44.84 48.84 45.89 C 46.46 46.95 44.75 43.03 47.26 42.17 Z" />
</g>
</svg>
