<?xml version="1.0" encoding="UTF-8" ?>
<!DOCTYPE svg PUBLIC "-//W3C//DTD SVG 1.1//EN" "http://www.w3.org/Graphics/SVG/1.1/DTD/svg11.dtd">
<svg width="60pt" height="60pt" viewBox="0 0 60 60" version="1.1" xmlns="http://www.w3.org/2000/svg">
<g id="#ffffffff">
<path fill="#ffffff" opacity="1.00" d=" M 0.00 0.00 L 60.00 0.00 L 60.00 60.00 L 0.00 60.00 L 0.00 0.00 M 12.28 4.42 C 10.56 5.22 9.80 7.16 10.00 8.96 C 10.03 18.02 9.93 27.08 10.05 36.13 C 9.96 38.67 12.65 40.36 14.98 40.00 C 25.36 39.97 35.75 40.07 46.12 39.95 C 48.63 39.98 50.38 37.35 50.00 35.00 C 49.97 25.96 50.07 16.92 49.95 7.88 C 49.97 5.88 48.16 3.96 46.11 4.05 C 36.40 3.92 26.69 4.06 16.98 3.98 C 15.42 4.10 13.73 3.73 12.28 4.42 M 9.99 43.01 C 10.07 46.34 9.82 49.68 10.14 53.00 C 10.60 55.14 12.94 56.25 14.99 56.00 C 25.03 56.00 35.07 56.01 45.12 56.00 C 47.16 56.26 49.28 55.07 49.85 53.04 C 50.18 49.71 49.93 46.35 50.01 43.01 C 48.41 43.56 46.76 44.09 45.03 44.00 C 36.69 44.01 28.34 43.99 19.99 44.00 C 16.64 43.97 13.15 44.37 9.99 43.01 Z" />
<path fill="#ffffff" opacity="1.00" d=" M 24.31 17.56 C 26.21 15.04 28.11 12.52 30.00 10.00 C 31.91 12.51 33.80 15.04 35.69 17.56 C 38.46 16.41 41.23 15.22 43.99 14.02 C 43.33 18.02 42.66 22.01 42.00 26.00 C 34.00 26.00 26.00 26.00 18.00 26.00 C 17.33 21.99 16.66 17.99 16.01 13.98 C 18.78 15.16 21.56 16.34 24.31 17.56 Z" />
<path fill="#ffffff" opacity="1.00" d=" M 17.89 30.01 C 25.96 30.00 34.04 30.00 42.11 30.01 C 41.95 31.43 42.19 34.05 40.05 33.93 C 33.34 34.06 26.62 34.05 19.91 33.93 C 17.80 34.00 18.05 31.43 17.89 30.01 Z" />
<path fill="#ffffff" opacity="1.00" d=" M 43.11 48.17 C 45.48 47.05 47.12 50.65 44.92 51.87 C 42.54 52.95 40.81 49.32 43.11 48.17 Z" />
</g>
<g id="#000000ff">
<path fill="#000000" opacity="1.00" d=" M 12.28 4.42 C 13.73 3.73 15.42 4.10 16.98 3.98 C 26.69 4.06 36.40 3.92 46.11 4.05 C 48.16 3.96 49.97 5.88 49.95 7.88 C 50.07 16.92 49.97 25.96 50.00 35.00 C 50.38 37.35 48.63 39.98 46.12 39.95 C 35.75 40.07 25.36 39.97 14.98 40.00 C 12.65 40.36 9.96 38.67 10.05 36.13 C 9.93 27.08 10.03 18.02 10.00 8.96 C 9.80 7.16 10.56 5.22 12.28 4.42 M 24.31 17.56 C 21.56 16.34 18.78 15.16 16.01 13.98 C 16.66 17.99 17.33 21.99 18.00 26.00 C 26.00 26.00 34.00 26.00 42.00 26.00 C 42.66 22.01 43.33 18.02 43.99 14.02 C 41.23 15.22 38.46 16.41 35.69 17.56 C 33.80 15.04 31.91 12.51 30.00 10.00 C 28.11 12.52 26.21 15.04 24.31 17.56 M 17.89 30.01 C 18.05 31.43 17.80 34.00 19.91 33.93 C 26.62 34.05 33.34 34.06 40.05 33.93 C 42.19 34.05 41.95 31.43 42.11 30.01 C 34.04 30.00 25.96 30.00 17.89 30.01 Z" />
<path fill="#000000" opacity="1.00" d=" M 9.99 43.01 C 13.15 44.37 16.64 43.97 19.99 44.00 C 28.34 43.99 36.69 44.01 45.03 44.00 C 46.76 44.09 48.41 43.56 50.01 43.01 C 49.93 46.35 50.18 49.71 49.85 53.04 C 49.28 55.07 47.16 56.26 45.12 56.00 C 35.07 56.01 25.03 56.00 14.99 56.00 C 12.94 56.25 10.60 55.14 10.14 53.00 C 9.82 49.68 10.07 46.34 9.99 43.01 M 43.11 48.17 C 40.81 49.32 42.54 52.95 44.92 51.87 C 47.12 50.65 45.48 47.05 43.11 48.17 Z" />
</g>
</svg>
