<?xml version="1.0" encoding="UTF-8" ?>
<!DOCTYPE svg PUBLIC "-//W3C//DTD SVG 1.1//EN" "http://www.w3.org/Graphics/SVG/1.1/DTD/svg11.dtd">
<svg width="64pt" height="64pt" viewBox="0 0 64 64" version="1.1" xmlns="http://www.w3.org/2000/svg">
<g id="#ffffffff">
<path fill="#ffffff" opacity="1.00" d=" M 0.00 0.00 L 64.00 0.00 L 64.00 64.00 L 0.00 64.00 L 0.00 0.00 M 7.39 12.61 C 5.01 13.68 3.83 16.35 4.00 18.87 C 4.03 27.95 3.91 37.04 4.06 46.12 C 3.95 49.69 7.47 52.38 10.89 52.00 C 24.95 52.01 39.01 52.00 53.08 52.00 C 56.50 52.39 60.02 49.71 59.94 46.13 C 60.05 36.72 60.05 27.29 59.94 17.88 C 60.00 14.78 57.24 11.99 54.14 12.06 C 40.42 11.89 26.69 12.09 12.96 11.97 C 11.11 12.06 9.13 11.82 7.39 12.61 Z" />
<path fill="#ffffff" opacity="1.00" d=" M 8.08 17.97 C 7.89 16.42 9.61 15.85 10.85 16.02 C 24.59 15.96 38.34 16.04 52.09 15.98 C 53.36 16.13 55.17 15.68 55.83 17.17 C 56.03 18.77 56.01 20.39 56.07 22.00 C 40.71 21.99 25.35 22.01 10.00 22.00 C 10.00 23.33 10.00 24.67 10.00 26.00 C 25.33 25.99 40.67 26.01 56.00 26.00 C 55.91 32.68 56.16 39.36 55.92 46.04 C 56.05 48.14 53.53 48.02 52.11 48.02 C 38.08 47.92 24.05 48.12 10.03 47.93 C 7.83 48.09 7.97 45.49 7.98 44.00 C 8.08 35.33 7.87 26.64 8.08 17.97 M 33.15 31.18 C 29.27 33.55 28.99 39.72 32.65 42.42 C 34.99 44.53 38.31 44.07 41.01 43.01 C 43.50 43.92 46.45 44.55 48.77 42.85 C 52.71 40.53 53.07 34.33 49.40 31.59 C 47.06 29.46 43.72 29.90 41.01 30.96 C 38.49 30.04 35.48 29.44 33.15 31.18 Z" />
<path fill="#ffffff" opacity="1.00" d=" M 34.02 37.01 C 33.91 34.62 36.38 34.03 38.24 33.82 C 38.18 35.93 38.18 38.05 38.24 40.16 C 36.39 39.93 33.94 39.38 34.02 37.01 Z" />
<path fill="#ffffff" opacity="1.00" d=" M 43.77 33.82 C 45.61 34.04 48.02 34.59 48.01 36.93 C 48.09 39.32 45.66 39.95 43.77 40.15 C 43.83 38.04 43.83 35.93 43.77 33.82 Z" />
</g>
<g id="#000000ff">
<path fill="#000000" opacity="1.00" d=" M 7.39 12.61 C 9.13 11.82 11.11 12.06 12.96 11.97 C 26.69 12.09 40.42 11.89 54.14 12.06 C 57.24 11.99 60.00 14.78 59.94 17.88 C 60.05 27.29 60.05 36.72 59.94 46.13 C 60.02 49.71 56.50 52.39 53.08 52.00 C 39.01 52.00 24.95 52.01 10.89 52.00 C 7.47 52.38 3.95 49.69 4.06 46.12 C 3.91 37.04 4.03 27.95 4.00 18.87 C 3.83 16.35 5.01 13.68 7.39 12.61 M 8.08 17.97 C 7.87 26.64 8.08 35.33 7.98 44.00 C 7.97 45.49 7.83 48.09 10.03 47.93 C 24.05 48.12 38.08 47.92 52.11 48.02 C 53.53 48.02 56.05 48.14 55.92 46.04 C 56.16 39.36 55.91 32.68 56.00 26.00 C 40.67 26.01 25.33 25.99 10.00 26.00 C 10.00 24.67 10.00 23.33 10.00 22.00 C 25.35 22.01 40.71 21.99 56.07 22.00 C 56.01 20.39 56.03 18.77 55.83 17.17 C 55.17 15.68 53.36 16.13 52.09 15.98 C 38.34 16.04 24.59 15.96 10.85 16.02 C 9.61 15.85 7.89 16.42 8.08 17.97 Z" />
<path fill="#000000" opacity="1.00" d=" M 33.15 31.18 C 35.48 29.44 38.49 30.04 41.01 30.96 C 43.72 29.90 47.06 29.46 49.40 31.59 C 53.07 34.33 52.71 40.53 48.77 42.85 C 46.45 44.55 43.50 43.92 41.01 43.01 C 38.31 44.07 34.99 44.53 32.65 42.42 C 28.99 39.72 29.27 33.55 33.15 31.18 M 34.02 37.01 C 33.94 39.38 36.39 39.93 38.24 40.16 C 38.18 38.05 38.18 35.93 38.24 33.82 C 36.38 34.03 33.91 34.62 34.02 37.01 M 43.77 33.82 C 43.83 35.93 43.83 38.04 43.77 40.15 C 45.66 39.95 48.09 39.32 48.01 36.93 C 48.02 34.59 45.61 34.04 43.77 33.82 Z" />
</g>
</svg>
