<?xml version="1.0" encoding="UTF-8" ?>
<!DOCTYPE svg PUBLIC "-//W3C//DTD SVG 1.1//EN" "http://www.w3.org/Graphics/SVG/1.1/DTD/svg11.dtd">
<svg width="60pt" height="60pt" viewBox="0 0 60 60" version="1.1" xmlns="http://www.w3.org/2000/svg">
<g id="#ffffffff">
<path fill="#ffffff" opacity="1.00" d=" M 0.00 0.00 L 60.00 0.00 L 60.00 60.00 L 0.00 60.00 L 0.00 0.00 M 9.17 14.27 C 6.69 15.12 8.46 19.07 10.77 17.77 C 17.23 15.37 23.59 12.70 30.00 10.15 C 36.69 12.66 43.19 15.72 49.98 17.95 C 52.14 18.32 52.85 14.88 50.81 14.24 C 43.94 11.29 36.96 8.59 29.99 5.88 C 23.06 8.70 16.04 11.30 9.17 14.27 M 9.10 20.32 C 6.70 21.21 8.52 25.07 10.78 23.77 C 17.25 21.39 23.59 18.67 30.00 16.15 C 36.42 18.64 42.75 21.38 49.22 23.77 C 51.53 25.07 53.30 21.13 50.84 20.26 C 43.96 17.32 36.96 14.64 30.00 11.88 C 23.04 14.70 15.98 17.30 9.10 20.32 M 11.11 25.40 C 9.91 25.99 8.17 26.29 7.91 27.88 C 7.79 29.35 9.44 30.47 10.75 29.78 C 17.22 27.37 23.59 24.72 29.99 22.15 C 36.42 24.62 42.73 27.38 49.19 29.75 C 50.92 30.64 52.66 28.81 51.91 27.08 C 50.42 25.74 48.42 25.20 46.61 24.44 C 41.03 22.35 35.57 19.96 29.99 17.88 C 23.69 20.36 17.40 22.89 11.11 25.40 M 9.26 34.10 C 7.58 34.66 7.48 37.34 9.29 37.79 C 22.66 43.33 38.21 43.29 51.45 37.42 C 52.81 36.35 51.78 33.61 50.00 34.08 C 45.84 35.06 41.83 36.70 37.58 37.29 C 29.59 38.80 21.33 37.64 13.68 35.09 C 12.23 34.72 10.79 33.97 9.26 34.10 M 9.25 40.04 C 7.66 40.70 7.43 43.30 9.27 43.78 C 22.62 49.33 38.15 49.28 51.40 43.45 C 53.24 41.94 51.02 38.95 49.01 40.30 C 40.98 42.93 32.45 44.92 23.97 43.53 C 18.91 43.06 14.22 40.87 9.25 40.04 M 9.25 46.05 C 7.65 46.70 7.44 49.30 9.28 49.78 C 22.65 55.33 38.23 55.30 51.48 49.40 C 53.16 47.84 51.02 45.00 49.05 46.29 C 41.00 48.92 32.47 50.92 23.97 49.53 C 18.90 49.06 14.21 46.87 9.25 46.05 Z" />
</g>
<g id="#000000ff">
<path fill="#968176" opacity="1.00" d=" M 9.17 14.27 C 16.04 11.30 23.06 8.70 29.99 5.88 C 36.96 8.59 43.94 11.29 50.81 14.24 C 52.85 14.88 52.14 18.32 49.98 17.95 C 43.19 15.72 36.69 12.66 30.00 10.15 C 23.59 12.70 17.23 15.37 10.77 17.77 C 8.46 19.07 6.69 15.12 9.17 14.27 Z" />
<path fill="#968176" opacity="1.00" d=" M 9.10 20.32 C 15.98 17.30 23.04 14.70 30.00 11.88 C 36.96 14.64 43.96 17.32 50.84 20.26 C 53.30 21.13 51.53 25.07 49.22 23.77 C 42.75 21.38 36.42 18.64 30.00 16.15 C 23.59 18.67 17.25 21.39 10.78 23.77 C 8.52 25.07 6.70 21.21 9.10 20.32 Z" />
<path fill="#968176" opacity="1.00" d=" M 11.11 25.40 C 17.40 22.89 23.69 20.36 29.99 17.88 C 35.57 19.96 41.03 22.35 46.61 24.44 C 48.42 25.20 50.42 25.74 51.91 27.08 C 52.66 28.81 50.92 30.64 49.19 29.75 C 42.73 27.38 36.42 24.62 29.99 22.15 C 23.59 24.72 17.22 27.37 10.75 29.78 C 9.44 30.47 7.79 29.35 7.91 27.88 C 8.17 26.29 9.91 25.99 11.11 25.40 Z" />
<path fill="#968176" opacity="1.00" d=" M 9.26 34.10 C 10.79 33.97 12.23 34.72 13.68 35.09 C 21.33 37.64 29.59 38.80 37.58 37.29 C 41.83 36.70 45.84 35.06 50.00 34.08 C 51.78 33.61 52.81 36.35 51.45 37.42 C 38.21 43.29 22.66 43.33 9.29 37.79 C 7.48 37.34 7.58 34.66 9.26 34.10 Z" />
<path fill="#968176" opacity="1.00" d=" M 9.25 40.04 C 14.22 40.87 18.91 43.06 23.97 43.53 C 32.45 44.92 40.98 42.93 49.01 40.30 C 51.02 38.95 53.24 41.94 51.40 43.45 C 38.15 49.28 22.62 49.33 9.27 43.78 C 7.43 43.30 7.66 40.70 9.25 40.04 Z" />
<path fill="#968176" opacity="1.00" d=" M 9.25 46.05 C 14.21 46.87 18.90 49.06 23.97 49.53 C 32.47 50.92 41.00 48.92 49.05 46.29 C 51.02 45.00 53.16 47.84 51.48 49.40 C 38.23 55.30 22.65 55.33 9.28 49.78 C 7.44 49.30 7.65 46.70 9.25 46.05 Z" />
</g>
</svg>
