<?xml version="1.0" encoding="UTF-8" ?>
<!DOCTYPE svg PUBLIC "-//W3C//DTD SVG 1.1//EN" "http://www.w3.org/Graphics/SVG/1.1/DTD/svg11.dtd">
<svg width="64pt" height="64pt" viewBox="0 0 64 64" version="1.1" xmlns="http://www.w3.org/2000/svg">
<g id="#ffffffff">
<path fill="#ffffff" opacity="1.00" d=" M 0.00 0.00 L 64.00 0.00 L 64.00 64.00 L 0.00 64.00 L 0.00 0.00 M 12.00 6.00 C 12.00 23.33 12.00 40.67 12.00 58.00 C 25.33 58.00 38.67 58.00 52.00 58.00 C 52.00 48.94 52.00 39.89 52.00 30.84 C 53.34 29.50 54.67 28.17 56.00 26.82 C 56.00 19.88 56.00 12.94 56.00 6.00 C 41.33 6.00 26.67 6.00 12.00 6.00 Z" />
<path fill="#ffffff" opacity="1.00" d=" M 16.00 10.00 C 25.33 10.00 34.67 10.00 44.00 10.00 C 44.00 15.61 43.99 21.22 44.00 26.83 C 45.35 28.16 46.69 29.50 48.01 30.85 C 47.99 38.57 48.01 46.28 48.00 54.00 C 37.33 54.00 26.67 54.00 16.00 54.00 C 16.00 39.33 16.00 24.67 16.00 10.00 M 22.59 27.42 C 24.46 29.27 26.32 31.13 28.18 33.00 C 26.32 34.86 24.46 36.72 22.60 38.58 C 23.54 39.52 24.49 40.46 25.43 41.40 C 27.29 39.55 29.15 37.69 31.01 35.84 C 32.87 37.69 34.73 39.54 36.57 41.40 C 37.52 40.46 38.47 39.53 39.42 38.59 C 37.57 36.72 35.71 34.86 33.86 33.00 C 35.71 31.13 37.56 29.27 39.41 27.41 C 38.47 26.47 37.54 25.53 36.60 24.59 C 34.73 26.44 32.87 28.30 31.02 30.16 C 29.15 28.30 27.26 26.44 25.38 24.59 C 24.45 25.53 23.53 26.48 22.59 27.42 Z" />
<path fill="#ffffff" opacity="1.00" d=" M 48.00 10.00 C 49.33 10.00 50.67 10.00 52.00 10.00 C 52.01 15.05 51.99 20.09 52.01 25.14 C 51.34 25.82 50.67 26.49 50.00 27.17 C 49.33 26.50 48.66 25.83 47.99 25.15 C 48.01 20.10 48.00 15.05 48.00 10.00 Z" />
</g>
<g id="#000000ff">
<path fill="#000000" opacity="1.00" d=" M 12.00 6.00 C 26.67 6.00 41.33 6.00 56.00 6.00 C 56.00 12.94 56.00 19.88 56.00 26.82 C 54.67 28.17 53.34 29.50 52.00 30.84 C 52.00 39.89 52.00 48.94 52.00 58.00 C 38.67 58.00 25.33 58.00 12.00 58.00 C 12.00 40.67 12.00 23.33 12.00 6.00 M 16.00 10.00 C 16.00 24.67 16.00 39.33 16.00 54.00 C 26.67 54.00 37.33 54.00 48.00 54.00 C 48.01 46.28 47.99 38.57 48.01 30.85 C 46.69 29.50 45.35 28.16 44.00 26.83 C 43.99 21.22 44.00 15.61 44.00 10.00 C 34.67 10.00 25.33 10.00 16.00 10.00 M 48.00 10.00 C 48.00 15.05 48.01 20.10 47.99 25.15 C 48.66 25.83 49.33 26.50 50.00 27.17 C 50.67 26.49 51.34 25.82 52.01 25.14 C 51.99 20.09 52.01 15.05 52.00 10.00 C 50.67 10.00 49.33 10.00 48.00 10.00 Z" />
<path fill="#000000" opacity="1.00" d=" M 22.59 27.42 C 23.53 26.48 24.45 25.53 25.38 24.59 C 27.26 26.44 29.15 28.30 31.02 30.16 C 32.87 28.30 34.73 26.44 36.60 24.59 C 37.54 25.53 38.47 26.47 39.41 27.41 C 37.56 29.27 35.71 31.13 33.86 33.00 C 35.71 34.86 37.57 36.72 39.42 38.59 C 38.47 39.53 37.52 40.46 36.57 41.40 C 34.73 39.54 32.87 37.69 31.01 35.84 C 29.15 37.69 27.29 39.55 25.43 41.40 C 24.49 40.46 23.54 39.52 22.60 38.58 C 24.46 36.72 26.32 34.86 28.18 33.00 C 26.32 31.13 24.46 29.27 22.59 27.42 Z" />
</g>
</svg>
