<?xml version="1.0" encoding="UTF-8" ?>
<!DOCTYPE svg PUBLIC "-//W3C//DTD SVG 1.1//EN" "http://www.w3.org/Graphics/SVG/1.1/DTD/svg11.dtd">
<svg width="64pt" height="64pt" viewBox="0 0 64 64" version="1.1" xmlns="http://www.w3.org/2000/svg">
<g id="#ffffffff">
<path fill="#ffffff" opacity="1.00" d=" M 0.00 0.00 L 64.00 0.00 L 64.00 64.00 L 0.00 64.00 L 0.00 0.00 M 12.00 6.00 C 12.00 23.33 12.00 40.67 12.00 58.00 C 20.96 57.99 29.93 58.01 38.89 57.99 C 43.23 53.59 47.59 49.23 51.99 44.90 C 52.02 31.93 51.99 18.96 52.00 6.00 C 38.67 6.00 25.33 6.00 12.00 6.00 Z" />
<path fill="#ffffff" opacity="1.00" d=" M 16.00 10.00 C 26.67 10.00 37.33 10.00 48.00 10.00 C 48.00 20.67 48.00 31.34 48.00 42.01 C 44.00 41.96 39.99 42.04 35.99 41.99 C 36.04 45.99 35.95 50.00 36.01 54.00 C 29.34 54.00 22.67 54.00 16.00 54.01 C 16.00 39.34 16.00 24.67 16.00 10.00 Z" />
<path fill="#ffffff" opacity="1.00" d=" M 39.98 45.99 C 41.69 46.00 43.40 46.01 45.11 46.05 C 43.44 47.75 41.75 49.44 40.05 51.11 C 40.01 49.40 40.00 47.69 39.98 45.99 Z" />
</g>
<g id="#000000ff">
<path fill="#000000" opacity="1.00" d=" M 12.00 6.00 C 25.33 6.00 38.67 6.00 52.00 6.00 C 51.99 18.96 52.02 31.93 51.99 44.90 C 47.59 49.23 43.23 53.59 38.89 57.99 C 29.93 58.01 20.96 57.99 12.00 58.00 C 12.00 40.67 12.00 23.33 12.00 6.00 M 16.00 10.00 C 16.00 24.67 16.00 39.34 16.00 54.01 C 22.67 54.00 29.34 54.00 36.01 54.00 C 35.95 50.00 36.04 45.99 35.99 41.99 C 39.99 42.04 44.00 41.96 48.00 42.01 C 48.00 31.34 48.00 20.67 48.00 10.00 C 37.33 10.00 26.67 10.00 16.00 10.00 M 39.98 45.99 C 40.00 47.69 40.01 49.40 40.05 51.11 C 41.75 49.44 43.44 47.75 45.11 46.05 C 43.40 46.01 41.69 46.00 39.98 45.99 Z" />
</g>
</svg>
