<?xml version="1.0" encoding="UTF-8" ?>
<!DOCTYPE svg PUBLIC "-//W3C//DTD SVG 1.1//EN" "http://www.w3.org/Graphics/SVG/1.1/DTD/svg11.dtd">
<svg width="64pt" height="64pt" viewBox="0 0 64 64" version="1.1" xmlns="http://www.w3.org/2000/svg">
<g id="#ffffffff">
<path fill="#ffffff" opacity="1.00" d=" M 0.00 0.00 L 64.00 0.00 L 64.00 64.00 L 0.00 64.00 L 0.00 0.00 M 14.53 14.17 C 13.50 13.14 12.46 12.12 11.43 11.10 C 10.48 12.04 9.53 12.98 8.58 13.92 C 10.58 15.86 12.54 17.83 14.49 19.82 C 17.98 16.36 21.46 12.88 24.92 9.40 C 23.98 8.46 23.04 7.53 22.10 6.60 C 19.57 9.11 17.04 11.63 14.53 14.17 M 30.00 14.00 C 30.00 15.33 30.00 16.67 30.00 18.00 C 38.67 18.00 47.33 18.00 56.00 18.00 C 56.00 16.67 56.00 15.33 56.00 14.00 C 47.33 14.00 38.67 14.00 30.00 14.00 M 11.41 22.59 C 10.47 23.53 9.53 24.46 8.59 25.40 C 10.12 26.94 11.65 28.47 13.18 30.00 C 11.66 31.52 10.13 33.04 8.60 34.56 C 9.54 35.51 10.48 36.46 11.42 37.41 C 12.96 35.89 14.48 34.35 16.01 32.84 C 17.54 34.36 19.07 35.89 20.61 37.41 C 21.54 36.46 22.48 35.51 23.41 34.56 C 21.88 33.04 20.37 31.52 18.85 30.00 C 20.37 28.46 21.90 26.94 23.43 25.41 C 22.48 24.47 21.54 23.53 20.60 22.58 C 19.07 24.11 17.54 25.64 16.02 27.16 C 14.48 25.64 12.95 24.10 11.41 22.59 M 30.00 30.00 C 30.00 31.33 30.00 32.67 30.00 34.00 C 38.67 34.00 47.33 34.00 56.00 34.00 C 56.00 32.67 56.00 31.33 56.00 30.00 C 47.33 30.00 38.67 30.00 30.00 30.00 M 9.80 46.01 C 11.07 46.08 12.33 46.03 13.57 45.84 C 14.42 44.90 15.34 43.44 16.84 44.13 C 18.49 44.60 18.30 47.19 16.69 47.52 C 14.64 48.15 13.86 50.00 13.84 52.00 C 15.10 52.00 16.37 51.99 17.63 52.00 C 20.72 50.19 23.49 46.37 21.14 42.85 C 18.29 37.66 9.80 40.16 9.80 46.01 M 30.00 46.00 C 30.00 47.33 30.00 48.67 30.00 50.00 C 38.67 50.00 47.33 50.00 56.00 50.00 C 56.00 48.67 56.00 47.33 56.00 46.00 C 47.33 46.00 38.67 46.00 30.00 46.00 M 14.00 54.00 C 14.00 55.33 14.00 56.67 14.00 58.00 C 15.33 58.00 16.67 58.00 18.00 58.00 C 18.00 56.67 18.00 55.33 18.00 54.00 C 16.67 54.00 15.33 54.00 14.00 54.00 Z" />
</g>
<g id="#000000ff">
<path fill="#000000" opacity="1.00" d=" M 14.53 14.17 C 17.04 11.63 19.57 9.11 22.10 6.60 C 23.04 7.53 23.98 8.46 24.92 9.40 C 21.46 12.88 17.98 16.36 14.49 19.82 C 12.54 17.83 10.58 15.86 8.58 13.92 C 9.53 12.98 10.48 12.04 11.43 11.10 C 12.46 12.12 13.50 13.14 14.53 14.17 Z" />
<path fill="#000000" opacity="1.00" d=" M 30.00 14.00 C 38.67 14.00 47.33 14.00 56.00 14.00 C 56.00 15.33 56.00 16.67 56.00 18.00 C 47.33 18.00 38.67 18.00 30.00 18.00 C 30.00 16.67 30.00 15.33 30.00 14.00 Z" />
<path fill="#000000" opacity="1.00" d=" M 11.41 22.59 C 12.95 24.10 14.48 25.64 16.02 27.16 C 17.54 25.64 19.07 24.11 20.60 22.58 C 21.54 23.53 22.48 24.47 23.43 25.41 C 21.90 26.94 20.37 28.46 18.85 30.00 C 20.37 31.52 21.88 33.04 23.41 34.56 C 22.48 35.51 21.54 36.46 20.61 37.41 C 19.07 35.89 17.54 34.36 16.01 32.84 C 14.48 34.35 12.96 35.89 11.42 37.41 C 10.48 36.46 9.54 35.51 8.60 34.56 C 10.13 33.04 11.66 31.52 13.18 30.00 C 11.65 28.47 10.12 26.94 8.59 25.40 C 9.53 24.46 10.47 23.53 11.41 22.59 Z" />
<path fill="#000000" opacity="1.00" d=" M 30.00 30.00 C 38.67 30.00 47.33 30.00 56.00 30.00 C 56.00 31.33 56.00 32.67 56.00 34.00 C 47.33 34.00 38.67 34.00 30.00 34.00 C 30.00 32.67 30.00 31.33 30.00 30.00 Z" />
<path fill="#000000" opacity="1.00" d=" M 9.80 46.01 C 9.80 40.16 18.29 37.66 21.14 42.85 C 23.49 46.37 20.72 50.19 17.63 52.00 C 16.37 51.99 15.10 52.00 13.84 52.00 C 13.86 50.00 14.64 48.15 16.69 47.52 C 18.30 47.19 18.49 44.60 16.84 44.13 C 15.34 43.44 14.42 44.90 13.57 45.84 C 12.33 46.03 11.07 46.08 9.80 46.01 Z" />
<path fill="#000000" opacity="1.00" d=" M 30.00 46.00 C 38.67 46.00 47.33 46.00 56.00 46.00 C 56.00 47.33 56.00 48.67 56.00 50.00 C 47.33 50.00 38.67 50.00 30.00 50.00 C 30.00 48.67 30.00 47.33 30.00 46.00 Z" />
<path fill="#000000" opacity="1.00" d=" M 14.00 54.00 C 15.33 54.00 16.67 54.00 18.00 54.00 C 18.00 55.33 18.00 56.67 18.00 58.00 C 16.67 58.00 15.33 58.00 14.00 58.00 C 14.00 56.67 14.00 55.33 14.00 54.00 Z" />
</g>
</svg>
