<?xml version="1.0" encoding="UTF-8" ?>
<!DOCTYPE svg PUBLIC "-//W3C//DTD SVG 1.1//EN" "http://www.w3.org/Graphics/SVG/1.1/DTD/svg11.dtd">
<svg width="64pt" height="64pt" viewBox="0 0 64 64" version="1.1" xmlns="http://www.w3.org/2000/svg">
<g id="#ffffffff">
<path fill="#ffffff" opacity="1.00" d=" M 0.00 0.00 L 64.00 0.00 L 64.00 64.00 L 0.00 64.00 L 0.00 0.00 M 28.10 8.18 C 24.72 7.34 20.68 9.20 20.15 12.87 C 19.78 19.77 20.13 26.69 19.98 33.59 C 16.35 36.82 14.48 42.06 16.17 46.76 C 17.65 51.14 18.53 56.59 23.14 58.84 C 27.77 60.96 33.06 59.63 37.98 60.01 C 43.34 60.43 49.36 59.36 52.80 54.82 C 57.50 49.29 55.62 41.62 56.00 35.01 C 55.69 29.85 56.68 24.50 55.42 19.46 C 53.30 14.50 45.84 15.28 44.11 20.17 C 42.73 20.18 41.36 20.17 39.99 20.15 C 39.92 16.38 40.20 12.60 39.85 8.85 C 39.31 5.42 35.36 3.09 32.10 4.32 C 30.18 4.85 29.13 6.63 28.10 8.18 Z" />
<path fill="#ffffff" opacity="1.00" d=" M 32.05 10.01 C 31.75 7.46 36.12 7.37 35.93 9.91 C 36.11 16.70 35.94 23.50 36.00 30.30 C 34.67 30.42 33.33 30.52 32.00 30.60 C 32.05 23.74 31.91 16.87 32.05 10.01 Z" />
<path fill="#ffffff" opacity="1.00" d=" M 24.07 13.91 C 23.93 12.43 25.60 11.72 26.83 12.10 C 28.27 12.87 27.94 14.59 28.01 15.94 C 28.02 20.92 27.98 25.90 28.00 30.88 C 26.66 31.00 25.32 31.20 24.00 31.48 C 24.06 25.62 23.88 19.76 24.07 13.91 Z" />
<path fill="#ffffff" opacity="1.00" d=" M 48.17 21.15 C 48.90 19.26 52.13 19.88 51.94 21.96 C 52.06 30.00 52.01 38.04 51.96 46.08 C 52.04 50.99 47.98 55.53 43.07 55.89 C 38.03 56.12 32.98 55.99 27.94 55.97 C 25.10 56.10 22.56 53.96 21.86 51.27 C 20.50 47.12 17.95 42.11 21.15 38.15 C 24.01 34.19 29.37 35.04 33.61 34.47 C 35.29 34.53 37.40 33.70 38.67 35.21 C 39.29 36.41 39.00 37.95 37.65 38.46 C 34.04 39.53 30.07 39.12 26.58 40.57 C 26.42 40.93 26.10 41.65 25.94 42.01 C 27.11 44.68 28.87 47.07 30.67 49.36 C 31.64 50.76 34.15 49.70 33.99 48.01 C 33.57 46.32 32.33 44.99 31.44 43.53 C 34.66 42.90 38.34 43.23 40.99 40.96 C 43.33 39.51 46.80 39.12 47.64 35.99 C 48.56 31.11 47.56 26.07 48.17 21.15 Z" />
<path fill="#ffffff" opacity="1.00" d=" M 40.18 25.10 C 40.97 23.30 44.09 23.87 43.93 25.92 C 43.84 29.15 44.69 32.69 43.24 35.70 C 42.46 33.95 41.48 32.30 40.02 31.03 C 40.03 29.05 39.86 27.05 40.18 25.10 Z" />
</g>
<g id="#000000ff">
<path fill="#000000" opacity="1.00" d=" M 28.10 8.18 C 29.13 6.63 30.18 4.85 32.10 4.32 C 35.36 3.09 39.31 5.42 39.85 8.85 C 40.20 12.60 39.92 16.38 39.99 20.15 C 41.36 20.17 42.73 20.18 44.11 20.17 C 45.84 15.28 53.30 14.50 55.42 19.46 C 56.68 24.50 55.69 29.85 56.00 35.01 C 55.62 41.62 57.50 49.29 52.80 54.82 C 49.36 59.36 43.34 60.43 37.98 60.01 C 33.06 59.63 27.77 60.96 23.14 58.84 C 18.53 56.59 17.65 51.14 16.17 46.76 C 14.48 42.06 16.35 36.82 19.98 33.59 C 20.13 26.69 19.78 19.77 20.15 12.87 C 20.68 9.20 24.72 7.34 28.10 8.18 M 32.05 10.01 C 31.91 16.87 32.05 23.74 32.00 30.60 C 33.33 30.52 34.67 30.42 36.00 30.30 C 35.94 23.50 36.11 16.70 35.93 9.91 C 36.12 7.37 31.75 7.46 32.05 10.01 M 24.07 13.91 C 23.88 19.76 24.06 25.62 24.00 31.48 C 25.32 31.20 26.66 31.00 28.00 30.88 C 27.98 25.90 28.02 20.92 28.01 15.94 C 27.94 14.59 28.27 12.87 26.83 12.10 C 25.60 11.72 23.93 12.43 24.07 13.91 M 48.17 21.15 C 47.56 26.07 48.56 31.11 47.64 35.99 C 46.80 39.12 43.33 39.51 40.99 40.96 C 38.34 43.23 34.66 42.90 31.44 43.53 C 32.33 44.99 33.57 46.32 33.99 48.01 C 34.15 49.70 31.64 50.76 30.67 49.36 C 28.87 47.07 27.11 44.68 25.94 42.01 C 26.10 41.65 26.42 40.93 26.58 40.57 C 30.07 39.12 34.04 39.53 37.65 38.46 C 39.00 37.95 39.29 36.41 38.67 35.21 C 37.40 33.70 35.29 34.53 33.61 34.47 C 29.37 35.04 24.01 34.19 21.15 38.15 C 17.95 42.11 20.50 47.12 21.86 51.27 C 22.56 53.96 25.10 56.10 27.94 55.97 C 32.98 55.99 38.03 56.12 43.07 55.89 C 47.98 55.53 52.04 50.99 51.96 46.08 C 52.01 38.04 52.06 30.00 51.94 21.96 C 52.13 19.88 48.90 19.26 48.17 21.15 M 40.18 25.10 C 39.86 27.05 40.03 29.05 40.02 31.03 C 41.48 32.30 42.46 33.95 43.24 35.70 C 44.69 32.69 43.84 29.15 43.93 25.92 C 44.09 23.87 40.97 23.30 40.18 25.10 Z" />
</g>
</svg>
