<?xml version="1.0" encoding="UTF-8" ?>
<!DOCTYPE svg PUBLIC "-//W3C//DTD SVG 1.1//EN" "http://www.w3.org/Graphics/SVG/1.1/DTD/svg11.dtd">
<svg width="64pt" height="64pt" viewBox="0 0 64 64" version="1.1" xmlns="http://www.w3.org/2000/svg">
<g id="#ffffffff">
<path fill="#ffffff" opacity="1.00" d=" M 0.00 0.00 L 64.00 0.00 L 64.00 64.00 L 0.00 64.00 L 0.00 0.00 M 13.14 17.19 C 7.94 23.65 6.59 32.88 9.63 40.58 C 11.52 45.73 15.42 49.87 19.98 52.80 C 19.99 51.20 19.99 49.60 19.99 48.00 C 15.46 44.37 12.26 38.95 12.05 33.08 C 11.54 25.79 15.51 18.48 21.81 14.80 C 28.36 10.80 37.22 11.14 43.46 15.62 C 49.61 19.86 53.01 27.73 51.73 35.11 C 51.01 40.25 47.98 44.77 44.01 48.00 C 44.01 49.60 44.02 51.20 44.03 52.80 C 53.15 47.47 58.12 35.96 55.15 25.72 C 52.76 16.61 44.58 9.35 35.19 8.23 C 26.93 7.03 18.24 10.60 13.14 17.19 M 23.99 39.86 C 24.01 45.91 23.99 51.95 24.00 58.00 C 25.33 58.00 26.67 58.00 28.00 58.00 C 28.01 51.96 27.98 45.92 28.02 39.88 C 29.43 39.17 30.80 38.40 32.14 37.57 C 33.41 38.35 34.69 39.12 35.99 39.85 C 36.02 45.90 35.99 51.95 36.00 58.00 C 37.33 58.00 38.67 58.00 40.00 58.00 C 40.01 51.94 39.98 45.89 40.01 39.83 C 42.86 38.67 45.59 36.41 45.87 33.14 C 46.19 28.77 45.91 24.38 46.00 20.00 C 44.67 20.00 43.33 20.00 42.00 20.00 C 41.90 24.33 42.21 28.67 41.85 32.98 C 41.16 36.92 34.79 36.91 34.14 32.95 C 33.79 28.65 34.09 24.32 34.00 20.00 C 32.69 20.00 31.37 20.00 30.06 20.00 L 29.96 21.42 C 28.19 20.47 26.09 19.38 24.09 20.37 C 16.81 23.73 15.22 37.31 23.99 39.86 M 36.00 20.00 C 36.08 23.61 35.78 27.24 36.17 30.84 C 36.84 32.36 39.11 32.35 39.82 30.87 C 40.23 27.26 39.91 23.62 40.00 20.00 C 38.67 20.00 37.33 20.00 36.00 20.00 Z" />
<path fill="#ffffff" opacity="1.00" d=" M 25.26 24.18 C 28.96 23.82 30.10 29.17 29.96 32.06 C 30.22 35.86 24.67 37.50 22.73 34.35 C 21.13 31.03 22.27 26.37 25.26 24.18 Z" />
</g>
<g id="#000000ff">
<path fill="#000000" opacity="1.00" d=" M 13.14 17.19 C 18.24 10.60 26.93 7.03 35.19 8.23 C 44.58 9.35 52.76 16.61 55.15 25.72 C 58.12 35.96 53.15 47.47 44.03 52.80 C 44.02 51.20 44.01 49.60 44.01 48.00 C 47.98 44.77 51.01 40.25 51.73 35.11 C 53.01 27.73 49.61 19.86 43.46 15.62 C 37.22 11.14 28.36 10.80 21.81 14.80 C 15.51 18.48 11.54 25.79 12.05 33.08 C 12.26 38.95 15.46 44.37 19.99 48.00 C 19.99 49.60 19.99 51.20 19.98 52.80 C 15.42 49.87 11.52 45.73 9.63 40.58 C 6.59 32.88 7.94 23.65 13.14 17.19 Z" />
<path fill="#000000" opacity="1.00" d=" M 23.99 39.86 C 15.22 37.31 16.81 23.73 24.09 20.37 C 26.09 19.38 28.19 20.47 29.96 21.42 L 30.06 20.00 C 31.37 20.00 32.69 20.00 34.00 20.00 C 34.09 24.32 33.79 28.65 34.14 32.95 C 34.79 36.91 41.16 36.92 41.85 32.98 C 42.21 28.67 41.90 24.33 42.00 20.00 C 43.33 20.00 44.67 20.00 46.00 20.00 C 45.91 24.38 46.19 28.77 45.87 33.14 C 45.59 36.41 42.86 38.67 40.01 39.83 C 39.98 45.89 40.01 51.94 40.00 58.00 C 38.67 58.00 37.33 58.00 36.00 58.00 C 35.99 51.95 36.02 45.90 35.99 39.85 C 34.69 39.12 33.41 38.35 32.14 37.57 C 30.80 38.40 29.43 39.17 28.02 39.88 C 27.98 45.92 28.01 51.96 28.00 58.00 C 26.67 58.00 25.33 58.00 24.00 58.00 C 23.99 51.95 24.01 45.91 23.99 39.86 M 25.26 24.18 C 22.27 26.37 21.13 31.03 22.73 34.35 C 24.67 37.50 30.22 35.86 29.96 32.06 C 30.10 29.17 28.96 23.82 25.26 24.18 Z" />
<path fill="#000000" opacity="1.00" d=" M 36.00 20.00 C 37.33 20.00 38.67 20.00 40.00 20.00 C 39.91 23.62 40.23 27.26 39.82 30.87 C 39.11 32.35 36.84 32.36 36.17 30.84 C 35.78 27.24 36.08 23.61 36.00 20.00 Z" />
</g>
</svg>
