<?xml version="1.0" encoding="UTF-8" ?>
<!DOCTYPE svg PUBLIC "-//W3C//DTD SVG 1.1//EN" "http://www.w3.org/Graphics/SVG/1.1/DTD/svg11.dtd">
<svg width="60pt" height="60pt" viewBox="0 0 60 60" version="1.1" xmlns="http://www.w3.org/2000/svg">
<g id="#ffffffff">
<path fill="#ffffff" opacity="1.00" d=" M 0.00 0.00 L 60.00 0.00 L 60.00 60.00 L 0.00 60.00 L 0.00 0.00 M 3.99 3.99 C 8.97 11.44 13.95 18.88 18.89 26.36 C 15.45 30.00 13.36 35.04 14.15 40.10 C 15.01 47.84 22.31 54.16 30.08 53.99 C 37.81 54.11 44.98 47.78 45.85 40.10 C 46.64 35.04 44.53 30.01 41.10 26.36 C 46.06 18.90 51.03 11.45 56.00 4.00 C 54.44 4.01 52.88 4.02 51.32 4.03 C 46.95 10.74 42.47 17.37 38.02 24.03 C 36.21 23.35 34.38 22.72 32.54 22.10 C 36.57 16.07 40.59 10.04 44.61 4.00 C 43.07 4.00 41.54 4.00 40.00 4.00 C 35.96 10.00 32.02 16.07 27.92 22.04 C 25.90 22.55 23.93 23.28 22.00 24.07 C 17.57 17.40 13.07 10.76 8.69 4.04 C 7.13 4.02 5.56 4.00 3.99 3.99 M 15.41 4.01 C 18.84 9.16 22.27 14.31 25.71 19.46 C 26.47 18.30 27.24 17.14 28.01 15.98 C 25.32 11.99 22.68 7.98 20.00 3.99 C 18.47 4.00 16.94 4.01 15.41 4.01 Z" />
<path fill="#ffffff" opacity="1.00" d=" M 24.22 34.57 C 24.81 29.57 32.14 28.14 34.77 32.22 C 36.53 36.30 31.80 38.89 29.50 41.44 C 31.47 41.48 33.45 41.52 35.42 41.58 C 35.42 42.27 35.42 43.65 35.42 44.33 C 31.77 44.33 28.13 44.35 24.48 44.31 C 24.52 39.57 30.93 38.28 31.71 33.97 C 31.05 31.36 27.97 32.86 27.36 34.69 C 26.31 34.65 25.27 34.61 24.22 34.57 Z" />
</g>
<g id="#000000ff">
<path fill="#000000" opacity="1.00" d=" M 3.99 3.99 C 5.56 4.00 7.13 4.02 8.69 4.04 C 13.07 10.76 17.57 17.40 22.00 24.07 C 23.93 23.28 25.90 22.55 27.92 22.04 C 32.02 16.07 35.96 10.00 40.00 4.00 C 41.54 4.00 43.07 4.00 44.61 4.00 C 40.59 10.04 36.57 16.07 32.54 22.10 C 34.38 22.72 36.21 23.35 38.02 24.03 C 42.47 17.37 46.95 10.74 51.32 4.03 C 52.88 4.02 54.44 4.01 56.00 4.00 C 51.03 11.45 46.06 18.90 41.10 26.36 C 44.53 30.01 46.64 35.04 45.85 40.10 C 44.98 47.78 37.81 54.11 30.08 53.99 C 22.31 54.16 15.01 47.84 14.15 40.10 C 13.36 35.04 15.45 30.00 18.89 26.36 C 13.95 18.88 8.97 11.44 3.99 3.99 M 24.22 34.57 C 25.27 34.61 26.31 34.65 27.36 34.69 C 27.97 32.86 31.05 31.36 31.71 33.97 C 30.93 38.28 24.52 39.57 24.48 44.31 C 28.13 44.35 31.77 44.33 35.42 44.33 C 35.42 43.65 35.42 42.27 35.42 41.58 C 33.45 41.52 31.47 41.48 29.50 41.44 C 31.80 38.89 36.53 36.30 34.77 32.22 C 32.14 28.14 24.81 29.57 24.22 34.57 Z" />
<path fill="#000000" opacity="1.00" d=" M 15.41 4.01 C 16.94 4.01 18.47 4.00 20.00 3.99 C 22.68 7.98 25.32 11.99 28.01 15.98 C 27.24 17.14 26.47 18.30 25.71 19.46 C 22.27 14.31 18.84 9.16 15.41 4.01 Z" />
</g>
</svg>
