<?xml version="1.0" encoding="UTF-8" ?>
<!DOCTYPE svg PUBLIC "-//W3C//DTD SVG 1.1//EN" "http://www.w3.org/Graphics/SVG/1.1/DTD/svg11.dtd">
<svg width="60pt" height="60pt" viewBox="0 0 60 60" version="1.1" xmlns="http://www.w3.org/2000/svg">
<g id="#ffffffff">
<path fill="#ffffff" opacity="1.00" d=" M 0.00 0.00 L 60.00 0.00 L 60.00 60.00 L 0.00 60.00 L 0.00 0.00 M 28.41 4.42 C 20.61 11.59 13.37 19.40 5.76 26.79 C 3.91 28.16 3.33 31.06 5.25 32.65 C 12.57 40.03 19.93 47.39 27.32 54.71 C 28.66 56.34 31.28 56.36 32.65 54.76 C 40.05 47.46 47.39 40.09 54.71 32.71 C 56.33 31.34 56.37 28.69 54.74 27.32 C 47.60 20.07 40.36 12.92 33.18 5.72 C 32.02 4.40 30.09 3.44 28.41 4.42 Z" />
<path fill="#ffffff" opacity="1.00" d=" M 16.38 27.49 C 18.52 25.94 21.79 28.33 20.83 30.82 C 20.44 32.70 17.99 33.57 16.43 32.53 C 14.60 31.51 14.57 28.55 16.38 27.49 Z" />
<path fill="#ffffff" opacity="1.00" d=" M 28.43 27.46 C 30.58 25.97 33.81 28.37 32.82 30.85 C 32.41 32.72 29.97 33.56 28.41 32.53 C 26.58 31.48 26.59 28.50 28.43 27.46 Z" />
<path fill="#ffffff" opacity="1.00" d=" M 40.39 27.49 C 42.23 26.19 45.09 27.72 44.98 29.99 C 45.08 32.24 42.32 33.79 40.46 32.54 C 38.60 31.55 38.56 28.53 40.39 27.49 Z" />
</g>
<g id="#000000ff">
<path fill="#000000" opacity="1.00" d=" M 28.41 4.42 C 30.09 3.44 32.02 4.40 33.18 5.72 C 40.36 12.92 47.60 20.07 54.74 27.32 C 56.37 28.69 56.33 31.34 54.71 32.71 C 47.39 40.09 40.05 47.46 32.65 54.76 C 31.28 56.36 28.66 56.34 27.32 54.71 C 19.93 47.39 12.57 40.03 5.25 32.65 C 3.33 31.06 3.91 28.16 5.76 26.79 C 13.37 19.40 20.61 11.59 28.41 4.42 M 16.38 27.49 C 14.57 28.55 14.60 31.51 16.43 32.53 C 17.99 33.57 20.44 32.70 20.83 30.82 C 21.79 28.33 18.52 25.94 16.38 27.49 M 28.43 27.46 C 26.59 28.50 26.58 31.48 28.41 32.53 C 29.97 33.56 32.41 32.72 32.82 30.85 C 33.81 28.37 30.58 25.97 28.43 27.46 M 40.39 27.49 C 38.56 28.53 38.60 31.55 40.46 32.54 C 42.32 33.79 45.08 32.24 44.98 29.99 C 45.09 27.72 42.23 26.19 40.39 27.49 Z" />
</g>
</svg>
