<?xml version="1.0" encoding="UTF-8" ?>
<!DOCTYPE svg PUBLIC "-//W3C//DTD SVG 1.1//EN" "http://www.w3.org/Graphics/SVG/1.1/DTD/svg11.dtd">
<svg width="60pt" height="60pt" viewBox="0 0 60 60" version="1.1" xmlns="http://www.w3.org/2000/svg">
<g id="#ffffffff">
<path fill="#ffffff" opacity="1.00" d=" M 0.00 0.00 L 60.00 0.00 L 60.00 60.00 L 0.00 60.00 L 0.00 0.00 M 3.94 7.93 C 6.08 11.62 8.20 15.33 10.30 19.05 C 12.72 17.52 15.44 16.54 18.32 16.41 C 17.65 15.47 16.97 14.53 16.31 13.59 C 17.57 11.68 18.80 9.76 20.10 7.88 C 19.28 6.08 17.80 4.78 16.05 3.92 C 14.94 5.22 13.81 6.50 12.68 7.79 C 11.76 6.49 10.84 5.20 9.93 3.89 C 7.51 4.52 5.36 5.85 3.94 7.93 M 30.71 7.74 C 32.28 9.40 33.87 11.04 35.46 12.67 C 34.93 13.28 34.40 13.90 33.88 14.51 C 39.75 14.87 45.49 17.26 49.51 21.62 C 48.87 19.47 48.12 17.34 47.15 15.31 C 49.34 12.99 51.68 10.80 53.88 8.49 C 52.55 6.81 50.89 5.42 48.88 4.60 C 47.02 6.35 45.13 8.06 43.27 9.80 C 41.11 7.53 38.74 5.46 36.02 3.89 C 34.09 4.94 32.33 6.26 30.71 7.74 M 24.01 21.84 C 20.64 19.71 16.05 19.24 12.73 21.71 C 7.68 25.32 7.09 32.59 9.02 38.06 C 10.97 43.67 16.29 47.17 21.66 49.07 C 19.65 45.72 18.15 41.98 18.01 38.04 C 17.92 36.52 19.51 35.68 20.83 36.11 C 22.22 36.94 21.91 38.74 22.30 40.09 C 23.06 45.42 26.82 50.13 31.81 52.14 C 38.97 55.01 47.67 54.71 54.03 50.06 C 53.87 41.95 53.21 33.32 48.62 26.35 C 44.91 20.43 37.67 17.52 30.86 18.10 C 28.15 18.36 25.97 20.11 24.01 21.84 Z" />
</g>
<g id="#000000ff">
<path fill="#000000" opacity="1.00" d=" M 3.94 7.93 C 5.36 5.85 7.51 4.52 9.93 3.89 C 10.84 5.20 11.76 6.49 12.68 7.79 C 13.81 6.50 14.94 5.22 16.05 3.92 C 17.80 4.78 19.28 6.08 20.10 7.88 C 18.80 9.76 17.57 11.68 16.31 13.59 C 16.97 14.53 17.65 15.47 18.32 16.41 C 15.44 16.54 12.72 17.52 10.30 19.05 C 8.20 15.33 6.08 11.62 3.94 7.93 Z" />
<path fill="#000000" opacity="1.00" d=" M 30.71 7.74 C 32.33 6.26 34.09 4.94 36.02 3.89 C 38.74 5.46 41.11 7.53 43.27 9.80 C 45.13 8.06 47.02 6.35 48.88 4.60 C 50.89 5.42 52.55 6.81 53.88 8.49 C 51.68 10.80 49.34 12.99 47.15 15.31 C 48.12 17.34 48.87 19.47 49.51 21.62 C 45.49 17.26 39.75 14.87 33.88 14.51 C 34.40 13.90 34.93 13.28 35.46 12.67 C 33.87 11.04 32.28 9.40 30.71 7.74 Z" />
<path fill="#000000" opacity="1.00" d=" M 24.01 21.84 C 25.97 20.11 28.15 18.36 30.86 18.10 C 37.67 17.52 44.91 20.43 48.62 26.35 C 53.21 33.32 53.87 41.95 54.03 50.06 C 47.67 54.71 38.97 55.01 31.81 52.14 C 26.82 50.13 23.06 45.42 22.30 40.09 C 21.91 38.74 22.22 36.94 20.83 36.11 C 19.51 35.68 17.92 36.52 18.01 38.04 C 18.15 41.98 19.65 45.72 21.66 49.07 C 16.29 47.17 10.97 43.67 9.02 38.06 C 7.09 32.59 7.68 25.32 12.73 21.71 C 16.05 19.24 20.64 19.71 24.01 21.84 Z" />
</g>
</svg>
