<?xml version="1.0" encoding="UTF-8" ?>
<!DOCTYPE svg PUBLIC "-//W3C//DTD SVG 1.1//EN" "http://www.w3.org/Graphics/SVG/1.1/DTD/svg11.dtd">
<svg width="60pt" height="60pt" viewBox="0 0 60 60" version="1.1" xmlns="http://www.w3.org/2000/svg">
<g id="#ffffffff">
<path fill="#ffffff" opacity="1.00" d=" M 0.00 0.00 L 60.00 0.00 L 60.00 60.00 L 0.00 60.00 L 0.00 0.00 M 27.40 8.73 C 24.22 10.48 24.26 15.58 27.46 17.30 C 30.58 19.38 35.14 16.69 35.01 13.00 C 35.15 9.28 30.52 6.59 27.40 8.73 M 8.45 10.70 C 5.23 12.43 5.24 17.59 8.47 19.30 C 11.59 21.37 16.14 18.68 16.01 15.00 C 16.15 11.30 11.57 8.62 8.45 10.70 M 46.51 10.66 C 43.25 12.35 43.21 17.52 46.42 19.27 C 49.53 21.39 54.11 18.73 54.01 15.03 C 54.17 11.34 49.65 8.64 46.51 10.66 M 21.91 32.00 C 19.96 32.00 18.01 32.00 16.06 32.00 C 15.98 29.58 16.30 26.56 13.99 25.01 C 11.02 22.48 5.86 24.97 6.05 28.88 C 6.10 32.89 5.57 37.03 6.41 40.97 C 8.79 45.58 15.00 43.82 19.21 44.80 C 19.52 47.47 19.66 50.16 20.22 52.80 C 20.74 54.40 23.26 54.37 23.81 52.80 C 24.17 49.22 24.11 45.59 23.83 42.01 C 22.42 39.27 18.69 39.53 16.15 38.54 C 16.09 37.91 15.99 36.64 15.94 36.00 C 25.31 36.00 34.69 36.00 44.06 36.00 C 44.01 36.64 43.90 37.91 43.85 38.54 C 41.66 39.13 39.41 39.58 37.34 40.54 C 35.26 41.99 36.24 44.87 35.97 47.00 C 36.29 49.24 35.18 52.19 37.09 53.88 C 38.44 54.33 39.99 53.53 39.95 51.99 C 40.34 49.61 40.52 47.20 40.79 44.80 C 43.82 44.47 46.87 44.33 49.88 43.85 C 52.15 43.55 54.00 41.42 53.95 39.13 C 54.03 35.38 54.14 31.61 53.85 27.87 C 53.22 24.45 48.65 22.77 45.97 25.02 C 43.69 26.59 44.03 29.59 43.94 32.00 C 41.99 32.00 40.04 32.00 38.10 32.00 C 38.71 27.11 35.20 21.81 29.94 22.01 C 24.73 21.88 21.28 27.15 21.91 32.00 Z" />
</g>
<g id="#000000ff">
<path fill="#000000" opacity="1.00" d=" M 27.40 8.73 C 30.52 6.59 35.15 9.28 35.01 13.00 C 35.14 16.69 30.58 19.38 27.46 17.30 C 24.26 15.58 24.22 10.48 27.40 8.73 Z" />
<path fill="#000000" opacity="1.00" d=" M 8.45 10.70 C 11.57 8.62 16.15 11.30 16.01 15.00 C 16.14 18.68 11.59 21.37 8.47 19.30 C 5.24 17.59 5.23 12.43 8.45 10.70 Z" />
<path fill="#000000" opacity="1.00" d=" M 46.51 10.66 C 49.65 8.64 54.17 11.34 54.01 15.03 C 54.11 18.73 49.53 21.39 46.42 19.27 C 43.21 17.52 43.25 12.35 46.51 10.66 Z" />
<path fill="#000000" opacity="1.00" d=" M 21.91 32.00 C 21.28 27.15 24.73 21.88 29.94 22.01 C 35.20 21.81 38.71 27.11 38.10 32.00 C 40.04 32.00 41.99 32.00 43.94 32.00 C 44.03 29.59 43.69 26.59 45.97 25.02 C 48.65 22.77 53.22 24.45 53.85 27.87 C 54.14 31.61 54.03 35.38 53.95 39.13 C 54.00 41.42 52.15 43.55 49.88 43.85 C 46.87 44.33 43.82 44.47 40.79 44.80 C 40.52 47.20 40.34 49.61 39.95 51.99 C 39.99 53.53 38.44 54.33 37.09 53.88 C 35.18 52.19 36.29 49.24 35.97 47.00 C 36.24 44.87 35.26 41.99 37.34 40.54 C 39.41 39.58 41.66 39.13 43.85 38.54 C 43.90 37.91 44.01 36.64 44.06 36.00 C 34.69 36.00 25.31 36.00 15.94 36.00 C 15.99 36.64 16.09 37.91 16.15 38.54 C 18.69 39.53 22.42 39.27 23.83 42.01 C 24.11 45.59 24.17 49.22 23.81 52.80 C 23.26 54.37 20.74 54.40 20.22 52.80 C 19.66 50.16 19.52 47.47 19.21 44.80 C 15.00 43.82 8.79 45.58 6.41 40.97 C 5.57 37.03 6.10 32.89 6.05 28.88 C 5.86 24.97 11.02 22.48 13.99 25.01 C 16.30 26.56 15.98 29.58 16.06 32.00 C 18.01 32.00 19.96 32.00 21.91 32.00 Z" />
</g>
</svg>
