<?xml version="1.0" encoding="UTF-8" ?>
<!DOCTYPE svg PUBLIC "-//W3C//DTD SVG 1.1//EN" "http://www.w3.org/Graphics/SVG/1.1/DTD/svg11.dtd">
<svg width="60pt" height="60pt" viewBox="0 0 60 60" version="1.1" xmlns="http://www.w3.org/2000/svg">
<g id="#ffffffff">
<path fill="#ffffff" opacity="1.00" d=" M 0.00 0.00 L 60.00 0.00 L 60.00 60.00 L 0.00 60.00 L 0.00 0.00 M 2.47 26.52 C 3.07 26.46 4.26 26.34 4.85 26.28 C 5.84 22.19 7.29 18.21 9.79 14.78 C 12.15 15.84 14.57 16.76 17.03 17.56 C 16.40 20.48 15.95 23.43 15.64 26.40 C 16.25 26.40 17.46 26.40 18.06 26.40 C 18.38 23.63 18.82 20.87 19.41 18.14 C 22.52 18.67 25.65 19.01 28.80 19.18 C 29.19 21.46 27.43 25.72 30.94 25.94 C 31.22 23.70 31.23 21.44 31.22 19.18 C 34.40 19.00 37.57 18.63 40.74 18.23 C 41.17 20.95 41.59 23.67 41.94 26.40 C 42.54 26.40 43.75 26.40 44.36 26.40 C 44.04 23.44 43.60 20.49 42.98 17.58 C 45.44 16.78 47.85 15.84 50.19 14.76 C 52.70 18.19 54.16 22.18 55.14 26.28 C 55.74 26.34 56.93 26.46 57.52 26.53 C 55.95 13.13 43.59 2.11 30.04 2.41 C 16.47 2.06 4.04 13.08 2.47 26.52 M 20.80 23.80 C 22.54 25.42 24.22 27.10 25.89 28.79 C 18.06 28.81 10.23 28.80 2.40 28.80 C 2.40 29.60 2.40 30.40 2.40 31.20 C 10.23 31.20 18.06 31.20 25.89 31.21 C 24.18 32.92 22.47 34.63 20.75 36.34 C 21.17 36.77 22.01 37.63 22.43 38.06 C 24.96 35.55 27.48 33.03 30.00 30.51 C 32.52 33.01 35.03 35.53 37.54 38.05 C 38.11 37.49 38.68 36.92 39.26 36.36 C 37.55 34.63 35.83 32.91 34.11 31.20 C 41.94 31.21 49.77 31.20 57.60 31.20 C 57.60 30.40 57.61 29.60 57.60 28.80 C 49.77 28.80 41.94 28.79 34.11 28.80 C 35.82 27.09 37.54 25.37 39.25 23.65 C 38.83 23.23 37.99 22.37 37.57 21.95 C 35.04 24.45 32.53 26.98 30.00 29.49 C 27.47 26.95 24.93 24.42 22.39 21.89 C 21.91 22.56 21.38 23.20 20.80 23.80 M 2.48 33.48 C 3.32 39.02 5.64 44.37 9.47 48.51 C 16.65 56.62 28.79 59.72 39.00 56.09 C 48.82 52.86 56.18 43.70 57.52 33.47 C 56.92 33.54 55.73 33.66 55.14 33.73 C 54.16 37.81 52.70 41.79 50.21 45.22 C 47.85 44.16 45.44 43.23 42.97 42.44 C 43.60 39.52 44.04 36.57 44.35 33.60 C 43.75 33.60 42.54 33.60 41.94 33.60 C 41.62 36.37 41.18 39.13 40.59 41.86 C 37.49 41.33 34.36 40.98 31.22 40.82 C 31.23 38.56 31.22 36.30 30.93 34.05 C 27.43 34.28 29.19 38.54 28.80 40.82 C 25.65 40.98 22.51 41.32 19.40 41.85 C 18.82 39.12 18.38 36.37 18.06 33.60 C 17.46 33.60 16.25 33.60 15.65 33.60 C 15.96 36.56 16.40 39.51 17.02 42.42 C 14.56 43.21 12.15 44.15 9.80 45.24 C 7.30 41.81 5.85 37.81 4.85 33.72 C 4.26 33.66 3.07 33.54 2.48 33.48 Z" />
<path fill="#ffffff" opacity="1.00" d=" M 20.06 15.79 C 21.71 11.33 24.03 6.51 28.76 4.68 C 28.83 8.71 28.79 12.75 28.80 16.78 C 25.87 16.60 22.95 16.28 20.06 15.79 Z" />
<path fill="#ffffff" opacity="1.00" d=" M 31.25 4.68 C 35.97 6.54 38.29 11.34 39.94 15.81 C 37.06 16.27 34.16 16.59 31.26 16.84 C 31.18 12.79 31.16 8.73 31.25 4.68 Z" />
<path fill="#ffffff" opacity="1.00" d=" M 11.39 12.87 C 14.58 9.59 18.52 7.18 22.83 5.68 C 20.55 8.54 18.89 11.81 17.67 15.24 C 15.55 14.53 13.45 13.75 11.39 12.87 Z" />
<path fill="#ffffff" opacity="1.00" d=" M 37.16 5.68 C 41.47 7.18 45.41 9.58 48.60 12.85 C 46.55 13.76 44.46 14.55 42.34 15.26 C 41.11 11.83 39.44 8.55 37.16 5.68 Z" />
<path fill="#ffffff" opacity="1.00" d=" M 20.06 44.20 C 22.95 43.69 25.87 43.39 28.79 43.22 C 28.79 47.25 28.83 51.28 28.75 55.32 C 24.04 53.46 21.70 48.67 20.06 44.20 Z" />
<path fill="#ffffff" opacity="1.00" d=" M 31.19 43.24 C 34.12 43.38 37.04 43.71 39.93 44.21 C 38.28 48.67 35.95 53.45 31.25 55.32 C 31.16 51.29 31.22 47.26 31.19 43.24 Z" />
<path fill="#ffffff" opacity="1.00" d=" M 11.40 47.14 C 13.45 46.24 15.54 45.45 17.66 44.74 C 18.89 48.18 20.55 51.45 22.84 54.32 C 18.54 52.80 14.58 50.42 11.40 47.14 Z" />
<path fill="#ffffff" opacity="1.00" d=" M 42.33 44.75 C 44.45 45.47 46.55 46.25 48.61 47.13 C 45.42 50.41 41.46 52.80 37.16 54.32 C 39.44 51.46 41.10 48.19 42.33 44.75 Z" />
</g>
<g id="#020202ff">
<path fill="#020202" opacity="1.00" d=" M 2.47 26.52 C 4.04 13.08 16.47 2.06 30.04 2.41 C 43.59 2.11 55.95 13.13 57.52 26.53 C 56.93 26.46 55.74 26.34 55.14 26.28 C 54.16 22.18 52.70 18.19 50.19 14.76 C 47.85 15.84 45.44 16.78 42.98 17.58 C 43.60 20.49 44.04 23.44 44.36 26.40 C 43.75 26.40 42.54 26.40 41.94 26.40 C 41.59 23.67 41.17 20.95 40.74 18.23 C 37.57 18.63 34.40 19.00 31.22 19.18 C 31.23 21.44 31.22 23.70 30.94 25.94 C 27.43 25.72 29.19 21.46 28.80 19.18 C 25.65 19.01 22.52 18.67 19.41 18.14 C 18.82 20.87 18.38 23.63 18.06 26.40 C 17.46 26.40 16.25 26.40 15.64 26.40 C 15.95 23.43 16.40 20.48 17.03 17.56 C 14.57 16.76 12.15 15.84 9.79 14.78 C 7.29 18.21 5.84 22.19 4.85 26.28 C 4.26 26.34 3.07 26.46 2.47 26.52 M 20.06 15.79 C 22.95 16.28 25.87 16.60 28.80 16.78 C 28.79 12.75 28.83 8.71 28.76 4.68 C 24.03 6.51 21.71 11.33 20.06 15.79 M 31.25 4.68 C 31.16 8.73 31.18 12.79 31.26 16.84 C 34.16 16.59 37.06 16.27 39.94 15.81 C 38.29 11.34 35.97 6.54 31.25 4.68 M 11.39 12.87 C 13.45 13.75 15.55 14.53 17.67 15.24 C 18.89 11.81 20.55 8.54 22.83 5.68 C 18.52 7.18 14.58 9.59 11.39 12.87 M 37.16 5.68 C 39.44 8.55 41.11 11.83 42.34 15.26 C 44.46 14.55 46.55 13.76 48.60 12.85 C 45.41 9.58 41.47 7.18 37.16 5.68 Z" />
<path fill="#020202" opacity="1.00" d=" M 20.80 23.80 C 21.38 23.20 21.91 22.56 22.39 21.89 C 24.93 24.42 27.47 26.95 30.00 29.49 C 32.53 26.98 35.04 24.45 37.57 21.95 C 37.99 22.37 38.83 23.23 39.25 23.65 C 37.54 25.37 35.82 27.09 34.11 28.80 C 41.94 28.79 49.77 28.80 57.60 28.80 C 57.61 29.60 57.60 30.40 57.60 31.20 C 49.77 31.20 41.94 31.21 34.11 31.20 C 35.83 32.91 37.55 34.63 39.26 36.36 C 38.68 36.92 38.11 37.49 37.54 38.05 C 35.03 35.53 32.52 33.01 30.00 30.51 C 27.48 33.03 24.96 35.55 22.43 38.06 C 22.01 37.63 21.17 36.77 20.75 36.34 C 22.47 34.63 24.18 32.92 25.89 31.21 C 18.06 31.20 10.23 31.20 2.40 31.20 C 2.40 30.40 2.40 29.60 2.40 28.80 C 10.23 28.80 18.06 28.81 25.89 28.79 C 24.22 27.10 22.54 25.42 20.80 23.80 Z" />
<path fill="#020202" opacity="1.00" d=" M 2.48 33.48 C 3.07 33.54 4.26 33.66 4.85 33.72 C 5.85 37.81 7.30 41.81 9.80 45.24 C 12.15 44.15 14.56 43.21 17.02 42.42 C 16.40 39.51 15.96 36.56 15.65 33.60 C 16.25 33.60 17.46 33.60 18.06 33.60 C 18.38 36.37 18.82 39.12 19.40 41.85 C 22.51 41.32 25.65 40.98 28.80 40.82 C 29.19 38.54 27.43 34.28 30.93 34.05 C 31.22 36.30 31.23 38.56 31.22 40.82 C 34.36 40.98 37.49 41.33 40.59 41.86 C 41.18 39.13 41.62 36.37 41.94 33.60 C 42.54 33.60 43.75 33.60 44.35 33.60 C 44.04 36.57 43.60 39.52 42.97 42.44 C 45.44 43.23 47.85 44.16 50.21 45.22 C 52.70 41.79 54.16 37.81 55.14 33.73 C 55.73 33.66 56.92 33.54 57.52 33.47 C 56.18 43.70 48.82 52.86 39.00 56.09 C 28.79 59.72 16.65 56.62 9.47 48.51 C 5.64 44.37 3.32 39.02 2.48 33.48 M 20.06 44.20 C 21.70 48.67 24.04 53.46 28.75 55.32 C 28.83 51.28 28.79 47.25 28.79 43.22 C 25.87 43.39 22.95 43.69 20.06 44.20 M 31.19 43.24 C 31.22 47.26 31.16 51.29 31.25 55.32 C 35.95 53.45 38.28 48.67 39.93 44.21 C 37.04 43.71 34.12 43.38 31.19 43.24 M 11.40 47.14 C 14.58 50.42 18.54 52.80 22.84 54.32 C 20.55 51.45 18.89 48.18 17.66 44.74 C 15.54 45.45 13.45 46.24 11.40 47.14 M 42.33 44.75 C 41.10 48.19 39.44 51.46 37.16 54.32 C 41.46 52.80 45.42 50.41 48.61 47.13 C 46.55 46.25 44.45 45.47 42.33 44.75 Z" />
</g>
</svg>
