<?xml version="1.0" encoding="UTF-8" ?>
<!DOCTYPE svg PUBLIC "-//W3C//DTD SVG 1.1//EN" "http://www.w3.org/Graphics/SVG/1.1/DTD/svg11.dtd">
<svg width="60pt" height="60pt" viewBox="0 0 60 60" version="1.1" xmlns="http://www.w3.org/2000/svg">
<g id="#ffffffff">
<path fill="#ffffff" opacity="1.00" d=" M 0.00 0.00 L 60.00 0.00 L 60.00 60.00 L 0.00 60.00 L 0.00 0.00 M 34.30 11.28 C 30.90 14.14 29.69 18.62 26.79 21.90 C 23.58 26.14 18.80 28.61 14.39 31.38 C 10.65 34.74 7.23 38.46 3.69 42.04 C 4.98 45.05 7.95 46.76 10.62 48.41 C 19.83 53.72 32.05 52.99 40.57 46.64 C 52.20 38.57 55.50 21.20 47.69 9.41 C 46.11 7.43 44.83 4.33 42.05 3.98 C 39.13 6.02 36.94 8.91 34.30 11.28 Z" />
<path fill="#ffffff" opacity="1.00" d=" M 34.95 16.32 C 37.37 13.90 39.79 11.48 42.22 9.07 C 46.64 14.60 48.85 21.97 47.42 28.97 C 45.84 37.77 38.69 45.23 29.98 47.20 C 22.71 49.02 14.86 46.86 9.08 42.22 C 11.49 39.79 13.91 37.37 16.33 34.95 C 21.43 39.26 29.61 39.29 34.32 34.38 C 39.27 29.68 39.27 21.45 34.95 16.32 Z" />
<path fill="#ffffff" opacity="1.00" d=" M 32.17 22.17 C 33.79 21.65 34.34 22.20 33.82 23.82 C 32.20 24.34 31.65 23.79 32.17 22.17 Z" />
<path fill="#ffffff" opacity="1.00" d=" M 32.17 26.17 C 33.80 25.65 34.34 26.21 33.82 27.83 C 32.20 28.34 31.65 27.78 32.17 26.17 Z" />
<path fill="#ffffff" opacity="1.00" d=" M 30.17 30.17 C 31.79 29.65 32.34 30.21 31.82 31.82 C 30.20 32.34 29.65 31.79 30.17 30.17 Z" />
<path fill="#ffffff" opacity="1.00" d=" M 22.18 32.16 C 23.80 31.66 24.35 32.21 23.82 33.83 C 22.19 34.33 21.65 33.78 22.18 32.16 Z" />
<path fill="#ffffff" opacity="1.00" d=" M 26.16 32.18 C 27.78 31.64 28.33 32.19 27.83 33.81 C 26.21 34.35 25.66 33.80 26.16 32.18 Z" />
</g>
<g id="#000000ff">
<path fill="#968176" opacity="1.00" d=" M 34.30 11.28 C 36.94 8.91 39.13 6.02 42.05 3.98 C 44.83 4.33 46.11 7.43 47.69 9.41 C 55.50 21.20 52.20 38.57 40.57 46.64 C 32.05 52.99 19.83 53.72 10.62 48.41 C 7.95 46.76 4.98 45.05 3.69 42.04 C 7.23 38.46 10.65 34.74 14.39 31.38 C 18.80 28.61 23.58 26.14 26.79 21.90 C 29.69 18.62 30.90 14.14 34.30 11.28 M 34.95 16.32 C 39.27 21.45 39.27 29.68 34.32 34.38 C 29.61 39.29 21.43 39.26 16.33 34.95 C 13.91 37.37 11.49 39.79 9.08 42.22 C 14.86 46.86 22.71 49.02 29.98 47.20 C 38.69 45.23 45.84 37.77 47.42 28.97 C 48.85 21.97 46.64 14.60 42.22 9.07 C 39.79 11.48 37.37 13.90 34.95 16.32 M 32.17 22.17 C 31.65 23.79 32.20 24.34 33.82 23.82 C 34.34 22.20 33.79 21.65 32.17 22.17 M 32.17 26.17 C 31.65 27.78 32.20 28.34 33.82 27.83 C 34.34 26.21 33.80 25.65 32.17 26.17 M 30.17 30.17 C 29.65 31.79 30.20 32.34 31.82 31.82 C 32.34 30.21 31.79 29.65 30.17 30.17 M 22.18 32.16 C 21.65 33.78 22.19 34.33 23.82 33.83 C 24.35 32.21 23.80 31.66 22.18 32.16 M 26.16 32.18 C 25.66 33.80 26.21 34.35 27.83 33.81 C 28.33 32.19 27.78 31.64 26.16 32.18 Z" />
</g>
</svg>
