<?xml version="1.0" encoding="UTF-8" ?>
<!DOCTYPE svg PUBLIC "-//W3C//DTD SVG 1.1//EN" "http://www.w3.org/Graphics/SVG/1.1/DTD/svg11.dtd">
<svg width="64pt" height="64pt" viewBox="0 0 64 64" version="1.1" xmlns="http://www.w3.org/2000/svg">
<g id="#ffffffff">
<path fill="#ffffff" opacity="1.00" d=" M 0.00 0.00 L 64.00 0.00 L 64.00 64.00 L 0.00 64.00 L 0.00 0.00 M 11.08 18.02 C 6.41 22.98 7.35 31.40 12.60 35.59 C 6.27 38.50 2.08 45.03 1.90 51.98 C 3.23 51.99 4.56 52.00 5.89 52.00 C 6.25 48.60 7.22 45.13 9.68 42.62 C 14.05 37.58 22.16 36.56 27.65 40.33 C 31.66 42.81 33.77 47.41 34.10 52.00 C 43.44 52.00 52.78 52.00 62.12 52.00 C 62.43 43.97 56.06 36.46 47.94 36.00 C 52.01 35.41 55.59 32.14 55.92 27.94 C 56.63 22.83 52.12 17.84 46.96 18.02 C 41.80 17.88 37.33 22.90 38.08 28.01 C 38.43 32.19 42.03 35.42 46.07 36.00 C 41.71 36.33 37.76 38.58 34.99 41.91 C 32.94 39.29 30.42 37.05 27.39 35.62 C 32.38 31.56 33.59 23.65 29.39 18.61 C 25.16 12.80 15.71 12.56 11.08 18.02 Z" />
<path fill="#ffffff" opacity="1.00" d=" M 17.37 18.45 C 21.35 16.96 26.21 19.27 27.52 23.32 C 29.06 27.33 26.72 32.25 22.62 33.54 C 18.62 35.05 13.71 32.68 12.44 28.59 C 10.97 24.59 13.30 19.73 17.37 18.45 Z" />
</g>
<g id="#000000ff">
<path fill="#000000" opacity="1.00" d=" M 11.08 18.02 C 15.71 12.56 25.16 12.80 29.39 18.61 C 33.59 23.65 32.38 31.56 27.39 35.62 C 30.42 37.05 32.94 39.29 34.99 41.91 C 37.76 38.58 41.71 36.33 46.07 36.00 C 42.03 35.42 38.43 32.19 38.08 28.01 C 37.33 22.90 41.80 17.88 46.96 18.02 C 52.12 17.84 56.63 22.83 55.92 27.94 C 55.59 32.14 52.01 35.41 47.94 36.00 C 56.06 36.46 62.43 43.97 62.12 52.00 C 52.78 52.00 43.44 52.00 34.10 52.00 C 33.77 47.41 31.66 42.81 27.65 40.33 C 22.16 36.56 14.05 37.58 9.68 42.62 C 7.22 45.13 6.25 48.60 5.89 52.00 C 4.56 52.00 3.23 51.99 1.90 51.98 C 2.08 45.03 6.27 38.50 12.60 35.59 C 7.35 31.40 6.41 22.98 11.08 18.02 M 17.37 18.45 C 13.30 19.73 10.97 24.59 12.44 28.59 C 13.71 32.68 18.62 35.05 22.62 33.54 C 26.72 32.25 29.06 27.33 27.52 23.32 C 26.21 19.27 21.35 16.96 17.37 18.45 Z" />
</g>
</svg>
