<?xml version="1.0" encoding="UTF-8" ?>
<!DOCTYPE svg PUBLIC "-//W3C//DTD SVG 1.1//EN" "http://www.w3.org/Graphics/SVG/1.1/DTD/svg11.dtd">
<svg width="60pt" height="60pt" viewBox="0 0 60 60" version="1.1" xmlns="http://www.w3.org/2000/svg">
<g id="#ffffffff">
<path fill="#ffffff" opacity="1.00" d=" M 0.00 0.00 L 60.00 0.00 L 60.00 60.00 L 0.00 60.00 L 0.00 0.00 M 7.74 13.69 C 4.25 15.80 7.56 19.94 8.25 22.78 C 9.49 25.42 12.33 22.81 14.01 22.03 C 14.10 26.30 13.77 30.59 14.17 34.85 C 14.41 35.09 14.89 35.58 15.12 35.83 C 25.01 36.12 34.96 36.12 44.84 35.83 C 45.09 35.57 45.59 35.06 45.84 34.81 C 46.23 30.57 45.90 26.29 45.99 22.04 C 47.68 22.71 49.65 24.96 51.45 23.39 C 52.55 21.04 53.39 18.55 53.95 16.02 C 53.81 14.21 51.71 13.49 50.54 12.38 C 46.64 9.83 43.19 5.48 38.05 5.96 C 36.52 6.10 34.05 5.45 33.49 7.43 C 32.47 9.03 32.39 12.01 29.98 12.08 C 26.48 11.85 27.90 5.75 24.15 6.00 C 17.37 4.61 12.77 10.31 7.74 13.69 M 15.13 40.17 C 14.89 40.42 14.40 40.92 14.16 41.17 C 13.87 45.05 13.87 48.98 14.17 52.85 C 14.43 53.10 14.94 53.60 15.20 53.85 C 18.81 54.15 22.44 54.05 26.06 53.93 C 29.53 53.88 26.48 48.00 29.97 48.07 C 33.54 47.95 30.45 53.90 33.96 53.93 C 37.56 54.04 41.20 54.16 44.80 53.84 C 45.05 53.59 45.57 53.09 45.83 52.84 C 46.13 48.98 46.12 45.07 45.84 41.21 C 45.19 39.66 43.36 40.11 42.04 39.98 C 33.08 40.13 24.09 39.76 15.13 40.17 Z" />
<path fill="#ffffff" opacity="1.00" d=" M 29.14 18.10 C 31.54 17.02 33.23 20.95 30.73 21.83 C 28.42 22.91 26.88 19.15 29.14 18.10 Z" />
<path fill="#ffffff" opacity="1.00" d=" M 29.14 28.11 C 31.56 27.09 33.16 30.80 30.79 31.90 C 28.38 32.82 26.90 29.24 29.14 28.11 Z" />
</g>
<g id="#000000ff">
<path fill="#968176" opacity="1.00" d=" M 7.74 13.69 C 12.77 10.31 17.37 4.61 24.15 6.00 C 27.90 5.75 26.48 11.85 29.98 12.08 C 32.39 12.01 32.47 9.03 33.49 7.43 C 34.05 5.45 36.52 6.10 38.05 5.96 C 43.19 5.48 46.64 9.83 50.54 12.38 C 51.71 13.49 53.81 14.21 53.95 16.02 C 53.39 18.55 52.55 21.04 51.45 23.39 C 49.65 24.96 47.68 22.71 45.99 22.04 C 45.90 26.29 46.23 30.57 45.84 34.81 C 45.59 35.06 45.09 35.57 44.84 35.83 C 34.96 36.12 25.01 36.12 15.12 35.83 C 14.89 35.58 14.41 35.09 14.17 34.85 C 13.77 30.59 14.10 26.30 14.01 22.03 C 12.33 22.81 9.49 25.42 8.25 22.78 C 7.56 19.94 4.25 15.80 7.74 13.69 M 29.14 18.10 C 26.88 19.15 28.42 22.91 30.73 21.83 C 33.23 20.95 31.54 17.02 29.14 18.10 M 29.14 28.11 C 26.90 29.24 28.38 32.82 30.79 31.90 C 33.16 30.80 31.56 27.09 29.14 28.11 Z" />
<path fill="#968176" opacity="1.00" d=" M 15.13 40.17 C 24.09 39.76 33.08 40.13 42.04 39.98 C 43.36 40.11 45.19 39.66 45.84 41.21 C 46.12 45.07 46.13 48.98 45.83 52.84 C 45.57 53.09 45.05 53.59 44.80 53.84 C 41.20 54.16 37.56 54.04 33.96 53.93 C 30.45 53.90 33.54 47.95 29.97 48.07 C 26.48 48.00 29.53 53.88 26.06 53.93 C 22.44 54.05 18.81 54.15 15.20 53.85 C 14.94 53.60 14.43 53.10 14.17 52.85 C 13.87 48.98 13.87 45.05 14.16 41.17 C 14.40 40.92 14.89 40.42 15.13 40.17 Z" />
</g>
</svg>
