<?xml version="1.0" encoding="UTF-8" ?>
<!DOCTYPE svg PUBLIC "-//W3C//DTD SVG 1.1//EN" "http://www.w3.org/Graphics/SVG/1.1/DTD/svg11.dtd">
<svg width="60pt" height="60pt" viewBox="0 0 60 60" version="1.1" xmlns="http://www.w3.org/2000/svg">
<g id="#ffffffff">
<path fill="#ffffff" opacity="1.00" d=" M 0.00 0.00 L 60.00 0.00 L 60.00 60.00 L 0.00 60.00 L 0.00 0.00 M 20.70 15.49 C 17.73 16.58 14.17 17.53 12.71 20.66 C 10.52 25.09 8.01 29.40 6.27 34.02 C 5.71 38.62 6.05 43.28 6.10 47.90 C 8.03 47.99 9.95 47.99 11.88 47.92 C 12.20 44.09 11.73 40.22 12.17 36.40 C 13.31 34.06 14.74 31.88 15.99 29.60 C 16.07 37.07 15.89 44.55 16.07 52.02 C 15.93 54.17 18.52 54.05 19.98 54.01 C 27.61 53.87 35.26 54.24 42.87 53.83 C 43.11 53.58 43.60 53.10 43.84 52.85 C 44.24 45.12 43.87 37.35 44.01 29.61 C 45.31 32.00 46.91 34.25 47.94 36.78 C 48.14 40.49 47.86 44.21 48.12 47.92 C 50.05 48.00 51.98 47.99 53.91 47.89 C 53.64 41.99 55.30 35.49 52.09 30.14 C 50.30 26.78 48.80 23.28 46.88 20.00 C 45.28 17.29 42.02 16.55 39.30 15.49 C 41.94 9.29 36.65 1.80 29.99 2.02 C 23.34 1.82 18.05 9.30 20.70 15.49 Z" />
<path fill="#ffffff" opacity="1.00" d=" M 24.00 12.01 C 24.00 8.46 27.59 5.30 31.12 6.13 C 34.32 6.74 37.02 10.51 35.51 13.66 C 34.19 16.93 32.07 19.78 30.01 22.61 C 27.65 19.32 24.98 16.02 24.00 12.01 Z" />
<path fill="#ffffff" opacity="1.00" d=" M 25.08 40.18 C 28.32 39.86 31.61 39.88 34.86 40.16 C 36.35 40.87 36.35 43.15 34.84 43.84 C 31.61 44.12 28.33 44.14 25.10 43.83 C 23.67 43.09 23.66 40.92 25.08 40.18 Z" />
</g>
<g id="#000000ff">
<path fill="#000000" opacity="1.00" d=" M 20.70 15.49 C 18.05 9.30 23.34 1.82 29.99 2.02 C 36.65 1.80 41.94 9.29 39.30 15.49 C 42.02 16.55 45.28 17.29 46.88 20.00 C 48.80 23.28 50.30 26.78 52.09 30.14 C 55.30 35.49 53.64 41.99 53.91 47.89 C 51.98 47.99 50.05 48.00 48.12 47.92 C 47.86 44.21 48.14 40.49 47.94 36.78 C 46.91 34.25 45.31 32.00 44.01 29.61 C 43.87 37.35 44.24 45.12 43.84 52.85 C 43.60 53.10 43.11 53.58 42.87 53.83 C 35.26 54.24 27.61 53.87 19.98 54.01 C 18.52 54.05 15.93 54.17 16.07 52.02 C 15.89 44.55 16.07 37.07 15.99 29.60 C 14.74 31.88 13.31 34.06 12.17 36.40 C 11.73 40.22 12.20 44.09 11.88 47.92 C 9.95 47.99 8.03 47.99 6.10 47.90 C 6.05 43.28 5.71 38.62 6.27 34.02 C 8.01 29.40 10.52 25.09 12.71 20.66 C 14.17 17.53 17.73 16.58 20.70 15.49 M 24.00 12.01 C 24.98 16.02 27.65 19.32 30.01 22.61 C 32.07 19.78 34.19 16.93 35.51 13.66 C 37.02 10.51 34.32 6.74 31.12 6.13 C 27.59 5.30 24.00 8.46 24.00 12.01 M 25.08 40.18 C 23.66 40.92 23.67 43.09 25.10 43.83 C 28.33 44.14 31.61 44.12 34.84 43.84 C 36.35 43.15 36.35 40.87 34.86 40.16 C 31.61 39.88 28.32 39.86 25.08 40.18 Z" />
</g>
</svg>
