<?xml version="1.0" encoding="UTF-8" ?>
<!DOCTYPE svg PUBLIC "-//W3C//DTD SVG 1.1//EN" "http://www.w3.org/Graphics/SVG/1.1/DTD/svg11.dtd">
<svg width="64pt" height="64pt" viewBox="0 0 64 64" version="1.1" xmlns="http://www.w3.org/2000/svg">
<g id="#ffffffff">
<path fill="#ffffff" opacity="1.00" d=" M 0.00 0.00 L 64.00 0.00 L 64.00 26.00 C 54.30 25.99 44.60 26.02 34.91 25.99 C 37.75 23.14 40.60 20.31 43.43 17.45 C 42.51 16.46 41.55 15.50 40.56 14.57 C 38.37 16.75 36.19 18.94 34.00 21.13 C 34.00 16.09 34.01 11.04 34.00 6.00 C 32.66 6.00 31.33 6.00 30.00 6.00 C 29.99 11.03 30.01 16.06 29.99 21.08 C 27.81 18.92 25.64 16.76 23.48 14.57 C 22.49 15.51 21.51 16.47 20.57 17.47 C 23.44 20.30 26.28 23.15 29.12 26.00 C 19.42 26.00 9.71 26.00 0.00 26.00 L 0.00 0.00 Z" />
<path fill="#ffffff" opacity="1.00" d=" M 0.00 30.00 C 21.33 30.00 42.67 30.00 64.00 30.00 L 64.00 34.00 C 42.67 34.00 21.33 34.00 0.00 34.00 L 0.00 30.00 Z" />
<path fill="#ffffff" opacity="1.00" d=" M 0.00 38.00 C 9.71 38.01 19.41 37.99 29.12 38.01 C 26.28 40.88 23.38 43.69 20.58 46.60 C 21.54 47.55 22.54 48.47 23.52 49.42 C 25.64 47.22 27.83 45.08 29.99 42.91 C 30.02 47.94 29.99 52.97 30.00 58.00 C 31.33 58.00 32.67 58.00 34.00 58.00 C 34.01 52.96 33.98 47.92 34.01 42.88 C 36.19 45.06 38.36 47.24 40.54 49.42 C 41.51 48.48 42.48 47.54 43.43 46.58 C 40.64 43.68 37.74 40.88 34.91 38.01 C 44.61 37.98 54.30 38.01 64.00 38.00 L 64.00 64.00 L 0.00 64.00 L 0.00 38.00 Z" />
</g>
<g id="#000000ff">
<path fill="#000000" opacity="1.00" d=" M 30.00 6.00 C 31.33 6.00 32.66 6.00 34.00 6.00 C 34.01 11.04 34.00 16.09 34.00 21.13 C 36.19 18.94 38.37 16.75 40.56 14.57 C 41.55 15.50 42.51 16.46 43.43 17.45 C 40.60 20.31 37.75 23.14 34.91 25.99 C 44.60 26.02 54.30 25.99 64.00 26.00 L 64.00 30.00 C 42.67 30.00 21.33 30.00 0.00 30.00 L 0.00 26.00 C 9.71 26.00 19.42 26.00 29.12 26.00 C 26.28 23.15 23.44 20.30 20.57 17.47 C 21.51 16.47 22.49 15.51 23.48 14.57 C 25.64 16.76 27.81 18.92 29.99 21.08 C 30.01 16.06 29.99 11.03 30.00 6.00 Z" />
<path fill="#000000" opacity="1.00" d=" M 0.00 34.00 C 21.33 34.00 42.67 34.00 64.00 34.00 L 64.00 38.00 C 54.30 38.01 44.61 37.98 34.91 38.01 C 37.74 40.88 40.64 43.68 43.43 46.58 C 42.48 47.54 41.51 48.48 40.54 49.42 C 38.36 47.24 36.19 45.06 34.01 42.88 C 33.98 47.92 34.01 52.96 34.00 58.00 C 32.67 58.00 31.33 58.00 30.00 58.00 C 29.99 52.97 30.02 47.94 29.99 42.91 C 27.83 45.08 25.64 47.22 23.52 49.42 C 22.54 48.47 21.54 47.55 20.58 46.60 C 23.38 43.69 26.28 40.88 29.12 38.01 C 19.41 37.99 9.71 38.01 0.00 38.00 L 0.00 34.00 Z" />
</g>
</svg>
