<?xml version="1.0" encoding="UTF-8" ?>
<!DOCTYPE svg PUBLIC "-//W3C//DTD SVG 1.1//EN" "http://www.w3.org/Graphics/SVG/1.1/DTD/svg11.dtd">
<svg width="64pt" height="64pt" viewBox="0 0 64 64" version="1.1" xmlns="http://www.w3.org/2000/svg">
<g id="#ffffffff">
<path fill="#ffffff" opacity="1.00" d=" M 0.00 0.00 L 64.00 0.00 L 64.00 64.00 L 0.00 64.00 L 0.00 0.00 M 27.57 11.98 C 23.05 12.02 18.52 12.00 14.00 12.00 C 14.00 15.33 14.00 18.67 14.00 22.00 C 19.33 22.00 24.67 22.00 30.00 22.00 C 30.00 31.33 30.00 40.67 30.00 50.00 C 25.33 50.00 20.67 50.00 16.00 50.00 C 16.00 51.33 16.00 52.67 16.00 54.00 C 26.67 54.00 37.33 54.00 48.00 54.00 C 48.00 52.67 48.00 51.33 48.00 50.00 C 43.33 50.00 38.67 50.00 34.00 50.00 C 34.00 40.67 34.00 31.33 34.00 22.00 C 39.33 22.00 44.67 22.00 50.00 22.00 C 50.00 18.67 50.00 15.33 50.00 12.00 C 45.49 12.00 40.98 12.02 36.46 11.98 C 34.99 10.47 33.50 8.98 32.01 7.50 C 30.52 8.99 29.04 10.48 27.57 11.98 M 14.37 24.01 C 13.40 26.58 12.49 29.16 11.49 31.72 C 10.19 32.61 8.38 33.34 8.13 35.12 C 7.07 38.47 11.61 41.50 14.29 39.22 C 16.40 37.91 16.15 35.26 15.17 33.32 C 16.26 30.19 17.48 27.11 18.62 24.00 C 17.21 24.00 15.79 24.01 14.37 24.01 M 23.18 24.00 C 22.37 28.00 21.63 32.02 20.74 36.00 C 17.21 37.48 17.12 43.03 21.12 43.92 C 25.15 44.85 27.53 39.53 24.71 36.76 C 25.49 32.49 26.40 28.26 27.25 24.00 C 25.89 24.00 24.54 24.00 23.18 24.00 M 36.75 24.00 C 37.59 28.26 38.51 32.49 39.29 36.76 C 37.79 38.64 37.37 41.79 39.70 43.22 C 42.40 45.52 46.87 42.45 45.88 39.10 C 45.59 37.30 43.31 36.73 43.01 34.95 C 42.22 31.31 41.57 27.65 40.82 24.00 C 39.46 24.00 38.11 24.00 36.75 24.00 M 45.37 23.99 C 46.52 27.10 47.74 30.18 48.83 33.31 C 47.88 35.26 47.55 37.97 49.72 39.25 C 52.14 41.25 56.18 39.01 55.97 35.96 C 56.11 33.80 54.11 32.67 52.52 31.73 C 51.52 29.17 50.60 26.59 49.64 24.01 C 48.22 24.01 46.80 24.00 45.37 23.99 Z" />
<path fill="#ffffff" opacity="1.00" d=" M 29.18 16.00 C 30.12 15.07 31.05 14.12 32.00 13.20 C 32.96 14.13 33.90 15.07 34.86 16.00 C 38.57 16.00 42.29 16.00 46.00 16.00 C 46.00 16.50 46.00 17.50 46.00 18.00 C 36.67 18.00 27.33 18.00 18.00 18.00 C 18.00 17.50 18.00 16.50 18.00 16.00 C 21.73 16.00 25.45 15.99 29.18 16.00 Z" />
</g>
<g id="#000000ff">
<path fill="#000000" opacity="1.00" d=" M 27.57 11.98 C 29.04 10.48 30.52 8.99 32.01 7.50 C 33.50 8.98 34.99 10.47 36.46 11.98 C 40.98 12.02 45.49 12.00 50.00 12.00 C 50.00 15.33 50.00 18.67 50.00 22.00 C 44.67 22.00 39.33 22.00 34.00 22.00 C 34.00 31.33 34.00 40.67 34.00 50.00 C 38.67 50.00 43.33 50.00 48.00 50.00 C 48.00 51.33 48.00 52.67 48.00 54.00 C 37.33 54.00 26.67 54.00 16.00 54.00 C 16.00 52.67 16.00 51.33 16.00 50.00 C 20.67 50.00 25.33 50.00 30.00 50.00 C 30.00 40.67 30.00 31.33 30.00 22.00 C 24.67 22.00 19.33 22.00 14.00 22.00 C 14.00 18.67 14.00 15.33 14.00 12.00 C 18.52 12.00 23.05 12.02 27.57 11.98 M 29.18 16.00 C 25.45 15.99 21.73 16.00 18.00 16.00 C 18.00 16.50 18.00 17.50 18.00 18.00 C 27.33 18.00 36.67 18.00 46.00 18.00 C 46.00 17.50 46.00 16.50 46.00 16.00 C 42.29 16.00 38.57 16.00 34.86 16.00 C 33.90 15.07 32.96 14.13 32.00 13.20 C 31.05 14.12 30.12 15.07 29.18 16.00 Z" />
<path fill="#000000" opacity="1.00" d=" M 14.37 24.01 C 15.79 24.01 17.21 24.00 18.62 24.00 C 17.48 27.11 16.26 30.19 15.17 33.32 C 16.15 35.26 16.40 37.91 14.29 39.22 C 11.61 41.50 7.07 38.47 8.13 35.12 C 8.38 33.34 10.19 32.61 11.49 31.72 C 12.49 29.16 13.40 26.58 14.37 24.01 Z" />
<path fill="#000000" opacity="1.00" d=" M 23.18 24.00 C 24.54 24.00 25.89 24.00 27.25 24.00 C 26.40 28.26 25.49 32.49 24.71 36.76 C 27.53 39.53 25.15 44.85 21.12 43.92 C 17.12 43.03 17.21 37.48 20.74 36.00 C 21.63 32.02 22.37 28.00 23.18 24.00 Z" />
<path fill="#000000" opacity="1.00" d=" M 36.75 24.00 C 38.11 24.00 39.46 24.00 40.82 24.00 C 41.57 27.65 42.22 31.31 43.01 34.95 C 43.31 36.73 45.59 37.30 45.88 39.10 C 46.87 42.45 42.40 45.52 39.70 43.22 C 37.37 41.79 37.79 38.64 39.29 36.76 C 38.51 32.49 37.59 28.26 36.75 24.00 Z" />
<path fill="#000000" opacity="1.00" d=" M 45.37 23.99 C 46.80 24.00 48.22 24.01 49.64 24.01 C 50.60 26.59 51.52 29.17 52.52 31.73 C 54.11 32.67 56.11 33.80 55.97 35.96 C 56.18 39.01 52.14 41.25 49.72 39.25 C 47.55 37.97 47.88 35.26 48.83 33.31 C 47.74 30.18 46.52 27.10 45.37 23.99 Z" />
</g>
</svg>
