<?xml version="1.0" encoding="UTF-8" ?>
<!DOCTYPE svg PUBLIC "-//W3C//DTD SVG 1.1//EN" "http://www.w3.org/Graphics/SVG/1.1/DTD/svg11.dtd">
<svg width="60pt" height="60pt" viewBox="0 0 60 60" version="1.1" xmlns="http://www.w3.org/2000/svg">
<g id="#ffffffff">
<path fill="#ffffff" opacity="1.00" d=" M 0.00 0.00 L 60.00 0.00 L 60.00 60.00 L 0.00 60.00 L 0.00 0.00 M 46.96 7.97 C 46.30 12.44 45.52 17.85 40.90 19.98 C 38.23 18.45 35.08 17.48 32.01 18.32 C 24.69 20.01 17.40 21.82 10.10 23.56 C 7.97 23.94 5.83 25.61 6.03 27.97 C 6.02 32.28 5.87 36.60 6.12 40.90 C 7.07 43.92 10.22 45.46 12.24 47.72 C 14.86 50.62 18.75 52.91 22.79 51.81 C 30.63 49.47 38.41 46.92 46.19 44.39 C 48.16 43.84 50.14 42.26 49.98 40.01 C 49.98 35.52 50.21 31.00 49.72 26.51 C 53.52 22.33 53.96 16.33 53.96 10.95 C 53.84 8.46 53.52 5.13 50.81 4.12 C 48.48 3.38 47.04 6.02 46.96 7.97 Z" />
<path fill="#ffffff" opacity="1.00" d=" M 49.99 13.67 C 49.32 17.18 49.20 21.05 46.80 23.92 C 46.02 23.51 45.24 23.10 44.47 22.69 C 47.29 20.38 48.80 17.02 49.99 13.67 Z" />
<path fill="#ffffff" opacity="1.00" d=" M 10.03 27.71 C 17.65 25.88 25.25 23.95 32.90 22.26 C 38.13 21.37 41.72 25.99 45.86 28.30 C 38.27 30.95 30.63 33.48 22.96 35.88 C 17.18 36.81 14.16 30.57 10.03 27.71 Z" />
</g>
<g id="#000000ff">
<path fill="#000000" opacity="1.00" d=" M 46.96 7.97 C 47.04 6.02 48.48 3.38 50.81 4.12 C 53.52 5.13 53.84 8.46 53.96 10.95 C 53.96 16.33 53.52 22.33 49.72 26.51 C 50.21 31.00 49.98 35.52 49.98 40.01 C 50.14 42.26 48.16 43.84 46.19 44.39 C 38.41 46.92 30.63 49.47 22.79 51.81 C 18.75 52.91 14.86 50.62 12.24 47.72 C 10.22 45.46 7.07 43.92 6.12 40.90 C 5.87 36.60 6.02 32.28 6.03 27.97 C 5.83 25.61 7.97 23.94 10.10 23.56 C 17.40 21.82 24.69 20.01 32.01 18.32 C 35.08 17.48 38.23 18.45 40.90 19.98 C 45.52 17.85 46.30 12.44 46.96 7.97 M 49.99 13.67 C 48.80 17.02 47.29 20.38 44.47 22.69 C 45.24 23.10 46.02 23.51 46.80 23.92 C 49.20 21.05 49.32 17.18 49.99 13.67 M 10.03 27.71 C 14.16 30.57 17.18 36.81 22.96 35.88 C 30.63 33.48 38.27 30.95 45.86 28.30 C 41.72 25.99 38.13 21.37 32.90 22.26 C 25.25 23.95 17.65 25.88 10.03 27.71 Z" />
</g>
</svg>
