<?xml version="1.0" encoding="UTF-8" ?>
<!DOCTYPE svg PUBLIC "-//W3C//DTD SVG 1.1//EN" "http://www.w3.org/Graphics/SVG/1.1/DTD/svg11.dtd">
<svg width="60pt" height="60pt" viewBox="0 0 60 60" version="1.1" xmlns="http://www.w3.org/2000/svg">
<g id="#ffffffff">
<path fill="#ffffff" opacity="1.00" d=" M 0.00 0.00 L 60.00 0.00 L 60.00 60.00 L 0.00 60.00 L 0.00 0.00 M 20.08 8.93 C 19.87 18.46 20.06 28.00 20.01 37.53 C 16.47 35.54 13.16 32.73 9.06 32.01 C 6.48 31.66 4.66 33.69 3.80 35.87 C 7.41 38.70 11.54 41.00 14.32 44.73 C 17.39 48.51 20.54 53.25 25.83 53.79 C 31.24 54.21 36.69 53.98 42.12 53.95 C 46.29 54.02 50.02 50.31 49.95 46.14 C 50.09 36.42 49.94 26.70 50.02 16.98 C 49.92 15.46 50.21 13.48 48.68 12.54 C 47.17 11.43 44.77 12.18 44.22 13.97 C 43.63 17.31 44.39 20.73 43.75 24.07 C 42.25 25.70 39.98 23.46 38.18 24.34 C 36.33 25.01 34.43 25.66 32.60 24.56 C 30.58 23.22 27.99 25.71 26.23 24.06 C 25.54 18.72 26.45 13.30 25.79 7.95 C 24.88 4.97 19.85 5.73 20.08 8.93 Z" />
</g>
<g id="#000000ff">
<path fill="#000000" opacity="1.00" d=" M 20.08 8.93 C 19.85 5.73 24.88 4.97 25.79 7.95 C 26.45 13.30 25.54 18.72 26.23 24.06 C 27.99 25.71 30.58 23.22 32.60 24.56 C 34.43 25.66 36.33 25.01 38.18 24.34 C 39.98 23.46 42.25 25.70 43.75 24.07 C 44.39 20.73 43.63 17.31 44.22 13.97 C 44.77 12.18 47.17 11.43 48.68 12.54 C 50.21 13.48 49.92 15.46 50.02 16.98 C 49.94 26.70 50.09 36.42 49.95 46.14 C 50.02 50.31 46.29 54.02 42.12 53.95 C 36.69 53.98 31.24 54.21 25.83 53.79 C 20.54 53.25 17.39 48.51 14.32 44.73 C 11.54 41.00 7.41 38.70 3.80 35.87 C 4.66 33.69 6.48 31.66 9.06 32.01 C 13.16 32.73 16.47 35.54 20.01 37.53 C 20.06 28.00 19.87 18.46 20.08 8.93 Z" />
</g>
</svg>
