<?xml version="1.0" encoding="UTF-8" ?>
<!DOCTYPE svg PUBLIC "-//W3C//DTD SVG 1.1//EN" "http://www.w3.org/Graphics/SVG/1.1/DTD/svg11.dtd">
<svg width="60pt" height="60pt" viewBox="0 0 60 60" version="1.1" xmlns="http://www.w3.org/2000/svg">
<g id="#ffffffff">
<path fill="#ffffff" opacity="1.00" d=" M 0.00 0.00 L 60.00 0.00 L 60.00 60.00 L 0.00 60.00 L 0.00 0.00 M 6.28 10.39 C 4.53 11.16 3.85 13.13 4.00 14.92 C 4.03 25.31 3.93 35.70 4.05 46.09 C 4.00 48.58 6.56 50.33 8.90 50.00 C 23.30 49.97 37.70 50.07 52.10 49.95 C 54.62 49.99 56.35 47.39 56.00 45.03 C 55.97 34.67 56.07 24.31 55.95 13.96 C 56.03 11.45 53.46 9.65 51.09 10.00 C 37.75 9.98 24.40 10.03 11.06 9.98 C 9.47 10.06 7.80 9.81 6.28 10.39 Z" />
<path fill="#ffffff" opacity="1.00" d=" M 20.00 14.00 C 26.67 14.00 33.33 14.00 40.00 14.00 C 40.00 24.67 40.00 35.33 40.00 46.00 C 33.33 46.00 26.67 46.00 20.00 46.00 C 20.00 35.33 20.00 24.67 20.00 14.00 M 28.20 25.14 C 23.66 27.24 36.72 35.58 25.27 26.85 C 27.75 28.35 24.54 34.10 29.30 32.25 C 28.65 31.75 27.34 30.75 26.68 30.25 C 27.39 30.31 28.80 30.43 29.50 30.50 C 29.52 31.04 29.57 32.12 29.59 32.66 C 28.71 32.72 26.94 32.86 26.05 32.93 C 27.80 33.50 29.07 34.86 30.65 35.71 C 31.72 34.01 32.94 31.53 35.77 33.42 C 34.72 33.04 32.61 32.30 31.56 31.93 C 32.36 31.13 33.17 30.33 33.99 29.54 L 31.96 30.02 C 31.85 29.53 31.63 28.54 31.52 28.05 C 31.82 28.38 32.44 29.04 32.75 29.37 C 33.47 28.94 34.20 28.51 34.91 28.07 C 33.94 25.37 30.87 22.56 28.20 25.14 M 34.97 31.26 C 33.38 34.22 38.32 31.37 34.97 31.26 Z" />
</g>
<g id="#000000ff">
<path fill="#000000" opacity="1.00" d=" M 6.28 10.39 C 7.80 9.81 9.47 10.06 11.06 9.98 C 24.40 10.03 37.75 9.98 51.09 10.00 C 53.46 9.65 56.03 11.45 55.95 13.96 C 56.07 24.31 55.97 34.67 56.00 45.03 C 56.35 47.39 54.62 49.99 52.10 49.95 C 37.70 50.07 23.30 49.97 8.90 50.00 C 6.56 50.33 4.00 48.58 4.05 46.09 C 3.93 35.70 4.03 25.31 4.00 14.92 C 3.85 13.13 4.53 11.16 6.28 10.39 M 20.00 14.00 C 20.00 24.67 20.00 35.33 20.00 46.00 C 26.67 46.00 33.33 46.00 40.00 46.00 C 40.00 35.33 40.00 24.67 40.00 14.00 C 33.33 14.00 26.67 14.00 20.00 14.00 Z" />
<path fill="#000000" opacity="1.00" d=" M 28.20 25.14 C 30.87 22.56 33.94 25.37 34.91 28.07 C 34.20 28.51 33.47 28.94 32.75 29.37 C 32.44 29.04 31.82 28.38 31.52 28.05 C 31.63 28.54 31.85 29.53 31.96 30.02 L 33.99 29.54 C 33.17 30.33 32.36 31.13 31.56 31.93 C 32.61 32.30 34.72 33.04 35.77 33.42 C 32.94 31.53 31.72 34.01 30.65 35.71 C 29.07 34.86 27.80 33.50 26.05 32.93 C 26.94 32.86 28.71 32.72 29.59 32.66 C 29.57 32.12 29.52 31.04 29.50 30.50 C 28.80 30.43 27.39 30.31 26.68 30.25 C 27.34 30.75 28.65 31.75 29.30 32.25 C 24.54 34.10 27.75 28.35 25.27 26.85 C 36.72 35.58 23.66 27.24 28.20 25.14 Z" />
<path fill="#000000" opacity="1.00" d=" M 34.97 31.26 C 38.32 31.37 33.38 34.22 34.97 31.26 Z" />
</g>
</svg>
