<?xml version="1.0" encoding="UTF-8" ?>
<!DOCTYPE svg PUBLIC "-//W3C//DTD SVG 1.1//EN" "http://www.w3.org/Graphics/SVG/1.1/DTD/svg11.dtd">
<svg width="137pt" height="146pt" viewBox="0 0 137 146" version="1.1" xmlns="http://www.w3.org/2000/svg">
<g id="#fffffff">
<path fill="#ffffff" opacity="1.00" d=" M 0.00 0.00 L 137.00 0.00 L 137.00 146.00 L 0.00 146.00 L 0.00 0.00 M 57.03 22.13 C 52.55 24.50 48.85 28.16 46.61 32.73 C 44.80 38.57 42.76 44.34 41.17 50.24 C 57.37 50.27 73.57 50.26 89.77 50.24 C 88.22 44.78 86.50 39.36 84.66 33.99 C 83.03 29.17 79.29 25.45 75.11 22.73 C 69.46 19.96 62.84 19.68 57.03 22.13 M 32.59 52.09 C 35.98 55.72 39.44 59.28 43.06 62.67 C 46.61 59.18 50.13 55.66 53.64 52.13 C 46.62 52.08 39.61 52.13 32.59 52.09 M 54.82 52.17 C 58.52 55.32 61.65 59.08 65.25 62.33 C 69.42 59.57 72.27 55.27 76.18 52.17 C 69.06 52.07 61.94 52.07 54.82 52.17 M 77.36 52.16 C 80.87 55.66 84.34 59.20 87.88 62.67 C 91.51 59.25 94.92 55.61 98.55 52.20 C 91.49 51.80 84.42 51.94 77.36 52.16 M 21.01 51.92 C 21.33 54.75 22.08 57.49 22.94 60.20 C 25.73 57.52 28.44 54.75 31.10 51.93 C 27.74 51.90 24.38 51.90 21.01 51.92 M 99.83 51.94 C 102.51 54.76 105.23 57.53 108.06 60.20 C 108.91 57.49 109.66 54.74 109.98 51.91 C 106.60 51.90 103.21 51.90 99.83 51.94 M 23.10 63.21 C 29.08 65.55 35.79 63.88 42.08 64.26 C 38.63 60.97 35.26 57.59 31.94 54.16 C 28.88 57.06 25.88 60.03 23.10 63.21 M 76.10 54.74 C 73.02 57.98 69.77 61.06 66.66 64.27 C 73.10 64.43 79.55 64.33 86.00 64.34 C 85.90 63.99 85.72 63.31 85.62 62.96 C 82.65 60.20 79.80 57.33 77.05 54.35 C 76.81 54.45 76.34 54.64 76.10 54.74 M 88.94 64.25 C 94.80 64.44 100.68 64.33 106.54 64.34 C 106.65 63.77 106.87 62.62 106.98 62.05 C 104.33 59.41 101.75 56.70 99.01 54.15 C 95.69 57.56 92.35 60.93 88.94 64.25 M 45.37 62.95 C 45.28 63.29 45.09 63.99 45.00 64.34 C 51.45 64.33 57.89 64.43 64.33 64.27 C 60.96 60.86 57.59 57.46 54.13 54.15 C 51.30 57.17 48.39 60.12 45.37 62.95 M 40.66 66.40 C 40.66 70.32 40.65 74.23 40.71 78.15 C 41.87 83.00 43.86 87.61 46.99 91.51 C 47.71 91.61 48.43 91.71 49.15 91.81 C 51.03 88.68 53.46 85.88 56.94 84.52 C 60.15 84.85 63.23 85.96 65.42 88.41 C 67.76 86.09 70.79 84.81 74.05 84.52 C 75.78 85.57 77.84 86.29 79.05 88.01 C 80.41 89.54 81.30 91.92 83.71 91.88 C 86.96 87.87 89.09 83.14 90.28 78.12 C 90.35 74.22 90.33 70.31 90.33 66.41 C 73.77 66.38 57.22 66.39 40.66 66.40 M 34.45 78.00 C 34.23 80.33 36.16 81.91 37.59 83.44 C 38.16 83.45 39.30 83.48 39.88 83.49 C 39.40 79.68 38.71 75.91 38.26 72.10 C 36.56 73.71 34.27 75.37 34.45 78.00 M 92.76 72.14 C 92.45 74.35 92.13 76.57 91.69 78.77 C 91.52 80.51 91.38 82.25 91.29 84.00 C 93.57 83.01 96.30 81.63 96.50 78.81 C 97.06 75.93 94.74 73.79 92.76 72.14 M 49.63 93.63 C 46.77 96.29 42.66 96.33 38.99 96.41 C 41.51 98.82 43.95 101.59 47.42 102.61 C 53.33 104.80 60.23 102.75 64.36 98.09 C 67.22 98.01 68.92 100.61 71.31 101.74 C 75.27 103.99 80.04 103.73 84.28 102.50 C 87.22 100.98 89.63 98.70 91.93 96.37 C 88.06 96.41 83.69 96.20 80.82 93.21 C 78.20 90.63 76.31 86.05 71.84 86.79 C 68.72 86.88 67.64 90.39 65.15 91.47 C 63.23 89.34 61.30 86.38 58.00 86.75 C 53.82 86.82 52.46 91.38 49.63 93.63 M 91.67 99.48 C 87.69 103.97 81.58 105.85 75.71 105.32 C 72.90 108.01 70.52 111.12 67.66 113.75 C 66.28 115.06 63.85 114.73 62.69 113.28 C 60.12 110.72 57.83 107.87 55.24 105.32 C 48.72 106.12 42.68 103.10 38.03 98.78 C 37.59 100.05 36.23 101.14 36.30 102.56 C 41.44 108.73 47.40 114.19 52.63 120.31 C 54.09 121.81 55.34 123.93 57.65 124.12 C 62.49 124.29 67.34 124.17 72.18 124.19 C 73.75 124.31 75.33 123.68 76.32 122.45 C 82.38 115.65 88.78 109.16 94.97 102.48 C 94.40 101.38 93.78 100.31 93.16 99.25 C 92.79 99.31 92.04 99.42 91.67 99.48 M 58.08 104.60 C 58.17 104.94 58.35 105.64 58.44 105.99 C 61.01 108.08 62.70 112.19 66.13 112.60 C 68.52 110.63 70.42 108.17 72.57 105.96 C 72.65 105.61 72.80 104.91 72.88 104.56 C 70.38 103.51 68.13 102.00 65.91 100.48 C 63.12 101.13 60.93 103.69 58.08 104.60 M 77.58 124.15 C 83.11 124.19 88.64 124.23 94.17 124.18 C 96.11 124.27 97.80 123.16 99.46 122.32 C 100.22 115.99 99.40 109.51 96.26 103.89 C 90.00 110.61 83.55 117.17 77.58 124.15 M 31.73 110.89 C 31.44 114.59 30.88 118.38 31.63 122.07 C 32.91 123.60 34.94 124.18 36.87 124.18 C 42.38 124.23 47.90 124.19 53.41 124.15 C 47.45 117.17 40.98 110.63 34.74 103.89 C 33.66 106.19 32.71 108.55 31.73 110.89 Z" />
</g>
<g id="#000000ff">
<path fill="#968176" opacity="1.00" d=" M 57.03 22.13 C 62.84 19.68 69.46 19.96 75.11 22.73 C 79.29 25.45 83.03 29.17 84.66 33.99 C 86.50 39.36 88.22 44.78 89.77 50.24 C 73.57 50.26 57.37 50.27 41.17 50.24 C 42.76 44.34 44.80 38.57 46.61 32.73 C 48.85 28.16 52.55 24.50 57.03 22.13 Z" />
<path fill="#968176" opacity="1.00" d=" M 32.59 52.09 C 39.61 52.13 46.62 52.08 53.64 52.13 C 50.13 55.66 46.61 59.18 43.06 62.67 C 39.44 59.28 35.98 55.72 32.59 52.09 Z" />
<path fill="#968176" opacity="1.00" d=" M 54.82 52.17 C 61.94 52.07 69.06 52.07 76.18 52.17 C 72.27 55.27 69.42 59.57 65.25 62.33 C 61.65 59.08 58.52 55.32 54.82 52.17 Z" />
<path fill="#968176" opacity="1.00" d=" M 77.36 52.16 C 84.42 51.94 91.49 51.80 98.55 52.20 C 94.92 55.61 91.51 59.25 87.88 62.67 C 84.34 59.20 80.87 55.66 77.36 52.16 Z" />
<path fill="#968176" opacity="1.00" d=" M 21.01 51.92 C 24.38 51.90 27.74 51.90 31.10 51.93 C 28.44 54.75 25.73 57.52 22.94 60.20 C 22.08 57.49 21.33 54.75 21.01 51.92 Z" />
<path fill="#968176" opacity="1.00" d=" M 99.83 51.94 C 103.21 51.90 106.60 51.90 109.98 51.91 C 109.66 54.74 108.91 57.49 108.06 60.20 C 105.23 57.53 102.51 54.76 99.83 51.94 Z" />
<path fill="#968176" opacity="1.00" d=" M 23.10 63.21 C 25.88 60.03 28.88 57.06 31.94 54.16 C 35.26 57.59 38.63 60.97 42.08 64.26 C 35.79 63.88 29.08 65.55 23.10 63.21 Z" />
<path fill="#968176" opacity="1.00" d=" M 76.10 54.74 C 76.34 54.64 76.81 54.45 77.05 54.35 C 79.80 57.33 82.65 60.20 85.62 62.96 C 85.72 63.31 85.90 63.99 86.00 64.34 C 79.55 64.33 73.10 64.43 66.66 64.27 C 69.77 61.06 73.02 57.98 76.10 54.74 Z" />
<path fill="#968176" opacity="1.00" d=" M 88.94 64.25 C 92.35 60.93 95.69 57.56 99.01 54.15 C 101.75 56.70 104.33 59.41 106.98 62.05 C 106.87 62.62 106.65 63.77 106.54 64.34 C 100.68 64.33 94.80 64.44 88.94 64.25 Z" />
<path fill="#968176" opacity="1.00" d=" M 45.37 62.95 C 48.39 60.12 51.30 57.17 54.13 54.15 C 57.59 57.46 60.96 60.86 64.33 64.27 C 57.89 64.43 51.45 64.33 45.00 64.34 C 45.09 63.99 45.28 63.29 45.37 62.95 Z" />
<path fill="#968176" opacity="1.00" d=" M 40.66 66.40 C 57.22 66.39 73.77 66.38 90.33 66.41 C 90.33 70.31 90.35 74.22 90.28 78.12 C 89.09 83.14 86.96 87.87 83.71 91.88 C 81.30 91.92 80.41 89.54 79.05 88.01 C 77.84 86.29 75.78 85.57 74.05 84.52 C 70.79 84.81 67.76 86.09 65.42 88.41 C 63.23 85.96 60.15 84.85 56.94 84.52 C 53.46 85.88 51.03 88.68 49.15 91.81 C 48.43 91.71 47.71 91.61 46.99 91.51 C 43.86 87.61 41.87 83.00 40.71 78.15 C 40.65 74.23 40.66 70.32 40.66 66.40 Z" />
<path fill="#968176" opacity="1.00" d=" M 34.45 78.00 C 34.27 75.37 36.56 73.71 38.26 72.10 C 38.71 75.91 39.40 79.68 39.88 83.49 C 39.30 83.48 38.16 83.45 37.59 83.44 C 36.16 81.91 34.23 80.33 34.45 78.00 Z" />
<path fill="#968176" opacity="1.00" d=" M 92.76 72.14 C 94.74 73.79 97.06 75.93 96.50 78.81 C 96.30 81.63 93.57 83.01 91.29 84.00 C 91.38 82.25 91.52 80.51 91.69 78.77 C 92.13 76.57 92.45 74.35 92.76 72.14 Z" />
<path fill="#968176" opacity="1.00" d=" M 49.63 93.63 C 52.46 91.38 53.82 86.82 58.00 86.75 C 61.30 86.38 63.23 89.34 65.15 91.47 C 67.64 90.39 68.72 86.88 71.84 86.79 C 76.31 86.05 78.20 90.63 80.82 93.21 C 83.69 96.20 88.06 96.41 91.93 96.37 C 89.63 98.70 87.22 100.98 84.28 102.50 C 80.04 103.73 75.27 103.99 71.31 101.74 C 68.92 100.61 67.22 98.01 64.36 98.09 C 60.23 102.75 53.33 104.80 47.42 102.61 C 43.95 101.59 41.51 98.82 38.99 96.41 C 42.66 96.33 46.77 96.29 49.63 93.63 Z" />
<path fill="#968176" opacity="1.00" d=" M 91.67 99.48 C 92.04 99.42 92.79 99.31 93.16 99.25 C 93.78 100.31 94.40 101.38 94.97 102.48 C 88.78 109.16 82.38 115.65 76.32 122.45 C 75.33 123.68 73.75 124.31 72.18 124.19 C 67.34 124.17 62.49 124.29 57.65 124.12 C 55.34 123.93 54.09 121.81 52.63 120.31 C 47.40 114.19 41.44 108.73 36.30 102.56 C 36.23 101.14 37.59 100.05 38.03 98.78 C 42.68 103.10 48.72 106.12 55.24 105.32 C 57.83 107.87 60.12 110.72 62.69 113.28 C 63.85 114.73 66.28 115.06 67.66 113.75 C 70.52 111.12 72.90 108.01 75.71 105.32 C 81.58 105.85 87.69 103.97 91.67 99.48 Z" />
<path fill="#968176" opacity="1.00" d=" M 58.08 104.60 C 60.93 103.69 63.12 101.13 65.91 100.48 C 68.13 102.00 70.38 103.51 72.88 104.56 C 72.80 104.91 72.65 105.61 72.57 105.96 C 70.42 108.17 68.52 110.63 66.13 112.60 C 62.70 112.19 61.01 108.08 58.44 105.99 C 58.35 105.64 58.17 104.94 58.08 104.60 Z" />
<path fill="#968176" opacity="1.00" d=" M 77.58 124.15 C 83.55 117.17 90.00 110.61 96.26 103.89 C 99.40 109.51 100.22 115.99 99.46 122.32 C 97.80 123.16 96.11 124.27 94.17 124.18 C 88.64 124.23 83.11 124.19 77.58 124.15 Z" />
<path fill="#968176" opacity="1.00" d=" M 31.73 110.89 C 32.71 108.55 33.66 106.19 34.74 103.89 C 40.98 110.63 47.45 117.17 53.41 124.15 C 47.90 124.19 42.38 124.23 36.87 124.18 C 34.94 124.18 32.91 123.60 31.63 122.07 C 30.88 118.38 31.44 114.59 31.73 110.89 Z" />
</g>
</svg>
