<?xml version="1.0" encoding="UTF-8" ?>
<!DOCTYPE svg PUBLIC "-//W3C//DTD SVG 1.1//EN" "http://www.w3.org/Graphics/SVG/1.1/DTD/svg11.dtd">
<svg width="64pt" height="64pt" viewBox="0 0 64 64" version="1.1" xmlns="http://www.w3.org/2000/svg">
<g id="#ffffffff">
<path fill="#ffffff" opacity="1.00" d=" M 0.00 0.00 L 64.00 0.00 L 64.00 64.00 L 0.00 64.00 L 0.00 0.00 M 19.63 9.67 C 15.27 13.67 12.87 19.37 11.33 24.98 C 8.63 34.52 10.97 44.43 12.27 53.99 C 16.06 54.14 19.90 53.67 23.65 54.22 C 26.41 55.60 29.07 57.18 32.00 58.18 C 34.95 57.20 37.63 55.61 40.40 54.22 C 44.14 53.68 47.96 54.13 51.73 53.99 C 53.18 43.75 55.59 33.02 52.08 22.92 C 49.97 16.89 47.03 9.91 40.55 7.55 C 33.79 5.13 25.59 5.40 19.63 9.67 Z" />
<path fill="#ffffff" opacity="1.00" d=" M 20.75 14.64 C 21.28 12.86 23.15 12.10 24.87 12.09 C 29.25 11.89 33.64 11.99 38.03 12.02 C 39.76 12.10 42.05 12.18 42.91 13.99 C 45.57 19.51 45.63 25.81 46.02 31.81 C 47.39 32.09 50.18 31.88 49.93 34.00 C 50.17 36.11 47.44 35.91 46.05 36.11 C 45.42 44.09 40.25 52.23 32.00 53.84 C 23.78 52.21 18.54 44.11 17.95 36.11 C 16.54 35.93 13.83 36.11 14.06 33.99 C 13.85 31.87 16.60 32.08 17.98 31.81 C 18.31 26.03 18.47 20.05 20.75 14.64 M 23.34 30.51 C 21.34 31.72 21.73 35.23 24.06 35.79 C 26.19 36.75 28.72 34.24 27.81 32.10 C 27.36 30.23 24.88 29.42 23.34 30.51 M 37.40 30.47 C 35.30 31.67 35.73 35.27 38.12 35.82 C 40.25 36.68 42.67 34.26 41.82 32.13 C 41.39 30.27 38.96 29.43 37.40 30.47 M 24.65 44.24 C 25.46 45.30 26.28 46.35 27.10 47.41 C 30.19 45.72 33.82 45.68 36.90 47.42 C 37.71 46.36 38.53 45.30 39.35 44.24 C 34.84 41.41 29.15 41.40 24.65 44.24 Z" />
</g>
<g id="#000000ff">
<path fill="#000000" opacity="1.00" d=" M 19.63 9.67 C 25.59 5.40 33.79 5.13 40.55 7.55 C 47.03 9.91 49.97 16.89 52.08 22.92 C 55.59 33.02 53.18 43.75 51.73 53.99 C 47.96 54.13 44.14 53.68 40.40 54.22 C 37.63 55.61 34.95 57.20 32.00 58.18 C 29.07 57.18 26.41 55.60 23.65 54.22 C 19.90 53.67 16.06 54.14 12.27 53.99 C 10.97 44.43 8.63 34.52 11.33 24.98 C 12.87 19.37 15.27 13.67 19.63 9.67 M 20.75 14.64 C 18.47 20.05 18.31 26.03 17.98 31.81 C 16.60 32.08 13.85 31.87 14.06 33.99 C 13.83 36.11 16.54 35.93 17.95 36.11 C 18.54 44.11 23.78 52.21 32.00 53.84 C 40.25 52.23 45.42 44.09 46.05 36.11 C 47.44 35.91 50.17 36.11 49.93 34.00 C 50.18 31.88 47.39 32.09 46.02 31.81 C 45.63 25.81 45.57 19.51 42.91 13.99 C 42.05 12.18 39.76 12.10 38.03 12.02 C 33.64 11.99 29.25 11.89 24.87 12.09 C 23.15 12.10 21.28 12.86 20.75 14.64 Z" />
<path fill="#000000" opacity="1.00" d=" M 23.34 30.51 C 24.88 29.42 27.36 30.23 27.81 32.10 C 28.72 34.24 26.19 36.75 24.06 35.79 C 21.73 35.23 21.34 31.72 23.34 30.51 Z" />
<path fill="#000000" opacity="1.00" d=" M 37.40 30.47 C 38.96 29.43 41.39 30.27 41.82 32.13 C 42.67 34.26 40.25 36.68 38.12 35.82 C 35.73 35.27 35.30 31.67 37.40 30.47 Z" />
<path fill="#000000" opacity="1.00" d=" M 24.65 44.24 C 29.15 41.40 34.84 41.41 39.35 44.24 C 38.53 45.30 37.71 46.36 36.90 47.42 C 33.82 45.68 30.19 45.72 27.10 47.41 C 26.28 46.35 25.46 45.30 24.65 44.24 Z" />
</g>
</svg>
