<?xml version="1.0" encoding="UTF-8" ?>
<!DOCTYPE svg PUBLIC "-//W3C//DTD SVG 1.1//EN" "http://www.w3.org/Graphics/SVG/1.1/DTD/svg11.dtd">
<svg width="64pt" height="64pt" viewBox="0 0 64 64" version="1.1" xmlns="http://www.w3.org/2000/svg">
<g id="#ffffffff">
<path fill="#ffffff" opacity="1.00" d=" M 0.00 0.00 L 64.00 0.00 L 64.00 64.00 L 0.00 64.00 L 0.00 0.00 M 18.51 12.65 C 12.37 17.35 9.03 25.44 10.25 33.10 C 11.04 39.34 14.88 44.85 19.97 48.41 C 19.99 49.61 20.00 50.80 20.01 52.00 C 21.34 52.00 22.67 52.00 24.00 52.00 C 24.00 53.33 24.00 54.67 24.00 56.00 C 29.33 56.00 34.67 56.00 40.00 56.00 C 40.00 54.67 40.00 53.33 40.00 52.00 C 41.33 52.00 42.66 52.00 44.00 52.00 C 44.00 50.81 44.01 49.63 44.02 48.45 C 49.73 44.51 53.73 38.01 53.95 30.99 C 54.50 22.19 49.06 13.46 41.00 9.95 C 33.77 6.59 24.74 7.68 18.51 12.65 Z" />
<path fill="#ffffff" opacity="1.00" d=" M 21.99 15.03 C 28.84 10.29 38.93 11.25 44.72 17.26 C 52.03 24.19 51.51 36.92 43.99 43.51 C 43.35 41.16 42.73 38.81 42.19 36.44 C 45.39 31.14 44.10 23.64 38.83 20.18 C 33.47 16.22 25.09 17.99 21.78 23.78 C 19.31 27.59 19.65 32.56 21.81 36.43 C 21.26 38.80 20.65 41.16 20.01 43.51 C 17.78 41.14 15.69 38.50 14.81 35.30 C 12.40 27.92 15.47 19.24 21.99 15.03 Z" />
<path fill="#ffffff" opacity="1.00" d=" M 27.55 30.01 C 30.51 30.01 33.47 29.99 36.44 30.00 C 37.44 34.00 38.44 38.00 39.44 42.00 C 34.48 42.00 29.52 42.00 24.56 42.00 C 25.56 38.00 26.57 34.01 27.55 30.01 Z" />
<path fill="#ffffff" opacity="1.00" d=" M 24.00 46.00 C 29.33 46.00 34.67 46.00 40.00 46.00 C 40.00 46.50 40.00 47.50 40.00 48.00 C 38.67 48.00 37.33 48.00 36.00 48.00 C 36.00 49.33 36.00 50.67 36.00 52.00 C 33.33 52.00 30.67 52.00 28.00 52.00 C 28.00 50.67 28.00 49.33 28.00 48.00 C 26.67 48.00 25.33 48.00 24.00 48.00 C 24.00 47.50 24.00 46.50 24.00 46.00 Z" />
</g>
<g id="#000000ff">
<path fill="#000000" opacity="1.00" d=" M 18.51 12.65 C 24.74 7.68 33.77 6.59 41.00 9.95 C 49.06 13.46 54.50 22.19 53.95 30.99 C 53.73 38.01 49.73 44.51 44.02 48.45 C 44.01 49.63 44.00 50.81 44.00 52.00 C 42.66 52.00 41.33 52.00 40.00 52.00 C 40.00 53.33 40.00 54.67 40.00 56.00 C 34.67 56.00 29.33 56.00 24.00 56.00 C 24.00 54.67 24.00 53.33 24.00 52.00 C 22.67 52.00 21.34 52.00 20.01 52.00 C 20.00 50.80 19.99 49.61 19.97 48.41 C 14.88 44.85 11.04 39.34 10.25 33.10 C 9.03 25.44 12.37 17.35 18.51 12.65 M 21.99 15.03 C 15.47 19.24 12.40 27.92 14.81 35.30 C 15.69 38.50 17.78 41.14 20.01 43.51 C 20.65 41.16 21.26 38.80 21.81 36.43 C 19.65 32.56 19.31 27.59 21.78 23.78 C 25.09 17.99 33.47 16.22 38.83 20.18 C 44.10 23.64 45.39 31.14 42.19 36.44 C 42.73 38.81 43.35 41.16 43.99 43.51 C 51.51 36.92 52.03 24.19 44.72 17.26 C 38.93 11.25 28.84 10.29 21.99 15.03 M 27.55 30.01 C 26.57 34.01 25.56 38.00 24.56 42.00 C 29.52 42.00 34.48 42.00 39.44 42.00 C 38.44 38.00 37.44 34.00 36.44 30.00 C 33.47 29.99 30.51 30.01 27.55 30.01 M 24.00 46.00 C 24.00 46.50 24.00 47.50 24.00 48.00 C 25.33 48.00 26.67 48.00 28.00 48.00 C 28.00 49.33 28.00 50.67 28.00 52.00 C 30.67 52.00 33.33 52.00 36.00 52.00 C 36.00 50.67 36.00 49.33 36.00 48.00 C 37.33 48.00 38.67 48.00 40.00 48.00 C 40.00 47.50 40.00 46.50 40.00 46.00 C 34.67 46.00 29.33 46.00 24.00 46.00 Z" />
</g>
</svg>
