<?xml version="1.0" encoding="UTF-8" ?>
<!DOCTYPE svg PUBLIC "-//W3C//DTD SVG 1.1//EN" "http://www.w3.org/Graphics/SVG/1.1/DTD/svg11.dtd">
<svg width="64pt" height="64pt" viewBox="0 0 64 64" version="1.1" xmlns="http://www.w3.org/2000/svg">
<g id="#ffffffff">
<path fill="#ffffff" opacity="1.00" d=" M 0.00 0.00 L 64.00 0.00 L 64.00 64.00 L 0.00 64.00 L 0.00 0.00 M 18.82 9.81 C 11.48 14.19 6.66 22.43 6.24 30.94 C 5.85 39.04 9.72 47.05 15.92 52.18 C 21.18 56.60 28.33 58.38 35.10 57.80 C 41.84 57.19 48.01 53.49 52.34 48.38 C 53.05 47.26 54.75 46.26 54.17 44.73 C 51.39 44.65 48.99 46.93 46.10 46.82 C 37.21 48.12 26.65 42.61 25.74 32.99 C 24.62 27.24 32.54 22.85 36.61 27.25 C 40.12 30.08 38.56 34.87 36.23 37.89 C 42.21 42.55 52.80 41.45 56.50 34.38 C 58.42 30.72 57.96 26.29 56.49 22.56 C 53.82 16.03 48.61 10.39 41.95 7.85 C 34.48 4.91 25.68 5.61 18.82 9.81 Z" />
<path fill="#ffffff" opacity="1.00" d=" M 15.96 17.29 C 20.96 11.80 28.73 9.04 36.06 10.36 C 44.32 11.58 51.33 18.18 53.45 26.19 C 54.19 29.05 53.79 32.46 51.43 34.49 C 48.89 36.87 45.17 36.74 41.95 36.48 C 42.88 33.27 43.21 29.62 41.28 26.70 C 35.76 18.99 25.33 13.84 15.96 17.29 Z" />
<path fill="#ffffff" opacity="1.00" d=" M 11.16 26.21 C 14.73 20.13 23.18 18.70 29.21 21.80 C 19.74 26.64 14.37 39.62 18.91 49.56 C 12.28 44.06 8.32 34.66 11.16 26.21 Z" />
<path fill="#ffffff" opacity="1.00" d=" M 25.55 51.46 C 21.06 47.81 20.34 41.38 22.10 36.16 C 24.78 45.33 34.00 50.96 43.27 51.06 C 37.98 53.81 30.55 55.80 25.55 51.46 Z" />
</g>
<g id="#000000ff">
<path fill="#000000" opacity="1.00" d=" M 18.82 9.81 C 25.68 5.61 34.48 4.91 41.95 7.85 C 48.61 10.39 53.82 16.03 56.49 22.56 C 57.96 26.29 58.42 30.72 56.50 34.38 C 52.80 41.45 42.21 42.55 36.23 37.89 C 38.56 34.87 40.12 30.08 36.61 27.25 C 32.54 22.85 24.62 27.24 25.74 32.99 C 26.65 42.61 37.21 48.12 46.10 46.82 C 48.99 46.93 51.39 44.65 54.17 44.73 C 54.75 46.26 53.05 47.26 52.34 48.38 C 48.01 53.49 41.84 57.19 35.10 57.80 C 28.33 58.38 21.18 56.60 15.92 52.18 C 9.72 47.05 5.85 39.04 6.24 30.94 C 6.66 22.43 11.48 14.19 18.82 9.81 M 15.96 17.29 C 25.33 13.84 35.76 18.99 41.28 26.70 C 43.21 29.62 42.88 33.27 41.95 36.48 C 45.17 36.74 48.89 36.87 51.43 34.49 C 53.79 32.46 54.19 29.05 53.45 26.19 C 51.33 18.18 44.32 11.58 36.06 10.36 C 28.73 9.04 20.96 11.80 15.96 17.29 M 11.16 26.21 C 8.32 34.66 12.28 44.06 18.91 49.56 C 14.37 39.62 19.74 26.64 29.21 21.80 C 23.18 18.70 14.73 20.13 11.16 26.21 M 25.55 51.46 C 30.55 55.80 37.98 53.81 43.27 51.06 C 34.00 50.96 24.78 45.33 22.10 36.16 C 20.34 41.38 21.06 47.81 25.55 51.46 Z" />
</g>
</svg>
