<?xml version="1.0" encoding="UTF-8" ?>
<!DOCTYPE svg PUBLIC "-//W3C//DTD SVG 1.1//EN" "http://www.w3.org/Graphics/SVG/1.1/DTD/svg11.dtd">
<svg width="60pt" height="60pt" viewBox="0 0 60 60" version="1.1" xmlns="http://www.w3.org/2000/svg">
<g id="#ffffffff">
<path fill="#ffffff" opacity="1.00" d=" M 0.00 0.00 L 60.00 0.00 L 60.00 60.00 L 0.00 60.00 L 0.00 37.99 C 3.15 40.49 6.71 42.54 9.37 45.60 C 11.84 48.42 13.89 51.69 16.96 53.92 C 21.36 56.96 26.99 55.76 32.00 56.01 C 35.93 55.88 40.66 56.80 43.67 53.61 C 46.33 51.15 46.01 47.28 46.03 43.98 C 45.89 39.28 46.17 34.57 45.93 29.87 C 45.99 27.14 43.84 24.51 41.11 24.17 C 37.42 23.77 33.70 24.07 30.00 24.00 C 29.85 18.00 30.31 11.97 29.79 5.99 C 29.05 3.42 24.93 3.41 24.22 6.00 C 23.68 11.92 24.15 17.89 24.00 23.83 C 21.15 23.94 17.76 24.47 16.55 27.48 C 15.45 31.37 16.19 35.52 16.01 39.52 C 12.76 37.64 9.69 35.30 6.06 34.18 C 3.48 33.37 0.94 34.98 0.00 37.37 L 0.00 0.00 Z" />
</g>
<g id="#000000ff">
<path fill="#000000" opacity="1.00" d=" M 24.22 6.00 C 24.93 3.41 29.05 3.42 29.79 5.99 C 30.31 11.97 29.85 18.00 30.00 24.00 C 33.70 24.07 37.42 23.77 41.11 24.17 C 43.84 24.51 45.99 27.14 45.93 29.87 C 46.17 34.57 45.89 39.28 46.03 43.98 C 46.01 47.28 46.33 51.15 43.67 53.61 C 40.66 56.80 35.93 55.88 32.00 56.01 C 26.99 55.76 21.36 56.96 16.96 53.92 C 13.89 51.69 11.84 48.42 9.37 45.60 C 6.71 42.54 3.15 40.49 0.00 37.99 L 0.00 37.37 C 0.94 34.98 3.48 33.37 6.06 34.18 C 9.69 35.30 12.76 37.64 16.01 39.52 C 16.19 35.52 15.45 31.37 16.55 27.48 C 17.76 24.47 21.15 23.94 24.00 23.83 C 24.15 17.89 23.68 11.92 24.22 6.00 Z" />
</g>
</svg>
