<?xml version="1.0" encoding="UTF-8" ?>
<!DOCTYPE svg PUBLIC "-//W3C//DTD SVG 1.1//EN" "http://www.w3.org/Graphics/SVG/1.1/DTD/svg11.dtd">
<svg width="60pt" height="60pt" viewBox="0 0 60 60" version="1.1" xmlns="http://www.w3.org/2000/svg">
<g id="#ffffffff">
<path fill="#ffffff" opacity="1.00" d=" M 0.00 0.00 L 60.00 0.00 L 60.00 60.00 L 0.00 60.00 L 0.00 0.00 M 24.47 6.65 C 17.12 8.36 10.74 13.76 7.87 20.75 C 4.82 27.90 5.58 36.53 9.87 43.03 C 13.99 49.45 21.32 53.69 28.96 53.96 C 36.79 54.36 44.66 50.58 49.27 44.24 C 55.83 35.71 55.45 22.78 48.41 14.64 C 42.79 7.72 33.12 4.52 24.47 6.65 Z" />
<path fill="#ffffff" opacity="1.00" d=" M 17.93 13.97 C 22.50 10.84 28.24 9.23 33.74 10.37 C 33.87 10.77 34.12 11.57 34.25 11.97 C 33.69 11.98 32.56 12.00 32.00 12.01 C 32.00 12.51 32.00 13.50 31.99 14.00 C 31.50 14.00 30.50 14.00 30.01 14.00 C 30.00 14.50 30.00 15.50 29.99 16.00 C 28.66 16.00 27.34 16.00 26.01 16.00 C 26.01 15.50 25.99 14.50 25.99 14.00 C 24.66 14.00 23.33 14.00 22.00 14.00 C 22.00 15.41 21.99 16.81 21.98 18.22 C 19.41 18.45 18.98 15.66 17.93 13.97 Z" />
<path fill="#ffffff" opacity="1.00" d=" M 10.74 24.24 C 12.23 20.27 14.64 16.72 17.86 13.94 C 16.98 15.89 16.06 17.85 15.78 20.00 C 15.34 20.00 14.45 20.01 14.00 20.01 C 14.00 20.51 14.00 21.50 14.00 22.00 C 15.33 22.00 16.66 22.00 17.99 22.00 C 17.99 22.44 18.00 23.31 18.00 23.75 C 19.64 23.91 20.98 24.80 22.09 25.95 C 23.40 25.98 24.70 26.00 26.00 26.02 C 26.00 26.51 26.00 27.50 26.00 28.00 C 24.00 28.00 22.00 28.00 20.01 28.00 C 18.66 26.65 17.31 25.30 15.97 23.94 C 14.23 24.01 12.48 24.10 10.74 24.24 Z" />
<path fill="#ffffff" opacity="1.00" d=" M 31.79 27.94 C 34.40 28.89 37.63 29.12 39.46 31.43 C 40.53 33.83 40.41 38.13 43.92 38.22 C 43.91 35.22 44.00 30.13 47.92 29.77 C 47.93 31.80 47.83 33.95 49.18 35.63 C 46.31 45.94 34.69 52.27 24.42 49.30 C 25.76 47.08 26.24 44.56 26.06 41.98 C 28.20 40.86 32.31 41.25 32.21 38.01 C 30.14 38.00 28.08 38.00 26.01 38.00 C 25.04 35.33 24.10 32.63 23.81 29.78 C 27.29 29.75 28.10 33.81 29.99 36.01 C 31.33 36.00 32.66 36.00 34.00 36.00 C 34.66 34.67 35.33 33.34 36.00 32.01 C 34.26 31.01 31.56 30.50 31.79 27.94 M 30.00 44.00 C 30.00 45.33 30.00 46.67 30.00 48.00 C 30.50 48.00 31.50 48.00 32.00 48.00 C 32.00 46.67 32.00 45.33 32.00 44.00 C 31.50 44.00 30.50 44.00 30.00 44.00 Z" />
<path fill="#ffffff" opacity="1.00" d=" M 10.74 35.03 C 13.42 37.58 14.51 41.24 16.09 44.48 C 13.61 41.79 11.57 38.63 10.74 35.03 Z" />
</g>
<g id="#000000ff">
<path fill="#968176" opacity="1.00" d=" M 24.47 6.65 C 33.12 4.52 42.79 7.72 48.41 14.64 C 55.45 22.78 55.83 35.71 49.27 44.24 C 44.66 50.58 36.79 54.36 28.96 53.96 C 21.32 53.69 13.99 49.45 9.87 43.03 C 5.58 36.53 4.82 27.90 7.87 20.75 C 10.74 13.76 17.12 8.36 24.47 6.65 M 17.93 13.97 C 18.98 15.66 19.41 18.45 21.98 18.22 C 21.99 16.81 22.00 15.41 22.00 14.00 C 23.33 14.00 24.66 14.00 25.99 14.00 C 25.99 14.50 26.01 15.50 26.01 16.00 C 27.34 16.00 28.66 16.00 29.99 16.00 C 30.00 15.50 30.00 14.50 30.01 14.00 C 30.50 14.00 31.50 14.00 31.99 14.00 C 32.00 13.50 32.00 12.51 32.00 12.01 C 32.56 12.00 33.69 11.98 34.25 11.97 C 34.12 11.57 33.87 10.77 33.74 10.37 C 28.24 9.23 22.50 10.84 17.93 13.97 M 10.74 24.24 C 12.48 24.10 14.23 24.01 15.97 23.94 C 17.31 25.30 18.66 26.65 20.01 28.00 C 22.00 28.00 24.00 28.00 26.00 28.00 C 26.00 27.50 26.00 26.51 26.00 26.02 C 24.70 26.00 23.40 25.98 22.09 25.95 C 20.98 24.80 19.64 23.91 18.00 23.75 C 18.00 23.31 17.99 22.44 17.99 22.00 C 16.66 22.00 15.33 22.00 14.00 22.00 C 14.00 21.50 14.00 20.51 14.00 20.01 C 14.45 20.01 15.34 20.00 15.78 20.00 C 16.06 17.85 16.98 15.89 17.86 13.94 C 14.64 16.72 12.23 20.27 10.74 24.24 M 31.79 27.94 C 31.56 30.50 34.26 31.01 36.00 32.01 C 35.33 33.34 34.66 34.67 34.00 36.00 C 32.66 36.00 31.33 36.00 29.99 36.01 C 28.10 33.81 27.29 29.75 23.81 29.78 C 24.10 32.63 25.04 35.33 26.01 38.00 C 28.08 38.00 30.14 38.00 32.21 38.01 C 32.31 41.25 28.20 40.86 26.06 41.98 C 26.24 44.56 25.76 47.08 24.42 49.30 C 34.69 52.27 46.31 45.94 49.18 35.63 C 47.83 33.95 47.93 31.80 47.92 29.77 C 44.00 30.13 43.91 35.22 43.92 38.22 C 40.41 38.13 40.53 33.83 39.46 31.43 C 37.63 29.12 34.40 28.89 31.79 27.94 M 10.74 35.03 C 11.57 38.63 13.61 41.79 16.09 44.48 C 14.51 41.24 13.42 37.58 10.74 35.03 Z" />
<path fill="#968176" opacity="1.00" d=" M 30.00 44.00 C 30.50 44.00 31.50 44.00 32.00 44.00 C 32.00 45.33 32.00 46.67 32.00 48.00 C 31.50 48.00 30.50 48.00 30.00 48.00 C 30.00 46.67 30.00 45.33 30.00 44.00 Z" />
</g>
</svg>
