<?xml version="1.0" encoding="UTF-8" ?>
<!DOCTYPE svg PUBLIC "-//W3C//DTD SVG 1.1//EN" "http://www.w3.org/Graphics/SVG/1.1/DTD/svg11.dtd">
<svg width="60pt" height="60pt" viewBox="0 0 60 60" version="1.1" xmlns="http://www.w3.org/2000/svg">
<g id="#ffffffff">
<path fill="#ffffff" opacity="1.00" d=" M 0.00 0.00 L 60.00 0.00 L 60.00 60.00 L 0.00 60.00 L 0.00 0.00 M 14.07 5.98 C 13.86 10.63 14.07 15.29 14.00 19.95 C 11.92 20.25 8.45 19.08 7.89 21.99 C 5.54 29.12 5.21 37.12 7.92 44.20 C 8.64 46.87 11.86 45.75 13.87 46.03 C 14.15 47.63 13.80 49.60 15.16 50.79 C 16.68 52.38 19.06 51.92 21.03 52.03 C 28.03 51.92 35.04 52.11 42.04 51.95 C 44.67 52.07 45.93 49.48 46.24 47.26 C 49.74 45.15 52.93 42.03 53.65 37.83 C 54.37 32.23 53.87 26.54 54.00 20.91 C 54.41 17.43 51.63 13.94 48.04 14.00 C 45.88 13.85 44.06 16.37 41.94 15.06 C 41.85 19.23 42.51 23.54 41.48 27.62 C 40.14 31.36 35.90 32.30 32.36 32.10 C 31.37 34.42 28.62 34.43 27.64 32.10 C 23.87 32.40 19.30 31.09 18.30 26.95 C 17.48 19.73 18.44 12.40 17.83 5.16 C 17.10 3.22 13.83 3.86 14.07 5.98 M 22.00 13.05 C 22.08 17.08 21.83 21.11 22.08 25.12 C 22.03 26.64 23.39 27.98 24.90 27.92 C 28.33 28.09 31.77 28.11 35.20 27.90 C 36.68 27.93 37.95 26.61 37.91 25.14 C 38.17 21.11 37.91 17.08 38.00 13.05 C 32.76 11.70 27.24 11.69 22.00 13.05 Z" />
<path fill="#ffffff" opacity="1.00" d=" M 46.08 19.92 C 45.86 17.87 49.10 17.29 49.82 19.14 C 50.22 24.45 49.97 29.79 49.95 35.11 C 50.14 38.22 48.43 40.93 46.07 42.79 C 45.98 35.17 45.91 27.54 46.08 19.92 Z" />
<path fill="#ffffff" opacity="1.00" d=" M 10.39 28.02 C 11.59 28.01 12.80 28.00 14.00 27.99 C 14.00 31.33 14.00 34.67 14.00 38.01 C 12.74 38.00 11.49 37.99 10.23 37.97 C 9.95 34.66 10.01 31.33 10.39 28.02 Z" />
</g>
<g id="#000000ff">
<path fill="#000000" opacity="1.00" d=" M 14.07 5.98 C 13.83 3.86 17.10 3.22 17.83 5.16 C 18.44 12.40 17.48 19.73 18.30 26.95 C 19.30 31.09 23.87 32.40 27.64 32.10 C 28.62 34.43 31.37 34.42 32.36 32.10 C 35.90 32.30 40.14 31.36 41.48 27.62 C 42.51 23.54 41.85 19.23 41.94 15.06 C 44.06 16.37 45.88 13.85 48.04 14.00 C 51.63 13.94 54.41 17.43 54.00 20.91 C 53.87 26.54 54.37 32.23 53.65 37.83 C 52.93 42.03 49.74 45.15 46.24 47.26 C 45.93 49.48 44.67 52.07 42.04 51.95 C 35.04 52.11 28.03 51.92 21.03 52.03 C 19.06 51.92 16.68 52.38 15.16 50.79 C 13.80 49.60 14.15 47.63 13.87 46.03 C 11.86 45.75 8.64 46.87 7.92 44.20 C 5.21 37.12 5.54 29.12 7.89 21.99 C 8.45 19.08 11.92 20.25 14.00 19.95 C 14.07 15.29 13.86 10.63 14.07 5.98 M 46.08 19.92 C 45.91 27.54 45.98 35.17 46.07 42.79 C 48.43 40.93 50.14 38.22 49.95 35.11 C 49.97 29.79 50.22 24.45 49.82 19.14 C 49.10 17.29 45.86 17.87 46.08 19.92 M 10.39 28.02 C 10.01 31.33 9.95 34.66 10.23 37.97 C 11.49 37.99 12.74 38.00 14.00 38.01 C 14.00 34.67 14.00 31.33 14.00 27.99 C 12.80 28.00 11.59 28.01 10.39 28.02 Z" />
<path fill="#000000" opacity="1.00" d=" M 22.00 13.05 C 27.24 11.69 32.76 11.70 38.00 13.05 C 37.91 17.08 38.17 21.11 37.91 25.14 C 37.95 26.61 36.68 27.93 35.20 27.90 C 31.77 28.11 28.33 28.09 24.90 27.92 C 23.39 27.98 22.03 26.64 22.08 25.12 C 21.83 21.11 22.08 17.08 22.00 13.05 Z" />
</g>
</svg>
