<?xml version="1.0" encoding="UTF-8" ?>
<!DOCTYPE svg PUBLIC "-//W3C//DTD SVG 1.1//EN" "http://www.w3.org/Graphics/SVG/1.1/DTD/svg11.dtd">
<svg width="60pt" height="60pt" viewBox="0 0 60 60" version="1.1" xmlns="http://www.w3.org/2000/svg">
<g id="#ffffffff">
<path fill="#ffffff" opacity="1.00" d=" M 0.00 0.00 L 60.00 0.00 L 60.00 60.00 L 0.00 60.00 L 0.00 0.00 M 22.26 4.32 C 22.26 5.44 22.26 6.55 22.27 7.67 C 27.49 8.19 32.76 8.21 37.97 7.63 C 37.58 6.58 38.17 4.59 36.72 4.29 C 31.94 3.56 27.06 3.99 22.26 4.32 M 24.10 12.03 C 21.50 16.00 18.09 19.94 18.05 24.95 C 17.90 33.32 18.03 41.70 17.98 50.08 C 17.89 52.34 18.30 55.58 21.16 55.79 C 27.03 56.20 32.97 56.20 38.84 55.79 C 41.72 55.61 42.09 52.32 42.02 50.08 C 41.97 41.70 42.10 33.32 41.95 24.95 C 41.91 19.94 38.50 15.99 35.90 12.03 C 31.97 11.97 28.04 11.97 24.10 12.03 Z" />
</g>
<g id="#000000ff">
<path fill="#000000" opacity="1.00" d=" M 22.26 4.32 C 27.06 3.99 31.94 3.56 36.72 4.29 C 38.17 4.59 37.58 6.58 37.97 7.63 C 32.76 8.21 27.49 8.19 22.27 7.67 C 22.26 6.55 22.26 5.44 22.26 4.32 Z" />
<path fill="#000000" opacity="1.00" d=" M 24.10 12.03 C 28.04 11.97 31.97 11.97 35.90 12.03 C 38.50 15.99 41.91 19.94 41.95 24.95 C 42.10 33.32 41.97 41.70 42.02 50.08 C 42.09 52.32 41.72 55.61 38.84 55.79 C 32.97 56.20 27.03 56.20 21.16 55.79 C 18.30 55.58 17.89 52.34 17.98 50.08 C 18.03 41.70 17.90 33.32 18.05 24.95 C 18.09 19.94 21.50 16.00 24.10 12.03 Z" />
</g>
</svg>
