<?xml version="1.0" encoding="UTF-8" ?>
<!DOCTYPE svg PUBLIC "-//W3C//DTD SVG 1.1//EN" "http://www.w3.org/Graphics/SVG/1.1/DTD/svg11.dtd">
<svg width="60pt" height="60pt" viewBox="0 0 60 60" version="1.1" xmlns="http://www.w3.org/2000/svg">
<g id="#ffffffff">
<path fill="#ffffff" opacity="1.00" d=" M 0.00 0.00 L 60.00 0.00 L 60.00 60.00 L 0.00 60.00 L 0.00 0.00 M 27.16 11.20 C 24.98 13.55 24.32 16.76 23.86 19.82 C 25.91 19.13 28.04 18.65 30.22 18.66 C 29.98 23.67 28.74 29.33 24.60 32.60 C 20.37 36.72 16.29 40.99 12.06 45.11 C 10.78 46.31 8.16 45.82 8.02 48.08 C 7.56 49.98 4.51 52.38 7.17 53.91 C 9.44 53.87 11.17 51.86 13.38 51.35 C 14.04 50.03 14.17 48.40 15.38 47.41 C 20.49 42.51 25.31 37.30 30.48 32.48 C 33.95 31.14 37.53 29.58 41.34 29.79 C 41.32 31.96 40.85 34.08 40.17 36.14 C 43.48 35.69 46.94 34.84 49.36 32.35 C 52.74 29.20 53.80 24.46 54.08 20.03 C 52.00 21.39 49.87 22.65 47.72 23.89 C 48.30 20.66 47.87 17.03 45.38 14.68 C 43.03 12.13 39.36 11.69 36.11 12.27 C 37.35 10.13 38.62 7.99 39.97 5.92 C 35.30 6.20 30.26 7.42 27.16 11.20 Z" />
<path fill="#ffffff" opacity="1.00" d=" M 33.87 15.87 C 36.79 15.61 40.26 15.18 42.53 17.50 C 44.81 19.76 44.37 23.22 44.13 26.13 C 41.22 26.37 37.74 26.81 35.48 24.51 C 33.18 22.24 33.62 18.78 33.87 15.87 M 37.40 18.48 C 34.08 20.39 37.44 25.78 40.61 23.50 C 43.91 21.60 40.58 16.26 37.40 18.48 Z" />
</g>
<g id="#000000ff">
<path fill="#968176" opacity="1.00" d=" M 27.16 11.20 C 30.26 7.42 35.30 6.20 39.97 5.92 C 38.62 7.99 37.35 10.13 36.11 12.27 C 39.36 11.69 43.03 12.13 45.38 14.68 C 47.87 17.03 48.30 20.66 47.72 23.89 C 49.87 22.65 52.00 21.39 54.08 20.03 C 53.80 24.46 52.74 29.20 49.36 32.35 C 46.94 34.84 43.48 35.69 40.17 36.14 C 40.85 34.08 41.32 31.96 41.34 29.79 C 37.53 29.58 33.95 31.14 30.48 32.48 C 25.31 37.30 20.49 42.51 15.38 47.41 C 14.17 48.40 14.04 50.03 13.38 51.35 C 11.17 51.86 9.44 53.87 7.17 53.91 C 4.51 52.38 7.56 49.98 8.02 48.08 C 8.16 45.82 10.78 46.31 12.06 45.11 C 16.29 40.99 20.37 36.72 24.60 32.60 C 28.74 29.33 29.98 23.67 30.22 18.66 C 28.04 18.65 25.91 19.13 23.86 19.82 C 24.32 16.76 24.98 13.55 27.16 11.20 M 33.87 15.87 C 33.62 18.78 33.18 22.24 35.48 24.51 C 37.74 26.81 41.22 26.37 44.13 26.13 C 44.37 23.22 44.81 19.76 42.53 17.50 C 40.26 15.18 36.79 15.61 33.87 15.87 Z" />
<path fill="#968176" opacity="1.00" d=" M 37.40 18.48 C 40.58 16.26 43.91 21.60 40.61 23.50 C 37.44 25.78 34.08 20.39 37.40 18.48 Z" />
</g>
</svg>
