<?xml version="1.0" encoding="UTF-8" ?>
<!DOCTYPE svg PUBLIC "-//W3C//DTD SVG 1.1//EN" "http://www.w3.org/Graphics/SVG/1.1/DTD/svg11.dtd">
<svg width="64pt" height="64pt" viewBox="0 0 64 64" version="1.1" xmlns="http://www.w3.org/2000/svg">
<g id="#ffffffff">
<path fill="#ffffff" opacity="1.00" d=" M 0.00 0.00 L 64.00 0.00 L 64.00 64.00 L 0.00 64.00 L 0.00 0.00 M 23.45 11.56 C 19.50 15.17 18.16 20.63 17.89 25.79 C 20.51 24.79 23.23 24.15 26.02 23.89 C 25.82 27.11 26.46 30.30 28.01 33.15 C 27.01 34.15 26.02 35.15 25.02 36.16 C 24.61 35.77 23.79 35.00 23.38 34.61 C 22.46 35.53 21.53 36.46 20.60 37.39 C 20.99 37.79 21.77 38.61 22.16 39.02 C 19.12 42.06 16.07 45.10 13.04 48.14 C 12.63 47.76 11.80 46.99 11.38 46.61 C 10.46 47.54 9.53 48.46 8.60 49.39 C 8.99 49.79 9.78 50.60 10.17 51.01 C 8.81 52.36 7.45 53.73 6.10 55.09 C 7.04 56.02 7.98 56.97 8.92 57.91 C 10.28 56.55 11.64 55.20 13.00 53.84 C 13.41 54.23 14.21 55.00 14.61 55.39 C 15.54 54.47 16.46 53.54 17.39 52.62 C 17.01 52.21 16.25 51.38 15.87 50.97 C 18.90 47.92 21.94 44.88 24.98 41.85 C 25.39 42.23 26.21 43.00 26.62 43.39 C 27.54 42.46 28.47 41.54 29.40 40.61 C 29.01 40.21 28.23 39.39 27.84 38.98 C 28.84 37.99 29.83 37.00 30.83 36.01 C 33.68 37.56 36.88 38.18 40.11 37.97 C 39.84 40.76 39.20 43.49 38.20 46.10 C 43.16 45.81 48.39 44.62 52.00 40.97 C 56.54 36.65 57.82 30.17 58.10 24.17 C 56.14 27.27 53.19 29.63 49.49 30.23 C 50.73 25.39 49.57 19.74 45.43 16.63 C 42.21 13.89 37.76 13.70 33.78 14.41 C 34.40 10.73 36.77 7.80 39.89 5.89 C 34.05 6.17 27.79 7.32 23.45 11.56 Z" />
<path fill="#ffffff" opacity="1.00" d=" M 22.59 20.23 C 23.94 16.47 26.64 13.41 30.22 11.63 C 30.12 13.32 30.02 15.01 29.94 16.71 C 29.09 17.77 28.26 18.85 27.44 19.94 C 25.82 20.04 24.21 20.14 22.59 20.23 Z" />
<path fill="#ffffff" opacity="1.00" d=" M 32.36 19.54 C 35.86 17.70 40.64 17.19 43.61 20.30 C 46.75 23.19 46.38 27.95 44.29 31.34 C 43.57 28.46 43.16 25.24 40.99 23.02 C 38.80 20.57 35.33 20.35 32.36 19.54 Z" />
<path fill="#ffffff" opacity="1.00" d=" M 32.40 31.66 C 29.05 28.83 29.75 23.84 31.63 20.37 C 32.37 23.34 32.74 26.68 35.01 28.97 C 37.13 31.36 40.46 31.63 43.35 32.39 C 39.98 34.22 35.16 34.97 32.40 31.66 Z" />
<path fill="#ffffff" opacity="1.00" d=" M 37.21 24.09 C 39.60 23.20 41.07 26.68 38.91 27.87 C 36.44 28.93 34.80 25.18 37.21 24.09 Z" />
<path fill="#ffffff" opacity="1.00" d=" M 44.04 36.40 C 45.01 35.62 45.98 34.84 46.95 34.06 C 48.75 33.98 50.56 33.89 52.36 33.78 C 50.57 37.33 47.53 40.04 43.79 41.39 C 43.86 39.73 43.95 38.06 44.04 36.40 Z" />
</g>
<g id="#000000ff">
<path fill="#000000" opacity="1.00" d=" M 23.45 11.56 C 27.79 7.32 34.05 6.17 39.89 5.89 C 36.77 7.80 34.40 10.73 33.78 14.41 C 37.76 13.70 42.21 13.89 45.43 16.63 C 49.57 19.74 50.73 25.39 49.49 30.23 C 53.19 29.63 56.14 27.27 58.10 24.17 C 57.82 30.17 56.54 36.65 52.00 40.97 C 48.39 44.62 43.16 45.81 38.20 46.10 C 39.20 43.49 39.84 40.76 40.11 37.97 C 36.88 38.18 33.68 37.56 30.83 36.01 C 29.83 37.00 28.84 37.99 27.84 38.98 C 28.23 39.39 29.01 40.21 29.40 40.61 C 28.47 41.54 27.54 42.46 26.62 43.39 C 26.21 43.00 25.39 42.23 24.98 41.85 C 21.94 44.88 18.90 47.92 15.87 50.97 C 16.25 51.38 17.01 52.21 17.39 52.62 C 16.46 53.54 15.54 54.47 14.61 55.39 C 14.21 55.00 13.41 54.23 13.00 53.84 C 11.64 55.20 10.28 56.55 8.92 57.91 C 7.98 56.97 7.04 56.02 6.10 55.09 C 7.45 53.73 8.81 52.36 10.17 51.01 C 9.78 50.60 8.99 49.79 8.60 49.39 C 9.53 48.46 10.46 47.54 11.38 46.61 C 11.80 46.99 12.63 47.76 13.04 48.14 C 16.07 45.10 19.12 42.06 22.16 39.02 C 21.77 38.61 20.99 37.79 20.60 37.39 C 21.53 36.46 22.46 35.53 23.38 34.61 C 23.79 35.00 24.61 35.77 25.02 36.16 C 26.02 35.15 27.01 34.15 28.01 33.15 C 26.46 30.30 25.82 27.11 26.02 23.89 C 23.23 24.15 20.51 24.79 17.89 25.79 C 18.16 20.63 19.50 15.17 23.45 11.56 M 22.59 20.23 C 24.21 20.14 25.82 20.04 27.44 19.94 C 28.26 18.85 29.09 17.77 29.94 16.71 C 30.02 15.01 30.12 13.32 30.22 11.63 C 26.64 13.41 23.94 16.47 22.59 20.23 M 32.36 19.54 C 35.33 20.35 38.80 20.57 40.99 23.02 C 43.16 25.24 43.57 28.46 44.29 31.34 C 46.38 27.95 46.75 23.19 43.61 20.30 C 40.64 17.19 35.86 17.70 32.36 19.54 M 32.40 31.66 C 35.16 34.97 39.98 34.22 43.35 32.39 C 40.46 31.63 37.13 31.36 35.01 28.97 C 32.74 26.68 32.37 23.34 31.63 20.37 C 29.75 23.84 29.05 28.83 32.40 31.66 M 37.21 24.09 C 34.80 25.18 36.44 28.93 38.91 27.87 C 41.07 26.68 39.60 23.20 37.21 24.09 M 44.04 36.40 C 43.95 38.06 43.86 39.73 43.79 41.39 C 47.53 40.04 50.57 37.33 52.36 33.78 C 50.56 33.89 48.75 33.98 46.95 34.06 C 45.98 34.84 45.01 35.62 44.04 36.40 Z" />
</g>
</svg>
