<?xml version="1.0" encoding="UTF-8" ?>
<!DOCTYPE svg PUBLIC "-//W3C//DTD SVG 1.1//EN" "http://www.w3.org/Graphics/SVG/1.1/DTD/svg11.dtd">
<svg width="60pt" height="60pt" viewBox="0 0 60 60" version="1.1" xmlns="http://www.w3.org/2000/svg">
<g id="#ffffffff">
<path fill="#ffffff" opacity="1.00" d=" M 0.00 0.00 L 60.00 0.00 L 60.00 60.00 L 0.00 60.00 L 0.00 0.00 M 17.54 9.51 C 12.19 12.68 8.42 18.05 6.72 23.98 C 8.17 23.99 9.61 24.00 11.06 24.00 C 15.98 18.72 22.50 14.13 29.98 14.00 C 37.47 14.11 44.01 18.70 48.94 24.00 C 50.38 24.00 51.83 23.99 53.27 23.98 C 51.81 18.99 48.97 14.36 44.83 11.15 C 37.26 4.99 25.79 4.29 17.54 9.51 M 25.45 18.76 C 20.36 20.39 16.49 24.20 12.76 27.84 C 10.26 28.19 7.71 27.82 5.20 28.14 C 3.27 28.86 3.86 32.14 5.97 31.94 C 8.75 32.44 12.43 30.89 14.36 33.61 C 18.82 38.32 24.91 42.67 31.73 41.87 C 38.03 41.01 42.87 36.50 47.18 32.19 C 49.70 31.77 52.29 32.20 54.82 31.85 C 56.75 31.08 56.10 27.80 53.97 28.06 C 51.20 27.57 47.56 29.11 45.65 26.39 C 40.64 20.99 33.07 16.11 25.45 18.76 M 6.73 36.02 C 9.45 46.66 19.99 54.66 31.03 53.97 C 41.38 53.72 50.66 45.94 53.27 36.02 C 51.83 36.01 50.38 36.00 48.94 36.00 C 44.01 41.28 37.49 45.87 30.00 45.99 C 22.52 45.87 15.99 41.28 11.06 36.00 C 9.62 36.00 8.17 36.01 6.73 36.02 Z" />
<path fill="#ffffff" opacity="1.00" d=" M 27.35 22.47 C 31.61 20.81 36.80 23.65 37.75 28.11 C 38.99 32.55 35.57 37.46 31.01 37.92 C 26.80 38.56 22.52 35.27 22.08 31.03 C 21.54 27.40 23.86 23.61 27.35 22.47 M 28.38 26.36 C 23.59 28.24 27.00 35.97 31.60 33.63 C 36.41 31.79 32.99 23.98 28.38 26.36 Z" />
</g>
<g id="#000000ff">
<path fill="#000000" opacity="1.00" d=" M 17.54 9.51 C 25.79 4.29 37.26 4.99 44.83 11.15 C 48.97 14.36 51.81 18.99 53.27 23.98 C 51.83 23.99 50.38 24.00 48.94 24.00 C 44.01 18.70 37.47 14.11 29.98 14.00 C 22.50 14.13 15.98 18.72 11.06 24.00 C 9.61 24.00 8.17 23.99 6.72 23.98 C 8.42 18.05 12.19 12.68 17.54 9.51 Z" />
<path fill="#000000" opacity="1.00" d=" M 25.45 18.76 C 33.07 16.11 40.64 20.99 45.65 26.39 C 47.56 29.11 51.20 27.57 53.97 28.06 C 56.10 27.80 56.75 31.08 54.82 31.85 C 52.29 32.20 49.70 31.77 47.18 32.19 C 42.87 36.50 38.03 41.01 31.73 41.87 C 24.91 42.67 18.82 38.32 14.36 33.61 C 12.43 30.89 8.75 32.44 5.97 31.94 C 3.86 32.14 3.27 28.86 5.20 28.14 C 7.71 27.82 10.26 28.19 12.76 27.84 C 16.49 24.20 20.36 20.39 25.45 18.76 M 27.35 22.47 C 23.86 23.61 21.54 27.40 22.08 31.03 C 22.52 35.27 26.80 38.56 31.01 37.92 C 35.57 37.46 38.99 32.55 37.75 28.11 C 36.80 23.65 31.61 20.81 27.35 22.47 Z" />
<path fill="#000000" opacity="1.00" d=" M 28.38 26.36 C 32.99 23.98 36.41 31.79 31.60 33.63 C 27.00 35.97 23.59 28.24 28.38 26.36 Z" />
<path fill="#000000" opacity="1.00" d=" M 6.73 36.02 C 8.17 36.01 9.62 36.00 11.06 36.00 C 15.99 41.28 22.52 45.87 30.00 45.99 C 37.49 45.87 44.01 41.28 48.94 36.00 C 50.38 36.00 51.83 36.01 53.27 36.02 C 50.66 45.94 41.38 53.72 31.03 53.97 C 19.99 54.66 9.45 46.66 6.73 36.02 Z" />
</g>
</svg>
