<?xml version="1.0" encoding="UTF-8" ?>
<!DOCTYPE svg PUBLIC "-//W3C//DTD SVG 1.1//EN" "http://www.w3.org/Graphics/SVG/1.1/DTD/svg11.dtd">
<svg width="60pt" height="60pt" viewBox="0 0 60 60" version="1.1" xmlns="http://www.w3.org/2000/svg">
<g id="#ffffffff">
<path fill="#ffffff" opacity="1.00" d=" M 0.00 0.00 L 60.00 0.00 L 60.00 60.00 L 0.00 60.00 L 0.00 0.00 M 29.75 5.78 C 26.99 8.35 27.84 12.77 30.50 15.09 C 29.77 18.00 28.97 20.90 28.14 23.79 C 26.38 24.21 24.65 24.77 23.00 25.54 C 20.59 23.73 18.21 21.88 15.87 19.99 C 16.60 16.60 14.75 12.68 11.11 12.11 C 6.54 11.00 2.34 16.40 4.58 20.56 C 6.06 24.00 10.27 24.59 13.40 23.19 C 15.79 25.00 18.15 26.87 20.51 28.73 C 19.78 31.39 20.00 34.12 21.22 36.61 C 18.96 39.16 16.72 41.73 14.43 44.24 C 11.26 43.46 7.41 44.63 6.35 48.00 C 4.50 52.44 9.44 57.45 13.91 55.67 C 17.55 54.60 18.77 50.27 17.40 46.99 C 19.65 44.38 21.96 41.82 24.25 39.24 C 26.72 40.08 29.29 40.07 31.75 39.24 C 34.05 41.81 36.36 44.37 38.60 46.99 C 37.39 50.05 38.19 54.01 41.43 55.41 C 45.57 57.64 50.95 53.51 49.90 48.95 C 49.34 45.10 45.09 43.27 41.59 44.24 C 39.30 41.72 37.04 39.16 34.79 36.60 C 35.29 35.03 35.77 33.45 36.20 31.86 C 39.09 31.04 41.99 30.23 44.91 29.51 C 47.22 32.16 51.63 33.00 54.21 30.25 C 57.70 27.12 55.66 20.66 51.01 20.09 C 47.36 19.31 44.52 22.38 43.72 25.64 C 40.85 26.45 37.96 27.20 35.08 27.98 C 34.03 26.99 33.01 25.97 32.02 24.93 C 32.80 22.03 33.55 19.13 34.39 16.25 C 37.67 15.45 40.74 12.52 39.88 8.87 C 39.23 4.29 32.85 2.33 29.75 5.78 Z" />
</g>
<g id="#000000ff">
<path fill="#968176" opacity="1.00" d=" M 29.75 5.78 C 32.85 2.33 39.23 4.29 39.88 8.87 C 40.74 12.52 37.67 15.45 34.39 16.25 C 33.55 19.13 32.80 22.03 32.02 24.93 C 33.01 25.97 34.03 26.99 35.08 27.98 C 37.96 27.20 40.85 26.45 43.72 25.64 C 44.52 22.38 47.36 19.31 51.01 20.09 C 55.66 20.66 57.70 27.12 54.21 30.25 C 51.63 33.00 47.22 32.16 44.91 29.51 C 41.99 30.23 39.09 31.04 36.20 31.86 C 35.77 33.45 35.29 35.03 34.79 36.60 C 37.04 39.16 39.30 41.72 41.59 44.24 C 45.09 43.27 49.34 45.10 49.90 48.95 C 50.95 53.51 45.57 57.64 41.43 55.41 C 38.19 54.01 37.39 50.05 38.60 46.99 C 36.36 44.37 34.05 41.81 31.75 39.24 C 29.29 40.07 26.72 40.08 24.25 39.24 C 21.96 41.82 19.65 44.38 17.40 46.99 C 18.77 50.27 17.55 54.60 13.91 55.67 C 9.44 57.45 4.50 52.44 6.35 48.00 C 7.41 44.63 11.26 43.46 14.43 44.24 C 16.72 41.73 18.96 39.16 21.22 36.61 C 20.00 34.12 19.78 31.39 20.51 28.73 C 18.15 26.87 15.79 25.00 13.40 23.19 C 10.27 24.59 6.06 24.00 4.58 20.56 C 2.34 16.40 6.54 11.00 11.11 12.11 C 14.75 12.68 16.60 16.60 15.87 19.99 C 18.21 21.88 20.59 23.73 23.00 25.54 C 24.65 24.77 26.38 24.21 28.14 23.79 C 28.97 20.90 29.77 18.00 30.50 15.09 C 27.84 12.77 26.99 8.35 29.75 5.78 Z" />
</g>
</svg>
