<?xml version="1.0" encoding="UTF-8" ?>
<!DOCTYPE svg PUBLIC "-//W3C//DTD SVG 1.1//EN" "http://www.w3.org/Graphics/SVG/1.1/DTD/svg11.dtd">
<svg width="64pt" height="64pt" viewBox="0 0 64 64" version="1.1" xmlns="http://www.w3.org/2000/svg">
<g id="#ffffffff">
<path fill="#ffffff" opacity="1.00" d=" M 0.00 0.00 L 64.00 0.00 L 64.00 64.00 L 0.00 64.00 L 0.00 0.00 M 8.26 15.93 C 9.37 21.01 15.47 23.36 19.95 21.06 C 21.36 22.59 22.76 24.14 24.13 25.70 C 21.54 29.32 21.37 34.17 23.82 37.91 C 22.74 39.03 21.65 40.15 20.55 41.25 C 16.06 38.44 9.40 40.73 8.26 46.07 C 6.60 51.62 12.40 57.41 17.95 55.74 C 22.91 54.62 25.30 48.74 23.19 44.26 C 24.37 43.06 25.57 41.87 26.78 40.69 C 29.70 42.13 32.98 42.26 36.06 41.25 C 36.77 42.26 37.49 43.27 38.21 44.28 C 34.66 48.22 35.63 55.19 40.74 57.27 C 46.10 60.02 52.98 54.83 51.90 48.93 C 51.39 44.10 46.22 41.08 41.64 42.19 C 40.88 41.11 40.11 40.02 39.35 38.93 C 40.95 37.33 41.00 33.12 44.05 34.09 C 45.43 36.22 46.65 38.78 49.34 39.52 C 54.66 41.69 60.92 36.56 59.90 30.92 C 59.38 25.26 52.04 21.94 47.49 25.43 C 45.11 26.58 45.24 30.70 41.97 30.11 C 41.80 27.21 35.96 23.74 40.14 21.94 C 47.31 22.22 50.80 12.05 45.06 7.83 C 39.94 3.12 30.76 8.19 32.11 15.05 C 31.92 17.95 35.86 19.33 34.93 22.24 C 32.31 21.86 29.69 22.08 27.26 23.16 C 25.78 21.59 24.33 19.99 22.90 18.38 C 25.26 14.10 23.52 8.07 18.69 6.49 C 13.02 4.12 6.47 10.06 8.26 15.93 Z" />
<path fill="#ffffff" opacity="1.00" d=" M 14.32 10.35 C 16.82 9.07 20.16 11.19 19.99 14.02 C 20.07 17.03 16.18 19.19 13.73 17.30 C 11.19 15.73 11.56 11.47 14.32 10.35 Z" />
<path fill="#ffffff" opacity="1.00" d=" M 38.32 10.36 C 40.85 9.06 44.18 11.22 44.00 14.07 C 44.10 17.17 40.12 19.18 37.68 17.26 C 35.19 15.67 35.58 11.46 38.32 10.36 Z" />
<path fill="#ffffff" opacity="1.00" d=" M 29.36 26.62 C 33.13 24.55 38.17 27.77 38.00 32.02 C 38.16 36.51 32.59 39.63 28.85 37.13 C 24.90 34.92 25.20 28.43 29.36 26.62 Z" />
<path fill="#ffffff" opacity="1.00" d=" M 50.30 28.37 C 52.80 27.07 56.09 29.14 56.00 31.96 C 56.19 35.11 52.15 37.21 49.67 35.26 C 47.20 33.67 47.58 29.48 50.30 28.37 Z" />
<path fill="#ffffff" opacity="1.00" d=" M 14.32 44.35 C 16.82 43.09 20.08 45.15 20.00 47.95 C 20.20 51.11 16.13 53.22 13.65 51.24 C 11.19 49.64 11.59 45.45 14.32 44.35 Z" />
<path fill="#ffffff" opacity="1.00" d=" M 42.33 46.36 C 45.17 44.85 48.79 47.83 47.90 50.91 C 47.35 53.89 43.19 55.05 41.16 52.83 C 39.18 50.98 39.90 47.43 42.33 46.36 Z" />
</g>
<g id="#000000ff">
<path fill="#000000" opacity="1.00" d=" M 8.26 15.93 C 6.47 10.06 13.02 4.12 18.69 6.49 C 23.52 8.07 25.26 14.10 22.90 18.38 C 24.33 19.99 25.78 21.59 27.26 23.16 C 29.69 22.08 32.31 21.86 34.93 22.24 C 35.86 19.33 31.92 17.95 32.11 15.05 C 30.76 8.19 39.94 3.12 45.06 7.83 C 50.80 12.05 47.31 22.22 40.14 21.94 C 35.96 23.74 41.80 27.21 41.97 30.11 C 45.24 30.70 45.11 26.58 47.49 25.43 C 52.04 21.94 59.38 25.26 59.90 30.92 C 60.92 36.56 54.66 41.69 49.34 39.52 C 46.65 38.78 45.43 36.22 44.05 34.09 C 41.00 33.12 40.95 37.33 39.35 38.93 C 40.11 40.02 40.88 41.11 41.64 42.19 C 46.22 41.08 51.39 44.10 51.90 48.93 C 52.98 54.83 46.10 60.02 40.74 57.27 C 35.63 55.19 34.66 48.22 38.21 44.28 C 37.49 43.27 36.77 42.26 36.06 41.25 C 32.98 42.26 29.70 42.13 26.78 40.69 C 25.57 41.87 24.37 43.06 23.19 44.26 C 25.30 48.74 22.91 54.62 17.95 55.74 C 12.40 57.41 6.60 51.62 8.26 46.07 C 9.40 40.73 16.06 38.44 20.55 41.25 C 21.65 40.15 22.74 39.03 23.82 37.91 C 21.37 34.17 21.54 29.32 24.13 25.70 C 22.76 24.14 21.36 22.59 19.95 21.06 C 15.47 23.36 9.37 21.01 8.26 15.93 M 14.32 10.35 C 11.56 11.47 11.19 15.73 13.73 17.30 C 16.18 19.19 20.07 17.03 19.99 14.02 C 20.16 11.19 16.82 9.07 14.32 10.35 M 38.32 10.36 C 35.58 11.46 35.19 15.67 37.68 17.26 C 40.12 19.18 44.10 17.17 44.00 14.07 C 44.18 11.22 40.85 9.06 38.32 10.36 M 29.36 26.62 C 25.20 28.43 24.90 34.92 28.85 37.13 C 32.59 39.63 38.16 36.51 38.00 32.02 C 38.17 27.77 33.13 24.55 29.36 26.62 M 50.30 28.37 C 47.58 29.48 47.20 33.67 49.67 35.26 C 52.15 37.21 56.19 35.11 56.00 31.96 C 56.09 29.14 52.80 27.07 50.30 28.37 M 14.32 44.35 C 11.59 45.45 11.19 49.64 13.65 51.24 C 16.13 53.22 20.20 51.11 20.00 47.95 C 20.08 45.15 16.82 43.09 14.32 44.35 M 42.33 46.36 C 39.90 47.43 39.18 50.98 41.16 52.83 C 43.19 55.05 47.35 53.89 47.90 50.91 C 48.79 47.83 45.17 44.85 42.33 46.36 Z" />
</g>
</svg>
