<?xml version="1.0" encoding="UTF-8" ?>
<!DOCTYPE svg PUBLIC "-//W3C//DTD SVG 1.1//EN" "http://www.w3.org/Graphics/SVG/1.1/DTD/svg11.dtd">
<svg width="60pt" height="60pt" viewBox="0 0 60 60" version="1.1" xmlns="http://www.w3.org/2000/svg">
<g id="#ffffffff">
<path fill="#ffffff" opacity="1.00" d=" M 0.00 0.00 L 60.00 0.00 L 60.00 60.00 L 0.00 60.00 L 0.00 0.00 M 4.00 7.99 C 4.05 11.85 3.89 15.72 4.03 19.58 C 4.53 19.80 5.52 20.24 6.02 20.46 C 6.02 28.98 5.94 37.49 6.04 46.00 C 5.96 48.11 7.89 50.03 10.00 49.96 C 14.66 50.10 19.33 49.95 24.00 50.00 C 24.00 51.33 24.00 52.66 24.00 54.00 C 28.00 54.00 32.00 54.00 36.00 54.00 C 36.00 52.66 36.00 51.33 36.00 50.00 C 40.67 49.95 45.34 50.10 50.00 49.96 C 52.11 50.03 54.04 48.11 53.96 46.00 C 54.12 37.48 53.89 28.95 54.03 20.42 C 54.53 20.20 55.52 19.76 56.02 19.54 C 55.99 15.69 55.99 11.84 56.01 7.99 C 52.16 8.01 48.31 8.01 44.46 7.98 C 44.24 8.48 43.80 9.47 43.58 9.97 C 34.53 10.03 25.47 10.03 16.43 9.97 C 16.20 9.47 15.76 8.48 15.54 7.98 C 11.69 8.01 7.85 8.01 4.00 7.99 Z" />
<path fill="#ffffff" opacity="1.00" d=" M 10.00 14.00 C 23.33 14.00 36.67 14.00 50.00 14.00 C 50.00 24.67 50.00 35.33 50.00 46.00 C 47.35 45.99 44.69 45.99 42.03 46.01 C 42.01 44.68 42.00 43.34 41.98 42.00 C 40.66 42.00 39.33 42.00 38.01 42.00 C 38.00 40.67 38.00 39.33 37.99 38.00 C 36.67 38.00 35.34 38.00 34.02 38.00 C 34.00 36.66 33.99 35.32 33.97 33.99 C 31.32 34.01 28.68 34.01 26.03 33.99 C 26.01 35.32 26.00 36.66 25.98 38.00 C 24.66 38.00 23.33 38.00 22.01 38.00 C 22.00 39.33 22.00 40.67 21.99 42.00 C 20.67 42.00 19.34 42.00 18.02 42.00 C 18.00 43.34 17.99 44.68 17.97 46.01 C 15.31 45.99 12.65 45.99 10.00 46.00 C 10.00 35.33 10.00 24.67 10.00 14.00 M 12.00 26.00 C 12.01 28.67 12.00 31.34 11.99 34.01 C 14.66 34.00 17.33 33.99 20.00 34.00 C 20.00 32.67 20.00 31.35 20.00 30.03 C 18.67 30.02 17.34 30.00 16.01 29.98 C 16.00 28.65 15.98 27.32 15.97 26.00 C 14.65 26.00 13.32 26.00 12.00 26.00 M 44.03 26.00 C 44.02 27.32 44.00 28.65 43.99 29.98 C 42.65 30.00 41.32 30.02 40.00 30.03 C 40.00 31.35 40.00 32.67 40.00 34.00 C 42.67 33.99 45.34 34.00 48.01 34.01 C 48.00 31.34 47.99 28.67 48.00 26.00 C 46.67 26.00 45.35 26.00 44.03 26.00 Z" />
<path fill="#ffffff" opacity="1.00" d=" M 24.01 45.99 C 28.00 46.01 32.00 46.01 35.99 45.99 C 35.99 47.32 36.00 48.66 36.00 50.00 C 32.00 50.00 28.00 50.00 24.00 50.00 C 24.00 48.66 24.01 47.32 24.01 45.99 Z" />
</g>
<g id="#000000ff">
<path fill="#000000" opacity="1.00" d=" M 4.00 7.99 C 7.85 8.01 11.69 8.01 15.54 7.98 C 15.76 8.48 16.20 9.47 16.43 9.97 C 25.47 10.03 34.53 10.03 43.58 9.97 C 43.80 9.47 44.24 8.48 44.46 7.98 C 48.31 8.01 52.16 8.01 56.01 7.99 C 55.99 11.84 55.99 15.69 56.02 19.54 C 55.52 19.76 54.53 20.20 54.03 20.42 C 53.89 28.95 54.12 37.48 53.96 46.00 C 54.04 48.11 52.11 50.03 50.00 49.96 C 45.34 50.10 40.67 49.95 36.00 50.00 C 36.00 48.66 35.99 47.32 35.99 45.99 C 32.00 46.01 28.00 46.01 24.01 45.99 C 24.01 47.32 24.00 48.66 24.00 50.00 C 19.33 49.95 14.66 50.10 10.00 49.96 C 7.89 50.03 5.96 48.11 6.04 46.00 C 5.94 37.49 6.02 28.98 6.02 20.46 C 5.52 20.24 4.53 19.80 4.03 19.58 C 3.89 15.72 4.05 11.85 4.00 7.99 M 10.00 14.00 C 10.00 24.67 10.00 35.33 10.00 46.00 C 12.65 45.99 15.31 45.99 17.97 46.01 C 17.99 44.68 18.00 43.34 18.02 42.00 C 19.34 42.00 20.67 42.00 21.99 42.00 C 22.00 40.67 22.00 39.33 22.01 38.00 C 23.33 38.00 24.66 38.00 25.98 38.00 C 26.00 36.66 26.01 35.32 26.03 33.99 C 28.68 34.01 31.32 34.01 33.97 33.99 C 33.99 35.32 34.00 36.66 34.02 38.00 C 35.34 38.00 36.67 38.00 37.99 38.00 C 38.00 39.33 38.00 40.67 38.01 42.00 C 39.33 42.00 40.66 42.00 41.98 42.00 C 42.00 43.34 42.01 44.68 42.03 46.01 C 44.69 45.99 47.35 45.99 50.00 46.00 C 50.00 35.33 50.00 24.67 50.00 14.00 C 36.67 14.00 23.33 14.00 10.00 14.00 Z" />
<path fill="#000000" opacity="1.00" d=" M 12.00 26.00 C 13.32 26.00 14.65 26.00 15.97 26.00 C 15.98 27.32 16.00 28.65 16.01 29.98 C 17.34 30.00 18.67 30.02 20.00 30.03 C 20.00 31.35 20.00 32.67 20.00 34.00 C 17.33 33.99 14.66 34.00 11.99 34.01 C 12.00 31.34 12.01 28.67 12.00 26.00 Z" />
<path fill="#000000" opacity="1.00" d=" M 44.03 26.00 C 45.35 26.00 46.67 26.00 48.00 26.00 C 47.99 28.67 48.00 31.34 48.01 34.01 C 45.34 34.00 42.67 33.99 40.00 34.00 C 40.00 32.67 40.00 31.35 40.00 30.03 C 41.32 30.02 42.65 30.00 43.99 29.98 C 44.00 28.65 44.02 27.32 44.03 26.00 Z" />
<path fill="#000000" opacity="1.00" d=" M 24.00 50.00 C 28.00 50.00 32.00 50.00 36.00 50.00 C 36.00 51.33 36.00 52.66 36.00 54.00 C 32.00 54.00 28.00 54.00 24.00 54.00 C 24.00 52.66 24.00 51.33 24.00 50.00 Z" />
</g>
</svg>
