<?xml version="1.0" encoding="UTF-8" ?>
<!DOCTYPE svg PUBLIC "-//W3C//DTD SVG 1.1//EN" "http://www.w3.org/Graphics/SVG/1.1/DTD/svg11.dtd">
<svg width="60pt" height="60pt" viewBox="0 0 60 60" version="1.1" xmlns="http://www.w3.org/2000/svg">
<g id="#ffffffff">
<path fill="#ffffff" opacity="1.00" d=" M 0.00 0.00 L 60.00 0.00 L 60.00 60.00 L 0.00 60.00 L 0.00 0.00 M 37.78 8.00 C 38.09 9.45 38.40 10.90 38.72 12.35 C 37.06 12.19 35.40 12.03 33.74 11.87 C 34.11 13.53 34.49 15.18 34.87 16.83 C 33.16 16.46 31.45 16.11 29.74 15.75 C 30.12 17.47 30.51 19.19 30.91 20.91 C 29.19 20.51 27.47 20.12 25.75 19.74 C 26.11 21.45 26.48 23.16 26.86 24.87 C 25.15 24.49 23.45 24.11 21.75 23.75 C 22.11 25.45 22.49 27.15 22.86 28.85 C 21.13 28.48 19.40 28.11 17.66 27.75 C 18.18 29.51 18.71 31.27 19.24 33.03 C 17.16 32.36 15.07 31.69 12.98 31.02 C 13.60 34.23 14.20 37.45 14.78 40.67 C 13.19 40.35 11.60 40.03 10.01 39.72 C 9.94 41.67 9.86 43.62 9.78 45.58 C 8.76 44.66 7.71 43.77 6.64 42.91 C 6.44 45.72 6.04 51.35 5.84 54.16 C 8.65 53.96 14.28 53.55 17.09 53.35 C 16.25 52.30 15.38 51.28 14.48 50.29 C 16.43 50.18 18.37 50.08 20.32 49.99 C 19.92 48.33 19.51 46.67 19.10 45.01 C 22.36 45.69 25.63 46.36 28.90 47.01 C 28.33 44.97 27.77 42.92 27.21 40.87 C 28.88 41.36 30.56 41.85 32.25 42.32 C 31.87 40.57 31.48 38.82 31.09 37.08 C 32.82 37.48 34.54 37.88 36.26 38.27 C 35.88 36.54 35.49 34.82 35.10 33.10 C 36.82 33.49 38.54 33.88 40.27 34.27 C 39.88 32.54 39.49 30.81 39.09 29.09 C 40.81 29.49 42.53 29.88 44.25 30.27 C 43.89 28.55 43.53 26.84 43.17 25.14 C 44.83 25.51 46.49 25.88 48.16 26.25 C 47.95 24.61 47.73 22.96 47.52 21.32 C 49.01 21.61 50.51 21.89 52.01 22.17 C 52.02 17.45 52.00 12.73 52.00 8.01 C 47.26 7.98 42.52 7.99 37.78 8.00 M 5.86 27.80 C 6.13 30.85 6.41 33.90 6.70 36.95 C 8.93 35.13 11.04 33.15 12.98 31.02 C 13.69 30.19 14.37 29.36 15.04 28.51 C 11.98 28.24 8.92 28.01 5.86 27.80 M 28.90 47.01 C 26.79 49.03 24.84 51.20 23.12 53.56 C 26.12 53.79 29.14 54.00 32.15 54.18 C 31.85 51.09 31.55 48.01 31.23 44.93 C 30.44 45.61 29.66 46.30 28.90 47.01 Z" />
<path fill="#ffffff" opacity="1.00" d=" M 38.72 12.35 C 41.84 12.17 44.95 12.03 48.08 11.89 C 47.91 15.03 47.71 18.17 47.52 21.32 C 46.03 22.55 44.57 23.81 43.17 25.14 C 41.78 26.42 40.43 27.75 39.09 29.09 C 37.75 30.41 36.42 31.75 35.10 33.10 C 33.76 34.42 32.43 35.75 31.09 37.08 C 29.80 38.34 28.49 39.60 27.21 40.87 C 24.43 42.09 21.48 43.08 19.10 45.01 C 17.41 46.64 15.95 48.47 14.48 50.29 C 12.93 48.70 11.36 47.13 9.78 45.58 C 11.52 44.02 13.27 42.46 14.78 40.67 C 16.44 38.23 17.69 35.54 19.24 33.03 C 20.39 31.58 21.61 30.20 22.86 28.85 C 24.18 27.50 25.52 26.19 26.86 24.87 C 28.21 23.56 29.57 22.24 30.91 20.91 C 32.26 19.58 33.59 18.22 34.87 16.83 C 36.21 15.39 37.48 13.88 38.72 12.35 M 40.00 16.00 C 40.00 17.33 40.00 18.67 40.00 20.00 C 41.33 20.00 42.67 20.00 44.00 20.00 C 44.00 18.67 44.00 17.33 44.00 16.00 C 42.67 16.00 41.33 16.00 40.00 16.00 M 36.00 20.00 C 36.00 21.33 36.00 22.67 36.00 24.00 C 37.33 24.00 38.67 24.00 40.00 24.00 C 40.00 22.67 40.00 21.33 40.00 20.00 C 38.67 20.00 37.33 20.00 36.00 20.00 M 32.00 24.00 C 32.00 25.33 32.00 26.67 32.00 28.00 C 33.33 28.00 34.67 28.00 36.00 28.00 C 36.00 26.67 36.00 25.33 36.00 24.00 C 34.67 24.00 33.33 24.00 32.00 24.00 M 28.00 28.00 C 28.00 29.33 28.00 30.67 28.00 32.00 C 29.33 32.00 30.67 32.00 32.00 32.00 C 32.00 30.67 32.00 29.33 32.00 28.00 C 30.67 28.00 29.33 28.00 28.00 28.00 M 24.00 32.00 C 24.00 33.33 24.00 34.67 24.00 36.00 C 25.33 36.00 26.67 36.00 28.00 36.00 C 28.00 34.67 28.00 33.33 28.00 32.00 C 26.67 32.00 25.33 32.00 24.00 32.00 Z" />
</g>
<g id="#000000ff">
<path fill="#000000" opacity="1.00" d=" M 37.78 8.00 C 42.52 7.99 47.26 7.98 52.00 8.01 C 52.00 12.73 52.02 17.45 52.01 22.17 C 50.51 21.89 49.01 21.61 47.52 21.32 C 47.71 18.17 47.91 15.03 48.08 11.89 C 44.95 12.03 41.84 12.17 38.72 12.35 C 38.40 10.90 38.09 9.45 37.78 8.00 Z" />
<path fill="#000000" opacity="1.00" d=" M 33.74 11.87 C 35.40 12.03 37.06 12.19 38.72 12.35 C 37.48 13.88 36.21 15.39 34.87 16.83 C 34.49 15.18 34.11 13.53 33.74 11.87 Z" />
<path fill="#000000" opacity="1.00" d=" M 29.74 15.75 C 31.45 16.11 33.16 16.46 34.87 16.83 C 33.59 18.22 32.26 19.58 30.91 20.91 C 30.51 19.19 30.12 17.47 29.74 15.75 Z" />
<path fill="#000000" opacity="1.00" d=" M 40.00 16.00 C 41.33 16.00 42.67 16.00 44.00 16.00 C 44.00 17.33 44.00 18.67 44.00 20.00 C 42.67 20.00 41.33 20.00 40.00 20.00 C 40.00 18.67 40.00 17.33 40.00 16.00 Z" />
<path fill="#000000" opacity="1.00" d=" M 25.75 19.74 C 27.47 20.12 29.19 20.51 30.91 20.91 C 29.57 22.24 28.21 23.56 26.86 24.87 C 26.48 23.16 26.11 21.45 25.75 19.74 Z" />
<path fill="#000000" opacity="1.00" d=" M 36.00 20.00 C 37.33 20.00 38.67 20.00 40.00 20.00 C 40.00 21.33 40.00 22.67 40.00 24.00 C 38.67 24.00 37.33 24.00 36.00 24.00 C 36.00 22.67 36.00 21.33 36.00 20.00 Z" />
<path fill="#000000" opacity="1.00" d=" M 43.17 25.14 C 44.57 23.81 46.03 22.55 47.52 21.32 C 47.73 22.96 47.95 24.61 48.16 26.25 C 46.49 25.88 44.83 25.51 43.17 25.14 Z" />
<path fill="#000000" opacity="1.00" d=" M 21.75 23.75 C 23.45 24.11 25.15 24.49 26.86 24.87 C 25.52 26.19 24.18 27.50 22.86 28.85 C 22.49 27.15 22.11 25.45 21.75 23.75 Z" />
<path fill="#000000" opacity="1.00" d=" M 32.00 24.00 C 33.33 24.00 34.67 24.00 36.00 24.00 C 36.00 25.33 36.00 26.67 36.00 28.00 C 34.67 28.00 33.33 28.00 32.00 28.00 C 32.00 26.67 32.00 25.33 32.00 24.00 Z" />
<path fill="#000000" opacity="1.00" d=" M 39.09 29.09 C 40.43 27.75 41.78 26.42 43.17 25.14 C 43.53 26.84 43.89 28.55 44.25 30.27 C 42.53 29.88 40.81 29.49 39.09 29.09 Z" />
<path fill="#000000" opacity="1.00" d=" M 5.86 27.80 C 8.92 28.01 11.98 28.24 15.04 28.51 C 14.37 29.36 13.69 30.19 12.98 31.02 C 11.04 33.15 8.93 35.13 6.70 36.95 C 6.41 33.90 6.13 30.85 5.86 27.80 Z" />
<path fill="#000000" opacity="1.00" d=" M 17.66 27.75 C 19.40 28.11 21.13 28.48 22.86 28.85 C 21.61 30.20 20.39 31.58 19.24 33.03 C 18.71 31.27 18.18 29.51 17.66 27.75 Z" />
<path fill="#000000" opacity="1.00" d=" M 28.00 28.00 C 29.33 28.00 30.67 28.00 32.00 28.00 C 32.00 29.33 32.00 30.67 32.00 32.00 C 30.67 32.00 29.33 32.00 28.00 32.00 C 28.00 30.67 28.00 29.33 28.00 28.00 Z" />
<path fill="#000000" opacity="1.00" d=" M 35.10 33.10 C 36.42 31.75 37.75 30.41 39.09 29.09 C 39.49 30.81 39.88 32.54 40.27 34.27 C 38.54 33.88 36.82 33.49 35.10 33.10 Z" />
<path fill="#000000" opacity="1.00" d=" M 12.98 31.02 C 15.07 31.69 17.16 32.36 19.24 33.03 C 17.69 35.54 16.44 38.23 14.78 40.67 C 14.20 37.45 13.60 34.23 12.98 31.02 Z" />
<path fill="#000000" opacity="1.00" d=" M 24.00 32.00 C 25.33 32.00 26.67 32.00 28.00 32.00 C 28.00 33.33 28.00 34.67 28.00 36.00 C 26.67 36.00 25.33 36.00 24.00 36.00 C 24.00 34.67 24.00 33.33 24.00 32.00 Z" />
<path fill="#000000" opacity="1.00" d=" M 31.09 37.08 C 32.43 35.75 33.76 34.42 35.10 33.10 C 35.49 34.82 35.88 36.54 36.26 38.27 C 34.54 37.88 32.82 37.48 31.09 37.08 Z" />
<path fill="#000000" opacity="1.00" d=" M 27.21 40.87 C 28.49 39.60 29.80 38.34 31.09 37.08 C 31.48 38.82 31.87 40.57 32.25 42.32 C 30.56 41.85 28.88 41.36 27.21 40.87 Z" />
<path fill="#000000" opacity="1.00" d=" M 10.01 39.72 C 11.60 40.03 13.19 40.35 14.78 40.67 C 13.27 42.46 11.52 44.02 9.78 45.58 C 9.86 43.62 9.94 41.67 10.01 39.72 Z" />
<path fill="#000000" opacity="1.00" d=" M 19.10 45.01 C 21.48 43.08 24.43 42.09 27.21 40.87 C 27.77 42.92 28.33 44.97 28.90 47.01 C 25.63 46.36 22.36 45.69 19.10 45.01 Z" />
<path fill="#000000" opacity="1.00" d=" M 6.64 42.91 C 7.71 43.77 8.76 44.66 9.78 45.58 C 11.36 47.13 12.93 48.70 14.48 50.29 C 15.38 51.28 16.25 52.30 17.09 53.35 C 14.28 53.55 8.65 53.96 5.84 54.16 C 6.04 51.35 6.44 45.72 6.64 42.91 Z" />
<path fill="#000000" opacity="1.00" d=" M 14.48 50.29 C 15.95 48.47 17.41 46.64 19.10 45.01 C 19.51 46.67 19.92 48.33 20.32 49.99 C 18.37 50.08 16.43 50.18 14.48 50.29 Z" />
<path fill="#000000" opacity="1.00" d=" M 28.90 47.01 C 29.66 46.30 30.44 45.61 31.23 44.93 C 31.55 48.01 31.85 51.09 32.15 54.18 C 29.14 54.00 26.12 53.79 23.12 53.56 C 24.84 51.20 26.79 49.03 28.90 47.01 Z" />
</g>
</svg>
