<?xml version="1.0" encoding="UTF-8" ?>
<!DOCTYPE svg PUBLIC "-//W3C//DTD SVG 1.1//EN" "http://www.w3.org/Graphics/SVG/1.1/DTD/svg11.dtd">
<svg width="60pt" height="60pt" viewBox="0 0 60 60" version="1.1" xmlns="http://www.w3.org/2000/svg">
<g id="#ffffffff">
<path fill="#ffffff" opacity="1.00" d=" M 0.00 0.00 L 60.00 0.00 L 60.00 60.00 L 0.00 60.00 L 0.00 0.00 M 8.37 10.34 C 6.56 11.09 5.83 13.10 6.00 14.93 C 6.03 25.29 5.94 35.64 6.04 46.00 C 5.93 48.55 8.54 50.35 10.93 50.00 C 23.95 49.97 36.98 50.06 50.00 49.96 C 52.55 50.06 54.35 47.45 54.00 45.06 C 53.97 34.71 54.06 24.35 53.96 14.00 C 54.03 11.89 52.11 9.96 50.00 10.04 C 37.65 9.92 25.29 10.06 12.94 9.98 C 11.42 10.04 9.84 9.85 8.37 10.34 Z" />
<path fill="#ffffff" opacity="1.00" d=" M 10.01 14.01 C 23.34 13.99 36.66 13.99 49.99 14.01 C 50.01 24.67 50.01 35.33 49.99 45.99 C 36.66 46.01 23.34 46.01 10.01 45.99 C 9.99 35.33 9.99 24.67 10.01 14.01 M 16.34 20.33 C 15.85 23.42 15.84 26.57 16.34 29.65 C 19.42 30.16 22.57 30.16 25.66 29.65 C 26.16 26.57 26.16 23.42 25.66 20.34 C 22.57 19.84 19.42 19.85 16.34 20.33 M 34.00 26.03 C 34.00 27.34 34.00 28.66 34.00 29.97 C 37.33 30.02 40.67 30.02 44.00 29.97 C 44.00 28.66 44.00 27.34 44.00 26.03 C 40.67 25.98 37.33 25.98 34.00 26.03 M 20.06 34.91 C 19.33 36.43 17.31 35.81 15.99 36.22 C 16.00 38.18 16.01 40.14 16.04 42.10 C 17.80 41.99 19.95 42.36 20.54 40.19 C 26.82 39.85 33.18 39.86 39.46 40.19 C 40.05 42.36 42.20 41.99 43.96 42.10 C 43.99 40.14 44.00 38.18 44.01 36.22 C 42.26 35.99 40.14 36.15 39.36 34.18 C 36.34 32.47 35.63 37.55 32.57 35.85 C 31.92 33.24 28.06 33.25 27.43 35.86 C 26.32 36.10 24.43 36.51 24.00 35.00 C 23.50 33.47 20.70 33.51 20.06 34.91 Z" />
</g>
<g id="#000000ff">
<path fill="#000000" opacity="1.00" d=" M 8.37 10.34 C 9.84 9.85 11.42 10.04 12.94 9.98 C 25.29 10.06 37.65 9.92 50.00 10.04 C 52.11 9.96 54.03 11.89 53.96 14.00 C 54.06 24.35 53.97 34.71 54.00 45.06 C 54.35 47.45 52.55 50.06 50.00 49.96 C 36.98 50.06 23.95 49.97 10.93 50.00 C 8.54 50.35 5.93 48.55 6.04 46.00 C 5.94 35.64 6.03 25.29 6.00 14.93 C 5.83 13.10 6.56 11.09 8.37 10.34 M 10.01 14.01 C 9.99 24.67 9.99 35.33 10.01 45.99 C 23.34 46.01 36.66 46.01 49.99 45.99 C 50.01 35.33 50.01 24.67 49.99 14.01 C 36.66 13.99 23.34 13.99 10.01 14.01 Z" />
<path fill="#000000" opacity="1.00" d=" M 16.34 20.33 C 19.42 19.85 22.57 19.84 25.66 20.34 C 26.16 23.42 26.16 26.57 25.66 29.65 C 22.57 30.16 19.42 30.16 16.34 29.65 C 15.84 26.57 15.85 23.42 16.34 20.33 Z" />
<path fill="#000000" opacity="1.00" d=" M 34.00 26.03 C 37.33 25.98 40.67 25.98 44.00 26.03 C 44.00 27.34 44.00 28.66 44.00 29.97 C 40.67 30.02 37.33 30.02 34.00 29.97 C 34.00 28.66 34.00 27.34 34.00 26.03 Z" />
<path fill="#000000" opacity="1.00" d=" M 20.06 34.91 C 20.70 33.51 23.50 33.47 24.00 35.00 C 24.43 36.51 26.32 36.10 27.43 35.86 C 28.06 33.25 31.92 33.24 32.57 35.85 C 35.63 37.55 36.34 32.47 39.36 34.18 C 40.14 36.15 42.26 35.99 44.01 36.22 C 44.00 38.18 43.99 40.14 43.96 42.10 C 42.20 41.99 40.05 42.36 39.46 40.19 C 33.18 39.86 26.82 39.85 20.54 40.19 C 19.95 42.36 17.80 41.99 16.04 42.10 C 16.01 40.14 16.00 38.18 15.99 36.22 C 17.31 35.81 19.33 36.43 20.06 34.91 Z" />
</g>
</svg>
