<?xml version="1.0" encoding="UTF-8" ?>
<!DOCTYPE svg PUBLIC "-//W3C//DTD SVG 1.1//EN" "http://www.w3.org/Graphics/SVG/1.1/DTD/svg11.dtd">
<svg width="60pt" height="60pt" viewBox="0 0 60 60" version="1.1" xmlns="http://www.w3.org/2000/svg">
<g id="#ffffffff">
<path fill="#ffffff" opacity="1.00" d=" M 0.00 0.00 L 60.00 0.00 L 60.00 60.00 L 0.00 60.00 L 0.00 0.00 M 40.41 11.56 C 43.08 14.25 45.76 16.93 48.46 19.59 C 51.10 15.41 53.79 11.20 55.79 6.66 C 56.67 5.29 54.55 3.32 53.23 4.26 C 48.74 6.26 44.55 8.92 40.41 11.56 M 21.56 29.99 C 18.09 30.11 14.59 29.72 11.15 30.22 C 8.64 32.36 6.30 34.73 4.14 37.22 C 4.13 37.64 4.11 38.48 4.10 38.90 C 7.50 41.67 12.69 38.55 16.48 40.79 C 14.33 42.90 12.03 44.87 10.16 47.23 C 9.44 48.89 11.14 50.54 12.78 49.82 C 15.39 48.08 16.89 44.95 19.91 43.79 C 20.02 47.18 19.92 50.58 20.06 53.98 C 19.83 55.73 22.23 56.68 23.34 55.39 C 25.59 53.32 27.85 51.23 29.77 48.85 C 30.28 45.41 29.89 41.91 30.00 38.44 C 35.32 33.22 40.56 27.92 45.83 22.66 C 43.01 19.83 40.19 17.00 37.35 14.18 C 32.09 19.45 26.80 24.69 21.56 29.99 Z" />
</g>
<g id="#000000ff">
<path fill="#000000" opacity="1.00" d=" M 40.41 11.56 C 44.55 8.92 48.74 6.26 53.23 4.26 C 54.55 3.32 56.67 5.29 55.79 6.66 C 53.79 11.20 51.10 15.41 48.46 19.59 C 45.76 16.93 43.08 14.25 40.41 11.56 Z" />
<path fill="#000000" opacity="1.00" d=" M 21.56 29.99 C 26.80 24.69 32.09 19.45 37.35 14.18 C 40.19 17.00 43.01 19.83 45.83 22.66 C 40.56 27.92 35.32 33.22 30.00 38.44 C 29.89 41.91 30.28 45.41 29.77 48.85 C 27.85 51.23 25.59 53.32 23.34 55.39 C 22.23 56.68 19.83 55.73 20.06 53.98 C 19.92 50.58 20.02 47.18 19.91 43.79 C 16.89 44.95 15.39 48.08 12.78 49.82 C 11.14 50.54 9.44 48.89 10.16 47.23 C 12.03 44.87 14.33 42.90 16.48 40.79 C 12.69 38.55 7.50 41.67 4.10 38.90 C 4.11 38.48 4.13 37.64 4.14 37.22 C 6.30 34.73 8.64 32.36 11.15 30.22 C 14.59 29.72 18.09 30.11 21.56 29.99 Z" />
</g>
</svg>
