<?xml version="1.0" encoding="UTF-8" ?>
<!DOCTYPE svg PUBLIC "-//W3C//DTD SVG 1.1//EN" "http://www.w3.org/Graphics/SVG/1.1/DTD/svg11.dtd">
<svg width="60pt" height="60pt" viewBox="0 0 60 60" version="1.1" xmlns="http://www.w3.org/2000/svg">
<g id="#ffffffff">
<path fill="#ffffff" opacity="1.00" d=" M 0.00 0.00 L 60.00 0.00 L 60.00 60.00 L 0.00 60.00 L 0.00 0.00 M 34.61 11.34 C 36.53 12.56 39.01 11.81 41.17 12.03 C 37.44 15.73 33.73 19.45 30.01 23.17 C 25.54 18.90 21.45 14.22 16.76 10.20 C 14.83 9.20 12.99 11.98 14.63 13.37 C 19.04 17.97 23.61 22.41 28.11 26.91 C 28.83 27.90 30.45 28.43 31.37 27.38 C 35.68 23.32 39.75 19.01 43.97 14.85 C 43.99 16.93 43.88 19.03 44.27 21.08 C 45.42 22.16 46.57 22.16 47.72 21.08 C 48.23 17.13 48.10 13.11 47.84 9.15 C 45.38 6.79 41.09 8.47 37.91 7.99 C 35.89 7.39 32.79 9.13 34.61 11.34 M 18.54 32.76 C 14.30 33.47 9.76 34.53 6.61 37.68 C 4.20 40.06 3.55 43.77 4.30 46.98 C 4.67 48.26 5.36 49.87 6.94 49.87 C 10.54 49.24 14.05 48.15 17.58 47.22 C 21.38 46.58 19.46 41.04 22.41 39.56 C 26.92 38.67 31.59 38.82 36.15 39.27 C 39.95 39.23 39.18 44.05 40.63 46.40 C 43.47 47.91 46.77 48.23 49.82 49.19 C 51.32 49.44 53.06 50.42 54.46 49.35 C 56.58 46.76 56.28 42.89 55.02 39.97 C 52.56 35.25 46.93 33.73 42.09 32.86 C 34.31 31.71 26.34 31.72 18.54 32.76 Z" />
</g>
<g id="#000000ff">
<path fill="#000000" opacity="1.00" d=" M 34.61 11.34 C 32.79 9.13 35.89 7.39 37.91 7.99 C 41.09 8.47 45.38 6.79 47.84 9.15 C 48.10 13.11 48.23 17.13 47.72 21.08 C 46.57 22.16 45.42 22.16 44.27 21.08 C 43.88 19.03 43.99 16.93 43.97 14.85 C 39.75 19.01 35.68 23.32 31.37 27.38 C 30.45 28.43 28.83 27.90 28.11 26.91 C 23.61 22.41 19.04 17.97 14.63 13.37 C 12.99 11.98 14.83 9.20 16.76 10.20 C 21.45 14.22 25.54 18.90 30.01 23.17 C 33.73 19.45 37.44 15.73 41.17 12.03 C 39.01 11.81 36.53 12.56 34.61 11.34 Z" />
<path fill="#000000" opacity="1.00" d=" M 18.54 32.76 C 26.34 31.72 34.31 31.71 42.09 32.86 C 46.93 33.73 52.56 35.25 55.02 39.97 C 56.28 42.89 56.58 46.76 54.46 49.35 C 53.06 50.42 51.32 49.44 49.82 49.19 C 46.77 48.23 43.47 47.91 40.63 46.40 C 39.18 44.05 39.95 39.23 36.15 39.27 C 31.59 38.82 26.92 38.67 22.41 39.56 C 19.46 41.04 21.38 46.58 17.58 47.22 C 14.05 48.15 10.54 49.24 6.94 49.87 C 5.36 49.87 4.67 48.26 4.30 46.98 C 3.55 43.77 4.20 40.06 6.61 37.68 C 9.76 34.53 14.30 33.47 18.54 32.76 Z" />
</g>
</svg>
