<?xml version="1.0" encoding="UTF-8" ?>
<!DOCTYPE svg PUBLIC "-//W3C//DTD SVG 1.1//EN" "http://www.w3.org/Graphics/SVG/1.1/DTD/svg11.dtd">
<svg width="64pt" height="64pt" viewBox="0 0 64 64" version="1.1" xmlns="http://www.w3.org/2000/svg">
<g id="#ffffffff">
<path fill="#ffffff" opacity="1.00" d=" M 0.00 0.00 L 64.00 0.00 L 64.00 64.00 L 0.00 64.00 L 0.00 0.00 M 27.83 9.75 C 22.54 13.81 21.41 20.84 22.02 27.09 C 18.89 25.73 14.89 25.70 12.39 28.33 C 9.09 31.42 9.31 37.31 12.90 40.09 C 16.50 42.96 20.35 45.51 24.00 48.31 C 23.99 51.54 24.01 54.77 24.00 58.00 C 33.33 58.00 42.67 58.00 52.00 58.00 C 52.24 53.69 51.32 49.21 52.84 45.06 C 54.65 39.89 53.82 34.31 54.00 28.95 C 54.04 23.31 54.61 16.98 50.70 12.36 C 45.58 5.22 34.39 3.83 27.83 9.75 Z" />
<path fill="#ffffff" opacity="1.00" d=" M 28.59 14.62 C 32.84 8.82 42.36 8.51 46.94 14.07 C 50.53 17.80 50.04 23.26 50.01 28.02 C 49.78 34.02 50.83 40.33 48.37 46.02 C 41.86 45.95 35.36 46.05 28.85 45.99 C 27.28 46.11 26.18 44.77 24.96 44.02 C 21.61 41.35 17.86 39.18 14.74 36.25 C 12.53 33.48 15.56 29.18 18.89 30.10 C 21.50 31.22 23.65 33.13 25.99 34.69 C 26.63 28.06 24.23 20.37 28.59 14.62 M 36.00 22.00 C 36.00 23.47 36.01 24.94 36.01 26.40 C 34.73 25.67 33.46 24.94 32.20 24.18 C 31.51 25.32 30.81 26.47 30.12 27.62 C 31.45 28.41 32.78 29.20 34.11 30.00 C 32.78 30.80 31.45 31.60 30.12 32.39 C 30.81 33.53 31.50 34.67 32.20 35.81 C 33.46 35.06 34.73 34.31 35.99 33.57 C 36.00 35.04 36.00 36.52 36.00 38.00 C 37.33 38.00 38.67 38.00 40.00 38.00 C 40.00 36.52 40.00 35.04 40.01 33.57 C 41.27 34.31 42.54 35.06 43.80 35.81 C 44.49 34.67 45.19 33.53 45.88 32.39 C 44.55 31.60 43.22 30.80 41.89 30.00 C 43.22 29.20 44.55 28.41 45.88 27.62 C 45.19 26.47 44.49 25.33 43.80 24.19 C 42.53 24.94 41.27 25.69 40.01 26.44 C 40.00 24.96 40.00 23.48 40.00 22.00 C 38.66 22.00 37.33 22.00 36.00 22.00 Z" />
<path fill="#ffffff" opacity="1.00" d=" M 28.00 50.00 C 34.67 50.00 41.33 50.00 48.00 50.00 C 48.00 51.33 48.00 52.67 48.00 54.00 C 41.33 54.00 34.67 54.00 28.00 54.00 C 28.00 52.67 28.00 51.33 28.00 50.00 Z" />
</g>
<g id="#000000ff">
<path fill="#000000" opacity="1.00" d=" M 27.83 9.75 C 34.39 3.83 45.58 5.22 50.70 12.36 C 54.61 16.98 54.04 23.31 54.00 28.95 C 53.82 34.31 54.65 39.89 52.84 45.06 C 51.32 49.21 52.24 53.69 52.00 58.00 C 42.67 58.00 33.33 58.00 24.00 58.00 C 24.01 54.77 23.99 51.54 24.00 48.31 C 20.35 45.51 16.50 42.96 12.90 40.09 C 9.31 37.31 9.09 31.42 12.39 28.33 C 14.89 25.70 18.89 25.73 22.02 27.09 C 21.41 20.84 22.54 13.81 27.83 9.75 M 28.59 14.62 C 24.23 20.37 26.63 28.06 25.99 34.69 C 23.65 33.13 21.50 31.22 18.89 30.10 C 15.56 29.18 12.53 33.48 14.74 36.25 C 17.86 39.18 21.61 41.35 24.96 44.02 C 26.18 44.77 27.28 46.11 28.85 45.99 C 35.36 46.05 41.86 45.95 48.37 46.02 C 50.83 40.33 49.78 34.02 50.01 28.02 C 50.04 23.26 50.53 17.80 46.94 14.07 C 42.36 8.51 32.84 8.82 28.59 14.62 M 28.00 50.00 C 28.00 51.33 28.00 52.67 28.00 54.00 C 34.67 54.00 41.33 54.00 48.00 54.00 C 48.00 52.67 48.00 51.33 48.00 50.00 C 41.33 50.00 34.67 50.00 28.00 50.00 Z" />
<path fill="#000000" opacity="1.00" d=" M 36.00 22.00 C 37.33 22.00 38.66 22.00 40.00 22.00 C 40.00 23.48 40.00 24.96 40.01 26.44 C 41.27 25.69 42.53 24.94 43.80 24.19 C 44.49 25.33 45.19 26.47 45.88 27.62 C 44.55 28.41 43.22 29.20 41.89 30.00 C 43.22 30.80 44.55 31.60 45.88 32.39 C 45.19 33.53 44.49 34.67 43.80 35.81 C 42.54 35.06 41.27 34.31 40.01 33.57 C 40.00 35.04 40.00 36.52 40.00 38.00 C 38.67 38.00 37.33 38.00 36.00 38.00 C 36.00 36.52 36.00 35.04 35.99 33.57 C 34.73 34.31 33.46 35.06 32.20 35.81 C 31.50 34.67 30.81 33.53 30.12 32.39 C 31.45 31.60 32.78 30.80 34.11 30.00 C 32.78 29.20 31.45 28.41 30.12 27.62 C 30.81 26.47 31.51 25.32 32.20 24.18 C 33.46 24.94 34.73 25.67 36.01 26.40 C 36.01 24.94 36.00 23.47 36.00 22.00 Z" />
</g>
</svg>
