<?xml version="1.0" encoding="UTF-8" ?>
<!DOCTYPE svg PUBLIC "-//W3C//DTD SVG 1.1//EN" "http://www.w3.org/Graphics/SVG/1.1/DTD/svg11.dtd">
<svg width="60pt" height="60pt" viewBox="0 0 60 60" version="1.1" xmlns="http://www.w3.org/2000/svg">
<g id="#ffffffff">
<path fill="#ffffff" opacity="1.00" d=" M 0.00 0.00 L 60.00 0.00 L 60.00 60.00 L 0.00 60.00 L 0.00 0.00 M 4.05 15.90 C 3.92 23.62 4.03 31.36 4.00 39.09 C 3.90 41.72 4.77 44.48 6.91 46.15 C 9.76 48.61 13.79 47.90 17.25 48.05 C 16.51 49.62 16.09 51.50 14.63 52.60 C 13.51 53.58 11.93 54.41 12.01 56.14 C 17.90 56.05 23.47 53.01 26.64 48.02 C 33.80 47.91 40.96 48.11 48.11 47.95 C 52.30 48.03 56.04 44.29 55.95 40.10 C 56.04 32.04 56.04 23.96 55.95 15.90 C 56.04 11.69 52.29 7.94 48.08 8.05 C 36.02 7.97 23.96 7.96 11.91 8.05 C 7.71 7.94 3.94 11.69 4.05 15.90 Z" />
<path fill="#ffffff" opacity="1.00" d=" M 42.38 14.37 C 46.97 11.97 50.42 19.78 45.62 21.62 C 41.02 24.01 37.58 16.23 42.38 14.37 Z" />
<path fill="#ffffff" opacity="1.00" d=" M 20.59 25.46 C 22.08 23.92 24.67 23.46 26.47 24.74 C 29.65 27.10 31.95 30.46 35.15 32.81 C 36.75 33.43 38.56 31.77 37.94 30.13 C 37.13 28.86 36.03 27.81 35.05 26.67 C 36.80 26.36 38.85 25.47 40.44 26.72 C 43.23 28.83 45.42 31.61 48.00 33.96 C 48.00 35.98 47.99 37.99 48.00 40.00 C 36.00 40.00 24.00 40.00 12.00 40.00 C 12.00 38.00 12.00 36.00 11.99 34.00 C 14.90 31.19 17.64 28.21 20.59 25.46 Z" />
</g>
<g id="#000000ff">
<path fill="#000000" opacity="1.00" d=" M 4.05 15.90 C 3.94 11.69 7.71 7.94 11.91 8.05 C 23.96 7.96 36.02 7.97 48.08 8.05 C 52.29 7.94 56.04 11.69 55.95 15.90 C 56.04 23.96 56.04 32.04 55.95 40.10 C 56.04 44.29 52.30 48.03 48.11 47.95 C 40.96 48.11 33.80 47.91 26.64 48.02 C 23.47 53.01 17.90 56.05 12.01 56.14 C 11.93 54.41 13.51 53.58 14.63 52.60 C 16.09 51.50 16.51 49.62 17.25 48.05 C 13.79 47.90 9.76 48.61 6.91 46.15 C 4.77 44.48 3.90 41.72 4.00 39.09 C 4.03 31.36 3.92 23.62 4.05 15.90 M 42.38 14.37 C 37.58 16.23 41.02 24.01 45.62 21.62 C 50.42 19.78 46.97 11.97 42.38 14.37 M 20.59 25.46 C 17.64 28.21 14.90 31.19 11.99 34.00 C 12.00 36.00 12.00 38.00 12.00 40.00 C 24.00 40.00 36.00 40.00 48.00 40.00 C 47.99 37.99 48.00 35.98 48.00 33.96 C 45.42 31.61 43.23 28.83 40.44 26.72 C 38.85 25.47 36.80 26.36 35.05 26.67 C 36.03 27.81 37.13 28.86 37.94 30.13 C 38.56 31.77 36.75 33.43 35.15 32.81 C 31.95 30.46 29.65 27.10 26.47 24.74 C 24.67 23.46 22.08 23.92 20.59 25.46 Z" />
</g>
</svg>
