<?xml version="1.0" encoding="UTF-8" ?>
<!DOCTYPE svg PUBLIC "-//W3C//DTD SVG 1.1//EN" "http://www.w3.org/Graphics/SVG/1.1/DTD/svg11.dtd">
<svg width="60pt" height="60pt" viewBox="0 0 60 60" version="1.1" xmlns="http://www.w3.org/2000/svg">
<g id="#ffffffff">
<path fill="#ffffff" opacity="1.00" d=" M 0.00 0.00 L 60.00 0.00 L 60.00 60.00 L 0.00 60.00 L 0.00 0.00 M 14.29 2.40 C 12.59 3.19 11.84 5.10 12.00 6.89 C 12.03 22.62 11.93 38.36 12.05 54.09 C 11.93 56.64 14.58 58.30 16.91 58.00 C 25.99 57.97 35.07 58.09 44.15 57.94 C 46.64 57.97 48.31 55.42 48.00 53.10 C 47.97 37.38 48.07 21.66 47.95 5.94 C 48.02 3.42 45.51 1.65 43.13 2.00 C 33.54 2.25 23.81 1.47 14.29 2.40 Z" />
<path fill="#ffffff" opacity="1.00" d=" M 26.21 4.01 C 28.07 4.01 29.92 4.01 31.78 4.01 C 31.78 4.50 31.77 5.50 31.77 5.99 C 29.92 5.99 28.08 5.99 26.23 5.99 C 26.22 5.50 26.21 4.50 26.21 4.01 Z" />
<path fill="#ffffff" opacity="1.00" d=" M 34.17 4.17 C 35.79 3.65 36.34 4.20 35.82 5.82 C 34.20 6.34 33.65 5.79 34.17 4.17 Z" />
<path fill="#ffffff" opacity="1.00" d=" M 16.00 5.99 C 17.92 6.00 19.85 6.01 21.77 6.05 C 24.81 9.03 29.30 7.80 33.11 8.01 C 35.08 8.27 36.76 7.21 38.23 6.05 C 40.15 6.01 42.08 6.00 44.00 5.99 C 44.00 21.99 44.00 38.00 44.00 54.00 C 34.67 54.00 25.33 54.00 16.00 54.00 C 16.00 38.00 16.00 21.99 16.00 5.99 M 26.44 18.67 C 21.94 20.31 19.09 25.47 20.28 30.15 C 20.98 33.52 23.72 35.82 26.35 37.76 C 28.52 39.04 28.55 41.79 29.48 43.87 C 31.89 43.95 30.92 40.00 32.56 38.70 C 36.00 36.02 40.15 32.90 39.98 28.02 C 40.24 21.30 32.66 16.02 26.44 18.67 Z" />
<path fill="#ffffff" opacity="1.00" d=" M 28.36 24.37 C 32.96 21.98 36.41 29.74 31.63 31.62 C 27.04 34.00 23.57 26.27 28.36 24.37 Z" />
</g>
<g id="#000000ff">
<path fill="#000000" opacity="1.00" d=" M 14.29 2.40 C 23.81 1.47 33.54 2.25 43.13 2.00 C 45.51 1.65 48.02 3.42 47.95 5.94 C 48.07 21.66 47.97 37.38 48.00 53.10 C 48.31 55.42 46.64 57.97 44.15 57.94 C 35.07 58.09 25.99 57.97 16.91 58.00 C 14.58 58.30 11.93 56.64 12.05 54.09 C 11.93 38.36 12.03 22.62 12.00 6.89 C 11.84 5.10 12.59 3.19 14.29 2.40 M 26.21 4.01 C 26.21 4.50 26.22 5.50 26.23 5.99 C 28.08 5.99 29.92 5.99 31.77 5.99 C 31.77 5.50 31.78 4.50 31.78 4.01 C 29.92 4.01 28.07 4.01 26.21 4.01 M 34.17 4.17 C 33.65 5.79 34.20 6.34 35.82 5.82 C 36.34 4.20 35.79 3.65 34.17 4.17 M 16.00 5.99 C 16.00 21.99 16.00 38.00 16.00 54.00 C 25.33 54.00 34.67 54.00 44.00 54.00 C 44.00 38.00 44.00 21.99 44.00 5.99 C 42.08 6.00 40.15 6.01 38.23 6.05 C 36.76 7.21 35.08 8.27 33.11 8.01 C 29.30 7.80 24.81 9.03 21.77 6.05 C 19.85 6.01 17.92 6.00 16.00 5.99 Z" />
<path fill="#000000" opacity="1.00" d=" M 26.44 18.67 C 32.66 16.02 40.24 21.30 39.98 28.02 C 40.15 32.90 36.00 36.02 32.56 38.70 C 30.92 40.00 31.89 43.95 29.48 43.87 C 28.55 41.79 28.52 39.04 26.35 37.76 C 23.72 35.82 20.98 33.52 20.28 30.15 C 19.09 25.47 21.94 20.31 26.44 18.67 M 28.36 24.37 C 23.57 26.27 27.04 34.00 31.63 31.62 C 36.41 29.74 32.96 21.98 28.36 24.37 Z" />
</g>
</svg>
