<?xml version="1.0" encoding="UTF-8" ?>
<!DOCTYPE svg PUBLIC "-//W3C//DTD SVG 1.1//EN" "http://www.w3.org/Graphics/SVG/1.1/DTD/svg11.dtd">
<svg width="64pt" height="64pt" viewBox="0 0 64 64" version="1.1" xmlns="http://www.w3.org/2000/svg">
<g id="#ffffffff">
<path fill="#ffffff" opacity="1.00" d=" M 0.00 0.00 L 64.00 0.00 L 64.00 12.00 C 55.31 12.05 46.62 11.90 37.93 12.05 C 35.72 12.00 33.85 13.27 32.00 14.29 C 30.16 13.27 28.29 12.00 26.10 12.05 C 17.40 11.90 8.70 12.06 0.00 12.00 L 0.00 0.00 Z" />
<path fill="#ffffff" opacity="1.00" d=" M 4.00 16.00 C 11.65 16.10 19.32 15.81 26.97 16.13 C 28.99 16.29 29.65 18.42 30.30 20.00 C 31.43 20.00 32.56 20.00 33.69 20.00 C 34.35 18.41 35.01 16.26 37.06 16.12 C 44.70 15.81 52.35 16.09 60.00 16.00 C 60.00 26.00 60.00 36.00 60.00 46.00 C 52.63 46.04 45.26 45.92 37.89 46.04 C 35.65 45.94 33.76 47.24 32.00 48.43 C 30.21 47.21 28.29 45.92 26.02 46.04 C 18.68 45.92 11.34 46.04 4.00 46.00 C 4.00 36.00 4.00 26.00 4.00 16.00 M 10.00 24.00 C 10.00 29.33 10.00 34.67 10.00 40.00 C 11.33 40.00 12.67 40.00 14.00 40.00 C 14.00 36.90 14.00 33.81 14.00 30.71 C 14.67 31.58 15.34 32.45 16.01 33.31 C 16.68 32.44 17.34 31.57 18.00 30.70 C 18.00 33.80 18.00 36.90 18.00 40.00 C 19.33 40.00 20.67 40.00 22.00 40.00 C 22.00 34.67 22.00 29.33 22.00 24.00 C 20.67 24.00 19.33 24.00 18.00 24.00 C 17.33 24.87 16.67 25.75 16.00 26.62 C 15.33 25.75 14.66 24.87 14.00 24.00 C 12.67 24.00 11.33 24.00 10.00 24.00 M 26.47 24.68 C 24.13 25.92 23.85 28.75 23.96 31.10 C 24.05 33.80 23.45 37.27 26.06 39.03 C 28.72 41.19 33.20 39.52 33.83 36.17 C 34.13 33.42 34.13 30.63 33.84 27.88 C 33.27 24.69 29.20 22.91 26.47 24.68 M 36.00 23.98 C 36.00 29.33 36.00 34.67 36.00 40.02 C 39.02 39.82 42.95 40.84 45.01 37.96 C 46.51 36.22 45.87 33.91 45.14 31.99 C 45.88 30.06 46.51 27.72 44.97 25.98 C 42.90 23.15 39.00 24.19 36.00 23.98 M 48.00 24.00 C 48.00 29.33 48.00 34.67 48.00 40.00 C 49.33 40.00 50.67 40.00 52.00 40.00 C 52.00 34.67 52.00 29.33 52.00 24.00 C 50.67 24.00 49.33 24.00 48.00 24.00 Z" />
<path fill="#ffffff" opacity="1.00" d=" M 28.15 28.50 C 28.58 28.37 29.44 28.12 29.87 28.00 C 30.03 30.65 30.03 33.31 29.89 35.96 C 29.47 35.86 28.63 35.67 28.21 35.57 C 27.85 33.23 27.88 30.84 28.15 28.50 Z" />
<path fill="#ffffff" opacity="1.00" d=" M 40.03 28.14 C 41.62 27.64 42.16 28.20 41.64 29.84 C 40.05 30.37 39.51 29.81 40.03 28.14 Z" />
<path fill="#ffffff" opacity="1.00" d=" M 40.03 34.14 C 41.63 33.64 42.16 34.20 41.64 35.84 C 40.05 36.37 39.51 35.81 40.03 34.14 Z" />
<path fill="#ffffff" opacity="1.00" d=" M 0.00 50.00 C 8.69 50.06 17.38 49.89 26.07 50.06 C 28.52 49.78 29.54 52.19 30.44 54.00 C 31.48 54.00 32.52 54.00 33.56 54.00 C 34.46 52.51 35.07 50.17 37.19 50.13 C 46.12 49.79 55.07 50.11 64.00 50.00 L 64.00 64.00 L 0.00 64.00 L 0.00 50.00 Z" />
</g>
<g id="#000000ff">
<path fill="#000000" opacity="1.00" d=" M 0.00 12.00 C 8.70 12.06 17.40 11.90 26.10 12.05 C 28.29 12.00 30.16 13.27 32.00 14.29 C 33.85 13.27 35.72 12.00 37.93 12.05 C 46.62 11.90 55.31 12.05 64.00 12.00 L 64.00 50.00 C 55.07 50.11 46.12 49.79 37.19 50.13 C 35.07 50.17 34.46 52.51 33.56 54.00 C 32.52 54.00 31.48 54.00 30.44 54.00 C 29.54 52.19 28.52 49.78 26.07 50.06 C 17.38 49.89 8.69 50.06 0.00 50.00 L 0.00 12.00 M 4.00 16.00 C 4.00 26.00 4.00 36.00 4.00 46.00 C 11.34 46.04 18.68 45.92 26.02 46.04 C 28.29 45.92 30.21 47.21 32.00 48.43 C 33.76 47.24 35.65 45.94 37.89 46.04 C 45.26 45.92 52.63 46.04 60.00 46.00 C 60.00 36.00 60.00 26.00 60.00 16.00 C 52.35 16.09 44.70 15.81 37.06 16.12 C 35.01 16.26 34.35 18.41 33.69 20.00 C 32.56 20.00 31.43 20.00 30.30 20.00 C 29.65 18.42 28.99 16.29 26.97 16.13 C 19.32 15.81 11.65 16.10 4.00 16.00 Z" />
<path fill="#000000" opacity="1.00" d=" M 10.00 24.00 C 11.33 24.00 12.67 24.00 14.00 24.00 C 14.66 24.87 15.33 25.75 16.00 26.62 C 16.67 25.75 17.33 24.87 18.00 24.00 C 19.33 24.00 20.67 24.00 22.00 24.00 C 22.00 29.33 22.00 34.67 22.00 40.00 C 20.67 40.00 19.33 40.00 18.00 40.00 C 18.00 36.90 18.00 33.80 18.00 30.70 C 17.34 31.57 16.68 32.44 16.01 33.31 C 15.34 32.45 14.67 31.58 14.00 30.71 C 14.00 33.81 14.00 36.90 14.00 40.00 C 12.67 40.00 11.33 40.00 10.00 40.00 C 10.00 34.67 10.00 29.33 10.00 24.00 Z" />
<path fill="#000000" opacity="1.00" d=" M 26.47 24.68 C 29.20 22.91 33.27 24.69 33.84 27.88 C 34.13 30.63 34.13 33.42 33.83 36.17 C 33.20 39.52 28.72 41.19 26.06 39.03 C 23.45 37.27 24.05 33.80 23.96 31.10 C 23.85 28.75 24.13 25.92 26.47 24.68 M 28.15 28.50 C 27.88 30.84 27.85 33.23 28.21 35.57 C 28.63 35.67 29.47 35.86 29.89 35.96 C 30.03 33.31 30.03 30.65 29.87 28.00 C 29.44 28.12 28.58 28.37 28.15 28.50 Z" />
<path fill="#000000" opacity="1.00" d=" M 36.00 23.98 C 39.00 24.19 42.90 23.15 44.97 25.98 C 46.51 27.72 45.88 30.06 45.14 31.99 C 45.87 33.91 46.51 36.22 45.01 37.96 C 42.95 40.84 39.02 39.82 36.00 40.02 C 36.00 34.67 36.00 29.33 36.00 23.98 M 40.03 28.14 C 39.51 29.81 40.05 30.37 41.64 29.84 C 42.16 28.20 41.62 27.64 40.03 28.14 M 40.03 34.14 C 39.51 35.81 40.05 36.37 41.64 35.84 C 42.16 34.20 41.63 33.64 40.03 34.14 Z" />
<path fill="#000000" opacity="1.00" d=" M 48.00 24.00 C 49.33 24.00 50.67 24.00 52.00 24.00 C 52.00 29.33 52.00 34.67 52.00 40.00 C 50.67 40.00 49.33 40.00 48.00 40.00 C 48.00 34.67 48.00 29.33 48.00 24.00 Z" />
</g>
</svg>
