<?xml version="1.0" encoding="UTF-8" ?>
<!DOCTYPE svg PUBLIC "-//W3C//DTD SVG 1.1//EN" "http://www.w3.org/Graphics/SVG/1.1/DTD/svg11.dtd">
<svg width="60pt" height="60pt" viewBox="0 0 60 60" version="1.1" xmlns="http://www.w3.org/2000/svg">
<g id="#ffffffff">
<path fill="#ffffff" opacity="1.00" d=" M 0.00 0.00 L 60.00 0.00 L 60.00 60.00 L 0.00 60.00 L 0.00 0.00 M 12.77 7.78 C 11.54 10.13 10.94 12.76 10.24 15.31 C 9.33 17.66 11.76 20.09 14.07 19.99 C 15.86 20.13 16.81 18.39 17.98 17.37 C 19.17 18.43 20.19 20.16 22.02 20.00 C 23.84 20.15 24.80 18.41 25.98 17.37 C 27.19 18.42 28.18 20.18 30.03 20.00 C 31.84 20.15 32.80 18.41 33.98 17.37 C 35.18 18.44 36.20 20.18 38.04 20.00 C 39.84 20.13 40.81 18.41 41.98 17.37 C 43.18 18.42 44.17 20.16 46.00 20.00 C 48.65 20.04 50.86 17.06 49.58 14.59 C 48.42 11.56 48.35 6.34 44.15 6.06 C 35.42 5.90 26.68 6.06 17.94 5.99 C 16.13 6.00 13.76 5.90 12.77 7.78 M 42.18 25.12 C 41.61 33.02 42.39 40.99 41.82 48.89 C 41.59 49.12 41.13 49.59 40.91 49.82 C 33.94 50.20 26.94 49.98 19.96 49.94 C 17.36 49.87 18.16 46.57 17.89 44.85 C 16.59 43.73 15.29 42.60 13.99 41.47 C 14.04 44.02 13.86 46.59 14.14 49.13 C 14.56 51.86 17.16 54.01 19.91 53.95 C 26.64 54.04 33.36 54.04 40.09 53.95 C 43.22 54.03 46.03 51.22 45.95 48.09 C 46.03 40.71 46.06 33.33 45.94 25.95 C 46.06 23.89 42.99 23.26 42.18 25.12 M 9.88 33.03 C 11.84 36.31 15.32 38.34 18.00 40.99 C 17.99 38.97 18.02 36.96 18.00 34.94 C 21.55 34.77 26.44 34.84 27.65 39.04 C 28.47 41.32 26.83 46.65 30.83 45.90 C 33.01 43.83 31.93 40.10 31.33 37.48 C 29.47 31.98 23.21 30.36 18.00 30.95 C 18.00 28.97 18.00 26.99 18.01 25.01 C 15.36 27.71 11.76 29.70 9.88 33.03 Z" />
</g>
<g id="#000000ff">
<path fill="#968176" opacity="1.00" d=" M 12.77 7.78 C 13.76 5.90 16.13 6.00 17.94 5.99 C 26.68 6.06 35.42 5.90 44.15 6.06 C 48.35 6.34 48.42 11.56 49.58 14.59 C 50.86 17.06 48.65 20.04 46.00 20.00 C 44.17 20.16 43.18 18.42 41.98 17.37 C 40.81 18.41 39.84 20.13 38.04 20.00 C 36.20 20.18 35.18 18.44 33.98 17.37 C 32.80 18.41 31.84 20.15 30.03 20.00 C 28.18 20.18 27.19 18.42 25.98 17.37 C 24.80 18.41 23.84 20.15 22.02 20.00 C 20.19 20.16 19.17 18.43 17.98 17.37 C 16.81 18.39 15.86 20.13 14.07 19.99 C 11.76 20.09 9.33 17.66 10.24 15.31 C 10.94 12.76 11.54 10.13 12.77 7.78 Z" />
<path fill="#968176" opacity="1.00" d=" M 42.18 25.12 C 42.99 23.26 46.06 23.89 45.94 25.95 C 46.06 33.33 46.03 40.71 45.95 48.09 C 46.03 51.22 43.22 54.03 40.09 53.95 C 33.36 54.04 26.64 54.04 19.91 53.95 C 17.16 54.01 14.56 51.86 14.14 49.13 C 13.86 46.59 14.04 44.02 13.99 41.47 C 15.29 42.60 16.59 43.73 17.89 44.85 C 18.16 46.57 17.36 49.87 19.96 49.94 C 26.94 49.98 33.94 50.20 40.91 49.82 C 41.13 49.59 41.59 49.12 41.82 48.89 C 42.39 40.99 41.61 33.02 42.18 25.12 Z" />
<path fill="#968176" opacity="1.00" d=" M 9.88 33.03 C 11.76 29.70 15.36 27.71 18.01 25.01 C 18.00 26.99 18.00 28.97 18.00 30.95 C 23.21 30.36 29.47 31.98 31.33 37.48 C 31.93 40.10 33.01 43.83 30.83 45.90 C 26.83 46.65 28.47 41.32 27.65 39.04 C 26.44 34.84 21.55 34.77 18.00 34.94 C 18.02 36.96 17.99 38.97 18.00 40.99 C 15.32 38.34 11.84 36.31 9.88 33.03 Z" />
</g>
</svg>
