<?xml version="1.0" encoding="UTF-8" ?>
<!DOCTYPE svg PUBLIC "-//W3C//DTD SVG 1.1//EN" "http://www.w3.org/Graphics/SVG/1.1/DTD/svg11.dtd">
<svg width="60pt" height="60pt" viewBox="0 0 60 60" version="1.1" xmlns="http://www.w3.org/2000/svg">
<g id="#ffffffff">
<path fill="#ffffff" opacity="1.00" d=" M 0.00 0.00 L 60.00 0.00 L 60.00 60.00 L 0.00 60.00 L 0.00 0.00 M 20.04 7.94 C 19.42 12.78 21.83 17.24 22.13 22.00 C 27.40 22.00 32.67 22.00 37.94 22.00 C 37.96 17.56 39.63 13.38 40.02 9.00 C 40.44 7.32 39.01 5.39 37.18 6.10 C 35.41 7.28 36.29 9.77 35.62 11.52 C 33.30 12.31 30.87 13.23 30.00 15.77 C 29.12 13.23 26.69 12.30 24.37 11.50 C 24.04 10.05 24.02 8.56 23.74 7.11 C 23.07 5.19 19.82 5.93 20.04 7.94 M 21.31 26.26 C 15.60 32.31 13.30 40.81 12.18 48.87 C 11.96 50.58 11.43 53.81 14.07 53.74 C 24.39 53.88 34.71 53.79 45.02 53.78 C 46.69 54.11 48.30 52.79 47.83 51.03 C 47.07 42.27 44.77 32.95 38.71 26.31 C 33.00 25.75 27.06 25.85 21.31 26.26 Z" />
</g>
<g id="#000000ff">
<path fill="#000000" opacity="1.00" d=" M 20.04 7.94 C 19.82 5.93 23.07 5.19 23.74 7.11 C 24.02 8.56 24.04 10.05 24.37 11.50 C 26.69 12.30 29.12 13.23 30.00 15.77 C 30.87 13.23 33.30 12.31 35.62 11.52 C 36.29 9.77 35.41 7.28 37.18 6.10 C 39.01 5.39 40.44 7.32 40.02 9.00 C 39.63 13.38 37.96 17.56 37.94 22.00 C 32.67 22.00 27.40 22.00 22.13 22.00 C 21.83 17.24 19.42 12.78 20.04 7.94 Z" />
<path fill="#000000" opacity="1.00" d=" M 21.31 26.26 C 27.06 25.85 33.00 25.75 38.71 26.31 C 44.77 32.95 47.07 42.27 47.83 51.03 C 48.30 52.79 46.69 54.11 45.02 53.78 C 34.71 53.79 24.39 53.88 14.07 53.74 C 11.43 53.81 11.96 50.58 12.18 48.87 C 13.30 40.81 15.60 32.31 21.31 26.26 Z" />
</g>
</svg>
