<?xml version="1.0" encoding="UTF-8" ?>
<!DOCTYPE svg PUBLIC "-//W3C//DTD SVG 1.1//EN" "http://www.w3.org/Graphics/SVG/1.1/DTD/svg11.dtd">
<svg width="60pt" height="60pt" viewBox="0 0 60 60" version="1.1" xmlns="http://www.w3.org/2000/svg">
<g id="#ffffffff">
<path fill="#ffffff" opacity="1.00" d=" M 0.00 0.00 L 60.00 0.00 L 60.00 60.00 L 0.00 60.00 L 0.00 0.00 M 23.69 12.33 C 18.36 10.70 12.79 14.59 11.96 19.97 C 7.99 20.73 4.36 23.89 4.06 28.09 C 3.41 33.14 7.80 38.07 12.90 37.96 C 23.62 38.07 34.34 37.95 45.06 38.02 C 47.54 38.05 50.19 37.87 52.23 36.29 C 56.20 33.60 57.20 27.56 54.27 23.75 C 52.87 21.64 50.45 20.65 48.11 20.00 C 48.25 14.06 44.50 8.08 38.60 6.54 C 32.97 4.73 26.84 7.52 23.69 12.33 M 15.22 42.06 C 12.99 43.37 13.50 48.84 16.79 47.91 C 18.97 46.54 18.52 41.18 15.22 42.06 M 35.11 42.08 C 33.05 43.55 33.52 48.81 36.81 47.90 C 39.01 46.47 38.47 41.06 35.11 42.08 M 25.14 46.08 C 23.32 47.41 23.31 51.68 25.97 52.05 C 29.24 51.77 28.74 44.93 25.14 46.08 M 45.17 46.07 C 43.31 47.35 43.30 51.63 45.93 52.04 C 49.22 51.85 48.76 44.96 45.17 46.07 Z" />
</g>
<g id="#000000ff">
<path fill="#000000" opacity="1.00" d=" M 23.69 12.33 C 26.84 7.52 32.97 4.73 38.60 6.54 C 44.50 8.08 48.25 14.06 48.11 20.00 C 50.45 20.65 52.87 21.64 54.27 23.75 C 57.20 27.56 56.20 33.60 52.23 36.29 C 50.19 37.87 47.54 38.05 45.06 38.02 C 34.34 37.95 23.62 38.07 12.90 37.96 C 7.80 38.07 3.41 33.14 4.06 28.09 C 4.36 23.89 7.99 20.73 11.96 19.97 C 12.79 14.59 18.36 10.70 23.69 12.33 Z" />
<path fill="#000000" opacity="1.00" d=" M 15.22 42.06 C 18.52 41.18 18.97 46.54 16.79 47.91 C 13.50 48.84 12.99 43.37 15.22 42.06 Z" />
<path fill="#000000" opacity="1.00" d=" M 35.11 42.08 C 38.47 41.06 39.01 46.47 36.81 47.90 C 33.52 48.81 33.05 43.55 35.11 42.08 Z" />
<path fill="#000000" opacity="1.00" d=" M 25.14 46.08 C 28.74 44.93 29.24 51.77 25.97 52.05 C 23.31 51.68 23.32 47.41 25.14 46.08 Z" />
<path fill="#000000" opacity="1.00" d=" M 45.17 46.07 C 48.76 44.96 49.22 51.85 45.93 52.04 C 43.30 51.63 43.31 47.35 45.17 46.07 Z" />
</g>
</svg>
