<?xml version="1.0" encoding="UTF-8" ?>
<!DOCTYPE svg PUBLIC "-//W3C//DTD SVG 1.1//EN" "http://www.w3.org/Graphics/SVG/1.1/DTD/svg11.dtd">
<svg width="60pt" height="60pt" viewBox="0 0 60 60" version="1.1" xmlns="http://www.w3.org/2000/svg">
<g id="#ffffffff">
<path fill="#ffffff" opacity="1.00" d=" M 0.00 0.00 L 60.00 0.00 L 60.00 60.00 L 0.00 60.00 L 0.00 0.00 M 29.23 4.24 C 21.46 9.71 14.01 15.66 6.32 21.26 C 5.19 22.15 3.39 23.20 4.22 24.93 C 6.67 33.80 9.27 42.63 11.77 51.49 C 12.13 52.52 12.50 54.19 13.98 53.94 C 24.68 54.04 35.39 54.06 46.08 53.93 C 48.09 53.97 48.08 51.36 48.68 50.00 C 50.91 41.07 54.24 32.32 55.89 23.30 C 48.75 17.00 40.64 11.76 33.16 5.82 C 31.97 5.18 30.71 3.44 29.23 4.24 Z" />
<path fill="#ffffff" opacity="1.00" d=" M 23.43 20.01 C 27.96 19.99 32.49 20.00 37.02 20.00 C 37.02 21.33 37.02 22.67 37.02 24.00 C 32.49 24.00 27.97 24.00 23.44 24.00 C 23.44 22.67 23.44 21.34 23.43 20.01 Z" />
<path fill="#ffffff" opacity="1.00" d=" M 23.43 25.13 C 25.28 25.82 28.39 25.50 28.23 28.24 C 31.30 28.15 35.22 28.02 36.89 31.20 C 38.07 33.95 37.80 37.19 37.25 40.07 C 34.46 46.75 21.48 45.04 22.16 37.02 C 23.58 36.97 25.01 36.95 26.43 36.92 C 26.27 40.34 31.17 40.97 32.94 38.86 C 33.46 36.88 33.89 34.17 32.38 32.53 C 29.44 31.98 26.42 32.36 23.45 32.28 C 23.44 29.89 23.44 27.51 23.43 25.13 Z" />
</g>
<g id="#000000ff">
<path fill="#000000" opacity="1.00" d=" M 29.23 4.24 C 30.71 3.44 31.97 5.18 33.16 5.82 C 40.64 11.76 48.75 17.00 55.89 23.30 C 54.24 32.32 50.91 41.07 48.68 50.00 C 48.08 51.36 48.09 53.97 46.08 53.93 C 35.39 54.06 24.68 54.04 13.98 53.94 C 12.50 54.19 12.13 52.52 11.77 51.49 C 9.27 42.63 6.67 33.80 4.22 24.93 C 3.39 23.20 5.19 22.15 6.32 21.26 C 14.01 15.66 21.46 9.71 29.23 4.24 M 23.43 20.01 C 23.44 21.34 23.44 22.67 23.44 24.00 C 27.97 24.00 32.49 24.00 37.02 24.00 C 37.02 22.67 37.02 21.33 37.02 20.00 C 32.49 20.00 27.96 19.99 23.43 20.01 M 23.43 25.13 C 23.44 27.51 23.44 29.89 23.45 32.28 C 26.42 32.36 29.44 31.98 32.38 32.53 C 33.89 34.17 33.46 36.88 32.94 38.86 C 31.17 40.97 26.27 40.34 26.43 36.92 C 25.01 36.95 23.58 36.97 22.16 37.02 C 21.48 45.04 34.46 46.75 37.25 40.07 C 37.80 37.19 38.07 33.95 36.89 31.20 C 35.22 28.02 31.30 28.15 28.23 28.24 C 28.39 25.50 25.28 25.82 23.43 25.13 Z" />
</g>
</svg>
