<?xml version="1.0" encoding="UTF-8" ?>
<!DOCTYPE svg PUBLIC "-//W3C//DTD SVG 1.1//EN" "http://www.w3.org/Graphics/SVG/1.1/DTD/svg11.dtd">
<svg width="60pt" height="60pt" viewBox="0 0 60 60" version="1.1" xmlns="http://www.w3.org/2000/svg">
<g id="#ffffffff">
<path fill="#ffffff" opacity="1.00" d=" M 0.00 0.00 L 60.00 0.00 L 60.00 60.00 L 0.00 60.00 L 0.00 0.00 M 10.30 4.30 C 9.75 9.18 10.08 14.10 10.00 19.00 C 10.19 31.23 9.61 43.49 10.30 55.70 C 19.52 56.37 28.77 55.82 38.00 56.00 C 38.00 38.67 38.00 21.33 38.00 4.00 C 28.77 4.18 19.52 3.63 10.30 4.30 M 42.01 3.95 C 41.99 21.32 41.99 38.68 42.01 56.05 C 44.26 55.81 47.02 56.61 48.80 54.80 C 50.40 53.33 49.91 50.99 50.02 49.06 C 49.88 35.09 50.19 21.10 49.87 7.14 C 49.16 3.44 44.83 3.95 42.01 3.95 Z" />
</g>
<g id="#000000ff">
<path fill="#968176" opacity="1.00" d=" M 10.30 4.30 C 19.52 3.63 28.77 4.18 38.00 4.00 C 38.00 21.33 38.00 38.67 38.00 56.00 C 28.77 55.82 19.52 56.37 10.30 55.70 C 9.61 43.49 10.19 31.23 10.00 19.00 C 10.08 14.10 9.75 9.18 10.30 4.30 Z" />
<path fill="#968176" opacity="1.00" d=" M 42.01 3.95 C 44.83 3.95 49.16 3.44 49.87 7.14 C 50.19 21.10 49.88 35.09 50.02 49.06 C 49.91 50.99 50.40 53.33 48.80 54.80 C 47.02 56.61 44.26 55.81 42.01 56.05 C 41.99 38.68 41.99 21.32 42.01 3.95 Z" />
</g>
</svg>
