<?xml version="1.0" encoding="UTF-8" ?>
<!DOCTYPE svg PUBLIC "-//W3C//DTD SVG 1.1//EN" "http://www.w3.org/Graphics/SVG/1.1/DTD/svg11.dtd">
<svg width="64pt" height="64pt" viewBox="0 0 64 64" version="1.1" xmlns="http://www.w3.org/2000/svg">
<g id="#ffffffff">
<path fill="#ffffff" opacity="1.00" d=" M 0.00 0.00 L 64.00 0.00 L 64.00 64.00 L 0.00 64.00 L 0.00 0.00 M 12.08 18.90 C 11.52 23.01 13.67 26.87 16.60 29.58 C 10.25 32.46 6.09 39.04 5.90 45.98 C 7.23 45.99 8.56 46.00 9.89 46.00 C 10.26 42.88 11.02 39.66 13.15 37.23 C 16.91 32.41 24.04 30.61 29.59 33.26 C 32.05 34.44 34.84 33.93 37.46 33.93 C 35.72 32.34 33.81 30.94 31.79 29.71 C 33.97 28.35 36.03 26.81 37.86 25.02 C 38.06 27.62 38.57 30.49 40.79 32.18 C 43.68 34.79 48.24 33.19 51.11 35.85 C 53.64 37.76 54.07 41.06 54.11 44.00 C 55.43 44.00 56.76 44.00 58.09 44.00 C 58.48 39.08 56.16 34.32 51.99 31.68 C 54.31 28.55 54.82 23.95 52.21 20.83 C 49.76 17.72 45.26 17.41 41.87 19.03 C 37.53 14.23 32.45 9.31 25.83 8.14 C 19.27 6.99 12.52 12.25 12.08 18.90 M 18.00 38.00 C 18.00 44.00 18.00 50.00 18.00 56.01 C 21.62 56.09 25.26 55.76 28.86 56.19 C 29.24 56.64 29.99 57.52 30.36 57.97 C 31.50 57.99 32.64 58.01 33.78 58.03 C 34.07 57.54 34.65 56.56 34.94 56.07 C 38.63 55.97 42.31 55.99 46.00 56.00 C 46.00 50.00 46.00 44.00 46.00 38.00 C 41.34 38.36 36.26 36.94 32.00 39.39 C 27.75 36.93 22.65 38.37 18.00 38.00 Z" />
<path fill="#ffffff" opacity="1.00" d=" M 16.01 20.02 C 15.84 15.37 20.37 11.35 24.97 12.07 C 29.94 12.96 33.91 16.46 37.29 20.00 C 33.93 23.53 29.97 26.98 25.03 27.91 C 20.44 28.67 15.87 24.68 16.01 20.02 Z" />
<path fill="#ffffff" opacity="1.00" d=" M 43.55 22.69 C 46.09 20.81 50.27 22.68 49.96 26.01 C 50.15 28.64 47.46 30.65 44.97 29.91 C 41.73 29.34 41.05 24.54 43.55 22.69 Z" />
<path fill="#ffffff" opacity="1.00" d=" M 22.00 41.99 C 24.82 42.37 28.81 40.75 30.37 43.98 C 31.46 43.99 32.54 43.99 33.63 43.98 C 35.17 40.75 39.18 42.37 42.00 41.99 C 42.00 45.33 42.00 48.66 42.00 52.00 C 38.63 52.06 35.00 51.46 32.00 53.38 C 28.99 51.47 25.37 52.05 22.00 52.00 C 22.00 48.66 22.00 45.33 22.00 41.99 Z" />
</g>
<g id="#000000ff">
<path fill="#000000" opacity="1.00" d=" M 12.08 18.90 C 12.52 12.25 19.27 6.99 25.83 8.14 C 32.45 9.31 37.53 14.23 41.87 19.03 C 45.26 17.41 49.76 17.72 52.21 20.83 C 54.82 23.95 54.31 28.55 51.99 31.68 C 56.16 34.32 58.48 39.08 58.09 44.00 C 56.76 44.00 55.43 44.00 54.11 44.00 C 54.07 41.06 53.64 37.76 51.11 35.85 C 48.24 33.19 43.68 34.79 40.79 32.18 C 38.57 30.49 38.06 27.62 37.86 25.02 C 36.03 26.81 33.97 28.35 31.79 29.71 C 33.81 30.94 35.72 32.34 37.46 33.93 C 34.84 33.93 32.05 34.44 29.59 33.26 C 24.04 30.61 16.91 32.41 13.15 37.23 C 11.02 39.66 10.26 42.88 9.89 46.00 C 8.56 46.00 7.23 45.99 5.90 45.98 C 6.09 39.04 10.25 32.46 16.60 29.58 C 13.67 26.87 11.52 23.01 12.08 18.90 M 16.01 20.02 C 15.87 24.68 20.44 28.67 25.03 27.91 C 29.97 26.98 33.93 23.53 37.29 20.00 C 33.91 16.46 29.94 12.96 24.97 12.07 C 20.37 11.35 15.84 15.37 16.01 20.02 M 43.55 22.69 C 41.05 24.54 41.73 29.34 44.97 29.91 C 47.46 30.65 50.15 28.64 49.96 26.01 C 50.27 22.68 46.09 20.81 43.55 22.69 Z" />
<path fill="#000000" opacity="1.00" d=" M 18.00 38.00 C 22.65 38.37 27.75 36.93 32.00 39.39 C 36.26 36.94 41.34 38.36 46.00 38.00 C 46.00 44.00 46.00 50.00 46.00 56.00 C 42.31 55.99 38.63 55.97 34.94 56.07 C 34.65 56.56 34.07 57.54 33.78 58.03 C 32.64 58.01 31.50 57.99 30.36 57.97 C 29.99 57.52 29.24 56.64 28.86 56.19 C 25.26 55.76 21.62 56.09 18.00 56.01 C 18.00 50.00 18.00 44.00 18.00 38.00 M 22.00 41.99 C 22.00 45.33 22.00 48.66 22.00 52.00 C 25.37 52.05 28.99 51.47 32.00 53.38 C 35.00 51.46 38.63 52.06 42.00 52.00 C 42.00 48.66 42.00 45.33 42.00 41.99 C 39.18 42.37 35.17 40.75 33.63 43.98 C 32.54 43.99 31.46 43.99 30.37 43.98 C 28.81 40.75 24.82 42.37 22.00 41.99 Z" />
</g>
</svg>
