<?xml version="1.0" encoding="UTF-8" ?>
<!DOCTYPE svg PUBLIC "-//W3C//DTD SVG 1.1//EN" "http://www.w3.org/Graphics/SVG/1.1/DTD/svg11.dtd">
<svg width="64pt" height="64pt" viewBox="0 0 64 64" version="1.1" xmlns="http://www.w3.org/2000/svg">
<g id="#ffffffff">
<path fill="#ffffff" opacity="1.00" d=" M 0.00 0.00 L 64.00 0.00 L 64.00 64.00 L 0.00 64.00 L 0.00 0.00 M 15.11 10.92 C 10.99 12.79 9.13 17.78 10.42 22.02 C 6.48 22.79 4.19 26.34 3.86 30.14 C 7.31 29.72 10.79 27.97 11.74 24.35 C 14.07 27.15 17.93 28.77 21.52 27.61 C 26.37 26.31 29.33 20.52 27.40 15.85 C 25.75 11.04 19.63 8.55 15.11 10.92 M 41.09 10.92 C 36.98 12.80 35.15 17.78 36.41 22.01 C 32.48 22.78 30.19 26.34 29.86 30.14 C 33.31 29.72 36.80 27.97 37.73 24.34 C 40.06 27.13 43.88 28.76 47.47 27.63 C 52.35 26.35 55.34 20.53 53.39 15.84 C 51.74 11.03 45.61 8.55 41.09 10.92 M 8.45 34.40 C 2.43 39.97 4.26 48.71 4.00 56.00 C 5.33 56.00 6.67 56.00 8.00 56.00 C 8.50 49.77 6.24 42.18 11.24 37.25 C 15.56 32.64 23.40 33.24 27.48 37.87 C 30.11 38.31 32.58 39.32 34.66 41.00 C 36.48 36.99 40.47 33.87 45.01 34.03 C 48.28 33.93 51.17 35.68 53.47 37.84 C 55.41 38.31 57.32 38.92 59.20 39.61 C 57.31 36.05 54.64 32.69 50.77 31.18 C 44.04 28.17 35.74 31.16 32.00 37.39 C 27.33 29.20 14.95 27.46 8.45 34.40 M 19.90 47.93 C 15.34 48.40 11.92 52.05 10.04 55.99 C 11.07 55.98 13.14 55.95 14.17 55.94 C 16.49 53.95 18.71 51.01 22.22 52.42 C 24.88 51.08 23.15 47.10 26.05 46.18 C 27.86 45.44 30.12 47.06 29.95 49.02 C 30.05 53.39 21.90 50.70 23.79 56.06 C 27.05 56.18 30.98 55.99 32.83 52.84 C 35.73 48.85 32.90 42.62 28.04 42.09 C 24.19 41.37 20.83 44.37 19.90 47.93 M 45.90 47.93 C 41.33 48.40 37.95 52.06 36.01 55.97 C 37.06 55.96 39.16 55.95 40.21 55.95 C 42.46 53.91 44.69 51.10 48.15 52.37 C 48.62 51.92 49.55 51.01 50.01 50.56 C 49.75 48.52 50.56 45.92 53.05 45.99 C 56.24 45.83 57.11 51.11 53.92 51.69 C 51.52 51.60 48.72 53.32 49.79 56.06 C 53.06 56.19 57.02 55.98 58.86 52.79 C 61.69 48.83 58.91 42.67 54.10 42.10 C 50.23 41.34 46.83 44.35 45.90 47.93 Z" />
<path fill="#ffffff" opacity="1.00" d=" M 16.45 14.69 C 19.57 12.64 24.14 15.26 24.01 18.98 C 24.17 22.70 19.58 25.37 16.44 23.30 C 13.23 21.58 13.23 16.41 16.45 14.69 Z" />
<path fill="#ffffff" opacity="1.00" d=" M 42.44 14.69 C 45.58 12.62 50.19 15.29 50.01 19.03 C 50.13 22.74 45.55 25.36 42.43 23.29 C 39.23 21.57 39.24 16.42 42.44 14.69 Z" />
</g>
<g id="#000000ff">
<path fill="#000000" opacity="1.00" d=" M 15.11 10.92 C 19.63 8.55 25.75 11.04 27.40 15.85 C 29.33 20.52 26.37 26.31 21.52 27.61 C 17.93 28.77 14.07 27.15 11.74 24.35 C 10.79 27.97 7.31 29.72 3.86 30.14 C 4.19 26.34 6.48 22.79 10.42 22.02 C 9.13 17.78 10.99 12.79 15.11 10.92 M 16.45 14.69 C 13.23 16.41 13.23 21.58 16.44 23.30 C 19.58 25.37 24.17 22.70 24.01 18.98 C 24.14 15.26 19.57 12.64 16.45 14.69 Z" />
<path fill="#000000" opacity="1.00" d=" M 41.09 10.92 C 45.61 8.55 51.74 11.03 53.39 15.84 C 55.34 20.53 52.35 26.35 47.47 27.63 C 43.88 28.76 40.06 27.13 37.73 24.34 C 36.80 27.97 33.31 29.72 29.86 30.14 C 30.19 26.34 32.48 22.78 36.41 22.01 C 35.15 17.78 36.98 12.80 41.09 10.92 M 42.44 14.69 C 39.24 16.42 39.23 21.57 42.43 23.29 C 45.55 25.36 50.13 22.74 50.01 19.03 C 50.19 15.29 45.58 12.62 42.44 14.69 Z" />
<path fill="#000000" opacity="1.00" d=" M 8.45 34.40 C 14.95 27.46 27.33 29.20 32.00 37.39 C 35.74 31.16 44.04 28.17 50.77 31.18 C 54.64 32.69 57.31 36.05 59.20 39.61 C 57.32 38.92 55.41 38.31 53.47 37.84 C 51.17 35.68 48.28 33.93 45.01 34.03 C 40.47 33.87 36.48 36.99 34.66 41.00 C 32.58 39.32 30.11 38.31 27.48 37.87 C 23.40 33.24 15.56 32.64 11.24 37.25 C 6.24 42.18 8.50 49.77 8.00 56.00 C 6.67 56.00 5.33 56.00 4.00 56.00 C 4.26 48.71 2.43 39.97 8.45 34.40 Z" />
<path fill="#000000" opacity="1.00" d=" M 19.90 47.93 C 20.83 44.37 24.19 41.37 28.04 42.09 C 32.90 42.62 35.73 48.85 32.83 52.84 C 30.98 55.99 27.05 56.18 23.79 56.06 C 21.90 50.70 30.05 53.39 29.95 49.02 C 30.12 47.06 27.86 45.44 26.05 46.18 C 23.15 47.10 24.88 51.08 22.22 52.42 C 18.71 51.01 16.49 53.95 14.17 55.94 C 13.14 55.95 11.07 55.98 10.04 55.99 C 11.92 52.05 15.34 48.40 19.90 47.93 Z" />
<path fill="#000000" opacity="1.00" d=" M 45.90 47.93 C 46.83 44.35 50.23 41.34 54.10 42.10 C 58.91 42.67 61.69 48.83 58.86 52.79 C 57.02 55.98 53.06 56.19 49.79 56.06 C 48.72 53.32 51.52 51.60 53.92 51.69 C 57.11 51.11 56.24 45.83 53.05 45.99 C 50.56 45.92 49.75 48.52 50.01 50.56 C 49.55 51.01 48.62 51.92 48.15 52.37 C 44.69 51.10 42.46 53.91 40.21 55.95 C 39.16 55.95 37.06 55.96 36.01 55.97 C 37.95 52.06 41.33 48.40 45.90 47.93 Z" />
</g>
</svg>
