<?xml version="1.0" encoding="UTF-8" ?>
<!DOCTYPE svg PUBLIC "-//W3C//DTD SVG 1.1//EN" "http://www.w3.org/Graphics/SVG/1.1/DTD/svg11.dtd">
<svg width="60pt" height="60pt" viewBox="0 0 60 60" version="1.1" xmlns="http://www.w3.org/2000/svg">
<g id="#ffffffff">
<path fill="#ffffff" opacity="1.00" d=" M 0.00 0.00 L 60.00 0.00 L 60.00 60.00 L 0.00 60.00 L 0.00 0.00 M 6.03 12.07 C 6.01 15.75 9.17 18.24 10.44 21.44 C 10.99 23.83 10.91 26.32 11.52 28.70 C 12.09 30.50 14.14 30.95 15.60 31.77 C 13.57 33.03 11.39 34.45 10.55 36.81 C 8.58 42.14 12.31 48.67 17.89 49.73 C 19.74 50.01 22.31 50.53 23.57 48.71 C 25.75 45.25 27.38 41.48 28.93 37.70 C 28.90 39.73 28.87 41.76 28.89 43.79 C 32.34 43.83 30.83 40.04 31.20 37.81 C 32.63 41.58 34.27 45.30 36.44 48.71 C 37.67 50.51 40.19 50.01 42.02 49.75 C 47.66 48.76 51.42 42.15 49.44 36.80 C 48.56 34.44 46.40 32.97 44.32 31.75 C 45.85 30.98 47.96 30.49 48.49 28.62 C 49.09 26.25 49.01 23.77 49.57 21.39 C 50.86 18.25 53.90 15.78 53.98 12.19 C 53.76 9.24 50.11 9.95 48.15 10.44 C 40.71 12.62 35.13 18.95 31.63 25.63 C 31.05 24.59 30.41 23.59 29.66 22.66 C 29.40 23.45 28.87 25.04 28.61 25.84 C 24.87 19.18 19.45 12.64 11.86 10.44 C 9.92 10.00 6.37 9.20 6.03 12.07 Z" />
<path fill="#ffffff" opacity="1.00" d=" M 10.36 17.10 C 12.35 16.87 16.33 16.41 18.32 16.18 L 12.41 17.32 C 14.46 17.49 15.79 18.47 16.40 20.26 C 16.35 20.65 16.27 21.42 16.22 21.81 C 17.14 22.81 18.48 23.13 19.70 23.58 C 21.33 24.23 23.00 24.88 24.79 24.88 C 23.96 25.78 23.44 26.88 23.21 28.09 C 21.62 28.28 20.03 28.43 18.43 28.56 L 18.71 27.37 L 17.40 27.59 L 17.66 26.82 C 15.94 26.61 13.80 26.52 14.94 24.30 C 14.62 23.24 14.22 22.21 13.94 21.13 C 13.74 20.67 13.34 19.73 13.13 19.26 L 13.46 18.41 C 12.68 18.08 11.14 17.43 10.36 17.10 Z" />
<path fill="#ffffff" opacity="1.00" d=" M 41.69 16.11 C 43.67 16.37 47.63 16.88 49.61 17.14 L 47.29 18.21 C 46.69 19.20 46.05 20.16 45.37 21.09 C 45.61 21.59 46.07 22.58 46.30 23.07 C 45.12 23.04 42.78 22.98 41.61 22.96 C 42.41 22.66 44.02 22.07 44.83 21.78 C 41.32 20.12 45.39 17.41 47.59 17.34 L 41.69 16.11 Z" />
<path fill="#ffffff" opacity="1.00" d=" M 17.25 17.40 C 20.48 18.90 22.57 21.89 24.80 24.53 C 21.71 22.94 16.26 22.07 17.25 17.40 Z" />
<path fill="#ffffff" opacity="1.00" d=" M 35.19 24.54 C 37.43 21.89 39.51 18.89 42.76 17.40 C 43.73 22.07 38.28 22.94 35.19 24.54 Z" />
<path fill="#ffffff" opacity="1.00" d=" M 35.22 24.89 C 38.62 24.85 41.70 21.88 45.09 23.92 C 46.55 26.40 44.22 26.59 42.32 26.84 L 42.60 27.50 C 40.70 28.00 38.32 29.18 36.55 27.81 C 36.48 26.68 36.01 25.69 35.22 24.89 Z" />
<path fill="#ffffff" opacity="1.00" d=" M 20.93 37.25 C 21.34 36.41 21.77 35.57 22.18 34.73 C 23.24 35.91 24.33 37.07 25.24 38.37 C 23.40 41.32 22.61 46.53 18.28 46.48 C 19.10 45.41 19.93 44.36 20.78 43.32 L 17.81 42.04 C 21.68 44.93 22.75 40.51 23.77 38.20 C 22.17 39.60 20.65 41.15 18.67 42.03 C 19.38 40.41 20.12 38.81 20.93 37.25 Z" />
<path fill="#ffffff" opacity="1.00" d=" M 36.54 35.64 C 36.91 35.58 37.66 35.46 38.04 35.40 C 39.18 37.59 40.39 39.75 41.34 42.04 C 39.35 41.16 37.84 39.60 36.23 38.20 C 37.20 41.43 39.68 43.87 41.62 46.54 C 37.45 46.34 36.58 41.50 34.86 38.54 C 35.38 37.55 35.96 36.60 36.54 35.64 Z" />
<path fill="#ffffff" opacity="1.00" d=" M 13.88 42.16 C 14.32 40.24 15.06 38.40 16.18 36.77 C 17.39 36.87 18.54 37.25 19.68 37.66 C 18.16 37.99 16.97 38.67 16.11 39.71 C 16.73 39.66 17.95 39.58 18.56 39.54 C 17.51 41.19 16.03 42.77 13.88 42.16 Z" />
<path fill="#ffffff" opacity="1.00" d=" M 40.39 36.47 C 42.10 36.45 44.86 37.36 44.97 39.36 C 43.27 39.38 41.14 37.95 40.39 36.47 Z" />
<path fill="#ffffff" opacity="1.00" d=" M 42.17 39.80 C 43.33 39.56 45.75 40.37 45.55 41.81 C 44.27 42.67 42.08 41.26 42.17 39.80 Z" />
<path fill="#ffffff" opacity="1.00" d=" M 16.41 43.31 C 17.13 42.20 19.83 43.12 18.45 44.40 C 17.80 46.27 14.80 44.86 16.41 43.31 Z" />
<path fill="#ffffff" opacity="1.00" d=" M 41.27 43.22 C 42.43 42.03 44.82 43.60 43.68 45.08 C 42.66 45.95 40.83 44.33 41.27 43.22 Z" />
</g>
<g id="#000000ff">
<path fill="#000000" opacity="1.00" d=" M 6.03 12.07 C 6.37 9.20 9.92 10.00 11.86 10.44 C 19.45 12.64 24.87 19.18 28.61 25.84 C 28.87 25.04 29.40 23.45 29.66 22.66 C 30.41 23.59 31.05 24.59 31.63 25.63 C 35.13 18.95 40.71 12.62 48.15 10.44 C 50.11 9.95 53.76 9.24 53.98 12.19 C 53.90 15.78 50.86 18.25 49.57 21.39 C 49.01 23.77 49.09 26.25 48.49 28.62 C 47.96 30.49 45.85 30.98 44.32 31.75 C 46.40 32.97 48.56 34.44 49.44 36.80 C 51.42 42.15 47.66 48.76 42.02 49.75 C 40.19 50.01 37.67 50.51 36.44 48.71 C 34.27 45.30 32.63 41.58 31.20 37.81 C 30.83 40.04 32.34 43.83 28.89 43.79 C 28.87 41.76 28.90 39.73 28.93 37.70 C 27.38 41.48 25.75 45.25 23.57 48.71 C 22.31 50.53 19.74 50.01 17.89 49.73 C 12.31 48.67 8.58 42.14 10.55 36.81 C 11.39 34.45 13.57 33.03 15.60 31.77 C 14.14 30.95 12.09 30.50 11.52 28.70 C 10.91 26.32 10.99 23.83 10.44 21.44 C 9.17 18.24 6.01 15.75 6.03 12.07 M 10.36 17.10 C 11.14 17.43 12.68 18.08 13.46 18.41 L 13.13 19.26 C 13.34 19.73 13.74 20.67 13.94 21.13 C 14.22 22.21 14.62 23.24 14.94 24.30 C 13.80 26.52 15.94 26.61 17.66 26.82 L 17.40 27.59 L 18.71 27.37 L 18.43 28.56 C 20.03 28.43 21.62 28.28 23.21 28.09 C 23.44 26.88 23.96 25.78 24.79 24.88 C 23.00 24.88 21.33 24.23 19.70 23.58 C 18.48 23.13 17.14 22.81 16.22 21.81 C 16.27 21.42 16.35 20.65 16.40 20.26 C 15.79 18.47 14.46 17.49 12.41 17.32 L 18.32 16.18 C 16.33 16.41 12.35 16.87 10.36 17.10 M 41.69 16.11 L 47.59 17.34 C 45.39 17.41 41.32 20.12 44.83 21.78 C 44.02 22.07 42.41 22.66 41.61 22.96 C 42.78 22.98 45.12 23.04 46.30 23.07 C 46.07 22.58 45.61 21.59 45.37 21.09 C 46.05 20.16 46.69 19.20 47.29 18.21 L 49.61 17.14 C 47.63 16.88 43.67 16.37 41.69 16.11 M 17.25 17.40 C 16.26 22.07 21.71 22.94 24.80 24.53 C 22.57 21.89 20.48 18.90 17.25 17.40 M 35.19 24.54 C 38.28 22.94 43.73 22.07 42.76 17.40 C 39.51 18.89 37.43 21.89 35.19 24.54 M 35.22 24.89 C 36.01 25.69 36.48 26.68 36.55 27.81 C 38.32 29.18 40.70 28.00 42.60 27.50 L 42.32 26.84 C 44.22 26.59 46.55 26.40 45.09 23.92 C 41.70 21.88 38.62 24.85 35.22 24.89 M 20.93 37.25 C 20.12 38.81 19.38 40.41 18.67 42.03 C 20.65 41.15 22.17 39.60 23.77 38.20 C 22.75 40.51 21.68 44.93 17.81 42.04 L 20.78 43.32 C 19.93 44.36 19.10 45.41 18.28 46.48 C 22.61 46.53 23.40 41.32 25.24 38.37 C 24.33 37.07 23.24 35.91 22.18 34.73 C 21.77 35.57 21.34 36.41 20.93 37.25 M 36.54 35.64 C 35.96 36.60 35.38 37.55 34.86 38.54 C 36.58 41.50 37.45 46.34 41.62 46.54 C 39.68 43.87 37.20 41.43 36.23 38.20 C 37.84 39.60 39.35 41.16 41.34 42.04 C 40.39 39.75 39.18 37.59 38.04 35.40 C 37.66 35.46 36.91 35.58 36.54 35.64 M 13.88 42.16 C 16.03 42.77 17.51 41.19 18.56 39.54 C 17.95 39.58 16.73 39.66 16.11 39.71 C 16.97 38.67 18.16 37.99 19.68 37.66 C 18.54 37.25 17.39 36.87 16.18 36.77 C 15.06 38.40 14.32 40.24 13.88 42.16 M 40.39 36.47 C 41.14 37.95 43.27 39.38 44.97 39.36 C 44.86 37.36 42.10 36.45 40.39 36.47 M 42.17 39.80 C 42.08 41.26 44.27 42.67 45.55 41.81 C 45.75 40.37 43.33 39.56 42.17 39.80 M 16.41 43.31 C 14.80 44.86 17.80 46.27 18.45 44.40 C 19.83 43.12 17.13 42.20 16.41 43.31 M 41.27 43.22 C 40.83 44.33 42.66 45.95 43.68 45.08 C 44.82 43.60 42.43 42.03 41.27 43.22 Z" />
</g>
</svg>
