<?xml version="1.0" encoding="UTF-8" ?>
<!DOCTYPE svg PUBLIC "-//W3C//DTD SVG 1.1//EN" "http://www.w3.org/Graphics/SVG/1.1/DTD/svg11.dtd">
<svg width="60pt" height="60pt" viewBox="0 0 60 60" version="1.1" xmlns="http://www.w3.org/2000/svg">
<g id="#ffffffff">
<path fill="#ffffff" opacity="1.00" d=" M 0.00 0.00 L 60.00 0.00 L 60.00 60.00 L 0.00 60.00 L 0.00 0.00 M 25.37 3.94 C 23.08 4.41 19.57 2.94 18.14 5.31 C 17.98 7.64 19.37 9.80 20.00 12.00 C 26.67 12.00 33.33 12.00 40.00 12.00 C 40.64 9.80 41.99 7.66 41.86 5.32 C 40.41 2.96 36.94 4.37 34.61 3.95 C 31.98 1.45 28.01 1.53 25.37 3.94 M 20.02 15.98 C 12.83 22.81 6.19 31.69 6.04 42.02 C 5.82 47.63 9.97 53.67 15.88 53.95 C 23.92 54.11 31.97 53.92 40.01 54.02 C 42.89 54.00 46.03 54.27 48.53 52.55 C 52.98 49.85 54.59 44.18 53.81 39.26 C 52.49 30.04 46.58 22.25 40.02 15.98 C 33.36 16.02 26.69 16.01 20.02 15.98 Z" />
<path fill="#ffffff" opacity="1.00" d=" M 20.01 26.01 C 23.94 26.26 28.19 25.25 31.88 26.93 C 35.27 29.48 33.63 34.38 34.00 38.00 C 33.28 38.00 31.84 38.00 31.12 38.00 C 31.03 36.09 31.18 34.11 30.66 32.25 C 28.74 30.33 25.65 31.28 23.22 30.96 C 23.22 35.97 23.22 40.99 23.22 46.00 C 22.42 46.00 20.81 46.00 20.01 46.00 C 20.01 39.34 20.01 32.67 20.01 26.01 Z" />
<path fill="#ffffff" opacity="1.00" d=" M 36.82 26.00 C 37.62 26.00 39.21 26.00 40.01 26.00 C 39.93 31.05 40.16 36.10 39.92 41.14 C 39.93 43.12 38.71 45.10 36.73 45.60 C 33.21 46.34 29.57 45.90 26.00 45.99 C 26.01 41.99 26.01 38.00 26.01 34.00 C 26.74 34.00 28.20 34.00 28.93 34.00 C 28.94 36.34 28.93 38.69 28.93 41.04 C 31.35 40.60 35.02 41.94 36.55 39.53 C 37.15 35.05 36.68 30.51 36.82 26.00 Z" />
</g>
<g id="#000000ff">
<path fill="#000000" opacity="1.00" d=" M 25.37 3.94 C 28.01 1.53 31.98 1.45 34.61 3.95 C 36.94 4.37 40.41 2.96 41.86 5.32 C 41.99 7.66 40.64 9.80 40.00 12.00 C 33.33 12.00 26.67 12.00 20.00 12.00 C 19.37 9.80 17.98 7.64 18.14 5.31 C 19.57 2.94 23.08 4.41 25.37 3.94 Z" />
<path fill="#000000" opacity="1.00" d=" M 20.02 15.98 C 26.69 16.01 33.36 16.02 40.02 15.98 C 46.58 22.25 52.49 30.04 53.81 39.26 C 54.59 44.18 52.98 49.85 48.53 52.55 C 46.03 54.27 42.89 54.00 40.01 54.02 C 31.97 53.92 23.92 54.11 15.88 53.95 C 9.97 53.67 5.82 47.63 6.04 42.02 C 6.19 31.69 12.83 22.81 20.02 15.98 M 20.01 26.01 C 20.01 32.67 20.01 39.34 20.01 46.00 C 20.81 46.00 22.42 46.00 23.22 46.00 C 23.22 40.99 23.22 35.97 23.22 30.96 C 25.65 31.28 28.74 30.33 30.66 32.25 C 31.18 34.11 31.03 36.09 31.12 38.00 C 31.84 38.00 33.28 38.00 34.00 38.00 C 33.63 34.38 35.27 29.48 31.88 26.93 C 28.19 25.25 23.94 26.26 20.01 26.01 M 36.82 26.00 C 36.68 30.51 37.15 35.05 36.55 39.53 C 35.02 41.94 31.35 40.60 28.93 41.04 C 28.93 38.69 28.94 36.34 28.93 34.00 C 28.20 34.00 26.74 34.00 26.01 34.00 C 26.01 38.00 26.01 41.99 26.00 45.99 C 29.57 45.90 33.21 46.34 36.73 45.60 C 38.71 45.10 39.93 43.12 39.92 41.14 C 40.16 36.10 39.93 31.05 40.01 26.00 C 39.21 26.00 37.62 26.00 36.82 26.00 Z" />
</g>
</svg>
