<?xml version="1.0" encoding="UTF-8" ?>
<!DOCTYPE svg PUBLIC "-//W3C//DTD SVG 1.1//EN" "http://www.w3.org/Graphics/SVG/1.1/DTD/svg11.dtd">
<svg width="60pt" height="60pt" viewBox="0 0 60 60" version="1.1" xmlns="http://www.w3.org/2000/svg">
<g id="#ffffffff">
<path fill="#ffffff" opacity="1.00" d=" M 0.00 0.00 L 60.00 0.00 L 60.00 60.00 L 0.00 60.00 L 0.00 0.00 M 23.02 3.98 C 21.40 4.27 19.07 3.41 18.12 5.22 C 18.03 7.60 19.33 9.77 19.99 12.00 C 26.66 12.00 33.34 12.00 40.01 12.00 C 40.62 9.77 42.08 7.57 41.81 5.21 C 40.27 3.01 36.95 4.39 34.65 3.93 C 32.96 2.86 31.06 1.54 28.93 2.12 C 26.95 2.77 25.25 4.34 23.02 3.98 M 20.00 15.99 C 12.61 23.05 5.67 32.35 6.08 43.07 C 6.25 48.73 11.03 54.35 16.97 54.00 C 26.03 53.97 35.09 54.08 44.15 53.95 C 50.49 53.63 54.59 46.86 53.95 40.94 C 53.30 31.04 46.94 22.64 40.04 15.99 C 33.36 16.01 26.68 16.01 20.00 15.99 Z" />
<path fill="#ffffff" opacity="1.00" d=" M 24.80 26.81 C 27.75 23.99 32.06 23.96 35.88 24.08 C 35.92 25.22 35.95 26.37 36.00 27.52 C 32.20 27.13 27.86 27.94 26.31 31.91 C 28.87 32.01 31.44 32.01 34.00 32.01 C 34.00 32.50 34.00 33.50 34.00 33.99 C 31.29 33.99 28.58 33.98 25.88 34.15 C 26.84 37.60 31.39 35.40 34.00 36.01 C 34.00 36.50 34.00 37.49 34.00 37.98 C 31.73 37.98 29.46 38.01 27.19 38.13 C 29.61 40.35 32.88 40.65 36.01 40.48 C 35.99 41.64 35.98 42.81 35.96 43.97 C 30.80 44.45 24.74 43.24 22.44 38.01 C 21.83 38.00 20.61 37.99 20.00 37.99 C 20.00 37.49 20.00 36.50 20.00 36.01 C 20.53 36.00 21.60 35.99 22.13 35.99 C 22.10 35.49 22.04 34.50 22.02 34.01 C 21.51 34.00 20.50 33.99 20.00 33.99 C 20.00 33.58 20.00 32.75 20.00 32.34 C 23.03 32.12 22.77 28.38 24.80 26.81 Z" />
</g>
<g id="#000000ff">
<path fill="#000000" opacity="1.00" d=" M 23.02 3.98 C 25.25 4.34 26.95 2.77 28.93 2.12 C 31.06 1.54 32.96 2.86 34.65 3.93 C 36.95 4.39 40.27 3.01 41.81 5.21 C 42.08 7.57 40.62 9.77 40.01 12.00 C 33.34 12.00 26.66 12.00 19.99 12.00 C 19.33 9.77 18.03 7.60 18.12 5.22 C 19.07 3.41 21.40 4.27 23.02 3.98 Z" />
<path fill="#000000" opacity="1.00" d=" M 20.00 15.99 C 26.68 16.01 33.36 16.01 40.04 15.99 C 46.94 22.64 53.30 31.04 53.95 40.94 C 54.59 46.86 50.49 53.63 44.15 53.95 C 35.09 54.08 26.03 53.97 16.97 54.00 C 11.03 54.35 6.25 48.73 6.08 43.07 C 5.67 32.35 12.61 23.05 20.00 15.99 M 24.80 26.81 C 22.77 28.38 23.03 32.12 20.00 32.34 C 20.00 32.75 20.00 33.58 20.00 33.99 C 20.50 33.99 21.51 34.00 22.02 34.01 C 22.04 34.50 22.10 35.49 22.13 35.99 C 21.60 35.99 20.53 36.00 20.00 36.01 C 20.00 36.50 20.00 37.49 20.00 37.99 C 20.61 37.99 21.83 38.00 22.44 38.01 C 24.74 43.24 30.80 44.45 35.96 43.97 C 35.98 42.81 35.99 41.64 36.01 40.48 C 32.88 40.65 29.61 40.35 27.19 38.13 C 29.46 38.01 31.73 37.98 34.00 37.98 C 34.00 37.49 34.00 36.50 34.00 36.01 C 31.39 35.40 26.84 37.60 25.88 34.15 C 28.58 33.98 31.29 33.99 34.00 33.99 C 34.00 33.50 34.00 32.50 34.00 32.01 C 31.44 32.01 28.87 32.01 26.31 31.91 C 27.86 27.94 32.20 27.13 36.00 27.52 C 35.95 26.37 35.92 25.22 35.88 24.08 C 32.06 23.96 27.75 23.99 24.80 26.81 Z" />
</g>
</svg>
