<?xml version="1.0" encoding="UTF-8" ?>
<!DOCTYPE svg PUBLIC "-//W3C//DTD SVG 1.1//EN" "http://www.w3.org/Graphics/SVG/1.1/DTD/svg11.dtd">
<svg width="60pt" height="60pt" viewBox="0 0 60 60" version="1.1" xmlns="http://www.w3.org/2000/svg">
<g id="#ffffffff">
<path fill="#ffffff" opacity="1.00" d=" M 0.00 0.00 L 60.00 0.00 L 60.00 60.00 L 0.00 60.00 L 0.00 0.00 M 6.32 8.39 C 4.53 9.14 3.90 11.13 4.00 12.93 C 4.03 20.65 3.92 28.37 4.06 36.09 C 3.99 38.62 6.54 40.29 8.88 39.99 C 22.95 40.01 37.02 39.99 51.08 40.00 C 53.43 40.30 56.02 38.62 55.93 36.08 C 56.13 29.06 55.92 22.03 56.02 15.01 C 55.93 13.04 56.37 10.67 54.77 9.16 C 53.56 7.84 51.62 8.06 50.01 7.98 C 37.00 8.01 24.00 8.02 10.99 7.98 C 9.44 8.03 7.81 7.84 6.32 8.39 M 7.97 47.92 C 21.81 48.08 35.70 50.36 48.56 55.61 C 50.98 56.90 54.04 54.69 53.95 52.05 C 54.09 49.37 54.00 46.68 53.99 44.00 C 52.66 43.99 51.33 43.99 50.01 44.00 C 50.00 45.24 49.99 46.48 49.99 47.71 C 48.49 48.30 47.15 49.19 46.05 50.36 C 33.87 46.08 20.93 43.91 8.03 44.06 C 5.42 43.79 5.38 48.13 7.97 47.92 Z" />
<path fill="#ffffff" opacity="1.00" d=" M 12.29 12.01 C 24.10 12.00 35.91 12.00 47.72 12.00 C 48.25 14.19 49.88 15.67 52.00 16.29 C 52.00 21.43 52.00 26.57 52.00 31.71 C 49.86 32.30 48.30 33.86 47.71 36.00 C 35.90 36.00 24.10 36.00 12.29 36.00 C 11.67 33.88 10.19 32.24 8.00 31.72 C 8.00 26.57 8.00 21.43 8.00 16.29 C 10.13 15.69 11.68 14.13 12.29 12.01 M 27.37 16.52 C 21.27 18.92 20.37 27.73 24.96 32.05 C 28.34 31.98 31.71 31.97 35.09 32.05 C 37.22 29.55 38.58 26.24 37.76 22.93 C 37.03 18.33 31.94 14.58 27.37 16.52 M 13.25 22.15 C 10.76 23.05 12.42 26.95 14.83 25.86 C 17.16 24.85 15.56 21.10 13.25 22.15 M 45.25 22.16 C 42.76 22.94 44.46 27.02 46.73 25.82 C 49.24 25.06 47.56 21.02 45.25 22.16 Z" />
</g>
<g id="#000000ff">
<path fill="#000000" opacity="1.00" d=" M 6.32 8.39 C 7.81 7.84 9.44 8.03 10.99 7.98 C 24.00 8.02 37.00 8.01 50.01 7.98 C 51.62 8.06 53.56 7.84 54.77 9.16 C 56.37 10.67 55.93 13.04 56.02 15.01 C 55.92 22.03 56.13 29.06 55.93 36.08 C 56.02 38.62 53.43 40.30 51.08 40.00 C 37.02 39.99 22.95 40.01 8.88 39.99 C 6.54 40.29 3.99 38.62 4.06 36.09 C 3.92 28.37 4.03 20.65 4.00 12.93 C 3.90 11.13 4.53 9.14 6.32 8.39 M 12.29 12.01 C 11.68 14.13 10.13 15.69 8.00 16.29 C 8.00 21.43 8.00 26.57 8.00 31.72 C 10.19 32.24 11.67 33.88 12.29 36.00 C 24.10 36.00 35.90 36.00 47.71 36.00 C 48.30 33.86 49.86 32.30 52.00 31.71 C 52.00 26.57 52.00 21.43 52.00 16.29 C 49.88 15.67 48.25 14.19 47.72 12.00 C 35.91 12.00 24.10 12.00 12.29 12.01 Z" />
<path fill="#000000" opacity="1.00" d=" M 27.37 16.52 C 31.94 14.58 37.03 18.33 37.76 22.93 C 38.58 26.24 37.22 29.55 35.09 32.05 C 31.71 31.97 28.34 31.98 24.96 32.05 C 20.37 27.73 21.27 18.92 27.37 16.52 Z" />
<path fill="#000000" opacity="1.00" d=" M 13.25 22.15 C 15.56 21.10 17.16 24.85 14.83 25.86 C 12.42 26.95 10.76 23.05 13.25 22.15 Z" />
<path fill="#000000" opacity="1.00" d=" M 45.25 22.16 C 47.56 21.02 49.24 25.06 46.73 25.82 C 44.46 27.02 42.76 22.94 45.25 22.16 Z" />
<path fill="#000000" opacity="1.00" d=" M 7.97 47.92 C 5.38 48.13 5.42 43.79 8.03 44.06 C 20.93 43.91 33.87 46.08 46.05 50.36 C 47.15 49.19 48.49 48.30 49.99 47.71 C 49.99 46.48 50.00 45.24 50.01 44.00 C 51.33 43.99 52.66 43.99 53.99 44.00 C 54.00 46.68 54.09 49.37 53.95 52.05 C 54.04 54.69 50.98 56.90 48.56 55.61 C 35.70 50.36 21.81 48.08 7.97 47.92 Z" />
</g>
</svg>
