<?xml version="1.0" encoding="UTF-8" ?>
<!DOCTYPE svg PUBLIC "-//W3C//DTD SVG 1.1//EN" "http://www.w3.org/Graphics/SVG/1.1/DTD/svg11.dtd">
<svg width="60pt" height="60pt" viewBox="0 0 60 60" version="1.1" xmlns="http://www.w3.org/2000/svg">
<g id="#ffffffff">
<path fill="#ffffff" opacity="1.00" d=" M 0.00 0.00 L 60.00 0.00 L 60.00 60.00 L 0.00 60.00 L 0.00 0.00 M 12.06 6.00 C 11.90 8.63 12.03 11.26 12.01 13.90 C 9.70 15.68 7.39 17.46 5.11 19.28 C 8.78 22.07 12.35 24.99 16.00 27.81 C 16.01 22.61 15.98 17.40 16.01 12.20 C 18.17 11.75 19.76 10.18 20.20 8.01 C 26.73 7.99 33.27 7.99 39.81 8.01 C 40.17 10.22 41.84 11.74 43.99 12.20 C 44.02 17.40 43.99 22.61 44.00 27.81 C 47.63 24.96 51.26 22.11 54.90 19.27 C 52.62 17.46 50.30 15.68 47.99 13.90 C 47.46 10.76 49.26 6.54 46.81 4.15 C 36.19 3.80 25.54 4.09 14.91 4.01 C 13.64 3.81 11.87 4.41 12.06 6.00 M 29.20 14.10 C 26.85 15.14 28.39 18.85 30.78 17.89 C 33.14 16.86 31.64 13.16 29.20 14.10 M 4.00 23.48 C 4.00 31.38 3.99 39.27 4.01 47.17 C 8.43 42.76 12.84 38.32 17.27 33.91 C 12.88 30.39 8.42 26.97 4.00 23.48 M 21.99 33.05 C 24.78 34.85 27.11 38.41 30.83 37.86 C 33.72 37.18 35.66 34.68 38.02 33.04 C 38.50 28.44 34.74 23.89 30.01 24.01 C 25.27 23.86 21.47 28.43 21.99 33.05 M 42.75 33.89 C 47.14 38.34 51.58 42.72 55.99 47.14 C 56.01 39.26 56.00 31.37 55.99 23.48 C 51.57 26.94 47.17 30.43 42.75 33.89 M 4.86 51.99 C 21.63 52.00 38.40 52.01 55.18 51.99 C 49.96 46.79 44.78 41.56 39.53 36.39 C 36.54 38.47 33.94 41.93 29.99 42.01 C 25.98 41.97 23.53 38.27 20.33 36.40 C 15.27 41.69 10.00 46.78 4.86 51.99 Z" />
</g>
<g id="#000000ff">
<path fill="#000000" opacity="1.00" d=" M 12.06 6.00 C 11.87 4.41 13.64 3.81 14.91 4.01 C 25.54 4.09 36.19 3.80 46.81 4.15 C 49.26 6.54 47.46 10.76 47.99 13.90 C 50.30 15.68 52.62 17.46 54.90 19.27 C 51.26 22.11 47.63 24.96 44.00 27.81 C 43.99 22.61 44.02 17.40 43.99 12.20 C 41.84 11.74 40.17 10.22 39.81 8.01 C 33.27 7.99 26.73 7.99 20.20 8.01 C 19.76 10.18 18.17 11.75 16.01 12.20 C 15.98 17.40 16.01 22.61 16.00 27.81 C 12.35 24.99 8.78 22.07 5.11 19.28 C 7.39 17.46 9.70 15.68 12.01 13.90 C 12.03 11.26 11.90 8.63 12.06 6.00 Z" />
<path fill="#000000" opacity="1.00" d=" M 29.20 14.10 C 31.64 13.16 33.14 16.86 30.78 17.89 C 28.39 18.85 26.85 15.14 29.20 14.10 Z" />
<path fill="#000000" opacity="1.00" d=" M 4.00 23.48 C 8.42 26.97 12.88 30.39 17.27 33.91 C 12.84 38.32 8.43 42.76 4.01 47.17 C 3.99 39.27 4.00 31.38 4.00 23.48 Z" />
<path fill="#000000" opacity="1.00" d=" M 21.99 33.05 C 21.47 28.43 25.27 23.86 30.01 24.01 C 34.74 23.89 38.50 28.44 38.02 33.04 C 35.66 34.68 33.72 37.18 30.83 37.86 C 27.11 38.41 24.78 34.85 21.99 33.05 Z" />
<path fill="#000000" opacity="1.00" d=" M 42.75 33.89 C 47.17 30.43 51.57 26.94 55.99 23.48 C 56.00 31.37 56.01 39.26 55.99 47.14 C 51.58 42.72 47.14 38.34 42.75 33.89 Z" />
<path fill="#000000" opacity="1.00" d=" M 4.86 51.99 C 10.00 46.78 15.27 41.69 20.33 36.40 C 23.53 38.27 25.98 41.97 29.99 42.01 C 33.94 41.93 36.54 38.47 39.53 36.39 C 44.78 41.56 49.96 46.79 55.18 51.99 C 38.40 52.01 21.63 52.00 4.86 51.99 Z" />
</g>
</svg>
