<?xml version="1.0" encoding="UTF-8" ?>
<!DOCTYPE svg PUBLIC "-//W3C//DTD SVG 1.1//EN" "http://www.w3.org/Graphics/SVG/1.1/DTD/svg11.dtd">
<svg width="60pt" height="60pt" viewBox="0 0 60 60" version="1.1" xmlns="http://www.w3.org/2000/svg">
<g id="#ffffffff">
<path fill="#ffffff" opacity="1.00" d=" M 0.00 0.00 L 60.00 0.00 L 60.00 60.00 L 0.00 60.00 L 0.00 0.00 M 25.43 3.95 C 23.19 4.19 20.59 3.46 18.58 4.60 C 17.21 6.97 19.51 9.61 20.01 12.00 C 26.67 12.00 33.33 12.00 39.99 12.00 C 40.70 9.99 41.54 8.02 41.98 5.94 C 41.23 2.69 36.91 4.44 34.54 3.95 C 32.03 1.45 27.95 1.47 25.43 3.95 M 20.03 15.98 C 12.59 23.03 5.67 32.38 6.08 43.11 C 6.28 48.77 11.05 54.36 16.99 54.00 C 26.02 53.97 35.06 54.07 44.09 53.95 C 50.05 53.70 54.19 47.61 53.96 41.97 C 53.79 31.67 47.16 22.83 40.02 15.98 C 33.36 16.01 26.69 16.01 20.03 15.98 Z" />
<path fill="#ffffff" opacity="1.00" d=" M 26.01 25.96 C 28.88 23.44 33.11 23.83 36.61 24.44 C 36.65 25.23 36.74 26.82 36.78 27.61 C 34.36 27.51 31.49 26.65 29.42 28.39 C 28.39 29.60 29.08 31.21 29.19 32.59 C 31.12 32.59 33.05 32.59 34.99 32.61 C 34.99 33.33 34.99 34.77 34.99 35.49 C 33.48 35.45 31.97 35.43 30.45 35.44 C 30.47 37.49 29.54 39.27 28.02 40.61 C 31.21 40.49 34.41 40.53 37.60 40.54 C 37.60 41.69 37.60 42.84 37.60 44.00 C 32.53 44.00 27.46 44.00 22.40 44.00 C 22.40 43.22 22.41 41.67 22.42 40.90 C 24.84 40.14 26.80 38.21 26.58 35.49 C 25.21 35.48 23.83 35.47 22.46 35.46 C 22.46 34.74 22.46 33.31 22.47 32.59 C 23.19 32.60 24.65 32.62 25.38 32.63 C 24.80 30.44 24.09 27.71 26.01 25.96 Z" />
</g>
<g id="#000000ff">
<path fill="#000000" opacity="1.00" d=" M 25.43 3.95 C 27.95 1.47 32.03 1.45 34.54 3.95 C 36.91 4.44 41.23 2.69 41.98 5.94 C 41.54 8.02 40.70 9.99 39.99 12.00 C 33.33 12.00 26.67 12.00 20.01 12.00 C 19.51 9.61 17.21 6.97 18.58 4.60 C 20.59 3.46 23.19 4.19 25.43 3.95 Z" />
<path fill="#000000" opacity="1.00" d=" M 20.03 15.98 C 26.69 16.01 33.36 16.01 40.02 15.98 C 47.16 22.83 53.79 31.67 53.96 41.97 C 54.19 47.61 50.05 53.70 44.09 53.95 C 35.06 54.07 26.02 53.97 16.99 54.00 C 11.05 54.36 6.28 48.77 6.08 43.11 C 5.67 32.38 12.59 23.03 20.03 15.98 M 26.01 25.96 C 24.09 27.71 24.80 30.44 25.38 32.63 C 24.65 32.62 23.19 32.60 22.47 32.59 C 22.46 33.31 22.46 34.74 22.46 35.46 C 23.83 35.47 25.21 35.48 26.58 35.49 C 26.80 38.21 24.84 40.14 22.42 40.90 C 22.41 41.67 22.40 43.22 22.40 44.00 C 27.46 44.00 32.53 44.00 37.60 44.00 C 37.60 42.84 37.60 41.69 37.60 40.54 C 34.41 40.53 31.21 40.49 28.02 40.61 C 29.54 39.27 30.47 37.49 30.45 35.44 C 31.97 35.43 33.48 35.45 34.99 35.49 C 34.99 34.77 34.99 33.33 34.99 32.61 C 33.05 32.59 31.12 32.59 29.19 32.59 C 29.08 31.21 28.39 29.60 29.42 28.39 C 31.49 26.65 34.36 27.51 36.78 27.61 C 36.74 26.82 36.65 25.23 36.61 24.44 C 33.11 23.83 28.88 23.44 26.01 25.96 Z" />
</g>
</svg>
