<?xml version="1.0" encoding="UTF-8" ?>
<!DOCTYPE svg PUBLIC "-//W3C//DTD SVG 1.1//EN" "http://www.w3.org/Graphics/SVG/1.1/DTD/svg11.dtd">
<svg width="60pt" height="60pt" viewBox="0 0 60 60" version="1.1" xmlns="http://www.w3.org/2000/svg">
<g id="#ffffffff">
<path fill="#ffffff" opacity="1.00" d=" M 0.00 0.00 L 60.00 0.00 L 60.00 60.00 L 0.00 60.00 L 0.00 0.00 M 26.37 3.29 C 24.05 5.22 20.02 2.55 18.20 5.19 C 17.84 7.54 19.41 9.76 20.01 12.00 C 26.67 12.00 33.33 12.00 39.99 12.00 C 40.59 9.75 42.17 7.52 41.79 5.17 C 39.93 2.56 35.93 5.22 33.59 3.27 C 31.49 1.62 28.48 1.64 26.37 3.29 M 20.03 15.98 C 12.82 22.79 6.22 31.68 6.03 41.99 C 5.82 47.61 9.96 53.67 15.89 53.95 C 25.27 54.04 34.67 54.03 44.05 53.96 C 50.02 53.73 54.20 47.62 53.96 41.97 C 53.78 31.66 47.17 22.83 40.02 15.99 C 33.36 16.01 26.70 16.01 20.03 15.98 Z" />
<path fill="#ffffff" opacity="1.00" d=" M 20.96 24.02 C 22.06 24.00 24.26 23.96 25.35 23.94 C 26.94 26.48 28.10 29.26 29.63 31.83 C 29.81 31.84 30.18 31.86 30.36 31.88 C 31.89 29.29 33.08 26.51 34.64 23.94 C 35.74 23.96 37.95 24.00 39.06 24.02 C 36.81 28.01 34.59 32.01 32.36 35.99 C 33.27 36.00 35.09 36.00 36.00 36.01 C 36.00 36.50 36.00 37.50 36.00 38.00 C 34.67 38.00 33.33 38.00 32.00 38.00 C 32.00 38.50 32.00 39.50 32.00 40.00 C 33.33 40.00 34.67 40.00 36.00 40.00 C 36.00 40.50 36.00 41.50 36.00 42.00 C 34.67 42.00 33.34 42.00 32.01 42.00 C 32.01 42.50 31.99 43.50 31.99 44.00 C 30.66 44.00 29.34 44.00 28.01 44.00 C 28.01 43.50 27.99 42.50 27.99 42.00 C 26.66 42.00 25.33 42.00 24.00 42.00 C 24.00 41.50 24.00 40.50 24.00 40.00 C 25.33 40.00 26.67 40.00 28.00 40.00 C 28.00 39.50 28.00 38.50 28.00 38.00 C 26.67 38.00 25.33 38.00 24.00 38.00 C 24.00 37.50 24.00 36.50 24.00 36.01 C 24.91 36.00 26.73 36.00 27.64 35.99 C 25.43 32.00 23.17 28.02 20.96 24.02 Z" />
</g>
<g id="#000000ff">
<path fill="#000000" opacity="1.00" d=" M 26.37 3.29 C 28.48 1.64 31.49 1.62 33.59 3.27 C 35.93 5.22 39.93 2.56 41.79 5.17 C 42.17 7.52 40.59 9.75 39.99 12.00 C 33.33 12.00 26.67 12.00 20.01 12.00 C 19.41 9.76 17.84 7.54 18.20 5.19 C 20.02 2.55 24.05 5.22 26.37 3.29 Z" />
<path fill="#000000" opacity="1.00" d=" M 20.03 15.98 C 26.70 16.01 33.36 16.01 40.02 15.99 C 47.17 22.83 53.78 31.66 53.96 41.97 C 54.20 47.62 50.02 53.73 44.05 53.96 C 34.67 54.03 25.27 54.04 15.89 53.95 C 9.96 53.67 5.82 47.61 6.03 41.99 C 6.22 31.68 12.82 22.79 20.03 15.98 M 20.96 24.02 C 23.17 28.02 25.43 32.00 27.64 35.99 C 26.73 36.00 24.91 36.00 24.00 36.01 C 24.00 36.50 24.00 37.50 24.00 38.00 C 25.33 38.00 26.67 38.00 28.00 38.00 C 28.00 38.50 28.00 39.50 28.00 40.00 C 26.67 40.00 25.33 40.00 24.00 40.00 C 24.00 40.50 24.00 41.50 24.00 42.00 C 25.33 42.00 26.66 42.00 27.99 42.00 C 27.99 42.50 28.01 43.50 28.01 44.00 C 29.34 44.00 30.66 44.00 31.99 44.00 C 31.99 43.50 32.01 42.50 32.01 42.00 C 33.34 42.00 34.67 42.00 36.00 42.00 C 36.00 41.50 36.00 40.50 36.00 40.00 C 34.67 40.00 33.33 40.00 32.00 40.00 C 32.00 39.50 32.00 38.50 32.00 38.00 C 33.33 38.00 34.67 38.00 36.00 38.00 C 36.00 37.50 36.00 36.50 36.00 36.01 C 35.09 36.00 33.27 36.00 32.36 35.99 C 34.59 32.01 36.81 28.01 39.06 24.02 C 37.95 24.00 35.74 23.96 34.64 23.94 C 33.08 26.51 31.89 29.29 30.36 31.88 C 30.18 31.86 29.81 31.84 29.63 31.83 C 28.10 29.26 26.94 26.48 25.35 23.94 C 24.26 23.96 22.06 24.00 20.96 24.02 Z" />
</g>
</svg>
