<?xml version="1.0" encoding="UTF-8" ?>
<!DOCTYPE svg PUBLIC "-//W3C//DTD SVG 1.1//EN" "http://www.w3.org/Graphics/SVG/1.1/DTD/svg11.dtd">
<svg width="60pt" height="60pt" viewBox="0 0 60 60" version="1.1" xmlns="http://www.w3.org/2000/svg">
<g id="#ffffffff">
<path fill="#ffffff" opacity="1.00" d=" M 0.00 0.00 L 60.00 0.00 L 60.00 60.00 L 0.00 60.00 L 0.00 0.00 M 19.57 6.60 C 17.19 9.33 17.80 13.40 19.98 16.05 C 23.36 15.97 26.73 15.98 30.10 16.04 C 31.96 13.49 32.80 9.87 30.81 7.13 C 28.45 3.26 22.29 2.97 19.57 6.60 M 40.83 19.05 C 38.71 18.25 36.56 17.53 34.40 16.85 C 33.48 17.89 32.57 18.93 31.67 19.98 C 27.22 20.01 22.77 20.01 18.33 19.97 C 17.59 19.13 16.85 18.29 16.11 17.45 C 11.62 19.26 7.87 22.82 6.56 27.58 C 5.03 28.14 3.84 29.21 3.89 30.97 C 4.40 31.27 5.41 31.88 5.92 32.18 C 6.10 34.91 6.74 37.58 7.77 40.11 C 9.44 44.33 8.86 49.18 10.74 53.28 C 13.85 54.41 19.89 55.39 20.78 50.90 C 25.54 52.15 30.49 52.20 35.34 51.51 C 37.17 55.07 41.57 54.05 44.83 53.80 C 47.01 52.54 45.28 49.68 45.25 47.77 C 47.24 46.17 49.01 44.32 50.45 42.21 C 55.15 42.70 55.34 37.36 55.90 34.03 C 56.15 31.58 53.02 31.43 51.41 30.62 C 50.43 28.32 49.21 26.13 47.76 24.09 C 49.05 21.56 49.83 18.82 50.12 16.00 C 47.01 16.98 43.93 18.04 40.83 19.05 Z" />
<path fill="#ffffff" opacity="1.00" d=" M 41.37 28.49 C 42.92 27.44 45.36 28.25 45.81 30.10 C 46.71 32.24 44.22 34.73 42.08 33.81 C 39.73 33.24 39.32 29.69 41.37 28.49 Z" />
</g>
<g id="#000000ff">
<path fill="#000000" opacity="1.00" d=" M 19.57 6.60 C 22.29 2.97 28.45 3.26 30.81 7.13 C 32.80 9.87 31.96 13.49 30.10 16.04 C 26.73 15.98 23.36 15.97 19.98 16.05 C 17.80 13.40 17.19 9.33 19.57 6.60 Z" />
<path fill="#000000" opacity="1.00" d=" M 40.83 19.05 C 43.93 18.04 47.01 16.98 50.12 16.00 C 49.83 18.82 49.05 21.56 47.76 24.09 C 49.21 26.13 50.43 28.32 51.41 30.62 C 53.02 31.43 56.15 31.58 55.90 34.03 C 55.34 37.36 55.15 42.70 50.45 42.21 C 49.01 44.32 47.24 46.17 45.25 47.77 C 45.28 49.68 47.01 52.54 44.83 53.80 C 41.57 54.05 37.17 55.07 35.34 51.51 C 30.49 52.20 25.54 52.15 20.78 50.90 C 19.89 55.39 13.85 54.41 10.74 53.28 C 8.86 49.18 9.44 44.33 7.77 40.11 C 6.74 37.58 6.10 34.91 5.92 32.18 C 5.41 31.88 4.40 31.27 3.89 30.97 C 3.84 29.21 5.03 28.14 6.56 27.58 C 7.87 22.82 11.62 19.26 16.11 17.45 C 16.85 18.29 17.59 19.13 18.33 19.97 C 22.77 20.01 27.22 20.01 31.67 19.98 C 32.57 18.93 33.48 17.89 34.40 16.85 C 36.56 17.53 38.71 18.25 40.83 19.05 M 41.37 28.49 C 39.32 29.69 39.73 33.24 42.08 33.81 C 44.22 34.73 46.71 32.24 45.81 30.10 C 45.36 28.25 42.92 27.44 41.37 28.49 Z" />
</g>
</svg>
