<?xml version="1.0" encoding="UTF-8" ?>
<!DOCTYPE svg PUBLIC "-//W3C//DTD SVG 1.1//EN" "http://www.w3.org/Graphics/SVG/1.1/DTD/svg11.dtd">
<svg width="60pt" height="60pt" viewBox="0 0 60 60" version="1.1" xmlns="http://www.w3.org/2000/svg">
<g id="#ffffffff">
<path fill="#ffffff" opacity="1.00" d=" M 0.00 0.00 L 60.00 0.00 L 60.00 60.00 L 0.00 60.00 L 0.00 0.00 M 10.29 18.97 C 8.83 25.78 12.57 33.06 18.69 36.21 C 24.65 39.41 32.56 38.12 37.26 33.28 C 39.87 30.83 41.13 27.41 41.98 24.02 C 44.53 23.58 48.04 25.07 49.89 22.79 C 50.41 18.48 44.54 20.41 41.97 19.98 C 40.83 13.38 35.78 7.47 29.02 6.33 C 20.66 4.40 11.80 10.65 10.29 18.97 M 47.15 26.09 C 44.92 27.21 46.35 30.77 48.73 29.90 C 51.20 28.91 49.59 25.11 47.15 26.09 M 47.25 32.11 C 44.77 33.01 46.41 36.97 48.80 35.82 C 51.17 34.88 49.61 31.17 47.25 32.11 M 47.24 38.19 C 44.76 39.01 46.46 42.96 48.81 41.88 C 51.18 40.93 49.53 37.01 47.24 38.19 M 47.20 44.08 C 44.80 45.08 46.49 49.01 48.74 47.79 C 51.23 46.99 49.56 43.08 47.20 44.08 M 47.23 50.21 C 44.71 50.96 46.54 55.09 48.78 53.79 C 51.29 53.01 49.44 48.92 47.23 50.21 Z" />
<path fill="#ffffff" opacity="1.00" d=" M 22.39 10.58 C 29.35 8.10 37.48 13.53 37.91 20.88 C 38.84 28.05 32.07 34.83 24.90 33.91 C 17.83 33.50 12.46 25.94 14.37 19.12 C 15.32 15.12 18.48 11.79 22.39 10.58 Z" />
</g>
<g id="#000000ff">
<path fill="#000000" opacity="1.00" d=" M 10.29 18.97 C 11.80 10.65 20.66 4.40 29.02 6.33 C 35.78 7.47 40.83 13.38 41.97 19.98 C 44.54 20.41 50.41 18.48 49.89 22.79 C 48.04 25.07 44.53 23.58 41.98 24.02 C 41.13 27.41 39.87 30.83 37.26 33.28 C 32.56 38.12 24.65 39.41 18.69 36.21 C 12.57 33.06 8.83 25.78 10.29 18.97 M 22.39 10.58 C 18.48 11.79 15.32 15.12 14.37 19.12 C 12.46 25.94 17.83 33.50 24.90 33.91 C 32.07 34.83 38.84 28.05 37.91 20.88 C 37.48 13.53 29.35 8.10 22.39 10.58 Z" />
<path fill="#000000" opacity="1.00" d=" M 47.15 26.09 C 49.59 25.11 51.20 28.91 48.73 29.90 C 46.35 30.77 44.92 27.21 47.15 26.09 Z" />
<path fill="#000000" opacity="1.00" d=" M 47.25 32.11 C 49.61 31.17 51.17 34.88 48.80 35.82 C 46.41 36.97 44.77 33.01 47.25 32.11 Z" />
<path fill="#000000" opacity="1.00" d=" M 47.24 38.19 C 49.53 37.01 51.18 40.93 48.81 41.88 C 46.46 42.96 44.76 39.01 47.24 38.19 Z" />
<path fill="#000000" opacity="1.00" d=" M 47.20 44.08 C 49.56 43.08 51.23 46.99 48.74 47.79 C 46.49 49.01 44.80 45.08 47.20 44.08 Z" />
<path fill="#000000" opacity="1.00" d=" M 47.23 50.21 C 49.44 48.92 51.29 53.01 48.78 53.79 C 46.54 55.09 44.71 50.96 47.23 50.21 Z" />
</g>
</svg>
