<?xml version="1.0" encoding="UTF-8" ?>
<!DOCTYPE svg PUBLIC "-//W3C//DTD SVG 1.1//EN" "http://www.w3.org/Graphics/SVG/1.1/DTD/svg11.dtd">
<svg width="200pt" height="200pt" viewBox="0 0 200 200" version="1.1" xmlns="http://www.w3.org/2000/svg">
<g id="#ffffffff">
<path fill="#ffffff" opacity="1.00" d=" M 0.00 0.00 L 200.00 0.00 L 200.00 200.00 L 0.00 200.00 L 0.00 0.00 M 61.23 71.14 C 82.72 65.01 106.38 66.36 126.79 75.58 C 126.53 73.32 126.27 71.06 126.00 68.81 C 110.35 65.86 94.08 63.44 79.97 55.63 C 73.71 60.78 67.48 65.98 61.23 71.14 M 72.85 71.35 C 74.16 78.60 73.18 86.07 70.94 93.04 C 67.81 102.56 62.79 112.14 54.24 117.85 C 70.02 123.97 87.45 125.40 104.10 122.61 C 119.70 119.93 135.19 113.22 145.86 101.21 C 155.11 104.40 164.35 107.61 173.59 110.79 C 173.60 101.66 173.60 92.52 173.59 83.39 C 164.35 86.58 155.11 89.78 145.87 92.97 C 139.49 85.67 131.12 80.32 122.20 76.67 C 106.66 70.37 89.37 68.80 72.85 71.35 M 26.36 97.38 C 32.28 105.89 41.00 111.99 50.24 116.43 C 55.92 114.07 59.78 108.91 62.84 103.79 C 68.30 94.34 71.70 83.10 69.64 72.17 C 53.04 75.41 36.23 83.11 26.36 97.38 M 62.02 123.65 C 66.77 130.54 71.45 137.48 76.19 144.39 C 79.16 141.83 82.25 139.40 85.13 136.74 C 79.78 133.14 74.46 129.52 69.15 125.88 C 67.05 124.43 64.39 124.37 62.02 123.65 Z" />
<path fill="#ffffff" opacity="1.00" d=" M 48.43 87.54 C 50.93 86.32 54.31 88.15 54.38 91.01 C 54.89 94.29 50.87 96.84 48.11 95.03 C 45.18 93.56 45.35 88.74 48.43 87.54 Z" />
</g>
<g id="#000000ff">
<path fill="#968176" opacity="1.00" d=" M 61.23 71.14 C 67.48 65.98 73.71 60.78 79.97 55.63 C 94.08 63.44 110.35 65.86 126.00 68.81 C 126.27 71.06 126.53 73.32 126.79 75.58 C 106.38 66.36 82.72 65.01 61.23 71.14 Z" />
<path fill="#968176" opacity="1.00" d=" M 72.85 71.35 C 89.37 68.80 106.66 70.37 122.20 76.67 C 131.12 80.32 139.49 85.67 145.87 92.97 C 155.11 89.78 164.35 86.58 173.59 83.39 C 173.60 92.52 173.60 101.66 173.59 110.79 C 164.35 107.61 155.11 104.40 145.86 101.21 C 135.19 113.22 119.70 119.93 104.10 122.61 C 87.45 125.40 70.02 123.97 54.24 117.85 C 62.79 112.14 67.81 102.56 70.94 93.04 C 73.18 86.07 74.16 78.60 72.85 71.35 Z" />
<path fill="#968176" opacity="1.00" d=" M 26.36 97.38 C 36.23 83.11 53.04 75.41 69.64 72.17 C 71.70 83.10 68.30 94.34 62.84 103.79 C 59.78 108.91 55.92 114.07 50.24 116.43 C 41.00 111.99 32.28 105.89 26.36 97.38 M 48.43 87.54 C 45.35 88.74 45.18 93.56 48.11 95.03 C 50.87 96.84 54.89 94.29 54.38 91.01 C 54.31 88.15 50.93 86.32 48.43 87.54 Z" />
<path fill="#968176" opacity="1.00" d=" M 62.02 123.65 C 64.39 124.37 67.05 124.43 69.15 125.88 C 74.46 129.52 79.78 133.14 85.13 136.74 C 82.25 139.40 79.16 141.83 76.19 144.39 C 71.45 137.48 66.77 130.54 62.02 123.65 Z" />
</g>
</svg>
