<?xml version="1.0" encoding="UTF-8" ?>
<!DOCTYPE svg PUBLIC "-//W3C//DTD SVG 1.1//EN" "http://www.w3.org/Graphics/SVG/1.1/DTD/svg11.dtd">
<svg width="60pt" height="60pt" viewBox="0 0 60 60" version="1.1" xmlns="http://www.w3.org/2000/svg">
<g id="#ffffffff">
<path fill="#ffffff" opacity="1.00" d=" M 0.00 0.00 L 60.00 0.00 L 60.00 60.00 L 0.00 60.00 L 0.00 0.00 M 24.44 6.66 C 16.60 8.49 9.91 14.52 7.33 22.15 C 4.55 29.94 6.24 39.11 11.62 45.39 C 16.97 51.87 25.87 55.17 34.14 53.62 C 43.15 52.14 50.86 45.04 53.16 36.22 C 55.50 27.89 52.80 18.45 46.47 12.58 C 40.75 7.04 32.15 4.78 24.44 6.66 Z" />
<path fill="#ffffff" opacity="1.00" d=" M 11.62 22.06 C 14.85 14.60 22.83 9.51 30.98 10.06 C 38.49 10.29 45.35 15.25 48.39 22.04 C 47.59 23.35 46.80 24.67 46.01 25.99 C 44.13 22.90 42.27 19.79 40.42 16.68 C 38.93 19.10 37.47 21.55 36.00 23.99 C 33.99 20.67 32.01 17.33 30.00 14.01 C 27.99 17.33 26.01 20.67 24.00 23.99 C 22.53 21.55 21.07 19.11 19.60 16.67 C 17.72 19.77 15.88 22.89 14.00 25.99 C 13.21 24.68 12.42 23.36 11.62 22.06 Z" />
<path fill="#ffffff" opacity="1.00" d=" M 12.40 39.66 C 12.79 39.25 13.57 38.42 13.96 38.01 C 16.03 39.95 17.99 41.99 20.00 43.99 C 21.34 42.66 22.68 41.32 24.02 39.99 C 26.00 42.00 28.01 43.99 30.00 46.00 C 32.01 43.99 34.01 41.99 36.02 39.99 C 37.34 41.33 38.67 42.66 40.00 44.00 C 42.01 41.99 44.01 39.99 46.02 37.98 C 46.42 38.39 47.21 39.20 47.60 39.61 C 43.92 46.14 36.56 50.44 29.01 49.95 C 22.14 49.72 15.82 45.54 12.40 39.66 Z" />
</g>
<g id="#000000ff">
<path fill="#000000" opacity="1.00" d=" M 24.44 6.66 C 32.15 4.78 40.75 7.04 46.47 12.58 C 52.80 18.45 55.50 27.89 53.16 36.22 C 50.86 45.04 43.15 52.14 34.14 53.62 C 25.87 55.17 16.97 51.87 11.62 45.39 C 6.24 39.11 4.55 29.94 7.33 22.15 C 9.91 14.52 16.60 8.49 24.44 6.66 M 11.62 22.06 C 12.42 23.36 13.21 24.68 14.00 25.99 C 15.88 22.89 17.72 19.77 19.60 16.67 C 21.07 19.11 22.53 21.55 24.00 23.99 C 26.01 20.67 27.99 17.33 30.00 14.01 C 32.01 17.33 33.99 20.67 36.00 23.99 C 37.47 21.55 38.93 19.10 40.42 16.68 C 42.27 19.79 44.13 22.90 46.01 25.99 C 46.80 24.67 47.59 23.35 48.39 22.04 C 45.35 15.25 38.49 10.29 30.98 10.06 C 22.83 9.51 14.85 14.60 11.62 22.06 M 12.40 39.66 C 15.82 45.54 22.14 49.72 29.01 49.95 C 36.56 50.44 43.92 46.14 47.60 39.61 C 47.21 39.20 46.42 38.39 46.02 37.98 C 44.01 39.99 42.01 41.99 40.00 44.00 C 38.67 42.66 37.34 41.33 36.02 39.99 C 34.01 41.99 32.01 43.99 30.00 46.00 C 28.01 43.99 26.00 42.00 24.02 39.99 C 22.68 41.32 21.34 42.66 20.00 43.99 C 17.99 41.99 16.03 39.95 13.96 38.01 C 13.57 38.42 12.79 39.25 12.40 39.66 Z" />
</g>
</svg>
