<?xml version="1.0" encoding="UTF-8" ?>
<!DOCTYPE svg PUBLIC "-//W3C//DTD SVG 1.1//EN" "http://www.w3.org/Graphics/SVG/1.1/DTD/svg11.dtd">
<svg width="64pt" height="64pt" viewBox="0 0 64 64" version="1.1" xmlns="http://www.w3.org/2000/svg">
<g id="#ffffffff">
<path fill="#ffffff" opacity="1.00" d=" M 0.00 0.00 L 64.00 0.00 L 64.00 64.00 L 0.00 64.00 L 0.00 0.00 M 9.99 9.98 C 10.01 24.65 10.03 39.32 9.98 54.00 C 19.31 54.01 28.65 54.00 37.98 53.99 C 38.00 51.33 38.01 48.67 38.03 46.01 C 43.35 46.01 48.68 46.00 54.01 45.99 C 53.97 33.99 53.97 21.99 54.02 9.99 C 39.34 10.01 24.67 10.03 9.99 9.98 Z" />
<path fill="#ffffff" opacity="1.00" d=" M 14.00 14.00 C 15.33 14.00 16.67 14.00 18.00 14.00 C 18.00 15.33 18.00 16.67 18.00 18.00 C 16.67 18.00 15.33 18.00 14.00 18.00 C 14.00 16.67 14.00 15.33 14.00 14.00 Z" />
<path fill="#ffffff" opacity="1.00" d=" M 22.00 14.00 C 23.33 14.00 24.67 14.00 26.00 14.00 C 26.00 15.33 26.00 16.67 26.00 18.00 C 24.67 18.00 23.33 18.00 22.00 18.00 C 22.00 16.67 22.00 15.33 22.00 14.00 Z" />
<path fill="#ffffff" opacity="1.00" d=" M 30.00 14.00 C 31.33 14.00 32.67 14.00 34.00 14.00 C 34.00 15.33 34.00 16.67 34.00 18.00 C 32.67 18.00 31.33 18.00 30.00 18.00 C 30.00 16.67 30.00 15.33 30.00 14.00 Z" />
<path fill="#ffffff" opacity="1.00" d=" M 38.00 14.00 C 39.33 14.00 40.67 14.00 42.00 14.00 C 42.00 15.33 42.00 16.67 42.00 18.00 C 40.67 18.00 39.33 18.00 38.00 18.00 C 38.00 16.67 38.00 15.33 38.00 14.00 Z" />
<path fill="#ffffff" opacity="1.00" d=" M 46.00 14.00 C 47.33 14.00 48.67 14.00 50.00 14.00 C 50.00 15.33 50.00 16.67 50.00 18.00 C 48.67 18.00 47.33 18.00 46.00 18.00 C 46.00 16.67 46.00 15.33 46.00 14.00 Z" />
<path fill="#ffffff" opacity="1.00" d=" M 14.00 22.00 C 15.33 22.00 16.67 22.00 18.00 22.00 C 18.00 23.33 18.00 24.67 18.00 26.00 C 16.67 26.00 15.33 26.00 14.00 26.00 C 14.00 24.67 14.00 23.33 14.00 22.00 Z" />
<path fill="#ffffff" opacity="1.00" d=" M 22.00 22.00 C 23.33 22.00 24.67 22.00 26.00 22.00 C 26.00 23.33 26.00 24.67 26.00 26.00 C 24.67 26.00 23.33 26.00 22.00 26.00 C 22.00 24.67 22.00 23.33 22.00 22.00 Z" />
<path fill="#ffffff" opacity="1.00" d=" M 30.00 22.00 C 31.33 22.00 32.67 22.00 34.00 22.00 C 34.00 23.33 34.00 24.67 34.00 26.00 C 32.67 26.00 31.33 26.00 30.00 26.00 C 30.00 24.67 30.00 23.33 30.00 22.00 Z" />
<path fill="#ffffff" opacity="1.00" d=" M 38.00 22.00 C 39.33 22.00 40.67 22.00 42.00 22.00 C 42.00 23.33 42.00 24.67 42.00 26.00 C 40.67 26.00 39.33 26.00 38.00 26.00 C 38.00 24.67 38.00 23.33 38.00 22.00 Z" />
<path fill="#ffffff" opacity="1.00" d=" M 46.00 22.00 C 47.33 22.00 48.67 22.00 50.00 22.00 C 50.00 23.33 50.00 24.67 50.00 26.00 C 48.67 26.00 47.33 26.00 46.00 26.00 C 46.00 24.67 46.00 23.33 46.00 22.00 Z" />
<path fill="#ffffff" opacity="1.00" d=" M 14.00 30.00 C 15.33 30.00 16.67 30.00 18.00 30.00 C 18.00 31.33 18.00 32.67 18.00 34.00 C 16.67 34.00 15.33 34.00 14.00 34.00 C 14.00 32.67 14.00 31.33 14.00 30.00 Z" />
<path fill="#ffffff" opacity="1.00" d=" M 22.00 30.00 C 23.33 30.00 24.67 30.00 26.00 30.00 C 26.00 31.33 26.00 32.67 26.00 34.00 C 24.67 34.00 23.33 34.00 22.00 34.00 C 22.00 32.67 22.00 31.33 22.00 30.00 Z" />
<path fill="#ffffff" opacity="1.00" d=" M 30.00 30.00 C 31.33 30.00 32.67 30.00 34.00 30.00 C 34.00 31.33 34.00 32.67 34.00 34.00 C 32.67 34.00 31.33 34.00 30.00 34.00 C 30.00 32.67 30.00 31.33 30.00 30.00 Z" />
<path fill="#ffffff" opacity="1.00" d=" M 38.00 30.00 C 39.33 30.00 40.67 30.00 42.00 30.00 C 42.00 31.33 42.00 32.67 42.00 34.00 C 40.67 34.00 39.33 34.00 38.00 34.00 C 38.00 32.67 38.00 31.33 38.00 30.00 Z" />
<path fill="#ffffff" opacity="1.00" d=" M 46.00 30.00 C 47.33 30.00 48.67 30.00 50.00 30.00 C 50.00 31.33 50.00 32.67 50.00 34.00 C 48.67 34.00 47.33 34.00 46.00 34.00 C 46.00 32.67 46.00 31.33 46.00 30.00 Z" />
<path fill="#ffffff" opacity="1.00" d=" M 14.00 38.00 C 15.33 38.00 16.67 38.00 18.00 38.00 C 18.00 39.33 18.00 40.67 18.00 42.00 C 16.67 42.00 15.33 42.00 14.00 42.00 C 14.00 40.67 14.00 39.33 14.00 38.00 Z" />
<path fill="#ffffff" opacity="1.00" d=" M 22.00 38.00 C 23.33 38.00 24.67 38.00 26.00 38.00 C 26.00 39.33 26.00 40.67 26.00 42.00 C 24.67 42.00 23.33 42.00 22.00 42.00 C 22.00 40.67 22.00 39.33 22.00 38.00 Z" />
<path fill="#ffffff" opacity="1.00" d=" M 30.00 38.00 C 31.33 38.00 32.67 38.00 34.00 38.00 C 34.00 39.33 34.00 40.67 34.00 42.00 C 32.67 42.00 31.33 42.00 30.00 42.00 C 30.00 40.67 30.00 39.33 30.00 38.00 Z" />
<path fill="#ffffff" opacity="1.00" d=" M 38.00 38.00 C 39.33 38.00 40.67 38.00 42.00 38.00 C 42.00 39.33 42.00 40.67 42.00 42.00 C 40.67 42.00 39.33 42.00 38.00 42.00 C 38.00 40.67 38.00 39.33 38.00 38.00 Z" />
<path fill="#ffffff" opacity="1.00" d=" M 46.00 38.00 C 47.33 38.00 48.67 38.00 50.00 38.00 C 50.00 39.33 50.00 40.67 50.00 42.00 C 48.67 42.00 47.33 42.00 46.00 42.00 C 46.00 40.67 46.00 39.33 46.00 38.00 Z" />
<path fill="#ffffff" opacity="1.00" d=" M 14.00 46.00 C 15.33 46.00 16.67 46.00 18.00 46.00 C 18.00 47.33 18.00 48.67 18.00 50.00 C 16.67 50.00 15.33 50.00 14.00 50.00 C 14.00 48.67 14.00 47.33 14.00 46.00 Z" />
<path fill="#ffffff" opacity="1.00" d=" M 22.00 46.00 C 23.33 46.00 24.67 46.00 26.00 46.00 C 26.00 47.33 26.00 48.67 26.00 50.00 C 24.67 50.00 23.33 50.00 22.00 50.00 C 22.00 48.67 22.00 47.33 22.00 46.00 Z" />
<path fill="#ffffff" opacity="1.00" d=" M 30.00 46.00 C 31.33 46.00 32.67 46.00 34.00 46.00 C 34.00 47.33 34.00 48.67 34.00 50.00 C 32.67 50.00 31.33 50.00 30.00 50.00 C 30.00 48.67 30.00 47.33 30.00 46.00 Z" />
</g>
<g id="#000000ff">
<path fill="#000000" opacity="1.00" d=" M 9.99 9.98 C 24.67 10.03 39.34 10.01 54.02 9.99 C 53.97 21.99 53.97 33.99 54.01 45.99 C 48.68 46.00 43.35 46.01 38.03 46.01 C 38.01 48.67 38.00 51.33 37.98 53.99 C 28.65 54.00 19.31 54.01 9.98 54.00 C 10.03 39.32 10.01 24.65 9.99 9.98 M 14.00 14.00 C 14.00 15.33 14.00 16.67 14.00 18.00 C 15.33 18.00 16.67 18.00 18.00 18.00 C 18.00 16.67 18.00 15.33 18.00 14.00 C 16.67 14.00 15.33 14.00 14.00 14.00 M 22.00 14.00 C 22.00 15.33 22.00 16.67 22.00 18.00 C 23.33 18.00 24.67 18.00 26.00 18.00 C 26.00 16.67 26.00 15.33 26.00 14.00 C 24.67 14.00 23.33 14.00 22.00 14.00 M 30.00 14.00 C 30.00 15.33 30.00 16.67 30.00 18.00 C 31.33 18.00 32.67 18.00 34.00 18.00 C 34.00 16.67 34.00 15.33 34.00 14.00 C 32.67 14.00 31.33 14.00 30.00 14.00 M 38.00 14.00 C 38.00 15.33 38.00 16.67 38.00 18.00 C 39.33 18.00 40.67 18.00 42.00 18.00 C 42.00 16.67 42.00 15.33 42.00 14.00 C 40.67 14.00 39.33 14.00 38.00 14.00 M 46.00 14.00 C 46.00 15.33 46.00 16.67 46.00 18.00 C 47.33 18.00 48.67 18.00 50.00 18.00 C 50.00 16.67 50.00 15.33 50.00 14.00 C 48.67 14.00 47.33 14.00 46.00 14.00 M 14.00 22.00 C 14.00 23.33 14.00 24.67 14.00 26.00 C 15.33 26.00 16.67 26.00 18.00 26.00 C 18.00 24.67 18.00 23.33 18.00 22.00 C 16.67 22.00 15.33 22.00 14.00 22.00 M 22.00 22.00 C 22.00 23.33 22.00 24.67 22.00 26.00 C 23.33 26.00 24.67 26.00 26.00 26.00 C 26.00 24.67 26.00 23.33 26.00 22.00 C 24.67 22.00 23.33 22.00 22.00 22.00 M 30.00 22.00 C 30.00 23.33 30.00 24.67 30.00 26.00 C 31.33 26.00 32.67 26.00 34.00 26.00 C 34.00 24.67 34.00 23.33 34.00 22.00 C 32.67 22.00 31.33 22.00 30.00 22.00 M 38.00 22.00 C 38.00 23.33 38.00 24.67 38.00 26.00 C 39.33 26.00 40.67 26.00 42.00 26.00 C 42.00 24.67 42.00 23.33 42.00 22.00 C 40.67 22.00 39.33 22.00 38.00 22.00 M 46.00 22.00 C 46.00 23.33 46.00 24.67 46.00 26.00 C 47.33 26.00 48.67 26.00 50.00 26.00 C 50.00 24.67 50.00 23.33 50.00 22.00 C 48.67 22.00 47.33 22.00 46.00 22.00 M 14.00 30.00 C 14.00 31.33 14.00 32.67 14.00 34.00 C 15.33 34.00 16.67 34.00 18.00 34.00 C 18.00 32.67 18.00 31.33 18.00 30.00 C 16.67 30.00 15.33 30.00 14.00 30.00 M 22.00 30.00 C 22.00 31.33 22.00 32.67 22.00 34.00 C 23.33 34.00 24.67 34.00 26.00 34.00 C 26.00 32.67 26.00 31.33 26.00 30.00 C 24.67 30.00 23.33 30.00 22.00 30.00 M 30.00 30.00 C 30.00 31.33 30.00 32.67 30.00 34.00 C 31.33 34.00 32.67 34.00 34.00 34.00 C 34.00 32.67 34.00 31.33 34.00 30.00 C 32.67 30.00 31.33 30.00 30.00 30.00 M 38.00 30.00 C 38.00 31.33 38.00 32.67 38.00 34.00 C 39.33 34.00 40.67 34.00 42.00 34.00 C 42.00 32.67 42.00 31.33 42.00 30.00 C 40.67 30.00 39.33 30.00 38.00 30.00 M 46.00 30.00 C 46.00 31.33 46.00 32.67 46.00 34.00 C 47.33 34.00 48.67 34.00 50.00 34.00 C 50.00 32.67 50.00 31.33 50.00 30.00 C 48.67 30.00 47.33 30.00 46.00 30.00 M 14.00 38.00 C 14.00 39.33 14.00 40.67 14.00 42.00 C 15.33 42.00 16.67 42.00 18.00 42.00 C 18.00 40.67 18.00 39.33 18.00 38.00 C 16.67 38.00 15.33 38.00 14.00 38.00 M 22.00 38.00 C 22.00 39.33 22.00 40.67 22.00 42.00 C 23.33 42.00 24.67 42.00 26.00 42.00 C 26.00 40.67 26.00 39.33 26.00 38.00 C 24.67 38.00 23.33 38.00 22.00 38.00 M 30.00 38.00 C 30.00 39.33 30.00 40.67 30.00 42.00 C 31.33 42.00 32.67 42.00 34.00 42.00 C 34.00 40.67 34.00 39.33 34.00 38.00 C 32.67 38.00 31.33 38.00 30.00 38.00 M 38.00 38.00 C 38.00 39.33 38.00 40.67 38.00 42.00 C 39.33 42.00 40.67 42.00 42.00 42.00 C 42.00 40.67 42.00 39.33 42.00 38.00 C 40.67 38.00 39.33 38.00 38.00 38.00 M 46.00 38.00 C 46.00 39.33 46.00 40.67 46.00 42.00 C 47.33 42.00 48.67 42.00 50.00 42.00 C 50.00 40.67 50.00 39.33 50.00 38.00 C 48.67 38.00 47.33 38.00 46.00 38.00 M 14.00 46.00 C 14.00 47.33 14.00 48.67 14.00 50.00 C 15.33 50.00 16.67 50.00 18.00 50.00 C 18.00 48.67 18.00 47.33 18.00 46.00 C 16.67 46.00 15.33 46.00 14.00 46.00 M 22.00 46.00 C 22.00 47.33 22.00 48.67 22.00 50.00 C 23.33 50.00 24.67 50.00 26.00 50.00 C 26.00 48.67 26.00 47.33 26.00 46.00 C 24.67 46.00 23.33 46.00 22.00 46.00 M 30.00 46.00 C 30.00 47.33 30.00 48.67 30.00 50.00 C 31.33 50.00 32.67 50.00 34.00 50.00 C 34.00 48.67 34.00 47.33 34.00 46.00 C 32.67 46.00 31.33 46.00 30.00 46.00 Z" />
</g>
</svg>
