<?xml version="1.0" encoding="UTF-8" ?>
<!DOCTYPE svg PUBLIC "-//W3C//DTD SVG 1.1//EN" "http://www.w3.org/Graphics/SVG/1.1/DTD/svg11.dtd">
<svg width="60pt" height="60pt" viewBox="0 0 60 60" version="1.1" xmlns="http://www.w3.org/2000/svg">
<g id="#ffffffff">
<path fill="#ffffff" opacity="1.00" d=" M 0.00 0.00 L 60.00 0.00 L 60.00 60.00 L 0.00 60.00 L 0.00 0.00 M 28.18 7.13 C 27.79 10.44 28.06 13.79 28.02 17.12 C 26.52 15.96 25.36 13.67 23.17 14.04 C 21.95 14.65 21.55 16.38 22.59 17.32 C 24.71 19.60 26.86 21.89 29.28 23.86 C 29.64 23.86 30.36 23.86 30.72 23.86 C 33.36 21.48 36.41 19.15 38.07 15.97 C 37.11 12.01 33.45 15.33 31.98 17.11 C 31.95 13.80 32.20 10.47 31.83 7.18 C 31.21 5.60 28.85 5.58 28.18 7.13 M 17.01 32.85 C 16.50 34.02 16.25 35.46 14.93 36.01 C 11.45 38.00 10.89 42.38 10.02 45.93 C 8.01 46.28 4.29 45.06 3.97 48.04 C 4.08 50.12 6.41 50.03 7.92 50.01 C 22.96 49.97 38.00 50.03 53.05 49.98 C 54.43 50.18 55.96 49.54 56.07 47.97 C 55.57 45.09 52.02 46.28 49.99 45.93 C 49.05 39.07 44.74 32.65 38.32 29.83 C 31.40 26.52 22.76 27.83 17.01 32.85 Z" />
<path fill="#ffffff" opacity="1.00" d=" M 18.58 37.66 C 21.13 33.46 26.18 32.08 30.80 31.88 C 31.71 32.82 32.62 33.77 33.51 34.73 C 34.89 35.16 36.79 34.92 37.60 36.37 C 38.81 37.87 37.66 39.60 37.08 41.07 C 37.44 42.70 37.78 44.34 38.09 45.98 C 30.06 45.98 22.03 46.07 14.00 45.94 C 14.65 42.75 16.00 39.74 18.58 37.66 M 23.52 39.99 C 23.41 42.51 26.19 43.02 28.10 43.29 C 26.59 41.09 26.55 38.67 28.03 36.43 C 25.98 36.54 23.14 37.35 23.52 39.99 Z" />
</g>
<g id="#000000ff">
<path fill="#968176" opacity="1.00" d=" M 28.18 7.13 C 28.85 5.58 31.21 5.60 31.83 7.18 C 32.20 10.47 31.95 13.80 31.98 17.11 C 33.45 15.33 37.11 12.01 38.07 15.97 C 36.41 19.15 33.36 21.48 30.72 23.86 C 30.36 23.86 29.64 23.86 29.28 23.86 C 26.86 21.89 24.71 19.60 22.59 17.32 C 21.55 16.38 21.95 14.65 23.17 14.04 C 25.36 13.67 26.52 15.96 28.02 17.12 C 28.06 13.79 27.79 10.44 28.18 7.13 Z" />
<path fill="#968176" opacity="1.00" d=" M 17.01 32.85 C 22.76 27.83 31.40 26.52 38.32 29.83 C 44.74 32.65 49.05 39.07 49.99 45.93 C 52.02 46.28 55.57 45.09 56.07 47.97 C 55.96 49.54 54.43 50.18 53.05 49.98 C 38.00 50.03 22.96 49.97 7.92 50.01 C 6.41 50.03 4.08 50.12 3.97 48.04 C 4.29 45.06 8.01 46.28 10.02 45.93 C 10.89 42.38 11.45 38.00 14.93 36.01 C 16.25 35.46 16.50 34.02 17.01 32.85 M 18.58 37.66 C 16.00 39.74 14.65 42.75 14.00 45.94 C 22.03 46.07 30.06 45.98 38.09 45.98 C 37.78 44.34 37.44 42.70 37.08 41.07 C 37.66 39.60 38.81 37.87 37.60 36.37 C 36.79 34.92 34.89 35.16 33.51 34.73 C 32.62 33.77 31.71 32.82 30.80 31.88 C 26.18 32.08 21.13 33.46 18.58 37.66 Z" />
<path fill="#968176" opacity="1.00" d=" M 23.52 39.99 C 23.14 37.35 25.98 36.54 28.03 36.43 C 26.55 38.67 26.59 41.09 28.10 43.29 C 26.19 43.02 23.41 42.51 23.52 39.99 Z" />
</g>
</svg>
