<?xml version="1.0" encoding="UTF-8" ?>
<!DOCTYPE svg PUBLIC "-//W3C//DTD SVG 1.1//EN" "http://www.w3.org/Graphics/SVG/1.1/DTD/svg11.dtd">
<svg width="60pt" height="60pt" viewBox="0 0 60 60" version="1.1" xmlns="http://www.w3.org/2000/svg">
<g id="#ffffffff">
<path fill="#ffffff" opacity="1.00" d=" M 0.00 0.00 L 60.00 0.00 L 60.00 60.00 L 0.00 60.00 L 0.00 0.00 M 29.20 6.15 C 26.85 8.16 24.72 10.41 22.60 12.65 C 21.59 13.57 21.96 15.25 23.10 15.89 C 25.35 16.43 26.52 14.04 28.02 12.85 C 28.07 16.16 27.77 19.50 28.18 22.80 C 28.75 24.37 31.22 24.38 31.81 22.82 C 32.23 19.52 31.93 16.17 31.98 12.85 C 33.04 13.87 34.03 14.98 35.24 15.83 C 36.81 16.57 38.60 14.82 37.84 13.25 C 35.73 10.66 33.30 8.30 30.76 6.13 C 30.37 6.14 29.59 6.15 29.20 6.15 M 16.89 32.94 C 16.52 34.13 16.34 35.61 14.92 36.02 C 11.40 37.91 10.91 42.45 10.04 45.96 C 8.41 46.01 6.76 45.90 5.14 46.20 C 3.28 46.92 3.88 50.09 5.94 49.92 C 21.63 50.10 37.34 49.96 53.05 49.99 C 54.77 50.32 56.56 49.01 55.90 47.15 C 54.53 45.29 51.93 46.24 49.97 45.96 C 49.09 39.05 44.70 32.61 38.25 29.80 C 31.30 26.51 22.63 27.86 16.89 32.94 Z" />
<path fill="#ffffff" opacity="1.00" d=" M 18.68 37.68 C 21.06 33.36 26.27 32.09 30.85 31.90 C 32.10 33.60 33.70 35.12 35.93 35.27 C 38.62 35.76 38.53 39.26 37.05 40.97 C 37.38 42.65 37.75 44.31 38.10 45.99 C 30.08 45.99 22.05 46.04 14.03 45.96 C 14.68 42.75 15.89 39.61 18.68 37.68 M 23.52 40.01 C 23.46 42.53 26.21 43.19 28.20 43.17 C 26.42 41.15 26.58 38.45 28.08 36.32 C 26.02 36.52 23.13 37.34 23.52 40.01 Z" />
</g>
<g id="#000000ff">
<path fill="#000000" opacity="1.00" d=" M 29.20 6.15 C 29.59 6.15 30.37 6.14 30.76 6.13 C 33.30 8.30 35.73 10.66 37.84 13.25 C 38.60 14.82 36.81 16.57 35.24 15.83 C 34.03 14.98 33.04 13.87 31.98 12.85 C 31.93 16.17 32.23 19.52 31.81 22.82 C 31.22 24.38 28.75 24.37 28.18 22.80 C 27.77 19.50 28.07 16.16 28.02 12.85 C 26.52 14.04 25.35 16.43 23.10 15.89 C 21.96 15.25 21.59 13.57 22.60 12.65 C 24.72 10.41 26.85 8.16 29.20 6.15 Z" />
<path fill="#000000" opacity="1.00" d=" M 16.89 32.94 C 22.63 27.86 31.30 26.51 38.25 29.80 C 44.70 32.61 49.09 39.05 49.97 45.96 C 51.93 46.24 54.53 45.29 55.90 47.15 C 56.56 49.01 54.77 50.32 53.05 49.99 C 37.34 49.96 21.63 50.10 5.94 49.92 C 3.88 50.09 3.28 46.92 5.14 46.20 C 6.76 45.90 8.41 46.01 10.04 45.96 C 10.91 42.45 11.40 37.91 14.92 36.02 C 16.34 35.61 16.52 34.13 16.89 32.94 M 18.68 37.68 C 15.89 39.61 14.68 42.75 14.03 45.96 C 22.05 46.04 30.08 45.99 38.10 45.99 C 37.75 44.31 37.38 42.65 37.05 40.97 C 38.53 39.26 38.62 35.76 35.93 35.27 C 33.70 35.12 32.10 33.60 30.85 31.90 C 26.27 32.09 21.06 33.36 18.68 37.68 Z" />
<path fill="#000000" opacity="1.00" d=" M 23.52 40.01 C 23.13 37.34 26.02 36.52 28.08 36.32 C 26.58 38.45 26.42 41.15 28.20 43.17 C 26.21 43.19 23.46 42.53 23.52 40.01 Z" />
</g>
</svg>
