<?xml version="1.0" encoding="UTF-8" ?>
<!DOCTYPE svg PUBLIC "-//W3C//DTD SVG 1.1//EN" "http://www.w3.org/Graphics/SVG/1.1/DTD/svg11.dtd">
<svg width="60pt" height="60pt" viewBox="0 0 60 60" version="1.1" xmlns="http://www.w3.org/2000/svg">
<g id="#ffffffff">
<path fill="#ffffff" opacity="1.00" d=" M 0.00 0.00 L 60.00 0.00 L 60.00 60.00 L 0.00 60.00 L 0.00 0.00 M 8.18 20.08 C 3.85 29.11 6.17 40.70 13.54 47.44 C 20.03 53.73 30.20 55.71 38.58 52.36 C 44.16 50.34 48.53 45.97 51.46 40.91 C 42.08 43.83 31.15 40.70 25.15 32.83 C 19.28 25.66 18.62 15.30 22.49 7.03 C 16.35 9.48 10.89 13.95 8.18 20.08 Z" />
</g>
<g id="#000000ff">
<path fill="#000000" opacity="1.00" d=" M 8.18 20.08 C 10.89 13.95 16.35 9.48 22.49 7.03 C 18.62 15.30 19.28 25.66 25.15 32.83 C 31.15 40.70 42.08 43.83 51.46 40.91 C 48.53 45.97 44.16 50.34 38.58 52.36 C 30.20 55.71 20.03 53.73 13.54 47.44 C 6.17 40.70 3.85 29.11 8.18 20.08 Z" />
</g>
</svg>
