<?xml version="1.0" encoding="UTF-8" ?>
<!DOCTYPE svg PUBLIC "-//W3C//DTD SVG 1.1//EN" "http://www.w3.org/Graphics/SVG/1.1/DTD/svg11.dtd">
<svg width="131pt" height="141pt" viewBox="0 0 131 141" version="1.1" xmlns="http://www.w3.org/2000/svg">
<g id="#fffffff">
<path fill="#ffffff" opacity="1.00" d=" M 0.00 0.00 L 131.00 0.00 L 131.00 141.00 L 0.00 141.00 L 0.00 0.00 M 97.45 19.42 C 81.46 27.00 68.73 41.26 63.06 58.03 C 62.25 61.29 58.56 62.19 56.45 64.42 C 50.47 69.73 45.53 78.30 48.64 86.40 C 52.01 94.34 60.15 98.99 68.12 101.25 C 73.10 102.18 78.79 102.25 82.95 98.91 C 88.62 94.66 90.59 87.40 91.52 80.72 C 91.76 80.97 92.23 81.49 92.47 81.74 C 91.62 87.16 89.68 92.39 87.22 97.28 C 84.55 99.28 81.70 101.15 78.54 102.27 C 66.34 104.49 53.15 97.82 47.57 86.78 C 45.31 89.41 44.34 92.80 42.81 95.84 C 39.08 103.61 35.63 111.51 31.90 119.28 C 30.05 122.86 34.14 126.94 37.76 126.56 C 39.86 126.65 41.03 124.66 42.16 123.22 C 47.33 115.92 52.63 108.70 57.95 101.50 C 63.05 104.29 68.15 107.06 73.33 109.68 C 75.18 110.72 77.42 111.55 78.30 113.66 C 80.83 118.52 83.01 123.57 85.61 128.39 C 86.51 130.03 87.86 131.99 90.00 131.75 C 92.91 132.01 95.26 128.82 94.44 126.09 C 92.95 119.43 91.15 112.85 89.92 106.14 C 94.32 103.35 95.67 98.01 97.23 93.38 C 100.67 82.18 100.00 68.81 92.24 59.51 C 85.93 62.62 77.79 59.23 75.55 52.58 C 75.20 48.59 74.80 44.01 77.97 40.98 C 80.39 37.55 85.20 37.88 87.99 34.97 C 91.18 32.09 94.77 29.68 98.59 27.72 C 100.38 26.70 102.46 25.85 103.54 23.98 C 104.50 20.63 100.42 17.26 97.45 19.42 M 85.29 38.16 C 76.55 38.68 72.93 51.12 79.42 56.58 C 84.66 62.42 95.29 59.45 97.18 51.95 C 99.72 44.74 92.75 36.75 85.29 38.16 Z" />
</g>
<g id="#000000ff">
<path fill="#968176" opacity="1.00" d=" M 97.45 19.42 C 100.42 17.26 104.50 20.63 103.54 23.98 C 102.46 25.85 100.38 26.70 98.59 27.72 C 94.77 29.68 91.18 32.09 87.99 34.97 C 85.20 37.88 80.39 37.55 77.97 40.98 C 74.80 44.01 75.20 48.59 75.55 52.58 C 77.79 59.23 85.93 62.62 92.24 59.51 C 100.00 68.81 100.67 82.18 97.23 93.38 C 95.67 98.01 94.32 103.35 89.92 106.14 C 91.15 112.85 92.95 119.43 94.44 126.09 C 95.26 128.82 92.91 132.01 90.00 131.75 C 87.86 131.99 86.51 130.03 85.61 128.39 C 83.01 123.57 80.83 118.52 78.30 113.66 C 77.42 111.55 75.18 110.72 73.33 109.68 C 68.15 107.06 63.05 104.29 57.95 101.50 C 52.63 108.70 47.33 115.92 42.16 123.22 C 41.03 124.66 39.86 126.65 37.76 126.56 C 34.14 126.94 30.05 122.86 31.90 119.28 C 35.63 111.51 39.08 103.61 42.81 95.84 C 44.34 92.80 45.31 89.41 47.57 86.78 C 53.15 97.82 66.34 104.49 78.54 102.27 C 81.70 101.15 84.55 99.28 87.22 97.28 C 89.68 92.39 91.62 87.16 92.47 81.74 C 92.23 81.49 91.76 80.97 91.52 80.72 C 90.59 87.40 88.62 94.66 82.95 98.91 C 78.79 102.25 73.10 102.18 68.12 101.25 C 60.15 98.99 52.01 94.34 48.64 86.40 C 45.53 78.30 50.47 69.73 56.45 64.42 C 58.56 62.19 62.25 61.29 63.06 58.03 C 68.73 41.26 81.46 27.00 97.45 19.42 Z" />
<path fill="#968176" opacity="1.00" d=" M 85.29 38.16 C 92.75 36.75 99.72 44.74 97.18 51.95 C 95.29 59.45 84.66 62.42 79.42 56.58 C 72.93 51.12 76.55 38.68 85.29 38.16 Z" />
</g>
</svg>
