<?xml version="1.0" encoding="UTF-8" ?>
<!DOCTYPE svg PUBLIC "-//W3C//DTD SVG 1.1//EN" "http://www.w3.org/Graphics/SVG/1.1/DTD/svg11.dtd">
<svg width="60pt" height="60pt" viewBox="0 0 60 60" version="1.1" xmlns="http://www.w3.org/2000/svg">
<g id="#ffffffff">
<path fill="#ffffff" opacity="1.00" d=" M 0.00 0.00 L 60.00 0.00 L 60.00 60.00 L 0.00 60.00 L 0.00 0.00 M 7.47 24.57 C 3.51 26.21 2.81 32.19 6.29 34.70 C 9.60 37.58 15.40 35.32 15.91 30.97 C 16.89 26.44 11.57 22.40 7.47 24.57 M 27.42 24.59 C 23.50 26.26 22.82 32.19 26.27 34.69 C 29.58 37.57 35.38 35.34 35.90 30.99 C 36.91 26.43 31.53 22.37 27.42 24.59 M 47.46 24.57 C 43.54 26.21 42.81 32.10 46.21 34.64 C 49.51 37.59 55.37 35.38 55.90 31.00 C 56.91 26.45 51.57 22.39 47.46 24.57 Z" />
</g>
<g id="#000000ff">
<path fill="#968176" opacity="1.00" d=" M 7.47 24.57 C 11.57 22.40 16.89 26.44 15.91 30.97 C 15.40 35.32 9.60 37.58 6.29 34.70 C 2.81 32.19 3.51 26.21 7.47 24.57 Z" />
<path fill="#968176" opacity="1.00" d=" M 27.42 24.59 C 31.53 22.37 36.91 26.43 35.90 30.99 C 35.38 35.34 29.58 37.57 26.27 34.69 C 22.82 32.19 23.50 26.26 27.42 24.59 Z" />
<path fill="#968176" opacity="1.00" d=" M 47.46 24.57 C 51.57 22.39 56.91 26.45 55.90 31.00 C 55.37 35.38 49.51 37.59 46.21 34.64 C 42.81 32.10 43.54 26.21 47.46 24.57 Z" />
</g>
</svg>
