<?xml version="1.0" encoding="UTF-8" ?>
<!DOCTYPE svg PUBLIC "-//W3C//DTD SVG 1.1//EN" "http://www.w3.org/Graphics/SVG/1.1/DTD/svg11.dtd">
<svg width="60pt" height="60pt" viewBox="0 0 60 60" version="1.1" xmlns="http://www.w3.org/2000/svg">
<g id="#ffffffff">
<path fill="#ffffff" opacity="1.00" d=" M 0.00 0.00 L 60.00 0.00 L 60.00 60.00 L 0.00 60.00 L 0.00 0.00 M 44.11 6.10 C 36.69 12.98 29.77 20.43 22.49 27.47 C 21.51 28.72 19.34 29.81 20.25 31.68 C 22.24 33.98 24.29 36.41 26.92 37.99 C 27.51 37.81 28.69 37.45 29.28 37.27 C 30.59 37.58 31.90 37.88 33.22 38.11 C 37.21 41.87 40.89 45.94 44.97 49.61 C 42.76 49.69 40.60 52.51 43.22 53.82 C 46.43 54.15 49.70 54.16 52.91 53.79 C 55.68 51.92 52.60 49.78 50.47 49.43 C 45.48 44.91 40.85 39.99 36.13 35.19 C 35.84 33.75 35.50 32.33 35.11 30.93 C 40.64 25.12 46.67 19.80 51.97 13.79 C 51.91 13.42 51.80 12.68 51.74 12.31 C 49.44 10.12 47.49 6.34 44.11 6.10 M 16.28 33.69 C 12.95 37.25 9.21 40.41 6.07 44.15 C 5.89 46.75 8.80 48.06 10.30 49.78 C 9.52 49.90 7.95 50.13 7.17 50.25 C 5.21 50.86 5.93 54.21 7.99 53.90 C 12.00 54.09 16.03 54.09 20.03 53.90 C 21.53 54.01 22.32 52.48 21.91 51.17 C 20.61 49.30 17.96 50.26 16.06 49.91 C 18.70 47.24 21.54 44.75 23.94 41.85 C 23.89 41.46 23.79 40.69 23.74 40.30 C 21.57 37.80 19.36 35.09 16.28 33.69 Z" />
</g>
<g id="#000000ff">
<path fill="#000000" opacity="1.00" d=" M 44.11 6.10 C 47.49 6.34 49.44 10.12 51.74 12.31 C 51.80 12.68 51.91 13.42 51.97 13.79 C 46.67 19.80 40.64 25.12 35.11 30.93 C 35.50 32.33 35.84 33.75 36.13 35.19 C 40.85 39.99 45.48 44.91 50.47 49.43 C 52.60 49.78 55.68 51.92 52.91 53.79 C 49.70 54.16 46.43 54.15 43.22 53.82 C 40.60 52.51 42.76 49.69 44.97 49.61 C 40.89 45.94 37.21 41.87 33.22 38.11 C 31.90 37.88 30.59 37.58 29.28 37.27 C 28.69 37.45 27.51 37.81 26.92 37.99 C 24.29 36.41 22.24 33.98 20.25 31.68 C 19.34 29.81 21.51 28.72 22.49 27.47 C 29.77 20.43 36.69 12.98 44.11 6.10 Z" />
<path fill="#000000" opacity="1.00" d=" M 16.28 33.69 C 19.36 35.09 21.57 37.80 23.74 40.30 C 23.79 40.69 23.89 41.46 23.94 41.85 C 21.54 44.75 18.70 47.24 16.06 49.91 C 17.96 50.26 20.61 49.30 21.91 51.17 C 22.32 52.48 21.53 54.01 20.03 53.90 C 16.03 54.09 12.00 54.09 7.99 53.90 C 5.93 54.21 5.21 50.86 7.17 50.25 C 7.95 50.13 9.52 49.90 10.30 49.78 C 8.80 48.06 5.89 46.75 6.07 44.15 C 9.21 40.41 12.95 37.25 16.28 33.69 Z" />
</g>
</svg>
