<?xml version="1.0" encoding="UTF-8" ?>
<!DOCTYPE svg PUBLIC "-//W3C//DTD SVG 1.1//EN" "http://www.w3.org/Graphics/SVG/1.1/DTD/svg11.dtd">
<svg width="64pt" height="64pt" viewBox="0 0 64 64" version="1.1" xmlns="http://www.w3.org/2000/svg">
<g id="#ffffffff">
<path fill="#ffffff" opacity="1.00" d=" M 0.00 0.00 L 64.00 0.00 L 64.00 64.00 L 0.00 64.00 L 0.00 0.00 M 15.33 12.31 C 16.75 13.66 18.15 15.03 19.56 16.39 C 18.87 17.76 18.19 19.14 17.51 20.51 C 18.94 21.72 20.36 22.93 21.78 24.15 C 18.05 24.98 14.12 25.02 10.56 26.49 C 8.44 27.33 7.26 30.19 8.56 32.17 C 10.02 34.39 12.84 34.85 15.16 35.70 C 14.01 38.33 12.21 40.58 10.44 42.82 C 11.48 43.61 12.53 44.39 13.57 45.18 C 16.25 42.29 17.97 38.78 19.90 35.39 C 20.06 37.99 20.12 40.61 19.90 43.20 C 18.39 46.60 16.27 49.69 14.51 52.97 C 15.67 53.64 16.83 54.32 18.00 55.00 C 19.89 51.53 22.04 48.20 23.78 44.65 C 25.00 41.32 21.99 35.95 26.19 34.31 C 26.08 38.81 25.44 43.82 27.98 47.82 C 29.68 50.67 34.28 50.66 36.01 47.85 C 38.55 43.84 37.93 38.82 37.81 34.31 C 38.32 34.62 39.32 35.24 39.83 35.55 C 40.32 38.59 39.62 41.75 40.26 44.75 C 42.00 48.26 44.12 51.56 46.00 54.99 C 47.18 54.33 48.35 53.67 49.53 53.02 C 47.75 49.73 45.61 46.61 44.10 43.18 C 43.88 40.59 43.94 37.98 44.10 35.39 C 46.03 38.77 47.75 42.29 50.43 45.18 C 51.47 44.40 52.51 43.61 53.56 42.83 C 51.80 40.58 50.01 38.32 48.84 35.70 C 51.16 34.85 54.01 34.39 55.45 32.15 C 56.74 30.15 55.54 27.29 53.40 26.47 C 49.86 25.02 45.96 24.98 42.26 24.16 C 43.67 22.92 45.08 21.70 46.49 20.47 C 45.81 19.10 45.12 17.73 44.44 16.36 C 45.86 15.02 47.27 13.67 48.69 12.32 C 47.76 11.35 46.82 10.39 45.89 9.43 C 43.77 11.49 41.66 13.56 39.55 15.62 C 40.19 16.89 40.84 18.17 41.49 19.45 C 40.43 20.43 39.37 21.43 38.33 22.43 C 37.71 19.19 36.16 16.14 34.06 13.61 C 34.02 12.41 34.00 11.20 33.97 10.00 C 32.66 10.00 31.34 10.00 30.03 10.00 C 30.00 11.23 29.97 12.46 29.94 13.68 C 27.80 16.17 26.28 19.21 25.67 22.43 C 24.63 21.43 23.58 20.44 22.53 19.46 C 23.16 18.16 23.80 16.87 24.43 15.57 C 22.31 13.54 20.24 11.47 18.13 9.44 C 17.20 10.40 16.26 11.35 15.33 12.31 Z" />
<path fill="#ffffff" opacity="1.00" d=" M 30.15 20.12 C 31.39 20.13 32.62 20.14 33.86 20.14 C 33.92 22.64 34.37 25.23 33.68 27.69 C 32.41 28.16 31.10 27.76 29.84 27.49 C 29.92 25.03 30.01 22.57 30.15 20.12 Z" />
<path fill="#ffffff" opacity="1.00" d=" M 11.72 30.26 C 16.30 28.86 21.10 28.35 25.70 26.98 C 25.00 28.43 25.61 31.04 23.58 31.48 C 19.67 32.61 15.42 31.80 11.72 30.26 Z" />
<path fill="#ffffff" opacity="1.00" d=" M 38.31 26.98 C 42.90 28.36 47.70 28.85 52.27 30.26 C 48.26 31.82 43.23 33.07 39.25 30.83 C 39.01 29.87 38.54 27.95 38.31 26.98 Z" />
<path fill="#ffffff" opacity="1.00" d=" M 31.33 31.98 C 31.67 31.98 32.34 32.00 32.68 32.01 C 34.48 36.36 34.38 41.42 32.80 45.81 C 32.40 45.81 31.60 45.81 31.20 45.81 C 29.60 41.40 29.52 36.33 31.33 31.98 Z" />
</g>
<g id="#000000ff">
<path fill="#000000" opacity="1.00" d=" M 15.33 12.31 C 16.26 11.35 17.20 10.40 18.13 9.44 C 20.24 11.47 22.31 13.54 24.43 15.57 C 23.80 16.87 23.16 18.16 22.53 19.46 C 23.58 20.44 24.63 21.43 25.67 22.43 C 26.28 19.21 27.80 16.17 29.94 13.68 C 29.97 12.46 30.00 11.23 30.03 10.00 C 31.34 10.00 32.66 10.00 33.97 10.00 C 34.00 11.20 34.02 12.41 34.06 13.61 C 36.16 16.14 37.71 19.19 38.33 22.43 C 39.37 21.43 40.43 20.43 41.49 19.45 C 40.84 18.17 40.19 16.89 39.55 15.62 C 41.66 13.56 43.77 11.49 45.89 9.43 C 46.82 10.39 47.76 11.35 48.69 12.32 C 47.27 13.67 45.86 15.02 44.44 16.36 C 45.12 17.73 45.81 19.10 46.49 20.47 C 45.08 21.70 43.67 22.92 42.26 24.16 C 45.96 24.98 49.86 25.02 53.40 26.47 C 55.54 27.29 56.74 30.15 55.45 32.15 C 54.01 34.39 51.16 34.85 48.84 35.70 C 50.01 38.32 51.80 40.58 53.56 42.83 C 52.51 43.61 51.47 44.40 50.43 45.18 C 47.75 42.29 46.03 38.77 44.10 35.39 C 43.94 37.98 43.88 40.59 44.10 43.18 C 45.61 46.61 47.75 49.73 49.53 53.02 C 48.35 53.67 47.18 54.33 46.00 54.99 C 44.12 51.56 42.00 48.26 40.26 44.75 C 39.62 41.75 40.32 38.59 39.83 35.55 C 39.32 35.24 38.32 34.62 37.81 34.31 C 37.93 38.82 38.55 43.84 36.01 47.85 C 34.28 50.66 29.68 50.67 27.98 47.82 C 25.44 43.82 26.08 38.81 26.19 34.31 C 21.99 35.95 25.00 41.32 23.78 44.65 C 22.04 48.20 19.89 51.53 18.00 55.00 C 16.83 54.32 15.67 53.64 14.51 52.97 C 16.27 49.69 18.39 46.60 19.90 43.20 C 20.12 40.61 20.06 37.99 19.90 35.39 C 17.97 38.78 16.25 42.29 13.57 45.18 C 12.53 44.39 11.48 43.61 10.44 42.82 C 12.21 40.58 14.01 38.33 15.16 35.70 C 12.84 34.85 10.02 34.39 8.56 32.17 C 7.26 30.19 8.44 27.33 10.56 26.49 C 14.12 25.02 18.05 24.98 21.78 24.15 C 20.36 22.93 18.94 21.72 17.51 20.51 C 18.19 19.14 18.87 17.76 19.56 16.39 C 18.15 15.03 16.75 13.66 15.33 12.31 M 30.15 20.12 C 30.01 22.57 29.92 25.03 29.84 27.49 C 31.10 27.76 32.41 28.16 33.68 27.69 C 34.37 25.23 33.92 22.64 33.86 20.14 C 32.62 20.14 31.39 20.13 30.15 20.12 M 11.72 30.26 C 15.42 31.80 19.67 32.61 23.58 31.48 C 25.61 31.04 25.00 28.43 25.70 26.98 C 21.10 28.35 16.30 28.86 11.72 30.26 M 38.31 26.98 C 38.54 27.95 39.01 29.87 39.25 30.83 C 43.23 33.07 48.26 31.82 52.27 30.26 C 47.70 28.85 42.90 28.36 38.31 26.98 M 31.33 31.98 C 29.52 36.33 29.60 41.40 31.20 45.81 C 31.60 45.81 32.40 45.81 32.80 45.81 C 34.38 41.42 34.48 36.36 32.68 32.01 C 32.34 32.00 31.67 31.98 31.33 31.98 Z" />
</g>
</svg>
