<?xml version="1.0" encoding="UTF-8" ?>
<!DOCTYPE svg PUBLIC "-//W3C//DTD SVG 1.1//EN" "http://www.w3.org/Graphics/SVG/1.1/DTD/svg11.dtd">
<svg width="60pt" height="60pt" viewBox="0 0 60 60" version="1.1" xmlns="http://www.w3.org/2000/svg">
<g id="#ffffffff">
<path fill="#ffffff" opacity="1.00" d=" M 0.00 0.00 L 60.00 0.00 L 60.00 60.00 L 0.00 60.00 L 0.00 0.00 M 20.49 4.67 C 17.22 6.38 17.22 11.61 20.50 13.32 C 23.61 15.35 28.12 12.68 28.01 9.02 C 28.16 5.33 23.63 2.64 20.49 4.67 M 10.05 9.78 C 13.36 9.77 16.57 7.70 16.98 4.20 C 13.59 4.12 10.58 6.40 10.05 9.78 M 13.84 19.89 C 10.90 26.22 8.87 33.07 8.26 40.04 C 8.10 43.11 11.44 44.33 14.00 44.13 C 14.08 47.70 13.79 51.30 14.17 54.86 C 14.82 56.31 17.16 56.42 17.74 54.86 C 20.91 44.18 19.83 32.98 20.00 22.01 C 24.05 23.77 28.48 24.56 32.87 23.82 C 35.18 22.65 33.48 19.23 31.11 20.03 C 27.87 20.56 25.03 19.38 22.60 17.31 C 19.78 14.64 15.08 16.49 13.84 19.89 M 38.00 32.00 C 36.71 32.00 35.42 32.00 34.13 32.00 C 33.95 30.57 34.19 27.99 32.06 28.05 C 30.11 28.14 27.49 27.28 26.12 29.11 C 25.28 31.59 28.04 32.24 29.89 32.11 C 30.15 33.39 29.73 35.15 31.18 35.84 C 34.40 36.13 37.67 36.14 40.89 35.82 C 41.13 35.58 41.59 35.10 41.83 34.86 C 42.14 31.62 42.14 28.34 41.82 25.10 C 41.57 24.85 41.06 24.35 40.81 24.10 C 36.47 23.54 38.40 29.42 38.00 32.00 M 46.39 28.36 C 41.56 30.23 45.03 38.02 49.64 35.62 C 54.38 33.74 50.98 26.01 46.39 28.36 M 29.10 40.17 C 27.27 41.01 27.91 44.16 30.01 43.94 C 36.01 44.05 42.02 44.06 48.01 43.93 C 50.58 44.20 50.58 39.79 48.02 40.07 C 41.72 40.01 35.39 39.82 29.10 40.17 Z" />
</g>
<g id="#000000ff">
<path fill="#000000" opacity="1.00" d=" M 20.49 4.67 C 23.63 2.64 28.16 5.33 28.01 9.02 C 28.12 12.68 23.61 15.35 20.50 13.32 C 17.22 11.61 17.22 6.38 20.49 4.67 Z" />
<path fill="#000000" opacity="1.00" d=" M 10.05 9.78 C 10.58 6.40 13.59 4.12 16.98 4.20 C 16.57 7.70 13.36 9.77 10.05 9.78 Z" />
<path fill="#000000" opacity="1.00" d=" M 13.84 19.89 C 15.08 16.49 19.78 14.64 22.60 17.31 C 25.03 19.38 27.87 20.56 31.11 20.03 C 33.48 19.23 35.18 22.65 32.87 23.82 C 28.48 24.56 24.05 23.77 20.00 22.01 C 19.83 32.98 20.91 44.18 17.74 54.86 C 17.16 56.42 14.82 56.31 14.17 54.86 C 13.79 51.30 14.08 47.70 14.00 44.13 C 11.44 44.33 8.10 43.11 8.26 40.04 C 8.87 33.07 10.90 26.22 13.84 19.89 Z" />
<path fill="#000000" opacity="1.00" d=" M 38.00 32.00 C 38.40 29.42 36.47 23.54 40.81 24.10 C 41.06 24.35 41.57 24.85 41.82 25.10 C 42.14 28.34 42.14 31.62 41.83 34.86 C 41.59 35.10 41.13 35.58 40.89 35.82 C 37.67 36.14 34.40 36.13 31.18 35.84 C 29.73 35.15 30.15 33.39 29.89 32.11 C 28.04 32.24 25.28 31.59 26.12 29.11 C 27.49 27.28 30.11 28.14 32.06 28.05 C 34.19 27.99 33.95 30.57 34.13 32.00 C 35.42 32.00 36.71 32.00 38.00 32.00 Z" />
<path fill="#000000" opacity="1.00" d=" M 46.39 28.36 C 50.98 26.01 54.38 33.74 49.64 35.62 C 45.03 38.02 41.56 30.23 46.39 28.36 Z" />
<path fill="#000000" opacity="1.00" d=" M 29.10 40.17 C 35.39 39.82 41.72 40.01 48.02 40.07 C 50.58 39.79 50.58 44.20 48.01 43.93 C 42.02 44.06 36.01 44.05 30.01 43.94 C 27.91 44.16 27.27 41.01 29.10 40.17 Z" />
</g>
</svg>
