<?xml version="1.0" encoding="UTF-8" ?>
<!DOCTYPE svg PUBLIC "-//W3C//DTD SVG 1.1//EN" "http://www.w3.org/Graphics/SVG/1.1/DTD/svg11.dtd">
<svg width="60pt" height="60pt" viewBox="0 0 60 60" version="1.1" xmlns="http://www.w3.org/2000/svg">
<g id="#ffffffff">
<path fill="#ffffff" opacity="1.00" d=" M 0.00 0.00 L 60.00 0.00 L 60.00 60.00 L 0.00 60.00 L 0.00 0.00 M 23.34 8.47 C 17.91 10.23 16.66 17.38 19.08 21.97 C 21.22 25.97 26.96 27.24 30.60 24.52 C 34.18 22.11 34.64 17.16 33.52 13.32 C 32.19 9.27 27.33 6.95 23.34 8.47 M 43.96 21.96 C 42.34 21.96 40.70 21.97 39.09 22.18 C 37.64 22.92 37.66 25.20 39.19 25.84 C 40.77 26.04 42.37 26.02 43.96 26.04 C 44.25 28.04 43.08 31.61 45.97 32.04 C 48.91 31.67 47.76 28.05 48.04 26.04 C 50.20 25.97 54.70 26.71 53.89 23.17 C 52.60 21.27 49.97 22.25 48.04 21.96 C 47.74 19.99 48.92 16.41 46.06 15.99 C 43.08 16.22 44.24 19.97 43.96 21.96 M 12.48 20.69 C 10.13 22.25 7.75 24.67 7.87 27.70 C 11.57 28.90 15.38 24.69 16.06 21.25 C 16.64 19.03 13.43 19.95 12.48 20.69 M 10.75 37.65 C 7.48 42.46 7.97 48.48 8.01 54.00 C 10.72 54.00 13.44 54.02 16.15 53.96 C 19.16 50.35 22.50 45.01 27.99 46.19 C 26.97 41.49 33.11 37.85 36.49 41.43 C 40.15 44.75 36.59 50.98 31.87 50.03 C 31.74 51.36 31.74 52.68 31.89 54.01 C 35.30 54.00 38.72 53.97 42.13 54.04 C 44.26 50.67 44.77 46.08 42.22 42.76 C 39.21 38.53 36.37 33.64 31.37 31.50 C 24.21 28.04 14.81 30.80 10.75 37.65 Z" />
</g>
<g id="#000000ff">
<path fill="#000000" opacity="1.00" d=" M 23.34 8.47 C 27.33 6.95 32.19 9.27 33.52 13.32 C 34.64 17.16 34.18 22.11 30.60 24.52 C 26.96 27.24 21.22 25.97 19.08 21.97 C 16.66 17.38 17.91 10.23 23.34 8.47 Z" />
<path fill="#000000" opacity="1.00" d=" M 43.96 21.96 C 44.24 19.97 43.08 16.22 46.06 15.99 C 48.92 16.41 47.74 19.99 48.04 21.96 C 49.97 22.25 52.60 21.27 53.89 23.17 C 54.70 26.71 50.20 25.97 48.04 26.04 C 47.76 28.05 48.91 31.67 45.97 32.04 C 43.08 31.61 44.25 28.04 43.96 26.04 C 42.37 26.02 40.77 26.04 39.19 25.84 C 37.66 25.20 37.64 22.92 39.09 22.18 C 40.70 21.97 42.34 21.96 43.96 21.96 Z" />
<path fill="#000000" opacity="1.00" d=" M 12.48 20.69 C 13.43 19.95 16.64 19.03 16.06 21.25 C 15.38 24.69 11.57 28.90 7.87 27.70 C 7.75 24.67 10.13 22.25 12.48 20.69 Z" />
<path fill="#000000" opacity="1.00" d=" M 10.75 37.65 C 14.81 30.80 24.21 28.04 31.37 31.50 C 36.37 33.64 39.21 38.53 42.22 42.76 C 44.77 46.08 44.26 50.67 42.13 54.04 C 38.72 53.97 35.30 54.00 31.89 54.01 C 31.74 52.68 31.74 51.36 31.87 50.03 C 36.59 50.98 40.15 44.75 36.49 41.43 C 33.11 37.85 26.97 41.49 27.99 46.19 C 22.50 45.01 19.16 50.35 16.15 53.96 C 13.44 54.02 10.72 54.00 8.01 54.00 C 7.97 48.48 7.48 42.46 10.75 37.65 Z" />
</g>
</svg>
