<?xml version="1.0" encoding="UTF-8" ?>
<!DOCTYPE svg PUBLIC "-//W3C//DTD SVG 1.1//EN" "http://www.w3.org/Graphics/SVG/1.1/DTD/svg11.dtd">
<svg width="64pt" height="64pt" viewBox="0 0 64 64" version="1.1" xmlns="http://www.w3.org/2000/svg">
<g id="#ffffffff">
<path fill="#ffffff" opacity="1.00" d=" M 0.00 0.00 L 64.00 0.00 L 64.00 64.00 L 0.00 64.00 L 0.00 0.00 M 4.81 19.74 C 2.84 24.74 5.39 29.88 5.69 34.93 C 6.22 39.62 5.48 45.21 9.24 48.79 C 11.60 51.07 15.78 49.85 16.81 46.81 C 19.45 40.07 17.06 32.80 15.95 25.99 C 19.69 26.88 24.10 29.46 27.66 26.72 C 31.16 24.25 30.52 18.27 26.56 16.61 C 23.24 15.73 19.83 15.15 16.50 14.28 C 11.99 13.08 6.46 15.15 4.81 19.74 M 45.08 14.85 C 41.85 16.08 37.59 15.36 35.26 18.35 C 32.91 21.17 34.05 25.91 37.40 27.39 C 40.94 28.97 44.60 26.78 48.04 25.99 C 47.03 31.98 45.25 38.05 46.35 44.16 C 46.77 46.40 47.82 48.95 50.16 49.73 C 52.51 50.64 55.08 49.13 56.17 47.03 C 58.69 42.78 57.66 37.61 58.55 32.95 C 59.27 28.00 61.41 22.39 58.19 17.86 C 55.32 13.63 49.53 13.31 45.08 14.85 Z" />
<path fill="#ffffff" opacity="1.00" d=" M 8.06 22.95 C 8.10 19.91 11.09 17.69 14.01 18.04 C 17.68 18.60 21.29 19.54 24.92 20.31 C 26.86 20.99 25.93 24.37 23.90 23.95 C 20.90 23.66 18.18 21.79 15.10 22.03 C 12.80 22.34 11.64 24.92 12.09 27.02 C 13.06 33.38 15.35 40.05 12.82 46.36 C 9.65 44.38 10.18 40.17 9.86 36.97 C 9.78 32.23 8.18 27.67 8.06 22.95 Z" />
<path fill="#ffffff" opacity="1.00" d=" M 40.00 20.07 C 44.59 19.68 49.63 16.48 53.98 19.14 C 57.82 22.47 54.93 27.95 54.63 32.17 C 53.37 36.80 55.48 43.03 51.21 46.38 C 48.63 40.07 50.96 33.36 51.91 26.98 C 52.35 24.89 51.16 22.33 48.88 22.03 C 45.49 21.70 42.51 24.21 39.14 23.87 C 37.30 23.01 37.86 19.95 40.00 20.07 Z" />
</g>
<g id="#000000ff">
<path fill="#000000" opacity="1.00" d=" M 4.81 19.74 C 6.46 15.15 11.99 13.08 16.50 14.28 C 19.83 15.15 23.24 15.73 26.56 16.61 C 30.52 18.27 31.16 24.25 27.66 26.72 C 24.10 29.46 19.69 26.88 15.95 25.99 C 17.06 32.80 19.45 40.07 16.81 46.81 C 15.78 49.85 11.60 51.07 9.24 48.79 C 5.48 45.21 6.22 39.62 5.69 34.93 C 5.39 29.88 2.84 24.74 4.81 19.74 M 8.06 22.95 C 8.18 27.67 9.78 32.23 9.86 36.97 C 10.18 40.17 9.65 44.38 12.82 46.36 C 15.35 40.05 13.06 33.38 12.09 27.02 C 11.64 24.92 12.80 22.34 15.10 22.03 C 18.18 21.79 20.90 23.66 23.90 23.95 C 25.93 24.37 26.86 20.99 24.92 20.31 C 21.29 19.54 17.68 18.60 14.01 18.04 C 11.09 17.69 8.10 19.91 8.06 22.95 Z" />
<path fill="#000000" opacity="1.00" d=" M 45.08 14.85 C 49.53 13.31 55.32 13.63 58.19 17.86 C 61.41 22.39 59.27 28.00 58.55 32.95 C 57.66 37.61 58.69 42.78 56.17 47.03 C 55.08 49.13 52.51 50.64 50.16 49.73 C 47.82 48.95 46.77 46.40 46.35 44.16 C 45.25 38.05 47.03 31.98 48.04 25.99 C 44.60 26.78 40.94 28.97 37.40 27.39 C 34.05 25.91 32.91 21.17 35.26 18.35 C 37.59 15.36 41.85 16.08 45.08 14.85 M 40.00 20.07 C 37.86 19.95 37.30 23.01 39.14 23.87 C 42.51 24.21 45.49 21.70 48.88 22.03 C 51.16 22.33 52.35 24.89 51.91 26.98 C 50.96 33.36 48.63 40.07 51.21 46.38 C 55.48 43.03 53.37 36.80 54.63 32.17 C 54.93 27.95 57.82 22.47 53.98 19.14 C 49.63 16.48 44.59 19.68 40.00 20.07 Z" />
</g>
</svg>
