<?xml version="1.0" encoding="UTF-8" ?>
<!DOCTYPE svg PUBLIC "-//W3C//DTD SVG 1.1//EN" "http://www.w3.org/Graphics/SVG/1.1/DTD/svg11.dtd">
<svg width="60pt" height="60pt" viewBox="0 0 60 60" version="1.1" xmlns="http://www.w3.org/2000/svg">
<g id="#ffffffff">
<path fill="#ffffff" opacity="1.00" d=" M 0.00 0.00 L 60.00 0.00 L 60.00 60.00 L 0.00 60.00 L 0.00 0.00 M 21.21 7.30 C 12.78 9.77 5.11 16.80 4.14 25.86 C 3.15 33.36 7.32 40.59 13.28 44.88 C 13.20 47.83 12.83 51.29 10.11 53.06 C 9.43 53.92 7.43 54.30 8.11 55.74 C 14.05 57.01 18.38 52.02 23.03 49.48 C 32.49 51.00 43.10 49.20 49.98 42.05 C 56.15 36.13 57.92 26.08 53.51 18.63 C 47.32 7.67 32.81 3.67 21.21 7.30 Z" />
<path fill="#ffffff" opacity="1.00" d=" M 32.19 20.83 C 31.18 18.90 33.97 16.98 35.38 18.63 C 38.27 21.43 41.25 24.17 43.86 27.25 C 43.86 27.62 43.86 28.38 43.86 28.75 C 41.24 31.83 38.25 34.60 35.34 37.40 C 33.96 38.99 31.24 37.13 32.16 35.23 C 33.65 33.33 35.47 31.72 37.18 30.02 C 30.78 29.91 24.38 30.14 17.99 29.93 C 15.89 30.17 15.26 26.93 17.15 26.16 C 23.81 25.76 30.50 26.14 37.17 25.99 C 35.50 24.28 33.68 22.70 32.19 20.83 Z" />
</g>
<g id="#000000ff">
<path fill="#000000" opacity="1.00" d=" M 21.21 7.30 C 32.81 3.67 47.32 7.67 53.51 18.63 C 57.92 26.08 56.15 36.13 49.98 42.05 C 43.10 49.20 32.49 51.00 23.03 49.48 C 18.38 52.02 14.05 57.01 8.11 55.74 C 7.43 54.30 9.43 53.92 10.11 53.06 C 12.83 51.29 13.20 47.83 13.28 44.88 C 7.32 40.59 3.15 33.36 4.14 25.86 C 5.11 16.80 12.78 9.77 21.21 7.30 M 32.19 20.83 C 33.68 22.70 35.50 24.28 37.17 25.99 C 30.50 26.14 23.81 25.76 17.15 26.16 C 15.26 26.93 15.89 30.17 17.99 29.93 C 24.38 30.14 30.78 29.91 37.18 30.02 C 35.47 31.72 33.65 33.33 32.16 35.23 C 31.24 37.13 33.96 38.99 35.34 37.40 C 38.25 34.60 41.24 31.83 43.86 28.75 C 43.86 28.38 43.86 27.62 43.86 27.25 C 41.25 24.17 38.27 21.43 35.38 18.63 C 33.97 16.98 31.18 18.90 32.19 20.83 Z" />
</g>
</svg>
