<?xml version="1.0" encoding="UTF-8" ?>
<!DOCTYPE svg PUBLIC "-//W3C//DTD SVG 1.1//EN" "http://www.w3.org/Graphics/SVG/1.1/DTD/svg11.dtd">
<svg width="60pt" height="60pt" viewBox="0 0 60 60" version="1.1" xmlns="http://www.w3.org/2000/svg">
<g id="#ffffffff">
<path fill="#ffffff" opacity="1.00" d=" M 0.00 0.00 L 60.00 0.00 L 60.00 60.00 L 0.00 60.00 L 0.00 0.00 M 6.36 6.35 C 4.60 7.14 3.82 9.10 4.00 10.94 C 4.03 22.63 3.94 34.32 4.04 46.01 C 3.88 48.60 6.55 50.34 8.94 50.00 C 23.29 49.97 37.65 50.06 52.00 49.96 C 54.11 50.04 56.04 48.12 55.96 46.00 C 56.03 35.34 56.03 24.66 55.96 14.00 C 56.04 11.88 54.15 9.91 52.00 10.04 C 42.67 9.91 33.34 10.06 24.01 10.00 C 21.18 10.24 20.94 5.81 18.01 6.08 C 14.14 6.04 10.17 5.63 6.36 6.35 Z" />
<path fill="#ffffff" opacity="1.00" d=" M 14.07 20.10 C 13.81 17.42 18.37 17.12 18.48 19.88 C 20.23 20.28 22.33 20.37 22.40 18.00 C 27.47 18.00 32.53 18.00 37.60 18.00 C 37.56 20.98 42.20 20.74 42.51 18.06 C 43.95 17.71 46.18 18.17 45.93 20.10 C 46.06 26.70 46.06 33.31 45.93 39.91 C 46.15 42.57 41.63 42.88 41.52 40.12 C 39.77 39.72 37.67 39.62 37.60 42.00 C 32.53 42.00 27.47 42.00 22.40 42.00 C 22.33 39.62 20.24 39.73 18.48 40.12 C 18.16 42.19 16.11 42.51 14.56 41.49 C 13.75 40.17 14.10 38.53 13.98 37.06 C 14.08 31.41 13.86 25.75 14.07 20.10 M 18.00 24.00 C 18.00 25.33 18.00 26.67 18.00 28.00 C 19.33 28.00 20.66 28.00 22.00 28.00 C 22.00 26.67 22.00 25.34 22.00 24.00 C 20.67 24.00 19.33 24.00 18.00 24.00 M 38.00 24.00 C 38.00 25.33 38.00 26.67 38.00 28.00 C 39.33 28.00 40.67 28.00 42.00 28.00 C 42.00 26.66 42.00 25.33 42.00 24.00 C 40.67 24.00 39.33 24.00 38.00 24.00 M 18.00 32.00 C 18.00 33.33 18.00 34.66 18.00 36.00 C 19.33 36.00 20.66 36.00 22.00 36.00 C 22.00 34.67 22.00 33.33 22.00 32.00 C 20.67 32.00 19.33 32.00 18.00 32.00 M 38.00 32.00 C 38.00 33.33 38.00 34.67 38.00 36.00 C 39.33 36.00 40.67 36.00 42.00 36.00 C 42.00 34.67 42.00 33.33 42.00 32.00 C 40.67 32.00 39.33 32.00 38.00 32.00 Z" />
</g>
<g id="#000000ff">
<path fill="#000000" opacity="1.00" d=" M 6.36 6.35 C 10.17 5.63 14.14 6.04 18.01 6.08 C 20.94 5.81 21.18 10.24 24.01 10.00 C 33.34 10.06 42.67 9.91 52.00 10.04 C 54.15 9.91 56.04 11.88 55.96 14.00 C 56.03 24.66 56.03 35.34 55.96 46.00 C 56.04 48.12 54.11 50.04 52.00 49.96 C 37.65 50.06 23.29 49.97 8.94 50.00 C 6.55 50.34 3.88 48.60 4.04 46.01 C 3.94 34.32 4.03 22.63 4.00 10.94 C 3.82 9.10 4.60 7.14 6.36 6.35 M 14.07 20.10 C 13.86 25.75 14.08 31.41 13.98 37.06 C 14.10 38.53 13.75 40.17 14.56 41.49 C 16.11 42.51 18.16 42.19 18.48 40.12 C 20.24 39.73 22.33 39.62 22.40 42.00 C 27.47 42.00 32.53 42.00 37.60 42.00 C 37.67 39.62 39.77 39.72 41.52 40.12 C 41.63 42.88 46.15 42.57 45.93 39.91 C 46.06 33.31 46.06 26.70 45.93 20.10 C 46.18 18.17 43.95 17.71 42.51 18.06 C 42.20 20.74 37.56 20.98 37.60 18.00 C 32.53 18.00 27.47 18.00 22.40 18.00 C 22.33 20.37 20.23 20.28 18.48 19.88 C 18.37 17.12 13.81 17.42 14.07 20.10 Z" />
<path fill="#000000" opacity="1.00" d=" M 18.00 24.00 C 19.33 24.00 20.67 24.00 22.00 24.00 C 22.00 25.34 22.00 26.67 22.00 28.00 C 20.66 28.00 19.33 28.00 18.00 28.00 C 18.00 26.67 18.00 25.33 18.00 24.00 Z" />
<path fill="#000000" opacity="1.00" d=" M 38.00 24.00 C 39.33 24.00 40.67 24.00 42.00 24.00 C 42.00 25.33 42.00 26.66 42.00 28.00 C 40.67 28.00 39.33 28.00 38.00 28.00 C 38.00 26.67 38.00 25.33 38.00 24.00 Z" />
<path fill="#000000" opacity="1.00" d=" M 18.00 32.00 C 19.33 32.00 20.67 32.00 22.00 32.00 C 22.00 33.33 22.00 34.67 22.00 36.00 C 20.66 36.00 19.33 36.00 18.00 36.00 C 18.00 34.66 18.00 33.33 18.00 32.00 Z" />
<path fill="#000000" opacity="1.00" d=" M 38.00 32.00 C 39.33 32.00 40.67 32.00 42.00 32.00 C 42.00 33.33 42.00 34.67 42.00 36.00 C 40.67 36.00 39.33 36.00 38.00 36.00 C 38.00 34.67 38.00 33.33 38.00 32.00 Z" />
</g>
</svg>
