<?xml version="1.0" encoding="UTF-8" ?>
<!DOCTYPE svg PUBLIC "-//W3C//DTD SVG 1.1//EN" "http://www.w3.org/Graphics/SVG/1.1/DTD/svg11.dtd">
<svg width="60pt" height="60pt" viewBox="0 0 60 60" version="1.1" xmlns="http://www.w3.org/2000/svg">
<g id="#ffffffff">
<path fill="#ffffff" opacity="1.00" d=" M 0.00 0.00 L 60.00 0.00 L 60.00 60.00 L 0.00 60.00 L 0.00 0.00 M 29.18 6.12 C 22.79 7.30 16.43 8.64 10.06 9.92 C 8.01 10.13 5.97 11.67 6.07 13.90 C 5.95 24.61 5.96 35.33 6.06 46.05 C 5.94 48.29 8.00 49.87 10.07 50.08 C 16.47 51.36 22.86 52.71 29.28 53.89 C 32.02 54.54 34.42 51.77 34.00 49.13 C 33.97 36.06 34.06 22.98 33.95 9.91 C 34.00 7.52 31.53 5.48 29.18 6.12 M 38.00 10.00 C 38.00 11.96 38.00 13.91 38.00 15.87 C 39.42 16.03 42.14 15.86 41.93 18.00 C 42.15 20.14 39.41 19.97 38.00 20.13 C 38.00 21.38 38.00 22.62 38.00 23.87 C 39.42 24.03 42.15 23.86 41.93 26.01 C 42.13 28.15 39.42 27.96 38.00 28.13 C 38.00 29.38 38.00 30.62 38.00 31.87 C 39.54 32.02 41.93 31.86 42.04 34.00 C 41.92 36.13 39.54 35.98 38.00 36.13 C 38.00 37.38 38.00 38.62 38.00 39.87 C 39.43 40.03 42.11 39.85 41.93 41.99 C 42.13 44.13 39.44 43.97 38.00 44.13 C 38.00 46.09 38.00 48.04 38.00 50.00 C 40.67 50.00 43.33 50.00 46.00 50.00 C 46.10 41.67 45.80 33.33 46.14 25.01 C 47.04 21.48 51.19 21.93 54.00 21.97 C 53.98 19.31 54.09 16.64 53.96 13.97 C 54.00 11.94 52.23 9.98 50.15 10.05 C 46.10 9.89 42.05 10.06 38.00 10.00 M 51.20 26.08 C 48.98 27.93 50.27 31.44 50.07 33.99 C 49.83 36.07 53.05 36.76 53.79 34.86 C 54.16 32.59 54.09 30.28 53.94 27.99 C 54.10 26.51 52.47 25.66 51.20 26.08 M 51.13 40.08 C 48.98 42.31 50.19 46.03 50.20 48.85 C 51.32 51.22 54.70 49.48 54.00 47.14 C 53.86 44.73 55.17 39.35 51.13 40.08 Z" />
<path fill="#ffffff" opacity="1.00" d=" M 12.00 20.00 C 12.81 20.00 14.44 20.00 15.25 20.00 C 17.54 23.83 19.79 27.69 22.11 31.51 C 22.15 27.67 22.14 23.84 22.13 20.00 C 23.42 20.00 24.71 20.00 26.00 20.00 C 26.00 26.67 26.00 33.33 26.00 40.00 C 25.19 40.00 23.58 40.00 22.78 40.01 C 20.48 36.11 18.20 32.22 15.88 28.34 C 15.85 32.22 15.86 36.11 15.87 40.00 C 14.58 40.00 13.29 40.00 12.00 40.00 C 12.00 33.33 12.00 26.67 12.00 20.00 Z" />
</g>
<g id="#000000ff">
<path fill="#968176" opacity="1.00" d=" M 29.18 6.12 C 31.53 5.48 34.00 7.52 33.95 9.91 C 34.06 22.98 33.97 36.06 34.00 49.13 C 34.42 51.77 32.02 54.54 29.28 53.89 C 22.86 52.71 16.47 51.36 10.07 50.08 C 8.00 49.87 5.94 48.29 6.06 46.05 C 5.96 35.33 5.95 24.61 6.07 13.90 C 5.97 11.67 8.01 10.13 10.06 9.92 C 16.43 8.64 22.79 7.30 29.18 6.12 M 12.00 20.00 C 12.00 26.67 12.00 33.33 12.00 40.00 C 13.29 40.00 14.58 40.00 15.87 40.00 C 15.86 36.11 15.85 32.22 15.88 28.34 C 18.20 32.22 20.48 36.11 22.78 40.01 C 23.58 40.00 25.19 40.00 26.00 40.00 C 26.00 33.33 26.00 26.67 26.00 20.00 C 24.71 20.00 23.42 20.00 22.13 20.00 C 22.14 23.84 22.15 27.67 22.11 31.51 C 19.79 27.69 17.54 23.83 15.25 20.00 C 14.44 20.00 12.81 20.00 12.00 20.00 Z" />
<path fill="#968176" opacity="1.00" d=" M 38.00 10.00 C 42.05 10.06 46.10 9.89 50.15 10.05 C 52.23 9.98 54.00 11.94 53.96 13.97 C 54.09 16.64 53.98 19.31 54.00 21.97 C 51.19 21.93 47.04 21.48 46.14 25.01 C 45.80 33.33 46.10 41.67 46.00 50.00 C 43.33 50.00 40.67 50.00 38.00 50.00 C 38.00 48.04 38.00 46.09 38.00 44.13 C 39.44 43.97 42.13 44.13 41.93 41.99 C 42.11 39.85 39.43 40.03 38.00 39.87 C 38.00 38.62 38.00 37.38 38.00 36.13 C 39.54 35.98 41.92 36.13 42.04 34.00 C 41.93 31.86 39.54 32.02 38.00 31.87 C 38.00 30.62 38.00 29.38 38.00 28.13 C 39.42 27.96 42.13 28.15 41.93 26.01 C 42.15 23.86 39.42 24.03 38.00 23.87 C 38.00 22.62 38.00 21.38 38.00 20.13 C 39.41 19.97 42.15 20.14 41.93 18.00 C 42.14 15.86 39.42 16.03 38.00 15.87 C 38.00 13.91 38.00 11.96 38.00 10.00 Z" />
<path fill="#968176" opacity="1.00" d=" M 51.20 26.08 C 52.47 25.66 54.10 26.51 53.94 27.99 C 54.09 30.28 54.16 32.59 53.79 34.86 C 53.05 36.76 49.83 36.07 50.07 33.99 C 50.27 31.44 48.98 27.93 51.20 26.08 Z" />
<path fill="#968176" opacity="1.00" d=" M 51.13 40.08 C 55.17 39.35 53.86 44.73 54.00 47.14 C 54.70 49.48 51.32 51.22 50.20 48.85 C 50.19 46.03 48.98 42.31 51.13 40.08 Z" />
</g>
</svg>
