<?xml version="1.0" encoding="UTF-8" ?>
<!DOCTYPE svg PUBLIC "-//W3C//DTD SVG 1.1//EN" "http://www.w3.org/Graphics/SVG/1.1/DTD/svg11.dtd">
<svg width="60pt" height="60pt" viewBox="0 0 60 60" version="1.1" xmlns="http://www.w3.org/2000/svg">
<g id="#ffffffff">
<path fill="#ffffff" opacity="1.00" d=" M 0.00 0.00 L 60.00 0.00 L 60.00 60.00 L 0.00 60.00 L 0.00 0.00 M 29.15 6.13 C 22.75 7.32 16.37 8.64 9.99 9.95 C 7.98 10.15 5.98 11.70 6.08 13.88 C 5.90 24.27 6.03 34.67 6.01 45.06 C 5.80 47.09 6.85 49.38 9.00 49.79 C 15.66 51.30 22.38 52.56 29.08 53.86 C 31.91 54.65 34.46 51.81 34.00 49.07 C 33.97 36.01 34.08 22.94 33.94 9.88 C 33.99 7.48 31.50 5.48 29.15 6.13 M 38.00 10.00 C 38.00 13.43 38.00 16.87 38.00 20.31 C 38.50 20.22 39.50 20.05 40.00 19.96 C 40.00 21.97 40.00 23.98 40.00 25.99 C 42.08 26.00 44.16 26.01 46.24 26.04 C 45.75 30.04 41.98 32.84 37.99 31.87 C 38.00 33.91 38.00 35.96 38.00 38.00 C 41.64 38.08 45.29 37.77 48.92 38.18 C 50.32 38.96 50.33 41.03 48.92 41.81 C 45.29 42.23 41.64 41.92 38.00 42.00 C 38.00 44.66 38.00 47.33 38.00 50.00 C 42.33 49.89 46.67 50.23 50.99 49.85 C 53.11 49.35 54.24 47.09 54.00 45.03 C 54.00 34.99 54.01 24.95 54.00 14.92 C 54.21 12.90 53.12 10.56 50.98 10.15 C 46.67 9.77 42.33 10.11 38.00 10.00 Z" />
<path fill="#ffffff" opacity="1.00" d=" M 44.03 15.76 C 47.29 16.24 49.75 18.71 50.24 21.96 C 48.15 21.99 46.07 22.00 43.99 22.01 C 44.00 19.93 44.01 17.84 44.03 15.76 Z" />
<path fill="#ffffff" opacity="1.00" d=" M 14.00 20.01 C 17.55 20.08 21.19 19.65 24.68 20.50 C 29.28 21.75 29.89 28.60 26.33 31.32 C 24.17 33.20 21.15 33.00 18.49 33.25 C 18.51 35.49 18.51 37.73 18.52 39.97 C 17.01 39.98 15.50 39.99 14.00 40.02 C 14.00 33.35 14.00 26.68 14.00 20.01 M 18.51 23.32 C 18.51 25.48 18.52 27.65 18.52 29.81 C 20.01 29.58 21.67 29.76 23.00 28.90 C 24.01 27.81 24.16 25.99 23.36 24.74 C 22.31 23.15 20.08 23.71 18.51 23.32 Z" />
</g>
<g id="#000000ff">
<path fill="#000000" opacity="1.00" d=" M 29.15 6.13 C 31.50 5.48 33.99 7.48 33.94 9.88 C 34.08 22.94 33.97 36.01 34.00 49.07 C 34.46 51.81 31.91 54.65 29.08 53.86 C 22.38 52.56 15.66 51.30 9.00 49.79 C 6.85 49.38 5.80 47.09 6.01 45.06 C 6.03 34.67 5.90 24.27 6.08 13.88 C 5.98 11.70 7.98 10.15 9.99 9.95 C 16.37 8.64 22.75 7.32 29.15 6.13 M 14.00 20.01 C 14.00 26.68 14.00 33.35 14.00 40.02 C 15.50 39.99 17.01 39.98 18.52 39.97 C 18.51 37.73 18.51 35.49 18.49 33.25 C 21.15 33.00 24.17 33.20 26.33 31.32 C 29.89 28.60 29.28 21.75 24.68 20.50 C 21.19 19.65 17.55 20.08 14.00 20.01 Z" />
<path fill="#000000" opacity="1.00" d=" M 38.00 10.00 C 42.33 10.11 46.67 9.77 50.98 10.15 C 53.12 10.56 54.21 12.90 54.00 14.92 C 54.01 24.95 54.00 34.99 54.00 45.03 C 54.24 47.09 53.11 49.35 50.99 49.85 C 46.67 50.23 42.33 49.89 38.00 50.00 C 38.00 47.33 38.00 44.66 38.00 42.00 C 41.64 41.92 45.29 42.23 48.92 41.81 C 50.33 41.03 50.32 38.96 48.92 38.18 C 45.29 37.77 41.64 38.08 38.00 38.00 C 38.00 35.96 38.00 33.91 37.99 31.87 C 41.98 32.84 45.75 30.04 46.24 26.04 C 44.16 26.01 42.08 26.00 40.00 25.99 C 40.00 23.98 40.00 21.97 40.00 19.96 C 39.50 20.05 38.50 20.22 38.00 20.31 C 38.00 16.87 38.00 13.43 38.00 10.00 M 44.03 15.76 C 44.01 17.84 44.00 19.93 43.99 22.01 C 46.07 22.00 48.15 21.99 50.24 21.96 C 49.75 18.71 47.29 16.24 44.03 15.76 Z" />
<path fill="#000000" opacity="1.00" d=" M 18.51 23.32 C 20.08 23.71 22.31 23.15 23.36 24.74 C 24.16 25.99 24.01 27.81 23.00 28.90 C 21.67 29.76 20.01 29.58 18.52 29.81 C 18.52 27.65 18.51 25.48 18.51 23.32 Z" />
</g>
</svg>
