<?xml version="1.0" encoding="UTF-8" ?>
<!DOCTYPE svg PUBLIC "-//W3C//DTD SVG 1.1//EN" "http://www.w3.org/Graphics/SVG/1.1/DTD/svg11.dtd">
<svg width="60pt" height="60pt" viewBox="0 0 60 60" version="1.1" xmlns="http://www.w3.org/2000/svg">
<g id="#ffffffff">
<path fill="#ffffff" opacity="1.00" d=" M 0.00 0.00 L 60.00 0.00 L 60.00 60.00 L 0.00 60.00 L 0.00 0.00 M 29.17 6.13 C 22.48 7.40 15.78 8.69 9.12 10.17 C 6.92 10.53 5.80 12.81 6.01 14.87 C 6.03 25.26 5.92 35.66 6.06 46.05 C 5.95 48.30 8.01 49.87 10.08 50.08 C 16.46 51.36 22.83 52.72 29.24 53.88 C 32.03 54.59 34.45 51.72 34.00 49.05 C 33.97 36.01 34.07 22.97 33.95 9.93 C 34.02 7.53 31.53 5.46 29.17 6.13 M 38.05 11.73 C 37.97 15.91 37.96 20.10 38.07 24.28 C 40.01 23.71 41.77 22.71 43.31 21.41 C 44.45 22.48 45.54 23.58 46.61 24.71 C 43.30 27.50 43.32 32.49 46.61 35.29 C 45.54 36.42 44.44 37.52 43.31 38.59 C 41.76 37.29 40.01 36.29 38.07 35.72 C 37.96 39.90 37.97 44.09 38.05 48.27 C 41.12 47.74 43.33 45.52 44.23 42.61 C 46.85 41.06 49.00 38.88 50.57 36.28 C 53.30 35.31 56.13 33.27 55.99 30.03 C 56.16 26.77 53.34 24.66 50.57 23.72 C 49.01 21.13 46.88 18.95 44.26 17.42 C 43.34 14.50 41.14 12.24 38.05 11.73 Z" />
<path fill="#ffffff" opacity="1.00" d=" M 15.99 21.06 C 18.97 19.48 22.47 20.03 25.65 20.55 C 25.69 21.90 25.72 23.24 25.77 24.59 C 23.26 23.75 19.57 22.23 17.75 25.05 C 18.30 27.77 21.67 27.93 23.57 29.40 C 27.04 30.93 27.61 36.25 24.57 38.49 C 21.27 40.73 16.99 40.09 13.37 39.06 C 13.36 37.66 13.34 36.25 13.31 34.85 C 15.80 36.29 21.37 38.23 22.03 34.10 C 19.97 31.54 16.14 31.35 14.14 28.70 C 12.46 26.26 13.27 22.41 15.99 21.06 Z" />
</g>
<g id="#000000ff">
<path fill="#000000" opacity="1.00" d=" M 29.17 6.13 C 31.53 5.46 34.02 7.53 33.95 9.93 C 34.07 22.97 33.97 36.01 34.00 49.05 C 34.45 51.72 32.03 54.59 29.24 53.88 C 22.83 52.72 16.46 51.36 10.08 50.08 C 8.01 49.87 5.95 48.30 6.06 46.05 C 5.92 35.66 6.03 25.26 6.01 14.87 C 5.80 12.81 6.92 10.53 9.12 10.17 C 15.78 8.69 22.48 7.40 29.17 6.13 M 15.99 21.06 C 13.27 22.41 12.46 26.26 14.14 28.70 C 16.14 31.35 19.97 31.54 22.03 34.10 C 21.37 38.23 15.80 36.29 13.31 34.85 C 13.34 36.25 13.36 37.66 13.37 39.06 C 16.99 40.09 21.27 40.73 24.57 38.49 C 27.61 36.25 27.04 30.93 23.57 29.40 C 21.67 27.93 18.30 27.77 17.75 25.05 C 19.57 22.23 23.26 23.75 25.77 24.59 C 25.72 23.24 25.69 21.90 25.65 20.55 C 22.47 20.03 18.97 19.48 15.99 21.06 Z" />
<path fill="#000000" opacity="1.00" d=" M 38.05 11.73 C 41.14 12.24 43.34 14.50 44.26 17.42 C 46.88 18.95 49.01 21.13 50.57 23.72 C 53.34 24.66 56.16 26.77 55.99 30.03 C 56.13 33.27 53.30 35.31 50.57 36.28 C 49.00 38.88 46.85 41.06 44.23 42.61 C 43.33 45.52 41.12 47.74 38.05 48.27 C 37.97 44.09 37.96 39.90 38.07 35.72 C 40.01 36.29 41.76 37.29 43.31 38.59 C 44.44 37.52 45.54 36.42 46.61 35.29 C 43.32 32.49 43.30 27.50 46.61 24.71 C 45.54 23.58 44.45 22.48 43.31 21.41 C 41.77 22.71 40.01 23.71 38.07 24.28 C 37.96 20.10 37.97 15.91 38.05 11.73 Z" />
</g>
</svg>
