<?xml version="1.0" encoding="UTF-8" ?>
<!DOCTYPE svg PUBLIC "-//W3C//DTD SVG 1.1//EN" "http://www.w3.org/Graphics/SVG/1.1/DTD/svg11.dtd">
<svg width="60pt" height="60pt" viewBox="0 0 60 60" version="1.1" xmlns="http://www.w3.org/2000/svg">
<g id="#ffffffff">
<path fill="#ffffff" opacity="1.00" d=" M 0.00 0.00 L 60.00 0.00 L 60.00 60.00 L 0.00 60.00 L 0.00 0.00 M 27.39 6.43 C 21.29 7.73 15.15 8.79 9.07 10.17 C 6.89 10.57 5.77 12.87 6.00 14.93 C 6.03 25.32 5.93 35.71 6.05 46.09 C 5.98 48.28 7.97 49.87 10.01 50.07 C 16.32 51.34 22.63 52.63 28.96 53.85 C 31.80 54.74 34.52 51.83 34.00 49.05 C 33.93 35.72 34.15 22.38 33.89 9.05 C 33.20 6.13 29.86 5.47 27.39 6.43 M 38.00 10.00 C 38.00 12.00 38.00 14.00 38.00 16.00 C 40.98 16.10 43.99 15.77 46.95 16.19 C 48.36 16.99 48.32 19.18 46.82 19.84 C 43.89 20.20 40.93 19.92 38.00 20.00 C 38.00 21.33 38.00 22.67 38.00 24.00 C 40.94 24.08 43.89 23.81 46.82 24.15 C 48.35 24.80 48.37 27.12 46.87 27.82 C 43.93 28.22 40.95 27.91 38.00 28.00 C 38.00 29.33 38.00 30.67 38.00 32.00 C 40.95 32.09 43.93 31.79 46.87 32.17 C 48.35 32.87 48.35 35.18 46.82 35.84 C 43.90 36.20 40.94 35.92 38.00 36.00 C 38.00 37.33 38.00 38.67 38.00 40.00 C 40.95 40.08 43.92 39.79 46.86 40.17 C 48.33 40.87 48.36 43.09 46.89 43.81 C 43.95 44.23 40.96 43.90 38.00 44.00 C 38.00 46.00 38.00 48.00 38.00 50.00 C 42.03 49.96 46.06 50.07 50.08 49.96 C 52.09 50.01 53.98 48.14 53.96 46.13 C 54.06 35.74 53.97 25.35 54.00 14.96 C 54.36 12.65 52.66 9.96 50.15 10.04 C 46.10 9.92 42.05 10.04 38.00 10.00 Z" />
<path fill="#ffffff" opacity="1.00" d=" M 10.53 20.00 C 11.46 20.00 13.32 20.00 14.25 20.00 C 14.91 24.52 15.47 29.06 16.21 33.57 C 17.11 29.08 17.67 24.52 18.61 20.03 C 19.31 20.02 20.72 19.99 21.42 19.97 C 22.24 24.50 22.96 29.04 23.87 33.55 C 24.56 29.04 25.14 24.52 25.78 20.00 C 26.70 20.00 28.55 20.00 29.47 20.00 C 28.26 26.67 27.00 33.33 25.80 40.00 C 24.67 39.98 23.54 39.98 22.42 39.99 C 21.55 35.96 21.08 31.84 19.95 27.87 C 19.03 31.89 18.39 35.95 17.59 39.99 C 16.46 39.98 15.33 39.99 14.20 40.00 C 12.99 33.33 11.75 26.67 10.53 20.00 Z" />
</g>
<g id="#000000ff">
<path fill="#000000" opacity="1.00" d=" M 27.39 6.43 C 29.86 5.47 33.20 6.13 33.89 9.05 C 34.15 22.38 33.93 35.72 34.00 49.05 C 34.52 51.83 31.80 54.74 28.96 53.85 C 22.63 52.63 16.32 51.34 10.01 50.07 C 7.97 49.87 5.98 48.28 6.05 46.09 C 5.93 35.71 6.03 25.32 6.00 14.93 C 5.77 12.87 6.89 10.57 9.07 10.17 C 15.15 8.79 21.29 7.73 27.39 6.43 M 10.53 20.00 C 11.75 26.67 12.99 33.33 14.20 40.00 C 15.33 39.99 16.46 39.98 17.59 39.99 C 18.39 35.95 19.03 31.89 19.95 27.87 C 21.08 31.84 21.55 35.96 22.42 39.99 C 23.54 39.98 24.67 39.98 25.80 40.00 C 27.00 33.33 28.26 26.67 29.47 20.00 C 28.55 20.00 26.70 20.00 25.78 20.00 C 25.14 24.52 24.56 29.04 23.87 33.55 C 22.96 29.04 22.24 24.50 21.42 19.97 C 20.72 19.99 19.31 20.02 18.61 20.03 C 17.67 24.52 17.11 29.08 16.21 33.57 C 15.47 29.06 14.91 24.52 14.25 20.00 C 13.32 20.00 11.46 20.00 10.53 20.00 Z" />
<path fill="#000000" opacity="1.00" d=" M 38.00 10.00 C 42.05 10.04 46.10 9.92 50.15 10.04 C 52.66 9.96 54.36 12.65 54.00 14.96 C 53.97 25.35 54.06 35.74 53.96 46.13 C 53.98 48.14 52.09 50.01 50.08 49.96 C 46.06 50.07 42.03 49.96 38.00 50.00 C 38.00 48.00 38.00 46.00 38.00 44.00 C 40.96 43.90 43.95 44.23 46.89 43.81 C 48.36 43.09 48.33 40.87 46.86 40.17 C 43.92 39.79 40.95 40.08 38.00 40.00 C 38.00 38.67 38.00 37.33 38.00 36.00 C 40.94 35.92 43.90 36.20 46.82 35.84 C 48.35 35.18 48.35 32.87 46.87 32.17 C 43.93 31.79 40.95 32.09 38.00 32.00 C 38.00 30.67 38.00 29.33 38.00 28.00 C 40.95 27.91 43.93 28.22 46.87 27.82 C 48.37 27.12 48.35 24.80 46.82 24.15 C 43.89 23.81 40.94 24.08 38.00 24.00 C 38.00 22.67 38.00 21.33 38.00 20.00 C 40.93 19.92 43.89 20.20 46.82 19.84 C 48.32 19.18 48.36 16.99 46.95 16.19 C 43.99 15.77 40.98 16.10 38.00 16.00 C 38.00 14.00 38.00 12.00 38.00 10.00 Z" />
</g>
</svg>
