<?xml version="1.0" encoding="UTF-8" ?>
<!DOCTYPE svg PUBLIC "-//W3C//DTD SVG 1.1//EN" "http://www.w3.org/Graphics/SVG/1.1/DTD/svg11.dtd">
<svg width="60pt" height="60pt" viewBox="0 0 60 60" version="1.1" xmlns="http://www.w3.org/2000/svg">
<g id="#ffffffff">
<path fill="#ffffff" opacity="1.00" d=" M 0.00 0.00 L 60.00 0.00 L 60.00 60.00 L 21.41 60.00 C 21.42 56.02 21.39 52.04 21.44 48.05 C 24.07 50.72 28.54 50.65 31.47 48.54 C 33.44 47.13 34.14 44.71 35.09 42.60 C 35.98 44.64 36.69 47.01 38.74 48.21 C 42.08 50.18 46.18 49.67 49.81 48.96 C 49.78 46.37 49.79 43.78 49.85 41.19 C 48.22 41.18 45.54 41.76 45.26 39.45 C 44.76 30.99 45.20 22.48 45.04 14.01 C 41.31 13.99 37.57 13.99 33.84 14.01 C 33.77 21.01 33.94 28.02 33.76 35.02 C 33.71 38.94 29.54 41.77 25.84 40.68 C 23.14 40.23 21.43 37.54 21.46 34.92 C 21.34 27.95 21.46 20.98 21.41 14.01 C 17.67 14.00 13.93 13.99 10.19 14.02 C 10.21 29.34 10.20 44.67 10.20 60.00 L 0.00 60.00 L 0.00 0.00 Z" />
</g>
<g id="#000000ff">
<path fill="#000000" opacity="1.00" d=" M 10.19 14.02 C 13.93 13.99 17.67 14.00 21.41 14.01 C 21.46 20.98 21.34 27.95 21.46 34.92 C 21.43 37.54 23.14 40.23 25.84 40.68 C 29.54 41.77 33.71 38.94 33.76 35.02 C 33.94 28.02 33.77 21.01 33.84 14.01 C 37.57 13.99 41.31 13.99 45.04 14.01 C 45.20 22.48 44.76 30.99 45.26 39.45 C 45.54 41.76 48.22 41.18 49.85 41.19 C 49.79 43.78 49.78 46.37 49.81 48.96 C 46.18 49.67 42.08 50.18 38.74 48.21 C 36.69 47.01 35.98 44.64 35.09 42.60 C 34.14 44.71 33.44 47.13 31.47 48.54 C 28.54 50.65 24.07 50.72 21.44 48.05 C 21.39 52.04 21.42 56.02 21.41 60.00 L 10.20 60.00 C 10.20 44.67 10.21 29.34 10.19 14.02 Z" />
</g>
</svg>
