<?xml version="1.0" encoding="UTF-8" ?>
<!DOCTYPE svg PUBLIC "-//W3C//DTD SVG 1.1//EN" "http://www.w3.org/Graphics/SVG/1.1/DTD/svg11.dtd">
<svg width="60pt" height="60pt" viewBox="0 0 60 60" version="1.1" xmlns="http://www.w3.org/2000/svg">
<g id="#ffffffff">
<path fill="#ffffff" opacity="1.00" d=" M 0.00 0.00 L 60.00 0.00 L 60.00 60.00 L 0.00 60.00 L 0.00 0.00 M 9.19 9.18 C 7.67 10.65 8.15 13.03 7.96 14.94 C 8.12 25.95 7.82 36.98 8.09 47.99 C 7.78 50.77 10.59 51.57 12.62 52.40 C 11.55 44.98 12.13 37.47 12.00 30.00 C 12.12 22.53 11.57 15.02 12.60 7.60 C 11.46 8.11 10.30 8.59 9.19 9.18 M 16.39 10.37 C 15.74 13.20 16.02 16.13 15.97 19.01 C 16.13 28.67 15.81 38.33 16.09 47.99 C 15.78 50.78 18.59 51.57 20.63 52.39 C 19.54 44.97 20.13 37.47 20.00 30.00 C 20.12 22.53 19.57 15.03 20.60 7.60 C 19.18 8.45 17.00 8.59 16.39 10.37 M 26.38 8.38 C 23.67 9.33 24.07 12.67 23.96 14.94 C 24.12 25.96 23.82 36.98 24.09 47.99 C 23.93 50.21 25.81 52.03 28.01 51.91 C 34.66 52.10 41.34 52.10 47.98 51.91 C 50.17 52.03 52.03 50.17 51.91 47.99 C 52.20 37.66 51.86 27.32 52.04 16.99 C 51.93 14.57 52.32 11.97 51.31 9.69 C 49.67 7.40 46.45 8.17 44.03 7.96 C 38.15 8.23 32.20 7.48 26.38 8.38 Z" />
<path fill="#ffffff" opacity="1.00" d=" M 28.00 12.00 C 34.67 12.00 41.33 12.00 48.00 12.00 C 48.00 23.32 48.00 34.64 48.00 45.96 C 46.08 46.00 44.17 46.02 42.25 46.06 C 41.89 46.53 41.15 47.49 40.78 47.97 C 38.93 47.97 37.07 47.97 35.22 47.97 C 34.85 47.49 34.11 46.54 33.74 46.06 C 31.83 46.03 29.92 46.00 28.00 45.97 C 28.00 34.64 28.00 23.32 28.00 12.00 Z" />
</g>
<g id="#000000ff">
<path fill="#000000" opacity="1.00" d=" M 9.19 9.18 C 10.30 8.59 11.46 8.11 12.60 7.60 C 11.57 15.02 12.12 22.53 12.00 30.00 C 12.13 37.47 11.55 44.98 12.62 52.40 C 10.59 51.57 7.78 50.77 8.09 47.99 C 7.82 36.98 8.12 25.95 7.96 14.94 C 8.15 13.03 7.67 10.65 9.19 9.18 Z" />
<path fill="#000000" opacity="1.00" d=" M 16.39 10.37 C 17.00 8.59 19.18 8.45 20.60 7.60 C 19.57 15.03 20.12 22.53 20.00 30.00 C 20.13 37.47 19.54 44.97 20.63 52.39 C 18.59 51.57 15.78 50.78 16.09 47.99 C 15.81 38.33 16.13 28.67 15.97 19.01 C 16.02 16.13 15.74 13.20 16.39 10.37 Z" />
<path fill="#000000" opacity="1.00" d=" M 26.38 8.38 C 32.20 7.48 38.15 8.23 44.03 7.96 C 46.45 8.17 49.67 7.40 51.31 9.69 C 52.32 11.97 51.93 14.57 52.04 16.99 C 51.86 27.32 52.20 37.66 51.91 47.99 C 52.03 50.17 50.17 52.03 47.98 51.91 C 41.34 52.10 34.66 52.10 28.01 51.91 C 25.81 52.03 23.93 50.21 24.09 47.99 C 23.82 36.98 24.12 25.96 23.96 14.94 C 24.07 12.67 23.67 9.33 26.38 8.38 M 28.00 12.00 C 28.00 23.32 28.00 34.64 28.00 45.97 C 29.92 46.00 31.83 46.03 33.74 46.06 C 34.11 46.54 34.85 47.49 35.22 47.97 C 37.07 47.97 38.93 47.97 40.78 47.97 C 41.15 47.49 41.89 46.53 42.25 46.06 C 44.17 46.02 46.08 46.00 48.00 45.96 C 48.00 34.64 48.00 23.32 48.00 12.00 C 41.33 12.00 34.67 12.00 28.00 12.00 Z" />
</g>
</svg>
