<?xml version="1.0" encoding="UTF-8" ?>
<!DOCTYPE svg PUBLIC "-//W3C//DTD SVG 1.1//EN" "http://www.w3.org/Graphics/SVG/1.1/DTD/svg11.dtd">
<svg width="64pt" height="64pt" viewBox="0 0 64 64" version="1.1" xmlns="http://www.w3.org/2000/svg">
<g id="#ffffffff">
<path fill="#ffffff" opacity="1.00" d=" M 0.00 0.00 L 64.00 0.00 L 64.00 64.00 L 0.00 64.00 L 0.00 0.00 M 14.56 17.44 C 19.42 22.28 24.27 27.14 29.12 32.00 C 24.28 36.86 19.42 41.71 14.57 46.56 C 15.54 47.51 16.51 48.47 17.49 49.43 C 22.31 44.57 27.17 39.74 32.02 34.89 C 36.86 39.73 41.71 44.57 46.54 49.43 C 47.51 48.47 48.48 47.52 49.45 46.56 C 44.63 41.68 39.74 36.87 34.91 32.00 C 39.74 27.13 44.62 22.31 49.45 17.44 C 48.49 16.48 47.53 15.52 46.58 14.55 C 41.72 19.40 36.88 24.26 32.01 29.11 C 27.16 24.26 22.30 19.42 17.46 14.56 C 16.50 15.52 15.53 16.48 14.56 17.44 Z" />
</g>
<g id="#000000ff">
<path fill="#000000" opacity="1.00" d=" M 14.56 17.44 C 15.53 16.48 16.50 15.52 17.46 14.56 C 22.30 19.42 27.16 24.26 32.01 29.11 C 36.88 24.26 41.72 19.40 46.58 14.55 C 47.53 15.52 48.49 16.48 49.45 17.44 C 44.62 22.31 39.74 27.13 34.91 32.00 C 39.74 36.87 44.63 41.68 49.45 46.56 C 48.48 47.52 47.51 48.47 46.54 49.43 C 41.71 44.57 36.86 39.73 32.02 34.89 C 27.17 39.74 22.31 44.57 17.49 49.43 C 16.51 48.47 15.54 47.51 14.57 46.56 C 19.42 41.71 24.28 36.86 29.12 32.00 C 24.27 27.14 19.42 22.28 14.56 17.44 Z" />
</g>
</svg>
