<?xml version="1.0" encoding="UTF-8" ?>
<!DOCTYPE svg PUBLIC "-//W3C//DTD SVG 1.1//EN" "http://www.w3.org/Graphics/SVG/1.1/DTD/svg11.dtd">
<svg width="60pt" height="60pt" viewBox="0 0 60 60" version="1.1" xmlns="http://www.w3.org/2000/svg">
<g id="#ffffffff">
<path fill="#ffffff" opacity="1.00" d=" M 0.00 0.00 L 60.00 0.00 L 60.00 60.00 L 0.00 60.00 L 0.00 0.00 M 50.36 8.38 C 45.59 10.26 49.02 17.97 53.60 15.63 C 58.43 13.79 54.96 5.95 50.36 8.38 M 48.14 21.91 C 41.74 22.24 35.31 21.73 28.92 22.13 C 26.00 22.51 24.24 25.28 23.82 28.00 C 21.13 28.00 18.45 28.01 15.76 27.98 C 14.31 24.69 10.08 22.79 6.89 24.88 C 2.88 27.06 3.19 33.61 7.40 35.39 C 10.61 37.08 14.36 35.02 15.82 31.98 C 18.55 31.99 21.27 32.02 24.00 32.00 C 24.05 36.03 23.90 40.07 24.04 44.10 C 23.97 47.22 26.78 50.01 29.90 49.96 C 35.98 50.17 42.09 49.79 48.16 50.10 C 49.77 51.13 51.66 52.82 53.66 51.60 C 56.72 50.36 56.69 45.61 53.66 44.36 C 51.71 43.33 49.70 44.57 48.35 45.96 C 41.96 45.93 35.54 46.20 29.16 45.84 C 28.90 45.59 28.40 45.08 28.15 44.82 C 27.88 38.97 27.90 33.08 28.14 27.23 C 28.38 26.96 28.85 26.43 29.09 26.16 C 35.41 25.84 41.77 25.98 48.10 26.08 C 49.84 27.35 52.24 28.98 54.28 27.23 C 57.14 25.47 56.13 20.69 52.88 20.09 C 51.01 19.52 49.61 21.09 48.14 21.91 M 50.43 32.34 C 45.54 34.16 49.01 42.05 53.64 39.61 C 58.36 37.75 55.02 30.06 50.43 32.34 Z" />
</g>
<g id="#000000ff">
<path fill="#000000" opacity="1.00" d=" M 50.36 8.38 C 54.96 5.95 58.43 13.79 53.60 15.63 C 49.02 17.97 45.59 10.26 50.36 8.38 Z" />
<path fill="#000000" opacity="1.00" d=" M 48.14 21.91 C 49.61 21.09 51.01 19.52 52.88 20.09 C 56.13 20.69 57.14 25.47 54.28 27.23 C 52.24 28.98 49.84 27.35 48.10 26.08 C 41.77 25.98 35.41 25.84 29.09 26.16 C 28.85 26.43 28.38 26.96 28.14 27.23 C 27.90 33.08 27.88 38.97 28.15 44.82 C 28.40 45.08 28.90 45.59 29.16 45.84 C 35.54 46.20 41.96 45.93 48.35 45.96 C 49.70 44.57 51.71 43.33 53.66 44.36 C 56.69 45.61 56.72 50.36 53.66 51.60 C 51.66 52.82 49.77 51.13 48.16 50.10 C 42.09 49.79 35.98 50.17 29.90 49.96 C 26.78 50.01 23.97 47.22 24.04 44.10 C 23.90 40.07 24.05 36.03 24.00 32.00 C 21.27 32.02 18.55 31.99 15.82 31.98 C 14.36 35.02 10.61 37.08 7.40 35.39 C 3.19 33.61 2.88 27.06 6.89 24.88 C 10.08 22.79 14.31 24.69 15.76 27.98 C 18.45 28.01 21.13 28.00 23.82 28.00 C 24.24 25.28 26.00 22.51 28.92 22.13 C 35.31 21.73 41.74 22.24 48.14 21.91 Z" />
<path fill="#000000" opacity="1.00" d=" M 50.43 32.34 C 55.02 30.06 58.36 37.75 53.64 39.61 C 49.01 42.05 45.54 34.16 50.43 32.34 Z" />
</g>
</svg>
