<?xml version="1.0" encoding="UTF-8" ?>
<!DOCTYPE svg PUBLIC "-//W3C//DTD SVG 1.1//EN" "http://www.w3.org/Graphics/SVG/1.1/DTD/svg11.dtd">
<svg width="60pt" height="60pt" viewBox="0 0 60 60" version="1.1" xmlns="http://www.w3.org/2000/svg">
<g id="#ffffffff">
<path fill="#ffffff" opacity="1.00" d=" M 0.00 0.00 L 60.00 0.00 L 60.00 60.00 L 0.00 60.00 L 0.00 0.00 M 10.33 8.39 C 8.60 9.17 7.80 11.12 8.00 12.93 C 8.03 24.66 7.93 36.40 8.05 48.13 C 7.95 50.64 10.59 52.33 12.91 52.00 C 24.65 51.97 36.40 52.07 48.14 51.95 C 50.63 51.98 52.36 49.37 52.00 47.03 C 51.97 35.35 52.06 23.65 51.96 11.97 C 52.00 9.88 50.15 7.92 48.03 8.04 C 37.03 7.92 26.02 8.06 15.02 7.98 C 13.46 8.08 11.80 7.77 10.33 8.39 Z" />
<path fill="#ffffff" opacity="1.00" d=" M 18.18 20.79 C 17.41 19.20 19.16 17.46 20.76 18.13 C 24.04 20.93 26.90 24.18 30.02 27.16 C 33.10 24.24 35.89 20.98 39.14 18.23 C 40.98 17.08 43.08 19.98 41.39 21.34 C 38.69 24.36 35.66 27.07 32.85 30.00 C 35.77 33.11 39.06 35.87 41.78 39.16 C 42.72 40.69 40.71 42.70 39.17 41.79 C 35.90 39.04 33.12 35.77 30.02 32.83 C 26.91 35.80 24.06 39.05 20.79 41.84 C 19.16 42.57 17.42 40.81 18.18 39.19 C 20.96 35.93 24.22 33.10 27.18 30.00 C 24.22 26.89 20.96 24.07 18.18 20.79 Z" />
</g>
<g id="#000000ff">
<path fill="#000000" opacity="1.00" d=" M 10.33 8.39 C 11.80 7.77 13.46 8.08 15.02 7.98 C 26.02 8.06 37.03 7.92 48.03 8.04 C 50.15 7.92 52.00 9.88 51.96 11.97 C 52.06 23.65 51.97 35.35 52.00 47.03 C 52.36 49.37 50.63 51.98 48.14 51.95 C 36.40 52.07 24.65 51.97 12.91 52.00 C 10.59 52.33 7.95 50.64 8.05 48.13 C 7.93 36.40 8.03 24.66 8.00 12.93 C 7.80 11.12 8.60 9.17 10.33 8.39 M 18.18 20.79 C 20.96 24.07 24.22 26.89 27.18 30.00 C 24.22 33.10 20.96 35.93 18.18 39.19 C 17.42 40.81 19.16 42.57 20.79 41.84 C 24.06 39.05 26.91 35.80 30.02 32.83 C 33.12 35.77 35.90 39.04 39.17 41.79 C 40.71 42.70 42.72 40.69 41.78 39.16 C 39.06 35.87 35.77 33.11 32.85 30.00 C 35.66 27.07 38.69 24.36 41.39 21.34 C 43.08 19.98 40.98 17.08 39.14 18.23 C 35.89 20.98 33.10 24.24 30.02 27.16 C 26.90 24.18 24.04 20.93 20.76 18.13 C 19.16 17.46 17.41 19.20 18.18 20.79 Z" />
</g>
</svg>
