<?xml version="1.0" encoding="UTF-8" ?>
<!DOCTYPE svg PUBLIC "-//W3C//DTD SVG 1.1//EN" "http://www.w3.org/Graphics/SVG/1.1/DTD/svg11.dtd">
<svg width="60pt" height="60pt" viewBox="0 0 60 60" version="1.1" xmlns="http://www.w3.org/2000/svg">
<g id="#ffffffff">
<path fill="#ffffff" opacity="1.00" d=" M 0.00 0.00 L 60.00 0.00 L 60.00 60.00 L 0.00 60.00 L 0.00 0.00 M 10.38 17.17 C 7.37 23.36 7.90 30.46 8.13 37.14 C 8.24 39.93 10.14 42.17 12.40 43.60 C 15.24 49.78 20.75 55.28 27.82 55.86 C 35.43 56.99 42.81 52.47 46.42 45.92 C 47.09 49.35 47.18 54.10 51.01 55.61 C 52.45 55.24 53.43 53.80 52.50 52.44 C 50.84 49.29 50.51 45.72 49.64 42.32 C 51.20 40.19 52.18 37.68 52.00 34.99 C 51.89 29.83 52.42 24.57 51.27 19.49 C 50.41 15.60 46.63 13.64 44.30 10.73 C 40.73 6.63 35.45 3.93 29.95 4.03 C 21.53 3.91 13.78 9.62 10.38 17.17 Z" />
<path fill="#ffffff" opacity="1.00" d=" M 12.94 21.36 C 15.27 14.45 21.36 8.48 28.90 8.07 C 33.28 7.50 37.37 9.60 40.57 12.40 C 33.89 11.89 27.01 11.85 20.51 13.67 C 18.33 14.58 19.75 18.20 22.01 17.24 C 29.54 15.89 37.35 15.50 44.85 17.27 C 46.67 17.63 46.95 19.83 47.78 21.16 C 36.39 18.05 24.36 18.80 12.94 21.36 Z" />
<path fill="#ffffff" opacity="1.00" d=" M 12.08 25.76 C 23.76 22.87 36.30 21.86 47.94 25.47 C 47.97 26.65 47.99 27.84 48.02 29.02 C 36.04 27.69 23.88 27.54 11.98 29.65 C 12.00 28.68 12.05 26.74 12.08 25.76 Z" />
<path fill="#ffffff" opacity="1.00" d=" M 17.79 31.96 C 19.98 32.51 22.13 33.17 24.29 33.84 C 23.27 35.01 21.97 36.52 20.21 35.85 C 18.41 35.43 18.16 33.45 17.79 31.96 Z" />
<path fill="#ffffff" opacity="1.00" d=" M 35.69 33.84 C 37.85 33.20 40.03 32.58 42.22 32.01 C 41.84 33.48 41.54 35.43 39.78 35.84 C 38.02 36.52 36.73 34.99 35.69 33.84 Z" />
<path fill="#ffffff" opacity="1.00" d=" M 11.73 37.27 C 19.77 40.68 28.58 40.10 37.11 39.91 C 40.99 39.83 44.63 38.38 48.29 37.24 C 47.36 38.71 46.08 39.85 44.50 40.57 C 42.47 45.93 38.20 51.08 32.19 51.82 C 27.33 52.73 22.49 50.59 19.18 47.09 C 25.34 48.36 31.85 48.76 37.97 47.05 C 40.36 46.66 39.37 42.53 37.05 43.35 C 28.42 44.87 17.47 45.19 11.73 37.27 Z" />
</g>
<g id="#000000ff">
<path fill="#968176" opacity="1.00" d=" M 10.38 17.17 C 13.78 9.62 21.53 3.91 29.95 4.03 C 35.45 3.93 40.73 6.63 44.30 10.73 C 46.63 13.64 50.41 15.60 51.27 19.49 C 52.42 24.57 51.89 29.83 52.00 34.99 C 52.18 37.68 51.20 40.19 49.64 42.32 C 50.51 45.72 50.84 49.29 52.50 52.44 C 53.43 53.80 52.45 55.24 51.01 55.61 C 47.18 54.10 47.09 49.35 46.42 45.92 C 42.81 52.47 35.43 56.99 27.82 55.86 C 20.75 55.28 15.24 49.78 12.40 43.60 C 10.14 42.17 8.24 39.93 8.13 37.14 C 7.90 30.46 7.37 23.36 10.38 17.17 M 12.94 21.36 C 24.36 18.80 36.39 18.05 47.78 21.16 C 46.95 19.83 46.67 17.63 44.85 17.27 C 37.35 15.50 29.54 15.89 22.01 17.24 C 19.75 18.20 18.33 14.58 20.51 13.67 C 27.01 11.85 33.89 11.89 40.57 12.40 C 37.37 9.60 33.28 7.50 28.90 8.07 C 21.36 8.48 15.27 14.45 12.94 21.36 M 12.08 25.76 C 12.05 26.74 12.00 28.68 11.98 29.65 C 23.88 27.54 36.04 27.69 48.02 29.02 C 47.99 27.84 47.97 26.65 47.94 25.47 C 36.30 21.86 23.76 22.87 12.08 25.76 M 17.79 31.96 C 18.16 33.45 18.41 35.43 20.21 35.85 C 21.97 36.52 23.27 35.01 24.29 33.84 C 22.13 33.17 19.98 32.51 17.79 31.96 M 35.69 33.84 C 36.73 34.99 38.02 36.52 39.78 35.84 C 41.54 35.43 41.84 33.48 42.22 32.01 C 40.03 32.58 37.85 33.20 35.69 33.84 M 11.73 37.27 C 17.47 45.19 28.42 44.87 37.05 43.35 C 39.37 42.53 40.36 46.66 37.97 47.05 C 31.85 48.76 25.34 48.36 19.18 47.09 C 22.49 50.59 27.33 52.73 32.19 51.82 C 38.20 51.08 42.47 45.93 44.50 40.57 C 46.08 39.85 47.36 38.71 48.29 37.24 C 44.63 38.38 40.99 39.83 37.11 39.91 C 28.58 40.10 19.77 40.68 11.73 37.27 Z" />
</g>
</svg>
