<?xml version="1.0" encoding="UTF-8" ?>
<!DOCTYPE svg PUBLIC "-//W3C//DTD SVG 1.1//EN" "http://www.w3.org/Graphics/SVG/1.1/DTD/svg11.dtd">
<svg width="64pt" height="64pt" viewBox="0 0 64 64" version="1.1" xmlns="http://www.w3.org/2000/svg">
<g id="#ffffffff">
<path fill="#ffffff" opacity="1.00" d=" M 0.00 0.00 L 64.00 0.00 L 64.00 27.63 C 63.15 23.42 58.28 20.55 54.27 22.17 C 51.65 24.35 49.76 27.25 47.47 29.75 C 42.34 28.37 38.24 25.10 35.01 20.99 C 35.40 20.78 35.79 20.57 36.18 20.35 C 38.66 22.37 41.37 25.33 44.92 24.34 C 48.17 23.44 51.63 19.12 49.05 15.95 C 46.40 13.18 43.01 11.25 39.80 9.21 C 35.63 6.19 30.92 10.01 26.72 11.08 C 24.87 4.76 15.91 2.51 11.42 7.42 C 6.91 11.43 8.63 18.92 13.83 21.48 C 10.49 23.06 7.73 18.25 4.25 19.36 C 2.01 20.08 0.73 22.26 0.00 24.36 L 0.00 0.00 Z" />
<path fill="#ffffff" opacity="1.00" d=" M 12.95 14.94 C 11.60 11.15 16.45 7.36 19.89 9.18 C 23.45 9.81 22.17 15.36 26.01 15.37 C 29.56 14.55 32.89 13.01 36.32 11.83 C 39.76 13.85 43.12 16.02 46.21 18.56 C 45.48 19.23 44.74 19.89 43.98 20.52 C 40.34 20.69 38.62 14.24 34.78 16.61 C 32.98 17.77 29.32 18.09 29.65 20.91 C 31.36 23.30 33.61 25.24 35.57 27.41 C 38.62 31.13 43.48 32.66 47.94 33.90 C 51.67 32.46 53.53 28.34 56.21 25.56 C 57.99 25.89 59.68 26.72 60.15 28.63 C 56.81 32.34 53.61 36.16 50.44 40.01 C 46.55 38.40 42.82 36.44 38.90 34.90 C 36.99 33.98 34.77 35.57 34.43 37.51 C 33.95 39.47 32.69 41.91 34.35 43.65 C 38.52 46.52 43.35 48.25 47.65 50.90 C 47.41 52.93 46.84 54.97 44.98 56.08 C 39.75 53.20 34.52 50.34 29.22 47.60 C 29.27 43.13 29.91 38.64 29.51 34.17 C 27.56 30.66 24.90 27.48 21.90 24.82 C 21.43 24.79 20.51 24.71 20.05 24.68 C 18.08 26.80 16.84 29.46 15.27 31.86 C 11.57 30.71 7.86 29.47 4.44 27.62 C 3.56 26.12 4.18 24.38 5.05 23.05 C 7.96 24.23 10.70 26.53 13.95 26.39 C 15.97 24.90 18.24 22.69 18.24 20.01 C 17.90 16.98 13.66 17.69 12.95 14.94 Z" />
<path fill="#ffffff" opacity="1.00" d=" M 0.00 26.51 C 0.26 28.61 1.25 30.75 3.32 31.58 C 7.36 33.42 11.51 35.37 15.96 35.88 C 18.88 35.36 19.65 31.77 21.32 29.72 C 22.81 31.56 24.28 33.43 25.72 35.31 C 25.97 40.21 24.33 45.45 25.98 50.13 C 31.29 53.55 37.10 56.18 42.60 59.30 C 48.97 62.32 54.80 51.53 49.54 47.46 C 45.90 44.90 41.54 43.61 37.90 41.06 C 37.90 40.50 37.90 39.39 37.89 38.84 C 41.74 40.33 45.33 42.42 49.24 43.72 C 51.92 44.70 53.90 42.17 55.38 40.37 C 58.18 36.68 61.69 33.54 64.00 29.50 L 64.00 64.00 L 0.00 64.00 L 0.00 26.51 M 4.52 36.58 C 2.01 36.70 2.65 40.83 5.05 40.24 C 7.62 40.12 6.90 36.02 4.52 36.58 M 12.08 39.34 C 9.80 41.44 8.45 44.26 7.99 47.31 C 3.90 47.99 1.09 52.85 3.65 56.48 C 5.69 59.83 10.40 59.69 13.03 57.15 C 17.46 59.71 23.09 59.00 26.89 55.64 C 24.59 54.21 21.88 52.59 21.45 49.63 C 20.97 45.47 21.56 41.26 21.71 37.09 C 19.21 39.79 15.50 40.45 12.08 39.34 Z" />
</g>
<g id="#000000ff">
<path fill="#000000" opacity="1.00" d=" M 11.42 7.42 C 15.91 2.51 24.87 4.76 26.72 11.08 C 30.92 10.01 35.63 6.19 39.80 9.21 C 43.01 11.25 46.40 13.18 49.05 15.95 C 51.63 19.12 48.17 23.44 44.92 24.34 C 41.37 25.33 38.66 22.37 36.18 20.35 C 35.79 20.57 35.40 20.78 35.01 20.99 C 38.24 25.10 42.34 28.37 47.47 29.75 C 49.76 27.25 51.65 24.35 54.27 22.17 C 58.28 20.55 63.15 23.42 64.00 27.63 L 64.00 29.50 C 61.69 33.54 58.18 36.68 55.38 40.37 C 53.90 42.17 51.92 44.70 49.24 43.72 C 45.33 42.42 41.74 40.33 37.89 38.84 C 37.90 39.39 37.90 40.50 37.90 41.06 C 41.54 43.61 45.90 44.90 49.54 47.46 C 54.80 51.53 48.97 62.32 42.60 59.30 C 37.10 56.18 31.29 53.55 25.98 50.13 C 24.33 45.45 25.97 40.21 25.72 35.31 C 24.28 33.43 22.81 31.56 21.32 29.72 C 19.65 31.77 18.88 35.36 15.96 35.88 C 11.51 35.37 7.36 33.42 3.32 31.58 C 1.25 30.75 0.26 28.61 0.00 26.51 L 0.00 24.36 C 0.73 22.26 2.01 20.08 4.25 19.36 C 7.73 18.25 10.49 23.06 13.83 21.48 C 8.63 18.92 6.91 11.43 11.42 7.42 M 12.95 14.94 C 13.66 17.69 17.90 16.98 18.24 20.01 C 18.24 22.69 15.97 24.90 13.95 26.39 C 10.70 26.53 7.96 24.23 5.05 23.05 C 4.18 24.38 3.56 26.12 4.44 27.62 C 7.86 29.47 11.57 30.71 15.27 31.86 C 16.84 29.46 18.08 26.80 20.05 24.68 C 20.51 24.71 21.43 24.79 21.90 24.82 C 24.90 27.48 27.56 30.66 29.51 34.17 C 29.91 38.64 29.27 43.13 29.22 47.60 C 34.52 50.34 39.75 53.20 44.98 56.08 C 46.84 54.97 47.41 52.93 47.65 50.90 C 43.35 48.25 38.52 46.52 34.35 43.65 C 32.69 41.91 33.95 39.47 34.43 37.51 C 34.77 35.57 36.99 33.98 38.90 34.90 C 42.82 36.44 46.55 38.40 50.44 40.01 C 53.61 36.16 56.81 32.34 60.15 28.63 C 59.68 26.72 57.99 25.89 56.21 25.56 C 53.53 28.34 51.67 32.46 47.94 33.90 C 43.48 32.66 38.62 31.13 35.57 27.41 C 33.61 25.24 31.36 23.30 29.65 20.91 C 29.32 18.09 32.98 17.77 34.78 16.61 C 38.62 14.24 40.34 20.69 43.98 20.52 C 44.74 19.89 45.48 19.23 46.21 18.56 C 43.12 16.02 39.76 13.85 36.32 11.83 C 32.89 13.01 29.56 14.55 26.01 15.37 C 22.17 15.36 23.45 9.81 19.89 9.18 C 16.45 7.36 11.60 11.15 12.95 14.94 Z" />
<path fill="#000000" opacity="1.00" d=" M 4.52 36.58 C 6.90 36.02 7.62 40.12 5.05 40.24 C 2.65 40.83 2.01 36.70 4.52 36.58 Z" />
<path fill="#000000" opacity="1.00" d=" M 12.08 39.34 C 15.50 40.45 19.21 39.79 21.71 37.09 C 21.56 41.26 20.97 45.47 21.45 49.63 C 21.88 52.59 24.59 54.21 26.89 55.64 C 23.09 59.00 17.46 59.71 13.03 57.15 C 10.40 59.69 5.69 59.83 3.65 56.48 C 1.09 52.85 3.90 47.99 7.99 47.31 C 8.45 44.26 9.80 41.44 12.08 39.34 Z" />
</g>
</svg>
