<?xml version="1.0" encoding="UTF-8" ?>
<!DOCTYPE svg PUBLIC "-//W3C//DTD SVG 1.1//EN" "http://www.w3.org/Graphics/SVG/1.1/DTD/svg11.dtd">
<svg width="64pt" height="64pt" viewBox="0 0 64 64" version="1.1" xmlns="http://www.w3.org/2000/svg">
<g id="#ffffffff">
<path fill="#ffffff" opacity="1.00" d=" M 0.00 0.00 L 64.00 0.00 L 64.00 64.00 L 0.00 64.00 L 0.00 0.00 M 25.20 11.01 C 20.27 8.50 14.33 11.65 13.32 17.00 C 10.14 18.30 7.20 21.34 8.14 25.06 C 8.98 29.87 15.01 32.06 19.01 29.45 C 22.28 32.08 24.92 35.47 25.97 39.60 C 23.53 40.63 19.79 41.57 19.94 44.93 C 20.20 47.39 22.85 48.14 24.59 49.31 C 22.61 50.73 20.37 51.70 17.99 52.22 C 18.00 53.53 18.02 54.85 18.04 56.17 C 22.33 55.69 26.47 53.71 28.74 49.90 C 30.92 49.94 33.09 49.94 35.26 49.90 C 37.52 53.72 41.67 55.69 45.96 56.17 C 45.98 54.85 45.99 53.53 46.01 52.22 C 43.63 51.70 41.38 50.74 39.40 49.31 C 41.41 48.12 44.47 46.96 44.05 44.04 C 43.38 41.27 40.27 40.58 38.05 39.53 C 39.33 34.14 44.23 31.01 48.97 28.94 C 51.08 28.30 53.31 27.44 54.54 25.48 C 57.10 22.05 56.10 16.72 52.53 14.39 C 50.69 12.95 48.30 12.95 46.09 12.90 C 43.66 10.21 39.91 8.70 36.44 10.46 C 33.27 7.14 28.10 7.62 25.20 11.01 Z" />
<path fill="#ffffff" opacity="1.00" d=" M 30.26 12.17 C 32.81 11.45 34.26 13.94 35.43 15.72 C 37.09 14.72 38.83 13.07 40.94 13.80 C 42.82 14.28 43.38 16.31 44.30 17.76 C 46.96 16.46 51.14 16.51 51.90 20.05 C 52.77 23.55 48.99 25.47 46.02 25.08 C 44.90 26.31 43.95 28.17 42.01 28.06 C 39.92 28.26 38.81 26.26 37.61 24.93 C 35.07 26.59 32.11 26.54 29.65 24.74 C 28.25 26.41 26.59 28.48 24.12 28.02 C 21.61 27.80 20.49 25.31 19.26 23.48 C 17.78 24.82 16.43 27.38 14.05 26.45 C 12.09 25.97 11.33 23.24 12.78 21.84 C 14.02 20.52 16.06 21.11 17.65 20.86 C 17.29 18.65 16.92 15.69 19.44 14.58 C 22.30 12.95 24.68 15.72 26.46 17.59 C 27.35 15.63 27.67 12.61 30.26 12.17 Z" />
<path fill="#ffffff" opacity="1.00" d=" M 26.84 31.78 C 27.90 31.18 28.95 30.58 30.01 29.97 C 30.00 31.98 30.00 33.99 30.00 36.00 C 31.33 36.00 32.66 36.00 34.00 36.00 C 34.00 34.04 34.00 32.09 34.04 30.14 C 35.60 29.74 37.13 29.82 38.45 30.83 C 34.71 34.95 33.43 40.53 34.05 45.97 C 32.68 45.97 31.31 45.97 29.95 45.97 C 30.38 41.03 29.57 35.99 26.84 31.78 Z" />
<path fill="#ffffff" opacity="1.00" d=" M 25.05 44.27 C 25.69 44.93 25.69 44.93 25.05 44.27 Z" />
<path fill="#ffffff" opacity="1.00" d=" M 38.31 44.29 C 39.04 44.87 39.04 44.87 38.31 44.29 Z" />
</g>
<g id="#000000ff">
<path fill="#000000" opacity="1.00" d=" M 25.20 11.01 C 28.10 7.62 33.27 7.14 36.44 10.46 C 39.91 8.70 43.66 10.21 46.09 12.90 C 48.30 12.95 50.69 12.95 52.53 14.39 C 56.10 16.72 57.10 22.05 54.54 25.48 C 53.31 27.44 51.08 28.30 48.97 28.94 C 44.23 31.01 39.33 34.14 38.05 39.53 C 40.27 40.58 43.38 41.27 44.05 44.04 C 44.47 46.96 41.41 48.12 39.40 49.31 C 41.38 50.74 43.63 51.70 46.01 52.22 C 45.99 53.53 45.98 54.85 45.96 56.17 C 41.67 55.69 37.52 53.72 35.26 49.90 C 33.09 49.94 30.92 49.94 28.74 49.90 C 26.47 53.71 22.33 55.69 18.04 56.17 C 18.02 54.85 18.00 53.53 17.99 52.22 C 20.37 51.70 22.61 50.73 24.59 49.31 C 22.85 48.14 20.20 47.39 19.94 44.93 C 19.79 41.57 23.53 40.63 25.97 39.60 C 24.92 35.47 22.28 32.08 19.01 29.45 C 15.01 32.06 8.98 29.87 8.14 25.06 C 7.20 21.34 10.14 18.30 13.32 17.00 C 14.33 11.65 20.27 8.50 25.20 11.01 M 30.26 12.17 C 27.67 12.61 27.35 15.63 26.46 17.59 C 24.68 15.72 22.30 12.95 19.44 14.58 C 16.92 15.69 17.29 18.65 17.65 20.86 C 16.06 21.11 14.02 20.52 12.78 21.84 C 11.33 23.24 12.09 25.97 14.05 26.45 C 16.43 27.38 17.78 24.82 19.26 23.48 C 20.49 25.31 21.61 27.80 24.12 28.02 C 26.59 28.48 28.25 26.41 29.65 24.74 C 32.11 26.54 35.07 26.59 37.61 24.93 C 38.81 26.26 39.92 28.26 42.01 28.06 C 43.95 28.17 44.90 26.31 46.02 25.08 C 48.99 25.47 52.77 23.55 51.90 20.05 C 51.14 16.51 46.96 16.46 44.30 17.76 C 43.38 16.31 42.82 14.28 40.94 13.80 C 38.83 13.07 37.09 14.72 35.43 15.72 C 34.26 13.94 32.81 11.45 30.26 12.17 M 26.84 31.78 C 29.57 35.99 30.38 41.03 29.95 45.97 C 31.31 45.97 32.68 45.97 34.05 45.97 C 33.43 40.53 34.71 34.95 38.45 30.83 C 37.13 29.82 35.60 29.74 34.04 30.14 C 34.00 32.09 34.00 34.04 34.00 36.00 C 32.66 36.00 31.33 36.00 30.00 36.00 C 30.00 33.99 30.00 31.98 30.01 29.97 C 28.95 30.58 27.90 31.18 26.84 31.78 M 25.05 44.27 C 25.69 44.93 25.69 44.93 25.05 44.27 M 38.31 44.29 C 39.04 44.87 39.04 44.87 38.31 44.29 Z" />
</g>
</svg>
