<?xml version="1.0" encoding="UTF-8" ?>
<!DOCTYPE svg PUBLIC "-//W3C//DTD SVG 1.1//EN" "http://www.w3.org/Graphics/SVG/1.1/DTD/svg11.dtd">
<svg width="64pt" height="64pt" viewBox="0 0 64 64" version="1.1" xmlns="http://www.w3.org/2000/svg">
<g id="#ffffffff">
<path fill="#ffffff" opacity="1.00" d=" M 0.00 0.00 L 64.00 0.00 L 64.00 64.00 L 0.00 64.00 L 0.00 0.00 M 32.00 8.13 C 32.01 18.08 31.98 28.02 32.02 37.97 C 27.12 34.26 19.33 36.16 16.93 41.87 C 14.11 47.47 18.03 54.87 24.19 55.81 C 30.03 57.09 36.12 52.04 35.97 46.07 C 36.06 38.01 35.97 29.95 36.00 21.89 C 41.36 23.82 46.67 25.88 52.00 27.88 C 51.99 23.78 52.03 19.68 51.96 15.58 C 45.31 13.08 38.67 10.58 32.00 8.13 Z" />
<path fill="#ffffff" opacity="1.00" d=" M 36.01 13.86 C 40.01 15.36 44.01 16.86 48.00 18.38 C 48.00 19.63 48.00 20.88 48.00 22.12 C 44.02 20.58 40.01 19.10 36.00 17.63 C 36.00 16.38 36.00 15.12 36.01 13.86 Z" />
<path fill="#ffffff" opacity="1.00" d=" M 23.40 40.59 C 27.52 38.35 32.94 42.43 31.90 47.01 C 31.39 51.08 26.22 53.39 22.83 51.09 C 18.87 48.89 19.21 42.35 23.40 40.59 Z" />
</g>
<g id="#000000ff">
<path fill="#000000" opacity="1.00" d=" M 32.00 8.13 C 38.67 10.58 45.31 13.08 51.96 15.58 C 52.03 19.68 51.99 23.78 52.00 27.88 C 46.67 25.88 41.36 23.82 36.00 21.89 C 35.97 29.95 36.06 38.01 35.97 46.07 C 36.12 52.04 30.03 57.09 24.19 55.81 C 18.03 54.87 14.11 47.47 16.93 41.87 C 19.33 36.16 27.12 34.26 32.02 37.97 C 31.98 28.02 32.01 18.08 32.00 8.13 M 36.01 13.86 C 36.00 15.12 36.00 16.38 36.00 17.63 C 40.01 19.10 44.02 20.58 48.00 22.12 C 48.00 20.88 48.00 19.63 48.00 18.38 C 44.01 16.86 40.01 15.36 36.01 13.86 M 23.40 40.59 C 19.21 42.35 18.87 48.89 22.83 51.09 C 26.22 53.39 31.39 51.08 31.90 47.01 C 32.94 42.43 27.52 38.35 23.40 40.59 Z" />
</g>
</svg>
