<?xml version="1.0" encoding="UTF-8" ?>
<!DOCTYPE svg PUBLIC "-//W3C//DTD SVG 1.1//EN" "http://www.w3.org/Graphics/SVG/1.1/DTD/svg11.dtd">
<svg width="60pt" height="60pt" viewBox="0 0 60 60" version="1.1" xmlns="http://www.w3.org/2000/svg">
<g id="#ffffffff">
<path fill="#ffffff" opacity="1.00" d=" M 0.00 0.00 L 60.00 0.00 L 60.00 60.00 L 0.00 60.00 L 0.00 0.00 M 41.35 6.21 C 37.25 7.07 33.14 7.88 29.08 8.89 C 27.26 9.23 25.94 11.00 26.04 12.83 C 25.94 19.22 26.02 25.61 26.02 32.00 C 25.81 33.50 26.46 35.31 25.48 36.59 C 22.69 38.26 19.06 38.25 16.53 40.46 C 13.55 43.18 13.19 48.26 15.53 51.49 C 17.87 54.60 22.60 54.53 25.75 52.78 C 29.06 50.81 29.93 46.65 29.98 43.08 C 30.04 35.08 29.98 27.08 30.00 19.08 C 34.34 18.04 38.81 17.44 43.05 16.02 C 44.87 13.86 43.73 10.60 43.98 7.99 C 44.31 6.37 42.63 5.67 41.35 6.21 Z" />
</g>
<g id="#000000ff">
<path fill="#968176" opacity="1.00" d=" M 41.35 6.21 C 42.63 5.67 44.31 6.37 43.98 7.99 C 43.73 10.60 44.87 13.86 43.05 16.02 C 38.81 17.44 34.34 18.04 30.00 19.08 C 29.98 27.08 30.04 35.08 29.98 43.08 C 29.93 46.65 29.06 50.81 25.75 52.78 C 22.60 54.53 17.87 54.60 15.53 51.49 C 13.19 48.26 13.55 43.18 16.53 40.46 C 19.06 38.25 22.69 38.26 25.48 36.59 C 26.46 35.31 25.81 33.50 26.02 32.00 C 26.02 25.61 25.94 19.22 26.04 12.83 C 25.94 11.00 27.26 9.23 29.08 8.89 C 33.14 7.88 37.25 7.07 41.35 6.21 Z" />
</g>
</svg>
