<?xml version="1.0" encoding="UTF-8" ?>
<!DOCTYPE svg PUBLIC "-//W3C//DTD SVG 1.1//EN" "http://www.w3.org/Graphics/SVG/1.1/DTD/svg11.dtd">
<svg width="60pt" height="60pt" viewBox="0 0 60 60" version="1.1" xmlns="http://www.w3.org/2000/svg">
<g id="#ffffffff">
<path fill="#ffffff" opacity="1.00" d=" M 0.00 0.00 L 60.00 0.00 L 60.00 60.00 L 0.00 60.00 L 0.00 0.00 M 27.38 4.60 C 23.22 6.40 22.88 12.87 26.84 15.09 C 30.56 17.66 36.18 14.52 35.99 10.02 C 36.18 5.77 31.14 2.56 27.38 4.60 M 41.86 7.99 C 42.58 11.52 43.65 14.96 44.67 18.40 C 43.56 20.04 42.47 21.69 41.38 23.34 C 39.30 22.14 37.28 20.82 35.03 19.95 C 32.05 21.10 31.67 25.08 30.00 27.53 C 28.35 25.06 27.95 21.20 25.03 19.93 C 22.46 20.91 20.18 22.48 17.80 23.82 C 15.88 23.20 14.01 22.38 12.01 22.06 C 10.30 21.82 9.31 24.24 10.55 25.38 C 12.93 26.55 15.47 27.43 18.07 27.96 C 20.17 27.35 21.95 26.01 23.85 24.97 C 23.41 29.57 21.73 34.26 22.33 38.86 C 25.20 43.06 23.24 48.26 24.08 52.95 C 24.90 54.32 27.14 54.37 27.80 52.83 C 28.53 48.57 28.50 44.23 29.03 39.95 C 29.45 40.07 30.29 40.33 30.71 40.46 C 31.51 44.57 31.16 48.83 32.01 52.94 C 32.78 54.45 35.11 54.29 35.72 52.73 C 36.13 49.16 35.78 45.55 35.93 41.96 C 36.79 40.44 38.28 38.98 37.90 37.07 C 37.55 33.01 36.75 29.00 36.15 24.97 C 38.07 26.01 39.88 27.29 41.94 28.03 C 44.65 27.49 44.78 23.22 47.96 23.56 C 47.79 21.90 48.14 20.09 47.23 18.60 C 45.37 15.44 45.16 11.67 43.71 8.35 C 43.25 8.26 42.32 8.08 41.86 7.99 Z" />
</g>
<g id="#000000ff">
<path fill="#968176" opacity="1.00" d=" M 27.38 4.60 C 31.14 2.56 36.18 5.77 35.99 10.02 C 36.18 14.52 30.56 17.66 26.84 15.09 C 22.88 12.87 23.22 6.40 27.38 4.60 Z" />
<path fill="#968176" opacity="1.00" d=" M 41.86 7.99 C 42.32 8.08 43.25 8.26 43.71 8.35 C 45.16 11.67 45.37 15.44 47.23 18.60 C 48.14 20.09 47.79 21.90 47.96 23.56 C 44.78 23.22 44.65 27.49 41.94 28.03 C 39.88 27.29 38.07 26.01 36.15 24.97 C 36.75 29.00 37.55 33.01 37.90 37.07 C 38.28 38.98 36.79 40.44 35.93 41.96 C 35.78 45.55 36.13 49.16 35.72 52.73 C 35.11 54.29 32.78 54.45 32.01 52.94 C 31.16 48.83 31.51 44.57 30.71 40.46 C 30.29 40.33 29.45 40.07 29.03 39.95 C 28.50 44.23 28.53 48.57 27.80 52.83 C 27.14 54.37 24.90 54.32 24.08 52.95 C 23.24 48.26 25.20 43.06 22.33 38.86 C 21.73 34.26 23.41 29.57 23.85 24.97 C 21.95 26.01 20.17 27.35 18.07 27.96 C 15.47 27.43 12.93 26.55 10.55 25.38 C 9.31 24.24 10.30 21.82 12.01 22.06 C 14.01 22.38 15.88 23.20 17.80 23.82 C 20.18 22.48 22.46 20.91 25.03 19.93 C 27.95 21.20 28.35 25.06 30.00 27.53 C 31.67 25.08 32.05 21.10 35.03 19.95 C 37.28 20.82 39.30 22.14 41.38 23.34 C 42.47 21.69 43.56 20.04 44.67 18.40 C 43.65 14.96 42.58 11.52 41.86 7.99 Z" />
</g>
</svg>
