<?xml version="1.0" encoding="UTF-8" ?>
<!DOCTYPE svg PUBLIC "-//W3C//DTD SVG 1.1//EN" "http://www.w3.org/Graphics/SVG/1.1/DTD/svg11.dtd">
<svg width="60pt" height="60pt" viewBox="0 0 60 60" version="1.1" xmlns="http://www.w3.org/2000/svg">
<g id="#ffffffff">
<path fill="#ffffff" opacity="1.00" d=" M 0.00 0.00 L 60.00 0.00 L 60.00 60.00 L 0.00 60.00 L 0.00 0.00 M 43.92 4.39 C 38.87 5.55 33.81 6.69 28.74 7.80 C 27.65 8.07 25.82 8.39 26.07 9.95 C 25.84 17.34 26.15 24.73 25.95 32.12 C 25.98 34.17 24.12 35.96 22.08 35.91 C 18.90 35.99 15.52 36.97 13.70 39.78 C 10.41 44.06 12.21 50.94 17.14 53.10 C 22.37 55.86 29.52 51.94 29.88 46.01 C 30.18 37.21 29.90 28.39 30.01 19.58 C 34.73 18.62 39.42 17.53 44.12 16.52 C 45.37 16.09 47.12 16.15 47.83 14.84 C 48.13 11.63 48.13 8.39 47.84 5.19 C 47.14 3.54 45.25 4.16 43.92 4.39 Z" />
</g>
<g id="#000000ff">
<path fill="#000000" opacity="1.00" d=" M 43.92 4.39 C 45.25 4.16 47.14 3.54 47.84 5.19 C 48.13 8.39 48.13 11.63 47.83 14.84 C 47.12 16.15 45.37 16.09 44.12 16.52 C 39.42 17.53 34.73 18.62 30.01 19.58 C 29.90 28.39 30.18 37.21 29.88 46.01 C 29.52 51.94 22.37 55.86 17.14 53.10 C 12.21 50.94 10.41 44.06 13.70 39.78 C 15.52 36.97 18.90 35.99 22.08 35.91 C 24.12 35.96 25.98 34.17 25.95 32.12 C 26.15 24.73 25.84 17.34 26.07 9.95 C 25.82 8.39 27.65 8.07 28.74 7.80 C 33.81 6.69 38.87 5.55 43.92 4.39 Z" />
</g>
</svg>
