<?xml version="1.0" encoding="UTF-8" ?>
<!DOCTYPE svg PUBLIC "-//W3C//DTD SVG 1.1//EN" "http://www.w3.org/Graphics/SVG/1.1/DTD/svg11.dtd">
<svg width="60pt" height="60pt" viewBox="0 0 60 60" version="1.1" xmlns="http://www.w3.org/2000/svg">
<g id="#ffffffff">
<path fill="#ffffff" opacity="1.00" d=" M 0.00 0.00 L 60.00 0.00 L 60.00 60.00 L 0.00 60.00 L 0.00 0.00 M 20.37 7.57 C 11.95 10.30 4.48 17.75 4.05 26.93 C 3.53 34.09 7.63 40.78 13.28 44.87 C 13.15 47.60 12.98 50.79 10.63 52.63 C 9.73 53.69 7.36 54.20 8.28 55.97 C 14.18 56.65 18.42 52.12 23.03 49.47 C 32.71 51.07 43.62 49.07 50.46 41.55 C 56.49 35.40 57.83 25.19 53.08 17.90 C 46.46 7.21 31.89 3.60 20.37 7.57 Z" />
<path fill="#ffffff" opacity="1.00" d=" M 25.43 18.36 C 27.34 14.96 32.32 15.72 34.42 18.47 C 35.73 21.81 34.64 25.78 32.01 28.19 C 32.03 28.87 32.06 30.22 32.07 30.90 C 34.96 32.28 39.10 32.43 40.29 35.95 C 33.43 36.03 26.57 36.03 19.72 35.96 C 20.88 32.43 25.03 32.28 27.92 30.91 C 27.94 30.21 27.97 28.82 27.99 28.13 C 25.30 25.76 24.18 21.71 25.43 18.36 Z" />
</g>
<g id="#000000ff">
<path fill="#968176" opacity="1.00" d=" M 20.37 7.57 C 31.89 3.60 46.46 7.21 53.08 17.90 C 57.83 25.19 56.49 35.40 50.46 41.55 C 43.62 49.07 32.71 51.07 23.03 49.47 C 18.42 52.12 14.18 56.65 8.28 55.97 C 7.36 54.20 9.73 53.69 10.63 52.63 C 12.98 50.79 13.15 47.60 13.28 44.87 C 7.63 40.78 3.53 34.09 4.05 26.93 C 4.48 17.75 11.95 10.30 20.37 7.57 M 25.43 18.36 C 24.18 21.71 25.30 25.76 27.99 28.13 C 27.97 28.82 27.94 30.21 27.92 30.91 C 25.03 32.28 20.88 32.43 19.72 35.96 C 26.57 36.03 33.43 36.03 40.29 35.95 C 39.10 32.43 34.96 32.28 32.07 30.90 C 32.06 30.22 32.03 28.87 32.01 28.19 C 34.64 25.78 35.73 21.81 34.42 18.47 C 32.32 15.72 27.34 14.96 25.43 18.36 Z" />
</g>
</svg>
