<?xml version="1.0" encoding="UTF-8" ?>
<!DOCTYPE svg PUBLIC "-//W3C//DTD SVG 1.1//EN" "http://www.w3.org/Graphics/SVG/1.1/DTD/svg11.dtd">
<svg width="60pt" height="60pt" viewBox="0 0 60 60" version="1.1" xmlns="http://www.w3.org/2000/svg">
<g id="#ffffffff">
<path fill="#ffffff" opacity="1.00" d=" M 0.00 0.00 L 60.00 0.00 L 60.00 60.00 L 0.00 60.00 L 0.00 0.00 M 39.46 8.57 C 35.24 10.31 34.85 16.84 38.82 19.08 C 42.54 21.66 48.19 18.53 47.99 14.01 C 48.18 9.80 43.22 6.61 39.46 8.57 M 24.42 10.72 C 21.23 12.45 21.25 17.58 24.45 19.29 C 27.57 21.37 32.16 18.70 32.00 14.99 C 32.15 11.27 27.53 8.62 24.42 10.72 M 12.39 12.36 C 7.56 14.22 11.02 22.01 15.62 19.62 C 20.40 17.77 16.98 10.01 12.39 12.36 M 8.32 28.10 C 7.72 32.98 7.92 37.98 8.18 42.89 C 10.66 45.16 14.71 43.54 17.82 43.99 C 18.15 45.28 17.76 47.07 19.16 47.83 C 23.36 48.25 27.60 47.89 31.82 48.00 C 32.16 49.29 31.73 51.16 33.23 51.84 C 38.16 52.23 43.12 51.90 48.06 52.02 C 49.36 51.88 51.18 52.32 51.83 50.79 C 52.20 45.83 51.98 40.83 51.95 35.86 C 52.04 30.54 47.21 25.83 41.90 26.03 C 39.33 25.92 37.09 27.29 35.02 28.65 C 33.10 26.09 30.32 23.80 26.92 24.03 C 24.01 23.93 21.59 25.68 19.63 27.64 C 17.49 22.86 9.83 22.89 8.32 28.10 Z" />
</g>
<g id="#000000ff">
<path fill="#968176" opacity="1.00" d=" M 39.46 8.57 C 43.22 6.61 48.18 9.80 47.99 14.01 C 48.19 18.53 42.54 21.66 38.82 19.08 C 34.85 16.84 35.24 10.31 39.46 8.57 Z" />
<path fill="#968176" opacity="1.00" d=" M 24.42 10.72 C 27.53 8.62 32.15 11.27 32.00 14.99 C 32.16 18.70 27.57 21.37 24.45 19.29 C 21.25 17.58 21.23 12.45 24.42 10.72 Z" />
<path fill="#968176" opacity="1.00" d=" M 12.39 12.36 C 16.98 10.01 20.40 17.77 15.62 19.62 C 11.02 22.01 7.56 14.22 12.39 12.36 Z" />
<path fill="#968176" opacity="1.00" d=" M 8.32 28.10 C 9.83 22.89 17.49 22.86 19.63 27.64 C 21.59 25.68 24.01 23.93 26.92 24.03 C 30.32 23.80 33.10 26.09 35.02 28.65 C 37.09 27.29 39.33 25.92 41.90 26.03 C 47.21 25.83 52.04 30.54 51.95 35.86 C 51.98 40.83 52.20 45.83 51.83 50.79 C 51.18 52.32 49.36 51.88 48.06 52.02 C 43.12 51.90 38.16 52.23 33.23 51.84 C 31.73 51.16 32.16 49.29 31.82 48.00 C 27.60 47.89 23.36 48.25 19.16 47.83 C 17.76 47.07 18.15 45.28 17.82 43.99 C 14.71 43.54 10.66 45.16 8.18 42.89 C 7.92 37.98 7.72 32.98 8.32 28.10 Z" />
</g>
</svg>
