<?xml version="1.0" encoding="UTF-8" ?>
<!DOCTYPE svg PUBLIC "-//W3C//DTD SVG 1.1//EN" "http://www.w3.org/Graphics/SVG/1.1/DTD/svg11.dtd">
<svg width="60pt" height="60pt" viewBox="0 0 60 60" version="1.1" xmlns="http://www.w3.org/2000/svg">
<g id="#ffffffff">
<path fill="#ffffff" opacity="1.00" d=" M 0.00 0.00 L 60.00 0.00 L 60.00 60.00 L 0.00 60.00 L 0.00 0.00 M 24.42 6.68 C 18.64 8.42 13.66 12.21 9.48 16.47 C 5.08 20.81 6.05 27.48 6.09 33.08 C 6.14 38.96 9.02 44.92 14.18 47.93 C 18.57 50.47 23.17 52.96 28.21 53.86 C 35.06 54.67 41.33 50.58 45.79 45.76 C 49.97 41.09 54.26 35.56 53.98 28.93 C 54.27 22.07 49.83 16.31 45.19 11.75 C 39.95 6.29 31.54 5.06 24.42 6.68 Z" />
<path fill="#ffffff" opacity="1.00" d=" M 23.13 12.09 C 25.12 11.30 26.88 13.80 25.47 15.40 C 24.23 19.60 20.11 13.53 23.13 12.09 Z" />
<path fill="#ffffff" opacity="1.00" d=" M 33.21 14.15 C 34.92 13.66 36.30 15.39 37.76 16.00 C 36.53 16.72 35.34 17.56 33.98 18.03 C 31.89 18.02 31.23 14.93 33.21 14.15 Z" />
<path fill="#ffffff" opacity="1.00" d=" M 11.97 22.00 C 11.97 20.30 14.24 19.25 15.37 20.59 C 17.03 22.26 14.63 24.19 14.00 25.75 C 13.28 24.53 12.45 23.35 11.97 22.00 Z" />
<path fill="#ffffff" opacity="1.00" d=" M 40.24 22.00 C 41.80 20.72 45.71 18.54 45.93 22.04 C 45.64 25.45 41.77 23.25 40.24 22.00 Z" />
<path fill="#ffffff" opacity="1.00" d=" M 19.95 24.04 C 20.44 22.68 21.27 21.48 22.00 20.24 C 22.68 21.85 24.99 23.70 23.40 25.45 C 22.16 26.68 20.06 25.70 19.95 24.04 Z" />
<path fill="#ffffff" opacity="1.00" d=" M 28.01 27.95 C 28.43 26.60 29.30 25.46 30.00 24.25 C 30.62 25.81 33.02 27.67 31.40 29.35 C 30.40 30.79 27.80 29.69 28.01 27.95 Z" />
<path fill="#ffffff" opacity="1.00" d=" M 37.31 28.22 C 38.70 27.29 40.71 29.36 39.81 30.73 C 39.04 33.12 34.57 31.56 35.13 29.37 C 35.67 29.08 36.76 28.51 37.31 28.22 Z" />
<path fill="#ffffff" opacity="1.00" d=" M 44.02 31.96 C 44.42 30.60 45.31 29.46 46.00 28.25 C 46.64 29.70 48.30 31.06 47.86 32.78 C 47.10 34.77 43.83 34.11 44.02 31.96 Z" />
<path fill="#ffffff" opacity="1.00" d=" M 15.97 32.08 C 16.38 28.52 20.09 30.71 21.75 31.99 C 20.13 33.22 16.57 35.46 15.97 32.08 Z" />
<path fill="#ffffff" opacity="1.00" d=" M 30.09 38.72 C 29.82 37.00 31.32 35.68 32.00 34.25 C 32.72 35.47 33.56 36.65 34.02 38.01 C 33.99 40.17 30.86 40.75 30.09 38.72 Z" />
<path fill="#ffffff" opacity="1.00" d=" M 16.24 40.00 C 17.85 39.32 19.67 37.04 21.44 38.57 C 22.66 39.81 21.75 41.88 20.09 42.05 C 18.70 41.60 17.49 40.73 16.24 40.00 Z" />
<path fill="#ffffff" opacity="1.00" d=" M 38.60 40.61 C 40.26 38.97 42.20 41.37 43.76 42.00 C 42.52 42.72 41.33 43.56 39.97 44.04 C 38.29 43.98 37.25 41.74 38.60 40.61 Z" />
<path fill="#ffffff" opacity="1.00" d=" M 26.10 46.75 C 25.78 45.02 27.33 43.69 28.00 42.25 C 28.74 43.48 29.55 44.68 30.06 46.03 C 29.91 48.15 26.93 48.75 26.10 46.75 Z" />
</g>
<g id="#000000ff">
<path fill="#000000" opacity="1.00" d=" M 24.42 6.68 C 31.54 5.06 39.95 6.29 45.19 11.75 C 49.83 16.31 54.27 22.07 53.98 28.93 C 54.26 35.56 49.97 41.09 45.79 45.76 C 41.33 50.58 35.06 54.67 28.21 53.86 C 23.17 52.96 18.57 50.47 14.18 47.93 C 9.02 44.92 6.14 38.96 6.09 33.08 C 6.05 27.48 5.08 20.81 9.48 16.47 C 13.66 12.21 18.64 8.42 24.42 6.68 M 23.13 12.09 C 20.11 13.53 24.23 19.60 25.47 15.40 C 26.88 13.80 25.12 11.30 23.13 12.09 M 33.21 14.15 C 31.23 14.93 31.89 18.02 33.98 18.03 C 35.34 17.56 36.53 16.72 37.76 16.00 C 36.30 15.39 34.92 13.66 33.21 14.15 M 11.97 22.00 C 12.45 23.35 13.28 24.53 14.00 25.75 C 14.63 24.19 17.03 22.26 15.37 20.59 C 14.24 19.25 11.97 20.30 11.97 22.00 M 40.24 22.00 C 41.77 23.25 45.64 25.45 45.93 22.04 C 45.71 18.54 41.80 20.72 40.24 22.00 M 19.95 24.04 C 20.06 25.70 22.16 26.68 23.40 25.45 C 24.99 23.70 22.68 21.85 22.00 20.24 C 21.27 21.48 20.44 22.68 19.95 24.04 M 28.01 27.95 C 27.80 29.69 30.40 30.79 31.40 29.35 C 33.02 27.67 30.62 25.81 30.00 24.25 C 29.30 25.46 28.43 26.60 28.01 27.95 M 37.31 28.22 C 36.76 28.51 35.67 29.08 35.13 29.37 C 34.57 31.56 39.04 33.12 39.81 30.73 C 40.71 29.36 38.70 27.29 37.31 28.22 M 44.02 31.96 C 43.83 34.11 47.10 34.77 47.86 32.78 C 48.30 31.06 46.64 29.70 46.00 28.25 C 45.31 29.46 44.42 30.60 44.02 31.96 M 15.97 32.08 C 16.57 35.46 20.13 33.22 21.75 31.99 C 20.09 30.71 16.38 28.52 15.97 32.08 M 30.09 38.72 C 30.86 40.75 33.99 40.17 34.02 38.01 C 33.56 36.65 32.72 35.47 32.00 34.25 C 31.32 35.68 29.82 37.00 30.09 38.72 M 16.24 40.00 C 17.49 40.73 18.70 41.60 20.09 42.05 C 21.75 41.88 22.66 39.81 21.44 38.57 C 19.67 37.04 17.85 39.32 16.24 40.00 M 38.60 40.61 C 37.25 41.74 38.29 43.98 39.97 44.04 C 41.33 43.56 42.52 42.72 43.76 42.00 C 42.20 41.37 40.26 38.97 38.60 40.61 M 26.10 46.75 C 26.93 48.75 29.91 48.15 30.06 46.03 C 29.55 44.68 28.74 43.48 28.00 42.25 C 27.33 43.69 25.78 45.02 26.10 46.75 Z" />
</g>
</svg>
