<?xml version="1.0" encoding="UTF-8" ?>
<!DOCTYPE svg PUBLIC "-//W3C//DTD SVG 1.1//EN" "http://www.w3.org/Graphics/SVG/1.1/DTD/svg11.dtd">
<svg width="64pt" height="64pt" viewBox="0 0 64 64" version="1.1" xmlns="http://www.w3.org/2000/svg">
<g id="#ffffffff">
<path fill="#ffffff" opacity="1.00" d=" M 0.00 0.00 L 64.00 0.00 L 64.00 64.00 L 0.00 64.00 L 0.00 0.00 M 16.00 3.99 C 16.00 5.33 16.00 6.66 16.00 7.99 C 21.24 7.85 26.53 8.19 31.58 9.72 C 32.39 13.00 30.92 16.16 28.99 18.73 C 30.15 19.87 31.31 21.02 32.47 22.16 C 23.01 31.97 13.52 41.74 4.06 51.55 C 6.88 54.36 9.71 57.15 12.48 60.01 C 22.06 50.31 31.46 40.43 40.97 30.67 C 41.68 31.41 42.38 32.15 43.07 32.91 C 42.36 33.62 41.64 34.32 40.93 35.03 C 42.78 36.81 44.45 38.77 46.44 40.39 C 49.95 41.09 54.03 40.35 56.51 37.60 C 58.87 35.02 59.49 31.31 59.07 27.94 C 57.53 25.82 55.44 24.20 53.65 22.31 C 53.15 22.83 52.14 23.86 51.64 24.37 C 50.92 23.69 50.20 23.02 49.49 22.34 C 49.85 21.87 50.58 20.93 50.94 20.46 C 49.45 16.83 46.32 14.14 43.39 11.64 C 35.75 5.46 25.61 3.54 16.00 3.99 Z" />
<path fill="#ffffff" opacity="1.00" d=" M 36.00 11.86 C 39.80 13.97 43.46 16.47 46.16 19.92 C 45.62 20.56 44.54 21.83 43.99 22.47 C 46.47 24.98 49.04 27.40 51.42 30.01 C 52.17 29.32 52.91 28.63 53.64 27.93 C 58.48 31.80 50.56 40.10 46.51 35.08 C 47.07 34.51 48.18 33.37 48.73 32.80 C 43.86 27.93 39.01 23.04 34.12 18.18 C 35.18 16.22 35.80 14.08 36.00 11.86 Z" />
<path fill="#ffffff" opacity="1.00" d=" M 30.45 30.01 C 32.07 28.34 33.69 26.67 35.32 25.00 C 36.25 25.95 37.17 26.92 38.11 27.87 C 36.50 29.53 34.89 31.18 33.29 32.84 C 32.34 31.90 31.40 30.95 30.45 30.01 Z" />
<path fill="#ffffff" opacity="1.00" d=" M 9.67 51.50 C 15.68 45.30 21.66 39.08 27.68 32.89 C 28.62 33.84 29.56 34.78 30.50 35.73 C 24.48 41.91 18.52 48.15 12.47 54.30 C 11.54 53.37 10.60 52.43 9.67 51.50 Z" />
</g>
<g id="#000000ff">
<path fill="#000000" opacity="1.00" d=" M 16.00 3.99 C 25.61 3.54 35.75 5.46 43.39 11.64 C 46.32 14.14 49.45 16.83 50.94 20.46 C 50.58 20.93 49.85 21.87 49.49 22.34 C 50.20 23.02 50.92 23.69 51.64 24.37 C 52.14 23.86 53.15 22.83 53.65 22.31 C 55.44 24.20 57.53 25.82 59.07 27.94 C 59.49 31.31 58.87 35.02 56.51 37.60 C 54.03 40.35 49.95 41.09 46.44 40.39 C 44.45 38.77 42.78 36.81 40.93 35.03 C 41.64 34.32 42.36 33.62 43.07 32.91 C 42.38 32.15 41.68 31.41 40.97 30.67 C 31.46 40.43 22.06 50.31 12.48 60.01 C 9.71 57.15 6.88 54.36 4.06 51.55 C 13.52 41.74 23.01 31.97 32.47 22.16 C 31.31 21.02 30.15 19.87 28.99 18.73 C 30.92 16.16 32.39 13.00 31.58 9.72 C 26.53 8.19 21.24 7.85 16.00 7.99 C 16.00 6.66 16.00 5.33 16.00 3.99 M 36.00 11.86 C 35.80 14.08 35.18 16.22 34.12 18.18 C 39.01 23.04 43.86 27.93 48.73 32.80 C 48.18 33.37 47.07 34.51 46.51 35.08 C 50.56 40.10 58.48 31.80 53.64 27.93 C 52.91 28.63 52.17 29.32 51.42 30.01 C 49.04 27.40 46.47 24.98 43.99 22.47 C 44.54 21.83 45.62 20.56 46.16 19.92 C 43.46 16.47 39.80 13.97 36.00 11.86 M 30.45 30.01 C 31.40 30.95 32.34 31.90 33.29 32.84 C 34.89 31.18 36.50 29.53 38.11 27.87 C 37.17 26.92 36.25 25.95 35.32 25.00 C 33.69 26.67 32.07 28.34 30.45 30.01 M 9.67 51.50 C 10.60 52.43 11.54 53.37 12.47 54.30 C 18.52 48.15 24.48 41.91 30.50 35.73 C 29.56 34.78 28.62 33.84 27.68 32.89 C 21.66 39.08 15.68 45.30 9.67 51.50 Z" />
</g>
</svg>
