<?xml version="1.0" encoding="UTF-8" ?>
<!DOCTYPE svg PUBLIC "-//W3C//DTD SVG 1.1//EN" "http://www.w3.org/Graphics/SVG/1.1/DTD/svg11.dtd">
<svg width="60pt" height="60pt" viewBox="0 0 60 60" version="1.1" xmlns="http://www.w3.org/2000/svg">
<g id="#ffffffff">
<path fill="#ffffff" opacity="1.00" d=" M 0.00 0.00 L 60.00 0.00 L 60.00 60.00 L 0.00 60.00 L 0.00 0.00 M 11.26 8.36 C 9.14 8.66 7.75 10.89 8.01 12.94 C 8.00 24.65 7.97 36.36 8.03 48.07 C 7.78 50.73 10.50 52.62 12.96 52.27 C 24.63 52.24 36.30 52.33 47.96 52.22 C 50.15 52.32 52.10 50.26 51.97 48.09 C 52.03 36.38 51.99 24.66 51.99 12.95 C 52.31 10.58 50.39 8.08 47.90 8.29 C 35.69 8.29 23.46 8.16 11.26 8.36 Z" />
<path fill="#ffffff" opacity="1.00" d=" M 25.19 20.23 C 27.01 17.58 31.03 17.36 33.34 19.49 C 37.06 21.16 35.60 25.73 35.80 28.91 C 34.67 31.13 31.57 33.92 33.68 36.34 C 36.80 37.75 40.77 38.26 42.19 41.92 C 34.07 42.05 25.93 42.05 17.80 41.92 C 19.22 38.27 23.18 37.75 26.30 36.35 C 28.45 33.95 25.33 31.14 24.19 28.92 C 24.43 26.03 23.36 22.77 25.19 20.23 Z" />
</g>
<g id="#000000ff">
<path fill="#000000" opacity="1.00" d=" M 11.26 8.36 C 23.46 8.16 35.69 8.29 47.90 8.29 C 50.39 8.08 52.31 10.58 51.99 12.95 C 51.99 24.66 52.03 36.38 51.97 48.09 C 52.10 50.26 50.15 52.32 47.96 52.22 C 36.30 52.33 24.63 52.24 12.96 52.27 C 10.50 52.62 7.78 50.73 8.03 48.07 C 7.97 36.36 8.00 24.65 8.01 12.94 C 7.75 10.89 9.14 8.66 11.26 8.36 M 25.19 20.23 C 23.36 22.77 24.43 26.03 24.19 28.92 C 25.33 31.14 28.45 33.95 26.30 36.35 C 23.18 37.75 19.22 38.27 17.80 41.92 C 25.93 42.05 34.07 42.05 42.19 41.92 C 40.77 38.26 36.80 37.75 33.68 36.34 C 31.57 33.92 34.67 31.13 35.80 28.91 C 35.60 25.73 37.06 21.16 33.34 19.49 C 31.03 17.36 27.01 17.58 25.19 20.23 Z" />
</g>
</svg>
