<?xml version="1.0" encoding="UTF-8" ?>
<!DOCTYPE svg PUBLIC "-//W3C//DTD SVG 1.1//EN" "http://www.w3.org/Graphics/SVG/1.1/DTD/svg11.dtd">
<svg width="60pt" height="60pt" viewBox="0 0 60 60" version="1.1" xmlns="http://www.w3.org/2000/svg">
<g id="#ffffffff">
<path fill="#ffffff" opacity="1.00" d=" M 0.00 0.00 L 60.00 0.00 L 60.00 45.58 C 59.83 38.27 53.35 31.84 45.99 32.04 C 38.54 31.83 31.83 38.54 32.05 45.99 C 31.84 53.30 38.20 59.74 45.44 60.00 L 0.00 60.00 L 0.00 0.00 M 29.34 8.47 C 21.75 10.94 22.17 24.04 30.09 25.75 C 35.35 27.26 40.67 22.30 40.02 16.99 C 40.73 11.36 34.72 6.32 29.34 8.47 M 18.45 20.70 C 15.98 22.29 13.81 24.81 13.78 27.90 C 18.05 28.59 22.15 24.19 22.13 20.06 C 20.81 19.75 19.58 19.97 18.45 20.70 M 21.28 31.21 C 15.69 33.32 12.59 38.78 9.35 43.43 C 7.19 46.66 7.95 50.81 9.78 54.00 C 13.24 54.00 16.71 54.00 20.17 54.00 C 20.11 52.77 20.09 51.53 20.13 50.30 C 17.91 49.88 15.22 49.36 14.38 46.92 C 12.49 43.04 17.06 38.49 20.92 40.39 C 23.35 41.24 23.88 43.92 24.30 46.13 C 25.48 46.09 26.66 46.10 27.84 46.16 C 28.03 40.51 30.75 35.34 34.86 31.56 C 30.55 29.91 25.63 29.33 21.28 31.21 Z" />
<path fill="#ffffff" opacity="1.00" d=" M 44.00 36.00 C 45.34 36.00 46.67 36.00 48.00 36.00 C 48.00 36.62 48.00 37.87 48.00 38.49 C 49.89 39.53 51.31 41.15 52.01 43.21 C 48.93 43.89 46.72 40.02 43.83 41.93 C 44.16 45.86 50.33 43.57 51.60 47.11 C 52.84 50.01 50.43 52.39 48.01 53.52 C 48.01 54.14 48.00 55.38 48.00 56.00 C 46.66 56.00 45.33 56.00 44.00 56.00 C 44.00 55.39 44.00 54.16 44.00 53.54 C 42.15 52.57 40.63 51.12 39.59 49.30 C 40.43 49.24 42.10 49.11 42.94 49.05 C 44.60 50.72 47.61 51.67 48.82 48.91 C 46.24 46.88 41.40 47.83 40.47 44.02 C 39.79 41.38 42.03 39.67 43.99 38.48 C 43.99 37.86 44.00 36.62 44.00 36.00 Z" />
<path fill="#ffffff" opacity="1.00" d=" M 46.46 60.00 C 53.61 59.79 59.74 53.69 60.00 46.54 L 60.00 60.00 L 46.46 60.00 Z" />
</g>
<g id="#000000ff">
<path fill="#968176" opacity="1.00" d=" M 29.34 8.47 C 34.72 6.32 40.73 11.36 40.02 16.99 C 40.67 22.30 35.35 27.26 30.09 25.75 C 22.17 24.04 21.75 10.94 29.34 8.47 Z" />
<path fill="#968176" opacity="1.00" d=" M 18.45 20.70 C 19.58 19.97 20.81 19.75 22.13 20.06 C 22.15 24.19 18.05 28.59 13.78 27.90 C 13.81 24.81 15.98 22.29 18.45 20.70 Z" />
<path fill="#968176" opacity="1.00" d=" M 21.28 31.21 C 25.63 29.33 30.55 29.91 34.86 31.56 C 30.75 35.34 28.03 40.51 27.84 46.16 C 26.66 46.10 25.48 46.09 24.30 46.13 C 23.88 43.92 23.35 41.24 20.92 40.39 C 17.06 38.49 12.49 43.04 14.38 46.92 C 15.22 49.36 17.91 49.88 20.13 50.30 C 20.09 51.53 20.11 52.77 20.17 54.00 C 16.71 54.00 13.24 54.00 9.78 54.00 C 7.95 50.81 7.19 46.66 9.35 43.43 C 12.59 38.78 15.69 33.32 21.28 31.21 Z" />
<path fill="#968176" opacity="1.00" d=" M 32.05 45.99 C 31.83 38.54 38.54 31.83 45.99 32.04 C 53.35 31.84 59.83 38.27 60.00 45.58 L 60.00 46.54 C 59.74 53.69 53.61 59.79 46.46 60.00 L 45.44 60.00 C 38.20 59.74 31.84 53.30 32.05 45.99 M 44.00 36.00 C 44.00 36.62 43.99 37.86 43.99 38.48 C 42.03 39.67 39.79 41.38 40.47 44.02 C 41.40 47.83 46.24 46.88 48.82 48.91 C 47.61 51.67 44.60 50.72 42.94 49.05 C 42.10 49.11 40.43 49.24 39.59 49.30 C 40.63 51.12 42.15 52.57 44.00 53.54 C 44.00 54.16 44.00 55.39 44.00 56.00 C 45.33 56.00 46.66 56.00 48.00 56.00 C 48.00 55.38 48.01 54.14 48.01 53.52 C 50.43 52.39 52.84 50.01 51.60 47.11 C 50.33 43.57 44.16 45.86 43.83 41.93 C 46.72 40.02 48.93 43.89 52.01 43.21 C 51.31 41.15 49.89 39.53 48.00 38.49 C 48.00 37.87 48.00 36.62 48.00 36.00 C 46.67 36.00 45.34 36.00 44.00 36.00 Z" />
</g>
</svg>
