<?xml version="1.0" encoding="UTF-8" ?>
<!DOCTYPE svg PUBLIC "-//W3C//DTD SVG 1.1//EN" "http://www.w3.org/Graphics/SVG/1.1/DTD/svg11.dtd">
<svg width="60pt" height="60pt" viewBox="0 0 60 60" version="1.1" xmlns="http://www.w3.org/2000/svg">
<g id="#ffffffff">
<path fill="#ffffff" opacity="1.00" d=" M 0.00 0.00 L 60.00 0.00 L 60.00 60.00 L 0.00 60.00 L 0.00 0.00 M 17.96 9.99 C 18.19 12.64 21.36 11.82 23.17 12.10 C 21.44 13.76 19.61 15.34 18.13 17.23 C 17.22 20.28 21.02 20.13 22.96 20.04 C 25.22 19.69 28.32 20.89 29.91 18.79 C 30.72 15.64 26.84 15.95 24.84 15.90 C 26.57 14.25 28.40 12.66 29.87 10.76 C 30.70 7.21 26.12 8.06 23.99 7.96 C 21.99 8.24 18.37 7.08 17.96 9.99 M 34.10 15.16 C 33.38 17.20 35.46 17.92 37.00 18.35 C 35.77 19.66 33.48 20.74 34.10 22.88 C 35.19 24.53 37.38 23.85 39.04 24.05 C 40.82 23.94 43.82 24.53 44.06 21.98 C 43.96 20.31 42.22 20.16 41.00 19.66 C 42.01 18.75 43.07 17.86 43.89 16.76 C 44.54 14.94 42.70 13.64 41.04 13.99 C 38.78 14.24 35.74 13.14 34.10 15.16 M 10.25 39.94 C 10.87 42.85 13.38 44.70 15.83 46.05 C 13.05 46.15 10.07 45.52 7.41 46.48 C 4.95 47.82 6.06 52.12 8.93 51.93 C 13.61 52.04 18.33 52.15 23.00 51.85 C 26.93 50.88 26.73 45.29 23.12 43.95 C 26.74 44.05 30.37 43.99 34.00 44.00 C 35.63 46.77 36.43 50.90 39.98 51.80 C 43.96 52.14 48.01 52.16 51.99 51.79 C 54.58 51.07 54.58 46.92 52.00 46.21 C 48.93 45.78 45.82 46.05 42.74 46.01 C 40.19 41.00 39.71 33.70 33.66 31.51 C 28.49 30.41 23.15 30.03 17.87 30.04 C 12.90 29.90 8.87 35.18 10.25 39.94 M 45.47 30.56 C 41.49 32.21 40.81 38.23 44.32 40.72 C 47.63 43.56 53.37 41.33 53.91 37.00 C 54.90 32.47 49.59 28.39 45.47 30.56 Z" />
</g>
<g id="#000000ff">
<path fill="#000000" opacity="1.00" d=" M 17.96 9.99 C 18.37 7.08 21.99 8.24 23.99 7.96 C 26.12 8.06 30.70 7.21 29.87 10.76 C 28.40 12.66 26.57 14.25 24.84 15.90 C 26.84 15.95 30.72 15.64 29.91 18.79 C 28.32 20.89 25.22 19.69 22.96 20.04 C 21.02 20.13 17.22 20.28 18.13 17.23 C 19.61 15.34 21.44 13.76 23.17 12.10 C 21.36 11.82 18.19 12.64 17.96 9.99 Z" />
<path fill="#000000" opacity="1.00" d=" M 34.10 15.16 C 35.74 13.14 38.78 14.24 41.04 13.99 C 42.70 13.64 44.54 14.94 43.89 16.76 C 43.07 17.86 42.01 18.75 41.00 19.66 C 42.22 20.16 43.96 20.31 44.06 21.98 C 43.82 24.53 40.82 23.94 39.04 24.05 C 37.38 23.85 35.19 24.53 34.10 22.88 C 33.48 20.74 35.77 19.66 37.00 18.35 C 35.46 17.92 33.38 17.20 34.10 15.16 Z" />
<path fill="#000000" opacity="1.00" d=" M 10.25 39.94 C 8.87 35.18 12.90 29.90 17.87 30.04 C 23.15 30.03 28.49 30.41 33.66 31.51 C 39.71 33.70 40.19 41.00 42.74 46.01 C 45.82 46.05 48.93 45.78 52.00 46.21 C 54.58 46.92 54.58 51.07 51.99 51.79 C 48.01 52.16 43.96 52.14 39.98 51.80 C 36.43 50.90 35.63 46.77 34.00 44.00 C 30.37 43.99 26.74 44.05 23.12 43.95 C 26.73 45.29 26.93 50.88 23.00 51.85 C 18.33 52.15 13.61 52.04 8.93 51.93 C 6.06 52.12 4.95 47.82 7.41 46.48 C 10.07 45.52 13.05 46.15 15.83 46.05 C 13.38 44.70 10.87 42.85 10.25 39.94 Z" />
<path fill="#000000" opacity="1.00" d=" M 45.47 30.56 C 49.59 28.39 54.90 32.47 53.91 37.00 C 53.37 41.33 47.63 43.56 44.32 40.72 C 40.81 38.23 41.49 32.21 45.47 30.56 Z" />
</g>
</svg>
