<?xml version="1.0" encoding="UTF-8" ?>
<!DOCTYPE svg PUBLIC "-//W3C//DTD SVG 1.1//EN" "http://www.w3.org/Graphics/SVG/1.1/DTD/svg11.dtd">
<svg width="60pt" height="60pt" viewBox="0 0 60 60" version="1.1" xmlns="http://www.w3.org/2000/svg">
<g id="#ffffffff">
<path fill="#ffffff" opacity="1.00" d=" M 0.00 0.00 L 60.00 0.00 L 60.00 60.00 L 0.00 60.00 L 0.00 0.00 M 8.33 10.37 C 5.34 11.69 6.06 15.38 5.98 18.00 C 6.33 23.61 4.83 29.86 8.21 34.83 C 11.87 40.33 17.11 44.70 22.80 47.99 C 27.16 50.62 32.86 50.62 37.22 47.97 C 43.09 44.56 48.53 40.05 52.14 34.24 C 54.45 30.61 53.98 26.17 54.01 22.07 C 53.94 19.04 54.18 16.00 53.85 12.98 C 53.29 10.93 51.14 9.74 49.09 10.00 C 37.08 9.98 25.08 10.03 13.07 9.98 C 11.49 10.06 9.84 9.81 8.33 10.37 Z" />
<path fill="#ffffff" opacity="1.00" d=" M 10.00 14.00 C 12.00 14.00 14.00 14.00 16.00 14.00 C 16.00 18.00 16.00 22.00 16.00 26.00 C 14.00 26.00 12.00 26.00 10.00 26.00 C 10.00 22.00 10.00 18.00 10.00 14.00 Z" />
<path fill="#ffffff" opacity="1.00" d=" M 20.00 14.00 C 26.67 14.00 33.33 14.00 40.00 14.00 C 39.96 21.37 40.08 28.73 39.96 36.10 C 40.05 41.40 35.26 46.11 29.97 45.98 C 24.70 46.08 19.94 41.38 20.04 36.10 C 19.93 28.73 20.04 21.37 20.00 14.00 Z" />
<path fill="#ffffff" opacity="1.00" d=" M 44.00 14.00 C 46.00 14.00 48.00 14.00 50.00 14.00 C 50.00 18.00 50.00 22.00 50.00 26.00 C 48.00 26.00 46.00 26.00 44.00 26.00 C 44.00 22.00 44.00 18.00 44.00 14.00 Z" />
<path fill="#ffffff" opacity="1.00" d=" M 10.27 30.04 C 12.18 30.01 14.08 30.00 15.99 29.99 C 16.00 32.72 16.01 35.45 16.10 38.17 C 13.79 35.75 11.68 33.11 10.27 30.04 Z" />
<path fill="#ffffff" opacity="1.00" d=" M 44.01 29.99 C 45.92 30.00 47.82 30.01 49.73 30.04 C 48.30 33.09 46.23 35.76 43.90 38.17 C 43.99 35.45 44.00 32.72 44.01 29.99 Z" />
</g>
<g id="#000000ff">
<path fill="#000000" opacity="1.00" d=" M 8.33 10.37 C 9.84 9.81 11.49 10.06 13.07 9.98 C 25.08 10.03 37.08 9.98 49.09 10.00 C 51.14 9.74 53.29 10.93 53.85 12.98 C 54.18 16.00 53.94 19.04 54.01 22.07 C 53.98 26.17 54.45 30.61 52.14 34.24 C 48.53 40.05 43.09 44.56 37.22 47.97 C 32.86 50.62 27.16 50.62 22.80 47.99 C 17.11 44.70 11.87 40.33 8.21 34.83 C 4.83 29.86 6.33 23.61 5.98 18.00 C 6.06 15.38 5.34 11.69 8.33 10.37 M 10.00 14.00 C 10.00 18.00 10.00 22.00 10.00 26.00 C 12.00 26.00 14.00 26.00 16.00 26.00 C 16.00 22.00 16.00 18.00 16.00 14.00 C 14.00 14.00 12.00 14.00 10.00 14.00 M 20.00 14.00 C 20.04 21.37 19.93 28.73 20.04 36.10 C 19.94 41.38 24.70 46.08 29.97 45.98 C 35.26 46.11 40.05 41.40 39.96 36.10 C 40.08 28.73 39.96 21.37 40.00 14.00 C 33.33 14.00 26.67 14.00 20.00 14.00 M 44.00 14.00 C 44.00 18.00 44.00 22.00 44.00 26.00 C 46.00 26.00 48.00 26.00 50.00 26.00 C 50.00 22.00 50.00 18.00 50.00 14.00 C 48.00 14.00 46.00 14.00 44.00 14.00 M 10.27 30.04 C 11.68 33.11 13.79 35.75 16.10 38.17 C 16.01 35.45 16.00 32.72 15.99 29.99 C 14.08 30.00 12.18 30.01 10.27 30.04 M 44.01 29.99 C 44.00 32.72 43.99 35.45 43.90 38.17 C 46.23 35.76 48.30 33.09 49.73 30.04 C 47.82 30.01 45.92 30.00 44.01 29.99 Z" />
</g>
</svg>
