<?xml version="1.0" encoding="UTF-8" ?>
<!DOCTYPE svg PUBLIC "-//W3C//DTD SVG 1.1//EN" "http://www.w3.org/Graphics/SVG/1.1/DTD/svg11.dtd">
<svg width="143pt" height="144pt" viewBox="0 0 143 144" version="1.1" xmlns="http://www.w3.org/2000/svg">
<g id="#fffffff">
<path fill="#ffffff" opacity="1.00" d=" M 0.00 0.00 L 143.00 0.00 L 143.00 144.00 L 0.00 144.00 L 0.00 0.00 M 33.63 21.00 C 33.57 53.16 33.60 85.33 33.62 117.50 C 31.11 117.59 28.25 117.53 26.43 119.57 C 24.96 120.84 25.17 122.89 25.06 124.63 C 32.67 124.83 40.29 124.81 47.90 124.64 C 47.62 122.90 48.22 120.63 46.55 119.45 C 44.69 117.52 41.91 117.61 39.44 117.50 C 39.50 107.06 39.43 96.61 39.48 86.17 C 44.54 87.59 49.73 88.79 55.03 88.49 C 71.29 88.21 85.63 77.84 102.04 78.71 C 108.03 78.84 113.61 81.08 119.23 82.90 C 119.86 81.35 120.35 79.71 120.22 78.02 C 120.10 61.33 120.10 44.64 120.13 27.95 C 120.01 26.48 120.24 24.83 119.43 23.51 C 114.13 20.54 108.06 19.02 102.03 18.62 C 84.98 17.78 70.00 28.81 53.00 28.41 C 48.34 28.51 43.78 27.32 39.38 25.91 C 39.21 23.41 39.95 20.63 38.53 18.39 C 36.64 16.36 32.99 18.28 33.63 21.00 Z" />
<path fill="#ffffff" opacity="1.00" d=" M 77.45 29.25 C 89.33 25.60 102.45 22.32 114.51 27.09 C 114.45 29.66 114.47 32.24 114.47 34.82 C 109.73 33.66 104.92 32.46 100.00 32.63 C 92.28 32.73 84.97 35.48 77.46 36.89 C 77.45 34.35 77.46 31.80 77.45 29.25 Z" />
<path fill="#ffffff" opacity="1.00" d=" M 66.42 33.65 C 67.49 34.33 68.62 34.91 69.79 35.41 C 69.41 36.83 69.07 38.27 68.74 39.70 C 67.54 39.69 66.34 39.70 65.14 39.73 C 64.53 38.79 63.92 37.86 63.30 36.92 C 64.45 35.94 65.51 34.86 66.42 33.65 Z" />
<path fill="#ffffff" opacity="1.00" d=" M 41.23 36.21 C 42.96 35.87 45.09 34.66 46.38 36.56 C 48.38 37.61 47.06 39.92 46.93 41.60 C 45.44 41.24 43.94 40.90 42.42 40.62 C 42.06 39.14 41.64 37.68 41.23 36.21 Z" />
<path fill="#ffffff" opacity="1.00" d=" M 52.32 37.40 C 54.42 36.37 56.65 36.05 58.78 37.18 C 58.44 38.65 58.08 40.12 57.74 41.59 C 56.37 41.56 55.00 41.57 53.64 41.59 C 53.28 40.17 52.79 38.79 52.32 37.40 Z" />
<path fill="#ffffff" opacity="1.00" d=" M 77.35 42.84 C 89.28 39.42 102.38 35.72 114.42 40.80 C 114.37 43.38 114.38 45.96 114.33 48.54 C 109.97 47.38 105.55 46.14 100.99 46.32 C 92.87 45.96 85.23 49.13 77.40 50.74 C 77.35 48.11 77.35 45.47 77.35 42.84 Z" />
<path fill="#ffffff" opacity="1.00" d=" M 66.28 44.27 C 67.38 44.90 68.49 45.53 69.62 46.11 C 69.36 47.56 69.10 49.01 68.86 50.47 C 67.46 50.47 66.05 50.55 64.66 50.70 C 63.81 48.28 64.67 46.11 66.28 44.27 Z" />
<path fill="#ffffff" opacity="1.00" d=" M 41.61 47.83 C 42.60 47.04 43.58 46.25 44.54 45.44 C 45.50 46.51 46.53 47.52 47.63 48.46 C 47.36 49.52 47.08 50.58 46.80 51.64 C 45.32 51.56 43.84 51.53 42.36 51.62 C 42.13 50.35 41.88 49.09 41.61 47.83 Z" />
<path fill="#ffffff" opacity="1.00" d=" M 52.28 48.68 C 53.47 47.90 54.62 47.08 55.77 46.24 C 56.74 46.90 57.71 47.55 58.70 48.17 C 58.37 49.48 58.03 50.79 57.72 52.10 C 56.47 52.17 55.22 52.23 53.97 52.29 C 53.48 51.05 52.90 49.85 52.28 48.68 Z" />
<path fill="#ffffff" opacity="1.00" d=" M 90.19 52.88 C 98.23 51.40 106.72 51.54 114.48 54.29 C 114.46 56.84 114.47 59.40 114.48 61.96 C 108.43 60.68 102.26 59.34 96.04 60.09 C 83.23 60.95 71.71 67.61 58.96 68.76 C 52.41 69.42 45.72 68.80 39.46 66.72 C 39.47 64.16 39.46 61.60 39.46 59.05 C 45.88 60.47 52.48 61.77 59.07 60.76 C 69.82 59.76 79.67 54.92 90.19 52.88 Z" />
<path fill="#ffffff" opacity="1.00" d=" M 65.61 73.29 C 77.34 70.52 88.72 65.20 101.00 65.58 C 105.56 65.53 110.01 66.72 114.38 67.91 C 114.38 70.53 114.39 73.15 114.35 75.78 C 108.97 74.55 103.55 73.12 97.98 73.55 C 85.23 74.24 73.53 80.07 61.05 82.18 C 53.82 83.18 46.42 82.63 39.44 80.47 C 39.36 77.75 39.37 75.04 39.40 72.33 C 47.81 75.19 57.00 75.43 65.61 73.29 Z" />
</g>
<g id="#000000ff">
<path fill="#968176" opacity="1.00" d=" M 33.63 21.00 C 32.99 18.28 36.64 16.36 38.53 18.39 C 39.95 20.63 39.21 23.41 39.38 25.91 C 43.78 27.32 48.34 28.51 53.00 28.41 C 70.00 28.81 84.98 17.78 102.03 18.62 C 108.06 19.02 114.13 20.54 119.43 23.51 C 120.24 24.83 120.01 26.48 120.13 27.95 C 120.10 44.64 120.10 61.33 120.22 78.02 C 120.35 79.71 119.86 81.35 119.23 82.90 C 113.61 81.08 108.03 78.84 102.04 78.71 C 85.63 77.84 71.29 88.21 55.03 88.49 C 49.73 88.79 44.54 87.59 39.48 86.17 C 39.43 96.61 39.50 107.06 39.44 117.50 C 41.91 117.61 44.69 117.52 46.55 119.45 C 48.22 120.63 47.62 122.90 47.90 124.64 C 40.29 124.81 32.67 124.83 25.06 124.63 C 25.17 122.89 24.96 120.84 26.43 119.57 C 28.25 117.53 31.11 117.59 33.62 117.50 C 33.60 85.33 33.57 53.16 33.63 21.00 M 77.45 29.25 C 77.46 31.80 77.45 34.35 77.46 36.89 C 84.97 35.48 92.28 32.73 100.00 32.63 C 104.92 32.46 109.73 33.66 114.47 34.82 C 114.47 32.24 114.45 29.66 114.51 27.09 C 102.45 22.32 89.33 25.60 77.45 29.25 M 66.42 33.65 C 65.51 34.86 64.45 35.94 63.30 36.92 C 63.92 37.86 64.53 38.79 65.14 39.73 C 66.34 39.70 67.54 39.69 68.74 39.70 C 69.07 38.27 69.41 36.83 69.79 35.41 C 68.62 34.91 67.49 34.33 66.42 33.65 M 41.23 36.21 C 41.64 37.68 42.06 39.14 42.42 40.62 C 43.94 40.90 45.44 41.24 46.93 41.60 C 47.06 39.92 48.38 37.61 46.38 36.56 C 45.09 34.66 42.96 35.87 41.23 36.21 M 52.32 37.40 C 52.79 38.79 53.28 40.17 53.64 41.59 C 55.00 41.57 56.37 41.56 57.74 41.59 C 58.08 40.12 58.44 38.65 58.78 37.18 C 56.65 36.05 54.42 36.37 52.32 37.40 M 77.35 42.84 C 77.35 45.47 77.35 48.11 77.40 50.74 C 85.23 49.13 92.87 45.96 100.99 46.32 C 105.55 46.14 109.97 47.38 114.33 48.54 C 114.38 45.96 114.37 43.38 114.42 40.80 C 102.38 35.72 89.28 39.42 77.35 42.84 M 66.28 44.27 C 64.67 46.11 63.81 48.28 64.66 50.70 C 66.05 50.55 67.46 50.47 68.86 50.47 C 69.10 49.01 69.36 47.56 69.62 46.11 C 68.49 45.53 67.38 44.90 66.28 44.27 M 41.61 47.83 C 41.88 49.09 42.13 50.35 42.36 51.62 C 43.84 51.53 45.32 51.56 46.80 51.64 C 47.08 50.58 47.36 49.52 47.63 48.46 C 46.53 47.52 45.50 46.51 44.54 45.44 C 43.58 46.25 42.60 47.04 41.61 47.83 M 52.28 48.68 C 52.90 49.85 53.48 51.05 53.97 52.29 C 55.22 52.23 56.47 52.17 57.72 52.10 C 58.03 50.79 58.37 49.48 58.70 48.17 C 57.71 47.55 56.74 46.90 55.77 46.24 C 54.62 47.08 53.47 47.90 52.28 48.68 M 90.19 52.88 C 79.67 54.92 69.82 59.76 59.07 60.76 C 52.48 61.77 45.88 60.47 39.46 59.05 C 39.46 61.60 39.47 64.16 39.46 66.72 C 45.72 68.80 52.41 69.42 58.96 68.76 C 71.71 67.61 83.23 60.95 96.04 60.09 C 102.26 59.34 108.43 60.68 114.48 61.96 C 114.47 59.40 114.46 56.84 114.48 54.29 C 106.72 51.54 98.23 51.40 90.19 52.88 M 65.61 73.29 C 57.00 75.43 47.81 75.19 39.40 72.33 C 39.37 75.04 39.36 77.75 39.44 80.47 C 46.42 82.63 53.82 83.18 61.05 82.18 C 73.53 80.07 85.23 74.24 97.98 73.55 C 103.55 73.12 108.97 74.55 114.35 75.78 C 114.39 73.15 114.38 70.53 114.38 67.91 C 110.01 66.72 105.56 65.53 101.00 65.58 C 88.72 65.20 77.34 70.52 65.61 73.29 Z" />
</g>
</svg>
