<?xml version="1.0" encoding="UTF-8" ?>
<!DOCTYPE svg PUBLIC "-//W3C//DTD SVG 1.1//EN" "http://www.w3.org/Graphics/SVG/1.1/DTD/svg11.dtd">
<svg width="60pt" height="60pt" viewBox="0 0 60 60" version="1.1" xmlns="http://www.w3.org/2000/svg">
<g id="#ffffffff">
<path fill="#ffffff" opacity="1.00" d=" M 0.00 0.00 L 60.00 0.00 L 60.00 60.00 L 0.00 60.00 L 0.00 0.00 M 10.36 8.38 C 8.62 9.14 7.80 11.10 8.00 12.92 C 8.03 24.65 7.93 36.38 8.05 48.10 C 7.94 50.62 10.59 52.34 12.91 52.00 C 24.30 52.01 35.69 52.00 47.09 52.00 C 49.45 52.35 52.03 50.56 51.95 48.05 C 52.07 36.36 51.97 24.66 52.00 12.97 C 52.35 10.64 50.67 7.95 48.13 8.05 C 37.09 7.91 26.05 8.06 15.01 7.98 C 13.47 8.08 11.82 7.77 10.36 8.38 Z" />
<path fill="#ffffff" opacity="1.00" d=" M 36.01 19.97 C 39.34 23.31 42.68 26.64 46.01 29.98 C 42.68 33.32 39.34 36.66 36.00 39.99 C 36.00 33.32 35.99 26.65 36.01 19.97 Z" />
<path fill="#ffffff" opacity="1.00" d=" M 14.02 29.98 C 17.34 26.65 20.67 23.33 24.00 20.00 C 24.00 26.67 24.00 33.33 24.00 40.00 C 20.70 36.64 17.34 33.32 14.02 29.98 Z" />
</g>
<g id="#000000ff">
<path fill="#968176" opacity="1.00" d=" M 10.36 8.38 C 11.82 7.77 13.47 8.08 15.01 7.98 C 26.05 8.06 37.09 7.91 48.13 8.05 C 50.67 7.95 52.35 10.64 52.00 12.97 C 51.97 24.66 52.07 36.36 51.95 48.05 C 52.03 50.56 49.45 52.35 47.09 52.00 C 35.69 52.00 24.30 52.01 12.91 52.00 C 10.59 52.34 7.94 50.62 8.05 48.10 C 7.93 36.38 8.03 24.65 8.00 12.92 C 7.80 11.10 8.62 9.14 10.36 8.38 M 36.01 19.97 C 35.99 26.65 36.00 33.32 36.00 39.99 C 39.34 36.66 42.68 33.32 46.01 29.98 C 42.68 26.64 39.34 23.31 36.01 19.97 M 14.02 29.98 C 17.34 33.32 20.70 36.64 24.00 40.00 C 24.00 33.33 24.00 26.67 24.00 20.00 C 20.67 23.33 17.34 26.65 14.02 29.98 Z" />
</g>
</svg>
