<?xml version="1.0" encoding="UTF-8" ?>
<!DOCTYPE svg PUBLIC "-//W3C//DTD SVG 1.1//EN" "http://www.w3.org/Graphics/SVG/1.1/DTD/svg11.dtd">
<svg width="200pt" height="200pt" viewBox="0 0 200 200" version="1.1" xmlns="http://www.w3.org/2000/svg">
<g id="#ffffffff">
<path fill="#ffffff" opacity="1.00" d=" M 0.00 0.00 L 200.00 0.00 L 200.00 200.00 L 0.00 200.00 L 0.00 0.00 M 25.24 22.37 C 22.37 23.13 21.88 26.43 21.98 28.95 C 22.02 73.63 22.00 118.32 21.99 163.00 C 22.08 166.91 21.64 170.88 22.36 174.75 C 23.12 177.63 26.43 178.12 28.96 178.02 C 73.64 177.98 118.32 178.00 163.00 178.01 C 166.91 177.92 170.88 178.36 174.75 177.63 C 177.62 176.86 178.13 173.57 178.02 171.05 C 177.98 126.70 178.01 82.35 178.00 38.00 C 177.95 34.02 178.25 30.02 177.81 26.06 C 177.63 24.07 175.93 22.36 173.94 22.19 C 169.98 21.75 165.98 22.05 162.00 22.00 C 120.00 21.99 78.00 22.02 36.00 21.99 C 32.42 22.05 28.78 21.67 25.24 22.37 Z" />
<path fill="#ffffff" opacity="1.00" d=" M 92.53 48.64 C 94.23 47.89 96.16 48.05 97.98 47.96 C 113.67 48.04 129.37 47.99 145.06 47.98 C 146.93 48.09 149.15 47.94 150.55 49.45 C 152.27 51.14 151.90 53.78 152.04 55.98 C 151.96 71.67 152.01 87.36 152.02 103.05 C 151.91 104.92 152.05 107.14 150.56 108.54 C 148.22 111.04 143.34 110.14 142.36 106.76 C 141.58 102.22 142.13 97.58 142.00 93.00 C 141.89 81.38 142.20 69.74 141.88 58.13 C 126.57 57.77 111.25 58.15 95.93 57.98 C 94.37 57.90 92.59 57.80 91.45 56.56 C 89.17 54.39 89.68 50.08 92.53 48.64 Z" />
<path fill="#ffffff" opacity="1.00" d=" M 49.43 91.45 C 51.77 88.95 56.67 89.86 57.64 93.25 C 58.42 97.78 57.87 102.42 58.00 107.00 C 58.11 118.62 57.79 130.26 58.12 141.88 C 73.43 142.22 88.76 141.85 104.07 142.02 C 105.63 142.10 107.42 142.19 108.55 143.44 C 110.82 145.62 110.30 149.91 107.46 151.36 C 105.76 152.10 103.83 151.95 102.02 152.04 C 86.33 151.96 70.64 152.01 54.95 152.02 C 53.07 151.91 50.85 152.05 49.45 150.55 C 47.71 148.86 48.11 146.21 47.96 144.02 C 48.04 128.33 47.99 112.64 47.98 96.95 C 48.09 95.08 47.94 92.86 49.43 91.45 Z" />
</g>
<g id="#000000ff">
<path fill="#968176" opacity="1.00" d=" M 25.24 22.37 C 28.78 21.67 32.42 22.05 36.00 21.99 C 78.00 22.02 120.00 21.99 162.00 22.00 C 165.98 22.05 169.98 21.75 173.94 22.19 C 175.93 22.36 177.63 24.07 177.81 26.06 C 178.25 30.02 177.95 34.02 178.00 38.00 C 178.01 82.35 177.98 126.70 178.02 171.05 C 178.13 173.57 177.62 176.86 174.75 177.63 C 170.88 178.36 166.91 177.92 163.00 178.01 C 118.32 178.00 73.64 177.98 28.96 178.02 C 26.43 178.12 23.12 177.63 22.36 174.75 C 21.64 170.88 22.08 166.91 21.99 163.00 C 22.00 118.32 22.02 73.63 21.98 28.95 C 21.88 26.43 22.37 23.13 25.24 22.37 M 92.53 48.64 C 89.68 50.08 89.17 54.39 91.45 56.56 C 92.59 57.80 94.37 57.90 95.93 57.98 C 111.25 58.15 126.57 57.77 141.88 58.13 C 142.20 69.74 141.89 81.38 142.00 93.00 C 142.13 97.58 141.58 102.22 142.36 106.76 C 143.34 110.14 148.22 111.04 150.56 108.54 C 152.05 107.14 151.91 104.92 152.02 103.05 C 152.01 87.36 151.96 71.67 152.04 55.98 C 151.90 53.78 152.27 51.14 150.55 49.45 C 149.15 47.94 146.93 48.09 145.06 47.98 C 129.37 47.99 113.67 48.04 97.98 47.96 C 96.16 48.05 94.23 47.89 92.53 48.64 M 49.43 91.45 C 47.94 92.86 48.09 95.08 47.98 96.95 C 47.99 112.64 48.04 128.33 47.96 144.02 C 48.11 146.21 47.71 148.86 49.45 150.55 C 50.85 152.05 53.07 151.91 54.95 152.02 C 70.64 152.01 86.33 151.96 102.02 152.04 C 103.83 151.95 105.76 152.10 107.46 151.36 C 110.30 149.91 110.82 145.62 108.55 143.44 C 107.42 142.19 105.63 142.10 104.07 142.02 C 88.76 141.85 73.43 142.22 58.12 141.88 C 57.79 130.26 58.11 118.62 58.00 107.00 C 57.87 102.42 58.42 97.78 57.64 93.25 C 56.67 89.86 51.77 88.95 49.43 91.45 Z" />
</g>
</svg>
