<?xml version="1.0" encoding="UTF-8" ?>
<!DOCTYPE svg PUBLIC "-//W3C//DTD SVG 1.1//EN" "http://www.w3.org/Graphics/SVG/1.1/DTD/svg11.dtd">
<svg width="200pt" height="200pt" viewBox="0 0 200 200" version="1.1" xmlns="http://www.w3.org/2000/svg">
<g id="#ffffffff">
<path fill="#ffffff" opacity="1.00" d=" M 0.00 0.00 L 200.00 0.00 L 200.00 200.00 L 0.00 200.00 L 0.00 0.00 M 87.37 47.59 C 82.87 45.88 78.42 44.01 73.88 42.39 C 72.44 41.70 70.62 42.72 70.13 44.17 C 68.20 48.36 66.29 52.58 64.55 56.86 C 59.73 57.29 54.89 57.12 50.07 57.43 C 48.29 57.41 47.10 59.27 47.18 60.91 C 46.98 65.47 46.97 70.04 46.78 74.61 C 42.57 76.49 38.34 78.32 34.15 80.24 C 32.44 80.77 31.43 82.82 32.30 84.45 C 33.95 88.82 35.67 93.17 37.40 97.51 C 34.06 101.44 30.27 104.97 27.07 109.00 C 27.05 109.51 27.02 110.53 27.00 111.04 C 30.20 115.17 34.13 118.70 37.59 122.61 C 35.88 127.12 34.01 131.58 32.38 136.13 C 31.72 137.55 32.74 139.35 34.15 139.84 C 38.40 141.89 42.80 143.60 47.04 145.68 C 47.11 150.43 47.19 155.18 47.43 159.93 C 47.43 161.71 49.30 162.88 50.95 162.80 C 55.50 163.00 60.06 163.01 64.61 163.20 C 66.49 167.40 68.31 171.63 70.23 175.81 C 70.70 177.24 72.35 178.43 73.86 177.85 C 78.48 176.25 82.98 174.33 87.55 172.59 C 91.02 175.74 94.35 179.05 97.83 182.20 C 98.91 183.53 101.08 183.53 102.16 182.21 C 105.64 179.06 108.96 175.73 112.44 172.58 C 117.00 174.34 121.52 176.25 126.13 177.86 C 127.74 178.58 129.09 177.14 129.85 175.91 C 143.89 154.90 157.94 133.90 171.99 112.90 C 173.02 111.50 173.60 109.28 172.12 107.97 C 168.94 104.53 165.77 101.08 162.44 97.80 C 163.93 93.04 166.12 88.54 167.66 83.80 C 168.19 82.40 167.10 80.78 165.77 80.32 C 161.57 78.39 157.35 76.49 153.09 74.71 C 152.69 69.85 152.87 64.96 152.53 60.10 C 152.48 58.65 151.07 57.54 149.69 57.45 C 144.91 57.12 140.11 57.22 135.33 56.94 C 133.48 52.69 131.63 48.44 129.68 44.24 C 129.21 42.90 127.60 41.76 126.19 42.32 C 121.56 43.91 117.03 45.82 112.46 47.60 C 108.55 44.19 105.04 40.33 101.01 37.08 C 100.51 37.05 99.49 37.00 98.99 36.98 C 94.82 40.16 91.31 44.13 87.37 47.59 Z" />
<path fill="#ffffff" opacity="1.00" d=" M 89.78 53.74 C 93.55 50.78 96.61 47.02 100.36 44.03 C 103.27 47.05 106.35 49.88 109.37 52.79 C 110.24 53.72 111.59 54.40 112.84 53.79 C 117.08 52.33 121.20 50.54 125.41 49.01 C 127.12 52.87 128.79 56.75 130.54 60.60 C 130.97 61.68 131.76 62.86 133.05 62.92 C 137.62 63.24 142.21 63.19 146.79 63.39 C 147.25 68.36 146.46 73.61 147.70 78.41 C 151.79 81.19 156.76 82.56 161.18 84.80 C 159.43 89.20 157.37 93.48 155.80 97.94 C 155.53 99.43 156.71 100.50 157.59 101.48 C 160.49 104.54 163.41 107.58 166.23 110.71 C 161.47 111.25 156.68 111.48 151.92 112.02 C 150.69 112.01 149.54 112.86 149.20 114.04 C 147.84 117.45 146.69 120.95 145.39 124.38 C 140.73 125.48 136.04 126.43 131.39 127.57 C 129.83 127.77 128.49 129.33 129.01 130.95 C 129.74 135.76 130.60 140.56 131.39 145.37 C 128.54 148.66 124.01 150.85 122.39 154.96 C 123.56 159.89 125.72 164.53 126.85 169.47 C 126.55 169.86 125.96 170.65 125.67 171.04 C 121.10 169.31 116.62 167.32 111.98 165.80 C 111.53 165.89 110.63 166.08 110.18 166.17 C 106.63 169.20 103.43 172.63 100.00 175.79 C 97.13 173.06 94.28 170.32 91.43 167.56 C 90.48 166.72 89.46 165.49 88.01 165.84 C 83.61 167.31 79.36 169.20 75.00 170.79 C 72.99 166.52 71.35 162.07 69.15 157.91 C 68.87 157.67 68.30 157.21 68.02 156.97 C 63.23 156.47 58.40 156.64 53.59 156.39 C 53.36 151.58 53.48 146.75 53.03 141.95 C 52.77 141.66 52.26 141.06 52.00 140.77 C 47.83 138.63 43.43 136.98 39.19 135.00 C 40.73 130.30 43.27 125.86 44.18 120.99 C 41.77 116.71 37.38 113.76 34.19 110.00 C 36.92 107.13 39.67 104.27 42.42 101.42 C 43.28 100.46 44.50 99.41 44.17 97.95 C 42.75 93.48 40.80 89.20 39.19 84.80 C 43.30 82.92 47.48 81.21 51.56 79.27 C 52.88 78.71 53.26 77.24 53.21 75.93 C 53.38 71.75 53.44 67.57 53.59 63.39 C 58.08 63.21 62.57 63.21 67.05 62.96 C 68.39 63.09 69.32 61.90 69.76 60.79 C 71.56 56.89 73.22 52.92 75.01 49.00 C 79.34 50.60 83.58 52.49 87.97 53.92 C 88.42 53.88 89.33 53.79 89.78 53.74 M 95.30 83.52 C 91.01 84.95 87.44 88.55 86.24 92.93 C 85.61 95.35 88.86 97.40 90.83 95.93 C 92.23 94.55 92.59 92.40 94.12 91.10 C 96.89 88.53 101.48 88.28 104.47 90.62 C 107.50 92.81 108.90 97.38 106.64 100.61 C 102.38 107.50 96.57 114.38 97.03 123.00 C 97.32 126.42 102.75 126.34 103.00 122.94 C 103.27 117.67 105.76 112.92 108.73 108.69 C 111.57 104.31 115.24 99.39 113.64 93.86 C 112.05 85.93 102.93 80.71 95.30 83.52 M 98.24 129.38 C 95.53 130.54 95.20 134.71 97.70 136.28 C 100.16 138.23 104.17 136.09 104.01 132.99 C 104.13 130.16 100.74 127.99 98.24 129.38 Z" />
<path fill="#ffffff" opacity="1.00" d=" M 154.39 117.59 C 156.86 117.39 159.32 117.19 161.79 117.00 C 151.60 132.27 141.38 147.51 131.21 162.78 C 130.43 160.39 129.58 158.01 129.11 155.54 C 132.04 152.74 135.69 150.41 137.83 146.95 C 137.39 142.13 136.28 137.39 135.60 132.59 C 140.30 131.31 145.26 130.78 149.80 129.02 C 152.11 125.62 152.76 121.34 154.39 117.59 Z" />
</g>
<g id="#000000ff">
<path fill="#968176" opacity="1.00" d=" M 87.37 47.59 C 91.31 44.13 94.82 40.16 98.99 36.98 C 99.49 37.00 100.51 37.05 101.01 37.08 C 105.04 40.33 108.55 44.19 112.46 47.60 C 117.03 45.82 121.56 43.91 126.19 42.32 C 127.60 41.76 129.21 42.90 129.68 44.24 C 131.63 48.44 133.48 52.69 135.33 56.94 C 140.11 57.22 144.91 57.12 149.69 57.45 C 151.07 57.54 152.48 58.65 152.53 60.10 C 152.87 64.96 152.69 69.85 153.09 74.71 C 157.35 76.49 161.57 78.39 165.77 80.32 C 167.10 80.78 168.19 82.40 167.66 83.80 C 166.12 88.54 163.93 93.04 162.44 97.80 C 165.77 101.08 168.94 104.53 172.12 107.97 C 173.60 109.28 173.02 111.50 171.99 112.90 C 157.94 133.90 143.89 154.90 129.85 175.91 C 129.09 177.14 127.74 178.58 126.13 177.86 C 121.52 176.25 117.00 174.34 112.44 172.58 C 108.96 175.73 105.64 179.06 102.16 182.21 C 101.08 183.53 98.91 183.53 97.83 182.20 C 94.35 179.05 91.02 175.74 87.55 172.59 C 82.98 174.33 78.48 176.25 73.86 177.85 C 72.35 178.43 70.70 177.24 70.23 175.81 C 68.31 171.63 66.49 167.40 64.61 163.20 C 60.06 163.01 55.50 163.00 50.95 162.80 C 49.30 162.88 47.43 161.71 47.43 159.93 C 47.19 155.18 47.11 150.43 47.04 145.68 C 42.80 143.60 38.40 141.89 34.15 139.84 C 32.74 139.35 31.72 137.55 32.38 136.13 C 34.01 131.58 35.88 127.12 37.59 122.61 C 34.13 118.70 30.20 115.17 27.00 111.04 C 27.02 110.53 27.05 109.51 27.07 109.00 C 30.27 104.97 34.06 101.44 37.40 97.51 C 35.67 93.17 33.95 88.82 32.30 84.45 C 31.43 82.82 32.44 80.77 34.15 80.24 C 38.34 78.32 42.57 76.49 46.78 74.61 C 46.97 70.04 46.98 65.47 47.18 60.91 C 47.10 59.27 48.29 57.41 50.07 57.43 C 54.89 57.12 59.73 57.29 64.55 56.86 C 66.29 52.58 68.20 48.36 70.13 44.17 C 70.62 42.72 72.44 41.70 73.88 42.39 C 78.42 44.01 82.87 45.88 87.37 47.59 M 89.78 53.74 C 89.33 53.79 88.42 53.88 87.97 53.92 C 83.58 52.49 79.34 50.60 75.01 49.00 C 73.22 52.92 71.56 56.89 69.76 60.79 C 69.32 61.90 68.39 63.09 67.05 62.96 C 62.57 63.21 58.08 63.21 53.59 63.39 C 53.44 67.57 53.38 71.75 53.21 75.93 C 53.26 77.24 52.88 78.71 51.56 79.27 C 47.48 81.21 43.30 82.92 39.19 84.80 C 40.80 89.20 42.75 93.48 44.17 97.95 C 44.50 99.41 43.28 100.46 42.42 101.42 C 39.67 104.27 36.92 107.13 34.19 110.00 C 37.38 113.76 41.77 116.71 44.18 120.99 C 43.27 125.86 40.73 130.30 39.19 135.00 C 43.43 136.98 47.83 138.63 52.00 140.77 C 52.26 141.06 52.77 141.66 53.03 141.95 C 53.48 146.75 53.36 151.58 53.59 156.39 C 58.40 156.64 63.23 156.47 68.02 156.97 C 68.30 157.21 68.87 157.67 69.15 157.91 C 71.35 162.07 72.99 166.52 75.00 170.79 C 79.36 169.20 83.61 167.31 88.01 165.84 C 89.46 165.49 90.48 166.72 91.43 167.56 C 94.28 170.32 97.13 173.06 100.00 175.79 C 103.43 172.63 106.63 169.20 110.18 166.17 C 110.63 166.08 111.53 165.89 111.98 165.80 C 116.62 167.32 121.10 169.31 125.67 171.04 C 125.96 170.65 126.55 169.86 126.85 169.47 C 125.72 164.53 123.56 159.89 122.39 154.96 C 124.01 150.85 128.54 148.66 131.39 145.37 C 130.60 140.56 129.74 135.76 129.01 130.95 C 128.49 129.33 129.83 127.77 131.39 127.57 C 136.04 126.43 140.73 125.48 145.39 124.38 C 146.69 120.95 147.84 117.45 149.20 114.04 C 149.54 112.86 150.69 112.01 151.92 112.02 C 156.68 111.48 161.47 111.25 166.23 110.71 C 163.41 107.58 160.49 104.54 157.59 101.48 C 156.71 100.50 155.53 99.43 155.80 97.94 C 157.37 93.48 159.43 89.20 161.18 84.80 C 156.76 82.56 151.79 81.19 147.70 78.41 C 146.46 73.61 147.25 68.36 146.79 63.39 C 142.21 63.19 137.62 63.24 133.05 62.92 C 131.76 62.86 130.97 61.68 130.54 60.60 C 128.79 56.75 127.12 52.87 125.41 49.01 C 121.20 50.54 117.08 52.33 112.84 53.79 C 111.59 54.40 110.24 53.72 109.37 52.79 C 106.35 49.88 103.27 47.05 100.36 44.03 C 96.61 47.02 93.55 50.78 89.78 53.74 M 154.39 117.59 C 152.76 121.34 152.11 125.62 149.80 129.02 C 145.26 130.78 140.30 131.31 135.60 132.59 C 136.28 137.39 137.39 142.13 137.83 146.95 C 135.69 150.41 132.04 152.74 129.11 155.54 C 129.58 158.01 130.43 160.39 131.21 162.78 C 141.38 147.51 151.60 132.27 161.79 117.00 C 159.32 117.19 156.86 117.39 154.39 117.59 Z" />
<path fill="#968176" opacity="1.00" d=" M 95.30 83.52 C 102.93 80.71 112.05 85.93 113.64 93.86 C 115.24 99.39 111.57 104.31 108.73 108.69 C 105.76 112.92 103.27 117.67 103.00 122.94 C 102.75 126.34 97.32 126.42 97.03 123.00 C 96.57 114.38 102.38 107.50 106.64 100.61 C 108.90 97.38 107.50 92.81 104.47 90.62 C 101.48 88.28 96.89 88.53 94.12 91.10 C 92.59 92.40 92.23 94.55 90.83 95.93 C 88.86 97.40 85.61 95.35 86.24 92.93 C 87.44 88.55 91.01 84.95 95.30 83.52 Z" />
<path fill="#968176" opacity="1.00" d=" M 98.24 129.38 C 100.74 127.99 104.13 130.16 104.01 132.99 C 104.17 136.09 100.16 138.23 97.70 136.28 C 95.20 134.71 95.53 130.54 98.24 129.38 Z" />
</g>
</svg>
