<?xml version="1.0" encoding="UTF-8" ?>
<!DOCTYPE svg PUBLIC "-//W3C//DTD SVG 1.1//EN" "http://www.w3.org/Graphics/SVG/1.1/DTD/svg11.dtd">
<svg width="60pt" height="60pt" viewBox="0 0 60 60" version="1.1" xmlns="http://www.w3.org/2000/svg">
<g id="#ffffffff">
<path fill="#ffffff" opacity="1.00" d=" M 0.00 0.00 L 60.00 0.00 L 60.00 60.00 L 0.00 60.00 L 0.00 0.00 M 21.10 8.11 C 16.87 8.70 12.22 9.85 9.52 13.44 C 7.29 16.33 8.04 20.17 8.67 23.47 C 7.55 25.50 6.19 27.56 6.04 29.95 C 5.77 31.64 8.31 32.81 9.33 31.38 C 10.41 28.90 11.79 26.56 12.89 24.10 C 12.10 20.53 10.93 15.98 14.88 13.82 C 21.11 24.67 38.88 24.66 45.11 13.82 C 49.06 15.98 47.89 20.50 47.11 24.07 C 48.00 26.35 49.43 28.40 50.32 30.69 C 50.78 32.89 54.21 32.08 53.97 29.97 C 53.80 27.59 52.48 25.53 51.33 23.51 C 51.86 20.40 52.67 16.88 50.86 14.03 C 48.30 9.97 43.27 8.65 38.79 8.15 C 38.16 7.46 37.53 6.76 36.90 6.06 C 32.61 6.03 28.31 5.86 24.02 6.08 C 22.73 6.10 22.06 7.43 21.10 8.11 M 16.71 30.65 C 14.67 32.38 12.29 33.62 10.09 35.11 C 9.70 36.44 10.53 38.17 12.10 37.98 C 13.79 37.61 15.24 36.58 16.77 35.81 C 17.69 40.87 14.63 46.07 17.00 50.93 C 17.60 52.64 19.44 55.07 21.40 53.49 C 23.07 51.03 19.41 48.76 20.08 46.07 C 20.75 41.16 21.75 35.97 19.78 31.21 C 19.39 29.77 17.64 29.73 16.71 30.65 M 40.23 31.18 C 38.40 35.65 39.05 40.59 39.84 45.21 C 40.43 47.71 38.79 49.84 37.99 52.06 C 38.15 54.60 41.60 54.41 42.29 52.28 C 45.77 47.25 42.35 41.31 43.22 35.81 C 44.77 36.58 46.22 37.64 47.94 37.98 C 49.47 38.16 50.28 36.44 49.91 35.14 C 47.75 33.59 45.33 32.42 43.31 30.67 C 42.41 29.74 40.62 29.76 40.23 31.18 Z" />
</g>
<g id="#000000ff">
<path fill="#000000" opacity="1.00" d=" M 21.10 8.11 C 22.06 7.43 22.73 6.10 24.02 6.08 C 28.31 5.86 32.61 6.03 36.90 6.06 C 37.53 6.76 38.16 7.46 38.79 8.15 C 43.27 8.65 48.30 9.97 50.86 14.03 C 52.67 16.88 51.86 20.40 51.33 23.51 C 52.48 25.53 53.80 27.59 53.97 29.97 C 54.21 32.08 50.78 32.89 50.32 30.69 C 49.43 28.40 48.00 26.35 47.11 24.07 C 47.89 20.50 49.06 15.98 45.11 13.82 C 38.88 24.66 21.11 24.67 14.88 13.82 C 10.93 15.98 12.10 20.53 12.89 24.10 C 11.79 26.56 10.41 28.90 9.33 31.38 C 8.31 32.81 5.77 31.64 6.04 29.95 C 6.19 27.56 7.55 25.50 8.67 23.47 C 8.04 20.17 7.29 16.33 9.52 13.44 C 12.22 9.85 16.87 8.70 21.10 8.11 Z" />
<path fill="#000000" opacity="1.00" d=" M 16.71 30.65 C 17.64 29.73 19.39 29.77 19.78 31.21 C 21.75 35.97 20.75 41.16 20.08 46.07 C 19.41 48.76 23.07 51.03 21.40 53.49 C 19.44 55.07 17.60 52.64 17.00 50.93 C 14.63 46.07 17.69 40.87 16.77 35.81 C 15.24 36.58 13.79 37.61 12.10 37.98 C 10.53 38.17 9.70 36.44 10.09 35.11 C 12.29 33.62 14.67 32.38 16.71 30.65 Z" />
<path fill="#000000" opacity="1.00" d=" M 40.23 31.18 C 40.62 29.76 42.41 29.74 43.31 30.67 C 45.33 32.42 47.75 33.59 49.91 35.14 C 50.28 36.44 49.47 38.16 47.94 37.98 C 46.22 37.64 44.77 36.58 43.22 35.81 C 42.35 41.31 45.77 47.25 42.29 52.28 C 41.60 54.41 38.15 54.60 37.99 52.06 C 38.79 49.84 40.43 47.71 39.84 45.21 C 39.05 40.59 38.40 35.65 40.23 31.18 Z" />
</g>
</svg>
