<?xml version="1.0" encoding="UTF-8" ?>
<!DOCTYPE svg PUBLIC "-//W3C//DTD SVG 1.1//EN" "http://www.w3.org/Graphics/SVG/1.1/DTD/svg11.dtd">
<svg width="64pt" height="64pt" viewBox="0 0 64 64" version="1.1" xmlns="http://www.w3.org/2000/svg">
<g id="#ffffffff">
<path fill="#ffffff" opacity="1.00" d=" M 0.00 0.00 L 64.00 0.00 L 64.00 64.00 L 0.00 64.00 L 0.00 0.00 M 14.27 10.32 C 11.38 11.05 9.80 14.10 10.01 16.93 C 10.03 27.30 9.91 37.66 10.06 48.02 C 10.00 51.20 12.80 54.00 15.98 53.94 C 26.65 54.05 37.34 54.05 48.02 53.94 C 51.19 54.00 54.00 51.20 53.94 48.03 C 54.11 38.34 53.92 28.65 54.02 18.97 C 53.99 16.51 54.18 13.62 52.20 11.79 C 49.80 9.33 46.07 10.13 42.99 9.98 C 33.43 10.24 23.80 9.55 14.27 10.32 Z" />
<path fill="#ffffff" opacity="1.00" d=" M 15.24 14.15 C 26.40 13.90 37.60 13.89 48.75 14.15 C 49.03 14.43 49.57 14.97 49.84 15.25 C 50.11 26.40 50.10 37.60 49.85 48.76 C 49.58 49.03 49.03 49.58 48.75 49.85 C 37.87 50.16 26.97 49.99 16.08 49.94 C 14.36 50.21 13.84 48.34 14.01 47.01 C 13.97 37.33 14.02 27.64 13.99 17.95 C 14.16 16.68 13.61 14.68 15.24 14.15 M 22.03 30.06 C 21.94 31.35 21.94 32.65 22.03 33.94 C 28.67 34.05 35.32 34.05 41.97 33.94 C 42.05 32.65 42.06 31.35 41.97 30.06 C 35.33 29.95 28.67 29.96 22.03 30.06 Z" />
</g>
<g id="#000000ff">
<path fill="#000000" opacity="1.00" d=" M 14.27 10.32 C 23.80 9.55 33.43 10.24 42.99 9.98 C 46.07 10.13 49.80 9.33 52.20 11.79 C 54.18 13.62 53.99 16.51 54.02 18.97 C 53.92 28.65 54.11 38.34 53.94 48.03 C 54.00 51.20 51.19 54.00 48.02 53.94 C 37.34 54.05 26.65 54.05 15.98 53.94 C 12.80 54.00 10.00 51.20 10.06 48.02 C 9.91 37.66 10.03 27.30 10.01 16.93 C 9.80 14.10 11.38 11.05 14.27 10.32 M 15.24 14.15 C 13.61 14.68 14.16 16.68 13.99 17.95 C 14.02 27.64 13.97 37.33 14.01 47.01 C 13.84 48.34 14.36 50.21 16.08 49.94 C 26.97 49.99 37.87 50.16 48.75 49.85 C 49.03 49.58 49.58 49.03 49.85 48.76 C 50.10 37.60 50.11 26.40 49.84 15.25 C 49.57 14.97 49.03 14.43 48.75 14.15 C 37.60 13.89 26.40 13.90 15.24 14.15 Z" />
<path fill="#000000" opacity="1.00" d=" M 22.03 30.06 C 28.67 29.96 35.33 29.95 41.97 30.06 C 42.06 31.35 42.05 32.65 41.97 33.94 C 35.32 34.05 28.67 34.05 22.03 33.94 C 21.94 32.65 21.94 31.35 22.03 30.06 Z" />
</g>
</svg>
