<?xml version="1.0" encoding="UTF-8" ?>
<!DOCTYPE svg PUBLIC "-//W3C//DTD SVG 1.1//EN" "http://www.w3.org/Graphics/SVG/1.1/DTD/svg11.dtd">
<svg width="64pt" height="64pt" viewBox="0 0 64 64" version="1.1" xmlns="http://www.w3.org/2000/svg">
<g id="#ffffffff">
<path fill="#ffffff" opacity="1.00" d=" M 0.00 0.00 L 64.00 0.00 L 64.00 64.00 L 0.00 64.00 L 0.00 0.00 M 26.51 8.64 C 19.36 10.30 13.13 15.42 10.14 22.12 C 6.99 28.97 7.37 37.32 11.15 43.85 C 14.78 50.29 21.54 54.87 28.88 55.77 C 35.68 56.70 42.86 54.52 47.95 49.89 C 53.27 45.19 56.33 38.04 55.96 30.93 C 55.69 24.06 52.26 17.40 46.85 13.17 C 41.23 8.65 33.50 6.98 26.51 8.64 Z" />
<path fill="#ffffff" opacity="1.00" d=" M 13.82 23.14 C 17.62 16.33 25.06 11.45 33.03 12.06 C 40.31 12.23 46.66 16.98 50.18 23.16 C 47.67 21.14 44.54 19.37 41.20 20.20 C 37.34 20.88 34.77 24.34 33.97 27.99 C 32.66 27.99 31.34 27.99 30.02 27.99 C 29.21 24.35 26.67 20.89 22.81 20.20 C 19.47 19.36 16.34 21.14 13.82 23.14 Z" />
<path fill="#ffffff" opacity="1.00" d=" M 18.46 24.69 C 21.48 22.73 24.71 25.03 26.29 27.65 C 24.89 26.71 23.07 25.25 21.39 26.50 C 19.61 27.53 19.58 30.42 21.36 31.47 C 22.98 32.73 24.86 31.35 26.22 30.39 C 24.75 32.41 22.73 34.71 19.90 33.88 C 15.60 33.15 14.61 26.70 18.46 24.69 Z" />
<path fill="#ffffff" opacity="1.00" d=" M 37.78 27.60 C 39.30 25.25 41.94 22.95 44.92 24.38 C 48.95 25.82 48.94 32.22 44.89 33.62 C 41.91 35.05 39.30 32.71 37.77 30.39 C 39.62 32.63 43.97 32.41 43.99 28.95 C 43.88 25.56 39.60 25.39 37.78 27.60 Z" />
<path fill="#ffffff" opacity="1.00" d=" M 11.86 30.23 C 12.94 33.47 14.99 36.74 18.52 37.62 C 23.00 39.09 27.79 36.25 29.51 32.05 C 31.16 32.02 32.81 32.02 34.46 32.03 C 36.20 36.23 40.98 39.10 45.49 37.62 C 49.01 36.73 51.06 33.48 52.11 30.24 C 52.26 36.54 50.02 43.03 45.07 47.13 C 37.92 53.56 26.09 53.56 18.94 47.14 C 13.97 43.04 11.76 36.54 11.86 30.23 M 24.00 40.00 C 24.00 41.33 24.00 42.67 24.00 44.00 C 29.33 44.00 34.67 44.00 40.00 44.00 C 40.00 42.67 40.00 41.33 40.00 40.00 C 34.67 40.00 29.33 40.00 24.00 40.00 Z" />
</g>
<g id="#000000ff">
<path fill="#000000" opacity="1.00" d=" M 26.51 8.64 C 33.50 6.98 41.23 8.65 46.85 13.17 C 52.26 17.40 55.69 24.06 55.96 30.93 C 56.33 38.04 53.27 45.19 47.95 49.89 C 42.86 54.52 35.68 56.70 28.88 55.77 C 21.54 54.87 14.78 50.29 11.15 43.85 C 7.37 37.32 6.99 28.97 10.14 22.12 C 13.13 15.42 19.36 10.30 26.51 8.64 M 13.82 23.14 C 16.34 21.14 19.47 19.36 22.81 20.20 C 26.67 20.89 29.21 24.35 30.02 27.99 C 31.34 27.99 32.66 27.99 33.97 27.99 C 34.77 24.34 37.34 20.88 41.20 20.20 C 44.54 19.37 47.67 21.14 50.18 23.16 C 46.66 16.98 40.31 12.23 33.03 12.06 C 25.06 11.45 17.62 16.33 13.82 23.14 M 18.46 24.69 C 14.61 26.70 15.60 33.15 19.90 33.88 C 22.73 34.71 24.75 32.41 26.22 30.39 C 24.86 31.35 22.98 32.73 21.36 31.47 C 19.58 30.42 19.61 27.53 21.39 26.50 C 23.07 25.25 24.89 26.71 26.29 27.65 C 24.71 25.03 21.48 22.73 18.46 24.69 M 37.78 27.60 C 39.60 25.39 43.88 25.56 43.99 28.95 C 43.97 32.41 39.62 32.63 37.77 30.39 C 39.30 32.71 41.91 35.05 44.89 33.62 C 48.94 32.22 48.95 25.82 44.92 24.38 C 41.94 22.95 39.30 25.25 37.78 27.60 M 11.86 30.23 C 11.76 36.54 13.97 43.04 18.94 47.14 C 26.09 53.56 37.92 53.56 45.07 47.13 C 50.02 43.03 52.26 36.54 52.11 30.24 C 51.06 33.48 49.01 36.73 45.49 37.62 C 40.98 39.10 36.20 36.23 34.46 32.03 C 32.81 32.02 31.16 32.02 29.51 32.05 C 27.79 36.25 23.00 39.09 18.52 37.62 C 14.99 36.74 12.94 33.47 11.86 30.23 Z" />
<path fill="#000000" opacity="1.00" d=" M 24.00 40.00 C 29.33 40.00 34.67 40.00 40.00 40.00 C 40.00 41.33 40.00 42.67 40.00 44.00 C 34.67 44.00 29.33 44.00 24.00 44.00 C 24.00 42.67 24.00 41.33 24.00 40.00 Z" />
</g>
</svg>
