<?xml version="1.0" encoding="UTF-8" ?>
<!DOCTYPE svg PUBLIC "-//W3C//DTD SVG 1.1//EN" "http://www.w3.org/Graphics/SVG/1.1/DTD/svg11.dtd">
<svg width="60pt" height="60pt" viewBox="0 0 60 60" version="1.1" xmlns="http://www.w3.org/2000/svg">
<g id="#ffffffff">
<path fill="#ffffff" opacity="1.00" d=" M 0.00 0.00 L 60.00 0.00 L 60.00 60.00 L 0.00 60.00 L 0.00 0.00 M 9.85 13.85 C 8.34 14.03 6.06 13.93 6.01 16.03 C 5.07 21.04 4.30 26.10 3.52 31.14 C 2.71 34.65 7.56 33.52 8.96 35.78 C 7.48 38.31 5.91 40.79 4.54 43.38 C 3.47 45.27 4.03 47.92 5.86 49.13 C 8.42 50.91 10.99 52.79 13.90 53.96 C 16.97 52.64 17.60 48.72 19.22 46.08 C 23.19 45.36 26.57 43.07 29.14 40.02 C 35.96 39.99 42.77 39.97 49.59 40.03 C 50.64 42.33 54.43 42.97 55.83 40.79 C 56.26 35.88 55.88 30.94 56.00 26.01 C 56.50 26.00 57.50 26.00 58.00 25.99 C 58.00 24.00 58.00 22.00 58.00 20.01 C 57.52 20.01 56.54 20.00 56.06 20.00 C 56.01 18.38 56.04 16.74 55.82 15.13 C 55.09 13.68 53.33 14.12 52.02 13.98 C 41.12 14.00 30.22 14.01 19.32 13.99 C 18.31 11.77 16.98 9.15 14.05 9.95 C 11.33 9.26 9.49 11.19 9.85 13.85 Z" />
<path fill="#ffffff" opacity="1.00" d=" M 34.00 22.00 C 38.67 22.00 43.33 22.00 48.00 22.00 C 48.00 25.33 48.00 28.67 48.00 32.00 C 43.33 32.00 38.67 32.00 34.00 32.00 C 34.00 28.67 34.00 25.33 34.00 22.00 Z" />
<path fill="#ffffff" opacity="1.00" d=" M 21.94 34.00 C 23.33 34.00 24.73 34.00 26.12 34.00 C 26.90 37.86 23.65 40.04 20.72 41.64 C 21.14 39.10 21.56 36.55 21.94 34.00 Z" />
</g>
<g id="#000000ff">
<path fill="#000000" opacity="1.00" d=" M 9.85 13.85 C 9.49 11.19 11.33 9.26 14.05 9.95 C 16.98 9.15 18.31 11.77 19.32 13.99 C 30.22 14.01 41.12 14.00 52.02 13.98 C 53.33 14.12 55.09 13.68 55.82 15.13 C 56.04 16.74 56.01 18.38 56.06 20.00 C 56.54 20.00 57.52 20.01 58.00 20.01 C 58.00 22.00 58.00 24.00 58.00 25.99 C 57.50 26.00 56.50 26.00 56.00 26.01 C 55.88 30.94 56.26 35.88 55.83 40.79 C 54.43 42.97 50.64 42.33 49.59 40.03 C 42.77 39.97 35.96 39.99 29.14 40.02 C 26.57 43.07 23.19 45.36 19.22 46.08 C 17.60 48.72 16.97 52.64 13.90 53.96 C 10.99 52.79 8.42 50.91 5.86 49.13 C 4.03 47.92 3.47 45.27 4.54 43.38 C 5.91 40.79 7.48 38.31 8.96 35.78 C 7.56 33.52 2.71 34.65 3.52 31.14 C 4.30 26.10 5.07 21.04 6.01 16.03 C 6.06 13.93 8.34 14.03 9.85 13.85 M 34.00 22.00 C 34.00 25.33 34.00 28.67 34.00 32.00 C 38.67 32.00 43.33 32.00 48.00 32.00 C 48.00 28.67 48.00 25.33 48.00 22.00 C 43.33 22.00 38.67 22.00 34.00 22.00 M 21.94 34.00 C 21.56 36.55 21.14 39.10 20.72 41.64 C 23.65 40.04 26.90 37.86 26.12 34.00 C 24.73 34.00 23.33 34.00 21.94 34.00 Z" />
</g>
</svg>
