<?xml version="1.0" encoding="UTF-8" ?>
<!DOCTYPE svg PUBLIC "-//W3C//DTD SVG 1.1//EN" "http://www.w3.org/Graphics/SVG/1.1/DTD/svg11.dtd">
<svg width="60pt" height="60pt" viewBox="0 0 60 60" version="1.1" xmlns="http://www.w3.org/2000/svg">
<g id="#ffffffff">
<path fill="#ffffff" opacity="1.00" d=" M 0.00 0.00 L 60.00 0.00 L 60.00 60.00 L 0.00 60.00 L 0.00 0.00 M 7.11 8.17 C 4.75 10.99 6.50 15.47 6.10 18.94 C 8.76 21.55 11.39 24.19 14.00 26.84 C 14.04 34.60 13.92 42.36 14.05 50.12 C 14.02 52.61 16.62 54.37 18.97 54.00 C 26.67 53.97 34.39 54.07 42.09 53.95 C 44.08 53.98 45.93 52.17 45.94 50.19 C 46.09 42.41 45.95 34.62 46.00 26.83 C 48.57 24.15 51.42 21.72 53.80 18.86 C 54.17 15.65 54.12 12.38 53.84 9.17 C 53.14 7.63 51.30 8.14 49.96 7.98 C 35.68 8.13 21.37 7.76 7.11 8.17 Z" />
<path fill="#ffffff" opacity="1.00" d=" M 10.00 12.00 C 23.33 12.00 36.67 12.00 50.00 12.00 C 50.00 13.33 50.00 14.67 50.00 16.00 C 41.99 16.00 33.98 16.01 25.97 15.98 C 24.69 16.13 22.87 15.68 22.18 17.14 C 21.55 18.36 22.55 20.10 23.98 19.92 C 31.71 20.14 39.45 19.92 47.18 20.01 C 45.84 21.33 44.52 22.68 43.17 24.00 C 34.40 24.00 25.63 24.00 16.86 24.00 C 15.53 22.69 14.23 21.35 12.86 20.08 C 14.65 19.83 17.78 20.64 18.04 18.01 C 17.19 14.56 12.56 16.47 10.00 16.00 C 10.00 14.67 10.00 13.33 10.00 12.00 Z" />
<path fill="#ffffff" opacity="1.00" d=" M 18.00 46.00 C 26.00 46.00 34.00 46.00 42.00 46.00 C 42.00 47.33 42.00 48.67 42.00 50.00 C 34.00 50.00 26.00 50.00 18.00 50.00 C 18.00 48.67 18.00 47.33 18.00 46.00 Z" />
</g>
<g id="#000000ff">
<path fill="#000000" opacity="1.00" d=" M 7.11 8.17 C 21.37 7.76 35.68 8.13 49.96 7.98 C 51.30 8.14 53.14 7.63 53.84 9.17 C 54.12 12.38 54.17 15.65 53.80 18.86 C 51.42 21.72 48.57 24.15 46.00 26.83 C 45.95 34.62 46.09 42.41 45.94 50.19 C 45.93 52.17 44.08 53.98 42.09 53.95 C 34.39 54.07 26.67 53.97 18.97 54.00 C 16.62 54.37 14.02 52.61 14.05 50.12 C 13.92 42.36 14.04 34.60 14.00 26.84 C 11.39 24.19 8.76 21.55 6.10 18.94 C 6.50 15.47 4.75 10.99 7.11 8.17 M 10.00 12.00 C 10.00 13.33 10.00 14.67 10.00 16.00 C 12.56 16.47 17.19 14.56 18.04 18.01 C 17.78 20.64 14.65 19.83 12.86 20.08 C 14.23 21.35 15.53 22.69 16.86 24.00 C 25.63 24.00 34.40 24.00 43.17 24.00 C 44.52 22.68 45.84 21.33 47.18 20.01 C 39.45 19.92 31.71 20.14 23.98 19.92 C 22.55 20.10 21.55 18.36 22.18 17.14 C 22.87 15.68 24.69 16.13 25.97 15.98 C 33.98 16.01 41.99 16.00 50.00 16.00 C 50.00 14.67 50.00 13.33 50.00 12.00 C 36.67 12.00 23.33 12.00 10.00 12.00 M 18.00 46.00 C 18.00 47.33 18.00 48.67 18.00 50.00 C 26.00 50.00 34.00 50.00 42.00 50.00 C 42.00 48.67 42.00 47.33 42.00 46.00 C 34.00 46.00 26.00 46.00 18.00 46.00 Z" />
</g>
</svg>
