<?xml version="1.0" encoding="UTF-8" ?>
<!DOCTYPE svg PUBLIC "-//W3C//DTD SVG 1.1//EN" "http://www.w3.org/Graphics/SVG/1.1/DTD/svg11.dtd">
<svg width="60pt" height="60pt" viewBox="0 0 60 60" version="1.1" xmlns="http://www.w3.org/2000/svg">
<g id="#ffffffff">
<path fill="#ffffff" opacity="1.00" d=" M 0.00 0.00 L 60.00 0.00 L 60.00 60.00 L 0.00 60.00 L 0.00 0.00 M 11.27 8.17 C 10.99 8.44 10.45 8.99 10.18 9.26 C 9.81 13.45 9.97 17.69 10.06 21.89 C 9.81 23.63 11.65 24.13 13.00 23.99 C 24.01 24.03 35.03 23.97 46.05 24.01 C 47.30 23.84 49.37 24.37 49.82 22.73 C 50.14 18.27 50.15 13.74 49.82 9.27 C 49.41 7.61 47.28 8.17 46.05 7.99 C 34.46 8.13 22.84 7.76 11.27 8.17 M 14.06 28.00 C 14.03 29.28 14.00 30.57 13.98 31.85 C 12.75 32.03 11.53 32.22 10.30 32.42 C 9.74 37.59 10.02 42.81 10.04 48.00 C 9.93 50.56 12.55 52.35 14.94 52.00 C 25.29 51.97 35.64 52.06 45.99 51.96 C 48.11 52.04 50.04 50.11 49.96 48.00 C 49.98 42.81 50.26 37.59 49.69 32.43 C 48.47 32.22 47.25 32.03 46.03 31.85 C 46.00 30.57 45.97 29.28 45.94 28.00 C 44.64 27.99 43.35 27.99 42.06 27.99 C 42.02 29.34 41.98 30.68 41.94 32.02 C 39.98 31.99 38.01 31.99 36.05 32.02 C 36.02 30.67 35.98 29.33 35.95 27.99 C 31.98 28.00 28.02 28.00 24.05 27.99 C 24.02 29.33 23.98 30.67 23.95 32.02 C 21.98 31.99 20.02 31.99 18.06 32.02 C 18.02 30.68 17.98 29.34 17.94 27.99 C 16.65 27.99 15.35 27.99 14.06 28.00 Z" />
<path fill="#ffffff" opacity="1.00" d=" M 14.00 44.01 C 24.67 43.99 35.33 43.99 46.00 44.01 C 46.00 45.34 46.00 46.66 46.00 47.99 C 35.33 48.01 24.67 48.01 14.00 47.99 C 14.00 46.66 14.00 45.34 14.00 44.01 Z" />
</g>
<g id="#000000ff">
<path fill="#968176" opacity="1.00" d=" M 11.27 8.17 C 22.84 7.76 34.46 8.13 46.05 7.99 C 47.28 8.17 49.41 7.61 49.82 9.27 C 50.15 13.74 50.14 18.27 49.82 22.73 C 49.37 24.37 47.30 23.84 46.05 24.01 C 35.03 23.97 24.01 24.03 13.00 23.99 C 11.65 24.13 9.81 23.63 10.06 21.89 C 9.97 17.69 9.81 13.45 10.18 9.26 C 10.45 8.99 10.99 8.44 11.27 8.17 Z" />
<path fill="#968176" opacity="1.00" d=" M 14.06 28.00 C 15.35 27.99 16.65 27.99 17.94 27.99 C 17.98 29.34 18.02 30.68 18.06 32.02 C 20.02 31.99 21.98 31.99 23.95 32.02 C 23.98 30.67 24.02 29.33 24.05 27.99 C 28.02 28.00 31.98 28.00 35.95 27.99 C 35.98 29.33 36.02 30.67 36.05 32.02 C 38.01 31.99 39.98 31.99 41.94 32.02 C 41.98 30.68 42.02 29.34 42.06 27.99 C 43.35 27.99 44.64 27.99 45.94 28.00 C 45.97 29.28 46.00 30.57 46.03 31.85 C 47.25 32.03 48.47 32.22 49.69 32.43 C 50.26 37.59 49.98 42.81 49.96 48.00 C 50.04 50.11 48.11 52.04 45.99 51.96 C 35.64 52.06 25.29 51.97 14.94 52.00 C 12.55 52.35 9.93 50.56 10.04 48.00 C 10.02 42.81 9.74 37.59 10.30 32.42 C 11.53 32.22 12.75 32.03 13.98 31.85 C 14.00 30.57 14.03 29.28 14.06 28.00 M 14.00 44.01 C 14.00 45.34 14.00 46.66 14.00 47.99 C 24.67 48.01 35.33 48.01 46.00 47.99 C 46.00 46.66 46.00 45.34 46.00 44.01 C 35.33 43.99 24.67 43.99 14.00 44.01 Z" />
</g>
</svg>
