<?xml version="1.0" encoding="UTF-8" ?>
<!DOCTYPE svg PUBLIC "-//W3C//DTD SVG 1.1//EN" "http://www.w3.org/Graphics/SVG/1.1/DTD/svg11.dtd">
<svg width="60pt" height="60pt" viewBox="0 0 60 60" version="1.1" xmlns="http://www.w3.org/2000/svg">
<g id="#ffffffff">
<path fill="#ffffff" opacity="1.00" d=" M 0.00 0.00 L 60.00 0.00 L 60.00 60.00 L 0.00 60.00 L 0.00 0.00 M 17.98 11.92 C 17.98 21.94 18.01 31.97 18.01 41.99 C 26.00 42.01 34.00 42.01 41.99 41.99 C 41.91 31.34 42.18 20.67 41.90 10.02 C 42.02 7.81 40.20 5.96 37.99 6.10 C 32.39 5.91 26.75 5.75 21.17 6.21 C 18.32 6.43 17.90 9.67 17.98 11.92 M 17.82 46.03 C 18.16 48.29 17.61 50.96 19.13 52.86 C 21.47 54.65 24.67 53.80 27.40 54.00 C 28.05 52.16 29.15 50.57 30.63 49.31 C 31.27 50.87 31.86 52.45 32.42 54.04 C 34.81 53.97 37.26 54.20 39.61 53.62 C 42.62 52.40 41.78 48.59 42.18 46.03 C 34.06 45.97 25.94 45.97 17.82 46.03 Z" />
<path fill="#ffffff" opacity="1.00" d=" M 29.21 12.03 C 31.60 11.31 32.16 14.19 32.01 15.94 C 31.90 22.20 32.36 28.50 31.73 34.74 C 31.08 36.94 27.93 36.07 28.13 33.92 C 27.94 27.05 27.71 20.12 28.26 13.27 C 28.50 12.96 28.97 12.34 29.21 12.03 Z" />
</g>
<g id="#000000ff">
<path fill="#968176" opacity="1.00" d=" M 17.98 11.92 C 17.90 9.67 18.32 6.43 21.17 6.21 C 26.75 5.75 32.39 5.91 37.99 6.10 C 40.20 5.96 42.02 7.81 41.90 10.02 C 42.18 20.67 41.91 31.34 41.99 41.99 C 34.00 42.01 26.00 42.01 18.01 41.99 C 18.01 31.97 17.98 21.94 17.98 11.92 M 29.21 12.03 C 28.97 12.34 28.50 12.96 28.26 13.27 C 27.71 20.12 27.94 27.05 28.13 33.92 C 27.93 36.07 31.08 36.94 31.73 34.74 C 32.36 28.50 31.90 22.20 32.01 15.94 C 32.16 14.19 31.60 11.31 29.21 12.03 Z" />
<path fill="#968176" opacity="1.00" d=" M 17.82 46.03 C 25.94 45.97 34.06 45.97 42.18 46.03 C 41.78 48.59 42.62 52.40 39.61 53.62 C 37.26 54.20 34.81 53.97 32.42 54.04 C 31.86 52.45 31.27 50.87 30.63 49.31 C 29.15 50.57 28.05 52.16 27.40 54.00 C 24.67 53.80 21.47 54.65 19.13 52.86 C 17.61 50.96 18.16 48.29 17.82 46.03 Z" />
</g>
</svg>
