<?xml version="1.0" encoding="UTF-8" ?>
<!DOCTYPE svg PUBLIC "-//W3C//DTD SVG 1.1//EN" "http://www.w3.org/Graphics/SVG/1.1/DTD/svg11.dtd">
<svg width="60pt" height="60pt" viewBox="0 0 60 60" version="1.1" xmlns="http://www.w3.org/2000/svg">
<g id="#ffffffff">
<path fill="#ffffff" opacity="1.00" d=" M 0.00 0.00 L 60.00 0.00 L 60.00 60.00 L 0.00 60.00 L 0.00 0.00 M 12.05 9.94 C 11.95 17.33 11.95 24.73 12.06 32.11 C 11.92 35.19 15.30 36.17 17.76 36.27 C 16.15 38.11 14.62 40.01 13.08 41.90 C 11.48 42.22 9.22 41.45 8.19 43.12 C 7.84 46.35 7.84 49.64 8.19 52.87 C 9.75 54.87 12.75 53.71 14.94 54.05 C 16.66 53.90 19.93 54.60 19.93 51.97 C 19.77 48.54 21.10 44.34 18.46 41.59 C 19.98 39.75 21.47 37.87 22.96 36.00 C 24.64 36.00 26.32 36.00 28.00 36.00 C 28.00 37.93 28.00 39.86 28.00 41.79 C 26.62 42.11 23.99 41.83 24.08 43.94 C 24.35 47.12 22.86 51.26 25.11 53.81 C 28.34 54.16 31.62 54.16 34.84 53.81 C 37.17 51.35 35.63 47.13 35.92 43.98 C 36.04 41.85 33.39 42.12 32.00 41.79 C 32.00 39.86 32.00 37.93 32.00 36.00 C 34.28 36.00 36.57 36.00 38.85 36.00 C 39.95 37.82 41.07 39.63 42.20 41.44 C 38.85 43.07 40.24 47.09 39.97 50.05 C 39.95 51.51 39.88 54.05 42.00 53.93 C 45.06 53.84 48.59 54.68 51.38 53.37 C 52.67 50.57 51.85 47.05 51.92 43.98 C 51.91 41.46 48.76 42.14 47.11 41.88 C 45.99 40.06 44.86 38.24 43.71 36.43 C 45.61 35.64 48.10 34.55 47.94 32.05 C 48.09 25.01 47.97 17.95 48.00 10.90 C 48.29 8.56 46.63 5.93 44.08 6.06 C 35.00 5.92 25.91 6.03 16.82 6.00 C 14.48 5.70 11.97 7.45 12.05 9.94 Z" />
<path fill="#ffffff" opacity="1.00" d=" M 16.00 12.00 C 25.33 12.00 34.67 12.00 44.00 12.00 C 44.00 18.67 44.00 25.33 44.00 32.00 C 34.67 32.00 25.33 32.00 16.00 32.00 C 16.00 25.33 16.00 18.67 16.00 12.00 M 21.22 16.21 C 18.70 16.97 20.56 21.10 22.76 19.79 C 25.30 19.03 23.44 14.90 21.22 16.21 M 29.25 16.20 C 27.59 16.64 27.59 19.32 29.23 19.79 C 32.40 20.18 35.64 20.18 38.81 19.78 C 40.41 19.25 40.39 16.67 38.75 16.20 C 35.61 15.83 32.39 15.83 29.25 16.20 M 21.26 24.18 C 18.70 24.92 20.56 29.14 22.78 27.78 C 25.27 27.01 23.48 22.97 21.26 24.18 M 29.18 24.21 C 27.61 24.76 27.62 27.24 29.18 27.79 C 32.38 28.17 35.66 28.19 38.85 27.77 C 40.38 27.17 40.37 24.76 38.81 24.21 C 35.63 23.83 32.36 23.83 29.18 24.21 Z" />
</g>
<g id="#000000ff">
<path fill="#968176" opacity="1.00" d=" M 12.05 9.94 C 11.97 7.45 14.48 5.70 16.82 6.00 C 25.91 6.03 35.00 5.92 44.08 6.06 C 46.63 5.93 48.29 8.56 48.00 10.90 C 47.97 17.95 48.09 25.01 47.94 32.05 C 48.10 34.55 45.61 35.64 43.71 36.43 C 44.86 38.24 45.99 40.06 47.11 41.88 C 48.76 42.14 51.91 41.46 51.92 43.98 C 51.85 47.05 52.67 50.57 51.38 53.37 C 48.59 54.68 45.06 53.84 42.00 53.93 C 39.88 54.05 39.95 51.51 39.97 50.05 C 40.24 47.09 38.85 43.07 42.20 41.44 C 41.07 39.63 39.95 37.82 38.85 36.00 C 36.57 36.00 34.28 36.00 32.00 36.00 C 32.00 37.93 32.00 39.86 32.00 41.79 C 33.39 42.12 36.04 41.85 35.92 43.98 C 35.63 47.13 37.17 51.35 34.84 53.81 C 31.62 54.16 28.34 54.16 25.11 53.81 C 22.86 51.26 24.35 47.12 24.08 43.94 C 23.99 41.83 26.62 42.11 28.00 41.79 C 28.00 39.86 28.00 37.93 28.00 36.00 C 26.32 36.00 24.64 36.00 22.96 36.00 C 21.47 37.87 19.98 39.75 18.46 41.59 C 21.10 44.34 19.77 48.54 19.93 51.97 C 19.93 54.60 16.66 53.90 14.94 54.05 C 12.75 53.71 9.75 54.87 8.19 52.87 C 7.84 49.64 7.84 46.35 8.19 43.12 C 9.22 41.45 11.48 42.22 13.08 41.90 C 14.62 40.01 16.15 38.11 17.76 36.27 C 15.30 36.17 11.92 35.19 12.06 32.11 C 11.95 24.73 11.95 17.33 12.05 9.94 M 16.00 12.00 C 16.00 18.67 16.00 25.33 16.00 32.00 C 25.33 32.00 34.67 32.00 44.00 32.00 C 44.00 25.33 44.00 18.67 44.00 12.00 C 34.67 12.00 25.33 12.00 16.00 12.00 Z" />
<path fill="#968176" opacity="1.00" d=" M 21.22 16.21 C 23.44 14.90 25.30 19.03 22.76 19.79 C 20.56 21.10 18.70 16.97 21.22 16.21 Z" />
<path fill="#968176" opacity="1.00" d=" M 29.25 16.20 C 32.39 15.83 35.61 15.83 38.75 16.20 C 40.39 16.67 40.41 19.25 38.81 19.78 C 35.64 20.18 32.40 20.18 29.23 19.79 C 27.59 19.32 27.59 16.64 29.25 16.20 Z" />
<path fill="#968176" opacity="1.00" d=" M 21.26 24.18 C 23.48 22.97 25.27 27.01 22.78 27.78 C 20.56 29.14 18.70 24.92 21.26 24.18 Z" />
<path fill="#968176" opacity="1.00" d=" M 29.18 24.21 C 32.36 23.83 35.63 23.83 38.81 24.21 C 40.37 24.76 40.38 27.17 38.85 27.77 C 35.66 28.19 32.38 28.17 29.18 27.79 C 27.62 27.24 27.61 24.76 29.18 24.21 Z" />
</g>
</svg>
