<?xml version="1.0" encoding="UTF-8" ?>
<!DOCTYPE svg PUBLIC "-//W3C//DTD SVG 1.1//EN" "http://www.w3.org/Graphics/SVG/1.1/DTD/svg11.dtd">
<svg width="60pt" height="60pt" viewBox="0 0 60 60" version="1.1" xmlns="http://www.w3.org/2000/svg">
<g id="#ffffffff">
<path fill="#ffffff" opacity="1.00" d=" M 0.00 0.00 L 60.00 0.00 L 60.00 60.00 L 0.00 60.00 L 0.00 0.00 M 24.46 6.65 C 17.10 8.37 10.73 13.78 7.86 20.77 C 4.92 27.70 5.53 36.02 9.49 42.43 C 13.19 48.57 19.76 52.89 26.88 53.78 C 33.69 54.71 40.85 52.50 45.94 47.89 C 51.26 43.20 54.32 36.06 53.96 28.97 C 53.71 22.08 50.26 15.42 44.84 11.17 C 39.22 6.64 31.47 4.98 24.46 6.65 Z" />
<path fill="#ffffff" opacity="1.00" d=" M 27.24 10.19 C 33.61 9.28 40.35 11.64 44.68 16.42 C 49.91 21.93 51.43 30.53 48.52 37.54 C 45.98 43.91 39.93 48.74 33.14 49.74 C 26.68 50.82 19.78 48.45 15.36 43.62 C 10.29 38.31 8.64 30.09 11.19 23.21 C 13.57 16.34 20.02 11.11 27.24 10.19 M 19.40 26.47 C 16.10 28.38 19.40 33.74 22.60 31.52 C 25.90 29.61 22.60 24.27 19.40 26.47 M 37.47 26.44 C 35.28 27.58 35.71 31.32 38.16 31.83 C 40.29 32.67 42.67 30.23 41.82 28.13 C 41.39 26.30 39.02 25.45 37.47 26.44 M 20.93 38.27 C 19.55 39.33 20.00 41.98 21.94 41.88 C 27.29 42.10 32.68 42.10 38.04 41.88 C 40.46 42.14 40.48 37.88 38.06 38.12 C 32.36 37.98 26.61 37.73 20.93 38.27 Z" />
</g>
<g id="#000000ff">
<path fill="#968176" opacity="1.00" d=" M 24.46 6.65 C 31.47 4.98 39.22 6.64 44.84 11.17 C 50.26 15.42 53.71 22.08 53.96 28.97 C 54.32 36.06 51.26 43.20 45.94 47.89 C 40.85 52.50 33.69 54.71 26.88 53.78 C 19.76 52.89 13.19 48.57 9.49 42.43 C 5.53 36.02 4.92 27.70 7.86 20.77 C 10.73 13.78 17.10 8.37 24.46 6.65 M 27.24 10.19 C 20.02 11.11 13.57 16.34 11.19 23.21 C 8.64 30.09 10.29 38.31 15.36 43.62 C 19.78 48.45 26.68 50.82 33.14 49.74 C 39.93 48.74 45.98 43.91 48.52 37.54 C 51.43 30.53 49.91 21.93 44.68 16.42 C 40.35 11.64 33.61 9.28 27.24 10.19 Z" />
<path fill="#968176" opacity="1.00" d=" M 19.40 26.47 C 22.60 24.27 25.90 29.61 22.60 31.52 C 19.40 33.74 16.10 28.38 19.40 26.47 Z" />
<path fill="#968176" opacity="1.00" d=" M 37.47 26.44 C 39.02 25.45 41.39 26.30 41.82 28.13 C 42.67 30.23 40.29 32.67 38.16 31.83 C 35.71 31.32 35.28 27.58 37.47 26.44 Z" />
<path fill="#968176" opacity="1.00" d=" M 20.93 38.27 C 26.61 37.73 32.36 37.98 38.06 38.12 C 40.48 37.88 40.46 42.14 38.04 41.88 C 32.68 42.10 27.29 42.10 21.94 41.88 C 20.00 41.98 19.55 39.33 20.93 38.27 Z" />
</g>
</svg>
