<?xml version="1.0" encoding="UTF-8" ?>
<!DOCTYPE svg PUBLIC "-//W3C//DTD SVG 1.1//EN" "http://www.w3.org/Graphics/SVG/1.1/DTD/svg11.dtd">
<svg width="60pt" height="60pt" viewBox="0 0 60 60" version="1.1" xmlns="http://www.w3.org/2000/svg">
<g id="#ffffffff">
<path fill="#ffffff" opacity="1.00" d=" M 0.00 0.00 L 60.00 0.00 L 60.00 60.00 L 48.50 60.00 C 49.39 59.27 50.27 58.54 51.14 57.78 C 52.37 57.87 53.59 57.90 54.83 57.88 C 55.87 56.92 55.87 55.33 56.38 54.08 C 57.37 53.39 58.40 52.74 59.32 51.95 C 59.62 50.56 58.66 49.31 58.31 48.01 C 58.70 46.71 59.49 45.46 59.38 44.06 C 58.43 43.28 57.39 42.62 56.38 41.93 C 55.90 40.67 55.85 39.15 54.88 38.14 C 53.66 38.11 52.44 38.12 51.23 38.17 C 50.18 37.38 49.15 36.55 48.01 35.90 C 46.85 36.54 45.82 37.38 44.77 38.17 C 43.53 38.11 42.28 38.10 41.03 38.13 C 40.26 39.27 40.04 40.65 39.61 41.93 C 38.60 42.62 37.56 43.28 36.61 44.06 C 36.51 45.46 37.30 46.71 37.70 48.01 C 37.29 49.01 36.92 50.03 36.58 51.06 C 36.84 52.56 38.59 53.13 39.40 54.30 C 40.04 55.48 40.49 56.74 41.18 57.89 C 42.42 57.90 43.66 57.86 44.90 57.77 C 45.71 58.52 46.53 59.27 47.37 60.00 L 0.00 60.00 L 0.00 0.00 M 4.00 10.91 C 4.10 22.94 3.79 34.98 4.15 46.99 C 4.92 50.43 8.99 50.06 11.69 50.05 C 12.13 48.34 12.71 45.78 15.05 46.05 C 17.30 45.87 17.87 48.34 18.30 50.00 C 23.21 49.95 28.12 50.14 33.02 49.83 C 33.03 47.10 31.65 43.90 33.65 41.56 C 35.11 40.00 36.32 38.27 37.38 36.42 C 39.05 33.47 42.96 34.41 45.49 32.70 C 49.11 30.52 52.29 34.53 55.99 34.29 C 55.95 27.48 56.10 20.66 55.94 13.85 C 55.95 11.82 54.13 9.94 52.06 10.05 C 42.21 9.90 32.35 10.08 22.49 9.98 C 21.32 8.44 20.37 6.06 18.08 6.08 C 14.69 5.91 11.29 5.94 7.91 6.05 C 5.40 5.98 3.66 8.56 4.00 10.91 Z" />
<path fill="#ffffff" opacity="1.00" d=" M 16.88 18.92 C 19.40 16.95 23.06 18.52 24.57 20.98 C 25.15 22.90 24.77 24.95 24.86 26.93 C 23.94 28.85 21.96 30.61 22.62 32.93 C 24.74 34.34 27.07 35.55 28.36 37.86 C 22.79 38.08 17.21 38.09 11.64 37.86 C 12.93 35.55 15.26 34.34 17.38 32.92 C 18.05 30.61 16.07 28.86 15.14 26.95 C 15.27 24.25 14.36 20.81 16.88 18.92 Z" />
<path fill="#ffffff" opacity="1.00" d=" M 33.11 24.18 C 37.40 23.81 41.74 23.98 46.04 24.07 C 48.10 23.88 48.72 27.06 46.84 27.83 C 42.55 28.18 38.22 28.04 33.92 27.92 C 31.87 28.08 31.30 24.96 33.11 24.18 Z" />
</g>
<g id="#000000ff">
<path fill="#000000" opacity="1.00" d=" M 4.00 10.91 C 3.66 8.56 5.40 5.98 7.91 6.05 C 11.29 5.94 14.69 5.91 18.08 6.08 C 20.37 6.06 21.32 8.44 22.49 9.98 C 32.35 10.08 42.21 9.90 52.06 10.05 C 54.13 9.94 55.95 11.82 55.94 13.85 C 56.10 20.66 55.95 27.48 55.99 34.29 C 52.29 34.53 49.11 30.52 45.49 32.70 C 42.96 34.41 39.05 33.47 37.38 36.42 C 36.32 38.27 35.11 40.00 33.65 41.56 C 31.65 43.90 33.03 47.10 33.02 49.83 C 28.12 50.14 23.21 49.95 18.30 50.00 C 17.87 48.34 17.30 45.87 15.05 46.05 C 12.71 45.78 12.13 48.34 11.69 50.05 C 8.99 50.06 4.92 50.43 4.15 46.99 C 3.79 34.98 4.10 22.94 4.00 10.91 M 16.88 18.92 C 14.36 20.81 15.27 24.25 15.14 26.95 C 16.07 28.86 18.05 30.61 17.38 32.92 C 15.26 34.34 12.93 35.55 11.64 37.86 C 17.21 38.09 22.79 38.08 28.36 37.86 C 27.07 35.55 24.74 34.34 22.62 32.93 C 21.96 30.61 23.94 28.85 24.86 26.93 C 24.77 24.95 25.15 22.90 24.57 20.98 C 23.06 18.52 19.40 16.95 16.88 18.92 M 33.11 24.18 C 31.30 24.96 31.87 28.08 33.92 27.92 C 38.22 28.04 42.55 28.18 46.84 27.83 C 48.72 27.06 48.10 23.88 46.04 24.07 C 41.74 23.98 37.40 23.81 33.11 24.18 Z" />
<path fill="#000000" opacity="1.00" d=" M 44.77 38.17 C 45.82 37.38 46.85 36.54 48.01 35.90 C 49.15 36.55 50.18 37.38 51.23 38.17 C 52.44 38.12 53.66 38.11 54.88 38.14 C 55.85 39.15 55.90 40.67 56.38 41.93 C 57.39 42.62 58.43 43.28 59.38 44.06 C 59.49 45.46 58.70 46.71 58.31 48.01 C 58.66 49.31 59.62 50.56 59.32 51.95 C 58.40 52.74 57.37 53.39 56.38 54.08 C 55.87 55.33 55.87 56.92 54.83 57.88 C 53.59 57.90 52.37 57.87 51.14 57.78 C 50.27 58.54 49.39 59.27 48.50 60.00 L 47.37 60.00 C 46.53 59.27 45.71 58.52 44.90 57.77 C 43.66 57.86 42.42 57.90 41.18 57.89 C 40.49 56.74 40.04 55.48 39.40 54.30 C 38.59 53.13 36.84 52.56 36.58 51.06 C 36.92 50.03 37.29 49.01 37.70 48.01 C 37.30 46.71 36.51 45.46 36.61 44.06 C 37.56 43.28 38.60 42.62 39.61 41.93 C 40.04 40.65 40.26 39.27 41.03 38.13 C 42.28 38.10 43.53 38.11 44.77 38.17 Z" />
</g>
</svg>
