<?xml version="1.0" encoding="UTF-8" ?>
<!DOCTYPE svg PUBLIC "-//W3C//DTD SVG 1.1//EN" "http://www.w3.org/Graphics/SVG/1.1/DTD/svg11.dtd">
<svg width="60pt" height="60pt" viewBox="0 0 60 60" version="1.1" xmlns="http://www.w3.org/2000/svg">
<g id="#ffffffff">
<path fill="#ffffff" opacity="1.00" d=" M 0.00 0.00 L 60.00 0.00 L 60.00 60.00 L 0.00 60.00 L 0.00 0.00 M 7.19 9.20 C 5.38 10.97 6.19 13.73 5.96 15.98 C 21.99 16.01 38.01 16.01 54.04 15.98 C 54.06 13.18 54.53 8.83 50.87 8.12 C 38.24 7.81 25.58 8.12 12.94 7.98 C 11.01 8.10 8.66 7.59 7.19 9.20 M 8.00 20.00 C 8.04 29.33 7.93 38.67 8.04 48.00 C 7.87 50.60 10.55 52.34 12.94 52.00 C 24.62 51.97 36.31 52.06 48.00 51.96 C 50.11 52.04 52.04 50.12 51.96 48.00 C 52.07 38.67 51.96 29.33 52.00 20.00 C 37.33 20.00 22.67 20.00 8.00 20.00 Z" />
</g>
<g id="#000000ff">
<path fill="#000000" opacity="1.00" d=" M 7.19 9.20 C 8.66 7.59 11.01 8.10 12.94 7.98 C 25.58 8.12 38.24 7.81 50.87 8.12 C 54.53 8.83 54.06 13.18 54.04 15.98 C 38.01 16.01 21.99 16.01 5.96 15.98 C 6.19 13.73 5.38 10.97 7.19 9.20 Z" />
<path fill="#000000" opacity="1.00" d=" M 8.00 20.00 C 22.67 20.00 37.33 20.00 52.00 20.00 C 51.96 29.33 52.07 38.67 51.96 48.00 C 52.04 50.12 50.11 52.04 48.00 51.96 C 36.31 52.06 24.62 51.97 12.94 52.00 C 10.55 52.34 7.87 50.60 8.04 48.00 C 7.93 38.67 8.04 29.33 8.00 20.00 Z" />
</g>
</svg>
