<?xml version="1.0" encoding="UTF-8" ?>
<!DOCTYPE svg PUBLIC "-//W3C//DTD SVG 1.1//EN" "http://www.w3.org/Graphics/SVG/1.1/DTD/svg11.dtd">
<svg width="60pt" height="60pt" viewBox="0 0 60 60" version="1.1" xmlns="http://www.w3.org/2000/svg">
<g id="#ffffffff">
<path fill="#ffffff" opacity="1.00" d=" M 0.00 0.00 L 60.00 0.00 L 60.00 45.58 C 59.93 36.78 50.50 29.81 42.08 32.60 C 33.61 34.74 29.27 45.61 33.93 53.01 C 36.25 57.11 40.74 59.70 45.41 60.00 L 0.00 60.00 L 0.00 0.00 M 5.12 12.00 C 12.52 18.91 19.91 25.83 27.31 32.73 C 28.71 34.34 31.33 34.31 32.72 32.71 C 40.14 25.83 47.52 18.90 54.92 12.00 C 38.32 12.00 21.72 12.00 5.12 12.00 M 2.01 14.61 C 1.99 24.79 2.00 34.98 2.01 45.16 C 7.28 39.90 12.55 34.63 17.81 29.35 C 12.53 24.45 7.28 19.52 2.01 14.61 M 43.47 28.16 C 48.70 27.41 54.03 29.17 58.02 32.58 C 57.97 26.59 58.02 20.61 57.99 14.62 C 53.16 19.14 48.35 23.69 43.47 28.16 M 4.84 47.99 C 12.58 48.01 20.32 48.00 28.06 48.00 C 27.80 44.56 28.45 41.16 29.75 37.98 C 25.82 37.83 23.44 34.43 20.74 32.09 C 15.43 37.39 10.14 42.69 4.84 47.99 Z" />
<path fill="#ffffff" opacity="1.00" d=" M 43.99 43.99 C 44.24 42.04 43.04 38.23 45.98 38.04 C 48.95 38.20 47.77 42.04 48.01 43.99 C 50.01 44.23 53.64 43.05 54.02 45.98 C 53.68 48.94 50.02 47.78 48.01 48.01 C 47.78 49.94 48.94 53.79 46.02 53.93 C 43.06 53.86 44.22 49.95 43.99 48.01 C 42.06 47.77 39.49 48.72 38.12 46.90 C 37.21 43.26 41.78 43.99 43.99 43.99 Z" />
<path fill="#ffffff" opacity="1.00" d=" M 46.57 60.00 C 53.64 59.74 59.72 53.68 60.00 46.61 L 60.00 60.00 L 46.57 60.00 Z" />
</g>
<g id="#000000ff">
<path fill="#000000" opacity="1.00" d=" M 5.12 12.00 C 21.72 12.00 38.32 12.00 54.92 12.00 C 47.52 18.90 40.14 25.83 32.72 32.71 C 31.33 34.31 28.71 34.34 27.31 32.73 C 19.91 25.83 12.52 18.91 5.12 12.00 Z" />
<path fill="#000000" opacity="1.00" d=" M 2.01 14.61 C 7.28 19.52 12.53 24.45 17.81 29.35 C 12.55 34.63 7.28 39.90 2.01 45.16 C 2.00 34.98 1.99 24.79 2.01 14.61 Z" />
<path fill="#000000" opacity="1.00" d=" M 43.47 28.16 C 48.35 23.69 53.16 19.14 57.99 14.62 C 58.02 20.61 57.97 26.59 58.02 32.58 C 54.03 29.17 48.70 27.41 43.47 28.16 Z" />
<path fill="#000000" opacity="1.00" d=" M 4.84 47.99 C 10.14 42.69 15.43 37.39 20.74 32.09 C 23.44 34.43 25.82 37.83 29.75 37.98 C 28.45 41.16 27.80 44.56 28.06 48.00 C 20.32 48.00 12.58 48.01 4.84 47.99 Z" />
<path fill="#000000" opacity="1.00" d=" M 33.93 53.01 C 29.27 45.61 33.61 34.74 42.08 32.60 C 50.50 29.81 59.93 36.78 60.00 45.58 L 60.00 46.61 C 59.72 53.68 53.64 59.74 46.57 60.00 L 45.41 60.00 C 40.74 59.70 36.25 57.11 33.93 53.01 M 43.99 43.99 C 41.78 43.99 37.21 43.26 38.12 46.90 C 39.49 48.72 42.06 47.77 43.99 48.01 C 44.22 49.95 43.06 53.86 46.02 53.93 C 48.94 53.79 47.78 49.94 48.01 48.01 C 50.02 47.78 53.68 48.94 54.02 45.98 C 53.64 43.05 50.01 44.23 48.01 43.99 C 47.77 42.04 48.95 38.20 45.98 38.04 C 43.04 38.23 44.24 42.04 43.99 43.99 Z" />
</g>
</svg>
