<?xml version="1.0" encoding="UTF-8" ?>
<!DOCTYPE svg PUBLIC "-//W3C//DTD SVG 1.1//EN" "http://www.w3.org/Graphics/SVG/1.1/DTD/svg11.dtd">
<svg width="64pt" height="64pt" viewBox="0 0 64 64" version="1.1" xmlns="http://www.w3.org/2000/svg">
<g id="#ffffffff">
<path fill="#ffffff" opacity="1.00" d=" M 0.00 0.00 L 64.00 0.00 L 64.00 64.00 L 0.00 64.00 L 0.00 0.00 M 6.01 10.01 C 6.02 22.03 5.95 34.05 6.03 46.07 C 5.93 50.29 9.71 54.06 13.93 53.97 C 25.97 54.03 38.02 54.03 50.07 53.97 C 54.29 54.05 58.05 50.29 57.96 46.07 C 58.07 38.72 57.97 31.36 57.99 24.00 C 54.00 24.00 50.00 24.00 46.01 24.00 C 45.99 19.33 46.01 14.67 46.00 10.01 C 32.67 9.99 19.34 10.00 6.01 10.01 Z" />
<path fill="#ffffff" opacity="1.00" d=" M 10.01 14.01 C 20.67 14.00 31.33 13.99 41.99 14.01 C 42.01 24.03 42.00 34.05 41.99 44.07 C 41.91 46.08 42.33 48.06 42.85 50.00 C 33.23 49.96 23.60 50.07 13.98 49.96 C 11.78 50.15 9.85 48.21 10.04 46.01 C 9.94 35.35 10.02 24.67 10.01 14.01 M 14.01 18.01 C 13.99 21.34 13.99 24.67 14.01 28.00 C 22.00 28.00 30.00 28.01 37.99 28.00 C 38.01 24.66 38.01 21.33 37.99 18.00 C 30.00 18.00 22.00 17.99 14.01 18.01 M 14.00 30.02 C 14.00 31.34 14.00 32.66 14.00 33.98 C 17.33 34.01 20.67 34.01 24.00 33.98 C 24.00 32.66 24.00 31.34 24.00 30.02 C 20.67 29.99 17.33 29.99 14.00 30.02 M 28.00 30.02 C 28.00 31.34 28.00 32.66 28.00 33.98 C 31.33 34.01 34.67 34.01 38.00 33.98 C 38.00 32.66 38.00 31.34 38.00 30.02 C 34.67 29.99 31.33 29.99 28.00 30.02 M 14.00 36.02 C 14.00 37.34 14.00 38.66 14.00 39.98 C 17.33 40.01 20.67 40.01 24.00 39.98 C 24.00 38.66 24.00 37.34 24.00 36.02 C 20.67 35.99 17.33 35.99 14.00 36.02 M 28.00 36.02 C 28.00 37.34 28.00 38.66 28.00 39.98 C 31.33 40.01 34.67 40.01 38.00 39.98 C 38.00 38.66 38.00 37.34 38.00 36.02 C 34.67 35.99 31.33 35.99 28.00 36.02 M 14.00 42.02 C 14.00 43.34 14.00 44.66 14.00 45.98 C 17.33 46.01 20.67 46.01 24.00 45.98 C 24.00 44.66 24.00 43.34 24.00 42.02 C 20.67 41.99 17.33 41.99 14.00 42.02 M 28.00 42.02 C 28.00 43.34 28.00 44.66 28.00 45.98 C 31.33 46.01 34.67 46.01 38.00 45.98 C 38.00 44.66 38.00 43.34 38.00 42.02 C 34.67 41.99 31.33 41.99 28.00 42.02 Z" />
<path fill="#ffffff" opacity="1.00" d=" M 18.00 22.01 C 23.33 21.99 28.67 21.99 34.00 22.01 C 34.00 22.51 34.00 23.50 34.00 23.99 C 28.67 24.01 23.33 24.01 18.00 23.99 C 18.00 23.49 18.00 22.51 18.00 22.01 Z" />
<path fill="#ffffff" opacity="1.00" d=" M 46.01 28.00 C 48.67 28.00 51.33 28.00 53.99 28.00 C 53.92 34.30 54.19 40.61 53.88 46.89 C 53.55 50.01 49.16 50.99 47.11 48.91 C 45.78 47.66 46.07 45.70 45.98 44.06 C 46.00 38.71 45.99 33.36 46.01 28.00 Z" />
</g>
<g id="#000000ff">
<path fill="#000000" opacity="1.00" d=" M 6.01 10.01 C 19.34 10.00 32.67 9.99 46.00 10.01 C 46.01 14.67 45.99 19.33 46.01 24.00 C 50.00 24.00 54.00 24.00 57.99 24.00 C 57.97 31.36 58.07 38.72 57.96 46.07 C 58.05 50.29 54.29 54.05 50.07 53.97 C 38.02 54.03 25.97 54.03 13.93 53.97 C 9.71 54.06 5.93 50.29 6.03 46.07 C 5.95 34.05 6.02 22.03 6.01 10.01 M 10.01 14.01 C 10.02 24.67 9.94 35.35 10.04 46.01 C 9.85 48.21 11.78 50.15 13.98 49.96 C 23.60 50.07 33.23 49.96 42.85 50.00 C 42.33 48.06 41.91 46.08 41.99 44.07 C 42.00 34.05 42.01 24.03 41.99 14.01 C 31.33 13.99 20.67 14.00 10.01 14.01 M 46.01 28.00 C 45.99 33.36 46.00 38.71 45.98 44.06 C 46.07 45.70 45.78 47.66 47.11 48.91 C 49.16 50.99 53.55 50.01 53.88 46.89 C 54.19 40.61 53.92 34.30 53.99 28.00 C 51.33 28.00 48.67 28.00 46.01 28.00 Z" />
<path fill="#000000" opacity="1.00" d=" M 14.01 18.01 C 22.00 17.99 30.00 18.00 37.99 18.00 C 38.01 21.33 38.01 24.66 37.99 28.00 C 30.00 28.01 22.00 28.00 14.01 28.00 C 13.99 24.67 13.99 21.34 14.01 18.01 M 18.00 22.01 C 18.00 22.51 18.00 23.49 18.00 23.99 C 23.33 24.01 28.67 24.01 34.00 23.99 C 34.00 23.50 34.00 22.51 34.00 22.01 C 28.67 21.99 23.33 21.99 18.00 22.01 Z" />
<path fill="#000000" opacity="1.00" d=" M 14.00 30.02 C 17.33 29.99 20.67 29.99 24.00 30.02 C 24.00 31.34 24.00 32.66 24.00 33.98 C 20.67 34.01 17.33 34.01 14.00 33.98 C 14.00 32.66 14.00 31.34 14.00 30.02 Z" />
<path fill="#000000" opacity="1.00" d=" M 28.00 30.02 C 31.33 29.99 34.67 29.99 38.00 30.02 C 38.00 31.34 38.00 32.66 38.00 33.98 C 34.67 34.01 31.33 34.01 28.00 33.98 C 28.00 32.66 28.00 31.34 28.00 30.02 Z" />
<path fill="#000000" opacity="1.00" d=" M 14.00 36.02 C 17.33 35.99 20.67 35.99 24.00 36.02 C 24.00 37.34 24.00 38.66 24.00 39.98 C 20.67 40.01 17.33 40.01 14.00 39.98 C 14.00 38.66 14.00 37.34 14.00 36.02 Z" />
<path fill="#000000" opacity="1.00" d=" M 28.00 36.02 C 31.33 35.99 34.67 35.99 38.00 36.02 C 38.00 37.34 38.00 38.66 38.00 39.98 C 34.67 40.01 31.33 40.01 28.00 39.98 C 28.00 38.66 28.00 37.34 28.00 36.02 Z" />
<path fill="#000000" opacity="1.00" d=" M 14.00 42.02 C 17.33 41.99 20.67 41.99 24.00 42.02 C 24.00 43.34 24.00 44.66 24.00 45.98 C 20.67 46.01 17.33 46.01 14.00 45.98 C 14.00 44.66 14.00 43.34 14.00 42.02 Z" />
<path fill="#000000" opacity="1.00" d=" M 28.00 42.02 C 31.33 41.99 34.67 41.99 38.00 42.02 C 38.00 43.34 38.00 44.66 38.00 45.98 C 34.67 46.01 31.33 46.01 28.00 45.98 C 28.00 44.66 28.00 43.34 28.00 42.02 Z" />
</g>
</svg>
