<?xml version="1.0" encoding="UTF-8" ?>
<!DOCTYPE svg PUBLIC "-//W3C//DTD SVG 1.1//EN" "http://www.w3.org/Graphics/SVG/1.1/DTD/svg11.dtd">
<svg width="60pt" height="60pt" viewBox="0 0 60 60" version="1.1" xmlns="http://www.w3.org/2000/svg">
<g id="#ffffffff">
<path fill="#ffffff" opacity="1.00" d=" M 0.00 0.00 L 60.00 0.00 L 60.00 60.00 L 0.00 60.00 L 0.00 0.00 M 10.36 8.37 C 8.60 9.13 7.84 11.10 8.00 12.92 C 8.03 24.63 7.93 36.34 8.05 48.05 C 7.91 50.64 10.58 52.31 12.95 52.00 C 24.65 51.97 36.36 52.07 48.06 51.95 C 50.57 52.02 52.32 49.47 52.00 47.12 C 52.01 35.72 52.00 24.31 52.00 12.91 C 52.31 10.55 50.61 7.91 48.05 8.05 C 37.04 7.91 26.02 8.07 15.01 7.97 C 13.47 8.05 11.84 7.82 10.36 8.37 Z" />
<path fill="#ffffff" opacity="1.00" d=" M 13.12 12.17 C 23.77 11.78 34.45 12.09 45.11 12.02 C 46.93 11.61 48.39 13.14 47.98 14.94 C 47.92 25.55 48.21 36.19 47.84 46.79 C 47.59 47.05 47.08 47.57 46.83 47.83 C 40.29 48.13 33.69 48.11 27.15 47.84 C 24.70 46.25 26.71 42.39 25.16 40.05 C 23.29 35.18 17.83 33.61 13.06 33.89 C 10.78 31.03 12.53 26.51 12.01 23.00 C 12.53 19.50 10.74 15.02 13.12 12.17 M 16.00 16.00 C 16.00 20.62 16.00 25.25 16.00 29.87 C 23.55 30.06 29.93 36.45 30.13 44.00 C 34.75 44.00 39.38 44.00 44.00 44.00 C 44.00 34.67 44.00 25.33 44.00 16.00 C 34.67 16.00 25.33 16.00 16.00 16.00 Z" />
<path fill="#ffffff" opacity="1.00" d=" M 14.45 40.33 C 19.01 38.09 22.36 45.71 17.67 47.60 C 13.02 50.07 9.53 42.15 14.45 40.33 Z" />
</g>
<g id="#000000ff">
<path fill="#000000" opacity="1.00" d=" M 10.36 8.37 C 11.84 7.82 13.47 8.05 15.01 7.97 C 26.02 8.07 37.04 7.91 48.05 8.05 C 50.61 7.91 52.31 10.55 52.00 12.91 C 52.00 24.31 52.01 35.72 52.00 47.12 C 52.32 49.47 50.57 52.02 48.06 51.95 C 36.36 52.07 24.65 51.97 12.95 52.00 C 10.58 52.31 7.91 50.64 8.05 48.05 C 7.93 36.34 8.03 24.63 8.00 12.92 C 7.84 11.10 8.60 9.13 10.36 8.37 M 13.12 12.17 C 10.74 15.02 12.53 19.50 12.01 23.00 C 12.53 26.51 10.78 31.03 13.06 33.89 C 17.83 33.61 23.29 35.18 25.16 40.05 C 26.71 42.39 24.70 46.25 27.15 47.84 C 33.69 48.11 40.29 48.13 46.83 47.83 C 47.08 47.57 47.59 47.05 47.84 46.79 C 48.21 36.19 47.92 25.55 47.98 14.94 C 48.39 13.14 46.93 11.61 45.11 12.02 C 34.45 12.09 23.77 11.78 13.12 12.17 M 14.45 40.33 C 9.53 42.15 13.02 50.07 17.67 47.60 C 22.36 45.71 19.01 38.09 14.45 40.33 Z" />
<path fill="#000000" opacity="1.00" d=" M 16.00 16.00 C 25.33 16.00 34.67 16.00 44.00 16.00 C 44.00 25.33 44.00 34.67 44.00 44.00 C 39.38 44.00 34.75 44.00 30.13 44.00 C 29.93 36.45 23.55 30.06 16.00 29.87 C 16.00 25.25 16.00 20.62 16.00 16.00 Z" />
</g>
</svg>
