<?xml version="1.0" encoding="UTF-8" ?>
<!DOCTYPE svg PUBLIC "-//W3C//DTD SVG 1.1//EN" "http://www.w3.org/Graphics/SVG/1.1/DTD/svg11.dtd">
<svg width="60pt" height="60pt" viewBox="0 0 60 60" version="1.1" xmlns="http://www.w3.org/2000/svg">
<g id="#ffffffff">
<path fill="#ffffff" opacity="1.00" d=" M 0.00 0.00 L 60.00 0.00 L 60.00 60.00 L 0.00 60.00 L 0.00 0.00 M 25.39 4.62 C 20.47 5.91 16.18 9.42 13.91 13.98 C 12.59 15.43 14.07 18.12 15.98 17.33 C 17.98 15.86 18.65 13.18 20.61 11.64 C 26.51 5.93 37.43 7.19 41.60 14.36 C 42.44 16.28 44.99 19.11 46.57 16.08 C 44.54 7.25 33.88 2.16 25.39 4.62 M 26.46 12.66 C 23.10 13.93 20.38 17.16 20.19 20.81 C 20.69 22.01 21.59 22.49 22.89 22.25 C 24.45 20.91 24.62 18.55 26.28 17.30 C 28.85 15.11 33.42 15.76 34.97 18.85 C 35.85 20.42 36.59 23.16 38.97 22.10 C 40.45 20.73 39.52 18.69 38.75 17.21 C 36.51 12.93 30.95 10.85 26.46 12.66 M 29.16 20.11 C 26.87 21.23 28.41 24.87 30.84 23.90 C 33.13 22.73 31.56 19.14 29.16 20.11 M 14.00 23.97 C 14.05 33.35 13.90 42.73 14.06 52.11 C 13.94 54.66 16.60 56.30 18.93 56.00 C 26.32 56.01 33.73 56.01 41.13 56.00 C 43.49 56.31 46.04 54.55 45.94 52.03 C 46.10 42.69 45.95 33.35 46.00 24.00 C 44.68 24.70 43.34 25.37 41.99 26.00 C 42.01 34.01 41.99 42.01 42.00 50.01 C 39.47 49.98 36.93 49.98 34.39 50.04 C 32.67 52.98 27.33 52.99 25.61 50.04 C 23.07 49.98 20.53 49.98 18.00 50.01 C 18.01 42.00 17.98 33.98 18.01 25.97 C 16.66 25.34 15.32 24.67 14.00 23.97 Z" />
</g>
<g id="#000000ff">
<path fill="#000000" opacity="1.00" d=" M 25.39 4.62 C 33.88 2.16 44.54 7.25 46.57 16.08 C 44.99 19.11 42.44 16.28 41.60 14.36 C 37.43 7.19 26.51 5.93 20.61 11.64 C 18.65 13.18 17.98 15.86 15.98 17.33 C 14.07 18.12 12.59 15.43 13.91 13.98 C 16.18 9.42 20.47 5.91 25.39 4.62 Z" />
<path fill="#000000" opacity="1.00" d=" M 26.46 12.66 C 30.95 10.85 36.51 12.93 38.75 17.21 C 39.52 18.69 40.45 20.73 38.97 22.10 C 36.59 23.16 35.85 20.42 34.97 18.85 C 33.42 15.76 28.85 15.11 26.28 17.30 C 24.62 18.55 24.45 20.91 22.89 22.25 C 21.59 22.49 20.69 22.01 20.19 20.81 C 20.38 17.16 23.10 13.93 26.46 12.66 Z" />
<path fill="#000000" opacity="1.00" d=" M 29.16 20.11 C 31.56 19.14 33.13 22.73 30.84 23.90 C 28.41 24.87 26.87 21.23 29.16 20.11 Z" />
<path fill="#000000" opacity="1.00" d=" M 14.00 23.97 C 15.32 24.67 16.66 25.34 18.01 25.97 C 17.98 33.98 18.01 42.00 18.00 50.01 C 20.53 49.98 23.07 49.98 25.61 50.04 C 27.33 52.99 32.67 52.98 34.39 50.04 C 36.93 49.98 39.47 49.98 42.00 50.01 C 41.99 42.01 42.01 34.01 41.99 26.00 C 43.34 25.37 44.68 24.70 46.00 24.00 C 45.95 33.35 46.10 42.69 45.94 52.03 C 46.04 54.55 43.49 56.31 41.13 56.00 C 33.73 56.01 26.32 56.01 18.93 56.00 C 16.60 56.30 13.94 54.66 14.06 52.11 C 13.90 42.73 14.05 33.35 14.00 23.97 Z" />
</g>
</svg>
