<?xml version="1.0" encoding="UTF-8" ?>
<!DOCTYPE svg PUBLIC "-//W3C//DTD SVG 1.1//EN" "http://www.w3.org/Graphics/SVG/1.1/DTD/svg11.dtd">
<svg width="60pt" height="60pt" viewBox="0 0 60 60" version="1.1" xmlns="http://www.w3.org/2000/svg">
<g id="#ffffffff">
<path fill="#ffffff" opacity="1.00" d=" M 0.00 0.00 L 60.00 0.00 L 60.00 60.00 L 0.00 60.00 L 0.00 0.00 M 8.04 11.87 C 7.97 23.95 7.97 36.03 8.04 48.11 C 7.95 50.18 9.90 51.99 11.92 51.96 C 14.52 52.07 17.13 51.99 19.73 52.01 C 17.62 48.75 15.80 45.05 15.99 41.06 C 16.05 32.03 15.91 23.00 16.06 13.98 C 15.85 12.18 18.33 11.34 19.47 12.63 C 24.79 16.58 30.18 20.47 35.35 24.62 C 37.06 25.87 35.10 28.92 33.20 27.77 C 28.67 24.70 24.46 21.18 20.00 18.00 C 20.03 26.03 19.94 34.06 20.04 42.09 C 20.13 45.93 22.58 49.13 24.86 52.02 C 32.60 51.93 40.35 52.08 48.10 51.96 C 50.11 51.99 51.98 50.14 51.95 48.12 C 52.06 36.39 51.97 24.66 52.00 12.93 C 52.35 10.61 50.64 7.95 48.12 8.04 C 36.38 7.94 24.63 8.03 12.89 8.00 C 10.57 7.63 8.01 9.41 8.04 11.87 Z" />
</g>
<g id="#000000ff">
<path fill="#968176" opacity="1.00" d=" M 8.04 11.87 C 8.01 9.41 10.57 7.63 12.89 8.00 C 24.63 8.03 36.38 7.94 48.12 8.04 C 50.64 7.95 52.35 10.61 52.00 12.93 C 51.97 24.66 52.06 36.39 51.95 48.12 C 51.98 50.14 50.11 51.99 48.10 51.96 C 40.35 52.08 32.60 51.93 24.86 52.02 C 22.58 49.13 20.13 45.93 20.04 42.09 C 19.94 34.06 20.03 26.03 20.00 18.00 C 24.46 21.18 28.67 24.70 33.20 27.77 C 35.10 28.92 37.06 25.87 35.35 24.62 C 30.18 20.47 24.79 16.58 19.47 12.63 C 18.33 11.34 15.85 12.18 16.06 13.98 C 15.91 23.00 16.05 32.03 15.99 41.06 C 15.80 45.05 17.62 48.75 19.73 52.01 C 17.13 51.99 14.52 52.07 11.92 51.96 C 9.90 51.99 7.95 50.18 8.04 48.11 C 7.97 36.03 7.97 23.95 8.04 11.87 Z" />
</g>
</svg>
