<?xml version="1.0" encoding="UTF-8" ?>
<!DOCTYPE svg PUBLIC "-//W3C//DTD SVG 1.1//EN" "http://www.w3.org/Graphics/SVG/1.1/DTD/svg11.dtd">
<svg width="60pt" height="60pt" viewBox="0 0 60 60" version="1.1" xmlns="http://www.w3.org/2000/svg">
<g id="#ffffffff">
<path fill="#ffffff" opacity="1.00" d=" M 0.00 0.00 L 60.00 0.00 L 60.00 60.00 L 0.00 60.00 L 0.00 0.00 M 8.04 11.88 C 7.94 23.59 8.03 35.30 8.00 47.01 C 7.70 49.10 8.85 51.28 10.95 51.86 C 13.86 52.16 16.80 51.96 19.73 52.01 C 17.61 48.73 15.80 45.03 15.99 41.03 C 16.05 32.00 15.90 22.97 16.06 13.95 C 15.86 12.20 18.30 11.35 19.43 12.60 C 24.77 16.55 30.15 20.46 35.35 24.60 C 37.11 25.85 35.02 29.01 33.16 27.73 C 28.63 24.70 24.45 21.15 20.00 18.00 C 20.00 21.00 20.00 24.00 20.00 27.00 C 23.78 29.89 27.73 32.58 31.37 35.64 C 33.13 36.89 30.93 40.02 29.16 38.73 C 25.95 36.72 23.12 34.16 20.00 32.00 C 20.04 35.36 19.91 38.72 20.04 42.08 C 20.12 45.93 22.58 49.12 24.85 52.02 C 32.61 51.93 40.38 52.09 48.14 51.95 C 50.16 51.97 52.00 50.09 51.96 48.07 C 52.06 36.35 51.97 24.63 52.00 12.91 C 52.35 10.55 50.57 7.89 48.02 8.04 C 36.33 7.94 24.64 8.03 12.94 8.00 C 10.60 7.62 8.00 9.39 8.04 11.88 Z" />
</g>
<g id="#000000ff">
<path fill="#000000" opacity="1.00" d=" M 8.04 11.88 C 8.00 9.39 10.60 7.62 12.94 8.00 C 24.64 8.03 36.33 7.94 48.02 8.04 C 50.57 7.89 52.35 10.55 52.00 12.91 C 51.97 24.63 52.06 36.35 51.96 48.07 C 52.00 50.09 50.16 51.97 48.14 51.95 C 40.38 52.09 32.61 51.93 24.85 52.02 C 22.58 49.12 20.12 45.93 20.04 42.08 C 19.91 38.72 20.04 35.36 20.00 32.00 C 23.12 34.16 25.95 36.72 29.16 38.73 C 30.93 40.02 33.13 36.89 31.37 35.64 C 27.73 32.58 23.78 29.89 20.00 27.00 C 20.00 24.00 20.00 21.00 20.00 18.00 C 24.45 21.15 28.63 24.70 33.16 27.73 C 35.02 29.01 37.11 25.85 35.35 24.60 C 30.15 20.46 24.77 16.55 19.43 12.60 C 18.30 11.35 15.86 12.20 16.06 13.95 C 15.90 22.97 16.05 32.00 15.99 41.03 C 15.80 45.03 17.61 48.73 19.73 52.01 C 16.80 51.96 13.86 52.16 10.95 51.86 C 8.85 51.28 7.70 49.10 8.00 47.01 C 8.03 35.30 7.94 23.59 8.04 11.88 Z" />
</g>
</svg>
