<?xml version="1.0" encoding="UTF-8" ?>
<!DOCTYPE svg PUBLIC "-//W3C//DTD SVG 1.1//EN" "http://www.w3.org/Graphics/SVG/1.1/DTD/svg11.dtd">
<svg width="60pt" height="60pt" viewBox="0 0 60 60" version="1.1" xmlns="http://www.w3.org/2000/svg">
<g id="#ffffffff">
<path fill="#ffffff" opacity="1.00" d=" M 0.00 0.00 L 60.00 0.00 L 60.00 60.00 L 0.00 60.00 L 0.00 0.00 M 42.28 5.30 C 42.07 5.72 41.67 6.56 41.47 6.98 C 44.35 11.50 47.64 15.91 48.83 21.25 C 51.68 31.42 49.15 42.61 42.81 50.95 C 40.96 52.66 44.04 55.66 45.59 53.61 C 56.08 41.21 56.71 21.88 47.36 8.65 C 46.10 7.12 44.74 3.88 42.28 5.30 M 34.57 12.62 C 33.60 14.02 35.07 15.23 35.69 16.40 C 40.51 23.12 41.35 32.44 37.81 39.91 C 36.94 41.70 35.73 43.30 34.89 45.11 C 33.98 46.76 36.58 48.46 37.91 47.22 C 45.99 37.67 45.91 22.49 38.04 12.83 C 37.29 11.54 35.45 11.40 34.57 12.62 M 27.32 21.61 C 30.13 25.83 30.73 31.20 28.84 35.92 C 22.43 30.59 16.14 25.13 9.81 19.71 C 5.90 22.71 5.68 28.57 6.36 33.07 C 7.04 35.31 7.37 38.65 10.04 39.33 C 11.91 39.13 12.36 37.08 11.43 35.69 C 9.92 32.56 9.76 29.04 10.44 25.67 C 16.78 30.89 22.89 36.38 29.22 41.61 C 35.34 36.07 35.33 25.70 30.42 19.35 C 29.03 17.31 25.88 19.70 27.32 21.61 Z" />
</g>
<g id="#000000ff">
<path fill="#968176" opacity="1.00" d=" M 42.28 5.30 C 44.74 3.88 46.10 7.12 47.36 8.65 C 56.71 21.88 56.08 41.21 45.59 53.61 C 44.04 55.66 40.96 52.66 42.81 50.95 C 49.15 42.61 51.68 31.42 48.83 21.25 C 47.64 15.91 44.35 11.50 41.47 6.98 C 41.67 6.56 42.07 5.72 42.28 5.30 Z" />
<path fill="#968176" opacity="1.00" d=" M 34.57 12.62 C 35.45 11.40 37.29 11.54 38.04 12.83 C 45.91 22.49 45.99 37.67 37.91 47.22 C 36.58 48.46 33.98 46.76 34.89 45.11 C 35.73 43.30 36.94 41.70 37.81 39.91 C 41.35 32.44 40.51 23.12 35.69 16.40 C 35.07 15.23 33.60 14.02 34.57 12.62 Z" />
<path fill="#968176" opacity="1.00" d=" M 27.32 21.61 C 25.88 19.70 29.03 17.31 30.42 19.35 C 35.33 25.70 35.34 36.07 29.22 41.61 C 22.89 36.38 16.78 30.89 10.44 25.67 C 9.76 29.04 9.92 32.56 11.43 35.69 C 12.36 37.08 11.91 39.13 10.04 39.33 C 7.37 38.65 7.04 35.31 6.36 33.07 C 5.68 28.57 5.90 22.71 9.81 19.71 C 16.14 25.13 22.43 30.59 28.84 35.92 C 30.73 31.20 30.13 25.83 27.32 21.61 Z" />
</g>
</svg>
