<?xml version="1.0" encoding="UTF-8" ?>
<!DOCTYPE svg PUBLIC "-//W3C//DTD SVG 1.1//EN" "http://www.w3.org/Graphics/SVG/1.1/DTD/svg11.dtd">
<svg width="60pt" height="60pt" viewBox="0 0 60 60" version="1.1" xmlns="http://www.w3.org/2000/svg">
<g id="#ffffffff">
<path fill="#ffffff" opacity="1.00" d=" M 0.00 0.00 L 60.00 0.00 L 60.00 60.00 L 0.00 60.00 L 0.00 0.00 M 16.13 9.93 C 13.12 10.80 10.12 12.84 9.54 16.13 C 8.74 21.04 8.62 26.03 7.96 30.96 C 9.58 30.47 11.21 29.91 12.93 29.99 C 24.31 30.00 35.70 30.00 47.08 29.99 C 48.80 29.90 50.42 30.48 52.04 30.97 C 51.37 26.02 51.27 21.01 50.45 16.09 C 49.84 12.82 46.86 10.81 43.86 9.93 C 42.50 7.94 40.61 5.81 37.94 6.02 C 35.32 5.94 33.44 7.89 32.22 9.98 C 30.74 9.99 29.26 9.99 27.78 9.98 C 26.56 7.88 24.66 5.93 22.03 6.02 C 19.37 5.82 17.50 7.95 16.13 9.93 M 7.98 40.04 C 8.32 43.20 6.75 47.84 10.33 49.60 C 13.68 50.48 17.27 49.79 20.71 50.02 C 22.56 53.41 26.01 56.11 30.03 55.99 C 34.02 56.09 37.43 53.39 39.28 50.02 C 42.73 49.79 46.31 50.48 49.66 49.60 C 53.21 47.80 51.71 43.20 52.02 40.02 C 52.45 37.40 51.18 33.89 48.02 34.04 C 35.98 33.97 23.93 33.97 11.89 34.04 C 8.80 34.00 7.53 37.43 7.98 40.04 Z" />
<path fill="#ffffff" opacity="1.00" d=" M 27.41 40.58 C 31.54 38.35 36.93 42.44 35.90 47.01 C 35.37 51.34 29.64 53.54 26.31 50.74 C 22.84 48.26 23.46 42.25 27.41 40.58 Z" />
</g>
<g id="#000000ff">
<path fill="#000000" opacity="1.00" d=" M 16.13 9.93 C 17.50 7.95 19.37 5.82 22.03 6.02 C 24.66 5.93 26.56 7.88 27.78 9.98 C 29.26 9.99 30.74 9.99 32.22 9.98 C 33.44 7.89 35.32 5.94 37.94 6.02 C 40.61 5.81 42.50 7.94 43.86 9.93 C 46.86 10.81 49.84 12.82 50.45 16.09 C 51.27 21.01 51.37 26.02 52.04 30.97 C 50.42 30.48 48.80 29.90 47.08 29.99 C 35.70 30.00 24.31 30.00 12.93 29.99 C 11.21 29.91 9.58 30.47 7.96 30.96 C 8.62 26.03 8.74 21.04 9.54 16.13 C 10.12 12.84 13.12 10.80 16.13 9.93 Z" />
<path fill="#000000" opacity="1.00" d=" M 7.98 40.04 C 7.53 37.43 8.80 34.00 11.89 34.04 C 23.93 33.97 35.98 33.97 48.02 34.04 C 51.18 33.89 52.45 37.40 52.02 40.02 C 51.71 43.20 53.21 47.80 49.66 49.60 C 46.31 50.48 42.73 49.79 39.28 50.02 C 37.43 53.39 34.02 56.09 30.03 55.99 C 26.01 56.11 22.56 53.41 20.71 50.02 C 17.27 49.79 13.68 50.48 10.33 49.60 C 6.75 47.84 8.32 43.20 7.98 40.04 M 27.41 40.58 C 23.46 42.25 22.84 48.26 26.31 50.74 C 29.64 53.54 35.37 51.34 35.90 47.01 C 36.93 42.44 31.54 38.35 27.41 40.58 Z" />
</g>
</svg>
