<?xml version="1.0" encoding="UTF-8" ?>
<!DOCTYPE svg PUBLIC "-//W3C//DTD SVG 1.1//EN" "http://www.w3.org/Graphics/SVG/1.1/DTD/svg11.dtd">
<svg width="64pt" height="64pt" viewBox="0 0 64 64" version="1.1" xmlns="http://www.w3.org/2000/svg">
<g id="#ffffffff">
<path fill="#ffffff" opacity="1.00" d=" M 0.00 0.00 L 64.00 0.00 L 64.00 64.00 L 0.00 64.00 L 0.00 0.00 M 17.76 13.81 C 12.21 15.70 10.68 21.80 8.36 26.50 C 5.59 31.96 4.45 39.43 8.48 44.54 C 11.61 48.47 16.98 48.08 21.47 48.02 C 23.89 51.44 27.68 54.12 32.02 53.99 C 36.35 54.11 40.11 51.42 42.53 48.02 C 46.79 48.02 51.80 48.53 55.00 45.08 C 59.48 40.31 58.64 32.58 55.89 27.12 C 53.45 22.23 52.03 15.80 46.23 13.81 C 45.17 11.44 43.72 8.86 40.97 8.22 C 38.44 7.33 35.96 8.56 33.87 9.89 C 32.62 9.90 31.38 9.90 30.14 9.90 C 28.05 8.58 25.59 7.34 23.07 8.21 C 20.29 8.83 18.83 11.42 17.76 13.81 Z" />
<path fill="#ffffff" opacity="1.00" d=" M 22.58 13.28 C 23.53 11.76 26.51 11.75 27.43 13.31 C 26.40 14.49 23.55 14.52 22.58 13.28 Z" />
<path fill="#ffffff" opacity="1.00" d=" M 36.56 13.31 C 37.48 11.75 40.46 11.75 41.42 13.29 C 40.43 14.52 37.59 14.49 36.56 13.31 Z" />
<path fill="#ffffff" opacity="1.00" d=" M 13.78 24.13 C 15.14 21.96 15.83 18.19 18.95 18.05 C 27.34 17.93 35.75 18.02 44.15 18.00 C 47.77 17.52 48.81 21.69 50.25 24.13 C 38.09 23.92 25.93 23.92 13.78 24.13 Z" />
<path fill="#ffffff" opacity="1.00" d=" M 10.60 40.61 C 9.24 36.32 9.24 29.08 14.94 28.14 C 25.62 27.80 36.32 28.09 47.01 28.00 C 50.48 27.54 54.01 30.26 53.97 33.85 C 54.03 36.67 54.49 40.09 52.23 42.24 C 50.11 44.51 46.76 43.89 43.99 44.05 C 44.27 39.79 42.94 35.24 39.40 32.61 C 34.50 28.52 26.46 29.47 22.63 34.57 C 20.37 37.19 19.93 40.73 20.02 44.05 C 16.65 44.12 12.21 44.30 10.60 40.61 Z" />
<path fill="#ffffff" opacity="1.00" d=" M 29.28 34.49 C 34.98 32.10 41.55 38.05 39.74 43.96 C 38.60 49.50 31.07 51.92 26.88 48.14 C 22.18 44.57 23.61 36.23 29.28 34.49 Z" />
</g>
<g id="#000000ff">
<path fill="#000000" opacity="1.00" d=" M 17.76 13.81 C 18.83 11.42 20.29 8.83 23.07 8.21 C 25.59 7.34 28.05 8.58 30.14 9.90 C 31.38 9.90 32.62 9.90 33.87 9.89 C 35.96 8.56 38.44 7.33 40.97 8.22 C 43.72 8.86 45.17 11.44 46.23 13.81 C 52.03 15.80 53.45 22.23 55.89 27.12 C 58.64 32.58 59.48 40.31 55.00 45.08 C 51.80 48.53 46.79 48.02 42.53 48.02 C 40.11 51.42 36.35 54.11 32.02 53.99 C 27.68 54.12 23.89 51.44 21.47 48.02 C 16.98 48.08 11.61 48.47 8.48 44.54 C 4.45 39.43 5.59 31.96 8.36 26.50 C 10.68 21.80 12.21 15.70 17.76 13.81 M 22.58 13.28 C 23.55 14.52 26.40 14.49 27.43 13.31 C 26.51 11.75 23.53 11.76 22.58 13.28 M 36.56 13.31 C 37.59 14.49 40.43 14.52 41.42 13.29 C 40.46 11.75 37.48 11.75 36.56 13.31 M 13.78 24.13 C 25.93 23.92 38.09 23.92 50.25 24.13 C 48.81 21.69 47.77 17.52 44.15 18.00 C 35.75 18.02 27.34 17.93 18.95 18.05 C 15.83 18.19 15.14 21.96 13.78 24.13 M 10.60 40.61 C 12.21 44.30 16.65 44.12 20.02 44.05 C 19.93 40.73 20.37 37.19 22.63 34.57 C 26.46 29.47 34.50 28.52 39.40 32.61 C 42.94 35.24 44.27 39.79 43.99 44.05 C 46.76 43.89 50.11 44.51 52.23 42.24 C 54.49 40.09 54.03 36.67 53.97 33.85 C 54.01 30.26 50.48 27.54 47.01 28.00 C 36.32 28.09 25.62 27.80 14.94 28.14 C 9.24 29.08 9.24 36.32 10.60 40.61 M 29.28 34.49 C 23.61 36.23 22.18 44.57 26.88 48.14 C 31.07 51.92 38.60 49.50 39.74 43.96 C 41.55 38.05 34.98 32.10 29.28 34.49 Z" />
</g>
</svg>
