<?xml version="1.0" encoding="UTF-8" ?>
<!DOCTYPE svg PUBLIC "-//W3C//DTD SVG 1.1//EN" "http://www.w3.org/Graphics/SVG/1.1/DTD/svg11.dtd">
<svg width="60pt" height="60pt" viewBox="0 0 60 60" version="1.1" xmlns="http://www.w3.org/2000/svg">
<g id="#ffffffff">
<path fill="#ffffff" opacity="1.00" d=" M 0.00 0.00 L 60.00 0.00 L 60.00 60.00 L 0.00 60.00 L 0.00 0.00 M 35.00 7.81 C 32.38 7.83 30.48 9.51 29.62 11.89 C 27.58 13.23 25.35 15.28 26.10 18.02 C 26.60 20.99 29.69 22.14 32.36 22.12 C 33.19 20.75 34.06 19.40 34.99 18.09 C 35.47 18.54 36.42 19.43 36.90 19.88 C 38.57 17.55 41.44 17.54 43.10 19.88 C 43.58 19.43 44.53 18.54 45.00 18.09 C 45.95 19.41 46.82 20.77 47.66 22.16 C 50.51 21.86 53.47 20.15 53.89 17.07 C 54.64 14.04 52.34 11.64 50.02 10.14 C 48.72 7.22 46.46 4.36 43.03 4.07 C 39.79 3.47 37.04 5.56 35.00 7.81 M 4.07 18.01 C 3.88 28.68 4.07 39.35 3.98 50.02 C 3.99 51.43 3.87 54.16 5.98 53.93 C 8.09 54.20 7.89 51.36 8.20 50.00 C 22.73 50.00 37.27 50.00 51.80 50.00 C 52.11 51.33 51.89 52.99 53.13 53.91 C 54.47 54.33 56.02 53.52 55.91 51.99 C 56.10 48.38 56.16 44.73 55.82 41.13 C 55.12 39.66 53.39 40.12 52.09 39.98 C 37.39 40.02 22.69 39.99 8.00 40.00 C 7.87 32.40 8.26 24.77 7.83 17.18 C 7.12 15.19 3.83 15.86 4.07 18.01 M 21.27 16.17 C 18.77 17.00 20.44 20.97 22.82 19.89 C 25.15 18.89 23.58 15.08 21.27 16.17 M 17.17 20.10 C 14.86 21.21 16.43 24.87 18.82 23.88 C 21.15 22.79 19.58 19.16 17.17 20.10 M 14.43 26.71 C 11.21 28.45 11.25 33.63 14.50 35.32 C 17.61 37.34 22.13 34.69 22.00 31.02 C 22.17 27.30 17.55 24.61 14.43 26.71 M 26.00 26.00 C 26.00 29.33 26.00 32.67 26.00 36.00 C 35.35 36.00 44.70 36.00 54.06 36.00 C 53.88 33.24 54.51 29.91 52.27 27.80 C 50.71 26.03 48.21 25.98 46.04 25.98 C 39.36 26.01 32.68 26.00 26.00 26.00 Z" />
<path fill="#ffffff" opacity="1.00" d=" M 34.19 12.77 C 35.65 12.25 37.04 13.98 37.39 15.24 C 36.64 17.33 33.15 14.38 34.19 12.77 Z" />
<path fill="#ffffff" opacity="1.00" d=" M 42.60 15.24 C 43.01 13.89 43.89 13.01 45.24 12.61 C 47.72 13.37 43.35 17.72 42.60 15.24 Z" />
</g>
<g id="#000000ff">
<path fill="#000000" opacity="1.00" d=" M 35.00 7.81 C 37.04 5.56 39.79 3.47 43.03 4.07 C 46.46 4.36 48.72 7.22 50.02 10.14 C 52.34 11.64 54.64 14.04 53.89 17.07 C 53.47 20.15 50.51 21.86 47.66 22.16 C 46.82 20.77 45.95 19.41 45.00 18.09 C 44.53 18.54 43.58 19.43 43.10 19.88 C 41.44 17.54 38.57 17.55 36.90 19.88 C 36.42 19.43 35.47 18.54 34.99 18.09 C 34.06 19.40 33.19 20.75 32.36 22.12 C 29.69 22.14 26.60 20.99 26.10 18.02 C 25.35 15.28 27.58 13.23 29.62 11.89 C 30.48 9.51 32.38 7.83 35.00 7.81 M 34.19 12.77 C 33.15 14.38 36.64 17.33 37.39 15.24 C 37.04 13.98 35.65 12.25 34.19 12.77 M 42.60 15.24 C 43.35 17.72 47.72 13.37 45.24 12.61 C 43.89 13.01 43.01 13.89 42.60 15.24 Z" />
<path fill="#000000" opacity="1.00" d=" M 4.07 18.01 C 3.83 15.86 7.12 15.19 7.83 17.18 C 8.26 24.77 7.87 32.40 8.00 40.00 C 22.69 39.99 37.39 40.02 52.09 39.98 C 53.39 40.12 55.12 39.66 55.82 41.13 C 56.16 44.73 56.10 48.38 55.91 51.99 C 56.02 53.52 54.47 54.33 53.13 53.91 C 51.89 52.99 52.11 51.33 51.80 50.00 C 37.27 50.00 22.73 50.00 8.20 50.00 C 7.89 51.36 8.09 54.20 5.98 53.93 C 3.87 54.16 3.99 51.43 3.98 50.02 C 4.07 39.35 3.88 28.68 4.07 18.01 Z" />
<path fill="#000000" opacity="1.00" d=" M 21.27 16.17 C 23.58 15.08 25.15 18.89 22.82 19.89 C 20.44 20.97 18.77 17.00 21.27 16.17 Z" />
<path fill="#000000" opacity="1.00" d=" M 17.17 20.10 C 19.58 19.16 21.15 22.79 18.82 23.88 C 16.43 24.87 14.86 21.21 17.17 20.10 Z" />
<path fill="#000000" opacity="1.00" d=" M 14.43 26.71 C 17.55 24.61 22.17 27.30 22.00 31.02 C 22.13 34.69 17.61 37.34 14.50 35.32 C 11.25 33.63 11.21 28.45 14.43 26.71 Z" />
<path fill="#000000" opacity="1.00" d=" M 26.00 26.00 C 32.68 26.00 39.36 26.01 46.04 25.98 C 48.21 25.98 50.71 26.03 52.27 27.80 C 54.51 29.91 53.88 33.24 54.06 36.00 C 44.70 36.00 35.35 36.00 26.00 36.00 C 26.00 32.67 26.00 29.33 26.00 26.00 Z" />
</g>
</svg>
