<?xml version="1.0" encoding="UTF-8" ?>
<!DOCTYPE svg PUBLIC "-//W3C//DTD SVG 1.1//EN" "http://www.w3.org/Graphics/SVG/1.1/DTD/svg11.dtd">
<svg width="64pt" height="64pt" viewBox="0 0 64 64" version="1.1" xmlns="http://www.w3.org/2000/svg">
<g id="#ffffffff">
<path fill="#ffffff" opacity="1.00" d=" M 0.00 0.00 L 64.00 0.00 L 64.00 64.00 L 0.00 64.00 L 0.00 0.00 M 14.48 20.70 C 13.44 20.95 12.40 21.19 11.35 21.42 C 10.91 23.92 10.22 26.45 10.64 29.01 C 8.06 31.71 5.43 35.10 6.10 39.09 C 6.69 44.70 11.54 48.66 16.47 50.65 C 19.27 51.59 20.86 54.26 23.38 55.65 C 28.56 58.73 35.36 58.74 40.55 55.68 C 43.11 54.27 44.74 51.57 47.59 50.62 C 52.50 48.62 57.33 44.65 57.90 39.05 C 58.57 34.91 55.83 31.36 53.09 28.61 C 57.37 25.79 60.19 21.24 60.13 16.03 C 58.80 16.01 57.47 16.00 56.14 16.00 C 55.93 18.66 55.23 21.26 53.58 23.40 C 53.73 20.27 53.95 17.14 54.02 14.01 C 52.69 14.00 51.36 14.00 50.03 14.00 C 49.92 16.30 49.85 18.59 49.72 20.89 C 46.50 15.18 40.79 10.70 34.12 10.14 C 26.17 9.13 18.14 13.66 14.48 20.70 Z" />
<path fill="#ffffff" opacity="1.00" d=" M 19.36 20.03 C 22.59 16.50 27.06 13.85 31.99 14.01 C 36.93 13.86 41.45 16.47 44.70 20.03 C 41.32 19.73 38.08 20.63 34.90 21.60 C 29.59 23.17 24.71 19.18 19.36 20.03 Z" />
<path fill="#ffffff" opacity="1.00" d=" M 15.97 28.03 C 17.41 26.47 18.73 24.44 20.97 23.98 C 23.92 23.35 26.64 25.03 29.20 26.21 C 28.43 26.49 26.87 27.06 26.09 27.34 C 24.19 25.01 21.35 26.89 22.24 29.69 C 20.13 29.20 18.03 28.68 15.97 28.03 Z" />
<path fill="#ffffff" opacity="1.00" d=" M 34.68 26.22 C 37.24 24.96 40.00 23.32 42.96 24.01 C 45.14 24.52 46.44 26.48 47.84 28.04 C 45.85 28.67 43.82 29.19 41.79 29.69 C 41.92 28.09 41.34 26.75 40.16 25.73 C 39.63 26.17 38.59 27.04 38.06 27.47 C 37.22 27.16 35.53 26.53 34.68 26.22 Z" />
<path fill="#ffffff" opacity="1.00" d=" M 21.62 36.89 C 23.90 33.31 27.44 29.91 31.98 30.02 C 36.53 29.89 40.08 33.31 42.38 36.89 C 43.54 36.26 44.69 35.63 45.85 35.00 C 44.90 33.71 43.88 32.48 42.81 31.30 C 43.43 31.53 44.03 31.78 44.63 32.07 C 46.27 31.73 47.89 31.29 49.49 30.82 C 51.88 32.86 54.56 35.61 53.89 39.06 C 53.03 43.35 48.89 45.84 45.16 47.40 C 41.91 48.40 40.37 51.94 37.09 52.94 C 31.53 55.45 24.93 53.22 21.20 48.63 C 17.13 46.46 11.88 44.76 10.30 39.89 C 9.09 36.11 11.93 32.79 14.71 30.64 C 16.58 31.12 18.46 31.56 20.35 31.94 C 19.62 32.97 18.91 34.00 18.22 35.04 C 19.35 35.65 20.49 36.27 21.62 36.89 M 24.00 42.01 C 24.00 43.35 24.00 44.68 24.00 46.01 C 30.06 45.95 36.70 45.82 41.53 41.59 C 40.60 40.63 39.67 39.67 38.74 38.71 C 34.59 42.11 29.04 41.84 24.00 42.01 Z" />
</g>
<g id="#000000ff">
<path fill="#000000" opacity="1.00" d=" M 14.48 20.70 C 18.14 13.66 26.17 9.13 34.12 10.14 C 40.79 10.70 46.50 15.18 49.72 20.89 C 49.85 18.59 49.92 16.30 50.03 14.00 C 51.36 14.00 52.69 14.00 54.02 14.01 C 53.95 17.14 53.73 20.27 53.58 23.40 C 55.23 21.26 55.93 18.66 56.14 16.00 C 57.47 16.00 58.80 16.01 60.13 16.03 C 60.19 21.24 57.37 25.79 53.09 28.61 C 55.83 31.36 58.57 34.91 57.90 39.05 C 57.33 44.65 52.50 48.62 47.59 50.62 C 44.74 51.57 43.11 54.27 40.55 55.68 C 35.36 58.74 28.56 58.73 23.38 55.65 C 20.86 54.26 19.27 51.59 16.47 50.65 C 11.54 48.66 6.69 44.70 6.10 39.09 C 5.43 35.10 8.06 31.71 10.64 29.01 C 10.22 26.45 10.91 23.92 11.35 21.42 C 12.40 21.19 13.44 20.95 14.48 20.70 M 19.36 20.03 C 24.71 19.18 29.59 23.17 34.90 21.60 C 38.08 20.63 41.32 19.73 44.70 20.03 C 41.45 16.47 36.93 13.86 31.99 14.01 C 27.06 13.85 22.59 16.50 19.36 20.03 M 15.97 28.03 C 18.03 28.68 20.13 29.20 22.24 29.69 C 21.35 26.89 24.19 25.01 26.09 27.34 C 26.87 27.06 28.43 26.49 29.20 26.21 C 26.64 25.03 23.92 23.35 20.97 23.98 C 18.73 24.44 17.41 26.47 15.97 28.03 M 34.68 26.22 C 35.53 26.53 37.22 27.16 38.06 27.47 C 38.59 27.04 39.63 26.17 40.16 25.73 C 41.34 26.75 41.92 28.09 41.79 29.69 C 43.82 29.19 45.85 28.67 47.84 28.04 C 46.44 26.48 45.14 24.52 42.96 24.01 C 40.00 23.32 37.24 24.96 34.68 26.22 M 21.62 36.89 C 20.49 36.27 19.35 35.65 18.22 35.04 C 18.91 34.00 19.62 32.97 20.35 31.94 C 18.46 31.56 16.58 31.12 14.71 30.64 C 11.93 32.79 9.09 36.11 10.30 39.89 C 11.88 44.76 17.13 46.46 21.20 48.63 C 24.93 53.22 31.53 55.45 37.09 52.94 C 40.37 51.94 41.91 48.40 45.16 47.40 C 48.89 45.84 53.03 43.35 53.89 39.06 C 54.56 35.61 51.88 32.86 49.49 30.82 C 47.89 31.29 46.27 31.73 44.63 32.07 C 44.03 31.78 43.43 31.53 42.81 31.30 C 43.88 32.48 44.90 33.71 45.85 35.00 C 44.69 35.63 43.54 36.26 42.38 36.89 C 40.08 33.31 36.53 29.89 31.98 30.02 C 27.44 29.91 23.90 33.31 21.62 36.89 Z" />
<path fill="#000000" opacity="1.00" d=" M 24.00 42.01 C 29.04 41.84 34.59 42.11 38.74 38.71 C 39.67 39.67 40.60 40.63 41.53 41.59 C 36.70 45.82 30.06 45.95 24.00 46.01 C 24.00 44.68 24.00 43.35 24.00 42.01 Z" />
</g>
</svg>
