<?xml version="1.0" encoding="UTF-8" ?>
<!DOCTYPE svg PUBLIC "-//W3C//DTD SVG 1.1//EN" "http://www.w3.org/Graphics/SVG/1.1/DTD/svg11.dtd">
<svg width="60pt" height="60pt" viewBox="0 0 60 60" version="1.1" xmlns="http://www.w3.org/2000/svg">
<g id="#ffffffff">
<path fill="#ffffff" opacity="1.00" d=" M 0.00 0.00 L 60.00 0.00 L 60.00 60.00 L 0.00 60.00 L 0.00 0.00 M 4.00 14.90 C 4.03 25.29 3.93 35.68 4.04 46.06 C 3.92 48.61 6.57 50.33 8.91 50.00 C 23.30 49.97 37.69 50.06 52.08 49.95 C 54.60 50.01 56.35 47.42 56.00 45.06 C 55.91 34.40 56.19 23.72 55.86 13.07 C 54.22 8.11 47.87 10.56 44.00 10.01 C 43.92 16.38 44.17 22.76 43.88 29.13 C 43.53 35.76 37.76 41.49 31.15 41.91 C 23.73 42.73 16.45 36.57 16.11 29.10 C 15.84 22.74 16.08 16.37 16.00 10.01 C 13.02 10.04 10.02 9.83 7.05 10.14 C 4.94 10.61 3.75 12.84 4.00 14.90 M 22.00 10.00 C 22.05 16.04 21.92 22.08 22.04 28.11 C 21.95 32.34 25.77 36.06 29.97 35.98 C 34.19 36.09 38.03 32.36 37.95 28.12 C 38.09 22.08 37.95 16.04 38.00 10.00 C 32.67 10.00 27.33 10.00 22.00 10.00 Z" />
</g>
<g id="#000000ff">
<path fill="#000000" opacity="1.00" d=" M 4.00 14.90 C 3.75 12.84 4.94 10.61 7.05 10.14 C 10.02 9.83 13.02 10.04 16.00 10.01 C 16.08 16.37 15.84 22.74 16.11 29.10 C 16.45 36.57 23.73 42.73 31.15 41.91 C 37.76 41.49 43.53 35.76 43.88 29.13 C 44.17 22.76 43.92 16.38 44.00 10.01 C 47.87 10.56 54.22 8.11 55.86 13.07 C 56.19 23.72 55.91 34.40 56.00 45.06 C 56.35 47.42 54.60 50.01 52.08 49.95 C 37.69 50.06 23.30 49.97 8.91 50.00 C 6.57 50.33 3.92 48.61 4.04 46.06 C 3.93 35.68 4.03 25.29 4.00 14.90 Z" />
<path fill="#000000" opacity="1.00" d=" M 22.00 10.00 C 27.33 10.00 32.67 10.00 38.00 10.00 C 37.95 16.04 38.09 22.08 37.95 28.12 C 38.03 32.36 34.19 36.09 29.97 35.98 C 25.77 36.06 21.95 32.34 22.04 28.11 C 21.92 22.08 22.05 16.04 22.00 10.00 Z" />
</g>
</svg>
