<?xml version="1.0" encoding="UTF-8" ?>
<!DOCTYPE svg PUBLIC "-//W3C//DTD SVG 1.1//EN" "http://www.w3.org/Graphics/SVG/1.1/DTD/svg11.dtd">
<svg width="60pt" height="60pt" viewBox="0 0 60 60" version="1.1" xmlns="http://www.w3.org/2000/svg">
<g id="#ffffffff">
<path fill="#ffffff" opacity="1.00" d=" M 0.00 0.00 L 60.00 0.00 L 60.00 60.00 L 0.00 60.00 L 0.00 0.00 M 16.37 6.39 C 14.01 7.10 14.05 9.93 13.98 11.93 C 13.98 16.23 13.74 20.56 14.22 24.84 C 14.41 27.17 16.92 28.08 18.94 27.98 C 26.31 28.05 33.69 28.05 41.06 27.98 C 43.08 28.09 45.59 27.17 45.78 24.84 C 46.25 19.92 46.11 14.95 45.90 10.01 C 45.94 8.22 44.73 6.39 42.85 6.21 C 37.58 5.66 32.28 6.15 27.00 5.99 C 23.46 6.07 19.85 5.63 16.37 6.39 M 16.37 32.39 C 14.01 33.09 14.05 35.94 13.98 37.93 C 13.98 42.23 13.74 46.56 14.22 50.85 C 14.41 53.18 16.92 54.08 18.94 53.98 C 26.31 54.05 33.69 54.05 41.06 53.98 C 43.08 54.08 45.59 53.18 45.78 50.84 C 46.25 45.92 46.11 40.94 45.90 36.01 C 45.93 34.22 44.73 32.38 42.84 32.21 C 37.59 31.65 32.28 32.15 27.00 31.99 C 23.46 32.07 19.86 31.63 16.37 32.39 Z" />
<path fill="#ffffff" opacity="1.00" d=" M 18.08 10.07 C 26.02 9.93 33.97 9.93 41.92 10.07 C 42.11 14.69 42.11 19.31 41.92 23.93 C 33.98 24.07 26.03 24.07 18.08 23.93 C 17.89 19.31 17.89 14.69 18.08 10.07 Z" />
<path fill="#ffffff" opacity="1.00" d=" M 18.08 36.07 C 26.03 35.93 33.98 35.93 41.92 36.07 C 42.11 40.69 42.11 45.31 41.92 49.93 C 33.98 50.07 26.03 50.07 18.08 49.93 C 17.89 45.31 17.89 40.69 18.08 36.07 Z" />
</g>
<g id="#000000ff">
<path fill="#968176" opacity="1.00" d=" M 16.37 6.39 C 19.85 5.63 23.46 6.07 27.00 5.99 C 32.28 6.15 37.58 5.66 42.85 6.21 C 44.73 6.39 45.94 8.22 45.90 10.01 C 46.11 14.95 46.25 19.92 45.78 24.84 C 45.59 27.17 43.08 28.09 41.06 27.98 C 33.69 28.05 26.31 28.05 18.94 27.98 C 16.92 28.08 14.41 27.17 14.22 24.84 C 13.74 20.56 13.98 16.23 13.98 11.93 C 14.05 9.93 14.01 7.10 16.37 6.39 M 18.08 10.07 C 17.89 14.69 17.89 19.31 18.08 23.93 C 26.03 24.07 33.98 24.07 41.92 23.93 C 42.11 19.31 42.11 14.69 41.92 10.07 C 33.97 9.93 26.02 9.93 18.08 10.07 Z" />
<path fill="#968176" opacity="1.00" d=" M 16.37 32.39 C 19.86 31.63 23.46 32.07 27.00 31.99 C 32.28 32.15 37.59 31.65 42.84 32.21 C 44.73 32.38 45.93 34.22 45.90 36.01 C 46.11 40.94 46.25 45.92 45.78 50.84 C 45.59 53.18 43.08 54.08 41.06 53.98 C 33.69 54.05 26.31 54.05 18.94 53.98 C 16.92 54.08 14.41 53.18 14.22 50.85 C 13.74 46.56 13.98 42.23 13.98 37.93 C 14.05 35.94 14.01 33.09 16.37 32.39 M 18.08 36.07 C 17.89 40.69 17.89 45.31 18.08 49.93 C 26.03 50.07 33.98 50.07 41.92 49.93 C 42.11 45.31 42.11 40.69 41.92 36.07 C 33.98 35.93 26.03 35.93 18.08 36.07 Z" />
</g>
</svg>
