<?xml version="1.0" encoding="UTF-8" ?>
<!DOCTYPE svg PUBLIC "-//W3C//DTD SVG 1.1//EN" "http://www.w3.org/Graphics/SVG/1.1/DTD/svg11.dtd">
<svg width="64pt" height="64pt" viewBox="0 0 64 64" version="1.1" xmlns="http://www.w3.org/2000/svg">
<g id="#ffffffff">
<path fill="#ffffff" opacity="1.00" d=" M 0.00 0.00 L 64.00 0.00 L 64.00 64.00 L 0.00 64.00 L 0.00 0.00 M 11.99 5.99 C 12.01 10.66 12.01 15.33 11.98 20.00 C 13.33 19.99 14.67 19.99 16.02 20.00 C 15.94 16.67 16.05 13.33 15.99 9.99 C 26.66 10.00 37.34 10.00 48.01 9.99 C 47.94 13.35 48.06 16.71 47.98 20.08 C 49.33 20.08 50.67 20.07 52.01 20.07 C 51.99 15.38 52.00 10.69 52.01 5.99 C 38.67 6.00 25.33 6.00 11.99 5.99 M 43.76 39.96 C 45.05 39.96 46.34 39.97 47.63 39.99 C 47.48 37.09 52.52 37.09 52.37 39.99 C 53.66 39.97 54.95 39.96 56.24 39.96 C 54.93 33.13 52.22 26.67 50.00 20.10 C 47.79 26.67 45.07 33.13 43.76 39.96 M 5.98 24.00 C 6.01 29.33 6.01 34.67 5.98 40.00 C 7.31 39.99 8.63 40.00 9.95 40.02 C 9.97 37.97 10.05 35.93 10.24 33.89 C 11.58 35.67 12.18 37.78 12.16 39.99 C 13.44 40.00 14.73 40.00 16.02 40.00 C 15.99 34.67 15.99 29.33 16.02 24.00 C 14.69 24.00 13.37 24.00 12.05 23.98 C 12.02 26.03 11.95 28.07 11.75 30.11 C 10.43 28.32 9.82 26.21 9.84 24.00 C 8.55 24.00 7.27 24.00 5.98 24.00 M 18.01 23.89 C 17.99 29.26 18.02 34.63 17.98 40.01 C 19.33 39.99 20.67 39.99 22.01 40.01 C 21.98 36.95 22.02 33.89 21.99 30.83 C 22.66 31.63 23.33 32.42 24.00 33.21 C 24.67 32.42 25.34 31.62 26.01 30.83 C 25.98 33.89 26.02 36.95 25.99 40.01 C 27.33 39.99 28.67 39.99 30.02 40.01 C 29.98 34.63 30.01 29.26 29.99 23.89 C 27.64 23.65 25.46 24.19 24.00 26.16 C 22.54 24.19 20.36 23.65 18.01 23.89 M 31.99 24.00 C 32.01 29.33 32.01 34.67 31.99 40.00 C 35.33 40.00 38.67 40.00 42.01 40.01 C 41.99 38.67 41.99 37.32 42.00 35.98 C 40.00 36.00 38.00 36.01 36.00 36.01 C 36.00 35.50 36.00 34.49 36.00 33.98 C 37.33 33.99 38.67 34.01 40.00 34.03 C 39.99 32.67 39.99 31.32 40.00 29.97 C 38.67 29.99 37.33 30.01 36.00 30.02 C 36.00 29.51 36.00 28.50 36.00 27.99 C 38.00 27.99 40.00 28.00 42.00 28.02 C 41.99 26.67 41.99 25.33 42.01 23.99 C 38.67 24.00 35.33 24.00 31.99 24.00 M 11.98 44.00 C 12.01 48.67 12.01 53.34 11.99 58.00 C 25.33 58.00 38.67 58.00 52.01 58.00 C 51.99 53.34 51.99 48.67 52.02 44.00 C 50.67 44.01 49.32 44.01 47.98 44.00 C 48.06 47.33 47.95 50.67 48.01 54.01 C 37.34 54.00 26.66 54.00 15.99 54.01 C 16.05 50.67 15.94 47.33 16.02 44.00 C 14.67 44.01 13.33 44.01 11.98 44.00 Z" />
</g>
<g id="#000000ff">
<path fill="#000000" opacity="1.00" d=" M 11.99 5.99 C 25.33 6.00 38.67 6.00 52.01 5.99 C 52.00 10.69 51.99 15.38 52.01 20.07 C 50.67 20.07 49.33 20.08 47.98 20.08 C 48.06 16.71 47.94 13.35 48.01 9.99 C 37.34 10.00 26.66 10.00 15.99 9.99 C 16.05 13.33 15.94 16.67 16.02 20.00 C 14.67 19.99 13.33 19.99 11.98 20.00 C 12.01 15.33 12.01 10.66 11.99 5.99 Z" />
<path fill="#000000" opacity="1.00" d=" M 43.76 39.96 C 45.07 33.13 47.79 26.67 50.00 20.10 C 52.22 26.67 54.93 33.13 56.24 39.96 C 54.95 39.96 53.66 39.97 52.37 39.99 C 52.52 37.09 47.48 37.09 47.63 39.99 C 46.34 39.97 45.05 39.96 43.76 39.96 Z" />
<path fill="#000000" opacity="1.00" d=" M 5.98 24.00 C 7.27 24.00 8.55 24.00 9.84 24.00 C 9.82 26.21 10.43 28.32 11.75 30.11 C 11.95 28.07 12.02 26.03 12.05 23.98 C 13.37 24.00 14.69 24.00 16.02 24.00 C 15.99 29.33 15.99 34.67 16.02 40.00 C 14.73 40.00 13.44 40.00 12.16 39.99 C 12.18 37.78 11.58 35.67 10.24 33.89 C 10.05 35.93 9.97 37.97 9.95 40.02 C 8.63 40.00 7.31 39.99 5.98 40.00 C 6.01 34.67 6.01 29.33 5.98 24.00 Z" />
<path fill="#000000" opacity="1.00" d=" M 18.01 23.89 C 20.36 23.65 22.54 24.19 24.00 26.16 C 25.46 24.19 27.64 23.65 29.99 23.89 C 30.01 29.26 29.98 34.63 30.02 40.01 C 28.67 39.99 27.33 39.99 25.99 40.01 C 26.02 36.95 25.98 33.89 26.01 30.83 C 25.34 31.62 24.67 32.42 24.00 33.21 C 23.33 32.42 22.66 31.63 21.99 30.83 C 22.02 33.89 21.98 36.95 22.01 40.01 C 20.67 39.99 19.33 39.99 17.98 40.01 C 18.02 34.63 17.99 29.26 18.01 23.89 Z" />
<path fill="#000000" opacity="1.00" d=" M 31.99 24.00 C 35.33 24.00 38.67 24.00 42.01 23.99 C 41.99 25.33 41.99 26.67 42.00 28.02 C 40.00 28.00 38.00 27.99 36.00 27.99 C 36.00 28.50 36.00 29.51 36.00 30.02 C 37.33 30.01 38.67 29.99 40.00 29.97 C 39.99 31.32 39.99 32.67 40.00 34.03 C 38.67 34.01 37.33 33.99 36.00 33.98 C 36.00 34.49 36.00 35.50 36.00 36.01 C 38.00 36.01 40.00 36.00 42.00 35.98 C 41.99 37.32 41.99 38.67 42.01 40.01 C 38.67 40.00 35.33 40.00 31.99 40.00 C 32.01 34.67 32.01 29.33 31.99 24.00 Z" />
<path fill="#000000" opacity="1.00" d=" M 11.98 44.00 C 13.33 44.01 14.67 44.01 16.02 44.00 C 15.94 47.33 16.05 50.67 15.99 54.01 C 26.66 54.00 37.34 54.00 48.01 54.01 C 47.95 50.67 48.06 47.33 47.98 44.00 C 49.32 44.01 50.67 44.01 52.02 44.00 C 51.99 48.67 51.99 53.34 52.01 58.00 C 38.67 58.00 25.33 58.00 11.99 58.00 C 12.01 53.34 12.01 48.67 11.98 44.00 Z" />
</g>
</svg>
