<?xml version="1.0" encoding="UTF-8" ?>
<!DOCTYPE svg PUBLIC "-//W3C//DTD SVG 1.1//EN" "http://www.w3.org/Graphics/SVG/1.1/DTD/svg11.dtd">
<svg width="60pt" height="60pt" viewBox="0 0 60 60" version="1.1" xmlns="http://www.w3.org/2000/svg">
<g id="#ffffffff">
<path fill="#ffffff" opacity="1.00" d=" M 0.00 0.00 L 60.00 0.00 L 60.00 60.00 L 0.00 60.00 L 0.00 0.00 M 3.17 0.73 C 2.55 1.81 -0.12 3.03 1.55 4.35 C 19.02 21.93 36.56 39.45 54.10 56.96 C 55.03 57.61 55.64 59.05 56.90 59.02 C 57.61 58.19 59.23 57.53 58.97 56.25 C 56.81 53.80 54.39 51.61 52.08 49.31 C 55.71 45.34 57.34 39.23 54.60 34.33 C 50.34 26.09 38.89 23.80 31.13 28.33 C 30.18 27.33 29.22 26.35 28.29 25.35 C 34.13 21.80 41.44 21.05 47.87 23.36 C 46.82 17.44 43.09 12.09 37.83 9.16 C 30.22 4.63 20.16 5.13 12.83 9.99 C 9.55 6.97 6.75 3.39 3.17 0.73 M 7.13 15.69 C 1.75 23.51 3.75 34.62 10.88 40.65 C 9.82 43.18 7.78 44.96 5.96 46.91 L 6.15 47.76 C 10.08 48.51 13.89 46.45 17.03 44.29 C 17.99 44.59 19.91 45.19 20.87 45.49 C 19.37 40.69 19.93 35.40 22.57 31.12 C 17.43 25.97 12.30 20.81 7.13 15.69 M 25.26 34.13 C 23.88 37.78 23.38 42.01 25.34 45.56 C 28.84 52.43 37.57 55.39 44.80 53.34 C 38.25 46.98 32.08 40.18 25.26 34.13 Z" />
</g>
<g id="#000000ff">
<path fill="#000000" opacity="1.00" d=" M 3.17 0.73 C 6.75 3.39 9.55 6.97 12.83 9.99 C 20.16 5.13 30.22 4.63 37.83 9.16 C 43.09 12.09 46.82 17.44 47.87 23.36 C 41.44 21.05 34.13 21.80 28.29 25.35 C 29.22 26.35 30.18 27.33 31.13 28.33 C 38.89 23.80 50.34 26.09 54.60 34.33 C 57.34 39.23 55.71 45.34 52.08 49.31 C 54.39 51.61 56.81 53.80 58.97 56.25 C 59.23 57.53 57.61 58.19 56.90 59.02 C 55.64 59.05 55.03 57.61 54.10 56.96 C 36.56 39.45 19.02 21.93 1.55 4.35 C -0.12 3.03 2.55 1.81 3.17 0.73 Z" />
<path fill="#000000" opacity="1.00" d=" M 7.13 15.69 C 12.30 20.81 17.43 25.97 22.57 31.12 C 19.93 35.40 19.37 40.69 20.87 45.49 C 19.91 45.19 17.99 44.59 17.03 44.29 C 13.89 46.45 10.08 48.51 6.15 47.76 L 5.96 46.91 C 7.78 44.96 9.82 43.18 10.88 40.65 C 3.75 34.62 1.75 23.51 7.13 15.69 Z" />
<path fill="#000000" opacity="1.00" d=" M 25.26 34.13 C 32.08 40.18 38.25 46.98 44.80 53.34 C 37.57 55.39 28.84 52.43 25.34 45.56 C 23.38 42.01 23.88 37.78 25.26 34.13 Z" />
</g>
</svg>
