<?xml version="1.0" encoding="UTF-8" ?>
<!DOCTYPE svg PUBLIC "-//W3C//DTD SVG 1.1//EN" "http://www.w3.org/Graphics/SVG/1.1/DTD/svg11.dtd">
<svg width="60pt" height="60pt" viewBox="0 0 60 60" version="1.1" xmlns="http://www.w3.org/2000/svg">
<g id="#ffffffff">
<path fill="#ffffff" opacity="1.00" d=" M 0.00 0.00 L 60.00 0.00 L 60.00 60.00 L 0.00 60.00 L 0.00 0.00 M 24.52 6.64 C 17.36 8.30 11.12 13.43 8.13 20.14 C 4.99 26.98 5.37 35.29 9.12 41.80 C 12.93 48.59 20.20 53.30 27.98 53.89 C 36.13 54.66 44.48 50.85 49.28 44.23 C 55.86 35.66 55.44 22.68 48.33 14.56 C 42.72 7.70 33.12 4.55 24.52 6.64 Z" />
<path fill="#ffffff" opacity="1.00" d=" M 14.98 16.65 C 18.88 12.62 24.27 9.92 29.95 10.01 C 38.53 9.83 46.73 15.88 49.10 24.12 C 50.82 29.39 49.90 35.20 47.36 40.06 C 44.73 38.14 42.06 36.26 39.43 34.35 C 38.96 31.45 36.91 28.94 33.92 28.48 C 30.85 28.02 28.15 26.51 25.82 24.51 C 27.39 20.85 33.17 21.10 34.53 24.84 C 36.00 24.86 37.46 24.88 38.93 24.89 C 38.55 21.17 35.46 18.77 32.02 18.02 C 32.01 16.68 32.00 15.34 31.99 14.00 C 30.66 14.00 29.33 14.00 28.01 14.00 C 28.00 15.35 27.99 16.69 27.98 18.04 C 25.66 18.67 23.54 19.85 22.02 21.77 C 19.65 20.09 17.31 18.38 14.98 16.65 Z" />
<path fill="#ffffff" opacity="1.00" d=" M 10.44 34.14 C 9.34 29.31 10.40 24.29 12.63 19.94 C 23.44 27.70 34.22 35.51 45.01 43.30 C 40.67 47.94 34.24 50.65 27.87 49.87 C 19.46 49.12 12.05 42.42 10.44 34.14 M 20.63 35.08 C 21.05 38.95 24.35 41.40 27.98 42.01 C 27.99 43.34 28.00 44.67 28.01 46.00 C 29.34 46.00 30.67 46.00 32.00 46.00 C 32.00 44.66 32.01 43.32 32.00 41.98 C 33.05 41.63 34.08 41.26 35.11 40.86 C 32.49 37.40 27.09 39.07 25.12 35.09 C 23.62 35.08 22.12 35.08 20.63 35.08 Z" />
</g>
<g id="#000000ff">
<path fill="#000000" opacity="1.00" d=" M 24.52 6.64 C 33.12 4.55 42.72 7.70 48.33 14.56 C 55.44 22.68 55.86 35.66 49.28 44.23 C 44.48 50.85 36.13 54.66 27.98 53.89 C 20.20 53.30 12.93 48.59 9.12 41.80 C 5.37 35.29 4.99 26.98 8.13 20.14 C 11.12 13.43 17.36 8.30 24.52 6.64 M 14.98 16.65 C 17.31 18.38 19.65 20.09 22.02 21.77 C 23.54 19.85 25.66 18.67 27.98 18.04 C 27.99 16.69 28.00 15.35 28.01 14.00 C 29.33 14.00 30.66 14.00 31.99 14.00 C 32.00 15.34 32.01 16.68 32.02 18.02 C 35.46 18.77 38.55 21.17 38.93 24.89 C 37.46 24.88 36.00 24.86 34.53 24.84 C 33.17 21.10 27.39 20.85 25.82 24.51 C 28.15 26.51 30.85 28.02 33.92 28.48 C 36.91 28.94 38.96 31.45 39.43 34.35 C 42.06 36.26 44.73 38.14 47.36 40.06 C 49.90 35.20 50.82 29.39 49.10 24.12 C 46.73 15.88 38.53 9.83 29.95 10.01 C 24.27 9.92 18.88 12.62 14.98 16.65 M 10.44 34.14 C 12.05 42.42 19.46 49.12 27.87 49.87 C 34.24 50.65 40.67 47.94 45.01 43.30 C 34.22 35.51 23.44 27.70 12.63 19.94 C 10.40 24.29 9.34 29.31 10.44 34.14 Z" />
<path fill="#000000" opacity="1.00" d=" M 20.63 35.08 C 22.12 35.08 23.62 35.08 25.12 35.09 C 27.09 39.07 32.49 37.40 35.11 40.86 C 34.08 41.26 33.05 41.63 32.00 41.98 C 32.01 43.32 32.00 44.66 32.00 46.00 C 30.67 46.00 29.34 46.00 28.01 46.00 C 28.00 44.67 27.99 43.34 27.98 42.01 C 24.35 41.40 21.05 38.95 20.63 35.08 Z" />
</g>
</svg>
