<?xml version="1.0" encoding="UTF-8" ?>
<!DOCTYPE svg PUBLIC "-//W3C//DTD SVG 1.1//EN" "http://www.w3.org/Graphics/SVG/1.1/DTD/svg11.dtd">
<svg width="60pt" height="60pt" viewBox="0 0 60 60" version="1.1" xmlns="http://www.w3.org/2000/svg">
<g id="#ffffffff">
<path fill="#ffffff" opacity="1.00" d=" M 0.00 0.00 L 60.00 0.00 L 60.00 60.00 L 0.00 60.00 L 0.00 0.00 M 3.26 0.71 C 2.40 1.56 1.55 2.41 0.71 3.27 C 18.22 21.40 36.34 38.95 54.05 56.90 C 54.99 57.57 55.63 59.05 56.92 59.00 C 57.76 58.18 60.03 56.86 58.45 55.63 C 48.49 45.62 38.48 35.66 28.51 25.67 C 30.29 24.20 31.88 22.40 34.00 21.40 C 36.62 21.62 38.56 23.84 41.02 24.63 C 44.28 23.64 46.96 21.39 49.97 19.87 C 51.49 18.80 53.90 18.14 54.04 15.94 C 52.82 10.39 46.42 6.72 40.98 8.40 C 33.93 10.35 28.39 15.46 23.15 20.30 C 16.44 13.84 10.18 6.93 3.26 0.71 M 8.26 41.51 C 6.91 46.82 10.61 52.88 15.97 54.03 C 17.92 53.98 18.58 51.90 19.51 50.55 C 21.15 47.33 23.54 44.45 24.63 40.99 C 23.80 38.89 22.45 37.05 21.49 35.01 C 21.05 33.55 22.42 32.51 22.97 31.30 C 21.17 29.55 19.40 27.77 17.64 25.99 C 13.69 30.57 9.66 35.49 8.26 41.51 Z" />
</g>
<g id="#000000ff">
<path fill="#000000" opacity="1.00" d=" M 3.26 0.71 C 10.18 6.93 16.44 13.84 23.15 20.30 C 28.39 15.46 33.93 10.35 40.98 8.40 C 46.42 6.72 52.82 10.39 54.04 15.94 C 53.90 18.14 51.49 18.80 49.97 19.87 C 46.96 21.39 44.28 23.64 41.02 24.63 C 38.56 23.84 36.62 21.62 34.00 21.40 C 31.88 22.40 30.29 24.20 28.51 25.67 C 38.48 35.66 48.49 45.62 58.45 55.63 C 60.03 56.86 57.76 58.18 56.92 59.00 C 55.63 59.05 54.99 57.57 54.05 56.90 C 36.34 38.95 18.22 21.40 0.71 3.27 C 1.55 2.41 2.40 1.56 3.26 0.71 Z" />
<path fill="#000000" opacity="1.00" d=" M 8.26 41.51 C 9.66 35.49 13.69 30.57 17.64 25.99 C 19.40 27.77 21.17 29.55 22.97 31.30 C 22.42 32.51 21.05 33.55 21.49 35.01 C 22.45 37.05 23.80 38.89 24.63 40.99 C 23.54 44.45 21.15 47.33 19.51 50.55 C 18.58 51.90 17.92 53.98 15.97 54.03 C 10.61 52.88 6.91 46.82 8.26 41.51 Z" />
</g>
</svg>
