<?xml version="1.0" encoding="UTF-8" ?>
<!DOCTYPE svg PUBLIC "-//W3C//DTD SVG 1.1//EN" "http://www.w3.org/Graphics/SVG/1.1/DTD/svg11.dtd">
<svg width="64pt" height="64pt" viewBox="0 0 64 64" version="1.1" xmlns="http://www.w3.org/2000/svg">
<g id="#ffffffff">
<path fill="#ffffff" opacity="1.00" d=" M 0.00 0.00 L 64.00 0.00 L 64.00 64.00 L 0.00 64.00 L 0.00 0.00 M 7.42 4.59 C 6.48 5.53 5.53 6.47 4.59 7.40 C 21.92 24.74 39.24 42.10 56.61 59.41 C 57.54 58.46 58.47 57.52 59.41 56.58 C 56.85 54.02 54.29 51.47 51.74 48.91 C 57.24 42.40 59.44 33.21 57.01 24.99 C 54.32 15.11 45.32 7.33 35.13 6.21 C 27.96 5.24 20.59 7.63 15.05 12.22 C 12.49 9.69 9.96 7.13 7.42 4.59 M 8.00 16.49 C 8.00 18.99 8.00 21.50 8.00 24.00 C 10.50 24.00 13.01 24.00 15.51 23.99 C 13.01 21.49 10.51 18.99 8.00 16.49 M 6.00 32.00 C 6.00 32.50 6.00 33.50 6.00 34.00 C 7.33 34.00 8.67 34.00 10.00 34.00 C 10.00 33.50 10.00 32.50 10.00 32.00 C 8.67 32.00 7.33 32.00 6.00 32.00 M 6.81 38.33 C 7.24 39.59 7.67 40.86 8.09 42.13 C 9.30 41.59 10.52 41.04 11.74 40.51 C 11.47 39.68 10.93 38.02 10.65 37.20 C 9.37 37.58 8.09 37.95 6.81 38.33 M 9.96 45.73 C 10.75 46.80 11.54 47.88 12.32 48.97 C 13.33 48.10 14.35 47.24 15.37 46.38 C 14.86 45.67 13.84 44.26 13.33 43.55 C 12.21 44.28 11.09 45.01 9.96 45.73 M 15.18 51.85 C 16.26 52.63 17.34 53.42 18.41 54.22 C 19.14 53.10 19.87 51.98 20.60 50.86 C 19.66 50.18 18.73 49.50 17.80 48.82 C 16.93 49.83 16.05 50.84 15.18 51.85 M 30.00 54.04 C 30.00 55.37 30.00 56.70 30.00 58.03 C 35.46 58.19 40.94 56.96 45.65 54.14 C 44.68 53.17 43.71 52.20 42.74 51.23 C 38.84 53.34 34.41 54.14 30.00 54.04 M 22.01 56.10 C 23.29 56.51 24.56 56.93 25.84 57.37 C 26.20 56.07 26.57 54.79 26.94 53.50 C 26.12 53.24 24.47 52.71 23.65 52.45 C 23.10 53.66 22.56 54.88 22.01 56.10 Z" />
<path fill="#ffffff" opacity="1.00" d=" M 17.87 15.03 C 23.12 10.71 30.36 8.99 36.98 10.59 C 44.98 12.38 51.64 19.03 53.41 27.04 C 55.04 33.65 53.18 40.83 48.92 46.08 C 38.56 35.74 28.22 25.38 17.87 15.03 Z" />
</g>
<g id="#000000ff">
<path fill="#000000" opacity="1.00" d=" M 7.42 4.59 C 9.96 7.13 12.49 9.69 15.05 12.22 C 20.59 7.63 27.96 5.24 35.13 6.21 C 45.32 7.33 54.32 15.11 57.01 24.99 C 59.44 33.21 57.24 42.40 51.74 48.91 C 54.29 51.47 56.85 54.02 59.41 56.58 C 58.47 57.52 57.54 58.46 56.61 59.41 C 39.24 42.10 21.92 24.74 4.59 7.40 C 5.53 6.47 6.48 5.53 7.42 4.59 M 17.87 15.03 C 28.22 25.38 38.56 35.74 48.92 46.08 C 53.18 40.83 55.04 33.65 53.41 27.04 C 51.64 19.03 44.98 12.38 36.98 10.59 C 30.36 8.99 23.12 10.71 17.87 15.03 Z" />
<path fill="#000000" opacity="1.00" d=" M 8.00 16.49 C 10.51 18.99 13.01 21.49 15.51 23.99 C 13.01 24.00 10.50 24.00 8.00 24.00 C 8.00 21.50 8.00 18.99 8.00 16.49 Z" />
<path fill="#000000" opacity="1.00" d=" M 6.00 32.00 C 7.33 32.00 8.67 32.00 10.00 32.00 C 10.00 32.50 10.00 33.50 10.00 34.00 C 8.67 34.00 7.33 34.00 6.00 34.00 C 6.00 33.50 6.00 32.50 6.00 32.00 Z" />
<path fill="#000000" opacity="1.00" d=" M 6.81 38.33 C 8.09 37.95 9.37 37.58 10.65 37.20 C 10.93 38.02 11.47 39.68 11.74 40.51 C 10.52 41.04 9.30 41.59 8.09 42.13 C 7.67 40.86 7.24 39.59 6.81 38.33 Z" />
<path fill="#000000" opacity="1.00" d=" M 9.96 45.73 C 11.09 45.01 12.21 44.28 13.33 43.55 C 13.84 44.26 14.86 45.67 15.37 46.38 C 14.35 47.24 13.33 48.10 12.32 48.97 C 11.54 47.88 10.75 46.80 9.96 45.73 Z" />
<path fill="#000000" opacity="1.00" d=" M 15.18 51.85 C 16.05 50.84 16.93 49.83 17.80 48.82 C 18.73 49.50 19.66 50.18 20.60 50.86 C 19.87 51.98 19.14 53.10 18.41 54.22 C 17.34 53.42 16.26 52.63 15.18 51.85 Z" />
<path fill="#000000" opacity="1.00" d=" M 30.00 54.04 C 34.41 54.14 38.84 53.34 42.74 51.23 C 43.71 52.20 44.68 53.17 45.65 54.14 C 40.94 56.96 35.46 58.19 30.00 58.03 C 30.00 56.70 30.00 55.37 30.00 54.04 Z" />
<path fill="#000000" opacity="1.00" d=" M 22.01 56.10 C 22.56 54.88 23.10 53.66 23.65 52.45 C 24.47 52.71 26.12 53.24 26.94 53.50 C 26.57 54.79 26.20 56.07 25.84 57.37 C 24.56 56.93 23.29 56.51 22.01 56.10 Z" />
</g>
</svg>
