<?xml version="1.0" encoding="UTF-8" ?>
<!DOCTYPE svg PUBLIC "-//W3C//DTD SVG 1.1//EN" "http://www.w3.org/Graphics/SVG/1.1/DTD/svg11.dtd">
<svg width="64pt" height="64pt" viewBox="0 0 64 64" version="1.1" xmlns="http://www.w3.org/2000/svg">
<g id="#ffffffff">
<path fill="#ffffff" opacity="1.00" d=" M 0.00 0.00 L 64.00 0.00 L 64.00 64.00 L 0.00 64.00 L 0.00 0.00 M 22.29 4.37 C 19.35 5.01 17.35 7.65 16.53 10.40 C 14.60 16.70 14.25 23.34 14.09 29.89 C 14.10 38.03 14.18 46.38 16.70 54.21 C 17.68 57.33 20.51 60.01 23.92 59.95 C 29.30 60.05 34.70 60.04 40.08 59.96 C 43.50 60.04 46.40 57.39 47.34 54.23 C 50.08 45.81 50.04 36.80 49.93 28.03 C 49.66 21.62 49.33 15.03 46.98 8.99 C 45.78 5.81 42.45 3.82 39.09 4.13 C 33.49 4.26 27.86 3.83 22.29 4.37 Z" />
<path fill="#ffffff" opacity="1.00" d=" M 23.14 8.25 C 28.75 7.99 34.39 8.15 40.01 8.16 C 41.94 8.00 43.13 9.85 43.66 11.45 C 45.36 16.81 45.76 22.48 45.91 28.06 C 46.14 35.10 40.12 41.52 33.12 41.91 C 25.70 42.74 18.29 36.51 18.16 28.98 C 18.22 23.35 18.63 17.67 20.17 12.23 C 20.66 10.66 21.39 8.75 23.14 8.25 M 23.33 12.01 C 22.87 16.98 22.45 21.96 22.09 26.94 C 23.97 29.09 26.26 31.00 29.12 31.62 C 33.88 32.96 38.93 30.71 41.91 26.94 C 41.55 21.96 41.13 16.99 40.67 12.01 C 34.89 11.99 29.11 11.99 23.33 12.01 M 27.10 34.17 C 25.66 34.92 25.67 37.06 27.09 37.82 C 30.34 38.14 33.63 38.14 36.88 37.82 C 38.36 37.09 38.35 34.84 36.82 34.16 C 33.60 33.87 30.33 33.86 27.10 34.17 Z" />
<path fill="#ffffff" opacity="1.00" d=" M 33.10 45.95 C 38.03 45.75 42.51 43.16 45.84 39.63 C 44.90 44.93 45.64 51.47 41.64 55.59 C 36.18 56.53 30.46 55.76 24.90 56.00 C 22.96 56.33 21.21 55.04 20.65 53.22 C 18.96 48.94 18.81 44.28 18.25 39.77 C 22.06 43.78 27.49 46.40 33.10 45.95 M 24.00 50.00 C 24.00 51.33 24.00 52.67 24.00 54.00 C 25.33 54.00 26.67 54.00 28.00 54.00 C 28.00 52.67 28.00 51.33 28.00 50.00 C 26.67 50.00 25.33 50.00 24.00 50.00 M 30.00 50.00 C 30.00 51.33 30.00 52.67 30.00 54.00 C 31.33 54.00 32.67 54.00 34.00 54.00 C 34.00 52.67 34.00 51.33 34.00 50.00 C 32.67 50.00 31.33 50.00 30.00 50.00 M 36.00 50.00 C 36.00 51.33 36.00 52.67 36.00 54.00 C 37.33 54.00 38.67 54.00 40.00 54.00 C 40.00 52.67 40.00 51.33 40.00 50.00 C 38.67 50.00 37.33 50.00 36.00 50.00 Z" />
</g>
<g id="#000000ff">
<path fill="#000000" opacity="1.00" d=" M 22.29 4.37 C 27.86 3.83 33.49 4.26 39.09 4.13 C 42.45 3.82 45.78 5.81 46.98 8.99 C 49.33 15.03 49.66 21.62 49.93 28.03 C 50.04 36.80 50.08 45.81 47.34 54.23 C 46.40 57.39 43.50 60.04 40.08 59.96 C 34.70 60.04 29.30 60.05 23.92 59.95 C 20.51 60.01 17.68 57.33 16.70 54.21 C 14.18 46.38 14.10 38.03 14.09 29.89 C 14.25 23.34 14.60 16.70 16.53 10.40 C 17.35 7.65 19.35 5.01 22.29 4.37 M 23.14 8.25 C 21.39 8.75 20.66 10.66 20.17 12.23 C 18.63 17.67 18.22 23.35 18.16 28.98 C 18.29 36.51 25.70 42.74 33.12 41.91 C 40.12 41.52 46.14 35.10 45.91 28.06 C 45.76 22.48 45.36 16.81 43.66 11.45 C 43.13 9.85 41.94 8.00 40.01 8.16 C 34.39 8.15 28.75 7.99 23.14 8.25 M 33.10 45.95 C 27.49 46.40 22.06 43.78 18.25 39.77 C 18.81 44.28 18.96 48.94 20.65 53.22 C 21.21 55.04 22.96 56.33 24.90 56.00 C 30.46 55.76 36.18 56.53 41.64 55.59 C 45.64 51.47 44.90 44.93 45.84 39.63 C 42.51 43.16 38.03 45.75 33.10 45.95 Z" />
<path fill="#000000" opacity="1.00" d=" M 23.33 12.01 C 29.11 11.99 34.89 11.99 40.67 12.01 C 41.13 16.99 41.55 21.96 41.91 26.94 C 38.93 30.71 33.88 32.96 29.12 31.62 C 26.26 31.00 23.97 29.09 22.09 26.94 C 22.45 21.96 22.87 16.98 23.33 12.01 Z" />
<path fill="#000000" opacity="1.00" d=" M 27.10 34.17 C 30.33 33.86 33.60 33.87 36.82 34.16 C 38.35 34.84 38.36 37.09 36.88 37.82 C 33.63 38.14 30.34 38.14 27.09 37.82 C 25.67 37.06 25.66 34.92 27.10 34.17 Z" />
<path fill="#000000" opacity="1.00" d=" M 24.00 50.00 C 25.33 50.00 26.67 50.00 28.00 50.00 C 28.00 51.33 28.00 52.67 28.00 54.00 C 26.67 54.00 25.33 54.00 24.00 54.00 C 24.00 52.67 24.00 51.33 24.00 50.00 Z" />
<path fill="#000000" opacity="1.00" d=" M 30.00 50.00 C 31.33 50.00 32.67 50.00 34.00 50.00 C 34.00 51.33 34.00 52.67 34.00 54.00 C 32.67 54.00 31.33 54.00 30.00 54.00 C 30.00 52.67 30.00 51.33 30.00 50.00 Z" />
<path fill="#000000" opacity="1.00" d=" M 36.00 50.00 C 37.33 50.00 38.67 50.00 40.00 50.00 C 40.00 51.33 40.00 52.67 40.00 54.00 C 38.67 54.00 37.33 54.00 36.00 54.00 C 36.00 52.67 36.00 51.33 36.00 50.00 Z" />
</g>
</svg>
