<?xml version="1.0" encoding="UTF-8" ?>
<!DOCTYPE svg PUBLIC "-//W3C//DTD SVG 1.1//EN" "http://www.w3.org/Graphics/SVG/1.1/DTD/svg11.dtd">
<svg width="60pt" height="60pt" viewBox="0 0 60 60" version="1.1" xmlns="http://www.w3.org/2000/svg">
<g id="#ffffffff">
<path fill="#ffffff" opacity="1.00" d=" M 0.00 0.00 L 60.00 0.00 L 60.00 60.00 L 0.00 60.00 L 0.00 0.00 M 9.20 8.06 C 7.72 8.82 8.07 10.55 7.99 11.92 C 8.05 23.97 7.92 36.03 8.05 48.08 C 8.00 50.59 10.58 52.33 12.93 52.00 C 25.28 51.95 37.63 52.10 49.97 51.93 C 51.49 52.04 52.32 50.49 51.91 49.16 C 50.17 47.88 47.75 47.29 47.08 44.97 C 42.93 35.09 42.92 24.01 38.89 14.09 C 37.72 11.18 35.45 8.01 31.98 8.02 C 28.54 8.04 26.27 11.18 25.11 14.08 C 21.07 24.01 21.07 35.10 16.91 44.99 C 16.18 47.15 14.27 48.35 12.01 48.16 C 11.93 35.43 12.11 22.70 11.93 9.97 C 12.09 8.49 10.48 7.68 9.20 8.06 Z" />
<path fill="#ffffff" opacity="1.00" d=" M 28.49 16.38 C 29.24 14.68 30.01 12.56 31.94 11.92 C 33.98 12.44 34.74 14.68 35.52 16.40 C 39.27 26.68 39.32 38.04 44.05 48.01 C 36.02 47.99 27.98 47.99 19.95 48.01 C 24.68 38.04 24.72 26.66 28.49 16.38 Z" />
</g>
<g id="#000000ff">
<path fill="#000000" opacity="1.00" d=" M 9.20 8.06 C 10.48 7.68 12.09 8.49 11.93 9.97 C 12.11 22.70 11.93 35.43 12.01 48.16 C 14.27 48.35 16.18 47.15 16.91 44.99 C 21.07 35.10 21.07 24.01 25.11 14.08 C 26.27 11.18 28.54 8.04 31.98 8.02 C 35.45 8.01 37.72 11.18 38.89 14.09 C 42.92 24.01 42.93 35.09 47.08 44.97 C 47.75 47.29 50.17 47.88 51.91 49.16 C 52.32 50.49 51.49 52.04 49.97 51.93 C 37.63 52.10 25.28 51.95 12.93 52.00 C 10.58 52.33 8.00 50.59 8.05 48.08 C 7.92 36.03 8.05 23.97 7.99 11.92 C 8.07 10.55 7.72 8.82 9.20 8.06 M 28.49 16.38 C 24.72 26.66 24.68 38.04 19.95 48.01 C 27.98 47.99 36.02 47.99 44.05 48.01 C 39.32 38.04 39.27 26.68 35.52 16.40 C 34.74 14.68 33.98 12.44 31.94 11.92 C 30.01 12.56 29.24 14.68 28.49 16.38 Z" />
</g>
</svg>
