<?xml version="1.0" encoding="UTF-8" ?>
<!DOCTYPE svg PUBLIC "-//W3C//DTD SVG 1.1//EN" "http://www.w3.org/Graphics/SVG/1.1/DTD/svg11.dtd">
<svg width="64pt" height="64pt" viewBox="0 0 64 64" version="1.1" xmlns="http://www.w3.org/2000/svg">
<g id="#ffffffff">
<path fill="#ffffff" opacity="1.00" d=" M 0.00 0.00 L 64.00 0.00 L 64.00 64.00 L 0.00 64.00 L 0.00 0.00 M 8.22 28.85 C 6.31 40.93 15.21 53.30 27.20 55.50 C 37.59 57.81 48.93 52.14 53.50 42.58 C 57.12 35.54 56.61 26.86 52.81 20.00 C 51.21 19.99 49.61 19.99 48.01 20.00 C 48.81 21.32 49.60 22.64 50.38 23.98 C 46.25 24.02 42.13 24.00 38.00 24.00 C 38.00 25.33 38.00 26.67 38.00 28.00 C 42.56 28.01 47.12 27.98 51.68 28.03 C 52.00 30.67 52.00 33.33 51.70 35.97 C 38.57 36.02 25.43 36.02 12.29 35.97 C 11.99 33.33 11.99 30.67 12.29 28.03 C 14.20 28.01 16.10 28.00 18.00 27.99 C 18.00 26.67 18.00 25.34 18.00 24.01 C 16.54 24.00 15.08 23.98 13.62 23.97 C 16.87 16.86 24.19 12.05 32.00 11.92 C 32.00 10.58 31.99 9.25 31.98 7.91 C 20.33 7.91 9.51 17.19 8.22 28.85 M 40.00 8.00 C 40.00 9.33 40.00 10.67 40.00 12.00 C 38.67 12.00 37.33 12.00 36.00 12.00 C 36.00 13.33 36.00 14.67 36.00 16.00 C 37.33 16.00 38.67 16.00 40.00 16.00 C 40.00 17.33 40.00 18.67 40.00 20.00 C 41.33 20.00 42.67 20.00 44.00 20.00 C 44.00 18.67 44.00 17.33 44.00 16.00 C 45.33 16.00 46.67 16.00 48.00 16.00 C 48.00 14.67 48.00 13.33 48.00 12.00 C 46.67 12.00 45.33 12.00 44.00 12.00 C 44.00 10.67 44.00 9.33 44.00 8.00 C 42.67 8.00 41.33 8.00 40.00 8.00 M 26.00 20.00 C 26.00 21.33 26.00 22.67 26.00 24.00 C 24.67 24.00 23.33 24.00 22.00 24.00 C 22.00 25.33 22.00 26.67 22.00 28.00 C 23.33 28.00 24.67 28.00 26.00 28.00 C 26.00 29.33 26.00 30.67 26.00 32.00 C 27.33 32.00 28.67 32.00 30.00 32.00 C 30.00 30.67 30.00 29.33 30.00 28.00 C 31.33 28.00 32.67 28.00 34.00 28.00 C 34.00 26.67 34.00 25.33 34.00 24.00 C 32.67 24.00 31.33 24.00 30.00 24.00 C 30.00 22.67 30.00 21.33 30.00 20.00 C 28.67 20.00 27.33 20.00 26.00 20.00 Z" />
<path fill="#ffffff" opacity="1.00" d=" M 13.61 40.04 C 15.07 40.01 16.54 40.00 18.00 39.99 C 18.00 41.38 18.00 42.77 17.99 44.17 C 15.42 44.48 14.74 41.73 13.61 40.04 Z" />
<path fill="#ffffff" opacity="1.00" d=" M 22.00 40.00 C 23.33 40.00 24.67 40.00 26.00 40.00 C 26.00 41.33 26.00 42.67 26.00 44.00 C 24.67 44.00 23.33 44.00 22.00 44.00 C 22.00 42.67 22.00 41.33 22.00 40.00 Z" />
<path fill="#ffffff" opacity="1.00" d=" M 30.00 40.00 C 31.33 40.00 32.67 40.00 34.00 40.00 C 34.00 41.33 34.00 42.67 34.00 44.00 C 32.67 44.00 31.33 44.00 30.00 44.00 C 30.00 42.67 30.00 41.33 30.00 40.00 Z" />
<path fill="#ffffff" opacity="1.00" d=" M 38.00 40.00 C 39.33 40.00 40.67 40.00 42.00 40.00 C 42.00 41.33 42.00 42.67 42.00 44.00 C 40.67 44.00 39.33 44.00 38.00 44.00 C 38.00 42.67 38.00 41.33 38.00 40.00 Z" />
<path fill="#ffffff" opacity="1.00" d=" M 46.00 39.99 C 47.46 40.00 48.93 40.02 50.39 40.04 C 49.26 41.73 48.58 44.48 46.01 44.17 C 46.00 42.77 46.00 41.38 46.00 39.99 Z" />
<path fill="#ffffff" opacity="1.00" d=" M 21.70 48.03 C 23.14 48.01 24.57 47.99 26.01 47.99 C 26.00 48.78 25.97 50.36 25.96 51.15 C 24.40 50.32 22.15 50.07 21.70 48.03 Z" />
<path fill="#ffffff" opacity="1.00" d=" M 29.99 48.00 C 31.33 48.00 32.67 48.00 34.01 48.00 C 34.00 49.32 33.99 50.64 33.97 51.97 C 32.66 51.97 31.34 51.97 30.03 51.96 C 30.01 50.64 30.00 49.32 29.99 48.00 Z" />
<path fill="#ffffff" opacity="1.00" d=" M 37.99 47.99 C 39.42 47.99 40.86 48.01 42.30 48.03 C 41.86 50.08 39.59 50.32 38.04 51.15 C 38.03 50.36 38.00 48.78 37.99 47.99 Z" />
</g>
<g id="#000000ff">
<path fill="#000000" opacity="1.00" d=" M 8.22 28.85 C 9.51 17.19 20.33 7.91 31.98 7.91 C 31.99 9.25 32.00 10.58 32.00 11.92 C 24.19 12.05 16.87 16.86 13.62 23.97 C 15.08 23.98 16.54 24.00 18.00 24.01 C 18.00 25.34 18.00 26.67 18.00 27.99 C 16.10 28.00 14.20 28.01 12.29 28.03 C 11.99 30.67 11.99 33.33 12.29 35.97 C 25.43 36.02 38.57 36.02 51.70 35.97 C 52.00 33.33 52.00 30.67 51.68 28.03 C 47.12 27.98 42.56 28.01 38.00 28.00 C 38.00 26.67 38.00 25.33 38.00 24.00 C 42.13 24.00 46.25 24.02 50.38 23.98 C 49.60 22.64 48.81 21.32 48.01 20.00 C 49.61 19.99 51.21 19.99 52.81 20.00 C 56.61 26.86 57.12 35.54 53.50 42.58 C 48.93 52.14 37.59 57.81 27.20 55.50 C 15.21 53.30 6.31 40.93 8.22 28.85 M 13.61 40.04 C 14.74 41.73 15.42 44.48 17.99 44.17 C 18.00 42.77 18.00 41.38 18.00 39.99 C 16.54 40.00 15.07 40.01 13.61 40.04 M 22.00 40.00 C 22.00 41.33 22.00 42.67 22.00 44.00 C 23.33 44.00 24.67 44.00 26.00 44.00 C 26.00 42.67 26.00 41.33 26.00 40.00 C 24.67 40.00 23.33 40.00 22.00 40.00 M 30.00 40.00 C 30.00 41.33 30.00 42.67 30.00 44.00 C 31.33 44.00 32.67 44.00 34.00 44.00 C 34.00 42.67 34.00 41.33 34.00 40.00 C 32.67 40.00 31.33 40.00 30.00 40.00 M 38.00 40.00 C 38.00 41.33 38.00 42.67 38.00 44.00 C 39.33 44.00 40.67 44.00 42.00 44.00 C 42.00 42.67 42.00 41.33 42.00 40.00 C 40.67 40.00 39.33 40.00 38.00 40.00 M 46.00 39.99 C 46.00 41.38 46.00 42.77 46.01 44.17 C 48.58 44.48 49.26 41.73 50.39 40.04 C 48.93 40.02 47.46 40.00 46.00 39.99 M 21.70 48.03 C 22.15 50.07 24.40 50.32 25.96 51.15 C 25.97 50.36 26.00 48.78 26.01 47.99 C 24.57 47.99 23.14 48.01 21.70 48.03 M 29.99 48.00 C 30.00 49.32 30.01 50.64 30.03 51.96 C 31.34 51.97 32.66 51.97 33.97 51.97 C 33.99 50.64 34.00 49.32 34.01 48.00 C 32.67 48.00 31.33 48.00 29.99 48.00 M 37.99 47.99 C 38.00 48.78 38.03 50.36 38.04 51.15 C 39.59 50.32 41.86 50.08 42.30 48.03 C 40.86 48.01 39.42 47.99 37.99 47.99 Z" />
<path fill="#000000" opacity="1.00" d=" M 40.00 8.00 C 41.33 8.00 42.67 8.00 44.00 8.00 C 44.00 9.33 44.00 10.67 44.00 12.00 C 45.33 12.00 46.67 12.00 48.00 12.00 C 48.00 13.33 48.00 14.67 48.00 16.00 C 46.67 16.00 45.33 16.00 44.00 16.00 C 44.00 17.33 44.00 18.67 44.00 20.00 C 42.67 20.00 41.33 20.00 40.00 20.00 C 40.00 18.67 40.00 17.33 40.00 16.00 C 38.67 16.00 37.33 16.00 36.00 16.00 C 36.00 14.67 36.00 13.33 36.00 12.00 C 37.33 12.00 38.67 12.00 40.00 12.00 C 40.00 10.67 40.00 9.33 40.00 8.00 Z" />
<path fill="#000000" opacity="1.00" d=" M 26.00 20.00 C 27.33 20.00 28.67 20.00 30.00 20.00 C 30.00 21.33 30.00 22.67 30.00 24.00 C 31.33 24.00 32.67 24.00 34.00 24.00 C 34.00 25.33 34.00 26.67 34.00 28.00 C 32.67 28.00 31.33 28.00 30.00 28.00 C 30.00 29.33 30.00 30.67 30.00 32.00 C 28.67 32.00 27.33 32.00 26.00 32.00 C 26.00 30.67 26.00 29.33 26.00 28.00 C 24.67 28.00 23.33 28.00 22.00 28.00 C 22.00 26.67 22.00 25.33 22.00 24.00 C 23.33 24.00 24.67 24.00 26.00 24.00 C 26.00 22.67 26.00 21.33 26.00 20.00 Z" />
</g>
</svg>
