<?xml version="1.0" encoding="UTF-8" ?>
<!DOCTYPE svg PUBLIC "-//W3C//DTD SVG 1.1//EN" "http://www.w3.org/Graphics/SVG/1.1/DTD/svg11.dtd">
<svg width="60pt" height="60pt" viewBox="0 0 60 60" version="1.1" xmlns="http://www.w3.org/2000/svg">
<g id="#ffffffff">
<path fill="#ffffff" opacity="1.00" d=" M 0.00 0.00 L 60.00 0.00 L 60.00 60.00 L 0.00 60.00 L 0.00 0.00 M 29.18 2.31 C 24.55 5.55 20.39 9.43 15.89 12.84 C 14.33 14.24 11.93 15.47 12.05 17.89 C 11.96 29.95 11.96 42.02 12.05 54.07 C 11.92 56.64 14.61 58.33 16.96 58.00 C 26.00 57.96 35.06 58.09 44.10 57.94 C 46.13 57.99 47.99 56.12 47.94 54.09 C 48.11 43.07 47.92 32.05 48.03 21.03 C 47.93 18.88 48.44 16.17 46.37 14.74 C 41.84 10.88 37.11 7.24 32.52 3.44 C 31.54 2.90 30.35 1.30 29.18 2.31 Z" />
<path fill="#ffffff" opacity="1.00" d=" M 23.84 26.93 C 24.56 26.93 25.99 26.94 26.71 26.94 C 28.71 29.67 30.73 32.38 32.75 35.10 C 32.75 32.37 32.78 29.66 32.76 26.94 C 33.61 26.94 35.31 26.93 36.16 26.93 C 36.16 31.65 36.16 36.36 36.16 41.07 C 35.45 41.07 34.03 41.06 33.33 41.06 C 31.32 38.30 29.29 35.56 27.25 32.83 C 27.25 35.57 27.23 38.32 27.25 41.06 C 26.39 41.06 24.69 41.07 23.84 41.07 C 23.84 36.35 23.84 31.64 23.84 26.93 Z" />
</g>
<g id="#000000ff">
<path fill="#000000" opacity="1.00" d=" M 29.18 2.31 C 30.35 1.30 31.54 2.90 32.52 3.44 C 37.11 7.24 41.84 10.88 46.37 14.74 C 48.44 16.17 47.93 18.88 48.03 21.03 C 47.92 32.05 48.11 43.07 47.94 54.09 C 47.99 56.12 46.13 57.99 44.10 57.94 C 35.06 58.09 26.00 57.96 16.96 58.00 C 14.61 58.33 11.92 56.64 12.05 54.07 C 11.96 42.02 11.96 29.95 12.05 17.89 C 11.93 15.47 14.33 14.24 15.89 12.84 C 20.39 9.43 24.55 5.55 29.18 2.31 M 23.84 26.93 C 23.84 31.64 23.84 36.35 23.84 41.07 C 24.69 41.07 26.39 41.06 27.25 41.06 C 27.23 38.32 27.25 35.57 27.25 32.83 C 29.29 35.56 31.32 38.30 33.33 41.06 C 34.03 41.06 35.45 41.07 36.16 41.07 C 36.16 36.36 36.16 31.65 36.16 26.93 C 35.31 26.93 33.61 26.94 32.76 26.94 C 32.78 29.66 32.75 32.37 32.75 35.10 C 30.73 32.38 28.71 29.67 26.71 26.94 C 25.99 26.94 24.56 26.93 23.84 26.93 Z" />
</g>
</svg>
