<?xml version="1.0" encoding="UTF-8" ?>
<!DOCTYPE svg PUBLIC "-//W3C//DTD SVG 1.1//EN" "http://www.w3.org/Graphics/SVG/1.1/DTD/svg11.dtd">
<svg width="60pt" height="60pt" viewBox="0 0 60 60" version="1.1" xmlns="http://www.w3.org/2000/svg">
<g id="#ffffffff">
<path fill="#ffffff" opacity="1.00" d=" M 0.00 0.00 L 60.00 0.00 L 60.00 60.00 L 0.00 60.00 L 0.00 0.00 M 28.24 3.26 C 26.78 7.01 24.57 10.72 24.12 14.72 C 25.49 17.41 28.21 14.86 30.00 14.08 C 31.78 15.16 35.50 17.56 35.97 13.98 C 34.82 10.28 33.30 6.68 31.70 3.14 C 31.21 1.54 28.63 1.62 28.24 3.26 M 6.04 27.81 C 4.67 28.11 1.89 27.84 2.07 29.96 C 1.81 32.13 4.63 31.90 6.03 32.19 C 7.07 43.44 16.57 52.92 27.81 53.97 C 28.10 55.49 27.86 57.91 29.99 58.07 C 32.12 57.91 31.91 55.49 32.19 53.97 C 43.43 52.91 52.92 43.43 53.97 32.19 C 55.46 31.92 57.92 32.13 58.04 30.02 C 57.97 27.86 55.46 28.08 53.95 27.81 C 52.99 18.59 46.56 10.35 37.81 7.27 C 38.75 9.79 39.42 12.70 41.98 14.09 C 46.49 17.25 48.96 22.43 49.98 27.71 C 48.59 28.09 45.86 27.91 46.05 30.04 C 45.94 32.15 48.69 31.88 50.05 32.31 C 49.07 36.63 47.39 40.95 44.12 44.07 C 41.00 47.37 36.65 49.06 32.30 50.05 C 31.92 48.67 32.12 45.80 29.97 46.04 C 27.85 45.85 28.09 48.68 27.71 50.05 C 18.70 48.69 11.25 41.36 9.95 32.31 C 11.41 31.90 13.95 32.13 14.04 30.00 C 13.96 27.89 11.46 28.10 10.01 27.70 C 11.01 22.39 13.56 17.21 18.08 14.04 C 20.61 12.65 21.24 9.74 22.20 7.27 C 13.46 10.38 6.97 18.56 6.04 27.81 Z" />
</g>
<g id="#000000ff">
<path fill="#000000" opacity="1.00" d=" M 28.24 3.26 C 28.63 1.62 31.21 1.54 31.70 3.14 C 33.30 6.68 34.82 10.28 35.97 13.98 C 35.50 17.56 31.78 15.16 30.00 14.08 C 28.21 14.86 25.49 17.41 24.12 14.72 C 24.57 10.72 26.78 7.01 28.24 3.26 Z" />
<path fill="#000000" opacity="1.00" d=" M 6.04 27.81 C 6.97 18.56 13.46 10.38 22.20 7.27 C 21.24 9.74 20.61 12.65 18.08 14.04 C 13.56 17.21 11.01 22.39 10.01 27.70 C 11.46 28.10 13.96 27.89 14.04 30.00 C 13.95 32.13 11.41 31.90 9.95 32.31 C 11.25 41.36 18.70 48.69 27.71 50.05 C 28.09 48.68 27.85 45.85 29.97 46.04 C 32.12 45.80 31.92 48.67 32.30 50.05 C 36.65 49.06 41.00 47.37 44.12 44.07 C 47.39 40.95 49.07 36.63 50.05 32.31 C 48.69 31.88 45.94 32.15 46.05 30.04 C 45.86 27.91 48.59 28.09 49.98 27.71 C 48.96 22.43 46.49 17.25 41.98 14.09 C 39.42 12.70 38.75 9.79 37.81 7.27 C 46.56 10.35 52.99 18.59 53.95 27.81 C 55.46 28.08 57.97 27.86 58.04 30.02 C 57.92 32.13 55.46 31.92 53.97 32.19 C 52.92 43.43 43.43 52.91 32.19 53.97 C 31.91 55.49 32.12 57.91 29.99 58.07 C 27.86 57.91 28.10 55.49 27.81 53.97 C 16.57 52.92 7.07 43.44 6.03 32.19 C 4.63 31.90 1.81 32.13 2.07 29.96 C 1.89 27.84 4.67 28.11 6.04 27.81 Z" />
</g>
</svg>
