<?xml version="1.0" encoding="UTF-8" ?>
<!DOCTYPE svg PUBLIC "-//W3C//DTD SVG 1.1//EN" "http://www.w3.org/Graphics/SVG/1.1/DTD/svg11.dtd">
<svg width="60pt" height="60pt" viewBox="0 0 60 60" version="1.1" xmlns="http://www.w3.org/2000/svg">
<g id="#ffffffff">
<path fill="#ffffff" opacity="1.00" d=" M 0.00 0.00 L 60.00 0.00 L 60.00 60.00 L 0.00 60.00 L 0.00 0.00 M 22.00 4.00 C 21.79 9.91 22.75 16.33 19.77 21.72 C 18.62 24.50 15.13 24.26 13.12 26.06 C 10.23 28.14 8.78 32.76 11.27 35.66 C 13.09 37.86 16.15 37.62 18.66 38.33 C 20.97 39.89 22.73 42.31 25.47 43.20 C 30.40 45.04 36.22 43.59 39.69 39.64 C 41.82 37.01 45.82 38.49 48.18 36.19 C 51.15 33.70 50.16 28.84 47.43 26.55 C 45.43 24.28 41.49 24.70 40.21 21.70 C 37.23 16.31 38.21 9.90 38.00 4.00 C 32.67 4.00 27.33 4.00 22.00 4.00 M 16.00 52.00 C 17.00 52.00 19.00 52.00 20.00 52.00 C 20.00 54.00 20.00 56.00 20.00 58.00 C 21.33 58.00 22.67 58.00 24.00 58.00 C 24.00 56.00 24.00 54.00 24.00 52.00 C 25.34 52.00 26.68 52.00 28.03 51.99 C 26.03 49.99 24.02 47.99 22.02 45.98 C 20.01 47.99 18.00 49.99 16.00 52.00 M 32.00 52.00 C 33.00 52.00 35.00 52.00 36.00 52.00 C 36.00 54.00 36.00 56.00 36.00 58.00 C 37.33 58.00 38.67 58.00 40.00 58.00 C 40.00 56.00 40.00 54.00 40.00 52.00 C 41.34 52.00 42.68 52.00 44.03 51.99 C 42.03 49.99 40.02 47.99 38.02 45.98 C 36.01 47.99 34.00 49.99 32.00 52.00 Z" />
</g>
<g id="#000000ff">
<path fill="#000000" opacity="1.00" d=" M 22.00 4.00 C 27.33 4.00 32.67 4.00 38.00 4.00 C 38.21 9.90 37.23 16.31 40.21 21.70 C 41.49 24.70 45.43 24.28 47.43 26.55 C 50.16 28.84 51.15 33.70 48.18 36.19 C 45.82 38.49 41.82 37.01 39.69 39.64 C 36.22 43.59 30.40 45.04 25.47 43.20 C 22.73 42.31 20.97 39.89 18.66 38.33 C 16.15 37.62 13.09 37.86 11.27 35.66 C 8.78 32.76 10.23 28.14 13.12 26.06 C 15.13 24.26 18.62 24.50 19.77 21.72 C 22.75 16.33 21.79 9.91 22.00 4.00 Z" />
<path fill="#000000" opacity="1.00" d=" M 16.00 52.00 C 18.00 49.99 20.01 47.99 22.02 45.98 C 24.02 47.99 26.03 49.99 28.03 51.99 C 26.68 52.00 25.34 52.00 24.00 52.00 C 24.00 54.00 24.00 56.00 24.00 58.00 C 22.67 58.00 21.33 58.00 20.00 58.00 C 20.00 56.00 20.00 54.00 20.00 52.00 C 19.00 52.00 17.00 52.00 16.00 52.00 Z" />
<path fill="#000000" opacity="1.00" d=" M 32.00 52.00 C 34.00 49.99 36.01 47.99 38.02 45.98 C 40.02 47.99 42.03 49.99 44.03 51.99 C 42.68 52.00 41.34 52.00 40.00 52.00 C 40.00 54.00 40.00 56.00 40.00 58.00 C 38.67 58.00 37.33 58.00 36.00 58.00 C 36.00 56.00 36.00 54.00 36.00 52.00 C 35.00 52.00 33.00 52.00 32.00 52.00 Z" />
</g>
</svg>
