<?xml version="1.0" encoding="UTF-8" ?>
<!DOCTYPE svg PUBLIC "-//W3C//DTD SVG 1.1//EN" "http://www.w3.org/Graphics/SVG/1.1/DTD/svg11.dtd">
<svg width="60pt" height="60pt" viewBox="0 0 60 60" version="1.1" xmlns="http://www.w3.org/2000/svg">
<g id="#ffffffff">
<path fill="#ffffff" opacity="1.00" d=" M 0.00 0.00 L 60.00 0.00 L 60.00 60.00 L 0.00 60.00 L 0.00 0.00 M 1.02 3.07 C 0.92 4.35 2.43 5.00 3.09 5.94 C 20.63 23.38 38.05 40.95 55.60 58.38 C 56.80 60.06 59.04 57.52 58.94 56.25 C 55.10 52.03 50.91 48.12 46.87 44.08 C 49.06 43.90 51.91 44.45 53.29 42.25 C 55.15 39.87 53.13 35.91 50.11 36.05 C 46.37 35.89 42.62 36.05 38.87 36.01 C 34.85 32.02 30.86 28.01 26.86 24.01 C 34.27 23.97 41.68 24.03 49.09 24.00 C 50.86 24.15 52.83 23.46 53.59 21.74 C 54.93 19.32 52.88 15.94 50.11 16.05 C 39.70 15.92 29.28 16.03 18.87 16.01 C 14.01 11.22 9.26 6.33 4.38 1.58 C 3.14 -0.02 1.82 2.18 1.02 3.07 M 6.72 22.29 C 8.85 25.02 12.73 23.69 15.67 24.00 C 13.11 21.42 10.54 18.85 7.96 16.29 C 6.40 17.82 5.16 20.31 6.72 22.29 M 9.01 43.85 C 17.88 44.22 26.79 43.89 35.67 44.00 C 33.03 41.34 30.36 38.70 27.74 36.02 C 21.48 36.09 15.20 35.79 8.95 36.15 C 5.11 37.02 5.11 43.07 9.01 43.85 Z" />
</g>
<g id="#000000ff">
<path fill="#000000" opacity="1.00" d=" M 1.02 3.07 C 1.82 2.18 3.14 -0.02 4.38 1.58 C 9.26 6.33 14.01 11.22 18.87 16.01 C 29.28 16.03 39.70 15.92 50.11 16.05 C 52.88 15.94 54.93 19.32 53.59 21.74 C 52.83 23.46 50.86 24.15 49.09 24.00 C 41.68 24.03 34.27 23.97 26.86 24.01 C 30.86 28.01 34.85 32.02 38.87 36.01 C 42.62 36.05 46.37 35.89 50.11 36.05 C 53.13 35.91 55.15 39.87 53.29 42.25 C 51.91 44.45 49.06 43.90 46.87 44.08 C 50.91 48.12 55.10 52.03 58.94 56.25 C 59.04 57.52 56.80 60.06 55.60 58.38 C 38.05 40.95 20.63 23.38 3.09 5.94 C 2.43 5.00 0.92 4.35 1.02 3.07 Z" />
<path fill="#000000" opacity="1.00" d=" M 6.72 22.29 C 5.16 20.31 6.40 17.82 7.96 16.29 C 10.54 18.85 13.11 21.42 15.67 24.00 C 12.73 23.69 8.85 25.02 6.72 22.29 Z" />
<path fill="#000000" opacity="1.00" d=" M 9.01 43.85 C 5.11 43.07 5.11 37.02 8.95 36.15 C 15.20 35.79 21.48 36.09 27.74 36.02 C 30.36 38.70 33.03 41.34 35.67 44.00 C 26.79 43.89 17.88 44.22 9.01 43.85 Z" />
</g>
</svg>
