<?xml version="1.0" encoding="UTF-8" ?>
<!DOCTYPE svg PUBLIC "-//W3C//DTD SVG 1.1//EN" "http://www.w3.org/Graphics/SVG/1.1/DTD/svg11.dtd">
<svg width="64pt" height="64pt" viewBox="0 0 64 64" version="1.1" xmlns="http://www.w3.org/2000/svg">
<g id="#ffffffff">
<path fill="#ffffff" opacity="1.00" d=" M 0.00 0.00 L 64.00 0.00 L 64.00 64.00 L 0.00 64.00 L 0.00 0.00 M 22.13 5.70 C 22.09 7.28 22.02 10.44 21.99 12.02 C 24.67 12.00 27.35 11.97 30.04 11.95 C 29.98 10.74 29.93 9.52 29.88 8.31 C 27.29 7.46 24.72 6.55 22.13 5.70 M 32.13 5.70 C 32.09 7.28 32.02 10.44 31.99 12.02 C 34.67 12.00 37.35 11.97 40.04 11.95 C 39.98 10.74 39.93 9.52 39.88 8.31 C 37.29 7.46 34.72 6.55 32.13 5.70 M 41.20 6.09 C 42.59 9.12 44.61 11.62 47.26 13.61 C 48.16 26.39 48.08 39.20 48.03 52.00 C 37.34 52.01 26.65 52.01 15.96 52.00 C 16.91 37.48 12.97 21.45 20.15 8.06 C 17.43 8.03 14.71 8.00 12.00 7.98 C 12.00 23.99 12.00 39.99 12.00 55.99 C 25.33 56.01 38.67 56.01 52.00 55.99 C 52.00 40.00 52.02 24.00 51.95 8.00 C 48.37 7.32 44.80 6.60 41.20 6.09 M 22.00 18.00 C 22.00 19.33 22.00 20.67 22.00 22.00 C 28.67 22.00 35.33 22.00 42.00 22.00 C 42.00 20.67 42.00 19.33 42.00 18.00 C 35.33 18.00 28.67 18.00 22.00 18.00 M 22.00 26.00 C 22.00 27.33 22.00 28.67 22.00 30.00 C 27.33 29.99 32.67 30.00 38.00 30.00 C 38.00 28.67 38.00 27.33 38.00 26.00 C 32.67 26.00 27.33 26.00 22.00 26.00 M 22.00 34.00 C 22.00 35.33 22.00 36.67 22.00 38.00 C 28.67 38.00 35.33 38.00 42.00 38.00 C 42.00 36.67 42.00 35.33 42.00 34.00 C 35.33 34.00 28.67 34.00 22.00 34.00 M 22.00 42.00 C 22.00 43.33 22.00 44.67 22.00 46.00 C 27.33 45.99 32.67 45.99 38.00 46.00 C 38.00 44.67 38.00 43.33 38.00 42.00 C 32.67 42.00 27.33 42.00 22.00 42.00 Z" />
</g>
<g id="#000000ff">
<path fill="#000000" opacity="1.00" d=" M 22.13 5.70 C 24.72 6.55 27.29 7.46 29.88 8.31 C 29.93 9.52 29.98 10.74 30.04 11.95 C 27.35 11.97 24.67 12.00 21.99 12.02 C 22.02 10.44 22.09 7.28 22.13 5.70 Z" />
<path fill="#000000" opacity="1.00" d=" M 32.13 5.70 C 34.72 6.55 37.29 7.46 39.88 8.31 C 39.93 9.52 39.98 10.74 40.04 11.95 C 37.35 11.97 34.67 12.00 31.99 12.02 C 32.02 10.44 32.09 7.28 32.13 5.70 Z" />
<path fill="#000000" opacity="1.00" d=" M 41.20 6.09 C 44.80 6.60 48.37 7.32 51.95 8.00 C 52.02 24.00 52.00 40.00 52.00 55.99 C 38.67 56.01 25.33 56.01 12.00 55.99 C 12.00 39.99 12.00 23.99 12.00 7.98 C 14.71 8.00 17.43 8.03 20.15 8.06 C 12.97 21.45 16.91 37.48 15.96 52.00 C 26.65 52.01 37.34 52.01 48.03 52.00 C 48.08 39.20 48.16 26.39 47.26 13.61 C 44.61 11.62 42.59 9.12 41.20 6.09 Z" />
<path fill="#000000" opacity="1.00" d=" M 22.00 18.00 C 28.67 18.00 35.33 18.00 42.00 18.00 C 42.00 19.33 42.00 20.67 42.00 22.00 C 35.33 22.00 28.67 22.00 22.00 22.00 C 22.00 20.67 22.00 19.33 22.00 18.00 Z" />
<path fill="#000000" opacity="1.00" d=" M 22.00 26.00 C 27.33 26.00 32.67 26.00 38.00 26.00 C 38.00 27.33 38.00 28.67 38.00 30.00 C 32.67 30.00 27.33 29.99 22.00 30.00 C 22.00 28.67 22.00 27.33 22.00 26.00 Z" />
<path fill="#000000" opacity="1.00" d=" M 22.00 34.00 C 28.67 34.00 35.33 34.00 42.00 34.00 C 42.00 35.33 42.00 36.67 42.00 38.00 C 35.33 38.00 28.67 38.00 22.00 38.00 C 22.00 36.67 22.00 35.33 22.00 34.00 Z" />
<path fill="#000000" opacity="1.00" d=" M 22.00 42.00 C 27.33 42.00 32.67 42.00 38.00 42.00 C 38.00 43.33 38.00 44.67 38.00 46.00 C 32.67 45.99 27.33 45.99 22.00 46.00 C 22.00 44.67 22.00 43.33 22.00 42.00 Z" />
</g>
</svg>
