<?xml version="1.0" encoding="UTF-8" ?>
<!DOCTYPE svg PUBLIC "-//W3C//DTD SVG 1.1//EN" "http://www.w3.org/Graphics/SVG/1.1/DTD/svg11.dtd">
<svg width="64pt" height="64pt" viewBox="0 0 64 64" version="1.1" xmlns="http://www.w3.org/2000/svg">
<g id="#ffffffff">
<path fill="#ffffff" opacity="1.00" d=" M 0.00 0.00 L 64.00 0.00 L 64.00 64.00 L 0.00 64.00 L 0.00 0.00 M 10.12 10.12 C 9.91 24.70 9.91 39.30 10.12 53.88 C 20.32 54.01 30.57 54.30 40.74 53.74 C 45.41 49.81 49.81 45.41 53.74 40.74 C 54.29 30.57 54.01 20.32 53.88 10.12 C 39.30 9.91 24.70 9.91 10.12 10.12 Z" />
<path fill="#ffffff" opacity="1.00" d=" M 14.12 14.12 C 26.03 13.90 37.97 13.90 49.87 14.12 C 50.12 22.04 50.11 29.98 49.88 37.89 C 45.96 38.16 42.03 37.84 38.11 38.11 C 37.84 42.03 38.16 45.96 37.89 49.87 C 29.98 50.11 22.04 50.11 14.12 49.87 C 13.90 37.97 13.90 26.03 14.12 14.12 Z" />
<path fill="#ffffff" opacity="1.00" d=" M 42.09 42.08 C 43.71 41.96 45.35 41.96 46.98 42.03 C 45.46 43.81 43.80 45.47 42.02 46.98 C 41.96 45.35 41.96 43.71 42.09 42.08 Z" />
</g>
<g id="#000000ff">
<path fill="#000000" opacity="1.00" d=" M 10.12 10.12 C 24.70 9.91 39.30 9.91 53.88 10.12 C 54.01 20.32 54.29 30.57 53.74 40.74 C 49.81 45.41 45.41 49.81 40.74 53.74 C 30.57 54.30 20.32 54.01 10.12 53.88 C 9.91 39.30 9.91 24.70 10.12 10.12 M 14.12 14.12 C 13.90 26.03 13.90 37.97 14.12 49.87 C 22.04 50.11 29.98 50.11 37.89 49.87 C 38.16 45.96 37.84 42.03 38.11 38.11 C 42.03 37.84 45.96 38.16 49.88 37.89 C 50.11 29.98 50.12 22.04 49.87 14.12 C 37.97 13.90 26.03 13.90 14.12 14.12 M 42.09 42.08 C 41.96 43.71 41.96 45.35 42.02 46.98 C 43.80 45.47 45.46 43.81 46.98 42.03 C 45.35 41.96 43.71 41.96 42.09 42.08 Z" />
</g>
</svg>
