<?xml version="1.0" encoding="UTF-8" ?>
<!DOCTYPE svg PUBLIC "-//W3C//DTD SVG 1.1//EN" "http://www.w3.org/Graphics/SVG/1.1/DTD/svg11.dtd">
<svg width="64pt" height="64pt" viewBox="0 0 64 64" version="1.1" xmlns="http://www.w3.org/2000/svg">
<g id="#ffffffff">
<path fill="#ffffff" opacity="1.00" d=" M 0.00 0.00 L 64.00 0.00 L 64.00 14.00 C 42.67 14.00 21.33 14.00 0.00 14.00 L 0.00 0.00 Z" />
<path fill="#ffffff" opacity="1.00" d=" M 4.00 18.00 C 22.67 18.00 41.33 18.00 60.00 18.00 C 60.00 27.33 60.00 36.67 60.00 46.00 C 41.33 46.00 22.67 46.00 4.00 46.00 C 4.00 36.67 4.00 27.33 4.00 18.00 M 8.00 24.00 C 8.00 29.33 8.00 34.67 8.00 40.00 C 9.33 40.00 10.66 40.00 11.99 40.00 C 12.00 38.00 12.01 36.00 12.02 34.00 C 12.69 34.91 13.36 35.83 14.02 36.75 C 14.01 37.56 14.00 39.19 13.99 40.00 C 15.33 40.00 16.66 40.00 18.00 40.00 C 18.00 34.67 18.00 29.33 18.00 24.00 C 16.67 24.00 15.34 24.00 14.01 24.00 C 14.00 26.00 13.99 28.00 13.98 30.00 C 13.31 29.09 12.64 28.18 11.99 27.26 C 11.99 26.45 12.00 24.82 12.00 24.00 C 10.67 24.00 9.33 24.00 8.00 24.00 M 22.51 24.68 C 20.20 25.88 19.83 28.66 19.96 31.00 C 20.05 33.70 19.43 37.14 21.98 38.96 C 24.65 41.23 29.19 39.53 29.84 36.14 C 30.12 33.37 30.13 30.56 29.83 27.79 C 29.16 24.70 25.21 22.93 22.51 24.68 M 32.00 24.00 C 32.22 28.32 31.50 32.76 32.43 37.00 C 33.94 40.94 40.16 40.89 41.60 36.92 C 42.48 32.70 41.79 28.29 42.00 24.00 C 40.67 24.00 39.33 24.00 38.00 24.00 C 38.00 27.93 38.01 31.85 37.98 35.78 C 37.49 35.79 36.52 35.81 36.03 35.82 C 35.98 31.88 36.00 27.94 36.00 24.00 C 34.67 24.00 33.33 24.00 32.00 24.00 M 44.00 24.00 C 44.00 29.33 44.00 34.67 44.00 40.00 C 45.33 40.00 46.66 40.00 47.99 40.00 C 48.00 38.00 48.00 36.00 48.02 34.00 C 48.69 34.91 49.36 35.82 50.01 36.74 C 50.01 37.56 50.00 39.18 50.00 40.00 C 51.33 40.00 52.66 40.00 54.00 40.00 C 54.00 34.67 54.00 29.33 54.00 24.00 C 52.67 24.00 51.34 24.00 50.01 24.00 C 50.00 26.00 49.99 28.00 49.98 30.00 C 49.31 29.09 48.64 28.18 47.99 27.26 C 47.99 26.45 48.00 24.82 48.00 24.00 C 46.67 24.00 45.33 24.00 44.00 24.00 Z" />
<path fill="#ffffff" opacity="1.00" d=" M 24.04 28.17 C 24.52 28.18 25.50 28.21 25.98 28.22 C 26.00 30.74 26.00 33.27 25.98 35.79 C 25.49 35.79 24.51 35.80 24.02 35.80 C 24.00 33.26 24.00 30.71 24.04 28.17 Z" />
<path fill="#ffffff" opacity="1.00" d=" M 0.00 50.00 C 21.33 50.00 42.67 50.00 64.00 50.00 L 64.00 64.00 L 0.00 64.00 L 0.00 50.00 Z" />
</g>
<g id="#000000ff">
<path fill="#000000" opacity="1.00" d=" M 0.00 14.00 C 21.33 14.00 42.67 14.00 64.00 14.00 L 64.00 50.00 C 42.67 50.00 21.33 50.00 0.00 50.00 L 0.00 14.00 M 4.00 18.00 C 4.00 27.33 4.00 36.67 4.00 46.00 C 22.67 46.00 41.33 46.00 60.00 46.00 C 60.00 36.67 60.00 27.33 60.00 18.00 C 41.33 18.00 22.67 18.00 4.00 18.00 Z" />
<path fill="#000000" opacity="1.00" d=" M 8.00 24.00 C 9.33 24.00 10.67 24.00 12.00 24.00 C 12.00 24.82 11.99 26.45 11.99 27.26 C 12.64 28.18 13.31 29.09 13.98 30.00 C 13.99 28.00 14.00 26.00 14.01 24.00 C 15.34 24.00 16.67 24.00 18.00 24.00 C 18.00 29.33 18.00 34.67 18.00 40.00 C 16.66 40.00 15.33 40.00 13.99 40.00 C 14.00 39.19 14.01 37.56 14.02 36.75 C 13.36 35.83 12.69 34.91 12.02 34.00 C 12.01 36.00 12.00 38.00 11.99 40.00 C 10.66 40.00 9.33 40.00 8.00 40.00 C 8.00 34.67 8.00 29.33 8.00 24.00 Z" />
<path fill="#000000" opacity="1.00" d=" M 22.51 24.68 C 25.21 22.93 29.16 24.70 29.83 27.79 C 30.13 30.56 30.12 33.37 29.84 36.14 C 29.19 39.53 24.65 41.23 21.98 38.96 C 19.43 37.14 20.05 33.70 19.96 31.00 C 19.83 28.66 20.20 25.88 22.51 24.68 M 24.04 28.17 C 24.00 30.71 24.00 33.26 24.02 35.80 C 24.51 35.80 25.49 35.79 25.98 35.79 C 26.00 33.27 26.00 30.74 25.98 28.22 C 25.50 28.21 24.52 28.18 24.04 28.17 Z" />
<path fill="#000000" opacity="1.00" d=" M 32.00 24.00 C 33.33 24.00 34.67 24.00 36.00 24.00 C 36.00 27.94 35.98 31.88 36.03 35.82 C 36.52 35.81 37.49 35.79 37.98 35.78 C 38.01 31.85 38.00 27.93 38.00 24.00 C 39.33 24.00 40.67 24.00 42.00 24.00 C 41.79 28.29 42.48 32.70 41.60 36.92 C 40.16 40.89 33.94 40.94 32.43 37.00 C 31.50 32.76 32.22 28.32 32.00 24.00 Z" />
<path fill="#000000" opacity="1.00" d=" M 44.00 24.00 C 45.33 24.00 46.67 24.00 48.00 24.00 C 48.00 24.82 47.99 26.45 47.99 27.26 C 48.64 28.18 49.31 29.09 49.98 30.00 C 49.99 28.00 50.00 26.00 50.01 24.00 C 51.34 24.00 52.67 24.00 54.00 24.00 C 54.00 29.33 54.00 34.67 54.00 40.00 C 52.66 40.00 51.33 40.00 50.00 40.00 C 50.00 39.18 50.01 37.56 50.01 36.74 C 49.36 35.82 48.69 34.91 48.02 34.00 C 48.00 36.00 48.00 38.00 47.99 40.00 C 46.66 40.00 45.33 40.00 44.00 40.00 C 44.00 34.67 44.00 29.33 44.00 24.00 Z" />
</g>
</svg>
