<?xml version="1.0" encoding="UTF-8" ?>
<!DOCTYPE svg PUBLIC "-//W3C//DTD SVG 1.1//EN" "http://www.w3.org/Graphics/SVG/1.1/DTD/svg11.dtd">
<svg width="150pt" height="120pt" viewBox="0 0 150 120" version="1.1" xmlns="http://www.w3.org/2000/svg">
<g id="#fffffff">
<path fill="#ffffff" opacity="1.00" d=" M 0.00 0.00 L 150.00 0.00 L 150.00 120.00 L 0.00 120.00 L 0.00 0.00 M 24.71 27.65 C 25.24 31.94 23.74 35.95 21.76 39.67 C 20.07 44.45 18.13 49.78 19.99 54.80 C 21.09 58.28 21.63 61.90 22.78 65.36 C 25.40 67.44 28.28 69.46 28.64 73.10 C 34.96 72.58 39.02 78.85 45.12 79.34 C 47.42 79.87 49.61 78.50 51.89 78.79 C 55.42 80.43 55.63 85.21 59.07 86.78 C 60.62 86.40 61.96 85.07 63.63 85.29 C 66.37 87.84 67.48 91.56 69.49 94.63 C 70.56 95.61 72.11 95.64 73.44 96.07 C 73.52 94.22 72.56 91.74 74.44 90.50 C 76.86 88.76 79.16 86.61 81.99 85.59 C 85.50 85.85 88.96 86.59 92.48 86.73 C 92.41 85.99 92.29 84.49 92.23 83.75 C 95.51 83.28 98.83 83.19 102.12 83.59 C 103.62 83.81 105.43 83.12 106.61 84.38 C 109.19 85.95 108.54 89.53 110.53 91.54 C 111.59 92.79 112.73 93.99 114.06 94.96 C 116.03 95.33 115.81 93.35 115.88 92.01 C 115.46 86.89 110.29 83.23 110.50 78.03 C 112.00 75.47 114.25 73.45 116.00 71.05 C 117.24 69.33 119.43 68.09 119.70 65.84 C 120.44 61.98 117.96 58.59 116.94 55.04 C 117.85 56.51 118.75 58.03 120.21 59.05 C 121.03 55.96 121.44 52.68 123.01 49.85 C 123.92 47.98 126.14 47.53 127.81 46.61 C 127.27 45.14 126.31 43.71 126.53 42.06 C 127.63 39.59 129.97 37.99 131.88 36.17 C 130.49 34.38 129.39 32.41 128.48 30.34 C 127.52 30.43 126.56 30.52 125.59 30.60 C 125.11 32.73 125.16 35.11 123.95 36.99 C 121.94 38.62 119.22 38.76 116.89 39.69 C 115.37 40.77 115.36 42.81 114.89 44.43 C 113.56 44.71 112.23 44.96 110.91 45.20 C 109.84 48.93 106.13 51.50 102.34 51.72 C 103.08 49.62 104.10 47.44 103.22 45.19 C 102.61 45.30 101.38 45.53 100.76 45.65 C 101.13 44.53 101.89 43.33 101.35 42.13 C 100.32 41.43 99.24 40.81 98.12 40.28 C 97.13 42.12 95.25 43.70 95.44 45.97 C 95.50 48.00 95.72 50.03 95.70 52.07 C 90.22 50.99 94.09 44.56 93.73 40.90 C 95.55 40.31 98.71 41.05 99.01 38.47 C 96.25 38.48 93.43 38.94 90.87 37.63 C 88.90 38.10 86.96 38.74 84.91 38.79 C 85.86 37.59 86.89 36.47 87.92 35.35 C 83.58 34.80 79.43 33.06 75.02 33.10 C 66.25 32.85 57.48 32.15 48.80 30.90 C 42.45 30.05 36.41 27.75 30.14 26.61 C 28.38 27.24 26.59 27.68 24.71 27.65 Z" />
</g>
<g id="#000000ff">
<path fill="#968176" opacity="1.00" d=" M 24.71 27.65 C 26.59 27.68 28.38 27.24 30.14 26.61 C 36.41 27.75 42.45 30.05 48.80 30.90 C 57.48 32.15 66.25 32.85 75.02 33.10 C 79.43 33.06 83.58 34.80 87.92 35.35 C 86.89 36.47 85.86 37.59 84.91 38.79 C 86.96 38.74 88.90 38.10 90.87 37.63 C 93.43 38.94 96.25 38.48 99.01 38.47 C 98.71 41.05 95.55 40.31 93.73 40.90 C 94.09 44.56 90.22 50.99 95.70 52.07 C 95.72 50.03 95.50 48.00 95.44 45.97 C 95.25 43.70 97.13 42.12 98.12 40.28 C 99.24 40.81 100.32 41.43 101.35 42.13 C 101.89 43.33 101.13 44.53 100.76 45.65 C 101.38 45.53 102.61 45.30 103.22 45.19 C 104.10 47.44 103.08 49.62 102.34 51.72 C 106.13 51.50 109.84 48.93 110.91 45.20 C 112.23 44.96 113.56 44.71 114.89 44.43 C 115.36 42.81 115.37 40.77 116.89 39.69 C 119.22 38.76 121.94 38.62 123.95 36.99 C 125.16 35.11 125.11 32.73 125.59 30.60 C 126.56 30.52 127.52 30.43 128.48 30.34 C 129.39 32.41 130.49 34.38 131.88 36.17 C 129.97 37.99 127.63 39.59 126.53 42.06 C 126.31 43.71 127.27 45.14 127.81 46.61 C 126.14 47.53 123.92 47.98 123.01 49.85 C 121.44 52.68 121.03 55.96 120.21 59.05 C 118.75 58.03 117.85 56.51 116.94 55.04 C 117.96 58.59 120.44 61.98 119.70 65.84 C 119.43 68.09 117.24 69.33 116.00 71.05 C 114.25 73.45 112.00 75.47 110.50 78.03 C 110.29 83.23 115.46 86.89 115.88 92.01 C 115.81 93.35 116.03 95.33 114.06 94.96 C 112.73 93.99 111.59 92.79 110.53 91.54 C 108.54 89.53 109.19 85.95 106.61 84.38 C 105.43 83.12 103.62 83.81 102.12 83.59 C 98.83 83.19 95.51 83.28 92.23 83.75 C 92.29 84.49 92.41 85.99 92.48 86.73 C 88.96 86.59 85.50 85.85 81.99 85.59 C 79.16 86.61 76.86 88.76 74.44 90.50 C 72.56 91.74 73.52 94.22 73.44 96.07 C 72.11 95.64 70.56 95.61 69.49 94.63 C 67.48 91.56 66.37 87.84 63.63 85.29 C 61.96 85.07 60.62 86.40 59.07 86.78 C 55.63 85.21 55.42 80.43 51.89 78.79 C 49.61 78.50 47.42 79.87 45.12 79.34 C 39.02 78.85 34.96 72.58 28.64 73.10 C 28.28 69.46 25.40 67.44 22.78 65.36 C 21.63 61.90 21.09 58.28 19.99 54.80 C 18.13 49.78 20.07 44.45 21.76 39.67 C 23.74 35.95 25.24 31.94 24.71 27.65 Z" />
</g>
</svg>
