<?xml version="1.0" encoding="UTF-8" ?>
<!DOCTYPE svg PUBLIC "-//W3C//DTD SVG 1.1//EN" "http://www.w3.org/Graphics/SVG/1.1/DTD/svg11.dtd">
<svg width="60pt" height="60pt" viewBox="0 0 60 60" version="1.1" xmlns="http://www.w3.org/2000/svg">
<g id="#ffffffff">
<path fill="#ffffff" opacity="1.00" d=" M 0.00 0.00 L 60.00 0.00 L 60.00 60.00 L 0.00 60.00 L 0.00 0.00 M 15.12 8.17 C 14.90 8.42 14.45 8.93 14.23 9.19 C 12.46 16.26 12.02 23.64 12.05 30.91 C 8.68 36.67 7.63 43.50 8.06 50.09 C 8.11 52.35 10.19 54.27 12.43 54.23 C 16.91 54.40 21.39 54.14 25.87 54.33 C 20.75 52.04 16.90 46.65 18.15 40.87 C 18.15 36.94 21.54 34.66 23.89 32.03 C 30.02 31.96 36.15 32.03 42.27 31.99 C 43.59 36.81 44.53 41.90 43.71 46.89 C 43.33 49.40 41.18 51.03 38.96 51.90 C 43.06 50.98 49.29 53.62 51.64 48.90 C 52.76 42.18 51.90 34.95 48.15 29.14 C 47.56 22.49 47.54 15.69 45.78 9.21 C 45.56 8.95 45.13 8.43 44.91 8.17 C 35.00 7.88 25.04 7.89 15.12 8.17 Z" />
<path fill="#ffffff" opacity="1.00" d=" M 17.53 12.08 C 25.81 11.90 34.09 12.05 42.37 11.99 C 43.31 17.28 43.68 22.64 43.86 28.00 C 34.62 28.00 25.38 28.00 16.13 28.00 C 16.27 22.66 16.76 17.35 17.53 12.08 M 27.88 17.87 C 26.48 18.08 23.98 17.86 24.03 19.95 C 23.87 22.09 26.44 21.94 27.88 22.13 C 28.05 23.50 27.92 26.20 30.02 25.93 C 32.09 26.15 31.93 23.49 32.13 22.13 C 33.60 21.94 35.99 22.08 36.04 19.98 C 35.96 17.89 33.59 18.06 32.12 17.87 C 31.96 16.48 32.10 13.80 29.99 14.05 C 27.90 13.79 28.04 16.49 27.88 17.87 Z" />
</g>
<g id="#000000ff">
<path fill="#000000" opacity="1.00" d=" M 15.12 8.17 C 25.04 7.89 35.00 7.88 44.91 8.17 C 45.13 8.43 45.56 8.95 45.78 9.21 C 47.54 15.69 47.56 22.49 48.15 29.14 C 51.90 34.95 52.76 42.18 51.64 48.90 C 49.29 53.62 43.06 50.98 38.96 51.90 C 41.18 51.03 43.33 49.40 43.71 46.89 C 44.53 41.90 43.59 36.81 42.27 31.99 C 36.15 32.03 30.02 31.96 23.89 32.03 C 21.54 34.66 18.15 36.94 18.15 40.87 C 16.90 46.65 20.75 52.04 25.87 54.33 C 21.39 54.14 16.91 54.40 12.43 54.23 C 10.19 54.27 8.11 52.35 8.06 50.09 C 7.63 43.50 8.68 36.67 12.05 30.91 C 12.02 23.64 12.46 16.26 14.23 9.19 C 14.45 8.93 14.90 8.42 15.12 8.17 M 17.53 12.08 C 16.76 17.35 16.27 22.66 16.13 28.00 C 25.38 28.00 34.62 28.00 43.86 28.00 C 43.68 22.64 43.31 17.28 42.37 11.99 C 34.09 12.05 25.81 11.90 17.53 12.08 Z" />
<path fill="#000000" opacity="1.00" d=" M 27.88 17.87 C 28.04 16.49 27.90 13.79 29.99 14.05 C 32.10 13.80 31.96 16.48 32.12 17.87 C 33.59 18.06 35.96 17.89 36.04 19.98 C 35.99 22.08 33.60 21.94 32.13 22.13 C 31.93 23.49 32.09 26.15 30.02 25.93 C 27.92 26.20 28.05 23.50 27.88 22.13 C 26.44 21.94 23.87 22.09 24.03 19.95 C 23.98 17.86 26.48 18.08 27.88 17.87 Z" />
</g>
</svg>
