<?xml version="1.0" encoding="UTF-8" ?>
<!DOCTYPE svg PUBLIC "-//W3C//DTD SVG 1.1//EN" "http://www.w3.org/Graphics/SVG/1.1/DTD/svg11.dtd">
<svg width="60pt" height="60pt" viewBox="0 0 60 60" version="1.1" xmlns="http://www.w3.org/2000/svg">
<g id="#ffffffff">
<path fill="#ffffff" opacity="1.00" d=" M 0.00 0.00 L 60.00 0.00 L 60.00 60.00 L 0.00 60.00 L 0.00 0.00 M 13.52 12.09 C 12.73 18.61 11.25 25.33 12.58 31.85 C 12.05 36.26 10.66 42.04 14.71 45.24 C 16.89 47.16 17.69 50.16 19.94 52.01 C 24.91 56.94 33.55 57.32 38.98 52.95 C 41.86 51.06 42.84 47.55 45.27 45.26 C 49.17 42.12 48.25 36.38 47.20 32.10 C 47.69 30.79 48.12 29.43 48.00 28.01 C 47.81 22.22 47.30 16.42 46.21 10.73 C 45.97 9.62 45.56 7.83 44.03 8.07 C 34.69 7.95 25.34 7.95 16.01 8.06 C 13.87 7.96 13.90 10.61 13.52 12.09 Z" />
<path fill="#ffffff" opacity="1.00" d=" M 16.13 27.99 C 16.51 22.70 16.27 17.14 17.88 12.07 C 26.08 11.93 34.29 11.95 42.49 12.09 C 43.21 17.37 43.72 22.67 43.87 28.00 C 34.62 28.00 25.37 28.01 16.13 27.99 M 27.88 17.87 C 26.52 18.07 23.82 17.91 24.07 19.98 C 23.81 22.06 26.49 21.95 27.87 22.13 C 28.07 23.48 27.91 26.14 29.95 25.93 C 32.06 26.22 31.94 23.51 32.13 22.13 C 33.63 21.96 36.01 22.05 36.05 19.95 C 35.89 17.91 33.60 18.05 32.12 17.87 C 31.97 16.44 32.09 13.82 29.96 14.02 C 27.87 13.90 28.06 16.47 27.88 17.87 Z" />
<path fill="#ffffff" opacity="1.00" d=" M 23.43 32.04 C 28.60 32.08 33.79 31.76 38.94 32.18 C 43.63 33.00 46.52 40.88 41.37 42.96 C 39.54 47.68 35.48 52.19 30.01 52.00 C 24.55 52.21 20.45 47.69 18.63 42.96 C 15.54 42.03 15.83 38.66 16.14 36.08 C 18.99 35.68 21.95 34.72 23.43 32.04 Z" />
</g>
<g id="#000000ff">
<path fill="#000000" opacity="1.00" d=" M 13.52 12.09 C 13.90 10.61 13.87 7.96 16.01 8.06 C 25.34 7.95 34.69 7.95 44.03 8.07 C 45.56 7.83 45.97 9.62 46.21 10.73 C 47.30 16.42 47.81 22.22 48.00 28.01 C 48.12 29.43 47.69 30.79 47.20 32.10 C 48.25 36.38 49.17 42.12 45.27 45.26 C 42.84 47.55 41.86 51.06 38.98 52.95 C 33.55 57.32 24.91 56.94 19.94 52.01 C 17.69 50.16 16.89 47.16 14.71 45.24 C 10.66 42.04 12.05 36.26 12.58 31.85 C 11.25 25.33 12.73 18.61 13.52 12.09 M 16.13 27.99 C 25.37 28.01 34.62 28.00 43.87 28.00 C 43.72 22.67 43.21 17.37 42.49 12.09 C 34.29 11.95 26.08 11.93 17.88 12.07 C 16.27 17.14 16.51 22.70 16.13 27.99 M 23.43 32.04 C 21.95 34.72 18.99 35.68 16.14 36.08 C 15.83 38.66 15.54 42.03 18.63 42.96 C 20.45 47.69 24.55 52.21 30.01 52.00 C 35.48 52.19 39.54 47.68 41.37 42.96 C 46.52 40.88 43.63 33.00 38.94 32.18 C 33.79 31.76 28.60 32.08 23.43 32.04 Z" />
<path fill="#000000" opacity="1.00" d=" M 27.88 17.87 C 28.06 16.47 27.87 13.90 29.96 14.02 C 32.09 13.82 31.97 16.44 32.12 17.87 C 33.60 18.05 35.89 17.91 36.05 19.95 C 36.01 22.05 33.63 21.96 32.13 22.13 C 31.94 23.51 32.06 26.22 29.95 25.93 C 27.91 26.14 28.07 23.48 27.87 22.13 C 26.49 21.95 23.81 22.06 24.07 19.98 C 23.82 17.91 26.52 18.07 27.88 17.87 Z" />
</g>
</svg>
