<?xml version="1.0" encoding="UTF-8" ?>
<!DOCTYPE svg PUBLIC "-//W3C//DTD SVG 1.1//EN" "http://www.w3.org/Graphics/SVG/1.1/DTD/svg11.dtd">
<svg width="60pt" height="60pt" viewBox="0 0 60 60" version="1.1" xmlns="http://www.w3.org/2000/svg">
<g id="#ffffffff">
<path fill="#ffffff" opacity="1.00" d=" M 0.00 0.00 L 60.00 0.00 L 60.00 60.00 L 0.00 60.00 L 0.00 0.00 M 39.90 7.86 C 38.24 9.33 36.84 12.67 34.15 11.23 C 31.37 10.37 27.92 9.20 25.50 11.54 C 22.59 14.21 24.81 18.49 23.70 21.74 C 21.41 23.24 17.66 22.52 16.48 25.53 C 14.68 28.71 18.46 31.58 17.92 34.72 C 16.69 36.20 14.84 37.07 13.72 38.65 C 12.14 41.92 15.61 45.50 13.82 48.72 C 11.48 51.41 7.52 51.29 4.46 52.67 C 3.01 54.38 5.10 56.67 7.06 55.93 C 14.70 54.80 21.07 49.61 26.08 44.01 C 31.89 37.54 35.14 29.38 39.03 21.73 C 41.22 24.71 39.51 28.31 38.20 31.24 C 34.53 38.82 29.74 45.87 24.02 52.05 C 27.10 51.76 30.40 51.92 33.19 50.37 C 35.15 49.31 35.73 47.02 36.56 45.14 C 39.30 44.02 43.03 44.56 44.78 41.73 C 46.58 39.50 45.34 36.56 45.48 33.99 C 45.73 29.93 52.13 30.18 51.98 25.97 C 52.40 22.24 46.66 20.26 48.56 16.50 C 49.35 14.23 50.71 11.72 49.51 9.32 C 48.04 5.67 42.38 4.80 39.90 7.86 Z" />
</g>
<g id="#000000ff">
<path fill="#000000" opacity="1.00" d=" M 39.90 7.86 C 42.38 4.80 48.04 5.67 49.51 9.32 C 50.71 11.72 49.35 14.23 48.56 16.50 C 46.66 20.26 52.40 22.24 51.98 25.97 C 52.13 30.18 45.73 29.93 45.48 33.99 C 45.34 36.56 46.58 39.50 44.78 41.73 C 43.03 44.56 39.30 44.02 36.56 45.14 C 35.73 47.02 35.15 49.31 33.19 50.37 C 30.40 51.92 27.10 51.76 24.02 52.05 C 29.74 45.87 34.53 38.82 38.20 31.24 C 39.51 28.31 41.22 24.71 39.03 21.73 C 35.14 29.38 31.89 37.54 26.08 44.01 C 21.07 49.61 14.70 54.80 7.06 55.93 C 5.10 56.67 3.01 54.38 4.46 52.67 C 7.52 51.29 11.48 51.41 13.82 48.72 C 15.61 45.50 12.14 41.92 13.72 38.65 C 14.84 37.07 16.69 36.20 17.92 34.72 C 18.46 31.58 14.68 28.71 16.48 25.53 C 17.66 22.52 21.41 23.24 23.70 21.74 C 24.81 18.49 22.59 14.21 25.50 11.54 C 27.92 9.20 31.37 10.37 34.15 11.23 C 36.84 12.67 38.24 9.33 39.90 7.86 Z" />
</g>
</svg>
