<?xml version="1.0" encoding="UTF-8" ?>
<!DOCTYPE svg PUBLIC "-//W3C//DTD SVG 1.1//EN" "http://www.w3.org/Graphics/SVG/1.1/DTD/svg11.dtd">
<svg width="60pt" height="60pt" viewBox="0 0 60 60" version="1.1" xmlns="http://www.w3.org/2000/svg">
<g id="#ffffffff">
<path fill="#ffffff" opacity="1.00" d=" M 0.00 0.00 L 60.00 0.00 L 60.00 60.00 L 0.00 60.00 L 0.00 0.00 M 6.32 12.40 C 4.61 13.18 3.81 15.10 4.00 16.90 C 4.03 27.31 3.93 37.72 4.05 48.12 C 3.95 50.69 6.66 52.34 9.01 52.00 C 23.03 52.00 37.06 52.01 51.09 52.00 C 53.45 52.36 56.03 50.56 55.95 48.05 C 56.07 37.68 55.97 27.30 56.00 16.93 C 56.34 14.59 54.62 11.94 52.09 12.05 C 38.41 11.92 24.72 12.06 11.03 11.98 C 9.47 12.08 7.80 11.77 6.32 12.40 Z" />
<path fill="#ffffff" opacity="1.00" d=" M 14.00 18.00 C 15.33 18.00 16.67 18.00 18.00 18.00 C 18.00 20.00 18.00 22.00 18.00 24.00 C 19.33 24.00 20.67 24.00 22.00 24.00 C 22.00 25.33 22.00 26.67 22.00 28.00 C 20.67 28.00 19.33 28.00 18.00 28.00 C 18.00 31.33 18.00 34.67 18.00 38.00 C 16.67 38.00 15.33 38.00 14.00 38.00 C 14.00 34.67 14.00 31.33 14.00 28.00 C 12.67 28.00 11.33 28.00 10.00 28.00 C 10.00 26.67 10.00 25.33 10.00 24.00 C 11.33 24.00 12.67 24.00 14.00 24.00 C 14.00 22.00 14.00 20.00 14.00 18.00 Z" />
<path fill="#ffffff" opacity="1.00" d=" M 29.13 18.16 C 34.42 17.77 39.74 18.12 45.04 17.98 C 46.67 18.19 48.89 17.44 49.89 19.18 C 50.29 20.45 49.51 22.06 48.04 21.93 C 42.00 22.05 35.94 22.07 29.90 21.92 C 27.85 22.09 27.32 18.92 29.13 18.16 Z" />
<path fill="#ffffff" opacity="1.00" d=" M 29.21 26.15 C 33.47 25.85 37.76 25.97 42.03 26.07 C 44.10 25.85 44.70 29.03 42.88 29.83 C 38.59 30.17 34.26 30.03 29.96 29.93 C 27.88 30.16 27.26 26.84 29.21 26.15 Z" />
<path fill="#ffffff" opacity="1.00" d=" M 29.13 34.16 C 35.41 33.83 41.73 34.00 48.02 34.07 C 50.57 33.79 50.57 38.21 48.02 37.93 C 42.01 38.06 35.99 38.06 29.98 37.93 C 27.88 38.14 27.28 34.96 29.13 34.16 Z" />
<path fill="#ffffff" opacity="1.00" d=" M 29.14 42.17 C 32.37 41.86 35.65 41.86 38.88 42.18 C 40.35 42.90 40.35 45.14 38.85 45.83 C 35.63 46.14 32.36 46.14 29.14 45.83 C 27.65 45.11 27.64 42.88 29.14 42.17 Z" />
</g>
<g id="#000000ff">
<path fill="#000000" opacity="1.00" d=" M 6.32 12.40 C 7.80 11.77 9.47 12.08 11.03 11.98 C 24.72 12.06 38.41 11.92 52.09 12.05 C 54.62 11.94 56.34 14.59 56.00 16.93 C 55.97 27.30 56.07 37.68 55.95 48.05 C 56.03 50.56 53.45 52.36 51.09 52.00 C 37.06 52.01 23.03 52.00 9.01 52.00 C 6.66 52.34 3.95 50.69 4.05 48.12 C 3.93 37.72 4.03 27.31 4.00 16.90 C 3.81 15.10 4.61 13.18 6.32 12.40 M 14.00 18.00 C 14.00 20.00 14.00 22.00 14.00 24.00 C 12.67 24.00 11.33 24.00 10.00 24.00 C 10.00 25.33 10.00 26.67 10.00 28.00 C 11.33 28.00 12.67 28.00 14.00 28.00 C 14.00 31.33 14.00 34.67 14.00 38.00 C 15.33 38.00 16.67 38.00 18.00 38.00 C 18.00 34.67 18.00 31.33 18.00 28.00 C 19.33 28.00 20.67 28.00 22.00 28.00 C 22.00 26.67 22.00 25.33 22.00 24.00 C 20.67 24.00 19.33 24.00 18.00 24.00 C 18.00 22.00 18.00 20.00 18.00 18.00 C 16.67 18.00 15.33 18.00 14.00 18.00 M 29.13 18.16 C 27.32 18.92 27.85 22.09 29.90 21.92 C 35.94 22.07 42.00 22.05 48.04 21.93 C 49.51 22.06 50.29 20.45 49.89 19.18 C 48.89 17.44 46.67 18.19 45.04 17.98 C 39.74 18.12 34.42 17.77 29.13 18.16 M 29.21 26.15 C 27.26 26.84 27.88 30.16 29.96 29.93 C 34.26 30.03 38.59 30.17 42.88 29.83 C 44.70 29.03 44.10 25.85 42.03 26.07 C 37.76 25.97 33.47 25.85 29.21 26.15 M 29.13 34.16 C 27.28 34.96 27.88 38.14 29.98 37.93 C 35.99 38.06 42.01 38.06 48.02 37.93 C 50.57 38.21 50.57 33.79 48.02 34.07 C 41.73 34.00 35.41 33.83 29.13 34.16 M 29.14 42.17 C 27.64 42.88 27.65 45.11 29.14 45.83 C 32.36 46.14 35.63 46.14 38.85 45.83 C 40.35 45.14 40.35 42.90 38.88 42.18 C 35.65 41.86 32.37 41.86 29.14 42.17 Z" />
</g>
</svg>
