<?xml version="1.0" encoding="UTF-8" ?>
<!DOCTYPE svg PUBLIC "-//W3C//DTD SVG 1.1//EN" "http://www.w3.org/Graphics/SVG/1.1/DTD/svg11.dtd">
<svg width="64pt" height="64pt" viewBox="0 0 64 64" version="1.1" xmlns="http://www.w3.org/2000/svg">
<g id="#ffffffff">
<path fill="#ffffff" opacity="1.00" d=" M 0.00 0.00 L 64.00 0.00 L 64.00 64.00 L 0.00 64.00 L 0.00 0.00 M 7.73 13.78 C 5.99 15.34 5.94 17.80 5.94 19.96 C 5.98 30.64 5.96 41.32 5.96 52.00 C 9.96 52.00 13.97 52.00 17.97 52.00 C 17.96 49.33 17.97 46.67 17.96 44.00 C 27.30 44.00 36.63 44.00 45.97 44.00 C 45.96 46.67 45.97 49.33 45.96 52.00 C 49.97 52.00 53.97 52.00 57.97 52.00 C 57.91 43.94 58.07 35.88 57.91 27.83 C 57.94 24.76 55.19 22.00 52.12 22.05 C 43.93 21.87 35.74 22.12 27.55 21.94 C 24.76 19.84 21.20 19.60 18.01 20.87 C 17.88 18.66 18.23 16.13 16.67 14.32 C 14.62 11.51 10.09 11.23 7.73 13.78 Z" />
<path fill="#ffffff" opacity="1.00" d=" M 10.05 17.96 C 9.81 15.87 13.04 15.27 13.79 17.14 C 14.21 23.41 13.84 29.71 13.96 36.00 C 27.30 36.00 40.63 36.00 53.97 36.00 C 53.96 40.00 53.96 44.00 53.97 48.00 C 52.63 48.00 51.30 48.00 49.96 48.00 C 49.97 45.33 49.96 42.67 49.97 40.00 C 37.97 40.00 25.96 40.00 13.96 40.00 C 13.97 42.66 13.96 45.33 13.97 48.00 C 12.63 48.00 11.30 48.00 9.96 48.00 C 10.03 37.99 9.84 27.97 10.05 17.96 Z" />
<path fill="#ffffff" opacity="1.00" d=" M 21.13 24.06 C 26.77 22.43 27.71 32.41 22.01 32.00 C 17.33 32.53 16.57 24.61 21.13 24.06 Z" />
<path fill="#ffffff" opacity="1.00" d=" M 30.00 26.00 C 37.60 26.12 45.21 25.76 52.80 26.17 C 54.75 27.39 53.65 30.10 54.02 31.99 C 46.01 32.01 38.01 32.00 30.00 32.00 C 30.00 30.00 30.00 28.00 30.00 26.00 Z" />
</g>
<g id="#000000ff">
<path fill="#000000" opacity="1.00" d=" M 7.73 13.78 C 10.09 11.23 14.62 11.51 16.67 14.32 C 18.23 16.13 17.88 18.66 18.01 20.87 C 21.20 19.60 24.76 19.84 27.55 21.94 C 35.74 22.12 43.93 21.87 52.12 22.05 C 55.19 22.00 57.94 24.76 57.91 27.83 C 58.07 35.88 57.91 43.94 57.97 52.00 C 53.97 52.00 49.97 52.00 45.96 52.00 C 45.97 49.33 45.96 46.67 45.97 44.00 C 36.63 44.00 27.30 44.00 17.96 44.00 C 17.97 46.67 17.96 49.33 17.97 52.00 C 13.97 52.00 9.96 52.00 5.96 52.00 C 5.96 41.32 5.98 30.64 5.94 19.96 C 5.94 17.80 5.99 15.34 7.73 13.78 M 10.05 17.96 C 9.84 27.97 10.03 37.99 9.96 48.00 C 11.30 48.00 12.63 48.00 13.97 48.00 C 13.96 45.33 13.97 42.66 13.96 40.00 C 25.96 40.00 37.97 40.00 49.97 40.00 C 49.96 42.67 49.97 45.33 49.96 48.00 C 51.30 48.00 52.63 48.00 53.97 48.00 C 53.96 44.00 53.96 40.00 53.97 36.00 C 40.63 36.00 27.30 36.00 13.96 36.00 C 13.84 29.71 14.21 23.41 13.79 17.14 C 13.04 15.27 9.81 15.87 10.05 17.96 M 21.13 24.06 C 16.57 24.61 17.33 32.53 22.01 32.00 C 27.71 32.41 26.77 22.43 21.13 24.06 M 30.00 26.00 C 30.00 28.00 30.00 30.00 30.00 32.00 C 38.01 32.00 46.01 32.01 54.02 31.99 C 53.65 30.10 54.75 27.39 52.80 26.17 C 45.21 25.76 37.60 26.12 30.00 26.00 Z" />
</g>
</svg>
