<?xml version="1.0" encoding="UTF-8" ?>
<!DOCTYPE svg PUBLIC "-//W3C//DTD SVG 1.1//EN" "http://www.w3.org/Graphics/SVG/1.1/DTD/svg11.dtd">
<svg width="64pt" height="64pt" viewBox="0 0 64 64" version="1.1" xmlns="http://www.w3.org/2000/svg">
<g id="#ffffffff">
<path fill="#ffffff" opacity="1.00" d=" M 0.00 0.00 L 64.00 0.00 L 64.00 64.00 L 0.00 64.00 L 0.00 0.00 M 5.16 32.00 C 14.08 40.98 23.02 49.92 32.00 58.83 C 41.00 49.95 49.93 40.98 58.84 32.00 C 49.91 23.04 41.02 14.04 32.00 5.17 C 23.02 14.08 14.07 23.02 5.16 32.00 Z" />
<path fill="#ffffff" opacity="1.00" d=" M 11.76 31.12 C 18.05 24.79 24.40 18.53 30.70 12.19 C 32.26 21.15 33.86 30.11 35.44 39.06 C 27.56 36.36 19.65 33.78 11.76 31.12 M 23.16 21.34 C 22.02 22.50 22.69 24.12 22.92 25.48 C 21.65 26.37 20.16 27.34 20.08 29.07 C 19.45 32.73 24.31 35.38 27.16 33.14 C 29.05 31.61 28.71 28.96 27.74 27.01 C 28.99 26.04 30.43 24.67 29.89 22.91 C 29.49 19.89 24.86 18.94 23.16 21.34 Z" />
<path fill="#ffffff" opacity="1.00" d=" M 35.13 14.00 C 40.98 19.85 46.82 25.71 52.68 31.56 C 48.30 34.02 43.91 36.47 39.50 38.87 C 38.04 30.58 36.58 22.29 35.13 14.00 Z" />
<path fill="#ffffff" opacity="1.00" d=" M 25.17 22.13 C 26.48 20.14 29.17 23.28 27.57 24.68 C 26.14 27.17 23.04 23.64 25.17 22.13 Z" />
<path fill="#ffffff" opacity="1.00" d=" M 23.43 27.49 C 26.41 25.73 27.97 31.01 24.96 32.05 C 22.25 32.65 21.31 28.74 23.43 27.49 Z" />
<path fill="#ffffff" opacity="1.00" d=" M 15.47 36.57 C 22.08 38.79 28.70 40.97 35.31 43.18 C 34.00 46.28 32.69 49.38 31.39 52.48 C 26.09 47.17 20.76 41.89 15.47 36.57 Z" />
<path fill="#ffffff" opacity="1.00" d=" M 39.54 43.47 C 41.15 42.57 42.75 41.67 44.35 40.77 C 42.22 42.90 40.09 45.05 37.95 47.17 C 38.48 45.94 39.02 44.70 39.54 43.47 Z" />
</g>
<g id="#000000ff">
<path fill="#000000" opacity="1.00" d=" M 5.16 32.00 C 14.07 23.02 23.02 14.08 32.00 5.17 C 41.02 14.04 49.91 23.04 58.84 32.00 C 49.93 40.98 41.00 49.95 32.00 58.83 C 23.02 49.92 14.08 40.98 5.16 32.00 M 11.76 31.12 C 19.65 33.78 27.56 36.36 35.44 39.06 C 33.86 30.11 32.26 21.15 30.70 12.19 C 24.40 18.53 18.05 24.79 11.76 31.12 M 35.13 14.00 C 36.58 22.29 38.04 30.58 39.50 38.87 C 43.91 36.47 48.30 34.02 52.68 31.56 C 46.82 25.71 40.98 19.85 35.13 14.00 M 15.47 36.57 C 20.76 41.89 26.09 47.17 31.39 52.48 C 32.69 49.38 34.00 46.28 35.31 43.18 C 28.70 40.97 22.08 38.79 15.47 36.57 M 39.54 43.47 C 39.02 44.70 38.48 45.94 37.95 47.17 C 40.09 45.05 42.22 42.90 44.35 40.77 C 42.75 41.67 41.15 42.57 39.54 43.47 Z" />
<path fill="#000000" opacity="1.00" d=" M 23.16 21.34 C 24.86 18.94 29.49 19.89 29.89 22.91 C 30.43 24.67 28.99 26.04 27.74 27.01 C 28.71 28.96 29.05 31.61 27.16 33.14 C 24.31 35.38 19.45 32.73 20.08 29.07 C 20.16 27.34 21.65 26.37 22.92 25.48 C 22.69 24.12 22.02 22.50 23.16 21.34 M 25.17 22.13 C 23.04 23.64 26.14 27.17 27.57 24.68 C 29.17 23.28 26.48 20.14 25.17 22.13 M 23.43 27.49 C 21.31 28.74 22.25 32.65 24.96 32.05 C 27.97 31.01 26.41 25.73 23.43 27.49 Z" />
</g>
</svg>
