<?xml version="1.0" encoding="UTF-8" ?>
<!DOCTYPE svg PUBLIC "-//W3C//DTD SVG 1.1//EN" "http://www.w3.org/Graphics/SVG/1.1/DTD/svg11.dtd">
<svg width="64pt" height="64pt" viewBox="0 0 64 64" version="1.1" xmlns="http://www.w3.org/2000/svg">
<g id="#ffffffff">
<path fill="#ffffff" opacity="1.00" d=" M 0.00 0.00 L 64.00 0.00 L 64.00 64.00 L 0.00 64.00 L 0.00 0.00 M 35.40 6.61 C 33.90 9.51 32.40 12.40 30.89 15.29 C 29.90 14.16 28.91 13.03 27.92 11.90 C 23.65 17.81 19.29 24.51 20.06 32.17 C 15.92 32.85 11.88 34.02 7.95 35.48 C 8.43 36.73 8.91 37.98 9.39 39.23 C 13.83 37.83 18.31 36.09 23.03 36.04 C 27.39 36.54 31.43 38.66 34.97 41.16 C 36.51 41.75 35.88 44.10 34.30 43.97 C 31.15 42.83 28.23 41.14 25.18 39.77 C 24.60 40.97 24.03 42.17 23.45 43.37 C 27.00 44.85 30.27 47.14 34.04 47.98 C 37.50 48.22 39.91 45.10 40.05 41.88 C 43.40 41.35 46.72 40.58 50.11 40.34 C 52.19 40.69 52.49 43.76 50.47 44.42 C 43.89 47.38 37.12 49.93 30.24 52.11 C 27.14 50.44 24.22 48.45 21.11 46.81 C 18.27 45.18 14.99 46.50 12.05 47.12 C 12.53 48.36 13.02 49.59 13.51 50.83 C 15.69 50.49 18.13 49.35 20.15 50.82 C 24.13 52.55 27.71 57.08 32.43 55.60 C 38.16 53.89 43.68 51.57 49.22 49.37 C 51.41 48.40 54.06 47.61 55.16 45.26 C 56.81 42.26 55.34 38.14 52.18 36.84 C 50.35 35.93 48.27 36.57 46.36 36.72 C 47.82 33.42 48.54 29.69 47.47 26.16 C 45.32 18.67 40.26 12.52 35.40 6.61 Z" />
<path fill="#ffffff" opacity="1.00" d=" M 31.72 22.38 C 33.16 19.58 34.62 16.80 36.08 14.02 C 39.49 18.47 43.04 23.24 43.90 28.93 C 44.30 32.88 42.17 37.84 37.79 38.39 C 40.45 33.54 38.37 28.13 35.92 23.68 C 34.79 25.60 33.68 27.52 32.57 29.45 C 31.80 28.60 31.03 27.75 30.26 26.90 C 29.62 28.98 29.09 31.09 28.69 33.23 C 27.17 32.83 25.65 32.42 24.13 32.00 C 23.53 27.08 26.00 22.63 28.39 18.55 C 29.51 19.82 30.62 21.09 31.72 22.38 Z" />
</g>
<g id="#000000ff">
<path fill="#000000" opacity="1.00" d=" M 35.40 6.61 C 40.26 12.52 45.32 18.67 47.47 26.16 C 48.54 29.69 47.82 33.42 46.36 36.72 C 48.27 36.57 50.35 35.93 52.18 36.84 C 55.34 38.14 56.81 42.26 55.16 45.26 C 54.06 47.61 51.41 48.40 49.22 49.37 C 43.68 51.57 38.16 53.89 32.43 55.60 C 27.71 57.08 24.13 52.55 20.15 50.82 C 18.13 49.35 15.69 50.49 13.51 50.83 C 13.02 49.59 12.53 48.36 12.05 47.12 C 14.99 46.50 18.27 45.18 21.11 46.81 C 24.22 48.45 27.14 50.44 30.24 52.11 C 37.12 49.93 43.89 47.38 50.47 44.42 C 52.49 43.76 52.19 40.69 50.11 40.34 C 46.72 40.58 43.40 41.35 40.05 41.88 C 39.91 45.10 37.50 48.22 34.04 47.98 C 30.27 47.14 27.00 44.85 23.45 43.37 C 24.03 42.17 24.60 40.97 25.18 39.77 C 28.23 41.14 31.15 42.83 34.30 43.97 C 35.88 44.10 36.51 41.75 34.97 41.16 C 31.43 38.66 27.39 36.54 23.03 36.04 C 18.31 36.09 13.83 37.83 9.39 39.23 C 8.91 37.98 8.43 36.73 7.95 35.48 C 11.88 34.02 15.92 32.85 20.06 32.17 C 19.29 24.51 23.65 17.81 27.92 11.90 C 28.91 13.03 29.90 14.16 30.89 15.29 C 32.40 12.40 33.90 9.51 35.40 6.61 M 31.72 22.38 C 30.62 21.09 29.51 19.82 28.39 18.55 C 26.00 22.63 23.53 27.08 24.13 32.00 C 25.65 32.42 27.17 32.83 28.69 33.23 C 29.09 31.09 29.62 28.98 30.26 26.90 C 31.03 27.75 31.80 28.60 32.57 29.45 C 33.68 27.52 34.79 25.60 35.92 23.68 C 38.37 28.13 40.45 33.54 37.79 38.39 C 42.17 37.84 44.30 32.88 43.90 28.93 C 43.04 23.24 39.49 18.47 36.08 14.02 C 34.62 16.80 33.16 19.58 31.72 22.38 Z" />
</g>
</svg>
