<?xml version="1.0" encoding="UTF-8" ?>
<!DOCTYPE svg PUBLIC "-//W3C//DTD SVG 1.1//EN" "http://www.w3.org/Graphics/SVG/1.1/DTD/svg11.dtd">
<svg width="60pt" height="60pt" viewBox="0 0 60 60" version="1.1" xmlns="http://www.w3.org/2000/svg">
<g id="#ffffffff">
<path fill="#ffffff" opacity="1.00" d=" M 0.00 0.00 L 60.00 0.00 L 60.00 60.00 L 0.00 60.00 L 0.00 0.00 M 32.10 7.98 C 31.81 14.91 23.26 17.21 22.22 23.87 C 21.46 25.76 22.35 28.73 24.87 27.89 C 26.65 26.23 25.77 23.20 27.65 21.52 C 30.31 18.61 33.39 16.02 35.20 12.44 C 37.74 15.63 38.06 19.65 38.79 23.49 C 40.28 26.97 44.86 26.30 47.24 24.17 C 47.71 27.05 47.84 29.98 48.22 32.87 C 48.99 34.79 52.18 34.05 51.94 31.96 C 51.91 27.46 51.65 22.56 49.35 18.58 C 46.46 16.68 45.15 21.58 42.56 22.27 C 42.22 16.37 40.26 10.25 35.36 6.57 C 34.23 5.30 31.98 6.29 32.10 7.98 M 4.00 33.99 C 4.01 39.33 4.00 44.66 4.00 50.00 C 7.37 48.74 10.50 46.77 14.03 45.97 C 21.24 48.03 27.89 51.78 35.05 54.03 C 41.64 51.27 47.66 47.21 54.00 43.87 C 56.99 42.87 56.33 37.98 53.10 38.04 C 47.21 39.42 42.08 43.22 36.06 44.18 C 37.55 42.89 38.97 40.44 37.04 38.85 C 33.13 36.56 28.77 35.14 24.68 33.22 C 21.82 32.09 19.11 30.35 16.01 30.00 C 11.83 30.69 8.04 32.81 4.00 33.99 Z" />
</g>
<g id="#000000ff">
<path fill="#000000" opacity="1.00" d=" M 32.10 7.98 C 31.98 6.29 34.23 5.30 35.36 6.57 C 40.26 10.25 42.22 16.37 42.56 22.27 C 45.15 21.58 46.46 16.68 49.35 18.58 C 51.65 22.56 51.91 27.46 51.94 31.96 C 52.18 34.05 48.99 34.79 48.22 32.87 C 47.84 29.98 47.71 27.05 47.24 24.17 C 44.86 26.30 40.28 26.97 38.79 23.49 C 38.06 19.65 37.74 15.63 35.20 12.44 C 33.39 16.02 30.31 18.61 27.65 21.52 C 25.77 23.20 26.65 26.23 24.87 27.89 C 22.35 28.73 21.46 25.76 22.22 23.87 C 23.26 17.21 31.81 14.91 32.10 7.98 Z" />
<path fill="#000000" opacity="1.00" d=" M 4.00 33.99 C 8.04 32.81 11.83 30.69 16.01 30.00 C 19.11 30.35 21.82 32.09 24.68 33.22 C 28.77 35.14 33.13 36.56 37.04 38.85 C 38.97 40.44 37.55 42.89 36.06 44.18 C 42.08 43.22 47.21 39.42 53.10 38.04 C 56.33 37.98 56.99 42.87 54.00 43.87 C 47.66 47.21 41.64 51.27 35.05 54.03 C 27.89 51.78 21.24 48.03 14.03 45.97 C 10.50 46.77 7.37 48.74 4.00 50.00 C 4.00 44.66 4.01 39.33 4.00 33.99 Z" />
</g>
</svg>
