<?xml version="1.0" encoding="UTF-8" ?>
<!DOCTYPE svg PUBLIC "-//W3C//DTD SVG 1.1//EN" "http://www.w3.org/Graphics/SVG/1.1/DTD/svg11.dtd">
<svg width="60pt" height="60pt" viewBox="0 0 60 60" version="1.1" xmlns="http://www.w3.org/2000/svg">
<g id="#ffffffff">
<path fill="#ffffff" opacity="1.00" d=" M 0.00 0.00 L 60.00 0.00 L 60.00 60.00 L 0.00 60.00 L 0.00 0.00 M 10.00 16.81 C 10.05 25.67 9.89 34.53 10.08 43.39 C 13.37 42.18 16.67 41.00 20.00 39.92 C 20.00 32.58 20.00 25.24 20.00 17.90 C 25.32 16.75 30.68 15.78 36.00 14.61 C 36.00 25.24 36.00 35.87 36.00 46.50 C 29.64 45.64 23.26 44.86 16.90 44.03 C 15.54 43.42 14.37 44.39 13.20 44.89 C 21.02 46.15 28.24 49.85 35.88 51.89 C 40.63 51.06 45.30 49.81 49.99 48.71 C 50.01 36.24 50.01 23.76 49.99 11.29 C 45.32 10.24 40.71 8.89 35.99 8.10 C 27.27 10.78 18.68 13.96 10.00 16.81 Z" />
</g>
<g id="#000000ff">
<path fill="#000000" opacity="1.00" d=" M 10.00 16.81 C 18.68 13.96 27.27 10.78 35.99 8.10 C 40.71 8.89 45.32 10.24 49.99 11.29 C 50.01 23.76 50.01 36.24 49.99 48.71 C 45.30 49.81 40.63 51.06 35.88 51.89 C 28.24 49.85 21.02 46.15 13.20 44.89 C 14.37 44.39 15.54 43.42 16.90 44.03 C 23.26 44.86 29.64 45.64 36.00 46.50 C 36.00 35.87 36.00 25.24 36.00 14.61 C 30.68 15.78 25.32 16.75 20.00 17.90 C 20.00 25.24 20.00 32.58 20.00 39.92 C 16.67 41.00 13.37 42.18 10.08 43.39 C 9.89 34.53 10.05 25.67 10.00 16.81 Z" />
</g>
</svg>
