<?xml version="1.0" encoding="UTF-8" ?>
<!DOCTYPE svg PUBLIC "-//W3C//DTD SVG 1.1//EN" "http://www.w3.org/Graphics/SVG/1.1/DTD/svg11.dtd">
<svg width="60pt" height="60pt" viewBox="0 0 60 60" version="1.1" xmlns="http://www.w3.org/2000/svg">
<g id="#ffffffff">
<path fill="#ffffff" opacity="1.00" d=" M 0.00 0.00 L 60.00 0.00 L 60.00 60.00 L 0.00 60.00 L 0.00 0.00 M 24.46 6.65 C 17.59 8.26 11.56 13.06 8.47 19.40 C 5.20 25.95 5.20 34.02 8.46 40.57 C 11.77 47.38 18.48 52.42 25.96 53.64 C 33.04 54.88 40.64 52.74 45.97 47.89 C 51.29 43.19 54.32 36.04 53.96 28.94 C 53.70 22.06 50.27 15.38 44.83 11.14 C 39.20 6.63 31.46 4.97 24.46 6.65 Z" />
<path fill="#ffffff" opacity="1.00" d=" M 40.67 16.58 C 42.27 14.72 45.30 17.59 43.45 19.26 C 39.05 23.93 34.42 28.39 29.88 32.93 C 29.18 33.87 27.58 34.48 26.70 33.43 C 23.92 30.82 21.23 28.11 18.60 25.35 C 17.04 23.97 18.81 21.31 20.73 22.12 C 23.36 24.24 25.56 26.85 28.02 29.16 C 32.26 24.99 36.36 20.68 40.67 16.58 Z" />
<path fill="#ffffff" opacity="1.00" d=" M 19.17 38.15 C 26.11 37.84 33.08 37.99 40.03 38.07 C 42.56 37.78 42.58 42.20 40.05 41.92 C 33.36 42.07 26.65 42.05 19.96 41.93 C 17.87 42.13 17.28 38.90 19.17 38.15 Z" />
</g>
<g id="#000000ff">
<path fill="#968176" opacity="1.00" d=" M 24.46 6.65 C 31.46 4.97 39.20 6.63 44.83 11.14 C 50.27 15.38 53.70 22.06 53.96 28.94 C 54.32 36.04 51.29 43.19 45.97 47.89 C 40.64 52.74 33.04 54.88 25.96 53.64 C 18.48 52.42 11.77 47.38 8.46 40.57 C 5.20 34.02 5.20 25.95 8.47 19.40 C 11.56 13.06 17.59 8.26 24.46 6.65 M 40.67 16.58 C 36.36 20.68 32.26 24.99 28.02 29.16 C 25.56 26.85 23.36 24.24 20.73 22.12 C 18.81 21.31 17.04 23.97 18.60 25.35 C 21.23 28.11 23.92 30.82 26.70 33.43 C 27.58 34.48 29.18 33.87 29.88 32.93 C 34.42 28.39 39.05 23.93 43.45 19.26 C 45.30 17.59 42.27 14.72 40.67 16.58 M 19.17 38.15 C 17.28 38.90 17.87 42.13 19.96 41.93 C 26.65 42.05 33.36 42.07 40.05 41.92 C 42.58 42.20 42.56 37.78 40.03 38.07 C 33.08 37.99 26.11 37.84 19.17 38.15 Z" />
</g>
</svg>
