<?xml version="1.0" encoding="UTF-8" ?>
<!DOCTYPE svg PUBLIC "-//W3C//DTD SVG 1.1//EN" "http://www.w3.org/Graphics/SVG/1.1/DTD/svg11.dtd">
<svg width="64pt" height="64pt" viewBox="0 0 64 64" version="1.1" xmlns="http://www.w3.org/2000/svg">
<g id="#ffffffff">
<path fill="#ffffff" opacity="1.00" d=" M 0.00 0.00 L 64.00 0.00 L 64.00 64.00 L 0.00 64.00 L 0.00 0.00 M 12.00 6.00 C 12.00 10.67 12.00 15.33 12.00 20.00 C 13.33 20.00 14.67 20.00 16.00 20.00 C 16.00 16.67 16.00 13.33 16.00 10.00 C 26.67 10.00 37.33 10.00 48.00 10.00 C 48.00 13.33 48.00 16.67 48.00 20.00 C 49.33 20.00 50.67 20.00 52.00 20.00 C 52.00 15.33 52.00 10.67 52.00 6.00 C 38.67 6.00 25.33 6.00 12.00 6.00 M 18.49 24.67 C 16.15 25.89 15.87 28.73 15.95 31.08 C 16.04 33.75 15.47 37.14 17.94 38.95 C 20.58 41.21 25.23 39.59 25.81 36.16 C 26.16 33.41 26.16 30.59 25.81 27.85 C 25.28 24.67 21.19 22.94 18.49 24.67 M 28.19 36.16 C 29.09 40.69 34.51 40.07 38.00 40.04 C 38.00 37.36 38.00 34.68 38.00 32.00 C 36.67 32.00 35.34 32.00 34.01 32.00 C 34.00 33.49 33.98 34.97 33.95 36.46 C 32.72 36.08 32.07 35.30 32.00 34.11 C 32.02 31.95 31.43 29.41 33.05 27.65 C 33.55 30.47 36.12 30.04 38.28 30.10 C 38.36 26.39 34.87 22.61 31.03 24.40 C 26.61 26.45 28.10 32.29 28.19 36.16 M 40.05 28.83 C 40.03 31.72 39.50 34.86 40.71 37.57 C 42.61 40.85 46.86 39.84 50.00 40.04 C 50.00 37.36 50.00 34.68 50.00 32.00 C 48.67 32.00 47.34 32.00 46.01 32.00 C 46.00 33.48 45.99 34.97 45.96 36.46 C 44.68 36.07 44.03 35.26 44.00 34.04 C 44.01 31.90 43.42 29.37 45.08 27.66 C 45.55 30.50 48.14 30.02 50.28 30.10 C 49.85 28.14 49.56 25.75 47.57 24.71 C 44.53 22.66 39.93 25.16 40.05 28.83 M 12.00 44.00 C 12.00 48.67 12.00 53.33 12.00 58.00 C 25.33 58.00 38.67 58.00 52.00 58.00 C 52.00 53.33 52.00 48.67 52.00 44.00 C 50.67 44.00 49.33 44.00 48.00 44.00 C 48.00 47.33 48.00 50.67 48.00 54.00 C 37.33 54.00 26.67 54.00 16.00 54.00 C 16.00 50.67 16.00 47.33 16.00 44.00 C 14.67 44.00 13.33 44.00 12.00 44.00 Z" />
<path fill="#ffffff" opacity="1.00" d=" M 20.18 28.56 C 20.61 28.41 21.47 28.11 21.90 27.95 C 21.97 30.43 22.18 32.93 21.86 35.40 C 21.42 35.56 20.55 35.90 20.11 36.06 C 20.03 33.57 19.80 31.04 20.18 28.56 Z" />
</g>
<g id="#000000ff">
<path fill="#000000" opacity="1.00" d=" M 12.00 6.00 C 25.33 6.00 38.67 6.00 52.00 6.00 C 52.00 10.67 52.00 15.33 52.00 20.00 C 50.67 20.00 49.33 20.00 48.00 20.00 C 48.00 16.67 48.00 13.33 48.00 10.00 C 37.33 10.00 26.67 10.00 16.00 10.00 C 16.00 13.33 16.00 16.67 16.00 20.00 C 14.67 20.00 13.33 20.00 12.00 20.00 C 12.00 15.33 12.00 10.67 12.00 6.00 Z" />
<path fill="#000000" opacity="1.00" d=" M 18.49 24.67 C 21.19 22.94 25.28 24.67 25.81 27.85 C 26.16 30.59 26.16 33.41 25.81 36.16 C 25.23 39.59 20.58 41.21 17.94 38.95 C 15.47 37.14 16.04 33.75 15.95 31.08 C 15.87 28.73 16.15 25.89 18.49 24.67 M 20.18 28.56 C 19.80 31.04 20.03 33.57 20.11 36.06 C 20.55 35.90 21.42 35.56 21.86 35.40 C 22.18 32.93 21.97 30.43 21.90 27.95 C 21.47 28.11 20.61 28.41 20.18 28.56 Z" />
<path fill="#000000" opacity="1.00" d=" M 28.19 36.16 C 28.10 32.29 26.61 26.45 31.03 24.40 C 34.87 22.61 38.36 26.39 38.28 30.10 C 36.12 30.04 33.55 30.47 33.05 27.65 C 31.43 29.41 32.02 31.95 32.00 34.11 C 32.07 35.30 32.72 36.08 33.95 36.46 C 33.98 34.97 34.00 33.49 34.01 32.00 C 35.34 32.00 36.67 32.00 38.00 32.00 C 38.00 34.68 38.00 37.36 38.00 40.04 C 34.51 40.07 29.09 40.69 28.19 36.16 Z" />
<path fill="#000000" opacity="1.00" d=" M 40.05 28.83 C 39.93 25.16 44.53 22.66 47.57 24.71 C 49.56 25.75 49.85 28.14 50.28 30.10 C 48.14 30.02 45.55 30.50 45.08 27.66 C 43.42 29.37 44.01 31.90 44.00 34.04 C 44.03 35.26 44.68 36.07 45.96 36.46 C 45.99 34.97 46.00 33.48 46.01 32.00 C 47.34 32.00 48.67 32.00 50.00 32.00 C 50.00 34.68 50.00 37.36 50.00 40.04 C 46.86 39.84 42.61 40.85 40.71 37.57 C 39.50 34.86 40.03 31.72 40.05 28.83 Z" />
<path fill="#000000" opacity="1.00" d=" M 12.00 44.00 C 13.33 44.00 14.67 44.00 16.00 44.00 C 16.00 47.33 16.00 50.67 16.00 54.00 C 26.67 54.00 37.33 54.00 48.00 54.00 C 48.00 50.67 48.00 47.33 48.00 44.00 C 49.33 44.00 50.67 44.00 52.00 44.00 C 52.00 48.67 52.00 53.33 52.00 58.00 C 38.67 58.00 25.33 58.00 12.00 58.00 C 12.00 53.33 12.00 48.67 12.00 44.00 Z" />
</g>
</svg>
