<?xml version="1.0" encoding="UTF-8" ?>
<!DOCTYPE svg PUBLIC "-//W3C//DTD SVG 1.1//EN" "http://www.w3.org/Graphics/SVG/1.1/DTD/svg11.dtd">
<svg width="60pt" height="60pt" viewBox="0 0 60 60" version="1.1" xmlns="http://www.w3.org/2000/svg">
<g id="#ffffffff">
<path fill="#ffffff" opacity="1.00" d=" M 0.00 0.00 L 60.00 0.00 L 60.00 60.00 L 0.00 60.00 L 0.00 0.00 M 18.36 4.47 C 11.88 6.91 6.64 12.90 6.13 19.95 C 5.82 26.10 6.37 32.75 9.95 37.98 C 10.08 43.32 9.91 48.65 10.07 53.99 C 10.52 53.91 11.41 53.77 11.86 53.70 C 12.21 48.45 11.88 43.18 12.02 37.92 C 14.79 33.99 17.28 29.87 19.91 25.84 C 23.81 26.63 27.72 27.41 31.63 28.17 C 30.54 35.41 29.41 42.64 28.30 49.87 C 27.49 49.96 25.88 50.15 25.08 50.24 C 23.24 51.05 23.95 54.16 26.02 53.92 C 34.37 54.10 42.73 53.97 51.08 53.99 C 52.24 54.09 54.22 53.61 53.93 52.05 C 54.22 50.00 51.59 50.05 50.23 49.80 C 50.81 43.99 51.18 38.15 51.76 32.33 C 54.13 31.09 55.07 27.17 51.98 26.24 C 42.04 23.98 31.98 22.22 22.00 20.14 C 21.87 15.14 22.27 10.12 21.82 5.14 C 21.17 3.80 19.49 3.81 18.36 4.47 Z" />
<path fill="#ffffff" opacity="1.00" d=" M 10.66 17.42 C 11.72 13.72 14.62 10.91 17.94 9.15 C 17.93 13.14 18.18 17.14 17.91 21.12 C 16.17 24.92 13.45 28.21 11.27 31.78 C 10.18 27.11 9.37 22.13 10.66 17.42 Z" />
<path fill="#ffffff" opacity="1.00" d=" M 35.55 28.99 C 36.54 29.18 37.54 29.37 38.53 29.55 C 39.56 36.37 40.62 43.19 41.67 50.00 C 38.55 50.00 35.44 50.00 32.33 50.00 C 33.40 43.00 34.50 36.00 35.55 28.99 Z" />
<path fill="#ffffff" opacity="1.00" d=" M 42.70 30.40 C 45.05 30.87 47.40 31.34 49.76 31.81 C 49.26 37.91 48.74 44.01 48.24 50.11 C 47.62 50.05 46.40 49.94 45.78 49.89 C 44.55 43.43 43.78 36.89 42.70 30.40 Z" />
</g>
<g id="#000000ff">
<path fill="#968176" opacity="1.00" d=" M 18.36 4.47 C 19.49 3.81 21.17 3.80 21.82 5.14 C 22.27 10.12 21.87 15.14 22.00 20.14 C 31.98 22.22 42.04 23.98 51.98 26.24 C 55.07 27.17 54.13 31.09 51.76 32.33 C 51.18 38.15 50.81 43.99 50.23 49.80 C 51.59 50.05 54.22 50.00 53.93 52.05 C 54.22 53.61 52.24 54.09 51.08 53.99 C 42.73 53.97 34.37 54.10 26.02 53.92 C 23.95 54.16 23.24 51.05 25.08 50.24 C 25.88 50.15 27.49 49.96 28.30 49.87 C 29.41 42.64 30.54 35.41 31.63 28.17 C 27.72 27.41 23.81 26.63 19.91 25.84 C 17.28 29.87 14.79 33.99 12.02 37.92 C 11.88 43.18 12.21 48.45 11.86 53.70 C 11.41 53.77 10.52 53.91 10.07 53.99 C 9.91 48.65 10.08 43.32 9.95 37.98 C 6.37 32.75 5.82 26.10 6.13 19.95 C 6.64 12.90 11.88 6.91 18.36 4.47 M 10.66 17.42 C 9.37 22.13 10.18 27.11 11.27 31.78 C 13.45 28.21 16.17 24.92 17.91 21.12 C 18.18 17.14 17.93 13.14 17.94 9.15 C 14.62 10.91 11.72 13.72 10.66 17.42 M 35.55 28.99 C 34.50 36.00 33.40 43.00 32.33 50.00 C 35.44 50.00 38.55 50.00 41.67 50.00 C 40.62 43.19 39.56 36.37 38.53 29.55 C 37.54 29.37 36.54 29.18 35.55 28.99 M 42.70 30.40 C 43.78 36.89 44.55 43.43 45.78 49.89 C 46.40 49.94 47.62 50.05 48.24 50.11 C 48.74 44.01 49.26 37.91 49.76 31.81 C 47.40 31.34 45.05 30.87 42.70 30.40 Z" />
</g>
</svg>
