<?xml version="1.0" encoding="UTF-8" ?>
<!DOCTYPE svg PUBLIC "-//W3C//DTD SVG 1.1//EN" "http://www.w3.org/Graphics/SVG/1.1/DTD/svg11.dtd">
<svg width="60pt" height="60pt" viewBox="0 0 60 60" version="1.1" xmlns="http://www.w3.org/2000/svg">
<g id="#ffffffff">
<path fill="#ffffff" opacity="1.00" d=" M 0.00 0.00 L 60.00 0.00 L 60.00 60.00 L 0.00 60.00 L 0.00 0.00 M 10.02 13.92 C 23.34 14.06 36.66 14.04 49.98 13.92 C 43.28 11.36 36.65 8.65 30.00 5.99 C 23.35 8.65 16.72 11.37 10.02 13.92 M 4.05 21.94 C 3.87 29.83 4.11 37.74 3.96 45.64 C 1.81 46.30 1.16 49.83 3.93 49.89 C 21.27 50.08 38.66 50.07 56.01 49.90 C 58.82 49.90 58.23 46.30 56.05 45.64 C 55.88 37.73 56.13 29.82 55.94 21.92 C 56.02 19.37 53.45 17.64 51.06 18.00 C 37.01 18.00 22.95 18.00 8.89 18.00 C 6.54 17.67 3.97 19.42 4.05 21.94 Z" />
<path fill="#ffffff" opacity="1.00" d=" M 24.10 37.10 C 24.03 32.13 27.69 28.10 30.00 23.95 C 32.34 28.30 36.63 32.66 35.68 37.92 C 34.09 43.64 24.87 42.99 24.10 37.10 Z" />
</g>
<g id="#000000ff">
<path fill="#000000" opacity="1.00" d=" M 10.02 13.92 C 16.72 11.37 23.35 8.65 30.00 5.99 C 36.65 8.65 43.28 11.36 49.98 13.92 C 36.66 14.04 23.34 14.06 10.02 13.92 Z" />
<path fill="#000000" opacity="1.00" d=" M 4.05 21.94 C 3.97 19.42 6.54 17.67 8.89 18.00 C 22.95 18.00 37.01 18.00 51.06 18.00 C 53.45 17.64 56.02 19.37 55.94 21.92 C 56.13 29.82 55.88 37.73 56.05 45.64 C 58.23 46.30 58.82 49.90 56.01 49.90 C 38.66 50.07 21.27 50.08 3.93 49.89 C 1.16 49.83 1.81 46.30 3.96 45.64 C 4.11 37.74 3.87 29.83 4.05 21.94 M 24.10 37.10 C 24.87 42.99 34.09 43.64 35.68 37.92 C 36.63 32.66 32.34 28.30 30.00 23.95 C 27.69 28.10 24.03 32.13 24.10 37.10 Z" />
</g>
</svg>
