<?xml version="1.0" encoding="UTF-8" ?>
<!DOCTYPE svg PUBLIC "-//W3C//DTD SVG 1.1//EN" "http://www.w3.org/Graphics/SVG/1.1/DTD/svg11.dtd">
<svg width="60pt" height="60pt" viewBox="0 0 60 60" version="1.1" xmlns="http://www.w3.org/2000/svg">
<g id="#ffffffff">
<path fill="#ffffff" opacity="1.00" d=" M 0.00 0.00 L 60.00 0.00 L 60.00 60.00 L 0.00 60.00 L 0.00 0.00 M 24.14 11.73 C 22.05 12.73 19.84 13.65 18.11 15.22 C 17.38 17.25 19.54 17.98 21.09 18.27 C 18.74 24.86 16.05 31.35 14.04 38.04 C 14.74 40.76 16.02 43.28 17.00 45.89 C 14.60 47.05 13.73 49.45 13.88 52.00 C 24.63 52.00 35.37 52.00 46.12 52.00 C 46.26 49.46 45.40 47.06 43.01 45.90 C 44.06 43.29 45.06 40.66 46.11 38.05 C 43.76 31.45 41.38 24.85 38.92 18.29 C 40.36 17.99 42.73 17.24 41.85 15.27 C 40.22 13.59 37.91 12.78 35.86 11.73 C 36.73 8.02 33.98 3.92 30.02 4.00 C 26.05 3.88 23.24 8.00 24.14 11.73 Z" />
<path fill="#ffffff" opacity="1.00" d=" M 29.11 8.10 C 31.55 7.06 33.21 10.86 30.77 11.89 C 28.38 12.82 26.92 9.27 29.11 8.10 Z" />
<path fill="#ffffff" opacity="1.00" d=" M 25.39 18.01 C 28.47 17.99 31.54 18.00 34.62 18.02 C 36.75 23.97 38.94 29.90 41.09 35.85 C 40.76 36.39 40.12 37.47 39.80 38.02 C 40.10 38.53 40.72 39.55 41.02 40.06 C 40.23 42.03 39.44 44.01 38.67 45.99 C 32.89 46.00 27.11 46.01 21.34 45.99 C 20.56 44.00 19.77 42.03 18.98 40.05 C 19.28 39.55 19.89 38.53 20.20 38.02 C 19.88 37.48 19.24 36.39 18.92 35.84 C 21.07 29.90 23.25 23.96 25.39 18.01 M 24.02 38.12 C 23.89 41.11 26.45 43.02 28.83 44.23 C 28.51 43.64 27.88 42.47 27.56 41.88 C 28.30 40.48 29.14 39.14 30.00 37.82 C 30.86 39.14 31.70 40.49 32.44 41.88 C 32.12 42.47 31.49 43.64 31.17 44.23 C 33.56 43.02 36.09 41.12 35.98 38.13 C 35.47 34.09 32.33 31.07 30.00 27.94 C 27.67 31.06 24.54 34.08 24.02 38.12 Z" />
</g>
<g id="#000000ff">
<path fill="#000000" opacity="1.00" d=" M 24.14 11.73 C 23.24 8.00 26.05 3.88 30.02 4.00 C 33.98 3.92 36.73 8.02 35.86 11.73 C 37.91 12.78 40.22 13.59 41.85 15.27 C 42.73 17.24 40.36 17.99 38.92 18.29 C 41.38 24.85 43.76 31.45 46.11 38.05 C 45.06 40.66 44.06 43.29 43.01 45.90 C 45.40 47.06 46.26 49.46 46.12 52.00 C 35.37 52.00 24.63 52.00 13.88 52.00 C 13.73 49.45 14.60 47.05 17.00 45.89 C 16.02 43.28 14.74 40.76 14.04 38.04 C 16.05 31.35 18.74 24.86 21.09 18.27 C 19.54 17.98 17.38 17.25 18.11 15.22 C 19.84 13.65 22.05 12.73 24.14 11.73 M 29.11 8.10 C 26.92 9.27 28.38 12.82 30.77 11.89 C 33.21 10.86 31.55 7.06 29.11 8.10 M 25.39 18.01 C 23.25 23.96 21.07 29.90 18.92 35.84 C 19.24 36.39 19.88 37.48 20.20 38.02 C 19.89 38.53 19.28 39.55 18.98 40.05 C 19.77 42.03 20.56 44.00 21.34 45.99 C 27.11 46.01 32.89 46.00 38.67 45.99 C 39.44 44.01 40.23 42.03 41.02 40.06 C 40.72 39.55 40.10 38.53 39.80 38.02 C 40.12 37.47 40.76 36.39 41.09 35.85 C 38.94 29.90 36.75 23.97 34.62 18.02 C 31.54 18.00 28.47 17.99 25.39 18.01 Z" />
<path fill="#000000" opacity="1.00" d=" M 24.02 38.12 C 24.54 34.08 27.67 31.06 30.00 27.94 C 32.33 31.07 35.47 34.09 35.98 38.13 C 36.09 41.12 33.56 43.02 31.17 44.23 C 31.49 43.64 32.12 42.47 32.44 41.88 C 31.70 40.49 30.86 39.14 30.00 37.82 C 29.14 39.14 28.30 40.48 27.56 41.88 C 27.88 42.47 28.51 43.64 28.83 44.23 C 26.45 43.02 23.89 41.11 24.02 38.12 Z" />
</g>
</svg>
