<?xml version="1.0" encoding="UTF-8" ?>
<!DOCTYPE svg PUBLIC "-//W3C//DTD SVG 1.1//EN" "http://www.w3.org/Graphics/SVG/1.1/DTD/svg11.dtd">
<svg width="64pt" height="64pt" viewBox="0 0 64 64" version="1.1" xmlns="http://www.w3.org/2000/svg">
<g id="#ffffffff">
<path fill="#ffffff" opacity="1.00" d=" M 0.00 0.00 L 64.00 0.00 L 64.00 64.00 L 0.00 64.00 L 0.00 0.00 M 11.96 18.31 C 12.02 21.43 12.03 24.56 11.96 27.68 C 9.53 30.11 9.53 33.87 11.96 36.31 C 12.02 39.43 12.03 42.55 11.96 45.67 C 8.49 48.84 10.12 55.16 14.87 55.85 C 25.58 56.20 36.32 55.91 47.04 56.00 C 49.89 56.28 52.86 54.63 53.70 51.81 C 54.62 49.57 53.33 47.41 52.04 45.67 C 51.97 42.56 51.97 39.44 52.04 36.33 C 54.48 33.87 54.49 30.12 52.04 27.67 C 51.97 24.56 51.97 21.44 52.04 18.33 C 53.10 16.73 54.45 14.99 53.89 12.93 C 53.38 9.74 50.13 7.62 46.99 8.00 C 36.31 8.09 25.61 7.81 14.94 8.14 C 10.15 8.74 8.47 15.15 11.96 18.31 Z" />
<path fill="#ffffff" opacity="1.00" d=" M 14.09 13.16 C 15.12 11.47 17.31 12.18 18.95 11.97 C 28.92 12.16 38.92 11.74 48.88 12.17 C 50.96 13.28 49.63 15.60 48.04 16.41 C 47.97 20.80 47.97 25.19 48.04 29.59 C 50.42 30.68 50.41 33.34 48.04 34.41 C 47.98 38.80 47.97 43.20 48.04 47.59 C 49.03 48.45 50.40 49.29 49.90 50.82 C 48.88 52.53 46.66 51.82 45.02 52.03 C 35.03 51.83 25.03 52.27 15.05 51.82 C 13.07 50.61 14.40 48.41 15.96 47.59 C 16.03 43.20 16.03 38.80 15.96 34.41 C 13.57 33.33 13.59 30.67 15.96 29.59 C 16.03 25.20 16.02 20.81 15.96 16.42 C 14.96 15.51 13.59 14.76 14.09 13.16 M 24.32 34.03 C 22.76 38.86 27.04 44.18 32.04 43.99 C 36.98 44.12 41.16 38.89 39.71 34.11 C 38.02 29.14 34.97 24.79 32.01 20.50 C 29.04 24.76 26.02 29.09 24.32 34.03 Z" />
<path fill="#ffffff" opacity="1.00" d=" M 28.07 36.82 C 28.00 33.40 30.50 30.61 32.00 27.70 C 33.49 30.60 35.97 33.37 35.94 36.78 C 35.53 41.01 28.51 41.04 28.07 36.82 Z" />
</g>
<g id="#000000ff">
<path fill="#000000" opacity="1.00" d=" M 11.96 18.31 C 8.47 15.15 10.15 8.74 14.94 8.14 C 25.61 7.81 36.31 8.09 46.99 8.00 C 50.13 7.62 53.38 9.74 53.89 12.93 C 54.45 14.99 53.10 16.73 52.04 18.33 C 51.97 21.44 51.97 24.56 52.04 27.67 C 54.49 30.12 54.48 33.87 52.04 36.33 C 51.97 39.44 51.97 42.56 52.04 45.67 C 53.33 47.41 54.62 49.57 53.70 51.81 C 52.86 54.63 49.89 56.28 47.04 56.00 C 36.32 55.91 25.58 56.20 14.87 55.85 C 10.12 55.16 8.49 48.84 11.96 45.67 C 12.03 42.55 12.02 39.43 11.96 36.31 C 9.53 33.87 9.53 30.11 11.96 27.68 C 12.03 24.56 12.02 21.43 11.96 18.31 M 14.09 13.16 C 13.59 14.76 14.96 15.51 15.96 16.42 C 16.02 20.81 16.03 25.20 15.96 29.59 C 13.59 30.67 13.57 33.33 15.96 34.41 C 16.03 38.80 16.03 43.20 15.96 47.59 C 14.40 48.41 13.07 50.61 15.05 51.82 C 25.03 52.27 35.03 51.83 45.02 52.03 C 46.66 51.82 48.88 52.53 49.90 50.82 C 50.40 49.29 49.03 48.45 48.04 47.59 C 47.97 43.20 47.98 38.80 48.04 34.41 C 50.41 33.34 50.42 30.68 48.04 29.59 C 47.97 25.19 47.97 20.80 48.04 16.41 C 49.63 15.60 50.96 13.28 48.88 12.17 C 38.92 11.74 28.92 12.16 18.95 11.97 C 17.31 12.18 15.12 11.47 14.09 13.16 Z" />
<path fill="#000000" opacity="1.00" d=" M 24.32 34.03 C 26.02 29.09 29.04 24.76 32.01 20.50 C 34.97 24.79 38.02 29.14 39.71 34.11 C 41.16 38.89 36.98 44.12 32.04 43.99 C 27.04 44.18 22.76 38.86 24.32 34.03 M 28.07 36.82 C 28.51 41.04 35.53 41.01 35.94 36.78 C 35.97 33.37 33.49 30.60 32.00 27.70 C 30.50 30.61 28.00 33.40 28.07 36.82 Z" />
</g>
</svg>
