<?xml version="1.0" encoding="UTF-8" ?>
<!DOCTYPE svg PUBLIC "-//W3C//DTD SVG 1.1//EN" "http://www.w3.org/Graphics/SVG/1.1/DTD/svg11.dtd">
<svg width="60pt" height="60pt" viewBox="0 0 60 60" version="1.1" xmlns="http://www.w3.org/2000/svg">
<g id="#ffffffff">
<path fill="#ffffff" opacity="1.00" d=" M 0.00 0.00 L 60.00 0.00 L 60.00 60.00 L 0.00 60.00 L 0.00 0.00 M 19.96 6.92 C 21.66 12.19 24.48 17.03 26.58 22.14 C 22.13 16.74 15.75 13.61 9.83 10.15 C 7.01 8.98 4.52 13.24 6.93 15.08 C 11.90 18.78 18.00 21.02 21.96 26.00 C 19.18 26.18 16.20 25.52 13.53 26.46 C 11.01 28.58 8.67 30.95 6.50 33.44 C 4.73 35.59 7.41 38.89 9.94 37.92 C 12.33 36.27 14.19 33.99 16.25 31.96 C 18.95 32.07 22.20 31.55 24.24 33.77 C 26.75 36.14 26.49 40.62 23.73 42.69 C 22.08 44.13 19.78 43.91 17.75 44.08 C 15.61 41.66 12.59 38.97 9.09 40.35 C 7.57 40.83 4.90 42.52 6.64 44.23 C 10.06 47.17 12.76 52.44 17.94 52.00 C 29.29 52.01 40.65 51.99 52.00 52.00 C 52.00 46.67 52.00 41.33 52.00 36.00 C 49.33 36.00 46.66 36.00 44.00 36.00 C 42.77 32.64 41.13 29.42 40.13 25.98 C 39.66 20.01 40.37 13.99 39.81 8.03 C 39.16 5.34 34.79 5.35 34.18 8.07 C 33.74 13.34 34.15 18.65 33.96 23.94 C 31.15 17.78 28.50 11.54 25.51 5.46 C 24.24 2.79 19.85 4.03 19.96 6.92 Z" />
</g>
<g id="#000000ff">
<path fill="#000000" opacity="1.00" d=" M 19.96 6.92 C 19.85 4.03 24.24 2.79 25.51 5.46 C 28.50 11.54 31.15 17.78 33.96 23.94 C 34.15 18.65 33.74 13.34 34.18 8.07 C 34.79 5.35 39.16 5.34 39.81 8.03 C 40.37 13.99 39.66 20.01 40.13 25.98 C 41.13 29.42 42.77 32.64 44.00 36.00 C 46.66 36.00 49.33 36.00 52.00 36.00 C 52.00 41.33 52.00 46.67 52.00 52.00 C 40.65 51.99 29.29 52.01 17.94 52.00 C 12.76 52.44 10.06 47.17 6.64 44.23 C 4.90 42.52 7.57 40.83 9.09 40.35 C 12.59 38.97 15.61 41.66 17.75 44.08 C 19.78 43.91 22.08 44.13 23.73 42.69 C 26.49 40.62 26.75 36.14 24.24 33.77 C 22.20 31.55 18.95 32.07 16.25 31.96 C 14.19 33.99 12.33 36.27 9.94 37.92 C 7.41 38.89 4.73 35.59 6.50 33.44 C 8.67 30.95 11.01 28.58 13.53 26.46 C 16.20 25.52 19.18 26.18 21.96 26.00 C 18.00 21.02 11.90 18.78 6.93 15.08 C 4.52 13.24 7.01 8.98 9.83 10.15 C 15.75 13.61 22.13 16.74 26.58 22.14 C 24.48 17.03 21.66 12.19 19.96 6.92 Z" />
</g>
</svg>
