<?xml version="1.0" encoding="UTF-8" ?>
<!DOCTYPE svg PUBLIC "-//W3C//DTD SVG 1.1//EN" "http://www.w3.org/Graphics/SVG/1.1/DTD/svg11.dtd">
<svg width="60pt" height="60pt" viewBox="0 0 60 60" version="1.1" xmlns="http://www.w3.org/2000/svg">
<g id="#ffffffff">
<path fill="#ffffff" opacity="1.00" d=" M 0.00 0.00 L 60.00 0.00 L 60.00 60.00 L 0.00 60.00 L 0.00 0.00 M 24.49 6.64 C 17.61 8.24 11.56 13.06 8.47 19.42 C 5.09 26.17 5.21 34.53 8.77 41.18 C 12.31 47.96 19.27 52.84 26.87 53.77 C 33.68 54.71 40.88 52.53 45.97 47.89 C 51.29 43.19 54.32 36.03 53.96 28.94 C 53.70 22.07 50.29 15.41 44.88 11.18 C 39.25 6.65 31.51 4.97 24.49 6.64 Z" />
<path fill="#ffffff" opacity="1.00" d=" M 40.63 22.61 C 42.02 20.96 44.86 22.93 43.80 24.85 C 39.39 29.73 34.49 34.16 29.95 38.92 C 28.85 39.86 27.75 41.65 26.05 40.95 C 23.39 38.64 20.97 36.06 18.53 33.53 C 17.02 32.20 18.80 29.54 20.65 30.33 C 22.95 32.06 24.78 34.34 26.92 36.26 C 31.50 31.72 35.99 27.09 40.63 22.61 Z" />
</g>
<g id="#000000ff">
<path fill="#968176" opacity="1.00" d=" M 24.49 6.64 C 31.51 4.97 39.25 6.65 44.88 11.18 C 50.29 15.41 53.70 22.07 53.96 28.94 C 54.32 36.03 51.29 43.19 45.97 47.89 C 40.88 52.53 33.68 54.71 26.87 53.77 C 19.27 52.84 12.31 47.96 8.77 41.18 C 5.21 34.53 5.09 26.17 8.47 19.42 C 11.56 13.06 17.61 8.24 24.49 6.64 M 40.63 22.61 C 35.99 27.09 31.50 31.72 26.92 36.26 C 24.78 34.34 22.95 32.06 20.65 30.33 C 18.80 29.54 17.02 32.20 18.53 33.53 C 20.97 36.06 23.39 38.64 26.05 40.95 C 27.75 41.65 28.85 39.86 29.95 38.92 C 34.49 34.16 39.39 29.73 43.80 24.85 C 44.86 22.93 42.02 20.96 40.63 22.61 Z" />
</g>
</svg>
