<?xml version="1.0" encoding="UTF-8" ?>
<!DOCTYPE svg PUBLIC "-//W3C//DTD SVG 1.1//EN" "http://www.w3.org/Graphics/SVG/1.1/DTD/svg11.dtd">
<svg width="64pt" height="64pt" viewBox="0 0 64 64" version="1.1" xmlns="http://www.w3.org/2000/svg">
<g id="#ffffffff">
<path fill="#ffffff" opacity="1.00" d=" M 0.00 0.00 L 64.00 0.00 L 64.00 64.00 L 0.00 64.00 L 0.00 0.00 M 24.52 11.67 C 20.50 13.35 18.10 17.24 14.44 19.48 C 10.09 22.54 9.47 28.26 10.57 33.07 C 9.26 36.40 10.66 39.75 13.85 41.30 C 14.18 44.15 14.67 47.14 16.60 49.39 C 19.17 52.82 23.53 54.10 27.64 54.14 C 30.18 56.41 33.81 56.42 36.35 54.14 C 39.52 53.94 42.89 53.55 45.39 51.39 C 48.57 49.04 49.89 45.11 50.15 41.30 C 51.89 40.06 54.31 38.43 53.85 35.96 C 52.60 31.99 55.08 27.76 53.03 23.94 C 51.54 19.94 47.31 18.35 44.61 15.37 C 39.65 9.97 31.10 8.51 24.52 11.67 Z" />
<path fill="#ffffff" opacity="1.00" d=" M 21.18 19.17 C 26.17 12.62 37.01 12.35 42.35 18.61 C 46.32 22.65 46.15 28.61 46.00 33.85 C 47.54 34.03 49.89 33.85 50.06 35.98 C 49.94 38.12 47.56 37.96 46.02 38.15 C 46.03 41.40 46.29 45.19 43.68 47.62 C 41.35 50.21 37.67 50.01 34.50 50.08 C 33.33 52.35 30.66 52.36 29.50 50.08 C 26.34 50.00 22.69 50.21 20.35 47.66 C 17.70 45.23 17.96 41.41 17.98 38.15 C 16.54 37.96 13.86 38.14 14.04 35.97 C 13.92 33.82 16.58 34.06 18.00 33.85 C 17.90 28.84 17.61 23.19 21.18 19.17 M 22.34 30.37 C 19.38 31.70 19.94 35.43 20.02 38.07 C 20.05 39.83 21.37 41.48 23.09 41.85 C 26.28 42.31 30.33 42.56 32.00 39.16 C 33.67 42.57 37.73 42.30 40.92 41.85 C 42.61 41.46 43.94 39.85 43.97 38.12 C 44.09 35.46 44.60 31.70 41.61 30.37 C 38.32 29.62 33.72 29.21 31.99 32.85 C 30.21 29.21 25.66 29.62 22.34 30.37 Z" />
<path fill="#ffffff" opacity="1.00" d=" M 24.00 34.00 C 25.33 34.00 26.67 34.00 28.00 34.00 C 28.00 35.33 28.00 36.67 28.00 38.00 C 26.67 38.00 25.33 38.00 24.00 38.00 C 24.00 36.67 24.00 35.33 24.00 34.00 Z" />
<path fill="#ffffff" opacity="1.00" d=" M 36.00 34.00 C 37.33 34.00 38.67 34.00 40.00 34.00 C 40.00 35.33 40.00 36.67 40.00 38.00 C 38.67 38.00 37.33 38.00 36.00 38.00 C 36.00 36.67 36.00 35.33 36.00 34.00 Z" />
</g>
<g id="#000000ff">
<path fill="#000000" opacity="1.00" d=" M 24.52 11.67 C 31.10 8.51 39.65 9.97 44.61 15.37 C 47.31 18.35 51.54 19.94 53.03 23.94 C 55.08 27.76 52.60 31.99 53.85 35.96 C 54.31 38.43 51.89 40.06 50.15 41.30 C 49.89 45.11 48.57 49.04 45.39 51.39 C 42.89 53.55 39.52 53.94 36.35 54.14 C 33.81 56.42 30.18 56.41 27.64 54.14 C 23.53 54.10 19.17 52.82 16.60 49.39 C 14.67 47.14 14.18 44.15 13.85 41.30 C 10.66 39.75 9.26 36.40 10.57 33.07 C 9.47 28.26 10.09 22.54 14.44 19.48 C 18.10 17.24 20.50 13.35 24.52 11.67 M 21.18 19.17 C 17.61 23.19 17.90 28.84 18.00 33.85 C 16.58 34.06 13.92 33.82 14.04 35.97 C 13.86 38.14 16.54 37.96 17.98 38.15 C 17.96 41.41 17.70 45.23 20.35 47.66 C 22.69 50.21 26.34 50.00 29.50 50.08 C 30.66 52.36 33.33 52.35 34.50 50.08 C 37.67 50.01 41.35 50.21 43.68 47.62 C 46.29 45.19 46.03 41.40 46.02 38.15 C 47.56 37.96 49.94 38.12 50.06 35.98 C 49.89 33.85 47.54 34.03 46.00 33.85 C 46.15 28.61 46.32 22.65 42.35 18.61 C 37.01 12.35 26.17 12.62 21.18 19.17 Z" />
<path fill="#000000" opacity="1.00" d=" M 22.34 30.37 C 25.66 29.62 30.21 29.21 31.99 32.85 C 33.72 29.21 38.32 29.62 41.61 30.37 C 44.60 31.70 44.09 35.46 43.97 38.12 C 43.94 39.85 42.61 41.46 40.92 41.85 C 37.73 42.30 33.67 42.57 32.00 39.16 C 30.33 42.56 26.28 42.31 23.09 41.85 C 21.37 41.48 20.05 39.83 20.02 38.07 C 19.94 35.43 19.38 31.70 22.34 30.37 M 24.00 34.00 C 24.00 35.33 24.00 36.67 24.00 38.00 C 25.33 38.00 26.67 38.00 28.00 38.00 C 28.00 36.67 28.00 35.33 28.00 34.00 C 26.67 34.00 25.33 34.00 24.00 34.00 M 36.00 34.00 C 36.00 35.33 36.00 36.67 36.00 38.00 C 37.33 38.00 38.67 38.00 40.00 38.00 C 40.00 36.67 40.00 35.33 40.00 34.00 C 38.67 34.00 37.33 34.00 36.00 34.00 Z" />
</g>
</svg>
