<?xml version="1.0" encoding="UTF-8" ?>
<!DOCTYPE svg PUBLIC "-//W3C//DTD SVG 1.1//EN" "http://www.w3.org/Graphics/SVG/1.1/DTD/svg11.dtd">
<svg width="64pt" height="64pt" viewBox="0 0 64 64" version="1.1" xmlns="http://www.w3.org/2000/svg">
<g id="#ffffffff">
<path fill="#ffffff" opacity="1.00" d=" M 0.00 0.00 L 64.00 0.00 L 64.00 64.00 L 0.00 64.00 L 0.00 0.00 M 2.03 25.94 C 1.85 31.29 5.78 35.98 10.73 37.62 C 8.52 43.65 11.60 50.99 17.73 53.17 C 22.86 55.32 28.77 53.08 32.00 48.78 C 35.23 53.09 41.16 55.33 46.29 53.16 C 52.39 50.97 55.47 43.64 53.27 37.62 C 57.47 36.13 61.09 32.64 61.78 28.10 C 62.99 22.12 58.82 15.74 52.89 14.39 C 48.59 13.19 44.11 14.93 41.00 17.93 C 36.26 12.84 27.73 12.84 23.00 17.92 C 20.52 15.69 17.44 13.92 14.00 14.04 C 7.63 13.86 1.91 19.58 2.03 25.94 Z" />
<path fill="#ffffff" opacity="1.00" d=" M 7.05 22.03 C 9.72 16.86 17.70 16.81 20.73 21.69 C 19.91 24.40 19.91 27.22 20.54 29.97 C 17.66 30.55 15.07 31.92 12.95 33.95 C 7.57 33.21 4.12 26.78 7.05 22.03 Z" />
<path fill="#ffffff" opacity="1.00" d=" M 25.27 21.74 C 28.21 16.90 35.72 16.91 38.72 21.68 C 37.86 24.52 37.93 27.48 38.66 30.34 C 36.21 31.13 34.48 33.38 32.00 33.99 C 29.53 33.38 27.79 31.13 25.34 30.34 C 26.06 27.50 26.15 24.55 25.27 21.74 Z" />
<path fill="#ffffff" opacity="1.00" d=" M 43.27 21.70 C 46.27 16.81 54.26 16.85 56.92 22.02 C 59.89 26.75 56.43 33.21 51.05 33.95 C 48.93 31.92 46.33 30.55 43.46 29.97 C 44.08 27.22 44.09 24.41 43.27 21.70 Z" />
<path fill="#ffffff" opacity="1.00" d=" M 15.01 38.02 C 18.04 37.58 20.76 36.18 23.02 34.14 C 25.01 36.42 29.20 36.63 29.74 40.01 C 31.16 44.84 27.04 50.14 22.02 49.99 C 16.05 50.24 12.02 43.11 15.01 38.02 Z" />
<path fill="#ffffff" opacity="1.00" d=" M 34.24 40.08 C 34.74 36.64 38.97 36.43 40.98 34.14 C 43.23 36.18 45.96 37.58 48.99 38.02 C 51.48 42.44 49.00 48.68 43.93 49.74 C 38.37 51.41 32.59 45.64 34.24 40.08 Z" />
</g>
<g id="#000000ff">
<path fill="#000000" opacity="1.00" d=" M 2.03 25.94 C 1.91 19.58 7.63 13.86 14.00 14.04 C 17.44 13.92 20.52 15.69 23.00 17.92 C 27.73 12.84 36.26 12.84 41.00 17.93 C 44.11 14.93 48.59 13.19 52.89 14.39 C 58.82 15.74 62.99 22.12 61.78 28.10 C 61.09 32.64 57.47 36.13 53.27 37.62 C 55.47 43.64 52.39 50.97 46.29 53.16 C 41.16 55.33 35.23 53.09 32.00 48.78 C 28.77 53.08 22.86 55.32 17.73 53.17 C 11.60 50.99 8.52 43.65 10.73 37.62 C 5.78 35.98 1.85 31.29 2.03 25.94 M 7.05 22.03 C 4.12 26.78 7.57 33.21 12.95 33.95 C 15.07 31.92 17.66 30.55 20.54 29.97 C 19.91 27.22 19.91 24.40 20.73 21.69 C 17.70 16.81 9.72 16.86 7.05 22.03 M 25.27 21.74 C 26.15 24.55 26.06 27.50 25.34 30.34 C 27.79 31.13 29.53 33.38 32.00 33.99 C 34.48 33.38 36.21 31.13 38.66 30.34 C 37.93 27.48 37.86 24.52 38.72 21.68 C 35.72 16.91 28.21 16.90 25.27 21.74 M 43.27 21.70 C 44.09 24.41 44.08 27.22 43.46 29.97 C 46.33 30.55 48.93 31.92 51.05 33.95 C 56.43 33.21 59.89 26.75 56.92 22.02 C 54.26 16.85 46.27 16.81 43.27 21.70 M 15.01 38.02 C 12.02 43.11 16.05 50.24 22.02 49.99 C 27.04 50.14 31.16 44.84 29.74 40.01 C 29.20 36.63 25.01 36.42 23.02 34.14 C 20.76 36.18 18.04 37.58 15.01 38.02 M 34.24 40.08 C 32.59 45.64 38.37 51.41 43.93 49.74 C 49.00 48.68 51.48 42.44 48.99 38.02 C 45.96 37.58 43.23 36.18 40.98 34.14 C 38.97 36.43 34.74 36.64 34.24 40.08 Z" />
</g>
</svg>
