<?xml version="1.0" encoding="UTF-8" ?>
<!DOCTYPE svg PUBLIC "-//W3C//DTD SVG 1.1//EN" "http://www.w3.org/Graphics/SVG/1.1/DTD/svg11.dtd">
<svg width="60pt" height="60pt" viewBox="0 0 60 60" version="1.1" xmlns="http://www.w3.org/2000/svg">
<g id="#ffffffff">
<path fill="#ffffff" opacity="1.00" d=" M 0.00 0.00 L 60.00 0.00 L 60.00 23.68 C 59.85 17.39 54.29 11.85 47.95 12.04 C 44.51 11.90 41.53 13.78 39.00 15.91 C 34.19 10.87 25.80 10.87 21.00 15.91 C 18.46 13.77 15.47 11.90 12.02 12.04 C 5.77 11.86 0.26 17.26 0.00 23.46 L 0.00 0.00 Z" />
<path fill="#ffffff" opacity="1.00" d=" M 5.03 20.07 C 7.69 14.87 15.69 14.79 18.76 19.65 C 17.90 22.38 17.88 25.24 18.60 27.99 C 15.72 28.54 13.11 29.92 11.02 31.98 C 5.60 31.33 2.14 24.81 5.03 20.07 Z" />
<path fill="#ffffff" opacity="1.00" d=" M 23.24 19.64 C 26.28 14.92 33.71 14.93 36.76 19.64 C 35.85 22.49 35.89 25.47 36.71 28.34 C 34.59 29.16 32.80 30.55 30.95 31.83 C 27.93 32.42 26.12 28.95 23.29 28.33 C 24.11 25.47 24.14 22.49 23.24 19.64 Z" />
<path fill="#ffffff" opacity="1.00" d=" M 41.24 19.65 C 43.19 16.97 46.62 15.35 49.92 16.25 C 54.37 17.20 57.16 22.39 55.54 26.63 C 54.61 29.55 51.87 31.37 48.98 31.98 C 46.88 29.93 44.29 28.54 41.40 27.99 C 42.12 25.23 42.09 22.38 41.24 19.65 Z" />
<path fill="#ffffff" opacity="1.00" d=" M 0.00 24.90 C 0.39 29.92 4.06 33.94 8.65 35.65 C 6.74 41.45 9.29 48.43 15.05 50.89 C 20.26 53.46 26.54 51.30 30.00 46.89 C 33.46 51.33 39.78 53.47 45.00 50.86 C 50.73 48.38 53.24 41.43 51.35 35.64 C 55.87 33.97 59.45 30.05 60.00 25.15 L 60.00 60.00 L 0.00 60.00 L 0.00 24.90 Z" />
<path fill="#ffffff" opacity="1.00" d=" M 13.04 36.01 C 16.06 35.58 18.76 34.13 20.98 32.07 C 22.72 33.59 24.67 34.85 26.84 35.66 C 28.56 38.85 28.35 43.11 25.62 45.68 C 22.67 48.73 17.29 48.73 14.35 45.66 C 11.74 43.18 11.42 39.11 13.04 36.01 Z" />
<path fill="#ffffff" opacity="1.00" d=" M 33.14 35.67 C 35.32 34.85 37.27 33.59 39.01 32.07 C 41.23 34.14 43.94 35.58 46.96 36.01 C 50.00 41.08 45.94 48.24 39.98 47.99 C 33.84 48.22 29.94 40.76 33.14 35.67 Z" />
</g>
<g id="#000000ff">
<path fill="#000000" opacity="1.00" d=" M 0.00 23.46 C 0.26 17.26 5.77 11.86 12.02 12.04 C 15.47 11.90 18.46 13.77 21.00 15.91 C 25.80 10.87 34.19 10.87 39.00 15.91 C 41.53 13.78 44.51 11.90 47.95 12.04 C 54.29 11.85 59.85 17.39 60.00 23.68 L 60.00 25.15 C 59.45 30.05 55.87 33.97 51.35 35.64 C 53.24 41.43 50.73 48.38 45.00 50.86 C 39.78 53.47 33.46 51.33 30.00 46.89 C 26.54 51.30 20.26 53.46 15.05 50.89 C 9.29 48.43 6.74 41.45 8.65 35.65 C 4.06 33.94 0.39 29.92 0.00 24.90 L 0.00 23.46 M 5.03 20.07 C 2.14 24.81 5.60 31.33 11.02 31.98 C 13.11 29.92 15.72 28.54 18.60 27.99 C 17.88 25.24 17.90 22.38 18.76 19.65 C 15.69 14.79 7.69 14.87 5.03 20.07 M 23.24 19.64 C 24.14 22.49 24.11 25.47 23.29 28.33 C 26.12 28.95 27.93 32.42 30.95 31.83 C 32.80 30.55 34.59 29.16 36.71 28.34 C 35.89 25.47 35.85 22.49 36.76 19.64 C 33.71 14.93 26.28 14.92 23.24 19.64 M 41.24 19.65 C 42.09 22.38 42.12 25.23 41.40 27.99 C 44.29 28.54 46.88 29.93 48.98 31.98 C 51.87 31.37 54.61 29.55 55.54 26.63 C 57.16 22.39 54.37 17.20 49.92 16.25 C 46.62 15.35 43.19 16.97 41.24 19.65 M 13.04 36.01 C 11.42 39.11 11.74 43.18 14.35 45.66 C 17.29 48.73 22.67 48.73 25.62 45.68 C 28.35 43.11 28.56 38.85 26.84 35.66 C 24.67 34.85 22.72 33.59 20.98 32.07 C 18.76 34.13 16.06 35.58 13.04 36.01 M 33.14 35.67 C 29.94 40.76 33.84 48.22 39.98 47.99 C 45.94 48.24 50.00 41.08 46.96 36.01 C 43.94 35.58 41.23 34.14 39.01 32.07 C 37.27 33.59 35.32 34.85 33.14 35.67 Z" />
</g>
</svg>
