<?xml version="1.0" encoding="UTF-8" ?>
<!DOCTYPE svg PUBLIC "-//W3C//DTD SVG 1.1//EN" "http://www.w3.org/Graphics/SVG/1.1/DTD/svg11.dtd">
<svg width="60pt" height="60pt" viewBox="0 0 60 60" version="1.1" xmlns="http://www.w3.org/2000/svg">
<g id="#ffffffff">
<path fill="#ffffff" opacity="1.00" d=" M 0.00 0.00 L 60.00 0.00 L 60.00 23.45 C 59.71 17.26 54.22 11.86 47.97 12.04 C 44.52 11.89 41.55 13.80 39.00 15.89 C 36.44 13.78 33.44 11.88 29.98 12.04 C 26.53 11.88 23.55 13.79 21.00 15.89 C 18.44 13.78 15.44 11.88 11.98 12.04 C 5.79 11.89 0.36 17.19 0.00 23.31 L 0.00 0.00 Z" />
<path fill="#ffffff" opacity="1.00" d=" M 7.42 17.44 C 10.78 14.99 15.87 15.87 18.37 19.15 C 18.62 22.07 17.53 25.08 18.58 28.01 C 15.69 28.54 13.08 29.96 10.98 32.00 C 9.11 31.40 7.12 30.75 5.88 29.12 C 2.87 25.74 3.64 19.92 7.42 17.44 Z" />
<path fill="#ffffff" opacity="1.00" d=" M 23.59 19.18 C 26.77 14.82 33.94 15.14 36.78 19.72 C 35.82 22.53 35.92 25.50 36.70 28.33 C 34.20 29.09 32.48 31.41 29.98 32.00 C 27.50 31.39 25.78 29.10 23.30 28.32 C 24.42 25.31 23.49 22.22 23.59 19.18 Z" />
<path fill="#ffffff" opacity="1.00" d=" M 41.23 19.73 C 43.35 16.52 47.73 15.02 51.28 16.71 C 55.45 18.43 57.29 24.00 54.97 27.87 C 53.82 30.19 51.39 31.33 49.03 32.02 C 46.94 29.94 44.29 28.58 41.41 27.98 C 42.09 25.25 42.13 22.42 41.23 19.73 Z" />
<path fill="#ffffff" opacity="1.00" d=" M 0.00 25.09 C 0.50 30.03 4.11 33.94 8.63 35.65 C 8.13 38.50 7.63 41.54 8.83 44.29 C 10.85 49.82 17.28 53.17 22.97 51.61 C 25.84 51.00 28.00 48.92 30.00 46.91 C 33.47 51.28 39.70 53.46 44.91 50.90 C 50.70 48.46 53.23 41.47 51.36 35.65 C 55.83 33.97 59.34 30.14 60.00 25.32 L 60.00 60.00 L 0.00 60.00 L 0.00 25.09 Z" />
<path fill="#ffffff" opacity="1.00" d=" M 13.02 36.02 C 16.04 35.58 18.74 34.13 20.98 32.08 C 22.96 34.45 27.24 34.61 27.75 38.05 C 29.14 42.87 25.02 48.14 20.02 47.99 C 14.05 48.24 10.01 41.10 13.02 36.02 Z" />
<path fill="#ffffff" opacity="1.00" d=" M 33.21 35.62 C 35.36 34.83 37.28 33.56 39.01 32.08 C 41.25 34.14 43.96 35.58 46.98 36.02 C 48.54 39.13 48.26 43.16 45.66 45.64 C 42.55 48.93 36.69 48.68 33.86 45.13 C 31.56 42.50 31.56 38.58 33.21 35.62 Z" />
</g>
<g id="#000000ff">
<path fill="#000000" opacity="1.00" d=" M 0.00 23.31 C 0.36 17.19 5.79 11.89 11.98 12.04 C 15.44 11.88 18.44 13.78 21.00 15.89 C 23.55 13.79 26.53 11.88 29.98 12.04 C 33.44 11.88 36.44 13.78 39.00 15.89 C 41.55 13.80 44.52 11.89 47.97 12.04 C 54.22 11.86 59.71 17.26 60.00 23.45 L 60.00 25.32 C 59.34 30.14 55.83 33.97 51.36 35.65 C 53.23 41.47 50.70 48.46 44.91 50.90 C 39.70 53.46 33.47 51.28 30.00 46.91 C 28.00 48.92 25.84 51.00 22.97 51.61 C 17.28 53.17 10.85 49.82 8.83 44.29 C 7.63 41.54 8.13 38.50 8.63 35.65 C 4.11 33.94 0.50 30.03 0.00 25.09 L 0.00 23.31 M 7.42 17.44 C 3.64 19.92 2.87 25.74 5.88 29.12 C 7.12 30.75 9.11 31.40 10.98 32.00 C 13.08 29.96 15.69 28.54 18.58 28.01 C 17.53 25.08 18.62 22.07 18.37 19.15 C 15.87 15.87 10.78 14.99 7.42 17.44 M 23.59 19.18 C 23.49 22.22 24.42 25.31 23.30 28.32 C 25.78 29.10 27.50 31.39 29.98 32.00 C 32.48 31.41 34.20 29.09 36.70 28.33 C 35.92 25.50 35.82 22.53 36.78 19.72 C 33.94 15.14 26.77 14.82 23.59 19.18 M 41.23 19.73 C 42.13 22.42 42.09 25.25 41.41 27.98 C 44.29 28.58 46.94 29.94 49.03 32.02 C 51.39 31.33 53.82 30.19 54.97 27.87 C 57.29 24.00 55.45 18.43 51.28 16.71 C 47.73 15.02 43.35 16.52 41.23 19.73 M 13.02 36.02 C 10.01 41.10 14.05 48.24 20.02 47.99 C 25.02 48.14 29.14 42.87 27.75 38.05 C 27.24 34.61 22.96 34.45 20.98 32.08 C 18.74 34.13 16.04 35.58 13.02 36.02 M 33.21 35.62 C 31.56 38.58 31.56 42.50 33.86 45.13 C 36.69 48.68 42.55 48.93 45.66 45.64 C 48.26 43.16 48.54 39.13 46.98 36.02 C 43.96 35.58 41.25 34.14 39.01 32.08 C 37.28 33.56 35.36 34.83 33.21 35.62 Z" />
</g>
</svg>
