<?xml version="1.0" encoding="UTF-8" ?>
<!DOCTYPE svg PUBLIC "-//W3C//DTD SVG 1.1//EN" "http://www.w3.org/Graphics/SVG/1.1/DTD/svg11.dtd">
<svg width="64pt" height="64pt" viewBox="0 0 64 64" version="1.1" xmlns="http://www.w3.org/2000/svg">
<g id="#ffffffff">
<path fill="#ffffff" opacity="1.00" d=" M 0.00 0.00 L 64.00 0.00 L 64.00 64.00 L 0.00 64.00 L 0.00 0.00 M 30.36 8.37 C 27.64 9.49 27.13 13.67 29.71 15.24 C 31.62 16.79 34.66 15.83 35.61 13.65 C 37.32 10.56 33.47 6.65 30.36 8.37 M 12.38 18.36 C 7.54 20.25 11.07 28.07 15.68 25.60 C 20.39 23.68 16.95 16.01 12.38 18.36 M 48.35 18.38 C 43.56 20.28 47.06 28.03 51.65 25.61 C 56.41 23.71 52.94 15.96 48.35 18.38 M 27.79 23.75 C 26.00 25.32 26.08 27.84 25.86 30.00 C 25.40 30.00 24.47 30.01 24.00 30.01 C 24.00 34.01 24.00 38.00 24.00 42.00 C 29.33 42.00 34.67 42.00 40.00 42.00 C 40.00 38.00 40.00 34.01 40.00 30.01 C 39.53 30.01 38.60 30.00 38.14 30.00 C 37.89 28.08 38.06 25.90 36.71 24.33 C 34.68 21.52 30.16 21.22 27.79 23.75 M 12.37 36.36 C 7.57 38.25 11.04 46.01 15.64 43.62 C 20.40 41.74 16.96 33.99 12.37 36.36 M 48.37 36.36 C 43.59 38.24 47.01 45.98 51.61 43.63 C 56.41 41.78 52.99 33.98 48.37 36.36 M 30.36 48.37 C 25.58 50.26 29.03 58.00 33.63 55.62 C 38.41 53.75 34.96 45.98 30.36 48.37 Z" />
<path fill="#ffffff" opacity="1.00" d=" M 29.83 29.99 C 30.07 28.61 29.87 25.80 32.01 26.06 C 34.13 25.84 33.93 28.61 34.17 29.99 C 32.72 30.00 31.28 30.00 29.83 29.99 Z" />
<path fill="#ffffff" opacity="1.00" d=" M 30.27 34.19 C 32.45 31.87 36.16 35.64 33.75 37.77 C 31.58 40.17 27.79 36.33 30.27 34.19 Z" />
</g>
<g id="#000000ff">
<path fill="#000000" opacity="1.00" d=" M 30.36 8.37 C 33.47 6.65 37.32 10.56 35.61 13.65 C 34.66 15.83 31.62 16.79 29.71 15.24 C 27.13 13.67 27.64 9.49 30.36 8.37 Z" />
<path fill="#000000" opacity="1.00" d=" M 12.38 18.36 C 16.95 16.01 20.39 23.68 15.68 25.60 C 11.07 28.07 7.54 20.25 12.38 18.36 Z" />
<path fill="#000000" opacity="1.00" d=" M 48.35 18.38 C 52.94 15.96 56.41 23.71 51.65 25.61 C 47.06 28.03 43.56 20.28 48.35 18.38 Z" />
<path fill="#000000" opacity="1.00" d=" M 27.79 23.75 C 30.16 21.22 34.68 21.52 36.71 24.33 C 38.06 25.90 37.89 28.08 38.14 30.00 C 38.60 30.00 39.53 30.01 40.00 30.01 C 40.00 34.01 40.00 38.00 40.00 42.00 C 34.67 42.00 29.33 42.00 24.00 42.00 C 24.00 38.00 24.00 34.01 24.00 30.01 C 24.47 30.01 25.40 30.00 25.86 30.00 C 26.08 27.84 26.00 25.32 27.79 23.75 M 29.83 29.99 C 31.28 30.00 32.72 30.00 34.17 29.99 C 33.93 28.61 34.13 25.84 32.01 26.06 C 29.87 25.80 30.07 28.61 29.83 29.99 M 30.27 34.19 C 27.79 36.33 31.58 40.17 33.75 37.77 C 36.16 35.64 32.45 31.87 30.27 34.19 Z" />
<path fill="#000000" opacity="1.00" d=" M 12.37 36.36 C 16.96 33.99 20.40 41.74 15.64 43.62 C 11.04 46.01 7.57 38.25 12.37 36.36 Z" />
<path fill="#000000" opacity="1.00" d=" M 48.37 36.36 C 52.99 33.98 56.41 41.78 51.61 43.63 C 47.01 45.98 43.59 38.24 48.37 36.36 Z" />
<path fill="#000000" opacity="1.00" d=" M 30.36 48.37 C 34.96 45.98 38.41 53.75 33.63 55.62 C 29.03 58.00 25.58 50.26 30.36 48.37 Z" />
</g>
</svg>
