<?xml version="1.0" encoding="UTF-8" ?>
<!DOCTYPE svg PUBLIC "-//W3C//DTD SVG 1.1//EN" "http://www.w3.org/Graphics/SVG/1.1/DTD/svg11.dtd">
<svg width="60pt" height="60pt" viewBox="0 0 60 60" version="1.1" xmlns="http://www.w3.org/2000/svg">
<g id="#ffffffff">
<path fill="#ffffff" opacity="1.00" d=" M 0.00 0.00 L 60.00 0.00 L 60.00 60.00 L 0.00 60.00 L 0.00 0.00 M 28.49 4.49 C 26.90 5.87 26.14 8.43 23.87 8.85 C 21.83 8.78 20.09 7.48 18.13 7.03 C 14.81 7.62 15.97 11.54 14.94 13.85 C 13.13 16.80 7.77 14.09 7.03 18.11 C 7.49 19.81 8.35 21.37 8.81 23.07 C 9.38 26.86 3.02 27.09 4.04 30.94 C 5.19 32.45 6.95 33.31 8.23 34.69 C 10.62 37.66 4.97 41.21 8.20 43.89 C 10.03 44.55 12.05 44.38 13.87 45.07 C 16.80 46.88 14.10 52.24 18.12 52.96 C 19.81 52.51 21.35 51.67 23.02 51.19 C 26.82 50.50 27.05 56.98 30.91 55.91 C 32.96 54.72 33.57 51.74 36.01 51.16 C 38.07 51.13 39.82 52.49 41.78 52.95 C 45.16 52.46 44.03 48.46 45.04 46.14 C 46.86 43.21 52.24 45.90 52.95 41.86 C 52.56 39.59 50.46 37.48 51.44 35.11 C 52.67 33.45 54.72 32.62 55.94 30.95 C 56.87 27.30 51.51 26.98 51.14 23.78 C 51.22 21.73 52.68 20.04 52.92 18.03 C 52.44 15.04 48.91 15.85 46.78 15.15 C 42.87 14.06 46.13 7.80 41.93 7.04 C 39.44 7.42 36.46 10.30 34.27 7.80 C 32.78 6.18 31.11 2.58 28.49 4.49 Z" />
<path fill="#ffffff" opacity="1.00" d=" M 28.28 14.00 C 29.52 13.99 30.76 13.99 32.00 14.00 C 32.00 19.33 32.00 24.66 32.00 30.00 C 30.67 30.00 29.33 30.00 28.00 30.00 C 28.00 26.67 28.00 23.34 28.00 20.00 C 27.19 20.00 25.58 20.00 24.77 20.00 C 24.78 19.40 24.80 18.22 24.81 17.63 C 26.05 16.49 27.11 15.20 28.28 14.00 Z" />
<path fill="#ffffff" opacity="1.00" d=" M 16.00 33.94 C 18.06 34.27 20.85 33.16 22.14 35.38 C 20.78 35.52 19.41 35.64 18.05 35.75 L 18.02 37.46 C 18.79 37.47 20.35 37.47 21.13 37.47 C 21.13 37.85 21.13 38.62 21.13 39.00 C 20.36 39.00 18.81 39.00 18.04 39.00 C 18.04 39.75 18.04 41.25 18.04 42.00 C 17.53 42.00 16.51 42.00 16.00 42.00 C 16.00 39.31 16.00 36.62 16.00 33.94 Z" />
<path fill="#ffffff" opacity="1.00" d=" M 24.00 33.92 C 26.27 34.11 30.91 33.30 30.40 36.93 C 30.16 37.53 29.68 38.74 29.43 39.34 C 29.77 40.11 30.44 41.64 30.77 42.41 C 28.43 42.32 27.47 40.19 26.14 38.64 C 26.09 39.48 26.00 41.16 25.95 42.00 C 25.46 42.00 24.49 42.00 24.00 42.00 C 24.00 39.31 24.00 36.61 24.00 33.92 M 26.00 35.67 C 24.72 37.08 27.02 39.34 28.27 37.70 C 29.62 36.28 27.27 34.25 26.00 35.67 Z" />
<path fill="#ffffff" opacity="1.00" d=" M 32.00 33.94 C 34.07 34.27 36.87 33.17 38.19 35.37 C 36.79 35.51 35.39 35.65 33.99 35.76 L 34.08 36.86 C 35.53 37.27 37.02 37.57 38.48 37.97 C 37.05 38.52 35.51 38.59 34.05 39.01 L 33.98 40.12 C 35.59 40.30 37.18 40.62 38.75 41.02 C 36.66 42.13 34.29 42.03 32.00 42.07 C 32.00 39.36 32.00 36.65 32.00 33.94 Z" />
<path fill="#ffffff" opacity="1.00" d=" M 40.00 33.94 C 42.07 34.28 44.88 33.15 46.18 35.37 C 44.79 35.52 43.39 35.65 41.99 35.76 L 42.07 36.91 C 43.49 37.15 44.87 37.55 46.16 38.19 C 44.79 38.44 43.41 38.68 42.04 38.92 L 42.03 40.24 C 43.42 40.36 44.81 40.49 46.20 40.64 C 44.86 42.83 42.07 41.73 40.00 42.06 C 40.00 39.35 40.00 36.65 40.00 33.94 Z" />
</g>
<g id="#000000ff">
<path fill="#968176" opacity="1.00" d=" M 28.49 4.49 C 31.11 2.58 32.78 6.18 34.27 7.80 C 36.46 10.30 39.44 7.42 41.93 7.04 C 46.13 7.80 42.87 14.06 46.78 15.15 C 48.91 15.85 52.44 15.04 52.92 18.03 C 52.68 20.04 51.22 21.73 51.14 23.78 C 51.51 26.98 56.87 27.30 55.94 30.95 C 54.72 32.62 52.67 33.45 51.44 35.11 C 50.46 37.48 52.56 39.59 52.95 41.86 C 52.24 45.90 46.86 43.21 45.04 46.14 C 44.03 48.46 45.16 52.46 41.78 52.95 C 39.82 52.49 38.07 51.13 36.01 51.16 C 33.57 51.74 32.96 54.72 30.91 55.91 C 27.05 56.98 26.82 50.50 23.02 51.19 C 21.35 51.67 19.81 52.51 18.12 52.96 C 14.10 52.24 16.80 46.88 13.87 45.07 C 12.05 44.38 10.03 44.55 8.20 43.89 C 4.97 41.21 10.62 37.66 8.23 34.69 C 6.95 33.31 5.19 32.45 4.04 30.94 C 3.02 27.09 9.38 26.86 8.81 23.07 C 8.35 21.37 7.49 19.81 7.03 18.11 C 7.77 14.09 13.13 16.80 14.94 13.85 C 15.97 11.54 14.81 7.62 18.13 7.03 C 20.09 7.48 21.83 8.78 23.87 8.85 C 26.14 8.43 26.90 5.87 28.49 4.49 M 28.28 14.00 C 27.11 15.20 26.05 16.49 24.81 17.63 C 24.80 18.22 24.78 19.40 24.77 20.00 C 25.58 20.00 27.19 20.00 28.00 20.00 C 28.00 23.34 28.00 26.67 28.00 30.00 C 29.33 30.00 30.67 30.00 32.00 30.00 C 32.00 24.66 32.00 19.33 32.00 14.00 C 30.76 13.99 29.52 13.99 28.28 14.00 M 16.00 33.94 C 16.00 36.62 16.00 39.31 16.00 42.00 C 16.51 42.00 17.53 42.00 18.04 42.00 C 18.04 41.25 18.04 39.75 18.04 39.00 C 18.81 39.00 20.36 39.00 21.13 39.00 C 21.13 38.62 21.13 37.85 21.13 37.47 C 20.35 37.47 18.79 37.47 18.02 37.46 L 18.05 35.75 C 19.41 35.64 20.78 35.52 22.14 35.38 C 20.85 33.16 18.06 34.27 16.00 33.94 M 24.00 33.92 C 24.00 36.61 24.00 39.31 24.00 42.00 C 24.49 42.00 25.46 42.00 25.95 42.00 C 26.00 41.16 26.09 39.48 26.14 38.64 C 27.47 40.19 28.43 42.32 30.77 42.41 C 30.44 41.64 29.77 40.11 29.43 39.34 C 29.68 38.74 30.16 37.53 30.40 36.93 C 30.91 33.30 26.27 34.11 24.00 33.92 M 32.00 33.94 C 32.00 36.65 32.00 39.36 32.00 42.07 C 34.29 42.03 36.66 42.13 38.75 41.02 C 37.18 40.62 35.59 40.30 33.98 40.12 L 34.05 39.01 C 35.51 38.59 37.05 38.52 38.48 37.97 C 37.02 37.57 35.53 37.27 34.08 36.86 L 33.99 35.76 C 35.39 35.65 36.79 35.51 38.19 35.37 C 36.87 33.17 34.07 34.27 32.00 33.94 M 40.00 33.94 C 40.00 36.65 40.00 39.35 40.00 42.06 C 42.07 41.73 44.86 42.83 46.20 40.64 C 44.81 40.49 43.42 40.36 42.03 40.24 L 42.04 38.92 C 43.41 38.68 44.79 38.44 46.16 38.19 C 44.87 37.55 43.49 37.15 42.07 36.91 L 41.99 35.76 C 43.39 35.65 44.79 35.52 46.18 35.37 C 44.88 33.15 42.07 34.28 40.00 33.94 Z" />
<path fill="#968176" opacity="1.00" d=" M 26.00 35.67 C 27.27 34.25 29.62 36.28 28.27 37.70 C 27.02 39.34 24.72 37.08 26.00 35.67 Z" />
</g>
</svg>
