<?xml version="1.0" encoding="UTF-8" ?>
<!DOCTYPE svg PUBLIC "-//W3C//DTD SVG 1.1//EN" "http://www.w3.org/Graphics/SVG/1.1/DTD/svg11.dtd">
<svg width="60pt" height="60pt" viewBox="0 0 60 60" version="1.1" xmlns="http://www.w3.org/2000/svg">
<g id="#ffffffff">
<path fill="#ffffff" opacity="1.00" d=" M 0.00 0.00 L 60.00 0.00 L 60.00 60.00 L 0.00 60.00 L 0.00 0.00 M 12.31 4.40 C 10.58 5.18 9.82 7.14 10.00 8.95 C 10.03 23.33 9.93 37.72 10.05 52.10 C 9.94 54.65 12.61 56.34 14.96 56.00 C 25.32 55.97 35.69 56.06 46.05 55.96 C 48.57 56.03 50.36 53.44 50.00 51.07 C 49.88 40.11 50.26 29.13 49.81 18.19 C 45.37 13.33 40.65 8.68 35.83 4.20 C 30.24 3.71 24.61 4.16 19.01 3.99 C 16.79 4.11 14.44 3.65 12.31 4.40 Z" />
<path fill="#ffffff" opacity="1.00" d=" M 34.01 7.81 C 38.07 11.87 42.13 15.93 46.19 19.99 C 42.50 19.92 38.80 20.22 35.13 19.83 C 34.89 19.59 34.41 19.11 34.17 18.87 C 33.78 15.19 34.08 11.49 34.01 7.81 Z" />
<path fill="#ffffff" opacity="1.00" d=" M 23.86 30.78 C 26.18 28.83 28.86 27.41 32.00 27.95 C 32.00 33.30 32.00 38.65 32.00 44.00 C 30.64 44.00 29.29 44.00 27.93 44.00 C 27.93 39.85 27.92 35.71 27.94 31.57 C 26.58 32.47 25.22 33.37 23.87 34.27 C 23.87 33.40 23.86 31.65 23.86 30.78 Z" />
</g>
<g id="#000000ff">
<path fill="#000000" opacity="1.00" d=" M 12.31 4.40 C 14.44 3.65 16.79 4.11 19.01 3.99 C 24.61 4.16 30.24 3.71 35.83 4.20 C 40.65 8.68 45.37 13.33 49.81 18.19 C 50.26 29.13 49.88 40.11 50.00 51.07 C 50.36 53.44 48.57 56.03 46.05 55.96 C 35.69 56.06 25.32 55.97 14.96 56.00 C 12.61 56.34 9.94 54.65 10.05 52.10 C 9.93 37.72 10.03 23.33 10.00 8.95 C 9.82 7.14 10.58 5.18 12.31 4.40 M 34.01 7.81 C 34.08 11.49 33.78 15.19 34.17 18.87 C 34.41 19.11 34.89 19.59 35.13 19.83 C 38.80 20.22 42.50 19.92 46.19 19.99 C 42.13 15.93 38.07 11.87 34.01 7.81 M 23.86 30.78 C 23.86 31.65 23.87 33.40 23.87 34.27 C 25.22 33.37 26.58 32.47 27.94 31.57 C 27.92 35.71 27.93 39.85 27.93 44.00 C 29.29 44.00 30.64 44.00 32.00 44.00 C 32.00 38.65 32.00 33.30 32.00 27.95 C 28.86 27.41 26.18 28.83 23.86 30.78 Z" />
</g>
</svg>
