<?xml version="1.0" encoding="UTF-8" ?>
<!DOCTYPE svg PUBLIC "-//W3C//DTD SVG 1.1//EN" "http://www.w3.org/Graphics/SVG/1.1/DTD/svg11.dtd">
<svg width="60pt" height="60pt" viewBox="0 0 60 60" version="1.1" xmlns="http://www.w3.org/2000/svg">
<g id="#ffffffff">
<path fill="#ffffff" opacity="1.00" d=" M 0.00 0.00 L 60.00 0.00 L 60.00 60.00 L 0.00 60.00 L 0.00 0.00 M 6.30 10.40 C 4.57 11.20 3.82 13.16 4.00 14.97 C 4.04 25.38 3.92 35.79 4.06 46.19 C 3.99 48.70 6.64 50.32 8.95 50.00 C 23.35 49.97 37.76 50.08 52.17 49.94 C 54.64 49.96 56.32 47.40 56.00 45.08 C 56.01 35.05 56.00 25.01 56.00 14.98 C 56.32 12.64 54.68 9.95 52.12 10.05 C 38.44 9.91 24.75 10.07 11.06 9.98 C 9.48 10.07 7.80 9.79 6.30 10.40 Z" />
<path fill="#ffffff" opacity="1.00" d=" M 15.76 25.32 C 17.84 23.68 20.22 22.55 22.93 22.83 C 22.94 27.57 22.93 32.32 22.94 37.07 C 21.74 37.06 20.55 37.06 19.35 37.06 C 19.36 33.40 19.36 29.74 19.35 26.08 C 18.15 26.88 16.96 27.67 15.77 28.47 C 15.77 27.68 15.76 26.11 15.76 25.32 Z" />
<path fill="#ffffff" opacity="1.00" d=" M 37.06 25.32 C 39.14 23.68 41.50 22.53 44.23 22.82 C 44.23 27.57 44.23 32.32 44.23 37.07 C 43.33 37.07 41.54 37.07 40.64 37.07 C 40.65 33.41 40.64 29.74 40.64 26.08 C 39.44 26.88 38.25 27.68 37.06 28.47 C 37.06 27.69 37.06 26.11 37.06 25.32 Z" />
<path fill="#ffffff" opacity="1.00" d=" M 29.25 25.25 C 31.06 23.66 33.98 26.38 32.01 28.10 C 30.16 29.97 27.19 27.02 29.25 25.25 Z" />
<path fill="#ffffff" opacity="1.00" d=" M 29.29 32.34 C 30.98 30.93 33.72 33.12 32.22 35.00 C 30.56 37.14 26.95 34.25 29.29 32.34 Z" />
</g>
<g id="#000000ff">
<path fill="#000000" opacity="1.00" d=" M 6.30 10.40 C 7.80 9.79 9.48 10.07 11.06 9.98 C 24.75 10.07 38.44 9.91 52.12 10.05 C 54.68 9.95 56.32 12.64 56.00 14.98 C 56.00 25.01 56.01 35.05 56.00 45.08 C 56.32 47.40 54.64 49.96 52.17 49.94 C 37.76 50.08 23.35 49.97 8.95 50.00 C 6.64 50.32 3.99 48.70 4.06 46.19 C 3.92 35.79 4.04 25.38 4.00 14.97 C 3.82 13.16 4.57 11.20 6.30 10.40 M 15.76 25.32 C 15.76 26.11 15.77 27.68 15.77 28.47 C 16.96 27.67 18.15 26.88 19.35 26.08 C 19.36 29.74 19.36 33.40 19.35 37.06 C 20.55 37.06 21.74 37.06 22.94 37.07 C 22.93 32.32 22.94 27.57 22.93 22.83 C 20.22 22.55 17.84 23.68 15.76 25.32 M 37.06 25.32 C 37.06 26.11 37.06 27.69 37.06 28.47 C 38.25 27.68 39.44 26.88 40.64 26.08 C 40.64 29.74 40.65 33.41 40.64 37.07 C 41.54 37.07 43.33 37.07 44.23 37.07 C 44.23 32.32 44.23 27.57 44.23 22.82 C 41.50 22.53 39.14 23.68 37.06 25.32 M 29.25 25.25 C 27.19 27.02 30.16 29.97 32.01 28.10 C 33.98 26.38 31.06 23.66 29.25 25.25 M 29.29 32.34 C 26.95 34.25 30.56 37.14 32.22 35.00 C 33.72 33.12 30.98 30.93 29.29 32.34 Z" />
</g>
</svg>
