<?xml version="1.0" encoding="UTF-8" ?>
<!DOCTYPE svg PUBLIC "-//W3C//DTD SVG 1.1//EN" "http://www.w3.org/Graphics/SVG/1.1/DTD/svg11.dtd">
<svg width="60pt" height="60pt" viewBox="0 0 60 60" version="1.1" xmlns="http://www.w3.org/2000/svg">
<g id="#ffffffff">
<path fill="#ffffff" opacity="1.00" d=" M 0.00 0.00 L 60.00 0.00 L 60.00 60.00 L 0.00 60.00 L 0.00 0.00 M 25.77 7.78 C 20.49 10.86 15.04 13.66 9.77 16.77 C 7.87 17.78 8.01 20.14 7.97 21.97 C 8.08 30.69 7.90 39.40 8.05 48.12 C 7.88 50.43 10.10 51.63 11.97 52.23 C 12.03 41.48 11.99 30.74 12.00 20.00 C 24.00 20.00 36.00 20.00 48.00 20.00 C 48.01 30.74 47.97 41.48 48.03 52.22 C 49.93 51.65 52.08 50.35 51.94 48.07 C 52.03 38.67 52.06 29.26 51.93 19.87 C 52.06 17.40 49.53 16.30 47.75 15.26 C 42.35 12.40 37.11 9.21 31.68 6.42 C 29.60 5.27 27.56 6.85 25.77 7.78 M 16.00 24.00 C 16.00 33.33 16.00 42.67 16.00 52.00 C 25.33 52.00 34.67 52.00 44.00 52.00 C 44.00 42.67 44.00 33.33 44.00 24.00 C 34.67 24.00 25.33 24.00 16.00 24.00 Z" />
<path fill="#ffffff" opacity="1.00" d=" M 22.00 38.00 C 24.67 35.32 27.35 32.66 30.02 29.98 C 32.68 32.66 35.36 35.32 38.03 38.00 C 36.02 37.98 34.01 38.02 32.00 38.00 C 32.01 41.33 31.99 44.67 32.00 48.01 C 30.67 47.98 29.33 47.98 28.00 48.01 C 28.01 44.67 27.99 41.33 28.00 38.00 C 26.00 38.01 24.00 38.00 22.00 38.00 Z" />
</g>
<g id="#000000ff">
<path fill="#000000" opacity="1.00" d=" M 25.77 7.78 C 27.56 6.85 29.60 5.27 31.68 6.42 C 37.11 9.21 42.35 12.40 47.75 15.26 C 49.53 16.30 52.06 17.40 51.93 19.87 C 52.06 29.26 52.03 38.67 51.94 48.07 C 52.08 50.35 49.93 51.65 48.03 52.22 C 47.97 41.48 48.01 30.74 48.00 20.00 C 36.00 20.00 24.00 20.00 12.00 20.00 C 11.99 30.74 12.03 41.48 11.97 52.23 C 10.10 51.63 7.88 50.43 8.05 48.12 C 7.90 39.40 8.08 30.69 7.97 21.97 C 8.01 20.14 7.87 17.78 9.77 16.77 C 15.04 13.66 20.49 10.86 25.77 7.78 Z" />
<path fill="#000000" opacity="1.00" d=" M 16.00 24.00 C 25.33 24.00 34.67 24.00 44.00 24.00 C 44.00 33.33 44.00 42.67 44.00 52.00 C 34.67 52.00 25.33 52.00 16.00 52.00 C 16.00 42.67 16.00 33.33 16.00 24.00 M 22.00 38.00 C 24.00 38.00 26.00 38.01 28.00 38.00 C 27.99 41.33 28.01 44.67 28.00 48.01 C 29.33 47.98 30.67 47.98 32.00 48.01 C 31.99 44.67 32.01 41.33 32.00 38.00 C 34.01 38.02 36.02 37.98 38.03 38.00 C 35.36 35.32 32.68 32.66 30.02 29.98 C 27.35 32.66 24.67 35.32 22.00 38.00 Z" />
</g>
</svg>
