<?xml version="1.0" encoding="UTF-8" ?>
<!DOCTYPE svg PUBLIC "-//W3C//DTD SVG 1.1//EN" "http://www.w3.org/Graphics/SVG/1.1/DTD/svg11.dtd">
<svg width="60pt" height="60pt" viewBox="0 0 60 60" version="1.1" xmlns="http://www.w3.org/2000/svg">
<g id="#ffffffff">
<path fill="#ffffff" opacity="1.00" d=" M 0.00 0.00 L 60.00 0.00 L 60.00 60.00 L 0.00 60.00 L 0.00 0.00 M 24.44 6.66 C 17.34 8.32 11.15 13.42 8.16 20.07 C 5.19 26.51 5.31 34.27 8.49 40.60 C 11.94 47.68 19.06 52.81 26.88 53.78 C 34.13 54.78 41.76 52.19 46.91 46.98 C 51.65 42.30 54.30 35.58 53.95 28.92 C 53.70 22.07 50.26 15.45 44.89 11.21 C 39.26 6.64 31.48 4.97 24.44 6.66 Z" />
<path fill="#ffffff" opacity="1.00" d=" M 18.56 13.58 C 25.78 8.38 36.45 8.94 43.08 14.87 C 46.94 18.07 49.06 22.81 50.00 27.64 C 46.51 25.05 42.41 23.56 38.19 22.67 C 37.17 17.41 30.83 14.87 26.19 17.15 C 23.81 18.05 22.53 20.37 21.81 22.67 C 17.59 23.56 13.49 25.05 9.99 27.64 C 10.99 22.10 13.80 16.76 18.56 13.58 Z" />
<path fill="#ffffff" opacity="1.00" d=" M 28.36 21.44 C 29.81 20.56 31.63 21.16 32.80 22.22 C 33.53 24.90 29.37 25.75 27.76 24.18 C 26.53 23.60 27.10 21.66 28.36 21.44 Z" />
<path fill="#ffffff" opacity="1.00" d=" M 11.29 37.48 C 22.67 43.56 37.34 43.67 48.67 37.43 C 45.38 45.07 37.42 50.55 28.99 49.94 C 21.23 49.72 14.44 44.40 11.29 37.48 Z" />
</g>
<g id="#000000ff">
<path fill="#000000" opacity="1.00" d=" M 24.44 6.66 C 31.48 4.97 39.26 6.64 44.89 11.21 C 50.26 15.45 53.70 22.07 53.95 28.92 C 54.30 35.58 51.65 42.30 46.91 46.98 C 41.76 52.19 34.13 54.78 26.88 53.78 C 19.06 52.81 11.94 47.68 8.49 40.60 C 5.31 34.27 5.19 26.51 8.16 20.07 C 11.15 13.42 17.34 8.32 24.44 6.66 M 18.56 13.58 C 13.80 16.76 10.99 22.10 9.99 27.64 C 13.49 25.05 17.59 23.56 21.81 22.67 C 22.53 20.37 23.81 18.05 26.19 17.15 C 30.83 14.87 37.17 17.41 38.19 22.67 C 42.41 23.56 46.51 25.05 50.00 27.64 C 49.06 22.81 46.94 18.07 43.08 14.87 C 36.45 8.94 25.78 8.38 18.56 13.58 M 28.36 21.44 C 27.10 21.66 26.53 23.60 27.76 24.18 C 29.37 25.75 33.53 24.90 32.80 22.22 C 31.63 21.16 29.81 20.56 28.36 21.44 M 11.29 37.48 C 14.44 44.40 21.23 49.72 28.99 49.94 C 37.42 50.55 45.38 45.07 48.67 37.43 C 37.34 43.67 22.67 43.56 11.29 37.48 Z" />
</g>
</svg>
