<?xml version="1.0" encoding="UTF-8" ?>
<!DOCTYPE svg PUBLIC "-//W3C//DTD SVG 1.1//EN" "http://www.w3.org/Graphics/SVG/1.1/DTD/svg11.dtd">
<svg width="64pt" height="64pt" viewBox="0 0 64 64" version="1.1" xmlns="http://www.w3.org/2000/svg">
<g id="#ffffffff">
<path fill="#ffffff" opacity="1.00" d=" M 0.00 0.00 L 64.00 0.00 L 64.00 64.00 L 0.00 64.00 L 0.00 0.00 M 12.00 6.00 C 12.00 23.33 12.00 40.67 12.00 58.00 C 25.33 58.00 38.67 58.00 52.00 58.00 C 52.00 40.67 52.00 23.33 52.00 6.00 C 38.67 6.00 25.33 6.00 12.00 6.00 Z" />
<path fill="#ffffff" opacity="1.00" d=" M 18.22 10.02 C 27.41 9.99 36.59 9.98 45.78 10.02 C 46.51 11.33 48.25 12.28 48.01 13.98 C 48.00 27.32 48.00 40.66 48.00 54.00 C 37.33 54.00 26.67 54.00 16.00 54.00 C 16.01 40.65 16.00 27.31 16.00 13.96 C 15.77 12.26 17.48 11.32 18.22 10.02 M 22.41 10.78 C 21.61 11.84 20.82 12.91 20.02 13.97 C 20.79 14.71 21.57 15.45 22.34 16.19 C 23.36 15.33 24.38 14.48 25.40 13.62 C 24.40 12.68 23.40 11.73 22.41 10.78 M 41.61 11.00 C 40.62 11.91 39.63 12.81 38.65 13.72 C 39.61 14.59 40.56 15.47 41.52 16.35 C 42.34 15.56 43.17 14.77 44.00 13.99 C 43.20 12.99 42.40 12.00 41.61 11.00 M 24.68 19.13 C 25.36 20.15 26.05 21.16 26.72 22.19 C 27.88 21.52 29.04 20.84 30.20 20.17 C 29.47 19.05 28.75 17.93 28.02 16.81 C 26.91 17.59 25.80 18.36 24.68 19.13 M 33.84 20.40 C 35.04 20.96 36.24 21.53 37.43 22.11 C 38.01 21.08 38.60 20.04 39.18 19.00 C 38.09 18.24 36.99 17.49 35.90 16.72 C 35.21 17.95 34.52 19.17 33.84 20.40 M 28.19 25.15 C 28.64 26.30 29.00 27.47 29.26 28.67 C 31.11 28.09 33.00 28.18 34.84 28.72 C 35.14 27.54 35.44 26.37 35.75 25.21 C 34.52 24.77 33.29 24.34 32.06 23.90 C 30.78 24.33 29.49 24.75 28.19 25.15 M 30.01 32.00 C 30.00 33.40 29.99 34.80 29.97 36.21 C 27.03 37.76 24.85 41.32 26.59 44.58 C 28.48 49.04 35.54 49.03 37.40 44.56 C 39.15 41.31 36.96 37.76 34.03 36.21 C 34.01 34.81 34.00 33.40 33.99 32.00 C 32.66 32.00 31.34 32.00 30.01 32.00 Z" />
<path fill="#ffffff" opacity="1.00" d=" M 31.17 40.19 C 33.50 38.97 35.23 42.90 32.81 43.85 C 30.48 44.97 28.78 41.12 31.17 40.19 Z" />
</g>
<g id="#000000ff">
<path fill="#000000" opacity="1.00" d=" M 12.00 6.00 C 25.33 6.00 38.67 6.00 52.00 6.00 C 52.00 23.33 52.00 40.67 52.00 58.00 C 38.67 58.00 25.33 58.00 12.00 58.00 C 12.00 40.67 12.00 23.33 12.00 6.00 M 18.22 10.02 C 17.48 11.32 15.77 12.26 16.00 13.96 C 16.00 27.31 16.01 40.65 16.00 54.00 C 26.67 54.00 37.33 54.00 48.00 54.00 C 48.00 40.66 48.00 27.32 48.01 13.98 C 48.25 12.28 46.51 11.33 45.78 10.02 C 36.59 9.98 27.41 9.99 18.22 10.02 Z" />
<path fill="#000000" opacity="1.00" d=" M 22.41 10.78 C 23.40 11.73 24.40 12.68 25.40 13.62 C 24.38 14.48 23.36 15.33 22.34 16.19 C 21.57 15.45 20.79 14.71 20.02 13.97 C 20.82 12.91 21.61 11.84 22.41 10.78 Z" />
<path fill="#000000" opacity="1.00" d=" M 41.61 11.00 C 42.40 12.00 43.20 12.99 44.00 13.99 C 43.17 14.77 42.34 15.56 41.52 16.35 C 40.56 15.47 39.61 14.59 38.65 13.72 C 39.63 12.81 40.62 11.91 41.61 11.00 Z" />
<path fill="#000000" opacity="1.00" d=" M 24.68 19.13 C 25.80 18.36 26.91 17.59 28.02 16.81 C 28.75 17.93 29.47 19.05 30.20 20.17 C 29.04 20.84 27.88 21.52 26.72 22.19 C 26.05 21.16 25.36 20.15 24.68 19.13 Z" />
<path fill="#000000" opacity="1.00" d=" M 33.84 20.40 C 34.52 19.17 35.21 17.95 35.90 16.72 C 36.99 17.49 38.09 18.24 39.18 19.00 C 38.60 20.04 38.01 21.08 37.43 22.11 C 36.24 21.53 35.04 20.96 33.84 20.40 Z" />
<path fill="#000000" opacity="1.00" d=" M 28.19 25.15 C 29.49 24.75 30.78 24.33 32.06 23.90 C 33.29 24.34 34.52 24.77 35.75 25.21 C 35.44 26.37 35.14 27.54 34.84 28.72 C 33.00 28.18 31.11 28.09 29.26 28.67 C 29.00 27.47 28.64 26.30 28.19 25.15 Z" />
<path fill="#000000" opacity="1.00" d=" M 30.01 32.00 C 31.34 32.00 32.66 32.00 33.99 32.00 C 34.00 33.40 34.01 34.81 34.03 36.21 C 36.96 37.76 39.15 41.31 37.40 44.56 C 35.54 49.03 28.48 49.04 26.59 44.58 C 24.85 41.32 27.03 37.76 29.97 36.21 C 29.99 34.80 30.00 33.40 30.01 32.00 M 31.17 40.19 C 28.78 41.12 30.48 44.97 32.81 43.85 C 35.23 42.90 33.50 38.97 31.17 40.19 Z" />
</g>
</svg>
