<?xml version="1.0" encoding="UTF-8" ?>
<!DOCTYPE svg PUBLIC "-//W3C//DTD SVG 1.1//EN" "http://www.w3.org/Graphics/SVG/1.1/DTD/svg11.dtd">
<svg width="60pt" height="60pt" viewBox="0 0 60 60" version="1.1" xmlns="http://www.w3.org/2000/svg">
<g id="#ffffffff">
<path fill="#ffffff" opacity="1.00" d=" M 0.00 0.00 L 60.00 0.00 L 60.00 60.00 L 0.00 60.00 L 0.00 0.00 M 24.40 6.63 C 19.38 7.76 14.81 10.76 11.81 14.94 C 4.52 25.16 6.08 40.93 15.94 48.97 C 23.73 55.60 36.23 55.67 44.01 48.99 C 54.43 40.48 55.69 23.22 46.83 13.17 C 41.36 6.95 32.31 4.79 24.40 6.63 Z" />
<path fill="#ffffff" opacity="1.00" d=" M 27.41 11.58 C 30.65 10.11 34.52 11.80 36.29 14.74 C 39.73 20.12 40.35 26.81 39.96 33.05 C 39.48 37.96 38.50 43.34 34.91 46.99 C 31.70 50.21 25.89 49.19 23.70 45.29 C 19.58 38.54 19.23 30.07 20.71 22.48 C 21.72 18.35 23.29 13.56 27.41 11.58 Z" />
</g>
<g id="#000000ff">
<path fill="#000000" opacity="1.00" d=" M 24.40 6.63 C 32.31 4.79 41.36 6.95 46.83 13.17 C 55.69 23.22 54.43 40.48 44.01 48.99 C 36.23 55.67 23.73 55.60 15.94 48.97 C 6.08 40.93 4.52 25.16 11.81 14.94 C 14.81 10.76 19.38 7.76 24.40 6.63 M 27.41 11.58 C 23.29 13.56 21.72 18.35 20.71 22.48 C 19.23 30.07 19.58 38.54 23.70 45.29 C 25.89 49.19 31.70 50.21 34.91 46.99 C 38.50 43.34 39.48 37.96 39.96 33.05 C 40.35 26.81 39.73 20.12 36.29 14.74 C 34.52 11.80 30.65 10.11 27.41 11.58 Z" />
</g>
</svg>
