<?xml version="1.0" encoding="UTF-8" ?>
<!DOCTYPE svg PUBLIC "-//W3C//DTD SVG 1.1//EN" "http://www.w3.org/Graphics/SVG/1.1/DTD/svg11.dtd">
<svg width="64pt" height="64pt" viewBox="0 0 64 64" version="1.1" xmlns="http://www.w3.org/2000/svg">
<g id="#ffffffff">
<path fill="#ffffff" opacity="1.00" d=" M 0.00 0.00 L 64.00 0.00 L 64.00 64.00 L 0.00 64.00 L 0.00 0.00 M 26.47 8.67 C 19.55 10.29 13.87 15.78 11.58 22.45 C 7.82 32.74 10.83 45.58 19.90 52.11 C 27.25 57.58 38.25 57.19 45.19 51.22 C 55.71 42.59 57.00 25.13 47.96 15.00 C 42.73 9.04 34.07 6.73 26.47 8.67 Z" />
<path fill="#ffffff" opacity="1.00" d=" M 28.36 12.31 C 34.89 11.08 42.26 13.30 46.18 18.86 C 51.84 27.01 51.22 39.17 44.45 46.51 C 40.11 51.33 32.91 53.22 26.76 51.18 C 20.16 49.09 15.60 42.80 14.41 36.14 C 12.19 26.27 17.45 13.82 28.36 12.31 M 29.24 13.11 C 24.23 15.11 23.21 21.19 22.67 25.92 C 22.31 32.91 21.93 40.41 25.16 46.83 C 27.52 51.57 34.78 52.23 37.94 47.98 C 40.88 43.97 41.29 38.77 41.52 33.96 C 41.60 28.05 41.58 21.74 38.62 16.43 C 36.85 13.23 32.63 11.79 29.24 13.11 Z" />
<path fill="#ffffff" opacity="1.00" d=" M 30.19 17.12 C 32.27 15.78 34.93 17.28 35.71 19.42 C 37.69 23.96 37.57 29.08 37.48 33.94 C 37.25 37.93 37.18 42.34 34.67 45.67 C 32.95 47.83 29.35 46.91 28.43 44.44 C 26.07 39.36 26.50 33.52 26.54 28.06 C 26.94 24.30 26.97 19.68 30.19 17.12 Z" />
</g>
<g id="#000000ff">
<path fill="#000000" opacity="1.00" d=" M 26.47 8.67 C 34.07 6.73 42.73 9.04 47.96 15.00 C 57.00 25.13 55.71 42.59 45.19 51.22 C 38.25 57.19 27.25 57.58 19.90 52.11 C 10.83 45.58 7.82 32.74 11.58 22.45 C 13.87 15.78 19.55 10.29 26.47 8.67 M 28.36 12.31 C 17.45 13.82 12.19 26.27 14.41 36.14 C 15.60 42.80 20.16 49.09 26.76 51.18 C 32.91 53.22 40.11 51.33 44.45 46.51 C 51.22 39.17 51.84 27.01 46.18 18.86 C 42.26 13.30 34.89 11.08 28.36 12.31 Z" />
<path fill="#000000" opacity="1.00" d=" M 29.24 13.11 C 32.63 11.79 36.85 13.23 38.62 16.43 C 41.58 21.74 41.60 28.05 41.52 33.96 C 41.29 38.77 40.88 43.97 37.94 47.98 C 34.78 52.23 27.52 51.57 25.16 46.83 C 21.93 40.41 22.31 32.91 22.67 25.92 C 23.21 21.19 24.23 15.11 29.24 13.11 M 30.19 17.12 C 26.97 19.68 26.94 24.30 26.54 28.06 C 26.50 33.52 26.07 39.36 28.43 44.44 C 29.35 46.91 32.95 47.83 34.67 45.67 C 37.18 42.34 37.25 37.93 37.48 33.94 C 37.57 29.08 37.69 23.96 35.71 19.42 C 34.93 17.28 32.27 15.78 30.19 17.12 Z" />
</g>
</svg>
