<?xml version="1.0" encoding="UTF-8" ?>
<!DOCTYPE svg PUBLIC "-//W3C//DTD SVG 1.1//EN" "http://www.w3.org/Graphics/SVG/1.1/DTD/svg11.dtd">
<svg width="60pt" height="60pt" viewBox="0 0 60 60" version="1.1" xmlns="http://www.w3.org/2000/svg">
<g id="#ffffffff">
<path fill="#ffffff" opacity="1.00" d=" M 0.00 0.00 L 60.00 0.00 L 60.00 60.00 L 0.00 60.00 L 0.00 0.00 M 25.52 14.50 C 22.91 17.53 19.20 19.17 15.80 21.10 C 16.31 22.79 16.84 24.81 18.75 25.40 C 22.66 27.07 26.46 24.40 30.00 23.00 C 30.12 27.30 29.74 31.63 30.19 35.92 C 31.00 38.71 34.64 38.30 36.00 36.17 C 37.52 38.38 40.47 38.41 41.99 36.18 C 42.96 36.81 43.65 38.16 44.99 37.93 C 47.21 38.21 47.82 35.69 48.48 34.14 C 48.82 34.63 49.50 35.62 49.84 36.12 C 51.30 35.83 53.36 35.80 53.79 33.98 C 54.30 29.01 53.85 23.98 54.01 18.99 C 53.97 15.36 54.58 11.03 51.59 8.30 C 48.27 4.96 43.17 6.20 38.96 6.00 C 33.01 5.55 29.34 10.87 25.52 14.50 M 12.78 28.64 C 11.00 29.39 9.62 31.05 9.31 32.98 C 9.13 37.10 10.19 41.30 13.16 44.30 C 13.18 45.02 13.21 46.45 13.23 47.17 C 10.07 49.50 4.39 49.12 3.75 53.96 C 11.91 54.02 20.08 54.03 28.25 53.96 C 27.63 49.11 21.96 49.45 18.77 47.18 C 18.79 46.47 18.82 45.06 18.83 44.35 C 22.05 40.93 23.54 35.71 21.88 31.26 C 19.70 28.93 15.93 27.08 12.78 28.64 Z" />
</g>
<g id="#000000ff">
<path fill="#968176" opacity="1.00" d=" M 25.52 14.50 C 29.34 10.87 33.01 5.55 38.96 6.00 C 43.17 6.20 48.27 4.96 51.59 8.30 C 54.58 11.03 53.97 15.36 54.01 18.99 C 53.85 23.98 54.30 29.01 53.79 33.98 C 53.36 35.80 51.30 35.83 49.84 36.12 C 49.50 35.62 48.82 34.63 48.48 34.14 C 47.82 35.69 47.21 38.21 44.99 37.93 C 43.65 38.16 42.96 36.81 41.99 36.18 C 40.47 38.41 37.52 38.38 36.00 36.17 C 34.64 38.30 31.00 38.71 30.19 35.92 C 29.74 31.63 30.12 27.30 30.00 23.00 C 26.46 24.40 22.66 27.07 18.75 25.40 C 16.84 24.81 16.31 22.79 15.80 21.10 C 19.20 19.17 22.91 17.53 25.52 14.50 Z" />
<path fill="#968176" opacity="1.00" d=" M 12.78 28.64 C 15.93 27.08 19.70 28.93 21.88 31.26 C 23.54 35.71 22.05 40.93 18.83 44.35 C 18.82 45.06 18.79 46.47 18.77 47.18 C 21.96 49.45 27.63 49.11 28.25 53.96 C 20.08 54.03 11.91 54.02 3.75 53.96 C 4.39 49.12 10.07 49.50 13.23 47.17 C 13.21 46.45 13.18 45.02 13.16 44.30 C 10.19 41.30 9.13 37.10 9.31 32.98 C 9.62 31.05 11.00 29.39 12.78 28.64 Z" />
</g>
</svg>
