<?xml version="1.0" encoding="UTF-8" ?>
<!DOCTYPE svg PUBLIC "-//W3C//DTD SVG 1.1//EN" "http://www.w3.org/Graphics/SVG/1.1/DTD/svg11.dtd">
<svg width="64pt" height="64pt" viewBox="0 0 64 64" version="1.1" xmlns="http://www.w3.org/2000/svg">
<g id="#ffffffff">
<path fill="#ffffff" opacity="1.00" d=" M 0.00 0.00 L 64.00 0.00 L 64.00 64.00 L 0.00 64.00 L 0.00 0.00 M 9.81 8.00 C 11.26 24.00 12.72 40.00 14.17 56.00 C 20.06 56.00 25.95 56.00 31.84 56.00 C 31.96 54.60 32.07 53.21 32.17 51.82 C 38.85 57.98 50.40 57.13 55.72 49.63 C 62.13 41.86 58.55 28.97 49.27 25.26 C 53.80 22.18 56.11 16.55 54.81 11.18 C 46.61 8.89 38.15 16.14 38.75 24.52 C 37.35 25.18 35.92 25.79 34.47 26.35 C 35.13 20.24 35.61 14.11 36.18 8.00 C 27.39 8.00 18.60 8.00 9.81 8.00 Z" />
<path fill="#ffffff" opacity="1.00" d=" M 14.19 12.00 C 20.06 12.00 25.94 12.00 31.81 12.00 C 30.60 25.33 29.38 38.67 28.17 52.00 C 24.72 52.00 21.28 52.00 17.83 52.00 C 16.62 38.67 15.40 25.33 14.19 12.00 Z" />
<path fill="#ffffff" opacity="1.00" d=" M 42.94 23.01 C 43.24 18.71 46.71 15.16 51.06 14.99 C 50.76 19.29 47.29 22.83 42.94 23.01 Z" />
<path fill="#ffffff" opacity="1.00" d=" M 33.95 32.02 C 38.70 26.68 48.01 26.71 52.35 32.53 C 57.04 38.03 55.10 47.44 48.57 50.58 C 43.12 53.66 35.92 51.43 32.66 46.24 C 33.16 41.51 33.62 36.77 33.95 32.02 Z" />
</g>
<g id="#000000ff">
<path fill="#000000" opacity="1.00" d=" M 9.81 8.00 C 18.60 8.00 27.39 8.00 36.18 8.00 C 35.61 14.11 35.13 20.24 34.47 26.35 C 35.92 25.79 37.35 25.18 38.75 24.52 C 38.15 16.14 46.61 8.89 54.81 11.18 C 56.11 16.55 53.80 22.18 49.27 25.26 C 58.55 28.97 62.13 41.86 55.72 49.63 C 50.40 57.13 38.85 57.98 32.17 51.82 C 32.07 53.21 31.96 54.60 31.84 56.00 C 25.95 56.00 20.06 56.00 14.17 56.00 C 12.72 40.00 11.26 24.00 9.81 8.00 M 14.19 12.00 C 15.40 25.33 16.62 38.67 17.83 52.00 C 21.28 52.00 24.72 52.00 28.17 52.00 C 29.38 38.67 30.60 25.33 31.81 12.00 C 25.94 12.00 20.06 12.00 14.19 12.00 M 42.94 23.01 C 47.29 22.83 50.76 19.29 51.06 14.99 C 46.71 15.16 43.24 18.71 42.94 23.01 M 33.95 32.02 C 33.62 36.77 33.16 41.51 32.66 46.24 C 35.92 51.43 43.12 53.66 48.57 50.58 C 55.10 47.44 57.04 38.03 52.35 32.53 C 48.01 26.71 38.70 26.68 33.95 32.02 Z" />
</g>
</svg>
