<?xml version="1.0" encoding="UTF-8" ?>
<!DOCTYPE svg PUBLIC "-//W3C//DTD SVG 1.1//EN" "http://www.w3.org/Graphics/SVG/1.1/DTD/svg11.dtd">
<svg width="60pt" height="60pt" viewBox="0 0 60 60" version="1.1" xmlns="http://www.w3.org/2000/svg">
<g id="#ffffffff">
<path fill="#ffffff" opacity="1.00" d=" M 0.00 0.00 L 60.00 0.00 L 60.00 60.00 L 0.00 60.00 L 0.00 0.00 M 23.51 6.74 C 15.20 8.57 7.21 15.02 6.16 23.85 C 5.28 34.26 9.35 45.70 18.40 51.51 C 21.80 53.94 26.07 54.41 29.99 53.11 C 33.68 54.27 37.70 54.08 40.99 51.87 C 49.84 46.62 54.11 35.93 53.97 25.95 C 54.03 20.49 51.17 15.31 47.01 11.89 C 40.59 6.54 31.57 4.88 23.51 6.74 Z" />
<path fill="#ffffff" opacity="1.00" d=" M 24.44 10.63 C 32.98 8.64 43.28 11.37 48.04 19.15 C 51.09 23.93 50.40 30.52 46.70 34.76 C 38.77 44.08 22.75 44.40 14.19 35.77 C 10.57 32.19 8.94 26.56 10.75 21.70 C 12.83 15.83 18.55 11.97 24.44 10.63 M 18.71 17.40 C 21.06 19.44 23.94 20.96 26.95 21.74 C 29.05 19.94 27.61 16.48 27.90 13.98 C 24.56 14.18 21.37 15.40 18.71 17.40 M 32.15 13.93 C 32.38 16.44 30.95 19.89 33.04 21.74 C 36.00 20.89 39.12 19.58 41.23 17.23 C 38.50 15.44 35.42 14.21 32.15 13.93 M 15.20 30.96 C 18.13 29.83 21.12 28.61 23.60 26.64 C 23.59 26.30 23.57 25.63 23.56 25.29 C 21.23 23.55 18.54 22.35 15.88 21.21 C 13.03 23.34 14.06 27.97 15.20 30.96 M 36.27 26.01 C 37.92 28.80 41.83 29.29 44.43 31.07 C 46.48 28.06 46.17 24.27 44.80 21.05 C 41.91 22.42 38.00 23.20 36.27 26.01 M 18.75 34.72 C 21.47 36.57 24.57 37.80 27.86 38.04 C 27.61 35.53 29.06 32.07 26.96 30.25 C 23.99 31.10 20.92 32.45 18.75 34.72 M 32.12 38.03 C 35.41 37.63 39.09 36.89 41.22 34.11 C 38.51 32.82 36.02 30.76 33.01 30.30 C 30.94 32.08 32.40 35.55 32.12 38.03 Z" />
</g>
<g id="#000000ff">
<path fill="#000000" opacity="1.00" d=" M 23.51 6.74 C 31.57 4.88 40.59 6.54 47.01 11.89 C 51.17 15.31 54.03 20.49 53.97 25.95 C 54.11 35.93 49.84 46.62 40.99 51.87 C 37.70 54.08 33.68 54.27 29.99 53.11 C 26.07 54.41 21.80 53.94 18.40 51.51 C 9.35 45.70 5.28 34.26 6.16 23.85 C 7.21 15.02 15.20 8.57 23.51 6.74 M 24.44 10.63 C 18.55 11.97 12.83 15.83 10.75 21.70 C 8.94 26.56 10.57 32.19 14.19 35.77 C 22.75 44.40 38.77 44.08 46.70 34.76 C 50.40 30.52 51.09 23.93 48.04 19.15 C 43.28 11.37 32.98 8.64 24.44 10.63 Z" />
<path fill="#000000" opacity="1.00" d=" M 18.71 17.40 C 21.37 15.40 24.56 14.18 27.90 13.98 C 27.61 16.48 29.05 19.94 26.95 21.74 C 23.94 20.96 21.06 19.44 18.71 17.40 Z" />
<path fill="#000000" opacity="1.00" d=" M 32.15 13.93 C 35.42 14.21 38.50 15.44 41.23 17.23 C 39.12 19.58 36.00 20.89 33.04 21.74 C 30.95 19.89 32.38 16.44 32.15 13.93 Z" />
<path fill="#000000" opacity="1.00" d=" M 15.20 30.96 C 14.06 27.97 13.03 23.34 15.88 21.21 C 18.54 22.35 21.23 23.55 23.56 25.29 C 23.57 25.63 23.59 26.30 23.60 26.64 C 21.12 28.61 18.13 29.83 15.20 30.96 Z" />
<path fill="#000000" opacity="1.00" d=" M 36.27 26.01 C 38.00 23.20 41.91 22.42 44.80 21.05 C 46.17 24.27 46.48 28.06 44.43 31.07 C 41.83 29.29 37.92 28.80 36.27 26.01 Z" />
<path fill="#000000" opacity="1.00" d=" M 18.75 34.72 C 20.92 32.45 23.99 31.10 26.96 30.25 C 29.06 32.07 27.61 35.53 27.86 38.04 C 24.57 37.80 21.47 36.57 18.75 34.72 Z" />
<path fill="#000000" opacity="1.00" d=" M 32.12 38.03 C 32.40 35.55 30.94 32.08 33.01 30.30 C 36.02 30.76 38.51 32.82 41.22 34.11 C 39.09 36.89 35.41 37.63 32.12 38.03 Z" />
</g>
</svg>
