<?xml version="1.0" encoding="UTF-8" ?>
<!DOCTYPE svg PUBLIC "-//W3C//DTD SVG 1.1//EN" "http://www.w3.org/Graphics/SVG/1.1/DTD/svg11.dtd">
<svg width="60pt" height="60pt" viewBox="0 0 60 60" version="1.1" xmlns="http://www.w3.org/2000/svg">
<g id="#ffffffff">
<path fill="#ffffff" opacity="1.00" d=" M 0.00 0.00 L 36.92 0.00 C 35.20 3.20 33.99 6.62 32.68 10.00 C 26.16 10.15 19.62 9.71 13.12 10.19 C 11.29 11.49 12.28 14.11 11.91 16.00 C 23.97 16.00 36.03 16.00 48.09 16.00 C 47.70 14.12 48.76 11.37 46.79 10.19 C 43.53 9.78 40.22 10.04 36.94 10.00 C 37.91 6.76 40.73 3.50 39.31 0.00 L 60.00 0.00 L 60.00 60.00 L 0.00 60.00 L 0.00 0.00 M 14.00 20.00 C 15.19 29.96 16.32 39.93 17.53 49.89 C 17.59 52.17 19.54 54.17 21.89 53.97 C 27.29 54.04 32.69 54.03 38.09 53.97 C 40.45 54.18 42.41 52.18 42.47 49.88 C 43.69 39.93 44.81 29.96 46.00 20.00 C 35.33 20.00 24.67 20.00 14.00 20.00 Z" />
<path fill="#ffffff" opacity="1.00" d=" M 19.02 27.86 C 23.55 27.68 28.13 31.19 27.97 35.96 C 28.12 40.07 24.72 43.32 20.88 44.10 C 20.24 38.69 19.53 33.29 19.02 27.86 Z" />
</g>
<g id="#000000ff">
<path fill="#000000" opacity="1.00" d=" M 36.92 0.00 L 39.31 0.00 C 40.73 3.50 37.91 6.76 36.94 10.00 C 40.22 10.04 43.53 9.78 46.79 10.19 C 48.76 11.37 47.70 14.12 48.09 16.00 C 36.03 16.00 23.97 16.00 11.91 16.00 C 12.28 14.11 11.29 11.49 13.12 10.19 C 19.62 9.71 26.16 10.15 32.68 10.00 C 33.99 6.62 35.20 3.20 36.92 0.00 Z" />
<path fill="#000000" opacity="1.00" d=" M 14.00 20.00 C 24.67 20.00 35.33 20.00 46.00 20.00 C 44.81 29.96 43.69 39.93 42.47 49.88 C 42.41 52.18 40.45 54.18 38.09 53.97 C 32.69 54.03 27.29 54.04 21.89 53.97 C 19.54 54.17 17.59 52.17 17.53 49.89 C 16.32 39.93 15.19 29.96 14.00 20.00 M 19.02 27.86 C 19.53 33.29 20.24 38.69 20.88 44.10 C 24.72 43.32 28.12 40.07 27.97 35.96 C 28.13 31.19 23.55 27.68 19.02 27.86 Z" />
</g>
</svg>
