<?xml version="1.0" encoding="UTF-8" ?>
<!DOCTYPE svg PUBLIC "-//W3C//DTD SVG 1.1//EN" "http://www.w3.org/Graphics/SVG/1.1/DTD/svg11.dtd">
<svg width="64pt" height="64pt" viewBox="0 0 64 64" version="1.1" xmlns="http://www.w3.org/2000/svg">
<g id="#ffffffff">
<path fill="#ffffff" opacity="1.00" d=" M 0.00 0.00 L 64.00 0.00 L 64.00 32.00 C 56.00 32.00 48.00 32.00 40.00 32.00 C 40.00 33.32 40.00 34.65 40.00 35.98 C 40.48 35.99 41.45 36.01 41.94 36.01 C 41.68 40.36 42.34 44.94 45.74 48.00 C 42.34 51.06 41.68 55.64 41.94 59.99 C 41.45 60.00 40.48 60.02 40.00 60.03 C 40.00 61.35 40.00 62.67 40.00 64.00 L 0.00 64.00 L 0.00 0.00 M 18.00 10.00 C 18.00 19.33 18.00 28.67 18.00 38.00 C 19.33 38.00 20.67 38.00 22.00 38.00 C 22.00 30.00 22.00 22.00 22.00 14.00 C 31.33 14.00 40.67 14.00 50.00 14.00 C 50.00 19.33 50.00 24.67 50.00 30.00 C 51.33 30.00 52.67 30.00 54.00 30.00 C 54.00 23.33 54.00 16.67 54.00 10.00 C 42.00 10.00 30.00 10.00 18.00 10.00 M 26.00 22.00 C 26.00 23.33 26.00 24.67 26.00 26.00 C 27.33 26.00 28.67 26.00 30.00 26.00 C 30.00 24.67 30.00 23.33 30.00 22.00 C 28.67 22.00 27.33 22.00 26.00 22.00 M 34.00 22.00 C 34.00 23.33 34.00 24.67 34.00 26.00 C 38.00 26.00 42.00 26.00 46.00 26.00 C 46.00 24.67 46.00 23.33 46.00 22.00 C 42.00 22.00 38.00 22.00 34.00 22.00 M 26.00 30.00 C 26.00 31.33 26.00 32.67 26.00 34.00 C 27.33 34.00 28.67 34.00 30.00 34.00 C 30.00 32.67 30.00 31.33 30.00 30.00 C 28.67 30.00 27.33 30.00 26.00 30.00 M 34.00 30.00 C 34.00 31.33 34.00 32.67 34.00 34.00 C 34.75 34.00 36.25 34.00 37.00 34.00 C 37.00 32.67 37.00 31.33 37.00 30.00 C 36.25 30.00 34.75 30.00 34.00 30.00 M 10.00 40.00 C 10.00 42.35 9.89 44.70 10.12 47.04 C 10.47 50.90 14.10 54.04 17.96 53.96 C 24.99 54.08 32.03 53.96 39.07 54.00 C 39.54 52.66 40.00 51.33 40.42 49.98 C 32.62 49.91 24.80 50.20 17.01 49.85 C 14.32 49.27 13.82 46.32 13.89 44.00 C 22.45 44.00 31.02 43.99 39.58 44.01 C 39.37 42.67 39.15 41.33 38.91 39.99 C 29.27 40.01 19.64 40.00 10.00 40.00 Z" />
<path fill="#ffffff" opacity="1.00" d=" M 45.97 36.00 C 49.99 36.00 54.01 36.00 58.03 36.00 C 57.88 38.57 58.47 41.54 56.74 43.71 C 54.52 46.73 49.47 46.73 47.25 43.72 C 45.51 41.54 46.13 38.57 45.97 36.00 M 47.78 40.03 C 48.34 42.02 49.61 44.29 52.05 43.98 C 54.45 44.24 55.66 41.98 56.23 40.04 C 53.41 39.99 50.59 39.99 47.78 40.03 Z" />
<path fill="#ffffff" opacity="1.00" d=" M 62.06 36.03 C 62.55 36.01 63.52 35.97 64.00 35.94 L 64.00 60.01 C 63.52 60.01 62.55 60.00 62.07 60.00 C 62.31 55.65 61.65 51.07 58.26 48.00 C 61.64 44.93 62.32 40.37 62.06 36.03 Z" />
<path fill="#ffffff" opacity="1.00" d=" M 47.17 52.38 C 49.35 49.26 54.54 49.23 56.77 52.31 C 58.50 54.55 57.87 57.56 58.02 60.18 C 55.03 60.33 55.35 55.40 51.95 56.00 C 48.65 55.52 48.93 60.33 45.98 60.18 C 46.13 57.59 45.49 54.62 47.17 52.38 Z" />
</g>
<g id="#000000ff">
<path fill="#000000" opacity="1.00" d=" M 18.00 10.00 C 30.00 10.00 42.00 10.00 54.00 10.00 C 54.00 16.67 54.00 23.33 54.00 30.00 C 52.67 30.00 51.33 30.00 50.00 30.00 C 50.00 24.67 50.00 19.33 50.00 14.00 C 40.67 14.00 31.33 14.00 22.00 14.00 C 22.00 22.00 22.00 30.00 22.00 38.00 C 20.67 38.00 19.33 38.00 18.00 38.00 C 18.00 28.67 18.00 19.33 18.00 10.00 Z" />
<path fill="#000000" opacity="1.00" d=" M 26.00 22.00 C 27.33 22.00 28.67 22.00 30.00 22.00 C 30.00 23.33 30.00 24.67 30.00 26.00 C 28.67 26.00 27.33 26.00 26.00 26.00 C 26.00 24.67 26.00 23.33 26.00 22.00 Z" />
<path fill="#000000" opacity="1.00" d=" M 34.00 22.00 C 38.00 22.00 42.00 22.00 46.00 22.00 C 46.00 23.33 46.00 24.67 46.00 26.00 C 42.00 26.00 38.00 26.00 34.00 26.00 C 34.00 24.67 34.00 23.33 34.00 22.00 Z" />
<path fill="#000000" opacity="1.00" d=" M 26.00 30.00 C 27.33 30.00 28.67 30.00 30.00 30.00 C 30.00 31.33 30.00 32.67 30.00 34.00 C 28.67 34.00 27.33 34.00 26.00 34.00 C 26.00 32.67 26.00 31.33 26.00 30.00 Z" />
<path fill="#000000" opacity="1.00" d=" M 34.00 30.00 C 34.75 30.00 36.25 30.00 37.00 30.00 C 37.00 31.33 37.00 32.67 37.00 34.00 C 36.25 34.00 34.75 34.00 34.00 34.00 C 34.00 32.67 34.00 31.33 34.00 30.00 Z" />
<path fill="#000000" opacity="1.00" d=" M 40.00 32.00 C 48.00 32.00 56.00 32.00 64.00 32.00 L 64.00 35.94 C 63.52 35.97 62.55 36.01 62.06 36.03 C 62.32 40.37 61.64 44.93 58.26 48.00 C 61.65 51.07 62.31 55.65 62.07 60.00 C 62.55 60.00 63.52 60.01 64.00 60.01 L 64.00 64.00 L 40.00 64.00 C 40.00 62.67 40.00 61.35 40.00 60.03 C 40.48 60.02 41.45 60.00 41.94 59.99 C 41.68 55.64 42.34 51.06 45.74 48.00 C 42.34 44.94 41.68 40.36 41.94 36.01 C 41.45 36.01 40.48 35.99 40.00 35.98 C 40.00 34.65 40.00 33.32 40.00 32.00 M 45.97 36.00 C 46.13 38.57 45.51 41.54 47.25 43.72 C 49.47 46.73 54.52 46.73 56.74 43.71 C 58.47 41.54 57.88 38.57 58.03 36.00 C 54.01 36.00 49.99 36.00 45.97 36.00 M 47.17 52.38 C 45.49 54.62 46.13 57.59 45.98 60.18 C 48.93 60.33 48.65 55.52 51.95 56.00 C 55.35 55.40 55.03 60.33 58.02 60.18 C 57.87 57.56 58.50 54.55 56.77 52.31 C 54.54 49.23 49.35 49.26 47.17 52.38 Z" />
<path fill="#000000" opacity="1.00" d=" M 10.00 40.00 C 19.64 40.00 29.27 40.01 38.91 39.99 C 39.15 41.33 39.37 42.67 39.58 44.01 C 31.02 43.99 22.45 44.00 13.89 44.00 C 13.82 46.32 14.32 49.27 17.01 49.85 C 24.80 50.20 32.62 49.91 40.42 49.98 C 40.00 51.33 39.54 52.66 39.07 54.00 C 32.03 53.96 24.99 54.08 17.96 53.96 C 14.10 54.04 10.47 50.90 10.12 47.04 C 9.89 44.70 10.00 42.35 10.00 40.00 Z" />
<path fill="#000000" opacity="1.00" d=" M 47.78 40.03 C 50.59 39.99 53.41 39.99 56.23 40.04 C 55.66 41.98 54.45 44.24 52.05 43.98 C 49.61 44.29 48.34 42.02 47.78 40.03 Z" />
</g>
</svg>
