<?xml version="1.0" encoding="UTF-8" ?>
<!DOCTYPE svg PUBLIC "-//W3C//DTD SVG 1.1//EN" "http://www.w3.org/Graphics/SVG/1.1/DTD/svg11.dtd">
<svg width="60pt" height="60pt" viewBox="0 0 60 60" version="1.1" xmlns="http://www.w3.org/2000/svg">
<g id="#ffffffff">
<path fill="#ffffff" opacity="1.00" d=" M 0.00 0.00 L 60.00 0.00 L 60.00 60.00 L 0.00 60.00 L 0.00 0.00 M 10.34 8.37 C 8.57 9.11 7.84 11.11 8.00 12.91 C 8.00 24.30 8.00 35.69 8.00 47.08 C 7.69 49.41 9.35 52.03 11.87 51.95 C 23.94 52.04 36.02 52.03 48.09 51.95 C 50.60 52.01 52.31 49.48 52.00 47.14 C 51.97 35.38 52.07 23.63 51.95 11.88 C 52.02 8.84 48.64 7.56 46.08 7.98 C 34.18 8.27 22.17 7.49 10.34 8.37 Z" />
<path fill="#ffffff" opacity="1.00" d=" M 12.00 12.00 C 24.00 12.00 36.00 12.00 47.99 12.00 C 36.00 24.00 24.00 36.00 12.00 47.99 C 12.00 36.00 12.00 24.00 12.00 12.00 Z" />
</g>
<g id="#000000ff">
<path fill="#000000" opacity="1.00" d=" M 10.34 8.37 C 22.17 7.49 34.18 8.27 46.08 7.98 C 48.64 7.56 52.02 8.84 51.95 11.88 C 52.07 23.63 51.97 35.38 52.00 47.14 C 52.31 49.48 50.60 52.01 48.09 51.95 C 36.02 52.03 23.94 52.04 11.87 51.95 C 9.35 52.03 7.69 49.41 8.00 47.08 C 8.00 35.69 8.00 24.30 8.00 12.91 C 7.84 11.11 8.57 9.11 10.34 8.37 M 12.00 12.00 C 12.00 24.00 12.00 36.00 12.00 47.99 C 24.00 36.00 36.00 24.00 47.99 12.00 C 36.00 12.00 24.00 12.00 12.00 12.00 Z" />
</g>
</svg>
