<?xml version="1.0" encoding="UTF-8" ?>
<!DOCTYPE svg PUBLIC "-//W3C//DTD SVG 1.1//EN" "http://www.w3.org/Graphics/SVG/1.1/DTD/svg11.dtd">
<svg width="64pt" height="64pt" viewBox="0 0 64 64" version="1.1" xmlns="http://www.w3.org/2000/svg">
<g id="#ffffffff">
<path fill="#ffffff" opacity="1.00" d=" M 0.00 0.00 L 64.00 0.00 L 64.00 64.00 L 0.00 64.00 L 0.00 0.00 M 10.00 10.00 C 10.00 21.62 10.00 33.24 10.00 44.86 C 13.03 47.92 16.08 50.96 19.14 54.00 C 30.76 54.00 42.38 54.00 54.00 54.00 C 54.00 42.39 53.99 30.77 54.01 19.16 C 50.99 16.07 47.95 13.00 44.85 10.00 C 33.23 10.00 21.62 10.00 10.00 10.00 Z" />
<path fill="#ffffff" opacity="1.00" d=" M 16.91 14.00 C 25.65 13.99 34.39 14.00 43.12 14.00 C 44.46 15.33 45.79 16.66 47.12 17.99 C 38.38 18.01 29.65 17.99 20.92 18.01 C 19.57 16.68 18.24 15.35 16.91 14.00 Z" />
<path fill="#ffffff" opacity="1.00" d=" M 14.01 16.88 C 15.34 18.21 16.67 19.55 18.00 20.88 C 17.99 29.62 18.02 38.35 17.99 47.08 C 16.65 45.77 15.32 44.44 13.99 43.11 C 14.01 34.37 13.99 25.62 14.01 16.88 Z" />
<path fill="#ffffff" opacity="1.00" d=" M 22.00 22.00 C 31.33 22.00 40.67 22.00 50.00 22.00 C 50.00 31.33 50.00 40.67 50.00 50.00 C 40.67 50.00 31.33 50.00 22.00 50.00 C 22.00 40.67 22.00 31.33 22.00 22.00 Z" />
</g>
<g id="#000000ff">
<path fill="#000000" opacity="1.00" d=" M 10.00 10.00 C 21.62 10.00 33.23 10.00 44.85 10.00 C 47.95 13.00 50.99 16.07 54.01 19.16 C 53.99 30.77 54.00 42.39 54.00 54.00 C 42.38 54.00 30.76 54.00 19.14 54.00 C 16.08 50.96 13.03 47.92 10.00 44.86 C 10.00 33.24 10.00 21.62 10.00 10.00 M 16.91 14.00 C 18.24 15.35 19.57 16.68 20.92 18.01 C 29.65 17.99 38.38 18.01 47.12 17.99 C 45.79 16.66 44.46 15.33 43.12 14.00 C 34.39 14.00 25.65 13.99 16.91 14.00 M 14.01 16.88 C 13.99 25.62 14.01 34.37 13.99 43.11 C 15.32 44.44 16.65 45.77 17.99 47.08 C 18.02 38.35 17.99 29.62 18.00 20.88 C 16.67 19.55 15.34 18.21 14.01 16.88 M 22.00 22.00 C 22.00 31.33 22.00 40.67 22.00 50.00 C 31.33 50.00 40.67 50.00 50.00 50.00 C 50.00 40.67 50.00 31.33 50.00 22.00 C 40.67 22.00 31.33 22.00 22.00 22.00 Z" />
</g>
</svg>
