<?xml version="1.0" encoding="UTF-8" ?>
<!DOCTYPE svg PUBLIC "-//W3C//DTD SVG 1.1//EN" "http://www.w3.org/Graphics/SVG/1.1/DTD/svg11.dtd">
<svg width="64pt" height="64pt" viewBox="0 0 64 64" version="1.1" xmlns="http://www.w3.org/2000/svg">
<g id="#ffffffff">
<path fill="#ffffff" opacity="1.00" d=" M 0.00 0.00 L 64.00 0.00 L 64.00 64.00 L 0.00 64.00 L 0.00 0.00 M 12.00 6.00 C 12.00 10.67 11.99 15.33 12.01 20.00 C 13.34 20.00 14.66 20.00 15.99 20.00 C 16.00 16.67 16.00 13.33 16.00 10.00 C 26.67 10.00 37.33 10.00 48.00 10.00 C 48.00 13.33 48.00 16.67 48.01 20.00 C 49.34 20.00 50.66 20.00 51.99 20.00 C 52.01 15.33 52.00 10.67 52.00 6.00 C 38.67 6.00 25.33 6.00 12.00 6.00 M 19.36 24.27 C 14.88 25.84 16.06 31.36 16.03 35.03 C 15.81 38.96 20.97 41.55 23.98 39.00 C 27.04 36.64 25.81 32.29 25.97 28.98 C 26.12 25.68 22.42 23.04 19.36 24.27 M 27.92 24.02 C 27.99 25.88 27.44 28.24 30.00 28.48 C 30.00 32.32 30.00 36.16 30.01 40.00 C 31.34 40.00 32.66 40.00 33.99 40.00 C 34.00 36.16 34.00 32.32 34.00 28.48 C 36.56 28.24 36.01 25.88 36.08 24.02 C 33.36 24.00 30.64 24.00 27.92 24.02 M 38.00 24.00 C 38.00 29.33 37.99 34.67 38.01 40.00 C 39.34 40.00 40.66 40.00 41.99 40.00 C 41.99 38.02 41.99 36.04 42.00 34.06 C 43.33 34.02 44.67 33.98 46.01 33.94 C 46.01 32.65 46.00 31.35 46.00 30.06 C 44.66 30.02 43.33 29.98 41.99 29.94 C 41.99 29.46 41.99 28.49 41.99 28.01 C 44.00 28.00 46.00 28.00 48.00 27.98 C 48.00 26.66 48.00 25.33 48.00 24.01 C 44.67 24.00 41.33 24.00 38.00 24.00 M 12.01 44.00 C 11.99 48.67 12.00 53.33 12.00 58.00 C 25.33 58.00 38.67 58.00 52.00 58.00 C 52.00 53.33 52.01 48.67 51.99 44.00 C 50.66 44.00 49.34 44.00 48.01 44.00 C 48.00 47.33 48.00 50.66 48.00 54.00 C 37.33 54.00 26.67 54.00 16.00 54.00 C 16.00 50.66 16.00 47.33 15.99 44.00 C 14.66 44.00 13.34 44.00 12.01 44.00 Z" />
<path fill="#ffffff" opacity="1.00" d=" M 20.05 28.26 C 20.52 28.27 21.48 28.27 21.96 28.27 C 22.00 30.76 22.00 33.24 21.96 35.73 C 21.48 35.73 20.52 35.73 20.04 35.73 C 20.00 33.24 20.00 30.75 20.05 28.26 Z" />
</g>
<g id="#000000ff">
<path fill="#000000" opacity="1.00" d=" M 12.00 6.00 C 25.33 6.00 38.67 6.00 52.00 6.00 C 52.00 10.67 52.01 15.33 51.99 20.00 C 50.66 20.00 49.34 20.00 48.01 20.00 C 48.00 16.67 48.00 13.33 48.00 10.00 C 37.33 10.00 26.67 10.00 16.00 10.00 C 16.00 13.33 16.00 16.67 15.99 20.00 C 14.66 20.00 13.34 20.00 12.01 20.00 C 11.99 15.33 12.00 10.67 12.00 6.00 Z" />
<path fill="#000000" opacity="1.00" d=" M 19.36 24.27 C 22.42 23.04 26.12 25.68 25.97 28.98 C 25.81 32.29 27.04 36.64 23.98 39.00 C 20.97 41.55 15.81 38.96 16.03 35.03 C 16.06 31.36 14.88 25.84 19.36 24.27 M 20.05 28.26 C 20.00 30.75 20.00 33.24 20.04 35.73 C 20.52 35.73 21.48 35.73 21.96 35.73 C 22.00 33.24 22.00 30.76 21.96 28.27 C 21.48 28.27 20.52 28.27 20.05 28.26 Z" />
<path fill="#000000" opacity="1.00" d=" M 27.92 24.02 C 30.64 24.00 33.36 24.00 36.08 24.02 C 36.01 25.88 36.56 28.24 34.00 28.48 C 34.00 32.32 34.00 36.16 33.99 40.00 C 32.66 40.00 31.34 40.00 30.01 40.00 C 30.00 36.16 30.00 32.32 30.00 28.48 C 27.44 28.24 27.99 25.88 27.92 24.02 Z" />
<path fill="#000000" opacity="1.00" d=" M 38.00 24.00 C 41.33 24.00 44.67 24.00 48.00 24.01 C 48.00 25.33 48.00 26.66 48.00 27.98 C 46.00 28.00 44.00 28.00 41.99 28.01 C 41.99 28.49 41.99 29.46 41.99 29.94 C 43.33 29.98 44.66 30.02 46.00 30.06 C 46.00 31.35 46.01 32.65 46.01 33.94 C 44.67 33.98 43.33 34.02 42.00 34.06 C 41.99 36.04 41.99 38.02 41.99 40.00 C 40.66 40.00 39.34 40.00 38.01 40.00 C 37.99 34.67 38.00 29.33 38.00 24.00 Z" />
<path fill="#000000" opacity="1.00" d=" M 12.01 44.00 C 13.34 44.00 14.66 44.00 15.99 44.00 C 16.00 47.33 16.00 50.66 16.00 54.00 C 26.67 54.00 37.33 54.00 48.00 54.00 C 48.00 50.66 48.00 47.33 48.01 44.00 C 49.34 44.00 50.66 44.00 51.99 44.00 C 52.01 48.67 52.00 53.33 52.00 58.00 C 38.67 58.00 25.33 58.00 12.00 58.00 C 12.00 53.33 11.99 48.67 12.01 44.00 Z" />
</g>
</svg>
