<?xml version="1.0" encoding="UTF-8" ?>
<!DOCTYPE svg PUBLIC "-//W3C//DTD SVG 1.1//EN" "http://www.w3.org/Graphics/SVG/1.1/DTD/svg11.dtd">
<svg width="60pt" height="60pt" viewBox="0 0 60 60" version="1.1" xmlns="http://www.w3.org/2000/svg">
<g id="#ffffffff">
<path fill="#ffffff" opacity="1.00" d=" M 0.00 0.00 L 60.00 0.00 L 60.00 60.00 L 0.00 60.00 L 0.00 0.00 M 46.00 5.97 C 46.00 7.98 46.00 9.99 46.00 12.00 C 33.63 12.01 21.25 11.97 8.88 12.01 C 7.73 11.91 5.81 12.38 6.07 13.92 C 5.73 15.53 7.68 16.14 8.92 15.99 C 21.28 16.03 33.64 15.99 46.00 16.00 C 45.99 18.00 46.00 20.00 46.00 22.00 C 48.67 19.33 51.34 16.66 54.01 13.99 C 51.34 11.32 48.68 8.64 46.00 5.97 M 10.37 43.85 C 8.75 44.09 6.15 43.70 5.95 45.98 C 6.10 48.29 8.74 47.91 10.37 48.15 C 12.35 50.50 15.76 50.44 17.66 48.04 C 20.56 47.97 23.46 47.97 26.35 48.06 C 28.25 50.49 31.76 50.50 33.65 48.05 C 36.56 47.97 39.47 47.97 42.37 48.06 C 44.25 50.49 47.68 50.47 49.63 48.14 C 51.13 47.91 54.09 48.28 53.93 46.02 C 54.12 43.72 51.14 44.08 49.62 43.85 C 47.67 41.51 44.22 41.52 42.34 43.95 C 39.44 44.03 36.54 44.03 33.64 43.94 C 32.56 43.13 31.52 41.94 30.04 42.00 C 28.18 41.92 27.11 43.99 25.25 43.99 C 22.72 44.11 20.18 43.98 17.65 43.94 C 15.76 41.52 12.32 41.51 10.37 43.85 Z" />
</g>
<g id="#000000ff">
<path fill="#968176" opacity="1.00" d=" M 46.00 5.97 C 48.68 8.64 51.34 11.32 54.01 13.99 C 51.34 16.66 48.67 19.33 46.00 22.00 C 46.00 20.00 45.99 18.00 46.00 16.00 C 33.64 15.99 21.28 16.03 8.92 15.99 C 7.68 16.14 5.73 15.53 6.07 13.92 C 5.81 12.38 7.73 11.91 8.88 12.01 C 21.25 11.97 33.63 12.01 46.00 12.00 C 46.00 9.99 46.00 7.98 46.00 5.97 Z" />
<path fill="#968176" opacity="1.00" d=" M 10.37 43.85 C 12.32 41.51 15.76 41.52 17.65 43.94 C 20.18 43.98 22.72 44.11 25.25 43.99 C 27.11 43.99 28.18 41.92 30.04 42.00 C 31.52 41.94 32.56 43.13 33.64 43.94 C 36.54 44.03 39.44 44.03 42.34 43.95 C 44.22 41.52 47.67 41.51 49.62 43.85 C 51.14 44.08 54.12 43.72 53.93 46.02 C 54.09 48.28 51.13 47.91 49.63 48.14 C 47.68 50.47 44.25 50.49 42.37 48.06 C 39.47 47.97 36.56 47.97 33.65 48.05 C 31.76 50.50 28.25 50.49 26.35 48.06 C 23.46 47.97 20.56 47.97 17.66 48.04 C 15.76 50.44 12.35 50.50 10.37 48.15 C 8.74 47.91 6.10 48.29 5.95 45.98 C 6.15 43.70 8.75 44.09 10.37 43.85 Z" />
</g>
</svg>
