<?xml version="1.0" encoding="UTF-8" ?>
<!DOCTYPE svg PUBLIC "-//W3C//DTD SVG 1.1//EN" "http://www.w3.org/Graphics/SVG/1.1/DTD/svg11.dtd">
<svg width="60pt" height="60pt" viewBox="0 0 60 60" version="1.1" xmlns="http://www.w3.org/2000/svg">
<g id="#ffffffff">
<path fill="#ffffff" opacity="1.00" d=" M 0.00 0.00 L 60.00 0.00 L 60.00 60.00 L 0.00 60.00 L 0.00 0.00 M 44.19 8.80 C 45.63 10.73 47.50 12.29 49.20 13.99 C 43.17 14.16 37.13 13.70 31.13 14.21 C 29.29 14.92 29.88 18.08 31.89 17.89 C 37.65 18.20 43.42 17.89 49.18 18.01 C 47.48 19.71 45.63 21.29 44.18 23.22 C 43.08 25.67 46.63 26.95 47.89 24.92 C 50.53 21.93 54.24 19.57 56.00 15.98 C 54.05 12.28 50.25 9.72 47.40 6.65 C 45.97 4.97 43.11 6.80 44.19 8.80 M 14.19 10.25 C 9.70 11.97 6.89 17.29 8.37 21.96 C 10.39 28.95 15.60 34.38 20.53 39.49 C 25.62 44.41 31.04 49.58 37.99 51.61 C 42.45 53.03 47.43 50.58 49.47 46.50 C 50.05 45.37 50.38 43.66 49.03 42.93 C 45.51 40.72 42.03 38.26 38.11 36.82 C 35.83 37.55 33.88 39.83 31.45 39.63 C 27.10 36.74 23.28 32.90 20.36 28.56 C 20.14 26.13 22.46 24.19 23.16 21.90 C 22.26 18.77 20.10 16.21 18.63 13.35 C 17.68 11.81 16.47 9.14 14.19 10.25 Z" />
</g>
<g id="#000000ff">
<path fill="#000000" opacity="1.00" d=" M 44.19 8.80 C 43.11 6.80 45.97 4.97 47.40 6.65 C 50.25 9.72 54.05 12.28 56.00 15.98 C 54.24 19.57 50.53 21.93 47.89 24.92 C 46.63 26.95 43.08 25.67 44.18 23.22 C 45.63 21.29 47.48 19.71 49.18 18.01 C 43.42 17.89 37.65 18.20 31.89 17.89 C 29.88 18.08 29.29 14.92 31.13 14.21 C 37.13 13.70 43.17 14.16 49.20 13.99 C 47.50 12.29 45.63 10.73 44.19 8.80 Z" />
<path fill="#000000" opacity="1.00" d=" M 14.19 10.25 C 16.47 9.14 17.68 11.81 18.63 13.35 C 20.10 16.21 22.26 18.77 23.16 21.90 C 22.46 24.19 20.14 26.13 20.36 28.56 C 23.28 32.90 27.10 36.74 31.45 39.63 C 33.88 39.83 35.83 37.55 38.11 36.82 C 42.03 38.26 45.51 40.72 49.03 42.93 C 50.38 43.66 50.05 45.37 49.47 46.50 C 47.43 50.58 42.45 53.03 37.99 51.61 C 31.04 49.58 25.62 44.41 20.53 39.49 C 15.60 34.38 10.39 28.95 8.37 21.96 C 6.89 17.29 9.70 11.97 14.19 10.25 Z" />
</g>
</svg>
