<?xml version="1.0" encoding="UTF-8" ?>
<!DOCTYPE svg PUBLIC "-//W3C//DTD SVG 1.1//EN" "http://www.w3.org/Graphics/SVG/1.1/DTD/svg11.dtd">
<svg width="60pt" height="60pt" viewBox="0 0 60 60" version="1.1" xmlns="http://www.w3.org/2000/svg">
<g id="#ffffffff">
<path fill="#ffffff" opacity="1.00" d=" M 0.00 0.00 L 60.00 0.00 L 60.00 60.00 L 0.00 60.00 L 0.00 0.00 M 8.37 8.37 C 6.61 9.14 5.80 11.11 6.00 12.94 C 6.05 25.31 5.90 37.69 6.07 50.06 C 5.88 51.61 7.69 52.15 8.91 51.99 C 23.28 51.97 37.66 52.09 52.03 51.93 C 53.60 52.10 54.17 50.31 53.99 49.06 C 54.02 37.01 54.00 24.95 54.00 12.89 C 54.31 10.57 52.63 7.94 50.11 8.05 C 37.74 7.91 25.37 8.06 12.99 7.98 C 11.46 8.06 9.83 7.80 8.37 8.37 Z" />
<path fill="#ffffff" opacity="1.00" d=" M 10.00 18.00 C 23.33 18.00 36.67 18.00 50.00 18.00 C 50.00 28.00 50.00 38.00 50.00 48.00 C 36.67 48.00 23.33 48.00 10.00 48.00 C 10.00 38.00 10.00 28.00 10.00 18.00 M 15.19 22.18 C 13.61 22.77 13.60 25.25 15.20 25.81 C 18.40 26.16 21.66 26.14 24.86 25.81 C 26.37 25.14 26.38 22.83 24.84 22.19 C 21.64 21.85 18.39 21.85 15.19 22.18 M 25.16 28.19 C 23.63 28.81 23.65 31.11 25.11 31.80 C 28.33 32.15 31.60 32.15 34.81 31.81 C 36.39 31.20 36.37 28.88 34.87 28.19 C 31.65 27.85 28.37 27.84 25.16 28.19 M 35.18 34.18 C 33.64 34.80 33.61 37.16 35.14 37.80 C 38.36 38.15 41.63 38.15 44.84 37.81 C 46.38 37.16 46.37 34.86 44.86 34.19 C 41.65 33.86 38.39 33.86 35.18 34.18 M 15.16 40.18 C 13.63 40.83 13.61 43.22 15.19 43.81 C 18.39 44.15 21.65 44.15 24.85 43.81 C 26.38 43.15 26.37 40.86 24.86 40.19 C 21.64 39.85 18.37 39.85 15.16 40.18 Z" />
</g>
<g id="#000000ff">
<path fill="#000000" opacity="1.00" d=" M 8.37 8.37 C 9.83 7.80 11.46 8.06 12.99 7.98 C 25.37 8.06 37.74 7.91 50.11 8.05 C 52.63 7.94 54.31 10.57 54.00 12.89 C 54.00 24.95 54.02 37.01 53.99 49.06 C 54.17 50.31 53.60 52.10 52.03 51.93 C 37.66 52.09 23.28 51.97 8.91 51.99 C 7.69 52.15 5.88 51.61 6.07 50.06 C 5.90 37.69 6.05 25.31 6.00 12.94 C 5.80 11.11 6.61 9.14 8.37 8.37 M 10.00 18.00 C 10.00 28.00 10.00 38.00 10.00 48.00 C 23.33 48.00 36.67 48.00 50.00 48.00 C 50.00 38.00 50.00 28.00 50.00 18.00 C 36.67 18.00 23.33 18.00 10.00 18.00 Z" />
<path fill="#000000" opacity="1.00" d=" M 15.19 22.18 C 18.39 21.85 21.64 21.85 24.84 22.19 C 26.38 22.83 26.37 25.14 24.86 25.81 C 21.66 26.14 18.40 26.16 15.20 25.81 C 13.60 25.25 13.61 22.77 15.19 22.18 Z" />
<path fill="#000000" opacity="1.00" d=" M 25.16 28.19 C 28.37 27.84 31.65 27.85 34.87 28.19 C 36.37 28.88 36.39 31.20 34.81 31.81 C 31.60 32.15 28.33 32.15 25.11 31.80 C 23.65 31.11 23.63 28.81 25.16 28.19 Z" />
<path fill="#000000" opacity="1.00" d=" M 35.18 34.18 C 38.39 33.86 41.65 33.86 44.86 34.19 C 46.37 34.86 46.38 37.16 44.84 37.81 C 41.63 38.15 38.36 38.15 35.14 37.80 C 33.61 37.16 33.64 34.80 35.18 34.18 Z" />
<path fill="#000000" opacity="1.00" d=" M 15.16 40.18 C 18.37 39.85 21.64 39.85 24.86 40.19 C 26.37 40.86 26.38 43.15 24.85 43.81 C 21.65 44.15 18.39 44.15 15.19 43.81 C 13.61 43.22 13.63 40.83 15.16 40.18 Z" />
</g>
</svg>
