<?xml version="1.0" encoding="UTF-8" ?>
<!DOCTYPE svg PUBLIC "-//W3C//DTD SVG 1.1//EN" "http://www.w3.org/Graphics/SVG/1.1/DTD/svg11.dtd">
<svg width="60pt" height="60pt" viewBox="0 0 60 60" version="1.1" xmlns="http://www.w3.org/2000/svg">
<g id="#ffffffff">
<path fill="#ffffff" opacity="1.00" d=" M 0.00 0.00 L 60.00 0.00 L 60.00 60.00 L 0.00 60.00 L 0.00 0.00 M 6.36 10.37 C 4.62 11.14 3.82 13.09 4.00 14.91 C 4.03 25.30 3.93 35.69 4.05 46.07 C 3.92 48.62 6.57 50.32 8.91 50.00 C 23.31 49.97 37.72 50.07 52.12 49.95 C 54.59 49.99 56.32 47.45 56.00 45.13 C 56.01 35.07 56.00 25.01 56.00 14.95 C 56.33 12.59 54.63 9.91 52.06 10.05 C 38.37 9.91 24.69 10.07 11.00 9.98 C 9.46 10.06 7.84 9.81 6.36 10.37 Z" />
<path fill="#ffffff" opacity="1.00" d=" M 10.16 19.19 C 10.85 17.64 12.70 18.06 14.04 17.96 C 15.36 18.04 17.10 17.70 17.83 19.14 C 18.17 22.08 17.98 25.05 17.99 28.00 C 15.33 28.00 12.67 28.00 10.01 28.00 C 10.02 25.06 9.84 22.11 10.16 19.19 Z" />
<path fill="#ffffff" opacity="1.00" d=" M 34.38 18.58 C 41.33 16.11 49.47 21.55 49.91 28.88 C 50.83 36.06 44.05 42.84 36.87 41.91 C 29.83 41.47 24.46 33.92 26.38 27.11 C 27.33 23.14 30.48 19.79 34.38 18.58 M 31.19 28.08 C 28.82 29.10 30.46 32.99 32.78 31.81 C 35.21 30.88 33.56 27.12 31.19 28.08 M 43.21 28.10 C 40.80 29.08 42.47 33.01 44.79 31.80 C 47.21 30.87 45.56 27.14 43.21 28.10 Z" />
<path fill="#ffffff" opacity="1.00" d=" M 10.01 32.00 C 12.67 32.00 15.33 32.00 17.99 32.00 C 17.52 35.17 19.18 39.30 16.88 41.83 C 14.71 41.86 11.72 42.86 10.17 40.88 C 9.84 37.93 10.02 34.96 10.01 32.00 Z" />
</g>
<g id="#000000ff">
<path fill="#000000" opacity="1.00" d=" M 6.36 10.37 C 7.84 9.81 9.46 10.06 11.00 9.98 C 24.69 10.07 38.37 9.91 52.06 10.05 C 54.63 9.91 56.33 12.59 56.00 14.95 C 56.00 25.01 56.01 35.07 56.00 45.13 C 56.32 47.45 54.59 49.99 52.12 49.95 C 37.72 50.07 23.31 49.97 8.91 50.00 C 6.57 50.32 3.92 48.62 4.05 46.07 C 3.93 35.69 4.03 25.30 4.00 14.91 C 3.82 13.09 4.62 11.14 6.36 10.37 M 10.16 19.19 C 9.84 22.11 10.02 25.06 10.01 28.00 C 12.67 28.00 15.33 28.00 17.99 28.00 C 17.98 25.05 18.17 22.08 17.83 19.14 C 17.10 17.70 15.36 18.04 14.04 17.96 C 12.70 18.06 10.85 17.64 10.16 19.19 M 34.38 18.58 C 30.48 19.79 27.33 23.14 26.38 27.11 C 24.46 33.92 29.83 41.47 36.87 41.91 C 44.05 42.84 50.83 36.06 49.91 28.88 C 49.47 21.55 41.33 16.11 34.38 18.58 M 10.01 32.00 C 10.02 34.96 9.84 37.93 10.17 40.88 C 11.72 42.86 14.71 41.86 16.88 41.83 C 19.18 39.30 17.52 35.17 17.99 32.00 C 15.33 32.00 12.67 32.00 10.01 32.00 Z" />
<path fill="#000000" opacity="1.00" d=" M 31.19 28.08 C 33.56 27.12 35.21 30.88 32.78 31.81 C 30.46 32.99 28.82 29.10 31.19 28.08 Z" />
<path fill="#000000" opacity="1.00" d=" M 43.21 28.10 C 45.56 27.14 47.21 30.87 44.79 31.80 C 42.47 33.01 40.80 29.08 43.21 28.10 Z" />
</g>
</svg>
