<?xml version="1.0" encoding="UTF-8" ?>
<!DOCTYPE svg PUBLIC "-//W3C//DTD SVG 1.1//EN" "http://www.w3.org/Graphics/SVG/1.1/DTD/svg11.dtd">
<svg width="64pt" height="64pt" viewBox="0 0 64 64" version="1.1" xmlns="http://www.w3.org/2000/svg">
<g id="#ffffffff">
<path fill="#ffffff" opacity="1.00" d=" M 0.00 0.00 L 64.00 0.00 L 64.00 64.00 L 0.00 64.00 L 0.00 0.00 M 4.00 12.00 C 4.00 25.33 4.00 38.67 4.00 52.00 C 22.67 52.00 41.33 52.00 60.00 52.00 C 60.00 38.67 60.00 25.33 60.00 12.00 C 41.33 12.00 22.67 12.00 4.00 12.00 Z" />
<path fill="#ffffff" opacity="1.00" d=" M 8.00 16.00 C 24.00 16.00 40.00 16.00 56.00 16.00 C 56.00 26.67 56.00 37.33 56.00 48.00 C 40.00 48.00 24.00 48.00 8.00 48.00 C 8.00 37.33 8.00 26.67 8.00 16.00 M 12.00 20.00 C 12.00 28.00 12.00 36.00 12.00 44.00 C 16.00 44.00 20.00 44.00 24.00 44.00 C 24.00 36.00 24.00 28.00 24.00 20.00 C 20.00 20.00 16.00 20.00 12.00 20.00 M 36.45 20.57 C 31.19 22.16 27.44 27.64 28.09 33.13 C 28.53 39.48 34.77 44.63 41.08 43.91 C 47.84 43.47 53.19 36.50 51.76 29.85 C 50.70 23.02 43.02 18.28 36.45 20.57 Z" />
<path fill="#ffffff" opacity="1.00" d=" M 16.00 24.00 C 17.33 24.00 18.67 24.00 20.00 24.00 C 20.00 26.00 20.00 28.00 20.00 30.00 C 18.67 30.00 17.33 30.00 16.00 30.00 C 16.00 28.00 16.00 26.00 16.00 24.00 Z" />
<path fill="#ffffff" opacity="1.00" d=" M 37.30 24.47 C 43.01 22.11 49.55 28.07 47.74 33.97 C 46.60 39.49 39.11 41.91 34.91 38.17 C 30.17 34.60 31.59 26.20 37.30 24.47 M 34.00 30.00 C 34.00 31.33 34.00 32.67 34.00 34.00 C 35.33 34.00 36.67 34.00 38.00 34.00 C 38.00 32.67 38.00 31.33 38.00 30.00 C 36.67 30.00 35.33 30.00 34.00 30.00 M 42.00 30.00 C 42.00 31.33 42.00 32.67 42.00 34.00 C 43.33 34.00 44.67 34.00 46.00 34.00 C 46.00 32.67 46.00 31.33 46.00 30.00 C 44.67 30.00 43.33 30.00 42.00 30.00 Z" />
<path fill="#ffffff" opacity="1.00" d=" M 16.00 34.00 C 17.33 34.00 18.67 34.00 20.00 34.00 C 20.00 36.00 20.00 38.00 20.00 40.00 C 18.67 40.00 17.33 40.00 16.00 40.00 C 16.00 38.00 16.00 36.00 16.00 34.00 Z" />
</g>
<g id="#000000ff">
<path fill="#000000" opacity="1.00" d=" M 4.00 12.00 C 22.67 12.00 41.33 12.00 60.00 12.00 C 60.00 25.33 60.00 38.67 60.00 52.00 C 41.33 52.00 22.67 52.00 4.00 52.00 C 4.00 38.67 4.00 25.33 4.00 12.00 M 8.00 16.00 C 8.00 26.67 8.00 37.33 8.00 48.00 C 24.00 48.00 40.00 48.00 56.00 48.00 C 56.00 37.33 56.00 26.67 56.00 16.00 C 40.00 16.00 24.00 16.00 8.00 16.00 Z" />
<path fill="#000000" opacity="1.00" d=" M 12.00 20.00 C 16.00 20.00 20.00 20.00 24.00 20.00 C 24.00 28.00 24.00 36.00 24.00 44.00 C 20.00 44.00 16.00 44.00 12.00 44.00 C 12.00 36.00 12.00 28.00 12.00 20.00 M 16.00 24.00 C 16.00 26.00 16.00 28.00 16.00 30.00 C 17.33 30.00 18.67 30.00 20.00 30.00 C 20.00 28.00 20.00 26.00 20.00 24.00 C 18.67 24.00 17.33 24.00 16.00 24.00 M 16.00 34.00 C 16.00 36.00 16.00 38.00 16.00 40.00 C 17.33 40.00 18.67 40.00 20.00 40.00 C 20.00 38.00 20.00 36.00 20.00 34.00 C 18.67 34.00 17.33 34.00 16.00 34.00 Z" />
<path fill="#000000" opacity="1.00" d=" M 36.45 20.57 C 43.02 18.28 50.70 23.02 51.76 29.85 C 53.19 36.50 47.84 43.47 41.08 43.91 C 34.77 44.63 28.53 39.48 28.09 33.13 C 27.44 27.64 31.19 22.16 36.45 20.57 M 37.30 24.47 C 31.59 26.20 30.17 34.60 34.91 38.17 C 39.11 41.91 46.60 39.49 47.74 33.97 C 49.55 28.07 43.01 22.11 37.30 24.47 Z" />
<path fill="#000000" opacity="1.00" d=" M 34.00 30.00 C 35.33 30.00 36.67 30.00 38.00 30.00 C 38.00 31.33 38.00 32.67 38.00 34.00 C 36.67 34.00 35.33 34.00 34.00 34.00 C 34.00 32.67 34.00 31.33 34.00 30.00 Z" />
<path fill="#000000" opacity="1.00" d=" M 42.00 30.00 C 43.33 30.00 44.67 30.00 46.00 30.00 C 46.00 31.33 46.00 32.67 46.00 34.00 C 44.67 34.00 43.33 34.00 42.00 34.00 C 42.00 32.67 42.00 31.33 42.00 30.00 Z" />
</g>
</svg>
