<?xml version="1.0" encoding="UTF-8" ?>
<!DOCTYPE svg PUBLIC "-//W3C//DTD SVG 1.1//EN" "http://www.w3.org/Graphics/SVG/1.1/DTD/svg11.dtd">
<svg width="64pt" height="64pt" viewBox="0 0 64 64" version="1.1" xmlns="http://www.w3.org/2000/svg">
<g id="#ffffffff">
<path fill="#ffffff" opacity="1.00" d=" M 0.00 0.00 L 64.00 0.00 L 64.00 64.00 L 0.00 64.00 L 0.00 0.00 M 18.07 19.99 C 16.71 19.99 15.35 20.00 13.99 20.00 C 14.01 21.34 14.01 22.67 14.00 24.00 C 15.35 24.00 16.71 24.00 18.07 24.01 C 19.10 30.04 23.99 34.87 29.99 35.94 C 29.99 37.29 29.99 38.65 30.01 40.00 C 25.37 40.14 20.70 39.68 16.08 40.26 C 12.45 41.02 10.27 44.49 9.81 47.97 C 11.12 47.96 12.43 47.97 13.74 48.00 C 14.38 46.42 15.04 44.42 17.02 44.14 C 21.33 43.78 25.66 44.11 29.98 44.00 C 29.97 47.29 29.67 51.14 32.33 53.60 C 35.63 57.03 40.79 55.82 45.04 56.00 C 48.65 56.30 52.34 54.15 53.51 50.67 C 55.19 46.43 52.36 41.25 47.94 40.26 C 44.65 39.74 41.31 40.08 38.00 40.00 C 38.01 41.34 38.01 42.67 38.00 44.01 C 41.22 44.14 44.56 43.59 47.71 44.38 C 51.05 45.72 50.54 51.21 46.98 51.86 C 43.97 52.12 40.94 52.08 37.93 51.94 C 35.83 52.05 33.93 50.14 34.05 48.05 C 33.88 44.01 34.05 39.97 34.01 35.94 C 40.02 34.87 44.88 30.03 45.93 24.01 C 47.29 24.00 48.65 24.00 50.01 24.00 C 49.99 22.67 49.99 21.33 50.01 20.00 C 48.65 20.00 47.29 19.99 45.93 19.99 C 44.77 13.38 38.83 7.81 31.95 8.04 C 25.14 7.91 19.19 13.39 18.07 19.99 M 10.00 52.00 C 10.01 53.33 10.01 54.67 10.00 56.00 C 11.33 55.99 12.67 55.99 14.00 56.00 C 13.99 54.67 13.99 53.33 14.00 52.00 C 12.67 52.01 11.33 52.01 10.00 52.00 Z" />
<path fill="#ffffff" opacity="1.00" d=" M 28.43 12.67 C 35.01 9.83 42.98 15.93 41.92 23.02 C 41.52 30.49 31.74 34.73 26.00 29.97 C 19.77 25.74 21.27 15.03 28.43 12.67 M 30.24 16.25 C 25.63 17.31 24.52 24.12 28.30 26.79 C 31.68 29.50 37.55 27.38 37.93 22.91 C 38.81 18.68 34.30 14.85 30.24 16.25 Z" />
<path fill="#ffffff" opacity="1.00" d=" M 31.22 20.14 C 33.65 18.90 35.23 23.12 32.76 23.85 C 30.37 25.08 28.77 20.92 31.22 20.14 Z" />
</g>
<g id="#000000ff">
<path fill="#000000" opacity="1.00" d=" M 18.07 19.99 C 19.19 13.39 25.14 7.91 31.95 8.04 C 38.83 7.81 44.77 13.38 45.93 19.99 C 47.29 19.99 48.65 20.00 50.01 20.00 C 49.99 21.33 49.99 22.67 50.01 24.00 C 48.65 24.00 47.29 24.00 45.93 24.01 C 44.88 30.03 40.02 34.87 34.01 35.94 C 34.05 39.97 33.88 44.01 34.05 48.05 C 33.93 50.14 35.83 52.05 37.93 51.94 C 40.94 52.08 43.97 52.12 46.98 51.86 C 50.54 51.21 51.05 45.72 47.71 44.38 C 44.56 43.59 41.22 44.14 38.00 44.01 C 38.01 42.67 38.01 41.34 38.00 40.00 C 41.31 40.08 44.65 39.74 47.94 40.26 C 52.36 41.25 55.19 46.43 53.51 50.67 C 52.34 54.15 48.65 56.30 45.04 56.00 C 40.79 55.82 35.63 57.03 32.33 53.60 C 29.67 51.14 29.97 47.29 29.98 44.00 C 25.66 44.11 21.33 43.78 17.02 44.14 C 15.04 44.42 14.38 46.42 13.74 48.00 C 12.43 47.97 11.12 47.96 9.81 47.97 C 10.27 44.49 12.45 41.02 16.08 40.26 C 20.70 39.68 25.37 40.14 30.01 40.00 C 29.99 38.65 29.99 37.29 29.99 35.94 C 23.99 34.87 19.10 30.04 18.07 24.01 C 16.71 24.00 15.35 24.00 14.00 24.00 C 14.01 22.67 14.01 21.34 13.99 20.00 C 15.35 20.00 16.71 19.99 18.07 19.99 M 28.43 12.67 C 21.27 15.03 19.77 25.74 26.00 29.97 C 31.74 34.73 41.52 30.49 41.92 23.02 C 42.98 15.93 35.01 9.83 28.43 12.67 Z" />
<path fill="#000000" opacity="1.00" d=" M 30.24 16.25 C 34.30 14.85 38.81 18.68 37.93 22.91 C 37.55 27.38 31.68 29.50 28.30 26.79 C 24.52 24.12 25.63 17.31 30.24 16.25 M 31.22 20.14 C 28.77 20.92 30.37 25.08 32.76 23.85 C 35.23 23.12 33.65 18.90 31.22 20.14 Z" />
<path fill="#000000" opacity="1.00" d=" M 10.00 52.00 C 11.33 52.01 12.67 52.01 14.00 52.00 C 13.99 53.33 13.99 54.67 14.00 56.00 C 12.67 55.99 11.33 55.99 10.00 56.00 C 10.01 54.67 10.01 53.33 10.00 52.00 Z" />
</g>
</svg>
