<?xml version="1.0" encoding="UTF-8" ?>
<!DOCTYPE svg PUBLIC "-//W3C//DTD SVG 1.1//EN" "http://www.w3.org/Graphics/SVG/1.1/DTD/svg11.dtd">
<svg width="64pt" height="64pt" viewBox="0 0 64 64" version="1.1" xmlns="http://www.w3.org/2000/svg">
<g id="#ffffffff">
<path fill="#ffffff" opacity="1.00" d=" M 0.00 0.00 L 64.00 0.00 L 64.00 64.00 L 0.00 64.00 L 0.00 0.00 M 10.21 10.29 C 9.06 15.76 8.75 21.42 8.22 26.98 C 8.50 30.77 13.01 31.09 15.92 31.57 C 22.08 32.12 28.94 32.58 34.55 29.60 C 37.36 25.66 34.48 20.39 34.69 15.92 C 43.68 16.24 51.67 23.92 51.96 32.98 C 52.55 38.22 48.44 43.48 43.13 43.88 C 36.10 44.16 29.05 43.92 22.00 44.00 C 22.00 45.33 22.00 46.67 22.00 48.00 C 30.00 47.79 38.05 48.48 46.02 47.56 C 39.35 53.44 30.14 51.83 22.00 52.00 C 22.00 53.33 22.00 54.67 22.00 56.00 C 26.71 55.93 31.43 56.16 36.13 55.87 C 44.41 55.18 51.91 49.28 54.66 41.46 C 57.42 34.09 55.76 25.32 50.49 19.48 C 46.49 14.81 40.48 12.22 34.40 11.91 C 33.13 6.11 26.25 8.44 22.04 8.00 C 18.20 8.59 12.70 6.31 10.21 10.29 M 10.00 44.00 C 10.00 45.33 10.00 46.67 10.00 48.00 C 13.33 48.00 16.67 48.00 20.00 48.00 C 20.00 46.67 20.00 45.33 20.00 44.00 C 16.67 44.00 13.33 44.00 10.00 44.00 M 10.00 52.00 C 10.00 53.33 10.00 54.67 10.00 56.00 C 13.33 56.00 16.67 56.00 20.00 56.00 C 20.00 54.67 20.00 53.33 20.00 52.00 C 16.67 52.00 13.33 52.00 10.00 52.00 Z" />
<path fill="#ffffff" opacity="1.00" d=" M 13.81 12.00 C 19.27 12.00 24.73 12.00 30.19 12.00 C 30.34 13.33 30.48 14.67 30.62 16.00 C 24.87 16.00 19.13 16.00 13.38 16.00 C 13.52 14.67 13.66 13.33 13.81 12.00 Z" />
<path fill="#ffffff" opacity="1.00" d=" M 12.94 20.00 C 18.98 20.00 25.02 20.00 31.06 20.00 C 31.31 22.26 31.57 24.52 31.80 26.78 C 25.39 28.38 18.61 28.38 12.21 26.78 C 12.43 24.52 12.69 22.26 12.94 20.00 Z" />
</g>
<g id="#000000ff">
<path fill="#000000" opacity="1.00" d=" M 10.21 10.29 C 12.70 6.31 18.20 8.59 22.04 8.00 C 26.25 8.44 33.13 6.11 34.40 11.91 C 40.48 12.22 46.49 14.81 50.49 19.48 C 55.76 25.32 57.42 34.09 54.66 41.46 C 51.91 49.28 44.41 55.18 36.13 55.87 C 31.43 56.16 26.71 55.93 22.00 56.00 C 22.00 54.67 22.00 53.33 22.00 52.00 C 30.14 51.83 39.35 53.44 46.02 47.56 C 38.05 48.48 30.00 47.79 22.00 48.00 C 22.00 46.67 22.00 45.33 22.00 44.00 C 29.05 43.92 36.10 44.16 43.13 43.88 C 48.44 43.48 52.55 38.22 51.96 32.98 C 51.67 23.92 43.68 16.24 34.69 15.92 C 34.48 20.39 37.36 25.66 34.55 29.60 C 28.94 32.58 22.08 32.12 15.92 31.57 C 13.01 31.09 8.50 30.77 8.22 26.98 C 8.75 21.42 9.06 15.76 10.21 10.29 M 13.81 12.00 C 13.66 13.33 13.52 14.67 13.38 16.00 C 19.13 16.00 24.87 16.00 30.62 16.00 C 30.48 14.67 30.34 13.33 30.19 12.00 C 24.73 12.00 19.27 12.00 13.81 12.00 M 12.94 20.00 C 12.69 22.26 12.43 24.52 12.21 26.78 C 18.61 28.38 25.39 28.38 31.80 26.78 C 31.57 24.52 31.31 22.26 31.06 20.00 C 25.02 20.00 18.98 20.00 12.94 20.00 Z" />
<path fill="#000000" opacity="1.00" d=" M 10.00 44.00 C 13.33 44.00 16.67 44.00 20.00 44.00 C 20.00 45.33 20.00 46.67 20.00 48.00 C 16.67 48.00 13.33 48.00 10.00 48.00 C 10.00 46.67 10.00 45.33 10.00 44.00 Z" />
<path fill="#000000" opacity="1.00" d=" M 10.00 52.00 C 13.33 52.00 16.67 52.00 20.00 52.00 C 20.00 53.33 20.00 54.67 20.00 56.00 C 16.67 56.00 13.33 56.00 10.00 56.00 C 10.00 54.67 10.00 53.33 10.00 52.00 Z" />
</g>
</svg>
