<?xml version="1.0" encoding="UTF-8" ?>
<!DOCTYPE svg PUBLIC "-//W3C//DTD SVG 1.1//EN" "http://www.w3.org/Graphics/SVG/1.1/DTD/svg11.dtd">
<svg width="64pt" height="64pt" viewBox="0 0 64 64" version="1.1" xmlns="http://www.w3.org/2000/svg">
<g id="#ffffffff">
<path fill="#ffffff" opacity="1.00" d=" M 0.00 0.00 L 64.00 0.00 L 64.00 64.00 L 0.00 64.00 L 0.00 0.00 M 18.63 15.18 C 19.84 15.69 21.06 16.20 22.28 16.70 C 24.75 10.71 32.84 7.75 38.08 12.10 C 42.56 15.25 42.13 21.18 42.00 26.00 C 32.00 26.00 22.00 26.00 12.00 26.00 C 12.00 36.67 12.00 47.33 12.00 58.00 C 25.33 58.00 38.67 58.00 52.00 58.00 C 52.00 47.33 52.00 36.67 52.00 26.00 C 50.00 26.00 48.00 26.00 46.00 26.00 C 45.95 21.86 46.46 17.39 44.39 13.62 C 41.65 8.06 34.92 4.91 28.89 6.37 C 24.20 7.34 20.67 11.02 18.63 15.18 Z" />
<path fill="#ffffff" opacity="1.00" d=" M 16.00 30.00 C 26.67 30.00 37.33 30.00 48.00 30.00 C 48.00 38.00 48.00 46.00 48.00 54.00 C 37.33 54.00 26.67 54.00 16.00 54.00 C 16.00 46.00 16.00 38.00 16.00 30.00 Z" />
</g>
<g id="#000000ff">
<path fill="#000000" opacity="1.00" d=" M 18.63 15.18 C 20.67 11.02 24.20 7.34 28.89 6.37 C 34.92 4.91 41.65 8.06 44.39 13.62 C 46.46 17.39 45.95 21.86 46.00 26.00 C 48.00 26.00 50.00 26.00 52.00 26.00 C 52.00 36.67 52.00 47.33 52.00 58.00 C 38.67 58.00 25.33 58.00 12.00 58.00 C 12.00 47.33 12.00 36.67 12.00 26.00 C 22.00 26.00 32.00 26.00 42.00 26.00 C 42.13 21.18 42.56 15.25 38.08 12.10 C 32.84 7.75 24.75 10.71 22.28 16.70 C 21.06 16.20 19.84 15.69 18.63 15.18 M 16.00 30.00 C 16.00 38.00 16.00 46.00 16.00 54.00 C 26.67 54.00 37.33 54.00 48.00 54.00 C 48.00 46.00 48.00 38.00 48.00 30.00 C 37.33 30.00 26.67 30.00 16.00 30.00 Z" />
</g>
</svg>
