<?xml version="1.0" encoding="UTF-8" ?>
<!DOCTYPE svg PUBLIC "-//W3C//DTD SVG 1.1//EN" "http://www.w3.org/Graphics/SVG/1.1/DTD/svg11.dtd">
<svg width="60pt" height="60pt" viewBox="0 0 60 60" version="1.1" xmlns="http://www.w3.org/2000/svg">
<g id="#ffffffff">
<path fill="#ffffff" opacity="1.00" d=" M 0.00 0.00 L 60.00 0.00 L 60.00 60.00 L 0.00 60.00 L 0.00 0.00 M 28.67 2.60 C 24.06 6.95 19.71 11.56 15.19 16.00 C 17.07 15.99 18.96 15.99 20.85 16.00 C 23.89 12.93 26.97 9.89 30.02 6.83 C 33.06 9.89 36.14 12.93 39.17 16.00 C 41.06 15.98 42.96 15.99 44.85 16.00 C 40.52 11.71 36.26 7.35 31.91 3.09 C 31.17 2.13 29.59 1.56 28.67 2.60 M 4.18 21.13 C 3.81 23.82 3.24 27.37 6.40 28.51 C 7.56 34.63 8.29 40.83 9.58 46.93 C 9.94 48.96 12.01 50.12 13.96 49.97 C 24.30 50.06 34.65 49.96 44.99 50.02 C 47.18 50.19 50.01 49.48 50.41 46.95 C 51.70 40.84 52.45 34.64 53.60 28.50 C 56.74 27.37 56.19 23.84 55.82 21.16 C 55.11 19.65 53.31 20.14 51.99 19.98 C 37.31 20.01 22.63 20.01 7.96 19.98 C 6.66 20.17 4.89 19.66 4.18 21.13 Z" />
<path fill="#ffffff" opacity="1.00" d=" M 37.24 28.17 C 39.22 27.23 40.96 29.99 39.35 31.39 C 35.90 34.93 32.52 38.58 28.78 41.82 C 26.44 42.34 25.11 39.71 23.55 38.42 C 22.18 37.38 21.24 35.12 23.17 34.09 C 25.38 33.66 26.56 35.95 28.03 37.14 C 31.15 34.21 33.92 30.89 37.24 28.17 Z" />
</g>
<g id="#000000ff">
<path fill="#968176" opacity="1.00" d=" M 28.67 2.60 C 29.59 1.56 31.17 2.13 31.91 3.09 C 36.26 7.35 40.52 11.71 44.85 16.00 C 42.96 15.99 41.06 15.98 39.17 16.00 C 36.14 12.93 33.06 9.89 30.02 6.83 C 26.97 9.89 23.89 12.93 20.85 16.00 C 18.96 15.99 17.07 15.99 15.19 16.00 C 19.71 11.56 24.06 6.95 28.67 2.60 Z" />
<path fill="#968176" opacity="1.00" d=" M 4.18 21.13 C 4.89 19.66 6.66 20.17 7.96 19.98 C 22.63 20.01 37.31 20.01 51.99 19.98 C 53.31 20.14 55.11 19.65 55.82 21.16 C 56.19 23.84 56.74 27.37 53.60 28.50 C 52.45 34.64 51.70 40.84 50.41 46.95 C 50.01 49.48 47.18 50.19 44.99 50.02 C 34.65 49.96 24.30 50.06 13.96 49.97 C 12.01 50.12 9.94 48.96 9.58 46.93 C 8.29 40.83 7.56 34.63 6.40 28.51 C 3.24 27.37 3.81 23.82 4.18 21.13 M 37.24 28.17 C 33.92 30.89 31.15 34.21 28.03 37.14 C 26.56 35.95 25.38 33.66 23.17 34.09 C 21.24 35.12 22.18 37.38 23.55 38.42 C 25.11 39.71 26.44 42.34 28.78 41.82 C 32.52 38.58 35.90 34.93 39.35 31.39 C 40.96 29.99 39.22 27.23 37.24 28.17 Z" />
</g>
</svg>
