<?xml version="1.0" encoding="UTF-8" ?>
<!DOCTYPE svg PUBLIC "-//W3C//DTD SVG 1.1//EN" "http://www.w3.org/Graphics/SVG/1.1/DTD/svg11.dtd">
<svg width="64pt" height="64pt" viewBox="0 0 64 64" version="1.1" xmlns="http://www.w3.org/2000/svg">
<g id="#ffffffff">
<path fill="#ffffff" opacity="1.00" d=" M 0.00 0.00 L 64.00 0.00 L 64.00 64.00 L 0.00 64.00 L 0.00 0.00 M 18.50 6.02 C 17.08 10.55 16.01 15.25 16.02 20.02 C 16.23 32.70 17.25 45.35 18.14 57.99 C 27.38 58.00 36.61 58.01 45.85 57.99 C 46.76 45.33 47.85 32.68 47.97 19.98 C 47.95 15.23 46.83 10.57 45.52 6.03 C 36.51 5.97 27.51 5.99 18.50 6.02 Z" />
<path fill="#ffffff" opacity="1.00" d=" M 20.02 19.99 C 19.98 16.59 20.66 13.26 21.54 10.00 C 24.04 10.00 26.54 10.00 29.04 10.00 C 28.08 12.42 27.11 14.84 26.15 17.26 C 27.38 17.75 28.61 18.24 29.84 18.74 C 30.57 16.96 31.29 15.18 32.00 13.39 C 32.71 15.18 33.43 16.96 34.16 18.74 C 35.08 18.37 36.93 17.63 37.85 17.25 C 36.89 14.84 35.92 12.43 34.97 10.01 C 37.47 9.99 39.96 10.00 42.46 10.01 C 43.30 13.28 43.97 16.62 43.97 20.01 C 43.87 31.36 42.92 42.68 42.10 54.00 C 39.40 54.00 36.70 54.00 34.00 54.00 C 34.00 44.00 34.00 34.00 34.00 24.00 C 32.67 24.00 31.33 24.00 30.00 24.00 C 30.00 34.00 30.00 44.00 30.00 54.00 C 27.30 54.00 24.59 54.00 21.89 54.00 C 21.11 42.67 20.17 31.34 20.02 19.99 Z" />
</g>
<g id="#000000ff">
<path fill="#000000" opacity="1.00" d=" M 18.50 6.02 C 27.51 5.99 36.51 5.97 45.52 6.03 C 46.83 10.57 47.95 15.23 47.97 19.98 C 47.85 32.68 46.76 45.33 45.85 57.99 C 36.61 58.01 27.38 58.00 18.14 57.99 C 17.25 45.35 16.23 32.70 16.02 20.02 C 16.01 15.25 17.08 10.55 18.50 6.02 M 20.02 19.99 C 20.17 31.34 21.11 42.67 21.89 54.00 C 24.59 54.00 27.30 54.00 30.00 54.00 C 30.00 44.00 30.00 34.00 30.00 24.00 C 31.33 24.00 32.67 24.00 34.00 24.00 C 34.00 34.00 34.00 44.00 34.00 54.00 C 36.70 54.00 39.40 54.00 42.10 54.00 C 42.92 42.68 43.87 31.36 43.97 20.01 C 43.97 16.62 43.30 13.28 42.46 10.01 C 39.96 10.00 37.47 9.99 34.97 10.01 C 35.92 12.43 36.89 14.84 37.85 17.25 C 36.93 17.63 35.08 18.37 34.16 18.74 C 33.43 16.96 32.71 15.18 32.00 13.39 C 31.29 15.18 30.57 16.96 29.84 18.74 C 28.61 18.24 27.38 17.75 26.15 17.26 C 27.11 14.84 28.08 12.42 29.04 10.00 C 26.54 10.00 24.04 10.00 21.54 10.00 C 20.66 13.26 19.98 16.59 20.02 19.99 Z" />
</g>
</svg>
