<?xml version="1.0" encoding="UTF-8" ?>
<!DOCTYPE svg PUBLIC "-//W3C//DTD SVG 1.1//EN" "http://www.w3.org/Graphics/SVG/1.1/DTD/svg11.dtd">
<svg width="64pt" height="64pt" viewBox="0 0 64 64" version="1.1" xmlns="http://www.w3.org/2000/svg">
<g id="#ffffffff">
<path fill="#ffffff" opacity="1.00" d=" M 0.00 0.00 L 64.00 0.00 L 64.00 64.00 L 0.00 64.00 L 0.00 0.00 M 22.01 19.28 C 22.00 22.86 22.00 26.43 22.00 30.00 C 21.50 30.00 20.50 30.00 19.99 30.00 C 19.98 27.78 20.15 25.55 19.88 23.34 C 18.12 20.22 15.93 17.38 14.00 14.37 C 12.07 17.38 9.88 20.22 8.12 23.33 C 7.83 33.54 8.09 43.78 8.00 54.00 C 14.67 54.00 21.34 54.00 28.00 54.00 C 28.04 51.01 27.84 48.01 28.13 45.03 C 28.76 41.47 34.27 40.93 35.60 44.27 C 36.44 47.42 35.83 50.77 36.00 54.00 C 42.66 54.00 49.33 54.00 56.00 54.00 C 55.91 43.78 56.17 33.54 55.88 23.34 C 54.12 20.22 51.93 17.38 50.00 14.37 C 48.07 17.39 45.86 20.23 44.11 23.35 C 43.86 25.56 44.02 27.79 44.01 30.00 C 43.50 30.00 42.50 30.00 42.00 30.00 C 42.00 26.43 42.00 22.86 41.99 19.29 C 38.65 15.14 35.37 10.94 31.99 6.82 C 28.66 10.97 25.34 15.13 22.01 19.28 Z" />
<path fill="#ffffff" opacity="1.00" d=" M 25.99 20.73 C 27.97 18.20 29.99 15.70 32.00 13.19 C 34.02 15.70 36.04 18.21 38.02 20.75 C 38.00 23.83 37.99 26.91 38.00 30.00 C 36.68 30.00 35.35 30.00 34.03 30.00 C 33.75 28.00 34.95 24.39 32.03 23.97 C 29.04 24.31 30.25 27.99 29.97 30.00 C 28.65 30.00 27.32 30.00 26.00 30.00 C 26.00 26.91 26.00 23.82 25.99 20.73 Z" />
<path fill="#ffffff" opacity="1.00" d=" M 12.01 25.83 C 11.83 24.14 13.26 22.95 14.00 21.60 C 17.27 24.96 15.63 29.82 16.00 34.00 C 26.67 34.00 37.33 34.00 48.00 34.00 C 48.37 29.82 46.74 24.96 50.00 21.60 C 50.76 22.96 52.19 24.18 52.00 25.89 C 52.01 33.93 51.99 41.96 52.00 50.00 C 48.01 50.00 44.01 50.00 40.02 50.00 C 39.99 46.91 40.36 43.38 38.12 40.90 C 35.19 37.12 28.88 37.09 25.91 40.84 C 23.63 43.32 24.01 46.89 23.98 50.00 C 19.99 50.00 15.99 50.00 12.00 50.00 C 12.01 41.94 11.98 33.88 12.01 25.83 M 16.00 40.00 C 16.00 42.00 16.00 44.00 16.00 46.00 C 17.33 46.00 18.67 46.00 20.00 46.00 C 20.00 44.00 20.00 42.00 20.00 40.00 C 18.67 40.00 17.33 40.00 16.00 40.00 M 44.00 40.00 C 44.00 42.00 44.00 44.00 44.00 46.00 C 45.33 46.00 46.67 46.00 48.00 46.00 C 48.00 44.00 48.00 42.00 48.00 40.00 C 46.67 40.00 45.33 40.00 44.00 40.00 Z" />
</g>
<g id="#000000ff">
<path fill="#000000" opacity="1.00" d=" M 22.01 19.28 C 25.34 15.13 28.66 10.97 31.99 6.82 C 35.37 10.94 38.65 15.14 41.99 19.29 C 42.00 22.86 42.00 26.43 42.00 30.00 C 42.50 30.00 43.50 30.00 44.01 30.00 C 44.02 27.79 43.86 25.56 44.11 23.35 C 45.86 20.23 48.07 17.39 50.00 14.37 C 51.93 17.38 54.12 20.22 55.88 23.34 C 56.17 33.54 55.91 43.78 56.00 54.00 C 49.33 54.00 42.66 54.00 36.00 54.00 C 35.83 50.77 36.44 47.42 35.60 44.27 C 34.27 40.93 28.76 41.47 28.13 45.03 C 27.84 48.01 28.04 51.01 28.00 54.00 C 21.34 54.00 14.67 54.00 8.00 54.00 C 8.09 43.78 7.83 33.54 8.12 23.33 C 9.88 20.22 12.07 17.38 14.00 14.37 C 15.93 17.38 18.12 20.22 19.88 23.34 C 20.15 25.55 19.98 27.78 19.99 30.00 C 20.50 30.00 21.50 30.00 22.00 30.00 C 22.00 26.43 22.00 22.86 22.01 19.28 M 25.99 20.73 C 26.00 23.82 26.00 26.91 26.00 30.00 C 27.32 30.00 28.65 30.00 29.97 30.00 C 30.25 27.99 29.04 24.31 32.03 23.97 C 34.95 24.39 33.75 28.00 34.03 30.00 C 35.35 30.00 36.68 30.00 38.00 30.00 C 37.99 26.91 38.00 23.83 38.02 20.75 C 36.04 18.21 34.02 15.70 32.00 13.19 C 29.99 15.70 27.97 18.20 25.99 20.73 M 12.01 25.83 C 11.98 33.88 12.01 41.94 12.00 50.00 C 15.99 50.00 19.99 50.00 23.98 50.00 C 24.01 46.89 23.63 43.32 25.91 40.84 C 28.88 37.09 35.19 37.12 38.12 40.90 C 40.36 43.38 39.99 46.91 40.02 50.00 C 44.01 50.00 48.01 50.00 52.00 50.00 C 51.99 41.96 52.01 33.93 52.00 25.89 C 52.19 24.18 50.76 22.96 50.00 21.60 C 46.74 24.96 48.37 29.82 48.00 34.00 C 37.33 34.00 26.67 34.00 16.00 34.00 C 15.63 29.82 17.27 24.96 14.00 21.60 C 13.26 22.95 11.83 24.14 12.01 25.83 Z" />
<path fill="#000000" opacity="1.00" d=" M 16.00 40.00 C 17.33 40.00 18.67 40.00 20.00 40.00 C 20.00 42.00 20.00 44.00 20.00 46.00 C 18.67 46.00 17.33 46.00 16.00 46.00 C 16.00 44.00 16.00 42.00 16.00 40.00 Z" />
<path fill="#000000" opacity="1.00" d=" M 44.00 40.00 C 45.33 40.00 46.67 40.00 48.00 40.00 C 48.00 42.00 48.00 44.00 48.00 46.00 C 46.67 46.00 45.33 46.00 44.00 46.00 C 44.00 44.00 44.00 42.00 44.00 40.00 Z" />
</g>
</svg>
