<?xml version="1.0" encoding="UTF-8" ?>
<!DOCTYPE svg PUBLIC "-//W3C//DTD SVG 1.1//EN" "http://www.w3.org/Graphics/SVG/1.1/DTD/svg11.dtd">
<svg width="60pt" height="60pt" viewBox="0 0 60 60" version="1.1" xmlns="http://www.w3.org/2000/svg">
<g id="#ffffffff">
<path fill="#ffffff" opacity="1.00" d=" M 0.00 0.00 L 60.00 0.00 L 60.00 60.00 L 0.00 60.00 L 0.00 0.00 M 27.47 8.67 C 25.52 9.74 24.87 12.03 23.94 13.89 C 21.45 19.69 18.66 25.35 16.25 31.18 C 15.49 32.43 16.65 34.01 18.04 33.97 C 22.03 34.62 25.99 35.52 30.01 35.91 C 34.28 35.35 38.59 34.80 42.78 33.77 C 44.23 33.33 44.16 31.49 43.48 30.44 C 40.60 24.01 37.75 17.57 34.77 11.18 C 33.68 8.41 30.04 7.13 27.47 8.67 M 8.23 37.12 C 6.09 38.18 5.39 41.12 6.82 43.02 C 9.61 47.27 11.89 51.95 15.18 55.82 C 25.04 56.11 34.97 56.14 44.83 55.81 C 48.12 51.96 50.38 47.30 53.16 43.06 C 55.09 40.67 53.18 36.58 50.05 36.75 C 44.63 37.39 39.26 38.47 33.88 39.35 C 28.53 40.69 23.22 38.51 17.92 37.96 C 14.71 37.66 11.40 36.15 8.23 37.12 Z" />
<path fill="#ffffff" opacity="1.00" d=" M 19.44 52.00 C 23.00 49.94 25.92 46.39 29.96 45.40 C 34.06 46.33 37.03 49.88 40.60 52.00 C 33.54 52.01 26.49 52.00 19.44 52.00 Z" />
</g>
<g id="#000000ff">
<path fill="#000000" opacity="1.00" d=" M 27.47 8.67 C 30.04 7.13 33.68 8.41 34.77 11.18 C 37.75 17.57 40.60 24.01 43.48 30.44 C 44.16 31.49 44.23 33.33 42.78 33.77 C 38.59 34.80 34.28 35.35 30.01 35.91 C 25.99 35.52 22.03 34.62 18.04 33.97 C 16.65 34.01 15.49 32.43 16.25 31.18 C 18.66 25.35 21.45 19.69 23.94 13.89 C 24.87 12.03 25.52 9.74 27.47 8.67 Z" />
<path fill="#000000" opacity="1.00" d=" M 8.23 37.12 C 11.40 36.15 14.71 37.66 17.92 37.96 C 23.22 38.51 28.53 40.69 33.88 39.35 C 39.26 38.47 44.63 37.39 50.05 36.75 C 53.18 36.58 55.09 40.67 53.16 43.06 C 50.38 47.30 48.12 51.96 44.83 55.81 C 34.97 56.14 25.04 56.11 15.18 55.82 C 11.89 51.95 9.61 47.27 6.82 43.02 C 5.39 41.12 6.09 38.18 8.23 37.12 M 19.44 52.00 C 26.49 52.00 33.54 52.01 40.60 52.00 C 37.03 49.88 34.06 46.33 29.96 45.40 C 25.92 46.39 23.00 49.94 19.44 52.00 Z" />
</g>
</svg>
