<?xml version="1.0" encoding="UTF-8" ?>
<!DOCTYPE svg PUBLIC "-//W3C//DTD SVG 1.1//EN" "http://www.w3.org/Graphics/SVG/1.1/DTD/svg11.dtd">
<svg width="60pt" height="60pt" viewBox="0 0 60 60" version="1.1" xmlns="http://www.w3.org/2000/svg">
<g id="#ffffffff">
<path fill="#ffffff" opacity="1.00" d=" M 0.00 0.00 L 60.00 0.00 L 60.00 60.00 L 0.00 60.00 L 0.00 0.00 M 12.02 8.92 C 11.96 17.28 12.02 25.64 12.00 34.00 C 13.33 34.00 14.67 34.00 16.00 34.00 C 16.00 26.00 16.00 18.00 16.00 10.00 C 26.67 10.00 37.33 10.00 48.00 10.00 C 47.89 21.71 48.21 33.44 47.85 45.13 C 47.24 50.10 39.99 51.72 37.21 47.62 C 34.81 44.97 37.30 40.69 34.97 38.19 C 25.99 37.79 16.97 38.03 7.98 38.07 C 5.40 38.04 6.06 41.30 5.97 43.00 C 5.56 48.21 9.53 53.45 14.84 53.87 C 22.23 54.19 29.64 53.89 37.04 54.01 C 40.52 53.95 44.39 54.45 47.42 52.34 C 50.54 50.39 52.20 46.67 52.00 43.04 C 51.95 31.36 52.10 19.67 51.93 7.99 C 52.13 6.36 50.29 5.84 49.02 6.02 C 37.34 6.03 25.65 5.91 13.97 6.07 C 12.37 5.86 11.86 7.68 12.02 8.92 Z" />
</g>
<g id="#000000ff">
<path fill="#968176" opacity="1.00" d=" M 12.02 8.92 C 11.86 7.68 12.37 5.86 13.97 6.07 C 25.65 5.91 37.34 6.03 49.02 6.02 C 50.29 5.84 52.13 6.36 51.93 7.99 C 52.10 19.67 51.95 31.36 52.00 43.04 C 52.20 46.67 50.54 50.39 47.42 52.34 C 44.39 54.45 40.52 53.95 37.04 54.01 C 29.64 53.89 22.23 54.19 14.84 53.87 C 9.53 53.45 5.56 48.21 5.97 43.00 C 6.06 41.30 5.40 38.04 7.98 38.07 C 16.97 38.03 25.99 37.79 34.97 38.19 C 37.30 40.69 34.81 44.97 37.21 47.62 C 39.99 51.72 47.24 50.10 47.85 45.13 C 48.21 33.44 47.89 21.71 48.00 10.00 C 37.33 10.00 26.67 10.00 16.00 10.00 C 16.00 18.00 16.00 26.00 16.00 34.00 C 14.67 34.00 13.33 34.00 12.00 34.00 C 12.02 25.64 11.96 17.28 12.02 8.92 Z" />
</g>
</svg>
