<?xml version="1.0" encoding="UTF-8" ?>
<!DOCTYPE svg PUBLIC "-//W3C//DTD SVG 1.1//EN" "http://www.w3.org/Graphics/SVG/1.1/DTD/svg11.dtd">
<svg width="60pt" height="60pt" viewBox="0 0 60 60" version="1.1" xmlns="http://www.w3.org/2000/svg">
<g id="#ffffffff">
<path fill="#ffffff" opacity="1.00" d=" M 0.00 0.00 L 60.00 0.00 L 60.00 60.00 L 0.00 60.00 L 0.00 0.00 M 19.46 10.37 C 14.53 19.14 9.43 27.81 4.55 36.60 C 3.74 37.61 3.90 39.16 5.12 39.78 C 8.45 40.26 11.82 39.92 15.17 39.99 C 17.46 41.92 19.16 44.88 21.97 45.98 C 24.84 44.93 26.55 41.92 28.86 39.99 C 32.19 39.92 35.55 40.25 38.86 39.79 C 40.53 39.03 39.90 37.10 39.13 35.92 C 34.39 27.63 29.61 19.35 24.92 11.02 C 24.27 10.01 23.79 8.82 22.76 8.12 C 21.12 7.47 20.13 9.20 19.46 10.37 M 38.74 26.06 C 37.70 28.08 40.62 29.04 42.09 28.38 C 44.98 33.55 47.75 38.78 50.63 43.96 C 47.24 43.46 43.99 44.19 41.99 47.14 C 41.99 46.35 42.00 44.78 42.00 44.00 C 37.72 44.13 33.43 43.72 29.17 44.19 C 27.62 44.79 27.63 47.20 29.16 47.80 C 31.81 48.19 34.50 47.99 37.17 47.98 C 38.70 49.36 39.94 51.42 41.99 51.99 C 44.07 51.43 45.33 49.36 46.88 47.97 C 49.53 47.99 52.19 48.19 54.83 47.80 C 56.86 46.82 55.55 44.59 54.79 43.22 C 50.88 36.41 47.46 29.30 43.34 22.62 C 41.20 20.58 39.24 24.23 38.74 26.06 Z" />
<path fill="#ffffff" opacity="1.00" d=" M 9.46 36.00 C 13.63 28.67 17.82 21.36 22.00 14.04 C 26.19 21.36 30.38 28.68 34.56 36.01 C 32.11 35.99 29.63 35.82 27.20 36.20 C 25.29 37.66 23.71 39.49 22.01 41.18 C 21.87 36.48 22.24 31.76 21.86 27.07 C 21.72 25.81 19.31 25.55 19.12 26.96 C 17.82 29.88 17.07 33.01 15.97 36.00 C 13.80 35.99 11.63 35.99 9.46 36.00 Z" />
</g>
<g id="#000000ff">
<path fill="#000000" opacity="1.00" d=" M 19.46 10.37 C 20.13 9.20 21.12 7.47 22.76 8.12 C 23.79 8.82 24.27 10.01 24.92 11.02 C 29.61 19.35 34.39 27.63 39.13 35.92 C 39.90 37.10 40.53 39.03 38.86 39.79 C 35.55 40.25 32.19 39.92 28.86 39.99 C 26.55 41.92 24.84 44.93 21.97 45.98 C 19.16 44.88 17.46 41.92 15.17 39.99 C 11.82 39.92 8.45 40.26 5.12 39.78 C 3.90 39.16 3.74 37.61 4.55 36.60 C 9.43 27.81 14.53 19.14 19.46 10.37 M 9.46 36.00 C 11.63 35.99 13.80 35.99 15.97 36.00 C 17.07 33.01 17.82 29.88 19.12 26.96 C 19.31 25.55 21.72 25.81 21.86 27.07 C 22.24 31.76 21.87 36.48 22.01 41.18 C 23.71 39.49 25.29 37.66 27.20 36.20 C 29.63 35.82 32.11 35.99 34.56 36.01 C 30.38 28.68 26.19 21.36 22.00 14.04 C 17.82 21.36 13.63 28.67 9.46 36.00 Z" />
<path fill="#000000" opacity="1.00" d=" M 38.74 26.06 C 39.24 24.23 41.20 20.58 43.34 22.62 C 47.46 29.30 50.88 36.41 54.79 43.22 C 55.55 44.59 56.86 46.82 54.83 47.80 C 52.19 48.19 49.53 47.99 46.88 47.97 C 45.33 49.36 44.07 51.43 41.99 51.99 C 39.94 51.42 38.70 49.36 37.17 47.98 C 34.50 47.99 31.81 48.19 29.16 47.80 C 27.63 47.20 27.62 44.79 29.17 44.19 C 33.43 43.72 37.72 44.13 42.00 44.00 C 42.00 44.78 41.99 46.35 41.99 47.14 C 43.99 44.19 47.24 43.46 50.63 43.96 C 47.75 38.78 44.98 33.55 42.09 28.38 C 40.62 29.04 37.70 28.08 38.74 26.06 Z" />
</g>
</svg>
