<?xml version="1.0" encoding="UTF-8" ?>
<!DOCTYPE svg PUBLIC "-//W3C//DTD SVG 1.1//EN" "http://www.w3.org/Graphics/SVG/1.1/DTD/svg11.dtd">
<svg width="60pt" height="60pt" viewBox="0 0 60 60" version="1.1" xmlns="http://www.w3.org/2000/svg">
<g id="#ffffffff">
<path fill="#ffffff" opacity="1.00" d=" M 0.00 0.00 L 60.00 0.00 L 60.00 60.00 L 0.00 60.00 L 0.00 0.00 M 9.21 19.18 C 6.77 22.73 8.49 27.58 8.03 31.65 C 10.48 32.59 10.45 35.38 8.04 36.35 C 8.02 40.93 7.90 45.52 8.06 50.10 C 7.93 52.66 10.62 54.33 12.96 54.00 C 24.33 54.00 35.70 54.00 47.07 54.00 C 49.42 54.34 52.02 52.60 51.94 50.08 C 52.10 45.51 51.98 40.93 51.96 36.36 C 49.53 35.37 49.51 32.63 51.96 31.64 C 51.96 28.11 52.20 24.56 51.85 21.04 C 51.44 19.00 49.26 18.25 47.72 17.24 C 42.05 14.32 36.69 10.78 30.89 8.13 C 30.44 8.13 29.55 8.12 29.10 8.12 C 22.36 11.59 15.72 15.31 9.21 19.18 Z" />
<path fill="#ffffff" opacity="1.00" d=" M 25.08 21.72 C 25.77 17.44 32.16 16.31 34.23 20.08 C 35.21 23.51 31.39 25.53 29.45 27.67 C 31.16 27.66 32.88 27.65 34.59 27.68 C 34.60 28.26 34.61 29.42 34.61 30.00 C 31.54 30.00 28.47 30.00 25.39 29.99 C 25.61 26.27 29.82 24.91 31.54 21.96 C 31.78 19.31 28.35 19.75 27.87 21.82 C 27.17 21.79 25.77 21.75 25.08 21.72 Z" />
<path fill="#ffffff" opacity="1.00" d=" M 26.00 38.00 C 28.28 37.99 30.59 37.85 32.85 38.24 C 35.79 39.08 36.50 43.38 34.29 45.35 C 32.89 46.68 30.81 46.34 29.05 46.56 C 29.05 47.71 29.05 48.85 29.05 50.00 C 28.28 50.00 26.76 50.00 26.00 50.00 C 26.00 46.00 26.00 42.00 26.00 38.00 M 29.07 40.10 C 29.15 41.53 29.13 42.96 29.00 44.38 C 30.44 44.05 33.13 44.12 32.43 41.81 C 32.31 40.12 30.16 40.58 29.07 40.10 Z" />
</g>
<g id="#000000ff">
<path fill="#000000" opacity="1.00" d=" M 9.21 19.18 C 15.72 15.31 22.36 11.59 29.10 8.12 C 29.55 8.12 30.44 8.13 30.89 8.13 C 36.69 10.78 42.05 14.32 47.72 17.24 C 49.26 18.25 51.44 19.00 51.85 21.04 C 52.20 24.56 51.96 28.11 51.96 31.64 C 49.51 32.63 49.53 35.37 51.96 36.36 C 51.98 40.93 52.10 45.51 51.94 50.08 C 52.02 52.60 49.42 54.34 47.07 54.00 C 35.70 54.00 24.33 54.00 12.96 54.00 C 10.62 54.33 7.93 52.66 8.06 50.10 C 7.90 45.52 8.02 40.93 8.04 36.35 C 10.45 35.38 10.48 32.59 8.03 31.65 C 8.49 27.58 6.77 22.73 9.21 19.18 M 25.08 21.72 C 25.77 21.75 27.17 21.79 27.87 21.82 C 28.35 19.75 31.78 19.31 31.54 21.96 C 29.82 24.91 25.61 26.27 25.39 29.99 C 28.47 30.00 31.54 30.00 34.61 30.00 C 34.61 29.42 34.60 28.26 34.59 27.68 C 32.88 27.65 31.16 27.66 29.45 27.67 C 31.39 25.53 35.21 23.51 34.23 20.08 C 32.16 16.31 25.77 17.44 25.08 21.72 M 26.00 38.00 C 26.00 42.00 26.00 46.00 26.00 50.00 C 26.76 50.00 28.28 50.00 29.05 50.00 C 29.05 48.85 29.05 47.71 29.05 46.56 C 30.81 46.34 32.89 46.68 34.29 45.35 C 36.50 43.38 35.79 39.08 32.85 38.24 C 30.59 37.85 28.28 37.99 26.00 38.00 Z" />
<path fill="#000000" opacity="1.00" d=" M 29.07 40.10 C 30.16 40.58 32.31 40.12 32.43 41.81 C 33.13 44.12 30.44 44.05 29.00 44.38 C 29.13 42.96 29.15 41.53 29.07 40.10 Z" />
</g>
</svg>
