<?xml version="1.0" encoding="UTF-8" ?>
<!DOCTYPE svg PUBLIC "-//W3C//DTD SVG 1.1//EN" "http://www.w3.org/Graphics/SVG/1.1/DTD/svg11.dtd">
<svg width="60pt" height="60pt" viewBox="0 0 60 60" version="1.1" xmlns="http://www.w3.org/2000/svg">
<g id="#ffffffff">
<path fill="#ffffff" opacity="1.00" d=" M 0.00 0.00 L 60.00 0.00 L 60.00 60.00 L 0.00 60.00 L 0.00 0.00 M 24.97 15.98 C 24.91 18.70 27.47 17.81 29.04 17.17 C 29.09 20.44 28.56 23.67 28.19 26.91 C 29.41 28.60 31.46 27.06 33.03 26.90 C 32.01 29.53 30.44 32.01 29.94 34.81 C 31.30 36.60 34.11 35.93 36.09 36.48 C 34.98 39.13 33.27 41.46 31.90 43.97 C 33.53 47.18 38.54 45.44 41.53 45.88 C 41.67 47.51 42.18 49.16 41.82 50.79 C 40.55 52.41 38.35 52.88 36.62 53.89 C 41.87 54.10 47.12 54.00 52.36 53.96 C 48.52 52.42 46.52 48.80 46.24 44.78 C 48.95 43.44 51.83 42.14 53.83 39.79 C 54.31 37.17 51.51 35.58 50.23 33.63 C 48.00 34.16 45.76 34.68 43.50 35.06 C 45.02 33.08 47.19 31.78 49.01 30.11 C 49.96 29.20 51.59 27.43 49.92 26.32 C 48.21 24.92 46.20 23.98 44.29 22.90 C 41.80 24.12 39.23 25.42 36.38 25.30 C 38.56 22.60 41.86 20.51 42.96 17.12 C 41.94 14.11 37.64 14.20 35.13 12.80 C 33.94 13.41 32.75 14.01 31.55 14.61 C 31.81 12.41 34.89 9.51 32.52 7.71 C 29.41 6.38 25.96 6.37 22.66 5.87 C 21.60 9.40 24.73 12.47 24.97 15.98 M 7.15 42.17 C 4.92 43.33 6.45 45.72 8.15 46.49 C 7.42 48.33 6.47 50.11 6.06 52.06 C 5.91 53.62 7.59 54.34 8.87 53.83 C 10.45 51.44 11.20 48.63 12.29 46.00 C 15.43 46.00 18.57 46.00 21.71 46.00 C 22.85 48.63 23.50 51.53 25.22 53.86 C 26.52 54.36 28.05 53.55 27.94 52.06 C 27.51 50.11 26.59 48.33 25.85 46.49 C 27.56 45.75 29.07 43.30 26.84 42.18 C 20.30 41.87 13.69 41.88 7.15 42.17 Z" />
</g>
<g id="#000000ff">
<path fill="#000000" opacity="1.00" d=" M 24.97 15.98 C 24.73 12.47 21.60 9.40 22.66 5.87 C 25.96 6.37 29.41 6.38 32.52 7.71 C 34.89 9.51 31.81 12.41 31.55 14.61 C 32.75 14.01 33.94 13.41 35.13 12.80 C 37.64 14.20 41.94 14.11 42.96 17.12 C 41.86 20.51 38.56 22.60 36.38 25.30 C 39.23 25.42 41.80 24.12 44.29 22.90 C 46.20 23.98 48.21 24.92 49.92 26.32 C 51.59 27.43 49.96 29.20 49.01 30.11 C 47.19 31.78 45.02 33.08 43.50 35.06 C 45.76 34.68 48.00 34.16 50.23 33.63 C 51.51 35.58 54.31 37.17 53.83 39.79 C 51.83 42.14 48.95 43.44 46.24 44.78 C 46.52 48.80 48.52 52.42 52.36 53.96 C 47.12 54.00 41.87 54.10 36.62 53.89 C 38.35 52.88 40.55 52.41 41.82 50.79 C 42.18 49.16 41.67 47.51 41.53 45.88 C 38.54 45.44 33.53 47.18 31.90 43.97 C 33.27 41.46 34.98 39.13 36.09 36.48 C 34.11 35.93 31.30 36.60 29.94 34.81 C 30.44 32.01 32.01 29.53 33.03 26.90 C 31.46 27.06 29.41 28.60 28.19 26.91 C 28.56 23.67 29.09 20.44 29.04 17.17 C 27.47 17.81 24.91 18.70 24.97 15.98 Z" />
<path fill="#000000" opacity="1.00" d=" M 7.15 42.17 C 13.69 41.88 20.30 41.87 26.84 42.18 C 29.07 43.30 27.56 45.75 25.85 46.49 C 26.59 48.33 27.51 50.11 27.94 52.06 C 28.05 53.55 26.52 54.36 25.22 53.86 C 23.50 51.53 22.85 48.63 21.71 46.00 C 18.57 46.00 15.43 46.00 12.29 46.00 C 11.20 48.63 10.45 51.44 8.87 53.83 C 7.59 54.34 5.91 53.62 6.06 52.06 C 6.47 50.11 7.42 48.33 8.15 46.49 C 6.45 45.72 4.92 43.33 7.15 42.17 Z" />
</g>
</svg>
