<?xml version="1.0" encoding="UTF-8" ?>
<!DOCTYPE svg PUBLIC "-//W3C//DTD SVG 1.1//EN" "http://www.w3.org/Graphics/SVG/1.1/DTD/svg11.dtd">
<svg width="60pt" height="60pt" viewBox="0 0 60 60" version="1.1" xmlns="http://www.w3.org/2000/svg">
<g id="#ffffffff">
<path fill="#ffffff" opacity="1.00" d=" M 0.00 0.00 L 60.00 0.00 L 60.00 60.00 L 0.00 60.00 L 0.00 0.00 M 28.41 8.42 C 22.95 11.20 17.73 14.43 12.30 17.27 C 10.75 18.24 8.54 18.99 8.17 21.03 C 7.79 24.50 8.07 28.01 8.00 31.50 C 10.42 32.67 10.40 35.33 8.00 36.50 C 8.10 41.30 7.79 46.11 8.14 50.90 C 8.48 53.09 10.88 54.21 12.91 54.00 C 24.30 54.01 35.70 54.01 47.10 54.00 C 49.45 54.33 52.03 52.59 51.94 50.07 C 52.11 45.55 51.95 41.02 52.00 36.50 C 49.59 35.34 49.58 32.66 52.00 31.50 C 51.66 27.61 52.81 23.36 51.24 19.71 C 46.48 15.98 40.72 13.69 35.59 10.49 C 33.37 9.49 30.97 7.15 28.41 8.42 Z" />
<path fill="#ffffff" opacity="1.00" d=" M 24.94 21.70 C 25.72 17.66 31.13 16.50 33.81 19.31 C 35.10 20.81 34.00 22.70 32.61 23.63 C 34.15 24.62 35.63 26.45 34.32 28.27 C 31.77 31.60 26.11 30.48 24.71 26.59 C 25.37 26.54 26.69 26.43 27.35 26.38 C 28.54 27.53 30.71 28.73 31.82 26.78 C 31.83 24.60 28.88 25.05 27.51 24.07 C 29.09 23.06 32.75 22.60 31.10 20.06 C 28.92 20.05 27.14 21.67 24.94 21.70 Z" />
<path fill="#ffffff" opacity="1.00" d=" M 26.00 37.98 C 28.26 38.02 30.55 37.84 32.79 38.23 C 35.75 38.99 36.50 43.29 34.36 45.29 C 32.94 46.66 30.81 46.33 29.02 46.62 C 29.04 47.75 29.05 48.87 29.06 50.00 C 28.29 50.00 26.76 50.00 26.00 50.00 C 26.00 45.99 26.00 41.99 26.00 37.98 M 29.22 39.93 C 29.16 41.44 29.09 42.95 29.02 44.46 C 30.49 44.02 32.82 44.13 32.51 41.92 C 32.30 40.35 30.29 40.54 29.22 39.93 Z" />
</g>
<g id="#000000ff">
<path fill="#000000" opacity="1.00" d=" M 28.41 8.42 C 30.97 7.15 33.37 9.49 35.59 10.49 C 40.72 13.69 46.48 15.98 51.24 19.71 C 52.81 23.36 51.66 27.61 52.00 31.50 C 49.58 32.66 49.59 35.34 52.00 36.50 C 51.95 41.02 52.11 45.55 51.94 50.07 C 52.03 52.59 49.45 54.33 47.10 54.00 C 35.70 54.01 24.30 54.01 12.91 54.00 C 10.88 54.21 8.48 53.09 8.14 50.90 C 7.79 46.11 8.10 41.30 8.00 36.50 C 10.40 35.33 10.42 32.67 8.00 31.50 C 8.07 28.01 7.79 24.50 8.17 21.03 C 8.54 18.99 10.75 18.24 12.30 17.27 C 17.73 14.43 22.95 11.20 28.41 8.42 M 24.94 21.70 C 27.14 21.67 28.92 20.05 31.10 20.06 C 32.75 22.60 29.09 23.06 27.51 24.07 C 28.88 25.05 31.83 24.60 31.82 26.78 C 30.71 28.73 28.54 27.53 27.35 26.38 C 26.69 26.43 25.37 26.54 24.71 26.59 C 26.11 30.48 31.77 31.60 34.32 28.27 C 35.63 26.45 34.15 24.62 32.61 23.63 C 34.00 22.70 35.10 20.81 33.81 19.31 C 31.13 16.50 25.72 17.66 24.94 21.70 M 26.00 37.98 C 26.00 41.99 26.00 45.99 26.00 50.00 C 26.76 50.00 28.29 50.00 29.06 50.00 C 29.05 48.87 29.04 47.75 29.02 46.62 C 30.81 46.33 32.94 46.66 34.36 45.29 C 36.50 43.29 35.75 38.99 32.79 38.23 C 30.55 37.84 28.26 38.02 26.00 37.98 Z" />
<path fill="#000000" opacity="1.00" d=" M 29.22 39.93 C 30.29 40.54 32.30 40.35 32.51 41.92 C 32.82 44.13 30.49 44.02 29.02 44.46 C 29.09 42.95 29.16 41.44 29.22 39.93 Z" />
</g>
</svg>
