<?xml version="1.0" encoding="UTF-8" ?>
<!DOCTYPE svg PUBLIC "-//W3C//DTD SVG 1.1//EN" "http://www.w3.org/Graphics/SVG/1.1/DTD/svg11.dtd">
<svg width="60pt" height="60pt" viewBox="0 0 60 60" version="1.1" xmlns="http://www.w3.org/2000/svg">
<g id="#ffffffff">
<path fill="#ffffff" opacity="1.00" d=" M 0.00 0.00 L 60.00 0.00 L 60.00 60.00 L 0.00 60.00 L 0.00 0.00 M 27.92 13.65 C 26.73 15.94 25.50 18.21 24.30 20.50 C 27.90 20.11 31.50 19.73 35.09 19.36 C 34.09 17.45 33.07 15.55 32.07 13.64 C 35.29 11.50 34.06 5.86 29.98 6.01 C 25.94 5.95 24.71 11.50 27.92 13.65 M 22.04 24.76 C 20.94 26.86 19.84 28.97 18.74 31.08 C 25.86 30.39 32.97 29.63 40.08 28.83 C 39.09 26.95 38.11 25.06 37.12 23.17 C 32.09 23.66 27.07 24.19 22.04 24.76 M 16.47 35.32 C 15.36 37.44 14.25 39.55 13.14 41.67 C 23.79 40.59 34.44 39.48 45.08 38.29 C 44.09 36.40 43.09 34.51 42.09 32.62 C 33.55 33.56 25.01 34.47 16.47 35.32 M 10.88 45.84 C 9.36 47.93 9.98 51.39 12.79 51.90 C 23.88 52.12 34.99 51.96 46.09 51.98 C 48.25 52.24 50.27 50.25 49.97 48.08 C 49.35 45.94 48.09 44.07 47.09 42.10 C 35.02 43.35 22.96 44.77 10.88 45.84 Z" />
</g>
<g id="#000000ff">
<path fill="#000000" opacity="1.00" d=" M 27.92 13.65 C 24.71 11.50 25.94 5.95 29.98 6.01 C 34.06 5.86 35.29 11.50 32.07 13.64 C 33.07 15.55 34.09 17.45 35.09 19.36 C 31.50 19.73 27.90 20.11 24.30 20.50 C 25.50 18.21 26.73 15.94 27.92 13.65 Z" />
<path fill="#000000" opacity="1.00" d=" M 22.04 24.76 C 27.07 24.19 32.09 23.66 37.12 23.17 C 38.11 25.06 39.09 26.95 40.08 28.83 C 32.97 29.63 25.86 30.39 18.74 31.08 C 19.84 28.97 20.94 26.86 22.04 24.76 Z" />
<path fill="#000000" opacity="1.00" d=" M 16.47 35.32 C 25.01 34.47 33.55 33.56 42.09 32.62 C 43.09 34.51 44.09 36.40 45.08 38.29 C 34.44 39.48 23.79 40.59 13.14 41.67 C 14.25 39.55 15.36 37.44 16.47 35.32 Z" />
<path fill="#000000" opacity="1.00" d=" M 10.88 45.84 C 22.96 44.77 35.02 43.35 47.09 42.10 C 48.09 44.07 49.35 45.94 49.97 48.08 C 50.27 50.25 48.25 52.24 46.09 51.98 C 34.99 51.96 23.88 52.12 12.79 51.90 C 9.98 51.39 9.36 47.93 10.88 45.84 Z" />
</g>
</svg>
