<?xml version="1.0" encoding="UTF-8" ?>
<!DOCTYPE svg PUBLIC "-//W3C//DTD SVG 1.1//EN" "http://www.w3.org/Graphics/SVG/1.1/DTD/svg11.dtd">
<svg width="64pt" height="64pt" viewBox="0 0 64 64" version="1.1" xmlns="http://www.w3.org/2000/svg">
<g id="#ffffffff">
<path fill="#ffffff" opacity="1.00" d=" M 0.00 0.00 L 64.00 0.00 L 64.00 50.00 C 62.00 50.00 60.00 50.00 58.00 50.00 C 58.00 48.66 58.00 47.33 58.00 46.00 C 56.66 46.00 55.33 46.00 54.00 46.00 C 54.00 47.33 54.00 48.66 54.00 50.00 C 50.00 50.01 46.00 49.99 42.00 50.00 C 42.00 51.33 42.00 52.67 42.00 54.00 C 49.33 54.00 56.67 54.00 64.00 54.00 L 64.00 60.00 C 60.00 60.00 56.00 60.00 52.00 60.00 C 52.00 58.66 52.00 57.33 52.00 56.00 C 50.66 56.00 49.33 56.00 48.01 56.00 C 48.00 57.33 48.00 58.66 47.99 60.00 C 46.00 60.00 44.00 60.00 42.00 60.00 C 42.00 61.34 42.00 62.67 42.00 64.00 L 0.00 64.00 L 0.00 0.00 M 31.18 8.10 C 28.88 9.18 30.37 12.86 32.80 11.90 C 35.13 10.84 33.62 7.13 31.18 8.10 M 15.17 14.13 C 12.85 15.18 14.40 18.84 16.79 17.89 C 19.16 16.87 17.60 13.10 15.17 14.13 M 47.11 14.11 C 44.87 15.21 46.46 18.94 48.78 17.83 C 51.22 16.85 49.52 13.05 47.11 14.11 M 30.36 16.37 C 27.65 17.48 27.12 21.67 29.70 23.21 C 32.08 25.27 36.12 23.05 35.98 20.02 C 36.13 17.27 32.84 15.02 30.36 16.37 M 18.32 28.40 C 15.62 29.52 15.14 33.70 17.71 35.22 C 20.10 37.27 24.15 35.03 23.97 31.99 C 24.12 29.24 20.77 26.99 18.32 28.40 M 30.34 28.39 C 27.62 29.51 27.13 33.72 29.74 35.24 C 32.14 37.26 36.16 35.00 35.97 31.97 C 36.10 29.23 32.79 27.02 30.34 28.39 M 42.35 28.39 C 39.62 29.50 39.13 33.72 41.74 35.24 C 44.15 37.27 48.18 34.99 47.97 31.95 C 48.08 29.22 44.79 27.02 42.35 28.39 M 9.19 30.10 C 6.86 31.16 8.38 34.86 10.81 33.89 C 13.14 32.80 11.59 29.15 9.19 30.10 M 53.16 30.13 C 50.89 31.19 52.37 34.81 54.75 33.91 C 57.18 32.92 55.60 29.06 53.16 30.13 M 30.32 40.40 C 27.60 41.54 27.15 45.77 29.77 47.26 C 32.16 49.24 36.14 47.00 35.97 44.00 C 36.13 41.25 32.77 38.99 30.32 40.40 M 15.18 46.10 C 12.84 47.21 14.43 50.90 16.86 49.88 C 19.12 48.74 17.58 45.16 15.18 46.10 M 31.17 52.10 C 28.89 53.18 30.35 56.82 32.77 55.90 C 35.15 54.87 33.61 51.12 31.17 52.10 Z" />
</g>
<g id="#000000ff">
<path fill="#000000" opacity="1.00" d=" M 31.18 8.10 C 33.62 7.13 35.13 10.84 32.80 11.90 C 30.37 12.86 28.88 9.18 31.18 8.10 Z" />
<path fill="#000000" opacity="1.00" d=" M 15.17 14.13 C 17.60 13.10 19.16 16.87 16.79 17.89 C 14.40 18.84 12.85 15.18 15.17 14.13 Z" />
<path fill="#000000" opacity="1.00" d=" M 47.11 14.11 C 49.52 13.05 51.22 16.85 48.78 17.83 C 46.46 18.94 44.87 15.21 47.11 14.11 Z" />
<path fill="#000000" opacity="1.00" d=" M 30.36 16.37 C 32.84 15.02 36.13 17.27 35.98 20.02 C 36.12 23.05 32.08 25.27 29.70 23.21 C 27.12 21.67 27.65 17.48 30.36 16.37 Z" />
<path fill="#000000" opacity="1.00" d=" M 18.32 28.40 C 20.77 26.99 24.12 29.24 23.97 31.99 C 24.15 35.03 20.10 37.27 17.71 35.22 C 15.14 33.70 15.62 29.52 18.32 28.40 Z" />
<path fill="#000000" opacity="1.00" d=" M 30.34 28.39 C 32.79 27.02 36.10 29.23 35.97 31.97 C 36.16 35.00 32.14 37.26 29.74 35.24 C 27.13 33.72 27.62 29.51 30.34 28.39 Z" />
<path fill="#000000" opacity="1.00" d=" M 42.35 28.39 C 44.79 27.02 48.08 29.22 47.97 31.95 C 48.18 34.99 44.15 37.27 41.74 35.24 C 39.13 33.72 39.62 29.50 42.35 28.39 Z" />
<path fill="#000000" opacity="1.00" d=" M 9.19 30.10 C 11.59 29.15 13.14 32.80 10.81 33.89 C 8.38 34.86 6.86 31.16 9.19 30.10 Z" />
<path fill="#000000" opacity="1.00" d=" M 53.16 30.13 C 55.60 29.06 57.18 32.92 54.75 33.91 C 52.37 34.81 50.89 31.19 53.16 30.13 Z" />
<path fill="#000000" opacity="1.00" d=" M 30.32 40.40 C 32.77 38.99 36.13 41.25 35.97 44.00 C 36.14 47.00 32.16 49.24 29.77 47.26 C 27.15 45.77 27.60 41.54 30.32 40.40 Z" />
<path fill="#000000" opacity="1.00" d=" M 15.18 46.10 C 17.58 45.16 19.12 48.74 16.86 49.88 C 14.43 50.90 12.84 47.21 15.18 46.10 Z" />
<path fill="#000000" opacity="1.00" d=" M 54.00 46.00 C 55.33 46.00 56.66 46.00 58.00 46.00 C 58.00 47.33 58.00 48.66 58.00 50.00 C 60.00 50.00 62.00 50.00 64.00 50.00 L 64.00 54.00 C 56.67 54.00 49.33 54.00 42.00 54.00 C 42.00 52.67 42.00 51.33 42.00 50.00 C 46.00 49.99 50.00 50.01 54.00 50.00 C 54.00 48.66 54.00 47.33 54.00 46.00 Z" />
<path fill="#000000" opacity="1.00" d=" M 31.17 52.10 C 33.61 51.12 35.15 54.87 32.77 55.90 C 30.35 56.82 28.89 53.18 31.17 52.10 Z" />
<path fill="#000000" opacity="1.00" d=" M 48.01 56.00 C 49.33 56.00 50.66 56.00 52.00 56.00 C 52.00 57.33 52.00 58.66 52.00 60.00 C 56.00 60.00 60.00 60.00 64.00 60.00 L 64.00 64.00 L 42.00 64.00 C 42.00 62.67 42.00 61.34 42.00 60.00 C 44.00 60.00 46.00 60.00 47.99 60.00 C 48.00 58.66 48.00 57.33 48.01 56.00 Z" />
</g>
</svg>
