<?xml version="1.0" encoding="UTF-8" ?>
<!DOCTYPE svg PUBLIC "-//W3C//DTD SVG 1.1//EN" "http://www.w3.org/Graphics/SVG/1.1/DTD/svg11.dtd">
<svg width="64pt" height="64pt" viewBox="0 0 64 64" version="1.1" xmlns="http://www.w3.org/2000/svg">
<g id="#ffffffff">
<path fill="#ffffff" opacity="1.00" d=" M 0.00 0.00 L 64.00 0.00 L 64.00 64.00 L 0.00 64.00 L 0.00 0.00 M 18.00 12.00 C 18.00 14.11 18.00 16.22 18.00 18.33 C 16.84 18.79 15.68 19.26 14.52 19.73 C 13.07 18.23 11.59 16.74 10.11 15.27 C 9.17 16.22 8.22 17.17 7.28 18.11 C 8.75 19.58 10.23 21.05 11.72 22.50 C 11.26 23.66 10.80 24.83 10.34 26.00 C 8.23 26.00 6.11 26.00 4.00 26.00 C 4.00 27.33 4.00 28.67 4.00 30.00 C 6.14 30.00 8.29 30.00 10.43 30.00 C 10.86 31.16 11.28 32.33 11.71 33.49 C 10.37 34.80 9.05 36.13 7.73 37.46 C 8.25 40.78 7.59 44.52 9.63 47.43 C 11.58 50.55 15.31 52.19 18.93 52.00 C 29.31 51.98 39.69 52.06 50.07 51.96 C 55.75 52.09 60.63 46.64 59.94 41.02 C 59.73 37.35 57.05 34.55 54.13 32.66 C 53.06 27.97 49.26 24.42 44.47 23.82 C 43.18 22.34 41.93 20.76 40.22 19.74 C 36.98 17.45 32.20 19.06 29.79 15.36 C 28.36 16.81 26.92 18.26 25.49 19.72 C 24.62 19.39 22.87 18.74 22.00 18.42 C 22.00 16.28 22.00 14.14 22.00 12.00 C 20.67 12.00 19.33 12.00 18.00 12.00 Z" />
<path fill="#ffffff" opacity="1.00" d=" M 15.74 23.76 C 17.90 21.36 21.32 21.95 23.99 23.01 C 23.56 23.96 23.14 24.91 22.71 25.85 C 19.36 26.84 17.06 29.44 15.64 32.53 C 13.92 29.91 13.17 26.14 15.74 23.76 Z" />
<path fill="#ffffff" opacity="1.00" d=" M 25.74 29.86 C 26.39 26.14 28.94 22.45 32.97 22.07 C 37.09 21.35 40.50 24.45 42.03 28.00 C 44.20 28.07 46.72 27.99 48.28 29.80 C 49.98 31.27 49.90 33.65 50.12 35.69 C 52.39 36.48 54.99 37.56 55.69 40.12 C 57.04 43.73 54.03 48.04 50.16 47.95 C 39.42 48.04 28.66 48.03 17.91 47.95 C 13.42 48.16 10.35 42.50 12.91 38.82 C 14.29 36.32 17.29 35.95 19.86 35.89 C 20.17 34.31 19.86 32.37 21.18 31.18 C 22.31 29.84 24.20 30.17 25.74 29.86 Z" />
</g>
<g id="#000000ff">
<path fill="#000000" opacity="1.00" d=" M 18.00 12.00 C 19.33 12.00 20.67 12.00 22.00 12.00 C 22.00 14.14 22.00 16.28 22.00 18.42 C 22.87 18.74 24.62 19.39 25.49 19.72 C 26.92 18.26 28.36 16.81 29.79 15.36 C 32.20 19.06 36.98 17.45 40.22 19.74 C 41.93 20.76 43.18 22.34 44.47 23.82 C 49.26 24.42 53.06 27.97 54.13 32.66 C 57.05 34.55 59.73 37.35 59.94 41.02 C 60.63 46.64 55.75 52.09 50.07 51.96 C 39.69 52.06 29.31 51.98 18.93 52.00 C 15.31 52.19 11.58 50.55 9.63 47.43 C 7.59 44.52 8.25 40.78 7.73 37.46 C 9.05 36.13 10.37 34.80 11.71 33.49 C 11.28 32.33 10.86 31.16 10.43 30.00 C 8.29 30.00 6.14 30.00 4.00 30.00 C 4.00 28.67 4.00 27.33 4.00 26.00 C 6.11 26.00 8.23 26.00 10.34 26.00 C 10.80 24.83 11.26 23.66 11.72 22.50 C 10.23 21.05 8.75 19.58 7.28 18.11 C 8.22 17.17 9.17 16.22 10.11 15.27 C 11.59 16.74 13.07 18.23 14.52 19.73 C 15.68 19.26 16.84 18.79 18.00 18.33 C 18.00 16.22 18.00 14.11 18.00 12.00 M 15.74 23.76 C 13.17 26.14 13.92 29.91 15.64 32.53 C 17.06 29.44 19.36 26.84 22.71 25.85 C 23.14 24.91 23.56 23.96 23.99 23.01 C 21.32 21.95 17.90 21.36 15.74 23.76 M 25.74 29.86 C 24.20 30.17 22.31 29.84 21.18 31.18 C 19.86 32.37 20.17 34.31 19.86 35.89 C 17.29 35.95 14.29 36.32 12.91 38.82 C 10.35 42.50 13.42 48.16 17.91 47.95 C 28.66 48.03 39.42 48.04 50.16 47.95 C 54.03 48.04 57.04 43.73 55.69 40.12 C 54.99 37.56 52.39 36.48 50.12 35.69 C 49.90 33.65 49.98 31.27 48.28 29.80 C 46.72 27.99 44.20 28.07 42.03 28.00 C 40.50 24.45 37.09 21.35 32.97 22.07 C 28.94 22.45 26.39 26.14 25.74 29.86 Z" />
</g>
</svg>
