<?xml version="1.0" encoding="UTF-8" ?>
<!DOCTYPE svg PUBLIC "-//W3C//DTD SVG 1.1//EN" "http://www.w3.org/Graphics/SVG/1.1/DTD/svg11.dtd">
<svg width="60pt" height="60pt" viewBox="0 0 60 60" version="1.1" xmlns="http://www.w3.org/2000/svg">
<g id="#ffffffff">
<path fill="#ffffff" opacity="1.00" d=" M 0.00 0.00 L 60.00 0.00 L 60.00 60.00 L 0.00 60.00 L 0.00 0.00 M 26.37 8.39 C 25.27 10.31 26.68 12.25 27.90 13.67 C 24.92 19.43 21.79 25.10 18.88 30.89 C 21.46 33.95 19.02 38.51 15.06 38.13 C 13.42 41.16 11.65 44.14 10.27 47.30 C 9.18 49.63 11.52 52.34 13.98 51.98 C 24.69 52.02 35.40 52.02 46.11 51.98 C 48.57 52.30 50.84 49.54 49.69 47.25 C 48.34 44.10 46.56 41.15 44.94 38.13 C 40.94 38.51 38.53 33.96 41.13 30.88 C 38.18 25.11 35.09 19.42 32.10 13.67 C 33.33 12.25 34.73 10.26 33.61 8.35 C 32.42 5.23 27.56 5.31 26.37 8.39 Z" />
<path fill="#ffffff" opacity="1.00" d=" M 28.33 22.40 C 31.46 20.59 35.39 24.62 33.58 27.70 C 32.61 29.86 29.58 30.77 27.70 29.23 C 25.15 27.67 25.63 23.51 28.33 22.40 Z" />
<path fill="#ffffff" opacity="1.00" d=" M 28.34 38.39 C 31.44 36.63 35.32 40.55 33.62 43.63 C 32.57 46.12 28.99 46.83 27.16 44.79 C 25.15 42.99 25.91 39.42 28.34 38.39 Z" />
</g>
<g id="#000000ff">
<path fill="#000000" opacity="1.00" d=" M 26.37 8.39 C 27.56 5.31 32.42 5.23 33.61 8.35 C 34.73 10.26 33.33 12.25 32.10 13.67 C 35.09 19.42 38.18 25.11 41.13 30.88 C 38.53 33.96 40.94 38.51 44.94 38.13 C 46.56 41.15 48.34 44.10 49.69 47.25 C 50.84 49.54 48.57 52.30 46.11 51.98 C 35.40 52.02 24.69 52.02 13.98 51.98 C 11.52 52.34 9.18 49.63 10.27 47.30 C 11.65 44.14 13.42 41.16 15.06 38.13 C 19.02 38.51 21.46 33.95 18.88 30.89 C 21.79 25.10 24.92 19.43 27.90 13.67 C 26.68 12.25 25.27 10.31 26.37 8.39 M 28.33 22.40 C 25.63 23.51 25.15 27.67 27.70 29.23 C 29.58 30.77 32.61 29.86 33.58 27.70 C 35.39 24.62 31.46 20.59 28.33 22.40 M 28.34 38.39 C 25.91 39.42 25.15 42.99 27.16 44.79 C 28.99 46.83 32.57 46.12 33.62 43.63 C 35.32 40.55 31.44 36.63 28.34 38.39 Z" />
</g>
</svg>
