<?xml version="1.0" encoding="UTF-8" ?>
<!DOCTYPE svg PUBLIC "-//W3C//DTD SVG 1.1//EN" "http://www.w3.org/Graphics/SVG/1.1/DTD/svg11.dtd">
<svg width="60pt" height="60pt" viewBox="0 0 60 60" version="1.1" xmlns="http://www.w3.org/2000/svg">
<g id="#ffffffff">
<path fill="#ffffff" opacity="1.00" d=" M 0.00 0.00 L 60.00 0.00 L 60.00 60.00 L 0.00 60.00 L 0.00 0.00 M 6.04 19.91 C 6.41 27.20 10.55 34.84 17.53 37.71 C 18.33 38.43 18.61 40.23 19.99 39.92 C 21.36 40.23 21.67 38.44 22.48 37.71 C 29.45 34.80 33.58 27.21 33.96 19.90 C 34.25 12.41 27.42 5.82 19.99 6.04 C 12.57 5.83 5.74 12.42 6.04 19.91 M 37.39 14.81 C 39.16 21.89 36.62 29.20 32.52 34.97 C 34.26 37.76 36.54 40.21 39.54 41.64 C 40.33 42.38 40.58 44.22 41.96 43.93 C 43.38 44.25 43.70 42.39 44.47 41.60 C 52.20 37.83 56.82 26.74 51.83 19.17 C 48.78 14.48 42.52 12.98 37.39 14.81 M 17.26 42.17 C 14.76 43.03 16.45 46.96 18.84 45.89 C 21.14 44.83 19.56 41.08 17.26 42.17 M 39.19 46.16 C 37.96 46.63 37.54 48.54 38.60 49.36 C 39.55 50.73 42.22 49.73 41.93 48.04 C 42.23 46.65 40.37 45.53 39.19 46.16 M 19.24 48.15 C 16.77 48.98 18.47 53.03 20.75 51.81 C 23.23 51.01 21.56 47.04 19.24 48.15 M 41.15 52.10 C 38.85 53.25 40.43 56.86 42.85 55.88 C 45.14 54.74 43.57 51.14 41.15 52.10 M 17.18 54.10 C 14.83 55.11 16.43 58.96 18.77 57.81 C 21.22 56.92 19.54 53.08 17.18 54.10 Z" />
</g>
<g id="#000000ff">
<path fill="#000000" opacity="1.00" d=" M 6.04 19.91 C 5.74 12.42 12.57 5.83 19.99 6.04 C 27.42 5.82 34.25 12.41 33.96 19.90 C 33.58 27.21 29.45 34.80 22.48 37.71 C 21.67 38.44 21.36 40.23 19.99 39.92 C 18.61 40.23 18.33 38.43 17.53 37.71 C 10.55 34.84 6.41 27.20 6.04 19.91 Z" />
<path fill="#000000" opacity="1.00" d=" M 37.39 14.81 C 42.52 12.98 48.78 14.48 51.83 19.17 C 56.82 26.74 52.20 37.83 44.47 41.60 C 43.70 42.39 43.38 44.25 41.96 43.93 C 40.58 44.22 40.33 42.38 39.54 41.64 C 36.54 40.21 34.26 37.76 32.52 34.97 C 36.62 29.20 39.16 21.89 37.39 14.81 Z" />
<path fill="#000000" opacity="1.00" d=" M 17.26 42.17 C 19.56 41.08 21.14 44.83 18.84 45.89 C 16.45 46.96 14.76 43.03 17.26 42.17 Z" />
<path fill="#000000" opacity="1.00" d=" M 39.19 46.16 C 40.37 45.53 42.23 46.65 41.93 48.04 C 42.22 49.73 39.55 50.73 38.60 49.36 C 37.54 48.54 37.96 46.63 39.19 46.16 Z" />
<path fill="#000000" opacity="1.00" d=" M 19.24 48.15 C 21.56 47.04 23.23 51.01 20.75 51.81 C 18.47 53.03 16.77 48.98 19.24 48.15 Z" />
<path fill="#000000" opacity="1.00" d=" M 41.15 52.10 C 43.57 51.14 45.14 54.74 42.85 55.88 C 40.43 56.86 38.85 53.25 41.15 52.10 Z" />
<path fill="#000000" opacity="1.00" d=" M 17.18 54.10 C 19.54 53.08 21.22 56.92 18.77 57.81 C 16.43 58.96 14.83 55.11 17.18 54.10 Z" />
</g>
</svg>
