<?xml version="1.0" encoding="UTF-8" ?>
<!DOCTYPE svg PUBLIC "-//W3C//DTD SVG 1.1//EN" "http://www.w3.org/Graphics/SVG/1.1/DTD/svg11.dtd">
<svg width="60pt" height="60pt" viewBox="0 0 60 60" version="1.1" xmlns="http://www.w3.org/2000/svg">
<g id="#ffffffff">
<path fill="#ffffff" opacity="1.00" d=" M 0.00 0.00 L 60.00 0.00 L 60.00 60.00 L 0.00 60.00 L 0.00 0.00 M 10.34 6.38 C 6.81 8.21 8.27 12.83 7.97 16.02 C 7.58 18.66 8.80 22.05 11.95 21.94 C 23.67 22.08 35.40 21.97 47.12 22.00 C 49.46 22.30 51.99 20.60 51.94 18.10 C 52.00 14.86 52.35 11.53 51.62 8.36 C 50.34 5.32 46.60 6.09 43.98 5.98 C 32.78 6.29 21.47 5.47 10.34 6.38 M 25.56 26.75 C 19.26 28.76 15.02 35.64 16.21 42.18 C 17.19 49.56 24.84 55.16 32.18 53.78 C 39.90 52.78 45.54 44.50 43.62 36.95 C 42.11 29.10 33.08 23.99 25.56 26.75 Z" />
<path fill="#ffffff" opacity="1.00" d=" M 13.19 12.20 C 15.50 10.91 17.29 15.07 14.73 15.80 C 12.55 17.05 10.74 13.01 13.19 12.20 Z" />
<path fill="#ffffff" opacity="1.00" d=" M 21.23 12.17 C 23.47 10.95 25.26 15.01 22.77 15.79 C 20.52 17.04 18.70 13.02 21.23 12.17 Z" />
<path fill="#ffffff" opacity="1.00" d=" M 29.07 12.09 C 30.51 11.65 31.82 12.52 32.10 13.98 C 31.93 15.24 30.46 16.64 29.22 15.78 C 27.51 15.21 27.79 12.98 29.07 12.09 Z" />
<path fill="#ffffff" opacity="1.00" d=" M 37.32 12.17 C 39.58 11.11 41.13 14.86 38.82 15.90 C 36.41 16.98 34.76 12.91 37.32 12.17 Z" />
<path fill="#ffffff" opacity="1.00" d=" M 45.29 12.14 C 47.60 11.16 49.11 14.81 46.86 15.88 C 44.43 16.96 42.74 12.99 45.29 12.14 Z" />
<path fill="#ffffff" opacity="1.00" d=" M 35.30 34.14 C 37.13 33.29 38.98 35.92 37.41 37.28 C 34.65 40.25 31.86 43.25 28.73 45.84 C 26.65 46.37 25.43 44.07 24.05 42.94 C 22.60 41.74 20.98 39.55 23.08 38.07 C 25.32 37.66 26.53 39.94 28.06 41.13 C 30.47 38.80 32.64 36.19 35.30 34.14 Z" />
</g>
<g id="#000000ff">
<path fill="#000000" opacity="1.00" d=" M 10.34 6.38 C 21.47 5.47 32.78 6.29 43.98 5.98 C 46.60 6.09 50.34 5.32 51.62 8.36 C 52.35 11.53 52.00 14.86 51.94 18.10 C 51.99 20.60 49.46 22.30 47.12 22.00 C 35.40 21.97 23.67 22.08 11.95 21.94 C 8.80 22.05 7.58 18.66 7.97 16.02 C 8.27 12.83 6.81 8.21 10.34 6.38 M 13.19 12.20 C 10.74 13.01 12.55 17.05 14.73 15.80 C 17.29 15.07 15.50 10.91 13.19 12.20 M 21.23 12.17 C 18.70 13.02 20.52 17.04 22.77 15.79 C 25.26 15.01 23.47 10.95 21.23 12.17 M 29.07 12.09 C 27.79 12.98 27.51 15.21 29.22 15.78 C 30.46 16.64 31.93 15.24 32.10 13.98 C 31.82 12.52 30.51 11.65 29.07 12.09 M 37.32 12.17 C 34.76 12.91 36.41 16.98 38.82 15.90 C 41.13 14.86 39.58 11.11 37.32 12.17 M 45.29 12.14 C 42.74 12.99 44.43 16.96 46.86 15.88 C 49.11 14.81 47.60 11.16 45.29 12.14 Z" />
<path fill="#000000" opacity="1.00" d=" M 25.56 26.75 C 33.08 23.99 42.11 29.10 43.62 36.95 C 45.54 44.50 39.90 52.78 32.18 53.78 C 24.84 55.16 17.19 49.56 16.21 42.18 C 15.02 35.64 19.26 28.76 25.56 26.75 M 35.30 34.14 C 32.64 36.19 30.47 38.80 28.06 41.13 C 26.53 39.94 25.32 37.66 23.08 38.07 C 20.98 39.55 22.60 41.74 24.05 42.94 C 25.43 44.07 26.65 46.37 28.73 45.84 C 31.86 43.25 34.65 40.25 37.41 37.28 C 38.98 35.92 37.13 33.29 35.30 34.14 Z" />
</g>
</svg>
