<?xml version="1.0" encoding="UTF-8" ?>
<!DOCTYPE svg PUBLIC "-//W3C//DTD SVG 1.1//EN" "http://www.w3.org/Graphics/SVG/1.1/DTD/svg11.dtd">
<svg width="64pt" height="64pt" viewBox="0 0 64 64" version="1.1" xmlns="http://www.w3.org/2000/svg">
<g id="#ffffffff">
<path fill="#ffffff" opacity="1.00" d=" M 0.00 0.00 L 64.00 0.00 L 64.00 64.00 L 0.00 64.00 L 0.00 0.00 M 6.21 29.22 C 3.00 36.39 4.24 44.40 4.00 52.00 C 22.67 52.00 41.33 52.00 60.00 52.00 C 59.75 44.92 60.86 37.57 58.41 30.75 C 55.22 21.45 46.79 14.18 37.09 12.48 C 24.53 9.91 10.99 17.38 6.21 29.22 Z" />
<path fill="#ffffff" opacity="1.00" d=" M 33.88 16.05 C 36.59 16.39 39.25 17.03 41.79 18.06 C 39.25 20.67 35.58 20.34 32.29 20.06 C 32.83 18.73 33.36 17.39 33.88 16.05 Z" />
<path fill="#ffffff" opacity="1.00" d=" M 23.76 17.40 C 25.76 16.88 27.79 16.44 29.83 16.11 C 28.65 18.70 26.47 20.48 24.05 21.85 C 23.98 20.74 23.83 18.52 23.76 17.40 Z" />
<path fill="#ffffff" opacity="1.00" d=" M 13.85 24.23 C 15.71 22.28 17.80 20.54 20.12 19.15 C 20.28 22.71 18.10 25.56 15.98 28.16 C 15.28 26.85 14.57 25.54 13.85 24.23 Z" />
<path fill="#ffffff" opacity="1.00" d=" M 45.33 19.96 C 47.65 21.73 49.81 23.72 51.55 26.08 C 48.09 26.26 44.91 24.84 42.13 22.89 C 43.21 21.93 44.27 20.95 45.33 19.96 Z" />
<path fill="#ffffff" opacity="1.00" d=" M 19.75 29.73 C 25.66 22.16 38.37 22.18 44.28 29.75 C 48.78 34.75 48.03 41.79 47.99 48.00 C 37.33 48.00 26.67 48.00 16.00 48.00 C 15.98 41.79 15.24 34.72 19.75 29.73 Z" />
<path fill="#ffffff" opacity="1.00" d=" M 8.17 36.53 C 8.86 33.45 9.77 30.39 11.48 27.70 C 13.02 31.31 12.52 35.23 12.09 39.00 C 10.79 38.17 9.48 37.34 8.17 36.53 Z" />
<path fill="#ffffff" opacity="1.00" d=" M 49.28 30.02 C 50.39 29.94 52.60 29.76 53.70 29.68 C 54.97 32.68 55.79 35.85 55.94 39.11 C 52.43 37.22 50.89 33.44 49.28 30.02 Z" />
<path fill="#ffffff" opacity="1.00" d=" M 8.07 40.91 C 10.38 42.62 11.88 45.10 12.18 47.97 C 10.78 47.99 9.39 48.00 7.99 48.01 C 7.99 45.64 8.00 43.28 8.07 40.91 Z" />
<path fill="#ffffff" opacity="1.00" d=" M 51.98 41.37 C 53.31 41.99 54.65 42.61 56.00 43.20 C 56.00 44.80 56.00 46.40 56.00 48.00 C 54.67 48.00 53.34 48.00 52.00 48.00 C 52.00 45.79 52.00 43.58 51.98 41.37 Z" />
</g>
<g id="#000000ff">
<path fill="#000000" opacity="1.00" d=" M 6.21 29.22 C 10.99 17.38 24.53 9.91 37.09 12.48 C 46.79 14.18 55.22 21.45 58.41 30.75 C 60.86 37.57 59.75 44.92 60.00 52.00 C 41.33 52.00 22.67 52.00 4.00 52.00 C 4.24 44.40 3.00 36.39 6.21 29.22 M 33.88 16.05 C 33.36 17.39 32.83 18.73 32.29 20.06 C 35.58 20.34 39.25 20.67 41.79 18.06 C 39.25 17.03 36.59 16.39 33.88 16.05 M 23.76 17.40 C 23.83 18.52 23.98 20.74 24.05 21.85 C 26.47 20.48 28.65 18.70 29.83 16.11 C 27.79 16.44 25.76 16.88 23.76 17.40 M 13.85 24.23 C 14.57 25.54 15.28 26.85 15.98 28.16 C 18.10 25.56 20.28 22.71 20.12 19.15 C 17.80 20.54 15.71 22.28 13.85 24.23 M 45.33 19.96 C 44.27 20.95 43.21 21.93 42.13 22.89 C 44.91 24.84 48.09 26.26 51.55 26.08 C 49.81 23.72 47.65 21.73 45.33 19.96 M 19.75 29.73 C 15.24 34.72 15.98 41.79 16.00 48.00 C 26.67 48.00 37.33 48.00 47.99 48.00 C 48.03 41.79 48.78 34.75 44.28 29.75 C 38.37 22.18 25.66 22.16 19.75 29.73 M 8.17 36.53 C 9.48 37.34 10.79 38.17 12.09 39.00 C 12.52 35.23 13.02 31.31 11.48 27.70 C 9.77 30.39 8.86 33.45 8.17 36.53 M 49.28 30.02 C 50.89 33.44 52.43 37.22 55.94 39.11 C 55.79 35.85 54.97 32.68 53.70 29.68 C 52.60 29.76 50.39 29.94 49.28 30.02 M 8.07 40.91 C 8.00 43.28 7.99 45.64 7.99 48.01 C 9.39 48.00 10.78 47.99 12.18 47.97 C 11.88 45.10 10.38 42.62 8.07 40.91 M 51.98 41.37 C 52.00 43.58 52.00 45.79 52.00 48.00 C 53.34 48.00 54.67 48.00 56.00 48.00 C 56.00 46.40 56.00 44.80 56.00 43.20 C 54.65 42.61 53.31 41.99 51.98 41.37 Z" />
</g>
</svg>
