<?xml version="1.0" encoding="UTF-8" ?>
<!DOCTYPE svg PUBLIC "-//W3C//DTD SVG 1.1//EN" "http://www.w3.org/Graphics/SVG/1.1/DTD/svg11.dtd">
<svg width="64pt" height="64pt" viewBox="0 0 64 64" version="1.1" xmlns="http://www.w3.org/2000/svg">
<g id="#ffffffff">
<path fill="#ffffff" opacity="1.00" d=" M 0.00 0.00 L 64.00 0.00 L 64.00 64.00 L 0.00 64.00 L 0.00 0.00 M 45.30 8.33 C 42.98 11.55 44.97 15.87 48.27 17.46 C 48.30 19.84 48.32 22.22 48.29 24.61 C 49.63 24.60 50.97 24.59 52.30 24.60 C 52.28 22.22 52.29 19.85 52.32 17.48 C 55.20 15.91 57.41 12.42 55.76 9.18 C 54.09 4.97 47.62 4.43 45.30 8.33 M 25.64 16.79 C 23.14 21.52 23.88 27.16 25.86 31.94 C 27.15 35.84 29.56 40.79 26.40 44.43 C 22.20 48.80 15.73 49.58 10.00 50.08 C 10.00 51.41 10.01 52.73 10.01 54.06 C 16.60 53.66 23.72 52.38 28.72 47.74 C 31.72 45.02 32.61 40.63 31.57 36.82 C 30.46 31.37 26.71 26.09 28.52 20.36 C 30.03 15.03 35.65 12.50 40.71 11.83 C 40.69 10.51 40.68 9.20 40.67 7.89 C 34.71 8.44 28.44 11.22 25.64 16.79 M 39.94 15.65 C 37.59 19.33 37.24 24.35 40.19 27.81 C 43.55 33.06 50.99 36.96 49.82 44.09 C 49.27 48.94 44.49 51.60 40.08 52.16 C 40.09 53.49 40.10 54.82 40.11 56.15 C 42.74 55.65 45.46 55.23 47.75 53.74 C 52.97 50.85 55.20 43.97 53.33 38.43 C 51.11 32.56 45.29 29.16 42.42 23.72 C 41.39 21.83 42.50 19.82 43.09 18.00 C 42.04 17.22 40.98 16.44 39.94 15.65 M 14.00 16.33 C 11.02 24.21 8.08 32.11 5.11 40.00 C 7.41 40.00 9.70 40.00 12.00 40.00 C 12.01 42.00 11.99 44.00 12.00 46.00 C 13.33 46.00 14.67 46.00 16.00 46.00 C 16.01 44.00 15.99 42.00 16.00 40.00 C 18.30 40.00 20.59 40.00 22.89 40.00 C 19.92 32.11 16.98 24.21 14.00 16.33 Z" />
<path fill="#ffffff" opacity="1.00" d=" M 49.49 9.81 C 51.62 8.74 53.45 12.15 51.35 13.31 C 49.11 14.89 46.89 10.82 49.49 9.81 Z" />
<path fill="#ffffff" opacity="1.00" d=" M 10.89 36.00 C 11.91 33.24 12.96 30.48 14.00 27.72 C 15.05 30.48 16.08 33.24 17.11 36.00 C 15.04 35.99 12.96 35.99 10.89 36.00 Z" />
</g>
<g id="#000000ff">
<path fill="#000000" opacity="1.00" d=" M 45.30 8.33 C 47.62 4.43 54.09 4.97 55.76 9.18 C 57.41 12.42 55.20 15.91 52.32 17.48 C 52.29 19.85 52.28 22.22 52.30 24.60 C 50.97 24.59 49.63 24.60 48.29 24.61 C 48.32 22.22 48.30 19.84 48.27 17.46 C 44.97 15.87 42.98 11.55 45.30 8.33 M 49.49 9.81 C 46.89 10.82 49.11 14.89 51.35 13.31 C 53.45 12.15 51.62 8.74 49.49 9.81 Z" />
<path fill="#000000" opacity="1.00" d=" M 25.64 16.79 C 28.44 11.22 34.71 8.44 40.67 7.89 C 40.68 9.20 40.69 10.51 40.71 11.83 C 35.65 12.50 30.03 15.03 28.52 20.36 C 26.71 26.09 30.46 31.37 31.57 36.82 C 32.61 40.63 31.72 45.02 28.72 47.74 C 23.72 52.38 16.60 53.66 10.01 54.06 C 10.01 52.73 10.00 51.41 10.00 50.08 C 15.73 49.58 22.20 48.80 26.40 44.43 C 29.56 40.79 27.15 35.84 25.86 31.94 C 23.88 27.16 23.14 21.52 25.64 16.79 Z" />
<path fill="#000000" opacity="1.00" d=" M 39.94 15.65 C 40.98 16.44 42.04 17.22 43.09 18.00 C 42.50 19.82 41.39 21.83 42.42 23.72 C 45.29 29.16 51.11 32.56 53.33 38.43 C 55.20 43.97 52.97 50.85 47.75 53.74 C 45.46 55.23 42.74 55.65 40.11 56.15 C 40.10 54.82 40.09 53.49 40.08 52.16 C 44.49 51.60 49.27 48.94 49.82 44.09 C 50.99 36.96 43.55 33.06 40.19 27.81 C 37.24 24.35 37.59 19.33 39.94 15.65 Z" />
<path fill="#000000" opacity="1.00" d=" M 14.00 16.33 C 16.98 24.21 19.92 32.11 22.89 40.00 C 20.59 40.00 18.30 40.00 16.00 40.00 C 15.99 42.00 16.01 44.00 16.00 46.00 C 14.67 46.00 13.33 46.00 12.00 46.00 C 11.99 44.00 12.01 42.00 12.00 40.00 C 9.70 40.00 7.41 40.00 5.11 40.00 C 8.08 32.11 11.02 24.21 14.00 16.33 M 10.89 36.00 C 12.96 35.99 15.04 35.99 17.11 36.00 C 16.08 33.24 15.05 30.48 14.00 27.72 C 12.96 30.48 11.91 33.24 10.89 36.00 Z" />
</g>
</svg>
