<?xml version="1.0" encoding="UTF-8" ?>
<!DOCTYPE svg PUBLIC "-//W3C//DTD SVG 1.1//EN" "http://www.w3.org/Graphics/SVG/1.1/DTD/svg11.dtd">
<svg width="60pt" height="60pt" viewBox="0 0 60 60" version="1.1" xmlns="http://www.w3.org/2000/svg">
<g id="#ffffffff">
<path fill="#ffffff" opacity="1.00" d=" M 0.00 0.00 L 60.00 0.00 L 60.00 60.00 L 0.00 60.00 L 0.00 0.00 M 12.27 9.23 C 12.33 10.96 12.53 12.86 11.01 14.09 C 12.69 16.74 7.87 19.78 11.93 21.35 C 12.40 21.02 13.32 20.35 13.79 20.02 C 14.11 21.38 13.90 24.20 16.01 23.93 C 18.10 24.17 17.89 21.37 18.21 20.02 C 18.68 20.35 19.60 21.02 20.07 21.35 C 20.52 20.97 21.42 20.22 21.87 19.84 C 22.07 17.80 19.61 16.19 20.95 14.06 C 18.64 12.13 20.89 8.59 17.94 7.05 C 15.99 4.62 13.28 7.32 12.27 9.23 M 32.11 9.14 C 28.88 11.35 25.50 14.75 26.10 19.02 C 26.92 24.35 31.23 28.43 31.82 33.85 C 32.90 39.27 28.46 43.55 24.55 46.53 C 22.97 47.97 20.37 48.71 19.87 51.02 C 20.17 51.23 20.76 51.65 21.05 51.86 C 28.03 52.18 35.05 51.96 42.05 51.97 C 44.73 52.19 46.49 49.85 47.76 47.83 C 49.86 44.38 50.91 39.75 48.88 36.03 C 45.23 29.25 38.43 24.86 34.61 18.22 C 32.62 14.33 35.90 10.74 38.35 8.04 C 36.24 8.09 33.87 7.66 32.11 9.14 M 44.28 11.22 C 44.77 13.80 42.86 15.90 43.24 18.48 C 42.04 20.23 41.53 22.37 43.92 23.36 C 44.39 23.02 45.32 22.35 45.79 22.02 C 46.10 23.51 45.89 25.96 48.02 26.05 C 50.12 25.92 49.88 23.50 50.21 22.02 C 50.68 22.35 51.62 23.02 52.09 23.36 C 52.54 22.97 53.43 22.20 53.88 21.81 C 54.04 19.79 51.62 18.16 52.98 16.07 C 50.59 14.16 52.92 10.53 49.89 9.01 C 47.94 6.63 45.28 9.33 44.28 11.22 M 7.89 33.28 C 6.89 35.03 5.58 36.94 6.13 39.08 C 6.32 41.17 8.21 42.32 9.54 43.69 C 10.32 45.02 9.76 48.15 12.03 47.93 C 14.20 48.12 13.69 45.07 14.41 43.76 C 15.71 42.34 17.66 41.20 17.86 39.08 C 18.41 36.93 17.09 35.03 16.10 33.26 C 16.19 30.83 14.87 27.94 12.07 28.00 C 9.19 27.84 7.77 30.79 7.89 33.28 Z" />
</g>
<g id="#000000ff">
<path fill="#000000" opacity="1.00" d=" M 12.27 9.23 C 13.28 7.32 15.99 4.62 17.94 7.05 C 20.89 8.59 18.64 12.13 20.95 14.06 C 19.61 16.19 22.07 17.80 21.87 19.84 C 21.42 20.22 20.52 20.97 20.07 21.35 C 19.60 21.02 18.68 20.35 18.21 20.02 C 17.89 21.37 18.10 24.17 16.01 23.93 C 13.90 24.20 14.11 21.38 13.79 20.02 C 13.32 20.35 12.40 21.02 11.93 21.35 C 7.87 19.78 12.69 16.74 11.01 14.09 C 12.53 12.86 12.33 10.96 12.27 9.23 Z" />
<path fill="#000000" opacity="1.00" d=" M 32.11 9.14 C 33.87 7.66 36.24 8.09 38.35 8.04 C 35.90 10.74 32.62 14.33 34.61 18.22 C 38.43 24.86 45.23 29.25 48.88 36.03 C 50.91 39.75 49.86 44.38 47.76 47.83 C 46.49 49.85 44.73 52.19 42.05 51.97 C 35.05 51.96 28.03 52.18 21.05 51.86 C 20.76 51.65 20.17 51.23 19.87 51.02 C 20.37 48.71 22.97 47.97 24.55 46.53 C 28.46 43.55 32.90 39.27 31.82 33.85 C 31.23 28.43 26.92 24.35 26.10 19.02 C 25.50 14.75 28.88 11.35 32.11 9.14 Z" />
<path fill="#000000" opacity="1.00" d=" M 44.28 11.22 C 45.28 9.33 47.94 6.63 49.89 9.01 C 52.92 10.53 50.59 14.16 52.98 16.07 C 51.62 18.16 54.04 19.79 53.88 21.81 C 53.43 22.20 52.54 22.97 52.09 23.36 C 51.62 23.02 50.68 22.35 50.21 22.02 C 49.88 23.50 50.12 25.92 48.02 26.05 C 45.89 25.96 46.10 23.51 45.79 22.02 C 45.32 22.35 44.39 23.02 43.92 23.36 C 41.53 22.37 42.04 20.23 43.24 18.48 C 42.86 15.90 44.77 13.80 44.28 11.22 Z" />
<path fill="#000000" opacity="1.00" d=" M 7.89 33.28 C 7.77 30.79 9.19 27.84 12.07 28.00 C 14.87 27.94 16.19 30.83 16.10 33.26 C 17.09 35.03 18.41 36.93 17.86 39.08 C 17.66 41.20 15.71 42.34 14.41 43.76 C 13.69 45.07 14.20 48.12 12.03 47.93 C 9.76 48.15 10.32 45.02 9.54 43.69 C 8.21 42.32 6.32 41.17 6.13 39.08 C 5.58 36.94 6.89 35.03 7.89 33.28 Z" />
</g>
</svg>
