<?xml version="1.0" encoding="UTF-8" ?>
<!DOCTYPE svg PUBLIC "-//W3C//DTD SVG 1.1//EN" "http://www.w3.org/Graphics/SVG/1.1/DTD/svg11.dtd">
<svg width="64pt" height="64pt" viewBox="0 0 64 64" version="1.1" xmlns="http://www.w3.org/2000/svg">
<g id="#ffffffff">
<path fill="#ffffff" opacity="1.00" d=" M 0.00 0.00 L 64.00 0.00 L 64.00 64.00 L 0.00 64.00 L 0.00 0.00 M 26.43 20.29 C 23.06 23.37 23.43 28.91 26.65 31.97 C 24.95 32.10 21.90 31.49 21.91 34.07 C 21.86 35.75 23.81 35.81 24.94 36.30 C 23.62 39.53 22.35 42.78 20.84 45.92 C 19.44 46.21 17.68 45.59 16.53 46.60 C 15.32 47.68 16.47 49.07 16.92 50.19 C 15.95 51.18 14.98 52.16 14.00 53.14 C 14.01 54.76 14.01 56.38 13.99 58.00 C 26.00 58.00 38.00 58.00 50.00 58.00 C 49.99 56.39 50.00 54.77 50.01 53.16 C 49.03 52.17 48.05 51.17 47.10 50.15 C 47.34 49.61 47.80 48.53 48.03 47.99 C 47.95 45.42 44.87 46.16 43.17 45.92 C 41.65 42.79 40.38 39.54 39.07 36.32 C 40.19 35.79 42.00 35.68 42.03 34.05 C 41.97 31.57 39.05 32.12 37.40 31.94 C 39.88 29.34 40.91 25.25 38.92 22.05 C 36.60 17.59 29.90 16.65 26.43 20.29 Z" />
<path fill="#ffffff" opacity="1.00" d=" M 30.26 22.38 C 32.78 21.04 36.13 23.16 36.01 26.01 C 36.14 29.11 32.19 31.18 29.72 29.29 C 27.21 27.73 27.55 23.53 30.26 22.38 Z" />
<path fill="#ffffff" opacity="1.00" d=" M 29.35 36.00 C 31.12 36.04 32.88 36.04 34.64 35.99 C 35.93 39.35 37.30 42.68 38.68 46.01 C 34.23 46.00 29.77 46.00 25.32 46.01 C 26.70 42.69 28.06 39.36 29.35 36.00 Z" />
<path fill="#ffffff" opacity="1.00" d=" M 18.87 53.99 C 20.23 52.66 21.57 51.33 22.91 49.99 C 28.98 50.00 35.05 50.00 41.12 49.99 C 42.45 51.33 43.78 52.66 45.12 53.99 C 36.37 54.01 27.62 54.01 18.87 53.99 Z" />
</g>
<g id="#000000ff">
<path fill="#000000" opacity="1.00" d=" M 26.43 20.29 C 29.90 16.65 36.60 17.59 38.92 22.05 C 40.91 25.25 39.88 29.34 37.40 31.94 C 39.05 32.12 41.97 31.57 42.03 34.05 C 42.00 35.68 40.19 35.79 39.07 36.32 C 40.38 39.54 41.65 42.79 43.17 45.92 C 44.87 46.16 47.95 45.42 48.03 47.99 C 47.80 48.53 47.34 49.61 47.10 50.15 C 48.05 51.17 49.03 52.17 50.01 53.16 C 50.00 54.77 49.99 56.39 50.00 58.00 C 38.00 58.00 26.00 58.00 13.99 58.00 C 14.01 56.38 14.01 54.76 14.00 53.14 C 14.98 52.16 15.95 51.18 16.92 50.19 C 16.47 49.07 15.32 47.68 16.53 46.60 C 17.68 45.59 19.44 46.21 20.84 45.92 C 22.35 42.78 23.62 39.53 24.94 36.30 C 23.81 35.81 21.86 35.75 21.91 34.07 C 21.90 31.49 24.95 32.10 26.65 31.97 C 23.43 28.91 23.06 23.37 26.43 20.29 M 30.26 22.38 C 27.55 23.53 27.21 27.73 29.72 29.29 C 32.19 31.18 36.14 29.11 36.01 26.01 C 36.13 23.16 32.78 21.04 30.26 22.38 M 29.35 36.00 C 28.06 39.36 26.70 42.69 25.32 46.01 C 29.77 46.00 34.23 46.00 38.68 46.01 C 37.30 42.68 35.93 39.35 34.64 35.99 C 32.88 36.04 31.12 36.04 29.35 36.00 M 18.87 53.99 C 27.62 54.01 36.37 54.01 45.12 53.99 C 43.78 52.66 42.45 51.33 41.12 49.99 C 35.05 50.00 28.98 50.00 22.91 49.99 C 21.57 51.33 20.23 52.66 18.87 53.99 Z" />
</g>
</svg>
