<?xml version="1.0" encoding="UTF-8" ?>
<!DOCTYPE svg PUBLIC "-//W3C//DTD SVG 1.1//EN" "http://www.w3.org/Graphics/SVG/1.1/DTD/svg11.dtd">
<svg width="60pt" height="60pt" viewBox="0 0 60 60" version="1.1" xmlns="http://www.w3.org/2000/svg">
<g id="#ffffffff">
<path fill="#ffffff" opacity="1.00" d=" M 0.00 0.00 L 60.00 0.00 L 60.00 8.00 C 47.95 8.05 35.89 7.90 23.85 8.06 C 20.73 8.02 19.78 11.39 19.83 13.92 C 16.05 14.19 11.87 14.17 8.78 16.71 C 5.76 19.11 2.86 21.66 0.00 24.23 L 0.00 0.00 Z" />
<path fill="#ffffff" opacity="1.00" d=" M 23.99 11.99 C 26.05 12.00 28.11 12.01 30.17 12.06 C 29.19 14.97 26.97 17.19 24.05 18.17 C 24.01 16.11 24.00 14.05 23.99 11.99 Z" />
<path fill="#ffffff" opacity="1.00" d=" M 45.40 14.56 C 50.33 12.35 55.24 17.08 55.78 21.83 C 57.06 27.27 53.22 34.82 46.88 33.88 C 38.35 31.89 37.67 18.09 45.40 14.56 Z" />
<path fill="#ffffff" opacity="1.00" d=" M 11.02 20.04 C 13.53 17.97 16.95 18.20 20.00 17.89 C 20.00 23.03 20.00 28.16 20.00 33.30 C 24.43 31.00 28.59 28.15 33.16 26.14 C 36.47 25.10 39.47 29.57 37.24 32.23 C 34.46 35.12 30.97 37.21 27.89 39.76 C 24.56 42.22 21.35 45.54 16.99 45.87 C 11.33 46.20 5.66 45.90 0.00 46.00 L 0.00 29.34 C 3.62 26.19 7.28 23.06 11.02 20.04 Z" />
<path fill="#ffffff" opacity="1.00" d=" M 34.17 40.00 C 42.78 40.01 51.39 40.00 60.00 40.00 L 60.00 60.00 L 0.00 60.00 L 0.00 50.00 C 5.70 49.90 11.41 50.20 17.10 49.86 C 24.05 49.41 28.75 43.65 34.17 40.00 Z" />
</g>
<g id="#000000ff">
<path fill="#000000" opacity="1.00" d=" M 19.83 13.92 C 19.78 11.39 20.73 8.02 23.85 8.06 C 35.89 7.90 47.95 8.05 60.00 8.00 L 60.00 40.00 C 51.39 40.00 42.78 40.01 34.17 40.00 C 28.75 43.65 24.05 49.41 17.10 49.86 C 11.41 50.20 5.70 49.90 0.00 50.00 L 0.00 46.00 C 5.66 45.90 11.33 46.20 16.99 45.87 C 21.35 45.54 24.56 42.22 27.89 39.76 C 30.97 37.21 34.46 35.12 37.24 32.23 C 39.47 29.57 36.47 25.10 33.16 26.14 C 28.59 28.15 24.43 31.00 20.00 33.30 C 20.00 28.16 20.00 23.03 20.00 17.89 C 16.95 18.20 13.53 17.97 11.02 20.04 C 7.28 23.06 3.62 26.19 0.00 29.34 L 0.00 24.23 C 2.86 21.66 5.76 19.11 8.78 16.71 C 11.87 14.17 16.05 14.19 19.83 13.92 M 23.99 11.99 C 24.00 14.05 24.01 16.11 24.05 18.17 C 26.97 17.19 29.19 14.97 30.17 12.06 C 28.11 12.01 26.05 12.00 23.99 11.99 M 45.40 14.56 C 37.67 18.09 38.35 31.89 46.88 33.88 C 53.22 34.82 57.06 27.27 55.78 21.83 C 55.24 17.08 50.33 12.35 45.40 14.56 Z" />
</g>
</svg>
