<?xml version="1.0" encoding="UTF-8" ?>
<!DOCTYPE svg PUBLIC "-//W3C//DTD SVG 1.1//EN" "http://www.w3.org/Graphics/SVG/1.1/DTD/svg11.dtd">
<svg width="64pt" height="64pt" viewBox="0 0 64 64" version="1.1" xmlns="http://www.w3.org/2000/svg">
<g id="#ffffffff">
<path fill="#ffffff" opacity="1.00" d=" M 0.00 0.00 L 64.00 0.00 L 64.00 48.46 C 63.76 43.24 60.74 38.25 56.09 35.82 C 51.78 33.32 46.62 34.19 41.88 34.13 C 33.90 34.43 27.27 42.19 28.06 50.11 C 28.48 57.27 34.60 63.25 41.66 64.00 L 0.00 64.00 L 0.00 0.00 M 8.00 8.00 C 8.00 22.67 8.00 37.33 8.00 52.00 C 14.09 52.00 20.17 52.00 26.26 52.00 C 26.16 50.67 26.06 49.33 25.96 48.00 C 23.31 48.01 20.65 47.99 18.00 48.00 C 18.00 46.00 18.00 44.00 18.00 42.00 C 21.16 42.01 24.32 42.00 27.47 41.98 C 28.30 40.64 29.14 39.31 29.99 37.98 C 28.66 37.99 27.33 38.00 26.00 38.01 C 26.00 36.00 26.00 34.00 26.00 32.00 C 36.00 32.00 46.00 32.00 56.00 32.00 C 56.00 24.00 56.00 16.00 56.00 8.00 C 40.00 8.00 24.00 8.00 8.00 8.00 Z" />
<path fill="#ffffff" opacity="1.00" d=" M 12.00 12.00 C 15.33 12.00 18.67 12.00 22.00 12.00 C 22.00 14.00 22.00 16.00 22.00 18.00 C 18.67 18.00 15.33 18.00 12.00 18.00 C 12.00 16.00 12.00 14.00 12.00 12.00 Z" />
<path fill="#ffffff" opacity="1.00" d=" M 26.00 12.00 C 30.00 12.00 34.00 12.00 38.00 12.00 C 38.00 14.00 38.00 16.00 38.00 18.00 C 34.00 18.00 30.00 18.00 26.00 18.00 C 26.00 16.00 26.00 14.00 26.00 12.00 Z" />
<path fill="#ffffff" opacity="1.00" d=" M 42.00 12.00 C 45.33 12.00 48.67 12.00 52.00 12.00 C 52.00 14.00 52.00 16.00 52.00 18.00 C 48.67 18.00 45.33 18.00 42.00 18.00 C 42.00 16.00 42.00 14.00 42.00 12.00 Z" />
<path fill="#ffffff" opacity="1.00" d=" M 12.00 22.00 C 12.50 22.00 13.50 22.00 14.00 22.00 C 14.00 24.00 14.00 26.00 14.00 28.00 C 13.50 28.00 12.50 28.00 12.00 28.00 C 12.00 26.00 12.00 24.00 12.00 22.00 Z" />
<path fill="#ffffff" opacity="1.00" d=" M 18.00 22.00 C 22.00 22.00 26.00 22.00 30.00 22.00 C 30.00 24.00 30.00 26.00 30.00 28.00 C 26.00 28.00 22.00 28.00 18.00 28.00 C 18.00 26.00 18.00 24.00 18.00 22.00 Z" />
<path fill="#ffffff" opacity="1.00" d=" M 34.00 22.00 C 38.00 22.00 42.00 22.00 46.00 22.00 C 46.00 24.00 46.00 26.00 46.00 28.00 C 42.00 28.00 38.00 28.00 34.00 28.00 C 34.00 26.00 34.00 24.00 34.00 22.00 Z" />
<path fill="#ffffff" opacity="1.00" d=" M 50.00 22.00 C 50.50 22.00 51.50 22.00 52.00 22.00 C 52.00 24.00 52.00 26.00 52.00 28.00 C 51.50 28.00 50.50 28.00 50.00 28.00 C 50.00 26.00 50.00 24.00 50.00 22.00 Z" />
<path fill="#ffffff" opacity="1.00" d=" M 12.00 32.00 C 15.33 32.00 18.67 32.00 22.00 32.00 C 22.00 34.00 22.00 36.00 22.00 38.00 C 18.67 38.00 15.33 38.00 12.00 38.00 C 12.00 36.00 12.00 34.00 12.00 32.00 Z" />
<path fill="#ffffff" opacity="1.00" d=" M 39.41 38.62 C 47.02 35.60 55.76 43.24 53.75 51.17 C 52.53 59.18 41.66 62.84 35.80 57.29 C 29.45 52.25 31.61 40.91 39.41 38.62 M 37.98 42.00 C 38.00 43.82 38.03 45.64 38.08 47.46 C 40.09 48.20 42.13 48.87 44.03 49.88 C 44.27 51.22 43.74 51.98 42.45 52.15 C 42.61 49.22 39.79 50.07 37.86 49.98 C 37.61 53.36 40.57 56.82 44.12 55.87 C 48.52 54.93 49.32 48.58 45.85 46.05 C 46.39 46.03 47.47 46.00 48.00 45.98 C 48.00 44.66 48.00 43.33 48.00 42.00 C 44.66 42.00 41.32 42.00 37.98 42.00 Z" />
<path fill="#ffffff" opacity="1.00" d=" M 54.74 39.41 C 57.72 41.69 60.11 45.07 59.99 48.97 C 60.13 52.90 57.73 56.29 54.74 58.59 C 58.94 52.96 58.94 45.04 54.74 39.41 Z" />
<path fill="#ffffff" opacity="1.00" d=" M 12.00 42.00 C 12.50 42.00 13.50 42.00 14.00 42.00 C 14.00 44.00 14.00 46.00 14.00 48.00 C 13.50 48.00 12.50 48.00 12.00 48.00 C 12.00 46.00 12.00 44.00 12.00 42.00 Z" />
<path fill="#ffffff" opacity="1.00" d=" M 50.09 64.00 C 57.25 63.43 63.25 57.47 64.00 50.35 L 64.00 64.00 L 50.09 64.00 Z" />
</g>
<g id="#000000ff">
<path fill="#000000" opacity="1.00" d=" M 8.00 8.00 C 24.00 8.00 40.00 8.00 56.00 8.00 C 56.00 16.00 56.00 24.00 56.00 32.00 C 46.00 32.00 36.00 32.00 26.00 32.00 C 26.00 34.00 26.00 36.00 26.00 38.01 C 27.33 38.00 28.66 37.99 29.99 37.98 C 29.14 39.31 28.30 40.64 27.47 41.98 C 24.32 42.00 21.16 42.01 18.00 42.00 C 18.00 44.00 18.00 46.00 18.00 48.00 C 20.65 47.99 23.31 48.01 25.96 48.00 C 26.06 49.33 26.16 50.67 26.26 52.00 C 20.17 52.00 14.09 52.00 8.00 52.00 C 8.00 37.33 8.00 22.67 8.00 8.00 M 12.00 12.00 C 12.00 14.00 12.00 16.00 12.00 18.00 C 15.33 18.00 18.67 18.00 22.00 18.00 C 22.00 16.00 22.00 14.00 22.00 12.00 C 18.67 12.00 15.33 12.00 12.00 12.00 M 26.00 12.00 C 26.00 14.00 26.00 16.00 26.00 18.00 C 30.00 18.00 34.00 18.00 38.00 18.00 C 38.00 16.00 38.00 14.00 38.00 12.00 C 34.00 12.00 30.00 12.00 26.00 12.00 M 42.00 12.00 C 42.00 14.00 42.00 16.00 42.00 18.00 C 45.33 18.00 48.67 18.00 52.00 18.00 C 52.00 16.00 52.00 14.00 52.00 12.00 C 48.67 12.00 45.33 12.00 42.00 12.00 M 12.00 22.00 C 12.00 24.00 12.00 26.00 12.00 28.00 C 12.50 28.00 13.50 28.00 14.00 28.00 C 14.00 26.00 14.00 24.00 14.00 22.00 C 13.50 22.00 12.50 22.00 12.00 22.00 M 18.00 22.00 C 18.00 24.00 18.00 26.00 18.00 28.00 C 22.00 28.00 26.00 28.00 30.00 28.00 C 30.00 26.00 30.00 24.00 30.00 22.00 C 26.00 22.00 22.00 22.00 18.00 22.00 M 34.00 22.00 C 34.00 24.00 34.00 26.00 34.00 28.00 C 38.00 28.00 42.00 28.00 46.00 28.00 C 46.00 26.00 46.00 24.00 46.00 22.00 C 42.00 22.00 38.00 22.00 34.00 22.00 M 50.00 22.00 C 50.00 24.00 50.00 26.00 50.00 28.00 C 50.50 28.00 51.50 28.00 52.00 28.00 C 52.00 26.00 52.00 24.00 52.00 22.00 C 51.50 22.00 50.50 22.00 50.00 22.00 M 12.00 32.00 C 12.00 34.00 12.00 36.00 12.00 38.00 C 15.33 38.00 18.67 38.00 22.00 38.00 C 22.00 36.00 22.00 34.00 22.00 32.00 C 18.67 32.00 15.33 32.00 12.00 32.00 M 12.00 42.00 C 12.00 44.00 12.00 46.00 12.00 48.00 C 12.50 48.00 13.50 48.00 14.00 48.00 C 14.00 46.00 14.00 44.00 14.00 42.00 C 13.50 42.00 12.50 42.00 12.00 42.00 Z" />
<path fill="#000000" opacity="1.00" d=" M 28.06 50.11 C 27.27 42.19 33.90 34.43 41.88 34.13 C 46.62 34.19 51.78 33.32 56.09 35.82 C 60.74 38.25 63.76 43.24 64.00 48.46 L 64.00 50.35 C 63.25 57.47 57.25 63.43 50.09 64.00 L 41.66 64.00 C 34.60 63.25 28.48 57.27 28.06 50.11 M 39.41 38.62 C 31.61 40.91 29.45 52.25 35.80 57.29 C 41.66 62.84 52.53 59.18 53.75 51.17 C 55.76 43.24 47.02 35.60 39.41 38.62 M 54.74 39.41 C 58.94 45.04 58.94 52.96 54.74 58.59 C 57.73 56.29 60.13 52.90 59.99 48.97 C 60.11 45.07 57.72 41.69 54.74 39.41 Z" />
<path fill="#000000" opacity="1.00" d=" M 37.98 42.00 C 41.32 42.00 44.66 42.00 48.00 42.00 C 48.00 43.33 48.00 44.66 48.00 45.98 C 47.47 46.00 46.39 46.03 45.85 46.05 C 49.32 48.58 48.52 54.93 44.12 55.87 C 40.57 56.82 37.61 53.36 37.86 49.98 C 39.79 50.07 42.61 49.22 42.45 52.15 C 43.74 51.98 44.27 51.22 44.03 49.88 C 42.13 48.87 40.09 48.20 38.08 47.46 C 38.03 45.64 38.00 43.82 37.98 42.00 Z" />
</g>
</svg>
