<?xml version="1.0" encoding="UTF-8" ?>
<!DOCTYPE svg PUBLIC "-//W3C//DTD SVG 1.1//EN" "http://www.w3.org/Graphics/SVG/1.1/DTD/svg11.dtd">
<svg width="60pt" height="60pt" viewBox="0 0 60 60" version="1.1" xmlns="http://www.w3.org/2000/svg">
<g id="#ffffffff">
<path fill="#ffffff" opacity="1.00" d=" M 0.00 0.00 L 60.00 0.00 L 60.00 60.00 L 0.00 60.00 L 0.00 0.00 M 3.99 12.01 C 4.05 23.35 3.92 34.70 4.05 46.03 C 3.90 48.58 6.52 50.31 8.87 50.00 C 23.28 49.97 37.70 50.07 52.11 49.95 C 54.59 49.99 56.33 47.45 56.00 45.12 C 56.02 34.09 55.98 23.06 56.01 12.03 C 55.34 11.35 54.68 10.67 54.03 9.97 C 53.52 10.48 52.50 11.49 51.99 12.00 C 51.50 11.50 50.52 10.48 50.02 9.98 C 49.52 10.48 48.50 11.49 47.99 12.00 C 47.50 11.49 46.52 10.48 46.02 9.98 C 45.52 10.48 44.50 11.49 43.99 12.00 C 43.50 11.50 42.52 10.48 42.02 9.98 C 41.52 10.48 40.50 11.49 39.99 12.00 C 39.50 11.49 38.52 10.48 38.02 9.98 C 37.52 10.48 36.50 11.49 35.99 12.00 C 35.50 11.49 34.52 10.48 34.02 9.98 C 33.52 10.48 32.50 11.49 31.99 12.00 C 31.50 11.49 30.52 10.48 30.02 9.98 C 29.52 10.48 28.50 11.49 27.99 12.00 C 27.50 11.49 26.52 10.48 26.02 9.98 C 25.52 10.48 24.50 11.50 23.99 12.00 C 23.50 11.50 22.52 10.48 22.02 9.98 C 21.52 10.48 20.50 11.49 19.99 12.00 C 19.50 11.49 18.52 10.48 18.02 9.98 C 17.52 10.48 16.50 11.49 15.99 12.00 C 15.50 11.49 14.52 10.48 14.02 9.98 C 13.52 10.48 12.50 11.49 11.99 12.00 C 11.50 11.49 10.52 10.48 10.02 9.98 C 9.52 10.48 8.50 11.50 7.99 12.00 C 7.50 11.49 6.51 10.48 6.02 9.97 C 5.35 10.66 4.67 11.34 3.99 12.01 Z" />
<path fill="#ffffff" opacity="1.00" d=" M 11.14 20.17 C 16.77 19.82 22.43 19.99 28.06 20.08 C 30.11 19.88 30.71 23.08 28.84 23.82 C 24.24 24.25 19.61 23.88 15.00 24.02 C 13.35 23.81 11.07 24.57 10.09 22.78 C 9.82 21.63 10.17 20.76 11.14 20.17 Z" />
<path fill="#ffffff" opacity="1.00" d=" M 42.01 20.00 C 43.34 20.00 44.66 20.00 45.99 20.00 C 46.00 20.66 46.01 21.97 46.02 22.63 C 47.88 23.53 49.30 24.97 49.84 27.01 C 49.04 26.99 47.44 26.95 46.64 26.93 C 45.63 25.37 43.44 24.63 41.95 26.06 C 42.17 29.89 48.45 27.55 49.61 31.14 C 50.77 33.96 48.55 36.49 46.02 37.40 C 46.01 38.05 46.00 39.35 45.99 40.00 C 44.66 40.00 43.34 40.00 42.01 40.00 C 42.00 39.35 41.99 38.06 41.98 37.41 C 40.01 36.63 38.51 35.19 37.79 33.18 C 38.62 33.16 40.27 33.11 41.10 33.09 C 42.47 34.80 45.62 35.66 46.60 33.03 C 44.56 30.67 40.19 31.95 38.74 28.84 C 37.46 26.14 39.58 23.62 41.98 22.61 C 41.99 21.96 42.00 20.65 42.01 20.00 Z" />
<path fill="#ffffff" opacity="1.00" d=" M 11.14 28.17 C 15.42 27.82 19.73 27.97 24.02 28.07 C 26.11 27.86 26.74 31.09 24.83 31.82 C 20.58 32.18 16.28 32.02 12.01 31.93 C 9.91 32.16 9.25 28.94 11.14 28.17 Z" />
<path fill="#ffffff" opacity="1.00" d=" M 10.06 43.96 C 10.16 40.85 11.53 37.00 14.88 36.13 C 17.08 35.50 18.98 36.89 20.44 38.35 C 22.13 38.15 23.82 38.15 25.52 38.33 C 26.78 37.33 28.04 35.85 29.83 36.05 C 31.67 35.84 32.53 38.79 30.74 39.47 C 28.95 40.50 28.03 42.35 26.81 43.92 C 25.04 44.30 23.94 42.73 22.93 41.59 C 22.04 43.19 21.45 45.77 19.10 45.48 C 16.86 44.41 18.36 39.54 15.26 40.16 C 14.44 41.84 14.16 43.73 13.36 45.41 C 12.35 46.73 9.73 45.67 10.06 43.96 Z" />
</g>
<g id="#000000ff">
<path fill="#000000" opacity="1.00" d=" M 3.99 12.01 C 4.67 11.34 5.35 10.66 6.02 9.97 C 6.51 10.48 7.50 11.49 7.99 12.00 C 8.50 11.50 9.52 10.48 10.02 9.98 C 10.52 10.48 11.50 11.49 11.99 12.00 C 12.50 11.49 13.52 10.48 14.02 9.98 C 14.52 10.48 15.50 11.49 15.99 12.00 C 16.50 11.49 17.52 10.48 18.02 9.98 C 18.52 10.48 19.50 11.49 19.99 12.00 C 20.50 11.49 21.52 10.48 22.02 9.98 C 22.52 10.48 23.50 11.50 23.99 12.00 C 24.50 11.50 25.52 10.48 26.02 9.98 C 26.52 10.48 27.50 11.49 27.99 12.00 C 28.50 11.49 29.52 10.48 30.02 9.98 C 30.52 10.48 31.50 11.49 31.99 12.00 C 32.50 11.49 33.52 10.48 34.02 9.98 C 34.52 10.48 35.50 11.49 35.99 12.00 C 36.50 11.49 37.52 10.48 38.02 9.98 C 38.52 10.48 39.50 11.49 39.99 12.00 C 40.50 11.49 41.52 10.48 42.02 9.98 C 42.52 10.48 43.50 11.50 43.99 12.00 C 44.50 11.49 45.52 10.48 46.02 9.98 C 46.52 10.48 47.50 11.49 47.99 12.00 C 48.50 11.49 49.52 10.48 50.02 9.98 C 50.52 10.48 51.50 11.50 51.99 12.00 C 52.50 11.49 53.52 10.48 54.03 9.97 C 54.68 10.67 55.34 11.35 56.01 12.03 C 55.98 23.06 56.02 34.09 56.00 45.12 C 56.33 47.45 54.59 49.99 52.11 49.95 C 37.70 50.07 23.28 49.97 8.87 50.00 C 6.52 50.31 3.90 48.58 4.05 46.03 C 3.92 34.70 4.05 23.35 3.99 12.01 M 11.14 20.17 C 10.17 20.76 9.82 21.63 10.09 22.78 C 11.07 24.57 13.35 23.81 15.00 24.02 C 19.61 23.88 24.24 24.25 28.84 23.82 C 30.71 23.08 30.11 19.88 28.06 20.08 C 22.43 19.99 16.77 19.82 11.14 20.17 M 42.01 20.00 C 42.00 20.65 41.99 21.96 41.98 22.61 C 39.58 23.62 37.46 26.14 38.74 28.84 C 40.19 31.95 44.56 30.67 46.60 33.03 C 45.62 35.66 42.47 34.80 41.10 33.09 C 40.27 33.11 38.62 33.16 37.79 33.18 C 38.51 35.19 40.01 36.63 41.98 37.41 C 41.99 38.06 42.00 39.35 42.01 40.00 C 43.34 40.00 44.66 40.00 45.99 40.00 C 46.00 39.35 46.01 38.05 46.02 37.40 C 48.55 36.49 50.77 33.96 49.61 31.14 C 48.45 27.55 42.17 29.89 41.95 26.06 C 43.44 24.63 45.63 25.37 46.64 26.93 C 47.44 26.95 49.04 26.99 49.84 27.01 C 49.30 24.97 47.88 23.53 46.02 22.63 C 46.01 21.97 46.00 20.66 45.99 20.00 C 44.66 20.00 43.34 20.00 42.01 20.00 M 11.14 28.17 C 9.25 28.94 9.91 32.16 12.01 31.93 C 16.28 32.02 20.58 32.18 24.83 31.82 C 26.74 31.09 26.11 27.86 24.02 28.07 C 19.73 27.97 15.42 27.82 11.14 28.17 M 10.06 43.96 C 9.73 45.67 12.35 46.73 13.36 45.41 C 14.16 43.73 14.44 41.84 15.26 40.16 C 18.36 39.54 16.86 44.41 19.10 45.48 C 21.45 45.77 22.04 43.19 22.93 41.59 C 23.94 42.73 25.04 44.30 26.81 43.92 C 28.03 42.35 28.95 40.50 30.74 39.47 C 32.53 38.79 31.67 35.84 29.83 36.05 C 28.04 35.85 26.78 37.33 25.52 38.33 C 23.82 38.15 22.13 38.15 20.44 38.35 C 18.98 36.89 17.08 35.50 14.88 36.13 C 11.53 37.00 10.16 40.85 10.06 43.96 Z" />
</g>
</svg>
