<?xml version="1.0" encoding="UTF-8" ?>
<!DOCTYPE svg PUBLIC "-//W3C//DTD SVG 1.1//EN" "http://www.w3.org/Graphics/SVG/1.1/DTD/svg11.dtd">
<svg width="60pt" height="60pt" viewBox="0 0 60 60" version="1.1" xmlns="http://www.w3.org/2000/svg">
<g id="#ffffffff">
<path fill="#ffffff" opacity="1.00" d=" M 0.00 0.00 L 60.00 0.00 L 60.00 60.00 L 0.00 60.00 L 0.00 0.00 M 12.36 6.38 C 10.61 7.14 9.81 9.11 10.00 10.93 C 10.03 24.64 9.94 38.35 10.04 52.06 C 9.91 54.58 12.53 56.32 14.87 56.00 C 25.26 55.97 35.65 56.06 46.04 55.96 C 48.55 56.04 50.35 53.46 50.00 51.10 C 49.86 40.79 50.28 30.45 49.79 20.16 C 45.35 15.32 40.64 10.67 35.83 6.20 C 30.58 5.71 25.29 6.15 20.02 5.99 C 17.48 6.12 14.82 5.63 12.36 6.38 Z" />
<path fill="#ffffff" opacity="1.00" d=" M 34.01 9.81 C 38.06 13.87 42.13 17.92 46.18 21.99 C 42.51 21.92 38.83 22.21 35.18 21.84 C 34.93 21.60 34.42 21.11 34.17 20.87 C 33.78 17.20 34.08 13.49 34.01 9.81 Z" />
<path fill="#ffffff" opacity="1.00" d=" M 15.83 30.60 C 18.26 30.50 21.33 29.70 23.17 31.79 C 24.77 34.05 24.45 37.92 21.87 39.34 C 20.71 39.59 19.54 39.79 18.36 39.92 C 18.36 41.46 18.36 42.99 18.36 44.53 C 17.52 44.53 16.68 44.53 15.84 44.53 C 15.84 39.89 15.85 35.24 15.83 30.60 M 18.38 32.43 C 18.36 34.20 18.37 35.98 18.40 37.75 C 22.44 38.33 22.48 31.72 18.38 32.43 Z" />
<path fill="#ffffff" opacity="1.00" d=" M 25.85 30.51 C 28.53 30.39 31.94 29.77 33.80 32.25 C 35.59 35.14 35.40 39.06 34.11 42.12 C 32.53 45.17 28.73 44.84 25.84 44.58 C 25.89 39.89 25.89 35.20 25.85 30.51 M 28.53 42.72 C 33.90 42.71 34.06 32.16 28.49 32.41 C 28.36 35.85 28.32 39.29 28.53 42.72 Z" />
<path fill="#ffffff" opacity="1.00" d=" M 37.08 30.53 C 39.41 30.53 41.74 30.53 44.08 30.53 C 44.08 31.12 44.08 32.28 44.08 32.86 C 42.58 32.87 41.09 32.87 39.60 32.87 C 39.60 33.78 39.60 35.62 39.60 36.53 C 40.97 36.53 42.34 36.53 43.70 36.53 C 43.71 37.09 43.73 38.22 43.74 38.78 C 42.36 38.79 40.98 38.80 39.60 38.81 C 39.60 40.72 39.60 42.62 39.60 44.53 C 38.97 44.53 37.72 44.54 37.09 44.55 C 37.07 39.88 37.08 35.20 37.08 30.53 Z" />
</g>
<g id="#000000ff">
<path fill="#000000" opacity="1.00" d=" M 12.36 6.38 C 14.82 5.63 17.48 6.12 20.02 5.99 C 25.29 6.15 30.58 5.71 35.83 6.20 C 40.64 10.67 45.35 15.32 49.79 20.16 C 50.28 30.45 49.86 40.79 50.00 51.10 C 50.35 53.46 48.55 56.04 46.04 55.96 C 35.65 56.06 25.26 55.97 14.87 56.00 C 12.53 56.32 9.91 54.58 10.04 52.06 C 9.94 38.35 10.03 24.64 10.00 10.93 C 9.81 9.11 10.61 7.14 12.36 6.38 M 34.01 9.81 C 34.08 13.49 33.78 17.20 34.17 20.87 C 34.42 21.11 34.93 21.60 35.18 21.84 C 38.83 22.21 42.51 21.92 46.18 21.99 C 42.13 17.92 38.06 13.87 34.01 9.81 M 15.83 30.60 C 15.85 35.24 15.84 39.89 15.84 44.53 C 16.68 44.53 17.52 44.53 18.36 44.53 C 18.36 42.99 18.36 41.46 18.36 39.92 C 19.54 39.79 20.71 39.59 21.87 39.34 C 24.45 37.92 24.77 34.05 23.17 31.79 C 21.33 29.70 18.26 30.50 15.83 30.60 M 25.85 30.51 C 25.89 35.20 25.89 39.89 25.84 44.58 C 28.73 44.84 32.53 45.17 34.11 42.12 C 35.40 39.06 35.59 35.14 33.80 32.25 C 31.94 29.77 28.53 30.39 25.85 30.51 M 37.08 30.53 C 37.08 35.20 37.07 39.88 37.09 44.55 C 37.72 44.54 38.97 44.53 39.60 44.53 C 39.60 42.62 39.60 40.72 39.60 38.81 C 40.98 38.80 42.36 38.79 43.74 38.78 C 43.73 38.22 43.71 37.09 43.70 36.53 C 42.34 36.53 40.97 36.53 39.60 36.53 C 39.60 35.62 39.60 33.78 39.60 32.87 C 41.09 32.87 42.58 32.87 44.08 32.86 C 44.08 32.28 44.08 31.12 44.08 30.53 C 41.74 30.53 39.41 30.53 37.08 30.53 Z" />
<path fill="#000000" opacity="1.00" d=" M 18.38 32.43 C 22.48 31.72 22.44 38.33 18.40 37.75 C 18.37 35.98 18.36 34.20 18.38 32.43 Z" />
<path fill="#000000" opacity="1.00" d=" M 28.53 42.72 C 28.32 39.29 28.36 35.85 28.49 32.41 C 34.06 32.16 33.90 42.71 28.53 42.72 Z" />
</g>
</svg>
