<?xml version="1.0" encoding="UTF-8" ?>
<!DOCTYPE svg PUBLIC "-//W3C//DTD SVG 1.1//EN" "http://www.w3.org/Graphics/SVG/1.1/DTD/svg11.dtd">
<svg width="60pt" height="60pt" viewBox="0 0 60 60" version="1.1" xmlns="http://www.w3.org/2000/svg">
<g id="#ffffffff">
<path fill="#ffffff" opacity="1.00" d=" M 0.00 0.00 L 60.00 0.00 L 60.00 60.00 L 0.00 60.00 L 0.00 0.00 M 12.31 6.41 C 10.61 7.19 9.77 9.11 10.00 10.90 C 10.03 24.65 9.95 38.40 10.04 52.14 C 9.96 54.63 12.61 56.36 14.93 56.00 C 25.34 55.97 35.76 56.06 46.17 55.96 C 48.61 55.95 50.38 53.39 50.00 51.07 C 49.87 40.76 50.27 30.41 49.80 20.12 C 45.33 15.33 40.63 10.72 35.89 6.20 C 29.62 5.72 23.28 6.15 16.99 5.99 C 15.45 6.12 13.74 5.69 12.31 6.41 Z" />
<path fill="#ffffff" opacity="1.00" d=" M 34.01 9.82 C 38.08 13.87 42.12 17.93 46.18 21.99 C 42.49 21.90 38.78 22.23 35.11 21.83 C 34.87 21.58 34.39 21.08 34.15 20.83 C 33.80 17.18 34.09 13.49 34.01 9.82 Z" />
<path fill="#ffffff" opacity="1.00" d=" M 25.14 26.28 C 26.37 23.76 30.77 24.14 31.20 27.05 C 31.84 30.28 30.31 33.41 29.22 36.36 C 29.85 37.84 30.55 39.29 31.34 40.69 C 34.69 40.96 39.04 40.87 41.08 44.05 C 42.41 46.68 39.52 49.32 36.94 49.00 C 33.78 48.68 31.75 45.83 29.92 43.53 C 28.37 43.62 26.82 43.79 25.29 44.10 C 23.61 46.78 21.80 49.68 18.90 51.16 C 15.95 52.52 13.42 48.34 15.15 45.98 C 16.97 43.09 20.60 42.31 23.68 41.50 C 24.63 39.83 25.53 38.13 26.26 36.35 C 25.07 33.20 23.58 29.54 25.14 26.28 M 33.36 43.60 C 34.71 45.20 36.67 47.06 38.87 45.72 C 37.60 43.97 35.32 43.87 33.36 43.60 Z" />
</g>
<g id="#000000ff">
<path fill="#000000" opacity="1.00" d=" M 12.31 6.41 C 13.74 5.69 15.45 6.12 16.99 5.99 C 23.28 6.15 29.62 5.72 35.89 6.20 C 40.63 10.72 45.33 15.33 49.80 20.12 C 50.27 30.41 49.87 40.76 50.00 51.07 C 50.38 53.39 48.61 55.95 46.17 55.96 C 35.76 56.06 25.34 55.97 14.93 56.00 C 12.61 56.36 9.96 54.63 10.04 52.14 C 9.95 38.40 10.03 24.65 10.00 10.90 C 9.77 9.11 10.61 7.19 12.31 6.41 M 34.01 9.82 C 34.09 13.49 33.80 17.18 34.15 20.83 C 34.39 21.08 34.87 21.58 35.11 21.83 C 38.78 22.23 42.49 21.90 46.18 21.99 C 42.12 17.93 38.08 13.87 34.01 9.82 M 25.14 26.28 C 23.58 29.54 25.07 33.20 26.26 36.35 C 25.53 38.13 24.63 39.83 23.68 41.50 C 20.60 42.31 16.97 43.09 15.15 45.98 C 13.42 48.34 15.95 52.52 18.90 51.16 C 21.80 49.68 23.61 46.78 25.29 44.10 C 26.82 43.79 28.37 43.62 29.92 43.53 C 31.75 45.83 33.78 48.68 36.94 49.00 C 39.52 49.32 42.41 46.68 41.08 44.05 C 39.04 40.87 34.69 40.96 31.34 40.69 C 30.55 39.29 29.85 37.84 29.22 36.36 C 30.31 33.41 31.84 30.28 31.20 27.05 C 30.77 24.14 26.37 23.76 25.14 26.28 Z" />
<path fill="#000000" opacity="1.00" d=" M 33.36 43.60 C 35.32 43.87 37.60 43.97 38.87 45.72 C 36.67 47.06 34.71 45.20 33.36 43.60 Z" />
</g>
</svg>
