<?xml version="1.0" encoding="UTF-8" ?>
<!DOCTYPE svg PUBLIC "-//W3C//DTD SVG 1.1//EN" "http://www.w3.org/Graphics/SVG/1.1/DTD/svg11.dtd">
<svg width="60pt" height="60pt" viewBox="0 0 60 60" version="1.1" xmlns="http://www.w3.org/2000/svg">
<g id="#ffffffff">
<path fill="#ffffff" opacity="1.00" d=" M 0.00 0.00 L 60.00 0.00 L 60.00 60.00 L 0.00 60.00 L 0.00 0.00 M 47.06 7.85 C 45.70 8.91 43.86 10.00 44.02 12.01 C 44.39 16.78 46.32 21.26 47.08 25.97 C 44.80 24.98 42.42 24.25 39.97 23.85 C 36.49 32.36 35.36 41.75 36.25 50.85 C 36.44 53.00 39.55 55.62 40.83 52.79 C 40.51 49.89 39.59 46.97 39.99 43.97 C 43.99 43.61 48.30 43.23 51.62 40.70 C 55.78 37.55 56.92 31.55 55.19 26.78 C 53.98 22.88 50.84 19.93 49.79 15.97 C 51.87 15.60 53.90 15.01 55.89 14.30 C 53.24 12.45 52.18 8.87 48.93 7.86 C 49.45 6.05 51.19 2.17 48.00 2.07 C 44.81 2.15 46.55 6.04 47.06 7.85 M 29.53 25.48 C 27.03 26.94 25.98 29.92 23.68 31.59 C 21.76 32.11 19.70 32.07 17.86 32.90 C 14.98 34.28 11.08 34.33 9.76 37.79 C 6.74 38.36 3.77 40.67 3.99 44.03 C 3.87 47.40 7.03 49.46 9.92 50.24 C 11.23 51.88 12.72 53.68 14.95 53.91 C 21.92 54.54 28.78 50.04 31.87 43.95 C 32.20 37.09 33.29 30.24 35.95 23.87 C 33.78 24.21 31.45 24.29 29.53 25.48 Z" />
</g>
<g id="#000000ff">
<path fill="#000000" opacity="1.00" d=" M 47.06 7.85 C 46.55 6.04 44.81 2.15 48.00 2.07 C 51.19 2.17 49.45 6.05 48.93 7.86 C 52.18 8.87 53.24 12.45 55.89 14.30 C 53.90 15.01 51.87 15.60 49.79 15.97 C 50.84 19.93 53.98 22.88 55.19 26.78 C 56.92 31.55 55.78 37.55 51.62 40.70 C 48.30 43.23 43.99 43.61 39.99 43.97 C 39.59 46.97 40.51 49.89 40.83 52.79 C 39.55 55.62 36.44 53.00 36.25 50.85 C 35.36 41.75 36.49 32.36 39.97 23.85 C 42.42 24.25 44.80 24.98 47.08 25.97 C 46.32 21.26 44.39 16.78 44.02 12.01 C 43.86 10.00 45.70 8.91 47.06 7.85 Z" />
<path fill="#000000" opacity="1.00" d=" M 29.53 25.48 C 31.45 24.29 33.78 24.21 35.95 23.87 C 33.29 30.24 32.20 37.09 31.87 43.95 C 28.78 50.04 21.92 54.54 14.95 53.91 C 12.72 53.68 11.23 51.88 9.92 50.24 C 7.03 49.46 3.87 47.40 3.99 44.03 C 3.77 40.67 6.74 38.36 9.76 37.79 C 11.08 34.33 14.98 34.28 17.86 32.90 C 19.70 32.07 21.76 32.11 23.68 31.59 C 25.98 29.92 27.03 26.94 29.53 25.48 Z" />
</g>
</svg>
