<?xml version="1.0" encoding="UTF-8" ?>
<!DOCTYPE svg PUBLIC "-//W3C//DTD SVG 1.1//EN" "http://www.w3.org/Graphics/SVG/1.1/DTD/svg11.dtd">
<svg width="64pt" height="64pt" viewBox="0 0 64 64" version="1.1" xmlns="http://www.w3.org/2000/svg">
<g id="#ffffffff">
<path fill="#ffffff" opacity="1.00" d=" M 0.00 0.00 L 41.11 0.00 C 38.92 1.55 39.00 4.52 37.55 6.60 C 35.04 10.52 32.95 14.71 30.10 18.41 C 29.93 13.93 29.67 9.39 30.86 5.02 C 31.02 1.53 24.96 1.54 25.13 5.03 C 26.38 9.46 25.99 14.06 25.97 18.60 C 18.89 21.17 12.36 26.17 9.20 33.14 C 7.93 35.52 9.28 38.47 7.74 40.73 C 5.55 44.34 3.67 48.13 2.00 52.01 C 7.47 50.65 12.94 49.26 18.20 47.22 C 21.58 45.94 26.03 45.33 28.84 48.10 C 32.87 52.32 33.05 59.60 29.18 64.00 L 0.00 64.00 L 0.00 0.00 Z" />
<path fill="#ffffff" opacity="1.00" d=" M 43.10 0.00 L 64.00 0.00 L 64.00 64.00 L 48.86 64.00 C 54.23 56.92 56.76 47.63 55.67 38.81 C 54.55 30.38 48.64 23.12 41.00 19.60 C 45.13 16.90 49.05 13.90 53.17 11.20 C 54.94 9.99 58.22 9.83 58.06 7.00 C 57.88 4.44 55.04 3.81 53.07 4.78 C 51.81 7.90 48.64 9.35 46.10 11.22 C 42.48 13.66 39.09 16.48 35.18 18.46 C 38.14 13.73 40.26 8.31 44.49 4.53 C 46.06 3.01 44.46 0.96 43.10 0.00 Z" />
<path fill="#ffffff" opacity="1.00" d=" M 24.56 23.52 C 31.67 19.92 40.73 22.23 46.18 27.76 C 50.69 32.21 52.73 38.81 51.96 45.06 C 51.14 52.05 48.66 59.38 43.07 64.00 L 34.19 64.00 C 37.15 58.14 36.33 50.73 32.20 45.64 C 35.59 43.24 38.57 39.97 39.70 35.90 C 40.49 33.27 39.53 30.27 37.29 28.68 C 32.46 25.14 25.16 25.72 20.98 30.05 C 18.29 32.44 17.54 36.81 13.89 38.09 C 11.78 37.81 12.37 35.39 13.13 34.10 C 15.62 29.44 19.85 25.83 24.56 23.52 Z" />
<path fill="#ffffff" opacity="1.00" d=" M 22.17 35.00 C 24.58 30.07 32.54 28.42 35.90 33.11 C 36.17 36.42 33.71 39.27 31.33 41.28 C 29.29 43.04 26.49 42.22 24.07 42.22 C 18.80 41.80 14.20 44.94 9.19 46.01 C 10.04 44.60 10.90 43.21 11.78 41.83 C 16.62 42.94 20.20 38.86 22.17 35.00 M 25.70 35.76 C 24.72 37.10 25.89 39.20 27.61 38.55 C 29.82 38.12 30.09 35.76 29.99 33.92 C 28.43 34.09 26.35 33.95 25.70 35.76 Z" />
</g>
<g id="#000000ff">
<path fill="#000000" opacity="1.00" d=" M 41.11 0.00 L 43.10 0.00 C 44.46 0.96 46.06 3.01 44.49 4.53 C 40.26 8.31 38.14 13.73 35.18 18.46 C 39.09 16.48 42.48 13.66 46.10 11.22 C 48.64 9.35 51.81 7.90 53.07 4.78 C 55.04 3.81 57.88 4.44 58.06 7.00 C 58.22 9.83 54.94 9.99 53.17 11.20 C 49.05 13.90 45.13 16.90 41.00 19.60 C 48.64 23.12 54.55 30.38 55.67 38.81 C 56.76 47.63 54.23 56.92 48.86 64.00 L 43.07 64.00 C 48.66 59.38 51.14 52.05 51.96 45.06 C 52.73 38.81 50.69 32.21 46.18 27.76 C 40.73 22.23 31.67 19.92 24.56 23.52 C 19.85 25.83 15.62 29.44 13.13 34.10 C 12.37 35.39 11.78 37.81 13.89 38.09 C 17.54 36.81 18.29 32.44 20.98 30.05 C 25.16 25.72 32.46 25.14 37.29 28.68 C 39.53 30.27 40.49 33.27 39.70 35.90 C 38.57 39.97 35.59 43.24 32.20 45.64 C 36.33 50.73 37.15 58.14 34.19 64.00 L 29.18 64.00 C 33.05 59.60 32.87 52.32 28.84 48.10 C 26.03 45.33 21.58 45.94 18.20 47.22 C 12.94 49.26 7.47 50.65 2.00 52.01 C 3.67 48.13 5.55 44.34 7.74 40.73 C 9.28 38.47 7.93 35.52 9.20 33.14 C 12.36 26.17 18.89 21.17 25.97 18.60 C 25.99 14.06 26.38 9.46 25.13 5.03 C 24.96 1.54 31.02 1.53 30.86 5.02 C 29.67 9.39 29.93 13.93 30.10 18.41 C 32.95 14.71 35.04 10.52 37.55 6.60 C 39.00 4.52 38.92 1.55 41.11 0.00 M 22.17 35.00 C 20.20 38.86 16.62 42.94 11.78 41.83 C 10.90 43.21 10.04 44.60 9.19 46.01 C 14.20 44.94 18.80 41.80 24.07 42.22 C 26.49 42.22 29.29 43.04 31.33 41.28 C 33.71 39.27 36.17 36.42 35.90 33.11 C 32.54 28.42 24.58 30.07 22.17 35.00 Z" />
<path fill="#000000" opacity="1.00" d=" M 25.70 35.76 C 26.35 33.95 28.43 34.09 29.99 33.92 C 30.09 35.76 29.82 38.12 27.61 38.55 C 25.89 39.20 24.72 37.10 25.70 35.76 Z" />
</g>
</svg>
