<?xml version="1.0" encoding="UTF-8" ?>
<!DOCTYPE svg PUBLIC "-//W3C//DTD SVG 1.1//EN" "http://www.w3.org/Graphics/SVG/1.1/DTD/svg11.dtd">
<svg width="60pt" height="60pt" viewBox="0 0 60 60" version="1.1" xmlns="http://www.w3.org/2000/svg">
<g id="#ffffffff">
<path fill="#ffffff" opacity="1.00" d=" M 0.00 0.00 L 22.82 0.00 C 22.21 1.13 21.38 2.91 23.07 3.60 C 25.63 4.97 27.31 7.28 27.97 10.08 C 26.60 10.97 24.95 11.54 23.90 12.86 C 21.47 15.50 22.52 19.56 20.48 22.42 C 17.45 27.41 12.98 31.88 12.16 37.91 C 11.49 41.69 12.86 45.66 15.58 48.34 C 22.49 55.19 34.35 55.75 42.21 50.23 C 45.82 47.74 48.41 43.46 47.95 38.96 C 47.55 32.48 42.75 27.66 39.52 22.42 C 37.48 19.55 38.53 15.48 36.07 12.83 C 35.03 11.52 33.40 10.95 32.03 10.07 C 31.19 5.78 28.77 1.68 24.55 0.00 L 60.00 0.00 L 60.00 60.00 L 0.00 60.00 L 0.00 0.00 M 36.03 10.04 C 41.53 10.28 45.81 5.60 46.14 0.28 C 40.55 -0.24 35.56 4.42 36.03 10.04 Z" />
</g>
<g id="#000000ff">
<path fill="#968176" opacity="1.00" d=" M 22.82 0.00 L 24.55 0.00 C 28.77 1.68 31.19 5.78 32.03 10.07 C 33.40 10.95 35.03 11.52 36.07 12.83 C 38.53 15.48 37.48 19.55 39.52 22.42 C 42.75 27.66 47.55 32.48 47.95 38.96 C 48.41 43.46 45.82 47.74 42.21 50.23 C 34.35 55.75 22.49 55.19 15.58 48.34 C 12.86 45.66 11.49 41.69 12.16 37.91 C 12.98 31.88 17.45 27.41 20.48 22.42 C 22.52 19.56 21.47 15.50 23.90 12.86 C 24.95 11.54 26.60 10.97 27.97 10.08 C 27.31 7.28 25.63 4.97 23.07 3.60 C 21.38 2.91 22.21 1.13 22.82 0.00 Z" />
<path fill="#968176" opacity="1.00" d=" M 36.03 10.04 C 35.56 4.42 40.55 -0.24 46.14 0.28 C 45.81 5.60 41.53 10.28 36.03 10.04 Z" />
</g>
</svg>
