<?xml version="1.0" encoding="UTF-8" ?>
<!DOCTYPE svg PUBLIC "-//W3C//DTD SVG 1.1//EN" "http://www.w3.org/Graphics/SVG/1.1/DTD/svg11.dtd">
<svg width="64pt" height="64pt" viewBox="0 0 64 64" version="1.1" xmlns="http://www.w3.org/2000/svg">
<g id="#ffffffff">
<path fill="#ffffff" opacity="1.00" d=" M 0.00 0.00 L 64.00 0.00 L 64.00 64.00 L 0.00 64.00 L 0.00 0.00 M 26.22 28.00 C 26.10 30.25 24.17 31.53 22.09 31.68 C 16.22 32.34 10.02 31.60 4.54 34.31 C 5.49 35.32 6.40 36.36 7.27 37.43 C 13.02 35.28 19.32 36.80 25.11 35.04 C 28.23 34.14 29.79 31.05 30.16 28.03 C 28.85 28.03 27.53 28.02 26.22 28.00 M 33.83 28.03 C 34.20 31.06 35.77 34.14 38.90 35.05 C 44.71 36.77 51.00 35.33 56.77 37.41 C 57.64 36.37 58.52 35.33 59.44 34.33 C 53.73 31.41 47.18 32.52 41.07 31.51 C 39.22 31.29 37.96 29.83 37.77 28.00 C 36.46 28.02 35.15 28.03 33.83 28.03 Z" />
</g>
<g id="#000000ff">
<path fill="#000000" opacity="1.00" d=" M 26.22 28.00 C 27.53 28.02 28.85 28.03 30.16 28.03 C 29.79 31.05 28.23 34.14 25.11 35.04 C 19.32 36.80 13.02 35.28 7.27 37.43 C 6.40 36.36 5.49 35.32 4.54 34.31 C 10.02 31.60 16.22 32.34 22.09 31.68 C 24.17 31.53 26.10 30.25 26.22 28.00 Z" />
<path fill="#000000" opacity="1.00" d=" M 33.83 28.03 C 35.15 28.03 36.46 28.02 37.77 28.00 C 37.96 29.83 39.22 31.29 41.07 31.51 C 47.18 32.52 53.73 31.41 59.44 34.33 C 58.52 35.33 57.64 36.37 56.77 37.41 C 51.00 35.33 44.71 36.77 38.90 35.05 C 35.77 34.14 34.20 31.06 33.83 28.03 Z" />
</g>
</svg>
