<?xml version="1.0" encoding="UTF-8" ?>
<!DOCTYPE svg PUBLIC "-//W3C//DTD SVG 1.1//EN" "http://www.w3.org/Graphics/SVG/1.1/DTD/svg11.dtd">
<svg width="60pt" height="60pt" viewBox="0 0 60 60" version="1.1" xmlns="http://www.w3.org/2000/svg">
<g id="#ffffffff">
<path fill="#ffffff" opacity="1.00" d=" M 0.00 0.00 L 60.00 0.00 L 60.00 60.00 L 0.00 60.00 L 0.00 0.00 M 19.13 6.15 C 17.59 6.28 16.39 7.61 16.06 9.06 C 14.57 14.43 13.27 20.10 14.26 25.67 C 15.60 28.93 17.02 32.32 16.59 35.94 C 16.61 40.19 13.28 43.70 13.94 48.03 C 13.56 50.67 14.83 54.05 17.96 53.95 C 25.69 54.07 33.43 53.98 41.16 54.00 C 43.17 54.21 45.45 53.04 45.83 50.92 C 46.31 47.65 46.27 44.20 44.67 41.22 C 42.29 36.13 43.47 30.33 45.79 25.48 C 46.68 19.74 45.38 13.92 43.72 8.44 C 42.96 6.07 40.19 5.90 38.11 5.98 C 31.79 6.11 25.44 5.78 19.13 6.15 Z" />
<path fill="#ffffff" opacity="1.00" d=" M 25.38 10.58 C 29.48 9.73 34.35 9.54 37.85 12.21 C 38.53 14.57 35.55 15.14 33.88 15.59 C 29.98 16.20 25.43 16.34 22.15 13.80 C 21.45 11.73 23.87 11.04 25.38 10.58 Z" />
<path fill="#ffffff" opacity="1.00" d=" M 25.11 24.18 C 28.33 23.86 31.61 23.84 34.83 24.18 C 35.08 24.43 35.58 24.92 35.82 25.17 C 36.26 30.77 35.87 36.40 36.00 42.02 C 32.00 44.01 28.00 46.02 24.00 48.00 C 24.13 40.41 23.75 32.79 24.17 25.21 C 24.40 24.95 24.87 24.44 25.11 24.18 M 29.21 32.19 C 26.76 33.09 28.49 36.95 30.83 35.88 C 33.18 34.86 31.53 31.02 29.21 32.19 Z" />
</g>
<g id="#000000ff">
<path fill="#000000" opacity="1.00" d=" M 19.13 6.15 C 25.44 5.78 31.79 6.11 38.11 5.98 C 40.19 5.90 42.96 6.07 43.72 8.44 C 45.38 13.92 46.68 19.74 45.79 25.48 C 43.47 30.33 42.29 36.13 44.67 41.22 C 46.27 44.20 46.31 47.65 45.83 50.92 C 45.45 53.04 43.17 54.21 41.16 54.00 C 33.43 53.98 25.69 54.07 17.96 53.95 C 14.83 54.05 13.56 50.67 13.94 48.03 C 13.28 43.70 16.61 40.19 16.59 35.94 C 17.02 32.32 15.60 28.93 14.26 25.67 C 13.27 20.10 14.57 14.43 16.06 9.06 C 16.39 7.61 17.59 6.28 19.13 6.15 M 25.38 10.58 C 23.87 11.04 21.45 11.73 22.15 13.80 C 25.43 16.34 29.98 16.20 33.88 15.59 C 35.55 15.14 38.53 14.57 37.85 12.21 C 34.35 9.54 29.48 9.73 25.38 10.58 M 25.11 24.18 C 24.87 24.44 24.40 24.95 24.17 25.21 C 23.75 32.79 24.13 40.41 24.00 48.00 C 28.00 46.02 32.00 44.01 36.00 42.02 C 35.87 36.40 36.26 30.77 35.82 25.17 C 35.58 24.92 35.08 24.43 34.83 24.18 C 31.61 23.84 28.33 23.86 25.11 24.18 Z" />
<path fill="#000000" opacity="1.00" d=" M 29.21 32.19 C 31.53 31.02 33.18 34.86 30.83 35.88 C 28.49 36.95 26.76 33.09 29.21 32.19 Z" />
</g>
</svg>
