<?xml version="1.0" encoding="UTF-8" ?>
<!DOCTYPE svg PUBLIC "-//W3C//DTD SVG 1.1//EN" "http://www.w3.org/Graphics/SVG/1.1/DTD/svg11.dtd">
<svg width="60pt" height="60pt" viewBox="0 0 60 60" version="1.1" xmlns="http://www.w3.org/2000/svg">
<g id="#ffffffff">
<path fill="#ffffff" opacity="1.00" d=" M 0.00 0.00 L 60.00 0.00 L 60.00 60.00 L 0.00 60.00 L 0.00 0.00 M 14.58 6.52 C 9.10 9.66 2.84 15.05 4.22 22.10 C 5.29 29.19 13.29 33.69 20.01 31.41 C 19.95 33.57 20.22 35.76 19.81 37.88 C 18.86 40.18 17.61 42.51 18.08 45.10 C 18.53 52.14 26.11 57.57 32.92 55.58 C 39.48 54.12 44.02 46.20 41.05 39.95 C 39.49 37.36 40.06 34.28 39.99 31.41 C 46.71 33.70 54.67 29.22 55.77 22.14 C 57.18 15.06 50.88 9.64 45.38 6.50 C 43.73 5.07 41.24 6.91 42.11 8.91 C 45.26 11.33 49.05 13.23 51.02 16.87 C 53.65 21.00 50.49 26.81 45.91 27.75 C 43.89 28.39 41.86 27.65 39.96 27.01 C 39.81 23.05 40.38 19.15 40.89 15.25 C 40.12 13.29 37.20 13.85 36.94 15.83 C 35.36 22.07 36.21 28.61 36.01 34.98 C 32.10 33.78 27.90 33.77 23.99 34.97 C 23.70 28.39 24.84 21.53 22.78 15.16 C 22.24 13.15 18.62 13.96 19.16 16.00 C 19.78 19.64 20.11 23.32 20.04 27.01 C 14.91 29.93 7.74 25.99 8.01 19.96 C 8.60 14.51 14.06 11.87 17.91 8.85 C 18.70 6.83 16.19 5.08 14.58 6.52 Z" />
<path fill="#ffffff" opacity="1.00" d=" M 22.08 42.93 C 22.49 39.23 26.77 37.92 29.95 38.01 C 33.20 37.89 37.59 39.25 37.93 43.05 C 38.56 47.00 35.69 50.37 32.28 51.91 C 31.94 50.50 32.09 47.87 30.02 48.04 C 27.93 47.79 28.04 50.50 27.72 51.88 C 24.25 50.37 21.38 46.93 22.08 42.93 Z" />
</g>
<g id="#000000ff">
<path fill="#000000" opacity="1.00" d=" M 14.58 6.52 C 16.19 5.08 18.70 6.83 17.91 8.85 C 14.06 11.87 8.60 14.51 8.01 19.96 C 7.74 25.99 14.91 29.93 20.04 27.01 C 20.11 23.32 19.78 19.64 19.16 16.00 C 18.62 13.96 22.24 13.15 22.78 15.16 C 24.84 21.53 23.70 28.39 23.99 34.97 C 27.90 33.77 32.10 33.78 36.01 34.98 C 36.21 28.61 35.36 22.07 36.94 15.83 C 37.20 13.85 40.12 13.29 40.89 15.25 C 40.38 19.15 39.81 23.05 39.96 27.01 C 41.86 27.65 43.89 28.39 45.91 27.75 C 50.49 26.81 53.65 21.00 51.02 16.87 C 49.05 13.23 45.26 11.33 42.11 8.91 C 41.24 6.91 43.73 5.07 45.38 6.50 C 50.88 9.64 57.18 15.06 55.77 22.14 C 54.67 29.22 46.71 33.70 39.99 31.41 C 40.06 34.28 39.49 37.36 41.05 39.95 C 44.02 46.20 39.48 54.12 32.92 55.58 C 26.11 57.57 18.53 52.14 18.08 45.10 C 17.61 42.51 18.86 40.18 19.81 37.88 C 20.22 35.76 19.95 33.57 20.01 31.41 C 13.29 33.69 5.29 29.19 4.22 22.10 C 2.84 15.05 9.10 9.66 14.58 6.52 M 22.08 42.93 C 21.38 46.93 24.25 50.37 27.72 51.88 C 28.04 50.50 27.93 47.79 30.02 48.04 C 32.09 47.87 31.94 50.50 32.28 51.91 C 35.69 50.37 38.56 47.00 37.93 43.05 C 37.59 39.25 33.20 37.89 29.95 38.01 C 26.77 37.92 22.49 39.23 22.08 42.93 Z" />
</g>
</svg>
