<?xml version="1.0" encoding="UTF-8" ?>
<!DOCTYPE svg PUBLIC "-//W3C//DTD SVG 1.1//EN" "http://www.w3.org/Graphics/SVG/1.1/DTD/svg11.dtd">
<svg width="60pt" height="60pt" viewBox="0 0 60 60" version="1.1" xmlns="http://www.w3.org/2000/svg">
<g id="#ffffffff">
<path fill="#ffffff" opacity="1.00" d=" M 0.00 0.00 L 60.00 0.00 L 60.00 60.00 L 0.00 60.00 L 0.00 0.00 M 25.17 4.17 C 23.68 4.86 24.05 6.66 23.96 7.99 C 24.05 9.32 23.68 11.09 25.14 11.83 C 28.36 12.15 31.64 12.14 34.87 11.82 C 36.66 10.07 36.70 5.83 34.82 4.17 C 31.62 3.86 28.37 3.86 25.17 4.17 M 9.40 16.60 C 7.00 17.69 5.80 20.38 6.00 22.93 C 6.03 30.65 5.93 38.37 6.05 46.09 C 5.97 49.21 8.75 51.98 11.85 51.95 C 22.89 52.10 33.93 51.93 44.96 52.02 C 47.45 52.00 50.40 52.25 52.24 50.20 C 54.25 48.36 54.00 45.45 54.02 42.97 C 53.93 35.94 54.10 28.90 53.95 21.87 C 53.99 18.79 51.26 16.01 48.17 16.05 C 37.13 15.90 26.08 16.07 15.03 15.98 C 13.16 16.05 11.16 15.80 9.40 16.60 Z" />
<path fill="#ffffff" opacity="1.00" d=" M 10.07 21.95 C 9.91 20.40 11.64 19.82 12.88 20.02 C 23.93 19.96 34.98 20.03 46.03 19.99 C 47.34 20.11 49.09 19.68 49.83 21.12 C 50.12 23.40 50.00 25.71 50.01 28.00 C 46.67 28.00 43.34 28.00 40.00 28.00 C 40.00 31.33 40.00 34.67 40.00 38.00 C 33.33 38.00 26.67 38.00 20.00 38.00 C 20.00 34.65 20.00 31.29 20.00 27.94 C 18.10 28.33 15.36 27.18 14.16 29.18 C 13.64 34.40 14.37 39.66 13.82 44.88 C 13.01 46.72 9.86 46.09 10.07 44.01 C 9.94 36.66 9.95 29.30 10.07 21.95 Z" />
</g>
<g id="#000000ff">
<path fill="#000000" opacity="1.00" d=" M 25.17 4.17 C 28.37 3.86 31.62 3.86 34.82 4.17 C 36.70 5.83 36.66 10.07 34.87 11.82 C 31.64 12.14 28.36 12.15 25.14 11.83 C 23.68 11.09 24.05 9.32 23.96 7.99 C 24.05 6.66 23.68 4.86 25.17 4.17 Z" />
<path fill="#000000" opacity="1.00" d=" M 9.40 16.60 C 11.16 15.80 13.16 16.05 15.03 15.98 C 26.08 16.07 37.13 15.90 48.17 16.05 C 51.26 16.01 53.99 18.79 53.95 21.87 C 54.10 28.90 53.93 35.94 54.02 42.97 C 54.00 45.45 54.25 48.36 52.24 50.20 C 50.40 52.25 47.45 52.00 44.96 52.02 C 33.93 51.93 22.89 52.10 11.85 51.95 C 8.75 51.98 5.97 49.21 6.05 46.09 C 5.93 38.37 6.03 30.65 6.00 22.93 C 5.80 20.38 7.00 17.69 9.40 16.60 M 10.07 21.95 C 9.95 29.30 9.94 36.66 10.07 44.01 C 9.86 46.09 13.01 46.72 13.82 44.88 C 14.37 39.66 13.64 34.40 14.16 29.18 C 15.36 27.18 18.10 28.33 20.00 27.94 C 20.00 31.29 20.00 34.65 20.00 38.00 C 26.67 38.00 33.33 38.00 40.00 38.00 C 40.00 34.67 40.00 31.33 40.00 28.00 C 43.34 28.00 46.67 28.00 50.01 28.00 C 50.00 25.71 50.12 23.40 49.83 21.12 C 49.09 19.68 47.34 20.11 46.03 19.99 C 34.98 20.03 23.93 19.96 12.88 20.02 C 11.64 19.82 9.91 20.40 10.07 21.95 Z" />
</g>
</svg>
