<?xml version="1.0" encoding="UTF-8" ?>
<!DOCTYPE svg PUBLIC "-//W3C//DTD SVG 1.1//EN" "http://www.w3.org/Graphics/SVG/1.1/DTD/svg11.dtd">
<svg width="60pt" height="60pt" viewBox="0 0 60 60" version="1.1" xmlns="http://www.w3.org/2000/svg">
<g id="#ffffffff">
<path fill="#ffffff" opacity="1.00" d=" M 0.00 0.00 L 60.00 0.00 L 60.00 60.00 L 0.00 60.00 L 0.00 0.00 M 26.41 6.58 C 15.73 9.53 14.98 26.70 25.07 30.90 C 32.98 34.90 42.93 27.69 42.02 18.99 C 42.80 10.88 34.20 3.77 26.41 6.58 M 44.18 26.21 C 43.05 28.77 45.42 31.26 47.01 33.06 C 48.80 34.63 51.27 36.93 53.80 35.82 C 54.97 33.29 52.62 30.80 51.05 28.99 C 49.27 27.37 46.71 25.03 44.18 26.21 M 20.57 39.59 C 16.38 40.95 12.11 42.74 8.97 45.91 C 6.69 48.13 8.76 52.34 11.90 51.97 C 23.26 52.07 34.63 51.95 45.99 52.02 C 47.66 51.94 49.70 52.26 50.95 50.87 C 52.52 49.37 52.19 46.69 50.53 45.40 C 47.04 42.31 42.59 40.40 38.10 39.29 C 34.93 40.84 31.57 42.74 27.87 41.78 C 25.20 41.79 23.21 38.56 20.57 39.59 Z" />
</g>
<g id="#000000ff">
<path fill="#000000" opacity="1.00" d=" M 26.41 6.58 C 34.20 3.77 42.80 10.88 42.02 18.99 C 42.93 27.69 32.98 34.90 25.07 30.90 C 14.98 26.70 15.73 9.53 26.41 6.58 Z" />
<path fill="#000000" opacity="1.00" d=" M 44.18 26.21 C 46.71 25.03 49.27 27.37 51.05 28.99 C 52.62 30.80 54.97 33.29 53.80 35.82 C 51.27 36.93 48.80 34.63 47.01 33.06 C 45.42 31.26 43.05 28.77 44.18 26.21 Z" />
<path fill="#000000" opacity="1.00" d=" M 20.57 39.59 C 23.21 38.56 25.20 41.79 27.87 41.78 C 31.57 42.74 34.93 40.84 38.10 39.29 C 42.59 40.40 47.04 42.31 50.53 45.40 C 52.19 46.69 52.52 49.37 50.95 50.87 C 49.70 52.26 47.66 51.94 45.99 52.02 C 34.63 51.95 23.26 52.07 11.90 51.97 C 8.76 52.34 6.69 48.13 8.97 45.91 C 12.11 42.74 16.38 40.95 20.57 39.59 Z" />
</g>
</svg>
