<?xml version="1.0" encoding="UTF-8" ?>
<!DOCTYPE svg PUBLIC "-//W3C//DTD SVG 1.1//EN" "http://www.w3.org/Graphics/SVG/1.1/DTD/svg11.dtd">
<svg width="60pt" height="60pt" viewBox="0 0 60 60" version="1.1" xmlns="http://www.w3.org/2000/svg">
<g id="#ffffffff">
<path fill="#ffffff" opacity="1.00" d=" M 0.00 0.00 L 60.00 0.00 L 60.00 60.00 L 0.00 60.00 L 0.00 0.00 M 24.46 6.65 C 16.87 8.42 10.34 14.11 7.60 21.41 C 5.12 27.78 5.57 35.20 8.79 41.22 C 12.34 47.98 19.28 52.84 26.86 53.78 C 33.89 54.74 41.31 52.38 46.44 47.46 C 51.73 42.53 54.57 35.12 53.89 27.92 C 53.35 21.16 49.73 14.72 44.26 10.70 C 38.69 6.52 31.23 5.03 24.46 6.65 Z" />
<path fill="#ffffff" opacity="1.00" d=" M 24.00 20.01 C 27.50 20.11 31.06 19.66 34.51 20.35 C 37.11 21.07 38.15 23.72 39.05 25.97 C 39.79 25.98 41.26 26.00 42.00 26.01 C 42.00 26.50 42.00 27.48 42.00 27.97 C 41.30 27.99 39.90 28.03 39.20 28.05 C 39.21 28.53 39.22 29.48 39.23 29.96 C 39.92 29.98 41.31 30.01 42.00 30.02 C 42.00 30.51 42.00 31.50 42.00 31.99 C 41.25 32.00 39.75 32.02 39.00 32.03 C 38.14 33.73 37.53 35.74 35.84 36.83 C 33.58 38.48 30.61 37.87 28.00 38.03 C 28.00 39.35 28.00 40.68 28.00 42.00 C 26.67 42.00 25.33 42.00 24.00 42.00 C 24.01 38.67 23.99 35.33 24.00 32.00 C 22.67 32.00 21.33 32.00 20.00 32.00 C 20.00 31.50 20.00 30.50 20.00 30.00 C 21.33 30.00 22.67 30.00 24.00 30.00 C 24.00 29.50 24.00 28.50 24.00 28.00 C 22.67 28.00 21.33 28.00 20.00 28.00 C 20.00 27.50 20.00 26.50 20.00 26.00 C 21.33 26.00 22.67 26.00 24.00 26.00 C 24.00 24.00 23.99 22.00 24.00 20.01 M 28.00 23.94 C 28.00 24.46 28.00 25.49 28.00 26.01 C 30.37 26.01 32.74 26.00 35.10 25.88 C 33.28 23.76 30.54 23.94 28.00 23.94 M 28.00 28.00 C 28.00 28.50 28.00 29.50 28.00 30.00 C 30.46 29.99 32.92 30.00 35.37 30.00 C 35.38 29.50 35.38 28.50 35.38 28.00 C 32.92 28.00 30.46 28.01 28.00 28.00 M 28.00 31.99 C 28.00 32.51 28.00 33.54 28.00 34.06 C 30.53 34.05 33.28 34.24 35.10 32.12 C 32.73 31.99 30.37 31.99 28.00 31.99 Z" />
</g>
<g id="#000000ff">
<path fill="#000000" opacity="1.00" d=" M 24.46 6.65 C 31.23 5.03 38.69 6.52 44.26 10.70 C 49.73 14.72 53.35 21.16 53.89 27.92 C 54.57 35.12 51.73 42.53 46.44 47.46 C 41.31 52.38 33.89 54.74 26.86 53.78 C 19.28 52.84 12.34 47.98 8.79 41.22 C 5.57 35.20 5.12 27.78 7.60 21.41 C 10.34 14.11 16.87 8.42 24.46 6.65 M 24.00 20.01 C 23.99 22.00 24.00 24.00 24.00 26.00 C 22.67 26.00 21.33 26.00 20.00 26.00 C 20.00 26.50 20.00 27.50 20.00 28.00 C 21.33 28.00 22.67 28.00 24.00 28.00 C 24.00 28.50 24.00 29.50 24.00 30.00 C 22.67 30.00 21.33 30.00 20.00 30.00 C 20.00 30.50 20.00 31.50 20.00 32.00 C 21.33 32.00 22.67 32.00 24.00 32.00 C 23.99 35.33 24.01 38.67 24.00 42.00 C 25.33 42.00 26.67 42.00 28.00 42.00 C 28.00 40.68 28.00 39.35 28.00 38.03 C 30.61 37.87 33.58 38.48 35.84 36.83 C 37.53 35.74 38.14 33.73 39.00 32.03 C 39.75 32.02 41.25 32.00 42.00 31.99 C 42.00 31.50 42.00 30.51 42.00 30.02 C 41.31 30.01 39.92 29.98 39.23 29.96 C 39.22 29.48 39.21 28.53 39.20 28.05 C 39.90 28.03 41.30 27.99 42.00 27.97 C 42.00 27.48 42.00 26.50 42.00 26.01 C 41.26 26.00 39.79 25.98 39.05 25.97 C 38.15 23.72 37.11 21.07 34.51 20.35 C 31.06 19.66 27.50 20.11 24.00 20.01 Z" />
<path fill="#000000" opacity="1.00" d=" M 28.00 23.94 C 30.54 23.94 33.28 23.76 35.10 25.88 C 32.74 26.00 30.37 26.01 28.00 26.01 C 28.00 25.49 28.00 24.46 28.00 23.94 Z" />
<path fill="#000000" opacity="1.00" d=" M 28.00 28.00 C 30.46 28.01 32.92 28.00 35.38 28.00 C 35.38 28.50 35.38 29.50 35.37 30.00 C 32.92 30.00 30.46 29.99 28.00 30.00 C 28.00 29.50 28.00 28.50 28.00 28.00 Z" />
<path fill="#000000" opacity="1.00" d=" M 28.00 31.99 C 30.37 31.99 32.73 31.99 35.10 32.12 C 33.28 34.24 30.53 34.05 28.00 34.06 C 28.00 33.54 28.00 32.51 28.00 31.99 Z" />
</g>
</svg>
