<?xml version="1.0" encoding="UTF-8" ?>
<!DOCTYPE svg PUBLIC "-//W3C//DTD SVG 1.1//EN" "http://www.w3.org/Graphics/SVG/1.1/DTD/svg11.dtd">
<svg width="64pt" height="64pt" viewBox="0 0 64 64" version="1.1" xmlns="http://www.w3.org/2000/svg">
<g id="#ffffffff">
<path fill="#ffffff" opacity="1.00" d=" M 0.00 0.00 L 64.00 0.00 L 64.00 64.00 L 0.00 64.00 L 0.00 0.00 M 12.00 23.17 C 12.02 32.81 11.96 42.46 12.02 52.10 C 11.69 55.40 14.68 58.33 17.97 57.99 C 27.33 58.01 36.69 58.02 46.05 57.99 C 49.35 58.33 52.31 55.35 51.98 52.06 C 52.02 38.68 52.02 25.30 51.98 11.92 C 52.23 9.10 50.05 6.19 47.13 6.09 C 41.06 5.84 34.98 6.09 28.91 5.99 C 23.28 11.73 17.65 17.46 12.00 23.17 M 8.57 16.61 C 9.55 17.52 10.51 18.46 11.46 19.40 C 14.10 16.73 16.76 14.07 19.42 11.41 C 18.48 10.47 17.54 9.53 16.60 8.59 C 13.92 11.26 11.24 13.93 8.57 16.61 Z" />
<path fill="#ffffff" opacity="1.00" d=" M 30.43 10.06 C 34.22 9.98 38.01 9.98 41.80 10.01 C 40.50 11.29 39.20 12.58 37.92 13.88 C 34.21 13.86 30.51 13.86 26.81 13.88 C 28.02 12.62 29.23 11.34 30.43 10.06 Z" />
<path fill="#ffffff" opacity="1.00" d=" M 39.62 17.85 C 42.39 15.25 44.74 12.17 47.97 10.10 C 48.01 24.11 48.02 38.12 47.98 52.13 C 48.29 54.49 45.42 53.96 43.98 54.03 C 34.77 53.71 25.45 54.52 16.31 53.64 C 15.57 44.08 16.22 34.42 15.99 24.83 C 18.28 22.51 20.57 20.19 22.86 17.86 C 28.44 17.87 34.03 17.87 39.62 17.85 M 24.25 35.82 C 22.92 40.67 26.94 46.12 32.04 45.98 C 37.07 46.07 41.04 40.69 39.76 35.88 C 38.48 30.86 35.04 26.80 32.00 22.74 C 28.98 26.79 25.54 30.83 24.25 35.82 Z" />
<path fill="#ffffff" opacity="1.00" d=" M 28.18 38.96 C 27.64 35.35 30.32 32.30 32.01 29.35 C 33.71 32.46 36.85 35.86 35.57 39.63 C 34.29 43.05 28.86 42.52 28.18 38.96 Z" />
</g>
<g id="#000000ff">
<path fill="#000000" opacity="1.00" d=" M 12.00 23.17 C 17.65 17.46 23.28 11.73 28.91 5.99 C 34.98 6.09 41.06 5.84 47.13 6.09 C 50.05 6.19 52.23 9.10 51.98 11.92 C 52.02 25.30 52.02 38.68 51.98 52.06 C 52.31 55.35 49.35 58.33 46.05 57.99 C 36.69 58.02 27.33 58.01 17.97 57.99 C 14.68 58.33 11.69 55.40 12.02 52.10 C 11.96 42.46 12.02 32.81 12.00 23.17 M 30.43 10.06 C 29.23 11.34 28.02 12.62 26.81 13.88 C 30.51 13.86 34.21 13.86 37.92 13.88 C 39.20 12.58 40.50 11.29 41.80 10.01 C 38.01 9.98 34.22 9.98 30.43 10.06 M 39.62 17.85 C 34.03 17.87 28.44 17.87 22.86 17.86 C 20.57 20.19 18.28 22.51 15.99 24.83 C 16.22 34.42 15.57 44.08 16.31 53.64 C 25.45 54.52 34.77 53.71 43.98 54.03 C 45.42 53.96 48.29 54.49 47.98 52.13 C 48.02 38.12 48.01 24.11 47.97 10.10 C 44.74 12.17 42.39 15.25 39.62 17.85 Z" />
<path fill="#000000" opacity="1.00" d=" M 8.57 16.61 C 11.24 13.93 13.92 11.26 16.60 8.59 C 17.54 9.53 18.48 10.47 19.42 11.41 C 16.76 14.07 14.10 16.73 11.46 19.40 C 10.51 18.46 9.55 17.52 8.57 16.61 Z" />
<path fill="#000000" opacity="1.00" d=" M 24.25 35.82 C 25.54 30.83 28.98 26.79 32.00 22.74 C 35.04 26.80 38.48 30.86 39.76 35.88 C 41.04 40.69 37.07 46.07 32.04 45.98 C 26.94 46.12 22.92 40.67 24.25 35.82 M 28.18 38.96 C 28.86 42.52 34.29 43.05 35.57 39.63 C 36.85 35.86 33.71 32.46 32.01 29.35 C 30.32 32.30 27.64 35.35 28.18 38.96 Z" />
</g>
</svg>
