<?xml version="1.0" encoding="UTF-8" ?>
<!DOCTYPE svg PUBLIC "-//W3C//DTD SVG 1.1//EN" "http://www.w3.org/Graphics/SVG/1.1/DTD/svg11.dtd">
<svg width="64pt" height="64pt" viewBox="0 0 64 64" version="1.1" xmlns="http://www.w3.org/2000/svg">
<g id="#ffffffff">
<path fill="#ffffff" opacity="1.00" d=" M 0.00 0.00 L 64.00 0.00 L 64.00 64.00 L 0.00 64.00 L 0.00 0.00 M 25.42 4.58 C 24.48 5.53 23.53 6.47 22.59 7.40 C 25.07 9.88 27.53 12.36 30.01 14.84 C 30.00 16.37 30.00 17.91 29.99 19.44 C 26.54 18.98 23.39 17.49 20.85 15.13 C 18.00 12.48 14.33 11.12 10.64 10.12 C 10.32 11.06 9.67 12.94 9.35 13.89 C 13.47 14.82 17.13 16.90 20.25 19.71 C 22.89 22.22 26.60 22.70 29.99 23.54 C 29.99 25.53 29.99 27.53 30.01 29.52 C 27.97 28.99 25.93 28.44 23.89 27.90 C 20.67 29.19 17.45 30.47 14.23 31.74 C 12.54 30.59 10.82 29.47 9.12 28.33 C 8.37 29.44 7.63 30.55 6.89 31.66 C 9.18 33.19 11.48 34.72 13.78 36.26 C 17.23 34.91 20.67 33.51 24.10 32.10 C 26.06 32.62 28.03 33.13 29.99 33.64 C 29.97 35.32 29.98 37.00 30.00 38.68 C 26.95 40.03 23.67 40.89 20.76 42.54 C 17.88 45.46 15.78 49.06 12.92 52.00 C 11.26 53.10 9.22 53.48 7.36 54.13 C 7.79 55.38 8.21 56.63 8.63 57.88 C 10.85 57.13 13.19 56.63 15.26 55.49 C 18.24 52.43 20.37 48.61 23.47 45.67 C 25.57 44.60 27.83 43.89 30.01 43.00 C 29.99 47.33 30.00 51.66 30.00 56.00 C 31.33 56.00 32.67 56.00 34.00 56.00 C 34.00 51.65 34.00 47.30 34.00 42.95 C 36.19 43.84 38.46 44.55 40.54 45.67 C 43.66 48.60 45.75 52.44 48.75 55.48 C 50.84 56.54 53.14 57.13 55.36 57.89 C 55.68 56.93 56.33 55.03 56.65 54.08 C 54.78 53.42 52.71 53.10 51.06 51.97 C 48.25 49.02 46.12 45.50 43.30 42.57 C 40.40 40.83 37.08 39.98 34.00 38.64 C 34.01 36.98 34.01 35.31 34.01 33.65 C 35.96 33.14 37.92 32.62 39.88 32.10 C 43.34 33.50 46.82 34.85 50.27 36.26 C 52.55 34.72 54.84 33.21 57.10 31.65 C 56.36 30.55 55.62 29.44 54.89 28.34 C 53.18 29.48 51.47 30.62 49.75 31.75 C 46.55 30.43 43.33 29.17 40.11 27.90 C 38.07 28.44 36.03 28.99 33.99 29.52 C 34.01 27.53 34.01 25.53 34.01 23.54 C 37.42 22.77 41.09 22.24 43.74 19.74 C 46.87 16.96 50.50 14.78 54.64 13.90 C 54.22 12.64 53.79 11.38 53.37 10.12 C 49.67 11.12 45.99 12.46 43.16 15.14 C 40.63 17.54 37.45 18.97 34.01 19.44 C 34.00 17.91 33.99 16.37 33.99 14.84 C 36.47 12.36 38.95 9.88 41.44 7.41 C 40.48 6.47 39.54 5.53 38.60 4.57 C 36.41 6.78 34.20 8.97 32.00 11.17 C 29.82 8.96 27.61 6.78 25.42 4.58 Z" />
</g>
<g id="#000000ff">
<path fill="#000000" opacity="1.00" d=" M 25.42 4.58 C 27.61 6.78 29.82 8.96 32.00 11.17 C 34.20 8.97 36.41 6.78 38.60 4.57 C 39.54 5.53 40.48 6.47 41.44 7.41 C 38.95 9.88 36.47 12.36 33.99 14.84 C 33.99 16.37 34.00 17.91 34.01 19.44 C 37.45 18.97 40.63 17.54 43.16 15.14 C 45.99 12.46 49.67 11.12 53.37 10.12 C 53.79 11.38 54.22 12.64 54.64 13.90 C 50.50 14.78 46.87 16.96 43.74 19.74 C 41.09 22.24 37.42 22.77 34.01 23.54 C 34.01 25.53 34.01 27.53 33.99 29.52 C 36.03 28.99 38.07 28.44 40.11 27.90 C 43.33 29.17 46.55 30.43 49.75 31.75 C 51.47 30.62 53.18 29.48 54.89 28.34 C 55.62 29.44 56.36 30.55 57.10 31.65 C 54.84 33.21 52.55 34.72 50.27 36.26 C 46.82 34.85 43.34 33.50 39.88 32.10 C 37.92 32.62 35.96 33.14 34.01 33.65 C 34.01 35.31 34.01 36.98 34.00 38.64 C 37.08 39.98 40.40 40.83 43.30 42.57 C 46.12 45.50 48.25 49.02 51.06 51.97 C 52.71 53.10 54.78 53.42 56.65 54.08 C 56.33 55.03 55.68 56.93 55.36 57.89 C 53.14 57.13 50.84 56.54 48.75 55.48 C 45.75 52.44 43.66 48.60 40.54 45.67 C 38.46 44.55 36.19 43.84 34.00 42.95 C 34.00 47.30 34.00 51.65 34.00 56.00 C 32.67 56.00 31.33 56.00 30.00 56.00 C 30.00 51.66 29.99 47.33 30.01 43.00 C 27.83 43.89 25.57 44.60 23.47 45.67 C 20.37 48.61 18.24 52.43 15.26 55.49 C 13.19 56.63 10.85 57.13 8.63 57.88 C 8.21 56.63 7.79 55.38 7.36 54.13 C 9.22 53.48 11.26 53.10 12.92 52.00 C 15.78 49.06 17.88 45.46 20.76 42.54 C 23.67 40.89 26.95 40.03 30.00 38.68 C 29.98 37.00 29.97 35.32 29.99 33.64 C 28.03 33.13 26.06 32.62 24.10 32.10 C 20.67 33.51 17.23 34.91 13.78 36.26 C 11.48 34.72 9.18 33.19 6.89 31.66 C 7.63 30.55 8.37 29.44 9.12 28.33 C 10.82 29.47 12.54 30.59 14.23 31.74 C 17.45 30.47 20.67 29.19 23.89 27.90 C 25.93 28.44 27.97 28.99 30.01 29.52 C 29.99 27.53 29.99 25.53 29.99 23.54 C 26.60 22.70 22.89 22.22 20.25 19.71 C 17.13 16.90 13.47 14.82 9.35 13.89 C 9.67 12.94 10.32 11.06 10.64 10.12 C 14.33 11.12 18.00 12.48 20.85 15.13 C 23.39 17.49 26.54 18.98 29.99 19.44 C 30.00 17.91 30.00 16.37 30.01 14.84 C 27.53 12.36 25.07 9.88 22.59 7.40 C 23.53 6.47 24.48 5.53 25.42 4.58 Z" />
</g>
</svg>
