<?xml version="1.0" encoding="UTF-8" ?>
<!DOCTYPE svg PUBLIC "-//W3C//DTD SVG 1.1//EN" "http://www.w3.org/Graphics/SVG/1.1/DTD/svg11.dtd">
<svg width="60pt" height="60pt" viewBox="0 0 60 60" version="1.1" xmlns="http://www.w3.org/2000/svg">
<g id="#ffffffff">
<path fill="#ffffff" opacity="1.00" d=" M 0.00 0.00 L 60.00 0.00 L 60.00 60.00 L 0.00 60.00 L 0.00 0.00 M 23.86 9.79 C 20.23 10.72 17.64 13.58 14.78 15.80 C 10.49 19.02 11.34 24.97 10.39 29.65 C 9.57 30.11 8.74 30.55 7.91 30.99 C 8.05 32.19 8.32 34.13 10.00 33.93 C 23.35 34.05 36.71 34.06 50.06 33.92 C 51.71 34.10 51.95 32.16 52.08 30.98 C 51.25 30.55 50.42 30.10 49.61 29.65 C 48.68 24.95 49.48 19.02 45.21 15.76 C 42.39 13.50 39.74 10.74 36.14 9.79 C 35.94 8.44 36.07 5.79 34.03 6.05 C 31.85 5.78 32.04 8.58 31.86 10.00 C 30.62 10.00 29.38 10.00 28.14 10.00 C 27.95 8.59 28.15 5.76 25.97 6.05 C 23.92 5.77 24.07 8.45 23.86 9.79 M 24.24 38.23 C 19.09 38.70 13.11 39.33 9.55 43.55 C 7.70 46.25 6.98 51.09 10.05 53.14 C 13.63 52.59 17.18 51.69 20.59 50.46 C 22.19 48.87 21.61 46.03 23.24 44.48 C 27.65 43.61 32.30 43.60 36.71 44.47 C 38.43 45.96 37.78 48.91 39.43 50.44 C 42.83 51.63 46.34 52.58 49.90 53.14 C 53.88 50.25 51.87 43.20 47.75 41.22 C 40.58 37.43 32.09 38.01 24.24 38.23 Z" />
<path fill="#ffffff" opacity="1.00" d=" M 25.15 16.21 C 27.48 14.95 29.21 18.85 26.81 19.90 C 24.49 20.92 22.80 17.18 25.15 16.21 Z" />
<path fill="#ffffff" opacity="1.00" d=" M 33.24 16.08 C 35.64 15.20 37.11 18.82 34.82 19.89 C 32.37 20.88 30.84 17.11 33.24 16.08 Z" />
<path fill="#ffffff" opacity="1.00" d=" M 25.17 24.16 C 27.53 23.01 29.25 26.96 26.76 27.82 C 24.50 28.99 22.79 25.10 25.17 24.16 Z" />
<path fill="#ffffff" opacity="1.00" d=" M 33.21 24.09 C 35.61 23.20 37.10 26.74 34.86 27.88 C 32.43 28.92 30.83 25.18 33.21 24.09 Z" />
</g>
<g id="#000000ff">
<path fill="#968176" opacity="1.00" d=" M 23.86 9.79 C 24.07 8.45 23.92 5.77 25.97 6.05 C 28.15 5.76 27.95 8.59 28.14 10.00 C 29.38 10.00 30.62 10.00 31.86 10.00 C 32.04 8.58 31.85 5.78 34.03 6.05 C 36.07 5.79 35.94 8.44 36.14 9.79 C 39.74 10.74 42.39 13.50 45.21 15.76 C 49.48 19.02 48.68 24.95 49.61 29.65 C 50.42 30.10 51.25 30.55 52.08 30.98 C 51.95 32.16 51.71 34.10 50.06 33.92 C 36.71 34.06 23.35 34.05 10.00 33.93 C 8.32 34.13 8.05 32.19 7.91 30.99 C 8.74 30.55 9.57 30.11 10.39 29.65 C 11.34 24.97 10.49 19.02 14.78 15.80 C 17.64 13.58 20.23 10.72 23.86 9.79 M 25.15 16.21 C 22.80 17.18 24.49 20.92 26.81 19.90 C 29.21 18.85 27.48 14.95 25.15 16.21 M 33.24 16.08 C 30.84 17.11 32.37 20.88 34.82 19.89 C 37.11 18.82 35.64 15.20 33.24 16.08 M 25.17 24.16 C 22.79 25.10 24.50 28.99 26.76 27.82 C 29.25 26.96 27.53 23.01 25.17 24.16 M 33.21 24.09 C 30.83 25.18 32.43 28.92 34.86 27.88 C 37.10 26.74 35.61 23.20 33.21 24.09 Z" />
<path fill="#968176" opacity="1.00" d=" M 24.24 38.23 C 32.09 38.01 40.58 37.43 47.75 41.22 C 51.87 43.20 53.88 50.25 49.90 53.14 C 46.34 52.58 42.83 51.63 39.43 50.44 C 37.78 48.91 38.43 45.96 36.71 44.47 C 32.30 43.60 27.65 43.61 23.24 44.48 C 21.61 46.03 22.19 48.87 20.59 50.46 C 17.18 51.69 13.63 52.59 10.05 53.14 C 6.98 51.09 7.70 46.25 9.55 43.55 C 13.11 39.33 19.09 38.70 24.24 38.23 Z" />
</g>
</svg>
