<?xml version="1.0" encoding="UTF-8" ?>
<!DOCTYPE svg PUBLIC "-//W3C//DTD SVG 1.1//EN" "http://www.w3.org/Graphics/SVG/1.1/DTD/svg11.dtd">
<svg width="64pt" height="64pt" viewBox="0 0 64 64" version="1.1" xmlns="http://www.w3.org/2000/svg">
<g id="#ffffffff">
<path fill="#ffffff" opacity="1.00" d=" M 0.00 0.00 L 64.00 0.00 L 64.00 64.00 L 0.00 64.00 L 0.00 0.00 M 24.00 8.00 C 24.00 10.00 24.00 12.00 24.00 14.00 C 18.67 14.00 13.33 14.00 8.00 14.00 C 8.00 15.33 8.00 16.67 8.00 18.00 C 13.33 18.00 18.67 18.00 24.00 18.00 C 24.00 20.00 24.00 22.00 24.00 24.00 C 18.67 24.00 13.33 24.00 8.00 24.00 C 8.00 25.33 8.00 26.67 8.00 28.00 C 14.67 28.00 21.33 28.00 28.00 28.00 C 28.00 21.33 28.00 14.67 28.00 8.00 C 26.67 8.00 25.33 8.00 24.00 8.00 M 36.10 19.11 C 37.44 25.09 41.80 29.68 44.73 34.88 C 45.58 34.91 46.43 34.92 47.27 34.90 C 50.17 29.68 54.55 25.12 55.89 19.14 C 56.77 13.46 51.75 7.90 46.05 8.02 C 40.31 7.84 35.26 13.41 36.10 19.11 M 8.00 36.00 C 8.00 37.33 8.00 38.67 8.00 40.00 C 13.33 40.00 18.67 40.00 24.00 40.00 C 24.00 45.33 24.00 50.67 24.00 56.00 C 25.33 56.00 26.67 56.00 28.00 56.00 C 28.00 49.33 28.00 42.67 28.00 36.00 C 21.33 36.00 14.67 36.00 8.00 36.00 M 36.00 35.99 C 36.00 42.66 36.00 49.33 36.00 56.00 C 37.33 56.00 38.67 56.00 40.00 56.00 C 40.00 54.00 40.00 52.00 40.00 50.00 C 45.33 50.00 50.67 50.00 56.00 50.00 C 56.00 48.67 56.00 47.33 56.00 46.00 C 50.67 46.00 45.33 46.00 40.00 46.00 C 40.00 44.00 40.00 42.00 40.00 40.00 C 45.33 40.00 50.67 40.00 56.00 40.00 C 56.00 38.66 56.00 37.33 56.00 36.00 C 52.93 35.98 49.86 36.15 46.80 35.79 C 43.21 36.04 39.60 36.04 36.00 35.99 Z" />
<path fill="#ffffff" opacity="1.00" d=" M 40.09 16.93 C 40.78 11.37 49.28 10.25 51.40 15.40 C 53.18 20.58 48.55 25.17 45.97 29.26 C 43.58 25.46 40.05 21.65 40.09 16.93 M 45.18 16.10 C 42.83 17.24 44.46 20.92 46.89 19.88 C 49.10 18.67 47.56 15.17 45.18 16.10 Z" />
</g>
<g id="#000000ff">
<path fill="#000000" opacity="1.00" d=" M 24.00 8.00 C 25.33 8.00 26.67 8.00 28.00 8.00 C 28.00 14.67 28.00 21.33 28.00 28.00 C 21.33 28.00 14.67 28.00 8.00 28.00 C 8.00 26.67 8.00 25.33 8.00 24.00 C 13.33 24.00 18.67 24.00 24.00 24.00 C 24.00 22.00 24.00 20.00 24.00 18.00 C 18.67 18.00 13.33 18.00 8.00 18.00 C 8.00 16.67 8.00 15.33 8.00 14.00 C 13.33 14.00 18.67 14.00 24.00 14.00 C 24.00 12.00 24.00 10.00 24.00 8.00 Z" />
<path fill="#000000" opacity="1.00" d=" M 36.10 19.11 C 35.26 13.41 40.31 7.84 46.05 8.02 C 51.75 7.90 56.77 13.46 55.89 19.14 C 54.55 25.12 50.17 29.68 47.27 34.90 C 46.43 34.92 45.58 34.91 44.73 34.88 C 41.80 29.68 37.44 25.09 36.10 19.11 M 40.09 16.93 C 40.05 21.65 43.58 25.46 45.97 29.26 C 48.55 25.17 53.18 20.58 51.40 15.40 C 49.28 10.25 40.78 11.37 40.09 16.93 Z" />
<path fill="#000000" opacity="1.00" d=" M 45.18 16.10 C 47.56 15.17 49.10 18.67 46.89 19.88 C 44.46 20.92 42.83 17.24 45.18 16.10 Z" />
<path fill="#000000" opacity="1.00" d=" M 8.00 36.00 C 14.67 36.00 21.33 36.00 28.00 36.00 C 28.00 42.67 28.00 49.33 28.00 56.00 C 26.67 56.00 25.33 56.00 24.00 56.00 C 24.00 50.67 24.00 45.33 24.00 40.00 C 18.67 40.00 13.33 40.00 8.00 40.00 C 8.00 38.67 8.00 37.33 8.00 36.00 Z" />
<path fill="#000000" opacity="1.00" d=" M 36.00 35.99 C 39.60 36.04 43.21 36.04 46.80 35.79 C 49.86 36.15 52.93 35.98 56.00 36.00 C 56.00 37.33 56.00 38.66 56.00 40.00 C 50.67 40.00 45.33 40.00 40.00 40.00 C 40.00 42.00 40.00 44.00 40.00 46.00 C 45.33 46.00 50.67 46.00 56.00 46.00 C 56.00 47.33 56.00 48.67 56.00 50.00 C 50.67 50.00 45.33 50.00 40.00 50.00 C 40.00 52.00 40.00 54.00 40.00 56.00 C 38.67 56.00 37.33 56.00 36.00 56.00 C 36.00 49.33 36.00 42.66 36.00 35.99 Z" />
</g>
</svg>
