<?xml version="1.0" encoding="UTF-8" ?>
<!DOCTYPE svg PUBLIC "-//W3C//DTD SVG 1.1//EN" "http://www.w3.org/Graphics/SVG/1.1/DTD/svg11.dtd">
<svg width="64pt" height="64pt" viewBox="0 0 64 64" version="1.1" xmlns="http://www.w3.org/2000/svg">
<g id="#ffffffff">
<path fill="#ffffff" opacity="1.00" d=" M 0.00 0.00 L 64.00 0.00 L 64.00 64.00 L 0.00 64.00 L 0.00 0.00 M 25.22 8.26 C 21.60 9.47 17.77 9.26 14.01 9.18 C 13.98 20.12 14.01 31.06 14.00 41.99 C 17.67 41.23 21.35 40.50 25.04 39.78 C 25.10 37.47 25.05 35.15 25.39 32.86 C 26.61 40.60 25.72 48.59 26.00 56.43 C 29.73 55.66 33.47 54.91 37.20 54.18 C 37.19 52.18 37.17 50.18 37.12 48.18 C 43.93 49.12 50.51 43.76 51.17 36.97 C 52.30 29.86 46.57 22.72 39.35 22.38 C 40.18 14.67 33.23 6.63 25.22 8.26 Z" />
<path fill="#ffffff" opacity="1.00" d=" M 18.00 13.23 C 22.37 13.98 26.86 10.46 30.96 13.10 C 36.50 16.12 36.70 25.00 31.43 28.38 C 28.67 30.48 25.02 29.69 21.97 28.81 C 24.29 27.45 27.43 28.49 29.41 26.42 C 33.21 23.19 32.43 16.23 27.82 14.15 C 25.64 12.94 23.23 13.96 21.16 14.86 C 21.21 18.81 21.21 22.75 21.14 26.70 L 22.86 27.02 C 22.22 27.52 21.58 28.02 20.95 28.52 C 21.26 31.13 21.22 33.75 21.22 36.37 C 20.15 36.64 19.08 36.90 18.00 37.15 C 18.00 29.18 18.00 21.20 18.00 13.23 Z" />
<path fill="#ffffff" opacity="1.00" d=" M 25.30 17.23 C 28.57 18.47 28.65 23.25 25.24 24.36 C 25.17 21.98 25.17 19.60 25.30 17.23 Z" />
<path fill="#ffffff" opacity="1.00" d=" M 37.05 27.50 C 39.19 25.32 42.52 26.98 44.45 28.65 C 49.08 32.70 47.81 41.28 42.03 43.59 C 39.09 45.04 35.95 43.66 33.17 42.57 C 33.19 45.34 33.19 48.11 33.19 50.88 C 32.39 51.05 30.80 51.39 30.00 51.56 C 30.03 45.49 29.92 39.42 30.07 33.35 C 31.13 32.97 32.18 32.58 33.24 32.21 C 33.17 35.23 33.18 38.24 33.19 41.26 C 35.04 41.91 37.02 42.98 39.01 42.22 C 43.67 40.84 45.32 34.43 42.38 30.72 C 41.20 28.87 38.93 28.34 37.05 27.50 Z" />
<path fill="#ffffff" opacity="1.00" d=" M 37.25 31.68 C 40.63 32.85 40.58 37.57 37.29 38.84 C 37.17 36.45 37.17 34.06 37.25 31.68 Z" />
</g>
<g id="#000000ff">
<path fill="#000000" opacity="1.00" d=" M 25.22 8.26 C 33.23 6.63 40.18 14.67 39.35 22.38 C 46.57 22.72 52.30 29.86 51.17 36.97 C 50.51 43.76 43.93 49.12 37.12 48.18 C 37.17 50.18 37.19 52.18 37.20 54.18 C 33.47 54.91 29.73 55.66 26.00 56.43 C 25.72 48.59 26.61 40.60 25.39 32.86 C 25.05 35.15 25.10 37.47 25.04 39.78 C 21.35 40.50 17.67 41.23 14.00 41.99 C 14.01 31.06 13.98 20.12 14.01 9.18 C 17.77 9.26 21.60 9.47 25.22 8.26 M 18.00 13.23 C 18.00 21.20 18.00 29.18 18.00 37.15 C 19.08 36.90 20.15 36.64 21.22 36.37 C 21.22 33.75 21.26 31.13 20.95 28.52 C 21.58 28.02 22.22 27.52 22.86 27.02 L 21.14 26.70 C 21.21 22.75 21.21 18.81 21.16 14.86 C 23.23 13.96 25.64 12.94 27.82 14.15 C 32.43 16.23 33.21 23.19 29.41 26.42 C 27.43 28.49 24.29 27.45 21.97 28.81 C 25.02 29.69 28.67 30.48 31.43 28.38 C 36.70 25.00 36.50 16.12 30.96 13.10 C 26.86 10.46 22.37 13.98 18.00 13.23 M 25.30 17.23 C 25.17 19.60 25.17 21.98 25.24 24.36 C 28.65 23.25 28.57 18.47 25.30 17.23 M 37.05 27.50 C 38.93 28.34 41.20 28.87 42.38 30.72 C 45.32 34.43 43.67 40.84 39.01 42.22 C 37.02 42.98 35.04 41.91 33.19 41.26 C 33.18 38.24 33.17 35.23 33.24 32.21 C 32.18 32.58 31.13 32.97 30.07 33.35 C 29.92 39.42 30.03 45.49 30.00 51.56 C 30.80 51.39 32.39 51.05 33.19 50.88 C 33.19 48.11 33.19 45.34 33.17 42.57 C 35.95 43.66 39.09 45.04 42.03 43.59 C 47.81 41.28 49.08 32.70 44.45 28.65 C 42.52 26.98 39.19 25.32 37.05 27.50 M 37.25 31.68 C 37.17 34.06 37.17 36.45 37.29 38.84 C 40.58 37.57 40.63 32.85 37.25 31.68 Z" />
</g>
</svg>
