<?xml version="1.0" encoding="UTF-8" ?>
<!DOCTYPE svg PUBLIC "-//W3C//DTD SVG 1.1//EN" "http://www.w3.org/Graphics/SVG/1.1/DTD/svg11.dtd">
<svg width="60pt" height="60pt" viewBox="0 0 60 60" version="1.1" xmlns="http://www.w3.org/2000/svg">
<g id="#ffffffff">
<path fill="#ffffff" opacity="1.00" d=" M 0.00 0.00 L 60.00 0.00 L 60.00 60.00 L 0.00 60.00 L 0.00 0.00 M 38.35 14.46 C 38.36 10.86 34.37 9.95 32.08 8.06 C 29.14 12.37 25.67 16.29 22.03 20.01 C 23.16 20.00 25.43 20.00 26.56 20.00 C 26.37 20.42 26.00 21.28 25.82 21.70 C 27.37 22.79 28.27 24.59 29.97 25.52 C 29.96 26.10 29.95 27.28 29.94 27.86 C 28.51 28.94 27.07 30.00 25.63 31.07 C 25.00 29.17 22.56 27.26 23.91 25.17 C 25.22 23.93 23.52 21.61 21.97 22.33 C 16.14 23.64 10.18 24.65 4.51 26.56 C 4.38 26.94 4.10 27.70 3.97 28.09 C 4.77 31.26 8.57 29.10 10.71 28.87 C 13.37 32.75 16.00 36.67 19.13 40.20 C 21.51 39.27 23.79 38.10 26.01 36.85 C 25.99 43.25 26.01 49.65 26.00 56.05 C 28.68 55.94 31.52 56.23 34.03 55.07 C 36.48 54.00 38.28 51.97 40.08 50.08 C 38.74 48.10 37.16 46.24 36.13 44.07 C 35.80 39.46 36.04 34.82 36.08 30.21 C 38.31 31.39 40.02 33.41 40.10 36.04 C 40.84 42.18 42.02 48.46 45.77 53.56 C 48.26 51.86 50.73 50.12 53.24 48.45 C 47.99 43.92 48.83 35.84 43.79 31.19 C 41.70 29.14 38.76 28.50 36.00 27.88 C 36.00 26.65 35.99 25.42 35.98 24.20 C 36.46 23.89 37.43 23.29 37.91 22.99 C 37.94 22.24 38.00 20.75 38.03 20.01 C 38.54 19.99 39.55 19.97 40.05 19.95 C 39.69 18.98 39.33 18.02 38.97 17.05 C 46.56 16.53 54.97 12.24 56.20 4.01 C 51.72 9.48 45.53 13.73 38.35 14.46 Z" />
<path fill="#ffffff" opacity="1.00" d=" M 15.20 27.68 C 15.96 27.58 17.48 27.36 18.23 27.26 C 19.55 29.24 20.70 31.34 21.58 33.55 C 21.17 33.91 20.36 34.62 19.96 34.98 C 18.26 32.62 16.68 30.18 15.20 27.68 Z" />
</g>
<g id="#000000ff">
<path fill="#968176" opacity="1.00" d=" M 38.35 14.46 C 45.53 13.73 51.72 9.48 56.20 4.01 C 54.97 12.24 46.56 16.53 38.97 17.05 C 39.33 18.02 39.69 18.98 40.05 19.95 C 39.55 19.97 38.54 19.99 38.03 20.01 C 38.00 20.75 37.94 22.24 37.91 22.99 C 37.43 23.29 36.46 23.89 35.98 24.20 C 35.99 25.42 36.00 26.65 36.00 27.88 C 38.76 28.50 41.70 29.14 43.79 31.19 C 48.83 35.84 47.99 43.92 53.24 48.45 C 50.73 50.12 48.26 51.86 45.77 53.56 C 42.02 48.46 40.84 42.18 40.10 36.04 C 40.02 33.41 38.31 31.39 36.08 30.21 C 36.04 34.82 35.80 39.46 36.13 44.07 C 37.16 46.24 38.74 48.10 40.08 50.08 C 38.28 51.97 36.48 54.00 34.03 55.07 C 31.52 56.23 28.68 55.94 26.00 56.05 C 26.01 49.65 25.99 43.25 26.01 36.85 C 23.79 38.10 21.51 39.27 19.13 40.20 C 16.00 36.67 13.37 32.75 10.71 28.87 C 8.57 29.10 4.77 31.26 3.97 28.09 C 4.10 27.70 4.38 26.94 4.51 26.56 C 10.18 24.65 16.14 23.64 21.97 22.33 C 23.52 21.61 25.22 23.93 23.91 25.17 C 22.56 27.26 25.00 29.17 25.63 31.07 C 27.07 30.00 28.51 28.94 29.94 27.86 C 29.95 27.28 29.96 26.10 29.97 25.52 C 28.27 24.59 27.37 22.79 25.82 21.70 C 26.00 21.28 26.37 20.42 26.56 20.00 C 25.43 20.00 23.16 20.00 22.03 20.01 C 25.67 16.29 29.14 12.37 32.08 8.06 C 34.37 9.95 38.36 10.86 38.35 14.46 M 15.20 27.68 C 16.68 30.18 18.26 32.62 19.96 34.98 C 20.36 34.62 21.17 33.91 21.58 33.55 C 20.70 31.34 19.55 29.24 18.23 27.26 C 17.48 27.36 15.96 27.58 15.20 27.68 Z" />
</g>
</svg>
