<?xml version="1.0" encoding="UTF-8" ?>
<!DOCTYPE svg PUBLIC "-//W3C//DTD SVG 1.1//EN" "http://www.w3.org/Graphics/SVG/1.1/DTD/svg11.dtd">
<svg width="60pt" height="60pt" viewBox="0 0 60 60" version="1.1" xmlns="http://www.w3.org/2000/svg">
<g id="#ffffffff">
<path fill="#ffffff" opacity="1.00" d=" M 0.00 0.00 L 60.00 0.00 L 60.00 60.00 L 0.00 60.00 L 0.00 0.00 M 13.38 6.61 C 9.20 8.41 8.89 14.93 12.88 17.12 C 16.62 19.64 22.18 16.49 21.99 12.01 C 22.17 7.76 17.14 4.56 13.38 6.61 M 14.94 22.13 C 10.98 22.72 8.57 27.78 10.94 31.11 C 13.46 34.55 16.48 37.60 19.17 40.90 C 21.59 43.57 23.55 47.01 27.22 48.10 C 21.13 47.85 15.02 48.09 8.93 47.97 C 7.31 48.18 5.13 47.49 4.10 49.17 C 3.47 51.00 5.21 52.31 6.91 51.97 C 22.64 51.97 38.39 52.13 54.11 51.89 C 56.64 52.10 56.51 47.75 53.99 48.08 C 45.63 47.93 37.26 47.94 28.91 48.09 C 31.17 47.09 33.20 45.68 35.07 44.08 C 41.11 39.10 47.40 34.41 53.37 29.35 C 55.03 28.08 53.20 25.17 51.33 26.19 C 44.34 29.25 37.49 32.64 30.55 35.81 C 28.06 32.92 25.56 30.03 23.06 27.14 C 28.28 24.64 33.61 22.37 38.77 19.76 C 40.92 19.21 40.04 15.52 37.90 16.12 C 30.18 17.82 22.61 20.19 14.94 22.13 Z" />
</g>
<g id="#000000ff">
<path fill="#000000" opacity="1.00" d=" M 13.38 6.61 C 17.14 4.56 22.17 7.76 21.99 12.01 C 22.18 16.49 16.62 19.64 12.88 17.12 C 8.89 14.93 9.20 8.41 13.38 6.61 Z" />
<path fill="#000000" opacity="1.00" d=" M 14.94 22.13 C 22.61 20.19 30.18 17.82 37.90 16.12 C 40.04 15.52 40.92 19.21 38.77 19.76 C 33.61 22.37 28.28 24.64 23.06 27.14 C 25.56 30.03 28.06 32.92 30.55 35.81 C 37.49 32.64 44.34 29.25 51.33 26.19 C 53.20 25.17 55.03 28.08 53.37 29.35 C 47.40 34.41 41.11 39.10 35.07 44.08 C 33.20 45.68 31.17 47.09 28.91 48.09 C 37.26 47.94 45.63 47.93 53.99 48.08 C 56.51 47.75 56.64 52.10 54.11 51.89 C 38.39 52.13 22.64 51.97 6.91 51.97 C 5.21 52.31 3.47 51.00 4.10 49.17 C 5.13 47.49 7.31 48.18 8.93 47.97 C 15.02 48.09 21.13 47.85 27.22 48.10 C 23.55 47.01 21.59 43.57 19.17 40.90 C 16.48 37.60 13.46 34.55 10.94 31.11 C 8.57 27.78 10.98 22.72 14.94 22.13 Z" />
</g>
</svg>
