<?xml version="1.0" encoding="UTF-8" ?>
<!DOCTYPE svg PUBLIC "-//W3C//DTD SVG 1.1//EN" "http://www.w3.org/Graphics/SVG/1.1/DTD/svg11.dtd">
<svg width="64pt" height="64pt" viewBox="0 0 64 64" version="1.1" xmlns="http://www.w3.org/2000/svg">
<g id="#ffffffff">
<path fill="#ffffff" opacity="1.00" d=" M 0.00 0.00 L 64.00 0.00 L 64.00 64.00 L 0.00 64.00 L 0.00 0.00 M 6.00 14.00 C 6.00 15.50 6.00 18.50 6.00 20.00 C 7.50 20.00 10.50 20.00 12.00 20.00 C 12.00 18.50 12.00 15.50 12.00 14.00 C 10.50 14.00 7.50 14.00 6.00 14.00 M 16.00 14.00 C 16.00 15.50 16.00 18.50 16.00 20.00 C 17.50 20.00 20.50 20.00 22.00 20.00 C 22.00 18.50 22.00 15.50 22.00 14.00 C 20.50 14.00 17.50 14.00 16.00 14.00 M 26.00 14.00 C 26.00 15.50 26.00 18.50 26.00 20.00 C 27.50 20.00 30.50 20.00 32.00 20.00 C 32.00 18.50 32.00 15.50 32.00 14.00 C 30.50 14.00 27.50 14.00 26.00 14.00 M 40.00 13.99 C 40.00 15.49 40.01 18.50 40.01 20.00 C 46.01 20.01 52.00 20.01 58.00 20.01 C 58.00 18.51 57.99 15.50 57.99 14.00 C 51.99 13.99 45.99 13.99 40.00 13.99 M 6.00 24.00 C 6.00 25.50 6.00 28.50 6.00 30.00 C 7.50 30.00 10.50 30.00 12.00 30.00 C 12.00 28.50 12.00 25.50 12.00 24.00 C 10.50 24.00 7.50 24.00 6.00 24.00 M 16.00 24.00 C 16.00 25.50 16.00 28.50 16.00 30.00 C 17.50 30.00 20.50 30.00 22.00 30.00 C 22.00 28.50 22.00 25.50 22.00 24.00 C 20.50 24.00 17.50 24.00 16.00 24.00 M 26.00 24.00 C 26.00 25.50 26.00 28.50 26.00 30.00 C 27.50 30.00 30.50 30.00 32.00 30.00 C 32.00 28.50 32.00 25.50 32.00 24.00 C 30.50 24.00 27.50 24.00 26.00 24.00 M 40.00 23.99 C 40.00 25.49 40.01 28.50 40.01 30.00 C 46.01 30.01 52.00 30.01 58.00 30.01 C 58.00 28.51 57.99 25.50 57.99 24.00 C 51.99 23.99 45.99 23.99 40.00 23.99 M 6.00 34.00 C 6.00 35.50 6.00 38.50 6.00 40.00 C 7.50 40.00 10.50 40.00 12.00 40.00 C 12.00 38.50 12.00 35.50 12.00 34.00 C 10.50 34.00 7.50 34.00 6.00 34.00 M 16.00 34.00 C 16.00 35.50 16.00 38.50 16.00 40.00 C 17.50 40.00 20.50 40.00 22.00 40.00 C 22.00 38.50 22.00 35.50 22.00 34.00 C 20.50 34.00 17.50 34.00 16.00 34.00 M 26.00 34.00 C 26.00 35.50 26.00 38.50 26.00 40.00 C 27.50 40.00 30.50 40.00 32.00 40.00 C 32.00 38.50 32.00 35.50 32.00 34.00 C 30.50 34.00 27.50 34.00 26.00 34.00 M 40.00 33.99 C 40.00 35.49 40.01 38.50 40.01 40.00 C 46.01 40.01 52.00 40.01 58.00 40.01 C 58.00 38.51 57.99 35.50 57.99 34.00 C 51.99 33.99 45.99 33.99 40.00 33.99 M 6.00 44.00 C 6.00 45.50 6.00 48.50 6.00 50.00 C 7.50 50.00 10.50 50.00 12.00 50.00 C 12.00 48.50 12.00 45.50 12.00 44.00 C 10.50 44.00 7.50 44.00 6.00 44.00 M 16.00 44.00 C 16.00 45.50 16.00 48.50 16.00 50.00 C 17.50 50.00 20.50 50.00 22.00 50.00 C 22.00 48.50 22.00 45.50 22.00 44.00 C 20.50 44.00 17.50 44.00 16.00 44.00 M 26.00 44.00 C 26.00 45.50 26.00 48.50 26.00 50.00 C 27.50 50.00 30.50 50.00 32.00 50.00 C 32.00 48.50 32.00 45.50 32.00 44.00 C 30.50 44.00 27.50 44.00 26.00 44.00 M 40.00 43.99 C 40.00 45.49 40.01 48.50 40.01 50.00 C 46.01 50.01 52.00 50.01 58.00 50.01 C 58.00 48.51 57.99 45.50 57.99 44.00 C 51.99 43.99 45.99 43.99 40.00 43.99 Z" />
</g>
<g id="#000000ff">
<path fill="#000000" opacity="1.00" d=" M 6.00 14.00 C 7.50 14.00 10.50 14.00 12.00 14.00 C 12.00 15.50 12.00 18.50 12.00 20.00 C 10.50 20.00 7.50 20.00 6.00 20.00 C 6.00 18.50 6.00 15.50 6.00 14.00 Z" />
<path fill="#000000" opacity="1.00" d=" M 16.00 14.00 C 17.50 14.00 20.50 14.00 22.00 14.00 C 22.00 15.50 22.00 18.50 22.00 20.00 C 20.50 20.00 17.50 20.00 16.00 20.00 C 16.00 18.50 16.00 15.50 16.00 14.00 Z" />
<path fill="#000000" opacity="1.00" d=" M 26.00 14.00 C 27.50 14.00 30.50 14.00 32.00 14.00 C 32.00 15.50 32.00 18.50 32.00 20.00 C 30.50 20.00 27.50 20.00 26.00 20.00 C 26.00 18.50 26.00 15.50 26.00 14.00 Z" />
<path fill="#000000" opacity="1.00" d=" M 40.00 13.99 C 45.99 13.99 51.99 13.99 57.99 14.00 C 57.99 15.50 58.00 18.51 58.00 20.01 C 52.00 20.01 46.01 20.01 40.01 20.00 C 40.01 18.50 40.00 15.49 40.00 13.99 Z" />
<path fill="#000000" opacity="1.00" d=" M 6.00 24.00 C 7.50 24.00 10.50 24.00 12.00 24.00 C 12.00 25.50 12.00 28.50 12.00 30.00 C 10.50 30.00 7.50 30.00 6.00 30.00 C 6.00 28.50 6.00 25.50 6.00 24.00 Z" />
<path fill="#000000" opacity="1.00" d=" M 16.00 24.00 C 17.50 24.00 20.50 24.00 22.00 24.00 C 22.00 25.50 22.00 28.50 22.00 30.00 C 20.50 30.00 17.50 30.00 16.00 30.00 C 16.00 28.50 16.00 25.50 16.00 24.00 Z" />
<path fill="#000000" opacity="1.00" d=" M 26.00 24.00 C 27.50 24.00 30.50 24.00 32.00 24.00 C 32.00 25.50 32.00 28.50 32.00 30.00 C 30.50 30.00 27.50 30.00 26.00 30.00 C 26.00 28.50 26.00 25.50 26.00 24.00 Z" />
<path fill="#000000" opacity="1.00" d=" M 40.00 23.99 C 45.99 23.99 51.99 23.99 57.99 24.00 C 57.99 25.50 58.00 28.51 58.00 30.01 C 52.00 30.01 46.01 30.01 40.01 30.00 C 40.01 28.50 40.00 25.49 40.00 23.99 Z" />
<path fill="#000000" opacity="1.00" d=" M 6.00 34.00 C 7.50 34.00 10.50 34.00 12.00 34.00 C 12.00 35.50 12.00 38.50 12.00 40.00 C 10.50 40.00 7.50 40.00 6.00 40.00 C 6.00 38.50 6.00 35.50 6.00 34.00 Z" />
<path fill="#000000" opacity="1.00" d=" M 16.00 34.00 C 17.50 34.00 20.50 34.00 22.00 34.00 C 22.00 35.50 22.00 38.50 22.00 40.00 C 20.50 40.00 17.50 40.00 16.00 40.00 C 16.00 38.50 16.00 35.50 16.00 34.00 Z" />
<path fill="#000000" opacity="1.00" d=" M 26.00 34.00 C 27.50 34.00 30.50 34.00 32.00 34.00 C 32.00 35.50 32.00 38.50 32.00 40.00 C 30.50 40.00 27.50 40.00 26.00 40.00 C 26.00 38.50 26.00 35.50 26.00 34.00 Z" />
<path fill="#000000" opacity="1.00" d=" M 40.00 33.99 C 45.99 33.99 51.99 33.99 57.99 34.00 C 57.99 35.50 58.00 38.51 58.00 40.01 C 52.00 40.01 46.01 40.01 40.01 40.00 C 40.01 38.50 40.00 35.49 40.00 33.99 Z" />
<path fill="#000000" opacity="1.00" d=" M 6.00 44.00 C 7.50 44.00 10.50 44.00 12.00 44.00 C 12.00 45.50 12.00 48.50 12.00 50.00 C 10.50 50.00 7.50 50.00 6.00 50.00 C 6.00 48.50 6.00 45.50 6.00 44.00 Z" />
<path fill="#000000" opacity="1.00" d=" M 16.00 44.00 C 17.50 44.00 20.50 44.00 22.00 44.00 C 22.00 45.50 22.00 48.50 22.00 50.00 C 20.50 50.00 17.50 50.00 16.00 50.00 C 16.00 48.50 16.00 45.50 16.00 44.00 Z" />
<path fill="#000000" opacity="1.00" d=" M 26.00 44.00 C 27.50 44.00 30.50 44.00 32.00 44.00 C 32.00 45.50 32.00 48.50 32.00 50.00 C 30.50 50.00 27.50 50.00 26.00 50.00 C 26.00 48.50 26.00 45.50 26.00 44.00 Z" />
<path fill="#000000" opacity="1.00" d=" M 40.00 43.99 C 45.99 43.99 51.99 43.99 57.99 44.00 C 57.99 45.50 58.00 48.51 58.00 50.01 C 52.00 50.01 46.01 50.01 40.01 50.00 C 40.01 48.50 40.00 45.49 40.00 43.99 Z" />
</g>
</svg>
