<?xml version="1.0" encoding="UTF-8" ?>
<!DOCTYPE svg PUBLIC "-//W3C//DTD SVG 1.1//EN" "http://www.w3.org/Graphics/SVG/1.1/DTD/svg11.dtd">
<svg width="64pt" height="64pt" viewBox="0 0 64 64" version="1.1" xmlns="http://www.w3.org/2000/svg">
<g id="#ffffffff">
<path fill="#ffffff" opacity="1.00" d=" M 0.00 0.00 L 64.00 0.00 L 64.00 64.00 L 0.00 64.00 L 0.00 0.00 M 34.14 15.91 C 23.38 15.57 14.68 23.64 8.83 31.85 C 2.54 40.45 7.52 54.53 17.89 57.13 C 23.16 58.88 29.05 57.85 33.43 54.44 C 41.14 48.61 48.45 40.11 48.09 29.86 C 51.64 28.76 54.96 27.07 58.09 25.08 C 58.03 24.42 57.90 23.09 57.84 22.43 C 56.38 21.77 54.94 21.10 53.48 20.44 C 54.63 17.14 55.45 13.73 56.04 10.29 C 55.26 9.51 54.49 8.73 53.71 7.96 C 50.25 8.52 46.83 9.30 43.53 10.50 C 42.35 8.67 41.93 4.97 38.93 6.02 C 36.41 8.71 35.35 12.48 34.14 15.91 Z" />
<path fill="#ffffff" opacity="1.00" d=" M 39.74 12.06 C 41.16 14.74 42.52 17.44 43.89 20.14 C 46.56 21.44 49.24 22.73 51.90 24.06 C 50.16 24.73 48.41 25.36 46.61 25.83 C 43.89 22.95 41.09 20.14 38.19 17.44 C 38.57 15.61 39.13 13.82 39.74 12.06 Z" />
<path fill="#ffffff" opacity="1.00" d=" M 45.41 14.14 C 47.42 13.47 49.46 12.88 51.53 12.40 C 51.02 14.46 50.44 16.50 49.80 18.52 C 48.82 18.05 47.84 17.59 46.86 17.13 C 46.38 16.13 45.90 15.13 45.41 14.14 Z" />
<path fill="#ffffff" opacity="1.00" d=" M 34.02 19.70 C 35.98 20.48 37.52 22.03 38.30 23.98 C 36.87 24.00 35.43 24.01 34.00 24.00 C 33.99 22.57 34.00 21.13 34.02 19.70 Z" />
<path fill="#ffffff" opacity="1.00" d=" M 25.82 23.99 C 25.40 21.26 28.01 20.86 29.98 20.18 C 29.98 21.13 30.00 23.05 30.01 24.00 C 28.61 24.00 27.22 24.00 25.82 23.99 Z" />
<path fill="#ffffff" opacity="1.00" d=" M 34.00 27.99 C 36.92 27.82 40.05 28.61 42.80 27.32 C 43.11 27.76 43.74 28.64 44.05 29.08 C 44.62 35.76 40.85 41.77 36.47 46.46 C 33.65 49.34 30.36 51.88 26.61 53.42 C 23.10 54.78 19.42 53.28 15.95 52.56 C 16.44 52.39 17.42 52.05 17.91 51.88 C 18.12 49.26 17.98 46.63 17.99 44.00 C 20.66 44.00 23.33 44.00 26.00 44.00 C 26.00 41.33 26.00 38.67 26.00 36.00 C 28.67 36.00 31.33 36.00 34.00 36.00 C 34.00 33.33 34.00 30.66 34.00 27.99 Z" />
<path fill="#ffffff" opacity="1.00" d=" M 18.00 28.00 C 19.33 28.00 20.67 28.00 22.00 28.00 C 22.00 29.33 22.00 30.67 22.00 32.00 C 20.67 32.00 19.33 32.00 18.00 32.00 C 18.00 30.67 18.00 29.33 18.00 28.00 Z" />
<path fill="#ffffff" opacity="1.00" d=" M 26.00 28.00 C 27.33 28.00 28.67 28.00 30.00 28.00 C 30.00 29.33 30.00 30.67 30.00 32.00 C 28.67 32.00 27.33 32.00 26.00 32.00 C 26.00 30.67 26.00 29.33 26.00 28.00 Z" />
<path fill="#ffffff" opacity="1.00" d=" M 11.20 36.03 C 11.90 36.02 13.30 36.00 14.00 35.99 C 14.00 37.33 14.00 38.67 14.00 40.02 C 12.62 40.00 11.23 39.97 9.85 39.95 C 10.30 38.64 10.75 37.34 11.20 36.03 Z" />
<path fill="#ffffff" opacity="1.00" d=" M 18.00 36.00 C 19.33 36.00 20.67 36.00 22.00 36.00 C 22.00 37.33 22.00 38.67 22.00 40.00 C 20.67 40.00 19.33 40.00 18.00 40.00 C 18.00 38.67 18.00 37.33 18.00 36.00 Z" />
<path fill="#ffffff" opacity="1.00" d=" M 10.41 44.03 C 11.31 44.02 13.10 44.00 14.00 43.99 C 14.00 45.38 14.00 46.77 13.99 48.16 C 11.42 48.58 11.22 45.75 10.41 44.03 Z" />
</g>
<g id="#000000ff">
<path fill="#000000" opacity="1.00" d=" M 34.14 15.91 C 35.35 12.48 36.41 8.71 38.93 6.02 C 41.93 4.97 42.35 8.67 43.53 10.50 C 46.83 9.30 50.25 8.52 53.71 7.96 C 54.49 8.73 55.26 9.51 56.04 10.29 C 55.45 13.73 54.63 17.14 53.48 20.44 C 54.94 21.10 56.38 21.77 57.84 22.43 C 57.90 23.09 58.03 24.42 58.09 25.08 C 54.96 27.07 51.64 28.76 48.09 29.86 C 48.45 40.11 41.14 48.61 33.43 54.44 C 29.05 57.85 23.16 58.88 17.89 57.13 C 7.52 54.53 2.54 40.45 8.83 31.85 C 14.68 23.64 23.38 15.57 34.14 15.91 M 39.74 12.06 C 39.13 13.82 38.57 15.61 38.19 17.44 C 41.09 20.14 43.89 22.95 46.61 25.83 C 48.41 25.36 50.16 24.73 51.90 24.06 C 49.24 22.73 46.56 21.44 43.89 20.14 C 42.52 17.44 41.16 14.74 39.74 12.06 M 45.41 14.14 C 45.90 15.13 46.38 16.13 46.86 17.13 C 47.84 17.59 48.82 18.05 49.80 18.52 C 50.44 16.50 51.02 14.46 51.53 12.40 C 49.46 12.88 47.42 13.47 45.41 14.14 M 34.02 19.70 C 34.00 21.13 33.99 22.57 34.00 24.00 C 35.43 24.01 36.87 24.00 38.30 23.98 C 37.52 22.03 35.98 20.48 34.02 19.70 M 25.82 23.99 C 27.22 24.00 28.61 24.00 30.01 24.00 C 30.00 23.05 29.98 21.13 29.98 20.18 C 28.01 20.86 25.40 21.26 25.82 23.99 M 34.00 27.99 C 34.00 30.66 34.00 33.33 34.00 36.00 C 31.33 36.00 28.67 36.00 26.00 36.00 C 26.00 38.67 26.00 41.33 26.00 44.00 C 23.33 44.00 20.66 44.00 17.99 44.00 C 17.98 46.63 18.12 49.26 17.91 51.88 C 17.42 52.05 16.44 52.39 15.95 52.56 C 19.42 53.28 23.10 54.78 26.61 53.42 C 30.36 51.88 33.65 49.34 36.47 46.46 C 40.85 41.77 44.62 35.76 44.05 29.08 C 43.74 28.64 43.11 27.76 42.80 27.32 C 40.05 28.61 36.92 27.82 34.00 27.99 M 18.00 28.00 C 18.00 29.33 18.00 30.67 18.00 32.00 C 19.33 32.00 20.67 32.00 22.00 32.00 C 22.00 30.67 22.00 29.33 22.00 28.00 C 20.67 28.00 19.33 28.00 18.00 28.00 M 26.00 28.00 C 26.00 29.33 26.00 30.67 26.00 32.00 C 27.33 32.00 28.67 32.00 30.00 32.00 C 30.00 30.67 30.00 29.33 30.00 28.00 C 28.67 28.00 27.33 28.00 26.00 28.00 M 11.20 36.03 C 10.75 37.34 10.30 38.64 9.85 39.95 C 11.23 39.97 12.62 40.00 14.00 40.02 C 14.00 38.67 14.00 37.33 14.00 35.99 C 13.30 36.00 11.90 36.02 11.20 36.03 M 18.00 36.00 C 18.00 37.33 18.00 38.67 18.00 40.00 C 19.33 40.00 20.67 40.00 22.00 40.00 C 22.00 38.67 22.00 37.33 22.00 36.00 C 20.67 36.00 19.33 36.00 18.00 36.00 M 10.41 44.03 C 11.22 45.75 11.42 48.58 13.99 48.16 C 14.00 46.77 14.00 45.38 14.00 43.99 C 13.10 44.00 11.31 44.02 10.41 44.03 Z" />
</g>
</svg>
