<?xml version="1.0" encoding="UTF-8" ?>
<!DOCTYPE svg PUBLIC "-//W3C//DTD SVG 1.1//EN" "http://www.w3.org/Graphics/SVG/1.1/DTD/svg11.dtd">
<svg width="60pt" height="60pt" viewBox="0 0 60 60" version="1.1" xmlns="http://www.w3.org/2000/svg">
<g id="#ffffffff">
<path fill="#ffffff" opacity="1.00" d=" M 0.00 0.00 L 60.00 0.00 L 60.00 60.00 L 0.00 60.00 L 0.00 0.00 M 20.62 10.60 C 17.86 13.63 18.27 17.89 17.43 21.61 C 15.15 27.42 10.75 32.04 6.64 36.61 C 5.29 37.76 6.26 39.97 7.94 40.05 C 9.72 39.69 10.66 37.88 11.95 36.80 C 12.40 41.73 14.51 46.65 18.52 49.71 C 15.83 49.68 14.98 53.84 17.96 53.93 C 26.24 53.99 34.56 54.20 42.82 53.82 C 45.11 52.71 43.61 49.91 41.54 49.65 C 45.56 46.61 47.43 41.69 48.18 36.87 C 49.59 38.00 50.63 40.50 52.82 39.89 C 54.08 39.30 54.39 37.52 53.35 36.58 C 49.67 32.60 46.01 28.51 43.44 23.69 C 41.23 19.82 42.74 14.78 39.82 11.18 C 35.65 4.64 25.18 4.36 20.62 10.60 Z" />
<path fill="#ffffff" opacity="1.00" d=" M 24.44 12.73 C 26.14 11.51 28.23 12.17 30.00 12.82 C 32.10 11.87 34.83 11.59 36.51 13.48 C 38.60 16.18 37.74 19.86 38.68 22.97 C 39.43 27.69 43.06 32.02 41.59 36.96 C 40.21 42.89 33.81 47.02 27.83 45.77 C 21.95 44.81 17.33 38.87 18.13 32.91 C 19.21 28.72 21.35 24.82 21.76 20.45 C 22.16 17.80 21.79 14.32 24.44 12.73 M 25.17 16.17 C 22.80 17.15 24.47 20.94 26.83 19.86 C 29.19 18.84 27.52 15.03 25.17 16.17 M 33.24 16.17 C 30.74 16.96 32.49 21.04 34.77 19.81 C 37.23 18.99 35.51 15.00 33.24 16.17 M 26.00 25.00 C 27.33 26.00 28.67 27.00 30.00 28.00 C 31.33 27.00 32.67 26.00 34.00 25.00 C 32.66 24.00 31.33 23.00 30.00 22.00 C 28.67 23.00 27.33 24.00 26.00 25.00 Z" />
</g>
<g id="#000000ff">
<path fill="#968176" opacity="1.00" d=" M 20.62 10.60 C 25.18 4.36 35.65 4.64 39.82 11.18 C 42.74 14.78 41.23 19.82 43.44 23.69 C 46.01 28.51 49.67 32.60 53.35 36.58 C 54.39 37.52 54.08 39.30 52.82 39.89 C 50.63 40.50 49.59 38.00 48.18 36.87 C 47.43 41.69 45.56 46.61 41.54 49.65 C 43.61 49.91 45.11 52.71 42.82 53.82 C 34.56 54.20 26.24 53.99 17.96 53.93 C 14.98 53.84 15.83 49.68 18.52 49.71 C 14.51 46.65 12.40 41.73 11.95 36.80 C 10.66 37.88 9.72 39.69 7.94 40.05 C 6.26 39.97 5.29 37.76 6.64 36.61 C 10.75 32.04 15.15 27.42 17.43 21.61 C 18.27 17.89 17.86 13.63 20.62 10.60 M 24.44 12.73 C 21.79 14.32 22.16 17.80 21.76 20.45 C 21.35 24.82 19.21 28.72 18.13 32.91 C 17.33 38.87 21.95 44.81 27.83 45.77 C 33.81 47.02 40.21 42.89 41.59 36.96 C 43.06 32.02 39.43 27.69 38.68 22.97 C 37.74 19.86 38.60 16.18 36.51 13.48 C 34.83 11.59 32.10 11.87 30.00 12.82 C 28.23 12.17 26.14 11.51 24.44 12.73 Z" />
<path fill="#968176" opacity="1.00" d=" M 25.17 16.17 C 27.52 15.03 29.19 18.84 26.83 19.86 C 24.47 20.94 22.80 17.15 25.17 16.17 Z" />
<path fill="#968176" opacity="1.00" d=" M 33.24 16.17 C 35.51 15.00 37.23 18.99 34.77 19.81 C 32.49 21.04 30.74 16.96 33.24 16.17 Z" />
<path fill="#968176" opacity="1.00" d=" M 26.00 25.00 C 27.33 24.00 28.67 23.00 30.00 22.00 C 31.33 23.00 32.66 24.00 34.00 25.00 C 32.67 26.00 31.33 27.00 30.00 28.00 C 28.67 27.00 27.33 26.00 26.00 25.00 Z" />
</g>
</svg>
