<?xml version="1.0" encoding="UTF-8" ?>
<!DOCTYPE svg PUBLIC "-//W3C//DTD SVG 1.1//EN" "http://www.w3.org/Graphics/SVG/1.1/DTD/svg11.dtd">
<svg width="64pt" height="64pt" viewBox="0 0 64 64" version="1.1" xmlns="http://www.w3.org/2000/svg">
<g id="#ffffffff">
<path fill="#ffffff" opacity="1.00" d=" M 0.00 0.00 L 64.00 0.00 L 64.00 64.00 L 0.00 64.00 L 0.00 0.00 M 10.01 6.00 C 10.00 23.33 10.00 40.67 10.00 58.00 C 23.33 58.00 36.66 58.00 50.00 58.00 C 50.10 49.65 49.83 41.30 50.06 32.96 C 50.01 29.76 53.72 28.10 53.92 24.98 C 54.22 18.66 53.90 12.33 53.99 6.00 C 39.33 6.00 24.67 6.00 10.01 6.00 Z" />
<path fill="#ffffff" opacity="1.00" d=" M 14.00 10.00 C 23.34 10.00 32.67 9.99 42.01 10.01 C 42.08 15.00 41.78 20.00 42.08 24.98 C 42.29 28.10 46.01 29.75 45.95 32.96 C 46.18 39.97 45.91 46.99 46.00 54.00 C 35.33 54.00 24.67 54.00 14.00 54.00 C 14.00 39.33 14.00 24.67 14.00 10.00 M 21.18 34.04 C 18.93 35.36 20.30 38.61 22.82 37.96 C 25.05 36.67 23.69 33.34 21.18 34.04 M 37.25 34.18 C 35.30 34.77 35.99 37.00 37.16 38.02 C 38.29 38.07 39.23 37.67 39.98 36.82 C 40.26 35.23 38.99 33.32 37.25 34.18 M 25.38 40.18 C 26.64 41.67 27.75 44.02 30.00 44.01 C 32.26 44.04 33.29 41.60 34.64 40.19 C 31.55 40.02 28.46 40.00 25.38 40.18 Z" />
<path fill="#ffffff" opacity="1.00" d=" M 46.01 10.00 C 47.34 10.00 48.66 10.00 49.99 10.00 C 50.00 15.23 50.08 20.47 49.85 25.70 C 49.39 26.03 48.46 26.70 48.00 27.03 C 47.53 26.70 46.61 26.03 46.15 25.69 C 45.92 20.46 46.00 15.23 46.01 10.00 Z" />
</g>
<g id="#000000ff">
<path fill="#000000" opacity="1.00" d=" M 10.01 6.00 C 24.67 6.00 39.33 6.00 53.99 6.00 C 53.90 12.33 54.22 18.66 53.92 24.98 C 53.72 28.10 50.01 29.76 50.06 32.96 C 49.83 41.30 50.10 49.65 50.00 58.00 C 36.66 58.00 23.33 58.00 10.00 58.00 C 10.00 40.67 10.00 23.33 10.01 6.00 M 14.00 10.00 C 14.00 24.67 14.00 39.33 14.00 54.00 C 24.67 54.00 35.33 54.00 46.00 54.00 C 45.91 46.99 46.18 39.97 45.95 32.96 C 46.01 29.75 42.29 28.10 42.08 24.98 C 41.78 20.00 42.08 15.00 42.01 10.01 C 32.67 9.99 23.34 10.00 14.00 10.00 M 46.01 10.00 C 46.00 15.23 45.92 20.46 46.15 25.69 C 46.61 26.03 47.53 26.70 48.00 27.03 C 48.46 26.70 49.39 26.03 49.85 25.70 C 50.08 20.47 50.00 15.23 49.99 10.00 C 48.66 10.00 47.34 10.00 46.01 10.00 Z" />
<path fill="#000000" opacity="1.00" d=" M 21.18 34.04 C 23.69 33.34 25.05 36.67 22.82 37.96 C 20.30 38.61 18.93 35.36 21.18 34.04 Z" />
<path fill="#000000" opacity="1.00" d=" M 37.25 34.18 C 38.99 33.32 40.26 35.23 39.98 36.82 C 39.23 37.67 38.29 38.07 37.16 38.02 C 35.99 37.00 35.30 34.77 37.25 34.18 Z" />
<path fill="#000000" opacity="1.00" d=" M 25.38 40.18 C 28.46 40.00 31.55 40.02 34.64 40.19 C 33.29 41.60 32.26 44.04 30.00 44.01 C 27.75 44.02 26.64 41.67 25.38 40.18 Z" />
</g>
</svg>
