<?xml version="1.0" encoding="UTF-8" ?>
<!DOCTYPE svg PUBLIC "-//W3C//DTD SVG 1.1//EN" "http://www.w3.org/Graphics/SVG/1.1/DTD/svg11.dtd">
<svg width="64pt" height="64pt" viewBox="0 0 64 64" version="1.1" xmlns="http://www.w3.org/2000/svg">
<g id="#ffffffff">
<path fill="#ffffff" opacity="1.00" d=" M 0.00 0.00 L 64.00 0.00 L 64.00 64.00 L 0.00 64.00 L 0.00 0.00 M 10.00 7.98 C 10.00 16.65 10.00 25.33 10.00 34.01 C 13.10 36.78 16.21 39.54 19.31 42.31 C 15.55 46.21 11.77 50.09 8.00 53.99 C 16.65 54.01 25.29 53.99 33.94 54.00 C 36.73 50.91 39.47 47.78 42.27 44.69 C 46.20 48.46 50.12 52.23 54.00 56.05 C 54.00 47.38 54.00 38.71 54.00 30.04 C 50.89 27.27 47.80 24.47 44.69 21.70 C 48.44 17.78 52.20 13.88 55.99 10.00 C 47.35 10.00 38.71 10.00 30.06 10.00 C 27.27 13.10 24.49 16.22 21.69 19.31 C 17.80 15.52 13.84 11.82 10.00 7.98 Z" />
<path fill="#ffffff" opacity="1.00" d=" M 32.52 14.07 C 37.20 13.94 41.89 14.01 46.57 14.01 C 41.93 18.71 37.48 23.60 32.73 28.19 C 31.78 23.54 31.95 18.76 32.52 14.07 Z" />
<path fill="#ffffff" opacity="1.00" d=" M 14.00 17.45 C 18.71 22.05 23.63 26.44 28.15 31.22 C 23.50 32.14 18.75 32.02 14.07 31.47 C 13.94 26.79 14.01 22.12 14.00 17.45 Z" />
<path fill="#ffffff" opacity="1.00" d=" M 24.72 21.92 C 25.82 20.66 26.92 19.41 28.02 18.15 C 28.02 20.47 28.07 22.79 28.16 25.11 C 27.01 24.05 25.87 22.98 24.72 21.92 Z" />
<path fill="#ffffff" opacity="1.00" d=" M 38.49 28.36 C 39.70 27.18 40.91 25.98 42.11 24.78 C 43.32 25.82 44.53 26.86 45.76 27.89 C 43.33 28.00 40.90 28.12 38.49 28.36 Z" />
<path fill="#ffffff" opacity="1.00" d=" M 35.87 32.80 C 40.54 31.86 45.34 31.80 50.03 32.63 C 49.97 37.29 50.01 41.96 49.99 46.62 C 45.30 42.00 40.46 37.53 35.87 32.80 Z" />
<path fill="#ffffff" opacity="1.00" d=" M 18.09 35.83 C 20.57 35.58 23.58 36.67 25.63 34.86 C 25.10 36.78 23.09 37.80 21.86 39.24 C 20.61 38.10 19.35 36.96 18.09 35.83 Z" />
<path fill="#ffffff" opacity="1.00" d=" M 17.40 49.99 C 22.03 45.27 26.52 40.41 31.27 35.81 C 32.22 40.47 32.07 45.26 31.44 49.96 C 26.76 50.04 22.08 50.00 17.40 49.99 Z" />
<path fill="#ffffff" opacity="1.00" d=" M 35.85 38.84 C 37.00 39.92 38.13 41.01 39.28 42.10 C 38.18 43.35 37.08 44.60 35.98 45.85 C 35.98 43.51 35.94 41.18 35.85 38.84 Z" />
</g>
<g id="#000000ff">
<path fill="#000000" opacity="1.00" d=" M 10.00 7.98 C 13.84 11.82 17.80 15.52 21.69 19.31 C 24.49 16.22 27.27 13.10 30.06 10.00 C 38.71 10.00 47.35 10.00 55.99 10.00 C 52.20 13.88 48.44 17.78 44.69 21.70 C 47.80 24.47 50.89 27.27 54.00 30.04 C 54.00 38.71 54.00 47.38 54.00 56.05 C 50.12 52.23 46.20 48.46 42.27 44.69 C 39.47 47.78 36.73 50.91 33.94 54.00 C 25.29 53.99 16.65 54.01 8.00 53.99 C 11.77 50.09 15.55 46.21 19.31 42.31 C 16.21 39.54 13.10 36.78 10.00 34.01 C 10.00 25.33 10.00 16.65 10.00 7.98 M 32.52 14.07 C 31.95 18.76 31.78 23.54 32.73 28.19 C 37.48 23.60 41.93 18.71 46.57 14.01 C 41.89 14.01 37.20 13.94 32.52 14.07 M 14.00 17.45 C 14.01 22.12 13.94 26.79 14.07 31.47 C 18.75 32.02 23.50 32.14 28.15 31.22 C 23.63 26.44 18.71 22.05 14.00 17.45 M 24.72 21.92 C 25.87 22.98 27.01 24.05 28.16 25.11 C 28.07 22.79 28.02 20.47 28.02 18.15 C 26.92 19.41 25.82 20.66 24.72 21.92 M 38.49 28.36 C 40.90 28.12 43.33 28.00 45.76 27.89 C 44.53 26.86 43.32 25.82 42.11 24.78 C 40.91 25.98 39.70 27.18 38.49 28.36 M 35.87 32.80 C 40.46 37.53 45.30 42.00 49.99 46.62 C 50.01 41.96 49.97 37.29 50.03 32.63 C 45.34 31.80 40.54 31.86 35.87 32.80 M 18.09 35.83 C 19.35 36.96 20.61 38.10 21.86 39.24 C 23.09 37.80 25.10 36.78 25.63 34.86 C 23.58 36.67 20.57 35.58 18.09 35.83 M 17.40 49.99 C 22.08 50.00 26.76 50.04 31.44 49.96 C 32.07 45.26 32.22 40.47 31.27 35.81 C 26.52 40.41 22.03 45.27 17.40 49.99 M 35.85 38.84 C 35.94 41.18 35.98 43.51 35.98 45.85 C 37.08 44.60 38.18 43.35 39.28 42.10 C 38.13 41.01 37.00 39.92 35.85 38.84 Z" />
</g>
</svg>
