<?xml version="1.0" encoding="UTF-8" ?>
<!DOCTYPE svg PUBLIC "-//W3C//DTD SVG 1.1//EN" "http://www.w3.org/Graphics/SVG/1.1/DTD/svg11.dtd">
<svg width="60pt" height="60pt" viewBox="0 0 60 60" version="1.1" xmlns="http://www.w3.org/2000/svg">
<g id="#ffffffff">
<path fill="#ffffff" opacity="1.00" d=" M 0.00 0.00 L 60.00 0.00 L 60.00 60.00 L 0.00 60.00 L 0.00 0.00 M 26.17 5.14 C 25.81 10.09 26.00 15.08 26.05 20.04 C 25.87 22.82 28.22 24.58 30.00 26.29 C 31.78 24.59 34.12 22.83 33.95 20.06 C 33.99 15.08 34.20 10.06 33.81 5.09 C 32.06 3.36 27.85 3.31 26.17 5.14 M 16.18 9.11 C 15.82 12.75 15.97 16.42 16.05 20.07 C 15.89 22.84 18.22 24.59 20.01 26.29 C 21.78 24.59 24.10 22.84 23.94 20.09 C 24.03 16.44 24.18 12.76 23.81 9.12 C 22.10 7.34 17.91 7.34 16.18 9.11 M 36.18 9.09 C 35.82 12.75 35.97 16.45 36.06 20.13 C 35.92 22.87 38.24 24.60 40.00 26.29 C 41.48 24.76 43.57 23.41 43.84 21.11 C 44.12 17.12 44.15 13.07 43.81 9.08 C 42.03 7.36 37.95 7.35 36.18 9.09 M 6.19 13.11 C 5.85 15.80 5.88 18.55 6.18 21.24 C 6.51 23.47 8.55 24.78 10.00 26.29 C 11.47 24.77 13.52 23.44 13.83 21.18 C 14.11 18.51 14.15 15.78 13.82 13.12 C 13.07 11.68 11.34 12.06 10.03 11.96 C 8.70 12.09 6.92 11.64 6.19 13.11 M 47.08 12.18 C 45.13 13.78 46.27 16.79 45.99 19.00 C 45.55 22.15 47.81 24.45 50.00 26.29 C 51.48 24.76 53.55 23.41 53.84 21.12 C 54.12 18.45 54.15 15.72 53.81 13.05 C 52.18 11.18 49.25 12.13 47.08 12.18 M 8.32 28.38 C 7.03 29.04 6.01 30.38 6.05 31.88 C 5.95 37.30 5.94 42.73 6.06 48.15 C 5.96 50.72 8.68 52.34 11.02 52.00 C 24.34 51.90 37.69 52.22 51.00 51.84 C 55.87 50.08 53.42 43.79 54.00 39.92 C 53.44 36.09 55.84 29.76 50.95 28.15 C 38.66 27.78 26.34 28.13 14.04 27.98 C 12.14 28.07 10.15 27.75 8.32 28.38 Z" />
<path fill="#ffffff" opacity="1.00" d=" M 27.78 6.17 C 29.11 6.10 30.44 6.03 31.78 5.97 C 31.77 6.51 31.76 7.58 31.75 8.12 C 30.12 7.96 27.90 8.46 27.78 6.17 Z" />
<path fill="#ffffff" opacity="1.00" d=" M 18.20 9.98 C 19.55 10.04 20.90 10.11 22.25 10.18 C 22.08 12.44 19.87 11.95 18.25 12.13 C 18.24 11.59 18.21 10.51 18.20 9.98 Z" />
<path fill="#ffffff" opacity="1.00" d=" M 37.79 10.12 C 39.26 10.10 40.73 10.10 42.20 10.12 C 42.32 12.86 37.68 12.84 37.79 10.12 Z" />
<path fill="#ffffff" opacity="1.00" d=" M 7.81 15.92 C 7.82 13.26 10.40 14.14 12.15 14.07 C 12.19 16.76 9.57 15.84 7.81 15.92 Z" />
<path fill="#ffffff" opacity="1.00" d=" M 48.19 13.99 C 49.51 14.03 50.83 14.08 52.16 14.14 C 52.15 16.48 49.88 15.96 48.25 16.12 C 48.24 15.59 48.21 14.52 48.19 13.99 Z" />
<path fill="#ffffff" opacity="1.00" d=" M 10.00 38.00 C 11.32 38.00 12.65 38.00 13.97 38.00 C 13.99 39.98 14.02 41.95 14.11 43.93 C 15.37 43.93 16.63 43.92 17.89 43.91 C 17.98 41.94 18.01 39.97 18.02 38.00 C 18.51 38.00 19.49 38.00 19.97 38.00 C 19.99 39.98 20.02 41.95 20.11 43.93 C 21.37 43.93 22.63 43.92 23.89 43.91 C 23.98 41.94 24.01 39.97 24.02 38.00 C 26.01 38.00 27.99 38.00 29.97 38.00 C 29.99 39.98 30.02 41.96 30.12 43.93 C 31.38 43.93 32.64 43.92 33.90 43.91 C 33.98 41.94 34.01 39.97 34.02 38.00 C 34.51 38.00 35.49 38.00 35.98 38.00 C 35.99 39.97 36.02 41.94 36.10 43.91 C 37.36 43.92 38.63 43.92 39.89 43.92 C 39.98 41.95 40.01 39.97 40.02 38.00 C 40.51 38.00 41.48 38.00 41.97 38.00 C 41.99 39.98 42.03 41.96 42.13 43.94 C 43.38 43.94 44.64 43.92 45.89 43.91 C 45.98 41.94 46.01 39.97 46.02 38.00 C 47.35 38.00 48.67 38.00 50.00 38.00 C 50.00 41.33 50.00 44.67 50.00 48.00 C 36.67 48.00 23.33 48.00 10.00 48.00 C 10.00 44.67 10.00 41.33 10.00 38.00 Z" />
</g>
<g id="#000000ff">
<path fill="#968176" opacity="1.00" d=" M 26.17 5.14 C 27.85 3.31 32.06 3.36 33.81 5.09 C 34.20 10.06 33.99 15.08 33.95 20.06 C 34.12 22.83 31.78 24.59 30.00 26.29 C 28.22 24.58 25.87 22.82 26.05 20.04 C 26.00 15.08 25.81 10.09 26.17 5.14 M 27.78 6.17 C 27.90 8.46 30.12 7.96 31.75 8.12 C 31.76 7.58 31.77 6.51 31.78 5.97 C 30.44 6.03 29.11 6.10 27.78 6.17 Z" />
<path fill="#968176" opacity="1.00" d=" M 16.18 9.11 C 17.91 7.34 22.10 7.34 23.81 9.12 C 24.18 12.76 24.03 16.44 23.94 20.09 C 24.10 22.84 21.78 24.59 20.01 26.29 C 18.22 24.59 15.89 22.84 16.05 20.07 C 15.97 16.42 15.82 12.75 16.18 9.11 M 18.20 9.98 C 18.21 10.51 18.24 11.59 18.25 12.13 C 19.87 11.95 22.08 12.44 22.25 10.18 C 20.90 10.11 19.55 10.04 18.20 9.98 Z" />
<path fill="#968176" opacity="1.00" d=" M 36.18 9.09 C 37.95 7.35 42.03 7.36 43.81 9.08 C 44.15 13.07 44.12 17.12 43.84 21.11 C 43.57 23.41 41.48 24.76 40.00 26.29 C 38.24 24.60 35.92 22.87 36.06 20.13 C 35.97 16.45 35.82 12.75 36.18 9.09 M 37.79 10.12 C 37.68 12.84 42.32 12.86 42.20 10.12 C 40.73 10.10 39.26 10.10 37.79 10.12 Z" />
<path fill="#968176" opacity="1.00" d=" M 6.19 13.11 C 6.92 11.64 8.70 12.09 10.03 11.96 C 11.34 12.06 13.07 11.68 13.82 13.12 C 14.15 15.78 14.11 18.51 13.83 21.18 C 13.52 23.44 11.47 24.77 10.00 26.29 C 8.55 24.78 6.51 23.47 6.18 21.24 C 5.88 18.55 5.85 15.80 6.19 13.11 M 7.81 15.92 C 9.57 15.84 12.19 16.76 12.15 14.07 C 10.40 14.14 7.82 13.26 7.81 15.92 Z" />
<path fill="#968176" opacity="1.00" d=" M 47.08 12.18 C 49.25 12.13 52.18 11.18 53.81 13.05 C 54.15 15.72 54.12 18.45 53.84 21.12 C 53.55 23.41 51.48 24.76 50.00 26.29 C 47.81 24.45 45.55 22.15 45.99 19.00 C 46.27 16.79 45.13 13.78 47.08 12.18 M 48.19 13.99 C 48.21 14.52 48.24 15.59 48.25 16.12 C 49.88 15.96 52.15 16.48 52.16 14.14 C 50.83 14.08 49.51 14.03 48.19 13.99 Z" />
<path fill="#968176" opacity="1.00" d=" M 8.32 28.38 C 10.15 27.75 12.14 28.07 14.04 27.98 C 26.34 28.13 38.66 27.78 50.95 28.15 C 55.84 29.76 53.44 36.09 54.00 39.92 C 53.42 43.79 55.87 50.08 51.00 51.84 C 37.69 52.22 24.34 51.90 11.02 52.00 C 8.68 52.34 5.96 50.72 6.06 48.15 C 5.94 42.73 5.95 37.30 6.05 31.88 C 6.01 30.38 7.03 29.04 8.32 28.38 M 10.00 38.00 C 10.00 41.33 10.00 44.67 10.00 48.00 C 23.33 48.00 36.67 48.00 50.00 48.00 C 50.00 44.67 50.00 41.33 50.00 38.00 C 48.67 38.00 47.35 38.00 46.02 38.00 C 46.01 39.97 45.98 41.94 45.89 43.91 C 44.64 43.92 43.38 43.94 42.13 43.94 C 42.03 41.96 41.99 39.98 41.97 38.00 C 41.48 38.00 40.51 38.00 40.02 38.00 C 40.01 39.97 39.98 41.95 39.89 43.92 C 38.63 43.92 37.36 43.92 36.10 43.91 C 36.02 41.94 35.99 39.97 35.98 38.00 C 35.49 38.00 34.51 38.00 34.02 38.00 C 34.01 39.97 33.98 41.94 33.90 43.91 C 32.64 43.92 31.38 43.93 30.12 43.93 C 30.02 41.96 29.99 39.98 29.97 38.00 C 27.99 38.00 26.01 38.00 24.02 38.00 C 24.01 39.97 23.98 41.94 23.89 43.91 C 22.63 43.92 21.37 43.93 20.11 43.93 C 20.02 41.95 19.99 39.98 19.97 38.00 C 19.49 38.00 18.51 38.00 18.02 38.00 C 18.01 39.97 17.98 41.94 17.89 43.91 C 16.63 43.92 15.37 43.93 14.11 43.93 C 14.02 41.95 13.99 39.98 13.97 38.00 C 12.65 38.00 11.32 38.00 10.00 38.00 Z" />
</g>
</svg>
