<?xml version="1.0" encoding="UTF-8" ?>
<!DOCTYPE svg PUBLIC "-//W3C//DTD SVG 1.1//EN" "http://www.w3.org/Graphics/SVG/1.1/DTD/svg11.dtd">
<svg width="64pt" height="64pt" viewBox="0 0 64 64" version="1.1" xmlns="http://www.w3.org/2000/svg">
<g id="#ffffffff">
<path fill="#ffffff" opacity="1.00" d=" M 0.00 0.00 L 64.00 0.00 L 64.00 64.00 L 0.00 64.00 L 0.00 0.00 M 10.72 3.19 C 9.58 12.20 7.49 21.05 6.22 30.04 C 5.06 35.16 8.18 39.53 10.23 43.88 C 7.48 43.96 4.73 44.04 1.98 44.11 C 2.00 45.25 2.03 46.39 2.06 47.52 C 6.99 48.35 12.12 48.78 16.71 50.90 C 22.39 53.48 28.28 57.17 34.87 55.69 C 39.17 54.57 43.01 52.32 47.00 50.45 C 51.43 47.57 56.95 48.12 61.96 47.40 C 61.98 46.29 62.00 45.19 62.01 44.08 C 59.26 43.99 56.50 43.90 53.75 43.82 C 55.84 39.51 58.96 35.16 57.82 30.05 C 56.19 21.06 54.18 12.13 53.10 3.04 C 51.11 3.60 47.13 4.73 45.14 5.29 C 42.88 8.12 40.79 11.08 38.85 14.14 C 35.37 13.96 28.40 13.62 24.92 13.44 C 21.29 8.63 17.12 4.03 10.72 3.19 M 11.97 52.28 C 11.99 53.51 12.00 54.74 12.01 55.97 C 13.28 56.01 14.56 56.05 15.83 56.09 C 16.11 54.36 16.41 52.63 16.71 50.90 C 15.13 51.36 13.55 51.82 11.97 52.28 M 47.00 50.45 C 47.42 52.34 47.83 54.23 48.23 56.12 C 49.48 56.06 50.73 56.01 51.98 55.96 C 52.00 54.76 52.01 53.57 52.03 52.37 C 50.35 51.74 48.67 51.10 47.00 50.45 M 8.00 56.01 C 8.00 57.34 8.00 58.67 8.00 60.00 C 9.33 60.00 10.66 60.00 12.00 60.00 C 12.00 58.66 12.01 57.31 12.01 55.97 C 10.68 55.98 9.34 55.99 8.00 56.01 M 51.98 55.96 C 51.99 57.31 52.00 58.65 52.00 60.00 C 53.34 60.00 54.67 60.00 56.00 60.00 C 56.00 58.67 56.00 57.34 56.00 56.01 C 54.66 55.99 53.32 55.98 51.98 55.96 Z" />
<path fill="#ffffff" opacity="1.00" d=" M 14.78 7.72 C 16.97 12.31 18.72 17.10 20.78 21.74 C 23.70 20.81 26.26 19.02 29.05 17.79 C 29.83 19.34 30.60 20.90 31.41 22.44 C 33.57 20.79 35.71 19.13 37.98 17.63 C 39.47 19.23 40.87 20.93 42.62 22.24 C 44.18 17.12 46.54 12.33 49.01 7.61 C 49.64 16.86 53.52 26.04 52.92 35.25 C 51.26 44.44 41.75 47.41 33.84 48.91 C 34.47 45.26 35.25 41.65 36.07 38.05 C 33.34 38.04 30.61 38.03 27.88 38.03 C 28.62 41.57 29.37 45.10 30.05 48.64 C 25.12 47.46 19.79 46.94 15.74 43.54 C 13.67 39.51 11.53 35.41 10.54 30.95 C 11.25 23.09 13.84 15.56 14.78 7.72 M 15.15 26.46 C 17.36 29.28 19.75 31.96 22.03 34.72 C 24.30 31.92 26.67 29.20 28.79 26.28 C 24.24 26.31 19.69 26.37 15.15 26.46 M 35.15 26.46 C 37.36 29.28 39.75 31.96 42.03 34.72 C 44.30 31.92 46.67 29.20 48.79 26.28 C 44.24 26.31 39.69 26.37 35.15 26.46 Z" />
</g>
<g id="#000000ff">
<path fill="#000000" opacity="1.00" d=" M 10.72 3.19 C 17.12 4.03 21.29 8.63 24.92 13.44 C 28.40 13.62 35.37 13.96 38.85 14.14 C 40.79 11.08 42.88 8.12 45.14 5.29 C 47.13 4.73 51.11 3.60 53.10 3.04 C 54.18 12.13 56.19 21.06 57.82 30.05 C 58.96 35.16 55.84 39.51 53.75 43.82 C 56.50 43.90 59.26 43.99 62.01 44.08 C 62.00 45.19 61.98 46.29 61.96 47.40 C 56.95 48.12 51.43 47.57 47.00 50.45 C 43.01 52.32 39.17 54.57 34.87 55.69 C 28.28 57.17 22.39 53.48 16.71 50.90 C 12.12 48.78 6.99 48.35 2.06 47.52 C 2.03 46.39 2.00 45.25 1.98 44.11 C 4.73 44.04 7.48 43.96 10.23 43.88 C 8.18 39.53 5.06 35.16 6.22 30.04 C 7.49 21.05 9.58 12.20 10.72 3.19 M 14.78 7.72 C 13.84 15.56 11.25 23.09 10.54 30.95 C 11.53 35.41 13.67 39.51 15.74 43.54 C 19.79 46.94 25.12 47.46 30.05 48.64 C 29.37 45.10 28.62 41.57 27.88 38.03 C 30.61 38.03 33.34 38.04 36.07 38.05 C 35.25 41.65 34.47 45.26 33.84 48.91 C 41.75 47.41 51.26 44.44 52.92 35.25 C 53.52 26.04 49.64 16.86 49.01 7.61 C 46.54 12.33 44.18 17.12 42.62 22.24 C 40.87 20.93 39.47 19.23 37.98 17.63 C 35.71 19.13 33.57 20.79 31.41 22.44 C 30.60 20.90 29.83 19.34 29.05 17.79 C 26.26 19.02 23.70 20.81 20.78 21.74 C 18.72 17.10 16.97 12.31 14.78 7.72 Z" />
<path fill="#000000" opacity="1.00" d=" M 15.15 26.46 C 19.69 26.37 24.24 26.31 28.79 26.28 C 26.67 29.20 24.30 31.92 22.03 34.72 C 19.75 31.96 17.36 29.28 15.15 26.46 Z" />
<path fill="#000000" opacity="1.00" d=" M 35.15 26.46 C 39.69 26.37 44.24 26.31 48.79 26.28 C 46.67 29.20 44.30 31.92 42.03 34.72 C 39.75 31.96 37.36 29.28 35.15 26.46 Z" />
<path fill="#000000" opacity="1.00" d=" M 11.97 52.28 C 13.55 51.82 15.13 51.36 16.71 50.90 C 16.41 52.63 16.11 54.36 15.83 56.09 C 14.56 56.05 13.28 56.01 12.01 55.97 C 12.00 54.74 11.99 53.51 11.97 52.28 Z" />
<path fill="#000000" opacity="1.00" d=" M 47.00 50.45 C 48.67 51.10 50.35 51.74 52.03 52.37 C 52.01 53.57 52.00 54.76 51.98 55.96 C 50.73 56.01 49.48 56.06 48.23 56.12 C 47.83 54.23 47.42 52.34 47.00 50.45 Z" />
<path fill="#000000" opacity="1.00" d=" M 8.00 56.01 C 9.34 55.99 10.68 55.98 12.01 55.97 C 12.01 57.31 12.00 58.66 12.00 60.00 C 10.66 60.00 9.33 60.00 8.00 60.00 C 8.00 58.67 8.00 57.34 8.00 56.01 Z" />
<path fill="#000000" opacity="1.00" d=" M 51.98 55.96 C 53.32 55.98 54.66 55.99 56.00 56.01 C 56.00 57.34 56.00 58.67 56.00 60.00 C 54.67 60.00 53.34 60.00 52.00 60.00 C 52.00 58.65 51.99 57.31 51.98 55.96 Z" />
</g>
</svg>
