<?xml version="1.0" encoding="UTF-8" ?>
<!DOCTYPE svg PUBLIC "-//W3C//DTD SVG 1.1//EN" "http://www.w3.org/Graphics/SVG/1.1/DTD/svg11.dtd">
<svg width="60pt" height="60pt" viewBox="0 0 60 60" version="1.1" xmlns="http://www.w3.org/2000/svg">
<g id="#ffffffff">
<path fill="#ffffff" opacity="1.00" d=" M 0.00 0.00 L 60.00 0.00 L 60.00 60.00 L 0.00 60.00 L 0.00 0.00 M 25.45 4.66 C 17.25 6.88 11.95 16.38 14.72 24.49 C 16.84 31.04 23.29 34.58 26.87 40.15 C 28.13 41.87 27.41 44.55 29.20 45.91 C 32.41 46.69 31.88 42.61 32.81 40.74 C 35.38 36.16 40.01 33.23 42.97 28.95 C 46.30 24.56 46.94 18.34 44.53 13.38 C 41.44 6.29 32.85 2.27 25.45 4.66 M 5.45 42.51 C 3.14 44.80 3.88 48.74 6.46 50.50 C 12.07 54.52 19.26 55.33 25.96 55.86 C 34.67 56.18 43.86 55.72 51.76 51.69 C 54.87 50.29 57.48 46.19 54.99 43.09 C 51.70 38.97 46.11 37.96 41.23 36.90 C 40.10 38.07 38.98 39.25 37.84 40.42 C 42.44 41.21 47.42 41.82 51.23 44.75 C 53.36 46.50 50.11 48.17 48.67 48.81 C 39.79 52.44 29.83 52.45 20.44 51.31 C 15.94 50.46 10.83 49.70 7.65 46.05 C 11.15 41.80 17.13 41.38 22.16 40.41 C 21.02 39.25 19.89 38.07 18.77 36.89 C 14.07 37.89 8.90 38.90 5.45 42.51 Z" />
<path fill="#ffffff" opacity="1.00" d=" M 28.38 16.37 C 32.96 13.98 36.41 21.76 31.63 23.62 C 27.03 26.01 23.57 18.24 28.38 16.37 Z" />
</g>
<g id="#000000ff">
<path fill="#000000" opacity="1.00" d=" M 25.45 4.66 C 32.85 2.27 41.44 6.29 44.53 13.38 C 46.94 18.34 46.30 24.56 42.97 28.95 C 40.01 33.23 35.38 36.16 32.81 40.74 C 31.88 42.61 32.41 46.69 29.20 45.91 C 27.41 44.55 28.13 41.87 26.87 40.15 C 23.29 34.58 16.84 31.04 14.72 24.49 C 11.95 16.38 17.25 6.88 25.45 4.66 M 28.38 16.37 C 23.57 18.24 27.03 26.01 31.63 23.62 C 36.41 21.76 32.96 13.98 28.38 16.37 Z" />
<path fill="#000000" opacity="1.00" d=" M 5.45 42.51 C 8.90 38.90 14.07 37.89 18.77 36.89 C 19.89 38.07 21.02 39.25 22.16 40.41 C 17.13 41.38 11.15 41.80 7.65 46.05 C 10.83 49.70 15.94 50.46 20.44 51.31 C 29.83 52.45 39.79 52.44 48.67 48.81 C 50.11 48.17 53.36 46.50 51.23 44.75 C 47.42 41.82 42.44 41.21 37.84 40.42 C 38.98 39.25 40.10 38.07 41.23 36.90 C 46.11 37.96 51.70 38.97 54.99 43.09 C 57.48 46.19 54.87 50.29 51.76 51.69 C 43.86 55.72 34.67 56.18 25.96 55.86 C 19.26 55.33 12.07 54.52 6.46 50.50 C 3.88 48.74 3.14 44.80 5.45 42.51 Z" />
</g>
</svg>
