<?xml version="1.0" encoding="UTF-8" ?>
<!DOCTYPE svg PUBLIC "-//W3C//DTD SVG 1.1//EN" "http://www.w3.org/Graphics/SVG/1.1/DTD/svg11.dtd">
<svg width="64pt" height="64pt" viewBox="0 0 64 64" version="1.1" xmlns="http://www.w3.org/2000/svg">
<g id="#ffffffff">
<path fill="#ffffff" opacity="1.00" d=" M 0.00 0.00 L 64.00 0.00 L 64.00 64.00 L 0.00 64.00 L 0.00 0.00 M 41.97 8.00 C 41.99 9.46 42.03 10.93 42.09 12.39 C 39.84 13.71 38.34 11.57 36.89 10.17 C 35.98 11.08 35.08 11.98 34.18 12.88 C 35.14 14.30 37.86 15.51 36.56 17.53 C 35.25 18.39 33.49 17.84 32.00 18.07 C 32.00 19.36 32.00 20.64 32.00 21.92 C 33.51 22.12 35.19 21.70 36.58 22.43 C 37.83 24.48 35.17 25.69 34.18 27.12 C 35.08 28.02 35.99 28.92 36.89 29.83 C 38.31 28.84 39.52 26.17 41.57 27.42 C 42.29 28.81 41.89 30.49 42.08 32.00 C 43.36 32.00 44.64 32.00 45.92 32.00 C 46.02 29.98 45.40 27.02 48.27 26.90 C 49.18 27.91 50.10 28.91 51.03 29.91 C 51.98 28.96 52.93 28.01 53.89 27.07 C 52.89 26.07 51.89 25.07 50.89 24.07 C 51.11 23.55 51.55 22.50 51.77 21.97 C 53.18 21.99 54.59 22.00 56.00 22.01 C 56.00 20.70 56.00 19.39 56.00 18.07 C 53.98 17.97 51.47 18.54 50.69 16.09 C 51.75 15.03 52.83 14.00 53.89 12.94 C 52.97 12.02 52.04 11.09 51.12 10.17 C 50.10 11.12 49.13 12.15 48.01 12.99 C 45.19 13.07 46.19 9.78 45.93 8.00 C 44.61 8.00 43.29 8.00 41.97 8.00 M 7.61 33.91 C 9.07 39.01 10.83 44.42 14.90 48.07 C 18.00 50.71 22.52 50.27 25.82 48.24 C 24.92 47.26 24.01 46.28 23.09 45.31 C 21.36 45.71 19.26 46.60 17.71 45.23 C 14.91 42.86 13.71 39.24 12.40 35.94 C 16.26 34.42 20.91 32.96 24.78 35.24 C 26.92 36.33 27.69 38.70 28.26 40.86 C 25.19 38.95 22.03 37.17 18.64 35.88 C 18.25 37.16 17.85 38.44 17.45 39.72 C 21.67 41.41 26.12 43.50 28.66 47.46 C 30.34 49.97 29.93 53.13 30.05 56.00 C 31.27 56.00 32.49 56.00 33.71 56.00 C 34.80 50.18 40.57 47.30 45.36 44.87 C 44.86 43.66 44.36 42.46 43.87 41.25 C 42.45 41.90 41.03 42.55 39.60 43.15 C 41.35 38.06 47.36 39.82 51.03 41.47 C 49.62 43.49 48.48 45.82 46.50 47.37 C 44.24 48.06 41.92 48.63 39.97 50.06 C 42.32 52.39 46.10 52.71 48.76 50.71 C 52.35 47.89 54.43 43.67 56.74 39.84 C 51.95 36.94 45.95 34.06 40.38 36.53 C 36.92 38.04 35.52 42.02 36.08 45.56 C 35.18 46.38 34.27 47.20 33.37 48.02 C 32.74 46.75 32.07 45.50 31.36 44.28 C 33.15 39.46 31.06 33.77 26.40 31.52 C 20.30 28.36 13.20 30.79 7.61 33.91 Z" />
<path fill="#ffffff" opacity="1.00" d=" M 42.28 16.37 C 44.80 15.06 48.14 17.17 48.00 20.01 C 48.15 23.10 44.21 25.16 41.74 23.31 C 39.21 21.76 39.54 17.51 42.28 16.37 Z" />
</g>
<g id="#000000ff">
<path fill="#000000" opacity="1.00" d=" M 41.97 8.00 C 43.29 8.00 44.61 8.00 45.93 8.00 C 46.19 9.78 45.19 13.07 48.01 12.99 C 49.13 12.15 50.10 11.12 51.12 10.17 C 52.04 11.09 52.97 12.02 53.89 12.94 C 52.83 14.00 51.75 15.03 50.69 16.09 C 51.47 18.54 53.98 17.97 56.00 18.07 C 56.00 19.39 56.00 20.70 56.00 22.01 C 54.59 22.00 53.18 21.99 51.77 21.97 C 51.55 22.50 51.11 23.55 50.89 24.07 C 51.89 25.07 52.89 26.07 53.89 27.07 C 52.93 28.01 51.98 28.96 51.03 29.91 C 50.10 28.91 49.18 27.91 48.27 26.90 C 45.40 27.02 46.02 29.98 45.92 32.00 C 44.64 32.00 43.36 32.00 42.08 32.00 C 41.89 30.49 42.29 28.81 41.57 27.42 C 39.52 26.17 38.31 28.84 36.89 29.83 C 35.99 28.92 35.08 28.02 34.18 27.12 C 35.17 25.69 37.83 24.48 36.58 22.43 C 35.19 21.70 33.51 22.12 32.00 21.92 C 32.00 20.64 32.00 19.36 32.00 18.07 C 33.49 17.84 35.25 18.39 36.56 17.53 C 37.86 15.51 35.14 14.30 34.18 12.88 C 35.08 11.98 35.98 11.08 36.89 10.17 C 38.34 11.57 39.84 13.71 42.09 12.39 C 42.03 10.93 41.99 9.46 41.97 8.00 M 42.28 16.37 C 39.54 17.51 39.21 21.76 41.74 23.31 C 44.21 25.16 48.15 23.10 48.00 20.01 C 48.14 17.17 44.80 15.06 42.28 16.37 Z" />
<path fill="#000000" opacity="1.00" d=" M 7.61 33.91 C 13.20 30.79 20.30 28.36 26.40 31.52 C 31.06 33.77 33.15 39.46 31.36 44.28 C 32.07 45.50 32.74 46.75 33.37 48.02 C 34.27 47.20 35.18 46.38 36.08 45.56 C 35.52 42.02 36.92 38.04 40.38 36.53 C 45.95 34.06 51.95 36.94 56.74 39.84 C 54.43 43.67 52.35 47.89 48.76 50.71 C 46.10 52.71 42.32 52.39 39.97 50.06 C 41.92 48.63 44.24 48.06 46.50 47.37 C 48.48 45.82 49.62 43.49 51.03 41.47 C 47.36 39.82 41.35 38.06 39.60 43.15 C 41.03 42.55 42.45 41.90 43.87 41.25 C 44.36 42.46 44.86 43.66 45.36 44.87 C 40.57 47.30 34.80 50.18 33.71 56.00 C 32.49 56.00 31.27 56.00 30.05 56.00 C 29.93 53.13 30.34 49.97 28.66 47.46 C 26.12 43.50 21.67 41.41 17.45 39.72 C 17.85 38.44 18.25 37.16 18.64 35.88 C 22.03 37.17 25.19 38.95 28.26 40.86 C 27.69 38.70 26.92 36.33 24.78 35.24 C 20.91 32.96 16.26 34.42 12.40 35.94 C 13.71 39.24 14.91 42.86 17.71 45.23 C 19.26 46.60 21.36 45.71 23.09 45.31 C 24.01 46.28 24.92 47.26 25.82 48.24 C 22.52 50.27 18.00 50.71 14.90 48.07 C 10.83 44.42 9.07 39.01 7.61 33.91 Z" />
</g>
</svg>
