<?xml version="1.0" encoding="UTF-8" ?>
<!DOCTYPE svg PUBLIC "-//W3C//DTD SVG 1.1//EN" "http://www.w3.org/Graphics/SVG/1.1/DTD/svg11.dtd">
<svg width="60pt" height="60pt" viewBox="0 0 60 60" version="1.1" xmlns="http://www.w3.org/2000/svg">
<g id="#ffffffff">
<path fill="#ffffff" opacity="1.00" d=" M 0.00 0.00 L 60.00 0.00 L 60.00 60.00 L 0.00 60.00 L 0.00 0.00 M 13.86 5.98 C 11.94 5.99 10.02 6.02 8.11 6.10 C 8.02 8.02 8.00 9.93 7.98 11.85 C 6.62 13.21 5.29 14.59 4.01 16.02 C 4.66 16.72 5.30 17.42 5.95 18.12 C 7.37 18.18 8.80 18.25 10.22 18.33 C 9.64 15.27 10.35 11.82 12.92 9.84 C 16.50 6.69 22.70 7.81 24.92 12.03 C 26.46 14.51 26.10 17.56 24.95 20.11 C 28.31 21.95 29.84 17.76 32.00 15.99 C 30.71 14.58 29.38 13.20 28.02 11.86 C 28.01 9.94 27.98 8.03 27.90 6.12 C 25.99 6.02 24.09 5.99 22.18 5.98 C 20.82 4.62 19.43 3.29 18.00 2.00 C 16.59 3.30 15.21 4.63 13.86 5.98 M 35.15 23.18 C 29.98 26.70 29.02 33.87 30.90 39.46 C 30.57 40.38 30.23 41.31 29.89 42.24 C 28.78 40.25 27.54 38.34 26.13 36.55 C 26.05 32.96 25.05 29.13 22.02 26.90 C 17.51 23.28 11.39 24.07 6.00 24.00 C 6.00 28.39 5.64 33.08 7.83 37.07 C 10.00 41.71 15.24 45.04 20.43 43.70 C 18.81 41.34 16.96 39.14 14.82 37.24 C 14.02 36.27 12.36 35.50 12.73 33.98 C 13.14 32.10 15.56 32.02 16.56 33.42 C 22.50 37.92 28.27 43.99 28.04 52.00 C 29.34 52.00 30.64 52.00 31.93 52.00 C 32.55 43.75 36.33 35.80 42.10 29.91 C 43.73 28.14 46.59 31.15 44.76 32.69 C 41.78 36.02 39.12 39.69 37.65 43.94 C 43.32 44.70 48.81 41.31 51.46 36.42 C 54.39 31.46 54.04 25.54 54.00 20.00 C 47.65 20.08 40.59 19.18 35.15 23.18 Z" />
</g>
<g id="#000000ff">
<path fill="#000000" opacity="1.00" d=" M 13.86 5.98 C 15.21 4.63 16.59 3.30 18.00 2.00 C 19.43 3.29 20.82 4.62 22.18 5.98 C 24.09 5.99 25.99 6.02 27.90 6.12 C 27.98 8.03 28.01 9.94 28.02 11.86 C 29.38 13.20 30.71 14.58 32.00 15.99 C 29.84 17.76 28.31 21.95 24.95 20.11 C 26.10 17.56 26.46 14.51 24.92 12.03 C 22.70 7.81 16.50 6.69 12.92 9.84 C 10.35 11.82 9.64 15.27 10.22 18.33 C 8.80 18.25 7.37 18.18 5.95 18.12 C 5.30 17.42 4.66 16.72 4.01 16.02 C 5.29 14.59 6.62 13.21 7.98 11.85 C 8.00 9.93 8.02 8.02 8.11 6.10 C 10.02 6.02 11.94 5.99 13.86 5.98 Z" />
<path fill="#000000" opacity="1.00" d=" M 35.15 23.18 C 40.59 19.18 47.65 20.08 54.00 20.00 C 54.04 25.54 54.39 31.46 51.46 36.42 C 48.81 41.31 43.32 44.70 37.65 43.94 C 39.12 39.69 41.78 36.02 44.76 32.69 C 46.59 31.15 43.73 28.14 42.10 29.91 C 36.33 35.80 32.55 43.75 31.93 52.00 C 30.64 52.00 29.34 52.00 28.04 52.00 C 28.27 43.99 22.50 37.92 16.56 33.42 C 15.56 32.02 13.14 32.10 12.73 33.98 C 12.36 35.50 14.02 36.27 14.82 37.24 C 16.96 39.14 18.81 41.34 20.43 43.70 C 15.24 45.04 10.00 41.71 7.83 37.07 C 5.64 33.08 6.00 28.39 6.00 24.00 C 11.39 24.07 17.51 23.28 22.02 26.90 C 25.05 29.13 26.05 32.96 26.13 36.55 C 27.54 38.34 28.78 40.25 29.89 42.24 C 30.23 41.31 30.57 40.38 30.90 39.46 C 29.02 33.87 29.98 26.70 35.15 23.18 Z" />
</g>
</svg>
