<?xml version="1.0" encoding="UTF-8" ?>
<!DOCTYPE svg PUBLIC "-//W3C//DTD SVG 1.1//EN" "http://www.w3.org/Graphics/SVG/1.1/DTD/svg11.dtd">
<svg width="60pt" height="60pt" viewBox="0 0 60 60" version="1.1" xmlns="http://www.w3.org/2000/svg">
<g id="#ffffffff">
<path fill="#ffffff" opacity="1.00" d=" M 0.00 0.00 L 60.00 0.00 L 60.00 60.00 L 0.00 60.00 L 0.00 0.00 M 10.33 8.38 C 8.60 9.15 7.88 11.08 8.00 12.87 C 7.99 24.28 7.99 35.69 8.00 47.10 C 7.67 49.49 9.38 52.02 11.94 51.94 C 23.65 52.09 35.38 51.96 47.09 52.00 C 49.45 52.29 52.01 50.61 51.94 48.07 C 52.12 37.38 51.91 26.69 52.03 16.00 C 51.89 13.91 52.41 11.54 51.23 9.68 C 49.60 7.31 46.37 8.17 43.94 7.97 C 32.75 8.30 21.45 7.46 10.33 8.38 Z" />
<path fill="#ffffff" opacity="1.00" d=" M 12.00 12.00 C 24.00 12.00 36.00 12.00 48.00 12.00 C 48.00 14.67 48.00 17.33 48.00 20.00 C 36.00 20.00 24.00 20.00 12.00 20.00 C 12.00 17.33 12.00 14.67 12.00 12.00 Z" />
<path fill="#ffffff" opacity="1.00" d=" M 21.18 26.08 C 23.62 25.14 25.14 28.86 22.78 29.90 C 20.35 30.82 18.89 27.18 21.18 26.08 Z" />
<path fill="#ffffff" opacity="1.00" d=" M 29.26 26.19 C 31.51 25.02 33.20 28.88 30.82 29.88 C 28.44 30.95 26.75 26.99 29.26 26.19 Z" />
<path fill="#ffffff" opacity="1.00" d=" M 37.28 26.18 C 39.50 24.98 41.24 29.03 38.77 29.80 C 36.47 31.08 34.72 26.87 37.28 26.18 Z" />
<path fill="#ffffff" opacity="1.00" d=" M 45.19 26.08 C 47.54 25.07 49.24 28.97 46.74 29.80 C 44.47 30.99 42.83 27.11 45.19 26.08 Z" />
<path fill="#ffffff" opacity="1.00" d=" M 36.39 33.48 C 39.58 31.25 42.90 36.59 39.62 38.50 C 36.44 40.78 33.08 35.39 36.39 33.48 Z" />
<path fill="#ffffff" opacity="1.00" d=" M 13.18 34.09 C 15.60 33.11 17.24 37.00 14.69 37.85 C 12.40 38.87 10.86 35.13 13.18 34.09 Z" />
<path fill="#ffffff" opacity="1.00" d=" M 21.15 34.12 C 23.59 33.10 25.18 36.87 22.76 37.90 C 20.36 38.80 18.90 35.21 21.15 34.12 Z" />
<path fill="#ffffff" opacity="1.00" d=" M 29.10 34.11 C 31.53 33.09 33.24 36.83 30.77 37.86 C 28.40 38.82 26.90 35.29 29.10 34.11 Z" />
<path fill="#ffffff" opacity="1.00" d=" M 45.27 34.16 C 47.59 33.11 49.15 36.87 46.83 37.88 C 44.44 38.96 42.76 34.99 45.27 34.16 Z" />
<path fill="#ffffff" opacity="1.00" d=" M 13.25 42.19 C 15.51 40.93 17.29 45.14 14.69 45.81 C 12.47 47.03 10.74 42.90 13.25 42.19 Z" />
<path fill="#ffffff" opacity="1.00" d=" M 21.22 42.08 C 23.56 41.11 25.20 44.90 22.78 45.80 C 20.47 47.01 18.79 43.08 21.22 42.08 Z" />
<path fill="#ffffff" opacity="1.00" d=" M 29.24 42.16 C 31.57 41.09 33.10 44.79 30.87 45.90 C 28.45 46.94 26.76 43.08 29.24 42.16 Z" />
<path fill="#ffffff" opacity="1.00" d=" M 37.24 42.20 C 39.48 40.94 41.28 45.03 38.75 45.81 C 36.48 47.05 34.74 42.92 37.24 42.20 Z" />
</g>
<g id="#000000ff">
<path fill="#000000" opacity="1.00" d=" M 10.33 8.38 C 21.45 7.46 32.75 8.30 43.94 7.97 C 46.37 8.17 49.60 7.31 51.23 9.68 C 52.41 11.54 51.89 13.91 52.03 16.00 C 51.91 26.69 52.12 37.38 51.94 48.07 C 52.01 50.61 49.45 52.29 47.09 52.00 C 35.38 51.96 23.65 52.09 11.94 51.94 C 9.38 52.02 7.67 49.49 8.00 47.10 C 7.99 35.69 7.99 24.28 8.00 12.87 C 7.88 11.08 8.60 9.15 10.33 8.38 M 12.00 12.00 C 12.00 14.67 12.00 17.33 12.00 20.00 C 24.00 20.00 36.00 20.00 48.00 20.00 C 48.00 17.33 48.00 14.67 48.00 12.00 C 36.00 12.00 24.00 12.00 12.00 12.00 M 21.18 26.08 C 18.89 27.18 20.35 30.82 22.78 29.90 C 25.14 28.86 23.62 25.14 21.18 26.08 M 29.26 26.19 C 26.75 26.99 28.44 30.95 30.82 29.88 C 33.20 28.88 31.51 25.02 29.26 26.19 M 37.28 26.18 C 34.72 26.87 36.47 31.08 38.77 29.80 C 41.24 29.03 39.50 24.98 37.28 26.18 M 45.19 26.08 C 42.83 27.11 44.47 30.99 46.74 29.80 C 49.24 28.97 47.54 25.07 45.19 26.08 M 36.39 33.48 C 33.08 35.39 36.44 40.78 39.62 38.50 C 42.90 36.59 39.58 31.25 36.39 33.48 M 13.18 34.09 C 10.86 35.13 12.40 38.87 14.69 37.85 C 17.24 37.00 15.60 33.11 13.18 34.09 M 21.15 34.12 C 18.90 35.21 20.36 38.80 22.76 37.90 C 25.18 36.87 23.59 33.10 21.15 34.12 M 29.10 34.11 C 26.90 35.29 28.40 38.82 30.77 37.86 C 33.24 36.83 31.53 33.09 29.10 34.11 M 45.27 34.16 C 42.76 34.99 44.44 38.96 46.83 37.88 C 49.15 36.87 47.59 33.11 45.27 34.16 M 13.25 42.19 C 10.74 42.90 12.47 47.03 14.69 45.81 C 17.29 45.14 15.51 40.93 13.25 42.19 M 21.22 42.08 C 18.79 43.08 20.47 47.01 22.78 45.80 C 25.20 44.90 23.56 41.11 21.22 42.08 M 29.24 42.16 C 26.76 43.08 28.45 46.94 30.87 45.90 C 33.10 44.79 31.57 41.09 29.24 42.16 M 37.24 42.20 C 34.74 42.92 36.48 47.05 38.75 45.81 C 41.28 45.03 39.48 40.94 37.24 42.20 Z" />
</g>
</svg>
