<?xml version="1.0" encoding="UTF-8" ?>
<!DOCTYPE svg PUBLIC "-//W3C//DTD SVG 1.1//EN" "http://www.w3.org/Graphics/SVG/1.1/DTD/svg11.dtd">
<svg width="64pt" height="64pt" viewBox="0 0 64 64" version="1.1" xmlns="http://www.w3.org/2000/svg">
<g id="#ffffffff">
<path fill="#ffffff" opacity="1.00" d=" M 0.00 0.00 L 64.00 0.00 L 64.00 64.00 L 0.00 64.00 L 0.00 0.00 M 23.92 12.94 C 19.70 16.40 16.07 22.63 19.26 27.90 C 17.28 31.65 18.17 35.99 17.98 40.05 C 17.84 42.12 18.34 44.12 19.19 45.99 C 17.68 49.25 17.52 53.11 18.56 56.52 C 20.47 60.69 26.15 60.82 29.62 58.61 C 32.87 56.50 35.74 60.21 39.03 60.02 C 41.82 60.30 44.76 58.68 45.65 55.96 C 46.36 52.66 46.28 49.08 44.80 46.00 C 46.66 42.28 45.85 38.03 46.02 34.03 C 46.17 31.89 45.66 29.82 44.74 27.91 C 47.92 22.63 44.30 16.41 40.09 12.94 C 39.89 10.73 40.28 8.21 38.75 6.37 C 36.27 3.14 31.59 3.82 28.06 4.33 C 24.36 5.44 23.69 9.62 23.92 12.94 Z" />
<path fill="#ffffff" opacity="1.00" d=" M 27.87 12.00 C 28.06 10.55 27.81 7.94 29.98 8.05 C 31.85 8.14 34.57 7.24 35.78 9.12 C 35.87 9.84 36.04 11.28 36.13 12.00 C 33.38 12.00 30.62 12.00 27.87 12.00 Z" />
<path fill="#ffffff" opacity="1.00" d=" M 22.35 25.57 C 21.18 21.94 23.86 17.98 26.86 16.10 C 30.43 16.01 34.13 15.65 37.65 16.30 C 40.27 18.50 42.85 22.08 41.65 25.65 C 39.18 26.39 36.54 25.90 34.00 25.99 C 34.00 27.32 34.00 28.66 34.00 30.00 C 36.43 30.03 38.87 30.02 41.30 29.88 C 42.50 34.28 42.23 39.14 41.56 43.59 C 39.22 44.51 36.49 43.82 34.00 43.99 C 34.00 45.33 34.00 46.67 34.00 48.01 C 36.52 48.12 39.16 47.59 41.59 48.36 C 42.22 50.46 42.15 52.70 41.83 54.84 C 40.05 57.29 36.47 55.66 34.62 54.04 C 32.87 53.99 31.12 53.99 29.37 54.04 C 27.53 55.66 23.98 57.27 22.17 54.87 C 21.86 52.71 21.77 50.46 22.42 48.36 C 24.85 47.59 27.49 48.12 30.00 48.01 C 29.99 46.67 29.99 45.33 30.00 43.99 C 27.51 43.80 24.73 44.56 22.41 43.55 C 21.70 39.27 21.75 34.70 22.39 30.41 C 24.79 29.52 27.49 30.15 30.00 30.01 C 29.99 28.67 29.99 27.33 30.00 25.99 C 27.48 25.82 24.73 26.51 22.35 25.57 Z" />
</g>
<g id="#000000ff">
<path fill="#000000" opacity="1.00" d=" M 23.92 12.94 C 23.69 9.62 24.36 5.44 28.06 4.33 C 31.59 3.82 36.27 3.14 38.75 6.37 C 40.28 8.21 39.89 10.73 40.09 12.94 C 44.30 16.41 47.92 22.63 44.74 27.91 C 45.66 29.82 46.17 31.89 46.02 34.03 C 45.85 38.03 46.66 42.28 44.80 46.00 C 46.28 49.08 46.36 52.66 45.65 55.96 C 44.76 58.68 41.82 60.30 39.03 60.02 C 35.74 60.21 32.87 56.50 29.62 58.61 C 26.15 60.82 20.47 60.69 18.56 56.52 C 17.52 53.11 17.68 49.25 19.19 45.99 C 18.34 44.12 17.84 42.12 17.98 40.05 C 18.17 35.99 17.28 31.65 19.26 27.90 C 16.07 22.63 19.70 16.40 23.92 12.94 M 27.87 12.00 C 30.62 12.00 33.38 12.00 36.13 12.00 C 36.04 11.28 35.87 9.84 35.78 9.12 C 34.57 7.24 31.85 8.14 29.98 8.05 C 27.81 7.94 28.06 10.55 27.87 12.00 M 22.35 25.57 C 24.73 26.51 27.48 25.82 30.00 25.99 C 29.99 27.33 29.99 28.67 30.00 30.01 C 27.49 30.15 24.79 29.52 22.39 30.41 C 21.75 34.70 21.70 39.27 22.41 43.55 C 24.73 44.56 27.51 43.80 30.00 43.99 C 29.99 45.33 29.99 46.67 30.00 48.01 C 27.49 48.12 24.85 47.59 22.42 48.36 C 21.77 50.46 21.86 52.71 22.17 54.87 C 23.98 57.27 27.53 55.66 29.37 54.04 C 31.12 53.99 32.87 53.99 34.62 54.04 C 36.47 55.66 40.05 57.29 41.83 54.84 C 42.15 52.70 42.22 50.46 41.59 48.36 C 39.16 47.59 36.52 48.12 34.00 48.01 C 34.00 46.67 34.00 45.33 34.00 43.99 C 36.49 43.82 39.22 44.51 41.56 43.59 C 42.23 39.14 42.50 34.28 41.30 29.88 C 38.87 30.02 36.43 30.03 34.00 30.00 C 34.00 28.66 34.00 27.32 34.00 25.99 C 36.54 25.90 39.18 26.39 41.65 25.65 C 42.85 22.08 40.27 18.50 37.65 16.30 C 34.13 15.65 30.43 16.01 26.86 16.10 C 23.86 17.98 21.18 21.94 22.35 25.57 Z" />
</g>
</svg>
