<?xml version="1.0" encoding="UTF-8" ?>
<!DOCTYPE svg PUBLIC "-//W3C//DTD SVG 1.1//EN" "http://www.w3.org/Graphics/SVG/1.1/DTD/svg11.dtd">
<svg width="60pt" height="60pt" viewBox="0 0 60 60" version="1.1" xmlns="http://www.w3.org/2000/svg">
<g id="#ffffffff">
<path fill="#ffffff" opacity="1.00" d=" M 0.00 0.00 L 60.00 0.00 L 60.00 60.00 L 0.00 60.00 L 0.00 0.00 M 6.00 12.00 C 6.00 16.00 6.00 20.00 6.00 24.00 C 12.67 24.00 19.33 24.00 26.00 24.00 C 26.00 20.00 26.00 16.00 26.00 12.00 C 22.67 10.00 19.33 8.00 16.00 6.00 C 12.67 8.00 9.33 10.00 6.00 12.00 M 6.00 28.00 C 6.00 34.69 6.01 41.39 5.98 48.08 C 6.09 49.44 5.72 51.17 7.22 51.91 C 8.46 52.28 10.08 51.50 9.91 50.05 C 10.14 42.71 9.92 35.35 10.00 28.00 C 8.67 28.00 7.33 28.00 6.00 28.00 M 14.00 28.00 C 14.00 29.33 14.00 30.67 14.00 32.00 C 16.67 31.99 19.33 32.01 22.00 32.00 C 22.00 33.33 22.00 34.67 22.00 36.00 C 19.33 35.99 16.67 36.01 14.00 36.00 C 14.00 37.33 14.00 38.67 14.00 40.00 C 16.67 39.99 19.33 40.01 22.00 40.00 C 22.00 41.33 22.00 42.67 22.00 44.00 C 19.33 43.99 16.67 44.01 14.00 44.00 C 14.00 45.33 14.00 46.67 14.00 48.00 C 16.62 47.99 19.24 48.01 21.87 48.00 C 22.15 49.35 21.73 51.10 23.19 51.90 C 24.41 52.28 26.10 51.52 25.91 50.06 C 26.15 42.71 25.92 35.35 26.00 28.00 C 22.00 28.00 18.00 28.00 14.00 28.00 M 30.01 27.90 C 30.00 29.89 30.01 31.87 30.00 33.85 C 32.05 34.26 34.31 34.59 35.76 36.28 C 39.17 40.05 40.00 45.63 44.05 48.92 C 46.79 51.32 50.53 51.83 54.03 52.07 C 54.02 50.43 54.04 48.79 53.84 47.16 C 52.61 45.54 50.00 46.11 48.64 44.58 C 44.93 40.38 43.71 34.31 39.08 30.85 C 36.52 28.74 33.20 28.21 30.01 27.90 Z" />
<path fill="#ffffff" opacity="1.00" d=" M 14.39 12.37 C 18.98 9.99 22.40 17.77 17.62 19.62 C 13.02 22.01 9.57 14.22 14.39 12.37 Z" />
</g>
<g id="#000000ff">
<path fill="#000000" opacity="1.00" d=" M 6.00 12.00 C 9.33 10.00 12.67 8.00 16.00 6.00 C 19.33 8.00 22.67 10.00 26.00 12.00 C 26.00 16.00 26.00 20.00 26.00 24.00 C 19.33 24.00 12.67 24.00 6.00 24.00 C 6.00 20.00 6.00 16.00 6.00 12.00 M 14.39 12.37 C 9.57 14.22 13.02 22.01 17.62 19.62 C 22.40 17.77 18.98 9.99 14.39 12.37 Z" />
<path fill="#000000" opacity="1.00" d=" M 6.00 28.00 C 7.33 28.00 8.67 28.00 10.00 28.00 C 9.92 35.35 10.14 42.71 9.91 50.05 C 10.08 51.50 8.46 52.28 7.22 51.91 C 5.72 51.17 6.09 49.44 5.98 48.08 C 6.01 41.39 6.00 34.69 6.00 28.00 Z" />
<path fill="#000000" opacity="1.00" d=" M 14.00 28.00 C 18.00 28.00 22.00 28.00 26.00 28.00 C 25.92 35.35 26.15 42.71 25.91 50.06 C 26.10 51.52 24.41 52.28 23.19 51.90 C 21.73 51.10 22.15 49.35 21.87 48.00 C 19.24 48.01 16.62 47.99 14.00 48.00 C 14.00 46.67 14.00 45.33 14.00 44.00 C 16.67 44.01 19.33 43.99 22.00 44.00 C 22.00 42.67 22.00 41.33 22.00 40.00 C 19.33 40.01 16.67 39.99 14.00 40.00 C 14.00 38.67 14.00 37.33 14.00 36.00 C 16.67 36.01 19.33 35.99 22.00 36.00 C 22.00 34.67 22.00 33.33 22.00 32.00 C 19.33 32.01 16.67 31.99 14.00 32.00 C 14.00 30.67 14.00 29.33 14.00 28.00 Z" />
<path fill="#000000" opacity="1.00" d=" M 30.01 27.90 C 33.20 28.21 36.52 28.74 39.08 30.85 C 43.71 34.31 44.93 40.38 48.64 44.58 C 50.00 46.11 52.61 45.54 53.84 47.16 C 54.04 48.79 54.02 50.43 54.03 52.07 C 50.53 51.83 46.79 51.32 44.05 48.92 C 40.00 45.63 39.17 40.05 35.76 36.28 C 34.31 34.59 32.05 34.26 30.00 33.85 C 30.01 31.87 30.00 29.89 30.01 27.90 Z" />
</g>
</svg>
