<?xml version="1.0" encoding="UTF-8" ?>
<!DOCTYPE svg PUBLIC "-//W3C//DTD SVG 1.1//EN" "http://www.w3.org/Graphics/SVG/1.1/DTD/svg11.dtd">
<svg width="64pt" height="64pt" viewBox="0 0 64 64" version="1.1" xmlns="http://www.w3.org/2000/svg">
<g id="#ffffffff">
<path fill="#ffffff" opacity="1.00" d=" M 0.00 0.00 L 64.00 0.00 L 64.00 64.00 L 0.00 64.00 L 0.00 0.00 M 28.03 3.79 C 28.02 5.10 28.01 6.40 28.00 7.71 C 30.23 8.53 31.31 10.60 32.18 12.65 C 25.85 10.64 18.71 13.80 15.35 19.37 C 8.80 30.46 11.87 47.15 23.45 53.68 C 29.29 57.16 37.05 56.56 42.44 52.46 C 52.32 45.19 54.42 30.51 49.34 19.81 C 46.93 14.72 41.41 11.63 35.82 11.93 C 35.00 7.97 32.26 4.34 28.03 3.79 Z" />
<path fill="#ffffff" opacity="1.00" d=" M 18.25 22.40 C 20.43 17.97 25.67 15.09 30.57 16.32 C 33.64 17.35 35.52 20.31 36.62 23.20 C 38.81 28.98 38.11 35.41 36.29 41.19 C 37.19 41.61 39.00 42.47 39.90 42.89 C 42.93 34.08 43.26 23.11 36.64 15.81 C 41.01 15.86 44.88 18.70 46.32 22.81 C 49.71 31.65 48.14 43.31 40.16 49.20 C 35.66 52.69 29.05 52.89 24.40 49.60 C 15.80 43.87 13.86 31.32 18.25 22.40 Z" />
</g>
<g id="#000000ff">
<path fill="#000000" opacity="1.00" d=" M 28.03 3.79 C 32.26 4.34 35.00 7.97 35.82 11.93 C 41.41 11.63 46.93 14.72 49.34 19.81 C 54.42 30.51 52.32 45.19 42.44 52.46 C 37.05 56.56 29.29 57.16 23.45 53.68 C 11.87 47.15 8.80 30.46 15.35 19.37 C 18.71 13.80 25.85 10.64 32.18 12.65 C 31.31 10.60 30.23 8.53 28.00 7.71 C 28.01 6.40 28.02 5.10 28.03 3.79 M 18.25 22.40 C 13.86 31.32 15.80 43.87 24.40 49.60 C 29.05 52.89 35.66 52.69 40.16 49.20 C 48.14 43.31 49.71 31.65 46.32 22.81 C 44.88 18.70 41.01 15.86 36.64 15.81 C 43.26 23.11 42.93 34.08 39.90 42.89 C 39.00 42.47 37.19 41.61 36.29 41.19 C 38.11 35.41 38.81 28.98 36.62 23.20 C 35.52 20.31 33.64 17.35 30.57 16.32 C 25.67 15.09 20.43 17.97 18.25 22.40 Z" />
</g>
</svg>
