<?xml version="1.0" encoding="UTF-8" ?>
<!DOCTYPE svg PUBLIC "-//W3C//DTD SVG 1.1//EN" "http://www.w3.org/Graphics/SVG/1.1/DTD/svg11.dtd">
<svg width="60pt" height="60pt" viewBox="0 0 60 60" version="1.1" xmlns="http://www.w3.org/2000/svg">
<g id="#ffffffff">
<path fill="#ffffff" opacity="1.00" d=" M 0.00 0.00 L 27.44 0.00 C 26.34 0.58 25.89 1.48 26.10 2.71 C 27.89 4.16 29.92 5.52 30.30 8.00 C 31.60 7.98 32.90 7.97 34.21 7.97 C 33.75 4.56 32.03 1.27 28.64 0.00 L 60.00 0.00 L 60.00 60.00 L 0.00 60.00 L 0.00 0.00 M 9.08 21.21 C 5.67 32.10 10.66 44.71 20.21 50.78 C 24.37 53.53 29.71 54.92 34.55 53.25 C 48.56 48.65 56.22 30.63 49.55 17.42 C 46.87 11.90 41.18 8.15 35.05 7.87 C 40.96 15.40 41.17 26.05 37.83 34.71 C 37.14 37.18 33.13 35.68 34.19 33.37 C 36.45 26.50 37.08 18.38 33.04 12.03 C 31.39 9.31 28.27 7.43 25.02 8.07 C 17.64 8.63 11.20 14.20 9.08 21.21 Z" />
</g>
<g id="#000000ff">
<path fill="#000000" opacity="1.00" d=" M 27.44 0.00 L 28.64 0.00 C 32.03 1.27 33.75 4.56 34.21 7.97 C 32.90 7.97 31.60 7.98 30.30 8.00 C 29.92 5.52 27.89 4.16 26.10 2.71 C 25.89 1.48 26.34 0.58 27.44 0.00 Z" />
<path fill="#000000" opacity="1.00" d=" M 9.08 21.21 C 11.20 14.20 17.64 8.63 25.02 8.07 C 28.27 7.43 31.39 9.31 33.04 12.03 C 37.08 18.38 36.45 26.50 34.19 33.37 C 33.13 35.68 37.14 37.18 37.83 34.71 C 41.17 26.05 40.96 15.40 35.05 7.87 C 41.18 8.15 46.87 11.90 49.55 17.42 C 56.22 30.63 48.56 48.65 34.55 53.25 C 29.71 54.92 24.37 53.53 20.21 50.78 C 10.66 44.71 5.67 32.10 9.08 21.21 Z" />
</g>
</svg>
