<?xml version="1.0" encoding="UTF-8" ?>
<!DOCTYPE svg PUBLIC "-//W3C//DTD SVG 1.1//EN" "http://www.w3.org/Graphics/SVG/1.1/DTD/svg11.dtd">
<svg width="60pt" height="60pt" viewBox="0 0 60 60" version="1.1" xmlns="http://www.w3.org/2000/svg">
<g id="#ffffffff">
<path fill="#ffffff" opacity="1.00" d=" M 0.00 0.00 L 31.13 0.00 C 29.07 2.37 27.63 5.56 28.15 8.75 C 28.67 10.02 30.35 10.47 31.36 9.46 C 32.17 6.91 32.77 4.27 34.09 1.91 C 33.84 1.43 33.33 0.48 33.08 0.00 L 40.71 0.00 C 38.76 0.62 37.07 1.77 35.45 2.99 C 37.41 4.40 39.46 6.21 42.05 5.97 C 44.55 5.93 46.59 4.31 48.57 3.00 C 46.75 1.72 44.84 0.50 42.65 0.00 L 60.00 0.00 L 60.00 60.00 L 0.00 60.00 L 0.00 0.00 M 19.43 10.57 C 14.84 12.06 11.36 15.97 9.62 20.38 C 7.24 26.33 7.75 33.04 9.37 39.12 C 11.14 45.43 15.30 51.94 22.02 53.64 C 25.53 54.95 28.96 51.92 32.43 53.38 C 36.58 55.04 40.89 52.72 43.81 49.82 C 49.82 43.83 52.92 34.92 51.70 26.50 C 50.39 18.97 44.75 11.77 37.07 10.16 C 33.43 8.94 30.19 13.59 26.74 11.22 C 24.54 9.85 21.86 9.69 19.43 10.57 Z" />
<path fill="#ffffff" opacity="1.00" d=" M 22.33 20.10 C 23.24 17.90 27.06 19.78 25.72 21.87 C 22.77 28.77 23.76 37.00 27.72 43.30 C 29.01 45.49 25.07 47.18 24.14 44.84 C 19.52 37.72 18.44 27.76 22.33 20.10 Z" />
</g>
<g id="#000000ff">
<path fill="#000000" opacity="1.00" d=" M 31.13 0.00 L 33.08 0.00 C 33.33 0.48 33.84 1.43 34.09 1.91 C 32.77 4.27 32.17 6.91 31.36 9.46 C 30.35 10.47 28.67 10.02 28.15 8.75 C 27.63 5.56 29.07 2.37 31.13 0.00 Z" />
<path fill="#000000" opacity="1.00" d=" M 40.71 0.00 L 42.65 0.00 C 44.84 0.50 46.75 1.72 48.57 3.00 C 46.59 4.31 44.55 5.93 42.05 5.97 C 39.46 6.21 37.41 4.40 35.45 2.99 C 37.07 1.77 38.76 0.62 40.71 0.00 Z" />
<path fill="#000000" opacity="1.00" d=" M 19.43 10.57 C 21.86 9.69 24.54 9.85 26.74 11.22 C 30.19 13.59 33.43 8.94 37.07 10.16 C 44.75 11.77 50.39 18.97 51.70 26.50 C 52.92 34.92 49.82 43.83 43.81 49.82 C 40.89 52.72 36.58 55.04 32.43 53.38 C 28.96 51.92 25.53 54.95 22.02 53.64 C 15.30 51.94 11.14 45.43 9.37 39.12 C 7.75 33.04 7.24 26.33 9.62 20.38 C 11.36 15.97 14.84 12.06 19.43 10.57 M 22.33 20.10 C 18.44 27.76 19.52 37.72 24.14 44.84 C 25.07 47.18 29.01 45.49 27.72 43.30 C 23.76 37.00 22.77 28.77 25.72 21.87 C 27.06 19.78 23.24 17.90 22.33 20.10 Z" />
</g>
</svg>
