<?xml version="1.0" encoding="UTF-8" ?>
<!DOCTYPE svg PUBLIC "-//W3C//DTD SVG 1.1//EN" "http://www.w3.org/Graphics/SVG/1.1/DTD/svg11.dtd">
<svg width="60pt" height="60pt" viewBox="0 0 60 60" version="1.1" xmlns="http://www.w3.org/2000/svg">
<g id="#ffffffff">
<path fill="#ffffff" opacity="1.00" d=" M 0.00 0.00 L 60.00 0.00 L 60.00 60.00 L 0.00 60.00 L 0.00 0.00 M 10.40 8.40 C 7.68 9.28 8.09 12.67 7.96 14.92 C 8.12 25.94 7.81 36.97 8.09 47.98 C 7.88 50.70 10.51 52.21 12.94 51.98 C 24.62 51.98 36.31 52.14 47.98 51.90 C 50.67 52.08 52.22 49.48 51.97 47.06 C 52.04 35.69 52.03 24.31 51.97 12.95 C 52.21 10.51 50.70 7.87 47.98 8.09 C 39.00 7.78 30.00 8.14 21.01 7.98 C 17.48 8.06 13.88 7.63 10.40 8.40 Z" />
<path fill="#ffffff" opacity="1.00" d=" M 28.28 17.27 C 28.75 15.50 31.28 15.47 31.71 17.28 C 32.29 20.78 31.81 24.34 32.14 27.86 C 35.66 28.19 39.22 27.72 42.72 28.27 C 44.45 28.77 44.56 31.29 42.72 31.71 C 39.22 32.30 35.66 31.81 32.14 32.14 C 31.81 35.66 32.29 39.23 31.72 42.73 C 31.24 44.48 28.72 44.53 28.28 42.72 C 27.71 39.22 28.19 35.66 27.86 32.14 C 24.34 31.80 20.77 32.31 17.28 31.70 C 15.37 31.33 15.60 28.81 17.26 28.26 C 20.77 27.73 24.34 28.19 27.86 27.86 C 28.19 24.34 27.71 20.77 28.28 17.27 Z" />
</g>
<g id="#000000ff">
<path fill="#968176" opacity="1.00" d=" M 10.40 8.40 C 13.88 7.63 17.48 8.06 21.01 7.98 C 30.00 8.14 39.00 7.78 47.98 8.09 C 50.70 7.87 52.21 10.51 51.97 12.95 C 52.03 24.31 52.04 35.69 51.97 47.06 C 52.22 49.48 50.67 52.08 47.98 51.90 C 36.31 52.14 24.62 51.98 12.94 51.98 C 10.51 52.21 7.88 50.70 8.09 47.98 C 7.81 36.97 8.12 25.94 7.96 14.92 C 8.09 12.67 7.68 9.28 10.40 8.40 M 28.28 17.27 C 27.71 20.77 28.19 24.34 27.86 27.86 C 24.34 28.19 20.77 27.73 17.26 28.26 C 15.60 28.81 15.37 31.33 17.28 31.70 C 20.77 32.31 24.34 31.80 27.86 32.14 C 28.19 35.66 27.71 39.22 28.28 42.72 C 28.72 44.53 31.24 44.48 31.72 42.73 C 32.29 39.23 31.81 35.66 32.14 32.14 C 35.66 31.81 39.22 32.30 42.72 31.71 C 44.56 31.29 44.45 28.77 42.72 28.27 C 39.22 27.72 35.66 28.19 32.14 27.86 C 31.81 24.34 32.29 20.78 31.71 17.28 C 31.28 15.47 28.75 15.50 28.28 17.27 Z" />
</g>
</svg>
