<?xml version="1.0" encoding="UTF-8" ?>
<!DOCTYPE svg PUBLIC "-//W3C//DTD SVG 1.1//EN" "http://www.w3.org/Graphics/SVG/1.1/DTD/svg11.dtd">
<svg width="60pt" height="60pt" viewBox="0 0 60 60" version="1.1" xmlns="http://www.w3.org/2000/svg">
<g id="#ffffffff">
<path fill="#ffffff" opacity="1.00" d=" M 0.00 0.00 L 60.00 0.00 L 60.00 60.00 L 0.00 60.00 L 0.00 0.00 M 26.19 9.15 C 25.59 14.71 26.36 20.31 25.88 25.88 C 20.06 26.45 14.14 25.38 8.37 26.37 C 4.87 27.47 5.40 33.55 9.15 33.81 C 14.71 34.42 20.32 33.64 25.88 34.12 C 26.45 39.94 25.38 45.85 26.37 51.63 C 27.46 55.12 33.55 54.61 33.81 50.85 C 34.42 45.29 33.64 39.68 34.12 34.12 C 39.94 33.55 45.85 34.62 51.63 33.63 C 55.12 32.52 54.61 26.46 50.85 26.19 C 45.29 25.58 39.69 26.36 34.12 25.88 C 33.55 20.06 34.61 14.14 33.63 8.36 C 32.54 4.86 26.45 5.40 26.19 9.15 Z" />
</g>
<g id="#000000ff">
<path fill="#000000" opacity="1.00" d=" M 26.19 9.15 C 26.45 5.40 32.54 4.86 33.63 8.36 C 34.61 14.14 33.55 20.06 34.12 25.88 C 39.69 26.36 45.29 25.58 50.85 26.19 C 54.61 26.46 55.12 32.52 51.63 33.63 C 45.85 34.62 39.94 33.55 34.12 34.12 C 33.64 39.68 34.42 45.29 33.81 50.85 C 33.55 54.61 27.46 55.12 26.37 51.63 C 25.38 45.85 26.45 39.94 25.88 34.12 C 20.32 33.64 14.71 34.42 9.15 33.81 C 5.40 33.55 4.87 27.47 8.37 26.37 C 14.14 25.38 20.06 26.45 25.88 25.88 C 26.36 20.31 25.59 14.71 26.19 9.15 Z" />
</g>
</svg>
