<?xml version="1.0" encoding="UTF-8" ?>
<!DOCTYPE svg PUBLIC "-//W3C//DTD SVG 1.1//EN" "http://www.w3.org/Graphics/SVG/1.1/DTD/svg11.dtd">
<svg width="64pt" height="64pt" viewBox="0 0 64 64" version="1.1" xmlns="http://www.w3.org/2000/svg">
<g id="#ffffffff">
<path fill="#ffffff" opacity="1.00" d=" M 0.00 0.00 L 64.00 0.00 L 64.00 64.00 L 0.00 64.00 L 0.00 0.00 M 26.49 6.60 C 17.82 8.41 10.35 15.01 7.48 23.39 C 4.32 32.12 6.37 42.46 12.64 49.30 C 18.86 56.40 29.11 59.59 38.25 57.22 C 47.65 54.97 55.37 47.05 57.37 37.59 C 59.44 28.61 56.22 18.70 49.30 12.63 C 43.24 7.11 34.48 4.82 26.49 6.60 Z" />
<path fill="#ffffff" opacity="1.00" d=" M 26.47 10.70 C 34.78 8.47 44.20 11.65 49.39 18.52 C 56.12 26.87 55.31 40.08 47.58 47.52 C 41.19 54.10 30.56 55.89 22.37 51.78 C 14.26 47.94 9.10 38.80 10.12 29.86 C 10.85 20.88 17.72 12.84 26.47 10.70 M 30.00 20.00 C 30.00 23.33 30.00 26.67 30.00 30.00 C 26.67 30.00 23.33 30.00 20.00 30.00 C 20.00 31.33 20.00 32.67 20.00 34.00 C 23.33 34.00 26.67 34.00 30.00 34.00 C 30.00 37.33 30.00 40.67 30.00 44.00 C 31.33 44.00 32.67 44.00 34.00 44.00 C 34.00 40.67 34.00 37.33 34.00 34.00 C 37.33 34.00 40.67 34.00 44.00 34.00 C 44.00 32.67 44.00 31.33 44.00 30.00 C 40.67 30.00 37.33 30.00 34.00 30.00 C 34.00 26.67 34.00 23.33 34.00 20.00 C 32.67 20.00 31.33 20.00 30.00 20.00 Z" />
</g>
<g id="#000000ff">
<path fill="#000000" opacity="1.00" d=" M 26.49 6.60 C 34.48 4.82 43.24 7.11 49.30 12.63 C 56.22 18.70 59.44 28.61 57.37 37.59 C 55.37 47.05 47.65 54.97 38.25 57.22 C 29.11 59.59 18.86 56.40 12.64 49.30 C 6.37 42.46 4.32 32.12 7.48 23.39 C 10.35 15.01 17.82 8.41 26.49 6.60 M 26.47 10.70 C 17.72 12.84 10.85 20.88 10.12 29.86 C 9.10 38.80 14.26 47.94 22.37 51.78 C 30.56 55.89 41.19 54.10 47.58 47.52 C 55.31 40.08 56.12 26.87 49.39 18.52 C 44.20 11.65 34.78 8.47 26.47 10.70 Z" />
<path fill="#000000" opacity="1.00" d=" M 30.00 20.00 C 31.33 20.00 32.67 20.00 34.00 20.00 C 34.00 23.33 34.00 26.67 34.00 30.00 C 37.33 30.00 40.67 30.00 44.00 30.00 C 44.00 31.33 44.00 32.67 44.00 34.00 C 40.67 34.00 37.33 34.00 34.00 34.00 C 34.00 37.33 34.00 40.67 34.00 44.00 C 32.67 44.00 31.33 44.00 30.00 44.00 C 30.00 40.67 30.00 37.33 30.00 34.00 C 26.67 34.00 23.33 34.00 20.00 34.00 C 20.00 32.67 20.00 31.33 20.00 30.00 C 23.33 30.00 26.67 30.00 30.00 30.00 C 30.00 26.67 30.00 23.33 30.00 20.00 Z" />
</g>
</svg>
