<?xml version="1.0" encoding="UTF-8" ?>
<!DOCTYPE svg PUBLIC "-//W3C//DTD SVG 1.1//EN" "http://www.w3.org/Graphics/SVG/1.1/DTD/svg11.dtd">
<svg width="60pt" height="60pt" viewBox="0 0 60 60" version="1.1" xmlns="http://www.w3.org/2000/svg">
<g id="#ffffffff">
<path fill="#ffffff" opacity="1.00" d=" M 0.00 0.00 L 60.00 0.00 L 60.00 60.00 L 0.00 60.00 L 0.00 0.00 M 20.95 11.07 C 18.16 10.76 14.40 8.69 12.17 11.10 C 11.69 14.21 12.91 17.22 13.84 20.13 C 13.30 22.02 12.79 23.93 12.27 25.84 C 9.24 25.70 5.87 27.64 5.99 31.02 C 5.90 34.29 9.08 36.16 12.01 36.19 C 12.00 37.66 11.99 39.13 11.96 40.60 C 9.31 43.98 9.33 49.28 12.84 52.07 C 15.98 54.94 20.84 54.29 23.88 51.61 C 27.95 52.05 32.05 52.05 36.12 51.61 C 38.13 53.04 40.44 54.40 43.02 53.91 C 48.06 53.43 51.73 47.31 49.15 42.78 C 47.92 40.79 47.84 38.46 47.98 36.19 C 50.93 36.17 54.11 34.26 54.01 30.99 C 54.10 27.58 50.73 25.76 47.72 25.82 C 47.20 23.92 46.70 22.01 46.16 20.12 C 46.90 17.81 47.78 15.50 47.93 13.06 C 48.27 11.76 47.62 9.84 45.98 10.05 C 43.62 9.88 41.33 10.61 39.05 11.07 C 33.68 7.17 26.32 7.17 20.95 11.07 Z" />
<path fill="#ffffff" opacity="1.00" d=" M 20.37 20.37 C 24.94 17.99 28.40 25.71 23.66 27.60 C 19.08 30.06 15.54 22.25 20.37 20.37 Z" />
<path fill="#ffffff" opacity="1.00" d=" M 36.35 20.38 C 39.44 18.65 43.30 22.52 41.63 25.60 C 40.69 27.83 37.61 28.80 35.69 27.22 C 33.14 25.65 33.64 21.50 36.35 20.38 Z" />
<path fill="#ffffff" opacity="1.00" d=" M 28.20 28.22 C 30.14 27.76 34.49 27.89 33.83 30.78 C 31.68 32.32 28.41 32.51 26.32 30.78 C 25.10 29.52 27.18 28.45 28.20 28.22 Z" />
<path fill="#ffffff" opacity="1.00" d=" M 16.31 42.36 C 18.82 41.07 22.13 43.18 22.00 46.01 C 22.15 49.14 18.13 51.19 15.67 49.26 C 13.20 47.67 13.58 43.47 16.31 42.36 Z" />
<path fill="#ffffff" opacity="1.00" d=" M 40.30 42.36 C 42.80 41.07 46.10 43.15 46.00 45.97 C 46.18 49.12 42.13 51.21 39.66 49.25 C 37.20 47.65 37.58 43.48 40.30 42.36 Z" />
</g>
<g id="#000000ff">
<path fill="#000000" opacity="1.00" d=" M 20.95 11.07 C 26.32 7.17 33.68 7.17 39.05 11.07 C 41.33 10.61 43.62 9.88 45.98 10.05 C 47.62 9.84 48.27 11.76 47.93 13.06 C 47.78 15.50 46.90 17.81 46.16 20.12 C 46.70 22.01 47.20 23.92 47.72 25.82 C 50.73 25.76 54.10 27.58 54.01 30.99 C 54.11 34.26 50.93 36.17 47.98 36.19 C 47.84 38.46 47.92 40.79 49.15 42.78 C 51.73 47.31 48.06 53.43 43.02 53.91 C 40.44 54.40 38.13 53.04 36.12 51.61 C 32.05 52.05 27.95 52.05 23.88 51.61 C 20.84 54.29 15.98 54.94 12.84 52.07 C 9.33 49.28 9.31 43.98 11.96 40.60 C 11.99 39.13 12.00 37.66 12.01 36.19 C 9.08 36.16 5.90 34.29 5.99 31.02 C 5.87 27.64 9.24 25.70 12.27 25.84 C 12.79 23.93 13.30 22.02 13.84 20.13 C 12.91 17.22 11.69 14.21 12.17 11.10 C 14.40 8.69 18.16 10.76 20.95 11.07 M 20.37 20.37 C 15.54 22.25 19.08 30.06 23.66 27.60 C 28.40 25.71 24.94 17.99 20.37 20.37 M 36.35 20.38 C 33.64 21.50 33.14 25.65 35.69 27.22 C 37.61 28.80 40.69 27.83 41.63 25.60 C 43.30 22.52 39.44 18.65 36.35 20.38 M 28.20 28.22 C 27.18 28.45 25.10 29.52 26.32 30.78 C 28.41 32.51 31.68 32.32 33.83 30.78 C 34.49 27.89 30.14 27.76 28.20 28.22 M 16.31 42.36 C 13.58 43.47 13.20 47.67 15.67 49.26 C 18.13 51.19 22.15 49.14 22.00 46.01 C 22.13 43.18 18.82 41.07 16.31 42.36 M 40.30 42.36 C 37.58 43.48 37.20 47.65 39.66 49.25 C 42.13 51.21 46.18 49.12 46.00 45.97 C 46.10 43.15 42.80 41.07 40.30 42.36 Z" />
</g>
</svg>
