<?xml version="1.0" encoding="UTF-8" ?>
<!DOCTYPE svg PUBLIC "-//W3C//DTD SVG 1.1//EN" "http://www.w3.org/Graphics/SVG/1.1/DTD/svg11.dtd">
<svg width="64pt" height="64pt" viewBox="0 0 64 64" version="1.1" xmlns="http://www.w3.org/2000/svg">
<g id="#ffffffff">
<path fill="#ffffff" opacity="1.00" d=" M 0.00 0.00 L 64.00 0.00 L 64.00 64.00 L 0.00 64.00 L 0.00 0.00 M 30.20 8.27 C 25.60 9.36 24.54 16.17 28.34 18.82 C 31.70 21.47 37.49 19.39 37.92 14.98 C 38.85 10.70 34.28 6.81 30.20 8.27 M 21.28 14.11 C 19.61 18.49 17.78 22.81 16.20 27.22 C 15.50 28.48 16.67 30.11 18.06 30.02 C 20.81 29.11 23.35 27.69 25.99 26.54 C 26.01 36.36 26.00 46.18 26.00 56.00 C 27.33 56.00 28.67 56.00 30.00 56.00 C 30.00 51.33 30.00 46.67 30.00 42.00 C 31.33 42.00 32.67 42.00 34.00 42.00 C 34.00 46.67 34.00 51.33 34.00 56.00 C 35.33 56.00 36.67 56.00 38.00 56.00 C 38.18 49.75 37.59 43.45 38.36 37.23 C 37.77 34.11 38.02 30.92 38.02 27.76 C 39.05 28.89 40.09 30.01 41.13 31.13 C 40.35 33.10 38.96 34.97 38.88 37.13 C 38.49 39.18 40.07 39.72 41.83 39.60 C 42.70 36.31 45.31 33.41 45.35 30.01 C 43.14 27.15 40.53 24.63 38.04 22.02 C 32.53 22.26 26.55 20.87 21.66 24.14 C 22.39 22.26 23.12 20.38 23.86 18.51 C 23.39 18.31 22.47 17.91 22.01 17.71 C 22.37 16.76 22.73 15.82 23.09 14.87 C 22.64 14.68 21.74 14.30 21.28 14.11 Z" />
<path fill="#ffffff" opacity="1.00" d=" M 31.10 12.09 C 33.60 10.91 35.28 15.05 32.74 15.86 C 30.36 16.99 28.88 13.16 31.10 12.09 Z" />
<path fill="#ffffff" opacity="1.00" d=" M 30.00 26.00 C 31.33 26.00 32.67 26.00 34.00 26.00 C 34.00 30.00 34.00 34.00 34.00 38.00 C 32.67 38.00 31.33 38.00 30.00 38.00 C 30.00 34.00 30.00 30.00 30.00 26.00 Z" />
</g>
<g id="#000000ff">
<path fill="#000000" opacity="1.00" d=" M 30.20 8.27 C 34.28 6.81 38.85 10.70 37.92 14.98 C 37.49 19.39 31.70 21.47 28.34 18.82 C 24.54 16.17 25.60 9.36 30.20 8.27 M 31.10 12.09 C 28.88 13.16 30.36 16.99 32.74 15.86 C 35.28 15.05 33.60 10.91 31.10 12.09 Z" />
<path fill="#000000" opacity="1.00" d=" M 21.28 14.11 C 21.74 14.30 22.64 14.68 23.09 14.87 C 22.73 15.82 22.37 16.76 22.01 17.71 C 22.47 17.91 23.39 18.31 23.86 18.51 C 23.12 20.38 22.39 22.26 21.66 24.14 C 26.55 20.87 32.53 22.26 38.04 22.02 C 40.53 24.63 43.14 27.15 45.35 30.01 C 45.31 33.41 42.70 36.31 41.83 39.60 C 40.07 39.72 38.49 39.18 38.88 37.13 C 38.96 34.97 40.35 33.10 41.13 31.13 C 40.09 30.01 39.05 28.89 38.02 27.76 C 38.02 30.92 37.77 34.11 38.36 37.23 C 37.59 43.45 38.18 49.75 38.00 56.00 C 36.67 56.00 35.33 56.00 34.00 56.00 C 34.00 51.33 34.00 46.67 34.00 42.00 C 32.67 42.00 31.33 42.00 30.00 42.00 C 30.00 46.67 30.00 51.33 30.00 56.00 C 28.67 56.00 27.33 56.00 26.00 56.00 C 26.00 46.18 26.01 36.36 25.99 26.54 C 23.35 27.69 20.81 29.11 18.06 30.02 C 16.67 30.11 15.50 28.48 16.20 27.22 C 17.78 22.81 19.61 18.49 21.28 14.11 M 30.00 26.00 C 30.00 30.00 30.00 34.00 30.00 38.00 C 31.33 38.00 32.67 38.00 34.00 38.00 C 34.00 34.00 34.00 30.00 34.00 26.00 C 32.67 26.00 31.33 26.00 30.00 26.00 Z" />
</g>
</svg>
