<?xml version="1.0" encoding="UTF-8" ?>
<!DOCTYPE svg PUBLIC "-//W3C//DTD SVG 1.1//EN" "http://www.w3.org/Graphics/SVG/1.1/DTD/svg11.dtd">
<svg width="64pt" height="64pt" viewBox="0 0 64 64" version="1.1" xmlns="http://www.w3.org/2000/svg">
<g id="#ffffffff">
<path fill="#ffffff" opacity="1.00" d=" M 0.00 0.00 L 64.00 0.00 L 64.00 64.00 L 0.00 64.00 L 0.00 0.00 M 24.00 4.00 C 24.00 5.33 24.00 6.67 24.00 8.00 C 22.66 8.00 21.33 8.00 20.00 8.00 C 20.00 9.33 20.00 10.67 20.00 12.00 C 21.33 12.00 22.67 12.00 24.00 12.00 C 24.01 13.88 24.00 15.76 23.97 17.64 C 16.77 20.24 10.84 26.33 8.88 33.78 C 6.39 42.32 9.38 52.07 16.07 57.88 C 17.22 58.73 18.26 60.24 19.88 60.00 C 28.34 60.01 36.80 59.97 45.26 60.02 C 53.39 54.60 57.81 44.01 55.30 34.47 C 53.50 26.71 47.44 20.32 40.02 17.60 C 40.00 15.74 40.00 13.87 40.00 12.00 C 41.33 12.00 42.67 12.00 44.00 12.00 C 44.00 10.67 44.00 9.33 44.00 8.00 C 42.67 8.00 41.33 8.00 40.00 8.00 C 40.00 6.67 40.00 5.33 40.00 4.00 C 34.67 4.00 29.33 4.00 24.00 4.00 Z" />
<path fill="#ffffff" opacity="1.00" d=" M 28.00 12.00 C 30.67 12.00 33.33 12.00 36.00 12.00 C 36.00 14.78 36.00 17.56 36.00 20.33 C 38.84 21.10 41.56 22.27 43.99 23.95 C 35.99 24.03 28.00 24.03 20.01 23.95 C 22.43 22.28 25.13 21.08 27.98 20.35 C 28.01 17.57 28.00 14.79 28.00 12.00 Z" />
<path fill="#ffffff" opacity="1.00" d=" M 16.04 27.99 C 26.69 28.01 37.34 28.00 48.00 27.99 C 54.58 36.48 52.66 49.82 43.86 56.02 C 35.95 55.99 28.04 55.99 20.13 56.02 C 11.34 49.83 9.39 36.43 16.04 27.99 M 24.13 36.09 C 21.94 39.62 21.76 43.96 21.98 48.00 C 23.32 48.00 24.66 48.00 26.00 48.00 C 26.00 49.33 26.00 50.67 26.00 52.00 C 30.00 52.00 34.00 52.00 38.00 52.00 C 38.00 50.67 38.00 49.33 38.00 48.00 C 39.34 48.00 40.68 48.00 42.02 48.00 C 42.23 43.96 42.06 39.63 39.87 36.09 C 36.62 30.62 27.39 30.62 24.13 36.09 Z" />
<path fill="#ffffff" opacity="1.00" d=" M 27.16 40.11 C 29.59 39.13 31.14 42.79 28.82 43.89 C 26.42 44.87 24.86 41.22 27.16 40.11 Z" />
<path fill="#ffffff" opacity="1.00" d=" M 35.17 40.10 C 37.61 39.12 39.16 42.87 36.77 43.89 C 34.36 44.82 32.89 41.19 35.17 40.10 Z" />
<path fill="#ffffff" opacity="1.00" d=" M 30.00 48.00 C 30.66 46.67 31.33 45.35 32.01 44.04 C 32.68 45.36 33.34 46.68 34.00 48.00 C 32.66 48.00 31.33 48.00 30.00 48.00 Z" />
</g>
<g id="#000000ff">
<path fill="#000000" opacity="1.00" d=" M 24.00 4.00 C 29.33 4.00 34.67 4.00 40.00 4.00 C 40.00 5.33 40.00 6.67 40.00 8.00 C 41.33 8.00 42.67 8.00 44.00 8.00 C 44.00 9.33 44.00 10.67 44.00 12.00 C 42.67 12.00 41.33 12.00 40.00 12.00 C 40.00 13.87 40.00 15.74 40.02 17.60 C 47.44 20.32 53.50 26.71 55.30 34.47 C 57.81 44.01 53.39 54.60 45.26 60.02 C 36.80 59.97 28.34 60.01 19.88 60.00 C 18.26 60.24 17.22 58.73 16.07 57.88 C 9.38 52.07 6.39 42.32 8.88 33.78 C 10.84 26.33 16.77 20.24 23.97 17.64 C 24.00 15.76 24.01 13.88 24.00 12.00 C 22.67 12.00 21.33 12.00 20.00 12.00 C 20.00 10.67 20.00 9.33 20.00 8.00 C 21.33 8.00 22.66 8.00 24.00 8.00 C 24.00 6.67 24.00 5.33 24.00 4.00 M 28.00 12.00 C 28.00 14.79 28.01 17.57 27.98 20.35 C 25.13 21.08 22.43 22.28 20.01 23.95 C 28.00 24.03 35.99 24.03 43.99 23.95 C 41.56 22.27 38.84 21.10 36.00 20.33 C 36.00 17.56 36.00 14.78 36.00 12.00 C 33.33 12.00 30.67 12.00 28.00 12.00 M 16.04 27.99 C 9.39 36.43 11.34 49.83 20.13 56.02 C 28.04 55.99 35.95 55.99 43.86 56.02 C 52.66 49.82 54.58 36.48 48.00 27.99 C 37.34 28.00 26.69 28.01 16.04 27.99 Z" />
<path fill="#000000" opacity="1.00" d=" M 24.13 36.09 C 27.39 30.62 36.62 30.62 39.87 36.09 C 42.06 39.63 42.23 43.96 42.02 48.00 C 40.68 48.00 39.34 48.00 38.00 48.00 C 38.00 49.33 38.00 50.67 38.00 52.00 C 34.00 52.00 30.00 52.00 26.00 52.00 C 26.00 50.67 26.00 49.33 26.00 48.00 C 24.66 48.00 23.32 48.00 21.98 48.00 C 21.76 43.96 21.94 39.62 24.13 36.09 M 27.16 40.11 C 24.86 41.22 26.42 44.87 28.82 43.89 C 31.14 42.79 29.59 39.13 27.16 40.11 M 35.17 40.10 C 32.89 41.19 34.36 44.82 36.77 43.89 C 39.16 42.87 37.61 39.12 35.17 40.10 M 30.00 48.00 C 31.33 48.00 32.66 48.00 34.00 48.00 C 33.34 46.68 32.68 45.36 32.01 44.04 C 31.33 45.35 30.66 46.67 30.00 48.00 Z" />
</g>
</svg>
