<?xml version="1.0" encoding="UTF-8" ?>
<!DOCTYPE svg PUBLIC "-//W3C//DTD SVG 1.1//EN" "http://www.w3.org/Graphics/SVG/1.1/DTD/svg11.dtd">
<svg width="60pt" height="60pt" viewBox="0 0 60 60" version="1.1" xmlns="http://www.w3.org/2000/svg">
<g id="#ffffffff">
<path fill="#ffffff" opacity="1.00" d=" M 0.00 0.00 L 60.00 0.00 L 60.00 60.00 L 0.00 60.00 L 0.00 0.00 M 25.14 4.18 C 23.81 4.89 24.17 6.61 23.84 7.83 C 22.55 8.11 21.01 7.96 20.09 9.09 C 19.61 10.69 20.93 11.56 21.99 12.43 C 21.98 13.48 21.96 14.54 21.94 15.59 C 18.25 17.64 12.46 19.07 12.04 24.05 C 12.57 32.06 14.34 39.93 15.59 47.84 C 15.79 50.05 17.50 52.16 19.88 51.95 C 26.96 51.98 34.06 52.17 41.12 51.85 C 44.32 51.33 44.46 47.52 44.92 45.02 C 45.90 37.73 47.91 30.50 47.87 23.13 C 46.59 18.79 41.55 17.55 38.02 15.54 C 38.02 14.50 38.02 13.47 38.02 12.43 C 38.99 11.55 40.40 10.73 39.93 9.18 C 39.10 7.91 37.45 8.14 36.16 7.83 C 35.83 6.61 36.17 4.92 34.88 4.19 C 31.65 3.85 28.36 3.85 25.14 4.18 Z" />
<path fill="#ffffff" opacity="1.00" d=" M 26.05 12.00 C 28.68 12.00 31.32 12.00 33.95 12.00 C 34.19 14.17 33.28 17.12 35.50 18.51 C 38.42 20.39 41.73 21.62 44.40 23.90 C 34.80 24.07 25.19 24.07 15.59 23.89 C 18.27 21.62 21.59 20.39 24.51 18.50 C 26.71 17.10 25.80 14.16 26.05 12.00 Z" />
<path fill="#ffffff" opacity="1.00" d=" M 22.93 42.16 C 20.02 37.06 23.97 29.76 30.00 30.01 C 36.01 29.76 40.02 37.10 37.06 42.17 C 36.30 43.67 34.41 43.48 33.02 43.81 C 32.54 46.89 27.45 46.86 26.96 43.81 C 25.56 43.48 23.69 43.67 22.93 42.16 M 26.19 38.09 C 23.89 39.16 25.34 42.80 27.76 41.90 C 30.15 40.90 28.63 37.13 26.19 38.09 M 32.24 38.20 C 29.68 38.96 31.58 43.17 33.84 41.77 C 36.26 40.89 34.43 36.98 32.24 38.20 Z" />
</g>
<g id="#000000ff">
<path fill="#000000" opacity="1.00" d=" M 25.14 4.18 C 28.36 3.85 31.65 3.85 34.88 4.19 C 36.17 4.92 35.83 6.61 36.16 7.83 C 37.45 8.14 39.10 7.91 39.93 9.18 C 40.40 10.73 38.99 11.55 38.02 12.43 C 38.02 13.47 38.02 14.50 38.02 15.54 C 41.55 17.55 46.59 18.79 47.87 23.13 C 47.91 30.50 45.90 37.73 44.92 45.02 C 44.46 47.52 44.32 51.33 41.12 51.85 C 34.06 52.17 26.96 51.98 19.88 51.95 C 17.50 52.16 15.79 50.05 15.59 47.84 C 14.34 39.93 12.57 32.06 12.04 24.05 C 12.46 19.07 18.25 17.64 21.94 15.59 C 21.96 14.54 21.98 13.48 21.99 12.43 C 20.93 11.56 19.61 10.69 20.09 9.09 C 21.01 7.96 22.55 8.11 23.84 7.83 C 24.17 6.61 23.81 4.89 25.14 4.18 M 26.05 12.00 C 25.80 14.16 26.71 17.10 24.51 18.50 C 21.59 20.39 18.27 21.62 15.59 23.89 C 25.19 24.07 34.80 24.07 44.40 23.90 C 41.73 21.62 38.42 20.39 35.50 18.51 C 33.28 17.12 34.19 14.17 33.95 12.00 C 31.32 12.00 28.68 12.00 26.05 12.00 M 22.93 42.16 C 23.69 43.67 25.56 43.48 26.96 43.81 C 27.45 46.86 32.54 46.89 33.02 43.81 C 34.41 43.48 36.30 43.67 37.06 42.17 C 40.02 37.10 36.01 29.76 30.00 30.01 C 23.97 29.76 20.02 37.06 22.93 42.16 Z" />
<path fill="#000000" opacity="1.00" d=" M 26.19 38.09 C 28.63 37.13 30.15 40.90 27.76 41.90 C 25.34 42.80 23.89 39.16 26.19 38.09 Z" />
<path fill="#000000" opacity="1.00" d=" M 32.24 38.20 C 34.43 36.98 36.26 40.89 33.84 41.77 C 31.58 43.17 29.68 38.96 32.24 38.20 Z" />
</g>
</svg>
