<?xml version="1.0" encoding="UTF-8" ?>
<!DOCTYPE svg PUBLIC "-//W3C//DTD SVG 1.1//EN" "http://www.w3.org/Graphics/SVG/1.1/DTD/svg11.dtd">
<svg width="64pt" height="64pt" viewBox="0 0 64 64" version="1.1" xmlns="http://www.w3.org/2000/svg">
<g id="#ffffffff">
<path fill="#ffffff" opacity="1.00" d=" M 0.00 0.00 L 64.00 0.00 L 64.00 64.00 L 0.00 64.00 L 0.00 0.00 M 14.00 10.00 C 14.00 16.67 14.00 23.33 14.00 30.00 C 25.33 30.00 36.67 30.00 48.00 30.00 C 48.00 23.33 48.00 16.67 48.00 10.00 C 36.67 10.00 25.33 10.00 14.00 10.00 M 11.04 31.99 C 4.22 37.89 4.18 50.15 11.07 56.02 C 24.71 55.98 38.35 56.01 51.99 56.00 C 52.00 54.60 52.01 53.19 52.02 51.79 C 55.20 50.49 58.11 47.73 57.99 44.04 C 58.15 40.32 55.25 37.49 52.02 36.22 C 52.01 34.81 52.00 33.40 51.99 32.00 C 38.34 31.99 24.69 32.02 11.04 31.99 Z" />
<path fill="#ffffff" opacity="1.00" d=" M 18.00 14.00 C 26.67 14.00 35.33 14.00 44.00 14.00 C 44.00 18.00 44.00 22.00 44.00 26.00 C 35.33 26.00 26.67 26.00 18.00 26.00 C 18.00 22.00 18.00 18.00 18.00 14.00 Z" />
<path fill="#ffffff" opacity="1.00" d=" M 10.00 44.02 C 10.15 40.96 10.60 35.30 14.95 35.97 C 25.96 36.02 36.98 35.99 48.00 36.00 C 48.00 37.29 48.00 38.57 48.00 39.86 C 50.66 39.68 54.13 40.78 54.01 44.04 C 54.08 47.26 50.63 48.30 48.00 48.14 C 48.00 49.42 48.00 50.71 48.00 52.00 C 37.00 52.01 25.99 51.97 14.99 52.03 C 10.63 52.72 10.15 47.08 10.00 44.02 M 18.00 38.00 C 18.00 39.33 18.00 40.67 18.00 42.00 C 16.67 42.00 15.33 42.00 14.00 42.00 C 14.00 43.33 14.00 44.67 14.00 46.00 C 15.33 46.00 16.67 46.00 18.00 46.00 C 18.00 47.33 18.00 48.67 18.00 50.00 C 19.33 50.00 20.67 50.00 22.00 50.00 C 22.00 48.67 22.00 47.33 22.00 46.00 C 23.33 46.00 24.67 46.00 26.00 46.00 C 26.00 44.67 26.00 43.33 26.00 42.00 C 24.67 42.00 23.33 42.00 22.00 42.00 C 22.00 40.67 22.00 39.33 22.00 38.00 C 20.67 38.00 19.33 38.00 18.00 38.00 M 49.16 42.12 C 46.86 43.16 48.40 46.88 50.75 45.83 C 53.23 44.94 51.57 41.06 49.16 42.12 Z" />
</g>
<g id="#000000ff">
<path fill="#000000" opacity="1.00" d=" M 14.00 10.00 C 25.33 10.00 36.67 10.00 48.00 10.00 C 48.00 16.67 48.00 23.33 48.00 30.00 C 36.67 30.00 25.33 30.00 14.00 30.00 C 14.00 23.33 14.00 16.67 14.00 10.00 M 18.00 14.00 C 18.00 18.00 18.00 22.00 18.00 26.00 C 26.67 26.00 35.33 26.00 44.00 26.00 C 44.00 22.00 44.00 18.00 44.00 14.00 C 35.33 14.00 26.67 14.00 18.00 14.00 Z" />
<path fill="#000000" opacity="1.00" d=" M 11.04 31.99 C 24.69 32.02 38.34 31.99 51.99 32.00 C 52.00 33.40 52.01 34.81 52.02 36.22 C 55.25 37.49 58.15 40.32 57.99 44.04 C 58.11 47.73 55.20 50.49 52.02 51.79 C 52.01 53.19 52.00 54.60 51.99 56.00 C 38.35 56.01 24.71 55.98 11.07 56.02 C 4.18 50.15 4.22 37.89 11.04 31.99 M 10.00 44.02 C 10.15 47.08 10.63 52.72 14.99 52.03 C 25.99 51.97 37.00 52.01 48.00 52.00 C 48.00 50.71 48.00 49.42 48.00 48.14 C 50.63 48.30 54.08 47.26 54.01 44.04 C 54.13 40.78 50.66 39.68 48.00 39.86 C 48.00 38.57 48.00 37.29 48.00 36.00 C 36.98 35.99 25.96 36.02 14.95 35.97 C 10.60 35.30 10.15 40.96 10.00 44.02 Z" />
<path fill="#000000" opacity="1.00" d=" M 18.00 38.00 C 19.33 38.00 20.67 38.00 22.00 38.00 C 22.00 39.33 22.00 40.67 22.00 42.00 C 23.33 42.00 24.67 42.00 26.00 42.00 C 26.00 43.33 26.00 44.67 26.00 46.00 C 24.67 46.00 23.33 46.00 22.00 46.00 C 22.00 47.33 22.00 48.67 22.00 50.00 C 20.67 50.00 19.33 50.00 18.00 50.00 C 18.00 48.67 18.00 47.33 18.00 46.00 C 16.67 46.00 15.33 46.00 14.00 46.00 C 14.00 44.67 14.00 43.33 14.00 42.00 C 15.33 42.00 16.67 42.00 18.00 42.00 C 18.00 40.67 18.00 39.33 18.00 38.00 Z" />
<path fill="#000000" opacity="1.00" d=" M 49.16 42.12 C 51.57 41.06 53.23 44.94 50.75 45.83 C 48.40 46.88 46.86 43.16 49.16 42.12 Z" />
</g>
</svg>
