<?xml version="1.0" encoding="UTF-8" ?>
<!DOCTYPE svg PUBLIC "-//W3C//DTD SVG 1.1//EN" "http://www.w3.org/Graphics/SVG/1.1/DTD/svg11.dtd">
<svg width="64pt" height="64pt" viewBox="0 0 64 64" version="1.1" xmlns="http://www.w3.org/2000/svg">
<g id="#ffffffff">
<path fill="#ffffff" opacity="1.00" d=" M 0.00 0.00 L 64.00 0.00 L 64.00 64.00 L 0.00 64.00 L 0.00 0.00 M 26.55 8.63 C 19.41 10.27 13.18 15.37 10.17 22.05 C 7.09 28.71 7.33 36.79 10.82 43.25 C 14.53 50.31 21.95 55.26 29.91 55.89 C 38.09 56.68 46.51 52.87 51.31 46.20 C 57.84 37.65 57.43 24.73 50.38 16.60 C 44.77 9.73 35.16 6.55 26.55 8.63 Z" />
<path fill="#ffffff" opacity="1.00" d=" M 20.56 15.59 C 27.41 10.66 37.40 10.85 44.06 16.05 C 48.54 19.32 51.17 24.55 51.98 29.96 C 47.93 30.01 43.89 30.01 39.84 29.98 C 38.59 26.74 35.73 23.90 32.04 24.01 C 28.33 23.85 25.41 26.71 24.16 29.98 C 20.11 30.01 16.06 30.01 12.01 29.96 C 12.84 24.29 15.74 18.83 20.56 15.59 Z" />
<path fill="#ffffff" opacity="1.00" d=" M 30.28 28.38 C 32.80 27.05 36.13 29.17 36.01 32.01 C 36.14 35.12 32.17 37.19 29.70 35.28 C 27.21 33.71 27.56 29.51 30.28 28.38 M 31.16 30.19 C 28.78 31.20 30.50 34.91 32.84 33.88 C 35.17 32.82 33.51 28.99 31.16 30.19 Z" />
<path fill="#ffffff" opacity="1.00" d=" M 12.01 34.04 C 16.06 33.98 20.11 33.98 24.16 34.02 C 25.42 37.28 28.32 40.15 32.04 39.99 C 35.73 40.10 38.58 37.25 39.84 34.02 C 43.89 33.98 47.94 33.99 51.98 34.04 C 51.12 39.96 47.95 45.64 42.78 48.83 C 35.98 53.32 26.44 52.97 19.99 47.99 C 15.48 44.72 12.82 39.47 12.01 34.04 Z" />
</g>
<g id="#000000ff">
<path fill="#000000" opacity="1.00" d=" M 26.55 8.63 C 35.16 6.55 44.77 9.73 50.38 16.60 C 57.43 24.73 57.84 37.65 51.31 46.20 C 46.51 52.87 38.09 56.68 29.91 55.89 C 21.95 55.26 14.53 50.31 10.82 43.25 C 7.33 36.79 7.09 28.71 10.17 22.05 C 13.18 15.37 19.41 10.27 26.55 8.63 M 20.56 15.59 C 15.74 18.83 12.84 24.29 12.01 29.96 C 16.06 30.01 20.11 30.01 24.16 29.98 C 25.41 26.71 28.33 23.85 32.04 24.01 C 35.73 23.90 38.59 26.74 39.84 29.98 C 43.89 30.01 47.93 30.01 51.98 29.96 C 51.17 24.55 48.54 19.32 44.06 16.05 C 37.40 10.85 27.41 10.66 20.56 15.59 M 30.28 28.38 C 27.56 29.51 27.21 33.71 29.70 35.28 C 32.17 37.19 36.14 35.12 36.01 32.01 C 36.13 29.17 32.80 27.05 30.28 28.38 M 12.01 34.04 C 12.82 39.47 15.48 44.72 19.99 47.99 C 26.44 52.97 35.98 53.32 42.78 48.83 C 47.95 45.64 51.12 39.96 51.98 34.04 C 47.94 33.99 43.89 33.98 39.84 34.02 C 38.58 37.25 35.73 40.10 32.04 39.99 C 28.32 40.15 25.42 37.28 24.16 34.02 C 20.11 33.98 16.06 33.98 12.01 34.04 Z" />
<path fill="#000000" opacity="1.00" d=" M 31.16 30.19 C 33.51 28.99 35.17 32.82 32.84 33.88 C 30.50 34.91 28.78 31.20 31.16 30.19 Z" />
</g>
</svg>
