<?xml version="1.0" encoding="UTF-8" ?>
<!DOCTYPE svg PUBLIC "-//W3C//DTD SVG 1.1//EN" "http://www.w3.org/Graphics/SVG/1.1/DTD/svg11.dtd">
<svg width="60pt" height="60pt" viewBox="0 0 60 60" version="1.1" xmlns="http://www.w3.org/2000/svg">
<g id="#ffffffff">
<path fill="#ffffff" opacity="1.00" d=" M 0.00 0.00 L 60.00 0.00 L 60.00 60.00 L 0.00 60.00 L 0.00 0.00 M 17.21 6.15 C 15.53 6.97 16.19 9.10 15.88 10.58 C 10.09 14.09 10.52 21.77 7.33 27.06 C 5.97 28.81 4.16 30.49 4.12 32.88 C 3.87 37.92 3.99 42.98 4.05 48.04 C 3.84 51.08 7.87 53.21 10.24 51.25 C 12.25 50.04 11.92 47.45 12.14 45.46 C 24.04 46.10 35.96 46.10 47.86 45.46 C 48.12 47.42 47.68 50.04 49.70 51.22 C 52.06 53.22 56.04 51.13 55.95 48.11 C 56.02 43.02 56.13 37.90 55.87 32.81 C 55.77 29.43 52.21 27.74 51.50 24.58 C 49.44 19.76 49.08 13.51 44.12 10.58 C 43.82 9.10 44.45 7.00 42.80 6.16 C 39.88 5.82 36.93 6.04 34.00 6.01 C 34.00 7.34 34.00 8.67 34.00 10.00 C 31.33 10.00 28.67 10.00 26.00 10.00 C 26.00 8.67 26.00 7.34 26.00 6.01 C 23.07 6.04 20.13 5.83 17.21 6.15 Z" />
<path fill="#ffffff" opacity="1.00" d=" M 18.11 14.21 C 25.72 13.77 33.38 14.03 41.00 14.07 C 44.22 14.13 44.87 17.80 45.79 20.18 C 46.04 21.76 47.79 23.81 46.07 25.07 C 37.54 24.22 28.92 23.47 20.36 24.47 C 17.86 24.65 15.23 25.53 12.85 24.37 C 14.46 21.03 14.31 15.88 18.11 14.21 Z" />
<path fill="#ffffff" opacity="1.00" d=" M 11.38 32.49 C 14.57 30.24 17.91 35.59 14.61 37.50 C 11.42 39.76 8.10 34.41 11.38 32.49 Z" />
<path fill="#ffffff" opacity="1.00" d=" M 23.15 32.17 C 27.42 31.83 31.74 31.97 36.03 32.07 C 38.09 31.87 38.73 35.03 36.86 35.82 C 32.61 36.18 28.31 36.02 24.04 35.94 C 21.93 36.19 21.24 32.96 23.15 32.17 Z" />
<path fill="#ffffff" opacity="1.00" d=" M 45.39 32.48 C 46.93 31.45 49.36 32.24 49.80 34.09 C 50.71 36.20 48.30 38.67 46.16 37.84 C 43.74 37.32 43.29 33.69 45.39 32.48 Z" />
</g>
<g id="#000000ff">
<path fill="#000000" opacity="1.00" d=" M 17.21 6.15 C 20.13 5.83 23.07 6.04 26.00 6.01 C 26.00 7.34 26.00 8.67 26.00 10.00 C 28.67 10.00 31.33 10.00 34.00 10.00 C 34.00 8.67 34.00 7.34 34.00 6.01 C 36.93 6.04 39.88 5.82 42.80 6.16 C 44.45 7.00 43.82 9.10 44.12 10.58 C 49.08 13.51 49.44 19.76 51.50 24.58 C 52.21 27.74 55.77 29.43 55.87 32.81 C 56.13 37.90 56.02 43.02 55.95 48.11 C 56.04 51.13 52.06 53.22 49.70 51.22 C 47.68 50.04 48.12 47.42 47.86 45.46 C 35.96 46.10 24.04 46.10 12.14 45.46 C 11.92 47.45 12.25 50.04 10.24 51.25 C 7.87 53.21 3.84 51.08 4.05 48.04 C 3.99 42.98 3.87 37.92 4.12 32.88 C 4.16 30.49 5.97 28.81 7.33 27.06 C 10.52 21.77 10.09 14.09 15.88 10.58 C 16.19 9.10 15.53 6.97 17.21 6.15 M 18.11 14.21 C 14.31 15.88 14.46 21.03 12.85 24.37 C 15.23 25.53 17.86 24.65 20.36 24.47 C 28.92 23.47 37.54 24.22 46.07 25.07 C 47.79 23.81 46.04 21.76 45.79 20.18 C 44.87 17.80 44.22 14.13 41.00 14.07 C 33.38 14.03 25.72 13.77 18.11 14.21 M 11.38 32.49 C 8.10 34.41 11.42 39.76 14.61 37.50 C 17.91 35.59 14.57 30.24 11.38 32.49 M 23.15 32.17 C 21.24 32.96 21.93 36.19 24.04 35.94 C 28.31 36.02 32.61 36.18 36.86 35.82 C 38.73 35.03 38.09 31.87 36.03 32.07 C 31.74 31.97 27.42 31.83 23.15 32.17 M 45.39 32.48 C 43.29 33.69 43.74 37.32 46.16 37.84 C 48.30 38.67 50.71 36.20 49.80 34.09 C 49.36 32.24 46.93 31.45 45.39 32.48 Z" />
</g>
</svg>
