<?xml version="1.0" encoding="UTF-8" ?>
<!DOCTYPE svg PUBLIC "-//W3C//DTD SVG 1.1//EN" "http://www.w3.org/Graphics/SVG/1.1/DTD/svg11.dtd">
<svg width="64pt" height="64pt" viewBox="0 0 64 64" version="1.1" xmlns="http://www.w3.org/2000/svg">
<g id="#ffffffff">
<path fill="#ffffff" opacity="1.00" d=" M 0.00 0.00 L 64.00 0.00 L 64.00 64.00 L 0.00 64.00 L 0.00 0.00 M 4.00 7.92 C 4.00 9.24 4.00 10.57 4.00 11.89 C 7.74 12.09 11.50 12.71 14.72 14.76 C 10.92 19.53 10.76 26.28 13.71 31.52 C 17.11 37.56 21.24 43.16 24.93 49.02 C 26.25 45.14 27.58 41.27 28.90 37.39 C 33.29 38.16 37.65 39.09 42.01 40.01 C 41.14 35.63 40.26 31.26 39.38 26.88 C 43.30 25.53 47.22 24.17 51.14 22.81 C 45.28 19.14 39.62 15.12 33.59 11.73 C 28.65 8.96 22.35 8.82 17.61 12.09 C 13.77 8.98 8.82 8.06 4.00 7.92 M 46.00 32.00 C 46.00 33.33 46.00 34.67 46.00 36.00 C 47.33 36.00 48.67 36.00 50.00 36.00 C 50.00 34.67 50.00 33.33 50.00 32.00 C 48.67 32.00 47.33 32.00 46.00 32.00 M 56.00 32.00 C 56.00 33.33 56.00 34.67 56.00 36.00 C 57.33 36.00 58.67 36.00 60.00 36.00 C 60.00 34.67 60.00 33.33 60.00 32.00 C 58.67 32.00 57.33 32.00 56.00 32.00 M 34.00 44.00 C 34.00 45.33 34.00 46.67 34.00 48.00 C 35.33 48.00 36.67 48.00 38.00 48.00 C 38.00 46.67 38.00 45.33 38.00 44.00 C 36.67 44.00 35.33 44.00 34.00 44.00 M 46.00 44.00 C 46.00 45.33 46.00 46.67 46.00 48.00 C 47.33 48.00 48.67 48.00 50.00 48.00 C 50.00 46.67 50.00 45.33 50.00 44.00 C 48.67 44.00 47.33 44.00 46.00 44.00 M 34.00 54.00 C 34.00 55.33 34.00 56.67 34.00 58.00 C 35.33 58.00 36.67 58.00 38.00 58.00 C 38.00 56.67 38.00 55.33 38.00 54.00 C 36.67 54.00 35.33 54.00 34.00 54.00 Z" />
<path fill="#ffffff" opacity="1.00" d=" M 15.72 25.01 C 14.63 18.80 20.80 12.56 27.03 13.70 C 32.76 14.73 37.17 18.88 42.07 21.70 C 39.64 22.54 37.22 23.43 34.78 24.25 C 35.50 27.79 36.19 31.34 36.91 34.89 C 33.36 34.17 29.80 33.47 26.25 32.76 C 25.44 35.16 24.60 37.56 23.79 39.97 C 20.93 35.11 16.70 30.75 15.72 25.01 Z" />
</g>
<g id="#000000ff">
<path fill="#000000" opacity="1.00" d=" M 4.00 7.92 C 8.82 8.06 13.77 8.98 17.61 12.09 C 22.35 8.82 28.65 8.96 33.59 11.73 C 39.62 15.12 45.28 19.14 51.14 22.81 C 47.22 24.17 43.30 25.53 39.38 26.88 C 40.26 31.26 41.14 35.63 42.01 40.01 C 37.65 39.09 33.29 38.16 28.90 37.39 C 27.58 41.27 26.25 45.14 24.93 49.02 C 21.24 43.16 17.11 37.56 13.71 31.52 C 10.76 26.28 10.92 19.53 14.72 14.76 C 11.50 12.71 7.74 12.09 4.00 11.89 C 4.00 10.57 4.00 9.24 4.00 7.92 M 15.72 25.01 C 16.70 30.75 20.93 35.11 23.79 39.97 C 24.60 37.56 25.44 35.16 26.25 32.76 C 29.80 33.47 33.36 34.17 36.91 34.89 C 36.19 31.34 35.50 27.79 34.78 24.25 C 37.22 23.43 39.64 22.54 42.07 21.70 C 37.17 18.88 32.76 14.73 27.03 13.70 C 20.80 12.56 14.63 18.80 15.72 25.01 Z" />
<path fill="#000000" opacity="1.00" d=" M 46.00 32.00 C 47.33 32.00 48.67 32.00 50.00 32.00 C 50.00 33.33 50.00 34.67 50.00 36.00 C 48.67 36.00 47.33 36.00 46.00 36.00 C 46.00 34.67 46.00 33.33 46.00 32.00 Z" />
<path fill="#000000" opacity="1.00" d=" M 56.00 32.00 C 57.33 32.00 58.67 32.00 60.00 32.00 C 60.00 33.33 60.00 34.67 60.00 36.00 C 58.67 36.00 57.33 36.00 56.00 36.00 C 56.00 34.67 56.00 33.33 56.00 32.00 Z" />
<path fill="#000000" opacity="1.00" d=" M 34.00 44.00 C 35.33 44.00 36.67 44.00 38.00 44.00 C 38.00 45.33 38.00 46.67 38.00 48.00 C 36.67 48.00 35.33 48.00 34.00 48.00 C 34.00 46.67 34.00 45.33 34.00 44.00 Z" />
<path fill="#000000" opacity="1.00" d=" M 46.00 44.00 C 47.33 44.00 48.67 44.00 50.00 44.00 C 50.00 45.33 50.00 46.67 50.00 48.00 C 48.67 48.00 47.33 48.00 46.00 48.00 C 46.00 46.67 46.00 45.33 46.00 44.00 Z" />
<path fill="#000000" opacity="1.00" d=" M 34.00 54.00 C 35.33 54.00 36.67 54.00 38.00 54.00 C 38.00 55.33 38.00 56.67 38.00 58.00 C 36.67 58.00 35.33 58.00 34.00 58.00 C 34.00 56.67 34.00 55.33 34.00 54.00 Z" />
</g>
</svg>
