<?xml version="1.0" encoding="UTF-8" ?>
<!DOCTYPE svg PUBLIC "-//W3C//DTD SVG 1.1//EN" "http://www.w3.org/Graphics/SVG/1.1/DTD/svg11.dtd">
<svg width="64pt" height="64pt" viewBox="0 0 64 64" version="1.1" xmlns="http://www.w3.org/2000/svg">
<g id="#ffffffff">
<path fill="#ffffff" opacity="1.00" d=" M 0.00 0.00 L 64.00 0.00 L 64.00 64.00 L 0.00 64.00 L 0.00 0.00 M 36.32 10.55 C 31.55 12.30 30.50 19.39 34.61 22.41 C 38.47 25.89 45.32 23.20 45.90 18.07 C 46.94 12.95 41.06 8.29 36.32 10.55 M 28.87 27.99 C 27.07 31.21 24.92 34.40 24.05 38.01 C 23.68 42.25 28.26 43.66 31.51 44.48 C 30.77 47.65 30.08 50.83 29.38 54.01 C 30.75 54.00 32.13 53.99 33.51 53.99 C 34.13 50.66 35.19 47.40 35.40 44.00 C 34.98 40.34 30.55 40.14 27.83 39.05 C 29.44 35.50 30.62 31.34 33.86 28.92 C 34.16 31.66 33.89 34.52 34.75 37.17 C 36.55 39.60 39.67 40.53 42.12 42.15 C 42.76 40.94 43.38 39.72 44.01 38.50 C 42.08 37.54 40.21 36.50 38.34 35.44 C 38.10 32.27 37.87 29.11 37.70 25.94 C 34.69 24.69 30.70 24.92 28.87 27.99 M 37.74 46.85 C 37.26 49.23 36.79 51.62 36.31 54.00 C 37.16 54.00 38.85 54.00 39.69 54.00 C 39.04 51.61 38.40 49.23 37.74 46.85 M 19.12 50.74 C 20.29 51.17 21.46 51.64 22.62 52.12 C 20.92 52.07 19.33 51.54 17.85 50.73 C 17.13 51.79 16.42 52.85 15.74 53.93 C 19.24 54.02 22.74 54.03 26.25 53.95 C 25.73 50.75 22.76 49.13 20.82 46.87 C 20.40 47.84 19.54 49.77 19.12 50.74 Z" />
<path fill="#ffffff" opacity="1.00" d=" M 37.34 14.52 C 40.50 12.18 43.92 17.52 40.66 19.48 C 37.49 21.81 34.07 16.47 37.34 14.52 Z" />
</g>
<g id="#000000ff">
<path fill="#000000" opacity="1.00" d=" M 36.32 10.55 C 41.06 8.29 46.94 12.95 45.90 18.07 C 45.32 23.20 38.47 25.89 34.61 22.41 C 30.50 19.39 31.55 12.30 36.32 10.55 M 37.34 14.52 C 34.07 16.47 37.49 21.81 40.66 19.48 C 43.92 17.52 40.50 12.18 37.34 14.52 Z" />
<path fill="#000000" opacity="1.00" d=" M 28.87 27.99 C 30.70 24.92 34.69 24.69 37.70 25.94 C 37.87 29.11 38.10 32.27 38.34 35.44 C 40.21 36.50 42.08 37.54 44.01 38.50 C 43.38 39.72 42.76 40.94 42.12 42.15 C 39.67 40.53 36.55 39.60 34.75 37.17 C 33.89 34.52 34.16 31.66 33.86 28.92 C 30.62 31.34 29.44 35.50 27.83 39.05 C 30.55 40.14 34.98 40.34 35.40 44.00 C 35.19 47.40 34.13 50.66 33.51 53.99 C 32.13 53.99 30.75 54.00 29.38 54.01 C 30.08 50.83 30.77 47.65 31.51 44.48 C 28.26 43.66 23.68 42.25 24.05 38.01 C 24.92 34.40 27.07 31.21 28.87 27.99 Z" />
<path fill="#000000" opacity="1.00" d=" M 37.74 46.85 C 38.40 49.23 39.04 51.61 39.69 54.00 C 38.85 54.00 37.16 54.00 36.31 54.00 C 36.79 51.62 37.26 49.23 37.74 46.85 Z" />
<path fill="#000000" opacity="1.00" d=" M 19.12 50.74 C 19.54 49.77 20.40 47.84 20.82 46.87 C 22.76 49.13 25.73 50.75 26.25 53.95 C 22.74 54.03 19.24 54.02 15.74 53.93 C 16.42 52.85 17.13 51.79 17.85 50.73 C 19.33 51.54 20.92 52.07 22.62 52.12 C 21.46 51.64 20.29 51.17 19.12 50.74 Z" />
</g>
</svg>
