<?xml version="1.0" encoding="UTF-8" ?>
<!DOCTYPE svg PUBLIC "-//W3C//DTD SVG 1.1//EN" "http://www.w3.org/Graphics/SVG/1.1/DTD/svg11.dtd">
<svg width="60pt" height="60pt" viewBox="0 0 60 60" version="1.1" xmlns="http://www.w3.org/2000/svg">
<g id="#ffffffff">
<path fill="#ffffff" opacity="1.00" d=" M 0.00 0.00 L 60.00 0.00 L 60.00 60.00 L 0.00 60.00 L 0.00 0.00 M 4.00 10.89 C 4.03 22.63 3.93 34.37 4.05 46.10 C 3.94 48.62 6.55 50.31 8.87 50.00 C 22.93 50.00 36.99 50.00 51.05 50.00 C 53.39 50.34 55.98 48.63 55.95 46.13 C 56.08 35.72 55.97 25.31 56.00 14.91 C 56.31 12.58 54.64 9.94 52.10 10.05 C 42.24 9.91 32.37 10.06 22.51 9.99 C 21.32 8.41 20.32 6.00 17.98 6.07 C 14.63 5.92 11.27 5.93 7.92 6.05 C 5.42 5.97 3.66 8.55 4.00 10.89 Z" />
<path fill="#ffffff" opacity="1.00" d=" M 8.00 22.00 C 9.17 22.00 10.35 22.01 11.52 22.01 C 12.34 23.38 13.17 24.75 14.00 26.12 C 14.83 24.76 15.66 23.39 16.47 22.02 C 17.65 22.01 18.82 22.00 20.00 21.99 C 17.19 26.66 14.33 31.30 11.54 35.98 C 10.36 35.99 9.18 36.00 8.00 36.01 C 9.41 33.67 10.84 31.34 12.26 29.00 C 10.84 26.67 9.41 24.33 8.00 22.00 Z" />
<path fill="#ffffff" opacity="1.00" d=" M 24.00 21.99 C 25.17 22.00 26.35 22.01 27.52 22.01 C 28.34 23.38 29.17 24.75 30.00 26.12 C 30.83 24.76 31.66 23.40 32.47 22.02 C 33.65 22.01 34.82 22.00 36.00 21.99 C 33.19 26.66 30.33 31.31 27.52 35.99 C 26.35 35.99 25.17 36.00 24.00 36.01 C 25.41 33.66 26.84 31.34 28.26 29.00 C 26.84 26.67 25.41 24.33 24.00 21.99 Z" />
<path fill="#ffffff" opacity="1.00" d=" M 40.00 22.00 C 41.17 22.00 42.35 22.01 43.52 22.01 C 44.34 23.39 45.18 24.76 46.01 26.13 C 46.80 24.81 47.59 23.48 48.33 22.12 C 49.56 22.03 50.79 21.98 52.02 21.97 C 49.20 26.64 46.33 31.29 43.53 35.98 C 42.35 35.99 41.17 36.00 39.99 36.01 C 41.41 33.67 42.83 31.33 44.26 29.00 C 42.84 26.67 41.41 24.33 40.00 22.00 Z" />
<path fill="#ffffff" opacity="1.00" d=" M 15.43 35.05 C 16.10 33.95 16.77 32.86 17.46 31.78 C 18.32 33.22 19.18 34.66 20.03 36.11 C 18.44 36.01 16.77 36.07 15.43 35.05 Z" />
<path fill="#ffffff" opacity="1.00" d=" M 31.43 35.05 C 32.10 33.95 32.77 32.86 33.46 31.78 C 34.32 33.22 35.18 34.66 36.03 36.11 C 34.44 36.01 32.77 36.06 31.43 35.05 Z" />
<path fill="#ffffff" opacity="1.00" d=" M 47.44 35.04 C 48.10 33.94 48.77 32.86 49.47 31.78 C 50.32 33.22 51.18 34.66 52.03 36.11 C 50.44 36.00 48.76 36.08 47.44 35.04 Z" />
</g>
<g id="#000000ff">
<path fill="#968176" opacity="1.00" d=" M 4.00 10.89 C 3.66 8.55 5.42 5.97 7.92 6.05 C 11.27 5.93 14.63 5.92 17.98 6.07 C 20.32 6.00 21.32 8.41 22.51 9.99 C 32.37 10.06 42.24 9.91 52.10 10.05 C 54.64 9.94 56.31 12.58 56.00 14.91 C 55.97 25.31 56.08 35.72 55.95 46.13 C 55.98 48.63 53.39 50.34 51.05 50.00 C 36.99 50.00 22.93 50.00 8.87 50.00 C 6.55 50.31 3.94 48.62 4.05 46.10 C 3.93 34.37 4.03 22.63 4.00 10.89 M 8.00 22.00 C 9.41 24.33 10.84 26.67 12.26 29.00 C 10.84 31.34 9.41 33.67 8.00 36.01 C 9.18 36.00 10.36 35.99 11.54 35.98 C 14.33 31.30 17.19 26.66 20.00 21.99 C 18.82 22.00 17.65 22.01 16.47 22.02 C 15.66 23.39 14.83 24.76 14.00 26.12 C 13.17 24.75 12.34 23.38 11.52 22.01 C 10.35 22.01 9.17 22.00 8.00 22.00 M 24.00 21.99 C 25.41 24.33 26.84 26.67 28.26 29.00 C 26.84 31.34 25.41 33.66 24.00 36.01 C 25.17 36.00 26.35 35.99 27.52 35.99 C 30.33 31.31 33.19 26.66 36.00 21.99 C 34.82 22.00 33.65 22.01 32.47 22.02 C 31.66 23.40 30.83 24.76 30.00 26.12 C 29.17 24.75 28.34 23.38 27.52 22.01 C 26.35 22.01 25.17 22.00 24.00 21.99 M 40.00 22.00 C 41.41 24.33 42.84 26.67 44.26 29.00 C 42.83 31.33 41.41 33.67 39.99 36.01 C 41.17 36.00 42.35 35.99 43.53 35.98 C 46.33 31.29 49.20 26.64 52.02 21.97 C 50.79 21.98 49.56 22.03 48.33 22.12 C 47.59 23.48 46.80 24.81 46.01 26.13 C 45.18 24.76 44.34 23.39 43.52 22.01 C 42.35 22.01 41.17 22.00 40.00 22.00 M 15.43 35.05 C 16.77 36.07 18.44 36.01 20.03 36.11 C 19.18 34.66 18.32 33.22 17.46 31.78 C 16.77 32.86 16.10 33.95 15.43 35.05 M 31.43 35.05 C 32.77 36.06 34.44 36.01 36.03 36.11 C 35.18 34.66 34.32 33.22 33.46 31.78 C 32.77 32.86 32.10 33.95 31.43 35.05 M 47.44 35.04 C 48.76 36.08 50.44 36.00 52.03 36.11 C 51.18 34.66 50.32 33.22 49.47 31.78 C 48.77 32.86 48.10 33.94 47.44 35.04 Z" />
</g>
</svg>
