<?xml version="1.0" encoding="UTF-8" ?>
<!DOCTYPE svg PUBLIC "-//W3C//DTD SVG 1.1//EN" "http://www.w3.org/Graphics/SVG/1.1/DTD/svg11.dtd">
<svg width="60pt" height="60pt" viewBox="0 0 60 60" version="1.1" xmlns="http://www.w3.org/2000/svg">
<g id="#ffffffff">
<path fill="#ffffff" opacity="1.00" d=" M 0.00 0.00 L 60.00 0.00 L 60.00 60.00 L 0.00 60.00 L 0.00 0.00 M 16.58 10.60 C 10.36 15.27 7.04 23.43 8.25 31.11 C 9.00 37.05 12.49 42.37 17.22 45.96 C 15.21 47.96 13.23 49.99 11.19 51.95 C 9.50 52.24 7.16 51.39 6.10 53.19 C 5.47 55.00 7.20 56.31 8.89 55.99 C 22.96 56.01 37.03 56.01 51.10 55.99 C 52.76 56.31 54.52 55.02 53.91 53.22 C 52.89 51.40 50.53 52.23 48.85 51.95 C 46.79 49.99 44.79 47.96 42.80 45.94 C 48.09 41.95 51.73 35.72 51.95 29.03 C 52.48 20.48 47.41 11.93 39.67 8.26 C 32.36 4.57 22.99 5.49 16.58 10.60 Z" />
<path fill="#ffffff" opacity="1.00" d=" M 24.91 11.86 C 29.23 12.51 33.79 13.76 36.81 17.13 C 39.41 19.81 40.29 23.56 40.71 27.15 C 42.74 26.05 44.56 24.61 46.12 22.91 C 45.47 27.25 44.22 31.82 40.82 34.84 C 38.15 37.42 34.42 38.28 30.85 38.71 C 31.94 40.76 33.40 42.56 35.09 44.13 C 30.77 43.46 26.19 42.23 23.17 38.84 C 20.57 36.17 19.70 32.43 19.29 28.85 C 17.24 29.93 15.44 31.40 13.86 33.10 C 14.51 28.76 15.76 24.18 19.16 21.16 C 21.83 18.57 25.57 17.71 29.15 17.29 C 28.06 15.24 26.60 13.44 24.91 11.86 Z" />
<path fill="#ffffff" opacity="1.00" d=" M 16.86 52.00 C 18.19 50.65 19.50 49.27 20.92 48.02 C 26.68 50.66 33.41 50.53 39.19 48.04 C 40.53 49.35 41.86 50.67 43.18 51.99 C 34.41 52.01 25.64 52.00 16.86 52.00 Z" />
</g>
<g id="#000000ff">
<path fill="#968176" opacity="1.00" d=" M 16.58 10.60 C 22.99 5.49 32.36 4.57 39.67 8.26 C 47.41 11.93 52.48 20.48 51.95 29.03 C 51.73 35.72 48.09 41.95 42.80 45.94 C 44.79 47.96 46.79 49.99 48.85 51.95 C 50.53 52.23 52.89 51.40 53.91 53.22 C 54.52 55.02 52.76 56.31 51.10 55.99 C 37.03 56.01 22.96 56.01 8.89 55.99 C 7.20 56.31 5.47 55.00 6.10 53.19 C 7.16 51.39 9.50 52.24 11.19 51.95 C 13.23 49.99 15.21 47.96 17.22 45.96 C 12.49 42.37 9.00 37.05 8.25 31.11 C 7.04 23.43 10.36 15.27 16.58 10.60 M 24.91 11.86 C 26.60 13.44 28.06 15.24 29.15 17.29 C 25.57 17.71 21.83 18.57 19.16 21.16 C 15.76 24.18 14.51 28.76 13.86 33.10 C 15.44 31.40 17.24 29.93 19.29 28.85 C 19.70 32.43 20.57 36.17 23.17 38.84 C 26.19 42.23 30.77 43.46 35.09 44.13 C 33.40 42.56 31.94 40.76 30.85 38.71 C 34.42 38.28 38.15 37.42 40.82 34.84 C 44.22 31.82 45.47 27.25 46.12 22.91 C 44.56 24.61 42.74 26.05 40.71 27.15 C 40.29 23.56 39.41 19.81 36.81 17.13 C 33.79 13.76 29.23 12.51 24.91 11.86 M 16.86 52.00 C 25.64 52.00 34.41 52.01 43.18 51.99 C 41.86 50.67 40.53 49.35 39.19 48.04 C 33.41 50.53 26.68 50.66 20.92 48.02 C 19.50 49.27 18.19 50.65 16.86 52.00 Z" />
</g>
</svg>
