<?xml version="1.0" encoding="UTF-8" ?>
<!DOCTYPE svg PUBLIC "-//W3C//DTD SVG 1.1//EN" "http://www.w3.org/Graphics/SVG/1.1/DTD/svg11.dtd">
<svg width="64pt" height="64pt" viewBox="0 0 64 64" version="1.1" xmlns="http://www.w3.org/2000/svg">
<g id="#ffffffff">
<path fill="#ffffff" opacity="1.00" d=" M 0.00 0.00 L 64.00 0.00 L 64.00 15.42 C 63.69 9.99 58.55 5.42 53.09 6.07 C 48.63 6.31 45.31 9.93 44.03 13.98 C 31.36 14.02 18.68 13.99 6.00 14.00 C 6.00 26.00 6.00 38.00 6.00 50.00 C 23.33 50.00 40.67 50.00 58.00 50.00 C 58.16 43.08 57.68 36.11 58.21 29.21 C 60.27 25.30 63.16 21.74 64.00 17.26 L 64.00 64.00 L 0.00 64.00 L 0.00 0.00 Z" />
<path fill="#ffffff" opacity="1.00" d=" M 48.21 17.09 C 47.19 13.55 50.44 9.87 54.02 9.99 C 57.59 9.90 60.80 13.59 59.79 17.11 C 58.74 21.06 56.40 24.51 54.01 27.77 C 51.64 24.48 49.29 21.04 48.21 17.09 M 53.18 14.17 C 50.80 15.12 52.47 18.95 54.81 17.86 C 57.19 16.90 55.54 13.01 53.18 14.17 Z" />
<path fill="#ffffff" opacity="1.00" d=" M 14.64 18.05 C 24.49 17.94 34.34 18.03 44.20 18.00 C 44.49 18.96 44.79 19.91 45.08 20.87 C 40.73 23.78 36.38 26.68 32.02 29.58 C 26.22 25.74 20.45 21.87 14.64 18.05 Z" />
<path fill="#ffffff" opacity="1.00" d=" M 10.00 19.74 C 17.34 24.63 24.68 29.52 32.01 34.42 C 37.00 31.12 41.94 27.74 46.95 24.47 C 49.11 27.86 51.40 31.17 53.98 34.25 C 54.02 38.16 53.99 42.08 54.00 46.00 C 39.33 46.00 24.67 46.00 10.00 46.00 C 10.00 37.25 10.00 28.49 10.00 19.74 Z" />
</g>
<g id="#000000ff">
<path fill="#000000" opacity="1.00" d=" M 44.03 13.98 C 45.31 9.93 48.63 6.31 53.09 6.07 C 58.55 5.42 63.69 9.99 64.00 15.42 L 64.00 17.26 C 63.16 21.74 60.27 25.30 58.21 29.21 C 57.68 36.11 58.16 43.08 58.00 50.00 C 40.67 50.00 23.33 50.00 6.00 50.00 C 6.00 38.00 6.00 26.00 6.00 14.00 C 18.68 13.99 31.36 14.02 44.03 13.98 M 48.21 17.09 C 49.29 21.04 51.64 24.48 54.01 27.77 C 56.40 24.51 58.74 21.06 59.79 17.11 C 60.80 13.59 57.59 9.90 54.02 9.99 C 50.44 9.87 47.19 13.55 48.21 17.09 M 14.64 18.05 C 20.45 21.87 26.22 25.74 32.02 29.58 C 36.38 26.68 40.73 23.78 45.08 20.87 C 44.79 19.91 44.49 18.96 44.20 18.00 C 34.34 18.03 24.49 17.94 14.64 18.05 M 10.00 19.74 C 10.00 28.49 10.00 37.25 10.00 46.00 C 24.67 46.00 39.33 46.00 54.00 46.00 C 53.99 42.08 54.02 38.16 53.98 34.25 C 51.40 31.17 49.11 27.86 46.95 24.47 C 41.94 27.74 37.00 31.12 32.01 34.42 C 24.68 29.52 17.34 24.63 10.00 19.74 Z" />
<path fill="#000000" opacity="1.00" d=" M 53.18 14.17 C 55.54 13.01 57.19 16.90 54.81 17.86 C 52.47 18.95 50.80 15.12 53.18 14.17 Z" />
</g>
</svg>
