<?xml version="1.0" encoding="UTF-8" ?>
<!DOCTYPE svg PUBLIC "-//W3C//DTD SVG 1.1//EN" "http://www.w3.org/Graphics/SVG/1.1/DTD/svg11.dtd">
<svg width="60pt" height="60pt" viewBox="0 0 60 60" version="1.1" xmlns="http://www.w3.org/2000/svg">
<g id="#ffffffff">
<path fill="#ffffff" opacity="1.00" d=" M 0.00 0.00 L 60.00 0.00 L 60.00 60.00 L 0.00 60.00 L 0.00 0.00 M 25.20 4.06 C 23.52 5.06 24.17 7.20 23.91 8.80 C 20.30 13.40 17.72 19.03 18.00 24.99 C 18.27 31.59 16.95 38.62 20.04 44.76 C 21.62 47.90 21.77 51.42 22.25 54.84 C 22.92 56.80 26.15 56.07 25.93 54.01 C 25.86 51.11 25.39 48.23 25.76 45.33 C 20.23 40.44 22.45 32.46 21.98 26.00 C 21.47 20.27 24.34 15.13 27.51 10.62 C 28.44 8.49 28.81 3.34 25.20 4.06 M 37.09 4.09 C 34.29 6.87 37.05 10.70 38.54 13.42 C 42.60 22.86 36.80 32.95 38.38 42.62 C 40.74 46.08 39.82 50.23 38.95 54.02 C 38.49 56.21 42.15 56.75 42.64 54.66 C 45.33 49.27 43.10 43.48 42.08 38.01 C 42.82 28.73 46.49 18.41 41.15 9.80 C 39.57 7.97 40.69 3.19 37.09 4.09 M 31.22 10.16 C 28.76 11.00 30.49 15.01 32.76 13.82 C 35.23 12.98 33.56 9.05 31.22 10.16 M 31.20 18.11 C 28.84 19.15 30.39 22.88 32.83 21.89 C 35.12 20.79 33.61 17.18 31.20 18.11 M 31.17 26.10 C 28.85 27.13 30.42 30.93 32.76 29.83 C 35.22 28.90 33.56 25.10 31.17 26.10 M 31.11 34.10 C 28.87 35.32 30.47 38.87 32.85 37.87 C 35.16 36.71 33.53 33.13 31.11 34.10 M 55.20 36.10 C 52.88 37.12 54.34 40.82 56.77 39.91 C 59.14 38.88 57.63 35.14 55.20 36.10 M 47.18 38.14 C 44.78 39.14 46.49 42.99 48.82 41.81 C 51.22 40.83 49.52 37.08 47.18 38.14 M 31.13 42.11 C 28.91 43.26 30.39 46.84 32.80 45.91 C 35.18 44.78 33.55 41.11 31.13 42.11 M 15.28 46.14 C 12.82 46.97 14.32 50.83 16.71 49.89 C 19.19 49.06 17.63 45.08 15.28 46.14 M 7.19 48.09 C 4.87 49.15 6.39 52.86 8.77 51.86 C 11.18 50.88 9.60 47.13 7.19 48.09 Z" />
</g>
<g id="#000000ff">
<path fill="#000000" opacity="1.00" d=" M 25.20 4.06 C 28.81 3.34 28.44 8.49 27.51 10.62 C 24.34 15.13 21.47 20.27 21.98 26.00 C 22.45 32.46 20.23 40.44 25.76 45.33 C 25.39 48.23 25.86 51.11 25.93 54.01 C 26.15 56.07 22.92 56.80 22.25 54.84 C 21.77 51.42 21.62 47.90 20.04 44.76 C 16.95 38.62 18.27 31.59 18.00 24.99 C 17.72 19.03 20.30 13.40 23.91 8.80 C 24.17 7.20 23.52 5.06 25.20 4.06 Z" />
<path fill="#000000" opacity="1.00" d=" M 37.09 4.09 C 40.69 3.19 39.57 7.97 41.15 9.80 C 46.49 18.41 42.82 28.73 42.08 38.01 C 43.10 43.48 45.33 49.27 42.64 54.66 C 42.15 56.75 38.49 56.21 38.95 54.02 C 39.82 50.23 40.74 46.08 38.38 42.62 C 36.80 32.95 42.60 22.86 38.54 13.42 C 37.05 10.70 34.29 6.87 37.09 4.09 Z" />
<path fill="#000000" opacity="1.00" d=" M 31.22 10.16 C 33.56 9.05 35.23 12.98 32.76 13.82 C 30.49 15.01 28.76 11.00 31.22 10.16 Z" />
<path fill="#000000" opacity="1.00" d=" M 31.20 18.11 C 33.61 17.18 35.12 20.79 32.83 21.89 C 30.39 22.88 28.84 19.15 31.20 18.11 Z" />
<path fill="#000000" opacity="1.00" d=" M 31.17 26.10 C 33.56 25.10 35.22 28.90 32.76 29.83 C 30.42 30.93 28.85 27.13 31.17 26.10 Z" />
<path fill="#000000" opacity="1.00" d=" M 31.11 34.10 C 33.53 33.13 35.16 36.71 32.85 37.87 C 30.47 38.87 28.87 35.32 31.11 34.10 Z" />
<path fill="#000000" opacity="1.00" d=" M 55.20 36.10 C 57.63 35.14 59.14 38.88 56.77 39.91 C 54.34 40.82 52.88 37.12 55.20 36.10 Z" />
<path fill="#000000" opacity="1.00" d=" M 47.18 38.14 C 49.52 37.08 51.22 40.83 48.82 41.81 C 46.49 42.99 44.78 39.14 47.18 38.14 Z" />
<path fill="#000000" opacity="1.00" d=" M 31.13 42.11 C 33.55 41.11 35.18 44.78 32.80 45.91 C 30.39 46.84 28.91 43.26 31.13 42.11 Z" />
<path fill="#000000" opacity="1.00" d=" M 15.28 46.14 C 17.63 45.08 19.19 49.06 16.71 49.89 C 14.32 50.83 12.82 46.97 15.28 46.14 Z" />
<path fill="#000000" opacity="1.00" d=" M 7.19 48.09 C 9.60 47.13 11.18 50.88 8.77 51.86 C 6.39 52.86 4.87 49.15 7.19 48.09 Z" />
</g>
</svg>
