<?xml version="1.0" encoding="UTF-8" ?>
<!DOCTYPE svg PUBLIC "-//W3C//DTD SVG 1.1//EN" "http://www.w3.org/Graphics/SVG/1.1/DTD/svg11.dtd">
<svg width="60pt" height="60pt" viewBox="0 0 60 60" version="1.1" xmlns="http://www.w3.org/2000/svg">
<g id="#ffffffff">
<path fill="#ffffff" opacity="1.00" d=" M 0.00 0.00 L 60.00 0.00 L 60.00 60.00 L 0.00 60.00 L 0.00 0.00 M 19.16 6.19 C 16.78 7.41 18.56 10.11 20.60 10.38 C 21.09 13.17 23.01 16.45 20.96 19.03 C 17.99 22.56 12.98 24.87 12.20 29.87 C 11.28 37.21 15.05 44.01 18.63 50.12 C 17.76 51.47 17.79 54.09 19.95 53.94 C 26.92 53.99 33.92 54.18 40.89 53.83 C 42.47 53.12 41.88 51.33 41.36 50.12 C 44.94 44.01 48.70 37.22 47.80 29.89 C 47.04 24.84 41.97 22.53 38.99 18.96 C 37.01 16.39 38.92 13.15 39.39 10.38 C 41.40 10.03 43.20 7.57 40.92 6.22 C 33.70 5.84 26.39 5.88 19.16 6.19 Z" />
</g>
<g id="#000000ff">
<path fill="#000000" opacity="1.00" d=" M 19.16 6.19 C 26.39 5.88 33.70 5.84 40.92 6.22 C 43.20 7.57 41.40 10.03 39.39 10.38 C 38.92 13.15 37.01 16.39 38.99 18.96 C 41.97 22.53 47.04 24.84 47.80 29.89 C 48.70 37.22 44.94 44.01 41.36 50.12 C 41.88 51.33 42.47 53.12 40.89 53.83 C 33.92 54.18 26.92 53.99 19.95 53.94 C 17.79 54.09 17.76 51.47 18.63 50.12 C 15.05 44.01 11.28 37.21 12.20 29.87 C 12.98 24.87 17.99 22.56 20.96 19.03 C 23.01 16.45 21.09 13.17 20.60 10.38 C 18.56 10.11 16.78 7.41 19.16 6.19 Z" />
</g>
</svg>
