<?xml version="1.0" encoding="UTF-8" ?>
<!DOCTYPE svg PUBLIC "-//W3C//DTD SVG 1.1//EN" "http://www.w3.org/Graphics/SVG/1.1/DTD/svg11.dtd">
<svg width="60pt" height="60pt" viewBox="0 0 60 60" version="1.1" xmlns="http://www.w3.org/2000/svg">
<g id="#ffffffff">
<path fill="#ffffff" opacity="1.00" d=" M 0.00 0.00 L 60.00 0.00 L 60.00 60.00 L 0.00 60.00 L 0.00 0.00 M 18.07 7.94 C 17.75 9.45 19.76 9.71 20.61 10.47 C 21.28 13.35 23.08 17.01 20.57 19.48 C 17.13 22.84 12.74 25.69 11.76 30.77 C 16.75 27.49 22.70 26.29 28.11 23.89 C 29.43 27.83 25.56 29.82 22.52 30.87 C 26.69 32.86 31.41 33.34 35.57 35.34 C 35.66 35.74 35.83 36.55 35.92 36.95 C 32.94 38.93 29.25 35.19 25.87 35.86 C 28.72 38.43 32.80 38.59 36.24 40.00 C 36.09 41.71 34.83 43.05 33.10 42.06 C 30.32 41.74 27.30 39.01 24.67 40.94 C 27.40 42.41 31.88 41.96 33.39 44.88 C 33.05 45.21 32.37 45.87 32.03 46.20 C 29.21 45.64 26.51 44.62 23.71 43.96 C 24.43 47.65 31.85 45.35 30.37 50.17 C 25.60 49.28 21.05 47.52 16.39 46.18 C 17.13 47.45 17.85 48.72 18.57 50.01 C 18.34 51.27 17.39 53.27 19.21 53.82 C 26.15 54.20 33.13 54.01 40.08 53.92 C 42.35 54.00 41.94 51.50 41.46 50.05 C 44.92 43.90 48.74 37.18 47.79 29.86 C 47.01 24.86 42.00 22.56 39.04 19.02 C 37.03 16.49 38.84 13.20 39.38 10.46 C 41.33 10.00 43.30 7.46 40.83 6.21 C 34.57 5.69 28.25 6.15 21.96 5.98 C 20.58 6.00 17.87 5.87 18.07 7.94 Z" />
</g>
<g id="#000000ff">
<path fill="#000000" opacity="1.00" d=" M 18.07 7.94 C 17.87 5.87 20.58 6.00 21.96 5.98 C 28.25 6.15 34.57 5.69 40.83 6.21 C 43.30 7.46 41.33 10.00 39.38 10.46 C 38.84 13.20 37.03 16.49 39.04 19.02 C 42.00 22.56 47.01 24.86 47.79 29.86 C 48.74 37.18 44.92 43.90 41.46 50.05 C 41.94 51.50 42.35 54.00 40.08 53.92 C 33.13 54.01 26.15 54.20 19.21 53.82 C 17.39 53.27 18.34 51.27 18.57 50.01 C 17.85 48.72 17.13 47.45 16.39 46.18 C 21.05 47.52 25.60 49.28 30.37 50.17 C 31.85 45.35 24.43 47.65 23.71 43.96 C 26.51 44.62 29.21 45.64 32.03 46.20 C 32.37 45.87 33.05 45.21 33.39 44.88 C 31.88 41.96 27.40 42.41 24.67 40.94 C 27.30 39.01 30.32 41.74 33.10 42.06 C 34.83 43.05 36.09 41.71 36.24 40.00 C 32.80 38.59 28.72 38.43 25.87 35.86 C 29.25 35.19 32.94 38.93 35.92 36.95 C 35.83 36.55 35.66 35.74 35.57 35.34 C 31.41 33.34 26.69 32.86 22.52 30.87 C 25.56 29.82 29.43 27.83 28.11 23.89 C 22.70 26.29 16.75 27.49 11.76 30.77 C 12.74 25.69 17.13 22.84 20.57 19.48 C 23.08 17.01 21.28 13.35 20.61 10.47 C 19.76 9.71 17.75 9.45 18.07 7.94 Z" />
</g>
</svg>
