<?xml version="1.0" encoding="UTF-8" ?>
<!DOCTYPE svg PUBLIC "-//W3C//DTD SVG 1.1//EN" "http://www.w3.org/Graphics/SVG/1.1/DTD/svg11.dtd">
<svg width="60pt" height="60pt" viewBox="0 0 60 60" version="1.1" xmlns="http://www.w3.org/2000/svg">
<g id="#ffffffff">
<path fill="#ffffff" opacity="1.00" d=" M 0.00 0.00 L 60.00 0.00 L 60.00 60.00 L 0.00 60.00 L 0.00 0.00 M 12.33 4.39 C 10.58 5.17 9.80 7.14 10.00 8.96 C 10.03 23.34 9.94 37.73 10.04 52.11 C 9.95 54.64 12.60 56.34 14.93 56.00 C 25.34 55.97 35.76 56.07 46.17 55.95 C 48.62 55.95 50.35 53.40 50.00 51.08 C 49.84 39.43 50.34 27.72 49.75 16.10 C 45.98 11.96 41.97 8.01 37.86 4.22 C 29.40 3.95 20.73 3.63 12.33 4.39 Z" />
<path fill="#ffffff" opacity="1.00" d=" M 36.01 7.81 C 39.40 11.20 42.79 14.60 46.18 17.99 C 43.14 17.96 40.08 18.20 37.05 17.80 C 34.85 15.16 36.49 11.04 36.01 7.81 Z" />
<path fill="#ffffff" opacity="1.00" d=" M 27.02 22.96 C 31.04 20.84 36.47 22.44 38.70 26.39 C 41.27 30.43 39.79 36.33 35.63 38.68 C 32.70 40.57 28.95 40.19 25.97 38.63 C 25.98 41.38 26.18 44.15 25.81 46.88 C 25.02 48.71 21.88 48.11 22.07 46.04 C 22.00 40.75 21.81 35.44 22.18 30.16 C 22.97 28.22 25.99 28.90 25.92 31.03 C 26.12 34.42 29.77 37.18 33.02 35.56 C 36.43 34.22 37.03 29.06 33.98 27.00 C 31.98 25.26 29.33 26.57 27.03 26.63 C 25.43 26.06 25.39 23.50 27.02 22.96 Z" />
</g>
<g id="#000000ff">
<path fill="#968176" opacity="1.00" d=" M 12.33 4.39 C 20.73 3.63 29.40 3.95 37.86 4.22 C 41.97 8.01 45.98 11.96 49.75 16.10 C 50.34 27.72 49.84 39.43 50.00 51.08 C 50.35 53.40 48.62 55.95 46.17 55.95 C 35.76 56.07 25.34 55.97 14.93 56.00 C 12.60 56.34 9.95 54.64 10.04 52.11 C 9.94 37.73 10.03 23.34 10.00 8.96 C 9.80 7.14 10.58 5.17 12.33 4.39 M 36.01 7.81 C 36.49 11.04 34.85 15.16 37.05 17.80 C 40.08 18.20 43.14 17.96 46.18 17.99 C 42.79 14.60 39.40 11.20 36.01 7.81 M 27.02 22.96 C 25.39 23.50 25.43 26.06 27.03 26.63 C 29.33 26.57 31.98 25.26 33.98 27.00 C 37.03 29.06 36.43 34.22 33.02 35.56 C 29.77 37.18 26.12 34.42 25.92 31.03 C 25.99 28.90 22.97 28.22 22.18 30.16 C 21.81 35.44 22.00 40.75 22.07 46.04 C 21.88 48.11 25.02 48.71 25.81 46.88 C 26.18 44.15 25.98 41.38 25.97 38.63 C 28.95 40.19 32.70 40.57 35.63 38.68 C 39.79 36.33 41.27 30.43 38.70 26.39 C 36.47 22.44 31.04 20.84 27.02 22.96 Z" />
</g>
</svg>
