<?xml version="1.0" encoding="UTF-8" ?>
<!DOCTYPE svg PUBLIC "-//W3C//DTD SVG 1.1//EN" "http://www.w3.org/Graphics/SVG/1.1/DTD/svg11.dtd">
<svg width="64pt" height="64pt" viewBox="0 0 64 64" version="1.1" xmlns="http://www.w3.org/2000/svg">
<g id="#ffffffff">
<path fill="#ffffff" opacity="1.00" d=" M 0.00 0.00 L 64.00 0.00 L 64.00 64.00 L 0.00 64.00 L 0.00 0.00 M 32.39 8.51 C 27.58 10.21 26.48 17.34 30.57 20.39 C 34.42 23.88 41.29 21.25 41.89 16.12 C 42.97 11.01 37.15 6.32 32.39 8.51 M 19.49 31.41 C 18.23 34.77 15.39 38.64 17.84 42.16 C 20.72 45.30 24.60 47.31 27.87 50.00 C 23.25 50.00 18.62 50.00 14.00 50.00 C 14.00 51.33 14.00 52.67 14.00 54.00 C 19.69 53.94 25.37 54.12 31.06 53.93 C 33.05 54.04 34.43 51.81 33.84 50.00 C 30.35 45.44 23.90 43.68 20.80 38.95 C 22.06 35.37 23.52 31.81 25.30 28.45 C 27.40 26.93 28.35 30.31 29.35 31.58 C 31.11 34.15 32.58 39.30 36.68 37.68 C 40.13 34.71 42.54 30.66 45.56 27.25 C 44.51 26.42 43.47 25.58 42.44 24.75 C 40.05 27.71 37.67 30.68 35.27 33.64 C 32.56 30.23 31.33 23.88 25.98 24.04 C 22.00 24.13 20.78 28.40 19.49 31.41 Z" />
<path fill="#ffffff" opacity="1.00" d=" M 33.35 12.53 C 34.86 11.40 37.27 12.24 37.82 14.04 C 38.72 16.25 36.18 18.78 33.98 17.78 C 31.74 17.13 31.33 13.70 33.35 12.53 Z" />
</g>
<g id="#000000ff">
<path fill="#000000" opacity="1.00" d=" M 32.39 8.51 C 37.15 6.32 42.97 11.01 41.89 16.12 C 41.29 21.25 34.42 23.88 30.57 20.39 C 26.48 17.34 27.58 10.21 32.39 8.51 M 33.35 12.53 C 31.33 13.70 31.74 17.13 33.98 17.78 C 36.18 18.78 38.72 16.25 37.82 14.04 C 37.27 12.24 34.86 11.40 33.35 12.53 Z" />
<path fill="#000000" opacity="1.00" d=" M 19.49 31.41 C 20.78 28.40 22.00 24.13 25.98 24.04 C 31.33 23.88 32.56 30.23 35.27 33.64 C 37.67 30.68 40.05 27.71 42.44 24.75 C 43.47 25.58 44.51 26.42 45.56 27.25 C 42.54 30.66 40.13 34.71 36.68 37.68 C 32.58 39.30 31.11 34.15 29.35 31.58 C 28.35 30.31 27.40 26.93 25.30 28.45 C 23.52 31.81 22.06 35.37 20.80 38.95 C 23.90 43.68 30.35 45.44 33.84 50.00 C 34.43 51.81 33.05 54.04 31.06 53.93 C 25.37 54.12 19.69 53.94 14.00 54.00 C 14.00 52.67 14.00 51.33 14.00 50.00 C 18.62 50.00 23.25 50.00 27.87 50.00 C 24.60 47.31 20.72 45.30 17.84 42.16 C 15.39 38.64 18.23 34.77 19.49 31.41 Z" />
</g>
</svg>
