<?xml version="1.0" encoding="UTF-8" ?>
<!DOCTYPE svg PUBLIC "-//W3C//DTD SVG 1.1//EN" "http://www.w3.org/Graphics/SVG/1.1/DTD/svg11.dtd">
<svg width="200pt" height="200pt" viewBox="0 0 200 200" version="1.1" xmlns="http://www.w3.org/2000/svg">
<g id="#ffffffff">
<path fill="#ffffff" opacity="1.00" d=" M 0.00 0.00 L 200.00 0.00 L 200.00 200.00 L 0.00 200.00 L 0.00 0.00 M 88.42 7.96 C 88.42 13.80 88.42 19.64 88.42 25.48 C 91.94 25.62 95.51 25.15 99.00 25.76 L 99.59 26.97 C 99.35 27.35 98.86 28.11 98.62 28.48 C 95.23 28.79 91.82 28.54 88.42 28.61 C 88.43 30.25 88.42 31.90 88.42 33.54 C 90.19 33.71 92.21 33.11 93.78 34.16 C 94.92 37.54 90.32 36.59 88.42 36.72 C 88.43 38.35 88.42 39.98 88.41 41.60 C 90.28 41.91 93.33 40.68 94.08 43.12 C 93.49 45.75 90.29 44.43 88.43 44.78 C 88.43 46.41 88.43 48.04 88.41 49.67 C 90.16 49.82 92.11 49.29 93.69 50.20 C 95.13 53.58 90.32 52.77 88.42 52.84 C 88.42 54.48 88.42 56.12 88.42 57.75 C 91.96 57.82 95.52 57.54 99.05 57.95 C 99.16 58.44 99.37 59.42 99.47 59.91 C 96.52 62.03 91.99 60.34 88.44 60.86 C 88.44 62.51 88.42 64.15 88.41 65.79 C 90.14 65.96 92.09 65.39 93.65 66.31 C 95.14 69.65 90.38 68.94 88.42 68.96 C 88.42 70.59 88.42 72.22 88.42 73.85 C 89.95 73.86 91.49 73.81 93.01 73.98 C 94.40 74.51 94.23 76.34 92.98 76.89 C 91.46 77.08 89.93 77.01 88.41 77.03 C 88.41 78.66 88.42 80.29 88.42 81.91 C 90.37 82.17 93.86 80.94 94.06 83.88 C 92.92 85.88 90.29 84.80 88.42 85.09 C 88.42 86.72 88.42 88.35 88.41 89.99 C 92.57 90.09 96.73 89.82 100.88 90.10 C 102.80 90.49 101.95 93.47 100.16 93.09 C 96.25 93.21 92.35 93.08 88.44 93.12 C 88.42 94.73 88.39 96.34 88.35 97.95 C 89.90 97.99 91.47 97.94 93.00 98.21 C 94.37 98.63 94.24 100.73 92.93 101.07 C 91.43 101.26 89.92 101.19 88.42 101.21 C 88.42 102.84 88.42 104.46 88.42 106.09 C 89.92 106.06 91.42 106.10 92.91 106.22 C 94.37 106.55 94.30 108.82 92.92 109.13 C 91.42 109.32 89.91 109.25 88.41 109.27 C 88.42 110.90 88.43 112.53 88.42 114.16 C 90.26 114.38 92.48 113.61 93.98 115.02 C 94.37 118.27 90.42 117.12 88.42 117.33 C 88.42 118.97 88.43 120.61 88.42 122.25 C 92.55 122.34 96.68 122.08 100.80 122.34 C 102.35 122.50 102.33 125.04 100.88 125.25 C 96.73 125.56 92.57 125.28 88.42 125.38 C 88.36 130.54 88.57 135.71 88.28 140.87 C 77.36 146.09 70.90 159.04 73.69 170.89 C 76.15 183.70 88.93 193.39 101.94 192.24 C 115.08 191.62 126.52 180.16 127.10 167.01 C 127.93 156.82 122.30 146.56 113.35 141.64 C 111.01 140.78 112.08 137.89 111.83 135.99 C 111.87 93.31 111.83 50.63 111.85 7.95 C 104.04 7.95 96.23 7.95 88.42 7.96 Z" />
<path fill="#ffffff" opacity="1.00" d=" M 96.17 144.10 C 106.39 141.97 117.40 148.50 120.53 158.44 C 123.14 165.95 121.06 174.79 115.41 180.39 C 109.99 185.97 101.40 188.20 93.96 185.87 C 84.67 183.25 77.95 173.76 78.65 164.11 C 78.99 154.45 86.66 145.74 96.17 144.10 M 94.46 147.74 C 86.80 150.11 81.30 157.93 81.74 165.95 C 81.91 174.03 88.06 181.47 95.95 183.18 C 103.96 185.22 112.93 180.98 116.54 173.57 C 119.97 167.04 118.86 158.53 113.91 153.08 C 109.23 147.65 101.26 145.47 94.46 147.74 Z" />
</g>
<g id="#000000ff">
<path fill="#968176" opacity="1.00" d=" M 88.42 7.96 C 96.23 7.95 104.04 7.95 111.85 7.95 C 111.83 50.63 111.87 93.31 111.83 135.99 C 112.08 137.89 111.01 140.78 113.35 141.64 C 122.30 146.56 127.93 156.82 127.10 167.01 C 126.52 180.16 115.08 191.62 101.94 192.24 C 88.93 193.39 76.15 183.70 73.69 170.89 C 70.90 159.04 77.36 146.09 88.28 140.87 C 88.57 135.71 88.36 130.54 88.42 125.38 C 92.57 125.28 96.73 125.56 100.88 125.25 C 102.33 125.04 102.35 122.50 100.80 122.34 C 96.68 122.08 92.55 122.34 88.42 122.25 C 88.43 120.61 88.42 118.97 88.42 117.33 C 90.42 117.12 94.37 118.27 93.98 115.02 C 92.48 113.61 90.26 114.38 88.42 114.16 C 88.43 112.53 88.42 110.90 88.41 109.27 C 89.91 109.25 91.42 109.32 92.92 109.13 C 94.30 108.82 94.37 106.55 92.91 106.22 C 91.42 106.10 89.92 106.06 88.42 106.09 C 88.42 104.46 88.42 102.84 88.42 101.21 C 89.92 101.19 91.43 101.26 92.93 101.07 C 94.24 100.73 94.37 98.63 93.00 98.21 C 91.47 97.94 89.90 97.99 88.35 97.95 C 88.39 96.34 88.42 94.73 88.44 93.12 C 92.35 93.08 96.25 93.21 100.16 93.09 C 101.95 93.47 102.80 90.49 100.88 90.10 C 96.73 89.82 92.57 90.09 88.41 89.99 C 88.42 88.35 88.42 86.72 88.42 85.09 C 90.29 84.80 92.92 85.88 94.06 83.88 C 93.86 80.94 90.37 82.17 88.42 81.91 C 88.42 80.29 88.41 78.66 88.41 77.03 C 89.93 77.01 91.46 77.08 92.98 76.89 C 94.23 76.34 94.40 74.51 93.01 73.98 C 91.49 73.81 89.95 73.86 88.42 73.85 C 88.42 72.22 88.42 70.59 88.42 68.96 C 90.38 68.94 95.14 69.65 93.65 66.31 C 92.09 65.39 90.14 65.96 88.41 65.79 C 88.42 64.15 88.44 62.51 88.44 60.86 C 91.99 60.34 96.52 62.03 99.47 59.91 C 99.37 59.42 99.16 58.44 99.05 57.95 C 95.52 57.54 91.96 57.82 88.42 57.75 C 88.42 56.12 88.42 54.48 88.42 52.84 C 90.32 52.77 95.13 53.58 93.69 50.20 C 92.11 49.29 90.16 49.82 88.41 49.67 C 88.43 48.04 88.43 46.41 88.43 44.78 C 90.29 44.43 93.49 45.75 94.08 43.12 C 93.33 40.68 90.28 41.91 88.41 41.60 C 88.42 39.98 88.43 38.35 88.42 36.72 C 90.32 36.59 94.92 37.54 93.78 34.16 C 92.21 33.11 90.19 33.71 88.42 33.54 C 88.42 31.90 88.43 30.25 88.42 28.61 C 91.82 28.54 95.23 28.79 98.62 28.48 C 98.86 28.11 99.35 27.35 99.59 26.97 L 99.00 25.76 C 95.51 25.15 91.94 25.62 88.42 25.48 C 88.42 19.64 88.42 13.80 88.42 7.96 M 96.17 144.10 C 86.66 145.74 78.99 154.45 78.65 164.11 C 77.95 173.76 84.67 183.25 93.96 185.87 C 101.40 188.20 109.99 185.97 115.41 180.39 C 121.06 174.79 123.14 165.95 120.53 158.44 C 117.40 148.50 106.39 141.97 96.17 144.10 Z" />
<path fill="#968176" opacity="1.00" d=" M 94.46 147.74 C 101.26 145.47 109.23 147.65 113.91 153.08 C 118.86 158.53 119.97 167.04 116.54 173.57 C 112.93 180.98 103.96 185.22 95.95 183.18 C 88.06 181.47 81.91 174.03 81.74 165.95 C 81.30 157.93 86.80 150.11 94.46 147.74 Z" />
</g>
</svg>
