<?xml version="1.0" encoding="UTF-8" ?>
<!DOCTYPE svg PUBLIC "-//W3C//DTD SVG 1.1//EN" "http://www.w3.org/Graphics/SVG/1.1/DTD/svg11.dtd">
<svg width="64pt" height="64pt" viewBox="0 0 64 64" version="1.1" xmlns="http://www.w3.org/2000/svg">
<g id="#ffffffff">
<path fill="#ffffff" opacity="1.00" d=" M 0.00 0.00 L 64.00 0.00 L 64.00 64.00 L 0.00 64.00 L 0.00 0.00 M 26.48 6.60 C 14.12 9.05 4.81 21.48 6.10 34.05 C 6.82 46.42 17.57 57.16 29.94 57.90 C 42.51 59.17 54.93 49.88 57.39 37.52 C 59.42 28.58 56.22 18.74 49.35 12.67 C 43.29 7.12 34.50 4.82 26.48 6.60 Z" />
<path fill="#ffffff" opacity="1.00" d=" M 26.46 10.70 C 33.62 8.82 41.67 10.82 47.04 15.93 C 52.23 20.75 54.84 28.17 53.75 35.18 C 52.70 43.04 46.99 50.04 39.51 52.66 C 32.34 55.33 23.83 53.88 17.98 48.94 C 12.14 44.22 9.11 36.35 10.23 28.92 C 11.30 20.30 18.04 12.79 26.46 10.70 M 33.11 27.91 C 30.03 27.61 27.61 30.02 27.91 33.10 C 26.89 34.23 25.83 35.32 24.75 36.39 C 22.26 35.81 19.52 35.92 17.63 37.86 C 18.90 38.79 19.93 40.59 21.80 40.15 C 24.03 39.76 24.04 42.22 23.75 43.71 C 24.58 44.59 25.41 45.47 26.24 46.35 C 27.90 44.42 28.30 41.81 27.54 39.40 C 28.63 38.26 29.73 37.15 30.89 36.08 C 33.94 36.37 36.35 33.94 36.09 30.89 C 38.46 28.32 41.00 25.91 43.45 23.42 C 42.49 22.47 41.52 21.52 40.57 20.56 C 38.08 23.01 35.68 25.54 33.11 27.91 Z" />
</g>
<g id="#000000ff">
<path fill="#000000" opacity="1.00" d=" M 26.48 6.60 C 34.50 4.82 43.29 7.12 49.35 12.67 C 56.22 18.74 59.42 28.58 57.39 37.52 C 54.93 49.88 42.51 59.17 29.94 57.90 C 17.57 57.16 6.82 46.42 6.10 34.05 C 4.81 21.48 14.12 9.05 26.48 6.60 M 26.46 10.70 C 18.04 12.79 11.30 20.30 10.23 28.92 C 9.11 36.35 12.14 44.22 17.98 48.94 C 23.83 53.88 32.34 55.33 39.51 52.66 C 46.99 50.04 52.70 43.04 53.75 35.18 C 54.84 28.17 52.23 20.75 47.04 15.93 C 41.67 10.82 33.62 8.82 26.46 10.70 Z" />
<path fill="#000000" opacity="1.00" d=" M 33.11 27.91 C 35.68 25.54 38.08 23.01 40.57 20.56 C 41.52 21.52 42.49 22.47 43.45 23.42 C 41.00 25.91 38.46 28.32 36.09 30.89 C 36.35 33.94 33.94 36.37 30.89 36.08 C 29.73 37.15 28.63 38.26 27.54 39.40 C 28.30 41.81 27.90 44.42 26.24 46.35 C 25.41 45.47 24.58 44.59 23.75 43.71 C 24.04 42.22 24.03 39.76 21.80 40.15 C 19.93 40.59 18.90 38.79 17.63 37.86 C 19.52 35.92 22.26 35.81 24.75 36.39 C 25.83 35.32 26.89 34.23 27.91 33.10 C 27.61 30.02 30.03 27.61 33.11 27.91 Z" />
</g>
</svg>
