<?xml version="1.0" encoding="UTF-8" ?>
<!DOCTYPE svg PUBLIC "-//W3C//DTD SVG 1.1//EN" "http://www.w3.org/Graphics/SVG/1.1/DTD/svg11.dtd">
<svg width="64pt" height="64pt" viewBox="0 0 64 64" version="1.1" xmlns="http://www.w3.org/2000/svg">
<g id="#ffffffff">
<path fill="#ffffff" opacity="1.00" d=" M 0.00 0.00 L 64.00 0.00 L 64.00 64.00 L 0.00 64.00 L 0.00 0.00 M 11.65 16.67 C 7.34 20.92 7.13 27.89 9.61 33.14 C 11.54 37.43 15.19 40.65 19.19 42.97 C 16.18 44.90 13.15 46.80 9.96 48.44 C 10.56 49.65 11.15 50.87 11.73 52.09 C 15.84 49.92 19.77 47.42 23.58 44.76 C 29.03 46.37 34.88 46.36 40.33 44.79 C 44.10 47.49 47.98 50.04 52.11 52.17 C 52.70 50.99 53.30 49.82 53.91 48.64 C 50.81 46.88 47.60 45.23 44.90 42.87 C 52.45 39.00 58.01 30.06 55.30 21.52 C 52.17 12.43 39.87 9.67 32.00 14.16 C 25.59 10.60 16.98 11.61 11.65 16.67 Z" />
<path fill="#ffffff" opacity="1.00" d=" M 14.92 19.02 C 18.70 15.97 24.08 15.30 28.62 16.92 C 24.40 21.91 26.03 29.04 29.46 33.97 C 27.41 36.23 25.17 38.32 22.82 40.27 C 18.89 38.40 15.14 35.67 13.29 31.60 C 11.40 27.61 11.35 22.11 14.92 19.02 Z" />
<path fill="#ffffff" opacity="1.00" d=" M 35.38 16.92 C 39.88 15.31 45.23 15.96 49.00 18.97 C 52.44 21.84 52.63 27.03 50.96 30.91 C 49.15 35.26 45.25 38.33 41.06 40.24 C 38.76 38.29 36.56 36.23 34.55 33.98 C 37.97 29.04 39.60 21.91 35.38 16.92 Z" />
<path fill="#ffffff" opacity="1.00" d=" M 32.39 30.09 C 29.34 27.52 29.27 22.10 32.00 19.16 C 34.93 22.23 34.02 26.64 32.39 30.09 Z" />
<path fill="#ffffff" opacity="1.00" d=" M 27.51 41.67 C 29.03 40.20 30.53 38.72 32.01 37.21 C 33.46 38.71 34.94 40.19 36.42 41.66 C 33.46 42.05 30.47 42.04 27.51 41.67 Z" />
</g>
<g id="#000000ff">
<path fill="#000000" opacity="1.00" d=" M 11.65 16.67 C 16.98 11.61 25.59 10.60 32.00 14.16 C 39.87 9.67 52.17 12.43 55.30 21.52 C 58.01 30.06 52.45 39.00 44.90 42.87 C 47.60 45.23 50.81 46.88 53.91 48.64 C 53.30 49.82 52.70 50.99 52.11 52.17 C 47.98 50.04 44.10 47.49 40.33 44.79 C 34.88 46.36 29.03 46.37 23.58 44.76 C 19.77 47.42 15.84 49.92 11.73 52.09 C 11.15 50.87 10.56 49.65 9.96 48.44 C 13.15 46.80 16.18 44.90 19.19 42.97 C 15.19 40.65 11.54 37.43 9.61 33.14 C 7.13 27.89 7.34 20.92 11.65 16.67 M 14.92 19.02 C 11.35 22.11 11.40 27.61 13.29 31.60 C 15.14 35.67 18.89 38.40 22.82 40.27 C 25.17 38.32 27.41 36.23 29.46 33.97 C 26.03 29.04 24.40 21.91 28.62 16.92 C 24.08 15.30 18.70 15.97 14.92 19.02 M 35.38 16.92 C 39.60 21.91 37.97 29.04 34.55 33.98 C 36.56 36.23 38.76 38.29 41.06 40.24 C 45.25 38.33 49.15 35.26 50.96 30.91 C 52.63 27.03 52.44 21.84 49.00 18.97 C 45.23 15.96 39.88 15.31 35.38 16.92 M 32.39 30.09 C 34.02 26.64 34.93 22.23 32.00 19.16 C 29.27 22.10 29.34 27.52 32.39 30.09 M 27.51 41.67 C 30.47 42.04 33.46 42.05 36.42 41.66 C 34.94 40.19 33.46 38.71 32.01 37.21 C 30.53 38.72 29.03 40.20 27.51 41.67 Z" />
</g>
</svg>
