<?xml version="1.0" encoding="UTF-8" ?>
<!DOCTYPE svg PUBLIC "-//W3C//DTD SVG 1.1//EN" "http://www.w3.org/Graphics/SVG/1.1/DTD/svg11.dtd">
<svg width="136pt" height="141pt" viewBox="0 0 136 141" version="1.1" xmlns="http://www.w3.org/2000/svg">
<g id="#fffffff">
<path fill="#ffffff" opacity="1.00" d=" M 0.00 0.00 L 136.00 0.00 L 136.00 141.00 L 0.00 141.00 L 0.00 0.00 M 55.45 19.26 C 50.44 23.04 48.36 30.24 50.74 36.08 C 52.18 40.35 55.90 43.37 59.98 44.99 C 62.94 45.81 66.10 45.78 69.07 45.00 C 73.72 43.17 77.74 39.33 78.78 34.30 C 80.91 26.66 75.49 18.09 67.80 16.46 C 63.53 15.65 58.82 16.36 55.45 19.26 M 47.11 45.15 C 46.09 45.54 45.08 45.92 44.06 46.30 C 35.44 49.77 28.95 57.37 26.07 66.12 C 24.76 70.39 22.67 74.53 22.39 79.04 C 21.91 83.23 26.84 86.66 30.59 84.67 C 33.50 83.77 34.16 80.58 35.27 78.14 C 35.53 76.56 35.81 74.98 36.12 73.41 C 36.21 75.56 36.17 77.72 35.79 79.85 C 35.73 81.48 35.68 83.12 35.62 84.76 C 37.07 85.05 38.53 85.20 40.01 85.22 C 53.98 85.18 67.95 85.22 81.93 85.20 C 85.76 85.16 89.61 85.43 93.42 84.86 C 93.37 82.78 93.35 80.70 93.28 78.62 C 92.88 77.15 92.53 75.58 93.54 74.28 C 93.58 75.22 93.58 76.17 93.54 77.11 C 94.62 80.05 95.33 84.02 98.91 84.86 C 103.66 86.80 108.07 81.33 106.37 76.85 C 104.06 69.32 102.07 61.32 96.89 55.16 C 93.81 51.18 89.49 48.33 84.94 46.29 C 83.92 45.92 82.90 45.54 81.89 45.16 C 79.84 44.66 77.25 43.51 75.47 45.22 C 68.86 50.64 58.35 50.07 52.20 44.20 C 50.49 44.41 48.78 44.69 47.11 45.15 M 10.01 93.37 C 12.64 95.11 14.14 98.71 17.59 98.86 C 17.63 97.41 17.52 95.98 17.27 94.55 C 20.39 94.63 23.51 94.71 26.63 94.57 L 27.33 93.00 L 26.64 91.42 C 23.50 91.26 20.36 91.36 17.22 91.43 C 17.49 90.02 18.65 87.29 16.26 87.11 C 13.76 88.68 11.67 90.93 10.01 93.37 M 36.17 88.51 C 36.34 90.38 36.59 92.24 37.01 94.07 C 37.55 96.76 38.29 99.40 39.31 101.94 C 41.22 107.26 44.42 111.98 48.05 116.28 C 46.25 116.34 44.45 116.41 42.65 116.46 C 41.20 118.33 41.35 120.55 42.85 122.34 C 49.47 122.39 56.10 122.36 62.72 122.36 C 62.70 112.65 62.80 102.94 62.67 93.23 C 63.90 93.18 65.13 93.15 66.36 93.12 C 66.29 102.87 66.34 112.62 66.34 122.37 C 72.69 122.37 79.05 122.37 85.41 122.37 C 85.91 122.04 86.90 121.38 87.39 121.05 C 87.62 119.41 87.35 117.82 86.39 116.44 C 84.59 116.39 82.79 116.34 80.99 116.28 C 84.74 112.08 87.78 107.28 89.81 102.02 C 90.15 101.02 90.48 100.02 90.81 99.03 C 91.24 97.67 91.56 96.28 91.98 94.92 C 92.47 92.82 92.70 90.67 92.86 88.52 C 73.96 88.51 55.07 88.54 36.17 88.51 M 111.77 91.42 C 108.06 91.33 104.35 91.37 100.64 91.37 C 100.64 92.18 100.64 93.80 100.64 94.61 C 104.33 94.61 108.03 94.65 111.72 94.56 C 111.50 95.96 111.37 97.38 111.33 98.80 C 114.95 98.75 116.54 94.99 119.12 93.01 C 116.98 91.07 115.28 88.58 112.76 87.10 C 110.35 87.27 111.49 90.01 111.77 91.42 Z" />
</g>
<g id="#000000ff">
<path fill="#968176" opacity="1.00" d=" M 55.45 19.26 C 58.82 16.36 63.53 15.65 67.80 16.46 C 75.49 18.09 80.91 26.66 78.78 34.30 C 77.74 39.33 73.72 43.17 69.07 45.00 C 66.10 45.78 62.94 45.81 59.98 44.99 C 55.90 43.37 52.18 40.35 50.74 36.08 C 48.36 30.24 50.44 23.04 55.45 19.26 Z" />
<path fill="#968176" opacity="1.00" d=" M 47.11 45.15 C 48.78 44.69 50.49 44.41 52.20 44.20 C 58.35 50.07 68.86 50.64 75.47 45.22 C 77.25 43.51 79.84 44.66 81.89 45.16 C 82.90 45.54 83.92 45.92 84.94 46.29 C 89.49 48.33 93.81 51.18 96.89 55.16 C 102.07 61.32 104.06 69.32 106.37 76.85 C 108.07 81.33 103.66 86.80 98.91 84.86 C 95.33 84.02 94.62 80.05 93.54 77.11 C 93.58 76.17 93.58 75.22 93.54 74.28 C 92.53 75.58 92.88 77.15 93.28 78.62 C 93.35 80.70 93.37 82.78 93.42 84.86 C 89.61 85.43 85.76 85.16 81.93 85.20 C 67.95 85.22 53.98 85.18 40.01 85.22 C 38.53 85.20 37.07 85.05 35.62 84.76 C 35.68 83.12 35.73 81.48 35.79 79.85 C 36.17 77.72 36.21 75.56 36.12 73.41 C 35.81 74.98 35.53 76.56 35.27 78.14 C 34.16 80.58 33.50 83.77 30.59 84.67 C 26.84 86.66 21.91 83.23 22.39 79.04 C 22.67 74.53 24.76 70.39 26.07 66.12 C 28.95 57.37 35.44 49.77 44.06 46.30 C 45.08 45.92 46.09 45.54 47.11 45.15 Z" />
<path fill="#968176" opacity="1.00" d=" M 10.01 93.37 C 11.67 90.93 13.76 88.68 16.26 87.11 C 18.65 87.29 17.49 90.02 17.22 91.43 C 20.36 91.36 23.50 91.26 26.64 91.42 L 27.33 93.00 L 26.63 94.57 C 23.51 94.71 20.39 94.63 17.27 94.55 C 17.52 95.98 17.63 97.41 17.59 98.86 C 14.14 98.71 12.64 95.11 10.01 93.37 Z" />
<path fill="#968176" opacity="1.00" d=" M 36.17 88.51 C 55.07 88.54 73.96 88.51 92.86 88.52 C 92.70 90.67 92.47 92.82 91.98 94.92 C 91.56 96.28 91.24 97.67 90.81 99.03 C 90.48 100.02 90.15 101.02 89.81 102.02 C 87.78 107.28 84.74 112.08 80.99 116.28 C 82.79 116.34 84.59 116.39 86.39 116.44 C 87.35 117.82 87.62 119.41 87.39 121.05 C 86.90 121.38 85.91 122.04 85.41 122.37 C 79.05 122.37 72.69 122.37 66.34 122.37 C 66.34 112.62 66.29 102.87 66.36 93.12 C 65.13 93.15 63.90 93.18 62.67 93.23 C 62.80 102.94 62.70 112.65 62.72 122.36 C 56.10 122.36 49.47 122.39 42.85 122.34 C 41.35 120.55 41.20 118.33 42.65 116.46 C 44.45 116.41 46.25 116.34 48.05 116.28 C 44.42 111.98 41.22 107.26 39.31 101.94 C 38.29 99.40 37.55 96.76 37.01 94.07 C 36.59 92.24 36.34 90.38 36.17 88.51 Z" />
<path fill="#968176" opacity="1.00" d=" M 111.77 91.42 C 111.49 90.01 110.35 87.27 112.76 87.10 C 115.28 88.58 116.98 91.07 119.12 93.01 C 116.54 94.99 114.95 98.75 111.33 98.80 C 111.37 97.38 111.50 95.96 111.72 94.56 C 108.03 94.65 104.33 94.61 100.64 94.61 C 100.64 93.80 100.64 92.18 100.64 91.37 C 104.35 91.37 108.06 91.33 111.77 91.42 Z" />
</g>
</svg>
