<?xml version="1.0" encoding="UTF-8" ?>
<!DOCTYPE svg PUBLIC "-//W3C//DTD SVG 1.1//EN" "http://www.w3.org/Graphics/SVG/1.1/DTD/svg11.dtd">
<svg width="60pt" height="60pt" viewBox="0 0 60 60" version="1.1" xmlns="http://www.w3.org/2000/svg">
<g id="#ffffffff">
<path fill="#ffffff" opacity="1.00" d=" M 0.00 0.00 L 60.00 0.00 L 60.00 60.00 L 0.00 60.00 L 0.00 0.00 M 6.01 21.99 C 5.76 30.58 13.44 37.92 21.88 38.12 C 22.04 46.22 28.80 53.58 36.96 53.96 C 45.81 54.78 54.19 46.93 53.99 38.06 C 54.22 29.48 46.60 22.02 38.12 21.88 C 37.90 13.82 31.25 6.38 23.07 6.04 C 14.16 5.17 5.74 13.05 6.01 21.99 M 49.24 8.11 C 46.78 9.11 48.43 12.93 50.88 11.88 C 53.07 10.76 51.61 7.18 49.24 8.11 M 45.09 12.10 C 42.94 13.33 44.41 16.84 46.80 15.89 C 49.19 14.79 47.54 11.09 45.09 12.10 M 41.25 16.11 C 38.82 17.06 40.36 20.87 42.80 19.89 C 45.12 18.90 43.65 15.17 41.25 16.11 M 17.16 40.10 C 14.87 41.22 16.38 44.83 18.80 43.89 C 21.16 42.82 19.59 39.14 17.16 40.10 M 13.19 44.10 C 10.88 45.14 12.35 48.84 14.76 47.88 C 17.18 46.89 15.61 43.13 13.19 44.10 M 9.14 48.11 C 6.84 49.16 8.47 52.97 10.79 51.81 C 13.23 50.86 11.50 47.06 9.14 48.11 Z" />
<path fill="#ffffff" opacity="1.00" d=" M 18.25 16.40 C 20.75 16.40 23.25 16.40 25.75 16.40 C 25.75 16.96 25.75 18.07 25.75 18.63 C 23.67 19.04 20.31 17.50 19.71 20.58 C 22.42 19.56 26.69 20.29 26.44 23.98 C 26.43 29.23 18.09 29.20 17.10 24.36 C 19.15 24.09 20.79 25.72 22.73 25.68 C 24.52 24.71 23.59 22.90 22.38 21.92 C 20.88 22.53 19.31 22.95 17.72 23.26 C 17.88 20.97 18.07 18.68 18.25 16.40 Z" />
<path fill="#ffffff" opacity="1.00" d=" M 35.09 22.10 C 37.57 21.11 39.20 24.83 36.75 25.92 C 34.39 26.79 32.95 23.30 35.09 22.10 Z" />
<path fill="#ffffff" opacity="1.00" d=" M 31.23 26.08 C 33.66 25.16 35.18 29.00 32.71 29.88 C 30.31 30.80 28.87 27.08 31.23 26.08 Z" />
<path fill="#ffffff" opacity="1.00" d=" M 27.16 30.10 C 29.55 29.08 31.22 32.91 28.75 33.84 C 26.40 34.86 24.85 31.19 27.16 30.10 Z" />
<path fill="#ffffff" opacity="1.00" d=" M 34.10 34.35 C 35.08 33.68 36.07 33.00 37.06 32.32 C 37.76 32.33 39.17 32.34 39.88 32.35 C 39.86 36.12 39.87 39.89 39.86 43.67 C 39.15 43.67 37.72 43.67 37.00 43.67 C 37.00 40.73 36.99 37.79 37.00 34.85 C 36.29 35.33 34.87 36.30 34.16 36.78 C 34.14 35.97 34.12 35.16 34.10 34.35 Z" />
<path fill="#ffffff" opacity="1.00" d=" M 23.23 34.11 C 25.63 33.18 27.12 36.82 24.82 37.89 C 22.39 38.90 20.82 35.11 23.23 34.11 Z" />
</g>
<g id="#000000ff">
<path fill="#000000" opacity="1.00" d=" M 6.01 21.99 C 5.74 13.05 14.16 5.17 23.07 6.04 C 31.25 6.38 37.90 13.82 38.12 21.88 C 46.60 22.02 54.22 29.48 53.99 38.06 C 54.19 46.93 45.81 54.78 36.96 53.96 C 28.80 53.58 22.04 46.22 21.88 38.12 C 13.44 37.92 5.76 30.58 6.01 21.99 M 18.25 16.40 C 18.07 18.68 17.88 20.97 17.72 23.26 C 19.31 22.95 20.88 22.53 22.38 21.92 C 23.59 22.90 24.52 24.71 22.73 25.68 C 20.79 25.72 19.15 24.09 17.10 24.36 C 18.09 29.20 26.43 29.23 26.44 23.98 C 26.69 20.29 22.42 19.56 19.71 20.58 C 20.31 17.50 23.67 19.04 25.75 18.63 C 25.75 18.07 25.75 16.96 25.75 16.40 C 23.25 16.40 20.75 16.40 18.25 16.40 M 35.09 22.10 C 32.95 23.30 34.39 26.79 36.75 25.92 C 39.20 24.83 37.57 21.11 35.09 22.10 M 31.23 26.08 C 28.87 27.08 30.31 30.80 32.71 29.88 C 35.18 29.00 33.66 25.16 31.23 26.08 M 27.16 30.10 C 24.85 31.19 26.40 34.86 28.75 33.84 C 31.22 32.91 29.55 29.08 27.16 30.10 M 34.10 34.35 C 34.12 35.16 34.14 35.97 34.16 36.78 C 34.87 36.30 36.29 35.33 37.00 34.85 C 36.99 37.79 37.00 40.73 37.00 43.67 C 37.72 43.67 39.15 43.67 39.86 43.67 C 39.87 39.89 39.86 36.12 39.88 32.35 C 39.17 32.34 37.76 32.33 37.06 32.32 C 36.07 33.00 35.08 33.68 34.10 34.35 M 23.23 34.11 C 20.82 35.11 22.39 38.90 24.82 37.89 C 27.12 36.82 25.63 33.18 23.23 34.11 Z" />
<path fill="#000000" opacity="1.00" d=" M 49.24 8.11 C 51.61 7.18 53.07 10.76 50.88 11.88 C 48.43 12.93 46.78 9.11 49.24 8.11 Z" />
<path fill="#000000" opacity="1.00" d=" M 45.09 12.10 C 47.54 11.09 49.19 14.79 46.80 15.89 C 44.41 16.84 42.94 13.33 45.09 12.10 Z" />
<path fill="#000000" opacity="1.00" d=" M 41.25 16.11 C 43.65 15.17 45.12 18.90 42.80 19.89 C 40.36 20.87 38.82 17.06 41.25 16.11 Z" />
<path fill="#000000" opacity="1.00" d=" M 17.16 40.10 C 19.59 39.14 21.16 42.82 18.80 43.89 C 16.38 44.83 14.87 41.22 17.16 40.10 Z" />
<path fill="#000000" opacity="1.00" d=" M 13.19 44.10 C 15.61 43.13 17.18 46.89 14.76 47.88 C 12.35 48.84 10.88 45.14 13.19 44.10 Z" />
<path fill="#000000" opacity="1.00" d=" M 9.14 48.11 C 11.50 47.06 13.23 50.86 10.79 51.81 C 8.47 52.97 6.84 49.16 9.14 48.11 Z" />
</g>
</svg>
