<?xml version="1.0" encoding="UTF-8" ?>
<!DOCTYPE svg PUBLIC "-//W3C//DTD SVG 1.1//EN" "http://www.w3.org/Graphics/SVG/1.1/DTD/svg11.dtd">
<svg width="60pt" height="60pt" viewBox="0 0 60 60" version="1.1" xmlns="http://www.w3.org/2000/svg">
<g id="#ffffffff">
<path fill="#ffffff" opacity="1.00" d=" M 0.00 0.00 L 60.00 0.00 L 60.00 60.00 L 0.00 60.00 L 0.00 0.00 M 32.30 6.39 C 23.92 13.93 16.30 22.33 8.16 30.15 C 6.14 31.67 5.11 34.85 7.20 36.78 C 12.29 42.04 17.56 47.13 22.70 52.34 C 24.13 54.14 27.08 54.60 28.73 52.84 C 36.36 45.46 43.73 37.81 51.32 30.39 C 52.43 29.15 54.01 27.95 53.92 26.09 C 54.10 22.03 54.04 17.95 53.95 13.88 C 54.04 9.69 50.28 5.94 46.08 6.05 C 41.50 6.11 36.82 5.58 32.30 6.39 Z" />
<path fill="#ffffff" opacity="1.00" d=" M 44.33 10.39 C 47.46 8.60 51.38 12.62 49.58 15.70 C 48.50 18.16 44.92 18.80 43.12 16.75 C 41.16 14.94 41.93 11.41 44.33 10.39 Z" />
<path fill="#ffffff" opacity="1.00" d=" M 28.12 25.27 C 29.31 23.46 30.54 21.12 33.02 21.04 C 37.05 21.09 39.71 24.64 41.99 27.51 C 41.41 28.08 40.25 29.23 39.68 29.80 C 37.99 27.88 36.33 24.85 33.34 25.29 C 32.24 25.89 31.64 27.06 30.84 27.98 C 32.23 29.33 33.61 30.70 34.98 32.08 C 34.47 32.59 33.45 33.61 32.95 34.12 C 31.91 33.05 30.86 32.01 29.79 30.97 C 28.69 31.53 26.49 32.65 25.39 33.21 L 24.77 31.47 C 24.71 31.79 24.61 32.44 24.55 32.76 C 26.59 35.20 29.03 37.26 31.22 39.56 C 30.60 40.17 29.36 41.39 28.74 42.00 C 25.18 38.40 21.58 34.84 18.00 31.25 C 18.54 30.72 19.62 29.65 20.17 29.12 C 22.48 30.24 25.15 30.15 27.02 28.22 C 26.04 27.23 25.06 26.24 24.08 25.25 C 24.59 24.74 25.61 23.73 26.12 23.22 C 26.62 23.73 27.62 24.76 28.12 25.27 Z" />
</g>
<g id="#000000ff">
<path fill="#000000" opacity="1.00" d=" M 32.30 6.39 C 36.82 5.58 41.50 6.11 46.08 6.05 C 50.28 5.94 54.04 9.69 53.95 13.88 C 54.04 17.95 54.10 22.03 53.92 26.09 C 54.01 27.95 52.43 29.15 51.32 30.39 C 43.73 37.81 36.36 45.46 28.73 52.84 C 27.08 54.60 24.13 54.14 22.70 52.34 C 17.56 47.13 12.29 42.04 7.20 36.78 C 5.11 34.85 6.14 31.67 8.16 30.15 C 16.30 22.33 23.92 13.93 32.30 6.39 M 44.33 10.39 C 41.93 11.41 41.16 14.94 43.12 16.75 C 44.92 18.80 48.50 18.16 49.58 15.70 C 51.38 12.62 47.46 8.60 44.33 10.39 M 28.12 25.27 C 27.62 24.76 26.62 23.73 26.12 23.22 C 25.61 23.73 24.59 24.74 24.08 25.25 C 25.06 26.24 26.04 27.23 27.02 28.22 C 25.15 30.15 22.48 30.24 20.17 29.12 C 19.62 29.65 18.54 30.72 18.00 31.25 C 21.58 34.84 25.18 38.40 28.74 42.00 C 29.36 41.39 30.60 40.17 31.22 39.56 C 29.03 37.26 26.59 35.20 24.55 32.76 C 24.61 32.44 24.71 31.79 24.77 31.47 L 25.39 33.21 C 26.49 32.65 28.69 31.53 29.79 30.97 C 30.86 32.01 31.91 33.05 32.95 34.12 C 33.45 33.61 34.47 32.59 34.98 32.08 C 33.61 30.70 32.23 29.33 30.84 27.98 C 31.64 27.06 32.24 25.89 33.34 25.29 C 36.33 24.85 37.99 27.88 39.68 29.80 C 40.25 29.23 41.41 28.08 41.99 27.51 C 39.71 24.64 37.05 21.09 33.02 21.04 C 30.54 21.12 29.31 23.46 28.12 25.27 Z" />
</g>
</svg>
