<?xml version="1.0" encoding="UTF-8" ?>
<!DOCTYPE svg PUBLIC "-//W3C//DTD SVG 1.1//EN" "http://www.w3.org/Graphics/SVG/1.1/DTD/svg11.dtd">
<svg width="60pt" height="60pt" viewBox="0 0 60 60" version="1.1" xmlns="http://www.w3.org/2000/svg">
<g id="#ffffffff">
<path fill="#ffffff" opacity="1.00" d=" M 0.00 0.00 L 60.00 0.00 L 60.00 60.00 L 0.00 60.00 L 0.00 0.00 M 32.27 6.40 C 24.25 13.63 16.95 21.67 9.15 29.16 C 7.37 30.81 5.09 33.03 6.38 35.69 C 8.95 39.09 12.35 41.75 15.25 44.87 C 18.33 47.73 20.98 51.07 24.32 53.63 C 27.28 55.00 29.51 52.20 31.34 50.34 C 38.68 42.70 46.58 35.57 53.62 27.68 C 54.41 23.15 53.89 18.47 53.96 13.88 C 54.03 9.69 50.28 5.94 46.09 6.04 C 41.49 6.12 36.80 5.57 32.27 6.40 Z" />
<path fill="#ffffff" opacity="1.00" d=" M 44.33 10.39 C 47.43 8.62 51.33 12.55 49.61 15.64 C 48.66 17.81 45.64 18.79 43.73 17.24 C 41.14 15.71 41.62 11.53 44.33 10.39 Z" />
<path fill="#ffffff" opacity="1.00" d=" M 36.00 21.51 C 36.87 20.68 37.73 19.84 38.60 19.01 C 39.39 19.82 40.19 20.64 40.99 21.45 C 40.15 22.30 39.32 23.15 38.49 24.00 C 40.08 26.57 40.24 29.64 38.74 32.29 C 37.79 31.43 36.81 30.59 35.84 29.75 C 37.77 26.54 32.48 21.43 30.33 25.33 C 30.67 29.38 35.92 32.48 33.88 36.84 C 32.03 40.63 27.09 40.83 23.98 38.50 C 23.13 39.33 22.28 40.17 21.43 41.00 C 20.62 40.19 19.81 39.37 19.00 38.56 C 19.83 37.72 20.66 36.88 21.49 36.04 C 19.71 33.42 19.29 30.09 21.14 27.38 C 22.10 28.28 23.03 29.19 23.97 30.11 C 22.95 32.97 25.18 36.03 28.06 36.46 C 29.66 36.38 30.66 34.61 29.72 33.26 C 28.26 30.04 24.46 26.58 26.85 22.86 C 28.76 19.56 33.11 19.62 36.00 21.51 Z" />
</g>
<g id="#000000ff">
<path fill="#968176" opacity="1.00" d=" M 32.27 6.40 C 36.80 5.57 41.49 6.12 46.09 6.04 C 50.28 5.94 54.03 9.69 53.96 13.88 C 53.89 18.47 54.41 23.15 53.62 27.68 C 46.58 35.57 38.68 42.70 31.34 50.34 C 29.51 52.20 27.28 55.00 24.32 53.63 C 20.98 51.07 18.33 47.73 15.25 44.87 C 12.35 41.75 8.95 39.09 6.38 35.69 C 5.09 33.03 7.37 30.81 9.15 29.16 C 16.95 21.67 24.25 13.63 32.27 6.40 M 44.33 10.39 C 41.62 11.53 41.14 15.71 43.73 17.24 C 45.64 18.79 48.66 17.81 49.61 15.64 C 51.33 12.55 47.43 8.62 44.33 10.39 M 36.00 21.51 C 33.11 19.62 28.76 19.56 26.85 22.86 C 24.46 26.58 28.26 30.04 29.72 33.26 C 30.66 34.61 29.66 36.38 28.06 36.46 C 25.18 36.03 22.95 32.97 23.97 30.11 C 23.03 29.19 22.10 28.28 21.14 27.38 C 19.29 30.09 19.71 33.42 21.49 36.04 C 20.66 36.88 19.83 37.72 19.00 38.56 C 19.81 39.37 20.62 40.19 21.43 41.00 C 22.28 40.17 23.13 39.33 23.98 38.50 C 27.09 40.83 32.03 40.63 33.88 36.84 C 35.92 32.48 30.67 29.38 30.33 25.33 C 32.48 21.43 37.77 26.54 35.84 29.75 C 36.81 30.59 37.79 31.43 38.74 32.29 C 40.24 29.64 40.08 26.57 38.49 24.00 C 39.32 23.15 40.15 22.30 40.99 21.45 C 40.19 20.64 39.39 19.82 38.60 19.01 C 37.73 19.84 36.87 20.68 36.00 21.51 Z" />
</g>
</svg>
