<?xml version="1.0" encoding="UTF-8" ?>
<!DOCTYPE svg PUBLIC "-//W3C//DTD SVG 1.1//EN" "http://www.w3.org/Graphics/SVG/1.1/DTD/svg11.dtd">
<svg width="64pt" height="64pt" viewBox="0 0 64 64" version="1.1" xmlns="http://www.w3.org/2000/svg">
<g id="#ffffffff">
<path fill="#ffffff" opacity="1.00" d=" M 0.00 0.00 L 64.00 0.00 L 64.00 64.00 L 0.00 64.00 L 0.00 0.00 M 6.19 36.00 C 13.46 43.27 20.73 50.54 28.00 57.81 C 36.67 49.23 45.36 40.65 54.01 32.04 C 53.99 24.69 54.00 17.35 54.00 10.00 C 46.65 10.00 39.30 10.00 31.95 10.00 C 23.36 18.66 14.79 27.34 6.19 36.00 Z" />
<path fill="#ffffff" opacity="1.00" d=" M 11.88 36.00 C 19.16 28.66 26.42 21.30 33.73 13.99 C 39.15 14.01 44.58 14.00 50.00 14.00 C 50.00 19.43 49.99 24.86 50.01 30.30 C 42.68 37.57 35.36 44.86 28.01 52.11 C 22.64 46.73 17.26 41.37 11.88 36.00 M 43.10 18.12 C 40.89 19.32 42.44 22.84 44.85 21.90 C 47.14 20.71 45.53 17.08 43.10 18.12 M 38.71 22.67 C 36.77 25.67 32.75 22.90 30.61 25.59 C 27.93 27.98 29.09 31.74 30.88 34.27 C 31.24 37.43 26.76 35.71 28.12 33.12 C 27.14 32.23 26.12 31.38 25.07 30.57 C 23.54 33.19 25.16 36.64 22.69 38.76 C 23.55 39.61 24.42 40.46 25.30 41.30 C 26.54 39.82 28.31 39.70 30.10 39.82 C 33.84 39.89 36.34 34.97 34.18 31.93 C 33.09 30.65 32.19 27.75 34.86 27.95 C 36.14 29.82 36.41 32.36 38.59 33.66 C 40.71 31.16 38.53 27.41 41.32 25.35 C 40.46 24.45 39.59 23.56 38.71 22.67 Z" />
</g>
<g id="#000000ff">
<path fill="#000000" opacity="1.00" d=" M 6.19 36.00 C 14.79 27.34 23.36 18.66 31.95 10.00 C 39.30 10.00 46.65 10.00 54.00 10.00 C 54.00 17.35 53.99 24.69 54.01 32.04 C 45.36 40.65 36.67 49.23 28.00 57.81 C 20.73 50.54 13.46 43.27 6.19 36.00 M 11.88 36.00 C 17.26 41.37 22.64 46.73 28.01 52.11 C 35.36 44.86 42.68 37.57 50.01 30.30 C 49.99 24.86 50.00 19.43 50.00 14.00 C 44.58 14.00 39.15 14.01 33.73 13.99 C 26.42 21.30 19.16 28.66 11.88 36.00 Z" />
<path fill="#000000" opacity="1.00" d=" M 43.10 18.12 C 45.53 17.08 47.14 20.71 44.85 21.90 C 42.44 22.84 40.89 19.32 43.10 18.12 Z" />
<path fill="#000000" opacity="1.00" d=" M 38.71 22.67 C 39.59 23.56 40.46 24.45 41.32 25.35 C 38.53 27.41 40.71 31.16 38.59 33.66 C 36.41 32.36 36.14 29.82 34.86 27.95 C 32.19 27.75 33.09 30.65 34.18 31.93 C 36.34 34.97 33.84 39.89 30.10 39.82 C 28.31 39.70 26.54 39.82 25.30 41.30 C 24.42 40.46 23.55 39.61 22.69 38.76 C 25.16 36.64 23.54 33.19 25.07 30.57 C 26.12 31.38 27.14 32.23 28.12 33.12 C 26.76 35.71 31.24 37.43 30.88 34.27 C 29.09 31.74 27.93 27.98 30.61 25.59 C 32.75 22.90 36.77 25.67 38.71 22.67 Z" />
</g>
</svg>
