<?xml version="1.0" encoding="UTF-8" ?>
<!DOCTYPE svg PUBLIC "-//W3C//DTD SVG 1.1//EN" "http://www.w3.org/Graphics/SVG/1.1/DTD/svg11.dtd">
<svg width="64pt" height="64pt" viewBox="0 0 64 64" version="1.1" xmlns="http://www.w3.org/2000/svg">
<g id="#ffffffff">
<path fill="#ffffff" opacity="1.00" d=" M 0.00 0.00 L 64.00 0.00 L 64.00 64.00 L 26.00 64.00 C 26.00 62.00 26.00 60.00 26.00 58.00 C 28.00 58.00 30.00 58.00 32.00 58.00 C 32.00 55.33 32.00 52.66 32.00 50.00 C 38.03 49.85 44.08 50.32 50.09 49.75 C 56.99 48.79 61.72 40.96 59.41 34.39 C 58.06 29.70 53.67 26.70 49.03 25.88 C 46.52 19.74 40.89 14.84 34.16 14.16 C 28.37 13.27 22.68 15.83 18.57 19.80 C 13.95 19.85 10.21 23.39 9.75 27.97 C 11.05 27.98 12.34 27.98 13.63 27.99 C 14.47 25.04 17.14 23.38 20.17 24.14 C 23.50 20.04 28.69 17.13 34.12 18.19 C 40.23 18.94 44.71 24.17 46.06 29.94 C 49.44 29.82 53.25 30.77 54.92 34.03 C 57.81 38.60 54.53 45.40 49.11 45.85 C 43.54 46.22 37.95 45.91 32.36 45.99 C 31.56 43.01 28.96 41.63 26.00 41.81 C 26.00 38.54 26.00 35.27 26.00 32.00 C 19.33 32.00 12.67 32.00 6.00 32.00 C 6.00 35.27 6.00 38.54 6.00 41.81 C 3.55 41.83 1.04 42.49 0.00 44.96 L 0.00 0.00 Z" />
<path fill="#ffffff" opacity="1.00" d=" M 10.00 36.00 C 14.00 36.00 18.00 36.00 22.00 36.00 C 22.00 38.00 22.00 40.00 22.00 42.00 C 18.00 42.00 14.00 42.00 10.00 42.00 C 10.00 40.00 10.00 38.00 10.00 36.00 Z" />
<path fill="#ffffff" opacity="1.00" d=" M 4.00 46.00 C 12.00 46.00 20.00 46.00 28.00 46.00 C 28.00 48.67 28.00 51.33 28.00 54.00 C 27.50 54.00 26.50 54.00 26.00 54.00 C 26.00 52.67 26.00 51.33 26.00 50.00 C 19.33 50.00 12.67 50.00 6.00 50.00 C 6.00 51.33 6.00 52.67 6.00 54.00 C 5.50 54.00 4.50 54.00 4.00 54.00 C 4.00 51.33 4.00 48.67 4.00 46.00 Z" />
<path fill="#ffffff" opacity="1.00" d=" M 10.00 54.00 C 14.00 54.00 18.00 54.00 22.00 54.00 C 22.00 56.00 22.00 58.00 22.00 60.00 C 18.00 60.00 14.00 60.00 10.00 60.00 C 10.00 58.00 10.00 56.00 10.00 54.00 Z" />
<path fill="#ffffff" opacity="1.00" d=" M 0.00 58.00 C 2.00 58.00 4.00 58.00 6.00 58.00 C 6.00 60.00 6.00 62.00 6.00 64.00 L 0.00 64.00 L 0.00 58.00 Z" />
</g>
<g id="#000000ff">
<path fill="#000000" opacity="1.00" d=" M 18.57 19.80 C 22.68 15.83 28.37 13.27 34.16 14.16 C 40.89 14.84 46.52 19.74 49.03 25.88 C 53.67 26.70 58.06 29.70 59.41 34.39 C 61.72 40.96 56.99 48.79 50.09 49.75 C 44.08 50.32 38.03 49.85 32.00 50.00 C 32.00 52.66 32.00 55.33 32.00 58.00 C 30.00 58.00 28.00 58.00 26.00 58.00 C 26.00 60.00 26.00 62.00 26.00 64.00 L 6.00 64.00 C 6.00 62.00 6.00 60.00 6.00 58.00 C 4.00 58.00 2.00 58.00 0.00 58.00 L 0.00 44.96 C 1.04 42.49 3.55 41.83 6.00 41.81 C 6.00 38.54 6.00 35.27 6.00 32.00 C 12.67 32.00 19.33 32.00 26.00 32.00 C 26.00 35.27 26.00 38.54 26.00 41.81 C 28.96 41.63 31.56 43.01 32.36 45.99 C 37.95 45.91 43.54 46.22 49.11 45.85 C 54.53 45.40 57.81 38.60 54.92 34.03 C 53.25 30.77 49.44 29.82 46.06 29.94 C 44.71 24.17 40.23 18.94 34.12 18.19 C 28.69 17.13 23.50 20.04 20.17 24.14 C 17.14 23.38 14.47 25.04 13.63 27.99 C 12.34 27.98 11.05 27.98 9.75 27.97 C 10.21 23.39 13.95 19.85 18.57 19.80 M 10.00 36.00 C 10.00 38.00 10.00 40.00 10.00 42.00 C 14.00 42.00 18.00 42.00 22.00 42.00 C 22.00 40.00 22.00 38.00 22.00 36.00 C 18.00 36.00 14.00 36.00 10.00 36.00 M 4.00 46.00 C 4.00 48.67 4.00 51.33 4.00 54.00 C 4.50 54.00 5.50 54.00 6.00 54.00 C 6.00 52.67 6.00 51.33 6.00 50.00 C 12.67 50.00 19.33 50.00 26.00 50.00 C 26.00 51.33 26.00 52.67 26.00 54.00 C 26.50 54.00 27.50 54.00 28.00 54.00 C 28.00 51.33 28.00 48.67 28.00 46.00 C 20.00 46.00 12.00 46.00 4.00 46.00 M 10.00 54.00 C 10.00 56.00 10.00 58.00 10.00 60.00 C 14.00 60.00 18.00 60.00 22.00 60.00 C 22.00 58.00 22.00 56.00 22.00 54.00 C 18.00 54.00 14.00 54.00 10.00 54.00 Z" />
</g>
</svg>
