<?xml version="1.0" encoding="UTF-8" ?>
<!DOCTYPE svg PUBLIC "-//W3C//DTD SVG 1.1//EN" "http://www.w3.org/Graphics/SVG/1.1/DTD/svg11.dtd">
<svg width="60pt" height="60pt" viewBox="0 0 60 60" version="1.1" xmlns="http://www.w3.org/2000/svg">
<g id="#ffffffff">
<path fill="#ffffff" opacity="1.00" d=" M 0.00 0.00 L 60.00 0.00 L 60.00 60.00 L 0.00 60.00 L 0.00 0.00 M 12.32 8.33 C 12.08 10.20 11.98 12.09 11.93 13.98 C 23.98 14.02 36.02 14.02 48.07 13.98 C 48.02 12.09 47.91 10.21 47.68 8.34 C 43.48 7.72 39.23 8.08 35.01 8.00 C 27.45 8.19 19.85 7.60 12.32 8.33 M 4.04 21.99 C 4.01 28.28 3.85 34.59 4.12 40.87 C 4.83 44.54 9.22 44.02 12.02 44.07 C 11.95 47.38 12.04 50.69 11.99 54.00 C 24.00 54.00 36.00 54.00 48.01 54.00 C 47.96 50.69 48.05 47.38 47.98 44.07 C 50.80 44.04 55.11 44.52 55.87 40.87 C 56.15 34.59 55.99 28.28 55.96 22.00 C 56.04 19.88 54.15 17.91 52.00 18.04 C 37.65 17.94 23.29 18.03 8.94 18.00 C 6.54 17.64 3.92 19.43 4.04 21.99 Z" />
<path fill="#ffffff" opacity="1.00" d=" M 16.00 30.00 C 25.33 30.00 34.67 30.00 44.00 30.00 C 44.00 36.67 44.00 43.33 44.00 50.00 C 34.67 50.00 25.33 50.00 16.00 50.00 C 16.00 43.33 16.00 36.67 16.00 30.00 Z" />
</g>
<g id="#000000ff">
<path fill="#000000" opacity="1.00" d=" M 12.32 8.33 C 19.85 7.60 27.45 8.19 35.01 8.00 C 39.23 8.08 43.48 7.72 47.68 8.34 C 47.91 10.21 48.02 12.09 48.07 13.98 C 36.02 14.02 23.98 14.02 11.93 13.98 C 11.98 12.09 12.08 10.20 12.32 8.33 Z" />
<path fill="#000000" opacity="1.00" d=" M 4.04 21.99 C 3.92 19.43 6.54 17.64 8.94 18.00 C 23.29 18.03 37.65 17.94 52.00 18.04 C 54.15 17.91 56.04 19.88 55.96 22.00 C 55.99 28.28 56.15 34.59 55.87 40.87 C 55.11 44.52 50.80 44.04 47.98 44.07 C 48.05 47.38 47.96 50.69 48.01 54.00 C 36.00 54.00 24.00 54.00 11.99 54.00 C 12.04 50.69 11.95 47.38 12.02 44.07 C 9.22 44.02 4.83 44.54 4.12 40.87 C 3.85 34.59 4.01 28.28 4.04 21.99 M 16.00 30.00 C 16.00 36.67 16.00 43.33 16.00 50.00 C 25.33 50.00 34.67 50.00 44.00 50.00 C 44.00 43.33 44.00 36.67 44.00 30.00 C 34.67 30.00 25.33 30.00 16.00 30.00 Z" />
</g>
</svg>
