<?xml version="1.0" encoding="UTF-8" ?>
<!DOCTYPE svg PUBLIC "-//W3C//DTD SVG 1.1//EN" "http://www.w3.org/Graphics/SVG/1.1/DTD/svg11.dtd">
<svg width="60pt" height="60pt" viewBox="0 0 60 60" version="1.1" xmlns="http://www.w3.org/2000/svg">
<g id="#ffffffff">
<path fill="#ffffff" opacity="1.00" d=" M 0.00 0.00 L 60.00 0.00 L 60.00 60.00 L 0.00 60.00 L 0.00 0.00 M 24.57 2.58 C 22.73 4.72 25.95 6.50 27.13 7.99 C 25.68 9.47 22.32 12.05 25.15 13.89 C 27.36 14.38 28.51 12.04 30.00 10.89 C 31.48 12.31 33.94 15.59 35.86 12.92 C 36.50 10.70 34.03 9.49 32.90 8.01 C 33.89 6.96 34.96 5.98 35.81 4.81 C 36.71 3.24 34.79 1.29 33.20 2.18 C 32.04 3.05 31.04 4.11 30.00 5.12 C 28.52 3.94 26.67 0.74 24.57 2.58 M 12.18 9.09 C 11.83 12.03 12.02 15.01 12.01 17.96 C 9.20 17.96 5.09 17.45 4.15 20.97 C 3.89 27.64 3.88 34.36 4.16 41.04 C 5.03 44.56 9.23 44.03 12.00 44.04 C 12.00 47.36 12.00 50.68 12.00 54.00 C 24.00 54.00 36.00 54.00 48.00 54.00 C 48.00 50.68 48.00 47.36 48.00 44.04 C 50.26 43.82 53.01 44.60 54.80 42.80 C 56.40 41.31 55.91 38.95 56.02 37.00 C 55.87 31.65 56.24 26.28 55.84 20.94 C 54.92 17.39 50.79 18.00 47.99 17.96 C 47.98 15.01 48.17 12.05 47.82 9.11 C 47.16 7.62 44.83 7.62 44.18 9.11 C 43.82 12.06 44.02 15.04 44.01 18.00 C 34.67 18.00 25.33 18.00 15.99 18.00 C 15.98 15.04 16.17 12.07 15.82 9.13 C 15.18 7.61 12.86 7.62 12.18 9.09 Z" />
<path fill="#ffffff" opacity="1.00" d=" M 16.00 30.00 C 25.33 30.00 34.67 30.00 44.00 30.00 C 44.00 36.67 44.00 43.33 44.00 50.00 C 34.67 50.00 25.33 50.00 16.00 50.00 C 16.00 43.33 16.00 36.67 16.00 30.00 Z" />
</g>
<g id="#000000ff">
<path fill="#000000" opacity="1.00" d=" M 24.57 2.58 C 26.67 0.74 28.52 3.94 30.00 5.12 C 31.04 4.11 32.04 3.05 33.20 2.18 C 34.79 1.29 36.71 3.24 35.81 4.81 C 34.96 5.98 33.89 6.96 32.90 8.01 C 34.03 9.49 36.50 10.70 35.86 12.92 C 33.94 15.59 31.48 12.31 30.00 10.89 C 28.51 12.04 27.36 14.38 25.15 13.89 C 22.32 12.05 25.68 9.47 27.13 7.99 C 25.95 6.50 22.73 4.72 24.57 2.58 Z" />
<path fill="#000000" opacity="1.00" d=" M 12.18 9.09 C 12.86 7.62 15.18 7.61 15.82 9.13 C 16.17 12.07 15.98 15.04 15.99 18.00 C 25.33 18.00 34.67 18.00 44.01 18.00 C 44.02 15.04 43.82 12.06 44.18 9.11 C 44.83 7.62 47.16 7.62 47.82 9.11 C 48.17 12.05 47.98 15.01 47.99 17.96 C 50.79 18.00 54.92 17.39 55.84 20.94 C 56.24 26.28 55.87 31.65 56.02 37.00 C 55.91 38.95 56.40 41.31 54.80 42.80 C 53.01 44.60 50.26 43.82 48.00 44.04 C 48.00 47.36 48.00 50.68 48.00 54.00 C 36.00 54.00 24.00 54.00 12.00 54.00 C 12.00 50.68 12.00 47.36 12.00 44.04 C 9.23 44.03 5.03 44.56 4.16 41.04 C 3.88 34.36 3.89 27.64 4.15 20.97 C 5.09 17.45 9.20 17.96 12.01 17.96 C 12.02 15.01 11.83 12.03 12.18 9.09 M 16.00 30.00 C 16.00 36.67 16.00 43.33 16.00 50.00 C 25.33 50.00 34.67 50.00 44.00 50.00 C 44.00 43.33 44.00 36.67 44.00 30.00 C 34.67 30.00 25.33 30.00 16.00 30.00 Z" />
</g>
</svg>
