<?xml version="1.0" encoding="UTF-8" ?>
<!DOCTYPE svg PUBLIC "-//W3C//DTD SVG 1.1//EN" "http://www.w3.org/Graphics/SVG/1.1/DTD/svg11.dtd">
<svg width="64pt" height="64pt" viewBox="0 0 64 64" version="1.1" xmlns="http://www.w3.org/2000/svg">
<g id="#ffffffff">
<path fill="#ffffff" opacity="1.00" d=" M 0.00 0.00 L 64.00 0.00 L 64.00 64.00 L 0.00 64.00 L 0.00 0.00 M 18.00 10.00 C 18.00 12.67 18.00 15.33 18.00 18.00 C 15.33 18.00 12.67 18.00 10.00 18.00 C 10.00 19.33 10.00 20.67 10.00 22.00 C 12.67 22.00 15.33 22.00 18.00 22.00 C 18.00 23.32 18.00 24.64 18.00 25.96 C 15.24 26.09 11.91 25.49 9.80 27.74 C 7.07 30.42 8.24 34.58 7.99 37.97 C 8.26 42.14 7.38 46.50 8.58 50.55 C 10.60 55.00 16.09 53.91 20.02 54.02 C 23.01 53.82 26.89 54.82 28.96 52.01 C 30.49 50.28 29.89 47.95 29.23 46.00 C 30.06 44.04 30.07 41.96 29.23 40.00 C 30.06 38.04 30.07 35.96 29.23 34.00 C 29.91 32.03 30.49 29.66 28.92 27.93 C 27.35 25.70 24.38 26.04 22.00 25.92 C 22.00 24.61 22.00 23.31 22.00 22.00 C 28.67 22.00 35.33 22.00 42.00 22.00 C 42.00 23.31 42.00 24.61 42.00 25.92 C 39.61 26.04 36.63 25.70 35.06 27.95 C 33.49 29.67 34.15 32.03 34.78 33.99 C 33.97 35.96 33.96 38.03 34.78 39.99 C 33.97 41.96 33.97 44.03 34.78 46.00 C 34.15 47.96 33.48 50.33 35.07 52.05 C 37.17 54.82 41.01 53.82 44.00 54.02 C 47.40 53.75 51.55 54.92 54.24 52.20 C 56.90 49.53 55.77 45.42 56.01 42.06 C 55.73 37.87 56.63 33.49 55.40 29.43 C 53.82 25.72 49.38 25.85 46.00 25.96 C 46.00 24.64 46.00 23.32 46.00 22.00 C 48.67 22.00 51.33 22.00 54.00 22.00 C 54.00 20.67 54.00 19.33 54.00 18.00 C 51.33 18.00 48.67 18.00 46.00 18.00 C 46.00 15.33 46.00 12.67 46.00 10.00 C 44.67 10.00 43.33 10.00 42.00 10.00 C 42.00 12.67 42.00 15.33 42.00 18.00 C 35.33 18.00 28.67 18.00 22.00 18.00 C 22.00 15.33 22.00 12.67 22.00 10.00 C 20.67 10.00 19.33 10.00 18.00 10.00 Z" />
<path fill="#ffffff" opacity="1.00" d=" M 13.14 30.16 C 17.35 29.79 21.58 30.07 25.81 30.02 C 25.80 30.51 25.78 31.49 25.78 31.98 C 24.52 31.99 23.26 32.00 22.00 32.01 C 22.00 33.33 22.00 34.66 22.00 35.99 C 23.27 36.00 24.53 36.01 25.80 36.03 C 25.80 36.52 25.79 37.49 25.78 37.98 C 24.52 37.99 23.26 38.00 22.00 38.01 C 22.00 39.33 22.00 40.66 22.00 41.99 C 23.27 42.00 24.54 42.02 25.81 42.03 C 25.80 42.52 25.79 43.49 25.78 43.98 C 24.52 43.99 23.26 44.00 22.00 44.01 C 22.00 45.34 22.00 46.66 22.00 47.99 C 23.26 48.00 24.53 48.01 25.79 48.02 C 25.79 48.51 25.79 49.49 25.79 49.98 C 21.57 49.92 17.34 50.22 13.14 49.84 C 12.90 49.59 12.41 49.10 12.16 48.86 C 11.88 42.97 11.88 37.03 12.16 31.14 C 12.41 30.89 12.89 30.40 13.14 30.16 Z" />
<path fill="#ffffff" opacity="1.00" d=" M 38.21 30.02 C 42.42 30.08 46.65 29.78 50.85 30.16 C 53.23 32.62 51.47 36.82 52.00 39.98 C 51.45 43.14 53.29 47.48 50.78 49.84 C 46.60 50.22 42.40 49.92 38.22 49.98 C 38.21 49.49 38.20 48.52 38.19 48.03 C 39.46 48.01 40.73 48.00 42.00 47.99 C 42.00 46.66 42.00 45.33 42.00 44.01 C 40.74 44.00 39.48 43.99 38.21 43.98 C 38.21 43.49 38.20 42.52 38.20 42.03 C 39.46 42.01 40.73 42.00 42.00 41.99 C 42.00 40.66 42.00 39.34 42.00 38.01 C 40.74 38.00 39.47 37.99 38.21 37.98 C 38.21 37.49 38.20 36.52 38.19 36.03 C 39.46 36.01 40.73 36.00 42.00 35.99 C 42.00 34.66 42.00 33.34 42.00 32.02 C 40.73 32.00 39.46 31.98 38.19 31.96 C 38.20 31.48 38.21 30.50 38.21 30.02 Z" />
</g>
<g id="#000000ff">
<path fill="#000000" opacity="1.00" d=" M 18.00 10.00 C 19.33 10.00 20.67 10.00 22.00 10.00 C 22.00 12.67 22.00 15.33 22.00 18.00 C 28.67 18.00 35.33 18.00 42.00 18.00 C 42.00 15.33 42.00 12.67 42.00 10.00 C 43.33 10.00 44.67 10.00 46.00 10.00 C 46.00 12.67 46.00 15.33 46.00 18.00 C 48.67 18.00 51.33 18.00 54.00 18.00 C 54.00 19.33 54.00 20.67 54.00 22.00 C 51.33 22.00 48.67 22.00 46.00 22.00 C 46.00 23.32 46.00 24.64 46.00 25.96 C 49.38 25.85 53.82 25.72 55.40 29.43 C 56.63 33.49 55.73 37.87 56.01 42.06 C 55.77 45.42 56.90 49.53 54.24 52.20 C 51.55 54.92 47.40 53.75 44.00 54.02 C 41.01 53.82 37.17 54.82 35.07 52.05 C 33.48 50.33 34.15 47.96 34.78 46.00 C 33.97 44.03 33.97 41.96 34.78 39.99 C 33.96 38.03 33.97 35.96 34.78 33.99 C 34.15 32.03 33.49 29.67 35.06 27.95 C 36.63 25.70 39.61 26.04 42.00 25.92 C 42.00 24.61 42.00 23.31 42.00 22.00 C 35.33 22.00 28.67 22.00 22.00 22.00 C 22.00 23.31 22.00 24.61 22.00 25.92 C 24.38 26.04 27.35 25.70 28.92 27.93 C 30.49 29.66 29.91 32.03 29.23 34.00 C 30.07 35.96 30.06 38.04 29.23 40.00 C 30.07 41.96 30.06 44.04 29.23 46.00 C 29.89 47.95 30.49 50.28 28.96 52.01 C 26.89 54.82 23.01 53.82 20.02 54.02 C 16.09 53.91 10.60 55.00 8.58 50.55 C 7.38 46.50 8.26 42.14 7.99 37.97 C 8.24 34.58 7.07 30.42 9.80 27.74 C 11.91 25.49 15.24 26.09 18.00 25.96 C 18.00 24.64 18.00 23.32 18.00 22.00 C 15.33 22.00 12.67 22.00 10.00 22.00 C 10.00 20.67 10.00 19.33 10.00 18.00 C 12.67 18.00 15.33 18.00 18.00 18.00 C 18.00 15.33 18.00 12.67 18.00 10.00 M 13.14 30.16 C 12.89 30.40 12.41 30.89 12.16 31.14 C 11.88 37.03 11.88 42.97 12.16 48.86 C 12.41 49.10 12.90 49.59 13.14 49.84 C 17.34 50.22 21.57 49.92 25.79 49.98 C 25.79 49.49 25.79 48.51 25.79 48.02 C 24.53 48.01 23.26 48.00 22.00 47.99 C 22.00 46.66 22.00 45.34 22.00 44.01 C 23.26 44.00 24.52 43.99 25.78 43.98 C 25.79 43.49 25.80 42.52 25.81 42.03 C 24.54 42.02 23.27 42.00 22.00 41.99 C 22.00 40.66 22.00 39.33 22.00 38.01 C 23.26 38.00 24.52 37.99 25.78 37.98 C 25.79 37.49 25.80 36.52 25.80 36.03 C 24.53 36.01 23.27 36.00 22.00 35.99 C 22.00 34.66 22.00 33.33 22.00 32.01 C 23.26 32.00 24.52 31.99 25.78 31.98 C 25.78 31.49 25.80 30.51 25.81 30.02 C 21.58 30.07 17.35 29.79 13.14 30.16 M 38.21 30.02 C 38.21 30.50 38.20 31.48 38.19 31.96 C 39.46 31.98 40.73 32.00 42.00 32.02 C 42.00 33.34 42.00 34.66 42.00 35.99 C 40.73 36.00 39.46 36.01 38.19 36.03 C 38.20 36.52 38.21 37.49 38.21 37.98 C 39.47 37.99 40.74 38.00 42.00 38.01 C 42.00 39.34 42.00 40.66 42.00 41.99 C 40.73 42.00 39.46 42.01 38.20 42.03 C 38.20 42.52 38.21 43.49 38.21 43.98 C 39.48 43.99 40.74 44.00 42.00 44.01 C 42.00 45.33 42.00 46.66 42.00 47.99 C 40.73 48.00 39.46 48.01 38.19 48.03 C 38.20 48.52 38.21 49.49 38.22 49.98 C 42.40 49.92 46.60 50.22 50.78 49.84 C 53.29 47.48 51.45 43.14 52.00 39.98 C 51.47 36.82 53.23 32.62 50.85 30.16 C 46.65 29.78 42.42 30.08 38.21 30.02 Z" />
</g>
</svg>
