<?xml version="1.0" encoding="UTF-8" ?>
<!DOCTYPE svg PUBLIC "-//W3C//DTD SVG 1.1//EN" "http://www.w3.org/Graphics/SVG/1.1/DTD/svg11.dtd">
<svg width="64pt" height="64pt" viewBox="0 0 64 64" version="1.1" xmlns="http://www.w3.org/2000/svg">
<g id="#ffffffff">
<path fill="#ffffff" opacity="1.00" d=" M 0.00 0.00 L 64.00 0.00 L 64.00 24.07 C 56.04 24.07 48.08 24.07 40.11 24.07 C 37.37 19.44 34.72 14.76 32.00 10.13 C 28.89 15.51 25.72 20.86 22.68 26.29 C 15.65 28.36 8.54 30.15 1.49 32.13 C 1.83 33.38 2.17 34.62 2.51 35.87 C 8.28 34.33 14.05 32.75 19.80 31.16 C 15.43 38.76 11.02 46.33 6.64 53.93 C 23.54 53.94 40.45 53.94 57.36 53.93 C 54.92 49.67 52.44 45.43 49.99 41.17 C 53.16 42.03 56.32 42.93 59.47 43.88 C 59.82 42.62 60.17 41.36 60.53 40.11 C 56.15 38.74 51.65 37.75 47.31 36.24 C 46.96 35.78 46.26 34.88 45.92 34.42 C 51.23 34.80 56.51 35.45 61.81 35.93 C 61.91 34.97 62.09 33.03 62.19 32.07 C 56.01 31.43 49.83 30.84 43.66 30.20 C 43.32 29.64 42.66 28.51 42.32 27.94 C 49.55 27.92 56.77 27.94 64.00 27.93 L 64.00 64.00 L 0.00 64.00 L 0.00 0.00 Z" />
<path fill="#ffffff" opacity="1.00" d=" M 13.38 50.06 C 19.58 39.34 25.79 28.62 32.00 17.90 C 38.21 28.61 44.42 39.33 50.62 50.06 C 38.20 50.07 25.79 50.07 13.38 50.06 Z" />
</g>
<g id="#000000ff">
<path fill="#000000" opacity="1.00" d=" M 22.68 26.29 C 25.72 20.86 28.89 15.51 32.00 10.13 C 34.72 14.76 37.37 19.44 40.11 24.07 C 48.08 24.07 56.04 24.07 64.00 24.07 L 64.00 27.93 C 56.77 27.94 49.55 27.92 42.32 27.94 C 42.66 28.51 43.32 29.64 43.66 30.20 C 49.83 30.84 56.01 31.43 62.19 32.07 C 62.09 33.03 61.91 34.97 61.81 35.93 C 56.51 35.45 51.23 34.80 45.92 34.42 C 46.26 34.88 46.96 35.78 47.31 36.24 C 51.65 37.75 56.15 38.74 60.53 40.11 C 60.17 41.36 59.82 42.62 59.47 43.88 C 56.32 42.93 53.16 42.03 49.99 41.17 C 52.44 45.43 54.92 49.67 57.36 53.93 C 40.45 53.94 23.54 53.94 6.64 53.93 C 11.02 46.33 15.43 38.76 19.80 31.16 C 14.05 32.75 8.28 34.33 2.51 35.87 C 2.17 34.62 1.83 33.38 1.49 32.13 C 8.54 30.15 15.65 28.36 22.68 26.29 M 13.38 50.06 C 25.79 50.07 38.20 50.07 50.62 50.06 C 44.42 39.33 38.21 28.61 32.00 17.90 C 25.79 28.62 19.58 39.34 13.38 50.06 Z" />
</g>
</svg>
