<?xml version="1.0" encoding="UTF-8" ?>
<!DOCTYPE svg PUBLIC "-//W3C//DTD SVG 1.1//EN" "http://www.w3.org/Graphics/SVG/1.1/DTD/svg11.dtd">
<svg width="60pt" height="60pt" viewBox="0 0 60 60" version="1.1" xmlns="http://www.w3.org/2000/svg">
<g id="#ffffffff">
<path fill="#ffffff" opacity="1.00" d=" M 0.00 0.00 L 60.00 0.00 L 60.00 60.00 L 0.00 60.00 L 0.00 0.00 M 10.45 27.67 C 6.97 28.35 7.60 33.09 8.62 35.46 C 19.92 40.33 32.93 41.37 44.76 37.78 C 47.12 36.92 50.03 36.73 51.83 34.87 C 51.86 32.60 53.08 28.85 50.17 27.92 C 43.47 25.17 36.75 22.47 29.99 19.88 C 23.47 22.46 16.96 25.08 10.45 27.67 Z" />
<path fill="#ffffff" opacity="1.00" d=" M 12.00 31.45 C 17.92 28.83 24.04 26.70 29.99 24.15 C 35.99 26.58 42.06 28.87 48.00 31.42 C 47.98 31.70 47.92 32.27 47.90 32.55 C 36.46 37.01 23.50 37.02 12.07 32.53 C 12.05 32.26 12.02 31.72 12.00 31.45 Z" />
</g>
<g id="#000000ff">
<path fill="#000000" opacity="1.00" d=" M 10.45 27.67 C 16.96 25.08 23.47 22.46 29.99 19.88 C 36.75 22.47 43.47 25.17 50.17 27.92 C 53.08 28.85 51.86 32.60 51.83 34.87 C 50.03 36.73 47.12 36.92 44.76 37.78 C 32.93 41.37 19.92 40.33 8.62 35.46 C 7.60 33.09 6.97 28.35 10.45 27.67 M 12.00 31.45 C 12.02 31.72 12.05 32.26 12.07 32.53 C 23.50 37.02 36.46 37.01 47.90 32.55 C 47.92 32.27 47.98 31.70 48.00 31.42 C 42.06 28.87 35.99 26.58 29.99 24.15 C 24.04 26.70 17.92 28.83 12.00 31.45 Z" />
</g>
</svg>
