<?xml version="1.0" encoding="UTF-8" ?>
<!DOCTYPE svg PUBLIC "-//W3C//DTD SVG 1.1//EN" "http://www.w3.org/Graphics/SVG/1.1/DTD/svg11.dtd">
<svg width="60pt" height="60pt" viewBox="0 0 60 60" version="1.1" xmlns="http://www.w3.org/2000/svg">
<g id="#ffffffff">
<path fill="#ffffff" opacity="1.00" d=" M 0.00 0.00 L 60.00 0.00 L 60.00 60.00 L 0.00 60.00 L 0.00 0.00 M 17.19 2.10 C 14.80 3.08 16.47 7.01 18.77 5.79 C 21.23 4.93 19.53 1.07 17.19 2.10 M 25.20 2.10 C 22.86 3.15 24.38 6.88 26.81 5.89 C 29.12 4.82 27.62 1.15 25.20 2.10 M 33.21 2.21 C 30.27 3.27 33.36 7.76 35.37 5.39 C 37.12 4.07 35.01 1.09 33.21 2.21 M 41.24 2.14 C 38.77 2.96 40.45 7.01 42.71 5.81 C 45.23 5.08 43.60 1.05 41.24 2.14 M 12.33 10.39 C 10.58 11.16 9.85 13.12 10.00 14.93 C 10.03 25.31 9.92 35.70 10.06 46.08 C 9.93 48.66 12.59 50.30 14.94 50.00 C 25.34 49.97 35.74 50.09 46.13 49.94 C 48.64 49.98 50.30 47.43 50.00 45.09 C 49.97 34.71 50.08 24.33 49.95 13.95 C 50.03 11.38 47.48 9.65 45.08 10.00 C 34.17 10.24 23.16 9.49 12.33 10.39 M 3.28 16.18 C 0.76 16.97 2.43 20.96 4.82 19.90 C 7.15 18.86 5.57 15.08 3.28 16.18 M 55.22 16.19 C 52.78 17.04 54.45 20.95 56.79 19.89 C 59.19 18.91 57.55 15.03 55.22 16.19 M 3.11 24.09 C 0.87 25.24 2.48 28.94 4.76 27.81 C 7.26 26.87 5.50 23.08 3.11 24.09 M 55.20 24.09 C 52.88 25.15 54.34 28.81 56.77 27.91 C 59.15 26.86 57.61 23.15 55.20 24.09 M 3.17 32.21 C 0.73 33.07 2.57 37.06 4.78 35.80 C 7.29 34.96 5.44 30.91 3.17 32.21 M 55.26 32.19 C 52.74 33.01 54.48 36.97 56.86 35.90 C 59.13 34.79 57.54 31.07 55.26 32.19 M 3.16 40.11 C 0.84 41.26 2.44 44.85 4.87 43.89 C 7.13 42.69 5.54 39.15 3.16 40.11 M 55.12 40.11 C 52.89 41.29 54.42 44.87 56.84 43.88 C 59.15 42.74 57.55 39.11 55.12 40.11 M 17.15 54.11 C 14.84 55.28 16.46 58.88 18.89 57.90 C 21.10 56.65 19.55 53.15 17.15 54.11 M 25.16 54.13 C 22.83 55.17 24.45 58.92 26.81 57.85 C 29.20 56.81 27.56 53.12 25.16 54.13 M 33.20 54.17 C 30.80 55.13 32.42 58.85 34.79 57.91 C 37.18 56.86 35.55 53.05 33.20 54.17 M 41.20 54.22 C 38.77 55.02 40.46 58.97 42.79 57.85 C 45.26 56.93 43.46 52.94 41.20 54.22 Z" />
<path fill="#ffffff" opacity="1.00" d=" M 17.33 16.51 C 20.52 14.20 23.93 19.56 20.61 21.51 C 17.45 23.74 14.12 18.49 17.33 16.51 Z" />
<path fill="#ffffff" opacity="1.00" d=" M 39.37 38.49 C 41.56 36.89 44.90 39.44 43.79 41.94 C 43.33 43.76 40.91 44.56 39.39 43.51 C 37.59 42.46 37.59 39.56 39.37 38.49 Z" />
</g>
<g id="#000000ff">
<path fill="#000000" opacity="1.00" d=" M 17.19 2.10 C 19.53 1.07 21.23 4.93 18.77 5.79 C 16.47 7.01 14.80 3.08 17.19 2.10 Z" />
<path fill="#000000" opacity="1.00" d=" M 25.20 2.10 C 27.62 1.15 29.12 4.82 26.81 5.89 C 24.38 6.88 22.86 3.15 25.20 2.10 Z" />
<path fill="#000000" opacity="1.00" d=" M 33.21 2.21 C 35.01 1.09 37.12 4.07 35.37 5.39 C 33.36 7.76 30.27 3.27 33.21 2.21 Z" />
<path fill="#000000" opacity="1.00" d=" M 41.24 2.14 C 43.60 1.05 45.23 5.08 42.71 5.81 C 40.45 7.01 38.77 2.96 41.24 2.14 Z" />
<path fill="#000000" opacity="1.00" d=" M 12.33 10.39 C 23.16 9.49 34.17 10.24 45.08 10.00 C 47.48 9.65 50.03 11.38 49.95 13.95 C 50.08 24.33 49.97 34.71 50.00 45.09 C 50.30 47.43 48.64 49.98 46.13 49.94 C 35.74 50.09 25.34 49.97 14.94 50.00 C 12.59 50.30 9.93 48.66 10.06 46.08 C 9.92 35.70 10.03 25.31 10.00 14.93 C 9.85 13.12 10.58 11.16 12.33 10.39 M 17.33 16.51 C 14.12 18.49 17.45 23.74 20.61 21.51 C 23.93 19.56 20.52 14.20 17.33 16.51 M 39.37 38.49 C 37.59 39.56 37.59 42.46 39.39 43.51 C 40.91 44.56 43.33 43.76 43.79 41.94 C 44.90 39.44 41.56 36.89 39.37 38.49 Z" />
<path fill="#000000" opacity="1.00" d=" M 3.28 16.18 C 5.57 15.08 7.15 18.86 4.82 19.90 C 2.43 20.96 0.76 16.97 3.28 16.18 Z" />
<path fill="#000000" opacity="1.00" d=" M 55.22 16.19 C 57.55 15.03 59.19 18.91 56.79 19.89 C 54.45 20.95 52.78 17.04 55.22 16.19 Z" />
<path fill="#000000" opacity="1.00" d=" M 3.11 24.09 C 5.50 23.08 7.26 26.87 4.76 27.81 C 2.48 28.94 0.87 25.24 3.11 24.09 Z" />
<path fill="#000000" opacity="1.00" d=" M 55.20 24.09 C 57.61 23.15 59.15 26.86 56.77 27.91 C 54.34 28.81 52.88 25.15 55.20 24.09 Z" />
<path fill="#000000" opacity="1.00" d=" M 3.17 32.21 C 5.44 30.91 7.29 34.96 4.78 35.80 C 2.57 37.06 0.73 33.07 3.17 32.21 Z" />
<path fill="#000000" opacity="1.00" d=" M 55.26 32.19 C 57.54 31.07 59.13 34.79 56.86 35.90 C 54.48 36.97 52.74 33.01 55.26 32.19 Z" />
<path fill="#000000" opacity="1.00" d=" M 3.16 40.11 C 5.54 39.15 7.13 42.69 4.87 43.89 C 2.44 44.85 0.84 41.26 3.16 40.11 Z" />
<path fill="#000000" opacity="1.00" d=" M 55.12 40.11 C 57.55 39.11 59.15 42.74 56.84 43.88 C 54.42 44.87 52.89 41.29 55.12 40.11 Z" />
<path fill="#000000" opacity="1.00" d=" M 17.15 54.11 C 19.55 53.15 21.10 56.65 18.89 57.90 C 16.46 58.88 14.84 55.28 17.15 54.11 Z" />
<path fill="#000000" opacity="1.00" d=" M 25.16 54.13 C 27.56 53.12 29.20 56.81 26.81 57.85 C 24.45 58.92 22.83 55.17 25.16 54.13 Z" />
<path fill="#000000" opacity="1.00" d=" M 33.20 54.17 C 35.55 53.05 37.18 56.86 34.79 57.91 C 32.42 58.85 30.80 55.13 33.20 54.17 Z" />
<path fill="#000000" opacity="1.00" d=" M 41.20 54.22 C 43.46 52.94 45.26 56.93 42.79 57.85 C 40.46 58.97 38.77 55.02 41.20 54.22 Z" />
</g>
</svg>
