<?xml version="1.0" encoding="UTF-8" ?>
<!DOCTYPE svg PUBLIC "-//W3C//DTD SVG 1.1//EN" "http://www.w3.org/Graphics/SVG/1.1/DTD/svg11.dtd">
<svg width="60pt" height="60pt" viewBox="0 0 60 60" version="1.1" xmlns="http://www.w3.org/2000/svg">
<g id="#ffffffff">
<path fill="#ffffff" opacity="1.00" d=" M 0.00 0.00 L 60.00 0.00 L 60.00 60.00 L 0.00 60.00 L 0.00 0.00 M 27.21 6.29 C 25.44 7.01 25.93 10.18 27.96 9.97 C 33.41 9.71 38.95 11.25 43.11 14.88 C 41.40 16.58 39.71 18.30 38.01 19.99 C 42.00 20.01 46.00 20.00 50.00 20.00 C 50.00 16.00 50.00 12.00 50.00 8.00 C 48.65 9.36 47.30 10.69 45.95 12.04 C 40.85 7.70 33.92 5.16 27.21 6.29 M 8.01 10.00 C 9.36 11.35 10.69 12.71 12.04 14.05 C 7.69 19.14 5.18 26.07 6.28 32.77 C 7.01 34.53 10.06 34.09 9.97 32.11 C 9.77 26.69 11.09 20.90 15.02 16.95 C 16.64 18.67 18.34 20.32 20.01 22.00 C 20.00 18.00 20.00 14.00 20.00 10.00 C 16.00 10.00 12.00 10.00 8.01 10.00 M 49.97 28.87 C 50.23 34.02 48.48 39.21 45.08 43.10 C 43.42 41.37 41.70 39.71 40.02 38.01 C 39.98 42.01 40.00 46.00 40.00 50.00 C 44.00 50.00 48.00 50.00 51.99 50.00 C 50.64 48.65 49.31 47.29 47.96 45.95 C 51.72 41.51 54.05 35.82 53.99 29.97 C 53.89 28.67 54.20 26.87 52.72 26.23 C 51.02 25.46 49.54 27.24 49.97 28.87 M 10.00 40.00 C 10.00 44.00 10.00 48.00 10.00 51.99 C 11.35 50.64 12.71 49.31 14.05 47.96 C 19.16 52.28 26.07 54.84 32.77 53.71 C 34.60 52.95 34.05 49.79 31.98 50.02 C 26.58 50.24 20.93 48.81 16.92 45.03 C 18.66 43.40 20.30 41.68 21.99 40.01 C 18.00 39.99 14.00 40.00 10.00 40.00 Z" />
</g>
<g id="#000000ff">
<path fill="#968176" opacity="1.00" d=" M 27.21 6.29 C 33.92 5.16 40.85 7.70 45.95 12.04 C 47.30 10.69 48.65 9.36 50.00 8.00 C 50.00 12.00 50.00 16.00 50.00 20.00 C 46.00 20.00 42.00 20.01 38.01 19.99 C 39.71 18.30 41.40 16.58 43.11 14.88 C 38.95 11.25 33.41 9.71 27.96 9.97 C 25.93 10.18 25.44 7.01 27.21 6.29 Z" />
<path fill="#968176" opacity="1.00" d=" M 8.01 10.00 C 12.00 10.00 16.00 10.00 20.00 10.00 C 20.00 14.00 20.00 18.00 20.01 22.00 C 18.34 20.32 16.64 18.67 15.02 16.95 C 11.09 20.90 9.77 26.69 9.97 32.11 C 10.06 34.09 7.01 34.53 6.28 32.77 C 5.18 26.07 7.69 19.14 12.04 14.05 C 10.69 12.71 9.36 11.35 8.01 10.00 Z" />
<path fill="#968176" opacity="1.00" d=" M 49.97 28.87 C 49.54 27.24 51.02 25.46 52.72 26.23 C 54.20 26.87 53.89 28.67 53.99 29.97 C 54.05 35.82 51.72 41.51 47.96 45.95 C 49.31 47.29 50.64 48.65 51.99 50.00 C 48.00 50.00 44.00 50.00 40.00 50.00 C 40.00 46.00 39.98 42.01 40.02 38.01 C 41.70 39.71 43.42 41.37 45.08 43.10 C 48.48 39.21 50.23 34.02 49.97 28.87 Z" />
<path fill="#968176" opacity="1.00" d=" M 10.00 40.00 C 14.00 40.00 18.00 39.99 21.99 40.01 C 20.30 41.68 18.66 43.40 16.92 45.03 C 20.93 48.81 26.58 50.24 31.98 50.02 C 34.05 49.79 34.60 52.95 32.77 53.71 C 26.07 54.84 19.16 52.28 14.05 47.96 C 12.71 49.31 11.35 50.64 10.00 51.99 C 10.00 48.00 10.00 44.00 10.00 40.00 Z" />
</g>
</svg>
