<?xml version="1.0" encoding="UTF-8" ?>
<!DOCTYPE svg PUBLIC "-//W3C//DTD SVG 1.1//EN" "http://www.w3.org/Graphics/SVG/1.1/DTD/svg11.dtd">
<svg width="64pt" height="64pt" viewBox="0 0 64 64" version="1.1" xmlns="http://www.w3.org/2000/svg">
<g id="#ffffffff">
<path fill="#ffffff" opacity="1.00" d=" M 0.00 0.00 L 64.00 0.00 L 64.00 64.00 L 0.00 64.00 L 0.00 0.00 M 18.00 6.00 C 18.01 8.00 18.01 10.00 18.00 12.00 C 19.33 12.00 20.67 12.00 22.00 12.00 C 21.99 10.00 21.99 8.00 22.00 6.00 C 20.67 6.00 19.33 6.00 18.00 6.00 M 26.00 6.00 C 26.01 8.00 26.01 10.00 26.00 12.00 C 27.33 12.00 28.67 12.00 30.00 12.00 C 29.99 10.00 29.99 8.00 30.00 6.00 C 28.67 6.00 27.33 6.00 26.00 6.00 M 34.00 6.00 C 34.01 8.00 34.01 10.00 34.00 12.00 C 35.33 12.00 36.67 12.00 38.00 12.00 C 37.99 10.00 37.99 8.00 38.00 6.00 C 36.67 6.00 35.33 6.00 34.00 6.00 M 42.00 6.00 C 42.01 8.00 42.01 10.00 42.00 12.00 C 43.33 12.00 44.67 12.00 46.00 12.00 C 45.99 10.00 45.99 8.00 46.00 6.00 C 44.67 6.00 43.33 6.00 42.00 6.00 M 14.00 14.00 C 14.00 26.00 14.00 38.00 14.00 50.00 C 26.00 50.00 38.00 50.00 50.00 50.00 C 50.00 38.00 50.00 26.00 50.00 14.00 C 38.00 14.00 26.00 14.00 14.00 14.00 M 6.00 18.00 C 6.00 19.33 6.00 20.67 6.00 22.00 C 8.00 21.99 10.00 21.99 12.00 22.00 C 12.00 20.67 12.00 19.33 12.00 18.00 C 10.00 18.01 8.00 18.01 6.00 18.00 M 52.00 18.00 C 52.00 19.33 52.00 20.67 52.00 22.00 C 54.00 21.99 56.00 21.99 58.00 22.00 C 58.00 20.67 58.00 19.33 58.00 18.00 C 56.00 18.01 54.00 18.01 52.00 18.00 M 6.00 26.00 C 6.00 27.33 6.00 28.67 6.00 30.00 C 8.00 29.99 10.00 29.99 12.00 30.00 C 12.00 28.67 12.00 27.33 12.00 26.00 C 10.00 26.01 8.00 26.01 6.00 26.00 M 52.00 26.00 C 52.00 27.33 52.00 28.67 52.00 30.00 C 54.00 29.99 56.00 29.99 58.00 30.00 C 58.00 28.67 58.00 27.33 58.00 26.00 C 56.00 26.01 54.00 26.01 52.00 26.00 M 6.00 34.00 C 6.00 35.33 6.00 36.67 6.00 38.00 C 8.00 37.99 10.00 37.99 12.00 38.00 C 12.00 36.67 12.00 35.33 12.00 34.00 C 10.00 34.01 8.00 34.01 6.00 34.00 M 52.00 34.00 C 52.00 35.33 52.00 36.67 52.00 38.00 C 54.00 37.99 56.00 37.99 58.00 38.00 C 58.00 36.67 58.00 35.33 58.00 34.00 C 56.00 34.01 54.00 34.01 52.00 34.00 M 6.00 42.00 C 6.00 43.33 6.00 44.67 6.00 46.00 C 8.00 45.99 10.00 45.99 12.00 46.00 C 12.00 44.67 12.00 43.33 12.00 42.00 C 10.00 42.01 8.00 42.01 6.00 42.00 M 52.00 42.00 C 52.00 43.33 52.00 44.67 52.00 46.00 C 54.00 45.99 56.00 45.99 58.00 46.00 C 58.00 44.67 58.00 43.33 58.00 42.00 C 56.00 42.01 54.00 42.01 52.00 42.00 M 18.00 52.00 C 18.01 54.00 18.01 56.00 18.00 58.00 C 19.33 58.00 20.67 58.00 22.00 58.00 C 21.99 56.00 21.99 54.00 22.00 52.00 C 20.67 52.00 19.33 52.00 18.00 52.00 M 26.00 52.00 C 26.01 54.00 26.01 56.00 26.00 58.00 C 27.33 58.00 28.67 58.00 30.00 58.00 C 29.99 56.00 29.99 54.00 30.00 52.00 C 28.67 52.00 27.33 52.00 26.00 52.00 M 34.00 52.00 C 34.01 54.00 34.01 56.00 34.00 58.00 C 35.33 58.00 36.67 58.00 38.00 58.00 C 37.99 56.00 37.99 54.00 38.00 52.00 C 36.67 52.00 35.33 52.00 34.00 52.00 M 42.00 52.00 C 42.01 54.00 42.01 56.00 42.00 58.00 C 43.33 58.00 44.67 58.00 46.00 58.00 C 45.99 56.00 45.99 54.00 46.00 52.00 C 44.67 52.00 43.33 52.00 42.00 52.00 Z" />
<path fill="#ffffff" opacity="1.00" d=" M 18.00 18.00 C 27.33 18.00 36.67 18.00 46.00 18.00 C 46.00 27.33 46.00 36.67 46.00 46.00 C 36.67 46.00 27.33 46.00 18.00 46.00 C 18.00 36.67 18.00 27.33 18.00 18.00 M 23.50 22.45 C 20.12 24.13 23.22 29.73 26.50 27.55 C 29.88 25.87 26.78 20.26 23.50 22.45 M 37.50 36.45 C 34.12 38.13 37.23 43.74 40.50 41.55 C 43.88 39.87 40.77 34.27 37.50 36.45 Z" />
</g>
<g id="#000000ff">
<path fill="#000000" opacity="1.00" d=" M 18.00 6.00 C 19.33 6.00 20.67 6.00 22.00 6.00 C 21.99 8.00 21.99 10.00 22.00 12.00 C 20.67 12.00 19.33 12.00 18.00 12.00 C 18.01 10.00 18.01 8.00 18.00 6.00 Z" />
<path fill="#000000" opacity="1.00" d=" M 26.00 6.00 C 27.33 6.00 28.67 6.00 30.00 6.00 C 29.99 8.00 29.99 10.00 30.00 12.00 C 28.67 12.00 27.33 12.00 26.00 12.00 C 26.01 10.00 26.01 8.00 26.00 6.00 Z" />
<path fill="#000000" opacity="1.00" d=" M 34.00 6.00 C 35.33 6.00 36.67 6.00 38.00 6.00 C 37.99 8.00 37.99 10.00 38.00 12.00 C 36.67 12.00 35.33 12.00 34.00 12.00 C 34.01 10.00 34.01 8.00 34.00 6.00 Z" />
<path fill="#000000" opacity="1.00" d=" M 42.00 6.00 C 43.33 6.00 44.67 6.00 46.00 6.00 C 45.99 8.00 45.99 10.00 46.00 12.00 C 44.67 12.00 43.33 12.00 42.00 12.00 C 42.01 10.00 42.01 8.00 42.00 6.00 Z" />
<path fill="#000000" opacity="1.00" d=" M 14.00 14.00 C 26.00 14.00 38.00 14.00 50.00 14.00 C 50.00 26.00 50.00 38.00 50.00 50.00 C 38.00 50.00 26.00 50.00 14.00 50.00 C 14.00 38.00 14.00 26.00 14.00 14.00 M 18.00 18.00 C 18.00 27.33 18.00 36.67 18.00 46.00 C 27.33 46.00 36.67 46.00 46.00 46.00 C 46.00 36.67 46.00 27.33 46.00 18.00 C 36.67 18.00 27.33 18.00 18.00 18.00 Z" />
<path fill="#000000" opacity="1.00" d=" M 6.00 18.00 C 8.00 18.01 10.00 18.01 12.00 18.00 C 12.00 19.33 12.00 20.67 12.00 22.00 C 10.00 21.99 8.00 21.99 6.00 22.00 C 6.00 20.67 6.00 19.33 6.00 18.00 Z" />
<path fill="#000000" opacity="1.00" d=" M 52.00 18.00 C 54.00 18.01 56.00 18.01 58.00 18.00 C 58.00 19.33 58.00 20.67 58.00 22.00 C 56.00 21.99 54.00 21.99 52.00 22.00 C 52.00 20.67 52.00 19.33 52.00 18.00 Z" />
<path fill="#000000" opacity="1.00" d=" M 23.50 22.45 C 26.78 20.26 29.88 25.87 26.50 27.55 C 23.22 29.73 20.12 24.13 23.50 22.45 Z" />
<path fill="#000000" opacity="1.00" d=" M 6.00 26.00 C 8.00 26.01 10.00 26.01 12.00 26.00 C 12.00 27.33 12.00 28.67 12.00 30.00 C 10.00 29.99 8.00 29.99 6.00 30.00 C 6.00 28.67 6.00 27.33 6.00 26.00 Z" />
<path fill="#000000" opacity="1.00" d=" M 52.00 26.00 C 54.00 26.01 56.00 26.01 58.00 26.00 C 58.00 27.33 58.00 28.67 58.00 30.00 C 56.00 29.99 54.00 29.99 52.00 30.00 C 52.00 28.67 52.00 27.33 52.00 26.00 Z" />
<path fill="#000000" opacity="1.00" d=" M 6.00 34.00 C 8.00 34.01 10.00 34.01 12.00 34.00 C 12.00 35.33 12.00 36.67 12.00 38.00 C 10.00 37.99 8.00 37.99 6.00 38.00 C 6.00 36.67 6.00 35.33 6.00 34.00 Z" />
<path fill="#000000" opacity="1.00" d=" M 52.00 34.00 C 54.00 34.01 56.00 34.01 58.00 34.00 C 58.00 35.33 58.00 36.67 58.00 38.00 C 56.00 37.99 54.00 37.99 52.00 38.00 C 52.00 36.67 52.00 35.33 52.00 34.00 Z" />
<path fill="#000000" opacity="1.00" d=" M 37.50 36.45 C 40.77 34.27 43.88 39.87 40.50 41.55 C 37.23 43.74 34.12 38.13 37.50 36.45 Z" />
<path fill="#000000" opacity="1.00" d=" M 6.00 42.00 C 8.00 42.01 10.00 42.01 12.00 42.00 C 12.00 43.33 12.00 44.67 12.00 46.00 C 10.00 45.99 8.00 45.99 6.00 46.00 C 6.00 44.67 6.00 43.33 6.00 42.00 Z" />
<path fill="#000000" opacity="1.00" d=" M 52.00 42.00 C 54.00 42.01 56.00 42.01 58.00 42.00 C 58.00 43.33 58.00 44.67 58.00 46.00 C 56.00 45.99 54.00 45.99 52.00 46.00 C 52.00 44.67 52.00 43.33 52.00 42.00 Z" />
<path fill="#000000" opacity="1.00" d=" M 18.00 52.00 C 19.33 52.00 20.67 52.00 22.00 52.00 C 21.99 54.00 21.99 56.00 22.00 58.00 C 20.67 58.00 19.33 58.00 18.00 58.00 C 18.01 56.00 18.01 54.00 18.00 52.00 Z" />
<path fill="#000000" opacity="1.00" d=" M 26.00 52.00 C 27.33 52.00 28.67 52.00 30.00 52.00 C 29.99 54.00 29.99 56.00 30.00 58.00 C 28.67 58.00 27.33 58.00 26.00 58.00 C 26.01 56.00 26.01 54.00 26.00 52.00 Z" />
<path fill="#000000" opacity="1.00" d=" M 34.00 52.00 C 35.33 52.00 36.67 52.00 38.00 52.00 C 37.99 54.00 37.99 56.00 38.00 58.00 C 36.67 58.00 35.33 58.00 34.00 58.00 C 34.01 56.00 34.01 54.00 34.00 52.00 Z" />
<path fill="#000000" opacity="1.00" d=" M 42.00 52.00 C 43.33 52.00 44.67 52.00 46.00 52.00 C 45.99 54.00 45.99 56.00 46.00 58.00 C 44.67 58.00 43.33 58.00 42.00 58.00 C 42.01 56.00 42.01 54.00 42.00 52.00 Z" />
</g>
</svg>
