<?xml version="1.0" encoding="UTF-8" ?>
<!DOCTYPE svg PUBLIC "-//W3C//DTD SVG 1.1//EN" "http://www.w3.org/Graphics/SVG/1.1/DTD/svg11.dtd">
<svg width="64pt" height="64pt" viewBox="0 0 64 64" version="1.1" xmlns="http://www.w3.org/2000/svg">
<g id="#ffffffff">
<path fill="#ffffff" opacity="1.00" d=" M 0.00 0.00 L 64.00 0.00 L 64.00 47.71 C 63.91 40.21 58.03 33.49 50.68 32.22 C 51.75 28.14 52.92 24.09 53.98 20.01 C 52.81 20.01 51.63 20.00 50.45 19.97 C 47.10 16.69 43.86 13.29 40.49 10.02 C 38.80 11.65 37.20 13.37 35.48 14.98 C 33.78 13.36 32.21 11.62 30.49 10.03 C 27.15 13.35 23.79 16.65 20.49 20.01 C 20.78 21.34 21.10 22.66 21.46 23.97 C 30.55 24.05 39.65 23.97 48.75 24.01 C 48.03 26.68 47.33 29.36 46.55 32.02 C 42.26 32.51 38.26 34.66 35.50 37.98 C 31.02 38.01 26.53 38.01 22.05 37.98 C 20.33 31.28 18.68 24.56 17.00 17.85 C 16.43 13.14 9.46 12.92 6.63 15.12 C 5.70 18.96 10.64 17.89 12.89 18.01 C 14.69 24.94 16.35 31.90 18.13 38.84 C 18.60 41.34 21.30 42.24 23.55 42.16 C 18.96 42.53 16.78 48.85 20.07 52.04 C 22.67 55.11 28.09 54.36 29.79 50.72 C 31.80 47.20 29.16 42.52 25.24 42.00 C 27.88 42.04 30.52 41.97 33.16 42.01 C 28.90 51.57 36.42 63.36 46.73 64.00 L 0.00 64.00 L 0.00 0.00 Z" />
<path fill="#ffffff" opacity="1.00" d=" M 30.45 15.68 C 31.92 17.09 33.37 18.52 34.79 19.98 C 31.91 20.02 29.02 20.00 26.14 19.99 C 27.57 18.55 29.02 17.12 30.45 15.68 Z" />
<path fill="#ffffff" opacity="1.00" d=" M 38.34 17.79 C 39.03 17.07 39.76 16.36 40.50 15.68 C 41.91 17.13 43.39 18.52 44.79 19.97 C 43.33 20.03 41.86 20.02 40.39 19.95 C 39.88 19.41 38.85 18.33 38.34 17.79 Z" />
<path fill="#ffffff" opacity="1.00" d=" M 44.35 36.61 C 48.97 35.02 54.45 36.74 57.39 40.62 C 60.30 44.19 60.80 49.52 58.57 53.55 C 56.06 58.58 49.70 61.24 44.38 59.39 C 39.15 57.78 35.41 52.31 36.11 46.83 C 36.47 42.18 39.90 37.98 44.35 36.61 M 46.01 40.01 C 45.98 43.06 46.03 46.12 45.99 49.17 C 44.92 50.36 43.72 51.43 42.62 52.58 C 43.52 53.55 44.45 54.48 45.42 55.38 C 46.93 53.84 48.50 52.35 49.99 50.79 C 50.01 47.19 50.00 43.60 49.99 40.01 C 48.66 39.99 47.33 39.99 46.01 40.01 Z" />
<path fill="#ffffff" opacity="1.00" d=" M 23.21 46.35 C 25.26 44.77 27.84 48.09 25.67 49.57 C 23.75 51.28 21.10 47.94 23.21 46.35 Z" />
<path fill="#ffffff" opacity="1.00" d=" M 49.03 64.00 C 56.74 63.54 63.38 56.94 64.00 49.27 L 64.00 64.00 L 49.03 64.00 Z" />
</g>
<g id="#000000ff">
<path fill="#000000" opacity="1.00" d=" M 30.49 10.03 C 32.21 11.62 33.78 13.36 35.48 14.98 C 37.20 13.37 38.80 11.65 40.49 10.02 C 43.86 13.29 47.10 16.69 50.45 19.97 C 51.63 20.00 52.81 20.01 53.98 20.01 C 52.92 24.09 51.75 28.14 50.68 32.22 C 58.03 33.49 63.91 40.21 64.00 47.71 L 64.00 49.27 C 63.38 56.94 56.74 63.54 49.03 64.00 L 46.73 64.00 C 36.42 63.36 28.90 51.57 33.16 42.01 C 30.52 41.97 27.88 42.04 25.24 42.00 C 29.16 42.52 31.80 47.20 29.79 50.72 C 28.09 54.36 22.67 55.11 20.07 52.04 C 16.78 48.85 18.96 42.53 23.55 42.16 C 21.30 42.24 18.60 41.34 18.13 38.84 C 16.35 31.90 14.69 24.94 12.89 18.01 C 10.64 17.89 5.70 18.96 6.63 15.12 C 9.46 12.92 16.43 13.14 17.00 17.85 C 18.68 24.56 20.33 31.28 22.05 37.98 C 26.53 38.01 31.02 38.01 35.50 37.98 C 38.26 34.66 42.26 32.51 46.55 32.02 C 47.33 29.36 48.03 26.68 48.75 24.01 C 39.65 23.97 30.55 24.05 21.46 23.97 C 21.10 22.66 20.78 21.34 20.49 20.01 C 23.79 16.65 27.15 13.35 30.49 10.03 M 30.45 15.68 C 29.02 17.12 27.57 18.55 26.14 19.99 C 29.02 20.00 31.91 20.02 34.79 19.98 C 33.37 18.52 31.92 17.09 30.45 15.68 M 38.34 17.79 C 38.85 18.33 39.88 19.41 40.39 19.95 C 41.86 20.02 43.33 20.03 44.79 19.97 C 43.39 18.52 41.91 17.13 40.50 15.68 C 39.76 16.36 39.03 17.07 38.34 17.79 M 44.35 36.61 C 39.90 37.98 36.47 42.18 36.11 46.83 C 35.41 52.31 39.15 57.78 44.38 59.39 C 49.70 61.24 56.06 58.58 58.57 53.55 C 60.80 49.52 60.30 44.19 57.39 40.62 C 54.45 36.74 48.97 35.02 44.35 36.61 M 23.21 46.35 C 21.10 47.94 23.75 51.28 25.67 49.57 C 27.84 48.09 25.26 44.77 23.21 46.35 Z" />
<path fill="#000000" opacity="1.00" d=" M 46.01 40.01 C 47.33 39.99 48.66 39.99 49.99 40.01 C 50.00 43.60 50.01 47.19 49.99 50.79 C 48.50 52.35 46.93 53.84 45.42 55.38 C 44.45 54.48 43.52 53.55 42.62 52.58 C 43.72 51.43 44.92 50.36 45.99 49.17 C 46.03 46.12 45.98 43.06 46.01 40.01 Z" />
</g>
</svg>
