<?xml version="1.0" encoding="UTF-8" ?>
<!DOCTYPE svg PUBLIC "-//W3C//DTD SVG 1.1//EN" "http://www.w3.org/Graphics/SVG/1.1/DTD/svg11.dtd">
<svg width="64pt" height="64pt" viewBox="0 0 64 64" version="1.1" xmlns="http://www.w3.org/2000/svg">
<g id="#ffffffff">
<path fill="#ffffff" opacity="1.00" d=" M 0.00 0.00 L 64.00 0.00 L 64.00 64.00 L 0.00 64.00 L 0.00 0.00 M 11.87 7.86 C 12.14 9.67 12.67 13.29 12.93 15.10 C 15.21 13.22 17.25 11.08 18.96 8.67 C 17.18 8.47 13.64 8.06 11.87 7.86 M 22.00 8.00 C 22.00 9.33 22.00 10.67 22.00 12.00 C 23.33 12.00 24.67 12.00 26.00 12.00 C 26.00 10.67 26.00 9.33 26.00 8.00 C 24.67 8.00 23.33 8.00 22.00 8.00 M 30.00 8.00 C 30.00 9.33 30.00 10.67 30.00 12.00 C 31.33 12.00 32.67 12.00 34.00 12.00 C 34.00 10.67 34.00 9.33 34.00 8.00 C 32.67 8.00 31.33 8.00 30.00 8.00 M 38.00 8.00 C 38.00 9.33 38.00 10.67 38.00 12.00 C 39.33 12.00 40.67 12.00 42.00 12.00 C 42.00 10.67 42.00 9.33 42.00 8.00 C 40.67 8.00 39.33 8.00 38.00 8.00 M 44.90 8.93 C 46.78 11.21 48.92 13.25 51.33 14.96 C 51.53 13.18 51.94 9.64 52.14 7.87 C 50.33 8.14 46.71 8.67 44.90 8.93 M 12.00 18.00 C 12.00 19.33 12.00 20.67 12.00 22.00 C 13.33 22.00 14.67 22.00 16.00 22.00 C 16.00 20.67 16.00 19.33 16.00 18.00 C 14.67 18.00 13.33 18.00 12.00 18.00 M 20.00 18.00 C 20.00 19.33 20.00 20.67 20.00 22.00 C 28.00 22.00 36.00 22.00 44.00 22.00 C 44.00 20.67 44.00 19.33 44.00 18.00 C 36.00 18.00 28.00 18.00 20.00 18.00 M 48.00 18.00 C 48.00 19.33 48.00 20.67 48.00 22.00 C 49.33 22.00 50.67 22.00 52.00 22.00 C 52.00 20.67 52.00 19.33 52.00 18.00 C 50.67 18.00 49.33 18.00 48.00 18.00 M 12.00 26.00 C 12.00 27.33 12.00 28.67 12.00 30.00 C 13.33 30.00 14.67 30.00 16.00 30.00 C 16.00 28.67 16.00 27.33 16.00 26.00 C 14.67 26.00 13.33 26.00 12.00 26.00 M 48.00 26.00 C 48.00 27.33 48.00 28.67 48.00 30.00 C 49.33 30.00 50.67 30.00 52.00 30.00 C 52.00 28.67 52.00 27.33 52.00 26.00 C 50.67 26.00 49.33 26.00 48.00 26.00 M 20.00 30.00 C 20.00 31.33 20.00 32.67 20.00 34.00 C 24.67 34.00 29.33 34.00 34.00 34.00 C 34.00 32.67 34.00 31.33 34.00 30.00 C 29.33 30.00 24.67 30.00 20.00 30.00 M 38.00 30.00 C 38.00 31.33 38.00 32.67 38.00 34.00 C 39.50 34.00 42.50 34.00 44.00 34.00 C 44.00 32.67 44.00 31.33 44.00 30.00 C 42.50 30.00 39.50 30.00 38.00 30.00 M 12.00 34.00 C 12.00 35.33 12.00 36.67 12.00 38.00 C 13.33 38.00 14.67 38.00 16.00 38.00 C 16.00 36.67 16.00 35.33 16.00 34.00 C 14.67 34.00 13.33 34.00 12.00 34.00 M 48.00 34.00 C 48.00 35.33 48.00 36.67 48.00 38.00 C 49.33 38.00 50.67 38.00 52.00 38.00 C 52.00 36.67 52.00 35.33 52.00 34.00 C 50.67 34.00 49.33 34.00 48.00 34.00 M 20.00 38.00 C 20.00 39.33 20.00 40.67 20.00 42.00 C 24.67 42.00 29.33 42.00 34.00 42.00 C 34.00 40.67 34.00 39.33 34.00 38.00 C 29.33 38.00 24.67 38.00 20.00 38.00 M 38.00 38.00 C 38.00 39.33 38.00 40.67 38.00 42.00 C 39.50 42.00 42.50 42.00 44.00 42.00 C 44.00 40.67 44.00 39.33 44.00 38.00 C 42.50 38.00 39.50 38.00 38.00 38.00 M 12.00 42.00 C 12.00 43.33 12.00 44.67 12.00 46.00 C 13.33 46.00 14.67 46.00 16.00 46.00 C 16.00 44.67 16.00 43.33 16.00 42.00 C 14.67 42.00 13.33 42.00 12.00 42.00 M 48.00 42.00 C 48.00 43.33 48.00 44.67 48.00 46.00 C 49.33 46.00 50.67 46.00 52.00 46.00 C 52.00 44.67 52.00 43.33 52.00 42.00 C 50.67 42.00 49.33 42.00 48.00 42.00 M 12.67 49.04 C 12.47 50.82 12.06 54.36 11.86 56.13 C 13.67 55.86 17.29 55.33 19.10 55.07 C 17.22 52.79 15.08 50.75 12.67 49.04 M 45.04 55.33 C 46.82 55.53 50.36 55.94 52.13 56.14 C 51.86 54.33 51.33 50.71 51.07 48.90 C 48.79 50.78 46.75 52.92 45.04 55.33 M 22.00 52.00 C 22.00 53.33 22.00 54.67 22.00 56.00 C 23.33 56.00 24.67 56.00 26.00 56.00 C 26.00 54.67 26.00 53.33 26.00 52.00 C 24.67 52.00 23.33 52.00 22.00 52.00 M 30.00 52.00 C 30.00 53.33 30.00 54.67 30.00 56.00 C 31.33 56.00 32.67 56.00 34.00 56.00 C 34.00 54.67 34.00 53.33 34.00 52.00 C 32.67 52.00 31.33 52.00 30.00 52.00 M 38.00 52.00 C 38.00 53.33 38.00 54.67 38.00 56.00 C 39.33 56.00 40.67 56.00 42.00 56.00 C 42.00 54.67 42.00 53.33 42.00 52.00 C 40.67 52.00 39.33 52.00 38.00 52.00 Z" />
</g>
<g id="#000000ff">
<path fill="#000000" opacity="1.00" d=" M 11.87 7.86 C 13.64 8.06 17.18 8.47 18.96 8.67 C 17.25 11.08 15.21 13.22 12.93 15.10 C 12.67 13.29 12.14 9.67 11.87 7.86 Z" />
<path fill="#000000" opacity="1.00" d=" M 22.00 8.00 C 23.33 8.00 24.67 8.00 26.00 8.00 C 26.00 9.33 26.00 10.67 26.00 12.00 C 24.67 12.00 23.33 12.00 22.00 12.00 C 22.00 10.67 22.00 9.33 22.00 8.00 Z" />
<path fill="#000000" opacity="1.00" d=" M 30.00 8.00 C 31.33 8.00 32.67 8.00 34.00 8.00 C 34.00 9.33 34.00 10.67 34.00 12.00 C 32.67 12.00 31.33 12.00 30.00 12.00 C 30.00 10.67 30.00 9.33 30.00 8.00 Z" />
<path fill="#000000" opacity="1.00" d=" M 38.00 8.00 C 39.33 8.00 40.67 8.00 42.00 8.00 C 42.00 9.33 42.00 10.67 42.00 12.00 C 40.67 12.00 39.33 12.00 38.00 12.00 C 38.00 10.67 38.00 9.33 38.00 8.00 Z" />
<path fill="#000000" opacity="1.00" d=" M 44.90 8.93 C 46.71 8.67 50.33 8.14 52.14 7.87 C 51.94 9.64 51.53 13.18 51.33 14.96 C 48.92 13.25 46.78 11.21 44.90 8.93 Z" />
<path fill="#000000" opacity="1.00" d=" M 12.00 18.00 C 13.33 18.00 14.67 18.00 16.00 18.00 C 16.00 19.33 16.00 20.67 16.00 22.00 C 14.67 22.00 13.33 22.00 12.00 22.00 C 12.00 20.67 12.00 19.33 12.00 18.00 Z" />
<path fill="#000000" opacity="1.00" d=" M 20.00 18.00 C 28.00 18.00 36.00 18.00 44.00 18.00 C 44.00 19.33 44.00 20.67 44.00 22.00 C 36.00 22.00 28.00 22.00 20.00 22.00 C 20.00 20.67 20.00 19.33 20.00 18.00 Z" />
<path fill="#000000" opacity="1.00" d=" M 48.00 18.00 C 49.33 18.00 50.67 18.00 52.00 18.00 C 52.00 19.33 52.00 20.67 52.00 22.00 C 50.67 22.00 49.33 22.00 48.00 22.00 C 48.00 20.67 48.00 19.33 48.00 18.00 Z" />
<path fill="#000000" opacity="1.00" d=" M 12.00 26.00 C 13.33 26.00 14.67 26.00 16.00 26.00 C 16.00 27.33 16.00 28.67 16.00 30.00 C 14.67 30.00 13.33 30.00 12.00 30.00 C 12.00 28.67 12.00 27.33 12.00 26.00 Z" />
<path fill="#000000" opacity="1.00" d=" M 48.00 26.00 C 49.33 26.00 50.67 26.00 52.00 26.00 C 52.00 27.33 52.00 28.67 52.00 30.00 C 50.67 30.00 49.33 30.00 48.00 30.00 C 48.00 28.67 48.00 27.33 48.00 26.00 Z" />
<path fill="#000000" opacity="1.00" d=" M 20.00 30.00 C 24.67 30.00 29.33 30.00 34.00 30.00 C 34.00 31.33 34.00 32.67 34.00 34.00 C 29.33 34.00 24.67 34.00 20.00 34.00 C 20.00 32.67 20.00 31.33 20.00 30.00 Z" />
<path fill="#000000" opacity="1.00" d=" M 38.00 30.00 C 39.50 30.00 42.50 30.00 44.00 30.00 C 44.00 31.33 44.00 32.67 44.00 34.00 C 42.50 34.00 39.50 34.00 38.00 34.00 C 38.00 32.67 38.00 31.33 38.00 30.00 Z" />
<path fill="#000000" opacity="1.00" d=" M 12.00 34.00 C 13.33 34.00 14.67 34.00 16.00 34.00 C 16.00 35.33 16.00 36.67 16.00 38.00 C 14.67 38.00 13.33 38.00 12.00 38.00 C 12.00 36.67 12.00 35.33 12.00 34.00 Z" />
<path fill="#000000" opacity="1.00" d=" M 48.00 34.00 C 49.33 34.00 50.67 34.00 52.00 34.00 C 52.00 35.33 52.00 36.67 52.00 38.00 C 50.67 38.00 49.33 38.00 48.00 38.00 C 48.00 36.67 48.00 35.33 48.00 34.00 Z" />
<path fill="#000000" opacity="1.00" d=" M 20.00 38.00 C 24.67 38.00 29.33 38.00 34.00 38.00 C 34.00 39.33 34.00 40.67 34.00 42.00 C 29.33 42.00 24.67 42.00 20.00 42.00 C 20.00 40.67 20.00 39.33 20.00 38.00 Z" />
<path fill="#000000" opacity="1.00" d=" M 38.00 38.00 C 39.50 38.00 42.50 38.00 44.00 38.00 C 44.00 39.33 44.00 40.67 44.00 42.00 C 42.50 42.00 39.50 42.00 38.00 42.00 C 38.00 40.67 38.00 39.33 38.00 38.00 Z" />
<path fill="#000000" opacity="1.00" d=" M 12.00 42.00 C 13.33 42.00 14.67 42.00 16.00 42.00 C 16.00 43.33 16.00 44.67 16.00 46.00 C 14.67 46.00 13.33 46.00 12.00 46.00 C 12.00 44.67 12.00 43.33 12.00 42.00 Z" />
<path fill="#000000" opacity="1.00" d=" M 48.00 42.00 C 49.33 42.00 50.67 42.00 52.00 42.00 C 52.00 43.33 52.00 44.67 52.00 46.00 C 50.67 46.00 49.33 46.00 48.00 46.00 C 48.00 44.67 48.00 43.33 48.00 42.00 Z" />
<path fill="#000000" opacity="1.00" d=" M 12.67 49.04 C 15.08 50.75 17.22 52.79 19.10 55.07 C 17.29 55.33 13.67 55.86 11.86 56.13 C 12.06 54.36 12.47 50.82 12.67 49.04 Z" />
<path fill="#000000" opacity="1.00" d=" M 45.04 55.33 C 46.75 52.92 48.79 50.78 51.07 48.90 C 51.33 50.71 51.86 54.33 52.13 56.14 C 50.36 55.94 46.82 55.53 45.04 55.33 Z" />
<path fill="#000000" opacity="1.00" d=" M 22.00 52.00 C 23.33 52.00 24.67 52.00 26.00 52.00 C 26.00 53.33 26.00 54.67 26.00 56.00 C 24.67 56.00 23.33 56.00 22.00 56.00 C 22.00 54.67 22.00 53.33 22.00 52.00 Z" />
<path fill="#000000" opacity="1.00" d=" M 30.00 52.00 C 31.33 52.00 32.67 52.00 34.00 52.00 C 34.00 53.33 34.00 54.67 34.00 56.00 C 32.67 56.00 31.33 56.00 30.00 56.00 C 30.00 54.67 30.00 53.33 30.00 52.00 Z" />
<path fill="#000000" opacity="1.00" d=" M 38.00 52.00 C 39.33 52.00 40.67 52.00 42.00 52.00 C 42.00 53.33 42.00 54.67 42.00 56.00 C 40.67 56.00 39.33 56.00 38.00 56.00 C 38.00 54.67 38.00 53.33 38.00 52.00 Z" />
</g>
</svg>
