<?xml version="1.0" encoding="UTF-8" ?>
<!DOCTYPE svg PUBLIC "-//W3C//DTD SVG 1.1//EN" "http://www.w3.org/Graphics/SVG/1.1/DTD/svg11.dtd">
<svg width="64pt" height="64pt" viewBox="0 0 64 64" version="1.1" xmlns="http://www.w3.org/2000/svg">
<g id="#ffffffff">
<path fill="#ffffff" opacity="1.00" d=" M 0.00 0.00 L 64.00 0.00 L 64.00 64.00 L 0.00 64.00 L 0.00 0.00 M 32.05 10.00 C 31.88 18.29 28.79 26.78 22.49 32.38 C 18.58 36.01 13.30 37.90 8.00 38.05 C 8.00 39.38 8.01 40.72 8.01 42.05 C 13.85 41.88 19.67 39.95 24.18 36.17 C 31.94 29.90 35.90 19.84 36.04 10.01 C 34.71 10.01 33.38 10.00 32.05 10.00 M 43.42 10.59 C 39.47 12.28 38.83 18.28 42.36 20.74 C 45.67 23.55 51.27 21.30 51.90 17.06 C 52.94 12.51 47.56 8.34 43.42 10.59 M 36.25 30.09 C 35.71 34.23 36.09 38.43 36.04 42.59 C 37.32 43.16 38.61 43.73 39.89 44.30 C 40.04 47.53 40.02 50.77 40.00 54.00 C 37.33 54.00 34.67 54.00 32.00 54.00 C 32.00 48.67 32.00 43.33 32.00 38.00 C 30.67 38.00 29.33 38.00 28.00 38.00 C 28.00 43.33 28.00 48.67 28.00 54.00 C 26.67 54.00 25.33 54.00 24.00 54.00 C 24.00 50.00 24.00 46.00 24.00 42.00 C 22.67 42.00 21.33 42.00 20.00 42.00 C 20.00 46.00 20.00 50.00 20.00 54.00 C 18.67 54.00 17.33 54.00 16.00 54.00 C 16.00 51.33 16.00 48.67 16.00 46.00 C 14.67 46.00 13.33 46.00 12.00 46.00 C 12.00 48.67 12.00 51.33 12.00 54.00 C 10.67 54.00 9.33 54.00 8.00 54.00 C 8.00 55.33 8.00 56.67 8.00 58.00 C 24.00 58.00 40.00 58.00 56.00 58.00 C 56.00 56.67 56.00 55.33 56.00 54.00 C 54.67 54.00 53.33 54.00 52.00 54.00 C 51.99 50.81 52.00 47.63 52.01 44.45 C 53.31 43.85 54.60 43.25 55.89 42.65 C 55.95 38.45 56.29 34.20 55.72 30.02 C 54.77 25.72 50.16 23.43 46.01 23.96 C 41.83 23.42 37.17 25.74 36.25 30.09 Z" />
<path fill="#ffffff" opacity="1.00" d=" M 45.16 14.10 C 47.56 13.10 49.18 16.82 46.81 17.87 C 44.39 18.88 42.86 15.20 45.16 14.10 Z" />
<path fill="#ffffff" opacity="1.00" d=" M 40.13 30.98 C 41.41 27.01 46.56 27.72 49.73 28.40 C 53.67 30.82 51.42 36.26 51.99 40.03 C 50.66 40.69 49.33 41.37 48.00 42.03 C 48.00 46.02 48.00 50.01 48.00 54.00 C 46.67 54.00 45.33 54.00 44.00 54.00 C 44.00 50.01 44.00 46.02 44.00 42.03 C 42.66 41.37 41.34 40.69 40.01 40.03 C 40.05 37.01 39.85 33.99 40.13 30.98 Z" />
</g>
<g id="#000000ff">
<path fill="#000000" opacity="1.00" d=" M 32.05 10.00 C 33.38 10.00 34.71 10.01 36.04 10.01 C 35.90 19.84 31.94 29.90 24.18 36.17 C 19.67 39.95 13.85 41.88 8.01 42.05 C 8.01 40.72 8.00 39.38 8.00 38.05 C 13.30 37.90 18.58 36.01 22.49 32.38 C 28.79 26.78 31.88 18.29 32.05 10.00 Z" />
<path fill="#000000" opacity="1.00" d=" M 43.42 10.59 C 47.56 8.34 52.94 12.51 51.90 17.06 C 51.27 21.30 45.67 23.55 42.36 20.74 C 38.83 18.28 39.47 12.28 43.42 10.59 M 45.16 14.10 C 42.86 15.20 44.39 18.88 46.81 17.87 C 49.18 16.82 47.56 13.10 45.16 14.10 Z" />
<path fill="#000000" opacity="1.00" d=" M 36.25 30.09 C 37.17 25.74 41.83 23.42 46.01 23.96 C 50.16 23.43 54.77 25.72 55.72 30.02 C 56.29 34.20 55.95 38.45 55.89 42.65 C 54.60 43.25 53.31 43.85 52.01 44.45 C 52.00 47.63 51.99 50.81 52.00 54.00 C 53.33 54.00 54.67 54.00 56.00 54.00 C 56.00 55.33 56.00 56.67 56.00 58.00 C 40.00 58.00 24.00 58.00 8.00 58.00 C 8.00 56.67 8.00 55.33 8.00 54.00 C 9.33 54.00 10.67 54.00 12.00 54.00 C 12.00 51.33 12.00 48.67 12.00 46.00 C 13.33 46.00 14.67 46.00 16.00 46.00 C 16.00 48.67 16.00 51.33 16.00 54.00 C 17.33 54.00 18.67 54.00 20.00 54.00 C 20.00 50.00 20.00 46.00 20.00 42.00 C 21.33 42.00 22.67 42.00 24.00 42.00 C 24.00 46.00 24.00 50.00 24.00 54.00 C 25.33 54.00 26.67 54.00 28.00 54.00 C 28.00 48.67 28.00 43.33 28.00 38.00 C 29.33 38.00 30.67 38.00 32.00 38.00 C 32.00 43.33 32.00 48.67 32.00 54.00 C 34.67 54.00 37.33 54.00 40.00 54.00 C 40.02 50.77 40.04 47.53 39.89 44.30 C 38.61 43.73 37.32 43.16 36.04 42.59 C 36.09 38.43 35.71 34.23 36.25 30.09 M 40.13 30.98 C 39.85 33.99 40.05 37.01 40.01 40.03 C 41.34 40.69 42.66 41.37 44.00 42.03 C 44.00 46.02 44.00 50.01 44.00 54.00 C 45.33 54.00 46.67 54.00 48.00 54.00 C 48.00 50.01 48.00 46.02 48.00 42.03 C 49.33 41.37 50.66 40.69 51.99 40.03 C 51.42 36.26 53.67 30.82 49.73 28.40 C 46.56 27.72 41.41 27.01 40.13 30.98 Z" />
</g>
</svg>
