<?xml version="1.0" encoding="UTF-8" ?>
<!DOCTYPE svg PUBLIC "-//W3C//DTD SVG 1.1//EN" "http://www.w3.org/Graphics/SVG/1.1/DTD/svg11.dtd">
<svg width="64pt" height="64pt" viewBox="0 0 64 64" version="1.1" xmlns="http://www.w3.org/2000/svg">
<g id="#ffffffff">
<path fill="#ffffff" opacity="1.00" d=" M 0.00 0.00 L 64.00 0.00 L 64.00 38.00 C 55.34 38.02 46.68 37.96 38.02 38.02 C 37.97 44.63 38.00 51.25 38.00 57.86 C 39.31 57.95 40.62 58.04 41.93 58.12 C 41.99 59.92 42.04 61.72 42.14 63.51 C 45.23 61.90 47.84 59.40 51.09 58.12 C 55.38 57.79 59.70 58.07 64.00 58.01 L 64.00 64.00 L 0.00 64.00 L 0.00 0.00 M 8.02 8.01 C 7.99 24.00 7.99 39.99 8.01 55.98 C 16.68 56.01 25.34 56.03 34.00 55.97 C 34.00 54.66 34.00 53.34 34.00 52.03 C 26.67 51.94 19.34 52.05 12.01 51.99 C 11.99 42.66 11.99 33.34 12.01 24.02 C 25.34 23.99 38.67 23.99 51.99 24.02 C 52.00 27.34 52.00 30.67 52.02 34.00 C 53.34 34.00 54.66 34.00 55.97 34.00 C 56.03 25.34 56.01 16.68 55.99 8.02 C 40.00 7.99 24.01 7.99 8.02 8.01 Z" />
<path fill="#ffffff" opacity="1.00" d=" M 12.02 12.01 C 25.34 11.99 38.66 11.99 51.98 12.02 C 52.02 14.67 52.02 17.33 51.99 19.98 C 38.66 20.01 25.34 20.01 12.02 19.99 C 11.98 17.33 11.98 14.67 12.02 12.01 M 14.00 14.00 C 14.00 15.33 14.00 16.67 14.00 18.00 C 15.34 18.00 16.67 18.00 18.00 18.00 C 18.00 16.66 18.00 15.33 18.00 14.00 C 16.66 14.00 15.33 14.00 14.00 14.00 M 20.00 14.00 C 20.00 15.33 20.00 16.67 20.00 18.00 C 21.33 18.00 22.66 18.00 24.00 18.00 C 24.00 16.67 24.00 15.33 24.00 14.00 C 22.67 14.00 21.34 14.00 20.00 14.00 M 26.00 14.00 C 26.00 15.33 26.00 16.67 26.00 18.00 C 27.33 18.00 28.66 18.00 30.00 18.00 C 30.00 16.67 30.00 15.34 30.00 14.00 C 28.67 14.00 27.34 14.00 26.00 14.00 Z" />
<path fill="#ffffff" opacity="1.00" d=" M 42.02 42.01 C 48.01 41.98 53.99 41.98 59.98 42.01 C 60.02 46.01 60.02 50.00 59.98 53.99 C 55.43 54.42 50.18 52.68 46.36 55.94 C 46.33 53.40 43.72 54.12 42.00 53.88 C 41.99 49.92 41.97 45.97 42.02 42.01 Z" />
</g>
<g id="#000000ff">
<path fill="#000000" opacity="1.00" d=" M 8.02 8.01 C 24.01 7.99 40.00 7.99 55.99 8.02 C 56.01 16.68 56.03 25.34 55.97 34.00 C 54.66 34.00 53.34 34.00 52.02 34.00 C 52.00 30.67 52.00 27.34 51.99 24.02 C 38.67 23.99 25.34 23.99 12.01 24.02 C 11.99 33.34 11.99 42.66 12.01 51.99 C 19.34 52.05 26.67 51.94 34.00 52.03 C 34.00 53.34 34.00 54.66 34.00 55.97 C 25.34 56.03 16.68 56.01 8.01 55.98 C 7.99 39.99 7.99 24.00 8.02 8.01 M 12.02 12.01 C 11.98 14.67 11.98 17.33 12.02 19.99 C 25.34 20.01 38.66 20.01 51.99 19.98 C 52.02 17.33 52.02 14.67 51.98 12.02 C 38.66 11.99 25.34 11.99 12.02 12.01 Z" />
<path fill="#000000" opacity="1.00" d=" M 14.00 14.00 C 15.33 14.00 16.66 14.00 18.00 14.00 C 18.00 15.33 18.00 16.66 18.00 18.00 C 16.67 18.00 15.34 18.00 14.00 18.00 C 14.00 16.67 14.00 15.33 14.00 14.00 Z" />
<path fill="#000000" opacity="1.00" d=" M 20.00 14.00 C 21.34 14.00 22.67 14.00 24.00 14.00 C 24.00 15.33 24.00 16.67 24.00 18.00 C 22.66 18.00 21.33 18.00 20.00 18.00 C 20.00 16.67 20.00 15.33 20.00 14.00 Z" />
<path fill="#000000" opacity="1.00" d=" M 26.00 14.00 C 27.34 14.00 28.67 14.00 30.00 14.00 C 30.00 15.34 30.00 16.67 30.00 18.00 C 28.66 18.00 27.33 18.00 26.00 18.00 C 26.00 16.67 26.00 15.33 26.00 14.00 Z" />
<path fill="#000000" opacity="1.00" d=" M 38.02 38.02 C 46.68 37.96 55.34 38.02 64.00 38.00 L 64.00 58.01 C 59.70 58.07 55.38 57.79 51.09 58.12 C 47.84 59.40 45.23 61.90 42.14 63.51 C 42.04 61.72 41.99 59.92 41.93 58.12 C 40.62 58.04 39.31 57.95 38.00 57.86 C 38.00 51.25 37.97 44.63 38.02 38.02 M 42.02 42.01 C 41.97 45.97 41.99 49.92 42.00 53.88 C 43.72 54.12 46.33 53.40 46.36 55.94 C 50.18 52.68 55.43 54.42 59.98 53.99 C 60.02 50.00 60.02 46.01 59.98 42.01 C 53.99 41.98 48.01 41.98 42.02 42.01 Z" />
</g>
</svg>
