<?xml version="1.0" encoding="UTF-8" ?>
<!DOCTYPE svg PUBLIC "-//W3C//DTD SVG 1.1//EN" "http://www.w3.org/Graphics/SVG/1.1/DTD/svg11.dtd">
<svg width="64pt" height="64pt" viewBox="0 0 64 64" version="1.1" xmlns="http://www.w3.org/2000/svg">
<g id="#ffffffff">
<path fill="#ffffff" opacity="1.00" d=" M 0.00 0.00 L 64.00 0.00 L 64.00 36.00 C 56.67 36.00 49.34 35.99 42.00 36.01 C 42.01 41.96 41.98 47.91 42.02 53.87 C 40.64 53.96 39.27 54.05 37.90 54.15 C 37.59 57.98 38.30 62.24 42.20 64.00 L 0.00 64.00 L 0.00 0.00 M 8.00 10.00 C 8.00 24.67 8.00 39.33 8.00 54.00 C 16.67 54.00 25.34 54.02 34.00 53.98 C 34.00 52.66 34.00 51.34 34.00 50.02 C 26.67 49.98 19.34 50.02 12.00 50.00 C 12.00 40.67 12.00 31.33 12.00 22.00 C 25.34 22.00 38.67 22.00 52.00 22.01 C 51.99 26.00 52.00 30.00 52.01 34.00 C 53.34 34.00 54.66 34.00 55.98 34.00 C 56.02 26.00 56.00 18.00 56.00 10.00 C 40.00 10.00 24.00 10.00 8.00 10.00 M 18.00 28.00 C 18.00 29.33 18.00 30.67 18.00 32.00 C 19.33 32.00 20.67 32.00 22.00 32.00 C 22.00 30.67 22.00 29.33 22.00 28.00 C 20.67 28.00 19.33 28.00 18.00 28.00 M 26.00 28.02 C 26.00 29.34 26.00 30.66 26.00 31.98 C 32.67 32.01 39.33 32.01 46.00 31.98 C 46.00 30.66 46.00 29.34 46.00 28.02 C 39.33 27.99 32.67 27.99 26.00 28.02 M 18.00 36.00 C 18.00 37.33 18.00 38.67 18.00 40.00 C 19.33 40.00 20.67 40.00 22.00 40.00 C 22.00 38.67 22.00 37.33 22.00 36.00 C 20.67 36.00 19.33 36.00 18.00 36.00 M 26.00 36.02 C 26.00 37.34 26.00 38.66 26.00 39.98 C 30.00 40.01 34.00 40.01 38.00 39.98 C 38.00 38.66 38.00 37.34 38.00 36.02 C 34.00 35.99 30.00 35.99 26.00 36.02 Z" />
<path fill="#ffffff" opacity="1.00" d=" M 12.00 14.02 C 25.33 13.99 38.67 13.99 52.00 14.02 C 52.00 15.34 52.00 16.66 52.00 17.98 C 38.67 18.01 25.33 18.01 12.00 17.98 C 12.00 16.66 12.00 15.34 12.00 14.02 Z" />
<path fill="#ffffff" opacity="1.00" d=" M 46.00 40.01 C 50.67 39.99 55.33 39.99 60.00 40.01 C 59.94 45.99 60.11 51.98 59.94 57.96 C 60.10 59.41 58.52 60.33 57.24 59.93 C 55.26 58.65 56.27 55.95 55.92 54.00 C 52.61 54.00 49.31 54.00 46.01 54.00 C 45.99 49.33 46.00 44.67 46.00 40.01 Z" />
<path fill="#ffffff" opacity="1.00" d=" M 41.61 58.14 C 45.02 57.98 48.44 57.85 51.84 58.10 C 51.99 58.56 52.28 59.49 52.42 59.96 C 48.88 59.42 44.02 61.60 41.61 58.14 Z" />
<path fill="#ffffff" opacity="1.00" d=" M 59.84 64.00 C 61.44 62.86 62.84 61.47 64.00 59.88 L 64.00 64.00 L 59.84 64.00 Z" />
</g>
<g id="#000000ff">
<path fill="#000000" opacity="1.00" d=" M 8.00 10.00 C 24.00 10.00 40.00 10.00 56.00 10.00 C 56.00 18.00 56.02 26.00 55.98 34.00 C 54.66 34.00 53.34 34.00 52.01 34.00 C 52.00 30.00 51.99 26.00 52.00 22.01 C 38.67 22.00 25.34 22.00 12.00 22.00 C 12.00 31.33 12.00 40.67 12.00 50.00 C 19.34 50.02 26.67 49.98 34.00 50.02 C 34.00 51.34 34.00 52.66 34.00 53.98 C 25.34 54.02 16.67 54.00 8.00 54.00 C 8.00 39.33 8.00 24.67 8.00 10.00 M 12.00 14.02 C 12.00 15.34 12.00 16.66 12.00 17.98 C 25.33 18.01 38.67 18.01 52.00 17.98 C 52.00 16.66 52.00 15.34 52.00 14.02 C 38.67 13.99 25.33 13.99 12.00 14.02 Z" />
<path fill="#000000" opacity="1.00" d=" M 18.00 28.00 C 19.33 28.00 20.67 28.00 22.00 28.00 C 22.00 29.33 22.00 30.67 22.00 32.00 C 20.67 32.00 19.33 32.00 18.00 32.00 C 18.00 30.67 18.00 29.33 18.00 28.00 Z" />
<path fill="#000000" opacity="1.00" d=" M 26.00 28.02 C 32.67 27.99 39.33 27.99 46.00 28.02 C 46.00 29.34 46.00 30.66 46.00 31.98 C 39.33 32.01 32.67 32.01 26.00 31.98 C 26.00 30.66 26.00 29.34 26.00 28.02 Z" />
<path fill="#000000" opacity="1.00" d=" M 18.00 36.00 C 19.33 36.00 20.67 36.00 22.00 36.00 C 22.00 37.33 22.00 38.67 22.00 40.00 C 20.67 40.00 19.33 40.00 18.00 40.00 C 18.00 38.67 18.00 37.33 18.00 36.00 Z" />
<path fill="#000000" opacity="1.00" d=" M 26.00 36.02 C 30.00 35.99 34.00 35.99 38.00 36.02 C 38.00 37.34 38.00 38.66 38.00 39.98 C 34.00 40.01 30.00 40.01 26.00 39.98 C 26.00 38.66 26.00 37.34 26.00 36.02 Z" />
<path fill="#000000" opacity="1.00" d=" M 42.00 36.01 C 49.34 35.99 56.67 36.00 64.00 36.00 L 64.00 59.88 C 62.84 61.47 61.44 62.86 59.84 64.00 L 42.20 64.00 C 38.30 62.24 37.59 57.98 37.90 54.15 C 39.27 54.05 40.64 53.96 42.02 53.87 C 41.98 47.91 42.01 41.96 42.00 36.01 M 46.00 40.01 C 46.00 44.67 45.99 49.33 46.01 54.00 C 49.31 54.00 52.61 54.00 55.92 54.00 C 56.27 55.95 55.26 58.65 57.24 59.93 C 58.52 60.33 60.10 59.41 59.94 57.96 C 60.11 51.98 59.94 45.99 60.00 40.01 C 55.33 39.99 50.67 39.99 46.00 40.01 M 41.61 58.14 C 44.02 61.60 48.88 59.42 52.42 59.96 C 52.28 59.49 51.99 58.56 51.84 58.10 C 48.44 57.85 45.02 57.98 41.61 58.14 Z" />
</g>
</svg>
