<?xml version="1.0" encoding="UTF-8" ?>
<!DOCTYPE svg PUBLIC "-//W3C//DTD SVG 1.1//EN" "http://www.w3.org/Graphics/SVG/1.1/DTD/svg11.dtd">
<svg width="60pt" height="60pt" viewBox="0 0 60 60" version="1.1" xmlns="http://www.w3.org/2000/svg">
<g id="#ffffffff">
<path fill="#ffffff" opacity="1.00" d=" M 0.00 0.00 L 60.00 0.00 L 60.00 31.44 C 59.41 30.62 58.74 29.85 58.01 29.15 C 57.91 26.49 58.18 23.83 57.86 21.19 C 57.23 19.61 54.79 19.59 54.14 21.17 C 53.86 23.24 54.04 25.34 54.00 27.42 C 49.45 25.91 44.74 24.99 40.01 24.35 C 39.99 22.23 39.99 20.12 40.01 18.00 C 42.27 17.94 44.56 18.17 46.81 17.85 C 48.71 16.70 48.77 12.01 45.98 12.04 C 35.98 12.63 25.97 13.31 15.97 14.03 C 13.92 13.88 13.29 16.98 15.10 17.82 C 17.38 18.19 19.70 17.93 21.99 18.00 C 22.02 20.16 22.02 22.32 21.95 24.48 C 17.86 25.25 13.90 26.56 10.00 27.99 C 7.08 24.87 5.30 18.99 0.00 19.93 L 0.00 0.00 Z" />
<path fill="#ffffff" opacity="1.00" d=" M 26.00 18.00 C 29.33 18.00 32.67 18.00 36.00 18.00 C 35.44 21.16 37.23 25.30 34.91 27.81 C 32.13 27.70 28.25 29.11 26.16 26.84 C 25.79 23.92 26.09 20.94 26.00 18.00 Z" />
<path fill="#ffffff" opacity="1.00" d=" M 0.00 20.40 C 1.51 25.26 -0.31 32.40 5.08 35.11 C 20.66 40.65 38.00 41.67 54.00 37.29 C 54.36 39.46 52.83 43.48 55.99 44.05 C 59.61 43.03 57.38 38.16 58.02 35.43 C 58.72 34.62 59.38 33.78 60.00 32.91 L 60.00 60.00 L 0.00 60.00 L 0.00 20.40 M 39.43 42.46 C 36.04 44.36 39.45 49.84 42.67 47.48 C 45.85 45.52 42.60 40.31 39.43 42.46 Z" />
</g>
<g id="#000000ff">
<path fill="#000000" opacity="1.00" d=" M 15.97 14.03 C 25.97 13.31 35.98 12.63 45.98 12.04 C 48.77 12.01 48.71 16.70 46.81 17.85 C 44.56 18.17 42.27 17.94 40.01 18.00 C 39.99 20.12 39.99 22.23 40.01 24.35 C 44.74 24.99 49.45 25.91 54.00 27.42 C 54.04 25.34 53.86 23.24 54.14 21.17 C 54.79 19.59 57.23 19.61 57.86 21.19 C 58.18 23.83 57.91 26.49 58.01 29.15 C 58.74 29.85 59.41 30.62 60.00 31.44 L 60.00 32.91 C 59.38 33.78 58.72 34.62 58.02 35.43 C 57.38 38.16 59.61 43.03 55.99 44.05 C 52.83 43.48 54.36 39.46 54.00 37.29 C 38.00 41.67 20.66 40.65 5.08 35.11 C -0.31 32.40 1.51 25.26 0.00 20.40 L 0.00 19.93 C 5.30 18.99 7.08 24.87 10.00 27.99 C 13.90 26.56 17.86 25.25 21.95 24.48 C 22.02 22.32 22.02 20.16 21.99 18.00 C 19.70 17.93 17.38 18.19 15.10 17.82 C 13.29 16.98 13.92 13.88 15.97 14.03 M 26.00 18.00 C 26.09 20.94 25.79 23.92 26.16 26.84 C 28.25 29.11 32.13 27.70 34.91 27.81 C 37.23 25.30 35.44 21.16 36.00 18.00 C 32.67 18.00 29.33 18.00 26.00 18.00 Z" />
<path fill="#000000" opacity="1.00" d=" M 39.43 42.46 C 42.60 40.31 45.85 45.52 42.67 47.48 C 39.45 49.84 36.04 44.36 39.43 42.46 Z" />
</g>
</svg>
