<?xml version="1.0" encoding="UTF-8" ?>
<!DOCTYPE svg PUBLIC "-//W3C//DTD SVG 1.1//EN" "http://www.w3.org/Graphics/SVG/1.1/DTD/svg11.dtd">
<svg width="64pt" height="64pt" viewBox="0 0 64 64" version="1.1" xmlns="http://www.w3.org/2000/svg">
<g id="#ffffffff">
<path fill="#ffffff" opacity="1.00" d=" M 0.00 0.00 L 64.00 0.00 L 64.00 64.00 L 0.00 64.00 L 0.00 0.00 M 5.93 20.00 C 4.62 20.00 3.31 20.00 2.00 20.00 C 2.00 21.33 2.00 22.67 2.00 24.00 C 3.33 24.00 4.67 24.00 6.00 24.00 C 6.00 29.33 6.00 34.67 6.00 40.00 C 4.67 40.00 3.33 40.00 2.00 40.00 C 2.00 41.33 2.00 42.67 2.00 44.00 C 3.31 44.00 4.62 44.00 5.93 44.00 C 5.99 45.65 5.95 47.31 6.19 48.94 C 7.00 50.29 8.68 49.90 9.99 50.01 C 25.35 49.93 40.71 50.11 56.07 49.93 C 58.94 49.69 57.71 45.92 58.07 44.00 C 59.38 44.00 60.69 44.00 62.00 44.00 C 62.00 42.67 62.00 41.33 62.00 40.00 C 60.67 40.00 59.33 40.00 58.00 40.00 C 58.00 34.67 58.00 29.33 58.00 24.00 C 59.33 24.00 60.67 24.00 62.00 24.00 C 62.00 22.67 62.00 21.33 62.00 20.00 C 60.69 20.00 59.38 20.00 58.07 20.00 C 57.71 18.07 58.95 14.28 56.05 14.07 C 40.02 13.95 23.99 13.96 7.96 14.07 C 5.05 14.26 6.29 18.07 5.93 20.00 Z" />
<path fill="#ffffff" opacity="1.00" d=" M 10.00 18.00 C 24.67 18.00 39.33 18.00 54.00 18.00 C 54.00 27.33 54.00 36.67 54.00 46.00 C 39.33 46.00 24.67 46.00 10.00 46.00 C 10.00 36.67 10.00 27.33 10.00 18.00 M 12.12 23.03 C 11.81 29.35 12.09 35.68 12.00 42.01 C 13.18 42.00 14.36 41.99 15.54 41.99 C 15.53 39.38 15.53 36.77 15.50 34.16 C 17.04 33.83 20.32 34.59 20.19 32.09 C 20.04 28.93 20.88 25.37 19.66 22.46 C 17.41 21.88 13.93 21.18 12.12 23.03 M 21.40 22.01 C 21.51 28.22 21.23 34.43 21.53 40.62 C 21.85 42.68 24.57 41.76 26.00 42.04 C 27.54 41.75 29.97 42.70 30.70 40.81 C 31.01 34.55 30.73 28.27 30.82 22.00 C 29.65 22.00 28.47 22.00 27.29 22.01 C 27.30 27.53 27.28 33.06 27.30 38.59 C 26.74 38.63 25.62 38.71 25.06 38.76 C 24.83 33.17 24.98 27.58 24.94 21.99 C 23.76 22.00 22.58 22.00 21.40 22.01 M 34.05 22.16 C 32.42 23.95 33.49 26.75 33.05 28.94 C 31.87 30.43 31.41 32.48 33.08 33.89 C 33.36 36.36 32.78 39.00 33.58 41.37 C 35.61 42.61 38.50 41.98 40.81 41.70 C 42.01 39.25 41.18 36.29 41.43 33.64 C 41.13 33.24 40.52 32.43 40.22 32.03 C 40.52 31.61 41.13 30.78 41.43 30.37 C 41.20 27.70 41.95 24.80 40.86 22.30 C 38.63 21.82 36.30 21.89 34.05 22.16 M 43.16 22.31 C 41.86 26.97 42.94 32.11 42.57 36.96 C 42.68 38.82 41.91 42.45 44.94 41.97 C 47.16 41.69 50.35 42.98 51.87 40.91 C 52.11 37.66 52.12 34.38 51.87 31.14 C 51.06 29.36 48.70 30.25 47.18 29.91 C 47.43 31.31 47.48 32.81 48.36 34.02 C 48.43 35.56 48.48 37.10 48.52 38.64 C 47.92 38.65 46.73 38.68 46.13 38.69 C 46.11 34.23 46.11 29.77 46.13 25.30 C 46.72 25.32 47.90 25.35 48.49 25.36 C 48.48 25.90 48.46 26.98 48.46 27.52 C 49.66 27.53 50.86 27.54 52.06 27.55 C 51.72 25.79 52.77 23.22 50.91 22.14 C 48.34 21.90 45.70 21.78 43.16 22.31 Z" />
<path fill="#ffffff" opacity="1.00" d=" M 15.48 25.35 C 15.82 25.34 16.50 25.31 16.84 25.29 C 16.84 27.34 16.82 29.39 16.53 31.42 C 15.03 29.75 15.65 27.39 15.48 25.35 Z" />
<path fill="#ffffff" opacity="1.00" d=" M 37.12 25.36 C 38.60 25.74 38.18 28.64 37.56 29.76 C 36.06 29.35 36.57 26.51 37.12 25.36 Z" />
<path fill="#ffffff" opacity="1.00" d=" M 37.14 33.15 C 38.53 33.81 38.45 37.97 37.15 38.71 C 36.50 37.03 36.46 34.82 37.14 33.15 Z" />
</g>
<g id="#000000ff">
<path fill="#000000" opacity="1.00" d=" M 5.93 20.00 C 6.29 18.07 5.05 14.26 7.96 14.07 C 23.99 13.96 40.02 13.95 56.05 14.07 C 58.95 14.28 57.71 18.07 58.07 20.00 C 59.38 20.00 60.69 20.00 62.00 20.00 C 62.00 21.33 62.00 22.67 62.00 24.00 C 60.67 24.00 59.33 24.00 58.00 24.00 C 58.00 29.33 58.00 34.67 58.00 40.00 C 59.33 40.00 60.67 40.00 62.00 40.00 C 62.00 41.33 62.00 42.67 62.00 44.00 C 60.69 44.00 59.38 44.00 58.07 44.00 C 57.71 45.92 58.94 49.69 56.07 49.93 C 40.71 50.11 25.35 49.93 9.99 50.01 C 8.68 49.90 7.00 50.29 6.19 48.94 C 5.95 47.31 5.99 45.65 5.93 44.00 C 4.62 44.00 3.31 44.00 2.00 44.00 C 2.00 42.67 2.00 41.33 2.00 40.00 C 3.33 40.00 4.67 40.00 6.00 40.00 C 6.00 34.67 6.00 29.33 6.00 24.00 C 4.67 24.00 3.33 24.00 2.00 24.00 C 2.00 22.67 2.00 21.33 2.00 20.00 C 3.31 20.00 4.62 20.00 5.93 20.00 M 10.00 18.00 C 10.00 27.33 10.00 36.67 10.00 46.00 C 24.67 46.00 39.33 46.00 54.00 46.00 C 54.00 36.67 54.00 27.33 54.00 18.00 C 39.33 18.00 24.67 18.00 10.00 18.00 Z" />
<path fill="#000000" opacity="1.00" d=" M 12.12 23.03 C 13.93 21.18 17.41 21.88 19.66 22.46 C 20.88 25.37 20.04 28.93 20.19 32.09 C 20.32 34.59 17.04 33.83 15.50 34.16 C 15.53 36.77 15.53 39.38 15.54 41.99 C 14.36 41.99 13.18 42.00 12.00 42.01 C 12.09 35.68 11.81 29.35 12.12 23.03 M 15.48 25.35 C 15.65 27.39 15.03 29.75 16.53 31.42 C 16.82 29.39 16.84 27.34 16.84 25.29 C 16.50 25.31 15.82 25.34 15.48 25.35 Z" />
<path fill="#000000" opacity="1.00" d=" M 21.40 22.01 C 22.58 22.00 23.76 22.00 24.94 21.99 C 24.98 27.58 24.83 33.17 25.06 38.76 C 25.62 38.71 26.74 38.63 27.30 38.59 C 27.28 33.06 27.30 27.53 27.29 22.01 C 28.47 22.00 29.65 22.00 30.82 22.00 C 30.73 28.27 31.01 34.55 30.70 40.81 C 29.97 42.70 27.54 41.75 26.00 42.04 C 24.57 41.76 21.85 42.68 21.53 40.62 C 21.23 34.43 21.51 28.22 21.40 22.01 Z" />
<path fill="#000000" opacity="1.00" d=" M 34.05 22.16 C 36.30 21.89 38.63 21.82 40.86 22.30 C 41.95 24.80 41.20 27.70 41.43 30.37 C 41.13 30.78 40.52 31.61 40.22 32.03 C 40.52 32.43 41.13 33.24 41.43 33.64 C 41.18 36.29 42.01 39.25 40.81 41.70 C 38.50 41.98 35.61 42.61 33.58 41.37 C 32.78 39.00 33.36 36.36 33.08 33.89 C 31.41 32.48 31.87 30.43 33.05 28.94 C 33.49 26.75 32.42 23.95 34.05 22.16 M 37.12 25.36 C 36.57 26.51 36.06 29.35 37.56 29.76 C 38.18 28.64 38.60 25.74 37.12 25.36 M 37.14 33.15 C 36.46 34.82 36.50 37.03 37.15 38.71 C 38.45 37.97 38.53 33.81 37.14 33.15 Z" />
<path fill="#000000" opacity="1.00" d=" M 43.16 22.31 C 45.70 21.78 48.34 21.90 50.91 22.14 C 52.77 23.22 51.72 25.79 52.06 27.55 C 50.86 27.54 49.66 27.53 48.46 27.52 C 48.46 26.98 48.48 25.90 48.49 25.36 C 47.90 25.35 46.72 25.32 46.13 25.30 C 46.11 29.77 46.11 34.23 46.13 38.69 C 46.73 38.68 47.92 38.65 48.52 38.64 C 48.48 37.10 48.43 35.56 48.36 34.02 C 47.48 32.81 47.43 31.31 47.18 29.91 C 48.70 30.25 51.06 29.36 51.87 31.14 C 52.12 34.38 52.11 37.66 51.87 40.91 C 50.35 42.98 47.16 41.69 44.94 41.97 C 41.91 42.45 42.68 38.82 42.57 36.96 C 42.94 32.11 41.86 26.97 43.16 22.31 Z" />
</g>
</svg>
