<?xml version="1.0" encoding="UTF-8" ?>
<!DOCTYPE svg PUBLIC "-//W3C//DTD SVG 1.1//EN" "http://www.w3.org/Graphics/SVG/1.1/DTD/svg11.dtd">
<svg width="64pt" height="64pt" viewBox="0 0 64 64" version="1.1" xmlns="http://www.w3.org/2000/svg">
<g id="#ffffffff">
<path fill="#ffffff" opacity="1.00" d=" M 0.00 0.00 L 64.00 0.00 L 64.00 64.00 L 0.00 64.00 L 0.00 0.00 M 25.01 18.85 C 22.72 22.22 20.36 25.83 20.08 30.03 C 20.13 34.16 21.96 38.01 22.28 42.11 C 21.28 46.83 19.51 51.35 18.24 56.01 C 19.65 56.00 21.05 55.99 22.46 55.97 C 23.66 51.38 25.51 46.95 26.41 42.28 C 26.00 38.11 24.18 34.17 24.09 29.96 C 24.42 26.79 26.30 24.11 27.98 21.51 C 31.62 22.85 35.41 21.23 37.41 18.03 C 41.61 17.97 45.80 18.01 50.00 18.00 C 50.00 16.67 50.00 15.33 50.00 14.00 C 46.04 14.00 42.09 14.01 38.14 13.98 C 37.11 10.11 33.18 6.94 29.08 8.29 C 24.57 9.43 22.79 14.97 25.01 18.85 M 40.63 22.60 C 38.94 24.34 37.23 26.06 35.54 27.81 C 33.55 26.73 31.56 25.64 29.57 24.56 C 28.95 25.73 28.32 26.89 27.69 28.05 C 30.69 29.31 33.38 32.17 36.79 31.91 C 39.39 30.17 41.21 27.55 43.43 25.39 C 42.48 24.47 41.55 23.54 40.63 22.60 M 29.65 39.90 C 28.88 42.20 27.55 44.47 27.63 46.96 C 28.02 49.99 28.76 52.97 29.24 55.99 C 30.60 56.00 31.96 56.00 33.31 56.00 C 32.08 50.64 31.77 45.03 29.65 39.90 Z" />
<path fill="#ffffff" opacity="1.00" d=" M 29.38 12.47 C 32.61 10.23 35.91 15.62 32.60 17.53 C 29.38 19.74 26.10 14.40 29.38 12.47 Z" />
</g>
<g id="#000000ff">
<path fill="#000000" opacity="1.00" d=" M 25.01 18.85 C 22.79 14.97 24.57 9.43 29.08 8.29 C 33.18 6.94 37.11 10.11 38.14 13.98 C 42.09 14.01 46.04 14.00 50.00 14.00 C 50.00 15.33 50.00 16.67 50.00 18.00 C 45.80 18.01 41.61 17.97 37.41 18.03 C 35.41 21.23 31.62 22.85 27.98 21.51 C 26.30 24.11 24.42 26.79 24.09 29.96 C 24.18 34.17 26.00 38.11 26.41 42.28 C 25.51 46.95 23.66 51.38 22.46 55.97 C 21.05 55.99 19.65 56.00 18.24 56.01 C 19.51 51.35 21.28 46.83 22.28 42.11 C 21.96 38.01 20.13 34.16 20.08 30.03 C 20.36 25.83 22.72 22.22 25.01 18.85 M 29.38 12.47 C 26.10 14.40 29.38 19.74 32.60 17.53 C 35.91 15.62 32.61 10.23 29.38 12.47 Z" />
<path fill="#000000" opacity="1.00" d=" M 40.63 22.60 C 41.55 23.54 42.48 24.47 43.43 25.39 C 41.21 27.55 39.39 30.17 36.79 31.91 C 33.38 32.17 30.69 29.31 27.69 28.05 C 28.32 26.89 28.95 25.73 29.57 24.56 C 31.56 25.64 33.55 26.73 35.54 27.81 C 37.23 26.06 38.94 24.34 40.63 22.60 Z" />
<path fill="#000000" opacity="1.00" d=" M 29.65 39.90 C 31.77 45.03 32.08 50.64 33.31 56.00 C 31.96 56.00 30.60 56.00 29.24 55.99 C 28.76 52.97 28.02 49.99 27.63 46.96 C 27.55 44.47 28.88 42.20 29.65 39.90 Z" />
</g>
</svg>
