<?xml version="1.0" encoding="UTF-8" ?>
<!DOCTYPE svg PUBLIC "-//W3C//DTD SVG 1.1//EN" "http://www.w3.org/Graphics/SVG/1.1/DTD/svg11.dtd">
<svg width="60pt" height="60pt" viewBox="0 0 60 60" version="1.1" xmlns="http://www.w3.org/2000/svg">
<g id="#ffffffff">
<path fill="#ffffff" opacity="1.00" d=" M 0.00 0.00 L 60.00 0.00 L 60.00 60.00 L 0.00 60.00 L 0.00 0.00 M 38.77 9.84 C 30.84 10.29 22.86 9.78 14.91 10.08 C 14.64 10.55 14.09 11.49 13.82 11.96 C 11.92 12.26 9.33 11.28 8.09 13.20 C 7.59 14.73 9.03 15.57 9.97 16.45 C 10.04 24.23 9.97 32.01 10.01 39.79 C 10.51 39.78 11.49 39.78 11.99 39.78 C 12.01 31.89 12.00 24.00 12.00 16.11 C 15.08 16.30 18.16 16.48 21.25 16.60 C 23.16 14.85 25.53 13.84 28.15 13.84 C 24.25 17.74 19.88 21.16 16.16 25.21 C 15.46 26.74 17.10 27.54 17.97 28.46 C 18.02 32.23 18.00 36.01 18.01 39.79 C 18.51 39.78 19.50 39.78 19.99 39.78 C 19.99 35.54 20.01 31.31 20.00 27.08 C 22.73 25.52 25.19 23.43 28.10 22.19 C 30.58 21.74 33.12 22.05 35.62 22.02 C 33.72 24.49 29.75 26.37 30.11 29.89 C 31.02 32.66 34.24 32.13 36.05 30.63 C 35.97 33.68 36.00 36.73 36.01 39.78 C 36.51 39.78 37.50 39.78 37.99 39.77 C 37.99 36.08 38.01 32.38 38.00 28.68 C 41.69 25.48 45.50 22.40 49.18 19.17 C 53.84 15.57 51.42 9.01 52.00 4.00 C 47.57 5.91 43.33 8.27 38.77 9.84 M 26.37 36.37 C 23.61 37.49 23.15 41.70 25.73 43.27 C 28.18 45.21 32.08 43.05 32.00 40.02 C 32.10 37.27 28.86 35.03 26.37 36.37 M 8.11 45.19 C 7.27 47.10 9.81 48.93 11.31 47.44 C 13.34 46.61 15.09 43.94 17.50 45.15 C 16.35 48.10 15.20 51.06 13.99 54.00 C 17.99 54.00 21.99 54.00 25.99 54.00 C 26.35 52.96 26.70 51.91 27.05 50.86 C 28.93 51.21 30.81 52.10 32.74 51.80 C 35.34 49.73 37.72 47.34 39.81 44.76 C 40.64 43.23 38.87 41.47 37.34 42.16 C 35.11 43.74 33.34 45.87 31.41 47.79 C 29.23 47.23 26.97 46.89 24.91 45.98 C 21.71 44.33 19.37 41.33 16.02 39.94 C 13.12 41.23 10.46 43.07 8.11 45.19 Z" />
</g>
<g id="#000000ff">
<path fill="#000000" opacity="1.00" d=" M 38.77 9.84 C 43.33 8.27 47.57 5.91 52.00 4.00 C 51.42 9.01 53.84 15.57 49.18 19.17 C 45.50 22.40 41.69 25.48 38.00 28.68 C 38.01 32.38 37.99 36.08 37.99 39.77 C 37.50 39.78 36.51 39.78 36.01 39.78 C 36.00 36.73 35.97 33.68 36.05 30.63 C 34.24 32.13 31.02 32.66 30.11 29.89 C 29.75 26.37 33.72 24.49 35.62 22.02 C 33.12 22.05 30.58 21.74 28.10 22.19 C 25.19 23.43 22.73 25.52 20.00 27.08 C 20.01 31.31 19.99 35.54 19.99 39.78 C 19.50 39.78 18.51 39.78 18.01 39.79 C 18.00 36.01 18.02 32.23 17.97 28.46 C 17.10 27.54 15.46 26.74 16.16 25.21 C 19.88 21.16 24.25 17.74 28.15 13.84 C 25.53 13.84 23.16 14.85 21.25 16.60 C 18.16 16.48 15.08 16.30 12.00 16.11 C 12.00 24.00 12.01 31.89 11.99 39.78 C 11.49 39.78 10.51 39.78 10.01 39.79 C 9.97 32.01 10.04 24.23 9.97 16.45 C 9.03 15.57 7.59 14.73 8.09 13.20 C 9.33 11.28 11.92 12.26 13.82 11.96 C 14.09 11.49 14.64 10.55 14.91 10.08 C 22.86 9.78 30.84 10.29 38.77 9.84 Z" />
<path fill="#000000" opacity="1.00" d=" M 26.37 36.37 C 28.86 35.03 32.10 37.27 32.00 40.02 C 32.08 43.05 28.18 45.21 25.73 43.27 C 23.15 41.70 23.61 37.49 26.37 36.37 Z" />
<path fill="#000000" opacity="1.00" d=" M 8.11 45.19 C 10.46 43.07 13.12 41.23 16.02 39.94 C 19.37 41.33 21.71 44.33 24.91 45.98 C 26.97 46.89 29.23 47.23 31.41 47.79 C 33.34 45.87 35.11 43.74 37.34 42.16 C 38.87 41.47 40.64 43.23 39.81 44.76 C 37.72 47.34 35.34 49.73 32.74 51.80 C 30.81 52.10 28.93 51.21 27.05 50.86 C 26.70 51.91 26.35 52.96 25.99 54.00 C 21.99 54.00 17.99 54.00 13.99 54.00 C 15.20 51.06 16.35 48.10 17.50 45.15 C 15.09 43.94 13.34 46.61 11.31 47.44 C 9.81 48.93 7.27 47.10 8.11 45.19 Z" />
</g>
</svg>
