<?xml version="1.0" encoding="UTF-8" ?>
<!DOCTYPE svg PUBLIC "-//W3C//DTD SVG 1.1//EN" "http://www.w3.org/Graphics/SVG/1.1/DTD/svg11.dtd">
<svg width="60pt" height="60pt" viewBox="0 0 60 60" version="1.1" xmlns="http://www.w3.org/2000/svg">
<g id="#ffffffff">
<path fill="#ffffff" opacity="1.00" d=" M 0.00 0.00 L 60.00 0.00 L 60.00 60.00 L 0.00 60.00 L 0.00 0.00 M 30.59 8.02 C 25.03 8.04 19.46 7.90 13.89 8.05 C 10.41 7.95 7.46 11.45 8.10 14.86 C 8.31 18.85 10.23 23.20 7.87 26.89 C 5.18 31.35 2.90 36.62 4.52 41.90 C 6.36 48.62 13.43 52.01 19.79 53.12 C 28.03 54.44 36.73 54.49 44.75 51.93 C 50.14 50.27 55.17 45.96 55.84 40.10 C 56.75 35.06 54.13 30.52 51.83 26.29 C 48.85 21.12 54.58 14.44 50.20 9.77 C 46.27 6.39 40.56 8.80 35.90 7.83 C 35.75 5.64 36.29 1.96 33.00 2.03 C 29.76 2.01 29.71 5.77 30.59 8.02 Z" />
<path fill="#ffffff" opacity="1.00" d=" M 13.14 12.19 C 23.07 11.73 33.05 12.16 43.00 11.98 C 44.61 12.19 46.89 11.43 47.87 13.17 C 47.98 16.81 46.83 20.36 46.71 24.00 C 46.82 27.63 47.98 31.18 47.87 34.83 C 47.61 35.07 47.10 35.57 46.85 35.82 C 40.47 36.24 34.05 35.91 27.66 35.96 C 28.79 37.71 30.54 39.73 29.78 41.97 C 29.24 44.01 26.33 44.64 24.90 43.12 C 23.55 41.95 24.36 40.07 24.54 38.60 C 21.69 34.97 17.05 36.30 13.09 35.82 C 12.85 35.56 12.36 35.04 12.12 34.78 C 12.03 31.16 13.17 27.64 13.29 24.04 C 13.18 20.37 11.99 16.78 12.13 13.10 C 12.38 12.87 12.88 12.42 13.14 12.19 Z" />
</g>
<g id="#000000ff">
<path fill="#000000" opacity="1.00" d=" M 30.59 8.02 C 29.71 5.77 29.76 2.01 33.00 2.03 C 36.29 1.96 35.75 5.64 35.90 7.83 C 40.56 8.80 46.27 6.39 50.20 9.77 C 54.58 14.44 48.85 21.12 51.83 26.29 C 54.13 30.52 56.75 35.06 55.84 40.10 C 55.17 45.96 50.14 50.27 44.75 51.93 C 36.73 54.49 28.03 54.44 19.79 53.12 C 13.43 52.01 6.36 48.62 4.52 41.90 C 2.90 36.62 5.18 31.35 7.87 26.89 C 10.23 23.20 8.31 18.85 8.10 14.86 C 7.46 11.45 10.41 7.95 13.89 8.05 C 19.46 7.90 25.03 8.04 30.59 8.02 M 13.14 12.19 C 12.88 12.42 12.38 12.87 12.13 13.10 C 11.99 16.78 13.18 20.37 13.29 24.04 C 13.17 27.64 12.03 31.16 12.12 34.78 C 12.36 35.04 12.85 35.56 13.09 35.82 C 17.05 36.30 21.69 34.97 24.54 38.60 C 24.36 40.07 23.55 41.95 24.90 43.12 C 26.33 44.64 29.24 44.01 29.78 41.97 C 30.54 39.73 28.79 37.71 27.66 35.96 C 34.05 35.91 40.47 36.24 46.85 35.82 C 47.10 35.57 47.61 35.07 47.87 34.83 C 47.98 31.18 46.82 27.63 46.71 24.00 C 46.83 20.36 47.98 16.81 47.87 13.17 C 46.89 11.43 44.61 12.19 43.00 11.98 C 33.05 12.16 23.07 11.73 13.14 12.19 Z" />
</g>
</svg>
