<?xml version="1.0" encoding="UTF-8" ?>
<!DOCTYPE svg PUBLIC "-//W3C//DTD SVG 1.1//EN" "http://www.w3.org/Graphics/SVG/1.1/DTD/svg11.dtd">
<svg width="60pt" height="60pt" viewBox="0 0 60 60" version="1.1" xmlns="http://www.w3.org/2000/svg">
<g id="#ffffffff">
<path fill="#ffffff" opacity="1.00" d=" M 0.00 0.00 L 60.00 0.00 L 60.00 60.00 L 0.00 60.00 L 0.00 0.00 M 23.40 6.48 C 19.93 8.53 23.75 14.02 26.91 11.34 C 29.78 9.12 26.39 4.39 23.40 6.48 M 33.42 6.47 C 29.96 8.44 33.66 13.99 36.82 11.37 C 39.84 9.27 36.45 4.37 33.42 6.47 M 11.11 14.37 C 8.62 14.75 6.84 18.35 9.04 20.12 C 10.71 20.61 11.63 19.45 12.34 18.15 C 23.98 15.37 36.14 15.48 47.79 18.13 C 48.09 18.68 48.70 19.77 49.00 20.32 C 52.93 20.80 52.57 15.48 49.56 14.60 C 37.04 11.24 23.68 11.29 11.11 14.37 M 20.56 20.75 C 17.08 21.74 11.77 21.04 10.16 25.08 C 7.95 30.46 6.14 36.17 6.02 42.04 C 5.94 46.94 10.00 51.51 14.91 51.89 C 18.77 52.14 22.80 51.50 26.36 53.39 C 31.72 55.67 36.56 50.98 41.96 52.00 C 47.14 52.70 52.73 49.45 53.73 44.14 C 54.54 38.68 52.71 33.26 51.05 28.12 C 50.12 25.95 49.58 22.85 46.86 22.28 C 38.33 19.96 29.31 19.51 20.56 20.75 Z" />
<path fill="#ffffff" opacity="1.00" d=" M 21.13 28.17 C 26.75 27.81 32.41 28.00 38.04 28.07 C 40.58 27.83 40.56 32.18 38.03 31.93 C 32.69 32.06 27.33 32.06 21.99 31.94 C 19.90 32.13 19.26 28.98 21.13 28.17 Z" />
<path fill="#ffffff" opacity="1.00" d=" M 37.20 34.09 C 40.73 33.34 40.10 37.90 39.95 40.07 C 40.10 42.56 35.89 42.55 36.05 40.07 C 36.14 38.11 35.24 35.39 37.20 34.09 Z" />
</g>
<g id="#000000ff">
<path fill="#000000" opacity="1.00" d=" M 23.40 6.48 C 26.39 4.39 29.78 9.12 26.91 11.34 C 23.75 14.02 19.93 8.53 23.40 6.48 Z" />
<path fill="#000000" opacity="1.00" d=" M 33.42 6.47 C 36.45 4.37 39.84 9.27 36.82 11.37 C 33.66 13.99 29.96 8.44 33.42 6.47 Z" />
<path fill="#000000" opacity="1.00" d=" M 11.11 14.37 C 23.68 11.29 37.04 11.24 49.56 14.60 C 52.57 15.48 52.93 20.80 49.00 20.32 C 48.70 19.77 48.09 18.68 47.79 18.13 C 36.14 15.48 23.98 15.37 12.34 18.15 C 11.63 19.45 10.71 20.61 9.04 20.12 C 6.84 18.35 8.62 14.75 11.11 14.37 Z" />
<path fill="#000000" opacity="1.00" d=" M 20.56 20.75 C 29.31 19.51 38.33 19.96 46.86 22.28 C 49.58 22.85 50.12 25.95 51.05 28.12 C 52.71 33.26 54.54 38.68 53.73 44.14 C 52.73 49.45 47.14 52.70 41.96 52.00 C 36.56 50.98 31.72 55.67 26.36 53.39 C 22.80 51.50 18.77 52.14 14.91 51.89 C 10.00 51.51 5.94 46.94 6.02 42.04 C 6.14 36.17 7.95 30.46 10.16 25.08 C 11.77 21.04 17.08 21.74 20.56 20.75 M 21.13 28.17 C 19.26 28.98 19.90 32.13 21.99 31.94 C 27.33 32.06 32.69 32.06 38.03 31.93 C 40.56 32.18 40.58 27.83 38.04 28.07 C 32.41 28.00 26.75 27.81 21.13 28.17 M 37.20 34.09 C 35.24 35.39 36.14 38.11 36.05 40.07 C 35.89 42.55 40.10 42.56 39.95 40.07 C 40.10 37.90 40.73 33.34 37.20 34.09 Z" />
</g>
</svg>
