<?xml version="1.0" encoding="UTF-8" ?>
<!DOCTYPE svg PUBLIC "-//W3C//DTD SVG 1.1//EN" "http://www.w3.org/Graphics/SVG/1.1/DTD/svg11.dtd">
<svg width="60pt" height="60pt" viewBox="0 0 60 60" version="1.1" xmlns="http://www.w3.org/2000/svg">
<g id="#ffffffff">
<path fill="#ffffff" opacity="1.00" d=" M 0.00 0.00 L 60.00 0.00 L 60.00 60.00 L 0.00 60.00 L 0.00 0.00 M 22.91 11.57 C 24.53 11.43 26.14 11.29 27.75 11.07 C 28.26 8.93 27.73 6.02 25.00 5.97 C 22.01 6.05 21.41 9.51 22.91 11.57 M 32.86 11.44 C 34.28 11.42 35.71 11.41 37.14 11.43 C 38.59 9.42 37.92 6.09 35.06 5.99 C 32.14 5.96 31.36 9.39 32.86 11.44 M 25.87 12.45 C 20.67 12.56 15.43 13.11 10.42 14.60 C 8.37 15.25 6.90 18.77 9.14 20.00 C 10.71 20.89 11.65 19.20 12.37 18.14 C 23.95 15.41 36.08 15.40 47.66 18.15 C 48.36 19.30 49.29 20.82 50.89 20.02 C 53.07 18.70 51.61 15.27 49.58 14.60 C 44.86 13.27 39.95 12.50 35.04 12.54 C 32.01 12.04 28.91 11.76 25.87 12.45 M 13.05 22.30 C 11.30 22.61 10.42 24.29 9.85 25.80 C 7.75 31.28 5.83 37.08 6.08 43.02 C 6.47 48.46 11.72 52.33 16.99 52.12 C 16.68 51.57 16.05 50.48 15.74 49.94 C 16.42 48.17 18.66 47.23 19.84 49.12 C 24.22 54.79 33.48 55.73 38.63 50.60 C 39.91 49.71 40.98 47.27 42.86 48.25 C 44.53 48.92 43.74 50.97 43.23 52.19 C 47.97 52.13 52.76 49.05 53.71 44.22 C 54.56 38.74 52.72 33.28 51.05 28.12 C 50.13 25.97 49.60 22.89 46.92 22.29 C 35.90 19.32 24.07 19.33 13.05 22.30 Z" />
</g>
<g id="#000000ff">
<path fill="#000000" opacity="1.00" d=" M 22.91 11.57 C 21.41 9.51 22.01 6.05 25.00 5.97 C 27.73 6.02 28.26 8.93 27.75 11.07 C 26.14 11.29 24.53 11.43 22.91 11.57 Z" />
<path fill="#000000" opacity="1.00" d=" M 32.86 11.44 C 31.36 9.39 32.14 5.96 35.06 5.99 C 37.92 6.09 38.59 9.42 37.14 11.43 C 35.71 11.41 34.28 11.42 32.86 11.44 Z" />
<path fill="#000000" opacity="1.00" d=" M 25.87 12.45 C 28.91 11.76 32.01 12.04 35.04 12.54 C 39.95 12.50 44.86 13.27 49.58 14.60 C 51.61 15.27 53.07 18.70 50.89 20.02 C 49.29 20.82 48.36 19.30 47.66 18.15 C 36.08 15.40 23.95 15.41 12.37 18.14 C 11.65 19.20 10.71 20.89 9.14 20.00 C 6.90 18.77 8.37 15.25 10.42 14.60 C 15.43 13.11 20.67 12.56 25.87 12.45 Z" />
<path fill="#000000" opacity="1.00" d=" M 13.05 22.30 C 24.07 19.33 35.90 19.32 46.92 22.29 C 49.60 22.89 50.13 25.97 51.05 28.12 C 52.72 33.28 54.56 38.74 53.71 44.22 C 52.76 49.05 47.97 52.13 43.23 52.19 C 43.74 50.97 44.53 48.92 42.86 48.25 C 40.98 47.27 39.91 49.71 38.63 50.60 C 33.48 55.73 24.22 54.79 19.84 49.12 C 18.66 47.23 16.42 48.17 15.74 49.94 C 16.05 50.48 16.68 51.57 16.99 52.12 C 11.72 52.33 6.47 48.46 6.08 43.02 C 5.83 37.08 7.75 31.28 9.85 25.80 C 10.42 24.29 11.30 22.61 13.05 22.30 Z" />
</g>
</svg>
