<?xml version="1.0" encoding="UTF-8" ?>
<!DOCTYPE svg PUBLIC "-//W3C//DTD SVG 1.1//EN" "http://www.w3.org/Graphics/SVG/1.1/DTD/svg11.dtd">
<svg width="64pt" height="64pt" viewBox="0 0 64 64" version="1.1" xmlns="http://www.w3.org/2000/svg">
<g id="#ffffffff">
<path fill="#ffffff" opacity="1.00" d=" M 0.00 0.00 L 64.00 0.00 L 64.00 64.00 L 0.00 64.00 L 0.00 0.00 M 15.17 8.14 C 12.84 8.34 11.81 10.84 12.01 12.90 C 11.98 25.28 12.03 37.66 11.98 50.05 C 12.08 51.68 11.82 53.63 13.15 54.87 C 14.39 56.17 16.34 55.92 17.97 56.02 C 25.32 55.94 32.68 56.10 40.04 55.94 C 41.87 56.01 43.72 54.68 43.86 52.79 C 44.20 47.87 43.90 42.93 44.00 38.00 C 48.00 38.00 52.00 38.00 56.00 38.00 C 56.00 30.00 56.00 22.00 56.00 14.00 C 52.03 14.00 48.07 14.00 44.10 14.00 C 43.85 12.37 44.19 10.39 42.86 9.14 C 41.31 7.60 38.92 8.12 36.96 7.98 C 29.69 8.12 22.42 7.79 15.17 8.14 Z" />
<path fill="#ffffff" opacity="1.00" d=" M 16.00 12.00 C 24.00 12.00 32.00 12.00 40.00 12.00 C 40.00 12.50 40.00 13.50 40.00 14.00 C 36.00 14.00 32.00 14.00 28.00 14.00 C 28.00 22.00 28.00 30.00 28.00 38.00 C 29.33 38.00 30.67 38.00 32.00 38.00 C 31.99 39.91 32.01 41.82 32.01 43.73 C 34.70 42.00 37.36 40.23 40.01 38.41 C 40.00 42.94 40.00 47.47 40.00 52.00 C 32.00 52.00 24.00 52.00 16.00 52.00 C 16.00 38.67 16.00 25.33 16.00 12.00 M 24.00 46.00 C 24.00 47.33 24.00 48.67 24.00 50.00 C 26.67 50.00 29.33 50.00 32.00 50.00 C 32.00 48.67 32.00 47.33 32.00 46.00 C 29.33 46.00 26.67 46.00 24.00 46.00 Z" />
<path fill="#ffffff" opacity="1.00" d=" M 32.00 18.00 C 38.67 18.00 45.33 18.00 52.00 18.00 C 52.00 23.33 52.00 28.67 52.00 34.00 C 47.79 34.00 43.58 33.99 39.37 34.01 C 38.25 34.76 37.15 35.51 36.03 36.26 C 36.02 35.69 35.99 34.56 35.98 34.00 C 34.65 34.00 33.33 34.00 32.00 34.00 C 32.00 28.67 32.00 23.33 32.00 18.00 M 40.92 20.78 C 38.37 22.57 38.10 25.61 38.39 28.46 C 37.86 29.19 37.33 29.92 36.80 30.65 C 37.72 30.69 39.55 30.76 40.47 30.80 C 40.76 31.13 41.35 31.81 41.64 32.15 C 43.25 30.95 45.21 30.56 47.19 30.61 C 46.66 29.90 46.13 29.19 45.61 28.47 C 45.51 26.26 46.12 23.54 44.14 21.94 C 43.33 21.10 41.99 18.90 40.92 20.78 Z" />
</g>
<g id="#000000ff">
<path fill="#000000" opacity="1.00" d=" M 15.17 8.14 C 22.42 7.79 29.69 8.12 36.96 7.98 C 38.92 8.12 41.31 7.60 42.86 9.14 C 44.19 10.39 43.85 12.37 44.10 14.00 C 48.07 14.00 52.03 14.00 56.00 14.00 C 56.00 22.00 56.00 30.00 56.00 38.00 C 52.00 38.00 48.00 38.00 44.00 38.00 C 43.90 42.93 44.20 47.87 43.86 52.79 C 43.72 54.68 41.87 56.01 40.04 55.94 C 32.68 56.10 25.32 55.94 17.97 56.02 C 16.34 55.92 14.39 56.17 13.15 54.87 C 11.82 53.63 12.08 51.68 11.98 50.05 C 12.03 37.66 11.98 25.28 12.01 12.90 C 11.81 10.84 12.84 8.34 15.17 8.14 M 16.00 12.00 C 16.00 25.33 16.00 38.67 16.00 52.00 C 24.00 52.00 32.00 52.00 40.00 52.00 C 40.00 47.47 40.00 42.94 40.01 38.41 C 37.36 40.23 34.70 42.00 32.01 43.73 C 32.01 41.82 31.99 39.91 32.00 38.00 C 30.67 38.00 29.33 38.00 28.00 38.00 C 28.00 30.00 28.00 22.00 28.00 14.00 C 32.00 14.00 36.00 14.00 40.00 14.00 C 40.00 13.50 40.00 12.50 40.00 12.00 C 32.00 12.00 24.00 12.00 16.00 12.00 M 32.00 18.00 C 32.00 23.33 32.00 28.67 32.00 34.00 C 33.33 34.00 34.65 34.00 35.98 34.00 C 35.99 34.56 36.02 35.69 36.03 36.26 C 37.15 35.51 38.25 34.76 39.37 34.01 C 43.58 33.99 47.79 34.00 52.00 34.00 C 52.00 28.67 52.00 23.33 52.00 18.00 C 45.33 18.00 38.67 18.00 32.00 18.00 Z" />
<path fill="#000000" opacity="1.00" d=" M 40.92 20.78 C 41.99 18.90 43.33 21.10 44.14 21.94 C 46.12 23.54 45.51 26.26 45.61 28.47 C 46.13 29.19 46.66 29.90 47.19 30.61 C 45.21 30.56 43.25 30.95 41.64 32.15 C 41.35 31.81 40.76 31.13 40.47 30.80 C 39.55 30.76 37.72 30.69 36.80 30.65 C 37.33 29.92 37.86 29.19 38.39 28.46 C 38.10 25.61 38.37 22.57 40.92 20.78 Z" />
<path fill="#000000" opacity="1.00" d=" M 24.00 46.00 C 26.67 46.00 29.33 46.00 32.00 46.00 C 32.00 47.33 32.00 48.67 32.00 50.00 C 29.33 50.00 26.67 50.00 24.00 50.00 C 24.00 48.67 24.00 47.33 24.00 46.00 Z" />
</g>
</svg>
