<?xml version="1.0" encoding="UTF-8" ?>
<!DOCTYPE svg PUBLIC "-//W3C//DTD SVG 1.1//EN" "http://www.w3.org/Graphics/SVG/1.1/DTD/svg11.dtd">
<svg width="64pt" height="64pt" viewBox="0 0 64 64" version="1.1" xmlns="http://www.w3.org/2000/svg">
<g id="#ffffffff">
<path fill="#ffffff" opacity="1.00" d=" M 0.00 0.00 L 64.00 0.00 L 64.00 64.00 L 0.00 64.00 L 0.00 0.00 M 8.44 18.50 C 3.57 20.18 2.46 27.39 6.63 30.43 C 10.50 33.89 17.37 31.17 17.90 26.03 C 18.90 20.97 13.16 16.37 8.44 18.50 M 16.93 29.94 C 15.60 33.08 17.16 36.41 17.81 39.52 C 16.04 41.61 14.27 43.70 12.51 45.79 C 13.15 46.35 14.43 47.45 15.07 48.00 C 11.38 48.00 7.69 48.00 4.00 48.00 C 4.00 49.33 4.00 50.67 4.00 52.00 C 22.67 52.00 41.33 52.00 60.00 52.00 C 60.00 50.70 60.00 49.40 60.01 48.11 C 58.40 47.98 56.80 47.85 55.21 47.64 C 42.12 48.46 28.95 47.78 15.82 47.99 C 17.72 45.62 20.07 43.55 21.57 40.88 C 22.27 37.89 20.20 35.00 20.45 31.99 C 20.79 30.07 23.19 28.85 24.86 30.00 C 28.37 31.84 31.78 33.89 35.20 35.89 C 39.48 38.48 42.53 42.91 47.37 44.56 C 50.56 45.82 53.76 47.35 57.27 47.24 C 57.40 46.52 57.66 45.06 57.79 44.33 C 54.23 42.91 50.57 41.70 47.11 40.04 C 43.42 37.78 40.58 34.35 36.80 32.20 C 33.39 30.30 30.09 28.21 26.63 26.43 C 23.16 24.48 18.39 26.29 16.93 29.94 Z" />
<path fill="#ffffff" opacity="1.00" d=" M 9.33 22.52 C 12.48 20.18 15.94 25.51 12.66 27.47 C 9.53 29.81 6.06 24.50 9.33 22.52 Z" />
</g>
<g id="#000000ff">
<path fill="#000000" opacity="1.00" d=" M 8.44 18.50 C 13.16 16.37 18.90 20.97 17.90 26.03 C 17.37 31.17 10.50 33.89 6.63 30.43 C 2.46 27.39 3.57 20.18 8.44 18.50 M 9.33 22.52 C 6.06 24.50 9.53 29.81 12.66 27.47 C 15.94 25.51 12.48 20.18 9.33 22.52 Z" />
<path fill="#000000" opacity="1.00" d=" M 16.93 29.94 C 18.39 26.29 23.16 24.48 26.63 26.43 C 30.09 28.21 33.39 30.30 36.80 32.20 C 40.58 34.35 43.42 37.78 47.11 40.04 C 50.57 41.70 54.23 42.91 57.79 44.33 C 57.66 45.06 57.40 46.52 57.27 47.24 C 53.76 47.35 50.56 45.82 47.37 44.56 C 42.53 42.91 39.48 38.48 35.20 35.89 C 31.78 33.89 28.37 31.84 24.86 30.00 C 23.19 28.85 20.79 30.07 20.45 31.99 C 20.20 35.00 22.27 37.89 21.57 40.88 C 20.07 43.55 17.72 45.62 15.82 47.99 C 28.95 47.78 42.12 48.46 55.21 47.64 C 56.80 47.85 58.40 47.98 60.01 48.11 C 60.00 49.40 60.00 50.70 60.00 52.00 C 41.33 52.00 22.67 52.00 4.00 52.00 C 4.00 50.67 4.00 49.33 4.00 48.00 C 7.69 48.00 11.38 48.00 15.07 48.00 C 14.43 47.45 13.15 46.35 12.51 45.79 C 14.27 43.70 16.04 41.61 17.81 39.52 C 17.16 36.41 15.60 33.08 16.93 29.94 Z" />
</g>
</svg>
