<?xml version="1.0" encoding="UTF-8" ?>
<!DOCTYPE svg PUBLIC "-//W3C//DTD SVG 1.1//EN" "http://www.w3.org/Graphics/SVG/1.1/DTD/svg11.dtd">
<svg width="60pt" height="60pt" viewBox="0 0 60 60" version="1.1" xmlns="http://www.w3.org/2000/svg">
<g id="#ffffffff">
<path fill="#ffffff" opacity="1.00" d=" M 0.00 0.00 L 60.00 0.00 L 60.00 60.00 L 0.00 60.00 L 0.00 0.00 M 12.00 6.88 C 12.03 22.63 11.93 38.38 12.05 54.12 C 11.95 56.64 14.57 58.30 16.89 58.00 C 26.26 57.90 35.65 58.21 45.01 57.84 C 49.83 56.07 47.46 49.86 47.99 46.00 C 46.66 46.00 45.33 46.00 44.00 46.00 C 44.00 48.67 44.00 51.33 44.00 54.00 C 34.67 54.00 25.33 54.00 16.00 54.00 C 16.00 38.00 16.00 22.00 16.00 6.00 C 17.94 5.99 19.89 6.00 21.83 6.04 C 23.22 7.37 25.02 8.22 26.99 8.01 C 30.73 7.77 35.24 9.07 38.18 6.04 C 40.12 6.00 42.06 5.99 44.00 5.99 C 44.00 8.00 44.00 10.00 44.00 12.00 C 45.33 12.00 46.67 12.00 48.00 12.00 C 47.99 9.65 48.14 7.29 47.84 4.96 C 47.33 2.86 45.15 1.75 43.10 2.00 C 34.04 2.03 24.97 1.93 15.91 2.05 C 13.42 1.98 11.66 4.54 12.00 6.88 M 22.05 19.88 C 22.01 26.22 21.84 32.57 22.14 38.90 C 22.57 41.67 25.72 42.12 28.00 42.14 C 28.00 44.09 28.00 46.04 28.00 48.00 C 30.69 46.00 33.36 43.99 36.05 41.99 C 42.07 41.95 48.10 42.10 54.12 41.95 C 56.14 41.97 57.97 40.14 57.94 38.12 C 58.05 32.07 58.04 26.01 57.95 19.96 C 58.00 17.91 56.20 15.96 54.11 16.05 C 45.04 15.93 35.96 16.03 26.89 16.00 C 24.56 15.66 22.00 17.40 22.05 19.88 Z" />
<path fill="#ffffff" opacity="1.00" d=" M 26.17 4.02 C 28.04 4.03 29.92 4.02 31.79 4.00 C 31.79 4.50 31.79 5.49 31.79 5.99 C 29.94 5.98 28.08 5.98 26.23 6.00 C 26.22 5.50 26.19 4.51 26.17 4.02 Z" />
<path fill="#ffffff" opacity="1.00" d=" M 34.17 4.17 C 35.79 3.66 36.34 4.21 35.82 5.82 C 34.20 6.34 33.65 5.79 34.17 4.17 Z" />
<path fill="#ffffff" opacity="1.00" d=" M 37.44 22.41 C 38.34 21.32 39.04 19.44 40.80 20.15 C 42.37 22.36 44.64 24.31 45.01 27.13 C 45.40 29.63 46.29 32.01 47.83 34.03 C 42.61 33.98 37.38 33.98 32.16 34.03 C 35.22 30.71 34.16 25.55 37.44 22.41 Z" />
<path fill="#ffffff" opacity="1.00" d=" M 38.06 36.75 C 38.55 35.41 40.65 35.75 41.69 36.22 C 42.53 38.13 38.47 38.57 38.06 36.75 Z" />
</g>
<g id="#000000ff">
<path fill="#000000" opacity="1.00" d=" M 12.00 6.88 C 11.66 4.54 13.42 1.98 15.91 2.05 C 24.97 1.93 34.04 2.03 43.10 2.00 C 45.15 1.75 47.33 2.86 47.84 4.96 C 48.14 7.29 47.99 9.65 48.00 12.00 C 46.67 12.00 45.33 12.00 44.00 12.00 C 44.00 10.00 44.00 8.00 44.00 5.99 C 42.06 5.99 40.12 6.00 38.18 6.04 C 35.24 9.07 30.73 7.77 26.99 8.01 C 25.02 8.22 23.22 7.37 21.83 6.04 C 19.89 6.00 17.94 5.99 16.00 6.00 C 16.00 22.00 16.00 38.00 16.00 54.00 C 25.33 54.00 34.67 54.00 44.00 54.00 C 44.00 51.33 44.00 48.67 44.00 46.00 C 45.33 46.00 46.66 46.00 47.99 46.00 C 47.46 49.86 49.83 56.07 45.01 57.84 C 35.65 58.21 26.26 57.90 16.89 58.00 C 14.57 58.30 11.95 56.64 12.05 54.12 C 11.93 38.38 12.03 22.63 12.00 6.88 M 26.17 4.02 C 26.19 4.51 26.22 5.50 26.23 6.00 C 28.08 5.98 29.94 5.98 31.79 5.99 C 31.79 5.49 31.79 4.50 31.79 4.00 C 29.92 4.02 28.04 4.03 26.17 4.02 M 34.17 4.17 C 33.65 5.79 34.20 6.34 35.82 5.82 C 36.34 4.21 35.79 3.66 34.17 4.17 Z" />
<path fill="#000000" opacity="1.00" d=" M 22.05 19.88 C 22.00 17.40 24.56 15.66 26.89 16.00 C 35.96 16.03 45.04 15.93 54.11 16.05 C 56.20 15.96 58.00 17.91 57.95 19.96 C 58.04 26.01 58.05 32.07 57.94 38.12 C 57.97 40.14 56.14 41.97 54.12 41.95 C 48.10 42.10 42.07 41.95 36.05 41.99 C 33.36 43.99 30.69 46.00 28.00 48.00 C 28.00 46.04 28.00 44.09 28.00 42.14 C 25.72 42.12 22.57 41.67 22.14 38.90 C 21.84 32.57 22.01 26.22 22.05 19.88 M 37.44 22.41 C 34.16 25.55 35.22 30.71 32.16 34.03 C 37.38 33.98 42.61 33.98 47.83 34.03 C 46.29 32.01 45.40 29.63 45.01 27.13 C 44.64 24.31 42.37 22.36 40.80 20.15 C 39.04 19.44 38.34 21.32 37.44 22.41 M 38.06 36.75 C 38.47 38.57 42.53 38.13 41.69 36.22 C 40.65 35.75 38.55 35.41 38.06 36.75 Z" />
</g>
</svg>
