<?xml version="1.0" encoding="UTF-8" ?>
<!DOCTYPE svg PUBLIC "-//W3C//DTD SVG 1.1//EN" "http://www.w3.org/Graphics/SVG/1.1/DTD/svg11.dtd">
<svg width="60pt" height="60pt" viewBox="0 0 60 60" version="1.1" xmlns="http://www.w3.org/2000/svg">
<g id="#ffffffff">
<path fill="#ffffff" opacity="1.00" d=" M 0.00 0.00 L 60.00 0.00 L 60.00 60.00 L 0.00 60.00 L 0.00 0.00 M 47.97 7.94 C 45.40 10.99 41.69 12.72 38.77 15.39 C 38.48 14.87 37.89 13.82 37.60 13.30 C 35.24 12.76 33.78 15.18 32.90 16.97 C 33.19 17.78 33.48 18.60 33.77 19.42 C 31.12 21.62 28.53 23.90 26.11 26.36 C 25.66 25.03 25.06 22.47 23.05 23.44 C 19.99 24.71 18.38 28.91 21.00 31.42 C 18.70 33.84 16.40 36.27 14.35 38.91 C 13.68 37.59 13.17 35.02 11.09 35.63 C 7.76 37.06 6.11 42.41 9.71 44.51 C 8.39 46.27 6.70 47.87 5.97 49.99 C 5.89 51.66 8.32 52.75 9.34 51.37 C 12.35 47.81 15.04 43.99 18.14 40.49 C 20.69 43.40 25.74 41.40 26.66 38.02 C 27.10 35.83 24.18 35.73 22.80 35.23 C 25.11 32.99 27.32 30.65 29.63 28.41 C 32.15 30.95 35.97 29.57 37.78 26.94 C 36.98 25.50 35.54 24.84 34.08 24.28 C 36.69 22.17 39.22 19.95 41.89 17.91 C 44.21 20.36 48.21 19.12 49.30 16.09 C 48.28 15.59 47.35 14.97 46.51 14.22 C 48.58 13.01 50.97 12.32 52.86 10.82 C 54.34 9.51 54.04 6.60 51.94 6.14 C 50.36 5.57 48.93 6.84 47.97 7.94 Z" />
</g>
<g id="#000000ff">
<path fill="#000000" opacity="1.00" d=" M 47.97 7.94 C 48.93 6.84 50.36 5.57 51.94 6.14 C 54.04 6.60 54.34 9.51 52.86 10.82 C 50.97 12.32 48.58 13.01 46.51 14.22 C 47.35 14.97 48.28 15.59 49.30 16.09 C 48.21 19.12 44.21 20.36 41.89 17.91 C 39.22 19.95 36.69 22.17 34.08 24.28 C 35.54 24.84 36.98 25.50 37.78 26.94 C 35.97 29.57 32.15 30.95 29.63 28.41 C 27.32 30.65 25.11 32.99 22.80 35.23 C 24.18 35.73 27.10 35.83 26.66 38.02 C 25.74 41.40 20.69 43.40 18.14 40.49 C 15.04 43.99 12.35 47.81 9.34 51.37 C 8.32 52.75 5.89 51.66 5.97 49.99 C 6.70 47.87 8.39 46.27 9.71 44.51 C 6.11 42.41 7.76 37.06 11.09 35.63 C 13.17 35.02 13.68 37.59 14.35 38.91 C 16.40 36.27 18.70 33.84 21.00 31.42 C 18.38 28.91 19.99 24.71 23.05 23.44 C 25.06 22.47 25.66 25.03 26.11 26.36 C 28.53 23.90 31.12 21.62 33.77 19.42 C 33.48 18.60 33.19 17.78 32.90 16.97 C 33.78 15.18 35.24 12.76 37.60 13.30 C 37.89 13.82 38.48 14.87 38.77 15.39 C 41.69 12.72 45.40 10.99 47.97 7.94 Z" />
</g>
</svg>
