<?xml version="1.0" encoding="UTF-8" ?>
<!DOCTYPE svg PUBLIC "-//W3C//DTD SVG 1.1//EN" "http://www.w3.org/Graphics/SVG/1.1/DTD/svg11.dtd">
<svg width="64pt" height="64pt" viewBox="0 0 64 64" version="1.1" xmlns="http://www.w3.org/2000/svg">
<g id="#ffffffff">
<path fill="#ffffff" opacity="1.00" d=" M 0.00 0.00 L 64.00 0.00 L 64.00 64.00 L 0.00 64.00 L 0.00 0.00 M 22.00 6.00 C 22.00 7.33 22.00 8.67 22.00 10.00 C 28.67 10.00 35.33 10.00 42.00 10.00 C 42.00 8.67 42.00 7.33 42.00 6.00 C 35.33 6.00 28.67 6.00 22.00 6.00 M 20.00 12.00 C 20.00 13.33 20.00 14.67 20.00 16.00 C 28.00 16.00 36.00 16.00 44.00 16.00 C 44.00 14.67 44.00 13.33 44.00 12.00 C 36.00 12.00 28.00 12.00 20.00 12.00 M 18.00 18.00 C 18.00 30.67 18.00 43.33 18.00 56.00 C 20.68 56.00 23.35 55.99 26.03 56.00 C 24.69 54.64 23.33 53.31 22.00 51.96 C 22.00 41.97 22.00 31.99 22.00 22.00 C 28.67 22.00 35.33 22.00 42.00 22.00 C 42.00 32.00 42.00 42.00 42.00 51.99 C 40.67 53.33 39.32 54.66 38.00 56.00 C 40.66 56.00 43.33 56.00 46.00 56.00 C 46.00 43.33 46.00 30.67 46.00 18.00 C 36.67 18.00 27.33 18.00 18.00 18.00 M 25.18 26.10 C 22.85 27.22 24.43 30.88 26.84 29.88 C 29.12 28.76 27.59 25.16 25.18 26.10 M 37.16 26.11 C 34.88 27.22 36.37 30.81 38.79 29.90 C 41.16 28.82 39.58 25.12 37.16 26.11 M 31.22 32.09 C 28.83 33.16 30.40 36.86 32.83 35.89 C 35.12 34.78 33.59 31.17 31.22 32.09 M 25.17 38.15 C 22.81 39.22 24.49 42.92 26.88 41.88 C 29.11 40.74 27.56 37.10 25.17 38.15 M 37.14 38.10 C 34.87 39.22 36.43 42.89 38.81 41.85 C 41.18 40.80 39.55 37.11 37.14 38.10 M 24.57 48.53 C 25.53 49.50 26.50 50.46 27.45 51.43 C 28.30 50.59 29.15 49.75 30.00 48.91 C 30.00 51.94 30.00 54.97 30.00 58.00 C 31.33 58.00 32.67 58.00 34.00 58.00 C 33.99 54.96 34.01 51.92 34.01 48.87 C 34.86 49.73 35.70 50.58 36.55 51.43 C 37.51 50.47 38.47 49.51 39.45 48.56 C 36.99 46.07 34.51 43.60 32.00 41.17 C 29.51 43.61 27.05 46.08 24.57 48.53 Z" />
</g>
<g id="#000000ff">
<path fill="#000000" opacity="1.00" d=" M 22.00 6.00 C 28.67 6.00 35.33 6.00 42.00 6.00 C 42.00 7.33 42.00 8.67 42.00 10.00 C 35.33 10.00 28.67 10.00 22.00 10.00 C 22.00 8.67 22.00 7.33 22.00 6.00 Z" />
<path fill="#000000" opacity="1.00" d=" M 20.00 12.00 C 28.00 12.00 36.00 12.00 44.00 12.00 C 44.00 13.33 44.00 14.67 44.00 16.00 C 36.00 16.00 28.00 16.00 20.00 16.00 C 20.00 14.67 20.00 13.33 20.00 12.00 Z" />
<path fill="#000000" opacity="1.00" d=" M 18.00 18.00 C 27.33 18.00 36.67 18.00 46.00 18.00 C 46.00 30.67 46.00 43.33 46.00 56.00 C 43.33 56.00 40.66 56.00 38.00 56.00 C 39.32 54.66 40.67 53.33 42.00 51.99 C 42.00 42.00 42.00 32.00 42.00 22.00 C 35.33 22.00 28.67 22.00 22.00 22.00 C 22.00 31.99 22.00 41.97 22.00 51.96 C 23.33 53.31 24.69 54.64 26.03 56.00 C 23.35 55.99 20.68 56.00 18.00 56.00 C 18.00 43.33 18.00 30.67 18.00 18.00 Z" />
<path fill="#000000" opacity="1.00" d=" M 25.18 26.10 C 27.59 25.16 29.12 28.76 26.84 29.88 C 24.43 30.88 22.85 27.22 25.18 26.10 Z" />
<path fill="#000000" opacity="1.00" d=" M 37.16 26.11 C 39.58 25.12 41.16 28.82 38.79 29.90 C 36.37 30.81 34.88 27.22 37.16 26.11 Z" />
<path fill="#000000" opacity="1.00" d=" M 31.22 32.09 C 33.59 31.17 35.12 34.78 32.83 35.89 C 30.40 36.86 28.83 33.16 31.22 32.09 Z" />
<path fill="#000000" opacity="1.00" d=" M 25.17 38.15 C 27.56 37.10 29.11 40.74 26.88 41.88 C 24.49 42.92 22.81 39.22 25.17 38.15 Z" />
<path fill="#000000" opacity="1.00" d=" M 37.14 38.10 C 39.55 37.11 41.18 40.80 38.81 41.85 C 36.43 42.89 34.87 39.22 37.14 38.10 Z" />
<path fill="#000000" opacity="1.00" d=" M 24.57 48.53 C 27.05 46.08 29.51 43.61 32.00 41.17 C 34.51 43.60 36.99 46.07 39.45 48.56 C 38.47 49.51 37.51 50.47 36.55 51.43 C 35.70 50.58 34.86 49.73 34.01 48.87 C 34.01 51.92 33.99 54.96 34.00 58.00 C 32.67 58.00 31.33 58.00 30.00 58.00 C 30.00 54.97 30.00 51.94 30.00 48.91 C 29.15 49.75 28.30 50.59 27.45 51.43 C 26.50 50.46 25.53 49.50 24.57 48.53 Z" />
</g>
</svg>
