<?xml version="1.0" encoding="UTF-8" ?>
<!DOCTYPE svg PUBLIC "-//W3C//DTD SVG 1.1//EN" "http://www.w3.org/Graphics/SVG/1.1/DTD/svg11.dtd">
<svg width="64pt" height="64pt" viewBox="0 0 64 64" version="1.1" xmlns="http://www.w3.org/2000/svg">
<g id="#ffffffff">
<path fill="#ffffff" opacity="1.00" d=" M 0.00 0.00 L 64.00 0.00 L 64.00 64.00 L 0.00 64.00 L 0.00 0.00 M 9.54 10.03 C 10.69 16.47 8.93 24.68 14.68 29.28 C 15.73 30.65 16.66 30.48 17.48 28.77 C 17.68 30.60 17.88 32.44 18.08 34.27 C 19.63 33.95 21.19 33.62 22.74 33.29 C 22.42 34.86 22.11 36.44 21.80 38.01 C 17.87 38.01 13.93 38.01 10.00 38.01 C 10.01 43.34 10.01 48.67 10.00 54.00 C 15.33 53.99 20.66 53.99 25.99 54.00 C 26.00 48.70 26.00 43.39 26.00 38.08 C 30.23 37.90 34.46 37.72 38.69 37.54 C 36.96 35.11 35.04 32.82 33.34 30.37 C 36.22 30.22 39.10 30.07 41.99 29.93 C 41.99 31.29 41.99 32.66 42.00 34.02 C 43.36 34.00 44.73 33.97 46.09 33.95 C 45.86 35.61 45.62 37.26 45.37 38.92 C 41.09 38.71 36.49 41.92 32.11 42.57 C 32.06 46.37 32.02 50.18 31.98 53.99 C 33.31 53.99 34.65 54.00 35.99 54.00 C 36.00 51.33 36.01 48.66 36.02 46.00 C 38.67 46.00 41.31 46.01 43.96 46.02 C 43.98 47.34 44.00 48.67 44.02 49.99 C 45.37 49.99 46.71 49.99 48.06 49.99 C 48.34 47.62 50.05 44.91 49.17 42.67 C 50.80 42.39 52.43 42.10 54.07 41.83 C 54.03 40.57 54.00 39.32 53.97 38.07 C 52.70 37.98 51.44 37.89 50.17 37.79 C 50.11 36.54 50.06 35.29 50.00 34.03 C 51.33 34.02 52.66 34.00 53.99 33.99 C 54.00 32.67 54.01 31.36 54.02 30.04 C 52.61 29.98 51.19 29.92 49.78 29.86 C 54.08 24.17 53.74 16.80 54.52 10.03 C 49.02 10.02 43.51 10.01 38.01 9.99 C 38.00 15.31 38.00 20.63 38.00 25.95 C 33.85 26.03 29.71 26.12 25.57 26.21 C 25.76 20.81 25.93 15.40 26.10 9.99 C 20.58 10.01 15.06 10.02 9.54 10.03 M 30.04 10.02 C 29.51 13.84 28.37 17.62 28.54 21.50 C 30.09 22.97 32.01 23.93 33.85 24.98 C 35.26 20.06 35.52 14.93 34.21 9.99 C 32.82 10.00 31.43 10.01 30.04 10.02 M 9.95 30.18 C 9.98 31.44 10.00 32.71 10.03 33.97 C 11.29 34.00 12.56 34.03 13.82 34.06 C 14.11 32.47 14.39 30.87 14.68 29.28 C 13.11 29.59 11.53 29.89 9.95 30.18 M 40.00 50.00 C 40.00 51.33 40.00 52.67 40.00 54.00 C 41.33 54.00 42.66 54.00 43.99 54.00 C 44.00 52.66 44.01 51.33 44.02 49.99 C 42.68 50.00 41.34 50.00 40.00 50.00 M 50.00 50.00 C 50.00 51.33 50.00 52.67 50.00 54.00 C 51.33 54.00 52.67 54.00 54.00 54.00 C 54.00 52.67 54.00 51.33 54.00 50.00 C 52.67 50.00 51.33 50.00 50.00 50.00 Z" />
<path fill="#ffffff" opacity="1.00" d=" M 14.00 14.00 C 16.67 14.00 19.33 14.00 22.00 14.00 C 22.00 16.67 22.00 19.33 22.00 22.00 C 19.33 22.00 16.67 22.00 14.00 22.00 C 14.00 19.33 14.00 16.67 14.00 14.00 M 16.00 16.00 C 16.00 17.33 16.00 18.67 16.00 20.00 C 17.33 20.00 18.67 20.00 20.00 20.00 C 20.00 18.67 20.00 17.33 20.00 16.00 C 18.67 16.00 17.33 16.00 16.00 16.00 Z" />
<path fill="#ffffff" opacity="1.00" d=" M 42.00 14.00 C 44.67 14.00 47.33 14.00 50.00 14.00 C 50.00 16.67 50.00 19.33 50.00 22.00 C 47.33 22.00 44.67 22.00 42.00 22.00 C 42.00 19.33 42.00 16.67 42.00 14.00 M 44.00 16.00 C 44.00 17.33 44.00 18.67 44.00 20.00 C 45.33 20.00 46.67 20.00 48.00 20.00 C 48.00 18.67 48.00 17.33 48.00 16.00 C 46.67 16.00 45.33 16.00 44.00 16.00 Z" />
<path fill="#ffffff" opacity="1.00" d=" M 19.09 26.65 C 21.25 26.50 23.41 26.35 25.57 26.21 C 27.17 28.77 28.89 31.24 30.51 33.78 C 27.92 33.62 25.33 33.46 22.74 33.29 C 21.05 31.71 19.28 30.22 17.48 28.77 C 18.02 28.07 18.56 27.36 19.09 26.65 Z" />
<path fill="#ffffff" opacity="1.00" d=" M 42.03 26.02 C 43.34 26.01 44.66 26.01 45.97 26.00 C 45.99 27.34 46.00 28.69 46.02 30.03 C 44.68 30.00 43.33 29.97 41.99 29.93 C 42.00 28.63 42.02 27.32 42.03 26.02 Z" />
<path fill="#ffffff" opacity="1.00" d=" M 46.02 30.03 C 47.27 29.97 48.52 29.91 49.78 29.86 C 49.85 31.25 49.93 32.64 50.00 34.03 C 48.70 34.00 47.39 33.98 46.09 33.95 C 46.07 32.64 46.04 31.34 46.02 30.03 Z" />
<path fill="#ffffff" opacity="1.00" d=" M 45.37 38.92 C 46.97 38.54 48.57 38.16 50.17 37.79 C 49.84 39.42 49.51 41.05 49.17 42.67 C 47.95 41.37 46.69 40.12 45.37 38.92 Z" />
<path fill="#ffffff" opacity="1.00" d=" M 14.00 42.00 C 16.67 42.00 19.33 42.00 22.00 42.00 C 22.00 44.67 22.00 47.33 22.00 50.00 C 19.33 50.00 16.67 50.00 14.00 50.00 C 14.00 47.33 14.00 44.67 14.00 42.00 M 16.00 44.00 C 16.00 45.33 16.00 46.67 16.00 48.00 C 17.33 48.00 18.67 48.00 20.00 48.00 C 20.00 46.67 20.00 45.33 20.00 44.00 C 18.67 44.00 17.33 44.00 16.00 44.00 Z" />
</g>
<g id="#000000ff">
<path fill="#000000" opacity="1.00" d=" M 9.54 10.03 C 15.06 10.02 20.58 10.01 26.10 9.99 C 25.93 15.40 25.76 20.81 25.57 26.21 C 23.41 26.35 21.25 26.50 19.09 26.65 C 18.56 27.36 18.02 28.07 17.48 28.77 C 16.66 30.48 15.73 30.65 14.68 29.28 C 8.93 24.68 10.69 16.47 9.54 10.03 M 14.00 14.00 C 14.00 16.67 14.00 19.33 14.00 22.00 C 16.67 22.00 19.33 22.00 22.00 22.00 C 22.00 19.33 22.00 16.67 22.00 14.00 C 19.33 14.00 16.67 14.00 14.00 14.00 Z" />
<path fill="#000000" opacity="1.00" d=" M 30.04 10.02 C 31.43 10.01 32.82 10.00 34.21 9.99 C 35.52 14.93 35.26 20.06 33.85 24.98 C 32.01 23.93 30.09 22.97 28.54 21.50 C 28.37 17.62 29.51 13.84 30.04 10.02 Z" />
<path fill="#000000" opacity="1.00" d=" M 38.01 9.99 C 43.51 10.01 49.02 10.02 54.52 10.03 C 53.74 16.80 54.08 24.17 49.78 29.86 C 48.52 29.91 47.27 29.97 46.02 30.03 C 46.00 28.69 45.99 27.34 45.97 26.00 C 44.66 26.01 43.34 26.01 42.03 26.02 C 42.02 27.32 42.00 28.63 41.99 29.93 C 39.10 30.07 36.22 30.22 33.34 30.37 C 35.04 32.82 36.96 35.11 38.69 37.54 C 34.46 37.72 30.23 37.90 26.00 38.08 C 26.00 43.39 26.00 48.70 25.99 54.00 C 20.66 53.99 15.33 53.99 10.00 54.00 C 10.01 48.67 10.01 43.34 10.00 38.01 C 13.93 38.01 17.87 38.01 21.80 38.01 C 22.11 36.44 22.42 34.86 22.74 33.29 C 25.33 33.46 27.92 33.62 30.51 33.78 C 28.89 31.24 27.17 28.77 25.57 26.21 C 29.71 26.12 33.85 26.03 38.00 25.95 C 38.00 20.63 38.00 15.31 38.01 9.99 M 42.00 14.00 C 42.00 16.67 42.00 19.33 42.00 22.00 C 44.67 22.00 47.33 22.00 50.00 22.00 C 50.00 19.33 50.00 16.67 50.00 14.00 C 47.33 14.00 44.67 14.00 42.00 14.00 M 14.00 42.00 C 14.00 44.67 14.00 47.33 14.00 50.00 C 16.67 50.00 19.33 50.00 22.00 50.00 C 22.00 47.33 22.00 44.67 22.00 42.00 C 19.33 42.00 16.67 42.00 14.00 42.00 Z" />
<path fill="#000000" opacity="1.00" d=" M 16.00 16.00 C 17.33 16.00 18.67 16.00 20.00 16.00 C 20.00 17.33 20.00 18.67 20.00 20.00 C 18.67 20.00 17.33 20.00 16.00 20.00 C 16.00 18.67 16.00 17.33 16.00 16.00 Z" />
<path fill="#000000" opacity="1.00" d=" M 44.00 16.00 C 45.33 16.00 46.67 16.00 48.00 16.00 C 48.00 17.33 48.00 18.67 48.00 20.00 C 46.67 20.00 45.33 20.00 44.00 20.00 C 44.00 18.67 44.00 17.33 44.00 16.00 Z" />
<path fill="#000000" opacity="1.00" d=" M 9.95 30.18 C 11.53 29.89 13.11 29.59 14.68 29.28 C 14.39 30.87 14.11 32.47 13.82 34.06 C 12.56 34.03 11.29 34.00 10.03 33.97 C 10.00 32.71 9.98 31.44 9.95 30.18 Z" />
<path fill="#000000" opacity="1.00" d=" M 17.48 28.77 C 19.28 30.22 21.05 31.71 22.74 33.29 C 21.19 33.62 19.63 33.95 18.08 34.27 C 17.88 32.44 17.68 30.60 17.48 28.77 Z" />
<path fill="#000000" opacity="1.00" d=" M 41.99 29.93 C 43.33 29.97 44.68 30.00 46.02 30.03 C 46.04 31.34 46.07 32.64 46.09 33.95 C 44.73 33.97 43.36 34.00 42.00 34.02 C 41.99 32.66 41.99 31.29 41.99 29.93 Z" />
<path fill="#000000" opacity="1.00" d=" M 49.78 29.86 C 51.19 29.92 52.61 29.98 54.02 30.04 C 54.01 31.36 54.00 32.67 53.99 33.99 C 52.66 34.00 51.33 34.02 50.00 34.03 C 49.93 32.64 49.85 31.25 49.78 29.86 Z" />
<path fill="#000000" opacity="1.00" d=" M 46.09 33.95 C 47.39 33.98 48.70 34.00 50.00 34.03 C 50.06 35.29 50.11 36.54 50.17 37.79 C 48.57 38.16 46.97 38.54 45.37 38.92 C 45.62 37.26 45.86 35.61 46.09 33.95 Z" />
<path fill="#000000" opacity="1.00" d=" M 32.11 42.57 C 36.49 41.92 41.09 38.71 45.37 38.92 C 46.69 40.12 47.95 41.37 49.17 42.67 C 50.05 44.91 48.34 47.62 48.06 49.99 C 46.71 49.99 45.37 49.99 44.02 49.99 C 44.00 48.67 43.98 47.34 43.96 46.02 C 41.31 46.01 38.67 46.00 36.02 46.00 C 36.01 48.66 36.00 51.33 35.99 54.00 C 34.65 54.00 33.31 53.99 31.98 53.99 C 32.02 50.18 32.06 46.37 32.11 42.57 Z" />
<path fill="#000000" opacity="1.00" d=" M 50.17 37.79 C 51.44 37.89 52.70 37.98 53.97 38.07 C 54.00 39.32 54.03 40.57 54.07 41.83 C 52.43 42.10 50.80 42.39 49.17 42.67 C 49.51 41.05 49.84 39.42 50.17 37.79 Z" />
<path fill="#000000" opacity="1.00" d=" M 16.00 44.00 C 17.33 44.00 18.67 44.00 20.00 44.00 C 20.00 45.33 20.00 46.67 20.00 48.00 C 18.67 48.00 17.33 48.00 16.00 48.00 C 16.00 46.67 16.00 45.33 16.00 44.00 Z" />
<path fill="#000000" opacity="1.00" d=" M 40.00 50.00 C 41.34 50.00 42.68 50.00 44.02 49.99 C 44.01 51.33 44.00 52.66 43.99 54.00 C 42.66 54.00 41.33 54.00 40.00 54.00 C 40.00 52.67 40.00 51.33 40.00 50.00 Z" />
<path fill="#000000" opacity="1.00" d=" M 50.00 50.00 C 51.33 50.00 52.67 50.00 54.00 50.00 C 54.00 51.33 54.00 52.67 54.00 54.00 C 52.67 54.00 51.33 54.00 50.00 54.00 C 50.00 52.67 50.00 51.33 50.00 50.00 Z" />
</g>
</svg>
