<?xml version="1.0" encoding="UTF-8" ?>
<!DOCTYPE svg PUBLIC "-//W3C//DTD SVG 1.1//EN" "http://www.w3.org/Graphics/SVG/1.1/DTD/svg11.dtd">
<svg width="60pt" height="60pt" viewBox="0 0 60 60" version="1.1" xmlns="http://www.w3.org/2000/svg">
<g id="#ffffffff">
<path fill="#ffffff" opacity="1.00" d=" M 0.00 0.00 L 60.00 0.00 L 60.00 60.00 L 0.00 60.00 L 0.00 0.00 M 25.93 14.01 C 26.62 17.15 30.66 15.68 32.95 16.02 C 33.71 17.18 34.48 18.34 35.26 19.50 C 34.15 20.33 33.03 21.17 31.91 22.00 C 22.80 22.95 13.99 19.78 4.92 20.07 C 1.76 19.83 0.93 24.97 3.97 25.71 C 8.61 26.23 13.22 27.07 17.46 29.08 C 16.57 30.28 15.68 31.47 14.80 32.68 C 12.51 32.20 10.07 31.61 7.83 32.60 C 3.28 34.20 0.75 39.79 2.63 44.25 C 4.35 48.98 10.40 51.44 14.88 49.08 C 17.10 48.13 18.40 46.02 19.58 44.03 C 26.52 43.98 33.46 43.99 40.40 44.02 C 42.16 47.92 46.37 50.85 50.75 49.80 C 56.62 48.84 59.98 41.42 56.70 36.42 C 54.50 32.45 49.44 31.19 45.31 32.59 C 44.00 30.48 41.34 28.63 41.79 25.88 C 45.68 26.15 49.52 26.78 53.29 27.80 C 55.11 28.65 57.01 26.09 55.42 24.72 C 51.03 20.60 45.11 18.06 39.05 17.92 C 37.15 15.51 35.92 11.22 32.07 11.95 C 30.02 12.17 26.41 11.12 25.93 14.01 Z" />
<path fill="#ffffff" opacity="1.00" d=" M 18.00 35.08 C 19.04 33.70 20.07 32.31 21.14 30.94 C 22.74 33.77 21.77 37.14 21.98 40.22 C 19.22 40.24 19.12 36.93 18.00 35.08 Z" />
<path fill="#ffffff" opacity="1.00" d=" M 39.97 32.10 C 40.67 33.07 41.37 34.04 42.06 35.01 C 41.25 36.63 40.53 38.29 39.89 39.98 C 39.25 39.98 37.97 40.00 37.33 40.01 C 38.21 37.37 39.08 34.74 39.97 32.10 Z" />
<path fill="#ffffff" opacity="1.00" d=" M 8.44 36.69 C 11.56 34.63 16.15 37.26 16.01 40.98 C 16.17 44.73 11.53 47.38 8.40 45.28 C 5.23 43.54 5.25 38.41 8.44 36.69 Z" />
<path fill="#ffffff" opacity="1.00" d=" M 46.45 36.72 C 49.58 34.64 54.17 37.27 54.00 41.01 C 54.15 44.70 49.61 47.34 46.49 45.32 C 43.23 43.63 43.23 38.45 46.45 36.72 Z" />
</g>
<g id="#000000ff">
<path fill="#000000" opacity="1.00" d=" M 25.93 14.01 C 26.41 11.12 30.02 12.17 32.07 11.95 C 35.92 11.22 37.15 15.51 39.05 17.92 C 45.11 18.06 51.03 20.60 55.42 24.72 C 57.01 26.09 55.11 28.65 53.29 27.80 C 49.52 26.78 45.68 26.15 41.79 25.88 C 41.34 28.63 44.00 30.48 45.31 32.59 C 49.44 31.19 54.50 32.45 56.70 36.42 C 59.98 41.42 56.62 48.84 50.75 49.80 C 46.37 50.85 42.16 47.92 40.40 44.02 C 33.46 43.99 26.52 43.98 19.58 44.03 C 18.40 46.02 17.10 48.13 14.88 49.08 C 10.40 51.44 4.35 48.98 2.63 44.25 C 0.75 39.79 3.28 34.20 7.83 32.60 C 10.07 31.61 12.51 32.20 14.80 32.68 C 15.68 31.47 16.57 30.28 17.46 29.08 C 13.22 27.07 8.61 26.23 3.97 25.71 C 0.93 24.97 1.76 19.83 4.92 20.07 C 13.99 19.78 22.80 22.95 31.91 22.00 C 33.03 21.17 34.15 20.33 35.26 19.50 C 34.48 18.34 33.71 17.18 32.95 16.02 C 30.66 15.68 26.62 17.15 25.93 14.01 M 18.00 35.08 C 19.12 36.93 19.22 40.24 21.98 40.22 C 21.77 37.14 22.74 33.77 21.14 30.94 C 20.07 32.31 19.04 33.70 18.00 35.08 M 39.97 32.10 C 39.08 34.74 38.21 37.37 37.33 40.01 C 37.97 40.00 39.25 39.98 39.89 39.98 C 40.53 38.29 41.25 36.63 42.06 35.01 C 41.37 34.04 40.67 33.07 39.97 32.10 M 8.44 36.69 C 5.25 38.41 5.23 43.54 8.40 45.28 C 11.53 47.38 16.17 44.73 16.01 40.98 C 16.15 37.26 11.56 34.63 8.44 36.69 M 46.45 36.72 C 43.23 38.45 43.23 43.63 46.49 45.32 C 49.61 47.34 54.15 44.70 54.00 41.01 C 54.17 37.27 49.58 34.64 46.45 36.72 Z" />
</g>
</svg>
