<?xml version="1.0" encoding="UTF-8" ?>
<!DOCTYPE svg PUBLIC "-//W3C//DTD SVG 1.1//EN" "http://www.w3.org/Graphics/SVG/1.1/DTD/svg11.dtd">
<svg width="60pt" height="60pt" viewBox="0 0 60 60" version="1.1" xmlns="http://www.w3.org/2000/svg">
<g id="#ffffffff">
<path fill="#ffffff" opacity="1.00" d=" M 0.00 0.00 L 60.00 0.00 L 60.00 60.00 L 0.00 60.00 L 0.00 0.00 M 26.36 8.38 C 24.94 11.18 28.39 13.19 28.24 15.97 C 26.75 15.99 25.26 16.01 23.77 16.02 C 24.03 14.12 24.09 11.85 22.25 10.69 C 19.47 8.54 15.13 11.60 16.10 14.94 C 16.49 17.08 18.74 17.73 20.51 18.31 C 22.11 19.86 23.96 21.08 25.91 22.13 C 25.56 26.09 24.77 30.03 23.21 33.70 C 21.31 33.93 19.91 34.84 19.78 36.87 C 17.46 38.58 16.04 41.08 15.79 43.97 C 25.26 44.02 34.73 44.02 44.20 43.96 C 43.91 41.10 42.54 38.58 40.21 36.86 C 40.08 34.84 38.68 33.93 36.79 33.70 C 35.23 30.03 34.42 26.09 34.09 22.13 C 36.04 21.08 37.89 19.85 39.49 18.31 C 41.60 17.80 44.13 16.54 43.99 13.98 C 44.12 10.94 40.18 8.76 37.76 10.73 C 35.88 11.85 35.98 14.14 36.23 16.02 C 34.74 16.01 33.25 15.99 31.76 15.97 C 31.63 13.20 35.02 11.18 33.64 8.40 C 32.45 5.24 27.59 5.28 26.36 8.38 M 13.14 48.19 C 11.28 48.93 11.90 52.14 13.97 51.92 C 24.64 52.06 35.32 52.05 45.99 51.93 C 48.58 52.18 48.61 47.87 46.03 48.08 C 35.07 48.02 24.08 47.80 13.14 48.19 Z" />
</g>
<g id="#000000ff">
<path fill="#968176" opacity="1.00" d=" M 26.36 8.38 C 27.59 5.28 32.45 5.24 33.64 8.40 C 35.02 11.18 31.63 13.20 31.76 15.97 C 33.25 15.99 34.74 16.01 36.23 16.02 C 35.98 14.14 35.88 11.85 37.76 10.73 C 40.18 8.76 44.12 10.94 43.99 13.98 C 44.13 16.54 41.60 17.80 39.49 18.31 C 37.89 19.85 36.04 21.08 34.09 22.13 C 34.42 26.09 35.23 30.03 36.79 33.70 C 38.68 33.93 40.08 34.84 40.21 36.86 C 42.54 38.58 43.91 41.10 44.20 43.96 C 34.73 44.02 25.26 44.02 15.79 43.97 C 16.04 41.08 17.46 38.58 19.78 36.87 C 19.91 34.84 21.31 33.93 23.21 33.70 C 24.77 30.03 25.56 26.09 25.91 22.13 C 23.96 21.08 22.11 19.86 20.51 18.31 C 18.74 17.73 16.49 17.08 16.10 14.94 C 15.13 11.60 19.47 8.54 22.25 10.69 C 24.09 11.85 24.03 14.12 23.77 16.02 C 25.26 16.01 26.75 15.99 28.24 15.97 C 28.39 13.19 24.94 11.18 26.36 8.38 Z" />
<path fill="#968176" opacity="1.00" d=" M 13.14 48.19 C 24.08 47.80 35.07 48.02 46.03 48.08 C 48.61 47.87 48.58 52.18 45.99 51.93 C 35.32 52.05 24.64 52.06 13.97 51.92 C 11.90 52.14 11.28 48.93 13.14 48.19 Z" />
</g>
</svg>
