<?xml version="1.0" encoding="UTF-8" ?>
<!DOCTYPE svg PUBLIC "-//W3C//DTD SVG 1.1//EN" "http://www.w3.org/Graphics/SVG/1.1/DTD/svg11.dtd">
<svg width="60pt" height="60pt" viewBox="0 0 60 60" version="1.1" xmlns="http://www.w3.org/2000/svg">
<g id="#ffffffff">
<path fill="#ffffff" opacity="1.00" d=" M 0.00 0.00 L 60.00 0.00 L 60.00 60.00 L 0.00 60.00 L 0.00 0.00 M 20.55 8.44 C 16.47 10.77 14.55 15.47 14.40 19.99 C 17.29 20.00 20.19 20.00 23.08 19.99 C 23.15 15.93 27.07 12.85 31.04 13.88 C 34.66 14.17 36.88 18.32 35.22 21.53 C 33.10 25.30 28.17 26.19 25.87 29.83 C 24.22 32.22 24.44 35.24 24.50 38.00 C 27.34 38.00 30.18 38.00 33.02 38.00 C 33.19 36.12 33.09 33.97 34.54 32.52 C 37.23 29.85 41.14 28.60 43.37 25.41 C 47.22 20.27 45.68 12.08 40.20 8.72 C 34.38 5.13 26.49 5.12 20.55 8.44 M 26.35 44.53 C 22.75 46.03 22.77 52.06 26.41 53.50 C 29.68 55.09 34.64 53.12 34.32 49.02 C 34.67 44.87 29.64 42.87 26.35 44.53 Z" />
</g>
<g id="#000000ff">
<path fill="#000000" opacity="1.00" d=" M 20.55 8.44 C 26.49 5.12 34.38 5.13 40.20 8.72 C 45.68 12.08 47.22 20.27 43.37 25.41 C 41.14 28.60 37.23 29.85 34.54 32.52 C 33.09 33.97 33.19 36.12 33.02 38.00 C 30.18 38.00 27.34 38.00 24.50 38.00 C 24.44 35.24 24.22 32.22 25.87 29.83 C 28.17 26.19 33.10 25.30 35.22 21.53 C 36.88 18.32 34.66 14.17 31.04 13.88 C 27.07 12.85 23.15 15.93 23.08 19.99 C 20.19 20.00 17.29 20.00 14.40 19.99 C 14.55 15.47 16.47 10.77 20.55 8.44 Z" />
<path fill="#000000" opacity="1.00" d=" M 26.35 44.53 C 29.64 42.87 34.67 44.87 34.32 49.02 C 34.64 53.12 29.68 55.09 26.41 53.50 C 22.77 52.06 22.75 46.03 26.35 44.53 Z" />
</g>
</svg>
