<?xml version="1.0" encoding="UTF-8" ?>
<!DOCTYPE svg PUBLIC "-//W3C//DTD SVG 1.1//EN" "http://www.w3.org/Graphics/SVG/1.1/DTD/svg11.dtd">
<svg width="60pt" height="60pt" viewBox="0 0 60 60" version="1.1" xmlns="http://www.w3.org/2000/svg">
<g id="#ffffffff">
<path fill="#ffffff" opacity="1.00" d=" M 0.00 0.00 L 60.00 0.00 L 60.00 60.00 L 0.00 60.00 L 0.00 0.00 M 18.61 6.86 C 15.12 7.80 9.54 6.81 8.17 11.05 C 7.94 20.42 6.88 30.61 12.02 38.98 C 16.15 45.68 22.47 51.66 30.05 53.99 C 38.01 51.40 44.65 45.03 48.64 37.73 C 52.88 30.15 51.93 21.23 51.99 12.89 C 52.21 10.83 51.08 8.52 48.88 8.17 C 38.97 6.01 28.67 5.33 18.61 6.86 Z" />
<path fill="#ffffff" opacity="1.00" d=" M 21.83 21.96 C 22.22 18.16 24.94 14.50 28.94 14.09 C 33.93 13.22 38.74 18.04 37.92 23.03 C 37.42 26.90 33.62 28.90 31.68 31.98 C 30.38 31.98 29.08 31.98 27.79 31.97 C 28.30 28.33 31.53 26.34 33.56 23.63 C 35.16 20.87 32.15 17.26 29.14 18.08 C 27.21 18.46 26.36 20.35 25.74 22.00 C 24.44 21.99 23.13 21.98 21.83 21.96 Z" />
<path fill="#ffffff" opacity="1.00" d=" M 28.41 37.48 C 30.26 36.19 33.14 37.75 32.97 40.03 C 33.05 41.95 30.87 43.55 29.08 42.81 C 26.72 42.23 26.31 38.65 28.41 37.48 Z" />
</g>
<g id="#000000ff">
<path fill="#000000" opacity="1.00" d=" M 18.61 6.86 C 28.67 5.33 38.97 6.01 48.88 8.17 C 51.08 8.52 52.21 10.83 51.99 12.89 C 51.93 21.23 52.88 30.15 48.64 37.73 C 44.65 45.03 38.01 51.40 30.05 53.99 C 22.47 51.66 16.15 45.68 12.02 38.98 C 6.88 30.61 7.94 20.42 8.17 11.05 C 9.54 6.81 15.12 7.80 18.61 6.86 M 21.83 21.96 C 23.13 21.98 24.44 21.99 25.74 22.00 C 26.36 20.35 27.21 18.46 29.14 18.08 C 32.15 17.26 35.16 20.87 33.56 23.63 C 31.53 26.34 28.30 28.33 27.79 31.97 C 29.08 31.98 30.38 31.98 31.68 31.98 C 33.62 28.90 37.42 26.90 37.92 23.03 C 38.74 18.04 33.93 13.22 28.94 14.09 C 24.94 14.50 22.22 18.16 21.83 21.96 M 28.41 37.48 C 26.31 38.65 26.72 42.23 29.08 42.81 C 30.87 43.55 33.05 41.95 32.97 40.03 C 33.14 37.75 30.26 36.19 28.41 37.48 Z" />
</g>
</svg>
