<?xml version="1.0" encoding="UTF-8" ?>
<!DOCTYPE svg PUBLIC "-//W3C//DTD SVG 1.1//EN" "http://www.w3.org/Graphics/SVG/1.1/DTD/svg11.dtd">
<svg width="64pt" height="64pt" viewBox="0 0 64 64" version="1.1" xmlns="http://www.w3.org/2000/svg">
<g id="#ffffffff">
<path fill="#ffffff" opacity="1.00" d=" M 0.00 0.00 L 64.00 0.00 L 64.00 64.00 L 0.00 64.00 L 0.00 0.00 M 35.68 26.23 C 34.67 24.91 33.67 23.58 32.67 22.26 C 31.52 23.37 29.84 24.19 29.54 25.92 C 24.80 26.76 19.66 26.69 15.45 29.32 C 11.31 31.88 8.99 36.33 6.00 40.01 C 6.83 40.00 8.48 39.99 9.31 39.98 C 6.16 44.07 4.47 49.00 3.42 54.00 C 11.45 53.42 20.61 55.91 27.57 50.71 C 32.66 47.20 34.14 40.90 36.23 35.47 C 37.77 34.73 39.26 33.87 40.71 32.95 C 39.84 31.78 38.97 30.61 38.09 29.44 C 45.10 24.14 52.19 18.93 59.20 13.62 C 58.40 12.55 57.61 11.48 56.82 10.42 C 49.77 15.69 42.75 20.99 35.68 26.23 M 44.38 40.52 C 39.58 42.21 38.49 49.32 42.56 52.38 C 46.41 55.90 53.34 53.23 53.90 48.06 C 54.94 42.96 49.12 38.33 44.38 40.52 Z" />
<path fill="#ffffff" opacity="1.00" d=" M 21.22 31.26 C 25.46 30.61 29.71 29.47 34.03 29.75 C 31.85 35.19 30.67 41.27 26.97 45.93 C 22.33 51.26 14.75 49.88 8.50 49.97 C 10.25 44.24 14.60 40.02 18.84 36.04 C 17.18 36.01 15.51 35.97 13.85 35.92 C 15.89 33.81 18.22 31.75 21.22 31.26 Z" />
<path fill="#ffffff" opacity="1.00" d=" M 45.36 44.52 C 48.48 42.23 51.88 47.46 48.69 49.46 C 45.54 51.84 42.06 46.47 45.36 44.52 Z" />
</g>
<g id="#000000ff">
<path fill="#000000" opacity="1.00" d=" M 35.68 26.23 C 42.75 20.99 49.77 15.69 56.82 10.42 C 57.61 11.48 58.40 12.55 59.20 13.62 C 52.19 18.93 45.10 24.14 38.09 29.44 C 38.97 30.61 39.84 31.78 40.71 32.95 C 39.26 33.87 37.77 34.73 36.23 35.47 C 34.14 40.90 32.66 47.20 27.57 50.71 C 20.61 55.91 11.45 53.42 3.42 54.00 C 4.47 49.00 6.16 44.07 9.31 39.98 C 8.48 39.99 6.83 40.00 6.00 40.01 C 8.99 36.33 11.31 31.88 15.45 29.32 C 19.66 26.69 24.80 26.76 29.54 25.92 C 29.84 24.19 31.52 23.37 32.67 22.26 C 33.67 23.58 34.67 24.91 35.68 26.23 M 21.22 31.26 C 18.22 31.75 15.89 33.81 13.85 35.92 C 15.51 35.97 17.18 36.01 18.84 36.04 C 14.60 40.02 10.25 44.24 8.50 49.97 C 14.75 49.88 22.33 51.26 26.97 45.93 C 30.67 41.27 31.85 35.19 34.03 29.75 C 29.71 29.47 25.46 30.61 21.22 31.26 Z" />
<path fill="#000000" opacity="1.00" d=" M 44.38 40.52 C 49.12 38.33 54.94 42.96 53.90 48.06 C 53.34 53.23 46.41 55.90 42.56 52.38 C 38.49 49.32 39.58 42.21 44.38 40.52 M 45.36 44.52 C 42.06 46.47 45.54 51.84 48.69 49.46 C 51.88 47.46 48.48 42.23 45.36 44.52 Z" />
</g>
</svg>
