<?xml version="1.0" encoding="UTF-8" ?>
<!DOCTYPE svg PUBLIC "-//W3C//DTD SVG 1.1//EN" "http://www.w3.org/Graphics/SVG/1.1/DTD/svg11.dtd">
<svg width="64pt" height="64pt" viewBox="0 0 64 64" version="1.1" xmlns="http://www.w3.org/2000/svg">
<g id="#ffffffff">
<path fill="#ffffff" opacity="1.00" d=" M 0.00 0.00 L 64.00 0.00 L 64.00 64.00 L 0.00 64.00 L 0.00 0.00 M 6.00 10.00 C 6.00 22.00 6.00 34.00 6.00 46.00 C 9.33 46.00 12.67 46.00 16.00 46.00 C 16.00 49.40 16.00 52.79 16.00 56.19 C 20.25 52.78 24.49 49.37 28.76 45.98 C 38.50 46.02 48.25 45.99 58.00 46.00 C 58.00 34.00 58.00 22.00 58.00 10.00 C 40.67 10.00 23.33 10.00 6.00 10.00 Z" />
<path fill="#ffffff" opacity="1.00" d=" M 10.00 14.00 C 24.67 14.00 39.33 14.00 54.00 14.00 C 54.00 23.33 54.00 32.67 54.00 42.00 C 45.08 42.02 36.15 41.97 27.23 42.03 C 24.86 44.00 22.43 45.90 20.01 47.81 C 20.00 45.87 20.00 43.94 20.00 42.00 C 16.67 42.00 13.33 42.00 10.00 42.00 C 10.00 32.67 10.00 23.33 10.00 14.00 M 20.00 20.00 C 20.00 23.33 20.00 26.66 20.00 30.00 C 22.08 30.00 24.15 30.00 26.23 30.04 C 25.75 32.20 24.17 33.78 22.00 34.24 C 22.01 35.55 22.02 36.86 22.04 38.17 C 25.48 37.74 28.88 35.58 29.71 32.03 C 30.32 28.06 29.87 24.01 30.00 20.00 C 26.66 20.00 23.33 20.00 20.00 20.00 M 34.00 20.00 C 34.00 23.33 34.00 26.66 34.00 30.00 C 36.08 30.00 38.15 30.00 40.23 30.04 C 39.76 32.21 38.17 33.78 36.00 34.24 C 36.01 35.55 36.02 36.86 36.04 38.17 C 39.47 37.74 42.86 35.60 43.70 32.07 C 44.33 28.08 43.87 24.02 44.00 20.00 C 40.66 20.00 37.33 20.00 34.00 20.00 Z" />
<path fill="#ffffff" opacity="1.00" d=" M 24.16 24.17 C 25.80 23.64 26.35 24.20 25.84 25.83 C 24.20 26.35 23.65 25.80 24.16 24.17 Z" />
<path fill="#ffffff" opacity="1.00" d=" M 38.16 24.17 C 39.80 23.64 40.35 24.20 39.84 25.83 C 38.20 26.35 37.65 25.80 38.16 24.17 Z" />
</g>
<g id="#000000ff">
<path fill="#000000" opacity="1.00" d=" M 6.00 10.00 C 23.33 10.00 40.67 10.00 58.00 10.00 C 58.00 22.00 58.00 34.00 58.00 46.00 C 48.25 45.99 38.50 46.02 28.76 45.98 C 24.49 49.37 20.25 52.78 16.00 56.19 C 16.00 52.79 16.00 49.40 16.00 46.00 C 12.67 46.00 9.33 46.00 6.00 46.00 C 6.00 34.00 6.00 22.00 6.00 10.00 M 10.00 14.00 C 10.00 23.33 10.00 32.67 10.00 42.00 C 13.33 42.00 16.67 42.00 20.00 42.00 C 20.00 43.94 20.00 45.87 20.01 47.81 C 22.43 45.90 24.86 44.00 27.23 42.03 C 36.15 41.97 45.08 42.02 54.00 42.00 C 54.00 32.67 54.00 23.33 54.00 14.00 C 39.33 14.00 24.67 14.00 10.00 14.00 Z" />
<path fill="#000000" opacity="1.00" d=" M 20.00 20.00 C 23.33 20.00 26.66 20.00 30.00 20.00 C 29.87 24.01 30.32 28.06 29.71 32.03 C 28.88 35.58 25.48 37.74 22.04 38.17 C 22.02 36.86 22.01 35.55 22.00 34.24 C 24.17 33.78 25.75 32.20 26.23 30.04 C 24.15 30.00 22.08 30.00 20.00 30.00 C 20.00 26.66 20.00 23.33 20.00 20.00 M 24.16 24.17 C 23.65 25.80 24.20 26.35 25.84 25.83 C 26.35 24.20 25.80 23.64 24.16 24.17 Z" />
<path fill="#000000" opacity="1.00" d=" M 34.00 20.00 C 37.33 20.00 40.66 20.00 44.00 20.00 C 43.87 24.02 44.33 28.08 43.70 32.07 C 42.86 35.60 39.47 37.74 36.04 38.17 C 36.02 36.86 36.01 35.55 36.00 34.24 C 38.17 33.78 39.76 32.21 40.23 30.04 C 38.15 30.00 36.08 30.00 34.00 30.00 C 34.00 26.66 34.00 23.33 34.00 20.00 M 38.16 24.17 C 37.65 25.80 38.20 26.35 39.84 25.83 C 40.35 24.20 39.80 23.64 38.16 24.17 Z" />
</g>
</svg>
