<?xml version="1.0" encoding="UTF-8" ?>
<!DOCTYPE svg PUBLIC "-//W3C//DTD SVG 1.1//EN" "http://www.w3.org/Graphics/SVG/1.1/DTD/svg11.dtd">
<svg width="60pt" height="60pt" viewBox="0 0 60 60" version="1.1" xmlns="http://www.w3.org/2000/svg">
<g id="#ffffffff">
<path fill="#ffffff" opacity="1.00" d=" M 0.00 0.00 L 60.00 0.00 L 60.00 60.00 L 0.00 60.00 L 0.00 0.00 M 28.31 5.79 C 27.12 6.81 25.70 9.05 24.31 6.92 C 24.00 5.27 22.39 2.83 20.65 4.58 C 18.85 6.20 21.01 7.88 22.60 8.45 C 23.09 10.16 23.27 12.02 24.24 13.55 C 27.72 14.47 31.50 13.96 35.08 13.87 C 36.97 12.85 36.71 10.22 37.40 8.43 C 38.55 7.86 40.77 6.90 39.80 5.25 C 39.43 3.77 36.94 3.49 36.50 5.07 C 36.19 6.30 34.61 9.11 33.22 7.29 C 30.72 6.30 33.07 2.05 30.04 2.05 C 27.87 1.81 27.99 4.33 28.31 5.79 M 2.09 24.97 C 1.43 29.17 4.71 33.42 8.92 33.90 C 12.52 34.27 15.96 32.88 19.27 31.68 C 19.03 32.26 18.55 33.41 18.31 33.99 C 26.10 34.00 33.89 34.00 41.68 33.99 C 41.44 33.42 40.97 32.26 40.73 31.68 C 44.04 32.88 47.48 34.26 51.07 33.91 C 55.26 33.42 58.55 29.20 57.92 25.01 C 57.50 21.14 53.91 17.93 50.01 18.03 C 45.62 18.10 41.56 19.99 37.63 21.77 C 34.10 16.82 25.90 16.80 22.36 21.76 C 18.44 20.00 14.40 18.11 10.01 18.03 C 6.11 17.91 2.51 21.11 2.09 24.97 M 17.94 38.02 C 18.31 40.02 18.70 42.02 19.15 44.00 C 26.38 44.00 33.62 44.00 40.86 44.00 C 41.30 42.02 41.68 40.02 42.05 38.02 C 34.01 37.99 25.98 37.98 17.94 38.02 M 21.11 48.04 C 23.29 50.91 26.11 54.00 30.03 53.99 C 33.91 53.96 36.71 50.90 38.89 48.05 C 32.96 47.96 27.03 47.98 21.11 48.04 Z" />
<path fill="#ffffff" opacity="1.00" d=" M 8.31 22.36 C 12.65 21.41 17.00 23.78 20.87 25.56 C 20.86 25.79 20.85 26.23 20.84 26.45 C 17.17 28.26 13.17 30.10 9.00 29.88 C 5.45 29.17 4.95 23.70 8.31 22.36 Z" />
<path fill="#ffffff" opacity="1.00" d=" M 46.45 22.62 C 48.70 21.97 51.76 21.38 53.28 23.69 C 55.20 26.16 53.09 30.24 49.95 29.97 C 46.10 29.66 42.45 28.14 39.06 26.40 C 40.14 23.89 44.09 23.73 46.45 22.62 Z" />
</g>
<g id="#000000ff">
<path fill="#000000" opacity="1.00" d=" M 28.31 5.79 C 27.99 4.33 27.87 1.81 30.04 2.05 C 33.07 2.05 30.72 6.30 33.22 7.29 C 34.61 9.11 36.19 6.30 36.50 5.07 C 36.94 3.49 39.43 3.77 39.80 5.25 C 40.77 6.90 38.55 7.86 37.40 8.43 C 36.71 10.22 36.97 12.85 35.08 13.87 C 31.50 13.96 27.72 14.47 24.24 13.55 C 23.27 12.02 23.09 10.16 22.60 8.45 C 21.01 7.88 18.85 6.20 20.65 4.58 C 22.39 2.83 24.00 5.27 24.31 6.92 C 25.70 9.05 27.12 6.81 28.31 5.79 Z" />
<path fill="#000000" opacity="1.00" d=" M 2.09 24.97 C 2.51 21.11 6.11 17.91 10.01 18.03 C 14.40 18.11 18.44 20.00 22.36 21.76 C 25.90 16.80 34.10 16.82 37.63 21.77 C 41.56 19.99 45.62 18.10 50.01 18.03 C 53.91 17.93 57.50 21.14 57.92 25.01 C 58.55 29.20 55.26 33.42 51.07 33.91 C 47.48 34.26 44.04 32.88 40.73 31.68 C 40.97 32.26 41.44 33.42 41.68 33.99 C 33.89 34.00 26.10 34.00 18.31 33.99 C 18.55 33.41 19.03 32.26 19.27 31.68 C 15.96 32.88 12.52 34.27 8.92 33.90 C 4.71 33.42 1.43 29.17 2.09 24.97 M 8.31 22.36 C 4.95 23.70 5.45 29.17 9.00 29.88 C 13.17 30.10 17.17 28.26 20.84 26.45 C 20.85 26.23 20.86 25.79 20.87 25.56 C 17.00 23.78 12.65 21.41 8.31 22.36 M 46.45 22.62 C 44.09 23.73 40.14 23.89 39.06 26.40 C 42.45 28.14 46.10 29.66 49.95 29.97 C 53.09 30.24 55.20 26.16 53.28 23.69 C 51.76 21.38 48.70 21.97 46.45 22.62 Z" />
<path fill="#000000" opacity="1.00" d=" M 17.94 38.02 C 25.98 37.98 34.01 37.99 42.05 38.02 C 41.68 40.02 41.30 42.02 40.86 44.00 C 33.62 44.00 26.38 44.00 19.15 44.00 C 18.70 42.02 18.31 40.02 17.94 38.02 Z" />
<path fill="#000000" opacity="1.00" d=" M 21.11 48.04 C 27.03 47.98 32.96 47.96 38.89 48.05 C 36.71 50.90 33.91 53.96 30.03 53.99 C 26.11 54.00 23.29 50.91 21.11 48.04 Z" />
</g>
</svg>
