<?xml version="1.0" encoding="UTF-8" ?>
<!DOCTYPE svg PUBLIC "-//W3C//DTD SVG 1.1//EN" "http://www.w3.org/Graphics/SVG/1.1/DTD/svg11.dtd">
<svg width="60pt" height="60pt" viewBox="0 0 60 60" version="1.1" xmlns="http://www.w3.org/2000/svg">
<g id="#ffffffff">
<path fill="#ffffff" opacity="1.00" d=" M 0.00 0.00 L 60.00 0.00 L 60.00 60.00 L 0.00 60.00 L 0.00 0.00 M 13.13 8.16 C 11.67 8.89 12.12 10.65 11.98 11.96 C 12.09 24.65 11.87 37.35 12.08 50.03 C 11.80 52.57 16.16 52.58 15.91 50.05 C 16.12 37.38 15.94 24.68 16.00 12.00 C 21.69 12.04 27.37 11.92 33.06 12.04 C 37.45 11.94 41.47 15.54 41.91 19.89 C 42.56 24.36 39.32 28.97 34.86 29.78 C 30.31 30.40 25.69 29.61 21.14 30.19 C 19.64 30.80 19.64 33.18 21.14 33.79 C 24.35 34.26 27.60 33.90 30.83 34.00 C 33.72 39.21 36.63 44.41 39.49 49.63 C 40.15 50.50 40.59 52.19 42.00 51.93 C 43.29 52.25 44.52 50.36 43.78 49.28 C 41.11 43.97 38.03 38.86 35.19 33.64 C 39.08 32.67 42.80 30.38 44.60 26.67 C 47.66 20.99 45.37 13.31 39.87 10.02 C 36.08 7.48 31.34 8.04 27.02 8.00 C 22.39 8.11 17.75 7.77 13.13 8.16 Z" />
</g>
<g id="#000000ff">
<path fill="#000000" opacity="1.00" d=" M 13.13 8.16 C 17.75 7.77 22.39 8.11 27.02 8.00 C 31.34 8.04 36.08 7.48 39.87 10.02 C 45.37 13.31 47.66 20.99 44.60 26.67 C 42.80 30.38 39.08 32.67 35.19 33.64 C 38.03 38.86 41.11 43.97 43.78 49.28 C 44.52 50.36 43.29 52.25 42.00 51.93 C 40.59 52.19 40.15 50.50 39.49 49.63 C 36.63 44.41 33.72 39.21 30.83 34.00 C 27.60 33.90 24.35 34.26 21.14 33.79 C 19.64 33.18 19.64 30.80 21.14 30.19 C 25.69 29.61 30.31 30.40 34.86 29.78 C 39.32 28.97 42.56 24.36 41.91 19.89 C 41.47 15.54 37.45 11.94 33.06 12.04 C 27.37 11.92 21.69 12.04 16.00 12.00 C 15.94 24.68 16.12 37.38 15.91 50.05 C 16.16 52.58 11.80 52.57 12.08 50.03 C 11.87 37.35 12.09 24.65 11.98 11.96 C 12.12 10.65 11.67 8.89 13.13 8.16 Z" />
</g>
</svg>
