<?xml version="1.0" encoding="UTF-8" ?>
<!DOCTYPE svg PUBLIC "-//W3C//DTD SVG 1.1//EN" "http://www.w3.org/Graphics/SVG/1.1/DTD/svg11.dtd">
<svg width="64pt" height="64pt" viewBox="0 0 64 64" version="1.1" xmlns="http://www.w3.org/2000/svg">
<g id="#ffffffff">
<path fill="#ffffff" opacity="1.00" d=" M 0.00 0.00 L 64.00 0.00 L 64.00 64.00 L 0.00 64.00 L 0.00 0.00 M 23.52 7.56 C 20.11 10.74 19.77 15.63 19.98 19.99 C 19.49 20.00 18.49 20.01 18.00 20.01 C 18.00 29.34 18.00 38.67 18.00 48.00 C 18.81 48.00 20.42 47.99 21.23 47.99 C 21.65 49.30 22.06 50.61 22.48 51.92 C 28.84 52.03 35.20 52.09 41.56 51.89 C 41.96 50.59 42.36 49.28 42.77 47.99 C 43.57 47.99 45.19 48.00 46.00 48.00 C 46.00 38.67 46.00 29.34 46.00 20.01 C 45.51 20.01 44.52 20.00 44.02 19.99 C 44.16 15.83 43.99 11.20 40.90 8.03 C 36.62 2.91 28.09 2.75 23.52 7.56 M 12.00 20.00 C 12.00 21.33 12.00 22.66 12.00 23.99 C 11.50 23.99 10.50 24.01 10.00 24.01 C 10.00 25.34 10.00 26.66 10.00 27.99 C 10.50 27.99 11.50 28.01 12.00 28.01 C 12.32 36.72 10.81 45.73 14.15 54.04 C 13.36 54.83 12.56 55.61 11.75 56.39 C 11.70 57.59 11.64 58.79 11.60 60.00 C 13.73 60.00 15.86 60.00 17.99 60.00 C 18.49 55.23 17.43 50.60 16.15 46.05 C 15.79 37.38 16.11 28.68 16.00 20.00 C 14.67 20.00 13.33 20.00 12.00 20.00 M 48.00 20.00 C 47.89 28.69 48.22 37.40 47.84 46.08 C 46.56 50.62 45.52 55.24 46.01 60.00 C 48.15 60.00 50.28 60.00 52.42 60.00 C 52.86 57.55 51.81 55.49 49.89 54.01 C 53.14 45.69 51.70 36.71 52.00 28.01 C 52.50 28.01 53.50 27.99 54.00 27.99 C 54.00 26.66 54.00 25.34 54.00 24.01 C 53.50 24.01 52.50 23.99 52.00 23.99 C 52.00 22.66 52.00 21.33 52.00 20.00 C 50.67 20.00 49.33 20.00 48.00 20.00 Z" />
<path fill="#ffffff" opacity="1.00" d=" M 25.86 10.88 C 28.82 7.10 35.17 7.10 38.13 10.87 C 40.38 13.36 39.98 16.90 40.02 20.00 C 38.01 20.00 36.01 20.00 34.00 20.00 C 34.00 18.00 34.00 16.00 34.00 14.00 C 32.67 14.00 31.33 14.00 30.00 14.00 C 30.00 16.00 30.00 18.00 30.00 20.00 C 27.99 20.00 25.99 20.00 23.98 20.00 C 24.02 16.91 23.61 13.37 25.86 10.88 M 36.15 16.19 C 35.67 17.82 36.23 18.36 37.84 17.81 C 38.33 16.18 37.76 15.64 36.15 16.19 Z" />
<path fill="#ffffff" opacity="1.00" d=" M 22.00 24.00 C 28.67 24.00 35.33 24.00 42.00 24.00 C 42.00 30.67 42.00 37.33 42.00 44.00 C 41.50 44.00 40.50 44.00 40.00 44.00 C 40.00 42.67 40.00 41.33 40.00 40.00 C 38.67 40.00 37.33 40.00 36.00 40.00 C 36.00 42.67 36.00 45.33 36.00 48.00 C 35.50 48.00 34.50 48.00 34.00 48.00 C 34.00 42.00 34.00 36.00 34.00 30.00 C 32.67 30.00 31.33 30.00 30.00 30.00 C 30.00 36.01 30.00 42.02 30.00 48.02 C 28.46 47.98 26.92 47.98 25.38 47.93 C 24.70 46.16 24.68 43.27 22.00 43.87 C 22.00 37.25 22.00 30.62 22.00 24.00 Z" />
</g>
<g id="#000000ff">
<path fill="#000000" opacity="1.00" d=" M 23.52 7.56 C 28.09 2.75 36.62 2.91 40.90 8.03 C 43.99 11.20 44.16 15.83 44.02 19.99 C 44.52 20.00 45.51 20.01 46.00 20.01 C 46.00 29.34 46.00 38.67 46.00 48.00 C 45.19 48.00 43.57 47.99 42.77 47.99 C 42.36 49.28 41.96 50.59 41.56 51.89 C 35.20 52.09 28.84 52.03 22.48 51.92 C 22.06 50.61 21.65 49.30 21.23 47.99 C 20.42 47.99 18.81 48.00 18.00 48.00 C 18.00 38.67 18.00 29.34 18.00 20.01 C 18.49 20.01 19.49 20.00 19.98 19.99 C 19.77 15.63 20.11 10.74 23.52 7.56 M 25.86 10.88 C 23.61 13.37 24.02 16.91 23.98 20.00 C 25.99 20.00 27.99 20.00 30.00 20.00 C 30.00 18.00 30.00 16.00 30.00 14.00 C 31.33 14.00 32.67 14.00 34.00 14.00 C 34.00 16.00 34.00 18.00 34.00 20.00 C 36.01 20.00 38.01 20.00 40.02 20.00 C 39.98 16.90 40.38 13.36 38.13 10.87 C 35.17 7.10 28.82 7.10 25.86 10.88 M 22.00 24.00 C 22.00 30.62 22.00 37.25 22.00 43.87 C 24.68 43.27 24.70 46.16 25.38 47.93 C 26.92 47.98 28.46 47.98 30.00 48.02 C 30.00 42.02 30.00 36.01 30.00 30.00 C 31.33 30.00 32.67 30.00 34.00 30.00 C 34.00 36.00 34.00 42.00 34.00 48.00 C 34.50 48.00 35.50 48.00 36.00 48.00 C 36.00 45.33 36.00 42.67 36.00 40.00 C 37.33 40.00 38.67 40.00 40.00 40.00 C 40.00 41.33 40.00 42.67 40.00 44.00 C 40.50 44.00 41.50 44.00 42.00 44.00 C 42.00 37.33 42.00 30.67 42.00 24.00 C 35.33 24.00 28.67 24.00 22.00 24.00 Z" />
<path fill="#000000" opacity="1.00" d=" M 36.15 16.19 C 37.76 15.64 38.33 16.18 37.84 17.81 C 36.23 18.36 35.67 17.82 36.15 16.19 Z" />
<path fill="#000000" opacity="1.00" d=" M 12.00 20.00 C 13.33 20.00 14.67 20.00 16.00 20.00 C 16.11 28.68 15.79 37.38 16.15 46.05 C 17.43 50.60 18.49 55.23 17.99 60.00 C 15.86 60.00 13.73 60.00 11.60 60.00 C 11.64 58.79 11.70 57.59 11.75 56.39 C 12.56 55.61 13.36 54.83 14.15 54.04 C 10.81 45.73 12.32 36.72 12.00 28.01 C 11.50 28.01 10.50 27.99 10.00 27.99 C 10.00 26.66 10.00 25.34 10.00 24.01 C 10.50 24.01 11.50 23.99 12.00 23.99 C 12.00 22.66 12.00 21.33 12.00 20.00 Z" />
<path fill="#000000" opacity="1.00" d=" M 48.00 20.00 C 49.33 20.00 50.67 20.00 52.00 20.00 C 52.00 21.33 52.00 22.66 52.00 23.99 C 52.50 23.99 53.50 24.01 54.00 24.01 C 54.00 25.34 54.00 26.66 54.00 27.99 C 53.50 27.99 52.50 28.01 52.00 28.01 C 51.70 36.71 53.14 45.69 49.89 54.01 C 51.81 55.49 52.86 57.55 52.42 60.00 C 50.28 60.00 48.15 60.00 46.01 60.00 C 45.52 55.24 46.56 50.62 47.84 46.08 C 48.22 37.40 47.89 28.69 48.00 20.00 Z" />
</g>
</svg>
