<?xml version="1.0" encoding="UTF-8" ?>
<!DOCTYPE svg PUBLIC "-//W3C//DTD SVG 1.1//EN" "http://www.w3.org/Graphics/SVG/1.1/DTD/svg11.dtd">
<svg width="60pt" height="60pt" viewBox="0 0 60 60" version="1.1" xmlns="http://www.w3.org/2000/svg">
<g id="#ffffffff">
<path fill="#ffffff" opacity="1.00" d=" M 0.00 0.00 L 60.00 0.00 L 60.00 60.00 L 0.00 60.00 L 0.00 0.00 M 22.36 6.38 C 20.42 7.15 20.00 9.30 19.93 11.15 C 18.41 12.82 16.82 14.41 15.15 15.93 C 11.22 15.33 8.66 19.62 10.89 22.83 C 9.75 26.52 8.52 30.19 7.22 33.84 C 4.79 34.88 2.89 37.86 4.72 40.29 C 6.17 42.49 8.95 42.12 10.96 40.99 C 13.30 41.56 15.61 42.22 17.90 42.97 C 18.80 44.07 19.49 45.63 21.11 45.72 C 24.23 45.98 25.89 48.87 27.93 50.85 C 27.74 53.31 29.27 56.10 32.03 55.99 C 34.57 56.10 35.79 53.58 36.34 51.50 C 40.28 48.97 44.12 46.27 48.08 43.76 C 50.16 44.22 52.73 43.84 53.62 41.62 C 54.71 39.70 53.34 37.71 52.05 36.33 C 52.38 31.82 50.67 26.64 53.89 22.87 C 54.65 19.97 51.84 17.83 49.19 17.82 C 47.39 15.77 45.63 13.68 43.94 11.54 C 44.07 9.58 43.73 7.23 41.69 6.37 C 39.73 5.31 37.72 6.61 36.33 7.95 C 33.44 8.03 30.55 8.03 27.67 7.95 C 26.29 6.65 24.28 5.28 22.36 6.38 Z" />
<path fill="#ffffff" opacity="1.00" d=" M 27.66 12.05 C 30.55 11.97 33.44 11.97 36.32 12.05 C 37.58 13.24 39.12 13.98 40.84 14.19 C 42.63 16.24 44.38 18.32 46.05 20.48 C 45.82 22.47 46.50 24.31 47.95 25.67 C 48.03 29.22 48.04 32.77 47.94 36.31 C 46.89 37.53 46.14 38.94 45.67 40.46 C 41.77 43.11 37.84 45.70 33.92 48.30 C 33.16 48.23 31.65 48.08 30.90 48.01 C 29.26 46.42 27.60 44.84 26.07 43.15 C 25.90 41.56 25.80 39.67 24.28 38.72 C 22.68 37.37 20.64 38.35 18.97 38.98 C 16.37 38.02 12.83 38.26 11.14 35.78 C 11.81 31.77 13.55 28.02 14.78 24.16 C 18.30 23.06 17.27 18.84 19.86 16.91 C 20.84 15.94 21.85 15.01 22.87 14.09 C 24.71 14.03 26.39 13.40 27.66 12.05 Z" />
</g>
<g id="#000000ff">
<path fill="#968176" opacity="1.00" d=" M 22.36 6.38 C 24.28 5.28 26.29 6.65 27.67 7.95 C 30.55 8.03 33.44 8.03 36.33 7.95 C 37.72 6.61 39.73 5.31 41.69 6.37 C 43.73 7.23 44.07 9.58 43.94 11.54 C 45.63 13.68 47.39 15.77 49.19 17.82 C 51.84 17.83 54.65 19.97 53.89 22.87 C 50.67 26.64 52.38 31.82 52.05 36.33 C 53.34 37.71 54.71 39.70 53.62 41.62 C 52.73 43.84 50.16 44.22 48.08 43.76 C 44.12 46.27 40.28 48.97 36.34 51.50 C 35.79 53.58 34.57 56.10 32.03 55.99 C 29.27 56.10 27.74 53.31 27.93 50.85 C 25.89 48.87 24.23 45.98 21.11 45.72 C 19.49 45.63 18.80 44.07 17.90 42.97 C 15.61 42.22 13.30 41.56 10.96 40.99 C 8.95 42.12 6.17 42.49 4.72 40.29 C 2.89 37.86 4.79 34.88 7.22 33.84 C 8.52 30.19 9.75 26.52 10.89 22.83 C 8.66 19.62 11.22 15.33 15.15 15.93 C 16.82 14.41 18.41 12.82 19.93 11.15 C 20.00 9.30 20.42 7.15 22.36 6.38 M 27.66 12.05 C 26.39 13.40 24.71 14.03 22.87 14.09 C 21.85 15.01 20.84 15.94 19.86 16.91 C 17.27 18.84 18.30 23.06 14.78 24.16 C 13.55 28.02 11.81 31.77 11.14 35.78 C 12.83 38.26 16.37 38.02 18.97 38.98 C 20.64 38.35 22.68 37.37 24.28 38.72 C 25.80 39.67 25.90 41.56 26.07 43.15 C 27.60 44.84 29.26 46.42 30.90 48.01 C 31.65 48.08 33.16 48.23 33.92 48.30 C 37.84 45.70 41.77 43.11 45.67 40.46 C 46.14 38.94 46.89 37.53 47.94 36.31 C 48.04 32.77 48.03 29.22 47.95 25.67 C 46.50 24.31 45.82 22.47 46.05 20.48 C 44.38 18.32 42.63 16.24 40.84 14.19 C 39.12 13.98 37.58 13.24 36.32 12.05 C 33.44 11.97 30.55 11.97 27.66 12.05 Z" />
</g>
</svg>
