<?xml version="1.0" encoding="UTF-8" ?>
<!DOCTYPE svg PUBLIC "-//W3C//DTD SVG 1.1//EN" "http://www.w3.org/Graphics/SVG/1.1/DTD/svg11.dtd">
<svg width="60pt" height="60pt" viewBox="0 0 60 60" version="1.1" xmlns="http://www.w3.org/2000/svg">
<g id="#ffffffff">
<path fill="#ffffff" opacity="1.00" d=" M 0.00 0.00 L 60.00 0.00 L 60.00 60.00 L 0.00 60.00 L 0.00 0.00 M 9.19 2.10 C 6.86 3.13 8.36 6.86 10.78 5.87 C 13.17 4.87 11.60 1.13 9.19 2.10 M 17.20 7.73 C 23.31 9.99 29.57 11.84 35.72 13.99 C 27.77 14.06 19.82 13.92 11.88 14.04 C 8.77 13.97 5.97 16.76 6.04 19.88 C 5.97 28.62 5.96 37.37 6.05 46.12 C 5.95 48.63 8.58 50.33 10.90 50.00 C 23.97 49.97 37.04 50.07 50.11 49.95 C 52.59 49.99 54.34 47.44 54.00 45.10 C 53.98 36.70 54.06 28.30 53.96 19.90 C 53.99 17.43 52.26 15.03 49.85 14.40 C 39.43 11.12 29.12 7.49 18.71 4.17 C 16.42 3.01 14.70 7.02 17.20 7.73 Z" />
<path fill="#ffffff" opacity="1.00" d=" M 21.16 22.10 C 23.60 21.14 25.16 24.82 22.79 25.90 C 20.38 26.84 18.89 23.21 21.16 22.10 Z" />
<path fill="#ffffff" opacity="1.00" d=" M 43.39 22.48 C 46.59 20.26 49.89 25.59 46.61 27.52 C 43.41 29.74 40.10 24.41 43.39 22.48 Z" />
<path fill="#ffffff" opacity="1.00" d=" M 12.70 28.01 C 13.46 26.90 14.25 25.58 15.83 26.08 C 17.42 26.82 17.44 29.12 15.87 29.90 C 14.31 30.39 13.45 29.13 12.70 28.01 Z" />
<path fill="#ffffff" opacity="1.00" d=" M 28.20 26.16 C 30.54 25.13 32.03 28.78 29.80 29.88 C 27.39 30.95 25.67 27.04 28.20 26.16 Z" />
<path fill="#ffffff" opacity="1.00" d=" M 21.18 30.10 C 23.60 29.16 25.13 32.79 22.82 33.89 C 20.39 34.86 18.86 31.18 21.18 30.10 Z" />
<path fill="#ffffff" opacity="1.00" d=" M 14.23 34.15 C 16.66 33.03 18.22 36.86 15.85 37.92 C 13.47 38.78 11.93 35.22 14.23 34.15 Z" />
<path fill="#ffffff" opacity="1.00" d=" M 28.21 34.10 C 30.51 33.26 32.02 36.66 29.87 37.83 C 27.42 39.07 25.67 35.04 28.21 34.10 Z" />
<path fill="#ffffff" opacity="1.00" d=" M 43.37 34.49 C 45.55 32.92 48.84 35.38 47.81 37.89 C 47.39 39.72 44.96 40.56 43.43 39.53 C 41.59 38.51 41.59 35.57 43.37 34.49 Z" />
<path fill="#ffffff" opacity="1.00" d=" M 21.25 38.16 C 23.58 37.09 25.13 40.85 22.84 41.88 C 20.46 42.95 18.76 39.06 21.25 38.16 Z" />
</g>
<g id="#000000ff">
<path fill="#000000" opacity="1.00" d=" M 9.19 2.10 C 11.60 1.13 13.17 4.87 10.78 5.87 C 8.36 6.86 6.86 3.13 9.19 2.10 Z" />
<path fill="#000000" opacity="1.00" d=" M 17.20 7.73 C 14.70 7.02 16.42 3.01 18.71 4.17 C 29.12 7.49 39.43 11.12 49.85 14.40 C 52.26 15.03 53.99 17.43 53.96 19.90 C 54.06 28.30 53.98 36.70 54.00 45.10 C 54.34 47.44 52.59 49.99 50.11 49.95 C 37.04 50.07 23.97 49.97 10.90 50.00 C 8.58 50.33 5.95 48.63 6.05 46.12 C 5.96 37.37 5.97 28.62 6.04 19.88 C 5.97 16.76 8.77 13.97 11.88 14.04 C 19.82 13.92 27.77 14.06 35.72 13.99 C 29.57 11.84 23.31 9.99 17.20 7.73 M 21.16 22.10 C 18.89 23.21 20.38 26.84 22.79 25.90 C 25.16 24.82 23.60 21.14 21.16 22.10 M 43.39 22.48 C 40.10 24.41 43.41 29.74 46.61 27.52 C 49.89 25.59 46.59 20.26 43.39 22.48 M 12.70 28.01 C 13.45 29.13 14.31 30.39 15.87 29.90 C 17.44 29.12 17.42 26.82 15.83 26.08 C 14.25 25.58 13.46 26.90 12.70 28.01 M 28.20 26.16 C 25.67 27.04 27.39 30.95 29.80 29.88 C 32.03 28.78 30.54 25.13 28.20 26.16 M 21.18 30.10 C 18.86 31.18 20.39 34.86 22.82 33.89 C 25.13 32.79 23.60 29.16 21.18 30.10 M 14.23 34.15 C 11.93 35.22 13.47 38.78 15.85 37.92 C 18.22 36.86 16.66 33.03 14.23 34.15 M 28.21 34.10 C 25.67 35.04 27.42 39.07 29.87 37.83 C 32.02 36.66 30.51 33.26 28.21 34.10 M 43.37 34.49 C 41.59 35.57 41.59 38.51 43.43 39.53 C 44.96 40.56 47.39 39.72 47.81 37.89 C 48.84 35.38 45.55 32.92 43.37 34.49 M 21.25 38.16 C 18.76 39.06 20.46 42.95 22.84 41.88 C 25.13 40.85 23.58 37.09 21.25 38.16 Z" />
</g>
</svg>
