<?xml version="1.0" encoding="UTF-8" ?>
<!DOCTYPE svg PUBLIC "-//W3C//DTD SVG 1.1//EN" "http://www.w3.org/Graphics/SVG/1.1/DTD/svg11.dtd">
<svg width="60pt" height="60pt" viewBox="0 0 60 60" version="1.1" xmlns="http://www.w3.org/2000/svg">
<g id="#ffffffff">
<path fill="#ffffff" opacity="1.00" d=" M 0.00 0.00 L 60.00 0.00 L 60.00 60.00 L 0.00 60.00 L 0.00 0.00 M 35.20 2.09 C 32.85 3.14 34.37 6.88 36.81 5.87 C 39.15 4.82 37.57 1.13 35.20 2.09 M 28.22 6.15 C 22.01 8.48 15.99 11.32 9.82 13.77 C 8.03 14.41 5.96 15.64 6.07 17.84 C 5.93 27.23 5.98 36.64 6.04 46.03 C 5.91 48.59 8.58 50.34 10.94 50.00 C 23.66 50.00 36.38 50.00 49.10 50.00 C 51.46 50.34 54.05 48.60 53.95 46.07 C 54.07 37.03 53.97 27.98 54.00 18.93 C 54.33 16.62 52.65 13.98 50.14 14.05 C 40.01 13.85 29.87 14.19 19.74 13.87 C 23.24 12.35 27.00 11.31 30.27 9.30 C 31.64 8.02 29.99 5.27 28.22 6.15 Z" />
<path fill="#ffffff" opacity="1.00" d=" M 10.00 18.00 C 23.33 18.00 36.67 18.00 50.00 18.00 C 50.00 20.67 50.00 23.33 50.00 26.00 C 36.67 26.00 23.33 26.00 10.00 26.00 C 10.00 23.33 10.00 20.67 10.00 18.00 Z" />
<path fill="#ffffff" opacity="1.00" d=" M 16.14 30.22 C 21.96 28.54 27.71 34.78 25.62 40.45 C 24.11 46.34 15.54 47.89 11.85 43.20 C 8.07 38.96 10.42 31.22 16.14 30.22 Z" />
</g>
<g id="#000000ff">
<path fill="#000000" opacity="1.00" d=" M 35.20 2.09 C 37.57 1.13 39.15 4.82 36.81 5.87 C 34.37 6.88 32.85 3.14 35.20 2.09 Z" />
<path fill="#000000" opacity="1.00" d=" M 28.22 6.15 C 29.99 5.27 31.64 8.02 30.27 9.30 C 27.00 11.31 23.24 12.35 19.74 13.87 C 29.87 14.19 40.01 13.85 50.14 14.05 C 52.65 13.98 54.33 16.62 54.00 18.93 C 53.97 27.98 54.07 37.03 53.95 46.07 C 54.05 48.60 51.46 50.34 49.10 50.00 C 36.38 50.00 23.66 50.00 10.94 50.00 C 8.58 50.34 5.91 48.59 6.04 46.03 C 5.98 36.64 5.93 27.23 6.07 17.84 C 5.96 15.64 8.03 14.41 9.82 13.77 C 15.99 11.32 22.01 8.48 28.22 6.15 M 10.00 18.00 C 10.00 20.67 10.00 23.33 10.00 26.00 C 23.33 26.00 36.67 26.00 50.00 26.00 C 50.00 23.33 50.00 20.67 50.00 18.00 C 36.67 18.00 23.33 18.00 10.00 18.00 M 16.14 30.22 C 10.42 31.22 8.07 38.96 11.85 43.20 C 15.54 47.89 24.11 46.34 25.62 40.45 C 27.71 34.78 21.96 28.54 16.14 30.22 Z" />
</g>
</svg>
