<?xml version="1.0" encoding="UTF-8" ?>
<!DOCTYPE svg PUBLIC "-//W3C//DTD SVG 1.1//EN" "http://www.w3.org/Graphics/SVG/1.1/DTD/svg11.dtd">
<svg width="60pt" height="60pt" viewBox="0 0 60 60" version="1.1" xmlns="http://www.w3.org/2000/svg">
<g id="#ffffffff">
<path fill="#ffffff" opacity="1.00" d=" M 0.00 0.00 L 60.00 0.00 L 60.00 60.00 L 0.00 60.00 L 0.00 0.00 M 23.71 12.24 C 18.32 10.86 12.92 14.50 11.85 19.87 C 8.27 20.84 4.83 23.35 4.19 27.22 C 2.95 32.51 7.48 38.11 12.92 37.96 C 24.31 38.03 35.71 38.03 47.11 37.96 C 52.83 38.12 57.41 31.94 55.63 26.51 C 54.75 22.94 51.49 20.83 48.15 19.89 C 48.15 13.98 44.48 8.05 38.56 6.53 C 32.94 4.73 26.94 7.55 23.71 12.24 M 11.17 42.07 C 9.00 43.47 9.52 48.83 12.82 47.91 C 14.97 46.47 14.50 41.13 11.17 42.07 M 35.15 42.07 C 32.98 43.52 33.56 48.90 36.90 47.89 C 38.93 46.34 38.49 41.15 35.15 42.07 M 23.16 46.07 C 21.01 47.48 21.53 52.84 24.82 51.91 C 26.98 50.47 26.50 45.13 23.16 46.07 M 47.17 46.07 C 45.02 47.46 45.51 52.80 48.78 51.92 C 51.00 50.53 50.50 45.13 47.17 46.07 Z" />
</g>
<g id="#000000ff">
<path fill="#000000" opacity="1.00" d=" M 23.71 12.24 C 26.94 7.55 32.94 4.73 38.56 6.53 C 44.48 8.05 48.15 13.98 48.15 19.89 C 51.49 20.83 54.75 22.94 55.63 26.51 C 57.41 31.94 52.83 38.12 47.11 37.96 C 35.71 38.03 24.31 38.03 12.92 37.96 C 7.48 38.11 2.95 32.51 4.19 27.22 C 4.83 23.35 8.27 20.84 11.85 19.87 C 12.92 14.50 18.32 10.86 23.71 12.24 Z" />
<path fill="#000000" opacity="1.00" d=" M 11.17 42.07 C 14.50 41.13 14.97 46.47 12.82 47.91 C 9.52 48.83 9.00 43.47 11.17 42.07 Z" />
<path fill="#000000" opacity="1.00" d=" M 35.15 42.07 C 38.49 41.15 38.93 46.34 36.90 47.89 C 33.56 48.90 32.98 43.52 35.15 42.07 Z" />
<path fill="#000000" opacity="1.00" d=" M 23.16 46.07 C 26.50 45.13 26.98 50.47 24.82 51.91 C 21.53 52.84 21.01 47.48 23.16 46.07 Z" />
<path fill="#000000" opacity="1.00" d=" M 47.17 46.07 C 50.50 45.13 51.00 50.53 48.78 51.92 C 45.51 52.80 45.02 47.46 47.17 46.07 Z" />
</g>
</svg>
