<?xml version="1.0" encoding="UTF-8" ?>
<!DOCTYPE svg PUBLIC "-//W3C//DTD SVG 1.1//EN" "http://www.w3.org/Graphics/SVG/1.1/DTD/svg11.dtd">
<svg width="60pt" height="60pt" viewBox="0 0 60 60" version="1.1" xmlns="http://www.w3.org/2000/svg">
<g id="#ffffffff">
<path fill="#ffffff" opacity="1.00" d=" M 0.00 0.00 L 60.00 0.00 L 60.00 60.00 L 0.00 60.00 L 0.00 0.00 M 15.16 2.07 C 12.99 3.50 13.55 8.90 16.87 7.90 C 18.95 6.39 18.49 1.14 15.16 2.07 M 43.22 2.06 C 41.27 3.29 41.30 7.69 43.97 8.05 C 47.20 7.78 46.77 1.04 43.22 2.06 M 27.87 8.03 C 17.82 8.97 8.79 16.56 6.56 26.46 C 6.32 28.22 5.18 30.78 7.20 31.87 C 9.82 32.09 12.06 29.70 14.72 30.12 C 16.53 30.62 18.14 31.79 20.03 31.95 C 23.34 31.29 26.53 29.83 29.98 30.00 C 33.45 29.82 36.64 31.29 39.98 31.95 C 42.66 31.79 45.06 29.05 47.82 30.47 C 49.76 30.87 52.32 33.18 53.85 30.90 C 54.01 19.16 43.61 9.03 32.14 8.03 C 31.95 6.61 32.18 3.89 30.05 4.04 C 27.85 3.80 28.02 6.57 27.87 8.03 M 7.20 8.07 C 4.96 9.41 5.53 14.90 8.86 13.90 C 10.94 12.43 10.51 7.19 7.20 8.07 M 51.14 8.08 C 49.00 9.53 49.55 14.89 52.87 13.89 C 54.96 12.39 54.48 7.12 51.14 8.08 M 28.00 34.00 C 27.92 38.69 28.15 43.39 27.92 48.07 C 28.05 49.57 26.40 50.28 25.14 49.90 C 23.15 48.54 24.83 45.46 22.85 44.09 C 19.17 43.30 19.62 48.40 20.59 50.56 C 22.57 55.33 30.24 54.89 31.66 49.92 C 32.43 44.66 31.80 39.30 32.00 34.00 C 30.67 34.00 29.33 34.00 28.00 34.00 Z" />
</g>
<g id="#000000ff">
<path fill="#000000" opacity="1.00" d=" M 15.16 2.07 C 18.49 1.14 18.95 6.39 16.87 7.90 C 13.55 8.90 12.99 3.50 15.16 2.07 Z" />
<path fill="#000000" opacity="1.00" d=" M 43.22 2.06 C 46.77 1.04 47.20 7.78 43.97 8.05 C 41.30 7.69 41.27 3.29 43.22 2.06 Z" />
<path fill="#000000" opacity="1.00" d=" M 27.87 8.03 C 28.02 6.57 27.85 3.80 30.05 4.04 C 32.18 3.89 31.95 6.61 32.14 8.03 C 43.61 9.03 54.01 19.16 53.85 30.90 C 52.32 33.18 49.76 30.87 47.82 30.47 C 45.06 29.05 42.66 31.79 39.98 31.95 C 36.64 31.29 33.45 29.82 29.98 30.00 C 26.53 29.83 23.34 31.29 20.03 31.95 C 18.14 31.79 16.53 30.62 14.72 30.12 C 12.06 29.70 9.82 32.09 7.20 31.87 C 5.18 30.78 6.32 28.22 6.56 26.46 C 8.79 16.56 17.82 8.97 27.87 8.03 Z" />
<path fill="#000000" opacity="1.00" d=" M 7.20 8.07 C 10.51 7.19 10.94 12.43 8.86 13.90 C 5.53 14.90 4.96 9.41 7.20 8.07 Z" />
<path fill="#000000" opacity="1.00" d=" M 51.14 8.08 C 54.48 7.12 54.96 12.39 52.87 13.89 C 49.55 14.89 49.00 9.53 51.14 8.08 Z" />
<path fill="#000000" opacity="1.00" d=" M 28.00 34.00 C 29.33 34.00 30.67 34.00 32.00 34.00 C 31.80 39.30 32.43 44.66 31.66 49.92 C 30.24 54.89 22.57 55.33 20.59 50.56 C 19.62 48.40 19.17 43.30 22.85 44.09 C 24.83 45.46 23.15 48.54 25.14 49.90 C 26.40 50.28 28.05 49.57 27.92 48.07 C 28.15 43.39 27.92 38.69 28.00 34.00 Z" />
</g>
</svg>
