<?xml version="1.0" encoding="UTF-8" ?>
<!DOCTYPE svg PUBLIC "-//W3C//DTD SVG 1.1//EN" "http://www.w3.org/Graphics/SVG/1.1/DTD/svg11.dtd">
<svg width="60pt" height="60pt" viewBox="0 0 60 60" version="1.1" xmlns="http://www.w3.org/2000/svg">
<g id="#ffffffff">
<path fill="#ffffff" opacity="1.00" d=" M 0.00 0.00 L 60.00 0.00 L 60.00 60.00 L 0.00 60.00 L 0.00 0.00 M 6.03 18.01 C 5.90 21.02 7.42 23.69 9.01 26.12 C 7.50 28.11 5.90 30.29 6.03 32.94 C 5.87 37.70 10.09 42.03 14.87 41.96 C 24.93 42.03 35.01 42.03 45.07 41.96 C 50.50 42.11 55.00 36.57 53.82 31.29 C 53.34 28.10 50.79 25.91 48.14 24.41 C 47.42 18.82 41.87 14.72 36.29 16.26 C 32.41 10.18 24.07 8.25 17.88 11.93 C 18.21 10.38 19.12 8.85 18.87 7.23 C 18.20 5.82 16.44 6.07 15.21 6.40 C 9.97 7.56 5.92 12.62 6.03 18.01 M 47.80 14.54 C 49.08 15.70 50.30 16.93 51.47 18.21 C 53.65 17.38 55.41 15.58 56.25 13.41 C 54.81 12.29 53.70 10.67 52.00 9.93 C 50.04 10.69 48.61 12.64 47.80 14.54 M 15.10 46.08 C 13.03 47.59 13.55 52.89 16.89 51.90 C 18.95 50.35 18.47 45.08 15.10 46.08 M 43.12 46.08 C 41.03 47.57 41.53 52.86 44.86 51.90 C 46.97 50.40 46.48 45.08 43.12 46.08 M 29.20 48.06 C 26.98 49.42 27.52 54.86 30.85 53.90 C 32.94 52.44 32.52 47.19 29.20 48.06 Z" />
<path fill="#ffffff" opacity="1.00" d=" M 10.01 18.01 C 9.84 15.16 11.84 12.93 13.67 11.01 C 14.18 13.87 14.70 17.01 16.98 19.06 C 19.03 21.32 22.14 21.82 24.98 22.34 C 23.06 24.15 20.86 26.13 18.02 25.99 C 13.74 26.10 9.90 22.30 10.01 18.01 Z" />
</g>
<g id="#000000ff">
<path fill="#000000" opacity="1.00" d=" M 6.03 18.01 C 5.92 12.62 9.97 7.56 15.21 6.40 C 16.44 6.07 18.20 5.82 18.87 7.23 C 19.12 8.85 18.21 10.38 17.88 11.93 C 24.07 8.25 32.41 10.18 36.29 16.26 C 41.87 14.72 47.42 18.82 48.14 24.41 C 50.79 25.91 53.34 28.10 53.82 31.29 C 55.00 36.57 50.50 42.11 45.07 41.96 C 35.01 42.03 24.93 42.03 14.87 41.96 C 10.09 42.03 5.87 37.70 6.03 32.94 C 5.90 30.29 7.50 28.11 9.01 26.12 C 7.42 23.69 5.90 21.02 6.03 18.01 M 10.01 18.01 C 9.90 22.30 13.74 26.10 18.02 25.99 C 20.86 26.13 23.06 24.15 24.98 22.34 C 22.14 21.82 19.03 21.32 16.98 19.06 C 14.70 17.01 14.18 13.87 13.67 11.01 C 11.84 12.93 9.84 15.16 10.01 18.01 Z" />
<path fill="#000000" opacity="1.00" d=" M 47.80 14.54 C 48.61 12.64 50.04 10.69 52.00 9.93 C 53.70 10.67 54.81 12.29 56.25 13.41 C 55.41 15.58 53.65 17.38 51.47 18.21 C 50.30 16.93 49.08 15.70 47.80 14.54 Z" />
<path fill="#000000" opacity="1.00" d=" M 15.10 46.08 C 18.47 45.08 18.95 50.35 16.89 51.90 C 13.55 52.89 13.03 47.59 15.10 46.08 Z" />
<path fill="#000000" opacity="1.00" d=" M 43.12 46.08 C 46.48 45.08 46.97 50.40 44.86 51.90 C 41.53 52.86 41.03 47.57 43.12 46.08 Z" />
<path fill="#000000" opacity="1.00" d=" M 29.20 48.06 C 32.52 47.19 32.94 52.44 30.85 53.90 C 27.52 54.86 26.98 49.42 29.20 48.06 Z" />
</g>
</svg>
