<?xml version="1.0" encoding="UTF-8" ?>
<!DOCTYPE svg PUBLIC "-//W3C//DTD SVG 1.1//EN" "http://www.w3.org/Graphics/SVG/1.1/DTD/svg11.dtd">
<svg width="60pt" height="60pt" viewBox="0 0 60 60" version="1.1" xmlns="http://www.w3.org/2000/svg">
<g id="#ffffffff">
<path fill="#ffffff" opacity="1.00" d=" M 0.00 0.00 L 60.00 0.00 L 60.00 60.00 L 0.00 60.00 L 0.00 0.00 M 42.37 8.72 C 24.06 11.83 9.19 28.35 8.13 46.92 C 8.09 48.59 7.39 51.97 9.96 51.93 C 12.12 52.18 11.99 49.42 12.10 47.98 C 12.54 37.03 18.16 26.50 26.85 19.87 C 33.42 14.71 41.73 12.15 50.02 11.91 C 52.10 12.11 52.74 8.95 50.86 8.20 C 48.04 7.78 45.17 8.29 42.37 8.72 M 43.43 16.66 C 28.24 19.39 16.16 33.61 16.04 49.07 C 15.80 50.30 16.45 52.23 18.02 51.93 C 20.15 52.15 19.95 49.35 20.12 47.95 C 20.68 36.10 29.17 25.23 40.42 21.57 C 43.78 20.30 47.40 20.28 50.91 19.75 C 52.42 19.09 52.31 16.73 50.78 16.16 C 48.33 15.83 45.85 16.24 43.43 16.66 M 44.44 24.61 C 32.83 26.96 23.72 38.13 24.05 50.03 C 23.84 52.08 27.16 52.80 27.76 50.80 C 28.27 47.78 28.31 44.63 29.59 41.79 C 32.64 33.90 40.58 28.32 49.03 28.02 C 50.71 28.21 52.57 27.05 51.89 25.16 C 50.10 22.96 46.83 24.40 44.44 24.61 M 45.36 32.61 C 37.46 34.60 31.33 42.62 32.16 50.82 C 32.97 52.77 36.10 52.11 35.92 49.93 C 36.15 43.65 40.61 37.54 46.96 36.43 C 48.69 35.85 51.75 36.50 52.05 34.02 C 51.50 30.84 47.51 32.22 45.36 32.61 M 46.46 40.68 C 42.71 42.07 39.98 45.91 40.04 49.94 C 39.77 51.63 42.24 52.72 43.31 51.46 C 44.36 49.66 44.10 47.21 45.76 45.74 C 47.31 43.82 50.39 44.62 51.91 42.78 C 52.68 39.47 48.43 39.68 46.46 40.68 Z" />
</g>
<g id="#000000ff">
<path fill="#968176" opacity="1.00" d=" M 42.37 8.72 C 45.17 8.29 48.04 7.78 50.86 8.20 C 52.74 8.95 52.10 12.11 50.02 11.91 C 41.73 12.15 33.42 14.71 26.85 19.87 C 18.16 26.50 12.54 37.03 12.10 47.98 C 11.99 49.42 12.12 52.18 9.96 51.93 C 7.39 51.97 8.09 48.59 8.13 46.92 C 9.19 28.35 24.06 11.83 42.37 8.72 Z" />
<path fill="#968176" opacity="1.00" d=" M 43.43 16.66 C 45.85 16.24 48.33 15.83 50.78 16.16 C 52.31 16.73 52.42 19.09 50.91 19.75 C 47.40 20.28 43.78 20.30 40.42 21.57 C 29.17 25.23 20.68 36.10 20.12 47.95 C 19.95 49.35 20.15 52.15 18.02 51.93 C 16.45 52.23 15.80 50.30 16.04 49.07 C 16.16 33.61 28.24 19.39 43.43 16.66 Z" />
<path fill="#968176" opacity="1.00" d=" M 44.44 24.61 C 46.83 24.40 50.10 22.96 51.89 25.16 C 52.57 27.05 50.71 28.21 49.03 28.02 C 40.58 28.32 32.64 33.90 29.59 41.79 C 28.31 44.63 28.27 47.78 27.76 50.80 C 27.16 52.80 23.84 52.08 24.05 50.03 C 23.72 38.13 32.83 26.96 44.44 24.61 Z" />
<path fill="#968176" opacity="1.00" d=" M 45.36 32.61 C 47.51 32.22 51.50 30.84 52.05 34.02 C 51.75 36.50 48.69 35.85 46.96 36.43 C 40.61 37.54 36.15 43.65 35.92 49.93 C 36.10 52.11 32.97 52.77 32.16 50.82 C 31.33 42.62 37.46 34.60 45.36 32.61 Z" />
<path fill="#968176" opacity="1.00" d=" M 46.46 40.68 C 48.43 39.68 52.68 39.47 51.91 42.78 C 50.39 44.62 47.31 43.82 45.76 45.74 C 44.10 47.21 44.36 49.66 43.31 51.46 C 42.24 52.72 39.77 51.63 40.04 49.94 C 39.98 45.91 42.71 42.07 46.46 40.68 Z" />
</g>
</svg>
