<?xml version="1.0" encoding="UTF-8" ?>
<!DOCTYPE svg PUBLIC "-//W3C//DTD SVG 1.1//EN" "http://www.w3.org/Graphics/SVG/1.1/DTD/svg11.dtd">
<svg width="64pt" height="64pt" viewBox="0 0 64 64" version="1.1" xmlns="http://www.w3.org/2000/svg">
<g id="#ffffffff">
<path fill="#ffffff" opacity="1.00" d=" M 0.00 0.00 L 64.00 0.00 L 64.00 64.00 L 0.00 64.00 L 0.00 0.00 M 22.49 8.42 C 20.07 10.10 18.99 13.12 19.14 15.99 C 19.18 27.32 19.08 38.65 19.19 49.97 C 19.17 54.14 23.13 56.99 26.93 57.55 C 31.19 58.06 35.76 58.49 39.79 56.68 C 42.80 55.45 44.91 52.32 44.84 49.05 C 44.88 42.34 44.86 35.63 44.85 28.92 C 45.17 26.53 43.15 24.70 41.12 23.91 C 37.60 22.53 33.70 22.93 30.12 23.85 C 30.23 21.00 29.97 18.11 30.43 15.28 C 31.65 15.16 32.87 15.32 34.09 15.46 C 34.07 17.37 34.04 19.29 34.02 21.20 C 37.63 21.20 41.25 21.20 44.86 21.20 C 44.82 18.53 45.05 15.82 44.64 13.17 C 43.86 9.21 39.98 6.69 36.18 6.25 C 31.58 5.71 26.46 5.70 22.49 8.42 Z" />
<path fill="#ffffff" opacity="1.00" d=" M 33.04 34.37 C 35.13 33.86 37.15 33.08 39.27 32.62 C 39.38 34.19 39.48 35.76 39.56 37.33 C 36.30 37.91 30.86 38.12 31.04 42.63 C 32.03 42.54 34.02 42.35 35.01 42.26 C 34.04 42.57 32.08 43.19 31.11 43.50 C 31.02 46.53 31.03 49.57 30.93 52.60 C 29.80 52.56 28.67 52.51 27.54 52.47 C 27.74 46.15 27.71 39.81 27.55 33.49 C 29.41 33.56 31.22 34.00 33.04 34.37 Z" />
</g>
<g id="#000000ff">
<path fill="#000000" opacity="1.00" d=" M 22.49 8.42 C 26.46 5.70 31.58 5.71 36.18 6.25 C 39.98 6.69 43.86 9.21 44.64 13.17 C 45.05 15.82 44.82 18.53 44.86 21.20 C 41.25 21.20 37.63 21.20 34.02 21.20 C 34.04 19.29 34.07 17.37 34.09 15.46 C 32.87 15.32 31.65 15.16 30.43 15.28 C 29.97 18.11 30.23 21.00 30.12 23.85 C 33.70 22.93 37.60 22.53 41.12 23.91 C 43.15 24.70 45.17 26.53 44.85 28.92 C 44.86 35.63 44.88 42.34 44.84 49.05 C 44.91 52.32 42.80 55.45 39.79 56.68 C 35.76 58.49 31.19 58.06 26.93 57.55 C 23.13 56.99 19.17 54.14 19.19 49.97 C 19.08 38.65 19.18 27.32 19.14 15.99 C 18.99 13.12 20.07 10.10 22.49 8.42 M 33.04 34.37 C 31.22 34.00 29.41 33.56 27.55 33.49 C 27.71 39.81 27.74 46.15 27.54 52.47 C 28.67 52.51 29.80 52.56 30.93 52.60 C 31.03 49.57 31.02 46.53 31.11 43.50 C 32.08 43.19 34.04 42.57 35.01 42.26 C 34.02 42.35 32.03 42.54 31.04 42.63 C 30.86 38.12 36.30 37.91 39.56 37.33 C 39.48 35.76 39.38 34.19 39.27 32.62 C 37.15 33.08 35.13 33.86 33.04 34.37 Z" />
</g>
</svg>
