<?xml version="1.0" encoding="UTF-8" ?>
<!DOCTYPE svg PUBLIC "-//W3C//DTD SVG 1.1//EN" "http://www.w3.org/Graphics/SVG/1.1/DTD/svg11.dtd">
<svg width="64pt" height="64pt" viewBox="0 0 64 64" version="1.1" xmlns="http://www.w3.org/2000/svg">
<g id="#ffffffff">
<path fill="#ffffff" opacity="1.00" d=" M 0.00 0.00 L 64.00 0.00 L 64.00 64.00 L 0.00 64.00 L 0.00 0.00 M 10.00 10.00 C 10.00 24.67 10.00 39.33 10.00 54.00 C 24.67 54.00 39.33 54.00 54.00 54.00 C 54.00 39.33 54.00 24.67 54.00 10.00 C 39.33 10.00 24.67 10.00 10.00 10.00 Z" />
<path fill="#ffffff" opacity="1.00" d=" M 14.00 14.00 C 26.00 14.00 38.00 14.00 50.00 14.00 C 50.00 26.00 50.00 38.00 50.00 50.00 C 38.00 50.00 26.00 50.00 14.00 50.00 C 14.00 38.00 14.00 26.00 14.00 14.00 M 21.45 18.58 C 16.10 21.08 16.84 30.91 22.96 31.90 C 26.90 32.74 30.54 28.92 30.03 25.04 C 30.75 20.50 25.66 16.36 21.45 18.58 M 39.19 18.00 C 32.79 27.33 26.40 36.66 20.00 46.00 C 21.60 46.00 23.21 46.00 24.81 46.00 C 31.21 36.67 37.60 27.33 44.00 18.00 C 42.40 18.00 40.79 18.00 39.19 18.00 M 37.38 32.62 C 32.10 35.17 32.87 44.92 38.96 45.90 C 42.91 46.74 46.55 42.90 46.03 39.01 C 46.74 34.45 41.58 30.32 37.38 32.62 Z" />
<path fill="#ffffff" opacity="1.00" d=" M 23.17 22.11 C 26.48 21.14 26.98 26.46 24.87 27.89 C 21.53 28.92 20.97 23.49 23.17 22.11 Z" />
<path fill="#ffffff" opacity="1.00" d=" M 39.17 36.09 C 42.72 34.99 43.25 41.76 40.01 42.04 C 37.28 41.77 37.29 37.36 39.17 36.09 Z" />
</g>
<g id="#000000ff">
<path fill="#000000" opacity="1.00" d=" M 10.00 10.00 C 24.67 10.00 39.33 10.00 54.00 10.00 C 54.00 24.67 54.00 39.33 54.00 54.00 C 39.33 54.00 24.67 54.00 10.00 54.00 C 10.00 39.33 10.00 24.67 10.00 10.00 M 14.00 14.00 C 14.00 26.00 14.00 38.00 14.00 50.00 C 26.00 50.00 38.00 50.00 50.00 50.00 C 50.00 38.00 50.00 26.00 50.00 14.00 C 38.00 14.00 26.00 14.00 14.00 14.00 Z" />
<path fill="#000000" opacity="1.00" d=" M 21.45 18.58 C 25.66 16.36 30.75 20.50 30.03 25.04 C 30.54 28.92 26.90 32.74 22.96 31.90 C 16.84 30.91 16.10 21.08 21.45 18.58 M 23.17 22.11 C 20.97 23.49 21.53 28.92 24.87 27.89 C 26.98 26.46 26.48 21.14 23.17 22.11 Z" />
<path fill="#000000" opacity="1.00" d=" M 39.19 18.00 C 40.79 18.00 42.40 18.00 44.00 18.00 C 37.60 27.33 31.21 36.67 24.81 46.00 C 23.21 46.00 21.60 46.00 20.00 46.00 C 26.40 36.66 32.79 27.33 39.19 18.00 Z" />
<path fill="#000000" opacity="1.00" d=" M 37.38 32.62 C 41.58 30.32 46.74 34.45 46.03 39.01 C 46.55 42.90 42.91 46.74 38.96 45.90 C 32.87 44.92 32.10 35.17 37.38 32.62 M 39.17 36.09 C 37.29 37.36 37.28 41.77 40.01 42.04 C 43.25 41.76 42.72 34.99 39.17 36.09 Z" />
</g>
</svg>
