<?xml version="1.0" encoding="UTF-8" ?>
<!DOCTYPE svg PUBLIC "-//W3C//DTD SVG 1.1//EN" "http://www.w3.org/Graphics/SVG/1.1/DTD/svg11.dtd">
<svg width="60pt" height="60pt" viewBox="0 0 60 60" version="1.1" xmlns="http://www.w3.org/2000/svg">
<g id="#ffffffff">
<path fill="#ffffff" opacity="1.00" d=" M 0.00 0.00 L 60.00 0.00 L 60.00 60.00 L 0.00 60.00 L 0.00 0.00 M 4.42 10.42 C 3.53 15.89 4.16 21.48 4.00 27.00 C 4.27 34.51 3.41 42.10 4.44 49.56 C 11.49 50.75 18.70 49.41 25.78 50.18 C 27.62 50.77 28.41 52.94 30.00 54.00 C 31.82 52.85 32.60 50.04 35.03 50.07 C 41.86 49.56 48.78 50.66 55.57 49.57 C 56.54 43.10 55.78 36.52 55.99 30.00 C 55.79 23.48 56.53 16.89 55.58 10.42 C 50.08 9.57 44.48 10.10 38.94 9.97 C 35.85 9.80 32.97 10.99 30.00 11.61 C 27.03 11.00 24.15 9.81 21.06 9.97 C 15.52 10.10 9.92 9.57 4.42 10.42 Z" />
<path fill="#ffffff" opacity="1.00" d=" M 8.13 14.14 C 13.69 13.89 19.29 13.76 24.84 14.20 C 27.74 14.35 28.08 17.68 28.02 19.92 C 27.94 28.71 28.16 37.50 27.91 46.28 C 21.32 45.82 14.72 46.20 8.13 45.87 C 7.89 35.31 7.89 24.70 8.13 14.14 Z" />
<path fill="#ffffff" opacity="1.00" d=" M 31.98 19.92 C 31.92 17.67 32.25 14.35 35.16 14.20 C 40.71 13.76 46.31 13.89 51.87 14.14 C 52.11 24.70 52.11 35.30 51.87 45.87 C 45.28 46.20 38.68 45.82 32.09 46.28 C 31.84 37.50 32.07 28.71 31.98 19.92 Z" />
</g>
<g id="#000000ff">
<path fill="#000000" opacity="1.00" d=" M 4.42 10.42 C 9.92 9.57 15.52 10.10 21.06 9.97 C 24.15 9.81 27.03 11.00 30.00 11.61 C 32.97 10.99 35.85 9.80 38.94 9.97 C 44.48 10.10 50.08 9.57 55.58 10.42 C 56.53 16.89 55.79 23.48 55.99 30.00 C 55.78 36.52 56.54 43.10 55.57 49.57 C 48.78 50.66 41.86 49.56 35.03 50.07 C 32.60 50.04 31.82 52.85 30.00 54.00 C 28.41 52.94 27.62 50.77 25.78 50.18 C 18.70 49.41 11.49 50.75 4.44 49.56 C 3.41 42.10 4.27 34.51 4.00 27.00 C 4.16 21.48 3.53 15.89 4.42 10.42 M 8.13 14.14 C 7.89 24.70 7.89 35.31 8.13 45.87 C 14.72 46.20 21.32 45.82 27.91 46.28 C 28.16 37.50 27.94 28.71 28.02 19.92 C 28.08 17.68 27.74 14.35 24.84 14.20 C 19.29 13.76 13.69 13.89 8.13 14.14 M 31.98 19.92 C 32.07 28.71 31.84 37.50 32.09 46.28 C 38.68 45.82 45.28 46.20 51.87 45.87 C 52.11 35.30 52.11 24.70 51.87 14.14 C 46.31 13.89 40.71 13.76 35.16 14.20 C 32.25 14.35 31.92 17.67 31.98 19.92 Z" />
</g>
</svg>
