<?xml version="1.0" encoding="UTF-8" ?>
<!DOCTYPE svg PUBLIC "-//W3C//DTD SVG 1.1//EN" "http://www.w3.org/Graphics/SVG/1.1/DTD/svg11.dtd">
<svg width="60pt" height="60pt" viewBox="0 0 60 60" version="1.1" xmlns="http://www.w3.org/2000/svg">
<g id="#ffffffff">
<path fill="#ffffff" opacity="1.00" d=" M 0.00 0.00 L 60.00 0.00 L 60.00 45.54 C 59.81 38.25 53.35 31.86 46.01 32.04 C 38.53 31.83 31.81 38.55 32.04 46.03 C 31.87 53.32 38.20 59.73 45.42 60.00 L 0.00 60.00 L 0.00 0.00 M 5.12 12.01 C 12.54 18.91 19.91 25.87 27.35 32.75 C 28.74 34.30 31.26 34.31 32.65 32.75 C 40.12 25.89 47.49 18.91 54.92 12.00 C 38.32 12.00 21.72 11.99 5.12 12.01 M 2.00 14.61 C 2.00 24.79 2.00 34.98 2.00 45.17 C 7.28 39.90 12.55 34.63 17.82 29.35 C 12.54 24.45 7.28 19.52 2.00 14.61 M 43.48 28.12 C 48.73 27.45 53.98 29.20 58.03 32.54 C 57.96 26.57 58.02 20.59 58.00 14.62 C 53.16 19.12 48.39 23.70 43.48 28.12 M 4.83 47.99 C 12.56 48.01 20.29 47.99 28.02 48.00 C 27.90 44.60 28.37 41.21 29.76 38.09 C 25.92 37.66 23.40 34.57 20.77 32.09 C 15.43 37.36 10.15 42.69 4.83 47.99 Z" />
<path fill="#ffffff" opacity="1.00" d=" M 51.21 40.16 C 53.12 39.23 54.99 41.94 53.39 43.35 C 50.60 46.25 47.84 49.21 44.80 51.84 C 42.42 52.38 41.17 49.69 39.58 48.44 C 38.16 47.43 37.25 45.19 39.11 44.11 C 41.36 43.57 42.53 45.96 44.02 47.15 C 46.45 44.85 48.62 42.27 51.21 40.16 Z" />
<path fill="#ffffff" opacity="1.00" d=" M 46.53 60.00 C 53.63 59.75 59.72 53.69 60.00 46.59 L 60.00 60.00 L 46.53 60.00 Z" />
</g>
<g id="#000000ff">
<path fill="#968176" opacity="1.00" d=" M 5.12 12.01 C 21.72 11.99 38.32 12.00 54.92 12.00 C 47.49 18.91 40.12 25.89 32.65 32.75 C 31.26 34.31 28.74 34.30 27.35 32.75 C 19.91 25.87 12.54 18.91 5.12 12.01 Z" />
<path fill="#968176" opacity="1.00" d=" M 2.00 14.61 C 7.28 19.52 12.54 24.45 17.82 29.35 C 12.55 34.63 7.28 39.90 2.00 45.17 C 2.00 34.98 2.00 24.79 2.00 14.61 Z" />
<path fill="#968176" opacity="1.00" d=" M 43.48 28.12 C 48.39 23.70 53.16 19.12 58.00 14.62 C 58.02 20.59 57.96 26.57 58.03 32.54 C 53.98 29.20 48.73 27.45 43.48 28.12 Z" />
<path fill="#968176" opacity="1.00" d=" M 4.83 47.99 C 10.15 42.69 15.43 37.36 20.77 32.09 C 23.40 34.57 25.92 37.66 29.76 38.09 C 28.37 41.21 27.90 44.60 28.02 48.00 C 20.29 47.99 12.56 48.01 4.83 47.99 Z" />
<path fill="#968176" opacity="1.00" d=" M 32.04 46.03 C 31.81 38.55 38.53 31.83 46.01 32.04 C 53.35 31.86 59.81 38.25 60.00 45.54 L 60.00 46.59 C 59.72 53.69 53.63 59.75 46.53 60.00 L 45.42 60.00 C 38.20 59.73 31.87 53.32 32.04 46.03 M 51.21 40.16 C 48.62 42.27 46.45 44.85 44.02 47.15 C 42.53 45.96 41.36 43.57 39.11 44.11 C 37.25 45.19 38.16 47.43 39.58 48.44 C 41.17 49.69 42.42 52.38 44.80 51.84 C 47.84 49.21 50.60 46.25 53.39 43.35 C 54.99 41.94 53.12 39.23 51.21 40.16 Z" />
</g>
</svg>
