<?xml version="1.0" encoding="UTF-8" ?>
<!DOCTYPE svg PUBLIC "-//W3C//DTD SVG 1.1//EN" "http://www.w3.org/Graphics/SVG/1.1/DTD/svg11.dtd">
<svg width="60pt" height="60pt" viewBox="0 0 60 60" version="1.1" xmlns="http://www.w3.org/2000/svg">
<g id="#ffffffff">
<path fill="#ffffff" opacity="1.00" d=" M 0.00 0.00 L 60.00 0.00 L 60.00 60.00 L 0.00 60.00 L 0.00 0.00 M 24.47 6.65 C 17.59 8.26 11.55 13.07 8.46 19.42 C 5.08 26.18 5.21 34.56 8.79 41.22 C 12.34 47.99 19.30 52.86 26.91 53.78 C 33.69 54.69 40.84 52.53 45.92 47.93 C 51.25 43.25 54.30 36.12 53.96 29.03 C 53.73 21.89 50.06 14.96 44.30 10.73 C 38.72 6.53 31.25 5.03 24.47 6.65 Z" />
<path fill="#ffffff" opacity="1.00" d=" M 36.56 17.99 C 37.89 18.00 39.22 18.01 40.56 18.02 C 40.56 18.78 40.57 20.31 40.57 21.07 C 42.86 21.97 44.86 23.57 45.35 26.11 C 44.55 26.11 42.96 26.10 42.16 26.10 C 41.14 25.34 40.49 23.74 38.97 23.94 C 37.03 23.30 34.18 25.88 36.44 27.43 C 39.36 28.84 44.06 28.28 45.28 32.00 C 46.33 35.36 43.62 38.18 40.57 38.99 C 40.57 39.74 40.55 41.24 40.55 41.99 C 39.22 41.99 37.89 42.00 36.56 42.00 C 36.55 40.98 36.54 39.95 36.52 38.93 C 34.00 38.21 31.93 36.53 31.42 33.84 C 32.23 33.83 33.84 33.82 34.65 33.81 C 36.05 36.65 42.07 37.19 41.82 33.21 C 39.28 30.67 34.27 32.05 32.47 28.47 C 30.90 25.24 33.38 21.94 36.52 21.11 C 36.54 20.07 36.55 19.03 36.56 17.99 Z" />
<path fill="#ffffff" opacity="1.00" d=" M 14.55 21.41 C 18.20 21.65 22.22 20.63 25.59 22.41 C 29.06 24.65 28.24 30.07 24.86 32.00 C 26.02 34.20 27.19 36.40 28.36 38.59 C 27.00 38.59 25.65 38.60 24.29 38.60 C 23.24 36.48 22.11 34.39 21.01 32.29 C 20.30 32.30 18.87 32.33 18.15 32.34 C 18.15 34.43 18.14 36.51 18.14 38.60 C 17.24 38.60 15.45 38.60 14.55 38.60 C 14.55 32.87 14.55 27.14 14.55 21.41 M 18.15 24.27 C 18.15 26.07 18.16 27.87 18.15 29.67 C 20.24 29.52 24.26 30.19 24.11 26.97 C 24.24 23.76 20.25 24.39 18.15 24.27 Z" />
</g>
<g id="#000000ff">
<path fill="#000000" opacity="1.00" d=" M 24.47 6.65 C 31.25 5.03 38.72 6.53 44.30 10.73 C 50.06 14.96 53.73 21.89 53.96 29.03 C 54.30 36.12 51.25 43.25 45.92 47.93 C 40.84 52.53 33.69 54.69 26.91 53.78 C 19.30 52.86 12.34 47.99 8.79 41.22 C 5.21 34.56 5.08 26.18 8.46 19.42 C 11.55 13.07 17.59 8.26 24.47 6.65 M 36.56 17.99 C 36.55 19.03 36.54 20.07 36.52 21.11 C 33.38 21.94 30.90 25.24 32.47 28.47 C 34.27 32.05 39.28 30.67 41.82 33.21 C 42.07 37.19 36.05 36.65 34.65 33.81 C 33.84 33.82 32.23 33.83 31.42 33.84 C 31.93 36.53 34.00 38.21 36.52 38.93 C 36.54 39.95 36.55 40.98 36.56 42.00 C 37.89 42.00 39.22 41.99 40.55 41.99 C 40.55 41.24 40.57 39.74 40.57 38.99 C 43.62 38.18 46.33 35.36 45.28 32.00 C 44.06 28.28 39.36 28.84 36.44 27.43 C 34.18 25.88 37.03 23.30 38.97 23.94 C 40.49 23.74 41.14 25.34 42.16 26.10 C 42.96 26.10 44.55 26.11 45.35 26.11 C 44.86 23.57 42.86 21.97 40.57 21.07 C 40.57 20.31 40.56 18.78 40.56 18.02 C 39.22 18.01 37.89 18.00 36.56 17.99 M 14.55 21.41 C 14.55 27.14 14.55 32.87 14.55 38.60 C 15.45 38.60 17.24 38.60 18.14 38.60 C 18.14 36.51 18.15 34.43 18.15 32.34 C 18.87 32.33 20.30 32.30 21.01 32.29 C 22.11 34.39 23.24 36.48 24.29 38.60 C 25.65 38.60 27.00 38.59 28.36 38.59 C 27.19 36.40 26.02 34.20 24.86 32.00 C 28.24 30.07 29.06 24.65 25.59 22.41 C 22.22 20.63 18.20 21.65 14.55 21.41 Z" />
<path fill="#000000" opacity="1.00" d=" M 18.15 24.27 C 20.25 24.39 24.24 23.76 24.11 26.97 C 24.26 30.19 20.24 29.52 18.15 29.67 C 18.16 27.87 18.15 26.07 18.15 24.27 Z" />
</g>
</svg>
