<?xml version="1.0" encoding="UTF-8" ?>
<!DOCTYPE svg PUBLIC "-//W3C//DTD SVG 1.1//EN" "http://www.w3.org/Graphics/SVG/1.1/DTD/svg11.dtd">
<svg width="64pt" height="64pt" viewBox="0 0 64 64" version="1.1" xmlns="http://www.w3.org/2000/svg">
<g id="#ffffffff">
<path fill="#ffffff" opacity="1.00" d=" M 0.00 0.00 L 64.00 0.00 L 64.00 64.00 L 0.00 64.00 L 0.00 0.00 M 10.00 10.00 C 10.00 24.67 10.00 39.33 10.00 54.00 C 16.67 54.00 23.33 54.00 30.00 54.00 C 30.00 48.66 30.01 43.33 29.99 38.00 C 28.66 38.00 27.34 38.00 26.01 38.00 C 26.00 42.00 26.00 46.00 26.00 50.00 C 22.00 50.01 18.00 50.00 14.00 50.00 C 14.00 38.00 14.00 26.00 14.00 14.00 C 18.00 13.99 22.00 13.99 26.00 14.01 C 26.00 18.00 26.00 22.00 26.01 26.00 C 27.34 26.00 28.66 26.00 29.99 26.00 C 30.01 20.67 30.00 15.34 30.00 10.00 C 23.33 10.00 16.67 10.00 10.00 10.00 M 34.00 10.00 C 34.00 15.34 33.99 20.67 34.01 26.00 C 35.34 26.00 36.66 26.00 37.99 26.00 C 38.00 22.00 38.00 18.00 38.00 14.01 C 42.00 13.99 46.00 14.00 50.00 14.00 C 50.00 26.00 50.00 38.00 50.00 50.00 C 46.00 50.00 42.00 50.01 38.00 49.99 C 38.00 46.00 38.00 42.00 37.99 38.00 C 36.66 38.00 35.34 38.00 34.01 38.00 C 33.99 43.33 34.00 48.66 34.00 54.00 C 40.67 54.00 47.33 54.00 54.00 54.00 C 54.00 39.33 54.00 24.67 54.00 10.00 C 47.33 10.00 40.67 10.00 34.00 10.00 M 42.12 26.01 C 42.06 27.34 42.00 28.67 41.95 30.00 C 36.02 29.93 30.08 30.14 24.16 29.92 C 22.33 29.15 20.54 27.19 18.42 28.31 C 15.24 29.37 15.25 34.62 18.42 35.68 C 20.54 36.81 22.33 34.84 24.16 34.08 C 30.07 33.84 35.99 34.10 41.91 33.98 C 41.97 34.91 42.10 36.77 42.16 37.70 C 44.18 35.88 46.08 33.94 47.98 32.00 C 46.02 30.01 44.06 28.03 42.12 26.01 Z" />
</g>
<g id="#000000ff">
<path fill="#000000" opacity="1.00" d=" M 10.00 10.00 C 16.67 10.00 23.33 10.00 30.00 10.00 C 30.00 15.34 30.01 20.67 29.99 26.00 C 28.66 26.00 27.34 26.00 26.01 26.00 C 26.00 22.00 26.00 18.00 26.00 14.01 C 22.00 13.99 18.00 13.99 14.00 14.00 C 14.00 26.00 14.00 38.00 14.00 50.00 C 18.00 50.00 22.00 50.01 26.00 50.00 C 26.00 46.00 26.00 42.00 26.01 38.00 C 27.34 38.00 28.66 38.00 29.99 38.00 C 30.01 43.33 30.00 48.66 30.00 54.00 C 23.33 54.00 16.67 54.00 10.00 54.00 C 10.00 39.33 10.00 24.67 10.00 10.00 Z" />
<path fill="#000000" opacity="1.00" d=" M 34.00 10.00 C 40.67 10.00 47.33 10.00 54.00 10.00 C 54.00 24.67 54.00 39.33 54.00 54.00 C 47.33 54.00 40.67 54.00 34.00 54.00 C 34.00 48.66 33.99 43.33 34.01 38.00 C 35.34 38.00 36.66 38.00 37.99 38.00 C 38.00 42.00 38.00 46.00 38.00 49.99 C 42.00 50.01 46.00 50.00 50.00 50.00 C 50.00 38.00 50.00 26.00 50.00 14.00 C 46.00 14.00 42.00 13.99 38.00 14.01 C 38.00 18.00 38.00 22.00 37.99 26.00 C 36.66 26.00 35.34 26.00 34.01 26.00 C 33.99 20.67 34.00 15.34 34.00 10.00 Z" />
<path fill="#000000" opacity="1.00" d=" M 42.12 26.01 C 44.06 28.03 46.02 30.01 47.98 32.00 C 46.08 33.94 44.18 35.88 42.16 37.70 C 42.10 36.77 41.97 34.91 41.91 33.98 C 35.99 34.10 30.07 33.84 24.16 34.08 C 22.33 34.84 20.54 36.81 18.42 35.68 C 15.25 34.62 15.24 29.37 18.42 28.31 C 20.54 27.19 22.33 29.15 24.16 29.92 C 30.08 30.14 36.02 29.93 41.95 30.00 C 42.00 28.67 42.06 27.34 42.12 26.01 Z" />
</g>
</svg>
