<?xml version="1.0" encoding="UTF-8" ?>
<!DOCTYPE svg PUBLIC "-//W3C//DTD SVG 1.1//EN" "http://www.w3.org/Graphics/SVG/1.1/DTD/svg11.dtd">
<svg width="64pt" height="64pt" viewBox="0 0 64 64" version="1.1" xmlns="http://www.w3.org/2000/svg">
<g id="#ffffffff">
<path fill="#ffffff" opacity="1.00" d=" M 0.00 0.00 L 64.00 0.00 L 64.00 64.00 L 0.00 64.00 L 0.00 0.00 M 26.45 8.63 C 18.26 10.44 11.51 17.01 9.09 24.98 C 6.63 32.59 8.48 41.35 13.66 47.42 C 19.17 54.07 28.43 57.35 36.90 55.47 C 46.30 53.63 54.03 45.60 55.61 36.16 C 57.28 27.38 53.38 17.96 46.24 12.67 C 40.68 8.44 33.21 7.08 26.45 8.63 Z" />
<path fill="#ffffff" opacity="1.00" d=" M 12.53 27.47 C 14.11 20.08 20.23 14.20 27.48 12.35 C 22.11 15.62 18.13 21.51 18.59 27.97 C 18.81 31.09 20.51 34.81 23.95 35.30 C 27.78 35.77 30.40 31.38 29.79 27.98 C 29.37 24.65 26.91 22.18 24.57 20.02 C 25.15 19.40 26.31 18.15 26.89 17.52 C 27.48 18.21 28.67 19.60 29.27 20.29 C 28.88 18.94 28.46 17.59 28.01 16.26 C 29.35 14.82 30.66 13.34 32.00 11.90 C 33.34 13.34 34.66 14.81 35.99 16.25 C 35.53 17.59 35.12 18.94 34.73 20.29 C 35.32 19.60 36.52 18.21 37.11 17.52 C 37.69 18.14 38.85 19.39 39.43 20.01 C 37.08 22.18 34.60 24.67 34.20 28.02 C 33.50 31.72 36.86 36.51 40.95 35.08 C 45.16 33.41 46.03 27.94 45.08 23.99 C 44.25 19.02 40.70 15.15 36.68 12.39 C 43.33 14.16 49.05 19.27 51.03 25.93 C 53.61 33.56 50.86 42.53 44.57 47.52 C 38.29 52.78 28.69 53.46 21.72 49.14 C 14.42 44.88 10.47 35.69 12.53 27.47 Z" />
<path fill="#ffffff" opacity="1.00" d=" M 22.94 23.90 C 25.08 25.82 27.49 29.63 24.17 31.73 C 22.51 29.43 22.33 26.59 22.94 23.90 Z" />
<path fill="#ffffff" opacity="1.00" d=" M 40.73 24.02 C 42.03 26.54 41.32 29.48 39.82 31.73 C 36.60 29.72 38.86 26.07 40.73 24.02 Z" />
</g>
<g id="#000000ff">
<path fill="#000000" opacity="1.00" d=" M 26.45 8.63 C 33.21 7.08 40.68 8.44 46.24 12.67 C 53.38 17.96 57.28 27.38 55.61 36.16 C 54.03 45.60 46.30 53.63 36.90 55.47 C 28.43 57.35 19.17 54.07 13.66 47.42 C 8.48 41.35 6.63 32.59 9.09 24.98 C 11.51 17.01 18.26 10.44 26.45 8.63 M 12.53 27.47 C 10.47 35.69 14.42 44.88 21.72 49.14 C 28.69 53.46 38.29 52.78 44.57 47.52 C 50.86 42.53 53.61 33.56 51.03 25.93 C 49.05 19.27 43.33 14.16 36.68 12.39 C 40.70 15.15 44.25 19.02 45.08 23.99 C 46.03 27.94 45.16 33.41 40.95 35.08 C 36.86 36.51 33.50 31.72 34.20 28.02 C 34.60 24.67 37.08 22.18 39.43 20.01 C 38.85 19.39 37.69 18.14 37.11 17.52 C 36.52 18.21 35.32 19.60 34.73 20.29 C 35.12 18.94 35.53 17.59 35.99 16.25 C 34.66 14.81 33.34 13.34 32.00 11.90 C 30.66 13.34 29.35 14.82 28.01 16.26 C 28.46 17.59 28.88 18.94 29.27 20.29 C 28.67 19.60 27.48 18.21 26.89 17.52 C 26.31 18.15 25.15 19.40 24.57 20.02 C 26.91 22.18 29.37 24.65 29.79 27.98 C 30.40 31.38 27.78 35.77 23.95 35.30 C 20.51 34.81 18.81 31.09 18.59 27.97 C 18.13 21.51 22.11 15.62 27.48 12.35 C 20.23 14.20 14.11 20.08 12.53 27.47 M 22.94 23.90 C 22.33 26.59 22.51 29.43 24.17 31.73 C 27.49 29.63 25.08 25.82 22.94 23.90 M 40.73 24.02 C 38.86 26.07 36.60 29.72 39.82 31.73 C 41.32 29.48 42.03 26.54 40.73 24.02 Z" />
</g>
</svg>
