<?xml version="1.0" encoding="UTF-8" ?>
<!DOCTYPE svg PUBLIC "-//W3C//DTD SVG 1.1//EN" "http://www.w3.org/Graphics/SVG/1.1/DTD/svg11.dtd">
<svg width="64pt" height="64pt" viewBox="0 0 64 64" version="1.1" xmlns="http://www.w3.org/2000/svg">
<g id="#ffffffff">
<path fill="#ffffff" opacity="1.00" d=" M 0.00 0.00 L 64.00 0.00 L 64.00 64.00 L 0.00 64.00 L 0.00 0.00 M 14.00 10.75 C 14.00 15.84 14.00 20.92 14.00 26.00 C 11.33 26.00 8.67 26.00 6.00 26.00 C 6.00 35.33 6.00 44.67 6.00 54.00 C 23.33 54.00 40.67 54.00 58.00 54.00 C 58.00 44.67 58.00 35.33 58.00 26.00 C 55.33 26.00 52.67 26.00 50.00 26.00 C 50.00 20.92 50.00 15.83 50.00 10.75 C 48.01 11.76 46.01 12.76 44.01 13.75 C 42.69 13.08 41.36 12.41 40.04 11.75 C 38.69 12.42 37.35 13.09 36.00 13.75 C 34.68 13.08 33.36 12.41 32.04 11.75 C 30.70 12.42 29.35 13.08 28.00 13.75 C 26.68 13.08 25.36 12.41 24.04 11.75 C 22.70 12.42 21.35 13.08 20.00 13.75 C 18.01 12.73 16.01 11.74 14.00 10.75 Z" />
<path fill="#ffffff" opacity="1.00" d=" M 17.97 17.48 C 20.11 18.61 22.13 17.19 24.04 16.29 C 25.36 16.94 26.68 17.59 28.00 18.24 C 29.34 17.58 30.67 16.92 32.00 16.25 C 33.33 16.92 34.66 17.58 36.00 18.24 C 37.32 17.59 38.64 16.94 39.96 16.29 C 41.87 17.19 43.89 18.61 46.03 17.47 C 45.97 22.98 46.01 28.49 46.00 34.00 C 36.67 34.00 27.33 34.00 18.00 34.00 C 17.99 28.49 18.03 22.99 17.97 17.48 Z" />
<path fill="#ffffff" opacity="1.00" d=" M 10.00 30.00 C 11.33 30.00 12.67 30.00 14.00 30.00 C 14.00 32.67 14.00 35.33 14.00 38.00 C 26.00 38.00 38.00 38.00 50.00 38.00 C 50.00 35.33 50.00 32.67 50.00 30.00 C 51.33 30.00 52.67 30.00 54.00 30.00 C 54.00 36.67 54.00 43.33 54.00 50.00 C 39.33 50.00 24.67 50.00 10.00 50.00 C 10.00 43.33 10.00 36.67 10.00 30.00 M 18.00 42.00 C 18.00 43.33 18.00 44.67 18.00 46.00 C 19.33 46.00 20.67 46.00 22.00 46.00 C 22.00 44.67 22.00 43.33 22.00 42.00 C 20.67 42.00 19.33 42.00 18.00 42.00 M 26.00 42.00 C 26.00 43.33 26.00 44.67 26.00 46.00 C 27.33 46.00 28.67 46.00 30.00 46.00 C 30.00 44.67 30.00 43.33 30.00 42.00 C 28.67 42.00 27.33 42.00 26.00 42.00 M 34.00 42.00 C 34.00 43.33 34.00 44.67 34.00 46.00 C 35.33 46.00 36.67 46.00 38.00 46.00 C 38.00 44.67 38.00 43.33 38.00 42.00 C 36.67 42.00 35.33 42.00 34.00 42.00 M 42.00 42.00 C 42.00 43.33 42.00 44.67 42.00 46.00 C 43.33 46.00 44.67 46.00 46.00 46.00 C 46.00 44.67 46.00 43.33 46.00 42.00 C 44.67 42.00 43.33 42.00 42.00 42.00 Z" />
</g>
<g id="#000000ff">
<path fill="#000000" opacity="1.00" d=" M 14.00 10.75 C 16.01 11.74 18.01 12.73 20.00 13.75 C 21.35 13.08 22.70 12.42 24.04 11.75 C 25.36 12.41 26.68 13.08 28.00 13.75 C 29.35 13.08 30.70 12.42 32.04 11.75 C 33.36 12.41 34.68 13.08 36.00 13.75 C 37.35 13.09 38.69 12.42 40.04 11.75 C 41.36 12.41 42.69 13.08 44.01 13.75 C 46.01 12.76 48.01 11.76 50.00 10.75 C 50.00 15.83 50.00 20.92 50.00 26.00 C 52.67 26.00 55.33 26.00 58.00 26.00 C 58.00 35.33 58.00 44.67 58.00 54.00 C 40.67 54.00 23.33 54.00 6.00 54.00 C 6.00 44.67 6.00 35.33 6.00 26.00 C 8.67 26.00 11.33 26.00 14.00 26.00 C 14.00 20.92 14.00 15.84 14.00 10.75 M 17.97 17.48 C 18.03 22.99 17.99 28.49 18.00 34.00 C 27.33 34.00 36.67 34.00 46.00 34.00 C 46.01 28.49 45.97 22.98 46.03 17.47 C 43.89 18.61 41.87 17.19 39.96 16.29 C 38.64 16.94 37.32 17.59 36.00 18.24 C 34.66 17.58 33.33 16.92 32.00 16.25 C 30.67 16.92 29.34 17.58 28.00 18.24 C 26.68 17.59 25.36 16.94 24.04 16.29 C 22.13 17.19 20.11 18.61 17.97 17.48 M 10.00 30.00 C 10.00 36.67 10.00 43.33 10.00 50.00 C 24.67 50.00 39.33 50.00 54.00 50.00 C 54.00 43.33 54.00 36.67 54.00 30.00 C 52.67 30.00 51.33 30.00 50.00 30.00 C 50.00 32.67 50.00 35.33 50.00 38.00 C 38.00 38.00 26.00 38.00 14.00 38.00 C 14.00 35.33 14.00 32.67 14.00 30.00 C 12.67 30.00 11.33 30.00 10.00 30.00 Z" />
<path fill="#000000" opacity="1.00" d=" M 18.00 42.00 C 19.33 42.00 20.67 42.00 22.00 42.00 C 22.00 43.33 22.00 44.67 22.00 46.00 C 20.67 46.00 19.33 46.00 18.00 46.00 C 18.00 44.67 18.00 43.33 18.00 42.00 Z" />
<path fill="#000000" opacity="1.00" d=" M 26.00 42.00 C 27.33 42.00 28.67 42.00 30.00 42.00 C 30.00 43.33 30.00 44.67 30.00 46.00 C 28.67 46.00 27.33 46.00 26.00 46.00 C 26.00 44.67 26.00 43.33 26.00 42.00 Z" />
<path fill="#000000" opacity="1.00" d=" M 34.00 42.00 C 35.33 42.00 36.67 42.00 38.00 42.00 C 38.00 43.33 38.00 44.67 38.00 46.00 C 36.67 46.00 35.33 46.00 34.00 46.00 C 34.00 44.67 34.00 43.33 34.00 42.00 Z" />
<path fill="#000000" opacity="1.00" d=" M 42.00 42.00 C 43.33 42.00 44.67 42.00 46.00 42.00 C 46.00 43.33 46.00 44.67 46.00 46.00 C 44.67 46.00 43.33 46.00 42.00 46.00 C 42.00 44.67 42.00 43.33 42.00 42.00 Z" />
</g>
</svg>
