<?xml version="1.0" encoding="UTF-8" ?>
<!DOCTYPE svg PUBLIC "-//W3C//DTD SVG 1.1//EN" "http://www.w3.org/Graphics/SVG/1.1/DTD/svg11.dtd">
<svg width="60pt" height="60pt" viewBox="0 0 60 60" version="1.1" xmlns="http://www.w3.org/2000/svg">
<g id="#ffffffff">
<path fill="#ffffff" opacity="1.00" d=" M 0.00 0.00 L 60.00 0.00 L 60.00 60.00 L 0.00 60.00 L 0.00 0.00 M 11.65 14.57 C 6.43 20.64 4.66 29.41 7.07 37.04 C 9.24 44.24 15.01 50.21 22.11 52.65 C 28.78 55.01 36.48 54.19 42.49 50.45 C 49.19 46.39 53.73 38.84 53.90 30.98 C 54.25 29.13 51.65 28.03 50.47 29.42 C 49.52 32.29 49.63 35.45 48.21 38.18 C 45.16 45.24 37.71 50.08 30.01 49.99 C 22.33 50.09 14.89 45.30 11.80 38.28 C 8.45 31.13 9.90 22.04 15.39 16.34 C 20.65 10.55 29.48 8.45 36.79 11.21 C 40.41 12.41 43.34 14.95 45.87 17.71 C 44.58 18.78 43.30 19.86 42.02 20.94 C 45.33 21.77 48.65 22.59 51.95 23.43 C 51.97 19.83 51.99 16.22 52.00 12.61 C 50.97 13.46 49.95 14.32 48.92 15.17 C 45.12 10.69 39.92 7.27 34.04 6.36 C 25.81 4.86 16.97 8.12 11.65 14.57 M 27.57 18.00 C 27.71 23.33 27.84 28.67 27.98 34.00 C 29.32 34.00 30.67 34.00 32.02 34.00 C 32.16 28.67 32.29 23.33 32.43 18.00 C 30.81 18.00 29.19 18.00 27.57 18.00 M 28.19 38.13 C 25.62 40.41 29.43 43.97 31.87 41.81 C 34.28 39.51 30.62 36.13 28.19 38.13 Z" />
</g>
<g id="#000000ff">
<path fill="#000000" opacity="1.00" d=" M 11.65 14.57 C 16.97 8.12 25.81 4.86 34.04 6.36 C 39.92 7.27 45.12 10.69 48.92 15.17 C 49.95 14.32 50.97 13.46 52.00 12.61 C 51.99 16.22 51.97 19.83 51.95 23.43 C 48.65 22.59 45.33 21.77 42.02 20.94 C 43.30 19.86 44.58 18.78 45.87 17.71 C 43.34 14.95 40.41 12.41 36.79 11.21 C 29.48 8.45 20.65 10.55 15.39 16.34 C 9.90 22.04 8.45 31.13 11.80 38.28 C 14.89 45.30 22.33 50.09 30.01 49.99 C 37.71 50.08 45.16 45.24 48.21 38.18 C 49.63 35.45 49.52 32.29 50.47 29.42 C 51.65 28.03 54.25 29.13 53.90 30.98 C 53.73 38.84 49.19 46.39 42.49 50.45 C 36.48 54.19 28.78 55.01 22.11 52.65 C 15.01 50.21 9.24 44.24 7.07 37.04 C 4.66 29.41 6.43 20.64 11.65 14.57 Z" />
<path fill="#000000" opacity="1.00" d=" M 27.57 18.00 C 29.19 18.00 30.81 18.00 32.43 18.00 C 32.29 23.33 32.16 28.67 32.02 34.00 C 30.67 34.00 29.32 34.00 27.98 34.00 C 27.84 28.67 27.71 23.33 27.57 18.00 Z" />
<path fill="#000000" opacity="1.00" d=" M 28.19 38.13 C 30.62 36.13 34.28 39.51 31.87 41.81 C 29.43 43.97 25.62 40.41 28.19 38.13 Z" />
</g>
</svg>
