<?xml version="1.0" encoding="UTF-8" ?>
<!DOCTYPE svg PUBLIC "-//W3C//DTD SVG 1.1//EN" "http://www.w3.org/Graphics/SVG/1.1/DTD/svg11.dtd">
<svg width="64pt" height="64pt" viewBox="0 0 64 64" version="1.1" xmlns="http://www.w3.org/2000/svg">
<g id="#ffffffff">
<path fill="#ffffff" opacity="1.00" d=" M 0.00 0.00 L 64.00 0.00 L 64.00 46.73 C 63.36 38.70 56.09 31.78 47.96 32.01 C 43.37 31.86 39.24 34.26 35.96 37.27 C 35.99 35.52 36.00 33.76 36.01 32.00 C 34.68 32.00 33.34 32.00 32.00 32.00 C 32.00 36.00 32.00 40.00 32.00 44.00 C 36.00 44.00 40.00 44.00 44.00 44.00 C 44.00 42.68 44.00 41.37 44.00 40.05 C 42.31 40.00 40.62 39.92 38.93 39.83 C 42.55 36.69 47.70 34.85 52.34 36.84 C 57.05 38.50 59.64 43.27 60.23 48.00 C 61.49 48.00 62.74 47.99 64.00 47.99 L 64.00 52.00 C 60.00 52.00 56.00 52.00 52.00 52.00 C 52.00 53.32 52.00 54.63 52.00 55.95 C 53.69 56.00 55.38 56.07 57.07 56.17 C 53.46 59.27 48.36 61.13 43.74 59.18 C 38.99 57.54 36.34 52.75 35.77 47.99 C 34.44 48.00 33.12 48.02 31.80 48.04 C 32.13 56.04 38.47 63.26 46.56 64.00 L 0.00 64.00 L 0.00 0.00 M 10.00 8.00 C 10.00 11.93 10.00 15.85 10.00 19.78 C 10.53 19.89 11.60 20.12 12.13 20.23 C 13.55 30.42 14.36 40.69 15.69 50.89 C 16.03 53.48 18.27 55.69 20.89 55.91 C 23.79 56.12 26.71 55.98 29.62 56.00 C 29.19 54.67 28.77 53.33 28.35 52.00 C 25.88 51.98 23.40 52.14 20.94 51.87 C 19.37 51.30 19.60 49.43 19.34 48.11 C 18.32 38.74 17.26 29.37 16.22 20.00 C 26.74 20.00 37.26 20.00 47.78 20.00 C 47.43 22.65 47.09 25.30 46.73 27.95 C 48.07 28.03 49.41 28.11 50.74 28.19 C 51.11 25.54 51.27 22.85 51.87 20.23 C 52.40 20.12 53.47 19.89 54.00 19.78 C 54.00 15.85 54.00 11.93 54.00 8.00 C 39.33 8.00 24.67 8.00 10.00 8.00 Z" />
<path fill="#ffffff" opacity="1.00" d=" M 14.00 12.00 C 26.00 12.00 38.00 12.00 50.00 12.00 C 50.00 13.33 50.00 14.67 50.00 16.00 C 38.00 16.00 26.00 16.00 14.00 16.00 C 14.00 14.67 14.00 13.33 14.00 12.00 Z" />
<path fill="#ffffff" opacity="1.00" d=" M 49.28 64.00 C 53.39 63.59 57.05 61.49 60.04 58.71 C 60.01 60.47 59.99 62.24 59.98 64.00 L 49.28 64.00 Z" />
</g>
<g id="#000000ff">
<path fill="#000000" opacity="1.00" d=" M 10.00 8.00 C 24.67 8.00 39.33 8.00 54.00 8.00 C 54.00 11.93 54.00 15.85 54.00 19.78 C 53.47 19.89 52.40 20.12 51.87 20.23 C 51.27 22.85 51.11 25.54 50.74 28.19 C 49.41 28.11 48.07 28.03 46.73 27.95 C 47.09 25.30 47.43 22.65 47.78 20.00 C 37.26 20.00 26.74 20.00 16.22 20.00 C 17.26 29.37 18.32 38.74 19.34 48.11 C 19.60 49.43 19.37 51.30 20.94 51.87 C 23.40 52.14 25.88 51.98 28.35 52.00 C 28.77 53.33 29.19 54.67 29.62 56.00 C 26.71 55.98 23.79 56.12 20.89 55.91 C 18.27 55.69 16.03 53.48 15.69 50.89 C 14.36 40.69 13.55 30.42 12.13 20.23 C 11.60 20.12 10.53 19.89 10.00 19.78 C 10.00 15.85 10.00 11.93 10.00 8.00 M 14.00 12.00 C 14.00 13.33 14.00 14.67 14.00 16.00 C 26.00 16.00 38.00 16.00 50.00 16.00 C 50.00 14.67 50.00 13.33 50.00 12.00 C 38.00 12.00 26.00 12.00 14.00 12.00 Z" />
<path fill="#000000" opacity="1.00" d=" M 32.00 32.00 C 33.34 32.00 34.68 32.00 36.01 32.00 C 36.00 33.76 35.99 35.52 35.96 37.27 C 39.24 34.26 43.37 31.86 47.96 32.01 C 56.09 31.78 63.36 38.70 64.00 46.73 L 64.00 47.99 C 62.74 47.99 61.49 48.00 60.23 48.00 C 59.64 43.27 57.05 38.50 52.34 36.84 C 47.70 34.85 42.55 36.69 38.93 39.83 C 40.62 39.92 42.31 40.00 44.00 40.05 C 44.00 41.37 44.00 42.68 44.00 44.00 C 40.00 44.00 36.00 44.00 32.00 44.00 C 32.00 40.00 32.00 36.00 32.00 32.00 Z" />
<path fill="#000000" opacity="1.00" d=" M 31.80 48.04 C 33.12 48.02 34.44 48.00 35.77 47.99 C 36.34 52.75 38.99 57.54 43.74 59.18 C 48.36 61.13 53.46 59.27 57.07 56.17 C 55.38 56.07 53.69 56.00 52.00 55.95 C 52.00 54.63 52.00 53.32 52.00 52.00 C 56.00 52.00 60.00 52.00 64.00 52.00 L 64.00 64.00 L 59.98 64.00 C 59.99 62.24 60.01 60.47 60.04 58.71 C 57.05 61.49 53.39 63.59 49.28 64.00 L 46.56 64.00 C 38.47 63.26 32.13 56.04 31.80 48.04 Z" />
</g>
</svg>
