<?xml version="1.0" encoding="UTF-8" ?>
<!DOCTYPE svg PUBLIC "-//W3C//DTD SVG 1.1//EN" "http://www.w3.org/Graphics/SVG/1.1/DTD/svg11.dtd">
<svg width="64pt" height="64pt" viewBox="0 0 64 64" version="1.1" xmlns="http://www.w3.org/2000/svg">
<g id="#ffffffff">
<path fill="#ffffff" opacity="1.00" d=" M 0.00 0.00 L 64.00 0.00 L 64.00 64.00 L 0.00 64.00 L 0.00 0.00 M 26.72 10.71 C 24.63 13.78 22.86 17.05 20.88 20.19 C 22.03 20.87 23.17 21.56 24.31 22.25 C 26.25 19.20 28.00 16.02 30.02 13.02 C 30.82 11.47 33.22 11.43 34.04 13.00 C 36.26 16.27 38.23 19.73 40.37 23.06 C 39.38 23.64 38.39 24.21 37.40 24.79 C 40.47 26.53 43.56 28.25 46.62 30.00 C 46.62 26.46 46.63 22.91 46.61 19.37 C 45.92 19.79 44.52 20.64 43.83 21.06 C 41.37 17.52 39.44 13.63 36.86 10.18 C 34.34 7.03 28.90 7.32 26.72 10.71 M 11.83 29.38 C 12.45 29.75 13.69 30.51 14.30 30.88 C 12.46 34.08 10.33 37.13 8.64 40.42 C 6.75 44.27 9.69 49.32 13.88 49.85 C 17.91 50.20 21.96 49.91 26.00 50.00 C 26.00 48.67 26.00 47.33 26.00 46.00 C 22.31 45.95 18.62 46.10 14.93 45.95 C 13.03 46.14 11.19 43.95 12.18 42.16 C 13.83 38.97 15.92 36.03 17.75 32.94 C 18.51 33.41 20.04 34.34 20.80 34.81 C 20.82 31.27 20.81 27.73 20.81 24.19 C 17.83 25.95 14.83 27.67 11.83 29.38 M 46.69 33.42 C 48.40 36.35 50.43 39.08 51.96 42.10 C 52.81 43.97 51.06 46.18 49.08 45.97 C 45.39 46.08 41.69 45.96 38.00 46.00 C 38.00 44.67 38.00 43.34 38.00 42.00 C 34.73 44.00 31.46 45.99 28.20 48.00 C 31.47 50.00 34.75 51.96 37.99 54.00 C 38.00 52.67 38.00 51.33 38.00 50.00 C 43.66 49.26 51.67 52.31 55.20 46.29 C 58.07 40.67 52.49 35.94 50.13 31.32 C 48.98 32.02 47.84 32.72 46.69 33.42 Z" />
</g>
<g id="#000000ff">
<path fill="#000000" opacity="1.00" d=" M 26.72 10.71 C 28.90 7.32 34.34 7.03 36.86 10.18 C 39.44 13.63 41.37 17.52 43.83 21.06 C 44.52 20.64 45.92 19.79 46.61 19.37 C 46.63 22.91 46.62 26.46 46.62 30.00 C 43.56 28.25 40.47 26.53 37.40 24.79 C 38.39 24.21 39.38 23.64 40.37 23.06 C 38.23 19.73 36.26 16.27 34.04 13.00 C 33.22 11.43 30.82 11.47 30.02 13.02 C 28.00 16.02 26.25 19.20 24.31 22.25 C 23.17 21.56 22.03 20.87 20.88 20.19 C 22.86 17.05 24.63 13.78 26.72 10.71 Z" />
<path fill="#000000" opacity="1.00" d=" M 11.83 29.38 C 14.83 27.67 17.83 25.95 20.81 24.19 C 20.81 27.73 20.82 31.27 20.80 34.81 C 20.04 34.34 18.51 33.41 17.75 32.94 C 15.92 36.03 13.83 38.97 12.18 42.16 C 11.19 43.95 13.03 46.14 14.93 45.95 C 18.62 46.10 22.31 45.95 26.00 46.00 C 26.00 47.33 26.00 48.67 26.00 50.00 C 21.96 49.91 17.91 50.20 13.88 49.85 C 9.69 49.32 6.75 44.27 8.64 40.42 C 10.33 37.13 12.46 34.08 14.30 30.88 C 13.69 30.51 12.45 29.75 11.83 29.38 Z" />
<path fill="#000000" opacity="1.00" d=" M 46.69 33.42 C 47.84 32.72 48.98 32.02 50.13 31.32 C 52.49 35.94 58.07 40.67 55.20 46.29 C 51.67 52.31 43.66 49.26 38.00 50.00 C 38.00 51.33 38.00 52.67 37.99 54.00 C 34.75 51.96 31.47 50.00 28.20 48.00 C 31.46 45.99 34.73 44.00 38.00 42.00 C 38.00 43.34 38.00 44.67 38.00 46.00 C 41.69 45.96 45.39 46.08 49.08 45.97 C 51.06 46.18 52.81 43.97 51.96 42.10 C 50.43 39.08 48.40 36.35 46.69 33.42 Z" />
</g>
</svg>
