<?xml version="1.0" encoding="UTF-8" ?>
<!DOCTYPE svg PUBLIC "-//W3C//DTD SVG 1.1//EN" "http://www.w3.org/Graphics/SVG/1.1/DTD/svg11.dtd">
<svg width="64pt" height="64pt" viewBox="0 0 64 64" version="1.1" xmlns="http://www.w3.org/2000/svg">
<g id="#ffffffff">
<path fill="#ffffff" opacity="1.00" d=" M 0.00 0.00 L 64.00 0.00 L 64.00 64.00 L 0.00 64.00 L 0.00 0.00 M 33.22 9.25 C 28.90 12.03 30.16 17.70 30.00 22.02 C 25.03 22.43 20.10 23.59 15.70 25.99 C 13.35 24.66 10.68 23.46 7.92 24.20 C 3.87 24.81 1.45 29.24 2.11 33.09 C 2.33 35.66 4.13 37.62 5.86 39.36 C 5.89 46.11 10.75 51.74 16.62 54.52 C 26.80 59.47 39.60 59.22 49.38 53.40 C 54.36 50.49 58.06 45.26 58.14 39.37 C 61.65 36.57 63.29 31.32 60.71 27.35 C 58.08 23.18 52.06 23.24 48.41 25.98 C 43.94 23.67 39.01 22.41 34.00 22.03 C 34.04 19.36 33.79 16.66 34.23 14.01 C 34.65 12.43 36.59 11.70 38.05 12.15 C 41.41 12.99 44.66 14.20 48.09 14.73 C 49.53 16.95 52.19 18.90 54.91 17.61 C 58.62 16.27 59.04 10.56 55.54 8.71 C 53.01 7.02 50.03 8.59 48.32 10.66 C 43.29 10.38 38.05 6.03 33.22 9.25 Z" />
<path fill="#ffffff" opacity="1.00" d=" M 25.47 26.65 C 32.95 25.18 41.10 26.17 47.64 30.23 C 51.00 32.37 54.02 35.85 53.98 40.03 C 53.97 44.45 50.63 48.02 47.02 50.15 C 40.15 54.15 31.67 54.88 24.02 53.02 C 19.02 51.71 13.90 49.16 11.22 44.54 C 9.42 41.48 9.69 37.47 11.74 34.61 C 14.87 30.08 20.26 27.81 25.47 26.65 M 20.42 32.34 C 15.56 34.19 19.02 42.05 23.66 39.61 C 28.36 37.72 25.00 30.06 20.42 32.34 M 40.37 32.37 C 35.57 34.27 39.05 42.02 43.65 39.61 C 48.41 37.71 44.95 29.99 40.37 32.37 M 21.26 43.50 C 23.67 47.60 28.23 50.54 33.12 49.93 C 37.30 49.68 40.77 46.80 42.66 43.19 C 36.39 47.70 27.75 47.40 21.26 43.50 Z" />
<path fill="#ffffff" opacity="1.00" d=" M 6.69 29.49 C 7.72 27.60 10.19 28.19 11.95 28.08 C 10.08 30.24 8.30 32.49 6.83 34.94 C 6.33 33.18 5.56 31.19 6.69 29.49 Z" />
<path fill="#ffffff" opacity="1.00" d=" M 52.06 28.14 C 53.84 28.16 56.26 27.62 57.30 29.48 C 58.42 31.19 57.68 33.18 57.17 34.95 C 55.71 32.51 53.95 30.26 52.06 28.14 Z" />
</g>
<g id="#000000ff">
<path fill="#000000" opacity="1.00" d=" M 33.22 9.25 C 38.05 6.03 43.29 10.38 48.32 10.66 C 50.03 8.59 53.01 7.02 55.54 8.71 C 59.04 10.56 58.62 16.27 54.91 17.61 C 52.19 18.90 49.53 16.95 48.09 14.73 C 44.66 14.20 41.41 12.99 38.05 12.15 C 36.59 11.70 34.65 12.43 34.23 14.01 C 33.79 16.66 34.04 19.36 34.00 22.03 C 39.01 22.41 43.94 23.67 48.41 25.98 C 52.06 23.24 58.08 23.18 60.71 27.35 C 63.29 31.32 61.65 36.57 58.14 39.37 C 58.06 45.26 54.36 50.49 49.38 53.40 C 39.60 59.22 26.80 59.47 16.62 54.52 C 10.75 51.74 5.89 46.11 5.86 39.36 C 4.13 37.62 2.33 35.66 2.11 33.09 C 1.45 29.24 3.87 24.81 7.92 24.20 C 10.68 23.46 13.35 24.66 15.70 25.99 C 20.10 23.59 25.03 22.43 30.00 22.02 C 30.16 17.70 28.90 12.03 33.22 9.25 M 25.47 26.65 C 20.26 27.81 14.87 30.08 11.74 34.61 C 9.69 37.47 9.42 41.48 11.22 44.54 C 13.90 49.16 19.02 51.71 24.02 53.02 C 31.67 54.88 40.15 54.15 47.02 50.15 C 50.63 48.02 53.97 44.45 53.98 40.03 C 54.02 35.85 51.00 32.37 47.64 30.23 C 41.10 26.17 32.95 25.18 25.47 26.65 M 6.69 29.49 C 5.56 31.19 6.33 33.18 6.83 34.94 C 8.30 32.49 10.08 30.24 11.95 28.08 C 10.19 28.19 7.72 27.60 6.69 29.49 M 52.06 28.14 C 53.95 30.26 55.71 32.51 57.17 34.95 C 57.68 33.18 58.42 31.19 57.30 29.48 C 56.26 27.62 53.84 28.16 52.06 28.14 Z" />
<path fill="#000000" opacity="1.00" d=" M 20.42 32.34 C 25.00 30.06 28.36 37.72 23.66 39.61 C 19.02 42.05 15.56 34.19 20.42 32.34 Z" />
<path fill="#000000" opacity="1.00" d=" M 40.37 32.37 C 44.95 29.99 48.41 37.71 43.65 39.61 C 39.05 42.02 35.57 34.27 40.37 32.37 Z" />
<path fill="#000000" opacity="1.00" d=" M 21.26 43.50 C 27.75 47.40 36.39 47.70 42.66 43.19 C 40.77 46.80 37.30 49.68 33.12 49.93 C 28.23 50.54 23.67 47.60 21.26 43.50 Z" />
</g>
</svg>
