<?xml version="1.0" encoding="UTF-8" ?>
<!DOCTYPE svg PUBLIC "-//W3C//DTD SVG 1.1//EN" "http://www.w3.org/Graphics/SVG/1.1/DTD/svg11.dtd">
<svg width="64pt" height="64pt" viewBox="0 0 64 64" version="1.1" xmlns="http://www.w3.org/2000/svg">
<g id="#ffffffff">
<path fill="#ffffff" opacity="1.00" d=" M 0.00 0.00 L 64.00 0.00 L 64.00 64.00 L 0.00 64.00 L 0.00 0.00 M 32.31 11.92 C 31.08 12.73 29.80 14.77 28.11 13.89 C 26.05 13.47 23.35 11.39 21.77 13.80 C 19.99 17.29 18.83 21.11 18.00 24.94 C 19.39 27.72 22.00 29.62 24.55 31.26 C 30.58 34.86 37.89 36.91 44.89 35.52 C 47.40 35.06 49.67 32.66 48.87 29.98 C 48.07 26.02 47.68 21.80 45.92 18.14 C 42.16 14.79 37.16 13.05 32.31 11.92 M 6.19 31.04 C 5.30 36.09 9.80 39.88 13.44 42.57 C 23.21 49.09 35.24 52.97 47.04 51.66 C 51.84 51.16 57.33 48.34 57.89 43.03 C 58.67 37.71 53.84 34.05 49.75 31.77 C 50.32 35.01 50.11 39.15 46.57 40.59 C 39.32 43.65 30.91 41.31 24.26 37.77 C 20.16 35.32 14.87 31.50 16.32 26.01 C 12.65 26.48 7.40 26.71 6.19 31.04 Z" />
</g>
<g id="#000000ff">
<path fill="#000000" opacity="1.00" d=" M 32.31 11.92 C 37.16 13.05 42.16 14.79 45.92 18.14 C 47.68 21.80 48.07 26.02 48.87 29.98 C 49.67 32.66 47.40 35.06 44.89 35.52 C 37.89 36.91 30.58 34.86 24.55 31.26 C 22.00 29.62 19.39 27.72 18.00 24.94 C 18.83 21.11 19.99 17.29 21.77 13.80 C 23.35 11.39 26.05 13.47 28.11 13.89 C 29.80 14.77 31.08 12.73 32.31 11.92 Z" />
<path fill="#000000" opacity="1.00" d=" M 6.19 31.04 C 7.40 26.71 12.65 26.48 16.32 26.01 C 14.87 31.50 20.16 35.32 24.26 37.77 C 30.91 41.31 39.32 43.65 46.57 40.59 C 50.11 39.15 50.32 35.01 49.75 31.77 C 53.84 34.05 58.67 37.71 57.89 43.03 C 57.33 48.34 51.84 51.16 47.04 51.66 C 35.24 52.97 23.21 49.09 13.44 42.57 C 9.80 39.88 5.30 36.09 6.19 31.04 Z" />
</g>
</svg>
