<?xml version="1.0" encoding="UTF-8" ?>
<!DOCTYPE svg PUBLIC "-//W3C//DTD SVG 1.1//EN" "http://www.w3.org/Graphics/SVG/1.1/DTD/svg11.dtd">
<svg width="60pt" height="60pt" viewBox="0 0 60 60" version="1.1" xmlns="http://www.w3.org/2000/svg">
<g id="#ffffffff">
<path fill="#ffffff" opacity="1.00" d=" M 0.00 0.00 L 60.00 0.00 L 60.00 28.02 C 57.98 28.02 55.97 27.99 53.96 27.99 C 53.20 20.46 48.93 13.36 42.40 9.48 C 33.91 4.18 22.08 5.04 14.56 11.67 C 12.27 12.93 14.84 16.65 16.76 14.83 C 21.79 10.84 28.53 8.90 34.85 10.60 C 42.93 12.47 49.03 19.80 49.99 27.96 C 48.00 27.97 46.00 28.02 44.01 28.01 C 46.69 31.99 49.32 36.01 52.00 39.99 C 54.66 36.00 57.33 32.01 60.00 28.03 L 60.00 60.00 L 0.00 60.00 L 0.00 31.99 C 2.01 31.99 4.03 32.01 6.04 32.01 C 6.79 39.51 11.05 46.61 17.56 50.49 C 26.06 55.84 37.93 54.94 45.47 48.29 C 47.69 47.03 45.18 43.44 43.31 45.12 C 38.44 48.92 32.05 51.00 25.90 49.57 C 17.48 47.97 10.96 40.47 10.00 32.04 C 12.01 32.03 14.01 31.98 16.02 31.99 C 13.34 28.00 10.67 24.00 8.00 20.01 C 5.34 24.00 2.66 27.99 0.00 31.99 L 0.00 0.00 Z" />
</g>
<g id="#000000ff">
<path fill="#000000" opacity="1.00" d=" M 14.56 11.67 C 22.08 5.04 33.91 4.18 42.40 9.48 C 48.93 13.36 53.20 20.46 53.96 27.99 C 55.97 27.99 57.98 28.02 60.00 28.02 L 60.00 28.03 C 57.33 32.01 54.66 36.00 52.00 39.99 C 49.32 36.01 46.69 31.99 44.01 28.01 C 46.00 28.02 48.00 27.97 49.99 27.96 C 49.03 19.80 42.93 12.47 34.85 10.60 C 28.53 8.90 21.79 10.84 16.76 14.83 C 14.84 16.65 12.27 12.93 14.56 11.67 Z" />
<path fill="#000000" opacity="1.00" d=" M 0.00 31.99 C 2.66 27.99 5.34 24.00 8.00 20.01 C 10.67 24.00 13.34 28.00 16.02 31.99 C 14.01 31.98 12.01 32.03 10.00 32.04 C 10.96 40.47 17.48 47.97 25.90 49.57 C 32.05 51.00 38.44 48.92 43.31 45.12 C 45.18 43.44 47.69 47.03 45.47 48.29 C 37.93 54.94 26.06 55.84 17.56 50.49 C 11.05 46.61 6.79 39.51 6.04 32.01 C 4.03 32.01 2.01 31.99 0.00 31.99 L 0.00 31.99 Z" />
</g>
</svg>
