<?xml version="1.0" encoding="UTF-8" ?>
<!DOCTYPE svg PUBLIC "-//W3C//DTD SVG 1.1//EN" "http://www.w3.org/Graphics/SVG/1.1/DTD/svg11.dtd">
<svg width="64pt" height="64pt" viewBox="0 0 64 64" version="1.1" xmlns="http://www.w3.org/2000/svg">
<g id="#ffffffff">
<path fill="#ffffff" opacity="1.00" d=" M 0.00 0.00 L 64.00 0.00 L 64.00 64.00 L 0.00 64.00 L 0.00 0.00 M 24.66 15.99 C 20.46 16.00 16.27 16.00 12.08 16.00 C 11.98 17.60 12.13 19.25 11.70 20.81 C 10.54 23.56 7.73 25.72 8.00 28.94 C 8.12 35.89 7.73 42.87 8.20 49.79 C 9.32 52.08 9.98 54.58 11.18 56.81 C 14.25 59.05 18.46 57.60 22.00 57.99 C 22.00 56.66 22.00 55.33 22.00 54.00 C 19.33 54.00 16.67 54.00 14.00 54.00 C 14.00 52.67 14.00 51.33 14.00 50.00 C 16.67 50.00 19.33 50.00 22.00 50.00 C 22.00 48.67 22.00 47.33 22.00 46.00 C 18.67 46.00 15.33 46.00 12.00 46.00 C 12.00 40.67 12.00 35.33 12.00 30.00 C 13.33 30.00 14.67 30.00 16.00 30.00 C 16.00 28.66 16.00 27.32 16.00 25.98 C 15.35 26.00 14.06 26.02 13.41 26.03 C 14.59 24.13 15.61 22.13 16.30 20.01 C 21.43 20.00 26.55 19.99 31.68 20.01 C 32.42 22.13 33.44 24.13 34.66 26.01 C 29.77 26.00 24.89 26.00 20.00 26.00 C 20.00 27.33 20.00 28.67 20.00 30.00 C 25.33 30.00 30.67 30.00 36.00 30.00 C 36.00 31.33 36.00 32.67 36.00 34.00 C 37.34 34.00 38.67 34.00 40.01 34.00 C 39.94 30.56 40.67 26.69 38.16 23.88 C 36.29 21.66 35.70 18.85 35.92 16.00 C 33.60 16.00 31.28 16.00 28.96 16.00 C 29.76 14.00 30.55 12.00 31.35 10.01 C 34.23 10.01 37.12 9.99 40.00 10.00 C 40.00 8.67 40.00 7.33 40.00 6.00 C 36.21 6.00 32.43 6.00 28.64 6.00 C 27.32 9.33 25.98 12.66 24.66 15.99 M 29.48 38.56 C 27.47 39.50 26.02 41.59 26.05 43.84 C 25.93 47.27 25.92 50.71 26.06 54.14 C 26.02 56.64 28.62 58.34 30.95 58.00 C 38.30 57.91 45.67 58.22 53.01 57.84 C 56.51 56.94 56.06 52.81 56.03 50.02 C 55.75 46.63 56.91 42.50 54.26 39.81 C 51.60 37.07 47.42 38.24 44.03 37.99 C 39.20 38.29 34.19 37.35 29.48 38.56 Z" />
<path fill="#ffffff" opacity="1.00" d=" M 29.78 45.98 C 30.14 44.63 29.83 41.88 31.96 42.07 C 37.99 41.94 44.03 41.94 50.07 42.07 C 52.17 41.91 51.84 44.64 52.22 45.98 C 44.74 46.02 37.26 46.01 29.78 45.98 Z" />
<path fill="#ffffff" opacity="1.00" d=" M 30.00 50.00 C 33.16 50.01 36.32 49.99 39.49 50.00 C 40.34 50.56 41.34 52.84 42.57 51.69 C 43.35 51.09 44.15 50.50 44.96 49.94 C 46.17 50.61 47.31 51.40 48.39 52.27 C 49.42 51.18 50.48 50.10 51.89 49.53 C 51.96 51.02 52.00 52.51 52.03 54.00 C 44.69 54.00 37.34 54.00 30.00 54.00 C 30.00 52.67 30.00 51.33 30.00 50.00 Z" />
</g>
<g id="#000000ff">
<path fill="#000000" opacity="1.00" d=" M 24.66 15.99 C 25.98 12.66 27.32 9.33 28.64 6.00 C 32.43 6.00 36.21 6.00 40.00 6.00 C 40.00 7.33 40.00 8.67 40.00 10.00 C 37.12 9.99 34.23 10.01 31.35 10.01 C 30.55 12.00 29.76 14.00 28.96 16.00 C 31.28 16.00 33.60 16.00 35.92 16.00 C 35.70 18.85 36.29 21.66 38.16 23.88 C 40.67 26.69 39.94 30.56 40.01 34.00 C 38.67 34.00 37.34 34.00 36.00 34.00 C 36.00 32.67 36.00 31.33 36.00 30.00 C 30.67 30.00 25.33 30.00 20.00 30.00 C 20.00 28.67 20.00 27.33 20.00 26.00 C 24.89 26.00 29.77 26.00 34.66 26.01 C 33.44 24.13 32.42 22.13 31.68 20.01 C 26.55 19.99 21.43 20.00 16.30 20.01 C 15.61 22.13 14.59 24.13 13.41 26.03 C 14.06 26.02 15.35 26.00 16.00 25.98 C 16.00 27.32 16.00 28.66 16.00 30.00 C 14.67 30.00 13.33 30.00 12.00 30.00 C 12.00 35.33 12.00 40.67 12.00 46.00 C 15.33 46.00 18.67 46.00 22.00 46.00 C 22.00 47.33 22.00 48.67 22.00 50.00 C 19.33 50.00 16.67 50.00 14.00 50.00 C 14.00 51.33 14.00 52.67 14.00 54.00 C 16.67 54.00 19.33 54.00 22.00 54.00 C 22.00 55.33 22.00 56.66 22.00 57.99 C 18.46 57.60 14.25 59.05 11.18 56.81 C 9.98 54.58 9.32 52.08 8.20 49.79 C 7.73 42.87 8.12 35.89 8.00 28.94 C 7.73 25.72 10.54 23.56 11.70 20.81 C 12.13 19.25 11.98 17.60 12.08 16.00 C 16.27 16.00 20.46 16.00 24.66 15.99 Z" />
<path fill="#000000" opacity="1.00" d=" M 29.48 38.56 C 34.19 37.35 39.20 38.29 44.03 37.99 C 47.42 38.24 51.60 37.07 54.26 39.81 C 56.91 42.50 55.75 46.63 56.03 50.02 C 56.06 52.81 56.51 56.94 53.01 57.84 C 45.67 58.22 38.30 57.91 30.95 58.00 C 28.62 58.34 26.02 56.64 26.06 54.14 C 25.92 50.71 25.93 47.27 26.05 43.84 C 26.02 41.59 27.47 39.50 29.48 38.56 M 29.78 45.98 C 37.26 46.01 44.74 46.02 52.22 45.98 C 51.84 44.64 52.17 41.91 50.07 42.07 C 44.03 41.94 37.99 41.94 31.96 42.07 C 29.83 41.88 30.14 44.63 29.78 45.98 M 30.00 50.00 C 30.00 51.33 30.00 52.67 30.00 54.00 C 37.34 54.00 44.69 54.00 52.03 54.00 C 52.00 52.51 51.96 51.02 51.89 49.53 C 50.48 50.10 49.42 51.18 48.39 52.27 C 47.31 51.40 46.17 50.61 44.96 49.94 C 44.15 50.50 43.35 51.09 42.57 51.69 C 41.34 52.84 40.34 50.56 39.49 50.00 C 36.32 49.99 33.16 50.01 30.00 50.00 Z" />
</g>
</svg>
