<?xml version="1.0" encoding="UTF-8" ?>
<!DOCTYPE svg PUBLIC "-//W3C//DTD SVG 1.1//EN" "http://www.w3.org/Graphics/SVG/1.1/DTD/svg11.dtd">
<svg width="60pt" height="60pt" viewBox="0 0 60 60" version="1.1" xmlns="http://www.w3.org/2000/svg">
<g id="#ffffffff">
<path fill="#ffffff" opacity="1.00" d=" M 0.00 0.00 L 60.00 0.00 L 60.00 60.00 L 0.00 60.00 L 0.00 0.00 M 19.66 6.60 C 12.59 10.31 7.84 18.12 8.04 26.13 C 7.94 28.52 9.78 30.19 11.41 31.63 C 9.18 37.76 7.64 44.33 8.19 50.88 C 8.98 52.71 12.05 52.13 11.91 50.06 C 12.18 44.84 12.83 39.64 14.41 34.64 C 13.67 41.38 14.01 48.34 16.23 54.79 C 16.78 56.87 20.44 56.00 19.87 53.92 C 19.00 49.60 18.00 45.28 17.97 40.84 C 20.22 45.51 24.41 50.03 29.98 49.96 C 35.56 50.04 39.77 45.53 42.03 40.85 C 42.00 45.31 40.98 49.63 40.12 53.97 C 39.63 56.04 43.22 56.84 43.77 54.79 C 45.98 48.32 46.33 41.36 45.58 34.60 C 47.15 39.61 47.82 44.82 48.09 50.05 C 47.87 52.58 52.11 52.57 51.93 50.07 C 52.13 43.77 50.77 37.51 48.59 31.62 C 49.94 30.33 51.61 29.07 51.86 27.07 C 52.60 18.76 47.65 10.45 40.34 6.61 C 34.02 3.15 25.98 3.16 19.66 6.60 Z" />
<path fill="#ffffff" opacity="1.00" d=" M 14.57 16.49 C 18.02 11.48 23.74 7.89 29.95 8.02 C 35.93 7.87 41.48 11.15 45.02 15.83 C 35.57 10.83 23.69 10.61 14.57 16.49 Z" />
<path fill="#ffffff" opacity="1.00" d=" M 12.10 23.40 C 22.63 16.22 36.96 16.49 47.80 22.86 C 47.85 24.40 47.88 25.95 47.88 27.49 C 43.30 24.95 38.45 22.62 33.15 22.19 C 25.90 21.28 18.52 23.53 12.73 27.91 C 12.08 26.48 12.07 24.93 12.10 23.40 Z" />
<path fill="#ffffff" opacity="1.00" d=" M 19.95 30.55 C 23.23 29.51 26.49 28.08 29.99 28.02 C 33.49 28.07 36.75 29.50 40.04 30.53 C 39.92 36.32 37.95 42.87 32.41 45.66 C 31.28 43.60 28.70 43.64 27.55 45.66 C 22.04 42.84 20.08 36.32 19.95 30.55 M 24.19 39.50 C 22.58 40.24 23.44 43.01 25.12 43.02 C 26.81 42.77 28.40 42.09 30.00 41.53 C 32.16 42.57 37.39 44.46 36.50 40.05 C 33.07 37.43 27.89 37.51 24.19 39.50 Z" />
</g>
<g id="#000000ff">
<path fill="#000000" opacity="1.00" d=" M 19.66 6.60 C 25.98 3.16 34.02 3.15 40.34 6.61 C 47.65 10.45 52.60 18.76 51.86 27.07 C 51.61 29.07 49.94 30.33 48.59 31.62 C 50.77 37.51 52.13 43.77 51.93 50.07 C 52.11 52.57 47.87 52.58 48.09 50.05 C 47.82 44.82 47.15 39.61 45.58 34.60 C 46.33 41.36 45.98 48.32 43.77 54.79 C 43.22 56.84 39.63 56.04 40.12 53.97 C 40.98 49.63 42.00 45.31 42.03 40.85 C 39.77 45.53 35.56 50.04 29.98 49.96 C 24.41 50.03 20.22 45.51 17.97 40.84 C 18.00 45.28 19.00 49.60 19.87 53.92 C 20.44 56.00 16.78 56.87 16.23 54.79 C 14.01 48.34 13.67 41.38 14.41 34.64 C 12.83 39.64 12.18 44.84 11.91 50.06 C 12.05 52.13 8.98 52.71 8.19 50.88 C 7.64 44.33 9.18 37.76 11.41 31.63 C 9.78 30.19 7.94 28.52 8.04 26.13 C 7.84 18.12 12.59 10.31 19.66 6.60 M 14.57 16.49 C 23.69 10.61 35.57 10.83 45.02 15.83 C 41.48 11.15 35.93 7.87 29.95 8.02 C 23.74 7.89 18.02 11.48 14.57 16.49 M 12.10 23.40 C 12.07 24.93 12.08 26.48 12.73 27.91 C 18.52 23.53 25.90 21.28 33.15 22.19 C 38.45 22.62 43.30 24.95 47.88 27.49 C 47.88 25.95 47.85 24.40 47.80 22.86 C 36.96 16.49 22.63 16.22 12.10 23.40 M 19.95 30.55 C 20.08 36.32 22.04 42.84 27.55 45.66 C 28.70 43.64 31.28 43.60 32.41 45.66 C 37.95 42.87 39.92 36.32 40.04 30.53 C 36.75 29.50 33.49 28.07 29.99 28.02 C 26.49 28.08 23.23 29.51 19.95 30.55 Z" />
<path fill="#000000" opacity="1.00" d=" M 24.19 39.50 C 27.89 37.51 33.07 37.43 36.50 40.05 C 37.39 44.46 32.16 42.57 30.00 41.53 C 28.40 42.09 26.81 42.77 25.12 43.02 C 23.44 43.01 22.58 40.24 24.19 39.50 Z" />
</g>
</svg>
