<?xml version="1.0" encoding="UTF-8" ?>
<!DOCTYPE svg PUBLIC "-//W3C//DTD SVG 1.1//EN" "http://www.w3.org/Graphics/SVG/1.1/DTD/svg11.dtd">
<svg width="64pt" height="64pt" viewBox="0 0 64 64" version="1.1" xmlns="http://www.w3.org/2000/svg">
<g id="#ffffffff">
<path fill="#ffffff" opacity="1.00" d=" M 0.00 0.00 L 64.00 0.00 L 64.00 64.00 L 0.00 64.00 L 0.00 0.00 M 11.05 11.99 C 8.74 15.06 6.27 18.02 4.17 21.23 C 3.74 26.14 4.11 31.08 4.01 36.00 C 7.34 35.98 10.66 36.02 13.99 36.00 C 14.02 41.33 13.98 46.67 14.02 52.00 C 15.34 52.00 16.66 52.00 17.98 52.00 C 18.02 46.67 17.99 41.34 18.00 36.00 C 20.67 36.00 23.33 36.00 26.00 36.00 C 26.01 41.33 25.99 46.66 26.00 51.99 C 30.00 52.01 34.00 52.01 37.99 51.99 C 38.01 46.66 37.99 41.33 38.00 36.00 C 40.67 36.00 43.33 36.00 46.00 36.00 C 46.01 41.34 45.98 46.67 46.02 52.00 C 47.34 52.00 48.66 52.00 49.98 52.00 C 50.02 46.67 49.98 41.33 50.01 36.00 C 53.34 36.02 56.66 35.98 59.99 36.00 C 59.89 31.08 60.25 26.14 59.84 21.24 C 57.75 18.01 55.27 15.05 52.95 11.99 C 38.98 12.01 25.02 12.00 11.05 11.99 Z" />
<path fill="#ffffff" opacity="1.00" d=" M 13.04 15.99 C 25.68 16.00 38.32 16.00 50.96 15.99 C 51.97 17.31 52.98 18.62 54.01 19.93 C 39.34 20.05 24.66 20.05 9.99 19.93 C 11.02 18.62 12.03 17.31 13.04 15.99 Z" />
<path fill="#ffffff" opacity="1.00" d=" M 8.00 24.00 C 24.00 24.00 40.00 24.00 56.00 24.00 C 56.00 26.67 56.00 29.33 56.00 32.00 C 40.00 32.00 24.00 32.00 8.00 32.00 C 8.00 29.33 8.00 26.67 8.00 24.00 Z" />
<path fill="#ffffff" opacity="1.00" d=" M 30.02 36.00 C 31.34 36.00 32.66 36.00 33.98 36.00 C 34.02 40.00 34.02 44.00 33.98 48.00 C 32.66 48.00 31.34 48.00 30.02 48.00 C 29.98 44.00 29.98 40.00 30.02 36.00 Z" />
</g>
<g id="#000000ff">
<path fill="#000000" opacity="1.00" d=" M 11.05 11.99 C 25.02 12.00 38.98 12.01 52.95 11.99 C 55.27 15.05 57.75 18.01 59.84 21.24 C 60.25 26.14 59.89 31.08 59.99 36.00 C 56.66 35.98 53.34 36.02 50.01 36.00 C 49.98 41.33 50.02 46.67 49.98 52.00 C 48.66 52.00 47.34 52.00 46.02 52.00 C 45.98 46.67 46.01 41.34 46.00 36.00 C 43.33 36.00 40.67 36.00 38.00 36.00 C 37.99 41.33 38.01 46.66 37.99 51.99 C 34.00 52.01 30.00 52.01 26.00 51.99 C 25.99 46.66 26.01 41.33 26.00 36.00 C 23.33 36.00 20.67 36.00 18.00 36.00 C 17.99 41.34 18.02 46.67 17.98 52.00 C 16.66 52.00 15.34 52.00 14.02 52.00 C 13.98 46.67 14.02 41.33 13.99 36.00 C 10.66 36.02 7.34 35.98 4.01 36.00 C 4.11 31.08 3.74 26.14 4.17 21.23 C 6.27 18.02 8.74 15.06 11.05 11.99 M 13.04 15.99 C 12.03 17.31 11.02 18.62 9.99 19.93 C 24.66 20.05 39.34 20.05 54.01 19.93 C 52.98 18.62 51.97 17.31 50.96 15.99 C 38.32 16.00 25.68 16.00 13.04 15.99 M 8.00 24.00 C 8.00 26.67 8.00 29.33 8.00 32.00 C 24.00 32.00 40.00 32.00 56.00 32.00 C 56.00 29.33 56.00 26.67 56.00 24.00 C 40.00 24.00 24.00 24.00 8.00 24.00 M 30.02 36.00 C 29.98 40.00 29.98 44.00 30.02 48.00 C 31.34 48.00 32.66 48.00 33.98 48.00 C 34.02 44.00 34.02 40.00 33.98 36.00 C 32.66 36.00 31.34 36.00 30.02 36.00 Z" />
</g>
</svg>
