<?xml version="1.0" encoding="UTF-8" ?>
<!DOCTYPE svg PUBLIC "-//W3C//DTD SVG 1.1//EN" "http://www.w3.org/Graphics/SVG/1.1/DTD/svg11.dtd">
<svg width="60pt" height="60pt" viewBox="0 0 60 60" version="1.1" xmlns="http://www.w3.org/2000/svg">
<g id="#ffffffff">
<path fill="#ffffff" opacity="1.00" d=" M 0.00 0.00 L 60.00 0.00 L 60.00 45.62 C 59.85 38.28 53.36 31.84 45.98 32.04 C 38.13 31.81 31.21 39.28 32.09 47.10 C 32.45 54.02 38.63 59.75 45.50 60.00 L 0.00 60.00 L 0.00 0.00 M 24.44 4.63 C 16.10 6.46 8.49 12.65 5.86 20.87 C 6.13 23.25 9.54 23.10 9.94 20.88 C 13.23 13.91 20.16 8.75 27.91 8.14 C 33.79 7.39 39.59 9.57 44.22 13.09 C 45.91 14.80 48.74 11.84 46.82 10.29 C 40.90 4.91 32.21 2.87 24.44 4.63 M 22.60 15.01 C 23.04 17.89 26.07 16.39 27.88 16.27 C 35.42 14.72 42.81 20.71 43.96 28.11 C 45.31 28.05 46.66 27.99 48.01 27.92 C 46.76 18.45 37.49 10.67 27.84 12.17 C 25.96 12.59 22.88 12.50 22.60 15.01 M 49.20 18.77 C 50.45 22.08 51.77 25.38 52.03 28.96 C 53.36 29.67 54.71 30.34 56.10 30.94 C 55.86 26.22 55.15 21.32 52.57 17.26 C 51.60 15.48 48.50 16.88 49.20 18.77 M 16.40 18.42 C 12.92 21.97 11.83 27.18 11.98 32.01 C 12.13 38.28 11.76 44.58 12.16 50.84 C 12.93 52.72 16.10 52.13 15.92 50.05 C 16.22 43.00 15.77 35.94 16.10 28.90 C 16.07 25.54 18.26 22.87 19.50 19.92 C 19.05 18.66 17.71 17.64 16.40 18.42 M 20.13 28.89 C 19.80 36.25 20.13 43.63 19.97 51.01 C 20.19 52.66 19.46 54.86 21.17 55.90 C 22.48 56.31 24.08 55.48 23.93 53.97 C 24.17 45.95 23.84 37.91 24.05 29.89 C 23.87 25.67 28.94 22.58 32.63 24.62 C 35.12 25.69 35.95 28.44 36.16 30.91 C 37.47 30.30 38.75 29.64 40.01 28.93 C 39.25 24.98 36.54 21.25 32.45 20.33 C 26.86 18.71 20.51 23.06 20.13 28.89 M 5.37 26.44 C 5.12 26.64 4.62 27.04 4.37 27.24 C 3.61 32.76 4.06 38.45 4.09 44.03 C 3.87 46.14 7.10 46.75 7.82 44.82 C 8.23 39.52 7.92 34.19 8.00 28.89 C 8.30 27.34 6.90 25.95 5.37 26.44 M 28.17 29.17 C 27.72 34.21 28.09 39.28 28.23 44.33 C 28.62 40.81 29.78 37.45 31.98 34.64 C 31.72 32.49 32.85 29.58 30.81 28.10 C 29.63 27.79 28.75 28.15 28.17 29.17 Z" />
<path fill="#ffffff" opacity="1.00" d=" M 39.10 44.17 C 43.39 43.84 47.71 43.95 52.01 44.08 C 54.11 43.84 54.73 47.06 52.85 47.83 C 48.58 48.17 44.29 48.04 40.02 47.93 C 37.94 48.17 37.27 45.02 39.10 44.17 Z" />
<path fill="#ffffff" opacity="1.00" d=" M 46.43 60.00 C 53.60 59.81 59.74 53.69 60.00 46.54 L 60.00 60.00 L 46.43 60.00 Z" />
</g>
<g id="#000000ff">
<path fill="#000000" opacity="1.00" d=" M 24.44 4.63 C 32.21 2.87 40.90 4.91 46.82 10.29 C 48.74 11.84 45.91 14.80 44.22 13.09 C 39.59 9.57 33.79 7.39 27.91 8.14 C 20.16 8.75 13.23 13.91 9.94 20.88 C 9.54 23.10 6.13 23.25 5.86 20.87 C 8.49 12.65 16.10 6.46 24.44 4.63 Z" />
<path fill="#000000" opacity="1.00" d=" M 22.60 15.01 C 22.88 12.50 25.96 12.59 27.84 12.17 C 37.49 10.67 46.76 18.45 48.01 27.92 C 46.66 27.99 45.31 28.05 43.96 28.11 C 42.81 20.71 35.42 14.72 27.88 16.27 C 26.07 16.39 23.04 17.89 22.60 15.01 Z" />
<path fill="#000000" opacity="1.00" d=" M 49.20 18.77 C 48.50 16.88 51.60 15.48 52.57 17.26 C 55.15 21.32 55.86 26.22 56.10 30.94 C 54.71 30.34 53.36 29.67 52.03 28.96 C 51.77 25.38 50.45 22.08 49.20 18.77 Z" />
<path fill="#000000" opacity="1.00" d=" M 16.40 18.42 C 17.71 17.64 19.05 18.66 19.50 19.92 C 18.26 22.87 16.07 25.54 16.10 28.90 C 15.77 35.94 16.22 43.00 15.92 50.05 C 16.10 52.13 12.93 52.72 12.16 50.84 C 11.76 44.58 12.13 38.28 11.98 32.01 C 11.83 27.18 12.92 21.97 16.40 18.42 Z" />
<path fill="#000000" opacity="1.00" d=" M 20.13 28.89 C 20.51 23.06 26.86 18.71 32.45 20.33 C 36.54 21.25 39.25 24.98 40.01 28.93 C 38.75 29.64 37.47 30.30 36.16 30.91 C 35.95 28.44 35.12 25.69 32.63 24.62 C 28.94 22.58 23.87 25.67 24.05 29.89 C 23.84 37.91 24.17 45.95 23.93 53.97 C 24.08 55.48 22.48 56.31 21.17 55.90 C 19.46 54.86 20.19 52.66 19.97 51.01 C 20.13 43.63 19.80 36.25 20.13 28.89 Z" />
<path fill="#000000" opacity="1.00" d=" M 5.37 26.44 C 6.90 25.95 8.30 27.34 8.00 28.89 C 7.92 34.19 8.23 39.52 7.82 44.82 C 7.10 46.75 3.87 46.14 4.09 44.03 C 4.06 38.45 3.61 32.76 4.37 27.24 C 4.62 27.04 5.12 26.64 5.37 26.44 Z" />
<path fill="#000000" opacity="1.00" d=" M 28.17 29.17 C 28.75 28.15 29.63 27.79 30.81 28.10 C 32.85 29.58 31.72 32.49 31.98 34.64 C 29.78 37.45 28.62 40.81 28.23 44.33 C 28.09 39.28 27.72 34.21 28.17 29.17 Z" />
<path fill="#000000" opacity="1.00" d=" M 32.09 47.10 C 31.21 39.28 38.13 31.81 45.98 32.04 C 53.36 31.84 59.85 38.28 60.00 45.62 L 60.00 46.54 C 59.74 53.69 53.60 59.81 46.43 60.00 L 45.50 60.00 C 38.63 59.75 32.45 54.02 32.09 47.10 M 39.10 44.17 C 37.27 45.02 37.94 48.17 40.02 47.93 C 44.29 48.04 48.58 48.17 52.85 47.83 C 54.73 47.06 54.11 43.84 52.01 44.08 C 47.71 43.95 43.39 43.84 39.10 44.17 Z" />
</g>
</svg>
