<?xml version="1.0" encoding="UTF-8" ?>
<!DOCTYPE svg PUBLIC "-//W3C//DTD SVG 1.1//EN" "http://www.w3.org/Graphics/SVG/1.1/DTD/svg11.dtd">
<svg width="60pt" height="60pt" viewBox="0 0 60 60" version="1.1" xmlns="http://www.w3.org/2000/svg">
<g id="#ffffffff">
<path fill="#ffffff" opacity="1.00" d=" M 0.00 0.00 L 60.00 0.00 L 60.00 45.51 C 59.82 37.84 52.61 31.28 44.93 32.07 C 37.49 32.46 31.31 39.62 32.08 47.04 C 32.44 53.94 38.55 59.72 45.40 60.00 L 0.00 60.00 L 0.00 0.00 M 10.04 11.92 C 9.97 23.99 9.96 36.08 10.05 48.16 C 9.98 51.28 12.84 54.06 15.95 53.96 C 20.56 54.10 25.18 53.93 29.80 54.02 C 29.40 52.70 28.97 51.38 28.50 50.08 C 24.05 49.80 19.57 50.28 15.12 49.82 C 13.30 49.03 13.87 45.88 15.95 46.07 C 19.93 45.87 23.92 46.06 27.91 46.00 C 28.10 40.80 30.28 35.64 34.34 32.29 C 38.57 28.57 44.54 27.30 50.01 28.39 C 49.95 22.22 50.09 16.05 49.95 9.88 C 49.98 7.89 48.16 5.95 46.12 6.05 C 36.05 5.96 25.97 5.97 15.90 6.04 C 12.77 5.95 9.94 8.79 10.04 11.92 Z" />
<path fill="#ffffff" opacity="1.00" d=" M 41.14 40.11 C 43.37 39.54 44.52 41.96 46.00 43.16 C 47.47 41.98 48.62 39.54 50.85 40.12 C 53.65 42.01 50.35 44.54 48.85 46.01 C 50.09 47.46 53.27 49.32 51.37 51.41 C 49.24 53.22 47.46 50.06 46.00 48.84 C 44.54 50.35 42.01 53.66 40.11 50.84 C 39.57 48.61 41.97 47.47 43.16 45.99 C 41.65 44.53 38.36 42.04 41.14 40.11 Z" />
<path fill="#ffffff" opacity="1.00" d=" M 46.58 60.00 C 53.64 59.73 59.69 53.71 60.00 46.65 L 60.00 60.00 L 46.58 60.00 Z" />
</g>
<g id="#000000ff">
<path fill="#000000" opacity="1.00" d=" M 10.04 11.92 C 9.94 8.79 12.77 5.95 15.90 6.04 C 25.97 5.97 36.05 5.96 46.12 6.05 C 48.16 5.95 49.98 7.89 49.95 9.88 C 50.09 16.05 49.95 22.22 50.01 28.39 C 44.54 27.30 38.57 28.57 34.34 32.29 C 30.28 35.64 28.10 40.80 27.91 46.00 C 23.92 46.06 19.93 45.87 15.95 46.07 C 13.87 45.88 13.30 49.03 15.12 49.82 C 19.57 50.28 24.05 49.80 28.50 50.08 C 28.97 51.38 29.40 52.70 29.80 54.02 C 25.18 53.93 20.56 54.10 15.95 53.96 C 12.84 54.06 9.98 51.28 10.05 48.16 C 9.96 36.08 9.97 23.99 10.04 11.92 Z" />
<path fill="#000000" opacity="1.00" d=" M 32.08 47.04 C 31.31 39.62 37.49 32.46 44.93 32.07 C 52.61 31.28 59.82 37.84 60.00 45.51 L 60.00 46.65 C 59.69 53.71 53.64 59.73 46.58 60.00 L 45.40 60.00 C 38.55 59.72 32.44 53.94 32.08 47.04 M 41.14 40.11 C 38.36 42.04 41.65 44.53 43.16 45.99 C 41.97 47.47 39.57 48.61 40.11 50.84 C 42.01 53.66 44.54 50.35 46.00 48.84 C 47.46 50.06 49.24 53.22 51.37 51.41 C 53.27 49.32 50.09 47.46 48.85 46.01 C 50.35 44.54 53.65 42.01 50.85 40.12 C 48.62 39.54 47.47 41.98 46.00 43.16 C 44.52 41.96 43.37 39.54 41.14 40.11 Z" />
</g>
</svg>
