<?xml version="1.0" encoding="UTF-8" ?>
<!DOCTYPE svg PUBLIC "-//W3C//DTD SVG 1.1//EN" "http://www.w3.org/Graphics/SVG/1.1/DTD/svg11.dtd">
<svg width="64pt" height="64pt" viewBox="0 0 64 64" version="1.1" xmlns="http://www.w3.org/2000/svg">
<g id="#ffffffff">
<path fill="#ffffff" opacity="1.00" d=" M 0.00 0.00 L 64.00 0.00 L 64.00 45.55 C 60.97 43.45 58.69 40.49 56.01 37.99 C 55.07 38.93 54.12 39.88 53.18 40.82 C 54.23 41.88 55.28 42.94 56.33 44.00 C 50.81 44.16 43.78 42.73 40.06 47.99 C 35.29 53.74 39.47 63.21 46.80 64.00 L 0.00 64.00 L 0.00 0.00 M 27.92 12.80 C 21.87 15.96 19.20 22.55 17.75 28.84 C 16.31 26.25 15.16 23.22 12.49 21.62 C 10.02 19.86 6.89 19.96 4.00 19.98 C 4.00 21.28 4.00 22.58 4.00 23.88 C 5.19 24.03 6.89 24.03 7.31 25.44 C 8.56 30.73 9.16 36.15 10.39 41.44 C 11.17 44.66 13.99 46.83 17.00 47.86 C 18.46 50.70 20.94 53.14 24.16 53.76 C 27.39 54.24 30.67 53.91 33.93 54.00 C 34.12 52.66 34.32 51.33 34.53 49.99 C 31.38 49.93 28.21 50.18 25.06 49.86 C 21.96 49.26 20.16 46.09 20.09 43.12 C 19.77 36.61 21.43 30.20 23.34 24.04 C 29.11 23.97 34.88 23.98 40.66 24.03 C 42.37 29.39 43.65 34.91 43.99 40.53 C 45.31 40.32 46.64 40.12 47.96 39.92 C 47.85 35.60 46.52 31.46 46.03 27.19 C 48.13 26.18 50.98 25.19 52.85 27.17 C 54.90 29.60 53.68 33.10 54.00 36.00 C 55.33 36.00 56.66 36.00 58.00 36.00 C 57.88 32.07 58.83 27.35 55.61 24.34 C 52.77 21.36 48.06 21.52 44.66 23.43 C 43.22 19.00 40.20 15.06 36.08 12.81 C 36.18 10.50 34.61 7.93 32.07 8.00 C 29.51 7.89 27.78 10.43 27.92 12.80 Z" />
<path fill="#ffffff" opacity="1.00" d=" M 25.58 19.93 C 27.27 18.10 29.25 16.04 31.93 16.00 C 34.69 15.97 36.74 18.09 38.48 19.95 C 34.18 20.02 29.88 20.05 25.58 19.93 Z" />
<path fill="#ffffff" opacity="1.00" d=" M 11.64 26.04 C 13.10 28.65 14.33 31.49 16.76 33.37 C 16.35 36.61 16.08 39.86 15.86 43.12 C 14.95 41.89 14.08 40.58 13.93 39.02 C 13.16 34.69 12.31 30.38 11.64 26.04 Z" />
<path fill="#ffffff" opacity="1.00" d=" M 56.00 53.99 C 58.74 51.63 60.87 48.40 64.00 46.58 L 64.00 64.00 L 63.27 64.00 L 60.01 63.99 C 60.01 62.99 59.99 61.00 59.99 60.00 C 55.37 59.83 50.69 60.39 46.11 59.68 C 41.38 58.41 40.57 51.22 44.86 48.88 C 48.40 47.20 52.54 48.29 56.32 48.01 C 55.28 49.07 54.22 50.12 53.18 51.18 C 54.12 52.12 55.05 53.05 56.00 53.99 Z" />
</g>
<g id="#000000ff">
<path fill="#000000" opacity="1.00" d=" M 27.92 12.80 C 27.78 10.43 29.51 7.89 32.07 8.00 C 34.61 7.93 36.18 10.50 36.08 12.81 C 40.20 15.06 43.22 19.00 44.66 23.43 C 48.06 21.52 52.77 21.36 55.61 24.34 C 58.83 27.35 57.88 32.07 58.00 36.00 C 56.66 36.00 55.33 36.00 54.00 36.00 C 53.68 33.10 54.90 29.60 52.85 27.17 C 50.98 25.19 48.13 26.18 46.03 27.19 C 46.52 31.46 47.85 35.60 47.96 39.92 C 46.64 40.12 45.31 40.32 43.99 40.53 C 43.65 34.91 42.37 29.39 40.66 24.03 C 34.88 23.98 29.11 23.97 23.34 24.04 C 21.43 30.20 19.77 36.61 20.09 43.12 C 20.16 46.09 21.96 49.26 25.06 49.86 C 28.21 50.18 31.38 49.93 34.53 49.99 C 34.32 51.33 34.12 52.66 33.93 54.00 C 30.67 53.91 27.39 54.24 24.16 53.76 C 20.94 53.14 18.46 50.70 17.00 47.86 C 13.99 46.83 11.17 44.66 10.39 41.44 C 9.16 36.15 8.56 30.73 7.31 25.44 C 6.89 24.03 5.19 24.03 4.00 23.88 C 4.00 22.58 4.00 21.28 4.00 19.98 C 6.89 19.96 10.02 19.86 12.49 21.62 C 15.16 23.22 16.31 26.25 17.75 28.84 C 19.20 22.55 21.87 15.96 27.92 12.80 M 25.58 19.93 C 29.88 20.05 34.18 20.02 38.48 19.95 C 36.74 18.09 34.69 15.97 31.93 16.00 C 29.25 16.04 27.27 18.10 25.58 19.93 M 11.64 26.04 C 12.31 30.38 13.16 34.69 13.93 39.02 C 14.08 40.58 14.95 41.89 15.86 43.12 C 16.08 39.86 16.35 36.61 16.76 33.37 C 14.33 31.49 13.10 28.65 11.64 26.04 Z" />
<path fill="#000000" opacity="1.00" d=" M 53.18 40.82 C 54.12 39.88 55.07 38.93 56.01 37.99 C 58.69 40.49 60.97 43.45 64.00 45.55 L 64.00 46.58 C 60.87 48.40 58.74 51.63 56.00 53.99 C 55.05 53.05 54.12 52.12 53.18 51.18 C 54.22 50.12 55.28 49.07 56.32 48.01 C 52.54 48.29 48.40 47.20 44.86 48.88 C 40.57 51.22 41.38 58.41 46.11 59.68 C 50.69 60.39 55.37 59.83 59.99 60.00 C 59.99 61.00 60.01 62.99 60.01 63.99 L 63.27 64.00 L 46.80 64.00 C 39.47 63.21 35.29 53.74 40.06 47.99 C 43.78 42.73 50.81 44.16 56.33 44.00 C 55.28 42.94 54.23 41.88 53.18 40.82 Z" />
</g>
</svg>
