<?xml version="1.0" encoding="UTF-8" ?>
<!DOCTYPE svg PUBLIC "-//W3C//DTD SVG 1.1//EN" "http://www.w3.org/Graphics/SVG/1.1/DTD/svg11.dtd">
<svg width="64pt" height="64pt" viewBox="0 0 64 64" version="1.1" xmlns="http://www.w3.org/2000/svg">
<g id="#ffffffff">
<path fill="#ffffff" opacity="1.00" d=" M 0.00 0.00 L 64.00 0.00 L 64.00 64.00 L 0.00 64.00 L 0.00 0.00 M 27.22 12.21 C 24.79 15.35 23.05 18.95 20.89 22.26 C 22.03 22.95 23.17 23.63 24.30 24.34 C 26.29 21.26 27.97 17.97 30.12 14.98 C 30.90 13.52 33.20 13.60 33.95 15.06 C 36.26 18.31 38.14 21.84 40.32 25.18 C 39.35 25.76 38.38 26.33 37.41 26.90 C 40.49 28.61 43.55 30.35 46.60 32.10 C 46.60 28.57 46.60 25.04 46.60 21.50 C 45.89 21.92 44.48 22.74 43.78 23.16 C 41.57 19.74 39.61 16.15 37.27 12.82 C 35.12 9.47 29.74 9.15 27.22 12.21 M 31.29 24.00 C 29.46 27.98 25.88 31.38 25.85 35.99 C 27.90 36.01 29.95 35.99 32.00 36.00 C 31.38 38.69 30.78 41.39 30.17 44.08 C 32.79 40.06 35.38 36.03 38.00 32.01 C 35.81 31.99 33.63 32.02 31.44 31.99 C 32.98 29.33 34.47 26.66 36.00 24.00 C 34.43 24.01 32.86 24.01 31.29 24.00 M 11.80 31.53 C 12.43 31.89 13.67 32.63 14.30 32.99 C 12.46 36.18 10.27 39.17 8.61 42.47 C 6.69 46.38 9.71 51.51 13.99 51.96 C 17.98 52.37 22.00 52.03 26.00 52.14 C 26.00 50.80 26.00 49.47 26.00 48.13 C 22.01 48.02 18.00 48.40 14.02 47.93 C 12.52 47.62 11.32 45.68 12.21 44.28 C 13.75 41.04 15.97 38.18 17.73 35.05 C 18.49 35.51 20.03 36.44 20.79 36.90 C 20.80 33.37 20.80 29.84 20.80 26.31 C 17.80 28.06 14.81 29.80 11.80 31.53 M 46.71 35.55 C 48.37 38.43 50.46 41.08 51.85 44.10 C 52.74 45.57 51.62 47.69 49.98 47.96 C 46.00 48.38 41.99 48.02 38.00 48.14 C 38.00 46.79 38.00 45.44 37.99 44.10 C 34.73 46.11 31.46 48.10 28.19 50.11 C 31.48 52.08 34.74 54.08 38.00 56.09 C 38.00 55.10 38.00 53.12 38.01 52.13 C 43.68 51.44 51.76 54.41 55.23 48.31 C 58.03 42.72 52.41 38.07 50.11 33.45 C 48.98 34.16 47.84 34.86 46.71 35.55 Z" />
</g>
<g id="#000000ff">
<path fill="#000000" opacity="1.00" d=" M 27.22 12.21 C 29.74 9.15 35.12 9.47 37.27 12.82 C 39.61 16.15 41.57 19.74 43.78 23.16 C 44.48 22.74 45.89 21.92 46.60 21.50 C 46.60 25.04 46.60 28.57 46.60 32.10 C 43.55 30.35 40.49 28.61 37.41 26.90 C 38.38 26.33 39.35 25.76 40.32 25.18 C 38.14 21.84 36.26 18.31 33.95 15.06 C 33.20 13.60 30.90 13.52 30.12 14.98 C 27.97 17.97 26.29 21.26 24.30 24.34 C 23.17 23.63 22.03 22.95 20.89 22.26 C 23.05 18.95 24.79 15.35 27.22 12.21 Z" />
<path fill="#000000" opacity="1.00" d=" M 31.29 24.00 C 32.86 24.01 34.43 24.01 36.00 24.00 C 34.47 26.66 32.98 29.33 31.44 31.99 C 33.63 32.02 35.81 31.99 38.00 32.01 C 35.38 36.03 32.79 40.06 30.17 44.08 C 30.78 41.39 31.38 38.69 32.00 36.00 C 29.95 35.99 27.90 36.01 25.85 35.99 C 25.88 31.38 29.46 27.98 31.29 24.00 Z" />
<path fill="#000000" opacity="1.00" d=" M 11.80 31.53 C 14.81 29.80 17.80 28.06 20.80 26.31 C 20.80 29.84 20.80 33.37 20.79 36.90 C 20.03 36.44 18.49 35.51 17.73 35.05 C 15.97 38.18 13.75 41.04 12.21 44.28 C 11.32 45.68 12.52 47.62 14.02 47.93 C 18.00 48.40 22.01 48.02 26.00 48.13 C 26.00 49.47 26.00 50.80 26.00 52.14 C 22.00 52.03 17.98 52.37 13.99 51.96 C 9.71 51.51 6.69 46.38 8.61 42.47 C 10.27 39.17 12.46 36.18 14.30 32.99 C 13.67 32.63 12.43 31.89 11.80 31.53 Z" />
<path fill="#000000" opacity="1.00" d=" M 46.71 35.55 C 47.84 34.86 48.98 34.16 50.11 33.45 C 52.41 38.07 58.03 42.72 55.23 48.31 C 51.76 54.41 43.68 51.44 38.01 52.13 C 38.00 53.12 38.00 55.10 38.00 56.09 C 34.74 54.08 31.48 52.08 28.19 50.11 C 31.46 48.10 34.73 46.11 37.99 44.10 C 38.00 45.44 38.00 46.79 38.00 48.14 C 41.99 48.02 46.00 48.38 49.98 47.96 C 51.62 47.69 52.74 45.57 51.85 44.10 C 50.46 41.08 48.37 38.43 46.71 35.55 Z" />
</g>
</svg>
