<?xml version="1.0" encoding="UTF-8" ?>
<!DOCTYPE svg PUBLIC "-//W3C//DTD SVG 1.1//EN" "http://www.w3.org/Graphics/SVG/1.1/DTD/svg11.dtd">
<svg width="64pt" height="64pt" viewBox="0 0 64 64" version="1.1" xmlns="http://www.w3.org/2000/svg">
<g id="#ffffffff">
<path fill="#ffffff" opacity="1.00" d=" M 0.00 0.00 L 64.00 0.00 L 64.00 64.00 L 0.00 64.00 L 0.00 0.00 M 20.58 10.55 C 14.78 16.37 8.93 22.14 3.17 28.00 C 8.92 33.85 14.77 39.60 20.55 45.43 C 21.51 44.47 22.48 43.52 23.45 42.57 C 18.62 37.69 13.72 32.87 8.88 28.00 C 13.76 23.17 18.59 18.30 23.45 13.46 C 22.48 12.50 21.52 11.53 20.58 10.55 M 30.57 10.55 C 24.78 16.38 18.93 22.14 13.17 28.00 C 18.92 33.85 24.77 39.61 30.55 45.43 C 31.51 44.47 32.48 43.52 33.45 42.57 C 29.29 38.36 25.07 34.20 20.88 30.01 C 29.61 30.07 38.35 29.85 47.07 30.11 C 52.79 30.48 57.15 36.57 55.74 42.11 C 54.89 46.71 50.53 49.86 46.00 50.12 C 46.00 51.44 46.01 52.76 46.01 54.07 C 49.41 53.78 52.84 52.74 55.36 50.35 C 59.76 46.46 61.23 39.69 58.76 34.35 C 56.62 29.39 51.42 25.99 46.02 26.03 C 37.65 25.94 29.28 26.04 20.91 25.99 C 25.09 21.81 29.28 17.63 33.46 13.44 C 32.48 12.49 31.52 11.52 30.57 10.55 Z" />
</g>
<g id="#000000ff">
<path fill="#000000" opacity="1.00" d=" M 20.58 10.55 C 21.52 11.53 22.48 12.50 23.45 13.46 C 18.59 18.30 13.76 23.17 8.88 28.00 C 13.72 32.87 18.62 37.69 23.45 42.57 C 22.48 43.52 21.51 44.47 20.55 45.43 C 14.77 39.60 8.92 33.85 3.17 28.00 C 8.93 22.14 14.78 16.37 20.58 10.55 Z" />
<path fill="#000000" opacity="1.00" d=" M 30.57 10.55 C 31.52 11.52 32.48 12.49 33.46 13.44 C 29.28 17.63 25.09 21.81 20.91 25.99 C 29.28 26.04 37.65 25.94 46.02 26.03 C 51.42 25.99 56.62 29.39 58.76 34.35 C 61.23 39.69 59.76 46.46 55.36 50.35 C 52.84 52.74 49.41 53.78 46.01 54.07 C 46.01 52.76 46.00 51.44 46.00 50.12 C 50.53 49.86 54.89 46.71 55.74 42.11 C 57.15 36.57 52.79 30.48 47.07 30.11 C 38.35 29.85 29.61 30.07 20.88 30.01 C 25.07 34.20 29.29 38.36 33.45 42.57 C 32.48 43.52 31.51 44.47 30.55 45.43 C 24.77 39.61 18.92 33.85 13.17 28.00 C 18.93 22.14 24.78 16.38 30.57 10.55 Z" />
</g>
</svg>
