<?xml version="1.0" encoding="UTF-8" ?>
<!DOCTYPE svg PUBLIC "-//W3C//DTD SVG 1.1//EN" "http://www.w3.org/Graphics/SVG/1.1/DTD/svg11.dtd">
<svg width="60pt" height="60pt" viewBox="0 0 60 60" version="1.1" xmlns="http://www.w3.org/2000/svg">
<g id="#ffffffff">
<path fill="#ffffff" opacity="1.00" d=" M 0.00 0.00 L 60.00 0.00 L 60.00 60.00 L 0.00 60.00 L 0.00 0.00 M 14.63 12.61 C 11.10 16.10 7.48 19.53 4.14 23.20 C 4.15 23.61 4.17 24.43 4.17 24.84 C 7.71 28.64 11.39 32.35 15.21 35.86 C 15.63 35.85 16.47 35.84 16.89 35.83 C 19.15 33.57 17.52 29.73 18.00 26.84 C 20.90 29.64 23.66 32.60 26.59 35.37 C 27.48 36.38 29.29 36.09 29.83 34.84 C 30.19 31.91 29.94 28.95 30.00 26.00 C 36.15 26.63 43.39 24.20 48.60 28.50 C 53.74 32.70 52.76 41.77 46.81 44.74 C 43.24 46.81 38.98 45.54 35.12 46.20 C 33.25 46.96 33.92 50.13 35.97 49.93 C 41.02 50.20 46.74 50.37 50.77 46.78 C 57.16 41.71 57.72 30.93 51.32 25.63 C 45.54 20.22 37.11 22.47 30.00 22.00 C 29.97 19.30 30.11 16.60 29.93 13.91 C 30.10 12.22 27.61 11.32 26.60 12.64 C 23.66 15.41 20.90 18.36 18.00 21.17 C 17.98 18.76 18.10 16.35 17.93 13.94 C 18.15 12.27 15.65 11.30 14.63 12.61 Z" />
</g>
<g id="#000000ff">
<path fill="#000000" opacity="1.00" d=" M 14.63 12.61 C 15.65 11.30 18.15 12.27 17.93 13.94 C 18.10 16.35 17.98 18.76 18.00 21.17 C 20.90 18.36 23.66 15.41 26.60 12.64 C 27.61 11.32 30.10 12.22 29.93 13.91 C 30.11 16.60 29.97 19.30 30.00 22.00 C 37.11 22.47 45.54 20.22 51.32 25.63 C 57.72 30.93 57.16 41.71 50.77 46.78 C 46.74 50.37 41.02 50.20 35.97 49.93 C 33.92 50.13 33.25 46.96 35.12 46.20 C 38.98 45.54 43.24 46.81 46.81 44.74 C 52.76 41.77 53.74 32.70 48.60 28.50 C 43.39 24.20 36.15 26.63 30.00 26.00 C 29.94 28.95 30.19 31.91 29.83 34.84 C 29.29 36.09 27.48 36.38 26.59 35.37 C 23.66 32.60 20.90 29.64 18.00 26.84 C 17.52 29.73 19.15 33.57 16.89 35.83 C 16.47 35.84 15.63 35.85 15.21 35.86 C 11.39 32.35 7.71 28.64 4.17 24.84 C 4.17 24.43 4.15 23.61 4.14 23.20 C 7.48 19.53 11.10 16.10 14.63 12.61 Z" />
</g>
</svg>
