<?xml version="1.0" encoding="UTF-8" ?>
<!DOCTYPE svg PUBLIC "-//W3C//DTD SVG 1.1//EN" "http://www.w3.org/Graphics/SVG/1.1/DTD/svg11.dtd">
<svg width="60pt" height="60pt" viewBox="0 0 60 60" version="1.1" xmlns="http://www.w3.org/2000/svg">
<g id="#ffffffff">
<path fill="#ffffff" opacity="1.00" d=" M 0.00 0.00 L 60.00 0.00 L 60.00 60.00 L 0.00 60.00 L 0.00 0.00 M 18.63 8.60 C 13.91 13.24 9.21 17.90 4.60 22.64 C 3.54 23.54 4.09 25.20 5.09 25.91 C 9.60 30.40 14.05 34.95 18.62 39.38 C 19.51 40.40 21.33 40.10 21.85 38.82 C 22.17 35.90 21.96 32.95 22.00 30.01 C 30.88 30.39 40.65 32.15 47.02 38.92 C 50.19 42.12 51.64 46.49 52.27 50.86 C 52.93 52.80 56.18 52.02 55.96 50.01 C 55.82 40.26 51.55 30.23 43.43 24.50 C 37.27 19.95 29.51 18.33 22.00 18.00 C 21.96 15.04 22.17 12.06 21.84 9.11 C 21.26 7.94 19.49 7.57 18.63 8.60 Z" />
</g>
<g id="#000000ff">
<path fill="#000000" opacity="1.00" d=" M 18.63 8.60 C 19.49 7.57 21.26 7.94 21.84 9.11 C 22.17 12.06 21.96 15.04 22.00 18.00 C 29.51 18.33 37.27 19.95 43.43 24.50 C 51.55 30.23 55.82 40.26 55.96 50.01 C 56.18 52.02 52.93 52.80 52.27 50.86 C 51.64 46.49 50.19 42.12 47.02 38.92 C 40.65 32.15 30.88 30.39 22.00 30.01 C 21.96 32.95 22.17 35.90 21.85 38.82 C 21.33 40.10 19.51 40.40 18.62 39.38 C 14.05 34.95 9.60 30.40 5.09 25.91 C 4.09 25.20 3.54 23.54 4.60 22.64 C 9.21 17.90 13.91 13.24 18.63 8.60 Z" />
</g>
</svg>
