<?xml version="1.0" encoding="UTF-8" ?>
<!DOCTYPE svg PUBLIC "-//W3C//DTD SVG 1.1//EN" "http://www.w3.org/Graphics/SVG/1.1/DTD/svg11.dtd">
<svg width="60pt" height="60pt" viewBox="0 0 60 60" version="1.1" xmlns="http://www.w3.org/2000/svg">
<g id="#ffffffff">
<path fill="#ffffff" opacity="1.00" d=" M 0.00 0.00 L 60.00 0.00 L 60.00 60.00 L 0.00 60.00 L 0.00 0.00 M 10.32 8.40 C 8.57 9.18 7.83 11.15 8.00 12.96 C 8.03 24.67 7.93 36.38 8.05 48.08 C 7.93 50.64 10.59 52.32 12.93 52.00 C 24.65 51.97 36.37 52.07 48.09 51.95 C 50.60 52.00 52.33 49.43 52.00 47.08 C 52.01 35.68 52.00 24.29 52.00 12.90 C 52.31 10.54 50.60 7.90 48.03 8.05 C 37.02 7.91 26.01 8.07 15.00 7.98 C 13.45 8.06 11.80 7.80 10.32 8.40 Z" />
<path fill="#ffffff" opacity="1.00" d=" M 12.00 12.00 C 24.00 12.00 36.00 12.00 48.00 12.00 C 48.00 14.67 48.00 17.33 48.00 20.00 C 36.00 20.00 24.00 20.00 12.00 20.00 C 12.00 17.33 12.00 14.67 12.00 12.00 Z" />
<path fill="#ffffff" opacity="1.00" d=" M 16.41 24.35 C 20.98 22.05 24.35 29.68 19.70 31.62 C 15.05 34.05 11.54 26.22 16.41 24.35 Z" />
<path fill="#ffffff" opacity="1.00" d=" M 25.25 26.18 C 27.54 24.96 29.26 29.11 26.70 29.83 C 24.45 31.00 22.76 26.93 25.25 26.18 Z" />
<path fill="#ffffff" opacity="1.00" d=" M 33.27 26.18 C 35.55 25.07 37.16 28.87 34.82 29.90 C 32.43 30.96 30.76 26.99 33.27 26.18 Z" />
<path fill="#ffffff" opacity="1.00" d=" M 41.13 26.11 C 43.54 25.12 45.14 28.71 42.86 29.88 C 40.44 30.87 38.87 27.29 41.13 26.11 Z" />
<path fill="#ffffff" opacity="1.00" d=" M 41.27 34.15 C 43.55 33.06 45.22 37.00 42.77 37.80 C 40.45 39.02 38.73 34.95 41.27 34.15 Z" />
<path fill="#ffffff" opacity="1.00" d=" M 40.36 40.37 C 43.49 38.64 47.36 42.61 45.59 45.69 C 44.56 48.17 40.99 48.79 39.18 46.80 C 37.13 45.00 37.91 41.41 40.36 40.37 Z" />
</g>
<g id="#000000ff">
<path fill="#000000" opacity="1.00" d=" M 10.32 8.40 C 11.80 7.80 13.45 8.06 15.00 7.98 C 26.01 8.07 37.02 7.91 48.03 8.05 C 50.60 7.90 52.31 10.54 52.00 12.90 C 52.00 24.29 52.01 35.68 52.00 47.08 C 52.33 49.43 50.60 52.00 48.09 51.95 C 36.37 52.07 24.65 51.97 12.93 52.00 C 10.59 52.32 7.93 50.64 8.05 48.08 C 7.93 36.38 8.03 24.67 8.00 12.96 C 7.83 11.15 8.57 9.18 10.32 8.40 M 12.00 12.00 C 12.00 14.67 12.00 17.33 12.00 20.00 C 24.00 20.00 36.00 20.00 48.00 20.00 C 48.00 17.33 48.00 14.67 48.00 12.00 C 36.00 12.00 24.00 12.00 12.00 12.00 M 16.41 24.35 C 11.54 26.22 15.05 34.05 19.70 31.62 C 24.35 29.68 20.98 22.05 16.41 24.35 M 25.25 26.18 C 22.76 26.93 24.45 31.00 26.70 29.83 C 29.26 29.11 27.54 24.96 25.25 26.18 M 33.27 26.18 C 30.76 26.99 32.43 30.96 34.82 29.90 C 37.16 28.87 35.55 25.07 33.27 26.18 M 41.13 26.11 C 38.87 27.29 40.44 30.87 42.86 29.88 C 45.14 28.71 43.54 25.12 41.13 26.11 M 41.27 34.15 C 38.73 34.95 40.45 39.02 42.77 37.80 C 45.22 37.00 43.55 33.06 41.27 34.15 M 40.36 40.37 C 37.91 41.41 37.13 45.00 39.18 46.80 C 40.99 48.79 44.56 48.17 45.59 45.69 C 47.36 42.61 43.49 38.64 40.36 40.37 Z" />
</g>
</svg>
