<?xml version="1.0" encoding="UTF-8" ?>
<!DOCTYPE svg PUBLIC "-//W3C//DTD SVG 1.1//EN" "http://www.w3.org/Graphics/SVG/1.1/DTD/svg11.dtd">
<svg width="60pt" height="60pt" viewBox="0 0 60 60" version="1.1" xmlns="http://www.w3.org/2000/svg">
<g id="#ffffffff">
<path fill="#ffffff" opacity="1.00" d=" M 0.00 0.00 L 60.00 0.00 L 60.00 60.00 L 0.00 60.00 L 0.00 0.00 M 7.42 10.58 C 4.96 11.69 3.77 14.43 4.00 17.03 C 4.04 26.72 3.92 36.43 4.05 46.12 C 3.95 48.66 6.60 50.31 8.92 50.00 C 20.30 50.00 31.68 50.00 43.06 50.00 C 45.40 50.34 47.98 48.63 47.94 46.13 C 48.15 36.07 47.83 26.00 48.07 15.94 C 47.86 13.37 52.21 13.45 51.93 16.00 C 52.18 24.00 51.82 32.01 52.07 40.01 C 51.80 42.58 56.17 42.58 55.93 40.02 C 56.06 31.97 56.03 23.90 55.95 15.84 C 56.00 12.76 53.25 10.00 50.17 10.05 C 37.79 9.91 25.41 10.07 13.03 9.98 C 11.16 10.05 9.18 9.81 7.42 10.58 Z" />
<path fill="#ffffff" opacity="1.00" d=" M 13.18 28.14 C 15.60 27.12 17.15 30.82 14.81 31.90 C 12.41 32.88 10.84 29.17 13.18 28.14 Z" />
<path fill="#ffffff" opacity="1.00" d=" M 21.20 28.09 C 23.61 27.14 25.13 30.84 22.81 31.88 C 20.38 32.86 18.86 29.16 21.20 28.09 Z" />
<path fill="#ffffff" opacity="1.00" d=" M 29.21 28.09 C 31.63 27.19 33.11 30.80 30.82 31.89 C 28.37 32.88 26.86 29.15 29.21 28.09 Z" />
<path fill="#ffffff" opacity="1.00" d=" M 37.15 28.11 C 39.58 27.14 41.13 30.74 38.85 31.89 C 36.43 32.87 34.86 29.24 37.15 28.11 Z" />
</g>
<g id="#000000ff">
<path fill="#000000" opacity="1.00" d=" M 7.42 10.58 C 9.18 9.81 11.16 10.05 13.03 9.98 C 25.41 10.07 37.79 9.91 50.17 10.05 C 53.25 10.00 56.00 12.76 55.95 15.84 C 56.03 23.90 56.06 31.97 55.93 40.02 C 56.17 42.58 51.80 42.58 52.07 40.01 C 51.82 32.01 52.18 24.00 51.93 16.00 C 52.21 13.45 47.86 13.37 48.07 15.94 C 47.83 26.00 48.15 36.07 47.94 46.13 C 47.98 48.63 45.40 50.34 43.06 50.00 C 31.68 50.00 20.30 50.00 8.92 50.00 C 6.60 50.31 3.95 48.66 4.05 46.12 C 3.92 36.43 4.04 26.72 4.00 17.03 C 3.77 14.43 4.96 11.69 7.42 10.58 M 13.18 28.14 C 10.84 29.17 12.41 32.88 14.81 31.90 C 17.15 30.82 15.60 27.12 13.18 28.14 M 21.20 28.09 C 18.86 29.16 20.38 32.86 22.81 31.88 C 25.13 30.84 23.61 27.14 21.20 28.09 M 29.21 28.09 C 26.86 29.15 28.37 32.88 30.82 31.89 C 33.11 30.80 31.63 27.19 29.21 28.09 M 37.15 28.11 C 34.86 29.24 36.43 32.87 38.85 31.89 C 41.13 30.74 39.58 27.14 37.15 28.11 Z" />
</g>
</svg>
