<?xml version="1.0" encoding="UTF-8" ?>
<!DOCTYPE svg PUBLIC "-//W3C//DTD SVG 1.1//EN" "http://www.w3.org/Graphics/SVG/1.1/DTD/svg11.dtd">
<svg width="60pt" height="60pt" viewBox="0 0 60 60" version="1.1" xmlns="http://www.w3.org/2000/svg">
<g id="#ffffffff">
<path fill="#ffffff" opacity="1.00" d=" M 0.00 0.00 L 60.00 0.00 L 60.00 60.00 L 0.00 60.00 L 0.00 0.00 M 30.60 10.58 C 28.07 12.76 27.39 16.11 26.01 18.99 C 24.39 21.02 22.42 22.74 20.60 24.60 C 18.09 27.50 13.63 27.19 11.10 30.11 C 8.41 33.08 4.09 35.58 4.04 40.03 C 3.94 43.54 7.01 45.74 9.17 48.01 C 7.50 49.71 5.65 51.28 4.22 53.20 C 3.30 54.76 5.19 56.61 6.77 55.81 C 8.70 54.37 10.28 52.52 12.00 50.83 C 14.68 53.97 18.77 57.67 23.13 55.19 C 27.27 51.91 31.69 48.17 33.16 42.87 C 34.11 39.89 36.93 38.13 38.91 35.87 C 41.42 32.58 46.19 32.92 48.91 29.88 C 51.59 26.94 55.86 24.44 55.96 20.02 C 56.09 16.50 53.01 14.27 50.85 11.97 C 52.53 10.27 54.37 8.69 55.83 6.78 C 56.65 5.15 54.80 3.32 53.18 4.20 C 51.28 5.66 49.71 7.49 48.02 9.17 C 45.73 7.00 43.51 3.90 39.98 4.05 C 35.78 4.04 33.39 8.05 30.60 10.58 Z" />
<path fill="#ffffff" opacity="1.00" d=" M 38.54 8.52 C 39.87 7.31 41.44 8.68 42.75 9.17 C 39.18 13.62 32.97 16.72 32.58 23.03 C 32.69 26.47 37.45 27.71 37.67 30.88 C 36.07 33.59 33.54 36.00 30.90 37.71 C 27.68 37.37 26.48 32.71 23.01 32.58 C 16.65 33.00 13.58 39.31 9.01 42.82 C 8.71 41.47 7.35 39.79 8.55 38.50 C 10.16 36.47 12.06 34.68 13.95 32.92 C 16.31 30.58 20.17 30.87 22.44 28.40 C 24.44 26.43 26.44 24.44 28.41 22.43 C 30.87 20.16 30.58 16.29 32.94 13.93 C 34.72 12.05 36.49 10.12 38.54 8.52 Z" />
</g>
<g id="#000000ff">
<path fill="#000000" opacity="1.00" d=" M 30.60 10.58 C 33.39 8.05 35.78 4.04 39.98 4.05 C 43.51 3.90 45.73 7.00 48.02 9.17 C 49.71 7.49 51.28 5.66 53.18 4.20 C 54.80 3.32 56.65 5.15 55.83 6.78 C 54.37 8.69 52.53 10.27 50.85 11.97 C 53.01 14.27 56.09 16.50 55.96 20.02 C 55.86 24.44 51.59 26.94 48.91 29.88 C 46.19 32.92 41.42 32.58 38.91 35.87 C 36.93 38.13 34.11 39.89 33.16 42.87 C 31.69 48.17 27.27 51.91 23.13 55.19 C 18.77 57.67 14.68 53.97 12.00 50.83 C 10.28 52.52 8.70 54.37 6.77 55.81 C 5.19 56.61 3.30 54.76 4.22 53.20 C 5.65 51.28 7.50 49.71 9.17 48.01 C 7.01 45.74 3.94 43.54 4.04 40.03 C 4.09 35.58 8.41 33.08 11.10 30.11 C 13.63 27.19 18.09 27.50 20.60 24.60 C 22.42 22.74 24.39 21.02 26.01 18.99 C 27.39 16.11 28.07 12.76 30.60 10.58 M 38.54 8.52 C 36.49 10.12 34.72 12.05 32.94 13.93 C 30.58 16.29 30.87 20.16 28.41 22.43 C 26.44 24.44 24.44 26.43 22.44 28.40 C 20.17 30.87 16.31 30.58 13.95 32.92 C 12.06 34.68 10.16 36.47 8.55 38.50 C 7.35 39.79 8.71 41.47 9.01 42.82 C 13.58 39.31 16.65 33.00 23.01 32.58 C 26.48 32.71 27.68 37.37 30.90 37.71 C 33.54 36.00 36.07 33.59 37.67 30.88 C 37.45 27.71 32.69 26.47 32.58 23.03 C 32.97 16.72 39.18 13.62 42.75 9.17 C 41.44 8.68 39.87 7.31 38.54 8.52 Z" />
</g>
</svg>
