<?xml version="1.0" encoding="UTF-8" ?>
<!DOCTYPE svg PUBLIC "-//W3C//DTD SVG 1.1//EN" "http://www.w3.org/Graphics/SVG/1.1/DTD/svg11.dtd">
<svg width="60pt" height="60pt" viewBox="0 0 60 60" version="1.1" xmlns="http://www.w3.org/2000/svg">
<g id="#ffffffff">
<path fill="#ffffff" opacity="1.00" d=" M 0.00 0.00 L 60.00 0.00 L 60.00 60.00 L 0.00 60.00 L 0.00 0.00 M 29.20 6.15 C 25.52 9.48 22.08 13.09 18.61 16.64 C 17.01 18.07 18.81 20.76 20.78 19.83 C 23.39 17.72 25.56 15.15 28.00 12.85 C 28.00 24.28 28.00 35.71 28.00 47.14 C 25.56 44.84 23.37 42.27 20.77 40.15 C 18.79 39.16 16.99 41.97 18.61 43.38 C 22.11 46.91 25.52 50.55 29.23 53.86 C 29.61 53.87 30.36 53.88 30.74 53.89 C 34.48 50.60 37.90 46.95 41.37 43.38 C 43.00 41.93 41.19 39.24 39.20 40.17 C 36.60 42.29 34.43 44.87 32.01 47.18 C 32.00 35.72 32.00 24.27 32.01 12.82 C 34.45 15.12 36.59 17.75 39.24 19.83 C 40.85 20.56 42.60 18.82 41.84 17.21 C 39.27 14.11 36.18 11.50 33.44 8.56 C 32.18 7.55 31.10 5.48 29.20 6.15 Z" />
</g>
<g id="#000000ff">
<path fill="#000000" opacity="1.00" d=" M 29.20 6.15 C 31.10 5.48 32.18 7.55 33.44 8.56 C 36.18 11.50 39.27 14.11 41.84 17.21 C 42.60 18.82 40.85 20.56 39.24 19.83 C 36.59 17.75 34.45 15.12 32.01 12.82 C 32.00 24.27 32.00 35.72 32.01 47.18 C 34.43 44.87 36.60 42.29 39.20 40.17 C 41.19 39.24 43.00 41.93 41.37 43.38 C 37.90 46.95 34.48 50.60 30.74 53.89 C 30.36 53.88 29.61 53.87 29.23 53.86 C 25.52 50.55 22.11 46.91 18.61 43.38 C 16.99 41.97 18.79 39.16 20.77 40.15 C 23.37 42.27 25.56 44.84 28.00 47.14 C 28.00 35.71 28.00 24.28 28.00 12.85 C 25.56 15.15 23.39 17.72 20.78 19.83 C 18.81 20.76 17.01 18.07 18.61 16.64 C 22.08 13.09 25.52 9.48 29.20 6.15 Z" />
</g>
</svg>
