<?xml version="1.0" encoding="UTF-8" ?>
<!DOCTYPE svg PUBLIC "-//W3C//DTD SVG 1.1//EN" "http://www.w3.org/Graphics/SVG/1.1/DTD/svg11.dtd">
<svg width="60pt" height="60pt" viewBox="0 0 60 60" version="1.1" xmlns="http://www.w3.org/2000/svg">
<g id="#ffffffff">
<path fill="#ffffff" opacity="1.00" d=" M 0.00 0.00 L 60.00 0.00 L 60.00 60.00 L 0.00 60.00 L 0.00 0.00 M 35.09 11.78 C 38.43 12.25 41.82 11.91 45.18 12.00 C 34.12 23.06 23.06 34.12 12.00 45.17 C 11.94 41.82 12.20 38.46 11.83 35.12 C 11.05 33.24 7.81 33.88 8.06 35.99 C 7.98 40.96 7.85 45.95 8.15 50.91 C 8.40 51.14 8.90 51.61 9.15 51.85 C 14.08 52.14 19.05 52.04 23.99 51.92 C 26.08 52.16 26.75 49.00 24.90 48.20 C 21.57 47.76 18.20 48.08 14.86 48.00 C 25.89 36.93 36.95 25.90 48.00 14.85 C 48.08 18.19 47.76 21.55 48.20 24.87 C 48.95 26.77 52.17 26.07 51.92 23.99 C 52.03 19.01 52.16 13.99 51.83 9.02 C 51.57 8.80 51.06 8.36 50.81 8.15 C 45.87 7.86 40.89 7.96 35.95 8.08 C 33.90 7.87 33.29 11.01 35.09 11.78 Z" />
</g>
<g id="#000000ff">
<path fill="#000000" opacity="1.00" d=" M 35.09 11.78 C 33.29 11.01 33.90 7.87 35.95 8.08 C 40.89 7.96 45.87 7.86 50.81 8.15 C 51.06 8.36 51.57 8.80 51.83 9.02 C 52.16 13.99 52.03 19.01 51.92 23.99 C 52.17 26.07 48.95 26.77 48.20 24.87 C 47.76 21.55 48.08 18.19 48.00 14.85 C 36.95 25.90 25.89 36.93 14.86 48.00 C 18.20 48.08 21.57 47.76 24.90 48.20 C 26.75 49.00 26.08 52.16 23.99 51.92 C 19.05 52.04 14.08 52.14 9.15 51.85 C 8.90 51.61 8.40 51.14 8.15 50.91 C 7.85 45.95 7.98 40.96 8.06 35.99 C 7.81 33.88 11.05 33.24 11.83 35.12 C 12.20 38.46 11.94 41.82 12.00 45.17 C 23.06 34.12 34.12 23.06 45.18 12.00 C 41.82 11.91 38.43 12.25 35.09 11.78 Z" />
</g>
</svg>
