<?xml version="1.0" encoding="UTF-8" ?>
<!DOCTYPE svg PUBLIC "-//W3C//DTD SVG 1.1//EN" "http://www.w3.org/Graphics/SVG/1.1/DTD/svg11.dtd">
<svg width="64pt" height="64pt" viewBox="0 0 64 64" version="1.1" xmlns="http://www.w3.org/2000/svg">
<g id="#ffffffff">
<path fill="#ffffff" opacity="1.00" d=" M 0.00 0.00 L 64.00 0.00 L 64.00 31.46 C 63.82 31.43 63.47 31.37 63.29 31.34 C 57.27 25.48 51.43 19.43 45.41 13.56 C 44.46 14.53 43.52 15.51 42.57 16.48 C 45.45 19.11 47.94 22.16 50.98 24.61 L 50.97 25.53 L 51.70 25.04 C 52.74 27.02 54.59 28.38 56.11 29.98 C 40.05 30.02 23.99 30.01 7.93 29.98 C 12.43 25.47 16.93 20.96 21.45 16.47 C 20.49 15.49 19.52 14.53 18.56 13.55 C 13.14 19.36 6.94 24.49 1.98 30.68 C 1.48 30.86 0.49 31.23 0.00 31.41 L 0.00 0.00 Z" />
<path fill="#ffffff" opacity="1.00" d=" M 0.00 32.54 C 0.18 32.56 0.53 32.62 0.71 32.65 C 6.71 38.50 12.59 44.48 18.51 50.42 C 19.49 49.47 20.47 48.52 21.45 47.58 C 16.97 43.02 12.42 38.55 7.92 34.01 C 23.98 34.00 40.04 33.99 56.10 34.01 C 51.59 38.47 47.22 43.08 42.57 47.41 C 43.54 48.46 44.55 49.47 45.60 50.43 C 50.84 44.52 57.16 39.55 62.02 33.33 C 62.51 33.15 63.50 32.78 64.00 32.60 L 64.00 64.00 L 0.00 64.00 L 0.00 32.54 Z" />
</g>
<g id="#000000ff">
<path fill="#000000" opacity="1.00" d=" M 18.56 13.55 C 19.52 14.53 20.49 15.49 21.45 16.47 C 16.93 20.96 12.43 25.47 7.93 29.98 C 23.99 30.01 40.05 30.02 56.11 29.98 C 54.59 28.38 52.74 27.02 51.70 25.04 L 50.97 25.53 L 50.98 24.61 C 47.94 22.16 45.45 19.11 42.57 16.48 C 43.52 15.51 44.46 14.53 45.41 13.56 C 51.43 19.43 57.27 25.48 63.29 31.34 C 63.47 31.37 63.82 31.43 64.00 31.46 L 64.00 32.60 C 63.50 32.78 62.51 33.15 62.02 33.33 C 57.16 39.55 50.84 44.52 45.60 50.43 C 44.55 49.47 43.54 48.46 42.57 47.41 C 47.22 43.08 51.59 38.47 56.10 34.01 C 40.04 33.99 23.98 34.00 7.92 34.01 C 12.42 38.55 16.97 43.02 21.45 47.58 C 20.47 48.52 19.49 49.47 18.51 50.42 C 12.59 44.48 6.71 38.50 0.71 32.65 C 0.53 32.62 0.18 32.56 0.00 32.54 L 0.00 31.41 C 0.49 31.23 1.48 30.86 1.98 30.68 C 6.94 24.49 13.14 19.36 18.56 13.55 Z" />
</g>
</svg>
