<?xml version="1.0" encoding="UTF-8" ?>
<!DOCTYPE svg PUBLIC "-//W3C//DTD SVG 1.1//EN" "http://www.w3.org/Graphics/SVG/1.1/DTD/svg11.dtd">
<svg width="60pt" height="60pt" viewBox="0 0 60 60" version="1.1" xmlns="http://www.w3.org/2000/svg">
<g id="#ffffffff">
<path fill="#ffffff" opacity="1.00" d=" M 0.00 0.00 L 60.00 0.00 L 60.00 60.00 L 0.00 60.00 L 0.00 0.00 M 21.97 7.08 C 13.23 9.37 5.14 16.52 4.14 25.86 C 3.14 33.37 7.33 40.59 13.29 44.88 C 13.56 48.78 11.84 52.48 8.41 54.43 C 6.78 55.99 9.83 56.18 10.85 55.86 C 15.77 55.55 19.00 51.47 23.07 49.46 C 32.54 51.03 43.16 49.16 50.02 42.00 C 56.17 36.07 57.91 26.02 53.48 18.59 C 47.42 7.90 33.40 3.85 21.97 7.08 Z" />
<path fill="#ffffff" opacity="1.00" d=" M 24.66 16.60 C 26.07 15.04 28.75 16.84 27.84 18.78 C 26.37 20.69 24.52 22.29 22.82 24.00 C 27.57 24.10 32.33 23.80 37.06 24.13 C 41.35 24.50 44.36 28.78 44.04 32.93 C 43.96 34.72 44.58 37.78 42.01 38.04 C 39.35 37.82 40.20 34.71 39.97 32.92 C 40.33 30.58 38.62 27.93 36.09 28.05 C 31.67 27.89 27.24 28.05 22.82 28.01 C 24.52 29.72 26.36 31.31 27.84 33.22 C 28.75 35.16 26.05 36.96 24.64 35.39 C 21.75 32.59 18.79 29.83 16.16 26.79 C 16.16 26.40 16.14 25.63 16.13 25.24 C 18.78 22.19 21.74 19.40 24.66 16.60 Z" />
</g>
<g id="#000000ff">
<path fill="#000000" opacity="1.00" d=" M 21.97 7.08 C 33.40 3.85 47.42 7.90 53.48 18.59 C 57.91 26.02 56.17 36.07 50.02 42.00 C 43.16 49.16 32.54 51.03 23.07 49.46 C 19.00 51.47 15.77 55.55 10.85 55.86 C 9.83 56.18 6.78 55.99 8.41 54.43 C 11.84 52.48 13.56 48.78 13.29 44.88 C 7.33 40.59 3.14 33.37 4.14 25.86 C 5.14 16.52 13.23 9.37 21.97 7.08 M 24.66 16.60 C 21.74 19.40 18.78 22.19 16.13 25.24 C 16.14 25.63 16.16 26.40 16.16 26.79 C 18.79 29.83 21.75 32.59 24.64 35.39 C 26.05 36.96 28.75 35.16 27.84 33.22 C 26.36 31.31 24.52 29.72 22.82 28.01 C 27.24 28.05 31.67 27.89 36.09 28.05 C 38.62 27.93 40.33 30.58 39.97 32.92 C 40.20 34.71 39.35 37.82 42.01 38.04 C 44.58 37.78 43.96 34.72 44.04 32.93 C 44.36 28.78 41.35 24.50 37.06 24.13 C 32.33 23.80 27.57 24.10 22.82 24.00 C 24.52 22.29 26.37 20.69 27.84 18.78 C 28.75 16.84 26.07 15.04 24.66 16.60 Z" />
</g>
</svg>
