<?xml version="1.0" encoding="UTF-8" ?>
<!DOCTYPE svg PUBLIC "-//W3C//DTD SVG 1.1//EN" "http://www.w3.org/Graphics/SVG/1.1/DTD/svg11.dtd">
<svg width="64pt" height="64pt" viewBox="0 0 64 64" version="1.1" xmlns="http://www.w3.org/2000/svg">
<g id="#ffffffff">
<path fill="#ffffff" opacity="1.00" d=" M 0.00 0.00 L 64.00 0.00 L 64.00 64.00 L 0.00 64.00 L 0.00 0.00 M 6.00 10.00 C 6.00 22.00 6.00 34.00 6.00 46.00 C 9.33 46.00 12.67 46.00 16.00 46.00 C 16.00 49.39 16.00 52.79 16.01 56.18 C 20.32 52.85 24.41 49.21 28.84 46.06 C 38.56 45.91 48.28 46.05 58.00 46.00 C 58.00 34.00 58.00 22.00 58.00 10.00 C 40.67 10.00 23.33 10.00 6.00 10.00 Z" />
<path fill="#ffffff" opacity="1.00" d=" M 10.00 14.00 C 24.67 14.00 39.33 14.00 54.00 14.00 C 54.00 23.33 54.00 32.67 54.00 42.00 C 45.08 42.02 36.16 41.97 27.24 42.02 C 24.87 43.99 22.44 45.90 20.02 47.80 C 20.00 45.87 20.00 43.93 19.99 42.00 C 16.66 42.00 13.33 42.00 10.00 42.00 C 10.00 32.67 10.00 23.33 10.00 14.00 M 27.44 18.55 C 24.30 21.71 21.14 24.85 18.00 28.00 C 21.14 31.15 24.29 34.30 27.47 37.42 C 28.39 36.47 29.32 35.53 30.25 34.58 C 28.72 33.07 27.24 31.52 25.71 30.01 C 30.13 30.08 34.57 29.81 38.98 30.13 C 42.49 31.06 42.09 35.18 42.02 38.00 C 43.35 38.00 44.68 38.00 46.01 38.00 C 46.01 36.30 46.05 34.59 45.87 32.89 C 45.40 29.10 41.86 25.99 38.03 26.03 C 33.93 25.92 29.83 26.05 25.73 25.99 C 27.22 24.48 28.73 22.98 30.25 21.50 C 29.30 20.53 28.37 19.54 27.44 18.55 Z" />
</g>
<g id="#000000ff">
<path fill="#000000" opacity="1.00" d=" M 6.00 10.00 C 23.33 10.00 40.67 10.00 58.00 10.00 C 58.00 22.00 58.00 34.00 58.00 46.00 C 48.28 46.05 38.56 45.91 28.84 46.06 C 24.41 49.21 20.32 52.85 16.01 56.18 C 16.00 52.79 16.00 49.39 16.00 46.00 C 12.67 46.00 9.33 46.00 6.00 46.00 C 6.00 34.00 6.00 22.00 6.00 10.00 M 10.00 14.00 C 10.00 23.33 10.00 32.67 10.00 42.00 C 13.33 42.00 16.66 42.00 19.99 42.00 C 20.00 43.93 20.00 45.87 20.02 47.80 C 22.44 45.90 24.87 43.99 27.24 42.02 C 36.16 41.97 45.08 42.02 54.00 42.00 C 54.00 32.67 54.00 23.33 54.00 14.00 C 39.33 14.00 24.67 14.00 10.00 14.00 Z" />
<path fill="#000000" opacity="1.00" d=" M 27.44 18.55 C 28.37 19.54 29.30 20.53 30.25 21.50 C 28.73 22.98 27.22 24.48 25.73 25.99 C 29.83 26.05 33.93 25.92 38.03 26.03 C 41.86 25.99 45.40 29.10 45.87 32.89 C 46.05 34.59 46.01 36.30 46.01 38.00 C 44.68 38.00 43.35 38.00 42.02 38.00 C 42.09 35.18 42.49 31.06 38.98 30.13 C 34.57 29.81 30.13 30.08 25.71 30.01 C 27.24 31.52 28.72 33.07 30.25 34.58 C 29.32 35.53 28.39 36.47 27.47 37.42 C 24.29 34.30 21.14 31.15 18.00 28.00 C 21.14 24.85 24.30 21.71 27.44 18.55 Z" />
</g>
</svg>
