<?xml version="1.0" encoding="UTF-8" ?>
<!DOCTYPE svg PUBLIC "-//W3C//DTD SVG 1.1//EN" "http://www.w3.org/Graphics/SVG/1.1/DTD/svg11.dtd">
<svg width="60pt" height="60pt" viewBox="0 0 60 60" version="1.1" xmlns="http://www.w3.org/2000/svg">
<g id="#ffffffff">
<path fill="#ffffff" opacity="1.00" d=" M 0.00 0.00 L 60.00 0.00 L 60.00 60.00 L 0.00 60.00 L 0.00 0.00 M 6.34 10.39 C 4.59 11.15 3.82 13.12 4.00 14.93 C 4.03 25.32 3.92 35.72 4.05 46.11 C 3.94 48.61 6.56 50.31 8.87 50.00 C 22.93 50.01 37.00 50.00 51.06 50.00 C 53.40 50.35 56.01 48.60 55.94 46.10 C 56.08 35.70 55.97 25.29 56.00 14.88 C 56.33 12.54 54.58 9.90 52.04 10.05 C 38.36 9.91 24.68 10.07 11.00 9.97 C 9.45 10.08 7.80 9.78 6.34 10.39 Z" />
<path fill="#ffffff" opacity="1.00" d=" M 32.16 24.94 C 30.58 19.35 37.84 13.18 42.59 17.39 C 46.80 22.14 40.67 29.40 35.07 27.85 C 30.40 32.25 26.07 37.01 21.35 41.36 C 19.99 43.04 17.26 41.11 18.14 39.23 C 20.29 36.63 22.87 34.43 25.19 31.99 C 22.40 29.00 18.46 26.40 17.90 22.03 C 17.47 19.97 18.27 17.98 18.81 16.03 C 22.58 19.70 26.27 23.47 30.01 27.18 C 30.73 26.44 31.44 25.69 32.16 24.94 Z" />
<path fill="#ffffff" opacity="1.00" d=" M 35.42 32.58 C 37.54 34.82 39.94 36.81 41.87 39.23 C 42.49 40.89 40.88 42.50 39.22 41.85 C 36.81 39.92 34.83 37.52 32.59 35.40 C 33.53 34.46 34.48 33.52 35.42 32.58 Z" />
</g>
<g id="#000000ff">
<path fill="#000000" opacity="1.00" d=" M 6.34 10.39 C 7.80 9.78 9.45 10.08 11.00 9.97 C 24.68 10.07 38.36 9.91 52.04 10.05 C 54.58 9.90 56.33 12.54 56.00 14.88 C 55.97 25.29 56.08 35.70 55.94 46.10 C 56.01 48.60 53.40 50.35 51.06 50.00 C 37.00 50.00 22.93 50.01 8.87 50.00 C 6.56 50.31 3.94 48.61 4.05 46.11 C 3.92 35.72 4.03 25.32 4.00 14.93 C 3.82 13.12 4.59 11.15 6.34 10.39 M 32.16 24.94 C 31.44 25.69 30.73 26.44 30.01 27.18 C 26.27 23.47 22.58 19.70 18.81 16.03 C 18.27 17.98 17.47 19.97 17.90 22.03 C 18.46 26.40 22.40 29.00 25.19 31.99 C 22.87 34.43 20.29 36.63 18.14 39.23 C 17.26 41.11 19.99 43.04 21.35 41.36 C 26.07 37.01 30.40 32.25 35.07 27.85 C 40.67 29.40 46.80 22.14 42.59 17.39 C 37.84 13.18 30.58 19.35 32.16 24.94 M 35.42 32.58 C 34.48 33.52 33.53 34.46 32.59 35.40 C 34.83 37.52 36.81 39.92 39.22 41.85 C 40.88 42.50 42.49 40.89 41.87 39.23 C 39.94 36.81 37.54 34.82 35.42 32.58 Z" />
</g>
</svg>
