<?xml version="1.0" encoding="UTF-8" ?>
<!DOCTYPE svg PUBLIC "-//W3C//DTD SVG 1.1//EN" "http://www.w3.org/Graphics/SVG/1.1/DTD/svg11.dtd">
<svg width="60pt" height="60pt" viewBox="0 0 60 60" version="1.1" xmlns="http://www.w3.org/2000/svg">
<g id="#ffffffff">
<path fill="#ffffff" opacity="1.00" d=" M 0.00 0.00 L 60.00 0.00 L 60.00 60.00 L 0.00 60.00 L 0.00 0.00 M 20.31 6.40 C 17.62 7.55 17.16 11.67 19.70 13.23 C 22.11 15.22 26.11 13.12 25.99 10.05 C 26.13 7.27 22.80 5.00 20.31 6.40 M 18.16 21.04 C 17.96 25.23 17.65 29.53 18.36 33.67 C 20.02 37.01 24.30 35.78 27.28 36.02 C 27.38 34.71 27.48 33.39 27.59 32.08 L 25.99 31.95 C 25.81 28.09 26.48 24.09 25.59 20.31 C 24.26 16.92 18.83 17.50 18.16 21.04 M 8.30 24.03 C 8.40 28.07 8.85 32.11 9.40 36.11 C 9.93 39.54 12.70 41.92 15.56 43.54 C 15.02 45.94 14.02 48.31 14.13 50.80 C 14.71 52.07 16.41 52.36 17.45 51.45 C 18.55 49.10 18.68 46.43 19.74 44.07 C 22.06 43.91 24.39 43.98 26.72 44.01 C 26.82 42.67 26.92 41.33 27.02 39.98 C 22.70 39.68 16.66 41.49 14.09 36.83 C 12.48 32.45 13.14 27.59 11.94 23.11 C 11.31 21.19 7.84 21.92 8.30 24.03 M 31.75 28.07 C 31.06 36.03 30.61 44.02 30.00 52.00 C 37.33 52.00 44.67 52.00 52.00 52.00 C 52.00 42.67 52.00 33.33 52.00 24.00 C 46.63 24.06 41.25 23.88 35.89 24.05 C 33.65 23.92 31.70 25.84 31.75 28.07 Z" />
</g>
<g id="#000000ff">
<path fill="#000000" opacity="1.00" d=" M 20.31 6.40 C 22.80 5.00 26.13 7.27 25.99 10.05 C 26.11 13.12 22.11 15.22 19.70 13.23 C 17.16 11.67 17.62 7.55 20.31 6.40 Z" />
<path fill="#000000" opacity="1.00" d=" M 18.16 21.04 C 18.83 17.50 24.26 16.92 25.59 20.31 C 26.48 24.09 25.81 28.09 25.99 31.95 L 27.59 32.08 C 27.48 33.39 27.38 34.71 27.28 36.02 C 24.30 35.78 20.02 37.01 18.36 33.67 C 17.65 29.53 17.96 25.23 18.16 21.04 Z" />
<path fill="#000000" opacity="1.00" d=" M 8.30 24.03 C 7.84 21.92 11.31 21.19 11.94 23.11 C 13.14 27.59 12.48 32.45 14.09 36.83 C 16.66 41.49 22.70 39.68 27.02 39.98 C 26.92 41.33 26.82 42.67 26.72 44.01 C 24.39 43.98 22.06 43.91 19.74 44.07 C 18.68 46.43 18.55 49.10 17.45 51.45 C 16.41 52.36 14.71 52.07 14.13 50.80 C 14.02 48.31 15.02 45.94 15.56 43.54 C 12.70 41.92 9.93 39.54 9.40 36.11 C 8.85 32.11 8.40 28.07 8.30 24.03 Z" />
<path fill="#000000" opacity="1.00" d=" M 31.75 28.07 C 31.70 25.84 33.65 23.92 35.89 24.05 C 41.25 23.88 46.63 24.06 52.00 24.00 C 52.00 33.33 52.00 42.67 52.00 52.00 C 44.67 52.00 37.33 52.00 30.00 52.00 C 30.61 44.02 31.06 36.03 31.75 28.07 Z" />
</g>
</svg>
