<?xml version="1.0" encoding="UTF-8" ?>
<!DOCTYPE svg PUBLIC "-//W3C//DTD SVG 1.1//EN" "http://www.w3.org/Graphics/SVG/1.1/DTD/svg11.dtd">
<svg width="64pt" height="64pt" viewBox="0 0 64 64" version="1.1" xmlns="http://www.w3.org/2000/svg">
<g id="#ffffffff">
<path fill="#ffffff" opacity="1.00" d=" M 0.00 0.00 L 64.00 0.00 L 64.00 64.00 L 0.00 64.00 L 0.00 0.00 M 23.38 7.30 C 23.29 9.41 23.28 11.99 21.15 13.13 C 19.06 14.62 16.59 13.39 14.67 12.27 C 10.36 16.24 7.12 21.43 6.05 27.24 C 7.97 28.13 10.11 29.58 9.97 31.98 C 10.14 34.43 7.91 35.86 6.02 36.85 C 7.20 42.61 10.33 47.79 14.66 51.73 C 16.59 50.58 19.08 49.42 21.18 50.89 C 23.29 52.03 23.29 54.60 23.37 56.69 C 29.01 58.33 35.00 58.32 40.64 56.69 C 40.70 54.59 40.68 52.01 42.83 50.88 C 44.91 49.36 47.42 50.52 49.35 51.68 C 53.74 47.80 56.62 42.53 58.00 36.87 C 56.12 35.87 53.87 34.47 54.02 32.01 C 53.84 29.52 56.14 28.14 58.03 27.11 C 56.70 21.41 53.66 16.21 49.33 12.27 C 47.42 13.39 44.95 14.62 42.87 13.14 C 40.72 12.01 40.69 9.42 40.63 7.31 C 34.99 5.67 29.01 5.69 23.38 7.30 Z" />
<path fill="#ffffff" opacity="1.00" d=" M 26.93 10.70 C 30.24 9.84 33.69 9.88 37.01 10.65 C 37.72 13.05 38.79 15.63 41.21 16.76 C 43.47 18.10 46.13 17.50 48.56 17.15 C 50.68 19.61 52.40 22.40 53.30 25.53 C 51.65 27.33 49.90 29.42 50.03 32.03 C 49.91 34.63 51.69 36.68 53.31 38.49 C 52.38 41.61 50.68 44.41 48.55 46.85 C 43.55 44.97 37.77 47.83 37.02 53.28 C 33.72 54.10 30.30 54.14 26.99 53.35 C 26.27 50.93 25.17 48.33 22.73 47.20 C 20.48 45.89 17.84 46.50 15.43 46.85 C 13.35 44.41 11.66 41.66 10.60 38.62 C 12.26 36.74 14.11 34.63 13.96 31.94 C 14.06 29.30 12.20 27.28 10.60 25.42 C 11.83 22.37 13.48 19.47 15.76 17.07 C 20.62 19.06 26.24 15.93 26.93 10.70 M 20.42 24.02 C 19.00 29.37 16.44 34.45 15.87 39.99 C 17.24 40.00 18.61 40.00 19.98 40.00 C 19.99 39.50 20.01 38.50 20.02 38.00 C 21.34 38.00 22.66 38.00 23.98 38.00 C 23.99 38.50 24.01 39.50 24.02 40.00 C 25.39 40.00 26.76 40.00 28.13 39.99 C 27.56 34.45 25.00 29.36 23.58 24.01 C 22.53 24.01 21.47 24.01 20.42 24.02 M 30.00 23.97 C 30.00 29.32 30.00 34.66 30.00 40.00 C 31.33 40.00 32.66 40.00 34.00 40.00 C 34.00 38.73 34.00 37.47 34.00 36.20 C 38.10 35.84 41.45 31.38 39.41 27.45 C 37.83 23.73 33.39 23.83 30.00 23.97 M 42.00 24.00 C 42.00 29.33 42.00 34.67 42.00 40.00 C 43.33 40.00 44.67 40.00 46.00 40.00 C 46.00 34.67 46.00 29.33 46.00 24.00 C 44.67 24.00 43.33 24.00 42.00 24.00 Z" />
<path fill="#ffffff" opacity="1.00" d=" M 34.05 27.68 C 36.47 28.56 36.49 31.45 34.05 32.32 C 34.02 30.77 34.01 29.23 34.05 27.68 Z" />
</g>
<g id="#000000ff">
<path fill="#000000" opacity="1.00" d=" M 23.38 7.30 C 29.01 5.69 34.99 5.67 40.63 7.31 C 40.69 9.42 40.72 12.01 42.87 13.14 C 44.95 14.62 47.42 13.39 49.33 12.27 C 53.66 16.21 56.70 21.41 58.03 27.11 C 56.14 28.14 53.84 29.52 54.02 32.01 C 53.87 34.47 56.12 35.87 58.00 36.87 C 56.62 42.53 53.74 47.80 49.35 51.68 C 47.42 50.52 44.91 49.36 42.83 50.88 C 40.68 52.01 40.70 54.59 40.64 56.69 C 35.00 58.32 29.01 58.33 23.37 56.69 C 23.29 54.60 23.29 52.03 21.18 50.89 C 19.08 49.42 16.59 50.58 14.66 51.73 C 10.33 47.79 7.20 42.61 6.02 36.85 C 7.91 35.86 10.14 34.43 9.97 31.98 C 10.11 29.58 7.97 28.13 6.05 27.24 C 7.12 21.43 10.36 16.24 14.67 12.27 C 16.59 13.39 19.06 14.62 21.15 13.13 C 23.28 11.99 23.29 9.41 23.38 7.30 M 26.93 10.70 C 26.24 15.93 20.62 19.06 15.76 17.07 C 13.48 19.47 11.83 22.37 10.60 25.42 C 12.20 27.28 14.06 29.30 13.96 31.94 C 14.11 34.63 12.26 36.74 10.60 38.62 C 11.66 41.66 13.35 44.41 15.43 46.85 C 17.84 46.50 20.48 45.89 22.73 47.20 C 25.17 48.33 26.27 50.93 26.99 53.35 C 30.30 54.14 33.72 54.10 37.02 53.28 C 37.77 47.83 43.55 44.97 48.55 46.85 C 50.68 44.41 52.38 41.61 53.31 38.49 C 51.69 36.68 49.91 34.63 50.03 32.03 C 49.90 29.42 51.65 27.33 53.30 25.53 C 52.40 22.40 50.68 19.61 48.56 17.15 C 46.13 17.50 43.47 18.10 41.21 16.76 C 38.79 15.63 37.72 13.05 37.01 10.65 C 33.69 9.88 30.24 9.84 26.93 10.70 Z" />
<path fill="#000000" opacity="1.00" d=" M 20.42 24.02 C 21.47 24.01 22.53 24.01 23.58 24.01 C 25.00 29.36 27.56 34.45 28.13 39.99 C 26.76 40.00 25.39 40.00 24.02 40.00 C 24.01 39.50 23.99 38.50 23.98 38.00 C 22.66 38.00 21.34 38.00 20.02 38.00 C 20.01 38.50 19.99 39.50 19.98 40.00 C 18.61 40.00 17.24 40.00 15.87 39.99 C 16.44 34.45 19.00 29.37 20.42 24.02 Z" />
<path fill="#000000" opacity="1.00" d=" M 30.00 23.97 C 33.39 23.83 37.83 23.73 39.41 27.45 C 41.45 31.38 38.10 35.84 34.00 36.20 C 34.00 37.47 34.00 38.73 34.00 40.00 C 32.66 40.00 31.33 40.00 30.00 40.00 C 30.00 34.66 30.00 29.32 30.00 23.97 M 34.05 27.68 C 34.01 29.23 34.02 30.77 34.05 32.32 C 36.49 31.45 36.47 28.56 34.05 27.68 Z" />
<path fill="#000000" opacity="1.00" d=" M 42.00 24.00 C 43.33 24.00 44.67 24.00 46.00 24.00 C 46.00 29.33 46.00 34.67 46.00 40.00 C 44.67 40.00 43.33 40.00 42.00 40.00 C 42.00 34.67 42.00 29.33 42.00 24.00 Z" />
</g>
</svg>
