<?xml version="1.0" encoding="UTF-8" ?>
<!DOCTYPE svg PUBLIC "-//W3C//DTD SVG 1.1//EN" "http://www.w3.org/Graphics/SVG/1.1/DTD/svg11.dtd">
<svg width="60pt" height="60pt" viewBox="0 0 60 60" version="1.1" xmlns="http://www.w3.org/2000/svg">
<g id="#ffffffff">
<path fill="#ffffff" opacity="1.00" d=" M 0.00 0.00 L 60.00 0.00 L 60.00 60.00 L 0.00 60.00 L 0.00 0.00 M 4.00 14.85 C 4.03 25.27 3.93 35.69 4.05 46.11 C 3.97 48.18 5.87 49.97 7.90 49.95 C 13.57 50.20 19.27 49.73 24.94 50.14 C 26.51 50.31 27.14 51.92 28.05 52.96 C 27.89 39.95 28.11 26.93 27.95 13.92 C 27.98 11.89 26.19 9.97 24.12 10.05 C 18.74 9.95 13.35 9.96 7.96 10.04 C 5.47 9.95 3.66 12.50 4.00 14.85 M 32.04 13.91 C 31.89 26.92 32.11 39.93 31.94 52.93 C 32.95 51.62 34.02 49.88 35.93 50.04 C 41.32 49.85 46.72 50.15 52.11 49.95 C 54.59 49.99 56.33 47.45 56.00 45.11 C 56.01 35.06 56.00 25.02 56.00 14.97 C 56.34 12.62 54.66 9.94 52.09 10.05 C 46.68 9.96 41.25 9.95 35.83 10.05 C 33.82 10.04 32.00 11.90 32.04 13.91 Z" />
<path fill="#ffffff" opacity="1.00" d=" M 14.39 14.40 C 19.09 12.75 22.69 18.92 21.87 23.04 C 21.67 25.88 18.63 26.92 17.29 29.07 C 17.12 34.33 18.10 39.57 17.85 44.82 C 17.15 46.36 14.85 46.36 14.14 44.82 C 13.90 39.57 14.87 34.34 14.71 29.09 C 13.59 27.11 10.99 26.25 10.34 23.95 C 9.25 20.36 11.05 16.12 14.39 14.40 Z" />
<path fill="#ffffff" opacity="1.00" d=" M 37.09 20.18 C 41.38 19.82 45.72 19.97 50.03 20.07 C 52.09 19.86 52.72 23.03 50.87 23.82 C 46.59 24.19 42.27 24.02 37.98 23.93 C 35.90 24.12 35.29 21.03 37.09 20.18 Z" />
<path fill="#ffffff" opacity="1.00" d=" M 37.13 28.17 C 40.33 27.86 43.57 27.87 46.77 28.15 C 47.84 28.73 48.21 29.64 47.89 30.86 C 46.54 32.71 43.93 31.76 41.99 32.05 C 40.05 31.74 37.35 32.76 36.09 30.78 C 35.82 29.64 36.17 28.77 37.13 28.17 Z" />
<path fill="#ffffff" opacity="1.00" d=" M 37.13 36.17 C 41.41 35.82 45.73 35.97 50.03 36.07 C 52.13 35.88 52.73 39.08 50.82 39.83 C 46.55 40.17 42.24 40.03 37.96 39.93 C 35.88 40.13 35.28 36.95 37.13 36.17 Z" />
</g>
<g id="#000000ff">
<path fill="#968176" opacity="1.00" d=" M 4.00 14.85 C 3.66 12.50 5.47 9.95 7.96 10.04 C 13.35 9.96 18.74 9.95 24.12 10.05 C 26.19 9.97 27.98 11.89 27.95 13.92 C 28.11 26.93 27.89 39.95 28.05 52.96 C 27.14 51.92 26.51 50.31 24.94 50.14 C 19.27 49.73 13.57 50.20 7.90 49.95 C 5.87 49.97 3.97 48.18 4.05 46.11 C 3.93 35.69 4.03 25.27 4.00 14.85 M 14.39 14.40 C 11.05 16.12 9.25 20.36 10.34 23.95 C 10.99 26.25 13.59 27.11 14.71 29.09 C 14.87 34.34 13.90 39.57 14.14 44.82 C 14.85 46.36 17.15 46.36 17.85 44.82 C 18.10 39.57 17.12 34.33 17.29 29.07 C 18.63 26.92 21.67 25.88 21.87 23.04 C 22.69 18.92 19.09 12.75 14.39 14.40 Z" />
<path fill="#968176" opacity="1.00" d=" M 32.04 13.91 C 32.00 11.90 33.82 10.04 35.83 10.05 C 41.25 9.95 46.68 9.96 52.09 10.05 C 54.66 9.94 56.34 12.62 56.00 14.97 C 56.00 25.02 56.01 35.06 56.00 45.11 C 56.33 47.45 54.59 49.99 52.11 49.95 C 46.72 50.15 41.32 49.85 35.93 50.04 C 34.02 49.88 32.95 51.62 31.94 52.93 C 32.11 39.93 31.89 26.92 32.04 13.91 M 37.09 20.18 C 35.29 21.03 35.90 24.12 37.98 23.93 C 42.27 24.02 46.59 24.19 50.87 23.82 C 52.72 23.03 52.09 19.86 50.03 20.07 C 45.72 19.97 41.38 19.82 37.09 20.18 M 37.13 28.17 C 36.17 28.77 35.82 29.64 36.09 30.78 C 37.35 32.76 40.05 31.74 41.99 32.05 C 43.93 31.76 46.54 32.71 47.89 30.86 C 48.21 29.64 47.84 28.73 46.77 28.15 C 43.57 27.87 40.33 27.86 37.13 28.17 M 37.13 36.17 C 35.28 36.95 35.88 40.13 37.96 39.93 C 42.24 40.03 46.55 40.17 50.82 39.83 C 52.73 39.08 52.13 35.88 50.03 36.07 C 45.73 35.97 41.41 35.82 37.13 36.17 Z" />
</g>
</svg>
