<?xml version="1.0" encoding="UTF-8" ?>
<!DOCTYPE svg PUBLIC "-//W3C//DTD SVG 1.1//EN" "http://www.w3.org/Graphics/SVG/1.1/DTD/svg11.dtd">
<svg width="60pt" height="60pt" viewBox="0 0 60 60" version="1.1" xmlns="http://www.w3.org/2000/svg">
<g id="#ffffffff">
<path fill="#ffffff" opacity="1.00" d=" M 0.00 0.00 L 60.00 0.00 L 60.00 60.00 L 0.00 60.00 L 0.00 0.00 M 18.57 6.87 C 15.80 7.28 12.98 7.57 10.30 8.44 C 8.08 9.31 7.89 11.93 7.99 13.97 C 8.14 20.53 7.36 27.33 9.59 33.64 C 12.67 42.62 20.02 49.70 28.51 53.67 C 30.26 54.50 32.09 53.49 33.62 52.66 C 38.79 49.73 43.48 45.79 46.81 40.82 C 51.59 34.25 52.37 25.89 52.01 18.01 C 51.66 14.85 53.25 10.13 49.63 8.40 C 39.51 5.95 28.89 5.33 18.57 6.87 Z" />
<path fill="#ffffff" opacity="1.00" d=" M 26.39 14.59 C 32.48 12.47 39.67 16.27 41.42 22.44 C 43.49 28.48 39.71 35.63 33.60 37.40 C 27.56 39.50 20.38 35.73 18.59 29.62 C 16.48 23.55 20.26 16.37 26.39 14.59 M 25.91 19.04 C 29.55 22.77 33.26 26.43 36.96 30.10 C 38.52 26.92 38.29 22.81 35.59 20.31 C 33.09 17.69 29.04 17.49 25.91 19.04 M 23.04 21.91 C 21.34 25.25 21.81 29.67 24.84 32.09 C 27.39 34.38 31.13 34.37 34.09 32.96 C 30.44 29.25 26.77 25.55 23.04 21.91 Z" />
</g>
<g id="#000000ff">
<path fill="#968176" opacity="1.00" d=" M 18.57 6.87 C 28.89 5.33 39.51 5.95 49.63 8.40 C 53.25 10.13 51.66 14.85 52.01 18.01 C 52.37 25.89 51.59 34.25 46.81 40.82 C 43.48 45.79 38.79 49.73 33.62 52.66 C 32.09 53.49 30.26 54.50 28.51 53.67 C 20.02 49.70 12.67 42.62 9.59 33.64 C 7.36 27.33 8.14 20.53 7.99 13.97 C 7.89 11.93 8.08 9.31 10.30 8.44 C 12.98 7.57 15.80 7.28 18.57 6.87 M 26.39 14.59 C 20.26 16.37 16.48 23.55 18.59 29.62 C 20.38 35.73 27.56 39.50 33.60 37.40 C 39.71 35.63 43.49 28.48 41.42 22.44 C 39.67 16.27 32.48 12.47 26.39 14.59 Z" />
<path fill="#968176" opacity="1.00" d=" M 25.91 19.04 C 29.04 17.49 33.09 17.69 35.59 20.31 C 38.29 22.81 38.52 26.92 36.96 30.10 C 33.26 26.43 29.55 22.77 25.91 19.04 Z" />
<path fill="#968176" opacity="1.00" d=" M 23.04 21.91 C 26.77 25.55 30.44 29.25 34.09 32.96 C 31.13 34.37 27.39 34.38 24.84 32.09 C 21.81 29.67 21.34 25.25 23.04 21.91 Z" />
</g>
</svg>
