<?xml version="1.0" encoding="UTF-8" ?>
<!DOCTYPE svg PUBLIC "-//W3C//DTD SVG 1.1//EN" "http://www.w3.org/Graphics/SVG/1.1/DTD/svg11.dtd">
<svg width="64pt" height="64pt" viewBox="0 0 64 64" version="1.1" xmlns="http://www.w3.org/2000/svg">
<g id="#ffffffff">
<path fill="#ffffff" opacity="1.00" d=" M 0.00 0.00 L 64.00 0.00 L 64.00 64.00 L 0.00 64.00 L 0.00 0.00 M 14.00 10.00 C 14.00 24.67 14.00 39.33 14.00 54.00 C 15.33 54.00 16.67 54.00 18.00 54.00 C 18.00 39.33 18.00 24.67 18.00 10.00 C 16.67 10.00 15.33 10.00 14.00 10.00 M 26.01 10.19 C 25.99 24.73 25.99 39.27 26.01 53.81 C 36.51 46.53 47.01 39.25 57.53 32.00 C 47.01 24.75 36.51 17.47 26.01 10.19 Z" />
<path fill="#ffffff" opacity="1.00" d=" M 30.00 17.81 C 36.86 22.51 43.69 27.27 50.53 32.00 C 43.69 36.73 36.86 41.49 30.00 46.19 C 30.00 36.73 30.00 27.27 30.00 17.81 Z" />
</g>
<g id="#000000ff">
<path fill="#000000" opacity="1.00" d=" M 14.00 10.00 C 15.33 10.00 16.67 10.00 18.00 10.00 C 18.00 24.67 18.00 39.33 18.00 54.00 C 16.67 54.00 15.33 54.00 14.00 54.00 C 14.00 39.33 14.00 24.67 14.00 10.00 Z" />
<path fill="#000000" opacity="1.00" d=" M 26.01 10.19 C 36.51 17.47 47.01 24.75 57.53 32.00 C 47.01 39.25 36.51 46.53 26.01 53.81 C 25.99 39.27 25.99 24.73 26.01 10.19 M 30.00 17.81 C 30.00 27.27 30.00 36.73 30.00 46.19 C 36.86 41.49 43.69 36.73 50.53 32.00 C 43.69 27.27 36.86 22.51 30.00 17.81 Z" />
</g>
</svg>
