<?xml version="1.0" encoding="UTF-8" ?>
<!DOCTYPE svg PUBLIC "-//W3C//DTD SVG 1.1//EN" "http://www.w3.org/Graphics/SVG/1.1/DTD/svg11.dtd">
<svg width="60pt" height="60pt" viewBox="0 0 60 60" version="1.1" xmlns="http://www.w3.org/2000/svg">
<g id="#ffffffff">
<path fill="#ffffff" opacity="1.00" d=" M 0.00 0.00 L 60.00 0.00 L 60.00 60.00 L 0.00 60.00 L 0.00 0.00 M 13.47 6.56 C 11.03 7.63 9.79 10.33 10.00 12.91 C 9.98 23.94 10.02 34.98 9.99 46.02 C 9.79 49.47 11.96 53.86 15.83 53.95 C 26.23 54.06 36.63 54.00 47.03 53.98 C 48.22 54.11 50.21 53.62 49.93 52.05 C 50.26 50.45 48.29 49.85 47.06 50.02 C 36.68 49.90 26.30 50.14 15.93 49.93 C 13.44 50.18 13.41 45.85 15.90 46.08 C 25.97 45.83 36.06 46.16 46.14 45.94 C 48.62 45.97 50.32 43.42 50.00 41.10 C 50.01 31.05 50.00 21.00 50.00 10.95 C 50.20 8.94 49.15 6.55 46.98 6.16 C 42.65 5.76 38.29 6.11 33.94 6.00 C 27.14 6.33 20.16 5.30 13.47 6.56 Z" />
<path fill="#ffffff" opacity="1.00" d=" M 29.25 12.15 C 29.63 12.15 30.39 12.16 30.77 12.16 C 33.31 14.28 35.70 16.63 37.79 19.19 C 38.63 20.77 36.82 22.59 35.23 21.83 C 34.04 20.96 33.03 19.88 31.98 18.87 C 31.92 22.86 32.24 26.88 31.82 30.86 C 31.12 32.34 28.90 32.36 28.18 30.88 C 27.76 26.89 28.08 22.87 28.02 18.87 C 26.53 20.02 25.37 22.37 23.17 21.90 C 21.99 21.31 21.58 19.60 22.60 18.68 C 24.70 16.39 26.85 14.12 29.25 12.15 Z" />
<path fill="#ffffff" opacity="1.00" d=" M 29.14 36.10 C 31.56 35.14 33.14 38.73 30.84 39.89 C 28.42 40.86 26.88 37.27 29.14 36.10 Z" />
</g>
<g id="#000000ff">
<path fill="#000000" opacity="1.00" d=" M 13.47 6.56 C 20.16 5.30 27.14 6.33 33.94 6.00 C 38.29 6.11 42.65 5.76 46.98 6.16 C 49.15 6.55 50.20 8.94 50.00 10.95 C 50.00 21.00 50.01 31.05 50.00 41.10 C 50.32 43.42 48.62 45.97 46.14 45.94 C 36.06 46.16 25.97 45.83 15.90 46.08 C 13.41 45.85 13.44 50.18 15.93 49.93 C 26.30 50.14 36.68 49.90 47.06 50.02 C 48.29 49.85 50.26 50.45 49.93 52.05 C 50.21 53.62 48.22 54.11 47.03 53.98 C 36.63 54.00 26.23 54.06 15.83 53.95 C 11.96 53.86 9.79 49.47 9.99 46.02 C 10.02 34.98 9.98 23.94 10.00 12.91 C 9.79 10.33 11.03 7.63 13.47 6.56 M 29.25 12.15 C 26.85 14.12 24.70 16.39 22.60 18.68 C 21.58 19.60 21.99 21.31 23.17 21.90 C 25.37 22.37 26.53 20.02 28.02 18.87 C 28.08 22.87 27.76 26.89 28.18 30.88 C 28.90 32.36 31.12 32.34 31.82 30.86 C 32.24 26.88 31.92 22.86 31.98 18.87 C 33.03 19.88 34.04 20.96 35.23 21.83 C 36.82 22.59 38.63 20.77 37.79 19.19 C 35.70 16.63 33.31 14.28 30.77 12.16 C 30.39 12.16 29.63 12.15 29.25 12.15 M 29.14 36.10 C 26.88 37.27 28.42 40.86 30.84 39.89 C 33.14 38.73 31.56 35.14 29.14 36.10 Z" />
</g>
</svg>
