<?xml version="1.0" encoding="UTF-8" ?>
<!DOCTYPE svg PUBLIC "-//W3C//DTD SVG 1.1//EN" "http://www.w3.org/Graphics/SVG/1.1/DTD/svg11.dtd">
<svg width="64pt" height="64pt" viewBox="0 0 64 64" version="1.1" xmlns="http://www.w3.org/2000/svg">
<g id="#ffffffff">
<path fill="#ffffff" opacity="1.00" d=" M 0.00 0.00 L 64.00 0.00 L 64.00 64.00 L 0.00 64.00 L 0.00 0.00 M 16.01 10.00 C 16.01 10.50 15.99 11.50 15.99 12.00 C 12.66 12.00 9.33 12.00 6.00 12.00 C 6.00 25.33 6.00 38.67 6.00 52.00 C 23.33 52.00 40.67 52.00 58.00 52.00 C 58.00 38.67 58.00 25.33 58.00 12.00 C 54.67 12.00 51.34 12.00 48.01 12.00 C 48.01 11.50 47.99 10.50 47.99 10.00 C 37.33 10.00 26.67 10.00 16.01 10.00 Z" />
<path fill="#ffffff" opacity="1.00" d=" M 20.00 14.00 C 23.47 14.00 26.94 14.00 30.41 14.00 C 26.97 19.29 23.59 24.63 20.08 29.89 C 19.92 24.59 20.03 19.30 20.00 14.00 Z" />
<path fill="#ffffff" opacity="1.00" d=" M 35.20 14.00 C 37.01 14.00 38.82 14.00 40.63 14.00 C 38.49 17.34 36.38 20.69 34.22 24.01 C 32.39 24.00 30.56 24.00 28.73 23.98 C 30.86 20.64 33.03 17.33 35.20 14.00 Z" />
<path fill="#ffffff" opacity="1.00" d=" M 10.00 16.00 C 12.00 16.00 14.00 16.00 16.00 16.00 C 16.00 17.33 16.00 18.67 16.00 20.00 C 14.00 20.00 12.00 20.00 10.00 20.00 C 10.00 18.67 10.00 17.33 10.00 16.00 Z" />
<path fill="#ffffff" opacity="1.00" d=" M 48.00 16.00 C 50.00 16.00 52.00 16.00 54.00 16.00 C 54.00 26.67 54.00 37.33 54.00 48.00 C 39.33 48.00 24.67 48.00 10.00 48.00 C 10.00 45.33 10.00 42.67 10.00 40.00 C 12.00 40.00 14.00 40.00 16.00 40.00 C 16.00 41.33 16.00 42.67 16.00 44.00 C 18.00 44.00 19.99 44.00 21.99 44.00 C 21.99 44.50 22.01 45.50 22.01 46.00 C 23.34 46.00 24.66 46.00 25.99 46.00 C 25.99 45.50 26.01 44.50 26.01 44.00 C 27.34 44.00 28.66 44.00 29.99 44.00 C 29.99 44.50 30.01 45.50 30.01 46.00 C 31.34 46.00 32.66 46.00 33.99 46.00 C 33.99 45.50 34.01 44.50 34.01 44.00 C 35.34 44.00 36.66 44.00 37.99 44.00 C 37.99 44.50 38.01 45.50 38.01 46.00 C 39.34 46.00 40.66 46.00 41.99 46.00 C 41.99 45.50 42.01 44.50 42.01 44.00 C 44.01 44.00 46.00 44.00 48.00 44.00 C 48.00 42.67 48.00 41.33 48.00 40.00 C 49.33 40.00 50.67 40.00 52.00 40.00 C 52.00 38.67 52.00 37.33 52.00 36.00 C 50.67 36.00 49.33 36.00 48.00 36.00 C 48.00 34.67 48.00 33.33 48.00 32.00 C 49.33 32.00 50.67 32.00 52.00 32.00 C 52.00 30.67 52.00 29.33 52.00 28.00 C 50.67 28.00 49.33 28.00 48.00 28.00 C 48.00 26.67 48.00 25.33 48.00 24.00 C 49.33 24.00 50.67 24.00 52.00 24.00 C 52.00 22.67 52.00 21.33 52.00 20.00 C 50.67 20.00 49.33 20.00 48.00 20.00 C 48.00 18.67 48.00 17.33 48.00 16.00 Z" />
<path fill="#ffffff" opacity="1.00" d=" M 38.99 24.00 C 40.66 21.39 42.32 18.78 43.98 16.17 C 44.00 18.78 44.00 21.39 44.00 24.00 C 42.33 24.00 40.66 24.00 38.99 24.00 Z" />
<path fill="#ffffff" opacity="1.00" d=" M 10.00 24.00 C 12.00 24.00 14.00 24.00 16.00 24.00 C 16.00 25.33 16.00 26.67 16.00 28.00 C 14.00 28.00 12.00 28.00 10.00 28.00 C 10.00 26.67 10.00 25.33 10.00 24.00 Z" />
<path fill="#ffffff" opacity="1.00" d=" M 26.12 28.00 C 32.08 28.00 38.04 28.00 44.00 28.00 C 44.00 29.33 44.00 30.67 44.00 32.00 C 37.18 32.00 30.35 32.01 23.53 31.99 C 24.39 30.66 25.25 29.33 26.12 28.00 Z" />
<path fill="#ffffff" opacity="1.00" d=" M 10.00 32.00 C 12.00 32.00 14.00 32.00 16.00 32.00 C 16.00 33.33 16.00 34.67 16.00 36.00 C 14.00 36.00 12.00 36.00 10.00 36.00 C 10.00 34.67 10.00 33.33 10.00 32.00 Z" />
<path fill="#ffffff" opacity="1.00" d=" M 20.84 35.94 C 22.84 36.00 24.83 36.01 26.83 36.01 C 25.90 37.35 24.97 38.68 24.04 40.01 C 22.65 40.00 21.26 40.00 19.88 39.99 C 19.99 38.60 20.09 37.16 20.84 35.94 Z" />
<path fill="#ffffff" opacity="1.00" d=" M 28.94 39.99 C 29.87 38.66 30.80 37.32 31.75 35.99 C 35.83 36.01 39.91 36.00 44.00 36.00 C 44.00 37.33 44.00 38.67 44.00 40.00 C 38.98 40.00 33.96 40.01 28.94 39.99 Z" />
</g>
<g id="#000000ff">
<path fill="#000000" opacity="1.00" d=" M 16.01 10.00 C 26.67 10.00 37.33 10.00 47.99 10.00 C 47.99 10.50 48.01 11.50 48.01 12.00 C 51.34 12.00 54.67 12.00 58.00 12.00 C 58.00 25.33 58.00 38.67 58.00 52.00 C 40.67 52.00 23.33 52.00 6.00 52.00 C 6.00 38.67 6.00 25.33 6.00 12.00 C 9.33 12.00 12.66 12.00 15.99 12.00 C 15.99 11.50 16.01 10.50 16.01 10.00 M 20.00 14.00 C 20.03 19.30 19.92 24.59 20.08 29.89 C 23.59 24.63 26.97 19.29 30.41 14.00 C 26.94 14.00 23.47 14.00 20.00 14.00 M 35.20 14.00 C 33.03 17.33 30.86 20.64 28.73 23.98 C 30.56 24.00 32.39 24.00 34.22 24.01 C 36.38 20.69 38.49 17.34 40.63 14.00 C 38.82 14.00 37.01 14.00 35.20 14.00 M 10.00 16.00 C 10.00 17.33 10.00 18.67 10.00 20.00 C 12.00 20.00 14.00 20.00 16.00 20.00 C 16.00 18.67 16.00 17.33 16.00 16.00 C 14.00 16.00 12.00 16.00 10.00 16.00 M 48.00 16.00 C 48.00 17.33 48.00 18.67 48.00 20.00 C 49.33 20.00 50.67 20.00 52.00 20.00 C 52.00 21.33 52.00 22.67 52.00 24.00 C 50.67 24.00 49.33 24.00 48.00 24.00 C 48.00 25.33 48.00 26.67 48.00 28.00 C 49.33 28.00 50.67 28.00 52.00 28.00 C 52.00 29.33 52.00 30.67 52.00 32.00 C 50.67 32.00 49.33 32.00 48.00 32.00 C 48.00 33.33 48.00 34.67 48.00 36.00 C 49.33 36.00 50.67 36.00 52.00 36.00 C 52.00 37.33 52.00 38.67 52.00 40.00 C 50.67 40.00 49.33 40.00 48.00 40.00 C 48.00 41.33 48.00 42.67 48.00 44.00 C 46.00 44.00 44.01 44.00 42.01 44.00 C 42.01 44.50 41.99 45.50 41.99 46.00 C 40.66 46.00 39.34 46.00 38.01 46.00 C 38.01 45.50 37.99 44.50 37.99 44.00 C 36.66 44.00 35.34 44.00 34.01 44.00 C 34.01 44.50 33.99 45.50 33.99 46.00 C 32.66 46.00 31.34 46.00 30.01 46.00 C 30.01 45.50 29.99 44.50 29.99 44.00 C 28.66 44.00 27.34 44.00 26.01 44.00 C 26.01 44.50 25.99 45.50 25.99 46.00 C 24.66 46.00 23.34 46.00 22.01 46.00 C 22.01 45.50 21.99 44.50 21.99 44.00 C 19.99 44.00 18.00 44.00 16.00 44.00 C 16.00 42.67 16.00 41.33 16.00 40.00 C 14.00 40.00 12.00 40.00 10.00 40.00 C 10.00 42.67 10.00 45.33 10.00 48.00 C 24.67 48.00 39.33 48.00 54.00 48.00 C 54.00 37.33 54.00 26.67 54.00 16.00 C 52.00 16.00 50.00 16.00 48.00 16.00 M 38.99 24.00 C 40.66 24.00 42.33 24.00 44.00 24.00 C 44.00 21.39 44.00 18.78 43.98 16.17 C 42.32 18.78 40.66 21.39 38.99 24.00 M 10.00 24.00 C 10.00 25.33 10.00 26.67 10.00 28.00 C 12.00 28.00 14.00 28.00 16.00 28.00 C 16.00 26.67 16.00 25.33 16.00 24.00 C 14.00 24.00 12.00 24.00 10.00 24.00 M 26.12 28.00 C 25.25 29.33 24.39 30.66 23.53 31.99 C 30.35 32.01 37.18 32.00 44.00 32.00 C 44.00 30.67 44.00 29.33 44.00 28.00 C 38.04 28.00 32.08 28.00 26.12 28.00 M 10.00 32.00 C 10.00 33.33 10.00 34.67 10.00 36.00 C 12.00 36.00 14.00 36.00 16.00 36.00 C 16.00 34.67 16.00 33.33 16.00 32.00 C 14.00 32.00 12.00 32.00 10.00 32.00 M 20.84 35.94 C 20.09 37.16 19.99 38.60 19.88 39.99 C 21.26 40.00 22.65 40.00 24.04 40.01 C 24.97 38.68 25.90 37.35 26.83 36.01 C 24.83 36.01 22.84 36.00 20.84 35.94 M 28.94 39.99 C 33.96 40.01 38.98 40.00 44.00 40.00 C 44.00 38.67 44.00 37.33 44.00 36.00 C 39.91 36.00 35.83 36.01 31.75 35.99 C 30.80 37.32 29.87 38.66 28.94 39.99 Z" />
</g>
</svg>
