<?xml version="1.0" encoding="UTF-8" ?>
<!DOCTYPE svg PUBLIC "-//W3C//DTD SVG 1.1//EN" "http://www.w3.org/Graphics/SVG/1.1/DTD/svg11.dtd">
<svg width="60pt" height="60pt" viewBox="0 0 60 60" version="1.1" xmlns="http://www.w3.org/2000/svg">
<g id="#ffffffff">
<path fill="#ffffff" opacity="1.00" d=" M 0.00 0.00 L 60.00 0.00 L 60.00 60.00 L 0.00 60.00 L 0.00 0.00 M 11.97 6.00 C 12.02 20.19 14.32 34.87 21.75 47.19 C 23.32 49.57 24.78 52.20 27.15 53.88 C 29.90 54.05 32.42 52.51 35.03 51.82 C 39.45 50.18 44.23 49.47 48.38 47.13 C 46.48 43.88 44.00 41.00 42.42 37.56 C 37.68 27.78 36.01 16.78 35.97 6.00 C 27.97 6.00 19.97 6.00 11.97 6.00 Z" />
<path fill="#ffffff" opacity="1.00" d=" M 19.12 10.11 C 20.94 9.46 22.31 11.15 22.00 12.88 C 22.22 24.34 26.09 35.51 32.23 45.13 C 33.91 47.19 29.91 49.49 28.89 47.02 C 22.41 37.68 18.76 26.40 18.08 15.07 C 18.18 13.40 17.44 11.20 19.12 10.11 Z" />
<path fill="#ffffff" opacity="1.00" d=" M 27.17 10.10 C 29.00 9.48 30.31 11.22 30.01 12.92 C 30.27 23.76 34.32 34.18 40.24 43.16 C 41.89 45.24 37.84 47.49 36.86 44.99 C 30.40 35.99 26.55 25.03 26.05 13.95 C 26.06 12.59 25.72 10.88 27.17 10.10 Z" />
</g>
<g id="#000000ff">
<path fill="#000000" opacity="1.00" d=" M 11.97 6.00 C 19.97 6.00 27.97 6.00 35.97 6.00 C 36.01 16.78 37.68 27.78 42.42 37.56 C 44.00 41.00 46.48 43.88 48.38 47.13 C 44.23 49.47 39.45 50.18 35.03 51.82 C 32.42 52.51 29.90 54.05 27.15 53.88 C 24.78 52.20 23.32 49.57 21.75 47.19 C 14.32 34.87 12.02 20.19 11.97 6.00 M 19.12 10.11 C 17.44 11.20 18.18 13.40 18.08 15.07 C 18.76 26.40 22.41 37.68 28.89 47.02 C 29.91 49.49 33.91 47.19 32.23 45.13 C 26.09 35.51 22.22 24.34 22.00 12.88 C 22.31 11.15 20.94 9.46 19.12 10.11 M 27.17 10.10 C 25.72 10.88 26.06 12.59 26.05 13.95 C 26.55 25.03 30.40 35.99 36.86 44.99 C 37.84 47.49 41.89 45.24 40.24 43.16 C 34.32 34.18 30.27 23.76 30.01 12.92 C 30.31 11.22 29.00 9.48 27.17 10.10 Z" />
</g>
</svg>
