<?xml version="1.0" encoding="UTF-8" ?>
<!DOCTYPE svg PUBLIC "-//W3C//DTD SVG 1.1//EN" "http://www.w3.org/Graphics/SVG/1.1/DTD/svg11.dtd">
<svg width="60pt" height="60pt" viewBox="0 0 60 60" version="1.1" xmlns="http://www.w3.org/2000/svg">
<g id="#ffffffff">
<path fill="#ffffff" opacity="1.00" d=" M 0.00 0.00 L 60.00 0.00 L 60.00 60.00 L 0.00 60.00 L 0.00 0.00 M 10.26 8.42 C 8.59 9.21 7.84 11.09 8.00 12.86 C 8.03 24.61 7.92 36.36 8.06 48.10 C 7.94 50.63 10.57 52.31 12.89 51.99 C 24.65 51.97 36.41 52.09 48.17 51.93 C 50.66 51.97 52.33 49.37 52.00 47.04 C 52.01 35.67 52.00 24.29 52.00 12.91 C 52.31 10.58 50.64 7.94 48.10 8.06 C 37.09 7.89 26.07 8.08 15.05 7.97 C 13.46 8.07 11.76 7.79 10.26 8.42 Z" />
<path fill="#ffffff" opacity="1.00" d=" M 24.18 18.79 C 23.22 16.82 25.97 15.01 27.38 16.64 C 31.46 20.55 35.48 24.53 39.37 28.63 C 40.92 30.12 39.06 31.87 37.96 32.92 C 34.38 36.36 31.01 40.00 27.37 43.37 C 26.32 44.66 23.73 43.73 24.08 42.00 C 24.00 40.71 25.35 40.01 26.04 39.10 C 29.11 36.10 32.13 33.04 35.17 30.00 C 31.57 26.21 27.61 22.74 24.18 18.79 Z" />
</g>
<g id="#000000ff">
<path fill="#968176" opacity="1.00" d=" M 10.26 8.42 C 11.76 7.79 13.46 8.07 15.05 7.97 C 26.07 8.08 37.09 7.89 48.10 8.06 C 50.64 7.94 52.31 10.58 52.00 12.91 C 52.00 24.29 52.01 35.67 52.00 47.04 C 52.33 49.37 50.66 51.97 48.17 51.93 C 36.41 52.09 24.65 51.97 12.89 51.99 C 10.57 52.31 7.94 50.63 8.06 48.10 C 7.92 36.36 8.03 24.61 8.00 12.86 C 7.84 11.09 8.59 9.21 10.26 8.42 M 24.18 18.79 C 27.61 22.74 31.57 26.21 35.17 30.00 C 32.13 33.04 29.11 36.10 26.04 39.10 C 25.35 40.01 24.00 40.71 24.08 42.00 C 23.73 43.73 26.32 44.66 27.37 43.37 C 31.01 40.00 34.38 36.36 37.96 32.92 C 39.06 31.87 40.92 30.12 39.37 28.63 C 35.48 24.53 31.46 20.55 27.38 16.64 C 25.97 15.01 23.22 16.82 24.18 18.79 Z" />
</g>
</svg>
