<?xml version="1.0" encoding="UTF-8" ?>
<!DOCTYPE svg PUBLIC "-//W3C//DTD SVG 1.1//EN" "http://www.w3.org/Graphics/SVG/1.1/DTD/svg11.dtd">
<svg width="60pt" height="60pt" viewBox="0 0 60 60" version="1.1" xmlns="http://www.w3.org/2000/svg">
<g id="#ffffffff">
<path fill="#ffffff" opacity="1.00" d=" M 0.00 0.00 L 60.00 0.00 L 60.00 60.00 L 0.00 60.00 L 0.00 0.00 M 24.18 6.14 C 20.99 7.62 21.36 13.58 25.06 14.02 C 29.37 13.48 28.72 5.17 24.18 6.14 M 34.07 6.18 C 31.03 7.77 31.39 13.49 35.01 14.03 C 39.42 13.56 38.70 4.99 34.07 6.18 M 17.17 8.03 C 16.29 9.35 16.29 10.67 17.14 11.99 C 18.50 13.80 20.80 11.79 20.49 10.03 C 20.83 8.31 18.50 6.21 17.17 8.03 M 40.15 8.03 C 38.77 9.51 39.57 13.20 42.04 12.61 C 45.01 11.56 42.95 5.38 40.15 8.03 M 11.18 14.01 L 10.05 12.75 C 9.07 14.36 9.45 15.79 10.89 16.86 C 11.57 15.55 12.22 14.23 12.89 12.91 L 13.43 14.30 C 15.98 14.07 16.37 10.05 14.00 9.35 C 11.97 9.82 12.16 12.52 11.18 14.01 M 45.00 9.94 C 44.85 10.48 44.55 11.56 44.40 12.10 L 45.06 13.48 L 46.55 14.30 L 47.11 12.91 C 47.78 14.23 48.43 15.55 49.10 16.87 C 50.54 15.79 50.92 14.37 49.96 12.75 L 48.82 14.01 C 47.85 12.50 47.63 8.04 45.00 9.94 M 18.21 16.21 C 12.71 17.23 7.99 22.23 8.01 27.95 C 8.05 33.24 11.61 37.71 11.84 42.98 C 11.92 45.90 12.41 49.28 15.22 50.87 C 19.20 53.69 25.37 50.88 25.91 46.04 C 26.62 41.55 22.25 38.40 22.01 34.09 C 22.12 30.09 27.53 29.10 27.88 25.13 C 29.01 19.72 23.49 14.70 18.21 16.21 M 38.24 16.16 C 33.87 16.83 31.04 21.74 32.30 25.90 C 33.15 29.31 37.87 30.31 37.98 34.02 C 37.79 38.36 33.36 41.53 34.09 46.05 C 34.61 50.89 40.82 53.70 44.79 50.86 C 47.59 49.24 48.08 45.86 48.16 42.93 C 48.40 37.70 51.92 33.26 51.98 28.01 C 52.06 21.07 45.06 15.11 38.24 16.16 M 8.25 17.46 C 6.89 18.39 8.24 21.18 9.76 19.98 C 11.10 19.02 9.79 16.33 8.25 17.46 M 50.22 17.48 C 48.88 18.45 50.28 21.21 51.78 19.95 C 53.10 18.97 51.73 16.30 50.22 17.48 Z" />
</g>
<g id="#000000ff">
<path fill="#000000" opacity="1.00" d=" M 24.18 6.14 C 28.72 5.17 29.37 13.48 25.06 14.02 C 21.36 13.58 20.99 7.62 24.18 6.14 Z" />
<path fill="#000000" opacity="1.00" d=" M 34.07 6.18 C 38.70 4.99 39.42 13.56 35.01 14.03 C 31.39 13.49 31.03 7.77 34.07 6.18 Z" />
<path fill="#000000" opacity="1.00" d=" M 17.17 8.03 C 18.50 6.21 20.83 8.31 20.49 10.03 C 20.80 11.79 18.50 13.80 17.14 11.99 C 16.29 10.67 16.29 9.35 17.17 8.03 Z" />
<path fill="#000000" opacity="1.00" d=" M 40.15 8.03 C 42.95 5.38 45.01 11.56 42.04 12.61 C 39.57 13.20 38.77 9.51 40.15 8.03 Z" />
<path fill="#000000" opacity="1.00" d=" M 11.18 14.01 C 12.16 12.52 11.97 9.82 14.00 9.35 C 16.37 10.05 15.98 14.07 13.43 14.30 L 12.89 12.91 C 12.22 14.23 11.57 15.55 10.89 16.86 C 9.45 15.79 9.07 14.36 10.05 12.75 L 11.18 14.01 Z" />
<path fill="#000000" opacity="1.00" d=" M 45.00 9.94 C 47.63 8.04 47.85 12.50 48.82 14.01 L 49.96 12.75 C 50.92 14.37 50.54 15.79 49.10 16.87 C 48.43 15.55 47.78 14.23 47.11 12.91 L 46.55 14.30 L 45.06 13.48 L 44.40 12.10 C 44.55 11.56 44.85 10.48 45.00 9.94 Z" />
<path fill="#000000" opacity="1.00" d=" M 18.21 16.21 C 23.49 14.70 29.01 19.72 27.88 25.13 C 27.53 29.10 22.12 30.09 22.01 34.09 C 22.25 38.40 26.62 41.55 25.91 46.04 C 25.37 50.88 19.20 53.69 15.22 50.87 C 12.41 49.28 11.92 45.90 11.84 42.98 C 11.61 37.71 8.05 33.24 8.01 27.95 C 7.99 22.23 12.71 17.23 18.21 16.21 Z" />
<path fill="#000000" opacity="1.00" d=" M 38.24 16.16 C 45.06 15.11 52.06 21.07 51.98 28.01 C 51.92 33.26 48.40 37.70 48.16 42.93 C 48.08 45.86 47.59 49.24 44.79 50.86 C 40.82 53.70 34.61 50.89 34.09 46.05 C 33.36 41.53 37.79 38.36 37.98 34.02 C 37.87 30.31 33.15 29.31 32.30 25.90 C 31.04 21.74 33.87 16.83 38.24 16.16 Z" />
<path fill="#000000" opacity="1.00" d=" M 8.25 17.46 C 9.79 16.33 11.10 19.02 9.76 19.98 C 8.24 21.18 6.89 18.39 8.25 17.46 Z" />
<path fill="#000000" opacity="1.00" d=" M 50.22 17.48 C 51.73 16.30 53.10 18.97 51.78 19.95 C 50.28 21.21 48.88 18.45 50.22 17.48 Z" />
</g>
</svg>
