<?xml version="1.0" encoding="UTF-8" ?>
<!DOCTYPE svg PUBLIC "-//W3C//DTD SVG 1.1//EN" "http://www.w3.org/Graphics/SVG/1.1/DTD/svg11.dtd">
<svg width="60pt" height="60pt" viewBox="0 0 60 60" version="1.1" xmlns="http://www.w3.org/2000/svg">
<g id="#ffffffff">
<path fill="#ffffff" opacity="1.00" d=" M 0.00 0.00 L 60.00 0.00 L 60.00 60.00 L 0.00 60.00 L 0.00 0.00 M 38.14 15.11 C 37.83 18.06 38.02 21.04 38.01 24.00 C 27.97 24.04 17.91 23.92 7.87 24.05 C 5.83 24.02 4.03 25.88 4.03 27.90 C 3.83 30.72 3.45 34.97 7.00 35.84 C 17.32 36.23 27.68 35.89 38.01 36.00 C 38.02 38.98 37.84 41.97 38.15 44.95 C 38.73 46.21 40.50 46.60 41.43 45.46 C 45.91 41.23 50.14 36.75 54.55 32.44 C 55.65 31.46 56.96 29.74 55.39 28.49 C 50.82 23.79 46.19 19.12 41.46 14.57 C 40.56 13.44 38.62 13.74 38.14 15.11 Z" />
</g>
<g id="#000000ff">
<path fill="#000000" opacity="1.00" d=" M 38.14 15.11 C 38.62 13.74 40.56 13.44 41.46 14.57 C 46.19 19.12 50.82 23.79 55.39 28.49 C 56.96 29.74 55.65 31.46 54.55 32.44 C 50.14 36.75 45.91 41.23 41.43 45.46 C 40.50 46.60 38.73 46.21 38.15 44.95 C 37.84 41.97 38.02 38.98 38.01 36.00 C 27.68 35.89 17.32 36.23 7.00 35.84 C 3.45 34.97 3.83 30.72 4.03 27.90 C 4.03 25.88 5.83 24.02 7.87 24.05 C 17.91 23.92 27.97 24.04 38.01 24.00 C 38.02 21.04 37.83 18.06 38.14 15.11 Z" />
</g>
</svg>
