<?xml version="1.0" encoding="UTF-8" ?>
<!DOCTYPE svg PUBLIC "-//W3C//DTD SVG 1.1//EN" "http://www.w3.org/Graphics/SVG/1.1/DTD/svg11.dtd">
<svg width="60pt" height="60pt" viewBox="0 0 60 60" version="1.1" xmlns="http://www.w3.org/2000/svg">
<g id="#ffffffff">
<path fill="#ffffff" opacity="1.00" d=" M 0.00 0.00 L 60.00 0.00 L 60.00 60.00 L 0.00 60.00 L 0.00 0.00 M 4.04 10.01 C 4.15 19.51 8.25 29.21 15.93 35.02 C 22.19 39.90 30.23 41.65 38.00 41.99 C 38.05 44.97 37.82 47.97 38.17 50.94 C 38.79 52.08 40.51 52.38 41.39 51.38 C 45.98 46.98 50.41 42.40 54.91 37.91 C 55.94 37.18 56.45 35.49 55.36 34.58 C 50.95 30.02 46.40 25.59 41.92 21.09 C 41.03 19.77 38.83 19.55 38.14 21.18 C 37.85 24.11 38.04 27.05 38.00 29.99 C 30.41 29.63 22.44 28.39 16.14 23.84 C 11.58 20.68 8.51 15.56 7.94 10.03 C 8.15 7.39 3.79 7.41 4.04 10.01 Z" />
</g>
<g id="#000000ff">
<path fill="#000000" opacity="1.00" d=" M 4.04 10.01 C 3.79 7.41 8.15 7.39 7.94 10.03 C 8.51 15.56 11.58 20.68 16.14 23.84 C 22.44 28.39 30.41 29.63 38.00 29.99 C 38.04 27.05 37.85 24.11 38.14 21.18 C 38.83 19.55 41.03 19.77 41.92 21.09 C 46.40 25.59 50.95 30.02 55.36 34.58 C 56.45 35.49 55.94 37.18 54.91 37.91 C 50.41 42.40 45.98 46.98 41.39 51.38 C 40.51 52.38 38.79 52.08 38.17 50.94 C 37.82 47.97 38.05 44.97 38.00 41.99 C 30.23 41.65 22.19 39.90 15.93 35.02 C 8.25 29.21 4.15 19.51 4.04 10.01 Z" />
</g>
</svg>
