<?xml version="1.0" encoding="UTF-8" ?>
<!DOCTYPE svg PUBLIC "-//W3C//DTD SVG 1.1//EN" "http://www.w3.org/Graphics/SVG/1.1/DTD/svg11.dtd">
<svg width="60pt" height="60pt" viewBox="0 0 60 60" version="1.1" xmlns="http://www.w3.org/2000/svg">
<g id="#ffffffff">
<path fill="#ffffff" opacity="1.00" d=" M 0.00 0.00 L 60.00 0.00 L 60.00 25.13 C 59.10 24.54 57.54 23.31 56.64 24.56 C 55.11 25.71 56.92 27.46 57.68 28.49 C 58.26 28.10 59.42 27.32 60.00 26.93 L 60.00 35.07 C 59.05 34.58 57.57 33.32 56.65 34.55 C 55.08 35.63 56.94 37.42 57.60 38.49 C 58.20 38.10 59.40 37.33 60.00 36.95 L 60.00 60.00 L 0.00 60.00 L 0.00 0.00 M 30.42 6.69 C 23.96 7.90 17.32 9.22 11.57 12.56 C 8.57 14.29 5.75 17.27 6.03 20.98 C 6.14 23.11 6.77 26.19 9.12 26.80 C 12.44 25.97 15.39 23.95 18.42 22.38 C 21.14 20.97 18.34 16.53 21.04 15.17 C 25.13 13.51 29.57 12.57 33.99 12.49 C 35.36 14.00 36.05 15.98 37.27 17.60 C 41.07 18.40 45.11 18.43 48.97 18.10 C 51.41 14.56 49.10 9.22 45.42 7.48 C 40.73 5.34 35.36 5.94 30.42 6.69 M 49.16 22.11 C 46.84 23.24 48.43 26.84 50.85 25.91 C 53.13 24.71 51.57 21.17 49.16 22.11 M 23.84 27.75 C 20.26 28.82 17.60 31.54 14.76 33.81 C 10.53 36.99 11.37 42.86 10.38 47.47 C 9.61 48.28 7.78 48.66 8.08 50.07 C 7.76 51.61 9.75 52.08 10.89 51.98 C 23.63 52.01 36.38 52.01 49.12 51.98 C 50.29 52.12 52.26 51.55 51.92 50.01 C 52.19 48.61 50.36 48.30 49.62 47.46 C 48.64 42.87 49.46 37.03 45.27 33.84 C 42.43 31.55 39.75 28.83 36.17 27.75 C 35.89 26.44 36.03 23.82 34.03 24.04 C 31.88 23.78 32.07 26.60 31.81 28.00 C 30.60 28.00 29.40 28.00 28.19 28.00 C 27.91 26.62 28.14 23.86 26.04 24.03 C 23.99 23.77 24.07 26.39 23.84 27.75 M 51.17 30.11 C 48.87 31.13 50.38 34.88 52.75 33.84 C 55.22 32.94 53.58 29.10 51.17 30.11 Z" />
<path fill="#ffffff" opacity="1.00" d=" M 25.10 34.09 C 27.54 33.13 29.18 36.75 26.83 37.88 C 24.43 38.86 22.92 35.32 25.10 34.09 Z" />
<path fill="#ffffff" opacity="1.00" d=" M 33.22 34.21 C 35.47 32.89 37.32 37.09 34.71 37.81 C 32.52 39.05 30.74 34.95 33.22 34.21 Z" />
<path fill="#ffffff" opacity="1.00" d=" M 25.14 42.11 C 27.55 41.08 29.24 44.91 26.76 45.83 C 24.42 46.91 22.87 43.17 25.14 42.11 Z" />
<path fill="#ffffff" opacity="1.00" d=" M 33.12 42.10 C 35.53 41.09 37.20 44.80 34.79 45.88 C 32.41 46.84 30.91 43.27 33.12 42.10 Z" />
</g>
<g id="#000000ff">
<path fill="#000000" opacity="1.00" d=" M 30.42 6.69 C 35.36 5.94 40.73 5.34 45.42 7.48 C 49.10 9.22 51.41 14.56 48.97 18.10 C 45.11 18.43 41.07 18.40 37.27 17.60 C 36.05 15.98 35.36 14.00 33.99 12.49 C 29.57 12.57 25.13 13.51 21.04 15.17 C 18.34 16.53 21.14 20.97 18.42 22.38 C 15.39 23.95 12.44 25.97 9.12 26.80 C 6.77 26.19 6.14 23.11 6.03 20.98 C 5.75 17.27 8.57 14.29 11.57 12.56 C 17.32 9.22 23.96 7.90 30.42 6.69 Z" />
<path fill="#000000" opacity="1.00" d=" M 49.16 22.11 C 51.57 21.17 53.13 24.71 50.85 25.91 C 48.43 26.84 46.84 23.24 49.16 22.11 Z" />
<path fill="#000000" opacity="1.00" d=" M 23.84 27.75 C 24.07 26.39 23.99 23.77 26.04 24.03 C 28.14 23.86 27.91 26.62 28.19 28.00 C 29.40 28.00 30.60 28.00 31.81 28.00 C 32.07 26.60 31.88 23.78 34.03 24.04 C 36.03 23.82 35.89 26.44 36.17 27.75 C 39.75 28.83 42.43 31.55 45.27 33.84 C 49.46 37.03 48.64 42.87 49.62 47.46 C 50.36 48.30 52.19 48.61 51.92 50.01 C 52.26 51.55 50.29 52.12 49.12 51.98 C 36.38 52.01 23.63 52.01 10.89 51.98 C 9.75 52.08 7.76 51.61 8.08 50.07 C 7.78 48.66 9.61 48.28 10.38 47.47 C 11.37 42.86 10.53 36.99 14.76 33.81 C 17.60 31.54 20.26 28.82 23.84 27.75 M 25.10 34.09 C 22.92 35.32 24.43 38.86 26.83 37.88 C 29.18 36.75 27.54 33.13 25.10 34.09 M 33.22 34.21 C 30.74 34.95 32.52 39.05 34.71 37.81 C 37.32 37.09 35.47 32.89 33.22 34.21 M 25.14 42.11 C 22.87 43.17 24.42 46.91 26.76 45.83 C 29.24 44.91 27.55 41.08 25.14 42.11 M 33.12 42.10 C 30.91 43.27 32.41 46.84 34.79 45.88 C 37.20 44.80 35.53 41.09 33.12 42.10 Z" />
<path fill="#000000" opacity="1.00" d=" M 56.64 24.56 C 57.54 23.31 59.10 24.54 60.00 25.13 L 60.00 26.93 C 59.42 27.32 58.26 28.10 57.68 28.49 C 56.92 27.46 55.11 25.71 56.64 24.56 Z" />
<path fill="#000000" opacity="1.00" d=" M 51.17 30.11 C 53.58 29.10 55.22 32.94 52.75 33.84 C 50.38 34.88 48.87 31.13 51.17 30.11 Z" />
<path fill="#000000" opacity="1.00" d=" M 56.65 34.55 C 57.57 33.32 59.05 34.58 60.00 35.07 L 60.00 36.95 C 59.40 37.33 58.20 38.10 57.60 38.49 C 56.94 37.42 55.08 35.63 56.65 34.55 Z" />
</g>
</svg>
