<?xml version="1.0" encoding="UTF-8" ?>
<!DOCTYPE svg PUBLIC "-//W3C//DTD SVG 1.1//EN" "http://www.w3.org/Graphics/SVG/1.1/DTD/svg11.dtd">
<svg width="60pt" height="60pt" viewBox="0 0 60 60" version="1.1" xmlns="http://www.w3.org/2000/svg">
<g id="#ffffffff">
<path fill="#ffffff" opacity="1.00" d=" M 0.00 0.00 L 60.00 0.00 L 60.00 60.00 L 0.00 60.00 L 0.00 0.00 M 21.41 6.59 C 17.47 8.28 16.83 14.27 20.34 16.74 C 23.64 19.53 29.31 17.35 29.89 13.07 C 30.97 8.49 25.56 4.34 21.41 6.59 M 37.05 10.07 C 34.91 12.80 34.47 16.45 32.55 19.31 C 29.10 21.91 24.42 22.89 20.32 21.47 C 16.25 18.64 12.79 15.02 8.74 12.17 C 7.10 11.43 5.44 13.14 6.16 14.76 C 9.45 18.51 13.26 21.78 16.65 25.45 C 17.67 26.37 17.83 27.78 18.23 29.01 C 22.05 26.84 25.94 29.33 29.73 30.16 C 29.53 25.20 35.51 24.11 36.87 19.92 C 37.94 17.30 39.20 14.74 39.99 12.01 C 40.03 10.43 38.40 9.70 37.05 10.07 M 49.90 34.04 C 45.81 34.25 41.76 33.57 38.00 31.96 C 32.92 34.43 27.08 34.43 22.00 31.96 C 18.14 33.46 13.82 34.81 9.76 33.21 C 7.93 32.86 5.47 30.96 4.08 33.08 C 3.73 34.35 4.11 35.26 5.23 35.80 C 10.40 38.54 16.66 38.55 22.00 36.27 C 27.09 38.46 32.91 38.46 38.00 36.27 C 41.77 37.83 45.85 38.16 49.89 38.01 C 50.14 39.51 49.54 42.20 51.88 42.02 C 54.12 40.29 55.99 38.13 57.85 35.99 C 55.98 33.77 53.89 31.75 51.82 29.71 C 49.81 30.33 49.91 32.29 49.90 34.04 M 43.80 45.88 C 41.86 45.26 39.93 44.62 38.00 43.96 C 32.92 46.42 27.08 46.44 22.00 43.96 C 18.13 45.46 13.80 46.82 9.72 45.20 C 7.91 44.85 5.39 42.93 4.07 45.14 C 3.74 46.37 4.11 47.25 5.20 47.79 C 10.38 50.54 16.65 50.55 22.00 48.27 C 27.10 50.47 32.92 50.45 38.02 48.27 C 39.96 48.91 41.91 49.48 43.90 49.96 C 43.90 51.72 43.80 53.65 45.81 54.29 C 47.89 52.25 49.98 50.23 51.85 48.01 C 49.99 45.88 48.13 43.72 45.89 41.98 C 43.57 41.73 44.18 44.40 43.80 45.88 Z" />
</g>
<g id="#000000ff">
<path fill="#000000" opacity="1.00" d=" M 21.41 6.59 C 25.56 4.34 30.97 8.49 29.89 13.07 C 29.31 17.35 23.64 19.53 20.34 16.74 C 16.83 14.27 17.47 8.28 21.41 6.59 Z" />
<path fill="#000000" opacity="1.00" d=" M 37.05 10.07 C 38.40 9.70 40.03 10.43 39.99 12.01 C 39.20 14.74 37.94 17.30 36.87 19.92 C 35.51 24.11 29.53 25.20 29.73 30.16 C 25.94 29.33 22.05 26.84 18.23 29.01 C 17.83 27.78 17.67 26.37 16.65 25.45 C 13.26 21.78 9.45 18.51 6.16 14.76 C 5.44 13.14 7.10 11.43 8.74 12.17 C 12.79 15.02 16.25 18.64 20.32 21.47 C 24.42 22.89 29.10 21.91 32.55 19.31 C 34.47 16.45 34.91 12.80 37.05 10.07 Z" />
<path fill="#000000" opacity="1.00" d=" M 49.90 34.04 C 49.91 32.29 49.81 30.33 51.82 29.71 C 53.89 31.75 55.98 33.77 57.85 35.99 C 55.99 38.13 54.12 40.29 51.88 42.02 C 49.54 42.20 50.14 39.51 49.89 38.01 C 45.85 38.16 41.77 37.83 38.00 36.27 C 32.91 38.46 27.09 38.46 22.00 36.27 C 16.66 38.55 10.40 38.54 5.23 35.80 C 4.11 35.26 3.73 34.35 4.08 33.08 C 5.47 30.96 7.93 32.86 9.76 33.21 C 13.82 34.81 18.14 33.46 22.00 31.96 C 27.08 34.43 32.92 34.43 38.00 31.96 C 41.76 33.57 45.81 34.25 49.90 34.04 Z" />
<path fill="#000000" opacity="1.00" d=" M 43.80 45.88 C 44.18 44.40 43.57 41.73 45.89 41.98 C 48.13 43.72 49.99 45.88 51.85 48.01 C 49.98 50.23 47.89 52.25 45.81 54.29 C 43.80 53.65 43.90 51.72 43.90 49.96 C 41.91 49.48 39.96 48.91 38.02 48.27 C 32.92 50.45 27.10 50.47 22.00 48.27 C 16.65 50.55 10.38 50.54 5.20 47.79 C 4.11 47.25 3.74 46.37 4.07 45.14 C 5.39 42.93 7.91 44.85 9.72 45.20 C 13.80 46.82 18.13 45.46 22.00 43.96 C 27.08 46.44 32.92 46.42 38.00 43.96 C 39.93 44.62 41.86 45.26 43.80 45.88 Z" />
</g>
</svg>
