<?xml version="1.0" encoding="UTF-8" ?>
<!DOCTYPE svg PUBLIC "-//W3C//DTD SVG 1.1//EN" "http://www.w3.org/Graphics/SVG/1.1/DTD/svg11.dtd">
<svg width="64pt" height="64pt" viewBox="0 0 64 64" version="1.1" xmlns="http://www.w3.org/2000/svg">
<g id="#ffffffff">
<path fill="#ffffff" opacity="1.00" d=" M 0.00 0.00 L 64.00 0.00 L 64.00 64.00 L 0.00 64.00 L 0.00 0.00 M 1.14 56.00 C 21.71 56.00 42.28 56.01 62.85 55.99 C 52.68 38.11 42.39 20.29 31.99 2.53 C 21.63 20.31 11.31 38.11 1.14 56.00 Z" />
<path fill="#ffffff" opacity="1.00" d=" M 13.76 41.99 C 19.84 31.46 25.92 20.94 32.00 10.41 C 33.12 12.34 34.23 14.27 35.34 16.20 C 30.48 24.78 25.37 33.22 20.64 41.87 C 18.35 42.01 16.05 42.05 13.76 41.99 M 31.14 15.19 C 30.65 16.81 31.22 17.35 32.85 16.80 C 33.35 15.18 32.78 14.65 31.14 15.19 Z" />
<path fill="#ffffff" opacity="1.00" d=" M 37.65 20.22 C 43.81 30.79 49.89 41.41 56.02 52.00 C 53.78 52.00 51.55 52.00 49.31 51.98 C 44.34 43.30 39.32 34.65 34.32 25.99 C 35.44 24.07 36.54 22.14 37.65 20.22 M 50.20 48.14 C 49.64 49.77 50.17 50.34 51.80 49.86 C 52.35 48.23 51.82 47.65 50.20 48.14 Z" />
<path fill="#ffffff" opacity="1.00" d=" M 25.08 42.00 C 27.38 37.99 29.69 33.99 32.02 30.01 C 34.34 34.00 36.63 38.00 38.94 41.99 C 34.32 42.01 29.70 42.00 25.08 42.00 Z" />
<path fill="#ffffff" opacity="1.00" d=" M 11.36 46.06 C 21.32 45.92 31.28 46.04 41.24 45.99 C 42.40 47.99 43.56 49.99 44.72 51.99 C 32.47 52.00 20.23 52.00 7.99 51.99 C 9.14 50.03 10.26 48.05 11.36 46.06 M 12.17 48.16 C 11.66 49.81 12.21 50.36 13.82 49.83 C 14.33 48.18 13.78 47.63 12.17 48.16 Z" />
</g>
<g id="#000000ff">
<path fill="#000000" opacity="1.00" d=" M 1.14 56.00 C 11.31 38.11 21.63 20.31 31.99 2.53 C 42.39 20.29 52.68 38.11 62.85 55.99 C 42.28 56.01 21.71 56.00 1.14 56.00 M 13.76 41.99 C 16.05 42.05 18.35 42.01 20.64 41.87 C 25.37 33.22 30.48 24.78 35.34 16.20 C 34.23 14.27 33.12 12.34 32.00 10.41 C 25.92 20.94 19.84 31.46 13.76 41.99 M 37.65 20.22 C 36.54 22.14 35.44 24.07 34.32 25.99 C 39.32 34.65 44.34 43.30 49.31 51.98 C 51.55 52.00 53.78 52.00 56.02 52.00 C 49.89 41.41 43.81 30.79 37.65 20.22 M 25.08 42.00 C 29.70 42.00 34.32 42.01 38.94 41.99 C 36.63 38.00 34.34 34.00 32.02 30.01 C 29.69 33.99 27.38 37.99 25.08 42.00 M 11.36 46.06 C 10.26 48.05 9.14 50.03 7.99 51.99 C 20.23 52.00 32.47 52.00 44.72 51.99 C 43.56 49.99 42.40 47.99 41.24 45.99 C 31.28 46.04 21.32 45.92 11.36 46.06 Z" />
<path fill="#000000" opacity="1.00" d=" M 31.14 15.19 C 32.78 14.65 33.35 15.18 32.85 16.80 C 31.22 17.35 30.65 16.81 31.14 15.19 Z" />
<path fill="#000000" opacity="1.00" d=" M 12.17 48.16 C 13.78 47.63 14.33 48.18 13.82 49.83 C 12.21 50.36 11.66 49.81 12.17 48.16 Z" />
<path fill="#000000" opacity="1.00" d=" M 50.20 48.14 C 51.82 47.65 52.35 48.23 51.80 49.86 C 50.17 50.34 49.64 49.77 50.20 48.14 Z" />
</g>
</svg>
