<?xml version="1.0" encoding="UTF-8" ?>
<!DOCTYPE svg PUBLIC "-//W3C//DTD SVG 1.1//EN" "http://www.w3.org/Graphics/SVG/1.1/DTD/svg11.dtd">
<svg width="60pt" height="60pt" viewBox="0 0 60 60" version="1.1" xmlns="http://www.w3.org/2000/svg">
<g id="#ffffffff">
<path fill="#ffffff" opacity="1.00" d=" M 0.00 0.00 L 60.00 0.00 L 60.00 60.00 L 0.00 60.00 L 0.00 0.00 M 27.86 2.92 C 26.07 4.98 28.31 7.66 28.15 10.01 C 24.93 10.68 21.46 11.62 19.36 14.35 C 17.54 16.46 18.11 19.44 17.96 22.00 C 17.47 22.00 16.50 22.00 16.01 22.01 C 16.00 22.55 15.99 23.63 15.98 24.17 C 13.99 24.05 12.12 23.10 10.12 23.16 C 7.38 23.81 7.39 28.20 10.13 28.85 C 12.12 28.87 14.00 27.96 15.98 27.83 C 15.99 28.37 16.00 29.45 16.01 30.00 C 16.48 30.00 17.41 30.00 17.88 30.00 C 17.34 34.20 20.30 37.51 23.99 38.96 C 23.99 39.73 24.00 41.26 24.01 42.02 C 19.75 43.74 15.33 45.06 11.15 46.96 C 8.42 48.18 7.96 51.36 7.87 54.00 C 22.62 54.00 37.38 54.00 52.14 54.00 C 52.03 51.35 51.57 48.16 48.82 46.95 C 44.67 44.99 40.25 43.67 35.99 41.97 C 36.00 41.22 36.01 39.72 36.01 38.97 C 39.70 37.49 42.64 34.20 42.13 30.00 C 42.59 30.00 43.53 30.00 43.99 30.00 C 44.00 29.46 44.01 28.37 44.02 27.83 C 45.99 27.97 47.86 28.83 49.84 28.87 C 52.59 28.22 52.65 23.80 49.87 23.17 C 47.88 23.07 46.01 24.08 44.01 24.17 C 44.01 23.63 44.00 22.55 43.99 22.01 C 43.50 22.00 42.53 22.00 42.04 22.00 C 41.89 19.44 42.45 16.47 40.64 14.35 C 38.54 11.62 35.06 10.69 31.85 10.01 C 32.03 8.28 32.50 6.61 32.86 4.92 C 33.20 2.36 29.45 1.02 27.86 2.92 Z" />
<path fill="#ffffff" opacity="1.00" d=" M 23.23 24.18 C 25.52 23.04 27.18 26.85 24.83 27.89 C 22.45 28.92 20.77 25.08 23.23 24.18 Z" />
<path fill="#ffffff" opacity="1.00" d=" M 35.15 24.10 C 37.50 23.08 39.26 26.91 36.77 27.79 C 34.51 29.02 32.81 25.16 35.15 24.10 Z" />
</g>
<g id="#000000ff">
<path fill="#000000" opacity="1.00" d=" M 27.86 2.92 C 29.45 1.02 33.20 2.36 32.86 4.92 C 32.50 6.61 32.03 8.28 31.85 10.01 C 35.06 10.69 38.54 11.62 40.64 14.35 C 42.45 16.47 41.89 19.44 42.04 22.00 C 42.53 22.00 43.50 22.00 43.99 22.01 C 44.00 22.55 44.01 23.63 44.01 24.17 C 46.01 24.08 47.88 23.07 49.87 23.17 C 52.65 23.80 52.59 28.22 49.84 28.87 C 47.86 28.83 45.99 27.97 44.02 27.83 C 44.01 28.37 44.00 29.46 43.99 30.00 C 43.53 30.00 42.59 30.00 42.13 30.00 C 42.64 34.20 39.70 37.49 36.01 38.97 C 36.01 39.72 36.00 41.22 35.99 41.97 C 40.25 43.67 44.67 44.99 48.82 46.95 C 51.57 48.16 52.03 51.35 52.14 54.00 C 37.38 54.00 22.62 54.00 7.87 54.00 C 7.96 51.36 8.42 48.18 11.15 46.96 C 15.33 45.06 19.75 43.74 24.01 42.02 C 24.00 41.26 23.99 39.73 23.99 38.96 C 20.30 37.51 17.34 34.20 17.88 30.00 C 17.41 30.00 16.48 30.00 16.01 30.00 C 16.00 29.45 15.99 28.37 15.98 27.83 C 14.00 27.96 12.12 28.87 10.13 28.85 C 7.39 28.20 7.38 23.81 10.12 23.16 C 12.12 23.10 13.99 24.05 15.98 24.17 C 15.99 23.63 16.00 22.55 16.01 22.01 C 16.50 22.00 17.47 22.00 17.96 22.00 C 18.11 19.44 17.54 16.46 19.36 14.35 C 21.46 11.62 24.93 10.68 28.15 10.01 C 28.31 7.66 26.07 4.98 27.86 2.92 M 23.23 24.18 C 20.77 25.08 22.45 28.92 24.83 27.89 C 27.18 26.85 25.52 23.04 23.23 24.18 M 35.15 24.10 C 32.81 25.16 34.51 29.02 36.77 27.79 C 39.26 26.91 37.50 23.08 35.15 24.10 Z" />
</g>
</svg>
