<?xml version="1.0" encoding="UTF-8" ?>
<!DOCTYPE svg PUBLIC "-//W3C//DTD SVG 1.1//EN" "http://www.w3.org/Graphics/SVG/1.1/DTD/svg11.dtd">
<svg width="64pt" height="64pt" viewBox="0 0 64 64" version="1.1" xmlns="http://www.w3.org/2000/svg">
<g id="#ffffffff">
<path fill="#ffffff" opacity="1.00" d=" M 0.00 0.00 L 64.00 0.00 L 64.00 64.00 L 0.00 64.00 L 0.00 0.00 M 8.92 16.93 C 6.56 20.75 9.84 26.07 6.47 29.51 C 1.76 35.43 4.15 45.07 10.85 48.41 C 14.90 50.80 19.79 50.06 23.87 48.19 C 30.37 47.74 36.92 48.08 43.43 48.05 C 46.01 50.46 49.86 50.47 52.53 48.20 C 55.42 48.04 58.72 46.97 59.67 43.90 C 60.31 40.92 60.21 37.77 59.61 34.79 C 57.87 28.70 52.34 24.78 47.08 21.85 C 38.43 17.32 28.79 14.53 19.03 14.05 C 15.56 14.05 11.31 13.94 8.92 16.93 Z" />
<path fill="#ffffff" opacity="1.00" d=" M 12.05 18.93 C 17.53 17.26 23.33 18.25 28.80 19.40 C 36.44 21.17 44.01 23.95 50.31 28.71 C 52.85 30.53 54.66 33.12 55.93 35.95 C 47.27 36.06 38.61 35.98 29.95 35.99 C 29.27 31.61 26.89 27.33 22.77 25.35 C 19.46 23.51 15.52 23.80 11.99 24.79 C 12.03 22.84 12.04 20.88 12.05 18.93 Z" />
<path fill="#ffffff" opacity="1.00" d=" M 13.45 28.66 C 17.73 26.74 23.27 28.80 25.16 33.12 C 27.29 37.41 25.28 43.16 20.87 45.10 C 16.59 47.27 10.82 45.27 8.87 40.87 C 6.62 36.45 8.81 30.47 13.45 28.66 M 16.10 35.07 C 13.92 36.27 15.41 39.79 17.80 38.86 C 20.17 37.74 18.54 34.06 16.10 35.07 Z" />
<path fill="#ffffff" opacity="1.00" d=" M 29.49 40.00 C 38.39 40.00 47.29 39.99 56.20 40.01 C 55.95 41.41 56.16 43.95 54.06 43.89 C 45.33 44.17 36.57 43.90 27.82 44.01 C 28.36 42.67 28.92 41.33 29.49 40.00 Z" />
</g>
<g id="#000000ff">
<path fill="#000000" opacity="1.00" d=" M 8.92 16.93 C 11.31 13.94 15.56 14.05 19.03 14.05 C 28.79 14.53 38.43 17.32 47.08 21.85 C 52.34 24.78 57.87 28.70 59.61 34.79 C 60.21 37.77 60.31 40.92 59.67 43.90 C 58.72 46.97 55.42 48.04 52.53 48.20 C 49.86 50.47 46.01 50.46 43.43 48.05 C 36.92 48.08 30.37 47.74 23.87 48.19 C 19.79 50.06 14.90 50.80 10.85 48.41 C 4.15 45.07 1.76 35.43 6.47 29.51 C 9.84 26.07 6.56 20.75 8.92 16.93 M 12.05 18.93 C 12.04 20.88 12.03 22.84 11.99 24.79 C 15.52 23.80 19.46 23.51 22.77 25.35 C 26.89 27.33 29.27 31.61 29.95 35.99 C 38.61 35.98 47.27 36.06 55.93 35.95 C 54.66 33.12 52.85 30.53 50.31 28.71 C 44.01 23.95 36.44 21.17 28.80 19.40 C 23.33 18.25 17.53 17.26 12.05 18.93 M 13.45 28.66 C 8.81 30.47 6.62 36.45 8.87 40.87 C 10.82 45.27 16.59 47.27 20.87 45.10 C 25.28 43.16 27.29 37.41 25.16 33.12 C 23.27 28.80 17.73 26.74 13.45 28.66 M 29.49 40.00 C 28.92 41.33 28.36 42.67 27.82 44.01 C 36.57 43.90 45.33 44.17 54.06 43.89 C 56.16 43.95 55.95 41.41 56.20 40.01 C 47.29 39.99 38.39 40.00 29.49 40.00 Z" />
<path fill="#000000" opacity="1.00" d=" M 16.10 35.07 C 18.54 34.06 20.17 37.74 17.80 38.86 C 15.41 39.79 13.92 36.27 16.10 35.07 Z" />
</g>
</svg>
