<?xml version="1.0" encoding="UTF-8" ?>
<!DOCTYPE svg PUBLIC "-//W3C//DTD SVG 1.1//EN" "http://www.w3.org/Graphics/SVG/1.1/DTD/svg11.dtd">
<svg width="60pt" height="60pt" viewBox="0 0 60 60" version="1.1" xmlns="http://www.w3.org/2000/svg">
<g id="#ffffffff">
<path fill="#ffffff" opacity="1.00" d=" M 0.00 0.00 L 60.00 0.00 L 60.00 60.00 L 0.00 60.00 L 0.00 0.00 M 21.97 12.01 C 23.23 12.00 24.49 11.99 25.75 11.99 C 25.92 11.52 26.27 10.59 26.44 10.12 C 28.98 10.39 33.73 8.40 34.25 11.99 C 35.51 11.99 36.77 12.00 38.03 12.01 C 37.94 9.38 38.63 5.73 35.68 4.37 C 32.21 3.65 28.55 3.97 25.02 4.14 C 21.47 5.03 21.93 9.19 21.97 12.01 M 14.74 22.71 C 13.10 27.18 11.37 31.63 9.55 36.04 C 7.77 37.19 5.87 38.73 6.00 41.09 C 5.58 42.65 7.05 44.62 8.72 43.86 C 10.25 43.21 9.89 41.20 10.32 39.90 C 12.33 39.84 11.84 42.17 12.61 43.42 C 13.76 44.73 16.08 43.68 15.99 41.98 C 16.38 39.81 14.98 38.07 13.74 36.49 C 15.33 32.33 16.98 28.20 18.57 24.05 C 19.05 29.50 19.21 34.98 19.82 40.42 C 19.93 42.42 21.83 44.06 23.82 43.96 C 27.91 44.05 32.00 44.04 36.08 43.97 C 38.09 44.08 40.05 42.48 40.18 40.45 C 40.79 35.01 40.94 29.52 41.43 24.06 C 43.04 28.21 44.67 32.34 46.27 36.48 C 44.48 38.33 42.62 41.95 45.20 43.90 C 47.75 44.71 48.12 41.66 48.32 39.90 C 50.97 39.71 49.28 44.27 52.01 43.93 C 53.97 44.15 54.27 41.56 53.90 40.15 C 53.66 37.72 50.91 37.04 49.98 35.00 C 48.37 30.92 46.77 26.83 45.25 22.71 C 45.69 21.07 46.56 19.15 45.21 17.67 C 43.87 15.56 41.10 16.08 38.99 15.97 C 31.67 16.14 24.34 15.77 17.04 16.14 C 14.02 16.82 13.48 20.29 14.74 22.71 M 24.01 48.00 C 24.35 50.52 23.00 53.97 25.13 55.83 C 28.37 56.14 31.65 56.15 34.89 55.82 C 36.98 53.92 35.66 50.52 35.99 48.00 C 32.00 48.00 28.00 48.00 24.01 48.00 Z" />
</g>
<g id="#000000ff">
<path fill="#968176" opacity="1.00" d=" M 21.97 12.01 C 21.93 9.19 21.47 5.03 25.02 4.14 C 28.55 3.97 32.21 3.65 35.68 4.37 C 38.63 5.73 37.94 9.38 38.03 12.01 C 36.77 12.00 35.51 11.99 34.25 11.99 C 33.73 8.40 28.98 10.39 26.44 10.12 C 26.27 10.59 25.92 11.52 25.75 11.99 C 24.49 11.99 23.23 12.00 21.97 12.01 Z" />
<path fill="#968176" opacity="1.00" d=" M 14.74 22.71 C 13.48 20.29 14.02 16.82 17.04 16.14 C 24.34 15.77 31.67 16.14 38.99 15.97 C 41.10 16.08 43.87 15.56 45.21 17.67 C 46.56 19.15 45.69 21.07 45.25 22.71 C 46.77 26.83 48.37 30.92 49.98 35.00 C 50.91 37.04 53.66 37.72 53.90 40.15 C 54.27 41.56 53.97 44.15 52.01 43.93 C 49.28 44.27 50.97 39.71 48.32 39.90 C 48.12 41.66 47.75 44.71 45.20 43.90 C 42.62 41.95 44.48 38.33 46.27 36.48 C 44.67 32.34 43.04 28.21 41.43 24.06 C 40.94 29.52 40.79 35.01 40.18 40.45 C 40.05 42.48 38.09 44.08 36.08 43.97 C 32.00 44.04 27.91 44.05 23.82 43.96 C 21.83 44.06 19.93 42.42 19.82 40.42 C 19.21 34.98 19.05 29.50 18.57 24.05 C 16.98 28.20 15.33 32.33 13.74 36.49 C 14.98 38.07 16.38 39.81 15.99 41.98 C 16.08 43.68 13.76 44.73 12.61 43.42 C 11.84 42.17 12.33 39.84 10.32 39.90 C 9.89 41.20 10.25 43.21 8.72 43.86 C 7.05 44.62 5.58 42.65 6.00 41.09 C 5.87 38.73 7.77 37.19 9.55 36.04 C 11.37 31.63 13.10 27.18 14.74 22.71 Z" />
<path fill="#968176" opacity="1.00" d=" M 24.01 48.00 C 28.00 48.00 32.00 48.00 35.99 48.00 C 35.66 50.52 36.98 53.92 34.89 55.82 C 31.65 56.15 28.37 56.14 25.13 55.83 C 23.00 53.97 24.35 50.52 24.01 48.00 Z" />
</g>
</svg>
