<?xml version="1.0" encoding="UTF-8" ?>
<!DOCTYPE svg PUBLIC "-//W3C//DTD SVG 1.1//EN" "http://www.w3.org/Graphics/SVG/1.1/DTD/svg11.dtd">
<svg width="64pt" height="64pt" viewBox="0 0 64 64" version="1.1" xmlns="http://www.w3.org/2000/svg">
<g id="#ffffffff">
<path fill="#ffffff" opacity="1.00" d=" M 0.00 0.00 L 64.00 0.00 L 64.00 64.00 L 0.00 64.00 L 0.00 0.00 M 14.46 6.81 C 13.38 7.60 12.29 8.38 11.20 9.16 C 18.83 20.00 19.95 34.73 14.87 46.88 C 13.79 45.57 12.70 44.26 11.63 42.94 C 10.52 43.67 9.41 44.39 8.30 45.11 C 14.05 53.86 24.75 59.10 35.21 57.78 C 43.49 56.99 51.03 52.06 55.69 45.26 C 54.58 44.52 53.47 43.78 52.36 43.04 C 51.32 44.33 50.28 45.62 49.24 46.91 C 46.71 41.61 45.85 35.65 46.16 29.82 C 49.46 29.53 49.52 32.78 49.35 35.20 C 50.68 35.20 52.00 35.20 53.33 35.20 C 53.85 31.46 52.53 26.49 48.09 26.10 C 39.28 25.85 30.45 26.08 21.63 26.00 C 20.75 19.16 18.42 12.49 14.46 6.81 Z" />
<path fill="#ffffff" opacity="1.00" d=" M 22.00 30.00 C 23.33 30.00 24.66 30.00 26.00 30.00 C 26.00 32.67 26.00 35.33 26.00 38.00 C 24.51 38.00 23.01 38.00 21.52 38.00 C 21.82 35.34 21.97 32.67 22.00 30.00 Z" />
<path fill="#ffffff" opacity="1.00" d=" M 30.00 30.00 C 31.33 30.00 32.67 30.00 34.00 30.00 C 34.00 32.67 34.00 35.33 34.00 38.00 C 32.67 38.00 31.33 38.00 30.00 38.00 C 30.00 35.33 30.00 32.67 30.00 30.00 Z" />
<path fill="#ffffff" opacity="1.00" d=" M 38.00 30.00 C 39.39 30.00 40.77 30.00 42.16 30.00 C 42.17 32.67 42.31 35.34 42.58 38.00 C 41.05 38.00 39.53 38.00 38.00 38.00 C 38.00 35.33 38.00 32.67 38.00 30.00 Z" />
<path fill="#ffffff" opacity="1.00" d=" M 20.68 42.05 C 28.27 41.94 35.85 42.03 43.43 42.00 C 44.15 44.58 44.99 47.13 45.98 49.62 C 37.76 55.36 26.27 55.36 18.08 49.60 C 19.10 47.14 19.97 44.61 20.68 42.05 Z" />
</g>
<g id="#000000ff">
<path fill="#000000" opacity="1.00" d=" M 14.46 6.81 C 18.42 12.49 20.75 19.16 21.63 26.00 C 30.45 26.08 39.28 25.85 48.09 26.10 C 52.53 26.49 53.85 31.46 53.33 35.20 C 52.00 35.20 50.68 35.20 49.35 35.20 C 49.52 32.78 49.46 29.53 46.16 29.82 C 45.85 35.65 46.71 41.61 49.24 46.91 C 50.28 45.62 51.32 44.33 52.36 43.04 C 53.47 43.78 54.58 44.52 55.69 45.26 C 51.03 52.06 43.49 56.99 35.21 57.78 C 24.75 59.10 14.05 53.86 8.30 45.11 C 9.41 44.39 10.52 43.67 11.63 42.94 C 12.70 44.26 13.79 45.57 14.87 46.88 C 19.95 34.73 18.83 20.00 11.20 9.16 C 12.29 8.38 13.38 7.60 14.46 6.81 M 22.00 30.00 C 21.97 32.67 21.82 35.34 21.52 38.00 C 23.01 38.00 24.51 38.00 26.00 38.00 C 26.00 35.33 26.00 32.67 26.00 30.00 C 24.66 30.00 23.33 30.00 22.00 30.00 M 30.00 30.00 C 30.00 32.67 30.00 35.33 30.00 38.00 C 31.33 38.00 32.67 38.00 34.00 38.00 C 34.00 35.33 34.00 32.67 34.00 30.00 C 32.67 30.00 31.33 30.00 30.00 30.00 M 38.00 30.00 C 38.00 32.67 38.00 35.33 38.00 38.00 C 39.53 38.00 41.05 38.00 42.58 38.00 C 42.31 35.34 42.17 32.67 42.16 30.00 C 40.77 30.00 39.39 30.00 38.00 30.00 M 20.68 42.05 C 19.97 44.61 19.10 47.14 18.08 49.60 C 26.27 55.36 37.76 55.36 45.98 49.62 C 44.99 47.13 44.15 44.58 43.43 42.00 C 35.85 42.03 28.27 41.94 20.68 42.05 Z" />
</g>
</svg>
