<?xml version="1.0" encoding="UTF-8" ?>
<!DOCTYPE svg PUBLIC "-//W3C//DTD SVG 1.1//EN" "http://www.w3.org/Graphics/SVG/1.1/DTD/svg11.dtd">
<svg width="64pt" height="64pt" viewBox="0 0 64 64" version="1.1" xmlns="http://www.w3.org/2000/svg">
<g id="#ffffffff">
<path fill="#ffffff" opacity="1.00" d=" M 0.00 0.00 L 64.00 0.00 L 64.00 64.00 L 0.00 64.00 L 0.00 0.00 M 8.00 12.01 C 8.00 19.34 8.00 26.67 8.00 34.00 C 9.40 34.00 10.80 34.00 12.21 34.01 C 12.54 37.03 8.93 37.60 8.31 40.18 C 7.84 42.08 8.03 44.06 7.96 46.00 C 11.99 46.00 16.01 46.00 20.04 46.00 C 19.96 44.04 20.17 42.03 19.66 40.12 C 19.01 37.60 15.43 36.98 15.80 34.01 C 17.20 34.00 18.60 34.00 20.00 34.00 C 20.00 27.38 20.00 20.75 20.00 14.13 C 22.00 13.47 23.99 12.80 25.99 12.12 C 29.33 13.19 32.66 14.31 35.99 15.43 C 35.99 17.67 36.00 19.90 36.02 22.14 C 33.16 21.66 29.82 22.55 28.59 25.42 C 26.58 29.20 29.79 34.16 34.02 34.00 C 36.81 34.13 38.70 31.90 39.97 29.72 C 43.97 31.57 47.96 33.41 51.98 35.19 C 51.99 35.89 52.00 37.30 52.01 38.00 C 42.00 38.00 32.00 38.00 22.00 38.00 C 22.00 39.33 22.00 40.67 22.00 42.00 C 32.00 42.00 42.00 42.00 52.00 42.00 C 52.00 42.50 52.00 43.50 52.00 44.00 C 42.00 44.00 32.00 44.00 22.00 44.00 C 22.00 45.33 22.00 46.67 22.00 48.00 C 33.33 48.00 44.67 48.00 56.00 48.00 C 56.00 42.92 56.00 37.83 56.00 32.75 C 50.66 30.28 45.33 27.79 40.00 25.31 C 40.01 21.06 40.00 16.81 39.99 12.55 C 35.35 10.98 30.69 9.42 26.03 7.89 C 20.12 9.66 14.37 12.80 8.00 12.01 M 7.79 48.03 C 8.89 51.41 10.30 54.78 12.53 57.57 C 13.20 57.73 14.55 58.05 15.22 58.21 C 17.22 54.99 19.19 51.72 20.21 48.04 C 18.84 48.02 17.48 48.01 16.11 48.00 C 15.55 49.29 15.01 50.60 14.36 51.85 C 12.66 51.76 12.76 49.15 11.88 48.00 C 10.52 48.00 9.15 48.01 7.79 48.03 Z" />
<path fill="#ffffff" opacity="1.00" d=" M 12.00 16.00 C 13.33 16.00 14.67 16.00 16.00 16.00 C 16.00 20.67 16.00 25.33 16.00 30.00 C 14.67 30.00 13.33 30.00 12.00 30.00 C 12.00 25.33 12.00 20.67 12.00 16.00 Z" />
<path fill="#ffffff" opacity="1.00" d=" M 33.22 26.10 C 35.60 25.23 37.06 28.65 34.92 29.88 C 32.48 30.92 30.78 27.19 33.22 26.10 Z" />
<path fill="#ffffff" opacity="1.00" d=" M 13.06 40.27 C 14.34 39.83 15.29 40.16 15.93 41.26 C 15.43 43.28 10.07 41.78 13.06 40.27 Z" />
</g>
<g id="#000000ff">
<path fill="#000000" opacity="1.00" d=" M 8.00 12.01 C 14.37 12.80 20.12 9.66 26.03 7.89 C 30.69 9.42 35.35 10.98 39.99 12.55 C 40.00 16.81 40.01 21.06 40.00 25.31 C 45.33 27.79 50.66 30.28 56.00 32.75 C 56.00 37.83 56.00 42.92 56.00 48.00 C 44.67 48.00 33.33 48.00 22.00 48.00 C 22.00 46.67 22.00 45.33 22.00 44.00 C 32.00 44.00 42.00 44.00 52.00 44.00 C 52.00 43.50 52.00 42.50 52.00 42.00 C 42.00 42.00 32.00 42.00 22.00 42.00 C 22.00 40.67 22.00 39.33 22.00 38.00 C 32.00 38.00 42.00 38.00 52.01 38.00 C 52.00 37.30 51.99 35.89 51.98 35.19 C 47.96 33.41 43.97 31.57 39.97 29.72 C 38.70 31.90 36.81 34.13 34.02 34.00 C 29.79 34.16 26.58 29.20 28.59 25.42 C 29.82 22.55 33.16 21.66 36.02 22.14 C 36.00 19.90 35.99 17.67 35.99 15.43 C 32.66 14.31 29.33 13.19 25.99 12.12 C 23.99 12.80 22.00 13.47 20.00 14.13 C 20.00 20.75 20.00 27.38 20.00 34.00 C 18.60 34.00 17.20 34.00 15.80 34.01 C 15.43 36.98 19.01 37.60 19.66 40.12 C 20.17 42.03 19.96 44.04 20.04 46.00 C 16.01 46.00 11.99 46.00 7.96 46.00 C 8.03 44.06 7.84 42.08 8.31 40.18 C 8.93 37.60 12.54 37.03 12.21 34.01 C 10.80 34.00 9.40 34.00 8.00 34.00 C 8.00 26.67 8.00 19.34 8.00 12.01 M 12.00 16.00 C 12.00 20.67 12.00 25.33 12.00 30.00 C 13.33 30.00 14.67 30.00 16.00 30.00 C 16.00 25.33 16.00 20.67 16.00 16.00 C 14.67 16.00 13.33 16.00 12.00 16.00 M 33.22 26.10 C 30.78 27.19 32.48 30.92 34.92 29.88 C 37.06 28.65 35.60 25.23 33.22 26.10 M 13.06 40.27 C 10.07 41.78 15.43 43.28 15.93 41.26 C 15.29 40.16 14.34 39.83 13.06 40.27 Z" />
<path fill="#000000" opacity="1.00" d=" M 7.79 48.03 C 9.15 48.01 10.52 48.00 11.88 48.00 C 12.76 49.15 12.66 51.76 14.36 51.85 C 15.01 50.60 15.55 49.29 16.11 48.00 C 17.48 48.01 18.84 48.02 20.21 48.04 C 19.19 51.72 17.22 54.99 15.22 58.21 C 14.55 58.05 13.20 57.73 12.53 57.57 C 10.30 54.78 8.89 51.41 7.79 48.03 Z" />
</g>
</svg>
