<?xml version="1.0" encoding="UTF-8" ?>
<!DOCTYPE svg PUBLIC "-//W3C//DTD SVG 1.1//EN" "http://www.w3.org/Graphics/SVG/1.1/DTD/svg11.dtd">
<svg width="60pt" height="60pt" viewBox="0 0 60 60" version="1.1" xmlns="http://www.w3.org/2000/svg">
<g id="#ffffffff">
<path fill="#ffffff" opacity="1.00" d=" M 0.00 0.00 L 60.00 0.00 L 60.00 60.00 L 0.00 60.00 L 0.00 0.00 M 10.29 6.41 C 6.81 8.27 8.28 12.82 7.97 16.00 C 7.57 18.62 8.77 22.01 11.90 21.94 C 22.27 22.08 32.65 21.96 43.03 22.00 C 45.07 22.22 47.38 21.13 47.82 18.98 C 48.17 15.98 48.08 12.94 47.94 9.93 C 47.97 7.89 46.21 5.98 44.14 6.06 C 34.43 5.89 24.72 6.08 15.01 5.97 C 13.44 6.05 11.78 5.82 10.29 6.41 M 49.81 14.94 C 50.36 15.25 51.46 15.87 52.01 16.18 C 51.60 19.52 53.38 24.55 49.63 26.44 C 43.50 28.17 36.98 28.03 30.87 29.82 C 26.58 31.39 25.66 36.28 25.88 40.31 C 23.10 43.14 23.98 47.38 24.17 50.94 C 24.79 54.89 31.11 54.91 31.82 50.98 C 32.01 47.41 32.97 43.02 30.00 40.28 C 30.03 37.92 29.62 34.58 32.37 33.55 C 38.14 32.15 44.11 31.82 49.91 30.56 C 53.29 29.84 55.93 26.60 55.93 23.14 C 56.09 20.09 56.10 17.03 55.92 13.99 C 55.64 10.65 49.35 11.38 49.81 14.94 Z" />
</g>
<g id="#000000ff">
<path fill="#968176" opacity="1.00" d=" M 10.29 6.41 C 11.78 5.82 13.44 6.05 15.01 5.97 C 24.72 6.08 34.43 5.89 44.14 6.06 C 46.21 5.98 47.97 7.89 47.94 9.93 C 48.08 12.94 48.17 15.98 47.82 18.98 C 47.38 21.13 45.07 22.22 43.03 22.00 C 32.65 21.96 22.27 22.08 11.90 21.94 C 8.77 22.01 7.57 18.62 7.97 16.00 C 8.28 12.82 6.81 8.27 10.29 6.41 Z" />
<path fill="#968176" opacity="1.00" d=" M 49.81 14.94 C 49.35 11.38 55.64 10.65 55.92 13.99 C 56.10 17.03 56.09 20.09 55.93 23.14 C 55.93 26.60 53.29 29.84 49.91 30.56 C 44.11 31.82 38.14 32.15 32.37 33.55 C 29.62 34.58 30.03 37.92 30.00 40.28 C 32.97 43.02 32.01 47.41 31.82 50.98 C 31.11 54.91 24.79 54.89 24.17 50.94 C 23.98 47.38 23.10 43.14 25.88 40.31 C 25.66 36.28 26.58 31.39 30.87 29.82 C 36.98 28.03 43.50 28.17 49.63 26.44 C 53.38 24.55 51.60 19.52 52.01 16.18 C 51.46 15.87 50.36 15.25 49.81 14.94 Z" />
</g>
</svg>
