<?xml version="1.0" encoding="UTF-8" ?>
<!DOCTYPE svg PUBLIC "-//W3C//DTD SVG 1.1//EN" "http://www.w3.org/Graphics/SVG/1.1/DTD/svg11.dtd">
<svg width="60pt" height="60pt" viewBox="0 0 60 60" version="1.1" xmlns="http://www.w3.org/2000/svg">
<g id="#ffffffff">
<path fill="#ffffff" opacity="1.00" d=" M 0.00 0.00 L 60.00 0.00 L 60.00 60.00 L 0.00 60.00 L 0.00 0.00 M 6.08 9.92 C 5.92 17.96 5.99 26.02 6.04 34.06 C 5.92 37.31 9.57 38.42 12.21 38.06 C 13.39 35.96 15.28 33.93 17.89 34.04 C 25.95 33.97 34.01 33.97 42.07 34.03 C 44.68 33.91 46.57 35.93 47.77 38.01 C 49.74 37.68 52.58 38.86 53.85 36.81 C 54.86 29.52 51.44 21.73 45.21 17.74 C 43.42 16.69 41.30 15.70 39.17 16.14 C 36.54 17.86 39.44 22.08 36.86 23.83 C 33.45 24.22 28.92 24.59 26.89 21.14 C 25.83 19.30 26.32 15.20 23.10 16.11 C 20.63 17.97 23.41 22.07 20.85 23.83 C 17.25 24.32 12.34 24.50 10.58 20.57 C 9.32 16.90 10.46 12.91 9.82 9.13 C 9.06 7.30 5.91 7.85 6.08 9.92 M 17.19 38.11 C 14.82 39.18 16.45 42.92 18.85 41.88 C 21.11 40.76 19.60 37.16 17.19 38.11 M 23.19 38.10 C 20.81 39.09 22.46 43.01 24.82 41.80 C 27.19 40.83 25.53 37.11 23.19 38.10 M 35.18 38.10 C 32.84 39.22 34.43 42.88 36.86 41.89 C 39.11 40.72 37.57 37.16 35.18 38.10 M 41.15 38.14 C 38.83 39.14 40.45 42.95 42.77 41.82 C 45.24 40.91 43.52 37.03 41.15 38.14 M 5.08 46.21 C 3.28 47.03 3.93 50.14 5.99 49.93 C 21.99 50.05 38.00 50.05 54.00 49.92 C 56.58 50.22 56.59 45.79 54.01 46.07 C 37.71 46.04 21.36 45.77 5.08 46.21 Z" />
</g>
<g id="#000000ff">
<path fill="#000000" opacity="1.00" d=" M 6.08 9.92 C 5.91 7.85 9.06 7.30 9.82 9.13 C 10.46 12.91 9.32 16.90 10.58 20.57 C 12.34 24.50 17.25 24.32 20.85 23.83 C 23.41 22.07 20.63 17.97 23.10 16.11 C 26.32 15.20 25.83 19.30 26.89 21.14 C 28.92 24.59 33.45 24.22 36.86 23.83 C 39.44 22.08 36.54 17.86 39.17 16.14 C 41.30 15.70 43.42 16.69 45.21 17.74 C 51.44 21.73 54.86 29.52 53.85 36.81 C 52.58 38.86 49.74 37.68 47.77 38.01 C 46.57 35.93 44.68 33.91 42.07 34.03 C 34.01 33.97 25.95 33.97 17.89 34.04 C 15.28 33.93 13.39 35.96 12.21 38.06 C 9.57 38.42 5.92 37.31 6.04 34.06 C 5.99 26.02 5.92 17.96 6.08 9.92 Z" />
<path fill="#000000" opacity="1.00" d=" M 17.19 38.11 C 19.60 37.16 21.11 40.76 18.85 41.88 C 16.45 42.92 14.82 39.18 17.19 38.11 Z" />
<path fill="#000000" opacity="1.00" d=" M 23.19 38.10 C 25.53 37.11 27.19 40.83 24.82 41.80 C 22.46 43.01 20.81 39.09 23.19 38.10 Z" />
<path fill="#000000" opacity="1.00" d=" M 35.18 38.10 C 37.57 37.16 39.11 40.72 36.86 41.89 C 34.43 42.88 32.84 39.22 35.18 38.10 Z" />
<path fill="#000000" opacity="1.00" d=" M 41.15 38.14 C 43.52 37.03 45.24 40.91 42.77 41.82 C 40.45 42.95 38.83 39.14 41.15 38.14 Z" />
<path fill="#000000" opacity="1.00" d=" M 5.08 46.21 C 21.36 45.77 37.71 46.04 54.01 46.07 C 56.59 45.79 56.58 50.22 54.00 49.92 C 38.00 50.05 21.99 50.05 5.99 49.93 C 3.93 50.14 3.28 47.03 5.08 46.21 Z" />
</g>
</svg>
