<?xml version="1.0" encoding="UTF-8" ?>
<!DOCTYPE svg PUBLIC "-//W3C//DTD SVG 1.1//EN" "http://www.w3.org/Graphics/SVG/1.1/DTD/svg11.dtd">
<svg width="64pt" height="64pt" viewBox="0 0 64 64" version="1.1" xmlns="http://www.w3.org/2000/svg">
<g id="#ffffffff">
<path fill="#ffffff" opacity="1.00" d=" M 0.00 0.00 L 64.00 0.00 L 64.00 48.50 C 58.44 46.32 53.45 39.99 46.91 42.79 C 40.33 39.93 35.46 46.48 29.83 48.54 C 31.02 54.96 37.04 59.91 43.16 61.56 C 51.75 63.75 60.13 57.94 64.00 50.56 L 64.00 64.00 L 0.00 64.00 L 0.00 0.00 M 12.00 6.00 C 12.00 23.33 12.00 40.67 12.00 58.00 C 18.10 58.01 24.20 57.97 30.31 58.03 C 29.34 56.66 28.48 55.16 27.18 54.08 C 23.46 53.83 19.72 54.08 16.00 54.00 C 16.00 39.33 16.00 24.67 16.00 10.00 C 22.67 10.00 29.33 10.00 36.00 10.00 C 36.00 14.00 36.00 18.00 36.00 22.00 C 40.00 22.00 44.00 22.00 48.00 22.00 C 47.99 27.39 48.01 32.78 47.99 38.17 C 49.33 38.17 50.67 38.13 52.01 38.05 C 51.99 31.75 52.00 25.45 52.00 19.15 C 47.61 14.77 43.23 10.39 38.85 6.00 C 29.90 6.00 20.95 6.00 12.00 6.00 Z" />
<path fill="#ffffff" opacity="1.00" d=" M 40.00 12.82 C 41.73 14.54 43.46 16.27 45.18 18.00 C 43.45 17.99 41.72 17.99 39.99 18.01 C 40.01 16.28 40.01 14.55 40.00 12.82 Z" />
<path fill="#ffffff" opacity="1.00" d=" M 37.20 49.02 C 39.27 47.78 41.32 46.00 43.88 46.03 C 44.95 46.67 45.92 47.46 46.91 48.22 C 47.94 47.45 48.91 46.59 50.06 46.01 C 52.26 46.14 54.21 47.33 55.99 48.53 C 55.83 49.84 53.95 49.26 53.09 49.62 C 47.80 50.27 42.43 50.04 37.20 49.02 Z" />
<path fill="#ffffff" opacity="1.00" d=" M 36.56 53.07 C 43.44 54.25 50.48 54.24 57.36 53.07 C 52.22 59.48 41.67 59.57 36.56 53.07 Z" />
</g>
<g id="#000000ff">
<path fill="#000000" opacity="1.00" d=" M 12.00 6.00 C 20.95 6.00 29.90 6.00 38.85 6.00 C 43.23 10.39 47.61 14.77 52.00 19.15 C 52.00 25.45 51.99 31.75 52.01 38.05 C 50.67 38.13 49.33 38.17 47.99 38.17 C 48.01 32.78 47.99 27.39 48.00 22.00 C 44.00 22.00 40.00 22.00 36.00 22.00 C 36.00 18.00 36.00 14.00 36.00 10.00 C 29.33 10.00 22.67 10.00 16.00 10.00 C 16.00 24.67 16.00 39.33 16.00 54.00 C 19.72 54.08 23.46 53.83 27.18 54.08 C 28.48 55.16 29.34 56.66 30.31 58.03 C 24.20 57.97 18.10 58.01 12.00 58.00 C 12.00 40.67 12.00 23.33 12.00 6.00 M 40.00 12.82 C 40.01 14.55 40.01 16.28 39.99 18.01 C 41.72 17.99 43.45 17.99 45.18 18.00 C 43.46 16.27 41.73 14.54 40.00 12.82 Z" />
<path fill="#000000" opacity="1.00" d=" M 29.83 48.54 C 35.46 46.48 40.33 39.93 46.91 42.79 C 53.45 39.99 58.44 46.32 64.00 48.50 L 64.00 50.56 C 60.13 57.94 51.75 63.75 43.16 61.56 C 37.04 59.91 31.02 54.96 29.83 48.54 M 37.20 49.02 C 42.43 50.04 47.80 50.27 53.09 49.62 C 53.95 49.26 55.83 49.84 55.99 48.53 C 54.21 47.33 52.26 46.14 50.06 46.01 C 48.91 46.59 47.94 47.45 46.91 48.22 C 45.92 47.46 44.95 46.67 43.88 46.03 C 41.32 46.00 39.27 47.78 37.20 49.02 M 36.56 53.07 C 41.67 59.57 52.22 59.48 57.36 53.07 C 50.48 54.24 43.44 54.25 36.56 53.07 Z" />
</g>
</svg>
