<?xml version="1.0" encoding="UTF-8" ?>
<!DOCTYPE svg PUBLIC "-//W3C//DTD SVG 1.1//EN" "http://www.w3.org/Graphics/SVG/1.1/DTD/svg11.dtd">
<svg width="64pt" height="64pt" viewBox="0 0 64 64" version="1.1" xmlns="http://www.w3.org/2000/svg">
<g id="#ffffffff">
<path fill="#ffffff" opacity="1.00" d=" M 0.00 0.00 L 64.00 0.00 L 64.00 64.00 L 0.00 64.00 L 0.00 0.00 M 6.06 14.88 C 7.39 19.26 8.73 23.63 10.07 28.00 C 11.95 28.00 13.84 28.00 15.72 28.00 C 14.80 35.27 14.96 42.66 16.23 49.87 C 18.31 50.16 20.86 49.82 22.36 51.62 C 23.92 53.36 23.94 55.80 24.10 58.00 C 29.37 58.00 34.64 58.00 39.90 58.00 C 40.05 55.78 40.08 53.32 41.68 51.58 C 43.18 49.82 45.71 50.16 47.77 49.87 C 49.06 42.65 48.99 35.27 48.21 28.00 C 50.10 28.00 51.98 28.00 53.87 28.00 C 55.21 23.62 56.55 19.25 57.88 14.88 C 51.66 11.91 45.45 8.92 39.23 5.97 C 37.02 12.02 26.91 12.14 24.78 5.97 C 18.53 8.93 12.29 11.90 6.06 14.88 Z" />
<path fill="#ffffff" opacity="1.00" d=" M 10.88 17.00 C 15.08 15.03 19.26 13.01 23.47 11.06 C 27.82 15.74 36.12 15.69 40.49 11.04 C 44.69 13.00 48.87 15.01 53.06 17.00 C 52.32 19.33 51.60 21.67 50.87 24.00 C 48.49 24.00 46.11 24.01 43.73 24.00 C 44.61 31.45 45.00 39.02 44.06 46.49 C 40.34 47.36 36.83 49.93 36.36 53.98 C 33.50 53.94 30.63 54.15 27.78 53.94 C 26.95 50.01 23.77 47.33 19.94 46.49 C 18.93 39.03 19.20 31.43 20.34 24.00 C 17.89 24.00 15.45 24.00 13.01 24.00 C 12.30 21.67 11.58 19.34 10.88 17.00 Z" />
</g>
<g id="#000000ff">
<path fill="#000000" opacity="1.00" d=" M 6.06 14.88 C 12.29 11.90 18.53 8.93 24.78 5.97 C 26.91 12.14 37.02 12.02 39.23 5.97 C 45.45 8.92 51.66 11.91 57.88 14.88 C 56.55 19.25 55.21 23.62 53.87 28.00 C 51.98 28.00 50.10 28.00 48.21 28.00 C 48.99 35.27 49.06 42.65 47.77 49.87 C 45.71 50.16 43.18 49.82 41.68 51.58 C 40.08 53.32 40.05 55.78 39.90 58.00 C 34.64 58.00 29.37 58.00 24.10 58.00 C 23.94 55.80 23.92 53.36 22.36 51.62 C 20.86 49.82 18.31 50.16 16.23 49.87 C 14.96 42.66 14.80 35.27 15.72 28.00 C 13.84 28.00 11.95 28.00 10.07 28.00 C 8.73 23.63 7.39 19.26 6.06 14.88 M 10.88 17.00 C 11.58 19.34 12.30 21.67 13.01 24.00 C 15.45 24.00 17.89 24.00 20.34 24.00 C 19.20 31.43 18.93 39.03 19.94 46.49 C 23.77 47.33 26.95 50.01 27.78 53.94 C 30.63 54.15 33.50 53.94 36.36 53.98 C 36.83 49.93 40.34 47.36 44.06 46.49 C 45.00 39.02 44.61 31.45 43.73 24.00 C 46.11 24.01 48.49 24.00 50.87 24.00 C 51.60 21.67 52.32 19.33 53.06 17.00 C 48.87 15.01 44.69 13.00 40.49 11.04 C 36.12 15.69 27.82 15.74 23.47 11.06 C 19.26 13.01 15.08 15.03 10.88 17.00 Z" />
</g>
</svg>
