<?xml version="1.0" encoding="UTF-8" ?>
<!DOCTYPE svg PUBLIC "-//W3C//DTD SVG 1.1//EN" "http://www.w3.org/Graphics/SVG/1.1/DTD/svg11.dtd">
<svg width="60pt" height="60pt" viewBox="0 0 60 60" version="1.1" xmlns="http://www.w3.org/2000/svg">
<g id="#ffffffff">
<path fill="#ffffff" opacity="1.00" d=" M 0.00 0.00 L 60.00 0.00 L 60.00 60.00 L 0.00 60.00 L 0.00 0.00 M 14.85 9.81 C 11.96 11.65 8.56 12.83 6.09 15.24 C 6.31 18.73 7.33 22.16 8.56 25.42 C 10.12 26.45 12.23 25.79 14.00 26.06 C 14.11 31.64 13.76 37.24 14.16 42.81 C 16.12 44.94 19.97 43.68 21.85 46.20 C 24.27 48.10 23.11 51.80 25.13 53.83 C 28.36 54.15 31.64 54.15 34.88 53.82 C 36.87 51.79 35.74 48.07 38.17 46.18 C 40.06 43.69 43.85 44.93 45.83 42.83 C 46.24 37.25 45.89 31.65 45.99 26.06 C 47.77 25.80 49.84 26.44 51.41 25.44 C 52.67 22.19 53.72 18.72 53.89 15.22 C 51.81 13.13 48.95 12.08 46.48 10.52 C 43.68 9.07 41.12 7.00 38.06 6.11 C 33.39 5.81 28.69 6.08 24.01 5.98 C 20.48 5.71 17.80 8.33 14.85 9.81 Z" />
<path fill="#ffffff" opacity="1.00" d=" M 22.64 10.05 C 27.55 9.97 32.47 9.97 37.38 10.05 C 35.71 12.75 33.64 16.08 30.02 15.98 C 26.39 16.10 24.24 12.82 22.64 10.05 Z" />
<path fill="#ffffff" opacity="1.00" d=" M 26.91 27.72 C 27.09 25.97 27.90 23.93 30.01 24.00 C 32.11 23.95 32.92 25.98 33.09 27.72 C 34.77 27.43 37.02 27.48 37.58 29.49 C 38.32 31.38 36.69 32.78 35.22 33.59 C 36.84 36.26 35.16 39.41 31.94 39.18 C 31.45 38.66 30.49 37.61 30.00 37.09 C 29.52 37.61 28.54 38.66 28.06 39.18 C 24.80 39.44 23.18 36.22 24.80 33.59 C 23.31 32.79 21.63 31.36 22.43 29.46 C 22.99 27.44 25.23 27.45 26.91 27.72 M 28.40 29.48 C 25.07 31.40 28.45 36.80 31.65 34.49 C 34.88 32.54 31.57 27.27 28.40 29.48 Z" />
</g>
<g id="#000000ff">
<path fill="#968176" opacity="1.00" d=" M 14.85 9.81 C 17.80 8.33 20.48 5.71 24.01 5.98 C 28.69 6.08 33.39 5.81 38.06 6.11 C 41.12 7.00 43.68 9.07 46.48 10.52 C 48.95 12.08 51.81 13.13 53.89 15.22 C 53.72 18.72 52.67 22.19 51.41 25.44 C 49.84 26.44 47.77 25.80 45.99 26.06 C 45.89 31.65 46.24 37.25 45.83 42.83 C 43.85 44.93 40.06 43.69 38.17 46.18 C 35.74 48.07 36.87 51.79 34.88 53.82 C 31.64 54.15 28.36 54.15 25.13 53.83 C 23.11 51.80 24.27 48.10 21.85 46.20 C 19.97 43.68 16.12 44.94 14.16 42.81 C 13.76 37.24 14.11 31.64 14.00 26.06 C 12.23 25.79 10.12 26.45 8.56 25.42 C 7.33 22.16 6.31 18.73 6.09 15.24 C 8.56 12.83 11.96 11.65 14.85 9.81 M 22.64 10.05 C 24.24 12.82 26.39 16.10 30.02 15.98 C 33.64 16.08 35.71 12.75 37.38 10.05 C 32.47 9.97 27.55 9.97 22.64 10.05 M 26.91 27.72 C 25.23 27.45 22.99 27.44 22.43 29.46 C 21.63 31.36 23.31 32.79 24.80 33.59 C 23.18 36.22 24.80 39.44 28.06 39.18 C 28.54 38.66 29.52 37.61 30.00 37.09 C 30.49 37.61 31.45 38.66 31.94 39.18 C 35.16 39.41 36.84 36.26 35.22 33.59 C 36.69 32.78 38.32 31.38 37.58 29.49 C 37.02 27.48 34.77 27.43 33.09 27.72 C 32.92 25.98 32.11 23.95 30.01 24.00 C 27.90 23.93 27.09 25.97 26.91 27.72 Z" />
<path fill="#968176" opacity="1.00" d=" M 28.40 29.48 C 31.57 27.27 34.88 32.54 31.65 34.49 C 28.45 36.80 25.07 31.40 28.40 29.48 Z" />
</g>
</svg>
