<?xml version="1.0" encoding="UTF-8" ?>
<!DOCTYPE svg PUBLIC "-//W3C//DTD SVG 1.1//EN" "http://www.w3.org/Graphics/SVG/1.1/DTD/svg11.dtd">
<svg width="64pt" height="64pt" viewBox="0 0 64 64" version="1.1" xmlns="http://www.w3.org/2000/svg">
<g id="#ffffffff">
<path fill="#ffffff" opacity="1.00" d=" M 0.00 0.00 L 64.00 0.00 L 64.00 64.00 L 0.00 64.00 L 0.00 0.00 M 35.00 7.04 C 32.06 8.24 31.53 11.67 29.52 13.79 C 27.19 16.08 28.88 19.68 27.22 22.29 C 25.30 25.74 26.08 29.90 27.90 33.22 C 26.61 34.50 25.32 35.80 24.06 37.11 C 23.27 32.95 20.37 29.76 17.00 27.43 C 13.54 29.92 10.01 33.35 10.03 37.94 C 9.85 41.47 12.21 44.34 14.46 46.77 C 13.46 47.70 12.50 48.68 11.42 49.52 C 10.58 49.13 8.89 48.34 8.04 47.95 C 8.41 48.82 9.14 50.58 9.51 51.45 C 8.46 52.81 7.18 53.97 5.96 55.17 C 6.89 56.13 7.81 57.10 8.73 58.07 C 13.46 53.67 17.78 48.83 22.55 44.48 C 23.40 44.85 25.10 45.58 25.95 45.95 C 25.59 45.11 24.85 43.42 24.49 42.57 C 26.38 40.23 28.70 38.27 30.79 36.10 C 32.76 36.97 34.77 37.96 36.99 37.90 C 40.19 38.03 42.83 35.77 46.02 35.72 C 51.03 35.06 57.47 33.08 57.75 27.01 C 57.27 22.55 58.96 17.61 56.30 13.60 C 54.48 10.62 51.52 8.09 47.95 7.69 C 43.68 7.08 39.18 4.78 35.00 7.04 Z" />
<path fill="#ffffff" opacity="1.00" d=" M 36.83 10.60 C 39.80 9.02 42.91 11.15 45.96 11.26 C 50.68 11.40 54.61 16.26 53.71 20.91 C 53.71 24.07 54.85 28.43 51.37 30.25 C 48.34 30.53 45.00 33.10 42.22 30.82 C 40.29 29.59 39.35 27.43 38.41 25.43 C 34.85 23.99 31.79 20.90 31.85 16.82 C 32.58 16.28 33.30 15.74 34.02 15.19 C 34.63 13.51 35.02 11.42 36.83 10.60 M 39.88 15.82 C 39.95 17.12 40.02 18.41 40.09 19.71 C 42.35 20.17 44.05 21.58 44.23 24.00 C 45.55 24.00 46.86 23.99 48.18 23.97 C 47.99 19.48 44.40 15.89 39.88 15.82 Z" />
<path fill="#ffffff" opacity="1.00" d=" M 30.16 24.54 C 32.09 26.41 34.96 27.32 36.25 29.79 C 37.11 31.26 38.14 32.64 39.21 33.97 C 36.94 33.96 34.42 34.03 32.62 32.39 C 30.11 30.62 29.87 27.33 30.16 24.54 Z" />
<path fill="#ffffff" opacity="1.00" d=" M 14.05 37.98 C 14.04 35.80 15.83 34.27 17.00 32.62 C 18.34 34.45 20.47 36.35 19.90 38.88 C 19.39 40.63 18.06 41.95 17.00 43.38 C 15.82 41.72 14.02 40.18 14.05 37.98 Z" />
</g>
<g id="#000000ff">
<path fill="#000000" opacity="1.00" d=" M 35.00 7.04 C 39.18 4.78 43.68 7.08 47.95 7.69 C 51.52 8.09 54.48 10.62 56.30 13.60 C 58.96 17.61 57.27 22.55 57.75 27.01 C 57.47 33.08 51.03 35.06 46.02 35.72 C 42.83 35.77 40.19 38.03 36.99 37.90 C 34.77 37.96 32.76 36.97 30.79 36.10 C 28.70 38.27 26.38 40.23 24.49 42.57 C 24.85 43.42 25.59 45.11 25.95 45.95 C 25.10 45.58 23.40 44.85 22.55 44.48 C 17.78 48.83 13.46 53.67 8.73 58.07 C 7.81 57.10 6.89 56.13 5.96 55.17 C 7.18 53.97 8.46 52.81 9.51 51.45 C 9.14 50.58 8.41 48.82 8.04 47.95 C 8.89 48.34 10.58 49.13 11.42 49.52 C 12.50 48.68 13.46 47.70 14.46 46.77 C 12.21 44.34 9.85 41.47 10.03 37.94 C 10.01 33.35 13.54 29.92 17.00 27.43 C 20.37 29.76 23.27 32.95 24.06 37.11 C 25.32 35.80 26.61 34.50 27.90 33.22 C 26.08 29.90 25.30 25.74 27.22 22.29 C 28.88 19.68 27.19 16.08 29.52 13.79 C 31.53 11.67 32.06 8.24 35.00 7.04 M 36.83 10.60 C 35.02 11.42 34.63 13.51 34.02 15.19 C 33.30 15.74 32.58 16.28 31.85 16.82 C 31.79 20.90 34.85 23.99 38.41 25.43 C 39.35 27.43 40.29 29.59 42.22 30.82 C 45.00 33.10 48.34 30.53 51.37 30.25 C 54.85 28.43 53.71 24.07 53.71 20.91 C 54.61 16.26 50.68 11.40 45.96 11.26 C 42.91 11.15 39.80 9.02 36.83 10.60 M 30.16 24.54 C 29.87 27.33 30.11 30.62 32.62 32.39 C 34.42 34.03 36.94 33.96 39.21 33.97 C 38.14 32.64 37.11 31.26 36.25 29.79 C 34.96 27.32 32.09 26.41 30.16 24.54 M 14.05 37.98 C 14.02 40.18 15.82 41.72 17.00 43.38 C 18.06 41.95 19.39 40.63 19.90 38.88 C 20.47 36.35 18.34 34.45 17.00 32.62 C 15.83 34.27 14.04 35.80 14.05 37.98 Z" />
<path fill="#000000" opacity="1.00" d=" M 39.88 15.82 C 44.40 15.89 47.99 19.48 48.18 23.97 C 46.86 23.99 45.55 24.00 44.23 24.00 C 44.05 21.58 42.35 20.17 40.09 19.71 C 40.02 18.41 39.95 17.12 39.88 15.82 Z" />
</g>
</svg>
