<?xml version="1.0" encoding="UTF-8" ?>
<!DOCTYPE svg PUBLIC "-//W3C//DTD SVG 1.1//EN" "http://www.w3.org/Graphics/SVG/1.1/DTD/svg11.dtd">
<svg width="60pt" height="60pt" viewBox="0 0 60 60" version="1.1" xmlns="http://www.w3.org/2000/svg">
<g id="#ffffffff">
<path fill="#ffffff" opacity="1.00" d=" M 0.00 0.00 L 60.00 0.00 L 60.00 60.00 L 0.00 60.00 L 0.00 0.00 M 22.94 10.75 C 25.52 11.87 28.10 12.97 30.62 14.21 C 32.89 13.21 35.15 12.17 37.42 11.16 C 33.52 7.26 27.06 7.06 22.94 10.75 M 11.09 12.00 C 8.64 13.78 11.64 16.80 12.22 18.94 C 18.22 19.78 24.21 20.99 29.86 23.23 C 31.32 22.71 32.78 22.18 34.23 21.64 C 27.73 16.16 19.40 13.28 11.09 12.00 M 34.59 16.75 C 36.00 18.00 37.41 19.23 38.84 20.45 C 41.85 19.85 44.88 19.34 47.92 18.89 C 48.44 16.75 51.30 13.72 48.91 12.00 C 43.94 12.89 39.21 14.77 34.59 16.75 M 5.91 24.00 C 7.01 27.01 9.05 29.67 9.52 32.91 C 10.25 36.96 9.59 41.44 11.95 45.06 C 14.42 49.54 19.43 51.92 24.42 52.17 C 19.52 47.69 16.69 40.65 18.58 34.09 C 19.50 30.50 22.25 27.89 25.05 25.66 C 19.17 24.07 13.14 22.83 7.05 22.50 C 6.76 22.87 6.19 23.62 5.91 24.00 M 42.52 23.81 C 36.14 25.14 29.12 26.59 24.51 31.57 C 19.53 37.27 22.60 46.81 28.93 50.15 C 34.88 53.70 43.24 51.81 47.10 46.07 C 49.80 42.64 49.60 38.13 50.00 34.03 C 50.27 30.36 52.47 27.29 53.80 23.96 C 53.40 23.59 52.60 22.85 52.20 22.48 C 48.94 22.66 45.74 23.30 42.52 23.81 Z" />
</g>
<g id="#000000ff">
<path fill="#000000" opacity="1.00" d=" M 22.94 10.75 C 27.06 7.06 33.52 7.26 37.42 11.16 C 35.15 12.17 32.89 13.21 30.62 14.21 C 28.10 12.97 25.52 11.87 22.94 10.75 Z" />
<path fill="#000000" opacity="1.00" d=" M 11.09 12.00 C 19.40 13.28 27.73 16.16 34.23 21.64 C 32.78 22.18 31.32 22.71 29.86 23.23 C 24.21 20.99 18.22 19.78 12.22 18.94 C 11.64 16.80 8.64 13.78 11.09 12.00 Z" />
<path fill="#000000" opacity="1.00" d=" M 34.59 16.75 C 39.21 14.77 43.94 12.89 48.91 12.00 C 51.30 13.72 48.44 16.75 47.92 18.89 C 44.88 19.34 41.85 19.85 38.84 20.45 C 37.41 19.23 36.00 18.00 34.59 16.75 Z" />
<path fill="#000000" opacity="1.00" d=" M 5.91 24.00 C 6.19 23.62 6.76 22.87 7.05 22.50 C 13.14 22.83 19.17 24.07 25.05 25.66 C 22.25 27.89 19.50 30.50 18.58 34.09 C 16.69 40.65 19.52 47.69 24.42 52.17 C 19.43 51.92 14.42 49.54 11.95 45.06 C 9.59 41.44 10.25 36.96 9.52 32.91 C 9.05 29.67 7.01 27.01 5.91 24.00 Z" />
<path fill="#000000" opacity="1.00" d=" M 42.52 23.81 C 45.74 23.30 48.94 22.66 52.20 22.48 C 52.60 22.85 53.40 23.59 53.80 23.96 C 52.47 27.29 50.27 30.36 50.00 34.03 C 49.60 38.13 49.80 42.64 47.10 46.07 C 43.24 51.81 34.88 53.70 28.93 50.15 C 22.60 46.81 19.53 37.27 24.51 31.57 C 29.12 26.59 36.14 25.14 42.52 23.81 Z" />
</g>
</svg>
