<?xml version="1.0" encoding="UTF-8" ?>
<!DOCTYPE svg PUBLIC "-//W3C//DTD SVG 1.1//EN" "http://www.w3.org/Graphics/SVG/1.1/DTD/svg11.dtd">
<svg width="60pt" height="60pt" viewBox="0 0 60 60" version="1.1" xmlns="http://www.w3.org/2000/svg">
<g id="#ffffffff">
<path fill="#ffffff" opacity="1.00" d=" M 0.00 0.00 L 60.00 0.00 L 60.00 60.00 L 0.00 60.00 L 0.00 0.00 M 0.76 3.63 C 3.21 5.99 5.59 8.43 8.00 10.84 C 8.00 14.56 8.00 18.28 8.00 22.00 C 11.71 22.00 15.42 22.01 19.14 21.99 C 31.57 34.27 43.77 46.78 56.28 58.98 C 57.51 58.98 60.03 56.83 58.45 55.62 C 40.45 37.61 22.43 19.60 4.43 1.60 C 2.95 -0.20 1.59 2.60 0.76 3.63 M 17.83 9.45 C 18.78 10.38 19.74 11.31 20.71 12.24 C 24.87 10.30 29.61 9.40 34.14 10.44 C 42.42 12.05 49.18 19.48 49.84 27.91 C 50.11 29.27 49.76 31.00 51.11 31.88 C 52.38 32.30 53.98 31.58 53.96 30.08 C 54.13 21.82 49.49 13.73 42.42 9.49 C 35.08 4.94 25.16 4.81 17.83 9.45 M 7.09 28.13 C 4.81 29.28 6.58 33.05 8.88 31.77 C 11.23 30.71 9.44 27.05 7.09 28.13 M 8.17 37.11 C 6.43 38.83 9.26 41.61 11.03 39.97 C 13.17 38.15 9.89 34.91 8.17 37.11 M 48.97 36.85 C 46.92 38.60 49.85 41.79 51.71 39.87 C 53.62 38.17 50.89 35.20 48.97 36.85 M 13.10 44.04 C 10.96 45.74 14.16 49.04 15.91 46.92 C 17.73 45.20 14.87 42.30 13.10 44.04 M 19.99 48.98 C 18.45 50.79 21.11 53.52 22.87 51.84 C 25.15 50.12 21.80 46.82 19.99 48.98 M 36.91 48.94 C 35.14 50.74 38.10 53.64 39.81 51.76 C 41.85 50.01 38.68 46.89 36.91 48.94 M 29.19 50.17 C 26.81 51.14 28.44 54.89 30.81 53.88 C 33.17 52.89 31.56 49.02 29.19 50.17 Z" />
</g>
<g id="#000000ff">
<path fill="#000000" opacity="1.00" d=" M 0.76 3.63 C 1.59 2.60 2.95 -0.20 4.43 1.60 C 22.43 19.60 40.45 37.61 58.45 55.62 C 60.03 56.83 57.51 58.98 56.28 58.98 C 43.77 46.78 31.57 34.27 19.14 21.99 C 15.42 22.01 11.71 22.00 8.00 22.00 C 8.00 18.28 8.00 14.56 8.00 10.84 C 5.59 8.43 3.21 5.99 0.76 3.63 Z" />
<path fill="#000000" opacity="1.00" d=" M 17.83 9.45 C 25.16 4.81 35.08 4.94 42.42 9.49 C 49.49 13.73 54.13 21.82 53.96 30.08 C 53.98 31.58 52.38 32.30 51.11 31.88 C 49.76 31.00 50.11 29.27 49.84 27.91 C 49.18 19.48 42.42 12.05 34.14 10.44 C 29.61 9.40 24.87 10.30 20.71 12.24 C 19.74 11.31 18.78 10.38 17.83 9.45 Z" />
<path fill="#000000" opacity="1.00" d=" M 7.09 28.13 C 9.44 27.05 11.23 30.71 8.88 31.77 C 6.58 33.05 4.81 29.28 7.09 28.13 Z" />
<path fill="#000000" opacity="1.00" d=" M 8.17 37.11 C 9.89 34.91 13.17 38.15 11.03 39.97 C 9.26 41.61 6.43 38.83 8.17 37.11 Z" />
<path fill="#000000" opacity="1.00" d=" M 48.97 36.85 C 50.89 35.20 53.62 38.17 51.71 39.87 C 49.85 41.79 46.92 38.60 48.97 36.85 Z" />
<path fill="#000000" opacity="1.00" d=" M 13.10 44.04 C 14.87 42.30 17.73 45.20 15.91 46.92 C 14.16 49.04 10.96 45.74 13.10 44.04 Z" />
<path fill="#000000" opacity="1.00" d=" M 19.99 48.98 C 21.80 46.82 25.15 50.12 22.87 51.84 C 21.11 53.52 18.45 50.79 19.99 48.98 Z" />
<path fill="#000000" opacity="1.00" d=" M 36.91 48.94 C 38.68 46.89 41.85 50.01 39.81 51.76 C 38.10 53.64 35.14 50.74 36.91 48.94 Z" />
<path fill="#000000" opacity="1.00" d=" M 29.19 50.17 C 31.56 49.02 33.17 52.89 30.81 53.88 C 28.44 54.89 26.81 51.14 29.19 50.17 Z" />
</g>
</svg>
