<?xml version="1.0" encoding="UTF-8" ?>
<!DOCTYPE svg PUBLIC "-//W3C//DTD SVG 1.1//EN" "http://www.w3.org/Graphics/SVG/1.1/DTD/svg11.dtd">
<svg width="60pt" height="60pt" viewBox="0 0 60 60" version="1.1" xmlns="http://www.w3.org/2000/svg">
<g id="#ffffffff">
<path fill="#ffffff" opacity="1.00" d=" M 0.00 0.00 L 60.00 0.00 L 60.00 60.00 L 0.00 60.00 L 0.00 0.00 M 18.42 10.72 C 15.20 12.47 15.26 17.65 18.52 19.33 C 21.64 21.35 26.15 18.66 26.00 14.99 C 26.14 11.27 21.53 8.61 18.42 10.72 M 10.42 20.74 C 5.55 24.70 2.09 30.75 2.02 37.12 C 1.99 39.69 4.33 42.04 6.91 41.95 C 10.67 41.96 14.39 41.19 18.14 41.25 C 22.23 42.41 25.82 44.92 29.95 45.93 C 31.68 46.37 32.82 43.55 31.35 42.64 C 28.60 40.61 25.53 39.07 22.66 37.24 C 19.57 35.23 15.70 35.56 12.22 34.80 C 13.44 32.17 15.26 29.91 17.12 27.71 C 22.06 28.38 26.96 29.50 31.93 29.91 C 34.09 30.37 34.92 26.76 32.78 26.22 C 28.78 25.18 24.39 25.48 20.76 23.20 C 17.53 21.94 13.98 18.66 10.42 20.74 M 51.96 28.01 C 46.64 27.99 41.32 28.00 36.00 28.00 C 36.00 28.50 36.00 29.50 36.00 30.00 C 41.50 30.01 47.01 29.98 52.51 30.02 C 50.69 36.72 48.49 43.32 46.54 49.98 C 36.67 49.99 26.79 50.05 16.92 49.96 C 15.18 48.45 13.59 46.27 11.10 46.10 C 8.07 45.87 5.03 46.03 2.00 46.01 C 2.00 47.34 2.00 48.67 2.00 50.00 C 5.02 50.00 8.04 49.99 11.06 50.03 C 13.01 51.80 14.98 54.21 17.91 53.97 C 28.44 54.04 38.97 53.99 49.49 53.99 C 51.52 47.26 53.60 40.54 55.63 33.81 C 55.95 32.27 56.96 31.07 58.00 29.95 C 58.34 27.46 56.36 25.71 53.95 25.93 C 53.29 26.62 52.62 27.32 51.96 28.01 Z" />
</g>
<g id="#000000ff">
<path fill="#968176" opacity="1.00" d=" M 18.42 10.72 C 21.53 8.61 26.14 11.27 26.00 14.99 C 26.15 18.66 21.64 21.35 18.52 19.33 C 15.26 17.65 15.20 12.47 18.42 10.72 Z" />
<path fill="#968176" opacity="1.00" d=" M 10.42 20.74 C 13.98 18.66 17.53 21.94 20.76 23.20 C 24.39 25.48 28.78 25.18 32.78 26.22 C 34.92 26.76 34.09 30.37 31.93 29.91 C 26.96 29.50 22.06 28.38 17.12 27.71 C 15.26 29.91 13.44 32.17 12.22 34.80 C 15.70 35.56 19.57 35.23 22.66 37.24 C 25.53 39.07 28.60 40.61 31.35 42.64 C 32.82 43.55 31.68 46.37 29.95 45.93 C 25.82 44.92 22.23 42.41 18.14 41.25 C 14.39 41.19 10.67 41.96 6.91 41.95 C 4.33 42.04 1.99 39.69 2.02 37.12 C 2.09 30.75 5.55 24.70 10.42 20.74 Z" />
<path fill="#968176" opacity="1.00" d=" M 51.96 28.01 C 52.62 27.32 53.29 26.62 53.95 25.93 C 56.36 25.71 58.34 27.46 58.00 29.95 C 56.96 31.07 55.95 32.27 55.63 33.81 C 53.60 40.54 51.52 47.26 49.49 53.99 C 38.97 53.99 28.44 54.04 17.91 53.97 C 14.98 54.21 13.01 51.80 11.06 50.03 C 8.04 49.99 5.02 50.00 2.00 50.00 C 2.00 48.67 2.00 47.34 2.00 46.01 C 5.03 46.03 8.07 45.87 11.10 46.10 C 13.59 46.27 15.18 48.45 16.92 49.96 C 26.79 50.05 36.67 49.99 46.54 49.98 C 48.49 43.32 50.69 36.72 52.51 30.02 C 47.01 29.98 41.50 30.01 36.00 30.00 C 36.00 29.50 36.00 28.50 36.00 28.00 C 41.32 28.00 46.64 27.99 51.96 28.01 Z" />
</g>
</svg>
