<?xml version="1.0" encoding="UTF-8" ?>
<!DOCTYPE svg PUBLIC "-//W3C//DTD SVG 1.1//EN" "http://www.w3.org/Graphics/SVG/1.1/DTD/svg11.dtd">
<svg width="60pt" height="60pt" viewBox="0 0 60 60" version="1.1" xmlns="http://www.w3.org/2000/svg">
<g id="#ffffffff">
<path fill="#ffffff" opacity="1.00" d=" M 0.00 0.00 L 60.00 0.00 L 60.00 60.00 L 0.00 60.00 L 0.00 0.00 M 41.17 6.20 C 33.50 14.51 26.50 23.47 19.07 32.01 C 17.88 31.15 16.07 29.00 14.63 30.54 C 12.80 32.21 15.38 34.06 16.33 35.35 C 14.30 37.85 12.27 40.35 10.22 42.84 C 8.87 42.26 6.95 41.41 6.04 43.16 C 5.64 45.32 7.87 46.46 9.04 47.89 C 11.37 49.92 13.16 52.74 16.01 54.08 C 18.37 53.89 18.09 51.31 17.17 49.82 C 19.64 47.75 22.14 45.72 24.64 43.68 C 25.91 44.62 27.71 47.03 29.38 45.42 C 31.01 44.02 28.89 42.13 28.00 40.95 C 36.52 33.50 45.51 26.55 53.78 18.85 C 54.18 14.95 54.14 10.99 53.80 7.09 C 53.57 6.86 53.11 6.41 52.88 6.18 C 48.99 5.86 45.05 5.83 41.17 6.20 Z" />
<path fill="#ffffff" opacity="1.00" d=" M 21.81 34.99 C 28.83 26.64 35.90 18.34 42.93 10.00 C 45.28 10.00 47.64 10.00 50.00 10.00 C 50.00 12.36 50.00 14.72 50.00 17.08 C 41.70 24.14 33.36 31.14 25.05 38.19 C 23.97 37.12 22.89 36.05 21.81 34.99 Z" />
</g>
<g id="#000000ff">
<path fill="#000000" opacity="1.00" d=" M 41.17 6.20 C 45.05 5.83 48.99 5.86 52.88 6.18 C 53.11 6.41 53.57 6.86 53.80 7.09 C 54.14 10.99 54.18 14.95 53.78 18.85 C 45.51 26.55 36.52 33.50 28.00 40.95 C 28.89 42.13 31.01 44.02 29.38 45.42 C 27.71 47.03 25.91 44.62 24.64 43.68 C 22.14 45.72 19.64 47.75 17.17 49.82 C 18.09 51.31 18.37 53.89 16.01 54.08 C 13.16 52.74 11.37 49.92 9.04 47.89 C 7.87 46.46 5.64 45.32 6.04 43.16 C 6.95 41.41 8.87 42.26 10.22 42.84 C 12.27 40.35 14.30 37.85 16.33 35.35 C 15.38 34.06 12.80 32.21 14.63 30.54 C 16.07 29.00 17.88 31.15 19.07 32.01 C 26.50 23.47 33.50 14.51 41.17 6.20 M 21.81 34.99 C 22.89 36.05 23.97 37.12 25.05 38.19 C 33.36 31.14 41.70 24.14 50.00 17.08 C 50.00 14.72 50.00 12.36 50.00 10.00 C 47.64 10.00 45.28 10.00 42.93 10.00 C 35.90 18.34 28.83 26.64 21.81 34.99 Z" />
</g>
</svg>
