<?xml version="1.0" encoding="UTF-8" ?>
<!DOCTYPE svg PUBLIC "-//W3C//DTD SVG 1.1//EN" "http://www.w3.org/Graphics/SVG/1.1/DTD/svg11.dtd">
<svg width="60pt" height="60pt" viewBox="0 0 60 60" version="1.1" xmlns="http://www.w3.org/2000/svg">
<g id="#ffffffff">
<path fill="#ffffff" opacity="1.00" d=" M 0.00 0.00 L 60.00 0.00 L 60.00 60.00 L 0.00 60.00 L 0.00 0.00 M 24.47 6.65 C 16.89 8.41 10.35 14.09 7.61 21.38 C 4.56 29.11 5.95 38.38 11.16 44.85 C 16.46 51.67 25.59 55.20 34.10 53.63 C 43.10 52.19 50.82 45.12 53.14 36.31 C 55.51 27.96 52.83 18.47 46.48 12.56 C 40.76 7.05 32.19 4.78 24.47 6.65 Z" />
<path fill="#ffffff" opacity="1.00" d=" M 25.41 14.67 C 34.12 11.75 44.14 18.00 45.70 26.95 C 47.66 35.63 40.93 44.87 32.13 45.84 C 23.72 47.20 15.10 40.59 14.15 32.15 C 12.95 24.58 18.05 16.73 25.41 14.67 M 27.32 22.49 C 21.66 24.21 20.17 32.48 24.85 36.08 C 29.02 39.96 36.58 37.48 37.74 31.93 C 39.51 26.08 32.98 20.13 27.32 22.49 Z" />
<path fill="#ffffff" opacity="1.00" d=" M 28.33 26.35 C 30.85 25.08 34.13 27.19 34.00 30.01 C 34.15 33.15 30.11 35.20 27.65 33.25 C 25.19 31.64 25.59 27.44 28.33 26.35 Z" />
</g>
<g id="#000000ff">
<path fill="#000000" opacity="1.00" d=" M 24.47 6.65 C 32.19 4.78 40.76 7.05 46.48 12.56 C 52.83 18.47 55.51 27.96 53.14 36.31 C 50.82 45.12 43.10 52.19 34.10 53.63 C 25.59 55.20 16.46 51.67 11.16 44.85 C 5.95 38.38 4.56 29.11 7.61 21.38 C 10.35 14.09 16.89 8.41 24.47 6.65 M 25.41 14.67 C 18.05 16.73 12.95 24.58 14.15 32.15 C 15.10 40.59 23.72 47.20 32.13 45.84 C 40.93 44.87 47.66 35.63 45.70 26.95 C 44.14 18.00 34.12 11.75 25.41 14.67 Z" />
<path fill="#000000" opacity="1.00" d=" M 27.32 22.49 C 32.98 20.13 39.51 26.08 37.74 31.93 C 36.58 37.48 29.02 39.96 24.85 36.08 C 20.17 32.48 21.66 24.21 27.32 22.49 M 28.33 26.35 C 25.59 27.44 25.19 31.64 27.65 33.25 C 30.11 35.20 34.15 33.15 34.00 30.01 C 34.13 27.19 30.85 25.08 28.33 26.35 Z" />
</g>
</svg>
