<?xml version="1.0" encoding="UTF-8" ?>
<!DOCTYPE svg PUBLIC "-//W3C//DTD SVG 1.1//EN" "http://www.w3.org/Graphics/SVG/1.1/DTD/svg11.dtd">
<svg width="64pt" height="64pt" viewBox="0 0 64 64" version="1.1" xmlns="http://www.w3.org/2000/svg">
<g id="#ffffffff">
<path fill="#ffffff" opacity="1.00" d=" M 0.00 0.00 L 64.00 0.00 L 64.00 64.00 L 0.00 64.00 L 0.00 0.00 M 54.69 6.64 C 51.78 10.10 47.35 11.16 43.35 12.76 C 40.00 14.08 38.14 17.52 37.76 20.95 C 36.12 21.98 34.47 22.99 32.80 23.98 C 30.35 21.50 27.86 19.05 25.39 16.58 C 24.46 17.53 23.53 18.48 22.59 19.42 C 24.12 20.94 25.64 22.48 27.17 23.99 C 25.85 25.33 24.51 26.65 23.20 27.99 C 23.70 28.51 24.71 29.54 25.21 30.06 C 24.13 31.08 23.07 32.13 22.03 33.19 C 21.52 32.69 20.50 31.68 19.99 31.18 C 17.73 33.46 15.45 35.73 13.18 38.01 C 13.78 38.60 14.97 39.78 15.57 40.37 C 14.17 42.18 13.25 44.69 10.94 45.52 C 8.57 46.37 6.81 48.18 5.18 50.01 C 8.12 52.95 11.07 55.87 14.00 58.82 C 15.82 57.20 17.63 55.47 18.45 53.11 C 19.27 50.76 21.84 49.88 23.66 48.48 C 25.76 50.61 27.89 52.70 30.00 54.83 C 32.27 52.55 34.55 50.28 36.83 48.00 C 34.81 45.99 32.81 43.97 30.80 41.96 C 31.88 40.93 32.95 39.88 33.98 38.80 C 36.85 41.68 39.73 44.54 42.59 47.43 C 43.50 46.44 44.45 45.49 45.44 44.58 C 43.23 42.40 41.03 40.21 38.84 38.01 C 40.17 36.67 41.51 35.35 42.83 34.01 C 41.88 33.06 40.94 32.11 39.99 31.16 C 40.98 29.51 41.99 27.87 43.02 26.24 C 46.62 25.85 50.20 23.81 51.39 20.21 C 52.81 16.30 53.99 12.10 57.37 9.36 C 56.46 8.47 55.57 7.56 54.69 6.64 Z" />
<path fill="#ffffff" opacity="1.00" d=" M 42.20 19.27 C 43.27 16.41 46.57 15.82 49.09 14.86 C 48.13 17.69 47.30 21.45 43.82 22.10 C 42.18 22.34 41.43 20.54 42.20 19.27 Z" />
<path fill="#ffffff" opacity="1.00" d=" M 29.37 31.41 C 32.14 28.56 35.84 26.96 39.15 24.85 C 36.93 28.37 35.22 32.29 32.10 35.14 C 27.74 39.10 24.13 44.00 18.86 46.86 C 16.36 48.17 14.94 50.63 13.97 53.18 C 12.96 52.10 11.91 51.05 10.83 50.04 C 16.78 48.53 18.15 41.95 22.42 38.38 C 24.79 36.11 27.07 33.75 29.37 31.41 Z" />
<path fill="#ffffff" opacity="1.00" d=" M 26.79 45.99 C 27.08 45.69 27.65 45.08 27.94 44.78 C 29.37 45.90 30.51 47.32 31.22 48.99 C 29.20 48.99 28.10 47.21 26.79 45.99 Z" />
</g>
<g id="#000000ff">
<path fill="#000000" opacity="1.00" d=" M 54.69 6.64 C 55.57 7.56 56.46 8.47 57.37 9.36 C 53.99 12.10 52.81 16.30 51.39 20.21 C 50.20 23.81 46.62 25.85 43.02 26.24 C 41.99 27.87 40.98 29.51 39.99 31.16 C 40.94 32.11 41.88 33.06 42.83 34.01 C 41.51 35.35 40.17 36.67 38.84 38.01 C 41.03 40.21 43.23 42.40 45.44 44.58 C 44.45 45.49 43.50 46.44 42.59 47.43 C 39.73 44.54 36.85 41.68 33.98 38.80 C 32.95 39.88 31.88 40.93 30.80 41.96 C 32.81 43.97 34.81 45.99 36.83 48.00 C 34.55 50.28 32.27 52.55 30.00 54.83 C 27.89 52.70 25.76 50.61 23.66 48.48 C 21.84 49.88 19.27 50.76 18.45 53.11 C 17.63 55.47 15.82 57.20 14.00 58.82 C 11.07 55.87 8.12 52.95 5.18 50.01 C 6.81 48.18 8.57 46.37 10.94 45.52 C 13.25 44.69 14.17 42.18 15.57 40.37 C 14.97 39.78 13.78 38.60 13.18 38.01 C 15.45 35.73 17.73 33.46 19.99 31.18 C 20.50 31.68 21.52 32.69 22.03 33.19 C 23.07 32.13 24.13 31.08 25.21 30.06 C 24.71 29.54 23.70 28.51 23.20 27.99 C 24.51 26.65 25.85 25.33 27.17 23.99 C 25.64 22.48 24.12 20.94 22.59 19.42 C 23.53 18.48 24.46 17.53 25.39 16.58 C 27.86 19.05 30.35 21.50 32.80 23.98 C 34.47 22.99 36.12 21.98 37.76 20.95 C 38.14 17.52 40.00 14.08 43.35 12.76 C 47.35 11.16 51.78 10.10 54.69 6.64 M 42.20 19.27 C 41.43 20.54 42.18 22.34 43.82 22.10 C 47.30 21.45 48.13 17.69 49.09 14.86 C 46.57 15.82 43.27 16.41 42.20 19.27 M 29.37 31.41 C 27.07 33.75 24.79 36.11 22.42 38.38 C 18.15 41.95 16.78 48.53 10.83 50.04 C 11.91 51.05 12.96 52.10 13.97 53.18 C 14.94 50.63 16.36 48.17 18.86 46.86 C 24.13 44.00 27.74 39.10 32.10 35.14 C 35.22 32.29 36.93 28.37 39.15 24.85 C 35.84 26.96 32.14 28.56 29.37 31.41 M 26.79 45.99 C 28.10 47.21 29.20 48.99 31.22 48.99 C 30.51 47.32 29.37 45.90 27.94 44.78 C 27.65 45.08 27.08 45.69 26.79 45.99 Z" />
</g>
</svg>
