<?xml version="1.0" encoding="UTF-8" ?>
<!DOCTYPE svg PUBLIC "-//W3C//DTD SVG 1.1//EN" "http://www.w3.org/Graphics/SVG/1.1/DTD/svg11.dtd">
<svg width="64pt" height="64pt" viewBox="0 0 64 64" version="1.1" xmlns="http://www.w3.org/2000/svg">
<g id="#ffffffff">
<path fill="#ffffff" opacity="1.00" d=" M 0.00 0.00 L 64.00 0.00 L 64.00 14.00 C 42.67 14.00 21.33 14.00 0.00 14.00 L 0.00 0.00 Z" />
<path fill="#ffffff" opacity="1.00" d=" M 4.00 18.00 C 22.67 18.00 41.33 18.00 60.00 18.00 C 60.00 27.33 60.00 36.67 60.00 46.00 C 41.33 46.00 22.67 46.00 4.00 46.00 C 4.00 36.67 4.00 27.33 4.00 18.00 M 16.00 23.99 C 16.00 29.33 16.00 34.66 16.00 40.00 C 17.33 40.00 18.67 40.00 20.00 40.00 C 20.00 37.98 20.00 35.97 20.00 33.95 C 20.67 35.97 21.34 37.98 22.01 40.00 C 23.34 40.00 24.68 40.00 26.01 40.00 C 25.23 37.64 24.45 35.27 23.64 32.92 C 24.43 32.12 25.24 31.33 26.07 30.57 C 25.92 28.77 25.97 26.70 24.46 25.43 C 22.22 23.25 18.80 24.20 16.00 23.99 M 28.00 23.99 C 28.00 29.33 28.00 34.66 28.00 40.00 C 29.33 40.00 30.65 40.00 31.98 40.00 C 32.01 37.99 32.04 35.98 32.07 33.96 C 32.71 35.98 33.35 37.99 34.00 40.00 C 35.33 40.00 36.67 40.00 38.01 40.00 C 37.23 37.63 36.44 35.27 35.64 32.92 C 36.43 32.12 37.24 31.33 38.07 30.57 C 37.92 28.77 37.97 26.70 36.46 25.42 C 34.22 23.25 30.80 24.20 28.00 23.99 M 40.00 23.99 C 40.00 29.32 40.00 34.66 40.00 40.00 C 41.33 40.00 42.67 40.00 44.00 40.00 C 44.00 38.07 44.00 36.14 44.00 34.22 C 46.58 34.11 48.38 32.32 50.09 30.61 C 49.91 28.80 49.98 26.71 48.46 25.42 C 46.22 23.25 42.80 24.20 40.00 23.99 Z" />
<path fill="#ffffff" opacity="1.00" d=" M 20.08 28.16 C 21.70 27.64 22.24 28.20 21.73 29.83 C 20.11 30.35 19.56 29.80 20.08 28.16 Z" />
<path fill="#ffffff" opacity="1.00" d=" M 32.08 28.16 C 33.70 27.64 34.24 28.20 33.73 29.83 C 32.11 30.35 31.56 29.80 32.08 28.16 Z" />
<path fill="#ffffff" opacity="1.00" d=" M 44.08 28.16 C 45.70 27.65 46.25 28.20 45.73 29.83 C 44.11 30.35 43.56 29.79 44.08 28.16 Z" />
<path fill="#ffffff" opacity="1.00" d=" M 0.00 50.00 C 21.33 50.00 42.67 50.00 64.00 50.00 L 64.00 64.00 L 0.00 64.00 L 0.00 50.00 Z" />
</g>
<g id="#000000ff">
<path fill="#000000" opacity="1.00" d=" M 0.00 14.00 C 21.33 14.00 42.67 14.00 64.00 14.00 L 64.00 50.00 C 42.67 50.00 21.33 50.00 0.00 50.00 L 0.00 14.00 M 4.00 18.00 C 4.00 27.33 4.00 36.67 4.00 46.00 C 22.67 46.00 41.33 46.00 60.00 46.00 C 60.00 36.67 60.00 27.33 60.00 18.00 C 41.33 18.00 22.67 18.00 4.00 18.00 Z" />
<path fill="#000000" opacity="1.00" d=" M 16.00 23.99 C 18.80 24.20 22.22 23.25 24.46 25.43 C 25.97 26.70 25.92 28.77 26.07 30.57 C 25.24 31.33 24.43 32.12 23.64 32.92 C 24.45 35.27 25.23 37.64 26.01 40.00 C 24.68 40.00 23.34 40.00 22.01 40.00 C 21.34 37.98 20.67 35.97 20.00 33.95 C 20.00 35.97 20.00 37.98 20.00 40.00 C 18.67 40.00 17.33 40.00 16.00 40.00 C 16.00 34.66 16.00 29.33 16.00 23.99 M 20.08 28.16 C 19.56 29.80 20.11 30.35 21.73 29.83 C 22.24 28.20 21.70 27.64 20.08 28.16 Z" />
<path fill="#000000" opacity="1.00" d=" M 28.00 23.99 C 30.80 24.20 34.22 23.25 36.46 25.42 C 37.97 26.70 37.92 28.77 38.07 30.57 C 37.24 31.33 36.43 32.12 35.64 32.92 C 36.44 35.27 37.23 37.63 38.01 40.00 C 36.67 40.00 35.33 40.00 34.00 40.00 C 33.35 37.99 32.71 35.98 32.07 33.96 C 32.04 35.98 32.01 37.99 31.98 40.00 C 30.65 40.00 29.33 40.00 28.00 40.00 C 28.00 34.66 28.00 29.33 28.00 23.99 M 32.08 28.16 C 31.56 29.80 32.11 30.35 33.73 29.83 C 34.24 28.20 33.70 27.64 32.08 28.16 Z" />
<path fill="#000000" opacity="1.00" d=" M 40.00 23.99 C 42.80 24.20 46.22 23.25 48.46 25.42 C 49.98 26.71 49.91 28.80 50.09 30.61 C 48.38 32.32 46.58 34.11 44.00 34.22 C 44.00 36.14 44.00 38.07 44.00 40.00 C 42.67 40.00 41.33 40.00 40.00 40.00 C 40.00 34.66 40.00 29.32 40.00 23.99 M 44.08 28.16 C 43.56 29.79 44.11 30.35 45.73 29.83 C 46.25 28.20 45.70 27.65 44.08 28.16 Z" />
</g>
</svg>
