<?xml version="1.0" encoding="UTF-8" ?>
<!DOCTYPE svg PUBLIC "-//W3C//DTD SVG 1.1//EN" "http://www.w3.org/Graphics/SVG/1.1/DTD/svg11.dtd">
<svg width="64pt" height="64pt" viewBox="0 0 64 64" version="1.1" xmlns="http://www.w3.org/2000/svg">
<g id="#ffffffff">
<path fill="#ffffff" opacity="1.00" d=" M 0.00 0.00 L 64.00 0.00 L 64.00 64.00 L 0.00 64.00 L 0.00 0.00 M 12.00 6.00 C 12.00 14.00 12.00 22.00 12.00 30.00 C 13.33 30.00 14.67 30.00 16.00 30.00 C 16.00 23.33 16.00 16.67 16.00 10.00 C 22.67 10.00 29.33 10.00 36.00 10.00 C 36.00 14.00 36.00 18.00 36.00 22.00 C 40.00 22.00 44.00 22.00 48.00 22.00 C 48.00 32.66 48.00 43.32 48.00 53.99 C 47.50 53.99 46.50 54.01 46.00 54.01 C 46.00 55.34 46.00 56.67 46.00 58.00 C 48.00 58.00 50.00 58.00 52.00 58.00 C 52.00 45.05 52.00 32.11 52.00 19.16 C 47.62 14.77 43.23 10.38 38.84 6.00 C 29.89 6.01 20.95 6.00 12.00 6.00 M 12.49 34.01 C 10.57 39.28 8.62 44.55 6.65 49.80 C 5.61 52.41 6.06 55.27 6.01 58.00 C 7.34 58.00 8.67 58.00 10.00 58.00 C 10.00 56.67 10.00 55.33 10.00 54.00 C 12.67 54.00 15.33 54.00 18.00 54.00 C 18.00 55.33 18.00 56.67 18.00 58.00 C 19.33 58.00 20.66 58.00 21.99 58.00 C 21.94 55.28 22.38 52.43 21.36 49.84 C 19.39 44.57 17.44 39.30 15.52 34.02 C 14.51 34.01 13.50 34.01 12.49 34.01 M 26.15 46.85 C 25.91 50.17 25.28 54.44 28.34 56.72 C 30.57 58.63 33.72 58.08 36.00 56.56 C 37.80 57.71 39.88 58.11 42.00 58.09 C 42.00 56.76 42.00 55.44 42.00 54.11 C 40.70 53.86 38.94 54.30 38.17 52.89 C 37.72 49.65 38.78 45.53 35.68 43.29 C 32.44 40.47 26.74 42.60 26.15 46.85 Z" />
<path fill="#ffffff" opacity="1.00" d=" M 40.00 12.82 C 41.73 14.54 43.46 16.27 45.18 18.00 C 43.45 17.99 41.72 18.00 40.00 18.00 C 40.00 16.28 40.01 14.55 40.00 12.82 Z" />
<path fill="#ffffff" opacity="1.00" d=" M 14.00 41.53 C 15.05 44.35 16.09 47.17 17.13 50.00 C 15.05 50.00 12.96 50.00 10.87 50.00 C 11.91 47.17 12.95 44.35 14.00 41.53 Z" />
<path fill="#ffffff" opacity="1.00" d=" M 31.19 46.09 C 34.71 45.32 34.13 49.87 33.94 52.03 C 34.13 53.38 32.39 54.45 31.24 53.84 C 29.64 53.26 30.09 51.32 29.95 50.02 C 30.05 48.65 29.70 46.85 31.19 46.09 Z" />
</g>
<g id="#000000ff">
<path fill="#000000" opacity="1.00" d=" M 12.00 6.00 C 20.95 6.00 29.89 6.01 38.84 6.00 C 43.23 10.38 47.62 14.77 52.00 19.16 C 52.00 32.11 52.00 45.05 52.00 58.00 C 50.00 58.00 48.00 58.00 46.00 58.00 C 46.00 56.67 46.00 55.34 46.00 54.01 C 46.50 54.01 47.50 53.99 48.00 53.99 C 48.00 43.32 48.00 32.66 48.00 22.00 C 44.00 22.00 40.00 22.00 36.00 22.00 C 36.00 18.00 36.00 14.00 36.00 10.00 C 29.33 10.00 22.67 10.00 16.00 10.00 C 16.00 16.67 16.00 23.33 16.00 30.00 C 14.67 30.00 13.33 30.00 12.00 30.00 C 12.00 22.00 12.00 14.00 12.00 6.00 M 40.00 12.82 C 40.01 14.55 40.00 16.28 40.00 18.00 C 41.72 18.00 43.45 17.99 45.18 18.00 C 43.46 16.27 41.73 14.54 40.00 12.82 Z" />
<path fill="#000000" opacity="1.00" d=" M 12.49 34.01 C 13.50 34.01 14.51 34.01 15.52 34.02 C 17.44 39.30 19.39 44.57 21.36 49.84 C 22.38 52.43 21.94 55.28 21.99 58.00 C 20.66 58.00 19.33 58.00 18.00 58.00 C 18.00 56.67 18.00 55.33 18.00 54.00 C 15.33 54.00 12.67 54.00 10.00 54.00 C 10.00 55.33 10.00 56.67 10.00 58.00 C 8.67 58.00 7.34 58.00 6.01 58.00 C 6.06 55.27 5.61 52.41 6.65 49.80 C 8.62 44.55 10.57 39.28 12.49 34.01 M 14.00 41.53 C 12.95 44.35 11.91 47.17 10.87 50.00 C 12.96 50.00 15.05 50.00 17.13 50.00 C 16.09 47.17 15.05 44.35 14.00 41.53 Z" />
<path fill="#000000" opacity="1.00" d=" M 26.15 46.85 C 26.74 42.60 32.44 40.47 35.68 43.29 C 38.78 45.53 37.72 49.65 38.17 52.89 C 38.94 54.30 40.70 53.86 42.00 54.11 C 42.00 55.44 42.00 56.76 42.00 58.09 C 39.88 58.11 37.80 57.71 36.00 56.56 C 33.72 58.08 30.57 58.63 28.34 56.72 C 25.28 54.44 25.91 50.17 26.15 46.85 M 31.19 46.09 C 29.70 46.85 30.05 48.65 29.95 50.02 C 30.09 51.32 29.64 53.26 31.24 53.84 C 32.39 54.45 34.13 53.38 33.94 52.03 C 34.13 49.87 34.71 45.32 31.19 46.09 Z" />
</g>
</svg>
