<?xml version="1.0" encoding="UTF-8" ?>
<!DOCTYPE svg PUBLIC "-//W3C//DTD SVG 1.1//EN" "http://www.w3.org/Graphics/SVG/1.1/DTD/svg11.dtd">
<svg width="60pt" height="60pt" viewBox="0 0 60 60" version="1.1" xmlns="http://www.w3.org/2000/svg">
<g id="#ffffffff">
<path fill="#ffffff" opacity="1.00" d=" M 0.00 0.00 L 60.00 0.00 L 60.00 60.00 L 0.00 60.00 L 0.00 0.00 M 16.11 17.05 C 12.16 20.19 10.17 24.89 8.17 29.37 C 7.74 35.15 8.15 40.99 7.98 46.79 C 10.57 50.19 14.72 52.09 18.98 51.99 C 29.99 52.02 40.99 51.99 52.00 52.00 C 51.98 40.97 52.03 29.93 51.99 18.90 C 52.07 14.67 50.17 10.55 46.79 7.98 C 41.19 8.09 35.59 7.87 29.99 8.06 C 24.73 9.87 19.69 12.68 16.11 17.05 Z" />
<path fill="#ffffff" opacity="1.00" d=" M 37.24 12.02 C 40.04 12.09 42.89 11.70 45.65 12.25 C 47.27 13.92 47.72 16.28 48.12 18.48 C 44.45 16.40 40.87 14.17 37.24 12.02 Z" />
<path fill="#ffffff" opacity="1.00" d=" M 12.29 29.92 C 15.43 21.96 21.96 15.42 29.93 12.29 C 31.14 13.01 32.34 13.75 33.54 14.48 C 33.06 17.32 32.59 20.17 32.14 23.02 C 29.12 26.07 26.07 29.10 23.03 32.14 C 20.18 32.59 17.32 33.06 14.47 33.54 C 13.74 32.33 13.01 31.13 12.29 29.92 Z" />
<path fill="#ffffff" opacity="1.00" d=" M 37.22 16.67 C 39.48 18.02 41.74 19.35 43.99 20.71 C 41.46 21.05 38.93 21.37 36.40 21.69 C 36.67 20.02 36.95 18.34 37.22 16.67 Z" />
<path fill="#ffffff" opacity="1.00" d=" M 36.75 25.65 C 40.21 25.25 43.66 24.80 47.12 24.40 C 45.59 28.67 43.23 32.58 40.33 36.05 C 39.12 32.59 37.88 29.14 36.75 25.65 Z" />
<path fill="#ffffff" opacity="1.00" d=" M 27.67 33.16 C 29.50 31.33 31.33 29.50 33.16 27.67 C 34.15 30.48 35.13 33.30 36.11 36.12 C 33.30 35.12 30.49 34.12 27.67 33.16 Z" />
<path fill="#ffffff" opacity="1.00" d=" M 42.48 39.66 C 44.50 37.29 46.35 34.79 48.00 32.15 C 48.00 36.49 48.01 40.83 47.99 45.17 C 46.16 43.33 44.33 41.49 42.48 39.66 Z" />
<path fill="#ffffff" opacity="1.00" d=" M 16.67 37.22 C 18.34 36.95 20.01 36.67 21.68 36.40 C 21.37 38.93 21.05 41.46 20.74 43.99 C 19.38 41.74 18.02 39.48 16.67 37.22 Z" />
<path fill="#ffffff" opacity="1.00" d=" M 24.40 47.12 C 24.80 43.64 25.24 40.18 25.68 36.71 C 29.15 37.90 32.63 39.08 36.06 40.38 C 32.55 43.22 28.67 45.60 24.40 47.12 Z" />
<path fill="#ffffff" opacity="1.00" d=" M 12.01 37.23 C 14.16 40.87 16.40 44.45 18.48 48.13 C 16.28 47.72 13.94 47.26 12.26 45.66 C 11.70 42.89 12.09 40.03 12.01 37.23 Z" />
<path fill="#ffffff" opacity="1.00" d=" M 32.15 48.01 C 34.79 46.35 37.29 44.50 39.66 42.48 C 41.49 44.32 43.33 46.16 45.16 47.99 C 40.83 48.01 36.49 47.99 32.15 48.01 Z" />
</g>
<g id="#000000ff">
<path fill="#000000" opacity="1.00" d=" M 16.11 17.05 C 19.69 12.68 24.73 9.87 29.99 8.06 C 35.59 7.87 41.19 8.09 46.79 7.98 C 50.17 10.55 52.07 14.67 51.99 18.90 C 52.03 29.93 51.98 40.97 52.00 52.00 C 40.99 51.99 29.99 52.02 18.98 51.99 C 14.72 52.09 10.57 50.19 7.98 46.79 C 8.15 40.99 7.74 35.15 8.17 29.37 C 10.17 24.89 12.16 20.19 16.11 17.05 M 37.24 12.02 C 40.87 14.17 44.45 16.40 48.12 18.48 C 47.72 16.28 47.27 13.92 45.65 12.25 C 42.89 11.70 40.04 12.09 37.24 12.02 M 12.29 29.92 C 13.01 31.13 13.74 32.33 14.47 33.54 C 17.32 33.06 20.18 32.59 23.03 32.14 C 26.07 29.10 29.12 26.07 32.14 23.02 C 32.59 20.17 33.06 17.32 33.54 14.48 C 32.34 13.75 31.14 13.01 29.93 12.29 C 21.96 15.42 15.43 21.96 12.29 29.92 M 37.22 16.67 C 36.95 18.34 36.67 20.02 36.40 21.69 C 38.93 21.37 41.46 21.05 43.99 20.71 C 41.74 19.35 39.48 18.02 37.22 16.67 M 36.75 25.65 C 37.88 29.14 39.12 32.59 40.33 36.05 C 43.23 32.58 45.59 28.67 47.12 24.40 C 43.66 24.80 40.21 25.25 36.75 25.65 M 27.67 33.16 C 30.49 34.12 33.30 35.12 36.11 36.12 C 35.13 33.30 34.15 30.48 33.16 27.67 C 31.33 29.50 29.50 31.33 27.67 33.16 M 42.48 39.66 C 44.33 41.49 46.16 43.33 47.99 45.17 C 48.01 40.83 48.00 36.49 48.00 32.15 C 46.35 34.79 44.50 37.29 42.48 39.66 M 16.67 37.22 C 18.02 39.48 19.38 41.74 20.74 43.99 C 21.05 41.46 21.37 38.93 21.68 36.40 C 20.01 36.67 18.34 36.95 16.67 37.22 M 24.40 47.12 C 28.67 45.60 32.55 43.22 36.06 40.38 C 32.63 39.08 29.15 37.90 25.68 36.71 C 25.24 40.18 24.80 43.64 24.40 47.12 M 12.01 37.23 C 12.09 40.03 11.70 42.89 12.26 45.66 C 13.94 47.26 16.28 47.72 18.48 48.13 C 16.40 44.45 14.16 40.87 12.01 37.23 M 32.15 48.01 C 36.49 47.99 40.83 48.01 45.16 47.99 C 43.33 46.16 41.49 44.32 39.66 42.48 C 37.29 44.50 34.79 46.35 32.15 48.01 Z" />
</g>
</svg>
