<?xml version="1.0" encoding="UTF-8" ?>
<!DOCTYPE svg PUBLIC "-//W3C//DTD SVG 1.1//EN" "http://www.w3.org/Graphics/SVG/1.1/DTD/svg11.dtd">
<svg width="64pt" height="64pt" viewBox="0 0 64 64" version="1.1" xmlns="http://www.w3.org/2000/svg">
<g id="#ffffffff">
<path fill="#ffffff" opacity="1.00" d=" M 0.00 0.00 L 64.00 0.00 L 64.00 64.00 L 0.00 64.00 L 0.00 0.00 M 23.78 14.00 C 19.85 14.00 15.91 14.00 11.98 14.00 C 11.96 17.87 11.90 21.85 13.44 25.48 C 9.12 30.61 7.55 37.58 8.19 44.15 C 8.72 48.77 12.12 52.75 16.41 54.41 C 21.32 56.53 26.76 55.93 31.96 56.00 C 37.17 55.92 42.63 56.54 47.55 54.42 C 52.20 52.66 55.71 48.15 55.92 43.13 C 56.25 36.94 54.73 30.42 50.63 25.63 C 52.06 21.92 52.06 17.91 52.02 14.00 C 48.08 14.00 44.15 14.00 40.22 14.00 C 39.69 12.53 39.42 10.84 38.20 9.75 C 35.77 7.33 31.98 7.95 28.89 8.14 C 25.96 8.51 24.28 11.33 23.78 14.00 Z" />
<path fill="#ffffff" opacity="1.00" d=" M 27.66 13.93 C 29.28 11.01 34.72 11.02 36.34 13.93 C 33.45 14.03 30.55 14.04 27.66 13.93 Z" />
<path fill="#ffffff" opacity="1.00" d=" M 16.01 18.03 C 26.67 17.98 37.32 17.99 47.97 18.03 C 47.68 19.96 47.74 22.03 46.82 23.81 C 45.90 25.64 43.77 26.18 42.09 27.08 C 42.06 26.31 42.00 24.77 41.97 24.00 C 40.65 24.00 39.33 24.00 38.01 24.00 C 38.00 25.24 37.99 26.49 37.98 27.74 C 34.00 28.05 30.00 28.05 26.02 27.74 C 26.01 26.49 26.00 25.25 25.99 24.00 C 24.67 24.00 23.35 24.00 22.03 24.00 C 22.00 24.77 21.94 26.31 21.91 27.09 C 20.60 26.41 19.19 25.89 18.06 24.93 C 16.22 23.13 16.38 20.38 16.01 18.03 Z" />
<path fill="#ffffff" opacity="1.00" d=" M 12.57 35.98 C 13.29 33.36 14.37 30.84 15.96 28.62 C 17.89 29.67 19.90 30.56 21.99 31.24 C 22.00 31.93 22.00 33.31 22.00 34.00 C 23.33 34.00 24.66 34.00 25.99 34.00 C 26.00 33.45 26.00 32.34 26.01 31.78 C 30.00 32.06 34.00 31.99 37.99 31.75 C 37.99 32.31 38.00 33.44 38.01 34.00 C 39.34 34.00 40.67 34.00 42.00 34.00 C 42.00 33.31 42.00 31.93 42.00 31.24 C 44.12 30.56 46.15 29.68 48.10 28.63 C 49.62 30.87 50.71 33.37 51.43 35.98 C 48.95 36.00 46.48 36.00 44.00 36.00 C 43.97 41.21 44.09 46.42 43.91 51.62 C 35.96 52.14 27.91 52.38 19.99 51.50 C 20.01 46.33 19.99 41.17 20.00 36.00 C 17.52 36.00 15.04 36.00 12.57 35.98 Z" />
<path fill="#ffffff" opacity="1.00" d=" M 11.95 40.03 C 13.30 40.01 14.65 40.00 16.00 39.99 C 16.00 43.30 16.04 46.62 15.92 49.93 C 12.58 47.76 11.72 43.76 11.95 40.03 Z" />
<path fill="#ffffff" opacity="1.00" d=" M 48.00 39.99 C 49.35 40.00 50.71 40.01 52.06 40.03 C 52.27 43.76 51.41 47.75 48.08 49.93 C 47.96 46.62 48.00 43.30 48.00 39.99 Z" />
</g>
<g id="#000000ff">
<path fill="#000000" opacity="1.00" d=" M 23.78 14.00 C 24.28 11.33 25.96 8.51 28.89 8.14 C 31.98 7.95 35.77 7.33 38.20 9.75 C 39.42 10.84 39.69 12.53 40.22 14.00 C 44.15 14.00 48.08 14.00 52.02 14.00 C 52.06 17.91 52.06 21.92 50.63 25.63 C 54.73 30.42 56.25 36.94 55.92 43.13 C 55.71 48.15 52.20 52.66 47.55 54.42 C 42.63 56.54 37.17 55.92 31.96 56.00 C 26.76 55.93 21.32 56.53 16.41 54.41 C 12.12 52.75 8.72 48.77 8.19 44.15 C 7.55 37.58 9.12 30.61 13.44 25.48 C 11.90 21.85 11.96 17.87 11.98 14.00 C 15.91 14.00 19.85 14.00 23.78 14.00 M 27.66 13.93 C 30.55 14.04 33.45 14.03 36.34 13.93 C 34.72 11.02 29.28 11.01 27.66 13.93 M 16.01 18.03 C 16.38 20.38 16.22 23.13 18.06 24.93 C 19.19 25.89 20.60 26.41 21.91 27.09 C 21.94 26.31 22.00 24.77 22.03 24.00 C 23.35 24.00 24.67 24.00 25.99 24.00 C 26.00 25.25 26.01 26.49 26.02 27.74 C 30.00 28.05 34.00 28.05 37.98 27.74 C 37.99 26.49 38.00 25.24 38.01 24.00 C 39.33 24.00 40.65 24.00 41.97 24.00 C 42.00 24.77 42.06 26.31 42.09 27.08 C 43.77 26.18 45.90 25.64 46.82 23.81 C 47.74 22.03 47.68 19.96 47.97 18.03 C 37.32 17.99 26.67 17.98 16.01 18.03 M 12.57 35.98 C 15.04 36.00 17.52 36.00 20.00 36.00 C 19.99 41.17 20.01 46.33 19.99 51.50 C 27.91 52.38 35.96 52.14 43.91 51.62 C 44.09 46.42 43.97 41.21 44.00 36.00 C 46.48 36.00 48.95 36.00 51.43 35.98 C 50.71 33.37 49.62 30.87 48.10 28.63 C 46.15 29.68 44.12 30.56 42.00 31.24 C 42.00 31.93 42.00 33.31 42.00 34.00 C 40.67 34.00 39.34 34.00 38.01 34.00 C 38.00 33.44 37.99 32.31 37.99 31.75 C 34.00 31.99 30.00 32.06 26.01 31.78 C 26.00 32.34 26.00 33.45 25.99 34.00 C 24.66 34.00 23.33 34.00 22.00 34.00 C 22.00 33.31 22.00 31.93 21.99 31.24 C 19.90 30.56 17.89 29.67 15.96 28.62 C 14.37 30.84 13.29 33.36 12.57 35.98 M 11.95 40.03 C 11.72 43.76 12.58 47.76 15.92 49.93 C 16.04 46.62 16.00 43.30 16.00 39.99 C 14.65 40.00 13.30 40.01 11.95 40.03 M 48.00 39.99 C 48.00 43.30 47.96 46.62 48.08 49.93 C 51.41 47.75 52.27 43.76 52.06 40.03 C 50.71 40.01 49.35 40.00 48.00 39.99 Z" />
</g>
</svg>
