<?xml version="1.0" encoding="UTF-8" ?>
<!DOCTYPE svg PUBLIC "-//W3C//DTD SVG 1.1//EN" "http://www.w3.org/Graphics/SVG/1.1/DTD/svg11.dtd">
<svg width="60pt" height="60pt" viewBox="0 0 60 60" version="1.1" xmlns="http://www.w3.org/2000/svg">
<g id="#ffffffff">
<path fill="#ffffff" opacity="1.00" d=" M 0.00 0.00 L 60.00 0.00 L 60.00 15.39 C 59.50 12.53 57.14 9.94 54.08 10.06 C 43.72 9.88 33.35 10.08 22.99 9.97 C 20.74 10.05 18.15 9.74 16.32 11.36 C 13.96 13.17 14.07 16.44 13.49 19.08 C 12.05 28.74 10.06 38.33 8.84 48.02 C 8.44 49.73 10.68 50.10 11.88 49.99 C 25.27 49.98 38.66 50.06 52.05 49.96 C 53.46 50.19 54.68 49.32 54.73 47.86 C 56.58 37.42 58.22 26.94 60.00 16.49 L 60.00 60.00 L 0.00 60.00 L 0.00 40.66 C 1.43 42.92 6.95 42.65 6.11 39.20 C 4.71 37.10 1.95 38.17 0.00 38.72 L 0.00 32.68 C 1.58 34.63 4.57 34.25 6.68 33.56 C 9.47 29.52 2.35 29.14 0.00 30.84 L 0.00 24.70 C 2.00 26.78 9.16 27.27 8.45 23.12 C 6.34 21.10 2.55 21.80 0.00 22.84 L 0.00 0.00 Z" />
<path fill="#ffffff" opacity="1.00" d=" M 17.09 22.00 C 29.73 22.00 42.38 22.00 55.03 22.00 C 53.69 30.00 52.36 38.00 51.02 46.00 C 38.37 46.00 25.73 46.00 13.08 46.00 C 14.42 38.00 15.74 30.00 17.09 22.00 M 23.13 28.13 C 21.17 29.22 21.63 32.08 20.93 33.94 C 20.79 35.86 19.06 39.33 21.92 39.90 C 29.29 40.11 36.69 40.00 44.07 39.96 C 46.18 40.16 46.26 37.62 46.64 36.17 C 46.75 33.65 48.71 30.59 47.01 28.35 C 39.12 27.63 31.07 28.05 23.13 28.13 Z" />
</g>
<g id="#000000ff">
<path fill="#000000" opacity="1.00" d=" M 16.32 11.36 C 18.15 9.74 20.74 10.05 22.99 9.97 C 33.35 10.08 43.72 9.88 54.08 10.06 C 57.14 9.94 59.50 12.53 60.00 15.39 L 60.00 16.49 C 58.22 26.94 56.58 37.42 54.73 47.86 C 54.68 49.32 53.46 50.19 52.05 49.96 C 38.66 50.06 25.27 49.98 11.88 49.99 C 10.68 50.10 8.44 49.73 8.84 48.02 C 10.06 38.33 12.05 28.74 13.49 19.08 C 14.07 16.44 13.96 13.17 16.32 11.36 M 17.09 22.00 C 15.74 30.00 14.42 38.00 13.08 46.00 C 25.73 46.00 38.37 46.00 51.02 46.00 C 52.36 38.00 53.69 30.00 55.03 22.00 C 42.38 22.00 29.73 22.00 17.09 22.00 Z" />
<path fill="#000000" opacity="1.00" d=" M 0.00 22.84 C 2.55 21.80 6.34 21.10 8.45 23.12 C 9.16 27.27 2.00 26.78 0.00 24.70 L 0.00 22.84 Z" />
<path fill="#000000" opacity="1.00" d=" M 23.13 28.13 C 31.07 28.05 39.12 27.63 47.01 28.35 C 48.71 30.59 46.75 33.65 46.64 36.17 C 46.26 37.62 46.18 40.16 44.07 39.96 C 36.69 40.00 29.29 40.11 21.92 39.90 C 19.06 39.33 20.79 35.86 20.93 33.94 C 21.63 32.08 21.17 29.22 23.13 28.13 Z" />
<path fill="#000000" opacity="1.00" d=" M 0.00 30.84 C 2.35 29.14 9.47 29.52 6.68 33.56 C 4.57 34.25 1.58 34.63 0.00 32.68 L 0.00 30.84 Z" />
<path fill="#000000" opacity="1.00" d=" M 0.00 38.72 C 1.95 38.17 4.71 37.10 6.11 39.20 C 6.95 42.65 1.43 42.92 0.00 40.66 L 0.00 38.72 Z" />
</g>
</svg>
