<?xml version="1.0" encoding="UTF-8" ?>
<!DOCTYPE svg PUBLIC "-//W3C//DTD SVG 1.1//EN" "http://www.w3.org/Graphics/SVG/1.1/DTD/svg11.dtd">
<svg width="64pt" height="64pt" viewBox="0 0 64 64" version="1.1" xmlns="http://www.w3.org/2000/svg">
<g id="#ffffffff">
<path fill="#ffffff" opacity="1.00" d=" M 0.00 0.00 L 64.00 0.00 L 64.00 64.00 L 0.00 64.00 L 0.00 0.00 M 39.16 10.14 C 34.74 10.89 32.72 16.91 35.85 20.14 C 38.72 23.76 45.11 22.35 46.34 17.94 C 47.88 13.68 43.50 9.02 39.16 10.14 M 23.82 18.88 C 21.18 21.27 18.97 24.08 16.49 26.63 C 17.51 27.54 18.52 28.45 19.53 29.36 C 21.78 26.88 24.05 24.42 26.31 21.93 C 27.42 22.65 28.53 23.37 29.64 24.09 C 27.65 27.76 22.65 31.05 24.42 35.73 C 26.62 39.03 29.90 41.44 32.56 44.36 C 30.64 48.24 28.69 52.11 26.76 55.99 C 28.25 55.99 29.75 56.00 31.25 56.00 C 32.85 51.69 36.74 47.78 36.38 43.03 C 34.08 39.57 30.65 37.02 27.83 33.98 C 29.21 31.20 31.26 28.84 33.00 26.30 C 36.13 28.05 36.58 32.55 40.00 33.85 C 43.32 34.19 46.67 33.93 50.00 34.00 C 50.00 32.66 50.00 31.33 50.00 30.00 C 47.02 30.00 44.04 29.99 41.06 30.00 C 39.85 28.20 38.79 26.29 37.40 24.62 C 34.74 22.54 31.82 20.81 29.02 18.93 C 27.53 17.82 25.28 17.61 23.82 18.88 M 21.17 42.01 C 18.12 42.00 15.06 42.00 12.00 42.00 C 12.00 43.33 12.00 44.67 12.00 46.00 C 15.30 45.94 18.60 46.15 21.90 45.90 C 24.09 45.42 25.33 43.25 26.94 41.88 C 26.01 40.94 25.07 40.00 24.13 39.07 C 23.15 40.05 22.16 41.02 21.17 42.01 Z" />
<path fill="#ffffff" opacity="1.00" d=" M 39.27 14.35 C 41.37 12.77 43.95 16.21 41.83 17.78 C 39.59 19.73 36.81 15.83 39.27 14.35 Z" />
</g>
<g id="#000000ff">
<path fill="#000000" opacity="1.00" d=" M 39.16 10.14 C 43.50 9.02 47.88 13.68 46.34 17.94 C 45.11 22.35 38.72 23.76 35.85 20.14 C 32.72 16.91 34.74 10.89 39.16 10.14 M 39.27 14.35 C 36.81 15.83 39.59 19.73 41.83 17.78 C 43.95 16.21 41.37 12.77 39.27 14.35 Z" />
<path fill="#000000" opacity="1.00" d=" M 23.82 18.88 C 25.28 17.61 27.53 17.82 29.02 18.93 C 31.82 20.81 34.74 22.54 37.40 24.62 C 38.79 26.29 39.85 28.20 41.06 30.00 C 44.04 29.99 47.02 30.00 50.00 30.00 C 50.00 31.33 50.00 32.66 50.00 34.00 C 46.67 33.93 43.32 34.19 40.00 33.85 C 36.58 32.55 36.13 28.05 33.00 26.30 C 31.26 28.84 29.21 31.20 27.83 33.98 C 30.65 37.02 34.08 39.57 36.38 43.03 C 36.74 47.78 32.85 51.69 31.25 56.00 C 29.75 56.00 28.25 55.99 26.76 55.99 C 28.69 52.11 30.64 48.24 32.56 44.36 C 29.90 41.44 26.62 39.03 24.42 35.73 C 22.65 31.05 27.65 27.76 29.64 24.09 C 28.53 23.37 27.42 22.65 26.31 21.93 C 24.05 24.42 21.78 26.88 19.53 29.36 C 18.52 28.45 17.51 27.54 16.49 26.63 C 18.97 24.08 21.18 21.27 23.82 18.88 Z" />
<path fill="#000000" opacity="1.00" d=" M 21.17 42.01 C 22.16 41.02 23.15 40.05 24.13 39.07 C 25.07 40.00 26.01 40.94 26.94 41.88 C 25.33 43.25 24.09 45.42 21.90 45.90 C 18.60 46.15 15.30 45.94 12.00 46.00 C 12.00 44.67 12.00 43.33 12.00 42.00 C 15.06 42.00 18.12 42.00 21.17 42.01 Z" />
</g>
</svg>
