<?xml version="1.0" encoding="UTF-8" ?>
<!DOCTYPE svg PUBLIC "-//W3C//DTD SVG 1.1//EN" "http://www.w3.org/Graphics/SVG/1.1/DTD/svg11.dtd">
<svg width="60pt" height="60pt" viewBox="0 0 60 60" version="1.1" xmlns="http://www.w3.org/2000/svg">
<g id="#ffffffff">
<path fill="#ffffff" opacity="1.00" d=" M 0.00 0.00 L 60.00 0.00 L 60.00 60.00 L 0.00 60.00 L 0.00 0.00 M 22.00 4.00 C 21.79 9.92 22.76 16.37 19.74 21.77 C 18.60 24.53 15.12 24.25 13.13 26.06 C 10.22 28.13 8.77 32.79 11.29 35.69 C 13.12 37.87 16.15 37.63 18.65 38.31 C 20.78 39.74 22.39 41.93 24.82 42.94 C 29.83 45.13 36.05 43.80 39.66 39.67 C 41.77 36.99 45.80 38.51 48.17 36.20 C 51.14 33.72 50.16 28.85 47.44 26.55 C 45.47 24.26 41.52 24.74 40.24 21.75 C 37.22 16.36 38.21 9.92 38.00 4.00 C 32.67 4.00 27.33 4.00 22.00 4.00 M 38.36 51.67 C 39.78 55.05 45.09 54.50 45.90 50.96 C 46.17 47.55 43.52 44.81 42.00 41.97 C 40.49 44.97 37.19 48.06 38.36 51.67 M 16.00 54.04 C 15.83 57.81 21.41 59.49 23.31 56.18 C 25.33 52.55 21.52 49.06 20.00 45.97 C 18.50 48.55 16.50 51.02 16.00 54.04 Z" />
</g>
<g id="#000000ff">
<path fill="#000000" opacity="1.00" d=" M 22.00 4.00 C 27.33 4.00 32.67 4.00 38.00 4.00 C 38.21 9.92 37.22 16.36 40.24 21.75 C 41.52 24.74 45.47 24.26 47.44 26.55 C 50.16 28.85 51.14 33.72 48.17 36.20 C 45.80 38.51 41.77 36.99 39.66 39.67 C 36.05 43.80 29.83 45.13 24.82 42.94 C 22.39 41.93 20.78 39.74 18.65 38.31 C 16.15 37.63 13.12 37.87 11.29 35.69 C 8.77 32.79 10.22 28.13 13.13 26.06 C 15.12 24.25 18.60 24.53 19.74 21.77 C 22.76 16.37 21.79 9.92 22.00 4.00 Z" />
<path fill="#000000" opacity="1.00" d=" M 38.36 51.67 C 37.19 48.06 40.49 44.97 42.00 41.97 C 43.52 44.81 46.17 47.55 45.90 50.96 C 45.09 54.50 39.78 55.05 38.36 51.67 Z" />
<path fill="#000000" opacity="1.00" d=" M 16.00 54.04 C 16.50 51.02 18.50 48.55 20.00 45.97 C 21.52 49.06 25.33 52.55 23.31 56.18 C 21.41 59.49 15.83 57.81 16.00 54.04 Z" />
</g>
</svg>
