<?xml version="1.0" encoding="UTF-8" ?>
<!DOCTYPE svg PUBLIC "-//W3C//DTD SVG 1.1//EN" "http://www.w3.org/Graphics/SVG/1.1/DTD/svg11.dtd">
<svg width="60pt" height="60pt" viewBox="0 0 60 60" version="1.1" xmlns="http://www.w3.org/2000/svg">
<g id="#ffffffff">
<path fill="#ffffff" opacity="1.00" d=" M 0.00 0.00 L 60.00 0.00 L 60.00 60.00 L 0.00 60.00 L 0.00 0.00 M 10.00 8.93 C 10.04 23.32 9.93 37.72 10.05 52.11 C 9.94 54.67 12.63 56.33 14.97 56.00 C 25.00 56.00 35.03 56.01 45.06 56.00 C 47.43 56.35 50.02 54.58 49.95 52.06 C 50.07 37.68 49.97 23.30 50.00 8.93 C 50.33 6.57 48.62 3.91 46.06 4.05 C 41.50 3.90 36.93 4.03 32.36 4.02 C 31.44 6.45 28.54 6.46 27.64 4.02 C 23.07 4.03 18.51 3.90 13.94 4.05 C 11.41 3.96 9.65 6.56 10.00 8.93 Z" />
<path fill="#ffffff" opacity="1.00" d=" M 29.17 10.11 C 31.57 9.14 33.12 12.73 30.86 13.88 C 28.44 14.90 26.84 11.22 29.17 10.11 Z" />
<path fill="#ffffff" opacity="1.00" d=" M 29.13 18.12 C 31.56 17.11 33.17 20.80 30.79 21.91 C 28.39 22.83 26.90 19.24 29.13 18.12 Z" />
<path fill="#ffffff" opacity="1.00" d=" M 28.18 27.13 C 28.87 25.65 31.12 25.65 31.82 27.12 C 32.18 29.83 31.98 32.58 31.97 35.31 C 35.16 37.66 38.80 39.44 41.79 42.03 C 41.89 42.52 42.09 43.51 42.19 44.01 C 38.79 43.48 35.40 42.90 32.00 42.33 C 32.00 44.25 31.99 46.17 32.00 48.09 C 33.76 48.99 36.55 49.37 36.19 51.99 C 32.06 52.01 27.93 52.01 23.80 51.99 C 23.57 49.47 26.27 49.01 28.00 48.08 C 28.00 46.16 28.00 44.25 28.00 42.33 C 24.60 42.90 21.21 43.48 17.80 44.01 C 17.90 43.53 18.10 42.56 18.21 42.08 C 21.22 39.45 24.93 37.74 28.07 35.24 C 28.01 32.54 27.81 29.81 28.18 27.13 Z" />
</g>
<g id="#000000ff">
<path fill="#000000" opacity="1.00" d=" M 10.00 8.93 C 9.65 6.56 11.41 3.96 13.94 4.05 C 18.51 3.90 23.07 4.03 27.64 4.02 C 28.54 6.46 31.44 6.45 32.36 4.02 C 36.93 4.03 41.50 3.90 46.06 4.05 C 48.62 3.91 50.33 6.57 50.00 8.93 C 49.97 23.30 50.07 37.68 49.95 52.06 C 50.02 54.58 47.43 56.35 45.06 56.00 C 35.03 56.01 25.00 56.00 14.97 56.00 C 12.63 56.33 9.94 54.67 10.05 52.11 C 9.93 37.72 10.04 23.32 10.00 8.93 M 29.17 10.11 C 26.84 11.22 28.44 14.90 30.86 13.88 C 33.12 12.73 31.57 9.14 29.17 10.11 M 29.13 18.12 C 26.90 19.24 28.39 22.83 30.79 21.91 C 33.17 20.80 31.56 17.11 29.13 18.12 M 28.18 27.13 C 27.81 29.81 28.01 32.54 28.07 35.24 C 24.93 37.74 21.22 39.45 18.21 42.08 C 18.10 42.56 17.90 43.53 17.80 44.01 C 21.21 43.48 24.60 42.90 28.00 42.33 C 28.00 44.25 28.00 46.16 28.00 48.08 C 26.27 49.01 23.57 49.47 23.80 51.99 C 27.93 52.01 32.06 52.01 36.19 51.99 C 36.55 49.37 33.76 48.99 32.00 48.09 C 31.99 46.17 32.00 44.25 32.00 42.33 C 35.40 42.90 38.79 43.48 42.19 44.01 C 42.09 43.51 41.89 42.52 41.79 42.03 C 38.80 39.44 35.16 37.66 31.97 35.31 C 31.98 32.58 32.18 29.83 31.82 27.12 C 31.12 25.65 28.87 25.65 28.18 27.13 Z" />
</g>
</svg>
