<?xml version="1.0" encoding="UTF-8" ?>
<!DOCTYPE svg PUBLIC "-//W3C//DTD SVG 1.1//EN" "http://www.w3.org/Graphics/SVG/1.1/DTD/svg11.dtd">
<svg width="60pt" height="60pt" viewBox="0 0 60 60" version="1.1" xmlns="http://www.w3.org/2000/svg">
<g id="#ffffffff">
<path fill="#ffffff" opacity="1.00" d=" M 0.00 0.00 L 60.00 0.00 L 60.00 60.00 L 0.00 60.00 L 0.00 0.00 M 21.64 7.98 C 18.09 8.10 14.52 7.79 10.99 8.15 C 8.93 8.67 7.75 10.84 8.00 12.88 C 8.00 24.28 8.00 35.69 8.00 47.09 C 7.75 49.14 8.87 51.32 10.95 51.84 C 14.50 52.23 18.08 51.88 21.64 52.03 C 22.51 53.02 23.19 54.47 24.77 53.91 C 26.54 52.93 25.81 50.65 26.03 49.01 C 25.85 35.06 26.24 21.09 25.84 7.16 C 24.78 5.02 22.32 6.21 21.64 7.98 M 29.20 6.07 C 27.70 6.85 28.09 8.60 27.99 9.98 C 28.03 23.68 27.96 37.37 28.02 51.06 C 27.88 52.27 28.41 54.26 30.01 53.93 C 32.14 54.18 32.01 51.42 32.02 50.01 C 31.92 35.99 32.12 21.97 31.92 7.96 C 32.08 6.49 30.47 5.67 29.20 6.07 M 35.16 6.07 C 33.44 7.14 34.20 9.37 33.97 11.04 C 34.10 24.70 33.86 38.37 34.09 52.02 C 33.82 54.55 38.10 54.62 37.90 52.09 C 38.13 37.71 37.96 23.31 37.98 8.93 C 38.34 7.20 37.02 5.43 35.16 6.07 M 40.00 8.01 C 40.00 22.67 40.00 37.33 40.00 51.99 C 42.99 51.97 45.99 52.17 48.97 51.85 C 51.08 51.36 52.25 49.13 52.00 47.08 C 51.90 35.04 52.21 22.99 51.84 10.97 C 50.09 6.13 43.86 8.56 40.00 8.01 Z" />
<path fill="#ffffff" opacity="1.00" d=" M 13.09 12.11 C 15.48 11.07 17.26 14.82 14.79 15.81 C 12.50 16.95 10.87 13.26 13.09 12.11 Z" />
<path fill="#ffffff" opacity="1.00" d=" M 19.23 16.09 C 21.63 15.19 23.10 18.80 20.83 19.88 C 18.38 20.89 16.84 17.12 19.23 16.09 Z" />
<path fill="#ffffff" opacity="1.00" d=" M 45.23 16.17 C 47.52 15.02 49.23 18.94 46.79 19.81 C 44.50 21.06 42.75 16.99 45.23 16.17 Z" />
<path fill="#ffffff" opacity="1.00" d=" M 13.19 20.17 C 14.35 19.53 16.18 20.62 15.93 21.99 C 16.25 23.69 13.59 24.74 12.61 23.38 C 11.55 22.55 11.94 20.63 13.19 20.17 Z" />
<path fill="#ffffff" opacity="1.00" d=" M 19.17 24.09 C 21.56 23.11 23.22 26.90 20.77 27.83 C 18.44 28.95 16.85 25.14 19.17 24.09 Z" />
<path fill="#ffffff" opacity="1.00" d=" M 45.21 24.17 C 47.52 23.01 49.24 26.95 46.77 27.82 C 44.50 29.02 42.76 25.03 45.21 24.17 Z" />
<path fill="#ffffff" opacity="1.00" d=" M 13.23 28.14 C 15.59 27.14 17.07 30.73 14.90 31.88 C 12.49 32.98 10.77 29.13 13.23 28.14 Z" />
<path fill="#ffffff" opacity="1.00" d=" M 19.20 32.12 C 21.63 31.14 23.15 34.87 20.78 35.90 C 18.37 36.83 16.84 33.16 19.20 32.12 Z" />
<path fill="#ffffff" opacity="1.00" d=" M 45.24 32.12 C 47.64 31.17 49.12 34.84 46.82 35.89 C 44.41 36.92 42.82 33.09 45.24 32.12 Z" />
<path fill="#ffffff" opacity="1.00" d=" M 13.19 36.10 C 15.57 35.17 17.08 38.68 14.90 39.88 C 12.45 40.92 10.81 37.22 13.19 36.10 Z" />
<path fill="#ffffff" opacity="1.00" d=" M 19.15 40.10 C 21.58 39.11 23.22 42.89 20.74 43.86 C 18.40 44.86 16.89 41.18 19.15 40.10 Z" />
<path fill="#ffffff" opacity="1.00" d=" M 45.23 40.18 C 47.51 38.97 49.24 43.01 46.76 43.82 C 44.48 45.03 42.75 40.97 45.23 40.18 Z" />
<path fill="#ffffff" opacity="1.00" d=" M 13.10 44.12 C 15.54 43.08 17.17 46.77 14.82 47.88 C 12.42 48.84 10.90 45.31 13.10 44.12 Z" />
</g>
<g id="#000000ff">
<path fill="#000000" opacity="1.00" d=" M 21.64 7.98 C 22.32 6.21 24.78 5.02 25.84 7.16 C 26.24 21.09 25.85 35.06 26.03 49.01 C 25.81 50.65 26.54 52.93 24.77 53.91 C 23.19 54.47 22.51 53.02 21.64 52.03 C 18.08 51.88 14.50 52.23 10.95 51.84 C 8.87 51.32 7.75 49.14 8.00 47.09 C 8.00 35.69 8.00 24.28 8.00 12.88 C 7.75 10.84 8.93 8.67 10.99 8.15 C 14.52 7.79 18.09 8.10 21.64 7.98 M 13.09 12.11 C 10.87 13.26 12.50 16.95 14.79 15.81 C 17.26 14.82 15.48 11.07 13.09 12.11 M 19.23 16.09 C 16.84 17.12 18.38 20.89 20.83 19.88 C 23.10 18.80 21.63 15.19 19.23 16.09 M 13.19 20.17 C 11.94 20.63 11.55 22.55 12.61 23.38 C 13.59 24.74 16.25 23.69 15.93 21.99 C 16.18 20.62 14.35 19.53 13.19 20.17 M 19.17 24.09 C 16.85 25.14 18.44 28.95 20.77 27.83 C 23.22 26.90 21.56 23.11 19.17 24.09 M 13.23 28.14 C 10.77 29.13 12.49 32.98 14.90 31.88 C 17.07 30.73 15.59 27.14 13.23 28.14 M 19.20 32.12 C 16.84 33.16 18.37 36.83 20.78 35.90 C 23.15 34.87 21.63 31.14 19.20 32.12 M 13.19 36.10 C 10.81 37.22 12.45 40.92 14.90 39.88 C 17.08 38.68 15.57 35.17 13.19 36.10 M 19.15 40.10 C 16.89 41.18 18.40 44.86 20.74 43.86 C 23.22 42.89 21.58 39.11 19.15 40.10 M 13.10 44.12 C 10.90 45.31 12.42 48.84 14.82 47.88 C 17.17 46.77 15.54 43.08 13.10 44.12 Z" />
<path fill="#000000" opacity="1.00" d=" M 29.20 6.07 C 30.47 5.67 32.08 6.49 31.92 7.96 C 32.12 21.97 31.92 35.99 32.02 50.01 C 32.01 51.42 32.14 54.18 30.01 53.93 C 28.41 54.26 27.88 52.27 28.02 51.06 C 27.96 37.37 28.03 23.68 27.99 9.98 C 28.09 8.60 27.70 6.85 29.20 6.07 Z" />
<path fill="#000000" opacity="1.00" d=" M 35.16 6.07 C 37.02 5.43 38.34 7.20 37.98 8.93 C 37.96 23.31 38.13 37.71 37.90 52.09 C 38.10 54.62 33.82 54.55 34.09 52.02 C 33.86 38.37 34.10 24.70 33.97 11.04 C 34.20 9.37 33.44 7.14 35.16 6.07 Z" />
<path fill="#000000" opacity="1.00" d=" M 40.00 8.01 C 43.86 8.56 50.09 6.13 51.84 10.97 C 52.21 22.99 51.90 35.04 52.00 47.08 C 52.25 49.13 51.08 51.36 48.97 51.85 C 45.99 52.17 42.99 51.97 40.00 51.99 C 40.00 37.33 40.00 22.67 40.00 8.01 M 45.23 16.17 C 42.75 16.99 44.50 21.06 46.79 19.81 C 49.23 18.94 47.52 15.02 45.23 16.17 M 45.21 24.17 C 42.76 25.03 44.50 29.02 46.77 27.82 C 49.24 26.95 47.52 23.01 45.21 24.17 M 45.24 32.12 C 42.82 33.09 44.41 36.92 46.82 35.89 C 49.12 34.84 47.64 31.17 45.24 32.12 M 45.23 40.18 C 42.75 40.97 44.48 45.03 46.76 43.82 C 49.24 43.01 47.51 38.97 45.23 40.18 Z" />
</g>
</svg>
