<?xml version="1.0" encoding="UTF-8" ?>
<!DOCTYPE svg PUBLIC "-//W3C//DTD SVG 1.1//EN" "http://www.w3.org/Graphics/SVG/1.1/DTD/svg11.dtd">
<svg width="60pt" height="60pt" viewBox="0 0 60 60" version="1.1" xmlns="http://www.w3.org/2000/svg">
<g id="#ffffffff">
<path fill="#ffffff" opacity="1.00" d=" M 0.00 0.00 L 60.00 0.00 L 60.00 37.40 C 59.77 32.62 56.49 28.40 52.08 26.66 C 52.30 19.03 46.66 11.65 39.08 10.30 C 32.24 8.83 24.98 12.52 21.74 18.64 C 15.84 16.28 8.98 20.41 8.03 26.61 C 3.61 28.30 0.30 32.48 0.00 37.26 L 0.00 0.00 Z" />
<path fill="#ffffff" opacity="1.00" d=" M 21.31 26.55 C 24.46 24.12 27.97 29.58 24.61 31.49 C 21.50 33.77 18.10 28.51 21.31 26.55 Z" />
<path fill="#ffffff" opacity="1.00" d=" M 37.34 26.54 C 38.84 25.39 41.26 26.23 41.81 28.01 C 42.75 30.22 40.21 32.77 38.01 31.79 C 35.74 31.17 35.33 27.71 37.34 26.54 Z" />
<path fill="#ffffff" opacity="1.00" d=" M 26.46 36.67 C 32.63 34.83 39.90 37.04 43.82 42.18 C 44.83 44.06 42.02 46.04 40.66 44.39 C 37.65 41.25 33.23 39.33 28.85 40.20 C 25.66 40.64 23.08 42.70 20.81 44.85 C 19.14 45.52 17.48 43.88 18.11 42.20 C 20.18 39.50 23.23 37.63 26.46 36.67 Z" />
<path fill="#ffffff" opacity="1.00" d=" M 0.00 38.52 C 0.21 44.70 5.73 50.05 11.93 49.97 C 23.99 50.02 36.04 50.03 48.09 49.97 C 54.28 50.07 59.70 44.74 60.00 38.62 L 60.00 60.00 L 0.00 60.00 L 0.00 38.52 Z" />
</g>
<g id="#000000ff">
<path fill="#000000" opacity="1.00" d=" M 21.74 18.64 C 24.98 12.52 32.24 8.83 39.08 10.30 C 46.66 11.65 52.30 19.03 52.08 26.66 C 56.49 28.40 59.77 32.62 60.00 37.40 L 60.00 38.62 C 59.70 44.74 54.28 50.07 48.09 49.97 C 36.04 50.03 23.99 50.02 11.93 49.97 C 5.73 50.05 0.21 44.70 0.00 38.52 L 0.00 37.26 C 0.30 32.48 3.61 28.30 8.03 26.61 C 8.98 20.41 15.84 16.28 21.74 18.64 M 21.31 26.55 C 18.10 28.51 21.50 33.77 24.61 31.49 C 27.97 29.58 24.46 24.12 21.31 26.55 M 37.34 26.54 C 35.33 27.71 35.74 31.17 38.01 31.79 C 40.21 32.77 42.75 30.22 41.81 28.01 C 41.26 26.23 38.84 25.39 37.34 26.54 M 26.46 36.67 C 23.23 37.63 20.18 39.50 18.11 42.20 C 17.48 43.88 19.14 45.52 20.81 44.85 C 23.08 42.70 25.66 40.64 28.85 40.20 C 33.23 39.33 37.65 41.25 40.66 44.39 C 42.02 46.04 44.83 44.06 43.82 42.18 C 39.90 37.04 32.63 34.83 26.46 36.67 Z" />
</g>
</svg>
