<?xml version="1.0" encoding="UTF-8" ?>
<!DOCTYPE svg PUBLIC "-//W3C//DTD SVG 1.1//EN" "http://www.w3.org/Graphics/SVG/1.1/DTD/svg11.dtd">
<svg width="64pt" height="64pt" viewBox="0 0 64 64" version="1.1" xmlns="http://www.w3.org/2000/svg">
<g id="#ffffffff">
<path fill="#ffffff" opacity="1.00" d=" M 0.00 0.00 L 64.00 0.00 L 64.00 64.00 L 0.00 64.00 L 0.00 0.00 M 24.11 7.98 C 19.76 10.47 18.41 15.55 16.80 19.93 C 15.99 23.00 12.24 23.20 10.38 25.39 C 6.92 28.57 5.85 33.39 5.92 37.92 C 8.32 38.26 11.56 37.48 13.21 39.74 C 14.15 42.31 13.17 45.59 15.27 47.67 C 17.19 48.96 19.57 49.33 21.55 50.52 C 23.35 52.39 24.08 55.20 26.39 56.58 C 30.92 59.27 37.69 58.21 40.41 53.43 C 41.90 50.06 46.23 50.08 48.08 47.08 C 49.13 45.29 49.40 43.16 50.34 41.32 C 52.44 39.57 55.49 40.23 58.02 39.93 C 57.90 35.41 58.35 30.32 55.41 26.51 C 53.63 24.09 50.75 22.97 47.98 22.10 C 45.91 17.63 45.04 12.27 41.04 8.99 C 36.35 5.24 29.27 5.10 24.11 7.98 Z" />
<path fill="#ffffff" opacity="1.00" d=" M 26.91 10.98 C 30.67 9.48 35.54 9.48 38.72 12.25 C 41.86 15.28 42.31 19.86 44.28 23.57 C 45.79 26.77 50.22 26.10 52.18 28.82 C 53.85 30.87 53.60 33.65 53.83 36.11 C 51.86 36.59 49.60 36.61 48.00 38.03 C 45.77 39.85 45.87 43.06 44.39 45.36 C 42.50 46.86 39.71 47.14 38.42 49.37 C 36.90 51.63 35.23 54.52 32.00 54.00 C 29.13 54.46 27.25 52.21 26.10 49.93 C 24.59 46.73 20.98 45.78 17.93 44.69 C 17.62 42.06 17.84 39.09 16.08 36.91 C 14.78 35.04 12.37 34.79 10.38 34.13 C 11.06 32.32 11.47 30.33 12.77 28.84 C 14.66 26.28 18.63 26.04 19.89 22.90 C 21.91 18.82 22.34 13.18 26.91 10.98 M 25.14 20.12 C 22.87 21.26 24.41 24.84 26.83 23.89 C 29.15 22.77 27.57 19.13 25.14 20.12 M 37.23 20.17 C 34.76 21.12 36.48 24.95 38.88 23.90 C 41.12 22.76 39.54 19.08 37.23 20.17 M 24.59 30.33 C 25.46 31.34 26.33 32.36 27.18 33.39 C 30.19 31.69 33.81 31.66 36.82 33.38 C 37.67 32.36 38.54 31.34 39.41 30.34 C 34.93 27.35 29.07 27.34 24.59 30.33 Z" />
</g>
<g id="#000000ff">
<path fill="#000000" opacity="1.00" d=" M 24.11 7.98 C 29.27 5.10 36.35 5.24 41.04 8.99 C 45.04 12.27 45.91 17.63 47.98 22.10 C 50.75 22.97 53.63 24.09 55.41 26.51 C 58.35 30.32 57.90 35.41 58.02 39.93 C 55.49 40.23 52.44 39.57 50.34 41.32 C 49.40 43.16 49.13 45.29 48.08 47.08 C 46.23 50.08 41.90 50.06 40.41 53.43 C 37.69 58.21 30.92 59.27 26.39 56.58 C 24.08 55.20 23.35 52.39 21.55 50.52 C 19.57 49.33 17.19 48.96 15.27 47.67 C 13.17 45.59 14.15 42.31 13.21 39.74 C 11.56 37.48 8.32 38.26 5.92 37.92 C 5.85 33.39 6.92 28.57 10.38 25.39 C 12.24 23.20 15.99 23.00 16.80 19.93 C 18.41 15.55 19.76 10.47 24.11 7.98 M 26.91 10.98 C 22.34 13.18 21.91 18.82 19.89 22.90 C 18.63 26.04 14.66 26.28 12.77 28.84 C 11.47 30.33 11.06 32.32 10.38 34.13 C 12.37 34.79 14.78 35.04 16.08 36.91 C 17.84 39.09 17.62 42.06 17.93 44.69 C 20.98 45.78 24.59 46.73 26.10 49.93 C 27.25 52.21 29.13 54.46 32.00 54.00 C 35.23 54.52 36.90 51.63 38.42 49.37 C 39.71 47.14 42.50 46.86 44.39 45.36 C 45.87 43.06 45.77 39.85 48.00 38.03 C 49.60 36.61 51.86 36.59 53.83 36.11 C 53.60 33.65 53.85 30.87 52.18 28.82 C 50.22 26.10 45.79 26.77 44.28 23.57 C 42.31 19.86 41.86 15.28 38.72 12.25 C 35.54 9.48 30.67 9.48 26.91 10.98 Z" />
<path fill="#000000" opacity="1.00" d=" M 25.14 20.12 C 27.57 19.13 29.15 22.77 26.83 23.89 C 24.41 24.84 22.87 21.26 25.14 20.12 Z" />
<path fill="#000000" opacity="1.00" d=" M 37.23 20.17 C 39.54 19.08 41.12 22.76 38.88 23.90 C 36.48 24.95 34.76 21.12 37.23 20.17 Z" />
<path fill="#000000" opacity="1.00" d=" M 24.59 30.33 C 29.07 27.34 34.93 27.35 39.41 30.34 C 38.54 31.34 37.67 32.36 36.82 33.38 C 33.81 31.66 30.19 31.69 27.18 33.39 C 26.33 32.36 25.46 31.34 24.59 30.33 Z" />
</g>
</svg>
