<?xml version="1.0" encoding="UTF-8" ?>
<!DOCTYPE svg PUBLIC "-//W3C//DTD SVG 1.1//EN" "http://www.w3.org/Graphics/SVG/1.1/DTD/svg11.dtd">
<svg width="64pt" height="64pt" viewBox="0 0 64 64" version="1.1" xmlns="http://www.w3.org/2000/svg">
<g id="#ffffffff">
<path fill="#ffffff" opacity="1.00" d=" M 0.00 0.00 L 64.00 0.00 L 64.00 64.00 L 0.00 64.00 L 0.00 0.00 M 6.10 12.10 C 5.92 24.70 5.92 37.31 6.10 49.90 C 12.71 50.30 19.33 49.68 25.94 50.10 C 28.82 50.13 29.77 54.42 32.70 53.91 C 34.72 52.54 36.16 49.79 38.95 50.03 C 45.26 49.78 51.59 50.25 57.90 49.91 C 58.08 37.31 58.08 24.70 57.90 12.10 C 49.26 12.11 40.42 11.09 32.00 13.48 C 23.58 11.09 14.74 12.11 6.10 12.10 Z" />
<path fill="#ffffff" opacity="1.00" d=" M 10.09 16.11 C 15.66 15.96 21.26 15.70 26.82 16.21 C 29.54 16.50 29.62 19.97 30.66 21.91 C 31.55 21.91 32.45 21.91 33.34 21.92 C 34.36 19.95 34.46 16.56 37.18 16.21 C 42.74 15.70 48.34 15.96 53.91 16.10 C 54.08 26.03 54.09 35.98 53.90 45.91 C 39.30 46.26 24.70 46.26 10.10 45.91 C 9.91 35.98 9.92 26.04 10.09 16.11 M 30.03 26.00 C 29.97 28.00 29.97 30.00 30.03 32.00 C 31.34 32.00 32.66 32.00 33.97 32.00 C 34.03 30.00 34.03 28.00 33.97 26.00 C 32.66 26.00 31.34 26.00 30.03 26.00 M 30.03 36.00 C 29.97 38.00 29.97 40.00 30.03 42.00 C 31.34 42.00 32.66 42.00 33.97 42.00 C 34.03 40.00 34.03 38.00 33.97 36.00 C 32.66 36.00 31.34 36.00 30.03 36.00 Z" />
</g>
<g id="#000000ff">
<path fill="#000000" opacity="1.00" d=" M 6.10 12.10 C 14.74 12.11 23.58 11.09 32.00 13.48 C 40.42 11.09 49.26 12.11 57.90 12.10 C 58.08 24.70 58.08 37.31 57.90 49.91 C 51.59 50.25 45.26 49.78 38.95 50.03 C 36.16 49.79 34.72 52.54 32.70 53.91 C 29.77 54.42 28.82 50.13 25.94 50.10 C 19.33 49.68 12.71 50.30 6.10 49.90 C 5.92 37.31 5.92 24.70 6.10 12.10 M 10.09 16.11 C 9.92 26.04 9.91 35.98 10.10 45.91 C 24.70 46.26 39.30 46.26 53.90 45.91 C 54.09 35.98 54.08 26.03 53.91 16.10 C 48.34 15.96 42.74 15.70 37.18 16.21 C 34.46 16.56 34.36 19.95 33.34 21.92 C 32.45 21.91 31.55 21.91 30.66 21.91 C 29.62 19.97 29.54 16.50 26.82 16.21 C 21.26 15.70 15.66 15.96 10.09 16.11 Z" />
<path fill="#000000" opacity="1.00" d=" M 30.03 26.00 C 31.34 26.00 32.66 26.00 33.97 26.00 C 34.03 28.00 34.03 30.00 33.97 32.00 C 32.66 32.00 31.34 32.00 30.03 32.00 C 29.97 30.00 29.97 28.00 30.03 26.00 Z" />
<path fill="#000000" opacity="1.00" d=" M 30.03 36.00 C 31.34 36.00 32.66 36.00 33.97 36.00 C 34.03 38.00 34.03 40.00 33.97 42.00 C 32.66 42.00 31.34 42.00 30.03 42.00 C 29.97 40.00 29.97 38.00 30.03 36.00 Z" />
</g>
</svg>
