<?xml version="1.0" encoding="UTF-8" ?>
<!DOCTYPE svg PUBLIC "-//W3C//DTD SVG 1.1//EN" "http://www.w3.org/Graphics/SVG/1.1/DTD/svg11.dtd">
<svg width="60pt" height="60pt" viewBox="0 0 60 60" version="1.1" xmlns="http://www.w3.org/2000/svg">
<g id="#ffffffff">
<path fill="#ffffff" opacity="1.00" d=" M 0.00 0.00 L 60.00 0.00 L 60.00 60.00 L 0.00 60.00 L 0.00 0.00 M 7.89 13.89 C 6.49 14.06 3.95 13.82 4.08 15.92 C 3.94 26.62 3.94 37.34 4.08 48.03 C 3.86 49.66 5.75 50.15 7.00 49.99 C 22.36 50.01 37.73 50.01 53.09 49.99 C 54.30 50.13 56.08 49.65 55.91 48.09 C 56.06 37.37 56.06 26.62 55.91 15.89 C 56.01 13.82 53.49 14.05 52.10 13.89 C 51.87 12.62 52.25 10.92 50.89 10.17 C 43.74 9.65 36.71 11.65 29.98 13.86 C 23.55 11.60 16.80 9.94 9.95 10.06 C 7.84 9.95 8.06 12.47 7.89 13.89 Z" />
<path fill="#ffffff" opacity="1.00" d=" M 12.01 14.14 C 18.17 14.50 24.10 16.29 30.00 17.92 C 35.91 16.29 41.83 14.50 47.99 14.14 C 48.01 23.48 47.99 32.82 48.00 42.15 C 41.87 42.55 35.82 43.90 30.00 45.86 C 24.19 43.87 18.14 42.52 12.00 42.15 C 12.01 32.81 11.99 23.48 12.01 14.14 M 29.14 21.11 C 27.34 22.49 27.69 25.65 28.61 27.43 C 32.92 30.40 33.69 19.70 29.14 21.11 M 29.17 33.07 C 26.72 34.65 27.63 41.92 31.40 39.42 C 32.56 37.42 32.72 32.26 29.17 33.07 Z" />
</g>
<g id="#000000ff">
<path fill="#968176" opacity="1.00" d=" M 7.89 13.89 C 8.06 12.47 7.84 9.95 9.95 10.06 C 16.80 9.94 23.55 11.60 29.98 13.86 C 36.71 11.65 43.74 9.65 50.89 10.17 C 52.25 10.92 51.87 12.62 52.10 13.89 C 53.49 14.05 56.01 13.82 55.91 15.89 C 56.06 26.62 56.06 37.37 55.91 48.09 C 56.08 49.65 54.30 50.13 53.09 49.99 C 37.73 50.01 22.36 50.01 7.00 49.99 C 5.75 50.15 3.86 49.66 4.08 48.03 C 3.94 37.34 3.94 26.62 4.08 15.92 C 3.95 13.82 6.49 14.06 7.89 13.89 M 12.01 14.14 C 11.99 23.48 12.01 32.81 12.00 42.15 C 18.14 42.52 24.19 43.87 30.00 45.86 C 35.82 43.90 41.87 42.55 48.00 42.15 C 47.99 32.82 48.01 23.48 47.99 14.14 C 41.83 14.50 35.91 16.29 30.00 17.92 C 24.10 16.29 18.17 14.50 12.01 14.14 Z" />
<path fill="#968176" opacity="1.00" d=" M 29.14 21.11 C 33.69 19.70 32.92 30.40 28.61 27.43 C 27.69 25.65 27.34 22.49 29.14 21.11 Z" />
<path fill="#968176" opacity="1.00" d=" M 29.17 33.07 C 32.72 32.26 32.56 37.42 31.40 39.42 C 27.63 41.92 26.72 34.65 29.17 33.07 Z" />
</g>
</svg>
