<?xml version="1.0" encoding="UTF-8" ?>
<!DOCTYPE svg PUBLIC "-//W3C//DTD SVG 1.1//EN" "http://www.w3.org/Graphics/SVG/1.1/DTD/svg11.dtd">
<svg width="60pt" height="60pt" viewBox="0 0 60 60" version="1.1" xmlns="http://www.w3.org/2000/svg">
<g id="#ffffffff">
<path fill="#ffffff" opacity="1.00" d=" M 0.00 0.00 L 60.00 0.00 L 60.00 60.00 L 0.00 60.00 L 0.00 0.00 M 24.46 6.65 C 17.10 8.37 10.71 13.76 7.85 20.77 C 4.61 28.37 5.72 37.62 10.69 44.23 C 15.91 51.45 25.36 55.26 34.13 53.63 C 43.15 52.17 50.87 45.06 53.16 36.23 C 55.49 27.91 52.82 18.47 46.50 12.59 C 40.78 7.04 32.19 4.78 24.46 6.65 Z" />
<path fill="#ffffff" opacity="1.00" d=" M 21.04 12.01 C 23.52 11.06 26.09 10.36 28.70 9.93 C 28.74 10.44 28.80 11.48 28.83 12.00 C 29.42 12.00 30.58 12.00 31.17 12.00 C 31.20 11.48 31.27 10.44 31.30 9.92 C 33.91 10.36 36.48 11.06 38.96 12.01 C 38.71 12.47 38.22 13.38 37.97 13.83 C 38.44 14.10 39.39 14.63 39.86 14.90 C 40.19 14.54 40.85 13.84 41.19 13.49 C 43.32 14.83 44.97 16.77 46.64 18.63 C 46.25 18.98 45.46 19.69 45.07 20.05 C 45.34 20.54 45.88 21.53 46.15 22.03 C 46.61 21.78 47.53 21.29 47.99 21.04 C 48.93 23.52 49.63 26.09 50.08 28.70 C 49.56 28.74 48.52 28.80 48.00 28.83 C 48.00 29.42 48.00 30.58 48.00 31.17 C 48.52 31.20 49.55 31.26 50.07 31.29 C 49.63 33.91 48.93 36.48 47.98 38.97 C 47.49 38.69 46.50 38.15 46.00 37.88 C 45.00 39.20 45.52 40.48 46.45 41.64 C 44.78 43.46 43.02 45.19 41.11 46.74 C 40.83 46.31 40.29 45.44 40.02 45.00 C 39.51 45.29 38.49 45.88 37.98 46.17 C 38.22 46.62 38.71 47.53 38.95 47.98 C 36.47 48.93 33.91 49.63 31.29 50.07 C 31.26 49.55 31.20 48.52 31.17 48.00 C 30.59 48.00 29.42 48.00 28.83 48.00 C 28.80 48.52 28.74 49.56 28.70 50.07 C 26.09 49.63 23.52 48.93 21.05 47.99 C 21.29 47.53 21.78 46.62 22.02 46.17 C 21.51 45.88 20.49 45.29 19.98 45.00 C 19.71 45.44 19.17 46.31 18.90 46.74 C 16.80 45.09 14.91 43.20 13.26 41.10 C 13.69 40.83 14.56 40.29 14.99 40.02 C 14.71 39.51 14.13 38.49 13.84 37.98 C 13.39 38.22 12.47 38.71 12.01 38.96 C 11.06 36.48 10.36 33.92 9.92 31.30 C 10.44 31.27 11.48 31.20 12.00 31.17 C 12.00 30.58 12.00 29.42 12.00 28.83 C 11.48 28.80 10.44 28.74 9.93 28.70 C 10.36 26.08 11.06 23.52 12.01 21.04 C 12.47 21.29 13.39 21.78 13.84 22.02 C 14.13 21.51 14.71 20.49 14.99 19.98 C 14.56 19.71 13.69 19.17 13.25 18.90 C 14.90 16.79 16.80 14.90 18.90 13.25 C 19.17 13.69 19.71 14.56 19.98 15.00 C 20.49 14.71 21.51 14.12 22.02 13.83 C 21.78 13.38 21.29 12.47 21.04 12.01 M 27.11 27.10 C 23.80 31.87 21.10 37.06 18.01 41.99 C 22.60 39.22 27.23 36.51 31.80 33.72 C 33.12 33.02 33.81 31.65 34.57 30.44 C 37.01 26.28 39.52 22.16 41.99 18.01 C 37.06 21.09 31.89 23.80 27.11 27.10 Z" />
</g>
<g id="#000000ff">
<path fill="#000000" opacity="1.00" d=" M 24.46 6.65 C 32.19 4.78 40.78 7.04 46.50 12.59 C 52.82 18.47 55.49 27.91 53.16 36.23 C 50.87 45.06 43.15 52.17 34.13 53.63 C 25.36 55.26 15.91 51.45 10.69 44.23 C 5.72 37.62 4.61 28.37 7.85 20.77 C 10.71 13.76 17.10 8.37 24.46 6.65 M 21.04 12.01 C 21.29 12.47 21.78 13.38 22.02 13.83 C 21.51 14.12 20.49 14.71 19.98 15.00 C 19.71 14.56 19.17 13.69 18.90 13.25 C 16.80 14.90 14.90 16.79 13.25 18.90 C 13.69 19.17 14.56 19.71 14.99 19.98 C 14.71 20.49 14.13 21.51 13.84 22.02 C 13.39 21.78 12.47 21.29 12.01 21.04 C 11.06 23.52 10.36 26.08 9.93 28.70 C 10.44 28.74 11.48 28.80 12.00 28.83 C 12.00 29.42 12.00 30.58 12.00 31.17 C 11.48 31.20 10.44 31.27 9.92 31.30 C 10.36 33.92 11.06 36.48 12.01 38.96 C 12.47 38.71 13.39 38.22 13.84 37.98 C 14.13 38.49 14.71 39.51 14.99 40.02 C 14.56 40.29 13.69 40.83 13.26 41.10 C 14.91 43.20 16.80 45.09 18.90 46.74 C 19.17 46.31 19.71 45.44 19.98 45.00 C 20.49 45.29 21.51 45.88 22.02 46.17 C 21.78 46.62 21.29 47.53 21.05 47.99 C 23.52 48.93 26.09 49.63 28.70 50.07 C 28.74 49.56 28.80 48.52 28.83 48.00 C 29.42 48.00 30.59 48.00 31.17 48.00 C 31.20 48.52 31.26 49.55 31.29 50.07 C 33.91 49.63 36.47 48.93 38.95 47.98 C 38.71 47.53 38.22 46.62 37.98 46.17 C 38.49 45.88 39.51 45.29 40.02 45.00 C 40.29 45.44 40.83 46.31 41.11 46.74 C 43.02 45.19 44.78 43.46 46.45 41.64 C 45.52 40.48 45.00 39.20 46.00 37.88 C 46.50 38.15 47.49 38.69 47.98 38.97 C 48.93 36.48 49.63 33.91 50.07 31.29 C 49.55 31.26 48.52 31.20 48.00 31.17 C 48.00 30.58 48.00 29.42 48.00 28.83 C 48.52 28.80 49.56 28.74 50.08 28.70 C 49.63 26.09 48.93 23.52 47.99 21.04 C 47.53 21.29 46.61 21.78 46.15 22.03 C 45.88 21.53 45.34 20.54 45.07 20.05 C 45.46 19.69 46.25 18.98 46.64 18.63 C 44.97 16.77 43.32 14.83 41.19 13.49 C 40.85 13.84 40.19 14.54 39.86 14.90 C 39.39 14.63 38.44 14.10 37.97 13.83 C 38.22 13.38 38.71 12.47 38.96 12.01 C 36.48 11.06 33.91 10.36 31.30 9.92 C 31.27 10.44 31.20 11.48 31.17 12.00 C 30.58 12.00 29.42 12.00 28.83 12.00 C 28.80 11.48 28.74 10.44 28.70 9.93 C 26.09 10.36 23.52 11.06 21.04 12.01 Z" />
<path fill="#000000" opacity="1.00" d=" M 27.11 27.10 C 31.89 23.80 37.06 21.09 41.99 18.01 C 39.52 22.16 37.01 26.28 34.57 30.44 C 33.81 31.65 33.12 33.02 31.80 33.72 C 27.23 36.51 22.60 39.22 18.01 41.99 C 21.10 37.06 23.80 31.87 27.11 27.10 Z" />
</g>
</svg>
