<?xml version="1.0" encoding="UTF-8" ?>
<!DOCTYPE svg PUBLIC "-//W3C//DTD SVG 1.1//EN" "http://www.w3.org/Graphics/SVG/1.1/DTD/svg11.dtd">
<svg width="64pt" height="64pt" viewBox="0 0 64 64" version="1.1" xmlns="http://www.w3.org/2000/svg">
<g id="#ffffffff">
<path fill="#ffffff" opacity="1.00" d=" M 0.00 0.00 L 64.00 0.00 L 64.00 64.00 L 0.00 64.00 L 0.00 0.00 M 33.88 14.00 C 32.59 14.00 31.29 14.00 30.00 14.00 C 30.00 19.33 30.00 24.67 30.00 30.00 C 36.67 30.00 43.33 30.00 50.00 30.00 C 50.00 24.67 50.00 19.33 50.00 14.00 C 48.71 14.00 47.41 14.00 46.12 14.00 C 46.55 10.24 44.22 5.91 40.02 5.99 C 35.80 5.88 33.43 10.22 33.88 14.00 M 8.08 35.46 C 8.58 36.71 9.07 37.97 9.55 39.24 C 13.94 37.83 18.36 36.14 23.02 36.03 C 27.60 36.52 31.89 38.76 35.53 41.51 C 36.86 42.04 35.37 44.83 34.10 43.82 C 31.06 42.73 28.27 41.07 25.31 39.78 C 24.74 40.98 24.17 42.18 23.60 43.38 C 27.11 44.86 30.35 47.03 34.07 47.99 C 37.55 48.27 40.10 45.17 40.17 41.88 C 43.45 41.38 46.69 40.59 50.00 40.38 C 52.26 40.21 52.73 43.84 50.63 44.41 C 44.02 47.36 37.24 49.98 30.31 52.10 C 27.27 50.42 24.38 48.47 21.32 46.84 C 18.46 45.16 15.14 46.49 12.19 47.12 C 12.68 48.36 13.17 49.61 13.66 50.85 C 15.80 50.52 18.21 49.34 20.20 50.78 C 24.35 52.61 28.19 57.41 33.14 55.44 C 40.02 53.12 46.91 50.66 53.42 47.43 C 57.81 44.64 56.11 37.05 50.93 36.40 C 46.56 36.33 42.30 37.66 37.97 38.15 C 34.01 35.65 29.88 33.09 25.20 32.25 C 19.31 31.42 13.58 33.65 8.08 35.46 Z" />
<path fill="#ffffff" opacity="1.00" d=" M 37.86 14.00 C 38.05 12.59 37.85 9.86 39.98 10.06 C 42.14 9.85 41.95 12.57 42.14 14.00 C 40.71 14.00 39.29 14.00 37.86 14.00 Z" />
<path fill="#ffffff" opacity="1.00" d=" M 34.00 18.00 C 38.00 18.00 42.00 18.00 46.00 18.00 C 46.00 20.67 46.00 23.33 46.00 26.00 C 42.00 26.00 38.00 26.00 34.00 26.00 C 34.00 23.33 34.00 20.67 34.00 18.00 Z" />
</g>
<g id="#000000ff">
<path fill="#000000" opacity="1.00" d=" M 33.88 14.00 C 33.43 10.22 35.80 5.88 40.02 5.99 C 44.22 5.91 46.55 10.24 46.12 14.00 C 47.41 14.00 48.71 14.00 50.00 14.00 C 50.00 19.33 50.00 24.67 50.00 30.00 C 43.33 30.00 36.67 30.00 30.00 30.00 C 30.00 24.67 30.00 19.33 30.00 14.00 C 31.29 14.00 32.59 14.00 33.88 14.00 M 37.86 14.00 C 39.29 14.00 40.71 14.00 42.14 14.00 C 41.95 12.57 42.14 9.85 39.98 10.06 C 37.85 9.86 38.05 12.59 37.86 14.00 M 34.00 18.00 C 34.00 20.67 34.00 23.33 34.00 26.00 C 38.00 26.00 42.00 26.00 46.00 26.00 C 46.00 23.33 46.00 20.67 46.00 18.00 C 42.00 18.00 38.00 18.00 34.00 18.00 Z" />
<path fill="#000000" opacity="1.00" d=" M 8.08 35.46 C 13.58 33.65 19.31 31.42 25.20 32.25 C 29.88 33.09 34.01 35.65 37.97 38.15 C 42.30 37.66 46.56 36.33 50.93 36.40 C 56.11 37.05 57.81 44.64 53.42 47.43 C 46.91 50.66 40.02 53.12 33.14 55.44 C 28.19 57.41 24.35 52.61 20.20 50.78 C 18.21 49.34 15.80 50.52 13.66 50.85 C 13.17 49.61 12.68 48.36 12.19 47.12 C 15.14 46.49 18.46 45.16 21.32 46.84 C 24.38 48.47 27.27 50.42 30.31 52.10 C 37.24 49.98 44.02 47.36 50.63 44.41 C 52.73 43.84 52.26 40.21 50.00 40.38 C 46.69 40.59 43.45 41.38 40.17 41.88 C 40.10 45.17 37.55 48.27 34.07 47.99 C 30.35 47.03 27.11 44.86 23.60 43.38 C 24.17 42.18 24.74 40.98 25.31 39.78 C 28.27 41.07 31.06 42.73 34.10 43.82 C 35.37 44.83 36.86 42.04 35.53 41.51 C 31.89 38.76 27.60 36.52 23.02 36.03 C 18.36 36.14 13.94 37.83 9.55 39.24 C 9.07 37.97 8.58 36.71 8.08 35.46 Z" />
</g>
</svg>
