<?xml version="1.0" encoding="UTF-8" ?>
<!DOCTYPE svg PUBLIC "-//W3C//DTD SVG 1.1//EN" "http://www.w3.org/Graphics/SVG/1.1/DTD/svg11.dtd">
<svg width="60pt" height="60pt" viewBox="0 0 60 60" version="1.1" xmlns="http://www.w3.org/2000/svg">
<g id="#ffffffff">
<path fill="#ffffff" opacity="1.00" d=" M 0.00 0.00 L 60.00 0.00 L 60.00 60.00 L 0.00 60.00 L 0.00 0.00 M 6.40 26.07 C 6.73 29.21 11.85 26.79 12.07 30.03 C 11.76 33.21 6.57 30.78 6.42 34.00 C 7.85 43.99 16.36 51.97 26.14 53.78 C 26.68 53.32 27.77 52.41 28.32 51.96 C 29.44 51.95 30.56 51.95 31.69 51.96 C 32.23 52.42 33.31 53.33 33.85 53.78 C 43.84 52.02 52.01 43.82 53.78 33.83 C 53.32 33.30 52.41 32.23 51.96 31.70 C 51.94 30.57 51.94 29.44 51.96 28.30 C 52.41 27.77 53.32 26.69 53.78 26.16 C 51.99 16.35 44.00 7.84 33.99 6.42 C 31.70 6.42 32.26 9.37 31.65 10.84 C 31.37 12.43 28.52 12.37 28.34 10.78 C 27.75 9.31 28.28 6.45 26.03 6.41 C 16.19 7.88 7.83 16.22 6.40 26.07 Z" />
<path fill="#ffffff" opacity="1.00" d=" M 28.52 16.04 C 29.51 16.04 30.50 16.04 31.49 16.04 C 32.40 18.73 35.45 19.04 37.42 20.62 C 39.87 22.29 40.75 25.25 42.22 27.66 C 44.16 28.35 47.57 27.20 48.07 29.97 C 47.66 32.79 44.21 31.67 42.27 32.30 C 40.95 34.33 40.22 36.75 38.46 38.49 C 36.74 40.22 34.36 40.96 32.33 42.23 C 31.71 44.07 32.60 46.61 30.81 47.90 C 27.35 48.71 28.21 44.27 27.65 42.22 C 25.23 40.74 22.27 39.86 20.60 37.40 C 19.04 35.42 18.71 32.41 16.04 31.48 C 16.04 30.49 16.04 29.50 16.04 28.51 C 19.13 27.36 19.20 23.53 21.50 21.53 C 23.50 19.20 27.35 19.15 28.52 16.04 Z" />
</g>
<g id="#000000ff">
<path fill="#000000" opacity="1.00" d=" M 6.40 26.07 C 7.83 16.22 16.19 7.88 26.03 6.41 C 28.28 6.45 27.75 9.31 28.34 10.78 C 28.52 12.37 31.37 12.43 31.65 10.84 C 32.26 9.37 31.70 6.42 33.99 6.42 C 44.00 7.84 51.99 16.35 53.78 26.16 C 53.32 26.69 52.41 27.77 51.96 28.30 C 51.94 29.44 51.94 30.57 51.96 31.70 C 52.41 32.23 53.32 33.30 53.78 33.83 C 52.01 43.82 43.84 52.02 33.85 53.78 C 33.31 53.33 32.23 52.42 31.69 51.96 C 30.56 51.95 29.44 51.95 28.32 51.96 C 27.77 52.41 26.68 53.32 26.14 53.78 C 16.36 51.97 7.85 43.99 6.42 34.00 C 6.57 30.78 11.76 33.21 12.07 30.03 C 11.85 26.79 6.73 29.21 6.40 26.07 M 28.52 16.04 C 27.35 19.15 23.50 19.20 21.50 21.53 C 19.20 23.53 19.13 27.36 16.04 28.51 C 16.04 29.50 16.04 30.49 16.04 31.48 C 18.71 32.41 19.04 35.42 20.60 37.40 C 22.27 39.86 25.23 40.74 27.65 42.22 C 28.21 44.27 27.35 48.71 30.81 47.90 C 32.60 46.61 31.71 44.07 32.33 42.23 C 34.36 40.96 36.74 40.22 38.46 38.49 C 40.22 36.75 40.95 34.33 42.27 32.30 C 44.21 31.67 47.66 32.79 48.07 29.97 C 47.57 27.20 44.16 28.35 42.22 27.66 C 40.75 25.25 39.87 22.29 37.42 20.62 C 35.45 19.04 32.40 18.73 31.49 16.04 C 30.50 16.04 29.51 16.04 28.52 16.04 Z" />
</g>
</svg>
