<?xml version="1.0" encoding="UTF-8" ?>
<!DOCTYPE svg PUBLIC "-//W3C//DTD SVG 1.1//EN" "http://www.w3.org/Graphics/SVG/1.1/DTD/svg11.dtd">
<svg width="60pt" height="60pt" viewBox="0 0 60 60" version="1.1" xmlns="http://www.w3.org/2000/svg">
<g id="#ffffffff">
<path fill="#ffffff" opacity="1.00" d=" M 0.00 0.00 L 60.00 0.00 L 60.00 60.00 L 0.00 60.00 L 0.00 0.00 M 4.00 12.93 C 3.99 25.95 4.01 38.98 4.00 52.00 C 21.33 52.00 38.67 52.00 56.00 52.00 C 55.96 38.63 56.08 25.25 55.95 11.88 C 55.99 9.33 53.39 7.61 51.00 8.00 C 36.61 8.03 22.22 7.92 7.84 8.05 C 5.35 8.02 3.65 10.60 4.00 12.93 Z" />
<path fill="#ffffff" opacity="1.00" d=" M 9.22 14.10 C 11.64 13.18 13.13 16.84 10.80 17.89 C 8.40 18.89 6.84 15.12 9.22 14.10 Z" />
<path fill="#ffffff" opacity="1.00" d=" M 17.19 14.20 C 19.50 12.99 21.17 16.86 18.83 17.89 C 16.47 18.92 14.78 15.14 17.19 14.20 Z" />
<path fill="#ffffff" opacity="1.00" d=" M 24.00 14.00 C 33.33 14.00 42.67 14.00 52.00 14.00 C 52.01 15.33 52.01 16.67 52.00 18.00 C 42.67 18.00 33.33 18.00 24.00 18.00 C 23.99 16.67 23.99 15.33 24.00 14.00 Z" />
<path fill="#ffffff" opacity="1.00" d=" M 8.00 24.00 C 22.67 24.00 37.33 24.00 52.00 24.00 C 52.00 32.00 52.00 40.00 52.00 48.00 C 37.33 48.00 22.67 48.00 8.00 48.00 C 8.00 45.14 7.99 42.28 8.02 39.42 C 9.30 38.12 12.44 37.59 11.81 35.26 C 10.62 34.26 9.30 33.44 8.01 32.57 C 8.00 29.71 8.00 26.86 8.00 24.00 M 27.24 28.86 C 26.08 28.72 24.93 28.54 23.78 28.33 C 23.27 28.79 22.79 29.28 22.33 29.79 C 22.55 30.92 22.71 32.06 22.88 33.20 C 21.40 34.04 19.91 35.04 19.76 36.92 C 20.81 37.50 21.86 38.09 22.91 38.66 C 22.73 39.85 22.55 41.04 22.33 42.22 C 22.81 42.70 23.30 43.19 23.78 43.68 C 24.91 43.45 26.05 43.27 27.19 43.11 C 27.81 44.10 28.48 45.03 29.22 45.92 C 31.22 46.59 31.81 44.34 32.78 43.13 C 33.93 43.28 35.08 43.45 36.22 43.67 C 36.71 43.19 37.18 42.71 37.65 42.22 C 37.46 41.07 37.28 39.91 37.14 38.76 C 37.98 37.84 40.18 37.58 39.93 36.01 C 40.20 34.44 37.99 34.18 37.16 33.25 C 37.28 32.08 37.45 30.91 37.65 29.75 C 37.18 29.29 36.71 28.82 36.24 28.36 C 35.17 28.60 34.09 28.74 33.00 28.80 C 32.19 27.96 31.53 26.99 30.72 26.15 C 28.73 25.33 28.19 27.67 27.24 28.86 Z" />
<path fill="#ffffff" opacity="1.00" d=" M 28.34 32.38 C 30.84 31.02 34.13 33.27 33.99 36.04 C 34.07 39.04 30.17 41.22 27.76 39.27 C 25.15 37.74 25.61 33.52 28.34 32.38 Z" />
</g>
<g id="#000000ff">
<path fill="#000000" opacity="1.00" d=" M 4.00 12.93 C 3.65 10.60 5.35 8.02 7.84 8.05 C 22.22 7.92 36.61 8.03 51.00 8.00 C 53.39 7.61 55.99 9.33 55.95 11.88 C 56.08 25.25 55.96 38.63 56.00 52.00 C 38.67 52.00 21.33 52.00 4.00 52.00 C 4.01 38.98 3.99 25.95 4.00 12.93 M 9.22 14.10 C 6.84 15.12 8.40 18.89 10.80 17.89 C 13.13 16.84 11.64 13.18 9.22 14.10 M 17.19 14.20 C 14.78 15.14 16.47 18.92 18.83 17.89 C 21.17 16.86 19.50 12.99 17.19 14.20 M 24.00 14.00 C 23.99 15.33 23.99 16.67 24.00 18.00 C 33.33 18.00 42.67 18.00 52.00 18.00 C 52.01 16.67 52.01 15.33 52.00 14.00 C 42.67 14.00 33.33 14.00 24.00 14.00 M 8.00 24.00 C 8.00 26.86 8.00 29.71 8.01 32.57 C 9.30 33.44 10.62 34.26 11.81 35.26 C 12.44 37.59 9.30 38.12 8.02 39.42 C 7.99 42.28 8.00 45.14 8.00 48.00 C 22.67 48.00 37.33 48.00 52.00 48.00 C 52.00 40.00 52.00 32.00 52.00 24.00 C 37.33 24.00 22.67 24.00 8.00 24.00 Z" />
<path fill="#000000" opacity="1.00" d=" M 27.24 28.86 C 28.19 27.67 28.73 25.33 30.72 26.15 C 31.53 26.99 32.19 27.96 33.00 28.80 C 34.09 28.74 35.17 28.60 36.24 28.36 C 36.71 28.82 37.18 29.29 37.65 29.75 C 37.45 30.91 37.28 32.08 37.16 33.25 C 37.99 34.18 40.20 34.44 39.93 36.01 C 40.18 37.58 37.98 37.84 37.14 38.76 C 37.28 39.91 37.46 41.07 37.65 42.22 C 37.18 42.71 36.71 43.19 36.22 43.67 C 35.08 43.45 33.93 43.28 32.78 43.13 C 31.81 44.34 31.22 46.59 29.22 45.92 C 28.48 45.03 27.81 44.10 27.19 43.11 C 26.05 43.27 24.91 43.45 23.78 43.68 C 23.30 43.19 22.81 42.70 22.33 42.22 C 22.55 41.04 22.73 39.85 22.91 38.66 C 21.86 38.09 20.81 37.50 19.76 36.92 C 19.91 35.04 21.40 34.04 22.88 33.20 C 22.71 32.06 22.55 30.92 22.33 29.79 C 22.79 29.28 23.27 28.79 23.78 28.33 C 24.93 28.54 26.08 28.72 27.24 28.86 M 28.34 32.38 C 25.61 33.52 25.15 37.74 27.76 39.27 C 30.17 41.22 34.07 39.04 33.99 36.04 C 34.13 33.27 30.84 31.02 28.34 32.38 Z" />
</g>
</svg>
