<?xml version="1.0" encoding="UTF-8" ?>
<!DOCTYPE svg PUBLIC "-//W3C//DTD SVG 1.1//EN" "http://www.w3.org/Graphics/SVG/1.1/DTD/svg11.dtd">
<svg width="64pt" height="64pt" viewBox="0 0 64 64" version="1.1" xmlns="http://www.w3.org/2000/svg">
<g id="#ffffffff">
<path fill="#ffffff" opacity="1.00" d=" M 0.00 0.00 L 64.00 0.00 L 64.00 64.00 L 0.00 64.00 L 0.00 0.00 M 30.00 8.00 C 30.00 9.33 30.00 10.67 30.00 12.00 C 36.37 12.01 42.74 11.99 49.12 12.01 C 41.75 19.38 34.39 26.75 27.01 34.11 C 24.34 31.45 21.70 28.76 19.00 26.13 C 18.07 27.09 17.14 28.05 16.20 29.01 C 18.86 31.67 21.53 34.33 24.19 37.00 C 18.80 42.40 13.40 47.79 8.01 53.19 C 8.94 54.12 9.88 55.06 10.81 56.00 C 16.23 50.63 21.60 45.21 27.01 39.83 C 29.75 42.46 32.31 45.29 35.12 47.84 C 36.36 47.54 37.07 46.03 38.06 45.26 C 35.37 42.47 32.56 39.78 29.85 37.00 C 37.22 29.63 44.58 22.24 52.00 14.92 C 52.00 21.28 52.00 27.64 52.00 34.00 C 53.33 34.00 54.67 34.00 56.00 34.00 C 56.00 25.33 56.00 16.67 56.00 8.00 C 47.33 8.00 38.67 8.00 30.00 8.00 Z" />
</g>
<g id="#000000ff">
<path fill="#000000" opacity="1.00" d=" M 30.00 8.00 C 38.67 8.00 47.33 8.00 56.00 8.00 C 56.00 16.67 56.00 25.33 56.00 34.00 C 54.67 34.00 53.33 34.00 52.00 34.00 C 52.00 27.64 52.00 21.28 52.00 14.92 C 44.58 22.24 37.22 29.63 29.85 37.00 C 32.56 39.78 35.37 42.47 38.06 45.26 C 37.07 46.03 36.36 47.54 35.12 47.84 C 32.31 45.29 29.75 42.46 27.01 39.83 C 21.60 45.21 16.23 50.63 10.81 56.00 C 9.88 55.06 8.94 54.12 8.01 53.19 C 13.40 47.79 18.80 42.40 24.19 37.00 C 21.53 34.33 18.86 31.67 16.20 29.01 C 17.14 28.05 18.07 27.09 19.00 26.13 C 21.70 28.76 24.34 31.45 27.01 34.11 C 34.39 26.75 41.75 19.38 49.12 12.01 C 42.74 11.99 36.37 12.01 30.00 12.00 C 30.00 10.67 30.00 9.33 30.00 8.00 Z" />
</g>
</svg>
