<?xml version="1.0" encoding="UTF-8" ?>
<!DOCTYPE svg PUBLIC "-//W3C//DTD SVG 1.1//EN" "http://www.w3.org/Graphics/SVG/1.1/DTD/svg11.dtd">
<svg width="64pt" height="64pt" viewBox="0 0 64 64" version="1.1" xmlns="http://www.w3.org/2000/svg">
<g id="#ffffffff">
<path fill="#ffffff" opacity="1.00" d=" M 0.00 0.00 L 64.00 0.00 L 64.00 64.00 L 0.00 64.00 L 0.00 0.00 M 6.10 36.11 C 13.37 43.37 20.63 50.64 27.90 57.91 C 31.24 54.63 34.54 51.30 37.87 48.00 C 35.98 48.00 34.09 48.00 32.20 48.00 C 30.77 49.41 29.35 50.84 27.92 52.25 C 22.52 46.88 17.14 41.49 11.75 36.10 C 19.06 28.73 26.37 21.34 33.70 13.99 C 39.13 14.01 44.56 13.99 50.00 14.00 C 50.00 20.00 50.00 26.00 50.00 32.00 C 51.33 32.00 52.67 32.00 54.00 32.00 C 54.00 24.67 54.00 17.33 54.00 10.00 C 46.67 10.00 39.33 10.01 32.00 9.99 C 23.37 18.70 14.74 27.41 6.10 36.11 M 43.25 18.14 C 40.80 19.05 42.39 22.90 44.81 21.89 C 47.13 20.90 45.62 17.12 43.25 18.14 M 39.00 56.00 C 40.00 56.00 42.00 56.00 43.00 56.00 C 46.33 49.33 49.67 42.67 53.00 36.00 C 52.00 36.00 50.00 36.00 49.00 36.00 C 45.67 42.67 42.33 49.33 39.00 56.00 M 37.35 38.53 C 35.58 39.58 35.60 42.49 37.40 43.50 C 38.90 44.57 41.32 43.76 41.79 41.95 C 42.91 39.42 39.51 36.85 37.35 38.53 M 51.37 48.52 C 48.08 50.43 51.47 55.80 54.64 53.49 C 57.93 51.55 54.50 46.20 51.37 48.52 Z" />
</g>
<g id="#000000ff">
<path fill="#000000" opacity="1.00" d=" M 6.10 36.11 C 14.74 27.41 23.37 18.70 32.00 9.99 C 39.33 10.01 46.67 10.00 54.00 10.00 C 54.00 17.33 54.00 24.67 54.00 32.00 C 52.67 32.00 51.33 32.00 50.00 32.00 C 50.00 26.00 50.00 20.00 50.00 14.00 C 44.56 13.99 39.13 14.01 33.70 13.99 C 26.37 21.34 19.06 28.73 11.75 36.10 C 17.14 41.49 22.52 46.88 27.92 52.25 C 29.35 50.84 30.77 49.41 32.20 48.00 C 34.09 48.00 35.98 48.00 37.87 48.00 C 34.54 51.30 31.24 54.63 27.90 57.91 C 20.63 50.64 13.37 43.37 6.10 36.11 Z" />
<path fill="#000000" opacity="1.00" d=" M 43.25 18.14 C 45.62 17.12 47.13 20.90 44.81 21.89 C 42.39 22.90 40.80 19.05 43.25 18.14 Z" />
<path fill="#000000" opacity="1.00" d=" M 39.00 56.00 C 42.33 49.33 45.67 42.67 49.00 36.00 C 50.00 36.00 52.00 36.00 53.00 36.00 C 49.67 42.67 46.33 49.33 43.00 56.00 C 42.00 56.00 40.00 56.00 39.00 56.00 Z" />
<path fill="#000000" opacity="1.00" d=" M 37.35 38.53 C 39.51 36.85 42.91 39.42 41.79 41.95 C 41.32 43.76 38.90 44.57 37.40 43.50 C 35.60 42.49 35.58 39.58 37.35 38.53 Z" />
<path fill="#000000" opacity="1.00" d=" M 51.37 48.52 C 54.50 46.20 57.93 51.55 54.64 53.49 C 51.47 55.80 48.08 50.43 51.37 48.52 Z" />
</g>
</svg>
