<?xml version="1.0" encoding="UTF-8" ?>
<!DOCTYPE svg PUBLIC "-//W3C//DTD SVG 1.1//EN" "http://www.w3.org/Graphics/SVG/1.1/DTD/svg11.dtd">
<svg width="60pt" height="60pt" viewBox="0 0 60 60" version="1.1" xmlns="http://www.w3.org/2000/svg">
<g id="#ffffffff">
<path fill="#ffffff" opacity="1.00" d=" M 0.00 0.00 L 60.00 0.00 L 60.00 60.00 L 0.00 60.00 L 0.00 0.00 M 32.28 6.44 C 26.71 11.10 21.94 16.67 16.68 21.68 C 13.44 25.09 9.84 28.15 6.80 31.74 C 5.38 33.42 6.09 35.93 7.64 37.26 C 12.27 42.00 17.06 46.58 21.66 51.35 C 22.92 52.46 24.15 54.08 26.02 53.95 C 28.35 53.93 29.76 51.75 31.35 50.36 C 38.63 42.69 46.60 35.63 53.58 27.69 C 54.44 23.18 53.92 18.48 53.94 13.89 C 54.04 9.71 50.32 5.96 46.14 6.06 C 41.53 6.09 36.80 5.54 32.28 6.44 Z" />
<path fill="#ffffff" opacity="1.00" d=" M 44.34 10.39 C 47.16 8.80 50.82 11.92 49.87 14.96 C 49.26 17.54 45.86 18.97 43.71 17.25 C 41.16 15.67 41.61 11.52 44.34 10.39 Z" />
<path fill="#ffffff" opacity="1.00" d=" M 26.37 21.08 C 27.35 20.11 28.32 19.14 29.29 18.17 C 30.26 25.20 31.53 32.18 33.72 38.94 C 32.74 39.90 31.76 40.87 30.79 41.83 C 29.75 34.83 28.47 27.85 26.37 21.08 Z" />
<path fill="#ffffff" opacity="1.00" d=" M 35.32 25.22 C 39.16 23.05 44.01 28.66 41.10 32.09 C 39.48 34.54 35.75 34.42 34.05 32.13 C 31.91 30.11 32.73 26.41 35.32 25.22 M 35.92 27.72 C 34.96 29.96 37.69 31.01 39.40 31.11 C 38.91 29.53 38.05 27.32 35.92 27.72 Z" />
<path fill="#ffffff" opacity="1.00" d=" M 20.43 26.64 C 24.24 24.36 29.23 29.91 26.36 33.40 C 24.78 35.86 21.03 35.88 19.30 33.58 C 17.16 31.58 17.88 27.90 20.43 26.64 M 20.77 28.76 C 20.91 30.46 22.12 33.16 24.24 32.11 C 24.59 29.99 22.34 29.23 20.77 28.76 Z" />
</g>
<g id="#000000ff">
<path fill="#000000" opacity="1.00" d=" M 32.28 6.44 C 36.80 5.54 41.53 6.09 46.14 6.06 C 50.32 5.96 54.04 9.71 53.94 13.89 C 53.92 18.48 54.44 23.18 53.58 27.69 C 46.60 35.63 38.63 42.69 31.35 50.36 C 29.76 51.75 28.35 53.93 26.02 53.95 C 24.15 54.08 22.92 52.46 21.66 51.35 C 17.06 46.58 12.27 42.00 7.64 37.26 C 6.09 35.93 5.38 33.42 6.80 31.74 C 9.84 28.15 13.44 25.09 16.68 21.68 C 21.94 16.67 26.71 11.10 32.28 6.44 M 44.34 10.39 C 41.61 11.52 41.16 15.67 43.71 17.25 C 45.86 18.97 49.26 17.54 49.87 14.96 C 50.82 11.92 47.16 8.80 44.34 10.39 M 26.37 21.08 C 28.47 27.85 29.75 34.83 30.79 41.83 C 31.76 40.87 32.74 39.90 33.72 38.94 C 31.53 32.18 30.26 25.20 29.29 18.17 C 28.32 19.14 27.35 20.11 26.37 21.08 M 35.32 25.22 C 32.73 26.41 31.91 30.11 34.05 32.13 C 35.75 34.42 39.48 34.54 41.10 32.09 C 44.01 28.66 39.16 23.05 35.32 25.22 M 20.43 26.64 C 17.88 27.90 17.16 31.58 19.30 33.58 C 21.03 35.88 24.78 35.86 26.36 33.40 C 29.23 29.91 24.24 24.36 20.43 26.64 Z" />
<path fill="#000000" opacity="1.00" d=" M 35.92 27.72 C 38.05 27.32 38.91 29.53 39.40 31.11 C 37.69 31.01 34.96 29.96 35.92 27.72 Z" />
<path fill="#000000" opacity="1.00" d=" M 20.77 28.76 C 22.34 29.23 24.59 29.99 24.24 32.11 C 22.12 33.16 20.91 30.46 20.77 28.76 Z" />
</g>
</svg>
