<?xml version="1.0" encoding="UTF-8" ?>
<!DOCTYPE svg PUBLIC "-//W3C//DTD SVG 1.1//EN" "http://www.w3.org/Graphics/SVG/1.1/DTD/svg11.dtd">
<svg width="60pt" height="60pt" viewBox="0 0 60 60" version="1.1" xmlns="http://www.w3.org/2000/svg">
<g id="#ffffffff">
<path fill="#ffffff" opacity="1.00" d=" M 0.00 0.00 L 60.00 0.00 L 60.00 60.00 L 0.00 60.00 L 0.00 0.00 M 28.41 6.43 C 25.97 8.65 24.02 11.41 22.09 14.07 C 21.31 18.01 21.01 22.03 20.40 26.00 C 22.24 26.00 24.08 26.00 25.92 26.00 C 25.57 23.36 26.87 19.92 30.00 20.01 C 33.16 19.89 34.39 23.38 34.08 26.00 C 35.92 26.00 37.76 26.00 39.60 26.00 C 38.38 20.83 39.61 14.54 35.33 10.61 C 33.57 8.60 31.64 4.76 28.41 6.43 M 11.27 33.10 C 9.42 40.04 7.78 47.04 6.00 54.00 C 11.33 54.00 16.67 54.00 22.00 54.00 C 22.06 50.26 21.42 45.97 24.10 42.91 C 26.76 39.32 32.56 39.06 35.49 42.44 C 38.55 45.48 37.98 50.07 38.00 54.00 C 43.34 54.00 48.67 54.00 54.00 54.00 C 52.22 47.04 50.59 40.05 48.73 33.12 C 48.33 31.00 46.16 29.80 44.11 30.01 C 34.70 29.99 25.29 29.99 15.89 30.01 C 13.85 29.80 11.67 30.99 11.27 33.10 Z" />
<path fill="#ffffff" opacity="1.00" d=" M 32.17 12.17 C 33.79 11.65 34.34 12.21 33.82 13.82 C 32.20 14.34 31.65 13.79 32.17 12.17 Z" />
<path fill="#ffffff" opacity="1.00" d=" M 26.17 16.17 C 27.79 15.65 28.34 16.20 27.82 17.82 C 26.21 18.34 25.65 17.79 26.17 16.17 Z" />
<path fill="#ffffff" opacity="1.00" d=" M 18.16 34.18 C 19.78 33.64 20.34 34.19 19.83 35.82 C 18.21 36.35 17.66 35.80 18.16 34.18 Z" />
<path fill="#ffffff" opacity="1.00" d=" M 14.17 38.17 C 15.79 37.65 16.34 38.21 15.82 39.82 C 14.20 40.34 13.65 39.79 14.17 38.17 Z" />
<path fill="#ffffff" opacity="1.00" d=" M 40.17 38.17 C 41.79 37.65 42.34 38.20 41.82 39.82 C 40.20 40.34 39.65 39.79 40.17 38.17 Z" />
<path fill="#ffffff" opacity="1.00" d=" M 46.16 44.18 C 47.77 43.64 48.33 44.18 47.83 45.81 C 46.22 46.35 45.66 45.81 46.16 44.18 Z" />
<path fill="#ffffff" opacity="1.00" d=" M 16.16 46.18 C 17.78 45.64 18.33 46.19 17.83 47.81 C 16.22 48.35 15.66 47.80 16.16 46.18 Z" />
<path fill="#ffffff" opacity="1.00" d=" M 42.17 46.17 C 43.79 45.65 44.34 46.20 43.82 47.82 C 42.20 48.34 41.65 47.79 42.17 46.17 Z" />
</g>
<g id="#000000ff">
<path fill="#000000" opacity="1.00" d=" M 28.41 6.43 C 31.64 4.76 33.57 8.60 35.33 10.61 C 39.61 14.54 38.38 20.83 39.60 26.00 C 37.76 26.00 35.92 26.00 34.08 26.00 C 34.39 23.38 33.16 19.89 30.00 20.01 C 26.87 19.92 25.57 23.36 25.92 26.00 C 24.08 26.00 22.24 26.00 20.40 26.00 C 21.01 22.03 21.31 18.01 22.09 14.07 C 24.02 11.41 25.97 8.65 28.41 6.43 M 32.17 12.17 C 31.65 13.79 32.20 14.34 33.82 13.82 C 34.34 12.21 33.79 11.65 32.17 12.17 M 26.17 16.17 C 25.65 17.79 26.21 18.34 27.82 17.82 C 28.34 16.20 27.79 15.65 26.17 16.17 Z" />
<path fill="#000000" opacity="1.00" d=" M 11.27 33.10 C 11.67 30.99 13.85 29.80 15.89 30.01 C 25.29 29.99 34.70 29.99 44.11 30.01 C 46.16 29.80 48.33 31.00 48.73 33.12 C 50.59 40.05 52.22 47.04 54.00 54.00 C 48.67 54.00 43.34 54.00 38.00 54.00 C 37.98 50.07 38.55 45.48 35.49 42.44 C 32.56 39.06 26.76 39.32 24.10 42.91 C 21.42 45.97 22.06 50.26 22.00 54.00 C 16.67 54.00 11.33 54.00 6.00 54.00 C 7.78 47.04 9.42 40.04 11.27 33.10 M 18.16 34.18 C 17.66 35.80 18.21 36.35 19.83 35.82 C 20.34 34.19 19.78 33.64 18.16 34.18 M 14.17 38.17 C 13.65 39.79 14.20 40.34 15.82 39.82 C 16.34 38.21 15.79 37.65 14.17 38.17 M 40.17 38.17 C 39.65 39.79 40.20 40.34 41.82 39.82 C 42.34 38.20 41.79 37.65 40.17 38.17 M 46.16 44.18 C 45.66 45.81 46.22 46.35 47.83 45.81 C 48.33 44.18 47.77 43.64 46.16 44.18 M 16.16 46.18 C 15.66 47.80 16.22 48.35 17.83 47.81 C 18.33 46.19 17.78 45.64 16.16 46.18 M 42.17 46.17 C 41.65 47.79 42.20 48.34 43.82 47.82 C 44.34 46.20 43.79 45.65 42.17 46.17 Z" />
</g>
</svg>
