<?xml version="1.0" encoding="UTF-8" ?>
<!DOCTYPE svg PUBLIC "-//W3C//DTD SVG 1.1//EN" "http://www.w3.org/Graphics/SVG/1.1/DTD/svg11.dtd">
<svg width="200pt" height="200pt" viewBox="0 0 200 200" version="1.1" xmlns="http://www.w3.org/2000/svg">
<g id="#ffffffff">
<path fill="#ffffff" opacity="1.00" d=" M 0.00 0.00 L 200.00 0.00 L 200.00 200.00 L 0.00 200.00 L 0.00 0.00 M 106.58 13.47 C 96.82 17.46 86.98 21.28 77.22 25.27 C 74.76 25.85 74.17 29.44 76.28 30.80 C 77.84 32.02 79.67 30.93 81.25 30.39 C 90.60 26.56 99.99 22.84 109.36 19.05 C 113.27 21.02 117.19 23.01 121.10 25.00 C 118.08 25.05 115.05 24.85 112.03 25.09 C 109.82 25.16 108.59 28.07 109.85 29.82 C 110.92 31.64 113.26 31.17 115.03 31.28 C 124.70 31.16 134.39 31.39 144.06 31.17 C 147.24 31.16 147.87 26.24 144.95 25.19 C 141.70 24.78 138.41 25.06 135.14 24.99 C 139.12 23.00 143.10 21.02 147.08 19.03 C 158.40 23.05 169.63 27.40 181.01 31.23 C 184.37 31.92 185.91 26.49 182.66 25.37 C 171.76 21.25 160.74 17.41 149.81 13.35 C 148.34 12.90 146.67 11.90 145.17 12.86 C 139.45 15.67 133.82 18.64 128.12 21.50 C 122.39 18.68 116.72 15.73 110.96 12.97 C 109.55 12.03 107.96 13.01 106.58 13.47 M 65.59 69.82 C 55.89 73.79 46.11 77.56 36.42 81.56 C 32.89 82.53 34.38 88.42 37.98 87.51 C 48.32 83.66 58.48 79.33 68.75 75.31 C 72.66 77.29 76.58 79.26 80.48 81.25 C 77.33 81.30 74.18 81.08 71.04 81.37 C 68.81 81.82 67.98 84.87 69.53 86.47 C 70.65 87.78 72.49 87.43 74.01 87.52 C 83.99 87.39 93.99 87.70 103.97 87.37 C 106.95 86.75 106.98 82.01 103.99 81.37 C 100.84 81.08 97.67 81.30 94.51 81.25 C 98.50 79.24 102.49 77.24 106.50 75.28 C 116.83 79.10 127.22 82.78 137.55 86.61 C 139.17 87.11 141.11 88.19 142.66 86.86 C 144.57 85.45 144.02 82.07 141.68 81.47 C 129.80 77.18 117.99 72.61 106.01 68.64 C 99.65 71.17 93.72 74.75 87.55 77.73 C 81.66 74.92 75.93 71.77 70.00 69.06 C 68.54 68.19 67.01 69.48 65.59 69.82 M 18.75 109.46 C 18.72 115.72 18.75 121.97 18.75 128.23 C 24.62 129.00 30.26 131.37 34.71 135.31 C 41.29 141.10 51.36 142.23 59.20 138.42 C 63.01 136.62 65.81 133.30 69.59 131.45 C 79.12 126.35 91.52 127.22 100.16 133.76 C 103.18 136.12 106.30 138.55 110.07 139.59 C 117.55 141.99 126.08 140.06 131.97 134.91 C 141.70 126.50 157.11 125.86 167.44 133.55 C 171.41 136.94 175.98 139.71 181.22 140.51 C 181.25 134.32 181.24 128.14 181.24 121.95 C 177.50 121.33 173.78 120.38 170.46 118.49 C 166.64 116.50 163.82 112.99 159.81 111.32 C 151.77 107.63 141.73 109.23 135.24 115.25 C 125.04 123.95 108.78 123.98 98.55 115.33 C 92.19 109.59 82.64 107.68 74.66 110.94 C 70.02 112.58 66.84 116.59 62.49 118.73 C 52.92 123.71 40.46 122.79 31.93 116.09 C 28.20 112.75 23.72 110.30 18.75 109.46 M 18.77 134.45 C 18.73 141.75 18.76 149.05 18.75 156.35 C 22.35 156.95 25.95 157.82 29.17 159.61 C 33.11 161.56 35.99 165.15 40.08 166.85 C 47.96 170.38 57.79 168.97 64.24 163.19 C 72.74 155.78 85.66 154.15 95.74 159.18 C 100.16 161.15 103.35 165.11 107.87 166.91 C 115.13 170.06 124.04 169.08 130.36 164.28 C 133.02 162.26 135.63 160.11 138.74 158.81 C 147.90 154.61 159.26 155.68 167.40 161.65 C 171.39 165.04 175.96 167.85 181.23 168.64 C 181.27 161.41 181.25 154.18 181.25 146.95 C 175.33 146.16 169.64 143.77 165.17 139.77 C 158.77 134.08 149.01 132.78 141.25 136.31 C 137.43 137.89 134.68 141.15 131.08 143.10 C 122.50 148.02 111.40 148.06 102.78 143.21 C 99.18 141.28 96.39 138.11 92.63 136.45 C 86.63 133.66 79.41 133.66 73.41 136.48 C 69.60 138.16 66.82 141.43 63.16 143.37 C 53.08 149.00 39.59 147.81 30.82 140.23 C 27.44 137.20 23.21 135.30 18.77 134.45 M 18.76 162.63 C 18.73 168.83 18.75 175.04 18.75 181.25 C 72.92 181.25 127.08 181.25 181.25 181.25 C 181.25 179.19 181.25 177.14 181.25 175.08 C 177.50 174.47 173.75 173.50 170.43 171.60 C 166.72 169.67 163.97 166.30 160.13 164.59 C 152.33 160.89 142.42 162.11 135.90 167.83 C 127.56 175.21 114.91 177.08 104.82 172.36 C 99.73 170.28 96.19 165.60 90.91 163.87 C 83.28 161.00 74.21 162.66 68.10 168.06 C 58.44 176.67 42.80 177.38 32.45 169.61 C 28.53 166.20 23.98 163.43 18.76 162.63 Z" />
</g>
<g id="#000000ff">
<path fill="#968176" opacity="1.00" d=" M 106.58 13.47 C 107.96 13.01 109.55 12.03 110.96 12.97 C 116.72 15.73 122.39 18.68 128.12 21.50 C 133.82 18.64 139.45 15.67 145.17 12.86 C 146.67 11.90 148.34 12.90 149.81 13.35 C 160.74 17.41 171.76 21.25 182.66 25.37 C 185.91 26.49 184.37 31.92 181.01 31.23 C 169.63 27.40 158.40 23.05 147.08 19.03 C 143.10 21.02 139.12 23.00 135.14 24.99 C 138.41 25.06 141.70 24.78 144.95 25.19 C 147.87 26.24 147.24 31.16 144.06 31.17 C 134.39 31.39 124.70 31.16 115.03 31.28 C 113.26 31.17 110.92 31.64 109.85 29.82 C 108.59 28.07 109.82 25.16 112.03 25.09 C 115.05 24.85 118.08 25.05 121.10 25.00 C 117.19 23.01 113.27 21.02 109.36 19.05 C 99.99 22.84 90.60 26.56 81.25 30.39 C 79.67 30.93 77.84 32.02 76.28 30.80 C 74.17 29.44 74.76 25.85 77.22 25.27 C 86.98 21.28 96.82 17.46 106.58 13.47 Z" />
<path fill="#968176" opacity="1.00" d=" M 65.59 69.82 C 67.01 69.48 68.54 68.19 70.00 69.06 C 75.93 71.77 81.66 74.92 87.55 77.73 C 93.72 74.75 99.65 71.17 106.01 68.64 C 117.99 72.61 129.80 77.18 141.68 81.47 C 144.02 82.07 144.57 85.45 142.66 86.86 C 141.11 88.19 139.17 87.11 137.55 86.61 C 127.22 82.78 116.83 79.10 106.50 75.28 C 102.49 77.24 98.50 79.24 94.51 81.25 C 97.67 81.30 100.84 81.08 103.99 81.37 C 106.98 82.01 106.95 86.75 103.97 87.37 C 93.99 87.70 83.99 87.39 74.01 87.52 C 72.49 87.43 70.65 87.78 69.53 86.47 C 67.98 84.87 68.81 81.82 71.04 81.37 C 74.18 81.08 77.33 81.30 80.48 81.25 C 76.58 79.26 72.66 77.29 68.75 75.31 C 58.48 79.33 48.32 83.66 37.98 87.51 C 34.38 88.42 32.89 82.53 36.42 81.56 C 46.11 77.56 55.89 73.79 65.59 69.82 Z" />
<path fill="#968176" opacity="1.00" d=" M 18.75 109.46 C 23.72 110.30 28.20 112.75 31.93 116.09 C 40.46 122.79 52.92 123.71 62.49 118.73 C 66.84 116.59 70.02 112.58 74.66 110.94 C 82.64 107.68 92.19 109.59 98.55 115.33 C 108.78 123.98 125.04 123.95 135.24 115.25 C 141.73 109.23 151.77 107.63 159.81 111.32 C 163.82 112.99 166.64 116.50 170.46 118.49 C 173.78 120.38 177.50 121.33 181.24 121.95 C 181.24 128.14 181.25 134.32 181.22 140.51 C 175.98 139.71 171.41 136.94 167.44 133.55 C 157.11 125.86 141.70 126.50 131.97 134.91 C 126.08 140.06 117.55 141.99 110.07 139.59 C 106.30 138.55 103.18 136.12 100.16 133.76 C 91.52 127.22 79.12 126.35 69.59 131.45 C 65.81 133.30 63.01 136.62 59.20 138.42 C 51.36 142.23 41.29 141.10 34.71 135.31 C 30.26 131.37 24.62 129.00 18.75 128.23 C 18.75 121.97 18.72 115.72 18.75 109.46 Z" />
<path fill="#968176" opacity="1.00" d=" M 18.77 134.45 C 23.21 135.30 27.44 137.20 30.82 140.23 C 39.59 147.81 53.08 149.00 63.16 143.37 C 66.82 141.43 69.60 138.16 73.41 136.48 C 79.41 133.66 86.63 133.66 92.63 136.45 C 96.39 138.11 99.18 141.28 102.78 143.21 C 111.40 148.06 122.50 148.02 131.08 143.10 C 134.68 141.15 137.43 137.89 141.25 136.31 C 149.01 132.78 158.77 134.08 165.17 139.77 C 169.64 143.77 175.33 146.16 181.25 146.95 C 181.25 154.18 181.27 161.41 181.23 168.64 C 175.96 167.85 171.39 165.04 167.40 161.65 C 159.26 155.68 147.90 154.61 138.74 158.81 C 135.63 160.11 133.02 162.26 130.36 164.28 C 124.04 169.08 115.13 170.06 107.87 166.91 C 103.35 165.11 100.16 161.15 95.74 159.18 C 85.66 154.15 72.74 155.78 64.24 163.19 C 57.79 168.97 47.96 170.38 40.08 166.85 C 35.99 165.15 33.11 161.56 29.17 159.61 C 25.95 157.82 22.35 156.95 18.75 156.35 C 18.76 149.05 18.73 141.75 18.77 134.45 Z" />
<path fill="#968176" opacity="1.00" d=" M 18.76 162.63 C 23.98 163.43 28.53 166.20 32.45 169.61 C 42.80 177.38 58.44 176.67 68.10 168.06 C 74.21 162.66 83.28 161.00 90.91 163.87 C 96.19 165.60 99.73 170.28 104.82 172.36 C 114.91 177.08 127.56 175.21 135.90 167.83 C 142.42 162.11 152.33 160.89 160.13 164.59 C 163.97 166.30 166.72 169.67 170.43 171.60 C 173.75 173.50 177.50 174.47 181.25 175.08 C 181.25 177.14 181.25 179.19 181.25 181.25 C 127.08 181.25 72.92 181.25 18.75 181.25 C 18.75 175.04 18.73 168.83 18.76 162.63 Z" />
</g>
</svg>
