<?xml version="1.0" encoding="UTF-8" ?>
<!DOCTYPE svg PUBLIC "-//W3C//DTD SVG 1.1//EN" "http://www.w3.org/Graphics/SVG/1.1/DTD/svg11.dtd">
<svg width="64pt" height="64pt" viewBox="0 0 64 64" version="1.1" xmlns="http://www.w3.org/2000/svg">
<g id="#ffffffff">
<path fill="#ffffff" opacity="1.00" d=" M 0.00 0.00 L 64.00 0.00 L 64.00 64.00 L 0.00 64.00 L 0.00 0.00 M 10.50 21.89 C 9.80 21.93 8.41 22.02 7.72 22.06 C 9.23 33.37 10.74 44.68 12.24 56.00 C 16.74 56.00 21.24 56.00 25.73 56.00 C 26.56 54.67 27.38 53.34 28.21 52.01 C 24.06 51.99 19.91 52.00 15.75 52.00 C 14.60 43.33 13.43 34.67 12.29 26.00 C 22.76 26.00 33.24 26.00 43.71 26.00 C 43.34 28.82 42.96 31.65 42.57 34.47 C 43.94 34.30 45.31 34.14 46.69 33.99 C 47.22 30.00 47.75 26.01 48.28 22.02 C 47.61 22.01 46.26 21.98 45.59 21.97 C 43.72 14.45 36.91 8.39 29.06 8.07 C 20.57 7.39 12.38 13.63 10.50 21.89 M 56.28 24.98 C 53.60 29.43 50.96 33.90 48.25 38.33 C 45.05 37.84 41.32 38.56 39.50 41.51 C 36.37 46.26 33.49 51.18 30.45 55.99 C 39.63 56.01 48.82 56.00 58.00 56.00 C 58.00 54.67 58.00 53.33 58.00 52.00 C 55.96 52.00 53.92 52.00 51.88 52.02 C 54.53 48.54 54.59 43.71 51.71 40.36 C 54.39 35.91 57.07 31.45 59.74 27.00 C 58.58 26.32 57.43 25.65 56.28 24.98 Z" />
<path fill="#ffffff" opacity="1.00" d=" M 14.50 21.97 C 16.39 16.27 21.88 11.87 28.00 12.02 C 34.12 11.89 39.61 16.26 41.50 21.97 C 32.50 22.02 23.50 22.02 14.50 21.97 Z" />
<path fill="#ffffff" opacity="1.00" d=" M 43.24 43.24 C 45.24 40.98 49.36 42.19 49.94 45.11 C 50.43 47.76 48.23 49.82 47.11 52.00 C 43.96 52.00 40.80 52.00 37.65 51.99 C 39.54 49.09 41.12 45.98 43.24 43.24 Z" />
</g>
<g id="#000000ff">
<path fill="#000000" opacity="1.00" d=" M 10.50 21.89 C 12.38 13.63 20.57 7.39 29.06 8.07 C 36.91 8.39 43.72 14.45 45.59 21.97 C 46.26 21.98 47.61 22.01 48.28 22.02 C 47.75 26.01 47.22 30.00 46.69 33.99 C 45.31 34.14 43.94 34.30 42.57 34.47 C 42.96 31.65 43.34 28.82 43.71 26.00 C 33.24 26.00 22.76 26.00 12.29 26.00 C 13.43 34.67 14.60 43.33 15.75 52.00 C 19.91 52.00 24.06 51.99 28.21 52.01 C 27.38 53.34 26.56 54.67 25.73 56.00 C 21.24 56.00 16.74 56.00 12.24 56.00 C 10.74 44.68 9.23 33.37 7.72 22.06 C 8.41 22.02 9.80 21.93 10.50 21.89 M 14.50 21.97 C 23.50 22.02 32.50 22.02 41.50 21.97 C 39.61 16.26 34.12 11.89 28.00 12.02 C 21.88 11.87 16.39 16.27 14.50 21.97 Z" />
<path fill="#000000" opacity="1.00" d=" M 56.28 24.98 C 57.43 25.65 58.58 26.32 59.74 27.00 C 57.07 31.45 54.39 35.91 51.71 40.36 C 54.59 43.71 54.53 48.54 51.88 52.02 C 53.92 52.00 55.96 52.00 58.00 52.00 C 58.00 53.33 58.00 54.67 58.00 56.00 C 48.82 56.00 39.63 56.01 30.45 55.99 C 33.49 51.18 36.37 46.26 39.50 41.51 C 41.32 38.56 45.05 37.84 48.25 38.33 C 50.96 33.90 53.60 29.43 56.28 24.98 M 43.24 43.24 C 41.12 45.98 39.54 49.09 37.65 51.99 C 40.80 52.00 43.96 52.00 47.11 52.00 C 48.23 49.82 50.43 47.76 49.94 45.11 C 49.36 42.19 45.24 40.98 43.24 43.24 Z" />
</g>
</svg>
