<?xml version="1.0" encoding="UTF-8" ?>
<!DOCTYPE svg PUBLIC "-//W3C//DTD SVG 1.1//EN" "http://www.w3.org/Graphics/SVG/1.1/DTD/svg11.dtd">
<svg width="64pt" height="64pt" viewBox="0 0 64 64" version="1.1" xmlns="http://www.w3.org/2000/svg">
<g id="#ffffffff">
<path fill="#ffffff" opacity="1.00" d=" M 0.00 0.00 L 64.00 0.00 L 64.00 64.00 L 0.00 64.00 L 0.00 0.00 M 13.45 14.58 C 11.36 17.33 12.18 20.94 11.97 24.14 C 8.58 25.92 7.25 29.86 8.57 33.41 C 5.36 36.31 5.30 41.31 8.26 44.40 C 6.62 49.60 11.13 54.84 16.49 54.05 C 18.72 57.83 23.62 59.09 27.37 56.75 C 30.31 58.24 33.69 58.25 36.63 56.75 C 40.39 59.10 45.27 57.81 47.53 54.05 C 52.84 54.82 57.37 49.63 55.73 44.46 C 58.64 41.32 58.66 36.34 55.44 33.41 C 55.92 31.38 56.00 29.30 55.43 27.27 C 57.75 25.32 59.52 22.16 58.16 19.13 C 57.25 16.23 54.16 15.41 51.63 14.53 C 46.91 9.30 40.08 6.08 33.00 6.03 C 25.70 5.70 17.48 8.02 13.45 14.58 Z" />
<path fill="#ffffff" opacity="1.00" d=" M 17.17 15.93 C 24.84 7.50 39.47 8.34 47.45 15.93 C 37.36 16.05 27.26 16.04 17.17 15.93 Z" />
<path fill="#ffffff" opacity="1.00" d=" M 51.24 19.21 C 54.16 17.75 56.12 23.00 52.95 23.80 C 50.08 25.17 48.17 20.09 51.24 19.21 Z" />
<path fill="#ffffff" opacity="1.00" d=" M 16.00 20.00 C 25.89 19.99 35.78 20.01 45.67 19.99 C 45.70 21.33 45.79 22.67 45.94 24.01 C 35.96 23.99 25.98 24.01 16.00 24.00 C 16.00 22.67 16.00 21.33 16.00 20.00 Z" />
<path fill="#ffffff" opacity="1.00" d=" M 13.12 28.16 C 16.46 27.80 19.83 28.13 23.17 27.91 C 21.64 29.12 21.63 31.88 23.98 32.03 C 26.36 31.91 26.37 29.13 24.82 27.90 C 29.59 28.06 34.37 28.06 39.14 27.90 C 37.65 29.20 37.66 31.85 40.01 32.08 C 42.35 31.81 42.33 29.22 40.86 27.92 C 43.92 28.07 46.98 27.89 50.04 28.06 C 51.69 27.79 51.66 29.89 52.15 30.90 C 49.88 33.35 48.38 37.05 44.83 37.89 C 41.62 38.51 38.95 36.24 36.95 34.03 C 36.25 34.02 34.86 34.00 34.16 33.99 C 33.95 35.41 34.11 38.19 31.94 37.93 C 29.88 38.10 30.07 35.33 29.67 33.99 C 28.99 34.00 27.64 34.02 26.96 34.03 C 25.15 36.01 22.96 38.09 20.07 37.98 C 16.60 37.89 14.72 34.51 12.83 32.08 C 11.73 30.98 11.76 29.03 13.12 28.16 Z" />
<path fill="#ffffff" opacity="1.00" d=" M 10.93 40.92 C 9.46 39.66 10.23 37.85 11.07 36.48 C 12.98 38.75 15.15 41.19 18.21 41.79 C 21.32 42.51 24.37 41.22 27.05 39.75 C 29.76 42.59 34.23 42.59 36.94 39.75 C 39.61 41.21 42.65 42.50 45.76 41.79 C 48.89 41.20 50.99 38.63 53.12 36.49 C 53.75 37.98 54.47 39.74 53.01 41.00 C 50.97 42.82 51.61 45.48 51.82 47.87 C 51.32 50.15 48.64 50.11 46.89 49.50 C 44.86 50.17 43.79 51.92 42.56 53.51 C 41.04 54.63 39.32 53.54 38.13 52.50 C 35.93 52.10 34.06 53.37 32.02 53.91 C 29.96 53.42 28.10 52.08 25.88 52.49 C 24.68 53.52 22.90 54.67 21.40 53.47 C 20.19 51.89 19.11 50.16 17.10 49.50 C 15.36 50.13 12.69 50.14 12.18 47.89 C 12.40 45.46 13.00 42.77 10.93 40.92 M 26.00 44.00 C 26.00 45.33 26.00 46.67 26.00 48.00 C 30.00 48.00 34.00 48.00 38.00 48.00 C 38.00 46.67 38.00 45.33 38.00 44.00 C 34.00 44.00 30.00 44.00 26.00 44.00 Z" />
</g>
<g id="#000000ff">
<path fill="#000000" opacity="1.00" d=" M 13.45 14.58 C 17.48 8.02 25.70 5.70 33.00 6.03 C 40.08 6.08 46.91 9.30 51.63 14.53 C 54.16 15.41 57.25 16.23 58.16 19.13 C 59.52 22.16 57.75 25.32 55.43 27.27 C 56.00 29.30 55.92 31.38 55.44 33.41 C 58.66 36.34 58.64 41.32 55.73 44.46 C 57.37 49.63 52.84 54.82 47.53 54.05 C 45.27 57.81 40.39 59.10 36.63 56.75 C 33.69 58.25 30.31 58.24 27.37 56.75 C 23.62 59.09 18.72 57.83 16.49 54.05 C 11.13 54.84 6.62 49.60 8.26 44.40 C 5.30 41.31 5.36 36.31 8.57 33.41 C 7.25 29.86 8.58 25.92 11.97 24.14 C 12.18 20.94 11.36 17.33 13.45 14.58 M 17.17 15.93 C 27.26 16.04 37.36 16.05 47.45 15.93 C 39.47 8.34 24.84 7.50 17.17 15.93 M 51.24 19.21 C 48.17 20.09 50.08 25.17 52.95 23.80 C 56.12 23.00 54.16 17.75 51.24 19.21 M 16.00 20.00 C 16.00 21.33 16.00 22.67 16.00 24.00 C 25.98 24.01 35.96 23.99 45.94 24.01 C 45.79 22.67 45.70 21.33 45.67 19.99 C 35.78 20.01 25.89 19.99 16.00 20.00 M 13.12 28.16 C 11.76 29.03 11.73 30.98 12.83 32.08 C 14.72 34.51 16.60 37.89 20.07 37.98 C 22.96 38.09 25.15 36.01 26.96 34.03 C 27.64 34.02 28.99 34.00 29.67 33.99 C 30.07 35.33 29.88 38.10 31.94 37.93 C 34.11 38.19 33.95 35.41 34.16 33.99 C 34.86 34.00 36.25 34.02 36.95 34.03 C 38.95 36.24 41.62 38.51 44.83 37.89 C 48.38 37.05 49.88 33.35 52.15 30.90 C 51.66 29.89 51.69 27.79 50.04 28.06 C 46.98 27.89 43.92 28.07 40.86 27.92 C 42.33 29.22 42.35 31.81 40.01 32.08 C 37.66 31.85 37.65 29.20 39.14 27.90 C 34.37 28.06 29.59 28.06 24.82 27.90 C 26.37 29.13 26.36 31.91 23.98 32.03 C 21.63 31.88 21.64 29.12 23.17 27.91 C 19.83 28.13 16.46 27.80 13.12 28.16 M 10.93 40.92 C 13.00 42.77 12.40 45.46 12.18 47.89 C 12.69 50.14 15.36 50.13 17.10 49.50 C 19.11 50.16 20.19 51.89 21.40 53.47 C 22.90 54.67 24.68 53.52 25.88 52.49 C 28.10 52.08 29.96 53.42 32.02 53.91 C 34.06 53.37 35.93 52.10 38.13 52.50 C 39.32 53.54 41.04 54.63 42.56 53.51 C 43.79 51.92 44.86 50.17 46.89 49.50 C 48.64 50.11 51.32 50.15 51.82 47.87 C 51.61 45.48 50.97 42.82 53.01 41.00 C 54.47 39.74 53.75 37.98 53.12 36.49 C 50.99 38.63 48.89 41.20 45.76 41.79 C 42.65 42.50 39.61 41.21 36.94 39.75 C 34.23 42.59 29.76 42.59 27.05 39.75 C 24.37 41.22 21.32 42.51 18.21 41.79 C 15.15 41.19 12.98 38.75 11.07 36.48 C 10.23 37.85 9.46 39.66 10.93 40.92 Z" />
<path fill="#000000" opacity="1.00" d=" M 26.00 44.00 C 30.00 44.00 34.00 44.00 38.00 44.00 C 38.00 45.33 38.00 46.67 38.00 48.00 C 34.00 48.00 30.00 48.00 26.00 48.00 C 26.00 46.67 26.00 45.33 26.00 44.00 Z" />
</g>
</svg>
