<?xml version="1.0" encoding="UTF-8" ?>
<!DOCTYPE svg PUBLIC "-//W3C//DTD SVG 1.1//EN" "http://www.w3.org/Graphics/SVG/1.1/DTD/svg11.dtd">
<svg width="64pt" height="64pt" viewBox="0 0 64 64" version="1.1" xmlns="http://www.w3.org/2000/svg">
<g id="#ffffffff">
<path fill="#ffffff" opacity="1.00" d=" M 0.00 0.00 L 64.00 0.00 L 64.00 64.00 L 0.00 64.00 L 0.00 0.00 M 2.00 18.00 C 2.00 27.33 2.00 36.67 2.00 46.00 C 12.26 46.00 22.52 45.99 32.77 46.00 C 42.90 36.69 52.99 27.32 63.13 18.02 C 42.75 17.98 22.38 18.01 2.00 18.00 Z" />
<path fill="#ffffff" opacity="1.00" d=" M 6.00 22.00 C 21.64 22.00 37.28 22.00 52.91 22.00 C 45.66 28.64 38.45 35.32 31.24 42.01 C 22.83 41.99 14.41 42.00 6.00 42.00 C 6.00 35.33 6.00 28.67 6.00 22.00 M 7.99 29.12 C 7.74 33.09 12.73 32.55 14.62 34.97 C 12.64 35.31 10.65 35.13 8.68 34.81 C 8.50 35.44 8.13 36.69 7.95 37.32 C 10.42 37.96 13.00 38.14 15.49 37.53 C 17.20 37.87 19.55 38.77 20.36 36.49 C 21.80 36.57 23.23 36.56 24.67 36.47 C 25.78 38.98 28.87 37.71 31.00 38.03 C 31.00 37.32 31.00 35.91 31.00 35.20 C 34.36 35.50 38.10 32.72 36.76 29.06 C 35.58 25.28 31.06 26.03 28.00 25.96 C 28.00 29.14 28.00 32.31 28.00 35.49 C 26.72 32.31 25.44 29.12 24.18 25.93 C 22.96 26.00 21.73 26.06 20.51 26.13 C 19.66 28.63 18.70 31.08 17.84 33.57 C 15.95 31.06 12.26 31.39 10.44 28.83 C 12.81 28.22 16.45 29.95 17.14 26.59 C 14.08 25.98 8.91 24.92 7.99 29.12 Z" />
<path fill="#ffffff" opacity="1.00" d=" M 31.01 28.74 C 32.22 28.85 33.27 29.31 34.14 30.09 C 34.13 31.89 32.31 31.86 31.02 32.27 C 31.02 31.39 31.02 29.62 31.01 28.74 Z" />
<path fill="#ffffff" opacity="1.00" d=" M 22.53 29.36 C 23.03 30.92 23.52 32.47 24.06 34.01 C 23.27 34.01 21.70 34.01 20.91 34.01 C 21.47 32.47 22.00 30.91 22.53 29.36 Z" />
</g>
<g id="#000000ff">
<path fill="#000000" opacity="1.00" d=" M 2.00 18.00 C 22.38 18.01 42.75 17.98 63.13 18.02 C 52.99 27.32 42.90 36.69 32.77 46.00 C 22.52 45.99 12.26 46.00 2.00 46.00 C 2.00 36.67 2.00 27.33 2.00 18.00 M 6.00 22.00 C 6.00 28.67 6.00 35.33 6.00 42.00 C 14.41 42.00 22.83 41.99 31.24 42.01 C 38.45 35.32 45.66 28.64 52.91 22.00 C 37.28 22.00 21.64 22.00 6.00 22.00 Z" />
<path fill="#000000" opacity="1.00" d=" M 7.99 29.12 C 8.91 24.92 14.08 25.98 17.14 26.59 C 16.45 29.95 12.81 28.22 10.44 28.83 C 12.26 31.39 15.95 31.06 17.84 33.57 C 18.70 31.08 19.66 28.63 20.51 26.13 C 21.73 26.06 22.96 26.00 24.18 25.93 C 25.44 29.12 26.72 32.31 28.00 35.49 C 28.00 32.31 28.00 29.14 28.00 25.96 C 31.06 26.03 35.58 25.28 36.76 29.06 C 38.10 32.72 34.36 35.50 31.00 35.20 C 31.00 35.91 31.00 37.32 31.00 38.03 C 28.87 37.71 25.78 38.98 24.67 36.47 C 23.23 36.56 21.80 36.57 20.36 36.49 C 19.55 38.77 17.20 37.87 15.49 37.53 C 13.00 38.14 10.42 37.96 7.95 37.32 C 8.13 36.69 8.50 35.44 8.68 34.81 C 10.65 35.13 12.64 35.31 14.62 34.97 C 12.73 32.55 7.74 33.09 7.99 29.12 M 31.01 28.74 C 31.02 29.62 31.02 31.39 31.02 32.27 C 32.31 31.86 34.13 31.89 34.14 30.09 C 33.27 29.31 32.22 28.85 31.01 28.74 M 22.53 29.36 C 22.00 30.91 21.47 32.47 20.91 34.01 C 21.70 34.01 23.27 34.01 24.06 34.01 C 23.52 32.47 23.03 30.92 22.53 29.36 Z" />
</g>
</svg>
