<?xml version="1.0" encoding="UTF-8" ?>
<!DOCTYPE svg PUBLIC "-//W3C//DTD SVG 1.1//EN" "http://www.w3.org/Graphics/SVG/1.1/DTD/svg11.dtd">
<svg width="60pt" height="60pt" viewBox="0 0 60 60" version="1.1" xmlns="http://www.w3.org/2000/svg">
<g id="#ffffffff">
<path fill="#ffffff" opacity="1.00" d=" M 0.00 0.00 L 60.00 0.00 L 60.00 60.00 L 0.00 60.00 L 0.00 0.00 M 26.24 13.08 C 27.17 14.06 28.10 15.05 29.03 16.04 C 32.26 13.21 36.06 9.36 40.73 10.22 C 44.20 11.85 43.45 16.45 43.52 19.58 C 37.72 18.22 31.75 17.81 25.80 18.10 C 24.51 16.97 23.01 15.51 21.12 16.13 C 19.41 16.38 18.69 18.10 17.73 19.30 C 12.45 20.82 5.65 22.93 4.12 28.94 C 3.32 34.21 8.61 37.32 12.69 39.17 C 12.20 43.45 12.02 48.49 15.24 51.82 C 18.18 54.84 23.00 54.30 26.41 52.42 C 31.50 50.05 34.54 45.05 39.28 42.23 C 40.75 36.07 45.02 31.04 46.45 24.81 C 48.58 26.11 51.50 27.17 52.03 29.92 C 51.17 33.91 46.45 34.97 43.17 36.25 C 43.51 37.58 43.85 38.90 44.17 40.23 C 48.80 38.58 54.58 36.42 55.88 31.08 C 56.69 25.82 51.42 22.70 47.35 20.84 C 47.94 15.86 47.85 9.07 42.53 6.66 C 36.32 4.36 30.51 9.11 26.24 13.08 Z" />
<path fill="#ffffff" opacity="1.00" d=" M 25.59 22.22 C 31.30 21.72 37.07 22.18 42.64 23.54 C 41.32 27.88 39.52 32.08 37.11 35.92 C 33.50 35.45 30.91 39.06 32.43 42.36 C 29.07 45.81 25.14 50.02 19.95 49.91 C 15.80 49.04 16.48 43.61 16.49 40.42 C 20.33 41.27 24.23 41.77 28.15 42.00 C 28.13 40.67 28.12 39.33 28.12 37.99 C 24.51 37.78 20.93 37.28 17.41 36.44 C 18.31 33.55 19.40 30.72 20.68 27.98 C 19.46 27.44 18.24 26.90 17.02 26.35 C 15.70 29.23 14.56 32.19 13.60 35.21 C 11.24 33.85 6.68 31.91 8.50 28.49 C 11.05 25.23 15.36 24.20 19.17 23.17 C 21.39 24.32 23.85 24.08 25.59 22.22 Z" />
</g>
<g id="#000000ff">
<path fill="#000000" opacity="1.00" d=" M 26.24 13.08 C 30.51 9.11 36.32 4.36 42.53 6.66 C 47.85 9.07 47.94 15.86 47.35 20.84 C 51.42 22.70 56.69 25.82 55.88 31.08 C 54.58 36.42 48.80 38.58 44.17 40.23 C 43.85 38.90 43.51 37.58 43.17 36.25 C 46.45 34.97 51.17 33.91 52.03 29.92 C 51.50 27.17 48.58 26.11 46.45 24.81 C 45.02 31.04 40.75 36.07 39.28 42.23 C 34.54 45.05 31.50 50.05 26.41 52.42 C 23.00 54.30 18.18 54.84 15.24 51.82 C 12.02 48.49 12.20 43.45 12.69 39.17 C 8.61 37.32 3.32 34.21 4.12 28.94 C 5.65 22.93 12.45 20.82 17.73 19.30 C 18.69 18.10 19.41 16.38 21.12 16.13 C 23.01 15.51 24.51 16.97 25.80 18.10 C 31.75 17.81 37.72 18.22 43.52 19.58 C 43.45 16.45 44.20 11.85 40.73 10.22 C 36.06 9.36 32.26 13.21 29.03 16.04 C 28.10 15.05 27.17 14.06 26.24 13.08 M 25.59 22.22 C 23.85 24.08 21.39 24.32 19.17 23.17 C 15.36 24.20 11.05 25.23 8.50 28.49 C 6.68 31.91 11.24 33.85 13.60 35.21 C 14.56 32.19 15.70 29.23 17.02 26.35 C 18.24 26.90 19.46 27.44 20.68 27.98 C 19.40 30.72 18.31 33.55 17.41 36.44 C 20.93 37.28 24.51 37.78 28.12 37.99 C 28.12 39.33 28.13 40.67 28.15 42.00 C 24.23 41.77 20.33 41.27 16.49 40.42 C 16.48 43.61 15.80 49.04 19.95 49.91 C 25.14 50.02 29.07 45.81 32.43 42.36 C 30.91 39.06 33.50 35.45 37.11 35.92 C 39.52 32.08 41.32 27.88 42.64 23.54 C 37.07 22.18 31.30 21.72 25.59 22.22 Z" />
</g>
</svg>
