<?xml version="1.0" encoding="UTF-8" ?>
<!DOCTYPE svg PUBLIC "-//W3C//DTD SVG 1.1//EN" "http://www.w3.org/Graphics/SVG/1.1/DTD/svg11.dtd">
<svg width="60pt" height="60pt" viewBox="0 0 60 60" version="1.1" xmlns="http://www.w3.org/2000/svg">
<g id="#ffffffff">
<path fill="#ffffff" opacity="1.00" d=" M 0.00 0.00 L 60.00 0.00 L 60.00 60.00 L 0.00 60.00 L 0.00 0.00 M 12.74 6.71 C 11.28 8.14 8.85 10.33 10.63 12.47 C 13.93 16.13 17.58 19.46 21.00 23.00 C 23.67 20.33 26.35 17.66 29.01 14.98 C 25.42 11.61 22.18 7.86 18.47 4.62 C 16.33 2.88 14.18 5.25 12.74 6.71 M 36.53 13.48 C 32.71 17.30 28.83 21.08 25.08 24.98 C 23.56 26.39 24.12 28.55 24.69 30.26 C 22.24 29.71 19.90 30.51 17.93 31.96 C 21.29 35.35 24.66 38.72 28.05 42.09 C 29.45 40.11 30.31 37.79 29.75 35.34 C 31.43 35.82 33.51 36.42 34.92 34.99 C 38.89 31.23 42.68 27.29 46.55 23.43 C 48.09 22.09 48.51 19.56 47.15 17.95 C 45.57 16.10 43.84 14.38 41.99 12.81 C 40.37 11.48 37.85 11.95 36.53 13.48 M 37.00 39.00 C 40.55 42.42 43.85 46.11 47.53 49.37 C 49.06 50.74 51.07 49.58 52.20 48.32 C 53.83 46.55 57.29 44.31 55.40 41.58 C 52.15 37.86 48.42 34.57 45.02 30.99 C 42.34 33.65 39.67 36.33 37.00 39.00 M 5.20 38.08 C 3.63 38.85 4.00 40.73 4.14 42.14 C 5.13 50.01 12.83 56.81 20.87 55.81 C 22.72 55.02 22.11 51.94 20.03 52.10 C 14.49 51.86 9.06 47.88 8.30 42.19 C 8.10 40.40 7.85 37.25 5.20 38.08 M 13.15 38.10 C 12.89 38.36 12.38 38.86 12.12 39.11 C 11.35 43.66 15.48 48.16 20.05 47.96 C 21.73 48.12 22.70 45.64 21.39 44.60 C 19.73 43.74 17.09 43.82 16.48 41.66 C 15.92 40.05 15.60 37.21 13.15 38.10 Z" />
</g>
<g id="#000000ff">
<path fill="#000000" opacity="1.00" d=" M 12.74 6.71 C 14.18 5.25 16.33 2.88 18.47 4.62 C 22.18 7.86 25.42 11.61 29.01 14.98 C 26.35 17.66 23.67 20.33 21.00 23.00 C 17.58 19.46 13.93 16.13 10.63 12.47 C 8.85 10.33 11.28 8.14 12.74 6.71 Z" />
<path fill="#000000" opacity="1.00" d=" M 36.53 13.48 C 37.85 11.95 40.37 11.48 41.99 12.81 C 43.84 14.38 45.57 16.10 47.15 17.95 C 48.51 19.56 48.09 22.09 46.55 23.43 C 42.68 27.29 38.89 31.23 34.92 34.99 C 33.51 36.42 31.43 35.82 29.75 35.34 C 30.31 37.79 29.45 40.11 28.05 42.09 C 24.66 38.72 21.29 35.35 17.93 31.96 C 19.90 30.51 22.24 29.71 24.69 30.26 C 24.12 28.55 23.56 26.39 25.08 24.98 C 28.83 21.08 32.71 17.30 36.53 13.48 Z" />
<path fill="#000000" opacity="1.00" d=" M 37.00 39.00 C 39.67 36.33 42.34 33.65 45.02 30.99 C 48.42 34.57 52.15 37.86 55.40 41.58 C 57.29 44.31 53.83 46.55 52.20 48.32 C 51.07 49.58 49.06 50.74 47.53 49.37 C 43.85 46.11 40.55 42.42 37.00 39.00 Z" />
<path fill="#000000" opacity="1.00" d=" M 5.20 38.08 C 7.85 37.25 8.10 40.40 8.30 42.19 C 9.06 47.88 14.49 51.86 20.03 52.10 C 22.11 51.94 22.72 55.02 20.87 55.81 C 12.83 56.81 5.13 50.01 4.14 42.14 C 4.00 40.73 3.63 38.85 5.20 38.08 Z" />
<path fill="#000000" opacity="1.00" d=" M 13.15 38.10 C 15.60 37.21 15.92 40.05 16.48 41.66 C 17.09 43.82 19.73 43.74 21.39 44.60 C 22.70 45.64 21.73 48.12 20.05 47.96 C 15.48 48.16 11.35 43.66 12.12 39.11 C 12.38 38.86 12.89 38.36 13.15 38.10 Z" />
</g>
</svg>
