<?xml version="1.0" encoding="UTF-8" ?>
<!DOCTYPE svg PUBLIC "-//W3C//DTD SVG 1.1//EN" "http://www.w3.org/Graphics/SVG/1.1/DTD/svg11.dtd">
<svg width="60pt" height="60pt" viewBox="0 0 60 60" version="1.1" xmlns="http://www.w3.org/2000/svg">
<g id="#ffffffff">
<path fill="#ffffff" opacity="1.00" d=" M 0.00 0.00 L 60.00 0.00 L 60.00 20.41 C 59.65 16.50 55.91 13.44 52.00 14.06 C 49.34 14.25 47.70 16.52 46.35 18.54 C 32.93 22.87 19.47 15.78 5.95 16.11 C 3.65 16.16 1.25 16.92 0.00 18.99 L 0.00 0.00 Z" />
<path fill="#ffffff" opacity="1.00" d=" M 50.24 20.11 C 50.81 16.80 56.16 17.72 56.01 20.92 C 55.39 25.75 51.16 29.03 47.57 31.84 C 49.42 28.18 49.59 24.07 50.24 20.11 Z" />
<path fill="#ffffff" opacity="1.00" d=" M 0.00 20.76 C 1.90 22.65 5.25 21.83 6.86 24.17 C 9.58 27.65 10.40 32.31 13.51 35.53 C 16.64 38.98 21.51 39.97 25.98 39.98 C 32.84 40.28 40.72 40.25 45.75 34.78 C 46.88 35.45 48.12 36.70 49.36 35.44 C 54.03 32.10 59.07 27.85 60.00 21.83 L 60.00 60.00 L 0.00 60.00 L 0.00 20.76 M 19.16 44.19 C 17.28 44.90 17.89 48.12 19.96 47.93 C 26.64 48.05 33.34 48.05 40.02 47.93 C 42.54 48.18 42.61 43.91 40.09 44.07 C 33.12 44.02 26.11 43.79 19.16 44.19 Z" />
</g>
<g id="#000000ff">
<path fill="#968176" opacity="1.00" d=" M 46.35 18.54 C 47.70 16.52 49.34 14.25 52.00 14.06 C 55.91 13.44 59.65 16.50 60.00 20.41 L 60.00 21.83 C 59.07 27.85 54.03 32.10 49.36 35.44 C 48.12 36.70 46.88 35.45 45.75 34.78 C 40.72 40.25 32.84 40.28 25.98 39.98 C 21.51 39.97 16.64 38.98 13.51 35.53 C 10.40 32.31 9.58 27.65 6.86 24.17 C 5.25 21.83 1.90 22.65 0.00 20.76 L 0.00 18.99 C 1.25 16.92 3.65 16.16 5.95 16.11 C 19.47 15.78 32.93 22.87 46.35 18.54 M 50.24 20.11 C 49.59 24.07 49.42 28.18 47.57 31.84 C 51.16 29.03 55.39 25.75 56.01 20.92 C 56.16 17.72 50.81 16.80 50.24 20.11 Z" />
<path fill="#968176" opacity="1.00" d=" M 19.16 44.19 C 26.11 43.79 33.12 44.02 40.09 44.07 C 42.61 43.91 42.54 48.18 40.02 47.93 C 33.34 48.05 26.64 48.05 19.96 47.93 C 17.89 48.12 17.28 44.90 19.16 44.19 Z" />
</g>
</svg>
