<?xml version="1.0" encoding="UTF-8" ?>
<!DOCTYPE svg PUBLIC "-//W3C//DTD SVG 1.1//EN" "http://www.w3.org/Graphics/SVG/1.1/DTD/svg11.dtd">
<svg width="60pt" height="60pt" viewBox="0 0 60 60" version="1.1" xmlns="http://www.w3.org/2000/svg">
<g id="#ffffffff">
<path fill="#ffffff" opacity="1.00" d=" M 0.00 0.00 L 60.00 0.00 L 60.00 60.00 L 0.00 60.00 L 0.00 0.00 M 27.41 6.59 C 23.23 8.36 22.87 14.84 26.81 17.07 C 30.54 19.67 36.18 16.53 35.99 12.01 C 36.17 7.78 31.17 4.58 27.41 6.59 M 49.15 16.07 C 47.42 17.13 48.13 19.33 48.24 20.97 C 48.64 24.95 51.68 28.02 52.12 31.99 C 51.99 34.13 55.02 34.73 55.83 32.84 C 56.85 27.73 52.01 23.99 52.04 19.01 C 52.18 17.31 51.11 15.38 49.15 16.07 M 24.36 22.51 C 20.94 24.13 18.64 27.40 16.22 30.20 C 15.89 32.65 17.25 34.99 17.71 37.36 C 17.46 37.99 16.96 39.26 16.70 39.89 C 17.73 44.18 19.02 48.43 20.51 52.58 C 21.81 55.16 26.22 53.85 25.96 50.97 C 25.45 48.15 24.43 45.46 23.66 42.71 C 27.86 41.87 32.15 41.87 36.34 42.71 C 35.55 45.48 34.53 48.20 34.03 51.04 C 33.88 53.86 38.11 55.11 39.46 52.63 C 40.96 48.47 42.27 44.20 43.29 39.89 C 43.04 39.26 42.54 37.99 42.29 37.36 C 42.77 35.00 44.05 32.69 43.81 30.24 C 41.39 27.42 39.07 24.13 35.63 22.51 C 31.97 21.70 28.02 21.70 24.36 22.51 M 5.21 24.07 C 3.46 25.06 4.15 27.32 3.95 28.96 C 4.07 30.74 3.44 33.83 6.03 34.05 C 8.91 33.55 7.80 29.95 8.04 27.92 C 8.31 26.09 7.65 23.32 5.21 24.07 M 5.17 38.16 C 3.63 38.82 3.63 41.12 5.14 41.82 C 7.70 42.16 10.29 41.99 12.86 42.00 C 12.85 40.67 12.84 39.33 12.85 38.00 C 10.29 38.01 7.72 37.85 5.17 38.16 M 47.15 38.00 C 47.15 39.33 47.15 40.67 47.13 42.00 C 49.71 41.99 52.31 42.15 54.88 41.82 C 56.35 41.09 56.35 38.85 54.83 38.17 C 52.29 37.85 49.71 38.01 47.15 38.00 Z" />
<path fill="#ffffff" opacity="1.00" d=" M 20.25 31.47 C 21.50 30.16 22.75 28.85 24.00 27.54 C 23.97 30.32 24.14 33.10 23.90 35.88 C 23.35 36.09 22.25 36.50 21.70 36.71 C 21.22 34.96 20.73 33.22 20.25 31.47 Z" />
<path fill="#ffffff" opacity="1.00" d=" M 36.00 27.53 C 37.24 28.84 38.49 30.14 39.75 31.43 C 39.25 33.19 38.79 34.96 38.31 36.72 C 37.75 36.51 36.65 36.09 36.10 35.88 C 35.86 33.10 36.03 30.31 36.00 27.53 Z" />
</g>
<g id="#000000ff">
<path fill="#968176" opacity="1.00" d=" M 27.41 6.59 C 31.17 4.58 36.17 7.78 35.99 12.01 C 36.18 16.53 30.54 19.67 26.81 17.07 C 22.87 14.84 23.23 8.36 27.41 6.59 Z" />
<path fill="#968176" opacity="1.00" d=" M 49.15 16.07 C 51.11 15.38 52.18 17.31 52.04 19.01 C 52.01 23.99 56.85 27.73 55.83 32.84 C 55.02 34.73 51.99 34.13 52.12 31.99 C 51.68 28.02 48.64 24.95 48.24 20.97 C 48.13 19.33 47.42 17.13 49.15 16.07 Z" />
<path fill="#968176" opacity="1.00" d=" M 24.36 22.51 C 28.02 21.70 31.97 21.70 35.63 22.51 C 39.07 24.13 41.39 27.42 43.81 30.24 C 44.05 32.69 42.77 35.00 42.29 37.36 C 42.54 37.99 43.04 39.26 43.29 39.89 C 42.27 44.20 40.96 48.47 39.46 52.63 C 38.11 55.11 33.88 53.86 34.03 51.04 C 34.53 48.20 35.55 45.48 36.34 42.71 C 32.15 41.87 27.86 41.87 23.66 42.71 C 24.43 45.46 25.45 48.15 25.96 50.97 C 26.22 53.85 21.81 55.16 20.51 52.58 C 19.02 48.43 17.73 44.18 16.70 39.89 C 16.96 39.26 17.46 37.99 17.71 37.36 C 17.25 34.99 15.89 32.65 16.22 30.20 C 18.64 27.40 20.94 24.13 24.36 22.51 M 20.25 31.47 C 20.73 33.22 21.22 34.96 21.70 36.71 C 22.25 36.50 23.35 36.09 23.90 35.88 C 24.14 33.10 23.97 30.32 24.00 27.54 C 22.75 28.85 21.50 30.16 20.25 31.47 M 36.00 27.53 C 36.03 30.31 35.86 33.10 36.10 35.88 C 36.65 36.09 37.75 36.51 38.31 36.72 C 38.79 34.96 39.25 33.19 39.75 31.43 C 38.49 30.14 37.24 28.84 36.00 27.53 Z" />
<path fill="#968176" opacity="1.00" d=" M 5.21 24.07 C 7.65 23.32 8.31 26.09 8.04 27.92 C 7.80 29.95 8.91 33.55 6.03 34.05 C 3.44 33.83 4.07 30.74 3.95 28.96 C 4.15 27.32 3.46 25.06 5.21 24.07 Z" />
<path fill="#968176" opacity="1.00" d=" M 5.17 38.16 C 7.72 37.85 10.29 38.01 12.85 38.00 C 12.84 39.33 12.85 40.67 12.86 42.00 C 10.29 41.99 7.70 42.16 5.14 41.82 C 3.63 41.12 3.63 38.82 5.17 38.16 Z" />
<path fill="#968176" opacity="1.00" d=" M 47.15 38.00 C 49.71 38.01 52.29 37.85 54.83 38.17 C 56.35 38.85 56.35 41.09 54.88 41.82 C 52.31 42.15 49.71 41.99 47.13 42.00 C 47.15 40.67 47.15 39.33 47.15 38.00 Z" />
</g>
</svg>
