<?xml version="1.0" encoding="UTF-8" ?>
<!DOCTYPE svg PUBLIC "-//W3C//DTD SVG 1.1//EN" "http://www.w3.org/Graphics/SVG/1.1/DTD/svg11.dtd">
<svg width="60pt" height="60pt" viewBox="0 0 60 60" version="1.1" xmlns="http://www.w3.org/2000/svg">
<g id="#ffffffff">
<path fill="#ffffff" opacity="1.00" d=" M 0.00 0.00 L 60.00 0.00 L 60.00 60.00 L 0.00 60.00 L 0.00 0.00 M 30.20 6.14 C 23.23 7.81 22.87 19.21 29.48 21.65 C 33.68 23.23 37.72 19.14 37.97 15.09 C 38.73 10.66 35.14 5.10 30.20 6.14 M 14.65 11.42 C 15.76 12.30 16.87 13.19 17.96 14.11 C 21.04 13.04 21.53 9.75 22.52 7.07 C 19.75 8.24 17.09 9.66 14.65 11.42 M 40.94 8.67 C 41.31 10.10 41.81 11.50 42.49 12.81 C 42.99 11.99 43.55 11.21 44.17 10.47 C 43.10 9.87 42.02 9.27 40.94 8.67 M 6.37 19.14 C 10.39 23.34 15.52 26.28 19.65 30.37 C 19.83 30.77 20.20 31.57 20.38 31.97 C 19.29 36.45 17.62 40.79 17.16 45.42 C 12.14 41.03 9.35 34.31 10.10 27.64 C 8.92 26.67 7.73 25.72 6.52 24.78 C 4.56 33.84 8.19 43.82 15.75 49.24 C 23.15 54.94 33.79 55.38 41.90 50.90 C 38.06 43.94 39.26 35.17 43.75 28.80 C 46.14 24.70 50.15 21.93 52.80 18.05 C 51.18 16.47 49.56 14.88 47.93 13.32 C 41.93 17.21 36.67 23.46 28.94 23.43 C 21.86 23.86 17.22 17.87 11.76 14.47 C 9.38 14.98 8.15 17.64 6.37 19.14 M 49.87 27.27 C 50.68 33.69 48.22 40.13 43.72 44.69 C 44.19 46.01 44.65 47.32 45.12 48.64 C 52.35 42.84 55.59 32.81 53.21 23.84 C 52.09 24.98 50.97 26.12 49.87 27.27 Z" />
</g>
<g id="#000000ff">
<path fill="#000000" opacity="1.00" d=" M 30.20 6.14 C 35.14 5.10 38.73 10.66 37.97 15.09 C 37.72 19.14 33.68 23.23 29.48 21.65 C 22.87 19.21 23.23 7.81 30.20 6.14 Z" />
<path fill="#000000" opacity="1.00" d=" M 14.65 11.42 C 17.09 9.66 19.75 8.24 22.52 7.07 C 21.53 9.75 21.04 13.04 17.96 14.11 C 16.87 13.19 15.76 12.30 14.65 11.42 Z" />
<path fill="#000000" opacity="1.00" d=" M 40.94 8.67 C 42.02 9.27 43.10 9.87 44.17 10.47 C 43.55 11.21 42.99 11.99 42.49 12.81 C 41.81 11.50 41.31 10.10 40.94 8.67 Z" />
<path fill="#000000" opacity="1.00" d=" M 6.37 19.14 C 8.15 17.64 9.38 14.98 11.76 14.47 C 17.22 17.87 21.86 23.86 28.94 23.43 C 36.67 23.46 41.93 17.21 47.93 13.32 C 49.56 14.88 51.18 16.47 52.80 18.05 C 50.15 21.93 46.14 24.70 43.75 28.80 C 39.26 35.17 38.06 43.94 41.90 50.90 C 33.79 55.38 23.15 54.94 15.75 49.24 C 8.19 43.82 4.56 33.84 6.52 24.78 C 7.73 25.72 8.92 26.67 10.10 27.64 C 9.35 34.31 12.14 41.03 17.16 45.42 C 17.62 40.79 19.29 36.45 20.38 31.97 C 20.20 31.57 19.83 30.77 19.65 30.37 C 15.52 26.28 10.39 23.34 6.37 19.14 Z" />
<path fill="#000000" opacity="1.00" d=" M 49.87 27.27 C 50.97 26.12 52.09 24.98 53.21 23.84 C 55.59 32.81 52.35 42.84 45.12 48.64 C 44.65 47.32 44.19 46.01 43.72 44.69 C 48.22 40.13 50.68 33.69 49.87 27.27 Z" />
</g>
</svg>
