<?xml version="1.0" encoding="UTF-8" ?>
<!DOCTYPE svg PUBLIC "-//W3C//DTD SVG 1.1//EN" "http://www.w3.org/Graphics/SVG/1.1/DTD/svg11.dtd">
<svg width="60pt" height="60pt" viewBox="0 0 60 60" version="1.1" xmlns="http://www.w3.org/2000/svg">
<g id="#ffffffff">
<path fill="#ffffff" opacity="1.00" d=" M 0.00 0.00 L 60.00 0.00 L 60.00 60.00 L 0.00 60.00 L 0.00 0.00 M 25.18 8.46 C 23.22 9.14 21.27 9.87 19.36 10.66 C 18.53 9.55 17.70 8.44 16.86 7.33 C 15.02 9.01 14.85 11.44 15.05 13.78 C 13.71 15.33 12.40 16.92 11.16 18.56 C 9.82 18.04 8.50 17.49 7.20 16.90 C 6.59 19.31 7.57 21.50 8.93 23.44 C 8.55 25.46 8.22 27.50 7.95 29.55 C 6.56 29.71 5.16 29.88 3.77 30.05 C 4.32 32.47 6.35 33.83 8.46 34.82 C 9.14 36.78 9.87 38.72 10.66 40.63 C 9.55 41.47 8.43 42.30 7.33 43.15 C 9.04 44.98 11.48 45.14 13.83 44.95 C 15.35 46.29 16.92 47.60 18.53 48.83 C 18.05 50.20 17.53 51.55 16.98 52.89 C 19.36 53.33 21.53 52.41 23.44 51.06 C 25.46 51.45 27.50 51.77 29.54 52.05 C 29.71 53.44 29.88 54.84 30.05 56.23 C 32.46 55.66 33.84 53.66 34.81 51.54 C 36.77 50.85 38.71 50.12 40.64 49.34 C 41.46 50.45 42.30 51.56 43.14 52.66 C 44.96 50.97 45.15 48.56 44.94 46.23 C 46.28 44.66 47.59 43.08 48.84 41.45 C 50.18 41.95 51.51 42.48 52.83 43.04 C 53.36 40.65 52.42 38.47 51.06 36.55 C 51.45 34.53 51.77 32.49 52.05 30.45 C 53.44 30.29 54.83 30.12 56.23 29.95 C 55.67 27.53 53.65 26.16 51.54 25.18 C 50.86 23.22 50.12 21.28 49.34 19.35 C 50.46 18.53 51.57 17.70 52.68 16.86 C 50.99 15.04 48.59 14.84 46.25 15.05 C 44.68 13.73 43.09 12.42 41.46 11.16 C 41.95 9.81 42.47 8.46 43.04 7.13 C 40.65 6.65 38.46 7.57 36.55 8.94 C 34.53 8.55 32.50 8.23 30.46 7.95 C 30.29 6.56 30.12 5.16 29.95 3.77 C 27.51 4.31 26.17 6.36 25.18 8.46 Z" />
<path fill="#ffffff" opacity="1.00" d=" M 28.34 26.39 C 31.42 24.64 35.30 28.51 33.63 31.60 C 32.70 33.83 29.62 34.79 27.69 33.23 C 25.15 31.66 25.63 27.50 28.34 26.39 Z" />
<path fill="#ffffff" opacity="1.00" d=" M 17.14 28.10 C 19.58 27.10 21.16 30.83 18.78 31.90 C 16.38 32.82 14.91 29.25 17.14 28.10 Z" />
<path fill="#ffffff" opacity="1.00" d=" M 41.24 28.17 C 43.56 27.07 45.13 30.83 42.86 31.88 C 40.47 32.98 38.76 29.07 41.24 28.17 Z" />
</g>
<g id="#000000ff">
<path fill="#968176" opacity="1.00" d=" M 25.18 8.46 C 26.17 6.36 27.51 4.31 29.95 3.77 C 30.12 5.16 30.29 6.56 30.46 7.95 C 32.50 8.23 34.53 8.55 36.55 8.94 C 38.46 7.57 40.65 6.65 43.04 7.13 C 42.47 8.46 41.95 9.81 41.46 11.16 C 43.09 12.42 44.68 13.73 46.25 15.05 C 48.59 14.84 50.99 15.04 52.68 16.86 C 51.57 17.70 50.46 18.53 49.34 19.35 C 50.12 21.28 50.86 23.22 51.54 25.18 C 53.65 26.16 55.67 27.53 56.23 29.95 C 54.83 30.12 53.44 30.29 52.05 30.45 C 51.77 32.49 51.45 34.53 51.06 36.55 C 52.42 38.47 53.36 40.65 52.83 43.04 C 51.51 42.48 50.18 41.95 48.84 41.45 C 47.59 43.08 46.28 44.66 44.94 46.23 C 45.15 48.56 44.96 50.97 43.14 52.66 C 42.30 51.56 41.46 50.45 40.64 49.34 C 38.71 50.12 36.77 50.85 34.81 51.54 C 33.84 53.66 32.46 55.66 30.05 56.23 C 29.88 54.84 29.71 53.44 29.54 52.05 C 27.50 51.77 25.46 51.45 23.44 51.06 C 21.53 52.41 19.36 53.33 16.98 52.89 C 17.53 51.55 18.05 50.20 18.53 48.83 C 16.92 47.60 15.35 46.29 13.83 44.95 C 11.48 45.14 9.04 44.98 7.33 43.15 C 8.43 42.30 9.55 41.47 10.66 40.63 C 9.87 38.72 9.14 36.78 8.46 34.82 C 6.35 33.83 4.32 32.47 3.77 30.05 C 5.16 29.88 6.56 29.71 7.95 29.55 C 8.22 27.50 8.55 25.46 8.93 23.44 C 7.57 21.50 6.59 19.31 7.20 16.90 C 8.50 17.49 9.82 18.04 11.16 18.56 C 12.40 16.92 13.71 15.33 15.05 13.78 C 14.85 11.44 15.02 9.01 16.86 7.33 C 17.70 8.44 18.53 9.55 19.36 10.66 C 21.27 9.87 23.22 9.14 25.18 8.46 M 28.34 26.39 C 25.63 27.50 25.15 31.66 27.69 33.23 C 29.62 34.79 32.70 33.83 33.63 31.60 C 35.30 28.51 31.42 24.64 28.34 26.39 M 17.14 28.10 C 14.91 29.25 16.38 32.82 18.78 31.90 C 21.16 30.83 19.58 27.10 17.14 28.10 M 41.24 28.17 C 38.76 29.07 40.47 32.98 42.86 31.88 C 45.13 30.83 43.56 27.07 41.24 28.17 Z" />
</g>
</svg>
