<?xml version="1.0" encoding="UTF-8" ?>
<!DOCTYPE svg PUBLIC "-//W3C//DTD SVG 1.1//EN" "http://www.w3.org/Graphics/SVG/1.1/DTD/svg11.dtd">
<svg width="64pt" height="64pt" viewBox="0 0 64 64" version="1.1" xmlns="http://www.w3.org/2000/svg">
<g id="#ffffffff">
<path fill="#ffffff" opacity="1.00" d=" M 0.00 0.00 L 64.00 0.00 L 64.00 64.00 L 0.00 64.00 L 0.00 0.00 M 4.91 38.88 C 2.08 40.86 1.19 45.05 3.10 47.95 C 5.34 51.36 7.83 54.60 10.13 57.96 C 11.79 60.81 15.23 62.83 18.53 61.64 C 22.06 60.01 24.86 57.21 28.01 54.99 C 28.00 52.66 28.00 50.34 28.00 48.01 C 28.50 48.01 29.50 47.99 30.00 47.99 C 30.00 46.66 30.00 45.33 30.00 44.00 C 31.33 44.00 32.67 44.00 34.00 44.00 C 34.00 42.67 34.00 41.33 34.00 40.00 C 35.33 40.00 36.67 40.00 38.00 40.00 C 38.00 38.67 38.00 37.33 38.00 36.00 C 39.33 36.00 40.67 36.00 42.00 36.00 C 42.00 34.67 42.00 33.33 42.00 32.00 C 43.33 32.00 44.67 32.00 46.00 32.00 C 46.00 30.67 46.00 29.33 46.00 28.00 C 47.33 28.00 48.67 28.00 50.00 28.00 C 50.00 26.67 50.00 25.33 50.00 24.00 C 51.33 24.00 52.67 24.00 54.00 24.00 C 54.00 22.67 54.00 21.33 54.00 20.00 C 55.33 20.00 56.67 20.00 58.00 20.00 C 58.00 18.67 58.00 17.33 58.00 16.00 C 59.33 16.00 60.67 16.00 62.00 16.00 C 62.00 13.73 62.00 11.47 61.99 9.20 C 60.01 6.82 58.02 4.45 56.00 2.11 C 38.98 14.37 22.02 26.73 4.91 38.88 Z" />
<path fill="#ffffff" opacity="1.00" d=" M 20.88 32.37 C 32.37 24.12 43.86 15.85 55.32 7.55 C 56.49 8.89 57.69 10.26 58.27 11.98 C 56.85 12.00 55.42 12.00 54.00 12.01 C 54.00 13.34 54.00 14.67 54.00 16.00 C 52.67 16.00 51.33 16.00 50.00 16.00 C 50.00 17.33 50.00 18.67 50.00 20.00 C 48.67 20.00 47.33 20.00 46.00 20.00 C 46.00 21.33 46.00 22.67 46.00 24.00 C 44.67 24.00 43.33 24.00 42.00 24.00 C 42.00 25.33 42.00 26.67 42.00 28.00 C 40.67 28.00 39.33 28.00 38.00 28.00 C 38.00 29.33 38.00 30.67 38.00 32.00 C 36.67 32.00 35.33 32.00 34.00 32.00 C 34.00 33.33 34.00 34.67 34.00 36.00 C 32.67 36.00 31.33 36.00 30.00 36.00 C 30.00 37.33 30.00 38.66 30.00 40.00 C 29.24 40.00 27.72 40.01 26.96 40.01 C 24.91 37.48 22.87 34.94 20.88 32.37 Z" />
<path fill="#ffffff" opacity="1.00" d=" M 7.71 41.75 C 10.96 39.30 14.37 37.08 17.65 34.69 C 19.66 37.48 22.19 39.92 23.92 42.90 C 24.16 46.26 23.93 49.63 24.00 52.99 C 21.18 54.65 18.81 58.27 15.25 57.85 C 11.97 54.02 9.24 49.72 6.39 45.56 C 5.34 44.20 6.54 42.53 7.71 41.75 M 10.37 45.18 C 12.36 47.83 14.36 50.48 16.33 53.15 C 17.43 52.38 18.54 51.62 19.66 50.86 C 17.66 48.18 15.64 45.50 13.63 42.82 C 12.55 43.61 11.46 44.39 10.37 45.18 Z" />
</g>
<g id="#000000ff">
<path fill="#000000" opacity="1.00" d=" M 4.91 38.88 C 22.02 26.73 38.98 14.37 56.00 2.11 C 58.02 4.45 60.01 6.82 61.99 9.20 C 62.00 11.47 62.00 13.73 62.00 16.00 C 60.67 16.00 59.33 16.00 58.00 16.00 C 58.00 17.33 58.00 18.67 58.00 20.00 C 56.67 20.00 55.33 20.00 54.00 20.00 C 54.00 21.33 54.00 22.67 54.00 24.00 C 52.67 24.00 51.33 24.00 50.00 24.00 C 50.00 25.33 50.00 26.67 50.00 28.00 C 48.67 28.00 47.33 28.00 46.00 28.00 C 46.00 29.33 46.00 30.67 46.00 32.00 C 44.67 32.00 43.33 32.00 42.00 32.00 C 42.00 33.33 42.00 34.67 42.00 36.00 C 40.67 36.00 39.33 36.00 38.00 36.00 C 38.00 37.33 38.00 38.67 38.00 40.00 C 36.67 40.00 35.33 40.00 34.00 40.00 C 34.00 41.33 34.00 42.67 34.00 44.00 C 32.67 44.00 31.33 44.00 30.00 44.00 C 30.00 45.33 30.00 46.66 30.00 47.99 C 29.50 47.99 28.50 48.01 28.00 48.01 C 28.00 50.34 28.00 52.66 28.01 54.99 C 24.86 57.21 22.06 60.01 18.53 61.64 C 15.23 62.83 11.79 60.81 10.13 57.96 C 7.83 54.60 5.34 51.36 3.10 47.95 C 1.19 45.05 2.08 40.86 4.91 38.88 M 20.88 32.37 C 22.87 34.94 24.91 37.48 26.96 40.01 C 27.72 40.01 29.24 40.00 30.00 40.00 C 30.00 38.66 30.00 37.33 30.00 36.00 C 31.33 36.00 32.67 36.00 34.00 36.00 C 34.00 34.67 34.00 33.33 34.00 32.00 C 35.33 32.00 36.67 32.00 38.00 32.00 C 38.00 30.67 38.00 29.33 38.00 28.00 C 39.33 28.00 40.67 28.00 42.00 28.00 C 42.00 26.67 42.00 25.33 42.00 24.00 C 43.33 24.00 44.67 24.00 46.00 24.00 C 46.00 22.67 46.00 21.33 46.00 20.00 C 47.33 20.00 48.67 20.00 50.00 20.00 C 50.00 18.67 50.00 17.33 50.00 16.00 C 51.33 16.00 52.67 16.00 54.00 16.00 C 54.00 14.67 54.00 13.34 54.00 12.01 C 55.42 12.00 56.85 12.00 58.27 11.98 C 57.69 10.26 56.49 8.89 55.32 7.55 C 43.86 15.85 32.37 24.12 20.88 32.37 M 7.71 41.75 C 6.54 42.53 5.34 44.20 6.39 45.56 C 9.24 49.72 11.97 54.02 15.25 57.85 C 18.81 58.27 21.18 54.65 24.00 52.99 C 23.93 49.63 24.16 46.26 23.92 42.90 C 22.19 39.92 19.66 37.48 17.65 34.69 C 14.37 37.08 10.96 39.30 7.71 41.75 Z" />
<path fill="#000000" opacity="1.00" d=" M 10.37 45.18 C 11.46 44.39 12.55 43.61 13.63 42.82 C 15.64 45.50 17.66 48.18 19.66 50.86 C 18.54 51.62 17.43 52.38 16.33 53.15 C 14.36 50.48 12.36 47.83 10.37 45.18 Z" />
</g>
</svg>
