<?xml version="1.0" encoding="UTF-8" ?>
<!DOCTYPE svg PUBLIC "-//W3C//DTD SVG 1.1//EN" "http://www.w3.org/Graphics/SVG/1.1/DTD/svg11.dtd">
<svg width="64pt" height="64pt" viewBox="0 0 64 64" version="1.1" xmlns="http://www.w3.org/2000/svg">
<g id="#ffffffff">
<path fill="#ffffff" opacity="1.00" d=" M 0.00 0.00 L 64.00 0.00 L 64.00 64.00 L 0.00 64.00 L 0.00 0.00 M 4.00 12.00 C 4.00 25.33 4.00 38.67 4.00 52.00 C 22.67 52.00 41.33 52.00 60.00 52.00 C 60.00 38.67 60.00 25.33 60.00 12.00 C 41.33 12.00 22.67 12.00 4.00 12.00 Z" />
<path fill="#ffffff" opacity="1.00" d=" M 8.00 16.00 C 10.50 16.00 15.50 16.00 18.00 16.00 C 18.00 18.50 18.00 23.50 18.00 26.00 C 15.50 26.00 10.50 26.00 8.00 26.00 C 8.00 23.50 8.00 18.50 8.00 16.00 Z" />
<path fill="#ffffff" opacity="1.00" d=" M 21.69 29.77 C 22.02 25.03 22.15 20.27 22.75 15.54 C 23.28 20.32 23.79 25.09 24.23 29.87 C 34.99 29.97 45.77 29.89 56.50 30.83 C 45.78 31.92 35.01 32.08 24.24 32.11 C 23.92 37.55 23.58 42.99 23.10 48.42 C 22.59 43.05 22.14 37.67 21.77 32.28 C 17.03 31.97 12.27 31.84 7.55 31.26 C 12.26 30.71 16.97 30.21 21.69 29.77 Z" />
<path fill="#ffffff" opacity="1.00" d=" M 28.00 16.00 C 37.33 16.00 46.67 16.00 56.00 16.00 C 56.00 18.50 56.00 23.50 56.00 26.00 C 46.67 26.00 37.33 25.99 28.00 26.00 C 28.00 23.50 28.00 18.50 28.00 16.00 Z" />
<path fill="#ffffff" opacity="1.00" d=" M 8.00 36.00 C 10.50 36.00 15.50 36.00 18.00 36.00 C 18.00 40.00 18.00 44.00 18.00 48.00 C 15.50 48.00 10.50 48.00 8.00 48.00 C 8.00 44.00 8.00 40.00 8.00 36.00 Z" />
<path fill="#ffffff" opacity="1.00" d=" M 28.00 36.00 C 37.33 36.00 46.67 36.00 56.00 36.00 C 56.00 40.00 56.00 44.00 56.00 48.00 C 46.67 48.00 37.33 47.99 28.00 48.00 C 28.00 44.00 28.00 40.00 28.00 36.00 Z" />
</g>
<g id="#000000ff">
<path fill="#000000" opacity="1.00" d=" M 4.00 12.00 C 22.67 12.00 41.33 12.00 60.00 12.00 C 60.00 25.33 60.00 38.67 60.00 52.00 C 41.33 52.00 22.67 52.00 4.00 52.00 C 4.00 38.67 4.00 25.33 4.00 12.00 M 8.00 16.00 C 8.00 18.50 8.00 23.50 8.00 26.00 C 10.50 26.00 15.50 26.00 18.00 26.00 C 18.00 23.50 18.00 18.50 18.00 16.00 C 15.50 16.00 10.50 16.00 8.00 16.00 M 21.69 29.77 C 16.97 30.21 12.26 30.71 7.55 31.26 C 12.27 31.84 17.03 31.97 21.77 32.28 C 22.14 37.67 22.59 43.05 23.10 48.42 C 23.58 42.99 23.92 37.55 24.24 32.11 C 35.01 32.08 45.78 31.92 56.50 30.83 C 45.77 29.89 34.99 29.97 24.23 29.87 C 23.79 25.09 23.28 20.32 22.75 15.54 C 22.15 20.27 22.02 25.03 21.69 29.77 M 28.00 16.00 C 28.00 18.50 28.00 23.50 28.00 26.00 C 37.33 25.99 46.67 26.00 56.00 26.00 C 56.00 23.50 56.00 18.50 56.00 16.00 C 46.67 16.00 37.33 16.00 28.00 16.00 M 8.00 36.00 C 8.00 40.00 8.00 44.00 8.00 48.00 C 10.50 48.00 15.50 48.00 18.00 48.00 C 18.00 44.00 18.00 40.00 18.00 36.00 C 15.50 36.00 10.50 36.00 8.00 36.00 M 28.00 36.00 C 28.00 40.00 28.00 44.00 28.00 48.00 C 37.33 47.99 46.67 48.00 56.00 48.00 C 56.00 44.00 56.00 40.00 56.00 36.00 C 46.67 36.00 37.33 36.00 28.00 36.00 Z" />
</g>
</svg>
