<?xml version="1.0" encoding="UTF-8" ?>
<!DOCTYPE svg PUBLIC "-//W3C//DTD SVG 1.1//EN" "http://www.w3.org/Graphics/SVG/1.1/DTD/svg11.dtd">
<svg width="64pt" height="64pt" viewBox="0 0 64 64" version="1.1" xmlns="http://www.w3.org/2000/svg">
<g id="#ffffffff">
<path fill="#ffffff" opacity="1.00" d=" M 0.00 0.00 L 64.00 0.00 L 64.00 64.00 L 0.00 64.00 L 0.00 0.00 M 13.29 10.35 C 11.38 14.92 9.85 19.93 10.13 24.93 C 11.61 29.34 16.51 31.10 20.33 33.02 C 14.57 36.54 11.41 42.85 9.84 49.22 C 12.58 50.30 15.38 51.20 18.23 51.89 C 18.21 53.08 18.20 54.27 18.21 55.47 C 23.84 57.92 29.83 59.46 35.95 60.03 C 35.78 52.14 37.64 43.89 42.98 37.84 C 45.00 37.93 47.01 37.97 49.03 38.03 C 52.30 33.58 55.05 28.76 57.26 23.69 C 56.00 23.80 54.74 23.92 53.49 24.04 C 56.04 19.93 57.16 14.25 53.69 10.30 C 47.90 3.55 38.03 3.73 29.91 4.25 C 24.12 4.88 17.16 5.41 13.29 10.35 Z" />
<path fill="#ffffff" opacity="1.00" d=" M 16.19 12.84 C 19.49 9.46 24.44 8.89 28.90 8.36 C 34.63 7.95 40.66 7.49 46.14 9.60 C 48.89 10.67 51.67 12.89 51.99 16.03 C 51.92 18.99 50.11 21.47 48.69 23.93 C 47.04 23.85 45.40 23.83 43.75 23.76 C 45.61 21.18 47.23 17.16 44.50 14.56 C 40.44 11.28 34.75 11.99 29.89 12.34 C 25.93 12.52 22.23 14.10 18.41 14.86 C 17.86 14.35 16.74 13.34 16.19 12.84 Z" />
<path fill="#ffffff" opacity="1.00" d=" M 23.10 17.66 C 29.24 16.18 35.92 15.03 42.03 17.23 C 41.92 19.58 40.27 21.29 38.83 22.98 C 33.38 21.89 28.04 20.22 23.10 17.66 Z" />
<path fill="#ffffff" opacity="1.00" d=" M 15.01 17.46 C 25.56 24.24 37.89 28.08 50.46 28.18 C 49.34 30.12 48.16 32.02 46.94 33.89 C 37.40 33.53 27.60 32.35 18.96 28.01 C 17.13 26.97 15.09 25.92 14.02 24.01 C 14.01 21.79 14.57 19.62 15.01 17.46 Z" />
<path fill="#ffffff" opacity="1.00" d=" M 14.98 46.68 C 16.90 41.21 20.82 35.87 26.89 34.85 C 23.27 38.50 20.44 42.89 19.02 47.86 C 17.67 47.47 16.33 47.07 14.98 46.68 Z" />
<path fill="#ffffff" opacity="1.00" d=" M 22.34 52.84 C 22.54 46.18 26.35 40.07 31.82 36.41 C 34.01 36.77 36.21 37.10 38.41 37.42 C 34.94 42.81 32.79 49.00 32.26 55.39 C 28.89 54.80 25.57 53.97 22.34 52.84 Z" />
</g>
<g id="#000000ff">
<path fill="#000000" opacity="1.00" d=" M 13.29 10.35 C 17.16 5.41 24.12 4.88 29.91 4.25 C 38.03 3.73 47.90 3.55 53.69 10.30 C 57.16 14.25 56.04 19.93 53.49 24.04 C 54.74 23.92 56.00 23.80 57.26 23.69 C 55.05 28.76 52.30 33.58 49.03 38.03 C 47.01 37.97 45.00 37.93 42.98 37.84 C 37.64 43.89 35.78 52.14 35.95 60.03 C 29.83 59.46 23.84 57.92 18.21 55.47 C 18.20 54.27 18.21 53.08 18.23 51.89 C 15.38 51.20 12.58 50.30 9.84 49.22 C 11.41 42.85 14.57 36.54 20.33 33.02 C 16.51 31.10 11.61 29.34 10.13 24.93 C 9.85 19.93 11.38 14.92 13.29 10.35 M 16.19 12.84 C 16.74 13.34 17.86 14.35 18.41 14.86 C 22.23 14.10 25.93 12.52 29.89 12.34 C 34.75 11.99 40.44 11.28 44.50 14.56 C 47.23 17.16 45.61 21.18 43.75 23.76 C 45.40 23.83 47.04 23.85 48.69 23.93 C 50.11 21.47 51.92 18.99 51.99 16.03 C 51.67 12.89 48.89 10.67 46.14 9.60 C 40.66 7.49 34.63 7.95 28.90 8.36 C 24.44 8.89 19.49 9.46 16.19 12.84 M 23.10 17.66 C 28.04 20.22 33.38 21.89 38.83 22.98 C 40.27 21.29 41.92 19.58 42.03 17.23 C 35.92 15.03 29.24 16.18 23.10 17.66 M 15.01 17.46 C 14.57 19.62 14.01 21.79 14.02 24.01 C 15.09 25.92 17.13 26.97 18.96 28.01 C 27.60 32.35 37.40 33.53 46.94 33.89 C 48.16 32.02 49.34 30.12 50.46 28.18 C 37.89 28.08 25.56 24.24 15.01 17.46 M 14.98 46.68 C 16.33 47.07 17.67 47.47 19.02 47.86 C 20.44 42.89 23.27 38.50 26.89 34.85 C 20.82 35.87 16.90 41.21 14.98 46.68 M 22.34 52.84 C 25.57 53.97 28.89 54.80 32.26 55.39 C 32.79 49.00 34.94 42.81 38.41 37.42 C 36.21 37.10 34.01 36.77 31.82 36.41 C 26.35 40.07 22.54 46.18 22.34 52.84 Z" />
</g>
</svg>
