<?xml version="1.0" encoding="UTF-8" ?>
<!DOCTYPE svg PUBLIC "-//W3C//DTD SVG 1.1//EN" "http://www.w3.org/Graphics/SVG/1.1/DTD/svg11.dtd">
<svg width="64pt" height="64pt" viewBox="0 0 64 64" version="1.1" xmlns="http://www.w3.org/2000/svg">
<g id="#ffffffff">
<path fill="#ffffff" opacity="1.00" d=" M 0.00 0.00 L 64.00 0.00 L 64.00 64.00 L 0.00 64.00 L 0.00 0.00 M 4.05 21.81 C 3.96 28.59 3.96 35.38 4.05 42.16 C 4.00 45.26 6.79 47.99 9.87 47.96 C 26.90 48.06 43.92 47.97 60.94 48.00 C 59.42 43.87 57.56 39.87 56.15 35.70 C 55.67 30.80 56.32 25.85 55.86 20.95 C 55.43 17.80 52.21 15.66 49.13 16.00 C 36.05 16.03 22.96 15.94 9.88 16.04 C 6.80 15.99 4.02 18.73 4.05 21.81 Z" />
<path fill="#ffffff" opacity="1.00" d=" M 9.21 20.14 C 22.15 19.80 35.11 20.11 48.06 19.99 C 49.35 20.10 51.13 19.67 51.83 21.14 C 52.32 26.17 51.73 31.25 52.09 36.30 C 52.79 38.96 54.05 41.43 55.00 44.00 C 39.73 43.90 24.44 44.21 9.18 43.85 C 8.92 43.60 8.41 43.10 8.16 42.85 C 7.89 35.63 7.88 28.35 8.16 21.13 C 8.43 20.88 8.95 20.39 9.21 20.14 M 16.00 24.00 C 16.00 26.00 16.00 28.00 16.00 30.00 C 17.33 30.00 18.67 30.00 20.00 30.00 C 20.00 28.00 20.00 26.00 20.00 24.00 C 18.67 24.00 17.33 24.00 16.00 24.00 M 24.00 24.00 C 24.00 26.00 24.00 28.00 24.00 30.00 C 25.33 30.00 26.67 30.00 28.00 30.00 C 28.00 28.00 28.00 26.00 28.00 24.00 C 26.67 24.00 25.33 24.00 24.00 24.00 M 32.00 24.00 C 32.00 26.00 32.00 28.00 32.00 30.00 C 33.33 30.00 34.67 30.00 36.00 30.00 C 36.00 28.00 36.00 26.00 36.00 24.00 C 34.67 24.00 33.33 24.00 32.00 24.00 M 40.00 24.00 C 40.00 26.00 40.00 28.00 40.00 30.00 C 41.33 30.00 42.67 30.00 44.00 30.00 C 44.00 28.00 44.00 26.00 44.00 24.00 C 42.67 24.00 41.33 24.00 40.00 24.00 M 12.00 34.00 C 12.00 36.00 12.00 38.00 12.00 40.00 C 13.33 40.00 14.67 40.00 16.00 40.00 C 16.00 38.00 16.00 36.00 16.00 34.00 C 14.67 34.00 13.33 34.00 12.00 34.00 M 20.00 34.00 C 20.00 36.00 20.00 38.00 20.00 40.00 C 21.33 40.00 22.67 40.00 24.00 40.00 C 24.00 38.00 24.00 36.00 24.00 34.00 C 22.67 34.00 21.33 34.00 20.00 34.00 M 28.00 34.00 C 28.00 36.00 28.00 38.00 28.00 40.00 C 29.33 40.00 30.67 40.00 32.00 40.00 C 32.00 38.00 32.00 36.00 32.00 34.00 C 30.67 34.00 29.33 34.00 28.00 34.00 M 36.00 34.00 C 36.00 36.00 36.00 38.00 36.00 40.00 C 37.33 40.00 38.67 40.00 40.00 40.00 C 40.00 38.00 40.00 36.00 40.00 34.00 C 38.67 34.00 37.33 34.00 36.00 34.00 M 44.00 34.00 C 44.00 36.00 44.00 38.00 44.00 40.00 C 45.33 40.00 46.67 40.00 48.00 40.00 C 48.00 38.00 48.00 36.00 48.00 34.00 C 46.67 34.00 45.33 34.00 44.00 34.00 Z" />
</g>
<g id="#000000ff">
<path fill="#000000" opacity="1.00" d=" M 4.05 21.81 C 4.02 18.73 6.80 15.99 9.88 16.04 C 22.96 15.94 36.05 16.03 49.13 16.00 C 52.21 15.66 55.43 17.80 55.86 20.95 C 56.32 25.85 55.67 30.80 56.15 35.70 C 57.56 39.87 59.42 43.87 60.94 48.00 C 43.92 47.97 26.90 48.06 9.87 47.96 C 6.79 47.99 4.00 45.26 4.05 42.16 C 3.96 35.38 3.96 28.59 4.05 21.81 M 9.21 20.14 C 8.95 20.39 8.43 20.88 8.16 21.13 C 7.88 28.35 7.89 35.63 8.16 42.85 C 8.41 43.10 8.92 43.60 9.18 43.85 C 24.44 44.21 39.73 43.90 55.00 44.00 C 54.05 41.43 52.79 38.96 52.09 36.30 C 51.73 31.25 52.32 26.17 51.83 21.14 C 51.13 19.67 49.35 20.10 48.06 19.99 C 35.11 20.11 22.15 19.80 9.21 20.14 Z" />
<path fill="#000000" opacity="1.00" d=" M 16.00 24.00 C 17.33 24.00 18.67 24.00 20.00 24.00 C 20.00 26.00 20.00 28.00 20.00 30.00 C 18.67 30.00 17.33 30.00 16.00 30.00 C 16.00 28.00 16.00 26.00 16.00 24.00 Z" />
<path fill="#000000" opacity="1.00" d=" M 24.00 24.00 C 25.33 24.00 26.67 24.00 28.00 24.00 C 28.00 26.00 28.00 28.00 28.00 30.00 C 26.67 30.00 25.33 30.00 24.00 30.00 C 24.00 28.00 24.00 26.00 24.00 24.00 Z" />
<path fill="#000000" opacity="1.00" d=" M 32.00 24.00 C 33.33 24.00 34.67 24.00 36.00 24.00 C 36.00 26.00 36.00 28.00 36.00 30.00 C 34.67 30.00 33.33 30.00 32.00 30.00 C 32.00 28.00 32.00 26.00 32.00 24.00 Z" />
<path fill="#000000" opacity="1.00" d=" M 40.00 24.00 C 41.33 24.00 42.67 24.00 44.00 24.00 C 44.00 26.00 44.00 28.00 44.00 30.00 C 42.67 30.00 41.33 30.00 40.00 30.00 C 40.00 28.00 40.00 26.00 40.00 24.00 Z" />
<path fill="#000000" opacity="1.00" d=" M 12.00 34.00 C 13.33 34.00 14.67 34.00 16.00 34.00 C 16.00 36.00 16.00 38.00 16.00 40.00 C 14.67 40.00 13.33 40.00 12.00 40.00 C 12.00 38.00 12.00 36.00 12.00 34.00 Z" />
<path fill="#000000" opacity="1.00" d=" M 20.00 34.00 C 21.33 34.00 22.67 34.00 24.00 34.00 C 24.00 36.00 24.00 38.00 24.00 40.00 C 22.67 40.00 21.33 40.00 20.00 40.00 C 20.00 38.00 20.00 36.00 20.00 34.00 Z" />
<path fill="#000000" opacity="1.00" d=" M 28.00 34.00 C 29.33 34.00 30.67 34.00 32.00 34.00 C 32.00 36.00 32.00 38.00 32.00 40.00 C 30.67 40.00 29.33 40.00 28.00 40.00 C 28.00 38.00 28.00 36.00 28.00 34.00 Z" />
<path fill="#000000" opacity="1.00" d=" M 36.00 34.00 C 37.33 34.00 38.67 34.00 40.00 34.00 C 40.00 36.00 40.00 38.00 40.00 40.00 C 38.67 40.00 37.33 40.00 36.00 40.00 C 36.00 38.00 36.00 36.00 36.00 34.00 Z" />
<path fill="#000000" opacity="1.00" d=" M 44.00 34.00 C 45.33 34.00 46.67 34.00 48.00 34.00 C 48.00 36.00 48.00 38.00 48.00 40.00 C 46.67 40.00 45.33 40.00 44.00 40.00 C 44.00 38.00 44.00 36.00 44.00 34.00 Z" />
</g>
</svg>
