<?xml version="1.0" encoding="UTF-8" ?>
<!DOCTYPE svg PUBLIC "-//W3C//DTD SVG 1.1//EN" "http://www.w3.org/Graphics/SVG/1.1/DTD/svg11.dtd">
<svg width="60pt" height="60pt" viewBox="0 0 60 60" version="1.1" xmlns="http://www.w3.org/2000/svg">
<g id="#ffffffff">
<path fill="#ffffff" opacity="1.00" d=" M 0.00 0.00 L 60.00 0.00 L 60.00 60.00 L 0.00 60.00 L 0.00 0.00 M 15.92 9.63 C 14.50 10.50 12.47 11.10 12.18 13.02 C 11.75 17.94 12.14 22.89 11.98 27.82 C 10.49 28.93 8.15 29.72 8.11 31.92 C 7.88 35.97 7.95 40.03 8.06 44.08 C 7.99 45.49 9.18 46.50 9.82 47.64 C 9.72 50.36 10.57 54.08 14.00 53.99 C 17.21 54.08 18.25 50.61 18.18 48.00 C 26.06 48.00 33.94 48.00 41.82 48.00 C 41.73 50.64 42.76 54.08 46.00 53.99 C 49.40 54.07 50.27 50.33 50.19 47.63 C 50.82 46.49 52.01 45.48 51.94 44.06 C 52.05 40.03 52.11 35.99 51.89 31.96 C 51.86 29.74 49.52 28.93 48.02 27.82 C 47.87 22.89 48.22 17.95 47.82 13.03 C 47.53 11.11 45.50 10.50 44.08 9.63 C 42.96 8.27 42.11 6.14 40.06 6.11 C 33.37 5.92 26.65 5.92 19.96 6.10 C 17.89 6.12 17.05 8.27 15.92 9.63 M 7.12 16.08 C 5.20 17.70 6.09 20.64 6.19 22.82 C 6.89 24.75 10.10 24.11 9.94 22.05 C 10.13 19.84 10.70 15.23 7.12 16.08 M 51.13 16.08 C 49.28 17.44 50.13 20.08 50.06 22.03 C 49.89 24.57 54.08 24.61 53.94 22.05 C 54.13 19.85 54.70 15.24 51.13 16.08 Z" />
<path fill="#ffffff" opacity="1.00" d=" M 21.16 8.17 C 26.76 7.82 32.40 7.99 38.01 8.07 C 40.09 7.89 40.73 10.97 38.88 11.82 C 33.27 12.19 27.62 12.00 21.99 11.93 C 19.91 12.14 19.24 8.94 21.16 8.17 Z" />
<path fill="#ffffff" opacity="1.00" d=" M 17.06 16.18 C 20.69 15.80 24.36 16.06 28.00 16.01 C 28.00 19.34 28.00 22.66 28.00 25.99 C 24.37 25.94 20.72 26.20 17.11 25.83 C 15.48 24.80 16.15 22.64 15.96 21.04 C 16.14 19.42 15.54 17.32 17.06 16.18 Z" />
<path fill="#ffffff" opacity="1.00" d=" M 32.00 16.01 C 35.62 16.06 39.25 15.79 42.86 16.17 C 44.49 17.22 43.84 19.39 44.04 21.00 C 43.85 22.61 44.51 24.76 42.91 25.82 C 39.29 26.21 35.63 25.94 32.00 25.99 C 32.00 22.66 32.00 19.34 32.00 16.01 Z" />
<path fill="#ffffff" opacity="1.00" d=" M 22.97 31.05 C 23.23 30.83 23.76 30.37 24.03 30.14 C 28.01 29.88 32.03 29.88 36.02 30.14 C 36.27 30.38 36.79 30.87 37.04 31.11 C 37.98 34.68 38.33 38.37 39.00 42.00 C 33.00 42.00 27.00 42.00 21.00 42.00 C 21.67 38.35 22.03 34.64 22.97 31.05 Z" />
<path fill="#ffffff" opacity="1.00" d=" M 13.11 38.16 C 14.76 37.85 18.01 37.52 17.93 39.99 C 18.14 42.11 15.43 42.20 13.95 41.97 C 11.89 42.10 11.31 38.99 13.11 38.16 Z" />
<path fill="#ffffff" opacity="1.00" d=" M 43.15 38.15 C 44.75 37.97 46.94 37.50 47.90 39.20 C 49.15 43.10 40.91 43.10 42.16 39.30 C 42.41 39.01 42.90 38.43 43.15 38.15 Z" />
</g>
<g id="#000000ff">
<path fill="#000000" opacity="1.00" d=" M 15.92 9.63 C 17.05 8.27 17.89 6.12 19.96 6.10 C 26.65 5.92 33.37 5.92 40.06 6.11 C 42.11 6.14 42.96 8.27 44.08 9.63 C 45.50 10.50 47.53 11.11 47.82 13.03 C 48.22 17.95 47.87 22.89 48.02 27.82 C 49.52 28.93 51.86 29.74 51.89 31.96 C 52.11 35.99 52.05 40.03 51.94 44.06 C 52.01 45.48 50.82 46.49 50.19 47.63 C 50.27 50.33 49.40 54.07 46.00 53.99 C 42.76 54.08 41.73 50.64 41.82 48.00 C 33.94 48.00 26.06 48.00 18.18 48.00 C 18.25 50.61 17.21 54.08 14.00 53.99 C 10.57 54.08 9.72 50.36 9.82 47.64 C 9.18 46.50 7.99 45.49 8.06 44.08 C 7.95 40.03 7.88 35.97 8.11 31.92 C 8.15 29.72 10.49 28.93 11.98 27.82 C 12.14 22.89 11.75 17.94 12.18 13.02 C 12.47 11.10 14.50 10.50 15.92 9.63 M 21.16 8.17 C 19.24 8.94 19.91 12.14 21.99 11.93 C 27.62 12.00 33.27 12.19 38.88 11.82 C 40.73 10.97 40.09 7.89 38.01 8.07 C 32.40 7.99 26.76 7.82 21.16 8.17 M 17.06 16.18 C 15.54 17.32 16.14 19.42 15.96 21.04 C 16.15 22.64 15.48 24.80 17.11 25.83 C 20.72 26.20 24.37 25.94 28.00 25.99 C 28.00 22.66 28.00 19.34 28.00 16.01 C 24.36 16.06 20.69 15.80 17.06 16.18 M 32.00 16.01 C 32.00 19.34 32.00 22.66 32.00 25.99 C 35.63 25.94 39.29 26.21 42.91 25.82 C 44.51 24.76 43.85 22.61 44.04 21.00 C 43.84 19.39 44.49 17.22 42.86 16.17 C 39.25 15.79 35.62 16.06 32.00 16.01 M 22.97 31.05 C 22.03 34.64 21.67 38.35 21.00 42.00 C 27.00 42.00 33.00 42.00 39.00 42.00 C 38.33 38.37 37.98 34.68 37.04 31.11 C 36.79 30.87 36.27 30.38 36.02 30.14 C 32.03 29.88 28.01 29.88 24.03 30.14 C 23.76 30.37 23.23 30.83 22.97 31.05 M 13.11 38.16 C 11.31 38.99 11.89 42.10 13.95 41.97 C 15.43 42.20 18.14 42.11 17.93 39.99 C 18.01 37.52 14.76 37.85 13.11 38.16 M 43.15 38.15 C 42.90 38.43 42.41 39.01 42.16 39.30 C 40.91 43.10 49.15 43.10 47.90 39.20 C 46.94 37.50 44.75 37.97 43.15 38.15 Z" />
<path fill="#000000" opacity="1.00" d=" M 7.12 16.08 C 10.70 15.23 10.13 19.84 9.94 22.05 C 10.10 24.11 6.89 24.75 6.19 22.82 C 6.09 20.64 5.20 17.70 7.12 16.08 Z" />
<path fill="#000000" opacity="1.00" d=" M 51.13 16.08 C 54.70 15.24 54.13 19.85 53.94 22.05 C 54.08 24.61 49.89 24.57 50.06 22.03 C 50.13 20.08 49.28 17.44 51.13 16.08 Z" />
</g>
</svg>
