<?xml version="1.0" encoding="UTF-8" ?>
<!DOCTYPE svg PUBLIC "-//W3C//DTD SVG 1.1//EN" "http://www.w3.org/Graphics/SVG/1.1/DTD/svg11.dtd">
<svg width="64pt" height="64pt" viewBox="0 0 64 64" version="1.1" xmlns="http://www.w3.org/2000/svg">
<g id="#ffffffff">
<path fill="#ffffff" opacity="1.00" d=" M 0.00 0.00 L 64.00 0.00 L 64.00 64.00 L 0.00 64.00 L 0.00 0.00 M 10.00 10.00 C 10.00 11.33 10.00 12.67 10.00 14.00 C 24.67 14.00 39.33 14.00 54.00 14.00 C 54.00 12.67 54.00 11.33 54.00 10.00 C 39.33 10.00 24.67 10.00 10.00 10.00 M 16.02 16.01 C 19.94 18.08 23.81 20.23 27.75 22.26 C 22.78 25.17 17.56 27.65 12.62 30.61 C 10.97 31.89 12.90 34.83 14.71 33.79 C 25.85 28.03 36.80 21.87 47.91 16.05 C 45.07 16.06 42.21 15.84 39.38 16.10 C 36.85 17.30 34.48 18.81 31.97 20.06 C 29.51 18.80 27.14 17.38 24.65 16.18 C 21.81 15.73 18.89 16.13 16.02 16.01 M 33.96 25.65 C 37.20 27.39 40.44 29.13 43.68 30.87 C 45.10 30.12 46.52 29.37 47.93 28.61 C 44.75 26.75 41.43 25.13 38.18 23.39 C 36.78 24.16 35.37 24.91 33.96 25.65 M 49.29 30.19 C 43.48 33.14 37.85 36.44 32.05 39.42 C 28.18 37.24 24.20 35.24 20.29 33.12 C 18.88 33.88 17.49 34.69 16.12 35.53 C 20.07 37.46 23.90 39.61 27.80 41.65 C 23.98 43.85 20.10 45.93 16.16 47.88 C 19.69 47.73 23.66 48.95 26.81 46.85 C 34.76 42.39 42.89 38.23 50.84 33.76 C 53.18 32.92 51.48 28.96 49.29 30.19 M 34.10 45.00 C 36.02 45.97 37.84 47.14 39.83 47.96 C 42.59 48.10 45.36 47.95 48.12 47.99 C 44.77 46.32 41.59 44.33 38.18 42.77 C 36.83 43.53 35.48 44.29 34.10 45.00 M 10.00 50.00 C 10.00 51.33 10.00 52.67 10.00 54.00 C 24.67 54.00 39.33 54.00 54.00 54.00 C 54.00 52.67 54.00 51.33 54.00 50.00 C 39.33 50.00 24.67 50.00 10.00 50.00 Z" />
</g>
<g id="#000000ff">
<path fill="#000000" opacity="1.00" d=" M 10.00 10.00 C 24.67 10.00 39.33 10.00 54.00 10.00 C 54.00 11.33 54.00 12.67 54.00 14.00 C 39.33 14.00 24.67 14.00 10.00 14.00 C 10.00 12.67 10.00 11.33 10.00 10.00 Z" />
<path fill="#000000" opacity="1.00" d=" M 16.02 16.01 C 18.89 16.13 21.81 15.73 24.65 16.18 C 27.14 17.38 29.51 18.80 31.97 20.06 C 34.48 18.81 36.85 17.30 39.38 16.10 C 42.21 15.84 45.07 16.06 47.91 16.05 C 36.80 21.87 25.85 28.03 14.71 33.79 C 12.90 34.83 10.97 31.89 12.62 30.61 C 17.56 27.65 22.78 25.17 27.75 22.26 C 23.81 20.23 19.94 18.08 16.02 16.01 Z" />
<path fill="#000000" opacity="1.00" d=" M 33.96 25.65 C 35.37 24.91 36.78 24.16 38.18 23.39 C 41.43 25.13 44.75 26.75 47.93 28.61 C 46.52 29.37 45.10 30.12 43.68 30.87 C 40.44 29.13 37.20 27.39 33.96 25.65 Z" />
<path fill="#000000" opacity="1.00" d=" M 49.29 30.19 C 51.48 28.96 53.18 32.92 50.84 33.76 C 42.89 38.23 34.76 42.39 26.81 46.85 C 23.66 48.95 19.69 47.73 16.16 47.88 C 20.10 45.93 23.98 43.85 27.80 41.65 C 23.90 39.61 20.07 37.46 16.12 35.53 C 17.49 34.69 18.88 33.88 20.29 33.12 C 24.20 35.24 28.18 37.24 32.05 39.42 C 37.85 36.44 43.48 33.14 49.29 30.19 Z" />
<path fill="#000000" opacity="1.00" d=" M 34.10 45.00 C 35.48 44.29 36.83 43.53 38.18 42.77 C 41.59 44.33 44.77 46.32 48.12 47.99 C 45.36 47.95 42.59 48.10 39.83 47.96 C 37.84 47.14 36.02 45.97 34.10 45.00 Z" />
<path fill="#000000" opacity="1.00" d=" M 10.00 50.00 C 24.67 50.00 39.33 50.00 54.00 50.00 C 54.00 51.33 54.00 52.67 54.00 54.00 C 39.33 54.00 24.67 54.00 10.00 54.00 C 10.00 52.67 10.00 51.33 10.00 50.00 Z" />
</g>
</svg>
