<?xml version="1.0" encoding="UTF-8" ?>
<!DOCTYPE svg PUBLIC "-//W3C//DTD SVG 1.1//EN" "http://www.w3.org/Graphics/SVG/1.1/DTD/svg11.dtd">
<svg width="60pt" height="60pt" viewBox="0 0 60 60" version="1.1" xmlns="http://www.w3.org/2000/svg">
<g id="#ffffffff">
<path fill="#ffffff" opacity="1.00" d=" M 0.00 0.00 L 60.00 0.00 L 60.00 60.00 L 0.00 60.00 L 0.00 0.00 M 37.97 8.01 C 35.70 7.99 33.41 7.85 31.15 8.19 C 29.63 8.83 29.63 11.18 31.17 11.81 C 33.73 12.17 36.32 12.00 38.90 11.99 C 41.22 17.91 43.78 25.10 40.05 31.01 C 37.36 35.74 31.24 36.98 26.33 35.60 C 23.31 34.32 24.09 30.60 23.96 28.00 C 18.63 28.10 13.29 27.82 7.97 28.11 C 4.49 29.09 2.25 32.47 1.85 35.95 C 3.45 36.61 5.06 37.26 6.66 37.91 C 5.05 39.89 3.62 42.30 4.08 44.97 C 4.53 49.86 10.10 53.36 14.68 51.50 C 17.95 50.46 19.71 47.19 20.19 43.98 C 25.47 43.94 30.76 44.14 36.03 43.92 C 37.64 43.91 38.87 42.77 40.19 42.03 C 38.83 47.27 43.62 52.79 49.00 51.92 C 54.03 51.40 57.13 45.87 55.66 41.17 C 56.47 40.76 57.28 40.35 58.09 39.94 C 56.09 36.78 53.40 34.05 49.91 32.57 C 49.97 25.21 46.77 18.36 43.37 12.00 C 44.03 12.00 45.34 12.00 46.00 12.00 C 46.00 9.99 46.00 7.98 46.00 5.98 C 43.94 6.00 41.89 6.03 39.83 6.07 C 39.21 6.72 38.59 7.36 37.97 8.01 M 7.13 20.19 C 5.27 20.96 5.89 24.12 7.96 23.92 C 13.32 24.07 18.69 24.07 24.05 23.92 C 26.62 24.12 26.57 19.81 23.99 20.07 C 18.38 20.00 12.73 19.79 7.13 20.19 Z" />
<path fill="#ffffff" opacity="1.00" d=" M 8.35 45.65 C 7.16 43.25 9.01 40.95 11.08 39.88 C 13.17 40.96 16.86 41.66 15.91 44.87 C 15.31 48.52 9.68 49.10 8.35 45.65 Z" />
<path fill="#ffffff" opacity="1.00" d=" M 44.12 42.10 C 46.70 41.98 49.29 41.97 51.87 42.10 C 52.47 44.74 51.13 48.11 48.00 48.00 C 44.86 48.12 43.53 44.75 44.12 42.10 Z" />
</g>
<g id="#000000ff">
<path fill="#000000" opacity="1.00" d=" M 37.97 8.01 C 38.59 7.36 39.21 6.72 39.83 6.07 C 41.89 6.03 43.94 6.00 46.00 5.98 C 46.00 7.98 46.00 9.99 46.00 12.00 C 45.34 12.00 44.03 12.00 43.37 12.00 C 46.77 18.36 49.97 25.21 49.91 32.57 C 53.40 34.05 56.09 36.78 58.09 39.94 C 57.28 40.35 56.47 40.76 55.66 41.17 C 57.13 45.87 54.03 51.40 49.00 51.92 C 43.62 52.79 38.83 47.27 40.19 42.03 C 38.87 42.77 37.64 43.91 36.03 43.92 C 30.76 44.14 25.47 43.94 20.19 43.98 C 19.71 47.19 17.95 50.46 14.68 51.50 C 10.10 53.36 4.53 49.86 4.08 44.97 C 3.62 42.30 5.05 39.89 6.66 37.91 C 5.06 37.26 3.45 36.61 1.85 35.95 C 2.25 32.47 4.49 29.09 7.97 28.11 C 13.29 27.82 18.63 28.10 23.96 28.00 C 24.09 30.60 23.31 34.32 26.33 35.60 C 31.24 36.98 37.36 35.74 40.05 31.01 C 43.78 25.10 41.22 17.91 38.90 11.99 C 36.32 12.00 33.73 12.17 31.17 11.81 C 29.63 11.18 29.63 8.83 31.15 8.19 C 33.41 7.85 35.70 7.99 37.97 8.01 M 8.35 45.65 C 9.68 49.10 15.31 48.52 15.91 44.87 C 16.86 41.66 13.17 40.96 11.08 39.88 C 9.01 40.95 7.16 43.25 8.35 45.65 M 44.12 42.10 C 43.53 44.75 44.86 48.12 48.00 48.00 C 51.13 48.11 52.47 44.74 51.87 42.10 C 49.29 41.97 46.70 41.98 44.12 42.10 Z" />
<path fill="#000000" opacity="1.00" d=" M 7.13 20.19 C 12.73 19.79 18.38 20.00 23.99 20.07 C 26.57 19.81 26.62 24.12 24.05 23.92 C 18.69 24.07 13.32 24.07 7.96 23.92 C 5.89 24.12 5.27 20.96 7.13 20.19 Z" />
</g>
</svg>
