<?xml version="1.0" encoding="UTF-8" ?>
<!DOCTYPE svg PUBLIC "-//W3C//DTD SVG 1.1//EN" "http://www.w3.org/Graphics/SVG/1.1/DTD/svg11.dtd">
<svg width="64pt" height="64pt" viewBox="0 0 64 64" version="1.1" xmlns="http://www.w3.org/2000/svg">
<g id="#ffffffff">
<path fill="#ffffff" opacity="1.00" d=" M 0.00 0.00 L 64.00 0.00 L 64.00 64.00 L 0.00 64.00 L 0.00 0.00 M 18.90 10.00 C 22.47 15.70 26.06 21.39 29.64 27.09 C 27.30 30.80 24.99 34.54 22.60 38.23 C 17.94 37.00 12.38 39.90 12.07 45.01 C 11.06 50.68 17.15 55.56 22.50 53.62 C 28.17 52.11 29.49 44.60 26.06 40.34 C 32.38 30.20 38.77 20.11 45.12 9.99 C 43.53 10.00 41.94 10.01 40.34 10.03 C 38.00 13.80 35.62 17.56 33.30 21.35 C 32.90 21.95 31.69 23.97 31.21 22.08 C 28.65 18.08 26.19 14.02 23.64 10.01 C 22.06 10.01 20.48 10.01 18.90 10.00 M 33.74 33.61 C 35.14 35.84 36.55 38.07 37.95 40.31 C 35.91 43.31 35.17 47.46 37.37 50.59 C 38.81 53.03 41.69 53.75 44.28 54.19 C 45.29 57.69 48.46 59.82 51.97 60.21 C 51.98 58.89 51.99 57.58 52.00 56.27 C 50.16 55.93 48.77 54.85 47.99 53.15 C 52.13 50.63 53.35 44.59 50.21 40.83 C 48.15 38.10 44.50 37.78 41.38 38.22 C 39.61 35.44 37.88 32.65 36.11 29.88 C 35.32 31.12 34.54 32.37 33.74 33.61 Z" />
<path fill="#ffffff" opacity="1.00" d=" M 17.59 42.66 C 20.14 40.81 24.30 42.72 23.96 46.05 C 24.13 48.71 21.34 50.70 18.84 49.88 C 15.69 49.20 15.09 44.47 17.59 42.66 Z" />
<path fill="#ffffff" opacity="1.00" d=" M 41.57 42.68 C 43.51 41.36 46.78 41.87 47.61 44.26 C 48.83 46.75 46.98 50.30 44.02 50.01 C 40.15 50.40 38.65 44.77 41.57 42.68 Z" />
</g>
<g id="#000000ff">
<path fill="#000000" opacity="1.00" d=" M 18.90 10.00 C 20.48 10.01 22.06 10.01 23.64 10.01 C 26.19 14.02 28.65 18.08 31.21 22.08 C 31.69 23.97 32.90 21.95 33.30 21.35 C 35.62 17.56 38.00 13.80 40.34 10.03 C 41.94 10.01 43.53 10.00 45.12 9.99 C 38.77 20.11 32.38 30.20 26.06 40.34 C 29.49 44.60 28.17 52.11 22.50 53.62 C 17.15 55.56 11.06 50.68 12.07 45.01 C 12.38 39.90 17.94 37.00 22.60 38.23 C 24.99 34.54 27.30 30.80 29.64 27.09 C 26.06 21.39 22.47 15.70 18.90 10.00 M 17.59 42.66 C 15.09 44.47 15.69 49.20 18.84 49.88 C 21.34 50.70 24.13 48.71 23.96 46.05 C 24.30 42.72 20.14 40.81 17.59 42.66 Z" />
<path fill="#000000" opacity="1.00" d=" M 33.74 33.61 C 34.54 32.37 35.32 31.12 36.11 29.88 C 37.88 32.65 39.61 35.44 41.38 38.22 C 44.50 37.78 48.15 38.10 50.21 40.83 C 53.35 44.59 52.13 50.63 47.99 53.15 C 48.77 54.85 50.16 55.93 52.00 56.27 C 51.99 57.58 51.98 58.89 51.97 60.21 C 48.46 59.82 45.29 57.69 44.28 54.19 C 41.69 53.75 38.81 53.03 37.37 50.59 C 35.17 47.46 35.91 43.31 37.95 40.31 C 36.55 38.07 35.14 35.84 33.74 33.61 M 41.57 42.68 C 38.65 44.77 40.15 50.40 44.02 50.01 C 46.98 50.30 48.83 46.75 47.61 44.26 C 46.78 41.87 43.51 41.36 41.57 42.68 Z" />
</g>
</svg>
