<?xml version="1.0" encoding="UTF-8" ?>
<!DOCTYPE svg PUBLIC "-//W3C//DTD SVG 1.1//EN" "http://www.w3.org/Graphics/SVG/1.1/DTD/svg11.dtd">
<svg width="64pt" height="64pt" viewBox="0 0 64 64" version="1.1" xmlns="http://www.w3.org/2000/svg">
<g id="#ffffffff">
<path fill="#ffffff" opacity="1.00" d=" M 0.00 0.00 L 64.00 0.00 L 64.00 64.00 L 0.00 64.00 L 0.00 0.00 M 22.51 12.86 C 16.29 14.21 8.65 16.45 6.29 23.09 C 5.65 28.03 6.16 33.04 5.97 38.01 C 5.57 42.28 9.05 45.57 12.36 47.66 C 19.78 51.95 28.73 52.31 37.09 51.77 C 44.12 51.16 51.93 49.29 56.40 43.36 C 58.89 40.49 57.80 36.48 58.00 33.03 C 57.85 28.05 59.18 21.87 54.56 18.41 C 45.60 11.51 33.25 11.27 22.51 12.86 Z" />
<path fill="#ffffff" opacity="1.00" d=" M 23.49 16.79 C 32.12 15.36 41.43 15.76 49.37 19.72 C 51.59 20.97 54.53 22.97 53.88 25.92 C 52.33 29.35 48.50 30.86 45.18 32.04 C 36.44 34.69 26.83 34.65 18.14 31.81 C 15.04 30.64 11.52 29.12 10.10 25.88 C 9.54 23.74 11.29 22.01 12.84 20.83 C 15.99 18.63 19.75 17.51 23.49 16.79 M 23.47 18.74 C 20.18 19.49 16.21 20.24 14.38 23.40 C 12.98 26.28 15.77 28.91 18.30 29.77 C 25.34 32.43 33.15 32.41 40.50 31.26 C 43.78 30.52 47.75 29.76 49.60 26.63 C 51.05 23.73 48.22 21.06 45.66 20.21 C 38.63 17.56 30.81 17.59 23.47 18.74 Z" />
<path fill="#ffffff" opacity="1.00" d=" M 17.78 25.00 C 22.99 22.05 29.18 21.85 35.01 22.11 C 38.89 22.31 42.81 23.04 46.22 25.00 C 41.01 27.95 34.82 28.13 28.99 27.89 C 25.11 27.66 21.19 26.98 17.78 25.00 Z" />
<path fill="#ffffff" opacity="1.00" d=" M 9.99 32.14 C 15.21 35.93 21.69 37.25 28.00 37.84 C 28.00 41.20 28.00 44.56 27.99 47.93 C 21.65 47.27 14.35 45.98 10.40 40.42 C 9.55 37.78 10.16 34.88 9.99 32.14 Z" />
<path fill="#ffffff" opacity="1.00" d=" M 36.00 37.84 C 42.31 37.25 48.79 35.93 54.01 32.14 C 53.82 34.90 54.50 37.87 53.55 40.51 C 49.57 45.98 42.32 47.27 36.01 47.93 C 36.00 44.57 36.00 41.20 36.00 37.84 Z" />
</g>
<g id="#000000ff">
<path fill="#000000" opacity="1.00" d=" M 22.51 12.86 C 33.25 11.27 45.60 11.51 54.56 18.41 C 59.18 21.87 57.85 28.05 58.00 33.03 C 57.80 36.48 58.89 40.49 56.40 43.36 C 51.93 49.29 44.12 51.16 37.09 51.77 C 28.73 52.31 19.78 51.95 12.36 47.66 C 9.05 45.57 5.57 42.28 5.97 38.01 C 6.16 33.04 5.65 28.03 6.29 23.09 C 8.65 16.45 16.29 14.21 22.51 12.86 M 23.49 16.79 C 19.75 17.51 15.99 18.63 12.84 20.83 C 11.29 22.01 9.54 23.74 10.10 25.88 C 11.52 29.12 15.04 30.64 18.14 31.81 C 26.83 34.65 36.44 34.69 45.18 32.04 C 48.50 30.86 52.33 29.35 53.88 25.92 C 54.53 22.97 51.59 20.97 49.37 19.72 C 41.43 15.76 32.12 15.36 23.49 16.79 M 9.99 32.14 C 10.16 34.88 9.55 37.78 10.40 40.42 C 14.35 45.98 21.65 47.27 27.99 47.93 C 28.00 44.56 28.00 41.20 28.00 37.84 C 21.69 37.25 15.21 35.93 9.99 32.14 M 36.00 37.84 C 36.00 41.20 36.00 44.57 36.01 47.93 C 42.32 47.27 49.57 45.98 53.55 40.51 C 54.50 37.87 53.82 34.90 54.01 32.14 C 48.79 35.93 42.31 37.25 36.00 37.84 Z" />
<path fill="#000000" opacity="1.00" d=" M 23.47 18.74 C 30.81 17.59 38.63 17.56 45.66 20.21 C 48.22 21.06 51.05 23.73 49.60 26.63 C 47.75 29.76 43.78 30.52 40.50 31.26 C 33.15 32.41 25.34 32.43 18.30 29.77 C 15.77 28.91 12.98 26.28 14.38 23.40 C 16.21 20.24 20.18 19.49 23.47 18.74 M 17.78 25.00 C 21.19 26.98 25.11 27.66 28.99 27.89 C 34.82 28.13 41.01 27.95 46.22 25.00 C 42.81 23.04 38.89 22.31 35.01 22.11 C 29.18 21.85 22.99 22.05 17.78 25.00 Z" />
</g>
</svg>
