<?xml version="1.0" encoding="UTF-8" ?>
<!DOCTYPE svg PUBLIC "-//W3C//DTD SVG 1.1//EN" "http://www.w3.org/Graphics/SVG/1.1/DTD/svg11.dtd">
<svg width="64pt" height="64pt" viewBox="0 0 64 64" version="1.1" xmlns="http://www.w3.org/2000/svg">
<g id="#ffffffff">
<path fill="#ffffff" opacity="1.00" d=" M 0.00 0.00 L 64.00 0.00 L 64.00 64.00 L 0.00 64.00 L 0.00 0.00 M 36.40 13.00 C 36.18 15.06 37.63 16.69 38.66 18.30 C 37.11 19.85 35.56 21.39 34.00 22.94 C 34.00 24.81 34.00 26.68 34.00 28.56 C 36.54 26.03 39.07 23.50 41.59 20.96 C 41.97 21.30 42.72 21.98 43.10 22.32 C 40.08 25.36 37.07 28.40 34.01 31.40 C 34.01 33.29 34.01 35.17 34.00 37.06 C 37.91 33.15 41.82 29.25 45.71 25.34 C 47.32 26.37 48.95 27.82 51.01 27.59 C 54.48 27.38 56.50 24.12 58.85 22.00 C 53.25 16.37 47.65 10.73 42.00 5.16 C 39.89 7.53 36.60 9.52 36.40 13.00 M 28.00 28.94 C 28.01 33.65 27.99 38.35 28.01 43.06 C 29.33 41.72 30.67 40.39 32.00 39.06 C 31.99 34.35 32.01 29.65 32.00 24.94 C 30.67 26.28 29.33 27.61 28.00 28.94 M 22.00 34.94 C 22.00 39.65 22.00 44.35 22.00 49.06 C 23.33 47.72 24.67 46.39 26.00 45.06 C 26.00 40.36 26.00 35.65 26.00 30.94 C 24.68 32.28 23.34 33.61 22.00 34.94 M 11.88 46.01 C 9.72 49.90 7.95 53.99 6.00 57.99 C 10.74 55.78 15.53 53.64 20.00 50.92 C 20.00 49.11 20.01 47.30 20.05 45.50 C 18.41 47.05 16.61 48.42 14.59 49.43 C 15.86 46.77 17.81 44.54 19.98 42.58 C 19.99 40.70 20.00 38.82 20.01 36.93 C 17.26 39.92 13.85 42.38 11.88 46.01 Z" />
<path fill="#ffffff" opacity="1.00" d=" M 41.14 14.75 C 39.49 13.54 41.03 11.88 41.83 10.72 C 45.63 14.48 49.39 18.28 53.18 22.05 C 52.43 22.69 51.69 23.33 50.94 23.97 C 47.22 21.42 44.29 17.93 41.14 14.75 Z" />
</g>
<g id="#000000ff">
<path fill="#000000" opacity="1.00" d=" M 36.40 13.00 C 36.60 9.52 39.89 7.53 42.00 5.16 C 47.65 10.73 53.25 16.37 58.85 22.00 C 56.50 24.12 54.48 27.38 51.01 27.59 C 48.95 27.82 47.32 26.37 45.71 25.34 C 41.82 29.25 37.91 33.15 34.00 37.06 C 34.01 35.17 34.01 33.29 34.01 31.40 C 37.07 28.40 40.08 25.36 43.10 22.32 C 42.72 21.98 41.97 21.30 41.59 20.96 C 39.07 23.50 36.54 26.03 34.00 28.56 C 34.00 26.68 34.00 24.81 34.00 22.94 C 35.56 21.39 37.11 19.85 38.66 18.30 C 37.63 16.69 36.18 15.06 36.40 13.00 M 41.14 14.75 C 44.29 17.93 47.22 21.42 50.94 23.97 C 51.69 23.33 52.43 22.69 53.18 22.05 C 49.39 18.28 45.63 14.48 41.83 10.72 C 41.03 11.88 39.49 13.54 41.14 14.75 Z" />
<path fill="#000000" opacity="1.00" d=" M 28.00 28.94 C 29.33 27.61 30.67 26.28 32.00 24.94 C 32.01 29.65 31.99 34.35 32.00 39.06 C 30.67 40.39 29.33 41.72 28.01 43.06 C 27.99 38.35 28.01 33.65 28.00 28.94 Z" />
<path fill="#000000" opacity="1.00" d=" M 22.00 34.94 C 23.34 33.61 24.68 32.28 26.00 30.94 C 26.00 35.65 26.00 40.36 26.00 45.06 C 24.67 46.39 23.33 47.72 22.00 49.06 C 22.00 44.35 22.00 39.65 22.00 34.94 Z" />
<path fill="#000000" opacity="1.00" d=" M 11.88 46.01 C 13.85 42.38 17.26 39.92 20.01 36.93 C 20.00 38.82 19.99 40.70 19.98 42.58 C 17.81 44.54 15.86 46.77 14.59 49.43 C 16.61 48.42 18.41 47.05 20.05 45.50 C 20.01 47.30 20.00 49.11 20.00 50.92 C 15.53 53.64 10.74 55.78 6.00 57.99 C 7.95 53.99 9.72 49.90 11.88 46.01 Z" />
</g>
</svg>
