<?xml version="1.0" encoding="UTF-8" ?>
<!DOCTYPE svg PUBLIC "-//W3C//DTD SVG 1.1//EN" "http://www.w3.org/Graphics/SVG/1.1/DTD/svg11.dtd">
<svg width="64pt" height="64pt" viewBox="0 0 64 64" version="1.1" xmlns="http://www.w3.org/2000/svg">
<g id="#ffffffff">
<path fill="#ffffff" opacity="1.00" d=" M 0.00 0.00 L 64.00 0.00 L 64.00 64.00 L 0.00 64.00 L 0.00 0.00 M 43.32 10.27 C 39.40 13.08 36.65 17.12 33.88 20.99 C 33.41 20.53 32.46 19.63 31.98 19.18 C 29.36 21.75 26.80 24.39 24.21 26.99 C 25.20 27.97 26.19 28.95 27.18 29.93 C 22.98 34.17 18.73 38.36 14.55 42.61 C 13.05 44.27 10.93 45.09 8.96 46.04 C 7.28 49.35 5.66 52.70 3.99 56.02 C 5.34 57.34 6.66 58.68 8.01 60.00 C 11.30 58.30 14.76 56.88 17.92 54.94 C 19.06 53.08 19.73 50.88 21.43 49.41 C 25.69 45.25 29.85 41.00 34.09 36.82 C 35.06 37.82 36.03 38.81 37.01 39.79 C 39.62 37.21 42.25 34.65 44.82 32.01 C 44.37 31.54 43.47 30.59 43.01 30.12 C 45.21 28.59 47.40 27.04 49.42 25.29 C 54.38 21.11 57.42 15.24 60.45 9.63 C 58.46 7.55 56.44 5.50 54.34 3.53 C 50.61 5.68 46.82 7.75 43.32 10.27 Z" />
<path fill="#ffffff" opacity="1.00" d=" M 47.97 11.97 C 49.78 10.76 51.65 9.64 53.52 8.51 C 54.02 8.95 55.01 9.83 55.51 10.27 C 51.61 18.63 44.60 24.83 36.92 29.65 C 37.65 30.44 38.38 31.23 39.09 32.03 C 38.38 32.73 37.68 33.44 36.98 34.14 C 34.64 31.75 32.27 29.38 29.88 27.05 C 30.57 26.34 31.26 25.63 31.95 24.92 C 32.75 25.63 33.56 26.34 34.37 27.05 C 38.26 21.53 42.11 15.60 47.97 11.97 Z" />
<path fill="#ffffff" opacity="1.00" d=" M 16.88 46.03 C 21.25 41.72 25.49 37.27 29.93 33.03 C 30.18 33.29 30.69 33.81 30.94 34.07 C 26.59 38.73 21.92 43.08 17.49 47.65 C 16.35 48.85 15.84 50.47 14.98 51.85 C 13.17 53.21 10.99 53.94 9.00 54.98 C 9.98 53.01 10.96 51.03 11.94 49.07 C 13.68 48.22 15.51 47.44 16.88 46.03 Z" />
</g>
<g id="#000000ff">
<path fill="#000000" opacity="1.00" d=" M 43.32 10.27 C 46.82 7.75 50.61 5.68 54.34 3.53 C 56.44 5.50 58.46 7.55 60.45 9.63 C 57.42 15.24 54.38 21.11 49.42 25.29 C 47.40 27.04 45.21 28.59 43.01 30.12 C 43.47 30.59 44.37 31.54 44.82 32.01 C 42.25 34.65 39.62 37.21 37.01 39.79 C 36.03 38.81 35.06 37.82 34.09 36.82 C 29.85 41.00 25.69 45.25 21.43 49.41 C 19.73 50.88 19.06 53.08 17.92 54.94 C 14.76 56.88 11.30 58.30 8.01 60.00 C 6.66 58.68 5.34 57.34 3.99 56.02 C 5.66 52.70 7.28 49.35 8.96 46.04 C 10.93 45.09 13.05 44.27 14.55 42.61 C 18.73 38.36 22.98 34.17 27.18 29.93 C 26.19 28.95 25.20 27.97 24.21 26.99 C 26.80 24.39 29.36 21.75 31.98 19.18 C 32.46 19.63 33.41 20.53 33.88 20.99 C 36.65 17.12 39.40 13.08 43.32 10.27 M 47.97 11.97 C 42.11 15.60 38.26 21.53 34.37 27.05 C 33.56 26.34 32.75 25.63 31.95 24.92 C 31.26 25.63 30.57 26.34 29.88 27.05 C 32.27 29.38 34.64 31.75 36.98 34.14 C 37.68 33.44 38.38 32.73 39.09 32.03 C 38.38 31.23 37.65 30.44 36.92 29.65 C 44.60 24.83 51.61 18.63 55.51 10.27 C 55.01 9.83 54.02 8.95 53.52 8.51 C 51.65 9.64 49.78 10.76 47.97 11.97 M 16.88 46.03 C 15.51 47.44 13.68 48.22 11.94 49.07 C 10.96 51.03 9.98 53.01 9.00 54.98 C 10.99 53.94 13.17 53.21 14.98 51.85 C 15.84 50.47 16.35 48.85 17.49 47.65 C 21.92 43.08 26.59 38.73 30.94 34.07 C 30.69 33.81 30.18 33.29 29.93 33.03 C 25.49 37.27 21.25 41.72 16.88 46.03 Z" />
</g>
</svg>
