<?xml version="1.0" encoding="UTF-8" ?>
<!DOCTYPE svg PUBLIC "-//W3C//DTD SVG 1.1//EN" "http://www.w3.org/Graphics/SVG/1.1/DTD/svg11.dtd">
<svg width="60pt" height="60pt" viewBox="0 0 60 60" version="1.1" xmlns="http://www.w3.org/2000/svg">
<g id="#ffffffff">
<path fill="#ffffff" opacity="1.00" d=" M 0.00 0.00 L 60.00 0.00 L 60.00 60.00 L 0.00 60.00 L 0.00 0.00 M 28.49 22.12 C 29.32 23.98 32.39 23.06 32.03 21.09 C 31.93 18.09 32.23 14.78 34.63 12.65 C 38.28 8.69 45.34 9.29 48.30 13.78 C 51.65 18.05 49.77 24.98 44.83 27.13 C 40.75 29.34 36.25 26.10 32.02 27.47 C 28.81 28.22 26.46 30.67 24.21 32.91 C 22.86 31.88 20.02 31.53 20.06 33.94 C 20.73 36.66 21.27 39.79 23.20 41.89 C 26.05 42.71 26.34 39.37 25.42 37.50 C 27.88 35.02 30.21 31.75 33.91 31.20 C 37.00 31.00 40.00 32.45 43.10 31.81 C 49.62 30.90 54.67 24.41 53.90 17.85 C 53.48 10.98 46.83 5.28 39.96 6.03 C 32.30 6.40 26.18 14.73 28.49 22.12 M 17.22 36.14 C 14.96 37.27 16.72 40.07 17.09 41.82 C 17.78 43.46 18.28 46.79 20.80 45.82 C 23.05 44.66 21.26 41.90 20.89 40.14 C 20.20 38.50 19.74 35.23 17.22 36.14 M 12.55 44.58 C 11.11 46.56 7.72 48.05 8.16 50.80 C 9.84 53.67 12.56 50.36 13.96 48.93 C 14.49 49.28 15.56 49.98 16.09 50.33 C 16.53 49.92 17.40 49.10 17.84 48.69 C 17.68 45.69 16.66 42.46 14.85 40.07 C 11.89 39.24 11.73 42.64 12.55 44.58 Z" />
</g>
<g id="#000000ff">
<path fill="#000000" opacity="1.00" d=" M 28.49 22.12 C 26.18 14.73 32.30 6.40 39.96 6.03 C 46.83 5.28 53.48 10.98 53.90 17.85 C 54.67 24.41 49.62 30.90 43.10 31.81 C 40.00 32.45 37.00 31.00 33.91 31.20 C 30.21 31.75 27.88 35.02 25.42 37.50 C 26.34 39.37 26.05 42.71 23.20 41.89 C 21.27 39.79 20.73 36.66 20.06 33.94 C 20.02 31.53 22.86 31.88 24.21 32.91 C 26.46 30.67 28.81 28.22 32.02 27.47 C 36.25 26.10 40.75 29.34 44.83 27.13 C 49.77 24.98 51.65 18.05 48.30 13.78 C 45.34 9.29 38.28 8.69 34.63 12.65 C 32.23 14.78 31.93 18.09 32.03 21.09 C 32.39 23.06 29.32 23.98 28.49 22.12 Z" />
<path fill="#000000" opacity="1.00" d=" M 17.22 36.14 C 19.74 35.23 20.20 38.50 20.89 40.14 C 21.26 41.90 23.05 44.66 20.80 45.82 C 18.28 46.79 17.78 43.46 17.09 41.82 C 16.72 40.07 14.96 37.27 17.22 36.14 Z" />
<path fill="#000000" opacity="1.00" d=" M 12.55 44.58 C 11.73 42.64 11.89 39.24 14.85 40.07 C 16.66 42.46 17.68 45.69 17.84 48.69 C 17.40 49.10 16.53 49.92 16.09 50.33 C 15.56 49.98 14.49 49.28 13.96 48.93 C 12.56 50.36 9.84 53.67 8.16 50.80 C 7.72 48.05 11.11 46.56 12.55 44.58 Z" />
</g>
</svg>
