<?xml version="1.0" encoding="UTF-8" ?>
<!DOCTYPE svg PUBLIC "-//W3C//DTD SVG 1.1//EN" "http://www.w3.org/Graphics/SVG/1.1/DTD/svg11.dtd">
<svg width="60pt" height="60pt" viewBox="0 0 60 60" version="1.1" xmlns="http://www.w3.org/2000/svg">
<g id="#ffffffff">
<path fill="#ffffff" opacity="1.00" d=" M 0.00 0.00 L 60.00 0.00 L 60.00 60.00 L 0.00 60.00 L 0.00 0.00 M 7.96 14.94 C 8.15 21.56 7.69 28.21 8.19 34.83 C 8.37 37.71 11.64 38.05 13.88 38.11 C 14.12 34.42 13.83 30.71 14.15 27.02 C 14.38 23.47 17.48 20.39 21.02 20.15 C 27.98 19.66 34.97 20.28 41.93 19.93 C 42.03 16.76 42.36 13.51 41.61 10.40 C 40.76 7.63 37.33 8.08 35.07 7.96 C 27.11 8.17 19.12 7.68 11.18 8.20 C 7.86 8.52 7.93 12.44 7.96 14.94 M 20.40 24.37 C 17.69 25.32 18.06 28.64 17.97 30.93 C 18.13 36.89 17.70 42.88 18.19 48.82 C 18.37 51.71 21.67 52.09 23.92 52.02 C 31.94 51.93 39.96 52.16 47.97 51.91 C 50.18 52.04 52.04 50.17 51.91 47.96 C 52.04 41.05 52.22 34.09 51.80 27.18 C 51.37 23.40 46.77 24.05 44.04 23.96 C 36.17 24.29 28.22 23.45 20.40 24.37 Z" />
</g>
<g id="#000000ff">
<path fill="#000000" opacity="1.00" d=" M 7.96 14.94 C 7.93 12.44 7.86 8.52 11.18 8.20 C 19.12 7.68 27.11 8.17 35.07 7.96 C 37.33 8.08 40.76 7.63 41.61 10.40 C 42.36 13.51 42.03 16.76 41.93 19.93 C 34.97 20.28 27.98 19.66 21.02 20.15 C 17.48 20.39 14.38 23.47 14.15 27.02 C 13.83 30.71 14.12 34.42 13.88 38.11 C 11.64 38.05 8.37 37.71 8.19 34.83 C 7.69 28.21 8.15 21.56 7.96 14.94 Z" />
<path fill="#000000" opacity="1.00" d=" M 20.40 24.37 C 28.22 23.45 36.17 24.29 44.04 23.96 C 46.77 24.05 51.37 23.40 51.80 27.18 C 52.22 34.09 52.04 41.05 51.91 47.96 C 52.04 50.17 50.18 52.04 47.97 51.91 C 39.96 52.16 31.94 51.93 23.92 52.02 C 21.67 52.09 18.37 51.71 18.19 48.82 C 17.70 42.88 18.13 36.89 17.97 30.93 C 18.06 28.64 17.69 25.32 20.40 24.37 Z" />
</g>
</svg>
