<?xml version="1.0" encoding="UTF-8" ?>
<!DOCTYPE svg PUBLIC "-//W3C//DTD SVG 1.1//EN" "http://www.w3.org/Graphics/SVG/1.1/DTD/svg11.dtd">
<svg width="60pt" height="60pt" viewBox="0 0 60 60" version="1.1" xmlns="http://www.w3.org/2000/svg">
<g id="#ffffffff">
<path fill="#ffffff" opacity="1.00" d=" M 0.00 0.00 L 60.00 0.00 L 60.00 60.00 L 0.00 60.00 L 0.00 0.00 M 18.60 9.68 C 11.18 15.28 8.02 25.01 8.03 34.02 C 8.07 38.62 11.25 42.32 12.08 46.72 C 10.72 47.49 9.25 48.16 8.14 49.31 C 7.51 51.59 9.64 53.99 11.94 53.95 C 23.65 54.07 35.38 53.97 47.10 54.00 C 49.50 54.35 52.04 52.51 51.98 49.99 C 51.35 47.02 48.78 44.90 47.97 41.99 C 49.27 39.33 52.22 37.33 51.97 34.05 C 51.98 26.34 49.69 18.33 44.50 12.48 C 38.24 5.13 26.29 3.88 18.60 9.68 Z" />
<path fill="#ffffff" opacity="1.00" d=" M 24.84 10.93 C 28.76 9.48 33.51 9.60 37.05 11.96 C 40.13 14.11 41.51 17.77 42.32 21.29 C 44.47 22.30 46.66 24.27 45.88 26.93 C 44.68 29.83 41.41 31.13 39.82 33.76 C 37.91 38.33 37.77 43.66 34.68 47.72 C 32.52 50.77 27.41 50.75 25.28 47.68 C 22.57 44.04 22.09 39.38 20.74 35.17 C 19.81 31.51 15.45 30.29 14.10 26.89 C 13.35 24.24 15.54 22.30 17.68 21.29 C 18.57 17.11 20.60 12.60 24.84 10.93 M 26.31 18.20 C 24.40 19.90 23.43 22.63 20.86 23.68 C 18.07 24.45 19.63 28.12 22.01 27.97 C 25.52 27.91 27.47 24.03 27.92 20.97 C 28.07 20.11 27.69 16.88 26.31 18.20 M 33.15 18.15 C 30.92 19.23 32.37 22.84 33.30 24.64 C 34.40 27.53 38.96 29.60 40.68 26.09 C 40.78 23.30 36.97 23.23 35.93 21.01 C 34.96 20.22 34.64 17.63 33.15 18.15 M 27.20 31.78 C 29.06 30.44 30.94 30.42 32.83 31.72 C 32.25 29.78 32.06 27.04 30.03 26.05 C 27.94 26.93 27.76 29.85 27.20 31.78 M 27.51 34.65 C 26.39 35.13 25.57 36.60 26.39 37.70 C 27.93 40.17 27.94 43.11 28.53 45.87 C 28.80 47.23 30.17 49.29 31.15 47.13 C 32.40 43.58 32.50 39.67 33.91 36.13 C 32.63 33.97 29.63 33.43 27.51 34.65 Z" />
</g>
<g id="#000000ff">
<path fill="#000000" opacity="1.00" d=" M 18.60 9.68 C 26.29 3.88 38.24 5.13 44.50 12.48 C 49.69 18.33 51.98 26.34 51.97 34.05 C 52.22 37.33 49.27 39.33 47.97 41.99 C 48.78 44.90 51.35 47.02 51.98 49.99 C 52.04 52.51 49.50 54.35 47.10 54.00 C 35.38 53.97 23.65 54.07 11.94 53.95 C 9.64 53.99 7.51 51.59 8.14 49.31 C 9.25 48.16 10.72 47.49 12.08 46.72 C 11.25 42.32 8.07 38.62 8.03 34.02 C 8.02 25.01 11.18 15.28 18.60 9.68 M 24.84 10.93 C 20.60 12.60 18.57 17.11 17.68 21.29 C 15.54 22.30 13.35 24.24 14.10 26.89 C 15.45 30.29 19.81 31.51 20.74 35.17 C 22.09 39.38 22.57 44.04 25.28 47.68 C 27.41 50.75 32.52 50.77 34.68 47.72 C 37.77 43.66 37.91 38.33 39.82 33.76 C 41.41 31.13 44.68 29.83 45.88 26.93 C 46.66 24.27 44.47 22.30 42.32 21.29 C 41.51 17.77 40.13 14.11 37.05 11.96 C 33.51 9.60 28.76 9.48 24.84 10.93 Z" />
<path fill="#000000" opacity="1.00" d=" M 26.31 18.20 C 27.69 16.88 28.07 20.11 27.92 20.97 C 27.47 24.03 25.52 27.91 22.01 27.97 C 19.63 28.12 18.07 24.45 20.86 23.68 C 23.43 22.63 24.40 19.90 26.31 18.20 Z" />
<path fill="#000000" opacity="1.00" d=" M 33.15 18.15 C 34.64 17.63 34.96 20.22 35.93 21.01 C 36.97 23.23 40.78 23.30 40.68 26.09 C 38.96 29.60 34.40 27.53 33.30 24.64 C 32.37 22.84 30.92 19.23 33.15 18.15 Z" />
<path fill="#000000" opacity="1.00" d=" M 27.20 31.78 C 27.76 29.85 27.94 26.93 30.03 26.05 C 32.06 27.04 32.25 29.78 32.83 31.72 C 30.94 30.42 29.06 30.44 27.20 31.78 Z" />
<path fill="#000000" opacity="1.00" d=" M 27.51 34.65 C 29.63 33.43 32.63 33.97 33.91 36.13 C 32.50 39.67 32.40 43.58 31.15 47.13 C 30.17 49.29 28.80 47.23 28.53 45.87 C 27.94 43.11 27.93 40.17 26.39 37.70 C 25.57 36.60 26.39 35.13 27.51 34.65 Z" />
</g>
</svg>
