<?xml version="1.0" encoding="UTF-8" ?>
<!DOCTYPE svg PUBLIC "-//W3C//DTD SVG 1.1//EN" "http://www.w3.org/Graphics/SVG/1.1/DTD/svg11.dtd">
<svg width="60pt" height="60pt" viewBox="0 0 60 60" version="1.1" xmlns="http://www.w3.org/2000/svg">
<g id="#ffffffff">
<path fill="#ffffff" opacity="1.00" d=" M 0.00 0.00 L 60.00 0.00 L 60.00 60.00 L 0.00 60.00 L 0.00 0.00 M 8.21 11.98 C 7.43 14.86 8.96 17.57 10.12 20.10 C 7.31 23.84 6.71 30.06 9.96 33.65 C 10.40 36.57 8.69 40.69 11.97 42.36 C 12.11 45.85 11.77 49.36 12.17 52.84 C 12.42 53.10 12.92 53.63 13.17 53.89 C 17.60 54.99 14.42 48.27 18.00 47.94 C 20.55 48.18 19.73 52.96 22.81 51.89 C 24.75 50.60 23.65 47.94 24.09 46.00 C 23.83 43.86 27.11 43.24 27.83 45.20 C 28.29 48.38 27.72 51.62 28.16 54.81 C 28.91 56.76 32.16 56.11 31.93 53.98 C 32.55 51.48 30.82 47.78 33.29 46.15 C 36.52 44.95 35.54 51.25 38.90 49.88 C 40.69 48.47 39.69 45.92 40.09 43.98 C 39.85 41.86 43.08 41.27 43.83 43.16 C 44.17 45.72 43.83 48.31 44.17 50.87 C 44.88 52.35 47.20 52.36 47.83 50.81 C 48.19 48.01 47.95 45.17 48.02 42.36 C 51.31 40.69 49.61 36.58 50.04 33.65 C 53.28 30.05 52.71 23.85 49.89 20.11 C 51.21 17.34 52.74 14.23 51.57 11.11 C 50.77 7.83 47.36 5.89 44.13 6.03 C 34.71 5.98 25.28 5.98 15.85 6.03 C 12.27 5.81 8.71 8.34 8.21 11.98 Z" />
<path fill="#ffffff" opacity="1.00" d=" M 11.99 30.00 C 11.88 27.20 11.65 24.21 13.67 21.97 C 24.55 22.02 35.44 22.02 46.32 21.97 C 48.37 24.19 48.10 27.21 48.01 30.00 C 36.01 30.00 24.00 30.00 11.99 30.00 M 19.23 24.10 C 16.81 25.00 18.43 28.99 20.76 27.81 C 23.22 26.95 21.57 23.12 19.23 24.10 M 39.28 24.15 C 36.79 24.98 38.39 28.93 40.78 27.89 C 43.14 26.96 41.62 23.10 39.28 24.15 Z" />
<path fill="#ffffff" opacity="1.00" d=" M 14.00 34.00 C 24.67 34.00 35.33 34.00 46.00 34.00 C 46.00 35.33 46.00 36.67 46.00 38.00 C 35.33 38.00 24.67 38.00 14.00 38.00 C 14.00 36.67 14.00 35.33 14.00 34.00 Z" />
</g>
<g id="#000000ff">
<path fill="#000000" opacity="1.00" d=" M 8.21 11.98 C 8.71 8.34 12.27 5.81 15.85 6.03 C 25.28 5.98 34.71 5.98 44.13 6.03 C 47.36 5.89 50.77 7.83 51.57 11.11 C 52.74 14.23 51.21 17.34 49.89 20.11 C 52.71 23.85 53.28 30.05 50.04 33.65 C 49.61 36.58 51.31 40.69 48.02 42.36 C 47.95 45.17 48.19 48.01 47.83 50.81 C 47.20 52.36 44.88 52.35 44.17 50.87 C 43.83 48.31 44.17 45.72 43.83 43.16 C 43.08 41.27 39.85 41.86 40.09 43.98 C 39.69 45.92 40.69 48.47 38.90 49.88 C 35.54 51.25 36.52 44.95 33.29 46.15 C 30.82 47.78 32.55 51.48 31.93 53.98 C 32.16 56.11 28.91 56.76 28.16 54.81 C 27.72 51.62 28.29 48.38 27.83 45.20 C 27.11 43.24 23.83 43.86 24.09 46.00 C 23.65 47.94 24.75 50.60 22.81 51.89 C 19.73 52.96 20.55 48.18 18.00 47.94 C 14.42 48.27 17.60 54.99 13.17 53.89 C 12.92 53.63 12.42 53.10 12.17 52.84 C 11.77 49.36 12.11 45.85 11.97 42.36 C 8.69 40.69 10.40 36.57 9.96 33.65 C 6.71 30.06 7.31 23.84 10.12 20.10 C 8.96 17.57 7.43 14.86 8.21 11.98 M 11.99 30.00 C 24.00 30.00 36.01 30.00 48.01 30.00 C 48.10 27.21 48.37 24.19 46.32 21.97 C 35.44 22.02 24.55 22.02 13.67 21.97 C 11.65 24.21 11.88 27.20 11.99 30.00 M 14.00 34.00 C 14.00 35.33 14.00 36.67 14.00 38.00 C 24.67 38.00 35.33 38.00 46.00 38.00 C 46.00 36.67 46.00 35.33 46.00 34.00 C 35.33 34.00 24.67 34.00 14.00 34.00 Z" />
<path fill="#000000" opacity="1.00" d=" M 19.23 24.10 C 21.57 23.12 23.22 26.95 20.76 27.81 C 18.43 28.99 16.81 25.00 19.23 24.10 Z" />
<path fill="#000000" opacity="1.00" d=" M 39.28 24.15 C 41.62 23.10 43.14 26.96 40.78 27.89 C 38.39 28.93 36.79 24.98 39.28 24.15 Z" />
</g>
</svg>
