<?xml version="1.0" encoding="UTF-8" ?>
<!DOCTYPE svg PUBLIC "-//W3C//DTD SVG 1.1//EN" "http://www.w3.org/Graphics/SVG/1.1/DTD/svg11.dtd">
<svg width="64pt" height="64pt" viewBox="0 0 64 64" version="1.1" xmlns="http://www.w3.org/2000/svg">
<g id="#ffffffff">
<path fill="#ffffff" opacity="1.00" d=" M 0.00 0.00 L 64.00 0.00 L 64.00 64.00 L 0.00 64.00 L 0.00 0.00 M 15.21 10.21 C 10.20 16.32 12.54 24.77 12.00 32.00 C 14.67 32.00 17.34 32.00 20.00 32.00 C 19.99 33.61 20.12 35.24 19.79 36.83 C 18.23 43.76 17.95 50.91 18.01 57.99 C 22.05 58.01 26.09 58.00 30.14 58.00 C 30.78 54.99 31.34 51.96 32.03 48.96 C 32.73 51.96 33.32 54.98 33.97 58.00 C 37.98 58.00 41.99 58.01 45.99 57.99 C 46.03 50.90 45.74 43.75 44.20 36.82 C 43.88 35.23 44.00 33.61 43.99 32.00 C 46.66 32.00 49.33 32.00 52.00 32.00 C 51.46 24.76 53.81 16.31 48.77 10.20 C 44.26 6.10 37.86 4.68 31.97 4.02 C 26.08 4.69 19.73 6.13 15.21 10.21 Z" />
<path fill="#ffffff" opacity="1.00" d=" M 17.99 13.14 C 20.18 11.12 23.07 10.10 25.86 9.20 C 28.99 12.85 35.01 12.83 38.14 9.20 C 41.54 10.44 46.05 11.56 47.23 15.48 C 48.54 19.52 47.82 23.83 48.00 28.00 C 46.67 28.00 45.33 28.00 44.00 28.00 C 43.99 24.67 44.00 21.33 44.00 18.00 C 42.66 18.00 41.33 18.00 40.00 18.00 C 40.33 25.67 39.12 33.50 41.02 41.03 C 41.66 45.32 41.87 49.66 41.95 53.99 C 40.37 54.00 38.79 54.00 37.21 54.00 C 36.23 49.33 35.25 44.66 34.26 40.00 C 32.76 40.00 31.25 40.00 29.75 40.00 C 28.79 44.67 27.84 49.33 26.88 54.00 C 25.27 54.00 23.66 54.00 22.05 53.99 C 22.10 47.99 22.56 41.97 23.94 36.12 C 24.09 30.08 23.96 24.04 24.00 18.00 C 22.67 18.00 21.33 18.00 20.00 18.00 C 20.00 21.33 20.00 24.67 20.00 28.00 C 18.67 28.00 17.33 28.00 16.00 28.00 C 16.29 23.07 14.96 17.48 17.99 13.14 Z" />
</g>
<g id="#000000ff">
<path fill="#000000" opacity="1.00" d=" M 15.21 10.21 C 19.73 6.13 26.08 4.69 31.97 4.02 C 37.86 4.68 44.26 6.10 48.77 10.20 C 53.81 16.31 51.46 24.76 52.00 32.00 C 49.33 32.00 46.66 32.00 43.99 32.00 C 44.00 33.61 43.88 35.23 44.20 36.82 C 45.74 43.75 46.03 50.90 45.99 57.99 C 41.99 58.01 37.98 58.00 33.97 58.00 C 33.32 54.98 32.73 51.96 32.03 48.96 C 31.34 51.96 30.78 54.99 30.14 58.00 C 26.09 58.00 22.05 58.01 18.01 57.99 C 17.95 50.91 18.23 43.76 19.79 36.83 C 20.12 35.24 19.99 33.61 20.00 32.00 C 17.34 32.00 14.67 32.00 12.00 32.00 C 12.54 24.77 10.20 16.32 15.21 10.21 M 17.99 13.14 C 14.96 17.48 16.29 23.07 16.00 28.00 C 17.33 28.00 18.67 28.00 20.00 28.00 C 20.00 24.67 20.00 21.33 20.00 18.00 C 21.33 18.00 22.67 18.00 24.00 18.00 C 23.96 24.04 24.09 30.08 23.94 36.12 C 22.56 41.97 22.10 47.99 22.05 53.99 C 23.66 54.00 25.27 54.00 26.88 54.00 C 27.84 49.33 28.79 44.67 29.75 40.00 C 31.25 40.00 32.76 40.00 34.26 40.00 C 35.25 44.66 36.23 49.33 37.21 54.00 C 38.79 54.00 40.37 54.00 41.95 53.99 C 41.87 49.66 41.66 45.32 41.02 41.03 C 39.12 33.50 40.33 25.67 40.00 18.00 C 41.33 18.00 42.66 18.00 44.00 18.00 C 44.00 21.33 43.99 24.67 44.00 28.00 C 45.33 28.00 46.67 28.00 48.00 28.00 C 47.82 23.83 48.54 19.52 47.23 15.48 C 46.05 11.56 41.54 10.44 38.14 9.20 C 35.01 12.83 28.99 12.85 25.86 9.20 C 23.07 10.10 20.18 11.12 17.99 13.14 Z" />
</g>
</svg>
