<?xml version="1.0" encoding="UTF-8" ?>
<!DOCTYPE svg PUBLIC "-//W3C//DTD SVG 1.1//EN" "http://www.w3.org/Graphics/SVG/1.1/DTD/svg11.dtd">
<svg width="60pt" height="60pt" viewBox="0 0 60 60" version="1.1" xmlns="http://www.w3.org/2000/svg">
<g id="#ffffffff">
<path fill="#ffffff" opacity="1.00" d=" M 0.00 0.00 L 60.00 0.00 L 60.00 60.00 L 0.00 60.00 L 0.00 0.00 M 7.46 13.40 C 3.56 17.26 3.32 23.50 4.59 28.49 C 7.28 32.02 9.35 36.44 13.86 37.96 C 14.03 35.84 14.08 33.71 14.28 31.59 C 15.10 29.57 16.28 27.72 17.17 25.73 C 14.38 26.49 11.45 29.41 8.56 27.42 C 7.53 25.55 8.16 22.93 9.15 21.13 C 13.72 19.49 18.87 19.79 23.45 21.27 C 24.95 20.83 26.45 20.42 27.97 20.04 C 27.26 17.90 26.64 15.62 25.04 13.95 C 20.70 8.92 12.13 8.73 7.46 13.40 M 35.98 12.93 C 33.76 14.69 32.80 17.42 32.03 20.04 C 33.54 20.42 35.04 20.83 36.53 21.27 C 40.50 19.93 44.79 19.71 48.89 20.52 C 52.16 20.59 52.44 25.22 51.43 27.42 C 48.56 29.40 45.62 26.51 42.85 25.72 C 43.73 27.70 44.73 29.63 45.82 31.51 C 45.84 33.66 45.96 35.81 46.12 37.95 C 50.62 36.45 52.70 32.05 55.38 28.53 C 56.51 24.65 56.32 20.15 54.71 16.41 C 51.50 9.56 41.48 7.96 35.98 12.93 M 26.38 24.54 C 22.11 25.70 18.75 29.54 18.20 33.93 C 17.89 37.59 17.28 41.94 20.21 44.76 C 22.50 48.55 25.93 52.68 30.90 51.94 C 36.24 51.57 38.54 46.23 41.38 42.52 C 42.65 37.75 42.44 31.85 39.04 27.93 C 35.96 24.43 30.78 23.24 26.38 24.54 Z" />
<path fill="#ffffff" opacity="1.00" d=" M 24.33 34.70 C 28.43 33.81 32.93 33.65 36.89 35.17 C 37.81 36.99 38.48 39.55 37.43 41.41 C 35.01 43.15 32.18 41.23 30.00 39.98 C 27.79 41.28 24.06 43.61 22.14 40.77 C 22.15 38.75 21.74 35.23 24.33 34.70 Z" />
<path fill="#ffffff" opacity="1.00" d=" M 29.35 44.07 C 31.73 43.30 33.06 46.87 30.81 47.90 C 28.30 48.87 26.79 44.92 29.35 44.07 Z" />
</g>
<g id="#000000ff">
<path fill="#000000" opacity="1.00" d=" M 7.46 13.40 C 12.13 8.73 20.70 8.92 25.04 13.95 C 26.64 15.62 27.26 17.90 27.97 20.04 C 26.45 20.42 24.95 20.83 23.45 21.27 C 18.87 19.79 13.72 19.49 9.15 21.13 C 8.16 22.93 7.53 25.55 8.56 27.42 C 11.45 29.41 14.38 26.49 17.17 25.73 C 16.28 27.72 15.10 29.57 14.28 31.59 C 14.08 33.71 14.03 35.84 13.86 37.96 C 9.35 36.44 7.28 32.02 4.59 28.49 C 3.32 23.50 3.56 17.26 7.46 13.40 Z" />
<path fill="#000000" opacity="1.00" d=" M 35.98 12.93 C 41.48 7.96 51.50 9.56 54.71 16.41 C 56.32 20.15 56.51 24.65 55.38 28.53 C 52.70 32.05 50.62 36.45 46.12 37.95 C 45.96 35.81 45.84 33.66 45.82 31.51 C 44.73 29.63 43.73 27.70 42.85 25.72 C 45.62 26.51 48.56 29.40 51.43 27.42 C 52.44 25.22 52.16 20.59 48.89 20.52 C 44.79 19.71 40.50 19.93 36.53 21.27 C 35.04 20.83 33.54 20.42 32.03 20.04 C 32.80 17.42 33.76 14.69 35.98 12.93 Z" />
<path fill="#000000" opacity="1.00" d=" M 26.38 24.54 C 30.78 23.24 35.96 24.43 39.04 27.93 C 42.44 31.85 42.65 37.75 41.38 42.52 C 38.54 46.23 36.24 51.57 30.90 51.94 C 25.93 52.68 22.50 48.55 20.21 44.76 C 17.28 41.94 17.89 37.59 18.20 33.93 C 18.75 29.54 22.11 25.70 26.38 24.54 M 24.33 34.70 C 21.74 35.23 22.15 38.75 22.14 40.77 C 24.06 43.61 27.79 41.28 30.00 39.98 C 32.18 41.23 35.01 43.15 37.43 41.41 C 38.48 39.55 37.81 36.99 36.89 35.17 C 32.93 33.65 28.43 33.81 24.33 34.70 M 29.35 44.07 C 26.79 44.92 28.30 48.87 30.81 47.90 C 33.06 46.87 31.73 43.30 29.35 44.07 Z" />
</g>
</svg>
