<?xml version="1.0" encoding="UTF-8" ?>
<!DOCTYPE svg PUBLIC "-//W3C//DTD SVG 1.1//EN" "http://www.w3.org/Graphics/SVG/1.1/DTD/svg11.dtd">
<svg width="60pt" height="60pt" viewBox="0 0 60 60" version="1.1" xmlns="http://www.w3.org/2000/svg">
<g id="#ffffffff">
<path fill="#ffffff" opacity="1.00" d=" M 0.00 0.00 L 60.00 0.00 L 60.00 60.00 L 0.00 60.00 L 0.00 0.00 M 31.43 6.59 C 24.77 8.26 19.39 14.08 18.28 20.87 C 17.14 27.03 19.52 33.69 24.34 37.70 C 29.10 41.83 36.11 43.12 42.03 40.94 C 48.35 38.77 53.14 32.79 53.85 26.14 C 54.62 20.26 52.20 14.11 47.66 10.30 C 43.28 6.50 37.02 5.10 31.43 6.59 M 9.80 40.10 C 10.11 40.61 10.74 41.61 11.05 42.12 C 9.31 43.66 6.72 45.86 8.99 48.15 C 7.78 49.57 4.76 51.38 6.61 53.44 C 8.69 55.14 10.48 52.19 11.89 50.95 C 12.40 51.26 13.41 51.89 13.91 52.21 C 15.46 51.42 16.73 50.24 17.88 48.95 C 18.39 49.26 19.40 49.88 19.91 50.19 C 23.03 48.60 25.74 46.32 28.93 44.84 C 22.58 42.63 17.42 37.50 15.19 31.15 C 13.77 34.36 11.42 37.01 9.80 40.10 Z" />
<path fill="#ffffff" opacity="1.00" d=" M 35.24 10.12 C 37.54 9.15 39.09 12.85 36.81 13.82 C 34.39 15.02 32.71 11.00 35.24 10.12 Z" />
<path fill="#ffffff" opacity="1.00" d=" M 26.12 14.09 C 27.84 12.23 30.83 15.23 28.96 16.95 C 27.21 19.01 24.05 15.82 26.12 14.09 Z" />
<path fill="#ffffff" opacity="1.00" d=" M 43.08 14.04 C 44.77 12.05 47.86 15.21 45.88 16.89 C 44.15 18.88 41.02 15.68 43.08 14.04 Z" />
<path fill="#ffffff" opacity="1.00" d=" M 23.27 22.16 C 25.63 21.20 27.18 24.95 24.82 25.91 C 22.42 26.98 20.84 23.12 23.27 22.16 Z" />
<path fill="#ffffff" opacity="1.00" d=" M 35.18 22.15 C 39.47 21.85 43.78 21.98 48.07 22.07 C 50.13 21.89 50.69 25.06 48.87 25.83 C 44.59 26.18 40.28 26.00 36.00 25.94 C 33.89 26.18 33.25 22.88 35.18 22.15 Z" />
<path fill="#ffffff" opacity="1.00" d=" M 26.17 31.12 C 27.89 29.13 30.96 32.21 29.02 33.97 C 27.28 35.87 24.20 32.85 26.17 31.12 Z" />
<path fill="#ffffff" opacity="1.00" d=" M 43.08 31.10 C 44.76 28.92 48.05 32.20 45.93 33.90 C 44.24 35.75 41.24 32.79 43.08 31.10 Z" />
<path fill="#ffffff" opacity="1.00" d=" M 34.65 34.66 C 36.36 32.53 39.56 35.80 37.41 37.49 C 35.66 39.28 32.82 36.25 34.65 34.66 Z" />
</g>
<g id="#000000ff">
<path fill="#000000" opacity="1.00" d=" M 31.43 6.59 C 37.02 5.10 43.28 6.50 47.66 10.30 C 52.20 14.11 54.62 20.26 53.85 26.14 C 53.14 32.79 48.35 38.77 42.03 40.94 C 36.11 43.12 29.10 41.83 24.34 37.70 C 19.52 33.69 17.14 27.03 18.28 20.87 C 19.39 14.08 24.77 8.26 31.43 6.59 M 35.24 10.12 C 32.71 11.00 34.39 15.02 36.81 13.82 C 39.09 12.85 37.54 9.15 35.24 10.12 M 26.12 14.09 C 24.05 15.82 27.21 19.01 28.96 16.95 C 30.83 15.23 27.84 12.23 26.12 14.09 M 43.08 14.04 C 41.02 15.68 44.15 18.88 45.88 16.89 C 47.86 15.21 44.77 12.05 43.08 14.04 M 23.27 22.16 C 20.84 23.12 22.42 26.98 24.82 25.91 C 27.18 24.95 25.63 21.20 23.27 22.16 M 35.18 22.15 C 33.25 22.88 33.89 26.18 36.00 25.94 C 40.28 26.00 44.59 26.18 48.87 25.83 C 50.69 25.06 50.13 21.89 48.07 22.07 C 43.78 21.98 39.47 21.85 35.18 22.15 M 26.17 31.12 C 24.20 32.85 27.28 35.87 29.02 33.97 C 30.96 32.21 27.89 29.13 26.17 31.12 M 43.08 31.10 C 41.24 32.79 44.24 35.75 45.93 33.90 C 48.05 32.20 44.76 28.92 43.08 31.10 M 34.65 34.66 C 32.82 36.25 35.66 39.28 37.41 37.49 C 39.56 35.80 36.36 32.53 34.65 34.66 Z" />
<path fill="#000000" opacity="1.00" d=" M 9.80 40.10 C 11.42 37.01 13.77 34.36 15.19 31.15 C 17.42 37.50 22.58 42.63 28.93 44.84 C 25.74 46.32 23.03 48.60 19.91 50.19 C 19.40 49.88 18.39 49.26 17.88 48.95 C 16.73 50.24 15.46 51.42 13.91 52.21 C 13.41 51.89 12.40 51.26 11.89 50.95 C 10.48 52.19 8.69 55.14 6.61 53.44 C 4.76 51.38 7.78 49.57 8.99 48.15 C 6.72 45.86 9.31 43.66 11.05 42.12 C 10.74 41.61 10.11 40.61 9.80 40.10 Z" />
</g>
</svg>
