<?xml version="1.0" encoding="UTF-8" ?>
<!DOCTYPE svg PUBLIC "-//W3C//DTD SVG 1.1//EN" "http://www.w3.org/Graphics/SVG/1.1/DTD/svg11.dtd">
<svg width="60pt" height="60pt" viewBox="0 0 60 60" version="1.1" xmlns="http://www.w3.org/2000/svg">
<g id="#ffffffff">
<path fill="#ffffff" opacity="1.00" d=" M 0.00 0.00 L 60.00 0.00 L 60.00 60.00 L 0.00 60.00 L 0.00 0.00 M 38.50 5.51 C 33.44 6.22 30.64 10.97 27.09 14.09 C 21.46 19.00 17.81 25.60 13.32 31.47 C 12.56 32.55 11.21 34.20 12.62 35.37 C 16.19 39.13 19.97 42.70 23.59 46.43 C 24.44 47.18 25.47 48.56 26.76 47.80 C 31.57 44.65 36.19 41.18 40.85 37.80 C 44.69 34.32 48.27 30.54 51.91 26.85 C 55.49 23.14 55.45 16.71 51.83 13.05 C 48.33 9.30 44.27 4.43 38.50 5.51 M 11.02 39.51 C 9.88 41.66 8.82 43.86 7.83 46.08 C 8.13 46.59 8.74 47.61 9.04 48.12 C 7.87 49.56 5.56 50.68 6.09 52.86 C 7.96 55.59 10.46 52.46 11.89 50.96 C 12.39 51.26 13.39 51.85 13.88 52.15 C 16.13 51.18 18.35 50.13 20.52 49.00 C 17.35 45.84 14.20 42.66 11.02 39.51 Z" />
<path fill="#ffffff" opacity="1.00" d=" M 39.36 12.34 C 41.73 11.10 43.48 13.67 45.00 15.05 C 46.36 16.55 48.87 18.28 47.67 20.60 C 44.94 24.00 41.54 26.82 38.55 30.00 C 35.70 27.15 32.87 24.29 30.01 21.46 C 33.16 18.45 36.01 15.12 39.36 12.34 Z" />
<path fill="#ffffff" opacity="1.00" d=" M 23.19 28.17 C 25.55 26.98 27.23 31.02 24.73 31.86 C 22.42 32.91 20.83 29.06 23.19 28.17 Z" />
<path fill="#ffffff" opacity="1.00" d=" M 29.15 28.19 C 31.45 26.97 33.24 30.82 30.85 31.81 C 28.57 33.04 26.76 29.15 29.15 28.19 Z" />
<path fill="#ffffff" opacity="1.00" d=" M 23.21 34.09 C 25.63 33.17 27.12 36.83 24.81 37.89 C 22.40 38.87 20.85 35.15 23.21 34.09 Z" />
<path fill="#ffffff" opacity="1.00" d=" M 29.21 34.13 C 31.58 33.08 33.19 36.92 30.79 37.83 C 28.46 38.99 26.80 35.06 29.21 34.13 Z" />
</g>
<g id="#000000ff">
<path fill="#000000" opacity="1.00" d=" M 38.50 5.51 C 44.27 4.43 48.33 9.30 51.83 13.05 C 55.45 16.71 55.49 23.14 51.91 26.85 C 48.27 30.54 44.69 34.32 40.85 37.80 C 36.19 41.18 31.57 44.65 26.76 47.80 C 25.47 48.56 24.44 47.18 23.59 46.43 C 19.97 42.70 16.19 39.13 12.62 35.37 C 11.21 34.20 12.56 32.55 13.32 31.47 C 17.81 25.60 21.46 19.00 27.09 14.09 C 30.64 10.97 33.44 6.22 38.50 5.51 M 39.36 12.34 C 36.01 15.12 33.16 18.45 30.01 21.46 C 32.87 24.29 35.70 27.15 38.55 30.00 C 41.54 26.82 44.94 24.00 47.67 20.60 C 48.87 18.28 46.36 16.55 45.00 15.05 C 43.48 13.67 41.73 11.10 39.36 12.34 M 23.19 28.17 C 20.83 29.06 22.42 32.91 24.73 31.86 C 27.23 31.02 25.55 26.98 23.19 28.17 M 29.15 28.19 C 26.76 29.15 28.57 33.04 30.85 31.81 C 33.24 30.82 31.45 26.97 29.15 28.19 M 23.21 34.09 C 20.85 35.15 22.40 38.87 24.81 37.89 C 27.12 36.83 25.63 33.17 23.21 34.09 M 29.21 34.13 C 26.80 35.06 28.46 38.99 30.79 37.83 C 33.19 36.92 31.58 33.08 29.21 34.13 Z" />
<path fill="#000000" opacity="1.00" d=" M 11.02 39.51 C 14.20 42.66 17.35 45.84 20.52 49.00 C 18.35 50.13 16.13 51.18 13.88 52.15 C 13.39 51.85 12.39 51.26 11.89 50.96 C 10.46 52.46 7.96 55.59 6.09 52.86 C 5.56 50.68 7.87 49.56 9.04 48.12 C 8.74 47.61 8.13 46.59 7.83 46.08 C 8.82 43.86 9.88 41.66 11.02 39.51 Z" />
</g>
</svg>
