<?xml version="1.0" encoding="UTF-8" ?>
<!DOCTYPE svg PUBLIC "-//W3C//DTD SVG 1.1//EN" "http://www.w3.org/Graphics/SVG/1.1/DTD/svg11.dtd">
<svg width="60pt" height="60pt" viewBox="0 0 60 60" version="1.1" xmlns="http://www.w3.org/2000/svg">
<g id="#ffffffff">
<path fill="#ffffff" opacity="1.00" d=" M 0.00 0.00 L 60.00 0.00 L 60.00 60.00 L 0.00 60.00 L 0.00 0.00 M 22.24 6.29 C 17.78 9.69 13.69 13.77 10.29 18.24 C 9.61 28.47 10.18 38.79 10.01 49.06 C 9.66 51.48 11.35 54.12 13.99 53.94 C 24.66 54.05 35.34 54.04 46.01 53.94 C 48.16 54.07 50.00 52.13 49.95 50.01 C 50.08 37.33 49.95 24.63 50.01 11.94 C 49.93 10.32 50.16 8.38 48.84 7.16 C 47.35 5.61 44.96 6.13 43.03 5.98 C 36.11 6.20 29.13 5.61 22.24 6.29 Z" />
<path fill="#ffffff" opacity="1.00" d=" M 22.05 12.03 C 23.35 11.94 24.65 11.94 25.96 12.03 C 26.06 14.67 26.06 17.32 25.95 19.97 C 24.65 20.05 23.35 20.05 22.05 19.97 C 21.94 17.32 21.94 14.67 22.05 12.03 Z" />
<path fill="#ffffff" opacity="1.00" d=" M 28.05 12.02 C 29.35 11.94 30.65 11.95 31.96 12.03 C 32.06 14.67 32.06 17.33 31.95 19.97 C 30.65 20.05 29.35 20.06 28.04 19.98 C 27.94 17.33 27.94 14.67 28.05 12.02 Z" />
<path fill="#ffffff" opacity="1.00" d=" M 34.04 12.03 C 35.35 11.94 36.65 11.94 37.95 12.02 C 38.06 14.67 38.06 17.33 37.95 19.97 C 36.65 20.05 35.35 20.05 34.04 19.97 C 33.94 17.33 33.94 14.68 34.04 12.03 Z" />
<path fill="#ffffff" opacity="1.00" d=" M 40.05 12.02 C 41.35 11.94 42.65 11.95 43.95 12.03 C 44.07 14.67 44.06 17.32 43.95 19.97 C 42.65 20.05 41.35 20.05 40.05 19.97 C 39.93 17.33 39.93 14.67 40.05 12.02 Z" />
<path fill="#ffffff" opacity="1.00" d=" M 16.20 18.25 C 17.35 17.11 18.31 15.47 19.95 15.03 C 20.02 18.01 20.08 21.00 19.96 23.98 C 18.65 24.06 17.34 24.06 16.03 23.97 C 15.94 22.07 15.86 20.14 16.20 18.25 Z" />
</g>
<g id="#000000ff">
<path fill="#000000" opacity="1.00" d=" M 22.24 6.29 C 29.13 5.61 36.11 6.20 43.03 5.98 C 44.96 6.13 47.35 5.61 48.84 7.16 C 50.16 8.38 49.93 10.32 50.01 11.94 C 49.95 24.63 50.08 37.33 49.95 50.01 C 50.00 52.13 48.16 54.07 46.01 53.94 C 35.34 54.04 24.66 54.05 13.99 53.94 C 11.35 54.12 9.66 51.48 10.01 49.06 C 10.18 38.79 9.61 28.47 10.29 18.24 C 13.69 13.77 17.78 9.69 22.24 6.29 M 22.05 12.03 C 21.94 14.67 21.94 17.32 22.05 19.97 C 23.35 20.05 24.65 20.05 25.95 19.97 C 26.06 17.32 26.06 14.67 25.96 12.03 C 24.65 11.94 23.35 11.94 22.05 12.03 M 28.05 12.02 C 27.94 14.67 27.94 17.33 28.04 19.98 C 29.35 20.06 30.65 20.05 31.95 19.97 C 32.06 17.33 32.06 14.67 31.96 12.03 C 30.65 11.95 29.35 11.94 28.05 12.02 M 34.04 12.03 C 33.94 14.68 33.94 17.33 34.04 19.97 C 35.35 20.05 36.65 20.05 37.95 19.97 C 38.06 17.33 38.06 14.67 37.95 12.02 C 36.65 11.94 35.35 11.94 34.04 12.03 M 40.05 12.02 C 39.93 14.67 39.93 17.33 40.05 19.97 C 41.35 20.05 42.65 20.05 43.95 19.97 C 44.06 17.32 44.07 14.67 43.95 12.03 C 42.65 11.95 41.35 11.94 40.05 12.02 M 16.20 18.25 C 15.86 20.14 15.94 22.07 16.03 23.97 C 17.34 24.06 18.65 24.06 19.96 23.98 C 20.08 21.00 20.02 18.01 19.95 15.03 C 18.31 15.47 17.35 17.11 16.20 18.25 Z" />
</g>
</svg>
