<?xml version="1.0" encoding="UTF-8" ?>
<!DOCTYPE svg PUBLIC "-//W3C//DTD SVG 1.1//EN" "http://www.w3.org/Graphics/SVG/1.1/DTD/svg11.dtd">
<svg width="64pt" height="64pt" viewBox="0 0 64 64" version="1.1" xmlns="http://www.w3.org/2000/svg">
<g id="#ffffffff">
<path fill="#ffffff" opacity="1.00" d=" M 0.00 0.00 L 64.00 0.00 L 64.00 64.00 L 0.00 64.00 L 0.00 0.00 M 19.02 9.97 C 16.80 13.10 14.25 15.99 12.17 19.23 C 11.75 30.80 12.13 42.42 11.99 54.01 C 24.66 53.99 37.34 54.00 50.01 54.01 C 50.00 39.34 49.99 24.67 50.01 9.99 C 39.68 9.99 29.35 10.03 19.02 9.97 Z" />
<path fill="#ffffff" opacity="1.00" d=" M 21.04 13.98 C 29.36 14.02 37.68 14.00 46.01 13.99 C 46.00 26.00 46.00 38.00 46.01 50.01 C 36.00 49.99 26.00 50.00 15.99 50.01 C 16.08 40.37 15.86 30.73 16.08 21.10 C 17.16 18.40 19.46 16.40 21.04 13.98 M 25.99 18.00 C 26.02 20.67 26.02 23.33 25.99 26.00 C 27.33 26.00 28.67 26.00 30.01 26.00 C 29.98 23.33 29.98 20.67 30.01 18.00 C 28.67 18.00 27.33 18.00 25.99 18.00 M 31.99 18.00 C 32.01 20.67 32.02 23.33 31.99 26.00 C 33.33 26.00 34.67 26.00 36.01 26.00 C 35.98 23.33 35.98 20.67 36.01 18.00 C 34.67 18.00 33.33 18.00 31.99 18.00 M 37.99 18.00 C 38.02 20.67 38.02 23.33 37.99 26.00 C 39.33 26.00 40.67 26.00 42.01 26.00 C 41.98 23.33 41.98 20.67 42.01 18.00 C 40.67 18.00 39.33 18.00 37.99 18.00 M 19.99 20.00 C 20.02 22.67 20.02 25.33 19.99 28.00 C 21.33 28.00 22.67 28.00 24.01 28.00 C 23.98 25.33 23.98 22.67 24.01 20.00 C 22.67 20.00 21.33 20.00 19.99 20.00 Z" />
</g>
<g id="#000000ff">
<path fill="#000000" opacity="1.00" d=" M 19.02 9.97 C 29.35 10.03 39.68 9.99 50.01 9.99 C 49.99 24.67 50.00 39.34 50.01 54.01 C 37.34 54.00 24.66 53.99 11.99 54.01 C 12.13 42.42 11.75 30.80 12.17 19.23 C 14.25 15.99 16.80 13.10 19.02 9.97 M 21.04 13.98 C 19.46 16.40 17.16 18.40 16.08 21.10 C 15.86 30.73 16.08 40.37 15.99 50.01 C 26.00 50.00 36.00 49.99 46.01 50.01 C 46.00 38.00 46.00 26.00 46.01 13.99 C 37.68 14.00 29.36 14.02 21.04 13.98 Z" />
<path fill="#000000" opacity="1.00" d=" M 25.99 18.00 C 27.33 18.00 28.67 18.00 30.01 18.00 C 29.98 20.67 29.98 23.33 30.01 26.00 C 28.67 26.00 27.33 26.00 25.99 26.00 C 26.02 23.33 26.02 20.67 25.99 18.00 Z" />
<path fill="#000000" opacity="1.00" d=" M 31.99 18.00 C 33.33 18.00 34.67 18.00 36.01 18.00 C 35.98 20.67 35.98 23.33 36.01 26.00 C 34.67 26.00 33.33 26.00 31.99 26.00 C 32.02 23.33 32.01 20.67 31.99 18.00 Z" />
<path fill="#000000" opacity="1.00" d=" M 37.99 18.00 C 39.33 18.00 40.67 18.00 42.01 18.00 C 41.98 20.67 41.98 23.33 42.01 26.00 C 40.67 26.00 39.33 26.00 37.99 26.00 C 38.02 23.33 38.02 20.67 37.99 18.00 Z" />
<path fill="#000000" opacity="1.00" d=" M 19.99 20.00 C 21.33 20.00 22.67 20.00 24.01 20.00 C 23.98 22.67 23.98 25.33 24.01 28.00 C 22.67 28.00 21.33 28.00 19.99 28.00 C 20.02 25.33 20.02 22.67 19.99 20.00 Z" />
</g>
</svg>
