<?xml version="1.0" encoding="UTF-8" ?>
<!DOCTYPE svg PUBLIC "-//W3C//DTD SVG 1.1//EN" "http://www.w3.org/Graphics/SVG/1.1/DTD/svg11.dtd">
<svg width="64pt" height="64pt" viewBox="0 0 64 64" version="1.1" xmlns="http://www.w3.org/2000/svg">
<g id="#ffffffff">
<path fill="#ffffff" opacity="1.00" d=" M 0.00 0.00 L 64.00 0.00 L 64.00 64.00 L 0.00 64.00 L 0.00 0.00 M 39.46 22.56 C 31.28 21.73 22.97 23.92 15.99 28.18 C 11.69 30.81 6.76 32.10 1.82 32.83 C 1.68 33.77 1.40 35.65 1.26 36.59 C 5.63 38.32 10.18 39.58 14.36 41.74 C 19.23 44.18 24.64 45.34 30.06 45.59 C 30.06 48.39 30.06 51.20 30.06 54.00 C 31.39 54.00 32.72 54.00 34.06 54.00 C 34.05 51.16 34.07 48.33 34.06 45.49 C 40.35 45.06 46.88 42.98 51.26 38.26 C 53.90 35.27 54.03 30.91 52.67 27.31 C 54.12 26.43 55.40 25.32 56.52 24.04 C 58.34 24.00 60.17 23.99 62.00 23.99 C 62.00 22.66 62.00 21.33 62.00 20.00 C 60.43 20.00 58.86 20.00 57.30 20.00 C 56.59 16.87 54.37 14.01 51.11 13.32 C 45.37 11.72 39.74 16.91 39.46 22.56 Z" />
<path fill="#ffffff" opacity="1.00" d=" M 45.04 18.99 C 47.09 16.22 52.14 16.45 53.10 20.07 C 53.75 23.71 48.67 23.51 48.06 26.73 C 49.42 29.56 50.50 33.36 47.99 35.91 C 41.69 41.83 32.19 42.48 24.09 40.87 C 18.88 40.01 14.45 36.97 9.50 35.34 C 10.96 34.83 12.41 34.30 13.86 33.77 C 19.17 37.33 25.62 39.63 32.07 38.88 C 37.08 38.22 42.33 35.19 43.61 29.98 C 44.83 26.41 42.20 22.07 45.04 18.99 Z" />
</g>
<g id="#000000ff">
<path fill="#000000" opacity="1.00" d=" M 39.46 22.56 C 39.74 16.91 45.37 11.72 51.11 13.32 C 54.37 14.01 56.59 16.87 57.30 20.00 C 58.86 20.00 60.43 20.00 62.00 20.00 C 62.00 21.33 62.00 22.66 62.00 23.99 C 60.17 23.99 58.34 24.00 56.52 24.04 C 55.40 25.32 54.12 26.43 52.67 27.31 C 54.03 30.91 53.90 35.27 51.26 38.26 C 46.88 42.98 40.35 45.06 34.06 45.49 C 34.07 48.33 34.05 51.16 34.06 54.00 C 32.72 54.00 31.39 54.00 30.06 54.00 C 30.06 51.20 30.06 48.39 30.06 45.59 C 24.64 45.34 19.23 44.18 14.36 41.74 C 10.18 39.58 5.63 38.32 1.26 36.59 C 1.40 35.65 1.68 33.77 1.82 32.83 C 6.76 32.10 11.69 30.81 15.99 28.18 C 22.97 23.92 31.28 21.73 39.46 22.56 M 45.04 18.99 C 42.20 22.07 44.83 26.41 43.61 29.98 C 42.33 35.19 37.08 38.22 32.07 38.88 C 25.62 39.63 19.17 37.33 13.86 33.77 C 12.41 34.30 10.96 34.83 9.50 35.34 C 14.45 36.97 18.88 40.01 24.09 40.87 C 32.19 42.48 41.69 41.83 47.99 35.91 C 50.50 33.36 49.42 29.56 48.06 26.73 C 48.67 23.51 53.75 23.71 53.10 20.07 C 52.14 16.45 47.09 16.22 45.04 18.99 Z" />
</g>
</svg>
