<?xml version="1.0" encoding="UTF-8" ?>
<!DOCTYPE svg PUBLIC "-//W3C//DTD SVG 1.1//EN" "http://www.w3.org/Graphics/SVG/1.1/DTD/svg11.dtd">
<svg width="60pt" height="60pt" viewBox="0 0 60 60" version="1.1" xmlns="http://www.w3.org/2000/svg">
<g id="#ffffffff">
<path fill="#ffffff" opacity="1.00" d=" M 0.00 0.00 L 60.00 0.00 L 60.00 60.00 L 0.00 60.00 L 0.00 0.00 M 18.52 6.87 C 14.89 7.78 8.46 6.88 8.06 11.95 C 8.14 19.59 7.13 27.58 10.03 34.86 C 13.26 43.07 20.06 49.49 27.85 53.39 C 29.17 54.15 30.79 54.14 32.12 53.42 C 40.11 49.43 47.06 42.76 50.18 34.26 C 52.75 27.45 51.85 20.05 51.99 12.93 C 52.22 10.86 51.10 8.53 48.89 8.17 C 38.94 6.01 28.61 5.32 18.52 6.87 Z" />
<path fill="#ffffff" opacity="1.00" d=" M 13.49 32.10 C 14.84 28.05 16.28 24.03 17.67 19.99 C 18.41 20.00 19.89 20.01 20.63 20.02 C 21.99 24.05 23.43 28.05 24.78 32.09 C 22.39 32.70 21.53 31.14 21.09 29.14 C 19.73 29.13 18.37 29.14 17.00 29.14 C 16.55 31.02 15.80 32.69 13.49 32.10 M 17.47 27.20 C 18.52 27.20 19.57 27.20 20.62 27.20 C 20.10 25.58 19.58 23.96 19.05 22.33 C 18.52 23.95 18.00 25.58 17.47 27.20 Z" />
<path fill="#ffffff" opacity="1.00" d=" M 26.81 20.00 C 29.45 20.00 32.10 20.00 34.75 20.00 C 34.74 20.53 34.74 21.60 34.74 22.13 C 32.93 22.13 31.12 22.14 29.31 22.14 C 29.31 22.84 29.31 24.23 29.31 24.93 C 31.05 24.93 32.79 24.93 34.53 24.93 C 35.17 28.21 31.25 26.58 29.32 26.94 C 29.32 27.67 29.31 29.13 29.31 29.86 C 31.12 29.86 32.92 29.87 34.73 29.87 C 34.74 30.40 34.75 31.46 34.76 31.99 C 32.11 32.00 29.46 32.00 26.81 32.00 C 26.81 28.00 26.81 24.00 26.81 20.00 Z" />
<path fill="#ffffff" opacity="1.00" d=" M 37.13 23.00 C 37.92 18.35 45.66 18.80 46.56 23.26 C 44.11 24.13 41.23 19.60 39.50 23.11 C 40.81 25.86 46.12 24.19 46.48 27.99 C 46.93 33.54 37.28 33.79 36.61 28.56 C 37.95 28.60 39.18 29.00 40.29 29.73 C 41.70 30.86 44.36 30.14 44.04 28.05 C 41.54 26.73 36.72 26.99 37.13 23.00 Z" />
</g>
<g id="#000000ff">
<path fill="#000000" opacity="1.00" d=" M 18.52 6.87 C 28.61 5.32 38.94 6.01 48.89 8.17 C 51.10 8.53 52.22 10.86 51.99 12.93 C 51.85 20.05 52.75 27.45 50.18 34.26 C 47.06 42.76 40.11 49.43 32.12 53.42 C 30.79 54.14 29.17 54.15 27.85 53.39 C 20.06 49.49 13.26 43.07 10.03 34.86 C 7.13 27.58 8.14 19.59 8.06 11.95 C 8.46 6.88 14.89 7.78 18.52 6.87 M 13.49 32.10 C 15.80 32.69 16.55 31.02 17.00 29.14 C 18.37 29.14 19.73 29.13 21.09 29.14 C 21.53 31.14 22.39 32.70 24.78 32.09 C 23.43 28.05 21.99 24.05 20.63 20.02 C 19.89 20.01 18.41 20.00 17.67 19.99 C 16.28 24.03 14.84 28.05 13.49 32.10 M 26.81 20.00 C 26.81 24.00 26.81 28.00 26.81 32.00 C 29.46 32.00 32.11 32.00 34.76 31.99 C 34.75 31.46 34.74 30.40 34.73 29.87 C 32.92 29.87 31.12 29.86 29.31 29.86 C 29.31 29.13 29.32 27.67 29.32 26.94 C 31.25 26.58 35.17 28.21 34.53 24.93 C 32.79 24.93 31.05 24.93 29.31 24.93 C 29.31 24.23 29.31 22.84 29.31 22.14 C 31.12 22.14 32.93 22.13 34.74 22.13 C 34.74 21.60 34.74 20.53 34.75 20.00 C 32.10 20.00 29.45 20.00 26.81 20.00 M 37.13 23.00 C 36.72 26.99 41.54 26.73 44.04 28.05 C 44.36 30.14 41.70 30.86 40.29 29.73 C 39.18 29.00 37.95 28.60 36.61 28.56 C 37.28 33.79 46.93 33.54 46.48 27.99 C 46.12 24.19 40.81 25.86 39.50 23.11 C 41.23 19.60 44.11 24.13 46.56 23.26 C 45.66 18.80 37.92 18.35 37.13 23.00 Z" />
<path fill="#000000" opacity="1.00" d=" M 17.47 27.20 C 18.00 25.58 18.52 23.95 19.05 22.33 C 19.58 23.96 20.10 25.58 20.62 27.20 C 19.57 27.20 18.52 27.20 17.47 27.20 Z" />
</g>
</svg>
