<?xml version="1.0" encoding="UTF-8" ?>
<!DOCTYPE svg PUBLIC "-//W3C//DTD SVG 1.1//EN" "http://www.w3.org/Graphics/SVG/1.1/DTD/svg11.dtd">
<svg width="60pt" height="60pt" viewBox="0 0 60 60" version="1.1" xmlns="http://www.w3.org/2000/svg">
<g id="#ffffffff">
<path fill="#ffffff" opacity="1.00" d=" M 0.00 0.00 L 60.00 0.00 L 60.00 60.00 L 0.00 60.00 L 0.00 0.00 M 18.53 6.87 C 15.06 7.80 9.50 6.84 8.18 11.07 C 7.92 20.44 6.89 30.65 12.05 39.02 C 16.17 45.70 22.46 51.62 30.01 53.99 C 37.77 51.54 44.23 45.37 48.30 38.39 C 53.01 30.38 51.98 20.78 51.93 11.89 C 51.97 10.13 50.65 8.51 48.92 8.18 C 38.97 6.00 28.63 5.33 18.53 6.87 Z" />
<path fill="#ffffff" opacity="1.00" d=" M 15.51 23.99 C 14.98 18.46 24.08 18.41 25.01 23.39 C 22.76 23.62 18.12 19.47 18.01 23.92 C 20.30 25.17 24.39 24.78 24.86 28.05 C 25.18 33.60 15.62 33.73 14.92 28.49 C 17.55 28.47 20.57 32.07 22.63 28.85 C 21.05 26.11 16.07 27.67 15.51 23.99 Z" />
<path fill="#ffffff" opacity="1.00" d=" M 27.02 23.92 C 26.50 18.46 35.59 18.44 36.49 23.38 C 34.07 23.83 30.88 19.78 29.33 23.19 C 30.84 25.79 35.92 24.28 36.31 27.97 C 36.75 33.57 27.34 33.71 26.33 28.64 C 28.95 28.26 31.97 32.02 34.04 28.95 C 32.76 26.01 27.37 27.74 27.02 23.92 Z" />
<path fill="#ffffff" opacity="1.00" d=" M 38.71 20.00 C 39.34 20.00 40.59 20.00 41.22 20.00 C 41.22 23.27 41.22 26.53 41.22 29.80 C 42.97 29.80 44.71 29.80 46.46 29.79 C 46.52 30.32 46.65 31.38 46.72 31.92 C 44.05 32.01 41.38 32.00 38.71 32.01 C 38.71 28.01 38.71 24.00 38.71 20.00 Z" />
</g>
<g id="#000000ff">
<path fill="#000000" opacity="1.00" d=" M 18.53 6.87 C 28.63 5.33 38.97 6.00 48.92 8.18 C 50.65 8.51 51.97 10.13 51.93 11.89 C 51.98 20.78 53.01 30.38 48.30 38.39 C 44.23 45.37 37.77 51.54 30.01 53.99 C 22.46 51.62 16.17 45.70 12.05 39.02 C 6.89 30.65 7.92 20.44 8.18 11.07 C 9.50 6.84 15.06 7.80 18.53 6.87 M 15.51 23.99 C 16.07 27.67 21.05 26.11 22.63 28.85 C 20.57 32.07 17.55 28.47 14.92 28.49 C 15.62 33.73 25.18 33.60 24.86 28.05 C 24.39 24.78 20.30 25.17 18.01 23.92 C 18.12 19.47 22.76 23.62 25.01 23.39 C 24.08 18.41 14.98 18.46 15.51 23.99 M 27.02 23.92 C 27.37 27.74 32.76 26.01 34.04 28.95 C 31.97 32.02 28.95 28.26 26.33 28.64 C 27.34 33.71 36.75 33.57 36.31 27.97 C 35.92 24.28 30.84 25.79 29.33 23.19 C 30.88 19.78 34.07 23.83 36.49 23.38 C 35.59 18.44 26.50 18.46 27.02 23.92 M 38.71 20.00 C 38.71 24.00 38.71 28.01 38.71 32.01 C 41.38 32.00 44.05 32.01 46.72 31.92 C 46.65 31.38 46.52 30.32 46.46 29.79 C 44.71 29.80 42.97 29.80 41.22 29.80 C 41.22 26.53 41.22 23.27 41.22 20.00 C 40.59 20.00 39.34 20.00 38.71 20.00 Z" />
</g>
</svg>
