<?xml version="1.0" encoding="UTF-8" ?>
<!DOCTYPE svg PUBLIC "-//W3C//DTD SVG 1.1//EN" "http://www.w3.org/Graphics/SVG/1.1/DTD/svg11.dtd">
<svg width="64pt" height="64pt" viewBox="0 0 64 64" version="1.1" xmlns="http://www.w3.org/2000/svg">
<g id="#ffffffff">
<path fill="#ffffff" opacity="1.00" d=" M 0.00 0.00 L 64.00 0.00 L 64.00 64.00 L 0.00 64.00 L 0.00 0.00 M 44.95 23.34 C 44.42 25.29 44.32 27.31 44.46 29.32 C 45.74 29.06 47.02 28.80 48.31 28.55 C 48.51 26.83 48.16 23.26 50.96 24.10 C 53.16 25.20 53.71 27.75 54.52 29.84 C 48.81 30.90 43.10 31.95 37.38 32.95 C 35.89 31.51 34.24 29.87 31.97 30.02 C 28.94 29.87 26.81 32.44 25.93 35.06 C 20.58 36.17 15.20 37.15 9.83 38.19 C 9.90 35.32 9.12 31.06 12.68 29.98 C 13.73 31.28 14.66 32.67 15.44 34.15 C 16.73 33.87 18.03 33.60 19.33 33.34 C 18.63 31.51 17.70 29.78 16.63 28.15 C 18.05 25.78 18.66 22.58 16.70 20.31 C 14.21 16.82 8.27 17.50 6.59 21.42 C 5.30 23.77 6.36 26.39 7.70 28.43 C 4.81 32.76 5.64 38.14 6.26 42.99 C 9.09 42.41 11.92 41.88 14.74 41.31 C 14.64 42.26 14.42 44.17 14.31 45.13 C 15.62 45.28 16.94 45.45 18.25 45.63 C 18.47 43.94 18.70 42.25 18.94 40.56 C 21.49 40.10 24.01 39.50 26.56 39.07 C 27.69 40.00 28.82 40.91 29.96 41.82 C 29.98 43.21 30.00 44.61 30.01 46.00 C 28.67 46.00 27.33 46.00 26.00 46.00 C 26.01 47.33 26.00 48.67 26.00 50.00 C 30.00 50.00 34.00 50.00 38.00 50.00 C 37.99 48.67 37.99 47.33 38.00 46.00 C 36.67 46.00 35.33 46.00 33.99 46.00 C 34.00 44.59 34.02 43.18 34.02 41.78 C 35.93 40.66 37.39 39.05 38.10 36.95 C 40.91 36.38 43.74 35.88 46.56 35.38 C 47.50 36.98 48.44 38.59 49.38 40.19 C 50.51 39.50 51.65 38.84 52.81 38.20 C 52.11 37.01 51.40 35.81 50.69 34.62 C 53.63 34.11 56.56 33.53 59.50 33.00 C 58.80 28.45 57.34 23.69 53.46 20.83 C 55.69 16.23 51.07 10.45 46.11 12.31 C 41.19 13.77 40.83 20.69 44.95 23.34 Z" />
<path fill="#ffffff" opacity="1.00" d=" M 47.16 16.10 C 49.55 15.14 51.13 18.70 48.88 19.89 C 46.43 20.90 44.83 17.24 47.16 16.10 Z" />
<path fill="#ffffff" opacity="1.00" d=" M 11.26 22.09 C 13.66 21.20 15.09 24.81 12.84 25.89 C 10.37 26.93 8.81 23.06 11.26 22.09 Z" />
<path fill="#ffffff" opacity="1.00" d=" M 31.23 34.18 C 33.54 33.04 35.15 36.81 32.86 37.89 C 30.48 38.98 28.75 35.08 31.23 34.18 Z" />
</g>
<g id="#000000ff">
<path fill="#000000" opacity="1.00" d=" M 44.95 23.34 C 40.83 20.69 41.19 13.77 46.11 12.31 C 51.07 10.45 55.69 16.23 53.46 20.83 C 57.34 23.69 58.80 28.45 59.50 33.00 C 56.56 33.53 53.63 34.11 50.69 34.62 C 51.40 35.81 52.11 37.01 52.81 38.20 C 51.65 38.84 50.51 39.50 49.38 40.19 C 48.44 38.59 47.50 36.98 46.56 35.38 C 43.74 35.88 40.91 36.38 38.10 36.95 C 37.39 39.05 35.93 40.66 34.02 41.78 C 34.02 43.18 34.00 44.59 33.99 46.00 C 35.33 46.00 36.67 46.00 38.00 46.00 C 37.99 47.33 37.99 48.67 38.00 50.00 C 34.00 50.00 30.00 50.00 26.00 50.00 C 26.00 48.67 26.01 47.33 26.00 46.00 C 27.33 46.00 28.67 46.00 30.01 46.00 C 30.00 44.61 29.98 43.21 29.96 41.82 C 28.82 40.91 27.69 40.00 26.56 39.07 C 24.01 39.50 21.49 40.10 18.94 40.56 C 18.70 42.25 18.47 43.94 18.25 45.63 C 16.94 45.45 15.62 45.28 14.31 45.13 C 14.42 44.17 14.64 42.26 14.74 41.31 C 11.92 41.88 9.09 42.41 6.26 42.99 C 5.64 38.14 4.81 32.76 7.70 28.43 C 6.36 26.39 5.30 23.77 6.59 21.42 C 8.27 17.50 14.21 16.82 16.70 20.31 C 18.66 22.58 18.05 25.78 16.63 28.15 C 17.70 29.78 18.63 31.51 19.33 33.34 C 18.03 33.60 16.73 33.87 15.44 34.15 C 14.66 32.67 13.73 31.28 12.68 29.98 C 9.12 31.06 9.90 35.32 9.83 38.19 C 15.20 37.15 20.58 36.17 25.93 35.06 C 26.81 32.44 28.94 29.87 31.97 30.02 C 34.24 29.87 35.89 31.51 37.38 32.95 C 43.10 31.95 48.81 30.90 54.52 29.84 C 53.71 27.75 53.16 25.20 50.96 24.10 C 48.16 23.26 48.51 26.83 48.31 28.55 C 47.02 28.80 45.74 29.06 44.46 29.32 C 44.32 27.31 44.42 25.29 44.95 23.34 M 47.16 16.10 C 44.83 17.24 46.43 20.90 48.88 19.89 C 51.13 18.70 49.55 15.14 47.16 16.10 M 11.26 22.09 C 8.81 23.06 10.37 26.93 12.84 25.89 C 15.09 24.81 13.66 21.20 11.26 22.09 M 31.23 34.18 C 28.75 35.08 30.48 38.98 32.86 37.89 C 35.15 36.81 33.54 33.04 31.23 34.18 Z" />
</g>
</svg>
