<?xml version="1.0" encoding="UTF-8" ?>
<!DOCTYPE svg PUBLIC "-//W3C//DTD SVG 1.1//EN" "http://www.w3.org/Graphics/SVG/1.1/DTD/svg11.dtd">
<svg width="60pt" height="60pt" viewBox="0 0 60 60" version="1.1" xmlns="http://www.w3.org/2000/svg">
<g id="#ffffffff">
<path fill="#ffffff" opacity="1.00" d=" M 0.00 0.00 L 60.00 0.00 L 60.00 60.00 L 0.00 60.00 L 0.00 0.00 M 13.95 8.00 C 14.38 10.94 18.01 9.72 20.03 10.01 C 23.05 9.58 25.70 11.12 28.04 12.82 C 28.00 15.21 27.98 17.61 28.00 20.00 C 29.33 20.00 30.67 20.00 32.00 20.00 C 32.02 17.61 32.00 15.21 31.96 12.82 C 35.27 9.73 39.76 9.87 43.98 9.91 C 46.07 10.19 46.78 6.93 44.85 6.20 C 39.73 5.50 34.14 5.77 30.00 9.24 C 27.11 7.12 23.73 5.67 20.07 5.95 C 18.05 6.20 14.38 5.10 13.95 8.00 M 28.00 24.00 C 27.89 29.48 28.20 34.99 27.89 40.47 C 26.23 43.19 22.62 41.64 20.03 41.99 C 19.88 39.55 20.62 36.42 18.32 34.74 C 15.91 32.80 11.92 34.87 12.05 37.93 C 11.95 41.98 11.94 46.03 12.05 50.07 C 11.88 53.11 15.86 55.17 18.25 53.27 C 20.65 51.65 19.87 48.45 20.03 46.00 C 22.13 45.98 24.23 45.99 26.32 46.06 C 28.28 48.49 31.72 48.50 33.67 46.05 C 35.77 45.99 37.87 45.98 39.97 46.00 C 40.00 47.64 39.91 49.30 40.15 50.94 C 40.58 53.26 43.52 54.76 45.62 53.62 C 47.39 52.88 48.16 50.89 48.00 49.07 C 47.96 45.07 48.18 41.05 47.86 37.05 C 47.32 34.42 43.88 33.05 41.74 34.73 C 39.35 36.36 40.12 39.54 39.97 41.99 C 37.38 41.64 33.78 43.18 32.11 40.48 C 31.80 35.00 32.11 29.49 32.00 24.00 C 30.67 24.00 29.33 24.00 28.00 24.00 Z" />
</g>
<g id="#000000ff">
<path fill="#968176" opacity="1.00" d=" M 13.95 8.00 C 14.38 5.10 18.05 6.20 20.07 5.95 C 23.73 5.67 27.11 7.12 30.00 9.24 C 34.14 5.77 39.73 5.50 44.85 6.20 C 46.78 6.93 46.07 10.19 43.98 9.91 C 39.76 9.87 35.27 9.73 31.96 12.82 C 32.00 15.21 32.02 17.61 32.00 20.00 C 30.67 20.00 29.33 20.00 28.00 20.00 C 27.98 17.61 28.00 15.21 28.04 12.82 C 25.70 11.12 23.05 9.58 20.03 10.01 C 18.01 9.72 14.38 10.94 13.95 8.00 Z" />
<path fill="#968176" opacity="1.00" d=" M 28.00 24.00 C 29.33 24.00 30.67 24.00 32.00 24.00 C 32.11 29.49 31.80 35.00 32.11 40.48 C 33.78 43.18 37.38 41.64 39.97 41.99 C 40.12 39.54 39.35 36.36 41.74 34.73 C 43.88 33.05 47.32 34.42 47.86 37.05 C 48.18 41.05 47.96 45.07 48.00 49.07 C 48.16 50.89 47.39 52.88 45.62 53.62 C 43.52 54.76 40.58 53.26 40.15 50.94 C 39.91 49.30 40.00 47.64 39.97 46.00 C 37.87 45.98 35.77 45.99 33.67 46.05 C 31.72 48.50 28.28 48.49 26.32 46.06 C 24.23 45.99 22.13 45.98 20.03 46.00 C 19.87 48.45 20.65 51.65 18.25 53.27 C 15.86 55.17 11.88 53.11 12.05 50.07 C 11.94 46.03 11.95 41.98 12.05 37.93 C 11.92 34.87 15.91 32.80 18.32 34.74 C 20.62 36.42 19.88 39.55 20.03 41.99 C 22.62 41.64 26.23 43.19 27.89 40.47 C 28.20 34.99 27.89 29.48 28.00 24.00 Z" />
</g>
</svg>
