<?xml version="1.0" encoding="UTF-8" ?>
<!DOCTYPE svg PUBLIC "-//W3C//DTD SVG 1.1//EN" "http://www.w3.org/Graphics/SVG/1.1/DTD/svg11.dtd">
<svg width="64pt" height="64pt" viewBox="0 0 64 64" version="1.1" xmlns="http://www.w3.org/2000/svg">
<g id="#ffffffff">
<path fill="#ffffff" opacity="1.00" d=" M 0.00 0.00 L 64.00 0.00 L 64.00 64.00 L 0.00 64.00 L 0.00 0.00 M 54.60 8.59 C 49.73 13.44 44.87 18.30 40.01 23.17 C 37.82 20.97 35.61 18.77 33.39 16.59 C 32.47 17.53 31.53 18.46 30.59 19.39 C 33.71 22.55 36.88 25.67 40.00 28.83 C 45.82 23.03 51.62 17.22 57.41 11.40 C 56.48 10.46 55.54 9.52 54.60 8.59 M 11.76 11.77 C 9.73 13.60 10.01 16.52 9.98 19.00 C 10.08 28.70 9.90 38.41 10.06 48.11 C 9.96 51.25 12.80 54.04 15.93 53.95 C 26.66 54.04 37.39 54.05 48.12 53.94 C 51.24 54.02 54.03 51.21 53.94 48.09 C 54.09 37.95 53.96 27.81 53.99 17.66 C 52.69 19.05 51.09 20.20 50.11 21.85 C 49.70 30.84 50.35 39.87 49.82 48.86 C 49.59 49.10 49.13 49.57 48.90 49.81 C 38.61 50.27 28.28 49.85 17.98 50.02 C 16.55 50.02 13.99 50.17 14.08 48.09 C 13.94 37.40 13.95 26.69 14.07 16.00 C 13.90 14.42 15.65 13.83 16.92 14.01 C 26.70 14.00 36.48 13.96 46.25 14.05 C 47.61 12.82 48.78 11.40 50.07 10.09 C 39.73 9.88 29.38 10.08 19.04 9.98 C 16.55 10.01 13.61 9.73 11.76 11.77 M 18.41 36.97 C 19.29 39.37 22.06 39.91 24.21 40.51 C 23.54 43.41 19.79 40.51 17.72 41.20 C 18.30 43.04 18.99 45.29 21.16 45.74 C 24.75 47.17 28.96 43.67 27.87 39.87 C 27.33 36.92 24.19 36.06 21.70 35.46 C 22.74 32.81 26.18 35.59 28.30 34.85 C 27.63 32.80 26.57 30.41 24.13 30.11 C 20.35 29.07 16.64 33.43 18.41 36.97 M 32.82 45.07 C 36.06 47.30 40.13 45.24 41.83 42.11 C 39.05 41.64 35.27 43.10 33.57 40.10 C 36.47 39.94 39.37 40.03 42.26 39.95 C 41.71 36.16 37.97 32.81 34.04 34.34 C 29.39 35.68 28.60 42.72 32.82 45.07 Z" />
</g>
<g id="#000000ff">
<path fill="#000000" opacity="1.00" d=" M 54.60 8.59 C 55.54 9.52 56.48 10.46 57.41 11.40 C 51.62 17.22 45.82 23.03 40.00 28.83 C 36.88 25.67 33.71 22.55 30.59 19.39 C 31.53 18.46 32.47 17.53 33.39 16.59 C 35.61 18.77 37.82 20.97 40.01 23.17 C 44.87 18.30 49.73 13.44 54.60 8.59 Z" />
<path fill="#000000" opacity="1.00" d=" M 11.76 11.77 C 13.61 9.73 16.55 10.01 19.04 9.98 C 29.38 10.08 39.73 9.88 50.07 10.09 C 48.78 11.40 47.61 12.82 46.25 14.05 C 36.48 13.96 26.70 14.00 16.92 14.01 C 15.65 13.83 13.90 14.42 14.07 16.00 C 13.95 26.69 13.94 37.40 14.08 48.09 C 13.99 50.17 16.55 50.02 17.98 50.02 C 28.28 49.85 38.61 50.27 48.90 49.81 C 49.13 49.57 49.59 49.10 49.82 48.86 C 50.35 39.87 49.70 30.84 50.11 21.85 C 51.09 20.20 52.69 19.05 53.99 17.66 C 53.96 27.81 54.09 37.95 53.94 48.09 C 54.03 51.21 51.24 54.02 48.12 53.94 C 37.39 54.05 26.66 54.04 15.93 53.95 C 12.80 54.04 9.96 51.25 10.06 48.11 C 9.90 38.41 10.08 28.70 9.98 19.00 C 10.01 16.52 9.73 13.60 11.76 11.77 Z" />
<path fill="#000000" opacity="1.00" d=" M 18.41 36.97 C 16.64 33.43 20.35 29.07 24.13 30.11 C 26.57 30.41 27.63 32.80 28.30 34.85 C 26.18 35.59 22.74 32.81 21.70 35.46 C 24.19 36.06 27.33 36.92 27.87 39.87 C 28.96 43.67 24.75 47.17 21.16 45.74 C 18.99 45.29 18.30 43.04 17.72 41.20 C 19.79 40.51 23.54 43.41 24.21 40.51 C 22.06 39.91 19.29 39.37 18.41 36.97 Z" />
<path fill="#000000" opacity="1.00" d=" M 32.82 45.07 C 28.60 42.72 29.39 35.68 34.04 34.34 C 37.97 32.81 41.71 36.16 42.26 39.95 C 39.37 40.03 36.47 39.94 33.57 40.10 C 35.27 43.10 39.05 41.64 41.83 42.11 C 40.13 45.24 36.06 47.30 32.82 45.07 Z" />
</g>
</svg>
