<?xml version="1.0" encoding="UTF-8" ?>
<!DOCTYPE svg PUBLIC "-//W3C//DTD SVG 1.1//EN" "http://www.w3.org/Graphics/SVG/1.1/DTD/svg11.dtd">
<svg width="60pt" height="60pt" viewBox="0 0 60 60" version="1.1" xmlns="http://www.w3.org/2000/svg">
<g id="#ffffffff">
<path fill="#ffffff" opacity="1.00" d=" M 0.00 0.00 L 60.00 0.00 L 60.00 60.00 L 0.00 60.00 L 0.00 0.00 M 24.51 6.64 C 16.88 8.39 10.31 14.13 7.57 21.47 C 4.57 29.17 5.97 38.39 11.16 44.84 C 16.25 51.39 24.90 54.95 33.13 53.78 C 42.27 52.70 50.34 45.82 52.94 37.01 C 55.64 28.49 53.02 18.62 46.47 12.55 C 40.75 7.05 32.21 4.79 24.51 6.64 Z" />
<path fill="#ffffff" opacity="1.00" d=" M 15.86 24.39 C 12.78 22.61 13.30 15.02 17.87 16.18 C 19.92 16.60 19.98 18.99 19.95 20.64 C 20.62 21.06 21.30 21.48 21.97 21.90 C 24.12 19.78 26.81 17.90 29.97 18.04 C 33.16 17.88 35.86 19.77 38.03 21.89 C 38.70 21.47 39.38 21.06 40.05 20.64 C 39.51 18.31 41.14 15.23 43.88 16.17 C 46.73 17.03 45.83 20.60 45.73 22.83 C 45.08 24.67 42.96 23.73 41.77 23.08 C 41.01 23.50 40.26 23.92 39.51 24.35 C 40.43 27.84 39.46 31.32 38.66 34.72 C 37.96 36.48 35.60 35.74 34.15 36.10 C 34.86 40.06 30.95 40.56 28.00 39.95 C 25.90 40.08 26.06 37.50 25.85 36.10 C 24.40 35.75 22.15 36.45 21.35 34.79 C 20.54 31.37 19.56 27.87 20.48 24.36 C 19.67 23.89 18.87 23.40 18.07 22.92 C 17.52 23.29 16.42 24.03 15.86 24.39 M 23.41 28.47 C 20.09 30.37 23.40 35.76 26.60 33.52 C 29.89 31.62 26.61 26.27 23.41 28.47 M 33.40 28.47 C 31.33 29.64 31.71 33.24 34.08 33.80 C 35.49 34.41 37.38 33.48 37.77 31.99 C 38.94 29.50 35.60 26.89 33.40 28.47 M 29.99 37.28 C 31.72 37.26 31.77 34.30 30.03 34.26 C 28.27 34.24 28.26 37.21 29.99 37.28 Z" />
<path fill="#ffffff" opacity="1.00" d=" M 17.88 43.82 C 13.43 45.06 12.74 37.53 15.73 35.82 C 16.95 36.42 18.26 36.74 19.61 36.83 C 20.09 37.20 21.04 37.93 21.52 38.30 C 18.93 39.22 20.75 43.26 17.88 43.82 Z" />
<path fill="#ffffff" opacity="1.00" d=" M 40.26 36.83 C 42.02 36.90 44.62 35.12 45.72 37.10 C 46.02 39.60 46.59 43.92 42.93 44.01 C 39.38 44.01 40.95 39.57 38.53 38.26 C 38.96 37.90 39.83 37.18 40.26 36.83 Z" />
</g>
<g id="#000000ff">
<path fill="#000000" opacity="1.00" d=" M 24.51 6.64 C 32.21 4.79 40.75 7.05 46.47 12.55 C 53.02 18.62 55.64 28.49 52.94 37.01 C 50.34 45.82 42.27 52.70 33.13 53.78 C 24.90 54.95 16.25 51.39 11.16 44.84 C 5.97 38.39 4.57 29.17 7.57 21.47 C 10.31 14.13 16.88 8.39 24.51 6.64 M 15.86 24.39 C 16.42 24.03 17.52 23.29 18.07 22.92 C 18.87 23.40 19.67 23.89 20.48 24.36 C 19.56 27.87 20.54 31.37 21.35 34.79 C 22.15 36.45 24.40 35.75 25.85 36.10 C 26.06 37.50 25.90 40.08 28.00 39.95 C 30.95 40.56 34.86 40.06 34.15 36.10 C 35.60 35.74 37.96 36.48 38.66 34.72 C 39.46 31.32 40.43 27.84 39.51 24.35 C 40.26 23.92 41.01 23.50 41.77 23.08 C 42.96 23.73 45.08 24.67 45.73 22.83 C 45.83 20.60 46.73 17.03 43.88 16.17 C 41.14 15.23 39.51 18.31 40.05 20.64 C 39.38 21.06 38.70 21.47 38.03 21.89 C 35.86 19.77 33.16 17.88 29.97 18.04 C 26.81 17.90 24.12 19.78 21.97 21.90 C 21.30 21.48 20.62 21.06 19.95 20.64 C 19.98 18.99 19.92 16.60 17.87 16.18 C 13.30 15.02 12.78 22.61 15.86 24.39 M 17.88 43.82 C 20.75 43.26 18.93 39.22 21.52 38.30 C 21.04 37.93 20.09 37.20 19.61 36.83 C 18.26 36.74 16.95 36.42 15.73 35.82 C 12.74 37.53 13.43 45.06 17.88 43.82 M 40.26 36.83 C 39.83 37.18 38.96 37.90 38.53 38.26 C 40.95 39.57 39.38 44.01 42.93 44.01 C 46.59 43.92 46.02 39.60 45.72 37.10 C 44.62 35.12 42.02 36.90 40.26 36.83 Z" />
<path fill="#000000" opacity="1.00" d=" M 23.41 28.47 C 26.61 26.27 29.89 31.62 26.60 33.52 C 23.40 35.76 20.09 30.37 23.41 28.47 Z" />
<path fill="#000000" opacity="1.00" d=" M 33.40 28.47 C 35.60 26.89 38.94 29.50 37.77 31.99 C 37.38 33.48 35.49 34.41 34.08 33.80 C 31.71 33.24 31.33 29.64 33.40 28.47 Z" />
<path fill="#000000" opacity="1.00" d=" M 29.99 37.28 C 28.26 37.21 28.27 34.24 30.03 34.26 C 31.77 34.30 31.72 37.26 29.99 37.28 Z" />
</g>
</svg>
