<?xml version="1.0" encoding="UTF-8" ?>
<!DOCTYPE svg PUBLIC "-//W3C//DTD SVG 1.1//EN" "http://www.w3.org/Graphics/SVG/1.1/DTD/svg11.dtd">
<svg width="64pt" height="64pt" viewBox="0 0 64 64" version="1.1" xmlns="http://www.w3.org/2000/svg">
<g id="#ffffffff">
<path fill="#ffffff" opacity="1.00" d=" M 0.00 0.00 L 64.00 0.00 L 64.00 64.00 L 0.00 64.00 L 0.00 0.00 M 16.00 8.00 C 16.00 16.00 16.00 24.00 16.00 32.00 C 26.67 32.00 37.33 32.00 48.00 32.00 C 48.00 24.00 48.00 16.00 48.00 8.00 C 37.33 8.00 26.67 8.00 16.00 8.00 M 6.01 40.82 C 7.35 44.53 8.67 48.26 10.00 51.98 C 13.28 50.70 16.60 49.50 19.87 48.19 C 24.62 50.81 29.39 53.38 34.11 56.05 C 42.34 52.69 50.55 49.29 58.75 45.87 C 58.25 44.62 57.75 43.37 57.25 42.13 C 49.59 45.27 41.99 48.56 34.29 51.62 C 29.61 48.94 24.86 46.40 20.13 43.82 C 17.55 44.79 14.96 45.77 12.38 46.75 C 11.97 45.56 11.55 44.38 11.12 43.19 C 14.40 42.11 17.47 40.18 20.97 39.95 C 24.32 39.64 26.40 42.63 28.99 44.18 C 32.27 46.22 36.30 45.87 40.00 46.01 C 40.00 44.68 40.00 43.34 40.00 42.01 C 36.41 41.86 32.25 42.38 29.47 39.59 C 26.44 36.68 22.04 35.06 17.91 36.37 C 13.88 37.66 9.99 39.37 6.01 40.82 Z" />
<path fill="#ffffff" opacity="1.00" d=" M 20.00 12.00 C 28.00 12.00 36.00 12.00 44.00 12.00 C 44.00 17.33 44.00 22.67 44.00 28.00 C 36.00 28.00 28.00 28.00 20.00 28.00 C 20.00 22.67 20.00 17.33 20.00 12.00 M 27.11 14.11 C 25.39 14.66 25.38 17.39 27.15 17.89 C 30.37 18.07 33.62 18.17 36.83 17.82 C 38.38 17.20 38.38 14.80 36.82 14.18 C 33.60 13.83 30.34 13.94 27.11 14.11 Z" />
</g>
<g id="#000000ff">
<path fill="#000000" opacity="1.00" d=" M 16.00 8.00 C 26.67 8.00 37.33 8.00 48.00 8.00 C 48.00 16.00 48.00 24.00 48.00 32.00 C 37.33 32.00 26.67 32.00 16.00 32.00 C 16.00 24.00 16.00 16.00 16.00 8.00 M 20.00 12.00 C 20.00 17.33 20.00 22.67 20.00 28.00 C 28.00 28.00 36.00 28.00 44.00 28.00 C 44.00 22.67 44.00 17.33 44.00 12.00 C 36.00 12.00 28.00 12.00 20.00 12.00 Z" />
<path fill="#000000" opacity="1.00" d=" M 27.11 14.11 C 30.34 13.94 33.60 13.83 36.82 14.18 C 38.38 14.80 38.38 17.20 36.83 17.82 C 33.62 18.17 30.37 18.07 27.15 17.89 C 25.38 17.39 25.39 14.66 27.11 14.11 Z" />
<path fill="#000000" opacity="1.00" d=" M 6.01 40.82 C 9.99 39.37 13.88 37.66 17.91 36.37 C 22.04 35.06 26.44 36.68 29.47 39.59 C 32.25 42.38 36.41 41.86 40.00 42.01 C 40.00 43.34 40.00 44.68 40.00 46.01 C 36.30 45.87 32.27 46.22 28.99 44.18 C 26.40 42.63 24.32 39.64 20.97 39.95 C 17.47 40.18 14.40 42.11 11.12 43.19 C 11.55 44.38 11.97 45.56 12.38 46.75 C 14.96 45.77 17.55 44.79 20.13 43.82 C 24.86 46.40 29.61 48.94 34.29 51.62 C 41.99 48.56 49.59 45.27 57.25 42.13 C 57.75 43.37 58.25 44.62 58.75 45.87 C 50.55 49.29 42.34 52.69 34.11 56.05 C 29.39 53.38 24.62 50.81 19.87 48.19 C 16.60 49.50 13.28 50.70 10.00 51.98 C 8.67 48.26 7.35 44.53 6.01 40.82 Z" />
</g>
</svg>
