<?xml version="1.0" encoding="UTF-8" ?>
<!DOCTYPE svg PUBLIC "-//W3C//DTD SVG 1.1//EN" "http://www.w3.org/Graphics/SVG/1.1/DTD/svg11.dtd">
<svg width="60pt" height="60pt" viewBox="0 0 60 60" version="1.1" xmlns="http://www.w3.org/2000/svg">
<g id="#ffffffff">
<path fill="#ffffff" opacity="1.00" d=" M 0.00 0.00 L 60.00 0.00 L 60.00 60.00 L 0.00 60.00 L 0.00 0.00 M 12.31 4.41 C 10.57 5.19 9.79 7.16 10.00 8.98 C 10.03 23.36 9.93 37.75 10.05 52.13 C 9.95 54.64 12.59 56.33 14.90 56.00 C 25.31 55.97 35.72 56.07 46.13 55.95 C 48.59 55.98 50.35 53.42 50.00 51.10 C 49.87 40.12 50.28 29.10 49.79 18.15 C 45.35 13.32 40.65 8.70 35.86 4.21 C 30.27 3.70 24.61 4.16 18.99 3.99 C 16.78 4.12 14.42 3.64 12.31 4.41 Z" />
<path fill="#ffffff" opacity="1.00" d=" M 34.01 7.81 C 38.07 11.87 42.13 15.93 46.19 19.99 C 42.50 19.91 38.80 20.23 35.13 19.83 C 34.89 19.60 34.42 19.13 34.18 18.90 C 33.77 15.22 34.09 11.50 34.01 7.81 Z" />
<path fill="#ffffff" opacity="1.00" d=" M 30.16 28.81 C 29.12 26.41 32.66 24.96 33.90 27.09 C 36.52 30.10 40.30 32.44 42.01 36.04 C 40.36 39.42 36.84 41.58 34.42 44.43 C 33.44 45.87 31.10 46.77 30.12 44.83 C 29.87 41.72 33.54 40.25 35.18 38.01 C 29.83 37.87 24.45 38.25 19.11 37.82 C 17.32 37.03 17.85 33.92 19.91 34.07 C 25.00 33.87 30.09 34.07 35.18 33.99 C 33.50 32.27 31.68 30.69 30.16 28.81 Z" />
</g>
<g id="#000000ff">
<path fill="#000000" opacity="1.00" d=" M 12.31 4.41 C 14.42 3.64 16.78 4.12 18.99 3.99 C 24.61 4.16 30.27 3.70 35.86 4.21 C 40.65 8.70 45.35 13.32 49.79 18.15 C 50.28 29.10 49.87 40.12 50.00 51.10 C 50.35 53.42 48.59 55.98 46.13 55.95 C 35.72 56.07 25.31 55.97 14.90 56.00 C 12.59 56.33 9.95 54.64 10.05 52.13 C 9.93 37.75 10.03 23.36 10.00 8.98 C 9.79 7.16 10.57 5.19 12.31 4.41 M 34.01 7.81 C 34.09 11.50 33.77 15.22 34.18 18.90 C 34.42 19.13 34.89 19.60 35.13 19.83 C 38.80 20.23 42.50 19.91 46.19 19.99 C 42.13 15.93 38.07 11.87 34.01 7.81 M 30.16 28.81 C 31.68 30.69 33.50 32.27 35.18 33.99 C 30.09 34.07 25.00 33.87 19.91 34.07 C 17.85 33.92 17.32 37.03 19.11 37.82 C 24.45 38.25 29.83 37.87 35.18 38.01 C 33.54 40.25 29.87 41.72 30.12 44.83 C 31.10 46.77 33.44 45.87 34.42 44.43 C 36.84 41.58 40.36 39.42 42.01 36.04 C 40.30 32.44 36.52 30.10 33.90 27.09 C 32.66 24.96 29.12 26.41 30.16 28.81 Z" />
</g>
</svg>
