<?xml version="1.0" encoding="UTF-8" ?>
<!DOCTYPE svg PUBLIC "-//W3C//DTD SVG 1.1//EN" "http://www.w3.org/Graphics/SVG/1.1/DTD/svg11.dtd">
<svg width="64pt" height="64pt" viewBox="0 0 64 64" version="1.1" xmlns="http://www.w3.org/2000/svg">
<g id="#ffffffff">
<path fill="#ffffff" opacity="1.00" d=" M 0.00 0.00 L 64.00 0.00 L 64.00 64.00 L 0.00 64.00 L 0.00 0.00 M 25.56 9.39 C 22.54 11.52 21.48 15.38 18.84 17.84 C 15.52 19.13 11.83 19.20 8.57 20.69 C 5.10 22.88 5.92 27.54 6.16 31.01 C 6.80 33.76 9.90 34.17 12.25 34.13 C 13.55 36.10 15.40 38.09 17.97 38.00 C 20.60 38.11 22.50 36.07 23.77 34.02 C 29.26 33.99 34.74 33.99 40.23 34.02 C 41.47 36.06 43.35 38.07 45.94 38.00 C 48.54 38.13 50.43 36.13 51.72 34.13 C 53.88 34.05 56.67 33.99 57.62 31.62 C 58.35 28.78 58.05 25.75 57.84 22.85 C 57.37 19.91 54.38 18.74 51.85 18.06 C 50.06 14.97 49.25 10.89 45.88 9.05 C 42.85 7.42 39.25 8.17 35.96 7.98 C 32.50 8.18 28.61 7.33 25.56 9.39 M 26.00 36.00 C 26.00 37.33 26.00 38.67 26.00 40.00 C 27.33 40.00 28.67 40.00 30.00 40.00 C 30.00 44.00 30.00 48.00 30.00 52.00 C 23.67 52.00 17.33 52.00 11.00 52.00 C 11.00 53.33 11.00 54.67 11.00 56.00 C 25.00 56.00 39.00 56.00 53.00 56.00 C 53.00 54.67 53.00 53.33 53.00 52.00 C 46.67 52.00 40.33 52.00 34.00 52.00 C 34.00 48.00 34.00 44.00 34.00 40.00 C 35.33 40.00 36.67 40.00 38.00 40.00 C 38.00 38.67 38.00 37.33 38.00 36.00 C 34.00 36.00 30.00 36.00 26.00 36.00 Z" />
<path fill="#ffffff" opacity="1.00" d=" M 27.73 12.72 C 29.59 11.56 31.93 12.16 34.00 11.96 C 34.00 13.97 34.00 15.99 34.00 18.00 C 30.62 18.00 27.24 18.00 23.86 18.00 C 25.08 16.20 26.13 14.22 27.73 12.72 Z" />
<path fill="#ffffff" opacity="1.00" d=" M 38.00 11.96 C 40.24 12.20 43.01 11.39 44.79 13.17 C 45.91 14.62 46.55 16.36 47.35 17.99 C 44.23 18.01 41.12 18.00 38.00 18.00 C 38.00 15.99 38.00 13.97 38.00 11.96 Z" />
<path fill="#ffffff" opacity="1.00" d=" M 10.34 24.30 C 14.39 22.90 18.66 21.83 22.98 21.98 C 31.66 22.03 40.33 22.00 49.01 21.98 C 50.71 21.91 52.34 22.46 53.94 22.96 C 54.02 25.37 53.97 27.77 54.01 30.18 C 51.03 30.62 50.46 27.08 47.98 26.37 C 44.83 25.01 41.68 27.27 40.22 29.98 C 34.74 30.01 29.25 30.01 23.77 29.98 C 22.32 27.26 19.17 25.01 16.02 26.37 C 13.55 27.07 12.96 30.60 9.99 30.18 C 10.05 28.23 9.74 26.20 10.34 24.30 Z" />
<path fill="#ffffff" opacity="1.00" d=" M 17.09 30.11 C 19.55 29.08 21.18 32.77 18.83 33.89 C 16.43 34.86 14.90 31.31 17.09 30.11 Z" />
<path fill="#ffffff" opacity="1.00" d=" M 45.19 30.10 C 47.64 29.14 49.16 32.87 46.78 33.91 C 44.35 34.85 42.87 31.14 45.19 30.10 Z" />
</g>
<g id="#000000ff">
<path fill="#000000" opacity="1.00" d=" M 25.56 9.39 C 28.61 7.33 32.50 8.18 35.96 7.98 C 39.25 8.17 42.85 7.42 45.88 9.05 C 49.25 10.89 50.06 14.97 51.85 18.06 C 54.38 18.74 57.37 19.91 57.84 22.85 C 58.05 25.75 58.35 28.78 57.62 31.62 C 56.67 33.99 53.88 34.05 51.72 34.13 C 50.43 36.13 48.54 38.13 45.94 38.00 C 43.35 38.07 41.47 36.06 40.23 34.02 C 34.74 33.99 29.26 33.99 23.77 34.02 C 22.50 36.07 20.60 38.11 17.97 38.00 C 15.40 38.09 13.55 36.10 12.25 34.13 C 9.90 34.17 6.80 33.76 6.16 31.01 C 5.92 27.54 5.10 22.88 8.57 20.69 C 11.83 19.20 15.52 19.13 18.84 17.84 C 21.48 15.38 22.54 11.52 25.56 9.39 M 27.73 12.72 C 26.13 14.22 25.08 16.20 23.86 18.00 C 27.24 18.00 30.62 18.00 34.00 18.00 C 34.00 15.99 34.00 13.97 34.00 11.96 C 31.93 12.16 29.59 11.56 27.73 12.72 M 38.00 11.96 C 38.00 13.97 38.00 15.99 38.00 18.00 C 41.12 18.00 44.23 18.01 47.35 17.99 C 46.55 16.36 45.91 14.62 44.79 13.17 C 43.01 11.39 40.24 12.20 38.00 11.96 M 10.34 24.30 C 9.74 26.20 10.05 28.23 9.99 30.18 C 12.96 30.60 13.55 27.07 16.02 26.37 C 19.17 25.01 22.32 27.26 23.77 29.98 C 29.25 30.01 34.74 30.01 40.22 29.98 C 41.68 27.27 44.83 25.01 47.98 26.37 C 50.46 27.08 51.03 30.62 54.01 30.18 C 53.97 27.77 54.02 25.37 53.94 22.96 C 52.34 22.46 50.71 21.91 49.01 21.98 C 40.33 22.00 31.66 22.03 22.98 21.98 C 18.66 21.83 14.39 22.90 10.34 24.30 M 17.09 30.11 C 14.90 31.31 16.43 34.86 18.83 33.89 C 21.18 32.77 19.55 29.08 17.09 30.11 M 45.19 30.10 C 42.87 31.14 44.35 34.85 46.78 33.91 C 49.16 32.87 47.64 29.14 45.19 30.10 Z" />
<path fill="#000000" opacity="1.00" d=" M 26.00 36.00 C 30.00 36.00 34.00 36.00 38.00 36.00 C 38.00 37.33 38.00 38.67 38.00 40.00 C 36.67 40.00 35.33 40.00 34.00 40.00 C 34.00 44.00 34.00 48.00 34.00 52.00 C 40.33 52.00 46.67 52.00 53.00 52.00 C 53.00 53.33 53.00 54.67 53.00 56.00 C 39.00 56.00 25.00 56.00 11.00 56.00 C 11.00 54.67 11.00 53.33 11.00 52.00 C 17.33 52.00 23.67 52.00 30.00 52.00 C 30.00 48.00 30.00 44.00 30.00 40.00 C 28.67 40.00 27.33 40.00 26.00 40.00 C 26.00 38.67 26.00 37.33 26.00 36.00 Z" />
</g>
</svg>
