<?xml version="1.0" encoding="UTF-8" ?>
<!DOCTYPE svg PUBLIC "-//W3C//DTD SVG 1.1//EN" "http://www.w3.org/Graphics/SVG/1.1/DTD/svg11.dtd">
<svg width="60pt" height="60pt" viewBox="0 0 60 60" version="1.1" xmlns="http://www.w3.org/2000/svg">
<g id="#ffffffff">
<path fill="#ffffff" opacity="1.00" d=" M 0.00 0.00 L 38.74 0.00 C 38.31 1.40 37.89 2.81 37.51 4.23 C 34.91 5.35 32.77 4.17 31.09 2.13 C 30.58 2.39 29.55 2.91 29.03 3.18 C 29.09 5.00 30.57 7.37 28.74 8.73 C 27.40 10.62 25.00 9.04 23.16 9.04 C 22.79 9.79 22.42 10.55 22.04 11.30 C 24.55 12.19 26.76 13.70 27.88 16.20 C 29.11 15.52 30.35 14.86 31.59 14.21 C 33.90 12.03 36.62 9.77 40.01 10.02 C 45.35 9.89 50.13 14.70 49.98 20.04 C 50.18 23.42 47.94 26.12 45.76 28.41 C 45.15 29.63 44.53 30.84 43.90 32.05 C 46.27 33.30 47.80 35.45 48.68 37.94 C 49.44 37.57 50.21 37.20 50.97 36.83 C 50.96 34.99 49.39 32.59 51.26 31.26 C 52.58 29.40 54.95 30.94 56.77 30.94 C 57.07 30.42 57.67 29.38 57.97 28.86 C 56.99 27.87 56.01 26.88 55.02 25.89 C 55.33 24.72 55.64 23.55 55.96 22.39 C 57.31 22.04 58.65 21.69 60.00 21.33 L 60.00 60.00 L 23.22 60.00 C 23.68 58.66 24.11 57.32 24.53 55.97 C 26.00 55.57 27.47 55.19 28.95 54.83 C 30.01 55.88 31.07 56.93 32.14 57.98 C 35.30 56.36 32.01 52.53 34.63 50.68 C 36.50 48.00 40.31 51.29 41.99 48.15 C 40.91 47.05 39.83 45.97 38.74 44.88 C 39.18 43.42 39.49 41.90 40.22 40.55 C 41.44 40.06 42.69 39.61 43.95 39.22 C 43.93 38.39 43.91 37.57 43.89 36.75 C 42.66 36.36 41.44 35.94 40.24 35.47 C 39.49 34.12 39.19 32.58 38.75 31.11 C 39.83 30.04 40.91 28.96 41.98 27.87 C 40.36 24.68 36.47 28.02 34.63 25.31 C 32.57 23.97 33.69 21.61 34.02 19.71 C 33.48 19.35 32.41 18.62 31.87 18.25 C 30.88 19.25 29.89 20.25 28.90 21.26 C 27.43 20.81 25.90 20.51 24.54 19.77 C 24.06 18.56 23.63 17.34 23.24 16.09 C 22.42 16.08 21.60 16.06 20.79 16.05 C 20.01 17.49 20.24 19.98 18.23 20.32 C 17.20 20.66 16.16 20.97 15.11 21.25 C 14.04 20.17 12.95 19.09 11.87 18.02 C 8.68 19.63 12.01 23.51 9.33 25.36 C 7.45 27.95 3.69 24.73 2.00 27.84 C 3.08 28.94 4.16 30.03 5.26 31.12 C 4.83 32.55 4.51 34.03 3.84 35.38 C 2.58 35.92 1.30 36.41 -0.00 36.87 L 0.00 0.00 M 39.13 18.09 C 36.87 19.30 38.47 22.92 40.89 21.87 C 43.12 20.66 41.54 17.16 39.13 18.09 Z" />
<path fill="#ffffff" opacity="1.00" d=" M 41.35 0.00 L 60.00 0.00 L 60.00 18.75 C 58.66 18.33 57.31 17.92 55.95 17.54 C 55.63 16.39 55.32 15.24 55.01 14.09 C 55.98 13.14 56.96 12.18 57.93 11.22 C 57.66 10.68 57.12 9.60 56.85 9.05 C 55.01 9.06 52.60 10.60 51.26 8.72 C 49.42 7.37 50.91 5.00 50.97 3.18 C 50.45 2.92 49.43 2.39 48.91 2.13 C 47.21 4.19 45.03 5.36 42.42 4.22 C 42.06 2.81 41.70 1.40 41.35 0.00 Z" />
<path fill="#ffffff" opacity="1.00" d=" M 18.38 26.58 C 25.37 24.10 33.54 29.60 33.92 36.97 C 34.78 44.14 27.98 50.86 20.82 49.90 C 14.49 49.45 9.32 43.24 10.09 36.91 C 10.43 32.21 13.88 27.96 18.38 26.58 M 20.32 34.39 C 17.62 35.54 17.15 39.69 19.71 41.24 C 22.12 43.24 26.08 41.05 25.99 38.03 C 26.11 35.25 22.82 33.00 20.32 34.39 Z" />
<path fill="#ffffff" opacity="1.00" d=" M -0.00 39.07 C 1.28 39.57 2.55 40.10 3.81 40.64 C 4.53 41.96 4.82 43.46 5.25 44.90 C 4.16 45.97 3.07 47.06 2.00 48.15 C 3.71 51.29 7.53 47.99 9.41 50.70 C 11.94 52.60 8.73 56.34 11.85 57.99 C 12.94 56.92 14.02 55.84 15.10 54.75 C 16.55 55.18 18.06 55.48 19.41 56.19 C 19.93 57.45 20.41 58.72 20.86 60.00 L 0.00 60.00 L 0.00 39.07 Z" />
</g>
<g id="#000000ff">
<path fill="#000000" opacity="1.00" d=" M 38.74 0.00 L 41.35 0.00 C 41.70 1.40 42.06 2.81 42.42 4.22 C 45.03 5.36 47.21 4.19 48.91 2.13 C 49.43 2.39 50.45 2.92 50.97 3.18 C 50.91 5.00 49.42 7.37 51.26 8.72 C 52.60 10.60 55.01 9.06 56.85 9.05 C 57.12 9.60 57.66 10.68 57.93 11.22 C 56.96 12.18 55.98 13.14 55.01 14.09 C 55.32 15.24 55.63 16.39 55.95 17.54 C 57.31 17.92 58.66 18.33 60.00 18.75 L 60.00 21.33 C 58.65 21.69 57.31 22.04 55.96 22.39 C 55.64 23.55 55.33 24.72 55.02 25.89 C 56.01 26.88 56.99 27.87 57.97 28.86 C 57.67 29.38 57.07 30.42 56.77 30.94 C 54.95 30.94 52.58 29.40 51.26 31.26 C 49.39 32.59 50.96 34.99 50.97 36.83 C 50.21 37.20 49.44 37.57 48.68 37.94 C 47.80 35.45 46.27 33.30 43.90 32.05 C 44.53 30.84 45.15 29.63 45.76 28.41 C 47.94 26.12 50.18 23.42 49.98 20.04 C 50.13 14.70 45.35 9.89 40.01 10.02 C 36.62 9.77 33.90 12.03 31.59 14.21 C 30.35 14.86 29.11 15.52 27.88 16.20 C 26.76 13.70 24.55 12.19 22.04 11.30 C 22.42 10.55 22.79 9.79 23.16 9.04 C 25.00 9.04 27.40 10.62 28.74 8.73 C 30.57 7.37 29.09 5.00 29.03 3.18 C 29.55 2.91 30.58 2.39 31.09 2.13 C 32.77 4.17 34.91 5.35 37.51 4.23 C 37.89 2.81 38.31 1.40 38.74 0.00 Z" />
<path fill="#000000" opacity="1.00" d=" M 20.79 16.05 C 21.60 16.06 22.42 16.08 23.24 16.09 C 23.63 17.34 24.06 18.56 24.54 19.77 C 25.90 20.51 27.43 20.81 28.90 21.26 C 29.89 20.25 30.88 19.25 31.87 18.25 C 32.41 18.62 33.48 19.35 34.02 19.71 C 33.69 21.61 32.57 23.97 34.63 25.31 C 36.47 28.02 40.36 24.68 41.98 27.87 C 40.91 28.96 39.83 30.04 38.75 31.11 C 39.19 32.58 39.49 34.12 40.24 35.47 C 41.44 35.94 42.66 36.36 43.89 36.75 C 43.91 37.57 43.93 38.39 43.95 39.22 C 42.69 39.61 41.44 40.06 40.22 40.55 C 39.49 41.90 39.18 43.42 38.74 44.88 C 39.83 45.97 40.91 47.05 41.99 48.15 C 40.31 51.29 36.50 48.00 34.63 50.68 C 32.01 52.53 35.30 56.36 32.14 57.98 C 31.07 56.93 30.01 55.88 28.95 54.83 C 27.47 55.19 26.00 55.57 24.53 55.97 C 24.11 57.32 23.68 58.66 23.22 60.00 L 20.86 60.00 C 20.41 58.72 19.93 57.45 19.41 56.19 C 18.06 55.48 16.55 55.18 15.10 54.75 C 14.02 55.84 12.94 56.92 11.85 57.99 C 8.73 56.34 11.94 52.60 9.41 50.70 C 7.53 47.99 3.71 51.29 2.00 48.15 C 3.07 47.06 4.16 45.97 5.25 44.90 C 4.82 43.46 4.53 41.96 3.81 40.64 C 2.55 40.10 1.28 39.57 -0.00 39.07 L 0.00 36.87 C 1.30 36.41 2.58 35.92 3.84 35.38 C 4.51 34.03 4.83 32.55 5.26 31.12 C 4.16 30.03 3.08 28.94 2.00 27.84 C 3.69 24.73 7.45 27.95 9.33 25.36 C 12.01 23.51 8.68 19.63 11.87 18.02 C 12.95 19.09 14.04 20.17 15.11 21.25 C 16.16 20.97 17.20 20.66 18.23 20.32 C 20.24 19.98 20.01 17.49 20.79 16.05 M 18.38 26.58 C 13.88 27.96 10.43 32.21 10.09 36.91 C 9.32 43.24 14.49 49.45 20.82 49.90 C 27.98 50.86 34.78 44.14 33.92 36.97 C 33.54 29.60 25.37 24.10 18.38 26.58 Z" />
<path fill="#000000" opacity="1.00" d=" M 39.13 18.09 C 41.54 17.16 43.12 20.66 40.89 21.87 C 38.47 22.92 36.87 19.30 39.13 18.09 Z" />
<path fill="#000000" opacity="1.00" d=" M 20.32 34.39 C 22.82 33.00 26.11 35.25 25.99 38.03 C 26.08 41.05 22.12 43.24 19.71 41.24 C 17.15 39.69 17.62 35.54 20.32 34.39 Z" />
</g>
</svg>
