<?xml version="1.0" encoding="UTF-8" ?>
<!DOCTYPE svg PUBLIC "-//W3C//DTD SVG 1.1//EN" "http://www.w3.org/Graphics/SVG/1.1/DTD/svg11.dtd">
<svg width="60pt" height="60pt" viewBox="0 0 60 60" version="1.1" xmlns="http://www.w3.org/2000/svg">
<g id="#ffffffff">
<path fill="#ffffff" opacity="1.00" d=" M 0.00 0.00 L 60.00 0.00 L 60.00 60.00 L 0.00 60.00 L 0.00 0.00 M 26.00 8.40 C 23.60 9.53 22.80 6.53 20.96 5.76 C 18.12 5.91 19.33 9.04 18.92 10.83 C 18.03 11.50 17.09 12.11 16.11 12.65 C 14.69 12.04 13.21 10.18 11.67 11.54 C 10.07 13.06 12.01 14.66 12.65 16.11 C 12.10 17.11 11.48 18.06 10.79 18.96 C 9.24 19.43 6.95 18.20 6.01 19.99 C 5.18 21.86 7.71 22.78 8.54 24.08 C 8.55 25.37 8.58 27.42 6.92 27.72 C 5.79 28.26 4.00 28.35 3.96 29.97 C 4.04 32.60 8.28 31.37 8.40 34.00 C 9.86 36.78 5.17 37.35 5.94 39.97 C 6.95 41.78 9.20 40.58 10.80 41.05 C 11.49 41.95 12.11 42.89 12.66 43.89 C 12.01 45.32 10.16 46.83 11.58 48.40 C 13.13 49.88 14.68 47.99 16.11 47.35 C 18.86 48.18 19.51 50.41 19.07 53.05 C 20.62 55.73 22.84 52.73 24.10 51.43 C 25.88 51.25 27.89 51.90 28.06 53.96 C 28.10 56.57 31.87 56.58 31.93 53.98 C 32.07 51.79 34.25 51.55 35.95 51.20 C 37.02 52.32 37.99 54.71 39.93 54.03 C 41.81 53.12 40.59 50.78 41.03 49.20 C 41.97 48.50 42.94 47.86 43.95 47.27 C 44.99 47.99 46.04 48.67 47.13 49.32 C 49.67 48.02 48.88 45.65 47.34 43.88 C 47.90 42.90 48.51 41.95 49.18 41.05 C 50.81 40.58 53.05 41.74 54.10 39.95 C 54.74 37.32 50.15 36.75 51.61 33.97 C 51.67 31.36 56.10 32.61 55.94 29.99 C 56.07 27.38 51.63 28.63 51.60 26.00 C 50.15 23.25 54.74 22.65 54.08 20.09 C 53.14 18.17 50.83 19.40 49.21 18.97 C 48.51 18.07 47.89 17.11 47.34 16.11 C 47.94 14.70 49.87 13.16 48.42 11.64 C 46.93 10.06 45.32 12.04 43.89 12.64 C 42.89 12.11 41.95 11.50 41.05 10.81 C 40.54 9.22 41.84 6.86 39.90 5.96 C 37.38 5.14 36.77 9.84 34.07 8.41 C 31.36 8.42 32.61 3.88 29.98 4.06 C 27.40 3.90 28.63 8.36 26.00 8.40 Z" />
<path fill="#ffffff" opacity="1.00" d=" M 25.45 14.66 C 34.14 11.77 44.11 17.99 45.69 26.91 C 47.68 35.61 40.93 44.87 32.12 45.85 C 23.69 47.21 15.06 40.56 14.14 32.09 C 12.97 24.52 18.09 16.70 25.45 14.66 M 25.27 22.16 C 25.00 22.39 24.45 22.86 24.18 23.09 C 23.86 27.65 23.87 32.27 24.17 36.83 C 25.40 39.11 27.85 37.26 29.45 36.53 C 32.84 34.52 36.83 33.40 39.84 30.85 C 40.70 28.14 37.05 27.55 35.38 26.44 C 31.99 25.16 28.87 22.33 25.27 22.16 Z" />
</g>
<g id="#000000ff">
<path fill="#000000" opacity="1.00" d=" M 26.00 8.40 C 28.63 8.36 27.40 3.90 29.98 4.06 C 32.61 3.88 31.36 8.42 34.07 8.41 C 36.77 9.84 37.38 5.14 39.90 5.96 C 41.84 6.86 40.54 9.22 41.05 10.81 C 41.95 11.50 42.89 12.11 43.89 12.64 C 45.32 12.04 46.93 10.06 48.42 11.64 C 49.87 13.16 47.94 14.70 47.34 16.11 C 47.89 17.11 48.51 18.07 49.21 18.97 C 50.83 19.40 53.14 18.17 54.08 20.09 C 54.74 22.65 50.15 23.25 51.60 26.00 C 51.63 28.63 56.07 27.38 55.94 29.99 C 56.10 32.61 51.67 31.36 51.61 33.97 C 50.15 36.75 54.74 37.32 54.10 39.95 C 53.05 41.74 50.81 40.58 49.18 41.05 C 48.51 41.95 47.90 42.90 47.34 43.88 C 48.88 45.65 49.67 48.02 47.13 49.32 C 46.04 48.67 44.99 47.99 43.95 47.27 C 42.94 47.86 41.97 48.50 41.03 49.20 C 40.59 50.78 41.81 53.12 39.93 54.03 C 37.99 54.71 37.02 52.32 35.95 51.20 C 34.25 51.55 32.07 51.79 31.93 53.98 C 31.87 56.58 28.10 56.57 28.06 53.96 C 27.89 51.90 25.88 51.25 24.10 51.43 C 22.84 52.73 20.62 55.73 19.07 53.05 C 19.51 50.41 18.86 48.18 16.11 47.35 C 14.68 47.99 13.13 49.88 11.58 48.40 C 10.16 46.83 12.01 45.32 12.66 43.89 C 12.11 42.89 11.49 41.95 10.80 41.05 C 9.20 40.58 6.95 41.78 5.94 39.97 C 5.17 37.35 9.86 36.78 8.40 34.00 C 8.28 31.37 4.04 32.60 3.96 29.97 C 4.00 28.35 5.79 28.26 6.92 27.72 C 8.58 27.42 8.55 25.37 8.54 24.08 C 7.71 22.78 5.18 21.86 6.01 19.99 C 6.95 18.20 9.24 19.43 10.79 18.96 C 11.48 18.06 12.10 17.11 12.65 16.11 C 12.01 14.66 10.07 13.06 11.67 11.54 C 13.21 10.18 14.69 12.04 16.11 12.65 C 17.09 12.11 18.03 11.50 18.92 10.83 C 19.33 9.04 18.12 5.91 20.96 5.76 C 22.80 6.53 23.60 9.53 26.00 8.40 M 25.45 14.66 C 18.09 16.70 12.97 24.52 14.14 32.09 C 15.06 40.56 23.69 47.21 32.12 45.85 C 40.93 44.87 47.68 35.61 45.69 26.91 C 44.11 17.99 34.14 11.77 25.45 14.66 Z" />
<path fill="#000000" opacity="1.00" d=" M 25.27 22.16 C 28.87 22.33 31.99 25.16 35.38 26.44 C 37.05 27.55 40.70 28.14 39.84 30.85 C 36.83 33.40 32.84 34.52 29.45 36.53 C 27.85 37.26 25.40 39.11 24.17 36.83 C 23.87 32.27 23.86 27.65 24.18 23.09 C 24.45 22.86 25.00 22.39 25.27 22.16 Z" />
</g>
</svg>
