<?xml version="1.0" encoding="UTF-8" ?>
<!DOCTYPE svg PUBLIC "-//W3C//DTD SVG 1.1//EN" "http://www.w3.org/Graphics/SVG/1.1/DTD/svg11.dtd">
<svg width="64pt" height="64pt" viewBox="0 0 64 64" version="1.1" xmlns="http://www.w3.org/2000/svg">
<g id="#ffffffff">
<path fill="#ffffff" opacity="1.00" d=" M 0.00 0.00 L 64.00 0.00 L 64.00 64.00 L 0.00 64.00 L 0.00 0.00 M 44.00 4.00 C 44.00 12.67 44.00 21.33 44.00 30.00 C 41.61 30.00 39.23 30.00 36.84 30.01 C 35.17 28.39 33.64 26.59 31.73 25.24 C 29.13 23.55 25.85 24.02 22.90 24.03 C 20.35 23.96 17.94 25.66 17.12 28.06 C 15.04 33.34 13.15 38.69 11.11 43.99 C 14.07 44.00 17.03 44.01 20.00 44.00 C 20.00 49.33 20.00 54.67 20.00 60.00 C 21.33 60.00 22.65 60.00 23.98 60.00 C 24.02 58.46 24.01 56.92 24.06 55.37 C 28.29 54.10 32.46 52.64 36.64 51.22 C 34.97 47.23 33.58 43.12 31.69 39.22 C 30.51 39.74 29.33 40.25 28.15 40.77 C 29.22 43.44 30.29 46.11 31.35 48.78 C 28.92 49.63 26.47 50.45 24.01 51.23 C 23.99 47.48 24.00 43.74 24.00 40.00 C 21.63 40.00 19.26 40.00 16.89 40.00 C 18.49 36.19 19.50 32.10 21.46 28.47 C 23.72 27.54 26.48 27.97 28.88 28.24 C 31.38 29.63 33.07 32.11 35.19 34.00 C 38.12 34.00 41.06 34.00 44.00 34.00 C 44.00 42.67 44.00 51.33 44.00 60.00 C 45.33 60.00 46.67 60.00 48.00 60.00 C 48.00 41.33 48.00 22.67 48.00 4.00 C 46.67 4.00 45.33 4.00 44.00 4.00 M 22.35 8.50 C 17.20 10.20 16.50 18.12 21.09 20.87 C 25.10 23.65 31.50 21.06 31.91 16.05 C 33.00 10.84 27.14 6.33 22.35 8.50 Z" />
<path fill="#ffffff" opacity="1.00" d=" M 23.32 12.42 C 25.23 11.15 28.17 12.59 27.99 14.99 C 28.14 17.06 25.98 18.52 24.07 17.92 C 21.69 17.31 21.30 13.67 23.32 12.42 Z" />
</g>
<g id="#000000ff">
<path fill="#000000" opacity="1.00" d=" M 44.00 4.00 C 45.33 4.00 46.67 4.00 48.00 4.00 C 48.00 22.67 48.00 41.33 48.00 60.00 C 46.67 60.00 45.33 60.00 44.00 60.00 C 44.00 51.33 44.00 42.67 44.00 34.00 C 41.06 34.00 38.12 34.00 35.19 34.00 C 33.07 32.11 31.38 29.63 28.88 28.24 C 26.48 27.97 23.72 27.54 21.46 28.47 C 19.50 32.10 18.49 36.19 16.89 40.00 C 19.26 40.00 21.63 40.00 24.00 40.00 C 24.00 43.74 23.99 47.48 24.01 51.23 C 26.47 50.45 28.92 49.63 31.35 48.78 C 30.29 46.11 29.22 43.44 28.15 40.77 C 29.33 40.25 30.51 39.74 31.69 39.22 C 33.58 43.12 34.97 47.23 36.64 51.22 C 32.46 52.64 28.29 54.10 24.06 55.37 C 24.01 56.92 24.02 58.46 23.98 60.00 C 22.65 60.00 21.33 60.00 20.00 60.00 C 20.00 54.67 20.00 49.33 20.00 44.00 C 17.03 44.01 14.07 44.00 11.11 43.99 C 13.15 38.69 15.04 33.34 17.12 28.06 C 17.94 25.66 20.35 23.96 22.90 24.03 C 25.85 24.02 29.13 23.55 31.73 25.24 C 33.64 26.59 35.17 28.39 36.84 30.01 C 39.23 30.00 41.61 30.00 44.00 30.00 C 44.00 21.33 44.00 12.67 44.00 4.00 Z" />
<path fill="#000000" opacity="1.00" d=" M 22.35 8.50 C 27.14 6.33 33.00 10.84 31.91 16.05 C 31.50 21.06 25.10 23.65 21.09 20.87 C 16.50 18.12 17.20 10.20 22.35 8.50 M 23.32 12.42 C 21.30 13.67 21.69 17.31 24.07 17.92 C 25.98 18.52 28.14 17.06 27.99 14.99 C 28.17 12.59 25.23 11.15 23.32 12.42 Z" />
</g>
</svg>
