<?xml version="1.0" encoding="UTF-8" ?>
<!DOCTYPE svg PUBLIC "-//W3C//DTD SVG 1.1//EN" "http://www.w3.org/Graphics/SVG/1.1/DTD/svg11.dtd">
<svg width="64pt" height="64pt" viewBox="0 0 64 64" version="1.1" xmlns="http://www.w3.org/2000/svg">
<g id="#ffffffff">
<path fill="#ffffff" opacity="1.00" d=" M 0.00 0.00 L 64.00 0.00 L 64.00 64.00 L 0.00 64.00 L 0.00 0.00 M 24.00 6.00 C 24.01 11.27 23.98 16.54 24.01 21.80 C 20.61 21.68 16.48 23.21 16.11 27.09 C 15.84 37.39 16.09 47.70 16.00 58.00 C 26.67 58.00 37.33 58.00 48.00 58.00 C 47.91 47.68 48.18 37.34 47.88 27.02 C 47.44 23.18 43.36 21.69 39.99 21.80 C 40.02 16.53 39.99 11.27 40.00 6.00 C 34.67 6.00 29.33 6.00 24.00 6.00 Z" />
<path fill="#ffffff" opacity="1.00" d=" M 27.99 10.00 C 30.66 10.01 33.34 10.01 36.01 10.00 C 35.99 12.00 35.99 14.00 36.01 16.00 C 33.34 15.99 30.66 15.99 27.99 16.00 C 28.01 14.00 28.01 12.00 27.99 10.00 Z" />
<path fill="#ffffff" opacity="1.00" d=" M 28.01 19.99 C 30.67 20.01 33.33 20.01 35.99 19.99 C 35.99 21.99 36.01 23.99 36.00 25.99 C 38.49 26.13 41.13 25.57 43.50 26.51 C 44.19 27.88 43.94 29.47 44.02 30.94 C 43.98 38.63 44.00 46.31 44.00 54.00 C 36.00 54.00 28.00 54.00 20.00 54.00 C 20.00 48.00 20.00 42.00 20.00 36.00 C 26.67 36.00 33.33 36.01 40.00 35.99 C 40.00 34.66 40.00 33.34 40.00 32.01 C 33.31 31.98 26.61 32.02 19.91 31.98 C 20.02 30.09 20.10 28.20 20.30 26.31 C 22.85 25.98 25.43 25.97 28.00 25.98 C 27.99 23.98 28.01 21.98 28.01 19.99 Z" />
</g>
<g id="#000000ff">
<path fill="#000000" opacity="1.00" d=" M 24.00 6.00 C 29.33 6.00 34.67 6.00 40.00 6.00 C 39.99 11.27 40.02 16.53 39.99 21.80 C 43.36 21.69 47.44 23.18 47.88 27.02 C 48.18 37.34 47.91 47.68 48.00 58.00 C 37.33 58.00 26.67 58.00 16.00 58.00 C 16.09 47.70 15.84 37.39 16.11 27.09 C 16.48 23.21 20.61 21.68 24.01 21.80 C 23.98 16.54 24.01 11.27 24.00 6.00 M 27.99 10.00 C 28.01 12.00 28.01 14.00 27.99 16.00 C 30.66 15.99 33.34 15.99 36.01 16.00 C 35.99 14.00 35.99 12.00 36.01 10.00 C 33.34 10.01 30.66 10.01 27.99 10.00 M 28.01 19.99 C 28.01 21.98 27.99 23.98 28.00 25.98 C 25.43 25.97 22.85 25.98 20.30 26.31 C 20.10 28.20 20.02 30.09 19.91 31.98 C 26.61 32.02 33.31 31.98 40.00 32.01 C 40.00 33.34 40.00 34.66 40.00 35.99 C 33.33 36.01 26.67 36.00 20.00 36.00 C 20.00 42.00 20.00 48.00 20.00 54.00 C 28.00 54.00 36.00 54.00 44.00 54.00 C 44.00 46.31 43.98 38.63 44.02 30.94 C 43.94 29.47 44.19 27.88 43.50 26.51 C 41.13 25.57 38.49 26.13 36.00 25.99 C 36.01 23.99 35.99 21.99 35.99 19.99 C 33.33 20.01 30.67 20.01 28.01 19.99 Z" />
</g>
</svg>
