<?xml version="1.0" encoding="UTF-8" ?>
<!DOCTYPE svg PUBLIC "-//W3C//DTD SVG 1.1//EN" "http://www.w3.org/Graphics/SVG/1.1/DTD/svg11.dtd">
<svg width="200pt" height="200pt" viewBox="0 0 200 200" version="1.1" xmlns="http://www.w3.org/2000/svg">
<g id="#ffffffff">
<path fill="#ffffff" opacity="1.00" d=" M 0.00 0.00 L 200.00 0.00 L 200.00 200.00 L 0.00 200.00 L 0.00 0.00 M 99.49 8.60 C 99.02 14.25 99.33 19.93 99.27 25.60 C 94.83 27.34 91.67 32.65 93.89 37.22 C 94.58 39.86 97.19 41.04 99.27 42.41 C 99.24 46.58 99.25 50.76 99.25 54.94 C 92.59 55.98 86.03 60.13 83.36 66.49 C 78.76 75.89 82.86 88.32 92.18 93.08 C 92.30 105.55 92.29 118.03 92.19 130.50 C 86.13 133.75 81.83 140.14 81.56 147.06 C 80.91 154.10 84.57 161.21 90.31 165.21 C 85.75 169.67 81.00 173.95 76.43 178.41 C 74.58 180.31 72.19 181.80 70.97 184.22 C 71.14 185.68 72.20 187.21 73.85 186.99 C 81.25 180.94 87.80 173.91 94.95 167.56 C 96.46 167.92 97.98 168.27 99.50 168.61 C 100.05 174.64 98.30 181.10 100.53 186.85 C 101.55 186.79 102.58 186.73 103.61 186.66 C 104.96 180.74 103.94 174.59 104.24 168.57 C 105.61 168.23 106.97 167.87 108.34 167.51 C 114.99 173.59 121.51 179.81 128.05 186.00 C 129.41 187.61 132.23 186.91 132.34 184.66 C 131.76 182.50 129.89 181.16 128.36 179.69 C 123.15 175.01 118.17 170.07 113.09 165.24 C 118.79 161.02 122.62 154.12 121.83 146.91 C 121.47 140.12 117.18 133.83 111.32 130.54 C 111.17 118.01 111.27 105.47 111.27 92.94 C 122.18 87.57 125.45 71.71 117.49 62.53 C 114.36 58.10 109.11 56.01 104.00 54.88 C 104.00 50.70 104.00 46.53 104.00 42.35 C 107.23 40.83 110.65 37.89 110.02 33.92 C 110.53 30.06 107.19 27.10 104.00 25.66 C 103.78 19.87 104.48 14.01 103.58 8.27 C 102.20 7.73 100.82 8.16 99.49 8.60 Z" />
<path fill="#ffffff" opacity="1.00" d=" M 97.00 94.98 C 100.16 95.49 103.37 95.52 106.52 94.87 C 106.50 96.49 106.49 98.12 106.49 99.75 C 103.33 99.75 100.17 99.75 97.01 99.75 C 97.00 98.16 97.00 96.57 97.00 94.98 Z" />
<path fill="#ffffff" opacity="1.00" d=" M 97.00 104.50 C 100.17 104.50 103.33 104.50 106.50 104.50 C 106.50 106.17 106.50 107.83 106.50 109.50 C 103.33 109.50 100.17 109.50 97.00 109.50 C 97.00 107.83 97.00 106.17 97.00 104.50 Z" />
<path fill="#ffffff" opacity="1.00" d=" M 97.00 114.25 C 100.17 114.25 103.34 114.25 106.51 114.26 C 106.50 115.84 106.50 117.42 106.49 119.00 C 103.33 119.00 100.16 119.00 97.00 119.00 C 97.00 117.41 97.00 115.83 97.00 114.25 Z" />
<path fill="#ffffff" opacity="1.00" d=" M 97.00 123.75 C 100.16 123.75 103.31 123.75 106.47 123.75 C 106.49 125.37 106.52 126.98 106.57 128.60 C 103.39 128.00 100.17 128.00 97.00 128.60 C 97.00 126.98 97.00 125.36 97.00 123.75 Z" />
</g>
<g id="#000000ff">
<path fill="#968176" opacity="1.00" d=" M 99.49 8.60 C 100.82 8.16 102.20 7.73 103.58 8.27 C 104.48 14.01 103.78 19.87 104.00 25.66 C 107.19 27.10 110.53 30.06 110.02 33.92 C 110.65 37.89 107.23 40.83 104.00 42.35 C 104.00 46.53 104.00 50.70 104.00 54.88 C 109.11 56.01 114.36 58.10 117.49 62.53 C 125.45 71.71 122.18 87.57 111.27 92.94 C 111.27 105.47 111.17 118.01 111.32 130.54 C 117.18 133.83 121.47 140.12 121.83 146.91 C 122.62 154.12 118.79 161.02 113.09 165.24 C 118.17 170.07 123.15 175.01 128.36 179.69 C 129.89 181.16 131.76 182.50 132.34 184.66 C 132.23 186.91 129.41 187.61 128.05 186.00 C 121.51 179.81 114.99 173.59 108.34 167.51 C 106.97 167.87 105.61 168.23 104.24 168.57 C 103.94 174.59 104.96 180.74 103.61 186.66 C 102.58 186.73 101.55 186.79 100.53 186.85 C 98.30 181.10 100.05 174.64 99.50 168.61 C 97.98 168.27 96.46 167.92 94.95 167.56 C 87.80 173.91 81.25 180.94 73.85 186.99 C 72.20 187.21 71.14 185.68 70.97 184.22 C 72.19 181.80 74.58 180.31 76.43 178.41 C 81.00 173.95 85.75 169.67 90.31 165.21 C 84.57 161.21 80.91 154.10 81.56 147.06 C 81.83 140.14 86.13 133.75 92.19 130.50 C 92.29 118.03 92.30 105.55 92.18 93.08 C 82.86 88.32 78.76 75.89 83.36 66.49 C 86.03 60.13 92.59 55.98 99.25 54.94 C 99.25 50.76 99.24 46.58 99.27 42.41 C 97.19 41.04 94.58 39.86 93.89 37.22 C 91.67 32.65 94.83 27.34 99.27 25.60 C 99.33 19.93 99.02 14.25 99.49 8.60 M 97.00 94.98 C 97.00 96.57 97.00 98.16 97.01 99.75 C 100.17 99.75 103.33 99.75 106.49 99.75 C 106.49 98.12 106.50 96.49 106.52 94.87 C 103.37 95.52 100.16 95.49 97.00 94.98 M 97.00 104.50 C 97.00 106.17 97.00 107.83 97.00 109.50 C 100.17 109.50 103.33 109.50 106.50 109.50 C 106.50 107.83 106.50 106.17 106.50 104.50 C 103.33 104.50 100.17 104.50 97.00 104.50 M 97.00 114.25 C 97.00 115.83 97.00 117.41 97.00 119.00 C 100.16 119.00 103.33 119.00 106.49 119.00 C 106.50 117.42 106.50 115.84 106.51 114.26 C 103.34 114.25 100.17 114.25 97.00 114.25 M 97.00 123.75 C 97.00 125.36 97.00 126.98 97.00 128.60 C 100.17 128.00 103.39 128.00 106.57 128.60 C 106.52 126.98 106.49 125.37 106.47 123.75 C 103.31 123.75 100.16 123.75 97.00 123.75 Z" />
</g>
</svg>
