<?xml version="1.0" encoding="UTF-8" ?>
<!DOCTYPE svg PUBLIC "-//W3C//DTD SVG 1.1//EN" "http://www.w3.org/Graphics/SVG/1.1/DTD/svg11.dtd">
<svg width="60pt" height="60pt" viewBox="0 0 60 60" version="1.1" xmlns="http://www.w3.org/2000/svg">
<g id="#ffffffff">
<path fill="#ffffff" opacity="1.00" d=" M 0.00 0.00 L 60.00 0.00 L 60.00 60.00 L 0.00 60.00 L 0.00 0.00 M 38.00 15.74 C 32.08 18.74 26.14 21.71 20.18 24.65 C 17.44 22.20 13.29 21.01 9.98 23.09 C 5.27 25.58 4.66 32.88 8.89 36.13 C 12.17 39.04 17.15 38.19 20.19 35.36 C 26.14 38.29 32.07 41.26 37.99 44.25 C 37.18 49.43 41.57 54.78 46.99 53.91 C 52.75 53.45 56.06 46.02 52.54 41.42 C 49.71 37.09 43.30 37.14 39.82 40.65 C 33.82 37.71 27.87 34.69 21.90 31.69 C 21.93 30.56 21.93 29.44 21.90 28.31 C 27.86 25.31 33.82 22.29 39.82 19.36 C 43.49 23.11 50.43 22.77 52.95 17.91 C 56.08 12.91 51.84 5.73 45.97 6.01 C 40.88 5.87 37.30 10.94 38.00 15.74 Z" />
</g>
<g id="#000000ff">
<path fill="#000000" opacity="1.00" d=" M 38.00 15.74 C 37.30 10.94 40.88 5.87 45.97 6.01 C 51.84 5.73 56.08 12.91 52.95 17.91 C 50.43 22.77 43.49 23.11 39.82 19.36 C 33.82 22.29 27.86 25.31 21.90 28.31 C 21.93 29.44 21.93 30.56 21.90 31.69 C 27.87 34.69 33.82 37.71 39.82 40.65 C 43.30 37.14 49.71 37.09 52.54 41.42 C 56.06 46.02 52.75 53.45 46.99 53.91 C 41.57 54.78 37.18 49.43 37.99 44.25 C 32.07 41.26 26.14 38.29 20.19 35.36 C 17.15 38.19 12.17 39.04 8.89 36.13 C 4.66 32.88 5.27 25.58 9.98 23.09 C 13.29 21.01 17.44 22.20 20.18 24.65 C 26.14 21.71 32.08 18.74 38.00 15.74 Z" />
</g>
</svg>
