<?xml version="1.0" encoding="UTF-8" ?>
<!DOCTYPE svg PUBLIC "-//W3C//DTD SVG 1.1//EN" "http://www.w3.org/Graphics/SVG/1.1/DTD/svg11.dtd">
<svg width="64pt" height="64pt" viewBox="0 0 64 64" version="1.1" xmlns="http://www.w3.org/2000/svg">
<g id="#ffffffff">
<path fill="#ffffff" opacity="1.00" d=" M 0.00 0.00 L 64.00 0.00 L 64.00 62.95 C 63.59 59.05 61.11 55.91 58.04 53.67 C 60.06 50.66 60.84 46.54 58.63 43.41 C 55.61 38.62 47.40 38.98 44.93 44.14 C 43.20 47.21 44.14 50.87 45.95 53.67 C 42.45 56.05 40.19 59.78 39.78 64.00 L 0.00 64.00 L 0.00 0.00 M 12.00 6.00 C 12.00 23.33 12.00 40.67 12.00 58.00 C 20.37 57.99 28.74 58.02 37.11 57.98 C 37.90 56.65 38.67 55.31 39.45 53.97 C 31.63 54.03 23.82 53.98 16.00 54.00 C 16.00 39.33 16.00 24.67 16.00 10.00 C 22.67 10.00 29.33 10.00 36.00 10.00 C 36.00 14.00 36.00 18.00 36.00 22.00 C 40.00 22.00 44.00 22.00 48.00 22.00 C 47.99 26.87 48.01 31.74 47.99 36.60 C 49.33 36.41 50.67 36.17 52.00 35.89 C 52.00 30.31 52.00 24.74 52.00 19.16 C 47.62 14.77 43.23 10.39 38.84 6.00 C 29.90 6.00 20.95 6.00 12.00 6.00 M 22.00 28.00 C 22.00 29.33 22.00 30.67 22.00 32.00 C 28.67 32.00 35.33 32.00 42.00 32.00 C 42.00 30.67 42.00 29.33 42.00 28.00 C 35.33 28.00 28.67 28.00 22.00 28.00 M 22.00 36.00 C 22.00 37.33 22.00 38.67 22.00 40.00 C 28.67 40.00 35.33 40.00 42.00 40.00 C 42.00 38.67 42.00 37.33 42.00 36.00 C 35.33 36.00 28.67 36.00 22.00 36.00 M 22.00 44.00 C 22.00 45.33 22.00 46.67 22.00 48.00 C 26.67 48.00 31.33 48.00 36.00 48.00 C 36.00 46.67 36.00 45.33 36.00 44.00 C 31.33 44.00 26.67 44.00 22.00 44.00 Z" />
<path fill="#ffffff" opacity="1.00" d=" M 40.00 12.82 C 41.73 14.54 43.46 16.27 45.18 18.00 C 43.45 17.99 41.72 17.99 40.00 18.01 C 40.00 16.28 40.01 14.55 40.00 12.82 Z" />
<path fill="#ffffff" opacity="1.00" d=" M 49.61 44.65 C 52.13 42.85 56.22 44.67 55.95 47.94 C 56.20 50.59 53.48 52.67 50.96 51.91 C 47.71 51.33 47.04 46.46 49.61 44.65 Z" />
<path fill="#ffffff" opacity="1.00" d=" M 43.72 64.00 C 44.29 59.50 48.10 55.31 52.94 56.07 C 57.13 56.36 59.61 60.22 60.30 64.00 L 43.72 64.00 Z" />
</g>
<g id="#000000ff">
<path fill="#000000" opacity="1.00" d=" M 12.00 6.00 C 20.95 6.00 29.90 6.00 38.84 6.00 C 43.23 10.39 47.62 14.77 52.00 19.16 C 52.00 24.74 52.00 30.31 52.00 35.89 C 50.67 36.17 49.33 36.41 47.99 36.60 C 48.01 31.74 47.99 26.87 48.00 22.00 C 44.00 22.00 40.00 22.00 36.00 22.00 C 36.00 18.00 36.00 14.00 36.00 10.00 C 29.33 10.00 22.67 10.00 16.00 10.00 C 16.00 24.67 16.00 39.33 16.00 54.00 C 23.82 53.98 31.63 54.03 39.45 53.97 C 38.67 55.31 37.90 56.65 37.11 57.98 C 28.74 58.02 20.37 57.99 12.00 58.00 C 12.00 40.67 12.00 23.33 12.00 6.00 M 40.00 12.82 C 40.01 14.55 40.00 16.28 40.00 18.01 C 41.72 17.99 43.45 17.99 45.18 18.00 C 43.46 16.27 41.73 14.54 40.00 12.82 Z" />
<path fill="#000000" opacity="1.00" d=" M 22.00 28.00 C 28.67 28.00 35.33 28.00 42.00 28.00 C 42.00 29.33 42.00 30.67 42.00 32.00 C 35.33 32.00 28.67 32.00 22.00 32.00 C 22.00 30.67 22.00 29.33 22.00 28.00 Z" />
<path fill="#000000" opacity="1.00" d=" M 22.00 36.00 C 28.67 36.00 35.33 36.00 42.00 36.00 C 42.00 37.33 42.00 38.67 42.00 40.00 C 35.33 40.00 28.67 40.00 22.00 40.00 C 22.00 38.67 22.00 37.33 22.00 36.00 Z" />
<path fill="#000000" opacity="1.00" d=" M 44.93 44.14 C 47.40 38.98 55.61 38.62 58.63 43.41 C 60.84 46.54 60.06 50.66 58.04 53.67 C 61.11 55.91 63.59 59.05 64.00 62.95 L 64.00 64.00 L 60.30 64.00 C 59.61 60.22 57.13 56.36 52.94 56.07 C 48.10 55.31 44.29 59.50 43.72 64.00 L 39.78 64.00 C 40.19 59.78 42.45 56.05 45.95 53.67 C 44.14 50.87 43.20 47.21 44.93 44.14 M 49.61 44.65 C 47.04 46.46 47.71 51.33 50.96 51.91 C 53.48 52.67 56.20 50.59 55.95 47.94 C 56.22 44.67 52.13 42.85 49.61 44.65 Z" />
<path fill="#000000" opacity="1.00" d=" M 22.00 44.00 C 26.67 44.00 31.33 44.00 36.00 44.00 C 36.00 45.33 36.00 46.67 36.00 48.00 C 31.33 48.00 26.67 48.00 22.00 48.00 C 22.00 46.67 22.00 45.33 22.00 44.00 Z" />
</g>
</svg>
