<?xml version="1.0" encoding="UTF-8" ?>
<!DOCTYPE svg PUBLIC "-//W3C//DTD SVG 1.1//EN" "http://www.w3.org/Graphics/SVG/1.1/DTD/svg11.dtd">
<svg width="60pt" height="60pt" viewBox="0 0 60 60" version="1.1" xmlns="http://www.w3.org/2000/svg">
<g id="#ffffffff">
<path fill="#ffffff" opacity="1.00" d=" M 0.00 0.00 L 60.00 0.00 L 60.00 60.00 L 0.00 60.00 L 0.00 0.00 M 24.58 8.09 C 21.07 7.40 18.15 9.61 16.59 12.59 C 14.93 13.84 12.70 14.96 12.37 17.24 C 11.97 20.45 10.14 23.21 9.69 26.40 C 6.27 29.70 4.53 35.23 7.64 39.33 C 8.96 41.05 11.93 39.24 10.78 37.28 C 9.81 34.79 9.98 32.16 11.26 29.82 C 12.23 30.30 13.21 30.77 14.19 31.23 C 14.96 30.63 15.57 29.90 16.04 29.05 C 15.48 27.41 13.46 25.95 14.24 24.08 C 15.27 22.51 16.59 20.99 16.20 18.96 C 15.85 16.91 18.09 16.26 19.44 15.43 C 20.22 12.35 23.08 11.50 25.88 12.38 C 27.97 9.41 32.03 9.42 34.12 12.39 C 36.93 11.48 39.76 12.38 40.55 15.43 C 41.90 16.27 44.18 16.93 43.80 18.99 C 43.40 21.02 44.75 22.50 45.75 24.07 C 46.54 25.64 44.93 26.97 44.35 28.29 C 43.28 29.44 45.11 30.40 45.75 31.16 C 46.72 31.04 48.58 29.19 49.09 30.79 C 50.85 33.29 49.22 36.12 49.02 38.79 C 49.70 40.46 52.18 40.36 52.79 38.68 C 55.33 34.53 53.55 29.37 50.13 26.33 C 50.07 23.04 47.87 20.39 47.60 17.14 C 47.23 14.90 45.02 13.83 43.40 12.58 C 41.88 9.57 38.91 7.42 35.41 8.09 C 32.20 5.49 27.79 5.48 24.58 8.09 M 19.81 30.04 C 20.08 32.94 21.33 35.59 23.79 37.24 C 24.98 39.68 26.94 42.23 29.99 41.97 C 33.03 42.23 35.01 39.68 36.20 37.24 C 38.67 35.60 39.92 32.93 40.19 30.03 C 38.93 30.03 37.67 30.03 36.41 30.01 C 35.61 31.22 34.51 32.04 33.03 32.13 C 32.72 31.59 32.11 30.51 31.80 29.98 C 30.67 30.00 29.54 30.02 28.41 30.03 C 27.61 31.23 26.50 32.04 25.03 32.13 C 24.72 31.59 24.11 30.51 23.80 29.97 C 22.47 30.01 21.14 30.04 19.81 30.04 M 11.22 44.19 C 9.62 44.71 9.61 47.17 11.14 47.80 C 13.12 48.11 15.14 47.99 17.15 48.04 C 23.36 55.93 36.64 55.92 42.86 48.04 C 44.85 48.00 46.85 48.10 48.83 47.82 C 50.36 47.17 50.41 44.77 48.80 44.19 C 46.30 43.87 43.70 43.78 41.22 44.25 C 39.11 46.19 37.03 48.20 34.38 49.38 C 33.24 47.95 32.18 45.85 30.01 46.04 C 27.83 45.83 26.75 47.94 25.62 49.38 C 22.97 48.20 20.89 46.20 18.79 44.26 C 16.31 43.78 13.71 43.87 11.22 44.19 Z" />
</g>
<g id="#000000ff">
<path fill="#968176" opacity="1.00" d=" M 24.58 8.09 C 27.79 5.48 32.20 5.49 35.41 8.09 C 38.91 7.42 41.88 9.57 43.40 12.58 C 45.02 13.83 47.23 14.90 47.60 17.14 C 47.87 20.39 50.07 23.04 50.13 26.33 C 53.55 29.37 55.33 34.53 52.79 38.68 C 52.18 40.36 49.70 40.46 49.02 38.79 C 49.22 36.12 50.85 33.29 49.09 30.79 C 48.58 29.19 46.72 31.04 45.75 31.16 C 45.11 30.40 43.28 29.44 44.35 28.29 C 44.93 26.97 46.54 25.64 45.75 24.07 C 44.75 22.50 43.40 21.02 43.80 18.99 C 44.18 16.93 41.90 16.27 40.55 15.43 C 39.76 12.38 36.93 11.48 34.12 12.39 C 32.03 9.42 27.97 9.41 25.88 12.38 C 23.08 11.50 20.22 12.35 19.44 15.43 C 18.09 16.26 15.85 16.91 16.20 18.96 C 16.59 20.99 15.27 22.51 14.24 24.08 C 13.46 25.95 15.48 27.41 16.04 29.05 C 15.57 29.90 14.96 30.63 14.19 31.23 C 13.21 30.77 12.23 30.30 11.26 29.82 C 9.98 32.16 9.81 34.79 10.78 37.28 C 11.93 39.24 8.96 41.05 7.64 39.33 C 4.53 35.23 6.27 29.70 9.69 26.40 C 10.14 23.21 11.97 20.45 12.37 17.24 C 12.70 14.96 14.93 13.84 16.59 12.59 C 18.15 9.61 21.07 7.40 24.58 8.09 Z" />
<path fill="#968176" opacity="1.00" d=" M 19.81 30.04 C 21.14 30.04 22.47 30.01 23.80 29.97 C 24.11 30.51 24.72 31.59 25.03 32.13 C 26.50 32.04 27.61 31.23 28.41 30.03 C 29.54 30.02 30.67 30.00 31.80 29.98 C 32.11 30.51 32.72 31.59 33.03 32.13 C 34.51 32.04 35.61 31.22 36.41 30.01 C 37.67 30.03 38.93 30.03 40.19 30.03 C 39.92 32.93 38.67 35.60 36.20 37.24 C 35.01 39.68 33.03 42.23 29.99 41.97 C 26.94 42.23 24.98 39.68 23.79 37.24 C 21.33 35.59 20.08 32.94 19.81 30.04 Z" />
<path fill="#968176" opacity="1.00" d=" M 11.22 44.19 C 13.71 43.87 16.31 43.78 18.79 44.26 C 20.89 46.20 22.97 48.20 25.62 49.38 C 26.75 47.94 27.83 45.83 30.01 46.04 C 32.18 45.85 33.24 47.95 34.38 49.38 C 37.03 48.20 39.11 46.19 41.22 44.25 C 43.70 43.78 46.30 43.87 48.80 44.19 C 50.41 44.77 50.36 47.17 48.83 47.82 C 46.85 48.10 44.85 48.00 42.86 48.04 C 36.64 55.92 23.36 55.93 17.15 48.04 C 15.14 47.99 13.12 48.11 11.14 47.80 C 9.61 47.17 9.62 44.71 11.22 44.19 Z" />
</g>
</svg>
