<?xml version="1.0" encoding="UTF-8" ?>
<!DOCTYPE svg PUBLIC "-//W3C//DTD SVG 1.1//EN" "http://www.w3.org/Graphics/SVG/1.1/DTD/svg11.dtd">
<svg width="60pt" height="60pt" viewBox="0 0 60 60" version="1.1" xmlns="http://www.w3.org/2000/svg">
<g id="#ffffffff">
<path fill="#ffffff" opacity="1.00" d=" M 0.00 0.00 L 60.00 0.00 L 60.00 60.00 L 0.00 60.00 L 0.00 0.00 M 12.08 7.93 C 11.88 17.92 12.06 27.93 12.00 37.93 C 10.26 38.24 8.06 37.49 6.61 38.63 C 4.13 44.62 7.68 53.41 14.87 53.87 C 23.94 54.15 33.04 53.99 42.11 53.95 C 47.37 54.02 52.05 49.32 51.96 44.06 C 51.94 31.76 52.21 19.44 51.82 7.15 C 51.57 6.91 51.07 6.42 50.82 6.17 C 39.23 5.76 27.59 6.13 15.98 5.99 C 14.54 5.97 11.98 5.82 12.08 7.93 Z" />
<path fill="#ffffff" opacity="1.00" d=" M 9.83 42.01 C 19.20 41.99 28.57 42.01 37.94 42.00 C 37.90 44.75 37.95 47.55 39.27 50.05 C 31.16 49.82 23.02 50.27 14.92 49.84 C 11.10 49.44 9.71 45.33 9.83 42.01 Z" />
</g>
<g id="#000000ff">
<path fill="#000000" opacity="1.00" d=" M 12.08 7.93 C 11.98 5.82 14.54 5.97 15.98 5.99 C 27.59 6.13 39.23 5.76 50.82 6.17 C 51.07 6.42 51.57 6.91 51.82 7.15 C 52.21 19.44 51.94 31.76 51.96 44.06 C 52.05 49.32 47.37 54.02 42.11 53.95 C 33.04 53.99 23.94 54.15 14.87 53.87 C 7.68 53.41 4.13 44.62 6.61 38.63 C 8.06 37.49 10.26 38.24 12.00 37.93 C 12.06 27.93 11.88 17.92 12.08 7.93 M 9.83 42.01 C 9.71 45.33 11.10 49.44 14.92 49.84 C 23.02 50.27 31.16 49.82 39.27 50.05 C 37.95 47.55 37.90 44.75 37.94 42.00 C 28.57 42.01 19.20 41.99 9.83 42.01 Z" />
</g>
</svg>
