<?xml version="1.0" encoding="UTF-8" ?>
<!DOCTYPE svg PUBLIC "-//W3C//DTD SVG 1.1//EN" "http://www.w3.org/Graphics/SVG/1.1/DTD/svg11.dtd">
<svg width="60pt" height="60pt" viewBox="0 0 60 60" version="1.1" xmlns="http://www.w3.org/2000/svg">
<g id="#ffffffff">
<path fill="#ffffff" opacity="1.00" d=" M 0.00 0.00 L 60.00 0.00 L 60.00 60.00 L 0.00 60.00 L 0.00 0.00 M 24.43 6.66 C 16.85 8.43 10.32 14.13 7.59 21.43 C 4.66 28.93 5.87 37.88 10.75 44.30 C 15.79 51.19 24.67 54.99 33.13 53.78 C 41.98 52.73 49.84 46.26 52.67 37.83 C 55.79 29.14 53.24 18.81 46.47 12.55 C 40.73 7.03 32.15 4.78 24.43 6.66 Z" />
<path fill="#ffffff" opacity="1.00" d=" M 20.01 20.01 C 23.95 20.27 28.22 19.24 31.92 20.95 C 35.27 23.51 33.62 28.39 34.00 32.00 C 33.28 32.00 31.84 32.00 31.12 32.00 C 31.03 30.10 31.18 28.14 30.67 26.28 C 28.79 24.31 25.65 25.29 23.22 24.96 C 23.22 29.98 23.22 34.99 23.22 40.00 C 22.42 40.00 20.81 40.00 20.01 40.00 C 20.01 33.34 20.01 26.67 20.01 20.01 Z" />
<path fill="#ffffff" opacity="1.00" d=" M 36.82 20.00 C 37.62 20.00 39.21 20.00 40.01 20.00 C 39.94 25.03 40.15 30.07 39.92 35.09 C 39.94 37.09 38.72 39.11 36.71 39.60 C 33.19 40.34 29.57 39.90 26.01 39.99 C 26.01 35.99 26.01 32.00 26.01 28.00 C 26.74 28.00 28.20 28.00 28.93 28.00 C 28.94 30.34 28.93 32.69 28.93 35.03 C 31.36 34.62 34.96 35.92 36.55 33.56 C 37.15 29.07 36.68 24.52 36.82 20.00 Z" />
</g>
<g id="#000000ff">
<path fill="#000000" opacity="1.00" d=" M 24.43 6.66 C 32.15 4.78 40.73 7.03 46.47 12.55 C 53.24 18.81 55.79 29.14 52.67 37.83 C 49.84 46.26 41.98 52.73 33.13 53.78 C 24.67 54.99 15.79 51.19 10.75 44.30 C 5.87 37.88 4.66 28.93 7.59 21.43 C 10.32 14.13 16.85 8.43 24.43 6.66 M 20.01 20.01 C 20.01 26.67 20.01 33.34 20.01 40.00 C 20.81 40.00 22.42 40.00 23.22 40.00 C 23.22 34.99 23.22 29.98 23.22 24.96 C 25.65 25.29 28.79 24.31 30.67 26.28 C 31.18 28.14 31.03 30.10 31.12 32.00 C 31.84 32.00 33.28 32.00 34.00 32.00 C 33.62 28.39 35.27 23.51 31.92 20.95 C 28.22 19.24 23.95 20.27 20.01 20.01 M 36.82 20.00 C 36.68 24.52 37.15 29.07 36.55 33.56 C 34.96 35.92 31.36 34.62 28.93 35.03 C 28.93 32.69 28.94 30.34 28.93 28.00 C 28.20 28.00 26.74 28.00 26.01 28.00 C 26.01 32.00 26.01 35.99 26.01 39.99 C 29.57 39.90 33.19 40.34 36.71 39.60 C 38.72 39.11 39.94 37.09 39.92 35.09 C 40.15 30.07 39.94 25.03 40.01 20.00 C 39.21 20.00 37.62 20.00 36.82 20.00 Z" />
</g>
</svg>
