<?xml version="1.0" encoding="UTF-8" ?>
<!DOCTYPE svg PUBLIC "-//W3C//DTD SVG 1.1//EN" "http://www.w3.org/Graphics/SVG/1.1/DTD/svg11.dtd">
<svg width="60pt" height="60pt" viewBox="0 0 60 60" version="1.1" xmlns="http://www.w3.org/2000/svg">
<g id="#ffffffff">
<path fill="#ffffff" opacity="1.00" d=" M 0.00 0.00 L 60.00 0.00 L 60.00 60.00 L 0.00 60.00 L 0.00 0.00 M 18.50 6.88 C 15.03 7.81 9.50 6.84 8.16 11.07 C 8.02 18.02 7.39 25.18 9.09 32.00 C 11.76 41.72 19.50 49.43 28.46 53.65 C 29.92 54.39 31.55 53.77 32.88 53.05 C 40.52 48.98 47.18 42.50 50.18 34.25 C 52.75 27.44 51.85 20.03 51.99 12.92 C 52.23 10.86 51.09 8.53 48.89 8.16 C 38.94 6.02 28.60 5.32 18.50 6.88 Z" />
</g>
<g id="#000000ff">
<path fill="#000000" opacity="1.00" d=" M 18.50 6.88 C 28.60 5.32 38.94 6.02 48.89 8.16 C 51.09 8.53 52.23 10.86 51.99 12.92 C 51.85 20.03 52.75 27.44 50.18 34.25 C 47.18 42.50 40.52 48.98 32.88 53.05 C 31.55 53.77 29.92 54.39 28.46 53.65 C 19.50 49.43 11.76 41.72 9.09 32.00 C 7.39 25.18 8.02 18.02 8.16 11.07 C 9.50 6.84 15.03 7.81 18.50 6.88 Z" />
</g>
</svg>
