<?xml version="1.0" encoding="UTF-8" ?>
<!DOCTYPE svg PUBLIC "-//W3C//DTD SVG 1.1//EN" "http://www.w3.org/Graphics/SVG/1.1/DTD/svg11.dtd">
<svg width="64pt" height="64pt" viewBox="0 0 64 64" version="1.1" xmlns="http://www.w3.org/2000/svg">
<g id="#ffffffff">
<path fill="#ffffff" opacity="1.00" d=" M 0.00 0.00 L 64.00 0.00 L 64.00 64.00 L 0.00 64.00 L 0.00 0.00 M 7.85 10.01 C 10.10 24.57 10.12 39.31 10.10 54.00 C 24.70 53.99 39.30 54.00 53.90 54.00 C 53.60 39.29 54.85 24.64 56.20 10.01 C 40.08 9.99 23.97 10.00 7.85 10.01 Z" />
<path fill="#ffffff" opacity="1.00" d=" M 12.00 14.00 C 16.67 14.00 21.33 14.00 26.00 14.00 C 26.00 15.33 26.00 16.67 26.00 18.00 C 21.33 18.00 16.67 18.00 12.00 18.00 C 12.00 16.67 12.00 15.33 12.00 14.00 Z" />
<path fill="#ffffff" opacity="1.00" d=" M 30.00 14.00 C 31.33 14.00 32.67 14.00 34.00 14.00 C 34.00 18.00 34.00 22.00 34.00 26.00 C 32.67 26.00 31.33 26.00 30.00 26.00 C 30.00 22.00 30.00 18.00 30.00 14.00 Z" />
<path fill="#ffffff" opacity="1.00" d=" M 38.00 14.00 C 42.66 14.00 47.33 14.00 52.00 14.00 C 52.00 15.33 52.00 16.67 52.00 18.00 C 47.33 18.00 42.67 18.00 38.00 18.00 C 38.00 16.67 38.00 15.33 38.00 14.00 Z" />
<path fill="#ffffff" opacity="1.00" d=" M 14.01 22.00 C 18.00 22.00 21.99 22.00 25.98 22.00 C 25.99 24.67 26.01 27.33 26.02 30.00 C 30.00 30.00 33.99 30.00 37.98 30.00 C 37.99 27.33 38.00 24.67 38.02 22.00 C 42.00 22.00 45.99 22.00 49.99 22.00 C 50.01 31.33 50.02 40.66 49.99 50.00 C 38.00 50.00 26.00 50.00 14.00 50.00 C 13.98 40.66 13.99 31.33 14.01 22.00 Z" />
</g>
<g id="#000000ff">
<path fill="#000000" opacity="1.00" d=" M 7.85 10.01 C 23.97 10.00 40.08 9.99 56.20 10.01 C 54.85 24.64 53.60 39.29 53.90 54.00 C 39.30 54.00 24.70 53.99 10.10 54.00 C 10.12 39.31 10.10 24.57 7.85 10.01 M 12.00 14.00 C 12.00 15.33 12.00 16.67 12.00 18.00 C 16.67 18.00 21.33 18.00 26.00 18.00 C 26.00 16.67 26.00 15.33 26.00 14.00 C 21.33 14.00 16.67 14.00 12.00 14.00 M 30.00 14.00 C 30.00 18.00 30.00 22.00 30.00 26.00 C 31.33 26.00 32.67 26.00 34.00 26.00 C 34.00 22.00 34.00 18.00 34.00 14.00 C 32.67 14.00 31.33 14.00 30.00 14.00 M 38.00 14.00 C 38.00 15.33 38.00 16.67 38.00 18.00 C 42.67 18.00 47.33 18.00 52.00 18.00 C 52.00 16.67 52.00 15.33 52.00 14.00 C 47.33 14.00 42.66 14.00 38.00 14.00 M 14.01 22.00 C 13.99 31.33 13.98 40.66 14.00 50.00 C 26.00 50.00 38.00 50.00 49.99 50.00 C 50.02 40.66 50.01 31.33 49.99 22.00 C 45.99 22.00 42.00 22.00 38.02 22.00 C 38.00 24.67 37.99 27.33 37.98 30.00 C 33.99 30.00 30.00 30.00 26.02 30.00 C 26.01 27.33 25.99 24.67 25.98 22.00 C 21.99 22.00 18.00 22.00 14.01 22.00 Z" />
</g>
</svg>
