<?xml version="1.0" encoding="UTF-8" ?>
<!DOCTYPE svg PUBLIC "-//W3C//DTD SVG 1.1//EN" "http://www.w3.org/Graphics/SVG/1.1/DTD/svg11.dtd">
<svg width="64pt" height="64pt" viewBox="0 0 64 64" version="1.1" xmlns="http://www.w3.org/2000/svg">
<g id="#ffffffff">
<path fill="#ffffff" opacity="1.00" d=" M 0.00 0.00 L 64.00 0.00 L 64.00 64.00 L 0.00 64.00 L 0.00 0.00 M 21.93 9.81 C 17.64 11.95 12.76 13.96 10.18 18.25 C 8.81 22.12 8.82 26.33 8.62 30.39 L 8.31 29.91 C 8.07 37.27 7.90 44.63 8.00 52.00 C 10.67 52.00 13.33 52.00 16.00 52.00 C 16.00 54.00 16.00 56.00 16.00 58.00 C 26.67 58.00 37.33 58.00 48.00 58.00 C 48.00 56.00 48.00 54.00 48.00 52.00 C 50.67 52.00 53.33 52.00 56.00 52.00 C 56.11 41.61 56.02 31.19 54.55 20.89 C 54.08 16.38 49.74 13.81 46.15 11.82 C 42.10 10.01 38.38 7.42 34.09 6.23 C 29.63 5.14 25.72 7.96 21.93 9.81 Z" />
<path fill="#ffffff" opacity="1.00" d=" M 27.13 11.64 C 30.15 9.66 33.77 9.84 36.87 11.53 C 35.61 13.22 34.34 14.91 32.99 16.54 L 33.78 17.15 C 32.61 17.15 31.43 17.13 30.26 17.12 L 30.98 16.44 C 29.65 14.87 28.40 13.25 27.13 11.64 Z" />
<path fill="#ffffff" opacity="1.00" d=" M 20.01 15.24 C 21.34 14.59 22.67 13.93 24.00 13.26 C 24.00 16.84 24.00 20.42 24.01 24.00 C 26.03 22.44 28.09 20.94 30.18 19.47 L 30.14 18.81 C 31.38 18.78 32.62 18.78 33.87 18.81 L 33.77 19.74 L 34.82 19.98 C 35.09 20.21 35.62 20.67 35.89 20.89 C 37.26 21.93 38.64 22.96 39.99 24.03 C 40.03 20.44 39.98 16.85 40.00 13.26 C 41.33 13.90 42.65 14.55 43.98 15.19 C 44.03 28.13 43.99 41.06 44.00 54.00 C 36.00 54.00 28.00 54.00 20.00 54.00 C 20.01 41.08 19.98 28.16 20.01 15.24 M 31.10 22.12 C 28.89 23.34 30.44 26.83 32.84 25.89 C 35.16 24.72 33.54 21.11 31.10 22.12 M 31.08 30.12 C 28.87 31.28 30.53 34.98 32.76 33.79 C 35.28 32.89 33.45 28.98 31.08 30.12 M 31.22 38.20 C 28.75 39.12 30.51 42.97 32.87 41.87 C 35.16 40.80 33.50 37.02 31.22 38.20 M 31.19 46.10 C 28.80 47.12 30.47 51.00 32.83 49.80 C 35.19 48.81 33.54 45.13 31.19 46.10 Z" />
<path fill="#ffffff" opacity="1.00" d=" M 12.20 31.94 C 13.46 27.19 11.72 21.12 15.91 17.58 C 16.12 27.72 15.94 37.86 16.00 48.00 C 14.67 48.00 13.33 48.00 12.00 48.00 C 12.03 42.55 11.80 37.08 12.52 31.66 L 12.20 31.94 Z" />
<path fill="#ffffff" opacity="1.00" d=" M 48.11 17.57 C 52.14 21.14 50.85 27.12 51.50 31.92 L 51.68 31.66 C 51.99 37.10 52.06 42.55 52.00 48.00 C 50.66 48.00 49.33 48.00 48.00 48.00 C 48.06 37.86 47.87 27.71 48.11 17.57 Z" />
</g>
<g id="#000000ff">
<path fill="#000000" opacity="1.00" d=" M 21.93 9.81 C 25.72 7.96 29.63 5.14 34.09 6.23 C 38.38 7.42 42.10 10.01 46.15 11.82 C 49.74 13.81 54.08 16.38 54.55 20.89 C 56.02 31.19 56.11 41.61 56.00 52.00 C 53.33 52.00 50.67 52.00 48.00 52.00 C 48.00 54.00 48.00 56.00 48.00 58.00 C 37.33 58.00 26.67 58.00 16.00 58.00 C 16.00 56.00 16.00 54.00 16.00 52.00 C 13.33 52.00 10.67 52.00 8.00 52.00 C 7.90 44.63 8.07 37.27 8.31 29.91 L 8.62 30.39 C 8.82 26.33 8.81 22.12 10.18 18.25 C 12.76 13.96 17.64 11.95 21.93 9.81 M 27.13 11.64 C 28.40 13.25 29.65 14.87 30.98 16.44 L 30.26 17.12 C 31.43 17.13 32.61 17.15 33.78 17.15 L 32.99 16.54 C 34.34 14.91 35.61 13.22 36.87 11.53 C 33.77 9.84 30.15 9.66 27.13 11.64 M 20.01 15.24 C 19.98 28.16 20.01 41.08 20.00 54.00 C 28.00 54.00 36.00 54.00 44.00 54.00 C 43.99 41.06 44.03 28.13 43.98 15.19 C 42.65 14.55 41.33 13.90 40.00 13.26 C 39.98 16.85 40.03 20.44 39.99 24.03 C 38.64 22.96 37.26 21.93 35.89 20.89 C 35.62 20.67 35.09 20.21 34.82 19.98 L 33.77 19.74 L 33.87 18.81 C 32.62 18.78 31.38 18.78 30.14 18.81 L 30.18 19.47 C 28.09 20.94 26.03 22.44 24.01 24.00 C 24.00 20.42 24.00 16.84 24.00 13.26 C 22.67 13.93 21.34 14.59 20.01 15.24 M 12.20 31.94 L 12.52 31.66 C 11.80 37.08 12.03 42.55 12.00 48.00 C 13.33 48.00 14.67 48.00 16.00 48.00 C 15.94 37.86 16.12 27.72 15.91 17.58 C 11.72 21.12 13.46 27.19 12.20 31.94 M 48.11 17.57 C 47.87 27.71 48.06 37.86 48.00 48.00 C 49.33 48.00 50.66 48.00 52.00 48.00 C 52.06 42.55 51.99 37.10 51.68 31.66 L 51.50 31.92 C 50.85 27.12 52.14 21.14 48.11 17.57 Z" />
<path fill="#000000" opacity="1.00" d=" M 31.10 22.12 C 33.54 21.11 35.16 24.72 32.84 25.89 C 30.44 26.83 28.89 23.34 31.10 22.12 Z" />
<path fill="#000000" opacity="1.00" d=" M 31.08 30.12 C 33.45 28.98 35.28 32.89 32.76 33.79 C 30.53 34.98 28.87 31.28 31.08 30.12 Z" />
<path fill="#000000" opacity="1.00" d=" M 31.22 38.20 C 33.50 37.02 35.16 40.80 32.87 41.87 C 30.51 42.97 28.75 39.12 31.22 38.20 Z" />
<path fill="#000000" opacity="1.00" d=" M 31.19 46.10 C 33.54 45.13 35.19 48.81 32.83 49.80 C 30.47 51.00 28.80 47.12 31.19 46.10 Z" />
</g>
</svg>
