<?xml version="1.0" encoding="UTF-8" ?>
<!DOCTYPE svg PUBLIC "-//W3C//DTD SVG 1.1//EN" "http://www.w3.org/Graphics/SVG/1.1/DTD/svg11.dtd">
<svg width="64pt" height="64pt" viewBox="0 0 64 64" version="1.1" xmlns="http://www.w3.org/2000/svg">
<g id="#ffffffff">
<path fill="#ffffff" opacity="1.00" d=" M 0.00 0.00 L 64.00 0.00 L 64.00 64.00 L 0.00 64.00 L 0.00 0.00 M 28.10 6.95 C 23.59 9.30 21.56 14.43 20.57 19.14 C 19.46 24.72 19.97 31.08 22.93 35.92 C 28.49 36.10 34.06 36.01 39.62 35.92 C 41.49 27.86 43.68 18.91 39.84 11.06 C 37.98 6.69 32.28 4.67 28.10 6.95 M 21.97 42.00 C 22.00 46.24 22.01 50.87 24.64 54.44 C 27.37 58.18 33.54 59.40 36.93 55.88 C 40.60 52.27 40.37 46.62 39.19 42.00 C 33.45 42.00 27.71 42.00 21.97 42.00 Z" />
<path fill="#ffffff" opacity="1.00" d=" M 27.14 13.12 C 28.44 10.83 31.32 9.15 33.92 10.38 C 35.99 11.53 36.92 13.94 37.46 16.13 C 38.73 21.39 37.59 26.81 36.37 31.96 C 32.69 32.02 29.00 32.01 25.31 31.99 C 23.16 25.84 23.75 18.72 27.14 13.12 Z" />
<path fill="#ffffff" opacity="1.00" d=" M 26.25 46.01 C 29.49 45.98 32.72 46.00 35.96 46.04 C 35.95 48.45 36.12 51.29 34.15 53.08 C 32.76 54.49 30.41 54.09 28.86 53.17 C 26.59 51.53 26.59 48.52 26.25 46.01 Z" />
</g>
<g id="#000000ff">
<path fill="#000000" opacity="1.00" d=" M 28.10 6.95 C 32.28 4.67 37.98 6.69 39.84 11.06 C 43.68 18.91 41.49 27.86 39.62 35.92 C 34.06 36.01 28.49 36.10 22.93 35.92 C 19.97 31.08 19.46 24.72 20.57 19.14 C 21.56 14.43 23.59 9.30 28.10 6.95 M 27.14 13.12 C 23.75 18.72 23.16 25.84 25.31 31.99 C 29.00 32.01 32.69 32.02 36.37 31.96 C 37.59 26.81 38.73 21.39 37.46 16.13 C 36.92 13.94 35.99 11.53 33.92 10.38 C 31.32 9.15 28.44 10.83 27.14 13.12 Z" />
<path fill="#000000" opacity="1.00" d=" M 21.97 42.00 C 27.71 42.00 33.45 42.00 39.19 42.00 C 40.37 46.62 40.60 52.27 36.93 55.88 C 33.54 59.40 27.37 58.18 24.64 54.44 C 22.01 50.87 22.00 46.24 21.97 42.00 M 26.25 46.01 C 26.59 48.52 26.59 51.53 28.86 53.17 C 30.41 54.09 32.76 54.49 34.15 53.08 C 36.12 51.29 35.95 48.45 35.96 46.04 C 32.72 46.00 29.49 45.98 26.25 46.01 Z" />
</g>
</svg>
