<?xml version="1.0" encoding="UTF-8" ?>
<!DOCTYPE svg PUBLIC "-//W3C//DTD SVG 1.1//EN" "http://www.w3.org/Graphics/SVG/1.1/DTD/svg11.dtd">
<svg width="60pt" height="60pt" viewBox="0 0 60 60" version="1.1" xmlns="http://www.w3.org/2000/svg">
<g id="#ffffffff">
<path fill="#ffffff" opacity="1.00" d=" M 0.00 0.00 L 29.13 0.00 C 24.03 0.44 20.34 5.09 19.89 10.00 C 16.60 10.02 13.31 9.97 10.01 10.01 C 9.99 22.70 9.99 35.39 10.01 48.09 C 9.95 50.16 11.90 51.99 13.93 51.98 C 24.65 52.01 35.36 52.01 46.08 51.98 C 48.08 52.00 49.95 50.15 49.98 48.15 C 50.02 35.44 50.00 22.72 49.99 10.01 C 47.12 10.11 44.21 9.74 41.38 10.22 C 39.30 9.21 39.89 6.97 38.77 5.28 C 37.35 2.46 34.49 0.74 31.50 0.00 L 60.00 0.00 L 60.00 60.00 L 0.00 60.00 L 0.00 0.00 Z" />
<path fill="#ffffff" opacity="1.00" d=" M 24.08 9.21 C 24.49 6.84 26.27 4.59 28.75 4.13 C 32.19 3.30 35.74 6.07 36.02 9.54 C 37.75 9.89 41.83 9.83 39.74 12.78 C 39.26 14.53 36.74 14.22 36.03 12.78 C 37.01 10.98 35.02 8.88 33.20 10.04 C 30.34 9.96 27.48 10.01 24.62 10.00 C 23.64 11.39 24.37 14.00 22.01 13.97 C 19.86 14.07 19.81 11.48 20.02 9.96 C 21.38 9.63 23.31 10.96 24.08 9.21 Z" />
<path fill="#ffffff" opacity="1.00" d=" M 20.86 26.00 C 22.62 21.79 27.51 19.21 31.98 20.23 C 37.21 21.13 40.98 26.77 39.78 31.95 C 39.05 35.35 36.45 37.91 33.63 39.73 C 31.37 40.89 31.40 43.73 30.70 45.84 C 28.51 46.53 29.05 43.75 28.41 42.46 C 27.80 39.70 24.60 39.08 23.03 37.02 C 20.16 34.22 19.15 29.67 20.86 26.00 M 28.29 26.42 C 25.54 27.57 25.17 31.88 27.86 33.31 C 29.72 34.80 32.65 33.76 33.58 31.69 C 35.41 28.60 31.39 24.55 28.29 26.42 Z" />
</g>
<g id="#000000ff">
<path fill="#000000" opacity="1.00" d=" M 29.13 0.00 L 31.50 0.00 C 34.49 0.74 37.35 2.46 38.77 5.28 C 39.89 6.97 39.30 9.21 41.38 10.22 C 44.21 9.74 47.12 10.11 49.99 10.01 C 50.00 22.72 50.02 35.44 49.98 48.15 C 49.95 50.15 48.08 52.00 46.08 51.98 C 35.36 52.01 24.65 52.01 13.93 51.98 C 11.90 51.99 9.95 50.16 10.01 48.09 C 9.99 35.39 9.99 22.70 10.01 10.01 C 13.31 9.97 16.60 10.02 19.89 10.00 C 20.34 5.09 24.03 0.44 29.13 0.00 M 24.08 9.21 C 23.31 10.96 21.38 9.63 20.02 9.96 C 19.81 11.48 19.86 14.07 22.01 13.97 C 24.37 14.00 23.64 11.39 24.62 10.00 C 27.48 10.01 30.34 9.96 33.20 10.04 C 35.02 8.88 37.01 10.98 36.03 12.78 C 36.74 14.22 39.26 14.53 39.74 12.78 C 41.83 9.83 37.75 9.89 36.02 9.54 C 35.74 6.07 32.19 3.30 28.75 4.13 C 26.27 4.59 24.49 6.84 24.08 9.21 M 20.86 26.00 C 19.15 29.67 20.16 34.22 23.03 37.02 C 24.60 39.08 27.80 39.70 28.41 42.46 C 29.05 43.75 28.51 46.53 30.70 45.84 C 31.40 43.73 31.37 40.89 33.63 39.73 C 36.45 37.91 39.05 35.35 39.78 31.95 C 40.98 26.77 37.21 21.13 31.98 20.23 C 27.51 19.21 22.62 21.79 20.86 26.00 Z" />
<path fill="#000000" opacity="1.00" d=" M 28.29 26.42 C 31.39 24.55 35.41 28.60 33.58 31.69 C 32.65 33.76 29.72 34.80 27.86 33.31 C 25.17 31.88 25.54 27.57 28.29 26.42 Z" />
</g>
</svg>
