<?xml version="1.0" encoding="UTF-8" ?>
<!DOCTYPE svg PUBLIC "-//W3C//DTD SVG 1.1//EN" "http://www.w3.org/Graphics/SVG/1.1/DTD/svg11.dtd">
<svg width="60pt" height="60pt" viewBox="0 0 60 60" version="1.1" xmlns="http://www.w3.org/2000/svg">
<g id="#ffffffff">
<path fill="#ffffff" opacity="1.00" d=" M 0.00 0.00 L 60.00 0.00 L 60.00 60.00 L 0.00 60.00 L 0.00 0.00 M 28.13 3.06 C 23.79 7.35 19.51 11.69 15.19 16.00 C 17.07 16.00 18.95 16.00 20.84 16.00 C 23.90 12.95 26.95 9.89 30.01 6.84 C 33.09 9.88 36.13 12.95 39.19 16.00 C 41.08 16.00 42.96 16.00 44.84 16.00 C 40.35 11.56 35.98 7.01 31.42 2.65 C 30.50 1.50 28.88 2.05 28.13 3.06 M 4.16 21.16 C 3.95 23.74 3.07 27.57 6.44 28.40 C 7.44 34.58 8.38 40.77 9.55 46.92 C 10.26 50.37 15.79 51.19 17.84 48.82 C 18.34 44.26 17.65 39.65 18.18 35.09 C 20.70 32.79 24.84 34.52 28.00 34.01 C 28.00 39.34 28.00 44.67 28.00 50.00 C 29.33 50.00 30.67 50.00 32.00 50.00 C 32.00 44.67 32.00 39.34 32.00 34.00 C 35.16 34.55 39.42 32.73 41.84 35.18 C 42.32 39.72 41.68 44.30 42.16 48.84 C 44.25 51.17 49.69 50.37 50.44 46.95 C 51.62 40.80 52.55 34.59 53.56 28.40 C 56.91 27.57 56.06 23.75 55.84 21.16 C 55.14 19.66 53.34 20.10 52.02 19.99 C 37.33 20.01 22.64 20.01 7.95 19.99 C 6.64 20.10 4.85 19.66 4.16 21.16 M 24.15 42.19 C 23.66 43.81 24.22 44.35 25.84 43.80 C 26.33 42.18 25.77 41.64 24.15 42.19 M 34.17 42.17 C 33.65 43.79 34.20 44.34 35.83 43.82 C 36.34 42.20 35.79 41.65 34.17 42.17 Z" />
</g>
<g id="#000000ff">
<path fill="#000000" opacity="1.00" d=" M 28.13 3.06 C 28.88 2.05 30.50 1.50 31.42 2.65 C 35.98 7.01 40.35 11.56 44.84 16.00 C 42.96 16.00 41.08 16.00 39.19 16.00 C 36.13 12.95 33.09 9.88 30.01 6.84 C 26.95 9.89 23.90 12.95 20.84 16.00 C 18.95 16.00 17.07 16.00 15.19 16.00 C 19.51 11.69 23.79 7.35 28.13 3.06 Z" />
<path fill="#000000" opacity="1.00" d=" M 4.16 21.16 C 4.85 19.66 6.64 20.10 7.95 19.99 C 22.64 20.01 37.33 20.01 52.02 19.99 C 53.34 20.10 55.14 19.66 55.84 21.16 C 56.06 23.75 56.91 27.57 53.56 28.40 C 52.55 34.59 51.62 40.80 50.44 46.95 C 49.69 50.37 44.25 51.17 42.16 48.84 C 41.68 44.30 42.32 39.72 41.84 35.18 C 39.42 32.73 35.16 34.55 32.00 34.00 C 32.00 39.34 32.00 44.67 32.00 50.00 C 30.67 50.00 29.33 50.00 28.00 50.00 C 28.00 44.67 28.00 39.34 28.00 34.01 C 24.84 34.52 20.70 32.79 18.18 35.09 C 17.65 39.65 18.34 44.26 17.84 48.82 C 15.79 51.19 10.26 50.37 9.55 46.92 C 8.38 40.77 7.44 34.58 6.44 28.40 C 3.07 27.57 3.95 23.74 4.16 21.16 Z" />
<path fill="#000000" opacity="1.00" d=" M 24.15 42.19 C 25.77 41.64 26.33 42.18 25.84 43.80 C 24.22 44.35 23.66 43.81 24.15 42.19 Z" />
<path fill="#000000" opacity="1.00" d=" M 34.17 42.17 C 35.79 41.65 36.34 42.20 35.83 43.82 C 34.20 44.34 33.65 43.79 34.17 42.17 Z" />
</g>
</svg>
