<?xml version="1.0" encoding="UTF-8" ?>
<!DOCTYPE svg PUBLIC "-//W3C//DTD SVG 1.1//EN" "http://www.w3.org/Graphics/SVG/1.1/DTD/svg11.dtd">
<svg width="60pt" height="60pt" viewBox="0 0 60 60" version="1.1" xmlns="http://www.w3.org/2000/svg">
<g id="#ffffffff">
<path fill="#ffffff" opacity="1.00" d=" M 0.00 0.00 L 60.00 0.00 L 60.00 60.00 L 0.00 60.00 L 0.00 0.00 M 7.94 12.01 C 6.07 14.78 3.82 17.27 2.04 20.10 C 1.84 23.74 7.29 25.48 9.17 22.31 C 10.60 18.78 12.24 15.37 14.00 12.00 C 16.00 12.00 18.00 12.00 20.00 12.00 C 19.39 14.94 18.21 17.80 18.06 20.82 C 18.69 24.44 24.17 25.12 25.58 21.70 C 26.47 18.59 25.82 15.22 25.99 12.00 C 28.66 12.00 31.33 12.00 34.01 12.00 C 34.15 15.21 33.60 18.52 34.36 21.66 C 35.73 25.09 41.32 24.48 41.88 20.81 C 41.85 17.79 40.58 14.94 40.00 12.00 C 42.00 12.00 44.00 12.00 46.00 12.00 C 47.75 15.38 49.43 18.78 50.80 22.34 C 52.93 25.51 57.73 23.65 58.17 20.15 C 56.07 17.48 54.04 14.76 52.06 12.00 C 52.37 9.43 51.24 5.95 48.12 6.05 C 36.05 5.96 23.98 5.97 11.91 6.04 C 8.80 5.98 7.59 9.41 7.94 12.01 M 6.00 28.18 C 6.04 35.47 5.92 42.78 6.04 50.07 C 5.94 52.18 7.91 54.01 9.97 53.96 C 17.98 54.07 25.99 53.96 34.00 54.00 C 34.00 47.33 34.00 40.67 34.00 34.00 C 38.00 34.00 42.00 34.00 46.00 34.00 C 46.00 40.67 46.00 47.35 46.00 54.02 C 48.82 54.08 52.95 54.51 53.86 50.98 C 54.19 43.39 53.90 35.78 54.00 28.17 C 52.66 27.79 51.32 27.41 49.98 27.05 C 47.39 28.20 44.56 28.19 41.99 27.04 C 39.41 28.21 36.57 28.18 33.99 27.04 C 31.41 28.20 28.57 28.19 25.99 27.04 C 23.42 28.19 20.58 28.20 18.01 27.04 C 15.43 28.19 12.60 28.20 10.03 27.05 C 8.68 27.41 7.34 27.78 6.00 28.18 Z" />
<path fill="#ffffff" opacity="1.00" d=" M 14.00 34.00 C 18.00 34.00 22.00 34.00 26.00 34.00 C 26.00 38.00 26.00 42.00 26.00 46.00 C 22.00 46.00 18.00 46.00 14.00 46.00 C 14.00 42.00 14.00 38.00 14.00 34.00 Z" />
</g>
<g id="#000000ff">
<path fill="#000000" opacity="1.00" d=" M 7.94 12.01 C 7.59 9.41 8.80 5.98 11.91 6.04 C 23.98 5.97 36.05 5.96 48.12 6.05 C 51.24 5.95 52.37 9.43 52.06 12.00 C 54.04 14.76 56.07 17.48 58.17 20.15 C 57.73 23.65 52.93 25.51 50.80 22.34 C 49.43 18.78 47.75 15.38 46.00 12.00 C 44.00 12.00 42.00 12.00 40.00 12.00 C 40.58 14.94 41.85 17.79 41.88 20.81 C 41.32 24.48 35.73 25.09 34.36 21.66 C 33.60 18.52 34.15 15.21 34.01 12.00 C 31.33 12.00 28.66 12.00 25.99 12.00 C 25.82 15.22 26.47 18.59 25.58 21.70 C 24.17 25.12 18.69 24.44 18.06 20.82 C 18.21 17.80 19.39 14.94 20.00 12.00 C 18.00 12.00 16.00 12.00 14.00 12.00 C 12.24 15.37 10.60 18.78 9.17 22.31 C 7.29 25.48 1.84 23.74 2.04 20.10 C 3.82 17.27 6.07 14.78 7.94 12.01 Z" />
<path fill="#000000" opacity="1.00" d=" M 6.00 28.18 C 7.34 27.78 8.68 27.41 10.03 27.05 C 12.60 28.20 15.43 28.19 18.01 27.04 C 20.58 28.20 23.42 28.19 25.99 27.04 C 28.57 28.19 31.41 28.20 33.99 27.04 C 36.57 28.18 39.41 28.21 41.99 27.04 C 44.56 28.19 47.39 28.20 49.98 27.05 C 51.32 27.41 52.66 27.79 54.00 28.17 C 53.90 35.78 54.19 43.39 53.86 50.98 C 52.95 54.51 48.82 54.08 46.00 54.02 C 46.00 47.35 46.00 40.67 46.00 34.00 C 42.00 34.00 38.00 34.00 34.00 34.00 C 34.00 40.67 34.00 47.33 34.00 54.00 C 25.99 53.96 17.98 54.07 9.97 53.96 C 7.91 54.01 5.94 52.18 6.04 50.07 C 5.92 42.78 6.04 35.47 6.00 28.18 M 14.00 34.00 C 14.00 38.00 14.00 42.00 14.00 46.00 C 18.00 46.00 22.00 46.00 26.00 46.00 C 26.00 42.00 26.00 38.00 26.00 34.00 C 22.00 34.00 18.00 34.00 14.00 34.00 Z" />
</g>
</svg>
