<?xml version="1.0" encoding="UTF-8" ?>
<!DOCTYPE svg PUBLIC "-//W3C//DTD SVG 1.1//EN" "http://www.w3.org/Graphics/SVG/1.1/DTD/svg11.dtd">
<svg width="60pt" height="60pt" viewBox="0 0 60 60" version="1.1" xmlns="http://www.w3.org/2000/svg">
<g id="#ffffffff">
<path fill="#ffffff" opacity="1.00" d=" M 0.00 0.00 L 60.00 0.00 L 60.00 60.00 L 0.00 60.00 L 0.00 0.00 M 12.29 8.41 C 10.06 9.37 9.95 12.01 9.74 14.08 C 8.60 25.39 7.12 36.68 6.07 48.00 C 5.81 50.56 8.56 52.33 10.89 52.00 C 23.96 51.97 37.02 52.07 50.08 51.95 C 52.55 52.00 54.50 49.40 53.88 47.03 C 52.61 35.32 51.31 23.62 49.97 11.92 C 49.91 9.87 48.19 7.93 46.06 8.04 C 36.37 7.91 26.67 8.07 16.98 7.98 C 15.43 8.08 13.76 7.77 12.29 8.41 Z" />
<path fill="#ffffff" opacity="1.00" d=" M 18.05 15.02 C 17.78 12.17 22.07 10.90 23.47 13.35 C 24.85 16.58 22.90 20.72 25.27 23.67 C 27.33 26.51 31.92 26.77 34.28 24.17 C 36.97 21.48 35.54 17.37 36.19 14.02 C 36.84 11.72 40.35 11.32 41.51 13.41 C 42.77 15.11 41.36 16.89 40.12 18.08 C 40.05 21.29 39.53 24.78 37.02 27.07 C 33.19 31.10 26.06 30.85 22.51 26.58 C 20.31 24.31 19.99 21.07 19.88 18.08 C 19.24 17.10 17.83 16.38 18.05 15.02 Z" />
</g>
<g id="#000000ff">
<path fill="#000000" opacity="1.00" d=" M 12.29 8.41 C 13.76 7.77 15.43 8.08 16.98 7.98 C 26.67 8.07 36.37 7.91 46.06 8.04 C 48.19 7.93 49.91 9.87 49.97 11.92 C 51.31 23.62 52.61 35.32 53.88 47.03 C 54.50 49.40 52.55 52.00 50.08 51.95 C 37.02 52.07 23.96 51.97 10.89 52.00 C 8.56 52.33 5.81 50.56 6.07 48.00 C 7.12 36.68 8.60 25.39 9.74 14.08 C 9.95 12.01 10.06 9.37 12.29 8.41 M 18.05 15.02 C 17.83 16.38 19.24 17.10 19.88 18.08 C 19.99 21.07 20.31 24.31 22.51 26.58 C 26.06 30.85 33.19 31.10 37.02 27.07 C 39.53 24.78 40.05 21.29 40.12 18.08 C 41.36 16.89 42.77 15.11 41.51 13.41 C 40.35 11.32 36.84 11.72 36.19 14.02 C 35.54 17.37 36.97 21.48 34.28 24.17 C 31.92 26.77 27.33 26.51 25.27 23.67 C 22.90 20.72 24.85 16.58 23.47 13.35 C 22.07 10.90 17.78 12.17 18.05 15.02 Z" />
</g>
</svg>
