<?xml version="1.0" encoding="UTF-8" ?>
<!DOCTYPE svg PUBLIC "-//W3C//DTD SVG 1.1//EN" "http://www.w3.org/Graphics/SVG/1.1/DTD/svg11.dtd">
<svg width="64pt" height="64pt" viewBox="0 0 64 64" version="1.1" xmlns="http://www.w3.org/2000/svg">
<g id="#ffffffff">
<path fill="#ffffff" opacity="1.00" d=" M 0.00 0.00 L 64.00 0.00 L 64.00 64.00 L 0.00 64.00 L 0.00 0.00 M 10.00 10.00 C 10.00 24.67 10.00 39.33 10.00 54.00 C 24.67 54.00 39.33 54.00 54.00 54.00 C 54.00 39.33 54.00 24.67 54.00 10.00 C 39.33 10.00 24.67 10.00 10.00 10.00 Z" />
<path fill="#ffffff" opacity="1.00" d=" M 14.00 14.00 C 26.00 14.00 38.00 14.00 50.00 14.00 C 50.00 14.50 50.00 15.50 50.00 16.00 C 38.00 16.00 26.00 16.00 14.00 16.00 C 14.00 15.50 14.00 14.50 14.00 14.00 Z" />
<path fill="#ffffff" opacity="1.00" d=" M 13.99 19.99 C 16.67 20.00 19.34 20.00 22.02 20.08 C 20.77 23.88 17.88 26.78 14.07 28.02 C 14.00 25.34 14.00 22.66 13.99 19.99 Z" />
<path fill="#ffffff" opacity="1.00" d=" M 25.94 20.01 C 29.98 19.99 34.03 19.99 38.07 20.01 C 39.15 26.03 44.00 30.81 49.99 31.94 C 50.01 37.96 49.99 43.98 50.00 50.00 C 44.67 50.00 39.33 50.00 34.00 50.00 C 34.00 45.34 34.00 40.67 34.00 36.01 C 34.50 36.01 35.50 35.99 36.00 35.99 C 36.00 34.66 36.00 33.33 36.00 32.00 C 33.33 32.00 30.67 32.00 28.00 32.00 C 28.00 33.33 28.00 34.66 28.00 35.99 C 28.50 35.99 29.50 36.01 30.00 36.01 C 30.00 40.67 30.00 45.34 30.00 50.00 C 24.67 50.00 19.33 50.00 14.00 50.00 C 14.01 43.98 13.99 37.96 14.01 31.94 C 20.02 30.81 24.81 26.02 25.94 20.01 Z" />
<path fill="#ffffff" opacity="1.00" d=" M 41.97 20.07 C 44.65 20.00 47.33 20.00 50.01 19.99 C 50.00 22.66 50.00 25.34 49.93 28.02 C 46.12 26.78 43.22 23.88 41.97 20.07 Z" />
</g>
<g id="#000000ff">
<path fill="#000000" opacity="1.00" d=" M 10.00 10.00 C 24.67 10.00 39.33 10.00 54.00 10.00 C 54.00 24.67 54.00 39.33 54.00 54.00 C 39.33 54.00 24.67 54.00 10.00 54.00 C 10.00 39.33 10.00 24.67 10.00 10.00 M 14.00 14.00 C 14.00 14.50 14.00 15.50 14.00 16.00 C 26.00 16.00 38.00 16.00 50.00 16.00 C 50.00 15.50 50.00 14.50 50.00 14.00 C 38.00 14.00 26.00 14.00 14.00 14.00 M 13.99 19.99 C 14.00 22.66 14.00 25.34 14.07 28.02 C 17.88 26.78 20.77 23.88 22.02 20.08 C 19.34 20.00 16.67 20.00 13.99 19.99 M 25.94 20.01 C 24.81 26.02 20.02 30.81 14.01 31.94 C 13.99 37.96 14.01 43.98 14.00 50.00 C 19.33 50.00 24.67 50.00 30.00 50.00 C 30.00 45.34 30.00 40.67 30.00 36.01 C 29.50 36.01 28.50 35.99 28.00 35.99 C 28.00 34.66 28.00 33.33 28.00 32.00 C 30.67 32.00 33.33 32.00 36.00 32.00 C 36.00 33.33 36.00 34.66 36.00 35.99 C 35.50 35.99 34.50 36.01 34.00 36.01 C 34.00 40.67 34.00 45.34 34.00 50.00 C 39.33 50.00 44.67 50.00 50.00 50.00 C 49.99 43.98 50.01 37.96 49.99 31.94 C 44.00 30.81 39.15 26.03 38.07 20.01 C 34.03 19.99 29.98 19.99 25.94 20.01 M 41.97 20.07 C 43.22 23.88 46.12 26.78 49.93 28.02 C 50.00 25.34 50.00 22.66 50.01 19.99 C 47.33 20.00 44.65 20.00 41.97 20.07 Z" />
</g>
</svg>
