<?xml version="1.0" encoding="UTF-8" ?>
<!DOCTYPE svg PUBLIC "-//W3C//DTD SVG 1.1//EN" "http://www.w3.org/Graphics/SVG/1.1/DTD/svg11.dtd">
<svg width="60pt" height="60pt" viewBox="0 0 60 60" version="1.1" xmlns="http://www.w3.org/2000/svg">
<g id="#ffffffff">
<path fill="#ffffff" opacity="1.00" d=" M 0.00 0.00 L 60.00 0.00 L 60.00 60.00 L 0.00 60.00 L 0.00 0.00 M 10.29 8.41 C 6.80 10.26 8.30 14.81 7.97 17.99 C 7.54 20.62 8.79 24.02 11.92 23.95 C 23.64 24.07 35.37 23.97 47.10 24.00 C 49.14 24.23 51.37 23.08 51.84 20.97 C 52.15 17.98 52.06 14.95 51.95 11.95 C 51.99 9.90 50.21 7.97 48.12 8.05 C 37.09 7.91 26.06 8.07 15.03 7.98 C 13.46 8.07 11.78 7.78 10.29 8.41 M 25.42 30.67 C 19.77 32.58 14.68 36.69 11.90 41.99 C 15.37 49.53 23.72 54.99 32.15 53.86 C 39.05 53.09 45.18 48.20 48.10 42.00 C 43.88 34.21 34.51 27.94 25.42 30.67 Z" />
<path fill="#ffffff" opacity="1.00" d=" M 13.21 14.09 C 15.61 13.18 17.09 16.75 14.86 17.89 C 12.40 18.90 10.83 15.16 13.21 14.09 Z" />
<path fill="#ffffff" opacity="1.00" d=" M 21.23 14.16 C 23.59 13.08 25.19 16.95 22.78 17.87 C 20.43 18.91 18.79 15.04 21.23 14.16 Z" />
<path fill="#ffffff" opacity="1.00" d=" M 29.17 14.11 C 31.54 13.13 33.19 16.80 30.82 17.83 C 28.44 18.96 26.83 15.14 29.17 14.11 Z" />
<path fill="#ffffff" opacity="1.00" d=" M 37.14 14.11 C 39.57 13.08 41.21 16.90 38.76 17.86 C 36.38 18.85 34.89 15.19 37.14 14.11 Z" />
<path fill="#ffffff" opacity="1.00" d=" M 45.18 14.10 C 47.56 13.11 49.23 16.90 46.75 17.83 C 44.45 18.94 42.83 15.13 45.18 14.10 Z" />
<path fill="#ffffff" opacity="1.00" d=" M 27.30 34.48 C 32.99 32.12 39.53 38.07 37.74 43.95 C 36.58 49.49 29.05 51.94 24.87 48.11 C 20.17 44.52 21.63 36.21 27.30 34.48 M 28.39 38.36 C 23.61 40.21 26.96 47.94 31.58 45.65 C 36.40 43.83 33.02 35.99 28.39 38.36 Z" />
</g>
<g id="#000000ff">
<path fill="#000000" opacity="1.00" d=" M 10.29 8.41 C 11.78 7.78 13.46 8.07 15.03 7.98 C 26.06 8.07 37.09 7.91 48.12 8.05 C 50.21 7.97 51.99 9.90 51.95 11.95 C 52.06 14.95 52.15 17.98 51.84 20.97 C 51.37 23.08 49.14 24.23 47.10 24.00 C 35.37 23.97 23.64 24.07 11.92 23.95 C 8.79 24.02 7.54 20.62 7.97 17.99 C 8.30 14.81 6.80 10.26 10.29 8.41 M 13.21 14.09 C 10.83 15.16 12.40 18.90 14.86 17.89 C 17.09 16.75 15.61 13.18 13.21 14.09 M 21.23 14.16 C 18.79 15.04 20.43 18.91 22.78 17.87 C 25.19 16.95 23.59 13.08 21.23 14.16 M 29.17 14.11 C 26.83 15.14 28.44 18.96 30.82 17.83 C 33.19 16.80 31.54 13.13 29.17 14.11 M 37.14 14.11 C 34.89 15.19 36.38 18.85 38.76 17.86 C 41.21 16.90 39.57 13.08 37.14 14.11 M 45.18 14.10 C 42.83 15.13 44.45 18.94 46.75 17.83 C 49.23 16.90 47.56 13.11 45.18 14.10 Z" />
<path fill="#000000" opacity="1.00" d=" M 25.42 30.67 C 34.51 27.94 43.88 34.21 48.10 42.00 C 45.18 48.20 39.05 53.09 32.15 53.86 C 23.72 54.99 15.37 49.53 11.90 41.99 C 14.68 36.69 19.77 32.58 25.42 30.67 M 27.30 34.48 C 21.63 36.21 20.17 44.52 24.87 48.11 C 29.05 51.94 36.58 49.49 37.74 43.95 C 39.53 38.07 32.99 32.12 27.30 34.48 Z" />
<path fill="#000000" opacity="1.00" d=" M 28.39 38.36 C 33.02 35.99 36.40 43.83 31.58 45.65 C 26.96 47.94 23.61 40.21 28.39 38.36 Z" />
</g>
</svg>
