<?xml version="1.0" encoding="UTF-8" ?>
<!DOCTYPE svg PUBLIC "-//W3C//DTD SVG 1.1//EN" "http://www.w3.org/Graphics/SVG/1.1/DTD/svg11.dtd">
<svg width="60pt" height="60pt" viewBox="0 0 60 60" version="1.1" xmlns="http://www.w3.org/2000/svg">
<g id="#ffffffff">
<path fill="#ffffff" opacity="1.00" d=" M 0.00 0.00 L 16.33 0.00 C 12.18 0.38 8.41 3.77 8.11 8.02 C 7.82 12.66 8.08 17.31 8.00 21.95 C 6.07 22.28 3.32 21.23 2.09 23.24 C 1.46 25.08 3.27 26.27 4.92 25.98 C 21.94 25.97 38.96 26.10 55.97 25.92 C 58.55 26.24 58.64 21.85 56.05 22.09 C 41.37 21.87 26.68 22.07 12.00 22.00 C 12.11 17.30 11.77 12.59 12.15 7.91 C 12.66 4.66 16.84 2.91 19.57 4.71 C 20.88 5.40 21.37 6.88 22.08 8.08 C 19.81 9.35 18.26 11.41 17.77 13.97 C 21.92 14.02 26.08 14.02 30.23 13.97 C 29.71 11.52 28.32 9.48 26.14 8.22 C 25.29 3.74 21.57 0.12 16.90 0.00 L 60.00 0.00 L 60.00 60.00 L 0.00 60.00 L 0.00 0.00 M 4.00 30.00 C 4.99 34.27 5.74 38.59 6.86 42.83 C 8.00 47.20 12.44 50.23 16.91 49.99 C 25.62 50.01 34.34 50.01 43.05 49.99 C 47.52 50.24 51.96 47.22 53.13 42.87 C 54.25 38.62 55.01 34.28 56.00 30.00 C 38.66 30.00 21.33 30.00 4.00 30.00 Z" />
</g>
<g id="#000000ff">
<path fill="#968176" opacity="1.00" d=" M 16.33 0.00 L 16.90 0.00 C 21.57 0.12 25.29 3.74 26.14 8.22 C 28.32 9.48 29.71 11.52 30.23 13.97 C 26.08 14.02 21.92 14.02 17.77 13.97 C 18.26 11.41 19.81 9.35 22.08 8.08 C 21.37 6.88 20.88 5.40 19.57 4.71 C 16.84 2.91 12.66 4.66 12.15 7.91 C 11.77 12.59 12.11 17.30 12.00 22.00 C 26.68 22.07 41.37 21.87 56.05 22.09 C 58.64 21.85 58.55 26.24 55.97 25.92 C 38.96 26.10 21.94 25.97 4.92 25.98 C 3.27 26.27 1.46 25.08 2.09 23.24 C 3.32 21.23 6.07 22.28 8.00 21.95 C 8.08 17.31 7.82 12.66 8.11 8.02 C 8.41 3.77 12.18 0.38 16.33 0.00 Z" />
<path fill="#968176" opacity="1.00" d=" M 4.00 30.00 C 21.33 30.00 38.66 30.00 56.00 30.00 C 55.01 34.28 54.25 38.62 53.13 42.87 C 51.96 47.22 47.52 50.24 43.05 49.99 C 34.34 50.01 25.62 50.01 16.91 49.99 C 12.44 50.23 8.00 47.20 6.86 42.83 C 5.74 38.59 4.99 34.27 4.00 30.00 Z" />
</g>
</svg>
