<?xml version="1.0" encoding="UTF-8" ?>
<!DOCTYPE svg PUBLIC "-//W3C//DTD SVG 1.1//EN" "http://www.w3.org/Graphics/SVG/1.1/DTD/svg11.dtd">
<svg width="60pt" height="60pt" viewBox="0 0 60 60" version="1.1" xmlns="http://www.w3.org/2000/svg">
<g id="#ffffffff">
<path fill="#ffffff" opacity="1.00" d=" M 0.00 0.00 L 60.00 0.00 L 60.00 60.00 L 0.00 60.00 L 0.00 0.00 M 28.00 4.00 C 27.99 5.96 28.01 7.92 28.00 9.88 C 25.52 10.15 22.70 9.87 20.67 11.63 C 18.64 13.05 18.08 15.55 17.09 17.67 C 14.82 17.63 12.56 20.44 15.19 21.81 C 25.05 22.14 34.99 22.14 44.85 21.80 C 47.43 20.34 45.15 17.68 42.91 17.66 C 41.90 15.56 41.37 13.05 39.34 11.63 C 37.30 9.89 34.49 10.14 32.00 9.88 C 31.99 7.92 32.01 5.96 32.00 4.00 C 30.67 4.00 29.33 4.00 28.00 4.00 M 21.14 26.10 C 18.87 27.17 20.42 30.92 22.75 29.82 C 25.25 28.92 23.51 25.05 21.14 26.10 M 29.19 26.10 C 26.85 27.19 28.40 30.85 30.83 29.89 C 33.13 28.76 31.58 25.16 29.19 26.10 M 37.17 26.10 C 34.87 27.20 36.39 30.84 38.81 29.90 C 41.13 28.80 39.59 25.14 37.17 26.10 M 17.16 34.10 C 14.88 35.22 16.40 38.84 18.79 37.89 C 21.17 36.83 19.59 33.14 17.16 34.10 M 25.16 34.10 C 22.86 35.24 24.42 38.84 26.81 37.89 C 29.15 36.79 27.58 33.15 25.16 34.10 M 33.17 34.11 C 30.83 35.11 32.45 38.98 34.78 37.81 C 37.22 36.89 35.54 33.09 33.17 34.11 M 41.15 34.09 C 38.86 35.26 40.45 38.88 42.86 37.88 C 45.13 36.71 43.56 33.16 41.15 34.09 M 13.16 42.10 C 10.88 43.23 12.39 46.84 14.81 45.89 C 17.15 44.79 15.58 41.14 13.16 42.10 M 21.27 42.10 C 18.84 43.04 20.33 46.85 22.77 45.90 C 25.12 44.91 23.68 41.21 21.27 42.10 M 29.16 42.10 C 26.86 43.24 28.42 46.87 30.85 45.88 C 33.13 44.74 31.58 41.15 29.16 42.10 M 37.22 42.18 C 34.78 43.09 36.47 46.94 38.82 45.89 C 41.16 44.89 39.55 41.04 37.22 42.18 M 45.17 42.10 C 42.88 43.20 44.38 46.84 46.81 45.90 C 49.13 44.80 47.61 41.15 45.17 42.10 M 9.28 50.15 C 6.77 51.00 8.43 54.95 10.82 53.90 C 13.13 52.88 11.58 49.10 9.28 50.15 M 17.22 50.10 C 14.81 51.03 16.42 54.96 18.75 53.82 C 21.22 52.95 19.57 49.11 17.22 50.10 M 25.14 50.10 C 22.87 51.29 24.44 54.86 26.87 53.89 C 29.11 52.70 27.55 49.13 25.14 50.10 M 33.12 50.10 C 30.92 51.28 32.40 54.80 34.77 53.91 C 37.19 52.82 35.55 49.09 33.12 50.10 M 41.21 50.20 C 38.73 50.99 40.53 55.05 42.74 53.80 C 45.28 53.05 43.48 48.92 41.21 50.20 M 49.28 50.16 C 46.73 50.89 48.48 55.08 50.76 53.80 C 53.23 53.04 51.55 49.02 49.28 50.16 Z" />
</g>
<g id="#000000ff">
<path fill="#000000" opacity="1.00" d=" M 28.00 4.00 C 29.33 4.00 30.67 4.00 32.00 4.00 C 32.01 5.96 31.99 7.92 32.00 9.88 C 34.49 10.14 37.30 9.89 39.34 11.63 C 41.37 13.05 41.90 15.56 42.91 17.66 C 45.15 17.68 47.43 20.34 44.85 21.80 C 34.99 22.14 25.05 22.14 15.19 21.81 C 12.56 20.44 14.82 17.63 17.09 17.67 C 18.08 15.55 18.64 13.05 20.67 11.63 C 22.70 9.87 25.52 10.15 28.00 9.88 C 28.01 7.92 27.99 5.96 28.00 4.00 Z" />
<path fill="#000000" opacity="1.00" d=" M 21.14 26.10 C 23.51 25.05 25.25 28.92 22.75 29.82 C 20.42 30.92 18.87 27.17 21.14 26.10 Z" />
<path fill="#000000" opacity="1.00" d=" M 29.19 26.10 C 31.58 25.16 33.13 28.76 30.83 29.89 C 28.40 30.85 26.85 27.19 29.19 26.10 Z" />
<path fill="#000000" opacity="1.00" d=" M 37.17 26.10 C 39.59 25.14 41.13 28.80 38.81 29.90 C 36.39 30.84 34.87 27.20 37.17 26.10 Z" />
<path fill="#000000" opacity="1.00" d=" M 17.16 34.10 C 19.59 33.14 21.17 36.83 18.79 37.89 C 16.40 38.84 14.88 35.22 17.16 34.10 Z" />
<path fill="#000000" opacity="1.00" d=" M 25.16 34.10 C 27.58 33.15 29.15 36.79 26.81 37.89 C 24.42 38.84 22.86 35.24 25.16 34.10 Z" />
<path fill="#000000" opacity="1.00" d=" M 33.17 34.11 C 35.54 33.09 37.22 36.89 34.78 37.81 C 32.45 38.98 30.83 35.11 33.17 34.11 Z" />
<path fill="#000000" opacity="1.00" d=" M 41.15 34.09 C 43.56 33.16 45.13 36.71 42.86 37.88 C 40.45 38.88 38.86 35.26 41.15 34.09 Z" />
<path fill="#000000" opacity="1.00" d=" M 13.16 42.10 C 15.58 41.14 17.15 44.79 14.81 45.89 C 12.39 46.84 10.88 43.23 13.16 42.10 Z" />
<path fill="#000000" opacity="1.00" d=" M 21.27 42.10 C 23.68 41.21 25.12 44.91 22.77 45.90 C 20.33 46.85 18.84 43.04 21.27 42.10 Z" />
<path fill="#000000" opacity="1.00" d=" M 29.16 42.10 C 31.58 41.15 33.13 44.74 30.85 45.88 C 28.42 46.87 26.86 43.24 29.16 42.10 Z" />
<path fill="#000000" opacity="1.00" d=" M 37.22 42.18 C 39.55 41.04 41.16 44.89 38.82 45.89 C 36.47 46.94 34.78 43.09 37.22 42.18 Z" />
<path fill="#000000" opacity="1.00" d=" M 45.17 42.10 C 47.61 41.15 49.13 44.80 46.81 45.90 C 44.38 46.84 42.88 43.20 45.17 42.10 Z" />
<path fill="#000000" opacity="1.00" d=" M 9.28 50.15 C 11.58 49.10 13.13 52.88 10.82 53.90 C 8.43 54.95 6.77 51.00 9.28 50.15 Z" />
<path fill="#000000" opacity="1.00" d=" M 17.22 50.10 C 19.57 49.11 21.22 52.95 18.75 53.82 C 16.42 54.96 14.81 51.03 17.22 50.10 Z" />
<path fill="#000000" opacity="1.00" d=" M 25.14 50.10 C 27.55 49.13 29.11 52.70 26.87 53.89 C 24.44 54.86 22.87 51.29 25.14 50.10 Z" />
<path fill="#000000" opacity="1.00" d=" M 33.12 50.10 C 35.55 49.09 37.19 52.82 34.77 53.91 C 32.40 54.80 30.92 51.28 33.12 50.10 Z" />
<path fill="#000000" opacity="1.00" d=" M 41.21 50.20 C 43.48 48.92 45.28 53.05 42.74 53.80 C 40.53 55.05 38.73 50.99 41.21 50.20 Z" />
<path fill="#000000" opacity="1.00" d=" M 49.28 50.16 C 51.55 49.02 53.23 53.04 50.76 53.80 C 48.48 55.08 46.73 50.89 49.28 50.16 Z" />
</g>
</svg>
