<?xml version="1.0" encoding="UTF-8" ?>
<!DOCTYPE svg PUBLIC "-//W3C//DTD SVG 1.1//EN" "http://www.w3.org/Graphics/SVG/1.1/DTD/svg11.dtd">
<svg width="64pt" height="64pt" viewBox="0 0 64 64" version="1.1" xmlns="http://www.w3.org/2000/svg">
<g id="#ffffffff">
<path fill="#ffffff" opacity="1.00" d=" M 0.00 0.00 L 64.00 0.00 L 64.00 64.00 L 0.00 64.00 L 0.00 0.00 M 30.01 8.00 C 30.00 9.35 29.99 10.70 29.99 12.06 C 26.72 12.97 23.51 14.68 21.78 17.73 C 20.69 19.43 20.79 22.59 18.00 22.16 C 18.00 23.44 18.00 24.72 18.00 26.00 C 27.33 26.00 36.67 26.00 46.00 26.00 C 46.00 24.72 46.00 23.44 46.00 22.16 C 45.51 22.08 44.52 21.90 44.02 21.81 C 42.63 17.04 39.02 13.07 34.01 12.06 C 34.01 10.71 34.00 9.35 34.00 8.00 C 32.66 8.00 31.33 8.00 30.01 8.00 M 27.22 28.13 C 26.00 28.62 25.52 30.49 26.60 31.35 C 27.53 32.74 30.24 31.72 29.93 30.03 C 30.21 28.62 28.44 27.62 27.22 28.13 M 35.20 28.10 C 32.80 29.12 34.47 33.00 36.82 31.81 C 39.19 30.82 37.55 27.14 35.20 28.10 M 23.16 34.10 C 20.89 35.23 22.38 38.81 24.79 37.91 C 27.17 36.82 25.57 33.12 23.16 34.10 M 31.21 34.10 C 28.80 35.08 30.47 39.00 32.77 37.80 C 35.21 36.93 33.55 33.09 31.21 34.10 M 39.24 34.09 C 36.86 35.09 38.33 38.81 40.76 37.90 C 43.13 36.89 41.65 33.19 39.24 34.09 M 19.12 40.12 C 16.89 41.29 18.42 44.82 20.82 43.90 C 23.18 42.76 21.53 39.11 19.12 40.12 M 27.22 40.18 C 24.74 41.00 26.51 45.03 28.77 43.80 C 31.25 42.99 29.49 38.97 27.22 40.18 M 35.26 40.16 C 32.76 40.94 34.43 44.98 36.73 43.82 C 39.24 43.06 37.55 39.01 35.26 40.16 M 43.13 40.11 C 40.86 41.19 42.46 44.92 44.75 43.83 C 47.25 42.91 45.53 39.06 43.13 40.11 M 15.24 46.11 C 12.77 47.02 14.47 51.01 16.78 49.81 C 19.20 48.92 17.58 45.13 15.24 46.11 M 23.25 46.16 C 20.76 46.97 22.44 50.97 24.75 49.83 C 27.23 49.01 25.56 45.04 23.25 46.16 M 31.16 46.11 C 28.88 47.23 30.39 50.83 32.81 49.90 C 35.15 48.79 33.57 45.12 31.16 46.11 M 39.19 46.10 C 36.85 47.19 38.42 50.88 40.85 49.89 C 43.11 48.74 41.59 45.17 39.19 46.10 M 47.20 46.17 C 44.79 47.14 46.44 50.88 48.81 49.89 C 51.17 48.87 49.57 45.06 47.20 46.17 M 11.26 52.17 C 8.80 53.03 10.38 56.86 12.76 55.91 C 15.16 54.97 13.60 51.05 11.26 52.17 M 19.25 52.18 C 16.77 52.95 18.44 56.99 20.75 55.83 C 23.24 55.03 21.52 50.98 19.25 52.18 M 27.15 52.11 C 24.86 53.25 26.43 56.86 28.84 55.88 C 31.15 54.75 29.56 51.14 27.15 52.11 M 35.10 52.11 C 32.87 53.25 34.49 56.94 36.76 55.81 C 39.27 54.87 37.49 51.04 35.10 52.11 M 43.23 52.10 C 40.82 53.05 42.42 56.93 44.73 55.83 C 47.20 54.97 45.61 51.12 43.23 52.10 M 51.17 52.11 C 48.84 53.14 50.42 56.92 52.79 55.83 C 55.21 54.87 53.54 51.09 51.17 52.11 Z" />
<path fill="#ffffff" opacity="1.00" d=" M 24.20 21.95 C 25.45 18.34 28.93 15.42 32.93 16.06 C 36.29 16.26 38.63 19.02 39.80 21.95 C 34.60 22.03 29.40 22.03 24.20 21.95 Z" />
</g>
<g id="#000000ff">
<path fill="#000000" opacity="1.00" d=" M 30.01 8.00 C 31.33 8.00 32.66 8.00 34.00 8.00 C 34.00 9.35 34.01 10.71 34.01 12.06 C 39.02 13.07 42.63 17.04 44.02 21.81 C 44.52 21.90 45.51 22.08 46.00 22.16 C 46.00 23.44 46.00 24.72 46.00 26.00 C 36.67 26.00 27.33 26.00 18.00 26.00 C 18.00 24.72 18.00 23.44 18.00 22.16 C 20.79 22.59 20.69 19.43 21.78 17.73 C 23.51 14.68 26.72 12.97 29.99 12.06 C 29.99 10.70 30.00 9.35 30.01 8.00 M 24.20 21.95 C 29.40 22.03 34.60 22.03 39.80 21.95 C 38.63 19.02 36.29 16.26 32.93 16.06 C 28.93 15.42 25.45 18.34 24.20 21.95 Z" />
<path fill="#000000" opacity="1.00" d=" M 27.22 28.13 C 28.44 27.62 30.21 28.62 29.93 30.03 C 30.24 31.72 27.53 32.74 26.60 31.35 C 25.52 30.49 26.00 28.62 27.22 28.13 Z" />
<path fill="#000000" opacity="1.00" d=" M 35.20 28.10 C 37.55 27.14 39.19 30.82 36.82 31.81 C 34.47 33.00 32.80 29.12 35.20 28.10 Z" />
<path fill="#000000" opacity="1.00" d=" M 23.16 34.10 C 25.57 33.12 27.17 36.82 24.79 37.91 C 22.38 38.81 20.89 35.23 23.16 34.10 Z" />
<path fill="#000000" opacity="1.00" d=" M 31.21 34.10 C 33.55 33.09 35.21 36.93 32.77 37.80 C 30.47 39.00 28.80 35.08 31.21 34.10 Z" />
<path fill="#000000" opacity="1.00" d=" M 39.24 34.09 C 41.65 33.19 43.13 36.89 40.76 37.90 C 38.33 38.81 36.86 35.09 39.24 34.09 Z" />
<path fill="#000000" opacity="1.00" d=" M 19.12 40.12 C 21.53 39.11 23.18 42.76 20.82 43.90 C 18.42 44.82 16.89 41.29 19.12 40.12 Z" />
<path fill="#000000" opacity="1.00" d=" M 27.22 40.18 C 29.49 38.97 31.25 42.99 28.77 43.80 C 26.51 45.03 24.74 41.00 27.22 40.18 Z" />
<path fill="#000000" opacity="1.00" d=" M 35.26 40.16 C 37.55 39.01 39.24 43.06 36.73 43.82 C 34.43 44.98 32.76 40.94 35.26 40.16 Z" />
<path fill="#000000" opacity="1.00" d=" M 43.13 40.11 C 45.53 39.06 47.25 42.91 44.75 43.83 C 42.46 44.92 40.86 41.19 43.13 40.11 Z" />
<path fill="#000000" opacity="1.00" d=" M 15.24 46.11 C 17.58 45.13 19.20 48.92 16.78 49.81 C 14.47 51.01 12.77 47.02 15.24 46.11 Z" />
<path fill="#000000" opacity="1.00" d=" M 23.25 46.16 C 25.56 45.04 27.23 49.01 24.75 49.83 C 22.44 50.97 20.76 46.97 23.25 46.16 Z" />
<path fill="#000000" opacity="1.00" d=" M 31.16 46.11 C 33.57 45.12 35.15 48.79 32.81 49.90 C 30.39 50.83 28.88 47.23 31.16 46.11 Z" />
<path fill="#000000" opacity="1.00" d=" M 39.19 46.10 C 41.59 45.17 43.11 48.74 40.85 49.89 C 38.42 50.88 36.85 47.19 39.19 46.10 Z" />
<path fill="#000000" opacity="1.00" d=" M 47.20 46.17 C 49.57 45.06 51.17 48.87 48.81 49.89 C 46.44 50.88 44.79 47.14 47.20 46.17 Z" />
<path fill="#000000" opacity="1.00" d=" M 11.26 52.17 C 13.60 51.05 15.16 54.97 12.76 55.91 C 10.38 56.86 8.80 53.03 11.26 52.17 Z" />
<path fill="#000000" opacity="1.00" d=" M 19.25 52.18 C 21.52 50.98 23.24 55.03 20.75 55.83 C 18.44 56.99 16.77 52.95 19.25 52.18 Z" />
<path fill="#000000" opacity="1.00" d=" M 27.15 52.11 C 29.56 51.14 31.15 54.75 28.84 55.88 C 26.43 56.86 24.86 53.25 27.15 52.11 Z" />
<path fill="#000000" opacity="1.00" d=" M 35.10 52.11 C 37.49 51.04 39.27 54.87 36.76 55.81 C 34.49 56.94 32.87 53.25 35.10 52.11 Z" />
<path fill="#000000" opacity="1.00" d=" M 43.23 52.10 C 45.61 51.12 47.20 54.97 44.73 55.83 C 42.42 56.93 40.82 53.05 43.23 52.10 Z" />
<path fill="#000000" opacity="1.00" d=" M 51.17 52.11 C 53.54 51.09 55.21 54.87 52.79 55.83 C 50.42 56.92 48.84 53.14 51.17 52.11 Z" />
</g>
</svg>
