<?xml version="1.0" encoding="UTF-8" ?>
<!DOCTYPE svg PUBLIC "-//W3C//DTD SVG 1.1//EN" "http://www.w3.org/Graphics/SVG/1.1/DTD/svg11.dtd">
<svg width="64pt" height="64pt" viewBox="0 0 64 64" version="1.1" xmlns="http://www.w3.org/2000/svg">
<g id="#ffffffff">
<path fill="#ffffff" opacity="1.00" d=" M 0.00 0.00 L 64.00 0.00 L 64.00 64.00 L 45.04 64.00 C 52.08 63.17 57.98 58.78 62.95 54.01 C 57.77 49.07 51.50 44.24 44.04 44.01 C 36.56 44.20 30.26 49.04 25.07 53.99 C 29.96 58.76 35.83 63.06 42.78 64.00 L 0.00 64.00 L 0.00 0.00 M 13.16 17.17 C 7.94 23.63 6.58 32.90 9.64 40.61 C 11.60 45.91 15.64 50.20 20.45 53.07 C 21.43 52.08 22.41 51.10 23.40 50.12 C 19.99 48.16 16.79 45.64 14.83 42.17 C 10.84 35.63 11.13 26.78 15.61 20.56 C 19.85 14.36 27.76 10.97 35.18 12.26 C 42.85 13.41 49.49 19.46 51.35 27.00 C 52.64 31.63 51.86 36.57 49.97 40.92 C 51.21 41.39 52.46 41.87 53.71 42.35 C 56.06 36.90 56.77 30.66 54.92 24.96 C 52.31 16.17 44.28 9.30 35.16 8.23 C 26.92 7.04 18.25 10.60 13.16 17.17 M 15.87 31.98 C 17.21 31.99 18.54 32.00 19.88 32.00 C 20.04 25.50 25.52 20.07 32.00 19.87 C 32.00 18.54 31.99 17.21 31.98 15.87 C 23.41 16.00 16.00 23.41 15.87 31.98 Z" />
<path fill="#ffffff" opacity="1.00" d=" M 31.08 53.98 C 34.35 51.11 38.27 49.20 42.39 47.85 C 40.19 49.20 37.84 51.13 38.00 54.00 C 37.86 57.03 40.39 59.09 42.89 60.21 C 38.56 58.96 34.45 57.01 31.08 53.98 Z" />
<path fill="#ffffff" opacity="1.00" d=" M 45.44 53.53 C 43.30 52.50 43.68 48.42 46.12 48.29 C 50.22 49.01 53.76 51.44 56.94 54.00 C 53.55 56.98 49.47 58.93 45.18 60.22 C 48.38 58.99 50.39 55.99 50.12 52.52 C 48.78 53.39 47.02 54.66 45.44 53.53 Z" />
</g>
<g id="#000000ff">
<path fill="#000000" opacity="1.00" d=" M 13.16 17.17 C 18.25 10.60 26.92 7.04 35.16 8.23 C 44.28 9.30 52.31 16.17 54.92 24.96 C 56.77 30.66 56.06 36.90 53.71 42.35 C 52.46 41.87 51.21 41.39 49.97 40.92 C 51.86 36.57 52.64 31.63 51.35 27.00 C 49.49 19.46 42.85 13.41 35.18 12.26 C 27.76 10.97 19.85 14.36 15.61 20.56 C 11.13 26.78 10.84 35.63 14.83 42.17 C 16.79 45.64 19.99 48.16 23.40 50.12 C 22.41 51.10 21.43 52.08 20.45 53.07 C 15.64 50.20 11.60 45.91 9.64 40.61 C 6.58 32.90 7.94 23.63 13.16 17.17 Z" />
<path fill="#000000" opacity="1.00" d=" M 15.87 31.98 C 16.00 23.41 23.41 16.00 31.98 15.87 C 31.99 17.21 32.00 18.54 32.00 19.87 C 25.52 20.07 20.04 25.50 19.88 32.00 C 18.54 32.00 17.21 31.99 15.87 31.98 Z" />
<path fill="#000000" opacity="1.00" d=" M 25.07 53.99 C 30.26 49.04 36.56 44.20 44.04 44.01 C 51.50 44.24 57.77 49.07 62.95 54.01 C 57.98 58.78 52.08 63.17 45.04 64.00 L 42.78 64.00 C 35.83 63.06 29.96 58.76 25.07 53.99 M 31.08 53.98 C 34.45 57.01 38.56 58.96 42.89 60.21 C 40.39 59.09 37.86 57.03 38.00 54.00 C 37.84 51.13 40.19 49.20 42.39 47.85 C 38.27 49.20 34.35 51.11 31.08 53.98 M 45.44 53.53 C 47.02 54.66 48.78 53.39 50.12 52.52 C 50.39 55.99 48.38 58.99 45.18 60.22 C 49.47 58.93 53.55 56.98 56.94 54.00 C 53.76 51.44 50.22 49.01 46.12 48.29 C 43.68 48.42 43.30 52.50 45.44 53.53 Z" />
</g>
</svg>
