<?xml version="1.0" encoding="UTF-8" ?>
<!DOCTYPE svg PUBLIC "-//W3C//DTD SVG 1.1//EN" "http://www.w3.org/Graphics/SVG/1.1/DTD/svg11.dtd">
<svg width="64pt" height="64pt" viewBox="0 0 64 64" version="1.1" xmlns="http://www.w3.org/2000/svg">
<g id="#ffffffff">
<path fill="#ffffff" opacity="1.00" d=" M 0.00 0.00 L 64.00 0.00 L 64.00 64.00 L 0.00 64.00 L 0.00 0.00 M 46.01 5.98 C 46.00 8.65 46.00 11.32 46.00 14.00 C 42.94 14.00 39.89 14.01 36.83 13.99 C 34.20 18.62 31.62 23.29 29.00 27.93 C 26.39 23.29 23.81 18.63 21.18 14.00 C 16.79 14.00 12.39 14.00 8.00 14.00 C 8.00 15.33 8.00 16.67 8.00 18.00 C 11.61 18.00 15.22 18.00 18.83 18.00 C 21.43 22.67 24.07 27.33 26.69 32.00 C 24.06 36.66 21.45 41.34 18.81 46.00 C 15.21 46.00 11.60 46.00 8.00 46.00 C 8.00 47.33 8.00 48.67 8.00 50.00 C 12.37 50.02 16.74 49.96 21.11 50.03 C 27.23 39.41 33.14 28.67 39.19 18.00 C 41.46 18.00 43.73 18.00 46.00 18.00 C 46.00 20.67 46.00 23.33 46.00 26.00 C 49.34 22.66 52.68 19.33 56.01 15.98 C 52.68 12.64 49.34 9.31 46.01 5.98 M 31.25 40.12 C 33.13 43.42 34.93 46.76 36.87 50.03 C 39.92 49.98 42.96 50.00 46.00 50.00 C 46.00 52.67 46.00 55.33 46.00 58.00 C 49.34 54.66 52.68 51.33 56.01 47.98 C 52.69 44.63 49.32 41.33 46.02 37.97 C 46.00 40.65 45.99 43.32 46.00 46.00 C 43.73 46.00 41.47 46.00 39.21 46.00 C 37.31 42.67 35.44 39.33 33.56 35.99 C 32.79 37.37 32.02 38.74 31.25 40.12 Z" />
</g>
<g id="#000000ff">
<path fill="#000000" opacity="1.00" d=" M 46.01 5.98 C 49.34 9.31 52.68 12.64 56.01 15.98 C 52.68 19.33 49.34 22.66 46.00 26.00 C 46.00 23.33 46.00 20.67 46.00 18.00 C 43.73 18.00 41.46 18.00 39.19 18.00 C 33.14 28.67 27.23 39.41 21.11 50.03 C 16.74 49.96 12.37 50.02 8.00 50.00 C 8.00 48.67 8.00 47.33 8.00 46.00 C 11.60 46.00 15.21 46.00 18.81 46.00 C 21.45 41.34 24.06 36.66 26.69 32.00 C 24.07 27.33 21.43 22.67 18.83 18.00 C 15.22 18.00 11.61 18.00 8.00 18.00 C 8.00 16.67 8.00 15.33 8.00 14.00 C 12.39 14.00 16.79 14.00 21.18 14.00 C 23.81 18.63 26.39 23.29 29.00 27.93 C 31.62 23.29 34.20 18.62 36.83 13.99 C 39.89 14.01 42.94 14.00 46.00 14.00 C 46.00 11.32 46.00 8.65 46.01 5.98 Z" />
<path fill="#000000" opacity="1.00" d=" M 31.25 40.12 C 32.02 38.74 32.79 37.37 33.56 35.99 C 35.44 39.33 37.31 42.67 39.21 46.00 C 41.47 46.00 43.73 46.00 46.00 46.00 C 45.99 43.32 46.00 40.65 46.02 37.97 C 49.32 41.33 52.69 44.63 56.01 47.98 C 52.68 51.33 49.34 54.66 46.00 58.00 C 46.00 55.33 46.00 52.67 46.00 50.00 C 42.96 50.00 39.92 49.98 36.87 50.03 C 34.93 46.76 33.13 43.42 31.25 40.12 Z" />
</g>
</svg>
