<?xml version="1.0" encoding="UTF-8" ?>
<!DOCTYPE svg PUBLIC "-//W3C//DTD SVG 1.1//EN" "http://www.w3.org/Graphics/SVG/1.1/DTD/svg11.dtd">
<svg width="60pt" height="60pt" viewBox="0 0 60 60" version="1.1" xmlns="http://www.w3.org/2000/svg">
<g id="#ffffffff">
<path fill="#ffffff" opacity="1.00" d=" M 0.00 0.00 L 60.00 0.00 L 60.00 60.00 L 0.00 60.00 L 0.00 0.00 M 12.09 8.89 C 11.85 20.25 12.10 31.62 11.98 42.99 C 12.02 45.54 11.81 48.38 13.44 50.55 C 15.06 53.03 18.09 54.15 20.97 54.00 C 26.00 53.90 31.07 54.32 36.08 53.70 C 42.00 52.58 45.10 46.73 47.76 41.92 C 48.38 37.88 48.74 31.88 43.90 30.31 C 39.65 29.74 35.30 29.91 31.03 30.16 C 27.46 30.76 26.97 36.24 30.32 37.54 C 33.45 38.41 36.79 37.90 40.00 37.99 C 40.00 38.49 40.00 39.49 40.00 39.99 C 35.40 39.78 29.57 41.31 26.48 36.83 C 23.54 39.00 18.77 37.81 18.18 33.92 C 17.60 25.31 18.42 16.63 17.80 8.02 C 16.98 4.99 11.90 5.68 12.09 8.89 M 28.22 17.98 C 27.71 21.73 28.14 25.53 27.96 29.30 C 29.83 28.34 31.91 27.94 34.00 27.85 C 33.94 24.59 34.23 21.30 33.79 18.06 C 33.16 15.43 28.94 15.38 28.22 17.98 M 21.43 18.45 C 19.80 19.37 20.06 21.45 19.99 23.03 C 20.04 26.66 19.78 30.32 20.20 33.93 C 20.83 36.57 25.05 36.62 25.78 34.02 C 26.22 29.66 26.03 25.24 25.91 20.87 C 26.02 18.66 23.22 17.25 21.43 18.45 M 36.01 28.00 C 38.00 28.00 40.00 28.00 41.99 28.00 C 41.55 24.74 43.70 18.74 39.02 17.98 C 34.30 18.69 36.45 24.75 36.01 28.00 Z" />
</g>
<g id="#000000ff">
<path fill="#000000" opacity="1.00" d=" M 12.09 8.89 C 11.90 5.68 16.98 4.99 17.80 8.02 C 18.42 16.63 17.60 25.31 18.18 33.92 C 18.77 37.81 23.54 39.00 26.48 36.83 C 29.57 41.31 35.40 39.78 40.00 39.99 C 40.00 39.49 40.00 38.49 40.00 37.99 C 36.79 37.90 33.45 38.41 30.32 37.54 C 26.97 36.24 27.46 30.76 31.03 30.16 C 35.30 29.91 39.65 29.74 43.90 30.31 C 48.74 31.88 48.38 37.88 47.76 41.92 C 45.10 46.73 42.00 52.58 36.08 53.70 C 31.07 54.32 26.00 53.90 20.97 54.00 C 18.09 54.15 15.06 53.03 13.44 50.55 C 11.81 48.38 12.02 45.54 11.98 42.99 C 12.10 31.62 11.85 20.25 12.09 8.89 Z" />
<path fill="#000000" opacity="1.00" d=" M 28.22 17.98 C 28.94 15.38 33.16 15.43 33.79 18.06 C 34.23 21.30 33.94 24.59 34.00 27.85 C 31.91 27.94 29.83 28.34 27.96 29.30 C 28.14 25.53 27.71 21.73 28.22 17.98 Z" />
<path fill="#000000" opacity="1.00" d=" M 21.43 18.45 C 23.22 17.25 26.02 18.66 25.91 20.87 C 26.03 25.24 26.22 29.66 25.78 34.02 C 25.05 36.62 20.83 36.57 20.20 33.93 C 19.78 30.32 20.04 26.66 19.99 23.03 C 20.06 21.45 19.80 19.37 21.43 18.45 Z" />
<path fill="#000000" opacity="1.00" d=" M 36.01 28.00 C 36.45 24.75 34.30 18.69 39.02 17.98 C 43.70 18.74 41.55 24.74 41.99 28.00 C 40.00 28.00 38.00 28.00 36.01 28.00 Z" />
</g>
</svg>
