<?xml version="1.0" encoding="UTF-8" ?>
<!DOCTYPE svg PUBLIC "-//W3C//DTD SVG 1.1//EN" "http://www.w3.org/Graphics/SVG/1.1/DTD/svg11.dtd">
<svg width="60pt" height="60pt" viewBox="0 0 60 60" version="1.1" xmlns="http://www.w3.org/2000/svg">
<g id="#ffffffff">
<path fill="#ffffff" opacity="1.00" d=" M 0.00 0.00 L 60.00 0.00 L 60.00 60.00 L 0.00 60.00 L 0.00 0.00 M 24.61 8.63 C 21.72 13.59 19.43 18.91 16.76 24.00 C 12.88 24.10 8.97 23.75 5.10 24.18 C 4.87 24.42 4.41 24.91 4.18 25.15 C 3.81 32.10 4.00 39.10 4.08 46.06 C 3.92 47.65 5.73 48.15 6.98 47.99 C 20.01 47.97 33.05 48.08 46.08 47.94 C 48.49 48.00 49.63 45.56 50.90 43.93 C 52.57 41.25 54.86 38.92 56.07 35.97 C 53.90 31.98 51.16 28.22 48.23 24.76 C 45.46 23.30 42.08 24.24 39.07 24.01 C 40.08 25.65 41.17 27.27 41.85 29.08 C 42.81 32.10 39.08 35.18 36.31 33.59 C 34.06 32.69 33.84 30.04 34.06 27.95 C 35.07 29.27 35.96 30.73 37.24 31.82 C 38.71 32.78 40.81 30.66 39.74 29.23 C 36.09 22.63 32.02 16.25 28.18 9.75 C 27.62 8.45 25.75 7.18 24.61 8.63 Z" />
<path fill="#ffffff" opacity="1.00" d=" M 17.37 31.36 C 20.77 25.86 22.89 19.64 26.43 14.23 C 28.09 17.62 30.17 20.78 32.10 24.02 C 29.16 23.92 26.23 24.03 23.30 24.08 C 21.89 27.05 20.70 30.18 18.75 32.85 C 16.50 35.35 11.88 33.39 11.99 30.06 C 11.83 27.78 13.95 26.60 15.70 25.75 C 15.11 27.17 14.40 28.56 13.99 30.06 C 14.00 31.73 16.32 32.73 17.37 31.36 Z" />
</g>
<g id="#000000ff">
<path fill="#000000" opacity="1.00" d=" M 24.61 8.63 C 25.75 7.18 27.62 8.45 28.18 9.75 C 32.02 16.25 36.09 22.63 39.74 29.23 C 40.81 30.66 38.71 32.78 37.24 31.82 C 35.96 30.73 35.07 29.27 34.06 27.95 C 33.84 30.04 34.06 32.69 36.31 33.59 C 39.08 35.18 42.81 32.10 41.85 29.08 C 41.17 27.27 40.08 25.65 39.07 24.01 C 42.08 24.24 45.46 23.30 48.23 24.76 C 51.16 28.22 53.90 31.98 56.07 35.97 C 54.86 38.92 52.57 41.25 50.90 43.93 C 49.63 45.56 48.49 48.00 46.08 47.94 C 33.05 48.08 20.01 47.97 6.98 47.99 C 5.73 48.15 3.92 47.65 4.08 46.06 C 4.00 39.10 3.81 32.10 4.18 25.15 C 4.41 24.91 4.87 24.42 5.10 24.18 C 8.97 23.75 12.88 24.10 16.76 24.00 C 19.43 18.91 21.72 13.59 24.61 8.63 M 17.37 31.36 C 16.32 32.73 14.00 31.73 13.99 30.06 C 14.40 28.56 15.11 27.17 15.70 25.75 C 13.95 26.60 11.83 27.78 11.99 30.06 C 11.88 33.39 16.50 35.35 18.75 32.85 C 20.70 30.18 21.89 27.05 23.30 24.08 C 26.23 24.03 29.16 23.92 32.10 24.02 C 30.17 20.78 28.09 17.62 26.43 14.23 C 22.89 19.64 20.77 25.86 17.37 31.36 Z" />
</g>
</svg>
