<?xml version="1.0" encoding="UTF-8" ?>
<!DOCTYPE svg PUBLIC "-//W3C//DTD SVG 1.1//EN" "http://www.w3.org/Graphics/SVG/1.1/DTD/svg11.dtd">
<svg width="60pt" height="60pt" viewBox="0 0 60 60" version="1.1" xmlns="http://www.w3.org/2000/svg">
<g id="#ffffffff">
<path fill="#ffffff" opacity="1.00" d=" M 0.00 0.00 L 60.00 0.00 L 60.00 60.00 L 0.00 60.00 L 0.00 0.00 M 27.84 10.00 C 23.20 10.05 18.56 9.91 13.93 10.03 C 11.55 9.88 9.90 11.82 8.21 13.16 C 7.18 14.15 5.53 15.11 6.16 16.80 C 8.59 19.17 11.20 22.41 14.97 22.01 C 25.34 22.00 35.71 21.99 46.08 22.01 C 47.38 21.90 49.05 22.29 49.81 20.90 C 50.15 17.65 50.15 14.34 49.81 11.08 C 49.57 10.85 49.10 10.40 48.86 10.17 C 43.31 9.75 37.72 10.12 32.16 10.00 C 31.92 8.60 32.15 5.81 30.00 6.05 C 27.85 5.80 28.06 8.60 27.84 10.00 M 28.00 26.00 C 28.00 27.33 28.00 28.67 28.00 30.00 C 21.71 30.12 15.41 29.76 9.14 30.16 C 7.24 31.42 8.27 34.08 7.96 35.98 C 8.24 37.89 7.29 40.46 9.07 41.82 C 15.36 42.26 21.70 41.87 28.01 42.00 C 28.08 45.63 27.76 49.28 28.20 52.89 C 28.86 54.34 31.09 54.36 31.78 52.92 C 32.26 49.30 31.92 45.64 31.99 42.00 C 37.27 41.83 42.60 42.36 47.84 41.73 C 50.13 40.49 52.14 38.72 53.86 36.77 C 53.98 33.59 50.12 31.97 47.88 30.28 C 42.63 29.63 37.29 30.18 32.00 30.00 C 32.00 28.67 32.00 27.33 32.00 26.00 C 30.67 26.00 29.33 26.00 28.00 26.00 Z" />
</g>
<g id="#000000ff">
<path fill="#000000" opacity="1.00" d=" M 27.84 10.00 C 28.06 8.60 27.85 5.80 30.00 6.05 C 32.15 5.81 31.92 8.60 32.16 10.00 C 37.72 10.12 43.31 9.75 48.86 10.17 C 49.10 10.40 49.57 10.85 49.81 11.08 C 50.15 14.34 50.15 17.65 49.81 20.90 C 49.05 22.29 47.38 21.90 46.08 22.01 C 35.71 21.99 25.34 22.00 14.97 22.01 C 11.20 22.41 8.59 19.17 6.16 16.80 C 5.53 15.11 7.18 14.15 8.21 13.16 C 9.90 11.82 11.55 9.88 13.93 10.03 C 18.56 9.91 23.20 10.05 27.84 10.00 Z" />
<path fill="#000000" opacity="1.00" d=" M 28.00 26.00 C 29.33 26.00 30.67 26.00 32.00 26.00 C 32.00 27.33 32.00 28.67 32.00 30.00 C 37.29 30.18 42.63 29.63 47.88 30.28 C 50.12 31.97 53.98 33.59 53.86 36.77 C 52.14 38.72 50.13 40.49 47.84 41.73 C 42.60 42.36 37.27 41.83 31.99 42.00 C 31.92 45.64 32.26 49.30 31.78 52.92 C 31.09 54.36 28.86 54.34 28.20 52.89 C 27.76 49.28 28.08 45.63 28.01 42.00 C 21.70 41.87 15.36 42.26 9.07 41.82 C 7.29 40.46 8.24 37.89 7.96 35.98 C 8.27 34.08 7.24 31.42 9.14 30.16 C 15.41 29.76 21.71 30.12 28.00 30.00 C 28.00 28.67 28.00 27.33 28.00 26.00 Z" />
</g>
</svg>
