<?xml version="1.0" encoding="UTF-8" ?>
<!DOCTYPE svg PUBLIC "-//W3C//DTD SVG 1.1//EN" "http://www.w3.org/Graphics/SVG/1.1/DTD/svg11.dtd">
<svg width="64pt" height="64pt" viewBox="0 0 64 64" version="1.1" xmlns="http://www.w3.org/2000/svg">
<g id="#ffffffff">
<path fill="#ffffff" opacity="1.00" d=" M 0.00 0.00 L 64.00 0.00 L 64.00 64.00 L 0.00 64.00 L 0.00 0.00 M 14.06 22.97 C 13.90 33.31 14.05 43.66 14.00 54.00 C 12.67 54.00 11.33 54.00 10.00 54.00 C 10.00 55.33 10.00 56.67 10.00 58.00 C 24.67 58.00 39.33 58.00 54.00 58.00 C 54.00 56.67 54.00 55.33 54.00 54.00 C 52.67 54.00 51.33 54.00 50.00 54.00 C 49.94 43.65 50.11 33.29 49.93 22.94 C 49.65 13.72 41.20 5.79 32.00 6.01 C 22.78 5.79 14.32 13.73 14.06 22.97 Z" />
<path fill="#ffffff" opacity="1.00" d=" M 18.30 21.97 C 19.43 15.44 25.18 9.83 32.01 10.03 C 38.83 9.84 44.55 15.46 45.70 21.97 C 43.13 22.00 40.57 22.00 38.00 22.00 C 38.00 20.67 38.00 19.33 38.00 18.00 C 36.67 18.00 35.33 18.00 34.00 18.00 C 34.00 19.33 34.00 20.67 34.00 22.00 C 32.67 22.00 31.33 22.00 30.00 22.00 C 30.00 20.67 30.00 19.33 30.00 18.00 C 28.67 18.00 27.33 18.00 26.00 18.00 C 26.00 19.33 26.00 20.67 26.00 22.00 C 23.43 22.00 20.86 22.00 18.30 21.97 Z" />
<path fill="#ffffff" opacity="1.00" d=" M 18.00 26.00 C 20.67 26.00 23.33 26.00 26.00 26.00 C 26.00 35.33 26.00 44.67 26.00 54.00 C 23.33 54.00 20.67 54.00 18.00 54.00 C 18.00 44.67 18.00 35.33 18.00 26.00 Z" />
<path fill="#ffffff" opacity="1.00" d=" M 30.00 26.00 C 31.33 26.00 32.67 26.00 34.00 26.00 C 34.00 27.33 34.00 28.67 34.00 30.00 C 32.67 30.00 31.33 30.00 30.00 30.00 C 30.00 28.67 30.00 27.33 30.00 26.00 Z" />
<path fill="#ffffff" opacity="1.00" d=" M 38.00 26.00 C 40.67 26.00 43.33 26.00 46.00 26.00 C 46.00 35.33 46.00 44.67 46.00 54.00 C 43.33 54.00 40.67 54.00 38.00 54.00 C 38.00 44.67 38.00 35.33 38.00 26.00 Z" />
<path fill="#ffffff" opacity="1.00" d=" M 30.00 34.00 C 31.33 34.00 32.67 34.00 34.00 34.00 C 34.00 35.33 34.00 36.67 34.00 38.00 C 32.67 38.00 31.33 38.00 30.00 38.00 C 30.00 36.67 30.00 35.33 30.00 34.00 Z" />
<path fill="#ffffff" opacity="1.00" d=" M 30.00 42.00 C 31.33 42.00 32.67 42.00 34.00 42.00 C 34.00 43.33 34.00 44.67 34.00 46.00 C 32.67 46.00 31.33 46.00 30.00 46.00 C 30.00 44.67 30.00 43.33 30.00 42.00 Z" />
<path fill="#ffffff" opacity="1.00" d=" M 30.00 50.00 C 31.33 50.00 32.67 50.00 34.00 50.00 C 34.00 51.33 34.00 52.67 34.00 54.00 C 32.67 54.00 31.33 54.00 30.00 54.00 C 30.00 52.67 30.00 51.33 30.00 50.00 Z" />
</g>
<g id="#000000ff">
<path fill="#000000" opacity="1.00" d=" M 14.06 22.97 C 14.32 13.73 22.78 5.79 32.00 6.01 C 41.20 5.79 49.65 13.72 49.93 22.94 C 50.11 33.29 49.94 43.65 50.00 54.00 C 51.33 54.00 52.67 54.00 54.00 54.00 C 54.00 55.33 54.00 56.67 54.00 58.00 C 39.33 58.00 24.67 58.00 10.00 58.00 C 10.00 56.67 10.00 55.33 10.00 54.00 C 11.33 54.00 12.67 54.00 14.00 54.00 C 14.05 43.66 13.90 33.31 14.06 22.97 M 18.30 21.97 C 20.86 22.00 23.43 22.00 26.00 22.00 C 26.00 20.67 26.00 19.33 26.00 18.00 C 27.33 18.00 28.67 18.00 30.00 18.00 C 30.00 19.33 30.00 20.67 30.00 22.00 C 31.33 22.00 32.67 22.00 34.00 22.00 C 34.00 20.67 34.00 19.33 34.00 18.00 C 35.33 18.00 36.67 18.00 38.00 18.00 C 38.00 19.33 38.00 20.67 38.00 22.00 C 40.57 22.00 43.13 22.00 45.70 21.97 C 44.55 15.46 38.83 9.84 32.01 10.03 C 25.18 9.83 19.43 15.44 18.30 21.97 M 18.00 26.00 C 18.00 35.33 18.00 44.67 18.00 54.00 C 20.67 54.00 23.33 54.00 26.00 54.00 C 26.00 44.67 26.00 35.33 26.00 26.00 C 23.33 26.00 20.67 26.00 18.00 26.00 M 30.00 26.00 C 30.00 27.33 30.00 28.67 30.00 30.00 C 31.33 30.00 32.67 30.00 34.00 30.00 C 34.00 28.67 34.00 27.33 34.00 26.00 C 32.67 26.00 31.33 26.00 30.00 26.00 M 38.00 26.00 C 38.00 35.33 38.00 44.67 38.00 54.00 C 40.67 54.00 43.33 54.00 46.00 54.00 C 46.00 44.67 46.00 35.33 46.00 26.00 C 43.33 26.00 40.67 26.00 38.00 26.00 M 30.00 34.00 C 30.00 35.33 30.00 36.67 30.00 38.00 C 31.33 38.00 32.67 38.00 34.00 38.00 C 34.00 36.67 34.00 35.33 34.00 34.00 C 32.67 34.00 31.33 34.00 30.00 34.00 M 30.00 42.00 C 30.00 43.33 30.00 44.67 30.00 46.00 C 31.33 46.00 32.67 46.00 34.00 46.00 C 34.00 44.67 34.00 43.33 34.00 42.00 C 32.67 42.00 31.33 42.00 30.00 42.00 M 30.00 50.00 C 30.00 51.33 30.00 52.67 30.00 54.00 C 31.33 54.00 32.67 54.00 34.00 54.00 C 34.00 52.67 34.00 51.33 34.00 50.00 C 32.67 50.00 31.33 50.00 30.00 50.00 Z" />
</g>
</svg>
