<?xml version="1.0" encoding="UTF-8" ?>
<!DOCTYPE svg PUBLIC "-//W3C//DTD SVG 1.1//EN" "http://www.w3.org/Graphics/SVG/1.1/DTD/svg11.dtd">
<svg width="64pt" height="64pt" viewBox="0 0 64 64" version="1.1" xmlns="http://www.w3.org/2000/svg">
<g id="#ffffffff">
<path fill="#ffffff" opacity="1.00" d=" M 0.00 0.00 L 64.00 0.00 L 64.00 64.00 L 0.00 64.00 L 0.00 0.00 M 16.00 8.01 C 18.54 14.10 21.06 20.19 23.59 26.29 C 15.60 31.16 13.38 43.13 19.75 50.19 C 25.61 57.84 38.35 57.84 44.23 50.22 C 50.62 43.18 48.40 31.16 40.41 26.29 C 42.94 20.20 45.47 14.10 48.00 8.01 C 46.66 8.00 45.33 8.00 43.99 8.00 C 41.66 13.59 39.29 19.17 36.96 24.77 C 36.06 24.58 34.24 24.20 33.33 24.01 C 35.56 18.68 37.77 13.34 40.00 8.01 C 38.66 8.00 37.33 8.00 36.00 8.00 C 33.65 13.39 31.59 18.92 29.08 24.24 C 28.54 24.37 27.48 24.63 26.94 24.76 C 24.51 19.22 22.30 13.57 19.94 8.00 C 18.62 8.00 17.31 8.00 16.00 8.01 M 24.00 8.00 C 25.53 11.69 27.04 15.37 28.56 19.05 C 29.23 17.42 29.89 15.79 30.57 14.17 C 29.71 12.11 28.85 10.06 28.00 8.00 C 26.67 8.00 25.33 8.00 24.00 8.00 Z" />
<path fill="#ffffff" opacity="1.00" d=" M 28.41 28.58 C 34.72 26.39 42.15 30.56 43.60 37.06 C 45.42 43.49 40.77 50.81 34.13 51.77 C 27.50 53.19 20.50 47.88 20.08 41.11 C 19.45 35.64 23.14 30.13 28.41 28.58 M 24.00 34.00 C 24.00 35.33 24.00 36.66 24.00 37.99 C 24.50 37.99 25.50 38.01 26.00 38.01 C 26.00 39.34 26.00 40.66 26.00 41.99 C 25.50 41.99 24.50 42.01 24.00 42.01 C 24.00 43.34 24.00 44.67 24.00 46.00 C 29.33 46.00 34.67 46.00 40.00 46.00 C 40.00 44.67 40.00 43.34 40.00 42.01 C 39.50 42.01 38.50 41.99 38.00 41.99 C 38.00 40.66 38.00 39.34 38.00 38.01 C 38.50 38.01 39.50 37.99 40.00 37.99 C 40.00 36.66 40.00 35.33 40.00 34.00 C 34.67 34.00 29.33 34.00 24.00 34.00 Z" />
<path fill="#ffffff" opacity="1.00" d=" M 30.00 38.00 C 31.33 38.00 32.67 38.00 34.00 38.00 C 34.00 39.33 34.00 40.67 34.00 42.00 C 32.67 42.00 31.33 42.00 30.00 42.00 C 30.00 40.67 30.00 39.33 30.00 38.00 Z" />
</g>
<g id="#000000ff">
<path fill="#000000" opacity="1.00" d=" M 16.00 8.01 C 17.31 8.00 18.62 8.00 19.94 8.00 C 22.30 13.57 24.51 19.22 26.94 24.76 C 27.48 24.63 28.54 24.37 29.08 24.24 C 31.59 18.92 33.65 13.39 36.00 8.00 C 37.33 8.00 38.66 8.00 40.00 8.01 C 37.77 13.34 35.56 18.68 33.33 24.01 C 34.24 24.20 36.06 24.58 36.96 24.77 C 39.29 19.17 41.66 13.59 43.99 8.00 C 45.33 8.00 46.66 8.00 48.00 8.01 C 45.47 14.10 42.94 20.20 40.41 26.29 C 48.40 31.16 50.62 43.18 44.23 50.22 C 38.35 57.84 25.61 57.84 19.75 50.19 C 13.38 43.13 15.60 31.16 23.59 26.29 C 21.06 20.19 18.54 14.10 16.00 8.01 M 28.41 28.58 C 23.14 30.13 19.45 35.64 20.08 41.11 C 20.50 47.88 27.50 53.19 34.13 51.77 C 40.77 50.81 45.42 43.49 43.60 37.06 C 42.15 30.56 34.72 26.39 28.41 28.58 Z" />
<path fill="#000000" opacity="1.00" d=" M 24.00 8.00 C 25.33 8.00 26.67 8.00 28.00 8.00 C 28.85 10.06 29.71 12.11 30.57 14.17 C 29.89 15.79 29.23 17.42 28.56 19.05 C 27.04 15.37 25.53 11.69 24.00 8.00 Z" />
<path fill="#000000" opacity="1.00" d=" M 24.00 34.00 C 29.33 34.00 34.67 34.00 40.00 34.00 C 40.00 35.33 40.00 36.66 40.00 37.99 C 39.50 37.99 38.50 38.01 38.00 38.01 C 38.00 39.34 38.00 40.66 38.00 41.99 C 38.50 41.99 39.50 42.01 40.00 42.01 C 40.00 43.34 40.00 44.67 40.00 46.00 C 34.67 46.00 29.33 46.00 24.00 46.00 C 24.00 44.67 24.00 43.34 24.00 42.01 C 24.50 42.01 25.50 41.99 26.00 41.99 C 26.00 40.66 26.00 39.34 26.00 38.01 C 25.50 38.01 24.50 37.99 24.00 37.99 C 24.00 36.66 24.00 35.33 24.00 34.00 M 30.00 38.00 C 30.00 39.33 30.00 40.67 30.00 42.00 C 31.33 42.00 32.67 42.00 34.00 42.00 C 34.00 40.67 34.00 39.33 34.00 38.00 C 32.67 38.00 31.33 38.00 30.00 38.00 Z" />
</g>
</svg>
