<?xml version="1.0" encoding="UTF-8" ?>
<!DOCTYPE svg PUBLIC "-//W3C//DTD SVG 1.1//EN" "http://www.w3.org/Graphics/SVG/1.1/DTD/svg11.dtd">
<svg width="64pt" height="64pt" viewBox="0 0 64 64" version="1.1" xmlns="http://www.w3.org/2000/svg">
<g id="#ffffffff">
<path fill="#ffffff" opacity="1.00" d=" M 0.00 0.00 L 64.00 0.00 L 64.00 64.00 L 0.00 64.00 L 0.00 0.00 M 7.85 10.02 C 10.10 24.57 10.14 39.31 10.09 54.00 C 15.39 54.00 20.69 53.99 26.00 54.00 C 26.00 52.66 26.00 51.33 26.00 50.00 C 22.00 50.00 18.00 50.00 14.00 50.00 C 14.01 40.67 14.01 31.34 14.00 22.01 C 18.00 22.00 22.00 22.00 26.00 21.99 C 26.00 20.66 26.00 19.33 26.00 18.01 C 21.33 18.01 16.67 17.99 12.00 17.99 C 12.00 16.66 12.00 15.33 12.00 14.01 C 16.67 14.01 21.33 14.00 26.00 14.00 C 26.00 12.66 26.00 11.33 26.00 10.00 C 19.95 10.01 13.90 10.02 7.85 10.02 M 30.00 10.00 C 30.00 11.33 30.00 12.67 30.00 14.00 C 31.33 14.00 32.67 14.00 34.00 14.00 C 34.00 12.67 34.00 11.33 34.00 10.00 C 32.67 10.00 31.33 10.00 30.00 10.00 M 38.00 10.00 C 38.00 11.33 38.00 12.66 38.00 14.00 C 42.67 14.00 47.33 14.00 52.00 14.01 C 52.00 15.34 52.00 16.66 52.00 17.99 C 47.33 18.00 42.66 18.01 38.00 18.01 C 38.00 19.34 38.00 20.66 38.00 21.99 C 42.00 22.00 46.00 22.00 50.00 22.01 C 49.99 31.33 49.99 40.66 50.00 49.99 C 46.00 49.99 42.00 50.00 38.00 50.01 C 38.00 51.34 38.00 52.67 38.00 54.00 C 43.30 53.99 48.59 53.99 53.89 54.00 C 53.66 39.29 54.79 24.63 56.22 10.01 C 50.15 10.01 44.07 10.01 38.00 10.00 M 30.00 18.00 C 30.00 19.33 30.00 20.67 30.00 22.00 C 31.33 22.00 32.67 22.00 34.00 22.00 C 34.00 20.67 34.00 19.33 34.00 18.00 C 32.67 18.00 31.33 18.00 30.00 18.00 M 30.00 26.00 C 30.00 27.33 30.00 28.67 30.00 30.00 C 31.33 30.00 32.67 30.00 34.00 30.00 C 34.00 28.67 34.00 27.33 34.00 26.00 C 32.67 26.00 31.33 26.00 30.00 26.00 M 30.00 34.00 C 30.00 35.33 30.00 36.67 30.00 38.00 C 31.33 38.00 32.67 38.00 34.00 38.00 C 34.00 36.67 34.00 35.33 34.00 34.00 C 32.67 34.00 31.33 34.00 30.00 34.00 M 30.00 42.00 C 30.00 43.33 30.00 44.67 30.00 46.00 C 31.33 46.00 32.67 46.00 34.00 46.00 C 34.00 44.67 34.00 43.33 34.00 42.00 C 32.67 42.00 31.33 42.00 30.00 42.00 M 30.00 50.00 C 30.00 51.33 30.00 52.67 30.00 54.00 C 31.33 54.00 32.67 54.00 34.00 54.00 C 34.00 52.67 34.00 51.33 34.00 50.00 C 32.67 50.00 31.33 50.00 30.00 50.00 Z" />
</g>
<g id="#000000ff">
<path fill="#000000" opacity="1.00" d=" M 7.85 10.02 C 13.90 10.02 19.95 10.01 26.00 10.00 C 26.00 11.33 26.00 12.66 26.00 14.00 C 21.33 14.00 16.67 14.01 12.00 14.01 C 12.00 15.33 12.00 16.66 12.00 17.99 C 16.67 17.99 21.33 18.01 26.00 18.01 C 26.00 19.33 26.00 20.66 26.00 21.99 C 22.00 22.00 18.00 22.00 14.00 22.01 C 14.01 31.34 14.01 40.67 14.00 50.00 C 18.00 50.00 22.00 50.00 26.00 50.00 C 26.00 51.33 26.00 52.66 26.00 54.00 C 20.69 53.99 15.39 54.00 10.09 54.00 C 10.14 39.31 10.10 24.57 7.85 10.02 Z" />
<path fill="#000000" opacity="1.00" d=" M 30.00 10.00 C 31.33 10.00 32.67 10.00 34.00 10.00 C 34.00 11.33 34.00 12.67 34.00 14.00 C 32.67 14.00 31.33 14.00 30.00 14.00 C 30.00 12.67 30.00 11.33 30.00 10.00 Z" />
<path fill="#000000" opacity="1.00" d=" M 38.00 10.00 C 44.07 10.01 50.15 10.01 56.22 10.01 C 54.79 24.63 53.66 39.29 53.89 54.00 C 48.59 53.99 43.30 53.99 38.00 54.00 C 38.00 52.67 38.00 51.34 38.00 50.01 C 42.00 50.00 46.00 49.99 50.00 49.99 C 49.99 40.66 49.99 31.33 50.00 22.01 C 46.00 22.00 42.00 22.00 38.00 21.99 C 38.00 20.66 38.00 19.34 38.00 18.01 C 42.66 18.01 47.33 18.00 52.00 17.99 C 52.00 16.66 52.00 15.34 52.00 14.01 C 47.33 14.00 42.67 14.00 38.00 14.00 C 38.00 12.66 38.00 11.33 38.00 10.00 Z" />
<path fill="#000000" opacity="1.00" d=" M 30.00 18.00 C 31.33 18.00 32.67 18.00 34.00 18.00 C 34.00 19.33 34.00 20.67 34.00 22.00 C 32.67 22.00 31.33 22.00 30.00 22.00 C 30.00 20.67 30.00 19.33 30.00 18.00 Z" />
<path fill="#000000" opacity="1.00" d=" M 30.00 26.00 C 31.33 26.00 32.67 26.00 34.00 26.00 C 34.00 27.33 34.00 28.67 34.00 30.00 C 32.67 30.00 31.33 30.00 30.00 30.00 C 30.00 28.67 30.00 27.33 30.00 26.00 Z" />
<path fill="#000000" opacity="1.00" d=" M 30.00 34.00 C 31.33 34.00 32.67 34.00 34.00 34.00 C 34.00 35.33 34.00 36.67 34.00 38.00 C 32.67 38.00 31.33 38.00 30.00 38.00 C 30.00 36.67 30.00 35.33 30.00 34.00 Z" />
<path fill="#000000" opacity="1.00" d=" M 30.00 42.00 C 31.33 42.00 32.67 42.00 34.00 42.00 C 34.00 43.33 34.00 44.67 34.00 46.00 C 32.67 46.00 31.33 46.00 30.00 46.00 C 30.00 44.67 30.00 43.33 30.00 42.00 Z" />
<path fill="#000000" opacity="1.00" d=" M 30.00 50.00 C 31.33 50.00 32.67 50.00 34.00 50.00 C 34.00 51.33 34.00 52.67 34.00 54.00 C 32.67 54.00 31.33 54.00 30.00 54.00 C 30.00 52.67 30.00 51.33 30.00 50.00 Z" />
</g>
</svg>
