<?xml version="1.0" encoding="UTF-8" ?>
<!DOCTYPE svg PUBLIC "-//W3C//DTD SVG 1.1//EN" "http://www.w3.org/Graphics/SVG/1.1/DTD/svg11.dtd">
<svg width="60pt" height="60pt" viewBox="0 0 60 60" version="1.1" xmlns="http://www.w3.org/2000/svg">
<g id="#ffffffff">
<path fill="#ffffff" opacity="1.00" d=" M 0.00 0.00 L 60.00 0.00 L 60.00 60.00 L 0.00 60.00 L 0.00 0.00 M 9.20 8.07 C 7.43 9.07 8.19 11.33 7.97 12.98 C 8.10 25.34 7.85 37.72 8.09 50.08 C 7.87 52.59 12.17 52.56 11.91 50.05 C 12.16 44.14 11.90 38.22 12.01 32.31 C 12.39 32.13 13.14 31.78 13.51 31.61 C 15.71 24.85 16.40 16.85 21.92 11.77 C 24.80 16.79 26.01 22.50 27.62 28.00 C 24.60 27.99 21.58 28.01 18.56 28.01 C 18.24 29.34 17.92 30.67 17.59 32.00 C 21.31 31.99 25.04 32.01 28.76 32.00 C 30.66 38.16 31.96 44.83 36.05 50.00 C 38.44 53.13 43.15 52.12 45.42 49.40 C 49.34 44.89 50.48 38.77 51.59 33.08 C 51.70 31.45 52.65 29.26 50.96 28.13 C 45.91 27.80 40.83 28.09 35.77 28.00 C 36.15 29.33 36.52 30.67 36.89 32.00 C 40.51 31.99 44.12 32.00 47.74 32.01 C 46.34 37.75 45.86 45.30 39.99 48.38 C 38.63 46.85 37.37 45.20 36.64 43.26 C 32.47 33.25 31.00 22.33 26.76 12.35 C 25.78 9.78 23.17 6.89 20.16 8.38 C 15.18 11.02 13.82 17.12 11.99 21.99 C 11.94 17.99 12.14 13.99 11.93 9.99 C 12.10 8.51 10.48 7.67 9.20 8.07 Z" />
</g>
<g id="#000000ff">
<path fill="#000000" opacity="1.00" d=" M 9.20 8.07 C 10.48 7.67 12.10 8.51 11.93 9.99 C 12.14 13.99 11.94 17.99 11.99 21.99 C 13.82 17.12 15.18 11.02 20.16 8.38 C 23.17 6.89 25.78 9.78 26.76 12.35 C 31.00 22.33 32.47 33.25 36.64 43.26 C 37.37 45.20 38.63 46.85 39.99 48.38 C 45.86 45.30 46.34 37.75 47.74 32.01 C 44.12 32.00 40.51 31.99 36.89 32.00 C 36.52 30.67 36.15 29.33 35.77 28.00 C 40.83 28.09 45.91 27.80 50.96 28.13 C 52.65 29.26 51.70 31.45 51.59 33.08 C 50.48 38.77 49.34 44.89 45.42 49.40 C 43.15 52.12 38.44 53.13 36.05 50.00 C 31.96 44.83 30.66 38.16 28.76 32.00 C 25.04 32.01 21.31 31.99 17.59 32.00 C 17.92 30.67 18.24 29.34 18.56 28.01 C 21.58 28.01 24.60 27.99 27.62 28.00 C 26.01 22.50 24.80 16.79 21.92 11.77 C 16.40 16.85 15.71 24.85 13.51 31.61 C 13.14 31.78 12.39 32.13 12.01 32.31 C 11.90 38.22 12.16 44.14 11.91 50.05 C 12.17 52.56 7.87 52.59 8.09 50.08 C 7.85 37.72 8.10 25.34 7.97 12.98 C 8.19 11.33 7.43 9.07 9.20 8.07 Z" />
</g>
</svg>
