<?xml version="1.0" encoding="UTF-8" ?>
<!DOCTYPE svg PUBLIC "-//W3C//DTD SVG 1.1//EN" "http://www.w3.org/Graphics/SVG/1.1/DTD/svg11.dtd">
<svg width="60pt" height="60pt" viewBox="0 0 60 60" version="1.1" xmlns="http://www.w3.org/2000/svg">
<g id="#ffffffff">
<path fill="#ffffff" opacity="1.00" d=" M 0.00 0.00 L 60.00 0.00 L 60.00 60.00 L 0.00 60.00 L 0.00 0.00 M 10.07 10.00 C 9.83 18.64 10.16 27.30 9.93 35.94 C 8.02 36.37 5.30 35.19 4.14 37.27 C 3.77 38.49 4.62 40.15 6.06 39.94 C 21.39 40.09 36.72 39.94 52.05 40.01 C 53.49 40.01 56.12 40.18 55.88 37.99 C 55.81 35.06 51.96 36.34 50.07 35.93 C 49.78 27.00 50.29 18.05 49.84 9.13 C 49.60 6.79 47.12 5.83 45.05 6.01 C 34.70 6.02 24.35 5.92 14.00 6.07 C 11.83 5.94 9.93 7.83 10.07 10.00 M 10.04 44.03 C 9.98 46.57 9.74 49.18 10.37 51.66 C 11.14 53.94 13.92 54.05 15.93 54.01 C 26.25 53.88 36.58 54.23 46.88 53.84 C 51.24 52.81 49.83 47.31 49.96 44.04 C 36.66 43.97 23.35 43.98 10.04 44.03 Z" />
<path fill="#ffffff" opacity="1.00" d=" M 23.97 21.23 C 26.30 18.77 29.53 17.37 32.94 18.01 C 33.05 24.01 33.06 30.01 32.93 36.00 C 31.36 36.06 29.79 35.98 28.24 35.75 C 28.28 31.48 28.62 27.18 28.13 22.93 C 26.53 22.92 25.33 24.20 23.94 24.81 C 23.80 23.61 23.81 22.42 23.97 21.23 Z" />
</g>
<g id="#000000ff">
<path fill="#968176" opacity="1.00" d=" M 10.07 10.00 C 9.93 7.83 11.83 5.94 14.00 6.07 C 24.35 5.92 34.70 6.02 45.05 6.01 C 47.12 5.83 49.60 6.79 49.84 9.13 C 50.29 18.05 49.78 27.00 50.07 35.93 C 51.96 36.34 55.81 35.06 55.88 37.99 C 56.12 40.18 53.49 40.01 52.05 40.01 C 36.72 39.94 21.39 40.09 6.06 39.94 C 4.62 40.15 3.77 38.49 4.14 37.27 C 5.30 35.19 8.02 36.37 9.93 35.94 C 10.16 27.30 9.83 18.64 10.07 10.00 M 23.97 21.23 C 23.81 22.42 23.80 23.61 23.94 24.81 C 25.33 24.20 26.53 22.92 28.13 22.93 C 28.62 27.18 28.28 31.48 28.24 35.75 C 29.79 35.98 31.36 36.06 32.93 36.00 C 33.06 30.01 33.05 24.01 32.94 18.01 C 29.53 17.37 26.30 18.77 23.97 21.23 Z" />
<path fill="#968176" opacity="1.00" d=" M 10.04 44.03 C 23.35 43.98 36.66 43.97 49.96 44.04 C 49.83 47.31 51.24 52.81 46.88 53.84 C 36.58 54.23 26.25 53.88 15.93 54.01 C 13.92 54.05 11.14 53.94 10.37 51.66 C 9.74 49.18 9.98 46.57 10.04 44.03 Z" />
</g>
</svg>
