<?xml version="1.0" encoding="UTF-8" ?>
<!DOCTYPE svg PUBLIC "-//W3C//DTD SVG 1.1//EN" "http://www.w3.org/Graphics/SVG/1.1/DTD/svg11.dtd">
<svg width="60pt" height="60pt" viewBox="0 0 60 60" version="1.1" xmlns="http://www.w3.org/2000/svg">
<g id="#ffffffff">
<path fill="#ffffff" opacity="1.00" d=" M 0.00 0.00 L 60.00 0.00 L 60.00 60.00 L 0.00 60.00 L 0.00 0.00 M 27.22 4.19 C 18.00 5.33 10.31 13.63 10.06 22.94 C 9.96 32.67 9.95 42.41 10.06 52.14 C 9.96 54.67 12.59 56.29 14.91 56.00 C 25.30 55.97 35.70 56.08 46.09 55.94 C 48.57 56.00 50.29 53.49 49.99 51.16 C 49.93 41.44 50.17 31.71 49.86 22.00 C 49.11 11.05 38.04 2.38 27.22 4.19 Z" />
<path fill="#ffffff" opacity="1.00" d=" M 25.53 10.77 C 32.80 8.08 41.54 12.74 43.44 20.22 C 45.77 27.66 40.58 36.20 32.95 37.64 C 25.71 39.42 17.79 34.29 16.37 27.00 C 14.71 20.27 18.96 12.86 25.53 10.77 M 20.09 22.93 C 19.27 28.42 23.75 32.79 28.65 34.28 C 27.79 33.15 26.39 32.26 26.11 30.79 C 25.47 28.45 27.62 25.96 29.98 26.00 C 32.40 25.88 34.51 28.46 33.88 30.80 C 33.59 32.27 32.19 33.16 31.34 34.28 C 35.87 32.82 40.21 29.11 39.97 23.94 C 40.15 18.82 35.85 15.18 31.36 13.71 C 32.89 15.20 34.86 17.32 33.63 19.60 C 32.42 22.70 27.65 22.72 26.36 19.68 C 25.17 17.37 27.05 15.18 28.65 13.71 C 24.54 15.19 20.37 18.16 20.09 22.93 Z" />
<path fill="#ffffff" opacity="1.00" d=" M 16.35 44.38 C 20.98 41.94 24.43 49.83 19.57 51.65 C 14.99 53.93 11.61 46.26 16.35 44.38 Z" />
<path fill="#ffffff" opacity="1.00" d=" M 28.41 44.35 C 33.00 42.03 36.39 49.78 31.62 51.62 C 26.99 54.01 23.58 46.19 28.41 44.35 Z" />
<path fill="#ffffff" opacity="1.00" d=" M 40.37 44.37 C 43.48 42.65 47.33 46.58 45.60 49.66 C 44.54 52.13 40.96 52.82 39.15 50.78 C 37.14 48.96 37.93 45.39 40.37 44.37 Z" />
</g>
<g id="#000000ff">
<path fill="#000000" opacity="1.00" d=" M 27.22 4.19 C 38.04 2.38 49.11 11.05 49.86 22.00 C 50.17 31.71 49.93 41.44 49.99 51.16 C 50.29 53.49 48.57 56.00 46.09 55.94 C 35.70 56.08 25.30 55.97 14.91 56.00 C 12.59 56.29 9.96 54.67 10.06 52.14 C 9.95 42.41 9.96 32.67 10.06 22.94 C 10.31 13.63 18.00 5.33 27.22 4.19 M 25.53 10.77 C 18.96 12.86 14.71 20.27 16.37 27.00 C 17.79 34.29 25.71 39.42 32.95 37.64 C 40.58 36.20 45.77 27.66 43.44 20.22 C 41.54 12.74 32.80 8.08 25.53 10.77 M 16.35 44.38 C 11.61 46.26 14.99 53.93 19.57 51.65 C 24.43 49.83 20.98 41.94 16.35 44.38 M 28.41 44.35 C 23.58 46.19 26.99 54.01 31.62 51.62 C 36.39 49.78 33.00 42.03 28.41 44.35 M 40.37 44.37 C 37.93 45.39 37.14 48.96 39.15 50.78 C 40.96 52.82 44.54 52.13 45.60 49.66 C 47.33 46.58 43.48 42.65 40.37 44.37 Z" />
<path fill="#000000" opacity="1.00" d=" M 20.09 22.93 C 20.37 18.16 24.54 15.19 28.65 13.71 C 27.05 15.18 25.17 17.37 26.36 19.68 C 27.65 22.72 32.42 22.70 33.63 19.60 C 34.86 17.32 32.89 15.20 31.36 13.71 C 35.85 15.18 40.15 18.82 39.97 23.94 C 40.21 29.11 35.87 32.82 31.34 34.28 C 32.19 33.16 33.59 32.27 33.88 30.80 C 34.51 28.46 32.40 25.88 29.98 26.00 C 27.62 25.96 25.47 28.45 26.11 30.79 C 26.39 32.26 27.79 33.15 28.65 34.28 C 23.75 32.79 19.27 28.42 20.09 22.93 Z" />
</g>
</svg>
