<?xml version="1.0" encoding="UTF-8" ?>
<!DOCTYPE svg PUBLIC "-//W3C//DTD SVG 1.1//EN" "http://www.w3.org/Graphics/SVG/1.1/DTD/svg11.dtd">
<svg width="64pt" height="64pt" viewBox="0 0 64 64" version="1.1" xmlns="http://www.w3.org/2000/svg">
<g id="#ffffffff">
<path fill="#ffffff" opacity="1.00" d=" M 0.00 0.00 L 64.00 0.00 L 64.00 64.00 L 0.00 64.00 L 0.00 0.00 M 10.00 10.00 C 10.05 17.69 9.91 25.38 10.06 33.07 C 10.32 41.13 15.55 48.71 22.89 52.00 C 29.68 55.17 38.06 54.48 44.24 50.24 C 50.22 46.29 54.00 39.26 53.98 32.09 C 54.04 24.73 53.98 17.36 54.00 10.00 C 52.67 10.00 51.33 10.00 50.00 10.00 C 49.89 18.06 50.22 26.13 49.83 34.18 C 48.98 43.76 39.34 51.27 29.84 49.86 C 21.44 49.02 14.32 41.52 14.06 33.05 C 13.90 25.37 14.05 17.68 14.00 10.00 C 12.67 10.00 11.33 10.00 10.00 10.00 M 20.39 10.48 C 18.59 11.55 18.59 14.47 20.40 15.52 C 21.96 16.56 24.42 15.73 24.82 13.84 C 25.81 11.35 22.54 8.94 20.39 10.48 M 30.42 10.46 C 27.08 12.36 30.40 17.75 33.61 15.52 C 36.88 13.60 33.62 8.30 30.42 10.46 M 40.41 10.48 C 38.27 11.66 38.74 15.32 41.16 15.83 C 43.29 16.67 45.66 14.24 44.83 12.12 C 44.39 10.28 41.94 9.43 40.41 10.48 M 28.41 20.59 C 22.57 22.32 18.77 28.91 20.37 34.83 C 21.75 41.04 28.63 45.30 34.81 43.63 C 41.05 42.25 45.33 35.32 43.61 29.12 C 42.16 22.64 34.73 18.37 28.41 20.59 Z" />
<path fill="#ffffff" opacity="1.00" d=" M 24.01 31.99 C 23.83 27.94 27.18 25.06 30.69 23.82 C 29.65 25.15 28.26 26.91 29.50 28.60 C 30.83 31.07 35.14 29.90 34.94 27.07 C 35.14 25.73 33.87 24.88 33.30 23.82 C 36.81 25.06 40.15 27.93 39.98 31.98 C 40.17 36.04 36.83 38.93 33.30 40.17 C 34.34 38.85 35.73 37.12 34.52 35.43 C 33.34 33.28 29.84 33.75 29.14 36.06 C 28.59 37.69 29.77 38.95 30.68 40.13 C 27.14 38.93 23.83 36.04 24.01 31.99 Z" />
</g>
<g id="#000000ff">
<path fill="#000000" opacity="1.00" d=" M 10.00 10.00 C 11.33 10.00 12.67 10.00 14.00 10.00 C 14.05 17.68 13.90 25.37 14.06 33.05 C 14.32 41.52 21.44 49.02 29.84 49.86 C 39.34 51.27 48.98 43.76 49.83 34.18 C 50.22 26.13 49.89 18.06 50.00 10.00 C 51.33 10.00 52.67 10.00 54.00 10.00 C 53.98 17.36 54.04 24.73 53.98 32.09 C 54.00 39.26 50.22 46.29 44.24 50.24 C 38.06 54.48 29.68 55.17 22.89 52.00 C 15.55 48.71 10.32 41.13 10.06 33.07 C 9.91 25.38 10.05 17.69 10.00 10.00 Z" />
<path fill="#000000" opacity="1.00" d=" M 20.39 10.48 C 22.54 8.94 25.81 11.35 24.82 13.84 C 24.42 15.73 21.96 16.56 20.40 15.52 C 18.59 14.47 18.59 11.55 20.39 10.48 Z" />
<path fill="#000000" opacity="1.00" d=" M 30.42 10.46 C 33.62 8.30 36.88 13.60 33.61 15.52 C 30.40 17.75 27.08 12.36 30.42 10.46 Z" />
<path fill="#000000" opacity="1.00" d=" M 40.41 10.48 C 41.94 9.43 44.39 10.28 44.83 12.12 C 45.66 14.24 43.29 16.67 41.16 15.83 C 38.74 15.32 38.27 11.66 40.41 10.48 Z" />
<path fill="#000000" opacity="1.00" d=" M 28.41 20.59 C 34.73 18.37 42.16 22.64 43.61 29.12 C 45.33 35.32 41.05 42.25 34.81 43.63 C 28.63 45.30 21.75 41.04 20.37 34.83 C 18.77 28.91 22.57 22.32 28.41 20.59 M 24.01 31.99 C 23.83 36.04 27.14 38.93 30.68 40.13 C 29.77 38.95 28.59 37.69 29.14 36.06 C 29.84 33.75 33.34 33.28 34.52 35.43 C 35.73 37.12 34.34 38.85 33.30 40.17 C 36.83 38.93 40.17 36.04 39.98 31.98 C 40.15 27.93 36.81 25.06 33.30 23.82 C 33.87 24.88 35.14 25.73 34.94 27.07 C 35.14 29.90 30.83 31.07 29.50 28.60 C 28.26 26.91 29.65 25.15 30.69 23.82 C 27.18 25.06 23.83 27.94 24.01 31.99 Z" />
</g>
</svg>
