<?xml version="1.0" encoding="UTF-8" ?>
<!DOCTYPE svg PUBLIC "-//W3C//DTD SVG 1.1//EN" "http://www.w3.org/Graphics/SVG/1.1/DTD/svg11.dtd">
<svg width="64pt" height="64pt" viewBox="0 0 64 64" version="1.1" xmlns="http://www.w3.org/2000/svg">
<g id="#ffffffff">
<path fill="#ffffff" opacity="1.00" d=" M 0.00 0.00 L 64.00 0.00 L 64.00 64.00 L 0.00 64.00 L 0.00 0.00 M 4.18 20.86 C 3.29 25.73 6.11 30.25 9.28 33.67 C 16.84 41.79 24.45 49.86 32.00 58.00 C 39.43 50.09 46.79 42.12 54.22 34.21 C 56.64 31.61 58.91 28.65 59.72 25.12 C 61.24 17.28 55.22 8.71 47.12 8.05 C 41.17 7.59 35.98 11.35 32.00 15.38 C 28.25 11.62 23.57 8.12 18.03 8.00 C 10.99 7.94 4.94 14.02 4.18 20.86 Z" />
<path fill="#ffffff" opacity="1.00" d=" M 21.78 21.80 C 27.07 16.88 36.10 16.75 41.66 21.30 C 45.31 24.28 46.56 29.40 45.74 33.90 C 44.88 36.88 41.77 38.08 39.17 39.13 C 38.75 41.27 38.83 44.16 36.49 45.21 C 33.65 46.24 30.37 46.23 27.53 45.23 C 25.17 44.19 25.23 41.28 24.83 39.13 C 22.22 38.07 19.08 36.87 18.24 33.86 C 17.54 29.62 18.51 24.81 21.78 21.80 M 23.32 26.33 C 19.57 29.77 28.95 36.34 30.39 30.53 C 32.11 26.30 26.34 23.92 23.32 26.33 M 34.39 26.46 C 32.45 28.36 33.38 32.32 36.08 32.99 C 38.81 32.72 41.75 30.29 41.75 27.45 C 40.27 25.19 36.49 24.86 34.39 26.46 M 29.81 37.39 C 30.91 37.38 33.12 37.38 34.22 37.37 C 33.76 36.24 33.27 35.13 32.74 34.04 C 30.56 33.31 30.60 36.10 29.81 37.39 Z" />
</g>
<g id="#000000ff">
<path fill="#000000" opacity="1.00" d=" M 4.18 20.86 C 4.94 14.02 10.99 7.94 18.03 8.00 C 23.57 8.12 28.25 11.62 32.00 15.38 C 35.98 11.35 41.17 7.59 47.12 8.05 C 55.22 8.71 61.24 17.28 59.72 25.12 C 58.91 28.65 56.64 31.61 54.22 34.21 C 46.79 42.12 39.43 50.09 32.00 58.00 C 24.45 49.86 16.84 41.79 9.28 33.67 C 6.11 30.25 3.29 25.73 4.18 20.86 M 21.78 21.80 C 18.51 24.81 17.54 29.62 18.24 33.86 C 19.08 36.87 22.22 38.07 24.83 39.13 C 25.23 41.28 25.17 44.19 27.53 45.23 C 30.37 46.23 33.65 46.24 36.49 45.21 C 38.83 44.16 38.75 41.27 39.17 39.13 C 41.77 38.08 44.88 36.88 45.74 33.90 C 46.56 29.40 45.31 24.28 41.66 21.30 C 36.10 16.75 27.07 16.88 21.78 21.80 Z" />
<path fill="#000000" opacity="1.00" d=" M 23.32 26.33 C 26.34 23.92 32.11 26.30 30.39 30.53 C 28.95 36.34 19.57 29.77 23.32 26.33 Z" />
<path fill="#000000" opacity="1.00" d=" M 34.39 26.46 C 36.49 24.86 40.27 25.19 41.75 27.45 C 41.75 30.29 38.81 32.72 36.08 32.99 C 33.38 32.32 32.45 28.36 34.39 26.46 Z" />
<path fill="#000000" opacity="1.00" d=" M 29.81 37.39 C 30.60 36.10 30.56 33.31 32.74 34.04 C 33.27 35.13 33.76 36.24 34.22 37.37 C 33.12 37.38 30.91 37.38 29.81 37.39 Z" />
</g>
</svg>
