<?xml version="1.0" encoding="UTF-8" ?>
<!DOCTYPE svg PUBLIC "-//W3C//DTD SVG 1.1//EN" "http://www.w3.org/Graphics/SVG/1.1/DTD/svg11.dtd">
<svg width="60pt" height="60pt" viewBox="0 0 60 60" version="1.1" xmlns="http://www.w3.org/2000/svg">
<g id="#ffffffff">
<path fill="#ffffff" opacity="1.00" d=" M 0.00 0.00 L 60.00 0.00 L 60.00 39.29 C 59.57 36.25 56.94 34.23 54.02 33.80 C 54.12 30.96 53.24 27.89 50.70 26.30 C 48.30 24.53 45.13 24.86 42.54 25.99 C 39.82 23.16 35.84 21.28 31.87 22.23 C 27.52 22.99 24.27 26.67 23.20 30.83 C 19.21 30.84 15.26 33.74 15.03 37.90 C 14.56 42.29 18.59 46.34 22.97 45.99 C 33.35 45.99 43.73 46.06 54.11 45.95 C 57.05 46.03 59.43 43.60 60.00 40.84 L 60.00 60.00 L 0.00 60.00 L 0.00 36.43 C 0.47 38.50 1.48 40.54 3.33 41.70 C 5.79 43.45 8.99 42.90 11.82 43.04 C 9.10 36.46 13.28 28.66 20.16 27.12 C 22.89 21.13 29.51 17.04 36.14 18.19 C 39.31 18.43 41.78 20.59 44.70 21.59 C 45.09 14.92 38.41 9.32 31.93 10.06 C 27.46 10.33 23.76 13.49 21.80 17.37 C 17.93 15.33 12.89 15.60 9.60 18.62 C 6.83 20.89 5.85 24.55 5.99 28.00 C 3.05 28.97 0.61 31.24 0.00 34.36 L 0.00 0.00 Z" />
</g>
<g id="#000000ff">
<path fill="#968176" opacity="1.00" d=" M 21.80 17.37 C 23.76 13.49 27.46 10.33 31.93 10.06 C 38.41 9.32 45.09 14.92 44.70 21.59 C 41.78 20.59 39.31 18.43 36.14 18.19 C 29.51 17.04 22.89 21.13 20.16 27.12 C 13.28 28.66 9.10 36.46 11.82 43.04 C 8.99 42.90 5.79 43.45 3.33 41.70 C 1.48 40.54 0.47 38.50 0.00 36.43 L 0.00 34.36 C 0.61 31.24 3.05 28.97 5.99 28.00 C 5.85 24.55 6.83 20.89 9.60 18.62 C 12.89 15.60 17.93 15.33 21.80 17.37 Z" />
<path fill="#968176" opacity="1.00" d=" M 23.20 30.83 C 24.27 26.67 27.52 22.99 31.87 22.23 C 35.84 21.28 39.82 23.16 42.54 25.99 C 45.13 24.86 48.30 24.53 50.70 26.30 C 53.24 27.89 54.12 30.96 54.02 33.80 C 56.94 34.23 59.57 36.25 60.00 39.29 L 60.00 40.84 C 59.43 43.60 57.05 46.03 54.11 45.95 C 43.73 46.06 33.35 45.99 22.97 45.99 C 18.59 46.34 14.56 42.29 15.03 37.90 C 15.26 33.74 19.21 30.84 23.20 30.83 Z" />
</g>
</svg>
