<?xml version="1.0" encoding="UTF-8" ?>
<!DOCTYPE svg PUBLIC "-//W3C//DTD SVG 1.1//EN" "http://www.w3.org/Graphics/SVG/1.1/DTD/svg11.dtd">
<svg width="60pt" height="60pt" viewBox="0 0 60 60" version="1.1" xmlns="http://www.w3.org/2000/svg">
<g id="#ffffffff">
<path fill="#ffffff" opacity="1.00" d=" M 0.00 0.00 L 60.00 0.00 L 60.00 60.00 L 0.00 60.00 L 0.00 0.00 M 14.52 4.71 C 8.04 6.64 3.43 13.38 4.06 20.13 C 4.06 23.25 6.37 25.85 6.08 28.98 C 5.00 42.55 17.57 55.03 31.12 53.92 C 34.25 53.68 36.86 55.98 39.98 55.95 C 48.31 56.73 56.15 49.38 55.99 41.03 C 56.29 37.14 53.33 33.89 53.91 29.98 C 54.12 22.47 50.25 15.10 44.23 10.68 C 39.34 6.86 33.01 5.76 26.95 5.99 C 23.04 4.41 18.67 3.16 14.52 4.71 Z" />
<path fill="#ffffff" opacity="1.00" d=" M 20.29 19.37 C 22.96 16.39 27.30 15.92 31.06 16.06 C 34.74 16.23 39.10 17.72 40.49 21.47 C 41.25 23.32 39.91 25.49 37.90 25.62 C 35.25 25.54 34.74 22.38 32.71 21.25 C 29.87 20.08 26.26 20.52 24.32 23.08 C 27.30 27.67 33.87 26.18 38.10 29.00 C 42.81 31.12 43.22 38.21 39.27 41.26 C 35.22 44.39 29.53 44.53 24.77 43.18 C 21.26 42.14 17.61 39.13 18.09 35.10 C 18.91 33.33 21.51 32.53 22.96 34.01 C 24.52 35.83 25.25 38.91 28.05 39.17 C 30.53 39.53 34.00 39.45 35.28 36.87 C 35.97 35.48 35.24 33.65 33.70 33.24 C 29.76 31.74 25.35 31.51 21.65 29.36 C 18.28 27.33 17.65 22.24 20.29 19.37 Z" />
</g>
<g id="#000000ff">
<path fill="#000000" opacity="1.00" d=" M 14.52 4.71 C 18.67 3.16 23.04 4.41 26.95 5.99 C 33.01 5.76 39.34 6.86 44.23 10.68 C 50.25 15.10 54.12 22.47 53.91 29.98 C 53.33 33.89 56.29 37.14 55.99 41.03 C 56.15 49.38 48.31 56.73 39.98 55.95 C 36.86 55.98 34.25 53.68 31.12 53.92 C 17.57 55.03 5.00 42.55 6.08 28.98 C 6.37 25.85 4.06 23.25 4.06 20.13 C 3.43 13.38 8.04 6.64 14.52 4.71 M 20.29 19.37 C 17.65 22.24 18.28 27.33 21.65 29.36 C 25.35 31.51 29.76 31.74 33.70 33.24 C 35.24 33.65 35.97 35.48 35.28 36.87 C 34.00 39.45 30.53 39.53 28.05 39.17 C 25.25 38.91 24.52 35.83 22.96 34.01 C 21.51 32.53 18.91 33.33 18.09 35.10 C 17.61 39.13 21.26 42.14 24.77 43.18 C 29.53 44.53 35.22 44.39 39.27 41.26 C 43.22 38.21 42.81 31.12 38.10 29.00 C 33.87 26.18 27.30 27.67 24.32 23.08 C 26.26 20.52 29.87 20.08 32.71 21.25 C 34.74 22.38 35.25 25.54 37.90 25.62 C 39.91 25.49 41.25 23.32 40.49 21.47 C 39.10 17.72 34.74 16.23 31.06 16.06 C 27.30 15.92 22.96 16.39 20.29 19.37 Z" />
</g>
</svg>
