<?xml version="1.0" encoding="UTF-8" ?>
<!DOCTYPE svg PUBLIC "-//W3C//DTD SVG 1.1//EN" "http://www.w3.org/Graphics/SVG/1.1/DTD/svg11.dtd">
<svg width="60pt" height="60pt" viewBox="0 0 60 60" version="1.1" xmlns="http://www.w3.org/2000/svg">
<g id="#ffffffff">
<path fill="#ffffff" opacity="1.00" d=" M 0.00 0.00 L 60.00 0.00 L 60.00 60.00 L 0.00 60.00 L 0.00 0.00 M 28.64 7.96 C 28.83 10.42 29.93 12.69 30.65 15.02 C 27.26 16.16 23.87 17.29 20.48 18.43 C 19.70 16.25 19.21 13.92 17.99 11.93 C 16.08 9.41 11.65 10.12 10.63 13.12 C 9.80 15.89 11.64 18.54 12.29 21.17 C 9.88 22.11 7.04 22.42 5.07 24.20 C 2.67 26.66 4.58 31.29 8.02 31.36 C 10.46 31.14 12.71 30.07 15.02 29.35 C 16.16 32.74 17.29 36.14 18.44 39.52 C 16.27 40.34 13.96 40.82 11.95 41.98 C 9.40 43.89 10.12 48.30 13.10 49.36 C 15.89 50.18 18.54 48.39 21.17 47.72 C 22.09 50.10 22.43 52.88 24.13 54.86 C 26.58 57.35 31.28 55.44 31.35 51.97 C 31.14 49.53 30.07 47.29 29.35 44.98 C 32.74 43.84 36.13 42.70 39.53 41.57 C 40.30 43.74 40.79 46.06 41.99 48.05 C 43.90 50.60 48.34 49.87 49.36 46.86 C 50.20 44.10 48.37 41.45 47.71 38.83 C 50.12 37.88 52.96 37.57 54.93 35.78 C 57.30 33.34 55.44 28.75 52.03 28.64 C 49.57 28.83 47.31 29.93 44.98 30.65 C 43.84 27.26 42.71 23.87 41.57 20.48 C 43.74 19.71 46.04 19.22 48.02 18.02 C 50.60 16.14 49.89 11.68 46.89 10.63 C 44.11 9.81 41.46 11.62 38.84 12.28 C 37.92 9.90 37.56 7.15 35.86 5.15 C 33.44 2.67 28.76 4.50 28.64 7.96 Z" />
<path fill="#ffffff" opacity="1.00" d=" M 23.21 26.61 C 26.60 25.48 29.99 24.34 33.39 23.21 C 34.52 26.60 35.66 29.99 36.79 33.39 C 33.40 34.52 30.01 35.66 26.61 36.79 C 25.48 33.40 24.34 30.01 23.21 26.61 Z" />
</g>
<g id="#000000ff">
<path fill="#000000" opacity="1.00" d=" M 28.64 7.96 C 28.76 4.50 33.44 2.67 35.86 5.15 C 37.56 7.15 37.92 9.90 38.84 12.28 C 41.46 11.62 44.11 9.81 46.89 10.63 C 49.89 11.68 50.60 16.14 48.02 18.02 C 46.04 19.22 43.74 19.71 41.57 20.48 C 42.71 23.87 43.84 27.26 44.98 30.65 C 47.31 29.93 49.57 28.83 52.03 28.64 C 55.44 28.75 57.30 33.34 54.93 35.78 C 52.96 37.57 50.12 37.88 47.71 38.83 C 48.37 41.45 50.20 44.10 49.36 46.86 C 48.34 49.87 43.90 50.60 41.99 48.05 C 40.79 46.06 40.30 43.74 39.53 41.57 C 36.13 42.70 32.74 43.84 29.35 44.98 C 30.07 47.29 31.14 49.53 31.35 51.97 C 31.28 55.44 26.58 57.35 24.13 54.86 C 22.43 52.88 22.09 50.10 21.17 47.72 C 18.54 48.39 15.89 50.18 13.10 49.36 C 10.12 48.30 9.40 43.89 11.95 41.98 C 13.96 40.82 16.27 40.34 18.44 39.52 C 17.29 36.14 16.16 32.74 15.02 29.35 C 12.71 30.07 10.46 31.14 8.02 31.36 C 4.58 31.29 2.67 26.66 5.07 24.20 C 7.04 22.42 9.88 22.11 12.29 21.17 C 11.64 18.54 9.80 15.89 10.63 13.12 C 11.65 10.12 16.08 9.41 17.99 11.93 C 19.21 13.92 19.70 16.25 20.48 18.43 C 23.87 17.29 27.26 16.16 30.65 15.02 C 29.93 12.69 28.83 10.42 28.64 7.96 M 23.21 26.61 C 24.34 30.01 25.48 33.40 26.61 36.79 C 30.01 35.66 33.40 34.52 36.79 33.39 C 35.66 29.99 34.52 26.60 33.39 23.21 C 29.99 24.34 26.60 25.48 23.21 26.61 Z" />
</g>
</svg>
