<?xml version="1.0" encoding="UTF-8" ?>
<!DOCTYPE svg PUBLIC "-//W3C//DTD SVG 1.1//EN" "http://www.w3.org/Graphics/SVG/1.1/DTD/svg11.dtd">
<svg width="60pt" height="60pt" viewBox="0 0 60 60" version="1.1" xmlns="http://www.w3.org/2000/svg">
<g id="#ffffffff">
<path fill="#ffffff" opacity="1.00" d=" M 0.00 0.00 L 60.00 0.00 L 60.00 60.00 L 0.00 60.00 L 0.00 0.00 M 18.74 13.60 C 20.65 16.85 24.88 15.86 28.02 16.02 C 27.96 12.68 28.80 7.90 24.89 6.38 C 20.69 4.34 16.06 9.78 18.74 13.60 M 32.43 6.71 C 31.00 7.56 30.02 9.16 30.05 10.84 C 29.99 15.25 29.84 19.68 30.15 24.07 C 30.99 29.66 40.20 28.84 39.95 23.13 C 40.01 18.74 40.16 14.33 39.85 9.95 C 39.34 6.71 35.17 4.89 32.43 6.71 M 8.44 18.70 C 5.71 20.21 5.16 24.36 7.44 26.50 C 9.11 28.34 11.79 27.95 14.02 28.02 C 17.38 27.94 20.76 28.19 24.10 27.84 C 27.56 27.25 29.24 22.58 26.93 19.92 C 24.83 17.17 20.99 18.19 18.02 17.99 C 14.85 18.23 11.42 17.37 8.44 18.70 M 44.42 18.72 C 41.14 20.62 42.14 24.88 41.98 28.02 C 45.33 27.97 50.14 28.79 51.64 24.85 C 53.61 20.66 48.22 16.09 44.42 18.72 M 6.36 33.12 C 4.39 37.27 9.68 41.86 13.51 39.31 C 16.85 37.45 15.87 33.14 16.02 29.98 C 12.68 30.04 7.87 29.19 6.36 33.12 M 20.44 30.70 C 18.99 31.56 18.01 33.18 18.05 34.88 C 17.99 39.29 17.84 43.71 18.15 48.10 C 19.03 53.67 28.20 52.82 27.95 47.12 C 28.01 42.74 28.16 38.33 27.85 33.95 C 27.33 30.71 23.19 28.90 20.44 30.70 M 32.44 30.70 C 29.68 32.23 29.15 36.44 31.51 38.56 C 33.18 40.34 35.81 39.95 38.01 40.02 C 41.35 39.94 44.70 40.18 48.03 39.85 C 51.54 39.32 53.27 34.57 50.91 31.90 C 48.81 29.17 44.99 30.19 42.03 29.98 C 38.86 30.23 35.42 29.37 32.44 30.70 M 29.98 41.98 C 30.04 45.31 29.19 50.09 33.09 51.61 C 37.27 53.66 41.92 48.24 39.27 44.42 C 37.38 41.14 33.12 42.14 29.98 41.98 Z" />
</g>
<g id="#000000ff">
<path fill="#000000" opacity="1.00" d=" M 18.74 13.60 C 16.06 9.78 20.69 4.34 24.89 6.38 C 28.80 7.90 27.96 12.68 28.02 16.02 C 24.88 15.86 20.65 16.85 18.74 13.60 Z" />
<path fill="#000000" opacity="1.00" d=" M 32.43 6.71 C 35.17 4.89 39.34 6.71 39.85 9.95 C 40.16 14.33 40.01 18.74 39.95 23.13 C 40.20 28.84 30.99 29.66 30.15 24.07 C 29.84 19.68 29.99 15.25 30.05 10.84 C 30.02 9.16 31.00 7.56 32.43 6.71 Z" />
<path fill="#000000" opacity="1.00" d=" M 8.44 18.70 C 11.42 17.37 14.85 18.23 18.02 17.99 C 20.99 18.19 24.83 17.17 26.93 19.92 C 29.24 22.58 27.56 27.25 24.10 27.84 C 20.76 28.19 17.38 27.94 14.02 28.02 C 11.79 27.95 9.11 28.34 7.44 26.50 C 5.16 24.36 5.71 20.21 8.44 18.70 Z" />
<path fill="#000000" opacity="1.00" d=" M 44.42 18.72 C 48.22 16.09 53.61 20.66 51.64 24.85 C 50.14 28.79 45.33 27.97 41.98 28.02 C 42.14 24.88 41.14 20.62 44.42 18.72 Z" />
<path fill="#000000" opacity="1.00" d=" M 6.36 33.12 C 7.87 29.19 12.68 30.04 16.02 29.98 C 15.87 33.14 16.85 37.45 13.51 39.31 C 9.68 41.86 4.39 37.27 6.36 33.12 Z" />
<path fill="#000000" opacity="1.00" d=" M 20.44 30.70 C 23.19 28.90 27.33 30.71 27.85 33.95 C 28.16 38.33 28.01 42.74 27.95 47.12 C 28.20 52.82 19.03 53.67 18.15 48.10 C 17.84 43.71 17.99 39.29 18.05 34.88 C 18.01 33.18 18.99 31.56 20.44 30.70 Z" />
<path fill="#000000" opacity="1.00" d=" M 32.44 30.70 C 35.42 29.37 38.86 30.23 42.03 29.98 C 44.99 30.19 48.81 29.17 50.91 31.90 C 53.27 34.57 51.54 39.32 48.03 39.85 C 44.70 40.18 41.35 39.94 38.01 40.02 C 35.81 39.95 33.18 40.34 31.51 38.56 C 29.15 36.44 29.68 32.23 32.44 30.70 Z" />
<path fill="#000000" opacity="1.00" d=" M 29.98 41.98 C 33.12 42.14 37.38 41.14 39.27 44.42 C 41.92 48.24 37.27 53.66 33.09 51.61 C 29.19 50.09 30.04 45.31 29.98 41.98 Z" />
</g>
</svg>
