<?xml version="1.0" encoding="UTF-8" ?>
<!DOCTYPE svg PUBLIC "-//W3C//DTD SVG 1.1//EN" "http://www.w3.org/Graphics/SVG/1.1/DTD/svg11.dtd">
<svg width="64pt" height="64pt" viewBox="0 0 64 64" version="1.1" xmlns="http://www.w3.org/2000/svg">
<g id="#ffffffff">
<path fill="#ffffff" opacity="1.00" d=" M 0.00 0.00 L 64.00 0.00 L 64.00 64.00 L 0.00 64.00 L 0.00 0.00 M 6.13 47.16 C 20.36 56.32 39.64 56.31 53.88 47.17 C 45.95 33.34 37.97 19.55 30.00 5.75 C 22.05 19.56 14.04 33.34 6.13 47.16 Z" />
<path fill="#ffffff" opacity="1.00" d=" M 16.03 38.44 C 20.70 30.38 25.33 22.31 30.00 14.26 C 34.67 22.31 39.31 30.38 43.97 38.44 C 35.29 42.88 24.71 42.89 16.03 38.44 M 28.11 28.79 C 28.83 30.37 31.14 30.35 31.89 28.81 C 32.24 26.94 30.74 25.47 30.00 23.92 C 29.27 25.47 27.75 26.94 28.11 28.79 M 22.24 33.34 C 21.51 34.81 23.17 36.49 24.69 36.02 C 27.04 34.97 25.61 32.15 25.51 30.25 C 24.37 31.22 23.06 32.06 22.24 33.34 M 34.49 30.25 C 34.30 31.78 33.80 33.32 34.07 34.87 C 34.86 36.87 37.94 36.13 37.96 34.07 C 37.57 32.28 35.73 31.41 34.49 30.25 M 28.11 36.78 C 28.80 38.39 31.26 38.37 31.90 36.72 C 32.23 34.90 30.70 33.45 30.00 31.92 C 29.28 33.46 27.76 34.93 28.11 36.78 Z" />
<path fill="#ffffff" opacity="1.00" d=" M 12.03 45.42 C 12.62 44.38 13.20 43.34 13.75 42.28 C 23.85 47.26 36.17 47.37 46.24 42.27 C 46.80 43.33 47.38 44.38 47.97 45.42 C 36.82 51.25 23.16 51.26 12.03 45.42 Z" />
</g>
<g id="#000000ff">
<path fill="#000000" opacity="1.00" d=" M 6.13 47.16 C 14.04 33.34 22.05 19.56 30.00 5.75 C 37.97 19.55 45.95 33.34 53.88 47.17 C 39.64 56.31 20.36 56.32 6.13 47.16 M 16.03 38.44 C 24.71 42.89 35.29 42.88 43.97 38.44 C 39.31 30.38 34.67 22.31 30.00 14.26 C 25.33 22.31 20.70 30.38 16.03 38.44 M 12.03 45.42 C 23.16 51.26 36.82 51.25 47.97 45.42 C 47.38 44.38 46.80 43.33 46.24 42.27 C 36.17 47.37 23.85 47.26 13.75 42.28 C 13.20 43.34 12.62 44.38 12.03 45.42 Z" />
<path fill="#000000" opacity="1.00" d=" M 28.11 28.79 C 27.75 26.94 29.27 25.47 30.00 23.92 C 30.74 25.47 32.24 26.94 31.89 28.81 C 31.14 30.35 28.83 30.37 28.11 28.79 Z" />
<path fill="#000000" opacity="1.00" d=" M 22.24 33.34 C 23.06 32.06 24.37 31.22 25.51 30.25 C 25.61 32.15 27.04 34.97 24.69 36.02 C 23.17 36.49 21.51 34.81 22.24 33.34 Z" />
<path fill="#000000" opacity="1.00" d=" M 34.49 30.25 C 35.73 31.41 37.57 32.28 37.96 34.07 C 37.94 36.13 34.86 36.87 34.07 34.87 C 33.80 33.32 34.30 31.78 34.49 30.25 Z" />
<path fill="#000000" opacity="1.00" d=" M 28.11 36.78 C 27.76 34.93 29.28 33.46 30.00 31.92 C 30.70 33.45 32.23 34.90 31.90 36.72 C 31.26 38.37 28.80 38.39 28.11 36.78 Z" />
</g>
</svg>
