<?xml version="1.0" encoding="UTF-8" ?>
<!DOCTYPE svg PUBLIC "-//W3C//DTD SVG 1.1//EN" "http://www.w3.org/Graphics/SVG/1.1/DTD/svg11.dtd">
<svg width="64pt" height="64pt" viewBox="0 0 64 64" version="1.1" xmlns="http://www.w3.org/2000/svg">
<g id="#ffffffff">
<path fill="#ffffff" opacity="1.00" d=" M 0.00 0.00 L 64.00 0.00 L 64.00 64.00 L 0.00 64.00 L 0.00 0.00 M 8.06 8.00 C 12.16 23.95 8.91 40.77 10.59 57.01 C 12.26 55.49 13.83 53.85 15.33 52.15 C 28.15 52.61 42.31 49.40 53.95 56.20 C 54.03 40.13 53.18 23.92 55.88 8.00 C 39.94 8.01 24.00 8.01 8.06 8.00 Z" />
<path fill="#ffffff" opacity="1.00" d=" M 13.98 12.00 C 19.33 12.00 24.67 12.00 30.02 12.00 C 29.97 24.00 29.97 36.00 30.02 48.00 C 24.67 48.00 19.33 48.00 13.98 48.00 C 14.03 36.00 14.03 24.00 13.98 12.00 M 22.00 26.00 C 22.00 28.67 22.00 31.33 22.00 34.00 C 23.33 34.00 24.67 34.00 26.00 34.00 C 26.00 31.33 26.00 28.67 26.00 26.00 C 24.67 26.00 23.33 26.00 22.00 26.00 Z" />
<path fill="#ffffff" opacity="1.00" d=" M 33.98 12.00 C 35.33 12.00 36.67 12.00 38.02 12.00 C 37.97 24.00 37.97 36.00 38.02 48.00 C 36.67 48.00 35.33 48.00 33.98 48.00 C 34.03 36.00 34.03 24.00 33.98 12.00 Z" />
<path fill="#ffffff" opacity="1.00" d=" M 42.00 12.00 C 44.67 12.00 47.33 12.00 50.00 12.00 C 50.00 13.50 50.00 16.50 50.00 18.00 C 47.33 18.00 44.67 18.00 42.00 18.00 C 42.00 16.50 42.00 13.50 42.00 12.00 Z" />
<path fill="#ffffff" opacity="1.00" d=" M 42.00 22.00 C 44.67 22.00 47.33 22.00 50.00 22.00 C 50.00 23.50 50.00 26.50 50.00 28.00 C 47.33 28.00 44.67 28.00 42.00 28.00 C 42.00 26.50 42.00 23.50 42.00 22.00 Z" />
<path fill="#ffffff" opacity="1.00" d=" M 42.00 32.00 C 44.67 32.00 47.33 32.00 50.00 32.00 C 50.00 33.50 50.00 36.50 50.00 38.00 C 47.33 38.00 44.67 38.00 42.00 38.00 C 42.00 36.50 42.00 33.50 42.00 32.00 Z" />
<path fill="#ffffff" opacity="1.00" d=" M 42.00 42.00 C 44.67 42.00 47.33 42.00 50.00 42.00 C 50.00 43.50 50.00 46.50 50.00 48.00 C 47.33 48.00 44.67 48.00 42.00 48.00 C 42.00 46.50 42.00 43.50 42.00 42.00 Z" />
</g>
<g id="#000000ff">
<path fill="#000000" opacity="1.00" d=" M 8.06 8.00 C 24.00 8.01 39.94 8.01 55.88 8.00 C 53.18 23.92 54.03 40.13 53.95 56.20 C 42.31 49.40 28.15 52.61 15.33 52.15 C 13.83 53.85 12.26 55.49 10.59 57.01 C 8.91 40.77 12.16 23.95 8.06 8.00 M 13.98 12.00 C 14.03 24.00 14.03 36.00 13.98 48.00 C 19.33 48.00 24.67 48.00 30.02 48.00 C 29.97 36.00 29.97 24.00 30.02 12.00 C 24.67 12.00 19.33 12.00 13.98 12.00 M 33.98 12.00 C 34.03 24.00 34.03 36.00 33.98 48.00 C 35.33 48.00 36.67 48.00 38.02 48.00 C 37.97 36.00 37.97 24.00 38.02 12.00 C 36.67 12.00 35.33 12.00 33.98 12.00 M 42.00 12.00 C 42.00 13.50 42.00 16.50 42.00 18.00 C 44.67 18.00 47.33 18.00 50.00 18.00 C 50.00 16.50 50.00 13.50 50.00 12.00 C 47.33 12.00 44.67 12.00 42.00 12.00 M 42.00 22.00 C 42.00 23.50 42.00 26.50 42.00 28.00 C 44.67 28.00 47.33 28.00 50.00 28.00 C 50.00 26.50 50.00 23.50 50.00 22.00 C 47.33 22.00 44.67 22.00 42.00 22.00 M 42.00 32.00 C 42.00 33.50 42.00 36.50 42.00 38.00 C 44.67 38.00 47.33 38.00 50.00 38.00 C 50.00 36.50 50.00 33.50 50.00 32.00 C 47.33 32.00 44.67 32.00 42.00 32.00 M 42.00 42.00 C 42.00 43.50 42.00 46.50 42.00 48.00 C 44.67 48.00 47.33 48.00 50.00 48.00 C 50.00 46.50 50.00 43.50 50.00 42.00 C 47.33 42.00 44.67 42.00 42.00 42.00 Z" />
<path fill="#000000" opacity="1.00" d=" M 22.00 26.00 C 23.33 26.00 24.67 26.00 26.00 26.00 C 26.00 28.67 26.00 31.33 26.00 34.00 C 24.67 34.00 23.33 34.00 22.00 34.00 C 22.00 31.33 22.00 28.67 22.00 26.00 Z" />
</g>
</svg>
