<?xml version="1.0" encoding="UTF-8" ?>
<!DOCTYPE svg PUBLIC "-//W3C//DTD SVG 1.1//EN" "http://www.w3.org/Graphics/SVG/1.1/DTD/svg11.dtd">
<svg width="60pt" height="60pt" viewBox="0 0 60 60" version="1.1" xmlns="http://www.w3.org/2000/svg">
<g id="#ffffffff">
<path fill="#ffffff" opacity="1.00" d=" M 0.00 0.00 L 60.00 0.00 L 60.00 60.00 L 0.00 60.00 L 0.00 0.00 M 7.20 6.16 C 5.20 6.93 5.92 10.16 8.06 9.93 C 22.68 10.05 37.31 10.05 51.94 9.93 C 54.62 10.23 54.62 5.77 51.94 6.07 C 37.03 6.02 22.10 5.82 7.20 6.16 M 8.00 14.00 C 8.13 27.60 7.75 41.22 8.18 54.81 C 9.39 57.44 11.55 54.65 13.13 54.03 C 16.75 53.90 20.38 54.03 24.00 54.01 C 23.97 48.01 24.03 42.01 24.01 36.02 C 24.25 34.29 22.67 33.25 21.81 32.00 C 22.66 30.74 24.25 29.71 24.01 27.99 C 24.05 23.32 23.96 18.66 24.00 14.00 C 18.67 14.00 13.33 14.00 8.00 14.00 M 28.00 14.00 C 28.00 27.33 28.00 40.67 28.00 54.00 C 31.33 54.00 34.67 54.00 38.01 54.00 C 37.97 48.01 38.03 42.01 38.01 36.02 C 38.25 34.29 36.67 33.25 35.81 32.00 C 36.66 30.74 38.25 29.71 38.01 27.98 C 38.05 23.32 37.96 18.66 38.00 14.00 C 34.67 14.00 31.33 14.00 28.00 14.00 M 48.02 14.00 C 48.00 16.00 48.00 17.99 47.99 19.99 C 45.99 20.00 44.00 20.00 42.00 20.02 C 42.00 21.34 42.00 22.66 42.00 23.98 C 44.00 24.00 46.01 24.00 48.01 24.02 C 47.99 26.01 47.99 27.99 48.01 29.98 C 46.01 30.00 44.00 30.00 42.00 30.02 C 42.00 31.34 42.00 32.66 42.00 33.98 C 44.00 34.00 46.01 34.00 48.01 34.02 C 47.99 36.01 47.99 37.99 48.01 39.98 C 46.01 40.00 44.00 40.00 42.00 40.02 C 42.00 41.34 42.00 42.66 42.00 43.98 C 44.00 44.00 46.01 44.00 48.01 44.02 C 47.99 46.01 47.99 47.99 48.01 49.98 C 46.01 50.00 44.00 50.00 42.00 50.02 C 42.00 51.33 42.00 52.64 42.00 53.95 C 44.60 53.93 47.42 53.60 49.44 55.61 C 51.06 56.98 52.30 54.41 51.99 53.02 C 52.02 40.01 52.00 27.01 51.99 14.00 C 50.67 14.00 49.34 14.00 48.02 14.00 Z" />
</g>
<g id="#000000ff">
<path fill="#000000" opacity="1.00" d=" M 7.20 6.16 C 22.10 5.82 37.03 6.02 51.94 6.07 C 54.62 5.77 54.62 10.23 51.94 9.93 C 37.31 10.05 22.68 10.05 8.06 9.93 C 5.92 10.16 5.20 6.93 7.20 6.16 Z" />
<path fill="#000000" opacity="1.00" d=" M 8.00 14.00 C 13.33 14.00 18.67 14.00 24.00 14.00 C 23.96 18.66 24.05 23.32 24.01 27.99 C 24.25 29.71 22.66 30.74 21.81 32.00 C 22.67 33.25 24.25 34.29 24.01 36.02 C 24.03 42.01 23.97 48.01 24.00 54.01 C 20.38 54.03 16.75 53.90 13.13 54.03 C 11.55 54.65 9.39 57.44 8.18 54.81 C 7.75 41.22 8.13 27.60 8.00 14.00 Z" />
<path fill="#000000" opacity="1.00" d=" M 28.00 14.00 C 31.33 14.00 34.67 14.00 38.00 14.00 C 37.96 18.66 38.05 23.32 38.01 27.98 C 38.25 29.71 36.66 30.74 35.81 32.00 C 36.67 33.25 38.25 34.29 38.01 36.02 C 38.03 42.01 37.97 48.01 38.01 54.00 C 34.67 54.00 31.33 54.00 28.00 54.00 C 28.00 40.67 28.00 27.33 28.00 14.00 Z" />
<path fill="#000000" opacity="1.00" d=" M 48.02 14.00 C 49.34 14.00 50.67 14.00 51.99 14.00 C 52.00 27.01 52.02 40.01 51.99 53.02 C 52.30 54.41 51.06 56.98 49.44 55.61 C 47.42 53.60 44.60 53.93 42.00 53.95 C 42.00 52.64 42.00 51.33 42.00 50.02 C 44.00 50.00 46.01 50.00 48.01 49.98 C 47.99 47.99 47.99 46.01 48.01 44.02 C 46.01 44.00 44.00 44.00 42.00 43.98 C 42.00 42.66 42.00 41.34 42.00 40.02 C 44.00 40.00 46.01 40.00 48.01 39.98 C 47.99 37.99 47.99 36.01 48.01 34.02 C 46.01 34.00 44.00 34.00 42.00 33.98 C 42.00 32.66 42.00 31.34 42.00 30.02 C 44.00 30.00 46.01 30.00 48.01 29.98 C 47.99 27.99 47.99 26.01 48.01 24.02 C 46.01 24.00 44.00 24.00 42.00 23.98 C 42.00 22.66 42.00 21.34 42.00 20.02 C 44.00 20.00 45.99 20.00 47.99 19.99 C 48.00 17.99 48.00 16.00 48.02 14.00 Z" />
</g>
</svg>
