<?xml version="1.0" encoding="UTF-8" ?>
<!DOCTYPE svg PUBLIC "-//W3C//DTD SVG 1.1//EN" "http://www.w3.org/Graphics/SVG/1.1/DTD/svg11.dtd">
<svg width="60pt" height="60pt" viewBox="0 0 60 60" version="1.1" xmlns="http://www.w3.org/2000/svg">
<g id="#ffffffff">
<path fill="#ffffff" opacity="1.00" d=" M 0.00 0.00 L 60.00 0.00 L 60.00 60.00 L 0.00 60.00 L 0.00 0.00 M 22.16 4.12 C 20.22 5.15 21.61 7.42 21.77 9.01 C 22.48 11.51 20.52 13.67 20.02 16.01 C 20.19 18.80 22.76 21.22 21.61 24.10 C 19.32 32.96 16.54 41.80 16.11 51.01 C 15.81 52.29 16.41 54.06 17.99 53.92 C 25.98 54.06 34.00 54.06 41.99 53.92 C 43.59 54.08 44.18 52.28 43.88 51.01 C 43.44 41.80 40.68 32.95 38.38 24.09 C 37.25 21.22 39.81 18.79 39.98 16.00 C 39.07 13.20 37.20 10.40 38.59 7.39 C 39.52 5.63 38.30 3.38 36.16 4.06 C 33.70 6.31 34.33 10.01 33.57 12.96 C 33.22 15.18 31.46 16.72 30.00 18.26 C 27.51 16.20 25.96 13.26 25.98 9.99 C 25.68 7.80 25.44 3.29 22.16 4.12 Z" />
</g>
<g id="#000000ff">
<path fill="#000000" opacity="1.00" d=" M 22.16 4.12 C 25.44 3.29 25.68 7.80 25.98 9.99 C 25.96 13.26 27.51 16.20 30.00 18.26 C 31.46 16.72 33.22 15.18 33.57 12.96 C 34.33 10.01 33.70 6.31 36.16 4.06 C 38.30 3.38 39.52 5.63 38.59 7.39 C 37.20 10.40 39.07 13.20 39.98 16.00 C 39.81 18.79 37.25 21.22 38.38 24.09 C 40.68 32.95 43.44 41.80 43.88 51.01 C 44.18 52.28 43.59 54.08 41.99 53.92 C 34.00 54.06 25.98 54.06 17.99 53.92 C 16.41 54.06 15.81 52.29 16.11 51.01 C 16.54 41.80 19.32 32.96 21.61 24.10 C 22.76 21.22 20.19 18.80 20.02 16.01 C 20.52 13.67 22.48 11.51 21.77 9.01 C 21.61 7.42 20.22 5.15 22.16 4.12 Z" />
</g>
</svg>
