<?xml version="1.0" encoding="UTF-8" ?>
<!DOCTYPE svg PUBLIC "-//W3C//DTD SVG 1.1//EN" "http://www.w3.org/Graphics/SVG/1.1/DTD/svg11.dtd">
<svg width="64pt" height="64pt" viewBox="0 0 64 64" version="1.1" xmlns="http://www.w3.org/2000/svg">
<g id="#ffffffff">
<path fill="#ffffff" opacity="1.00" d=" M 0.00 0.00 L 64.00 0.00 L 64.00 21.16 C 61.90 19.61 59.02 19.74 56.96 18.08 C 53.05 14.88 46.87 14.99 43.14 18.43 C 39.82 17.77 36.35 18.36 34.00 20.95 C 32.23 19.41 30.59 17.72 28.68 16.35 C 26.62 15.18 25.33 17.78 24.02 18.90 C 19.56 17.36 15.60 20.65 13.27 24.11 C 12.21 26.30 11.63 28.98 9.37 30.30 C 7.47 30.92 5.41 30.92 3.52 31.57 C 1.06 32.87 0.66 35.91 0.00 38.34 L 0.00 0.00 Z" />
<path fill="#ffffff" opacity="1.00" d=" M 43.90 22.68 C 46.07 22.02 47.41 19.48 49.92 19.84 C 53.77 19.35 55.97 23.33 59.65 23.67 C 59.11 26.97 56.98 29.79 56.94 33.19 C 54.59 32.41 52.70 29.87 49.99 30.83 C 47.39 31.49 44.70 31.36 42.08 31.83 C 38.53 33.13 39.01 38.23 35.21 39.41 C 33.44 38.87 31.07 37.94 29.91 40.03 C 28.27 42.58 24.46 41.28 22.65 43.65 C 21.97 44.79 21.74 46.12 21.20 47.33 C 16.84 48.46 12.02 48.81 8.42 45.65 C 3.55 44.71 3.24 38.81 5.14 35.13 C 9.87 35.39 14.76 32.72 16.09 27.99 C 16.53 25.36 18.89 23.88 20.84 22.39 C 22.93 24.84 26.39 23.87 27.71 21.18 C 29.37 22.12 29.97 23.81 30.49 25.54 C 31.72 26.60 33.51 26.17 34.97 26.04 C 37.42 26.14 36.85 22.59 39.07 22.27 C 40.69 22.21 42.28 22.63 43.90 22.68 Z" />
<path fill="#ffffff" opacity="1.00" d=" M 60.19 35.19 C 61.67 31.19 63.06 27.09 64.00 22.91 L 64.00 64.00 L 0.00 64.00 L 0.00 41.57 C 1.00 44.32 1.93 47.82 5.10 48.76 C 8.02 49.91 10.64 52.13 13.92 52.11 C 16.95 52.09 20.07 51.95 22.94 50.90 C 24.97 50.20 25.37 47.90 26.06 46.16 C 28.57 45.66 31.01 44.81 33.14 43.37 C 38.10 43.99 41.76 39.93 43.31 35.67 C 46.01 35.58 48.68 35.21 51.33 34.67 C 53.58 37.18 57.87 38.14 60.19 35.19 Z" />
</g>
<g id="#000000ff">
<path fill="#000000" opacity="1.00" d=" M 24.02 18.90 C 25.33 17.78 26.62 15.18 28.68 16.35 C 30.59 17.72 32.23 19.41 34.00 20.95 C 36.35 18.36 39.82 17.77 43.14 18.43 C 46.87 14.99 53.05 14.88 56.96 18.08 C 59.02 19.74 61.90 19.61 64.00 21.16 L 64.00 22.91 C 63.06 27.09 61.67 31.19 60.19 35.19 C 57.87 38.14 53.58 37.18 51.33 34.67 C 48.68 35.21 46.01 35.58 43.31 35.67 C 41.76 39.93 38.10 43.99 33.14 43.37 C 31.01 44.81 28.57 45.66 26.06 46.16 C 25.37 47.90 24.97 50.20 22.94 50.90 C 20.07 51.95 16.95 52.09 13.92 52.11 C 10.64 52.13 8.02 49.91 5.10 48.76 C 1.93 47.82 1.00 44.32 0.00 41.57 L 0.00 38.34 C 0.66 35.91 1.06 32.87 3.52 31.57 C 5.41 30.92 7.47 30.92 9.37 30.30 C 11.63 28.98 12.21 26.30 13.27 24.11 C 15.60 20.65 19.56 17.36 24.02 18.90 M 43.90 22.68 C 42.28 22.63 40.69 22.21 39.07 22.27 C 36.85 22.59 37.42 26.14 34.97 26.04 C 33.51 26.17 31.72 26.60 30.49 25.54 C 29.97 23.81 29.37 22.12 27.71 21.18 C 26.39 23.87 22.93 24.84 20.84 22.39 C 18.89 23.88 16.53 25.36 16.09 27.99 C 14.76 32.72 9.87 35.39 5.14 35.13 C 3.24 38.81 3.55 44.71 8.42 45.65 C 12.02 48.81 16.84 48.46 21.20 47.33 C 21.74 46.12 21.97 44.79 22.65 43.65 C 24.46 41.28 28.27 42.58 29.91 40.03 C 31.07 37.94 33.44 38.87 35.21 39.41 C 39.01 38.23 38.53 33.13 42.08 31.83 C 44.70 31.36 47.39 31.49 49.99 30.83 C 52.70 29.87 54.59 32.41 56.94 33.19 C 56.98 29.79 59.11 26.97 59.65 23.67 C 55.97 23.33 53.77 19.35 49.92 19.84 C 47.41 19.48 46.07 22.02 43.90 22.68 Z" />
</g>
</svg>
