<?xml version="1.0" encoding="UTF-8" ?>
<!DOCTYPE svg PUBLIC "-//W3C//DTD SVG 1.1//EN" "http://www.w3.org/Graphics/SVG/1.1/DTD/svg11.dtd">
<svg width="60pt" height="60pt" viewBox="0 0 60 60" version="1.1" xmlns="http://www.w3.org/2000/svg">
<g id="#ffffffff">
<path fill="#ffffff" opacity="1.00" d=" M 0.00 0.00 L 60.00 0.00 L 60.00 60.00 L 42.53 60.00 C 43.93 57.81 45.90 56.08 47.73 54.27 C 44.50 51.39 39.48 51.29 36.31 54.32 C 38.14 56.10 40.12 57.79 41.47 60.00 L 0.00 60.00 L 0.00 0.00 M 25.81 6.85 C 19.31 12.38 12.42 17.49 6.10 23.22 C 5.32 25.73 8.19 26.22 10.00 26.11 C 10.04 33.42 9.93 40.74 10.04 48.06 C 9.93 50.13 11.86 51.97 13.89 51.96 C 18.70 52.09 23.52 51.96 28.33 51.99 C 26.17 49.72 23.78 47.65 21.75 45.25 C 20.39 43.55 21.06 41.00 22.70 39.75 C 29.76 32.79 40.54 30.42 50.00 33.12 C 50.00 30.78 50.00 28.44 50.00 26.11 C 51.81 26.22 54.68 25.72 53.89 23.21 C 48.33 18.05 42.17 13.53 36.38 8.63 C 34.27 7.07 32.49 4.95 30.04 3.94 C 28.36 4.41 27.18 5.85 25.81 6.85 M 25.00 42.98 C 25.93 43.92 26.86 44.87 27.80 45.82 C 35.33 38.15 48.65 38.17 56.19 45.81 C 57.13 44.87 58.06 43.94 59.00 43.00 C 50.06 33.77 33.97 33.79 25.00 42.98 M 30.66 48.67 C 31.60 49.60 32.53 50.53 33.47 51.46 C 38.06 47.01 45.89 46.90 50.44 51.46 C 51.42 50.53 52.39 49.58 53.35 48.63 C 47.26 42.57 36.71 42.52 30.66 48.67 Z" />
</g>
<g id="#000000ff">
<path fill="#000000" opacity="1.00" d=" M 25.81 6.85 C 27.18 5.85 28.36 4.41 30.04 3.94 C 32.49 4.95 34.27 7.07 36.38 8.63 C 42.17 13.53 48.33 18.05 53.89 23.21 C 54.68 25.72 51.81 26.22 50.00 26.11 C 50.00 28.44 50.00 30.78 50.00 33.12 C 40.54 30.42 29.76 32.79 22.70 39.75 C 21.06 41.00 20.39 43.55 21.75 45.25 C 23.78 47.65 26.17 49.72 28.33 51.99 C 23.52 51.96 18.70 52.09 13.89 51.96 C 11.86 51.97 9.93 50.13 10.04 48.06 C 9.93 40.74 10.04 33.42 10.00 26.11 C 8.19 26.22 5.32 25.73 6.10 23.22 C 12.42 17.49 19.31 12.38 25.81 6.85 Z" />
<path fill="#000000" opacity="1.00" d=" M 25.00 42.98 C 33.97 33.79 50.06 33.77 59.00 43.00 C 58.06 43.94 57.13 44.87 56.19 45.81 C 48.65 38.17 35.33 38.15 27.80 45.82 C 26.86 44.87 25.93 43.92 25.00 42.98 Z" />
<path fill="#000000" opacity="1.00" d=" M 30.66 48.67 C 36.71 42.52 47.26 42.57 53.35 48.63 C 52.39 49.58 51.42 50.53 50.44 51.46 C 45.89 46.90 38.06 47.01 33.47 51.46 C 32.53 50.53 31.60 49.60 30.66 48.67 Z" />
<path fill="#000000" opacity="1.00" d=" M 36.31 54.32 C 39.48 51.29 44.50 51.39 47.73 54.27 C 45.90 56.08 43.93 57.81 42.53 60.00 L 41.47 60.00 C 40.12 57.79 38.14 56.10 36.31 54.32 Z" />
</g>
</svg>
