<?xml version="1.0" encoding="UTF-8" ?>
<!DOCTYPE svg PUBLIC "-//W3C//DTD SVG 1.1//EN" "http://www.w3.org/Graphics/SVG/1.1/DTD/svg11.dtd">
<svg width="60pt" height="60pt" viewBox="0 0 60 60" version="1.1" xmlns="http://www.w3.org/2000/svg">
<g id="#ffffffff">
<path fill="#ffffff" opacity="1.00" d=" M 0.00 0.00 L 60.00 0.00 L 60.00 60.00 L 0.00 60.00 L 0.00 0.00 M 8.00 12.89 C 8.03 23.29 7.92 33.70 8.05 44.11 C 7.97 46.18 9.85 47.95 11.88 47.94 C 17.25 48.12 22.63 47.93 28.00 48.00 C 28.10 39.63 27.79 31.25 28.14 22.89 C 28.45 18.81 32.29 16.29 36.05 15.76 C 36.06 13.04 36.43 8.81 32.90 8.16 C 25.91 7.81 18.87 8.02 11.87 8.06 C 9.38 8.01 7.68 10.56 8.00 12.89 M 34.37 20.36 C 32.62 21.12 31.85 23.07 32.00 24.88 C 32.03 32.61 31.92 40.34 32.05 48.06 C 31.95 50.15 33.83 51.96 35.89 51.94 C 39.94 52.07 44.01 52.06 48.06 51.95 C 50.57 52.02 52.30 49.49 52.00 47.14 C 51.97 39.39 52.08 31.64 51.94 23.90 C 51.96 21.86 50.19 19.98 48.12 20.05 C 43.55 20.09 38.88 19.58 34.37 20.36 Z" />
<path fill="#ffffff" opacity="1.00" d=" M 21.27 40.12 C 23.66 39.20 25.11 42.83 22.82 43.88 C 20.39 44.92 18.80 41.05 21.27 40.12 Z" />
<path fill="#ffffff" opacity="1.00" d=" M 41.24 44.10 C 43.66 43.19 45.13 46.88 42.79 47.89 C 40.34 48.84 38.83 45.08 41.24 44.10 Z" />
</g>
<g id="#000000ff">
<path fill="#000000" opacity="1.00" d=" M 8.00 12.89 C 7.68 10.56 9.38 8.01 11.87 8.06 C 18.87 8.02 25.91 7.81 32.90 8.16 C 36.43 8.81 36.06 13.04 36.05 15.76 C 32.29 16.29 28.45 18.81 28.14 22.89 C 27.79 31.25 28.10 39.63 28.00 48.00 C 22.63 47.93 17.25 48.12 11.88 47.94 C 9.85 47.95 7.97 46.18 8.05 44.11 C 7.92 33.70 8.03 23.29 8.00 12.89 M 21.27 40.12 C 18.80 41.05 20.39 44.92 22.82 43.88 C 25.11 42.83 23.66 39.20 21.27 40.12 Z" />
<path fill="#000000" opacity="1.00" d=" M 34.37 20.36 C 38.88 19.58 43.55 20.09 48.12 20.05 C 50.19 19.98 51.96 21.86 51.94 23.90 C 52.08 31.64 51.97 39.39 52.00 47.14 C 52.30 49.49 50.57 52.02 48.06 51.95 C 44.01 52.06 39.94 52.07 35.89 51.94 C 33.83 51.96 31.95 50.15 32.05 48.06 C 31.92 40.34 32.03 32.61 32.00 24.88 C 31.85 23.07 32.62 21.12 34.37 20.36 M 41.24 44.10 C 38.83 45.08 40.34 48.84 42.79 47.89 C 45.13 46.88 43.66 43.19 41.24 44.10 Z" />
</g>
</svg>
