<?xml version="1.0" encoding="UTF-8" ?>
<!DOCTYPE svg PUBLIC "-//W3C//DTD SVG 1.1//EN" "http://www.w3.org/Graphics/SVG/1.1/DTD/svg11.dtd">
<svg width="64pt" height="64pt" viewBox="0 0 64 64" version="1.1" xmlns="http://www.w3.org/2000/svg">
<g id="#ffffffff">
<path fill="#ffffff" opacity="1.00" d=" M 0.00 0.00 L 64.00 0.00 L 64.00 64.00 L 0.00 64.00 L 0.00 0.00 M 17.93 24.86 C 13.73 27.04 10.78 31.96 12.57 36.68 C 9.24 38.23 6.31 41.21 6.06 45.05 C 5.64 48.26 7.26 51.19 9.21 53.59 C 10.13 52.62 11.05 51.65 11.95 50.68 C 10.23 48.50 9.17 45.36 10.89 42.85 C 12.41 40.14 15.73 39.99 18.45 39.71 C 17.09 37.43 15.24 34.84 16.32 32.05 C 17.11 29.31 19.94 28.11 22.51 27.66 C 22.08 25.13 21.60 22.34 23.06 20.03 C 25.18 16.05 30.89 14.75 34.52 17.43 C 36.77 18.84 37.58 21.47 38.25 23.88 C 40.31 24.07 42.69 24.04 44.20 25.72 C 45.98 27.27 45.95 29.75 46.10 31.91 C 48.93 31.82 52.26 32.55 53.44 35.48 C 54.83 38.10 53.41 40.89 51.81 43.00 C 53.81 45.28 54.37 48.21 53.52 51.14 C 54.59 51.84 55.72 52.45 56.85 53.07 C 58.27 49.82 58.33 46.15 56.61 43.00 C 60.20 37.20 56.25 29.50 49.75 28.26 C 48.73 24.14 45.47 20.94 41.29 20.13 C 39.30 15.24 34.36 11.37 28.89 12.08 C 22.52 12.52 17.64 18.59 17.93 24.86 M 28.00 41.99 C 26.00 40.00 24.01 38.00 22.01 36.01 C 22.66 39.34 23.33 42.67 24.00 46.00 C 21.33 46.00 18.67 46.00 16.01 46.00 C 18.67 48.01 21.34 50.01 24.01 52.00 C 29.95 51.89 35.91 52.20 41.83 51.87 C 44.02 50.81 45.94 49.30 47.98 48.00 C 45.99 48.00 43.99 48.00 42.00 48.00 C 43.33 45.33 44.67 42.67 46.00 40.00 C 43.33 40.67 40.67 41.33 38.00 42.00 C 38.66 38.00 39.34 34.01 39.99 30.02 C 37.99 32.67 36.00 35.34 34.00 38.00 C 32.03 33.34 29.94 28.74 28.14 24.02 C 27.87 30.01 28.05 36.00 28.00 41.99 Z" />
</g>
<g id="#000000ff">
<path fill="#000000" opacity="1.00" d=" M 17.93 24.86 C 17.64 18.59 22.52 12.52 28.89 12.08 C 34.36 11.37 39.30 15.24 41.29 20.13 C 45.47 20.94 48.73 24.14 49.75 28.26 C 56.25 29.50 60.20 37.20 56.61 43.00 C 58.33 46.15 58.27 49.82 56.85 53.07 C 55.72 52.45 54.59 51.84 53.52 51.14 C 54.37 48.21 53.81 45.28 51.81 43.00 C 53.41 40.89 54.83 38.10 53.44 35.48 C 52.26 32.55 48.93 31.82 46.10 31.91 C 45.95 29.75 45.98 27.27 44.20 25.72 C 42.69 24.04 40.31 24.07 38.25 23.88 C 37.58 21.47 36.77 18.84 34.52 17.43 C 30.89 14.75 25.18 16.05 23.06 20.03 C 21.60 22.34 22.08 25.13 22.51 27.66 C 19.94 28.11 17.11 29.31 16.32 32.05 C 15.24 34.84 17.09 37.43 18.45 39.71 C 15.73 39.99 12.41 40.14 10.89 42.85 C 9.17 45.36 10.23 48.50 11.95 50.68 C 11.05 51.65 10.13 52.62 9.21 53.59 C 7.26 51.19 5.64 48.26 6.06 45.05 C 6.31 41.21 9.24 38.23 12.57 36.68 C 10.78 31.96 13.73 27.04 17.93 24.86 Z" />
<path fill="#000000" opacity="1.00" d=" M 28.00 41.99 C 28.05 36.00 27.87 30.01 28.14 24.02 C 29.94 28.74 32.03 33.34 34.00 38.00 C 36.00 35.34 37.99 32.67 39.99 30.02 C 39.34 34.01 38.66 38.00 38.00 42.00 C 40.67 41.33 43.33 40.67 46.00 40.00 C 44.67 42.67 43.33 45.33 42.00 48.00 C 43.99 48.00 45.99 48.00 47.98 48.00 C 45.94 49.30 44.02 50.81 41.83 51.87 C 35.91 52.20 29.95 51.89 24.01 52.00 C 21.34 50.01 18.67 48.01 16.01 46.00 C 18.67 46.00 21.33 46.00 24.00 46.00 C 23.33 42.67 22.66 39.34 22.01 36.01 C 24.01 38.00 26.00 40.00 28.00 41.99 Z" />
</g>
</svg>
