<?xml version="1.0" encoding="UTF-8" ?>
<!DOCTYPE svg PUBLIC "-//W3C//DTD SVG 1.1//EN" "http://www.w3.org/Graphics/SVG/1.1/DTD/svg11.dtd">
<svg width="60pt" height="60pt" viewBox="0 0 60 60" version="1.1" xmlns="http://www.w3.org/2000/svg">
<g id="#ffffffff">
<path fill="#ffffff" opacity="1.00" d=" M 0.00 0.00 L 60.00 0.00 L 60.00 60.00 L 0.00 60.00 L 0.00 0.00 M 4.04 15.93 C 3.94 23.66 4.02 31.38 4.00 39.11 C 3.85 41.95 4.99 44.92 7.42 46.53 C 10.28 48.60 13.99 47.84 17.28 48.08 C 16.66 51.60 13.07 53.04 11.79 56.09 C 17.75 56.23 23.16 53.03 26.58 48.28 C 33.98 47.51 41.62 48.39 49.09 47.87 C 52.92 47.48 56.02 43.90 55.96 40.06 C 56.04 32.01 56.04 23.94 55.95 15.88 C 56.03 11.70 52.31 7.97 48.13 8.04 C 36.05 7.97 23.96 7.97 11.89 8.04 C 7.67 7.96 3.93 11.72 4.04 15.93 Z" />
<path fill="#ffffff" opacity="1.00" d=" M 8.08 23.20 C 9.91 20.33 12.50 23.64 14.00 25.09 C 15.48 23.94 16.64 21.67 18.82 22.08 C 21.66 23.97 18.36 26.45 16.95 28.00 C 18.36 29.55 21.63 32.00 18.84 33.92 C 16.65 34.35 15.49 32.05 14.00 30.91 C 12.52 32.05 11.36 34.33 9.20 33.91 C 6.32 32.08 9.66 29.49 11.11 28.00 C 9.96 26.52 7.67 25.37 8.08 23.20 Z" />
<path fill="#ffffff" opacity="1.00" d=" M 24.09 23.17 C 25.95 20.35 28.49 23.65 30.00 25.09 C 31.49 23.95 32.66 21.63 34.84 22.09 C 37.63 23.96 34.36 26.48 32.94 28.00 C 34.07 29.48 36.34 30.65 35.91 32.81 C 34.06 35.66 31.51 32.35 30.00 30.91 C 28.52 32.05 27.37 34.31 25.21 33.92 C 22.32 32.10 25.65 29.49 27.11 28.00 C 25.96 26.52 23.65 25.36 24.09 23.17 Z" />
<path fill="#ffffff" opacity="1.00" d=" M 40.09 23.19 C 41.93 20.34 44.49 23.65 46.00 25.09 C 47.49 23.96 48.65 21.62 50.83 22.11 C 53.64 23.92 50.36 26.49 48.94 28.00 C 50.05 29.48 52.37 30.66 51.90 32.82 C 50.05 35.66 47.50 32.34 46.00 30.91 C 44.52 32.04 43.36 34.34 41.19 33.91 C 38.33 32.09 41.66 29.49 43.11 28.00 C 41.96 26.52 39.65 25.37 40.09 23.19 Z" />
</g>
<g id="#000000ff">
<path fill="#968176" opacity="1.00" d=" M 4.04 15.93 C 3.93 11.72 7.67 7.96 11.89 8.04 C 23.96 7.97 36.05 7.97 48.13 8.04 C 52.31 7.97 56.03 11.70 55.95 15.88 C 56.04 23.94 56.04 32.01 55.96 40.06 C 56.02 43.90 52.92 47.48 49.09 47.87 C 41.62 48.39 33.98 47.51 26.58 48.28 C 23.16 53.03 17.75 56.23 11.79 56.09 C 13.07 53.04 16.66 51.60 17.28 48.08 C 13.99 47.84 10.28 48.60 7.42 46.53 C 4.99 44.92 3.85 41.95 4.00 39.11 C 4.02 31.38 3.94 23.66 4.04 15.93 M 8.08 23.20 C 7.67 25.37 9.96 26.52 11.11 28.00 C 9.66 29.49 6.32 32.08 9.20 33.91 C 11.36 34.33 12.52 32.05 14.00 30.91 C 15.49 32.05 16.65 34.35 18.84 33.92 C 21.63 32.00 18.36 29.55 16.95 28.00 C 18.36 26.45 21.66 23.97 18.82 22.08 C 16.64 21.67 15.48 23.94 14.00 25.09 C 12.50 23.64 9.91 20.33 8.08 23.20 M 24.09 23.17 C 23.65 25.36 25.96 26.52 27.11 28.00 C 25.65 29.49 22.32 32.10 25.21 33.92 C 27.37 34.31 28.52 32.05 30.00 30.91 C 31.51 32.35 34.06 35.66 35.91 32.81 C 36.34 30.65 34.07 29.48 32.94 28.00 C 34.36 26.48 37.63 23.96 34.84 22.09 C 32.66 21.63 31.49 23.95 30.00 25.09 C 28.49 23.65 25.95 20.35 24.09 23.17 M 40.09 23.19 C 39.65 25.37 41.96 26.52 43.11 28.00 C 41.66 29.49 38.33 32.09 41.19 33.91 C 43.36 34.34 44.52 32.04 46.00 30.91 C 47.50 32.34 50.05 35.66 51.90 32.82 C 52.37 30.66 50.05 29.48 48.94 28.00 C 50.36 26.49 53.64 23.92 50.83 22.11 C 48.65 21.62 47.49 23.96 46.00 25.09 C 44.49 23.65 41.93 20.34 40.09 23.19 Z" />
</g>
</svg>
