<?xml version="1.0" encoding="UTF-8" ?>
<!DOCTYPE svg PUBLIC "-//W3C//DTD SVG 1.1//EN" "http://www.w3.org/Graphics/SVG/1.1/DTD/svg11.dtd">
<svg width="64pt" height="64pt" viewBox="0 0 64 64" version="1.1" xmlns="http://www.w3.org/2000/svg">
<g id="#ffffffff">
<path fill="#ffffff" opacity="1.00" d=" M 0.00 0.00 L 64.00 0.00 L 64.00 64.00 L 0.00 64.00 L 0.00 0.00 M 7.61 6.35 C 7.87 7.65 8.13 8.95 8.40 10.25 C 14.56 9.68 21.67 10.04 26.41 14.55 C 29.22 17.15 29.71 21.05 30.22 24.62 C 31.89 27.94 34.35 30.80 36.21 34.02 C 34.15 34.72 32.07 35.37 30.00 36.05 C 29.83 39.40 30.85 43.47 28.08 46.06 C 26.05 48.40 22.77 47.99 20.00 48.04 C 20.00 50.69 20.00 53.34 20.00 56.00 C 21.33 56.00 22.66 56.00 24.00 56.00 C 24.00 54.72 24.00 53.43 24.00 52.15 C 30.46 51.63 35.01 45.31 34.08 39.01 C 36.31 38.22 39.29 37.56 39.83 34.81 C 40.47 31.38 37.35 28.87 35.80 26.15 C 32.81 22.66 33.95 17.50 31.05 13.92 C 25.91 6.57 15.88 5.31 7.61 6.35 M 23.13 26.11 C 20.86 27.21 22.48 30.96 24.77 29.81 C 27.24 28.86 25.52 25.07 23.13 26.11 M 53.14 34.11 C 50.87 35.26 52.42 38.86 54.84 37.89 C 57.13 36.76 55.57 33.11 53.14 34.11 M 47.18 38.11 C 44.86 39.09 46.39 42.90 48.73 41.84 C 51.22 40.98 49.57 37.07 47.18 38.11 M 41.21 42.18 C 38.79 43.13 40.43 46.87 42.81 45.90 C 45.17 44.87 43.54 41.04 41.21 42.18 M 53.16 42.21 C 50.76 43.10 52.53 46.99 54.74 45.81 C 57.30 45.03 55.45 40.88 53.16 42.21 M 47.18 46.10 C 44.86 47.10 46.43 50.95 48.73 49.82 C 51.24 48.98 49.56 45.06 47.18 46.10 M 53.16 50.10 C 50.87 51.24 52.41 54.82 54.80 53.90 C 57.15 52.82 55.59 49.13 53.16 50.10 Z" />
</g>
<g id="#000000ff">
<path fill="#000000" opacity="1.00" d=" M 7.61 6.35 C 15.88 5.31 25.91 6.57 31.05 13.92 C 33.95 17.50 32.81 22.66 35.80 26.15 C 37.35 28.87 40.47 31.38 39.83 34.81 C 39.29 37.56 36.31 38.22 34.08 39.01 C 35.01 45.31 30.46 51.63 24.00 52.15 C 24.00 53.43 24.00 54.72 24.00 56.00 C 22.66 56.00 21.33 56.00 20.00 56.00 C 20.00 53.34 20.00 50.69 20.00 48.04 C 22.77 47.99 26.05 48.40 28.08 46.06 C 30.85 43.47 29.83 39.40 30.00 36.05 C 32.07 35.37 34.15 34.72 36.21 34.02 C 34.35 30.80 31.89 27.94 30.22 24.62 C 29.71 21.05 29.22 17.15 26.41 14.55 C 21.67 10.04 14.56 9.68 8.40 10.25 C 8.13 8.95 7.87 7.65 7.61 6.35 Z" />
<path fill="#000000" opacity="1.00" d=" M 23.13 26.11 C 25.52 25.07 27.24 28.86 24.77 29.81 C 22.48 30.96 20.86 27.21 23.13 26.11 Z" />
<path fill="#000000" opacity="1.00" d=" M 53.14 34.11 C 55.57 33.11 57.13 36.76 54.84 37.89 C 52.42 38.86 50.87 35.26 53.14 34.11 Z" />
<path fill="#000000" opacity="1.00" d=" M 47.18 38.11 C 49.57 37.07 51.22 40.98 48.73 41.84 C 46.39 42.90 44.86 39.09 47.18 38.11 Z" />
<path fill="#000000" opacity="1.00" d=" M 41.21 42.18 C 43.54 41.04 45.17 44.87 42.81 45.90 C 40.43 46.87 38.79 43.13 41.21 42.18 Z" />
<path fill="#000000" opacity="1.00" d=" M 53.16 42.21 C 55.45 40.88 57.30 45.03 54.74 45.81 C 52.53 46.99 50.76 43.10 53.16 42.21 Z" />
<path fill="#000000" opacity="1.00" d=" M 47.18 46.10 C 49.56 45.06 51.24 48.98 48.73 49.82 C 46.43 50.95 44.86 47.10 47.18 46.10 Z" />
<path fill="#000000" opacity="1.00" d=" M 53.16 50.10 C 55.59 49.13 57.15 52.82 54.80 53.90 C 52.41 54.82 50.87 51.24 53.16 50.10 Z" />
</g>
</svg>
