<?xml version="1.0" encoding="UTF-8" ?>
<!DOCTYPE svg PUBLIC "-//W3C//DTD SVG 1.1//EN" "http://www.w3.org/Graphics/SVG/1.1/DTD/svg11.dtd">
<svg width="64pt" height="64pt" viewBox="0 0 64 64" version="1.1" xmlns="http://www.w3.org/2000/svg">
<g id="#ffffffff">
<path fill="#ffffff" opacity="1.00" d=" M 0.00 0.00 L 64.00 0.00 L 64.00 64.00 L 0.00 64.00 L 0.00 0.00 M 30.02 6.00 C 30.00 7.46 29.97 8.92 29.96 10.38 C 19.81 11.20 11.21 19.87 10.35 30.00 C 8.90 30.00 7.45 30.00 6.00 30.00 C 6.00 31.33 6.00 32.65 6.00 33.98 C 7.47 33.99 8.95 34.04 10.42 34.07 C 11.19 44.22 19.90 52.76 29.99 53.64 C 29.99 55.09 30.00 56.55 30.01 58.00 C 31.34 58.00 32.67 58.00 34.00 58.00 C 34.00 56.55 34.00 55.10 34.00 53.64 C 44.06 52.75 52.81 44.25 53.55 34.10 C 55.03 34.04 56.52 34.00 58.00 33.97 C 58.00 32.65 58.00 31.33 58.00 30.01 C 56.61 30.04 55.22 30.02 53.83 29.96 C 52.99 28.13 53.07 25.95 52.19 24.10 C 49.36 16.53 41.99 11.14 34.00 10.35 C 34.00 8.90 34.00 7.45 34.00 6.00 C 32.67 6.00 31.34 6.00 30.02 6.00 Z" />
<path fill="#ffffff" opacity="1.00" d=" M 14.36 29.99 C 15.26 21.97 21.97 15.27 29.99 14.36 C 29.99 15.27 30.00 17.09 30.00 18.00 C 31.33 18.00 32.67 18.00 34.00 18.00 C 34.00 17.09 34.01 15.27 34.01 14.37 C 42.05 15.26 48.71 21.98 49.64 29.99 C 47.09 30.00 44.55 30.00 42.00 30.00 C 42.00 28.00 42.00 26.00 42.00 24.01 C 39.33 26.66 36.68 29.32 34.02 31.98 C 36.67 34.66 39.35 37.32 42.00 40.00 C 42.00 38.00 42.00 36.00 42.00 34.00 C 44.55 34.00 47.09 33.99 49.64 34.01 C 48.71 42.03 42.04 48.72 34.01 49.64 C 34.01 48.73 34.00 46.91 34.00 46.00 C 32.66 46.00 31.33 46.00 30.00 46.00 C 30.00 46.91 29.99 48.73 29.99 49.64 C 21.97 48.71 15.27 42.03 14.36 34.01 C 16.91 33.99 19.45 34.00 22.00 34.00 C 22.00 36.00 22.00 38.00 22.00 39.99 C 24.68 37.33 27.35 34.66 30.01 31.98 C 27.35 29.32 24.69 26.66 22.02 24.01 C 22.00 26.01 22.00 28.00 22.00 30.00 C 19.45 30.00 16.90 30.00 14.36 29.99 Z" />
</g>
<g id="#000000ff">
<path fill="#000000" opacity="1.00" d=" M 30.02 6.00 C 31.34 6.00 32.67 6.00 34.00 6.00 C 34.00 7.45 34.00 8.90 34.00 10.35 C 41.99 11.14 49.36 16.53 52.19 24.10 C 53.07 25.95 52.99 28.13 53.83 29.96 C 55.22 30.02 56.61 30.04 58.00 30.01 C 58.00 31.33 58.00 32.65 58.00 33.97 C 56.52 34.00 55.03 34.04 53.55 34.10 C 52.81 44.25 44.06 52.75 34.00 53.64 C 34.00 55.10 34.00 56.55 34.00 58.00 C 32.67 58.00 31.34 58.00 30.01 58.00 C 30.00 56.55 29.99 55.09 29.99 53.64 C 19.90 52.76 11.19 44.22 10.42 34.07 C 8.95 34.04 7.47 33.99 6.00 33.98 C 6.00 32.65 6.00 31.33 6.00 30.00 C 7.45 30.00 8.90 30.00 10.35 30.00 C 11.21 19.87 19.81 11.20 29.96 10.38 C 29.97 8.92 30.00 7.46 30.02 6.00 M 14.36 29.99 C 16.90 30.00 19.45 30.00 22.00 30.00 C 22.00 28.00 22.00 26.01 22.02 24.01 C 24.69 26.66 27.35 29.32 30.01 31.98 C 27.35 34.66 24.68 37.33 22.00 39.99 C 22.00 38.00 22.00 36.00 22.00 34.00 C 19.45 34.00 16.91 33.99 14.36 34.01 C 15.27 42.03 21.97 48.71 29.99 49.64 C 29.99 48.73 30.00 46.91 30.00 46.00 C 31.33 46.00 32.66 46.00 34.00 46.00 C 34.00 46.91 34.01 48.73 34.01 49.64 C 42.04 48.72 48.71 42.03 49.64 34.01 C 47.09 33.99 44.55 34.00 42.00 34.00 C 42.00 36.00 42.00 38.00 42.00 40.00 C 39.35 37.32 36.67 34.66 34.02 31.98 C 36.68 29.32 39.33 26.66 42.00 24.01 C 42.00 26.00 42.00 28.00 42.00 30.00 C 44.55 30.00 47.09 30.00 49.64 29.99 C 48.71 21.98 42.05 15.26 34.01 14.37 C 34.01 15.27 34.00 17.09 34.00 18.00 C 32.67 18.00 31.33 18.00 30.00 18.00 C 30.00 17.09 29.99 15.27 29.99 14.36 C 21.97 15.27 15.26 21.97 14.36 29.99 Z" />
</g>
</svg>
