<?xml version="1.0" encoding="UTF-8" ?>
<!DOCTYPE svg PUBLIC "-//W3C//DTD SVG 1.1//EN" "http://www.w3.org/Graphics/SVG/1.1/DTD/svg11.dtd">
<svg width="60pt" height="60pt" viewBox="0 0 60 60" version="1.1" xmlns="http://www.w3.org/2000/svg">
<g id="#ffffffff">
<path fill="#ffffff" opacity="1.00" d=" M 0.00 0.00 L 60.00 0.00 L 60.00 60.00 L 0.00 60.00 L 0.00 0.00 M 29.97 16.01 C 30.22 18.66 33.42 17.86 35.22 18.03 C 36.28 19.05 37.26 20.15 38.23 21.27 C 33.08 23.37 27.67 24.64 22.08 23.97 C 20.41 22.26 18.66 20.07 16.05 20.04 C 12.03 20.02 7.98 19.78 3.98 20.21 C 1.43 20.93 1.40 25.14 4.02 25.74 C 8.38 26.20 12.67 27.19 16.56 29.27 C 12.43 31.68 7.60 32.92 3.83 35.88 C 0.34 38.93 2.33 45.26 6.89 45.86 C 12.61 46.15 18.35 46.00 24.07 45.95 C 28.58 45.99 30.17 41.09 32.31 38.00 C 35.18 38.01 38.06 37.99 40.94 37.98 C 41.73 39.32 42.54 40.66 43.35 41.99 C 41.26 42.00 39.15 41.84 37.08 42.22 C 35.27 43.00 35.91 46.11 37.96 45.92 C 42.60 45.98 47.32 46.36 51.91 45.55 C 54.24 44.69 57.36 43.65 58.05 40.99 C 57.01 39.07 55.93 35.54 53.19 36.13 C 51.06 37.11 52.54 39.43 53.22 40.87 C 51.55 41.48 49.82 41.91 48.06 42.14 C 47.10 40.47 46.12 38.82 45.11 37.18 C 48.89 35.53 52.50 33.27 55.15 30.06 C 56.22 28.93 56.30 26.98 55.12 25.90 C 51.32 23.43 46.64 22.64 42.92 20.05 C 40.02 17.91 38.18 13.35 33.98 13.94 C 32.44 13.93 30.03 13.88 29.97 16.01 Z" />
<path fill="#ffffff" opacity="1.00" d=" M 7.31 37.72 C 11.87 36.38 15.98 33.90 20.30 31.96 C 23.02 33.58 25.52 35.55 27.80 37.75 C 26.87 39.12 26.14 40.68 24.88 41.80 C 19.00 42.17 13.05 42.09 7.17 41.84 C 6.80 41.38 6.07 40.45 5.71 39.99 C 6.24 39.23 6.78 38.48 7.31 37.72 Z" />
</g>
<g id="#000000ff">
<path fill="#968176" opacity="1.00" d=" M 29.97 16.01 C 30.03 13.88 32.44 13.93 33.98 13.94 C 38.18 13.35 40.02 17.91 42.92 20.05 C 46.64 22.64 51.32 23.43 55.12 25.90 C 56.30 26.98 56.22 28.93 55.15 30.06 C 52.50 33.27 48.89 35.53 45.11 37.18 C 46.12 38.82 47.10 40.47 48.06 42.14 C 49.82 41.91 51.55 41.48 53.22 40.87 C 52.54 39.43 51.06 37.11 53.19 36.13 C 55.93 35.54 57.01 39.07 58.05 40.99 C 57.36 43.65 54.24 44.69 51.91 45.55 C 47.32 46.36 42.60 45.98 37.96 45.92 C 35.91 46.11 35.27 43.00 37.08 42.22 C 39.15 41.84 41.26 42.00 43.35 41.99 C 42.54 40.66 41.73 39.32 40.94 37.98 C 38.06 37.99 35.18 38.01 32.31 38.00 C 30.17 41.09 28.58 45.99 24.07 45.95 C 18.35 46.00 12.61 46.15 6.89 45.86 C 2.33 45.26 0.34 38.93 3.83 35.88 C 7.60 32.92 12.43 31.68 16.56 29.27 C 12.67 27.19 8.38 26.20 4.02 25.74 C 1.40 25.14 1.43 20.93 3.98 20.21 C 7.98 19.78 12.03 20.02 16.05 20.04 C 18.66 20.07 20.41 22.26 22.08 23.97 C 27.67 24.64 33.08 23.37 38.23 21.27 C 37.26 20.15 36.28 19.05 35.22 18.03 C 33.42 17.86 30.22 18.66 29.97 16.01 M 7.31 37.72 C 6.78 38.48 6.24 39.23 5.71 39.99 C 6.07 40.45 6.80 41.38 7.17 41.84 C 13.05 42.09 19.00 42.17 24.88 41.80 C 26.14 40.68 26.87 39.12 27.80 37.75 C 25.52 35.55 23.02 33.58 20.30 31.96 C 15.98 33.90 11.87 36.38 7.31 37.72 Z" />
</g>
</svg>
