<?xml version="1.0" encoding="UTF-8" ?>
<!DOCTYPE svg PUBLIC "-//W3C//DTD SVG 1.1//EN" "http://www.w3.org/Graphics/SVG/1.1/DTD/svg11.dtd">
<svg width="64pt" height="64pt" viewBox="0 0 64 64" version="1.1" xmlns="http://www.w3.org/2000/svg">
<g id="#ffffffff">
<path fill="#ffffff" opacity="1.00" d=" M 0.00 0.00 L 64.00 0.00 L 64.00 64.00 L 0.00 64.00 L 0.00 0.00 M 30.00 6.00 C 30.01 8.36 30.00 10.72 29.98 13.08 C 28.47 11.58 26.96 10.07 25.47 8.56 C 24.49 9.52 23.53 10.48 22.56 11.44 C 25.04 13.93 27.54 16.39 30.00 18.89 C 30.00 22.09 30.00 25.29 30.00 28.49 C 27.25 26.83 24.47 25.22 21.74 23.54 C 20.87 20.15 20.00 16.76 19.12 13.38 C 17.83 13.71 16.54 14.05 15.24 14.39 C 15.80 16.46 16.34 18.54 16.86 20.62 C 14.83 19.38 12.79 18.15 10.75 16.92 C 10.07 18.06 9.39 19.20 8.71 20.34 C 10.80 21.54 12.87 22.79 14.91 24.06 C 12.78 24.61 10.64 25.15 8.50 25.69 C 8.84 26.98 9.17 28.27 9.50 29.56 C 12.93 28.68 16.37 27.82 19.80 26.95 C 22.59 28.65 25.41 30.31 28.21 32.00 C 25.41 33.69 22.59 35.34 19.81 37.05 C 16.38 36.19 12.94 35.32 9.50 34.44 C 9.17 35.73 8.84 37.02 8.50 38.31 C 10.64 38.85 12.77 39.39 14.91 39.94 C 12.87 41.22 10.81 42.46 8.71 43.66 C 9.39 44.80 10.07 45.94 10.75 47.08 C 12.79 45.84 14.83 44.61 16.87 43.38 C 16.32 45.47 15.79 47.56 15.27 49.65 C 16.23 49.89 18.16 50.37 19.13 50.61 C 20.00 47.23 20.87 43.84 21.74 40.46 C 24.47 38.78 27.25 37.17 30.00 35.51 C 30.00 38.71 30.00 41.91 30.00 45.11 C 27.54 47.61 25.05 50.07 22.57 52.55 C 23.54 53.51 24.50 54.47 25.46 55.43 C 26.97 53.93 28.47 52.42 29.98 50.92 C 30.00 53.28 30.01 55.64 30.00 58.00 C 31.33 58.00 32.67 58.00 34.00 58.00 C 34.00 55.63 34.00 53.25 34.01 50.88 C 35.52 52.40 37.04 53.91 38.55 55.43 C 39.52 54.47 40.48 53.51 41.44 52.56 C 38.96 50.08 36.48 47.59 34.00 45.11 C 34.00 41.91 33.99 38.71 34.01 35.50 C 36.77 37.14 39.51 38.80 42.26 40.46 C 43.13 43.85 43.99 47.24 44.88 50.62 C 46.17 50.28 47.46 49.95 48.76 49.61 C 48.20 47.53 47.66 45.46 47.14 43.38 C 49.13 44.53 51.03 45.84 53.09 46.86 C 54.22 46.26 54.51 44.66 55.30 43.70 C 53.25 42.41 51.17 41.16 49.07 39.94 C 51.21 39.40 53.36 38.85 55.50 38.31 C 55.16 37.02 54.83 35.73 54.49 34.44 C 51.05 35.15 47.71 36.47 44.23 36.94 C 41.35 35.48 38.69 33.64 35.91 32.00 C 38.71 30.28 41.50 28.56 44.35 26.92 C 47.74 27.78 51.10 28.72 54.50 29.56 C 54.83 28.27 55.16 26.98 55.50 25.69 C 53.36 25.15 51.21 24.60 49.07 24.06 C 51.17 22.84 53.25 21.59 55.31 20.30 C 54.63 19.19 53.95 18.09 53.28 16.98 C 51.22 18.17 49.17 19.39 47.14 20.62 C 47.67 18.53 48.21 16.44 48.73 14.35 C 47.77 14.11 45.84 13.63 44.87 13.39 C 43.99 16.77 43.12 20.16 42.26 23.54 C 39.51 25.20 36.77 26.86 34.01 28.50 C 33.99 25.29 34.00 22.09 34.00 18.88 C 36.49 16.41 38.95 13.91 41.45 11.46 C 40.50 10.48 39.54 9.52 38.57 8.56 C 37.05 10.08 35.53 11.60 34.01 13.12 C 34.00 10.75 34.00 8.37 34.00 6.00 C 32.67 6.00 31.33 6.00 30.00 6.00 Z" />
</g>
<g id="#000000ff">
<path fill="#000000" opacity="1.00" d=" M 30.00 6.00 C 31.33 6.00 32.67 6.00 34.00 6.00 C 34.00 8.37 34.00 10.75 34.01 13.12 C 35.53 11.60 37.05 10.08 38.57 8.56 C 39.54 9.52 40.50 10.48 41.45 11.46 C 38.95 13.91 36.49 16.41 34.00 18.88 C 34.00 22.09 33.99 25.29 34.01 28.50 C 36.77 26.86 39.51 25.20 42.26 23.54 C 43.12 20.16 43.99 16.77 44.87 13.39 C 45.84 13.63 47.77 14.11 48.73 14.35 C 48.21 16.44 47.67 18.53 47.14 20.62 C 49.17 19.39 51.22 18.17 53.28 16.98 C 53.95 18.09 54.63 19.19 55.31 20.30 C 53.25 21.59 51.17 22.84 49.07 24.06 C 51.21 24.60 53.36 25.15 55.50 25.69 C 55.16 26.98 54.83 28.27 54.50 29.56 C 51.10 28.72 47.74 27.78 44.35 26.92 C 41.50 28.56 38.71 30.28 35.91 32.00 C 38.69 33.64 41.35 35.48 44.23 36.94 C 47.71 36.47 51.05 35.15 54.49 34.44 C 54.83 35.73 55.16 37.02 55.50 38.31 C 53.36 38.85 51.21 39.40 49.07 39.94 C 51.17 41.16 53.25 42.41 55.30 43.70 C 54.51 44.66 54.22 46.26 53.09 46.86 C 51.03 45.84 49.13 44.53 47.14 43.38 C 47.66 45.46 48.20 47.53 48.76 49.61 C 47.46 49.95 46.17 50.28 44.88 50.62 C 43.99 47.24 43.13 43.85 42.26 40.46 C 39.51 38.80 36.77 37.14 34.01 35.50 C 33.99 38.71 34.00 41.91 34.00 45.11 C 36.48 47.59 38.96 50.08 41.44 52.56 C 40.48 53.51 39.52 54.47 38.55 55.43 C 37.04 53.91 35.52 52.40 34.01 50.88 C 34.00 53.25 34.00 55.63 34.00 58.00 C 32.67 58.00 31.33 58.00 30.00 58.00 C 30.01 55.64 30.00 53.28 29.98 50.92 C 28.47 52.42 26.97 53.93 25.46 55.43 C 24.50 54.47 23.54 53.51 22.57 52.55 C 25.05 50.07 27.54 47.61 30.00 45.11 C 30.00 41.91 30.00 38.71 30.00 35.51 C 27.25 37.17 24.47 38.78 21.74 40.46 C 20.87 43.84 20.00 47.23 19.13 50.61 C 18.16 50.37 16.23 49.89 15.27 49.65 C 15.79 47.56 16.32 45.47 16.87 43.38 C 14.83 44.61 12.79 45.84 10.75 47.08 C 10.07 45.94 9.39 44.80 8.71 43.66 C 10.81 42.46 12.87 41.22 14.91 39.94 C 12.77 39.39 10.64 38.85 8.50 38.31 C 8.84 37.02 9.17 35.73 9.50 34.44 C 12.94 35.32 16.38 36.19 19.81 37.05 C 22.59 35.34 25.41 33.69 28.21 32.00 C 25.41 30.31 22.59 28.65 19.80 26.95 C 16.37 27.82 12.93 28.68 9.50 29.56 C 9.17 28.27 8.84 26.98 8.50 25.69 C 10.64 25.15 12.78 24.61 14.91 24.06 C 12.87 22.79 10.80 21.54 8.71 20.34 C 9.39 19.20 10.07 18.06 10.75 16.92 C 12.79 18.15 14.83 19.38 16.86 20.62 C 16.34 18.54 15.80 16.46 15.24 14.39 C 16.54 14.05 17.83 13.71 19.12 13.38 C 20.00 16.76 20.87 20.15 21.74 23.54 C 24.47 25.22 27.25 26.83 30.00 28.49 C 30.00 25.29 30.00 22.09 30.00 18.89 C 27.54 16.39 25.04 13.93 22.56 11.44 C 23.53 10.48 24.49 9.52 25.47 8.56 C 26.96 10.07 28.47 11.58 29.98 13.08 C 30.00 10.72 30.01 8.36 30.00 6.00 Z" />
</g>
</svg>
