<?xml version="1.0" encoding="UTF-8" ?>
<!DOCTYPE svg PUBLIC "-//W3C//DTD SVG 1.1//EN" "http://www.w3.org/Graphics/SVG/1.1/DTD/svg11.dtd">
<svg width="60pt" height="60pt" viewBox="0 0 60 60" version="1.1" xmlns="http://www.w3.org/2000/svg">
<g id="#ffffffff">
<path fill="#ffffff" opacity="1.00" d=" M 0.00 0.00 L 60.00 0.00 L 60.00 60.00 L 0.00 60.00 L 0.00 0.00 M 39.14 6.08 C 37.17 7.58 38.32 10.40 37.97 12.49 C 35.92 11.66 32.98 8.42 31.12 11.16 C 30.55 14.01 34.24 14.62 35.99 15.98 C 34.29 17.39 30.61 17.96 31.10 20.77 C 32.92 23.62 35.91 20.38 37.97 19.53 C 38.06 21.31 37.84 23.12 38.22 24.88 C 38.84 26.36 41.18 26.38 41.77 24.86 C 42.17 23.11 41.92 21.28 42.05 19.50 C 44.05 20.22 46.26 23.07 48.44 21.40 C 50.42 18.56 45.86 17.29 44.08 16.02 C 45.77 14.60 49.38 14.03 48.90 11.23 C 47.07 8.35 44.10 11.66 42.03 12.49 C 41.87 10.26 42.95 5.28 39.14 6.08 M 15.90 14.39 C 14.52 13.67 11.94 11.94 11.03 14.11 C 9.83 16.08 12.67 17.01 13.85 17.98 C 12.69 18.98 9.85 19.90 11.03 21.87 C 11.92 24.06 14.50 22.33 15.88 21.63 C 16.05 23.08 15.73 26.06 17.94 25.94 C 20.22 26.16 19.99 23.13 20.12 21.62 C 21.65 22.44 23.74 23.84 25.15 22.00 C 25.84 19.84 23.61 19.05 22.22 18.03 C 23.35 17.01 26.16 16.07 24.96 14.12 C 24.08 11.93 21.48 13.67 20.11 14.38 C 19.97 12.91 20.29 9.90 18.05 10.04 C 15.74 9.81 15.99 12.87 15.90 14.39 M 8.06 33.16 C 7.60 35.36 9.96 36.48 11.09 37.99 C 9.92 39.53 6.80 41.28 8.58 43.46 C 10.75 45.16 12.43 42.07 14.00 40.93 C 15.53 42.06 17.27 45.18 19.41 43.42 C 21.21 41.32 18.07 39.52 16.93 38.01 C 18.37 36.46 21.68 33.97 18.87 32.04 C 16.67 31.63 15.52 33.93 14.00 35.08 C 12.48 33.66 9.91 30.29 8.06 33.16 M 41.82 41.29 C 42.46 43.61 44.39 45.51 46.69 46.18 C 47.76 44.75 49.32 43.66 50.04 42.01 C 49.27 40.28 47.73 38.62 45.95 37.93 C 44.31 38.66 43.27 40.26 41.82 41.29 M 25.60 43.56 C 23.99 45.01 26.03 46.82 26.97 47.99 C 26.10 49.17 24.04 50.91 25.56 52.37 C 26.96 53.98 28.82 51.94 30.00 51.05 C 31.19 51.90 32.94 53.97 34.38 52.41 C 36.02 51.01 33.90 49.19 33.07 47.99 C 33.95 46.80 36.00 45.03 34.43 43.58 C 33.00 41.96 31.19 44.07 30.00 44.96 C 28.82 44.08 27.04 42.01 25.60 43.56 Z" />
</g>
<g id="#000000ff">
<path fill="#968176" opacity="1.00" d=" M 39.14 6.08 C 42.95 5.28 41.87 10.26 42.03 12.49 C 44.10 11.66 47.07 8.35 48.90 11.23 C 49.38 14.03 45.77 14.60 44.08 16.02 C 45.86 17.29 50.42 18.56 48.44 21.40 C 46.26 23.07 44.05 20.22 42.05 19.50 C 41.92 21.28 42.17 23.11 41.77 24.86 C 41.18 26.38 38.84 26.36 38.22 24.88 C 37.84 23.12 38.06 21.31 37.97 19.53 C 35.91 20.38 32.92 23.62 31.10 20.77 C 30.61 17.96 34.29 17.39 35.99 15.98 C 34.24 14.62 30.55 14.01 31.12 11.16 C 32.98 8.42 35.92 11.66 37.97 12.49 C 38.32 10.40 37.17 7.58 39.14 6.08 Z" />
<path fill="#968176" opacity="1.00" d=" M 15.90 14.39 C 15.99 12.87 15.74 9.81 18.05 10.04 C 20.29 9.90 19.97 12.91 20.11 14.38 C 21.48 13.67 24.08 11.93 24.96 14.12 C 26.16 16.07 23.35 17.01 22.22 18.03 C 23.61 19.05 25.84 19.84 25.15 22.00 C 23.74 23.84 21.65 22.44 20.12 21.62 C 19.99 23.13 20.22 26.16 17.94 25.94 C 15.73 26.06 16.05 23.08 15.88 21.63 C 14.50 22.33 11.92 24.06 11.03 21.87 C 9.85 19.90 12.69 18.98 13.85 17.98 C 12.67 17.01 9.83 16.08 11.03 14.11 C 11.94 11.94 14.52 13.67 15.90 14.39 Z" />
<path fill="#968176" opacity="1.00" d=" M 8.06 33.16 C 9.91 30.29 12.48 33.66 14.00 35.08 C 15.52 33.93 16.67 31.63 18.87 32.04 C 21.68 33.97 18.37 36.46 16.93 38.01 C 18.07 39.52 21.21 41.32 19.41 43.42 C 17.27 45.18 15.53 42.06 14.00 40.93 C 12.43 42.07 10.75 45.16 8.58 43.46 C 6.80 41.28 9.92 39.53 11.09 37.99 C 9.96 36.48 7.60 35.36 8.06 33.16 Z" />
<path fill="#968176" opacity="1.00" d=" M 41.82 41.29 C 43.27 40.26 44.31 38.66 45.95 37.93 C 47.73 38.62 49.27 40.28 50.04 42.01 C 49.32 43.66 47.76 44.75 46.69 46.18 C 44.39 45.51 42.46 43.61 41.82 41.29 Z" />
<path fill="#968176" opacity="1.00" d=" M 25.60 43.56 C 27.04 42.01 28.82 44.08 30.00 44.96 C 31.19 44.07 33.00 41.96 34.43 43.58 C 36.00 45.03 33.95 46.80 33.07 47.99 C 33.90 49.19 36.02 51.01 34.38 52.41 C 32.94 53.97 31.19 51.90 30.00 51.05 C 28.82 51.94 26.96 53.98 25.56 52.37 C 24.04 50.91 26.10 49.17 26.97 47.99 C 26.03 46.82 23.99 45.01 25.60 43.56 Z" />
</g>
</svg>
