<?xml version="1.0" encoding="UTF-8" ?>
<!DOCTYPE svg PUBLIC "-//W3C//DTD SVG 1.1//EN" "http://www.w3.org/Graphics/SVG/1.1/DTD/svg11.dtd">
<svg width="60pt" height="60pt" viewBox="0 0 60 60" version="1.1" xmlns="http://www.w3.org/2000/svg">
<g id="#ffffffff">
<path fill="#ffffff" opacity="1.00" d=" M 0.00 0.00 L 60.00 0.00 L 60.00 29.03 C 58.64 25.10 52.20 24.72 50.37 28.38 C 49.61 31.52 50.10 34.80 50.01 38.00 C 36.67 38.00 23.33 38.00 9.99 38.00 C 9.97 35.02 10.20 32.01 9.83 29.04 C 8.69 24.68 1.51 24.93 0.00 28.96 L 0.00 0.00 M 21.06 9.97 C 17.32 10.06 13.08 9.49 9.97 12.06 C 6.84 14.26 5.81 18.19 5.93 21.84 C 8.21 22.27 10.63 22.92 12.11 24.86 C 14.36 27.35 13.99 30.90 14.02 34.00 C 24.67 34.00 35.33 34.00 45.98 34.00 C 46.02 30.90 45.62 27.35 47.88 24.86 C 49.36 22.92 51.79 22.27 54.07 21.84 C 54.19 18.18 53.14 14.24 50.00 12.03 C 46.90 9.50 42.71 10.05 38.99 9.97 C 34.34 4.85 25.68 4.78 21.06 9.97 Z" />
<path fill="#ffffff" opacity="1.00" d=" M 29.17 16.10 C 31.60 15.15 33.14 18.79 30.82 19.89 C 28.39 20.85 26.87 17.21 29.17 16.10 Z" />
<path fill="#ffffff" opacity="1.00" d=" M 17.16 18.10 C 19.55 17.09 21.21 20.88 18.77 21.83 C 16.43 22.95 14.86 19.14 17.16 18.10 Z" />
<path fill="#ffffff" opacity="1.00" d=" M 41.12 18.11 C 43.53 17.10 45.13 20.69 42.87 21.89 C 40.44 22.87 38.87 19.30 41.12 18.11 Z" />
<path fill="#ffffff" opacity="1.00" d=" M 0.00 30.55 C 0.59 31.64 1.23 32.71 1.92 33.74 C 2.25 39.44 1.65 45.18 2.21 50.86 C 4.09 53.80 6.74 50.41 6.21 48.00 C 22.07 48.00 37.93 48.00 53.80 48.00 C 54.14 49.34 53.84 51.10 55.23 51.92 C 56.51 52.32 58.03 51.44 57.91 50.00 C 58.19 44.57 57.87 39.13 58.04 33.70 C 58.72 32.78 59.38 31.85 60.00 30.88 L 60.00 60.00 L 0.00 60.00 L 0.00 30.55 Z" />
</g>
<g id="#000000ff">
<path fill="#000000" opacity="1.00" d=" M 21.06 9.97 C 25.68 4.78 34.34 4.85 38.99 9.97 C 42.71 10.05 46.90 9.50 50.00 12.03 C 53.14 14.24 54.19 18.18 54.07 21.84 C 51.79 22.27 49.36 22.92 47.88 24.86 C 45.62 27.35 46.02 30.90 45.98 34.00 C 35.33 34.00 24.67 34.00 14.02 34.00 C 13.99 30.90 14.36 27.35 12.11 24.86 C 10.63 22.92 8.21 22.27 5.93 21.84 C 5.81 18.19 6.84 14.26 9.97 12.06 C 13.08 9.49 17.32 10.06 21.06 9.97 M 29.17 16.10 C 26.87 17.21 28.39 20.85 30.82 19.89 C 33.14 18.79 31.60 15.15 29.17 16.10 M 17.16 18.10 C 14.86 19.14 16.43 22.95 18.77 21.83 C 21.21 20.88 19.55 17.09 17.16 18.10 M 41.12 18.11 C 38.87 19.30 40.44 22.87 42.87 21.89 C 45.13 20.69 43.53 17.10 41.12 18.11 Z" />
<path fill="#000000" opacity="1.00" d=" M 0.00 28.96 C 1.51 24.93 8.69 24.68 9.83 29.04 C 10.20 32.01 9.97 35.02 9.99 38.00 C 23.33 38.00 36.67 38.00 50.01 38.00 C 50.10 34.80 49.61 31.52 50.37 28.38 C 52.20 24.72 58.64 25.10 60.00 29.03 L 60.00 30.88 C 59.38 31.85 58.72 32.78 58.04 33.70 C 57.87 39.13 58.19 44.57 57.91 50.00 C 58.03 51.44 56.51 52.32 55.23 51.92 C 53.84 51.10 54.14 49.34 53.80 48.00 C 37.93 48.00 22.07 48.00 6.21 48.00 C 6.74 50.41 4.09 53.80 2.21 50.86 C 1.65 45.18 2.25 39.44 1.92 33.74 C 1.23 32.71 0.59 31.64 0.00 30.55 L 0.00 28.96 Z" />
</g>
</svg>
