<?xml version="1.0" encoding="UTF-8" ?>
<!DOCTYPE svg PUBLIC "-//W3C//DTD SVG 1.1//EN" "http://www.w3.org/Graphics/SVG/1.1/DTD/svg11.dtd">
<svg width="64pt" height="64pt" viewBox="0 0 64 64" version="1.1" xmlns="http://www.w3.org/2000/svg">
<g id="#ffffffff">
<path fill="#ffffff" opacity="1.00" d=" M 0.00 0.00 L 64.00 0.00 L 64.00 64.00 L 0.00 64.00 L 0.00 0.00 M 7.81 15.73 C 5.42 17.90 6.11 21.38 5.95 24.25 C 3.93 25.48 1.93 27.32 2.04 29.90 C 1.93 37.27 2.04 44.63 2.00 52.00 C 3.33 52.00 4.67 52.00 6.00 52.00 C 6.00 50.67 6.00 49.33 6.00 48.00 C 23.33 48.00 40.67 48.00 58.00 48.00 C 58.00 49.33 58.00 50.67 58.00 52.00 C 59.33 52.00 60.67 52.00 62.00 52.00 C 61.96 44.62 62.07 37.24 61.96 29.86 C 62.04 27.30 60.06 25.48 58.05 24.25 C 58.44 20.37 57.90 14.85 53.10 14.14 C 40.73 13.79 28.33 14.12 15.95 13.98 C 13.20 14.07 9.91 13.50 7.81 15.73 Z" />
<path fill="#ffffff" opacity="1.00" d=" M 10.00 24.24 C 10.30 22.28 8.96 18.32 11.91 18.08 C 25.29 17.94 38.69 17.94 52.07 18.08 C 55.03 18.31 53.70 22.28 54.00 24.23 C 50.10 25.91 49.59 30.27 49.98 34.00 C 37.99 34.00 26.01 34.00 14.02 34.00 C 14.42 30.27 13.89 25.92 10.00 24.24 Z" />
<path fill="#ffffff" opacity="1.00" d=" M 6.17 29.10 C 6.91 27.64 9.15 27.64 9.83 29.14 C 10.18 32.08 9.96 35.05 9.99 38.00 C 24.66 38.00 39.34 38.00 54.01 38.00 C 54.03 35.05 53.83 32.08 54.17 29.14 C 54.86 27.62 57.18 27.63 57.84 29.18 C 58.23 34.10 57.89 39.06 58.00 44.00 C 40.67 44.00 23.33 44.00 6.00 44.00 C 6.12 39.03 5.75 34.05 6.17 29.10 Z" />
</g>
<g id="#000000ff">
<path fill="#000000" opacity="1.00" d=" M 7.81 15.73 C 9.91 13.50 13.20 14.07 15.95 13.98 C 28.33 14.12 40.73 13.79 53.10 14.14 C 57.90 14.85 58.44 20.37 58.05 24.25 C 60.06 25.48 62.04 27.30 61.96 29.86 C 62.07 37.24 61.96 44.62 62.00 52.00 C 60.67 52.00 59.33 52.00 58.00 52.00 C 58.00 50.67 58.00 49.33 58.00 48.00 C 40.67 48.00 23.33 48.00 6.00 48.00 C 6.00 49.33 6.00 50.67 6.00 52.00 C 4.67 52.00 3.33 52.00 2.00 52.00 C 2.04 44.63 1.93 37.27 2.04 29.90 C 1.93 27.32 3.93 25.48 5.95 24.25 C 6.11 21.38 5.42 17.90 7.81 15.73 M 10.00 24.24 C 13.89 25.92 14.42 30.27 14.02 34.00 C 26.01 34.00 37.99 34.00 49.98 34.00 C 49.59 30.27 50.10 25.91 54.00 24.23 C 53.70 22.28 55.03 18.31 52.07 18.08 C 38.69 17.94 25.29 17.94 11.91 18.08 C 8.96 18.32 10.30 22.28 10.00 24.24 M 6.17 29.10 C 5.75 34.05 6.12 39.03 6.00 44.00 C 23.33 44.00 40.67 44.00 58.00 44.00 C 57.89 39.06 58.23 34.10 57.84 29.18 C 57.18 27.63 54.86 27.62 54.17 29.14 C 53.83 32.08 54.03 35.05 54.01 38.00 C 39.34 38.00 24.66 38.00 9.99 38.00 C 9.96 35.05 10.18 32.08 9.83 29.14 C 9.15 27.64 6.91 27.64 6.17 29.10 Z" />
</g>
</svg>
