<?xml version="1.0" encoding="UTF-8" ?>
<!DOCTYPE svg PUBLIC "-//W3C//DTD SVG 1.1//EN" "http://www.w3.org/Graphics/SVG/1.1/DTD/svg11.dtd">
<svg width="60pt" height="60pt" viewBox="0 0 60 60" version="1.1" xmlns="http://www.w3.org/2000/svg">
<g id="#ffffffff">
<path fill="#ffffff" opacity="1.00" d=" M 0.00 0.00 L 60.00 0.00 L 60.00 60.00 L 0.00 60.00 L 0.00 0.00 M 19.71 5.97 C 19.12 7.74 18.62 9.53 18.20 11.34 C 14.37 12.53 10.45 11.65 6.81 10.28 C 4.88 9.05 2.89 12.07 4.60 13.39 C 9.80 16.60 16.44 16.60 22.00 14.29 C 27.11 16.45 32.89 16.44 38.00 14.29 C 42.46 16.05 47.50 16.62 52.07 14.92 C 53.72 14.33 56.61 13.63 55.88 11.25 C 54.72 8.92 52.09 10.80 50.34 11.17 C 46.25 12.83 41.88 11.48 38.00 9.95 C 36.53 10.45 35.06 10.95 33.59 11.46 C 33.73 9.64 33.89 7.82 34.05 6.01 C 29.27 5.98 24.49 6.03 19.71 5.97 M 18.94 19.24 C 19.54 23.16 20.45 27.09 20.11 31.08 C 19.88 34.15 18.46 36.97 18.02 40.00 C 17.78 42.56 20.74 44.24 23.01 43.89 C 29.30 43.04 35.63 44.61 41.92 43.72 C 43.40 43.47 44.68 41.81 43.61 40.43 C 40.05 38.95 36.38 37.75 32.79 36.33 C 31.73 35.80 29.91 35.62 29.89 34.09 C 29.94 29.37 30.76 24.70 31.54 20.06 C 27.25 20.50 23.14 17.78 18.94 19.24 M 4.18 45.12 C 4.12 47.28 2.87 51.56 5.98 51.93 C 21.32 52.11 36.67 51.93 52.01 52.01 C 53.34 51.87 55.16 52.35 55.83 50.80 C 56.14 48.93 56.13 47.00 55.82 45.13 C 54.41 43.15 51.56 44.30 49.50 44.00 C 48.28 45.98 46.50 47.95 43.98 47.92 C 35.32 48.06 26.64 48.06 17.98 47.92 C 15.49 47.94 13.72 45.99 12.51 44.03 C 9.82 44.38 6.20 42.93 4.18 45.12 Z" />
</g>
<g id="#000000ff">
<path fill="#968176" opacity="1.00" d=" M 19.71 5.97 C 24.49 6.03 29.27 5.98 34.05 6.01 C 33.89 7.82 33.73 9.64 33.59 11.46 C 35.06 10.95 36.53 10.45 38.00 9.95 C 41.88 11.48 46.25 12.83 50.34 11.17 C 52.09 10.80 54.72 8.92 55.88 11.25 C 56.61 13.63 53.72 14.33 52.07 14.92 C 47.50 16.62 42.46 16.05 38.00 14.29 C 32.89 16.44 27.11 16.45 22.00 14.29 C 16.44 16.60 9.80 16.60 4.60 13.39 C 2.89 12.07 4.88 9.05 6.81 10.28 C 10.45 11.65 14.37 12.53 18.20 11.34 C 18.62 9.53 19.12 7.74 19.71 5.97 Z" />
<path fill="#968176" opacity="1.00" d=" M 18.94 19.24 C 23.14 17.78 27.25 20.50 31.54 20.06 C 30.76 24.70 29.94 29.37 29.89 34.09 C 29.91 35.62 31.73 35.80 32.79 36.33 C 36.38 37.75 40.05 38.95 43.61 40.43 C 44.68 41.81 43.40 43.47 41.92 43.72 C 35.63 44.61 29.30 43.04 23.01 43.89 C 20.74 44.24 17.78 42.56 18.02 40.00 C 18.46 36.97 19.88 34.15 20.11 31.08 C 20.45 27.09 19.54 23.16 18.94 19.24 Z" />
<path fill="#968176" opacity="1.00" d=" M 4.18 45.12 C 6.20 42.93 9.82 44.38 12.51 44.03 C 13.72 45.99 15.49 47.94 17.98 47.92 C 26.64 48.06 35.32 48.06 43.98 47.92 C 46.50 47.95 48.28 45.98 49.50 44.00 C 51.56 44.30 54.41 43.15 55.82 45.13 C 56.13 47.00 56.14 48.93 55.83 50.80 C 55.16 52.35 53.34 51.87 52.01 52.01 C 36.67 51.93 21.32 52.11 5.98 51.93 C 2.87 51.56 4.12 47.28 4.18 45.12 Z" />
</g>
</svg>
