<?xml version="1.0" encoding="UTF-8" ?>
<!DOCTYPE svg PUBLIC "-//W3C//DTD SVG 1.1//EN" "http://www.w3.org/Graphics/SVG/1.1/DTD/svg11.dtd">
<svg width="64pt" height="64pt" viewBox="0 0 64 64" version="1.1" xmlns="http://www.w3.org/2000/svg">
<g id="#ffffffff">
<path fill="#ffffff" opacity="1.00" d=" M 0.00 0.00 L 64.00 0.00 L 64.00 64.00 L 0.00 64.00 L 0.00 0.00 M 7.44 11.93 C 8.90 17.05 10.67 22.52 14.80 26.15 C 17.89 28.70 22.37 28.31 25.60 26.25 C 24.71 25.26 23.82 24.27 22.92 23.29 C 21.27 23.66 19.36 24.55 17.80 23.40 C 14.81 21.12 13.60 17.36 12.25 14.01 C 16.10 12.43 20.81 10.93 24.67 13.27 C 26.75 14.38 27.50 16.68 28.15 18.78 C 25.05 16.91 21.89 15.15 18.49 13.91 C 18.18 14.85 17.57 16.73 17.26 17.67 C 21.49 19.41 25.97 21.48 28.60 25.41 C 30.35 27.92 29.94 31.11 30.04 34.00 C 23.36 34.00 16.68 34.00 10.00 34.00 C 10.00 35.33 10.00 36.67 10.00 38.00 C 24.67 38.00 39.33 38.00 54.00 38.00 C 54.00 36.67 54.00 35.33 54.00 34.00 C 47.25 33.99 40.51 34.02 33.76 33.98 C 34.71 28.18 40.48 25.27 45.22 22.89 C 44.69 21.65 44.15 20.42 43.60 19.19 C 42.27 19.90 40.92 20.58 39.56 21.22 C 41.51 16.51 47.27 18.47 50.82 19.85 C 49.46 21.76 48.30 23.92 46.42 25.39 C 44.12 26.04 41.72 26.51 39.88 28.18 C 42.42 30.63 46.56 30.56 49.18 28.29 C 52.35 25.50 54.44 21.75 56.59 18.18 C 51.72 15.36 45.63 12.46 40.06 15.07 C 36.74 16.55 35.43 20.34 35.94 23.76 C 35.11 24.58 34.28 25.39 33.44 26.21 C 32.70 24.84 31.96 23.48 31.23 22.12 C 32.87 17.45 30.92 11.99 26.49 9.68 C 20.37 6.26 13.09 8.75 7.44 11.93 M 19.14 40.11 C 16.91 41.21 18.35 44.78 20.74 43.91 C 23.19 42.89 21.61 39.11 19.14 40.11 M 43.19 40.10 C 40.84 41.19 42.41 44.89 44.85 43.89 C 47.11 42.74 45.60 39.17 43.19 40.10 M 31.20 42.10 C 28.81 43.07 30.46 46.98 32.75 45.82 C 35.20 44.94 33.59 41.10 31.20 42.10 M 13.13 46.12 C 10.87 47.25 12.43 50.87 14.83 49.88 C 17.16 48.77 15.56 45.11 13.13 46.12 M 25.19 46.18 C 22.80 47.14 24.44 50.90 26.82 49.89 C 29.17 48.87 27.55 45.03 25.19 46.18 M 37.16 46.11 C 34.86 47.16 36.41 50.88 38.77 49.85 C 41.21 48.90 39.57 45.10 37.16 46.11 M 49.22 46.16 C 46.79 47.09 48.42 50.91 50.80 49.86 C 53.20 48.89 51.54 45.06 49.22 46.16 M 19.22 52.10 C 16.82 53.15 18.43 56.90 20.84 55.89 C 23.11 54.77 21.62 51.19 19.22 52.10 M 31.24 52.14 C 28.79 53.07 30.41 56.90 32.80 55.87 C 35.17 54.90 33.58 51.09 31.24 52.14 M 43.19 52.09 C 40.86 53.19 42.40 56.86 44.82 55.89 C 47.13 54.78 45.59 51.16 43.19 52.09 Z" />
</g>
<g id="#000000ff">
<path fill="#000000" opacity="1.00" d=" M 7.44 11.93 C 13.09 8.75 20.37 6.26 26.49 9.68 C 30.92 11.99 32.87 17.45 31.23 22.12 C 31.96 23.48 32.70 24.84 33.44 26.21 C 34.28 25.39 35.11 24.58 35.94 23.76 C 35.43 20.34 36.74 16.55 40.06 15.07 C 45.63 12.46 51.72 15.36 56.59 18.18 C 54.44 21.75 52.35 25.50 49.18 28.29 C 46.56 30.56 42.42 30.63 39.88 28.18 C 41.72 26.51 44.12 26.04 46.42 25.39 C 48.30 23.92 49.46 21.76 50.82 19.85 C 47.27 18.47 41.51 16.51 39.56 21.22 C 40.92 20.58 42.27 19.90 43.60 19.19 C 44.15 20.42 44.69 21.65 45.22 22.89 C 40.48 25.27 34.71 28.18 33.76 33.98 C 40.51 34.02 47.25 33.99 54.00 34.00 C 54.00 35.33 54.00 36.67 54.00 38.00 C 39.33 38.00 24.67 38.00 10.00 38.00 C 10.00 36.67 10.00 35.33 10.00 34.00 C 16.68 34.00 23.36 34.00 30.04 34.00 C 29.94 31.11 30.35 27.92 28.60 25.41 C 25.97 21.48 21.49 19.41 17.26 17.67 C 17.57 16.73 18.18 14.85 18.49 13.91 C 21.89 15.15 25.05 16.91 28.15 18.78 C 27.50 16.68 26.75 14.38 24.67 13.27 C 20.81 10.93 16.10 12.43 12.25 14.01 C 13.60 17.36 14.81 21.12 17.80 23.40 C 19.36 24.55 21.27 23.66 22.92 23.29 C 23.82 24.27 24.71 25.26 25.60 26.25 C 22.37 28.31 17.89 28.70 14.80 26.15 C 10.67 22.52 8.90 17.05 7.44 11.93 Z" />
<path fill="#000000" opacity="1.00" d=" M 19.14 40.11 C 21.61 39.11 23.19 42.89 20.74 43.91 C 18.35 44.78 16.91 41.21 19.14 40.11 Z" />
<path fill="#000000" opacity="1.00" d=" M 43.19 40.10 C 45.60 39.17 47.11 42.74 44.85 43.89 C 42.41 44.89 40.84 41.19 43.19 40.10 Z" />
<path fill="#000000" opacity="1.00" d=" M 31.20 42.10 C 33.59 41.10 35.20 44.94 32.75 45.82 C 30.46 46.98 28.81 43.07 31.20 42.10 Z" />
<path fill="#000000" opacity="1.00" d=" M 13.13 46.12 C 15.56 45.11 17.16 48.77 14.83 49.88 C 12.43 50.87 10.87 47.25 13.13 46.12 Z" />
<path fill="#000000" opacity="1.00" d=" M 25.19 46.18 C 27.55 45.03 29.17 48.87 26.82 49.89 C 24.44 50.90 22.80 47.14 25.19 46.18 Z" />
<path fill="#000000" opacity="1.00" d=" M 37.16 46.11 C 39.57 45.10 41.21 48.90 38.77 49.85 C 36.41 50.88 34.86 47.16 37.16 46.11 Z" />
<path fill="#000000" opacity="1.00" d=" M 49.22 46.16 C 51.54 45.06 53.20 48.89 50.80 49.86 C 48.42 50.91 46.79 47.09 49.22 46.16 Z" />
<path fill="#000000" opacity="1.00" d=" M 19.22 52.10 C 21.62 51.19 23.11 54.77 20.84 55.89 C 18.43 56.90 16.82 53.15 19.22 52.10 Z" />
<path fill="#000000" opacity="1.00" d=" M 31.24 52.14 C 33.58 51.09 35.17 54.90 32.80 55.87 C 30.41 56.90 28.79 53.07 31.24 52.14 Z" />
<path fill="#000000" opacity="1.00" d=" M 43.19 52.09 C 45.59 51.16 47.13 54.78 44.82 55.89 C 42.40 56.86 40.86 53.19 43.19 52.09 Z" />
</g>
</svg>
