<?xml version="1.0" encoding="UTF-8" ?>
<!DOCTYPE svg PUBLIC "-//W3C//DTD SVG 1.1//EN" "http://www.w3.org/Graphics/SVG/1.1/DTD/svg11.dtd">
<svg width="60pt" height="60pt" viewBox="0 0 60 60" version="1.1" xmlns="http://www.w3.org/2000/svg">
<g id="#ffffffff">
<path fill="#ffffff" opacity="1.00" d=" M 0.00 0.00 L 60.00 0.00 L 60.00 60.00 L 0.00 60.00 L 0.00 0.00 M 29.16 2.07 C 27.02 3.46 27.51 8.81 30.79 7.91 C 33.00 6.53 32.50 1.12 29.16 2.07 M 17.17 7.27 C 14.85 10.14 21.68 14.64 22.16 9.98 C 21.46 8.19 19.18 5.50 17.17 7.27 M 40.21 7.08 C 38.85 8.04 36.94 9.89 38.45 11.56 C 40.13 13.04 41.93 11.16 42.89 9.82 C 44.52 8.28 41.77 5.48 40.21 7.08 M 22.12 21.95 C 27.38 22.03 32.65 22.03 37.92 21.95 C 38.87 17.08 35.12 11.84 29.99 12.01 C 24.87 11.86 21.08 17.09 22.12 21.95 M 13.20 18.18 C 11.66 18.74 11.61 21.13 13.11 21.78 C 14.81 22.24 17.81 22.43 18.03 20.03 C 17.90 17.61 14.91 17.77 13.20 18.18 M 43.16 18.19 C 42.91 18.46 42.43 18.98 42.19 19.24 C 40.80 23.04 49.08 23.14 47.92 19.25 C 47.00 17.54 44.74 17.90 43.16 18.19 M 11.20 26.15 C 9.75 26.86 9.98 28.75 9.57 30.06 C 8.48 37.05 6.77 43.96 5.99 50.99 C 5.55 52.80 7.03 54.40 8.87 53.99 C 23.24 53.97 37.62 54.08 51.99 53.94 C 54.50 53.97 54.10 50.82 53.86 49.15 C 52.51 41.84 51.34 34.48 49.79 27.21 C 49.26 25.60 47.32 26.14 46.05 25.99 C 34.44 26.12 22.80 25.79 11.20 26.15 Z" />
<path fill="#ffffff" opacity="1.00" d=" M 10.03 50.00 C 11.24 43.33 12.45 36.66 13.67 30.00 C 24.56 30.00 35.44 30.00 46.33 30.00 C 47.55 36.66 48.76 43.33 49.97 50.00 C 36.66 50.00 23.34 50.00 10.03 50.00 M 17.19 38.00 C 19.12 38.00 21.05 38.00 22.98 38.00 C 23.11 36.67 23.24 35.33 23.37 34.00 C 21.51 34.00 19.65 34.00 17.79 34.00 C 17.59 35.33 17.39 36.66 17.19 38.00 M 26.64 34.01 C 26.51 35.34 26.38 36.67 26.25 38.00 C 28.75 38.00 31.24 38.00 33.73 38.00 C 33.62 36.68 33.51 35.36 33.39 34.05 C 31.14 34.00 28.89 33.99 26.64 34.01 M 36.62 34.00 C 36.75 35.33 36.89 36.67 37.02 38.00 C 38.95 38.00 40.88 38.00 42.81 38.00 C 42.61 36.67 42.41 35.33 42.21 34.00 C 40.35 34.00 38.48 34.00 36.62 34.00 M 16.58 42.02 C 16.39 43.35 16.20 44.67 16.01 46.00 C 18.07 46.00 20.13 46.00 22.19 46.00 C 22.33 44.66 22.46 43.33 22.59 42.00 C 20.59 41.99 18.58 42.01 16.58 42.02 M 25.86 42.00 C 25.72 43.33 25.59 44.67 25.46 46.00 C 28.49 46.00 31.51 46.00 34.54 46.00 C 34.40 44.67 34.27 43.33 34.14 42.00 C 31.38 42.00 28.62 42.00 25.86 42.00 M 37.41 42.00 C 37.54 43.33 37.67 44.66 37.80 46.00 C 39.87 46.00 41.93 46.00 43.99 46.00 C 43.80 44.67 43.61 43.34 43.42 42.01 C 41.41 42.01 39.41 42.00 37.41 42.00 Z" />
</g>
<g id="#000000ff">
<path fill="#000000" opacity="1.00" d=" M 29.16 2.07 C 32.50 1.12 33.00 6.53 30.79 7.91 C 27.51 8.81 27.02 3.46 29.16 2.07 Z" />
<path fill="#000000" opacity="1.00" d=" M 17.17 7.27 C 19.18 5.50 21.46 8.19 22.16 9.98 C 21.68 14.64 14.85 10.14 17.17 7.27 Z" />
<path fill="#000000" opacity="1.00" d=" M 40.21 7.08 C 41.77 5.48 44.52 8.28 42.89 9.82 C 41.93 11.16 40.13 13.04 38.45 11.56 C 36.94 9.89 38.85 8.04 40.21 7.08 Z" />
<path fill="#000000" opacity="1.00" d=" M 22.12 21.95 C 21.08 17.09 24.87 11.86 29.99 12.01 C 35.12 11.84 38.87 17.08 37.92 21.95 C 32.65 22.03 27.38 22.03 22.12 21.95 Z" />
<path fill="#000000" opacity="1.00" d=" M 13.20 18.18 C 14.91 17.77 17.90 17.61 18.03 20.03 C 17.81 22.43 14.81 22.24 13.11 21.78 C 11.61 21.13 11.66 18.74 13.20 18.18 Z" />
<path fill="#000000" opacity="1.00" d=" M 43.16 18.19 C 44.74 17.90 47.00 17.54 47.92 19.25 C 49.08 23.14 40.80 23.04 42.19 19.24 C 42.43 18.98 42.91 18.46 43.16 18.19 Z" />
<path fill="#000000" opacity="1.00" d=" M 11.20 26.15 C 22.80 25.79 34.44 26.12 46.05 25.99 C 47.32 26.14 49.26 25.60 49.79 27.21 C 51.34 34.48 52.51 41.84 53.86 49.15 C 54.10 50.82 54.50 53.97 51.99 53.94 C 37.62 54.08 23.24 53.97 8.87 53.99 C 7.03 54.40 5.55 52.80 5.99 50.99 C 6.77 43.96 8.48 37.05 9.57 30.06 C 9.98 28.75 9.75 26.86 11.20 26.15 M 10.03 50.00 C 23.34 50.00 36.66 50.00 49.97 50.00 C 48.76 43.33 47.55 36.66 46.33 30.00 C 35.44 30.00 24.56 30.00 13.67 30.00 C 12.45 36.66 11.24 43.33 10.03 50.00 Z" />
<path fill="#000000" opacity="1.00" d=" M 17.19 38.00 C 17.39 36.66 17.59 35.33 17.79 34.00 C 19.65 34.00 21.51 34.00 23.37 34.00 C 23.24 35.33 23.11 36.67 22.98 38.00 C 21.05 38.00 19.12 38.00 17.19 38.00 Z" />
<path fill="#000000" opacity="1.00" d=" M 26.64 34.01 C 28.89 33.99 31.14 34.00 33.39 34.05 C 33.51 35.36 33.62 36.68 33.73 38.00 C 31.24 38.00 28.75 38.00 26.25 38.00 C 26.38 36.67 26.51 35.34 26.64 34.01 Z" />
<path fill="#000000" opacity="1.00" d=" M 36.62 34.00 C 38.48 34.00 40.35 34.00 42.21 34.00 C 42.41 35.33 42.61 36.67 42.81 38.00 C 40.88 38.00 38.95 38.00 37.02 38.00 C 36.89 36.67 36.75 35.33 36.62 34.00 Z" />
<path fill="#000000" opacity="1.00" d=" M 16.58 42.02 C 18.58 42.01 20.59 41.99 22.59 42.00 C 22.46 43.33 22.33 44.66 22.19 46.00 C 20.13 46.00 18.07 46.00 16.01 46.00 C 16.20 44.67 16.39 43.35 16.58 42.02 Z" />
<path fill="#000000" opacity="1.00" d=" M 25.86 42.00 C 28.62 42.00 31.38 42.00 34.14 42.00 C 34.27 43.33 34.40 44.67 34.54 46.00 C 31.51 46.00 28.49 46.00 25.46 46.00 C 25.59 44.67 25.72 43.33 25.86 42.00 Z" />
<path fill="#000000" opacity="1.00" d=" M 37.41 42.00 C 39.41 42.00 41.41 42.01 43.42 42.01 C 43.61 43.34 43.80 44.67 43.99 46.00 C 41.93 46.00 39.87 46.00 37.80 46.00 C 37.67 44.66 37.54 43.33 37.41 42.00 Z" />
</g>
</svg>
