<?xml version="1.0" encoding="UTF-8" ?>
<!DOCTYPE svg PUBLIC "-//W3C//DTD SVG 1.1//EN" "http://www.w3.org/Graphics/SVG/1.1/DTD/svg11.dtd">
<svg width="64pt" height="64pt" viewBox="0 0 64 64" version="1.1" xmlns="http://www.w3.org/2000/svg">
<g id="#ffffffff">
<path fill="#ffffff" opacity="1.00" d=" M 0.00 0.00 L 64.00 0.00 L 64.00 64.00 L 0.00 64.00 L 0.00 0.00 M 41.99 10.11 C 40.75 10.56 39.52 11.03 38.28 11.51 C 36.16 9.97 34.22 5.39 31.19 7.25 C 29.47 10.28 33.96 12.15 35.52 14.24 C 35.06 15.49 34.58 16.74 34.14 18.00 C 31.54 18.41 28.01 16.94 26.09 19.19 C 25.59 23.56 31.57 21.58 34.17 22.00 C 34.27 23.45 36.39 25.44 34.66 26.53 C 33.31 28.38 29.48 30.07 31.20 32.75 C 34.24 34.55 36.15 30.06 38.24 28.51 C 39.49 28.96 40.74 29.43 42.00 29.88 C 41.92 34.89 42.17 39.91 41.89 44.92 C 41.65 45.17 41.19 45.66 40.96 45.90 C 36.70 46.16 32.42 45.93 28.16 46.00 C 28.06 42.94 26.67 39.69 23.62 38.54 C 20.64 37.58 17.43 38.14 14.35 37.98 C 13.56 36.91 12.78 35.52 11.21 36.07 C 9.20 37.32 10.30 40.06 9.96 42.00 C 7.41 42.37 4.02 41.00 2.10 43.16 C 1.53 47.50 7.42 45.61 10.00 46.00 C 10.00 47.33 10.00 48.67 10.00 50.00 C 7.45 50.39 3.97 48.96 2.11 51.19 C 1.54 55.49 7.40 53.62 9.96 54.00 C 9.99 56.38 9.31 60.40 12.95 60.09 C 13.26 59.56 13.88 58.51 14.19 57.99 C 17.30 57.88 20.54 58.41 23.56 57.48 C 26.64 56.35 28.06 53.08 28.16 50.00 C 32.46 49.93 36.77 50.14 41.07 49.91 C 43.91 49.67 46.13 46.89 45.97 44.08 C 46.07 39.35 45.96 34.61 46.00 29.87 C 47.26 29.43 48.51 28.96 49.77 28.51 C 51.85 30.07 53.67 34.42 56.72 32.83 C 58.58 29.75 53.99 27.81 52.46 25.61 C 52.95 24.41 53.42 23.21 53.89 22.01 C 56.48 21.61 59.97 23.04 61.90 20.82 C 62.44 16.45 56.48 18.41 53.88 17.99 C 53.42 16.77 52.95 15.55 52.47 14.34 C 53.98 12.20 58.44 10.34 56.84 7.30 C 53.82 5.32 51.84 9.98 49.72 11.51 C 48.48 11.03 47.25 10.56 46.01 10.11 C 45.57 7.53 47.10 3.96 44.80 2.10 C 40.42 1.52 42.44 7.54 41.99 10.11 Z" />
<path fill="#ffffff" opacity="1.00" d=" M 41.38 14.48 C 45.67 12.37 51.03 16.37 49.89 21.10 C 49.43 25.49 43.67 27.49 40.33 24.87 C 36.89 22.34 37.42 16.23 41.38 14.48 Z" />
<path fill="#ffffff" opacity="1.00" d=" M 14.00 42.01 C 16.66 42.04 19.34 41.80 21.98 42.21 C 24.44 42.97 23.95 46.00 24.05 48.00 C 23.94 49.96 24.44 52.96 22.04 53.76 C 19.39 54.23 16.68 53.94 14.00 53.99 C 14.00 50.00 14.00 46.00 14.00 42.01 Z" />
</g>
<g id="#000000ff">
<path fill="#000000" opacity="1.00" d=" M 41.99 10.11 C 42.44 7.54 40.42 1.52 44.80 2.10 C 47.10 3.96 45.57 7.53 46.01 10.11 C 47.25 10.56 48.48 11.03 49.72 11.51 C 51.84 9.98 53.82 5.32 56.84 7.30 C 58.44 10.34 53.98 12.20 52.47 14.34 C 52.95 15.55 53.42 16.77 53.88 17.99 C 56.48 18.41 62.44 16.45 61.90 20.82 C 59.97 23.04 56.48 21.61 53.89 22.01 C 53.42 23.21 52.95 24.41 52.46 25.61 C 53.99 27.81 58.58 29.75 56.72 32.83 C 53.67 34.42 51.85 30.07 49.77 28.51 C 48.51 28.96 47.26 29.43 46.00 29.87 C 45.96 34.61 46.07 39.35 45.97 44.08 C 46.13 46.89 43.91 49.67 41.07 49.91 C 36.77 50.14 32.46 49.93 28.16 50.00 C 28.06 53.08 26.64 56.35 23.56 57.48 C 20.54 58.41 17.30 57.88 14.19 57.99 C 13.88 58.51 13.26 59.56 12.95 60.09 C 9.31 60.40 9.99 56.38 9.96 54.00 C 7.40 53.62 1.54 55.49 2.11 51.19 C 3.97 48.96 7.45 50.39 10.00 50.00 C 10.00 48.67 10.00 47.33 10.00 46.00 C 7.42 45.61 1.53 47.50 2.10 43.16 C 4.02 41.00 7.41 42.37 9.96 42.00 C 10.30 40.06 9.20 37.32 11.21 36.07 C 12.78 35.52 13.56 36.91 14.35 37.98 C 17.43 38.14 20.64 37.58 23.62 38.54 C 26.67 39.69 28.06 42.94 28.16 46.00 C 32.42 45.93 36.70 46.16 40.96 45.90 C 41.19 45.66 41.65 45.17 41.89 44.92 C 42.17 39.91 41.92 34.89 42.00 29.88 C 40.74 29.43 39.49 28.96 38.24 28.51 C 36.15 30.06 34.24 34.55 31.20 32.75 C 29.48 30.07 33.31 28.38 34.66 26.53 C 36.39 25.44 34.27 23.45 34.17 22.00 C 31.57 21.58 25.59 23.56 26.09 19.19 C 28.01 16.94 31.54 18.41 34.14 18.00 C 34.58 16.74 35.06 15.49 35.52 14.24 C 33.96 12.15 29.47 10.28 31.19 7.25 C 34.22 5.39 36.16 9.97 38.28 11.51 C 39.52 11.03 40.75 10.56 41.99 10.11 M 41.38 14.48 C 37.42 16.23 36.89 22.34 40.33 24.87 C 43.67 27.49 49.43 25.49 49.89 21.10 C 51.03 16.37 45.67 12.37 41.38 14.48 M 14.00 42.01 C 14.00 46.00 14.00 50.00 14.00 53.99 C 16.68 53.94 19.39 54.23 22.04 53.76 C 24.44 52.96 23.94 49.96 24.05 48.00 C 23.95 46.00 24.44 42.97 21.98 42.21 C 19.34 41.80 16.66 42.04 14.00 42.01 Z" />
</g>
</svg>
