<?xml version="1.0" encoding="UTF-8" ?>
<!DOCTYPE svg PUBLIC "-//W3C//DTD SVG 1.1//EN" "http://www.w3.org/Graphics/SVG/1.1/DTD/svg11.dtd">
<svg width="64pt" height="64pt" viewBox="0 0 64 64" version="1.1" xmlns="http://www.w3.org/2000/svg">
<g id="#ffffffff">
<path fill="#ffffff" opacity="1.00" d=" M 0.00 0.00 L 64.00 0.00 L 64.00 64.00 L 0.00 64.00 L 0.00 0.00 M 24.16 10.99 C 20.34 18.86 22.47 27.83 24.38 35.92 C 30.10 36.04 35.82 36.09 41.53 35.89 C 43.30 31.10 44.65 25.98 43.70 20.84 C 42.91 15.53 40.90 9.58 35.84 6.91 C 31.66 4.70 26.09 6.71 24.16 10.99 M 27.08 55.90 C 30.50 59.42 36.71 58.15 39.41 54.36 C 41.97 50.80 42.02 46.21 42.02 42.00 C 36.31 41.99 30.59 42.02 24.88 41.98 C 23.52 46.59 23.44 52.28 27.08 55.90 Z" />
<path fill="#ffffff" opacity="1.00" d=" M 27.20 14.15 C 27.93 12.08 29.52 9.81 32.01 9.99 C 34.67 9.96 36.52 12.25 37.61 14.41 C 40.25 19.83 40.72 26.28 38.68 31.98 C 35.00 32.01 31.32 32.03 27.64 31.96 C 26.27 26.17 25.09 19.92 27.20 14.15 Z" />
<path fill="#ffffff" opacity="1.00" d=" M 28.07 46.04 C 31.29 45.99 34.50 45.99 37.72 46.01 C 37.63 49.16 36.83 53.69 32.89 53.93 C 28.64 54.56 27.58 49.22 28.07 46.04 Z" />
</g>
<g id="#000000ff">
<path fill="#000000" opacity="1.00" d=" M 24.16 10.99 C 26.09 6.71 31.66 4.70 35.84 6.91 C 40.90 9.58 42.91 15.53 43.70 20.84 C 44.65 25.98 43.30 31.10 41.53 35.89 C 35.82 36.09 30.10 36.04 24.38 35.92 C 22.47 27.83 20.34 18.86 24.16 10.99 M 27.20 14.15 C 25.09 19.92 26.27 26.17 27.64 31.96 C 31.32 32.03 35.00 32.01 38.68 31.98 C 40.72 26.28 40.25 19.83 37.61 14.41 C 36.52 12.25 34.67 9.96 32.01 9.99 C 29.52 9.81 27.93 12.08 27.20 14.15 Z" />
<path fill="#000000" opacity="1.00" d=" M 27.08 55.90 C 23.44 52.28 23.52 46.59 24.88 41.98 C 30.59 42.02 36.31 41.99 42.02 42.00 C 42.02 46.21 41.97 50.80 39.41 54.36 C 36.71 58.15 30.50 59.42 27.08 55.90 M 28.07 46.04 C 27.58 49.22 28.64 54.56 32.89 53.93 C 36.83 53.69 37.63 49.16 37.72 46.01 C 34.50 45.99 31.29 45.99 28.07 46.04 Z" />
</g>
</svg>
