<?xml version="1.0" encoding="UTF-8" ?>
<!DOCTYPE svg PUBLIC "-//W3C//DTD SVG 1.1//EN" "http://www.w3.org/Graphics/SVG/1.1/DTD/svg11.dtd">
<svg width="60pt" height="60pt" viewBox="0 0 60 60" version="1.1" xmlns="http://www.w3.org/2000/svg">
<g id="#ffffffff">
<path fill="#ffffff" opacity="1.00" d=" M 0.00 0.00 L 60.00 0.00 L 60.00 60.00 L 0.00 60.00 L 0.00 0.00 M 20.24 9.26 C 18.16 11.42 18.06 14.56 17.93 17.37 C 23.73 13.66 30.56 11.85 37.44 11.96 C 36.33 9.79 35.22 7.20 32.63 6.49 C 28.45 5.43 23.37 6.05 20.24 9.26 M 12.03 32.12 C 12.44 33.94 14.26 34.68 15.75 35.43 C 16.02 38.34 17.68 40.83 20.44 41.90 C 16.55 44.72 14.09 49.16 13.85 53.98 C 25.28 54.01 36.71 54.01 48.14 53.98 C 47.90 48.87 45.11 44.22 40.84 41.45 C 42.82 39.92 44.00 37.74 44.18 35.23 C 47.84 33.33 49.16 28.66 46.57 25.31 C 47.17 23.63 47.73 21.94 48.21 20.23 C 45.30 17.77 41.96 15.67 38.13 15.10 C 26.72 12.85 14.37 20.62 12.03 32.12 Z" />
<path fill="#ffffff" opacity="1.00" d=" M 22.03 25.44 C 27.59 22.50 33.76 21.12 40.00 20.60 C 39.86 25.02 40.32 29.48 39.74 33.88 C 38.78 36.65 35.82 37.99 33.44 39.33 C 30.20 41.11 26.88 38.56 24.34 36.69 C 20.74 34.11 22.32 29.17 22.03 25.44 M 23.61 27.94 C 25.20 27.98 26.80 27.97 28.39 27.94 C 27.32 25.58 24.66 25.58 23.61 27.94 M 33.63 27.95 C 35.21 27.98 36.79 27.98 38.37 27.95 C 37.40 25.57 34.58 25.56 33.63 27.95 M 26.42 33.79 C 28.12 34.69 29.82 36.48 31.92 35.86 C 33.21 35.33 34.38 34.53 35.55 33.79 C 32.59 32.48 29.39 32.53 26.42 33.79 Z" />
<path fill="#ffffff" opacity="1.00" d=" M 18.43 31.46 C 19.05 30.17 21.80 31.61 20.87 32.87 C 20.45 35.30 16.57 33.31 18.43 31.46 Z" />
<path fill="#ffffff" opacity="1.00" d=" M 41.43 31.54 C 42.42 29.71 45.25 32.42 43.52 33.51 C 42.53 35.19 39.83 32.66 41.43 31.54 Z" />
<path fill="#ffffff" opacity="1.00" d=" M 23.99 40.82 C 24.79 40.56 25.60 40.31 26.41 40.05 C 26.98 42.47 27.87 45.98 30.99 45.97 C 34.15 46.05 35.14 42.55 35.57 40.05 C 36.38 40.31 37.20 40.56 38.01 40.82 C 37.80 43.55 38.63 46.67 37.09 49.12 C 33.76 51.98 28.22 51.97 24.89 49.11 C 23.38 46.66 24.20 43.55 23.99 40.82 Z" />
</g>
<g id="#000000ff">
<path fill="#000000" opacity="1.00" d=" M 20.24 9.26 C 23.37 6.05 28.45 5.43 32.63 6.49 C 35.22 7.20 36.33 9.79 37.44 11.96 C 30.56 11.85 23.73 13.66 17.93 17.37 C 18.06 14.56 18.16 11.42 20.24 9.26 Z" />
<path fill="#000000" opacity="1.00" d=" M 12.03 32.12 C 14.37 20.62 26.72 12.85 38.13 15.10 C 41.96 15.67 45.30 17.77 48.21 20.23 C 47.73 21.94 47.17 23.63 46.57 25.31 C 49.16 28.66 47.84 33.33 44.18 35.23 C 44.00 37.74 42.82 39.92 40.84 41.45 C 45.11 44.22 47.90 48.87 48.14 53.98 C 36.71 54.01 25.28 54.01 13.85 53.98 C 14.09 49.16 16.55 44.72 20.44 41.90 C 17.68 40.83 16.02 38.34 15.75 35.43 C 14.26 34.68 12.44 33.94 12.03 32.12 M 22.03 25.44 C 22.32 29.17 20.74 34.11 24.34 36.69 C 26.88 38.56 30.20 41.11 33.44 39.33 C 35.82 37.99 38.78 36.65 39.74 33.88 C 40.32 29.48 39.86 25.02 40.00 20.60 C 33.76 21.12 27.59 22.50 22.03 25.44 M 18.43 31.46 C 16.57 33.31 20.45 35.30 20.87 32.87 C 21.80 31.61 19.05 30.17 18.43 31.46 M 41.43 31.54 C 39.83 32.66 42.53 35.19 43.52 33.51 C 45.25 32.42 42.42 29.71 41.43 31.54 M 23.99 40.82 C 24.20 43.55 23.38 46.66 24.89 49.11 C 28.22 51.97 33.76 51.98 37.09 49.12 C 38.63 46.67 37.80 43.55 38.01 40.82 C 37.20 40.56 36.38 40.31 35.57 40.05 C 35.14 42.55 34.15 46.05 30.99 45.97 C 27.87 45.98 26.98 42.47 26.41 40.05 C 25.60 40.31 24.79 40.56 23.99 40.82 Z" />
<path fill="#000000" opacity="1.00" d=" M 23.61 27.94 C 24.66 25.58 27.32 25.58 28.39 27.94 C 26.80 27.97 25.20 27.98 23.61 27.94 Z" />
<path fill="#000000" opacity="1.00" d=" M 33.63 27.95 C 34.58 25.56 37.40 25.57 38.37 27.95 C 36.79 27.98 35.21 27.98 33.63 27.95 Z" />
<path fill="#000000" opacity="1.00" d=" M 26.42 33.79 C 29.39 32.53 32.59 32.48 35.55 33.79 C 34.38 34.53 33.21 35.33 31.92 35.86 C 29.82 36.48 28.12 34.69 26.42 33.79 Z" />
</g>
</svg>
