<?xml version="1.0" encoding="UTF-8" ?>
<!DOCTYPE svg PUBLIC "-//W3C//DTD SVG 1.1//EN" "http://www.w3.org/Graphics/SVG/1.1/DTD/svg11.dtd">
<svg width="64pt" height="64pt" viewBox="0 0 64 64" version="1.1" xmlns="http://www.w3.org/2000/svg">
<g id="#ffffffff">
<path fill="#ffffff" opacity="1.00" d=" M 0.00 0.00 L 64.00 0.00 L 64.00 64.00 L 0.00 64.00 L 0.00 0.00 M 10.00 10.00 C 10.00 11.33 10.00 12.66 10.01 14.00 C 24.67 14.01 39.34 14.01 54.00 14.00 C 54.00 12.67 54.00 11.33 53.99 10.00 C 39.33 9.99 24.66 9.99 10.00 10.00 M 10.00 19.99 C 10.00 21.33 10.00 22.67 10.00 24.00 C 22.67 24.00 35.34 24.00 48.00 24.01 C 48.00 22.67 48.00 21.33 48.00 20.00 C 35.33 20.00 22.66 20.00 10.00 19.99 M 10.00 29.99 C 10.00 31.33 10.00 32.67 10.00 34.01 C 20.67 33.99 31.33 34.00 42.00 34.01 C 42.00 32.67 42.00 31.33 42.00 29.99 C 31.33 30.01 20.67 30.00 10.00 29.99 M 10.00 40.00 C 10.00 41.33 10.00 42.67 10.00 44.00 C 18.67 44.01 27.33 44.01 36.00 44.00 C 36.00 42.67 36.00 41.33 36.00 40.00 C 27.33 39.99 18.67 39.99 10.00 40.00 M 10.00 50.00 C 10.00 51.33 10.00 52.67 10.00 54.00 C 16.67 54.00 23.33 54.00 30.00 54.00 C 30.00 52.67 30.00 51.33 30.00 50.00 C 23.33 49.99 16.67 49.99 10.00 50.00 Z" />
</g>
<g id="#000000ff">
<path fill="#000000" opacity="1.00" d=" M 10.00 10.00 C 24.66 9.99 39.33 9.99 53.99 10.00 C 54.00 11.33 54.00 12.67 54.00 14.00 C 39.34 14.01 24.67 14.01 10.01 14.00 C 10.00 12.66 10.00 11.33 10.00 10.00 Z" />
<path fill="#000000" opacity="1.00" d=" M 10.00 19.99 C 22.66 20.00 35.33 20.00 48.00 20.00 C 48.00 21.33 48.00 22.67 48.00 24.01 C 35.34 24.00 22.67 24.00 10.00 24.00 C 10.00 22.67 10.00 21.33 10.00 19.99 Z" />
<path fill="#000000" opacity="1.00" d=" M 10.00 29.99 C 20.67 30.00 31.33 30.01 42.00 29.99 C 42.00 31.33 42.00 32.67 42.00 34.01 C 31.33 34.00 20.67 33.99 10.00 34.01 C 10.00 32.67 10.00 31.33 10.00 29.99 Z" />
<path fill="#000000" opacity="1.00" d=" M 10.00 40.00 C 18.67 39.99 27.33 39.99 36.00 40.00 C 36.00 41.33 36.00 42.67 36.00 44.00 C 27.33 44.01 18.67 44.01 10.00 44.00 C 10.00 42.67 10.00 41.33 10.00 40.00 Z" />
<path fill="#000000" opacity="1.00" d=" M 10.00 50.00 C 16.67 49.99 23.33 49.99 30.00 50.00 C 30.00 51.33 30.00 52.67 30.00 54.00 C 23.33 54.00 16.67 54.00 10.00 54.00 C 10.00 52.67 10.00 51.33 10.00 50.00 Z" />
</g>
</svg>
