<?xml version="1.0" encoding="UTF-8" ?>
<!DOCTYPE svg PUBLIC "-//W3C//DTD SVG 1.1//EN" "http://www.w3.org/Graphics/SVG/1.1/DTD/svg11.dtd">
<svg width="64pt" height="64pt" viewBox="0 0 64 64" version="1.1" xmlns="http://www.w3.org/2000/svg">
<g id="#ffffffff">
<path fill="#ffffff" opacity="1.00" d=" M 0.00 0.00 L 64.00 0.00 L 64.00 64.00 L 0.00 64.00 L 0.00 0.00 M 8.00 8.00 C 8.00 24.00 8.00 40.00 8.00 56.00 C 16.67 56.00 25.33 56.00 34.00 56.00 C 34.00 54.67 34.00 53.33 34.00 52.00 C 26.67 52.00 19.33 52.00 12.00 52.00 C 12.00 42.67 12.00 33.33 12.00 24.00 C 25.33 24.00 38.67 24.00 52.00 24.00 C 52.00 27.33 52.00 30.67 52.00 34.00 C 53.33 34.00 54.67 34.00 56.00 34.00 C 56.00 25.33 56.00 16.67 56.00 8.00 C 40.00 8.00 24.00 8.00 8.00 8.00 M 44.60 32.58 C 42.13 35.05 39.66 37.52 37.19 40.00 C 39.66 42.47 42.12 44.95 44.59 47.41 C 45.53 46.47 46.47 45.52 47.41 44.58 C 46.56 43.72 45.71 42.86 44.86 42.00 C 50.58 42.00 56.29 42.00 62.00 42.00 C 62.00 40.67 62.00 39.33 62.00 38.00 C 56.29 38.00 50.57 38.01 44.86 38.00 C 45.71 37.13 46.57 36.27 47.42 35.41 C 46.48 34.46 45.54 33.52 44.60 32.58 M 52.59 49.42 C 53.45 50.27 54.32 51.13 55.18 51.99 C 49.45 52.01 43.73 51.99 38.00 52.00 C 38.00 53.33 38.00 54.67 38.00 56.00 C 43.73 56.01 49.45 55.98 55.18 56.02 C 54.32 56.86 53.46 57.71 52.60 58.56 C 53.54 59.51 54.49 60.46 55.43 61.41 C 57.90 58.93 60.38 56.47 62.84 54.00 C 60.38 51.52 57.89 49.06 55.41 46.59 C 54.47 47.53 53.53 48.47 52.59 49.42 Z" />
<path fill="#ffffff" opacity="1.00" d=" M 12.00 12.00 C 25.33 12.00 38.67 12.00 52.00 12.00 C 52.00 14.67 52.00 17.33 52.00 20.00 C 38.67 20.00 25.33 20.00 12.00 20.00 C 12.00 17.33 12.00 14.67 12.00 12.00 M 14.00 14.00 C 14.00 15.33 14.00 16.67 14.00 18.00 C 15.33 18.00 16.67 18.00 18.00 18.00 C 18.00 16.67 18.00 15.33 18.00 14.00 C 16.67 14.00 15.33 14.00 14.00 14.00 M 20.00 14.00 C 20.00 15.33 20.00 16.67 20.00 18.00 C 21.33 18.00 22.67 18.00 24.00 18.00 C 24.00 16.67 24.00 15.33 24.00 14.00 C 22.67 14.00 21.33 14.00 20.00 14.00 M 26.00 14.00 C 26.00 15.33 26.00 16.67 26.00 18.00 C 27.33 18.00 28.67 18.00 30.00 18.00 C 30.00 16.67 30.00 15.33 30.00 14.00 C 28.67 14.00 27.33 14.00 26.00 14.00 Z" />
</g>
<g id="#000000ff">
<path fill="#000000" opacity="1.00" d=" M 8.00 8.00 C 24.00 8.00 40.00 8.00 56.00 8.00 C 56.00 16.67 56.00 25.33 56.00 34.00 C 54.67 34.00 53.33 34.00 52.00 34.00 C 52.00 30.67 52.00 27.33 52.00 24.00 C 38.67 24.00 25.33 24.00 12.00 24.00 C 12.00 33.33 12.00 42.67 12.00 52.00 C 19.33 52.00 26.67 52.00 34.00 52.00 C 34.00 53.33 34.00 54.67 34.00 56.00 C 25.33 56.00 16.67 56.00 8.00 56.00 C 8.00 40.00 8.00 24.00 8.00 8.00 M 12.00 12.00 C 12.00 14.67 12.00 17.33 12.00 20.00 C 25.33 20.00 38.67 20.00 52.00 20.00 C 52.00 17.33 52.00 14.67 52.00 12.00 C 38.67 12.00 25.33 12.00 12.00 12.00 Z" />
<path fill="#000000" opacity="1.00" d=" M 14.00 14.00 C 15.33 14.00 16.67 14.00 18.00 14.00 C 18.00 15.33 18.00 16.67 18.00 18.00 C 16.67 18.00 15.33 18.00 14.00 18.00 C 14.00 16.67 14.00 15.33 14.00 14.00 Z" />
<path fill="#000000" opacity="1.00" d=" M 20.00 14.00 C 21.33 14.00 22.67 14.00 24.00 14.00 C 24.00 15.33 24.00 16.67 24.00 18.00 C 22.67 18.00 21.33 18.00 20.00 18.00 C 20.00 16.67 20.00 15.33 20.00 14.00 Z" />
<path fill="#000000" opacity="1.00" d=" M 26.00 14.00 C 27.33 14.00 28.67 14.00 30.00 14.00 C 30.00 15.33 30.00 16.67 30.00 18.00 C 28.67 18.00 27.33 18.00 26.00 18.00 C 26.00 16.67 26.00 15.33 26.00 14.00 Z" />
<path fill="#000000" opacity="1.00" d=" M 44.60 32.58 C 45.54 33.52 46.48 34.46 47.42 35.41 C 46.57 36.27 45.71 37.13 44.86 38.00 C 50.57 38.01 56.29 38.00 62.00 38.00 C 62.00 39.33 62.00 40.67 62.00 42.00 C 56.29 42.00 50.58 42.00 44.86 42.00 C 45.71 42.86 46.56 43.72 47.41 44.58 C 46.47 45.52 45.53 46.47 44.59 47.41 C 42.12 44.95 39.66 42.47 37.19 40.00 C 39.66 37.52 42.13 35.05 44.60 32.58 Z" />
<path fill="#000000" opacity="1.00" d=" M 52.59 49.42 C 53.53 48.47 54.47 47.53 55.41 46.59 C 57.89 49.06 60.38 51.52 62.84 54.00 C 60.38 56.47 57.90 58.93 55.43 61.41 C 54.49 60.46 53.54 59.51 52.60 58.56 C 53.46 57.71 54.32 56.86 55.18 56.02 C 49.45 55.98 43.73 56.01 38.00 56.00 C 38.00 54.67 38.00 53.33 38.00 52.00 C 43.73 51.99 49.45 52.01 55.18 51.99 C 54.32 51.13 53.45 50.27 52.59 49.42 Z" />
</g>
</svg>
