<?xml version="1.0" encoding="UTF-8" ?>
<!DOCTYPE svg PUBLIC "-//W3C//DTD SVG 1.1//EN" "http://www.w3.org/Graphics/SVG/1.1/DTD/svg11.dtd">
<svg width="60pt" height="60pt" viewBox="0 0 60 60" version="1.1" xmlns="http://www.w3.org/2000/svg">
<g id="#ffffffff">
<path fill="#ffffff" opacity="1.00" d=" M 0.00 0.00 L 60.00 0.00 L 60.00 60.00 L 0.00 60.00 L 0.00 0.00 M 29.17 16.18 C 22.18 22.81 15.47 29.76 8.65 36.57 C 7.31 37.64 8.21 40.16 9.96 39.93 C 23.32 40.04 36.69 40.06 50.04 39.93 C 52.22 40.11 52.56 37.02 50.90 36.06 C 44.19 29.45 37.71 22.59 30.82 16.18 C 30.41 16.18 29.58 16.18 29.17 16.18 Z" />
</g>
<g id="#000000ff">
<path fill="#000000" opacity="1.00" d=" M 29.17 16.18 C 29.58 16.18 30.41 16.18 30.82 16.18 C 37.71 22.59 44.19 29.45 50.90 36.06 C 52.56 37.02 52.22 40.11 50.04 39.93 C 36.69 40.06 23.32 40.04 9.96 39.93 C 8.21 40.16 7.31 37.64 8.65 36.57 C 15.47 29.76 22.18 22.81 29.17 16.18 Z" />
</g>
</svg>
