<?xml version="1.0" encoding="UTF-8" ?>
<!DOCTYPE svg PUBLIC "-//W3C//DTD SVG 1.1//EN" "http://www.w3.org/Graphics/SVG/1.1/DTD/svg11.dtd">
<svg width="60pt" height="60pt" viewBox="0 0 60 60" version="1.1" xmlns="http://www.w3.org/2000/svg">
<g id="#ffffffff">
<path fill="#ffffff" opacity="1.00" d=" M 0.00 0.00 L 60.00 0.00 L 60.00 60.00 L 0.00 60.00 L 0.00 0.00 M 19.68 7.81 C 11.24 10.78 3.92 18.63 4.02 27.95 C 3.86 34.85 8.04 40.98 13.36 45.02 C 13.03 47.44 13.08 50.29 11.13 52.09 C 10.09 53.36 8.05 54.02 7.99 55.88 C 13.94 56.79 18.36 52.24 22.97 49.48 C 32.46 51.00 43.10 49.21 50.00 42.04 C 56.17 36.09 57.92 26.02 53.47 18.57 C 46.97 7.17 31.55 3.36 19.68 7.81 Z" />
<path fill="#ffffff" opacity="1.00" d=" M 12.18 24.94 C 13.30 19.89 21.51 20.85 22.44 25.70 C 19.68 25.19 16.93 23.10 14.23 24.97 C 16.74 27.18 22.58 26.38 22.07 30.95 C 20.98 36.00 12.40 35.41 11.42 30.43 C 13.42 30.39 15.22 31.09 16.78 32.30 C 17.76 31.72 18.73 31.14 19.70 30.57 C 17.06 29.00 11.63 29.27 12.18 24.94 Z" />
<path fill="#ffffff" opacity="1.00" d=" M 27.17 22.19 C 30.80 20.29 35.87 22.73 35.94 27.01 C 36.79 31.05 33.27 35.28 29.04 34.35 C 23.17 33.86 22.21 24.61 27.17 22.19 M 28.56 24.63 C 25.98 26.57 26.97 32.66 30.89 31.73 C 34.50 30.15 32.85 22.33 28.56 24.63 Z" />
<path fill="#ffffff" opacity="1.00" d=" M 38.17 25.04 C 39.15 19.90 47.52 20.80 48.44 25.70 C 46.26 25.77 41.45 21.89 41.21 25.81 C 43.78 27.04 48.65 26.84 48.07 30.92 C 47.03 36.00 38.40 35.42 37.42 30.43 C 39.42 30.39 41.22 31.07 42.77 32.29 C 43.75 31.73 44.73 31.15 45.70 30.57 C 43.09 28.99 37.73 29.30 38.17 25.04 Z" />
</g>
<g id="#000000ff">
<path fill="#000000" opacity="1.00" d=" M 19.68 7.81 C 31.55 3.36 46.97 7.17 53.47 18.57 C 57.92 26.02 56.17 36.09 50.00 42.04 C 43.10 49.21 32.46 51.00 22.97 49.48 C 18.36 52.24 13.94 56.79 7.99 55.88 C 8.05 54.02 10.09 53.36 11.13 52.09 C 13.08 50.29 13.03 47.44 13.36 45.02 C 8.04 40.98 3.86 34.85 4.02 27.95 C 3.92 18.63 11.24 10.78 19.68 7.81 M 12.18 24.94 C 11.63 29.27 17.06 29.00 19.70 30.57 C 18.73 31.14 17.76 31.72 16.78 32.30 C 15.22 31.09 13.42 30.39 11.42 30.43 C 12.40 35.41 20.98 36.00 22.07 30.95 C 22.58 26.38 16.74 27.18 14.23 24.97 C 16.93 23.10 19.68 25.19 22.44 25.70 C 21.51 20.85 13.30 19.89 12.18 24.94 M 27.17 22.19 C 22.21 24.61 23.17 33.86 29.04 34.35 C 33.27 35.28 36.79 31.05 35.94 27.01 C 35.87 22.73 30.80 20.29 27.17 22.19 M 38.17 25.04 C 37.73 29.30 43.09 28.99 45.70 30.57 C 44.73 31.15 43.75 31.73 42.77 32.29 C 41.22 31.07 39.42 30.39 37.42 30.43 C 38.40 35.42 47.03 36.00 48.07 30.92 C 48.65 26.84 43.78 27.04 41.21 25.81 C 41.45 21.89 46.26 25.77 48.44 25.70 C 47.52 20.80 39.15 19.90 38.17 25.04 Z" />
<path fill="#000000" opacity="1.00" d=" M 28.56 24.63 C 32.85 22.33 34.50 30.15 30.89 31.73 C 26.97 32.66 25.98 26.57 28.56 24.63 Z" />
</g>
</svg>
