<?xml version="1.0" encoding="UTF-8" ?>
<!DOCTYPE svg PUBLIC "-//W3C//DTD SVG 1.1//EN" "http://www.w3.org/Graphics/SVG/1.1/DTD/svg11.dtd">
<svg width="64pt" height="64pt" viewBox="0 0 64 64" version="1.1" xmlns="http://www.w3.org/2000/svg">
<g id="#ffffffff">
<path fill="#ffffff" opacity="1.00" d=" M 0.00 0.00 L 64.00 0.00 L 64.00 64.00 L 0.00 64.00 L 0.00 0.00 M 27.55 21.69 C 24.49 22.43 21.16 21.80 18.00 22.00 C 18.00 28.67 18.00 35.33 18.00 42.00 C 21.04 42.05 24.09 41.87 27.13 42.07 C 32.95 46.56 38.35 51.62 44.02 56.31 C 44.03 40.10 44.03 23.90 44.02 7.69 C 38.50 12.32 33.13 17.14 27.55 21.69 Z" />
<path fill="#ffffff" opacity="1.00" d=" M 28.74 26.00 C 32.52 22.80 36.27 19.57 40.03 16.35 C 40.03 26.78 40.02 37.22 40.03 47.65 C 36.28 44.42 32.52 41.19 28.74 38.00 C 26.49 38.00 24.25 38.00 22.00 38.00 C 22.00 34.00 22.00 30.00 22.00 26.00 C 24.25 26.00 26.49 26.00 28.74 26.00 Z" />
</g>
<g id="#000000ff">
<path fill="#000000" opacity="1.00" d=" M 27.55 21.69 C 33.13 17.14 38.50 12.32 44.02 7.69 C 44.03 23.90 44.03 40.10 44.02 56.31 C 38.35 51.62 32.95 46.56 27.13 42.07 C 24.09 41.87 21.04 42.05 18.00 42.00 C 18.00 35.33 18.00 28.67 18.00 22.00 C 21.16 21.80 24.49 22.43 27.55 21.69 M 28.74 26.00 C 26.49 26.00 24.25 26.00 22.00 26.00 C 22.00 30.00 22.00 34.00 22.00 38.00 C 24.25 38.00 26.49 38.00 28.74 38.00 C 32.52 41.19 36.28 44.42 40.03 47.65 C 40.02 37.22 40.03 26.78 40.03 16.35 C 36.27 19.57 32.52 22.80 28.74 26.00 Z" />
</g>
</svg>
