<?xml version="1.0" encoding="UTF-8" ?>
<!DOCTYPE svg PUBLIC "-//W3C//DTD SVG 1.1//EN" "http://www.w3.org/Graphics/SVG/1.1/DTD/svg11.dtd">
<svg width="60pt" height="60pt" viewBox="0 0 60 60" version="1.1" xmlns="http://www.w3.org/2000/svg">
<g id="#ffffffff">
<path fill="#ffffff" opacity="1.00" d=" M 0.00 0.00 L 60.00 0.00 L 60.00 60.00 L 0.00 60.00 L 0.00 0.00 M 28.69 2.19 C 28.06 3.44 27.45 4.69 26.84 5.94 C 26.06 6.01 24.50 6.17 23.72 6.24 C 22.73 5.38 21.74 4.53 20.74 3.68 C 20.73 4.63 20.71 6.51 20.70 7.45 C 20.12 7.83 18.95 8.58 18.37 8.96 C 17.64 8.69 16.20 8.14 15.47 7.87 C 16.67 9.83 16.66 11.76 15.45 13.66 C 13.65 11.36 12.03 8.92 10.54 6.40 C 9.80 5.57 9.39 3.65 7.92 4.06 C 6.66 3.81 5.50 5.65 6.21 6.69 C 7.95 10.42 10.56 13.65 12.96 16.96 C 11.91 17.75 10.85 18.55 9.80 19.34 C 8.46 18.92 7.13 18.50 5.79 18.10 C 6.40 19.39 7.06 20.66 7.71 21.93 C 7.23 23.00 6.76 24.07 6.28 25.14 C 4.74 25.70 3.20 26.26 1.67 26.85 C 3.10 27.55 4.56 28.22 6.00 28.91 C 6.14 30.40 6.28 31.90 6.44 33.40 C 5.18 34.33 3.91 35.25 2.67 36.20 C 4.18 36.46 5.71 36.68 7.23 36.90 C 7.86 38.29 8.45 39.70 9.09 41.08 C 8.40 42.42 7.72 43.75 7.05 45.10 C 8.02 44.81 9.95 44.23 10.92 43.94 C 11.98 45.06 13.04 46.17 14.11 47.28 C 13.86 48.63 13.61 49.97 13.37 51.32 C 14.48 50.64 15.58 49.92 16.66 49.20 C 18.05 49.91 19.44 50.62 20.83 51.31 C 20.94 52.63 21.05 53.96 21.16 55.29 C 22.05 54.32 22.93 53.34 23.80 52.35 C 25.31 52.71 26.82 53.07 28.33 53.41 C 28.63 54.68 28.94 55.95 29.26 57.21 C 30.05 56.06 30.79 54.87 31.57 53.72 C 33.24 53.85 34.91 53.95 36.58 54.07 C 37.35 55.41 38.18 56.72 38.98 58.04 C 39.39 56.61 39.78 55.18 40.17 53.75 C 41.61 53.50 43.06 53.25 44.50 52.99 C 45.43 53.96 46.37 54.93 47.31 55.89 C 47.36 54.92 47.45 52.97 47.50 52.00 C 48.78 51.36 50.05 50.73 51.33 50.09 C 52.14 50.56 53.75 51.51 54.56 51.98 C 52.97 49.08 54.86 46.69 56.22 44.26 C 57.30 43.68 58.38 43.09 59.46 42.48 C 58.34 42.06 57.22 41.64 56.10 41.22 C 56.01 39.54 55.89 37.87 55.77 36.19 C 56.40 35.59 57.67 34.37 58.30 33.76 C 57.43 33.69 55.70 33.54 54.83 33.47 C 53.99 32.22 53.12 31.00 52.22 29.79 C 52.90 28.65 53.60 27.52 54.26 26.37 C 52.91 26.62 51.56 26.89 50.22 27.15 C 49.71 26.11 49.21 25.06 48.71 24.01 C 49.79 22.79 50.88 21.58 51.94 20.34 C 50.35 20.40 48.76 20.48 47.18 20.56 C 46.79 19.83 46.03 18.37 45.65 17.64 C 46.50 16.32 47.36 15.01 48.20 13.68 C 47.08 13.90 44.86 14.34 43.74 14.56 C 42.95 13.66 42.15 12.76 41.36 11.86 C 41.74 10.97 42.51 9.17 42.89 8.28 C 41.53 8.76 40.18 9.26 38.83 9.78 C 37.91 9.22 36.98 8.67 36.05 8.12 C 36.05 7.07 36.04 4.98 36.03 3.94 C 35.00 4.94 33.97 5.94 32.96 6.96 C 32.05 6.75 31.14 6.54 30.23 6.33 C 29.72 4.95 29.22 3.57 28.69 2.19 Z" />
<path fill="#ffffff" opacity="1.00" d=" M 10.29 26.03 C 10.98 23.33 13.35 21.63 15.43 20.03 C 24.87 30.99 36.53 39.90 49.26 46.73 C 40.38 51.40 29.28 50.84 20.35 46.63 C 12.73 43.08 9.04 34.05 10.29 26.03 M 13.07 27.91 C 13.98 30.30 16.84 28.90 18.66 28.79 C 17.59 27.42 16.37 26.17 15.01 25.08 C 14.11 25.81 12.78 26.51 13.07 27.91 M 15.05 37.02 C 17.74 39.17 18.90 35.28 19.70 33.36 C 17.62 33.41 13.23 33.83 15.05 37.02 M 20.85 39.98 C 19.36 41.13 20.79 43.68 22.53 43.29 C 24.82 42.83 24.21 39.83 24.65 38.13 C 23.37 38.70 21.98 39.12 20.85 39.98 M 28.14 44.90 C 28.35 46.69 30.65 47.14 31.65 45.71 C 31.95 44.18 31.28 42.69 30.98 41.22 C 29.98 42.37 28.39 43.28 28.14 44.90 M 37.19 42.58 C 36.76 44.09 35.18 46.93 37.88 47.22 C 40.67 46.45 38.58 43.60 37.19 42.58 Z" />
</g>
<g id="#000000ff">
<path fill="#000000" opacity="1.00" d=" M 28.69 2.19 C 29.22 3.57 29.72 4.95 30.23 6.33 C 31.14 6.54 32.05 6.75 32.96 6.96 C 33.97 5.94 35.00 4.94 36.03 3.94 C 36.04 4.98 36.05 7.07 36.05 8.12 C 36.98 8.67 37.91 9.22 38.83 9.78 C 40.18 9.26 41.53 8.76 42.89 8.28 C 42.51 9.17 41.74 10.97 41.36 11.86 C 42.15 12.76 42.95 13.66 43.74 14.56 C 44.86 14.34 47.08 13.90 48.20 13.68 C 47.36 15.01 46.50 16.32 45.65 17.64 C 46.03 18.37 46.79 19.83 47.18 20.56 C 48.76 20.48 50.35 20.40 51.94 20.34 C 50.88 21.58 49.79 22.79 48.71 24.01 C 49.21 25.06 49.71 26.11 50.22 27.15 C 51.56 26.89 52.91 26.62 54.26 26.37 C 53.60 27.52 52.90 28.65 52.22 29.79 C 53.12 31.00 53.99 32.22 54.83 33.47 C 55.70 33.54 57.43 33.69 58.30 33.76 C 57.67 34.37 56.40 35.59 55.77 36.19 C 55.89 37.87 56.01 39.54 56.10 41.22 C 57.22 41.64 58.34 42.06 59.46 42.48 C 58.38 43.09 57.30 43.68 56.22 44.26 C 54.86 46.69 52.97 49.08 54.56 51.98 C 53.75 51.51 52.14 50.56 51.33 50.09 C 50.05 50.73 48.78 51.36 47.50 52.00 C 47.45 52.97 47.36 54.92 47.31 55.89 C 46.37 54.93 45.43 53.96 44.50 52.99 C 43.06 53.25 41.61 53.50 40.17 53.75 C 39.78 55.18 39.39 56.61 38.98 58.04 C 38.18 56.72 37.35 55.41 36.58 54.07 C 34.91 53.95 33.24 53.85 31.57 53.72 C 30.79 54.87 30.05 56.06 29.26 57.21 C 28.94 55.95 28.63 54.68 28.33 53.41 C 26.82 53.07 25.31 52.71 23.80 52.35 C 22.93 53.34 22.05 54.32 21.16 55.29 C 21.05 53.96 20.94 52.63 20.83 51.31 C 19.44 50.62 18.05 49.91 16.66 49.20 C 15.58 49.92 14.48 50.64 13.37 51.32 C 13.61 49.97 13.86 48.63 14.11 47.28 C 13.04 46.17 11.98 45.06 10.92 43.94 C 9.95 44.23 8.02 44.81 7.05 45.10 C 7.72 43.75 8.40 42.42 9.09 41.08 C 8.45 39.70 7.86 38.29 7.23 36.90 C 5.71 36.68 4.18 36.46 2.67 36.20 C 3.91 35.25 5.18 34.33 6.44 33.40 C 6.28 31.90 6.14 30.40 6.00 28.91 C 4.56 28.22 3.10 27.55 1.67 26.85 C 3.20 26.26 4.74 25.70 6.28 25.14 C 6.76 24.07 7.23 23.00 7.71 21.93 C 7.06 20.66 6.40 19.39 5.79 18.10 C 7.13 18.50 8.46 18.92 9.80 19.34 C 10.85 18.55 11.91 17.75 12.96 16.96 C 10.56 13.65 7.95 10.42 6.21 6.69 C 5.50 5.65 6.66 3.81 7.92 4.06 C 9.39 3.65 9.80 5.57 10.54 6.40 C 12.03 8.92 13.65 11.36 15.45 13.66 C 16.66 11.76 16.67 9.83 15.47 7.87 C 16.20 8.14 17.64 8.69 18.37 8.96 C 18.95 8.58 20.12 7.83 20.70 7.45 C 20.71 6.51 20.73 4.63 20.74 3.68 C 21.74 4.53 22.73 5.38 23.72 6.24 C 24.50 6.17 26.06 6.01 26.84 5.94 C 27.45 4.69 28.06 3.44 28.69 2.19 M 10.29 26.03 C 9.04 34.05 12.73 43.08 20.35 46.63 C 29.28 50.84 40.38 51.40 49.26 46.73 C 36.53 39.90 24.87 30.99 15.43 20.03 C 13.35 21.63 10.98 23.33 10.29 26.03 Z" />
<path fill="#000000" opacity="1.00" d=" M 13.07 27.91 C 12.78 26.51 14.11 25.81 15.01 25.08 C 16.37 26.17 17.59 27.42 18.66 28.79 C 16.84 28.90 13.98 30.30 13.07 27.91 Z" />
<path fill="#000000" opacity="1.00" d=" M 15.05 37.02 C 13.23 33.83 17.62 33.41 19.70 33.36 C 18.90 35.28 17.74 39.17 15.05 37.02 Z" />
<path fill="#000000" opacity="1.00" d=" M 20.85 39.98 C 21.98 39.12 23.37 38.70 24.65 38.13 C 24.21 39.83 24.82 42.83 22.53 43.29 C 20.79 43.68 19.36 41.13 20.85 39.98 Z" />
<path fill="#000000" opacity="1.00" d=" M 28.14 44.90 C 28.39 43.28 29.98 42.37 30.98 41.22 C 31.28 42.69 31.95 44.18 31.65 45.71 C 30.65 47.14 28.35 46.69 28.14 44.90 Z" />
<path fill="#000000" opacity="1.00" d=" M 37.19 42.58 C 38.58 43.60 40.67 46.45 37.88 47.22 C 35.18 46.93 36.76 44.09 37.19 42.58 Z" />
</g>
</svg>
