<?xml version="1.0" encoding="UTF-8" ?>
<!DOCTYPE svg PUBLIC "-//W3C//DTD SVG 1.1//EN" "http://www.w3.org/Graphics/SVG/1.1/DTD/svg11.dtd">
<svg width="64pt" height="64pt" viewBox="0 0 64 64" version="1.1" xmlns="http://www.w3.org/2000/svg">
<g id="#ffffffff">
<path fill="#ffffff" opacity="1.00" d=" M 0.00 0.00 L 64.00 0.00 L 64.00 64.00 L 0.00 64.00 L 0.00 0.00 M 30.00 6.00 C 30.00 7.35 30.00 8.70 29.99 10.06 C 19.70 10.96 10.96 19.69 10.05 29.99 C 8.70 30.00 7.35 30.00 6.00 30.00 C 6.00 31.33 6.00 32.66 6.00 34.00 C 7.34 34.00 8.68 34.00 10.02 34.01 C 10.84 42.53 16.89 49.99 24.91 52.87 C 23.61 50.34 22.78 47.37 20.37 45.62 C 16.79 42.78 14.79 38.47 14.03 34.04 C 15.36 34.02 16.68 34.00 18.00 33.99 C 18.00 32.66 18.00 31.33 18.00 30.01 C 16.69 30.00 15.38 29.99 14.07 29.98 C 15.07 21.84 21.84 15.08 29.98 14.07 C 29.99 15.38 30.00 16.69 30.01 18.00 C 31.34 18.00 32.66 18.00 33.99 18.00 C 34.00 16.69 34.01 15.38 34.02 14.07 C 42.16 15.07 48.92 21.85 49.93 29.98 C 48.62 29.99 47.31 30.00 46.00 30.01 C 46.00 31.33 46.00 32.66 46.00 33.99 C 47.32 34.00 48.64 34.02 49.96 34.04 C 49.19 38.46 47.20 42.79 43.62 45.63 C 41.23 47.37 40.40 50.33 39.08 52.84 C 47.14 50.05 53.13 42.50 53.98 34.01 C 55.32 34.00 56.66 34.00 58.00 34.00 C 58.00 32.67 58.00 31.33 58.00 30.00 C 56.64 30.00 55.29 30.00 53.94 29.99 C 53.03 19.70 44.31 10.96 34.01 10.06 C 34.00 8.70 34.00 7.35 34.00 6.00 C 32.66 6.00 31.33 6.00 30.00 6.00 M 26.00 46.00 C 28.00 50.00 30.00 54.00 32.00 57.99 C 34.00 54.00 36.00 50.00 38.00 46.00 C 36.00 46.67 34.00 47.33 32.00 48.00 C 30.00 47.33 28.00 46.67 26.00 46.00 Z" />
</g>
<g id="#000000ff">
<path fill="#000000" opacity="1.00" d=" M 30.00 6.00 C 31.33 6.00 32.66 6.00 34.00 6.00 C 34.00 7.35 34.00 8.70 34.01 10.06 C 44.31 10.96 53.03 19.70 53.94 29.99 C 55.29 30.00 56.64 30.00 58.00 30.00 C 58.00 31.33 58.00 32.67 58.00 34.00 C 56.66 34.00 55.32 34.00 53.98 34.01 C 53.13 42.50 47.14 50.05 39.08 52.84 C 40.40 50.33 41.23 47.37 43.62 45.63 C 47.20 42.79 49.19 38.46 49.96 34.04 C 48.64 34.02 47.32 34.00 46.00 33.99 C 46.00 32.66 46.00 31.33 46.00 30.01 C 47.31 30.00 48.62 29.99 49.93 29.98 C 48.92 21.85 42.16 15.07 34.02 14.07 C 34.01 15.38 34.00 16.69 33.99 18.00 C 32.66 18.00 31.34 18.00 30.01 18.00 C 30.00 16.69 29.99 15.38 29.98 14.07 C 21.84 15.08 15.07 21.84 14.07 29.98 C 15.38 29.99 16.69 30.00 18.00 30.01 C 18.00 31.33 18.00 32.66 18.00 33.99 C 16.68 34.00 15.36 34.02 14.03 34.04 C 14.79 38.47 16.79 42.78 20.37 45.62 C 22.78 47.37 23.61 50.34 24.91 52.87 C 16.89 49.99 10.84 42.53 10.02 34.01 C 8.68 34.00 7.34 34.00 6.00 34.00 C 6.00 32.66 6.00 31.33 6.00 30.00 C 7.35 30.00 8.70 30.00 10.05 29.99 C 10.96 19.69 19.70 10.96 29.99 10.06 C 30.00 8.70 30.00 7.35 30.00 6.00 Z" />
<path fill="#000000" opacity="1.00" d=" M 26.00 46.00 C 28.00 46.67 30.00 47.33 32.00 48.00 C 34.00 47.33 36.00 46.67 38.00 46.00 C 36.00 50.00 34.00 54.00 32.00 57.99 C 30.00 54.00 28.00 50.00 26.00 46.00 Z" />
</g>
</svg>
