<?xml version="1.0" encoding="UTF-8" ?>
<!DOCTYPE svg PUBLIC "-//W3C//DTD SVG 1.1//EN" "http://www.w3.org/Graphics/SVG/1.1/DTD/svg11.dtd">
<svg width="60pt" height="60pt" viewBox="0 0 60 60" version="1.1" xmlns="http://www.w3.org/2000/svg">
<g id="#ffffffff">
<path fill="#ffffff" opacity="1.00" d=" M 0.00 0.00 L 60.00 0.00 L 60.00 60.00 L 0.00 60.00 L 0.00 0.00 M 18.30 13.90 C 12.74 13.37 6.78 16.55 5.25 22.14 C 3.40 27.53 6.41 33.33 11.08 36.14 C 8.74 41.49 10.21 48.46 15.45 51.49 C 20.00 54.50 26.02 53.25 30.02 49.91 C 34.13 53.46 40.52 54.50 45.06 51.15 C 49.93 47.95 51.13 41.31 48.92 36.15 C 53.61 33.31 56.62 27.46 54.72 22.06 C 53.14 16.52 47.22 13.38 41.69 13.90 C 40.47 8.51 35.70 3.83 29.96 4.03 C 24.24 3.88 19.51 8.53 18.30 13.90 Z" />
<path fill="#ffffff" opacity="1.00" d=" M 27.36 8.45 C 31.34 6.97 36.28 9.27 37.51 13.37 C 37.73 14.80 38.10 16.19 38.45 17.59 C 40.39 18.91 42.89 17.20 45.02 17.86 C 50.06 18.77 52.95 25.08 50.33 29.50 C 49.28 31.81 46.79 32.65 44.80 33.91 C 43.38 35.04 44.96 36.63 45.31 37.90 C 47.54 41.65 45.48 46.89 41.57 48.57 C 38.79 49.89 35.10 49.47 32.96 47.19 C 31.87 46.31 30.89 44.53 29.23 45.20 C 27.49 46.52 26.20 48.57 23.91 49.02 C 19.30 50.48 14.06 46.80 13.79 41.99 C 13.43 39.47 15.10 37.41 15.85 35.14 C 15.25 32.86 12.16 32.88 10.84 31.13 C 7.11 27.42 8.52 20.36 13.40 18.39 C 15.76 17.08 18.40 18.27 20.91 18.04 C 22.18 17.29 21.89 15.40 22.34 14.14 C 22.71 11.48 24.89 9.32 27.36 8.45 M 27.65 25.85 C 26.02 23.63 22.25 23.42 21.29 26.34 C 20.24 29.20 23.44 31.49 26.06 30.47 C 23.62 31.29 22.11 34.52 24.35 36.42 C 26.75 38.65 30.12 36.23 30.00 33.32 C 29.87 36.24 33.23 38.64 35.64 36.44 C 37.88 34.53 36.37 31.29 33.92 30.46 C 36.52 31.47 39.69 29.27 38.73 26.42 C 37.81 23.44 34.01 23.58 32.36 25.87 C 34.26 23.74 33.00 19.98 30.01 20.07 C 27.05 19.93 25.66 23.75 27.65 25.85 Z" />
</g>
<g id="#000000ff">
<path fill="#968176" opacity="1.00" d=" M 18.30 13.90 C 19.51 8.53 24.24 3.88 29.96 4.03 C 35.70 3.83 40.47 8.51 41.69 13.90 C 47.22 13.38 53.14 16.52 54.72 22.06 C 56.62 27.46 53.61 33.31 48.92 36.15 C 51.13 41.31 49.93 47.95 45.06 51.15 C 40.52 54.50 34.13 53.46 30.02 49.91 C 26.02 53.25 20.00 54.50 15.45 51.49 C 10.21 48.46 8.74 41.49 11.08 36.14 C 6.41 33.33 3.40 27.53 5.25 22.14 C 6.78 16.55 12.74 13.37 18.30 13.90 M 27.36 8.45 C 24.89 9.32 22.71 11.48 22.34 14.14 C 21.89 15.40 22.18 17.29 20.91 18.04 C 18.40 18.27 15.76 17.08 13.40 18.39 C 8.52 20.36 7.11 27.42 10.84 31.13 C 12.16 32.88 15.25 32.86 15.85 35.14 C 15.10 37.41 13.43 39.47 13.79 41.99 C 14.06 46.80 19.30 50.48 23.91 49.02 C 26.20 48.57 27.49 46.52 29.23 45.20 C 30.89 44.53 31.87 46.31 32.96 47.19 C 35.10 49.47 38.79 49.89 41.57 48.57 C 45.48 46.89 47.54 41.65 45.31 37.90 C 44.96 36.63 43.38 35.04 44.80 33.91 C 46.79 32.65 49.28 31.81 50.33 29.50 C 52.95 25.08 50.06 18.77 45.02 17.86 C 42.89 17.20 40.39 18.91 38.45 17.59 C 38.10 16.19 37.73 14.80 37.51 13.37 C 36.28 9.27 31.34 6.97 27.36 8.45 Z" />
<path fill="#968176" opacity="1.00" d=" M 27.65 25.85 C 25.66 23.75 27.05 19.93 30.01 20.07 C 33.00 19.98 34.26 23.74 32.36 25.87 C 34.01 23.58 37.81 23.44 38.73 26.42 C 39.69 29.27 36.52 31.47 33.92 30.46 C 36.37 31.29 37.88 34.53 35.64 36.44 C 33.23 38.64 29.87 36.24 30.00 33.32 C 30.12 36.23 26.75 38.65 24.35 36.42 C 22.11 34.52 23.62 31.29 26.06 30.47 C 23.44 31.49 20.24 29.20 21.29 26.34 C 22.25 23.42 26.02 23.63 27.65 25.85 Z" />
</g>
</svg>
