<?xml version="1.0" encoding="UTF-8" ?>
<!DOCTYPE svg PUBLIC "-//W3C//DTD SVG 1.1//EN" "http://www.w3.org/Graphics/SVG/1.1/DTD/svg11.dtd">
<svg width="64pt" height="64pt" viewBox="0 0 64 64" version="1.1" xmlns="http://www.w3.org/2000/svg">
<g id="#ffffffff">
<path fill="#ffffff" opacity="1.00" d=" M 0.00 0.00 L 64.00 0.00 L 64.00 64.00 L 0.00 64.00 L 0.00 0.00 M 24.24 22.21 C 23.08 26.38 26.05 30.56 29.99 31.79 C 29.99 33.19 30.00 34.60 30.00 36.01 C 22.94 35.01 16.65 38.80 10.04 40.53 C 9.96 46.35 10.02 52.18 10.00 58.00 C 24.67 58.00 39.33 58.00 54.00 58.00 C 54.01 52.20 53.99 46.40 54.01 40.60 C 47.46 38.60 41.06 35.10 34.00 36.01 C 34.00 34.60 34.01 33.20 34.01 31.79 C 37.95 30.55 40.93 26.37 39.76 22.20 C 37.96 16.45 34.93 11.17 32.00 5.94 C 29.07 11.18 26.04 16.45 24.24 22.21 Z" />
<path fill="#ffffff" opacity="1.00" d=" M 28.15 23.27 C 29.01 20.13 30.55 17.24 32.00 14.35 C 33.45 17.23 34.99 20.11 35.85 23.24 C 36.44 24.98 35.15 26.51 33.97 27.61 C 33.33 25.73 32.67 23.85 32.00 21.98 C 31.33 23.85 30.66 25.72 30.03 27.61 C 28.86 26.51 27.56 25.01 28.15 23.27 Z" />
<path fill="#ffffff" opacity="1.00" d=" M 14.02 43.41 C 17.40 42.44 20.66 41.10 24.03 40.14 C 28.00 39.78 32.00 40.12 35.98 39.98 C 40.92 39.54 45.35 42.12 49.98 43.41 C 50.01 46.94 50.00 50.47 50.00 54.00 C 44.67 54.00 39.33 54.00 34.00 54.00 C 34.00 50.67 34.00 47.33 34.00 44.00 C 32.67 44.00 31.33 44.00 30.00 44.00 C 30.00 47.33 30.00 50.67 30.00 54.00 C 24.67 54.00 19.33 54.00 14.00 54.00 C 14.00 50.47 13.99 46.94 14.02 43.41 Z" />
</g>
<g id="#000000ff">
<path fill="#000000" opacity="1.00" d=" M 24.24 22.21 C 26.04 16.45 29.07 11.18 32.00 5.94 C 34.93 11.17 37.96 16.45 39.76 22.20 C 40.93 26.37 37.95 30.55 34.01 31.79 C 34.01 33.20 34.00 34.60 34.00 36.01 C 41.06 35.10 47.46 38.60 54.01 40.60 C 53.99 46.40 54.01 52.20 54.00 58.00 C 39.33 58.00 24.67 58.00 10.00 58.00 C 10.02 52.18 9.96 46.35 10.04 40.53 C 16.65 38.80 22.94 35.01 30.00 36.01 C 30.00 34.60 29.99 33.19 29.99 31.79 C 26.05 30.56 23.08 26.38 24.24 22.21 M 28.15 23.27 C 27.56 25.01 28.86 26.51 30.03 27.61 C 30.66 25.72 31.33 23.85 32.00 21.98 C 32.67 23.85 33.33 25.73 33.97 27.61 C 35.15 26.51 36.44 24.98 35.85 23.24 C 34.99 20.11 33.45 17.23 32.00 14.35 C 30.55 17.24 29.01 20.13 28.15 23.27 M 14.02 43.41 C 13.99 46.94 14.00 50.47 14.00 54.00 C 19.33 54.00 24.67 54.00 30.00 54.00 C 30.00 50.67 30.00 47.33 30.00 44.00 C 31.33 44.00 32.67 44.00 34.00 44.00 C 34.00 47.33 34.00 50.67 34.00 54.00 C 39.33 54.00 44.67 54.00 50.00 54.00 C 50.00 50.47 50.01 46.94 49.98 43.41 C 45.35 42.12 40.92 39.54 35.98 39.98 C 32.00 40.12 28.00 39.78 24.03 40.14 C 20.66 41.10 17.40 42.44 14.02 43.41 Z" />
</g>
</svg>
