<?xml version="1.0" encoding="UTF-8" ?>
<!DOCTYPE svg PUBLIC "-//W3C//DTD SVG 1.1//EN" "http://www.w3.org/Graphics/SVG/1.1/DTD/svg11.dtd">
<svg width="64pt" height="64pt" viewBox="0 0 64 64" version="1.1" xmlns="http://www.w3.org/2000/svg">
<g id="#ffffffff">
<path fill="#ffffff" opacity="1.00" d=" M 0.00 0.00 L 64.00 0.00 L 64.00 64.00 L 0.00 64.00 L 0.00 0.00 M 26.00 12.00 C 26.00 13.33 26.00 14.67 26.00 16.00 C 36.67 16.00 47.33 16.00 58.00 16.00 C 58.00 14.67 58.00 13.33 58.00 12.00 C 47.33 12.00 36.67 12.00 26.00 12.00 M 26.00 20.00 C 26.00 21.33 26.00 22.67 26.00 24.00 C 34.00 24.00 42.00 24.00 50.00 24.00 C 50.00 22.67 50.00 21.33 50.00 20.00 C 42.00 20.00 34.00 20.00 26.00 20.00 M 26.00 28.00 C 26.00 29.33 26.00 30.67 26.00 32.00 C 36.67 32.00 47.33 32.00 58.00 32.00 C 58.00 30.67 58.00 29.33 58.00 28.00 C 47.33 28.00 36.67 28.00 26.00 28.00 M 13.35 34.58 C 12.42 35.54 11.52 36.54 10.62 37.53 C 12.17 38.98 13.69 40.47 15.17 41.99 C 12.12 42.01 9.06 42.00 6.00 42.00 C 6.00 43.33 6.00 44.67 6.00 46.00 C 9.06 46.00 12.11 45.99 15.17 46.01 C 13.64 47.54 12.11 49.07 10.59 50.61 C 11.55 51.54 12.52 52.47 13.47 53.40 C 16.56 50.23 19.73 47.14 22.84 44.00 C 19.68 40.85 16.57 37.66 13.35 34.58 M 26.00 36.00 C 26.00 41.33 26.00 46.67 26.00 52.00 C 34.00 52.00 42.00 52.00 50.00 52.00 C 50.00 46.67 50.00 41.33 50.00 36.00 C 42.00 36.00 34.00 36.00 26.00 36.00 Z" />
<path fill="#ffffff" opacity="1.00" d=" M 30.00 40.00 C 35.33 40.00 40.67 40.00 46.00 40.00 C 46.00 42.67 46.00 45.33 46.00 48.00 C 40.67 48.00 35.33 48.00 30.00 48.00 C 30.00 45.33 30.00 42.67 30.00 40.00 Z" />
</g>
<g id="#000000ff">
<path fill="#000000" opacity="1.00" d=" M 26.00 12.00 C 36.67 12.00 47.33 12.00 58.00 12.00 C 58.00 13.33 58.00 14.67 58.00 16.00 C 47.33 16.00 36.67 16.00 26.00 16.00 C 26.00 14.67 26.00 13.33 26.00 12.00 Z" />
<path fill="#000000" opacity="1.00" d=" M 26.00 20.00 C 34.00 20.00 42.00 20.00 50.00 20.00 C 50.00 21.33 50.00 22.67 50.00 24.00 C 42.00 24.00 34.00 24.00 26.00 24.00 C 26.00 22.67 26.00 21.33 26.00 20.00 Z" />
<path fill="#000000" opacity="1.00" d=" M 26.00 28.00 C 36.67 28.00 47.33 28.00 58.00 28.00 C 58.00 29.33 58.00 30.67 58.00 32.00 C 47.33 32.00 36.67 32.00 26.00 32.00 C 26.00 30.67 26.00 29.33 26.00 28.00 Z" />
<path fill="#000000" opacity="1.00" d=" M 13.35 34.58 C 16.57 37.66 19.68 40.85 22.84 44.00 C 19.73 47.14 16.56 50.23 13.47 53.40 C 12.52 52.47 11.55 51.54 10.59 50.61 C 12.11 49.07 13.64 47.54 15.17 46.01 C 12.11 45.99 9.06 46.00 6.00 46.00 C 6.00 44.67 6.00 43.33 6.00 42.00 C 9.06 42.00 12.12 42.01 15.17 41.99 C 13.69 40.47 12.17 38.98 10.62 37.53 C 11.52 36.54 12.42 35.54 13.35 34.58 Z" />
<path fill="#000000" opacity="1.00" d=" M 26.00 36.00 C 34.00 36.00 42.00 36.00 50.00 36.00 C 50.00 41.33 50.00 46.67 50.00 52.00 C 42.00 52.00 34.00 52.00 26.00 52.00 C 26.00 46.67 26.00 41.33 26.00 36.00 M 30.00 40.00 C 30.00 42.67 30.00 45.33 30.00 48.00 C 35.33 48.00 40.67 48.00 46.00 48.00 C 46.00 45.33 46.00 42.67 46.00 40.00 C 40.67 40.00 35.33 40.00 30.00 40.00 Z" />
</g>
</svg>
