<?xml version="1.0" encoding="UTF-8" ?>
<!DOCTYPE svg PUBLIC "-//W3C//DTD SVG 1.1//EN" "http://www.w3.org/Graphics/SVG/1.1/DTD/svg11.dtd">
<svg width="60pt" height="60pt" viewBox="0 0 60 60" version="1.1" xmlns="http://www.w3.org/2000/svg">
<g id="#ffffffff">
<path fill="#ffffff" opacity="1.00" d=" M 0.00 0.00 L 60.00 0.00 L 60.00 60.00 L 0.00 60.00 L 0.00 0.00 M 6.16 7.16 C 5.75 11.38 6.16 15.64 5.95 19.87 C 4.92 21.08 3.42 22.22 4.16 24.01 C 5.06 26.45 7.97 25.87 10.00 26.10 C 10.00 28.70 10.00 31.30 10.00 33.91 C 7.14 33.61 3.53 34.34 3.90 38.03 C 4.60 38.69 5.30 39.36 6.01 40.02 C 6.09 44.30 5.77 48.60 6.17 52.87 C 8.08 54.96 11.63 53.98 14.12 53.48 C 19.79 50.22 24.67 45.75 30.03 42.00 C 26.02 42.00 22.02 41.99 18.02 42.01 C 20.02 40.70 21.89 39.17 24.06 38.14 C 31.72 37.67 39.44 38.35 47.11 37.83 C 50.94 37.02 54.28 34.60 57.12 32.01 C 58.56 30.77 58.02 28.42 56.58 27.43 C 53.29 24.75 49.50 21.93 45.05 22.01 C 38.05 21.86 31.04 22.22 24.06 21.87 C 21.92 20.82 20.06 19.29 18.08 17.99 C 22.06 18.01 26.04 18.00 30.03 18.00 C 24.68 14.25 19.79 9.79 14.13 6.52 C 11.64 6.02 8.01 5.01 6.16 7.16 Z" />
<path fill="#ffffff" opacity="1.00" d=" M 48.04 25.91 C 49.59 26.94 52.13 27.68 51.98 30.00 C 52.12 32.33 49.59 33.05 48.04 34.10 C 47.98 31.37 47.99 28.64 48.04 25.91 Z" />
</g>
<g id="#000000ff">
<path fill="#000000" opacity="1.00" d=" M 6.16 7.16 C 8.01 5.01 11.64 6.02 14.13 6.52 C 19.79 9.79 24.68 14.25 30.03 18.00 C 26.04 18.00 22.06 18.01 18.08 17.99 C 20.06 19.29 21.92 20.82 24.06 21.87 C 31.04 22.22 38.05 21.86 45.05 22.01 C 49.50 21.93 53.29 24.75 56.58 27.43 C 58.02 28.42 58.56 30.77 57.12 32.01 C 54.28 34.60 50.94 37.02 47.11 37.83 C 39.44 38.35 31.72 37.67 24.06 38.14 C 21.89 39.17 20.02 40.70 18.02 42.01 C 22.02 41.99 26.02 42.00 30.03 42.00 C 24.67 45.75 19.79 50.22 14.12 53.48 C 11.63 53.98 8.08 54.96 6.17 52.87 C 5.77 48.60 6.09 44.30 6.01 40.02 C 5.30 39.36 4.60 38.69 3.90 38.03 C 3.53 34.34 7.14 33.61 10.00 33.91 C 10.00 31.30 10.00 28.70 10.00 26.10 C 7.97 25.87 5.06 26.45 4.16 24.01 C 3.42 22.22 4.92 21.08 5.95 19.87 C 6.16 15.64 5.75 11.38 6.16 7.16 M 48.04 25.91 C 47.99 28.64 47.98 31.37 48.04 34.10 C 49.59 33.05 52.12 32.33 51.98 30.00 C 52.13 27.68 49.59 26.94 48.04 25.91 Z" />
</g>
</svg>
