<?xml version="1.0" encoding="UTF-8" ?>
<!DOCTYPE svg PUBLIC "-//W3C//DTD SVG 1.1//EN" "http://www.w3.org/Graphics/SVG/1.1/DTD/svg11.dtd">
<svg width="60pt" height="60pt" viewBox="0 0 60 60" version="1.1" xmlns="http://www.w3.org/2000/svg">
<g id="#ffffffff">
<path fill="#ffffff" opacity="1.00" d=" M 0.00 0.00 L 60.00 0.00 L 60.00 60.00 L 0.00 60.00 L 0.00 0.00 M 17.07 4.18 C 16.84 4.43 16.38 4.94 16.15 5.20 C 15.85 11.45 16.00 17.74 16.07 24.01 C 17.39 29.25 25.33 28.16 27.05 33.01 C 27.15 39.65 25.86 46.27 26.10 52.91 C 26.87 56.88 33.02 56.91 33.89 52.97 C 34.13 46.29 32.85 39.65 32.94 32.98 C 34.75 28.21 42.52 29.22 43.93 24.05 C 44.06 18.05 44.03 12.04 43.95 6.04 C 44.12 4.47 42.41 3.80 41.12 4.01 C 33.10 4.10 25.07 3.77 17.07 4.18 Z" />
<path fill="#ffffff" opacity="1.00" d=" M 21.20 8.10 C 22.45 7.71 24.08 8.50 23.94 9.96 C 24.03 13.58 24.16 17.24 23.83 20.85 C 23.05 22.72 19.88 22.11 20.06 20.04 C 19.99 16.40 19.82 12.74 20.17 9.11 C 20.43 8.86 20.95 8.35 21.20 8.10 Z" />
<path fill="#ffffff" opacity="1.00" d=" M 29.19 8.17 C 30.39 7.54 32.14 8.61 31.94 10.00 C 32.05 14.68 32.06 19.37 31.93 24.04 C 32.18 26.59 27.78 26.57 28.06 24.02 C 28.00 19.07 27.82 14.08 28.17 9.14 C 28.42 8.90 28.93 8.41 29.19 8.17 Z" />
<path fill="#ffffff" opacity="1.00" d=" M 37.24 8.14 C 38.42 7.59 40.11 8.61 39.94 9.97 C 40.02 13.59 40.16 17.23 39.84 20.84 C 39.07 22.74 35.81 22.10 36.06 19.98 C 35.99 16.37 35.83 12.74 36.17 9.14 C 36.44 8.89 36.97 8.39 37.24 8.14 Z" />
</g>
<g id="#000000ff">
<path fill="#968176" opacity="1.00" d=" M 17.07 4.18 C 25.07 3.77 33.10 4.10 41.12 4.01 C 42.41 3.80 44.12 4.47 43.95 6.04 C 44.03 12.04 44.06 18.05 43.93 24.05 C 42.52 29.22 34.75 28.21 32.94 32.98 C 32.85 39.65 34.13 46.29 33.89 52.97 C 33.02 56.91 26.87 56.88 26.10 52.91 C 25.86 46.27 27.15 39.65 27.05 33.01 C 25.33 28.16 17.39 29.25 16.07 24.01 C 16.00 17.74 15.85 11.45 16.15 5.20 C 16.38 4.94 16.84 4.43 17.07 4.18 M 21.20 8.10 C 20.95 8.35 20.43 8.86 20.17 9.11 C 19.82 12.74 19.99 16.40 20.06 20.04 C 19.88 22.11 23.05 22.72 23.83 20.85 C 24.16 17.24 24.03 13.58 23.94 9.96 C 24.08 8.50 22.45 7.71 21.20 8.10 M 29.19 8.17 C 28.93 8.41 28.42 8.90 28.17 9.14 C 27.82 14.08 28.00 19.07 28.06 24.02 C 27.78 26.57 32.18 26.59 31.93 24.04 C 32.06 19.37 32.05 14.68 31.94 10.00 C 32.14 8.61 30.39 7.54 29.19 8.17 M 37.24 8.14 C 36.97 8.39 36.44 8.89 36.17 9.14 C 35.83 12.74 35.99 16.37 36.06 19.98 C 35.81 22.10 39.07 22.74 39.84 20.84 C 40.16 17.23 40.02 13.59 39.94 9.97 C 40.11 8.61 38.42 7.59 37.24 8.14 Z" />
</g>
</svg>
