<?xml version="1.0" encoding="UTF-8" ?>
<!DOCTYPE svg PUBLIC "-//W3C//DTD SVG 1.1//EN" "http://www.w3.org/Graphics/SVG/1.1/DTD/svg11.dtd">
<svg width="64pt" height="64pt" viewBox="0 0 64 64" version="1.1" xmlns="http://www.w3.org/2000/svg">
<g id="#ffffffff">
<path fill="#ffffff" opacity="1.00" d=" M 0.00 0.00 L 64.00 0.00 L 64.00 64.00 L 0.00 64.00 L 0.00 0.00 M 17.61 20.53 C 13.09 25.64 8.50 32.45 10.58 39.59 C 12.54 46.48 21.08 50.01 27.41 46.75 C 25.81 49.81 24.30 52.91 22.76 55.99 C 28.92 56.01 35.09 56.00 41.25 56.00 C 39.70 52.91 38.20 49.80 36.58 46.75 C 42.23 49.58 49.76 47.27 52.58 41.57 C 55.54 36.15 53.25 29.68 49.98 24.97 C 45.19 18.18 38.82 12.63 31.99 7.97 C 26.77 11.64 21.84 15.74 17.61 20.53 Z" />
<path fill="#ffffff" opacity="1.00" d=" M 16.18 29.20 C 20.14 22.64 25.97 17.46 32.02 12.86 C 38.90 18.18 46.01 24.16 49.35 32.42 C 51.29 36.85 48.82 42.64 43.99 43.72 C 39.04 45.19 34.05 40.98 33.87 36.00 C 32.62 36.00 31.37 36.00 30.13 36.00 C 29.77 38.76 28.53 41.58 25.96 42.93 C 22.29 45.16 17.05 43.69 15.04 39.91 C 13.07 36.52 14.26 32.34 16.18 29.20 Z" />
<path fill="#ffffff" opacity="1.00" d=" M 31.88 46.78 C 33.06 48.38 33.89 50.20 34.74 52.00 C 32.91 52.00 31.08 52.00 29.26 52.00 C 30.12 50.25 30.99 48.51 31.88 46.78 Z" />
</g>
<g id="#000000ff">
<path fill="#000000" opacity="1.00" d=" M 17.61 20.53 C 21.84 15.74 26.77 11.64 31.99 7.97 C 38.82 12.63 45.19 18.18 49.98 24.97 C 53.25 29.68 55.54 36.15 52.58 41.57 C 49.76 47.27 42.23 49.58 36.58 46.75 C 38.20 49.80 39.70 52.91 41.25 56.00 C 35.09 56.00 28.92 56.01 22.76 55.99 C 24.30 52.91 25.81 49.81 27.41 46.75 C 21.08 50.01 12.54 46.48 10.58 39.59 C 8.50 32.45 13.09 25.64 17.61 20.53 M 16.18 29.20 C 14.26 32.34 13.07 36.52 15.04 39.91 C 17.05 43.69 22.29 45.16 25.96 42.93 C 28.53 41.58 29.77 38.76 30.13 36.00 C 31.37 36.00 32.62 36.00 33.87 36.00 C 34.05 40.98 39.04 45.19 43.99 43.72 C 48.82 42.64 51.29 36.85 49.35 32.42 C 46.01 24.16 38.90 18.18 32.02 12.86 C 25.97 17.46 20.14 22.64 16.18 29.20 M 31.88 46.78 C 30.99 48.51 30.12 50.25 29.26 52.00 C 31.08 52.00 32.91 52.00 34.74 52.00 C 33.89 50.20 33.06 48.38 31.88 46.78 Z" />
</g>
</svg>
