<?xml version="1.0" encoding="UTF-8" ?>
<!DOCTYPE svg PUBLIC "-//W3C//DTD SVG 1.1//EN" "http://www.w3.org/Graphics/SVG/1.1/DTD/svg11.dtd">
<svg width="60pt" height="60pt" viewBox="0 0 60 60" version="1.1" xmlns="http://www.w3.org/2000/svg">
<g id="#ffffffff">
<path fill="#ffffff" opacity="1.00" d=" M 0.00 0.00 L 60.00 0.00 L 60.00 60.00 L 0.00 60.00 L 0.00 0.00 M 0.67 3.60 C 19.34 22.08 37.91 40.66 56.40 59.32 C 57.20 58.36 59.23 57.71 58.93 56.25 C 56.47 53.34 53.56 50.86 50.96 48.09 C 52.29 47.07 54.10 46.08 53.93 44.11 C 54.10 34.39 53.95 24.65 54.00 14.93 C 54.32 12.62 52.68 9.97 50.17 10.06 C 37.74 9.92 25.30 10.04 12.87 10.01 C 9.78 6.89 6.60 3.88 3.62 0.67 C 2.51 1.51 1.52 2.50 0.67 3.60 M 6.01 14.18 C 6.03 24.16 5.92 34.14 6.05 44.12 C 5.96 46.17 7.87 47.96 9.87 47.95 C 12.58 48.10 15.30 47.99 18.01 47.99 C 18.04 50.95 17.81 53.92 18.18 56.86 C 18.69 58.10 20.56 58.40 21.36 57.34 C 23.86 54.40 26.08 51.23 28.31 48.09 C 32.15 47.94 35.98 48.00 39.82 48.01 C 36.50 44.67 33.18 41.31 29.84 38.00 C 27.34 37.63 24.01 38.98 22.12 36.88 C 21.26 34.50 23.98 33.73 25.77 33.78 C 19.04 27.40 12.62 20.69 6.01 14.18 Z" />
<path fill="#ffffff" opacity="1.00" d=" M 21.85 18.92 C 24.35 17.49 27.29 18.11 30.02 17.99 C 34.98 18.14 39.95 17.74 44.89 18.18 C 46.71 19.01 46.10 22.07 44.06 21.93 C 37.66 22.14 31.24 21.91 24.84 22.02 C 23.83 20.99 22.83 19.96 21.85 18.92 Z" />
<path fill="#ffffff" opacity="1.00" d=" M 15.09 26.12 C 17.44 25.04 19.25 28.75 16.85 29.76 C 14.60 31.08 12.81 27.27 15.09 26.12 Z" />
<path fill="#ffffff" opacity="1.00" d=" M 28.83 26.00 C 34.18 26.12 39.55 25.75 44.89 26.18 C 46.34 26.94 46.32 29.01 44.92 29.81 C 40.91 30.25 36.86 29.89 32.84 30.01 C 31.50 28.67 30.16 27.34 28.83 26.00 Z" />
<path fill="#ffffff" opacity="1.00" d=" M 15.17 34.18 C 17.51 33.02 19.19 36.82 16.85 37.86 C 14.48 38.96 12.81 35.17 15.17 34.18 Z" />
<path fill="#ffffff" opacity="1.00" d=" M 36.82 34.03 C 39.70 34.49 43.65 32.81 45.81 35.15 C 46.87 38.29 42.84 38.11 40.88 38.08 C 39.55 36.70 38.17 35.38 36.82 34.03 Z" />
</g>
<g id="#000000ff">
<path fill="#000000" opacity="1.00" d=" M 0.67 3.60 C 1.52 2.50 2.51 1.51 3.62 0.67 C 6.60 3.88 9.78 6.89 12.87 10.01 C 25.30 10.04 37.74 9.92 50.17 10.06 C 52.68 9.97 54.32 12.62 54.00 14.93 C 53.95 24.65 54.10 34.39 53.93 44.11 C 54.10 46.08 52.29 47.07 50.96 48.09 C 53.56 50.86 56.47 53.34 58.93 56.25 C 59.23 57.71 57.20 58.36 56.40 59.32 C 37.91 40.66 19.34 22.08 0.67 3.60 M 21.85 18.92 C 22.83 19.96 23.83 20.99 24.84 22.02 C 31.24 21.91 37.66 22.14 44.06 21.93 C 46.10 22.07 46.71 19.01 44.89 18.18 C 39.95 17.74 34.98 18.14 30.02 17.99 C 27.29 18.11 24.35 17.49 21.85 18.92 M 28.83 26.00 C 30.16 27.34 31.50 28.67 32.84 30.01 C 36.86 29.89 40.91 30.25 44.92 29.81 C 46.32 29.01 46.34 26.94 44.89 26.18 C 39.55 25.75 34.18 26.12 28.83 26.00 M 36.82 34.03 C 38.17 35.38 39.55 36.70 40.88 38.08 C 42.84 38.11 46.87 38.29 45.81 35.15 C 43.65 32.81 39.70 34.49 36.82 34.03 Z" />
<path fill="#000000" opacity="1.00" d=" M 6.01 14.18 C 12.62 20.69 19.04 27.40 25.77 33.78 C 23.98 33.73 21.26 34.50 22.12 36.88 C 24.01 38.98 27.34 37.63 29.84 38.00 C 33.18 41.31 36.50 44.67 39.82 48.01 C 35.98 48.00 32.15 47.94 28.31 48.09 C 26.08 51.23 23.86 54.40 21.36 57.34 C 20.56 58.40 18.69 58.10 18.18 56.86 C 17.81 53.92 18.04 50.95 18.01 47.99 C 15.30 47.99 12.58 48.10 9.87 47.95 C 7.87 47.96 5.96 46.17 6.05 44.12 C 5.92 34.14 6.03 24.16 6.01 14.18 M 15.09 26.12 C 12.81 27.27 14.60 31.08 16.85 29.76 C 19.25 28.75 17.44 25.04 15.09 26.12 M 15.17 34.18 C 12.81 35.17 14.48 38.96 16.85 37.86 C 19.19 36.82 17.51 33.02 15.17 34.18 Z" />
</g>
</svg>
