<?xml version="1.0" encoding="UTF-8" ?>
<!DOCTYPE svg PUBLIC "-//W3C//DTD SVG 1.1//EN" "http://www.w3.org/Graphics/SVG/1.1/DTD/svg11.dtd">
<svg width="60pt" height="60pt" viewBox="0 0 60 60" version="1.1" xmlns="http://www.w3.org/2000/svg">
<g id="#ffffffff">
<path fill="#ffffff" opacity="1.00" d=" M 0.00 0.00 L 60.00 0.00 L 60.00 60.00 L 0.00 60.00 L 0.00 0.00 M 4.04 11.89 C 3.96 17.29 3.96 22.70 4.04 28.10 C 3.96 30.16 5.85 31.95 7.86 31.95 C 15.24 32.08 22.62 31.96 30.00 32.00 C 29.96 25.31 30.08 18.62 29.96 11.93 C 29.98 9.92 28.21 7.99 26.16 8.05 C 20.07 7.96 13.98 7.96 7.90 8.04 C 5.87 8.00 4.01 9.87 4.04 11.89 M 34.00 12.00 C 34.00 13.33 34.00 14.67 34.00 16.00 C 38.67 16.00 43.33 16.00 48.00 16.00 C 48.00 26.67 48.00 37.33 48.00 48.00 C 40.00 48.00 32.00 48.00 24.00 48.00 C 24.00 44.00 24.00 40.00 24.00 36.00 C 22.67 36.00 21.33 36.00 20.00 36.00 C 20.05 40.01 19.90 44.01 20.04 48.01 C 19.97 50.09 21.87 52.00 23.94 51.96 C 31.98 52.03 40.03 52.04 48.07 51.96 C 50.55 52.00 52.35 49.45 52.00 47.10 C 52.00 37.03 52.01 26.94 52.00 16.86 C 52.34 14.55 50.56 12.02 48.12 12.04 C 43.42 11.91 38.71 12.05 34.00 12.00 M 34.00 22.01 C 34.00 23.34 34.00 24.66 34.00 25.99 C 36.94 25.96 39.90 26.18 42.83 25.83 C 44.38 25.16 44.37 22.79 42.79 22.15 C 39.87 21.83 36.93 22.03 34.00 22.01 M 34.00 30.01 C 34.00 31.34 34.00 32.66 34.00 33.99 C 36.97 33.96 39.95 34.18 42.91 33.82 C 44.33 33.07 44.33 30.88 42.87 30.17 C 39.92 29.83 36.95 30.03 34.00 30.01 M 29.11 38.20 C 27.27 38.97 27.92 42.15 29.98 41.92 C 34.27 42.01 38.59 42.21 42.86 41.79 C 44.75 41.08 44.10 37.86 42.04 38.08 C 37.74 37.98 33.40 37.80 29.11 38.20 Z" />
<path fill="#ffffff" opacity="1.00" d=" M 12.02 12.21 C 12.51 12.20 13.47 12.19 13.96 12.18 C 14.03 17.39 14.02 22.60 13.96 27.81 C 13.48 27.80 12.50 27.78 12.01 27.77 C 11.99 22.58 11.98 17.40 12.02 12.21 Z" />
<path fill="#ffffff" opacity="1.00" d=" M 20.02 14.20 C 20.51 14.21 21.49 14.22 21.98 14.23 C 22.01 18.09 22.02 21.94 21.96 25.80 C 21.48 25.80 20.51 25.80 20.03 25.79 C 19.98 21.93 19.99 18.07 20.02 14.20 Z" />
<path fill="#ffffff" opacity="1.00" d=" M 16.04 16.18 C 16.52 16.19 17.48 16.19 17.96 16.20 C 18.00 18.73 18.00 21.26 17.98 23.79 C 17.49 23.79 16.50 23.78 16.01 23.77 C 16.00 21.24 16.00 18.71 16.04 16.18 Z" />
<path fill="#ffffff" opacity="1.00" d=" M 8.03 18.20 C 8.51 18.20 9.49 18.21 9.98 18.21 C 9.98 19.41 9.98 20.61 9.96 21.80 C 9.48 21.80 8.51 21.79 8.02 21.79 C 8.02 20.59 8.02 19.39 8.03 18.20 Z" />
<path fill="#ffffff" opacity="1.00" d=" M 24.01 18.19 C 24.51 18.20 25.49 18.22 25.99 18.23 C 25.99 19.40 25.99 20.58 25.98 21.76 C 25.50 21.78 24.55 21.83 24.07 21.85 C 24.03 20.63 24.01 19.41 24.01 18.19 Z" />
</g>
<g id="#000000ff">
<path fill="#968176" opacity="1.00" d=" M 4.04 11.89 C 4.01 9.87 5.87 8.00 7.90 8.04 C 13.98 7.96 20.07 7.96 26.16 8.05 C 28.21 7.99 29.98 9.92 29.96 11.93 C 30.08 18.62 29.96 25.31 30.00 32.00 C 22.62 31.96 15.24 32.08 7.86 31.95 C 5.85 31.95 3.96 30.16 4.04 28.10 C 3.96 22.70 3.96 17.29 4.04 11.89 M 12.02 12.21 C 11.98 17.40 11.99 22.58 12.01 27.77 C 12.50 27.78 13.48 27.80 13.96 27.81 C 14.02 22.60 14.03 17.39 13.96 12.18 C 13.47 12.19 12.51 12.20 12.02 12.21 M 20.02 14.20 C 19.99 18.07 19.98 21.93 20.03 25.79 C 20.51 25.80 21.48 25.80 21.96 25.80 C 22.02 21.94 22.01 18.09 21.98 14.23 C 21.49 14.22 20.51 14.21 20.02 14.20 M 16.04 16.18 C 16.00 18.71 16.00 21.24 16.01 23.77 C 16.50 23.78 17.49 23.79 17.98 23.79 C 18.00 21.26 18.00 18.73 17.96 16.20 C 17.48 16.19 16.52 16.19 16.04 16.18 M 8.03 18.20 C 8.02 19.39 8.02 20.59 8.02 21.79 C 8.51 21.79 9.48 21.80 9.96 21.80 C 9.98 20.61 9.98 19.41 9.98 18.21 C 9.49 18.21 8.51 18.20 8.03 18.20 M 24.01 18.19 C 24.01 19.41 24.03 20.63 24.07 21.85 C 24.55 21.83 25.50 21.78 25.98 21.76 C 25.99 20.58 25.99 19.40 25.99 18.23 C 25.49 18.22 24.51 18.20 24.01 18.19 Z" />
<path fill="#968176" opacity="1.00" d=" M 34.00 12.00 C 38.71 12.05 43.42 11.91 48.12 12.04 C 50.56 12.02 52.34 14.55 52.00 16.86 C 52.01 26.94 52.00 37.03 52.00 47.10 C 52.35 49.45 50.55 52.00 48.07 51.96 C 40.03 52.04 31.98 52.03 23.94 51.96 C 21.87 52.00 19.97 50.09 20.04 48.01 C 19.90 44.01 20.05 40.01 20.00 36.00 C 21.33 36.00 22.67 36.00 24.00 36.00 C 24.00 40.00 24.00 44.00 24.00 48.00 C 32.00 48.00 40.00 48.00 48.00 48.00 C 48.00 37.33 48.00 26.67 48.00 16.00 C 43.33 16.00 38.67 16.00 34.00 16.00 C 34.00 14.67 34.00 13.33 34.00 12.00 Z" />
<path fill="#968176" opacity="1.00" d=" M 34.00 22.01 C 36.93 22.03 39.87 21.83 42.79 22.15 C 44.37 22.79 44.38 25.16 42.83 25.83 C 39.90 26.18 36.94 25.96 34.00 25.99 C 34.00 24.66 34.00 23.34 34.00 22.01 Z" />
<path fill="#968176" opacity="1.00" d=" M 34.00 30.01 C 36.95 30.03 39.92 29.83 42.87 30.17 C 44.33 30.88 44.33 33.07 42.91 33.82 C 39.95 34.18 36.97 33.96 34.00 33.99 C 34.00 32.66 34.00 31.34 34.00 30.01 Z" />
<path fill="#968176" opacity="1.00" d=" M 29.11 38.20 C 33.40 37.80 37.74 37.98 42.04 38.08 C 44.10 37.86 44.75 41.08 42.86 41.79 C 38.59 42.21 34.27 42.01 29.98 41.92 C 27.92 42.15 27.27 38.97 29.11 38.20 Z" />
</g>
</svg>
