<?xml version="1.0" encoding="UTF-8" ?>
<!DOCTYPE svg PUBLIC "-//W3C//DTD SVG 1.1//EN" "http://www.w3.org/Graphics/SVG/1.1/DTD/svg11.dtd">
<svg width="60pt" height="60pt" viewBox="0 0 60 60" version="1.1" xmlns="http://www.w3.org/2000/svg">
<g id="#ffffffff">
<path fill="#ffffff" opacity="1.00" d=" M 0.00 0.00 L 60.00 0.00 L 60.00 60.00 L 0.00 60.00 L 0.00 0.00 M 12.09 6.04 C 13.00 11.07 14.52 15.98 15.67 20.96 C 16.08 23.62 18.47 25.16 20.16 27.00 C 18.49 26.72 16.82 26.44 15.15 26.17 C 12.33 22.24 9.53 18.28 6.72 14.34 C 5.88 13.56 5.37 11.77 3.95 12.07 C 2.18 11.80 1.33 14.28 2.58 15.40 C 5.57 19.75 8.70 24.00 11.76 28.30 C 12.91 30.50 15.69 30.12 17.72 30.75 C 12.96 33.13 8.07 30.04 3.18 30.10 C 1.67 30.71 1.50 33.28 3.20 33.74 C 6.05 34.61 9.01 35.04 11.93 35.63 C 14.72 36.47 17.34 34.87 19.96 34.13 C 18.09 36.51 15.92 38.66 14.28 41.20 C 13.21 45.40 12.64 49.72 12.08 54.01 C 11.80 55.76 14.32 56.69 15.42 55.43 C 17.62 50.52 16.03 44.21 20.04 40.09 C 21.49 44.63 24.73 49.72 29.99 49.97 C 35.30 49.78 38.48 44.62 39.96 40.09 C 43.99 44.22 42.35 50.56 44.61 55.46 C 45.70 56.68 48.19 55.74 47.92 54.02 C 47.36 49.73 46.79 45.40 45.72 41.21 C 44.11 38.65 41.92 36.50 40.04 34.13 C 42.02 34.76 43.94 35.62 46.01 35.90 C 49.66 35.47 53.27 34.65 56.83 33.75 C 58.89 33.16 58.06 29.64 55.95 30.10 C 51.38 30.42 46.75 32.96 42.28 30.75 C 44.06 30.09 46.54 30.57 47.79 28.86 C 50.83 24.83 53.65 20.64 56.65 16.58 C 57.21 15.55 58.46 14.46 57.87 13.17 C 57.22 11.56 54.91 11.67 54.20 13.15 C 50.99 17.40 48.01 21.82 44.90 26.14 C 43.21 26.43 41.52 26.72 39.84 27.02 C 41.53 25.18 43.92 23.63 44.33 20.96 C 45.48 15.97 47.01 11.05 47.91 6.01 C 48.33 3.92 44.70 3.11 44.24 5.22 C 42.55 10.36 41.81 15.77 40.08 20.89 C 38.07 23.40 35.69 25.63 33.12 27.58 C 35.96 25.01 36.96 20.89 34.50 17.68 C 35.03 16.45 35.63 15.24 36.00 13.95 C 36.06 11.89 32.93 11.23 32.27 13.24 C 31.36 14.21 31.17 16.55 29.40 15.97 C 28.15 14.57 27.73 11.31 25.23 12.11 C 22.82 13.37 24.87 15.96 25.50 17.67 C 23.16 20.82 23.71 25.54 27.32 27.50 C 27.06 27.48 26.56 27.43 26.30 27.40 C 24.06 25.34 21.85 23.21 19.91 20.86 C 18.18 15.73 17.43 10.31 15.74 5.15 C 15.18 3.10 11.65 3.97 12.09 6.04 Z" />
</g>
<g id="#000000ff">
<path fill="#000000" opacity="1.00" d=" M 12.09 6.04 C 11.65 3.97 15.18 3.10 15.74 5.15 C 17.43 10.31 18.18 15.73 19.91 20.86 C 21.85 23.21 24.06 25.34 26.30 27.40 C 26.56 27.43 27.06 27.48 27.32 27.50 C 23.71 25.54 23.16 20.82 25.50 17.67 C 24.87 15.96 22.82 13.37 25.23 12.11 C 27.73 11.31 28.15 14.57 29.40 15.97 C 31.17 16.55 31.36 14.21 32.27 13.24 C 32.93 11.23 36.06 11.89 36.00 13.95 C 35.63 15.24 35.03 16.45 34.50 17.68 C 36.96 20.89 35.96 25.01 33.12 27.58 C 35.69 25.63 38.07 23.40 40.08 20.89 C 41.81 15.77 42.55 10.36 44.24 5.22 C 44.70 3.11 48.33 3.92 47.91 6.01 C 47.01 11.05 45.48 15.97 44.33 20.96 C 43.92 23.63 41.53 25.18 39.84 27.02 C 41.52 26.72 43.21 26.43 44.90 26.14 C 48.01 21.82 50.99 17.40 54.20 13.15 C 54.91 11.67 57.22 11.56 57.87 13.17 C 58.46 14.46 57.21 15.55 56.65 16.58 C 53.65 20.64 50.83 24.83 47.79 28.86 C 46.54 30.57 44.06 30.09 42.28 30.75 C 46.75 32.96 51.38 30.42 55.95 30.10 C 58.06 29.64 58.89 33.16 56.83 33.75 C 53.27 34.65 49.66 35.47 46.01 35.90 C 43.94 35.62 42.02 34.76 40.04 34.13 C 41.92 36.50 44.11 38.65 45.72 41.21 C 46.79 45.40 47.36 49.73 47.92 54.02 C 48.19 55.74 45.70 56.68 44.61 55.46 C 42.35 50.56 43.99 44.22 39.96 40.09 C 38.48 44.62 35.30 49.78 29.99 49.97 C 24.73 49.72 21.49 44.63 20.04 40.09 C 16.03 44.21 17.62 50.52 15.42 55.43 C 14.32 56.69 11.80 55.76 12.08 54.01 C 12.64 49.72 13.21 45.40 14.28 41.20 C 15.92 38.66 18.09 36.51 19.96 34.13 C 17.34 34.87 14.72 36.47 11.93 35.63 C 9.01 35.04 6.05 34.61 3.20 33.74 C 1.50 33.28 1.67 30.71 3.18 30.10 C 8.07 30.04 12.96 33.13 17.72 30.75 C 15.69 30.12 12.91 30.50 11.76 28.30 C 8.70 24.00 5.57 19.75 2.58 15.40 C 1.33 14.28 2.18 11.80 3.95 12.07 C 5.37 11.77 5.88 13.56 6.72 14.34 C 9.53 18.28 12.33 22.24 15.15 26.17 C 16.82 26.44 18.49 26.72 20.16 27.00 C 18.47 25.16 16.08 23.62 15.67 20.96 C 14.52 15.98 13.00 11.07 12.09 6.04 Z" />
</g>
</svg>
