<?xml version="1.0" encoding="UTF-8" ?>
<!DOCTYPE svg PUBLIC "-//W3C//DTD SVG 1.1//EN" "http://www.w3.org/Graphics/SVG/1.1/DTD/svg11.dtd">
<svg width="60pt" height="60pt" viewBox="0 0 60 60" version="1.1" xmlns="http://www.w3.org/2000/svg">
<g id="#ffffffff">
<path fill="#ffffff" opacity="1.00" d=" M 0.00 0.00 L 60.00 0.00 L 60.00 60.00 L 0.00 60.00 L 0.00 0.00 M 45.23 4.11 C 43.68 5.55 42.70 7.79 40.49 8.34 C 38.42 9.32 35.60 9.39 34.12 11.25 C 34.35 15.68 36.15 19.90 37.00 24.25 C 32.50 25.69 29.11 29.40 28.04 33.99 C 25.81 33.99 23.58 33.99 21.35 33.99 C 19.54 29.38 17.77 24.76 15.88 20.18 C 17.20 19.82 19.21 20.30 19.86 18.73 C 20.43 17.57 19.39 15.92 18.05 16.10 C 14.96 16.12 11.38 15.32 8.56 16.66 C 6.65 18.82 9.74 20.34 11.68 20.26 C 13.46 24.77 15.16 29.31 17.03 33.78 C 14.26 33.98 11.16 35.14 10.32 38.08 C 8.72 42.12 12.77 46.93 17.02 45.83 C 21.20 44.77 25.18 43.04 29.30 41.75 C 32.39 46.87 38.81 49.33 44.50 47.26 C 45.01 48.02 45.52 48.78 46.02 49.54 C 44.39 50.29 42.94 52.86 45.24 53.81 C 47.92 54.00 51.02 54.59 53.46 53.35 C 55.18 51.43 52.66 49.75 50.83 49.75 C 49.83 48.23 48.87 46.69 47.93 45.13 C 50.98 41.98 52.85 37.46 51.61 33.08 C 50.47 28.12 45.96 24.69 41.07 23.93 C 40.13 20.38 39.27 16.82 38.39 13.26 C 41.89 12.20 45.91 11.16 47.44 7.41 C 48.90 5.87 47.24 3.23 45.23 4.11 M 9.17 50.18 C 7.62 50.82 7.61 53.22 9.20 53.82 C 13.05 54.15 16.95 54.15 20.80 53.82 C 22.39 53.20 22.40 50.79 20.80 50.18 C 16.94 49.86 13.03 49.85 9.17 50.18 Z" />
<path fill="#ffffff" opacity="1.00" d=" M 35.42 29.44 C 39.07 26.73 44.86 28.04 46.96 32.08 C 49.43 36.17 47.22 42.10 42.65 43.53 C 39.16 44.90 35.48 43.11 33.12 40.52 C 35.88 39.45 38.76 38.68 41.43 37.39 C 42.42 36.41 42.03 34.86 40.91 34.18 C 37.98 33.85 35.02 34.00 32.08 33.95 C 33.02 32.34 33.78 30.48 35.42 29.44 Z" />
<path fill="#ffffff" opacity="1.00" d=" M 15.26 38.17 C 17.55 37.07 19.13 40.83 16.85 41.90 C 14.46 42.97 12.76 39.03 15.26 38.17 Z" />
</g>
<g id="#000000ff">
<path fill="#968176" opacity="1.00" d=" M 45.23 4.11 C 47.24 3.23 48.90 5.87 47.44 7.41 C 45.91 11.16 41.89 12.20 38.39 13.26 C 39.27 16.82 40.13 20.38 41.07 23.93 C 45.96 24.69 50.47 28.12 51.61 33.08 C 52.85 37.46 50.98 41.98 47.93 45.13 C 48.87 46.69 49.83 48.23 50.83 49.75 C 52.66 49.75 55.18 51.43 53.46 53.35 C 51.02 54.59 47.92 54.00 45.24 53.81 C 42.94 52.86 44.39 50.29 46.02 49.54 C 45.52 48.78 45.01 48.02 44.50 47.26 C 38.81 49.33 32.39 46.87 29.30 41.75 C 25.18 43.04 21.20 44.77 17.02 45.83 C 12.77 46.93 8.72 42.12 10.32 38.08 C 11.16 35.14 14.26 33.98 17.03 33.78 C 15.16 29.31 13.46 24.77 11.68 20.26 C 9.74 20.34 6.65 18.82 8.56 16.66 C 11.38 15.32 14.96 16.12 18.05 16.10 C 19.39 15.92 20.43 17.57 19.86 18.73 C 19.21 20.30 17.20 19.82 15.88 20.18 C 17.77 24.76 19.54 29.38 21.35 33.99 C 23.58 33.99 25.81 33.99 28.04 33.99 C 29.11 29.40 32.50 25.69 37.00 24.25 C 36.15 19.90 34.35 15.68 34.12 11.25 C 35.60 9.39 38.42 9.32 40.49 8.34 C 42.70 7.79 43.68 5.55 45.23 4.11 M 35.42 29.44 C 33.78 30.48 33.02 32.34 32.08 33.95 C 35.02 34.00 37.98 33.85 40.91 34.18 C 42.03 34.86 42.42 36.41 41.43 37.39 C 38.76 38.68 35.88 39.45 33.12 40.52 C 35.48 43.11 39.16 44.90 42.65 43.53 C 47.22 42.10 49.43 36.17 46.96 32.08 C 44.86 28.04 39.07 26.73 35.42 29.44 M 15.26 38.17 C 12.76 39.03 14.46 42.97 16.85 41.90 C 19.13 40.83 17.55 37.07 15.26 38.17 Z" />
<path fill="#968176" opacity="1.00" d=" M 9.17 50.18 C 13.03 49.85 16.94 49.86 20.80 50.18 C 22.40 50.79 22.39 53.20 20.80 53.82 C 16.95 54.15 13.05 54.15 9.20 53.82 C 7.61 53.22 7.62 50.82 9.17 50.18 Z" />
</g>
</svg>
