<?xml version="1.0" encoding="UTF-8" ?>
<!DOCTYPE svg PUBLIC "-//W3C//DTD SVG 1.1//EN" "http://www.w3.org/Graphics/SVG/1.1/DTD/svg11.dtd">
<svg width="64pt" height="64pt" viewBox="0 0 64 64" version="1.1" xmlns="http://www.w3.org/2000/svg">
<g id="#ffffffff">
<path fill="#ffffff" opacity="1.00" d=" M 0.00 0.00 L 64.00 0.00 L 64.00 64.00 L 0.00 64.00 L 0.00 0.00 M 52.60 6.58 C 50.47 8.71 48.35 10.84 46.21 12.96 C 42.39 13.25 37.86 12.81 34.92 15.79 C 31.70 18.93 28.54 22.13 25.37 25.32 C 22.49 27.95 22.63 32.11 22.38 35.68 C 20.66 36.25 18.47 36.94 18.27 39.09 C 17.99 42.02 15.44 43.72 13.49 45.59 C 11.68 47.36 8.24 46.95 6.87 44.82 C 5.84 43.24 6.65 41.42 7.02 39.79 C 8.68 39.92 10.34 40.03 12.01 40.05 C 12.00 36.66 12.00 33.28 12.00 29.89 C 9.53 32.47 6.83 34.81 4.38 37.41 C 1.31 40.53 1.77 46.15 5.19 48.84 C 6.79 50.28 9.00 50.59 11.04 50.94 C 11.09 55.66 15.03 60.26 20.00 59.64 C 25.49 58.91 28.12 53.21 32.10 50.00 C 28.72 50.00 25.33 50.00 21.95 49.99 C 21.97 51.61 22.06 53.23 22.21 54.84 C 20.05 56.02 16.83 56.08 15.73 53.45 C 13.92 49.52 18.04 46.78 20.50 44.47 C 23.30 44.05 25.91 42.71 26.33 39.62 C 29.19 39.39 32.26 39.49 34.85 38.07 C 36.97 36.67 38.60 34.67 40.38 32.88 C 41.28 35.61 42.23 38.64 44.79 40.28 C 47.44 42.23 51.34 41.99 53.80 39.83 C 57.14 36.94 57.97 32.21 57.97 28.01 C 58.02 22.45 55.04 17.43 51.39 13.45 C 52.75 12.12 54.07 10.75 55.42 9.41 C 54.50 8.46 53.56 7.51 52.60 6.58 Z" />
<path fill="#ffffff" opacity="1.00" d=" M 37.11 18.80 C 39.58 17.60 42.29 17.06 45.02 16.92 C 44.95 19.65 44.43 22.35 43.25 24.82 C 41.17 22.85 39.13 20.84 37.11 18.80 Z" />
<path fill="#ffffff" opacity="1.00" d=" M 49.10 16.92 C 52.17 20.84 54.84 25.62 53.82 30.79 C 53.50 33.82 51.91 38.39 48.04 37.56 C 44.80 36.27 44.48 32.32 44.00 29.36 C 48.01 26.47 49.11 21.61 49.10 16.92 Z" />
<path fill="#ffffff" opacity="1.00" d=" M 34.43 21.86 C 36.37 23.70 38.25 25.58 40.18 27.42 C 39.14 28.51 38.09 29.58 37.02 30.64 C 35.12 28.78 33.22 26.91 31.32 25.05 C 32.36 23.99 33.39 22.92 34.43 21.86 Z" />
<path fill="#ffffff" opacity="1.00" d=" M 28.10 27.68 C 30.33 29.59 32.44 31.65 34.37 33.87 C 31.82 34.96 29.10 35.53 26.34 35.67 C 26.47 32.93 27.02 30.22 28.10 27.68 Z" />
</g>
<g id="#000000ff">
<path fill="#000000" opacity="1.00" d=" M 52.60 6.58 C 53.56 7.51 54.50 8.46 55.42 9.41 C 54.07 10.75 52.75 12.12 51.39 13.45 C 55.04 17.43 58.02 22.45 57.97 28.01 C 57.97 32.21 57.14 36.94 53.80 39.83 C 51.34 41.99 47.44 42.23 44.79 40.28 C 42.23 38.64 41.28 35.61 40.38 32.88 C 38.60 34.67 36.97 36.67 34.85 38.07 C 32.26 39.49 29.19 39.39 26.33 39.62 C 25.91 42.71 23.30 44.05 20.50 44.47 C 18.04 46.78 13.92 49.52 15.73 53.45 C 16.83 56.08 20.05 56.02 22.21 54.84 C 22.06 53.23 21.97 51.61 21.95 49.99 C 25.33 50.00 28.72 50.00 32.10 50.00 C 28.12 53.21 25.49 58.91 20.00 59.64 C 15.03 60.26 11.09 55.66 11.04 50.94 C 9.00 50.59 6.79 50.28 5.19 48.84 C 1.77 46.15 1.31 40.53 4.38 37.41 C 6.83 34.81 9.53 32.47 12.00 29.89 C 12.00 33.28 12.00 36.66 12.01 40.05 C 10.34 40.03 8.68 39.92 7.02 39.79 C 6.65 41.42 5.84 43.24 6.87 44.82 C 8.24 46.95 11.68 47.36 13.49 45.59 C 15.44 43.72 17.99 42.02 18.27 39.09 C 18.47 36.94 20.66 36.25 22.38 35.68 C 22.63 32.11 22.49 27.95 25.37 25.32 C 28.54 22.13 31.70 18.93 34.92 15.79 C 37.86 12.81 42.39 13.25 46.21 12.96 C 48.35 10.84 50.47 8.71 52.60 6.58 M 37.11 18.80 C 39.13 20.84 41.17 22.85 43.25 24.82 C 44.43 22.35 44.95 19.65 45.02 16.92 C 42.29 17.06 39.58 17.60 37.11 18.80 M 49.10 16.92 C 49.11 21.61 48.01 26.47 44.00 29.36 C 44.48 32.32 44.80 36.27 48.04 37.56 C 51.91 38.39 53.50 33.82 53.82 30.79 C 54.84 25.62 52.17 20.84 49.10 16.92 M 34.43 21.86 C 33.39 22.92 32.36 23.99 31.32 25.05 C 33.22 26.91 35.12 28.78 37.02 30.64 C 38.09 29.58 39.14 28.51 40.18 27.42 C 38.25 25.58 36.37 23.70 34.43 21.86 M 28.10 27.68 C 27.02 30.22 26.47 32.93 26.34 35.67 C 29.10 35.53 31.82 34.96 34.37 33.87 C 32.44 31.65 30.33 29.59 28.10 27.68 Z" />
</g>
</svg>
