<?xml version="1.0" encoding="UTF-8" ?>
<!DOCTYPE svg PUBLIC "-//W3C//DTD SVG 1.1//EN" "http://www.w3.org/Graphics/SVG/1.1/DTD/svg11.dtd">
<svg width="64pt" height="64pt" viewBox="0 0 64 64" version="1.1" xmlns="http://www.w3.org/2000/svg">
<g id="#ffffffff">
<path fill="#ffffff" opacity="1.00" d=" M 0.00 0.00 L 64.00 0.00 L 64.00 64.00 L 0.00 64.00 L 0.00 0.00 M 12.42 8.04 C 11.66 12.69 10.86 17.34 9.95 21.96 C 11.29 21.95 13.96 21.92 15.29 21.91 C 15.59 19.50 16.18 14.68 16.48 12.27 C 26.97 11.58 37.50 12.01 48.01 11.97 C 47.99 25.31 47.98 38.66 48.01 52.00 C 37.35 51.99 26.68 51.99 16.02 52.00 C 16.01 49.33 15.99 46.67 15.98 44.01 C 14.65 44.00 13.33 44.00 12.00 44.00 C 12.00 48.00 12.00 52.01 12.00 56.01 C 25.33 55.98 38.67 55.98 52.00 56.01 C 51.99 40.00 51.99 23.99 52.01 7.98 C 38.81 8.02 25.61 8.01 12.42 8.04 M 22.00 18.00 C 22.00 22.00 22.00 26.00 22.00 30.00 C 28.67 30.00 35.33 29.99 42.00 30.00 C 42.00 26.00 42.00 22.00 42.00 18.00 C 35.33 18.00 28.67 18.00 22.00 18.00 M 12.32 24.13 C 11.47 26.72 10.53 29.28 9.68 31.88 C 11.27 31.91 14.44 31.98 16.02 32.02 C 16.00 29.33 15.97 26.64 15.96 23.95 C 14.74 24.01 13.53 24.07 12.32 24.13 M 12.32 34.13 C 11.47 36.72 10.53 39.28 9.68 41.88 C 11.27 41.91 14.44 41.98 16.02 42.02 C 16.00 39.33 15.97 36.64 15.96 33.95 C 14.74 34.01 13.53 34.07 12.32 34.13 M 22.00 34.00 C 22.00 35.33 22.00 36.67 22.00 38.00 C 28.67 38.00 35.33 38.00 42.00 38.00 C 42.00 36.67 42.00 35.33 42.00 34.00 C 35.33 34.00 28.67 34.00 22.00 34.00 M 22.00 42.00 C 22.00 43.33 22.00 44.67 22.00 46.00 C 28.67 46.00 35.33 46.00 42.00 46.00 C 42.00 44.67 42.00 43.33 42.00 42.00 C 35.33 42.00 28.67 42.00 22.00 42.00 Z" />
<path fill="#ffffff" opacity="1.00" d=" M 26.00 22.00 C 30.00 22.00 34.00 22.00 38.00 22.00 C 38.00 23.33 38.00 24.67 38.00 26.00 C 34.00 26.00 30.00 26.00 26.00 26.00 C 26.00 24.67 26.00 23.33 26.00 22.00 Z" />
</g>
<g id="#000000ff">
<path fill="#000000" opacity="1.00" d=" M 12.42 8.04 C 25.61 8.01 38.81 8.02 52.01 7.98 C 51.99 23.99 51.99 40.00 52.00 56.01 C 38.67 55.98 25.33 55.98 12.00 56.01 C 12.00 52.01 12.00 48.00 12.00 44.00 C 13.33 44.00 14.65 44.00 15.98 44.01 C 15.99 46.67 16.01 49.33 16.02 52.00 C 26.68 51.99 37.35 51.99 48.01 52.00 C 47.98 38.66 47.99 25.31 48.01 11.97 C 37.50 12.01 26.97 11.58 16.48 12.27 C 16.18 14.68 15.59 19.50 15.29 21.91 C 13.96 21.92 11.29 21.95 9.95 21.96 C 10.86 17.34 11.66 12.69 12.42 8.04 Z" />
<path fill="#000000" opacity="1.00" d=" M 22.00 18.00 C 28.67 18.00 35.33 18.00 42.00 18.00 C 42.00 22.00 42.00 26.00 42.00 30.00 C 35.33 29.99 28.67 30.00 22.00 30.00 C 22.00 26.00 22.00 22.00 22.00 18.00 M 26.00 22.00 C 26.00 23.33 26.00 24.67 26.00 26.00 C 30.00 26.00 34.00 26.00 38.00 26.00 C 38.00 24.67 38.00 23.33 38.00 22.00 C 34.00 22.00 30.00 22.00 26.00 22.00 Z" />
<path fill="#000000" opacity="1.00" d=" M 12.32 24.13 C 13.53 24.07 14.74 24.01 15.96 23.95 C 15.97 26.64 16.00 29.33 16.02 32.02 C 14.44 31.98 11.27 31.91 9.68 31.88 C 10.53 29.28 11.47 26.72 12.32 24.13 Z" />
<path fill="#000000" opacity="1.00" d=" M 12.32 34.13 C 13.53 34.07 14.74 34.01 15.96 33.95 C 15.97 36.64 16.00 39.33 16.02 42.02 C 14.44 41.98 11.27 41.91 9.68 41.88 C 10.53 39.28 11.47 36.72 12.32 34.13 Z" />
<path fill="#000000" opacity="1.00" d=" M 22.00 34.00 C 28.67 34.00 35.33 34.00 42.00 34.00 C 42.00 35.33 42.00 36.67 42.00 38.00 C 35.33 38.00 28.67 38.00 22.00 38.00 C 22.00 36.67 22.00 35.33 22.00 34.00 Z" />
<path fill="#000000" opacity="1.00" d=" M 22.00 42.00 C 28.67 42.00 35.33 42.00 42.00 42.00 C 42.00 43.33 42.00 44.67 42.00 46.00 C 35.33 46.00 28.67 46.00 22.00 46.00 C 22.00 44.67 22.00 43.33 22.00 42.00 Z" />
</g>
</svg>
