<?xml version="1.0" encoding="UTF-8" ?>
<!DOCTYPE svg PUBLIC "-//W3C//DTD SVG 1.1//EN" "http://www.w3.org/Graphics/SVG/1.1/DTD/svg11.dtd">
<svg width="64pt" height="64pt" viewBox="0 0 64 64" version="1.1" xmlns="http://www.w3.org/2000/svg">
<g id="#ffffffff">
<path fill="#ffffff" opacity="1.00" d=" M 0.00 0.00 L 64.00 0.00 L 64.00 64.00 L 0.00 64.00 L 0.00 0.00 M 21.96 4.78 C 20.11 5.72 19.43 7.77 18.72 9.58 C 15.20 9.46 11.60 12.30 12.05 16.04 C 13.09 22.57 15.21 28.90 16.18 35.46 C 14.17 33.69 11.91 31.36 8.93 32.11 C 4.66 32.66 2.42 38.40 5.30 41.64 C 8.61 45.35 12.33 48.68 15.77 52.28 C 18.92 55.45 22.20 59.19 26.90 59.81 C 30.95 60.17 35.05 60.07 39.11 59.88 C 44.90 59.56 50.10 55.13 51.50 49.54 C 52.49 44.43 51.79 39.19 51.99 34.03 C 51.96 29.60 53.76 25.43 53.94 21.03 C 53.86 17.55 50.52 15.29 47.27 15.22 C 47.67 12.77 48.03 9.90 46.07 7.98 C 43.49 4.88 37.96 5.65 36.37 9.35 C 35.08 12.90 34.71 16.69 33.81 20.35 C 32.61 16.18 31.79 11.91 30.38 7.81 C 29.26 4.50 24.93 2.94 21.96 4.78 Z" />
<path fill="#ffffff" opacity="1.00" d=" M 23.04 10.03 C 22.59 7.94 26.23 7.19 26.66 9.23 C 28.76 16.19 30.36 23.31 32.26 30.33 C 33.45 30.34 34.65 30.33 35.84 30.33 C 37.28 23.96 38.28 17.48 39.93 11.16 C 40.53 9.21 43.71 9.90 43.61 11.90 C 42.67 18.20 41.15 24.42 40.00 30.69 C 41.31 30.94 42.62 31.19 43.94 31.43 C 44.79 27.72 45.13 23.87 46.41 20.27 C 47.16 18.78 49.82 19.33 49.94 21.04 C 49.35 26.38 47.53 31.59 47.98 37.03 C 47.70 42.40 49.37 48.89 45.03 53.09 C 41.09 57.15 35.02 55.80 29.97 56.00 C 27.01 56.23 24.17 54.98 22.13 52.86 C 17.62 48.36 13.00 43.96 8.59 39.37 C 6.97 37.96 8.83 35.20 10.76 36.11 C 14.06 38.88 16.84 42.22 20.00 45.15 C 19.92 41.38 20.18 37.61 19.90 33.84 C 19.00 27.50 16.81 21.40 16.05 15.04 C 16.66 13.60 18.48 13.04 19.54 14.37 C 21.23 19.86 22.13 25.55 23.50 31.12 C 24.81 30.83 26.12 30.54 27.44 30.25 C 26.03 23.50 24.24 16.82 23.04 10.03 Z" />
</g>
<g id="#000000ff">
<path fill="#000000" opacity="1.00" d=" M 21.96 4.78 C 24.93 2.94 29.26 4.50 30.38 7.81 C 31.79 11.91 32.61 16.18 33.81 20.35 C 34.71 16.69 35.08 12.90 36.37 9.35 C 37.96 5.65 43.49 4.88 46.07 7.98 C 48.03 9.90 47.67 12.77 47.27 15.22 C 50.52 15.29 53.86 17.55 53.94 21.03 C 53.76 25.43 51.96 29.60 51.99 34.03 C 51.79 39.19 52.49 44.43 51.50 49.54 C 50.10 55.13 44.90 59.56 39.11 59.88 C 35.05 60.07 30.95 60.17 26.90 59.81 C 22.20 59.19 18.92 55.45 15.77 52.28 C 12.33 48.68 8.61 45.35 5.30 41.64 C 2.42 38.40 4.66 32.66 8.93 32.11 C 11.91 31.36 14.17 33.69 16.18 35.46 C 15.21 28.90 13.09 22.57 12.05 16.04 C 11.60 12.30 15.20 9.46 18.72 9.58 C 19.43 7.77 20.11 5.72 21.96 4.78 M 23.04 10.03 C 24.24 16.82 26.03 23.50 27.44 30.25 C 26.12 30.54 24.81 30.83 23.50 31.12 C 22.13 25.55 21.23 19.86 19.54 14.37 C 18.48 13.04 16.66 13.60 16.05 15.04 C 16.81 21.40 19.00 27.50 19.90 33.84 C 20.18 37.61 19.92 41.38 20.00 45.15 C 16.84 42.22 14.06 38.88 10.76 36.11 C 8.83 35.20 6.97 37.96 8.59 39.37 C 13.00 43.96 17.62 48.36 22.13 52.86 C 24.17 54.98 27.01 56.23 29.97 56.00 C 35.02 55.80 41.09 57.15 45.03 53.09 C 49.37 48.89 47.70 42.40 47.98 37.03 C 47.53 31.59 49.35 26.38 49.94 21.04 C 49.82 19.33 47.16 18.78 46.41 20.27 C 45.13 23.87 44.79 27.72 43.94 31.43 C 42.62 31.19 41.31 30.94 40.00 30.69 C 41.15 24.42 42.67 18.20 43.61 11.90 C 43.71 9.90 40.53 9.21 39.93 11.16 C 38.28 17.48 37.28 23.96 35.84 30.33 C 34.65 30.33 33.45 30.34 32.26 30.33 C 30.36 23.31 28.76 16.19 26.66 9.23 C 26.23 7.19 22.59 7.94 23.04 10.03 Z" />
</g>
</svg>
