<?xml version="1.0" encoding="UTF-8" ?>
<!DOCTYPE svg PUBLIC "-//W3C//DTD SVG 1.1//EN" "http://www.w3.org/Graphics/SVG/1.1/DTD/svg11.dtd">
<svg width="60pt" height="60pt" viewBox="0 0 60 60" version="1.1" xmlns="http://www.w3.org/2000/svg">
<g id="#ffffffff">
<path fill="#ffffff" opacity="1.00" d=" M 0.00 0.00 L 60.00 0.00 L 60.00 60.00 L 0.00 60.00 L 0.00 0.00 M 27.86 5.90 C 24.84 5.49 22.27 7.25 21.66 10.22 C 20.43 11.13 18.84 11.58 17.91 12.87 C 15.26 15.81 16.13 20.03 15.99 23.64 C 16.50 24.01 17.52 24.73 18.03 25.09 C 18.09 26.60 17.14 27.62 16.04 28.50 C 16.00 35.03 15.93 41.56 16.05 48.08 C 15.96 51.17 18.72 53.98 21.81 53.93 C 27.23 54.07 32.65 54.04 38.07 53.95 C 41.18 54.02 43.99 51.26 43.94 48.15 C 44.12 41.56 43.92 34.96 44.01 28.36 C 43.50 28.00 42.48 27.28 41.97 26.92 C 41.87 25.39 42.91 24.43 43.94 23.48 C 44.63 18.43 43.91 12.14 38.34 10.23 C 37.72 7.23 35.18 5.48 32.13 5.90 C 31.94 4.41 32.12 2.05 30.01 1.97 C 27.86 2.02 28.08 4.40 27.86 5.90 Z" />
<path fill="#ffffff" opacity="1.00" d=" M 20.01 21.60 C 19.87 18.90 19.59 14.77 23.08 14.14 C 27.70 13.88 32.37 13.88 36.99 14.15 C 39.74 14.64 40.11 17.72 40.12 20.00 C 34.79 19.98 29.46 20.04 24.13 19.97 C 25.51 22.56 26.57 25.52 25.67 28.47 C 22.44 34.51 24.76 41.55 23.89 48.05 C 24.08 49.52 22.38 50.19 21.17 49.92 C 19.71 49.12 20.12 47.40 19.98 46.02 C 20.03 40.81 19.94 35.60 20.05 30.39 C 22.46 27.87 22.47 24.09 20.01 21.60 Z" />
</g>
<g id="#000000ff">
<path fill="#000000" opacity="1.00" d=" M 27.86 5.90 C 28.08 4.40 27.86 2.02 30.01 1.97 C 32.12 2.05 31.94 4.41 32.13 5.90 C 35.18 5.48 37.72 7.23 38.34 10.23 C 43.91 12.14 44.63 18.43 43.94 23.48 C 42.91 24.43 41.87 25.39 41.97 26.92 C 42.48 27.28 43.50 28.00 44.01 28.36 C 43.92 34.96 44.12 41.56 43.94 48.15 C 43.99 51.26 41.18 54.02 38.07 53.95 C 32.65 54.04 27.23 54.07 21.81 53.93 C 18.72 53.98 15.96 51.17 16.05 48.08 C 15.93 41.56 16.00 35.03 16.04 28.50 C 17.14 27.62 18.09 26.60 18.03 25.09 C 17.52 24.73 16.50 24.01 15.99 23.64 C 16.13 20.03 15.26 15.81 17.91 12.87 C 18.84 11.58 20.43 11.13 21.66 10.22 C 22.27 7.25 24.84 5.49 27.86 5.90 M 20.01 21.60 C 22.47 24.09 22.46 27.87 20.05 30.39 C 19.94 35.60 20.03 40.81 19.98 46.02 C 20.12 47.40 19.71 49.12 21.17 49.92 C 22.38 50.19 24.08 49.52 23.89 48.05 C 24.76 41.55 22.44 34.51 25.67 28.47 C 26.57 25.52 25.51 22.56 24.13 19.97 C 29.46 20.04 34.79 19.98 40.12 20.00 C 40.11 17.72 39.74 14.64 36.99 14.15 C 32.37 13.88 27.70 13.88 23.08 14.14 C 19.59 14.77 19.87 18.90 20.01 21.60 Z" />
</g>
</svg>
