<?xml version="1.0" encoding="UTF-8" ?>
<!DOCTYPE svg PUBLIC "-//W3C//DTD SVG 1.1//EN" "http://www.w3.org/Graphics/SVG/1.1/DTD/svg11.dtd">
<svg width="64pt" height="64pt" viewBox="0 0 64 64" version="1.1" xmlns="http://www.w3.org/2000/svg">
<g id="#ffffffff">
<path fill="#ffffff" opacity="1.00" d=" M 0.00 0.00 L 64.00 0.00 L 64.00 64.00 L 0.00 64.00 L 0.00 0.00 M 24.00 4.00 C 24.00 8.00 24.00 11.99 24.00 15.99 C 25.45 16.00 26.91 16.01 28.36 16.04 C 28.19 16.50 27.83 17.42 27.65 17.88 C 23.13 19.13 18.79 21.23 15.98 25.15 C 16.03 36.77 15.99 48.39 16.00 60.00 C 25.33 60.00 34.67 60.00 44.00 60.00 C 44.02 48.39 43.96 36.79 44.03 25.18 C 41.85 22.64 39.37 20.11 36.04 19.19 C 34.29 18.49 31.74 18.48 31.64 16.04 C 33.09 16.01 34.55 16.00 36.00 15.99 C 36.00 11.99 36.00 8.00 36.00 4.00 C 32.00 4.00 28.00 4.00 24.00 4.00 M 47.21 4.11 C 44.83 5.16 46.41 8.86 48.85 7.90 C 51.09 6.76 49.60 3.14 47.21 4.11 M 41.13 8.11 C 38.90 9.28 40.40 12.83 42.82 11.89 C 45.16 10.78 43.56 7.11 41.13 8.11 M 47.14 12.11 C 44.82 13.32 46.49 16.87 48.93 15.90 C 51.08 14.60 49.53 11.16 47.14 12.11 Z" />
<path fill="#ffffff" opacity="1.00" d=" M 28.00 8.00 C 29.33 8.00 30.67 8.00 32.00 8.00 C 32.00 9.33 32.00 10.67 32.00 12.00 C 30.67 12.00 29.33 12.00 28.00 12.00 C 28.00 10.67 28.00 9.33 28.00 8.00 Z" />
<path fill="#ffffff" opacity="1.00" d=" M 22.41 23.78 C 27.18 21.48 32.84 21.46 37.58 23.84 C 32.53 24.08 27.46 24.14 22.41 23.78 Z" />
<path fill="#ffffff" opacity="1.00" d=" M 20.00 28.00 C 26.67 28.00 33.33 28.00 40.00 28.00 C 40.00 37.33 40.00 46.67 40.00 56.00 C 33.33 56.00 26.67 56.00 20.00 56.00 C 20.00 46.67 20.00 37.33 20.00 28.00 M 27.46 36.57 C 23.51 38.23 22.81 44.19 26.29 46.68 C 29.60 49.59 35.34 47.31 35.90 42.99 C 36.89 38.47 31.57 34.38 27.46 36.57 Z" />
<path fill="#ffffff" opacity="1.00" d=" M 29.12 40.08 C 31.49 39.05 33.25 42.83 30.80 43.79 C 28.51 45.02 26.84 41.24 29.12 40.08 Z" />
</g>
<g id="#000000ff">
<path fill="#000000" opacity="1.00" d=" M 24.00 4.00 C 28.00 4.00 32.00 4.00 36.00 4.00 C 36.00 8.00 36.00 11.99 36.00 15.99 C 34.55 16.00 33.09 16.01 31.64 16.04 C 31.74 18.48 34.29 18.49 36.04 19.19 C 39.37 20.11 41.85 22.64 44.03 25.18 C 43.96 36.79 44.02 48.39 44.00 60.00 C 34.67 60.00 25.33 60.00 16.00 60.00 C 15.99 48.39 16.03 36.77 15.98 25.15 C 18.79 21.23 23.13 19.13 27.65 17.88 C 27.83 17.42 28.19 16.50 28.36 16.04 C 26.91 16.01 25.45 16.00 24.00 15.99 C 24.00 11.99 24.00 8.00 24.00 4.00 M 28.00 8.00 C 28.00 9.33 28.00 10.67 28.00 12.00 C 29.33 12.00 30.67 12.00 32.00 12.00 C 32.00 10.67 32.00 9.33 32.00 8.00 C 30.67 8.00 29.33 8.00 28.00 8.00 M 22.41 23.78 C 27.46 24.14 32.53 24.08 37.58 23.84 C 32.84 21.46 27.18 21.48 22.41 23.78 M 20.00 28.00 C 20.00 37.33 20.00 46.67 20.00 56.00 C 26.67 56.00 33.33 56.00 40.00 56.00 C 40.00 46.67 40.00 37.33 40.00 28.00 C 33.33 28.00 26.67 28.00 20.00 28.00 Z" />
<path fill="#000000" opacity="1.00" d=" M 47.21 4.11 C 49.60 3.14 51.09 6.76 48.85 7.90 C 46.41 8.86 44.83 5.16 47.21 4.11 Z" />
<path fill="#000000" opacity="1.00" d=" M 41.13 8.11 C 43.56 7.11 45.16 10.78 42.82 11.89 C 40.40 12.83 38.90 9.28 41.13 8.11 Z" />
<path fill="#000000" opacity="1.00" d=" M 47.14 12.11 C 49.53 11.16 51.08 14.60 48.93 15.90 C 46.49 16.87 44.82 13.32 47.14 12.11 Z" />
<path fill="#000000" opacity="1.00" d=" M 27.46 36.57 C 31.57 34.38 36.89 38.47 35.90 42.99 C 35.34 47.31 29.60 49.59 26.29 46.68 C 22.81 44.19 23.51 38.23 27.46 36.57 M 29.12 40.08 C 26.84 41.24 28.51 45.02 30.80 43.79 C 33.25 42.83 31.49 39.05 29.12 40.08 Z" />
</g>
</svg>
