<?xml version="1.0" encoding="UTF-8" ?>
<!DOCTYPE svg PUBLIC "-//W3C//DTD SVG 1.1//EN" "http://www.w3.org/Graphics/SVG/1.1/DTD/svg11.dtd">
<svg width="60pt" height="60pt" viewBox="0 0 60 60" version="1.1" xmlns="http://www.w3.org/2000/svg">
<g id="#ffffffff">
<path fill="#ffffff" opacity="1.00" d=" M 0.00 0.00 L 60.00 0.00 L 60.00 60.00 L 0.00 60.00 L 0.00 0.00 M 35.91 16.19 C 31.69 14.06 26.78 13.44 22.19 14.64 C 22.33 11.40 18.56 8.55 15.75 10.74 C 13.20 12.34 13.75 15.93 15.91 17.61 C 9.86 21.88 6.84 29.77 8.41 37.00 C 7.18 37.44 5.95 37.88 4.72 38.31 C 7.27 39.54 9.82 40.75 12.37 41.97 C 13.58 39.43 14.81 36.90 16.02 34.36 C 15.07 34.69 13.19 35.35 12.24 35.68 C 10.77 28.26 15.77 20.34 23.11 18.54 C 30.80 16.21 39.61 21.39 41.47 29.17 C 43.97 37.44 37.73 46.78 29.19 47.81 C 21.45 48.30 13.67 47.78 5.93 48.07 C 3.38 47.90 3.46 52.19 6.00 51.94 C 20.66 52.09 35.33 51.96 50.00 52.00 C 50.00 53.00 50.00 55.00 50.00 56.00 C 52.01 53.99 54.01 51.99 56.01 49.98 C 53.99 48.00 51.98 45.99 50.00 43.97 C 50.00 45.31 50.00 46.65 50.00 48.00 C 46.22 48.01 42.45 47.98 38.67 48.02 C 46.55 42.00 48.50 29.62 42.23 21.78 C 39.67 19.20 39.05 14.55 41.69 11.82 C 44.23 9.02 49.29 9.58 51.13 12.89 C 52.32 14.67 52.01 16.88 51.44 18.81 C 50.17 18.22 48.92 17.62 47.66 17.02 C 48.58 19.68 49.49 22.35 50.40 25.01 C 53.08 24.13 55.76 23.21 58.43 22.27 C 57.28 21.71 56.13 21.15 54.98 20.59 C 55.81 18.19 56.41 15.55 55.53 13.06 C 54.07 7.98 48.18 4.77 43.13 6.45 C 38.86 7.65 36.04 11.85 35.91 16.19 Z" />
</g>
<g id="#000000ff">
<path fill="#968176" opacity="1.00" d=" M 35.91 16.19 C 36.04 11.85 38.86 7.65 43.13 6.45 C 48.18 4.77 54.07 7.98 55.53 13.06 C 56.41 15.55 55.81 18.19 54.98 20.59 C 56.13 21.15 57.28 21.71 58.43 22.27 C 55.76 23.21 53.08 24.13 50.40 25.01 C 49.49 22.35 48.58 19.68 47.66 17.02 C 48.92 17.62 50.17 18.22 51.44 18.81 C 52.01 16.88 52.32 14.67 51.13 12.89 C 49.29 9.58 44.23 9.02 41.69 11.82 C 39.05 14.55 39.67 19.20 42.23 21.78 C 48.50 29.62 46.55 42.00 38.67 48.02 C 42.45 47.98 46.22 48.01 50.00 48.00 C 50.00 46.65 50.00 45.31 50.00 43.97 C 51.98 45.99 53.99 48.00 56.01 49.98 C 54.01 51.99 52.01 53.99 50.00 56.00 C 50.00 55.00 50.00 53.00 50.00 52.00 C 35.33 51.96 20.66 52.09 6.00 51.94 C 3.46 52.19 3.38 47.90 5.93 48.07 C 13.67 47.78 21.45 48.30 29.19 47.81 C 37.73 46.78 43.97 37.44 41.47 29.17 C 39.61 21.39 30.80 16.21 23.11 18.54 C 15.77 20.34 10.77 28.26 12.24 35.68 C 13.19 35.35 15.07 34.69 16.02 34.36 C 14.81 36.90 13.58 39.43 12.37 41.97 C 9.82 40.75 7.27 39.54 4.72 38.31 C 5.95 37.88 7.18 37.44 8.41 37.00 C 6.84 29.77 9.86 21.88 15.91 17.61 C 13.75 15.93 13.20 12.34 15.75 10.74 C 18.56 8.55 22.33 11.40 22.19 14.64 C 26.78 13.44 31.69 14.06 35.91 16.19 Z" />
</g>
</svg>
