<?xml version="1.0" encoding="UTF-8" ?>
<!DOCTYPE svg PUBLIC "-//W3C//DTD SVG 1.1//EN" "http://www.w3.org/Graphics/SVG/1.1/DTD/svg11.dtd">
<svg width="60pt" height="60pt" viewBox="0 0 60 60" version="1.1" xmlns="http://www.w3.org/2000/svg">
<g id="#ffffffff">
<path fill="#ffffff" opacity="1.00" d=" M 0.00 0.00 L 60.00 0.00 L 60.00 60.00 L 0.00 60.00 L 0.00 0.00 M 21.00 14.43 C 17.28 12.63 12.45 13.62 9.94 16.95 C 6.68 20.88 7.82 27.19 12.00 30.00 C 8.29 32.55 6.81 37.91 9.17 41.85 C 11.30 46.03 16.85 47.56 21.00 45.56 C 21.33 50.12 25.35 54.07 29.98 53.98 C 34.62 54.09 38.65 50.14 39.00 45.57 C 43.16 47.57 48.68 46.01 50.84 41.85 C 53.16 37.90 51.70 32.55 47.99 30.00 C 51.71 27.44 53.17 22.07 50.82 18.12 C 48.65 13.98 43.14 12.37 39.00 14.43 C 38.66 9.87 34.64 5.91 30.01 6.02 C 25.37 5.89 21.34 9.87 21.00 14.43 Z" />
<path fill="#ffffff" opacity="1.00" d=" M 29.27 26.61 C 28.50 24.69 26.64 20.45 30.02 19.97 C 33.34 20.52 31.49 24.70 30.73 26.62 C 31.03 27.40 31.43 28.13 31.92 28.80 C 32.51 26.68 34.67 25.52 36.24 24.16 C 38.17 23.38 39.86 26.00 38.41 27.42 C 35.86 28.89 32.77 29.11 30.00 30.00 C 32.62 30.70 35.31 31.22 37.86 32.19 C 40.15 33.11 38.39 36.89 36.29 35.78 C 34.62 34.58 32.56 33.25 31.93 31.20 C 31.43 31.87 31.03 32.59 30.72 33.37 C 31.47 34.76 31.72 36.34 31.96 37.89 C 32.28 40.07 28.90 40.78 28.13 38.80 C 27.92 36.95 28.52 35.04 29.28 33.37 C 28.97 32.60 28.57 31.87 28.08 31.20 C 27.48 33.31 25.33 34.47 23.77 35.84 C 21.89 36.57 20.14 34.12 21.51 32.62 C 24.07 31.10 27.20 30.89 30.01 30.00 C 27.22 29.13 24.15 28.86 21.57 27.44 C 19.80 25.69 22.66 22.75 24.39 24.60 C 25.68 25.91 27.66 26.86 28.08 28.80 C 28.57 28.13 28.97 27.40 29.27 26.61 Z" />
</g>
<g id="#000000ff">
<path fill="#000000" opacity="1.00" d=" M 21.00 14.43 C 21.34 9.87 25.37 5.89 30.01 6.02 C 34.64 5.91 38.66 9.87 39.00 14.43 C 43.14 12.37 48.65 13.98 50.82 18.12 C 53.17 22.07 51.71 27.44 47.99 30.00 C 51.70 32.55 53.16 37.90 50.84 41.85 C 48.68 46.01 43.16 47.57 39.00 45.57 C 38.65 50.14 34.62 54.09 29.98 53.98 C 25.35 54.07 21.33 50.12 21.00 45.56 C 16.85 47.56 11.30 46.03 9.17 41.85 C 6.81 37.91 8.29 32.55 12.00 30.00 C 7.82 27.19 6.68 20.88 9.94 16.95 C 12.45 13.62 17.28 12.63 21.00 14.43 M 29.27 26.61 C 28.97 27.40 28.57 28.13 28.08 28.80 C 27.66 26.86 25.68 25.91 24.39 24.60 C 22.66 22.75 19.80 25.69 21.57 27.44 C 24.15 28.86 27.22 29.13 30.01 30.00 C 27.20 30.89 24.07 31.10 21.51 32.62 C 20.14 34.12 21.89 36.57 23.77 35.84 C 25.33 34.47 27.48 33.31 28.08 31.20 C 28.57 31.87 28.97 32.60 29.28 33.37 C 28.52 35.04 27.92 36.95 28.13 38.80 C 28.90 40.78 32.28 40.07 31.96 37.89 C 31.72 36.34 31.47 34.76 30.72 33.37 C 31.03 32.59 31.43 31.87 31.93 31.20 C 32.56 33.25 34.62 34.58 36.29 35.78 C 38.39 36.89 40.15 33.11 37.86 32.19 C 35.31 31.22 32.62 30.70 30.00 30.00 C 32.77 29.11 35.86 28.89 38.41 27.42 C 39.86 26.00 38.17 23.38 36.24 24.16 C 34.67 25.52 32.51 26.68 31.92 28.80 C 31.43 28.13 31.03 27.40 30.73 26.62 C 31.49 24.70 33.34 20.52 30.02 19.97 C 26.64 20.45 28.50 24.69 29.27 26.61 Z" />
</g>
</svg>
