<?xml version="1.0" encoding="UTF-8" ?>
<!DOCTYPE svg PUBLIC "-//W3C//DTD SVG 1.1//EN" "http://www.w3.org/Graphics/SVG/1.1/DTD/svg11.dtd">
<svg width="64pt" height="64pt" viewBox="0 0 64 64" version="1.1" xmlns="http://www.w3.org/2000/svg">
<g id="#ffffffff">
<path fill="#ffffff" opacity="1.00" d=" M 0.00 0.00 L 64.00 0.00 L 64.00 16.29 C 59.90 16.85 55.09 17.17 51.70 14.33 C 49.80 12.90 49.90 10.36 49.64 8.24 C 47.43 11.07 44.75 13.48 41.92 15.67 C 43.62 17.11 45.05 20.01 42.60 21.53 C 40.15 23.11 37.99 20.56 37.63 18.27 C 28.44 23.14 17.32 22.22 8.06 18.05 C 9.87 24.20 11.02 31.13 8.19 37.17 C 6.47 40.66 3.86 44.18 0.00 45.41 L 0.00 0.00 Z" />
<path fill="#ffffff" opacity="1.00" d=" M 64.00 37.39 C 58.02 32.53 57.93 21.58 64.00 16.70 L 64.00 37.39 Z" />
<path fill="#ffffff" opacity="1.00" d=" M 44.53 23.80 C 46.35 22.00 47.41 19.63 49.07 17.70 C 49.01 19.58 49.13 21.46 50.19 23.07 C 49.76 23.38 48.89 23.99 48.46 24.30 C 48.03 27.27 47.56 30.23 47.10 33.19 C 46.07 33.59 45.03 33.99 44.00 34.39 C 44.44 31.39 44.88 28.39 45.40 25.40 L 44.20 25.31 C 44.28 24.94 44.45 24.18 44.53 23.80 Z" />
<path fill="#ffffff" opacity="1.00" d=" M 53.46 20.55 C 54.63 19.48 56.51 18.49 57.84 19.92 C 58.57 23.13 55.98 26.30 52.87 26.83 C 53.13 27.51 53.66 28.89 53.92 29.57 C 55.97 29.47 56.83 27.10 58.29 25.94 C 57.16 28.42 55.95 31.49 53.00 32.23 C 51.11 32.62 50.01 30.66 50.02 29.05 C 49.92 25.92 51.13 22.67 53.46 20.55 M 55.33 20.98 C 54.11 22.09 53.38 23.99 53.63 25.63 C 55.21 25.58 56.60 21.88 55.33 20.98 Z" />
<path fill="#ffffff" opacity="1.00" d=" M 13.25 30.03 C 13.96 26.06 18.29 24.46 21.89 25.14 C 21.77 26.34 21.65 27.54 21.53 28.74 C 19.97 28.02 17.30 26.56 16.45 29.00 C 16.93 31.62 19.95 33.21 19.82 36.06 C 19.61 40.99 14.89 45.52 9.81 44.36 C 10.18 42.91 10.55 41.46 10.93 40.01 C 13.21 41.34 16.86 40.13 16.42 37.08 C 15.06 34.91 12.00 32.99 13.25 30.03 Z" />
<path fill="#ffffff" opacity="1.00" d=" M 39.51 25.27 C 40.11 24.90 41.32 24.16 41.92 23.80 C 41.52 27.44 41.23 31.12 40.47 34.72 C 39.87 35.09 38.68 35.83 38.08 36.20 C 38.47 32.55 38.77 28.87 39.51 25.27 Z" />
<path fill="#ffffff" opacity="1.00" d=" M 32.29 27.06 C 34.37 26.67 36.34 25.95 38.21 24.96 C 38.18 27.32 36.50 28.59 34.99 30.06 C 34.44 32.36 34.15 34.71 33.77 37.05 C 32.67 37.47 31.56 37.90 30.45 38.32 C 31.06 34.57 31.67 30.81 32.29 27.06 Z" />
<path fill="#ffffff" opacity="1.00" d=" M 22.42 30.27 C 24.66 29.76 27.40 27.66 29.48 29.54 C 31.04 33.65 28.44 38.54 24.58 40.37 C 25.27 37.68 29.36 32.44 25.40 30.68 C 24.79 33.70 24.30 36.74 24.12 39.82 C 23.67 41.48 23.31 43.17 22.97 44.86 C 21.94 45.24 20.91 45.62 19.88 46.00 C 20.71 40.76 21.58 35.51 22.42 30.27 Z" />
<path fill="#ffffff" opacity="1.00" d=" M 29.79 44.81 C 39.95 38.45 52.28 37.23 64.00 37.77 L 64.00 64.00 L 0.00 64.00 L 0.00 45.69 C 7.63 44.17 15.14 48.81 18.06 55.81 C 21.24 51.45 25.13 47.58 29.79 44.81 Z" />
</g>
<g id="#000000ff">
<path fill="#000000" opacity="1.00" d=" M 41.92 15.67 C 44.75 13.48 47.43 11.07 49.64 8.24 C 49.90 10.36 49.80 12.90 51.70 14.33 C 55.09 17.17 59.90 16.85 64.00 16.29 L 64.00 16.70 C 57.93 21.58 58.02 32.53 64.00 37.39 L 64.00 37.77 C 52.28 37.23 39.95 38.45 29.79 44.81 C 25.13 47.58 21.24 51.45 18.06 55.81 C 15.14 48.81 7.63 44.17 0.00 45.69 L 0.00 45.41 C 3.86 44.18 6.47 40.66 8.19 37.17 C 11.02 31.13 9.87 24.20 8.06 18.05 C 17.32 22.22 28.44 23.14 37.63 18.27 C 37.99 20.56 40.15 23.11 42.60 21.53 C 45.05 20.01 43.62 17.11 41.92 15.67 M 44.53 23.80 C 44.45 24.18 44.28 24.94 44.20 25.31 L 45.40 25.40 C 44.88 28.39 44.44 31.39 44.00 34.39 C 45.03 33.99 46.07 33.59 47.10 33.19 C 47.56 30.23 48.03 27.27 48.46 24.30 C 48.89 23.99 49.76 23.38 50.19 23.07 C 49.13 21.46 49.01 19.58 49.07 17.70 C 47.41 19.63 46.35 22.00 44.53 23.80 M 53.46 20.55 C 51.13 22.67 49.92 25.92 50.02 29.05 C 50.01 30.66 51.11 32.62 53.00 32.23 C 55.95 31.49 57.16 28.42 58.29 25.94 C 56.83 27.10 55.97 29.47 53.92 29.57 C 53.66 28.89 53.13 27.51 52.87 26.83 C 55.98 26.30 58.57 23.13 57.84 19.92 C 56.51 18.49 54.63 19.48 53.46 20.55 M 13.25 30.03 C 12.00 32.99 15.06 34.91 16.42 37.08 C 16.86 40.13 13.21 41.34 10.93 40.01 C 10.55 41.46 10.18 42.91 9.81 44.36 C 14.89 45.52 19.61 40.99 19.82 36.06 C 19.95 33.21 16.93 31.62 16.45 29.00 C 17.30 26.56 19.97 28.02 21.53 28.74 C 21.65 27.54 21.77 26.34 21.89 25.14 C 18.29 24.46 13.96 26.06 13.25 30.03 M 39.51 25.27 C 38.77 28.87 38.47 32.55 38.08 36.20 C 38.68 35.83 39.87 35.09 40.47 34.72 C 41.23 31.12 41.52 27.44 41.92 23.80 C 41.32 24.16 40.11 24.90 39.51 25.27 M 32.29 27.06 C 31.67 30.81 31.06 34.57 30.45 38.32 C 31.56 37.90 32.67 37.47 33.77 37.05 C 34.15 34.71 34.44 32.36 34.99 30.06 C 36.50 28.59 38.18 27.32 38.21 24.96 C 36.34 25.95 34.37 26.67 32.29 27.06 M 22.42 30.27 C 21.58 35.51 20.71 40.76 19.88 46.00 C 20.91 45.62 21.94 45.24 22.97 44.86 C 23.31 43.17 23.67 41.48 24.12 39.82 C 24.30 36.74 24.79 33.70 25.40 30.68 C 29.36 32.44 25.27 37.68 24.58 40.37 C 28.44 38.54 31.04 33.65 29.48 29.54 C 27.40 27.66 24.66 29.76 22.42 30.27 Z" />
<path fill="#000000" opacity="1.00" d=" M 55.33 20.98 C 56.60 21.88 55.21 25.58 53.63 25.63 C 53.38 23.99 54.11 22.09 55.33 20.98 Z" />
</g>
</svg>
