<?xml version="1.0" encoding="UTF-8" ?>
<!DOCTYPE svg PUBLIC "-//W3C//DTD SVG 1.1//EN" "http://www.w3.org/Graphics/SVG/1.1/DTD/svg11.dtd">
<svg width="64pt" height="64pt" viewBox="0 0 64 64" version="1.1" xmlns="http://www.w3.org/2000/svg">
<g id="#ffffffff">
<path fill="#ffffff" opacity="1.00" d=" M 0.00 0.00 L 64.00 0.00 L 64.00 64.00 L 0.00 64.00 L 0.00 0.00 M 21.47 13.65 C 16.07 12.66 10.14 15.72 8.56 21.13 C 7.16 24.91 8.64 28.84 10.79 31.99 C 8.31 35.41 7.05 40.01 8.99 43.99 C 11.00 48.80 16.49 51.19 21.47 50.35 C 23.18 55.07 27.99 58.58 33.10 57.92 C 37.46 57.58 41.00 54.32 42.53 50.35 C 47.06 51.06 52.05 49.28 54.38 45.18 C 56.98 41.09 56.14 35.62 53.09 32.00 C 56.12 28.38 56.99 22.93 54.39 18.83 C 52.07 14.70 47.06 12.94 42.53 13.65 C 40.91 9.31 36.77 5.91 32.02 6.01 C 27.25 5.89 23.08 9.30 21.47 13.65 Z" />
<path fill="#ffffff" opacity="1.00" d=" M 27.04 12.10 C 29.76 9.13 35.01 9.40 37.41 12.62 C 39.07 14.54 38.93 17.20 39.18 19.56 C 41.59 18.40 44.23 16.82 46.98 17.80 C 50.60 18.76 52.84 22.96 51.64 26.50 C 50.89 29.17 48.38 30.65 46.17 32.00 C 48.51 33.42 51.22 35.06 51.77 37.98 C 52.77 41.77 49.91 45.93 46.03 46.41 C 43.55 46.88 41.34 45.42 39.19 44.44 C 38.96 47.03 38.99 50.00 36.92 51.92 C 34.21 54.86 28.98 54.59 26.59 51.37 C 24.91 49.46 25.07 46.79 24.82 44.43 C 22.43 45.59 19.79 47.16 17.05 46.20 C 13.15 45.20 10.87 40.44 12.63 36.80 C 13.51 34.48 15.83 33.29 17.79 32.01 C 15.65 30.60 13.08 29.19 12.36 26.52 C 11.14 22.97 13.39 18.75 17.02 17.80 C 19.75 16.89 22.48 18.30 24.81 19.62 C 25.04 17.03 24.97 14.03 27.04 12.10 M 30.06 24.04 C 30.03 26.22 32.14 28.67 30.12 30.48 C 28.71 28.72 27.25 26.66 24.97 25.98 C 23.34 26.13 22.37 28.22 23.60 29.43 C 26.20 30.86 29.24 31.20 32.06 32.00 C 29.24 32.82 26.18 33.11 23.58 34.58 C 22.21 35.98 23.71 37.59 24.97 38.32 C 26.89 37.10 28.55 35.53 30.03 33.81 C 32.24 34.76 30.26 37.31 30.20 38.97 C 29.12 40.89 31.78 43.05 33.32 41.45 C 35.46 39.18 31.21 35.65 33.92 33.52 C 35.24 35.35 36.78 37.30 39.02 38.01 C 40.64 37.86 41.61 35.83 40.43 34.59 C 37.83 33.12 34.79 32.81 31.96 32.01 C 34.77 31.14 37.87 30.89 40.45 29.38 C 41.62 28.17 40.63 26.04 38.97 26.00 C 36.76 26.64 35.47 28.70 33.96 30.26 C 31.08 28.52 35.44 24.82 33.40 22.62 C 32.36 21.26 29.78 22.30 30.06 24.04 Z" />
</g>
<g id="#000000ff">
<path fill="#000000" opacity="1.00" d=" M 21.47 13.65 C 23.08 9.30 27.25 5.89 32.02 6.01 C 36.77 5.91 40.91 9.31 42.53 13.65 C 47.06 12.94 52.07 14.70 54.39 18.83 C 56.99 22.93 56.12 28.38 53.09 32.00 C 56.14 35.62 56.98 41.09 54.38 45.18 C 52.05 49.28 47.06 51.06 42.53 50.35 C 41.00 54.32 37.46 57.58 33.10 57.92 C 27.99 58.58 23.18 55.07 21.47 50.35 C 16.49 51.19 11.00 48.80 8.99 43.99 C 7.05 40.01 8.31 35.41 10.79 31.99 C 8.64 28.84 7.16 24.91 8.56 21.13 C 10.14 15.72 16.07 12.66 21.47 13.65 M 27.04 12.10 C 24.97 14.03 25.04 17.03 24.81 19.62 C 22.48 18.30 19.75 16.89 17.02 17.80 C 13.39 18.75 11.14 22.97 12.36 26.52 C 13.08 29.19 15.65 30.60 17.79 32.01 C 15.83 33.29 13.51 34.48 12.63 36.80 C 10.87 40.44 13.15 45.20 17.05 46.20 C 19.79 47.16 22.43 45.59 24.82 44.43 C 25.07 46.79 24.91 49.46 26.59 51.37 C 28.98 54.59 34.21 54.86 36.92 51.92 C 38.99 50.00 38.96 47.03 39.19 44.44 C 41.34 45.42 43.55 46.88 46.03 46.41 C 49.91 45.93 52.77 41.77 51.77 37.98 C 51.22 35.06 48.51 33.42 46.17 32.00 C 48.38 30.65 50.89 29.17 51.64 26.50 C 52.84 22.96 50.60 18.76 46.98 17.80 C 44.23 16.82 41.59 18.40 39.18 19.56 C 38.93 17.20 39.07 14.54 37.41 12.62 C 35.01 9.40 29.76 9.13 27.04 12.10 Z" />
<path fill="#000000" opacity="1.00" d=" M 30.06 24.04 C 29.78 22.30 32.36 21.26 33.40 22.62 C 35.44 24.82 31.08 28.52 33.96 30.26 C 35.47 28.70 36.76 26.64 38.97 26.00 C 40.63 26.04 41.62 28.17 40.45 29.38 C 37.87 30.89 34.77 31.14 31.96 32.01 C 34.79 32.81 37.83 33.12 40.43 34.59 C 41.61 35.83 40.64 37.86 39.02 38.01 C 36.78 37.30 35.24 35.35 33.92 33.52 C 31.21 35.65 35.46 39.18 33.32 41.45 C 31.78 43.05 29.12 40.89 30.20 38.97 C 30.26 37.31 32.24 34.76 30.03 33.81 C 28.55 35.53 26.89 37.10 24.97 38.32 C 23.71 37.59 22.21 35.98 23.58 34.58 C 26.18 33.11 29.24 32.82 32.06 32.00 C 29.24 31.20 26.20 30.86 23.60 29.43 C 22.37 28.22 23.34 26.13 24.97 25.98 C 27.25 26.66 28.71 28.72 30.12 30.48 C 32.14 28.67 30.03 26.22 30.06 24.04 Z" />
</g>
</svg>
