<?xml version="1.0" encoding="UTF-8" ?>
<!DOCTYPE svg PUBLIC "-//W3C//DTD SVG 1.1//EN" "http://www.w3.org/Graphics/SVG/1.1/DTD/svg11.dtd">
<svg width="60pt" height="60pt" viewBox="0 0 60 60" version="1.1" xmlns="http://www.w3.org/2000/svg">
<g id="#ffffffff">
<path fill="#ffffff" opacity="1.00" d=" M 0.00 0.00 L 60.00 0.00 L 60.00 60.00 L 0.00 60.00 L 0.00 0.00 M 20.06 7.26 C 17.19 11.09 16.10 15.89 14.65 20.37 C 24.88 19.87 35.13 19.87 45.35 20.37 C 43.65 15.50 42.73 9.87 38.84 6.19 C 35.05 5.08 31.62 9.15 27.91 7.44 C 25.49 6.77 21.99 4.65 20.06 7.26 M 9.95 25.02 C 7.72 25.40 3.57 25.70 4.07 28.94 C 5.47 32.32 8.69 34.50 12.00 35.75 C 11.99 37.38 11.99 39.01 11.99 40.64 C 9.92 41.61 5.30 41.50 6.15 44.84 C 8.55 47.44 11.42 49.57 13.99 52.00 C 13.33 53.33 12.67 54.66 12.01 56.00 C 24.00 56.00 36.00 56.00 47.99 56.00 C 47.33 54.66 46.67 53.33 46.00 52.00 C 48.60 49.58 51.47 47.44 53.86 44.81 C 54.65 41.49 50.07 41.62 48.01 40.64 C 48.01 39.01 48.01 37.38 48.00 35.76 C 51.33 34.49 54.52 32.29 55.96 28.92 C 56.35 25.69 52.33 25.41 50.09 25.02 C 36.77 23.65 23.27 23.66 9.95 25.02 Z" />
<path fill="#ffffff" opacity="1.00" d=" M 25.45 28.49 C 30.98 28.00 37.20 27.85 41.95 31.18 C 44.89 33.15 43.95 37.09 43.92 40.09 C 44.07 41.64 42.52 42.36 41.36 42.88 C 39.62 47.68 35.46 52.20 29.98 52.00 C 24.53 52.18 20.36 47.68 18.65 42.89 C 14.73 41.78 16.16 36.93 16.10 33.91 C 17.39 30.13 21.93 29.04 25.45 28.49 M 21.14 32.16 C 19.41 33.18 20.06 35.52 20.05 37.17 C 20.22 40.36 24.46 40.61 26.67 39.47 C 28.47 38.44 27.32 34.79 30.01 34.99 C 32.67 34.86 31.54 38.45 33.34 39.47 C 35.56 40.61 39.82 40.35 39.95 37.13 C 40.03 35.43 40.61 32.13 38.07 32.07 C 32.44 31.99 26.77 31.84 21.14 32.16 Z" />
</g>
<g id="#000000ff">
<path fill="#000000" opacity="1.00" d=" M 20.06 7.26 C 21.99 4.65 25.49 6.77 27.91 7.44 C 31.62 9.15 35.05 5.08 38.84 6.19 C 42.73 9.87 43.65 15.50 45.35 20.37 C 35.13 19.87 24.88 19.87 14.65 20.37 C 16.10 15.89 17.19 11.09 20.06 7.26 Z" />
<path fill="#000000" opacity="1.00" d=" M 9.95 25.02 C 23.27 23.66 36.77 23.65 50.09 25.02 C 52.33 25.41 56.35 25.69 55.96 28.92 C 54.52 32.29 51.33 34.49 48.00 35.76 C 48.01 37.38 48.01 39.01 48.01 40.64 C 50.07 41.62 54.65 41.49 53.86 44.81 C 51.47 47.44 48.60 49.58 46.00 52.00 C 46.67 53.33 47.33 54.66 47.99 56.00 C 36.00 56.00 24.00 56.00 12.01 56.00 C 12.67 54.66 13.33 53.33 13.99 52.00 C 11.42 49.57 8.55 47.44 6.15 44.84 C 5.30 41.50 9.92 41.61 11.99 40.64 C 11.99 39.01 11.99 37.38 12.00 35.75 C 8.69 34.50 5.47 32.32 4.07 28.94 C 3.57 25.70 7.72 25.40 9.95 25.02 M 25.45 28.49 C 21.93 29.04 17.39 30.13 16.10 33.91 C 16.16 36.93 14.73 41.78 18.65 42.89 C 20.36 47.68 24.53 52.18 29.98 52.00 C 35.46 52.20 39.62 47.68 41.36 42.88 C 42.52 42.36 44.07 41.64 43.92 40.09 C 43.95 37.09 44.89 33.15 41.95 31.18 C 37.20 27.85 30.98 28.00 25.45 28.49 Z" />
<path fill="#000000" opacity="1.00" d=" M 21.14 32.16 C 26.77 31.84 32.44 31.99 38.07 32.07 C 40.61 32.13 40.03 35.43 39.95 37.13 C 39.82 40.35 35.56 40.61 33.34 39.47 C 31.54 38.45 32.67 34.86 30.01 34.99 C 27.32 34.79 28.47 38.44 26.67 39.47 C 24.46 40.61 20.22 40.36 20.05 37.17 C 20.06 35.52 19.41 33.18 21.14 32.16 Z" />
</g>
</svg>
