<?xml version="1.0" encoding="UTF-8" ?>
<!DOCTYPE svg PUBLIC "-//W3C//DTD SVG 1.1//EN" "http://www.w3.org/Graphics/SVG/1.1/DTD/svg11.dtd">
<svg width="60pt" height="60pt" viewBox="0 0 60 60" version="1.1" xmlns="http://www.w3.org/2000/svg">
<g id="#ffffffff">
<path fill="#ffffff" opacity="1.00" d=" M 0.00 0.00 L 60.00 0.00 L 60.00 60.00 L 0.00 60.00 L 0.00 0.00 M 43.01 9.89 C 40.31 10.44 37.57 10.80 34.90 11.46 C 34.21 10.33 33.80 8.97 32.79 8.08 C 29.56 7.57 26.76 9.55 24.25 11.26 C 23.50 10.16 23.15 8.69 21.97 7.95 C 15.83 8.87 12.11 16.53 15.22 21.97 C 14.03 23.31 12.87 24.68 11.75 26.08 C 12.50 26.78 13.25 27.48 14.00 28.18 C 14.00 30.78 14.00 33.39 14.00 35.99 C 11.29 35.98 8.58 35.98 5.87 36.14 C 5.73 40.15 7.25 44.22 10.76 46.39 C 15.03 47.74 19.57 47.78 24.00 48.05 C 24.00 49.37 24.00 50.68 24.00 52.00 C 29.99 52.00 35.98 52.00 41.98 52.00 C 42.09 49.32 41.49 46.38 43.11 44.02 C 45.66 39.59 46.65 34.31 45.40 29.30 C 43.54 29.29 40.30 28.97 41.18 26.27 C 42.80 24.53 45.08 23.38 46.19 21.20 C 47.56 18.34 47.55 15.08 48.39 12.06 C 49.05 10.05 50.39 8.36 51.36 6.50 C 48.05 5.93 45.41 7.96 43.01 9.89 M 51.72 17.35 C 51.41 19.23 51.27 21.14 50.83 23.00 C 49.95 24.70 48.47 26.08 47.90 27.95 C 48.80 29.88 50.46 31.33 51.67 33.07 C 49.97 34.20 46.48 34.99 47.16 37.66 C 48.66 39.34 50.37 40.84 51.85 42.55 C 49.92 43.01 47.01 41.93 45.99 44.17 C 46.59 46.44 47.67 48.55 48.39 50.78 C 48.68 52.63 51.13 52.15 51.88 50.89 C 51.89 49.57 51.82 48.24 51.69 46.92 C 53.15 46.53 55.78 47.09 55.97 44.93 C 56.16 42.07 54.53 39.59 52.89 37.41 C 54.01 36.79 56.21 36.71 55.97 34.91 C 55.92 31.97 54.00 29.59 52.49 27.23 C 53.63 26.20 55.73 25.77 56.01 24.06 C 55.76 21.23 53.73 19.14 51.72 17.35 Z" />
<path fill="#ffffff" opacity="1.00" d=" M 20.04 12.91 C 21.56 14.08 23.05 15.41 24.92 15.99 C 26.88 14.94 28.43 13.29 30.21 12.01 C 31.17 13.36 32.05 14.78 33.22 15.96 C 35.68 15.71 38.02 14.80 40.44 14.31 C 38.33 15.75 36.14 17.07 33.94 18.37 C 28.79 17.59 23.50 18.13 18.64 19.97 C 17.58 17.44 18.43 14.96 20.04 12.91 Z" />
<path fill="#ffffff" opacity="1.00" d=" M 17.60 30.78 C 18.72 29.17 20.46 26.56 22.70 28.21 C 25.89 30.79 25.12 35.48 24.03 38.93 C 22.03 38.99 20.02 39.01 18.02 39.01 C 18.00 37.78 17.98 36.55 17.96 35.31 C 19.03 35.60 20.26 36.44 21.18 35.35 C 22.77 33.54 21.74 31.19 20.28 29.70 C 19.61 29.97 18.27 30.51 17.60 30.78 Z" />
</g>
<g id="#000000ff">
<path fill="#000000" opacity="1.00" d=" M 43.01 9.89 C 45.41 7.96 48.05 5.93 51.36 6.50 C 50.39 8.36 49.05 10.05 48.39 12.06 C 47.55 15.08 47.56 18.34 46.19 21.20 C 45.08 23.38 42.80 24.53 41.18 26.27 C 40.30 28.97 43.54 29.29 45.40 29.30 C 46.65 34.31 45.66 39.59 43.11 44.02 C 41.49 46.38 42.09 49.32 41.98 52.00 C 35.98 52.00 29.99 52.00 24.00 52.00 C 24.00 50.68 24.00 49.37 24.00 48.05 C 19.57 47.78 15.03 47.74 10.76 46.39 C 7.25 44.22 5.73 40.15 5.87 36.14 C 8.58 35.98 11.29 35.98 14.00 35.99 C 14.00 33.39 14.00 30.78 14.00 28.18 C 13.25 27.48 12.50 26.78 11.75 26.08 C 12.87 24.68 14.03 23.31 15.22 21.97 C 12.11 16.53 15.83 8.87 21.97 7.95 C 23.15 8.69 23.50 10.16 24.25 11.26 C 26.76 9.55 29.56 7.57 32.79 8.08 C 33.80 8.97 34.21 10.33 34.90 11.46 C 37.57 10.80 40.31 10.44 43.01 9.89 M 20.04 12.91 C 18.43 14.96 17.58 17.44 18.64 19.97 C 23.50 18.13 28.79 17.59 33.94 18.37 C 36.14 17.07 38.33 15.75 40.44 14.31 C 38.02 14.80 35.68 15.71 33.22 15.96 C 32.05 14.78 31.17 13.36 30.21 12.01 C 28.43 13.29 26.88 14.94 24.92 15.99 C 23.05 15.41 21.56 14.08 20.04 12.91 M 17.60 30.78 C 18.27 30.51 19.61 29.97 20.28 29.70 C 21.74 31.19 22.77 33.54 21.18 35.35 C 20.26 36.44 19.03 35.60 17.96 35.31 C 17.98 36.55 18.00 37.78 18.02 39.01 C 20.02 39.01 22.03 38.99 24.03 38.93 C 25.12 35.48 25.89 30.79 22.70 28.21 C 20.46 26.56 18.72 29.17 17.60 30.78 Z" />
<path fill="#000000" opacity="1.00" d=" M 51.72 17.35 C 53.73 19.14 55.76 21.23 56.01 24.06 C 55.73 25.77 53.63 26.20 52.49 27.23 C 54.00 29.59 55.92 31.97 55.97 34.91 C 56.21 36.71 54.01 36.79 52.89 37.41 C 54.53 39.59 56.16 42.07 55.97 44.93 C 55.78 47.09 53.15 46.53 51.69 46.92 C 51.82 48.24 51.89 49.57 51.88 50.89 C 51.13 52.15 48.68 52.63 48.39 50.78 C 47.67 48.55 46.59 46.44 45.99 44.17 C 47.01 41.93 49.92 43.01 51.85 42.55 C 50.37 40.84 48.66 39.34 47.16 37.66 C 46.48 34.99 49.97 34.20 51.67 33.07 C 50.46 31.33 48.80 29.88 47.90 27.95 C 48.47 26.08 49.95 24.70 50.83 23.00 C 51.27 21.14 51.41 19.23 51.72 17.35 Z" />
</g>
</svg>
