<?xml version="1.0" encoding="UTF-8" ?>
<!DOCTYPE svg PUBLIC "-//W3C//DTD SVG 1.1//EN" "http://www.w3.org/Graphics/SVG/1.1/DTD/svg11.dtd">
<svg width="64pt" height="64pt" viewBox="0 0 64 64" version="1.1" xmlns="http://www.w3.org/2000/svg">
<g id="#ffffffff">
<path fill="#ffffff" opacity="1.00" d=" M 0.00 0.00 L 64.00 0.00 L 64.00 64.00 L 0.00 64.00 L 0.00 0.00 M 7.44 4.55 C 6.49 5.52 5.53 6.48 4.56 7.44 C 21.89 24.77 39.23 42.10 56.56 59.44 C 57.52 58.47 58.48 57.51 59.45 56.55 C 56.09 53.11 52.53 49.88 49.32 46.30 C 49.07 43.31 52.61 43.43 54.50 42.29 C 57.59 40.98 61.15 37.81 59.61 34.10 C 57.78 30.32 53.35 29.13 49.72 27.79 C 48.00 22.52 46.93 16.40 42.46 12.66 C 39.94 10.61 36.68 11.99 33.89 12.42 C 30.55 13.25 27.32 11.27 23.99 11.59 C 21.59 12.01 20.09 14.06 18.54 15.72 C 14.89 11.95 11.15 8.27 7.44 4.55 M 15.38 23.76 C 14.98 25.11 14.59 26.46 14.19 27.81 C 10.21 29.26 4.48 30.86 4.02 35.87 C 4.38 40.90 10.07 42.57 14.02 44.07 C 14.85 47.40 15.32 51.42 18.33 53.58 C 23.28 55.57 27.30 50.82 31.90 50.20 C 36.45 51.13 40.36 55.04 45.33 53.83 C 44.06 52.43 42.73 51.09 41.38 49.78 C 39.13 49.83 37.01 49.10 35.21 47.77 C 35.85 47.37 37.14 46.56 37.79 46.15 C 36.45 44.86 35.13 43.55 33.83 42.23 C 26.50 42.23 18.97 41.83 12.08 39.09 C 10.32 38.47 8.91 37.24 7.56 36.01 C 9.15 34.23 11.22 33.08 13.41 32.20 C 16.72 36.96 23.20 36.32 28.29 36.77 C 26.94 35.40 25.75 33.83 24.16 32.72 C 21.94 32.12 19.62 31.91 17.42 31.21 C 17.81 29.80 18.19 28.39 18.57 26.99 C 17.50 25.92 16.43 24.84 15.38 23.76 Z" />
<path fill="#ffffff" opacity="1.00" d=" M 21.49 18.62 C 22.65 17.34 23.72 14.95 25.86 15.69 C 29.90 16.81 34.07 16.84 38.11 15.70 C 39.95 14.98 41.22 16.83 42.01 18.17 C 44.21 22.26 45.23 26.84 46.61 31.24 C 43.07 32.56 39.28 32.61 35.56 32.72 C 30.91 27.98 26.19 23.31 21.49 18.62 Z" />
<path fill="#ffffff" opacity="1.00" d=" M 39.52 36.67 C 43.49 36.23 48.22 35.95 50.60 32.19 C 52.42 33.11 54.45 33.81 55.87 35.35 C 56.01 36.41 55.59 37.18 54.61 37.66 C 51.48 39.73 47.74 40.46 44.15 41.29 C 42.62 39.73 41.08 38.19 39.52 36.67 Z" />
<path fill="#ffffff" opacity="1.00" d=" M 18.35 45.08 C 21.44 45.47 24.49 46.13 27.45 47.08 C 26.15 49.32 23.10 50.41 20.74 49.29 C 19.17 48.49 18.97 46.53 18.35 45.08 Z" />
</g>
<g id="#000000ff">
<path fill="#000000" opacity="1.00" d=" M 7.44 4.55 C 11.15 8.27 14.89 11.95 18.54 15.72 C 20.09 14.06 21.59 12.01 23.99 11.59 C 27.32 11.27 30.55 13.25 33.89 12.42 C 36.68 11.99 39.94 10.61 42.46 12.66 C 46.93 16.40 48.00 22.52 49.72 27.79 C 53.35 29.13 57.78 30.32 59.61 34.10 C 61.15 37.81 57.59 40.98 54.50 42.29 C 52.61 43.43 49.07 43.31 49.32 46.30 C 52.53 49.88 56.09 53.11 59.45 56.55 C 58.48 57.51 57.52 58.47 56.56 59.44 C 39.23 42.10 21.89 24.77 4.56 7.44 C 5.53 6.48 6.49 5.52 7.44 4.55 M 21.49 18.62 C 26.19 23.31 30.91 27.98 35.56 32.72 C 39.28 32.61 43.07 32.56 46.61 31.24 C 45.23 26.84 44.21 22.26 42.01 18.17 C 41.22 16.83 39.95 14.98 38.11 15.70 C 34.07 16.84 29.90 16.81 25.86 15.69 C 23.72 14.95 22.65 17.34 21.49 18.62 M 39.52 36.67 C 41.08 38.19 42.62 39.73 44.15 41.29 C 47.74 40.46 51.48 39.73 54.61 37.66 C 55.59 37.18 56.01 36.41 55.87 35.35 C 54.45 33.81 52.42 33.11 50.60 32.19 C 48.22 35.95 43.49 36.23 39.52 36.67 Z" />
<path fill="#000000" opacity="1.00" d=" M 15.38 23.76 C 16.43 24.84 17.50 25.92 18.57 26.99 C 18.19 28.39 17.81 29.80 17.42 31.21 C 19.62 31.91 21.94 32.12 24.16 32.72 C 25.75 33.83 26.94 35.40 28.29 36.77 C 23.20 36.32 16.72 36.96 13.41 32.20 C 11.22 33.08 9.15 34.23 7.56 36.01 C 8.91 37.24 10.32 38.47 12.08 39.09 C 18.97 41.83 26.50 42.23 33.83 42.23 C 35.13 43.55 36.45 44.86 37.79 46.15 C 37.14 46.56 35.85 47.37 35.21 47.77 C 37.01 49.10 39.13 49.83 41.38 49.78 C 42.73 51.09 44.06 52.43 45.33 53.83 C 40.36 55.04 36.45 51.13 31.90 50.20 C 27.30 50.82 23.28 55.57 18.33 53.58 C 15.32 51.42 14.85 47.40 14.02 44.07 C 10.07 42.57 4.38 40.90 4.02 35.87 C 4.48 30.86 10.21 29.26 14.19 27.81 C 14.59 26.46 14.98 25.11 15.38 23.76 M 18.35 45.08 C 18.97 46.53 19.17 48.49 20.74 49.29 C 23.10 50.41 26.15 49.32 27.45 47.08 C 24.49 46.13 21.44 45.47 18.35 45.08 Z" />
</g>
</svg>
