<?xml version="1.0" encoding="UTF-8" ?>
<!DOCTYPE svg PUBLIC "-//W3C//DTD SVG 1.1//EN" "http://www.w3.org/Graphics/SVG/1.1/DTD/svg11.dtd">
<svg width="60pt" height="60pt" viewBox="0 0 60 60" version="1.1" xmlns="http://www.w3.org/2000/svg">
<g id="#ffffffff">
<path fill="#ffffff" opacity="1.00" d=" M 0.00 0.00 L 60.00 0.00 L 60.00 25.05 C 59.13 23.61 58.05 21.88 56.11 22.07 C 45.69 21.88 35.27 22.06 24.85 22.00 C 17.72 14.86 10.57 7.73 3.44 0.59 C 2.49 1.52 1.54 2.45 0.58 3.39 C 19.21 22.07 37.92 40.68 56.53 59.39 C 57.49 58.45 58.46 57.53 59.45 56.62 C 55.44 52.59 51.44 48.55 47.37 44.57 C 53.61 40.51 58.91 34.25 60.00 26.69 L 60.00 60.00 L 0.00 60.00 L 0.00 27.19 C 1.32 33.93 5.76 39.79 11.32 43.68 C 15.31 46.54 20.97 46.79 25.13 44.14 C 26.93 43.24 28.70 41.62 30.88 42.09 C 33.02 42.81 34.88 44.17 36.85 45.24 C 33.26 41.47 29.49 37.87 25.86 34.14 C 23.93 36.44 21.12 38.76 17.89 37.80 C 13.28 36.82 10.36 32.47 9.75 28.01 C 14.15 28.98 18.50 30.14 22.87 31.21 C 19.83 28.13 16.76 25.08 13.71 22.02 C 10.13 22.05 6.53 21.77 2.96 22.19 C 1.54 22.45 0.84 23.88 0.00 24.91 L 0.00 0.00 Z" />
<path fill="#ffffff" opacity="1.00" d=" M 34.83 31.80 C 39.94 30.52 45.04 29.18 50.17 28.01 C 49.79 33.05 45.93 37.27 40.97 38.15 C 38.87 36.09 36.77 34.02 34.83 31.80 Z" />
</g>
<g id="#000000ff">
<path fill="#000000" opacity="1.00" d=" M 0.58 3.39 C 1.54 2.45 2.49 1.52 3.44 0.59 C 10.57 7.73 17.72 14.86 24.85 22.00 C 35.27 22.06 45.69 21.88 56.11 22.07 C 58.05 21.88 59.13 23.61 60.00 25.05 L 60.00 26.69 C 58.91 34.25 53.61 40.51 47.37 44.57 C 51.44 48.55 55.44 52.59 59.45 56.62 C 58.46 57.53 57.49 58.45 56.53 59.39 C 37.92 40.68 19.21 22.07 0.58 3.39 M 34.83 31.80 C 36.77 34.02 38.87 36.09 40.97 38.15 C 45.93 37.27 49.79 33.05 50.17 28.01 C 45.04 29.18 39.94 30.52 34.83 31.80 Z" />
<path fill="#000000" opacity="1.00" d=" M 0.00 24.91 C 0.84 23.88 1.54 22.45 2.96 22.19 C 6.53 21.77 10.13 22.05 13.71 22.02 C 16.76 25.08 19.83 28.13 22.87 31.21 C 18.50 30.14 14.15 28.98 9.75 28.01 C 10.36 32.47 13.28 36.82 17.89 37.80 C 21.12 38.76 23.93 36.44 25.86 34.14 C 29.49 37.87 33.26 41.47 36.85 45.24 C 34.88 44.17 33.02 42.81 30.88 42.09 C 28.70 41.62 26.93 43.24 25.13 44.14 C 20.97 46.79 15.31 46.54 11.32 43.68 C 5.76 39.79 1.32 33.93 0.00 27.19 L 0.00 24.91 Z" />
</g>
</svg>
