<?xml version="1.0" encoding="UTF-8" ?>
<!DOCTYPE svg PUBLIC "-//W3C//DTD SVG 1.1//EN" "http://www.w3.org/Graphics/SVG/1.1/DTD/svg11.dtd">
<svg width="64pt" height="64pt" viewBox="0 0 64 64" version="1.1" xmlns="http://www.w3.org/2000/svg">
<g id="#ffffffff">
<path fill="#ffffff" opacity="1.00" d=" M 0.00 0.00 L 64.00 0.00 L 64.00 64.00 L 0.00 64.00 L 0.00 0.00 M 28.44 8.50 C 23.60 10.17 22.46 17.33 26.58 20.39 C 30.44 23.90 37.34 21.20 37.90 16.05 C 38.91 10.99 33.17 6.37 28.44 8.50 M 25.50 24.24 C 20.74 27.18 17.17 32.31 16.20 37.85 C 15.59 39.71 16.90 42.03 18.99 41.92 C 23.44 42.14 27.91 41.92 32.37 42.00 C 30.90 46.17 29.41 50.33 27.94 54.50 C 28.89 54.83 30.79 55.49 31.73 55.82 C 33.17 51.54 34.86 47.35 36.14 43.02 C 37.04 40.58 34.73 37.81 32.19 38.03 C 28.22 37.91 24.24 38.07 20.27 37.96 C 21.45 34.27 23.59 30.92 26.44 28.28 C 29.67 28.07 32.74 29.74 35.98 29.90 C 39.49 29.50 42.90 28.55 46.37 27.94 C 46.13 26.65 45.88 25.36 45.63 24.07 C 42.44 24.63 39.31 25.52 36.08 25.87 C 32.51 25.70 29.07 23.77 25.50 24.24 Z" />
<path fill="#ffffff" opacity="1.00" d=" M 29.34 12.51 C 32.52 10.19 35.90 15.50 32.66 17.49 C 29.49 19.79 26.08 14.49 29.34 12.51 Z" />
</g>
<g id="#000000ff">
<path fill="#000000" opacity="1.00" d=" M 28.44 8.50 C 33.17 6.37 38.91 10.99 37.90 16.05 C 37.34 21.20 30.44 23.90 26.58 20.39 C 22.46 17.33 23.60 10.17 28.44 8.50 M 29.34 12.51 C 26.08 14.49 29.49 19.79 32.66 17.49 C 35.90 15.50 32.52 10.19 29.34 12.51 Z" />
<path fill="#000000" opacity="1.00" d=" M 25.50 24.24 C 29.07 23.77 32.51 25.70 36.08 25.87 C 39.31 25.52 42.44 24.63 45.63 24.07 C 45.88 25.36 46.13 26.65 46.37 27.94 C 42.90 28.55 39.49 29.50 35.98 29.90 C 32.74 29.74 29.67 28.07 26.44 28.28 C 23.59 30.92 21.45 34.27 20.27 37.96 C 24.24 38.07 28.22 37.91 32.19 38.03 C 34.73 37.81 37.04 40.58 36.14 43.02 C 34.86 47.35 33.17 51.54 31.73 55.82 C 30.79 55.49 28.89 54.83 27.94 54.50 C 29.41 50.33 30.90 46.17 32.37 42.00 C 27.91 41.92 23.44 42.14 18.99 41.92 C 16.90 42.03 15.59 39.71 16.20 37.85 C 17.17 32.31 20.74 27.18 25.50 24.24 Z" />
</g>
</svg>
