<?xml version="1.0" encoding="UTF-8" ?>
<!DOCTYPE svg PUBLIC "-//W3C//DTD SVG 1.1//EN" "http://www.w3.org/Graphics/SVG/1.1/DTD/svg11.dtd">
<svg width="60pt" height="60pt" viewBox="0 0 60 60" version="1.1" xmlns="http://www.w3.org/2000/svg">
<g id="#ffffffff">
<path fill="#ffffff" opacity="1.00" d=" M 0.00 0.00 L 60.00 0.00 L 60.00 60.00 L 0.00 60.00 L 0.00 0.00 M 9.26 8.14 C 8.98 8.42 8.42 8.98 8.14 9.25 C 7.90 23.07 7.91 36.93 8.14 50.75 C 8.42 51.03 8.98 51.59 9.26 51.87 C 12.80 52.12 16.37 52.07 19.93 51.92 C 22.07 52.30 22.70 48.82 20.78 48.17 C 17.88 47.82 14.96 48.12 12.05 47.95 C 11.97 35.99 11.97 24.01 12.04 12.04 C 14.95 11.88 17.88 12.19 20.79 11.84 C 22.31 11.24 22.32 8.75 20.78 8.16 C 16.96 7.87 13.09 7.89 9.26 8.14 M 39.22 8.18 C 37.68 8.67 37.69 11.31 39.21 11.83 C 42.12 12.18 45.05 11.88 47.96 12.04 C 48.03 24.01 48.04 35.99 47.96 47.96 C 45.05 48.12 42.12 47.81 39.22 48.17 C 37.32 48.81 37.93 52.30 40.07 51.92 C 43.62 52.06 47.19 52.12 50.74 51.86 C 52.38 51.32 51.85 49.34 52.01 48.05 C 51.95 35.40 52.09 22.74 51.94 10.10 C 52.21 8.39 50.34 7.81 49.01 8.01 C 45.75 7.99 42.47 7.83 39.22 8.18 Z" />
</g>
<g id="#000000ff">
<path fill="#000000" opacity="1.00" d=" M 9.26 8.14 C 13.09 7.89 16.96 7.87 20.78 8.16 C 22.32 8.75 22.31 11.24 20.79 11.84 C 17.88 12.19 14.95 11.88 12.04 12.04 C 11.97 24.01 11.97 35.99 12.05 47.95 C 14.96 48.12 17.88 47.82 20.78 48.17 C 22.70 48.82 22.07 52.30 19.93 51.92 C 16.37 52.07 12.80 52.12 9.26 51.87 C 8.98 51.59 8.42 51.03 8.14 50.75 C 7.91 36.93 7.90 23.07 8.14 9.25 C 8.42 8.98 8.98 8.42 9.26 8.14 Z" />
<path fill="#000000" opacity="1.00" d=" M 39.22 8.18 C 42.47 7.83 45.75 7.99 49.01 8.01 C 50.34 7.81 52.21 8.39 51.94 10.10 C 52.09 22.74 51.95 35.40 52.01 48.05 C 51.85 49.34 52.38 51.32 50.74 51.86 C 47.19 52.12 43.62 52.06 40.07 51.92 C 37.93 52.30 37.32 48.81 39.22 48.17 C 42.12 47.81 45.05 48.12 47.96 47.96 C 48.04 35.99 48.03 24.01 47.96 12.04 C 45.05 11.88 42.12 12.18 39.21 11.83 C 37.69 11.31 37.68 8.67 39.22 8.18 Z" />
</g>
</svg>
