<?xml version="1.0" encoding="UTF-8" ?>
<!DOCTYPE svg PUBLIC "-//W3C//DTD SVG 1.1//EN" "http://www.w3.org/Graphics/SVG/1.1/DTD/svg11.dtd">
<svg width="64pt" height="64pt" viewBox="0 0 64 64" version="1.1" xmlns="http://www.w3.org/2000/svg">
<g id="#ffffffff">
<path fill="#ffffff" opacity="1.00" d=" M 0.00 0.00 L 64.00 0.00 L 64.00 64.00 L 0.00 64.00 L 0.00 0.00 M 12.01 5.66 C 11.99 23.11 12.00 40.56 12.00 58.01 C 16.67 57.99 21.35 57.96 26.02 57.94 C 25.99 56.81 25.97 55.69 25.94 54.57 C 23.53 54.30 18.72 53.76 16.31 53.49 C 15.21 39.36 16.22 25.12 16.21 10.96 C 19.81 9.69 23.52 8.66 26.99 7.06 C 22.04 6.25 17.01 6.05 12.01 5.66 M 37.98 6.06 C 38.01 7.19 38.03 8.31 38.06 9.43 C 40.47 9.70 45.28 10.24 47.69 10.51 C 48.79 24.64 47.78 38.88 47.79 53.04 C 44.18 54.31 40.48 55.34 37.01 56.94 C 41.96 57.75 46.99 57.94 51.99 58.34 C 52.01 40.89 52.00 23.44 52.00 5.99 C 47.33 6.01 42.65 6.03 37.98 6.06 Z" />
</g>
<g id="#000000ff">
<path fill="#000000" opacity="1.00" d=" M 12.01 5.66 C 17.01 6.05 22.04 6.25 26.99 7.06 C 23.52 8.66 19.81 9.69 16.21 10.96 C 16.22 25.12 15.21 39.36 16.31 53.49 C 18.72 53.76 23.53 54.30 25.94 54.57 C 25.97 55.69 25.99 56.81 26.02 57.94 C 21.35 57.96 16.67 57.99 12.00 58.01 C 12.00 40.56 11.99 23.11 12.01 5.66 Z" />
<path fill="#000000" opacity="1.00" d=" M 37.98 6.06 C 42.65 6.03 47.33 6.01 52.00 5.99 C 52.00 23.44 52.01 40.89 51.99 58.34 C 46.99 57.94 41.96 57.75 37.01 56.94 C 40.48 55.34 44.18 54.31 47.79 53.04 C 47.78 38.88 48.79 24.64 47.69 10.51 C 45.28 10.24 40.47 9.70 38.06 9.43 C 38.03 8.31 38.01 7.19 37.98 6.06 Z" />
</g>
</svg>
