<?xml version="1.0" encoding="UTF-8" ?>
<!DOCTYPE svg PUBLIC "-//W3C//DTD SVG 1.1//EN" "http://www.w3.org/Graphics/SVG/1.1/DTD/svg11.dtd">
<svg width="60pt" height="60pt" viewBox="0 0 60 60" version="1.1" xmlns="http://www.w3.org/2000/svg">
<g id="#ffffffff">
<path fill="#ffffff" opacity="1.00" d=" M 0.00 0.00 L 60.00 0.00 L 60.00 60.00 L 0.00 60.00 L 0.00 0.00 M 22.18 20.12 C 22.73 27.09 29.24 32.65 27.68 39.89 C 26.39 44.61 19.22 45.42 16.88 41.14 C 14.28 36.52 18.76 31.76 17.90 26.96 C 17.45 22.73 13.19 19.43 8.99 20.08 C 5.16 20.51 2.02 24.04 2.05 27.90 C 2.08 35.01 3.62 42.10 6.20 48.71 C 6.71 50.86 10.29 50.21 9.93 48.00 C 8.51 42.76 6.65 37.59 6.24 32.12 C 6.13 29.66 5.26 26.37 7.69 24.71 C 10.16 22.81 14.19 24.88 13.98 28.01 C 13.77 32.09 11.21 35.93 12.26 40.10 C 13.24 45.21 18.70 48.89 23.81 47.81 C 28.78 46.98 32.54 41.96 31.92 36.95 C 31.78 30.83 27.31 26.06 26.21 20.21 C 25.32 16.52 27.07 12.28 30.64 10.74 C 34.98 8.58 40.77 11.34 41.75 16.09 C 42.60 23.13 39.81 30.02 40.12 37.05 C 40.78 40.67 44.59 42.39 47.97 42.11 C 48.01 43.70 47.94 45.30 48.16 46.88 C 48.75 48.10 50.46 48.38 51.37 47.38 C 53.62 45.27 55.89 43.14 57.85 40.77 C 57.86 40.38 57.86 39.61 57.86 39.23 C 55.67 36.69 53.29 34.30 50.75 32.12 C 47.13 31.29 48.12 36.02 47.95 38.16 C 46.51 37.94 43.99 38.02 44.08 35.94 C 44.27 29.25 46.51 22.66 45.77 15.94 C 44.82 9.61 38.20 4.93 31.91 6.21 C 25.57 7.21 20.98 13.82 22.18 20.12 Z" />
</g>
<g id="#000000ff">
<path fill="#968176" opacity="1.00" d=" M 22.18 20.12 C 20.98 13.82 25.57 7.21 31.91 6.21 C 38.20 4.93 44.82 9.61 45.77 15.94 C 46.51 22.66 44.27 29.25 44.08 35.94 C 43.99 38.02 46.51 37.94 47.95 38.16 C 48.12 36.02 47.13 31.29 50.75 32.12 C 53.29 34.30 55.67 36.69 57.86 39.23 C 57.86 39.61 57.86 40.38 57.85 40.77 C 55.89 43.14 53.62 45.27 51.37 47.38 C 50.46 48.38 48.75 48.10 48.16 46.88 C 47.94 45.30 48.01 43.70 47.97 42.11 C 44.59 42.39 40.78 40.67 40.12 37.05 C 39.81 30.02 42.60 23.13 41.75 16.09 C 40.77 11.34 34.98 8.58 30.64 10.74 C 27.07 12.28 25.32 16.52 26.21 20.21 C 27.31 26.06 31.78 30.83 31.92 36.95 C 32.54 41.96 28.78 46.98 23.81 47.81 C 18.70 48.89 13.24 45.21 12.26 40.10 C 11.21 35.93 13.77 32.09 13.98 28.01 C 14.19 24.88 10.16 22.81 7.69 24.71 C 5.26 26.37 6.13 29.66 6.24 32.12 C 6.65 37.59 8.51 42.76 9.93 48.00 C 10.29 50.21 6.71 50.86 6.20 48.71 C 3.62 42.10 2.08 35.01 2.05 27.90 C 2.02 24.04 5.16 20.51 8.99 20.08 C 13.19 19.43 17.45 22.73 17.90 26.96 C 18.76 31.76 14.28 36.52 16.88 41.14 C 19.22 45.42 26.39 44.61 27.68 39.89 C 29.24 32.65 22.73 27.09 22.18 20.12 Z" />
</g>
</svg>
