<?xml version="1.0" encoding="UTF-8" ?>
<!DOCTYPE svg PUBLIC "-//W3C//DTD SVG 1.1//EN" "http://www.w3.org/Graphics/SVG/1.1/DTD/svg11.dtd">
<svg width="64pt" height="64pt" viewBox="0 0 64 64" version="1.1" xmlns="http://www.w3.org/2000/svg">
<g id="#ffffffff">
<path fill="#ffffff" opacity="1.00" d=" M 0.00 0.00 L 64.00 0.00 L 64.00 64.00 L 0.00 64.00 L 0.00 0.00 M 8.00 10.00 C 8.00 18.00 8.00 26.00 8.00 34.00 C 9.33 34.00 10.67 34.00 12.00 34.00 C 12.00 30.00 12.00 26.00 12.00 22.00 C 25.33 22.00 38.67 22.00 52.00 22.00 C 52.00 31.33 52.00 40.67 52.00 50.00 C 50.00 50.00 48.00 50.00 46.00 50.00 C 46.00 51.33 46.00 52.67 46.00 54.00 C 49.33 54.00 52.67 54.00 56.00 54.00 C 56.00 39.33 56.00 24.67 56.00 10.00 C 40.00 10.00 24.00 10.00 8.00 10.00 M 9.52 46.57 C 10.86 48.17 14.26 47.36 14.07 50.11 C 12.08 49.34 9.93 49.08 7.80 49.21 C 8.22 51.39 9.44 53.72 11.93 53.91 C 15.68 54.85 19.29 50.55 17.59 47.05 C 16.73 44.67 14.08 44.09 11.91 43.54 C 12.15 43.11 12.64 42.26 12.88 41.83 C 14.43 43.04 16.38 42.88 18.22 42.79 C 17.77 39.81 15.03 37.27 11.90 38.12 C 8.15 38.79 6.64 44.05 9.52 46.57 M 21.02 46.02 C 22.14 48.25 26.24 47.10 26.04 50.11 C 24.05 49.36 21.92 49.05 19.80 49.21 C 20.21 51.38 21.44 53.71 23.90 53.91 C 27.64 54.86 31.27 50.60 29.61 47.09 C 28.78 44.71 26.15 44.09 23.98 43.60 C 24.19 43.15 24.61 42.26 24.82 41.82 C 26.40 43.02 28.36 42.90 30.23 42.79 C 29.74 40.23 27.81 37.83 24.98 37.99 C 21.03 37.83 18.44 42.97 21.02 46.02 M 32.00 38.00 C 32.00 43.33 32.00 48.67 32.00 54.00 C 33.33 54.00 34.67 54.00 36.00 54.00 C 36.00 52.00 36.00 50.00 36.00 48.00 C 36.50 48.00 37.50 48.00 38.00 48.00 C 38.00 50.00 38.00 52.00 38.00 54.00 C 39.33 54.00 40.67 54.00 42.00 54.00 C 42.00 48.67 42.00 43.33 42.00 38.00 C 40.67 38.00 39.33 38.00 38.00 38.00 C 38.00 40.00 38.00 42.00 38.00 44.00 C 37.50 44.00 36.50 44.00 36.00 44.00 C 36.00 42.00 36.00 40.00 36.00 38.00 C 34.67 38.00 33.33 38.00 32.00 38.00 Z" />
<path fill="#ffffff" opacity="1.00" d=" M 12.00 14.00 C 25.33 14.00 38.67 14.00 52.00 14.00 C 52.00 15.33 52.00 16.67 52.00 18.00 C 38.67 18.00 25.33 18.00 12.00 18.00 C 12.00 16.67 12.00 15.33 12.00 14.00 Z" />
</g>
<g id="#000000ff">
<path fill="#000000" opacity="1.00" d=" M 8.00 10.00 C 24.00 10.00 40.00 10.00 56.00 10.00 C 56.00 24.67 56.00 39.33 56.00 54.00 C 52.67 54.00 49.33 54.00 46.00 54.00 C 46.00 52.67 46.00 51.33 46.00 50.00 C 48.00 50.00 50.00 50.00 52.00 50.00 C 52.00 40.67 52.00 31.33 52.00 22.00 C 38.67 22.00 25.33 22.00 12.00 22.00 C 12.00 26.00 12.00 30.00 12.00 34.00 C 10.67 34.00 9.33 34.00 8.00 34.00 C 8.00 26.00 8.00 18.00 8.00 10.00 M 12.00 14.00 C 12.00 15.33 12.00 16.67 12.00 18.00 C 25.33 18.00 38.67 18.00 52.00 18.00 C 52.00 16.67 52.00 15.33 52.00 14.00 C 38.67 14.00 25.33 14.00 12.00 14.00 Z" />
<path fill="#000000" opacity="1.00" d=" M 9.52 46.57 C 6.64 44.05 8.15 38.79 11.90 38.12 C 15.03 37.27 17.77 39.81 18.22 42.79 C 16.38 42.88 14.43 43.04 12.88 41.83 C 12.64 42.26 12.15 43.11 11.91 43.54 C 14.08 44.09 16.73 44.67 17.59 47.05 C 19.29 50.55 15.68 54.85 11.93 53.91 C 9.44 53.72 8.22 51.39 7.80 49.21 C 9.93 49.08 12.08 49.34 14.07 50.11 C 14.26 47.36 10.86 48.17 9.52 46.57 Z" />
<path fill="#000000" opacity="1.00" d=" M 21.02 46.02 C 18.44 42.97 21.03 37.83 24.98 37.99 C 27.81 37.83 29.74 40.23 30.23 42.79 C 28.36 42.90 26.40 43.02 24.82 41.82 C 24.61 42.26 24.19 43.15 23.98 43.60 C 26.15 44.09 28.78 44.71 29.61 47.09 C 31.27 50.60 27.64 54.86 23.90 53.91 C 21.44 53.71 20.21 51.38 19.80 49.21 C 21.92 49.05 24.05 49.36 26.04 50.11 C 26.24 47.10 22.14 48.25 21.02 46.02 Z" />
<path fill="#000000" opacity="1.00" d=" M 32.00 38.00 C 33.33 38.00 34.67 38.00 36.00 38.00 C 36.00 40.00 36.00 42.00 36.00 44.00 C 36.50 44.00 37.50 44.00 38.00 44.00 C 38.00 42.00 38.00 40.00 38.00 38.00 C 39.33 38.00 40.67 38.00 42.00 38.00 C 42.00 43.33 42.00 48.67 42.00 54.00 C 40.67 54.00 39.33 54.00 38.00 54.00 C 38.00 52.00 38.00 50.00 38.00 48.00 C 37.50 48.00 36.50 48.00 36.00 48.00 C 36.00 50.00 36.00 52.00 36.00 54.00 C 34.67 54.00 33.33 54.00 32.00 54.00 C 32.00 48.67 32.00 43.33 32.00 38.00 Z" />
</g>
</svg>
