<?xml version="1.0" encoding="UTF-8" ?>
<!DOCTYPE svg PUBLIC "-//W3C//DTD SVG 1.1//EN" "http://www.w3.org/Graphics/SVG/1.1/DTD/svg11.dtd">
<svg width="60pt" height="60pt" viewBox="0 0 60 60" version="1.1" xmlns="http://www.w3.org/2000/svg">
<g id="#ffffffff">
<path fill="#ffffff" opacity="1.00" d=" M 0.00 0.00 L 60.00 0.00 L 60.00 60.00 L 0.00 60.00 L 0.00 0.00 M 12.97 4.29 C 11.01 5.81 12.76 8.54 14.98 7.98 C 25.33 7.93 35.71 8.19 46.05 7.86 C 49.15 7.79 47.81 3.10 45.04 4.01 C 34.36 4.17 23.62 3.62 12.97 4.29 M 8.93 12.30 C 6.99 13.91 8.81 16.54 11.05 15.98 C 24.04 15.93 37.06 16.18 50.03 15.86 C 53.12 15.81 51.85 11.08 49.02 12.02 C 35.66 12.17 22.25 11.61 8.93 12.30 M 4.00 24.99 C 4.04 32.68 3.90 40.39 4.06 48.08 C 3.95 50.14 5.84 51.97 7.87 51.93 C 13.51 52.13 19.17 51.94 24.81 51.99 C 26.18 54.02 27.45 56.14 29.19 57.88 C 32.37 58.19 33.39 53.99 35.20 51.99 C 40.84 51.95 46.48 52.12 52.11 51.93 C 54.63 52.00 56.32 49.41 55.99 47.07 C 55.97 39.35 56.09 31.63 55.94 23.91 C 56.02 21.38 53.46 19.64 51.08 20.01 C 36.68 20.03 22.27 19.92 7.88 20.06 C 5.33 19.99 3.67 22.63 4.00 24.99 Z" />
<path fill="#ffffff" opacity="1.00" d=" M 32.52 26.72 C 35.56 24.98 38.48 29.12 41.50 26.72 C 41.12 27.24 40.35 28.27 39.96 28.79 C 40.36 28.96 41.15 29.30 41.55 29.46 C 39.04 30.66 39.45 33.62 38.87 35.88 C 37.25 41.45 31.88 45.78 26.00 45.72 C 23.17 45.97 20.60 44.72 18.01 43.83 C 20.53 43.58 22.93 42.84 25.26 41.88 C 23.60 41.13 22.06 40.15 20.69 38.94 C 20.95 38.63 21.48 38.00 21.75 37.68 C 20.88 36.65 19.09 35.85 19.30 34.25 C 20.14 31.82 18.66 29.56 19.43 27.12 C 22.16 29.92 25.58 31.87 29.48 32.46 C 29.74 30.27 30.18 27.64 32.52 26.72 Z" />
</g>
<g id="#000000ff">
<path fill="#000000" opacity="1.00" d=" M 12.97 4.29 C 23.62 3.62 34.36 4.17 45.04 4.01 C 47.81 3.10 49.15 7.79 46.05 7.86 C 35.71 8.19 25.33 7.93 14.98 7.98 C 12.76 8.54 11.01 5.81 12.97 4.29 Z" />
<path fill="#000000" opacity="1.00" d=" M 8.93 12.30 C 22.25 11.61 35.66 12.17 49.02 12.02 C 51.85 11.08 53.12 15.81 50.03 15.86 C 37.06 16.18 24.04 15.93 11.05 15.98 C 8.81 16.54 6.99 13.91 8.93 12.30 Z" />
<path fill="#000000" opacity="1.00" d=" M 4.00 24.99 C 3.67 22.63 5.33 19.99 7.88 20.06 C 22.27 19.92 36.68 20.03 51.08 20.01 C 53.46 19.64 56.02 21.38 55.94 23.91 C 56.09 31.63 55.97 39.35 55.99 47.07 C 56.32 49.41 54.63 52.00 52.11 51.93 C 46.48 52.12 40.84 51.95 35.20 51.99 C 33.39 53.99 32.37 58.19 29.19 57.88 C 27.45 56.14 26.18 54.02 24.81 51.99 C 19.17 51.94 13.51 52.13 7.87 51.93 C 5.84 51.97 3.95 50.14 4.06 48.08 C 3.90 40.39 4.04 32.68 4.00 24.99 M 32.52 26.72 C 30.18 27.64 29.74 30.27 29.48 32.46 C 25.58 31.87 22.16 29.92 19.43 27.12 C 18.66 29.56 20.14 31.82 19.30 34.25 C 19.09 35.85 20.88 36.65 21.75 37.68 C 21.48 38.00 20.95 38.63 20.69 38.94 C 22.06 40.15 23.60 41.13 25.26 41.88 C 22.93 42.84 20.53 43.58 18.01 43.83 C 20.60 44.72 23.17 45.97 26.00 45.72 C 31.88 45.78 37.25 41.45 38.87 35.88 C 39.45 33.62 39.04 30.66 41.55 29.46 C 41.15 29.30 40.36 28.96 39.96 28.79 C 40.35 28.27 41.12 27.24 41.50 26.72 C 38.48 29.12 35.56 24.98 32.52 26.72 Z" />
</g>
</svg>
