<?xml version="1.0" encoding="UTF-8" ?>
<!DOCTYPE svg PUBLIC "-//W3C//DTD SVG 1.1//EN" "http://www.w3.org/Graphics/SVG/1.1/DTD/svg11.dtd">
<svg width="60pt" height="60pt" viewBox="0 0 60 60" version="1.1" xmlns="http://www.w3.org/2000/svg">
<g id="#ffffffff">
<path fill="#ffffff" opacity="1.00" d=" M 0.00 0.00 L 60.00 0.00 L 60.00 60.00 L 0.00 60.00 L 0.00 0.00 M 10.37 8.36 C 7.38 9.71 7.93 13.43 8.03 16.09 C 7.95 18.66 10.61 20.33 12.98 20.00 C 24.96 19.90 36.97 20.20 48.94 19.85 C 52.82 18.84 52.16 14.05 51.85 11.01 C 51.01 7.45 46.82 7.94 44.03 7.98 C 32.82 8.27 21.51 7.50 10.37 8.36 M 10.34 24.38 C 7.37 25.75 7.94 29.47 8.03 32.13 C 7.98 34.66 10.59 36.32 12.93 36.00 C 23.96 36.02 34.98 35.97 46.01 36.02 C 47.66 35.98 49.59 36.15 50.81 34.79 C 52.58 32.97 51.95 30.17 51.97 27.89 C 51.94 25.84 50.14 23.93 48.04 24.05 C 37.03 23.91 26.01 24.07 15.00 23.98 C 13.45 24.05 11.82 23.82 10.34 24.38 M 10.30 40.40 C 7.37 41.78 7.95 45.45 8.03 48.09 C 7.95 50.65 10.59 52.32 12.95 52.00 C 24.67 51.97 36.40 52.07 48.11 51.95 C 51.17 51.98 52.47 48.60 52.05 46.01 C 52.46 43.40 51.18 39.91 48.05 40.05 C 37.04 39.91 26.02 40.07 15.00 39.98 C 13.44 40.07 11.78 39.79 10.30 40.40 Z" />
<path fill="#ffffff" opacity="1.00" d=" M 13.24 12.19 C 15.49 10.93 17.28 15.06 14.74 15.80 C 12.51 17.07 10.73 12.94 13.24 12.19 Z" />
<path fill="#ffffff" opacity="1.00" d=" M 13.22 28.21 C 15.47 26.90 17.29 31.06 14.74 31.79 C 12.54 33.08 10.72 28.96 13.22 28.21 Z" />
<path fill="#ffffff" opacity="1.00" d=" M 13.19 44.22 C 15.43 42.87 17.31 47.04 14.75 47.79 C 12.56 49.08 10.72 45.01 13.19 44.22 Z" />
</g>
<g id="#000000ff">
<path fill="#968176" opacity="1.00" d=" M 10.37 8.36 C 21.51 7.50 32.82 8.27 44.03 7.98 C 46.82 7.94 51.01 7.45 51.85 11.01 C 52.16 14.05 52.82 18.84 48.94 19.85 C 36.97 20.20 24.96 19.90 12.98 20.00 C 10.61 20.33 7.95 18.66 8.03 16.09 C 7.93 13.43 7.38 9.71 10.37 8.36 M 13.24 12.19 C 10.73 12.94 12.51 17.07 14.74 15.80 C 17.28 15.06 15.49 10.93 13.24 12.19 Z" />
<path fill="#968176" opacity="1.00" d=" M 10.34 24.38 C 11.82 23.82 13.45 24.05 15.00 23.98 C 26.01 24.07 37.03 23.91 48.04 24.05 C 50.14 23.93 51.94 25.84 51.97 27.89 C 51.95 30.17 52.58 32.97 50.81 34.79 C 49.59 36.15 47.66 35.98 46.01 36.02 C 34.98 35.97 23.96 36.02 12.93 36.00 C 10.59 36.32 7.98 34.66 8.03 32.13 C 7.94 29.47 7.37 25.75 10.34 24.38 M 13.22 28.21 C 10.72 28.96 12.54 33.08 14.74 31.79 C 17.29 31.06 15.47 26.90 13.22 28.21 Z" />
<path fill="#968176" opacity="1.00" d=" M 10.30 40.40 C 11.78 39.79 13.44 40.07 15.00 39.98 C 26.02 40.07 37.04 39.91 48.05 40.05 C 51.18 39.91 52.46 43.40 52.05 46.01 C 52.47 48.60 51.17 51.98 48.11 51.95 C 36.40 52.07 24.67 51.97 12.95 52.00 C 10.59 52.32 7.95 50.65 8.03 48.09 C 7.95 45.45 7.37 41.78 10.30 40.40 M 13.19 44.22 C 10.72 45.01 12.56 49.08 14.75 47.79 C 17.31 47.04 15.43 42.87 13.19 44.22 Z" />
</g>
</svg>
