<?xml version="1.0" encoding="UTF-8" ?>
<!DOCTYPE svg PUBLIC "-//W3C//DTD SVG 1.1//EN" "http://www.w3.org/Graphics/SVG/1.1/DTD/svg11.dtd">
<svg width="60pt" height="60pt" viewBox="0 0 60 60" version="1.1" xmlns="http://www.w3.org/2000/svg">
<g id="#ffffffff">
<path fill="#ffffff" opacity="1.00" d=" M 0.00 0.00 L 60.00 0.00 L 60.00 60.00 L 0.00 60.00 L 0.00 0.00 M 33.60 9.57 C 26.97 16.25 20.22 22.84 13.66 29.59 C 11.41 31.77 12.11 35.14 11.98 37.95 C 10.67 39.30 9.33 40.62 8.00 41.96 C 8.81 45.97 9.60 49.99 10.40 54.00 C 13.24 51.42 15.64 48.34 18.70 46.04 C 21.94 45.64 25.82 46.91 28.45 44.38 C 33.56 39.81 38.37 34.91 43.47 30.32 C 46.09 28.66 49.47 28.07 51.34 25.34 C 55.92 20.10 54.18 11.20 48.19 7.81 C 43.68 4.88 37.29 5.67 33.60 9.57 Z" />
<path fill="#ffffff" opacity="1.00" d=" M 16.00 32.90 C 22.72 25.99 29.64 19.28 36.40 12.41 C 40.21 16.19 44.04 19.97 47.76 23.85 C 45.28 25.44 42.06 25.73 40.02 27.99 C 35.07 32.69 30.15 37.41 25.11 42.01 C 22.21 41.78 18.03 43.00 16.40 39.76 C 15.69 37.56 16.09 35.18 16.00 32.90 M 34.13 20.21 C 29.34 24.31 24.99 28.98 20.62 33.54 C 18.44 35.82 22.22 39.58 24.49 37.35 C 28.91 33.23 33.19 28.91 37.34 24.51 C 39.28 22.51 36.61 19.01 34.13 20.21 Z" />
</g>
<g id="#000000ff">
<path fill="#000000" opacity="1.00" d=" M 33.60 9.57 C 37.29 5.67 43.68 4.88 48.19 7.81 C 54.18 11.20 55.92 20.10 51.34 25.34 C 49.47 28.07 46.09 28.66 43.47 30.32 C 38.37 34.91 33.56 39.81 28.45 44.38 C 25.82 46.91 21.94 45.64 18.70 46.04 C 15.64 48.34 13.24 51.42 10.40 54.00 C 9.60 49.99 8.81 45.97 8.00 41.96 C 9.33 40.62 10.67 39.30 11.98 37.95 C 12.11 35.14 11.41 31.77 13.66 29.59 C 20.22 22.84 26.97 16.25 33.60 9.57 M 16.00 32.90 C 16.09 35.18 15.69 37.56 16.40 39.76 C 18.03 43.00 22.21 41.78 25.11 42.01 C 30.15 37.41 35.07 32.69 40.02 27.99 C 42.06 25.73 45.28 25.44 47.76 23.85 C 44.04 19.97 40.21 16.19 36.40 12.41 C 29.64 19.28 22.72 25.99 16.00 32.90 Z" />
<path fill="#000000" opacity="1.00" d=" M 34.13 20.21 C 36.61 19.01 39.28 22.51 37.34 24.51 C 33.19 28.91 28.91 33.23 24.49 37.35 C 22.22 39.58 18.44 35.82 20.62 33.54 C 24.99 28.98 29.34 24.31 34.13 20.21 Z" />
</g>
</svg>
