<?xml version="1.0" encoding="UTF-8" ?>
<!DOCTYPE svg PUBLIC "-//W3C//DTD SVG 1.1//EN" "http://www.w3.org/Graphics/SVG/1.1/DTD/svg11.dtd">
<svg width="64pt" height="64pt" viewBox="0 0 64 64" version="1.1" xmlns="http://www.w3.org/2000/svg">
<g id="#ffffffff">
<path fill="#ffffff" opacity="1.00" d=" M 0.00 0.00 L 64.00 0.00 L 64.00 64.00 L 0.00 64.00 L 0.00 0.00 M 26.58 19.83 C 19.72 20.81 12.30 22.17 7.06 27.07 C 1.94 32.02 4.69 39.74 4.00 46.00 C 22.67 46.00 41.33 46.00 60.00 46.00 C 60.00 44.67 60.00 43.33 60.00 42.00 C 47.33 42.00 34.67 42.00 22.00 42.00 C 22.00 40.67 22.00 39.33 22.00 38.00 C 33.33 38.00 44.66 38.00 56.00 38.00 C 56.00 35.77 56.00 33.54 56.01 31.31 C 57.40 31.18 58.80 31.06 60.20 30.94 C 59.86 28.23 59.81 25.46 59.15 22.79 C 58.36 19.73 55.08 17.74 51.99 18.03 C 43.52 18.57 35.03 18.98 26.58 19.83 Z" />
<path fill="#ffffff" opacity="1.00" d=" M 33.99 23.19 C 40.31 22.90 46.62 22.16 52.94 22.08 C 55.68 22.18 55.59 25.34 55.86 27.31 C 44.21 28.37 32.56 29.41 20.92 30.50 C 17.17 30.47 13.47 29.70 9.70 29.94 C 16.52 24.51 25.64 23.84 33.99 23.19 Z" />
<path fill="#ffffff" opacity="1.00" d=" M 26.85 33.54 C 35.25 33.26 43.63 32.48 52.00 31.69 C 52.00 32.27 52.00 33.42 52.00 34.00 C 43.61 34.03 35.22 34.08 26.85 33.54 Z" />
<path fill="#ffffff" opacity="1.00" d=" M 8.16 35.14 C 9.13 33.42 11.40 34.20 13.00 33.94 C 14.59 34.19 16.79 33.44 17.82 35.09 C 18.12 37.38 18.02 39.70 17.99 42.00 C 14.66 42.00 11.34 42.00 8.01 42.00 C 7.97 39.71 7.89 37.42 8.16 35.14 Z" />
</g>
<g id="#000000ff">
<path fill="#000000" opacity="1.00" d=" M 26.58 19.83 C 35.03 18.98 43.52 18.57 51.99 18.03 C 55.08 17.74 58.36 19.73 59.15 22.79 C 59.81 25.46 59.86 28.23 60.20 30.94 C 58.80 31.06 57.40 31.18 56.01 31.31 C 56.00 33.54 56.00 35.77 56.00 38.00 C 44.66 38.00 33.33 38.00 22.00 38.00 C 22.00 39.33 22.00 40.67 22.00 42.00 C 34.67 42.00 47.33 42.00 60.00 42.00 C 60.00 43.33 60.00 44.67 60.00 46.00 C 41.33 46.00 22.67 46.00 4.00 46.00 C 4.69 39.74 1.94 32.02 7.06 27.07 C 12.30 22.17 19.72 20.81 26.58 19.83 M 33.99 23.19 C 25.64 23.84 16.52 24.51 9.70 29.94 C 13.47 29.70 17.17 30.47 20.92 30.50 C 32.56 29.41 44.21 28.37 55.86 27.31 C 55.59 25.34 55.68 22.18 52.94 22.08 C 46.62 22.16 40.31 22.90 33.99 23.19 M 26.85 33.54 C 35.22 34.08 43.61 34.03 52.00 34.00 C 52.00 33.42 52.00 32.27 52.00 31.69 C 43.63 32.48 35.25 33.26 26.85 33.54 M 8.16 35.14 C 7.89 37.42 7.97 39.71 8.01 42.00 C 11.34 42.00 14.66 42.00 17.99 42.00 C 18.02 39.70 18.12 37.38 17.82 35.09 C 16.79 33.44 14.59 34.19 13.00 33.94 C 11.40 34.20 9.13 33.42 8.16 35.14 Z" />
</g>
</svg>
