<?xml version="1.0" encoding="UTF-8" ?>
<!DOCTYPE svg PUBLIC "-//W3C//DTD SVG 1.1//EN" "http://www.w3.org/Graphics/SVG/1.1/DTD/svg11.dtd">
<svg width="60pt" height="60pt" viewBox="0 0 60 60" version="1.1" xmlns="http://www.w3.org/2000/svg">
<g id="#ffffffff">
<path fill="#ffffff" opacity="1.00" d=" M 0.00 0.00 L 60.00 0.00 L 60.00 60.00 L 0.00 60.00 L 0.00 0.00 M 20.84 14.48 C 14.07 15.12 7.91 19.76 5.40 26.07 C 3.14 31.79 4.19 38.10 4.05 44.10 C 3.93 46.64 6.61 48.33 8.95 48.00 C 23.98 47.94 39.02 48.12 54.04 47.91 C 56.74 47.92 56.25 44.37 54.16 43.67 C 53.95 42.34 54.01 39.91 52.04 40.08 C 40.70 39.88 29.35 40.06 18.00 40.00 C 18.00 38.00 18.00 36.00 18.00 34.00 C 29.64 33.86 41.31 34.27 52.94 33.80 C 55.18 31.36 53.39 27.41 54.08 24.37 C 54.58 24.22 55.59 23.92 56.09 23.77 C 56.01 17.81 51.32 11.95 45.07 12.09 C 36.97 12.62 28.91 13.71 20.84 14.48 Z" />
<path fill="#ffffff" opacity="1.00" d=" M 18.00 28.02 C 28.66 26.87 39.34 25.81 50.00 24.63 C 49.99 26.42 49.99 28.21 50.00 30.00 C 39.34 30.00 28.67 30.00 18.00 30.00 C 18.00 29.51 18.00 28.52 18.00 28.02 Z" />
<path fill="#ffffff" opacity="1.00" d=" M 9.35 32.52 C 11.52 30.85 14.93 33.45 13.79 35.97 C 13.30 37.79 10.80 38.61 9.32 37.45 C 7.60 36.38 7.61 33.56 9.35 32.52 Z" />
</g>
<g id="#000000ff">
<path fill="#000000" opacity="1.00" d=" M 20.84 14.48 C 28.91 13.71 36.97 12.62 45.07 12.09 C 51.32 11.95 56.01 17.81 56.09 23.77 C 55.59 23.92 54.58 24.22 54.08 24.37 C 53.39 27.41 55.18 31.36 52.94 33.80 C 41.31 34.27 29.64 33.86 18.00 34.00 C 18.00 36.00 18.00 38.00 18.00 40.00 C 29.35 40.06 40.70 39.88 52.04 40.08 C 54.01 39.91 53.95 42.34 54.16 43.67 C 56.25 44.37 56.74 47.92 54.04 47.91 C 39.02 48.12 23.98 47.94 8.95 48.00 C 6.61 48.33 3.93 46.64 4.05 44.10 C 4.19 38.10 3.14 31.79 5.40 26.07 C 7.91 19.76 14.07 15.12 20.84 14.48 M 18.00 28.02 C 18.00 28.52 18.00 29.51 18.00 30.00 C 28.67 30.00 39.34 30.00 50.00 30.00 C 49.99 28.21 49.99 26.42 50.00 24.63 C 39.34 25.81 28.66 26.87 18.00 28.02 M 9.35 32.52 C 7.61 33.56 7.60 36.38 9.32 37.45 C 10.80 38.61 13.30 37.79 13.79 35.97 C 14.93 33.45 11.52 30.85 9.35 32.52 Z" />
</g>
</svg>
