<?xml version="1.0" encoding="UTF-8" ?>
<!DOCTYPE svg PUBLIC "-//W3C//DTD SVG 1.1//EN" "http://www.w3.org/Graphics/SVG/1.1/DTD/svg11.dtd">
<svg width="60pt" height="60pt" viewBox="0 0 60 60" version="1.1" xmlns="http://www.w3.org/2000/svg">
<g id="#ffffffff">
<path fill="#ffffff" opacity="1.00" d=" M 0.00 0.00 L 60.00 0.00 L 60.00 60.00 L 0.00 60.00 L 0.00 0.00 M 4.16 13.01 C 3.78 16.71 4.07 20.45 4.02 24.17 C 5.72 25.41 7.65 26.79 7.92 29.05 C 8.53 32.01 6.33 34.48 3.96 35.86 C 4.10 39.57 3.77 43.31 4.17 47.01 C 4.57 49.16 6.94 50.19 8.95 50.00 C 22.99 50.00 37.04 50.00 51.08 50.00 C 53.12 50.21 55.40 49.10 55.83 46.96 C 56.23 43.26 55.93 39.53 55.98 35.83 C 53.97 34.49 51.88 32.64 51.98 29.99 C 51.88 27.34 53.97 25.51 55.98 24.17 C 55.93 20.47 56.22 16.75 55.84 13.06 C 55.44 10.88 53.14 9.77 51.08 10.00 C 37.00 10.00 22.92 9.99 8.83 10.00 C 6.82 9.79 4.61 10.93 4.16 13.01 Z" />
<path fill="#ffffff" opacity="1.00" d=" M 26.76 26.00 C 27.60 23.17 28.51 20.34 30.00 17.77 C 31.49 20.33 32.39 23.17 33.24 26.00 C 36.21 26.06 39.30 25.70 42.14 26.83 C 40.00 28.79 37.69 30.55 35.30 32.19 C 36.20 34.98 37.10 37.79 37.63 40.68 C 34.73 39.81 32.43 37.78 30.00 36.07 C 27.58 37.80 25.30 39.90 22.33 40.62 C 22.92 37.78 23.80 35.01 24.70 32.26 C 22.35 30.55 20.03 28.79 17.87 26.85 C 20.69 25.67 23.79 26.08 26.76 26.00 Z" />
</g>
<g id="#000000ff">
<path fill="#000000" opacity="1.00" d=" M 4.16 13.01 C 4.61 10.93 6.82 9.79 8.83 10.00 C 22.92 9.99 37.00 10.00 51.08 10.00 C 53.14 9.77 55.44 10.88 55.84 13.06 C 56.22 16.75 55.93 20.47 55.98 24.17 C 53.97 25.51 51.88 27.34 51.98 29.99 C 51.88 32.64 53.97 34.49 55.98 35.83 C 55.93 39.53 56.23 43.26 55.83 46.96 C 55.40 49.10 53.12 50.21 51.08 50.00 C 37.04 50.00 22.99 50.00 8.95 50.00 C 6.94 50.19 4.57 49.16 4.17 47.01 C 3.77 43.31 4.10 39.57 3.96 35.86 C 6.33 34.48 8.53 32.01 7.92 29.05 C 7.65 26.79 5.72 25.41 4.02 24.17 C 4.07 20.45 3.78 16.71 4.16 13.01 M 26.76 26.00 C 23.79 26.08 20.69 25.67 17.87 26.85 C 20.03 28.79 22.35 30.55 24.70 32.26 C 23.80 35.01 22.92 37.78 22.33 40.62 C 25.30 39.90 27.58 37.80 30.00 36.07 C 32.43 37.78 34.73 39.81 37.63 40.68 C 37.10 37.79 36.20 34.98 35.30 32.19 C 37.69 30.55 40.00 28.79 42.14 26.83 C 39.30 25.70 36.21 26.06 33.24 26.00 C 32.39 23.17 31.49 20.33 30.00 17.77 C 28.51 20.34 27.60 23.17 26.76 26.00 Z" />
</g>
</svg>
