<?xml version="1.0" encoding="UTF-8" ?>
<!DOCTYPE svg PUBLIC "-//W3C//DTD SVG 1.1//EN" "http://www.w3.org/Graphics/SVG/1.1/DTD/svg11.dtd">
<svg width="64pt" height="64pt" viewBox="0 0 64 64" version="1.1" xmlns="http://www.w3.org/2000/svg">
<g id="#ffffffff">
<path fill="#ffffff" opacity="1.00" d=" M 0.00 0.00 L 64.00 0.00 L 64.00 64.00 L 0.00 64.00 L 0.00 0.00 M 12.00 6.00 C 12.00 23.33 12.00 40.67 12.00 58.00 C 25.33 58.00 38.67 58.00 52.00 58.00 C 51.99 45.04 52.02 32.08 51.98 19.13 C 47.61 14.76 43.24 10.39 38.87 6.02 C 29.92 5.98 20.96 6.01 12.00 6.00 Z" />
<path fill="#ffffff" opacity="1.00" d=" M 16.00 10.00 C 22.67 10.00 29.34 9.99 36.00 10.00 C 35.98 14.00 36.02 18.00 36.00 22.00 C 40.00 21.98 44.00 22.02 48.00 22.00 C 48.00 32.66 48.00 43.33 48.00 54.00 C 37.33 54.00 26.67 54.00 16.00 54.00 C 16.00 39.33 16.00 24.67 16.00 10.00 M 30.02 26.00 C 29.99 34.00 29.99 42.00 30.02 50.00 C 31.34 50.01 32.66 50.01 33.98 50.00 C 34.01 42.00 34.01 34.00 33.98 26.00 C 32.66 25.99 31.34 25.99 30.02 26.00 M 22.02 34.00 C 21.99 39.33 21.99 44.67 22.02 50.00 C 23.34 50.01 24.66 50.01 25.98 50.00 C 26.01 44.67 26.01 39.33 25.98 34.00 C 24.66 33.99 23.34 33.99 22.02 34.00 M 38.02 38.00 C 37.98 42.00 37.98 46.00 38.02 50.00 C 39.34 50.01 40.66 50.01 41.98 50.00 C 42.02 46.00 42.02 42.00 41.98 38.00 C 40.66 37.99 39.34 37.99 38.02 38.00 Z" />
<path fill="#ffffff" opacity="1.00" d=" M 40.02 12.88 C 41.76 14.54 43.46 16.24 45.12 17.98 C 43.41 17.99 41.70 18.00 39.99 18.01 C 40.00 16.30 40.01 14.59 40.02 12.88 Z" />
</g>
<g id="#000000ff">
<path fill="#000000" opacity="1.00" d=" M 12.00 6.00 C 20.96 6.01 29.92 5.98 38.87 6.02 C 43.24 10.39 47.61 14.76 51.98 19.13 C 52.02 32.08 51.99 45.04 52.00 58.00 C 38.67 58.00 25.33 58.00 12.00 58.00 C 12.00 40.67 12.00 23.33 12.00 6.00 M 16.00 10.00 C 16.00 24.67 16.00 39.33 16.00 54.00 C 26.67 54.00 37.33 54.00 48.00 54.00 C 48.00 43.33 48.00 32.66 48.00 22.00 C 44.00 22.02 40.00 21.98 36.00 22.00 C 36.02 18.00 35.98 14.00 36.00 10.00 C 29.34 9.99 22.67 10.00 16.00 10.00 M 40.02 12.88 C 40.01 14.59 40.00 16.30 39.99 18.01 C 41.70 18.00 43.41 17.99 45.12 17.98 C 43.46 16.24 41.76 14.54 40.02 12.88 Z" />
<path fill="#000000" opacity="1.00" d=" M 30.02 26.00 C 31.34 25.99 32.66 25.99 33.98 26.00 C 34.01 34.00 34.01 42.00 33.98 50.00 C 32.66 50.01 31.34 50.01 30.02 50.00 C 29.99 42.00 29.99 34.00 30.02 26.00 Z" />
<path fill="#000000" opacity="1.00" d=" M 22.02 34.00 C 23.34 33.99 24.66 33.99 25.98 34.00 C 26.01 39.33 26.01 44.67 25.98 50.00 C 24.66 50.01 23.34 50.01 22.02 50.00 C 21.99 44.67 21.99 39.33 22.02 34.00 Z" />
<path fill="#000000" opacity="1.00" d=" M 38.02 38.00 C 39.34 37.99 40.66 37.99 41.98 38.00 C 42.02 42.00 42.02 46.00 41.98 50.00 C 40.66 50.01 39.34 50.01 38.02 50.00 C 37.98 46.00 37.98 42.00 38.02 38.00 Z" />
</g>
</svg>
