<?xml version="1.0" encoding="UTF-8" ?>
<!DOCTYPE svg PUBLIC "-//W3C//DTD SVG 1.1//EN" "http://www.w3.org/Graphics/SVG/1.1/DTD/svg11.dtd">
<svg width="64pt" height="64pt" viewBox="0 0 64 64" version="1.1" xmlns="http://www.w3.org/2000/svg">
<g id="#ffffffff">
<path fill="#ffffff" opacity="1.00" d=" M 0.00 0.00 L 64.00 0.00 L 64.00 64.00 L 0.00 64.00 L 0.00 0.00 M 20.00 6.00 C 17.03 11.05 14.20 16.17 11.24 21.22 C 10.58 22.35 9.86 23.54 10.00 24.92 C 10.03 32.97 9.93 41.03 10.04 49.09 C 9.99 52.73 13.26 55.99 16.90 55.95 C 19.56 56.05 22.28 56.19 24.91 55.70 C 28.18 54.81 30.30 51.41 30.00 48.09 C 29.90 39.84 30.21 31.57 29.84 23.35 C 26.75 17.47 23.30 11.77 20.00 6.00 M 34.00 8.00 C 34.00 24.00 34.00 40.00 34.00 56.00 C 40.67 56.00 47.33 56.00 54.00 56.00 C 54.00 40.00 54.00 24.00 54.00 8.00 C 47.33 8.00 40.67 8.00 34.00 8.00 Z" />
<path fill="#ffffff" opacity="1.00" d=" M 38.00 12.00 C 42.00 12.00 46.00 12.00 50.00 12.00 C 50.00 14.00 50.00 16.00 50.00 18.00 C 48.00 18.00 46.00 18.00 44.00 18.00 C 44.00 19.33 44.00 20.67 44.00 22.00 C 46.00 22.00 48.00 22.00 50.00 22.00 C 50.00 24.67 50.00 27.33 50.00 30.00 C 48.00 30.00 46.00 30.00 44.00 30.00 C 44.00 31.33 44.00 32.67 44.00 34.00 C 46.00 34.00 48.00 34.00 50.00 34.00 C 50.00 36.67 50.00 39.33 50.00 42.00 C 48.00 42.00 46.00 42.00 44.00 42.00 C 44.00 43.33 44.00 44.67 44.00 46.00 C 46.00 46.00 48.00 46.00 50.00 46.00 C 50.00 48.00 50.00 50.00 50.00 52.00 C 46.00 52.00 42.00 52.00 38.00 52.00 C 38.00 38.67 38.00 25.33 38.00 12.00 Z" />
<path fill="#ffffff" opacity="1.00" d=" M 18.90 15.90 C 22.42 15.42 22.80 19.88 24.56 22.00 C 21.52 22.00 18.49 22.00 15.45 21.99 C 16.60 19.96 17.78 17.95 18.90 15.90 Z" />
<path fill="#ffffff" opacity="1.00" d=" M 14.00 26.00 C 15.33 26.00 16.67 26.00 18.00 26.00 C 18.00 32.00 18.00 38.00 18.00 44.00 C 16.67 44.00 15.33 44.00 14.00 44.00 C 14.00 38.00 14.00 32.00 14.00 26.00 Z" />
<path fill="#ffffff" opacity="1.00" d=" M 22.00 26.00 C 23.33 26.00 24.67 26.00 26.00 26.00 C 26.00 32.00 26.00 38.00 26.00 44.00 C 24.67 44.00 23.33 44.00 22.00 44.00 C 22.00 38.00 22.00 32.00 22.00 26.00 Z" />
<path fill="#ffffff" opacity="1.00" d=" M 13.83 48.01 C 17.94 47.99 22.06 47.99 26.18 48.01 C 26.29 53.17 20.26 52.08 16.86 51.91 C 14.67 52.01 14.04 49.72 13.83 48.01 Z" />
</g>
<g id="#000000ff">
<path fill="#000000" opacity="1.00" d=" M 20.00 6.00 C 23.30 11.77 26.75 17.47 29.84 23.35 C 30.21 31.57 29.90 39.84 30.00 48.09 C 30.30 51.41 28.18 54.81 24.91 55.70 C 22.28 56.19 19.56 56.05 16.90 55.95 C 13.26 55.99 9.99 52.73 10.04 49.09 C 9.93 41.03 10.03 32.97 10.00 24.92 C 9.86 23.54 10.58 22.35 11.24 21.22 C 14.20 16.17 17.03 11.05 20.00 6.00 M 18.90 15.90 C 17.78 17.95 16.60 19.96 15.45 21.99 C 18.49 22.00 21.52 22.00 24.56 22.00 C 22.80 19.88 22.42 15.42 18.90 15.90 M 14.00 26.00 C 14.00 32.00 14.00 38.00 14.00 44.00 C 15.33 44.00 16.67 44.00 18.00 44.00 C 18.00 38.00 18.00 32.00 18.00 26.00 C 16.67 26.00 15.33 26.00 14.00 26.00 M 22.00 26.00 C 22.00 32.00 22.00 38.00 22.00 44.00 C 23.33 44.00 24.67 44.00 26.00 44.00 C 26.00 38.00 26.00 32.00 26.00 26.00 C 24.67 26.00 23.33 26.00 22.00 26.00 M 13.83 48.01 C 14.04 49.72 14.67 52.01 16.86 51.91 C 20.26 52.08 26.29 53.17 26.18 48.01 C 22.06 47.99 17.94 47.99 13.83 48.01 Z" />
<path fill="#000000" opacity="1.00" d=" M 34.00 8.00 C 40.67 8.00 47.33 8.00 54.00 8.00 C 54.00 24.00 54.00 40.00 54.00 56.00 C 47.33 56.00 40.67 56.00 34.00 56.00 C 34.00 40.00 34.00 24.00 34.00 8.00 M 38.00 12.00 C 38.00 25.33 38.00 38.67 38.00 52.00 C 42.00 52.00 46.00 52.00 50.00 52.00 C 50.00 50.00 50.00 48.00 50.00 46.00 C 48.00 46.00 46.00 46.00 44.00 46.00 C 44.00 44.67 44.00 43.33 44.00 42.00 C 46.00 42.00 48.00 42.00 50.00 42.00 C 50.00 39.33 50.00 36.67 50.00 34.00 C 48.00 34.00 46.00 34.00 44.00 34.00 C 44.00 32.67 44.00 31.33 44.00 30.00 C 46.00 30.00 48.00 30.00 50.00 30.00 C 50.00 27.33 50.00 24.67 50.00 22.00 C 48.00 22.00 46.00 22.00 44.00 22.00 C 44.00 20.67 44.00 19.33 44.00 18.00 C 46.00 18.00 48.00 18.00 50.00 18.00 C 50.00 16.00 50.00 14.00 50.00 12.00 C 46.00 12.00 42.00 12.00 38.00 12.00 Z" />
</g>
</svg>
