<?xml version="1.0" encoding="UTF-8" ?>
<!DOCTYPE svg PUBLIC "-//W3C//DTD SVG 1.1//EN" "http://www.w3.org/Graphics/SVG/1.1/DTD/svg11.dtd">
<svg width="60pt" height="60pt" viewBox="0 0 60 60" version="1.1" xmlns="http://www.w3.org/2000/svg">
<g id="#ffffffff">
<path fill="#ffffff" opacity="1.00" d=" M 0.00 0.00 L 60.00 0.00 L 60.00 60.00 L 0.00 60.00 L 0.00 0.00 M 45.00 7.99 C 45.75 8.00 47.25 8.00 48.00 8.00 C 48.00 16.67 48.00 25.33 48.00 34.00 C 47.25 34.00 45.75 34.00 45.00 34.00 C 46.67 35.67 48.34 37.33 50.00 39.00 C 51.66 37.33 53.33 35.67 55.00 34.00 C 54.25 34.00 52.75 34.00 52.00 34.00 C 52.00 25.33 52.00 16.67 52.00 8.00 C 52.75 8.00 54.25 8.00 55.00 8.00 C 53.33 6.33 51.67 4.66 50.01 2.98 C 48.35 4.66 46.67 6.32 45.00 7.99 M 26.23 5.20 C 22.77 8.64 24.20 13.85 25.27 17.99 C 27.80 17.99 30.33 17.99 32.86 18.00 C 33.59 14.17 34.95 9.83 32.82 6.20 C 31.54 3.95 28.06 3.16 26.23 5.20 M 39.16 4.10 C 36.87 5.23 38.42 8.89 40.83 7.88 C 43.15 6.76 41.57 3.15 39.16 4.10 M 25.19 22.02 C 25.75 24.27 25.97 27.86 29.02 27.99 C 32.18 28.03 32.45 24.32 33.00 22.04 C 30.40 22.01 27.79 22.00 25.19 22.02 M 9.77 35.70 C 6.87 39.24 8.28 44.02 9.28 47.99 C 11.80 47.99 14.33 47.99 16.86 48.00 C 17.59 44.18 18.95 39.86 16.83 36.23 C 15.45 33.66 11.46 33.19 9.77 35.70 M 23.24 34.18 C 20.73 34.95 22.51 39.07 24.77 37.80 C 27.24 37.01 25.50 32.97 23.24 34.18 M 31.28 34.13 C 28.78 35.03 30.39 38.90 32.81 37.90 C 35.11 36.88 33.62 33.14 31.28 34.13 M 39.12 34.10 C 36.92 35.29 38.39 38.79 40.78 37.91 C 43.18 36.81 41.57 33.12 39.12 34.10 M 9.18 52.02 C 9.76 54.27 9.96 57.89 13.05 57.99 C 16.19 58.00 16.45 54.32 17.00 52.04 C 14.39 52.01 11.79 52.00 9.18 52.02 Z" />
</g>
<g id="#000000ff">
<path fill="#000000" opacity="1.00" d=" M 45.00 7.99 C 46.67 6.32 48.35 4.66 50.01 2.98 C 51.67 4.66 53.33 6.33 55.00 8.00 C 54.25 8.00 52.75 8.00 52.00 8.00 C 52.00 16.67 52.00 25.33 52.00 34.00 C 52.75 34.00 54.25 34.00 55.00 34.00 C 53.33 35.67 51.66 37.33 50.00 39.00 C 48.34 37.33 46.67 35.67 45.00 34.00 C 45.75 34.00 47.25 34.00 48.00 34.00 C 48.00 25.33 48.00 16.67 48.00 8.00 C 47.25 8.00 45.75 8.00 45.00 7.99 Z" />
<path fill="#000000" opacity="1.00" d=" M 26.23 5.20 C 28.06 3.16 31.54 3.95 32.82 6.20 C 34.95 9.83 33.59 14.17 32.86 18.00 C 30.33 17.99 27.80 17.99 25.27 17.99 C 24.20 13.85 22.77 8.64 26.23 5.20 Z" />
<path fill="#000000" opacity="1.00" d=" M 39.16 4.10 C 41.57 3.15 43.15 6.76 40.83 7.88 C 38.42 8.89 36.87 5.23 39.16 4.10 Z" />
<path fill="#000000" opacity="1.00" d=" M 25.19 22.02 C 27.79 22.00 30.40 22.01 33.00 22.04 C 32.45 24.32 32.18 28.03 29.02 27.99 C 25.97 27.86 25.75 24.27 25.19 22.02 Z" />
<path fill="#000000" opacity="1.00" d=" M 9.77 35.70 C 11.46 33.19 15.45 33.66 16.83 36.23 C 18.95 39.86 17.59 44.18 16.86 48.00 C 14.33 47.99 11.80 47.99 9.28 47.99 C 8.28 44.02 6.87 39.24 9.77 35.70 Z" />
<path fill="#000000" opacity="1.00" d=" M 23.24 34.18 C 25.50 32.97 27.24 37.01 24.77 37.80 C 22.51 39.07 20.73 34.95 23.24 34.18 Z" />
<path fill="#000000" opacity="1.00" d=" M 31.28 34.13 C 33.62 33.14 35.11 36.88 32.81 37.90 C 30.39 38.90 28.78 35.03 31.28 34.13 Z" />
<path fill="#000000" opacity="1.00" d=" M 39.12 34.10 C 41.57 33.12 43.18 36.81 40.78 37.91 C 38.39 38.79 36.92 35.29 39.12 34.10 Z" />
<path fill="#000000" opacity="1.00" d=" M 9.18 52.02 C 11.79 52.00 14.39 52.01 17.00 52.04 C 16.45 54.32 16.19 58.00 13.05 57.99 C 9.96 57.89 9.76 54.27 9.18 52.02 Z" />
</g>
</svg>
