<?xml version="1.0" encoding="UTF-8" ?>
<!DOCTYPE svg PUBLIC "-//W3C//DTD SVG 1.1//EN" "http://www.w3.org/Graphics/SVG/1.1/DTD/svg11.dtd">
<svg width="60pt" height="60pt" viewBox="0 0 60 60" version="1.1" xmlns="http://www.w3.org/2000/svg">
<g id="#ffffffff">
<path fill="#ffffff" opacity="1.00" d=" M 0.00 0.00 L 60.00 0.00 L 60.00 60.00 L 0.00 60.00 L 0.00 0.00 M 9.18 8.18 C 7.24 8.87 7.88 12.16 9.98 11.91 C 15.98 12.15 21.99 11.92 28.00 12.00 C 28.00 20.67 28.00 29.33 28.00 38.00 C 26.00 38.00 24.00 38.00 22.00 38.00 C 24.68 41.32 27.34 44.66 30.00 48.00 C 32.67 44.67 35.34 41.34 38.00 38.01 C 36.00 38.00 34.00 38.00 32.00 38.00 C 31.95 29.29 32.09 20.57 31.95 11.87 C 31.97 9.38 29.39 7.64 27.05 8.00 C 21.10 8.10 15.12 7.76 9.18 8.18 M 9.18 48.17 C 7.26 48.89 7.87 52.13 9.98 51.91 C 14.23 52.05 18.53 52.17 22.78 51.82 C 24.74 51.19 24.15 47.84 22.04 48.09 C 17.76 47.94 13.45 47.84 9.18 48.17 M 37.19 48.18 C 35.28 48.83 35.84 52.10 37.92 51.90 C 41.95 52.10 46.00 52.08 50.03 51.91 C 52.14 52.11 52.75 48.93 50.83 48.18 C 46.30 47.87 41.72 47.85 37.19 48.18 Z" />
</g>
<g id="#000000ff">
<path fill="#000000" opacity="1.00" d=" M 9.18 8.18 C 15.12 7.76 21.10 8.10 27.05 8.00 C 29.39 7.64 31.97 9.38 31.95 11.87 C 32.09 20.57 31.95 29.29 32.00 38.00 C 34.00 38.00 36.00 38.00 38.00 38.01 C 35.34 41.34 32.67 44.67 30.00 48.00 C 27.34 44.66 24.68 41.32 22.00 38.00 C 24.00 38.00 26.00 38.00 28.00 38.00 C 28.00 29.33 28.00 20.67 28.00 12.00 C 21.99 11.92 15.98 12.15 9.98 11.91 C 7.88 12.16 7.24 8.87 9.18 8.18 Z" />
<path fill="#000000" opacity="1.00" d=" M 9.18 48.17 C 13.45 47.84 17.76 47.94 22.04 48.09 C 24.15 47.84 24.74 51.19 22.78 51.82 C 18.53 52.17 14.23 52.05 9.98 51.91 C 7.87 52.13 7.26 48.89 9.18 48.17 Z" />
<path fill="#000000" opacity="1.00" d=" M 37.19 48.18 C 41.72 47.85 46.30 47.87 50.83 48.18 C 52.75 48.93 52.14 52.11 50.03 51.91 C 46.00 52.08 41.95 52.10 37.92 51.90 C 35.84 52.10 35.28 48.83 37.19 48.18 Z" />
</g>
</svg>
