<?xml version="1.0" encoding="UTF-8" ?>
<!DOCTYPE svg PUBLIC "-//W3C//DTD SVG 1.1//EN" "http://www.w3.org/Graphics/SVG/1.1/DTD/svg11.dtd">
<svg width="60pt" height="60pt" viewBox="0 0 60 60" version="1.1" xmlns="http://www.w3.org/2000/svg">
<g id="#ffffffff">
<path fill="#ffffff" opacity="1.00" d=" M 0.00 0.00 L 60.00 0.00 L 60.00 60.00 L 0.00 60.00 L 0.00 0.00 M 8.02 12.94 C 8.04 25.27 7.84 37.61 8.11 49.93 C 7.92 52.60 12.09 52.63 11.88 49.93 C 12.21 37.30 11.88 24.65 12.01 12.01 C 24.00 11.99 36.00 11.99 47.99 12.01 C 48.01 21.99 48.01 31.97 47.99 41.95 C 46.02 41.99 44.04 42.04 42.06 42.10 C 44.64 45.38 47.28 48.62 50.00 51.78 C 52.73 48.62 55.37 45.39 57.94 42.11 C 55.96 42.04 53.98 41.99 52.00 41.94 C 51.88 31.97 52.20 21.98 51.90 12.01 C 52.08 9.35 49.47 7.76 47.06 8.02 C 35.38 8.02 23.68 7.87 12.01 8.09 C 9.29 7.86 7.76 10.52 8.02 12.94 M 23.25 48.26 C 21.58 48.81 21.57 51.19 23.25 51.74 C 27.71 52.25 32.28 52.25 36.75 51.74 C 38.43 51.19 38.43 48.81 36.75 48.26 C 32.28 47.75 27.72 47.75 23.25 48.26 Z" />
</g>
<g id="#000000ff">
<path fill="#000000" opacity="1.00" d=" M 8.02 12.94 C 7.76 10.52 9.29 7.86 12.01 8.09 C 23.68 7.87 35.38 8.02 47.06 8.02 C 49.47 7.76 52.08 9.35 51.90 12.01 C 52.20 21.98 51.88 31.97 52.00 41.94 C 53.98 41.99 55.96 42.04 57.94 42.11 C 55.37 45.39 52.73 48.62 50.00 51.78 C 47.28 48.62 44.64 45.38 42.06 42.10 C 44.04 42.04 46.02 41.99 47.99 41.95 C 48.01 31.97 48.01 21.99 47.99 12.01 C 36.00 11.99 24.00 11.99 12.01 12.01 C 11.88 24.65 12.21 37.30 11.88 49.93 C 12.09 52.63 7.92 52.60 8.11 49.93 C 7.84 37.61 8.04 25.27 8.02 12.94 Z" />
<path fill="#000000" opacity="1.00" d=" M 23.25 48.26 C 27.72 47.75 32.28 47.75 36.75 48.26 C 38.43 48.81 38.43 51.19 36.75 51.74 C 32.28 52.25 27.71 52.25 23.25 51.74 C 21.57 51.19 21.58 48.81 23.25 48.26 Z" />
</g>
</svg>
