<?xml version="1.0" encoding="UTF-8" ?>
<!DOCTYPE svg PUBLIC "-//W3C//DTD SVG 1.1//EN" "http://www.w3.org/Graphics/SVG/1.1/DTD/svg11.dtd">
<svg width="60pt" height="60pt" viewBox="0 0 60 60" version="1.1" xmlns="http://www.w3.org/2000/svg">
<g id="#ffffffff">
<path fill="#ffffff" opacity="1.00" d=" M 0.00 0.00 L 60.00 0.00 L 60.00 60.00 L 0.00 60.00 L 0.00 0.00 M 12.11 3.93 C 11.50 6.50 14.43 6.18 16.05 6.80 C 15.37 9.57 14.49 12.29 14.04 15.10 C 15.05 18.43 16.81 21.47 18.10 24.69 C 17.40 27.45 16.94 30.28 16.03 32.98 C 14.40 35.97 11.87 38.34 10.19 41.30 C 9.80 44.84 9.98 48.44 10.07 52.00 C 9.82 54.10 13.14 54.80 13.78 52.79 C 14.47 49.82 14.60 46.76 15.03 43.76 C 17.10 42.61 19.15 41.44 21.20 40.26 C 28.59 44.70 35.80 49.44 43.24 53.76 C 45.03 54.91 47.07 51.93 45.37 50.64 C 39.43 45.21 33.20 40.09 27.16 34.75 C 27.62 33.50 28.07 32.24 28.52 30.98 C 30.97 31.96 33.31 33.25 35.86 33.94 C 39.51 33.46 43.15 32.73 46.71 31.80 C 48.52 31.34 48.39 28.65 46.72 28.09 C 43.52 28.18 40.39 29.06 37.23 29.52 C 32.66 27.06 28.19 24.35 23.15 22.97 C 21.74 20.21 20.37 17.43 18.97 14.67 C 19.28 12.34 19.60 10.01 19.92 7.68 C 31.95 10.36 43.86 13.56 55.91 16.13 C 55.87 15.67 55.78 14.73 55.74 14.26 C 44.04 11.19 32.22 8.57 20.45 5.77 C 20.12 5.37 19.45 4.58 19.11 4.18 C 16.78 4.88 14.44 4.41 12.11 3.93 M 26.43 12.71 C 23.21 14.46 23.25 19.62 26.49 21.32 C 29.62 23.36 34.17 20.65 34.00 16.96 C 34.12 13.26 29.53 10.62 26.43 12.71 Z" />
</g>
<g id="#000000ff">
<path fill="#968176" opacity="1.00" d=" M 12.11 3.93 C 14.44 4.41 16.78 4.88 19.11 4.18 C 19.45 4.58 20.12 5.37 20.45 5.77 C 32.22 8.57 44.04 11.19 55.74 14.26 C 55.78 14.73 55.87 15.67 55.91 16.13 C 43.86 13.56 31.95 10.36 19.92 7.68 C 19.60 10.01 19.28 12.34 18.97 14.67 C 20.37 17.43 21.74 20.21 23.15 22.97 C 28.19 24.35 32.66 27.06 37.23 29.52 C 40.39 29.06 43.52 28.18 46.72 28.09 C 48.39 28.65 48.52 31.34 46.71 31.80 C 43.15 32.73 39.51 33.46 35.86 33.94 C 33.31 33.25 30.97 31.96 28.52 30.98 C 28.07 32.24 27.62 33.50 27.16 34.75 C 33.20 40.09 39.43 45.21 45.37 50.64 C 47.07 51.93 45.03 54.91 43.24 53.76 C 35.80 49.44 28.59 44.70 21.20 40.26 C 19.15 41.44 17.10 42.61 15.03 43.76 C 14.60 46.76 14.47 49.82 13.78 52.79 C 13.14 54.80 9.82 54.10 10.07 52.00 C 9.98 48.44 9.80 44.84 10.19 41.30 C 11.87 38.34 14.40 35.97 16.03 32.98 C 16.94 30.28 17.40 27.45 18.10 24.69 C 16.81 21.47 15.05 18.43 14.04 15.10 C 14.49 12.29 15.37 9.57 16.05 6.80 C 14.43 6.18 11.50 6.50 12.11 3.93 Z" />
<path fill="#968176" opacity="1.00" d=" M 26.43 12.71 C 29.53 10.62 34.12 13.26 34.00 16.96 C 34.17 20.65 29.62 23.36 26.49 21.32 C 23.25 19.62 23.21 14.46 26.43 12.71 Z" />
</g>
</svg>
