<?xml version="1.0" encoding="UTF-8" ?>
<!DOCTYPE svg PUBLIC "-//W3C//DTD SVG 1.1//EN" "http://www.w3.org/Graphics/SVG/1.1/DTD/svg11.dtd">
<svg width="60pt" height="60pt" viewBox="0 0 60 60" version="1.1" xmlns="http://www.w3.org/2000/svg">
<g id="#ffffffff">
<path fill="#ffffff" opacity="1.00" d=" M 0.00 0.00 L 60.00 0.00 L 60.00 60.00 L 0.00 60.00 L 0.00 0.00 M 24.45 6.66 C 14.98 8.81 7.35 17.21 6.22 26.86 C 5.01 35.34 8.82 44.26 15.75 49.27 C 22.16 54.12 31.07 55.33 38.55 52.40 C 46.64 49.39 52.71 41.70 53.78 33.14 C 53.90 31.46 54.50 29.30 52.91 28.10 C 46.11 21.25 39.24 14.45 32.44 7.59 C 30.56 4.99 27.08 6.25 24.45 6.66 Z" />
<path fill="#ffffff" opacity="1.00" d=" M 12.16 21.00 C 15.13 14.95 21.35 11.08 27.91 10.13 C 27.99 11.43 28.05 12.73 28.09 14.04 C 19.56 15.13 12.80 23.51 14.15 32.13 C 15.08 40.59 23.75 47.27 32.19 45.80 C 39.29 44.98 44.91 38.89 45.95 31.94 C 46.93 31.95 48.88 31.96 49.85 31.97 C 49.01 38.13 45.61 44.03 40.15 47.18 C 32.81 51.73 22.58 50.61 16.36 44.63 C 9.93 38.83 8.12 28.66 12.16 21.00 Z" />
<path fill="#ffffff" opacity="1.00" d=" M 31.97 12.88 C 37.09 17.86 42.14 22.91 47.12 28.03 C 39.18 27.52 32.47 20.83 31.97 12.88 Z" />
</g>
<g id="#000000ff">
<path fill="#968176" opacity="1.00" d=" M 24.45 6.66 C 27.08 6.25 30.56 4.99 32.44 7.59 C 39.24 14.45 46.11 21.25 52.91 28.10 C 54.50 29.30 53.90 31.46 53.78 33.14 C 52.71 41.70 46.64 49.39 38.55 52.40 C 31.07 55.33 22.16 54.12 15.75 49.27 C 8.82 44.26 5.01 35.34 6.22 26.86 C 7.35 17.21 14.98 8.81 24.45 6.66 M 12.16 21.00 C 8.12 28.66 9.93 38.83 16.36 44.63 C 22.58 50.61 32.81 51.73 40.15 47.18 C 45.61 44.03 49.01 38.13 49.85 31.97 C 48.88 31.96 46.93 31.95 45.95 31.94 C 44.91 38.89 39.29 44.98 32.19 45.80 C 23.75 47.27 15.08 40.59 14.15 32.13 C 12.80 23.51 19.56 15.13 28.09 14.04 C 28.05 12.73 27.99 11.43 27.91 10.13 C 21.35 11.08 15.13 14.95 12.16 21.00 M 31.97 12.88 C 32.47 20.83 39.18 27.52 47.12 28.03 C 42.14 22.91 37.09 17.86 31.97 12.88 Z" />
</g>
</svg>
