<?xml version="1.0" encoding="UTF-8" ?>
<!DOCTYPE svg PUBLIC "-//W3C//DTD SVG 1.1//EN" "http://www.w3.org/Graphics/SVG/1.1/DTD/svg11.dtd">
<svg width="64pt" height="64pt" viewBox="0 0 64 64" version="1.1" xmlns="http://www.w3.org/2000/svg">
<g id="#ffffffff">
<path fill="#ffffff" opacity="1.00" d=" M 0.00 0.00 L 64.00 0.00 L 64.00 64.00 L 0.00 64.00 L 0.00 0.00 M 4.36 21.88 C 3.12 26.48 5.17 31.28 8.41 34.54 C 16.25 42.44 24.15 50.28 32.01 58.16 C 39.36 50.83 46.68 43.47 54.04 36.14 C 56.80 33.36 59.45 30.04 59.91 26.01 C 60.59 18.81 55.15 11.77 48.10 10.35 C 42.20 9.00 36.18 11.67 32.00 15.77 C 28.75 12.69 24.66 10.25 20.09 10.05 C 12.86 9.40 5.79 14.79 4.36 21.88 Z" />
<path fill="#ffffff" opacity="1.00" d=" M 8.15 26.07 C 7.18 19.89 12.79 13.84 18.99 14.03 C 24.25 14.17 28.56 17.75 32.00 21.39 C 35.44 17.72 39.78 14.14 45.05 14.02 C 51.23 13.89 56.76 19.87 55.86 26.05 C 55.19 29.17 52.93 31.59 50.75 33.78 C 44.48 40.00 38.26 46.27 32.01 52.50 C 25.74 46.24 19.49 39.95 13.19 33.72 C 11.03 31.55 8.98 29.08 8.15 26.07 M 15.97 18.52 C 17.02 19.63 16.90 22.73 19.09 22.16 C 21.32 22.80 20.91 19.55 21.87 18.42 C 19.91 17.98 17.91 18.04 15.97 18.52 M 42.11 18.44 C 43.07 19.59 42.67 22.93 44.97 22.16 C 47.13 22.62 46.97 19.64 47.98 18.49 C 46.04 18.02 44.05 18.01 42.11 18.44 M 23.58 24.43 C 24.52 25.37 25.46 26.31 26.40 27.24 C 27.35 26.30 28.29 25.36 29.23 24.42 C 28.30 23.48 27.36 22.53 26.42 21.59 C 25.47 22.54 24.53 23.48 23.58 24.43 M 37.59 21.59 C 36.65 22.53 35.71 23.47 34.77 24.41 C 35.70 25.35 36.63 26.30 37.57 27.24 C 38.52 26.31 39.47 25.37 40.43 24.43 C 39.48 23.48 38.53 22.54 37.59 21.59 M 12.07 23.05 C 11.79 25.19 12.62 27.09 13.85 28.78 C 14.89 27.91 15.94 27.05 16.98 26.19 C 16.69 25.66 16.10 24.60 15.81 24.07 C 14.57 23.72 13.32 23.38 12.07 23.05 M 48.17 24.04 C 47.88 24.59 47.31 25.68 47.03 26.22 C 48.08 27.06 49.12 27.90 50.17 28.74 C 51.37 27.04 52.18 25.14 51.96 23.03 C 50.70 23.35 49.43 23.69 48.17 24.04 M 29.17 30.01 C 30.11 30.95 31.06 31.89 32.00 32.83 C 32.94 31.89 33.89 30.95 34.83 30.01 C 33.89 29.06 32.94 28.12 32.00 27.18 C 31.06 28.12 30.11 29.06 29.17 30.01 M 17.12 32.01 C 18.07 32.95 19.01 33.89 19.95 34.83 C 20.89 33.90 21.84 32.95 22.78 32.01 C 21.83 31.07 20.89 30.12 19.95 29.18 C 19.00 30.12 18.06 31.07 17.12 32.01 M 41.23 32.01 C 42.17 32.95 43.11 33.89 44.06 34.84 C 45.00 33.90 45.94 32.96 46.88 32.01 C 45.94 31.07 45.00 30.13 44.05 29.18 C 43.11 30.12 42.17 31.06 41.23 32.01 M 23.13 38.00 C 24.06 38.94 25.00 39.88 25.94 40.82 C 26.89 39.88 27.84 38.94 28.78 38.00 C 27.84 37.05 26.89 36.11 25.93 35.17 C 25.00 36.11 24.06 37.05 23.13 38.00 M 35.26 38.00 C 36.19 38.94 37.13 39.88 38.06 40.82 C 39.01 39.88 39.97 38.94 40.91 38.00 C 39.97 37.05 39.02 36.11 38.06 35.17 C 37.13 36.11 36.19 37.05 35.26 38.00 M 29.15 44.11 C 30.10 45.06 31.05 46.01 32.01 46.96 C 32.97 46.01 33.92 45.05 34.88 44.09 C 33.92 43.13 32.96 42.18 32.00 41.23 C 31.05 42.19 30.10 43.15 29.15 44.11 Z" />
</g>
<g id="#000000ff">
<path fill="#000000" opacity="1.00" d=" M 4.36 21.88 C 5.79 14.79 12.86 9.40 20.09 10.05 C 24.66 10.25 28.75 12.69 32.00 15.77 C 36.18 11.67 42.20 9.00 48.10 10.35 C 55.15 11.77 60.59 18.81 59.91 26.01 C 59.45 30.04 56.80 33.36 54.04 36.14 C 46.68 43.47 39.36 50.83 32.01 58.16 C 24.15 50.28 16.25 42.44 8.41 34.54 C 5.17 31.28 3.12 26.48 4.36 21.88 M 8.15 26.07 C 8.98 29.08 11.03 31.55 13.19 33.72 C 19.49 39.95 25.74 46.24 32.01 52.50 C 38.26 46.27 44.48 40.00 50.75 33.78 C 52.93 31.59 55.19 29.17 55.86 26.05 C 56.76 19.87 51.23 13.89 45.05 14.02 C 39.78 14.14 35.44 17.72 32.00 21.39 C 28.56 17.75 24.25 14.17 18.99 14.03 C 12.79 13.84 7.18 19.89 8.15 26.07 Z" />
<path fill="#000000" opacity="1.00" d=" M 15.97 18.52 C 17.91 18.04 19.91 17.98 21.87 18.42 C 20.91 19.55 21.32 22.80 19.09 22.16 C 16.90 22.73 17.02 19.63 15.97 18.52 Z" />
<path fill="#000000" opacity="1.00" d=" M 42.11 18.44 C 44.05 18.01 46.04 18.02 47.98 18.49 C 46.97 19.64 47.13 22.62 44.97 22.16 C 42.67 22.93 43.07 19.59 42.11 18.44 Z" />
<path fill="#000000" opacity="1.00" d=" M 23.58 24.43 C 24.53 23.48 25.47 22.54 26.42 21.59 C 27.36 22.53 28.30 23.48 29.23 24.42 C 28.29 25.36 27.35 26.30 26.40 27.24 C 25.46 26.31 24.52 25.37 23.58 24.43 Z" />
<path fill="#000000" opacity="1.00" d=" M 37.59 21.59 C 38.53 22.54 39.48 23.48 40.43 24.43 C 39.47 25.37 38.52 26.31 37.57 27.24 C 36.63 26.30 35.70 25.35 34.77 24.41 C 35.71 23.47 36.65 22.53 37.59 21.59 Z" />
<path fill="#000000" opacity="1.00" d=" M 12.07 23.05 C 13.32 23.38 14.57 23.72 15.81 24.07 C 16.10 24.60 16.69 25.66 16.98 26.19 C 15.94 27.05 14.89 27.91 13.85 28.78 C 12.62 27.09 11.79 25.19 12.07 23.05 Z" />
<path fill="#000000" opacity="1.00" d=" M 48.17 24.04 C 49.43 23.69 50.70 23.35 51.96 23.03 C 52.18 25.14 51.37 27.04 50.17 28.74 C 49.12 27.90 48.08 27.06 47.03 26.22 C 47.31 25.68 47.88 24.59 48.17 24.04 Z" />
<path fill="#000000" opacity="1.00" d=" M 29.17 30.01 C 30.11 29.06 31.06 28.12 32.00 27.18 C 32.94 28.12 33.89 29.06 34.83 30.01 C 33.89 30.95 32.94 31.89 32.00 32.83 C 31.06 31.89 30.11 30.95 29.17 30.01 Z" />
<path fill="#000000" opacity="1.00" d=" M 17.12 32.01 C 18.06 31.07 19.00 30.12 19.95 29.18 C 20.89 30.12 21.83 31.07 22.78 32.01 C 21.84 32.95 20.89 33.90 19.95 34.83 C 19.01 33.89 18.07 32.95 17.12 32.01 Z" />
<path fill="#000000" opacity="1.00" d=" M 41.23 32.01 C 42.17 31.06 43.11 30.12 44.05 29.18 C 45.00 30.13 45.94 31.07 46.88 32.01 C 45.94 32.96 45.00 33.90 44.06 34.84 C 43.11 33.89 42.17 32.95 41.23 32.01 Z" />
<path fill="#000000" opacity="1.00" d=" M 23.13 38.00 C 24.06 37.05 25.00 36.11 25.93 35.17 C 26.89 36.11 27.84 37.05 28.78 38.00 C 27.84 38.94 26.89 39.88 25.94 40.82 C 25.00 39.88 24.06 38.94 23.13 38.00 Z" />
<path fill="#000000" opacity="1.00" d=" M 35.26 38.00 C 36.19 37.05 37.13 36.11 38.06 35.17 C 39.02 36.11 39.97 37.05 40.91 38.00 C 39.97 38.94 39.01 39.88 38.06 40.82 C 37.13 39.88 36.19 38.94 35.26 38.00 Z" />
<path fill="#000000" opacity="1.00" d=" M 29.15 44.11 C 30.10 43.15 31.05 42.19 32.00 41.23 C 32.96 42.18 33.92 43.13 34.88 44.09 C 33.92 45.05 32.97 46.01 32.01 46.96 C 31.05 46.01 30.10 45.06 29.15 44.11 Z" />
</g>
</svg>
