<?xml version="1.0" encoding="UTF-8" ?>
<!DOCTYPE svg PUBLIC "-//W3C//DTD SVG 1.1//EN" "http://www.w3.org/Graphics/SVG/1.1/DTD/svg11.dtd">
<svg width="64pt" height="64pt" viewBox="0 0 64 64" version="1.1" xmlns="http://www.w3.org/2000/svg">
<g id="#ffffffff">
<path fill="#ffffff" opacity="1.00" d=" M 0.00 0.00 L 64.00 0.00 L 64.00 64.00 L 0.00 64.00 L 0.00 0.00 M 12.12 27.98 C 11.57 35.94 13.39 44.70 8.87 51.84 C 7.73 53.33 8.03 55.23 7.96 56.98 C 14.78 55.03 20.55 49.53 22.03 42.49 C 22.44 47.53 26.81 52.04 31.98 51.97 C 38.92 51.68 45.91 48.81 50.70 43.70 C 55.96 38.15 57.33 29.57 54.64 22.50 C 51.49 13.68 42.31 7.43 32.92 8.04 C 22.33 8.39 12.90 17.41 12.12 27.98 Z" />
<path fill="#ffffff" opacity="1.00" d=" M 16.07 28.89 C 16.42 20.46 23.53 13.02 31.90 12.13 C 39.17 11.15 46.66 15.29 49.96 21.79 C 53.03 27.58 52.71 35.32 48.37 40.40 C 44.55 44.84 38.79 47.19 33.08 47.91 C 29.23 48.62 25.40 44.74 26.10 40.91 C 26.74 37.53 30.59 35.10 33.90 36.32 C 36.48 37.07 37.50 39.78 38.68 41.91 C 42.62 39.94 46.55 36.99 47.67 32.50 C 49.37 25.14 43.73 17.25 36.29 16.23 C 28.57 14.69 20.48 20.94 20.13 28.81 C 19.88 35.40 19.23 42.41 15.09 47.84 C 16.43 41.60 15.91 35.21 16.07 28.89 Z" />
<path fill="#ffffff" opacity="1.00" d=" M 26.86 22.96 C 31.75 17.61 41.84 20.00 43.57 27.12 C 45.00 30.77 42.98 34.45 39.98 36.53 C 38.08 34.52 35.94 32.27 33.00 32.06 C 29.09 31.50 25.57 33.95 23.39 36.99 C 24.38 32.29 22.99 26.61 26.86 22.96 Z" />
</g>
<g id="#000000ff">
<path fill="#000000" opacity="1.00" d=" M 12.12 27.98 C 12.90 17.41 22.33 8.39 32.92 8.04 C 42.31 7.43 51.49 13.68 54.64 22.50 C 57.33 29.57 55.96 38.15 50.70 43.70 C 45.91 48.81 38.92 51.68 31.98 51.97 C 26.81 52.04 22.44 47.53 22.03 42.49 C 20.55 49.53 14.78 55.03 7.96 56.98 C 8.03 55.23 7.73 53.33 8.87 51.84 C 13.39 44.70 11.57 35.94 12.12 27.98 M 16.07 28.89 C 15.91 35.21 16.43 41.60 15.09 47.84 C 19.23 42.41 19.88 35.40 20.13 28.81 C 20.48 20.94 28.57 14.69 36.29 16.23 C 43.73 17.25 49.37 25.14 47.67 32.50 C 46.55 36.99 42.62 39.94 38.68 41.91 C 37.50 39.78 36.48 37.07 33.90 36.32 C 30.59 35.10 26.74 37.53 26.10 40.91 C 25.40 44.74 29.23 48.62 33.08 47.91 C 38.79 47.19 44.55 44.84 48.37 40.40 C 52.71 35.32 53.03 27.58 49.96 21.79 C 46.66 15.29 39.17 11.15 31.90 12.13 C 23.53 13.02 16.42 20.46 16.07 28.89 M 26.86 22.96 C 22.99 26.61 24.38 32.29 23.39 36.99 C 25.57 33.95 29.09 31.50 33.00 32.06 C 35.94 32.27 38.08 34.52 39.98 36.53 C 42.98 34.45 45.00 30.77 43.57 27.12 C 41.84 20.00 31.75 17.61 26.86 22.96 Z" />
</g>
</svg>
