<?xml version="1.0" encoding="UTF-8" ?>
<!DOCTYPE svg PUBLIC "-//W3C//DTD SVG 1.1//EN" "http://www.w3.org/Graphics/SVG/1.1/DTD/svg11.dtd">
<svg width="64pt" height="64pt" viewBox="0 0 64 64" version="1.1" xmlns="http://www.w3.org/2000/svg">
<g id="#ffffffff">
<path fill="#ffffff" opacity="1.00" d=" M 0.00 0.00 L 64.00 0.00 L 64.00 64.00 L 0.00 64.00 L 0.00 0.00 M 18.42 16.29 C 16.98 18.71 19.30 20.75 20.96 22.18 C 18.05 23.75 15.10 25.88 14.06 29.17 C 13.52 32.57 16.75 34.67 19.30 36.09 C 15.72 37.29 11.80 38.37 9.10 41.18 C 7.40 43.00 7.84 45.92 9.33 47.73 C 11.46 50.39 14.82 51.59 18.03 52.35 C 28.03 54.70 38.65 54.48 48.50 51.57 C 52.17 50.44 56.61 47.54 55.90 43.12 C 53.83 38.81 48.55 37.74 44.47 36.17 C 47.11 34.79 50.41 32.70 49.95 29.24 C 47.94 23.49 41.52 21.01 35.95 20.24 C 37.24 18.44 39.05 15.86 37.16 13.80 C 32.35 7.84 21.47 9.11 18.42 16.29 Z" />
<path fill="#ffffff" opacity="1.00" d=" M 21.99 17.89 C 24.34 13.41 30.46 12.88 34.12 16.04 C 31.79 20.64 25.67 21.05 21.99 17.89 Z" />
<path fill="#ffffff" opacity="1.00" d=" M 17.74 30.11 C 20.75 25.37 26.72 23.98 31.98 24.04 C 37.24 23.99 43.24 25.34 46.24 30.08 C 42.83 33.58 37.59 33.75 33.03 33.96 C 27.80 33.91 21.83 33.89 17.74 30.11 Z" />
<path fill="#ffffff" opacity="1.00" d=" M 23.02 39.27 C 32.85 36.60 43.75 38.78 52.27 44.18 C 51.02 46.53 48.43 47.54 45.98 48.14 C 37.00 50.46 27.43 50.58 18.42 48.30 C 15.83 47.62 12.97 46.65 11.70 44.07 C 14.92 41.39 19.03 40.25 23.02 39.27 Z" />
</g>
<g id="#000000ff">
<path fill="#000000" opacity="1.00" d=" M 18.42 16.29 C 21.47 9.11 32.35 7.84 37.16 13.80 C 39.05 15.86 37.24 18.44 35.95 20.24 C 41.52 21.01 47.94 23.49 49.95 29.24 C 50.41 32.70 47.11 34.79 44.47 36.17 C 48.55 37.74 53.83 38.81 55.90 43.12 C 56.61 47.54 52.17 50.44 48.50 51.57 C 38.65 54.48 28.03 54.70 18.03 52.35 C 14.82 51.59 11.46 50.39 9.33 47.73 C 7.84 45.92 7.40 43.00 9.10 41.18 C 11.80 38.37 15.72 37.29 19.30 36.09 C 16.75 34.67 13.52 32.57 14.06 29.17 C 15.10 25.88 18.05 23.75 20.96 22.18 C 19.30 20.75 16.98 18.71 18.42 16.29 M 21.99 17.89 C 25.67 21.05 31.79 20.64 34.12 16.04 C 30.46 12.88 24.34 13.41 21.99 17.89 M 17.74 30.11 C 21.83 33.89 27.80 33.91 33.03 33.96 C 37.59 33.75 42.83 33.58 46.24 30.08 C 43.24 25.34 37.24 23.99 31.98 24.04 C 26.72 23.98 20.75 25.37 17.74 30.11 M 23.02 39.27 C 19.03 40.25 14.92 41.39 11.70 44.07 C 12.97 46.65 15.83 47.62 18.42 48.30 C 27.43 50.58 37.00 50.46 45.98 48.14 C 48.43 47.54 51.02 46.53 52.27 44.18 C 43.75 38.78 32.85 36.60 23.02 39.27 Z" />
</g>
</svg>
