<?xml version="1.0" encoding="UTF-8" ?>
<!DOCTYPE svg PUBLIC "-//W3C//DTD SVG 1.1//EN" "http://www.w3.org/Graphics/SVG/1.1/DTD/svg11.dtd">
<svg width="64pt" height="64pt" viewBox="0 0 64 64" version="1.1" xmlns="http://www.w3.org/2000/svg">
<g id="#ffffffff">
<path fill="#ffffff" opacity="1.00" d=" M 0.00 0.00 L 64.00 0.00 L 64.00 64.00 L 0.00 64.00 L 0.00 0.00 M 25.99 8.00 C 26.01 9.33 26.01 10.67 25.99 12.00 C 30.00 12.00 34.00 12.00 38.01 12.00 C 37.99 10.67 37.99 9.33 38.01 8.00 C 34.00 8.00 30.00 8.00 25.99 8.00 M 10.25 32.81 C 8.98 40.74 12.57 49.14 19.10 53.78 C 25.31 58.40 34.02 59.30 41.04 56.03 C 48.77 52.63 54.10 44.44 53.97 35.98 C 54.07 30.38 51.70 24.99 48.05 20.82 C 49.19 19.69 50.32 18.57 51.45 17.43 C 50.46 16.50 49.51 15.54 48.58 14.56 C 47.36 15.75 46.17 16.95 44.96 18.15 C 40.00 14.80 33.79 13.21 27.86 14.40 C 18.88 16.00 11.44 23.76 10.25 32.81 Z" />
<path fill="#ffffff" opacity="1.00" d=" M 27.35 18.61 C 33.67 16.87 40.85 18.92 45.24 23.80 C 50.27 29.12 51.42 37.57 48.09 44.07 C 44.61 51.28 35.95 55.42 28.15 53.57 C 20.47 52.03 14.38 44.95 14.05 37.12 C 13.34 28.80 19.26 20.59 27.35 18.61 M 30.00 21.99 C 29.98 25.45 30.06 28.92 29.94 32.38 C 27.47 34.26 27.51 37.74 29.94 39.64 C 29.96 40.23 30.00 41.41 30.02 42.01 C 31.34 41.99 32.66 41.99 33.98 42.01 C 34.00 41.41 34.04 40.22 34.06 39.63 C 36.51 37.73 36.50 34.25 34.05 32.36 C 33.95 28.90 34.02 25.45 34.00 21.99 C 32.67 22.01 31.33 22.01 30.00 21.99 Z" />
</g>
<g id="#000000ff">
<path fill="#000000" opacity="1.00" d=" M 25.99 8.00 C 30.00 8.00 34.00 8.00 38.01 8.00 C 37.99 9.33 37.99 10.67 38.01 12.00 C 34.00 12.00 30.00 12.00 25.99 12.00 C 26.01 10.67 26.01 9.33 25.99 8.00 Z" />
<path fill="#000000" opacity="1.00" d=" M 10.25 32.81 C 11.44 23.76 18.88 16.00 27.86 14.40 C 33.79 13.21 40.00 14.80 44.96 18.15 C 46.17 16.95 47.36 15.75 48.58 14.56 C 49.51 15.54 50.46 16.50 51.45 17.43 C 50.32 18.57 49.19 19.69 48.05 20.82 C 51.70 24.99 54.07 30.38 53.97 35.98 C 54.10 44.44 48.77 52.63 41.04 56.03 C 34.02 59.30 25.31 58.40 19.10 53.78 C 12.57 49.14 8.98 40.74 10.25 32.81 M 27.35 18.61 C 19.26 20.59 13.34 28.80 14.05 37.12 C 14.38 44.95 20.47 52.03 28.15 53.57 C 35.95 55.42 44.61 51.28 48.09 44.07 C 51.42 37.57 50.27 29.12 45.24 23.80 C 40.85 18.92 33.67 16.87 27.35 18.61 Z" />
<path fill="#000000" opacity="1.00" d=" M 30.00 21.99 C 31.33 22.01 32.67 22.01 34.00 21.99 C 34.02 25.45 33.95 28.90 34.05 32.36 C 36.50 34.25 36.51 37.73 34.06 39.63 C 34.04 40.22 34.00 41.41 33.98 42.01 C 32.66 41.99 31.34 41.99 30.02 42.01 C 30.00 41.41 29.96 40.23 29.94 39.64 C 27.51 37.74 27.47 34.26 29.94 32.38 C 30.06 28.92 29.98 25.45 30.00 21.99 Z" />
</g>
</svg>
