<?xml version="1.0" encoding="UTF-8" ?>
<!DOCTYPE svg PUBLIC "-//W3C//DTD SVG 1.1//EN" "http://www.w3.org/Graphics/SVG/1.1/DTD/svg11.dtd">
<svg width="64pt" height="64pt" viewBox="0 0 64 64" version="1.1" xmlns="http://www.w3.org/2000/svg">
<g id="#ffffffff">
<path fill="#ffffff" opacity="1.00" d=" M 0.00 0.00 L 64.00 0.00 L 64.00 34.95 C 63.62 31.02 61.14 27.91 58.22 25.48 C 57.42 22.19 56.30 18.72 53.42 16.65 C 50.73 14.27 47.05 14.03 43.64 13.90 C 40.44 10.27 35.90 7.42 30.86 8.08 C 24.93 8.44 20.29 13.06 18.25 18.39 C 16.14 19.91 14.23 21.71 12.65 23.78 C 6.23 23.89 0.22 28.77 0.00 35.42 L 0.00 0.00 Z" />
<path fill="#ffffff" opacity="1.00" d=" M 21.78 21.42 C 22.52 16.76 25.96 12.38 30.93 12.07 C 35.81 11.30 39.86 14.84 41.86 18.96 C 44.69 18.11 47.99 17.43 50.52 19.43 C 53.42 21.21 54.01 24.73 54.12 27.85 C 58.28 29.85 61.58 34.68 59.27 39.28 C 57.46 43.79 52.17 44.33 47.97 44.06 C 46.64 45.37 45.32 46.67 44.00 47.99 C 47.86 47.94 51.82 48.37 55.60 47.40 C 60.35 45.99 63.66 41.42 64.00 36.55 L 64.00 64.00 L 0.00 64.00 L 0.00 36.40 C 0.25 41.09 3.25 45.49 7.69 47.14 C 12.30 48.64 17.25 47.81 22.01 47.99 C 23.33 46.66 24.66 45.33 26.00 44.01 C 20.71 43.82 15.37 44.38 10.11 43.71 C 4.51 42.67 2.04 35.02 5.90 30.86 C 8.18 27.86 12.21 27.77 15.60 28.40 C 16.18 24.97 18.48 22.43 21.78 21.42 Z" />
</g>
<g id="#000000ff">
<path fill="#000000" opacity="1.00" d=" M 18.25 18.39 C 20.29 13.06 24.93 8.44 30.86 8.08 C 35.90 7.42 40.44 10.27 43.64 13.90 C 47.05 14.03 50.73 14.27 53.42 16.65 C 56.30 18.72 57.42 22.19 58.22 25.48 C 61.14 27.91 63.62 31.02 64.00 34.95 L 64.00 36.55 C 63.66 41.42 60.35 45.99 55.60 47.40 C 51.82 48.37 47.86 47.94 44.00 47.99 C 45.32 46.67 46.64 45.37 47.97 44.06 C 52.17 44.33 57.46 43.79 59.27 39.28 C 61.58 34.68 58.28 29.85 54.12 27.85 C 54.01 24.73 53.42 21.21 50.52 19.43 C 47.99 17.43 44.69 18.11 41.86 18.96 C 39.86 14.84 35.81 11.30 30.93 12.07 C 25.96 12.38 22.52 16.76 21.78 21.42 C 18.48 22.43 16.18 24.97 15.60 28.40 C 12.21 27.77 8.18 27.86 5.90 30.86 C 2.04 35.02 4.51 42.67 10.11 43.71 C 15.37 44.38 20.71 43.82 26.00 44.01 C 24.66 45.33 23.33 46.66 22.01 47.99 C 17.25 47.81 12.30 48.64 7.69 47.14 C 3.25 45.49 0.25 41.09 0.00 36.40 L 0.00 35.42 C 0.22 28.77 6.23 23.89 12.65 23.78 C 14.23 21.71 16.14 19.91 18.25 18.39 Z" />
</g>
</svg>
