<?xml version="1.0" encoding="UTF-8" ?>
<!DOCTYPE svg PUBLIC "-//W3C//DTD SVG 1.1//EN" "http://www.w3.org/Graphics/SVG/1.1/DTD/svg11.dtd">
<svg width="60pt" height="60pt" viewBox="0 0 60 60" version="1.1" xmlns="http://www.w3.org/2000/svg">
<g id="#ffffffff">
<path fill="#ffffff" opacity="1.00" d=" M 0.00 0.00 L 60.00 0.00 L 60.00 60.00 L 0.00 60.00 L 0.00 0.00 M 23.16 4.12 C 19.96 7.21 18.89 12.79 21.47 16.60 C 23.68 19.99 27.25 22.12 29.76 25.24 C 30.45 27.28 29.61 29.60 27.91 30.87 C 24.51 33.51 20.29 34.71 16.53 36.71 C 11.62 39.20 8.54 44.18 6.55 49.13 C 5.90 50.76 5.41 53.92 7.98 53.92 C 12.06 53.89 16.75 54.84 20.32 52.37 C 23.81 49.74 23.61 45.02 24.27 41.14 C 24.84 39.53 27.22 39.70 27.84 41.18 C 28.37 45.26 27.11 49.32 25.47 53.02 C 34.53 49.47 40.06 38.93 37.28 29.52 C 35.29 23.19 29.22 19.75 25.18 14.92 C 23.72 13.42 24.17 11.27 24.20 9.40 C 25.83 9.91 27.76 9.83 29.18 10.87 C 29.62 12.15 29.66 13.55 30.22 14.80 C 31.54 16.45 33.04 14.23 33.92 13.34 C 37.30 12.48 40.70 11.71 44.05 10.78 C 43.81 13.89 43.81 17.05 43.00 20.08 C 42.40 22.30 40.79 24.06 40.09 26.23 C 39.29 29.91 43.57 33.27 46.95 31.59 C 49.94 30.24 50.91 26.74 50.96 23.73 C 51.48 22.37 52.57 20.77 51.50 19.37 C 50.77 18.16 49.17 18.23 48.00 17.78 C 48.01 14.54 48.00 11.30 47.94 8.07 C 42.72 7.91 37.49 8.10 32.26 7.93 C 29.23 6.71 26.29 4.75 23.16 4.12 Z" />
</g>
<g id="#000000ff">
<path fill="#000000" opacity="1.00" d=" M 23.16 4.12 C 26.29 4.75 29.23 6.71 32.26 7.93 C 37.49 8.10 42.72 7.91 47.94 8.07 C 48.00 11.30 48.01 14.54 48.00 17.78 C 49.17 18.23 50.77 18.16 51.50 19.37 C 52.57 20.77 51.48 22.37 50.96 23.73 C 50.91 26.74 49.94 30.24 46.95 31.59 C 43.57 33.27 39.29 29.91 40.09 26.23 C 40.79 24.06 42.40 22.30 43.00 20.08 C 43.81 17.05 43.81 13.89 44.05 10.78 C 40.70 11.71 37.30 12.48 33.92 13.34 C 33.04 14.23 31.54 16.45 30.22 14.80 C 29.66 13.55 29.62 12.15 29.18 10.87 C 27.76 9.83 25.83 9.91 24.20 9.40 C 24.17 11.27 23.72 13.42 25.18 14.92 C 29.22 19.75 35.29 23.19 37.28 29.52 C 40.06 38.93 34.53 49.47 25.47 53.02 C 27.11 49.32 28.37 45.26 27.84 41.18 C 27.22 39.70 24.84 39.53 24.27 41.14 C 23.61 45.02 23.81 49.74 20.32 52.37 C 16.75 54.84 12.06 53.89 7.98 53.92 C 5.41 53.92 5.90 50.76 6.55 49.13 C 8.54 44.18 11.62 39.20 16.53 36.71 C 20.29 34.71 24.51 33.51 27.91 30.87 C 29.61 29.60 30.45 27.28 29.76 25.24 C 27.25 22.12 23.68 19.99 21.47 16.60 C 18.89 12.79 19.96 7.21 23.16 4.12 Z" />
</g>
</svg>
