<?xml version="1.0" encoding="UTF-8" ?>
<!DOCTYPE svg PUBLIC "-//W3C//DTD SVG 1.1//EN" "http://www.w3.org/Graphics/SVG/1.1/DTD/svg11.dtd">
<svg width="60pt" height="60pt" viewBox="0 0 60 60" version="1.1" xmlns="http://www.w3.org/2000/svg">
<g id="#ffffffff">
<path fill="#ffffff" opacity="1.00" d=" M 0.00 0.00 L 60.00 0.00 L 60.00 60.00 L 0.00 60.00 L 0.00 0.00 M 23.62 12.36 C 18.29 10.67 12.83 14.65 11.94 19.95 C 8.54 20.73 5.30 22.98 4.36 26.50 C 2.84 31.30 6.18 36.91 11.16 37.77 C 14.66 38.23 18.19 37.93 21.71 37.99 C 23.42 34.18 24.85 30.24 26.74 26.51 C 28.12 23.73 32.37 23.13 34.45 25.45 C 36.74 27.63 35.84 31.02 36.00 33.82 C 38.75 33.84 41.15 35.35 42.07 37.98 C 45.50 37.97 49.37 38.50 52.28 36.26 C 55.99 33.68 57.11 28.16 54.67 24.36 C 53.33 21.92 50.69 20.69 48.12 19.98 C 48.26 13.79 44.12 7.61 37.88 6.36 C 32.37 4.90 26.71 7.82 23.62 12.36 M 30.35 28.31 C 27.96 33.37 25.63 38.51 23.83 43.82 C 25.89 43.96 27.95 44.01 30.01 44.03 C 29.97 47.36 29.98 50.69 30.10 54.02 C 30.48 53.93 31.26 53.75 31.65 53.67 C 34.01 48.59 36.51 43.49 38.08 38.10 C 36.05 38.03 34.02 38.00 31.99 37.98 C 32.03 34.65 32.01 31.32 31.91 27.99 C 31.52 28.07 30.74 28.23 30.35 28.31 M 11.20 42.06 C 8.98 43.41 9.51 48.85 12.82 47.90 C 14.98 46.48 14.51 41.17 11.20 42.06 M 47.20 46.08 C 45.40 47.24 45.41 50.71 47.21 51.87 C 51.11 53.11 51.13 44.86 47.20 46.08 Z" />
</g>
<g id="#000000ff">
<path fill="#968176" opacity="1.00" d=" M 23.62 12.36 C 26.71 7.82 32.37 4.90 37.88 6.36 C 44.12 7.61 48.26 13.79 48.12 19.98 C 50.69 20.69 53.33 21.92 54.67 24.36 C 57.11 28.16 55.99 33.68 52.28 36.26 C 49.37 38.50 45.50 37.97 42.07 37.98 C 41.15 35.35 38.75 33.84 36.00 33.82 C 35.84 31.02 36.74 27.63 34.45 25.45 C 32.37 23.13 28.12 23.73 26.74 26.51 C 24.85 30.24 23.42 34.18 21.71 37.99 C 18.19 37.93 14.66 38.23 11.16 37.77 C 6.18 36.91 2.84 31.30 4.36 26.50 C 5.30 22.98 8.54 20.73 11.94 19.95 C 12.83 14.65 18.29 10.67 23.62 12.36 Z" />
<path fill="#968176" opacity="1.00" d=" M 30.35 28.31 C 30.74 28.23 31.52 28.07 31.91 27.99 C 32.01 31.32 32.03 34.65 31.99 37.98 C 34.02 38.00 36.05 38.03 38.08 38.10 C 36.51 43.49 34.01 48.59 31.65 53.67 C 31.26 53.75 30.48 53.93 30.10 54.02 C 29.98 50.69 29.97 47.36 30.01 44.03 C 27.95 44.01 25.89 43.96 23.83 43.82 C 25.63 38.51 27.96 33.37 30.35 28.31 Z" />
<path fill="#968176" opacity="1.00" d=" M 11.20 42.06 C 14.51 41.17 14.98 46.48 12.82 47.90 C 9.51 48.85 8.98 43.41 11.20 42.06 Z" />
<path fill="#968176" opacity="1.00" d=" M 47.20 46.08 C 51.13 44.86 51.11 53.11 47.21 51.87 C 45.41 50.71 45.40 47.24 47.20 46.08 Z" />
</g>
</svg>
