<?xml version="1.0" encoding="UTF-8" ?>
<!DOCTYPE svg PUBLIC "-//W3C//DTD SVG 1.1//EN" "http://www.w3.org/Graphics/SVG/1.1/DTD/svg11.dtd">
<svg width="64pt" height="64pt" viewBox="0 0 64 64" version="1.1" xmlns="http://www.w3.org/2000/svg">
<g id="#ffffffff">
<path fill="#ffffff" opacity="1.00" d=" M 0.00 0.00 L 64.00 0.00 L 64.00 64.00 L 0.00 64.00 L 0.00 0.00 M 21.82 16.00 C 15.88 16.00 9.94 16.00 4.00 16.00 C 4.00 28.67 4.00 41.33 4.00 54.00 C 20.67 54.00 37.33 54.00 54.00 54.00 C 54.00 48.06 54.00 42.12 54.00 36.18 C 56.26 36.05 59.33 35.69 59.81 32.95 C 60.16 29.66 60.17 26.30 59.81 23.01 C 59.31 20.29 56.25 19.95 54.00 19.82 C 54.00 18.55 54.00 17.27 54.00 16.00 C 48.73 16.00 43.45 16.00 38.18 16.00 C 38.03 13.76 37.71 10.69 34.99 10.19 C 31.69 9.84 28.33 9.84 25.03 10.18 C 22.29 10.67 21.95 13.75 21.82 16.00 Z" />
<path fill="#ffffff" opacity="1.00" d=" M 26.00 14.00 C 28.67 14.00 31.33 14.00 34.00 14.00 C 34.00 14.50 34.00 15.50 34.00 16.00 C 31.33 16.00 28.67 16.00 26.00 16.00 C 26.00 15.50 26.00 14.50 26.00 14.00 Z" />
<path fill="#ffffff" opacity="1.00" d=" M 7.79 20.01 C 21.86 19.99 35.93 20.01 50.01 20.00 C 49.99 22.56 50.00 25.13 50.00 27.69 C 36.08 25.77 22.10 24.26 8.22 22.15 C 8.11 21.62 7.90 20.54 7.79 20.01 Z" />
<path fill="#ffffff" opacity="1.00" d=" M 54.00 24.00 C 54.50 24.00 55.50 24.00 56.00 24.00 C 56.00 26.67 56.00 29.33 56.00 32.00 C 55.50 32.00 54.50 32.00 54.00 32.00 C 54.00 29.33 54.00 26.67 54.00 24.00 Z" />
<path fill="#ffffff" opacity="1.00" d=" M 8.00 26.31 C 22.00 28.13 36.01 29.85 50.00 31.76 C 50.00 37.84 50.00 43.92 50.00 50.00 C 36.00 50.00 22.00 50.00 8.00 50.00 C 8.00 42.10 8.00 34.21 8.00 26.31 Z" />
</g>
<g id="#000000ff">
<path fill="#000000" opacity="1.00" d=" M 21.82 16.00 C 21.95 13.75 22.29 10.67 25.03 10.18 C 28.33 9.84 31.69 9.84 34.99 10.19 C 37.71 10.69 38.03 13.76 38.18 16.00 C 43.45 16.00 48.73 16.00 54.00 16.00 C 54.00 17.27 54.00 18.55 54.00 19.82 C 56.25 19.95 59.31 20.29 59.81 23.01 C 60.17 26.30 60.16 29.66 59.81 32.95 C 59.33 35.69 56.26 36.05 54.00 36.18 C 54.00 42.12 54.00 48.06 54.00 54.00 C 37.33 54.00 20.67 54.00 4.00 54.00 C 4.00 41.33 4.00 28.67 4.00 16.00 C 9.94 16.00 15.88 16.00 21.82 16.00 M 26.00 14.00 C 26.00 14.50 26.00 15.50 26.00 16.00 C 28.67 16.00 31.33 16.00 34.00 16.00 C 34.00 15.50 34.00 14.50 34.00 14.00 C 31.33 14.00 28.67 14.00 26.00 14.00 M 7.79 20.01 C 7.90 20.54 8.11 21.62 8.22 22.15 C 22.10 24.26 36.08 25.77 50.00 27.69 C 50.00 25.13 49.99 22.56 50.01 20.00 C 35.93 20.01 21.86 19.99 7.79 20.01 M 54.00 24.00 C 54.00 26.67 54.00 29.33 54.00 32.00 C 54.50 32.00 55.50 32.00 56.00 32.00 C 56.00 29.33 56.00 26.67 56.00 24.00 C 55.50 24.00 54.50 24.00 54.00 24.00 M 8.00 26.31 C 8.00 34.21 8.00 42.10 8.00 50.00 C 22.00 50.00 36.00 50.00 50.00 50.00 C 50.00 43.92 50.00 37.84 50.00 31.76 C 36.01 29.85 22.00 28.13 8.00 26.31 Z" />
</g>
</svg>
