<?xml version="1.0" encoding="UTF-8" ?>
<!DOCTYPE svg PUBLIC "-//W3C//DTD SVG 1.1//EN" "http://www.w3.org/Graphics/SVG/1.1/DTD/svg11.dtd">
<svg width="60pt" height="60pt" viewBox="0 0 60 60" version="1.1" xmlns="http://www.w3.org/2000/svg">
<g id="#ffffffff">
<path fill="#ffffff" opacity="1.00" d=" M 0.00 0.00 L 60.00 0.00 L 60.00 60.00 L 0.00 60.00 L 0.00 0.00 M 26.31 7.10 C 23.92 5.23 21.02 4.06 17.97 4.09 C 18.04 6.24 18.62 8.32 19.88 10.08 C 26.63 9.94 33.39 9.96 40.14 10.07 C 41.36 8.27 42.03 6.19 41.94 4.01 C 38.93 4.14 36.06 5.24 33.68 7.08 C 32.88 5.36 32.52 3.17 30.77 2.12 C 27.84 1.45 27.22 5.16 26.31 7.10 M 19.87 13.81 C 15.26 12.92 9.43 15.09 8.24 20.06 C 7.45 24.87 9.30 29.65 11.40 33.90 C 15.12 40.76 20.17 46.86 25.82 52.23 C 28.00 54.54 31.97 54.55 34.16 52.25 C 39.21 47.53 43.65 42.14 47.27 36.25 C 49.84 31.89 51.95 27.03 51.97 21.88 C 52.04 18.29 49.29 15.11 45.88 14.23 C 41.95 12.60 37.46 15.29 33.77 12.66 C 32.72 14.58 32.09 18.39 29.20 17.83 C 27.66 16.47 26.99 14.49 26.23 12.66 C 24.28 13.70 22.09 14.31 19.87 13.81 Z" />
<path fill="#ffffff" opacity="1.00" d=" M 15.99 23.97 C 16.37 22.61 17.30 21.51 18.00 20.31 C 18.67 21.72 20.32 23.04 19.87 24.77 C 19.11 26.75 15.88 26.12 15.99 23.97 Z" />
<path fill="#ffffff" opacity="1.00" d=" M 28.01 24.00 C 28.29 22.64 29.27 21.59 29.97 20.44 C 30.80 21.88 33.03 23.74 31.38 25.41 C 30.30 26.71 27.87 25.71 28.01 24.00 Z" />
<path fill="#ffffff" opacity="1.00" d=" M 41.28 21.27 C 42.75 20.35 43.30 22.25 43.77 23.24 C 44.88 25.07 41.92 27.06 40.55 25.40 C 39.31 24.09 40.58 22.47 41.28 21.27 Z" />
<path fill="#ffffff" opacity="1.00" d=" M 23.38 31.12 C 25.18 30.62 25.48 32.81 26.05 34.01 C 26.01 35.68 23.74 36.73 22.62 35.41 C 21.21 34.14 22.69 32.34 23.38 31.12 Z" />
<path fill="#ffffff" opacity="1.00" d=" M 33.99 33.99 C 34.37 32.62 35.30 31.51 36.00 30.31 C 36.64 31.74 38.43 33.10 37.83 34.81 C 37.03 36.77 33.93 36.10 33.99 33.99 Z" />
<path fill="#ffffff" opacity="1.00" d=" M 28.11 44.82 C 27.72 43.05 29.27 41.74 30.01 40.31 C 30.72 41.87 33.03 43.73 31.38 45.46 C 30.37 46.44 28.76 45.98 28.11 44.82 Z" />
</g>
<g id="#000000ff">
<path fill="#000000" opacity="1.00" d=" M 26.31 7.10 C 27.22 5.16 27.84 1.45 30.77 2.12 C 32.52 3.17 32.88 5.36 33.68 7.08 C 36.06 5.24 38.93 4.14 41.94 4.01 C 42.03 6.19 41.36 8.27 40.14 10.07 C 33.39 9.96 26.63 9.94 19.88 10.08 C 18.62 8.32 18.04 6.24 17.97 4.09 C 21.02 4.06 23.92 5.23 26.31 7.10 Z" />
<path fill="#000000" opacity="1.00" d=" M 19.87 13.81 C 22.09 14.31 24.28 13.70 26.23 12.66 C 26.99 14.49 27.66 16.47 29.20 17.83 C 32.09 18.39 32.72 14.58 33.77 12.66 C 37.46 15.29 41.95 12.60 45.88 14.23 C 49.29 15.11 52.04 18.29 51.97 21.88 C 51.95 27.03 49.84 31.89 47.27 36.25 C 43.65 42.14 39.21 47.53 34.16 52.25 C 31.97 54.55 28.00 54.54 25.82 52.23 C 20.17 46.86 15.12 40.76 11.40 33.90 C 9.30 29.65 7.45 24.87 8.24 20.06 C 9.43 15.09 15.26 12.92 19.87 13.81 M 15.99 23.97 C 15.88 26.12 19.11 26.75 19.87 24.77 C 20.32 23.04 18.67 21.72 18.00 20.31 C 17.30 21.51 16.37 22.61 15.99 23.97 M 28.01 24.00 C 27.87 25.71 30.30 26.71 31.38 25.41 C 33.03 23.74 30.80 21.88 29.97 20.44 C 29.27 21.59 28.29 22.64 28.01 24.00 M 41.28 21.27 C 40.58 22.47 39.31 24.09 40.55 25.40 C 41.92 27.06 44.88 25.07 43.77 23.24 C 43.30 22.25 42.75 20.35 41.28 21.27 M 23.38 31.12 C 22.69 32.34 21.21 34.14 22.62 35.41 C 23.74 36.73 26.01 35.68 26.05 34.01 C 25.48 32.81 25.18 30.62 23.38 31.12 M 33.99 33.99 C 33.93 36.10 37.03 36.77 37.83 34.81 C 38.43 33.10 36.64 31.74 36.00 30.31 C 35.30 31.51 34.37 32.62 33.99 33.99 M 28.11 44.82 C 28.76 45.98 30.37 46.44 31.38 45.46 C 33.03 43.73 30.72 41.87 30.01 40.31 C 29.27 41.74 27.72 43.05 28.11 44.82 Z" />
</g>
</svg>
