<?xml version="1.0" encoding="UTF-8" ?>
<!DOCTYPE svg PUBLIC "-//W3C//DTD SVG 1.1//EN" "http://www.w3.org/Graphics/SVG/1.1/DTD/svg11.dtd">
<svg width="60pt" height="60pt" viewBox="0 0 60 60" version="1.1" xmlns="http://www.w3.org/2000/svg">
<g id="#ffffffff">
<path fill="#ffffff" opacity="1.00" d=" M 0.00 0.00 L 60.00 0.00 L 60.00 60.00 L 0.00 60.00 L 0.00 0.00 M 36.46 6.69 C 33.21 8.41 33.23 13.63 36.50 15.32 C 39.61 17.34 44.11 14.69 44.00 11.03 C 44.16 7.32 39.59 4.62 36.46 6.69 M 21.28 23.15 C 20.04 23.89 18.08 24.27 17.96 26.03 C 19.24 29.27 20.81 32.42 22.64 35.39 C 23.70 36.76 26.14 35.67 25.97 33.94 C 25.33 31.64 24.30 29.48 23.41 27.27 C 24.94 26.95 26.47 26.63 28.00 26.30 C 27.90 29.58 28.20 32.87 27.93 36.14 C 26.58 39.11 24.85 41.96 22.95 44.61 C 19.02 46.96 14.56 48.25 10.62 50.58 C 9.09 51.58 10.32 54.43 12.09 53.92 C 15.56 53.28 18.87 52.00 22.28 51.16 C 28.64 50.33 31.38 43.83 35.73 39.96 C 38.15 40.00 40.58 40.01 43.00 40.00 C 44.15 44.27 44.99 48.62 46.30 52.83 C 46.85 54.85 50.26 54.02 49.90 51.98 C 49.35 46.37 48.75 40.73 47.77 35.17 C 45.33 32.84 41.14 33.64 38.00 32.67 C 37.93 29.06 38.21 25.44 37.82 21.84 C 37.26 18.99 33.83 17.11 31.16 18.43 C 27.79 19.83 24.60 21.64 21.28 23.15 Z" />
</g>
<g id="#000000ff">
<path fill="#000000" opacity="1.00" d=" M 36.46 6.69 C 39.59 4.62 44.16 7.32 44.00 11.03 C 44.11 14.69 39.61 17.34 36.50 15.32 C 33.23 13.63 33.21 8.41 36.46 6.69 Z" />
<path fill="#000000" opacity="1.00" d=" M 21.28 23.15 C 24.60 21.64 27.79 19.83 31.16 18.43 C 33.83 17.11 37.26 18.99 37.82 21.84 C 38.21 25.44 37.93 29.06 38.00 32.67 C 41.14 33.64 45.33 32.84 47.77 35.17 C 48.75 40.73 49.35 46.37 49.90 51.98 C 50.26 54.02 46.85 54.85 46.30 52.83 C 44.99 48.62 44.15 44.27 43.00 40.00 C 40.58 40.01 38.15 40.00 35.73 39.96 C 31.38 43.83 28.64 50.33 22.28 51.16 C 18.87 52.00 15.56 53.28 12.09 53.92 C 10.32 54.43 9.09 51.58 10.62 50.58 C 14.56 48.25 19.02 46.96 22.95 44.61 C 24.85 41.96 26.58 39.11 27.93 36.14 C 28.20 32.87 27.90 29.58 28.00 26.30 C 26.47 26.63 24.94 26.95 23.41 27.27 C 24.30 29.48 25.33 31.64 25.97 33.94 C 26.14 35.67 23.70 36.76 22.64 35.39 C 20.81 32.42 19.24 29.27 17.96 26.03 C 18.08 24.27 20.04 23.89 21.28 23.15 Z" />
</g>
</svg>
