<?xml version="1.0" encoding="UTF-8" ?>
<!DOCTYPE svg PUBLIC "-//W3C//DTD SVG 1.1//EN" "http://www.w3.org/Graphics/SVG/1.1/DTD/svg11.dtd">
<svg width="60pt" height="60pt" viewBox="0 0 60 60" version="1.1" xmlns="http://www.w3.org/2000/svg">
<g id="#ffffffff">
<path fill="#ffffff" opacity="1.00" d=" M 0.00 0.00 L 60.00 0.00 L 60.00 60.00 L 0.00 60.00 L 0.00 0.00 M 6.65 11.86 C 5.42 13.79 6.02 16.67 8.03 17.82 C 12.13 20.23 16.43 22.28 20.63 24.52 C 24.73 26.81 29.71 26.17 33.88 28.29 C 25.64 32.65 17.18 36.59 8.93 40.94 C 5.34 42.83 5.05 48.46 8.37 50.77 C 10.50 52.52 13.50 52.13 15.73 50.81 C 26.54 45.29 37.54 40.14 48.25 34.43 C 49.96 35.24 52.52 37.13 53.94 34.83 C 54.63 32.43 51.77 31.89 50.26 30.91 C 49.86 29.36 49.80 27.61 48.73 26.34 C 47.53 24.69 45.32 24.47 43.83 23.20 C 41.89 21.48 40.23 19.42 38.02 18.02 C 35.42 16.30 32.24 15.93 29.44 14.64 C 24.14 12.09 19.27 8.67 13.91 6.24 C 10.11 4.96 8.03 9.11 6.65 11.86 Z" />
<path fill="#ffffff" opacity="1.00" d=" M 12.46 9.87 C 19.32 13.26 25.53 18.12 33.02 20.11 C 36.03 20.87 38.34 23.12 40.15 25.53 C 37.88 26.89 35.94 24.92 33.93 24.08 C 30.28 22.20 25.86 22.95 22.27 20.88 C 18.12 18.67 13.88 16.59 9.81 14.23 C 10.71 12.79 11.60 11.33 12.46 9.87 Z" />
<path fill="#ffffff" opacity="1.00" d=" M 43.20 28.10 C 45.63 27.16 47.14 30.85 44.78 31.90 C 42.36 32.84 40.87 29.14 43.20 28.10 Z" />
<path fill="#ffffff" opacity="1.00" d=" M 11.20 44.16 C 13.57 43.04 15.18 46.91 12.78 47.90 C 10.40 48.85 8.82 45.12 11.20 44.16 Z" />
</g>
<g id="#000000ff">
<path fill="#000000" opacity="1.00" d=" M 6.65 11.86 C 8.03 9.11 10.11 4.96 13.91 6.24 C 19.27 8.67 24.14 12.09 29.44 14.64 C 32.24 15.93 35.42 16.30 38.02 18.02 C 40.23 19.42 41.89 21.48 43.83 23.20 C 45.32 24.47 47.53 24.69 48.73 26.34 C 49.80 27.61 49.86 29.36 50.26 30.91 C 51.77 31.89 54.63 32.43 53.94 34.83 C 52.52 37.13 49.96 35.24 48.25 34.43 C 37.54 40.14 26.54 45.29 15.73 50.81 C 13.50 52.13 10.50 52.52 8.37 50.77 C 5.05 48.46 5.34 42.83 8.93 40.94 C 17.18 36.59 25.64 32.65 33.88 28.29 C 29.71 26.17 24.73 26.81 20.63 24.52 C 16.43 22.28 12.13 20.23 8.03 17.82 C 6.02 16.67 5.42 13.79 6.65 11.86 M 12.46 9.87 C 11.60 11.33 10.71 12.79 9.81 14.23 C 13.88 16.59 18.12 18.67 22.27 20.88 C 25.86 22.95 30.28 22.20 33.93 24.08 C 35.94 24.92 37.88 26.89 40.15 25.53 C 38.34 23.12 36.03 20.87 33.02 20.11 C 25.53 18.12 19.32 13.26 12.46 9.87 M 43.20 28.10 C 40.87 29.14 42.36 32.84 44.78 31.90 C 47.14 30.85 45.63 27.16 43.20 28.10 M 11.20 44.16 C 8.82 45.12 10.40 48.85 12.78 47.90 C 15.18 46.91 13.57 43.04 11.20 44.16 Z" />
</g>
</svg>
