<?xml version="1.0" encoding="UTF-8" ?>
<!DOCTYPE svg PUBLIC "-//W3C//DTD SVG 1.1//EN" "http://www.w3.org/Graphics/SVG/1.1/DTD/svg11.dtd">
<svg width="64pt" height="64pt" viewBox="0 0 64 64" version="1.1" xmlns="http://www.w3.org/2000/svg">
<g id="#ffffffff">
<path fill="#ffffff" opacity="1.00" d=" M 0.00 0.00 L 64.00 0.00 L 64.00 24.01 C 63.50 24.01 62.50 23.99 62.00 23.99 C 62.00 19.32 62.00 14.66 62.00 10.00 C 58.00 10.00 54.00 10.00 50.00 10.00 C 50.00 14.67 50.00 19.33 50.00 24.00 C 48.00 24.00 46.00 24.00 44.00 24.00 C 44.00 20.67 44.00 17.33 44.00 14.00 C 42.67 14.00 41.34 14.00 40.00 14.00 C 40.00 15.33 40.00 16.67 39.99 18.00 C 39.50 18.00 38.50 18.00 38.00 18.00 C 38.00 16.67 38.00 15.33 38.00 14.00 C 36.66 14.00 35.33 14.00 34.00 14.00 C 34.00 15.33 34.00 16.67 34.00 18.00 C 33.50 18.00 32.50 18.00 32.00 18.00 C 32.00 16.67 32.00 15.33 32.00 14.00 C 30.67 14.00 29.33 14.00 28.00 14.00 C 28.00 15.33 28.00 16.67 27.99 18.00 C 27.50 18.00 26.50 18.00 26.00 18.00 C 26.00 16.67 26.00 15.33 26.00 14.00 C 24.66 14.00 23.33 14.00 22.00 14.00 C 22.00 17.33 22.00 20.67 22.00 24.00 C 19.33 24.00 16.67 24.00 14.00 24.00 C 14.00 19.33 14.00 14.67 14.00 10.00 C 10.00 10.00 6.00 10.00 2.00 10.00 C 2.00 14.65 2.00 19.31 2.00 23.96 C 1.50 23.98 0.50 24.03 0.00 24.06 L 0.00 0.00 Z" />
<path fill="#ffffff" opacity="1.00" d=" M 6.00 14.00 C 7.33 14.00 8.67 14.00 10.00 14.00 C 10.00 22.00 10.00 30.00 10.00 38.00 C 8.67 38.00 7.33 38.00 6.00 38.00 C 6.00 30.00 6.00 22.00 6.00 14.00 Z" />
<path fill="#ffffff" opacity="1.00" d=" M 54.00 14.00 C 55.33 14.00 56.67 14.00 58.00 14.00 C 58.00 22.00 58.00 30.00 58.00 38.00 C 56.67 38.00 55.33 38.00 54.00 38.00 C 54.00 30.00 54.00 22.00 54.00 14.00 Z" />
<path fill="#ffffff" opacity="1.00" d=" M 26.00 22.00 C 30.66 22.00 35.33 22.00 39.99 22.00 C 39.85 26.52 41.39 32.72 36.13 34.97 C 36.69 42.70 37.39 50.43 38.01 58.15 C 39.34 58.05 40.66 57.95 41.99 57.85 C 41.45 50.87 40.79 43.90 40.31 36.92 C 42.99 34.70 44.30 31.45 44.14 28.00 C 46.09 28.00 48.05 28.00 50.00 28.00 C 50.00 32.67 50.00 37.33 50.00 42.00 C 54.00 42.00 58.00 42.00 62.00 42.00 C 62.00 37.35 62.00 32.69 62.00 28.04 C 62.50 28.02 63.50 27.97 64.00 27.94 L 64.00 64.00 L 0.00 64.00 L 0.00 27.99 C 0.50 27.99 1.50 28.01 2.00 28.01 C 2.00 32.67 2.00 37.34 2.00 42.00 C 6.00 42.00 10.00 42.00 14.00 42.00 C 14.00 37.33 14.00 32.67 14.00 28.00 C 15.25 28.00 16.51 28.00 17.76 28.00 C 18.19 32.54 21.68 35.81 25.70 37.45 C 25.11 44.25 24.57 51.05 24.01 57.85 C 25.33 57.95 26.66 58.05 27.99 58.15 C 28.64 50.31 29.28 42.46 29.94 34.61 C 26.46 33.63 22.60 31.98 21.70 28.07 C 23.13 28.03 24.57 28.00 26.00 27.98 C 26.00 25.98 26.00 23.99 26.00 22.00 Z" />
</g>
<g id="#000000ff">
<path fill="#000000" opacity="1.00" d=" M 2.00 10.00 C 6.00 10.00 10.00 10.00 14.00 10.00 C 14.00 14.67 14.00 19.33 14.00 24.00 C 16.67 24.00 19.33 24.00 22.00 24.00 C 22.00 20.67 22.00 17.33 22.00 14.00 C 23.33 14.00 24.66 14.00 26.00 14.00 C 26.00 15.33 26.00 16.67 26.00 18.00 C 26.50 18.00 27.50 18.00 27.99 18.00 C 28.00 16.67 28.00 15.33 28.00 14.00 C 29.33 14.00 30.67 14.00 32.00 14.00 C 32.00 15.33 32.00 16.67 32.00 18.00 C 32.50 18.00 33.50 18.00 34.00 18.00 C 34.00 16.67 34.00 15.33 34.00 14.00 C 35.33 14.00 36.66 14.00 38.00 14.00 C 38.00 15.33 38.00 16.67 38.00 18.00 C 38.50 18.00 39.50 18.00 39.99 18.00 C 40.00 16.67 40.00 15.33 40.00 14.00 C 41.34 14.00 42.67 14.00 44.00 14.00 C 44.00 17.33 44.00 20.67 44.00 24.00 C 46.00 24.00 48.00 24.00 50.00 24.00 C 50.00 19.33 50.00 14.67 50.00 10.00 C 54.00 10.00 58.00 10.00 62.00 10.00 C 62.00 14.66 62.00 19.32 62.00 23.99 C 62.50 23.99 63.50 24.01 64.00 24.01 L 64.00 27.94 C 63.50 27.97 62.50 28.02 62.00 28.04 C 62.00 32.69 62.00 37.35 62.00 42.00 C 58.00 42.00 54.00 42.00 50.00 42.00 C 50.00 37.33 50.00 32.67 50.00 28.00 C 48.05 28.00 46.09 28.00 44.14 28.00 C 44.30 31.45 42.99 34.70 40.31 36.92 C 40.79 43.90 41.45 50.87 41.99 57.85 C 40.66 57.95 39.34 58.05 38.01 58.15 C 37.39 50.43 36.69 42.70 36.13 34.97 C 41.39 32.72 39.85 26.52 39.99 22.00 C 35.33 22.00 30.66 22.00 26.00 22.00 C 26.00 23.99 26.00 25.98 26.00 27.98 C 24.57 28.00 23.13 28.03 21.70 28.07 C 22.60 31.98 26.46 33.63 29.94 34.61 C 29.28 42.46 28.64 50.31 27.99 58.15 C 26.66 58.05 25.33 57.95 24.01 57.85 C 24.57 51.05 25.11 44.25 25.70 37.45 C 21.68 35.81 18.19 32.54 17.76 28.00 C 16.51 28.00 15.25 28.00 14.00 28.00 C 14.00 32.67 14.00 37.33 14.00 42.00 C 10.00 42.00 6.00 42.00 2.00 42.00 C 2.00 37.34 2.00 32.67 2.00 28.01 C 1.50 28.01 0.50 27.99 0.00 27.99 L 0.00 24.06 C 0.50 24.03 1.50 23.98 2.00 23.96 C 2.00 19.31 2.00 14.65 2.00 10.00 M 6.00 14.00 C 6.00 22.00 6.00 30.00 6.00 38.00 C 7.33 38.00 8.67 38.00 10.00 38.00 C 10.00 30.00 10.00 22.00 10.00 14.00 C 8.67 14.00 7.33 14.00 6.00 14.00 M 54.00 14.00 C 54.00 22.00 54.00 30.00 54.00 38.00 C 55.33 38.00 56.67 38.00 58.00 38.00 C 58.00 30.00 58.00 22.00 58.00 14.00 C 56.67 14.00 55.33 14.00 54.00 14.00 Z" />
</g>
</svg>
