<?xml version="1.0" encoding="UTF-8" ?>
<!DOCTYPE svg PUBLIC "-//W3C//DTD SVG 1.1//EN" "http://www.w3.org/Graphics/SVG/1.1/DTD/svg11.dtd">
<svg width="60pt" height="60pt" viewBox="0 0 60 60" version="1.1" xmlns="http://www.w3.org/2000/svg">
<g id="#ffffffff">
<path fill="#ffffff" opacity="1.00" d=" M 0.00 0.00 L 60.00 0.00 L 60.00 37.43 C 57.32 34.31 54.34 31.45 51.37 28.62 C 49.95 26.97 47.15 28.83 48.17 30.79 C 49.64 32.70 51.48 34.28 53.17 35.99 C 47.46 36.09 41.73 35.85 36.02 36.08 C 34.47 35.95 33.65 37.58 34.12 38.92 C 34.98 40.18 36.58 39.93 37.90 40.02 C 42.99 40.02 48.08 39.97 53.17 40.01 C 51.47 41.71 49.63 43.30 48.19 45.24 C 47.14 47.13 50.01 48.99 51.36 47.37 C 54.35 44.60 57.21 41.67 60.00 38.69 L 60.00 60.00 L 0.00 60.00 L 0.00 0.00 M 10.00 8.99 C 10.03 23.36 9.94 37.74 10.04 52.11 C 9.93 54.66 12.65 56.37 15.00 56.00 C 25.38 55.97 35.76 56.07 46.14 55.95 C 48.27 56.03 49.58 54.06 50.18 52.26 C 46.14 51.91 43.05 48.02 44.24 43.99 C 40.67 43.79 36.93 44.56 33.48 43.43 C 28.96 41.61 28.93 34.48 33.41 32.60 C 36.87 31.42 40.65 32.23 44.24 32.01 C 43.09 28.11 45.99 24.11 49.99 23.84 C 49.99 21.94 50.16 20.01 49.79 18.13 C 46.21 14.08 42.16 10.46 38.42 6.56 C 37.15 5.40 36.02 3.64 34.04 4.00 C 27.33 4.02 20.62 3.94 13.92 4.04 C 11.40 3.97 9.60 6.62 10.00 8.99 Z" />
<path fill="#ffffff" opacity="1.00" d=" M 34.01 7.81 C 38.07 11.87 42.13 15.93 46.18 19.99 C 42.51 19.91 38.81 20.21 35.15 19.84 C 34.90 19.59 34.40 19.09 34.16 18.84 C 33.79 15.18 34.09 11.49 34.01 7.81 Z" />
</g>
<g id="#000000ff">
<path fill="#968176" opacity="1.00" d=" M 10.00 8.99 C 9.60 6.62 11.40 3.97 13.92 4.04 C 20.62 3.94 27.33 4.02 34.04 4.00 C 36.02 3.64 37.15 5.40 38.42 6.56 C 42.16 10.46 46.21 14.08 49.79 18.13 C 50.16 20.01 49.99 21.94 49.99 23.84 C 45.99 24.11 43.09 28.11 44.24 32.01 C 40.65 32.23 36.87 31.42 33.41 32.60 C 28.93 34.48 28.96 41.61 33.48 43.43 C 36.93 44.56 40.67 43.79 44.24 43.99 C 43.05 48.02 46.14 51.91 50.18 52.26 C 49.58 54.06 48.27 56.03 46.14 55.95 C 35.76 56.07 25.38 55.97 15.00 56.00 C 12.65 56.37 9.93 54.66 10.04 52.11 C 9.94 37.74 10.03 23.36 10.00 8.99 M 34.01 7.81 C 34.09 11.49 33.79 15.18 34.16 18.84 C 34.40 19.09 34.90 19.59 35.15 19.84 C 38.81 20.21 42.51 19.91 46.18 19.99 C 42.13 15.93 38.07 11.87 34.01 7.81 Z" />
<path fill="#968176" opacity="1.00" d=" M 48.17 30.79 C 47.15 28.83 49.95 26.97 51.37 28.62 C 54.34 31.45 57.32 34.31 60.00 37.43 L 60.00 38.69 C 57.21 41.67 54.35 44.60 51.36 47.37 C 50.01 48.99 47.14 47.13 48.19 45.24 C 49.63 43.30 51.47 41.71 53.17 40.01 C 48.08 39.97 42.99 40.02 37.90 40.02 C 36.58 39.93 34.98 40.18 34.12 38.92 C 33.65 37.58 34.47 35.95 36.02 36.08 C 41.73 35.85 47.46 36.09 53.17 35.99 C 51.48 34.28 49.64 32.70 48.17 30.79 Z" />
</g>
</svg>
