<?xml version="1.0" encoding="UTF-8" ?>
<!DOCTYPE svg PUBLIC "-//W3C//DTD SVG 1.1//EN" "http://www.w3.org/Graphics/SVG/1.1/DTD/svg11.dtd">
<svg width="60pt" height="60pt" viewBox="0 0 60 60" version="1.1" xmlns="http://www.w3.org/2000/svg">
<g id="#ffffffff">
<path fill="#ffffff" opacity="1.00" d=" M 0.00 0.00 L 60.00 0.00 L 60.00 60.00 L 0.00 60.00 L 0.00 0.00 M 12.00 10.00 C 12.00 11.98 12.00 13.97 12.01 15.95 C 9.91 16.14 7.54 15.55 5.67 16.78 C 3.17 18.70 4.15 22.27 3.96 24.98 C 3.66 28.54 7.15 31.50 5.60 35.08 C 5.27 37.76 2.50 41.41 5.40 43.45 C 7.63 44.65 10.71 47.22 13.11 45.11 C 15.00 41.71 15.53 37.75 16.84 34.12 C 18.90 33.98 21.29 34.27 22.40 32.12 C 26.58 32.30 30.34 30.10 33.74 27.93 C 33.87 27.45 34.13 26.48 34.26 26.00 C 37.51 26.00 40.76 26.00 44.02 26.00 C 44.00 28.97 43.82 31.96 44.21 34.91 C 44.93 36.34 47.10 36.36 47.79 34.89 C 48.19 32.01 48.00 29.08 47.99 26.18 C 49.78 26.16 51.46 25.67 52.43 24.04 C 53.62 24.02 54.81 24.00 56.01 23.98 C 55.99 21.99 55.99 19.99 56.01 18.00 C 54.67 18.00 53.33 18.00 52.00 18.00 C 52.00 16.00 52.00 14.00 52.00 12.00 C 50.67 12.00 49.33 12.00 48.00 12.00 C 48.00 13.33 48.00 14.67 48.00 16.00 C 38.67 16.00 29.33 16.00 20.00 16.00 C 20.00 14.00 20.00 12.00 20.00 10.00 C 17.33 10.00 14.67 10.00 12.00 10.00 M 26.87 36.02 C 29.59 41.17 32.77 46.09 36.50 50.56 C 39.51 54.80 46.71 47.61 42.65 44.46 C 39.37 40.78 36.74 36.59 34.74 32.09 C 32.11 33.39 29.50 34.73 26.87 36.02 Z" />
</g>
<g id="#000000ff">
<path fill="#968176" opacity="1.00" d=" M 12.00 10.00 C 14.67 10.00 17.33 10.00 20.00 10.00 C 20.00 12.00 20.00 14.00 20.00 16.00 C 29.33 16.00 38.67 16.00 48.00 16.00 C 48.00 14.67 48.00 13.33 48.00 12.00 C 49.33 12.00 50.67 12.00 52.00 12.00 C 52.00 14.00 52.00 16.00 52.00 18.00 C 53.33 18.00 54.67 18.00 56.01 18.00 C 55.99 19.99 55.99 21.99 56.01 23.98 C 54.81 24.00 53.62 24.02 52.43 24.04 C 51.46 25.67 49.78 26.16 47.99 26.18 C 48.00 29.08 48.19 32.01 47.79 34.89 C 47.10 36.36 44.93 36.34 44.21 34.91 C 43.82 31.96 44.00 28.97 44.02 26.00 C 40.76 26.00 37.51 26.00 34.26 26.00 C 34.13 26.48 33.87 27.45 33.74 27.93 C 30.34 30.10 26.58 32.30 22.40 32.12 C 21.29 34.27 18.90 33.98 16.84 34.12 C 15.53 37.75 15.00 41.71 13.11 45.11 C 10.71 47.22 7.63 44.65 5.40 43.45 C 2.50 41.41 5.27 37.76 5.60 35.08 C 7.15 31.50 3.66 28.54 3.96 24.98 C 4.15 22.27 3.17 18.70 5.67 16.78 C 7.54 15.55 9.91 16.14 12.01 15.95 C 12.00 13.97 12.00 11.98 12.00 10.00 Z" />
<path fill="#968176" opacity="1.00" d=" M 26.87 36.02 C 29.50 34.73 32.11 33.39 34.74 32.09 C 36.74 36.59 39.37 40.78 42.65 44.46 C 46.71 47.61 39.51 54.80 36.50 50.56 C 32.77 46.09 29.59 41.17 26.87 36.02 Z" />
</g>
</svg>
