<?xml version="1.0" encoding="UTF-8" ?>
<!DOCTYPE svg PUBLIC "-//W3C//DTD SVG 1.1//EN" "http://www.w3.org/Graphics/SVG/1.1/DTD/svg11.dtd">
<svg width="60pt" height="60pt" viewBox="0 0 60 60" version="1.1" xmlns="http://www.w3.org/2000/svg">
<g id="#ffffffff">
<path fill="#ffffff" opacity="1.00" d=" M 0.00 0.00 L 60.00 0.00 L 60.00 60.00 L 0.00 60.00 L 0.00 0.00 M 26.14 5.89 C 28.50 8.66 30.37 11.87 30.75 15.54 C 32.09 16.13 33.43 16.73 34.76 17.37 C 35.30 16.31 35.85 15.25 36.41 14.20 C 34.39 10.02 30.31 7.54 26.14 5.89 M 14.14 5.75 C 15.45 9.42 16.42 13.18 17.05 17.02 C 15.41 12.95 10.48 10.93 6.43 12.54 C 4.11 13.43 2.98 15.80 1.70 17.74 C 5.14 16.40 9.44 14.88 12.82 17.18 C 16.74 20.13 18.23 25.27 18.05 30.00 C 20.00 30.00 21.95 30.00 23.90 30.00 C 24.44 27.30 24.95 24.16 27.39 22.48 C 29.41 20.95 32.03 21.59 34.34 21.77 C 31.88 17.93 26.89 17.01 23.01 19.24 C 21.79 13.89 19.35 8.30 14.14 5.75 M 35.94 29.99 C 37.95 30.00 39.95 30.00 41.95 30.00 C 43.01 26.10 43.92 21.82 46.89 18.88 C 49.12 16.94 52.05 18.63 54.23 19.75 C 53.45 18.00 52.94 15.89 51.16 14.87 C 49.17 13.54 46.71 14.17 44.54 14.57 C 45.63 11.67 46.76 8.78 47.90 5.90 C 40.11 11.28 35.91 20.65 35.94 29.99 M 18.10 34.07 C 17.98 36.68 17.98 39.30 18.09 41.92 C 20.02 41.97 21.94 41.98 23.87 41.96 C 24.03 39.33 24.04 36.70 23.90 34.08 C 21.97 34.03 20.03 34.03 18.10 34.07 M 36.10 34.07 C 35.97 36.69 35.97 39.31 36.10 41.93 C 38.03 41.97 39.96 41.97 41.89 41.93 C 42.03 39.31 42.03 36.68 41.89 34.06 C 39.96 34.03 38.03 34.03 36.10 34.07 M 18.08 46.07 C 18.03 48.02 18.03 49.96 18.06 51.91 C 20.02 51.97 21.97 51.97 23.93 51.92 C 23.97 49.96 23.97 48.01 23.90 46.06 C 21.96 46.03 20.02 46.03 18.08 46.07 M 36.09 46.06 C 36.03 48.01 36.03 49.97 36.07 51.92 C 38.02 51.97 39.97 51.97 41.92 51.92 C 41.97 49.98 41.97 48.03 41.93 46.09 C 39.98 46.03 38.03 46.03 36.09 46.06 Z" />
</g>
<g id="#000000ff">
<path fill="#000000" opacity="1.00" d=" M 26.14 5.89 C 30.31 7.54 34.39 10.02 36.41 14.20 C 35.85 15.25 35.30 16.31 34.76 17.37 C 33.43 16.73 32.09 16.13 30.75 15.54 C 30.37 11.87 28.50 8.66 26.14 5.89 Z" />
<path fill="#000000" opacity="1.00" d=" M 14.14 5.75 C 19.35 8.30 21.79 13.89 23.01 19.24 C 26.89 17.01 31.88 17.93 34.34 21.77 C 32.03 21.59 29.41 20.95 27.39 22.48 C 24.95 24.16 24.44 27.30 23.90 30.00 C 21.95 30.00 20.00 30.00 18.05 30.00 C 18.23 25.27 16.74 20.13 12.82 17.18 C 9.44 14.88 5.14 16.40 1.70 17.74 C 2.98 15.80 4.11 13.43 6.43 12.54 C 10.48 10.93 15.41 12.95 17.05 17.02 C 16.42 13.18 15.45 9.42 14.14 5.75 Z" />
<path fill="#000000" opacity="1.00" d=" M 35.94 29.99 C 35.91 20.65 40.11 11.28 47.90 5.90 C 46.76 8.78 45.63 11.67 44.54 14.57 C 46.71 14.17 49.17 13.54 51.16 14.87 C 52.94 15.89 53.45 18.00 54.23 19.75 C 52.05 18.63 49.12 16.94 46.89 18.88 C 43.92 21.82 43.01 26.10 41.95 30.00 C 39.95 30.00 37.95 30.00 35.94 29.99 Z" />
<path fill="#000000" opacity="1.00" d=" M 18.10 34.07 C 20.03 34.03 21.97 34.03 23.90 34.08 C 24.04 36.70 24.03 39.33 23.87 41.96 C 21.94 41.98 20.02 41.97 18.09 41.92 C 17.98 39.30 17.98 36.68 18.10 34.07 Z" />
<path fill="#000000" opacity="1.00" d=" M 36.10 34.07 C 38.03 34.03 39.96 34.03 41.89 34.06 C 42.03 36.68 42.03 39.31 41.89 41.93 C 39.96 41.97 38.03 41.97 36.10 41.93 C 35.97 39.31 35.97 36.69 36.10 34.07 Z" />
<path fill="#000000" opacity="1.00" d=" M 18.08 46.07 C 20.02 46.03 21.96 46.03 23.90 46.06 C 23.97 48.01 23.97 49.96 23.93 51.92 C 21.97 51.97 20.02 51.97 18.06 51.91 C 18.03 49.96 18.03 48.02 18.08 46.07 Z" />
<path fill="#000000" opacity="1.00" d=" M 36.09 46.06 C 38.03 46.03 39.98 46.03 41.93 46.09 C 41.97 48.03 41.97 49.98 41.92 51.92 C 39.97 51.97 38.02 51.97 36.07 51.92 C 36.03 49.97 36.03 48.01 36.09 46.06 Z" />
</g>
</svg>
