<?xml version="1.0" encoding="UTF-8" ?>
<!DOCTYPE svg PUBLIC "-//W3C//DTD SVG 1.1//EN" "http://www.w3.org/Graphics/SVG/1.1/DTD/svg11.dtd">
<svg width="64pt" height="64pt" viewBox="0 0 64 64" version="1.1" xmlns="http://www.w3.org/2000/svg">
<g id="#ffffffff">
<path fill="#ffffff" opacity="1.00" d=" M 0.00 0.00 L 64.00 0.00 L 64.00 64.00 L 0.00 64.00 L 0.00 0.00 M 19.27 11.12 C 14.86 13.31 9.43 16.38 9.16 21.93 C 7.45 31.20 8.13 40.64 8.00 50.00 C 10.67 50.00 13.33 50.00 16.00 50.00 C 16.00 52.67 16.00 55.33 16.00 58.00 C 26.67 58.00 37.33 58.00 48.00 58.00 C 48.00 55.33 48.00 52.67 48.00 50.00 C 50.67 50.00 53.33 50.00 56.00 50.00 C 55.84 41.52 56.51 32.99 55.23 24.58 C 54.76 21.76 54.75 18.53 52.52 16.42 C 48.00 11.89 41.75 9.85 36.22 6.88 C 30.13 4.04 24.58 8.79 19.27 11.12 Z" />
<path fill="#ffffff" opacity="1.00" d=" M 26.70 11.86 C 29.98 9.67 34.02 9.67 37.30 11.86 C 35.54 16.56 33.78 21.27 32.00 25.97 C 30.22 21.27 28.46 16.57 26.70 11.86 Z" />
<path fill="#ffffff" opacity="1.00" d=" M 20.00 16.00 C 21.00 16.00 22.99 16.00 23.99 16.00 C 23.33 17.33 22.67 18.67 22.01 20.00 C 24.67 21.61 27.34 23.19 30.00 24.81 C 30.00 34.54 30.00 44.27 30.00 54.00 C 26.67 54.00 23.33 54.00 20.00 54.00 C 20.00 41.33 20.00 28.67 20.00 16.00 Z" />
<path fill="#ffffff" opacity="1.00" d=" M 40.01 16.00 C 41.01 16.00 43.00 16.00 44.00 16.00 C 44.00 28.67 44.00 41.33 44.00 54.00 C 40.67 54.00 37.33 54.00 34.00 54.00 C 34.00 44.27 34.00 34.53 34.00 24.80 C 36.70 23.27 39.31 21.57 42.00 20.00 C 41.33 18.67 40.67 17.33 40.01 16.00 M 37.14 30.14 C 34.89 31.21 36.40 34.82 38.76 33.90 C 41.20 32.91 39.57 29.04 37.14 30.14 M 37.11 38.12 C 34.88 39.30 36.43 42.85 38.83 41.88 C 41.16 40.75 39.54 37.09 37.11 38.12 M 37.11 46.19 C 34.81 47.19 36.53 50.98 38.80 49.83 C 41.25 48.89 39.46 44.93 37.11 46.19 Z" />
<path fill="#ffffff" opacity="1.00" d=" M 13.61 20.39 C 14.06 19.26 15.16 18.59 15.95 17.72 C 16.07 27.15 15.97 36.57 16.00 46.00 C 14.67 46.00 13.33 46.00 12.00 46.00 C 12.04 37.45 11.55 28.76 13.61 20.39 Z" />
<path fill="#ffffff" opacity="1.00" d=" M 48.06 17.72 C 48.84 18.58 49.91 19.26 50.37 20.37 C 52.46 28.74 51.96 37.44 52.00 46.00 C 50.67 46.00 49.33 46.00 48.00 46.00 C 48.04 36.57 47.92 27.14 48.06 17.72 Z" />
</g>
<g id="#000000ff">
<path fill="#000000" opacity="1.00" d=" M 19.27 11.12 C 24.58 8.79 30.13 4.04 36.22 6.88 C 41.75 9.85 48.00 11.89 52.52 16.42 C 54.75 18.53 54.76 21.76 55.23 24.58 C 56.51 32.99 55.84 41.52 56.00 50.00 C 53.33 50.00 50.67 50.00 48.00 50.00 C 48.00 52.67 48.00 55.33 48.00 58.00 C 37.33 58.00 26.67 58.00 16.00 58.00 C 16.00 55.33 16.00 52.67 16.00 50.00 C 13.33 50.00 10.67 50.00 8.00 50.00 C 8.13 40.64 7.45 31.20 9.16 21.93 C 9.43 16.38 14.86 13.31 19.27 11.12 M 26.70 11.86 C 28.46 16.57 30.22 21.27 32.00 25.97 C 33.78 21.27 35.54 16.56 37.30 11.86 C 34.02 9.67 29.98 9.67 26.70 11.86 M 20.00 16.00 C 20.00 28.67 20.00 41.33 20.00 54.00 C 23.33 54.00 26.67 54.00 30.00 54.00 C 30.00 44.27 30.00 34.54 30.00 24.81 C 27.34 23.19 24.67 21.61 22.01 20.00 C 22.67 18.67 23.33 17.33 23.99 16.00 C 22.99 16.00 21.00 16.00 20.00 16.00 M 40.01 16.00 C 40.67 17.33 41.33 18.67 42.00 20.00 C 39.31 21.57 36.70 23.27 34.00 24.80 C 34.00 34.53 34.00 44.27 34.00 54.00 C 37.33 54.00 40.67 54.00 44.00 54.00 C 44.00 41.33 44.00 28.67 44.00 16.00 C 43.00 16.00 41.01 16.00 40.01 16.00 M 13.61 20.39 C 11.55 28.76 12.04 37.45 12.00 46.00 C 13.33 46.00 14.67 46.00 16.00 46.00 C 15.97 36.57 16.07 27.15 15.95 17.72 C 15.16 18.59 14.06 19.26 13.61 20.39 M 48.06 17.72 C 47.92 27.14 48.04 36.57 48.00 46.00 C 49.33 46.00 50.67 46.00 52.00 46.00 C 51.96 37.44 52.46 28.74 50.37 20.37 C 49.91 19.26 48.84 18.58 48.06 17.72 Z" />
<path fill="#000000" opacity="1.00" d=" M 37.14 30.14 C 39.57 29.04 41.20 32.91 38.76 33.90 C 36.40 34.82 34.89 31.21 37.14 30.14 Z" />
<path fill="#000000" opacity="1.00" d=" M 37.11 38.12 C 39.54 37.09 41.16 40.75 38.83 41.88 C 36.43 42.85 34.88 39.30 37.11 38.12 Z" />
<path fill="#000000" opacity="1.00" d=" M 37.11 46.19 C 39.46 44.93 41.25 48.89 38.80 49.83 C 36.53 50.98 34.81 47.19 37.11 46.19 Z" />
</g>
</svg>
