<?xml version="1.0" encoding="UTF-8" ?>
<!DOCTYPE svg PUBLIC "-//W3C//DTD SVG 1.1//EN" "http://www.w3.org/Graphics/SVG/1.1/DTD/svg11.dtd">
<svg width="60pt" height="60pt" viewBox="0 0 60 60" version="1.1" xmlns="http://www.w3.org/2000/svg">
<g id="#ffffffff">
<path fill="#ffffff" opacity="1.00" d=" M 0.00 0.00 L 60.00 0.00 L 60.00 60.00 L 0.00 60.00 L 0.00 0.00 M 15.85 7.94 C 14.26 7.99 12.66 7.96 11.08 8.19 C 9.29 9.44 10.27 12.00 9.94 13.84 C 8.75 15.16 7.26 16.29 6.57 17.97 C 7.20 19.70 8.76 20.83 9.94 22.16 C 9.99 23.73 9.96 25.32 10.18 26.88 C 11.41 28.73 13.99 27.72 15.85 28.06 C 17.16 29.26 18.30 30.73 19.98 31.44 C 21.70 30.77 22.86 29.26 24.19 28.06 C 25.74 28.01 27.29 28.04 28.83 27.83 C 30.76 26.67 29.71 24.01 30.06 22.16 C 31.25 20.83 32.77 19.70 33.43 18.00 C 32.76 16.30 31.25 15.16 30.06 13.84 C 30.01 12.26 30.04 10.67 29.81 9.10 C 28.58 7.29 26.03 8.27 24.19 7.93 C 22.88 6.73 21.69 5.31 20.04 4.54 C 18.32 5.22 17.18 6.74 15.85 7.94 M 32.66 33.44 C 38.43 39.98 44.31 46.43 50.15 52.91 C 50.97 54.24 53.19 54.45 53.82 52.84 C 54.15 49.59 54.14 46.29 53.81 43.05 C 52.04 40.59 49.59 43.42 47.74 44.26 C 43.38 39.61 39.37 34.60 34.80 30.16 C 32.79 29.10 30.95 32.01 32.66 33.44 M 19.20 34.18 C 16.74 35.18 18.53 38.97 20.94 37.89 C 23.09 36.67 21.52 33.08 19.20 34.18 M 19.21 42.11 C 16.84 43.14 18.37 46.85 20.81 45.90 C 23.13 44.80 21.60 41.15 19.21 42.11 M 19.15 50.20 C 16.80 51.19 18.51 54.92 20.83 53.88 C 23.20 52.84 21.51 48.99 19.15 50.20 M 27.14 50.20 C 24.81 51.16 26.50 54.94 28.79 53.85 C 31.25 52.91 29.49 48.95 27.14 50.20 M 35.15 50.09 C 32.86 51.28 34.45 54.89 36.87 53.89 C 39.10 52.69 37.56 49.14 35.15 50.09 M 43.21 50.16 C 40.73 51.16 42.50 54.93 44.92 53.88 C 47.09 52.69 45.54 49.11 43.21 50.16 Z" />
<path fill="#ffffff" opacity="1.00" d=" M 17.40 12.59 C 21.58 10.31 27.02 14.55 25.88 19.15 C 25.24 23.38 19.60 25.52 16.33 22.73 C 12.83 20.26 13.47 14.28 17.40 12.59 Z" />
</g>
<g id="#000000ff">
<path fill="#000000" opacity="1.00" d=" M 15.85 7.94 C 17.18 6.74 18.32 5.22 20.04 4.54 C 21.69 5.31 22.88 6.73 24.19 7.93 C 26.03 8.27 28.58 7.29 29.81 9.10 C 30.04 10.67 30.01 12.26 30.06 13.84 C 31.25 15.16 32.76 16.30 33.43 18.00 C 32.77 19.70 31.25 20.83 30.06 22.16 C 29.71 24.01 30.76 26.67 28.83 27.83 C 27.29 28.04 25.74 28.01 24.19 28.06 C 22.86 29.26 21.70 30.77 19.98 31.44 C 18.30 30.73 17.16 29.26 15.85 28.06 C 13.99 27.72 11.41 28.73 10.18 26.88 C 9.96 25.32 9.99 23.73 9.94 22.16 C 8.76 20.83 7.20 19.70 6.57 17.97 C 7.26 16.29 8.75 15.16 9.94 13.84 C 10.27 12.00 9.29 9.44 11.08 8.19 C 12.66 7.96 14.26 7.99 15.85 7.94 M 17.40 12.59 C 13.47 14.28 12.83 20.26 16.33 22.73 C 19.60 25.52 25.24 23.38 25.88 19.15 C 27.02 14.55 21.58 10.31 17.40 12.59 Z" />
<path fill="#000000" opacity="1.00" d=" M 32.66 33.44 C 30.95 32.01 32.79 29.10 34.80 30.16 C 39.37 34.60 43.38 39.61 47.74 44.26 C 49.59 43.42 52.04 40.59 53.81 43.05 C 54.14 46.29 54.15 49.59 53.82 52.84 C 53.19 54.45 50.97 54.24 50.15 52.91 C 44.31 46.43 38.43 39.98 32.66 33.44 Z" />
<path fill="#000000" opacity="1.00" d=" M 19.20 34.18 C 21.52 33.08 23.09 36.67 20.94 37.89 C 18.53 38.97 16.74 35.18 19.20 34.18 Z" />
<path fill="#000000" opacity="1.00" d=" M 19.21 42.11 C 21.60 41.15 23.13 44.80 20.81 45.90 C 18.37 46.85 16.84 43.14 19.21 42.11 Z" />
<path fill="#000000" opacity="1.00" d=" M 19.15 50.20 C 21.51 48.99 23.20 52.84 20.83 53.88 C 18.51 54.92 16.80 51.19 19.15 50.20 Z" />
<path fill="#000000" opacity="1.00" d=" M 27.14 50.20 C 29.49 48.95 31.25 52.91 28.79 53.85 C 26.50 54.94 24.81 51.16 27.14 50.20 Z" />
<path fill="#000000" opacity="1.00" d=" M 35.15 50.09 C 37.56 49.14 39.10 52.69 36.87 53.89 C 34.45 54.89 32.86 51.28 35.15 50.09 Z" />
<path fill="#000000" opacity="1.00" d=" M 43.21 50.16 C 45.54 49.11 47.09 52.69 44.92 53.88 C 42.50 54.93 40.73 51.16 43.21 50.16 Z" />
</g>
</svg>
