<?xml version="1.0" encoding="UTF-8" ?>
<!DOCTYPE svg PUBLIC "-//W3C//DTD SVG 1.1//EN" "http://www.w3.org/Graphics/SVG/1.1/DTD/svg11.dtd">
<svg width="60pt" height="60pt" viewBox="0 0 60 60" version="1.1" xmlns="http://www.w3.org/2000/svg">
<g id="#ffffffff">
<path fill="#ffffff" opacity="1.00" d=" M 0.00 0.00 L 60.00 0.00 L 60.00 60.00 L 0.00 60.00 L 0.00 0.00 M 29.19 2.07 C 27.25 3.39 28.21 6.08 27.96 8.05 C 27.95 9.48 27.90 12.17 30.01 11.93 C 32.56 12.00 31.92 8.61 32.05 6.94 C 32.18 4.96 32.22 1.26 29.19 2.07 M 10.14 10.21 C 8.47 12.05 10.98 13.63 12.04 14.94 C 13.45 16.13 15.34 19.07 17.30 17.23 C 19.00 15.23 16.12 13.45 14.96 12.06 C 13.67 10.97 11.93 8.42 10.14 10.21 M 47.36 10.00 C 45.48 11.52 43.70 13.23 42.29 15.19 C 41.41 16.94 43.94 18.74 45.29 17.39 C 47.17 15.78 49.05 14.10 50.40 12.01 C 50.84 10.42 48.63 8.73 47.36 10.00 M 25.47 16.79 C 18.91 18.90 14.69 26.33 16.38 33.06 C 17.83 40.34 25.79 45.45 33.02 43.62 C 40.64 42.15 45.77 33.59 43.42 26.18 C 41.51 18.69 32.73 14.07 25.47 16.79 M 3.18 28.21 C 1.62 28.76 1.62 31.24 3.18 31.79 C 5.70 32.17 8.30 32.16 10.82 31.80 C 12.37 31.23 12.38 28.84 10.87 28.21 C 8.33 27.84 5.72 27.83 3.18 28.21 M 49.15 28.21 C 47.63 28.80 47.63 31.22 49.16 31.78 C 51.68 32.18 54.28 32.16 56.81 31.80 C 58.37 31.24 58.38 28.82 56.86 28.20 C 54.31 27.84 51.69 27.83 49.15 28.21 M 10.10 47.26 C 8.69 48.48 10.38 50.86 12.05 50.37 C 14.55 48.70 16.55 46.39 18.31 43.98 C 17.43 43.13 16.61 41.63 15.15 42.26 C 13.26 43.70 11.59 45.42 10.10 47.26 M 43.18 42.27 C 42.16 42.89 41.70 44.46 42.63 45.35 C 44.24 47.18 45.91 49.01 47.95 50.38 C 50.17 50.87 51.27 47.82 49.44 46.65 C 47.56 45.06 45.98 41.77 43.18 42.27 M 29.15 48.07 C 27.48 49.15 28.14 51.36 27.95 53.02 C 28.06 54.79 27.47 57.89 30.06 58.04 C 32.53 57.75 31.92 54.80 32.05 53.06 C 32.17 51.04 32.27 47.22 29.15 48.07 Z" />
</g>
<g id="#000000ff">
<path fill="#000000" opacity="1.00" d=" M 29.19 2.07 C 32.22 1.26 32.18 4.96 32.05 6.94 C 31.92 8.61 32.56 12.00 30.01 11.93 C 27.90 12.17 27.95 9.48 27.96 8.05 C 28.21 6.08 27.25 3.39 29.19 2.07 Z" />
<path fill="#000000" opacity="1.00" d=" M 10.14 10.21 C 11.93 8.42 13.67 10.97 14.96 12.06 C 16.12 13.45 19.00 15.23 17.30 17.23 C 15.34 19.07 13.45 16.13 12.04 14.94 C 10.98 13.63 8.47 12.05 10.14 10.21 Z" />
<path fill="#000000" opacity="1.00" d=" M 47.36 10.00 C 48.63 8.73 50.84 10.42 50.40 12.01 C 49.05 14.10 47.17 15.78 45.29 17.39 C 43.94 18.74 41.41 16.94 42.29 15.19 C 43.70 13.23 45.48 11.52 47.36 10.00 Z" />
<path fill="#000000" opacity="1.00" d=" M 25.47 16.79 C 32.73 14.07 41.51 18.69 43.42 26.18 C 45.77 33.59 40.64 42.15 33.02 43.62 C 25.79 45.45 17.83 40.34 16.38 33.06 C 14.69 26.33 18.91 18.90 25.47 16.79 Z" />
<path fill="#000000" opacity="1.00" d=" M 3.18 28.21 C 5.72 27.83 8.33 27.84 10.87 28.21 C 12.38 28.84 12.37 31.23 10.82 31.80 C 8.30 32.16 5.70 32.17 3.18 31.79 C 1.62 31.24 1.62 28.76 3.18 28.21 Z" />
<path fill="#000000" opacity="1.00" d=" M 49.15 28.21 C 51.69 27.83 54.31 27.84 56.86 28.20 C 58.38 28.82 58.37 31.24 56.81 31.80 C 54.28 32.16 51.68 32.18 49.16 31.78 C 47.63 31.22 47.63 28.80 49.15 28.21 Z" />
<path fill="#000000" opacity="1.00" d=" M 10.10 47.26 C 11.59 45.42 13.26 43.70 15.15 42.26 C 16.61 41.63 17.43 43.13 18.31 43.98 C 16.55 46.39 14.55 48.70 12.05 50.37 C 10.38 50.86 8.69 48.48 10.10 47.26 Z" />
<path fill="#000000" opacity="1.00" d=" M 43.18 42.27 C 45.98 41.77 47.56 45.06 49.44 46.65 C 51.27 47.82 50.17 50.87 47.95 50.38 C 45.91 49.01 44.24 47.18 42.63 45.35 C 41.70 44.46 42.16 42.89 43.18 42.27 Z" />
<path fill="#000000" opacity="1.00" d=" M 29.15 48.07 C 32.27 47.22 32.17 51.04 32.05 53.06 C 31.92 54.80 32.53 57.75 30.06 58.04 C 27.47 57.89 28.06 54.79 27.95 53.02 C 28.14 51.36 27.48 49.15 29.15 48.07 Z" />
</g>
</svg>
