<?xml version="1.0" encoding="UTF-8" ?>
<!DOCTYPE svg PUBLIC "-//W3C//DTD SVG 1.1//EN" "http://www.w3.org/Graphics/SVG/1.1/DTD/svg11.dtd">
<svg width="64pt" height="64pt" viewBox="0 0 64 64" version="1.1" xmlns="http://www.w3.org/2000/svg">
<g id="#ffffffff">
<path fill="#ffffff" opacity="1.00" d=" M 0.00 0.00 L 64.00 0.00 L 64.00 64.00 L 0.00 64.00 L 0.00 0.00 M 26.46 8.65 C 19.09 10.37 12.71 15.79 9.85 22.80 C 6.72 30.17 7.65 39.11 12.29 45.65 C 16.84 52.31 24.93 56.38 33.00 55.96 C 44.68 55.72 55.08 45.77 55.88 34.13 C 56.67 26.22 53.13 18.10 46.89 13.21 C 41.26 8.65 33.49 6.97 26.46 8.65 Z" />
<path fill="#ffffff" opacity="1.00" d=" M 29.23 12.19 C 35.83 11.23 42.81 13.82 47.13 18.92 C 52.01 24.44 53.34 32.75 50.52 39.54 C 47.98 45.91 41.93 50.74 35.14 51.73 C 28.46 52.86 21.31 50.28 16.91 45.13 C 12.18 39.81 10.72 31.86 13.20 25.19 C 15.58 18.33 22.02 13.12 29.23 12.19 M 30.22 26.26 C 25.64 27.33 24.53 34.10 28.28 36.77 C 31.66 39.52 37.57 37.37 37.93 32.88 C 38.79 28.64 34.26 24.83 30.22 26.26 Z" />
<path fill="#ffffff" opacity="1.00" d=" M 31.27 30.11 C 33.71 28.95 35.20 33.19 32.74 33.84 C 30.34 35.09 28.75 30.84 31.27 30.11 Z" />
</g>
<g id="#000000ff">
<path fill="#000000" opacity="1.00" d=" M 26.46 8.65 C 33.49 6.97 41.26 8.65 46.89 13.21 C 53.13 18.10 56.67 26.22 55.88 34.13 C 55.08 45.77 44.68 55.72 33.00 55.96 C 24.93 56.38 16.84 52.31 12.29 45.65 C 7.65 39.11 6.72 30.17 9.85 22.80 C 12.71 15.79 19.09 10.37 26.46 8.65 M 29.23 12.19 C 22.02 13.12 15.58 18.33 13.20 25.19 C 10.72 31.86 12.18 39.81 16.91 45.13 C 21.31 50.28 28.46 52.86 35.14 51.73 C 41.93 50.74 47.98 45.91 50.52 39.54 C 53.34 32.75 52.01 24.44 47.13 18.92 C 42.81 13.82 35.83 11.23 29.23 12.19 Z" />
<path fill="#000000" opacity="1.00" d=" M 30.22 26.26 C 34.26 24.83 38.79 28.64 37.93 32.88 C 37.57 37.37 31.66 39.52 28.28 36.77 C 24.53 34.10 25.64 27.33 30.22 26.26 M 31.27 30.11 C 28.75 30.84 30.34 35.09 32.74 33.84 C 35.20 33.19 33.71 28.95 31.27 30.11 Z" />
</g>
</svg>
