<?xml version="1.0" encoding="UTF-8" ?>
<!DOCTYPE svg PUBLIC "-//W3C//DTD SVG 1.1//EN" "http://www.w3.org/Graphics/SVG/1.1/DTD/svg11.dtd">
<svg width="60pt" height="60pt" viewBox="0 0 60 60" version="1.1" xmlns="http://www.w3.org/2000/svg">
<g id="#ffffffff">
<path fill="#ffffff" opacity="1.00" d=" M 0.00 0.00 L 60.00 0.00 L 60.00 60.00 L 0.00 60.00 L 0.00 0.00 M 26.67 12.82 C 24.72 10.22 22.63 7.69 19.95 5.81 C 19.44 9.00 19.55 12.24 20.37 15.36 C 17.57 13.72 14.68 12.20 11.49 11.49 C 12.22 14.66 13.60 17.63 15.52 20.25 C 12.31 19.67 9.04 19.52 5.79 19.97 C 7.68 22.65 10.16 24.79 12.84 26.65 C 9.63 27.14 6.57 28.28 3.81 30.00 C 6.57 31.71 9.63 32.85 12.83 33.35 C 10.20 35.26 7.69 37.36 5.82 40.05 C 9.05 40.57 12.31 40.35 15.51 39.76 C 13.58 42.38 12.21 45.34 11.48 48.51 C 14.65 47.77 17.62 46.41 20.25 44.48 C 19.67 47.69 19.48 50.96 19.98 54.20 C 22.65 52.31 24.78 49.82 26.66 47.16 C 27.15 50.38 28.29 53.43 30.00 56.20 C 31.71 53.43 32.84 50.37 33.35 47.16 C 35.25 49.80 37.38 52.29 40.05 54.18 C 40.56 51.00 40.43 47.76 39.63 44.64 C 42.43 46.28 45.32 47.80 48.51 48.51 C 47.76 45.35 46.41 42.37 44.47 39.75 C 47.69 40.33 50.96 40.49 54.20 40.02 C 52.31 37.35 49.83 35.20 47.16 33.35 C 50.37 32.85 53.43 31.71 56.19 30.00 C 53.43 28.29 50.38 27.16 47.17 26.66 C 49.78 24.73 52.29 22.62 54.18 19.95 C 51.00 19.43 47.76 19.53 44.63 20.38 C 46.27 17.57 47.80 14.68 48.51 11.49 C 45.34 12.21 42.37 13.60 39.75 15.52 C 40.32 12.31 40.50 9.04 40.02 5.80 C 37.35 7.68 35.19 10.16 33.35 12.85 C 32.84 9.64 31.71 6.57 30.00 3.80 C 28.30 6.56 27.15 9.61 26.67 12.82 Z" />
<path fill="#ffffff" opacity="1.00" d=" M 27.55 16.02 C 29.18 16.03 30.82 16.04 32.46 16.02 C 32.32 17.39 31.57 19.06 33.13 19.90 C 34.93 20.54 35.65 18.83 36.48 17.62 C 37.29 18.01 38.91 18.79 39.71 19.18 C 38.02 19.94 34.52 21.19 36.64 23.41 C 38.91 25.44 40.04 21.89 40.82 20.28 C 41.21 21.09 41.99 22.70 42.38 23.51 C 40.52 24.15 38.85 26.57 41.14 27.83 C 41.85 27.75 43.26 27.61 43.97 27.53 C 43.96 29.18 43.96 30.82 43.97 32.46 C 42.71 32.42 40.79 31.41 40.24 33.16 C 39.16 34.75 41.37 35.75 42.38 36.49 C 41.99 37.29 41.21 38.91 40.82 39.72 C 40.14 38.53 39.79 37.10 38.77 36.14 C 37.27 35.36 35.38 37.24 36.13 38.75 C 37.08 39.79 38.52 40.13 39.72 40.82 C 38.91 41.21 37.30 41.98 36.49 42.37 C 35.62 41.18 34.88 39.40 33.08 40.12 C 31.57 40.97 32.34 42.63 32.45 43.97 C 30.81 43.96 29.18 43.96 27.54 43.97 C 27.67 42.62 28.43 40.94 26.87 40.11 C 25.09 39.41 24.35 41.20 23.50 42.38 C 22.70 41.99 21.09 41.21 20.29 40.82 C 21.45 40.14 22.86 39.82 23.78 38.81 C 24.79 37.38 22.64 35.25 21.18 36.18 C 20.19 37.13 19.86 38.55 19.18 39.72 C 18.79 38.91 18.01 37.29 17.62 36.49 C 18.57 35.72 20.72 34.89 19.83 33.29 C 19.32 31.44 17.33 32.36 16.02 32.46 C 16.04 30.82 16.05 29.18 16.05 27.53 C 17.70 28.13 19.73 28.16 20.09 26.06 C 19.66 24.89 18.84 24.04 17.62 23.51 C 18.01 22.71 18.79 21.09 19.18 20.28 C 19.85 21.45 20.19 22.86 21.18 23.80 C 22.63 24.74 24.70 22.70 23.83 21.22 C 22.89 20.19 21.46 19.86 20.28 19.18 C 21.09 18.79 22.71 18.01 23.51 17.62 C 24.23 18.58 25.22 20.81 26.75 19.79 C 28.57 19.29 27.61 17.28 27.55 16.02 M 28.59 20.65 C 26.62 22.31 29.75 25.36 31.38 23.40 C 33.43 21.69 30.15 18.56 28.59 20.65 M 24.54 24.57 C 22.71 26.38 25.67 29.31 27.45 27.42 C 29.30 25.60 26.33 22.71 24.54 24.57 M 32.58 24.54 C 30.68 26.31 33.66 29.37 35.37 27.41 C 37.37 25.71 34.36 22.70 32.58 24.54 M 20.57 28.63 C 18.64 30.30 21.73 33.38 23.36 31.39 C 25.46 29.79 22.22 26.56 20.57 28.63 M 28.63 28.60 C 26.56 30.18 29.76 33.47 31.39 31.36 C 33.38 29.78 30.31 26.61 28.63 28.60 M 36.52 28.60 C 34.72 30.41 37.76 33.38 39.38 31.38 C 41.40 29.64 38.23 26.65 36.52 28.60 M 24.57 32.55 C 22.63 34.36 25.82 37.42 27.44 35.33 C 29.31 33.58 26.29 30.74 24.57 32.55 M 32.64 32.58 C 30.57 34.17 33.70 37.42 35.36 35.39 C 37.42 33.81 34.30 30.61 32.64 32.58 M 28.59 36.53 C 26.66 38.30 29.69 41.40 31.38 39.38 C 33.36 37.75 30.38 34.70 28.59 36.53 Z" />
</g>
<g id="#000000ff">
<path fill="#000000" opacity="1.00" d=" M 26.67 12.82 C 27.15 9.61 28.30 6.56 30.00 3.80 C 31.71 6.57 32.84 9.64 33.35 12.85 C 35.19 10.16 37.35 7.68 40.02 5.80 C 40.50 9.04 40.32 12.31 39.75 15.52 C 42.37 13.60 45.34 12.21 48.51 11.49 C 47.80 14.68 46.27 17.57 44.63 20.38 C 47.76 19.53 51.00 19.43 54.18 19.95 C 52.29 22.62 49.78 24.73 47.17 26.66 C 50.38 27.16 53.43 28.29 56.19 30.00 C 53.43 31.71 50.37 32.85 47.16 33.35 C 49.83 35.20 52.31 37.35 54.20 40.02 C 50.96 40.49 47.69 40.33 44.47 39.75 C 46.41 42.37 47.76 45.35 48.51 48.51 C 45.32 47.80 42.43 46.28 39.63 44.64 C 40.43 47.76 40.56 51.00 40.05 54.18 C 37.38 52.29 35.25 49.80 33.35 47.16 C 32.84 50.37 31.71 53.43 30.00 56.20 C 28.29 53.43 27.15 50.38 26.66 47.16 C 24.78 49.82 22.65 52.31 19.98 54.20 C 19.48 50.96 19.67 47.69 20.25 44.48 C 17.62 46.41 14.65 47.77 11.48 48.51 C 12.21 45.34 13.58 42.38 15.51 39.76 C 12.31 40.35 9.05 40.57 5.82 40.05 C 7.69 37.36 10.20 35.26 12.83 33.35 C 9.63 32.85 6.57 31.71 3.81 30.00 C 6.57 28.28 9.63 27.14 12.84 26.65 C 10.16 24.79 7.68 22.65 5.79 19.97 C 9.04 19.52 12.31 19.67 15.52 20.25 C 13.60 17.63 12.22 14.66 11.49 11.49 C 14.68 12.20 17.57 13.72 20.37 15.36 C 19.55 12.24 19.44 9.00 19.95 5.81 C 22.63 7.69 24.72 10.22 26.67 12.82 M 27.55 16.02 C 27.61 17.28 28.57 19.29 26.75 19.79 C 25.22 20.81 24.23 18.58 23.51 17.62 C 22.71 18.01 21.09 18.79 20.28 19.18 C 21.46 19.86 22.89 20.19 23.83 21.22 C 24.70 22.70 22.63 24.74 21.18 23.80 C 20.19 22.86 19.85 21.45 19.18 20.28 C 18.79 21.09 18.01 22.71 17.62 23.51 C 18.84 24.04 19.66 24.89 20.09 26.06 C 19.73 28.16 17.70 28.13 16.05 27.53 C 16.05 29.18 16.04 30.82 16.02 32.46 C 17.33 32.36 19.32 31.44 19.83 33.29 C 20.72 34.89 18.57 35.72 17.62 36.49 C 18.01 37.29 18.79 38.91 19.18 39.72 C 19.86 38.55 20.19 37.13 21.18 36.18 C 22.64 35.25 24.79 37.38 23.78 38.81 C 22.86 39.82 21.45 40.14 20.29 40.82 C 21.09 41.21 22.70 41.99 23.50 42.38 C 24.35 41.20 25.09 39.41 26.87 40.11 C 28.43 40.94 27.67 42.62 27.54 43.97 C 29.18 43.96 30.81 43.96 32.45 43.97 C 32.34 42.63 31.57 40.97 33.08 40.12 C 34.88 39.40 35.62 41.18 36.49 42.37 C 37.30 41.98 38.91 41.21 39.72 40.82 C 38.52 40.13 37.08 39.79 36.13 38.75 C 35.38 37.24 37.27 35.36 38.77 36.14 C 39.79 37.10 40.14 38.53 40.82 39.72 C 41.21 38.91 41.99 37.29 42.38 36.49 C 41.37 35.75 39.16 34.75 40.24 33.16 C 40.79 31.41 42.71 32.42 43.97 32.46 C 43.96 30.82 43.96 29.18 43.97 27.53 C 43.26 27.61 41.85 27.75 41.14 27.83 C 38.85 26.57 40.52 24.15 42.38 23.51 C 41.99 22.70 41.21 21.09 40.82 20.28 C 40.04 21.89 38.91 25.44 36.64 23.41 C 34.52 21.19 38.02 19.94 39.71 19.18 C 38.91 18.79 37.29 18.01 36.48 17.62 C 35.65 18.83 34.93 20.54 33.13 19.90 C 31.57 19.06 32.32 17.39 32.46 16.02 C 30.82 16.04 29.18 16.03 27.55 16.02 Z" />
<path fill="#000000" opacity="1.00" d=" M 28.59 20.65 C 30.15 18.56 33.43 21.69 31.38 23.40 C 29.75 25.36 26.62 22.31 28.59 20.65 Z" />
<path fill="#000000" opacity="1.00" d=" M 24.54 24.57 C 26.33 22.71 29.30 25.60 27.45 27.42 C 25.67 29.31 22.71 26.38 24.54 24.57 Z" />
<path fill="#000000" opacity="1.00" d=" M 32.58 24.54 C 34.36 22.70 37.37 25.71 35.37 27.41 C 33.66 29.37 30.68 26.31 32.58 24.54 Z" />
<path fill="#000000" opacity="1.00" d=" M 20.57 28.63 C 22.22 26.56 25.46 29.79 23.36 31.39 C 21.73 33.38 18.64 30.30 20.57 28.63 Z" />
<path fill="#000000" opacity="1.00" d=" M 28.63 28.60 C 30.31 26.61 33.38 29.78 31.39 31.36 C 29.76 33.47 26.56 30.18 28.63 28.60 Z" />
<path fill="#000000" opacity="1.00" d=" M 36.52 28.60 C 38.23 26.65 41.40 29.64 39.38 31.38 C 37.76 33.38 34.72 30.41 36.52 28.60 Z" />
<path fill="#000000" opacity="1.00" d=" M 24.57 32.55 C 26.29 30.74 29.31 33.58 27.44 35.33 C 25.82 37.42 22.63 34.36 24.57 32.55 Z" />
<path fill="#000000" opacity="1.00" d=" M 32.64 32.58 C 34.30 30.61 37.42 33.81 35.36 35.39 C 33.70 37.42 30.57 34.17 32.64 32.58 Z" />
<path fill="#000000" opacity="1.00" d=" M 28.59 36.53 C 30.38 34.70 33.36 37.75 31.38 39.38 C 29.69 41.40 26.66 38.30 28.59 36.53 Z" />
</g>
</svg>
