<?xml version="1.0" encoding="UTF-8" ?>
<!DOCTYPE svg PUBLIC "-//W3C//DTD SVG 1.1//EN" "http://www.w3.org/Graphics/SVG/1.1/DTD/svg11.dtd">
<svg width="60pt" height="60pt" viewBox="0 0 60 60" version="1.1" xmlns="http://www.w3.org/2000/svg">
<g id="#ffffffff">
<path fill="#ffffff" opacity="1.00" d=" M 0.00 0.00 L 60.00 0.00 L 60.00 60.00 L 0.00 60.00 L 0.00 0.00 M 24.54 6.76 C 21.04 7.75 18.09 10.09 15.88 12.93 C 12.21 17.58 7.34 21.83 6.20 27.92 C 5.31 33.84 8.30 39.58 12.14 43.88 C 14.68 46.69 16.90 49.97 20.36 51.74 C 25.78 54.58 32.31 54.45 38.12 53.01 C 43.23 51.68 45.86 46.75 49.12 43.07 C 52.28 39.51 54.09 34.83 53.98 30.05 C 53.97 24.15 54.01 17.63 50.35 12.65 C 47.81 8.96 42.89 9.12 39.05 7.84 C 34.40 6.32 29.35 5.26 24.54 6.76 Z" />
<path fill="#ffffff" opacity="1.00" d=" M 25.35 10.58 C 31.65 8.74 37.70 12.06 43.80 13.14 C 47.93 13.77 49.05 18.48 49.53 21.97 C 50.14 28.12 51.06 35.42 46.29 40.27 C 43.06 43.54 40.87 48.65 35.88 49.48 C 30.23 50.45 23.34 50.47 19.21 45.83 C 15.39 41.54 11.01 37.05 10.10 31.14 C 9.53 26.28 13.11 22.41 16.02 19.00 C 18.84 15.93 20.96 11.63 25.35 10.58 M 28.42 20.68 C 21.58 22.98 19.78 32.99 25.42 37.50 C 30.77 42.65 40.74 39.20 41.80 31.87 C 43.55 24.55 35.31 17.66 28.42 20.68 Z" />
</g>
<g id="#000000ff">
<path fill="#968176" opacity="1.00" d=" M 24.54 6.76 C 29.35 5.26 34.40 6.32 39.05 7.84 C 42.89 9.12 47.81 8.96 50.35 12.65 C 54.01 17.63 53.97 24.15 53.98 30.05 C 54.09 34.83 52.28 39.51 49.12 43.07 C 45.86 46.75 43.23 51.68 38.12 53.01 C 32.31 54.45 25.78 54.58 20.36 51.74 C 16.90 49.97 14.68 46.69 12.14 43.88 C 8.30 39.58 5.31 33.84 6.20 27.92 C 7.34 21.83 12.21 17.58 15.88 12.93 C 18.09 10.09 21.04 7.75 24.54 6.76 M 25.35 10.58 C 20.96 11.63 18.84 15.93 16.02 19.00 C 13.11 22.41 9.53 26.28 10.10 31.14 C 11.01 37.05 15.39 41.54 19.21 45.83 C 23.34 50.47 30.23 50.45 35.88 49.48 C 40.87 48.65 43.06 43.54 46.29 40.27 C 51.06 35.42 50.14 28.12 49.53 21.97 C 49.05 18.48 47.93 13.77 43.80 13.14 C 37.70 12.06 31.65 8.74 25.35 10.58 Z" />
<path fill="#968176" opacity="1.00" d=" M 28.42 20.68 C 35.31 17.66 43.55 24.55 41.80 31.87 C 40.74 39.20 30.77 42.65 25.42 37.50 C 19.78 32.99 21.58 22.98 28.42 20.68 Z" />
</g>
</svg>
