<?xml version="1.0" encoding="UTF-8" ?>
<!DOCTYPE svg PUBLIC "-//W3C//DTD SVG 1.1//EN" "http://www.w3.org/Graphics/SVG/1.1/DTD/svg11.dtd">
<svg width="60pt" height="60pt" viewBox="0 0 60 60" version="1.1" xmlns="http://www.w3.org/2000/svg">
<g id="#ffffffff">
<path fill="#ffffff" opacity="1.00" d=" M 0.00 0.00 L 60.00 0.00 L 60.00 60.00 L 0.00 60.00 L 0.00 0.00 M 22.20 13.19 C 22.19 13.61 22.16 14.44 22.15 14.86 C 23.99 17.66 26.54 14.28 28.02 12.86 C 28.06 16.18 27.77 19.53 28.19 22.84 C 28.80 24.37 31.13 24.37 31.79 22.88 C 32.24 19.56 31.93 16.20 31.99 12.86 C 33.04 13.88 34.06 14.96 35.23 15.85 C 37.17 16.76 39.02 14.03 37.36 12.62 C 35.02 10.34 33.01 7.37 30.02 5.97 C 26.86 7.50 24.63 10.67 22.20 13.19 M 27.88 34.35 C 26.56 34.62 25.24 34.91 23.92 35.22 C 22.93 33.88 21.81 31.42 19.77 32.66 C 18.05 34.01 19.71 35.94 20.29 37.40 C 19.35 38.38 18.41 39.35 17.48 40.34 C 15.97 39.66 13.70 37.96 12.52 40.12 C 11.75 42.29 14.21 43.01 15.50 44.08 C 15.30 44.53 14.90 45.43 14.70 45.88 C 11.50 46.24 8.25 45.71 5.07 46.21 C 3.28 47.04 3.94 50.13 5.97 49.92 C 21.99 50.05 38.02 50.05 54.04 49.92 C 56.09 50.10 56.72 47.02 54.92 46.21 C 51.73 45.71 48.49 46.24 45.30 45.87 C 45.10 45.42 44.70 44.53 44.50 44.08 C 45.76 43.01 48.35 42.24 47.43 40.08 C 46.30 37.98 43.99 39.67 42.55 40.33 C 41.61 39.38 40.68 38.44 39.72 37.52 C 40.20 36.02 41.97 34.01 40.19 32.71 C 38.20 31.34 37.08 33.90 36.08 35.19 C 34.79 34.92 33.49 34.67 32.19 34.44 C 31.93 32.91 32.31 29.88 29.99 30.04 C 27.67 29.88 28.07 32.83 27.88 34.35 Z" />
<path fill="#ffffff" opacity="1.00" d=" M 18.77 45.94 C 20.70 41.49 24.97 37.87 30.01 38.03 C 35.05 37.89 39.29 41.51 41.23 45.95 C 33.75 46.03 26.26 46.04 18.77 45.94 Z" />
</g>
<g id="#000000ff">
<path fill="#968176" opacity="1.00" d=" M 22.20 13.19 C 24.63 10.67 26.86 7.50 30.02 5.97 C 33.01 7.37 35.02 10.34 37.36 12.62 C 39.02 14.03 37.17 16.76 35.23 15.85 C 34.06 14.96 33.04 13.88 31.99 12.86 C 31.93 16.20 32.24 19.56 31.79 22.88 C 31.13 24.37 28.80 24.37 28.19 22.84 C 27.77 19.53 28.06 16.18 28.02 12.86 C 26.54 14.28 23.99 17.66 22.15 14.86 C 22.16 14.44 22.19 13.61 22.20 13.19 Z" />
<path fill="#968176" opacity="1.00" d=" M 27.88 34.35 C 28.07 32.83 27.67 29.88 29.99 30.04 C 32.31 29.88 31.93 32.91 32.19 34.44 C 33.49 34.67 34.79 34.92 36.08 35.19 C 37.08 33.90 38.20 31.34 40.19 32.71 C 41.97 34.01 40.20 36.02 39.72 37.52 C 40.68 38.44 41.61 39.38 42.55 40.33 C 43.99 39.67 46.30 37.98 47.43 40.08 C 48.35 42.24 45.76 43.01 44.50 44.08 C 44.70 44.53 45.10 45.42 45.30 45.87 C 48.49 46.24 51.73 45.71 54.92 46.21 C 56.72 47.02 56.09 50.10 54.04 49.92 C 38.02 50.05 21.99 50.05 5.97 49.92 C 3.94 50.13 3.28 47.04 5.07 46.21 C 8.25 45.71 11.50 46.24 14.70 45.88 C 14.90 45.43 15.30 44.53 15.50 44.08 C 14.21 43.01 11.75 42.29 12.52 40.12 C 13.70 37.96 15.97 39.66 17.48 40.34 C 18.41 39.35 19.35 38.38 20.29 37.40 C 19.71 35.94 18.05 34.01 19.77 32.66 C 21.81 31.42 22.93 33.88 23.92 35.22 C 25.24 34.91 26.56 34.62 27.88 34.35 M 18.77 45.94 C 26.26 46.04 33.75 46.03 41.23 45.95 C 39.29 41.51 35.05 37.89 30.01 38.03 C 24.97 37.87 20.70 41.49 18.77 45.94 Z" />
</g>
</svg>
