<?xml version="1.0" encoding="UTF-8" ?>
<!DOCTYPE svg PUBLIC "-//W3C//DTD SVG 1.1//EN" "http://www.w3.org/Graphics/SVG/1.1/DTD/svg11.dtd">
<svg width="60pt" height="60pt" viewBox="0 0 60 60" version="1.1" xmlns="http://www.w3.org/2000/svg">
<g id="#ffffffff">
<path fill="#ffffff" opacity="1.00" d=" M 0.00 0.00 L 60.00 0.00 L 60.00 41.11 C 58.01 39.49 55.35 40.10 52.99 39.97 C 47.70 40.14 42.39 39.71 37.11 40.20 C 35.48 41.22 36.19 43.40 35.97 44.98 C 36.26 49.97 35.30 55.13 36.72 60.00 L 0.00 60.00 L 0.00 0.00 M 19.22 12.06 C 17.68 15.23 17.88 18.87 18.71 22.21 C 18.43 23.58 17.66 25.12 18.62 26.41 C 20.35 29.07 21.86 31.90 24.02 34.25 C 23.85 36.10 24.53 38.52 22.72 39.76 C 18.48 42.59 12.70 42.36 8.93 46.05 C 6.70 48.06 6.25 51.16 5.84 53.97 C 14.56 54.04 23.28 53.98 32.00 54.00 C 32.06 49.29 31.89 44.58 32.05 39.87 C 31.90 37.67 34.06 36.62 35.66 35.70 C 37.16 32.38 39.54 29.57 41.37 26.43 C 42.31 25.13 41.58 23.61 41.30 22.23 C 42.00 19.17 42.37 15.87 41.12 12.90 C 39.90 9.39 35.75 8.79 33.12 6.66 C 28.12 4.84 21.44 6.97 19.22 12.06 Z" />
<path fill="#ffffff" opacity="1.00" d=" M 43.84 44.12 C 46.62 43.96 49.40 43.96 52.17 44.13 C 51.62 47.61 46.93 45.53 44.47 45.89 C 44.31 45.45 44.00 44.56 43.84 44.12 Z" />
<path fill="#ffffff" opacity="1.00" d=" M 59.54 60.00 C 59.66 59.90 59.89 59.71 60.00 59.61 L 60.00 60.00 L 59.54 60.00 Z" />
</g>
<g id="#000000ff">
<path fill="#000000" opacity="1.00" d=" M 19.22 12.06 C 21.44 6.97 28.12 4.84 33.12 6.66 C 35.75 8.79 39.90 9.39 41.12 12.90 C 42.37 15.87 42.00 19.17 41.30 22.23 C 41.58 23.61 42.31 25.13 41.37 26.43 C 39.54 29.57 37.16 32.38 35.66 35.70 C 34.06 36.62 31.90 37.67 32.05 39.87 C 31.89 44.58 32.06 49.29 32.00 54.00 C 23.28 53.98 14.56 54.04 5.84 53.97 C 6.25 51.16 6.70 48.06 8.93 46.05 C 12.70 42.36 18.48 42.59 22.72 39.76 C 24.53 38.52 23.85 36.10 24.02 34.25 C 21.86 31.90 20.35 29.07 18.62 26.41 C 17.66 25.12 18.43 23.58 18.71 22.21 C 17.88 18.87 17.68 15.23 19.22 12.06 Z" />
<path fill="#000000" opacity="1.00" d=" M 37.11 40.20 C 42.39 39.71 47.70 40.14 52.99 39.97 C 55.35 40.10 58.01 39.49 60.00 41.11 L 60.00 59.61 C 59.89 59.71 59.66 59.90 59.54 60.00 L 36.72 60.00 C 35.30 55.13 36.26 49.97 35.97 44.98 C 36.19 43.40 35.48 41.22 37.11 40.20 M 43.84 44.12 C 44.00 44.56 44.31 45.45 44.47 45.89 C 46.93 45.53 51.62 47.61 52.17 44.13 C 49.40 43.96 46.62 43.96 43.84 44.12 Z" />
</g>
</svg>
