<?xml version="1.0" encoding="UTF-8" ?>
<!DOCTYPE svg PUBLIC "-//W3C//DTD SVG 1.1//EN" "http://www.w3.org/Graphics/SVG/1.1/DTD/svg11.dtd">
<svg width="64pt" height="64pt" viewBox="0 0 64 64" version="1.1" xmlns="http://www.w3.org/2000/svg">
<g id="#ffffffff">
<path fill="#ffffff" opacity="1.00" d=" M 0.00 0.00 L 64.00 0.00 L 64.00 64.00 L 0.00 64.00 L 0.00 0.00 M 37.08 6.78 C 30.00 8.95 25.24 16.40 26.02 23.75 C 20.55 29.36 14.92 34.83 9.42 40.41 C 7.38 42.37 5.99 45.09 6.08 47.97 C 5.99 52.87 10.08 57.38 14.94 57.86 C 18.14 58.29 21.35 56.93 23.55 54.64 C 29.13 49.10 34.63 43.48 40.25 37.99 C 46.96 38.58 53.91 34.84 56.56 28.55 C 59.13 23.31 57.98 17.06 54.88 12.31 C 51.39 15.79 47.88 19.26 44.40 22.75 C 43.35 21.71 42.30 20.67 41.25 19.63 C 44.72 16.12 48.21 12.63 51.69 9.12 C 47.40 6.38 42.00 5.04 37.08 6.78 Z" />
<path fill="#ffffff" opacity="1.00" d=" M 31.38 16.40 C 33.73 11.64 39.51 9.10 44.63 10.39 C 41.75 13.60 38.60 16.54 35.58 19.60 C 38.55 22.52 41.47 25.49 44.42 28.43 C 47.54 25.52 50.16 22.04 53.73 19.65 C 54.66 24.48 52.56 29.84 48.20 32.29 C 45.43 34.04 42.04 34.15 38.89 33.72 C 32.98 39.53 27.15 45.43 21.29 51.29 C 20.09 52.41 18.83 53.68 17.12 53.92 C 13.23 54.73 9.31 50.85 10.05 46.96 C 10.27 45.21 11.57 43.92 12.71 42.70 C 18.58 36.85 24.48 31.03 30.27 25.11 C 29.91 22.18 29.89 19.05 31.38 16.40 Z" />
</g>
<g id="#000000ff">
<path fill="#000000" opacity="1.00" d=" M 37.08 6.78 C 42.00 5.04 47.40 6.38 51.69 9.12 C 48.21 12.63 44.72 16.12 41.25 19.63 C 42.30 20.67 43.35 21.71 44.40 22.75 C 47.88 19.26 51.39 15.79 54.88 12.31 C 57.98 17.06 59.13 23.31 56.56 28.55 C 53.91 34.84 46.96 38.58 40.25 37.99 C 34.63 43.48 29.13 49.10 23.55 54.64 C 21.35 56.93 18.14 58.29 14.94 57.86 C 10.08 57.38 5.99 52.87 6.08 47.97 C 5.99 45.09 7.38 42.37 9.42 40.41 C 14.92 34.83 20.55 29.36 26.02 23.75 C 25.24 16.40 30.00 8.95 37.08 6.78 M 31.38 16.40 C 29.89 19.05 29.91 22.18 30.27 25.11 C 24.48 31.03 18.58 36.85 12.71 42.70 C 11.57 43.92 10.27 45.21 10.05 46.96 C 9.31 50.85 13.23 54.73 17.12 53.92 C 18.83 53.68 20.09 52.41 21.29 51.29 C 27.15 45.43 32.98 39.53 38.89 33.72 C 42.04 34.15 45.43 34.04 48.20 32.29 C 52.56 29.84 54.66 24.48 53.73 19.65 C 50.16 22.04 47.54 25.52 44.42 28.43 C 41.47 25.49 38.55 22.52 35.58 19.60 C 38.60 16.54 41.75 13.60 44.63 10.39 C 39.51 9.10 33.73 11.64 31.38 16.40 Z" />
</g>
</svg>
