<?xml version="1.0" encoding="UTF-8" ?>
<!DOCTYPE svg PUBLIC "-//W3C//DTD SVG 1.1//EN" "http://www.w3.org/Graphics/SVG/1.1/DTD/svg11.dtd">
<svg width="64pt" height="64pt" viewBox="0 0 64 64" version="1.1" xmlns="http://www.w3.org/2000/svg">
<g id="#ffffffff">
<path fill="#ffffff" opacity="1.00" d=" M 0.00 0.00 L 64.00 0.00 L 64.00 64.00 L 0.00 64.00 L 0.00 0.00 M 21.18 15.19 C 15.95 21.23 17.56 31.13 24.04 35.63 C 16.85 38.78 12.09 46.17 11.90 53.98 C 13.22 53.99 14.54 54.00 15.86 54.00 C 16.09 48.54 18.95 43.52 23.39 40.37 C 25.19 43.57 28.28 45.81 31.97 46.19 C 31.98 44.86 31.99 43.54 32.00 42.22 C 29.90 41.75 28.21 40.52 27.07 38.70 C 31.72 37.77 37.02 38.24 40.78 34.83 C 47.13 29.99 47.69 19.64 41.88 14.15 C 36.42 8.32 26.04 8.84 21.18 15.19 M 36.00 40.00 C 36.00 46.67 36.00 53.33 36.00 60.00 C 44.00 60.00 52.00 60.00 60.00 60.00 C 60.00 53.33 60.00 46.67 60.00 40.00 C 52.00 40.00 44.00 40.00 36.00 40.00 Z" />
<path fill="#ffffff" opacity="1.00" d=" M 28.38 14.69 C 34.98 11.80 43.01 17.93 41.91 25.06 C 41.49 32.54 31.64 36.74 25.92 31.92 C 19.79 27.65 21.30 17.07 28.38 14.69 Z" />
<path fill="#ffffff" opacity="1.00" d=" M 40.00 44.00 C 42.00 44.00 44.00 44.00 46.00 44.00 C 46.00 45.33 46.00 46.67 46.00 48.00 C 47.33 48.00 48.67 48.00 50.00 48.00 C 50.00 46.67 50.00 45.33 50.00 44.00 C 52.00 44.00 54.00 44.00 56.00 44.00 C 56.00 48.00 56.00 52.00 56.00 56.00 C 50.67 56.00 45.33 56.00 40.00 56.00 C 40.00 52.00 40.00 48.00 40.00 44.00 Z" />
</g>
<g id="#000000ff">
<path fill="#000000" opacity="1.00" d=" M 21.18 15.19 C 26.04 8.84 36.42 8.32 41.88 14.15 C 47.69 19.64 47.13 29.99 40.78 34.83 C 37.02 38.24 31.72 37.77 27.07 38.70 C 28.21 40.52 29.90 41.75 32.00 42.22 C 31.99 43.54 31.98 44.86 31.97 46.19 C 28.28 45.81 25.19 43.57 23.39 40.37 C 18.95 43.52 16.09 48.54 15.86 54.00 C 14.54 54.00 13.22 53.99 11.90 53.98 C 12.09 46.17 16.85 38.78 24.04 35.63 C 17.56 31.13 15.95 21.23 21.18 15.19 M 28.38 14.69 C 21.30 17.07 19.79 27.65 25.92 31.92 C 31.64 36.74 41.49 32.54 41.91 25.06 C 43.01 17.93 34.98 11.80 28.38 14.69 Z" />
<path fill="#000000" opacity="1.00" d=" M 36.00 40.00 C 44.00 40.00 52.00 40.00 60.00 40.00 C 60.00 46.67 60.00 53.33 60.00 60.00 C 52.00 60.00 44.00 60.00 36.00 60.00 C 36.00 53.33 36.00 46.67 36.00 40.00 M 40.00 44.00 C 40.00 48.00 40.00 52.00 40.00 56.00 C 45.33 56.00 50.67 56.00 56.00 56.00 C 56.00 52.00 56.00 48.00 56.00 44.00 C 54.00 44.00 52.00 44.00 50.00 44.00 C 50.00 45.33 50.00 46.67 50.00 48.00 C 48.67 48.00 47.33 48.00 46.00 48.00 C 46.00 46.67 46.00 45.33 46.00 44.00 C 44.00 44.00 42.00 44.00 40.00 44.00 Z" />
</g>
</svg>
