<?xml version="1.0" encoding="UTF-8" ?>
<!DOCTYPE svg PUBLIC "-//W3C//DTD SVG 1.1//EN" "http://www.w3.org/Graphics/SVG/1.1/DTD/svg11.dtd">
<svg width="60pt" height="60pt" viewBox="0 0 60 60" version="1.1" xmlns="http://www.w3.org/2000/svg">
<g id="#ffffffff">
<path fill="#ffffff" opacity="1.00" d=" M 0.00 0.00 L 60.00 0.00 L 60.00 60.00 L 0.00 60.00 L 0.00 0.00 M 18.91 8.04 C 15.43 9.36 13.21 12.53 12.00 15.93 C 13.37 15.96 14.74 15.98 16.11 15.99 C 18.75 10.95 24.88 9.94 30.04 10.01 C 35.17 9.96 41.34 10.91 43.91 15.99 C 45.27 15.98 46.63 15.96 47.99 15.93 C 46.64 11.61 43.15 8.19 38.72 7.14 C 32.27 5.52 25.13 5.47 18.91 8.04 M 9.31 20.49 C 7.31 21.46 7.19 23.91 6.83 25.82 C 5.81 32.93 5.35 40.43 7.78 47.32 C 8.61 49.53 10.12 52.38 12.93 51.99 C 24.31 52.01 35.69 52.01 47.06 51.99 C 49.89 52.38 51.40 49.50 52.23 47.28 C 54.80 39.80 54.18 31.66 52.83 24.00 C 52.68 21.99 51.15 20.02 48.99 20.09 C 37.67 19.85 26.34 20.11 15.01 19.97 C 13.12 20.06 11.12 19.79 9.31 20.49 Z" />
<path fill="#ffffff" opacity="1.00" d=" M 26.42 24.57 C 32.75 22.38 40.18 26.61 41.62 33.12 C 43.54 39.94 38.13 47.53 31.06 47.91 C 24.75 48.64 18.51 43.48 18.09 37.13 C 17.44 31.65 21.15 26.14 26.42 24.57 M 27.94 33.94 C 25.90 34.28 22.48 33.13 21.91 35.97 C 22.40 38.87 25.89 37.73 27.94 38.06 C 28.10 40.20 27.27 44.68 30.80 43.90 C 32.71 42.61 31.70 39.99 32.06 38.07 C 34.21 37.93 38.71 38.70 37.89 35.15 C 36.55 33.32 33.98 34.28 32.05 33.93 C 31.74 32.00 32.68 29.46 30.88 28.08 C 27.28 27.21 28.06 31.76 27.94 33.94 Z" />
</g>
<g id="#000000ff">
<path fill="#000000" opacity="1.00" d=" M 18.91 8.04 C 25.13 5.47 32.27 5.52 38.72 7.14 C 43.15 8.19 46.64 11.61 47.99 15.93 C 46.63 15.96 45.27 15.98 43.91 15.99 C 41.34 10.91 35.17 9.96 30.04 10.01 C 24.88 9.94 18.75 10.95 16.11 15.99 C 14.74 15.98 13.37 15.96 12.00 15.93 C 13.21 12.53 15.43 9.36 18.91 8.04 Z" />
<path fill="#000000" opacity="1.00" d=" M 9.31 20.49 C 11.12 19.79 13.12 20.06 15.01 19.97 C 26.34 20.11 37.67 19.85 48.99 20.09 C 51.15 20.02 52.68 21.99 52.83 24.00 C 54.18 31.66 54.80 39.80 52.23 47.28 C 51.40 49.50 49.89 52.38 47.06 51.99 C 35.69 52.01 24.31 52.01 12.93 51.99 C 10.12 52.38 8.61 49.53 7.78 47.32 C 5.35 40.43 5.81 32.93 6.83 25.82 C 7.19 23.91 7.31 21.46 9.31 20.49 M 26.42 24.57 C 21.15 26.14 17.44 31.65 18.09 37.13 C 18.51 43.48 24.75 48.64 31.06 47.91 C 38.13 47.53 43.54 39.94 41.62 33.12 C 40.18 26.61 32.75 22.38 26.42 24.57 Z" />
<path fill="#000000" opacity="1.00" d=" M 27.94 33.94 C 28.06 31.76 27.28 27.21 30.88 28.08 C 32.68 29.46 31.74 32.00 32.05 33.93 C 33.98 34.28 36.55 33.32 37.89 35.15 C 38.71 38.70 34.21 37.93 32.06 38.07 C 31.70 39.99 32.71 42.61 30.80 43.90 C 27.27 44.68 28.10 40.20 27.94 38.06 C 25.89 37.73 22.40 38.87 21.91 35.97 C 22.48 33.13 25.90 34.28 27.94 33.94 Z" />
</g>
</svg>
