<?xml version="1.0" encoding="UTF-8" ?>
<!DOCTYPE svg PUBLIC "-//W3C//DTD SVG 1.1//EN" "http://www.w3.org/Graphics/SVG/1.1/DTD/svg11.dtd">
<svg width="60pt" height="60pt" viewBox="0 0 60 60" version="1.1" xmlns="http://www.w3.org/2000/svg">
<g id="#ffffffff">
<path fill="#ffffff" opacity="1.00" d=" M 0.00 0.00 L 60.00 0.00 L 60.00 20.50 C 59.53 18.58 57.34 17.40 55.55 18.38 C 49.03 20.77 42.55 23.30 36.05 25.74 C 35.88 23.29 36.46 20.39 34.60 18.42 C 31.70 15.26 27.21 14.24 23.07 14.04 C 18.47 13.90 13.42 14.68 9.90 17.88 C 7.32 20.06 8.15 23.73 7.89 26.69 C 5.22 28.06 2.52 29.39 0.00 31.03 L 0.00 0.00 M 33.93 12.68 C 35.51 13.84 37.00 15.12 38.40 16.49 C 43.23 13.88 48.41 11.91 53.11 9.09 C 55.44 7.12 52.81 2.94 50.04 4.21 C 44.59 6.86 39.37 9.99 33.93 12.68 Z" />
<path fill="#ffffff" opacity="1.00" d=" M 19.15 18.20 C 23.49 17.77 28.61 18.00 31.87 21.29 C 32.40 23.27 30.16 24.15 28.72 24.82 C 24.20 26.46 18.98 26.43 14.55 24.51 C 13.36 23.89 11.50 22.91 12.18 21.25 C 13.93 19.27 16.64 18.59 19.15 18.20 M 19.36 21.94 C 20.50 24.00 23.46 23.37 24.90 22.01 C 23.43 20.62 20.70 20.07 19.36 21.94 Z" />
<path fill="#ffffff" opacity="1.00" d=" M 54.79 24.92 C 56.68 24.28 58.75 23.74 60.00 22.05 L 60.00 60.00 L 0.00 60.00 L 0.00 33.02 C 0.50 33.30 1.49 33.87 1.98 34.15 C 4.00 33.24 6.00 32.27 7.99 31.32 C 8.00 32.98 8.01 34.64 8.02 36.30 C 6.04 37.20 3.72 37.62 2.09 39.14 C 1.48 40.77 3.08 42.56 4.75 41.80 C 21.46 36.28 38.10 30.52 54.79 24.92 M 8.75 44.73 C 11.52 48.57 16.50 49.77 20.98 49.97 C 25.56 50.06 30.61 49.32 34.10 46.09 C 37.04 43.33 35.71 38.96 35.99 35.42 C 26.93 38.56 17.82 41.59 8.75 44.73 Z" />
</g>
<g id="#000000ff">
<path fill="#000000" opacity="1.00" d=" M 33.93 12.68 C 39.37 9.99 44.59 6.86 50.04 4.21 C 52.81 2.94 55.44 7.12 53.11 9.09 C 48.41 11.91 43.23 13.88 38.40 16.49 C 37.00 15.12 35.51 13.84 33.93 12.68 Z" />
<path fill="#000000" opacity="1.00" d=" M 9.90 17.88 C 13.42 14.68 18.47 13.90 23.07 14.04 C 27.21 14.24 31.70 15.26 34.60 18.42 C 36.46 20.39 35.88 23.29 36.05 25.74 C 42.55 23.30 49.03 20.77 55.55 18.38 C 57.34 17.40 59.53 18.58 60.00 20.50 L 60.00 22.05 C 58.75 23.74 56.68 24.28 54.79 24.92 C 38.10 30.52 21.46 36.28 4.75 41.80 C 3.08 42.56 1.48 40.77 2.09 39.14 C 3.72 37.62 6.04 37.20 8.02 36.30 C 8.01 34.64 8.00 32.98 7.99 31.32 C 6.00 32.27 4.00 33.24 1.98 34.15 C 1.49 33.87 0.50 33.30 0.00 33.02 L 0.00 31.03 C 2.52 29.39 5.22 28.06 7.89 26.69 C 8.15 23.73 7.32 20.06 9.90 17.88 M 19.15 18.20 C 16.64 18.59 13.93 19.27 12.18 21.25 C 11.50 22.91 13.36 23.89 14.55 24.51 C 18.98 26.43 24.20 26.46 28.72 24.82 C 30.16 24.15 32.40 23.27 31.87 21.29 C 28.61 18.00 23.49 17.77 19.15 18.20 Z" />
<path fill="#000000" opacity="1.00" d=" M 19.36 21.94 C 20.70 20.07 23.43 20.62 24.90 22.01 C 23.46 23.37 20.50 24.00 19.36 21.94 Z" />
<path fill="#000000" opacity="1.00" d=" M 8.75 44.73 C 17.82 41.59 26.93 38.56 35.99 35.42 C 35.71 38.96 37.04 43.33 34.10 46.09 C 30.61 49.32 25.56 50.06 20.98 49.97 C 16.50 49.77 11.52 48.57 8.75 44.73 Z" />
</g>
</svg>
