<?xml version="1.0" encoding="UTF-8" ?>
<!DOCTYPE svg PUBLIC "-//W3C//DTD SVG 1.1//EN" "http://www.w3.org/Graphics/SVG/1.1/DTD/svg11.dtd">
<svg width="64pt" height="64pt" viewBox="0 0 64 64" version="1.1" xmlns="http://www.w3.org/2000/svg">
<g id="#ffffffff">
<path fill="#ffffff" opacity="1.00" d=" M 0.00 0.00 L 64.00 0.00 L 64.00 64.00 L 0.00 64.00 L 0.00 0.00 M 18.59 17.81 C 10.97 17.80 3.82 24.17 4.04 31.99 C 3.72 40.93 13.36 48.21 21.88 45.44 C 28.83 43.36 32.10 36.36 35.74 30.74 C 38.23 26.66 41.78 22.30 46.96 22.06 C 52.24 21.40 57.48 25.60 57.91 30.92 C 58.52 34.85 56.17 38.41 53.21 40.76 C 53.87 38.92 54.73 36.57 53.14 34.93 C 50.78 32.96 47.86 31.78 45.30 30.09 C 44.96 30.60 44.29 31.61 43.95 32.12 C 42.80 31.46 41.65 30.80 40.51 30.14 C 39.85 31.33 39.22 32.54 38.55 33.73 C 39.70 34.33 40.84 34.93 41.98 35.53 C 41.39 36.60 40.79 37.66 40.22 38.74 C 39.06 38.07 37.90 37.40 36.73 36.73 C 36.07 37.89 35.40 39.04 34.73 40.19 C 35.88 40.85 37.02 41.51 38.16 42.18 C 37.93 42.62 37.45 43.50 37.22 43.94 C 39.82 45.37 42.29 47.06 45.01 48.29 C 48.09 49.42 49.28 45.66 51.96 45.31 C 59.87 43.35 64.30 33.61 60.74 26.31 C 57.64 18.80 47.64 15.74 40.72 19.84 C 32.42 24.32 30.64 34.84 23.40 40.38 C 17.85 44.34 9.14 40.58 8.19 33.83 C 7.03 28.58 10.81 23.68 15.61 21.99 C 13.66 27.91 20.67 29.42 24.27 31.93 C 26.94 27.31 29.60 22.69 32.26 18.08 C 29.51 16.59 26.97 14.64 24.00 13.62 C 21.22 13.03 19.60 15.70 18.59 17.81 Z" />
<path fill="#ffffff" opacity="1.00" d=" M 19.34 24.45 C 20.67 22.14 22.01 19.84 23.35 17.53 C 24.50 18.20 25.65 18.87 26.80 19.54 C 25.47 21.85 24.13 24.16 22.80 26.47 C 21.65 25.79 20.49 25.12 19.34 24.45 Z" />
<path fill="#ffffff" opacity="1.00" d=" M 42.67 42.48 C 43.98 40.16 45.32 37.85 46.66 35.55 C 47.80 36.19 48.94 36.82 50.08 37.46 C 48.83 39.83 47.48 42.15 46.12 44.46 C 44.97 43.79 43.82 43.13 42.67 42.48 Z" />
</g>
<g id="#000000ff">
<path fill="#000000" opacity="1.00" d=" M 18.59 17.81 C 19.60 15.70 21.22 13.03 24.00 13.62 C 26.97 14.64 29.51 16.59 32.26 18.08 C 29.60 22.69 26.94 27.31 24.27 31.93 C 20.67 29.42 13.66 27.91 15.61 21.99 C 10.81 23.68 7.03 28.58 8.19 33.83 C 9.14 40.58 17.85 44.34 23.40 40.38 C 30.64 34.84 32.42 24.32 40.72 19.84 C 47.64 15.74 57.64 18.80 60.74 26.31 C 64.30 33.61 59.87 43.35 51.96 45.31 C 49.28 45.66 48.09 49.42 45.01 48.29 C 42.29 47.06 39.82 45.37 37.22 43.94 C 37.45 43.50 37.93 42.62 38.16 42.18 C 37.02 41.51 35.88 40.85 34.73 40.19 C 35.40 39.04 36.07 37.89 36.73 36.73 C 37.90 37.40 39.06 38.07 40.22 38.74 C 40.79 37.66 41.39 36.60 41.98 35.53 C 40.84 34.93 39.70 34.33 38.55 33.73 C 39.22 32.54 39.85 31.33 40.51 30.14 C 41.65 30.80 42.80 31.46 43.95 32.12 C 44.29 31.61 44.96 30.60 45.30 30.09 C 47.86 31.78 50.78 32.96 53.14 34.93 C 54.73 36.57 53.87 38.92 53.21 40.76 C 56.17 38.41 58.52 34.85 57.91 30.92 C 57.48 25.60 52.24 21.40 46.96 22.06 C 41.78 22.30 38.23 26.66 35.74 30.74 C 32.10 36.36 28.83 43.36 21.88 45.44 C 13.36 48.21 3.72 40.93 4.04 31.99 C 3.82 24.17 10.97 17.80 18.59 17.81 M 19.34 24.45 C 20.49 25.12 21.65 25.79 22.80 26.47 C 24.13 24.16 25.47 21.85 26.80 19.54 C 25.65 18.87 24.50 18.20 23.35 17.53 C 22.01 19.84 20.67 22.14 19.34 24.45 M 42.67 42.48 C 43.82 43.13 44.97 43.79 46.12 44.46 C 47.48 42.15 48.83 39.83 50.08 37.46 C 48.94 36.82 47.80 36.19 46.66 35.55 C 45.32 37.85 43.98 40.16 42.67 42.48 Z" />
</g>
</svg>
