<?xml version="1.0" encoding="UTF-8" ?>
<!DOCTYPE svg PUBLIC "-//W3C//DTD SVG 1.1//EN" "http://www.w3.org/Graphics/SVG/1.1/DTD/svg11.dtd">
<svg width="60pt" height="60pt" viewBox="0 0 60 60" version="1.1" xmlns="http://www.w3.org/2000/svg">
<g id="#ffffffff">
<path fill="#ffffff" opacity="1.00" d=" M 0.00 0.00 L 60.00 0.00 L 60.00 29.33 C 59.74 20.05 49.33 13.38 40.77 16.88 C 31.29 20.34 28.61 31.26 21.41 37.36 C 16.87 41.34 8.89 40.77 5.63 35.45 C 2.28 30.60 4.42 23.16 9.88 20.90 C 13.26 19.22 17.09 20.26 20.26 21.87 C 19.22 25.03 21.62 27.10 23.98 28.66 C 25.95 25.94 27.93 23.21 29.88 20.48 C 27.81 18.87 25.42 17.36 22.75 18.60 C 19.39 16.93 15.67 15.47 11.84 16.21 C 5.44 17.07 0.37 22.86 0.00 29.26 L 0.00 0.00 Z" />
<path fill="#ffffff" opacity="1.00" d=" M 31.02 32.06 C 34.47 27.07 38.12 20.57 44.90 20.07 C 51.31 19.14 57.26 25.55 55.80 31.88 C 54.95 37.19 49.58 40.47 44.43 40.07 C 44.48 37.99 45.07 35.42 42.96 34.11 C 40.96 32.65 38.93 29.96 36.28 30.28 C 33.85 31.59 35.98 34.01 37.39 35.10 C 36.67 36.05 35.96 36.99 35.24 37.94 C 33.50 36.50 29.99 35.61 30.23 39.05 C 32.46 41.28 34.92 43.56 37.96 44.55 C 39.83 44.17 41.62 42.89 43.58 43.55 C 51.53 45.61 59.66 38.71 60.00 30.73 L 60.00 60.00 L 0.00 60.00 L 0.00 30.65 C 0.30 38.27 7.44 44.66 15.06 43.95 C 22.31 43.67 27.41 37.73 31.02 32.06 Z" />
</g>
<g id="#000000ff">
<path fill="#000000" opacity="1.00" d=" M 0.00 29.26 C 0.37 22.86 5.44 17.07 11.84 16.21 C 15.67 15.47 19.39 16.93 22.75 18.60 C 25.42 17.36 27.81 18.87 29.88 20.48 C 27.93 23.21 25.95 25.94 23.98 28.66 C 21.62 27.10 19.22 25.03 20.26 21.87 C 17.09 20.26 13.26 19.22 9.88 20.90 C 4.42 23.16 2.28 30.60 5.63 35.45 C 8.89 40.77 16.87 41.34 21.41 37.36 C 28.61 31.26 31.29 20.34 40.77 16.88 C 49.33 13.38 59.74 20.05 60.00 29.33 L 60.00 30.73 C 59.66 38.71 51.53 45.61 43.58 43.55 C 41.62 42.89 39.83 44.17 37.96 44.55 C 34.92 43.56 32.46 41.28 30.23 39.05 C 29.99 35.61 33.50 36.50 35.24 37.94 C 35.96 36.99 36.67 36.05 37.39 35.10 C 35.98 34.01 33.85 31.59 36.28 30.28 C 38.93 29.96 40.96 32.65 42.96 34.11 C 45.07 35.42 44.48 37.99 44.43 40.07 C 49.58 40.47 54.95 37.19 55.80 31.88 C 57.26 25.55 51.31 19.14 44.90 20.07 C 38.12 20.57 34.47 27.07 31.02 32.06 C 27.41 37.73 22.31 43.67 15.06 43.95 C 7.44 44.66 0.30 38.27 0.00 30.65 L 0.00 29.26 Z" />
</g>
</svg>
