<?xml version="1.0" encoding="UTF-8" ?>
<!DOCTYPE svg PUBLIC "-//W3C//DTD SVG 1.1//EN" "http://www.w3.org/Graphics/SVG/1.1/DTD/svg11.dtd">
<svg width="64pt" height="64pt" viewBox="0 0 64 64" version="1.1" xmlns="http://www.w3.org/2000/svg">
<g id="#ffffffff">
<path fill="#ffffff" opacity="1.00" d=" M 0.00 0.00 L 64.00 0.00 L 64.00 64.00 L 0.00 64.00 L 0.00 0.00 M 47.91 6.86 C 45.66 6.60 43.04 6.55 41.45 8.46 C 37.88 12.70 34.90 17.48 32.59 22.52 C 31.48 24.81 32.82 27.13 33.99 29.07 C 31.38 35.87 29.90 43.06 29.82 50.35 C 27.45 45.64 25.37 40.76 23.95 35.66 C 28.26 32.11 25.63 26.55 25.51 21.92 C 25.15 17.60 26.80 12.08 22.33 9.34 C 22.53 8.49 22.92 6.80 23.11 5.96 C 21.83 5.59 20.54 5.23 19.25 4.88 C 18.97 6.14 18.69 7.41 18.42 8.68 C 16.15 9.87 13.71 11.59 13.59 14.42 C 13.13 20.35 13.56 26.37 14.86 32.17 C 15.38 34.68 17.85 35.80 19.99 36.63 C 21.05 39.81 22.16 42.98 23.37 46.10 C 19.49 44.41 16.11 41.84 13.33 38.66 C 12.28 37.28 9.74 38.31 10.08 40.07 C 10.71 45.41 13.08 50.39 15.93 54.89 C 12.55 55.85 8.95 55.52 5.94 53.66 C 5.96 55.06 6.02 56.46 6.11 57.86 C 9.83 59.93 14.34 59.97 18.00 57.73 C 21.69 59.97 26.30 59.98 29.99 57.74 C 33.69 59.97 38.30 59.98 41.99 57.73 C 45.65 59.97 50.16 59.92 53.88 57.88 C 53.98 56.47 54.04 55.06 54.06 53.65 C 51.03 55.53 47.39 55.89 44.00 54.81 C 45.80 48.96 49.69 44.16 53.36 39.39 C 54.67 38.26 53.74 35.79 51.96 36.05 C 44.46 37.68 38.13 42.76 33.82 48.99 C 34.07 42.74 35.47 36.60 37.70 30.76 C 43.23 30.59 44.48 24.71 47.11 21.00 C 49.42 17.59 53.05 13.96 51.02 9.49 C 51.81 8.63 52.60 7.76 53.40 6.91 C 52.47 5.97 51.53 5.03 50.60 4.09 C 49.70 5.02 48.81 5.94 47.91 6.86 Z" />
<path fill="#ffffff" opacity="1.00" d=" M 44.34 11.29 C 45.79 9.29 48.91 12.09 47.22 13.78 C 44.39 17.58 42.03 21.67 39.65 25.74 C 38.74 27.62 35.60 26.05 36.27 24.19 C 38.30 19.54 41.08 15.17 44.34 11.29 Z" />
<path fill="#ffffff" opacity="1.00" d=" M 18.34 13.42 C 19.29 12.07 21.96 13.30 21.46 15.00 C 21.26 20.05 21.64 25.08 22.46 30.06 C 23.27 32.28 19.41 33.56 18.81 31.23 C 17.65 26.95 17.45 22.45 17.40 18.03 C 17.60 16.52 17.07 14.56 18.34 13.42 Z" />
<path fill="#ffffff" opacity="1.00" d=" M 34.26 55.52 C 36.94 50.73 40.73 46.65 45.18 43.47 C 42.91 46.98 40.71 50.63 39.91 54.80 C 38.06 55.21 36.16 55.43 34.26 55.52 Z" />
<path fill="#ffffff" opacity="1.00" d=" M 15.90 46.63 C 18.99 48.51 22.27 50.05 25.73 51.08 C 26.42 52.35 27.10 53.62 27.77 54.90 C 26.18 55.15 24.59 55.57 22.96 55.44 C 19.46 53.66 17.62 49.97 15.90 46.63 Z" />
</g>
<g id="#000000ff">
<path fill="#000000" opacity="1.00" d=" M 47.91 6.86 C 48.81 5.94 49.70 5.02 50.60 4.09 C 51.53 5.03 52.47 5.97 53.40 6.91 C 52.60 7.76 51.81 8.63 51.02 9.49 C 53.05 13.96 49.42 17.59 47.11 21.00 C 44.48 24.71 43.23 30.59 37.70 30.76 C 35.47 36.60 34.07 42.74 33.82 48.99 C 38.13 42.76 44.46 37.68 51.96 36.05 C 53.74 35.79 54.67 38.26 53.36 39.39 C 49.69 44.16 45.80 48.96 44.00 54.81 C 47.39 55.89 51.03 55.53 54.06 53.65 C 54.04 55.06 53.98 56.47 53.88 57.88 C 50.16 59.92 45.65 59.97 41.99 57.73 C 38.30 59.98 33.69 59.97 29.99 57.74 C 26.30 59.98 21.69 59.97 18.00 57.73 C 14.34 59.97 9.83 59.93 6.11 57.86 C 6.02 56.46 5.96 55.06 5.94 53.66 C 8.95 55.52 12.55 55.85 15.93 54.89 C 13.08 50.39 10.71 45.41 10.08 40.07 C 9.74 38.31 12.28 37.28 13.33 38.66 C 16.11 41.84 19.49 44.41 23.37 46.10 C 22.16 42.98 21.05 39.81 19.99 36.63 C 17.85 35.80 15.38 34.68 14.86 32.17 C 13.56 26.37 13.13 20.35 13.59 14.42 C 13.71 11.59 16.15 9.87 18.42 8.68 C 18.69 7.41 18.97 6.14 19.25 4.88 C 20.54 5.23 21.83 5.59 23.11 5.96 C 22.92 6.80 22.53 8.49 22.33 9.34 C 26.80 12.08 25.15 17.60 25.51 21.92 C 25.63 26.55 28.26 32.11 23.95 35.66 C 25.37 40.76 27.45 45.64 29.82 50.35 C 29.90 43.06 31.38 35.87 33.99 29.07 C 32.82 27.13 31.48 24.81 32.59 22.52 C 34.90 17.48 37.88 12.70 41.45 8.46 C 43.04 6.55 45.66 6.60 47.91 6.86 M 44.34 11.29 C 41.08 15.17 38.30 19.54 36.27 24.19 C 35.60 26.05 38.74 27.62 39.65 25.74 C 42.03 21.67 44.39 17.58 47.22 13.78 C 48.91 12.09 45.79 9.29 44.34 11.29 M 18.34 13.42 C 17.07 14.56 17.60 16.52 17.40 18.03 C 17.45 22.45 17.65 26.95 18.81 31.23 C 19.41 33.56 23.27 32.28 22.46 30.06 C 21.64 25.08 21.26 20.05 21.46 15.00 C 21.96 13.30 19.29 12.07 18.34 13.42 M 34.26 55.52 C 36.16 55.43 38.06 55.21 39.91 54.80 C 40.71 50.63 42.91 46.98 45.18 43.47 C 40.73 46.65 36.94 50.73 34.26 55.52 M 15.90 46.63 C 17.62 49.97 19.46 53.66 22.96 55.44 C 24.59 55.57 26.18 55.15 27.77 54.90 C 27.10 53.62 26.42 52.35 25.73 51.08 C 22.27 50.05 18.99 48.51 15.90 46.63 Z" />
</g>
</svg>
