<?xml version="1.0" encoding="UTF-8" ?>
<!DOCTYPE svg PUBLIC "-//W3C//DTD SVG 1.1//EN" "http://www.w3.org/Graphics/SVG/1.1/DTD/svg11.dtd">
<svg width="60pt" height="60pt" viewBox="0 0 60 60" version="1.1" xmlns="http://www.w3.org/2000/svg">
<g id="#ffffffff">
<path fill="#ffffff" opacity="1.00" d=" M 0.00 0.00 L 60.00 0.00 L 60.00 60.00 L 0.00 60.00 L 0.00 0.00 M 24.45 6.65 C 16.86 8.42 10.33 14.12 7.59 21.42 C 4.66 28.93 5.87 37.89 10.76 44.32 C 15.80 51.19 24.67 54.99 33.13 53.78 C 42.26 52.71 50.32 45.84 52.93 37.04 C 55.73 28.29 52.87 18.10 45.94 12.07 C 40.23 6.89 31.93 4.85 24.45 6.65 Z" />
<path fill="#ffffff" opacity="1.00" d=" M 20.00 18.74 C 20.92 18.73 22.75 18.73 23.67 18.73 C 23.68 22.40 23.66 26.07 23.70 29.74 C 26.20 27.00 28.24 22.72 32.76 23.98 C 31.02 26.03 29.23 28.03 27.44 30.04 C 29.33 32.69 31.23 35.34 33.12 37.99 C 31.66 37.99 30.21 38.00 28.76 38.01 C 27.34 35.89 25.83 33.81 23.97 32.05 C 23.78 34.03 23.68 36.02 23.60 38.01 C 22.40 38.00 21.20 38.00 20.00 38.00 C 20.00 31.58 20.00 25.16 20.00 18.74 Z" />
<path fill="#ffffff" opacity="1.00" d=" M 36.00 24.06 C 36.91 24.06 38.73 24.07 39.64 24.07 C 39.56 24.61 39.41 25.68 39.34 26.22 C 40.73 24.66 42.55 23.62 44.71 23.74 C 44.72 24.58 44.74 26.26 44.75 27.10 C 43.07 27.29 40.56 26.99 39.91 29.07 C 39.45 32.02 39.72 35.02 39.69 37.99 C 38.46 37.99 37.23 38.00 36.00 38.01 C 36.00 33.36 36.00 28.71 36.00 24.06 Z" />
</g>
<g id="#000000ff">
<path fill="#000000" opacity="1.00" d=" M 24.45 6.65 C 31.93 4.85 40.23 6.89 45.94 12.07 C 52.87 18.10 55.73 28.29 52.93 37.04 C 50.32 45.84 42.26 52.71 33.13 53.78 C 24.67 54.99 15.80 51.19 10.76 44.32 C 5.87 37.89 4.66 28.93 7.59 21.42 C 10.33 14.12 16.86 8.42 24.45 6.65 M 20.00 18.74 C 20.00 25.16 20.00 31.58 20.00 38.00 C 21.20 38.00 22.40 38.00 23.60 38.01 C 23.68 36.02 23.78 34.03 23.97 32.05 C 25.83 33.81 27.34 35.89 28.76 38.01 C 30.21 38.00 31.66 37.99 33.12 37.99 C 31.23 35.34 29.33 32.69 27.44 30.04 C 29.23 28.03 31.02 26.03 32.76 23.98 C 28.24 22.72 26.20 27.00 23.70 29.74 C 23.66 26.07 23.68 22.40 23.67 18.73 C 22.75 18.73 20.92 18.73 20.00 18.74 M 36.00 24.06 C 36.00 28.71 36.00 33.36 36.00 38.01 C 37.23 38.00 38.46 37.99 39.69 37.99 C 39.72 35.02 39.45 32.02 39.91 29.07 C 40.56 26.99 43.07 27.29 44.75 27.10 C 44.74 26.26 44.72 24.58 44.71 23.74 C 42.55 23.62 40.73 24.66 39.34 26.22 C 39.41 25.68 39.56 24.61 39.64 24.07 C 38.73 24.07 36.91 24.06 36.00 24.06 Z" />
</g>
</svg>
