<?xml version="1.0" encoding="UTF-8" ?>
<!DOCTYPE svg PUBLIC "-//W3C//DTD SVG 1.1//EN" "http://www.w3.org/Graphics/SVG/1.1/DTD/svg11.dtd">
<svg width="60pt" height="60pt" viewBox="0 0 60 60" version="1.1" xmlns="http://www.w3.org/2000/svg">
<g id="#ffffffff">
<path fill="#ffffff" opacity="1.00" d=" M 0.00 0.00 L 60.00 0.00 L 60.00 60.00 L 0.00 60.00 L 0.00 0.00 M 10.32 8.40 C 8.60 9.17 7.82 11.11 8.00 12.91 C 8.03 24.63 7.93 36.37 8.05 48.10 C 7.94 50.60 10.54 52.31 12.85 52.00 C 24.27 52.00 35.69 52.00 47.11 52.00 C 49.45 52.34 52.00 50.58 51.95 48.10 C 52.07 36.37 51.97 24.63 52.00 12.90 C 52.32 10.55 50.60 7.92 48.06 8.04 C 37.03 7.92 25.99 8.06 14.96 7.98 C 13.42 8.08 11.77 7.77 10.32 8.40 Z" />
<path fill="#ffffff" opacity="1.00" d=" M 33.05 12.71 C 39.91 17.45 46.08 26.14 43.00 34.78 C 44.91 37.45 46.30 40.49 46.08 43.86 C 44.28 42.60 42.48 40.45 40.02 41.13 C 37.05 42.05 34.33 43.91 31.13 43.95 C 23.27 44.44 15.77 39.74 11.75 33.16 C 17.53 36.56 24.85 39.54 31.20 35.70 C 25.04 30.56 19.53 24.60 14.86 18.09 C 19.47 21.50 23.84 25.24 28.73 28.28 C 25.24 24.40 22.03 20.26 19.15 15.91 C 24.88 20.72 30.51 25.67 36.53 30.13 C 38.88 24.07 36.38 17.82 33.05 12.71 Z" />
</g>
<g id="#000000ff">
<path fill="#000000" opacity="1.00" d=" M 10.32 8.40 C 11.77 7.77 13.42 8.08 14.96 7.98 C 25.99 8.06 37.03 7.92 48.06 8.04 C 50.60 7.92 52.32 10.55 52.00 12.90 C 51.97 24.63 52.07 36.37 51.95 48.10 C 52.00 50.58 49.45 52.34 47.11 52.00 C 35.69 52.00 24.27 52.00 12.85 52.00 C 10.54 52.31 7.94 50.60 8.05 48.10 C 7.93 36.37 8.03 24.63 8.00 12.91 C 7.82 11.11 8.60 9.17 10.32 8.40 M 33.05 12.71 C 36.38 17.82 38.88 24.07 36.53 30.13 C 30.51 25.67 24.88 20.72 19.15 15.91 C 22.03 20.26 25.24 24.40 28.73 28.28 C 23.84 25.24 19.47 21.50 14.86 18.09 C 19.53 24.60 25.04 30.56 31.20 35.70 C 24.85 39.54 17.53 36.56 11.75 33.16 C 15.77 39.74 23.27 44.44 31.13 43.95 C 34.33 43.91 37.05 42.05 40.02 41.13 C 42.48 40.45 44.28 42.60 46.08 43.86 C 46.30 40.49 44.91 37.45 43.00 34.78 C 46.08 26.14 39.91 17.45 33.05 12.71 Z" />
</g>
</svg>
