<?xml version="1.0" encoding="UTF-8" ?>
<!DOCTYPE svg PUBLIC "-//W3C//DTD SVG 1.1//EN" "http://www.w3.org/Graphics/SVG/1.1/DTD/svg11.dtd">
<svg width="64pt" height="64pt" viewBox="0 0 64 64" version="1.1" xmlns="http://www.w3.org/2000/svg">
<g id="#ffffffff">
<path fill="#ffffff" opacity="1.00" d=" M 0.00 0.00 L 64.00 0.00 L 64.00 64.00 L 0.00 64.00 L 0.00 0.00 M 12.48 10.04 C 11.09 14.57 10.03 19.25 10.01 24.01 C 9.99 34.01 10.01 44.00 10.00 54.00 C 24.67 54.00 39.33 54.00 54.00 54.00 C 53.99 44.00 54.02 34.00 53.99 24.00 C 53.95 19.24 52.91 14.55 51.50 10.02 C 38.49 10.00 25.49 9.97 12.48 10.04 Z" />
<path fill="#ffffff" opacity="1.00" d=" M 15.53 14.01 C 26.51 14.00 37.49 13.99 48.47 14.01 C 48.73 15.34 49.00 16.67 49.26 18.00 C 37.75 18.00 26.24 18.00 14.73 18.00 C 15.00 16.67 15.27 15.34 15.53 14.01 Z" />
<path fill="#ffffff" opacity="1.00" d=" M 14.16 22.03 C 18.93 21.97 23.70 22.01 28.47 22.00 C 27.07 24.32 25.68 26.65 24.29 28.97 C 25.43 29.65 26.57 30.34 27.71 31.02 C 29.15 28.65 30.58 26.28 32.00 23.89 C 33.43 26.26 34.86 28.64 36.28 31.02 C 37.43 30.34 38.58 29.67 39.73 29.01 C 38.34 26.67 36.94 24.34 35.55 22.01 C 40.31 22.00 45.08 21.98 49.84 22.03 C 50.19 31.35 49.91 40.68 50.00 50.00 C 44.67 50.00 39.33 50.00 34.00 50.00 C 34.00 44.67 34.00 39.33 34.00 34.00 C 32.67 34.00 31.33 34.00 30.00 34.00 C 30.00 39.33 30.00 44.67 30.00 50.00 C 24.67 50.00 19.33 50.00 14.00 50.00 C 14.09 40.68 13.81 31.35 14.16 22.03 Z" />
</g>
<g id="#000000ff">
<path fill="#000000" opacity="1.00" d=" M 12.48 10.04 C 25.49 9.97 38.49 10.00 51.50 10.02 C 52.91 14.55 53.95 19.24 53.99 24.00 C 54.02 34.00 53.99 44.00 54.00 54.00 C 39.33 54.00 24.67 54.00 10.00 54.00 C 10.01 44.00 9.99 34.01 10.01 24.01 C 10.03 19.25 11.09 14.57 12.48 10.04 M 15.53 14.01 C 15.27 15.34 15.00 16.67 14.73 18.00 C 26.24 18.00 37.75 18.00 49.26 18.00 C 49.00 16.67 48.73 15.34 48.47 14.01 C 37.49 13.99 26.51 14.00 15.53 14.01 M 14.16 22.03 C 13.81 31.35 14.09 40.68 14.00 50.00 C 19.33 50.00 24.67 50.00 30.00 50.00 C 30.00 44.67 30.00 39.33 30.00 34.00 C 31.33 34.00 32.67 34.00 34.00 34.00 C 34.00 39.33 34.00 44.67 34.00 50.00 C 39.33 50.00 44.67 50.00 50.00 50.00 C 49.91 40.68 50.19 31.35 49.84 22.03 C 45.08 21.98 40.31 22.00 35.55 22.01 C 36.94 24.34 38.34 26.67 39.73 29.01 C 38.58 29.67 37.43 30.34 36.28 31.02 C 34.86 28.64 33.43 26.26 32.00 23.89 C 30.58 26.28 29.15 28.65 27.71 31.02 C 26.57 30.34 25.43 29.65 24.29 28.97 C 25.68 26.65 27.07 24.32 28.47 22.00 C 23.70 22.01 18.93 21.97 14.16 22.03 Z" />
</g>
</svg>
