<?xml version="1.0" encoding="UTF-8" ?>
<!DOCTYPE svg PUBLIC "-//W3C//DTD SVG 1.1//EN" "http://www.w3.org/Graphics/SVG/1.1/DTD/svg11.dtd">
<svg width="64pt" height="64pt" viewBox="0 0 64 64" version="1.1" xmlns="http://www.w3.org/2000/svg">
<g id="#ffffffff">
<path fill="#ffffff" opacity="1.00" d=" M 0.00 0.00 L 64.00 0.00 L 64.00 64.00 L 0.00 64.00 L 0.00 0.00 M 10.04 13.88 C 9.94 27.92 10.03 41.96 10.00 56.00 C 11.33 56.00 12.67 56.00 14.00 56.00 C 14.05 41.99 13.91 27.97 14.06 13.96 C 14.23 11.03 18.00 12.27 19.93 11.97 C 20.62 12.67 21.31 13.37 22.00 14.06 C 21.99 24.02 22.01 33.97 21.99 43.93 C 21.65 44.37 20.97 45.25 20.63 45.69 C 24.24 48.28 28.52 50.37 33.09 49.93 C 36.91 49.74 40.30 47.81 43.37 45.69 C 43.03 45.25 42.35 44.37 42.01 43.94 C 41.99 33.98 42.01 24.01 42.00 14.05 C 42.69 13.36 43.38 12.67 44.07 11.97 C 45.99 12.26 49.80 11.04 49.93 13.98 C 50.10 27.99 49.95 41.99 50.00 56.00 C 51.33 56.00 52.67 56.00 54.00 56.00 C 53.97 41.97 54.06 27.94 53.96 13.91 C 54.02 10.81 51.25 7.99 48.14 8.04 C 37.41 7.96 26.67 7.98 15.93 8.04 C 12.81 7.95 9.97 10.75 10.04 13.88 Z" />
<path fill="#ffffff" opacity="1.00" d=" M 26.08 11.99 C 30.03 12.00 33.98 12.00 37.93 12.00 C 38.62 12.68 39.31 13.37 40.00 14.06 C 40.01 23.75 39.97 33.44 40.02 43.12 C 35.33 46.79 28.66 46.79 23.97 43.12 C 24.03 33.43 23.99 23.74 24.00 14.05 C 24.69 13.36 25.38 12.68 26.08 11.99 Z" />
</g>
<g id="#000000ff">
<path fill="#000000" opacity="1.00" d=" M 10.04 13.88 C 9.97 10.75 12.81 7.95 15.93 8.04 C 26.67 7.98 37.41 7.96 48.14 8.04 C 51.25 7.99 54.02 10.81 53.96 13.91 C 54.06 27.94 53.97 41.97 54.00 56.00 C 52.67 56.00 51.33 56.00 50.00 56.00 C 49.95 41.99 50.10 27.99 49.93 13.98 C 49.80 11.04 45.99 12.26 44.07 11.97 C 43.38 12.67 42.69 13.36 42.00 14.05 C 42.01 24.01 41.99 33.98 42.01 43.94 C 42.35 44.37 43.03 45.25 43.37 45.69 C 40.30 47.81 36.91 49.74 33.09 49.93 C 28.52 50.37 24.24 48.28 20.63 45.69 C 20.97 45.25 21.65 44.37 21.99 43.93 C 22.01 33.97 21.99 24.02 22.00 14.06 C 21.31 13.37 20.62 12.67 19.93 11.97 C 18.00 12.27 14.23 11.03 14.06 13.96 C 13.91 27.97 14.05 41.99 14.00 56.00 C 12.67 56.00 11.33 56.00 10.00 56.00 C 10.03 41.96 9.94 27.92 10.04 13.88 M 26.08 11.99 C 25.38 12.68 24.69 13.36 24.00 14.05 C 23.99 23.74 24.03 33.43 23.97 43.12 C 28.66 46.79 35.33 46.79 40.02 43.12 C 39.97 33.44 40.01 23.75 40.00 14.06 C 39.31 13.37 38.62 12.68 37.93 12.00 C 33.98 12.00 30.03 12.00 26.08 11.99 Z" />
</g>
</svg>
