<?xml version="1.0" encoding="UTF-8" ?>
<!DOCTYPE svg PUBLIC "-//W3C//DTD SVG 1.1//EN" "http://www.w3.org/Graphics/SVG/1.1/DTD/svg11.dtd">
<svg width="60pt" height="60pt" viewBox="0 0 60 60" version="1.1" xmlns="http://www.w3.org/2000/svg">
<g id="#ffffffff">
<path fill="#ffffff" opacity="1.00" d=" M 0.00 0.00 L 60.00 0.00 L 60.00 60.00 L 0.00 60.00 L 0.00 0.00 M 9.40 11.69 C 7.66 12.14 8.15 14.34 7.85 15.67 C 6.79 16.42 5.65 17.31 6.08 18.80 C 6.87 20.25 8.57 19.90 9.93 20.02 C 23.31 19.99 36.69 19.99 50.07 20.02 C 51.42 19.90 53.10 20.25 53.89 18.83 C 54.40 17.32 53.17 16.44 52.14 15.65 C 51.91 14.26 52.28 12.15 50.52 11.65 C 45.41 10.04 40.18 8.82 35.03 7.32 C 32.80 6.75 30.48 5.75 28.16 6.51 C 21.92 8.28 15.62 9.86 9.40 11.69 M 8.43 24.00 C 7.97 25.99 7.45 27.97 6.88 29.93 C 5.56 30.98 3.84 32.07 4.01 34.03 C 3.81 37.39 8.57 39.40 10.78 36.80 C 12.64 35.23 11.91 32.70 10.91 30.88 C 11.40 28.57 11.96 26.27 12.57 23.99 C 11.19 24.01 9.81 24.02 8.43 24.00 M 17.38 24.00 C 17.04 27.36 16.77 30.74 16.32 34.10 C 15.35 35.25 13.89 36.29 14.01 37.99 C 13.78 41.37 18.55 43.42 20.78 40.80 C 22.84 39.05 21.82 36.26 20.42 34.46 C 20.63 30.96 21.09 27.48 21.41 23.99 C 20.06 24.01 18.72 24.01 17.38 24.00 M 26.00 24.00 C 26.01 32.00 25.99 40.01 26.00 48.02 C 23.73 47.92 21.44 47.89 19.17 48.19 C 17.24 48.90 17.89 52.16 20.00 51.90 C 25.66 52.19 31.34 51.86 37.00 52.04 C 38.65 51.84 40.77 52.45 41.90 50.88 C 42.52 46.56 36.58 48.30 34.00 48.02 C 34.01 40.01 33.99 32.00 34.00 24.00 C 31.33 24.00 28.67 24.00 26.00 24.00 M 38.59 23.99 C 38.90 27.48 39.37 30.96 39.58 34.45 C 38.68 36.00 37.33 37.77 38.33 39.61 C 39.57 42.72 44.44 42.73 45.64 39.58 C 46.78 37.49 45.16 35.47 43.68 34.10 C 43.23 30.75 42.97 27.37 42.62 24.00 C 41.27 24.01 39.93 24.01 38.59 23.99 M 47.44 23.99 C 48.03 26.27 48.60 28.56 49.08 30.86 C 47.86 32.87 47.42 35.85 49.74 37.28 C 52.47 39.45 56.84 36.46 55.88 33.14 C 55.68 31.58 54.13 30.90 53.12 29.93 C 52.55 27.96 52.03 25.99 51.57 24.00 C 50.19 24.02 48.81 24.01 47.44 23.99 Z" />
</g>
<g id="#000000ff">
<path fill="#000000" opacity="1.00" d=" M 9.40 11.69 C 15.62 9.86 21.92 8.28 28.16 6.51 C 30.48 5.75 32.80 6.75 35.03 7.32 C 40.18 8.82 45.41 10.04 50.52 11.65 C 52.28 12.15 51.91 14.26 52.14 15.65 C 53.17 16.44 54.40 17.32 53.89 18.83 C 53.10 20.25 51.42 19.90 50.07 20.02 C 36.69 19.99 23.31 19.99 9.93 20.02 C 8.57 19.90 6.87 20.25 6.08 18.80 C 5.65 17.31 6.79 16.42 7.85 15.67 C 8.15 14.34 7.66 12.14 9.40 11.69 Z" />
<path fill="#000000" opacity="1.00" d=" M 8.43 24.00 C 9.81 24.02 11.19 24.01 12.57 23.99 C 11.96 26.27 11.40 28.57 10.91 30.88 C 11.91 32.70 12.64 35.23 10.78 36.80 C 8.57 39.40 3.81 37.39 4.01 34.03 C 3.84 32.07 5.56 30.98 6.88 29.93 C 7.45 27.97 7.97 25.99 8.43 24.00 Z" />
<path fill="#000000" opacity="1.00" d=" M 17.38 24.00 C 18.72 24.01 20.06 24.01 21.41 23.99 C 21.09 27.48 20.63 30.96 20.42 34.46 C 21.82 36.26 22.84 39.05 20.78 40.80 C 18.55 43.42 13.78 41.37 14.01 37.99 C 13.89 36.29 15.35 35.25 16.32 34.10 C 16.77 30.74 17.04 27.36 17.38 24.00 Z" />
<path fill="#000000" opacity="1.00" d=" M 26.00 24.00 C 28.67 24.00 31.33 24.00 34.00 24.00 C 33.99 32.00 34.01 40.01 34.00 48.02 C 36.58 48.30 42.52 46.56 41.90 50.88 C 40.77 52.45 38.65 51.84 37.00 52.04 C 31.34 51.86 25.66 52.19 20.00 51.90 C 17.89 52.16 17.24 48.90 19.17 48.19 C 21.44 47.89 23.73 47.92 26.00 48.02 C 25.99 40.01 26.01 32.00 26.00 24.00 Z" />
<path fill="#000000" opacity="1.00" d=" M 38.59 23.99 C 39.93 24.01 41.27 24.01 42.62 24.00 C 42.97 27.37 43.23 30.75 43.68 34.10 C 45.16 35.47 46.78 37.49 45.64 39.58 C 44.44 42.73 39.57 42.72 38.33 39.61 C 37.33 37.77 38.68 36.00 39.58 34.45 C 39.37 30.96 38.90 27.48 38.59 23.99 Z" />
<path fill="#000000" opacity="1.00" d=" M 47.44 23.99 C 48.81 24.01 50.19 24.02 51.57 24.00 C 52.03 25.99 52.55 27.96 53.12 29.93 C 54.13 30.90 55.68 31.58 55.88 33.14 C 56.84 36.46 52.47 39.45 49.74 37.28 C 47.42 35.85 47.86 32.87 49.08 30.86 C 48.60 28.56 48.03 26.27 47.44 23.99 Z" />
</g>
</svg>
