<?xml version="1.0" encoding="UTF-8" ?>
<!DOCTYPE svg PUBLIC "-//W3C//DTD SVG 1.1//EN" "http://www.w3.org/Graphics/SVG/1.1/DTD/svg11.dtd">
<svg width="64pt" height="64pt" viewBox="0 0 64 64" version="1.1" xmlns="http://www.w3.org/2000/svg">
<g id="#ffffffff">
<path fill="#ffffff" opacity="1.00" d=" M 0.00 0.00 L 64.00 0.00 L 64.00 64.00 L 0.00 64.00 L 0.00 0.00 M 19.74 11.07 C 20.05 12.18 20.43 13.26 20.87 14.32 C 17.35 28.36 12.46 42.06 8.55 56.01 C 9.93 56.00 11.32 55.99 12.70 55.98 C 13.61 53.00 14.50 50.01 15.43 47.03 C 16.14 44.79 16.80 42.53 17.31 40.23 C 21.18 41.95 23.52 45.78 27.21 47.78 C 29.20 48.88 31.54 48.84 33.72 49.25 L 33.34 49.90 C 34.07 51.90 34.72 53.93 35.29 55.98 C 36.68 55.99 38.06 56.01 39.44 56.02 C 38.54 52.64 37.43 49.33 36.46 45.97 C 33.78 37.32 31.21 28.64 28.52 20.00 C 28.03 18.27 27.49 16.56 26.93 14.87 C 32.13 16.51 37.08 18.84 42.21 20.69 C 43.86 21.59 45.46 19.97 46.98 19.57 C 41.18 16.59 34.82 14.86 28.87 12.21 C 27.36 10.72 26.66 7.77 23.98 8.01 C 21.96 7.84 20.89 9.79 19.74 11.07 M 48.43 22.27 C 46.48 23.54 44.36 24.51 42.36 25.70 C 41.17 27.11 42.02 29.05 41.98 30.70 C 39.73 31.90 37.39 33.07 35.71 35.05 L 36.83 35.39 C 37.00 36.04 37.33 37.33 37.50 37.97 C 40.35 36.01 43.67 34.75 46.24 32.39 C 46.39 30.97 45.02 28.61 46.86 27.83 C 48.19 26.92 49.61 26.17 51.02 25.38 C 51.81 28.51 52.91 32.53 50.04 34.98 C 46.45 37.60 42.42 39.58 38.62 41.88 C 39.09 43.16 39.56 44.43 40.04 45.70 C 44.57 42.68 49.97 40.75 53.83 36.82 C 58.12 31.62 54.65 24.89 53.83 19.12 C 52.03 20.17 50.24 21.23 48.43 22.27 Z" />
<path fill="#ffffff" opacity="1.00" d=" M 18.58 36.41 C 20.53 30.63 22.12 24.74 24.01 18.95 C 25.55 23.91 27.07 28.88 28.56 33.86 C 27.34 34.56 26.13 35.25 24.91 35.94 C 22.87 37.19 20.76 38.31 18.83 39.71 C 18.13 38.75 17.86 37.48 18.58 36.41 Z" />
<path fill="#ffffff" opacity="1.00" d=" M 25.69 42.22 C 24.04 39.63 28.32 39.07 29.74 37.72 C 30.51 40.20 31.31 42.67 31.88 45.20 C 30.08 44.67 28.38 43.87 26.72 42.99 L 26.92 41.84 L 25.69 42.22 Z" />
</g>
<g id="#000000ff">
<path fill="#000000" opacity="1.00" d=" M 19.74 11.07 C 20.89 9.79 21.96 7.84 23.98 8.01 C 26.66 7.77 27.36 10.72 28.87 12.21 C 34.82 14.86 41.18 16.59 46.98 19.57 C 45.46 19.97 43.86 21.59 42.21 20.69 C 37.08 18.84 32.13 16.51 26.93 14.87 C 27.49 16.56 28.03 18.27 28.52 20.00 C 31.21 28.64 33.78 37.32 36.46 45.97 C 37.43 49.33 38.54 52.64 39.44 56.02 C 38.06 56.01 36.68 55.99 35.29 55.98 C 34.72 53.93 34.07 51.90 33.34 49.90 L 33.72 49.25 C 31.54 48.84 29.20 48.88 27.21 47.78 C 23.52 45.78 21.18 41.95 17.31 40.23 C 16.80 42.53 16.14 44.79 15.43 47.03 C 14.50 50.01 13.61 53.00 12.70 55.98 C 11.32 55.99 9.93 56.00 8.55 56.01 C 12.46 42.06 17.35 28.36 20.87 14.32 C 20.43 13.26 20.05 12.18 19.74 11.07 M 18.58 36.41 C 17.86 37.48 18.13 38.75 18.83 39.71 C 20.76 38.31 22.87 37.19 24.91 35.94 C 26.13 35.25 27.34 34.56 28.56 33.86 C 27.07 28.88 25.55 23.91 24.01 18.95 C 22.12 24.74 20.53 30.63 18.58 36.41 M 25.69 42.22 L 26.92 41.84 L 26.72 42.99 C 28.38 43.87 30.08 44.67 31.88 45.20 C 31.31 42.67 30.51 40.20 29.74 37.72 C 28.32 39.07 24.04 39.63 25.69 42.22 Z" />
<path fill="#000000" opacity="1.00" d=" M 48.43 22.27 C 50.24 21.23 52.03 20.17 53.83 19.12 C 54.65 24.89 58.12 31.62 53.83 36.82 C 49.97 40.75 44.57 42.68 40.04 45.70 C 39.56 44.43 39.09 43.16 38.62 41.88 C 42.42 39.58 46.45 37.60 50.04 34.98 C 52.91 32.53 51.81 28.51 51.02 25.38 C 49.61 26.17 48.19 26.92 46.86 27.83 C 45.02 28.61 46.39 30.97 46.24 32.39 C 43.67 34.75 40.35 36.01 37.50 37.97 C 37.33 37.33 37.00 36.04 36.83 35.39 L 35.71 35.05 C 37.39 33.07 39.73 31.90 41.98 30.70 C 42.02 29.05 41.17 27.11 42.36 25.70 C 44.36 24.51 46.48 23.54 48.43 22.27 Z" />
</g>
</svg>
