<?xml version="1.0" encoding="UTF-8" ?>
<!DOCTYPE svg PUBLIC "-//W3C//DTD SVG 1.1//EN" "http://www.w3.org/Graphics/SVG/1.1/DTD/svg11.dtd">
<svg width="64pt" height="64pt" viewBox="0 0 64 64" version="1.1" xmlns="http://www.w3.org/2000/svg">
<g id="#ffffffff">
<path fill="#ffffff" opacity="1.00" d=" M 0.00 0.00 L 64.00 0.00 L 64.00 64.00 L 0.00 64.00 L 0.00 0.00 M 22.42 17.16 C 22.34 16.37 22.18 14.79 22.09 14.00 C 20.73 14.00 19.36 14.00 18.00 14.00 C 18.00 12.67 18.00 11.33 18.00 10.00 C 14.66 9.99 11.32 10.01 7.97 10.02 C 8.23 13.89 7.53 18.45 10.43 21.54 C 14.05 25.38 18.08 28.81 22.00 32.35 C 21.98 36.58 21.96 40.80 21.93 45.03 C 19.97 43.06 17.99 41.10 16.03 39.14 C 17.17 37.62 17.96 35.88 18.20 33.98 C 16.10 33.98 13.47 33.41 13.19 36.30 C 11.64 34.83 12.05 32.98 13.06 31.33 C 12.26 30.33 11.45 29.33 10.64 28.33 C 8.27 30.77 7.18 34.68 9.20 37.67 C 13.84 43.70 20.49 47.99 24.49 54.55 C 29.03 60.41 39.45 58.26 41.42 51.13 C 42.50 45.77 41.72 40.22 41.91 34.78 C 45.28 38.98 50.91 41.09 56.09 39.09 C 54.03 34.77 52.73 30.02 49.76 26.18 C 46.20 21.37 42.60 16.59 39.47 11.47 C 34.52 4.79 22.02 8.53 22.42 17.16 Z" />
<path fill="#ffffff" opacity="1.00" d=" M 29.36 12.59 C 31.84 11.36 35.12 12.09 36.77 14.34 C 38.30 16.21 37.93 18.79 38.02 21.05 C 37.90 30.05 38.05 39.05 37.89 48.05 C 37.98 50.81 35.87 53.39 33.16 53.87 C 29.61 54.72 25.77 51.68 25.98 47.99 C 25.89 38.33 26.01 28.66 25.99 19.00 C 25.79 16.44 26.91 13.68 29.36 12.59 M 30.01 42.00 C 30.01 42.50 30.00 43.49 29.99 43.99 C 29.50 44.00 28.50 44.01 28.00 44.01 C 28.00 45.34 28.00 46.66 28.00 47.99 C 28.50 47.99 29.49 48.00 29.99 48.01 C 30.00 48.50 30.01 49.50 30.01 50.00 C 31.34 50.00 32.66 50.00 33.99 50.00 C 33.99 49.50 34.00 48.50 34.01 48.01 C 34.51 48.00 35.50 47.99 36.00 47.99 C 36.00 46.66 36.00 45.34 36.00 44.01 C 35.50 44.01 34.50 44.00 34.01 43.99 C 34.00 43.50 33.99 42.50 33.99 42.00 C 32.66 42.00 31.34 42.00 30.01 42.00 Z" />
<path fill="#ffffff" opacity="1.00" d=" M 11.88 14.04 C 12.41 14.03 13.47 14.00 14.00 13.99 C 14.00 15.33 14.00 16.66 14.00 18.00 C 15.33 18.00 16.67 18.00 18.00 18.00 C 18.00 19.33 18.00 20.67 18.00 22.00 C 19.34 22.00 20.67 22.00 22.01 22.00 C 21.99 23.67 21.99 25.34 21.99 27.02 C 18.35 22.97 12.14 20.13 11.88 14.04 Z" />
<path fill="#ffffff" opacity="1.00" d=" M 42.00 22.38 C 44.98 26.77 48.82 30.74 50.30 35.96 C 46.43 34.67 44.28 31.09 42.00 27.99 C 42.01 26.12 42.00 24.25 42.00 22.38 Z" />
</g>
<g id="#000000ff">
<path fill="#000000" opacity="1.00" d=" M 22.42 17.16 C 22.02 8.53 34.52 4.79 39.47 11.47 C 42.60 16.59 46.20 21.37 49.76 26.18 C 52.73 30.02 54.03 34.77 56.09 39.09 C 50.91 41.09 45.28 38.98 41.91 34.78 C 41.72 40.22 42.50 45.77 41.42 51.13 C 39.45 58.26 29.03 60.41 24.49 54.55 C 20.49 47.99 13.84 43.70 9.20 37.67 C 7.18 34.68 8.27 30.77 10.64 28.33 C 11.45 29.33 12.26 30.33 13.06 31.33 C 12.05 32.98 11.64 34.83 13.19 36.30 C 13.47 33.41 16.10 33.98 18.20 33.98 C 17.96 35.88 17.17 37.62 16.03 39.14 C 17.99 41.10 19.97 43.06 21.93 45.03 C 21.96 40.80 21.98 36.58 22.00 32.35 C 18.08 28.81 14.05 25.38 10.43 21.54 C 7.53 18.45 8.23 13.89 7.97 10.02 C 11.32 10.01 14.66 9.99 18.00 10.00 C 18.00 11.33 18.00 12.67 18.00 14.00 C 19.36 14.00 20.73 14.00 22.09 14.00 C 22.18 14.79 22.34 16.37 22.42 17.16 M 29.36 12.59 C 26.91 13.68 25.79 16.44 25.99 19.00 C 26.01 28.66 25.89 38.33 25.98 47.99 C 25.77 51.68 29.61 54.72 33.16 53.87 C 35.87 53.39 37.98 50.81 37.89 48.05 C 38.05 39.05 37.90 30.05 38.02 21.05 C 37.93 18.79 38.30 16.21 36.77 14.34 C 35.12 12.09 31.84 11.36 29.36 12.59 M 11.88 14.04 C 12.14 20.13 18.35 22.97 21.99 27.02 C 21.99 25.34 21.99 23.67 22.01 22.00 C 20.67 22.00 19.34 22.00 18.00 22.00 C 18.00 20.67 18.00 19.33 18.00 18.00 C 16.67 18.00 15.33 18.00 14.00 18.00 C 14.00 16.66 14.00 15.33 14.00 13.99 C 13.47 14.00 12.41 14.03 11.88 14.04 M 42.00 22.38 C 42.00 24.25 42.01 26.12 42.00 27.99 C 44.28 31.09 46.43 34.67 50.30 35.96 C 48.82 30.74 44.98 26.77 42.00 22.38 Z" />
<path fill="#000000" opacity="1.00" d=" M 30.01 42.00 C 31.34 42.00 32.66 42.00 33.99 42.00 C 33.99 42.50 34.00 43.50 34.01 43.99 C 34.50 44.00 35.50 44.01 36.00 44.01 C 36.00 45.34 36.00 46.66 36.00 47.99 C 35.50 47.99 34.51 48.00 34.01 48.01 C 34.00 48.50 33.99 49.50 33.99 50.00 C 32.66 50.00 31.34 50.00 30.01 50.00 C 30.01 49.50 30.00 48.50 29.99 48.01 C 29.49 48.00 28.50 47.99 28.00 47.99 C 28.00 46.66 28.00 45.34 28.00 44.01 C 28.50 44.01 29.50 44.00 29.99 43.99 C 30.00 43.49 30.01 42.50 30.01 42.00 Z" />
</g>
</svg>
