<?xml version="1.0" encoding="UTF-8" ?>
<!DOCTYPE svg PUBLIC "-//W3C//DTD SVG 1.1//EN" "http://www.w3.org/Graphics/SVG/1.1/DTD/svg11.dtd">
<svg width="60pt" height="60pt" viewBox="0 0 60 60" version="1.1" xmlns="http://www.w3.org/2000/svg">
<g id="#ffffffff">
<path fill="#ffffff" opacity="1.00" d=" M 0.00 0.00 L 60.00 0.00 L 60.00 60.00 L 0.00 60.00 L 0.00 0.00 M 24.41 6.66 C 17.55 8.28 11.54 13.09 8.46 19.43 C 5.19 25.98 5.20 34.04 8.47 40.59 C 11.78 47.39 18.48 52.41 25.94 53.64 C 33.02 54.88 40.62 52.75 45.95 47.91 C 51.28 43.22 54.32 36.06 53.96 28.96 C 53.71 22.08 50.28 15.39 44.85 11.16 C 39.21 6.63 31.44 4.96 24.41 6.66 Z" />
<path fill="#ffffff" opacity="1.00" d=" M 24.00 20.00 C 28.67 20.00 33.33 20.00 38.00 20.00 C 38.00 21.33 38.00 22.67 38.00 24.00 C 34.67 24.00 31.33 24.00 28.00 24.00 C 28.00 25.33 28.00 26.67 28.00 28.00 C 30.67 28.00 33.33 28.00 36.00 28.00 C 36.00 29.33 36.00 30.67 36.00 32.00 C 33.33 32.00 30.67 32.00 28.00 32.00 C 28.00 32.50 28.00 33.50 28.00 34.00 C 30.00 34.00 32.00 34.00 34.00 34.00 C 34.00 34.50 34.00 35.50 34.00 36.00 C 32.00 36.00 30.00 36.00 28.00 36.00 C 28.00 37.33 28.00 38.67 28.00 40.00 C 26.67 40.00 25.33 40.00 24.00 40.00 C 24.00 38.67 24.00 37.34 24.00 36.01 C 23.50 36.01 22.50 35.99 22.00 35.98 C 22.00 35.49 22.00 34.51 22.00 34.01 C 22.50 34.01 23.50 33.99 24.00 33.99 C 24.00 29.32 24.00 24.66 24.00 20.00 Z" />
</g>
<g id="#000000ff">
<path fill="#000000" opacity="1.00" d=" M 24.41 6.66 C 31.44 4.96 39.21 6.63 44.85 11.16 C 50.28 15.39 53.71 22.08 53.96 28.96 C 54.32 36.06 51.28 43.22 45.95 47.91 C 40.62 52.75 33.02 54.88 25.94 53.64 C 18.48 52.41 11.78 47.39 8.47 40.59 C 5.20 34.04 5.19 25.98 8.46 19.43 C 11.54 13.09 17.55 8.28 24.41 6.66 M 24.00 20.00 C 24.00 24.66 24.00 29.32 24.00 33.99 C 23.50 33.99 22.50 34.01 22.00 34.01 C 22.00 34.51 22.00 35.49 22.00 35.98 C 22.50 35.99 23.50 36.01 24.00 36.01 C 24.00 37.34 24.00 38.67 24.00 40.00 C 25.33 40.00 26.67 40.00 28.00 40.00 C 28.00 38.67 28.00 37.33 28.00 36.00 C 30.00 36.00 32.00 36.00 34.00 36.00 C 34.00 35.50 34.00 34.50 34.00 34.00 C 32.00 34.00 30.00 34.00 28.00 34.00 C 28.00 33.50 28.00 32.50 28.00 32.00 C 30.67 32.00 33.33 32.00 36.00 32.00 C 36.00 30.67 36.00 29.33 36.00 28.00 C 33.33 28.00 30.67 28.00 28.00 28.00 C 28.00 26.67 28.00 25.33 28.00 24.00 C 31.33 24.00 34.67 24.00 38.00 24.00 C 38.00 22.67 38.00 21.33 38.00 20.00 C 33.33 20.00 28.67 20.00 24.00 20.00 Z" />
</g>
</svg>
