<?xml version="1.0" encoding="UTF-8" ?>
<!DOCTYPE svg PUBLIC "-//W3C//DTD SVG 1.1//EN" "http://www.w3.org/Graphics/SVG/1.1/DTD/svg11.dtd">
<svg width="60pt" height="60pt" viewBox="0 0 60 60" version="1.1" xmlns="http://www.w3.org/2000/svg">
<g id="#ffffffff">
<path fill="#ffffff" opacity="1.00" d=" M 0.00 0.00 L 60.00 0.00 L 60.00 60.00 L 0.00 60.00 L 0.00 0.00 M 41.13 6.19 C 33.52 14.58 26.45 23.48 19.03 32.05 C 17.90 31.07 16.08 28.99 14.63 30.56 C 12.83 32.19 15.29 34.10 16.37 35.29 C 14.31 37.84 12.23 40.39 10.16 42.92 C 8.58 41.32 5.12 42.13 6.16 44.80 C 9.01 47.96 12.02 51.02 15.22 53.83 C 16.83 54.52 17.57 53.11 18.29 51.96 C 17.96 51.46 17.30 50.46 16.97 49.96 C 19.54 47.86 22.09 45.74 24.67 43.66 C 25.99 44.63 27.64 47.08 29.42 45.42 C 30.98 43.86 28.93 42.16 27.96 40.98 C 36.51 33.56 45.42 26.54 53.77 18.91 C 54.21 15.03 54.10 11.08 53.84 7.18 C 53.59 6.93 53.10 6.42 52.85 6.16 C 48.95 5.88 45.02 5.84 41.13 6.19 Z" />
<path fill="#ffffff" opacity="1.00" d=" M 21.81 35.00 C 28.82 26.64 35.91 18.35 42.92 10.00 C 45.28 10.00 47.64 10.01 50.00 10.00 C 49.99 12.36 50.00 14.72 50.00 17.07 C 41.70 24.13 33.36 31.15 25.04 38.19 C 23.98 37.12 22.90 36.05 21.81 35.00 Z" />
</g>
<g id="#000000ff">
<path fill="#000000" opacity="1.00" d=" M 41.13 6.19 C 45.02 5.84 48.95 5.88 52.85 6.16 C 53.10 6.42 53.59 6.93 53.84 7.18 C 54.10 11.08 54.21 15.03 53.77 18.91 C 45.42 26.54 36.51 33.56 27.96 40.98 C 28.93 42.16 30.98 43.86 29.42 45.42 C 27.64 47.08 25.99 44.63 24.67 43.66 C 22.09 45.74 19.54 47.86 16.97 49.96 C 17.30 50.46 17.96 51.46 18.29 51.96 C 17.57 53.11 16.83 54.52 15.22 53.83 C 12.02 51.02 9.01 47.96 6.16 44.80 C 5.12 42.13 8.58 41.32 10.16 42.92 C 12.23 40.39 14.31 37.84 16.37 35.29 C 15.29 34.10 12.83 32.19 14.63 30.56 C 16.08 28.99 17.90 31.07 19.03 32.05 C 26.45 23.48 33.52 14.58 41.13 6.19 M 21.81 35.00 C 22.90 36.05 23.98 37.12 25.04 38.19 C 33.36 31.15 41.70 24.13 50.00 17.07 C 50.00 14.72 49.99 12.36 50.00 10.00 C 47.64 10.01 45.28 10.00 42.92 10.00 C 35.91 18.35 28.82 26.64 21.81 35.00 Z" />
</g>
</svg>
