<?xml version="1.0" encoding="UTF-8" ?>
<!DOCTYPE svg PUBLIC "-//W3C//DTD SVG 1.1//EN" "http://www.w3.org/Graphics/SVG/1.1/DTD/svg11.dtd">
<svg width="60pt" height="60pt" viewBox="0 0 60 60" version="1.1" xmlns="http://www.w3.org/2000/svg">
<g id="#ffffffff">
<path fill="#ffffff" opacity="1.00" d=" M 0.00 0.00 L 60.00 0.00 L 60.00 60.00 L 0.00 60.00 L 0.00 0.00 M 6.37 26.00 C 5.95 27.25 6.41 28.99 7.93 29.17 C 9.90 29.51 10.16 27.24 10.50 25.89 C 11.86 18.54 17.83 12.39 25.06 10.62 C 31.77 8.83 39.24 10.96 44.13 15.88 C 42.75 17.24 41.38 18.62 40.01 20.00 C 44.01 20.67 48.00 21.33 52.00 22.00 C 51.33 18.01 50.68 14.02 49.99 10.03 C 48.98 11.02 47.97 12.02 46.96 13.02 C 41.47 7.66 33.46 4.94 25.86 6.37 C 16.08 7.93 7.88 16.21 6.37 26.00 M 49.79 32.98 C 48.63 40.33 43.25 46.83 36.11 49.03 C 28.68 51.53 19.97 49.03 14.93 43.05 C 15.96 42.04 16.97 41.02 17.99 40.01 C 13.99 39.33 10.00 38.64 6.00 37.98 C 6.66 41.99 7.33 45.99 8.00 49.99 C 9.36 48.65 10.70 47.30 12.04 45.95 C 17.34 51.68 25.34 54.93 33.15 53.77 C 43.64 52.55 52.61 43.57 53.73 33.06 C 54.26 30.20 49.55 30.18 49.79 32.98 Z" />
</g>
<g id="#000000ff">
<path fill="#000000" opacity="1.00" d=" M 6.37 26.00 C 7.88 16.21 16.08 7.93 25.86 6.37 C 33.46 4.94 41.47 7.66 46.96 13.02 C 47.97 12.02 48.98 11.02 49.99 10.03 C 50.68 14.02 51.33 18.01 52.00 22.00 C 48.00 21.33 44.01 20.67 40.01 20.00 C 41.38 18.62 42.75 17.24 44.13 15.88 C 39.24 10.96 31.77 8.83 25.06 10.62 C 17.83 12.39 11.86 18.54 10.50 25.89 C 10.16 27.24 9.90 29.51 7.93 29.17 C 6.41 28.99 5.95 27.25 6.37 26.00 Z" />
<path fill="#000000" opacity="1.00" d=" M 49.79 32.98 C 49.55 30.18 54.26 30.20 53.73 33.06 C 52.61 43.57 43.64 52.55 33.15 53.77 C 25.34 54.93 17.34 51.68 12.04 45.95 C 10.70 47.30 9.36 48.65 8.00 49.99 C 7.33 45.99 6.66 41.99 6.00 37.98 C 10.00 38.64 13.99 39.33 17.99 40.01 C 16.97 41.02 15.96 42.04 14.93 43.05 C 19.97 49.03 28.68 51.53 36.11 49.03 C 43.25 46.83 48.63 40.33 49.79 32.98 Z" />
</g>
</svg>
