<?xml version="1.0" encoding="UTF-8" ?>
<!DOCTYPE svg PUBLIC "-//W3C//DTD SVG 1.1//EN" "http://www.w3.org/Graphics/SVG/1.1/DTD/svg11.dtd">
<svg width="64pt" height="64pt" viewBox="0 0 64 64" version="1.1" xmlns="http://www.w3.org/2000/svg">
<g id="#ffffffff">
<path fill="#ffffff" opacity="1.00" d=" M 0.00 0.00 L 64.00 0.00 L 64.00 64.00 L 0.00 64.00 L 0.00 0.00 M 28.20 7.00 C 29.82 8.64 31.44 10.27 33.09 11.89 C 27.25 11.87 21.33 14.01 17.38 18.41 C 11.93 24.08 10.54 32.98 13.67 40.15 C 14.73 39.20 15.76 38.24 16.78 37.26 C 15.83 33.35 15.60 29.07 17.47 25.40 C 20.15 19.43 26.59 15.63 33.10 15.93 C 31.51 17.66 29.85 19.33 28.20 21.00 C 29.13 21.94 30.06 22.88 31.00 23.81 C 34.29 20.55 37.59 17.31 40.83 14.00 C 37.59 10.69 34.30 7.44 31.00 4.19 C 30.07 5.12 29.13 6.06 28.20 7.00 M 47.26 26.77 C 48.66 31.78 48.05 37.51 44.70 41.63 C 41.52 45.93 36.19 48.23 30.90 48.07 C 32.50 46.33 34.16 44.66 35.82 42.98 C 34.88 42.05 33.94 41.12 32.99 40.19 C 29.72 43.47 26.40 46.69 23.17 50.00 C 26.43 53.29 29.73 56.53 33.00 59.81 C 33.95 58.88 34.89 57.94 35.84 57.00 C 34.22 55.36 32.59 53.73 30.94 52.12 C 36.03 52.05 41.22 50.56 45.06 47.10 C 51.60 41.59 54.00 31.57 50.14 23.85 C 49.17 24.81 48.21 25.79 47.26 26.77 Z" />
</g>
<g id="#000000ff">
<path fill="#000000" opacity="1.00" d=" M 28.20 7.00 C 29.13 6.06 30.07 5.12 31.00 4.19 C 34.30 7.44 37.59 10.69 40.83 14.00 C 37.59 17.31 34.29 20.55 31.00 23.81 C 30.06 22.88 29.13 21.94 28.20 21.00 C 29.85 19.33 31.51 17.66 33.10 15.93 C 26.59 15.63 20.15 19.43 17.47 25.40 C 15.60 29.07 15.83 33.35 16.78 37.26 C 15.76 38.24 14.73 39.20 13.67 40.15 C 10.54 32.98 11.93 24.08 17.38 18.41 C 21.33 14.01 27.25 11.87 33.09 11.89 C 31.44 10.27 29.82 8.64 28.20 7.00 Z" />
<path fill="#000000" opacity="1.00" d=" M 47.26 26.77 C 48.21 25.79 49.17 24.81 50.14 23.85 C 54.00 31.57 51.60 41.59 45.06 47.10 C 41.22 50.56 36.03 52.05 30.94 52.12 C 32.59 53.73 34.22 55.36 35.84 57.00 C 34.89 57.94 33.95 58.88 33.00 59.81 C 29.73 56.53 26.43 53.29 23.17 50.00 C 26.40 46.69 29.72 43.47 32.99 40.19 C 33.94 41.12 34.88 42.05 35.82 42.98 C 34.16 44.66 32.50 46.33 30.90 48.07 C 36.19 48.23 41.52 45.93 44.70 41.63 C 48.05 37.51 48.66 31.78 47.26 26.77 Z" />
</g>
</svg>
