<?xml version="1.0" encoding="UTF-8" ?>
<!DOCTYPE svg PUBLIC "-//W3C//DTD SVG 1.1//EN" "http://www.w3.org/Graphics/SVG/1.1/DTD/svg11.dtd">
<svg width="60pt" height="60pt" viewBox="0 0 60 60" version="1.1" xmlns="http://www.w3.org/2000/svg">
<g id="#ffffffff">
<path fill="#ffffff" opacity="1.00" d=" M 0.00 0.00 L 60.00 0.00 L 60.00 60.00 L 0.00 60.00 L 0.00 0.00 M 8.27 8.42 C 6.58 9.22 5.81 11.13 6.00 12.91 C 6.03 21.97 5.93 31.03 6.05 40.09 C 5.93 42.63 8.59 44.33 10.93 44.00 C 23.62 44.00 36.31 44.00 49.00 44.00 C 51.37 44.37 54.00 42.62 53.95 40.09 C 54.07 31.03 53.97 21.96 54.00 12.90 C 54.32 10.58 52.63 7.95 50.11 8.05 C 37.74 7.91 25.36 8.06 12.99 7.98 C 11.43 8.09 9.74 7.75 8.27 8.42 M 19.18 48.18 C 17.32 48.86 17.79 51.98 19.85 51.90 C 26.60 52.07 33.38 52.07 40.14 51.91 C 42.61 52.04 42.54 47.86 40.06 48.09 C 33.11 47.99 26.12 47.82 19.18 48.18 Z" />
<path fill="#ffffff" opacity="1.00" d=" M 10.00 12.00 C 23.33 12.00 36.67 12.00 50.00 12.00 C 50.00 20.00 50.00 28.00 50.00 36.00 C 36.67 36.00 23.33 36.00 10.00 36.00 C 10.00 33.33 10.00 30.67 10.00 28.00 C 12.29 28.00 14.60 28.14 16.87 27.81 C 18.12 26.65 18.96 25.15 19.94 23.76 C 21.52 26.30 22.86 29.01 24.67 31.39 C 25.38 32.48 27.47 32.13 27.74 30.78 C 28.81 28.34 29.50 25.76 30.33 23.24 C 31.23 24.78 31.77 26.62 33.12 27.84 C 36.34 28.11 39.60 28.17 42.82 27.81 C 44.38 27.22 44.39 24.82 42.86 24.20 C 40.33 23.82 37.77 24.02 35.22 24.01 C 33.97 21.55 32.93 18.96 31.39 16.66 C 30.72 15.51 28.51 15.85 28.25 17.24 C 27.12 19.83 26.41 22.58 25.48 25.24 C 23.97 22.85 22.79 20.22 20.86 18.13 C 17.61 17.69 16.76 22.03 14.93 24.00 C 13.29 24.00 11.64 24.00 10.00 24.00 C 10.00 20.00 10.00 16.00 10.00 12.00 Z" />
<path fill="#ffffff" opacity="1.00" d=" M 29.13 38.11 C 31.47 37.11 33.16 40.65 30.91 41.80 C 28.51 43.01 26.81 39.26 29.13 38.11 Z" />
</g>
<g id="#000000ff">
<path fill="#968176" opacity="1.00" d=" M 8.27 8.42 C 9.74 7.75 11.43 8.09 12.99 7.98 C 25.36 8.06 37.74 7.91 50.11 8.05 C 52.63 7.95 54.32 10.58 54.00 12.90 C 53.97 21.96 54.07 31.03 53.95 40.09 C 54.00 42.62 51.37 44.37 49.00 44.00 C 36.31 44.00 23.62 44.00 10.93 44.00 C 8.59 44.33 5.93 42.63 6.05 40.09 C 5.93 31.03 6.03 21.97 6.00 12.91 C 5.81 11.13 6.58 9.22 8.27 8.42 M 10.00 12.00 C 10.00 16.00 10.00 20.00 10.00 24.00 C 11.64 24.00 13.29 24.00 14.93 24.00 C 16.76 22.03 17.61 17.69 20.86 18.13 C 22.79 20.22 23.97 22.85 25.48 25.24 C 26.41 22.58 27.12 19.83 28.25 17.24 C 28.51 15.85 30.72 15.51 31.39 16.66 C 32.93 18.96 33.97 21.55 35.22 24.01 C 37.77 24.02 40.33 23.82 42.86 24.20 C 44.39 24.82 44.38 27.22 42.82 27.81 C 39.60 28.17 36.34 28.11 33.12 27.84 C 31.77 26.62 31.23 24.78 30.33 23.24 C 29.50 25.76 28.81 28.34 27.74 30.78 C 27.47 32.13 25.38 32.48 24.67 31.39 C 22.86 29.01 21.52 26.30 19.94 23.76 C 18.96 25.15 18.12 26.65 16.87 27.81 C 14.60 28.14 12.29 28.00 10.00 28.00 C 10.00 30.67 10.00 33.33 10.00 36.00 C 23.33 36.00 36.67 36.00 50.00 36.00 C 50.00 28.00 50.00 20.00 50.00 12.00 C 36.67 12.00 23.33 12.00 10.00 12.00 M 29.13 38.11 C 26.81 39.26 28.51 43.01 30.91 41.80 C 33.16 40.65 31.47 37.11 29.13 38.11 Z" />
<path fill="#968176" opacity="1.00" d=" M 19.18 48.18 C 26.12 47.82 33.11 47.99 40.06 48.09 C 42.54 47.86 42.61 52.04 40.14 51.91 C 33.38 52.07 26.60 52.07 19.85 51.90 C 17.79 51.98 17.32 48.86 19.18 48.18 Z" />
</g>
</svg>
