<?xml version="1.0" encoding="UTF-8" ?>
<!DOCTYPE svg PUBLIC "-//W3C//DTD SVG 1.1//EN" "http://www.w3.org/Graphics/SVG/1.1/DTD/svg11.dtd">
<svg width="60pt" height="60pt" viewBox="0 0 60 60" version="1.1" xmlns="http://www.w3.org/2000/svg">
<g id="#ffffffff">
<path fill="#ffffff" opacity="1.00" d=" M 0.00 0.00 L 60.00 0.00 L 60.00 60.00 L 0.00 60.00 L 0.00 0.00 M 24.60 5.42 C 23.70 6.86 23.64 10.05 25.95 9.93 C 28.43 10.29 27.51 5.79 29.97 6.07 C 32.90 6.17 31.70 10.12 32.06 12.03 C 31.77 14.70 33.66 16.74 35.71 18.11 C 34.95 20.82 33.29 24.12 29.98 23.99 C 26.72 24.13 25.18 20.87 24.21 18.30 C 24.88 18.15 26.21 17.86 26.88 17.72 C 28.85 16.98 27.97 13.79 25.92 14.02 C 22.51 13.85 19.29 15.24 16.01 15.95 C 12.88 16.91 9.51 17.20 6.53 18.60 C 5.43 21.78 6.07 25.50 6.17 28.87 C 8.04 31.03 11.48 29.61 14.00 30.00 C 14.12 36.94 13.76 43.91 14.16 50.84 C 14.40 51.08 14.86 51.58 15.09 51.82 C 23.70 52.26 32.34 51.85 40.96 52.02 C 42.57 51.79 44.83 52.59 45.82 50.87 C 46.25 43.93 45.87 36.95 46.00 30.00 C 48.52 29.62 51.94 31.02 53.82 28.88 C 53.91 25.51 54.63 21.70 53.40 18.56 C 48.13 16.48 42.37 15.89 37.01 14.07 C 34.70 11.74 37.10 7.60 35.07 4.90 C 32.94 0.83 26.38 1.24 24.60 5.42 Z" />
</g>
<g id="#000000ff">
<path fill="#000000" opacity="1.00" d=" M 24.60 5.42 C 26.38 1.24 32.94 0.83 35.07 4.90 C 37.10 7.60 34.70 11.74 37.01 14.07 C 42.37 15.89 48.13 16.48 53.40 18.56 C 54.63 21.70 53.91 25.51 53.82 28.88 C 51.94 31.02 48.52 29.62 46.00 30.00 C 45.87 36.95 46.25 43.93 45.82 50.87 C 44.83 52.59 42.57 51.79 40.96 52.02 C 32.34 51.85 23.70 52.26 15.09 51.82 C 14.86 51.58 14.40 51.08 14.16 50.84 C 13.76 43.91 14.12 36.94 14.00 30.00 C 11.48 29.61 8.04 31.03 6.17 28.87 C 6.07 25.50 5.43 21.78 6.53 18.60 C 9.51 17.20 12.88 16.91 16.01 15.95 C 19.29 15.24 22.51 13.85 25.92 14.02 C 27.97 13.79 28.85 16.98 26.88 17.72 C 26.21 17.86 24.88 18.15 24.21 18.30 C 25.18 20.87 26.72 24.13 29.98 23.99 C 33.29 24.12 34.95 20.82 35.71 18.11 C 33.66 16.74 31.77 14.70 32.06 12.03 C 31.70 10.12 32.90 6.17 29.97 6.07 C 27.51 5.79 28.43 10.29 25.95 9.93 C 23.64 10.05 23.70 6.86 24.60 5.42 Z" />
</g>
</svg>
