<?xml version="1.0" encoding="UTF-8" ?>
<!DOCTYPE svg PUBLIC "-//W3C//DTD SVG 1.1//EN" "http://www.w3.org/Graphics/SVG/1.1/DTD/svg11.dtd">
<svg width="60pt" height="60pt" viewBox="0 0 60 60" version="1.1" xmlns="http://www.w3.org/2000/svg">
<g id="#ffffffff">
<path fill="#ffffff" opacity="1.00" d=" M 0.00 0.00 L 60.00 0.00 L 60.00 60.00 L 0.00 60.00 L 0.00 0.00 M 17.27 5.74 C 23.34 8.00 29.54 9.89 35.70 11.90 C 27.78 12.15 19.85 11.87 11.93 12.05 C 8.79 11.95 5.96 14.75 6.05 17.88 C 5.91 27.26 6.06 36.64 5.98 46.02 C 6.10 47.37 5.76 49.06 7.13 49.90 C 8.71 50.39 9.60 49.20 10.33 48.02 C 23.43 47.99 36.53 47.97 49.64 48.03 C 50.49 49.07 51.26 50.47 52.85 49.90 C 54.26 49.07 53.89 47.35 54.02 45.98 C 53.94 36.62 54.09 27.25 53.95 17.89 C 53.99 15.43 52.28 13.06 49.89 12.42 C 39.49 9.14 29.19 5.52 18.80 2.20 C 16.43 0.93 14.65 5.08 17.27 5.74 Z" />
<path fill="#ffffff" opacity="1.00" d=" M 37.32 22.47 C 41.31 20.94 46.20 23.27 47.52 27.33 C 49.05 31.30 46.74 36.15 42.72 37.50 C 38.74 39.08 33.83 36.74 32.48 32.69 C 30.94 28.70 33.25 23.80 37.32 22.47 M 39.11 28.10 C 36.92 29.29 38.39 32.82 40.80 31.89 C 43.18 30.81 41.56 27.10 39.11 28.10 Z" />
<path fill="#ffffff" opacity="1.00" d=" M 13.16 24.16 C 17.05 23.87 20.98 23.86 24.86 24.17 C 26.35 24.89 26.33 27.06 24.90 27.82 C 20.97 28.14 16.99 28.14 13.06 27.82 C 11.67 27.02 11.66 24.85 13.16 24.16 Z" />
<path fill="#ffffff" opacity="1.00" d=" M 13.15 32.17 C 17.04 31.86 20.98 31.86 24.87 32.17 C 26.35 32.89 26.36 35.15 24.85 35.82 C 20.97 36.15 17.04 36.13 13.16 35.84 C 11.64 35.16 11.63 32.85 13.15 32.17 Z" />
</g>
<g id="#000000ff">
<path fill="#968176" opacity="1.00" d=" M 17.27 5.74 C 14.65 5.08 16.43 0.93 18.80 2.20 C 29.19 5.52 39.49 9.14 49.89 12.42 C 52.28 13.06 53.99 15.43 53.95 17.89 C 54.09 27.25 53.94 36.62 54.02 45.98 C 53.89 47.35 54.26 49.07 52.85 49.90 C 51.26 50.47 50.49 49.07 49.64 48.03 C 36.53 47.97 23.43 47.99 10.33 48.02 C 9.60 49.20 8.71 50.39 7.13 49.90 C 5.76 49.06 6.10 47.37 5.98 46.02 C 6.06 36.64 5.91 27.26 6.05 17.88 C 5.96 14.75 8.79 11.95 11.93 12.05 C 19.85 11.87 27.78 12.15 35.70 11.90 C 29.54 9.89 23.34 8.00 17.27 5.74 M 37.32 22.47 C 33.25 23.80 30.94 28.70 32.48 32.69 C 33.83 36.74 38.74 39.08 42.72 37.50 C 46.74 36.15 49.05 31.30 47.52 27.33 C 46.20 23.27 41.31 20.94 37.32 22.47 M 13.16 24.16 C 11.66 24.85 11.67 27.02 13.06 27.82 C 16.99 28.14 20.97 28.14 24.90 27.82 C 26.33 27.06 26.35 24.89 24.86 24.17 C 20.98 23.86 17.05 23.87 13.16 24.16 M 13.15 32.17 C 11.63 32.85 11.64 35.16 13.16 35.84 C 17.04 36.13 20.97 36.15 24.85 35.82 C 26.36 35.15 26.35 32.89 24.87 32.17 C 20.98 31.86 17.04 31.86 13.15 32.17 Z" />
<path fill="#968176" opacity="1.00" d=" M 39.11 28.10 C 41.56 27.10 43.18 30.81 40.80 31.89 C 38.39 32.82 36.92 29.29 39.11 28.10 Z" />
</g>
</svg>
