<?xml version="1.0" encoding="UTF-8" ?>
<!DOCTYPE svg PUBLIC "-//W3C//DTD SVG 1.1//EN" "http://www.w3.org/Graphics/SVG/1.1/DTD/svg11.dtd">
<svg width="64pt" height="64pt" viewBox="0 0 64 64" version="1.1" xmlns="http://www.w3.org/2000/svg">
<g id="#ffffffff">
<path fill="#ffffff" opacity="1.00" d=" M 0.00 0.00 L 64.00 0.00 L 64.00 64.00 L 0.00 64.00 L 0.00 0.00 M 29.14 8.00 C 21.15 15.99 13.11 23.94 5.19 32.00 C 12.07 39.00 19.03 45.92 26.00 52.83 C 34.06 44.91 42.02 36.87 50.00 28.86 C 50.00 21.91 50.00 14.95 50.00 8.00 C 43.05 8.00 36.09 8.00 29.14 8.00 M 52.00 14.00 C 52.00 15.33 52.00 16.66 52.00 17.99 C 52.50 17.99 53.50 18.01 54.00 18.02 C 53.93 23.39 54.13 28.77 53.93 34.13 C 47.92 40.74 41.27 46.79 35.00 53.18 C 34.17 52.35 33.34 51.53 32.51 50.70 C 31.57 51.62 30.63 52.55 29.69 53.48 C 31.44 55.28 33.21 57.05 34.98 58.82 C 42.64 51.22 50.38 43.68 58.00 36.04 C 58.00 28.69 58.00 21.35 58.00 14.00 C 56.00 14.00 54.00 14.00 52.00 14.00 Z" />
<path fill="#ffffff" opacity="1.00" d=" M 10.91 32.00 C 17.56 25.32 24.23 18.66 30.91 12.00 C 35.94 12.00 40.97 12.00 46.00 12.00 C 46.00 17.04 46.00 22.08 46.00 27.12 C 39.34 33.78 32.68 40.45 26.02 47.11 C 20.99 42.07 15.92 37.06 10.91 32.00 M 39.21 16.10 C 36.80 17.07 38.46 20.99 40.79 19.80 C 43.21 18.91 41.54 15.09 39.21 16.10 Z" />
</g>
<g id="#000000ff">
<path fill="#000000" opacity="1.00" d=" M 29.14 8.00 C 36.09 8.00 43.05 8.00 50.00 8.00 C 50.00 14.95 50.00 21.91 50.00 28.86 C 42.02 36.87 34.06 44.91 26.00 52.83 C 19.03 45.92 12.07 39.00 5.19 32.00 C 13.11 23.94 21.15 15.99 29.14 8.00 M 10.91 32.00 C 15.92 37.06 20.99 42.07 26.02 47.11 C 32.68 40.45 39.34 33.78 46.00 27.12 C 46.00 22.08 46.00 17.04 46.00 12.00 C 40.97 12.00 35.94 12.00 30.91 12.00 C 24.23 18.66 17.56 25.32 10.91 32.00 Z" />
<path fill="#000000" opacity="1.00" d=" M 52.00 14.00 C 54.00 14.00 56.00 14.00 58.00 14.00 C 58.00 21.35 58.00 28.69 58.00 36.04 C 50.38 43.68 42.64 51.22 34.98 58.82 C 33.21 57.05 31.44 55.28 29.69 53.48 C 30.63 52.55 31.57 51.62 32.51 50.70 C 33.34 51.53 34.17 52.35 35.00 53.18 C 41.27 46.79 47.92 40.74 53.93 34.13 C 54.13 28.77 53.93 23.39 54.00 18.02 C 53.50 18.01 52.50 17.99 52.00 17.99 C 52.00 16.66 52.00 15.33 52.00 14.00 Z" />
<path fill="#000000" opacity="1.00" d=" M 39.21 16.10 C 41.54 15.09 43.21 18.91 40.79 19.80 C 38.46 20.99 36.80 17.07 39.21 16.10 Z" />
</g>
</svg>
