<?xml version="1.0" encoding="UTF-8" ?>
<!DOCTYPE svg PUBLIC "-//W3C//DTD SVG 1.1//EN" "http://www.w3.org/Graphics/SVG/1.1/DTD/svg11.dtd">
<svg width="60pt" height="60pt" viewBox="0 0 60 60" version="1.1" xmlns="http://www.w3.org/2000/svg">
<g id="#ffffffff">
<path fill="#ffffff" opacity="1.00" d=" M 0.00 0.00 L 60.00 0.00 L 60.00 15.01 C 59.13 14.10 58.12 13.82 56.97 14.17 C 45.74 16.56 34.53 19.04 23.29 21.39 C 21.05 19.06 17.12 19.91 16.02 22.93 C 10.76 24.52 4.86 24.52 0.00 27.04 L 0.00 0.00 Z" />
<path fill="#ffffff" opacity="1.00" d=" M 55.16 18.70 C 56.82 18.28 58.66 18.19 60.00 16.99 L 60.00 39.52 C 59.59 38.06 57.73 37.49 56.66 38.53 C 53.97 42.15 51.24 46.20 46.85 47.89 C 44.22 48.38 41.97 46.46 40.28 44.70 C 34.81 38.61 31.72 30.75 25.94 24.92 C 35.68 22.87 45.40 20.70 55.16 18.70 Z" />
<path fill="#ffffff" opacity="1.00" d=" M 3.80 40.85 C 7.21 35.44 11.11 29.80 17.03 26.94 C 18.72 28.15 20.74 28.22 22.61 27.34 C 28.74 33.18 31.71 41.48 37.52 47.60 C 40.24 50.57 44.39 53.00 48.51 51.60 C 53.63 49.65 57.08 44.96 60.00 40.54 L 60.00 60.00 L 0.00 60.00 L 0.00 40.54 C 0.50 42.26 3.08 42.51 3.80 40.85 Z" />
<path fill="#ffffff" opacity="1.00" d=" M 0.00 28.49 C 1.54 31.57 5.37 28.76 7.81 28.80 C 4.83 32.08 2.16 35.64 0.00 39.50 L 0.00 28.49 Z" />
</g>
<g id="#000000ff">
<path fill="#000000" opacity="1.00" d=" M 23.29 21.39 C 34.53 19.04 45.74 16.56 56.97 14.17 C 58.12 13.82 59.13 14.10 60.00 15.01 L 60.00 16.99 C 58.66 18.19 56.82 18.28 55.16 18.70 C 45.40 20.70 35.68 22.87 25.94 24.92 C 31.72 30.75 34.81 38.61 40.28 44.70 C 41.97 46.46 44.22 48.38 46.85 47.89 C 51.24 46.20 53.97 42.15 56.66 38.53 C 57.73 37.49 59.59 38.06 60.00 39.52 L 60.00 40.54 C 57.08 44.96 53.63 49.65 48.51 51.60 C 44.39 53.00 40.24 50.57 37.52 47.60 C 31.71 41.48 28.74 33.18 22.61 27.34 C 20.74 28.22 18.72 28.15 17.03 26.94 C 11.11 29.80 7.21 35.44 3.80 40.85 C 3.08 42.51 0.50 42.26 0.00 40.54 L 0.00 39.50 C 2.16 35.64 4.83 32.08 7.81 28.80 C 5.37 28.76 1.54 31.57 0.00 28.49 L 0.00 27.04 C 4.86 24.52 10.76 24.52 16.02 22.93 C 17.12 19.91 21.05 19.06 23.29 21.39 Z" />
</g>
</svg>
