<?xml version="1.0" encoding="UTF-8" ?>
<!DOCTYPE svg PUBLIC "-//W3C//DTD SVG 1.1//EN" "http://www.w3.org/Graphics/SVG/1.1/DTD/svg11.dtd">
<svg width="64pt" height="64pt" viewBox="0 0 64 64" version="1.1" xmlns="http://www.w3.org/2000/svg">
<g id="#ffffffff">
<path fill="#ffffff" opacity="1.00" d=" M 0.00 0.00 L 64.00 0.00 L 64.00 64.00 L 0.00 64.00 L 0.00 0.00 M 23.14 16.00 C 21.43 17.71 19.71 19.42 18.00 21.13 C 18.00 23.43 18.00 25.72 18.00 28.01 C 15.79 28.01 13.55 27.82 11.35 28.16 C 8.73 29.47 6.50 31.41 3.99 32.91 C 4.15 35.26 3.40 37.94 4.88 40.00 C 7.06 43.10 8.86 46.82 12.40 48.61 C 15.93 50.53 20.11 49.90 23.97 50.01 C 32.02 49.84 40.08 50.31 48.11 49.77 C 53.52 49.14 56.46 44.14 59.12 40.00 C 60.60 37.95 59.85 35.26 60.01 32.92 C 57.53 31.38 55.29 29.41 52.63 28.16 C 49.11 27.73 45.54 28.12 42.00 28.00 C 42.00 26.67 42.00 25.33 42.00 24.00 C 48.00 24.00 54.00 24.00 60.00 24.00 C 60.00 22.67 60.00 21.33 60.00 20.00 C 53.64 20.00 47.28 20.00 40.92 20.00 C 39.56 18.67 38.21 17.32 36.85 15.99 C 32.28 16.00 27.71 16.00 23.14 16.00 Z" />
<path fill="#ffffff" opacity="1.00" d=" M 21.99 22.88 C 22.96 21.93 23.93 20.97 24.88 19.99 C 28.29 20.00 31.71 20.00 35.12 19.99 C 36.07 20.97 37.03 21.93 38.01 22.88 C 38.00 24.58 38.00 26.29 38.00 28.00 C 32.67 28.00 27.33 28.00 22.00 28.00 C 22.00 26.29 22.00 24.58 21.99 22.88 Z" />
<path fill="#ffffff" opacity="1.00" d=" M 9.69 33.93 C 11.00 33.21 12.17 31.92 13.79 32.02 C 25.90 31.98 38.02 31.99 50.13 32.02 C 51.81 31.91 53.05 33.22 54.43 33.95 C 39.52 34.03 24.60 34.05 9.69 33.93 Z" />
<path fill="#ffffff" opacity="1.00" d=" M 8.46 38.00 C 24.15 38.00 39.85 38.00 55.54 38.00 C 54.16 40.07 52.93 42.27 51.24 44.12 C 49.07 46.27 45.82 45.97 43.03 46.02 C 34.34 45.89 25.64 46.17 16.96 45.89 C 12.48 45.76 10.65 41.13 8.46 38.00 M 15.15 40.17 C 12.79 41.24 14.52 44.91 16.87 43.89 C 19.15 42.75 17.51 39.05 15.15 40.17 M 23.20 40.20 C 20.75 41.04 22.53 45.01 24.77 43.82 C 27.27 42.97 25.50 38.97 23.20 40.20 M 31.15 40.11 C 28.88 41.24 30.41 44.87 32.84 43.89 C 35.13 42.75 33.58 39.14 31.15 40.11 M 39.14 40.11 C 36.84 41.29 38.47 44.90 40.90 43.86 C 43.11 42.68 41.54 39.13 39.14 40.11 M 47.17 40.17 C 44.81 41.20 46.46 44.87 48.84 43.89 C 51.15 42.81 49.54 39.05 47.17 40.17 Z" />
</g>
<g id="#000000ff">
<path fill="#000000" opacity="1.00" d=" M 23.14 16.00 C 27.71 16.00 32.28 16.00 36.85 15.99 C 38.21 17.32 39.56 18.67 40.92 20.00 C 47.28 20.00 53.64 20.00 60.00 20.00 C 60.00 21.33 60.00 22.67 60.00 24.00 C 54.00 24.00 48.00 24.00 42.00 24.00 C 42.00 25.33 42.00 26.67 42.00 28.00 C 45.54 28.12 49.11 27.73 52.63 28.16 C 55.29 29.41 57.53 31.38 60.01 32.92 C 59.85 35.26 60.60 37.95 59.12 40.00 C 56.46 44.14 53.52 49.14 48.11 49.77 C 40.08 50.31 32.02 49.84 23.97 50.01 C 20.11 49.90 15.93 50.53 12.40 48.61 C 8.86 46.82 7.06 43.10 4.88 40.00 C 3.40 37.94 4.15 35.26 3.99 32.91 C 6.50 31.41 8.73 29.47 11.35 28.16 C 13.55 27.82 15.79 28.01 18.00 28.01 C 18.00 25.72 18.00 23.43 18.00 21.13 C 19.71 19.42 21.43 17.71 23.14 16.00 M 21.99 22.88 C 22.00 24.58 22.00 26.29 22.00 28.00 C 27.33 28.00 32.67 28.00 38.00 28.00 C 38.00 26.29 38.00 24.58 38.01 22.88 C 37.03 21.93 36.07 20.97 35.12 19.99 C 31.71 20.00 28.29 20.00 24.88 19.99 C 23.93 20.97 22.96 21.93 21.99 22.88 M 9.69 33.93 C 24.60 34.05 39.52 34.03 54.43 33.95 C 53.05 33.22 51.81 31.91 50.13 32.02 C 38.02 31.99 25.90 31.98 13.79 32.02 C 12.17 31.92 11.00 33.21 9.69 33.93 M 8.46 38.00 C 10.65 41.13 12.48 45.76 16.96 45.89 C 25.64 46.17 34.34 45.89 43.03 46.02 C 45.82 45.97 49.07 46.27 51.24 44.12 C 52.93 42.27 54.16 40.07 55.54 38.00 C 39.85 38.00 24.15 38.00 8.46 38.00 Z" />
<path fill="#000000" opacity="1.00" d=" M 15.15 40.17 C 17.51 39.05 19.15 42.75 16.87 43.89 C 14.52 44.91 12.79 41.24 15.15 40.17 Z" />
<path fill="#000000" opacity="1.00" d=" M 23.20 40.20 C 25.50 38.97 27.27 42.97 24.77 43.82 C 22.53 45.01 20.75 41.04 23.20 40.20 Z" />
<path fill="#000000" opacity="1.00" d=" M 31.15 40.11 C 33.58 39.14 35.13 42.75 32.84 43.89 C 30.41 44.87 28.88 41.24 31.15 40.11 Z" />
<path fill="#000000" opacity="1.00" d=" M 39.14 40.11 C 41.54 39.13 43.11 42.68 40.90 43.86 C 38.47 44.90 36.84 41.29 39.14 40.11 Z" />
<path fill="#000000" opacity="1.00" d=" M 47.17 40.17 C 49.54 39.05 51.15 42.81 48.84 43.89 C 46.46 44.87 44.81 41.20 47.17 40.17 Z" />
</g>
</svg>
