<?xml version="1.0" encoding="UTF-8" ?>
<!DOCTYPE svg PUBLIC "-//W3C//DTD SVG 1.1//EN" "http://www.w3.org/Graphics/SVG/1.1/DTD/svg11.dtd">
<svg width="60pt" height="60pt" viewBox="0 0 60 60" version="1.1" xmlns="http://www.w3.org/2000/svg">
<g id="#ffffffff">
<path fill="#ffffff" opacity="1.00" d=" M 0.00 0.00 L 60.00 0.00 L 60.00 60.00 L 0.00 60.00 L 0.00 0.00 M 14.29 12.94 C 15.40 17.19 20.53 19.13 24.38 17.24 C 25.31 18.16 26.24 19.09 27.20 19.98 C 24.40 22.92 21.28 25.57 18.69 28.70 C 17.38 30.22 18.49 32.07 19.23 33.54 C 24.73 28.17 30.12 22.67 35.59 17.26 C 37.55 17.76 39.69 18.41 41.63 17.46 C 45.59 15.98 47.31 10.62 44.82 7.17 C 42.60 3.51 36.92 2.94 34.03 6.10 C 31.73 8.24 31.69 11.65 32.75 14.42 C 31.83 15.33 30.91 16.25 30.00 17.18 C 29.09 16.25 28.17 15.33 27.25 14.41 C 29.11 10.56 27.22 5.43 22.97 4.30 C 17.97 2.55 12.56 7.93 14.29 12.94 M 4.00 26.95 C 4.03 34.67 3.92 42.40 4.05 50.13 C 3.96 52.66 6.58 54.35 8.92 54.00 C 23.30 53.97 37.68 54.07 52.06 53.95 C 54.13 54.04 56.03 52.17 55.95 50.10 C 56.04 42.03 56.04 33.95 55.95 25.88 C 56.02 23.82 54.12 21.96 52.06 22.05 C 46.71 21.90 41.35 22.06 35.99 22.00 C 34.67 23.33 33.34 24.66 32.00 26.00 C 37.26 26.01 42.51 25.98 47.76 26.01 C 48.22 28.20 49.86 29.70 51.99 30.24 C 52.01 35.41 52.01 40.58 51.99 45.75 C 49.84 46.28 48.27 47.84 47.75 49.99 C 35.92 50.01 24.08 50.01 12.25 49.99 C 11.70 47.86 10.21 46.21 8.01 45.76 C 7.99 40.59 7.99 35.42 8.01 30.25 C 10.15 29.71 11.71 28.16 12.24 26.02 C 13.71 25.99 15.18 25.99 16.65 25.99 C 17.97 24.66 19.29 23.33 20.62 22.00 C 16.10 22.10 11.57 21.79 7.05 22.14 C 4.87 22.55 3.75 24.88 4.00 26.95 M 24.55 32.43 C 20.95 36.15 21.34 42.49 24.98 46.05 C 28.34 45.97 31.71 45.98 35.07 46.04 C 38.62 42.45 39.04 36.17 35.46 32.45 C 32.70 29.26 27.32 29.26 24.55 32.43 M 13.26 36.12 C 10.74 36.98 12.49 41.10 14.84 39.79 C 17.16 38.86 15.55 35.11 13.26 36.12 M 45.15 36.10 C 42.84 37.27 44.46 40.90 46.89 39.87 C 49.11 38.68 47.55 35.15 45.15 36.10 Z" />
<path fill="#ffffff" opacity="1.00" d=" M 19.32 8.53 C 21.18 7.14 24.13 8.71 23.99 11.04 C 24.05 13.33 21.20 14.82 19.35 13.49 C 17.61 12.46 17.58 9.58 19.32 8.53 Z" />
<path fill="#ffffff" opacity="1.00" d=" M 37.31 8.52 C 40.51 6.16 43.95 11.56 40.62 13.51 C 37.46 15.75 34.11 10.51 37.31 8.52 Z" />
</g>
<g id="#000000ff">
<path fill="#000000" opacity="1.00" d=" M 14.29 12.94 C 12.56 7.93 17.97 2.55 22.97 4.30 C 27.22 5.43 29.11 10.56 27.25 14.41 C 28.17 15.33 29.09 16.25 30.00 17.18 C 30.91 16.25 31.83 15.33 32.75 14.42 C 31.69 11.65 31.73 8.24 34.03 6.10 C 36.92 2.94 42.60 3.51 44.82 7.17 C 47.31 10.62 45.59 15.98 41.63 17.46 C 39.69 18.41 37.55 17.76 35.59 17.26 C 30.12 22.67 24.73 28.17 19.23 33.54 C 18.49 32.07 17.38 30.22 18.69 28.70 C 21.28 25.57 24.40 22.92 27.20 19.98 C 26.24 19.09 25.31 18.16 24.38 17.24 C 20.53 19.13 15.40 17.19 14.29 12.94 M 19.32 8.53 C 17.58 9.58 17.61 12.46 19.35 13.49 C 21.20 14.82 24.05 13.33 23.99 11.04 C 24.13 8.71 21.18 7.14 19.32 8.53 M 37.31 8.52 C 34.11 10.51 37.46 15.75 40.62 13.51 C 43.95 11.56 40.51 6.16 37.31 8.52 Z" />
<path fill="#000000" opacity="1.00" d=" M 4.00 26.95 C 3.75 24.88 4.87 22.55 7.05 22.14 C 11.57 21.79 16.10 22.10 20.62 22.00 C 19.29 23.33 17.97 24.66 16.65 25.99 C 15.18 25.99 13.71 25.99 12.24 26.02 C 11.71 28.16 10.15 29.71 8.01 30.25 C 7.99 35.42 7.99 40.59 8.01 45.76 C 10.21 46.21 11.70 47.86 12.25 49.99 C 24.08 50.01 35.92 50.01 47.75 49.99 C 48.27 47.84 49.84 46.28 51.99 45.75 C 52.01 40.58 52.01 35.41 51.99 30.24 C 49.86 29.70 48.22 28.20 47.76 26.01 C 42.51 25.98 37.26 26.01 32.00 26.00 C 33.34 24.66 34.67 23.33 35.99 22.00 C 41.35 22.06 46.71 21.90 52.06 22.05 C 54.12 21.96 56.02 23.82 55.95 25.88 C 56.04 33.95 56.04 42.03 55.95 50.10 C 56.03 52.17 54.13 54.04 52.06 53.95 C 37.68 54.07 23.30 53.97 8.92 54.00 C 6.58 54.35 3.96 52.66 4.05 50.13 C 3.92 42.40 4.03 34.67 4.00 26.95 Z" />
<path fill="#000000" opacity="1.00" d=" M 24.55 32.43 C 27.32 29.26 32.70 29.26 35.46 32.45 C 39.04 36.17 38.62 42.45 35.07 46.04 C 31.71 45.98 28.34 45.97 24.98 46.05 C 21.34 42.49 20.95 36.15 24.55 32.43 Z" />
<path fill="#000000" opacity="1.00" d=" M 13.26 36.12 C 15.55 35.11 17.16 38.86 14.84 39.79 C 12.49 41.10 10.74 36.98 13.26 36.12 Z" />
<path fill="#000000" opacity="1.00" d=" M 45.15 36.10 C 47.55 35.15 49.11 38.68 46.89 39.87 C 44.46 40.90 42.84 37.27 45.15 36.10 Z" />
</g>
</svg>
