<?xml version="1.0" encoding="UTF-8" ?>
<!DOCTYPE svg PUBLIC "-//W3C//DTD SVG 1.1//EN" "http://www.w3.org/Graphics/SVG/1.1/DTD/svg11.dtd">
<svg width="60pt" height="60pt" viewBox="0 0 60 60" version="1.1" xmlns="http://www.w3.org/2000/svg">
<g id="#ffffffff">
<path fill="#ffffff" opacity="1.00" d=" M 0.00 0.00 L 60.00 0.00 L 60.00 60.00 L 0.00 60.00 L 0.00 0.00 M 24.47 4.70 C 14.32 7.16 6.91 17.58 8.11 28.00 C 8.80 36.64 15.33 43.30 22.28 47.73 C 25.68 49.58 26.85 53.41 28.29 56.73 C 28.65 58.40 31.36 58.38 31.72 56.71 C 33.12 53.66 34.06 50.03 37.13 48.18 C 42.45 44.62 47.69 40.35 50.26 34.31 C 53.58 26.81 51.95 17.55 46.50 11.47 C 41.20 5.31 32.32 2.60 24.47 4.70 Z" />
<path fill="#ffffff" opacity="1.00" d=" M 25.43 12.80 C 32.70 10.06 41.49 14.67 43.42 22.17 C 45.69 29.38 40.94 37.72 33.61 39.48 C 26.26 41.68 17.89 36.59 16.39 29.10 C 14.68 22.38 18.86 14.93 25.43 12.80 M 20.00 22.00 C 20.00 23.33 20.00 24.67 20.00 26.00 C 21.33 26.00 22.67 26.00 24.00 26.00 C 24.00 24.67 24.00 23.33 24.00 22.00 C 22.67 22.00 21.33 22.00 20.00 22.00 M 28.00 22.00 C 28.00 23.33 28.00 24.67 28.00 26.00 C 29.33 26.00 30.67 26.00 32.00 26.00 C 32.00 24.67 32.00 23.33 32.00 22.00 C 30.67 22.00 29.33 22.00 28.00 22.00 M 36.00 22.00 C 36.00 23.33 36.00 24.67 36.00 26.00 C 37.33 26.00 38.67 26.00 40.00 26.00 C 40.00 24.67 40.00 23.33 40.00 22.00 C 38.67 22.00 37.33 22.00 36.00 22.00 M 24.00 26.00 C 24.00 27.33 24.00 28.67 24.00 30.00 C 25.33 30.00 26.67 30.00 28.00 30.00 C 28.00 28.67 28.00 27.33 28.00 26.00 C 26.67 26.00 25.33 26.00 24.00 26.00 M 32.00 26.00 C 32.00 27.33 32.00 28.67 32.00 30.00 C 33.33 30.00 34.67 30.00 36.00 30.00 C 36.00 28.67 36.00 27.33 36.00 26.00 C 34.67 26.00 33.33 26.00 32.00 26.00 Z" />
</g>
<g id="#000000ff">
<path fill="#000000" opacity="1.00" d=" M 24.47 4.70 C 32.32 2.60 41.20 5.31 46.50 11.47 C 51.95 17.55 53.58 26.81 50.26 34.31 C 47.69 40.35 42.45 44.62 37.13 48.18 C 34.06 50.03 33.12 53.66 31.72 56.71 C 31.36 58.38 28.65 58.40 28.29 56.73 C 26.85 53.41 25.68 49.58 22.28 47.73 C 15.33 43.30 8.80 36.64 8.11 28.00 C 6.91 17.58 14.32 7.16 24.47 4.70 M 25.43 12.80 C 18.86 14.93 14.68 22.38 16.39 29.10 C 17.89 36.59 26.26 41.68 33.61 39.48 C 40.94 37.72 45.69 29.38 43.42 22.17 C 41.49 14.67 32.70 10.06 25.43 12.80 Z" />
<path fill="#000000" opacity="1.00" d=" M 20.00 22.00 C 21.33 22.00 22.67 22.00 24.00 22.00 C 24.00 23.33 24.00 24.67 24.00 26.00 C 22.67 26.00 21.33 26.00 20.00 26.00 C 20.00 24.67 20.00 23.33 20.00 22.00 Z" />
<path fill="#000000" opacity="1.00" d=" M 28.00 22.00 C 29.33 22.00 30.67 22.00 32.00 22.00 C 32.00 23.33 32.00 24.67 32.00 26.00 C 30.67 26.00 29.33 26.00 28.00 26.00 C 28.00 24.67 28.00 23.33 28.00 22.00 Z" />
<path fill="#000000" opacity="1.00" d=" M 36.00 22.00 C 37.33 22.00 38.67 22.00 40.00 22.00 C 40.00 23.33 40.00 24.67 40.00 26.00 C 38.67 26.00 37.33 26.00 36.00 26.00 C 36.00 24.67 36.00 23.33 36.00 22.00 Z" />
<path fill="#000000" opacity="1.00" d=" M 24.00 26.00 C 25.33 26.00 26.67 26.00 28.00 26.00 C 28.00 27.33 28.00 28.67 28.00 30.00 C 26.67 30.00 25.33 30.00 24.00 30.00 C 24.00 28.67 24.00 27.33 24.00 26.00 Z" />
<path fill="#000000" opacity="1.00" d=" M 32.00 26.00 C 33.33 26.00 34.67 26.00 36.00 26.00 C 36.00 27.33 36.00 28.67 36.00 30.00 C 34.67 30.00 33.33 30.00 32.00 30.00 C 32.00 28.67 32.00 27.33 32.00 26.00 Z" />
</g>
</svg>
