<?xml version="1.0" encoding="UTF-8" ?>
<!DOCTYPE svg PUBLIC "-//W3C//DTD SVG 1.1//EN" "http://www.w3.org/Graphics/SVG/1.1/DTD/svg11.dtd">
<svg width="60pt" height="60pt" viewBox="0 0 60 60" version="1.1" xmlns="http://www.w3.org/2000/svg">
<g id="#ffffffff">
<path fill="#ffffff" opacity="1.00" d=" M 0.00 0.00 L 60.00 0.00 L 60.00 60.00 L 0.00 60.00 L 0.00 0.00 M 15.52 6.63 C 7.77 8.73 2.52 17.26 4.34 25.12 C 6.03 33.47 13.28 38.88 17.03 46.17 C 18.19 48.02 17.27 51.62 20.01 52.03 C 22.78 51.55 21.81 47.88 23.04 46.01 C 27.29 38.03 35.90 31.79 35.98 22.01 C 36.33 11.79 25.29 3.37 15.52 6.63 M 39.71 17.86 C 39.83 19.91 39.94 21.95 40.00 24.01 C 42.34 23.99 44.68 23.89 47.01 24.14 C 48.96 25.90 48.62 28.95 49.40 31.28 C 45.75 30.60 42.05 30.14 38.34 30.05 C 37.35 32.08 36.26 34.06 35.07 35.99 C 37.66 35.96 40.26 35.88 42.84 36.17 C 44.35 36.85 44.36 39.14 42.85 39.82 C 39.29 40.23 35.70 39.91 32.12 39.99 C 29.75 43.02 27.22 46.02 25.84 49.67 C 34.48 50.17 43.15 50.05 51.78 49.46 C 51.64 51.74 53.23 54.89 55.98 53.78 C 58.79 52.82 57.83 49.22 58.02 46.95 C 57.68 41.87 59.72 34.69 53.73 32.16 C 52.87 29.03 52.62 25.69 51.22 22.74 C 49.74 20.16 46.60 19.93 43.95 19.86 C 42.93 18.44 41.49 17.68 39.71 17.86 Z" />
<path fill="#ffffff" opacity="1.00" d=" M 10.00 18.00 C 11.33 18.00 12.67 18.00 14.00 18.00 C 14.00 19.33 14.00 20.67 14.00 22.00 C 12.67 22.00 11.33 22.00 10.00 22.00 C 10.00 20.67 10.00 19.33 10.00 18.00 Z" />
<path fill="#ffffff" opacity="1.00" d=" M 18.00 18.00 C 19.33 18.00 20.67 18.00 22.00 18.00 C 22.00 19.33 22.00 20.67 22.00 22.00 C 20.67 22.00 19.33 22.00 18.00 22.00 C 18.00 20.67 18.00 19.33 18.00 18.00 Z" />
<path fill="#ffffff" opacity="1.00" d=" M 26.00 18.00 C 27.33 18.00 28.67 18.00 30.00 18.00 C 30.00 19.33 30.00 20.67 30.00 22.00 C 28.67 22.00 27.33 22.00 26.00 22.00 C 26.00 20.67 26.00 19.33 26.00 18.00 Z" />
<path fill="#ffffff" opacity="1.00" d=" M 14.00 22.00 C 15.33 22.00 16.67 22.00 18.00 22.00 C 18.00 23.33 18.00 24.67 18.00 26.00 C 16.67 26.00 15.33 26.00 14.00 26.00 C 14.00 24.67 14.00 23.33 14.00 22.00 Z" />
<path fill="#ffffff" opacity="1.00" d=" M 22.00 22.00 C 23.33 22.00 24.67 22.00 26.00 22.00 C 26.00 23.33 26.00 24.67 26.00 26.00 C 24.67 26.00 23.33 26.00 22.00 26.00 C 22.00 24.67 22.00 23.33 22.00 22.00 Z" />
<path fill="#ffffff" opacity="1.00" d=" M 49.34 36.52 C 52.46 34.21 55.89 39.44 52.70 41.44 C 49.57 43.86 46.05 38.51 49.34 36.52 Z" />
</g>
<g id="#000000ff">
<path fill="#000000" opacity="1.00" d=" M 15.52 6.63 C 25.29 3.37 36.33 11.79 35.98 22.01 C 35.90 31.79 27.29 38.03 23.04 46.01 C 21.81 47.88 22.78 51.55 20.01 52.03 C 17.27 51.62 18.19 48.02 17.03 46.17 C 13.28 38.88 6.03 33.47 4.34 25.12 C 2.52 17.26 7.77 8.73 15.52 6.63 M 10.00 18.00 C 10.00 19.33 10.00 20.67 10.00 22.00 C 11.33 22.00 12.67 22.00 14.00 22.00 C 14.00 20.67 14.00 19.33 14.00 18.00 C 12.67 18.00 11.33 18.00 10.00 18.00 M 18.00 18.00 C 18.00 19.33 18.00 20.67 18.00 22.00 C 19.33 22.00 20.67 22.00 22.00 22.00 C 22.00 20.67 22.00 19.33 22.00 18.00 C 20.67 18.00 19.33 18.00 18.00 18.00 M 26.00 18.00 C 26.00 19.33 26.00 20.67 26.00 22.00 C 27.33 22.00 28.67 22.00 30.00 22.00 C 30.00 20.67 30.00 19.33 30.00 18.00 C 28.67 18.00 27.33 18.00 26.00 18.00 M 14.00 22.00 C 14.00 23.33 14.00 24.67 14.00 26.00 C 15.33 26.00 16.67 26.00 18.00 26.00 C 18.00 24.67 18.00 23.33 18.00 22.00 C 16.67 22.00 15.33 22.00 14.00 22.00 M 22.00 22.00 C 22.00 23.33 22.00 24.67 22.00 26.00 C 23.33 26.00 24.67 26.00 26.00 26.00 C 26.00 24.67 26.00 23.33 26.00 22.00 C 24.67 22.00 23.33 22.00 22.00 22.00 Z" />
<path fill="#000000" opacity="1.00" d=" M 39.71 17.86 C 41.49 17.68 42.93 18.44 43.95 19.86 C 46.60 19.93 49.74 20.16 51.22 22.74 C 52.62 25.69 52.87 29.03 53.73 32.16 C 59.72 34.69 57.68 41.87 58.02 46.95 C 57.83 49.22 58.79 52.82 55.98 53.78 C 53.23 54.89 51.64 51.74 51.78 49.46 C 43.15 50.05 34.48 50.17 25.84 49.67 C 27.22 46.02 29.75 43.02 32.12 39.99 C 35.70 39.91 39.29 40.23 42.85 39.82 C 44.36 39.14 44.35 36.85 42.84 36.17 C 40.26 35.88 37.66 35.96 35.07 35.99 C 36.26 34.06 37.35 32.08 38.34 30.05 C 42.05 30.14 45.75 30.60 49.40 31.28 C 48.62 28.95 48.96 25.90 47.01 24.14 C 44.68 23.89 42.34 23.99 40.00 24.01 C 39.94 21.95 39.83 19.91 39.71 17.86 M 49.34 36.52 C 46.05 38.51 49.57 43.86 52.70 41.44 C 55.89 39.44 52.46 34.21 49.34 36.52 Z" />
</g>
</svg>
