<?xml version="1.0" encoding="UTF-8" ?>
<!DOCTYPE svg PUBLIC "-//W3C//DTD SVG 1.1//EN" "http://www.w3.org/Graphics/SVG/1.1/DTD/svg11.dtd">
<svg width="200pt" height="200pt" viewBox="0 0 200 200" version="1.1" xmlns="http://www.w3.org/2000/svg">
<g id="#ffffffff">
<path fill="#ffffff" opacity="1.00" d=" M 0.00 0.00 L 85.48 0.00 C 70.15 0.84 56.77 14.20 56.32 29.62 C 56.13 61.63 56.33 93.65 56.23 125.66 C 47.74 134.40 42.97 146.72 43.86 158.92 C 44.54 171.67 51.26 183.88 61.55 191.42 C 68.72 196.78 77.57 199.70 86.49 200.00 L 0.00 200.00 L 0.00 0.00 Z" />
<path fill="#ffffff" opacity="1.00" d=" M 89.92 0.00 L 200.00 0.00 L 200.00 200.00 L 88.47 200.00 C 97.17 199.71 105.80 196.95 112.86 191.83 C 123.18 184.54 130.06 172.60 131.05 159.99 C 132.28 147.47 127.51 134.68 118.78 125.68 C 118.68 93.87 118.83 62.05 118.71 30.23 C 118.54 14.72 105.30 1.12 89.92 0.00 M 136.28 31.37 C 131.80 32.01 129.64 38.01 132.61 41.40 C 135.34 44.88 140.16 43.49 143.96 43.75 C 147.55 43.52 152.02 44.76 154.70 41.61 C 158.00 38.22 155.67 31.80 150.97 31.34 C 146.08 31.19 141.16 31.13 136.28 31.37 M 135.20 69.17 C 130.03 70.89 130.02 79.04 135.16 80.80 C 140.00 81.76 145.05 81.06 149.98 81.23 C 153.72 81.39 156.92 77.60 156.17 73.94 C 155.67 70.58 152.24 68.31 148.95 68.74 C 144.38 68.97 139.69 68.26 135.20 69.17 M 136.30 106.37 C 133.62 106.80 131.46 109.24 131.26 111.93 C 130.86 115.28 133.66 118.62 137.05 118.70 C 141.38 118.82 145.72 118.77 150.05 118.73 C 153.19 118.80 156.03 116.12 156.24 113.00 C 156.61 109.51 153.55 106.13 150.02 106.27 C 145.45 106.28 140.87 106.10 136.30 106.37 Z" />
<path fill="#ffffff" opacity="1.00" d=" M 81.27 74.98 C 81.16 71.80 83.88 68.90 87.05 68.76 C 90.54 68.40 93.85 71.49 93.73 74.99 C 93.78 96.16 93.73 117.33 93.75 138.50 C 98.62 140.43 102.85 144.16 104.81 149.09 C 107.67 155.72 106.12 163.93 101.10 169.11 C 95.98 174.68 87.33 176.56 80.37 173.57 C 72.74 170.56 67.75 162.12 68.89 153.98 C 69.61 146.96 74.75 140.95 81.26 138.49 C 81.26 117.32 81.22 96.14 81.27 74.98 M 86.05 150.15 C 81.32 151.02 79.57 157.69 83.20 160.80 C 86.37 164.07 92.51 162.31 93.53 157.91 C 94.96 153.56 90.45 148.89 86.05 150.15 Z" />
</g>
<g id="#000000ff">
<path fill="#968176" opacity="1.00" d=" M 85.48 0.00 L 89.92 0.00 C 105.30 1.12 118.54 14.72 118.71 30.23 C 118.83 62.05 118.68 93.87 118.78 125.68 C 127.51 134.68 132.28 147.47 131.05 159.99 C 130.06 172.60 123.18 184.54 112.86 191.83 C 105.80 196.95 97.17 199.71 88.47 200.00 L 86.49 200.00 C 77.57 199.70 68.72 196.78 61.55 191.42 C 51.26 183.88 44.54 171.67 43.86 158.92 C 42.97 146.72 47.74 134.40 56.23 125.66 C 56.33 93.65 56.13 61.63 56.32 29.62 C 56.77 14.20 70.15 0.84 85.48 0.00 M 81.27 74.98 C 81.22 96.14 81.26 117.32 81.26 138.49 C 74.75 140.95 69.61 146.96 68.89 153.98 C 67.75 162.12 72.74 170.56 80.37 173.57 C 87.33 176.56 95.98 174.68 101.10 169.11 C 106.12 163.93 107.67 155.72 104.81 149.09 C 102.85 144.16 98.62 140.43 93.75 138.50 C 93.73 117.33 93.78 96.16 93.73 74.99 C 93.85 71.49 90.54 68.40 87.05 68.76 C 83.88 68.90 81.16 71.80 81.27 74.98 Z" />
<path fill="#968176" opacity="1.00" d=" M 136.28 31.37 C 141.16 31.13 146.08 31.19 150.97 31.34 C 155.67 31.80 158.00 38.22 154.70 41.61 C 152.02 44.76 147.55 43.52 143.96 43.75 C 140.16 43.49 135.34 44.88 132.61 41.40 C 129.64 38.01 131.80 32.01 136.28 31.37 Z" />
<path fill="#968176" opacity="1.00" d=" M 135.20 69.17 C 139.69 68.26 144.38 68.97 148.95 68.74 C 152.24 68.31 155.67 70.58 156.17 73.94 C 156.92 77.60 153.72 81.39 149.98 81.23 C 145.05 81.06 140.00 81.76 135.16 80.80 C 130.02 79.04 130.03 70.89 135.20 69.17 Z" />
<path fill="#968176" opacity="1.00" d=" M 136.30 106.37 C 140.87 106.10 145.45 106.28 150.02 106.27 C 153.55 106.13 156.61 109.51 156.24 113.00 C 156.03 116.12 153.19 118.80 150.05 118.73 C 145.72 118.77 141.38 118.82 137.05 118.70 C 133.66 118.62 130.86 115.28 131.26 111.93 C 131.46 109.24 133.62 106.80 136.30 106.37 Z" />
<path fill="#968176" opacity="1.00" d=" M 86.05 150.15 C 90.45 148.89 94.96 153.56 93.53 157.91 C 92.51 162.31 86.37 164.07 83.20 160.80 C 79.57 157.69 81.32 151.02 86.05 150.15 Z" />
</g>
</svg>
