<?xml version="1.0" encoding="UTF-8" ?>
<!DOCTYPE svg PUBLIC "-//W3C//DTD SVG 1.1//EN" "http://www.w3.org/Graphics/SVG/1.1/DTD/svg11.dtd">
<svg width="64pt" height="64pt" viewBox="0 0 64 64" version="1.1" xmlns="http://www.w3.org/2000/svg">
<g id="#ffffffff">
<path fill="#ffffff" opacity="1.00" d=" M 0.00 0.00 L 64.00 0.00 L 64.00 64.00 L 0.00 64.00 L 0.00 0.00 M 22.60 10.80 C 21.28 10.76 19.96 10.73 18.63 10.71 C 19.09 11.80 19.54 12.90 20.00 14.00 C 18.68 14.66 17.36 15.32 16.04 15.98 C 16.51 16.47 17.45 17.45 17.92 17.95 C 17.10 19.74 16.28 21.55 15.78 23.46 C 16.95 24.80 17.92 26.28 18.41 28.00 C 19.53 28.01 20.66 28.02 21.78 28.04 C 23.07 29.10 24.48 29.97 26.11 30.40 C 26.37 30.80 26.88 31.60 27.14 32.00 C 27.85 32.00 29.28 32.00 30.00 32.00 C 29.99 36.18 30.03 40.36 29.96 44.54 C 27.96 43.36 25.82 42.19 25.25 39.72 C 25.67 38.19 25.99 36.64 26.21 35.06 C 24.83 34.04 23.43 33.04 22.05 32.02 C 21.14 32.39 20.24 32.77 19.34 33.15 C 16.74 30.46 14.11 33.97 11.43 34.68 C 9.21 35.61 10.14 38.12 10.82 39.78 C 10.67 40.09 10.38 40.70 10.23 41.00 C 11.38 43.37 12.16 45.94 13.72 48.10 C 15.34 47.57 16.96 47.04 18.58 46.52 C 19.01 46.95 19.87 47.80 20.30 48.22 C 21.14 47.10 21.97 45.97 22.78 44.82 C 25.31 46.31 27.84 47.80 30.32 49.38 C 29.97 52.67 27.15 54.48 23.98 54.19 C 24.00 55.46 24.00 56.73 24.00 58.00 C 29.33 58.00 34.67 58.00 40.00 58.00 C 40.00 56.73 40.00 55.47 40.02 54.20 C 37.98 54.09 36.04 53.56 34.35 52.40 C 36.55 51.05 38.87 49.90 41.19 48.75 C 41.99 49.91 42.83 51.07 43.67 52.21 C 44.11 51.79 45.00 50.95 45.45 50.53 C 47.06 51.05 48.67 51.57 50.29 52.10 C 51.84 49.94 52.62 47.38 53.77 45.01 C 53.62 44.70 53.33 44.08 53.18 43.77 C 53.85 42.11 54.79 39.61 52.58 38.68 C 49.89 37.95 47.29 34.51 44.65 37.11 C 43.76 36.75 42.88 36.39 41.99 36.02 C 40.59 37.03 39.20 38.03 37.80 39.04 C 38.02 40.56 38.30 42.07 38.66 43.56 C 38.46 44.15 38.06 45.33 37.86 45.92 C 36.57 46.59 35.28 47.26 34.00 47.93 C 34.00 42.01 34.01 36.09 33.99 30.17 C 34.56 30.54 35.70 31.28 36.27 31.65 C 38.21 29.99 40.21 30.55 42.08 31.90 C 42.38 31.44 42.98 30.51 43.27 30.04 C 43.97 30.02 45.37 29.97 46.07 29.94 C 45.89 29.08 45.53 27.35 45.35 26.49 C 46.15 25.73 46.95 24.97 47.75 24.21 C 47.15 22.66 47.00 21.08 47.76 19.56 C 48.46 18.13 46.89 17.05 46.29 15.92 C 45.88 13.99 45.13 12.17 44.27 10.41 C 42.61 10.04 41.15 9.18 39.82 8.15 C 39.00 8.77 38.18 9.38 37.36 10.00 C 36.48 9.35 35.61 8.69 34.75 8.02 C 33.45 8.01 32.16 8.00 30.86 7.98 C 30.35 8.47 29.32 9.44 28.80 9.93 C 27.87 9.29 26.94 8.65 26.02 8.00 C 24.88 8.93 23.74 9.86 22.60 10.80 Z" />
<path fill="#ffffff" opacity="1.00" d=" M 29.26 15.06 C 30.45 13.94 31.64 12.82 32.84 11.71 C 34.23 12.69 35.53 13.78 37.02 14.60 C 38.54 14.21 40.06 13.72 41.66 13.89 C 41.91 15.66 42.24 17.41 42.75 19.12 C 42.43 19.48 41.79 20.21 41.47 20.57 C 41.84 21.17 42.57 22.37 42.93 22.97 C 42.02 24.15 41.13 25.34 40.29 26.58 C 39.88 26.23 39.05 25.54 38.63 25.19 C 37.89 25.75 37.16 26.31 36.42 26.86 C 35.53 26.12 34.63 25.37 33.73 24.63 C 32.52 25.83 31.31 27.03 30.10 28.23 C 28.64 25.82 25.59 26.08 23.63 24.32 C 22.43 23.92 21.25 23.50 20.07 23.04 C 20.96 21.04 21.92 19.08 22.90 17.11 C 23.31 16.87 24.13 16.38 24.54 16.13 C 25.04 15.04 25.44 13.92 25.83 12.79 C 26.97 13.55 28.11 14.31 29.26 15.06 Z" />
<path fill="#ffffff" opacity="1.00" d=" M 14.89 37.91 C 15.86 37.55 16.93 37.39 17.76 38.18 C 19.09 37.59 20.43 37.03 21.78 36.50 C 21.17 38.13 20.82 39.81 20.75 41.55 C 18.94 42.28 17.08 42.85 15.20 43.39 C 17.42 41.66 16.06 39.74 14.89 37.91 Z" />
<path fill="#ffffff" opacity="1.00" d=" M 42.23 40.49 C 43.57 41.03 44.91 41.59 46.24 42.18 C 47.07 41.39 48.14 41.55 49.12 41.91 C 47.93 43.74 46.56 45.67 48.81 47.39 C 46.93 46.85 45.06 46.28 43.25 45.55 C 43.16 43.82 42.82 42.13 42.23 40.49 Z" />
</g>
<g id="#000000ff">
<path fill="#000000" opacity="1.00" d=" M 22.60 10.80 C 23.74 9.86 24.88 8.93 26.02 8.00 C 26.94 8.65 27.87 9.29 28.80 9.93 C 29.32 9.44 30.35 8.47 30.86 7.98 C 32.16 8.00 33.45 8.01 34.75 8.02 C 35.61 8.69 36.48 9.35 37.36 10.00 C 38.18 9.38 39.00 8.77 39.82 8.15 C 41.15 9.18 42.61 10.04 44.27 10.41 C 45.13 12.17 45.88 13.99 46.29 15.92 C 46.89 17.05 48.46 18.13 47.76 19.56 C 47.00 21.08 47.15 22.66 47.75 24.21 C 46.95 24.97 46.15 25.73 45.35 26.49 C 45.53 27.35 45.89 29.08 46.07 29.94 C 45.37 29.97 43.97 30.02 43.27 30.04 C 42.98 30.51 42.38 31.44 42.08 31.90 C 40.21 30.55 38.21 29.99 36.27 31.65 C 35.70 31.28 34.56 30.54 33.99 30.17 C 34.01 36.09 34.00 42.01 34.00 47.93 C 35.28 47.26 36.57 46.59 37.86 45.92 C 38.06 45.33 38.46 44.15 38.66 43.56 C 38.30 42.07 38.02 40.56 37.80 39.04 C 39.20 38.03 40.59 37.03 41.99 36.02 C 42.88 36.39 43.76 36.75 44.65 37.11 C 47.29 34.51 49.89 37.95 52.58 38.68 C 54.79 39.61 53.85 42.11 53.18 43.77 C 53.33 44.08 53.62 44.70 53.77 45.01 C 52.62 47.38 51.84 49.94 50.29 52.10 C 48.67 51.57 47.06 51.05 45.45 50.53 C 45.00 50.95 44.11 51.79 43.67 52.21 C 42.83 51.07 41.99 49.91 41.19 48.75 C 38.87 49.90 36.55 51.05 34.35 52.40 C 36.04 53.56 37.98 54.09 40.02 54.20 C 40.00 55.47 40.00 56.73 40.00 58.00 C 34.67 58.00 29.33 58.00 24.00 58.00 C 24.00 56.73 24.00 55.46 23.98 54.19 C 27.15 54.48 29.97 52.67 30.32 49.38 C 27.84 47.80 25.31 46.31 22.78 44.82 C 21.97 45.97 21.14 47.10 20.30 48.22 C 19.87 47.80 19.01 46.95 18.58 46.52 C 16.96 47.04 15.34 47.57 13.72 48.10 C 12.16 45.94 11.38 43.37 10.23 41.00 C 10.38 40.70 10.67 40.09 10.82 39.78 C 10.14 38.12 9.21 35.61 11.43 34.68 C 14.11 33.97 16.74 30.46 19.34 33.15 C 20.24 32.77 21.14 32.39 22.05 32.02 C 23.43 33.04 24.83 34.04 26.21 35.06 C 25.99 36.64 25.67 38.19 25.25 39.72 C 25.82 42.19 27.96 43.36 29.96 44.54 C 30.03 40.36 29.99 36.18 30.00 32.00 C 29.28 32.00 27.85 32.00 27.14 32.00 C 26.88 31.60 26.37 30.80 26.11 30.40 C 24.48 29.97 23.07 29.10 21.78 28.04 C 20.66 28.02 19.53 28.01 18.41 28.00 C 17.92 26.28 16.95 24.80 15.78 23.46 C 16.28 21.55 17.10 19.74 17.92 17.95 C 17.45 17.45 16.51 16.47 16.04 15.98 C 17.36 15.32 18.68 14.66 20.00 14.00 C 19.54 12.90 19.09 11.80 18.63 10.71 C 19.96 10.73 21.28 10.76 22.60 10.80 M 29.26 15.06 C 28.11 14.31 26.97 13.55 25.83 12.79 C 25.44 13.92 25.04 15.04 24.54 16.13 C 24.13 16.38 23.31 16.87 22.90 17.11 C 21.92 19.08 20.96 21.04 20.07 23.04 C 21.25 23.50 22.43 23.92 23.63 24.32 C 25.59 26.08 28.64 25.82 30.10 28.23 C 31.31 27.03 32.52 25.83 33.73 24.63 C 34.63 25.37 35.53 26.12 36.42 26.86 C 37.16 26.31 37.89 25.75 38.63 25.19 C 39.05 25.54 39.88 26.23 40.29 26.58 C 41.13 25.34 42.02 24.15 42.93 22.97 C 42.57 22.37 41.84 21.17 41.47 20.57 C 41.79 20.21 42.43 19.48 42.75 19.12 C 42.24 17.41 41.91 15.66 41.66 13.89 C 40.06 13.72 38.54 14.21 37.02 14.60 C 35.53 13.78 34.23 12.69 32.84 11.71 C 31.64 12.82 30.45 13.94 29.26 15.06 M 14.89 37.91 C 16.06 39.74 17.42 41.66 15.20 43.39 C 17.08 42.85 18.94 42.28 20.75 41.55 C 20.82 39.81 21.17 38.13 21.78 36.50 C 20.43 37.03 19.09 37.59 17.76 38.18 C 16.93 37.39 15.86 37.55 14.89 37.91 M 42.23 40.49 C 42.82 42.13 43.16 43.82 43.25 45.55 C 45.06 46.28 46.93 46.85 48.81 47.39 C 46.56 45.67 47.93 43.74 49.12 41.91 C 48.14 41.55 47.07 41.39 46.24 42.18 C 44.91 41.59 43.57 41.03 42.23 40.49 Z" />
</g>
</svg>
