<?xml version="1.0" encoding="UTF-8" ?>
<!DOCTYPE svg PUBLIC "-//W3C//DTD SVG 1.1//EN" "http://www.w3.org/Graphics/SVG/1.1/DTD/svg11.dtd">
<svg width="64pt" height="64pt" viewBox="0 0 64 64" version="1.1" xmlns="http://www.w3.org/2000/svg">
<g id="#ffffffff">
<path fill="#ffffff" opacity="1.00" d=" M 0.00 0.00 L 64.00 0.00 L 64.00 64.00 L 0.00 64.00 L 0.00 0.00 M 18.18 8.10 C 18.07 11.52 17.82 15.01 15.85 17.94 C 13.23 21.82 14.08 26.61 13.99 31.00 C 14.11 39.30 13.82 47.61 14.10 55.90 C 26.02 56.07 37.97 56.08 49.90 55.90 C 50.15 45.26 49.94 34.60 50.01 23.95 C 50.17 20.17 47.36 17.28 46.32 13.84 C 45.99 11.94 46.02 10.01 45.82 8.10 C 36.61 7.92 27.39 7.91 18.18 8.10 Z" />
<path fill="#ffffff" opacity="1.00" d=" M 22.40 12.23 C 28.94 11.74 35.55 11.96 42.10 12.14 C 41.56 14.91 40.38 17.53 38.74 19.81 C 32.28 20.25 25.78 19.97 19.30 19.91 C 20.50 17.42 21.55 14.86 22.40 12.23 Z" />
<path fill="#ffffff" opacity="1.00" d=" M 41.97 29.01 C 42.02 25.54 41.47 21.60 44.01 18.80 C 46.53 21.60 45.98 25.54 46.03 29.00 C 45.87 36.66 46.20 44.32 45.89 51.96 C 44.63 52.05 43.37 52.05 42.10 51.97 C 41.80 44.32 42.13 36.66 41.97 29.01 Z" />
<path fill="#ffffff" opacity="1.00" d=" M 18.10 24.10 C 24.69 23.91 31.31 23.91 37.90 24.09 C 38.08 33.36 38.08 42.64 37.90 51.90 C 31.31 52.09 24.69 52.09 18.10 51.90 C 17.92 42.64 17.92 33.36 18.10 24.10 Z" />
</g>
<g id="#000000ff">
<path fill="#000000" opacity="1.00" d=" M 18.18 8.10 C 27.39 7.91 36.61 7.92 45.82 8.10 C 46.02 10.01 45.99 11.94 46.32 13.84 C 47.36 17.28 50.17 20.17 50.01 23.95 C 49.94 34.60 50.15 45.26 49.90 55.90 C 37.97 56.08 26.02 56.07 14.10 55.90 C 13.82 47.61 14.11 39.30 13.99 31.00 C 14.08 26.61 13.23 21.82 15.85 17.94 C 17.82 15.01 18.07 11.52 18.18 8.10 M 22.40 12.23 C 21.55 14.86 20.50 17.42 19.30 19.91 C 25.78 19.97 32.28 20.25 38.74 19.81 C 40.38 17.53 41.56 14.91 42.10 12.14 C 35.55 11.96 28.94 11.74 22.40 12.23 M 41.97 29.01 C 42.13 36.66 41.80 44.32 42.10 51.97 C 43.37 52.05 44.63 52.05 45.89 51.96 C 46.20 44.32 45.87 36.66 46.03 29.00 C 45.98 25.54 46.53 21.60 44.01 18.80 C 41.47 21.60 42.02 25.54 41.97 29.01 M 18.10 24.10 C 17.92 33.36 17.92 42.64 18.10 51.90 C 24.69 52.09 31.31 52.09 37.90 51.90 C 38.08 42.64 38.08 33.36 37.90 24.09 C 31.31 23.91 24.69 23.91 18.10 24.10 Z" />
</g>
</svg>
