<?xml version="1.0" encoding="UTF-8" ?>
<!DOCTYPE svg PUBLIC "-//W3C//DTD SVG 1.1//EN" "http://www.w3.org/Graphics/SVG/1.1/DTD/svg11.dtd">
<svg width="60pt" height="60pt" viewBox="0 0 60 60" version="1.1" xmlns="http://www.w3.org/2000/svg">
<g id="#ffffffff">
<path fill="#ffffff" opacity="1.00" d=" M 0.00 0.00 L 60.00 0.00 L 60.00 60.00 L 0.00 60.00 L 0.00 0.00 M 19.14 6.16 C 18.92 6.41 18.49 6.91 18.27 7.16 C 18.24 12.23 13.57 15.39 12.08 19.89 C 11.90 30.27 12.04 40.66 12.01 51.05 C 11.84 52.28 12.37 54.12 13.95 53.93 C 24.33 54.09 34.73 53.97 45.11 53.98 C 46.37 54.17 48.13 53.56 47.93 51.99 C 48.04 41.29 48.06 30.57 47.92 19.87 C 46.41 15.35 41.75 12.19 41.71 7.10 C 41.49 6.87 41.06 6.39 40.84 6.16 C 33.62 5.89 26.36 5.89 19.14 6.16 Z" />
<path fill="#ffffff" opacity="1.00" d=" M 16.09 20.74 C 17.64 17.63 19.78 14.85 21.66 11.94 C 27.10 12.07 32.54 11.96 37.98 12.01 C 36.66 14.01 35.33 16.01 33.99 18.00 C 29.73 18.11 25.45 17.75 21.20 18.17 C 19.61 18.76 19.61 21.18 21.17 21.81 C 25.43 22.27 29.73 21.88 34.00 22.00 C 34.00 31.33 34.00 40.67 34.00 50.00 C 28.00 50.00 22.00 50.00 16.00 50.00 C 16.07 40.25 15.87 30.49 16.09 20.74 Z" />
</g>
<g id="#000000ff">
<path fill="#968176" opacity="1.00" d=" M 19.14 6.16 C 26.36 5.89 33.62 5.89 40.84 6.16 C 41.06 6.39 41.49 6.87 41.71 7.10 C 41.75 12.19 46.41 15.35 47.92 19.87 C 48.06 30.57 48.04 41.29 47.93 51.99 C 48.13 53.56 46.37 54.17 45.11 53.98 C 34.73 53.97 24.33 54.09 13.95 53.93 C 12.37 54.12 11.84 52.28 12.01 51.05 C 12.04 40.66 11.90 30.27 12.08 19.89 C 13.57 15.39 18.24 12.23 18.27 7.16 C 18.49 6.91 18.92 6.41 19.14 6.16 M 16.09 20.74 C 15.87 30.49 16.07 40.25 16.00 50.00 C 22.00 50.00 28.00 50.00 34.00 50.00 C 34.00 40.67 34.00 31.33 34.00 22.00 C 29.73 21.88 25.43 22.27 21.17 21.81 C 19.61 21.18 19.61 18.76 21.20 18.17 C 25.45 17.75 29.73 18.11 33.99 18.00 C 35.33 16.01 36.66 14.01 37.98 12.01 C 32.54 11.96 27.10 12.07 21.66 11.94 C 19.78 14.85 17.64 17.63 16.09 20.74 Z" />
</g>
</svg>
