<?xml version="1.0" encoding="UTF-8" ?>
<!DOCTYPE svg PUBLIC "-//W3C//DTD SVG 1.1//EN" "http://www.w3.org/Graphics/SVG/1.1/DTD/svg11.dtd">
<svg width="60pt" height="60pt" viewBox="0 0 60 60" version="1.1" xmlns="http://www.w3.org/2000/svg">
<g id="#ffffffff">
<path fill="#ffffff" opacity="1.00" d=" M 0.00 0.00 L 60.00 0.00 L 60.00 60.00 L 0.00 60.00 L 0.00 0.00 M 27.08 6.99 C 23.59 9.42 22.55 13.86 22.02 17.83 C 27.34 18.02 32.66 18.02 37.98 17.83 C 37.42 13.87 36.42 9.43 32.93 7.01 C 31.24 5.72 28.78 5.71 27.08 6.99 M 4.55 20.63 C 3.27 22.50 5.10 24.73 5.63 26.60 C 6.02 28.10 7.73 28.02 8.95 28.01 C 23.34 27.97 37.73 28.04 52.11 27.98 C 54.54 28.20 54.79 25.22 55.53 23.59 C 56.35 22.29 55.92 19.78 53.97 20.09 C 40.48 22.46 26.63 22.48 13.02 21.16 C 10.24 21.17 7.06 19.21 4.55 20.63 M 12.99 34.98 C 6.35 38.57 6.40 49.59 13.12 53.07 C 16.03 54.77 19.50 53.83 22.14 52.08 C 24.75 50.36 27.31 53.65 30.06 52.89 C 33.37 52.24 35.08 48.98 35.92 46.01 C 39.91 46.24 44.08 45.30 47.89 46.84 C 50.19 47.33 54.68 47.59 54.03 43.97 C 54.64 40.36 50.10 40.66 47.83 41.22 C 44.01 42.64 39.89 41.78 35.92 41.99 C 35.08 39.00 33.35 35.72 30.01 35.09 C 27.28 34.39 24.75 37.60 22.15 35.92 C 19.47 34.14 15.93 33.21 12.99 34.98 Z" />
<path fill="#ffffff" opacity="1.00" d=" M 22.36 40.38 C 25.46 38.65 29.32 42.56 27.61 45.64 C 26.67 47.82 23.64 48.78 21.73 47.25 C 19.14 45.70 19.62 41.49 22.36 40.38 Z" />
</g>
<g id="#000000ff">
<path fill="#968176" opacity="1.00" d=" M 27.08 6.99 C 28.78 5.71 31.24 5.72 32.93 7.01 C 36.42 9.43 37.42 13.87 37.98 17.83 C 32.66 18.02 27.34 18.02 22.02 17.83 C 22.55 13.86 23.59 9.42 27.08 6.99 Z" />
<path fill="#968176" opacity="1.00" d=" M 4.55 20.63 C 7.06 19.21 10.24 21.17 13.02 21.16 C 26.63 22.48 40.48 22.46 53.97 20.09 C 55.92 19.78 56.35 22.29 55.53 23.59 C 54.79 25.22 54.54 28.20 52.11 27.98 C 37.73 28.04 23.34 27.97 8.95 28.01 C 7.73 28.02 6.02 28.10 5.63 26.60 C 5.10 24.73 3.27 22.50 4.55 20.63 Z" />
<path fill="#968176" opacity="1.00" d=" M 12.99 34.98 C 15.93 33.21 19.47 34.14 22.15 35.92 C 24.75 37.60 27.28 34.39 30.01 35.09 C 33.35 35.72 35.08 39.00 35.92 41.99 C 39.89 41.78 44.01 42.64 47.83 41.22 C 50.10 40.66 54.64 40.36 54.03 43.97 C 54.68 47.59 50.19 47.33 47.89 46.84 C 44.08 45.30 39.91 46.24 35.92 46.01 C 35.08 48.98 33.37 52.24 30.06 52.89 C 27.31 53.65 24.75 50.36 22.14 52.08 C 19.50 53.83 16.03 54.77 13.12 53.07 C 6.40 49.59 6.35 38.57 12.99 34.98 M 22.36 40.38 C 19.62 41.49 19.14 45.70 21.73 47.25 C 23.64 48.78 26.67 47.82 27.61 45.64 C 29.32 42.56 25.46 38.65 22.36 40.38 Z" />
</g>
</svg>
