<?xml version="1.0" encoding="UTF-8" ?>
<!DOCTYPE svg PUBLIC "-//W3C//DTD SVG 1.1//EN" "http://www.w3.org/Graphics/SVG/1.1/DTD/svg11.dtd">
<svg width="64pt" height="64pt" viewBox="0 0 64 64" version="1.1" xmlns="http://www.w3.org/2000/svg">
<g id="#ffffffff">
<path fill="#ffffff" opacity="1.00" d=" M 0.00 0.00 L 64.00 0.00 L 64.00 64.00 L 0.00 64.00 L 0.00 0.00 M 38.29 13.92 C 38.33 17.25 35.16 19.39 32.12 19.64 C 26.36 20.24 20.07 19.45 15.01 22.88 C 6.40 27.97 3.83 38.71 3.94 48.06 C 11.36 54.32 21.48 56.47 30.99 55.88 C 37.61 55.45 44.58 53.17 48.86 47.83 C 51.54 44.66 52.70 40.24 51.43 36.22 C 50.02 36.23 49.09 37.51 47.97 38.18 C 48.51 44.63 42.62 49.37 36.92 50.84 C 27.24 53.28 16.25 51.92 7.96 46.15 C 8.35 40.73 9.12 35.02 12.45 30.53 C 15.91 25.65 22.36 23.06 28.21 24.39 C 32.89 25.34 37.00 27.90 41.47 29.45 C 46.09 31.03 52.27 28.53 53.59 23.61 C 53.79 24.59 53.98 25.57 54.17 26.55 C 54.73 26.87 55.83 27.51 56.38 27.83 C 53.92 27.89 51.31 27.76 49.14 29.12 C 42.85 31.75 39.32 39.07 32.13 39.82 C 28.60 40.80 25.55 38.54 23.42 36.00 C 22.28 36.68 21.14 37.37 20.01 38.06 C 22.03 40.60 24.52 43.11 27.85 43.73 C 33.03 44.70 38.37 42.67 42.30 39.33 C 46.10 36.25 49.70 31.69 55.08 31.90 C 58.17 32.46 61.26 28.97 59.51 26.07 C 58.05 23.87 57.19 20.41 54.08 20.12 C 51.49 19.64 49.76 21.91 49.02 24.07 C 46.54 26.19 43.30 26.25 40.46 24.81 C 41.63 23.27 42.73 21.31 44.91 21.21 C 47.25 20.92 49.86 19.64 50.11 17.01 C 50.43 13.84 46.95 12.70 44.96 11.05 C 42.61 8.96 38.37 10.76 38.29 13.92 Z" />
<path fill="#ffffff" opacity="1.00" d=" M 42.30 13.73 C 43.11 15.38 44.65 16.32 46.36 16.86 C 44.75 17.14 43.16 17.51 41.60 17.98 C 41.78 16.92 42.12 14.79 42.30 13.73 Z" />
</g>
<g id="#000000ff">
<path fill="#000000" opacity="1.00" d=" M 38.29 13.92 C 38.37 10.76 42.61 8.96 44.96 11.05 C 46.95 12.70 50.43 13.84 50.11 17.01 C 49.86 19.64 47.25 20.92 44.91 21.21 C 42.73 21.31 41.63 23.27 40.46 24.81 C 43.30 26.25 46.54 26.19 49.02 24.07 C 49.76 21.91 51.49 19.64 54.08 20.12 C 57.19 20.41 58.05 23.87 59.51 26.07 C 61.26 28.97 58.17 32.46 55.08 31.90 C 49.70 31.69 46.10 36.25 42.30 39.33 C 38.37 42.67 33.03 44.70 27.85 43.73 C 24.52 43.11 22.03 40.60 20.01 38.06 C 21.14 37.37 22.28 36.68 23.42 36.00 C 25.55 38.54 28.60 40.80 32.13 39.82 C 39.32 39.07 42.85 31.75 49.14 29.12 C 51.31 27.76 53.92 27.89 56.38 27.83 C 55.83 27.51 54.73 26.87 54.17 26.55 C 53.98 25.57 53.79 24.59 53.59 23.61 C 52.27 28.53 46.09 31.03 41.47 29.45 C 37.00 27.90 32.89 25.34 28.21 24.39 C 22.36 23.06 15.91 25.65 12.45 30.53 C 9.12 35.02 8.35 40.73 7.96 46.15 C 16.25 51.92 27.24 53.28 36.92 50.84 C 42.62 49.37 48.51 44.63 47.97 38.18 C 49.09 37.51 50.02 36.23 51.43 36.22 C 52.70 40.24 51.54 44.66 48.86 47.83 C 44.58 53.17 37.61 55.45 30.99 55.88 C 21.48 56.47 11.36 54.32 3.94 48.06 C 3.83 38.71 6.40 27.97 15.01 22.88 C 20.07 19.45 26.36 20.24 32.12 19.64 C 35.16 19.39 38.33 17.25 38.29 13.92 M 42.30 13.73 C 42.12 14.79 41.78 16.92 41.60 17.98 C 43.16 17.51 44.75 17.14 46.36 16.86 C 44.65 16.32 43.11 15.38 42.30 13.73 Z" />
</g>
</svg>
