<?xml version="1.0" encoding="UTF-8" ?>
<!DOCTYPE svg PUBLIC "-//W3C//DTD SVG 1.1//EN" "http://www.w3.org/Graphics/SVG/1.1/DTD/svg11.dtd">
<svg width="60pt" height="60pt" viewBox="0 0 60 60" version="1.1" xmlns="http://www.w3.org/2000/svg">
<g id="#ffffffff">
<path fill="#ffffff" opacity="1.00" d=" M 0.00 0.00 L 60.00 0.00 L 60.00 60.00 L 0.00 60.00 L 0.00 0.00 M 18.96 9.85 C 14.78 13.03 12.52 18.11 11.99 23.25 C 9.76 25.19 7.44 27.79 8.08 31.00 C 8.36 34.31 11.16 36.50 13.98 37.77 C 14.72 41.45 14.83 45.30 16.17 48.83 C 17.37 51.48 20.45 52.01 23.05 52.19 C 24.86 54.19 27.16 56.13 30.04 56.00 C 32.89 56.09 35.14 54.16 36.94 52.19 C 39.54 52.02 42.61 51.48 43.83 48.83 C 45.18 45.31 45.28 41.45 46.02 37.77 C 48.81 36.50 51.60 34.34 51.91 31.06 C 52.58 27.83 50.25 25.20 48.01 23.25 C 47.46 18.35 45.44 13.48 41.56 10.29 C 35.40 4.78 25.34 4.59 18.96 9.85 Z" />
<path fill="#ffffff" opacity="1.00" d=" M 17.25 18.27 C 19.79 12.33 26.78 8.84 33.06 10.37 C 38.93 11.58 43.58 16.96 43.88 22.96 C 43.70 24.85 44.95 26.10 46.31 27.17 C 46.10 29.16 46.10 31.17 46.40 33.16 C 45.14 33.68 43.82 34.07 42.64 34.76 C 40.75 39.17 42.53 45.26 38.55 48.56 C 37.92 46.85 38.01 43.14 35.17 44.09 C 33.11 45.74 34.75 49.07 32.83 50.84 C 31.35 52.36 28.68 52.37 27.19 50.87 C 25.26 49.09 26.82 45.86 24.93 44.07 C 22.03 43.10 22.01 46.75 21.48 48.55 C 20.80 47.97 20.18 47.33 19.61 46.65 C 18.56 42.74 18.50 38.61 17.33 34.72 C 16.15 34.07 14.85 33.66 13.59 33.16 C 13.89 31.18 13.90 29.17 13.68 27.17 C 17.02 25.33 15.69 21.18 17.25 18.27 M 21.27 20.34 C 19.64 21.16 19.54 23.85 21.26 24.63 C 23.17 25.75 26.57 27.71 27.80 24.79 C 28.94 21.14 24.19 18.83 21.27 20.34 M 32.17 23.04 C 31.88 26.29 31.83 29.59 32.20 32.83 C 32.84 34.40 35.11 34.39 35.80 32.86 C 36.15 30.62 35.98 28.35 36.02 26.10 C 37.82 25.11 41.08 23.93 39.69 21.27 C 37.78 18.80 32.72 19.81 32.17 23.04 M 23.13 41.84 C 27.72 42.13 32.36 42.12 36.95 41.83 C 38.03 40.80 38.65 39.38 39.07 37.97 C 38.89 36.48 37.39 36.25 36.31 35.65 C 35.90 36.23 35.10 37.41 34.70 38.00 C 31.57 38.00 28.44 38.00 25.31 38.00 C 24.91 37.41 24.09 36.23 23.68 35.64 C 20.00 36.10 20.87 40.18 23.13 41.84 Z" />
</g>
<g id="#000000ff">
<path fill="#968176" opacity="1.00" d=" M 18.96 9.85 C 25.34 4.59 35.40 4.78 41.56 10.29 C 45.44 13.48 47.46 18.35 48.01 23.25 C 50.25 25.20 52.58 27.83 51.91 31.06 C 51.60 34.34 48.81 36.50 46.02 37.77 C 45.28 41.45 45.18 45.31 43.83 48.83 C 42.61 51.48 39.54 52.02 36.94 52.19 C 35.14 54.16 32.89 56.09 30.04 56.00 C 27.16 56.13 24.86 54.19 23.05 52.19 C 20.45 52.01 17.37 51.48 16.17 48.83 C 14.83 45.30 14.72 41.45 13.98 37.77 C 11.16 36.50 8.36 34.31 8.08 31.00 C 7.44 27.79 9.76 25.19 11.99 23.25 C 12.52 18.11 14.78 13.03 18.96 9.85 M 17.25 18.27 C 15.69 21.18 17.02 25.33 13.68 27.17 C 13.90 29.17 13.89 31.18 13.59 33.16 C 14.85 33.66 16.15 34.07 17.33 34.72 C 18.50 38.61 18.56 42.74 19.61 46.65 C 20.18 47.33 20.80 47.97 21.48 48.55 C 22.01 46.75 22.03 43.10 24.93 44.07 C 26.82 45.86 25.26 49.09 27.19 50.87 C 28.68 52.37 31.35 52.36 32.83 50.84 C 34.75 49.07 33.11 45.74 35.17 44.09 C 38.01 43.14 37.92 46.85 38.55 48.56 C 42.53 45.26 40.75 39.17 42.64 34.76 C 43.82 34.07 45.14 33.68 46.40 33.16 C 46.10 31.17 46.10 29.16 46.31 27.17 C 44.95 26.10 43.70 24.85 43.88 22.96 C 43.58 16.96 38.93 11.58 33.06 10.37 C 26.78 8.84 19.79 12.33 17.25 18.27 Z" />
<path fill="#968176" opacity="1.00" d=" M 21.27 20.34 C 24.19 18.83 28.94 21.14 27.80 24.79 C 26.57 27.71 23.17 25.75 21.26 24.63 C 19.54 23.85 19.64 21.16 21.27 20.34 Z" />
<path fill="#968176" opacity="1.00" d=" M 32.17 23.04 C 32.72 19.81 37.78 18.80 39.69 21.27 C 41.08 23.93 37.82 25.11 36.02 26.10 C 35.98 28.35 36.15 30.62 35.80 32.86 C 35.11 34.39 32.84 34.40 32.20 32.83 C 31.83 29.59 31.88 26.29 32.17 23.04 Z" />
<path fill="#968176" opacity="1.00" d=" M 23.13 41.84 C 20.87 40.18 20.00 36.10 23.68 35.64 C 24.09 36.23 24.91 37.41 25.31 38.00 C 28.44 38.00 31.57 38.00 34.70 38.00 C 35.10 37.41 35.90 36.23 36.31 35.65 C 37.39 36.25 38.89 36.48 39.07 37.97 C 38.65 39.38 38.03 40.80 36.95 41.83 C 32.36 42.12 27.72 42.13 23.13 41.84 Z" />
</g>
</svg>
