<?xml version="1.0" encoding="UTF-8" ?>
<!DOCTYPE svg PUBLIC "-//W3C//DTD SVG 1.1//EN" "http://www.w3.org/Graphics/SVG/1.1/DTD/svg11.dtd">
<svg width="64pt" height="64pt" viewBox="0 0 64 64" version="1.1" xmlns="http://www.w3.org/2000/svg">
<g id="#ffffffff">
<path fill="#ffffff" opacity="1.00" d=" M 0.00 0.00 L 64.00 0.00 L 64.00 64.00 L 0.00 64.00 L 0.00 0.00 M 26.00 10.00 C 25.99 17.28 26.04 24.57 25.97 31.85 C 22.38 34.41 19.41 38.45 20.08 43.09 C 20.52 50.10 28.03 55.50 34.82 53.62 C 41.79 52.15 46.19 43.59 42.85 37.17 C 41.80 34.28 38.16 33.21 37.71 30.02 C 39.14 30.00 40.57 30.00 42.00 30.00 C 42.00 28.66 42.00 27.33 42.00 26.00 C 40.67 26.00 39.33 26.00 38.00 26.00 C 37.99 24.67 37.99 23.33 38.00 22.00 C 39.33 22.00 40.67 22.00 42.00 22.00 C 42.00 20.67 42.00 19.33 42.00 18.00 C 40.67 18.00 39.33 18.00 38.00 18.00 C 37.99 16.67 37.99 15.33 38.00 14.00 C 39.33 14.00 40.67 14.00 42.00 14.00 C 42.00 12.67 42.00 11.33 42.00 10.00 C 36.66 10.00 31.33 10.00 26.00 10.00 Z" />
<path fill="#ffffff" opacity="1.00" d=" M 30.00 14.00 C 31.33 13.99 32.67 13.99 34.00 14.00 C 34.01 20.66 33.97 27.33 34.03 33.99 C 38.43 35.68 41.54 40.77 39.26 45.33 C 36.94 51.13 27.86 51.52 25.05 45.94 C 22.25 41.37 25.29 35.70 29.98 33.99 C 30.03 27.33 29.99 20.66 30.00 14.00 Z" />
</g>
<g id="#000000ff">
<path fill="#000000" opacity="1.00" d=" M 26.00 10.00 C 31.33 10.00 36.66 10.00 42.00 10.00 C 42.00 11.33 42.00 12.67 42.00 14.00 C 40.67 14.00 39.33 14.00 38.00 14.00 C 37.99 15.33 37.99 16.67 38.00 18.00 C 39.33 18.00 40.67 18.00 42.00 18.00 C 42.00 19.33 42.00 20.67 42.00 22.00 C 40.67 22.00 39.33 22.00 38.00 22.00 C 37.99 23.33 37.99 24.67 38.00 26.00 C 39.33 26.00 40.67 26.00 42.00 26.00 C 42.00 27.33 42.00 28.66 42.00 30.00 C 40.57 30.00 39.14 30.00 37.71 30.02 C 38.16 33.21 41.80 34.28 42.85 37.17 C 46.19 43.59 41.79 52.15 34.82 53.62 C 28.03 55.50 20.52 50.10 20.08 43.09 C 19.41 38.45 22.38 34.41 25.97 31.85 C 26.04 24.57 25.99 17.28 26.00 10.00 M 30.00 14.00 C 29.99 20.66 30.03 27.33 29.98 33.99 C 25.29 35.70 22.25 41.37 25.05 45.94 C 27.86 51.52 36.94 51.13 39.26 45.33 C 41.54 40.77 38.43 35.68 34.03 33.99 C 33.97 27.33 34.01 20.66 34.00 14.00 C 32.67 13.99 31.33 13.99 30.00 14.00 Z" />
</g>
</svg>
