<?xml version="1.0" encoding="UTF-8" ?>
<!DOCTYPE svg PUBLIC "-//W3C//DTD SVG 1.1//EN" "http://www.w3.org/Graphics/SVG/1.1/DTD/svg11.dtd">
<svg width="60pt" height="60pt" viewBox="0 0 60 60" version="1.1" xmlns="http://www.w3.org/2000/svg">
<g id="#ffffffff">
<path fill="#ffffff" opacity="1.00" d=" M 0.00 0.00 L 60.00 0.00 L 60.00 60.00 L 0.00 60.00 L 0.00 35.73 C 0.41 38.64 4.74 41.77 6.90 38.75 C 7.87 36.26 3.67 36.44 4.04 34.25 C 6.83 33.86 9.66 33.94 12.46 34.01 C 12.10 34.51 11.38 35.51 11.02 36.00 C 25.01 36.00 39.01 36.00 53.00 36.00 C 50.92 33.43 49.30 30.47 46.83 28.23 C 37.25 27.80 27.58 27.92 17.99 28.16 C 13.63 31.59 7.96 29.03 3.02 30.41 C 1.42 31.01 0.66 32.60 0.00 34.05 L 0.00 0.00 M 50.07 5.99 C 49.87 13.34 50.08 20.71 49.99 28.08 C 51.33 29.74 52.65 31.41 53.99 33.07 C 54.01 24.70 53.98 16.34 54.02 7.97 C 53.87 6.68 54.32 4.93 52.90 4.20 C 51.68 3.51 49.88 4.54 50.07 5.99 M 10.00 40.00 C 10.14 43.23 9.60 46.55 10.37 49.72 C 11.57 52.27 14.64 52.06 17.00 52.03 C 28.34 51.85 39.71 52.25 51.03 51.84 C 55.87 50.10 53.43 43.84 54.00 40.00 C 39.33 40.00 24.67 40.00 10.00 40.00 Z" />
<path fill="#ffffff" opacity="1.00" d=" M 23.18 44.17 C 25.53 43.05 27.17 46.82 24.86 47.84 C 22.47 48.97 20.77 45.13 23.18 44.17 Z" />
<path fill="#ffffff" opacity="1.00" d=" M 31.14 44.13 C 33.49 43.07 35.20 46.76 32.85 47.81 C 30.47 49.00 28.83 45.19 31.14 44.13 Z" />
<path fill="#ffffff" opacity="1.00" d=" M 39.05 44.12 C 41.47 43.05 43.22 46.73 40.84 47.84 C 38.47 48.91 36.92 45.35 39.05 44.12 Z" />
</g>
<g id="#000000ff">
<path fill="#000000" opacity="1.00" d=" M 50.07 5.99 C 49.88 4.54 51.68 3.51 52.90 4.20 C 54.32 4.93 53.87 6.68 54.02 7.97 C 53.98 16.34 54.01 24.70 53.99 33.07 C 52.65 31.41 51.33 29.74 49.99 28.08 C 50.08 20.71 49.87 13.34 50.07 5.99 Z" />
<path fill="#000000" opacity="1.00" d=" M 3.02 30.41 C 7.96 29.03 13.63 31.59 17.99 28.16 C 27.58 27.92 37.25 27.80 46.83 28.23 C 49.30 30.47 50.92 33.43 53.00 36.00 C 39.01 36.00 25.01 36.00 11.02 36.00 C 11.38 35.51 12.10 34.51 12.46 34.01 C 9.66 33.94 6.83 33.86 4.04 34.25 C 3.67 36.44 7.87 36.26 6.90 38.75 C 4.74 41.77 0.41 38.64 0.00 35.73 L 0.00 34.05 C 0.66 32.60 1.42 31.01 3.02 30.41 Z" />
<path fill="#000000" opacity="1.00" d=" M 10.00 40.00 C 24.67 40.00 39.33 40.00 54.00 40.00 C 53.43 43.84 55.87 50.10 51.03 51.84 C 39.71 52.25 28.34 51.85 17.00 52.03 C 14.64 52.06 11.57 52.27 10.37 49.72 C 9.60 46.55 10.14 43.23 10.00 40.00 M 23.18 44.17 C 20.77 45.13 22.47 48.97 24.86 47.84 C 27.17 46.82 25.53 43.05 23.18 44.17 M 31.14 44.13 C 28.83 45.19 30.47 49.00 32.85 47.81 C 35.20 46.76 33.49 43.07 31.14 44.13 M 39.05 44.12 C 36.92 45.35 38.47 48.91 40.84 47.84 C 43.22 46.73 41.47 43.05 39.05 44.12 Z" />
</g>
</svg>
