<?xml version="1.0" encoding="UTF-8" ?>
<!DOCTYPE svg PUBLIC "-//W3C//DTD SVG 1.1//EN" "http://www.w3.org/Graphics/SVG/1.1/DTD/svg11.dtd">
<svg width="60pt" height="60pt" viewBox="0 0 60 60" version="1.1" xmlns="http://www.w3.org/2000/svg">
<g id="#ffffffff">
<path fill="#ffffff" opacity="1.00" d=" M 0.00 0.00 L 60.00 0.00 L 60.00 60.00 L 0.00 60.00 L 0.00 0.00 M 20.05 9.89 C 19.87 15.18 20.09 20.48 19.97 25.77 C 16.81 28.66 14.27 32.50 14.05 36.90 C 13.24 45.39 20.45 53.59 28.95 53.95 C 37.42 54.73 45.53 47.59 45.95 39.12 C 46.45 33.95 43.76 29.11 40.02 25.73 C 39.91 20.44 40.14 15.16 39.94 9.88 C 39.97 7.85 38.09 6.01 36.07 6.05 C 32.03 5.94 27.99 5.94 23.95 6.05 C 21.88 5.96 19.99 7.81 20.05 9.89 Z" />
<path fill="#ffffff" opacity="1.00" d=" M 24.00 10.00 C 28.00 10.00 32.00 10.00 36.00 10.00 C 36.01 15.82 35.97 21.63 36.03 27.45 C 39.78 30.05 42.54 34.40 41.91 39.11 C 41.48 45.47 35.30 50.68 28.93 49.92 C 22.94 49.52 17.90 44.03 18.02 38.02 C 17.84 33.66 20.54 29.86 23.97 27.46 C 24.03 21.64 23.99 15.82 24.00 10.00 M 28.00 16.00 C 27.99 20.70 28.02 25.39 27.98 30.09 C 25.65 31.21 23.25 32.68 22.47 35.32 C 20.66 39.91 24.12 45.48 29.02 45.92 C 33.97 46.71 38.72 41.95 37.92 36.99 C 37.64 33.65 34.93 31.32 32.02 30.10 C 31.98 25.40 32.01 20.70 32.00 16.00 C 30.67 16.00 29.33 16.00 28.00 16.00 Z" />
</g>
<g id="#000000ff">
<path fill="#000000" opacity="1.00" d=" M 20.05 9.89 C 19.99 7.81 21.88 5.96 23.95 6.05 C 27.99 5.94 32.03 5.94 36.07 6.05 C 38.09 6.01 39.97 7.85 39.94 9.88 C 40.14 15.16 39.91 20.44 40.02 25.73 C 43.76 29.11 46.45 33.95 45.95 39.12 C 45.53 47.59 37.42 54.73 28.95 53.95 C 20.45 53.59 13.24 45.39 14.05 36.90 C 14.27 32.50 16.81 28.66 19.97 25.77 C 20.09 20.48 19.87 15.18 20.05 9.89 M 24.00 10.00 C 23.99 15.82 24.03 21.64 23.97 27.46 C 20.54 29.86 17.84 33.66 18.02 38.02 C 17.90 44.03 22.94 49.52 28.93 49.92 C 35.30 50.68 41.48 45.47 41.91 39.11 C 42.54 34.40 39.78 30.05 36.03 27.45 C 35.97 21.63 36.01 15.82 36.00 10.00 C 32.00 10.00 28.00 10.00 24.00 10.00 Z" />
<path fill="#000000" opacity="1.00" d=" M 28.00 16.00 C 29.33 16.00 30.67 16.00 32.00 16.00 C 32.01 20.70 31.98 25.40 32.02 30.10 C 34.93 31.32 37.64 33.65 37.92 36.99 C 38.72 41.95 33.97 46.71 29.02 45.92 C 24.12 45.48 20.66 39.91 22.47 35.32 C 23.25 32.68 25.65 31.21 27.98 30.09 C 28.02 25.39 27.99 20.70 28.00 16.00 Z" />
</g>
</svg>
