<?xml version="1.0" encoding="UTF-8" ?>
<!DOCTYPE svg PUBLIC "-//W3C//DTD SVG 1.1//EN" "http://www.w3.org/Graphics/SVG/1.1/DTD/svg11.dtd">
<svg width="64pt" height="64pt" viewBox="0 0 64 64" version="1.1" xmlns="http://www.w3.org/2000/svg">
<g id="#ffffffff">
<path fill="#ffffff" opacity="1.00" d=" M 0.00 0.00 L 64.00 0.00 L 64.00 64.00 L 0.00 64.00 L 0.00 0.00 M 16.21 10.01 C 12.96 22.04 9.71 34.06 6.44 46.08 C 5.68 48.65 6.08 51.36 6.01 54.00 C 7.34 54.00 8.67 54.00 10.00 54.00 C 9.62 49.89 10.42 45.88 11.70 42.00 C 15.90 42.00 20.10 42.00 24.29 42.00 C 25.58 45.88 26.38 49.89 26.00 54.00 C 27.33 54.00 28.66 54.00 29.99 54.00 C 29.92 51.36 30.31 48.65 29.56 46.08 C 26.29 34.06 23.03 22.03 19.79 10.00 C 18.60 10.01 17.40 10.01 16.21 10.01 M 43.36 10.01 C 40.44 21.72 37.50 33.42 34.54 45.11 C 33.75 48.01 34.12 51.04 34.00 54.00 C 36.00 54.00 38.00 54.00 40.00 54.00 C 39.70 49.93 40.25 45.90 41.48 42.01 C 44.49 41.99 47.51 41.99 50.53 42.02 C 51.75 45.91 52.30 49.93 52.00 54.00 C 54.00 54.00 55.99 54.00 57.99 54.00 C 57.93 51.50 58.25 48.96 57.71 46.50 C 54.68 34.34 51.64 22.18 48.64 10.02 C 46.88 10.00 45.12 10.00 43.36 10.01 Z" />
<path fill="#ffffff" opacity="1.00" d=" M 18.00 18.75 C 19.75 25.16 21.47 31.58 23.22 38.00 C 19.74 38.00 16.27 38.00 12.79 37.99 C 14.51 31.57 16.26 25.16 18.00 18.75 Z" />
<path fill="#ffffff" opacity="1.00" d=" M 42.96 36.00 C 43.95 31.83 44.99 27.68 46.00 23.52 C 47.01 27.68 48.03 31.84 49.05 36.00 C 47.02 36.00 44.99 36.00 42.96 36.00 Z" />
</g>
<g id="#000000ff">
<path fill="#000000" opacity="1.00" d=" M 16.21 10.01 C 17.40 10.01 18.60 10.01 19.79 10.00 C 23.03 22.03 26.29 34.06 29.56 46.08 C 30.31 48.65 29.92 51.36 29.99 54.00 C 28.66 54.00 27.33 54.00 26.00 54.00 C 26.38 49.89 25.58 45.88 24.29 42.00 C 20.10 42.00 15.90 42.00 11.70 42.00 C 10.42 45.88 9.62 49.89 10.00 54.00 C 8.67 54.00 7.34 54.00 6.01 54.00 C 6.08 51.36 5.68 48.65 6.44 46.08 C 9.71 34.06 12.96 22.04 16.21 10.01 M 18.00 18.75 C 16.26 25.16 14.51 31.57 12.79 37.99 C 16.27 38.00 19.74 38.00 23.22 38.00 C 21.47 31.58 19.75 25.16 18.00 18.75 Z" />
<path fill="#000000" opacity="1.00" d=" M 43.36 10.01 C 45.12 10.00 46.88 10.00 48.64 10.02 C 51.64 22.18 54.68 34.34 57.71 46.50 C 58.25 48.96 57.93 51.50 57.99 54.00 C 55.99 54.00 54.00 54.00 52.00 54.00 C 52.30 49.93 51.75 45.91 50.53 42.02 C 47.51 41.99 44.49 41.99 41.48 42.01 C 40.25 45.90 39.70 49.93 40.00 54.00 C 38.00 54.00 36.00 54.00 34.00 54.00 C 34.12 51.04 33.75 48.01 34.54 45.11 C 37.50 33.42 40.44 21.72 43.36 10.01 M 42.96 36.00 C 44.99 36.00 47.02 36.00 49.05 36.00 C 48.03 31.84 47.01 27.68 46.00 23.52 C 44.99 27.68 43.95 31.83 42.96 36.00 Z" />
</g>
</svg>
