<?xml version="1.0" encoding="UTF-8" ?>
<!DOCTYPE svg PUBLIC "-//W3C//DTD SVG 1.1//EN" "http://www.w3.org/Graphics/SVG/1.1/DTD/svg11.dtd">
<svg width="64pt" height="64pt" viewBox="0 0 64 64" version="1.1" xmlns="http://www.w3.org/2000/svg">
<g id="#ffffffff">
<path fill="#ffffff" opacity="1.00" d=" M 0.00 0.00 L 64.00 0.00 L 64.00 64.00 L 0.00 64.00 L 0.00 0.00 M 6.00 48.01 C 7.56 47.98 9.12 47.99 10.68 47.97 C 17.41 36.23 24.24 24.56 31.02 12.85 C 37.78 24.42 44.51 36.01 51.26 47.59 C 53.90 43.07 56.52 38.53 59.14 34.00 C 57.54 33.94 55.94 34.05 54.34 34.13 C 53.38 35.99 52.34 37.83 51.26 39.63 C 44.49 28.07 37.78 16.46 31.01 4.89 C 22.68 19.26 14.32 33.63 6.00 48.01 M 17.64 43.99 C 19.17 43.99 20.71 44.00 22.24 44.01 C 25.19 38.95 28.12 33.89 31.06 28.83 C 36.74 38.54 42.38 48.29 48.08 58.00 C 49.61 57.99 51.14 57.99 52.68 58.00 C 45.48 45.62 38.27 33.24 31.05 20.87 C 26.58 28.58 22.10 36.28 17.64 43.99 Z" />
</g>
<g id="#000000ff">
<path fill="#000000" opacity="1.00" d=" M 6.00 48.01 C 14.32 33.63 22.68 19.26 31.01 4.89 C 37.78 16.46 44.49 28.07 51.26 39.63 C 52.34 37.83 53.38 35.99 54.34 34.13 C 55.94 34.05 57.54 33.94 59.14 34.00 C 56.52 38.53 53.90 43.07 51.26 47.59 C 44.51 36.01 37.78 24.42 31.02 12.85 C 24.24 24.56 17.41 36.23 10.68 47.97 C 9.12 47.99 7.56 47.98 6.00 48.01 Z" />
<path fill="#000000" opacity="1.00" d=" M 17.64 43.99 C 22.10 36.28 26.58 28.58 31.05 20.87 C 38.27 33.24 45.48 45.62 52.68 58.00 C 51.14 57.99 49.61 57.99 48.08 58.00 C 42.38 48.29 36.74 38.54 31.06 28.83 C 28.12 33.89 25.19 38.95 22.24 44.01 C 20.71 44.00 19.17 43.99 17.64 43.99 Z" />
</g>
</svg>
