<?xml version="1.0" encoding="UTF-8" ?>
<!DOCTYPE svg PUBLIC "-//W3C//DTD SVG 1.1//EN" "http://www.w3.org/Graphics/SVG/1.1/DTD/svg11.dtd">
<svg width="64pt" height="64pt" viewBox="0 0 64 64" version="1.1" xmlns="http://www.w3.org/2000/svg">
<g id="#ffffffff">
<path fill="#ffffff" opacity="1.00" d=" M 0.00 0.00 L 64.00 0.00 L 64.00 64.00 L 0.00 64.00 L 0.00 0.00 M 8.01 8.01 C 7.99 24.00 7.99 40.00 8.01 55.99 C 17.34 56.01 26.66 56.01 35.99 55.99 C 36.04 49.63 35.95 43.27 36.03 36.91 C 38.02 38.94 40.36 40.71 41.92 43.11 C 42.12 46.06 41.97 49.03 42.00 51.99 C 46.67 52.01 51.33 52.01 55.99 51.99 C 56.01 47.33 56.01 42.67 55.99 38.01 C 51.70 37.92 47.39 38.15 43.10 37.92 C 40.71 36.34 38.95 33.99 36.92 32.00 C 38.96 30.01 40.71 27.64 43.11 26.08 C 47.40 25.85 51.70 26.07 55.99 25.99 C 56.01 21.33 56.01 16.67 55.99 12.01 C 51.33 11.99 46.67 11.99 42.00 12.01 C 41.97 14.97 42.12 17.93 41.92 20.89 C 40.38 23.29 38.02 25.05 36.03 27.08 C 35.95 20.73 36.04 14.37 35.99 8.01 C 26.66 7.99 17.34 7.99 8.01 8.01 Z" />
<path fill="#ffffff" opacity="1.00" d=" M 12.01 12.01 C 18.67 11.99 25.33 11.99 31.99 12.01 C 32.00 25.34 32.01 38.66 31.99 51.99 C 25.33 52.01 18.67 52.01 12.01 51.99 C 11.99 38.66 11.99 25.34 12.01 12.01 M 16.00 16.02 C 15.99 17.34 15.99 18.66 16.00 19.97 C 20.00 20.02 24.00 20.02 28.00 19.98 C 28.01 18.66 28.01 17.34 28.00 16.03 C 24.00 15.98 20.00 15.98 16.00 16.02 M 16.00 24.03 C 15.99 25.34 15.99 26.66 16.00 27.98 C 20.00 28.02 24.00 28.02 28.00 27.98 C 28.01 26.66 28.01 25.34 28.00 24.03 C 24.00 23.98 20.00 23.98 16.00 24.03 M 21.21 40.10 C 18.86 41.16 20.37 44.84 22.79 43.90 C 25.14 42.83 23.62 39.17 21.21 40.10 Z" />
<path fill="#ffffff" opacity="1.00" d=" M 46.00 16.00 C 48.00 16.00 50.00 16.00 52.00 16.00 C 52.00 18.00 52.00 20.00 52.00 22.00 C 50.00 22.00 48.00 22.00 46.00 22.00 C 46.00 20.00 46.00 18.00 46.00 16.00 Z" />
<path fill="#ffffff" opacity="1.00" d=" M 46.00 42.00 C 48.00 42.00 50.00 42.00 52.00 42.00 C 52.00 44.00 52.00 46.00 52.00 48.00 C 50.00 48.00 48.00 48.00 46.00 48.00 C 46.00 46.00 46.00 44.00 46.00 42.00 Z" />
</g>
<g id="#000000ff">
<path fill="#000000" opacity="1.00" d=" M 8.01 8.01 C 17.34 7.99 26.66 7.99 35.99 8.01 C 36.04 14.37 35.95 20.73 36.03 27.08 C 38.02 25.05 40.38 23.29 41.92 20.89 C 42.12 17.93 41.97 14.97 42.00 12.01 C 46.67 11.99 51.33 11.99 55.99 12.01 C 56.01 16.67 56.01 21.33 55.99 25.99 C 51.70 26.07 47.40 25.85 43.11 26.08 C 40.71 27.64 38.96 30.01 36.92 32.00 C 38.95 33.99 40.71 36.34 43.10 37.92 C 47.39 38.15 51.70 37.92 55.99 38.01 C 56.01 42.67 56.01 47.33 55.99 51.99 C 51.33 52.01 46.67 52.01 42.00 51.99 C 41.97 49.03 42.12 46.06 41.92 43.11 C 40.36 40.71 38.02 38.94 36.03 36.91 C 35.95 43.27 36.04 49.63 35.99 55.99 C 26.66 56.01 17.34 56.01 8.01 55.99 C 7.99 40.00 7.99 24.00 8.01 8.01 M 12.01 12.01 C 11.99 25.34 11.99 38.66 12.01 51.99 C 18.67 52.01 25.33 52.01 31.99 51.99 C 32.01 38.66 32.00 25.34 31.99 12.01 C 25.33 11.99 18.67 11.99 12.01 12.01 M 46.00 16.00 C 46.00 18.00 46.00 20.00 46.00 22.00 C 48.00 22.00 50.00 22.00 52.00 22.00 C 52.00 20.00 52.00 18.00 52.00 16.00 C 50.00 16.00 48.00 16.00 46.00 16.00 M 46.00 42.00 C 46.00 44.00 46.00 46.00 46.00 48.00 C 48.00 48.00 50.00 48.00 52.00 48.00 C 52.00 46.00 52.00 44.00 52.00 42.00 C 50.00 42.00 48.00 42.00 46.00 42.00 Z" />
<path fill="#000000" opacity="1.00" d=" M 16.00 16.02 C 20.00 15.98 24.00 15.98 28.00 16.03 C 28.01 17.34 28.01 18.66 28.00 19.98 C 24.00 20.02 20.00 20.02 16.00 19.97 C 15.99 18.66 15.99 17.34 16.00 16.02 Z" />
<path fill="#000000" opacity="1.00" d=" M 16.00 24.03 C 20.00 23.98 24.00 23.98 28.00 24.03 C 28.01 25.34 28.01 26.66 28.00 27.98 C 24.00 28.02 20.00 28.02 16.00 27.98 C 15.99 26.66 15.99 25.34 16.00 24.03 Z" />
<path fill="#000000" opacity="1.00" d=" M 21.21 40.10 C 23.62 39.17 25.14 42.83 22.79 43.90 C 20.37 44.84 18.86 41.16 21.21 40.10 Z" />
</g>
</svg>
