<?xml version="1.0" encoding="UTF-8" ?>
<!DOCTYPE svg PUBLIC "-//W3C//DTD SVG 1.1//EN" "http://www.w3.org/Graphics/SVG/1.1/DTD/svg11.dtd">
<svg width="60pt" height="60pt" viewBox="0 0 60 60" version="1.1" xmlns="http://www.w3.org/2000/svg">
<g id="#ffffffff">
<path fill="#ffffff" opacity="1.00" d=" M 0.00 0.00 L 60.00 0.00 L 60.00 60.00 L 0.00 60.00 L 0.00 0.00 M 19.12 7.05 C 15.67 8.48 13.43 11.70 12.24 15.13 C 5.71 18.19 2.13 26.31 4.99 33.09 C 7.65 40.41 16.71 43.95 23.77 40.86 C 29.46 46.04 39.16 44.40 42.74 37.56 C 48.33 39.35 54.92 35.68 55.81 29.78 C 56.95 24.47 53.04 19.30 47.94 18.06 C 46.66 10.82 38.67 6.09 31.72 8.68 C 28.12 6.07 23.23 5.11 19.12 7.05 M 22.33 46.39 C 19.62 47.52 19.15 51.69 21.71 53.24 C 23.61 54.79 26.64 53.83 27.60 51.67 C 29.35 48.58 25.44 44.61 22.33 46.39 M 13.19 52.09 C 10.82 53.21 12.44 56.91 14.90 55.88 C 17.07 54.66 15.58 51.18 13.19 52.09 Z" />
</g>
<g id="#000000ff">
<path fill="#968176" opacity="1.00" d=" M 19.12 7.05 C 23.23 5.11 28.12 6.07 31.72 8.68 C 38.67 6.09 46.66 10.82 47.94 18.06 C 53.04 19.30 56.95 24.47 55.81 29.78 C 54.92 35.68 48.33 39.35 42.74 37.56 C 39.16 44.40 29.46 46.04 23.77 40.86 C 16.71 43.95 7.65 40.41 4.99 33.09 C 2.13 26.31 5.71 18.19 12.24 15.13 C 13.43 11.70 15.67 8.48 19.12 7.05 Z" />
<path fill="#968176" opacity="1.00" d=" M 22.33 46.39 C 25.44 44.61 29.35 48.58 27.60 51.67 C 26.64 53.83 23.61 54.79 21.71 53.24 C 19.15 51.69 19.62 47.52 22.33 46.39 Z" />
<path fill="#968176" opacity="1.00" d=" M 13.19 52.09 C 15.58 51.18 17.07 54.66 14.90 55.88 C 12.44 56.91 10.82 53.21 13.19 52.09 Z" />
</g>
</svg>
