<?xml version="1.0" encoding="UTF-8" ?>
<!DOCTYPE svg PUBLIC "-//W3C//DTD SVG 1.1//EN" "http://www.w3.org/Graphics/SVG/1.1/DTD/svg11.dtd">
<svg width="60pt" height="60pt" viewBox="0 0 60 60" version="1.1" xmlns="http://www.w3.org/2000/svg">
<g id="#ffffffff">
<path fill="#ffffff" opacity="1.00" d=" M 0.00 0.00 L 60.00 0.00 L 60.00 60.00 L 0.00 60.00 L 0.00 0.00 M 29.24 8.15 C 25.56 11.99 22.88 16.71 20.26 21.31 C 17.68 26.35 14.83 32.10 16.59 37.88 C 18.42 44.78 26.11 49.37 33.06 47.61 C 40.36 46.16 45.49 38.16 43.60 30.92 C 41.63 23.32 37.24 16.64 32.73 10.32 C 31.86 9.28 30.89 7.44 29.24 8.15 M 6.66 22.70 C 4.69 25.49 9.14 26.81 11.11 27.49 C 13.12 28.63 14.90 25.23 12.96 24.18 C 11.11 23.30 8.60 21.09 6.66 22.70 M 50.48 22.46 C 48.87 23.28 46.26 23.71 46.14 25.90 C 47.15 29.28 50.90 26.74 52.84 25.70 C 55.40 24.39 52.62 20.64 50.48 22.46 M 3.18 32.19 C 1.62 32.80 1.61 35.18 3.16 35.80 C 5.70 36.16 8.31 36.16 10.86 35.80 C 12.39 35.14 12.37 32.78 10.80 32.18 C 8.28 31.85 5.70 31.85 3.18 32.19 M 49.20 32.19 C 47.61 32.73 47.62 35.25 49.19 35.80 C 51.71 36.16 54.30 36.15 56.82 35.80 C 58.37 35.21 58.37 32.81 56.84 32.20 C 54.32 31.84 51.73 31.84 49.20 32.19 M 9.32 41.17 C 8.22 41.85 6.07 42.27 6.22 43.91 C 5.98 45.62 8.25 46.49 9.50 45.54 C 11.27 44.73 14.73 43.90 13.61 41.25 C 12.54 39.58 10.69 40.58 9.32 41.17 M 46.40 41.17 C 45.19 44.09 49.16 44.89 51.12 45.76 C 53.24 46.89 55.01 43.26 52.82 42.29 C 50.87 41.44 48.30 39.13 46.40 41.17 Z" />
<path fill="#ffffff" opacity="1.00" d=" M 22.00 31.92 C 22.44 28.80 24.24 26.14 26.00 23.62 C 27.57 25.88 29.17 28.22 29.81 30.95 C 30.68 33.35 28.44 36.09 25.96 35.99 C 23.85 36.01 21.86 34.06 22.00 31.92 Z" />
</g>
<g id="#000000ff">
<path fill="#000000" opacity="1.00" d=" M 29.24 8.15 C 30.89 7.44 31.86 9.28 32.73 10.32 C 37.24 16.64 41.63 23.32 43.60 30.92 C 45.49 38.16 40.36 46.16 33.06 47.61 C 26.11 49.37 18.42 44.78 16.59 37.88 C 14.83 32.10 17.68 26.35 20.26 21.31 C 22.88 16.71 25.56 11.99 29.24 8.15 M 22.00 31.92 C 21.86 34.06 23.85 36.01 25.96 35.99 C 28.44 36.09 30.68 33.35 29.81 30.95 C 29.17 28.22 27.57 25.88 26.00 23.62 C 24.24 26.14 22.44 28.80 22.00 31.92 Z" />
<path fill="#000000" opacity="1.00" d=" M 6.66 22.70 C 8.60 21.09 11.11 23.30 12.96 24.18 C 14.90 25.23 13.12 28.63 11.11 27.49 C 9.14 26.81 4.69 25.49 6.66 22.70 Z" />
<path fill="#000000" opacity="1.00" d=" M 50.48 22.46 C 52.62 20.64 55.40 24.39 52.84 25.70 C 50.90 26.74 47.15 29.28 46.14 25.90 C 46.26 23.71 48.87 23.28 50.48 22.46 Z" />
<path fill="#000000" opacity="1.00" d=" M 3.18 32.19 C 5.70 31.85 8.28 31.85 10.80 32.18 C 12.37 32.78 12.39 35.14 10.86 35.80 C 8.31 36.16 5.70 36.16 3.16 35.80 C 1.61 35.18 1.62 32.80 3.18 32.19 Z" />
<path fill="#000000" opacity="1.00" d=" M 49.20 32.19 C 51.73 31.84 54.32 31.84 56.84 32.20 C 58.37 32.81 58.37 35.21 56.82 35.80 C 54.30 36.15 51.71 36.16 49.19 35.80 C 47.62 35.25 47.61 32.73 49.20 32.19 Z" />
<path fill="#000000" opacity="1.00" d=" M 9.32 41.17 C 10.69 40.58 12.54 39.58 13.61 41.25 C 14.73 43.90 11.27 44.73 9.50 45.54 C 8.25 46.49 5.98 45.62 6.22 43.91 C 6.07 42.27 8.22 41.85 9.32 41.17 Z" />
<path fill="#000000" opacity="1.00" d=" M 46.40 41.17 C 48.30 39.13 50.87 41.44 52.82 42.29 C 55.01 43.26 53.24 46.89 51.12 45.76 C 49.16 44.89 45.19 44.09 46.40 41.17 Z" />
</g>
</svg>
