<?xml version="1.0" encoding="UTF-8" ?>
<!DOCTYPE svg PUBLIC "-//W3C//DTD SVG 1.1//EN" "http://www.w3.org/Graphics/SVG/1.1/DTD/svg11.dtd">
<svg width="60pt" height="60pt" viewBox="0 0 60 60" version="1.1" xmlns="http://www.w3.org/2000/svg">
<g id="#ffffffff">
<path fill="#ffffff" opacity="1.00" d=" M 0.00 0.00 L 60.00 0.00 L 60.00 60.00 L 0.00 60.00 L 0.00 0.00 M 23.72 8.80 C 24.89 8.81 26.06 8.81 27.22 8.82 C 28.14 6.90 30.78 6.02 32.07 8.09 C 32.41 10.59 29.69 10.38 28.00 10.72 C 28.00 11.27 28.02 12.37 28.03 12.93 C 29.58 13.35 31.90 12.88 32.35 14.95 C 32.17 16.78 30.22 16.79 28.86 17.18 C 28.31 16.46 27.76 15.74 27.20 15.03 C 26.28 15.05 24.44 15.09 23.52 15.12 C 24.45 20.87 33.35 21.75 35.86 16.85 C 37.04 14.47 35.03 12.44 33.03 11.51 C 35.12 10.73 36.45 8.21 35.05 6.21 C 31.99 2.31 24.61 3.65 23.72 8.80 M 4.09 17.94 C 3.86 28.65 4.09 39.37 3.98 50.08 C 4.01 51.50 3.87 54.07 5.95 53.95 C 8.11 54.15 7.90 51.40 8.20 50.00 C 22.73 50.00 37.27 50.00 51.80 50.00 C 52.13 51.32 51.84 53.05 53.17 53.90 C 54.47 54.32 56.06 53.48 55.90 51.98 C 56.11 48.39 56.15 44.77 55.83 41.18 C 55.16 39.63 53.32 40.13 52.00 39.98 C 37.33 40.02 22.66 39.99 8.00 40.00 C 7.92 32.66 8.15 25.31 7.91 17.97 C 8.19 15.39 3.84 15.37 4.09 17.94 M 12.00 25.94 C 12.00 29.30 12.00 32.65 12.00 36.00 C 14.66 36.00 17.33 36.00 20.00 36.00 C 19.85 33.28 20.56 30.29 19.29 27.76 C 17.70 25.31 14.45 26.18 12.00 25.94 M 24.00 36.00 C 34.02 36.00 44.04 36.00 54.06 36.00 C 53.88 33.23 54.51 29.88 52.23 27.77 C 50.14 25.51 46.79 26.08 44.03 25.97 C 38.37 26.17 32.68 25.72 27.03 26.17 C 22.75 27.37 24.21 32.71 24.00 36.00 Z" />
</g>
<g id="#000000ff">
<path fill="#000000" opacity="1.00" d=" M 23.72 8.80 C 24.61 3.65 31.99 2.31 35.05 6.21 C 36.45 8.21 35.12 10.73 33.03 11.51 C 35.03 12.44 37.04 14.47 35.86 16.85 C 33.35 21.75 24.45 20.87 23.52 15.12 C 24.44 15.09 26.28 15.05 27.20 15.03 C 27.76 15.74 28.31 16.46 28.86 17.18 C 30.22 16.79 32.17 16.78 32.35 14.95 C 31.90 12.88 29.58 13.35 28.03 12.93 C 28.02 12.37 28.00 11.27 28.00 10.72 C 29.69 10.38 32.41 10.59 32.07 8.09 C 30.78 6.02 28.14 6.90 27.22 8.82 C 26.06 8.81 24.89 8.81 23.72 8.80 Z" />
<path fill="#000000" opacity="1.00" d=" M 4.09 17.94 C 3.84 15.37 8.19 15.39 7.91 17.97 C 8.15 25.31 7.92 32.66 8.00 40.00 C 22.66 39.99 37.33 40.02 52.00 39.98 C 53.32 40.13 55.16 39.63 55.83 41.18 C 56.15 44.77 56.11 48.39 55.90 51.98 C 56.06 53.48 54.47 54.32 53.17 53.90 C 51.84 53.05 52.13 51.32 51.80 50.00 C 37.27 50.00 22.73 50.00 8.20 50.00 C 7.90 51.40 8.11 54.15 5.95 53.95 C 3.87 54.07 4.01 51.50 3.98 50.08 C 4.09 39.37 3.86 28.65 4.09 17.94 Z" />
<path fill="#000000" opacity="1.00" d=" M 12.00 25.94 C 14.45 26.18 17.70 25.31 19.29 27.76 C 20.56 30.29 19.85 33.28 20.00 36.00 C 17.33 36.00 14.66 36.00 12.00 36.00 C 12.00 32.65 12.00 29.30 12.00 25.94 Z" />
<path fill="#000000" opacity="1.00" d=" M 24.00 36.00 C 24.21 32.71 22.75 27.37 27.03 26.17 C 32.68 25.72 38.37 26.17 44.03 25.97 C 46.79 26.08 50.14 25.51 52.23 27.77 C 54.51 29.88 53.88 33.23 54.06 36.00 C 44.04 36.00 34.02 36.00 24.00 36.00 Z" />
</g>
</svg>
