<?xml version="1.0" encoding="UTF-8" ?>
<!DOCTYPE svg PUBLIC "-//W3C//DTD SVG 1.1//EN" "http://www.w3.org/Graphics/SVG/1.1/DTD/svg11.dtd">
<svg width="60pt" height="60pt" viewBox="0 0 60 60" version="1.1" xmlns="http://www.w3.org/2000/svg">
<g id="#ffffffff">
<path fill="#ffffff" opacity="1.00" d=" M 0.00 0.00 L 60.00 0.00 L 60.00 60.00 L 0.00 60.00 L 0.00 0.00 M 8.50 16.64 C 4.04 24.28 5.63 34.87 12.26 40.79 C 12.12 43.05 11.69 45.63 13.35 47.49 C 15.26 50.26 18.87 50.03 21.82 50.04 C 21.35 54.52 26.44 55.99 29.99 55.99 C 33.54 56.00 38.65 54.52 38.17 50.04 C 40.90 49.96 44.13 50.33 46.16 48.06 C 48.22 46.19 47.99 43.28 47.75 40.77 C 55.71 33.74 56.23 19.91 48.33 12.65 C 42.19 6.84 33.11 5.14 24.95 6.40 C 18.42 7.40 11.93 10.80 8.50 16.64 Z" />
<path fill="#ffffff" opacity="1.00" d=" M 20.42 34.72 C 23.53 32.61 28.15 35.27 28.00 38.99 C 28.16 42.70 23.55 45.38 20.43 43.28 C 17.25 41.56 17.23 36.44 20.42 34.72 Z" />
<path fill="#ffffff" opacity="1.00" d=" M 34.43 34.71 C 37.54 32.62 42.15 35.28 42.00 38.99 C 42.15 42.68 37.61 45.35 34.50 43.32 C 31.25 41.63 31.21 36.45 34.43 34.71 Z" />
<path fill="#ffffff" opacity="1.00" d=" M 28.06 48.69 C 27.88 46.86 29.32 45.42 30.00 43.85 C 30.66 45.45 32.22 46.92 31.90 48.78 C 31.13 50.40 28.73 50.37 28.06 48.69 Z" />
</g>
<g id="#000000ff">
<path fill="#000000" opacity="1.00" d=" M 8.50 16.64 C 11.93 10.80 18.42 7.40 24.95 6.40 C 33.11 5.14 42.19 6.84 48.33 12.65 C 56.23 19.91 55.71 33.74 47.75 40.77 C 47.99 43.28 48.22 46.19 46.16 48.06 C 44.13 50.33 40.90 49.96 38.17 50.04 C 38.65 54.52 33.54 56.00 29.99 55.99 C 26.44 55.99 21.35 54.52 21.82 50.04 C 18.87 50.03 15.26 50.26 13.35 47.49 C 11.69 45.63 12.12 43.05 12.26 40.79 C 5.63 34.87 4.04 24.28 8.50 16.64 M 20.42 34.72 C 17.23 36.44 17.25 41.56 20.43 43.28 C 23.55 45.38 28.16 42.70 28.00 38.99 C 28.15 35.27 23.53 32.61 20.42 34.72 M 34.43 34.71 C 31.21 36.45 31.25 41.63 34.50 43.32 C 37.61 45.35 42.15 42.68 42.00 38.99 C 42.15 35.28 37.54 32.62 34.43 34.71 M 28.06 48.69 C 28.73 50.37 31.13 50.40 31.90 48.78 C 32.22 46.92 30.66 45.45 30.00 43.85 C 29.32 45.42 27.88 46.86 28.06 48.69 Z" />
</g>
</svg>
