<?xml version="1.0" encoding="UTF-8" ?>
<!DOCTYPE svg PUBLIC "-//W3C//DTD SVG 1.1//EN" "http://www.w3.org/Graphics/SVG/1.1/DTD/svg11.dtd">
<svg width="64pt" height="64pt" viewBox="0 0 64 64" version="1.1" xmlns="http://www.w3.org/2000/svg">
<g id="#ffffffff">
<path fill="#ffffff" opacity="1.00" d=" M 0.00 0.00 L 64.00 0.00 L 64.00 64.00 L 0.00 64.00 L 0.00 0.00 M 14.38 17.07 C 12.96 23.52 11.56 29.99 10.21 36.46 C 9.30 39.66 11.54 43.31 14.84 43.84 C 19.10 44.22 23.39 43.89 27.66 44.02 C 25.83 47.02 23.23 50.16 24.18 53.95 C 24.91 56.94 29.50 59.56 31.85 56.87 C 36.17 52.56 40.49 48.26 44.85 43.99 C 47.90 44.01 50.95 43.99 54.00 44.00 C 54.00 33.33 54.00 22.67 54.00 12.00 C 42.98 12.01 31.96 11.98 20.94 12.01 C 17.84 11.71 14.84 13.97 14.38 17.07 Z" />
<path fill="#ffffff" opacity="1.00" d=" M 18.48 17.29 C 18.81 15.73 20.76 16.11 21.92 15.98 C 28.62 16.01 35.31 16.00 42.00 16.00 C 42.00 24.39 41.99 32.78 42.01 41.18 C 37.69 45.47 33.31 49.71 29.00 54.02 C 26.72 52.11 28.86 48.92 30.69 47.51 C 31.45 45.03 32.03 42.51 32.69 40.00 C 26.83 39.86 20.95 40.28 15.10 39.81 C 13.33 38.83 14.36 36.62 14.56 35.10 C 15.96 29.19 16.92 23.17 18.48 17.29 Z" />
<path fill="#ffffff" opacity="1.00" d=" M 46.00 16.00 C 47.33 16.00 48.67 16.00 50.00 16.00 C 50.00 24.00 50.00 32.00 50.00 40.00 C 48.67 40.00 47.33 40.00 46.00 40.00 C 46.00 32.00 46.00 24.00 46.00 16.00 Z" />
</g>
<g id="#000000ff">
<path fill="#000000" opacity="1.00" d=" M 14.38 17.07 C 14.84 13.97 17.84 11.71 20.94 12.01 C 31.96 11.98 42.98 12.01 54.00 12.00 C 54.00 22.67 54.00 33.33 54.00 44.00 C 50.95 43.99 47.90 44.01 44.85 43.99 C 40.49 48.26 36.17 52.56 31.85 56.87 C 29.50 59.56 24.91 56.94 24.18 53.95 C 23.23 50.16 25.83 47.02 27.66 44.02 C 23.39 43.89 19.10 44.22 14.84 43.84 C 11.54 43.31 9.30 39.66 10.21 36.46 C 11.56 29.99 12.96 23.52 14.38 17.07 M 18.48 17.29 C 16.92 23.17 15.96 29.19 14.56 35.10 C 14.36 36.62 13.33 38.83 15.10 39.81 C 20.95 40.28 26.83 39.86 32.69 40.00 C 32.03 42.51 31.45 45.03 30.69 47.51 C 28.86 48.92 26.72 52.11 29.00 54.02 C 33.31 49.71 37.69 45.47 42.01 41.18 C 41.99 32.78 42.00 24.39 42.00 16.00 C 35.31 16.00 28.62 16.01 21.92 15.98 C 20.76 16.11 18.81 15.73 18.48 17.29 M 46.00 16.00 C 46.00 24.00 46.00 32.00 46.00 40.00 C 47.33 40.00 48.67 40.00 50.00 40.00 C 50.00 32.00 50.00 24.00 50.00 16.00 C 48.67 16.00 47.33 16.00 46.00 16.00 Z" />
</g>
</svg>
