<?xml version="1.0" encoding="UTF-8" ?>
<!DOCTYPE svg PUBLIC "-//W3C//DTD SVG 1.1//EN" "http://www.w3.org/Graphics/SVG/1.1/DTD/svg11.dtd">
<svg width="64pt" height="64pt" viewBox="0 0 64 64" version="1.1" xmlns="http://www.w3.org/2000/svg">
<g id="#ffffffff">
<path fill="#ffffff" opacity="1.00" d=" M 0.00 0.00 L 64.00 0.00 L 64.00 64.00 L 0.00 64.00 L 0.00 0.00 M 29.02 17.67 C 30.78 17.67 32.55 17.67 34.32 17.67 C 33.47 19.25 32.62 20.83 31.77 22.41 C 31.41 22.05 30.71 21.32 30.36 20.95 C 29.95 23.30 29.54 25.64 29.13 27.98 C 31.35 26.72 33.55 25.42 35.73 24.07 C 35.12 23.85 33.92 23.40 33.32 23.18 C 35.20 20.63 37.10 18.10 38.96 15.54 C 37.14 15.53 35.32 15.53 33.49 15.53 C 35.29 13.03 37.08 10.52 38.87 8.01 C 37.81 8.01 35.69 8.00 34.63 7.99 C 32.76 11.22 30.88 14.44 29.02 17.67 M 8.00 30.00 C 8.00 36.29 8.00 42.57 8.00 48.86 C 10.37 51.25 12.75 53.63 15.14 56.00 C 26.38 56.00 37.61 56.00 48.84 56.00 C 51.27 53.66 53.66 51.27 56.01 48.84 C 55.99 42.56 56.00 36.28 56.00 30.00 C 40.00 30.00 24.00 30.00 8.00 30.00 Z" />
<path fill="#ffffff" opacity="1.00" d=" M 12.00 34.00 C 25.33 34.00 38.67 34.00 52.00 34.00 C 52.00 38.37 52.00 42.74 52.00 47.11 C 50.38 48.74 48.76 50.38 47.12 52.00 C 37.06 52.00 26.99 52.00 16.92 52.00 C 15.27 50.38 13.63 48.76 12.00 47.12 C 12.00 42.75 12.00 38.37 12.00 34.00 M 16.00 38.00 C 16.00 39.33 16.00 40.67 16.00 42.00 C 26.67 42.00 37.33 42.00 48.00 42.00 C 48.00 40.67 48.00 39.33 48.00 38.00 C 37.33 38.00 26.67 38.00 16.00 38.00 Z" />
</g>
<g id="#000000ff">
<path fill="#000000" opacity="1.00" d=" M 29.02 17.67 C 30.88 14.44 32.76 11.22 34.63 7.99 C 35.69 8.00 37.81 8.01 38.87 8.01 C 37.08 10.52 35.29 13.03 33.49 15.53 C 35.32 15.53 37.14 15.53 38.96 15.54 C 37.10 18.10 35.20 20.63 33.32 23.18 C 33.92 23.40 35.12 23.85 35.73 24.07 C 33.55 25.42 31.35 26.72 29.13 27.98 C 29.54 25.64 29.95 23.30 30.36 20.95 C 30.71 21.32 31.41 22.05 31.77 22.41 C 32.62 20.83 33.47 19.25 34.32 17.67 C 32.55 17.67 30.78 17.67 29.02 17.67 Z" />
<path fill="#000000" opacity="1.00" d=" M 8.00 30.00 C 24.00 30.00 40.00 30.00 56.00 30.00 C 56.00 36.28 55.99 42.56 56.01 48.84 C 53.66 51.27 51.27 53.66 48.84 56.00 C 37.61 56.00 26.38 56.00 15.14 56.00 C 12.75 53.63 10.37 51.25 8.00 48.86 C 8.00 42.57 8.00 36.29 8.00 30.00 M 12.00 34.00 C 12.00 38.37 12.00 42.75 12.00 47.12 C 13.63 48.76 15.27 50.38 16.92 52.00 C 26.99 52.00 37.06 52.00 47.12 52.00 C 48.76 50.38 50.38 48.74 52.00 47.11 C 52.00 42.74 52.00 38.37 52.00 34.00 C 38.67 34.00 25.33 34.00 12.00 34.00 Z" />
<path fill="#000000" opacity="1.00" d=" M 16.00 38.00 C 26.67 38.00 37.33 38.00 48.00 38.00 C 48.00 39.33 48.00 40.67 48.00 42.00 C 37.33 42.00 26.67 42.00 16.00 42.00 C 16.00 40.67 16.00 39.33 16.00 38.00 Z" />
</g>
</svg>
