<?xml version="1.0" encoding="UTF-8" ?>
<!DOCTYPE svg PUBLIC "-//W3C//DTD SVG 1.1//EN" "http://www.w3.org/Graphics/SVG/1.1/DTD/svg11.dtd">
<svg width="60pt" height="60pt" viewBox="0 0 60 60" version="1.1" xmlns="http://www.w3.org/2000/svg">
<g id="#ffffffff">
<path fill="#ffffff" opacity="1.00" d=" M 0.00 0.00 L 60.00 0.00 L 60.00 60.00 L 0.00 60.00 L 0.00 0.00 M 6.42 10.40 C 2.82 12.02 4.23 16.93 3.93 20.08 C 3.28 24.09 7.50 26.34 8.03 30.00 C 7.66 33.39 3.81 35.38 3.97 38.93 C 3.90 41.81 3.69 44.76 4.39 47.58 C 5.01 49.98 7.93 49.92 9.91 50.02 C 22.97 50.02 36.03 49.96 49.09 50.04 C 51.36 49.93 54.71 50.28 55.60 47.57 C 56.30 44.76 56.10 41.81 56.03 38.93 C 56.20 35.38 52.32 33.39 51.96 30.00 C 52.31 26.61 56.20 24.62 56.03 21.07 C 55.97 17.76 56.67 14.07 54.91 11.09 C 53.23 9.86 51.05 10.05 49.09 9.96 C 36.70 10.01 24.31 10.04 11.93 9.95 C 10.09 10.00 8.21 9.90 6.42 10.40 Z" />
</g>
<g id="#000000ff">
<path fill="#968176" opacity="1.00" d=" M 6.42 10.40 C 8.21 9.90 10.09 10.00 11.93 9.95 C 24.31 10.04 36.70 10.01 49.09 9.96 C 51.05 10.05 53.23 9.86 54.91 11.09 C 56.67 14.07 55.97 17.76 56.03 21.07 C 56.20 24.62 52.31 26.61 51.96 30.00 C 52.32 33.39 56.20 35.38 56.03 38.93 C 56.10 41.81 56.30 44.76 55.60 47.57 C 54.71 50.28 51.36 49.93 49.09 50.04 C 36.03 49.96 22.97 50.02 9.91 50.02 C 7.93 49.92 5.01 49.98 4.39 47.58 C 3.69 44.76 3.90 41.81 3.97 38.93 C 3.81 35.38 7.66 33.39 8.03 30.00 C 7.50 26.34 3.28 24.09 3.93 20.08 C 4.23 16.93 2.82 12.02 6.42 10.40 Z" />
</g>
</svg>
