<?xml version="1.0" encoding="UTF-8" ?>
<!DOCTYPE svg PUBLIC "-//W3C//DTD SVG 1.1//EN" "http://www.w3.org/Graphics/SVG/1.1/DTD/svg11.dtd">
<svg width="60pt" height="60pt" viewBox="0 0 60 60" version="1.1" xmlns="http://www.w3.org/2000/svg">
<g id="#ffffffff">
<path fill="#ffffff" opacity="1.00" d=" M 0.00 0.00 L 60.00 0.00 L 60.00 60.00 L 0.00 60.00 L 0.00 0.00 M 20.45 8.56 C 17.48 12.40 17.35 18.18 19.68 22.36 C 22.52 27.54 31.56 27.11 33.53 21.41 C 35.03 17.64 32.20 12.89 28.02 12.92 C 25.66 12.55 23.99 14.36 22.34 15.71 C 22.92 13.72 22.87 10.97 25.07 9.99 C 26.73 9.01 28.16 10.60 29.44 11.42 C 30.96 11.44 32.48 11.43 34.00 11.39 C 32.30 5.73 24.22 4.11 20.45 8.56 M 7.92 9.97 C 8.48 13.09 12.30 11.67 14.51 12.05 C 14.89 10.66 15.37 9.30 15.95 7.99 C 13.38 8.52 8.90 6.55 7.92 9.97 M 36.85 8.00 C 37.22 9.32 37.54 10.65 37.77 12.00 C 42.14 11.91 46.53 12.24 50.87 11.81 C 52.75 11.01 52.08 7.85 49.99 8.06 C 45.61 7.89 41.23 8.04 36.85 8.00 M 9.21 18.17 C 7.62 18.76 7.63 21.19 9.18 21.83 C 11.12 22.12 13.10 21.96 15.06 22.03 C 14.69 20.69 14.41 19.32 14.18 17.94 C 12.52 17.98 10.86 17.95 9.21 18.17 M 37.92 18.00 C 37.91 19.34 37.80 20.67 37.59 22.00 C 42.00 21.90 46.43 22.24 50.82 21.82 C 52.72 21.13 52.13 17.90 50.08 18.07 C 46.03 17.89 41.97 18.03 37.92 18.00 M 9.10 31.81 C 11.55 32.15 14.10 32.13 16.54 31.81 C 18.10 30.69 19.51 29.37 21.02 28.18 C 17.35 27.86 13.66 27.98 9.99 28.04 C 7.93 27.87 7.27 30.97 9.10 31.81 M 31.33 28.59 C 32.73 29.72 34.15 30.83 35.54 31.97 C 40.64 31.90 45.77 32.25 50.85 31.82 C 52.70 31.07 52.13 27.93 50.08 28.07 C 43.84 28.16 37.49 27.42 31.33 28.59 M 19.13 35.26 C 17.61 37.90 19.77 40.47 22.11 41.55 C 19.44 42.37 16.99 44.96 18.14 47.92 C 19.84 52.02 25.22 52.47 29.00 51.65 C 31.97 51.16 34.90 48.35 33.94 45.13 C 33.55 43.12 31.56 42.29 29.90 41.55 C 32.24 40.45 34.41 37.84 32.81 35.20 C 29.90 30.81 21.99 30.82 19.13 35.26 M 7.95 39.97 C 8.68 43.41 13.19 41.48 15.61 42.03 C 15.35 40.66 15.05 39.30 14.71 37.95 C 12.48 38.37 8.57 36.84 7.95 39.97 M 37.21 38.00 C 37.01 39.34 36.73 40.67 36.37 41.98 C 40.93 41.97 45.49 42.11 50.04 41.93 C 52.12 42.08 52.73 38.93 50.84 38.17 C 46.31 37.77 41.75 38.09 37.21 38.00 M 8.10 49.21 C 7.55 53.45 13.26 51.63 15.79 52.02 C 15.12 50.68 14.48 49.32 13.89 47.94 C 11.98 48.29 9.31 47.23 8.10 49.21 M 38.08 48.00 C 37.49 49.36 36.86 50.69 36.18 52.00 C 41.07 51.89 45.98 52.25 50.85 51.82 C 52.73 51.06 52.10 47.88 50.03 48.07 C 46.05 47.89 42.06 48.04 38.08 48.00 Z" />
<path fill="#ffffff" opacity="1.00" d=" M 24.24 17.10 C 25.93 15.55 29.12 16.59 29.24 18.99 C 29.60 21.17 27.04 23.02 25.07 22.02 C 23.14 21.26 22.72 18.47 24.24 17.10 Z" />
<path fill="#ffffff" opacity="1.00" d=" M 24.60 35.67 C 26.97 34.05 30.20 37.54 27.68 39.48 C 25.22 41.81 21.41 37.34 24.60 35.67 Z" />
<path fill="#ffffff" opacity="1.00" d=" M 23.46 44.37 C 25.25 42.18 29.95 43.69 28.85 46.76 C 27.72 50.49 20.90 47.97 23.46 44.37 Z" />
</g>
<g id="#000000ff">
<path fill="#000000" opacity="1.00" d=" M 20.45 8.56 C 24.22 4.11 32.30 5.73 34.00 11.39 C 32.48 11.43 30.96 11.44 29.44 11.42 C 28.16 10.60 26.73 9.01 25.07 9.99 C 22.87 10.97 22.92 13.72 22.34 15.71 C 23.99 14.36 25.66 12.55 28.02 12.92 C 32.20 12.89 35.03 17.64 33.53 21.41 C 31.56 27.11 22.52 27.54 19.68 22.36 C 17.35 18.18 17.48 12.40 20.45 8.56 M 24.24 17.10 C 22.72 18.47 23.14 21.26 25.07 22.02 C 27.04 23.02 29.60 21.17 29.24 18.99 C 29.12 16.59 25.93 15.55 24.24 17.10 Z" />
<path fill="#000000" opacity="1.00" d=" M 7.92 9.97 C 8.90 6.55 13.38 8.52 15.95 7.99 C 15.37 9.30 14.89 10.66 14.51 12.05 C 12.30 11.67 8.48 13.09 7.92 9.97 Z" />
<path fill="#000000" opacity="1.00" d=" M 36.85 8.00 C 41.23 8.04 45.61 7.89 49.99 8.06 C 52.08 7.85 52.75 11.01 50.87 11.81 C 46.53 12.24 42.14 11.91 37.77 12.00 C 37.54 10.65 37.22 9.32 36.85 8.00 Z" />
<path fill="#000000" opacity="1.00" d=" M 9.21 18.17 C 10.86 17.95 12.52 17.98 14.18 17.94 C 14.41 19.32 14.69 20.69 15.06 22.03 C 13.10 21.96 11.12 22.12 9.18 21.83 C 7.63 21.19 7.62 18.76 9.21 18.17 Z" />
<path fill="#000000" opacity="1.00" d=" M 37.92 18.00 C 41.97 18.03 46.03 17.89 50.08 18.07 C 52.13 17.90 52.72 21.13 50.82 21.82 C 46.43 22.24 42.00 21.90 37.59 22.00 C 37.80 20.67 37.91 19.34 37.92 18.00 Z" />
<path fill="#000000" opacity="1.00" d=" M 9.10 31.81 C 7.27 30.97 7.93 27.87 9.99 28.04 C 13.66 27.98 17.35 27.86 21.02 28.18 C 19.51 29.37 18.10 30.69 16.54 31.81 C 14.10 32.13 11.55 32.15 9.10 31.81 Z" />
<path fill="#000000" opacity="1.00" d=" M 31.33 28.59 C 37.49 27.42 43.84 28.16 50.08 28.07 C 52.13 27.93 52.70 31.07 50.85 31.82 C 45.77 32.25 40.64 31.90 35.54 31.97 C 34.15 30.83 32.73 29.72 31.33 28.59 Z" />
<path fill="#000000" opacity="1.00" d=" M 19.13 35.26 C 21.99 30.82 29.90 30.81 32.81 35.20 C 34.41 37.84 32.24 40.45 29.90 41.55 C 31.56 42.29 33.55 43.12 33.94 45.13 C 34.90 48.35 31.97 51.16 29.00 51.65 C 25.22 52.47 19.84 52.02 18.14 47.92 C 16.99 44.96 19.44 42.37 22.11 41.55 C 19.77 40.47 17.61 37.90 19.13 35.26 M 24.60 35.67 C 21.41 37.34 25.22 41.81 27.68 39.48 C 30.20 37.54 26.97 34.05 24.60 35.67 M 23.46 44.37 C 20.90 47.97 27.72 50.49 28.85 46.76 C 29.95 43.69 25.25 42.18 23.46 44.37 Z" />
<path fill="#000000" opacity="1.00" d=" M 7.95 39.97 C 8.57 36.84 12.48 38.37 14.71 37.95 C 15.05 39.30 15.35 40.66 15.61 42.03 C 13.19 41.48 8.68 43.41 7.95 39.97 Z" />
<path fill="#000000" opacity="1.00" d=" M 37.21 38.00 C 41.75 38.09 46.31 37.77 50.84 38.17 C 52.73 38.93 52.12 42.08 50.04 41.93 C 45.49 42.11 40.93 41.97 36.37 41.98 C 36.73 40.67 37.01 39.34 37.21 38.00 Z" />
<path fill="#000000" opacity="1.00" d=" M 8.10 49.21 C 9.31 47.23 11.98 48.29 13.89 47.94 C 14.48 49.32 15.12 50.68 15.79 52.02 C 13.26 51.63 7.55 53.45 8.10 49.21 Z" />
<path fill="#000000" opacity="1.00" d=" M 38.08 48.00 C 42.06 48.04 46.05 47.89 50.03 48.07 C 52.10 47.88 52.73 51.06 50.85 51.82 C 45.98 52.25 41.07 51.89 36.18 52.00 C 36.86 50.69 37.49 49.36 38.08 48.00 Z" />
</g>
</svg>
