<?xml version="1.0" encoding="UTF-8" ?>
<!DOCTYPE svg PUBLIC "-//W3C//DTD SVG 1.1//EN" "http://www.w3.org/Graphics/SVG/1.1/DTD/svg11.dtd">
<svg width="64pt" height="64pt" viewBox="0 0 64 64" version="1.1" xmlns="http://www.w3.org/2000/svg">
<g id="#ffffffff">
<path fill="#ffffff" opacity="1.00" d=" M 0.00 0.00 L 64.00 0.00 L 64.00 46.87 C 63.46 38.39 55.42 31.25 46.90 32.05 C 38.04 32.47 30.70 41.33 32.15 50.14 C 33.05 57.39 39.41 63.33 46.65 64.00 L 0.00 64.00 L 0.00 0.00 M 8.00 10.00 C 8.00 24.67 8.00 39.33 8.00 54.00 C 15.32 54.00 22.63 54.00 29.95 54.00 C 29.63 52.67 29.35 51.34 29.08 50.00 C 23.38 50.00 17.69 50.00 12.00 50.00 C 12.00 40.67 12.00 31.33 12.00 22.00 C 25.33 22.00 38.67 22.00 52.00 22.00 C 52.00 24.46 52.00 26.92 51.99 29.39 C 53.33 29.82 54.67 30.28 56.00 30.76 C 56.00 23.84 56.00 16.92 56.00 10.00 C 40.00 10.00 24.00 10.00 8.00 10.00 M 18.00 28.00 C 18.00 29.33 18.00 30.67 18.00 32.00 C 19.33 32.00 20.67 32.00 22.00 32.00 C 22.00 30.67 22.00 29.33 22.00 28.00 C 20.67 28.00 19.33 28.00 18.00 28.00 M 26.00 28.00 C 26.00 29.33 26.00 30.66 26.00 32.00 C 32.26 31.87 39.84 33.26 44.54 28.09 C 38.36 27.89 32.18 28.05 26.00 28.00 M 18.00 36.00 C 18.00 37.33 18.00 38.67 18.00 40.00 C 19.33 40.00 20.67 40.00 22.00 40.00 C 22.00 38.67 22.00 37.33 22.00 36.00 C 20.67 36.00 19.33 36.00 18.00 36.00 M 26.00 36.00 C 26.00 37.33 26.00 38.67 26.00 40.00 C 27.58 40.00 29.16 40.00 30.74 40.01 C 31.54 38.66 32.38 37.32 33.23 36.00 C 30.82 36.00 28.41 36.00 26.00 36.00 Z" />
<path fill="#ffffff" opacity="1.00" d=" M 12.00 14.00 C 25.33 14.00 38.67 14.00 52.00 14.00 C 52.00 15.33 52.00 16.67 52.00 18.00 C 38.67 18.00 25.33 18.00 12.00 18.00 C 12.00 16.67 12.00 15.33 12.00 14.00 Z" />
<path fill="#ffffff" opacity="1.00" d=" M 44.39 36.58 C 51.34 34.12 59.48 39.53 59.91 46.87 C 60.83 54.05 54.07 60.88 46.86 59.91 C 39.79 59.47 34.43 51.88 36.39 45.06 C 37.36 41.09 40.49 37.77 44.39 36.58 M 46.00 38.00 C 46.00 42.00 46.00 46.00 46.00 50.00 C 49.33 50.00 52.67 50.00 56.00 50.00 C 56.00 48.67 56.00 47.33 56.00 46.00 C 54.00 46.00 52.00 46.00 50.00 46.00 C 50.00 43.33 50.00 40.67 50.00 38.00 C 48.67 38.00 47.33 38.00 46.00 38.00 Z" />
<path fill="#ffffff" opacity="1.00" d=" M 49.17 64.00 C 56.82 63.43 63.31 56.98 64.00 49.35 L 64.00 64.00 L 49.17 64.00 Z" />
</g>
<g id="#000000ff">
<path fill="#000000" opacity="1.00" d=" M 8.00 10.00 C 24.00 10.00 40.00 10.00 56.00 10.00 C 56.00 16.92 56.00 23.84 56.00 30.76 C 54.67 30.28 53.33 29.82 51.99 29.39 C 52.00 26.92 52.00 24.46 52.00 22.00 C 38.67 22.00 25.33 22.00 12.00 22.00 C 12.00 31.33 12.00 40.67 12.00 50.00 C 17.69 50.00 23.38 50.00 29.08 50.00 C 29.35 51.34 29.63 52.67 29.95 54.00 C 22.63 54.00 15.32 54.00 8.00 54.00 C 8.00 39.33 8.00 24.67 8.00 10.00 M 12.00 14.00 C 12.00 15.33 12.00 16.67 12.00 18.00 C 25.33 18.00 38.67 18.00 52.00 18.00 C 52.00 16.67 52.00 15.33 52.00 14.00 C 38.67 14.00 25.33 14.00 12.00 14.00 Z" />
<path fill="#000000" opacity="1.00" d=" M 18.00 28.00 C 19.33 28.00 20.67 28.00 22.00 28.00 C 22.00 29.33 22.00 30.67 22.00 32.00 C 20.67 32.00 19.33 32.00 18.00 32.00 C 18.00 30.67 18.00 29.33 18.00 28.00 Z" />
<path fill="#000000" opacity="1.00" d=" M 26.00 28.00 C 32.18 28.05 38.36 27.89 44.54 28.09 C 39.84 33.26 32.26 31.87 26.00 32.00 C 26.00 30.66 26.00 29.33 26.00 28.00 Z" />
<path fill="#000000" opacity="1.00" d=" M 32.15 50.14 C 30.70 41.33 38.04 32.47 46.90 32.05 C 55.42 31.25 63.46 38.39 64.00 46.87 L 64.00 49.35 C 63.31 56.98 56.82 63.43 49.17 64.00 L 46.65 64.00 C 39.41 63.33 33.05 57.39 32.15 50.14 M 44.39 36.58 C 40.49 37.77 37.36 41.09 36.39 45.06 C 34.43 51.88 39.79 59.47 46.86 59.91 C 54.07 60.88 60.83 54.05 59.91 46.87 C 59.48 39.53 51.34 34.12 44.39 36.58 Z" />
<path fill="#000000" opacity="1.00" d=" M 18.00 36.00 C 19.33 36.00 20.67 36.00 22.00 36.00 C 22.00 37.33 22.00 38.67 22.00 40.00 C 20.67 40.00 19.33 40.00 18.00 40.00 C 18.00 38.67 18.00 37.33 18.00 36.00 Z" />
<path fill="#000000" opacity="1.00" d=" M 26.00 36.00 C 28.41 36.00 30.82 36.00 33.23 36.00 C 32.38 37.32 31.54 38.66 30.74 40.01 C 29.16 40.00 27.58 40.00 26.00 40.00 C 26.00 38.67 26.00 37.33 26.00 36.00 Z" />
<path fill="#000000" opacity="1.00" d=" M 46.00 38.00 C 47.33 38.00 48.67 38.00 50.00 38.00 C 50.00 40.67 50.00 43.33 50.00 46.00 C 52.00 46.00 54.00 46.00 56.00 46.00 C 56.00 47.33 56.00 48.67 56.00 50.00 C 52.67 50.00 49.33 50.00 46.00 50.00 C 46.00 46.00 46.00 42.00 46.00 38.00 Z" />
</g>
</svg>
