<?xml version="1.0" encoding="UTF-8" ?>
<!DOCTYPE svg PUBLIC "-//W3C//DTD SVG 1.1//EN" "http://www.w3.org/Graphics/SVG/1.1/DTD/svg11.dtd">
<svg width="60pt" height="60pt" viewBox="0 0 60 60" version="1.1" xmlns="http://www.w3.org/2000/svg">
<g id="#ffffffff">
<path fill="#ffffff" opacity="1.00" d=" M 0.00 0.00 L 60.00 0.00 L 60.00 60.00 L 0.00 60.00 L 0.00 0.00 M 12.93 9.95 C 9.74 11.48 8.66 15.09 6.16 17.37 C 6.16 20.93 7.33 24.42 7.98 27.92 C 7.99 29.47 9.52 29.85 10.63 30.44 C 12.12 33.95 14.19 37.18 16.73 40.02 C 15.78 42.01 14.62 43.92 13.96 46.03 C 14.14 47.49 15.47 48.35 16.87 47.89 C 18.26 46.44 18.95 44.50 19.88 42.75 C 22.39 44.26 25.12 45.37 27.99 45.96 C 28.39 48.53 26.98 51.97 29.17 53.90 C 33.51 54.45 31.61 48.54 32.01 45.96 C 34.88 45.37 37.61 44.25 40.12 42.75 C 41.41 44.63 41.86 48.56 44.87 47.91 C 47.58 45.60 43.97 42.48 43.26 40.01 C 45.81 37.18 47.87 33.94 49.37 30.44 C 50.45 29.84 52.01 29.49 52.01 27.95 C 52.69 24.40 53.82 20.86 53.87 17.23 C 53.41 16.81 52.48 15.97 52.01 15.55 C 49.70 9.87 43.34 7.76 37.80 6.70 C 29.49 5.38 20.42 5.77 12.93 9.95 Z" />
<path fill="#ffffff" opacity="1.00" d=" M 22.49 10.71 C 29.91 9.46 37.99 9.70 44.78 13.24 C 46.53 14.19 49.06 16.33 47.46 18.47 C 44.90 21.64 40.62 22.62 36.81 23.41 C 29.61 24.49 21.80 24.20 15.24 20.77 C 13.48 19.81 10.95 17.69 12.53 15.54 C 14.92 12.54 18.91 11.52 22.49 10.71 Z" />
<path fill="#ffffff" opacity="1.00" d=" M 10.96 22.80 C 16.76 26.88 24.04 28.09 31.00 27.96 C 37.31 27.81 43.84 26.53 49.05 22.79 C 48.67 24.56 48.29 26.34 47.94 28.12 C 42.98 30.57 37.50 31.64 32.01 31.96 C 31.49 34.52 33.49 39.25 29.94 40.04 C 26.54 39.07 28.51 34.52 27.99 31.96 C 22.50 31.62 16.98 30.60 12.04 28.10 C 11.70 26.33 11.33 24.56 10.96 22.80 Z" />
</g>
<g id="#000000ff">
<path fill="#000000" opacity="1.00" d=" M 12.93 9.95 C 20.42 5.77 29.49 5.38 37.80 6.70 C 43.34 7.76 49.70 9.87 52.01 15.55 C 52.48 15.97 53.41 16.81 53.87 17.23 C 53.82 20.86 52.69 24.40 52.01 27.95 C 52.01 29.49 50.45 29.84 49.37 30.44 C 47.87 33.94 45.81 37.18 43.26 40.01 C 43.97 42.48 47.58 45.60 44.87 47.91 C 41.86 48.56 41.41 44.63 40.12 42.75 C 37.61 44.25 34.88 45.37 32.01 45.96 C 31.61 48.54 33.51 54.45 29.17 53.90 C 26.98 51.97 28.39 48.53 27.99 45.96 C 25.12 45.37 22.39 44.26 19.88 42.75 C 18.95 44.50 18.26 46.44 16.87 47.89 C 15.47 48.35 14.14 47.49 13.96 46.03 C 14.62 43.92 15.78 42.01 16.73 40.02 C 14.19 37.18 12.12 33.95 10.63 30.44 C 9.52 29.85 7.99 29.47 7.98 27.92 C 7.33 24.42 6.16 20.93 6.16 17.37 C 8.66 15.09 9.74 11.48 12.93 9.95 M 22.49 10.71 C 18.91 11.52 14.92 12.54 12.53 15.54 C 10.95 17.69 13.48 19.81 15.24 20.77 C 21.80 24.20 29.61 24.49 36.81 23.41 C 40.62 22.62 44.90 21.64 47.46 18.47 C 49.06 16.33 46.53 14.19 44.78 13.24 C 37.99 9.70 29.91 9.46 22.49 10.71 M 10.96 22.80 C 11.33 24.56 11.70 26.33 12.04 28.10 C 16.98 30.60 22.50 31.62 27.99 31.96 C 28.51 34.52 26.54 39.07 29.94 40.04 C 33.49 39.25 31.49 34.52 32.01 31.96 C 37.50 31.64 42.98 30.57 47.94 28.12 C 48.29 26.34 48.67 24.56 49.05 22.79 C 43.84 26.53 37.31 27.81 31.00 27.96 C 24.04 28.09 16.76 26.88 10.96 22.80 Z" />
</g>
</svg>
