<?xml version="1.0" encoding="UTF-8" ?>
<!DOCTYPE svg PUBLIC "-//W3C//DTD SVG 1.1//EN" "http://www.w3.org/Graphics/SVG/1.1/DTD/svg11.dtd">
<svg width="60pt" height="60pt" viewBox="0 0 60 60" version="1.1" xmlns="http://www.w3.org/2000/svg">
<g id="#ffffffff">
<path fill="#ffffff" opacity="1.00" d=" M 0.00 0.00 L 60.00 0.00 L 60.00 60.00 L 0.00 60.00 L 0.00 0.00 M 21.77 9.83 C 16.26 10.45 10.68 9.53 5.18 10.20 C 3.62 10.34 2.34 11.62 2.21 13.17 C 1.76 16.71 1.85 20.32 2.13 23.87 C 5.82 24.15 9.70 24.49 13.22 23.12 C 14.35 22.88 15.49 22.00 16.67 22.44 C 23.13 25.14 30.27 23.71 37.07 24.00 C 40.19 24.30 43.03 21.26 46.05 22.87 C 49.78 24.46 53.93 24.21 57.87 23.87 C 57.88 19.69 58.96 14.93 56.87 11.13 C 50.94 8.29 43.74 11.35 37.56 9.49 C 36.06 8.34 35.09 6.17 32.98 6.08 C 30.73 5.85 28.43 5.81 26.20 6.23 C 24.34 6.87 23.55 9.06 21.77 9.83 M 4.12 28.10 C 3.92 34.33 3.77 40.61 4.20 46.83 C 4.38 49.71 7.68 50.08 9.92 50.02 C 23.31 50.00 36.69 50.00 50.08 50.02 C 52.34 50.11 55.56 49.67 55.79 46.83 C 56.23 40.60 56.08 34.33 55.88 28.10 C 51.80 27.35 47.81 28.37 44.00 29.72 C 41.37 29.07 38.86 27.77 36.07 27.97 C 29.35 28.19 22.37 27.02 16.00 29.72 C 12.19 28.37 8.20 27.35 4.12 28.10 Z" />
</g>
<g id="#000000ff">
<path fill="#000000" opacity="1.00" d=" M 21.77 9.83 C 23.55 9.06 24.34 6.87 26.20 6.23 C 28.43 5.81 30.73 5.85 32.98 6.08 C 35.09 6.17 36.06 8.34 37.56 9.49 C 43.74 11.35 50.94 8.29 56.87 11.13 C 58.96 14.93 57.88 19.69 57.87 23.87 C 53.93 24.21 49.78 24.46 46.05 22.87 C 43.03 21.26 40.19 24.30 37.07 24.00 C 30.27 23.71 23.13 25.14 16.67 22.44 C 15.49 22.00 14.35 22.88 13.22 23.12 C 9.70 24.49 5.82 24.15 2.13 23.87 C 1.85 20.32 1.76 16.71 2.21 13.17 C 2.34 11.62 3.62 10.34 5.18 10.20 C 10.68 9.53 16.26 10.45 21.77 9.83 Z" />
<path fill="#000000" opacity="1.00" d=" M 4.12 28.10 C 8.20 27.35 12.19 28.37 16.00 29.72 C 22.37 27.02 29.35 28.19 36.07 27.97 C 38.86 27.77 41.37 29.07 44.00 29.72 C 47.81 28.37 51.80 27.35 55.88 28.10 C 56.08 34.33 56.23 40.60 55.79 46.83 C 55.56 49.67 52.34 50.11 50.08 50.02 C 36.69 50.00 23.31 50.00 9.92 50.02 C 7.68 50.08 4.38 49.71 4.20 46.83 C 3.77 40.61 3.92 34.33 4.12 28.10 Z" />
</g>
</svg>
