<?xml version="1.0" encoding="UTF-8" ?>
<!DOCTYPE svg PUBLIC "-//W3C//DTD SVG 1.1//EN" "http://www.w3.org/Graphics/SVG/1.1/DTD/svg11.dtd">
<svg width="64pt" height="64pt" viewBox="0 0 64 64" version="1.1" xmlns="http://www.w3.org/2000/svg">
<g id="#ffffffff">
<path fill="#ffffff" opacity="1.00" d=" M 0.00 0.00 L 64.00 0.00 L 64.00 64.00 L 0.00 64.00 L 0.00 0.00 M 21.94 18.00 C 15.96 18.00 9.98 18.00 4.00 18.00 C 4.00 30.00 4.00 42.00 4.00 54.00 C 22.67 54.00 41.33 54.00 60.00 54.00 C 60.00 42.00 60.00 30.00 60.00 18.00 C 54.02 18.00 48.04 18.00 42.06 18.00 C 42.05 15.18 42.51 10.91 38.89 10.13 C 34.30 9.89 29.68 9.89 25.10 10.13 C 21.43 10.85 21.98 15.20 21.94 18.00 Z" />
<path fill="#ffffff" opacity="1.00" d=" M 26.00 14.01 C 30.00 13.99 34.00 13.99 38.00 14.01 C 38.00 15.34 38.00 16.66 38.00 17.99 C 34.00 18.01 30.00 18.01 26.00 17.99 C 26.00 16.66 26.00 15.34 26.00 14.01 Z" />
<path fill="#ffffff" opacity="1.00" d=" M 8.00 22.00 C 24.00 22.00 40.00 22.00 56.00 22.00 C 56.00 25.33 56.00 28.67 56.00 32.00 C 53.45 31.99 50.89 32.00 48.34 32.00 C 48.18 31.51 47.86 30.54 47.69 30.06 C 45.23 29.91 42.76 29.91 40.31 30.06 C 40.14 30.54 39.82 31.51 39.66 32.00 C 34.55 32.00 29.45 32.00 24.34 32.00 C 24.18 31.51 23.86 30.54 23.70 30.05 C 21.25 29.91 18.79 30.00 16.34 30.00 C 16.18 30.49 15.86 31.46 15.69 31.95 C 13.13 32.09 10.56 31.99 8.00 32.00 C 8.00 28.66 8.00 25.33 8.00 22.00 Z" />
<path fill="#ffffff" opacity="1.00" d=" M 8.00 36.00 C 10.57 36.01 13.13 35.91 15.69 36.05 C 15.86 36.54 16.18 37.51 16.34 38.00 C 18.79 38.00 21.25 38.08 23.70 37.95 C 23.86 37.46 24.18 36.49 24.34 36.00 C 29.45 36.00 34.55 36.00 39.66 36.00 C 39.82 36.49 40.14 37.46 40.31 37.94 C 42.76 38.09 45.23 38.09 47.69 37.94 C 47.85 37.46 48.18 36.49 48.34 36.00 C 50.89 36.00 53.44 36.01 56.00 36.00 C 56.00 40.66 56.00 45.33 56.00 50.00 C 40.00 50.00 24.00 50.00 8.00 50.00 C 8.00 45.33 8.00 40.67 8.00 36.00 Z" />
</g>
<g id="#000000ff">
<path fill="#000000" opacity="1.00" d=" M 21.94 18.00 C 21.98 15.20 21.43 10.85 25.10 10.13 C 29.68 9.89 34.30 9.89 38.89 10.13 C 42.51 10.91 42.05 15.18 42.06 18.00 C 48.04 18.00 54.02 18.00 60.00 18.00 C 60.00 30.00 60.00 42.00 60.00 54.00 C 41.33 54.00 22.67 54.00 4.00 54.00 C 4.00 42.00 4.00 30.00 4.00 18.00 C 9.98 18.00 15.96 18.00 21.94 18.00 M 26.00 14.01 C 26.00 15.34 26.00 16.66 26.00 17.99 C 30.00 18.01 34.00 18.01 38.00 17.99 C 38.00 16.66 38.00 15.34 38.00 14.01 C 34.00 13.99 30.00 13.99 26.00 14.01 M 8.00 22.00 C 8.00 25.33 8.00 28.66 8.00 32.00 C 10.56 31.99 13.13 32.09 15.69 31.95 C 15.86 31.46 16.18 30.49 16.34 30.00 C 18.79 30.00 21.25 29.91 23.70 30.05 C 23.86 30.54 24.18 31.51 24.34 32.00 C 29.45 32.00 34.55 32.00 39.66 32.00 C 39.82 31.51 40.14 30.54 40.31 30.06 C 42.76 29.91 45.23 29.91 47.69 30.06 C 47.86 30.54 48.18 31.51 48.34 32.00 C 50.89 32.00 53.45 31.99 56.00 32.00 C 56.00 28.67 56.00 25.33 56.00 22.00 C 40.00 22.00 24.00 22.00 8.00 22.00 M 8.00 36.00 C 8.00 40.67 8.00 45.33 8.00 50.00 C 24.00 50.00 40.00 50.00 56.00 50.00 C 56.00 45.33 56.00 40.66 56.00 36.00 C 53.44 36.01 50.89 36.00 48.34 36.00 C 48.18 36.49 47.85 37.46 47.69 37.94 C 45.23 38.09 42.76 38.09 40.31 37.94 C 40.14 37.46 39.82 36.49 39.66 36.00 C 34.55 36.00 29.45 36.00 24.34 36.00 C 24.18 36.49 23.86 37.46 23.70 37.95 C 21.25 38.08 18.79 38.00 16.34 38.00 C 16.18 37.51 15.86 36.54 15.69 36.05 C 13.13 35.91 10.57 36.01 8.00 36.00 Z" />
</g>
</svg>
