<?xml version="1.0" encoding="UTF-8" ?>
<!DOCTYPE svg PUBLIC "-//W3C//DTD SVG 1.1//EN" "http://www.w3.org/Graphics/SVG/1.1/DTD/svg11.dtd">
<svg width="64pt" height="64pt" viewBox="0 0 64 64" version="1.1" xmlns="http://www.w3.org/2000/svg">
<g id="#ffffffff">
<path fill="#ffffff" opacity="1.00" d=" M 0.00 0.00 L 64.00 0.00 L 64.00 64.00 L 0.00 64.00 L 0.00 0.00 M 10.59 19.08 C 8.95 24.37 10.92 29.74 13.80 34.17 C 17.68 40.28 16.58 48.36 20.96 54.19 C 23.24 57.11 28.44 56.22 29.50 52.63 C 30.74 47.72 29.08 42.12 31.95 37.62 C 35.09 42.02 33.19 47.76 34.51 52.67 C 35.60 56.26 40.84 57.11 43.09 54.14 C 47.36 48.29 46.35 40.30 50.17 34.21 C 52.60 30.23 54.77 25.67 53.78 20.88 C 52.87 13.68 46.13 8.11 38.96 8.02 C 35.89 7.63 32.90 9.64 29.90 8.54 C 22.09 6.44 12.51 10.84 10.59 19.08 Z" />
<path fill="#ffffff" opacity="1.00" d=" M 14.29 20.93 C 15.40 13.90 23.99 10.26 30.23 12.84 C 32.56 13.78 34.55 15.34 36.53 16.84 C 37.44 15.91 38.35 14.98 39.26 14.04 C 38.70 13.52 37.56 12.46 37.00 11.94 C 39.76 12.07 42.69 12.26 45.08 13.83 C 49.99 16.82 51.31 23.90 48.62 28.80 C 46.90 32.14 44.66 35.29 43.90 39.05 C 42.61 43.37 42.44 48.20 39.78 51.99 C 39.42 51.92 38.69 51.77 38.33 51.70 C 37.45 46.54 38.71 40.80 35.83 36.13 C 34.14 33.37 29.75 33.38 28.12 36.20 C 25.31 40.90 26.53 46.58 25.65 51.71 C 25.30 51.78 24.59 51.92 24.23 51.99 C 21.34 47.88 21.30 42.59 19.79 37.93 C 18.33 32.11 12.53 27.40 14.29 20.93 Z" />
</g>
<g id="#000000ff">
<path fill="#000000" opacity="1.00" d=" M 10.59 19.08 C 12.51 10.84 22.09 6.44 29.90 8.54 C 32.90 9.64 35.89 7.63 38.96 8.02 C 46.13 8.11 52.87 13.68 53.78 20.88 C 54.77 25.67 52.60 30.23 50.17 34.21 C 46.35 40.30 47.36 48.29 43.09 54.14 C 40.84 57.11 35.60 56.26 34.51 52.67 C 33.19 47.76 35.09 42.02 31.95 37.62 C 29.08 42.12 30.74 47.72 29.50 52.63 C 28.44 56.22 23.24 57.11 20.96 54.19 C 16.58 48.36 17.68 40.28 13.80 34.17 C 10.92 29.74 8.95 24.37 10.59 19.08 M 14.29 20.93 C 12.53 27.40 18.33 32.11 19.79 37.93 C 21.30 42.59 21.34 47.88 24.23 51.99 C 24.59 51.92 25.30 51.78 25.65 51.71 C 26.53 46.58 25.31 40.90 28.12 36.20 C 29.75 33.38 34.14 33.37 35.83 36.13 C 38.71 40.80 37.45 46.54 38.33 51.70 C 38.69 51.77 39.42 51.92 39.78 51.99 C 42.44 48.20 42.61 43.37 43.90 39.05 C 44.66 35.29 46.90 32.14 48.62 28.80 C 51.31 23.90 49.99 16.82 45.08 13.83 C 42.69 12.26 39.76 12.07 37.00 11.94 C 37.56 12.46 38.70 13.52 39.26 14.04 C 38.35 14.98 37.44 15.91 36.53 16.84 C 34.55 15.34 32.56 13.78 30.23 12.84 C 23.99 10.26 15.40 13.90 14.29 20.93 Z" />
</g>
</svg>
