<?xml version="1.0" encoding="UTF-8" ?>
<!DOCTYPE svg PUBLIC "-//W3C//DTD SVG 1.1//EN" "http://www.w3.org/Graphics/SVG/1.1/DTD/svg11.dtd">
<svg width="60pt" height="60pt" viewBox="0 0 60 60" version="1.1" xmlns="http://www.w3.org/2000/svg">
<g id="#ffffffff">
<path fill="#ffffff" opacity="1.00" d=" M 0.00 0.00 L 60.00 0.00 L 60.00 60.00 L 0.00 60.00 L 0.00 0.00 M 16.24 9.15 C 12.16 10.78 9.12 14.62 8.34 18.92 C 7.37 24.69 8.80 30.55 11.15 35.81 C 13.13 40.23 12.62 45.49 15.36 49.59 C 17.91 53.40 24.57 52.45 26.08 48.17 C 27.33 44.71 27.92 40.99 30.00 37.88 C 32.25 41.18 32.66 45.22 34.21 48.81 C 36.35 53.10 43.51 53.04 45.32 48.47 C 47.53 42.92 47.75 36.74 50.44 31.31 C 48.74 32.03 47.04 32.75 45.33 33.46 C 43.54 37.68 43.49 42.41 41.76 46.62 C 41.19 48.54 38.28 48.43 37.64 46.63 C 36.19 42.80 35.77 38.34 32.75 35.30 C 31.54 33.89 29.26 33.50 27.82 34.79 C 24.28 37.71 23.88 42.58 22.37 46.60 C 21.79 48.37 18.87 48.56 18.27 46.70 C 16.56 42.92 16.70 38.59 15.04 34.78 C 12.70 29.31 10.61 22.76 13.18 17.02 C 16.44 10.69 25.90 10.66 30.59 15.33 C 31.87 16.33 32.85 18.33 34.78 17.90 C 37.23 16.56 35.15 14.08 33.92 12.68 C 37.82 11.59 42.16 11.87 45.43 14.46 C 46.72 13.91 48.02 13.35 49.32 12.79 C 44.53 7.17 36.35 7.12 30.02 9.89 C 25.74 7.92 20.67 7.27 16.24 9.15 M 44.72 19.16 C 45.54 20.50 46.58 21.69 47.64 22.84 C 45.71 24.84 43.47 26.60 41.92 28.93 C 42.21 29.18 42.80 29.68 43.09 29.92 C 47.27 28.61 51.16 26.51 55.22 24.88 C 54.48 23.49 53.44 22.30 52.35 21.17 C 53.99 18.80 58.08 17.25 57.73 14.09 C 53.13 14.80 49.09 17.61 44.72 19.16 Z" />
</g>
<g id="#000000ff">
<path fill="#000000" opacity="1.00" d=" M 16.24 9.15 C 20.67 7.27 25.74 7.92 30.02 9.89 C 36.35 7.12 44.53 7.17 49.32 12.79 C 48.02 13.35 46.72 13.91 45.43 14.46 C 42.16 11.87 37.82 11.59 33.92 12.68 C 35.15 14.08 37.23 16.56 34.78 17.90 C 32.85 18.33 31.87 16.33 30.59 15.33 C 25.90 10.66 16.44 10.69 13.18 17.02 C 10.61 22.76 12.70 29.31 15.04 34.78 C 16.70 38.59 16.56 42.92 18.27 46.70 C 18.87 48.56 21.79 48.37 22.37 46.60 C 23.88 42.58 24.28 37.71 27.82 34.79 C 29.26 33.50 31.54 33.89 32.75 35.30 C 35.77 38.34 36.19 42.80 37.64 46.63 C 38.28 48.43 41.19 48.54 41.76 46.62 C 43.49 42.41 43.54 37.68 45.33 33.46 C 47.04 32.75 48.74 32.03 50.44 31.31 C 47.75 36.74 47.53 42.92 45.32 48.47 C 43.51 53.04 36.35 53.10 34.21 48.81 C 32.66 45.22 32.25 41.18 30.00 37.88 C 27.92 40.99 27.33 44.71 26.08 48.17 C 24.57 52.45 17.91 53.40 15.36 49.59 C 12.62 45.49 13.13 40.23 11.15 35.81 C 8.80 30.55 7.37 24.69 8.34 18.92 C 9.12 14.62 12.16 10.78 16.24 9.15 Z" />
<path fill="#000000" opacity="1.00" d=" M 44.72 19.16 C 49.09 17.61 53.13 14.80 57.73 14.09 C 58.08 17.25 53.99 18.80 52.35 21.17 C 53.44 22.30 54.48 23.49 55.22 24.88 C 51.16 26.51 47.27 28.61 43.09 29.92 C 42.80 29.68 42.21 29.18 41.92 28.93 C 43.47 26.60 45.71 24.84 47.64 22.84 C 46.58 21.69 45.54 20.50 44.72 19.16 Z" />
</g>
</svg>
