<?xml version="1.0" encoding="UTF-8" ?>
<!DOCTYPE svg PUBLIC "-//W3C//DTD SVG 1.1//EN" "http://www.w3.org/Graphics/SVG/1.1/DTD/svg11.dtd">
<svg width="64pt" height="64pt" viewBox="0 0 64 64" version="1.1" xmlns="http://www.w3.org/2000/svg">
<g id="#ffffffff">
<path fill="#ffffff" opacity="1.00" d=" M 0.00 0.00 L 64.00 0.00 L 64.00 64.00 L 0.00 64.00 L 0.00 0.00 M 45.53 9.96 C 42.77 10.01 40.02 10.00 37.27 10.00 C 28.48 17.28 19.70 24.57 10.89 31.82 C 8.49 33.75 6.30 35.92 4.16 38.12 C 11.37 45.39 18.63 52.61 25.88 59.84 C 27.92 57.87 29.93 55.86 31.73 53.66 C 39.15 44.68 46.56 35.70 54.00 26.74 C 54.00 24.00 54.00 21.26 54.02 18.52 C 55.99 16.60 57.92 14.66 59.83 12.68 C 57.02 9.81 54.19 6.97 51.31 4.17 C 49.36 6.08 47.43 8.00 45.53 9.96 Z" />
<path fill="#ffffff" opacity="1.00" d=" M 50.63 10.02 C 52.15 9.51 53.70 11.71 54.20 13.01 C 52.87 14.36 50.20 11.61 50.63 10.02 Z" />
<path fill="#ffffff" opacity="1.00" d=" M 42.88 14.00 C 44.55 14.00 46.23 14.00 47.90 13.99 C 48.60 14.67 49.31 15.35 50.01 16.03 C 50.00 17.72 50.00 19.40 49.99 21.09 C 47.62 18.73 45.26 16.36 42.88 14.00 Z" />
<path fill="#ffffff" opacity="1.00" d=" M 12.81 35.37 C 21.19 28.52 29.52 21.62 37.89 14.76 C 41.67 18.55 45.47 22.33 49.25 26.12 C 43.07 33.65 36.85 41.15 30.70 48.70 C 29.16 50.76 26.61 51.63 24.83 53.45 C 23.19 51.66 25.29 50.41 26.47 49.14 C 25.54 48.22 24.61 47.30 23.68 46.38 C 22.76 47.29 21.84 48.20 20.92 49.11 C 20.56 48.77 19.85 48.10 19.50 47.76 C 20.41 46.82 21.33 45.88 22.24 44.94 C 21.31 44.00 20.38 43.07 19.46 42.13 C 18.51 43.06 17.55 44.00 16.60 44.93 C 16.27 44.58 15.59 43.86 15.26 43.51 C 16.19 42.58 17.12 41.66 18.06 40.74 C 17.10 39.80 16.14 38.87 15.19 37.94 C 14.27 38.85 13.36 39.77 12.44 40.68 C 12.08 40.34 11.35 39.66 10.99 39.32 C 11.69 38.63 13.08 37.26 13.77 36.58 C 13.53 36.27 13.05 35.67 12.81 35.37 M 29.83 26.80 C 27.94 29.33 27.00 32.52 25.74 35.41 C 28.04 35.04 29.53 32.96 31.80 32.53 C 30.67 34.40 29.03 36.03 28.59 38.25 C 31.19 37.38 33.66 36.15 36.14 34.97 C 37.99 34.15 38.65 31.35 37.14 29.91 C 35.44 27.85 32.69 24.50 29.83 26.80 Z" />
</g>
<g id="#000000ff">
<path fill="#000000" opacity="1.00" d=" M 45.53 9.96 C 47.43 8.00 49.36 6.08 51.31 4.17 C 54.19 6.97 57.02 9.81 59.83 12.68 C 57.92 14.66 55.99 16.60 54.02 18.52 C 54.00 21.26 54.00 24.00 54.00 26.74 C 46.56 35.70 39.15 44.68 31.73 53.66 C 29.93 55.86 27.92 57.87 25.88 59.84 C 18.63 52.61 11.37 45.39 4.16 38.12 C 6.30 35.92 8.49 33.75 10.89 31.82 C 19.70 24.57 28.48 17.28 37.27 10.00 C 40.02 10.00 42.77 10.01 45.53 9.96 M 50.63 10.02 C 50.20 11.61 52.87 14.36 54.20 13.01 C 53.70 11.71 52.15 9.51 50.63 10.02 M 42.88 14.00 C 45.26 16.36 47.62 18.73 49.99 21.09 C 50.00 19.40 50.00 17.72 50.01 16.03 C 49.31 15.35 48.60 14.67 47.90 13.99 C 46.23 14.00 44.55 14.00 42.88 14.00 M 12.81 35.37 C 13.05 35.67 13.53 36.27 13.77 36.58 C 13.08 37.26 11.69 38.63 10.99 39.32 C 11.35 39.66 12.08 40.34 12.44 40.68 C 13.36 39.77 14.27 38.85 15.19 37.94 C 16.14 38.87 17.10 39.80 18.06 40.74 C 17.12 41.66 16.19 42.58 15.26 43.51 C 15.59 43.86 16.27 44.58 16.60 44.93 C 17.55 44.00 18.51 43.06 19.46 42.13 C 20.38 43.07 21.31 44.00 22.24 44.94 C 21.33 45.88 20.41 46.82 19.50 47.76 C 19.85 48.10 20.56 48.77 20.92 49.11 C 21.84 48.20 22.76 47.29 23.68 46.38 C 24.61 47.30 25.54 48.22 26.47 49.14 C 25.29 50.41 23.19 51.66 24.83 53.45 C 26.61 51.63 29.16 50.76 30.70 48.70 C 36.85 41.15 43.07 33.65 49.25 26.12 C 45.47 22.33 41.67 18.55 37.89 14.76 C 29.52 21.62 21.19 28.52 12.81 35.37 Z" />
<path fill="#000000" opacity="1.00" d=" M 29.83 26.80 C 32.69 24.50 35.44 27.85 37.14 29.91 C 38.65 31.35 37.99 34.15 36.14 34.97 C 33.66 36.15 31.19 37.38 28.59 38.25 C 29.03 36.03 30.67 34.40 31.80 32.53 C 29.53 32.96 28.04 35.04 25.74 35.41 C 27.00 32.52 27.94 29.33 29.83 26.80 Z" />
</g>
</svg>
