<?xml version="1.0" encoding="UTF-8" ?>
<!DOCTYPE svg PUBLIC "-//W3C//DTD SVG 1.1//EN" "http://www.w3.org/Graphics/SVG/1.1/DTD/svg11.dtd">
<svg width="64pt" height="64pt" viewBox="0 0 64 64" version="1.1" xmlns="http://www.w3.org/2000/svg">
<g id="#ffffffff">
<path fill="#ffffff" opacity="1.00" d=" M 0.00 0.00 L 64.00 0.00 L 64.00 64.00 L 0.00 64.00 L 0.00 0.00 M 47.08 11.99 C 40.36 12.11 33.64 11.86 26.93 12.07 C 21.37 12.17 15.95 15.54 13.76 20.70 C 12.10 24.10 11.95 27.94 11.93 31.65 C 13.88 30.44 15.87 29.29 17.96 28.34 C 18.03 32.89 17.99 37.45 18.00 42.00 C 19.33 42.00 20.67 42.00 22.00 42.00 C 22.00 37.33 22.00 32.67 22.00 28.00 C 22.50 28.00 23.50 28.00 24.00 28.00 C 24.00 32.67 24.00 37.33 24.00 42.00 C 25.33 42.00 26.67 42.00 28.00 42.00 C 28.00 37.33 28.00 32.67 28.00 28.00 C 28.50 28.00 29.50 28.00 30.00 28.00 C 30.00 32.67 30.00 37.33 30.00 42.00 C 31.33 42.00 32.67 42.00 34.00 42.00 C 34.00 37.33 34.00 32.67 34.00 28.00 C 34.50 28.00 35.50 28.00 36.00 28.00 C 36.00 32.67 36.00 37.33 36.00 42.00 C 37.33 42.00 38.66 42.00 40.00 42.00 C 40.06 37.22 39.85 32.43 40.15 27.65 C 43.28 27.22 46.79 27.51 49.40 25.38 C 54.78 21.70 56.23 14.73 56.12 8.60 C 53.25 10.04 50.42 11.99 47.08 11.99 M 41.65 28.78 C 42.32 33.16 41.88 37.59 42.00 42.00 C 43.33 42.00 44.67 42.00 46.00 42.00 C 45.99 37.24 46.02 32.47 45.98 27.71 C 44.52 27.90 42.79 27.64 41.65 28.78 M 48.00 28.00 C 48.00 32.67 48.00 37.33 48.00 42.00 C 49.33 42.00 50.67 42.00 52.00 42.00 C 52.00 37.33 52.00 32.67 52.00 28.00 C 50.67 28.00 49.33 28.00 48.00 28.00 M 8.00 44.00 C 8.00 45.33 8.00 46.67 8.00 48.00 C 22.67 48.00 37.33 48.00 52.00 48.00 C 52.00 48.50 52.00 49.50 52.00 50.00 C 37.33 50.00 22.67 50.00 8.00 50.00 C 8.00 51.33 8.00 52.67 8.00 54.00 C 24.00 54.00 40.00 54.00 56.00 54.00 C 56.00 50.67 56.00 47.33 56.00 44.00 C 40.00 44.00 24.00 44.00 8.00 44.00 Z" />
<path fill="#ffffff" opacity="1.00" d=" M 16.45 24.58 C 17.65 20.62 20.55 16.81 24.92 16.29 C 33.78 15.35 42.78 16.81 51.62 15.43 C 50.36 19.04 48.05 22.89 43.96 23.61 C 34.84 24.78 25.55 23.12 16.45 24.58 Z" />
</g>
<g id="#000000ff">
<path fill="#000000" opacity="1.00" d=" M 47.08 11.99 C 50.42 11.99 53.25 10.04 56.12 8.60 C 56.23 14.73 54.78 21.70 49.40 25.38 C 46.79 27.51 43.28 27.22 40.15 27.65 C 39.85 32.43 40.06 37.22 40.00 42.00 C 38.66 42.00 37.33 42.00 36.00 42.00 C 36.00 37.33 36.00 32.67 36.00 28.00 C 35.50 28.00 34.50 28.00 34.00 28.00 C 34.00 32.67 34.00 37.33 34.00 42.00 C 32.67 42.00 31.33 42.00 30.00 42.00 C 30.00 37.33 30.00 32.67 30.00 28.00 C 29.50 28.00 28.50 28.00 28.00 28.00 C 28.00 32.67 28.00 37.33 28.00 42.00 C 26.67 42.00 25.33 42.00 24.00 42.00 C 24.00 37.33 24.00 32.67 24.00 28.00 C 23.50 28.00 22.50 28.00 22.00 28.00 C 22.00 32.67 22.00 37.33 22.00 42.00 C 20.67 42.00 19.33 42.00 18.00 42.00 C 17.99 37.45 18.03 32.89 17.96 28.34 C 15.87 29.29 13.88 30.44 11.93 31.65 C 11.95 27.94 12.10 24.10 13.76 20.70 C 15.95 15.54 21.37 12.17 26.93 12.07 C 33.64 11.86 40.36 12.11 47.08 11.99 M 16.45 24.58 C 25.55 23.12 34.84 24.78 43.96 23.61 C 48.05 22.89 50.36 19.04 51.62 15.43 C 42.78 16.81 33.78 15.35 24.92 16.29 C 20.55 16.81 17.65 20.62 16.45 24.58 Z" />
<path fill="#000000" opacity="1.00" d=" M 41.65 28.78 C 42.79 27.64 44.52 27.90 45.98 27.71 C 46.02 32.47 45.99 37.24 46.00 42.00 C 44.67 42.00 43.33 42.00 42.00 42.00 C 41.88 37.59 42.32 33.16 41.65 28.78 Z" />
<path fill="#000000" opacity="1.00" d=" M 48.00 28.00 C 49.33 28.00 50.67 28.00 52.00 28.00 C 52.00 32.67 52.00 37.33 52.00 42.00 C 50.67 42.00 49.33 42.00 48.00 42.00 C 48.00 37.33 48.00 32.67 48.00 28.00 Z" />
<path fill="#000000" opacity="1.00" d=" M 8.00 44.00 C 24.00 44.00 40.00 44.00 56.00 44.00 C 56.00 47.33 56.00 50.67 56.00 54.00 C 40.00 54.00 24.00 54.00 8.00 54.00 C 8.00 52.67 8.00 51.33 8.00 50.00 C 22.67 50.00 37.33 50.00 52.00 50.00 C 52.00 49.50 52.00 48.50 52.00 48.00 C 37.33 48.00 22.67 48.00 8.00 48.00 C 8.00 46.67 8.00 45.33 8.00 44.00 Z" />
</g>
</svg>
