<?xml version="1.0" encoding="UTF-8" ?>
<!DOCTYPE svg PUBLIC "-//W3C//DTD SVG 1.1//EN" "http://www.w3.org/Graphics/SVG/1.1/DTD/svg11.dtd">
<svg width="60pt" height="60pt" viewBox="0 0 60 60" version="1.1" xmlns="http://www.w3.org/2000/svg">
<g id="#ffffffff">
<path fill="#ffffff" opacity="1.00" d=" M 0.00 0.00 L 60.00 0.00 L 60.00 60.00 L 0.00 60.00 L 0.00 0.00 M 17.40 8.67 C 12.47 10.13 8.80 14.75 8.19 19.81 C 7.64 24.82 8.48 29.98 10.67 34.52 C 13.06 39.48 12.15 45.72 15.91 50.08 C 18.54 53.28 23.89 52.07 25.83 48.72 C 27.90 45.24 28.03 41.00 30.00 37.46 C 31.98 41.01 32.09 45.29 34.20 48.77 C 36.16 52.09 41.48 53.27 44.08 50.07 C 47.84 45.71 46.93 39.47 49.34 34.51 C 51.51 29.97 52.35 24.82 51.80 19.82 C 51.22 15.23 48.21 10.92 43.88 9.15 C 39.36 7.28 34.18 7.84 29.73 9.61 C 25.82 8.18 21.46 7.37 17.40 8.67 Z" />
<path fill="#ffffff" opacity="1.00" d=" M 20.37 11.90 C 23.71 11.96 26.93 12.82 30.01 14.05 C 34.97 11.24 42.48 10.80 46.12 15.89 C 49.45 21.17 47.94 28.08 45.44 33.40 C 43.10 37.97 44.15 43.79 40.75 47.87 C 39.46 48.26 38.08 47.78 37.52 46.51 C 35.60 43.08 35.79 38.77 33.38 35.59 C 31.70 33.51 28.28 33.50 26.61 35.60 C 24.21 38.79 24.39 43.10 22.47 46.53 C 21.89 47.78 20.54 48.26 19.25 47.87 C 15.85 43.80 16.90 37.99 14.56 33.43 C 11.69 27.48 10.34 19.42 15.19 14.10 C 16.52 15.37 17.84 16.66 19.15 17.96 C 17.97 19.47 15.61 20.63 16.11 22.87 C 18.51 24.91 21.14 26.76 24.00 28.09 C 25.24 27.88 26.58 26.50 25.81 25.23 C 24.63 23.67 22.75 22.84 21.19 21.72 C 22.13 20.53 23.70 19.62 23.97 18.05 C 23.23 15.77 21.57 13.94 20.37 11.90 Z" />
</g>
<g id="#000000ff">
<path fill="#968176" opacity="1.00" d=" M 17.40 8.67 C 21.46 7.37 25.82 8.18 29.73 9.61 C 34.18 7.84 39.36 7.28 43.88 9.15 C 48.21 10.92 51.22 15.23 51.80 19.82 C 52.35 24.82 51.51 29.97 49.34 34.51 C 46.93 39.47 47.84 45.71 44.08 50.07 C 41.48 53.27 36.16 52.09 34.20 48.77 C 32.09 45.29 31.98 41.01 30.00 37.46 C 28.03 41.00 27.90 45.24 25.83 48.72 C 23.89 52.07 18.54 53.28 15.91 50.08 C 12.15 45.72 13.06 39.48 10.67 34.52 C 8.48 29.98 7.64 24.82 8.19 19.81 C 8.80 14.75 12.47 10.13 17.40 8.67 M 20.37 11.90 C 21.57 13.94 23.23 15.77 23.97 18.05 C 23.70 19.62 22.13 20.53 21.19 21.72 C 22.75 22.84 24.63 23.67 25.81 25.23 C 26.58 26.50 25.24 27.88 24.00 28.09 C 21.14 26.76 18.51 24.91 16.11 22.87 C 15.61 20.63 17.97 19.47 19.15 17.96 C 17.84 16.66 16.52 15.37 15.19 14.10 C 10.34 19.42 11.69 27.48 14.56 33.43 C 16.90 37.99 15.85 43.80 19.25 47.87 C 20.54 48.26 21.89 47.78 22.47 46.53 C 24.39 43.10 24.21 38.79 26.61 35.60 C 28.28 33.50 31.70 33.51 33.38 35.59 C 35.79 38.77 35.60 43.08 37.52 46.51 C 38.08 47.78 39.46 48.26 40.75 47.87 C 44.15 43.79 43.10 37.97 45.44 33.40 C 47.94 28.08 49.45 21.17 46.12 15.89 C 42.48 10.80 34.97 11.24 30.01 14.05 C 26.93 12.82 23.71 11.96 20.37 11.90 Z" />
</g>
</svg>
