<?xml version="1.0" encoding="UTF-8" ?>
<!DOCTYPE svg PUBLIC "-//W3C//DTD SVG 1.1//EN" "http://www.w3.org/Graphics/SVG/1.1/DTD/svg11.dtd">
<svg width="60pt" height="60pt" viewBox="0 0 60 60" version="1.1" xmlns="http://www.w3.org/2000/svg">
<g id="#ffffffff">
<path fill="#ffffff" opacity="1.00" d=" M 0.00 0.00 L 60.00 0.00 L 60.00 60.00 L 0.00 60.00 L 0.00 0.00 M 11.02 13.00 C 5.97 17.39 3.08 24.36 4.27 31.04 C 5.12 36.73 8.82 41.52 13.32 44.92 C 13.05 47.60 13.03 50.82 10.63 52.58 C 9.72 53.62 7.57 54.24 8.21 55.96 C 13.03 56.34 17.29 53.74 20.80 50.74 C 22.70 48.68 25.55 49.84 27.94 49.85 C 38.27 50.78 49.59 45.73 54.16 36.08 C 57.41 29.46 56.15 21.12 51.41 15.54 C 41.74 3.79 22.17 2.86 11.02 13.00 Z" />
</g>
<g id="#000000ff">
<path fill="#000000" opacity="1.00" d=" M 11.02 13.00 C 22.17 2.86 41.74 3.79 51.41 15.54 C 56.15 21.12 57.41 29.46 54.16 36.08 C 49.59 45.73 38.27 50.78 27.94 49.85 C 25.55 49.84 22.70 48.68 20.80 50.74 C 17.29 53.74 13.03 56.34 8.21 55.96 C 7.57 54.24 9.72 53.62 10.63 52.58 C 13.03 50.82 13.05 47.60 13.32 44.92 C 8.82 41.52 5.12 36.73 4.27 31.04 C 3.08 24.36 5.97 17.39 11.02 13.00 Z" />
</g>
</svg>
