<?xml version="1.0" encoding="UTF-8" ?>
<!DOCTYPE svg PUBLIC "-//W3C//DTD SVG 1.1//EN" "http://www.w3.org/Graphics/SVG/1.1/DTD/svg11.dtd">
<svg width="64pt" height="64pt" viewBox="0 0 64 64" version="1.1" xmlns="http://www.w3.org/2000/svg">
<g id="#ffffffff">
<path fill="#ffffff" opacity="1.00" d=" M 0.00 0.00 L 64.00 0.00 L 64.00 64.00 L 0.00 64.00 L 0.00 0.00 M 6.00 10.00 C 6.00 22.00 5.99 34.00 6.01 46.00 C 9.34 45.97 12.67 46.03 16.00 46.00 C 15.98 49.36 16.00 52.73 16.03 56.09 C 20.52 52.94 24.40 48.86 29.09 46.08 C 38.72 45.86 48.36 46.08 57.99 46.00 C 58.01 34.00 58.00 22.00 58.00 10.01 C 40.67 10.00 23.34 10.00 6.00 10.00 Z" />
<path fill="#ffffff" opacity="1.00" d=" M 10.00 14.00 C 24.67 14.00 39.33 14.00 54.00 14.01 C 54.00 23.34 54.00 32.66 54.00 41.99 C 45.07 42.14 36.12 41.74 27.20 42.17 C 24.77 43.90 22.56 45.93 20.09 47.63 C 20.01 45.75 19.98 43.87 19.96 41.99 C 16.64 42.03 13.33 41.97 10.01 42.00 C 9.99 32.67 10.00 23.34 10.00 14.00 Z" />
</g>
<g id="#000000ff">
<path fill="#000000" opacity="1.00" d=" M 6.00 10.00 C 23.34 10.00 40.67 10.00 58.00 10.01 C 58.00 22.00 58.01 34.00 57.99 46.00 C 48.36 46.08 38.72 45.86 29.09 46.08 C 24.40 48.86 20.52 52.94 16.03 56.09 C 16.00 52.73 15.98 49.36 16.00 46.00 C 12.67 46.03 9.34 45.97 6.01 46.00 C 5.99 34.00 6.00 22.00 6.00 10.00 M 10.00 14.00 C 10.00 23.34 9.99 32.67 10.01 42.00 C 13.33 41.97 16.64 42.03 19.96 41.99 C 19.98 43.87 20.01 45.75 20.09 47.63 C 22.56 45.93 24.77 43.90 27.20 42.17 C 36.12 41.74 45.07 42.14 54.00 41.99 C 54.00 32.66 54.00 23.34 54.00 14.01 C 39.33 14.00 24.67 14.00 10.00 14.00 Z" />
</g>
</svg>
