<?xml version="1.0" encoding="UTF-8" ?>
<!DOCTYPE svg PUBLIC "-//W3C//DTD SVG 1.1//EN" "http://www.w3.org/Graphics/SVG/1.1/DTD/svg11.dtd">
<svg width="64pt" height="64pt" viewBox="0 0 64 64" version="1.1" xmlns="http://www.w3.org/2000/svg">
<g id="#ffffffff">
<path fill="#ffffff" opacity="1.00" d=" M 0.00 0.00 L 64.00 0.00 L 64.00 64.00 L 0.00 64.00 L 0.00 0.00 M 16.00 13.00 C 16.00 25.69 15.99 38.38 16.00 51.06 C 15.62 53.42 17.38 56.00 19.88 55.94 C 27.58 56.08 35.28 55.97 42.98 56.00 C 45.02 56.26 47.35 55.21 47.83 53.06 C 48.24 48.72 47.89 44.35 48.00 40.00 C 50.67 40.00 53.33 40.00 56.00 40.00 C 56.00 33.33 56.00 26.67 56.00 20.00 C 53.33 20.00 50.66 20.00 47.99 20.00 C 47.99 17.31 48.10 14.61 47.94 11.92 C 48.01 9.87 46.12 7.93 44.05 8.05 C 36.00 7.96 27.94 7.95 19.90 8.06 C 17.37 7.98 15.61 10.64 16.00 13.00 Z" />
<path fill="#ffffff" opacity="1.00" d=" M 20.00 12.00 C 28.00 12.00 36.00 12.00 44.00 12.00 C 44.00 14.67 44.00 17.33 44.00 20.00 C 39.33 20.00 34.67 20.00 30.00 20.00 C 30.00 21.33 30.00 22.67 30.00 24.00 C 36.67 24.00 43.34 23.99 50.02 24.01 C 50.68 24.67 51.34 25.34 52.00 26.01 C 52.00 28.65 52.00 31.29 52.00 33.93 C 51.32 34.62 50.64 35.31 49.95 36.00 C 43.30 36.00 36.65 36.00 30.00 36.00 C 30.00 37.33 30.00 38.67 30.00 40.00 C 34.67 40.00 39.33 40.00 44.00 40.00 C 44.00 44.00 44.00 48.00 44.00 52.00 C 36.00 52.00 28.00 52.00 20.00 52.00 C 20.00 38.67 20.00 25.33 20.00 12.00 M 38.35 26.37 C 35.58 27.52 35.15 31.77 37.79 33.30 C 39.88 34.92 43.09 33.57 43.82 31.16 C 44.95 28.10 41.26 24.76 38.35 26.37 M 31.14 28.11 C 28.81 29.18 30.52 33.08 32.88 31.77 C 35.21 30.75 33.49 27.11 31.14 28.11 M 47.06 28.15 C 44.90 29.34 46.46 32.90 48.84 31.85 C 51.19 30.76 49.50 27.00 47.06 28.15 M 28.00 46.00 C 28.00 47.33 28.00 48.67 28.00 50.00 C 30.67 50.00 33.33 50.00 36.00 50.00 C 36.00 48.67 36.00 47.33 36.00 46.00 C 33.33 46.00 30.67 46.00 28.00 46.00 Z" />
</g>
<g id="#000000ff">
<path fill="#000000" opacity="1.00" d=" M 16.00 13.00 C 15.61 10.64 17.37 7.98 19.90 8.06 C 27.94 7.95 36.00 7.96 44.05 8.05 C 46.12 7.93 48.01 9.87 47.94 11.92 C 48.10 14.61 47.99 17.31 47.99 20.00 C 50.66 20.00 53.33 20.00 56.00 20.00 C 56.00 26.67 56.00 33.33 56.00 40.00 C 53.33 40.00 50.67 40.00 48.00 40.00 C 47.89 44.35 48.24 48.72 47.83 53.06 C 47.35 55.21 45.02 56.26 42.98 56.00 C 35.28 55.97 27.58 56.08 19.88 55.94 C 17.38 56.00 15.62 53.42 16.00 51.06 C 15.99 38.38 16.00 25.69 16.00 13.00 M 20.00 12.00 C 20.00 25.33 20.00 38.67 20.00 52.00 C 28.00 52.00 36.00 52.00 44.00 52.00 C 44.00 48.00 44.00 44.00 44.00 40.00 C 39.33 40.00 34.67 40.00 30.00 40.00 C 30.00 38.67 30.00 37.33 30.00 36.00 C 36.65 36.00 43.30 36.00 49.95 36.00 C 50.64 35.31 51.32 34.62 52.00 33.93 C 52.00 31.29 52.00 28.65 52.00 26.01 C 51.34 25.34 50.68 24.67 50.02 24.01 C 43.34 23.99 36.67 24.00 30.00 24.00 C 30.00 22.67 30.00 21.33 30.00 20.00 C 34.67 20.00 39.33 20.00 44.00 20.00 C 44.00 17.33 44.00 14.67 44.00 12.00 C 36.00 12.00 28.00 12.00 20.00 12.00 Z" />
<path fill="#000000" opacity="1.00" d=" M 38.35 26.37 C 41.26 24.76 44.95 28.10 43.82 31.16 C 43.09 33.57 39.88 34.92 37.79 33.30 C 35.15 31.77 35.58 27.52 38.35 26.37 Z" />
<path fill="#000000" opacity="1.00" d=" M 31.14 28.11 C 33.49 27.11 35.21 30.75 32.88 31.77 C 30.52 33.08 28.81 29.18 31.14 28.11 Z" />
<path fill="#000000" opacity="1.00" d=" M 47.06 28.15 C 49.50 27.00 51.19 30.76 48.84 31.85 C 46.46 32.90 44.90 29.34 47.06 28.15 Z" />
<path fill="#000000" opacity="1.00" d=" M 28.00 46.00 C 30.67 46.00 33.33 46.00 36.00 46.00 C 36.00 47.33 36.00 48.67 36.00 50.00 C 33.33 50.00 30.67 50.00 28.00 50.00 C 28.00 48.67 28.00 47.33 28.00 46.00 Z" />
</g>
</svg>
