<?xml version="1.0" encoding="UTF-8" ?>
<!DOCTYPE svg PUBLIC "-//W3C//DTD SVG 1.1//EN" "http://www.w3.org/Graphics/SVG/1.1/DTD/svg11.dtd">
<svg width="60pt" height="60pt" viewBox="0 0 60 60" version="1.1" xmlns="http://www.w3.org/2000/svg">
<g id="#ffffffff">
<path fill="#ffffff" opacity="1.00" d=" M 0.00 0.00 L 60.00 0.00 L 60.00 60.00 L 0.00 60.00 L 0.00 0.00 M 18.44 11.37 C 14.42 14.00 10.21 17.82 10.00 22.96 C 9.88 26.68 12.88 29.34 15.94 30.85 C 16.75 33.84 19.17 35.82 21.86 37.11 C 22.45 40.25 25.08 42.15 27.89 43.25 C 28.64 46.21 30.85 48.35 33.55 49.61 C 31.64 49.59 28.74 51.23 30.53 53.36 C 33.34 55.32 36.29 52.33 37.82 50.13 C 40.03 49.90 45.24 49.86 43.07 46.26 C 39.60 45.04 35.15 47.14 32.24 43.99 C 36.66 43.76 41.21 43.14 45.10 40.87 C 46.49 39.49 44.86 36.66 43.01 37.71 C 37.77 39.59 31.35 41.55 26.33 38.09 C 33.48 38.05 40.96 36.19 46.50 31.47 C 47.82 29.87 45.52 27.40 43.88 28.73 C 37.28 33.07 28.16 36.18 20.76 32.01 C 29.21 32.31 37.93 29.89 44.51 24.47 C 47.54 21.87 50.46 18.19 49.91 13.94 C 49.39 9.80 45.36 7.29 41.57 6.56 C 33.62 4.94 25.27 7.22 18.44 11.37 Z" />
<path fill="#ffffff" opacity="1.00" d=" M 30.50 10.72 C 35.15 9.82 40.65 9.28 44.67 12.27 C 47.33 14.56 45.28 18.30 43.23 20.22 C 37.22 25.93 28.53 28.60 20.33 27.74 C 24.08 21.68 31.25 18.99 38.00 17.99 C 40.50 18.08 40.38 13.95 37.92 14.13 C 29.39 14.82 20.52 18.95 16.28 26.71 C 14.51 25.30 13.25 22.97 14.57 20.81 C 17.81 15.08 24.39 12.25 30.50 10.72 Z" />
</g>
<g id="#000000ff">
<path fill="#000000" opacity="1.00" d=" M 18.44 11.37 C 25.27 7.22 33.62 4.94 41.57 6.56 C 45.36 7.29 49.39 9.80 49.91 13.94 C 50.46 18.19 47.54 21.87 44.51 24.47 C 37.93 29.89 29.21 32.31 20.76 32.01 C 28.16 36.18 37.28 33.07 43.88 28.73 C 45.52 27.40 47.82 29.87 46.50 31.47 C 40.96 36.19 33.48 38.05 26.33 38.09 C 31.35 41.55 37.77 39.59 43.01 37.71 C 44.86 36.66 46.49 39.49 45.10 40.87 C 41.21 43.14 36.66 43.76 32.24 43.99 C 35.15 47.14 39.60 45.04 43.07 46.26 C 45.24 49.86 40.03 49.90 37.82 50.13 C 36.29 52.33 33.34 55.32 30.53 53.36 C 28.74 51.23 31.64 49.59 33.55 49.61 C 30.85 48.35 28.64 46.21 27.89 43.25 C 25.08 42.15 22.45 40.25 21.86 37.11 C 19.17 35.82 16.75 33.84 15.94 30.85 C 12.88 29.34 9.88 26.68 10.00 22.96 C 10.21 17.82 14.42 14.00 18.44 11.37 M 30.50 10.72 C 24.39 12.25 17.81 15.08 14.57 20.81 C 13.25 22.97 14.51 25.30 16.28 26.71 C 20.52 18.95 29.39 14.82 37.92 14.13 C 40.38 13.95 40.50 18.08 38.00 17.99 C 31.25 18.99 24.08 21.68 20.33 27.74 C 28.53 28.60 37.22 25.93 43.23 20.22 C 45.28 18.30 47.33 14.56 44.67 12.27 C 40.65 9.28 35.15 9.82 30.50 10.72 Z" />
</g>
</svg>
