<?xml version="1.0" encoding="UTF-8" ?>
<!DOCTYPE svg PUBLIC "-//W3C//DTD SVG 1.1//EN" "http://www.w3.org/Graphics/SVG/1.1/DTD/svg11.dtd">
<svg width="64pt" height="64pt" viewBox="0 0 64 64" version="1.1" xmlns="http://www.w3.org/2000/svg">
<g id="#ffffffff">
<path fill="#ffffff" opacity="1.00" d=" M 0.00 0.00 L 64.00 0.00 L 64.00 64.00 L 0.00 64.00 L 0.00 0.00 M 14.11 13.13 C 10.06 15.84 9.33 21.21 10.68 25.58 C 8.94 28.44 7.95 31.67 7.89 35.02 C 9.85 36.78 11.75 38.61 13.66 40.43 C 15.42 39.60 17.06 38.53 18.56 37.29 C 18.95 40.23 19.08 43.22 18.29 46.11 C 17.19 50.17 20.08 53.83 23.20 56.03 C 29.07 55.98 34.93 55.98 40.80 56.04 C 43.91 53.82 46.80 50.18 45.71 46.12 C 44.92 43.23 45.05 40.23 45.44 37.29 C 46.94 38.53 48.57 39.60 50.34 40.43 C 52.25 38.60 54.18 36.81 56.12 35.01 C 56.03 31.67 55.06 28.44 53.32 25.59 C 54.57 21.38 54.06 16.30 50.34 13.47 C 46.90 10.09 41.44 11.15 37.90 8.03 C 33.96 7.98 30.02 7.98 26.09 8.03 C 22.72 11.10 17.53 10.06 14.11 13.13 Z" />
<path fill="#ffffff" opacity="1.00" d=" M 27.45 12.04 C 30.48 11.98 33.51 11.98 36.55 12.04 C 39.78 15.16 45.01 13.56 48.20 16.81 C 51.07 19.24 49.65 23.23 48.89 26.30 C 50.32 28.50 51.39 30.92 51.89 33.51 C 51.33 34.01 50.22 35.01 49.67 35.51 C 48.04 33.98 47.08 31.98 46.44 29.86 C 45.33 30.16 43.51 29.65 43.09 31.10 C 41.06 35.96 40.43 41.52 41.72 46.65 C 42.43 48.76 40.91 50.97 39.07 51.90 C 34.29 52.20 29.49 51.85 24.71 52.06 C 23.60 50.69 21.69 49.33 22.17 47.33 C 23.52 41.99 23.08 36.19 20.92 31.12 C 20.48 29.65 18.69 30.13 17.55 29.87 C 16.92 31.98 15.96 33.98 14.33 35.51 C 13.78 35.01 12.67 34.00 12.11 33.49 C 12.61 30.91 13.68 28.50 15.10 26.30 C 14.35 23.23 12.92 19.21 15.81 16.79 C 19.01 13.57 24.22 15.15 27.45 12.04 M 17.79 24.04 C 18.34 26.53 19.24 29.15 21.37 30.73 C 24.77 31.92 29.01 32.92 32.00 30.27 C 34.98 32.93 39.21 31.91 42.61 30.74 C 44.75 29.16 45.65 26.54 46.21 24.05 C 44.88 24.02 43.55 24.00 42.22 23.98 C 41.70 25.12 41.14 26.25 40.52 27.34 C 38.81 27.59 37.10 27.82 35.38 27.97 C 35.02 27.48 34.31 26.49 33.96 25.99 C 32.66 26.00 31.35 26.00 30.05 26.00 C 29.68 26.50 28.92 27.50 28.54 28.00 C 26.85 27.82 25.16 27.58 23.48 27.33 C 22.86 26.24 22.29 25.12 21.77 23.98 C 20.44 24.00 19.11 24.02 17.79 24.04 Z" />
</g>
<g id="#000000ff">
<path fill="#000000" opacity="1.00" d=" M 14.11 13.13 C 17.53 10.06 22.72 11.10 26.09 8.03 C 30.02 7.98 33.96 7.98 37.90 8.03 C 41.44 11.15 46.90 10.09 50.34 13.47 C 54.06 16.30 54.57 21.38 53.32 25.59 C 55.06 28.44 56.03 31.67 56.12 35.01 C 54.18 36.81 52.25 38.60 50.34 40.43 C 48.57 39.60 46.94 38.53 45.44 37.29 C 45.05 40.23 44.92 43.23 45.71 46.12 C 46.80 50.18 43.91 53.82 40.80 56.04 C 34.93 55.98 29.07 55.98 23.20 56.03 C 20.08 53.83 17.19 50.17 18.29 46.11 C 19.08 43.22 18.95 40.23 18.56 37.29 C 17.06 38.53 15.42 39.60 13.66 40.43 C 11.75 38.61 9.85 36.78 7.89 35.02 C 7.95 31.67 8.94 28.44 10.68 25.58 C 9.33 21.21 10.06 15.84 14.11 13.13 M 27.45 12.04 C 24.22 15.15 19.01 13.57 15.81 16.79 C 12.92 19.21 14.35 23.23 15.10 26.30 C 13.68 28.50 12.61 30.91 12.11 33.49 C 12.67 34.00 13.78 35.01 14.33 35.51 C 15.96 33.98 16.92 31.98 17.55 29.87 C 18.69 30.13 20.48 29.65 20.92 31.12 C 23.08 36.19 23.52 41.99 22.17 47.33 C 21.69 49.33 23.60 50.69 24.71 52.06 C 29.49 51.85 34.29 52.20 39.07 51.90 C 40.91 50.97 42.43 48.76 41.72 46.65 C 40.43 41.52 41.06 35.96 43.09 31.10 C 43.51 29.65 45.33 30.16 46.44 29.86 C 47.08 31.98 48.04 33.98 49.67 35.51 C 50.22 35.01 51.33 34.01 51.89 33.51 C 51.39 30.92 50.32 28.50 48.89 26.30 C 49.65 23.23 51.07 19.24 48.20 16.81 C 45.01 13.56 39.78 15.16 36.55 12.04 C 33.51 11.98 30.48 11.98 27.45 12.04 Z" />
<path fill="#000000" opacity="1.00" d=" M 17.79 24.04 C 19.11 24.02 20.44 24.00 21.77 23.98 C 22.29 25.12 22.86 26.24 23.48 27.33 C 25.16 27.58 26.85 27.82 28.54 28.00 C 28.92 27.50 29.68 26.50 30.05 26.00 C 31.35 26.00 32.66 26.00 33.96 25.99 C 34.31 26.49 35.02 27.48 35.38 27.97 C 37.10 27.82 38.81 27.59 40.52 27.34 C 41.14 26.25 41.70 25.12 42.22 23.98 C 43.55 24.00 44.88 24.02 46.21 24.05 C 45.65 26.54 44.75 29.16 42.61 30.74 C 39.21 31.91 34.98 32.93 32.00 30.27 C 29.01 32.92 24.77 31.92 21.37 30.73 C 19.24 29.15 18.34 26.53 17.79 24.04 Z" />
</g>
</svg>
