<?xml version="1.0" encoding="UTF-8" ?>
<!DOCTYPE svg PUBLIC "-//W3C//DTD SVG 1.1//EN" "http://www.w3.org/Graphics/SVG/1.1/DTD/svg11.dtd">
<svg width="64pt" height="64pt" viewBox="0 0 64 64" version="1.1" xmlns="http://www.w3.org/2000/svg">
<g id="#ffffffff">
<path fill="#ffffff" opacity="1.00" d=" M 0.00 0.00 L 64.00 0.00 L 64.00 64.00 L 0.00 64.00 L 0.00 0.00 M 19.14 10.00 C 16.08 13.04 13.03 16.09 10.00 19.14 C 10.00 21.33 10.00 23.52 9.99 25.71 C 8.10 26.39 5.90 27.65 6.00 29.97 C 5.81 32.36 8.09 33.59 9.99 34.28 C 10.01 40.86 10.00 47.43 10.00 54.00 C 24.67 54.00 39.33 54.00 54.00 54.00 C 54.00 47.43 53.99 40.86 54.01 34.29 C 55.90 33.60 58.14 32.32 57.99 29.98 C 58.10 27.67 55.93 26.33 54.01 25.72 C 53.99 23.53 54.00 21.34 54.01 19.15 C 50.99 16.06 47.94 13.02 44.86 10.00 C 36.29 10.01 27.71 10.00 19.14 10.00 Z" />
<path fill="#ffffff" opacity="1.00" d=" M 13.99 20.88 C 16.30 18.59 18.61 16.30 20.91 14.00 C 28.31 14.00 35.72 14.00 43.12 14.00 C 45.42 16.29 47.71 18.58 50.00 20.88 C 50.00 30.59 50.00 40.29 50.00 50.00 C 38.00 50.00 26.00 50.00 14.00 50.00 C 14.00 40.29 14.01 30.59 13.99 20.88 M 28.46 22.67 C 21.63 24.95 19.77 34.94 25.41 39.47 C 30.75 44.67 40.75 41.19 41.81 33.84 C 43.52 26.56 35.34 19.69 28.46 22.67 Z" />
<path fill="#ffffff" opacity="1.00" d=" M 29.41 26.58 C 33.58 24.33 39.00 28.51 37.88 33.11 C 37.29 37.39 31.60 39.52 28.31 36.73 C 24.84 34.25 25.46 28.25 29.41 26.58 Z" />
</g>
<g id="#000000ff">
<path fill="#000000" opacity="1.00" d=" M 19.14 10.00 C 27.71 10.00 36.29 10.01 44.86 10.00 C 47.94 13.02 50.99 16.06 54.01 19.15 C 54.00 21.34 53.99 23.53 54.01 25.72 C 55.93 26.33 58.10 27.67 57.99 29.98 C 58.14 32.32 55.90 33.60 54.01 34.29 C 53.99 40.86 54.00 47.43 54.00 54.00 C 39.33 54.00 24.67 54.00 10.00 54.00 C 10.00 47.43 10.01 40.86 9.99 34.28 C 8.09 33.59 5.81 32.36 6.00 29.97 C 5.90 27.65 8.10 26.39 9.99 25.71 C 10.00 23.52 10.00 21.33 10.00 19.14 C 13.03 16.09 16.08 13.04 19.14 10.00 M 13.99 20.88 C 14.01 30.59 14.00 40.29 14.00 50.00 C 26.00 50.00 38.00 50.00 50.00 50.00 C 50.00 40.29 50.00 30.59 50.00 20.88 C 47.71 18.58 45.42 16.29 43.12 14.00 C 35.72 14.00 28.31 14.00 20.91 14.00 C 18.61 16.30 16.30 18.59 13.99 20.88 Z" />
<path fill="#000000" opacity="1.00" d=" M 28.46 22.67 C 35.34 19.69 43.52 26.56 41.81 33.84 C 40.75 41.19 30.75 44.67 25.41 39.47 C 19.77 34.94 21.63 24.95 28.46 22.67 M 29.41 26.58 C 25.46 28.25 24.84 34.25 28.31 36.73 C 31.60 39.52 37.29 37.39 37.88 33.11 C 39.00 28.51 33.58 24.33 29.41 26.58 Z" />
</g>
</svg>
