<?xml version="1.0" encoding="UTF-8" ?>
<!DOCTYPE svg PUBLIC "-//W3C//DTD SVG 1.1//EN" "http://www.w3.org/Graphics/SVG/1.1/DTD/svg11.dtd">
<svg width="64pt" height="64pt" viewBox="0 0 64 64" version="1.1" xmlns="http://www.w3.org/2000/svg">
<g id="#ffffffff">
<path fill="#ffffff" opacity="1.00" d=" M 0.00 0.00 L 64.00 0.00 L 64.00 64.00 L 0.00 64.00 L 0.00 0.00 M 22.61 7.44 C 20.52 9.65 19.54 12.62 18.13 15.27 C 17.26 14.98 15.51 14.40 14.63 14.11 C 14.21 15.37 13.79 16.63 13.37 17.89 C 14.04 18.12 15.39 18.57 16.06 18.80 C 16.06 23.49 15.77 28.19 16.17 32.86 C 17.44 34.76 20.09 33.71 22.00 34.05 C 22.43 32.70 22.88 31.36 23.31 30.01 C 29.10 29.99 34.89 29.99 40.68 30.01 C 41.12 31.36 41.56 32.70 42.01 34.05 C 43.91 33.71 46.56 34.76 47.83 32.87 C 48.23 28.21 47.94 23.52 47.94 18.85 C 48.84 18.49 49.75 18.13 50.65 17.78 C 50.33 16.86 49.67 15.03 49.34 14.11 C 48.47 14.40 46.74 14.98 45.87 15.27 C 44.47 12.65 43.51 9.71 41.46 7.51 C 38.88 5.25 35.16 6.21 32.03 5.98 C 28.91 6.22 25.23 5.25 22.61 7.44 M 17.90 35.98 C 20.19 37.73 24.31 39.28 23.88 42.78 C 20.61 45.77 14.91 45.23 12.59 49.45 C 10.96 52.55 13.00 55.80 15.11 58.03 C 17.49 57.99 19.87 57.99 22.25 58.03 C 19.81 56.35 15.86 54.78 16.05 51.27 C 19.32 48.24 25.03 48.79 27.38 44.58 C 29.06 41.49 27.00 38.24 24.93 35.97 C 22.59 36.00 20.25 36.00 17.90 35.98 M 41.91 35.98 C 44.05 37.47 46.66 38.71 47.85 41.18 C 48.69 43.17 46.28 43.97 44.88 44.55 C 41.77 45.81 37.61 46.55 36.31 50.12 C 35.20 53.13 37.20 55.91 39.11 58.03 C 41.49 57.99 43.87 57.99 46.25 58.03 C 43.99 56.61 41.42 55.29 40.13 52.84 C 39.77 51.64 40.15 50.79 41.28 50.29 C 44.62 48.40 49.30 48.23 51.38 44.58 C 53.06 41.49 51.01 38.23 48.92 35.97 C 46.58 36.00 44.24 36.00 41.91 35.98 Z" />
<path fill="#ffffff" opacity="1.00" d=" M 23.17 13.97 C 24.22 12.55 24.57 9.80 26.84 10.04 C 30.78 10.09 34.82 9.62 38.70 10.34 C 39.53 11.47 40.15 12.74 40.83 13.97 C 34.94 14.02 29.06 14.02 23.17 13.97 Z" />
<path fill="#ffffff" opacity="1.00" d=" M 21.23 18.00 C 28.41 18.00 35.59 18.00 42.77 18.00 C 43.02 18.50 43.52 19.49 43.77 19.99 C 41.84 19.99 39.92 20.00 38.00 20.00 C 38.00 21.34 38.00 22.67 38.00 24.00 C 40.00 24.00 42.00 24.00 44.00 24.00 C 44.00 24.50 44.00 25.50 44.00 26.00 C 36.00 26.00 28.00 26.00 20.00 26.00 C 20.00 25.50 20.00 24.50 20.00 24.00 C 22.00 24.00 24.00 24.00 26.00 24.00 C 26.00 22.67 26.00 21.34 26.00 20.00 C 24.08 20.00 22.15 19.99 20.23 19.99 C 20.48 19.49 20.98 18.50 21.23 18.00 Z" />
</g>
<g id="#000000ff">
<path fill="#000000" opacity="1.00" d=" M 22.61 7.44 C 25.23 5.25 28.91 6.22 32.03 5.98 C 35.16 6.21 38.88 5.25 41.46 7.51 C 43.51 9.71 44.47 12.65 45.87 15.27 C 46.74 14.98 48.47 14.40 49.34 14.11 C 49.67 15.03 50.33 16.86 50.65 17.78 C 49.75 18.13 48.84 18.49 47.94 18.85 C 47.94 23.52 48.23 28.21 47.83 32.87 C 46.56 34.76 43.91 33.71 42.01 34.05 C 41.56 32.70 41.12 31.36 40.68 30.01 C 34.89 29.99 29.10 29.99 23.31 30.01 C 22.88 31.36 22.43 32.70 22.00 34.05 C 20.09 33.71 17.44 34.76 16.17 32.86 C 15.77 28.19 16.06 23.49 16.06 18.80 C 15.39 18.57 14.04 18.12 13.37 17.89 C 13.79 16.63 14.21 15.37 14.63 14.11 C 15.51 14.40 17.26 14.98 18.13 15.27 C 19.54 12.62 20.52 9.65 22.61 7.44 M 23.17 13.97 C 29.06 14.02 34.94 14.02 40.83 13.97 C 40.15 12.74 39.53 11.47 38.70 10.34 C 34.82 9.62 30.78 10.09 26.84 10.04 C 24.57 9.80 24.22 12.55 23.17 13.97 M 21.23 18.00 C 20.98 18.50 20.48 19.49 20.23 19.99 C 22.15 19.99 24.08 20.00 26.00 20.00 C 26.00 21.34 26.00 22.67 26.00 24.00 C 24.00 24.00 22.00 24.00 20.00 24.00 C 20.00 24.50 20.00 25.50 20.00 26.00 C 28.00 26.00 36.00 26.00 44.00 26.00 C 44.00 25.50 44.00 24.50 44.00 24.00 C 42.00 24.00 40.00 24.00 38.00 24.00 C 38.00 22.67 38.00 21.34 38.00 20.00 C 39.92 20.00 41.84 19.99 43.77 19.99 C 43.52 19.49 43.02 18.50 42.77 18.00 C 35.59 18.00 28.41 18.00 21.23 18.00 Z" />
<path fill="#000000" opacity="1.00" d=" M 17.90 35.98 C 20.25 36.00 22.59 36.00 24.93 35.97 C 27.00 38.24 29.06 41.49 27.38 44.58 C 25.03 48.79 19.32 48.24 16.05 51.27 C 15.86 54.78 19.81 56.35 22.25 58.03 C 19.87 57.99 17.49 57.99 15.11 58.03 C 13.00 55.80 10.96 52.55 12.59 49.45 C 14.91 45.23 20.61 45.77 23.88 42.78 C 24.31 39.28 20.19 37.73 17.90 35.98 Z" />
<path fill="#000000" opacity="1.00" d=" M 41.91 35.98 C 44.24 36.00 46.58 36.00 48.92 35.97 C 51.01 38.23 53.06 41.49 51.38 44.58 C 49.30 48.23 44.62 48.40 41.28 50.29 C 40.15 50.79 39.77 51.64 40.13 52.84 C 41.42 55.29 43.99 56.61 46.25 58.03 C 43.87 57.99 41.49 57.99 39.11 58.03 C 37.20 55.91 35.20 53.13 36.31 50.12 C 37.61 46.55 41.77 45.81 44.88 44.55 C 46.28 43.97 48.69 43.17 47.85 41.18 C 46.66 38.71 44.05 37.47 41.91 35.98 Z" />
</g>
</svg>
