<?xml version="1.0" encoding="UTF-8" ?>
<!DOCTYPE svg PUBLIC "-//W3C//DTD SVG 1.1//EN" "http://www.w3.org/Graphics/SVG/1.1/DTD/svg11.dtd">
<svg width="60pt" height="60pt" viewBox="0 0 60 60" version="1.1" xmlns="http://www.w3.org/2000/svg">
<g id="#ffffffff">
<path fill="#ffffff" opacity="1.00" d=" M 0.00 0.00 L 60.00 0.00 L 60.00 60.00 L 0.00 60.00 L 0.00 0.00 M 11.53 10.46 C 9.47 13.05 10.17 16.57 9.97 19.63 C 6.98 21.23 6.99 26.80 9.97 28.37 C 9.97 28.96 9.97 30.16 9.97 30.75 C 9.34 31.81 8.09 32.65 8.10 33.99 C 7.88 38.02 7.96 42.06 8.06 46.09 C 7.90 47.58 9.20 48.49 9.88 49.64 C 9.85 52.11 10.17 55.27 13.09 55.92 C 16.57 56.73 18.56 52.98 18.11 50.00 C 26.04 50.00 33.96 50.00 41.89 50.00 C 41.63 52.63 42.78 56.03 45.93 55.99 C 49.34 56.12 50.34 52.37 50.13 49.64 C 52.87 47.14 51.82 43.25 52.01 39.97 C 51.90 36.81 52.75 33.10 50.03 30.76 C 50.03 30.16 50.03 28.97 50.03 28.37 C 50.48 28.00 51.38 27.26 51.83 26.89 C 52.01 24.37 52.89 20.93 50.04 19.63 C 49.81 16.58 50.52 13.09 48.49 10.51 C 46.32 8.00 42.89 7.25 39.78 6.67 C 33.30 5.76 26.68 5.77 20.20 6.67 C 17.11 7.24 13.71 8.00 11.53 10.46 Z" />
<path fill="#ffffff" opacity="1.00" d=" M 21.21 10.15 C 26.79 9.85 32.40 9.98 37.99 10.07 C 40.10 9.82 40.75 13.11 38.81 13.84 C 33.21 14.16 27.56 14.03 21.95 13.92 C 19.86 14.16 19.27 10.82 21.21 10.15 Z" />
<path fill="#ffffff" opacity="1.00" d=" M 15.23 18.15 C 24.16 17.78 33.11 18.13 42.05 17.98 C 43.36 18.13 45.18 17.67 45.82 19.22 C 46.09 23.06 46.13 26.95 45.83 30.80 C 45.58 31.06 45.06 31.58 44.80 31.84 C 36.21 32.25 27.59 31.85 18.99 32.03 C 17.39 31.78 15.13 32.59 14.17 30.84 C 13.86 26.97 13.92 23.05 14.19 19.18 C 14.45 18.92 14.97 18.41 15.23 18.15 Z" />
<path fill="#ffffff" opacity="1.00" d=" M 13.40 36.49 C 16.61 34.24 19.93 39.68 16.56 41.53 C 13.38 43.72 10.10 38.35 13.40 36.49 Z" />
<path fill="#ffffff" opacity="1.00" d=" M 23.34 36.54 C 27.30 35.39 31.81 36.14 35.97 36.12 C 38.55 38.45 37.62 42.84 38.66 46.00 C 32.89 46.00 27.11 46.00 21.34 46.00 C 22.08 42.88 21.91 39.43 23.34 36.54 Z" />
<path fill="#ffffff" opacity="1.00" d=" M 43.38 36.51 C 46.54 34.21 49.94 39.62 46.59 41.51 C 43.43 43.75 40.09 38.40 43.38 36.51 Z" />
</g>
<g id="#000000ff">
<path fill="#000000" opacity="1.00" d=" M 11.53 10.46 C 13.71 8.00 17.11 7.24 20.20 6.67 C 26.68 5.77 33.30 5.76 39.78 6.67 C 42.89 7.25 46.32 8.00 48.49 10.51 C 50.52 13.09 49.81 16.58 50.04 19.63 C 52.89 20.93 52.01 24.37 51.83 26.89 C 51.38 27.26 50.48 28.00 50.03 28.37 C 50.03 28.97 50.03 30.16 50.03 30.76 C 52.75 33.10 51.90 36.81 52.01 39.97 C 51.82 43.25 52.87 47.14 50.13 49.64 C 50.34 52.37 49.34 56.12 45.93 55.99 C 42.78 56.03 41.63 52.63 41.89 50.00 C 33.96 50.00 26.04 50.00 18.11 50.00 C 18.56 52.98 16.57 56.73 13.09 55.92 C 10.17 55.27 9.85 52.11 9.88 49.64 C 9.20 48.49 7.90 47.58 8.06 46.09 C 7.96 42.06 7.88 38.02 8.10 33.99 C 8.09 32.65 9.34 31.81 9.97 30.75 C 9.97 30.16 9.97 28.96 9.97 28.37 C 6.99 26.80 6.98 21.23 9.97 19.63 C 10.17 16.57 9.47 13.05 11.53 10.46 M 21.21 10.15 C 19.27 10.82 19.86 14.16 21.95 13.92 C 27.56 14.03 33.21 14.16 38.81 13.84 C 40.75 13.11 40.10 9.82 37.99 10.07 C 32.40 9.98 26.79 9.85 21.21 10.15 M 15.23 18.15 C 14.97 18.41 14.45 18.92 14.19 19.18 C 13.92 23.05 13.86 26.97 14.17 30.84 C 15.13 32.59 17.39 31.78 18.99 32.03 C 27.59 31.85 36.21 32.25 44.80 31.84 C 45.06 31.58 45.58 31.06 45.83 30.80 C 46.13 26.95 46.09 23.06 45.82 19.22 C 45.18 17.67 43.36 18.13 42.05 17.98 C 33.11 18.13 24.16 17.78 15.23 18.15 M 13.40 36.49 C 10.10 38.35 13.38 43.72 16.56 41.53 C 19.93 39.68 16.61 34.24 13.40 36.49 M 23.34 36.54 C 21.91 39.43 22.08 42.88 21.34 46.00 C 27.11 46.00 32.89 46.00 38.66 46.00 C 37.62 42.84 38.55 38.45 35.97 36.12 C 31.81 36.14 27.30 35.39 23.34 36.54 M 43.38 36.51 C 40.09 38.40 43.43 43.75 46.59 41.51 C 49.94 39.62 46.54 34.21 43.38 36.51 Z" />
</g>
</svg>
