<?xml version="1.0" encoding="UTF-8" ?>
<!DOCTYPE svg PUBLIC "-//W3C//DTD SVG 1.1//EN" "http://www.w3.org/Graphics/SVG/1.1/DTD/svg11.dtd">
<svg width="64pt" height="64pt" viewBox="0 0 64 64" version="1.1" xmlns="http://www.w3.org/2000/svg">
<g id="#ffffffff">
<path fill="#ffffff" opacity="1.00" d=" M 0.00 0.00 L 64.00 0.00 L 64.00 64.00 L 0.00 64.00 L 0.00 0.00 M 40.00 12.30 C 40.00 13.89 40.00 15.48 40.01 17.08 C 43.66 14.80 46.83 11.61 50.92 10.15 C 53.40 9.14 56.81 11.89 55.53 14.46 C 52.68 20.47 46.94 24.67 40.61 26.42 C 35.65 36.84 24.63 41.90 16.30 49.19 C 13.33 45.29 10.53 41.22 8.73 36.63 C 16.27 36.54 22.66 29.90 22.14 22.31 C 20.66 22.04 19.18 21.74 17.71 21.42 C 19.91 19.31 23.27 20.25 26.01 20.03 C 26.00 18.69 25.98 17.35 25.96 16.01 C 22.12 16.13 17.24 15.41 14.57 18.83 C 12.71 21.76 15.53 24.56 17.94 25.93 C 16.27 30.44 10.94 34.20 6.28 31.40 C 5.42 31.97 4.56 32.54 3.70 33.11 C 5.34 41.57 10.62 48.59 15.92 55.13 C 18.27 58.04 22.74 58.86 25.93 56.85 C 33.52 52.27 38.04 44.33 44.24 38.23 C 49.44 32.44 55.35 27.01 58.87 19.96 C 61.24 15.31 60.11 8.04 54.54 6.37 C 48.88 4.74 44.24 9.31 40.00 12.30 M 34.00 12.00 C 34.00 14.67 34.00 17.33 34.00 20.00 C 35.33 20.00 36.67 20.00 38.00 20.00 C 38.00 17.33 38.00 14.67 38.00 12.00 C 36.67 12.00 35.33 12.00 34.00 12.00 M 28.00 14.00 C 28.00 16.67 28.00 19.33 28.00 22.00 C 29.33 22.00 30.67 22.00 32.00 22.00 C 32.00 19.33 32.00 16.67 32.00 14.00 C 30.67 14.00 29.33 14.00 28.00 14.00 Z" />
<path fill="#ffffff" opacity="1.00" d=" M 43.45 29.73 C 45.24 28.98 47.03 28.24 48.81 27.49 C 45.30 31.10 41.94 34.86 38.48 38.51 C 33.66 43.66 29.81 50.04 23.47 53.51 C 21.81 54.58 20.17 53.29 18.74 52.48 C 27.10 45.05 37.92 39.87 43.45 29.73 Z" />
</g>
<g id="#000000ff">
<path fill="#000000" opacity="1.00" d=" M 40.00 12.30 C 44.24 9.31 48.88 4.74 54.54 6.37 C 60.11 8.04 61.24 15.31 58.87 19.96 C 55.35 27.01 49.44 32.44 44.24 38.23 C 38.04 44.33 33.52 52.27 25.93 56.85 C 22.74 58.86 18.27 58.04 15.92 55.13 C 10.62 48.59 5.34 41.57 3.70 33.11 C 4.56 32.54 5.42 31.97 6.28 31.40 C 10.94 34.20 16.27 30.44 17.94 25.93 C 15.53 24.56 12.71 21.76 14.57 18.83 C 17.24 15.41 22.12 16.13 25.96 16.01 C 25.98 17.35 26.00 18.69 26.01 20.03 C 23.27 20.25 19.91 19.31 17.71 21.42 C 19.18 21.74 20.66 22.04 22.14 22.31 C 22.66 29.90 16.27 36.54 8.73 36.63 C 10.53 41.22 13.33 45.29 16.30 49.19 C 24.63 41.90 35.65 36.84 40.61 26.42 C 46.94 24.67 52.68 20.47 55.53 14.46 C 56.81 11.89 53.40 9.14 50.92 10.15 C 46.83 11.61 43.66 14.80 40.01 17.08 C 40.00 15.48 40.00 13.89 40.00 12.30 M 43.45 29.73 C 37.92 39.87 27.10 45.05 18.74 52.48 C 20.17 53.29 21.81 54.58 23.47 53.51 C 29.81 50.04 33.66 43.66 38.48 38.51 C 41.94 34.86 45.30 31.10 48.81 27.49 C 47.03 28.24 45.24 28.98 43.45 29.73 Z" />
<path fill="#000000" opacity="1.00" d=" M 34.00 12.00 C 35.33 12.00 36.67 12.00 38.00 12.00 C 38.00 14.67 38.00 17.33 38.00 20.00 C 36.67 20.00 35.33 20.00 34.00 20.00 C 34.00 17.33 34.00 14.67 34.00 12.00 Z" />
<path fill="#000000" opacity="1.00" d=" M 28.00 14.00 C 29.33 14.00 30.67 14.00 32.00 14.00 C 32.00 16.67 32.00 19.33 32.00 22.00 C 30.67 22.00 29.33 22.00 28.00 22.00 C 28.00 19.33 28.00 16.67 28.00 14.00 Z" />
</g>
</svg>
