<?xml version="1.0" encoding="UTF-8" ?>
<!DOCTYPE svg PUBLIC "-//W3C//DTD SVG 1.1//EN" "http://www.w3.org/Graphics/SVG/1.1/DTD/svg11.dtd">
<svg width="60pt" height="60pt" viewBox="0 0 60 60" version="1.1" xmlns="http://www.w3.org/2000/svg">
<g id="#ffffffff">
<path fill="#ffffff" opacity="1.00" d=" M 0.00 0.00 L 60.00 0.00 L 60.00 60.00 L 0.00 60.00 L 0.00 0.00 M 16.49 4.67 C 13.22 6.38 13.22 11.62 16.50 13.32 C 19.60 15.34 24.10 12.70 24.00 9.05 C 24.19 5.35 19.63 2.63 16.49 4.67 M 26.43 15.02 C 25.55 18.59 26.17 22.35 26.01 25.99 C 24.11 28.44 21.90 30.66 20.22 33.27 C 19.34 34.80 21.20 36.58 22.75 35.85 C 24.26 34.73 25.52 33.33 26.83 32.00 C 32.93 31.95 39.02 32.09 45.12 31.95 C 48.66 32.05 50.98 27.97 49.68 24.82 C 47.72 18.83 42.02 14.81 36.27 12.84 C 33.00 11.75 28.05 11.11 26.43 15.02 M 11.17 28.20 C 10.15 28.76 9.79 29.64 10.10 30.83 C 11.48 32.80 14.23 31.71 16.25 32.04 C 17.50 30.46 18.75 28.89 20.02 27.32 C 17.07 27.60 14.09 27.66 11.17 28.20 M 20.50 38.71 C 17.85 39.22 14.98 39.28 12.58 40.61 C 11.03 41.94 12.76 44.69 14.68 43.82 C 24.72 41.43 35.22 41.49 45.27 43.82 C 47.63 44.89 49.25 41.02 46.76 40.21 C 38.25 37.91 29.23 37.44 20.50 38.71 M 20.47 46.74 C 15.78 47.57 10.94 48.43 6.64 50.58 C 4.92 51.86 6.85 54.83 8.79 53.77 C 22.44 48.78 37.75 48.83 51.39 53.83 C 53.69 54.83 55.16 50.87 52.71 50.19 C 42.53 46.24 31.27 45.15 20.47 46.74 Z" />
<path fill="#ffffff" opacity="1.00" d=" M 31.78 21.98 C 34.59 22.32 37.03 23.76 39.13 25.60 C 36.26 25.92 33.38 26.16 30.50 26.40 C 30.92 24.93 31.35 23.45 31.78 21.98 Z" />
</g>
<g id="#000000ff">
<path fill="#000000" opacity="1.00" d=" M 16.49 4.67 C 19.63 2.63 24.19 5.35 24.00 9.05 C 24.10 12.70 19.60 15.34 16.50 13.32 C 13.22 11.62 13.22 6.38 16.49 4.67 Z" />
<path fill="#000000" opacity="1.00" d=" M 26.43 15.02 C 28.05 11.11 33.00 11.75 36.27 12.84 C 42.02 14.81 47.72 18.83 49.68 24.82 C 50.98 27.97 48.66 32.05 45.12 31.95 C 39.02 32.09 32.93 31.95 26.83 32.00 C 25.52 33.33 24.26 34.73 22.75 35.85 C 21.20 36.58 19.34 34.80 20.22 33.27 C 21.90 30.66 24.11 28.44 26.01 25.99 C 26.17 22.35 25.55 18.59 26.43 15.02 M 31.78 21.98 C 31.35 23.45 30.92 24.93 30.50 26.40 C 33.38 26.16 36.26 25.92 39.13 25.60 C 37.03 23.76 34.59 22.32 31.78 21.98 Z" />
<path fill="#000000" opacity="1.00" d=" M 11.17 28.20 C 14.09 27.66 17.07 27.60 20.02 27.32 C 18.75 28.89 17.50 30.46 16.25 32.04 C 14.23 31.71 11.48 32.80 10.10 30.83 C 9.79 29.64 10.15 28.76 11.17 28.20 Z" />
<path fill="#000000" opacity="1.00" d=" M 20.50 38.71 C 29.23 37.44 38.25 37.91 46.76 40.21 C 49.25 41.02 47.63 44.89 45.27 43.82 C 35.22 41.49 24.72 41.43 14.68 43.82 C 12.76 44.69 11.03 41.94 12.58 40.61 C 14.98 39.28 17.85 39.22 20.50 38.71 Z" />
<path fill="#000000" opacity="1.00" d=" M 20.47 46.74 C 31.27 45.15 42.53 46.24 52.71 50.19 C 55.16 50.87 53.69 54.83 51.39 53.83 C 37.75 48.83 22.44 48.78 8.79 53.77 C 6.85 54.83 4.92 51.86 6.64 50.58 C 10.94 48.43 15.78 47.57 20.47 46.74 Z" />
</g>
</svg>
