<?xml version="1.0" encoding="UTF-8" ?>
<!DOCTYPE svg PUBLIC "-//W3C//DTD SVG 1.1//EN" "http://www.w3.org/Graphics/SVG/1.1/DTD/svg11.dtd">
<svg width="64pt" height="64pt" viewBox="0 0 64 64" version="1.1" xmlns="http://www.w3.org/2000/svg">
<g id="#ffffffff">
<path fill="#ffffff" opacity="1.00" d=" M 0.00 0.00 L 64.00 0.00 L 64.00 23.20 C 61.73 20.69 59.25 18.38 56.86 16.00 C 46.57 16.00 36.29 16.00 26.00 16.00 C 26.00 17.33 26.00 18.67 26.00 20.00 C 17.33 20.00 8.67 20.00 0.00 20.00 L 0.00 0.00 Z" />
<path fill="#ffffff" opacity="1.00" d=" M 30.00 20.00 C 34.67 20.00 39.33 20.00 44.00 20.00 C 44.00 28.00 44.00 36.00 44.00 44.00 C 39.33 44.00 34.67 44.00 30.00 44.00 C 30.00 36.00 30.00 28.00 30.00 20.00 Z" />
<path fill="#ffffff" opacity="1.00" d=" M 48.00 20.00 C 50.37 20.00 52.74 20.00 55.12 20.00 C 56.75 21.62 58.38 23.25 60.00 24.88 C 60.00 29.62 59.99 34.36 60.01 39.10 C 58.39 40.74 56.76 42.38 55.12 44.00 C 52.75 44.00 50.37 44.00 48.00 44.00 C 48.00 36.00 48.00 28.00 48.00 20.00 M 53.10 30.15 C 50.87 31.29 52.48 34.92 54.84 33.85 C 57.19 32.76 55.49 29.03 53.10 30.15 Z" />
<path fill="#ffffff" opacity="1.00" d=" M 0.00 24.00 C 8.67 24.00 17.33 24.00 26.00 24.00 C 26.00 26.00 26.00 28.00 26.00 30.00 C 17.33 30.00 8.67 30.00 0.00 30.00 L 0.00 24.00 Z" />
<path fill="#ffffff" opacity="1.00" d=" M 0.00 34.00 C 8.67 34.00 17.33 34.00 26.00 34.00 C 26.00 36.00 26.00 38.00 26.00 40.00 C 17.33 40.00 8.67 40.00 0.00 40.00 L 0.00 34.00 Z" />
<path fill="#ffffff" opacity="1.00" d=" M 56.86 48.00 C 59.25 45.61 61.73 43.31 64.00 40.80 L 64.00 64.00 L 0.00 64.00 L 0.00 44.00 C 8.67 44.00 17.33 44.00 26.00 44.00 C 26.00 45.33 26.00 46.67 26.00 48.00 C 36.29 48.00 46.57 48.00 56.86 48.00 Z" />
</g>
<g id="#000000ff">
<path fill="#000000" opacity="1.00" d=" M 26.00 16.00 C 36.29 16.00 46.57 16.00 56.86 16.00 C 59.25 18.38 61.73 20.69 64.00 23.20 L 64.00 40.80 C 61.73 43.31 59.25 45.61 56.86 48.00 C 46.57 48.00 36.29 48.00 26.00 48.00 C 26.00 46.67 26.00 45.33 26.00 44.00 C 17.33 44.00 8.67 44.00 0.00 44.00 L 0.00 40.00 C 8.67 40.00 17.33 40.00 26.00 40.00 C 26.00 38.00 26.00 36.00 26.00 34.00 C 17.33 34.00 8.67 34.00 0.00 34.00 L 0.00 30.00 C 8.67 30.00 17.33 30.00 26.00 30.00 C 26.00 28.00 26.00 26.00 26.00 24.00 C 17.33 24.00 8.67 24.00 0.00 24.00 L 0.00 20.00 C 8.67 20.00 17.33 20.00 26.00 20.00 C 26.00 18.67 26.00 17.33 26.00 16.00 M 30.00 20.00 C 30.00 28.00 30.00 36.00 30.00 44.00 C 34.67 44.00 39.33 44.00 44.00 44.00 C 44.00 36.00 44.00 28.00 44.00 20.00 C 39.33 20.00 34.67 20.00 30.00 20.00 M 48.00 20.00 C 48.00 28.00 48.00 36.00 48.00 44.00 C 50.37 44.00 52.75 44.00 55.12 44.00 C 56.76 42.38 58.39 40.74 60.01 39.10 C 59.99 34.36 60.00 29.62 60.00 24.88 C 58.38 23.25 56.75 21.62 55.12 20.00 C 52.74 20.00 50.37 20.00 48.00 20.00 Z" />
<path fill="#000000" opacity="1.00" d=" M 53.10 30.15 C 55.49 29.03 57.19 32.76 54.84 33.85 C 52.48 34.92 50.87 31.29 53.10 30.15 Z" />
</g>
</svg>
