<?xml version="1.0" encoding="UTF-8" ?>
<!DOCTYPE svg PUBLIC "-//W3C//DTD SVG 1.1//EN" "http://www.w3.org/Graphics/SVG/1.1/DTD/svg11.dtd">
<svg width="60pt" height="60pt" viewBox="0 0 60 60" version="1.1" xmlns="http://www.w3.org/2000/svg">
<g id="#ffffffff">
<path fill="#ffffff" opacity="1.00" d=" M 0.00 0.00 L 60.00 0.00 L 60.00 60.00 L 0.00 60.00 L 0.00 0.00 M 28.70 4.62 C 25.22 8.90 22.26 13.57 18.98 18.00 C 14.62 18.09 10.25 17.82 5.90 18.10 C 4.43 17.97 3.73 19.59 4.11 20.82 C 4.87 22.15 6.58 21.85 7.85 22.16 C 8.09 23.50 7.94 26.18 10.00 25.93 C 12.11 26.16 11.91 23.38 12.18 22.00 C 14.11 22.00 16.04 22.00 17.97 22.00 C 17.88 27.72 18.17 33.44 17.91 39.15 C 16.49 43.66 13.50 47.51 11.97 51.99 C 11.99 53.43 13.42 54.33 14.74 53.83 C 19.88 52.85 24.83 51.02 30.00 50.23 C 35.44 51.02 40.62 53.11 46.05 53.92 C 47.37 54.17 48.49 52.38 47.79 51.29 C 46.18 47.12 43.45 43.43 42.09 39.16 C 41.83 33.45 42.12 27.72 42.02 22.00 C 43.96 22.00 45.89 22.00 47.82 22.00 C 48.08 23.50 47.87 25.90 49.97 26.05 C 52.04 25.97 51.93 23.63 52.15 22.15 C 53.38 21.81 55.24 22.22 55.85 20.76 C 56.46 19.61 55.40 17.93 54.07 18.09 C 49.74 17.83 45.39 18.08 41.05 18.00 C 37.92 13.75 35.00 9.34 31.79 5.15 C 31.22 4.08 29.49 3.48 28.70 4.62 Z" />
<path fill="#ffffff" opacity="1.00" d=" M 23.89 18.00 C 25.92 15.14 27.96 12.29 30.01 9.44 C 32.05 12.29 34.09 15.15 36.13 18.00 C 32.05 18.00 27.97 18.00 23.89 18.00 Z" />
<path fill="#ffffff" opacity="1.00" d=" M 24.86 22.01 C 28.30 21.99 31.74 22.00 35.18 22.01 C 33.45 23.72 31.73 25.44 30.01 27.17 C 28.29 25.45 26.57 23.73 24.86 22.01 Z" />
<path fill="#ffffff" opacity="1.00" d=" M 21.99 24.82 C 23.72 26.54 25.45 28.27 27.19 30.00 C 25.45 31.72 23.73 33.45 22.00 35.18 C 21.98 31.73 21.98 28.27 21.99 24.82 Z" />
<path fill="#ffffff" opacity="1.00" d=" M 32.85 30.00 C 34.57 28.27 36.29 26.54 38.02 24.81 C 38.02 28.26 38.01 31.70 38.00 35.15 C 36.28 33.44 34.56 31.72 32.85 30.00 Z" />
<path fill="#ffffff" opacity="1.00" d=" M 23.01 39.82 C 25.34 37.49 27.68 35.17 30.01 32.83 C 32.35 35.16 34.68 37.50 37.01 39.84 C 34.68 41.70 32.35 43.57 30.01 45.43 C 27.67 43.56 25.34 41.69 23.01 39.82 Z" />
<path fill="#ffffff" opacity="1.00" d=" M 17.74 49.00 C 18.72 47.03 19.71 45.07 20.69 43.10 C 22.33 44.42 23.96 45.73 25.60 47.03 C 22.98 47.69 20.36 48.35 17.74 49.00 Z" />
<path fill="#ffffff" opacity="1.00" d=" M 34.43 47.04 C 36.06 45.73 37.69 44.42 39.32 43.11 C 40.30 45.08 41.28 47.04 42.26 49.00 C 39.65 48.35 37.04 47.70 34.43 47.04 Z" />
</g>
<g id="#000000ff">
<path fill="#000000" opacity="1.00" d=" M 28.70 4.62 C 29.49 3.48 31.22 4.08 31.79 5.15 C 35.00 9.34 37.92 13.75 41.05 18.00 C 45.39 18.08 49.74 17.83 54.07 18.09 C 55.40 17.93 56.46 19.61 55.85 20.76 C 55.24 22.22 53.38 21.81 52.15 22.15 C 51.93 23.63 52.04 25.97 49.97 26.05 C 47.87 25.90 48.08 23.50 47.82 22.00 C 45.89 22.00 43.96 22.00 42.02 22.00 C 42.12 27.72 41.83 33.45 42.09 39.16 C 43.45 43.43 46.18 47.12 47.79 51.29 C 48.49 52.38 47.37 54.17 46.05 53.92 C 40.62 53.11 35.44 51.02 30.00 50.23 C 24.83 51.02 19.88 52.85 14.74 53.83 C 13.42 54.33 11.99 53.43 11.97 51.99 C 13.50 47.51 16.49 43.66 17.91 39.15 C 18.17 33.44 17.88 27.72 17.97 22.00 C 16.04 22.00 14.11 22.00 12.18 22.00 C 11.91 23.38 12.11 26.16 10.00 25.93 C 7.94 26.18 8.09 23.50 7.85 22.16 C 6.58 21.85 4.87 22.15 4.11 20.82 C 3.73 19.59 4.43 17.97 5.90 18.10 C 10.25 17.82 14.62 18.09 18.98 18.00 C 22.26 13.57 25.22 8.90 28.70 4.62 M 23.89 18.00 C 27.97 18.00 32.05 18.00 36.13 18.00 C 34.09 15.15 32.05 12.29 30.01 9.44 C 27.96 12.29 25.92 15.14 23.89 18.00 M 24.86 22.01 C 26.57 23.73 28.29 25.45 30.01 27.17 C 31.73 25.44 33.45 23.72 35.18 22.01 C 31.74 22.00 28.30 21.99 24.86 22.01 M 21.99 24.82 C 21.98 28.27 21.98 31.73 22.00 35.18 C 23.73 33.45 25.45 31.72 27.19 30.00 C 25.45 28.27 23.72 26.54 21.99 24.82 M 32.85 30.00 C 34.56 31.72 36.28 33.44 38.00 35.15 C 38.01 31.70 38.02 28.26 38.02 24.81 C 36.29 26.54 34.57 28.27 32.85 30.00 M 23.01 39.82 C 25.34 41.69 27.67 43.56 30.01 45.43 C 32.35 43.57 34.68 41.70 37.01 39.84 C 34.68 37.50 32.35 35.16 30.01 32.83 C 27.68 35.17 25.34 37.49 23.01 39.82 M 17.74 49.00 C 20.36 48.35 22.98 47.69 25.60 47.03 C 23.96 45.73 22.33 44.42 20.69 43.10 C 19.71 45.07 18.72 47.03 17.74 49.00 M 34.43 47.04 C 37.04 47.70 39.65 48.35 42.26 49.00 C 41.28 47.04 40.30 45.08 39.32 43.11 C 37.69 44.42 36.06 45.73 34.43 47.04 Z" />
</g>
</svg>
