<?xml version="1.0" encoding="UTF-8" ?>
<!DOCTYPE svg PUBLIC "-//W3C//DTD SVG 1.1//EN" "http://www.w3.org/Graphics/SVG/1.1/DTD/svg11.dtd">
<svg width="64pt" height="64pt" viewBox="0 0 64 64" version="1.1" xmlns="http://www.w3.org/2000/svg">
<g id="#ffffffff">
<path fill="#ffffff" opacity="1.00" d=" M 0.00 0.00 L 64.00 0.00 L 64.00 64.00 L 0.00 64.00 L 0.00 0.00 M 16.53 10.63 C 13.03 11.85 9.50 14.79 10.00 18.88 C 10.31 23.57 8.79 29.08 12.04 33.04 C 13.54 35.10 15.87 36.23 17.98 37.54 C 18.16 41.65 17.59 45.82 18.38 49.87 C 20.57 55.07 27.08 55.95 32.04 55.99 C 36.97 55.93 43.43 55.04 45.61 49.89 C 46.42 45.83 45.84 41.65 46.02 37.55 C 49.41 35.68 53.16 33.17 53.82 29.04 C 54.12 24.77 54.22 20.44 53.73 16.18 C 52.32 12.06 47.68 10.55 43.88 9.45 C 34.93 7.30 25.21 7.39 16.53 10.63 Z" />
<path fill="#ffffff" opacity="1.00" d=" M 23.50 12.74 C 31.31 11.56 39.75 11.51 47.08 14.83 C 48.65 15.53 51.27 17.55 49.26 19.22 C 45.17 22.84 39.34 23.53 34.10 23.92 C 28.07 24.12 21.73 23.54 16.39 20.54 C 15.15 19.76 13.02 18.17 14.50 16.62 C 16.85 14.22 20.31 13.42 23.50 12.74 Z" />
<path fill="#ffffff" opacity="1.00" d=" M 13.90 23.89 C 25.05 29.44 38.95 29.43 50.10 23.89 C 50.02 26.62 50.28 29.89 47.72 31.67 C 42.18 36.00 34.63 36.24 27.91 35.77 C 23.39 35.27 18.43 34.18 15.27 30.64 C 13.57 28.82 14.14 26.15 13.90 23.89 Z" />
<path fill="#ffffff" opacity="1.00" d=" M 22.12 41.07 C 23.47 43.25 24.57 45.58 25.40 48.01 C 26.37 47.99 27.33 47.99 28.30 47.99 C 29.10 45.95 29.46 43.58 31.23 42.09 C 34.44 41.57 34.69 45.87 35.63 47.99 C 36.63 47.99 37.64 48.00 38.65 48.01 C 39.37 45.43 40.42 42.97 41.86 40.70 C 41.56 43.91 43.59 49.04 39.61 50.59 C 34.84 52.51 29.19 52.51 24.42 50.60 C 20.49 49.15 22.38 44.21 22.12 41.07 Z" />
</g>
<g id="#000000ff">
<path fill="#000000" opacity="1.00" d=" M 16.53 10.63 C 25.21 7.39 34.93 7.30 43.88 9.45 C 47.68 10.55 52.32 12.06 53.73 16.18 C 54.22 20.44 54.12 24.77 53.82 29.04 C 53.16 33.17 49.41 35.68 46.02 37.55 C 45.84 41.65 46.42 45.83 45.61 49.89 C 43.43 55.04 36.97 55.93 32.04 55.99 C 27.08 55.95 20.57 55.07 18.38 49.87 C 17.59 45.82 18.16 41.65 17.98 37.54 C 15.87 36.23 13.54 35.10 12.04 33.04 C 8.79 29.08 10.31 23.57 10.00 18.88 C 9.50 14.79 13.03 11.85 16.53 10.63 M 23.50 12.74 C 20.31 13.42 16.85 14.22 14.50 16.62 C 13.02 18.17 15.15 19.76 16.39 20.54 C 21.73 23.54 28.07 24.12 34.10 23.92 C 39.34 23.53 45.17 22.84 49.26 19.22 C 51.27 17.55 48.65 15.53 47.08 14.83 C 39.75 11.51 31.31 11.56 23.50 12.74 M 13.90 23.89 C 14.14 26.15 13.57 28.82 15.27 30.64 C 18.43 34.18 23.39 35.27 27.91 35.77 C 34.63 36.24 42.18 36.00 47.72 31.67 C 50.28 29.89 50.02 26.62 50.10 23.89 C 38.95 29.43 25.05 29.44 13.90 23.89 M 22.12 41.07 C 22.38 44.21 20.49 49.15 24.42 50.60 C 29.19 52.51 34.84 52.51 39.61 50.59 C 43.59 49.04 41.56 43.91 41.86 40.70 C 40.42 42.97 39.37 45.43 38.65 48.01 C 37.64 48.00 36.63 47.99 35.63 47.99 C 34.69 45.87 34.44 41.57 31.23 42.09 C 29.46 43.58 29.10 45.95 28.30 47.99 C 27.33 47.99 26.37 47.99 25.40 48.01 C 24.57 45.58 23.47 43.25 22.12 41.07 Z" />
</g>
</svg>
