<?xml version="1.0" encoding="UTF-8" ?>
<!DOCTYPE svg PUBLIC "-//W3C//DTD SVG 1.1//EN" "http://www.w3.org/Graphics/SVG/1.1/DTD/svg11.dtd">
<svg width="60pt" height="60pt" viewBox="0 0 60 60" version="1.1" xmlns="http://www.w3.org/2000/svg">
<g id="#ffffffff">
<path fill="#ffffff" opacity="1.00" d=" M 0.00 0.00 L 60.00 0.00 L 60.00 60.00 L 0.00 60.00 L 0.00 0.00 M 25.53 6.60 C 21.09 8.97 15.99 7.50 11.25 8.23 C 8.63 9.32 10.62 12.62 12.98 11.96 C 24.62 11.98 36.28 12.15 47.92 11.88 C 50.09 12.06 50.85 8.96 48.75 8.23 C 44.49 7.47 39.94 8.87 35.86 7.13 C 32.66 5.66 28.85 5.41 25.53 6.60 M 12.02 16.02 C 12.04 26.68 11.86 37.34 12.09 47.99 C 11.95 50.20 13.81 52.03 16.01 51.90 C 25.02 52.14 34.05 51.99 43.06 51.98 C 45.48 52.23 48.09 50.67 47.90 47.99 C 48.16 37.34 47.95 26.68 47.98 16.02 C 35.99 15.98 24.01 15.98 12.02 16.02 Z" />
</g>
<g id="#000000ff">
<path fill="#000000" opacity="1.00" d=" M 25.53 6.60 C 28.85 5.41 32.66 5.66 35.86 7.13 C 39.94 8.87 44.49 7.47 48.75 8.23 C 50.85 8.96 50.09 12.06 47.92 11.88 C 36.28 12.15 24.62 11.98 12.98 11.96 C 10.62 12.62 8.63 9.32 11.25 8.23 C 15.99 7.50 21.09 8.97 25.53 6.60 Z" />
<path fill="#000000" opacity="1.00" d=" M 12.02 16.02 C 24.01 15.98 35.99 15.98 47.98 16.02 C 47.95 26.68 48.16 37.34 47.90 47.99 C 48.09 50.67 45.48 52.23 43.06 51.98 C 34.05 51.99 25.02 52.14 16.01 51.90 C 13.81 52.03 11.95 50.20 12.09 47.99 C 11.86 37.34 12.04 26.68 12.02 16.02 Z" />
</g>
</svg>
