<?xml version="1.0" encoding="UTF-8" ?>
<!DOCTYPE svg PUBLIC "-//W3C//DTD SVG 1.1//EN" "http://www.w3.org/Graphics/SVG/1.1/DTD/svg11.dtd">
<svg width="64pt" height="64pt" viewBox="0 0 64 64" version="1.1" xmlns="http://www.w3.org/2000/svg">
<g id="#ffffffff">
<path fill="#ffffff" opacity="1.00" d=" M 0.00 0.00 L 64.00 0.00 L 64.00 64.00 L 0.00 64.00 L 0.00 0.00 M 29.45 8.58 C 25.47 10.26 24.82 16.29 28.37 18.75 C 31.65 21.51 37.20 19.34 37.87 15.16 C 39.01 10.59 33.61 6.33 29.45 8.58 M 18.20 22.19 C 16.48 24.22 15.55 26.78 14.25 29.08 C 15.43 29.70 16.63 30.32 17.82 30.93 C 19.31 27.15 21.59 23.52 25.93 22.72 C 24.85 25.85 22.84 28.71 22.38 32.01 C 22.86 35.57 26.94 36.54 29.30 38.64 C 28.44 41.11 27.68 43.61 26.94 46.12 C 20.76 46.99 14.45 47.11 8.35 48.42 C 4.51 49.86 5.87 56.10 9.90 55.95 C 21.62 56.07 33.34 55.97 45.06 56.00 C 48.14 56.34 51.30 54.28 51.87 51.17 C 52.44 49.07 51.25 47.14 50.19 45.44 C 51.23 39.42 52.41 33.42 53.49 27.40 C 54.81 26.08 56.12 24.76 57.44 23.45 C 56.48 22.48 55.51 21.52 54.55 20.56 C 51.22 23.90 47.90 27.24 44.55 30.56 C 45.55 31.54 46.56 32.52 47.59 33.48 L 48.60 32.22 C 47.86 36.09 47.08 39.97 46.49 43.87 C 41.46 44.67 36.37 45.02 31.31 45.62 C 31.99 43.09 33.13 40.63 33.25 37.98 C 32.55 34.73 28.80 33.86 26.58 31.88 C 27.18 29.25 28.59 26.84 29.65 24.36 C 31.86 25.44 32.66 27.94 34.49 29.42 C 36.82 30.46 39.51 29.86 42.00 30.00 C 42.00 28.68 42.00 27.35 42.00 26.03 C 40.12 26.01 38.25 25.98 36.38 25.87 C 34.55 21.26 29.35 20.05 25.05 18.91 C 22.57 19.47 20.29 20.77 18.20 22.19 M 12.00 37.86 C 12.00 39.19 12.00 40.53 12.00 41.86 C 14.93 41.83 17.87 41.99 20.79 41.79 C 22.85 41.71 23.82 39.65 24.99 38.27 C 23.95 37.50 22.91 36.74 21.87 35.98 C 19.78 39.39 15.26 37.34 12.00 37.86 Z" />
<path fill="#ffffff" opacity="1.00" d=" M 31.21 12.10 C 33.64 11.14 35.13 14.86 32.81 15.89 C 30.36 16.88 28.85 13.13 31.21 12.10 Z" />
<path fill="#ffffff" opacity="1.00" d=" M 11.40 51.39 C 23.33 50.95 35.22 49.10 47.12 47.88 C 48.21 49.20 48.37 51.98 46.05 51.93 C 34.47 52.02 22.87 52.21 11.29 51.63 L 11.40 51.39 Z" />
</g>
<g id="#000000ff">
<path fill="#000000" opacity="1.00" d=" M 29.45 8.58 C 33.61 6.33 39.01 10.59 37.87 15.16 C 37.20 19.34 31.65 21.51 28.37 18.75 C 24.82 16.29 25.47 10.26 29.45 8.58 M 31.21 12.10 C 28.85 13.13 30.36 16.88 32.81 15.89 C 35.13 14.86 33.64 11.14 31.21 12.10 Z" />
<path fill="#000000" opacity="1.00" d=" M 18.20 22.19 C 20.29 20.77 22.57 19.47 25.05 18.91 C 29.35 20.05 34.55 21.26 36.38 25.87 C 38.25 25.98 40.12 26.01 42.00 26.03 C 42.00 27.35 42.00 28.68 42.00 30.00 C 39.51 29.86 36.82 30.46 34.49 29.42 C 32.66 27.94 31.86 25.44 29.65 24.36 C 28.59 26.84 27.18 29.25 26.58 31.88 C 28.80 33.86 32.55 34.73 33.25 37.98 C 33.13 40.63 31.99 43.09 31.31 45.62 C 36.37 45.02 41.46 44.67 46.49 43.87 C 47.08 39.97 47.86 36.09 48.60 32.22 L 47.59 33.48 C 46.56 32.52 45.55 31.54 44.55 30.56 C 47.90 27.24 51.22 23.90 54.55 20.56 C 55.51 21.52 56.48 22.48 57.44 23.45 C 56.12 24.76 54.81 26.08 53.49 27.40 C 52.41 33.42 51.23 39.42 50.19 45.44 C 51.25 47.14 52.44 49.07 51.87 51.17 C 51.30 54.28 48.14 56.34 45.06 56.00 C 33.34 55.97 21.62 56.07 9.90 55.95 C 5.87 56.10 4.51 49.86 8.35 48.42 C 14.45 47.11 20.76 46.99 26.94 46.12 C 27.68 43.61 28.44 41.11 29.30 38.64 C 26.94 36.54 22.86 35.57 22.38 32.01 C 22.84 28.71 24.85 25.85 25.93 22.72 C 21.59 23.52 19.31 27.15 17.82 30.93 C 16.63 30.32 15.43 29.70 14.25 29.08 C 15.55 26.78 16.48 24.22 18.20 22.19 M 11.40 51.39 L 11.29 51.63 C 22.87 52.21 34.47 52.02 46.05 51.93 C 48.37 51.98 48.21 49.20 47.12 47.88 C 35.22 49.10 23.33 50.95 11.40 51.39 Z" />
<path fill="#000000" opacity="1.00" d=" M 12.00 37.86 C 15.26 37.34 19.78 39.39 21.87 35.98 C 22.91 36.74 23.95 37.50 24.99 38.27 C 23.82 39.65 22.85 41.71 20.79 41.79 C 17.87 41.99 14.93 41.83 12.00 41.86 C 12.00 40.53 12.00 39.19 12.00 37.86 Z" />
</g>
</svg>
