<?xml version="1.0" encoding="UTF-8" ?>
<!DOCTYPE svg PUBLIC "-//W3C//DTD SVG 1.1//EN" "http://www.w3.org/Graphics/SVG/1.1/DTD/svg11.dtd">
<svg width="60pt" height="60pt" viewBox="0 0 60 60" version="1.1" xmlns="http://www.w3.org/2000/svg">
<g id="#ffffffff">
<path fill="#ffffff" opacity="1.00" d=" M 0.00 0.00 L 60.00 0.00 L 60.00 60.00 L 0.00 60.00 L 0.00 0.00 M 7.23 8.13 C 5.69 8.79 6.10 10.61 5.99 11.93 C 6.07 23.31 5.88 34.71 6.08 46.09 C 5.88 47.78 7.96 47.95 9.09 48.41 C 13.43 49.46 17.62 51.07 21.99 51.93 C 26.76 51.04 31.28 49.14 36.04 48.20 C 41.46 49.05 46.63 51.06 52.04 51.94 C 53.62 52.09 54.15 50.29 53.99 49.04 C 54.03 38.01 53.97 26.98 54.01 15.94 C 53.84 14.72 54.42 12.70 52.79 12.25 C 47.28 10.66 41.70 9.18 36.07 8.11 C 31.30 8.97 26.78 10.92 22.00 11.80 C 17.01 10.93 12.29 8.50 7.23 8.13 Z" />
<path fill="#ffffff" opacity="1.00" d=" M 37.15 14.10 C 39.53 13.16 41.08 16.61 38.93 17.88 C 36.48 18.92 34.83 15.29 37.15 14.10 Z" />
<path fill="#ffffff" opacity="1.00" d=" M 13.16 16.10 C 15.58 15.13 17.16 18.81 14.81 19.88 C 12.40 20.85 10.87 17.22 13.16 16.10 Z" />
<path fill="#ffffff" opacity="1.00" d=" M 29.12 16.11 C 31.56 15.09 33.19 18.83 30.79 19.87 C 28.39 20.82 26.89 17.27 29.12 16.11 Z" />
<path fill="#ffffff" opacity="1.00" d=" M 45.24 16.17 C 47.54 14.98 49.23 19.04 46.74 19.83 C 44.44 20.98 42.77 16.97 45.24 16.17 Z" />
<path fill="#ffffff" opacity="1.00" d=" M 21.19 18.11 C 23.62 17.15 25.15 20.85 22.79 21.90 C 20.37 22.84 18.87 19.15 21.19 18.11 Z" />
<path fill="#ffffff" opacity="1.00" d=" M 45.23 24.17 C 47.56 23.05 49.15 26.87 46.83 27.88 C 44.45 28.93 42.78 25.10 45.23 24.17 Z" />
<path fill="#ffffff" opacity="1.00" d=" M 12.18 31.13 C 14.83 30.68 16.16 33.78 18.00 35.16 C 19.39 33.79 20.70 32.30 22.27 31.13 C 23.85 30.48 25.55 32.19 24.84 33.76 C 23.68 35.33 22.20 36.62 20.84 38.00 C 22.37 39.86 26.96 42.48 23.83 44.90 C 21.15 45.27 19.85 42.25 18.00 40.83 C 16.13 42.19 14.27 46.27 11.60 44.41 C 9.71 41.75 13.80 39.87 15.17 38.00 C 13.65 36.16 9.02 33.51 12.18 31.13 Z" />
<path fill="#ffffff" opacity="1.00" d=" M 45.15 32.10 C 47.56 31.14 49.12 34.72 46.86 35.88 C 44.43 36.89 42.87 33.26 45.15 32.10 Z" />
<path fill="#ffffff" opacity="1.00" d=" M 29.15 36.10 C 31.58 35.13 33.17 38.82 30.79 39.89 C 28.41 40.85 26.88 37.23 29.15 36.10 Z" />
<path fill="#ffffff" opacity="1.00" d=" M 37.26 38.09 C 39.63 37.25 41.06 40.71 38.89 41.89 C 36.42 42.93 34.78 39.08 37.26 38.09 Z" />
<path fill="#ffffff" opacity="1.00" d=" M 45.21 40.19 C 47.55 39.00 49.19 42.94 46.79 43.89 C 44.44 44.89 42.79 41.09 45.21 40.19 Z" />
</g>
<g id="#000000ff">
<path fill="#000000" opacity="1.00" d=" M 7.23 8.13 C 12.29 8.50 17.01 10.93 22.00 11.80 C 26.78 10.92 31.30 8.97 36.07 8.11 C 41.70 9.18 47.28 10.66 52.79 12.25 C 54.42 12.70 53.84 14.72 54.01 15.94 C 53.97 26.98 54.03 38.01 53.99 49.04 C 54.15 50.29 53.62 52.09 52.04 51.94 C 46.63 51.06 41.46 49.05 36.04 48.20 C 31.28 49.14 26.76 51.04 21.99 51.93 C 17.62 51.07 13.43 49.46 9.09 48.41 C 7.96 47.95 5.88 47.78 6.08 46.09 C 5.88 34.71 6.07 23.31 5.99 11.93 C 6.10 10.61 5.69 8.79 7.23 8.13 M 37.15 14.10 C 34.83 15.29 36.48 18.92 38.93 17.88 C 41.08 16.61 39.53 13.16 37.15 14.10 M 13.16 16.10 C 10.87 17.22 12.40 20.85 14.81 19.88 C 17.16 18.81 15.58 15.13 13.16 16.10 M 29.12 16.11 C 26.89 17.27 28.39 20.82 30.79 19.87 C 33.19 18.83 31.56 15.09 29.12 16.11 M 45.24 16.17 C 42.77 16.97 44.44 20.98 46.74 19.83 C 49.23 19.04 47.54 14.98 45.24 16.17 M 21.19 18.11 C 18.87 19.15 20.37 22.84 22.79 21.90 C 25.15 20.85 23.62 17.15 21.19 18.11 M 45.23 24.17 C 42.78 25.10 44.45 28.93 46.83 27.88 C 49.15 26.87 47.56 23.05 45.23 24.17 M 12.18 31.13 C 9.02 33.51 13.65 36.16 15.17 38.00 C 13.80 39.87 9.71 41.75 11.60 44.41 C 14.27 46.27 16.13 42.19 18.00 40.83 C 19.85 42.25 21.15 45.27 23.83 44.90 C 26.96 42.48 22.37 39.86 20.84 38.00 C 22.20 36.62 23.68 35.33 24.84 33.76 C 25.55 32.19 23.85 30.48 22.27 31.13 C 20.70 32.30 19.39 33.79 18.00 35.16 C 16.16 33.78 14.83 30.68 12.18 31.13 M 45.15 32.10 C 42.87 33.26 44.43 36.89 46.86 35.88 C 49.12 34.72 47.56 31.14 45.15 32.10 M 29.15 36.10 C 26.88 37.23 28.41 40.85 30.79 39.89 C 33.17 38.82 31.58 35.13 29.15 36.10 M 37.26 38.09 C 34.78 39.08 36.42 42.93 38.89 41.89 C 41.06 40.71 39.63 37.25 37.26 38.09 M 45.21 40.19 C 42.79 41.09 44.44 44.89 46.79 43.89 C 49.19 42.94 47.55 39.00 45.21 40.19 Z" />
</g>
</svg>
