<?xml version="1.0" encoding="UTF-8" ?>
<!DOCTYPE svg PUBLIC "-//W3C//DTD SVG 1.1//EN" "http://www.w3.org/Graphics/SVG/1.1/DTD/svg11.dtd">
<svg width="60pt" height="60pt" viewBox="0 0 60 60" version="1.1" xmlns="http://www.w3.org/2000/svg">
<g id="#ffffffff">
<path fill="#ffffff" opacity="1.00" d=" M 0.00 0.00 L 60.00 0.00 L 60.00 60.00 L 0.00 60.00 L 0.00 0.00 M 32.29 5.25 C 28.81 8.20 30.28 13.28 30.05 17.24 C 25.22 19.66 19.50 20.61 15.53 24.52 C 10.47 29.17 10.88 38.47 16.60 42.41 C 20.46 45.25 25.42 45.67 30.05 45.89 C 29.91 48.09 30.81 52.67 27.18 51.91 C 25.91 50.51 25.24 46.50 22.61 48.55 C 20.21 52.90 26.47 57.86 30.56 55.40 C 34.21 53.84 34.18 49.48 34.02 46.14 C 39.09 46.31 44.10 42.34 43.97 37.05 C 44.17 31.71 39.11 27.67 34.00 27.86 C 34.00 25.25 34.00 22.64 34.02 20.03 C 38.63 18.49 42.71 14.08 41.89 8.94 C 41.25 4.69 35.61 2.51 32.29 5.25 Z" />
<path fill="#ffffff" opacity="1.00" d=" M 34.19 9.12 C 34.95 7.17 38.34 7.93 37.96 10.08 C 38.22 12.74 35.99 14.51 34.06 15.87 C 34.06 13.63 33.81 11.35 34.19 9.12 Z" />
<path fill="#ffffff" opacity="1.00" d=" M 18.88 26.85 C 22.14 24.28 26.27 23.32 30.00 21.67 C 30.00 23.76 30.00 25.85 29.99 27.94 C 26.08 28.74 22.41 31.78 22.13 35.97 C 21.82 37.99 25.22 38.98 25.70 36.83 C 26.52 34.71 27.74 32.80 29.93 31.91 C 30.03 35.23 30.00 38.56 29.99 41.88 C 26.37 41.66 22.54 41.46 19.37 39.48 C 15.00 36.92 14.86 29.80 18.88 26.85 Z" />
<path fill="#ffffff" opacity="1.00" d=" M 34.01 31.80 C 36.97 31.82 40.17 33.77 40.00 37.07 C 40.07 40.31 36.92 42.15 34.02 42.20 C 33.99 38.73 33.99 35.27 34.01 31.80 Z" />
</g>
<g id="#000000ff">
<path fill="#000000" opacity="1.00" d=" M 32.29 5.25 C 35.61 2.51 41.25 4.69 41.89 8.94 C 42.71 14.08 38.63 18.49 34.02 20.03 C 34.00 22.64 34.00 25.25 34.00 27.86 C 39.11 27.67 44.17 31.71 43.97 37.05 C 44.10 42.34 39.09 46.31 34.02 46.14 C 34.18 49.48 34.21 53.84 30.56 55.40 C 26.47 57.86 20.21 52.90 22.61 48.55 C 25.24 46.50 25.91 50.51 27.18 51.91 C 30.81 52.67 29.91 48.09 30.05 45.89 C 25.42 45.67 20.46 45.25 16.60 42.41 C 10.88 38.47 10.47 29.17 15.53 24.52 C 19.50 20.61 25.22 19.66 30.05 17.24 C 30.28 13.28 28.81 8.20 32.29 5.25 M 34.19 9.12 C 33.81 11.35 34.06 13.63 34.06 15.87 C 35.99 14.51 38.22 12.74 37.96 10.08 C 38.34 7.93 34.95 7.17 34.19 9.12 M 18.88 26.85 C 14.86 29.80 15.00 36.92 19.37 39.48 C 22.54 41.46 26.37 41.66 29.99 41.88 C 30.00 38.56 30.03 35.23 29.93 31.91 C 27.74 32.80 26.52 34.71 25.70 36.83 C 25.22 38.98 21.82 37.99 22.13 35.97 C 22.41 31.78 26.08 28.74 29.99 27.94 C 30.00 25.85 30.00 23.76 30.00 21.67 C 26.27 23.32 22.14 24.28 18.88 26.85 M 34.01 31.80 C 33.99 35.27 33.99 38.73 34.02 42.20 C 36.92 42.15 40.07 40.31 40.00 37.07 C 40.17 33.77 36.97 31.82 34.01 31.80 Z" />
</g>
</svg>
