<?xml version="1.0" encoding="UTF-8" ?>
<!DOCTYPE svg PUBLIC "-//W3C//DTD SVG 1.1//EN" "http://www.w3.org/Graphics/SVG/1.1/DTD/svg11.dtd">
<svg width="64pt" height="64pt" viewBox="0 0 64 64" version="1.1" xmlns="http://www.w3.org/2000/svg">
<g id="#ffffffff">
<path fill="#ffffff" opacity="1.00" d=" M 0.00 0.00 L 64.00 0.00 L 64.00 64.00 L 0.00 64.00 L 0.00 0.00 M 6.00 12.00 C 6.00 13.33 6.00 14.66 6.00 15.99 C 6.50 15.99 7.50 16.01 8.00 16.01 C 8.00 20.01 8.00 24.00 8.00 28.00 C 9.33 28.00 10.67 28.00 12.00 28.00 C 12.00 24.00 12.00 20.01 12.00 16.01 C 12.50 16.01 13.50 15.99 14.00 15.99 C 14.00 14.66 14.00 13.33 14.00 12.00 C 11.33 12.00 8.67 12.00 6.00 12.00 M 16.00 11.99 C 16.00 17.33 16.00 22.66 16.00 28.00 C 17.32 28.00 18.63 28.00 19.95 28.00 C 20.03 26.02 20.10 24.04 20.17 22.06 C 20.78 24.04 21.38 26.02 21.97 28.01 C 23.32 28.01 24.66 28.00 26.01 27.99 C 25.28 25.82 24.55 23.64 23.84 21.45 C 25.53 19.61 26.86 16.84 25.30 14.48 C 23.43 11.15 19.16 12.12 16.00 11.99 M 28.00 12.00 C 28.00 17.33 28.00 22.67 28.00 28.00 C 29.33 28.00 30.67 28.00 32.00 28.00 C 32.00 22.67 32.00 17.33 32.00 12.00 C 30.67 12.00 29.33 12.00 28.00 12.00 M 38.43 12.01 C 36.99 17.36 34.45 22.45 33.86 27.99 C 35.23 28.00 36.61 28.00 37.98 28.00 C 37.99 27.50 38.01 26.50 38.02 26.00 C 39.34 26.00 40.66 26.00 41.98 26.00 C 41.99 26.50 42.01 27.50 42.02 28.00 C 43.39 28.00 44.76 28.00 46.14 27.99 C 45.55 22.45 43.01 17.36 41.57 12.01 C 40.53 12.01 39.48 12.01 38.43 12.01 M 48.00 12.00 C 48.00 17.33 48.00 22.67 48.00 28.00 C 50.67 28.00 53.33 28.00 56.00 28.00 C 56.00 26.67 56.00 25.33 56.00 24.00 C 54.67 24.00 53.33 24.00 52.00 24.00 C 52.00 20.00 52.00 16.00 52.00 12.00 C 50.67 12.00 49.33 12.00 48.00 12.00 M 10.00 32.00 C 10.00 38.67 10.00 45.33 10.00 52.00 C 11.33 52.00 12.67 52.00 14.00 52.00 C 14.00 46.67 14.00 41.33 14.00 36.00 C 19.33 36.00 24.67 36.00 30.00 36.00 C 30.00 39.03 30.00 42.06 30.00 45.09 C 29.15 44.25 28.30 43.40 27.46 42.56 C 26.50 43.52 25.53 44.48 24.56 45.44 C 27.03 47.91 29.50 50.38 32.00 52.83 C 34.52 50.40 36.99 47.93 39.46 45.44 C 38.49 44.48 37.53 43.52 36.58 42.55 C 35.72 43.41 34.86 44.26 34.00 45.12 C 34.00 42.08 34.00 39.04 34.00 36.00 C 39.33 36.00 44.67 36.00 50.00 36.00 C 50.00 41.33 50.00 46.67 50.00 52.00 C 51.33 52.00 52.67 52.00 54.00 52.00 C 54.00 45.33 54.00 38.67 54.00 32.00 C 39.33 32.00 24.67 32.00 10.00 32.00 Z" />
<path fill="#ffffff" opacity="1.00" d=" M 20.08 16.17 C 21.71 15.64 22.25 16.20 21.73 17.85 C 20.10 18.34 19.55 17.78 20.08 16.17 Z" />
</g>
<g id="#000000ff">
<path fill="#000000" opacity="1.00" d=" M 6.00 12.00 C 8.67 12.00 11.33 12.00 14.00 12.00 C 14.00 13.33 14.00 14.66 14.00 15.99 C 13.50 15.99 12.50 16.01 12.00 16.01 C 12.00 20.01 12.00 24.00 12.00 28.00 C 10.67 28.00 9.33 28.00 8.00 28.00 C 8.00 24.00 8.00 20.01 8.00 16.01 C 7.50 16.01 6.50 15.99 6.00 15.99 C 6.00 14.66 6.00 13.33 6.00 12.00 Z" />
<path fill="#000000" opacity="1.00" d=" M 16.00 11.99 C 19.16 12.12 23.43 11.15 25.30 14.48 C 26.86 16.84 25.53 19.61 23.84 21.45 C 24.55 23.64 25.28 25.82 26.01 27.99 C 24.66 28.00 23.32 28.01 21.97 28.01 C 21.38 26.02 20.78 24.04 20.17 22.06 C 20.10 24.04 20.03 26.02 19.95 28.00 C 18.63 28.00 17.32 28.00 16.00 28.00 C 16.00 22.66 16.00 17.33 16.00 11.99 M 20.08 16.17 C 19.55 17.78 20.10 18.34 21.73 17.85 C 22.25 16.20 21.71 15.64 20.08 16.17 Z" />
<path fill="#000000" opacity="1.00" d=" M 28.00 12.00 C 29.33 12.00 30.67 12.00 32.00 12.00 C 32.00 17.33 32.00 22.67 32.00 28.00 C 30.67 28.00 29.33 28.00 28.00 28.00 C 28.00 22.67 28.00 17.33 28.00 12.00 Z" />
<path fill="#000000" opacity="1.00" d=" M 38.43 12.01 C 39.48 12.01 40.53 12.01 41.57 12.01 C 43.01 17.36 45.55 22.45 46.14 27.99 C 44.76 28.00 43.39 28.00 42.02 28.00 C 42.01 27.50 41.99 26.50 41.98 26.00 C 40.66 26.00 39.34 26.00 38.02 26.00 C 38.01 26.50 37.99 27.50 37.98 28.00 C 36.61 28.00 35.23 28.00 33.86 27.99 C 34.45 22.45 36.99 17.36 38.43 12.01 Z" />
<path fill="#000000" opacity="1.00" d=" M 48.00 12.00 C 49.33 12.00 50.67 12.00 52.00 12.00 C 52.00 16.00 52.00 20.00 52.00 24.00 C 53.33 24.00 54.67 24.00 56.00 24.00 C 56.00 25.33 56.00 26.67 56.00 28.00 C 53.33 28.00 50.67 28.00 48.00 28.00 C 48.00 22.67 48.00 17.33 48.00 12.00 Z" />
<path fill="#000000" opacity="1.00" d=" M 10.00 32.00 C 24.67 32.00 39.33 32.00 54.00 32.00 C 54.00 38.67 54.00 45.33 54.00 52.00 C 52.67 52.00 51.33 52.00 50.00 52.00 C 50.00 46.67 50.00 41.33 50.00 36.00 C 44.67 36.00 39.33 36.00 34.00 36.00 C 34.00 39.04 34.00 42.08 34.00 45.12 C 34.86 44.26 35.72 43.41 36.58 42.55 C 37.53 43.52 38.49 44.48 39.46 45.44 C 36.99 47.93 34.52 50.40 32.00 52.83 C 29.50 50.38 27.03 47.91 24.56 45.44 C 25.53 44.48 26.50 43.52 27.46 42.56 C 28.30 43.40 29.15 44.25 30.00 45.09 C 30.00 42.06 30.00 39.03 30.00 36.00 C 24.67 36.00 19.33 36.00 14.00 36.00 C 14.00 41.33 14.00 46.67 14.00 52.00 C 12.67 52.00 11.33 52.00 10.00 52.00 C 10.00 45.33 10.00 38.67 10.00 32.00 Z" />
</g>
</svg>
