<?xml version="1.0" encoding="UTF-8" ?>
<!DOCTYPE svg PUBLIC "-//W3C//DTD SVG 1.1//EN" "http://www.w3.org/Graphics/SVG/1.1/DTD/svg11.dtd">
<svg width="64pt" height="64pt" viewBox="0 0 64 64" version="1.1" xmlns="http://www.w3.org/2000/svg">
<g id="#ffffffff">
<path fill="#ffffff" opacity="1.00" d=" M 0.00 0.00 L 64.00 0.00 L 64.00 64.00 L 0.00 64.00 L 0.00 0.00 M 32.00 7.98 C 32.00 9.32 32.00 10.65 32.00 11.99 C 36.18 12.05 40.42 12.04 44.50 13.08 C 42.22 13.86 39.81 14.04 37.43 14.14 C 37.81 15.57 38.19 17.00 38.57 18.44 C 31.90 20.03 25.54 23.00 20.42 27.61 C 19.58 26.40 18.73 25.19 17.87 24.01 C 19.24 24.01 20.62 24.00 22.00 24.00 C 22.00 22.66 22.00 21.33 22.00 20.00 C 17.33 20.00 12.67 20.00 8.00 20.00 C 8.00 22.00 8.00 24.00 8.00 26.00 C 9.30 26.00 10.61 26.00 11.91 26.00 C 11.97 25.37 12.09 24.10 12.15 23.46 C 14.21 25.63 15.91 28.10 17.61 30.55 C 16.26 32.31 14.94 34.09 13.67 35.91 C 9.56 35.75 5.19 37.41 3.24 41.24 C 0.20 46.41 3.12 53.73 8.84 55.45 C 14.61 57.62 21.50 53.14 21.92 47.01 C 22.52 43.16 20.17 39.77 17.42 37.36 C 22.28 29.49 30.54 24.30 39.48 22.33 C 39.65 23.00 39.98 24.34 40.15 25.01 C 34.68 27.50 30.36 32.76 30.06 38.91 C 29.13 48.17 37.80 56.87 47.07 55.95 C 56.30 55.57 63.77 46.00 61.69 36.93 C 60.27 28.89 52.13 23.18 44.09 23.96 C 43.57 21.93 43.06 19.90 42.54 17.88 C 44.36 17.11 46.72 16.71 47.61 14.69 C 48.69 12.81 47.96 10.07 45.81 9.37 C 41.42 7.75 36.60 8.20 32.00 7.98 Z" />
<path fill="#ffffff" opacity="1.00" d=" M 45.05 27.85 C 50.43 27.84 55.89 31.04 57.42 36.40 C 59.71 42.97 55.03 50.72 48.17 51.77 C 41.51 53.21 34.51 47.89 34.08 41.11 C 33.41 35.95 36.70 31.18 41.14 28.86 C 42.13 32.73 43.09 36.61 44.06 40.49 C 45.35 40.17 46.64 39.84 47.94 39.51 C 46.97 35.62 45.96 31.75 45.05 27.85 Z" />
<path fill="#ffffff" opacity="1.00" d=" M 6.09 46.96 C 5.32 43.28 8.45 40.51 11.71 39.69 C 11.12 41.67 10.50 43.65 9.92 45.64 C 11.23 45.87 12.55 46.09 13.86 46.31 C 14.46 44.48 15.12 42.68 15.79 40.88 C 18.07 43.42 18.99 47.65 16.26 50.22 C 13.12 53.70 6.58 51.66 6.09 46.96 Z" />
</g>
<g id="#000000ff">
<path fill="#000000" opacity="1.00" d=" M 32.00 7.98 C 36.60 8.20 41.42 7.75 45.81 9.37 C 47.96 10.07 48.69 12.81 47.61 14.69 C 46.72 16.71 44.36 17.11 42.54 17.88 C 43.06 19.90 43.57 21.93 44.09 23.96 C 52.13 23.18 60.27 28.89 61.69 36.93 C 63.77 46.00 56.30 55.57 47.07 55.95 C 37.80 56.87 29.13 48.17 30.06 38.91 C 30.36 32.76 34.68 27.50 40.15 25.01 C 39.98 24.34 39.65 23.00 39.48 22.33 C 30.54 24.30 22.28 29.49 17.42 37.36 C 20.17 39.77 22.52 43.16 21.92 47.01 C 21.50 53.14 14.61 57.62 8.84 55.45 C 3.12 53.73 0.20 46.41 3.24 41.24 C 5.19 37.41 9.56 35.75 13.67 35.91 C 14.94 34.09 16.26 32.31 17.61 30.55 C 15.91 28.10 14.21 25.63 12.15 23.46 C 12.09 24.10 11.97 25.37 11.91 26.00 C 10.61 26.00 9.30 26.00 8.00 26.00 C 8.00 24.00 8.00 22.00 8.00 20.00 C 12.67 20.00 17.33 20.00 22.00 20.00 C 22.00 21.33 22.00 22.66 22.00 24.00 C 20.62 24.00 19.24 24.01 17.87 24.01 C 18.73 25.19 19.58 26.40 20.42 27.61 C 25.54 23.00 31.90 20.03 38.57 18.44 C 38.19 17.00 37.81 15.57 37.43 14.14 C 39.81 14.04 42.22 13.86 44.50 13.08 C 40.42 12.04 36.18 12.05 32.00 11.99 C 32.00 10.65 32.00 9.32 32.00 7.98 M 45.05 27.85 C 45.96 31.75 46.97 35.62 47.94 39.51 C 46.64 39.84 45.35 40.17 44.06 40.49 C 43.09 36.61 42.13 32.73 41.14 28.86 C 36.70 31.18 33.41 35.95 34.08 41.11 C 34.51 47.89 41.51 53.21 48.17 51.77 C 55.03 50.72 59.71 42.97 57.42 36.40 C 55.89 31.04 50.43 27.84 45.05 27.85 M 6.09 46.96 C 6.58 51.66 13.12 53.70 16.26 50.22 C 18.99 47.65 18.07 43.42 15.79 40.88 C 15.12 42.68 14.46 44.48 13.86 46.31 C 12.55 46.09 11.23 45.87 9.92 45.64 C 10.50 43.65 11.12 41.67 11.71 39.69 C 8.45 40.51 5.32 43.28 6.09 46.96 Z" />
</g>
</svg>
