<?xml version="1.0" encoding="UTF-8" ?>
<!DOCTYPE svg PUBLIC "-//W3C//DTD SVG 1.1//EN" "http://www.w3.org/Graphics/SVG/1.1/DTD/svg11.dtd">
<svg width="64pt" height="64pt" viewBox="0 0 64 64" version="1.1" xmlns="http://www.w3.org/2000/svg">
<g id="#ffffffff">
<path fill="#ffffff" opacity="1.00" d=" M 0.00 0.00 L 64.00 0.00 L 64.00 64.00 L 0.00 64.00 L 0.00 0.00 M 16.00 8.00 C 16.01 11.99 15.99 15.97 16.00 19.96 C 14.02 20.02 11.99 19.87 10.04 20.32 C 6.96 21.23 5.38 24.84 6.23 27.83 C 7.13 31.84 10.54 34.44 12.36 37.97 C 11.77 37.98 10.59 38.01 10.00 38.02 C 10.00 39.35 10.00 40.67 10.00 42.00 C 22.67 42.00 35.33 42.00 48.00 42.00 C 48.00 40.67 48.00 39.34 48.00 38.01 C 47.50 38.00 46.50 38.00 46.00 37.99 C 46.04 33.17 45.90 28.34 46.11 23.52 C 48.69 24.71 47.92 27.79 48.38 30.06 C 49.08 36.99 52.44 43.26 53.95 49.98 C 53.85 50.39 53.65 51.22 53.55 51.63 C 51.09 52.28 48.51 51.96 46.00 52.00 C 46.00 49.33 46.00 46.67 46.00 44.00 C 44.67 43.99 43.33 43.99 42.00 44.00 C 42.00 46.67 42.00 49.33 42.00 52.00 C 33.33 52.00 24.67 52.00 16.00 52.00 C 16.00 49.33 16.00 46.67 16.00 44.00 C 14.67 43.99 13.33 43.99 12.00 44.00 C 12.00 48.00 12.00 52.00 12.00 56.00 C 25.38 55.95 38.76 56.08 52.14 55.95 C 56.18 56.13 59.04 51.60 57.66 47.94 C 55.86 41.68 52.96 35.69 52.30 29.14 C 51.87 26.64 52.24 23.66 50.29 21.71 C 48.17 19.41 44.78 20.12 42.00 19.97 C 42.01 15.98 41.99 11.99 42.00 8.00 C 33.33 8.00 24.67 8.00 16.00 8.00 Z" />
<path fill="#ffffff" opacity="1.00" d=" M 20.00 12.00 C 26.00 12.00 32.00 12.00 38.00 12.00 C 38.00 14.67 38.00 17.33 38.00 20.00 C 32.00 20.00 26.00 20.00 20.00 20.00 C 20.00 17.33 20.00 14.67 20.00 12.00 M 22.00 14.00 C 21.99 15.33 21.99 16.67 22.00 18.00 C 24.67 18.00 27.33 18.00 30.00 18.00 C 30.00 16.67 30.00 15.33 30.00 14.00 C 27.33 14.00 24.67 14.00 22.00 14.00 M 33.27 14.14 C 30.78 14.97 32.38 18.90 34.72 17.85 C 37.21 17.04 35.61 13.09 33.27 14.14 Z" />
<path fill="#ffffff" opacity="1.00" d=" M 11.90 30.42 C 10.78 28.30 8.48 24.83 11.96 23.62 C 12.01 25.88 11.99 28.15 11.90 30.42 Z" />
<path fill="#ffffff" opacity="1.00" d=" M 16.00 24.00 C 24.67 24.00 33.33 24.00 42.00 24.00 C 42.00 28.67 42.00 33.33 42.00 38.00 C 33.33 38.00 24.67 38.00 16.00 38.00 C 16.00 33.33 16.00 28.67 16.00 24.00 M 20.00 26.00 C 20.00 28.67 20.00 31.33 20.00 34.00 C 21.33 34.00 22.67 34.00 24.00 34.00 C 24.00 31.33 24.00 28.67 24.00 26.00 C 22.67 25.99 21.33 26.00 20.00 26.00 M 26.00 26.00 C 26.00 28.67 26.00 31.33 26.00 34.00 C 27.33 34.00 28.67 34.00 30.00 34.00 C 30.00 31.33 30.00 28.67 30.00 26.00 C 28.67 25.99 27.33 25.99 26.00 26.00 M 34.38 26.35 C 29.57 28.18 33.04 35.99 37.61 33.62 C 42.39 31.76 38.97 24.06 34.38 26.35 Z" />
</g>
<g id="#000000ff">
<path fill="#000000" opacity="1.00" d=" M 16.00 8.00 C 24.67 8.00 33.33 8.00 42.00 8.00 C 41.99 11.99 42.01 15.98 42.00 19.97 C 44.78 20.12 48.17 19.41 50.29 21.71 C 52.24 23.66 51.87 26.64 52.30 29.14 C 52.96 35.69 55.86 41.68 57.66 47.94 C 59.04 51.60 56.18 56.13 52.14 55.95 C 38.76 56.08 25.38 55.95 12.00 56.00 C 12.00 52.00 12.00 48.00 12.00 44.00 C 13.33 43.99 14.67 43.99 16.00 44.00 C 16.00 46.67 16.00 49.33 16.00 52.00 C 24.67 52.00 33.33 52.00 42.00 52.00 C 42.00 49.33 42.00 46.67 42.00 44.00 C 43.33 43.99 44.67 43.99 46.00 44.00 C 46.00 46.67 46.00 49.33 46.00 52.00 C 48.51 51.96 51.09 52.28 53.55 51.63 C 53.65 51.22 53.85 50.39 53.95 49.98 C 52.44 43.26 49.08 36.99 48.38 30.06 C 47.92 27.79 48.69 24.71 46.11 23.52 C 45.90 28.34 46.04 33.17 46.00 37.99 C 46.50 38.00 47.50 38.00 48.00 38.01 C 48.00 39.34 48.00 40.67 48.00 42.00 C 35.33 42.00 22.67 42.00 10.00 42.00 C 10.00 40.67 10.00 39.35 10.00 38.02 C 10.59 38.01 11.77 37.98 12.36 37.97 C 10.54 34.44 7.13 31.84 6.23 27.83 C 5.38 24.84 6.96 21.23 10.04 20.32 C 11.99 19.87 14.02 20.02 16.00 19.96 C 15.99 15.97 16.01 11.99 16.00 8.00 M 20.00 12.00 C 20.00 14.67 20.00 17.33 20.00 20.00 C 26.00 20.00 32.00 20.00 38.00 20.00 C 38.00 17.33 38.00 14.67 38.00 12.00 C 32.00 12.00 26.00 12.00 20.00 12.00 M 11.90 30.42 C 11.99 28.15 12.01 25.88 11.96 23.62 C 8.48 24.83 10.78 28.30 11.90 30.42 M 16.00 24.00 C 16.00 28.67 16.00 33.33 16.00 38.00 C 24.67 38.00 33.33 38.00 42.00 38.00 C 42.00 33.33 42.00 28.67 42.00 24.00 C 33.33 24.00 24.67 24.00 16.00 24.00 Z" />
<path fill="#000000" opacity="1.00" d=" M 22.00 14.00 C 24.67 14.00 27.33 14.00 30.00 14.00 C 30.00 15.33 30.00 16.67 30.00 18.00 C 27.33 18.00 24.67 18.00 22.00 18.00 C 21.99 16.67 21.99 15.33 22.00 14.00 Z" />
<path fill="#000000" opacity="1.00" d=" M 33.27 14.14 C 35.61 13.09 37.21 17.04 34.72 17.85 C 32.38 18.90 30.78 14.97 33.27 14.14 Z" />
<path fill="#000000" opacity="1.00" d=" M 20.00 26.00 C 21.33 26.00 22.67 25.99 24.00 26.00 C 24.00 28.67 24.00 31.33 24.00 34.00 C 22.67 34.00 21.33 34.00 20.00 34.00 C 20.00 31.33 20.00 28.67 20.00 26.00 Z" />
<path fill="#000000" opacity="1.00" d=" M 26.00 26.00 C 27.33 25.99 28.67 25.99 30.00 26.00 C 30.00 28.67 30.00 31.33 30.00 34.00 C 28.67 34.00 27.33 34.00 26.00 34.00 C 26.00 31.33 26.00 28.67 26.00 26.00 Z" />
<path fill="#000000" opacity="1.00" d=" M 34.38 26.35 C 38.97 24.06 42.39 31.76 37.61 33.62 C 33.04 35.99 29.57 28.18 34.38 26.35 Z" />
</g>
</svg>
