<?xml version="1.0" encoding="UTF-8" ?>
<!DOCTYPE svg PUBLIC "-//W3C//DTD SVG 1.1//EN" "http://www.w3.org/Graphics/SVG/1.1/DTD/svg11.dtd">
<svg width="64pt" height="64pt" viewBox="0 0 64 64" version="1.1" xmlns="http://www.w3.org/2000/svg">
<g id="#ffffffff">
<path fill="#ffffff" opacity="1.00" d=" M 0.00 0.00 L 64.00 0.00 L 64.00 64.00 L 0.00 64.00 L 0.00 0.00 M 21.92 8.68 C 24.58 11.60 27.52 14.26 30.28 17.09 C 25.10 19.42 19.69 21.18 14.40 23.24 C 18.30 27.13 22.25 30.98 26.06 34.96 C 24.08 35.96 22.09 36.94 20.12 37.97 C 25.38 39.41 30.70 40.65 35.99 42.00 C 34.62 36.73 33.49 31.39 31.93 26.17 C 30.93 28.11 29.96 30.07 28.99 32.03 C 26.52 29.67 23.91 27.39 21.84 24.66 C 27.12 22.77 32.36 20.77 37.62 18.81 C 33.39 14.46 29.01 10.26 24.74 5.95 C 23.80 6.86 22.86 7.77 21.92 8.68 M 43.02 39.61 C 41.29 41.31 40.17 43.47 39.89 45.89 C 37.47 46.17 35.30 47.29 33.60 49.02 C 29.62 46.39 24.07 49.21 23.85 53.97 C 25.14 53.99 26.43 53.99 27.72 53.99 C 28.47 51.48 31.53 51.49 32.28 53.98 C 33.46 53.99 34.64 54.00 35.81 54.00 C 36.22 50.42 40.30 48.98 43.10 51.01 C 43.74 50.32 44.38 49.63 45.03 48.94 C 42.91 46.15 44.52 42.26 48.00 41.79 C 48.00 40.62 47.99 39.45 47.98 38.28 C 45.48 37.53 45.48 34.45 47.99 33.72 C 47.99 32.43 47.99 31.14 47.97 29.85 C 43.21 30.07 40.39 35.62 43.02 39.61 Z" />
</g>
<g id="#000000ff">
<path fill="#000000" opacity="1.00" d=" M 21.92 8.68 C 22.86 7.77 23.80 6.86 24.74 5.95 C 29.01 10.26 33.39 14.46 37.62 18.81 C 32.36 20.77 27.12 22.77 21.84 24.66 C 23.91 27.39 26.52 29.67 28.99 32.03 C 29.96 30.07 30.93 28.11 31.93 26.17 C 33.49 31.39 34.62 36.73 35.99 42.00 C 30.70 40.65 25.38 39.41 20.12 37.97 C 22.09 36.94 24.08 35.96 26.06 34.96 C 22.25 30.98 18.30 27.13 14.40 23.24 C 19.69 21.18 25.10 19.42 30.28 17.09 C 27.52 14.26 24.58 11.60 21.92 8.68 Z" />
<path fill="#000000" opacity="1.00" d=" M 43.02 39.61 C 40.39 35.62 43.21 30.07 47.97 29.85 C 47.99 31.14 47.99 32.43 47.99 33.72 C 45.48 34.45 45.48 37.53 47.98 38.28 C 47.99 39.45 48.00 40.62 48.00 41.79 C 44.52 42.26 42.91 46.15 45.03 48.94 C 44.38 49.63 43.74 50.32 43.10 51.01 C 40.30 48.98 36.22 50.42 35.81 54.00 C 34.64 54.00 33.46 53.99 32.28 53.98 C 31.53 51.49 28.47 51.48 27.72 53.99 C 26.43 53.99 25.14 53.99 23.85 53.97 C 24.07 49.21 29.62 46.39 33.60 49.02 C 35.30 47.29 37.47 46.17 39.89 45.89 C 40.17 43.47 41.29 41.31 43.02 39.61 Z" />
</g>
</svg>
