<?xml version="1.0" encoding="UTF-8" ?>
<!DOCTYPE svg PUBLIC "-//W3C//DTD SVG 1.1//EN" "http://www.w3.org/Graphics/SVG/1.1/DTD/svg11.dtd">
<svg width="60pt" height="60pt" viewBox="0 0 60 60" version="1.1" xmlns="http://www.w3.org/2000/svg">
<g id="#ffffffff">
<path fill="#ffffff" opacity="1.00" d=" M 0.00 0.00 L 60.00 0.00 L 60.00 60.00 L 0.00 60.00 L 0.00 0.00 M 18.16 8.78 C 20.17 11.29 22.67 13.35 24.86 15.69 C 21.33 18.24 17.40 20.26 14.13 23.15 C 13.61 24.82 15.13 25.90 16.10 26.96 C 18.92 29.71 21.68 32.52 24.47 35.30 C 22.98 36.52 21.44 37.71 20.16 39.17 C 19.65 40.46 20.51 42.06 21.99 41.93 C 25.62 42.06 29.28 42.18 32.90 41.81 C 33.13 41.57 33.59 41.08 33.82 40.84 C 34.14 36.96 34.16 33.02 33.81 29.13 C 31.40 26.02 28.84 30.80 27.29 32.48 C 24.57 29.74 21.86 27.01 19.13 24.29 C 22.70 21.81 26.62 19.78 29.87 16.87 C 29.86 16.46 29.84 15.64 29.83 15.23 C 27.26 12.14 24.25 9.41 21.37 6.62 C 19.91 5.01 17.19 6.78 18.16 8.78 M 45.16 30.12 C 42.58 31.94 41.30 35.39 42.55 38.39 C 39.51 39.70 37.89 42.74 37.98 45.98 C 34.76 45.91 31.70 47.49 30.40 50.54 C 27.33 49.19 21.80 50.92 22.14 54.78 C 23.63 57.46 26.08 54.53 27.99 54.01 C 29.83 54.35 31.55 56.95 33.41 55.48 C 34.44 53.99 33.65 51.58 35.35 50.50 C 37.54 48.93 40.30 51.88 42.43 50.40 C 43.90 48.23 40.87 45.48 42.53 43.31 C 43.63 41.61 46.06 42.47 47.49 41.38 C 48.92 39.50 46.33 37.81 46.00 35.96 C 46.58 34.59 47.40 33.35 48.02 32.01 C 48.05 30.48 46.52 29.61 45.16 30.12 Z" />
</g>
<g id="#000000ff">
<path fill="#000000" opacity="1.00" d=" M 18.16 8.78 C 17.19 6.78 19.91 5.01 21.37 6.62 C 24.25 9.41 27.26 12.14 29.83 15.23 C 29.84 15.64 29.86 16.46 29.87 16.87 C 26.62 19.78 22.70 21.81 19.13 24.29 C 21.86 27.01 24.57 29.74 27.29 32.48 C 28.84 30.80 31.40 26.02 33.81 29.13 C 34.16 33.02 34.14 36.96 33.82 40.84 C 33.59 41.08 33.13 41.57 32.90 41.81 C 29.28 42.18 25.62 42.06 21.99 41.93 C 20.51 42.06 19.65 40.46 20.16 39.17 C 21.44 37.71 22.98 36.52 24.47 35.30 C 21.68 32.52 18.92 29.71 16.10 26.96 C 15.13 25.90 13.61 24.82 14.13 23.15 C 17.40 20.26 21.33 18.24 24.86 15.69 C 22.67 13.35 20.17 11.29 18.16 8.78 Z" />
<path fill="#000000" opacity="1.00" d=" M 45.16 30.12 C 46.52 29.61 48.05 30.48 48.02 32.01 C 47.40 33.35 46.58 34.59 46.00 35.96 C 46.33 37.81 48.92 39.50 47.49 41.38 C 46.06 42.47 43.63 41.61 42.53 43.31 C 40.87 45.48 43.90 48.23 42.43 50.40 C 40.30 51.88 37.54 48.93 35.35 50.50 C 33.65 51.58 34.44 53.99 33.41 55.48 C 31.55 56.95 29.83 54.35 27.99 54.01 C 26.08 54.53 23.63 57.46 22.14 54.78 C 21.80 50.92 27.33 49.19 30.40 50.54 C 31.70 47.49 34.76 45.91 37.98 45.98 C 37.89 42.74 39.51 39.70 42.55 38.39 C 41.30 35.39 42.58 31.94 45.16 30.12 Z" />
</g>
</svg>
