<?xml version="1.0" encoding="UTF-8" ?>
<!DOCTYPE svg PUBLIC "-//W3C//DTD SVG 1.1//EN" "http://www.w3.org/Graphics/SVG/1.1/DTD/svg11.dtd">
<svg width="64pt" height="64pt" viewBox="0 0 64 64" version="1.1" xmlns="http://www.w3.org/2000/svg">
<g id="#ffffffff">
<path fill="#ffffff" opacity="1.00" d=" M 0.00 0.00 L 64.00 0.00 L 64.00 64.00 L 0.00 64.00 L 0.00 0.00 M 26.30 8.40 C 22.34 10.80 24.56 16.23 24.01 20.00 C 19.17 20.28 14.16 19.35 9.44 20.57 C 5.14 22.47 6.05 27.74 5.96 31.54 C 2.02 35.62 0.72 42.16 3.61 47.19 C 6.77 53.33 15.19 55.86 21.19 52.38 C 26.34 49.72 28.76 43.58 27.81 38.00 C 30.60 38.00 33.40 38.00 36.19 38.00 C 35.74 41.85 36.27 46.03 38.87 49.08 C 43.35 55.02 53.02 55.61 58.14 50.17 C 63.35 45.27 63.02 36.47 58.02 31.53 C 57.86 28.48 58.39 25.32 57.62 22.34 C 55.59 18.52 50.53 20.45 47.08 20.00 C 44.19 16.31 42.46 11.39 38.33 8.86 C 34.54 7.50 30.20 7.77 26.30 8.40 Z" />
<path fill="#ffffff" opacity="1.00" d=" M 28.00 12.00 C 30.87 12.14 33.88 11.57 36.65 12.46 C 39.11 14.44 40.42 17.48 42.26 20.00 C 37.50 20.00 32.75 20.00 28.00 20.00 C 28.00 17.33 28.00 14.67 28.00 12.00 Z" />
<path fill="#ffffff" opacity="1.00" d=" M 9.87 28.89 C 10.15 27.23 9.46 24.03 12.02 24.06 C 26.01 23.91 40.00 24.05 54.00 24.00 C 54.00 25.63 54.00 27.25 54.01 28.88 C 48.17 26.69 41.42 28.82 37.93 33.98 C 33.98 34.01 30.02 34.01 26.07 33.98 C 22.55 28.77 15.75 26.71 9.87 28.89 Z" />
<path fill="#ffffff" opacity="1.00" d=" M 7.03 36.63 C 10.17 35.53 11.49 31.54 15.24 31.93 C 16.71 33.98 19.50 33.19 21.27 34.60 C 23.71 36.34 21.93 39.82 23.97 41.88 C 23.65 43.06 23.32 44.23 22.97 45.39 C 21.19 46.18 19.43 47.17 18.78 49.14 C 17.48 49.51 16.17 49.82 14.84 50.08 C 12.68 47.76 8.86 48.85 7.24 45.77 C 7.42 43.78 7.36 41.72 6.03 40.09 C 6.34 38.93 6.68 37.77 7.03 36.63 M 13.38 38.48 C 11.30 39.69 11.74 43.31 14.15 43.82 C 16.26 44.68 18.68 42.24 17.82 40.14 C 17.40 38.26 14.94 37.43 13.38 38.48 Z" />
<path fill="#ffffff" opacity="1.00" d=" M 48.76 31.92 C 52.50 31.55 53.83 35.53 56.96 36.62 C 57.32 37.80 57.66 38.98 57.99 40.17 C 56.58 41.74 56.59 43.80 56.76 45.76 C 55.13 48.84 51.32 47.78 49.16 50.08 C 47.83 49.82 46.52 49.51 45.22 49.14 C 44.57 47.17 42.80 46.18 41.03 45.39 C 40.67 44.20 40.32 43.01 40.01 41.81 C 41.96 40.01 40.51 37.05 42.14 35.20 C 43.74 32.96 47.13 34.25 48.76 31.92 M 47.41 38.47 C 45.60 39.52 45.59 42.44 47.38 43.51 C 48.93 44.57 51.39 43.74 51.82 41.87 C 52.82 39.39 49.57 36.94 47.41 38.47 Z" />
</g>
<g id="#000000ff">
<path fill="#000000" opacity="1.00" d=" M 26.30 8.40 C 30.20 7.77 34.54 7.50 38.33 8.86 C 42.46 11.39 44.19 16.31 47.08 20.00 C 50.53 20.45 55.59 18.52 57.62 22.34 C 58.39 25.32 57.86 28.48 58.02 31.53 C 63.02 36.47 63.35 45.27 58.14 50.17 C 53.02 55.61 43.35 55.02 38.87 49.08 C 36.27 46.03 35.74 41.85 36.19 38.00 C 33.40 38.00 30.60 38.00 27.81 38.00 C 28.76 43.58 26.34 49.72 21.19 52.38 C 15.19 55.86 6.77 53.33 3.61 47.19 C 0.72 42.16 2.02 35.62 5.96 31.54 C 6.05 27.74 5.14 22.47 9.44 20.57 C 14.16 19.35 19.17 20.28 24.01 20.00 C 24.56 16.23 22.34 10.80 26.30 8.40 M 28.00 12.00 C 28.00 14.67 28.00 17.33 28.00 20.00 C 32.75 20.00 37.50 20.00 42.26 20.00 C 40.42 17.48 39.11 14.44 36.65 12.46 C 33.88 11.57 30.87 12.14 28.00 12.00 M 9.87 28.89 C 15.75 26.71 22.55 28.77 26.07 33.98 C 30.02 34.01 33.98 34.01 37.93 33.98 C 41.42 28.82 48.17 26.69 54.01 28.88 C 54.00 27.25 54.00 25.63 54.00 24.00 C 40.00 24.05 26.01 23.91 12.02 24.06 C 9.46 24.03 10.15 27.23 9.87 28.89 M 7.03 36.63 C 6.68 37.77 6.34 38.93 6.03 40.09 C 7.36 41.72 7.42 43.78 7.24 45.77 C 8.86 48.85 12.68 47.76 14.84 50.08 C 16.17 49.82 17.48 49.51 18.78 49.14 C 19.43 47.17 21.19 46.18 22.97 45.39 C 23.32 44.23 23.65 43.06 23.97 41.88 C 21.93 39.82 23.71 36.34 21.27 34.60 C 19.50 33.19 16.71 33.98 15.24 31.93 C 11.49 31.54 10.17 35.53 7.03 36.63 M 48.76 31.92 C 47.13 34.25 43.74 32.96 42.14 35.20 C 40.51 37.05 41.96 40.01 40.01 41.81 C 40.32 43.01 40.67 44.20 41.03 45.39 C 42.80 46.18 44.57 47.17 45.22 49.14 C 46.52 49.51 47.83 49.82 49.16 50.08 C 51.32 47.78 55.13 48.84 56.76 45.76 C 56.59 43.80 56.58 41.74 57.99 40.17 C 57.66 38.98 57.32 37.80 56.96 36.62 C 53.83 35.53 52.50 31.55 48.76 31.92 Z" />
<path fill="#000000" opacity="1.00" d=" M 13.38 38.48 C 14.94 37.43 17.40 38.26 17.82 40.14 C 18.68 42.24 16.26 44.68 14.15 43.82 C 11.74 43.31 11.30 39.69 13.38 38.48 Z" />
<path fill="#000000" opacity="1.00" d=" M 47.41 38.47 C 49.57 36.94 52.82 39.39 51.82 41.87 C 51.39 43.74 48.93 44.57 47.38 43.51 C 45.59 42.44 45.60 39.52 47.41 38.47 Z" />
</g>
</svg>
