<?xml version="1.0" encoding="UTF-8" ?>
<!DOCTYPE svg PUBLIC "-//W3C//DTD SVG 1.1//EN" "http://www.w3.org/Graphics/SVG/1.1/DTD/svg11.dtd">
<svg width="64pt" height="64pt" viewBox="0 0 64 64" version="1.1" xmlns="http://www.w3.org/2000/svg">
<g id="#ffffffff">
<path fill="#ffffff" opacity="1.00" d=" M 0.00 0.00 L 64.00 0.00 L 64.00 64.00 L 0.00 64.00 L 0.00 0.00 M 13.09 10.00 C 11.22 13.01 11.98 16.87 14.11 19.52 C 11.98 21.42 10.57 24.03 10.30 26.89 C 9.40 34.59 8.63 42.30 7.77 50.00 C 9.84 49.99 11.92 50.00 14.00 50.00 C 14.00 52.67 14.00 55.33 14.00 58.00 C 15.33 58.00 16.67 58.00 18.00 58.00 C 18.00 55.33 18.00 52.67 18.00 50.00 C 19.33 50.00 20.67 50.00 22.00 50.00 C 22.00 52.67 22.00 55.33 22.00 58.00 C 23.33 58.00 24.67 58.00 26.00 58.00 C 26.00 55.33 26.00 52.67 26.00 50.00 C 28.07 50.00 30.14 49.99 32.21 50.00 C 31.47 42.60 30.73 35.20 29.99 27.80 C 28.66 27.93 27.34 28.07 26.02 28.19 C 26.60 34.13 27.21 40.06 27.79 46.00 C 22.60 46.00 17.42 46.00 12.23 46.00 C 12.97 39.64 13.52 33.25 14.36 26.90 C 14.60 24.51 16.32 22.05 18.93 22.09 C 25.28 21.86 31.65 22.07 38.00 22.00 C 38.00 20.67 38.00 19.33 38.00 18.00 C 34.30 18.00 30.60 17.99 26.89 18.02 C 28.71 14.65 28.13 10.15 24.98 7.78 C 21.40 4.70 15.32 5.85 13.09 10.00 M 42.03 17.79 C 42.02 19.07 42.02 20.36 42.02 21.65 C 43.84 22.45 44.15 24.19 44.12 25.99 C 40.75 26.00 37.37 26.00 34.00 26.00 C 34.00 27.33 34.00 28.67 34.00 30.00 C 35.33 30.00 36.67 30.00 38.00 30.00 C 38.00 36.67 38.00 43.33 38.00 50.00 C 43.33 50.00 48.67 50.00 54.00 50.00 C 54.00 43.33 54.00 36.67 54.00 30.00 C 55.33 30.00 56.67 30.00 58.00 30.00 C 58.00 28.67 58.00 27.33 58.00 26.00 C 54.70 26.00 51.40 26.00 48.11 26.00 C 48.61 22.06 46.12 18.21 42.03 17.79 Z" />
<path fill="#ffffff" opacity="1.00" d=" M 18.28 10.37 C 20.81 9.05 24.14 11.19 24.01 14.03 C 24.12 17.14 20.14 19.18 17.68 17.27 C 15.21 15.69 15.57 11.50 18.28 10.37 Z" />
<path fill="#ffffff" opacity="1.00" d=" M 42.00 30.00 C 44.67 30.00 47.33 30.00 50.00 30.00 C 50.00 35.33 50.00 40.67 50.00 46.00 C 47.33 46.00 44.67 46.00 42.00 46.00 C 42.00 40.67 42.00 35.33 42.00 30.00 Z" />
</g>
<g id="#000000ff">
<path fill="#000000" opacity="1.00" d=" M 13.09 10.00 C 15.32 5.85 21.40 4.70 24.98 7.78 C 28.13 10.15 28.71 14.65 26.89 18.02 C 30.60 17.99 34.30 18.00 38.00 18.00 C 38.00 19.33 38.00 20.67 38.00 22.00 C 31.65 22.07 25.28 21.86 18.93 22.09 C 16.32 22.05 14.60 24.51 14.36 26.90 C 13.52 33.25 12.97 39.64 12.23 46.00 C 17.42 46.00 22.60 46.00 27.79 46.00 C 27.21 40.06 26.60 34.13 26.02 28.19 C 27.34 28.07 28.66 27.93 29.99 27.80 C 30.73 35.20 31.47 42.60 32.21 50.00 C 30.14 49.99 28.07 50.00 26.00 50.00 C 26.00 52.67 26.00 55.33 26.00 58.00 C 24.67 58.00 23.33 58.00 22.00 58.00 C 22.00 55.33 22.00 52.67 22.00 50.00 C 20.67 50.00 19.33 50.00 18.00 50.00 C 18.00 52.67 18.00 55.33 18.00 58.00 C 16.67 58.00 15.33 58.00 14.00 58.00 C 14.00 55.33 14.00 52.67 14.00 50.00 C 11.92 50.00 9.84 49.99 7.77 50.00 C 8.63 42.30 9.40 34.59 10.30 26.89 C 10.57 24.03 11.98 21.42 14.11 19.52 C 11.98 16.87 11.22 13.01 13.09 10.00 M 18.28 10.37 C 15.57 11.50 15.21 15.69 17.68 17.27 C 20.14 19.18 24.12 17.14 24.01 14.03 C 24.14 11.19 20.81 9.05 18.28 10.37 Z" />
<path fill="#000000" opacity="1.00" d=" M 42.03 17.79 C 46.12 18.21 48.61 22.06 48.11 26.00 C 51.40 26.00 54.70 26.00 58.00 26.00 C 58.00 27.33 58.00 28.67 58.00 30.00 C 56.67 30.00 55.33 30.00 54.00 30.00 C 54.00 36.67 54.00 43.33 54.00 50.00 C 48.67 50.00 43.33 50.00 38.00 50.00 C 38.00 43.33 38.00 36.67 38.00 30.00 C 36.67 30.00 35.33 30.00 34.00 30.00 C 34.00 28.67 34.00 27.33 34.00 26.00 C 37.37 26.00 40.75 26.00 44.12 25.99 C 44.15 24.19 43.84 22.45 42.02 21.65 C 42.02 20.36 42.02 19.07 42.03 17.79 M 42.00 30.00 C 42.00 35.33 42.00 40.67 42.00 46.00 C 44.67 46.00 47.33 46.00 50.00 46.00 C 50.00 40.67 50.00 35.33 50.00 30.00 C 47.33 30.00 44.67 30.00 42.00 30.00 Z" />
</g>
</svg>
