<?xml version="1.0" encoding="UTF-8" ?>
<!DOCTYPE svg PUBLIC "-//W3C//DTD SVG 1.1//EN" "http://www.w3.org/Graphics/SVG/1.1/DTD/svg11.dtd">
<svg width="64pt" height="64pt" viewBox="0 0 64 64" version="1.1" xmlns="http://www.w3.org/2000/svg">
<g id="#ffffffff">
<path fill="#ffffff" opacity="1.00" d=" M 0.00 0.00 L 25.36 0.00 C 19.90 0.39 14.90 3.25 11.22 7.21 C 4.83 14.06 1.29 23.17 0.01 32.37 C 1.30 32.54 2.60 32.72 3.89 32.90 C 5.45 23.51 9.11 13.86 16.64 7.63 C 21.12 3.75 27.99 2.82 33.20 5.76 C 36.11 7.35 37.46 12.22 34.28 14.25 C 31.59 15.92 29.10 13.29 26.83 12.14 C 25.16 12.79 23.66 13.82 21.98 14.44 C 20.43 13.95 19.14 12.95 17.80 12.08 C 16.79 12.93 15.77 13.78 14.76 14.64 C 16.84 16.38 19.18 17.80 21.78 18.61 C 22.83 30.28 30.52 41.10 41.43 45.51 C 48.52 48.72 56.45 47.93 64.00 47.99 L 64.00 54.03 C 62.87 54.03 61.73 54.04 60.60 54.06 C 57.90 56.45 54.09 56.42 51.39 54.05 C 50.46 54.05 49.53 54.04 48.61 54.05 C 45.91 56.44 42.09 56.44 39.39 54.05 C 38.46 54.05 37.53 54.05 36.60 54.05 C 33.91 56.45 30.09 56.42 27.39 54.05 C 26.46 54.04 25.54 54.04 24.61 54.05 C 21.91 56.44 18.10 56.43 15.39 54.05 C 14.46 54.05 13.54 54.05 12.61 54.05 C 9.92 56.44 6.11 56.43 3.41 54.07 C 2.27 54.04 1.14 54.02 -0.00 54.00 L 0.00 0.00 M 13.44 21.29 C 13.53 31.79 18.97 41.86 27.58 47.82 C 28.33 46.72 29.08 45.61 29.82 44.50 C 22.26 39.28 17.53 30.45 17.43 21.25 C 16.43 21.26 14.44 21.28 13.44 21.29 Z" />
<path fill="#ffffff" opacity="1.00" d=" M 26.64 0.00 L 64.00 0.00 L 64.00 14.58 C 60.72 12.78 57.33 11.20 54.00 9.52 C 50.68 11.18 47.36 12.84 44.02 14.48 C 43.95 23.78 44.06 33.07 43.96 42.36 C 33.56 38.21 25.99 27.97 25.67 16.69 C 28.47 17.84 31.50 19.59 34.61 18.48 C 39.09 17.15 41.41 11.60 39.48 7.40 C 37.42 2.36 31.71 0.24 26.64 0.00 Z" />
<path fill="#ffffff" opacity="1.00" d=" M 48.00 16.98 C 50.00 15.98 52.00 14.98 54.00 13.99 C 56.00 14.98 58.00 15.98 60.00 16.98 C 60.00 25.99 60.00 35.00 60.00 44.00 C 56.01 44.05 52.00 44.04 48.04 43.50 C 47.96 34.66 48.02 25.82 48.00 16.98 M 52.00 20.00 C 52.00 21.33 52.00 22.67 52.00 24.00 C 53.33 24.00 54.67 24.00 56.00 24.00 C 56.00 22.67 56.00 21.33 56.00 20.00 C 54.67 20.00 53.33 20.00 52.00 20.00 M 52.00 28.00 C 52.00 29.33 52.00 30.67 52.00 32.00 C 53.33 32.00 54.67 32.00 56.00 32.00 C 56.00 30.67 56.00 29.33 56.00 28.00 C 54.67 28.00 53.33 28.00 52.00 28.00 M 52.00 36.00 C 52.00 37.33 52.00 38.67 52.00 40.00 C 53.33 40.00 54.67 40.00 56.00 40.00 C 56.00 38.67 56.00 37.33 56.00 36.00 C 54.67 36.00 53.33 36.00 52.00 36.00 Z" />
<path fill="#ffffff" opacity="1.00" d=" M 0.00 55.00 C 2.19 60.57 9.44 61.06 14.00 58.22 C 17.73 60.43 22.26 60.43 26.00 58.22 C 29.73 60.43 34.27 60.43 38.00 58.22 C 41.73 60.43 46.27 60.43 49.99 58.22 C 54.56 61.07 61.76 60.56 64.00 55.02 L 64.00 64.00 L 0.00 64.00 L 0.00 55.00 Z" />
</g>
<g id="#000000ff">
<path fill="#000000" opacity="1.00" d=" M 25.36 0.00 L 26.64 0.00 C 31.71 0.24 37.42 2.36 39.48 7.40 C 41.41 11.60 39.09 17.15 34.61 18.48 C 31.50 19.59 28.47 17.84 25.67 16.69 C 25.99 27.97 33.56 38.21 43.96 42.36 C 44.06 33.07 43.95 23.78 44.02 14.48 C 47.36 12.84 50.68 11.18 54.00 9.52 C 57.33 11.20 60.72 12.78 64.00 14.58 L 64.00 47.99 C 56.45 47.93 48.52 48.72 41.43 45.51 C 30.52 41.10 22.83 30.28 21.78 18.61 C 19.18 17.80 16.84 16.38 14.76 14.64 C 15.77 13.78 16.79 12.93 17.80 12.08 C 19.14 12.95 20.43 13.95 21.98 14.44 C 23.66 13.82 25.16 12.79 26.83 12.14 C 29.10 13.29 31.59 15.92 34.28 14.25 C 37.46 12.22 36.11 7.35 33.20 5.76 C 27.99 2.82 21.12 3.75 16.64 7.63 C 9.11 13.86 5.45 23.51 3.89 32.90 C 2.60 32.72 1.30 32.54 0.01 32.37 C 1.29 23.17 4.83 14.06 11.22 7.21 C 14.90 3.25 19.90 0.39 25.36 0.00 M 48.00 16.98 C 48.02 25.82 47.96 34.66 48.04 43.50 C 52.00 44.04 56.01 44.05 60.00 44.00 C 60.00 35.00 60.00 25.99 60.00 16.98 C 58.00 15.98 56.00 14.98 54.00 13.99 C 52.00 14.98 50.00 15.98 48.00 16.98 Z" />
<path fill="#000000" opacity="1.00" d=" M 52.00 20.00 C 53.33 20.00 54.67 20.00 56.00 20.00 C 56.00 21.33 56.00 22.67 56.00 24.00 C 54.67 24.00 53.33 24.00 52.00 24.00 C 52.00 22.67 52.00 21.33 52.00 20.00 Z" />
<path fill="#000000" opacity="1.00" d=" M 13.44 21.29 C 14.44 21.28 16.43 21.26 17.43 21.25 C 17.53 30.45 22.26 39.28 29.82 44.50 C 29.08 45.61 28.33 46.72 27.58 47.82 C 18.97 41.86 13.53 31.79 13.44 21.29 Z" />
<path fill="#000000" opacity="1.00" d=" M 52.00 28.00 C 53.33 28.00 54.67 28.00 56.00 28.00 C 56.00 29.33 56.00 30.67 56.00 32.00 C 54.67 32.00 53.33 32.00 52.00 32.00 C 52.00 30.67 52.00 29.33 52.00 28.00 Z" />
<path fill="#000000" opacity="1.00" d=" M 52.00 36.00 C 53.33 36.00 54.67 36.00 56.00 36.00 C 56.00 37.33 56.00 38.67 56.00 40.00 C 54.67 40.00 53.33 40.00 52.00 40.00 C 52.00 38.67 52.00 37.33 52.00 36.00 Z" />
<path fill="#000000" opacity="1.00" d=" M -0.00 54.00 C 1.14 54.02 2.27 54.04 3.41 54.07 C 6.11 56.43 9.92 56.44 12.61 54.05 C 13.54 54.05 14.46 54.05 15.39 54.05 C 18.10 56.43 21.91 56.44 24.61 54.05 C 25.54 54.04 26.46 54.04 27.39 54.05 C 30.09 56.42 33.91 56.45 36.60 54.05 C 37.53 54.05 38.46 54.05 39.39 54.05 C 42.09 56.44 45.91 56.44 48.61 54.05 C 49.53 54.04 50.46 54.05 51.39 54.05 C 54.09 56.42 57.90 56.45 60.60 54.06 C 61.73 54.04 62.87 54.03 64.00 54.03 L 64.00 55.02 C 61.76 60.56 54.56 61.07 49.99 58.22 C 46.27 60.43 41.73 60.43 38.00 58.22 C 34.27 60.43 29.73 60.43 26.00 58.22 C 22.26 60.43 17.73 60.43 14.00 58.22 C 9.44 61.06 2.19 60.57 0.00 55.00 L 0.00 54.00 Z" />
</g>
</svg>
