<?xml version="1.0" encoding="UTF-8" ?>
<!DOCTYPE svg PUBLIC "-//W3C//DTD SVG 1.1//EN" "http://www.w3.org/Graphics/SVG/1.1/DTD/svg11.dtd">
<svg width="60pt" height="60pt" viewBox="0 0 60 60" version="1.1" xmlns="http://www.w3.org/2000/svg">
<g id="#ffffffff">
<path fill="#ffffff" opacity="1.00" d=" M 0.00 0.00 L 60.00 0.00 L 60.00 60.00 L 0.00 60.00 L 0.00 0.00 M 5.36 19.42 C 4.86 20.42 3.47 21.51 4.18 22.72 C 4.50 24.04 6.49 24.44 7.28 23.38 C 10.13 20.17 12.84 16.76 16.39 14.27 C 20.38 11.31 25.66 8.92 30.66 10.57 C 32.51 11.21 35.03 13.35 33.51 15.43 C 31.63 17.02 29.72 14.68 27.98 14.03 C 25.86 15.39 23.53 15.98 21.00 15.75 C 18.17 17.80 21.79 19.93 23.89 20.22 C 23.43 27.12 27.93 34.21 34.90 35.60 C 41.22 36.45 47.64 35.80 54.00 36.00 C 53.99 27.96 54.02 19.92 53.98 11.89 C 50.11 13.72 45.60 14.51 42.18 17.10 C 41.74 22.07 42.12 27.07 42.00 32.05 C 38.16 32.08 33.76 32.15 30.94 29.07 C 28.08 26.46 27.92 22.41 27.89 18.82 C 29.80 19.52 31.89 20.50 33.93 19.69 C 37.29 18.74 38.97 14.51 37.39 11.45 C 35.34 7.32 30.30 5.59 25.94 6.09 C 17.37 6.83 10.40 12.88 5.36 19.42 M 4.08 41.11 C 3.74 42.34 4.11 43.23 5.19 43.78 C 10.36 46.57 16.63 46.51 22.00 44.30 C 27.11 46.44 32.89 46.43 38.00 44.30 C 43.55 46.57 50.21 46.64 55.37 43.38 C 56.77 42.42 55.70 39.72 53.97 40.10 C 51.31 40.67 48.79 42.01 46.01 41.95 C 43.22 41.94 40.60 40.86 38.01 39.96 C 32.92 42.42 27.09 42.43 22.01 39.96 C 18.13 41.46 13.78 42.82 9.70 41.18 C 7.88 40.86 5.41 38.96 4.08 41.11 M 4.08 49.09 C 3.73 50.32 4.10 51.22 5.19 51.77 C 10.36 54.57 16.63 54.51 22.00 52.30 C 27.11 54.44 32.89 54.43 38.00 52.30 C 43.54 54.56 50.21 54.64 55.37 51.37 C 56.78 50.44 55.69 47.70 53.97 48.10 C 51.30 48.67 48.78 50.01 45.99 49.95 C 43.20 50.00 40.68 48.64 38.00 48.13 C 35.32 48.65 32.80 50.00 30.01 49.95 C 27.21 50.01 24.69 48.65 22.00 48.13 C 18.24 49.08 14.33 50.87 10.43 49.40 C 8.37 49.13 5.67 46.85 4.08 49.09 Z" />
<path fill="#ffffff" opacity="1.00" d=" M 46.00 20.00 C 47.33 20.00 48.67 20.00 50.00 20.00 C 50.00 21.33 50.00 22.67 50.00 24.00 C 48.67 24.00 47.33 24.00 46.00 24.00 C 46.00 22.67 46.00 21.33 46.00 20.00 Z" />
<path fill="#ffffff" opacity="1.00" d=" M 46.00 28.00 C 47.33 28.00 48.67 28.00 50.00 28.00 C 50.00 29.33 50.00 30.67 50.00 32.00 C 48.67 32.00 47.33 32.00 46.00 32.00 C 46.00 30.67 46.00 29.33 46.00 28.00 Z" />
</g>
<g id="#000000ff">
<path fill="#000000" opacity="1.00" d=" M 5.36 19.42 C 10.40 12.88 17.37 6.83 25.94 6.09 C 30.30 5.59 35.34 7.32 37.39 11.45 C 38.97 14.51 37.29 18.74 33.93 19.69 C 31.89 20.50 29.80 19.52 27.89 18.82 C 27.92 22.41 28.08 26.46 30.94 29.07 C 33.76 32.15 38.16 32.08 42.00 32.05 C 42.12 27.07 41.74 22.07 42.18 17.10 C 45.60 14.51 50.11 13.72 53.98 11.89 C 54.02 19.92 53.99 27.96 54.00 36.00 C 47.64 35.80 41.22 36.45 34.90 35.60 C 27.93 34.21 23.43 27.12 23.89 20.22 C 21.79 19.93 18.17 17.80 21.00 15.75 C 23.53 15.98 25.86 15.39 27.98 14.03 C 29.72 14.68 31.63 17.02 33.51 15.43 C 35.03 13.35 32.51 11.21 30.66 10.57 C 25.66 8.92 20.38 11.31 16.39 14.27 C 12.84 16.76 10.13 20.17 7.28 23.38 C 6.49 24.44 4.50 24.04 4.18 22.72 C 3.47 21.51 4.86 20.42 5.36 19.42 M 46.00 20.00 C 46.00 21.33 46.00 22.67 46.00 24.00 C 47.33 24.00 48.67 24.00 50.00 24.00 C 50.00 22.67 50.00 21.33 50.00 20.00 C 48.67 20.00 47.33 20.00 46.00 20.00 M 46.00 28.00 C 46.00 29.33 46.00 30.67 46.00 32.00 C 47.33 32.00 48.67 32.00 50.00 32.00 C 50.00 30.67 50.00 29.33 50.00 28.00 C 48.67 28.00 47.33 28.00 46.00 28.00 Z" />
<path fill="#000000" opacity="1.00" d=" M 4.08 41.11 C 5.41 38.96 7.88 40.86 9.70 41.18 C 13.78 42.82 18.13 41.46 22.01 39.96 C 27.09 42.43 32.92 42.42 38.01 39.96 C 40.60 40.86 43.22 41.94 46.01 41.95 C 48.79 42.01 51.31 40.67 53.97 40.10 C 55.70 39.72 56.77 42.42 55.37 43.38 C 50.21 46.64 43.55 46.57 38.00 44.30 C 32.89 46.43 27.11 46.44 22.00 44.30 C 16.63 46.51 10.36 46.57 5.19 43.78 C 4.11 43.23 3.74 42.34 4.08 41.11 Z" />
<path fill="#000000" opacity="1.00" d=" M 4.08 49.09 C 5.67 46.85 8.37 49.13 10.43 49.40 C 14.33 50.87 18.24 49.08 22.00 48.13 C 24.69 48.65 27.21 50.01 30.01 49.95 C 32.80 50.00 35.32 48.65 38.00 48.13 C 40.68 48.64 43.20 50.00 45.99 49.95 C 48.78 50.01 51.30 48.67 53.97 48.10 C 55.69 47.70 56.78 50.44 55.37 51.37 C 50.21 54.64 43.54 54.56 38.00 52.30 C 32.89 54.43 27.11 54.44 22.00 52.30 C 16.63 54.51 10.36 54.57 5.19 51.77 C 4.10 51.22 3.73 50.32 4.08 49.09 Z" />
</g>
</svg>
