<?xml version="1.0" encoding="UTF-8" ?>
<!DOCTYPE svg PUBLIC "-//W3C//DTD SVG 1.1//EN" "http://www.w3.org/Graphics/SVG/1.1/DTD/svg11.dtd">
<svg width="64pt" height="64pt" viewBox="0 0 64 64" version="1.1" xmlns="http://www.w3.org/2000/svg">
<g id="#ffffffff">
<path fill="#ffffff" opacity="1.00" d=" M 0.00 0.00 L 64.00 0.00 L 64.00 64.00 L 0.00 64.00 L 0.00 0.00 M 15.98 6.00 C 16.01 19.23 17.24 32.63 21.58 45.20 C 22.67 48.41 21.16 52.09 22.87 55.13 C 24.26 57.66 27.32 58.19 29.96 58.03 C 33.38 57.77 37.58 58.93 40.28 56.20 C 43.25 53.26 41.20 48.72 42.43 45.15 C 46.76 32.59 47.96 19.21 48.02 6.00 C 37.34 6.00 26.66 6.00 15.98 6.00 Z" />
<path fill="#ffffff" opacity="1.00" d=" M 20.13 10.00 C 28.04 10.00 35.96 10.00 43.87 10.00 C 43.57 21.47 42.39 33.07 38.63 43.97 C 34.21 44.02 29.80 44.00 25.39 43.99 C 21.60 33.09 20.42 21.48 20.13 10.00 M 26.00 18.00 C 26.00 22.00 26.00 26.00 26.00 30.00 C 30.00 30.00 34.00 30.00 38.00 30.00 C 38.00 26.00 38.00 22.00 38.00 18.00 C 34.00 18.00 30.00 18.00 26.00 18.00 Z" />
<path fill="#ffffff" opacity="1.00" d=" M 30.00 22.00 C 31.33 22.00 32.67 22.00 34.00 22.00 C 34.00 23.33 34.00 24.67 34.00 26.00 C 32.67 26.00 31.33 26.00 30.00 26.00 C 30.00 24.67 30.00 23.33 30.00 22.00 Z" />
<path fill="#ffffff" opacity="1.00" d=" M 25.96 48.00 C 29.99 48.00 34.01 48.00 38.04 48.00 C 37.69 49.90 38.78 52.55 36.92 53.84 C 33.67 54.13 30.39 54.13 27.14 53.85 C 25.17 52.64 26.33 49.90 25.96 48.00 Z" />
</g>
<g id="#000000ff">
<path fill="#000000" opacity="1.00" d=" M 15.98 6.00 C 26.66 6.00 37.34 6.00 48.02 6.00 C 47.96 19.21 46.76 32.59 42.43 45.15 C 41.20 48.72 43.25 53.26 40.28 56.20 C 37.58 58.93 33.38 57.77 29.96 58.03 C 27.32 58.19 24.26 57.66 22.87 55.13 C 21.16 52.09 22.67 48.41 21.58 45.20 C 17.24 32.63 16.01 19.23 15.98 6.00 M 20.13 10.00 C 20.42 21.48 21.60 33.09 25.39 43.99 C 29.80 44.00 34.21 44.02 38.63 43.97 C 42.39 33.07 43.57 21.47 43.87 10.00 C 35.96 10.00 28.04 10.00 20.13 10.00 M 25.96 48.00 C 26.33 49.90 25.17 52.64 27.14 53.85 C 30.39 54.13 33.67 54.13 36.92 53.84 C 38.78 52.55 37.69 49.90 38.04 48.00 C 34.01 48.00 29.99 48.00 25.96 48.00 Z" />
<path fill="#000000" opacity="1.00" d=" M 26.00 18.00 C 30.00 18.00 34.00 18.00 38.00 18.00 C 38.00 22.00 38.00 26.00 38.00 30.00 C 34.00 30.00 30.00 30.00 26.00 30.00 C 26.00 26.00 26.00 22.00 26.00 18.00 M 30.00 22.00 C 30.00 23.33 30.00 24.67 30.00 26.00 C 31.33 26.00 32.67 26.00 34.00 26.00 C 34.00 24.67 34.00 23.33 34.00 22.00 C 32.67 22.00 31.33 22.00 30.00 22.00 Z" />
</g>
</svg>
