<?xml version="1.0" encoding="UTF-8" ?>
<!DOCTYPE svg PUBLIC "-//W3C//DTD SVG 1.1//EN" "http://www.w3.org/Graphics/SVG/1.1/DTD/svg11.dtd">
<svg width="64pt" height="64pt" viewBox="0 0 64 64" version="1.1" xmlns="http://www.w3.org/2000/svg">
<g id="#ffffffff">
<path fill="#ffffff" opacity="1.00" d=" M 0.00 0.00 L 64.00 0.00 L 64.00 64.00 L 0.00 64.00 L 0.00 0.00 M 28.00 36.00 C 27.50 36.00 26.50 36.00 26.00 36.00 C 26.02 33.36 26.00 30.71 25.90 28.07 C 24.04 28.02 22.17 28.02 20.31 28.06 C 19.46 30.15 18.64 32.26 17.81 34.36 C 17.26 33.62 16.71 32.89 16.16 32.15 C 16.22 30.62 16.23 29.09 16.19 27.56 C 13.62 27.78 13.37 29.97 13.81 32.03 C 13.22 32.82 12.64 33.61 12.05 34.39 C 11.26 32.29 10.47 30.20 9.69 28.09 C 8.46 28.07 7.23 28.02 6.01 27.94 L 5.96 26.02 C 4.65 27.33 3.34 28.65 2.02 29.96 L 4.02 30.03 C 4.01 32.33 3.87 34.64 4.18 36.93 C 5.20 38.68 7.14 37.74 8.51 37.08 C 4.85 36.10 6.20 32.30 6.07 29.56 C 9.70 30.87 9.58 35.69 11.62 38.52 C 12.83 37.12 13.94 35.64 14.98 34.12 C 16.00 35.64 17.04 37.14 18.13 38.61 C 20.35 35.80 20.22 30.93 23.91 29.55 C 23.71 32.27 25.35 36.30 21.48 37.05 C 22.51 37.79 23.72 38.12 24.99 38.01 C 29.19 38.01 33.39 38.07 37.58 37.89 C 38.06 42.62 45.64 43.59 47.02 38.99 C 48.05 36.82 46.54 34.90 45.09 33.43 C 45.86 30.89 46.75 27.44 44.60 25.37 C 44.45 26.06 44.15 27.44 44.00 28.12 C 41.88 28.09 39.22 27.95 38.08 30.16 C 37.95 31.75 39.04 33.13 39.52 34.59 C 41.50 35.09 44.38 34.71 45.34 36.97 C 45.68 40.68 39.77 41.08 39.48 37.35 C 40.26 37.56 41.82 37.97 42.60 38.17 C 42.23 35.76 40.06 36.18 38.38 36.73 C 37.79 36.46 36.59 35.92 36.00 35.65 C 36.01 33.04 36.03 30.42 35.83 27.82 C 34.33 27.98 32.77 28.05 31.48 28.94 C 35.18 29.64 33.77 33.37 34.01 36.00 C 32.67 36.00 31.34 36.00 30.00 36.00 C 29.94 31.24 29.85 26.44 30.88 21.76 C 26.63 25.35 28.28 31.17 28.00 36.00 M 47.11 21.75 C 48.39 27.17 47.79 32.73 48.18 38.23 C 48.83 38.11 50.12 37.87 50.77 37.75 C 49.97 35.05 49.83 32.24 50.19 29.45 C 52.85 30.89 51.67 34.24 52.48 36.63 C 52.91 38.28 55.18 37.73 56.36 38.27 C 54.68 36.09 53.70 33.66 53.89 30.85 C 54.14 28.65 51.79 28.21 50.20 27.75 C 49.90 25.42 48.66 23.45 47.11 21.75 M 24.16 24.19 C 23.67 25.82 24.22 26.36 25.83 25.80 C 26.33 24.18 25.77 23.64 24.16 24.19 M 34.18 24.18 C 33.65 25.79 34.20 26.34 35.82 25.82 C 36.34 24.20 35.79 23.65 34.18 24.18 M 56.06 29.96 C 56.55 29.98 57.52 30.02 58.01 30.03 C 58.01 32.32 57.87 34.62 58.17 36.89 C 59.14 38.67 61.11 37.75 62.48 37.12 C 59.25 36.14 60.05 32.95 59.96 30.41 C 60.77 29.97 61.58 29.53 62.39 29.08 C 61.63 28.41 60.11 27.08 59.35 26.41 C 58.30 27.63 57.19 28.81 56.06 29.96 Z" />
<path fill="#ffffff" opacity="1.00" d=" M 41.30 29.34 C 43.61 28.27 45.23 32.05 42.58 32.59 C 40.43 33.43 38.84 29.93 41.30 29.34 Z" />
</g>
<g id="#020202ff">
<path fill="#020202" opacity="1.00" d=" M 28.00 36.00 C 28.28 31.17 26.63 25.35 30.88 21.76 C 29.85 26.44 29.94 31.24 30.00 36.00 C 31.34 36.00 32.67 36.00 34.01 36.00 C 33.77 33.37 35.18 29.64 31.48 28.94 C 32.77 28.05 34.33 27.98 35.83 27.82 C 36.03 30.42 36.01 33.04 36.00 35.65 C 36.59 35.92 37.79 36.46 38.38 36.73 C 40.06 36.18 42.23 35.76 42.60 38.17 C 41.82 37.97 40.26 37.56 39.48 37.35 C 39.77 41.08 45.68 40.68 45.34 36.97 C 44.38 34.71 41.50 35.09 39.52 34.59 C 39.04 33.13 37.95 31.75 38.08 30.16 C 39.22 27.95 41.88 28.09 44.00 28.12 C 44.15 27.44 44.45 26.06 44.60 25.37 C 46.75 27.44 45.86 30.89 45.09 33.43 C 46.54 34.90 48.05 36.82 47.02 38.99 C 45.64 43.59 38.06 42.62 37.58 37.89 C 33.39 38.07 29.19 38.01 24.99 38.01 C 23.72 38.12 22.51 37.79 21.48 37.05 C 25.35 36.30 23.71 32.27 23.91 29.55 C 20.22 30.93 20.35 35.80 18.13 38.61 C 17.04 37.14 16.00 35.64 14.98 34.12 C 13.94 35.64 12.83 37.12 11.62 38.52 C 9.58 35.69 9.70 30.87 6.07 29.56 C 6.20 32.30 4.85 36.10 8.51 37.08 C 7.14 37.74 5.20 38.68 4.18 36.93 C 3.87 34.64 4.01 32.33 4.02 30.03 L 2.02 29.96 C 3.34 28.65 4.65 27.33 5.96 26.02 L 6.01 27.94 C 7.23 28.02 8.46 28.07 9.69 28.09 C 10.47 30.20 11.26 32.29 12.05 34.39 C 12.64 33.61 13.22 32.82 13.81 32.03 C 13.37 29.97 13.62 27.78 16.19 27.56 C 16.23 29.09 16.22 30.62 16.16 32.15 C 16.71 32.89 17.26 33.62 17.81 34.36 C 18.64 32.26 19.46 30.15 20.31 28.06 C 22.17 28.02 24.04 28.02 25.90 28.07 C 26.00 30.71 26.02 33.36 26.00 36.00 C 26.50 36.00 27.50 36.00 28.00 36.00 M 41.30 29.34 C 38.84 29.93 40.43 33.43 42.58 32.59 C 45.23 32.05 43.61 28.27 41.30 29.34 Z" />
<path fill="#020202" opacity="1.00" d=" M 47.11 21.75 C 48.66 23.45 49.90 25.42 50.20 27.75 C 51.79 28.21 54.14 28.65 53.89 30.85 C 53.70 33.66 54.68 36.09 56.36 38.27 C 55.18 37.73 52.91 38.28 52.48 36.63 C 51.67 34.24 52.85 30.89 50.19 29.45 C 49.83 32.24 49.97 35.05 50.77 37.75 C 50.12 37.87 48.83 38.11 48.18 38.23 C 47.79 32.73 48.39 27.17 47.11 21.75 Z" />
<path fill="#020202" opacity="1.00" d=" M 24.16 24.19 C 25.77 23.64 26.33 24.18 25.83 25.80 C 24.22 26.36 23.67 25.82 24.16 24.19 Z" />
<path fill="#020202" opacity="1.00" d=" M 34.18 24.18 C 35.79 23.65 36.34 24.20 35.82 25.82 C 34.20 26.34 33.65 25.79 34.18 24.18 Z" />
<path fill="#020202" opacity="1.00" d=" M 56.06 29.96 C 57.19 28.81 58.30 27.63 59.35 26.41 C 60.11 27.08 61.63 28.41 62.39 29.08 C 61.58 29.53 60.77 29.97 59.96 30.41 C 60.05 32.95 59.25 36.14 62.48 37.12 C 61.11 37.75 59.14 38.67 58.17 36.89 C 57.87 34.62 58.01 32.32 58.01 30.03 C 57.52 30.02 56.55 29.98 56.06 29.96 Z" />
</g>
</svg>
