<?xml version="1.0" encoding="UTF-8" ?>
<!DOCTYPE svg PUBLIC "-//W3C//DTD SVG 1.1//EN" "http://www.w3.org/Graphics/SVG/1.1/DTD/svg11.dtd">
<svg width="60pt" height="60pt" viewBox="0 0 60 60" version="1.1" xmlns="http://www.w3.org/2000/svg">
<g id="#ffffffff">
<path fill="#ffffff" opacity="1.00" d=" M 0.00 0.00 L 60.00 0.00 L 60.00 60.00 L 0.00 60.00 L 0.00 0.00 M 8.31 6.39 C 5.72 7.54 5.94 10.65 5.97 13.01 C 6.15 25.65 5.76 38.32 6.16 50.95 C 8.02 56.09 14.86 53.31 18.97 54.00 C 18.58 52.66 18.19 51.32 17.78 49.98 C 15.19 50.01 12.59 50.00 10.00 50.00 C 10.00 36.66 10.00 23.31 10.00 9.97 C 11.25 10.00 12.50 10.04 13.75 10.07 C 15.04 10.91 16.37 11.68 17.74 12.38 C 18.01 10.23 18.30 8.08 18.89 5.99 C 15.37 6.16 11.75 5.57 8.31 6.39 M 24.33 6.38 C 22.61 7.17 21.84 9.09 22.00 10.89 C 22.03 23.97 21.92 37.05 22.06 50.12 C 21.95 52.71 24.67 54.32 27.01 54.00 C 34.73 53.97 42.45 54.10 50.16 53.94 C 52.68 53.96 54.33 51.35 54.00 49.01 C 53.97 35.98 54.08 22.93 53.94 9.90 C 54.00 7.33 51.40 5.63 49.01 6.00 C 40.79 6.23 32.47 5.50 24.33 6.38 Z" />
<path fill="#ffffff" opacity="1.00" d=" M 33.88 8.06 C 35.96 8.03 38.03 8.03 40.11 8.07 C 40.13 11.20 36.46 9.76 34.46 9.91 C 34.32 9.45 34.03 8.53 33.88 8.06 Z" />
<path fill="#ffffff" opacity="1.00" d=" M 42.17 8.17 C 43.79 7.65 44.34 8.21 43.82 9.82 C 42.20 10.34 41.65 9.79 42.17 8.17 Z" />
<path fill="#ffffff" opacity="1.00" d=" M 26.00 9.97 C 27.26 10.00 28.51 10.03 29.77 10.06 C 32.81 12.98 37.26 11.82 41.05 12.01 C 43.03 12.26 44.74 11.23 46.23 10.06 C 47.49 10.03 48.74 10.00 50.00 9.97 C 50.00 23.32 50.00 36.66 50.00 50.00 C 42.00 50.00 34.00 50.00 26.00 50.00 C 26.00 36.66 26.00 23.32 26.00 9.97 Z" />
</g>
<g id="#000000ff">
<path fill="#000000" opacity="1.00" d=" M 8.31 6.39 C 11.75 5.57 15.37 6.16 18.89 5.99 C 18.30 8.08 18.01 10.23 17.74 12.38 C 16.37 11.68 15.04 10.91 13.75 10.07 C 12.50 10.04 11.25 10.00 10.00 9.97 C 10.00 23.31 10.00 36.66 10.00 50.00 C 12.59 50.00 15.19 50.01 17.78 49.98 C 18.19 51.32 18.58 52.66 18.97 54.00 C 14.86 53.31 8.02 56.09 6.16 50.95 C 5.76 38.32 6.15 25.65 5.97 13.01 C 5.94 10.65 5.72 7.54 8.31 6.39 Z" />
<path fill="#000000" opacity="1.00" d=" M 24.33 6.38 C 32.47 5.50 40.79 6.23 49.01 6.00 C 51.40 5.63 54.00 7.33 53.94 9.90 C 54.08 22.93 53.97 35.98 54.00 49.01 C 54.33 51.35 52.68 53.96 50.16 53.94 C 42.45 54.10 34.73 53.97 27.01 54.00 C 24.67 54.32 21.95 52.71 22.06 50.12 C 21.92 37.05 22.03 23.97 22.00 10.89 C 21.84 9.09 22.61 7.17 24.33 6.38 M 33.88 8.06 C 34.03 8.53 34.32 9.45 34.46 9.91 C 36.46 9.76 40.13 11.20 40.11 8.07 C 38.03 8.03 35.96 8.03 33.88 8.06 M 42.17 8.17 C 41.65 9.79 42.20 10.34 43.82 9.82 C 44.34 8.21 43.79 7.65 42.17 8.17 M 26.00 9.97 C 26.00 23.32 26.00 36.66 26.00 50.00 C 34.00 50.00 42.00 50.00 50.00 50.00 C 50.00 36.66 50.00 23.32 50.00 9.97 C 48.74 10.00 47.49 10.03 46.23 10.06 C 44.74 11.23 43.03 12.26 41.05 12.01 C 37.26 11.82 32.81 12.98 29.77 10.06 C 28.51 10.03 27.26 10.00 26.00 9.97 Z" />
</g>
</svg>
