<?xml version="1.0" encoding="UTF-8" ?>
<!DOCTYPE svg PUBLIC "-//W3C//DTD SVG 1.1//EN" "http://www.w3.org/Graphics/SVG/1.1/DTD/svg11.dtd">
<svg width="64pt" height="64pt" viewBox="0 0 64 64" version="1.1" xmlns="http://www.w3.org/2000/svg">
<g id="#ffffffff">
<path fill="#ffffff" opacity="1.00" d=" M 0.00 0.00 L 64.00 0.00 L 64.00 64.00 L 0.00 64.00 L 0.00 0.00 M 22.00 8.00 C 22.00 20.00 22.00 32.00 22.00 44.00 C 28.67 44.00 35.33 44.00 42.00 44.00 C 42.00 32.00 42.00 20.00 42.00 8.00 C 40.67 8.00 39.33 8.00 38.00 8.00 C 38.00 18.67 38.00 29.33 38.00 40.00 C 34.00 40.00 30.00 40.00 26.00 40.00 C 26.00 29.33 26.00 18.67 26.00 8.00 C 24.67 8.00 23.33 8.00 22.00 8.00 M 12.32 10.39 C 9.64 11.52 9.15 15.65 11.68 17.21 C 13.60 18.82 16.70 17.82 17.64 15.60 C 19.30 12.50 15.40 8.63 12.32 10.39 M 48.35 10.38 C 45.63 11.50 45.13 15.69 47.72 17.23 C 49.63 18.81 52.69 17.81 53.63 15.61 C 55.29 12.53 51.45 8.65 48.35 10.38 M 12.31 22.40 C 9.62 23.54 9.15 27.70 11.72 29.24 C 13.64 30.81 16.69 29.80 17.63 27.61 C 19.31 24.51 15.40 20.62 12.31 22.40 M 48.41 22.34 C 43.53 24.21 47.06 32.07 51.68 29.59 C 56.37 27.69 52.98 20.05 48.41 22.34 M 12.36 34.37 C 9.63 35.49 9.13 39.69 11.72 41.24 C 13.64 42.80 16.68 41.81 17.62 39.62 C 19.30 36.54 15.46 32.66 12.36 34.37 M 48.33 34.39 C 45.60 35.53 45.15 39.75 47.77 41.27 C 49.69 42.79 52.68 41.79 53.62 39.62 C 55.31 36.53 51.42 32.63 48.33 34.39 M 24.37 48.37 C 21.62 49.49 21.13 53.73 23.76 55.26 C 25.65 56.77 28.62 55.83 29.58 53.69 C 31.37 50.62 27.49 46.64 24.37 48.37 M 36.34 48.39 C 33.62 49.52 33.14 53.71 35.74 55.25 C 37.65 56.79 40.67 55.81 41.61 53.64 C 43.32 50.55 39.44 46.63 36.34 48.39 Z" />
</g>
<g id="#000000ff">
<path fill="#000000" opacity="1.00" d=" M 22.00 8.00 C 23.33 8.00 24.67 8.00 26.00 8.00 C 26.00 18.67 26.00 29.33 26.00 40.00 C 30.00 40.00 34.00 40.00 38.00 40.00 C 38.00 29.33 38.00 18.67 38.00 8.00 C 39.33 8.00 40.67 8.00 42.00 8.00 C 42.00 20.00 42.00 32.00 42.00 44.00 C 35.33 44.00 28.67 44.00 22.00 44.00 C 22.00 32.00 22.00 20.00 22.00 8.00 Z" />
<path fill="#000000" opacity="1.00" d=" M 12.32 10.39 C 15.40 8.63 19.30 12.50 17.64 15.60 C 16.70 17.82 13.60 18.82 11.68 17.21 C 9.15 15.65 9.64 11.52 12.32 10.39 Z" />
<path fill="#000000" opacity="1.00" d=" M 48.35 10.38 C 51.45 8.65 55.29 12.53 53.63 15.61 C 52.69 17.81 49.63 18.81 47.72 17.23 C 45.13 15.69 45.63 11.50 48.35 10.38 Z" />
<path fill="#000000" opacity="1.00" d=" M 12.31 22.40 C 15.40 20.62 19.31 24.51 17.63 27.61 C 16.69 29.80 13.64 30.81 11.72 29.24 C 9.15 27.70 9.62 23.54 12.31 22.40 Z" />
<path fill="#000000" opacity="1.00" d=" M 48.41 22.34 C 52.98 20.05 56.37 27.69 51.68 29.59 C 47.06 32.07 43.53 24.21 48.41 22.34 Z" />
<path fill="#000000" opacity="1.00" d=" M 12.36 34.37 C 15.46 32.66 19.30 36.54 17.62 39.62 C 16.68 41.81 13.64 42.80 11.72 41.24 C 9.13 39.69 9.63 35.49 12.36 34.37 Z" />
<path fill="#000000" opacity="1.00" d=" M 48.33 34.39 C 51.42 32.63 55.31 36.53 53.62 39.62 C 52.68 41.79 49.69 42.79 47.77 41.27 C 45.15 39.75 45.60 35.53 48.33 34.39 Z" />
<path fill="#000000" opacity="1.00" d=" M 24.37 48.37 C 27.49 46.64 31.37 50.62 29.58 53.69 C 28.62 55.83 25.65 56.77 23.76 55.26 C 21.13 53.73 21.62 49.49 24.37 48.37 Z" />
<path fill="#000000" opacity="1.00" d=" M 36.34 48.39 C 39.44 46.63 43.32 50.55 41.61 53.64 C 40.67 55.81 37.65 56.79 35.74 55.25 C 33.14 53.71 33.62 49.52 36.34 48.39 Z" />
</g>
</svg>
