<?xml version="1.0" encoding="UTF-8" ?>
<!DOCTYPE svg PUBLIC "-//W3C//DTD SVG 1.1//EN" "http://www.w3.org/Graphics/SVG/1.1/DTD/svg11.dtd">
<svg width="60pt" height="60pt" viewBox="0 0 60 60" version="1.1" xmlns="http://www.w3.org/2000/svg">
<g id="#ffffffff">
<path fill="#ffffff" opacity="1.00" d=" M 0.00 0.00 L 60.00 0.00 L 60.00 60.00 L 0.00 60.00 L 0.00 0.00 M 13.92 25.96 C 11.89 26.27 8.32 25.07 7.95 28.03 C 10.59 32.86 13.75 37.49 17.14 41.83 C 17.56 41.83 18.41 41.84 18.83 41.85 C 22.27 37.53 25.42 32.85 28.07 28.01 C 27.58 25.02 23.96 26.30 21.89 25.94 C 21.80 22.49 22.81 18.58 26.18 16.96 C 30.80 14.24 37.51 17.54 37.87 22.96 C 38.18 32.63 37.91 42.32 38.00 52.00 C 40.67 52.00 43.33 52.00 46.00 52.00 C 45.94 42.31 46.12 32.61 45.92 22.92 C 45.59 14.04 36.65 6.73 27.88 8.15 C 19.40 9.16 13.13 17.56 13.92 25.96 Z" />
</g>
<g id="#000000ff">
<path fill="#000000" opacity="1.00" d=" M 13.92 25.96 C 13.13 17.56 19.40 9.16 27.88 8.15 C 36.65 6.73 45.59 14.04 45.92 22.92 C 46.12 32.61 45.94 42.31 46.00 52.00 C 43.33 52.00 40.67 52.00 38.00 52.00 C 37.91 42.32 38.18 32.63 37.87 22.96 C 37.51 17.54 30.80 14.24 26.18 16.96 C 22.81 18.58 21.80 22.49 21.89 25.94 C 23.96 26.30 27.58 25.02 28.07 28.01 C 25.42 32.85 22.27 37.53 18.83 41.85 C 18.41 41.84 17.56 41.83 17.14 41.83 C 13.75 37.49 10.59 32.86 7.95 28.03 C 8.32 25.07 11.89 26.27 13.92 25.96 Z" />
</g>
</svg>
