<?xml version="1.0" encoding="UTF-8" ?>
<!DOCTYPE svg PUBLIC "-//W3C//DTD SVG 1.1//EN" "http://www.w3.org/Graphics/SVG/1.1/DTD/svg11.dtd">
<svg width="60pt" height="60pt" viewBox="0 0 60 60" version="1.1" xmlns="http://www.w3.org/2000/svg">
<g id="#ffffffff">
<path fill="#ffffff" opacity="1.00" d=" M 0.00 0.00 L 60.00 0.00 L 60.00 60.00 L 0.00 60.00 L 0.00 0.00 M 27.87 8.03 C 17.58 8.98 8.37 16.96 6.40 27.17 C 6.19 28.73 5.36 30.99 7.23 31.89 C 9.58 32.00 11.59 30.22 13.93 30.04 C 16.12 30.15 17.91 31.89 20.11 31.94 C 23.42 31.25 26.62 29.81 30.07 30.00 C 33.49 29.83 36.65 31.29 39.94 31.94 C 42.65 31.83 45.07 29.02 47.86 30.48 C 49.78 30.89 52.40 33.21 53.87 30.85 C 53.95 19.12 43.60 9.03 32.13 8.03 C 31.96 6.59 32.17 3.83 30.00 4.04 C 27.83 3.82 28.04 6.60 27.87 8.03 M 28.00 34.00 C 27.93 38.66 28.13 43.33 27.93 47.99 C 28.11 49.46 26.50 50.29 25.24 49.92 C 23.07 48.69 24.87 45.48 22.87 44.10 C 21.56 43.68 19.96 44.47 20.04 45.99 C 19.56 48.84 20.63 52.17 23.44 53.40 C 26.79 55.19 31.36 52.80 31.86 49.06 C 32.21 44.05 31.89 39.02 32.00 34.00 C 30.67 34.00 29.33 34.00 28.00 34.00 Z" />
</g>
<g id="#000000ff">
<path fill="#000000" opacity="1.00" d=" M 27.87 8.03 C 28.04 6.60 27.83 3.82 30.00 4.04 C 32.17 3.83 31.96 6.59 32.13 8.03 C 43.60 9.03 53.95 19.12 53.87 30.85 C 52.40 33.21 49.78 30.89 47.86 30.48 C 45.07 29.02 42.65 31.83 39.94 31.94 C 36.65 31.29 33.49 29.83 30.07 30.00 C 26.62 29.81 23.42 31.25 20.11 31.94 C 17.91 31.89 16.12 30.15 13.93 30.04 C 11.59 30.22 9.58 32.00 7.23 31.89 C 5.36 30.99 6.19 28.73 6.40 27.17 C 8.37 16.96 17.58 8.98 27.87 8.03 Z" />
<path fill="#000000" opacity="1.00" d=" M 28.00 34.00 C 29.33 34.00 30.67 34.00 32.00 34.00 C 31.89 39.02 32.21 44.05 31.86 49.06 C 31.36 52.80 26.79 55.19 23.44 53.40 C 20.63 52.17 19.56 48.84 20.04 45.99 C 19.96 44.47 21.56 43.68 22.87 44.10 C 24.87 45.48 23.07 48.69 25.24 49.92 C 26.50 50.29 28.11 49.46 27.93 47.99 C 28.13 43.33 27.93 38.66 28.00 34.00 Z" />
</g>
</svg>
