<?xml version="1.0" encoding="UTF-8" ?>
<!DOCTYPE svg PUBLIC "-//W3C//DTD SVG 1.1//EN" "http://www.w3.org/Graphics/SVG/1.1/DTD/svg11.dtd">
<svg width="64pt" height="64pt" viewBox="0 0 64 64" version="1.1" xmlns="http://www.w3.org/2000/svg">
<g id="#ffffffff">
<path fill="#ffffff" opacity="1.00" d=" M 0.00 0.00 L 64.00 0.00 L 64.00 64.00 L 0.00 64.00 L 0.00 0.00 M 10.00 10.00 C 10.00 24.67 10.00 39.33 10.00 54.00 C 24.67 54.00 39.33 54.00 54.00 54.00 C 54.00 39.33 54.00 24.67 54.00 10.00 C 39.33 10.00 24.67 10.00 10.00 10.00 Z" />
<path fill="#ffffff" opacity="1.00" d=" M 14.00 14.00 C 26.00 14.00 38.00 14.00 50.00 14.00 C 50.00 26.00 50.00 38.00 50.00 50.00 C 38.00 50.00 26.00 50.00 14.00 50.00 C 14.00 38.00 14.00 26.00 14.00 14.00 M 27.48 18.79 C 20.91 20.91 16.68 28.35 18.39 35.08 C 19.89 42.57 28.26 47.69 35.61 45.48 C 42.91 43.71 47.68 35.40 45.43 28.20 C 43.52 20.72 34.74 16.06 27.48 18.79 Z" />
<path fill="#ffffff" opacity="1.00" d=" M 28.43 22.67 C 33.64 20.52 40.15 23.74 41.57 29.19 C 43.24 34.38 39.82 40.43 34.51 41.66 C 29.61 43.04 24.03 40.03 22.53 35.16 C 20.78 30.28 23.54 24.40 28.43 22.67 M 31.18 30.09 C 28.85 31.21 30.42 34.86 32.83 33.89 C 35.14 32.76 33.58 29.15 31.18 30.09 Z" />
</g>
<g id="#000000ff">
<path fill="#000000" opacity="1.00" d=" M 10.00 10.00 C 24.67 10.00 39.33 10.00 54.00 10.00 C 54.00 24.67 54.00 39.33 54.00 54.00 C 39.33 54.00 24.67 54.00 10.00 54.00 C 10.00 39.33 10.00 24.67 10.00 10.00 M 14.00 14.00 C 14.00 26.00 14.00 38.00 14.00 50.00 C 26.00 50.00 38.00 50.00 50.00 50.00 C 50.00 38.00 50.00 26.00 50.00 14.00 C 38.00 14.00 26.00 14.00 14.00 14.00 Z" />
<path fill="#000000" opacity="1.00" d=" M 27.48 18.79 C 34.74 16.06 43.52 20.72 45.43 28.20 C 47.68 35.40 42.91 43.71 35.61 45.48 C 28.26 47.69 19.89 42.57 18.39 35.08 C 16.68 28.35 20.91 20.91 27.48 18.79 M 28.43 22.67 C 23.54 24.40 20.78 30.28 22.53 35.16 C 24.03 40.03 29.61 43.04 34.51 41.66 C 39.82 40.43 43.24 34.38 41.57 29.19 C 40.15 23.74 33.64 20.52 28.43 22.67 Z" />
<path fill="#000000" opacity="1.00" d=" M 31.18 30.09 C 33.58 29.15 35.14 32.76 32.83 33.89 C 30.42 34.86 28.85 31.21 31.18 30.09 Z" />
</g>
</svg>
