<?xml version="1.0" encoding="UTF-8" ?>
<!DOCTYPE svg PUBLIC "-//W3C//DTD SVG 1.1//EN" "http://www.w3.org/Graphics/SVG/1.1/DTD/svg11.dtd">
<svg width="60pt" height="60pt" viewBox="0 0 60 60" version="1.1" xmlns="http://www.w3.org/2000/svg">
<g id="#ffffffff">
<path fill="#ffffff" opacity="1.00" d=" M 0.00 0.00 L 60.00 0.00 L 60.00 60.00 L 0.00 60.00 L 0.00 0.00 M 8.00 18.00 C 11.98 22.01 16.02 25.97 19.99 30.00 C 20.00 27.33 20.00 24.67 20.00 22.00 C 25.06 22.08 30.12 21.83 35.17 22.12 C 39.69 22.48 43.53 26.43 43.92 30.92 C 44.44 35.12 41.97 39.45 38.08 41.12 C 34.37 42.80 30.16 41.38 26.33 42.35 C 22.92 43.63 23.37 49.17 26.96 49.85 C 30.33 50.14 33.76 50.14 37.12 49.70 C 44.43 48.48 50.31 42.12 51.52 34.89 C 53.39 27.14 48.58 18.83 41.47 15.65 C 34.71 12.71 27.13 14.49 20.00 14.00 C 20.00 11.33 20.00 8.67 20.00 6.00 C 16.00 10.00 12.00 14.00 8.00 18.00 Z" />
</g>
<g id="#000000ff">
<path fill="#000000" opacity="1.00" d=" M 8.00 18.00 C 12.00 14.00 16.00 10.00 20.00 6.00 C 20.00 8.67 20.00 11.33 20.00 14.00 C 27.13 14.49 34.71 12.71 41.47 15.65 C 48.58 18.83 53.39 27.14 51.52 34.89 C 50.31 42.12 44.43 48.48 37.12 49.70 C 33.76 50.14 30.33 50.14 26.96 49.85 C 23.37 49.17 22.92 43.63 26.33 42.35 C 30.16 41.38 34.37 42.80 38.08 41.12 C 41.97 39.45 44.44 35.12 43.92 30.92 C 43.53 26.43 39.69 22.48 35.17 22.12 C 30.12 21.83 25.06 22.08 20.00 22.00 C 20.00 24.67 20.00 27.33 19.99 30.00 C 16.02 25.97 11.98 22.01 8.00 18.00 Z" />
</g>
</svg>
