<?xml version="1.0" encoding="UTF-8" ?>
<!DOCTYPE svg PUBLIC "-//W3C//DTD SVG 1.1//EN" "http://www.w3.org/Graphics/SVG/1.1/DTD/svg11.dtd">
<svg width="64pt" height="64pt" viewBox="0 0 64 64" version="1.1" xmlns="http://www.w3.org/2000/svg">
<g id="#ffffffff">
<path fill="#ffffff" opacity="1.00" d=" M 0.00 0.00 L 64.00 0.00 L 64.00 64.00 L 0.00 64.00 L 0.00 0.00 M 10.00 10.00 C 10.00 24.67 10.00 39.33 10.00 54.00 C 24.67 54.00 39.33 54.00 54.00 54.00 C 54.00 39.33 54.00 24.67 54.00 10.00 C 39.33 10.00 24.67 10.00 10.00 10.00 Z" />
<path fill="#ffffff" opacity="1.00" d=" M 14.00 14.00 C 26.00 14.00 38.00 14.00 50.00 14.00 C 50.00 26.00 50.00 38.00 50.00 50.00 C 38.00 50.00 26.00 50.00 14.00 50.00 C 14.00 38.00 14.00 26.00 14.00 14.00 M 15.56 18.43 C 17.89 20.77 20.18 23.15 22.65 25.35 C 21.84 26.78 21.99 28.42 21.94 30.00 C 23.67 30.00 25.40 30.00 27.12 30.00 C 28.46 31.33 29.78 32.67 31.12 33.99 C 28.08 34.00 25.04 34.01 22.00 34.00 C 22.00 35.33 22.00 36.67 22.00 38.00 C 26.37 38.00 30.75 38.00 35.12 38.00 C 38.60 41.47 42.08 44.95 45.56 48.43 C 46.52 47.47 47.48 46.51 48.45 45.55 C 46.12 43.24 43.87 40.84 41.40 38.68 C 42.08 37.21 42.04 35.58 42.06 34.00 C 40.34 34.00 38.63 34.00 36.91 34.00 C 35.57 32.67 34.25 31.33 32.91 30.01 C 35.94 30.00 38.97 29.99 42.00 30.00 C 42.00 28.67 42.00 27.33 42.00 26.00 C 37.63 26.00 33.27 25.99 28.91 26.00 C 25.43 22.51 21.93 19.05 18.45 15.55 C 17.50 16.52 16.53 17.48 15.56 18.43 Z" />
</g>
<g id="#000000ff">
<path fill="#000000" opacity="1.00" d=" M 10.00 10.00 C 24.67 10.00 39.33 10.00 54.00 10.00 C 54.00 24.67 54.00 39.33 54.00 54.00 C 39.33 54.00 24.67 54.00 10.00 54.00 C 10.00 39.33 10.00 24.67 10.00 10.00 M 14.00 14.00 C 14.00 26.00 14.00 38.00 14.00 50.00 C 26.00 50.00 38.00 50.00 50.00 50.00 C 50.00 38.00 50.00 26.00 50.00 14.00 C 38.00 14.00 26.00 14.00 14.00 14.00 Z" />
<path fill="#000000" opacity="1.00" d=" M 15.56 18.43 C 16.53 17.48 17.50 16.52 18.45 15.55 C 21.93 19.05 25.43 22.51 28.91 26.00 C 33.27 25.99 37.63 26.00 42.00 26.00 C 42.00 27.33 42.00 28.67 42.00 30.00 C 38.97 29.99 35.94 30.00 32.91 30.01 C 34.25 31.33 35.57 32.67 36.91 34.00 C 38.63 34.00 40.34 34.00 42.06 34.00 C 42.04 35.58 42.08 37.21 41.40 38.68 C 43.87 40.84 46.12 43.24 48.45 45.55 C 47.48 46.51 46.52 47.47 45.56 48.43 C 42.08 44.95 38.60 41.47 35.12 38.00 C 30.75 38.00 26.37 38.00 22.00 38.00 C 22.00 36.67 22.00 35.33 22.00 34.00 C 25.04 34.01 28.08 34.00 31.12 33.99 C 29.78 32.67 28.46 31.33 27.12 30.00 C 25.40 30.00 23.67 30.00 21.94 30.00 C 21.99 28.42 21.84 26.78 22.65 25.35 C 20.18 23.15 17.89 20.77 15.56 18.43 Z" />
</g>
</svg>
