<?xml version="1.0" encoding="UTF-8" ?>
<!DOCTYPE svg PUBLIC "-//W3C//DTD SVG 1.1//EN" "http://www.w3.org/Graphics/SVG/1.1/DTD/svg11.dtd">
<svg width="60pt" height="60pt" viewBox="0 0 60 60" version="1.1" xmlns="http://www.w3.org/2000/svg">
<g id="#ffffffff">
<path fill="#ffffff" opacity="1.00" d=" M 0.00 0.00 L 60.00 0.00 L 60.00 60.00 L 0.00 60.00 L 0.00 0.00 M 20.10 9.07 C 14.92 14.23 9.18 18.88 4.35 24.36 C 3.52 32.17 4.24 40.13 4.00 48.00 C 7.33 48.00 10.66 48.00 13.99 48.00 C 14.00 46.72 14.02 45.44 14.03 44.16 C 20.01 41.13 19.84 33.74 22.66 28.46 C 23.91 26.21 24.97 21.83 21.02 21.97 C 17.91 24.01 16.42 27.76 13.96 30.48 C 14.12 28.80 13.66 26.96 14.44 25.40 C 17.46 20.13 21.43 15.41 24.07 9.94 C 23.85 7.82 21.23 7.46 20.10 9.07 M 36.25 10.73 C 38.96 15.59 42.32 20.06 45.23 24.80 C 46.42 26.45 45.88 28.59 46.04 30.48 C 43.84 27.83 42.16 24.74 39.69 22.32 C 38.27 21.40 36.32 22.51 35.99 24.07 C 36.56 27.38 38.30 30.29 39.31 33.46 C 40.47 37.54 41.73 42.14 45.97 44.07 C 45.98 45.38 46.00 46.69 46.01 48.00 C 49.34 48.00 52.67 48.00 56.00 48.00 C 55.94 40.62 56.11 33.24 55.94 25.86 C 56.02 24.03 54.41 22.87 53.29 21.68 C 48.61 17.38 44.11 12.90 39.39 8.65 C 38.07 6.95 35.07 8.94 36.25 10.73 M 28.37 22.37 C 23.56 24.25 27.05 32.02 31.64 29.62 C 36.40 27.74 32.96 19.97 28.37 22.37 M 26.35 32.38 C 22.32 34.72 24.55 40.22 24.01 43.99 C 24.51 44.00 25.50 44.01 26.00 44.01 C 26.00 46.61 26.00 49.21 26.00 51.80 C 28.67 51.80 31.33 51.80 34.00 51.80 C 34.00 49.21 34.00 46.61 34.00 44.01 C 34.50 44.01 35.49 43.99 35.99 43.99 C 35.97 41.01 36.18 38.01 35.85 35.04 C 34.73 30.99 29.49 31.73 26.35 32.38 Z" />
</g>
<g id="#000000ff">
<path fill="#000000" opacity="1.00" d=" M 20.10 9.07 C 21.23 7.46 23.85 7.82 24.07 9.94 C 21.43 15.41 17.46 20.13 14.44 25.40 C 13.66 26.96 14.12 28.80 13.96 30.48 C 16.42 27.76 17.91 24.01 21.02 21.97 C 24.97 21.83 23.91 26.21 22.66 28.46 C 19.84 33.74 20.01 41.13 14.03 44.16 C 14.02 45.44 14.00 46.72 13.99 48.00 C 10.66 48.00 7.33 48.00 4.00 48.00 C 4.24 40.13 3.52 32.17 4.35 24.36 C 9.18 18.88 14.92 14.23 20.10 9.07 Z" />
<path fill="#000000" opacity="1.00" d=" M 36.25 10.73 C 35.07 8.94 38.07 6.95 39.39 8.65 C 44.11 12.90 48.61 17.38 53.29 21.68 C 54.41 22.87 56.02 24.03 55.94 25.86 C 56.11 33.24 55.94 40.62 56.00 48.00 C 52.67 48.00 49.34 48.00 46.01 48.00 C 46.00 46.69 45.98 45.38 45.97 44.07 C 41.73 42.14 40.47 37.54 39.31 33.46 C 38.30 30.29 36.56 27.38 35.99 24.07 C 36.32 22.51 38.27 21.40 39.69 22.32 C 42.16 24.74 43.84 27.83 46.04 30.48 C 45.88 28.59 46.42 26.45 45.23 24.80 C 42.32 20.06 38.96 15.59 36.25 10.73 Z" />
<path fill="#000000" opacity="1.00" d=" M 28.37 22.37 C 32.96 19.97 36.40 27.74 31.64 29.62 C 27.05 32.02 23.56 24.25 28.37 22.37 Z" />
<path fill="#000000" opacity="1.00" d=" M 26.35 32.38 C 29.49 31.73 34.73 30.99 35.85 35.04 C 36.18 38.01 35.97 41.01 35.99 43.99 C 35.49 43.99 34.50 44.01 34.00 44.01 C 34.00 46.61 34.00 49.21 34.00 51.80 C 31.33 51.80 28.67 51.80 26.00 51.80 C 26.00 49.21 26.00 46.61 26.00 44.01 C 25.50 44.01 24.51 44.00 24.01 43.99 C 24.55 40.22 22.32 34.72 26.35 32.38 Z" />
</g>
</svg>
