<?xml version="1.0" encoding="UTF-8" ?>
<!DOCTYPE svg PUBLIC "-//W3C//DTD SVG 1.1//EN" "http://www.w3.org/Graphics/SVG/1.1/DTD/svg11.dtd">
<svg width="64pt" height="64pt" viewBox="0 0 64 64" version="1.1" xmlns="http://www.w3.org/2000/svg">
<g id="#ffffffff">
<path fill="#ffffff" opacity="1.00" d=" M 0.00 0.00 L 64.00 0.00 L 64.00 64.00 L 0.00 64.00 L 0.00 0.00 M 21.34 8.24 C 18.94 10.21 17.10 12.76 14.99 15.02 C 11.48 19.19 6.55 23.02 6.14 28.88 C 5.80 36.58 6.10 44.30 6.00 52.00 C 10.67 52.00 15.33 52.00 20.00 52.00 C 20.00 48.68 19.98 45.36 20.03 42.04 C 22.18 40.25 24.13 38.04 24.49 35.14 C 24.98 32.14 26.68 29.59 27.86 26.86 C 28.83 24.14 27.15 21.21 24.72 19.95 C 26.52 17.53 29.58 15.26 29.17 11.89 C 28.81 8.34 24.30 6.16 21.34 8.24 M 34.81 11.95 C 34.46 15.30 37.50 17.54 39.31 19.95 C 36.34 21.35 34.82 25.28 36.70 28.15 C 39.75 32.54 39.05 38.91 43.97 42.04 C 44.02 45.36 44.00 48.68 44.00 52.00 C 48.67 52.00 53.33 52.00 58.00 52.00 C 57.89 44.27 58.21 36.53 57.85 28.81 C 57.46 23.48 53.24 19.78 49.94 16.03 C 47.49 13.48 45.40 10.55 42.68 8.26 C 39.70 6.13 35.15 8.36 34.81 11.95 M 28.00 30.05 C 27.85 32.02 29.57 33.14 31.05 34.00 C 29.00 34.66 26.94 35.88 26.32 38.09 C 25.77 40.67 26.03 43.34 26.00 45.96 C 26.67 46.63 27.34 47.30 28.00 47.98 C 27.99 50.65 28.01 53.33 28.00 56.00 C 30.67 56.00 33.33 56.00 36.00 56.00 C 35.99 53.33 36.01 50.67 36.00 48.00 C 36.66 47.33 37.33 46.66 38.00 46.00 C 37.96 43.35 38.25 40.65 37.66 38.05 C 37.03 35.86 34.98 34.65 32.94 34.00 C 35.66 33.02 37.16 29.40 34.84 27.22 C 32.59 24.54 27.80 26.64 28.00 30.05 Z" />
<path fill="#ffffff" opacity="1.00" d=" M 20.69 14.62 C 22.02 13.51 24.22 9.39 25.31 12.77 C 21.55 18.01 16.49 22.41 14.28 28.65 C 15.51 29.17 16.73 29.70 17.96 30.24 C 19.44 27.98 19.87 23.90 23.09 23.57 C 25.24 24.90 23.22 27.01 22.55 28.57 C 20.22 32.30 21.24 38.33 16.01 39.76 C 16.00 42.50 15.99 45.25 16.00 48.00 C 14.00 48.00 12.00 48.00 10.00 48.00 C 10.21 41.27 9.56 34.48 10.36 27.79 C 12.27 22.44 17.36 19.06 20.69 14.62 Z" />
<path fill="#ffffff" opacity="1.00" d=" M 38.75 12.83 C 39.06 12.43 39.67 11.63 39.98 11.22 C 43.08 14.09 45.69 17.43 48.59 20.49 C 51.00 23.18 53.99 25.99 53.93 29.91 C 54.12 35.94 53.93 41.97 54.00 48.00 C 52.00 48.00 50.00 48.00 48.00 48.00 C 48.01 45.25 48.00 42.50 47.99 39.75 C 42.75 38.33 43.80 32.27 41.43 28.54 C 40.74 27.06 38.75 24.79 40.96 23.61 C 44.14 23.91 44.56 28.02 46.04 30.24 C 47.27 29.70 48.49 29.17 49.72 28.65 C 47.53 22.43 42.49 18.05 38.75 12.83 Z" />
</g>
<g id="#000000ff">
<path fill="#000000" opacity="1.00" d=" M 21.34 8.24 C 24.30 6.16 28.81 8.34 29.17 11.89 C 29.58 15.26 26.52 17.53 24.72 19.95 C 27.15 21.21 28.83 24.14 27.86 26.86 C 26.68 29.59 24.98 32.14 24.49 35.14 C 24.13 38.04 22.18 40.25 20.03 42.04 C 19.98 45.36 20.00 48.68 20.00 52.00 C 15.33 52.00 10.67 52.00 6.00 52.00 C 6.10 44.30 5.80 36.58 6.14 28.88 C 6.55 23.02 11.48 19.19 14.99 15.02 C 17.10 12.76 18.94 10.21 21.34 8.24 M 20.69 14.62 C 17.36 19.06 12.27 22.44 10.36 27.79 C 9.56 34.48 10.21 41.27 10.00 48.00 C 12.00 48.00 14.00 48.00 16.00 48.00 C 15.99 45.25 16.00 42.50 16.01 39.76 C 21.24 38.33 20.22 32.30 22.55 28.57 C 23.22 27.01 25.24 24.90 23.09 23.57 C 19.87 23.90 19.44 27.98 17.96 30.24 C 16.73 29.70 15.51 29.17 14.28 28.65 C 16.49 22.41 21.55 18.01 25.31 12.77 C 24.22 9.39 22.02 13.51 20.69 14.62 Z" />
<path fill="#000000" opacity="1.00" d=" M 34.81 11.95 C 35.15 8.36 39.70 6.13 42.68 8.26 C 45.40 10.55 47.49 13.48 49.94 16.03 C 53.24 19.78 57.46 23.48 57.85 28.81 C 58.21 36.53 57.89 44.27 58.00 52.00 C 53.33 52.00 48.67 52.00 44.00 52.00 C 44.00 48.68 44.02 45.36 43.97 42.04 C 39.05 38.91 39.75 32.54 36.70 28.15 C 34.82 25.28 36.34 21.35 39.31 19.95 C 37.50 17.54 34.46 15.30 34.81 11.95 M 38.75 12.83 C 42.49 18.05 47.53 22.43 49.72 28.65 C 48.49 29.17 47.27 29.70 46.04 30.24 C 44.56 28.02 44.14 23.91 40.96 23.61 C 38.75 24.79 40.74 27.06 41.43 28.54 C 43.80 32.27 42.75 38.33 47.99 39.75 C 48.00 42.50 48.01 45.25 48.00 48.00 C 50.00 48.00 52.00 48.00 54.00 48.00 C 53.93 41.97 54.12 35.94 53.93 29.91 C 53.99 25.99 51.00 23.18 48.59 20.49 C 45.69 17.43 43.08 14.09 39.98 11.22 C 39.67 11.63 39.06 12.43 38.75 12.83 Z" />
<path fill="#000000" opacity="1.00" d=" M 28.00 30.05 C 27.80 26.64 32.59 24.54 34.84 27.22 C 37.16 29.40 35.66 33.02 32.94 34.00 C 34.98 34.65 37.03 35.86 37.66 38.05 C 38.25 40.65 37.96 43.35 38.00 46.00 C 37.33 46.66 36.66 47.33 36.00 48.00 C 36.01 50.67 35.99 53.33 36.00 56.00 C 33.33 56.00 30.67 56.00 28.00 56.00 C 28.01 53.33 27.99 50.65 28.00 47.98 C 27.34 47.30 26.67 46.63 26.00 45.96 C 26.03 43.34 25.77 40.67 26.32 38.09 C 26.94 35.88 29.00 34.66 31.05 34.00 C 29.57 33.14 27.85 32.02 28.00 30.05 Z" />
</g>
</svg>
