<?xml version="1.0" encoding="UTF-8" ?>
<!DOCTYPE svg PUBLIC "-//W3C//DTD SVG 1.1//EN" "http://www.w3.org/Graphics/SVG/1.1/DTD/svg11.dtd">
<svg width="60pt" height="60pt" viewBox="0 0 60 60" version="1.1" xmlns="http://www.w3.org/2000/svg">
<g id="#ffffffff">
<path fill="#ffffff" opacity="1.00" d=" M 0.00 0.00 L 60.00 0.00 L 60.00 60.00 L 0.00 60.00 L 0.00 0.00 M 50.37 8.36 C 45.59 10.24 48.99 17.95 53.59 15.64 C 58.40 13.81 55.00 5.98 50.37 8.36 M 48.32 21.96 C 41.84 22.16 35.35 21.77 28.88 22.14 C 25.93 22.51 24.31 25.34 23.76 28.00 C 21.11 28.00 18.46 28.01 15.81 27.98 C 14.31 24.99 10.68 22.92 7.45 24.58 C 3.22 26.33 2.85 32.90 6.87 35.10 C 10.10 37.24 14.25 35.25 15.80 32.02 C 19.51 31.90 23.23 32.23 26.92 31.82 C 28.86 30.51 27.09 27.29 29.21 26.15 C 35.57 25.80 41.96 26.06 48.33 26.05 C 49.83 27.59 52.33 28.86 54.27 27.24 C 56.82 25.65 56.38 21.50 53.65 20.35 C 51.69 19.31 49.72 20.64 48.32 21.96 M 50.39 32.35 C 45.58 34.22 48.99 41.98 53.61 39.63 C 58.39 37.78 55.00 30.01 50.39 32.35 M 50.41 44.34 C 45.57 46.19 48.99 53.99 53.62 51.63 C 58.38 49.78 55.02 42.04 50.41 44.34 Z" />
</g>
<g id="#000000ff">
<path fill="#968176" opacity="1.00" d=" M 50.37 8.36 C 55.00 5.98 58.40 13.81 53.59 15.64 C 48.99 17.95 45.59 10.24 50.37 8.36 Z" />
<path fill="#968176" opacity="1.00" d=" M 48.32 21.96 C 49.72 20.64 51.69 19.31 53.65 20.35 C 56.38 21.50 56.82 25.65 54.27 27.24 C 52.33 28.86 49.83 27.59 48.33 26.05 C 41.96 26.06 35.57 25.80 29.21 26.15 C 27.09 27.29 28.86 30.51 26.92 31.82 C 23.23 32.23 19.51 31.90 15.80 32.02 C 14.25 35.25 10.10 37.24 6.87 35.10 C 2.85 32.90 3.22 26.33 7.45 24.58 C 10.68 22.92 14.31 24.99 15.81 27.98 C 18.46 28.01 21.11 28.00 23.76 28.00 C 24.31 25.34 25.93 22.51 28.88 22.14 C 35.35 21.77 41.84 22.16 48.32 21.96 Z" />
<path fill="#968176" opacity="1.00" d=" M 50.39 32.35 C 55.00 30.01 58.39 37.78 53.61 39.63 C 48.99 41.98 45.58 34.22 50.39 32.35 Z" />
<path fill="#968176" opacity="1.00" d=" M 50.41 44.34 C 55.02 42.04 58.38 49.78 53.62 51.63 C 48.99 53.99 45.57 46.19 50.41 44.34 Z" />
</g>
</svg>
