<?xml version="1.0" encoding="UTF-8" ?>
<!DOCTYPE svg PUBLIC "-//W3C//DTD SVG 1.1//EN" "http://www.w3.org/Graphics/SVG/1.1/DTD/svg11.dtd">
<svg width="64pt" height="64pt" viewBox="0 0 64 64" version="1.1" xmlns="http://www.w3.org/2000/svg">
<g id="#ffffffff">
<path fill="#ffffff" opacity="1.00" d=" M 0.00 0.00 L 24.47 0.00 C 21.21 1.05 18.46 5.86 21.03 8.80 C 23.53 10.88 26.92 11.23 30.00 11.89 C 30.00 16.03 30.00 20.17 30.00 24.32 C 24.40 25.12 19.01 27.92 15.71 32.59 C 11.09 38.76 10.82 47.67 14.82 54.21 C 18.08 59.79 24.15 63.43 30.55 64.00 L 0.00 64.00 L 0.00 0.00 Z" />
<path fill="#ffffff" opacity="1.00" d=" M 25.53 0.00 L 38.35 0.00 C 34.26 1.95 29.64 1.87 25.53 0.00 Z" />
<path fill="#ffffff" opacity="1.00" d=" M 39.81 0.00 L 64.00 0.00 L 64.00 64.00 L 33.29 64.00 C 39.51 63.51 45.46 60.10 48.80 54.80 C 53.16 48.23 53.05 39.00 48.32 32.66 C 45.04 27.94 39.62 25.13 34.01 24.31 C 34.00 20.17 34.00 16.03 34.00 11.89 C 37.06 11.24 40.41 10.88 42.91 8.84 C 45.55 5.93 42.85 1.40 39.81 0.00 Z" />
<path fill="#ffffff" opacity="1.00" d=" M 25.09 4.04 C 29.51 5.91 34.55 5.92 38.96 4.00 C 39.29 4.76 39.61 5.52 39.94 6.28 C 34.82 8.38 28.96 8.47 23.92 6.11 C 24.21 5.59 24.80 4.56 25.09 4.04 Z" />
<path fill="#ffffff" opacity="1.00" d=" M 22.33 31.44 C 24.65 29.89 27.24 28.86 29.98 28.34 C 30.01 31.84 30.03 35.35 29.94 38.85 C 27.21 36.59 24.81 33.97 22.33 31.44 Z" />
<path fill="#ffffff" opacity="1.00" d=" M 34.01 28.34 C 36.75 28.86 39.35 29.89 41.67 31.45 C 39.18 33.96 36.79 36.59 34.06 38.85 C 33.97 35.35 34.00 31.84 34.01 28.34 Z" />
<path fill="#ffffff" opacity="1.00" d=" M 16.34 41.98 C 16.87 39.23 17.85 36.61 19.52 34.34 C 21.97 36.87 24.61 39.22 26.85 41.94 C 23.34 42.03 19.84 42.01 16.34 41.98 Z" />
<path fill="#ffffff" opacity="1.00" d=" M 37.15 41.94 C 39.40 39.21 42.03 36.85 44.51 34.34 C 46.11 36.64 47.14 39.24 47.66 41.98 C 44.15 42.00 40.65 42.03 37.15 41.94 Z" />
<path fill="#ffffff" opacity="1.00" d=" M 31.09 42.09 C 33.58 40.97 35.23 44.85 32.83 45.90 C 30.37 46.94 28.86 43.24 31.09 42.09 Z" />
<path fill="#ffffff" opacity="1.00" d=" M 16.34 46.02 C 19.84 46.00 23.34 45.96 26.85 46.06 C 24.60 48.80 21.96 51.17 19.46 53.67 C 17.88 51.36 16.87 48.76 16.34 46.02 Z" />
<path fill="#ffffff" opacity="1.00" d=" M 37.15 46.05 C 40.65 45.97 44.15 45.99 47.66 46.02 C 47.14 48.76 46.10 51.34 44.54 53.66 C 42.02 51.18 39.41 48.77 37.15 46.05 Z" />
<path fill="#ffffff" opacity="1.00" d=" M 22.34 56.50 C 24.87 54.04 27.21 51.39 29.94 49.15 C 30.03 52.65 30.01 56.16 29.98 59.66 C 27.24 59.13 24.62 58.12 22.34 56.50 Z" />
<path fill="#ffffff" opacity="1.00" d=" M 34.06 49.15 C 36.79 51.40 39.16 54.02 41.66 56.52 C 39.36 58.10 36.76 59.14 34.02 59.66 C 33.99 56.16 33.97 52.65 34.06 49.15 Z" />
</g>
<g id="#000000ff">
<path fill="#000000" opacity="1.00" d=" M 24.47 0.00 L 25.53 0.00 C 29.64 1.87 34.26 1.95 38.35 0.00 L 39.81 0.00 C 42.85 1.40 45.55 5.93 42.91 8.84 C 40.41 10.88 37.06 11.24 34.00 11.89 C 34.00 16.03 34.00 20.17 34.01 24.31 C 39.62 25.13 45.04 27.94 48.32 32.66 C 53.05 39.00 53.16 48.23 48.80 54.80 C 45.46 60.10 39.51 63.51 33.29 64.00 L 30.55 64.00 C 24.15 63.43 18.08 59.79 14.82 54.21 C 10.82 47.67 11.09 38.76 15.71 32.59 C 19.01 27.92 24.40 25.12 30.00 24.32 C 30.00 20.17 30.00 16.03 30.00 11.89 C 26.92 11.23 23.53 10.88 21.03 8.80 C 18.46 5.86 21.21 1.05 24.47 0.00 M 25.09 4.04 C 24.80 4.56 24.21 5.59 23.92 6.11 C 28.96 8.47 34.82 8.38 39.94 6.28 C 39.61 5.52 39.29 4.76 38.96 4.00 C 34.55 5.92 29.51 5.91 25.09 4.04 M 22.33 31.44 C 24.81 33.97 27.21 36.59 29.94 38.85 C 30.03 35.35 30.01 31.84 29.98 28.34 C 27.24 28.86 24.65 29.89 22.33 31.44 M 34.01 28.34 C 34.00 31.84 33.97 35.35 34.06 38.85 C 36.79 36.59 39.18 33.96 41.67 31.45 C 39.35 29.89 36.75 28.86 34.01 28.34 M 16.34 41.98 C 19.84 42.01 23.34 42.03 26.85 41.94 C 24.61 39.22 21.97 36.87 19.52 34.34 C 17.85 36.61 16.87 39.23 16.34 41.98 M 37.15 41.94 C 40.65 42.03 44.15 42.00 47.66 41.98 C 47.14 39.24 46.11 36.64 44.51 34.34 C 42.03 36.85 39.40 39.21 37.15 41.94 M 31.09 42.09 C 28.86 43.24 30.37 46.94 32.83 45.90 C 35.23 44.85 33.58 40.97 31.09 42.09 M 16.34 46.02 C 16.87 48.76 17.88 51.36 19.46 53.67 C 21.96 51.17 24.60 48.80 26.85 46.06 C 23.34 45.96 19.84 46.00 16.34 46.02 M 37.15 46.05 C 39.41 48.77 42.02 51.18 44.54 53.66 C 46.10 51.34 47.14 48.76 47.66 46.02 C 44.15 45.99 40.65 45.97 37.15 46.05 M 22.34 56.50 C 24.62 58.12 27.24 59.13 29.98 59.66 C 30.01 56.16 30.03 52.65 29.94 49.15 C 27.21 51.39 24.87 54.04 22.34 56.50 M 34.06 49.15 C 33.97 52.65 33.99 56.16 34.02 59.66 C 36.76 59.14 39.36 58.10 41.66 56.52 C 39.16 54.02 36.79 51.40 34.06 49.15 Z" />
</g>
</svg>
