<?xml version="1.0" encoding="UTF-8" ?>
<!DOCTYPE svg PUBLIC "-//W3C//DTD SVG 1.1//EN" "http://www.w3.org/Graphics/SVG/1.1/DTD/svg11.dtd">
<svg width="60pt" height="60pt" viewBox="0 0 60 60" version="1.1" xmlns="http://www.w3.org/2000/svg">
<g id="#ffffffff">
<path fill="#ffffff" opacity="1.00" d=" M 0.00 0.00 L 60.00 0.00 L 60.00 60.00 L 0.00 60.00 L 0.00 0.00 M 24.47 6.65 C 17.11 8.36 10.72 13.75 7.86 20.75 C 4.61 28.37 5.72 37.65 10.71 44.26 C 15.75 51.17 24.65 54.99 33.12 53.78 C 42.81 52.66 51.22 44.99 53.35 35.50 C 55.34 27.34 52.63 18.28 46.48 12.57 C 40.76 7.04 32.18 4.79 24.47 6.65 Z" />
<path fill="#ffffff" opacity="1.00" d=" M 15.33 16.43 C 20.77 10.37 30.08 8.30 37.57 11.50 C 45.27 14.55 50.54 22.77 49.95 31.06 C 49.74 36.84 46.66 42.19 42.27 45.84 C 40.46 44.31 36.91 43.33 37.23 40.42 C 39.00 39.74 41.01 39.75 42.68 38.79 C 45.03 36.94 46.18 33.84 46.16 30.91 C 45.56 27.55 42.29 25.06 38.98 24.78 C 36.10 25.36 33.83 27.58 30.91 28.13 C 29.72 29.73 28.61 31.39 27.55 33.07 C 28.48 34.09 29.44 35.09 30.41 36.07 C 30.34 38.04 30.30 40.01 30.25 41.98 C 27.41 41.90 24.68 42.68 21.96 43.39 C 19.58 44.02 17.87 41.70 17.77 39.56 C 21.61 39.34 26.35 41.08 29.35 37.87 C 26.49 37.06 22.78 37.85 20.86 35.03 C 20.67 33.00 20.78 30.95 20.81 28.91 C 22.51 28.77 24.92 29.95 26.09 28.18 C 27.22 26.34 28.43 24.36 28.64 22.17 C 27.98 18.06 21.85 15.44 18.79 18.70 C 17.13 20.64 18.07 23.37 17.68 25.67 C 14.78 27.68 12.01 29.89 10.06 32.88 C 9.54 26.98 11.15 20.76 15.33 16.43 Z" />
</g>
<g id="#000000ff">
<path fill="#000000" opacity="1.00" d=" M 24.47 6.65 C 32.18 4.79 40.76 7.04 46.48 12.57 C 52.63 18.28 55.34 27.34 53.35 35.50 C 51.22 44.99 42.81 52.66 33.12 53.78 C 24.65 54.99 15.75 51.17 10.71 44.26 C 5.72 37.65 4.61 28.37 7.86 20.75 C 10.72 13.75 17.11 8.36 24.47 6.65 M 15.33 16.43 C 11.15 20.76 9.54 26.98 10.06 32.88 C 12.01 29.89 14.78 27.68 17.68 25.67 C 18.07 23.37 17.13 20.64 18.79 18.70 C 21.85 15.44 27.98 18.06 28.64 22.17 C 28.43 24.36 27.22 26.34 26.09 28.18 C 24.92 29.95 22.51 28.77 20.81 28.91 C 20.78 30.95 20.67 33.00 20.86 35.03 C 22.78 37.85 26.49 37.06 29.35 37.87 C 26.35 41.08 21.61 39.34 17.77 39.56 C 17.87 41.70 19.58 44.02 21.96 43.39 C 24.68 42.68 27.41 41.90 30.25 41.98 C 30.30 40.01 30.34 38.04 30.41 36.07 C 29.44 35.09 28.48 34.09 27.55 33.07 C 28.61 31.39 29.72 29.73 30.91 28.13 C 33.83 27.58 36.10 25.36 38.98 24.78 C 42.29 25.06 45.56 27.55 46.16 30.91 C 46.18 33.84 45.03 36.94 42.68 38.79 C 41.01 39.75 39.00 39.74 37.23 40.42 C 36.91 43.33 40.46 44.31 42.27 45.84 C 46.66 42.19 49.74 36.84 49.95 31.06 C 50.54 22.77 45.27 14.55 37.57 11.50 C 30.08 8.30 20.77 10.37 15.33 16.43 Z" />
</g>
</svg>
