<?xml version="1.0" encoding="UTF-8" ?>
<!DOCTYPE svg PUBLIC "-//W3C//DTD SVG 1.1//EN" "http://www.w3.org/Graphics/SVG/1.1/DTD/svg11.dtd">
<svg width="64pt" height="64pt" viewBox="0 0 64 64" version="1.1" xmlns="http://www.w3.org/2000/svg">
<g id="#ffffffff">
<path fill="#ffffff" opacity="1.00" d=" M 0.00 0.00 L 64.00 0.00 L 64.00 64.00 L 0.00 64.00 L 0.00 0.00 M 32.51 11.67 C 29.45 12.78 25.91 12.59 22.89 14.05 C 14.61 17.22 9.20 25.39 7.82 33.94 C 9.16 33.97 10.51 34.00 11.85 34.01 C 12.88 29.81 14.48 25.63 17.49 22.43 C 21.59 17.62 28.09 15.90 34.20 15.92 C 35.40 14.45 36.79 13.16 38.34 12.07 C 38.22 13.66 38.09 15.25 37.95 16.84 C 40.50 19.51 43.88 21.73 44.73 25.59 C 43.43 25.85 42.27 25.17 41.10 24.73 C 40.10 26.12 40.35 27.39 41.85 28.22 C 42.86 27.52 43.90 26.87 44.97 26.27 C 44.85 32.16 52.93 33.47 52.19 39.29 C 50.79 39.59 49.40 40.01 47.95 40.00 C 46.31 39.20 46.01 37.25 45.29 35.76 C 42.59 36.14 39.32 37.00 37.02 34.99 C 36.09 33.75 35.48 32.31 34.75 30.94 C 32.17 32.79 29.23 34.77 28.43 38.06 C 26.86 44.13 30.22 49.94 30.09 56.00 C 31.42 56.00 32.75 55.99 34.08 55.98 C 34.70 49.60 29.65 42.77 33.58 36.88 C 36.07 39.12 39.14 40.72 42.58 40.29 C 43.83 41.69 45.08 43.35 47.03 43.75 C 50.33 44.68 53.47 42.89 56.06 41.03 C 55.86 38.41 56.45 35.44 54.87 33.14 C 52.70 31.02 49.91 29.25 48.87 26.24 C 48.01 23.70 47.42 21.04 45.94 18.75 C 48.66 15.27 53.10 12.85 54.47 8.49 C 50.13 10.69 46.56 14.10 42.24 16.32 C 42.25 13.46 42.80 10.64 43.57 7.90 C 39.48 7.64 35.39 8.62 32.51 11.67 Z" />
</g>
<g id="#000000ff">
<path fill="#000000" opacity="1.00" d=" M 32.51 11.67 C 35.39 8.62 39.48 7.64 43.57 7.90 C 42.80 10.64 42.25 13.46 42.24 16.32 C 46.56 14.10 50.13 10.69 54.47 8.49 C 53.10 12.85 48.66 15.27 45.94 18.75 C 47.42 21.04 48.01 23.70 48.87 26.24 C 49.91 29.25 52.70 31.02 54.87 33.14 C 56.45 35.44 55.86 38.41 56.06 41.03 C 53.47 42.89 50.33 44.68 47.03 43.75 C 45.08 43.35 43.83 41.69 42.58 40.29 C 39.14 40.72 36.07 39.12 33.58 36.88 C 29.65 42.77 34.70 49.60 34.08 55.98 C 32.75 55.99 31.42 56.00 30.09 56.00 C 30.22 49.94 26.86 44.13 28.43 38.06 C 29.23 34.77 32.17 32.79 34.75 30.94 C 35.48 32.31 36.09 33.75 37.02 34.99 C 39.32 37.00 42.59 36.14 45.29 35.76 C 46.01 37.25 46.31 39.20 47.95 40.00 C 49.40 40.01 50.79 39.59 52.19 39.29 C 52.93 33.47 44.85 32.16 44.97 26.27 C 43.90 26.87 42.86 27.52 41.85 28.22 C 40.35 27.39 40.10 26.12 41.10 24.73 C 42.27 25.17 43.43 25.85 44.73 25.59 C 43.88 21.73 40.50 19.51 37.95 16.84 C 38.09 15.25 38.22 13.66 38.34 12.07 C 36.79 13.16 35.40 14.45 34.20 15.92 C 28.09 15.90 21.59 17.62 17.49 22.43 C 14.48 25.63 12.88 29.81 11.85 34.01 C 10.51 34.00 9.16 33.97 7.82 33.94 C 9.20 25.39 14.61 17.22 22.89 14.05 C 25.91 12.59 29.45 12.78 32.51 11.67 Z" />
</g>
</svg>
