<?xml version="1.0" encoding="UTF-8" ?>
<!DOCTYPE svg PUBLIC "-//W3C//DTD SVG 1.1//EN" "http://www.w3.org/Graphics/SVG/1.1/DTD/svg11.dtd">
<svg width="143pt" height="112pt" viewBox="0 0 143 112" version="1.1" xmlns="http://www.w3.org/2000/svg">
<g id="#fffffff">
<path fill="#ffffff" opacity="1.00" d=" M 0.00 0.00 L 143.00 0.00 L 143.00 112.00 L 0.00 112.00 L 0.00 0.00 M 27.23 27.21 C 26.42 30.15 25.05 32.93 24.38 35.92 C 23.99 39.14 24.23 42.39 24.26 45.61 C 36.28 45.66 48.30 45.63 60.33 45.63 C 60.31 38.56 60.33 31.48 60.31 24.41 C 59.93 24.38 59.17 24.32 58.79 24.29 C 55.55 23.34 52.15 23.50 48.82 23.23 C 42.05 22.30 35.18 21.89 28.71 19.44 C 27.93 21.97 27.42 24.57 27.23 27.21 M 107.94 30.77 C 105.43 33.26 103.63 36.66 100.52 38.42 C 97.49 39.47 95.86 36.53 96.02 33.89 C 95.51 33.78 94.49 33.56 93.98 33.46 C 91.67 34.99 89.33 37.15 86.32 36.45 C 86.23 34.23 86.33 32.02 86.46 29.82 C 79.06 26.09 70.53 26.36 62.51 25.19 C 62.54 32.62 62.46 40.05 62.55 47.48 C 61.41 47.84 60.27 48.30 59.04 48.22 C 47.62 48.24 36.19 48.13 24.76 48.27 C 25.29 51.58 27.36 54.25 29.53 56.68 C 55.87 56.64 82.21 56.71 108.55 56.64 C 108.81 55.27 109.07 53.90 109.33 52.53 C 95.18 52.14 81.02 52.68 66.88 52.25 C 67.01 51.79 67.28 50.86 67.42 50.39 C 81.10 50.15 94.81 50.28 108.50 50.34 C 108.98 48.77 109.44 47.20 109.84 45.62 C 95.38 45.43 80.89 46.09 66.46 45.27 C 66.89 44.01 67.71 43.43 68.92 43.52 C 82.79 43.45 96.66 43.56 110.53 43.48 C 112.13 41.14 114.52 39.53 116.24 37.30 C 116.38 35.37 116.62 33.39 117.76 31.76 C 119.57 29.22 119.06 25.99 118.66 23.11 C 114.09 24.21 112.74 29.91 107.94 30.77 M 32.26 59.37 C 34.51 60.66 36.75 61.97 38.93 63.39 C 60.66 63.56 82.38 63.38 104.11 63.48 C 105.05 62.08 106.02 60.70 106.98 59.32 C 92.33 58.86 77.63 59.68 63.00 58.90 C 52.78 59.69 42.50 58.82 32.26 59.37 M 44.23 65.91 C 49.02 68.34 54.05 70.20 59.08 72.04 C 63.37 73.61 65.71 77.71 68.83 80.73 C 69.53 80.69 70.92 80.63 71.62 80.60 C 71.70 79.35 71.76 78.11 71.81 76.86 C 72.51 75.58 73.43 74.44 74.61 73.56 C 81.67 74.49 88.03 69.82 95.13 71.33 C 98.54 73.78 99.79 78.98 104.17 79.84 C 107.20 75.32 103.97 70.35 103.61 65.60 C 83.82 65.90 64.00 65.28 44.23 65.91 M 32.74 69.14 C 32.88 70.43 31.84 72.16 33.01 73.16 C 34.43 73.43 35.86 73.57 37.31 73.57 C 37.33 72.50 37.38 70.35 37.40 69.27 C 35.85 69.22 34.30 69.17 32.74 69.14 M 28.43 73.48 C 28.44 75.03 28.45 76.58 28.46 78.13 C 29.85 78.13 31.24 78.14 32.63 78.15 C 32.69 76.84 32.97 75.51 32.73 74.20 C 31.42 73.48 29.99 73.24 28.43 73.48 M 37.33 75.71 C 37.34 77.25 37.36 78.80 37.39 80.34 C 38.42 80.34 40.48 80.33 41.51 80.33 C 41.53 78.81 41.56 77.30 41.58 75.78 C 40.16 75.76 38.74 75.74 37.33 75.71 M 24.05 78.12 C 24.08 79.59 24.11 81.07 24.15 82.55 C 25.58 82.52 27.01 82.50 28.44 82.49 C 28.44 81.05 28.45 79.62 28.46 78.19 C 26.99 78.16 25.52 78.14 24.05 78.12 M 28.47 82.50 C 28.44 83.58 28.39 85.73 28.37 86.80 C 29.46 86.78 31.65 86.75 32.74 86.73 C 32.73 85.68 32.72 83.57 32.72 82.52 C 31.66 82.51 29.53 82.50 28.47 82.50 M 23.79 87.22 C 23.91 88.29 24.15 90.42 24.27 91.48 C 25.63 91.44 27.00 91.40 28.36 91.37 C 28.41 90.32 28.49 88.22 28.54 87.17 C 26.96 87.18 25.37 87.20 23.79 87.22 M 35.20 89.27 C 35.22 90.72 35.24 92.16 35.27 93.60 C 36.31 93.58 38.39 93.52 39.43 93.49 C 39.44 92.46 39.45 90.41 39.46 89.38 C 38.04 89.34 36.62 89.31 35.20 89.27 M 28.48 93.56 C 28.46 94.96 28.43 96.36 28.41 97.76 C 29.86 97.76 31.30 97.75 32.75 97.75 C 32.72 96.34 32.69 94.93 32.66 93.52 C 31.27 93.54 29.87 93.55 28.48 93.56 Z" />
<path fill="#ffffff" opacity="1.00" d=" M 34.03 27.86 C 34.14 28.46 34.36 29.68 34.47 30.28 C 36.62 29.87 40.36 31.36 40.06 27.86 C 40.86 29.20 41.66 30.81 43.53 30.84 C 43.09 31.04 42.22 31.45 41.79 31.65 C 41.94 33.15 41.15 34.38 40.45 35.61 C 42.40 36.93 46.76 37.55 47.04 34.31 C 47.23 36.57 49.24 36.62 51.03 36.74 C 50.32 36.95 48.90 37.36 48.20 37.57 C 48.38 38.05 48.75 39.00 48.93 39.47 C 47.75 39.44 46.57 39.43 45.39 39.44 C 46.45 37.47 44.13 36.25 42.41 37.00 C 42.31 37.62 42.12 38.85 42.02 39.47 C 40.95 39.45 39.88 39.46 38.81 39.48 C 39.63 35.85 34.41 35.81 35.25 39.46 C 34.10 39.44 32.94 39.45 31.78 39.47 C 31.97 39.04 32.36 38.18 32.56 37.75 C 32.03 37.48 30.99 36.95 30.46 36.68 C 35.12 37.19 32.11 33.83 32.28 31.60 C 31.89 31.44 31.10 31.10 30.71 30.94 C 32.30 30.44 33.41 29.41 34.03 27.86 M 35.31 33.63 L 33.02 32.63 C 33.38 33.57 34.08 35.45 34.44 36.39 C 36.15 36.40 37.86 36.41 39.58 36.40 C 39.92 35.45 40.62 33.55 40.97 32.60 L 38.89 33.61 C 38.69 32.75 38.27 31.03 38.07 30.17 C 36.34 30.77 34.48 31.39 35.31 33.63 Z" />
<path fill="#ffffff" opacity="1.00" d=" M 44.08 30.68 C 45.79 30.55 46.70 29.48 47.04 27.89 C 47.21 31.72 53.81 30.90 53.98 27.67 C 54.02 29.53 55.00 30.33 56.93 30.07 C 56.54 30.18 55.76 30.39 55.37 30.50 C 55.35 31.16 55.30 32.49 55.28 33.16 C 54.53 33.88 53.79 34.61 53.06 35.37 C 54.01 35.64 55.90 36.18 56.84 36.45 C 55.69 37.14 54.91 38.06 55.37 39.46 C 54.20 39.42 53.03 39.40 51.87 39.38 C 51.70 38.42 51.51 37.46 51.31 36.51 C 53.34 36.55 53.10 33.97 53.96 32.73 L 51.55 33.58 C 51.75 32.85 52.15 31.39 52.35 30.66 C 51.42 30.71 49.55 30.79 48.61 30.83 C 48.61 31.50 48.62 32.83 48.62 33.50 C 47.58 33.42 46.54 33.36 45.50 33.32 C 45.84 32.04 45.08 31.29 44.08 30.68 Z" />
</g>
<g id="#000000ff">
<path fill="#968176" opacity="1.00" d=" M 27.23 27.21 C 27.42 24.57 27.93 21.97 28.71 19.44 C 35.18 21.89 42.05 22.30 48.82 23.23 C 52.15 23.50 55.55 23.34 58.79 24.29 C 59.17 24.32 59.93 24.38 60.31 24.41 C 60.33 31.48 60.31 38.56 60.33 45.63 C 48.30 45.63 36.28 45.66 24.26 45.61 C 24.23 42.39 23.99 39.14 24.38 35.92 C 25.05 32.93 26.42 30.15 27.23 27.21 M 34.03 27.86 C 33.41 29.41 32.30 30.44 30.71 30.94 C 31.10 31.10 31.89 31.44 32.28 31.60 C 32.11 33.83 35.12 37.19 30.46 36.68 C 30.99 36.95 32.03 37.48 32.56 37.75 C 32.36 38.18 31.97 39.04 31.78 39.47 C 32.94 39.45 34.10 39.44 35.25 39.46 C 34.41 35.81 39.63 35.85 38.81 39.48 C 39.88 39.46 40.95 39.45 42.02 39.47 C 42.12 38.85 42.31 37.62 42.41 37.00 C 44.13 36.25 46.45 37.47 45.39 39.44 C 46.57 39.43 47.75 39.44 48.93 39.47 C 48.75 39.00 48.38 38.05 48.20 37.57 C 48.90 37.36 50.32 36.95 51.03 36.74 C 49.24 36.62 47.23 36.57 47.04 34.31 C 46.76 37.55 42.40 36.93 40.45 35.61 C 41.15 34.38 41.94 33.15 41.79 31.65 C 42.22 31.45 43.09 31.04 43.53 30.84 C 41.66 30.81 40.86 29.20 40.06 27.86 C 40.36 31.36 36.62 29.87 34.47 30.28 C 34.36 29.68 34.14 28.46 34.03 27.86 M 44.08 30.68 C 45.08 31.29 45.84 32.04 45.50 33.32 C 46.54 33.36 47.58 33.42 48.62 33.50 C 48.62 32.83 48.61 31.50 48.61 30.83 C 49.55 30.79 51.42 30.71 52.35 30.66 C 52.15 31.39 51.75 32.85 51.55 33.58 L 53.96 32.73 C 53.10 33.97 53.34 36.55 51.31 36.51 C 51.51 37.46 51.70 38.42 51.87 39.38 C 53.03 39.40 54.20 39.42 55.37 39.46 C 54.91 38.06 55.69 37.14 56.84 36.45 C 55.90 36.18 54.01 35.64 53.06 35.37 C 53.79 34.61 54.53 33.88 55.28 33.16 C 55.30 32.49 55.35 31.16 55.37 30.50 C 55.76 30.39 56.54 30.18 56.93 30.07 C 55.00 30.33 54.02 29.53 53.98 27.67 C 53.81 30.90 47.21 31.72 47.04 27.89 C 46.70 29.48 45.79 30.55 44.08 30.68 Z" />
<path fill="#968176" opacity="1.00" d=" M 107.94 30.77 C 112.74 29.91 114.09 24.21 118.66 23.11 C 119.06 25.99 119.57 29.22 117.76 31.76 C 116.62 33.39 116.38 35.37 116.24 37.30 C 114.52 39.53 112.13 41.14 110.53 43.48 C 96.66 43.56 82.79 43.45 68.92 43.52 C 67.71 43.43 66.89 44.01 66.46 45.27 C 80.89 46.09 95.38 45.43 109.84 45.62 C 109.44 47.20 108.98 48.77 108.50 50.34 C 94.81 50.28 81.10 50.15 67.42 50.39 C 67.28 50.86 67.01 51.79 66.88 52.25 C 81.02 52.68 95.18 52.14 109.33 52.53 C 109.07 53.90 108.81 55.27 108.55 56.64 C 82.21 56.71 55.87 56.64 29.53 56.68 C 27.36 54.25 25.29 51.58 24.76 48.27 C 36.19 48.13 47.62 48.24 59.04 48.22 C 60.27 48.30 61.41 47.84 62.55 47.48 C 62.46 40.05 62.54 32.62 62.51 25.19 C 70.53 26.36 79.06 26.09 86.46 29.82 C 86.33 32.02 86.23 34.23 86.32 36.45 C 89.33 37.15 91.67 34.99 93.98 33.46 C 94.49 33.56 95.51 33.78 96.02 33.89 C 95.86 36.53 97.49 39.47 100.52 38.42 C 103.63 36.66 105.43 33.26 107.94 30.77 Z" />
<path fill="#968176" opacity="1.00" d=" M 35.31 33.63 C 34.48 31.39 36.34 30.77 38.07 30.17 C 38.27 31.03 38.69 32.75 38.89 33.61 L 40.97 32.60 C 40.62 33.55 39.92 35.45 39.58 36.40 C 37.86 36.41 36.15 36.40 34.44 36.39 C 34.08 35.45 33.38 33.57 33.02 32.63 L 35.31 33.63 Z" />
<path fill="#968176" opacity="1.00" d=" M 32.26 59.37 C 42.50 58.82 52.78 59.69 63.00 58.90 C 77.63 59.68 92.33 58.86 106.98 59.32 C 106.02 60.70 105.05 62.08 104.11 63.48 C 82.38 63.38 60.66 63.56 38.93 63.39 C 36.75 61.97 34.51 60.66 32.26 59.37 Z" />
<path fill="#968176" opacity="1.00" d=" M 44.23 65.91 C 64.00 65.28 83.82 65.90 103.61 65.60 C 103.97 70.35 107.20 75.32 104.17 79.84 C 99.79 78.98 98.54 73.78 95.13 71.33 C 88.03 69.82 81.67 74.49 74.61 73.56 C 73.43 74.44 72.51 75.58 71.81 76.86 C 71.76 78.11 71.70 79.35 71.62 80.60 C 70.92 80.63 69.53 80.69 68.83 80.73 C 65.71 77.71 63.37 73.61 59.08 72.04 C 54.05 70.20 49.02 68.34 44.23 65.91 Z" />
<path fill="#968176" opacity="1.00" d=" M 32.74 69.14 C 34.30 69.17 35.85 69.22 37.40 69.27 C 37.38 70.35 37.33 72.50 37.31 73.57 C 35.86 73.57 34.43 73.43 33.01 73.16 C 31.84 72.16 32.88 70.43 32.74 69.14 Z" />
<path fill="#968176" opacity="1.00" d=" M 28.43 73.48 C 29.99 73.24 31.42 73.48 32.73 74.20 C 32.97 75.51 32.69 76.84 32.63 78.15 C 31.24 78.14 29.85 78.13 28.46 78.13 C 28.45 76.58 28.44 75.03 28.43 73.48 Z" />
<path fill="#968176" opacity="1.00" d=" M 37.33 75.71 C 38.74 75.74 40.16 75.76 41.58 75.78 C 41.56 77.30 41.53 78.81 41.51 80.33 C 40.48 80.33 38.42 80.34 37.39 80.34 C 37.36 78.80 37.34 77.25 37.33 75.71 Z" />
<path fill="#968176" opacity="1.00" d=" M 24.05 78.12 C 25.52 78.14 26.99 78.16 28.46 78.19 C 28.45 79.62 28.44 81.05 28.44 82.49 C 27.01 82.50 25.58 82.52 24.15 82.55 C 24.11 81.07 24.08 79.59 24.05 78.12 Z" />
<path fill="#968176" opacity="1.00" d=" M 28.47 82.50 C 29.53 82.50 31.66 82.51 32.72 82.52 C 32.72 83.57 32.73 85.68 32.74 86.73 C 31.65 86.75 29.46 86.78 28.37 86.80 C 28.39 85.73 28.44 83.58 28.47 82.50 Z" />
<path fill="#968176" opacity="1.00" d=" M 23.79 87.22 C 25.37 87.20 26.96 87.18 28.54 87.17 C 28.49 88.22 28.41 90.32 28.36 91.37 C 27.00 91.40 25.63 91.44 24.27 91.48 C 24.15 90.42 23.91 88.29 23.79 87.22 Z" />
<path fill="#968176" opacity="1.00" d=" M 35.20 89.27 C 36.62 89.31 38.04 89.34 39.46 89.38 C 39.45 90.41 39.44 92.46 39.43 93.49 C 38.39 93.52 36.31 93.58 35.27 93.60 C 35.24 92.16 35.22 90.72 35.20 89.27 Z" />
<path fill="#968176" opacity="1.00" d=" M 28.48 93.56 C 29.87 93.55 31.27 93.54 32.66 93.52 C 32.69 94.93 32.72 96.34 32.75 97.75 C 31.30 97.75 29.86 97.76 28.41 97.76 C 28.43 96.36 28.46 94.96 28.48 93.56 Z" />
</g>
</svg>
