<?xml version="1.0" encoding="UTF-8" ?>
<!DOCTYPE svg PUBLIC "-//W3C//DTD SVG 1.1//EN" "http://www.w3.org/Graphics/SVG/1.1/DTD/svg11.dtd">
<svg width="64pt" height="64pt" viewBox="0 0 64 64" version="1.1" xmlns="http://www.w3.org/2000/svg">
<g id="#ffffffff">
<path fill="#ffffff" opacity="1.00" d=" M 0.00 0.00 L 64.00 0.00 L 64.00 64.00 L 0.00 64.00 L 0.00 0.00 M 7.39 4.56 C 6.46 5.53 5.52 6.50 4.57 7.47 C 21.92 24.77 39.23 42.11 56.55 59.43 C 57.51 58.47 58.48 57.52 59.45 56.57 C 54.17 51.23 48.80 45.97 43.55 40.60 C 43.84 38.39 43.93 36.17 43.86 33.94 C 48.86 30.27 53.89 26.63 58.87 22.93 C 52.96 16.97 47.02 11.04 41.07 5.13 C 37.38 10.12 33.78 15.18 30.05 20.13 C 27.83 20.07 25.61 20.16 23.41 20.45 C 18.01 15.21 12.79 9.80 7.39 4.56 M 16.38 23.67 C 15.45 24.59 14.51 25.50 13.57 26.41 C 17.13 29.91 20.65 33.47 24.19 37.00 C 18.80 42.40 13.39 47.79 8.00 53.19 C 8.00 53.90 8.00 55.30 8.00 56.00 C 8.71 56.00 10.13 56.00 10.83 56.00 C 16.21 50.59 21.63 45.23 27.00 39.82 C 30.55 43.35 34.10 46.90 37.64 50.45 C 38.51 49.46 39.41 48.50 40.33 47.55 C 32.32 39.61 24.42 31.57 16.38 23.67 Z" />
<path fill="#ffffff" opacity="1.00" d=" M 31.70 24.70 C 35.00 20.22 38.28 15.73 41.58 11.25 C 45.30 14.98 49.02 18.70 52.75 22.42 C 48.28 25.73 43.78 29.01 39.30 32.30 C 39.53 33.91 39.83 35.51 40.11 37.11 C 35.59 32.79 31.21 28.34 26.84 23.87 C 28.46 24.15 30.08 24.46 31.70 24.70 Z" />
</g>
<g id="#000000ff">
<path fill="#000000" opacity="1.00" d=" M 7.39 4.56 C 12.79 9.80 18.01 15.21 23.41 20.45 C 25.61 20.16 27.83 20.07 30.05 20.13 C 33.78 15.18 37.38 10.12 41.07 5.13 C 47.02 11.04 52.96 16.97 58.87 22.93 C 53.89 26.63 48.86 30.27 43.86 33.94 C 43.93 36.17 43.84 38.39 43.55 40.60 C 48.80 45.97 54.17 51.23 59.45 56.57 C 58.48 57.52 57.51 58.47 56.55 59.43 C 39.23 42.11 21.92 24.77 4.57 7.47 C 5.52 6.50 6.46 5.53 7.39 4.56 M 31.70 24.70 C 30.08 24.46 28.46 24.15 26.84 23.87 C 31.21 28.34 35.59 32.79 40.11 37.11 C 39.83 35.51 39.53 33.91 39.30 32.30 C 43.78 29.01 48.28 25.73 52.75 22.42 C 49.02 18.70 45.30 14.98 41.58 11.25 C 38.28 15.73 35.00 20.22 31.70 24.70 Z" />
<path fill="#000000" opacity="1.00" d=" M 16.38 23.67 C 24.42 31.57 32.32 39.61 40.33 47.55 C 39.41 48.50 38.51 49.46 37.64 50.45 C 34.10 46.90 30.55 43.35 27.00 39.82 C 21.63 45.23 16.21 50.59 10.83 56.00 C 10.13 56.00 8.71 56.00 8.00 56.00 C 8.00 55.30 8.00 53.90 8.00 53.19 C 13.39 47.79 18.80 42.40 24.19 37.00 C 20.65 33.47 17.13 29.91 13.57 26.41 C 14.51 25.50 15.45 24.59 16.38 23.67 Z" />
</g>
</svg>
