<?xml version="1.0" encoding="UTF-8" ?>
<!DOCTYPE svg PUBLIC "-//W3C//DTD SVG 1.1//EN" "http://www.w3.org/Graphics/SVG/1.1/DTD/svg11.dtd">
<svg width="60pt" height="60pt" viewBox="0 0 60 60" version="1.1" xmlns="http://www.w3.org/2000/svg">
<g id="#ffffffff">
<path fill="#ffffff" opacity="1.00" d=" M 0.00 0.00 L 60.00 0.00 L 60.00 60.00 L 0.00 60.00 L 0.00 0.00 M 10.36 8.38 C 8.61 9.14 7.80 11.10 8.00 12.92 C 8.03 24.65 7.93 36.38 8.05 48.11 C 7.94 50.62 10.58 52.33 12.90 52.00 C 24.63 51.97 36.36 52.07 48.09 51.95 C 50.61 52.01 52.37 49.39 52.00 47.02 C 52.00 35.64 52.00 24.26 52.00 12.89 C 52.32 10.58 50.64 7.97 48.15 8.05 C 37.09 7.91 26.03 8.07 14.97 7.98 C 13.44 8.07 11.82 7.79 10.36 8.38 Z" />
<path fill="#ffffff" opacity="1.00" d=" M 29.18 20.17 C 31.10 19.49 32.19 21.54 33.45 22.57 C 36.84 26.19 40.63 29.43 43.83 33.21 C 44.81 35.13 41.95 37.04 40.59 35.35 C 36.97 31.94 33.58 28.30 30.02 24.83 C 26.24 28.47 22.73 32.39 18.79 35.84 C 16.80 36.77 15.02 34.01 16.65 32.59 C 20.79 28.42 24.85 24.13 29.18 20.17 Z" />
</g>
<g id="#000000ff">
<path fill="#000000" opacity="1.00" d=" M 10.36 8.38 C 11.82 7.79 13.44 8.07 14.97 7.98 C 26.03 8.07 37.09 7.91 48.15 8.05 C 50.64 7.97 52.32 10.58 52.00 12.89 C 52.00 24.26 52.00 35.64 52.00 47.02 C 52.37 49.39 50.61 52.01 48.09 51.95 C 36.36 52.07 24.63 51.97 12.90 52.00 C 10.58 52.33 7.94 50.62 8.05 48.11 C 7.93 36.38 8.03 24.65 8.00 12.92 C 7.80 11.10 8.61 9.14 10.36 8.38 M 29.18 20.17 C 24.85 24.13 20.79 28.42 16.65 32.59 C 15.02 34.01 16.80 36.77 18.79 35.84 C 22.73 32.39 26.24 28.47 30.02 24.83 C 33.58 28.30 36.97 31.94 40.59 35.35 C 41.95 37.04 44.81 35.13 43.83 33.21 C 40.63 29.43 36.84 26.19 33.45 22.57 C 32.19 21.54 31.10 19.49 29.18 20.17 Z" />
</g>
</svg>
