<?xml version="1.0" encoding="UTF-8" ?>
<!DOCTYPE svg PUBLIC "-//W3C//DTD SVG 1.1//EN" "http://www.w3.org/Graphics/SVG/1.1/DTD/svg11.dtd">
<svg width="60pt" height="60pt" viewBox="0 0 60 60" version="1.1" xmlns="http://www.w3.org/2000/svg">
<g id="#ffffffff">
<path fill="#ffffff" opacity="1.00" d=" M 0.00 0.00 L 60.00 0.00 L 60.00 60.00 L 0.00 60.00 L 0.00 0.00 M 34.10 5.08 C 29.48 9.80 24.64 14.33 20.16 19.18 C 20.15 19.59 20.14 20.41 20.13 20.82 C 22.56 23.26 26.81 21.46 29.98 22.00 C 29.60 31.12 27.71 41.21 20.51 47.52 C 17.38 50.41 13.22 51.66 9.10 52.26 C 7.20 52.99 7.99 56.17 9.99 55.96 C 19.72 55.82 29.71 51.56 35.45 43.49 C 40.02 37.32 41.65 29.54 41.99 22.00 C 44.97 21.94 47.98 22.19 50.95 21.82 C 52.03 21.14 52.46 19.49 51.37 18.60 C 46.79 13.87 42.12 9.21 37.40 4.63 C 36.50 3.52 34.83 4.08 34.10 5.08 Z" />
</g>
<g id="#000000ff">
<path fill="#968176" opacity="1.00" d=" M 34.10 5.08 C 34.83 4.08 36.50 3.52 37.40 4.63 C 42.12 9.21 46.79 13.87 51.37 18.60 C 52.46 19.49 52.03 21.14 50.95 21.82 C 47.98 22.19 44.97 21.94 41.99 22.00 C 41.65 29.54 40.02 37.32 35.45 43.49 C 29.71 51.56 19.72 55.82 9.99 55.96 C 7.99 56.17 7.20 52.99 9.10 52.26 C 13.22 51.66 17.38 50.41 20.51 47.52 C 27.71 41.21 29.60 31.12 29.98 22.00 C 26.81 21.46 22.56 23.26 20.13 20.82 C 20.14 20.41 20.15 19.59 20.16 19.18 C 24.64 14.33 29.48 9.80 34.10 5.08 Z" />
</g>
</svg>
