<?xml version="1.0" encoding="UTF-8" ?>
<!DOCTYPE svg PUBLIC "-//W3C//DTD SVG 1.1//EN" "http://www.w3.org/Graphics/SVG/1.1/DTD/svg11.dtd">
<svg width="60pt" height="60pt" viewBox="0 0 60 60" version="1.1" xmlns="http://www.w3.org/2000/svg">
<g id="#ffffffff">
<path fill="#ffffff" opacity="1.00" d=" M 0.00 0.00 L 60.00 0.00 L 60.00 45.25 C 59.65 37.67 52.49 31.27 44.89 32.08 C 37.46 32.49 31.30 39.66 32.08 47.09 C 32.47 53.89 38.44 59.61 45.20 60.00 L 0.00 60.00 L 0.00 0.00 M 30.71 7.63 C 23.02 15.31 15.38 23.02 7.67 30.68 C 5.81 32.07 5.43 35.09 7.13 36.75 C 12.47 42.12 17.81 47.50 23.20 52.82 C 24.75 54.52 27.32 54.05 29.04 52.89 C 28.59 49.56 27.42 46.24 28.29 42.84 C 29.79 32.66 41.25 25.40 51.06 28.82 C 52.92 29.98 53.95 27.53 53.95 26.07 C 54.05 22.01 54.02 17.94 53.97 13.88 C 54.02 9.69 50.29 5.95 46.09 6.03 C 42.03 5.99 37.96 5.95 33.89 6.05 C 32.62 6.02 31.53 6.72 30.71 7.63 Z" />
<path fill="#ffffff" opacity="1.00" d=" M 44.33 10.39 C 47.20 8.74 50.93 12.05 49.83 15.09 C 49.16 17.56 45.84 18.96 43.76 17.26 C 41.15 15.75 41.60 11.52 44.33 10.39 Z" />
<path fill="#ffffff" opacity="1.00" d=" M 36.08 44.93 C 36.54 38.86 43.32 34.42 49.07 36.51 C 54.93 38.23 57.67 45.50 54.89 50.83 C 53.94 49.91 53.02 48.96 52.12 47.98 C 51.99 50.65 51.96 53.32 52.01 55.99 C 54.67 56.03 57.34 56.01 60.00 55.92 L 60.00 60.00 L 46.91 60.00 C 48.47 58.85 48.25 55.99 45.97 56.05 C 40.27 55.98 35.29 50.68 36.08 44.93 Z" />
<path fill="#ffffff" opacity="1.00" d=" M 57.95 53.89 C 58.43 51.51 59.95 49.35 60.00 46.82 L 60.00 55.92 C 59.49 55.41 58.46 54.40 57.95 53.89 Z" />
</g>
<g id="#000000ff">
<path fill="#968176" opacity="1.00" d=" M 30.71 7.63 C 31.53 6.72 32.62 6.02 33.89 6.05 C 37.96 5.95 42.03 5.99 46.09 6.03 C 50.29 5.95 54.02 9.69 53.97 13.88 C 54.02 17.94 54.05 22.01 53.95 26.07 C 53.95 27.53 52.92 29.98 51.06 28.82 C 41.25 25.40 29.79 32.66 28.29 42.84 C 27.42 46.24 28.59 49.56 29.04 52.89 C 27.32 54.05 24.75 54.52 23.20 52.82 C 17.81 47.50 12.47 42.12 7.13 36.75 C 5.43 35.09 5.81 32.07 7.67 30.68 C 15.38 23.02 23.02 15.31 30.71 7.63 M 44.33 10.39 C 41.60 11.52 41.15 15.75 43.76 17.26 C 45.84 18.96 49.16 17.56 49.83 15.09 C 50.93 12.05 47.20 8.74 44.33 10.39 Z" />
<path fill="#968176" opacity="1.00" d=" M 32.08 47.09 C 31.30 39.66 37.46 32.49 44.89 32.08 C 52.49 31.27 59.65 37.67 60.00 45.25 L 60.00 46.82 C 59.95 49.35 58.43 51.51 57.95 53.89 C 58.46 54.40 59.49 55.41 60.00 55.92 L 60.00 55.92 C 57.34 56.01 54.67 56.03 52.01 55.99 C 51.96 53.32 51.99 50.65 52.12 47.98 C 53.02 48.96 53.94 49.91 54.89 50.83 C 57.67 45.50 54.93 38.23 49.07 36.51 C 43.32 34.42 36.54 38.86 36.08 44.93 C 35.29 50.68 40.27 55.98 45.97 56.05 C 48.25 55.99 48.47 58.85 46.91 60.00 L 45.20 60.00 C 38.44 59.61 32.47 53.89 32.08 47.09 Z" />
</g>
</svg>
