<?xml version="1.0" encoding="UTF-8" ?>
<!DOCTYPE svg PUBLIC "-//W3C//DTD SVG 1.1//EN" "http://www.w3.org/Graphics/SVG/1.1/DTD/svg11.dtd">
<svg width="60pt" height="60pt" viewBox="0 0 60 60" version="1.1" xmlns="http://www.w3.org/2000/svg">
<g id="#ffffffff">
<path fill="#ffffff" opacity="1.00" d=" M 0.00 0.00 L 60.00 0.00 L 60.00 60.00 L 0.00 60.00 L 0.00 0.00 M 24.45 6.65 C 17.09 8.37 10.71 13.76 7.85 20.77 C 4.61 28.38 5.72 37.65 10.71 44.26 C 15.73 51.16 24.62 54.98 33.08 53.78 C 42.22 52.73 50.28 45.88 52.91 37.09 C 55.58 28.76 53.18 19.11 46.93 13.01 C 41.21 7.17 32.38 4.73 24.45 6.65 Z" />
<path fill="#ffffff" opacity="1.00" d=" M 29.25 10.14 C 30.42 9.57 32.21 10.66 31.94 12.03 C 32.18 13.74 29.59 14.73 28.61 13.37 C 27.53 12.49 27.94 10.60 29.25 10.14 Z" />
<path fill="#ffffff" opacity="1.00" d=" M 19.32 13.24 C 20.82 11.11 24.23 13.51 22.65 15.61 C 21.18 17.71 17.76 15.32 19.32 13.24 Z" />
<path fill="#ffffff" opacity="1.00" d=" M 37.37 13.13 C 39.05 11.17 42.21 13.62 40.60 15.68 C 39.01 17.68 35.73 15.17 37.37 13.13 Z" />
<path fill="#ffffff" opacity="1.00" d=" M 13.23 19.47 C 14.47 17.81 17.57 20.40 16.10 21.88 C 14.85 24.91 10.53 21.19 13.23 19.47 Z" />
<path fill="#ffffff" opacity="1.00" d=" M 44.37 19.49 C 46.17 17.68 48.93 20.95 46.92 22.61 C 44.85 24.26 42.25 20.98 44.37 19.49 Z" />
<path fill="#ffffff" opacity="1.00" d=" M 29.26 20.15 C 29.63 20.16 30.37 20.16 30.75 20.16 C 33.16 22.09 35.30 24.35 37.36 26.63 C 38.38 27.55 38.05 29.27 36.86 29.88 C 34.65 30.41 33.48 28.02 31.97 26.88 C 31.93 30.86 32.23 34.86 31.82 38.83 C 31.14 40.36 28.90 40.35 28.18 38.87 C 27.77 34.88 28.07 30.87 28.03 26.87 C 26.53 28.01 25.38 30.35 23.19 29.91 C 21.98 29.33 21.60 27.64 22.59 26.69 C 24.68 24.39 26.83 22.11 29.26 20.15 Z" />
<path fill="#ffffff" opacity="1.00" d=" M 11.19 28.10 C 13.61 27.18 15.12 30.77 12.84 31.89 C 10.40 32.87 8.83 29.17 11.19 28.10 Z" />
<path fill="#ffffff" opacity="1.00" d=" M 47.22 28.09 C 49.61 27.19 51.10 30.78 48.83 31.91 C 46.38 32.84 44.84 29.14 47.22 28.09 Z" />
<path fill="#ffffff" opacity="1.00" d=" M 13.19 37.32 C 15.26 35.80 17.67 39.06 15.63 40.51 C 13.79 42.37 10.99 38.91 13.19 37.32 Z" />
<path fill="#ffffff" opacity="1.00" d=" M 44.38 37.47 C 46.20 35.65 48.97 39.07 46.84 40.67 C 44.76 42.22 42.31 38.90 44.38 37.47 Z" />
<path fill="#ffffff" opacity="1.00" d=" M 19.39 44.30 C 20.91 42.26 24.29 44.88 22.57 46.70 C 21.27 49.04 17.65 46.35 19.39 44.30 Z" />
<path fill="#ffffff" opacity="1.00" d=" M 37.46 44.39 C 38.88 42.27 42.25 44.79 40.66 46.86 C 39.04 48.94 35.67 46.23 37.46 44.39 Z" />
<path fill="#ffffff" opacity="1.00" d=" M 29.16 46.08 C 31.55 45.12 33.24 48.89 30.76 49.81 C 28.47 50.96 26.84 47.16 29.16 46.08 Z" />
</g>
<g id="#000000ff">
<path fill="#968176" opacity="1.00" d=" M 24.45 6.65 C 32.38 4.73 41.21 7.17 46.93 13.01 C 53.18 19.11 55.58 28.76 52.91 37.09 C 50.28 45.88 42.22 52.73 33.08 53.78 C 24.62 54.98 15.73 51.16 10.71 44.26 C 5.72 37.65 4.61 28.38 7.85 20.77 C 10.71 13.76 17.09 8.37 24.45 6.65 M 29.25 10.14 C 27.94 10.60 27.53 12.49 28.61 13.37 C 29.59 14.73 32.18 13.74 31.94 12.03 C 32.21 10.66 30.42 9.57 29.25 10.14 M 19.32 13.24 C 17.76 15.32 21.18 17.71 22.65 15.61 C 24.23 13.51 20.82 11.11 19.32 13.24 M 37.37 13.13 C 35.73 15.17 39.01 17.68 40.60 15.68 C 42.21 13.62 39.05 11.17 37.37 13.13 M 13.23 19.47 C 10.53 21.19 14.85 24.91 16.10 21.88 C 17.57 20.40 14.47 17.81 13.23 19.47 M 44.37 19.49 C 42.25 20.98 44.85 24.26 46.92 22.61 C 48.93 20.95 46.17 17.68 44.37 19.49 M 29.26 20.15 C 26.83 22.11 24.68 24.39 22.59 26.69 C 21.60 27.64 21.98 29.33 23.19 29.91 C 25.38 30.35 26.53 28.01 28.03 26.87 C 28.07 30.87 27.77 34.88 28.18 38.87 C 28.90 40.35 31.14 40.36 31.82 38.83 C 32.23 34.86 31.93 30.86 31.97 26.88 C 33.48 28.02 34.65 30.41 36.86 29.88 C 38.05 29.27 38.38 27.55 37.36 26.63 C 35.30 24.35 33.16 22.09 30.75 20.16 C 30.37 20.16 29.63 20.16 29.26 20.15 M 11.19 28.10 C 8.83 29.17 10.40 32.87 12.84 31.89 C 15.12 30.77 13.61 27.18 11.19 28.10 M 47.22 28.09 C 44.84 29.14 46.38 32.84 48.83 31.91 C 51.10 30.78 49.61 27.19 47.22 28.09 M 13.19 37.32 C 10.99 38.91 13.79 42.37 15.63 40.51 C 17.67 39.06 15.26 35.80 13.19 37.32 M 44.38 37.47 C 42.31 38.90 44.76 42.22 46.84 40.67 C 48.97 39.07 46.20 35.65 44.38 37.47 M 19.39 44.30 C 17.65 46.35 21.27 49.04 22.57 46.70 C 24.29 44.88 20.91 42.26 19.39 44.30 M 37.46 44.39 C 35.67 46.23 39.04 48.94 40.66 46.86 C 42.25 44.79 38.88 42.27 37.46 44.39 M 29.16 46.08 C 26.84 47.16 28.47 50.96 30.76 49.81 C 33.24 48.89 31.55 45.12 29.16 46.08 Z" />
</g>
</svg>
