<?xml version="1.0" encoding="UTF-8" ?>
<!DOCTYPE svg PUBLIC "-//W3C//DTD SVG 1.1//EN" "http://www.w3.org/Graphics/SVG/1.1/DTD/svg11.dtd">
<svg width="60pt" height="60pt" viewBox="0 0 60 60" version="1.1" xmlns="http://www.w3.org/2000/svg">
<g id="#ffffffff">
<path fill="#ffffff" opacity="1.00" d=" M 0.00 0.00 L 60.00 0.00 L 60.00 37.43 C 59.77 32.66 56.51 28.32 52.04 26.68 C 52.36 19.03 46.61 11.61 39.02 10.29 C 32.21 8.87 24.90 12.52 21.76 18.69 C 15.91 16.22 8.91 20.41 8.07 26.63 C 3.61 28.24 0.30 32.50 0.00 37.25 L 0.00 0.00 Z" />
<path fill="#ffffff" opacity="1.00" d=" M 29.18 24.11 C 31.86 23.61 33.07 26.77 34.94 28.11 C 36.17 29.56 39.28 31.31 37.38 33.40 C 35.24 35.28 33.51 32.06 32.01 30.84 C 31.89 34.82 32.20 38.83 31.85 42.80 C 31.11 44.72 27.91 44.14 28.02 42.04 C 27.97 38.31 28.03 34.57 27.99 30.84 C 26.53 32.33 23.98 35.74 22.14 32.81 C 22.14 32.40 22.14 31.59 22.14 31.19 C 24.34 28.70 26.75 26.38 29.18 24.11 Z" />
<path fill="#ffffff" opacity="1.00" d=" M 0.00 38.38 C 0.12 44.61 5.66 50.01 11.89 49.98 C 23.97 50.01 36.05 50.01 48.13 49.98 C 54.32 50.04 59.75 44.69 60.00 38.54 L 60.00 60.00 L 0.00 60.00 L 0.00 38.38 Z" />
</g>
<g id="#000000ff">
<path fill="#000000" opacity="1.00" d=" M 21.76 18.69 C 24.90 12.52 32.21 8.87 39.02 10.29 C 46.61 11.61 52.36 19.03 52.04 26.68 C 56.51 28.32 59.77 32.66 60.00 37.43 L 60.00 38.54 C 59.75 44.69 54.32 50.04 48.13 49.98 C 36.05 50.01 23.97 50.01 11.89 49.98 C 5.66 50.01 0.12 44.61 0.00 38.38 L 0.00 37.25 C 0.30 32.50 3.61 28.24 8.07 26.63 C 8.91 20.41 15.91 16.22 21.76 18.69 M 29.18 24.11 C 26.75 26.38 24.34 28.70 22.14 31.19 C 22.14 31.59 22.14 32.40 22.14 32.81 C 23.98 35.74 26.53 32.33 27.99 30.84 C 28.03 34.57 27.97 38.31 28.02 42.04 C 27.91 44.14 31.11 44.72 31.85 42.80 C 32.20 38.83 31.89 34.82 32.01 30.84 C 33.51 32.06 35.24 35.28 37.38 33.40 C 39.28 31.31 36.17 29.56 34.94 28.11 C 33.07 26.77 31.86 23.61 29.18 24.11 Z" />
</g>
</svg>
