<?xml version="1.0" encoding="UTF-8" ?>
<!DOCTYPE svg PUBLIC "-//W3C//DTD SVG 1.1//EN" "http://www.w3.org/Graphics/SVG/1.1/DTD/svg11.dtd">
<svg width="60pt" height="60pt" viewBox="0 0 60 60" version="1.1" xmlns="http://www.w3.org/2000/svg">
<g id="#ffffffff">
<path fill="#ffffff" opacity="1.00" d=" M 0.00 0.00 L 60.00 0.00 L 60.00 60.00 L 0.00 60.00 L 0.00 0.00 M 7.37 7.24 C 6.48 8.97 5.61 10.72 4.97 12.57 C 7.88 14.38 10.62 16.45 13.46 18.35 C 11.44 14.64 9.62 10.82 7.37 7.24 M 52.35 7.15 C 50.37 10.91 48.30 14.61 46.36 18.39 C 49.30 16.39 52.21 14.34 55.08 12.24 C 54.21 10.52 53.27 8.84 52.35 7.15 M 30.36 31.78 C 30.75 33.03 31.15 34.28 31.55 35.52 C 32.36 35.99 33.17 36.45 33.98 36.92 L 31.94 37.89 C 34.52 37.71 37.11 37.83 39.70 37.66 C 42.05 36.40 44.33 34.96 46.53 33.44 C 48.24 30.85 49.20 27.84 50.78 25.17 C 50.24 24.83 49.69 24.49 49.14 24.16 C 49.78 23.79 51.06 23.07 51.70 22.71 C 53.08 19.72 55.63 16.57 55.62 13.35 C 47.01 19.23 38.68 25.50 30.36 31.78 M 3.77 13.27 C 5.87 17.00 6.42 22.22 10.60 24.33 C 16.40 28.27 22.12 32.33 27.90 36.30 C 28.43 34.79 28.97 33.29 29.50 31.79 C 21.04 25.47 12.73 18.88 3.77 13.27 M 9.07 24.89 C 10.42 27.61 11.59 30.43 13.03 33.10 C 14.94 34.84 17.31 36.06 19.45 37.51 C 22.15 38.04 24.97 37.60 27.71 37.74 C 21.57 33.36 15.46 28.90 9.07 24.89 M 28.53 39.58 C 25.87 41.34 29.04 45.43 31.40 43.36 C 33.79 41.58 30.87 37.80 28.53 39.58 M 17.85 44.94 C 19.84 46.41 21.82 47.91 23.81 49.39 C 24.43 47.42 25.09 45.45 25.76 43.49 C 24.80 42.65 23.84 41.81 22.89 40.97 C 21.17 42.24 19.32 43.37 17.85 44.94 M 34.06 43.24 C 34.68 45.31 35.30 47.38 36.03 49.41 C 38.05 47.94 40.04 46.41 42.07 44.94 C 40.63 43.32 38.81 42.14 37.13 40.80 C 36.11 41.61 35.09 42.43 34.06 43.24 M 24.74 49.98 C 26.42 51.37 28.15 52.71 29.92 53.99 C 31.69 52.68 33.46 51.37 35.21 50.05 C 33.47 49.00 31.72 47.97 29.96 46.96 C 28.21 47.96 26.48 48.98 24.74 49.98 Z" />
<path fill="#ffffff" opacity="1.00" d=" M 48.23 24.46 C 48.93 25.21 48.84 26.21 47.95 26.77 C 43.92 29.61 39.69 32.21 35.83 35.29 C 35.08 35.34 33.60 35.44 32.85 35.49 C 38.05 31.97 43.80 28.84 48.23 24.46 Z" />
</g>
<g id="#000000ff">
<path fill="#968176" opacity="1.00" d=" M 7.37 7.24 C 9.62 10.82 11.44 14.64 13.46 18.35 C 10.62 16.45 7.88 14.38 4.97 12.57 C 5.61 10.72 6.48 8.97 7.37 7.24 Z" />
<path fill="#968176" opacity="1.00" d=" M 52.35 7.15 C 53.27 8.84 54.21 10.52 55.08 12.24 C 52.21 14.34 49.30 16.39 46.36 18.39 C 48.30 14.61 50.37 10.91 52.35 7.15 Z" />
<path fill="#968176" opacity="1.00" d=" M 30.36 31.78 C 38.68 25.50 47.01 19.23 55.62 13.35 C 55.63 16.57 53.08 19.72 51.70 22.71 C 51.06 23.07 49.78 23.79 49.14 24.16 C 49.69 24.49 50.24 24.83 50.78 25.17 C 49.20 27.84 48.24 30.85 46.53 33.44 C 44.33 34.96 42.05 36.40 39.70 37.66 C 37.11 37.83 34.52 37.71 31.94 37.89 L 33.98 36.92 C 33.17 36.45 32.36 35.99 31.55 35.52 C 31.15 34.28 30.75 33.03 30.36 31.78 M 48.23 24.46 C 43.80 28.84 38.05 31.97 32.85 35.49 C 33.60 35.44 35.08 35.34 35.83 35.29 C 39.69 32.21 43.92 29.61 47.95 26.77 C 48.84 26.21 48.93 25.21 48.23 24.46 Z" />
<path fill="#968176" opacity="1.00" d=" M 3.77 13.27 C 12.73 18.88 21.04 25.47 29.50 31.79 C 28.97 33.29 28.43 34.79 27.90 36.30 C 22.12 32.33 16.40 28.27 10.60 24.33 C 6.42 22.22 5.87 17.00 3.77 13.27 Z" />
<path fill="#968176" opacity="1.00" d=" M 9.07 24.89 C 15.46 28.90 21.57 33.36 27.71 37.74 C 24.97 37.60 22.15 38.04 19.45 37.51 C 17.31 36.06 14.94 34.84 13.03 33.10 C 11.59 30.43 10.42 27.61 9.07 24.89 Z" />
<path fill="#968176" opacity="1.00" d=" M 28.53 39.58 C 30.87 37.80 33.79 41.58 31.40 43.36 C 29.04 45.43 25.87 41.34 28.53 39.58 Z" />
<path fill="#968176" opacity="1.00" d=" M 17.85 44.94 C 19.32 43.37 21.17 42.24 22.89 40.97 C 23.84 41.81 24.80 42.65 25.76 43.49 C 25.09 45.45 24.43 47.42 23.81 49.39 C 21.82 47.91 19.84 46.41 17.85 44.94 Z" />
<path fill="#968176" opacity="1.00" d=" M 34.06 43.24 C 35.09 42.43 36.11 41.61 37.13 40.80 C 38.81 42.14 40.63 43.32 42.07 44.94 C 40.04 46.41 38.05 47.94 36.03 49.41 C 35.30 47.38 34.68 45.31 34.06 43.24 Z" />
<path fill="#968176" opacity="1.00" d=" M 24.74 49.98 C 26.48 48.98 28.21 47.96 29.96 46.96 C 31.72 47.97 33.47 49.00 35.21 50.05 C 33.46 51.37 31.69 52.68 29.92 53.99 C 28.15 52.71 26.42 51.37 24.74 49.98 Z" />
</g>
</svg>
