<?xml version="1.0" encoding="UTF-8" ?>
<!DOCTYPE svg PUBLIC "-//W3C//DTD SVG 1.1//EN" "http://www.w3.org/Graphics/SVG/1.1/DTD/svg11.dtd">
<svg width="60pt" height="60pt" viewBox="0 0 60 60" version="1.1" xmlns="http://www.w3.org/2000/svg">
<g id="#ffffffff">
<path fill="#ffffff" opacity="1.00" d=" M 0.00 0.00 L 60.00 0.00 L 60.00 60.00 L 0.00 60.00 L 0.00 0.00 M 13.86 11.98 C 9.93 12.04 5.89 14.15 5.75 18.55 C 9.22 17.96 13.20 17.54 16.20 19.79 C 18.09 21.33 20.14 22.64 22.31 23.76 C 18.00 27.58 13.12 22.69 8.69 21.81 C 9.27 23.84 9.85 26.04 11.49 27.51 C 14.26 30.22 18.35 30.26 21.92 31.00 C 20.67 36.30 18.24 41.36 18.11 46.89 C 18.21 48.54 17.35 50.92 19.22 51.87 C 22.35 52.43 24.99 50.15 27.59 48.79 C 29.16 50.00 30.52 52.51 32.85 51.83 C 34.56 50.64 35.29 48.59 36.21 46.81 C 37.73 46.80 39.32 47.23 40.78 46.68 C 42.55 45.34 42.43 42.93 42.71 40.95 C 44.36 40.63 46.35 40.93 47.69 39.70 C 48.91 37.94 47.88 35.79 47.68 33.89 C 50.11 32.59 52.63 30.23 51.85 27.16 C 50.20 25.27 46.92 25.73 45.40 23.60 C 43.02 19.92 41.75 15.53 38.71 12.27 C 34.14 7.12 26.68 5.18 20.04 6.38 C 17.05 6.89 14.91 9.25 13.86 11.98 Z" />
<path fill="#ffffff" opacity="1.00" d=" M 17.94 11.96 C 21.48 8.91 26.63 9.91 30.68 11.25 C 36.58 13.42 38.72 19.77 41.39 24.85 C 42.52 27.33 45.13 28.44 47.37 29.67 C 45.80 30.32 43.42 30.15 42.63 31.99 C 42.88 33.66 43.65 35.18 44.23 36.75 C 42.39 36.90 40.01 35.94 38.56 37.49 C 38.15 39.29 38.51 41.16 38.47 42.99 C 36.83 42.82 35.10 41.98 33.46 42.51 C 32.14 43.53 32.17 45.45 31.53 46.89 C 30.37 45.95 29.59 44.22 27.99 43.98 C 25.89 44.79 24.11 46.20 22.19 47.34 C 22.35 41.45 25.11 36.13 26.00 30.38 C 27.33 28.87 29.29 27.28 28.87 25.00 C 28.46 22.50 26.14 21.14 24.30 19.74 C 21.40 17.87 19.94 14.64 17.94 11.96 M 21.70 14.09 C 22.71 15.00 23.44 16.68 25.02 16.58 C 26.59 16.64 27.33 14.99 28.33 14.09 C 26.12 14.00 23.91 14.01 21.70 14.09 Z" />
</g>
<g id="#000000ff">
<path fill="#000000" opacity="1.00" d=" M 13.86 11.98 C 14.91 9.25 17.05 6.89 20.04 6.38 C 26.68 5.18 34.14 7.12 38.71 12.27 C 41.75 15.53 43.02 19.92 45.40 23.60 C 46.92 25.73 50.20 25.27 51.85 27.16 C 52.63 30.23 50.11 32.59 47.68 33.89 C 47.88 35.79 48.91 37.94 47.69 39.70 C 46.35 40.93 44.36 40.63 42.71 40.95 C 42.43 42.93 42.55 45.34 40.78 46.68 C 39.32 47.23 37.73 46.80 36.21 46.81 C 35.29 48.59 34.56 50.64 32.85 51.83 C 30.52 52.51 29.16 50.00 27.59 48.79 C 24.99 50.15 22.35 52.43 19.22 51.87 C 17.35 50.92 18.21 48.54 18.11 46.89 C 18.24 41.36 20.67 36.30 21.92 31.00 C 18.35 30.26 14.26 30.22 11.49 27.51 C 9.85 26.04 9.27 23.84 8.69 21.81 C 13.12 22.69 18.00 27.58 22.31 23.76 C 20.14 22.64 18.09 21.33 16.20 19.79 C 13.20 17.54 9.22 17.96 5.75 18.55 C 5.89 14.15 9.93 12.04 13.86 11.98 M 17.94 11.96 C 19.94 14.64 21.40 17.87 24.30 19.74 C 26.14 21.14 28.46 22.50 28.87 25.00 C 29.29 27.28 27.33 28.87 26.00 30.38 C 25.11 36.13 22.35 41.45 22.19 47.34 C 24.11 46.20 25.89 44.79 27.99 43.98 C 29.59 44.22 30.37 45.95 31.53 46.89 C 32.17 45.45 32.14 43.53 33.46 42.51 C 35.10 41.98 36.83 42.82 38.47 42.99 C 38.51 41.16 38.15 39.29 38.56 37.49 C 40.01 35.94 42.39 36.90 44.23 36.75 C 43.65 35.18 42.88 33.66 42.63 31.99 C 43.42 30.15 45.80 30.32 47.37 29.67 C 45.13 28.44 42.52 27.33 41.39 24.85 C 38.72 19.77 36.58 13.42 30.68 11.25 C 26.63 9.91 21.48 8.91 17.94 11.96 Z" />
<path fill="#000000" opacity="1.00" d=" M 21.70 14.09 C 23.91 14.01 26.12 14.00 28.33 14.09 C 27.33 14.99 26.59 16.64 25.02 16.58 C 23.44 16.68 22.71 15.00 21.70 14.09 Z" />
</g>
</svg>
