<?xml version="1.0" encoding="UTF-8" ?>
<!DOCTYPE svg PUBLIC "-//W3C//DTD SVG 1.1//EN" "http://www.w3.org/Graphics/SVG/1.1/DTD/svg11.dtd">
<svg width="60pt" height="60pt" viewBox="0 0 60 60" version="1.1" xmlns="http://www.w3.org/2000/svg">
<g id="#ffffffff">
<path fill="#ffffff" opacity="1.00" d=" M 0.00 0.00 L 60.00 0.00 L 60.00 60.00 L 0.00 60.00 L 0.00 0.00 M 24.47 6.65 C 16.88 8.41 10.35 14.10 7.61 21.39 C 5.03 27.98 5.60 35.71 9.13 41.84 C 12.75 48.27 19.49 52.85 26.83 53.77 C 33.88 54.75 41.33 52.38 46.46 47.43 C 51.74 42.51 54.57 35.11 53.89 27.92 C 53.35 21.14 49.72 14.69 44.23 10.68 C 38.66 6.51 31.22 5.04 24.47 6.65 Z" />
<path fill="#ffffff" opacity="1.00" d=" M 28.00 14.00 C 29.33 14.00 30.67 14.00 32.00 14.00 C 32.00 15.40 32.00 16.80 32.01 18.19 C 35.41 18.92 38.39 21.27 38.84 24.90 C 37.37 24.92 35.91 24.93 34.44 24.93 C 33.42 21.93 29.34 21.05 26.99 22.99 C 25.81 23.92 25.91 26.01 27.35 26.66 C 30.47 28.16 34.31 27.82 37.12 30.01 C 39.86 32.25 39.60 36.84 37.26 39.28 C 35.91 40.81 33.85 41.21 32.01 41.83 C 32.00 43.22 32.00 44.61 32.00 46.00 C 30.67 46.00 29.33 46.00 28.00 46.00 C 28.00 44.61 27.99 43.23 27.99 41.84 C 24.42 41.25 21.10 38.85 20.76 35.01 C 22.23 35.01 23.71 35.01 25.19 35.02 C 26.61 38.77 33.69 39.31 34.39 34.97 C 33.43 31.87 29.35 32.43 26.86 31.43 C 23.43 30.93 20.72 27.59 21.52 24.08 C 21.85 20.72 25.05 18.94 27.99 18.20 C 28.00 16.80 28.00 15.40 28.00 14.00 Z" />
</g>
<g id="#000000ff">
<path fill="#000000" opacity="1.00" d=" M 24.47 6.65 C 31.22 5.04 38.66 6.51 44.23 10.68 C 49.72 14.69 53.35 21.14 53.89 27.92 C 54.57 35.11 51.74 42.51 46.46 47.43 C 41.33 52.38 33.88 54.75 26.83 53.77 C 19.49 52.85 12.75 48.27 9.13 41.84 C 5.60 35.71 5.03 27.98 7.61 21.39 C 10.35 14.10 16.88 8.41 24.47 6.65 M 28.00 14.00 C 28.00 15.40 28.00 16.80 27.99 18.20 C 25.05 18.94 21.85 20.72 21.52 24.08 C 20.72 27.59 23.43 30.93 26.86 31.43 C 29.35 32.43 33.43 31.87 34.39 34.97 C 33.69 39.31 26.61 38.77 25.19 35.02 C 23.71 35.01 22.23 35.01 20.76 35.01 C 21.10 38.85 24.42 41.25 27.99 41.84 C 27.99 43.23 28.00 44.61 28.00 46.00 C 29.33 46.00 30.67 46.00 32.00 46.00 C 32.00 44.61 32.00 43.22 32.01 41.83 C 33.85 41.21 35.91 40.81 37.26 39.28 C 39.60 36.84 39.86 32.25 37.12 30.01 C 34.31 27.82 30.47 28.16 27.35 26.66 C 25.91 26.01 25.81 23.92 26.99 22.99 C 29.34 21.05 33.42 21.93 34.44 24.93 C 35.91 24.93 37.37 24.92 38.84 24.90 C 38.39 21.27 35.41 18.92 32.01 18.19 C 32.00 16.80 32.00 15.40 32.00 14.00 C 30.67 14.00 29.33 14.00 28.00 14.00 Z" />
</g>
</svg>
