<?xml version="1.0" encoding="UTF-8" ?>
<!DOCTYPE svg PUBLIC "-//W3C//DTD SVG 1.1//EN" "http://www.w3.org/Graphics/SVG/1.1/DTD/svg11.dtd">
<svg width="64pt" height="64pt" viewBox="0 0 64 64" version="1.1" xmlns="http://www.w3.org/2000/svg">
<g id="#ffffffff">
<path fill="#ffffff" opacity="1.00" d=" M 0.00 0.00 L 64.00 0.00 L 64.00 64.00 L 0.00 64.00 L 0.00 0.00 M 6.00 14.00 C 6.00 20.67 6.00 27.33 6.00 34.00 C 23.33 34.00 40.67 34.00 58.00 34.00 C 58.00 32.67 58.00 31.33 58.00 30.00 C 50.00 30.00 42.00 30.00 34.00 30.00 C 34.00 28.67 34.00 27.33 34.00 26.00 C 42.00 26.00 50.00 26.00 58.00 26.00 C 58.00 24.67 58.00 23.33 58.00 22.00 C 50.00 22.00 42.00 22.00 34.00 22.00 C 34.00 20.67 34.00 19.33 34.00 18.00 C 42.00 18.00 50.00 18.00 58.00 18.00 C 58.00 16.67 58.00 15.33 58.00 14.00 C 40.67 14.00 23.33 14.00 6.00 14.00 M 6.00 38.00 C 6.00 39.33 6.00 40.67 6.00 42.00 C 23.33 42.00 40.67 42.00 58.00 42.00 C 58.00 40.67 58.00 39.33 58.00 38.00 C 40.67 38.00 23.33 38.00 6.00 38.00 M 6.00 46.00 C 6.00 47.33 6.00 48.67 6.00 50.00 C 23.33 50.00 40.67 50.00 58.00 50.00 C 58.00 48.67 58.00 47.33 58.00 46.00 C 40.67 46.00 23.33 46.00 6.00 46.00 Z" />
<path fill="#ffffff" opacity="1.00" d=" M 9.20 16.19 C 11.53 15.00 13.20 18.92 10.80 19.89 C 8.46 20.91 6.80 17.12 9.20 16.19 Z" />
<path fill="#ffffff" opacity="1.00" d=" M 17.16 16.12 C 19.53 15.07 21.24 18.91 18.78 19.80 C 16.47 20.98 14.81 17.13 17.16 16.12 Z" />
<path fill="#ffffff" opacity="1.00" d=" M 25.17 16.19 C 27.46 14.93 29.29 19.00 26.75 19.81 C 24.51 21.00 22.76 17.07 25.17 16.19 Z" />
<path fill="#ffffff" opacity="1.00" d=" M 13.23 22.11 C 15.61 21.18 17.07 24.74 14.88 25.89 C 12.43 26.90 10.79 23.15 13.23 22.11 Z" />
<path fill="#ffffff" opacity="1.00" d=" M 21.16 22.13 C 23.55 21.13 25.09 24.67 22.90 25.88 C 20.48 26.91 18.81 23.24 21.16 22.13 Z" />
<path fill="#ffffff" opacity="1.00" d=" M 29.16 22.09 C 31.56 21.13 33.20 24.84 30.79 25.84 C 28.40 26.91 26.88 23.17 29.16 22.09 Z" />
<path fill="#ffffff" opacity="1.00" d=" M 9.21 28.16 C 10.38 27.55 12.27 28.66 11.92 30.04 C 12.23 31.72 9.59 32.71 8.63 31.39 C 7.53 30.54 7.93 28.63 9.21 28.16 Z" />
<path fill="#ffffff" opacity="1.00" d=" M 17.19 28.12 C 19.55 27.10 21.20 30.87 18.80 31.81 C 16.46 32.99 14.79 29.09 17.19 28.12 Z" />
<path fill="#ffffff" opacity="1.00" d=" M 25.06 28.10 C 27.48 27.10 29.17 30.66 26.86 31.90 C 24.46 32.86 22.93 29.39 25.06 28.10 Z" />
</g>
<g id="#000000ff">
<path fill="#000000" opacity="1.00" d=" M 6.00 14.00 C 23.33 14.00 40.67 14.00 58.00 14.00 C 58.00 15.33 58.00 16.67 58.00 18.00 C 50.00 18.00 42.00 18.00 34.00 18.00 C 34.00 19.33 34.00 20.67 34.00 22.00 C 42.00 22.00 50.00 22.00 58.00 22.00 C 58.00 23.33 58.00 24.67 58.00 26.00 C 50.00 26.00 42.00 26.00 34.00 26.00 C 34.00 27.33 34.00 28.67 34.00 30.00 C 42.00 30.00 50.00 30.00 58.00 30.00 C 58.00 31.33 58.00 32.67 58.00 34.00 C 40.67 34.00 23.33 34.00 6.00 34.00 C 6.00 27.33 6.00 20.67 6.00 14.00 M 9.20 16.19 C 6.80 17.12 8.46 20.91 10.80 19.89 C 13.20 18.92 11.53 15.00 9.20 16.19 M 17.16 16.12 C 14.81 17.13 16.47 20.98 18.78 19.80 C 21.24 18.91 19.53 15.07 17.16 16.12 M 25.17 16.19 C 22.76 17.07 24.51 21.00 26.75 19.81 C 29.29 19.00 27.46 14.93 25.17 16.19 M 13.23 22.11 C 10.79 23.15 12.43 26.90 14.88 25.89 C 17.07 24.74 15.61 21.18 13.23 22.11 M 21.16 22.13 C 18.81 23.24 20.48 26.91 22.90 25.88 C 25.09 24.67 23.55 21.13 21.16 22.13 M 29.16 22.09 C 26.88 23.17 28.40 26.91 30.79 25.84 C 33.20 24.84 31.56 21.13 29.16 22.09 M 9.21 28.16 C 7.93 28.63 7.53 30.54 8.63 31.39 C 9.59 32.71 12.23 31.72 11.92 30.04 C 12.27 28.66 10.38 27.55 9.21 28.16 M 17.19 28.12 C 14.79 29.09 16.46 32.99 18.80 31.81 C 21.20 30.87 19.55 27.10 17.19 28.12 M 25.06 28.10 C 22.93 29.39 24.46 32.86 26.86 31.90 C 29.17 30.66 27.48 27.10 25.06 28.10 Z" />
<path fill="#000000" opacity="1.00" d=" M 6.00 38.00 C 23.33 38.00 40.67 38.00 58.00 38.00 C 58.00 39.33 58.00 40.67 58.00 42.00 C 40.67 42.00 23.33 42.00 6.00 42.00 C 6.00 40.67 6.00 39.33 6.00 38.00 Z" />
<path fill="#000000" opacity="1.00" d=" M 6.00 46.00 C 23.33 46.00 40.67 46.00 58.00 46.00 C 58.00 47.33 58.00 48.67 58.00 50.00 C 40.67 50.00 23.33 50.00 6.00 50.00 C 6.00 48.67 6.00 47.33 6.00 46.00 Z" />
</g>
</svg>
