<?xml version="1.0" encoding="UTF-8" ?>
<!DOCTYPE svg PUBLIC "-//W3C//DTD SVG 1.1//EN" "http://www.w3.org/Graphics/SVG/1.1/DTD/svg11.dtd">
<svg width="64pt" height="64pt" viewBox="0 0 64 64" version="1.1" xmlns="http://www.w3.org/2000/svg">
<g id="#ffffffff">
<path fill="#ffffff" opacity="1.00" d=" M 0.00 0.00 L 64.00 0.00 L 64.00 64.00 L 0.00 64.00 L 0.00 0.00 M 17.00 10.00 C 14.66 13.09 12.34 16.20 10.01 19.30 C 9.97 22.82 9.65 26.48 11.17 29.78 C 12.45 32.38 11.26 35.18 10.79 37.83 C 9.47 43.12 10.16 48.61 10.00 54.00 C 13.33 53.98 16.67 54.03 20.00 54.01 C 25.38 54.00 30.61 52.49 35.96 52.18 C 39.00 52.54 41.85 53.92 44.94 53.98 C 47.96 54.08 50.98 53.96 54.00 54.00 C 53.83 48.82 54.51 43.55 53.33 38.45 C 52.79 35.68 51.72 32.76 52.96 30.02 C 54.27 26.59 54.05 22.89 53.99 19.30 C 51.67 16.19 49.35 13.08 47.00 9.99 C 37.00 10.01 27.00 10.00 17.00 10.00 Z" />
<path fill="#ffffff" opacity="1.00" d=" M 19.00 14.00 C 22.25 14.00 25.50 14.00 28.75 14.00 C 28.08 15.33 27.42 16.66 26.76 18.00 C 23.17 18.00 19.59 18.00 16.00 17.99 C 17.00 16.66 18.01 15.33 19.00 14.00 Z" />
<path fill="#ffffff" opacity="1.00" d=" M 33.25 14.01 C 37.16 14.00 41.08 14.00 45.00 14.00 C 45.99 15.33 46.99 16.66 48.00 18.00 C 42.42 18.01 36.84 18.00 31.26 18.00 C 31.92 16.67 32.58 15.34 33.25 14.01 Z" />
<path fill="#ffffff" opacity="1.00" d=" M 13.95 22.00 C 25.98 22.00 38.02 22.00 50.06 22.00 C 50.14 28.05 47.40 33.63 46.06 39.44 C 47.31 39.80 48.56 40.16 49.81 40.53 C 50.05 43.68 50.04 46.84 49.99 50.00 C 42.58 50.62 35.66 47.43 28.51 46.07 C 28.30 46.83 27.90 48.35 27.69 49.11 C 23.19 50.02 18.59 50.12 14.01 49.99 C 13.41 43.86 14.83 37.90 15.92 31.93 C 15.14 28.64 13.54 25.49 13.95 22.00 M 25.05 26.13 C 22.97 26.86 23.74 30.30 25.95 29.96 C 30.26 29.97 34.59 30.23 38.87 29.80 C 40.73 29.05 40.11 25.88 38.04 26.08 C 33.72 25.94 29.37 25.89 25.05 26.13 Z" />
</g>
<g id="#000000ff">
<path fill="#000000" opacity="1.00" d=" M 17.00 10.00 C 27.00 10.00 37.00 10.01 47.00 9.99 C 49.35 13.08 51.67 16.19 53.99 19.30 C 54.05 22.89 54.27 26.59 52.96 30.02 C 51.72 32.76 52.79 35.68 53.33 38.45 C 54.51 43.55 53.83 48.82 54.00 54.00 C 50.98 53.96 47.96 54.08 44.94 53.98 C 41.85 53.92 39.00 52.54 35.96 52.18 C 30.61 52.49 25.38 54.00 20.00 54.01 C 16.67 54.03 13.33 53.98 10.00 54.00 C 10.16 48.61 9.47 43.12 10.79 37.83 C 11.26 35.18 12.45 32.38 11.17 29.78 C 9.65 26.48 9.97 22.82 10.01 19.30 C 12.34 16.20 14.66 13.09 17.00 10.00 M 19.00 14.00 C 18.01 15.33 17.00 16.66 16.00 17.99 C 19.59 18.00 23.17 18.00 26.76 18.00 C 27.42 16.66 28.08 15.33 28.75 14.00 C 25.50 14.00 22.25 14.00 19.00 14.00 M 33.25 14.01 C 32.58 15.34 31.92 16.67 31.26 18.00 C 36.84 18.00 42.42 18.01 48.00 18.00 C 46.99 16.66 45.99 15.33 45.00 14.00 C 41.08 14.00 37.16 14.00 33.25 14.01 M 13.95 22.00 C 13.54 25.49 15.14 28.64 15.92 31.93 C 14.83 37.90 13.41 43.86 14.01 49.99 C 18.59 50.12 23.19 50.02 27.69 49.11 C 27.90 48.35 28.30 46.83 28.51 46.07 C 35.66 47.43 42.58 50.62 49.99 50.00 C 50.04 46.84 50.05 43.68 49.81 40.53 C 48.56 40.16 47.31 39.80 46.06 39.44 C 47.40 33.63 50.14 28.05 50.06 22.00 C 38.02 22.00 25.98 22.00 13.95 22.00 Z" />
<path fill="#000000" opacity="1.00" d=" M 25.05 26.13 C 29.37 25.89 33.72 25.94 38.04 26.08 C 40.11 25.88 40.73 29.05 38.87 29.80 C 34.59 30.23 30.26 29.97 25.95 29.96 C 23.74 30.30 22.97 26.86 25.05 26.13 Z" />
</g>
</svg>
