<?xml version="1.0" encoding="UTF-8" ?>
<!DOCTYPE svg PUBLIC "-//W3C//DTD SVG 1.1//EN" "http://www.w3.org/Graphics/SVG/1.1/DTD/svg11.dtd">
<svg width="60pt" height="60pt" viewBox="0 0 60 60" version="1.1" xmlns="http://www.w3.org/2000/svg">
<g id="#ffffffff">
<path fill="#ffffff" opacity="1.00" d=" M 0.00 0.00 L 60.00 0.00 L 60.00 60.00 L 0.00 60.00 L 0.00 0.00 M 18.56 6.87 C 15.61 7.38 12.48 7.48 9.74 8.74 C 7.61 10.08 8.06 12.87 7.98 15.01 C 8.12 20.96 7.49 27.09 9.34 32.85 C 12.14 41.98 19.43 49.18 27.84 53.38 C 29.15 54.14 30.79 54.16 32.11 53.42 C 40.12 49.43 47.08 42.74 50.19 34.23 C 52.75 27.43 51.85 20.04 51.99 12.94 C 52.22 10.89 51.13 8.57 48.95 8.18 C 38.99 6.02 28.66 5.32 18.56 6.87 Z" />
<path fill="#ffffff" opacity="1.00" d=" M 27.44 14.65 C 29.87 13.03 32.45 14.94 34.38 16.41 C 36.12 18.54 35.09 21.48 35.35 23.98 C 34.30 25.52 33.25 27.06 31.89 28.35 C 31.50 31.73 35.36 31.92 37.48 33.37 C 39.23 34.22 39.55 36.25 40.05 37.91 C 33.35 38.06 26.65 38.05 19.95 37.91 C 20.09 33.52 24.58 32.55 27.65 30.72 C 27.76 30.13 27.99 28.94 28.11 28.35 C 26.76 27.06 25.71 25.51 24.65 23.99 C 24.65 20.75 23.94 16.43 27.44 14.65 Z" />
</g>
<g id="#000000ff">
<path fill="#000000" opacity="1.00" d=" M 18.56 6.87 C 28.66 5.32 38.99 6.02 48.95 8.18 C 51.13 8.57 52.22 10.89 51.99 12.94 C 51.85 20.04 52.75 27.43 50.19 34.23 C 47.08 42.74 40.12 49.43 32.11 53.42 C 30.79 54.16 29.15 54.14 27.84 53.38 C 19.43 49.18 12.14 41.98 9.34 32.85 C 7.49 27.09 8.12 20.96 7.98 15.01 C 8.06 12.87 7.61 10.08 9.74 8.74 C 12.48 7.48 15.61 7.38 18.56 6.87 M 27.44 14.65 C 23.94 16.43 24.65 20.75 24.65 23.99 C 25.71 25.51 26.76 27.06 28.11 28.35 C 27.99 28.94 27.76 30.13 27.65 30.72 C 24.58 32.55 20.09 33.52 19.95 37.91 C 26.65 38.05 33.35 38.06 40.05 37.91 C 39.55 36.25 39.23 34.22 37.48 33.37 C 35.36 31.92 31.50 31.73 31.89 28.35 C 33.25 27.06 34.30 25.52 35.35 23.98 C 35.09 21.48 36.12 18.54 34.38 16.41 C 32.45 14.94 29.87 13.03 27.44 14.65 Z" />
</g>
</svg>
