<?xml version="1.0" encoding="UTF-8" ?>
<!DOCTYPE svg PUBLIC "-//W3C//DTD SVG 1.1//EN" "http://www.w3.org/Graphics/SVG/1.1/DTD/svg11.dtd">
<svg width="64pt" height="64pt" viewBox="0 0 64 64" version="1.1" xmlns="http://www.w3.org/2000/svg">
<g id="#ffffffff">
<path fill="#ffffff" opacity="1.00" d=" M 0.00 0.00 L 64.00 0.00 L 64.00 64.00 L 0.00 64.00 L 0.00 0.00 M 12.00 6.00 C 12.00 23.33 12.00 40.67 12.00 58.00 C 25.33 58.00 38.67 58.00 52.00 58.00 C 51.99 47.65 52.03 37.30 51.98 26.95 C 53.29 25.55 54.67 24.22 56.00 22.84 C 56.00 17.22 56.00 11.61 56.00 6.00 C 41.33 6.00 26.67 6.00 12.00 6.00 Z" />
<path fill="#ffffff" opacity="1.00" d=" M 16.00 10.00 C 25.33 10.00 34.67 10.00 44.00 10.00 C 44.00 14.28 43.99 18.57 44.00 22.85 C 45.34 24.22 46.71 25.56 48.03 26.95 C 47.97 35.97 48.02 44.98 48.00 54.00 C 37.33 54.00 26.67 54.00 16.00 54.00 C 16.00 39.33 16.00 24.67 16.00 10.00 M 25.45 25.44 C 23.12 28.55 23.88 32.88 26.27 35.73 C 23.73 37.77 22.11 40.71 21.85 43.98 C 23.17 43.99 24.49 44.00 25.81 44.00 C 26.20 40.87 28.62 37.88 32.00 38.00 C 35.38 37.88 37.78 40.87 38.19 44.00 C 39.51 44.00 40.83 43.99 42.14 43.97 C 41.85 40.72 40.24 37.77 37.74 35.68 C 40.35 32.69 40.85 27.93 38.09 24.86 C 34.98 20.88 28.19 21.19 25.45 25.44 Z" />
<path fill="#ffffff" opacity="1.00" d=" M 48.00 10.00 C 49.33 10.00 50.67 10.00 52.00 10.00 C 52.00 13.68 51.99 17.36 52.02 21.04 C 51.36 21.74 50.70 22.44 50.04 23.13 C 49.35 22.45 48.66 21.77 47.98 21.09 C 48.01 17.39 48.00 13.70 48.00 10.00 Z" />
<path fill="#ffffff" opacity="1.00" d=" M 30.37 26.33 C 32.87 25.10 36.14 27.20 35.99 30.00 C 36.17 33.13 32.13 35.20 29.68 33.26 C 27.17 31.66 27.59 27.41 30.37 26.33 Z" />
</g>
<g id="#000000ff">
<path fill="#000000" opacity="1.00" d=" M 12.00 6.00 C 26.67 6.00 41.33 6.00 56.00 6.00 C 56.00 11.61 56.00 17.22 56.00 22.84 C 54.67 24.22 53.29 25.55 51.98 26.95 C 52.03 37.30 51.99 47.65 52.00 58.00 C 38.67 58.00 25.33 58.00 12.00 58.00 C 12.00 40.67 12.00 23.33 12.00 6.00 M 16.00 10.00 C 16.00 24.67 16.00 39.33 16.00 54.00 C 26.67 54.00 37.33 54.00 48.00 54.00 C 48.02 44.98 47.97 35.97 48.03 26.95 C 46.71 25.56 45.34 24.22 44.00 22.85 C 43.99 18.57 44.00 14.28 44.00 10.00 C 34.67 10.00 25.33 10.00 16.00 10.00 M 48.00 10.00 C 48.00 13.70 48.01 17.39 47.98 21.09 C 48.66 21.77 49.35 22.45 50.04 23.13 C 50.70 22.44 51.36 21.74 52.02 21.04 C 51.99 17.36 52.00 13.68 52.00 10.00 C 50.67 10.00 49.33 10.00 48.00 10.00 Z" />
<path fill="#000000" opacity="1.00" d=" M 25.45 25.44 C 28.19 21.19 34.98 20.88 38.09 24.86 C 40.85 27.93 40.35 32.69 37.74 35.68 C 40.24 37.77 41.85 40.72 42.14 43.97 C 40.83 43.99 39.51 44.00 38.19 44.00 C 37.78 40.87 35.38 37.88 32.00 38.00 C 28.62 37.88 26.20 40.87 25.81 44.00 C 24.49 44.00 23.17 43.99 21.85 43.98 C 22.11 40.71 23.73 37.77 26.27 35.73 C 23.88 32.88 23.12 28.55 25.45 25.44 M 30.37 26.33 C 27.59 27.41 27.17 31.66 29.68 33.26 C 32.13 35.20 36.17 33.13 35.99 30.00 C 36.14 27.20 32.87 25.10 30.37 26.33 Z" />
</g>
</svg>
