<?xml version="1.0" encoding="UTF-8" ?>
<!DOCTYPE svg PUBLIC "-//W3C//DTD SVG 1.1//EN" "http://www.w3.org/Graphics/SVG/1.1/DTD/svg11.dtd">
<svg width="60pt" height="60pt" viewBox="0 0 60 60" version="1.1" xmlns="http://www.w3.org/2000/svg">
<g id="#ffffffff">
<path fill="#ffffff" opacity="1.00" d=" M 0.00 0.00 L 60.00 0.00 L 60.00 60.00 L 0.00 60.00 L 0.00 0.00 M 4.00 10.94 C 4.03 22.67 3.93 34.40 4.05 46.13 C 3.96 48.63 6.57 50.31 8.87 50.00 C 23.29 49.97 37.71 50.07 52.13 49.95 C 54.59 49.98 56.34 47.44 56.00 45.11 C 55.97 34.72 56.06 24.32 55.96 13.92 C 55.98 11.90 54.19 9.97 52.12 10.05 C 42.23 9.91 32.33 10.08 22.44 9.97 C 21.41 8.57 20.67 6.57 18.78 6.17 C 15.16 5.82 11.50 5.99 7.87 6.05 C 5.38 6.01 3.64 8.60 4.00 10.94 Z" />
<path fill="#ffffff" opacity="1.00" d=" M 25.44 22.34 C 27.45 18.75 33.18 19.77 34.75 23.17 C 35.44 26.44 34.51 29.91 32.01 32.19 C 32.02 32.86 32.05 34.21 32.06 34.88 C 34.94 36.29 39.11 36.42 40.27 39.95 C 33.42 40.03 26.57 40.03 19.72 39.96 C 20.87 36.41 25.06 36.29 27.94 34.88 C 27.95 34.19 27.98 32.81 27.99 32.12 C 25.29 29.76 24.18 25.69 25.44 22.34 Z" />
</g>
<g id="#000000ff">
<path fill="#000000" opacity="1.00" d=" M 4.00 10.94 C 3.64 8.60 5.38 6.01 7.87 6.05 C 11.50 5.99 15.16 5.82 18.78 6.17 C 20.67 6.57 21.41 8.57 22.44 9.97 C 32.33 10.08 42.23 9.91 52.12 10.05 C 54.19 9.97 55.98 11.90 55.96 13.92 C 56.06 24.32 55.97 34.72 56.00 45.11 C 56.34 47.44 54.59 49.98 52.13 49.95 C 37.71 50.07 23.29 49.97 8.87 50.00 C 6.57 50.31 3.96 48.63 4.05 46.13 C 3.93 34.40 4.03 22.67 4.00 10.94 M 25.44 22.34 C 24.18 25.69 25.29 29.76 27.99 32.12 C 27.98 32.81 27.95 34.19 27.94 34.88 C 25.06 36.29 20.87 36.41 19.72 39.96 C 26.57 40.03 33.42 40.03 40.27 39.95 C 39.11 36.42 34.94 36.29 32.06 34.88 C 32.05 34.21 32.02 32.86 32.01 32.19 C 34.51 29.91 35.44 26.44 34.75 23.17 C 33.18 19.77 27.45 18.75 25.44 22.34 Z" />
</g>
</svg>
