<?xml version="1.0" encoding="UTF-8" ?>
<!DOCTYPE svg PUBLIC "-//W3C//DTD SVG 1.1//EN" "http://www.w3.org/Graphics/SVG/1.1/DTD/svg11.dtd">
<svg width="60pt" height="60pt" viewBox="0 0 60 60" version="1.1" xmlns="http://www.w3.org/2000/svg">
<g id="#ffffffff">
<path fill="#ffffff" opacity="1.00" d=" M 0.00 0.00 L 60.00 0.00 L 60.00 52.85 C 59.81 47.49 54.53 45.52 50.56 43.38 C 48.45 42.51 48.01 40.23 47.71 38.22 C 50.85 37.96 53.95 37.27 56.76 35.81 C 54.16 28.47 56.53 20.18 53.05 13.07 C 51.20 9.07 45.88 6.78 41.86 8.84 C 38.84 10.31 34.65 10.75 33.43 14.41 C 30.82 21.28 33.05 28.85 31.10 35.87 C 33.98 37.28 37.12 37.94 40.29 38.25 C 40.44 43.35 34.90 44.35 31.56 46.65 C 28.91 48.12 28.31 51.26 27.74 53.96 C 38.49 54.05 49.25 53.99 60.00 53.99 L 60.00 60.00 L 0.00 60.00 L 0.00 53.99 C 7.93 54.01 15.87 53.99 23.80 54.00 C 23.98 48.98 26.66 44.44 31.12 42.08 C 29.14 41.38 26.99 40.97 25.23 39.77 C 23.50 38.54 24.22 36.14 23.92 34.34 C 25.68 32.25 27.76 30.05 27.83 27.14 C 28.02 22.45 28.37 17.77 29.32 13.16 C 29.22 9.16 24.84 7.77 21.81 6.41 C 17.46 5.39 11.75 6.25 9.35 10.47 C 7.31 14.03 8.68 18.22 8.54 22.07 C 7.28 27.00 11.57 30.65 14.07 34.37 C 13.78 36.15 14.48 38.50 12.80 39.74 C 9.81 41.70 5.84 41.69 3.13 44.15 C 0.96 46.14 0.44 49.20 0.00 51.97 L 0.00 0.00 Z" />
</g>
<g id="#000000ff">
<path fill="#000000" opacity="1.00" d=" M 9.35 10.47 C 11.75 6.25 17.46 5.39 21.81 6.41 C 24.84 7.77 29.22 9.16 29.32 13.16 C 28.37 17.77 28.02 22.45 27.83 27.14 C 27.76 30.05 25.68 32.25 23.92 34.34 C 24.22 36.14 23.50 38.54 25.23 39.77 C 26.99 40.97 29.14 41.38 31.12 42.08 C 26.66 44.44 23.98 48.98 23.80 54.00 C 15.87 53.99 7.93 54.01 0.00 53.99 L 0.00 51.97 C 0.44 49.20 0.96 46.14 3.13 44.15 C 5.84 41.69 9.81 41.70 12.80 39.74 C 14.48 38.50 13.78 36.15 14.07 34.37 C 11.57 30.65 7.28 27.00 8.54 22.07 C 8.68 18.22 7.31 14.03 9.35 10.47 Z" />
<path fill="#000000" opacity="1.00" d=" M 41.86 8.84 C 45.88 6.78 51.20 9.07 53.05 13.07 C 56.53 20.18 54.16 28.47 56.76 35.81 C 53.95 37.27 50.85 37.96 47.71 38.22 C 48.01 40.23 48.45 42.51 50.56 43.38 C 54.53 45.52 59.81 47.49 60.00 52.85 L 60.00 53.99 C 49.25 53.99 38.49 54.05 27.74 53.96 C 28.31 51.26 28.91 48.12 31.56 46.65 C 34.90 44.35 40.44 43.35 40.29 38.25 C 37.12 37.94 33.98 37.28 31.10 35.87 C 33.05 28.85 30.82 21.28 33.43 14.41 C 34.65 10.75 38.84 10.31 41.86 8.84 Z" />
</g>
</svg>
