<?xml version="1.0" encoding="UTF-8" ?>
<!DOCTYPE svg PUBLIC "-//W3C//DTD SVG 1.1//EN" "http://www.w3.org/Graphics/SVG/1.1/DTD/svg11.dtd">
<svg width="60pt" height="60pt" viewBox="0 0 60 60" version="1.1" xmlns="http://www.w3.org/2000/svg">
<g id="#ffffffff">
<path fill="#ffffff" opacity="1.00" d=" M 0.00 0.00 L 60.00 0.00 L 60.00 60.00 L 0.00 60.00 L 0.00 0.00 M 19.20 12.10 C 17.69 15.28 17.84 18.94 18.76 22.27 C 18.11 23.74 17.79 25.57 18.89 26.92 C 20.77 29.23 21.77 32.16 24.01 34.17 C 23.92 36.03 24.51 38.45 22.75 39.73 C 18.54 42.58 12.78 42.34 9.01 45.98 C 6.73 47.99 6.21 51.12 5.88 53.98 C 21.96 54.01 38.04 54.01 54.12 53.98 C 53.78 51.14 53.29 48.03 51.03 46.02 C 47.40 42.54 42.05 42.45 37.80 40.14 C 35.56 39.00 35.97 36.25 35.99 34.17 C 38.21 32.13 39.26 29.24 41.10 26.92 C 42.20 25.57 41.87 23.75 41.24 22.29 C 42.05 19.19 42.36 15.84 41.09 12.82 C 39.87 9.28 35.65 8.94 33.16 6.62 C 28.09 4.90 21.43 6.94 19.20 12.10 Z" />
</g>
<g id="#000000ff">
<path fill="#968176" opacity="1.00" d=" M 19.20 12.10 C 21.43 6.94 28.09 4.90 33.16 6.62 C 35.65 8.94 39.87 9.28 41.09 12.82 C 42.36 15.84 42.05 19.19 41.24 22.29 C 41.87 23.75 42.20 25.57 41.10 26.92 C 39.26 29.24 38.21 32.13 35.99 34.17 C 35.97 36.25 35.56 39.00 37.80 40.14 C 42.05 42.45 47.40 42.54 51.03 46.02 C 53.29 48.03 53.78 51.14 54.12 53.98 C 38.04 54.01 21.96 54.01 5.88 53.98 C 6.21 51.12 6.73 47.99 9.01 45.98 C 12.78 42.34 18.54 42.58 22.75 39.73 C 24.51 38.45 23.92 36.03 24.01 34.17 C 21.77 32.16 20.77 29.23 18.89 26.92 C 17.79 25.57 18.11 23.74 18.76 22.27 C 17.84 18.94 17.69 15.28 19.20 12.10 Z" />
</g>
</svg>
