<?xml version="1.0" encoding="UTF-8" ?>
<!DOCTYPE svg PUBLIC "-//W3C//DTD SVG 1.1//EN" "http://www.w3.org/Graphics/SVG/1.1/DTD/svg11.dtd">
<svg width="60pt" height="60pt" viewBox="0 0 60 60" version="1.1" xmlns="http://www.w3.org/2000/svg">
<g id="#ffffffff">
<path fill="#ffffff" opacity="1.00" d=" M 0.00 0.00 L 60.00 0.00 L 60.00 60.00 L 0.00 60.00 L 0.00 0.00 M 26.42 6.58 C 15.71 9.53 14.97 26.78 25.14 30.92 C 33.07 34.91 42.96 27.61 42.02 18.93 C 42.77 10.84 34.18 3.78 26.42 6.58 M 23.47 38.80 C 18.27 40.12 12.84 41.99 9.01 45.92 C 6.66 48.07 8.75 52.35 11.88 51.97 C 23.98 52.02 36.08 52.03 48.18 51.96 C 50.62 52.17 52.65 49.52 51.81 47.22 C 50.89 45.19 48.86 43.98 47.05 42.84 C 39.97 38.90 31.48 36.84 23.47 38.80 Z" />
</g>
<g id="#000000ff">
<path fill="#000000" opacity="1.00" d=" M 26.42 6.58 C 34.18 3.78 42.77 10.84 42.02 18.93 C 42.96 27.61 33.07 34.91 25.14 30.92 C 14.97 26.78 15.71 9.53 26.42 6.58 Z" />
<path fill="#000000" opacity="1.00" d=" M 23.47 38.80 C 31.48 36.84 39.97 38.90 47.05 42.84 C 48.86 43.98 50.89 45.19 51.81 47.22 C 52.65 49.52 50.62 52.17 48.18 51.96 C 36.08 52.03 23.98 52.02 11.88 51.97 C 8.75 52.35 6.66 48.07 9.01 45.92 C 12.84 41.99 18.27 40.12 23.47 38.80 Z" />
</g>
</svg>
