<?xml version="1.0" encoding="UTF-8" ?>
<!DOCTYPE svg PUBLIC "-//W3C//DTD SVG 1.1//EN" "http://www.w3.org/Graphics/SVG/1.1/DTD/svg11.dtd">
<svg width="60pt" height="60pt" viewBox="0 0 60 60" version="1.1" xmlns="http://www.w3.org/2000/svg">
<g id="#ffffffff">
<path fill="#ffffff" opacity="1.00" d=" M 0.00 0.00 L 60.00 0.00 L 60.00 60.00 L 0.00 60.00 L 0.00 0.00 M 8.17 11.18 C 4.09 16.71 6.14 25.05 11.97 28.47 C 12.03 35.63 11.98 42.80 12.00 49.96 C 14.01 51.29 16.01 52.64 18.00 54.00 C 20.01 52.66 22.01 51.32 24.02 49.98 C 22.68 48.65 21.34 47.33 20.00 46.00 C 21.34 44.66 22.67 43.32 24.01 41.98 C 22.68 40.65 21.35 39.32 20.02 37.98 C 21.35 36.65 22.68 35.32 24.00 33.99 C 24.00 32.15 24.00 30.32 24.02 28.48 C 30.09 24.92 31.99 16.06 27.39 10.58 C 22.85 4.31 12.33 4.68 8.17 11.18 M 32.90 12.00 C 33.24 13.33 33.58 14.66 33.92 16.00 C 39.28 16.00 44.64 16.00 50.00 16.00 C 50.00 18.67 50.00 21.33 50.00 24.00 C 44.30 24.00 38.60 24.01 32.91 23.99 C 32.13 25.33 31.34 26.68 30.54 28.01 C 37.38 27.96 44.21 28.04 51.05 27.99 C 52.28 28.16 54.11 27.62 53.93 26.05 C 54.02 21.74 54.18 17.40 53.82 13.11 C 53.57 12.87 53.08 12.39 52.83 12.16 C 46.20 11.77 39.54 12.12 32.90 12.00 M 28.00 32.00 C 28.00 33.33 28.00 34.67 28.00 36.00 C 35.33 36.00 42.67 36.00 50.00 36.00 C 50.00 38.67 50.00 41.33 50.00 44.00 C 42.58 43.99 35.17 44.03 27.75 43.97 C 27.03 44.66 26.30 45.35 25.58 46.05 C 26.60 46.81 27.43 48.27 28.93 47.99 C 35.96 48.03 42.99 47.98 50.02 48.01 C 51.34 47.89 53.08 48.32 53.83 46.88 C 54.12 42.30 54.14 37.67 53.82 33.10 C 53.58 32.87 53.12 32.40 52.89 32.17 C 44.61 31.76 36.29 32.12 28.00 32.00 Z" />
<path fill="#ffffff" opacity="1.00" d=" M 16.31 10.40 C 18.79 8.99 22.12 11.25 21.99 14.02 C 22.09 17.02 18.18 19.22 15.76 17.27 C 13.16 15.75 13.59 11.55 16.31 10.40 Z" />
</g>
<g id="#000000ff">
<path fill="#000000" opacity="1.00" d=" M 8.17 11.18 C 12.33 4.68 22.85 4.31 27.39 10.58 C 31.99 16.06 30.09 24.92 24.02 28.48 C 24.00 30.32 24.00 32.15 24.00 33.99 C 22.68 35.32 21.35 36.65 20.02 37.98 C 21.35 39.32 22.68 40.65 24.01 41.98 C 22.67 43.32 21.34 44.66 20.00 46.00 C 21.34 47.33 22.68 48.65 24.02 49.98 C 22.01 51.32 20.01 52.66 18.00 54.00 C 16.01 52.64 14.01 51.29 12.00 49.96 C 11.98 42.80 12.03 35.63 11.97 28.47 C 6.14 25.05 4.09 16.71 8.17 11.18 M 16.31 10.40 C 13.59 11.55 13.16 15.75 15.76 17.27 C 18.18 19.22 22.09 17.02 21.99 14.02 C 22.12 11.25 18.79 8.99 16.31 10.40 Z" />
<path fill="#000000" opacity="1.00" d=" M 32.90 12.00 C 39.54 12.12 46.20 11.77 52.83 12.16 C 53.08 12.39 53.57 12.87 53.82 13.11 C 54.18 17.40 54.02 21.74 53.93 26.05 C 54.11 27.62 52.28 28.16 51.05 27.99 C 44.21 28.04 37.38 27.96 30.54 28.01 C 31.34 26.68 32.13 25.33 32.91 23.99 C 38.60 24.01 44.30 24.00 50.00 24.00 C 50.00 21.33 50.00 18.67 50.00 16.00 C 44.64 16.00 39.28 16.00 33.92 16.00 C 33.58 14.66 33.24 13.33 32.90 12.00 Z" />
<path fill="#000000" opacity="1.00" d=" M 28.00 32.00 C 36.29 32.12 44.61 31.76 52.89 32.17 C 53.12 32.40 53.58 32.87 53.82 33.10 C 54.14 37.67 54.12 42.30 53.83 46.88 C 53.08 48.32 51.34 47.89 50.02 48.01 C 42.99 47.98 35.96 48.03 28.93 47.99 C 27.43 48.27 26.60 46.81 25.58 46.05 C 26.30 45.35 27.03 44.66 27.75 43.97 C 35.17 44.03 42.58 43.99 50.00 44.00 C 50.00 41.33 50.00 38.67 50.00 36.00 C 42.67 36.00 35.33 36.00 28.00 36.00 C 28.00 34.67 28.00 33.33 28.00 32.00 Z" />
</g>
</svg>
