<?xml version="1.0" encoding="UTF-8" ?>
<!DOCTYPE svg PUBLIC "-//W3C//DTD SVG 1.1//EN" "http://www.w3.org/Graphics/SVG/1.1/DTD/svg11.dtd">
<svg width="60pt" height="60pt" viewBox="0 0 60 60" version="1.1" xmlns="http://www.w3.org/2000/svg">
<g id="#ffffffff">
<path fill="#ffffff" opacity="1.00" d=" M 0.00 0.00 L 60.00 0.00 L 60.00 60.00 L 0.00 60.00 L 0.00 0.00 M 27.20 7.19 C 24.60 8.60 21.07 8.54 19.39 11.35 C 14.83 18.27 17.38 27.13 14.38 34.55 C 17.93 36.79 22.02 37.91 26.19 38.11 C 26.22 42.96 20.61 43.76 17.18 45.41 C 13.31 46.64 10.07 49.76 9.81 53.98 C 23.27 54.01 36.73 54.02 50.20 53.98 C 49.92 49.75 46.68 46.65 42.81 45.41 C 39.37 43.76 33.78 42.96 33.80 38.11 C 37.88 37.92 41.89 36.86 45.36 34.64 C 42.17 27.17 44.08 18.32 39.80 11.19 C 37.47 7.01 31.46 4.41 27.20 7.19 Z" />
</g>
<g id="#000000ff">
<path fill="#000000" opacity="1.00" d=" M 27.20 7.19 C 31.46 4.41 37.47 7.01 39.80 11.19 C 44.08 18.32 42.17 27.17 45.36 34.64 C 41.89 36.86 37.88 37.92 33.80 38.11 C 33.78 42.96 39.37 43.76 42.81 45.41 C 46.68 46.65 49.92 49.75 50.20 53.98 C 36.73 54.02 23.27 54.01 9.81 53.98 C 10.07 49.76 13.31 46.64 17.18 45.41 C 20.61 43.76 26.22 42.96 26.19 38.11 C 22.02 37.91 17.93 36.79 14.38 34.55 C 17.38 27.13 14.83 18.27 19.39 11.35 C 21.07 8.54 24.60 8.60 27.20 7.19 Z" />
</g>
</svg>
