<?xml version="1.0" encoding="UTF-8" ?>
<!DOCTYPE svg PUBLIC "-//W3C//DTD SVG 1.1//EN" "http://www.w3.org/Graphics/SVG/1.1/DTD/svg11.dtd">
<svg width="60pt" height="60pt" viewBox="0 0 60 60" version="1.1" xmlns="http://www.w3.org/2000/svg">
<g id="#ffffffff">
<path fill="#ffffff" opacity="1.00" d=" M 0.00 0.00 L 60.00 0.00 L 60.00 60.00 L 0.00 60.00 L 0.00 0.00 M 24.45 4.71 C 14.29 7.19 6.88 17.64 8.12 28.06 C 8.83 36.67 15.33 43.31 22.27 47.72 C 25.69 49.58 26.90 53.45 28.30 56.81 C 28.73 58.37 31.24 58.37 31.69 56.82 C 33.07 53.75 34.00 50.09 37.07 48.22 C 42.60 44.54 48.05 40.04 50.52 33.68 C 53.69 25.86 51.55 16.36 45.56 10.46 C 40.19 4.98 31.85 2.73 24.45 4.71 Z" />
<path fill="#ffffff" opacity="1.00" d=" M 26.76 12.79 C 29.60 10.89 32.57 12.87 34.97 14.44 C 36.39 17.07 35.69 20.06 35.83 22.90 C 34.46 25.08 32.63 27.22 32.94 29.97 C 36.10 31.71 40.41 32.17 41.95 35.92 C 33.98 36.05 26.01 36.04 18.04 35.93 C 19.48 32.05 23.98 32.00 26.86 29.84 C 27.68 27.15 25.35 25.07 24.17 22.91 C 24.35 19.46 23.11 14.88 26.76 12.79 Z" />
</g>
<g id="#000000ff">
<path fill="#000000" opacity="1.00" d=" M 24.45 4.71 C 31.85 2.73 40.19 4.98 45.56 10.46 C 51.55 16.36 53.69 25.86 50.52 33.68 C 48.05 40.04 42.60 44.54 37.07 48.22 C 34.00 50.09 33.07 53.75 31.69 56.82 C 31.24 58.37 28.73 58.37 28.30 56.81 C 26.90 53.45 25.69 49.58 22.27 47.72 C 15.33 43.31 8.83 36.67 8.12 28.06 C 6.88 17.64 14.29 7.19 24.45 4.71 M 26.76 12.79 C 23.11 14.88 24.35 19.46 24.17 22.91 C 25.35 25.07 27.68 27.15 26.86 29.84 C 23.98 32.00 19.48 32.05 18.04 35.93 C 26.01 36.04 33.98 36.05 41.95 35.92 C 40.41 32.17 36.10 31.71 32.94 29.97 C 32.63 27.22 34.46 25.08 35.83 22.90 C 35.69 20.06 36.39 17.07 34.97 14.44 C 32.57 12.87 29.60 10.89 26.76 12.79 Z" />
</g>
</svg>
