<?xml version="1.0" encoding="UTF-8" ?>
<!DOCTYPE svg PUBLIC "-//W3C//DTD SVG 1.1//EN" "http://www.w3.org/Graphics/SVG/1.1/DTD/svg11.dtd">
<svg width="64pt" height="64pt" viewBox="0 0 64 64" version="1.1" xmlns="http://www.w3.org/2000/svg">
<g id="#ffffffff">
<path fill="#ffffff" opacity="1.00" d=" M 0.00 0.00 L 64.00 0.00 L 64.00 64.00 L 0.00 64.00 L 0.00 0.00 M 4.24 28.89 C 2.96 37.06 6.85 45.70 13.74 50.23 C 19.96 54.58 28.28 54.96 35.21 52.17 C 45.43 48.10 53.62 40.28 60.61 32.00 C 55.07 25.34 48.72 19.22 41.26 14.76 C 35.50 11.32 28.63 9.10 21.89 10.40 C 12.87 11.99 5.40 19.80 4.24 28.89 Z" />
<path fill="#ffffff" opacity="1.00" d=" M 10.25 23.26 C 14.04 16.16 22.88 12.42 30.63 14.61 C 40.58 17.35 48.59 24.50 55.35 32.00 C 48.88 39.20 41.29 45.96 31.93 49.02 C 25.54 51.19 18.02 49.60 13.28 44.73 C 7.64 39.29 6.38 30.05 10.25 23.26 M 19.90 20.85 C 17.15 23.90 17.69 28.55 20.12 31.61 C 16.52 33.90 14.16 37.70 13.83 41.97 C 15.15 41.99 16.48 42.00 17.80 42.00 C 18.18 37.78 21.57 33.83 26.04 34.01 C 30.48 33.88 33.79 37.82 34.20 42.00 C 35.52 42.00 36.85 41.98 38.17 41.97 C 37.84 37.70 35.47 33.92 31.88 31.61 C 33.91 28.88 34.83 25.06 32.90 22.02 C 30.43 17.31 23.17 16.65 19.90 20.85 Z" />
<path fill="#ffffff" opacity="1.00" d=" M 24.31 22.36 C 26.80 21.08 30.08 23.14 30.00 25.94 C 30.21 29.09 26.18 31.20 23.69 29.28 C 21.19 27.69 21.57 23.47 24.31 22.36 Z" />
</g>
<g id="#000000ff">
<path fill="#000000" opacity="1.00" d=" M 4.24 28.89 C 5.40 19.80 12.87 11.99 21.89 10.40 C 28.63 9.10 35.50 11.32 41.26 14.76 C 48.72 19.22 55.07 25.34 60.61 32.00 C 53.62 40.28 45.43 48.10 35.21 52.17 C 28.28 54.96 19.96 54.58 13.74 50.23 C 6.85 45.70 2.96 37.06 4.24 28.89 M 10.25 23.26 C 6.38 30.05 7.64 39.29 13.28 44.73 C 18.02 49.60 25.54 51.19 31.93 49.02 C 41.29 45.96 48.88 39.20 55.35 32.00 C 48.59 24.50 40.58 17.35 30.63 14.61 C 22.88 12.42 14.04 16.16 10.25 23.26 Z" />
<path fill="#000000" opacity="1.00" d=" M 19.90 20.85 C 23.17 16.65 30.43 17.31 32.90 22.02 C 34.83 25.06 33.91 28.88 31.88 31.61 C 35.47 33.92 37.84 37.70 38.17 41.97 C 36.85 41.98 35.52 42.00 34.20 42.00 C 33.79 37.82 30.48 33.88 26.04 34.01 C 21.57 33.83 18.18 37.78 17.80 42.00 C 16.48 42.00 15.15 41.99 13.83 41.97 C 14.16 37.70 16.52 33.90 20.12 31.61 C 17.69 28.55 17.15 23.90 19.90 20.85 M 24.31 22.36 C 21.57 23.47 21.19 27.69 23.69 29.28 C 26.18 31.20 30.21 29.09 30.00 25.94 C 30.08 23.14 26.80 21.08 24.31 22.36 Z" />
</g>
</svg>
