<?xml version="1.0" encoding="UTF-8" ?>
<!DOCTYPE svg PUBLIC "-//W3C//DTD SVG 1.1//EN" "http://www.w3.org/Graphics/SVG/1.1/DTD/svg11.dtd">
<svg width="60pt" height="60pt" viewBox="0 0 60 60" version="1.1" xmlns="http://www.w3.org/2000/svg">
<g id="#ffffffff">
<path fill="#ffffff" opacity="1.00" d=" M 0.00 0.00 L 60.00 0.00 L 60.00 60.00 L 0.00 60.00 L 0.00 0.00 M 19.29 8.19 C 16.08 10.33 12.93 12.60 10.07 15.19 C 10.24 18.51 11.91 21.53 12.79 24.69 C 10.30 25.26 7.73 25.60 5.34 26.52 C 3.10 28.26 4.32 31.57 3.96 34.00 C 8.36 34.00 12.75 34.00 17.14 34.00 C 20.17 37.85 22.26 42.59 25.94 45.83 C 28.79 45.95 32.00 46.55 34.66 45.44 C 37.79 41.95 40.06 37.77 42.86 34.00 C 47.25 34.00 51.64 34.00 56.03 34.00 C 55.70 31.56 56.87 28.31 54.69 26.52 C 50.82 25.25 46.71 24.95 42.73 24.14 C 40.90 20.32 39.48 16.29 37.38 12.61 C 33.63 10.89 29.42 10.45 25.48 9.27 C 23.43 8.90 21.39 7.92 19.29 8.19 M 9.32 36.48 C 5.54 37.75 3.18 42.11 4.27 45.97 C 5.22 50.08 9.81 52.89 13.91 51.74 C 18.07 50.80 20.91 46.16 19.73 42.03 C 18.72 37.62 13.55 34.81 9.32 36.48 M 45.31 36.49 C 39.64 38.22 38.17 46.53 42.89 50.12 C 47.07 53.95 54.59 51.46 55.74 45.93 C 57.51 40.07 50.97 34.13 45.31 36.49 Z" />
<path fill="#ffffff" opacity="1.00" d=" M 20.43 12.17 C 25.15 13.35 29.88 14.52 34.59 15.72 C 36.20 19.35 37.83 22.97 39.44 26.60 C 37.63 28.38 36.01 30.37 34.00 31.93 C 32.37 32.59 31.48 30.34 29.98 30.07 C 27.86 29.91 25.74 30.00 23.63 29.99 C 23.02 27.08 22.65 24.11 21.76 21.27 C 21.40 19.46 18.80 19.64 18.17 21.16 C 18.13 22.67 18.27 24.19 18.30 25.70 C 15.96 23.26 15.48 19.78 14.36 16.73 C 16.38 15.21 18.41 13.69 20.43 12.17 Z" />
<path fill="#ffffff" opacity="1.00" d=" M 10.32 40.36 C 13.17 38.87 16.78 41.81 15.90 44.90 C 15.40 47.59 11.86 48.94 9.69 47.27 C 7.19 45.68 7.57 41.46 10.32 40.36 Z" />
<path fill="#ffffff" opacity="1.00" d=" M 46.25 40.39 C 48.77 39.04 52.11 41.15 52.01 43.99 C 52.15 47.11 48.17 49.19 45.70 47.28 C 43.22 45.71 43.55 41.54 46.25 40.39 Z" />
</g>
<g id="#000000ff">
<path fill="#000000" opacity="1.00" d=" M 19.29 8.19 C 21.39 7.92 23.43 8.90 25.48 9.27 C 29.42 10.45 33.63 10.89 37.38 12.61 C 39.48 16.29 40.90 20.32 42.73 24.14 C 46.71 24.95 50.82 25.25 54.69 26.52 C 56.87 28.31 55.70 31.56 56.03 34.00 C 51.64 34.00 47.25 34.00 42.86 34.00 C 40.06 37.77 37.79 41.95 34.66 45.44 C 32.00 46.55 28.79 45.95 25.94 45.83 C 22.26 42.59 20.17 37.85 17.14 34.00 C 12.75 34.00 8.36 34.00 3.96 34.00 C 4.32 31.57 3.10 28.26 5.34 26.52 C 7.73 25.60 10.30 25.26 12.79 24.69 C 11.91 21.53 10.24 18.51 10.07 15.19 C 12.93 12.60 16.08 10.33 19.29 8.19 M 20.43 12.17 C 18.41 13.69 16.38 15.21 14.36 16.73 C 15.48 19.78 15.96 23.26 18.30 25.70 C 18.27 24.19 18.13 22.67 18.17 21.16 C 18.80 19.64 21.40 19.46 21.76 21.27 C 22.65 24.11 23.02 27.08 23.63 29.99 C 25.74 30.00 27.86 29.91 29.98 30.07 C 31.48 30.34 32.37 32.59 34.00 31.93 C 36.01 30.37 37.63 28.38 39.44 26.60 C 37.83 22.97 36.20 19.35 34.59 15.72 C 29.88 14.52 25.15 13.35 20.43 12.17 Z" />
<path fill="#000000" opacity="1.00" d=" M 9.32 36.48 C 13.55 34.81 18.72 37.62 19.73 42.03 C 20.91 46.16 18.07 50.80 13.91 51.74 C 9.81 52.89 5.22 50.08 4.27 45.97 C 3.18 42.11 5.54 37.75 9.32 36.48 M 10.32 40.36 C 7.57 41.46 7.19 45.68 9.69 47.27 C 11.86 48.94 15.40 47.59 15.90 44.90 C 16.78 41.81 13.17 38.87 10.32 40.36 Z" />
<path fill="#000000" opacity="1.00" d=" M 45.31 36.49 C 50.97 34.13 57.51 40.07 55.74 45.93 C 54.59 51.46 47.07 53.95 42.89 50.12 C 38.17 46.53 39.64 38.22 45.31 36.49 M 46.25 40.39 C 43.55 41.54 43.22 45.71 45.70 47.28 C 48.17 49.19 52.15 47.11 52.01 43.99 C 52.11 41.15 48.77 39.04 46.25 40.39 Z" />
</g>
</svg>
