<?xml version="1.0" encoding="UTF-8" ?>
<!DOCTYPE svg PUBLIC "-//W3C//DTD SVG 1.1//EN" "http://www.w3.org/Graphics/SVG/1.1/DTD/svg11.dtd">
<svg width="64pt" height="64pt" viewBox="0 0 64 64" version="1.1" xmlns="http://www.w3.org/2000/svg">
<g id="#ffffffff">
<path fill="#ffffff" opacity="1.00" d=" M 0.00 0.00 L 64.00 0.00 L 64.00 64.00 L 0.00 64.00 L 0.00 0.00 M 22.48 8.40 C 19.60 9.51 16.42 10.04 13.94 11.99 C 10.20 14.76 8.03 19.35 8.01 23.98 C 7.99 32.65 8.00 41.33 8.00 50.00 C 10.67 50.00 13.33 49.99 16.00 50.00 C 16.00 52.67 16.00 55.33 16.00 58.00 C 26.67 58.00 37.33 58.00 48.00 58.00 C 48.00 55.33 47.99 52.67 48.00 50.00 C 50.67 49.99 53.33 50.00 56.00 50.00 C 55.99 41.34 56.02 32.68 55.99 24.02 C 56.05 17.81 51.95 11.77 45.99 9.87 C 42.36 8.71 38.78 7.36 35.09 6.41 C 30.79 5.19 26.52 7.11 22.48 8.40 Z" />
<path fill="#ffffff" opacity="1.00" d=" M 26.94 11.09 C 30.23 9.84 33.77 9.84 37.06 11.09 C 35.39 14.05 33.70 17.00 32.00 19.95 C 30.30 17.00 28.60 14.05 26.94 11.09 Z" />
<path fill="#ffffff" opacity="1.00" d=" M 17.38 14.45 C 19.20 13.58 21.17 13.09 23.07 12.42 C 26.05 17.62 29.02 22.82 32.00 28.02 C 34.99 22.83 37.94 17.62 40.93 12.42 C 45.88 13.38 51.00 16.42 51.71 21.86 C 52.36 29.87 51.83 37.96 52.00 46.00 C 50.67 46.00 49.33 46.00 48.00 46.00 C 47.99 38.00 48.01 30.00 48.00 22.00 C 46.66 22.00 45.33 22.00 44.00 22.00 C 44.00 32.67 44.00 43.33 44.00 54.00 C 36.00 54.00 28.00 54.00 20.00 54.00 C 19.99 43.33 20.01 32.67 20.00 22.00 C 18.67 22.00 17.33 22.00 16.00 22.00 C 15.99 30.00 16.01 38.00 16.00 46.00 C 14.67 46.00 13.33 46.00 12.00 46.00 C 12.02 38.65 11.96 31.30 12.03 23.95 C 12.10 20.16 14.04 16.36 17.38 14.45 Z" />
</g>
<g id="#000000ff">
<path fill="#000000" opacity="1.00" d=" M 22.48 8.40 C 26.52 7.11 30.79 5.19 35.09 6.41 C 38.78 7.36 42.36 8.71 45.99 9.87 C 51.95 11.77 56.05 17.81 55.99 24.02 C 56.02 32.68 55.99 41.34 56.00 50.00 C 53.33 50.00 50.67 49.99 48.00 50.00 C 47.99 52.67 48.00 55.33 48.00 58.00 C 37.33 58.00 26.67 58.00 16.00 58.00 C 16.00 55.33 16.00 52.67 16.00 50.00 C 13.33 49.99 10.67 50.00 8.00 50.00 C 8.00 41.33 7.99 32.65 8.01 23.98 C 8.03 19.35 10.20 14.76 13.94 11.99 C 16.42 10.04 19.60 9.51 22.48 8.40 M 26.94 11.09 C 28.60 14.05 30.30 17.00 32.00 19.95 C 33.70 17.00 35.39 14.05 37.06 11.09 C 33.77 9.84 30.23 9.84 26.94 11.09 M 17.38 14.45 C 14.04 16.36 12.10 20.16 12.03 23.95 C 11.96 31.30 12.02 38.65 12.00 46.00 C 13.33 46.00 14.67 46.00 16.00 46.00 C 16.01 38.00 15.99 30.00 16.00 22.00 C 17.33 22.00 18.67 22.00 20.00 22.00 C 20.01 32.67 19.99 43.33 20.00 54.00 C 28.00 54.00 36.00 54.00 44.00 54.00 C 44.00 43.33 44.00 32.67 44.00 22.00 C 45.33 22.00 46.66 22.00 48.00 22.00 C 48.01 30.00 47.99 38.00 48.00 46.00 C 49.33 46.00 50.67 46.00 52.00 46.00 C 51.83 37.96 52.36 29.87 51.71 21.86 C 51.00 16.42 45.88 13.38 40.93 12.42 C 37.94 17.62 34.99 22.83 32.00 28.02 C 29.02 22.82 26.05 17.62 23.07 12.42 C 21.17 13.09 19.20 13.58 17.38 14.45 Z" />
</g>
</svg>
