<?xml version="1.0" encoding="UTF-8" ?>
<!DOCTYPE svg PUBLIC "-//W3C//DTD SVG 1.1//EN" "http://www.w3.org/Graphics/SVG/1.1/DTD/svg11.dtd">
<svg width="60pt" height="60pt" viewBox="0 0 60 60" version="1.1" xmlns="http://www.w3.org/2000/svg">
<g id="#ffffffff">
<path fill="#ffffff" opacity="1.00" d=" M 0.00 0.00 L 60.00 0.00 L 60.00 60.00 L 0.00 60.00 L 0.00 0.00 M 8.35 8.38 C 7.05 9.03 5.97 10.40 6.03 11.90 C 5.96 24.28 6.02 36.66 6.00 49.04 C 5.79 50.31 6.39 52.07 7.95 51.96 C 22.63 52.03 37.31 52.03 51.99 51.96 C 53.55 52.10 54.22 50.37 54.00 49.08 C 53.98 36.70 54.04 24.32 53.97 11.94 C 54.00 9.94 52.21 7.98 50.17 8.03 C 37.76 7.95 25.36 8.04 12.96 7.99 C 11.43 8.11 9.77 7.71 8.35 8.38 Z" />
<path fill="#ffffff" opacity="1.00" d=" M 10.00 18.00 C 23.33 18.00 36.67 18.00 50.00 18.00 C 50.00 28.00 50.00 38.00 50.00 48.00 C 36.67 48.00 23.33 48.00 10.00 48.00 C 10.00 38.00 10.00 28.00 10.00 18.00 M 17.73 23.73 C 15.08 29.33 15.59 36.15 18.33 41.62 L 18.94 42.00 C 19.69 42.00 21.20 42.00 21.95 42.00 C 18.97 35.79 18.65 28.13 21.95 21.97 C 20.32 21.90 18.12 21.61 17.73 23.73 M 38.05 22.00 C 41.03 28.21 41.35 35.87 38.04 42.03 C 39.67 42.08 41.80 42.42 42.23 40.33 C 44.91 34.72 44.43 27.86 41.66 22.37 L 41.06 22.00 C 40.30 22.00 38.80 22.00 38.05 22.00 M 24.01 26.00 C 25.19 28.03 26.37 30.07 27.54 32.10 C 26.38 34.07 25.20 36.03 24.03 37.99 C 25.32 38.00 26.62 38.00 27.92 38.00 C 28.57 36.73 29.23 35.47 29.89 34.21 C 30.58 35.47 31.27 36.72 31.91 38.00 C 33.27 38.00 34.63 38.00 36.00 37.99 C 34.81 35.98 33.61 33.96 32.43 31.94 C 33.61 29.96 34.80 27.99 35.98 26.01 C 34.64 26.01 33.29 26.00 31.95 26.00 C 31.33 27.31 30.70 28.61 30.07 29.92 C 29.50 28.58 28.85 27.28 28.21 25.98 C 26.81 26.00 25.41 26.00 24.01 26.00 Z" />
</g>
<g id="#000000ff">
<path fill="#000000" opacity="1.00" d=" M 8.35 8.38 C 9.77 7.71 11.43 8.11 12.96 7.99 C 25.36 8.04 37.76 7.95 50.17 8.03 C 52.21 7.98 54.00 9.94 53.97 11.94 C 54.04 24.32 53.98 36.70 54.00 49.08 C 54.22 50.37 53.55 52.10 51.99 51.96 C 37.31 52.03 22.63 52.03 7.95 51.96 C 6.39 52.07 5.79 50.31 6.00 49.04 C 6.02 36.66 5.96 24.28 6.03 11.90 C 5.97 10.40 7.05 9.03 8.35 8.38 M 10.00 18.00 C 10.00 28.00 10.00 38.00 10.00 48.00 C 23.33 48.00 36.67 48.00 50.00 48.00 C 50.00 38.00 50.00 28.00 50.00 18.00 C 36.67 18.00 23.33 18.00 10.00 18.00 Z" />
<path fill="#000000" opacity="1.00" d=" M 17.73 23.73 C 18.12 21.61 20.32 21.90 21.95 21.97 C 18.65 28.13 18.97 35.79 21.95 42.00 C 21.20 42.00 19.69 42.00 18.94 42.00 L 18.33 41.62 C 15.59 36.15 15.08 29.33 17.73 23.73 Z" />
<path fill="#000000" opacity="1.00" d=" M 38.05 22.00 C 38.80 22.00 40.30 22.00 41.06 22.00 L 41.66 22.37 C 44.43 27.86 44.91 34.72 42.23 40.33 C 41.80 42.42 39.67 42.08 38.04 42.03 C 41.35 35.87 41.03 28.21 38.05 22.00 Z" />
<path fill="#000000" opacity="1.00" d=" M 24.01 26.00 C 25.41 26.00 26.81 26.00 28.21 25.98 C 28.85 27.28 29.50 28.58 30.07 29.92 C 30.70 28.61 31.33 27.31 31.95 26.00 C 33.29 26.00 34.64 26.01 35.98 26.01 C 34.80 27.99 33.61 29.96 32.43 31.94 C 33.61 33.96 34.81 35.98 36.00 37.99 C 34.63 38.00 33.27 38.00 31.91 38.00 C 31.27 36.72 30.58 35.47 29.89 34.21 C 29.23 35.47 28.57 36.73 27.92 38.00 C 26.62 38.00 25.32 38.00 24.03 37.99 C 25.20 36.03 26.38 34.07 27.54 32.10 C 26.37 30.07 25.19 28.03 24.01 26.00 Z" />
</g>
</svg>
