<?xml version="1.0" encoding="UTF-8" ?>
<!DOCTYPE svg PUBLIC "-//W3C//DTD SVG 1.1//EN" "http://www.w3.org/Graphics/SVG/1.1/DTD/svg11.dtd">
<svg width="60pt" height="60pt" viewBox="0 0 60 60" version="1.1" xmlns="http://www.w3.org/2000/svg">
<g id="#ffffffff">
<path fill="#ffffff" opacity="1.00" d=" M 0.00 0.00 L 60.00 0.00 L 60.00 60.00 L 0.00 60.00 L 0.00 0.00 M 11.96 12.82 C 10.42 16.53 9.38 20.43 7.91 24.17 C 6.68 26.42 4.12 28.00 4.12 30.83 C 3.87 35.89 4.00 40.96 4.04 46.02 C 3.83 49.08 7.87 51.20 10.26 49.26 C 12.24 48.01 11.97 45.48 12.09 43.47 C 24.02 44.09 35.98 44.09 47.91 43.47 C 48.06 45.46 47.69 48.06 49.73 49.26 C 52.11 51.20 56.05 49.10 55.95 46.10 C 56.01 41.03 56.13 35.95 55.88 30.89 C 55.89 28.03 53.34 26.43 52.10 24.17 C 50.63 20.43 49.58 16.53 48.04 12.81 C 46.91 10.04 44.05 8.08 41.05 8.05 C 34.02 7.93 26.98 8.03 19.95 8.00 C 16.62 7.78 13.19 9.66 11.96 12.82 Z" />
<path fill="#ffffff" opacity="1.00" d=" M 25.74 15.79 C 28.10 13.23 32.64 13.50 34.71 16.30 C 36.45 18.43 35.91 21.35 36.01 23.89 C 37.31 24.16 39.10 23.68 39.83 25.14 C 40.14 28.38 40.14 31.66 39.82 34.89 C 37.30 37.20 33.16 35.49 29.98 35.99 C 26.82 35.48 22.62 37.24 20.16 34.85 C 19.87 31.61 19.86 28.34 20.17 25.11 C 20.94 23.69 22.69 24.15 23.99 23.89 C 24.06 21.16 23.51 17.88 25.74 15.79 M 27.97 24.00 C 29.32 23.99 30.67 23.99 32.03 24.00 C 31.75 22.00 32.94 18.36 30.01 17.98 C 27.05 18.32 28.25 21.99 27.97 24.00 Z" />
</g>
<g id="#000000ff">
<path fill="#000000" opacity="1.00" d=" M 11.96 12.82 C 13.19 9.66 16.62 7.78 19.95 8.00 C 26.98 8.03 34.02 7.93 41.05 8.05 C 44.05 8.08 46.91 10.04 48.04 12.81 C 49.58 16.53 50.63 20.43 52.10 24.17 C 53.34 26.43 55.89 28.03 55.88 30.89 C 56.13 35.95 56.01 41.03 55.95 46.10 C 56.05 49.10 52.11 51.20 49.73 49.26 C 47.69 48.06 48.06 45.46 47.91 43.47 C 35.98 44.09 24.02 44.09 12.09 43.47 C 11.97 45.48 12.24 48.01 10.26 49.26 C 7.87 51.20 3.83 49.08 4.04 46.02 C 4.00 40.96 3.87 35.89 4.12 30.83 C 4.12 28.00 6.68 26.42 7.91 24.17 C 9.38 20.43 10.42 16.53 11.96 12.82 M 25.74 15.79 C 23.51 17.88 24.06 21.16 23.99 23.89 C 22.69 24.15 20.94 23.69 20.17 25.11 C 19.86 28.34 19.87 31.61 20.16 34.85 C 22.62 37.24 26.82 35.48 29.98 35.99 C 33.16 35.49 37.30 37.20 39.82 34.89 C 40.14 31.66 40.14 28.38 39.83 25.14 C 39.10 23.68 37.31 24.16 36.01 23.89 C 35.91 21.35 36.45 18.43 34.71 16.30 C 32.64 13.50 28.10 13.23 25.74 15.79 Z" />
<path fill="#000000" opacity="1.00" d=" M 27.97 24.00 C 28.25 21.99 27.05 18.32 30.01 17.98 C 32.94 18.36 31.75 22.00 32.03 24.00 C 30.67 23.99 29.32 23.99 27.97 24.00 Z" />
</g>
</svg>
