<?xml version="1.0" encoding="UTF-8" ?>
<!DOCTYPE svg PUBLIC "-//W3C//DTD SVG 1.1//EN" "http://www.w3.org/Graphics/SVG/1.1/DTD/svg11.dtd">
<svg width="60pt" height="60pt" viewBox="0 0 60 60" version="1.1" xmlns="http://www.w3.org/2000/svg">
<g id="#ffffffff">
<path fill="#ffffff" opacity="1.00" d=" M 0.00 0.00 L 60.00 0.00 L 60.00 60.00 L 0.00 60.00 L 0.00 0.00 M 21.59 8.58 C 19.28 10.51 20.76 14.41 18.11 16.08 C 14.25 18.72 8.48 19.47 6.68 24.41 C 5.68 26.38 5.45 30.70 8.79 29.91 C 10.68 28.44 9.60 25.19 11.86 23.94 C 14.43 22.29 17.31 21.20 20.01 19.77 C 19.82 24.12 20.84 29.11 17.89 32.79 C 14.76 36.80 11.27 41.41 12.16 46.84 C 12.98 48.73 16.05 48.13 15.89 45.99 C 15.94 42.41 17.69 39.32 19.95 36.66 C 20.10 40.47 19.85 44.29 20.07 48.10 C 20.15 50.92 22.99 52.53 25.36 53.30 C 29.64 54.53 34.76 54.23 38.31 51.31 C 40.60 49.50 39.88 46.30 40.08 43.76 C 41.67 45.60 43.74 47.38 43.80 50.00 C 43.89 51.77 44.29 54.71 46.80 53.90 C 48.90 52.47 47.75 49.54 47.33 47.53 C 46.25 43.48 42.18 41.34 40.50 37.66 C 39.52 32.95 40.19 28.07 40.00 23.29 C 42.30 27.24 45.11 30.92 46.94 35.14 C 47.84 37.15 47.64 39.50 48.64 41.47 C 49.80 42.70 52.14 41.65 51.96 39.96 C 52.10 35.25 49.42 31.19 47.24 27.24 C 49.63 27.79 51.54 29.17 52.71 31.32 C 53.83 33.15 56.90 31.03 55.81 29.21 C 54.36 24.20 48.60 24.08 44.69 22.20 C 41.47 19.47 40.40 15.08 39.76 11.08 C 39.19 8.03 35.83 6.66 33.08 6.24 C 29.20 5.75 24.69 5.85 21.59 8.58 Z" />
<path fill="#ffffff" opacity="1.00" d=" M 24.25 11.36 C 27.98 9.41 33.01 9.35 36.43 12.00 C 33.36 14.43 29.00 14.46 25.43 13.22 C 24.41 13.01 24.02 12.39 24.25 11.36 Z" />
</g>
<g id="#000000ff">
<path fill="#000000" opacity="1.00" d=" M 21.59 8.58 C 24.69 5.85 29.20 5.75 33.08 6.24 C 35.83 6.66 39.19 8.03 39.76 11.08 C 40.40 15.08 41.47 19.47 44.69 22.20 C 48.60 24.08 54.36 24.20 55.81 29.21 C 56.90 31.03 53.83 33.15 52.71 31.32 C 51.54 29.17 49.63 27.79 47.24 27.24 C 49.42 31.19 52.10 35.25 51.96 39.96 C 52.14 41.65 49.80 42.70 48.64 41.47 C 47.64 39.50 47.84 37.15 46.94 35.14 C 45.11 30.92 42.30 27.24 40.00 23.29 C 40.19 28.07 39.52 32.95 40.50 37.66 C 42.18 41.34 46.25 43.48 47.33 47.53 C 47.75 49.54 48.90 52.47 46.80 53.90 C 44.29 54.71 43.89 51.77 43.80 50.00 C 43.74 47.38 41.67 45.60 40.08 43.76 C 39.88 46.30 40.60 49.50 38.31 51.31 C 34.76 54.23 29.64 54.53 25.36 53.30 C 22.99 52.53 20.15 50.92 20.07 48.10 C 19.85 44.29 20.10 40.47 19.95 36.66 C 17.69 39.32 15.94 42.41 15.89 45.99 C 16.05 48.13 12.98 48.73 12.16 46.84 C 11.27 41.41 14.76 36.80 17.89 32.79 C 20.84 29.11 19.82 24.12 20.01 19.77 C 17.31 21.20 14.43 22.29 11.86 23.94 C 9.60 25.19 10.68 28.44 8.79 29.91 C 5.45 30.70 5.68 26.38 6.68 24.41 C 8.48 19.47 14.25 18.72 18.11 16.08 C 20.76 14.41 19.28 10.51 21.59 8.58 M 24.25 11.36 C 24.02 12.39 24.41 13.01 25.43 13.22 C 29.00 14.46 33.36 14.43 36.43 12.00 C 33.01 9.35 27.98 9.41 24.25 11.36 Z" />
</g>
</svg>
