<?xml version="1.0" encoding="UTF-8" ?>
<!DOCTYPE svg PUBLIC "-//W3C//DTD SVG 1.1//EN" "http://www.w3.org/Graphics/SVG/1.1/DTD/svg11.dtd">
<svg width="60pt" height="60pt" viewBox="0 0 60 60" version="1.1" xmlns="http://www.w3.org/2000/svg">
<g id="#ffffffff">
<path fill="#ffffff" opacity="1.00" d=" M 0.00 0.00 L 60.00 0.00 L 60.00 60.00 L 0.00 60.00 L 0.00 0.00 M 26.40 8.39 C 23.69 9.29 24.09 12.66 23.96 14.93 C 24.04 25.31 23.97 35.70 23.98 46.08 C 23.91 48.34 24.30 51.60 27.17 51.78 C 34.36 52.19 41.64 52.20 48.83 51.78 C 52.11 51.45 52.05 47.56 52.04 45.08 C 51.87 34.06 52.20 23.03 51.90 12.02 C 52.11 9.31 49.51 7.76 47.06 8.03 C 40.19 8.11 33.23 7.51 26.40 8.39 M 17.22 10.02 C 15.72 11.20 16.10 13.27 15.96 14.93 C 16.04 25.31 15.96 35.69 15.99 46.06 C 15.90 47.78 16.38 50.78 18.78 49.97 C 20.45 48.48 19.87 46.04 20.05 44.06 C 19.94 34.02 20.05 23.98 20.01 13.94 C 20.08 12.24 19.64 9.10 17.22 10.02 M 9.19 11.97 C 8.96 12.30 8.51 12.94 8.29 13.27 C 7.56 18.81 8.18 24.43 8.00 30.00 C 8.18 35.57 7.56 41.19 8.29 46.73 C 8.93 48.99 12.04 48.08 11.86 45.90 C 12.26 36.26 11.86 26.58 12.04 16.93 C 12.06 15.01 12.11 11.23 9.19 11.97 Z" />
</g>
<g id="#000000ff">
<path fill="#000000" opacity="1.00" d=" M 26.40 8.39 C 33.23 7.51 40.19 8.11 47.06 8.03 C 49.51 7.76 52.11 9.31 51.90 12.02 C 52.20 23.03 51.87 34.06 52.04 45.08 C 52.05 47.56 52.11 51.45 48.83 51.78 C 41.64 52.20 34.36 52.19 27.17 51.78 C 24.30 51.60 23.91 48.34 23.98 46.08 C 23.97 35.70 24.04 25.31 23.96 14.93 C 24.09 12.66 23.69 9.29 26.40 8.39 Z" />
<path fill="#000000" opacity="1.00" d=" M 17.22 10.02 C 19.64 9.10 20.08 12.24 20.01 13.94 C 20.05 23.98 19.94 34.02 20.05 44.06 C 19.87 46.04 20.45 48.48 18.78 49.97 C 16.38 50.78 15.90 47.78 15.99 46.06 C 15.96 35.69 16.04 25.31 15.96 14.93 C 16.10 13.27 15.72 11.20 17.22 10.02 Z" />
<path fill="#000000" opacity="1.00" d=" M 9.19 11.97 C 12.11 11.23 12.06 15.01 12.04 16.93 C 11.86 26.58 12.26 36.26 11.86 45.90 C 12.04 48.08 8.93 48.99 8.29 46.73 C 7.56 41.19 8.18 35.57 8.00 30.00 C 8.18 24.43 7.56 18.81 8.29 13.27 C 8.51 12.94 8.96 12.30 9.19 11.97 Z" />
</g>
</svg>
