<?xml version="1.0" encoding="UTF-8" ?>
<!DOCTYPE svg PUBLIC "-//W3C//DTD SVG 1.1//EN" "http://www.w3.org/Graphics/SVG/1.1/DTD/svg11.dtd">
<svg width="64pt" height="64pt" viewBox="0 0 64 64" version="1.1" xmlns="http://www.w3.org/2000/svg">
<g id="#ffffffff">
<path fill="#ffffff" opacity="1.00" d=" M 0.00 0.00 L 64.00 0.00 L 64.00 64.00 L 0.00 64.00 L 0.00 0.00 M 20.99 15.14 C 18.68 18.19 16.34 21.22 13.93 24.20 C 10.15 23.16 5.78 25.86 6.00 30.01 C 5.81 33.94 9.74 36.56 13.39 35.98 C 16.06 40.04 18.65 44.15 21.23 48.27 C 19.01 51.49 20.04 56.61 24.10 57.70 C 28.66 59.45 33.61 54.45 31.47 49.93 C 37.26 45.02 43.11 40.19 48.99 35.37 C 51.20 35.99 53.81 36.38 55.72 34.76 C 59.16 32.28 58.58 26.19 54.60 24.56 C 52.52 23.45 50.23 24.26 48.26 25.17 C 42.81 21.21 37.29 17.36 31.87 13.37 C 32.84 9.28 29.12 5.17 24.94 6.10 C 20.74 6.59 18.77 11.71 20.99 15.14 Z" />
<path fill="#ffffff" opacity="1.00" d=" M 25.21 10.08 C 27.63 8.99 29.21 12.98 26.81 13.84 C 24.37 15.08 22.79 11.01 25.21 10.08 Z" />
<path fill="#ffffff" opacity="1.00" d=" M 24.06 17.81 C 26.03 18.09 27.95 17.72 29.73 16.83 C 34.97 20.49 40.12 24.27 45.31 28.00 C 35.75 27.97 26.19 28.08 16.64 27.93 C 18.56 24.18 21.58 21.18 24.06 17.81 Z" />
<path fill="#ffffff" opacity="1.00" d=" M 11.23 28.15 C 13.66 26.88 15.23 31.16 12.74 31.85 C 10.35 33.09 8.78 28.88 11.23 28.15 Z" />
<path fill="#ffffff" opacity="1.00" d=" M 51.24 28.15 C 53.63 26.90 55.23 31.12 52.77 31.84 C 50.36 33.13 48.77 28.86 51.24 28.15 Z" />
<path fill="#ffffff" opacity="1.00" d=" M 17.02 31.98 C 26.91 32.02 36.80 31.99 46.69 32.00 C 40.80 36.87 34.99 41.84 29.03 46.63 C 27.56 46.37 26.09 46.16 24.62 46.00 C 22.05 41.89 19.11 37.97 16.94 33.65 C 16.96 33.23 17.00 32.40 17.02 31.98 Z" />
<path fill="#ffffff" opacity="1.00" d=" M 25.26 50.13 C 27.65 48.96 29.21 53.05 26.80 53.84 C 24.36 55.13 22.75 50.85 25.26 50.13 Z" />
</g>
<g id="#000000ff">
<path fill="#000000" opacity="1.00" d=" M 20.99 15.14 C 18.77 11.71 20.74 6.59 24.94 6.10 C 29.12 5.17 32.84 9.28 31.87 13.37 C 37.29 17.36 42.81 21.21 48.26 25.17 C 50.23 24.26 52.52 23.45 54.60 24.56 C 58.58 26.19 59.16 32.28 55.72 34.76 C 53.81 36.38 51.20 35.99 48.99 35.37 C 43.11 40.19 37.26 45.02 31.47 49.93 C 33.61 54.45 28.66 59.45 24.10 57.70 C 20.04 56.61 19.01 51.49 21.23 48.27 C 18.65 44.15 16.06 40.04 13.39 35.98 C 9.74 36.56 5.81 33.94 6.00 30.01 C 5.78 25.86 10.15 23.16 13.93 24.20 C 16.34 21.22 18.68 18.19 20.99 15.14 M 25.21 10.08 C 22.79 11.01 24.37 15.08 26.81 13.84 C 29.21 12.98 27.63 8.99 25.21 10.08 M 24.06 17.81 C 21.58 21.18 18.56 24.18 16.64 27.93 C 26.19 28.08 35.75 27.97 45.31 28.00 C 40.12 24.27 34.97 20.49 29.73 16.83 C 27.95 17.72 26.03 18.09 24.06 17.81 M 11.23 28.15 C 8.78 28.88 10.35 33.09 12.74 31.85 C 15.23 31.16 13.66 26.88 11.23 28.15 M 51.24 28.15 C 48.77 28.86 50.36 33.13 52.77 31.84 C 55.23 31.12 53.63 26.90 51.24 28.15 M 17.02 31.98 C 17.00 32.40 16.96 33.23 16.94 33.65 C 19.11 37.97 22.05 41.89 24.62 46.00 C 26.09 46.16 27.56 46.37 29.03 46.63 C 34.99 41.84 40.80 36.87 46.69 32.00 C 36.80 31.99 26.91 32.02 17.02 31.98 M 25.26 50.13 C 22.75 50.85 24.36 55.13 26.80 53.84 C 29.21 53.05 27.65 48.96 25.26 50.13 Z" />
</g>
</svg>
