<?xml version="1.0" encoding="UTF-8" ?>
<!DOCTYPE svg PUBLIC "-//W3C//DTD SVG 1.1//EN" "http://www.w3.org/Graphics/SVG/1.1/DTD/svg11.dtd">
<svg width="64pt" height="64pt" viewBox="0 0 64 64" version="1.1" xmlns="http://www.w3.org/2000/svg">
<g id="#ffffffff">
<path fill="#ffffff" opacity="1.00" d=" M 0.00 0.00 L 64.00 0.00 L 64.00 64.00 L 0.00 64.00 L 0.00 0.00 M 6.00 10.00 C 6.00 22.00 6.00 34.00 6.00 46.00 C 9.33 46.00 12.67 46.00 16.00 46.00 C 16.00 49.39 16.00 52.78 16.00 56.17 C 20.29 52.79 24.50 49.34 28.80 45.98 C 38.53 46.02 48.26 45.99 58.00 46.00 C 58.00 34.00 58.00 22.00 58.00 10.00 C 40.67 10.00 23.33 10.00 6.00 10.00 Z" />
<path fill="#ffffff" opacity="1.00" d=" M 28.95 24.89 C 30.26 23.16 30.23 19.42 32.47 19.08 C 33.41 20.99 34.20 22.96 35.08 24.89 C 37.56 25.14 40.04 25.41 42.53 25.68 C 40.73 27.35 38.91 28.98 37.02 30.54 C 37.41 33.06 37.95 35.54 38.52 38.03 C 36.36 36.77 34.19 35.51 32.01 34.29 C 29.86 35.55 27.69 36.80 25.51 38.01 C 26.07 35.50 26.69 33.00 26.95 30.44 C 25.08 28.92 23.31 27.28 21.52 25.66 C 24.00 25.41 26.48 25.14 28.95 24.89 Z" />
</g>
<g id="#000000ff">
<path fill="#000000" opacity="1.00" d=" M 6.00 10.00 C 23.33 10.00 40.67 10.00 58.00 10.00 C 58.00 22.00 58.00 34.00 58.00 46.00 C 48.26 45.99 38.53 46.02 28.80 45.98 C 24.50 49.34 20.29 52.79 16.00 56.17 C 16.00 52.78 16.00 49.39 16.00 46.00 C 12.67 46.00 9.33 46.00 6.00 46.00 C 6.00 34.00 6.00 22.00 6.00 10.00 M 28.95 24.89 C 26.48 25.14 24.00 25.41 21.52 25.66 C 23.31 27.28 25.08 28.92 26.95 30.44 C 26.69 33.00 26.07 35.50 25.51 38.01 C 27.69 36.80 29.86 35.55 32.01 34.29 C 34.19 35.51 36.36 36.77 38.52 38.03 C 37.95 35.54 37.41 33.06 37.02 30.54 C 38.91 28.98 40.73 27.35 42.53 25.68 C 40.04 25.41 37.56 25.14 35.08 24.89 C 34.20 22.96 33.41 20.99 32.47 19.08 C 30.23 19.42 30.26 23.16 28.95 24.89 Z" />
</g>
</svg>
