<?xml version="1.0" encoding="UTF-8" ?>
<!DOCTYPE svg PUBLIC "-//W3C//DTD SVG 1.1//EN" "http://www.w3.org/Graphics/SVG/1.1/DTD/svg11.dtd">
<svg width="64pt" height="64pt" viewBox="0 0 64 64" version="1.1" xmlns="http://www.w3.org/2000/svg">
<g id="#ffffffff">
<path fill="#ffffff" opacity="1.00" d=" M 0.00 0.00 L 64.00 0.00 L 64.00 64.00 L 0.00 64.00 L 0.00 0.00 M 16.06 10.49 C 15.87 15.01 16.16 19.54 15.92 24.06 C 15.86 26.41 13.84 27.81 12.01 28.87 C 11.98 38.58 12.01 48.29 12.00 58.00 C 25.33 58.00 38.67 58.00 52.00 58.00 C 51.99 48.29 52.01 38.58 51.99 28.88 C 50.18 27.83 48.15 26.43 48.08 24.10 C 47.80 19.53 48.21 14.96 47.87 10.40 C 44.86 9.54 41.91 8.49 38.93 7.54 C 36.59 12.66 34.26 17.79 31.93 22.92 C 29.65 17.79 27.38 12.66 25.09 7.53 C 22.10 8.58 19.10 9.59 16.06 10.49 Z" />
<path fill="#ffffff" opacity="1.00" d=" M 20.04 13.38 C 20.76 13.16 22.19 12.71 22.91 12.49 C 25.19 17.59 27.46 22.68 29.71 27.80 C 29.02 29.44 27.92 31.04 28.00 32.89 C 27.99 39.93 28.01 46.96 28.00 54.00 C 24.00 54.00 20.00 54.00 16.00 54.00 C 16.01 46.28 15.97 38.56 16.03 30.83 C 21.73 26.78 19.61 19.30 20.04 13.38 Z" />
<path fill="#ffffff" opacity="1.00" d=" M 41.07 12.48 C 41.79 12.71 43.24 13.16 43.96 13.38 C 44.40 19.29 42.28 26.79 47.98 30.85 C 48.03 38.57 47.99 46.28 48.00 54.00 C 42.67 54.00 37.33 54.00 32.00 54.00 C 32.01 47.30 31.99 40.60 32.00 33.90 C 31.89 32.56 32.47 31.33 33.01 30.14 C 35.75 24.28 38.37 18.36 41.07 12.48 M 37.20 36.17 C 34.73 37.05 36.55 41.09 38.83 39.78 C 41.24 38.90 39.46 34.98 37.20 36.17 M 37.22 44.18 C 34.80 45.00 36.42 48.90 38.70 47.87 C 41.24 47.08 39.56 42.96 37.22 44.18 Z" />
</g>
<g id="#000000ff">
<path fill="#000000" opacity="1.00" d=" M 16.06 10.49 C 19.10 9.59 22.10 8.58 25.09 7.53 C 27.38 12.66 29.65 17.79 31.93 22.92 C 34.26 17.79 36.59 12.66 38.93 7.54 C 41.91 8.49 44.86 9.54 47.87 10.40 C 48.21 14.96 47.80 19.53 48.08 24.10 C 48.15 26.43 50.18 27.83 51.99 28.88 C 52.01 38.58 51.99 48.29 52.00 58.00 C 38.67 58.00 25.33 58.00 12.00 58.00 C 12.01 48.29 11.98 38.58 12.01 28.87 C 13.84 27.81 15.86 26.41 15.92 24.06 C 16.16 19.54 15.87 15.01 16.06 10.49 M 20.04 13.38 C 19.61 19.30 21.73 26.78 16.03 30.83 C 15.97 38.56 16.01 46.28 16.00 54.00 C 20.00 54.00 24.00 54.00 28.00 54.00 C 28.01 46.96 27.99 39.93 28.00 32.89 C 27.92 31.04 29.02 29.44 29.71 27.80 C 27.46 22.68 25.19 17.59 22.91 12.49 C 22.19 12.71 20.76 13.16 20.04 13.38 M 41.07 12.48 C 38.37 18.36 35.75 24.28 33.01 30.14 C 32.47 31.33 31.89 32.56 32.00 33.90 C 31.99 40.60 32.01 47.30 32.00 54.00 C 37.33 54.00 42.67 54.00 48.00 54.00 C 47.99 46.28 48.03 38.57 47.98 30.85 C 42.28 26.79 44.40 19.29 43.96 13.38 C 43.24 13.16 41.79 12.71 41.07 12.48 Z" />
<path fill="#000000" opacity="1.00" d=" M 37.20 36.17 C 39.46 34.98 41.24 38.90 38.83 39.78 C 36.55 41.09 34.73 37.05 37.20 36.17 Z" />
<path fill="#000000" opacity="1.00" d=" M 37.22 44.18 C 39.56 42.96 41.24 47.08 38.70 47.87 C 36.42 48.90 34.80 45.00 37.22 44.18 Z" />
</g>
</svg>
