<?xml version="1.0" encoding="UTF-8" ?>
<!DOCTYPE svg PUBLIC "-//W3C//DTD SVG 1.1//EN" "http://www.w3.org/Graphics/SVG/1.1/DTD/svg11.dtd">
<svg width="60pt" height="60pt" viewBox="0 0 60 60" version="1.1" xmlns="http://www.w3.org/2000/svg">
<g id="#ffffffff">
<path fill="#ffffff" opacity="1.00" d=" M 0.00 0.00 L 60.00 0.00 L 60.00 60.00 L 0.00 60.00 L 0.00 0.00 M 12.44 11.49 C 8.36 15.53 8.48 21.73 8.03 27.05 C 7.70 34.27 10.05 43.30 18.00 45.36 C 18.18 48.08 17.48 51.02 18.49 53.59 C 18.87 53.71 19.63 53.94 20.01 54.06 C 22.83 51.94 25.14 49.23 27.72 46.85 C 33.75 46.49 40.35 47.11 45.70 43.79 C 50.52 40.62 51.64 34.34 51.92 28.99 C 52.01 23.38 51.92 17.21 48.64 12.41 C 44.51 7.17 37.29 6.40 31.09 6.04 C 24.60 5.94 17.32 6.75 12.44 11.49 Z" />
<path fill="#ffffff" opacity="1.00" d=" M 27.59 14.22 C 28.22 11.37 31.60 11.97 33.77 12.22 C 40.56 13.21 45.59 20.76 43.51 27.36 C 43.08 27.63 42.23 28.16 41.80 28.43 C 41.61 24.57 41.94 20.10 38.74 17.26 C 35.91 14.06 31.45 14.35 27.59 14.22 Z" />
<path fill="#ffffff" opacity="1.00" d=" M 16.32 21.45 C 15.05 18.70 17.97 15.62 20.77 16.10 C 22.74 17.62 24.22 19.74 25.14 22.03 C 24.60 23.70 22.12 24.79 23.00 26.78 C 24.21 29.86 26.92 32.20 30.01 33.25 C 31.46 33.19 32.13 31.68 33.14 30.87 C 35.84 31.40 38.27 33.06 39.93 35.23 C 40.16 37.99 36.81 40.79 34.16 39.67 C 26.00 36.49 19.20 29.76 16.32 21.45 Z" />
<path fill="#ffffff" opacity="1.00" d=" M 29.00 16.24 C 35.12 14.55 41.49 20.86 39.71 26.99 C 37.65 28.75 37.63 25.31 37.53 24.09 C 37.37 21.16 34.76 18.58 31.84 18.46 C 30.58 18.40 27.24 18.28 29.00 16.24 Z" />
<path fill="#ffffff" opacity="1.00" d=" M 29.03 21.78 C 29.14 18.70 32.98 20.27 34.31 21.67 C 35.73 22.98 37.28 26.86 34.20 26.95 C 33.87 24.08 31.90 22.13 29.03 21.78 Z" />
</g>
<g id="#000000ff">
<path fill="#968176" opacity="1.00" d=" M 12.44 11.49 C 17.32 6.75 24.60 5.94 31.09 6.04 C 37.29 6.40 44.51 7.17 48.64 12.41 C 51.92 17.21 52.01 23.38 51.92 28.99 C 51.64 34.34 50.52 40.62 45.70 43.79 C 40.35 47.11 33.75 46.49 27.72 46.85 C 25.14 49.23 22.83 51.94 20.01 54.06 C 19.63 53.94 18.87 53.71 18.49 53.59 C 17.48 51.02 18.18 48.08 18.00 45.36 C 10.05 43.30 7.70 34.27 8.03 27.05 C 8.48 21.73 8.36 15.53 12.44 11.49 M 27.59 14.22 C 31.45 14.35 35.91 14.06 38.74 17.26 C 41.94 20.10 41.61 24.57 41.80 28.43 C 42.23 28.16 43.08 27.63 43.51 27.36 C 45.59 20.76 40.56 13.21 33.77 12.22 C 31.60 11.97 28.22 11.37 27.59 14.22 M 16.32 21.45 C 19.20 29.76 26.00 36.49 34.16 39.67 C 36.81 40.79 40.16 37.99 39.93 35.23 C 38.27 33.06 35.84 31.40 33.14 30.87 C 32.13 31.68 31.46 33.19 30.01 33.25 C 26.92 32.20 24.21 29.86 23.00 26.78 C 22.12 24.79 24.60 23.70 25.14 22.03 C 24.22 19.74 22.74 17.62 20.77 16.10 C 17.97 15.62 15.05 18.70 16.32 21.45 M 29.00 16.24 C 27.24 18.28 30.58 18.40 31.84 18.46 C 34.76 18.58 37.37 21.16 37.53 24.09 C 37.63 25.31 37.65 28.75 39.71 26.99 C 41.49 20.86 35.12 14.55 29.00 16.24 M 29.03 21.78 C 31.90 22.13 33.87 24.08 34.20 26.95 C 37.28 26.86 35.73 22.98 34.31 21.67 C 32.98 20.27 29.14 18.70 29.03 21.78 Z" />
</g>
</svg>
