<?xml version="1.0" encoding="UTF-8" ?>
<!DOCTYPE svg PUBLIC "-//W3C//DTD SVG 1.1//EN" "http://www.w3.org/Graphics/SVG/1.1/DTD/svg11.dtd">
<svg width="60pt" height="60pt" viewBox="0 0 60 60" version="1.1" xmlns="http://www.w3.org/2000/svg">
<g id="#ffffffff">
<path fill="#ffffff" opacity="1.00" d=" M 0.00 0.00 L 60.00 0.00 L 60.00 60.00 L 0.00 60.00 L 0.00 0.00 M 12.32 4.40 C 10.60 5.17 9.81 7.11 10.00 8.91 C 10.03 23.31 9.93 37.71 10.05 52.10 C 9.94 54.63 12.58 56.32 14.90 56.00 C 25.29 55.97 35.67 56.07 46.06 55.95 C 48.56 56.02 50.34 53.45 50.00 51.09 C 49.87 40.12 50.28 29.12 49.79 18.17 C 45.37 13.33 40.66 8.69 35.86 4.23 C 30.60 3.68 25.29 4.17 20.01 3.99 C 17.46 4.12 14.78 3.62 12.32 4.40 Z" />
<path fill="#ffffff" opacity="1.00" d=" M 34.00 7.81 C 38.07 11.87 42.12 15.93 46.19 19.99 C 42.52 19.92 38.84 20.21 35.18 19.84 C 34.92 19.60 34.42 19.13 34.17 18.89 C 33.78 15.21 34.08 11.50 34.00 7.81 Z" />
<path fill="#ffffff" opacity="1.00" d=" M 25.26 28.18 C 28.13 28.03 30.53 30.80 33.14 31.95 C 34.86 33.33 38.45 34.03 37.88 36.81 C 34.51 39.59 30.55 41.56 26.77 43.73 C 25.70 44.59 23.83 43.32 24.07 42.00 C 23.97 37.75 23.84 33.46 24.16 29.21 C 24.43 28.96 24.99 28.44 25.26 28.18 Z" />
</g>
<g id="#000000ff">
<path fill="#000000" opacity="1.00" d=" M 12.32 4.40 C 14.78 3.62 17.46 4.12 20.01 3.99 C 25.29 4.17 30.60 3.68 35.86 4.23 C 40.66 8.69 45.37 13.33 49.79 18.17 C 50.28 29.12 49.87 40.12 50.00 51.09 C 50.34 53.45 48.56 56.02 46.06 55.95 C 35.67 56.07 25.29 55.97 14.90 56.00 C 12.58 56.32 9.94 54.63 10.05 52.10 C 9.93 37.71 10.03 23.31 10.00 8.91 C 9.81 7.11 10.60 5.17 12.32 4.40 M 34.00 7.81 C 34.08 11.50 33.78 15.21 34.17 18.89 C 34.42 19.13 34.92 19.60 35.18 19.84 C 38.84 20.21 42.52 19.92 46.19 19.99 C 42.12 15.93 38.07 11.87 34.00 7.81 M 25.26 28.18 C 24.99 28.44 24.43 28.96 24.16 29.21 C 23.84 33.46 23.97 37.75 24.07 42.00 C 23.83 43.32 25.70 44.59 26.77 43.73 C 30.55 41.56 34.51 39.59 37.88 36.81 C 38.45 34.03 34.86 33.33 33.14 31.95 C 30.53 30.80 28.13 28.03 25.26 28.18 Z" />
</g>
</svg>
