<?xml version="1.0" encoding="UTF-8" ?>
<!DOCTYPE svg PUBLIC "-//W3C//DTD SVG 1.1//EN" "http://www.w3.org/Graphics/SVG/1.1/DTD/svg11.dtd">
<svg width="60pt" height="60pt" viewBox="0 0 60 60" version="1.1" xmlns="http://www.w3.org/2000/svg">
<g id="#ffffffff">
<path fill="#ffffff" opacity="1.00" d=" M 0.00 0.00 L 60.00 0.00 L 60.00 60.00 L 0.00 60.00 L 0.00 0.00 M 19.67 7.81 C 11.58 10.69 4.49 17.97 4.05 26.87 C 3.50 34.05 7.61 40.78 13.29 44.88 C 13.19 47.82 12.84 51.28 10.12 53.04 C 9.32 53.90 7.42 54.43 8.28 55.91 C 14.20 56.74 18.43 52.05 23.05 49.46 C 32.75 51.09 43.69 49.04 50.51 41.49 C 56.49 35.36 57.80 25.24 53.13 17.98 C 46.39 7.01 31.34 3.45 19.67 7.81 Z" />
<path fill="#ffffff" opacity="1.00" d=" M 19.17 20.16 C 24.35 19.88 29.59 19.88 34.77 20.16 C 35.03 20.40 35.56 20.89 35.82 21.14 C 36.14 25.67 36.13 30.27 35.83 34.81 C 35.59 35.06 35.10 35.57 34.86 35.82 C 29.66 36.14 24.41 36.11 19.21 35.84 C 18.95 35.60 18.43 35.11 18.17 34.87 C 17.87 30.33 17.87 25.74 18.16 21.20 C 18.41 20.94 18.92 20.42 19.17 20.16 Z" />
<path fill="#ffffff" opacity="1.00" d=" M 40.02 26.87 C 41.54 24.80 43.34 22.67 45.83 21.77 C 46.09 25.93 46.09 30.09 45.83 34.24 C 43.08 32.87 39.44 30.34 40.02 26.87 Z" />
</g>
<g id="#000000ff">
<path fill="#968176" opacity="1.00" d=" M 19.67 7.81 C 31.34 3.45 46.39 7.01 53.13 17.98 C 57.80 25.24 56.49 35.36 50.51 41.49 C 43.69 49.04 32.75 51.09 23.05 49.46 C 18.43 52.05 14.20 56.74 8.28 55.91 C 7.42 54.43 9.32 53.90 10.12 53.04 C 12.84 51.28 13.19 47.82 13.29 44.88 C 7.61 40.78 3.50 34.05 4.05 26.87 C 4.49 17.97 11.58 10.69 19.67 7.81 M 19.17 20.16 C 18.92 20.42 18.41 20.94 18.16 21.20 C 17.87 25.74 17.87 30.33 18.17 34.87 C 18.43 35.11 18.95 35.60 19.21 35.84 C 24.41 36.11 29.66 36.14 34.86 35.82 C 35.10 35.57 35.59 35.06 35.83 34.81 C 36.13 30.27 36.14 25.67 35.82 21.14 C 35.56 20.89 35.03 20.40 34.77 20.16 C 29.59 19.88 24.35 19.88 19.17 20.16 M 40.02 26.87 C 39.44 30.34 43.08 32.87 45.83 34.24 C 46.09 30.09 46.09 25.93 45.83 21.77 C 43.34 22.67 41.54 24.80 40.02 26.87 Z" />
</g>
</svg>
