<?xml version="1.0" encoding="UTF-8" ?>
<!DOCTYPE svg PUBLIC "-//W3C//DTD SVG 1.1//EN" "http://www.w3.org/Graphics/SVG/1.1/DTD/svg11.dtd">
<svg width="64pt" height="64pt" viewBox="0 0 64 64" version="1.1" xmlns="http://www.w3.org/2000/svg">
<g id="#ffffffff">
<path fill="#ffffff" opacity="1.00" d=" M 0.00 0.00 L 64.00 0.00 L 64.00 64.00 L 0.00 64.00 L 0.00 0.00 M 6.05 12.05 C 5.96 24.02 5.95 35.98 6.05 47.95 C 23.35 48.04 40.65 48.04 57.95 47.95 C 58.04 35.98 58.05 24.02 57.95 12.05 C 40.65 11.96 23.35 11.96 6.05 12.05 M 19.99 50.08 C 20.00 51.36 20.00 52.64 19.99 53.93 C 28.00 54.07 36.00 54.07 44.01 53.92 C 44.00 52.64 44.00 51.36 44.01 50.08 C 36.00 49.93 28.00 49.93 19.99 50.08 Z" />
<path fill="#ffffff" opacity="1.00" d=" M 10.05 16.05 C 24.68 15.96 39.32 15.96 53.95 16.05 C 54.05 25.35 54.05 34.65 53.95 43.95 C 39.32 44.04 24.68 44.04 10.05 43.95 C 9.95 34.65 9.95 25.35 10.05 16.05 M 26.31 25.98 C 26.73 29.56 25.03 32.76 23.84 36.00 C 24.58 36.00 26.08 35.98 26.83 35.97 C 28.22 34.59 29.50 33.02 31.24 32.05 C 33.91 31.61 35.40 34.50 37.18 35.98 C 37.92 35.98 39.42 36.00 40.16 36.00 C 39.30 33.23 37.57 30.61 37.72 27.61 C 37.73 25.38 37.83 22.68 35.69 21.30 C 32.19 18.15 25.60 21.11 26.31 25.98 M 18.00 38.03 C 18.00 39.34 18.00 40.66 17.99 41.97 C 20.66 42.02 23.34 42.02 26.01 41.97 C 26.00 40.66 26.00 39.34 26.00 38.03 C 23.33 37.98 20.67 37.98 18.00 38.03 M 28.00 38.03 C 28.00 39.34 28.00 40.66 27.99 41.97 C 30.66 42.02 33.33 42.02 36.01 41.97 C 36.00 40.66 36.00 39.34 36.00 38.03 C 33.33 37.98 30.67 37.98 28.00 38.03 M 38.00 38.03 C 38.00 39.34 38.00 40.66 38.00 41.97 C 40.67 42.02 43.34 42.02 46.01 41.97 C 46.00 40.66 46.00 39.34 46.01 38.03 C 43.34 37.98 40.66 37.98 38.00 38.03 Z" />
<path fill="#ffffff" opacity="1.00" d=" M 31.22 24.12 C 33.55 23.08 35.22 26.98 32.77 27.84 C 30.39 28.95 28.85 25.07 31.22 24.12 Z" />
</g>
<g id="#000000ff">
<path fill="#000000" opacity="1.00" d=" M 6.05 12.05 C 23.35 11.96 40.65 11.96 57.95 12.05 C 58.05 24.02 58.04 35.98 57.95 47.95 C 40.65 48.04 23.35 48.04 6.05 47.95 C 5.95 35.98 5.96 24.02 6.05 12.05 M 10.05 16.05 C 9.95 25.35 9.95 34.65 10.05 43.95 C 24.68 44.04 39.32 44.04 53.95 43.95 C 54.05 34.65 54.05 25.35 53.95 16.05 C 39.32 15.96 24.68 15.96 10.05 16.05 Z" />
<path fill="#000000" opacity="1.00" d=" M 26.31 25.98 C 25.60 21.11 32.19 18.15 35.69 21.30 C 37.83 22.68 37.73 25.38 37.72 27.61 C 37.57 30.61 39.30 33.23 40.16 36.00 C 39.42 36.00 37.92 35.98 37.18 35.98 C 35.40 34.50 33.91 31.61 31.24 32.05 C 29.50 33.02 28.22 34.59 26.83 35.97 C 26.08 35.98 24.58 36.00 23.84 36.00 C 25.03 32.76 26.73 29.56 26.31 25.98 M 31.22 24.12 C 28.85 25.07 30.39 28.95 32.77 27.84 C 35.22 26.98 33.55 23.08 31.22 24.12 Z" />
<path fill="#000000" opacity="1.00" d=" M 18.00 38.03 C 20.67 37.98 23.33 37.98 26.00 38.03 C 26.00 39.34 26.00 40.66 26.01 41.97 C 23.34 42.02 20.66 42.02 17.99 41.97 C 18.00 40.66 18.00 39.34 18.00 38.03 Z" />
<path fill="#000000" opacity="1.00" d=" M 28.00 38.03 C 30.67 37.98 33.33 37.98 36.00 38.03 C 36.00 39.34 36.00 40.66 36.01 41.97 C 33.33 42.02 30.66 42.02 27.99 41.97 C 28.00 40.66 28.00 39.34 28.00 38.03 Z" />
<path fill="#000000" opacity="1.00" d=" M 38.00 38.03 C 40.66 37.98 43.34 37.98 46.01 38.03 C 46.00 39.34 46.00 40.66 46.01 41.97 C 43.34 42.02 40.67 42.02 38.00 41.97 C 38.00 40.66 38.00 39.34 38.00 38.03 Z" />
<path fill="#000000" opacity="1.00" d=" M 19.99 50.08 C 28.00 49.93 36.00 49.93 44.01 50.08 C 44.00 51.36 44.00 52.64 44.01 53.92 C 36.00 54.07 28.00 54.07 19.99 53.93 C 20.00 52.64 20.00 51.36 19.99 50.08 Z" />
</g>
</svg>
