<?xml version="1.0" encoding="UTF-8" ?>
<!DOCTYPE svg PUBLIC "-//W3C//DTD SVG 1.1//EN" "http://www.w3.org/Graphics/SVG/1.1/DTD/svg11.dtd">
<svg width="60pt" height="60pt" viewBox="0 0 60 60" version="1.1" xmlns="http://www.w3.org/2000/svg">
<g id="#ffffffff">
<path fill="#ffffff" opacity="1.00" d=" M 0.00 0.00 L 60.00 0.00 L 60.00 60.00 L 0.00 60.00 L 0.00 0.00 M 18.00 10.48 C 18.00 11.47 17.99 12.46 17.99 13.45 C 16.95 14.39 16.16 15.54 15.67 16.85 C 16.25 17.17 17.42 17.82 18.00 18.15 C 18.00 19.41 18.00 20.67 18.00 21.93 C 16.06 22.22 13.57 21.39 12.10 23.05 C 11.61 24.66 12.95 25.58 14.00 26.49 C 14.05 33.04 13.90 39.60 14.05 46.15 C 13.99 49.25 16.80 52.01 19.89 51.95 C 26.98 51.98 34.09 52.18 41.17 51.84 C 44.78 51.30 46.34 47.44 46.11 44.16 C 50.09 44.20 54.11 41.23 53.99 37.00 C 54.12 32.70 50.00 29.78 45.99 29.78 C 46.00 28.68 46.00 27.58 46.00 26.48 C 47.05 25.59 48.34 24.68 47.94 23.09 C 46.47 21.39 43.96 22.22 41.99 21.93 C 41.99 20.78 42.00 19.62 42.00 18.47 C 44.41 17.39 44.39 14.61 42.00 13.53 C 42.00 12.37 41.99 11.22 41.99 10.07 C 43.93 9.76 46.49 10.65 47.89 8.90 C 48.29 7.60 47.59 5.95 46.04 6.08 C 36.68 5.94 27.29 5.93 17.92 6.09 C 15.04 6.17 16.01 9.71 18.00 10.48 Z" />
<path fill="#ffffff" opacity="1.00" d=" M 18.00 26.00 C 26.00 26.00 34.00 26.00 42.00 26.00 C 42.00 29.33 42.00 32.67 42.00 36.00 C 35.69 36.12 29.35 35.74 23.06 36.18 C 22.84 36.41 22.41 36.88 22.19 37.11 C 21.76 40.80 21.99 44.53 22.26 48.23 C 20.85 47.85 17.96 48.29 18.07 46.08 C 17.88 39.39 18.06 32.69 18.00 26.00 Z" />
<path fill="#ffffff" opacity="1.00" d=" M 46.04 33.67 C 47.78 34.15 50.03 34.71 50.03 36.97 C 50.09 39.27 47.79 39.83 46.04 40.33 C 45.99 38.11 45.99 35.89 46.04 33.67 Z" />
</g>
<g id="#000000ff">
<path fill="#000000" opacity="1.00" d=" M 18.00 10.48 C 16.01 9.71 15.04 6.17 17.92 6.09 C 27.29 5.93 36.68 5.94 46.04 6.08 C 47.59 5.95 48.29 7.60 47.89 8.90 C 46.49 10.65 43.93 9.76 41.99 10.07 C 41.99 11.22 42.00 12.37 42.00 13.53 C 44.39 14.61 44.41 17.39 42.00 18.47 C 42.00 19.62 41.99 20.78 41.99 21.93 C 43.96 22.22 46.47 21.39 47.94 23.09 C 48.34 24.68 47.05 25.59 46.00 26.48 C 46.00 27.58 46.00 28.68 45.99 29.78 C 50.00 29.78 54.12 32.70 53.99 37.00 C 54.11 41.23 50.09 44.20 46.11 44.16 C 46.34 47.44 44.78 51.30 41.17 51.84 C 34.09 52.18 26.98 51.98 19.89 51.95 C 16.80 52.01 13.99 49.25 14.05 46.15 C 13.90 39.60 14.05 33.04 14.00 26.49 C 12.95 25.58 11.61 24.66 12.10 23.05 C 13.57 21.39 16.06 22.22 18.00 21.93 C 18.00 20.67 18.00 19.41 18.00 18.15 C 17.42 17.82 16.25 17.17 15.67 16.85 C 16.16 15.54 16.95 14.39 17.99 13.45 C 17.99 12.46 18.00 11.47 18.00 10.48 M 18.00 26.00 C 18.06 32.69 17.88 39.39 18.07 46.08 C 17.96 48.29 20.85 47.85 22.26 48.23 C 21.99 44.53 21.76 40.80 22.19 37.11 C 22.41 36.88 22.84 36.41 23.06 36.18 C 29.35 35.74 35.69 36.12 42.00 36.00 C 42.00 32.67 42.00 29.33 42.00 26.00 C 34.00 26.00 26.00 26.00 18.00 26.00 M 46.04 33.67 C 45.99 35.89 45.99 38.11 46.04 40.33 C 47.79 39.83 50.09 39.27 50.03 36.97 C 50.03 34.71 47.78 34.15 46.04 33.67 Z" />
</g>
</svg>
