<?xml version="1.0" encoding="UTF-8" ?>
<!DOCTYPE svg PUBLIC "-//W3C//DTD SVG 1.1//EN" "http://www.w3.org/Graphics/SVG/1.1/DTD/svg11.dtd">
<svg width="64pt" height="64pt" viewBox="0 0 64 64" version="1.1" xmlns="http://www.w3.org/2000/svg">
<g id="#ffffffff">
<path fill="#ffffff" opacity="1.00" d=" M 0.00 0.00 L 64.00 0.00 L 64.00 64.00 L 0.00 64.00 L 0.00 0.00 M 26.43 8.66 C 19.57 10.28 13.55 15.09 10.46 21.43 C 7.20 27.99 7.21 36.06 10.49 42.61 C 13.80 49.40 20.50 54.41 27.96 55.64 C 35.02 56.88 42.61 54.74 47.92 49.92 C 53.25 45.22 56.32 38.06 55.96 30.95 C 55.71 24.10 52.28 17.47 46.91 13.22 C 41.27 8.65 33.48 6.96 26.43 8.66 Z" />
<path fill="#ffffff" opacity="1.00" d=" M 29.16 12.20 C 35.54 11.26 42.28 13.60 46.63 18.37 C 51.73 23.71 53.35 31.97 50.78 38.87 C 48.40 45.56 42.19 50.70 35.15 51.73 C 28.45 52.87 21.29 50.27 16.88 45.10 C 12.18 39.77 10.73 31.85 13.20 25.19 C 15.58 18.35 21.98 13.15 29.16 12.20 M 18.37 28.35 C 13.54 30.21 17.10 38.03 21.65 35.60 C 26.41 33.70 22.92 26.05 18.37 28.35 M 30.37 28.35 C 25.57 30.19 29.05 37.98 33.61 35.63 C 38.41 33.76 34.95 26.05 30.37 28.35 M 42.33 28.37 C 37.60 30.25 41.06 37.94 45.59 35.64 C 50.44 33.78 46.93 25.99 42.33 28.37 Z" />
</g>
<g id="#000000ff">
<path fill="#000000" opacity="1.00" d=" M 26.43 8.66 C 33.48 6.96 41.27 8.65 46.91 13.22 C 52.28 17.47 55.71 24.10 55.96 30.95 C 56.32 38.06 53.25 45.22 47.92 49.92 C 42.61 54.74 35.02 56.88 27.96 55.64 C 20.50 54.41 13.80 49.40 10.49 42.61 C 7.21 36.06 7.20 27.99 10.46 21.43 C 13.55 15.09 19.57 10.28 26.43 8.66 M 29.16 12.20 C 21.98 13.15 15.58 18.35 13.20 25.19 C 10.73 31.85 12.18 39.77 16.88 45.10 C 21.29 50.27 28.45 52.87 35.15 51.73 C 42.19 50.70 48.40 45.56 50.78 38.87 C 53.35 31.97 51.73 23.71 46.63 18.37 C 42.28 13.60 35.54 11.26 29.16 12.20 Z" />
<path fill="#000000" opacity="1.00" d=" M 18.37 28.35 C 22.92 26.05 26.41 33.70 21.65 35.60 C 17.10 38.03 13.54 30.21 18.37 28.35 Z" />
<path fill="#000000" opacity="1.00" d=" M 30.37 28.35 C 34.95 26.05 38.41 33.76 33.61 35.63 C 29.05 37.98 25.57 30.19 30.37 28.35 Z" />
<path fill="#000000" opacity="1.00" d=" M 42.33 28.37 C 46.93 25.99 50.44 33.78 45.59 35.64 C 41.06 37.94 37.60 30.25 42.33 28.37 Z" />
</g>
</svg>
