<?xml version="1.0" encoding="UTF-8" ?>
<!DOCTYPE svg PUBLIC "-//W3C//DTD SVG 1.1//EN" "http://www.w3.org/Graphics/SVG/1.1/DTD/svg11.dtd">
<svg width="60pt" height="60pt" viewBox="0 0 60 60" version="1.1" xmlns="http://www.w3.org/2000/svg">
<g id="#ffffffff">
<path fill="#ffffff" opacity="1.00" d=" M 0.00 0.00 L 60.00 0.00 L 60.00 60.00 L 0.00 60.00 L 0.00 0.00 M 33.71 21.71 C 31.89 25.33 30.62 29.91 26.42 31.46 C 19.61 34.47 12.79 38.02 8.15 44.05 C 7.16 45.44 4.80 47.60 6.83 49.13 C 11.51 52.33 17.32 53.82 22.95 53.97 C 27.12 54.13 31.44 51.88 32.97 47.86 C 34.93 43.20 31.88 38.59 31.41 33.98 C 31.27 32.20 33.20 31.01 34.80 31.47 C 39.31 32.34 44.12 35.05 48.61 32.62 C 52.94 30.57 54.48 25.39 53.90 20.93 C 53.21 15.53 51.87 9.77 48.06 5.68 C 41.51 8.99 36.72 15.13 33.71 21.71 Z" />
<path fill="#ffffff" opacity="1.00" d=" M 42.48 14.46 C 47.99 13.25 50.87 20.50 50.65 24.96 C 50.16 32.96 36.52 31.38 36.60 24.03 C 37.03 20.27 39.14 16.37 42.48 14.46 Z" />
<path fill="#ffffff" opacity="1.00" d=" M 20.42 37.51 C 22.76 36.40 26.04 35.99 27.94 38.14 C 30.50 41.13 31.57 46.36 28.33 49.26 C 25.37 51.72 21.11 50.60 18.05 48.92 C 15.78 47.76 13.40 45.20 14.47 42.46 C 15.64 40.07 18.12 38.65 20.42 37.51 Z" />
</g>
<g id="#000000ff">
<path fill="#000000" opacity="1.00" d=" M 33.71 21.71 C 36.72 15.13 41.51 8.99 48.06 5.68 C 51.87 9.77 53.21 15.53 53.90 20.93 C 54.48 25.39 52.94 30.57 48.61 32.62 C 44.12 35.05 39.31 32.34 34.80 31.47 C 33.20 31.01 31.27 32.20 31.41 33.98 C 31.88 38.59 34.93 43.20 32.97 47.86 C 31.44 51.88 27.12 54.13 22.95 53.97 C 17.32 53.82 11.51 52.33 6.83 49.13 C 4.80 47.60 7.16 45.44 8.15 44.05 C 12.79 38.02 19.61 34.47 26.42 31.46 C 30.62 29.91 31.89 25.33 33.71 21.71 M 42.48 14.46 C 39.14 16.37 37.03 20.27 36.60 24.03 C 36.52 31.38 50.16 32.96 50.65 24.96 C 50.87 20.50 47.99 13.25 42.48 14.46 M 20.42 37.51 C 18.12 38.65 15.64 40.07 14.47 42.46 C 13.40 45.20 15.78 47.76 18.05 48.92 C 21.11 50.60 25.37 51.72 28.33 49.26 C 31.57 46.36 30.50 41.13 27.94 38.14 C 26.04 35.99 22.76 36.40 20.42 37.51 Z" />
</g>
</svg>
