<?xml version="1.0" encoding="UTF-8" ?>
<!DOCTYPE svg PUBLIC "-//W3C//DTD SVG 1.1//EN" "http://www.w3.org/Graphics/SVG/1.1/DTD/svg11.dtd">
<svg width="60pt" height="60pt" viewBox="0 0 60 60" version="1.1" xmlns="http://www.w3.org/2000/svg">
<g id="#ffffffff">
<path fill="#ffffff" opacity="1.00" d=" M 0.00 0.00 L 60.00 0.00 L 60.00 60.00 L 0.00 60.00 L 0.00 0.00 M 6.32 10.40 C 4.59 11.17 3.80 13.13 4.00 14.94 C 4.03 25.32 3.94 35.70 4.04 46.07 C 3.92 48.59 6.56 50.34 8.90 50.00 C 22.95 50.00 37.00 50.00 51.06 50.00 C 53.42 50.36 56.01 48.58 55.96 46.08 C 56.06 35.68 55.97 25.28 56.00 14.89 C 56.33 12.56 54.60 9.93 52.08 10.04 C 38.39 9.93 24.69 10.06 11.00 9.98 C 9.45 10.09 7.78 9.74 6.32 10.40 Z" />
<path fill="#ffffff" opacity="1.00" d=" M 9.34 22.00 C 10.90 22.00 12.45 22.00 14.01 22.00 C 15.07 26.03 16.09 30.07 17.18 34.09 C 18.25 30.07 19.25 26.04 20.26 22.01 C 21.73 22.01 23.19 22.00 24.66 22.00 C 23.00 27.33 21.30 32.65 19.65 37.99 C 17.93 37.99 16.20 37.99 14.48 38.00 C 12.79 32.66 11.05 27.33 9.34 22.00 Z" />
<path fill="#ffffff" opacity="1.00" d=" M 27.97 22.00 C 29.32 22.00 30.68 22.00 32.03 22.00 C 32.04 27.33 32.04 32.67 32.03 38.00 C 30.68 38.00 29.32 38.00 27.97 38.00 C 27.96 32.67 27.96 27.33 27.97 22.00 Z" />
<path fill="#ffffff" opacity="1.00" d=" M 36.00 22.01 C 38.98 22.07 42.00 21.75 44.95 22.27 C 49.11 23.29 50.08 29.44 46.82 31.99 C 44.94 33.56 42.35 33.24 40.07 33.39 C 40.07 34.93 40.07 36.46 40.07 38.00 C 38.71 38.00 37.36 38.00 36.00 38.00 C 36.00 32.67 36.00 27.34 36.00 22.01 M 40.10 25.01 C 40.09 26.80 40.08 28.58 40.06 30.37 C 41.76 30.17 44.63 30.42 44.63 27.96 C 45.09 25.23 42.00 25.02 40.10 25.01 Z" />
</g>
<g id="#000000ff">
<path fill="#000000" opacity="1.00" d=" M 6.32 10.40 C 7.78 9.74 9.45 10.09 11.00 9.98 C 24.69 10.06 38.39 9.93 52.08 10.04 C 54.60 9.93 56.33 12.56 56.00 14.89 C 55.97 25.28 56.06 35.68 55.96 46.08 C 56.01 48.58 53.42 50.36 51.06 50.00 C 37.00 50.00 22.95 50.00 8.90 50.00 C 6.56 50.34 3.92 48.59 4.04 46.07 C 3.94 35.70 4.03 25.32 4.00 14.94 C 3.80 13.13 4.59 11.17 6.32 10.40 M 9.34 22.00 C 11.05 27.33 12.79 32.66 14.48 38.00 C 16.20 37.99 17.93 37.99 19.65 37.99 C 21.30 32.65 23.00 27.33 24.66 22.00 C 23.19 22.00 21.73 22.01 20.26 22.01 C 19.25 26.04 18.25 30.07 17.18 34.09 C 16.09 30.07 15.07 26.03 14.01 22.00 C 12.45 22.00 10.90 22.00 9.34 22.00 M 27.97 22.00 C 27.96 27.33 27.96 32.67 27.97 38.00 C 29.32 38.00 30.68 38.00 32.03 38.00 C 32.04 32.67 32.04 27.33 32.03 22.00 C 30.68 22.00 29.32 22.00 27.97 22.00 M 36.00 22.01 C 36.00 27.34 36.00 32.67 36.00 38.00 C 37.36 38.00 38.71 38.00 40.07 38.00 C 40.07 36.46 40.07 34.93 40.07 33.39 C 42.35 33.24 44.94 33.56 46.82 31.99 C 50.08 29.44 49.11 23.29 44.95 22.27 C 42.00 21.75 38.98 22.07 36.00 22.01 Z" />
<path fill="#000000" opacity="1.00" d=" M 40.10 25.01 C 42.00 25.02 45.09 25.23 44.63 27.96 C 44.63 30.42 41.76 30.17 40.06 30.37 C 40.08 28.58 40.09 26.80 40.10 25.01 Z" />
</g>
</svg>
