<?xml version="1.0" encoding="UTF-8" ?>
<!DOCTYPE svg PUBLIC "-//W3C//DTD SVG 1.1//EN" "http://www.w3.org/Graphics/SVG/1.1/DTD/svg11.dtd">
<svg width="60pt" height="60pt" viewBox="0 0 60 60" version="1.1" xmlns="http://www.w3.org/2000/svg">
<g id="#ffffffff">
<path fill="#ffffff" opacity="1.00" d=" M 0.00 0.00 L 60.00 0.00 L 60.00 60.00 L 0.00 60.00 L 0.00 0.00 M 6.63 11.22 C 10.31 13.19 13.05 16.85 13.91 20.92 C 14.22 28.63 13.78 36.36 14.09 44.07 C 13.85 46.61 18.22 46.55 17.92 44.01 C 18.14 36.99 17.93 29.96 17.98 22.94 C 17.75 18.71 20.51 15.14 23.00 12.00 C 25.12 14.64 27.33 17.52 27.92 20.94 C 28.21 28.64 27.79 36.37 28.09 44.08 C 27.86 46.59 32.18 46.55 31.92 44.04 C 32.14 37.02 31.93 29.99 31.98 22.96 C 31.74 18.72 34.50 15.14 37.00 11.99 C 39.80 15.37 42.57 19.39 42.03 24.01 C 42.53 31.94 40.13 40.95 45.30 47.82 C 43.57 49.60 41.67 51.23 40.19 53.24 C 39.32 54.80 41.22 56.59 42.78 55.82 C 44.70 54.32 46.30 52.47 48.01 50.73 C 50.21 52.36 52.98 58.11 55.87 54.81 C 56.09 51.69 52.38 50.07 50.71 47.80 C 54.87 42.41 54.15 35.26 53.82 28.89 C 52.66 25.74 50.31 20.77 46.12 22.40 C 45.78 16.99 42.83 11.76 38.64 8.39 C 34.26 6.71 31.93 12.18 30.00 15.10 C 28.10 12.29 26.21 7.50 22.08 8.12 C 19.08 9.36 17.59 12.60 15.94 15.20 C 14.11 12.42 12.23 9.06 8.81 8.08 C 6.96 7.31 4.91 9.95 6.63 11.22 Z" />
<path fill="#ffffff" opacity="1.00" d=" M 46.02 30.89 C 45.93 29.12 47.19 27.76 48.03 26.34 C 51.22 30.20 49.82 35.50 49.81 40.07 C 49.39 41.41 49.44 44.42 47.35 43.76 C 45.35 39.79 46.10 35.17 46.02 30.89 Z" />
</g>
<g id="#000000ff">
<path fill="#000000" opacity="1.00" d=" M 6.63 11.22 C 4.91 9.95 6.96 7.31 8.81 8.08 C 12.23 9.06 14.11 12.42 15.94 15.20 C 17.59 12.60 19.08 9.36 22.08 8.12 C 26.21 7.50 28.10 12.29 30.00 15.10 C 31.93 12.18 34.26 6.71 38.64 8.39 C 42.83 11.76 45.78 16.99 46.12 22.40 C 50.31 20.77 52.66 25.74 53.82 28.89 C 54.15 35.26 54.87 42.41 50.71 47.80 C 52.38 50.07 56.09 51.69 55.87 54.81 C 52.98 58.11 50.21 52.36 48.01 50.73 C 46.30 52.47 44.70 54.32 42.78 55.82 C 41.22 56.59 39.32 54.80 40.19 53.24 C 41.67 51.23 43.57 49.60 45.30 47.82 C 40.13 40.95 42.53 31.94 42.03 24.01 C 42.57 19.39 39.80 15.37 37.00 11.99 C 34.50 15.14 31.74 18.72 31.98 22.96 C 31.93 29.99 32.14 37.02 31.92 44.04 C 32.18 46.55 27.86 46.59 28.09 44.08 C 27.79 36.37 28.21 28.64 27.92 20.94 C 27.33 17.52 25.12 14.64 23.00 12.00 C 20.51 15.14 17.75 18.71 17.98 22.94 C 17.93 29.96 18.14 36.99 17.92 44.01 C 18.22 46.55 13.85 46.61 14.09 44.07 C 13.78 36.36 14.22 28.63 13.91 20.92 C 13.05 16.85 10.31 13.19 6.63 11.22 M 46.02 30.89 C 46.10 35.17 45.35 39.79 47.35 43.76 C 49.44 44.42 49.39 41.41 49.81 40.07 C 49.82 35.50 51.22 30.20 48.03 26.34 C 47.19 27.76 45.93 29.12 46.02 30.89 Z" />
</g>
</svg>
