<?xml version="1.0" encoding="UTF-8" ?>
<!DOCTYPE svg PUBLIC "-//W3C//DTD SVG 1.1//EN" "http://www.w3.org/Graphics/SVG/1.1/DTD/svg11.dtd">
<svg width="60pt" height="60pt" viewBox="0 0 60 60" version="1.1" xmlns="http://www.w3.org/2000/svg">
<g id="#ffffffff">
<path fill="#ffffff" opacity="1.00" d=" M 0.00 0.00 L 60.00 0.00 L 60.00 60.00 L 0.00 60.00 L 0.00 0.00 M 41.79 7.78 C 35.20 12.93 28.50 17.95 21.91 23.09 C 17.96 20.76 14.11 18.27 10.09 16.07 C 8.12 17.06 5.79 17.50 4.17 19.06 C 3.89 26.34 3.87 33.67 4.18 40.96 C 5.81 42.44 8.01 43.10 10.07 43.77 C 14.24 41.91 17.92 39.13 21.91 36.91 C 29.31 42.51 36.51 48.40 44.09 53.75 C 47.22 53.21 50.13 51.87 53.14 50.94 C 54.47 50.52 56.31 49.84 55.98 48.06 C 56.04 36.36 55.96 24.65 56.02 12.95 C 56.04 11.72 56.07 10.03 54.59 9.63 C 51.36 8.44 48.13 7.22 44.80 6.37 C 43.60 6.03 42.75 7.30 41.79 7.78 Z" />
<path fill="#ffffff" opacity="1.00" d=" M 30.11 30.00 C 34.75 26.87 39.35 23.70 44.00 20.58 C 44.00 26.86 44.00 33.14 44.00 39.42 C 39.35 36.30 34.75 33.12 30.11 30.00 Z" />
<path fill="#ffffff" opacity="1.00" d=" M 12.00 26.47 C 13.96 27.64 15.91 28.83 17.86 30.00 C 15.91 31.18 13.96 32.36 12.00 33.53 C 12.00 31.18 12.00 28.82 12.00 26.47 Z" />
</g>
<g id="#000000ff">
<path fill="#000000" opacity="1.00" d=" M 41.79 7.78 C 42.75 7.30 43.60 6.03 44.80 6.37 C 48.13 7.22 51.36 8.44 54.59 9.63 C 56.07 10.03 56.04 11.72 56.02 12.95 C 55.96 24.65 56.04 36.36 55.98 48.06 C 56.31 49.84 54.47 50.52 53.14 50.94 C 50.13 51.87 47.22 53.21 44.09 53.75 C 36.51 48.40 29.31 42.51 21.91 36.91 C 17.92 39.13 14.24 41.91 10.07 43.77 C 8.01 43.10 5.81 42.44 4.18 40.96 C 3.87 33.67 3.89 26.34 4.17 19.06 C 5.79 17.50 8.12 17.06 10.09 16.07 C 14.11 18.27 17.96 20.76 21.91 23.09 C 28.50 17.95 35.20 12.93 41.79 7.78 M 30.11 30.00 C 34.75 33.12 39.35 36.30 44.00 39.42 C 44.00 33.14 44.00 26.86 44.00 20.58 C 39.35 23.70 34.75 26.87 30.11 30.00 M 12.00 26.47 C 12.00 28.82 12.00 31.18 12.00 33.53 C 13.96 32.36 15.91 31.18 17.86 30.00 C 15.91 28.83 13.96 27.64 12.00 26.47 Z" />
</g>
</svg>
