<?xml version="1.0" encoding="UTF-8" ?>
<!DOCTYPE svg PUBLIC "-//W3C//DTD SVG 1.1//EN" "http://www.w3.org/Graphics/SVG/1.1/DTD/svg11.dtd">
<svg width="60pt" height="60pt" viewBox="0 0 60 60" version="1.1" xmlns="http://www.w3.org/2000/svg">
<g id="#ffffffff">
<path fill="#ffffff" opacity="1.00" d=" M 0.00 0.00 L 60.00 0.00 L 60.00 60.00 L 0.00 60.00 L 0.00 0.00 M 16.32 12.43 C 13.60 13.97 11.25 16.35 8.02 16.78 C 5.64 16.96 3.28 18.44 3.05 21.00 C 2.20 27.49 1.65 34.20 2.38 40.70 C 6.44 46.35 14.18 45.04 19.91 47.60 C 27.92 48.94 36.52 49.18 44.22 46.25 C 48.95 45.43 54.68 44.99 57.64 40.65 C 58.32 34.18 57.81 27.52 56.96 21.07 C 56.81 18.43 54.38 16.97 51.97 16.77 C 48.49 16.30 46.10 13.48 43.00 12.15 C 36.02 11.76 29.00 12.14 22.01 11.98 C 20.13 12.10 18.10 11.69 16.32 12.43 Z" />
<path fill="#ffffff" opacity="1.00" d=" M 19.14 20.17 C 26.34 19.88 33.60 19.88 40.80 20.16 C 41.05 20.39 41.56 20.84 41.81 21.07 C 42.14 26.31 42.13 31.61 41.82 36.85 C 41.58 37.09 41.08 37.58 40.84 37.83 C 33.61 38.12 26.32 38.14 19.09 37.82 C 18.86 37.57 18.40 37.08 18.17 36.84 C 17.87 31.63 17.87 26.36 18.17 21.15 C 18.41 20.91 18.90 20.42 19.14 20.17 Z" />
<path fill="#ffffff" opacity="1.00" d=" M 51.18 22.10 C 53.62 21.14 55.17 24.89 52.76 25.89 C 50.36 26.83 48.90 23.16 51.18 22.10 Z" />
<path fill="#ffffff" opacity="1.00" d=" M 8.01 24.00 C 9.34 24.00 10.66 24.00 11.99 24.00 C 12.00 24.50 12.00 25.50 12.01 25.99 C 12.50 26.00 13.50 26.01 14.00 26.01 C 14.00 27.34 14.00 28.66 14.00 29.99 C 13.50 29.99 12.50 30.00 12.01 30.01 C 12.00 30.50 11.99 31.50 11.99 32.00 C 10.66 32.00 9.34 32.00 8.01 32.00 C 8.01 31.50 8.00 30.50 7.99 30.01 C 7.50 30.00 6.50 29.99 6.00 29.99 C 6.00 28.66 6.00 27.34 6.00 26.01 C 6.50 26.01 7.50 26.00 7.99 25.99 C 8.00 25.50 8.00 24.50 8.01 24.00 Z" />
<path fill="#ffffff" opacity="1.00" d=" M 47.26 28.13 C 49.55 27.08 51.20 30.95 48.79 31.81 C 46.44 33.01 44.75 28.98 47.26 28.13 Z" />
</g>
<g id="#000000ff">
<path fill="#968176" opacity="1.00" d=" M 16.32 12.43 C 18.10 11.69 20.13 12.10 22.01 11.98 C 29.00 12.14 36.02 11.76 43.00 12.15 C 46.10 13.48 48.49 16.30 51.97 16.77 C 54.38 16.97 56.81 18.43 56.96 21.07 C 57.81 27.52 58.32 34.18 57.64 40.65 C 54.68 44.99 48.95 45.43 44.22 46.25 C 36.52 49.18 27.92 48.94 19.91 47.60 C 14.18 45.04 6.44 46.35 2.38 40.70 C 1.65 34.20 2.20 27.49 3.05 21.00 C 3.28 18.44 5.64 16.96 8.02 16.78 C 11.25 16.35 13.60 13.97 16.32 12.43 M 19.14 20.17 C 18.90 20.42 18.41 20.91 18.17 21.15 C 17.87 26.36 17.87 31.63 18.17 36.84 C 18.40 37.08 18.86 37.57 19.09 37.82 C 26.32 38.14 33.61 38.12 40.84 37.83 C 41.08 37.58 41.58 37.09 41.82 36.85 C 42.13 31.61 42.14 26.31 41.81 21.07 C 41.56 20.84 41.05 20.39 40.80 20.16 C 33.60 19.88 26.34 19.88 19.14 20.17 M 51.18 22.10 C 48.90 23.16 50.36 26.83 52.76 25.89 C 55.17 24.89 53.62 21.14 51.18 22.10 M 8.01 24.00 C 8.00 24.50 8.00 25.50 7.99 25.99 C 7.50 26.00 6.50 26.01 6.00 26.01 C 6.00 27.34 6.00 28.66 6.00 29.99 C 6.50 29.99 7.50 30.00 7.99 30.01 C 8.00 30.50 8.01 31.50 8.01 32.00 C 9.34 32.00 10.66 32.00 11.99 32.00 C 11.99 31.50 12.00 30.50 12.01 30.01 C 12.50 30.00 13.50 29.99 14.00 29.99 C 14.00 28.66 14.00 27.34 14.00 26.01 C 13.50 26.01 12.50 26.00 12.01 25.99 C 12.00 25.50 12.00 24.50 11.99 24.00 C 10.66 24.00 9.34 24.00 8.01 24.00 M 47.26 28.13 C 44.75 28.98 46.44 33.01 48.79 31.81 C 51.20 30.95 49.55 27.08 47.26 28.13 Z" />
</g>
</svg>
