<?xml version="1.0" encoding="UTF-8" ?>
<!DOCTYPE svg PUBLIC "-//W3C//DTD SVG 1.1//EN" "http://www.w3.org/Graphics/SVG/1.1/DTD/svg11.dtd">
<svg width="60pt" height="60pt" viewBox="0 0 60 60" version="1.1" xmlns="http://www.w3.org/2000/svg">
<g id="#ffffffff">
<path fill="#ffffff" opacity="1.00" d=" M 0.00 0.00 L 60.00 0.00 L 60.00 29.72 C 59.91 22.38 53.42 15.87 46.03 16.05 C 38.58 15.82 31.85 22.52 32.04 29.97 C 31.88 33.77 33.80 37.18 36.11 40.04 C 32.04 39.97 27.96 39.98 23.89 40.04 C 26.70 36.67 28.71 32.29 27.78 27.81 C 26.83 20.82 19.92 15.35 12.89 16.08 C 5.98 16.48 0.20 22.65 0.00 29.53 L 0.00 0.00 Z" />
<path fill="#ffffff" opacity="1.00" d=" M 10.47 20.66 C 17.36 17.69 25.55 24.54 23.80 31.85 C 22.78 39.22 12.75 42.64 7.39 37.49 C 1.78 32.95 3.59 22.91 10.47 20.66 Z" />
<path fill="#ffffff" opacity="1.00" d=" M 42.44 20.67 C 49.33 17.68 57.56 24.53 55.80 31.86 C 54.77 39.22 44.77 42.64 39.41 37.50 C 33.79 32.98 35.58 22.94 42.44 20.67 Z" />
<path fill="#ffffff" opacity="1.00" d=" M 0.00 30.26 C 0.10 37.18 5.87 43.53 12.85 43.87 C 22.23 44.21 31.63 43.87 41.01 44.02 C 45.05 44.00 49.43 44.29 53.00 42.06 C 57.18 39.73 59.73 35.14 60.00 30.42 L 60.00 60.00 L 0.00 60.00 L 0.00 30.26 Z" />
</g>
<g id="#000000ff">
<path fill="#000000" opacity="1.00" d=" M 0.00 29.53 C 0.20 22.65 5.98 16.48 12.89 16.08 C 19.92 15.35 26.83 20.82 27.78 27.81 C 28.71 32.29 26.70 36.67 23.89 40.04 C 27.96 39.98 32.04 39.97 36.11 40.04 C 33.80 37.18 31.88 33.77 32.04 29.97 C 31.85 22.52 38.58 15.82 46.03 16.05 C 53.42 15.87 59.91 22.38 60.00 29.72 L 60.00 30.42 C 59.73 35.14 57.18 39.73 53.00 42.06 C 49.43 44.29 45.05 44.00 41.01 44.02 C 31.63 43.87 22.23 44.21 12.85 43.87 C 5.87 43.53 0.10 37.18 0.00 30.26 L 0.00 29.53 M 10.47 20.66 C 3.59 22.91 1.78 32.95 7.39 37.49 C 12.75 42.64 22.78 39.22 23.80 31.85 C 25.55 24.54 17.36 17.69 10.47 20.66 M 42.44 20.67 C 35.58 22.94 33.79 32.98 39.41 37.50 C 44.77 42.64 54.77 39.22 55.80 31.86 C 57.56 24.53 49.33 17.68 42.44 20.67 Z" />
</g>
</svg>
