<?xml version="1.0" encoding="UTF-8" ?>
<!DOCTYPE svg PUBLIC "-//W3C//DTD SVG 1.1//EN" "http://www.w3.org/Graphics/SVG/1.1/DTD/svg11.dtd">
<svg width="64pt" height="64pt" viewBox="0 0 64 64" version="1.1" xmlns="http://www.w3.org/2000/svg">
<g id="#ffffffff">
<path fill="#ffffff" opacity="1.00" d=" M 0.00 0.00 L 64.00 0.00 L 64.00 64.00 L 0.00 64.00 L 0.00 0.00 M 6.00 12.00 C 6.00 25.34 6.00 38.67 6.00 52.00 C 23.33 52.01 40.67 52.01 58.00 52.00 C 58.00 38.66 58.00 25.33 58.00 12.00 C 40.67 11.99 23.33 11.99 6.00 12.00 Z" />
<path fill="#ffffff" opacity="1.00" d=" M 10.00 16.00 C 24.67 16.00 39.34 16.00 54.01 16.00 C 53.99 26.67 53.99 37.33 54.00 48.00 C 39.33 48.00 24.66 48.00 9.99 48.00 C 10.01 37.33 10.01 26.66 10.00 16.00 M 46.00 20.00 C 45.99 28.00 45.99 36.00 46.00 44.00 C 47.33 44.00 48.67 44.00 50.00 44.00 C 50.01 36.00 50.01 28.00 50.00 20.00 C 48.67 20.00 47.33 20.00 46.00 20.00 M 38.00 24.00 C 38.00 30.67 38.00 37.33 38.00 44.00 C 39.33 44.00 40.67 44.00 42.00 44.00 C 42.00 37.33 42.00 30.67 42.00 24.00 C 40.67 24.00 39.33 24.00 38.00 24.00 M 30.00 28.00 C 30.00 33.33 30.00 38.67 30.00 44.00 C 31.33 44.00 32.67 44.00 34.00 44.00 C 34.00 38.67 34.00 33.33 34.00 28.00 C 32.67 28.00 31.33 28.00 30.00 28.00 M 22.00 32.00 C 22.00 36.00 22.00 40.00 22.00 44.00 C 23.33 44.00 24.67 44.00 26.00 44.00 C 26.00 40.00 26.00 36.00 26.00 32.00 C 24.67 32.00 23.33 32.00 22.00 32.00 M 14.00 36.00 C 14.00 38.67 14.00 41.33 14.00 44.00 C 15.33 44.00 16.67 44.00 18.00 44.00 C 18.00 41.33 18.00 38.66 18.00 36.00 C 16.67 36.00 15.33 36.00 14.00 36.00 Z" />
</g>
<g id="#000000ff">
<path fill="#000000" opacity="1.00" d=" M 6.00 12.00 C 23.33 11.99 40.67 11.99 58.00 12.00 C 58.00 25.33 58.00 38.66 58.00 52.00 C 40.67 52.01 23.33 52.01 6.00 52.00 C 6.00 38.67 6.00 25.34 6.00 12.00 M 10.00 16.00 C 10.01 26.66 10.01 37.33 9.99 48.00 C 24.66 48.00 39.33 48.00 54.00 48.00 C 53.99 37.33 53.99 26.67 54.01 16.00 C 39.34 16.00 24.67 16.00 10.00 16.00 Z" />
<path fill="#000000" opacity="1.00" d=" M 46.00 20.00 C 47.33 20.00 48.67 20.00 50.00 20.00 C 50.01 28.00 50.01 36.00 50.00 44.00 C 48.67 44.00 47.33 44.00 46.00 44.00 C 45.99 36.00 45.99 28.00 46.00 20.00 Z" />
<path fill="#000000" opacity="1.00" d=" M 38.00 24.00 C 39.33 24.00 40.67 24.00 42.00 24.00 C 42.00 30.67 42.00 37.33 42.00 44.00 C 40.67 44.00 39.33 44.00 38.00 44.00 C 38.00 37.33 38.00 30.67 38.00 24.00 Z" />
<path fill="#000000" opacity="1.00" d=" M 30.00 28.00 C 31.33 28.00 32.67 28.00 34.00 28.00 C 34.00 33.33 34.00 38.67 34.00 44.00 C 32.67 44.00 31.33 44.00 30.00 44.00 C 30.00 38.67 30.00 33.33 30.00 28.00 Z" />
<path fill="#000000" opacity="1.00" d=" M 22.00 32.00 C 23.33 32.00 24.67 32.00 26.00 32.00 C 26.00 36.00 26.00 40.00 26.00 44.00 C 24.67 44.00 23.33 44.00 22.00 44.00 C 22.00 40.00 22.00 36.00 22.00 32.00 Z" />
<path fill="#000000" opacity="1.00" d=" M 14.00 36.00 C 15.33 36.00 16.67 36.00 18.00 36.00 C 18.00 38.66 18.00 41.33 18.00 44.00 C 16.67 44.00 15.33 44.00 14.00 44.00 C 14.00 41.33 14.00 38.67 14.00 36.00 Z" />
</g>
</svg>
