<?xml version="1.0" encoding="UTF-8" ?>
<!DOCTYPE svg PUBLIC "-//W3C//DTD SVG 1.1//EN" "http://www.w3.org/Graphics/SVG/1.1/DTD/svg11.dtd">
<svg width="64pt" height="64pt" viewBox="0 0 64 64" version="1.1" xmlns="http://www.w3.org/2000/svg">
<g id="#ffffffff">
<path fill="#ffffff" opacity="1.00" d=" M 0.00 0.00 L 64.00 0.00 L 64.00 64.00 L 0.00 64.00 L 0.00 0.00 M 28.12 8.19 C 24.73 7.35 20.65 9.19 20.15 12.90 C 19.80 20.39 20.06 27.92 20.04 35.43 C 18.51 34.15 17.14 32.37 15.03 32.10 C 11.51 31.35 7.89 34.40 8.01 37.99 C 7.89 40.93 10.38 42.84 12.21 44.75 C 16.50 48.80 20.41 53.26 24.88 57.12 C 29.66 61.17 36.30 59.84 42.05 59.96 C 49.46 60.10 56.08 53.50 55.96 46.09 C 56.02 38.01 56.06 29.91 55.94 21.83 C 56.02 17.82 51.77 15.26 48.10 16.14 C 47.94 13.93 48.04 11.37 46.21 9.76 C 44.61 7.93 42.09 7.99 39.87 8.19 C 38.62 6.04 36.75 3.86 33.99 3.99 C 31.24 3.86 29.38 6.04 28.12 8.19 Z" />
<path fill="#ffffff" opacity="1.00" d=" M 32.08 9.94 C 31.85 7.88 35.04 7.29 35.82 9.10 C 36.25 16.05 35.87 23.04 36.00 30.00 C 37.33 30.00 38.67 30.00 40.00 30.00 C 40.08 24.64 39.85 19.28 40.08 13.92 C 39.91 12.44 41.62 11.67 42.86 12.13 C 44.31 12.89 43.88 14.63 44.02 15.96 C 44.02 20.64 43.99 25.32 44.00 30.00 C 45.34 30.00 46.67 30.00 48.01 30.00 C 48.01 27.04 47.84 24.07 48.17 21.12 C 48.93 19.28 52.17 19.88 51.91 21.96 C 52.09 30.00 52.01 38.07 51.95 46.12 C 52.04 51.01 47.96 55.55 43.06 55.88 C 39.37 56.09 35.67 56.11 31.98 55.89 C 28.93 55.72 26.66 53.41 24.61 51.40 C 20.67 47.34 16.50 43.50 12.60 39.41 C 10.97 37.94 12.81 35.26 14.81 36.14 C 18.08 38.92 20.87 42.23 23.99 45.18 C 24.03 35.12 23.95 25.05 24.02 15.00 C 23.82 13.71 24.41 11.74 26.07 12.06 C 27.66 11.80 28.12 13.77 27.98 14.96 C 28.07 19.97 27.96 24.99 28.00 30.00 C 29.33 30.00 30.67 30.00 32.00 30.00 C 32.07 23.31 31.86 16.62 32.08 9.94 M 30.14 40.95 C 31.61 44.81 35.06 47.37 38.01 50.06 C 40.92 47.59 44.18 45.17 45.69 41.53 C 46.84 39.06 44.72 35.87 41.99 36.00 C 40.08 35.83 39.03 37.57 38.00 38.84 C 37.06 37.83 36.45 36.34 34.93 36.09 C 32.21 35.35 29.28 38.21 30.14 40.95 Z" />
</g>
<g id="#000000ff">
<path fill="#000000" opacity="1.00" d=" M 28.12 8.19 C 29.38 6.04 31.24 3.86 33.99 3.99 C 36.75 3.86 38.62 6.04 39.87 8.19 C 42.09 7.99 44.61 7.93 46.21 9.76 C 48.04 11.37 47.94 13.93 48.10 16.14 C 51.77 15.26 56.02 17.82 55.94 21.83 C 56.06 29.91 56.02 38.01 55.96 46.09 C 56.08 53.50 49.46 60.10 42.05 59.96 C 36.30 59.84 29.66 61.17 24.88 57.12 C 20.41 53.26 16.50 48.80 12.21 44.75 C 10.38 42.84 7.89 40.93 8.01 37.99 C 7.89 34.40 11.51 31.35 15.03 32.10 C 17.14 32.37 18.51 34.15 20.04 35.43 C 20.06 27.92 19.80 20.39 20.15 12.90 C 20.65 9.19 24.73 7.35 28.12 8.19 M 32.08 9.94 C 31.86 16.62 32.07 23.31 32.00 30.00 C 30.67 30.00 29.33 30.00 28.00 30.00 C 27.96 24.99 28.07 19.97 27.98 14.96 C 28.12 13.77 27.66 11.80 26.07 12.06 C 24.41 11.74 23.82 13.71 24.02 15.00 C 23.95 25.05 24.03 35.12 23.99 45.18 C 20.87 42.23 18.08 38.92 14.81 36.14 C 12.81 35.26 10.97 37.94 12.60 39.41 C 16.50 43.50 20.67 47.34 24.61 51.40 C 26.66 53.41 28.93 55.72 31.98 55.89 C 35.67 56.11 39.37 56.09 43.06 55.88 C 47.96 55.55 52.04 51.01 51.95 46.12 C 52.01 38.07 52.09 30.00 51.91 21.96 C 52.17 19.88 48.93 19.28 48.17 21.12 C 47.84 24.07 48.01 27.04 48.01 30.00 C 46.67 30.00 45.34 30.00 44.00 30.00 C 43.99 25.32 44.02 20.64 44.02 15.96 C 43.88 14.63 44.31 12.89 42.86 12.13 C 41.62 11.67 39.91 12.44 40.08 13.92 C 39.85 19.28 40.08 24.64 40.00 30.00 C 38.67 30.00 37.33 30.00 36.00 30.00 C 35.87 23.04 36.25 16.05 35.82 9.10 C 35.04 7.29 31.85 7.88 32.08 9.94 Z" />
<path fill="#000000" opacity="1.00" d=" M 30.14 40.95 C 29.28 38.21 32.21 35.35 34.93 36.09 C 36.45 36.34 37.06 37.83 38.00 38.84 C 39.03 37.57 40.08 35.83 41.99 36.00 C 44.72 35.87 46.84 39.06 45.69 41.53 C 44.18 45.17 40.92 47.59 38.01 50.06 C 35.06 47.37 31.61 44.81 30.14 40.95 Z" />
</g>
</svg>
