<?xml version="1.0" encoding="UTF-8" ?>
<!DOCTYPE svg PUBLIC "-//W3C//DTD SVG 1.1//EN" "http://www.w3.org/Graphics/SVG/1.1/DTD/svg11.dtd">
<svg width="64pt" height="64pt" viewBox="0 0 64 64" version="1.1" xmlns="http://www.w3.org/2000/svg">
<g id="#ffffffff">
<path fill="#ffffff" opacity="1.00" d=" M 0.00 0.00 L 64.00 0.00 L 64.00 64.00 L 0.00 64.00 L 0.00 0.00 M 16.00 60.00 C 17.29 60.00 18.59 60.00 19.88 60.00 C 20.21 53.78 24.45 48.70 29.34 45.25 C 31.57 43.89 33.99 41.79 36.74 42.22 C 40.73 45.55 41.73 51.08 42.06 56.00 C 43.38 56.00 44.69 56.00 46.00 56.00 C 45.76 38.49 42.83 19.88 32.01 5.58 C 20.09 20.90 16.20 40.97 16.00 60.00 M 10.02 24.02 C 8.74 27.16 8.31 30.66 8.02 34.03 C 8.32 38.02 12.80 38.54 15.93 38.83 C 16.43 36.57 16.93 34.31 17.43 32.06 C 15.35 32.10 11.17 32.44 12.12 29.09 C 13.69 27.22 16.47 28.25 18.59 27.95 C 19.34 25.53 20.16 23.13 21.04 20.76 C 17.44 21.80 12.57 20.75 10.02 24.02 M 42.34 20.68 C 43.10 23.14 43.89 25.59 44.64 28.05 C 47.06 28.25 52.59 26.70 51.89 30.84 C 50.46 32.83 47.62 31.69 45.56 32.03 C 45.98 34.35 46.40 36.67 46.81 39.00 C 49.93 38.37 54.64 38.83 55.77 34.98 C 56.22 31.46 55.09 27.86 54.22 24.46 C 51.79 20.53 46.19 21.81 42.34 20.68 Z" />
<path fill="#ffffff" opacity="1.00" d=" M 31.55 13.08 C 32.81 12.96 32.91 14.59 33.51 15.36 C 37.49 23.27 39.65 31.94 41.03 40.65 C 39.36 39.22 37.40 37.53 35.01 38.12 C 29.25 39.52 24.45 43.46 20.61 47.84 C 22.08 35.73 25.29 23.64 31.55 13.08 Z" />
</g>
<g id="#000000ff">
<path fill="#000000" opacity="1.00" d=" M 16.00 60.00 C 16.20 40.97 20.09 20.90 32.01 5.58 C 42.83 19.88 45.76 38.49 46.00 56.00 C 44.69 56.00 43.38 56.00 42.06 56.00 C 41.73 51.08 40.73 45.55 36.74 42.22 C 33.99 41.79 31.57 43.89 29.34 45.25 C 24.45 48.70 20.21 53.78 19.88 60.00 C 18.59 60.00 17.29 60.00 16.00 60.00 M 31.55 13.08 C 25.29 23.64 22.08 35.73 20.61 47.84 C 24.45 43.46 29.25 39.52 35.01 38.12 C 37.40 37.53 39.36 39.22 41.03 40.65 C 39.65 31.94 37.49 23.27 33.51 15.36 C 32.91 14.59 32.81 12.96 31.55 13.08 Z" />
<path fill="#000000" opacity="1.00" d=" M 10.02 24.02 C 12.57 20.75 17.44 21.80 21.04 20.76 C 20.16 23.13 19.34 25.53 18.59 27.95 C 16.47 28.25 13.69 27.22 12.12 29.09 C 11.17 32.44 15.35 32.10 17.43 32.06 C 16.93 34.31 16.43 36.57 15.93 38.83 C 12.80 38.54 8.32 38.02 8.02 34.03 C 8.31 30.66 8.74 27.16 10.02 24.02 Z" />
<path fill="#000000" opacity="1.00" d=" M 42.34 20.68 C 46.19 21.81 51.79 20.53 54.22 24.46 C 55.09 27.86 56.22 31.46 55.77 34.98 C 54.64 38.83 49.93 38.37 46.81 39.00 C 46.40 36.67 45.98 34.35 45.56 32.03 C 47.62 31.69 50.46 32.83 51.89 30.84 C 52.59 26.70 47.06 28.25 44.64 28.05 C 43.89 25.59 43.10 23.14 42.34 20.68 Z" />
</g>
</svg>
