<?xml version="1.0" encoding="UTF-8" ?>
<!DOCTYPE svg PUBLIC "-//W3C//DTD SVG 1.1//EN" "http://www.w3.org/Graphics/SVG/1.1/DTD/svg11.dtd">
<svg width="64pt" height="64pt" viewBox="0 0 64 64" version="1.1" xmlns="http://www.w3.org/2000/svg">
<g id="#ffffffff">
<path fill="#ffffff" opacity="1.00" d=" M 0.00 0.00 L 64.00 0.00 L 64.00 64.00 L 0.00 64.00 L 0.00 0.00 M 12.45 11.15 C 15.99 16.78 18.03 23.39 17.94 30.06 C 17.62 33.35 15.76 36.19 14.43 39.14 C 12.05 43.76 10.16 48.74 9.91 53.98 C 11.24 53.99 12.56 54.00 13.88 54.00 C 14.18 51.39 14.77 48.82 15.62 46.34 C 20.86 47.50 27.98 48.31 30.27 53.99 C 31.42 54.00 32.58 54.00 33.73 53.99 C 36.01 48.30 43.15 47.50 48.38 46.34 C 49.23 48.82 49.81 51.39 50.11 54.00 C 51.44 54.00 52.76 53.99 54.09 53.98 C 53.93 45.90 49.04 39.19 46.36 31.87 C 45.32 24.66 47.80 17.28 51.55 11.16 C 50.49 10.36 49.43 9.56 48.36 8.76 C 43.81 16.15 40.66 25.36 42.85 34.03 C 35.61 33.98 28.36 34.00 21.12 34.01 C 23.37 25.37 20.14 16.20 15.67 8.78 C 14.60 9.57 13.52 10.36 12.45 11.15 M 30.00 10.00 C 30.00 11.33 30.00 12.67 30.00 14.00 C 31.33 14.00 32.67 14.00 34.00 14.00 C 34.00 12.67 34.00 11.33 34.00 10.00 C 32.67 10.00 31.33 10.00 30.00 10.00 M 30.00 18.00 C 30.00 19.33 30.00 20.67 30.00 22.00 C 31.33 22.00 32.67 22.00 34.00 22.00 C 34.00 20.67 34.00 19.33 34.00 18.00 C 32.67 18.00 31.33 18.00 30.00 18.00 M 30.00 26.00 C 30.00 27.33 30.00 28.67 30.00 30.00 C 31.33 30.00 32.67 30.00 34.00 30.00 C 34.00 28.67 34.00 27.33 34.00 26.00 C 32.67 26.00 31.33 26.00 30.00 26.00 Z" />
<path fill="#ffffff" opacity="1.00" d=" M 19.39 38.06 C 27.79 37.94 36.19 37.99 44.58 38.04 C 45.31 39.56 46.05 41.08 46.79 42.60 C 41.50 43.59 35.85 44.97 32.00 49.00 C 28.14 44.98 22.51 43.59 17.22 42.60 C 17.95 41.09 18.68 39.58 19.39 38.06 Z" />
</g>
<g id="#000000ff">
<path fill="#000000" opacity="1.00" d=" M 12.45 11.15 C 13.52 10.36 14.60 9.57 15.67 8.78 C 20.14 16.20 23.37 25.37 21.12 34.01 C 28.36 34.00 35.61 33.98 42.85 34.03 C 40.66 25.36 43.81 16.15 48.36 8.76 C 49.43 9.56 50.49 10.36 51.55 11.16 C 47.80 17.28 45.32 24.66 46.36 31.87 C 49.04 39.19 53.93 45.90 54.09 53.98 C 52.76 53.99 51.44 54.00 50.11 54.00 C 49.81 51.39 49.23 48.82 48.38 46.34 C 43.15 47.50 36.01 48.30 33.73 53.99 C 32.58 54.00 31.42 54.00 30.27 53.99 C 27.98 48.31 20.86 47.50 15.62 46.34 C 14.77 48.82 14.18 51.39 13.88 54.00 C 12.56 54.00 11.24 53.99 9.91 53.98 C 10.16 48.74 12.05 43.76 14.43 39.14 C 15.76 36.19 17.62 33.35 17.94 30.06 C 18.03 23.39 15.99 16.78 12.45 11.15 M 19.39 38.06 C 18.68 39.58 17.95 41.09 17.22 42.60 C 22.51 43.59 28.14 44.98 32.00 49.00 C 35.85 44.97 41.50 43.59 46.79 42.60 C 46.05 41.08 45.31 39.56 44.58 38.04 C 36.19 37.99 27.79 37.94 19.39 38.06 Z" />
<path fill="#000000" opacity="1.00" d=" M 30.00 10.00 C 31.33 10.00 32.67 10.00 34.00 10.00 C 34.00 11.33 34.00 12.67 34.00 14.00 C 32.67 14.00 31.33 14.00 30.00 14.00 C 30.00 12.67 30.00 11.33 30.00 10.00 Z" />
<path fill="#000000" opacity="1.00" d=" M 30.00 18.00 C 31.33 18.00 32.67 18.00 34.00 18.00 C 34.00 19.33 34.00 20.67 34.00 22.00 C 32.67 22.00 31.33 22.00 30.00 22.00 C 30.00 20.67 30.00 19.33 30.00 18.00 Z" />
<path fill="#000000" opacity="1.00" d=" M 30.00 26.00 C 31.33 26.00 32.67 26.00 34.00 26.00 C 34.00 27.33 34.00 28.67 34.00 30.00 C 32.67 30.00 31.33 30.00 30.00 30.00 C 30.00 28.67 30.00 27.33 30.00 26.00 Z" />
</g>
</svg>
