<?xml version="1.0" encoding="UTF-8" ?>
<!DOCTYPE svg PUBLIC "-//W3C//DTD SVG 1.1//EN" "http://www.w3.org/Graphics/SVG/1.1/DTD/svg11.dtd">
<svg width="60pt" height="60pt" viewBox="0 0 60 60" version="1.1" xmlns="http://www.w3.org/2000/svg">
<g id="#ffffffff">
<path fill="#ffffff" opacity="1.00" d=" M 0.00 0.00 L 60.00 0.00 L 60.00 60.00 L 0.00 60.00 L 0.00 0.00 M 24.48 6.68 C 21.24 8.39 21.22 13.54 24.44 15.28 C 27.55 17.38 32.15 14.71 32.00 11.00 C 32.15 7.31 27.60 4.64 24.48 6.68 M 8.69 18.58 C 7.00 20.69 5.48 22.95 4.20 25.33 C 3.44 26.99 5.24 28.50 6.84 27.89 C 8.63 26.01 9.90 23.72 11.36 21.59 C 12.63 21.19 13.89 20.79 15.15 20.40 C 13.14 26.14 11.55 32.01 10.49 38.00 C 10.08 42.29 5.41 44.22 3.98 47.99 C 3.88 49.73 6.20 50.66 7.34 49.39 C 9.77 47.12 12.21 44.84 14.34 42.29 C 15.63 40.06 16.39 37.58 17.37 35.21 C 19.34 35.47 21.32 35.74 23.30 36.00 C 25.07 38.45 26.87 40.88 28.65 43.33 C 27.62 45.41 28.07 47.77 27.99 50.00 C 25.32 50.00 22.66 50.00 20.00 50.00 C 20.00 51.33 20.00 52.67 20.00 54.00 C 24.00 54.00 28.00 54.00 32.00 54.00 C 32.00 52.00 32.00 50.00 32.00 48.00 C 34.67 48.00 37.33 48.00 40.00 48.00 C 40.00 46.00 40.00 44.00 40.00 42.00 C 42.67 42.00 45.33 42.00 48.00 42.00 C 48.00 40.00 48.00 38.00 48.00 36.00 C 50.67 36.00 53.33 36.00 56.00 36.00 C 56.00 34.67 56.00 33.33 56.00 32.00 C 52.00 32.00 48.00 32.00 44.00 32.00 C 44.00 34.00 44.00 36.00 44.00 38.00 C 41.33 38.00 38.67 38.00 36.00 38.00 C 36.00 39.99 36.00 41.98 36.00 43.98 C 34.20 44.00 32.41 44.02 30.61 44.10 C 31.69 43.27 32.38 41.85 31.51 40.61 C 30.36 38.11 29.19 35.60 27.73 33.27 C 26.25 31.85 24.31 31.04 22.57 29.99 C 23.05 28.18 23.53 26.37 24.01 24.56 C 25.30 26.14 26.45 28.60 28.94 28.02 C 31.21 27.74 34.24 28.85 35.90 26.85 C 36.60 22.71 31.05 24.29 28.64 23.98 C 26.66 21.42 25.22 17.94 21.72 17.18 C 17.48 15.00 12.62 16.47 8.69 18.58 Z" />
</g>
<g id="#000000ff">
<path fill="#000000" opacity="1.00" d=" M 24.48 6.68 C 27.60 4.64 32.15 7.31 32.00 11.00 C 32.15 14.71 27.55 17.38 24.44 15.28 C 21.22 13.54 21.24 8.39 24.48 6.68 Z" />
<path fill="#000000" opacity="1.00" d=" M 8.69 18.58 C 12.62 16.47 17.48 15.00 21.72 17.18 C 25.22 17.94 26.66 21.42 28.64 23.98 C 31.05 24.29 36.60 22.71 35.90 26.85 C 34.24 28.85 31.21 27.74 28.94 28.02 C 26.45 28.60 25.30 26.14 24.01 24.56 C 23.53 26.37 23.05 28.18 22.57 29.99 C 24.31 31.04 26.25 31.85 27.73 33.27 C 29.19 35.60 30.36 38.11 31.51 40.61 C 32.38 41.85 31.69 43.27 30.61 44.10 C 32.41 44.02 34.20 44.00 36.00 43.98 C 36.00 41.98 36.00 39.99 36.00 38.00 C 38.67 38.00 41.33 38.00 44.00 38.00 C 44.00 36.00 44.00 34.00 44.00 32.00 C 48.00 32.00 52.00 32.00 56.00 32.00 C 56.00 33.33 56.00 34.67 56.00 36.00 C 53.33 36.00 50.67 36.00 48.00 36.00 C 48.00 38.00 48.00 40.00 48.00 42.00 C 45.33 42.00 42.67 42.00 40.00 42.00 C 40.00 44.00 40.00 46.00 40.00 48.00 C 37.33 48.00 34.67 48.00 32.00 48.00 C 32.00 50.00 32.00 52.00 32.00 54.00 C 28.00 54.00 24.00 54.00 20.00 54.00 C 20.00 52.67 20.00 51.33 20.00 50.00 C 22.66 50.00 25.32 50.00 27.99 50.00 C 28.07 47.77 27.62 45.41 28.65 43.33 C 26.87 40.88 25.07 38.45 23.30 36.00 C 21.32 35.74 19.34 35.47 17.37 35.21 C 16.39 37.58 15.63 40.06 14.34 42.29 C 12.21 44.84 9.77 47.12 7.34 49.39 C 6.20 50.66 3.88 49.73 3.98 47.99 C 5.41 44.22 10.08 42.29 10.49 38.00 C 11.55 32.01 13.14 26.14 15.15 20.40 C 13.89 20.79 12.63 21.19 11.36 21.59 C 9.90 23.72 8.63 26.01 6.84 27.89 C 5.24 28.50 3.44 26.99 4.20 25.33 C 5.48 22.95 7.00 20.69 8.69 18.58 Z" />
</g>
</svg>
