<?xml version="1.0" encoding="UTF-8" ?>
<!DOCTYPE svg PUBLIC "-//W3C//DTD SVG 1.1//EN" "http://www.w3.org/Graphics/SVG/1.1/DTD/svg11.dtd">
<svg width="64pt" height="64pt" viewBox="0 0 64 64" version="1.1" xmlns="http://www.w3.org/2000/svg">
<g id="#ffffffff">
<path fill="#ffffff" opacity="1.00" d=" M 0.00 0.00 L 64.00 0.00 L 64.00 64.00 L 0.00 64.00 L 0.00 0.00 M 13.44 10.59 C 11.02 11.67 9.77 14.37 10.00 16.94 C 10.03 27.34 9.93 37.75 10.05 48.15 C 9.99 51.25 12.80 54.01 15.89 53.95 C 26.64 54.03 37.41 54.04 48.16 53.95 C 51.23 53.99 53.99 51.22 53.95 48.14 C 54.04 37.38 54.04 26.61 53.95 15.85 C 53.99 12.76 51.21 9.98 48.12 10.05 C 38.41 9.91 28.71 10.07 19.01 9.98 C 17.15 10.06 15.17 9.78 13.44 10.59 Z" />
<path fill="#ffffff" opacity="1.00" d=" M 15.13 14.16 C 25.42 13.78 35.74 14.13 46.05 13.98 C 47.36 14.14 49.13 13.65 49.83 15.14 C 50.05 16.75 50.02 18.38 50.03 20.00 C 38.01 20.00 25.99 20.00 13.97 20.00 C 14.29 18.09 13.22 15.41 15.13 14.16 Z" />
<path fill="#ffffff" opacity="1.00" d=" M 14.00 24.00 C 26.00 24.00 38.00 24.00 50.00 24.00 C 50.00 26.00 50.00 28.00 50.00 30.00 C 38.00 30.00 26.00 30.00 14.00 30.00 C 14.00 28.00 14.00 26.00 14.00 24.00 Z" />
<path fill="#ffffff" opacity="1.00" d=" M 14.00 34.00 C 26.00 34.00 38.00 34.00 50.00 34.00 C 50.00 36.00 50.00 38.00 50.00 40.00 C 45.42 40.01 40.83 39.98 36.25 40.01 C 35.66 41.97 34.37 44.11 32.02 44.01 C 29.66 44.14 28.32 42.00 27.75 40.01 C 23.17 39.99 18.58 40.01 14.00 40.00 C 14.00 38.00 14.00 36.00 14.00 34.00 Z" />
<path fill="#ffffff" opacity="1.00" d=" M 13.97 44.00 C 17.65 44.01 21.34 43.97 25.02 44.03 C 26.72 46.21 29.13 48.10 32.04 48.00 C 34.92 48.06 37.28 46.18 38.97 44.03 C 42.66 43.97 46.35 44.01 50.03 44.00 C 49.72 45.92 50.97 49.75 48.05 49.92 C 37.36 50.06 26.65 50.05 15.96 49.92 C 13.02 49.77 14.28 45.92 13.97 44.00 Z" />
</g>
<g id="#000000ff">
<path fill="#000000" opacity="1.00" d=" M 13.44 10.59 C 15.17 9.78 17.15 10.06 19.01 9.98 C 28.71 10.07 38.41 9.91 48.12 10.05 C 51.21 9.98 53.99 12.76 53.95 15.85 C 54.04 26.61 54.04 37.38 53.95 48.14 C 53.99 51.22 51.23 53.99 48.16 53.95 C 37.41 54.04 26.64 54.03 15.89 53.95 C 12.80 54.01 9.99 51.25 10.05 48.15 C 9.93 37.75 10.03 27.34 10.00 16.94 C 9.77 14.37 11.02 11.67 13.44 10.59 M 15.13 14.16 C 13.22 15.41 14.29 18.09 13.97 20.00 C 25.99 20.00 38.01 20.00 50.03 20.00 C 50.02 18.38 50.05 16.75 49.83 15.14 C 49.13 13.65 47.36 14.14 46.05 13.98 C 35.74 14.13 25.42 13.78 15.13 14.16 M 14.00 24.00 C 14.00 26.00 14.00 28.00 14.00 30.00 C 26.00 30.00 38.00 30.00 50.00 30.00 C 50.00 28.00 50.00 26.00 50.00 24.00 C 38.00 24.00 26.00 24.00 14.00 24.00 M 14.00 34.00 C 14.00 36.00 14.00 38.00 14.00 40.00 C 18.58 40.01 23.17 39.99 27.75 40.01 C 28.32 42.00 29.66 44.14 32.02 44.01 C 34.37 44.11 35.66 41.97 36.25 40.01 C 40.83 39.98 45.42 40.01 50.00 40.00 C 50.00 38.00 50.00 36.00 50.00 34.00 C 38.00 34.00 26.00 34.00 14.00 34.00 M 13.97 44.00 C 14.28 45.92 13.02 49.77 15.96 49.92 C 26.65 50.05 37.36 50.06 48.05 49.92 C 50.97 49.75 49.72 45.92 50.03 44.00 C 46.35 44.01 42.66 43.97 38.97 44.03 C 37.28 46.18 34.92 48.06 32.04 48.00 C 29.13 48.10 26.72 46.21 25.02 44.03 C 21.34 43.97 17.65 44.01 13.97 44.00 Z" />
</g>
</svg>
