<?xml version="1.0" encoding="UTF-8" ?>
<!DOCTYPE svg PUBLIC "-//W3C//DTD SVG 1.1//EN" "http://www.w3.org/Graphics/SVG/1.1/DTD/svg11.dtd">
<svg width="60pt" height="60pt" viewBox="0 0 60 60" version="1.1" xmlns="http://www.w3.org/2000/svg">
<g id="#ffffffff">
<path fill="#ffffff" opacity="1.00" d=" M 0.00 0.00 L 60.00 0.00 L 60.00 60.00 L 0.00 60.00 L 0.00 0.00 M 11.38 8.61 C 9.01 9.70 7.80 12.36 8.00 14.90 C 8.03 25.32 7.92 35.75 8.05 46.18 C 8.00 49.28 10.80 52.02 13.89 51.95 C 25.30 52.04 36.71 52.04 48.11 51.94 C 50.63 51.98 52.32 49.41 52.00 47.07 C 51.97 38.03 52.08 28.98 51.95 19.94 C 51.98 17.88 50.20 15.97 48.09 16.05 C 36.73 15.86 25.36 16.16 14.00 15.93 C 11.40 16.21 11.40 11.78 14.01 12.06 C 23.70 11.86 33.41 12.11 43.10 11.98 C 44.28 12.09 46.27 11.57 45.93 10.00 C 46.27 8.43 44.28 7.90 43.10 8.02 C 34.40 7.94 25.69 8.06 16.99 7.98 C 15.12 8.05 13.14 7.82 11.38 8.61 Z" />
<path fill="#ffffff" opacity="1.00" d=" M 42.37 30.37 C 46.96 27.99 50.40 35.73 45.65 37.61 C 41.04 40.03 37.56 32.25 42.37 30.37 Z" />
</g>
<g id="#000000ff">
<path fill="#000000" opacity="1.00" d=" M 11.38 8.61 C 13.14 7.82 15.12 8.05 16.99 7.98 C 25.69 8.06 34.40 7.94 43.10 8.02 C 44.28 7.90 46.27 8.43 45.93 10.00 C 46.27 11.57 44.28 12.09 43.10 11.98 C 33.41 12.11 23.70 11.86 14.01 12.06 C 11.40 11.78 11.40 16.21 14.00 15.93 C 25.36 16.16 36.73 15.86 48.09 16.05 C 50.20 15.97 51.98 17.88 51.95 19.94 C 52.08 28.98 51.97 38.03 52.00 47.07 C 52.32 49.41 50.63 51.98 48.11 51.94 C 36.71 52.04 25.30 52.04 13.89 51.95 C 10.80 52.02 8.00 49.28 8.05 46.18 C 7.92 35.75 8.03 25.32 8.00 14.90 C 7.80 12.36 9.01 9.70 11.38 8.61 M 42.37 30.37 C 37.56 32.25 41.04 40.03 45.65 37.61 C 50.40 35.73 46.96 27.99 42.37 30.37 Z" />
</g>
</svg>
