<?xml version="1.0" encoding="UTF-8" ?>
<!DOCTYPE svg PUBLIC "-//W3C//DTD SVG 1.1//EN" "http://www.w3.org/Graphics/SVG/1.1/DTD/svg11.dtd">
<svg width="64pt" height="64pt" viewBox="0 0 64 64" version="1.1" xmlns="http://www.w3.org/2000/svg">
<g id="#ffffffff">
<path fill="#ffffff" opacity="1.00" d=" M 0.00 0.00 L 64.00 0.00 L 64.00 64.00 L 0.00 64.00 L 0.00 0.00 M 24.19 6.23 C 19.89 7.18 17.19 11.27 16.11 15.29 C 13.71 23.81 11.30 32.33 8.95 40.86 C 7.95 44.41 7.53 48.34 9.21 51.76 C 12.57 59.52 25.72 60.33 29.50 52.59 C 31.64 47.25 26.26 42.03 21.07 42.04 C 18.33 41.46 15.29 44.06 16.14 46.90 C 16.47 48.81 18.30 49.69 19.95 50.20 C 19.99 48.76 20.02 47.32 20.04 45.88 C 22.83 45.89 26.51 47.61 25.89 50.96 C 24.45 54.17 20.00 54.31 17.02 53.63 C 11.37 52.26 10.47 44.04 14.34 40.35 C 17.50 37.12 22.71 37.62 26.45 39.52 C 32.10 42.37 34.42 48.85 39.58 52.30 C 43.04 54.98 47.40 56.22 51.76 56.05 C 53.21 44.73 54.60 33.39 56.02 22.07 C 52.06 22.09 47.96 21.54 44.61 19.26 C 41.02 17.23 39.50 13.18 36.72 10.33 C 33.64 6.89 28.67 5.52 24.19 6.23 Z" />
<path fill="#ffffff" opacity="1.00" d=" M 20.44 15.11 C 21.36 12.33 23.78 9.42 27.04 10.03 C 31.57 9.88 34.62 13.60 36.86 17.04 C 40.04 22.04 45.82 24.70 51.49 25.68 C 50.41 34.35 49.34 43.02 48.23 51.69 C 38.33 49.82 35.27 38.23 26.12 35.11 C 22.43 33.72 18.21 33.57 14.62 35.37 C 16.63 28.63 18.32 21.81 20.44 15.11 Z" />
</g>
<g id="#000000ff">
<path fill="#000000" opacity="1.00" d=" M 24.19 6.23 C 28.67 5.52 33.64 6.89 36.72 10.33 C 39.50 13.18 41.02 17.23 44.61 19.26 C 47.96 21.54 52.06 22.09 56.02 22.07 C 54.60 33.39 53.21 44.73 51.76 56.05 C 47.40 56.22 43.04 54.98 39.58 52.30 C 34.42 48.85 32.10 42.37 26.45 39.52 C 22.71 37.62 17.50 37.12 14.34 40.35 C 10.47 44.04 11.37 52.26 17.02 53.63 C 20.00 54.31 24.45 54.17 25.89 50.96 C 26.51 47.61 22.83 45.89 20.04 45.88 C 20.02 47.32 19.99 48.76 19.95 50.20 C 18.30 49.69 16.47 48.81 16.14 46.90 C 15.29 44.06 18.33 41.46 21.07 42.04 C 26.26 42.03 31.64 47.25 29.50 52.59 C 25.72 60.33 12.57 59.52 9.21 51.76 C 7.53 48.34 7.95 44.41 8.95 40.86 C 11.30 32.33 13.71 23.81 16.11 15.29 C 17.19 11.27 19.89 7.18 24.19 6.23 M 20.44 15.11 C 18.32 21.81 16.63 28.63 14.62 35.37 C 18.21 33.57 22.43 33.72 26.12 35.11 C 35.27 38.23 38.33 49.82 48.23 51.69 C 49.34 43.02 50.41 34.35 51.49 25.68 C 45.82 24.70 40.04 22.04 36.86 17.04 C 34.62 13.60 31.57 9.88 27.04 10.03 C 23.78 9.42 21.36 12.33 20.44 15.11 Z" />
</g>
</svg>
