<?xml version="1.0" encoding="UTF-8" ?>
<!DOCTYPE svg PUBLIC "-//W3C//DTD SVG 1.1//EN" "http://www.w3.org/Graphics/SVG/1.1/DTD/svg11.dtd">
<svg width="64pt" height="64pt" viewBox="0 0 64 64" version="1.1" xmlns="http://www.w3.org/2000/svg">
<g id="#ffffffff">
<path fill="#ffffff" opacity="1.00" d=" M 0.00 0.00 L 64.00 0.00 L 64.00 64.00 L 0.00 64.00 L 0.00 0.00 M 8.06 8.01 C 12.14 23.75 9.13 40.36 10.19 56.41 C 13.28 54.61 16.09 51.97 20.02 52.26 C 31.36 51.59 43.72 50.31 53.96 56.18 C 54.06 40.12 53.14 23.91 55.88 8.01 C 39.94 8.00 24.00 8.01 8.06 8.01 Z" />
<path fill="#ffffff" opacity="1.00" d=" M 14.00 12.00 C 19.33 12.00 24.67 12.00 30.00 12.00 C 29.99 24.00 29.99 36.00 30.00 48.00 C 24.67 48.00 19.33 48.00 14.00 48.00 C 14.01 36.00 14.01 24.00 14.00 12.00 M 22.00 26.00 C 22.00 28.67 22.00 31.33 22.00 34.00 C 23.33 34.00 24.67 34.00 26.00 34.00 C 26.00 31.33 26.00 28.67 26.00 26.00 C 24.66 26.00 23.33 26.00 22.00 26.00 Z" />
<path fill="#ffffff" opacity="1.00" d=" M 34.00 12.00 C 39.33 12.00 44.67 12.00 50.00 12.00 C 49.99 24.00 49.99 36.00 50.00 48.00 C 44.67 48.00 39.33 48.00 34.00 48.00 C 34.01 36.00 34.01 24.00 34.00 12.00 M 38.00 26.00 C 38.00 28.67 38.00 31.33 38.00 34.00 C 39.33 34.00 40.67 34.00 42.00 34.00 C 42.00 31.33 42.00 28.67 42.00 26.00 C 40.66 26.00 39.33 26.00 38.00 26.00 Z" />
</g>
<g id="#000000ff">
<path fill="#000000" opacity="1.00" d=" M 8.06 8.01 C 24.00 8.01 39.94 8.00 55.88 8.01 C 53.14 23.91 54.06 40.12 53.96 56.18 C 43.72 50.31 31.36 51.59 20.02 52.26 C 16.09 51.97 13.28 54.61 10.19 56.41 C 9.13 40.36 12.14 23.75 8.06 8.01 M 14.00 12.00 C 14.01 24.00 14.01 36.00 14.00 48.00 C 19.33 48.00 24.67 48.00 30.00 48.00 C 29.99 36.00 29.99 24.00 30.00 12.00 C 24.67 12.00 19.33 12.00 14.00 12.00 M 34.00 12.00 C 34.01 24.00 34.01 36.00 34.00 48.00 C 39.33 48.00 44.67 48.00 50.00 48.00 C 49.99 36.00 49.99 24.00 50.00 12.00 C 44.67 12.00 39.33 12.00 34.00 12.00 Z" />
<path fill="#000000" opacity="1.00" d=" M 22.00 26.00 C 23.33 26.00 24.66 26.00 26.00 26.00 C 26.00 28.67 26.00 31.33 26.00 34.00 C 24.67 34.00 23.33 34.00 22.00 34.00 C 22.00 31.33 22.00 28.67 22.00 26.00 Z" />
<path fill="#000000" opacity="1.00" d=" M 38.00 26.00 C 39.33 26.00 40.66 26.00 42.00 26.00 C 42.00 28.67 42.00 31.33 42.00 34.00 C 40.67 34.00 39.33 34.00 38.00 34.00 C 38.00 31.33 38.00 28.67 38.00 26.00 Z" />
</g>
</svg>
