<?xml version="1.0" encoding="UTF-8" ?>
<!DOCTYPE svg PUBLIC "-//W3C//DTD SVG 1.1//EN" "http://www.w3.org/Graphics/SVG/1.1/DTD/svg11.dtd">
<svg width="60pt" height="60pt" viewBox="0 0 60 60" version="1.1" xmlns="http://www.w3.org/2000/svg">
<g id="#ffffffff">
<path fill="#ffffff" opacity="1.00" d=" M 0.00 0.00 L 60.00 0.00 L 60.00 60.00 L 0.00 60.00 L 0.00 0.00 M 7.18 16.24 C 4.87 17.22 6.28 19.72 7.98 20.45 C 8.01 23.64 8.01 26.82 8.00 30.00 C 14.66 30.00 21.33 30.00 28.00 30.00 C 27.98 23.01 28.03 16.02 27.98 9.03 C 29.33 8.58 30.67 8.58 32.02 9.03 C 31.97 16.02 32.02 23.01 32.00 30.00 C 38.67 30.00 45.33 30.00 52.00 30.00 C 52.00 26.82 51.98 23.64 52.03 20.46 C 53.77 19.70 55.12 17.16 52.76 16.19 C 45.21 12.08 37.78 7.62 30.00 4.00 C 22.21 7.68 14.77 12.15 7.18 16.24 M 8.00 34.00 C 8.07 38.69 7.87 43.38 8.05 48.06 C 7.95 50.18 9.88 51.99 11.96 51.95 C 17.30 52.12 22.65 51.93 28.00 52.00 C 28.00 46.00 28.00 40.00 28.00 34.00 C 21.33 34.00 14.67 34.00 8.00 34.00 M 32.00 34.00 C 32.00 40.00 32.00 46.00 32.00 52.00 C 37.34 51.94 42.68 52.12 48.02 51.95 C 50.10 52.01 51.98 50.17 51.94 48.09 C 52.13 43.40 51.93 38.70 52.00 34.00 C 45.33 34.00 38.67 34.00 32.00 34.00 Z" />
<path fill="#ffffff" opacity="1.00" d=" M 17.20 16.17 C 19.54 15.08 21.11 18.72 18.89 19.90 C 16.49 20.93 14.76 17.17 17.20 16.17 Z" />
<path fill="#ffffff" opacity="1.00" d=" M 41.14 16.10 C 43.57 15.15 45.16 18.75 42.83 19.88 C 40.43 20.88 38.89 17.27 41.14 16.10 Z" />
<path fill="#ffffff" opacity="1.00" d=" M 17.13 38.12 C 19.53 37.08 21.24 40.86 18.77 41.83 C 16.44 42.90 14.86 39.20 17.13 38.12 Z" />
<path fill="#ffffff" opacity="1.00" d=" M 41.17 38.10 C 43.63 37.13 45.16 40.89 42.76 41.91 C 40.35 42.81 38.90 39.16 41.17 38.10 Z" />
</g>
<g id="#000000ff">
<path fill="#968176" opacity="1.00" d=" M 7.18 16.24 C 14.77 12.15 22.21 7.68 30.00 4.00 C 37.78 7.62 45.21 12.08 52.76 16.19 C 55.12 17.16 53.77 19.70 52.03 20.46 C 51.98 23.64 52.00 26.82 52.00 30.00 C 45.33 30.00 38.67 30.00 32.00 30.00 C 32.02 23.01 31.97 16.02 32.02 9.03 C 30.67 8.58 29.33 8.58 27.98 9.03 C 28.03 16.02 27.98 23.01 28.00 30.00 C 21.33 30.00 14.66 30.00 8.00 30.00 C 8.01 26.82 8.01 23.64 7.98 20.45 C 6.28 19.72 4.87 17.22 7.18 16.24 M 17.20 16.17 C 14.76 17.17 16.49 20.93 18.89 19.90 C 21.11 18.72 19.54 15.08 17.20 16.17 M 41.14 16.10 C 38.89 17.27 40.43 20.88 42.83 19.88 C 45.16 18.75 43.57 15.15 41.14 16.10 Z" />
<path fill="#968176" opacity="1.00" d=" M 8.00 34.00 C 14.67 34.00 21.33 34.00 28.00 34.00 C 28.00 40.00 28.00 46.00 28.00 52.00 C 22.65 51.93 17.30 52.12 11.96 51.95 C 9.88 51.99 7.95 50.18 8.05 48.06 C 7.87 43.38 8.07 38.69 8.00 34.00 M 17.13 38.12 C 14.86 39.20 16.44 42.90 18.77 41.83 C 21.24 40.86 19.53 37.08 17.13 38.12 Z" />
<path fill="#968176" opacity="1.00" d=" M 32.00 34.00 C 38.67 34.00 45.33 34.00 52.00 34.00 C 51.93 38.70 52.13 43.40 51.94 48.09 C 51.98 50.17 50.10 52.01 48.02 51.95 C 42.68 52.12 37.34 51.94 32.00 52.00 C 32.00 46.00 32.00 40.00 32.00 34.00 M 41.17 38.10 C 38.90 39.16 40.35 42.81 42.76 41.91 C 45.16 40.89 43.63 37.13 41.17 38.10 Z" />
</g>
</svg>
