<?xml version="1.0" encoding="UTF-8" ?>
<!DOCTYPE svg PUBLIC "-//W3C//DTD SVG 1.1//EN" "http://www.w3.org/Graphics/SVG/1.1/DTD/svg11.dtd">
<svg width="60pt" height="60pt" viewBox="0 0 60 60" version="1.1" xmlns="http://www.w3.org/2000/svg">
<g id="#ffffffff">
<path fill="#ffffff" opacity="1.00" d=" M 0.00 0.00 L 60.00 0.00 L 60.00 60.00 L 0.00 60.00 L 0.00 0.00 M 42.00 10.05 C 41.84 13.75 47.27 15.48 49.23 12.29 C 51.42 8.66 47.53 5.07 46.00 1.96 C 44.50 4.55 42.51 7.03 42.00 10.05 M 14.19 5.20 C 13.67 7.94 13.93 10.78 13.39 13.52 C 11.27 19.10 7.47 24.03 6.24 29.95 C 5.79 34.31 5.94 38.73 6.12 43.10 C 6.48 49.07 12.00 54.05 17.95 53.96 C 26.68 54.02 35.40 54.05 44.12 53.95 C 48.24 54.05 51.28 49.32 49.35 45.61 C 53.11 44.56 55.25 40.37 53.01 36.93 C 54.30 35.54 56.09 34.16 55.96 32.05 C 56.14 29.89 54.33 28.48 53.01 27.07 C 55.19 23.70 53.20 18.76 49.16 18.16 C 41.28 17.78 33.37 18.11 25.49 18.01 C 26.68 13.21 25.63 6.75 20.47 4.76 C 18.54 4.24 15.45 3.01 14.19 5.20 Z" />
<path fill="#ffffff" opacity="1.00" d=" M 17.92 8.21 C 22.04 8.94 22.53 13.77 21.55 17.08 C 21.43 18.63 20.20 20.89 22.10 21.82 C 30.74 22.32 39.42 21.75 48.07 22.07 C 50.14 21.88 50.73 25.14 48.82 25.82 C 43.61 26.39 38.34 25.59 33.14 26.20 C 31.26 26.93 31.89 30.11 33.95 29.91 C 39.56 30.27 45.21 29.68 50.81 30.17 C 52.73 30.86 52.15 34.11 50.06 33.92 C 44.69 34.21 39.31 33.78 33.94 34.08 C 31.87 33.86 31.25 37.20 33.21 37.81 C 38.44 38.40 43.72 37.60 48.95 38.19 C 50.32 38.96 50.32 41.05 48.94 41.81 C 43.68 42.40 38.36 41.58 33.11 42.21 C 31.64 42.86 31.64 45.20 33.16 45.79 C 37.03 46.36 40.97 45.66 44.85 46.17 C 46.72 46.90 46.13 50.13 44.05 49.92 C 35.35 50.08 26.64 50.01 17.93 49.96 C 13.69 50.07 9.90 46.28 10.04 42.04 C 10.01 37.99 9.75 33.90 10.29 29.88 C 12.44 22.49 18.64 16.36 17.92 8.21 Z" />
</g>
<g id="#000000ff">
<path fill="#000000" opacity="1.00" d=" M 42.00 10.05 C 42.51 7.03 44.50 4.55 46.00 1.96 C 47.53 5.07 51.42 8.66 49.23 12.29 C 47.27 15.48 41.84 13.75 42.00 10.05 Z" />
<path fill="#000000" opacity="1.00" d=" M 14.19 5.20 C 15.45 3.01 18.54 4.24 20.47 4.76 C 25.63 6.75 26.68 13.21 25.49 18.01 C 33.37 18.11 41.28 17.78 49.16 18.16 C 53.20 18.76 55.19 23.70 53.01 27.07 C 54.33 28.48 56.14 29.89 55.96 32.05 C 56.09 34.16 54.30 35.54 53.01 36.93 C 55.25 40.37 53.11 44.56 49.35 45.61 C 51.28 49.32 48.24 54.05 44.12 53.95 C 35.40 54.05 26.68 54.02 17.95 53.96 C 12.00 54.05 6.48 49.07 6.12 43.10 C 5.94 38.73 5.79 34.31 6.24 29.95 C 7.47 24.03 11.27 19.10 13.39 13.52 C 13.93 10.78 13.67 7.94 14.19 5.20 M 17.92 8.21 C 18.64 16.36 12.44 22.49 10.29 29.88 C 9.75 33.90 10.01 37.99 10.04 42.04 C 9.90 46.28 13.69 50.07 17.93 49.96 C 26.64 50.01 35.35 50.08 44.05 49.92 C 46.13 50.13 46.72 46.90 44.85 46.17 C 40.97 45.66 37.03 46.36 33.16 45.79 C 31.64 45.20 31.64 42.86 33.11 42.21 C 38.36 41.58 43.68 42.40 48.94 41.81 C 50.32 41.05 50.32 38.96 48.95 38.19 C 43.72 37.60 38.44 38.40 33.21 37.81 C 31.25 37.20 31.87 33.86 33.94 34.08 C 39.31 33.78 44.69 34.21 50.06 33.92 C 52.15 34.11 52.73 30.86 50.81 30.17 C 45.21 29.68 39.56 30.27 33.95 29.91 C 31.89 30.11 31.26 26.93 33.14 26.20 C 38.34 25.59 43.61 26.39 48.82 25.82 C 50.73 25.14 50.14 21.88 48.07 22.07 C 39.42 21.75 30.74 22.32 22.10 21.82 C 20.20 20.89 21.43 18.63 21.55 17.08 C 22.53 13.77 22.04 8.94 17.92 8.21 Z" />
</g>
</svg>
