<?xml version="1.0" encoding="UTF-8" ?>
<!DOCTYPE svg PUBLIC "-//W3C//DTD SVG 1.1//EN" "http://www.w3.org/Graphics/SVG/1.1/DTD/svg11.dtd">
<svg width="60pt" height="60pt" viewBox="0 0 60 60" version="1.1" xmlns="http://www.w3.org/2000/svg">
<g id="#ffffffff">
<path fill="#ffffff" opacity="1.00" d=" M 0.00 0.00 L 60.00 0.00 L 60.00 60.00 L 0.00 60.00 L 0.00 0.00 M 33.17 4.16 C 32.92 4.41 32.42 4.93 32.16 5.19 C 31.87 8.37 31.87 11.61 32.16 14.80 C 33.25 16.72 35.81 15.73 37.60 16.08 C 39.33 18.98 44.66 18.98 46.40 16.08 C 48.18 15.75 50.67 16.68 51.83 14.86 C 52.14 11.65 52.14 8.39 51.83 5.19 C 51.59 4.93 51.10 4.42 50.86 4.16 C 44.98 3.88 39.05 3.88 33.17 4.16 M 12.43 8.71 C 9.21 10.45 9.25 15.62 12.49 17.32 C 15.61 19.36 20.17 16.67 20.00 12.97 C 20.14 9.27 15.54 6.63 12.43 8.71 M 4.06 19.98 C 4.03 30.92 3.80 41.89 4.18 52.82 C 5.98 55.81 8.84 52.48 8.16 50.00 C 22.72 50.00 37.28 50.00 51.84 50.00 C 52.12 51.33 51.83 53.01 53.12 53.90 C 54.41 54.31 56.05 53.53 55.92 52.02 C 56.06 48.40 56.15 44.75 55.84 41.14 C 55.59 40.89 55.10 40.39 54.86 40.14 C 39.25 39.81 23.62 40.10 8.00 40.00 C 7.88 33.05 8.24 26.08 7.84 19.14 C 7.06 17.23 3.84 17.86 4.06 19.98 M 12.02 25.99 C 12.34 29.43 13.74 32.66 14.56 35.99 C 17.62 36.00 20.69 36.00 23.75 36.00 C 22.44 31.98 21.77 27.73 19.99 23.89 C 17.92 20.55 12.18 22.06 12.02 25.99 M 25.10 26.00 C 26.03 29.33 26.97 32.67 27.91 36.00 C 36.62 36.00 45.33 36.00 54.04 36.00 C 53.88 33.43 54.48 30.46 52.71 28.30 C 51.42 26.54 49.18 25.89 47.09 26.00 C 39.76 25.98 32.43 26.01 25.10 26.00 Z" />
</g>
<g id="#000000ff">
<path fill="#000000" opacity="1.00" d=" M 33.17 4.16 C 39.05 3.88 44.98 3.88 50.86 4.16 C 51.10 4.42 51.59 4.93 51.83 5.19 C 52.14 8.39 52.14 11.65 51.83 14.86 C 50.67 16.68 48.18 15.75 46.40 16.08 C 44.66 18.98 39.33 18.98 37.60 16.08 C 35.81 15.73 33.25 16.72 32.16 14.80 C 31.87 11.61 31.87 8.37 32.16 5.19 C 32.42 4.93 32.92 4.41 33.17 4.16 Z" />
<path fill="#000000" opacity="1.00" d=" M 12.43 8.71 C 15.54 6.63 20.14 9.27 20.00 12.97 C 20.17 16.67 15.61 19.36 12.49 17.32 C 9.25 15.62 9.21 10.45 12.43 8.71 Z" />
<path fill="#000000" opacity="1.00" d=" M 4.06 19.98 C 3.84 17.86 7.06 17.23 7.84 19.14 C 8.24 26.08 7.88 33.05 8.00 40.00 C 23.62 40.10 39.25 39.81 54.86 40.14 C 55.10 40.39 55.59 40.89 55.84 41.14 C 56.15 44.75 56.06 48.40 55.92 52.02 C 56.05 53.53 54.41 54.31 53.12 53.90 C 51.83 53.01 52.12 51.33 51.84 50.00 C 37.28 50.00 22.72 50.00 8.16 50.00 C 8.84 52.48 5.98 55.81 4.18 52.82 C 3.80 41.89 4.03 30.92 4.06 19.98 Z" />
<path fill="#000000" opacity="1.00" d=" M 12.02 25.99 C 12.18 22.06 17.92 20.55 19.99 23.89 C 21.77 27.73 22.44 31.98 23.75 36.00 C 20.69 36.00 17.62 36.00 14.56 35.99 C 13.74 32.66 12.34 29.43 12.02 25.99 Z" />
<path fill="#000000" opacity="1.00" d=" M 25.10 26.00 C 32.43 26.01 39.76 25.98 47.09 26.00 C 49.18 25.89 51.42 26.54 52.71 28.30 C 54.48 30.46 53.88 33.43 54.04 36.00 C 45.33 36.00 36.62 36.00 27.91 36.00 C 26.97 32.67 26.03 29.33 25.10 26.00 Z" />
</g>
</svg>
