<?xml version="1.0" encoding="UTF-8" ?>
<!DOCTYPE svg PUBLIC "-//W3C//DTD SVG 1.1//EN" "http://www.w3.org/Graphics/SVG/1.1/DTD/svg11.dtd">
<svg width="60pt" height="60pt" viewBox="0 0 60 60" version="1.1" xmlns="http://www.w3.org/2000/svg">
<g id="#ffffffff">
<path fill="#ffffff" opacity="1.00" d=" M 0.00 0.00 L 60.00 0.00 L 60.00 60.00 L 0.00 60.00 L 0.00 0.00 M 43.01 6.57 C 45.23 7.26 47.55 8.28 49.92 7.83 C 52.62 7.15 52.60 2.77 49.85 2.17 C 46.76 1.41 44.77 4.63 43.01 6.57 M 27.10 10.81 C 22.46 12.70 17.73 14.36 13.08 16.21 C 10.89 17.05 8.54 18.48 8.11 21.00 C 7.37 24.44 10.34 28.00 13.84 27.95 C 24.56 28.13 35.29 27.86 46.02 28.06 C 48.60 27.81 48.59 32.21 45.99 31.94 C 35.30 32.13 24.59 31.88 13.90 32.04 C 11.41 32.00 9.09 33.75 8.32 36.09 C 6.93 39.72 9.98 44.04 13.86 43.95 C 24.59 44.13 35.33 43.86 46.06 44.07 C 48.14 43.89 48.74 47.14 46.81 47.83 C 39.61 48.39 32.35 47.59 25.16 48.20 C 23.20 48.93 23.93 52.14 26.03 51.94 C 32.74 52.06 39.46 52.03 46.17 51.95 C 49.32 51.97 52.05 49.10 51.99 45.98 C 52.03 42.86 49.29 39.99 46.14 40.05 C 36.08 39.92 26.01 40.04 15.94 40.01 C 14.59 39.94 12.90 40.26 12.10 38.85 C 11.68 37.54 12.50 35.90 14.02 36.06 C 24.74 35.87 35.47 36.13 46.18 35.95 C 49.33 35.97 52.05 33.10 51.99 29.98 C 52.03 26.87 49.32 24.02 46.19 24.05 C 35.47 23.87 24.74 24.13 14.02 23.94 C 12.35 24.26 11.10 21.48 12.78 20.81 C 17.96 18.33 23.50 16.66 28.79 14.42 C 29.12 14.92 29.78 15.94 30.11 16.45 C 31.28 16.34 32.19 15.84 32.83 14.93 C 34.37 12.55 37.31 11.79 39.31 9.90 C 39.64 8.59 39.22 7.63 38.06 7.01 C 35.65 7.15 33.32 7.79 30.95 8.21 C 30.42 7.90 29.37 7.30 28.84 7.00 C 27.57 7.90 26.98 9.25 27.10 10.81 M 9.16 48.11 C 6.88 49.22 8.40 52.88 10.83 51.89 C 13.14 50.77 11.58 47.14 9.16 48.11 M 17.19 48.11 C 14.79 49.22 16.48 52.94 18.95 51.88 C 21.06 50.61 19.55 47.20 17.19 48.11 Z" />
</g>
<g id="#000000ff">
<path fill="#968176" opacity="1.00" d=" M 43.01 6.57 C 44.77 4.63 46.76 1.41 49.85 2.17 C 52.60 2.77 52.62 7.15 49.92 7.83 C 47.55 8.28 45.23 7.26 43.01 6.57 Z" />
<path fill="#968176" opacity="1.00" d=" M 27.10 10.81 C 26.98 9.25 27.57 7.90 28.84 7.00 C 29.37 7.30 30.42 7.90 30.95 8.21 C 33.32 7.79 35.65 7.15 38.06 7.01 C 39.22 7.63 39.64 8.59 39.31 9.90 C 37.31 11.79 34.37 12.55 32.83 14.93 C 32.19 15.84 31.28 16.34 30.11 16.45 C 29.78 15.94 29.12 14.92 28.79 14.42 C 23.50 16.66 17.96 18.33 12.78 20.81 C 11.10 21.48 12.35 24.26 14.02 23.94 C 24.74 24.13 35.47 23.87 46.19 24.05 C 49.32 24.02 52.03 26.87 51.99 29.98 C 52.05 33.10 49.33 35.97 46.18 35.95 C 35.47 36.13 24.74 35.87 14.02 36.06 C 12.50 35.90 11.68 37.54 12.10 38.85 C 12.90 40.26 14.59 39.94 15.94 40.01 C 26.01 40.04 36.08 39.92 46.14 40.05 C 49.29 39.99 52.03 42.86 51.99 45.98 C 52.05 49.10 49.32 51.97 46.17 51.95 C 39.46 52.03 32.74 52.06 26.03 51.94 C 23.93 52.14 23.20 48.93 25.16 48.20 C 32.35 47.59 39.61 48.39 46.81 47.83 C 48.74 47.14 48.14 43.89 46.06 44.07 C 35.33 43.86 24.59 44.13 13.86 43.95 C 9.98 44.04 6.93 39.72 8.32 36.09 C 9.09 33.75 11.41 32.00 13.90 32.04 C 24.59 31.88 35.30 32.13 45.99 31.94 C 48.59 32.21 48.60 27.81 46.02 28.06 C 35.29 27.86 24.56 28.13 13.84 27.95 C 10.34 28.00 7.37 24.44 8.11 21.00 C 8.54 18.48 10.89 17.05 13.08 16.21 C 17.73 14.36 22.46 12.70 27.10 10.81 Z" />
<path fill="#968176" opacity="1.00" d=" M 9.16 48.11 C 11.58 47.14 13.14 50.77 10.83 51.89 C 8.40 52.88 6.88 49.22 9.16 48.11 Z" />
<path fill="#968176" opacity="1.00" d=" M 17.19 48.11 C 19.55 47.20 21.06 50.61 18.95 51.88 C 16.48 52.94 14.79 49.22 17.19 48.11 Z" />
</g>
</svg>
