<?xml version="1.0" encoding="UTF-8" ?>
<!DOCTYPE svg PUBLIC "-//W3C//DTD SVG 1.1//EN" "http://www.w3.org/Graphics/SVG/1.1/DTD/svg11.dtd">
<svg width="60pt" height="60pt" viewBox="0 0 60 60" version="1.1" xmlns="http://www.w3.org/2000/svg">
<g id="#ffffffff">
<path fill="#ffffff" opacity="1.00" d=" M 0.00 0.00 L 60.00 0.00 L 60.00 60.00 L 0.00 60.00 L 0.00 0.00 M 22.16 8.11 C 14.65 6.78 7.55 13.27 7.87 20.81 C 3.00 24.65 2.81 32.56 7.26 36.77 C 8.68 38.12 11.00 40.12 12.69 38.01 C 13.29 34.73 8.56 34.06 8.26 30.88 C 6.90 27.25 9.85 24.52 11.91 22.03 C 11.88 18.61 12.69 14.71 16.06 13.04 C 18.41 11.34 21.37 12.73 23.90 12.02 C 25.59 10.27 27.20 7.79 30.00 8.03 C 32.81 7.79 34.44 10.26 36.11 12.06 C 37.70 12.62 39.42 11.94 41.07 12.11 C 44.91 12.47 48.07 16.08 47.90 19.95 C 47.43 22.58 49.92 23.88 51.16 25.76 C 52.62 28.33 52.15 31.96 49.84 33.89 C 48.81 35.05 46.76 35.82 47.25 37.73 C 48.66 40.21 51.37 38.20 52.73 36.77 C 57.18 32.56 57.00 24.65 52.13 20.82 C 52.42 13.28 45.36 6.75 37.83 8.11 C 35.72 6.00 33.15 3.89 29.98 4.01 C 26.82 3.89 24.27 6.02 22.16 8.11 M 29.12 20.08 C 28.88 20.35 28.41 20.89 28.17 21.16 C 27.83 31.44 28.00 41.77 28.08 52.06 C 27.86 54.59 32.17 54.57 31.92 52.03 C 32.06 42.01 32.04 31.98 31.93 21.96 C 32.05 20.43 30.43 19.67 29.12 20.08 M 17.22 28.14 C 15.08 29.08 16.58 31.47 17.00 33.01 C 19.31 39.08 19.76 45.60 20.08 52.02 C 19.83 54.60 24.16 54.58 23.92 52.03 C 24.01 44.50 22.89 36.84 20.09 29.81 C 19.74 28.57 18.55 27.54 17.22 28.14 M 41.07 28.12 C 37.47 33.60 36.92 40.56 36.19 46.95 C 36.34 49.21 35.16 52.13 37.07 53.88 C 38.96 54.60 40.29 52.79 40.00 51.03 C 40.11 44.13 41.23 37.26 43.71 30.81 C 44.65 29.10 42.75 27.43 41.07 28.12 Z" />
</g>
<g id="#000000ff">
<path fill="#000000" opacity="1.00" d=" M 22.16 8.11 C 24.27 6.02 26.82 3.89 29.98 4.01 C 33.15 3.89 35.72 6.00 37.83 8.11 C 45.36 6.75 52.42 13.28 52.13 20.82 C 57.00 24.65 57.18 32.56 52.73 36.77 C 51.37 38.20 48.66 40.21 47.25 37.73 C 46.76 35.82 48.81 35.05 49.84 33.89 C 52.15 31.96 52.62 28.33 51.16 25.76 C 49.92 23.88 47.43 22.58 47.90 19.95 C 48.07 16.08 44.91 12.47 41.07 12.11 C 39.42 11.94 37.70 12.62 36.11 12.06 C 34.44 10.26 32.81 7.79 30.00 8.03 C 27.20 7.79 25.59 10.27 23.90 12.02 C 21.37 12.73 18.41 11.34 16.06 13.04 C 12.69 14.71 11.88 18.61 11.91 22.03 C 9.85 24.52 6.90 27.25 8.26 30.88 C 8.56 34.06 13.29 34.73 12.69 38.01 C 11.00 40.12 8.68 38.12 7.26 36.77 C 2.81 32.56 3.00 24.65 7.87 20.81 C 7.55 13.27 14.65 6.78 22.16 8.11 Z" />
<path fill="#000000" opacity="1.00" d=" M 29.12 20.08 C 30.43 19.67 32.05 20.43 31.93 21.96 C 32.04 31.98 32.06 42.01 31.92 52.03 C 32.17 54.57 27.86 54.59 28.08 52.06 C 28.00 41.77 27.83 31.44 28.17 21.16 C 28.41 20.89 28.88 20.35 29.12 20.08 Z" />
<path fill="#000000" opacity="1.00" d=" M 17.22 28.14 C 18.55 27.54 19.74 28.57 20.09 29.81 C 22.89 36.84 24.01 44.50 23.92 52.03 C 24.16 54.58 19.83 54.60 20.08 52.02 C 19.76 45.60 19.31 39.08 17.00 33.01 C 16.58 31.47 15.08 29.08 17.22 28.14 Z" />
<path fill="#000000" opacity="1.00" d=" M 41.07 28.12 C 42.75 27.43 44.65 29.10 43.71 30.81 C 41.23 37.26 40.11 44.13 40.00 51.03 C 40.29 52.79 38.96 54.60 37.07 53.88 C 35.16 52.13 36.34 49.21 36.19 46.95 C 36.92 40.56 37.47 33.60 41.07 28.12 Z" />
</g>
</svg>
