<?xml version="1.0" encoding="UTF-8" ?>
<!DOCTYPE svg PUBLIC "-//W3C//DTD SVG 1.1//EN" "http://www.w3.org/Graphics/SVG/1.1/DTD/svg11.dtd">
<svg width="60pt" height="60pt" viewBox="0 0 60 60" version="1.1" xmlns="http://www.w3.org/2000/svg">
<g id="#ffffffff">
<path fill="#ffffff" opacity="1.00" d=" M 0.00 0.00 L 60.00 0.00 L 60.00 60.00 L 0.00 60.00 L 0.00 0.00 M 28.22 7.09 C 27.44 11.59 27.40 16.18 26.80 20.71 C 28.91 19.96 31.09 19.96 33.20 20.71 C 32.60 16.20 32.56 11.63 31.78 7.16 C 31.19 5.65 28.89 5.63 28.22 7.09 M 29.23 24.18 C 26.75 24.95 28.48 29.02 30.73 27.82 C 33.26 27.07 31.52 22.95 29.23 24.18 M 13.25 33.49 C 11.45 34.42 12.85 37.65 14.74 36.86 C 18.95 35.39 22.84 33.15 26.96 31.46 C 25.37 29.93 24.18 28.08 23.82 25.88 C 20.37 28.52 16.65 30.79 13.25 33.49 M 36.18 25.88 C 35.81 28.08 34.65 29.95 33.03 31.44 C 37.19 33.12 41.10 35.37 45.31 36.91 C 47.29 37.49 48.50 34.37 46.69 33.44 C 43.32 30.74 39.62 28.49 36.18 25.88 M 28.23 37.20 C 27.55 39.98 27.44 42.87 27.07 45.70 C 29.02 45.91 30.97 45.91 32.92 45.70 C 32.55 42.88 32.45 40.01 31.77 37.23 C 31.35 35.57 28.68 35.55 28.23 37.20 M 4.56 51.36 C 9.76 54.60 16.43 54.61 22.00 52.28 C 27.10 54.46 32.90 54.45 38.00 52.28 C 43.56 54.62 50.23 54.59 55.42 51.37 C 57.28 49.48 54.38 46.94 52.45 48.48 C 47.81 50.69 42.56 50.02 38.00 47.95 C 34.57 49.21 30.86 50.62 27.17 49.61 C 24.69 49.09 22.18 47.32 19.68 48.74 C 15.52 50.65 10.92 49.93 6.82 48.28 C 4.90 47.06 2.92 50.00 4.56 51.36 Z" />
</g>
<g id="#000000ff">
<path fill="#000000" opacity="1.00" d=" M 28.22 7.09 C 28.89 5.63 31.19 5.65 31.78 7.16 C 32.56 11.63 32.60 16.20 33.20 20.71 C 31.09 19.96 28.91 19.96 26.80 20.71 C 27.40 16.18 27.44 11.59 28.22 7.09 Z" />
<path fill="#000000" opacity="1.00" d=" M 29.23 24.18 C 31.52 22.95 33.26 27.07 30.73 27.82 C 28.48 29.02 26.75 24.95 29.23 24.18 Z" />
<path fill="#000000" opacity="1.00" d=" M 13.25 33.49 C 16.65 30.79 20.37 28.52 23.82 25.88 C 24.18 28.08 25.37 29.93 26.96 31.46 C 22.84 33.15 18.95 35.39 14.74 36.86 C 12.85 37.65 11.45 34.42 13.25 33.49 Z" />
<path fill="#000000" opacity="1.00" d=" M 36.18 25.88 C 39.62 28.49 43.32 30.74 46.69 33.44 C 48.50 34.37 47.29 37.49 45.31 36.91 C 41.10 35.37 37.19 33.12 33.03 31.44 C 34.65 29.95 35.81 28.08 36.18 25.88 Z" />
<path fill="#000000" opacity="1.00" d=" M 28.23 37.20 C 28.68 35.55 31.35 35.57 31.77 37.23 C 32.45 40.01 32.55 42.88 32.92 45.70 C 30.97 45.91 29.02 45.91 27.07 45.70 C 27.44 42.87 27.55 39.98 28.23 37.20 Z" />
<path fill="#000000" opacity="1.00" d=" M 4.56 51.36 C 2.92 50.00 4.90 47.06 6.82 48.28 C 10.92 49.93 15.52 50.65 19.68 48.74 C 22.18 47.32 24.69 49.09 27.17 49.61 C 30.86 50.62 34.57 49.21 38.00 47.95 C 42.56 50.02 47.81 50.69 52.45 48.48 C 54.38 46.94 57.28 49.48 55.42 51.37 C 50.23 54.59 43.56 54.62 38.00 52.28 C 32.90 54.45 27.10 54.46 22.00 52.28 C 16.43 54.61 9.76 54.60 4.56 51.36 Z" />
</g>
</svg>
