<?xml version="1.0" encoding="UTF-8" ?>
<!DOCTYPE svg PUBLIC "-//W3C//DTD SVG 1.1//EN" "http://www.w3.org/Graphics/SVG/1.1/DTD/svg11.dtd">
<svg width="64pt" height="64pt" viewBox="0 0 64 64" version="1.1" xmlns="http://www.w3.org/2000/svg">
<g id="#ffffffff">
<path fill="#ffffff" opacity="1.00" d=" M 0.00 0.00 L 64.00 0.00 L 64.00 64.00 L 0.00 64.00 L 0.00 0.00 M 7.99 46.27 C 14.11 52.19 22.40 56.55 31.14 55.79 C 43.84 54.91 54.74 43.79 55.67 31.14 C 56.62 22.44 52.70 13.76 46.19 8.06 C 33.46 20.80 20.72 33.53 7.99 46.27 Z" />
<path fill="#ffffff" opacity="1.00" d=" M 14.79 45.21 C 24.93 35.07 35.07 24.93 45.21 14.79 C 48.65 19.45 50.73 25.26 49.88 31.10 C 48.90 40.68 40.71 48.89 31.13 49.88 C 25.28 50.73 19.46 48.66 14.79 45.21 M 38.18 28.04 C 40.42 28.26 42.70 28.86 44.95 28.39 C 46.32 27.17 45.76 25.11 44.06 24.55 C 41.84 25.22 40.02 26.71 38.18 28.04 M 38.17 31.95 C 40.01 33.25 41.78 34.79 44.01 35.39 C 45.80 34.98 46.31 32.77 44.91 31.60 C 42.67 31.15 40.40 31.74 38.17 31.95 M 35.94 35.93 C 36.88 37.96 37.52 40.22 39.06 41.92 C 40.90 42.55 42.57 40.85 41.91 39.02 C 40.18 37.55 37.98 36.85 35.94 35.93 M 24.95 45.37 C 28.97 45.67 27.12 40.33 27.36 37.99 C 26.03 39.96 21.38 43.34 24.95 45.37 M 31.96 38.17 C 31.90 40.61 29.77 45.86 33.95 45.77 C 37.18 43.62 33.18 40.35 31.96 38.17 Z" />
</g>
<g id="#000000ff">
<path fill="#000000" opacity="1.00" d=" M 7.99 46.27 C 20.72 33.53 33.46 20.80 46.19 8.06 C 52.70 13.76 56.62 22.44 55.67 31.14 C 54.74 43.79 43.84 54.91 31.14 55.79 C 22.40 56.55 14.11 52.19 7.99 46.27 M 14.79 45.21 C 19.46 48.66 25.28 50.73 31.13 49.88 C 40.71 48.89 48.90 40.68 49.88 31.10 C 50.73 25.26 48.65 19.45 45.21 14.79 C 35.07 24.93 24.93 35.07 14.79 45.21 Z" />
<path fill="#000000" opacity="1.00" d=" M 38.18 28.04 C 40.02 26.71 41.84 25.22 44.06 24.55 C 45.76 25.11 46.32 27.17 44.95 28.39 C 42.70 28.86 40.42 28.26 38.18 28.04 Z" />
<path fill="#000000" opacity="1.00" d=" M 38.17 31.95 C 40.40 31.74 42.67 31.15 44.91 31.60 C 46.31 32.77 45.80 34.98 44.01 35.39 C 41.78 34.79 40.01 33.25 38.17 31.95 Z" />
<path fill="#000000" opacity="1.00" d=" M 35.94 35.93 C 37.98 36.85 40.18 37.55 41.91 39.02 C 42.57 40.85 40.90 42.55 39.06 41.92 C 37.52 40.22 36.88 37.96 35.94 35.93 Z" />
<path fill="#000000" opacity="1.00" d=" M 24.95 45.37 C 21.38 43.34 26.03 39.96 27.36 37.99 C 27.12 40.33 28.97 45.67 24.95 45.37 Z" />
<path fill="#000000" opacity="1.00" d=" M 31.96 38.17 C 33.18 40.35 37.18 43.62 33.95 45.77 C 29.77 45.86 31.90 40.61 31.96 38.17 Z" />
</g>
</svg>
