<?xml version="1.0" encoding="UTF-8" ?>
<!DOCTYPE svg PUBLIC "-//W3C//DTD SVG 1.1//EN" "http://www.w3.org/Graphics/SVG/1.1/DTD/svg11.dtd">
<svg width="64pt" height="64pt" viewBox="0 0 64 64" version="1.1" xmlns="http://www.w3.org/2000/svg">
<g id="#ffffffff">
<path fill="#ffffff" opacity="1.00" d=" M 0.00 0.00 L 64.00 0.00 L 64.00 64.00 L 0.00 64.00 L 0.00 0.00 M 39.94 15.87 C 34.61 13.87 29.31 11.79 23.95 9.87 C 18.70 12.11 13.50 14.47 8.16 16.52 C 7.79 29.35 8.10 42.21 8.00 55.05 C 13.35 52.73 18.71 50.45 24.06 48.13 C 29.39 50.12 34.72 52.12 40.05 54.13 C 45.36 51.98 50.54 49.52 55.88 47.45 C 56.16 34.62 55.93 21.78 56.00 8.95 C 50.67 11.32 45.31 13.60 39.94 15.87 Z" />
<path fill="#ffffff" opacity="1.00" d=" M 12.01 19.32 C 16.04 17.62 20.03 15.83 24.06 14.13 C 29.39 16.13 34.72 18.12 40.04 20.13 C 44.06 18.50 48.01 16.70 52.00 15.00 C 52.00 24.90 52.01 34.80 51.99 44.69 C 47.99 46.46 43.95 48.14 39.93 49.87 C 34.61 47.88 29.30 45.81 23.96 43.87 C 19.97 45.56 16.00 47.31 12.00 48.99 C 12.00 39.10 12.00 29.21 12.01 19.32 M 22.35 20.38 C 19.62 21.50 19.13 25.72 21.74 27.25 C 23.63 28.79 26.65 27.82 27.60 25.66 C 29.34 22.57 25.46 18.64 22.35 20.38 M 17.15 28.12 C 14.85 29.15 16.44 32.95 18.78 31.82 C 21.23 30.87 19.52 27.07 17.15 28.12 M 31.15 28.12 C 28.88 29.19 30.40 32.87 32.80 31.87 C 35.17 30.83 33.57 27.10 31.15 28.12 M 45.21 28.10 C 42.83 29.16 44.41 32.89 46.86 31.88 C 49.10 30.75 47.61 27.17 45.21 28.10 M 17.21 34.10 C 14.87 35.12 16.35 38.84 18.78 37.90 C 21.13 36.86 19.63 33.15 17.21 34.10 M 33.21 34.19 C 30.76 35.02 32.50 39.02 34.76 37.82 C 37.26 37.01 35.50 32.95 33.21 34.19 M 45.15 34.12 C 42.88 35.22 44.40 38.83 46.80 37.89 C 49.16 36.81 47.58 33.12 45.15 34.12 M 38.38 38.36 C 33.58 40.24 37.01 47.97 41.61 45.63 C 46.40 43.78 42.99 36.00 38.38 38.36 Z" />
</g>
<g id="#000000ff">
<path fill="#000000" opacity="1.00" d=" M 39.94 15.87 C 45.31 13.60 50.67 11.32 56.00 8.95 C 55.93 21.78 56.16 34.62 55.88 47.45 C 50.54 49.52 45.36 51.98 40.05 54.13 C 34.72 52.12 29.39 50.12 24.06 48.13 C 18.71 50.45 13.35 52.73 8.00 55.05 C 8.10 42.21 7.79 29.35 8.16 16.52 C 13.50 14.47 18.70 12.11 23.95 9.87 C 29.31 11.79 34.61 13.87 39.94 15.87 M 12.01 19.32 C 12.00 29.21 12.00 39.10 12.00 48.99 C 16.00 47.31 19.97 45.56 23.96 43.87 C 29.30 45.81 34.61 47.88 39.93 49.87 C 43.95 48.14 47.99 46.46 51.99 44.69 C 52.01 34.80 52.00 24.90 52.00 15.00 C 48.01 16.70 44.06 18.50 40.04 20.13 C 34.72 18.12 29.39 16.13 24.06 14.13 C 20.03 15.83 16.04 17.62 12.01 19.32 Z" />
<path fill="#000000" opacity="1.00" d=" M 22.35 20.38 C 25.46 18.64 29.34 22.57 27.60 25.66 C 26.65 27.82 23.63 28.79 21.74 27.25 C 19.13 25.72 19.62 21.50 22.35 20.38 Z" />
<path fill="#000000" opacity="1.00" d=" M 17.15 28.12 C 19.52 27.07 21.23 30.87 18.78 31.82 C 16.44 32.95 14.85 29.15 17.15 28.12 Z" />
<path fill="#000000" opacity="1.00" d=" M 31.15 28.12 C 33.57 27.10 35.17 30.83 32.80 31.87 C 30.40 32.87 28.88 29.19 31.15 28.12 Z" />
<path fill="#000000" opacity="1.00" d=" M 45.21 28.10 C 47.61 27.17 49.10 30.75 46.86 31.88 C 44.41 32.89 42.83 29.16 45.21 28.10 Z" />
<path fill="#000000" opacity="1.00" d=" M 17.21 34.10 C 19.63 33.15 21.13 36.86 18.78 37.90 C 16.35 38.84 14.87 35.12 17.21 34.10 Z" />
<path fill="#000000" opacity="1.00" d=" M 33.21 34.19 C 35.50 32.95 37.26 37.01 34.76 37.82 C 32.50 39.02 30.76 35.02 33.21 34.19 Z" />
<path fill="#000000" opacity="1.00" d=" M 45.15 34.12 C 47.58 33.12 49.16 36.81 46.80 37.89 C 44.40 38.83 42.88 35.22 45.15 34.12 Z" />
<path fill="#000000" opacity="1.00" d=" M 38.38 38.36 C 42.99 36.00 46.40 43.78 41.61 45.63 C 37.01 47.97 33.58 40.24 38.38 38.36 Z" />
</g>
</svg>
