<?xml version="1.0" encoding="UTF-8" ?>
<!DOCTYPE svg PUBLIC "-//W3C//DTD SVG 1.1//EN" "http://www.w3.org/Graphics/SVG/1.1/DTD/svg11.dtd">
<svg width="64pt" height="64pt" viewBox="0 0 64 64" version="1.1" xmlns="http://www.w3.org/2000/svg">
<g id="#ffffffff">
<path fill="#ffffff" opacity="1.00" d=" M 0.00 0.00 L 64.00 0.00 L 64.00 64.00 L 0.00 64.00 L 0.00 0.00 M 24.63 34.94 C 26.11 36.41 27.60 37.89 29.07 39.36 C 39.05 28.54 49.51 18.02 58.03 5.97 C 45.98 14.49 35.48 24.97 24.63 34.94 M 16.57 35.42 C 18.11 36.94 19.65 38.47 21.18 40.00 C 17.96 43.13 14.90 46.42 11.60 49.47 C 9.85 50.36 7.23 50.08 6.40 52.32 C 4.60 55.44 8.59 59.37 11.68 57.59 C 13.54 56.81 14.03 54.73 14.05 52.91 C 17.29 49.47 20.69 46.18 24.02 42.83 C 25.53 44.36 27.04 45.89 28.55 47.43 C 29.52 46.48 30.48 45.52 31.44 44.56 C 27.46 40.55 23.45 36.56 19.45 32.57 C 18.48 33.52 17.53 34.47 16.57 35.42 Z" />
</g>
<g id="#000000ff">
<path fill="#000000" opacity="1.00" d=" M 24.63 34.94 C 35.48 24.97 45.98 14.49 58.03 5.97 C 49.51 18.02 39.05 28.54 29.07 39.36 C 27.60 37.89 26.11 36.41 24.63 34.94 Z" />
<path fill="#000000" opacity="1.00" d=" M 16.57 35.42 C 17.53 34.47 18.48 33.52 19.45 32.57 C 23.45 36.56 27.46 40.55 31.44 44.56 C 30.48 45.52 29.52 46.48 28.55 47.43 C 27.04 45.89 25.53 44.36 24.02 42.83 C 20.69 46.18 17.29 49.47 14.05 52.91 C 14.03 54.73 13.54 56.81 11.68 57.59 C 8.59 59.37 4.60 55.44 6.40 52.32 C 7.23 50.08 9.85 50.36 11.60 49.47 C 14.90 46.42 17.96 43.13 21.18 40.00 C 19.65 38.47 18.11 36.94 16.57 35.42 Z" />
</g>
</svg>
