<?xml version="1.0" encoding="UTF-8" ?>
<!DOCTYPE svg PUBLIC "-//W3C//DTD SVG 1.1//EN" "http://www.w3.org/Graphics/SVG/1.1/DTD/svg11.dtd">
<svg width="60pt" height="60pt" viewBox="0 0 60 60" version="1.1" xmlns="http://www.w3.org/2000/svg">
<g id="#ffffffff">
<path fill="#ffffff" opacity="1.00" d=" M 0.00 0.00 L 60.00 0.00 L 60.00 60.00 L 0.00 60.00 L 0.00 0.00 M 12.36 6.54 C 9.81 7.50 6.16 8.81 5.94 11.97 C 7.63 14.82 10.07 11.93 12.00 11.00 C 15.70 8.83 20.03 10.53 23.14 12.91 C 24.60 14.28 26.90 11.86 25.73 10.32 C 22.50 6.63 17.04 5.17 12.36 6.54 M 11.31 16.38 C 10.71 17.79 12.02 18.63 12.88 19.49 C 13.90 18.96 14.91 18.43 15.94 17.91 C 17.53 18.97 20.56 20.01 20.88 17.19 C 19.71 13.19 13.40 13.02 11.31 16.38 M 23.80 25.82 C 22.45 26.06 19.93 25.94 20.08 27.96 C 19.93 33.31 19.93 38.66 20.08 44.00 C 19.94 46.18 22.62 45.94 24.06 46.12 C 26.70 48.40 28.90 52.16 32.84 51.99 C 36.89 52.06 42.61 52.87 44.33 48.08 C 42.29 48.00 40.25 47.97 38.21 47.97 C 38.20 47.49 38.18 46.52 38.17 46.03 C 42.67 45.77 47.29 46.50 51.72 45.59 C 54.37 44.44 54.25 41.20 53.09 39.01 C 54.47 36.59 54.02 33.79 51.74 32.13 C 52.20 30.02 51.74 28.01 50.27 26.42 C 49.81 24.93 49.89 22.76 48.06 22.23 C 43.03 21.73 37.94 22.05 32.90 22.05 C 29.47 22.00 26.22 23.42 23.80 25.82 M 6.00 25.94 C 6.00 32.65 6.00 39.35 6.00 46.06 C 7.89 45.69 10.58 46.77 11.82 44.85 C 12.13 38.96 12.13 33.03 11.82 27.15 C 10.58 25.22 7.89 26.31 6.00 25.94 Z" />
</g>
<g id="#000000ff">
<path fill="#968176" opacity="1.00" d=" M 12.36 6.54 C 17.04 5.17 22.50 6.63 25.73 10.32 C 26.90 11.86 24.60 14.28 23.14 12.91 C 20.03 10.53 15.70 8.83 12.00 11.00 C 10.07 11.93 7.63 14.82 5.94 11.97 C 6.16 8.81 9.81 7.50 12.36 6.54 Z" />
<path fill="#968176" opacity="1.00" d=" M 11.31 16.38 C 13.40 13.02 19.71 13.19 20.88 17.19 C 20.56 20.01 17.53 18.97 15.94 17.91 C 14.91 18.43 13.90 18.96 12.88 19.49 C 12.02 18.63 10.71 17.79 11.31 16.38 Z" />
<path fill="#968176" opacity="1.00" d=" M 23.80 25.82 C 26.22 23.42 29.47 22.00 32.90 22.05 C 37.94 22.05 43.03 21.73 48.06 22.23 C 49.89 22.76 49.81 24.93 50.27 26.42 C 51.74 28.01 52.20 30.02 51.74 32.13 C 54.02 33.79 54.47 36.59 53.09 39.01 C 54.25 41.20 54.37 44.44 51.72 45.59 C 47.29 46.50 42.67 45.77 38.17 46.03 C 38.18 46.52 38.20 47.49 38.21 47.97 C 40.25 47.97 42.29 48.00 44.33 48.08 C 42.61 52.87 36.89 52.06 32.84 51.99 C 28.90 52.16 26.70 48.40 24.06 46.12 C 22.62 45.94 19.94 46.18 20.08 44.00 C 19.93 38.66 19.93 33.31 20.08 27.96 C 19.93 25.94 22.45 26.06 23.80 25.82 Z" />
<path fill="#968176" opacity="1.00" d=" M 6.00 25.94 C 7.89 26.31 10.58 25.22 11.82 27.15 C 12.13 33.03 12.13 38.96 11.82 44.85 C 10.58 46.77 7.89 45.69 6.00 46.06 C 6.00 39.35 6.00 32.65 6.00 25.94 Z" />
</g>
</svg>
