<?xml version="1.0" encoding="UTF-8" ?>
<!DOCTYPE svg PUBLIC "-//W3C//DTD SVG 1.1//EN" "http://www.w3.org/Graphics/SVG/1.1/DTD/svg11.dtd">
<svg width="60pt" height="60pt" viewBox="0 0 60 60" version="1.1" xmlns="http://www.w3.org/2000/svg">
<g id="#ffffffff">
<path fill="#ffffff" opacity="1.00" d=" M 0.00 0.00 L 60.00 0.00 L 60.00 60.00 L 0.00 60.00 L 0.00 0.00 M 6.14 11.02 C 5.83 14.00 6.04 17.01 6.01 20.00 C 22.00 20.00 38.00 20.00 53.99 20.00 C 53.99 17.28 54.09 14.55 53.95 11.83 C 53.94 9.82 52.12 7.95 50.07 8.05 C 37.02 7.94 23.97 8.03 10.92 8.00 C 8.86 7.73 6.65 8.93 6.14 11.02 M 6.00 24.00 C 6.13 32.96 5.75 41.95 6.18 50.90 C 6.41 51.13 6.88 51.59 7.11 51.83 C 21.41 52.24 35.73 51.87 50.04 52.01 C 51.49 52.03 54.03 52.17 53.93 50.05 C 54.12 41.37 53.94 32.68 54.00 24.00 C 52.67 24.00 51.33 24.00 50.00 24.00 C 50.00 32.00 50.00 40.00 50.00 48.00 C 36.67 48.00 23.33 48.00 10.00 48.00 C 10.00 40.00 10.00 32.00 10.00 24.00 C 8.67 24.00 7.33 24.00 6.00 24.00 M 14.00 24.00 C 14.00 30.67 14.00 37.33 14.00 44.00 C 18.67 44.00 23.33 44.00 28.00 44.00 C 28.00 37.33 28.00 30.67 28.00 24.00 C 23.33 24.00 18.67 24.00 14.00 24.00 M 33.11 24.21 C 31.30 24.98 31.85 28.05 33.91 27.91 C 37.55 28.06 41.24 28.19 44.88 27.80 C 46.75 27.04 46.10 23.87 44.03 24.08 C 40.40 23.95 36.73 23.81 33.11 24.21 M 33.14 32.19 C 31.64 32.84 31.62 35.20 33.17 35.81 C 36.10 36.18 39.07 35.99 42.01 36.01 C 43.36 35.91 45.06 36.24 45.89 34.87 C 46.29 33.60 45.59 31.98 44.08 32.09 C 40.44 31.94 36.77 31.83 33.14 32.19 M 33.10 40.21 C 31.28 40.98 31.89 44.10 33.95 43.91 C 37.58 44.05 41.25 44.19 44.87 43.80 C 46.72 43.05 46.12 39.91 44.07 40.09 C 40.42 39.95 36.74 39.80 33.10 40.21 Z" />
<path fill="#ffffff" opacity="1.00" d=" M 11.20 12.11 C 13.61 11.16 15.12 14.78 12.84 15.88 C 10.40 16.90 8.84 13.15 11.20 12.11 Z" />
<path fill="#ffffff" opacity="1.00" d=" M 19.18 12.15 C 21.59 11.10 23.14 14.81 20.84 15.88 C 18.43 16.89 16.81 13.16 19.18 12.15 Z" />
</g>
<g id="#000000ff">
<path fill="#000000" opacity="1.00" d=" M 6.14 11.02 C 6.65 8.93 8.86 7.73 10.92 8.00 C 23.97 8.03 37.02 7.94 50.07 8.05 C 52.12 7.95 53.94 9.82 53.95 11.83 C 54.09 14.55 53.99 17.28 53.99 20.00 C 38.00 20.00 22.00 20.00 6.01 20.00 C 6.04 17.01 5.83 14.00 6.14 11.02 M 11.20 12.11 C 8.84 13.15 10.40 16.90 12.84 15.88 C 15.12 14.78 13.61 11.16 11.20 12.11 M 19.18 12.15 C 16.81 13.16 18.43 16.89 20.84 15.88 C 23.14 14.81 21.59 11.10 19.18 12.15 Z" />
<path fill="#000000" opacity="1.00" d=" M 6.00 24.00 C 7.33 24.00 8.67 24.00 10.00 24.00 C 10.00 32.00 10.00 40.00 10.00 48.00 C 23.33 48.00 36.67 48.00 50.00 48.00 C 50.00 40.00 50.00 32.00 50.00 24.00 C 51.33 24.00 52.67 24.00 54.00 24.00 C 53.94 32.68 54.12 41.37 53.93 50.05 C 54.03 52.17 51.49 52.03 50.04 52.01 C 35.73 51.87 21.41 52.24 7.11 51.83 C 6.88 51.59 6.41 51.13 6.18 50.90 C 5.75 41.95 6.13 32.96 6.00 24.00 Z" />
<path fill="#000000" opacity="1.00" d=" M 14.00 24.00 C 18.67 24.00 23.33 24.00 28.00 24.00 C 28.00 30.67 28.00 37.33 28.00 44.00 C 23.33 44.00 18.67 44.00 14.00 44.00 C 14.00 37.33 14.00 30.67 14.00 24.00 Z" />
<path fill="#000000" opacity="1.00" d=" M 33.11 24.21 C 36.73 23.81 40.40 23.95 44.03 24.08 C 46.10 23.87 46.75 27.04 44.88 27.80 C 41.24 28.19 37.55 28.06 33.91 27.91 C 31.85 28.05 31.30 24.98 33.11 24.21 Z" />
<path fill="#000000" opacity="1.00" d=" M 33.14 32.19 C 36.77 31.83 40.44 31.94 44.08 32.09 C 45.59 31.98 46.29 33.60 45.89 34.87 C 45.06 36.24 43.36 35.91 42.01 36.01 C 39.07 35.99 36.10 36.18 33.17 35.81 C 31.62 35.20 31.64 32.84 33.14 32.19 Z" />
<path fill="#000000" opacity="1.00" d=" M 33.10 40.21 C 36.74 39.80 40.42 39.95 44.07 40.09 C 46.12 39.91 46.72 43.05 44.87 43.80 C 41.25 44.19 37.58 44.05 33.95 43.91 C 31.89 44.10 31.28 40.98 33.10 40.21 Z" />
</g>
</svg>
