<?xml version="1.0" encoding="UTF-8" ?>
<!DOCTYPE svg PUBLIC "-//W3C//DTD SVG 1.1//EN" "http://www.w3.org/Graphics/SVG/1.1/DTD/svg11.dtd">
<svg width="60pt" height="60pt" viewBox="0 0 60 60" version="1.1" xmlns="http://www.w3.org/2000/svg">
<g id="#ffffffff">
<path fill="#ffffff" opacity="1.00" d=" M 0.00 0.00 L 60.00 0.00 L 60.00 60.00 L 0.00 60.00 L 0.00 0.00 M 18.41 9.15 C 16.81 13.52 20.18 17.23 21.76 21.00 C 13.53 26.31 7.01 34.94 6.16 44.91 C 6.24 46.52 5.24 49.09 7.29 49.82 C 10.91 51.56 15.01 51.48 18.84 52.44 C 25.82 54.38 33.36 54.57 40.37 52.63 C 44.66 51.41 49.40 51.71 53.37 49.45 C 54.51 48.27 53.77 46.36 53.83 44.89 C 52.96 34.94 46.49 26.29 38.24 21.01 C 39.65 17.43 42.87 14.08 41.77 9.95 C 41.11 7.76 40.53 4.65 38.01 3.95 C 35.72 3.97 35.98 6.48 36.53 8.01 C 34.20 8.43 31.96 9.20 29.93 10.42 C 27.91 9.24 25.71 8.46 23.42 8.03 C 23.82 6.68 24.44 4.96 22.89 4.05 C 19.99 3.48 19.15 7.07 18.41 9.15 Z" />
<path fill="#ffffff" opacity="1.00" d=" M 21.75 11.84 C 25.01 11.82 27.45 13.84 30.00 15.55 C 32.50 13.75 34.96 11.78 38.25 11.85 C 36.92 15.51 33.52 18.68 34.16 22.82 C 42.30 28.30 49.43 36.51 49.92 46.76 C 47.95 47.22 45.96 47.63 43.97 48.01 C 43.24 42.99 41.59 38.13 39.01 33.75 C 37.83 34.19 35.92 34.26 36.01 35.99 C 37.60 40.15 39.50 44.24 40.00 48.73 C 33.46 50.40 26.54 50.40 20.01 48.73 C 20.50 44.52 22.10 40.60 23.74 36.72 C 24.89 34.87 21.79 32.89 20.63 34.65 C 17.96 38.59 16.85 43.37 16.04 48.01 C 14.04 47.63 12.05 47.22 10.07 46.76 C 10.63 37.38 16.56 29.14 24.28 24.15 C 26.49 23.21 26.16 20.63 25.31 18.82 C 24.17 16.47 22.81 14.23 21.75 11.84 Z" />
</g>
<g id="#000000ff">
<path fill="#000000" opacity="1.00" d=" M 18.41 9.15 C 19.15 7.07 19.99 3.48 22.89 4.05 C 24.44 4.96 23.82 6.68 23.42 8.03 C 25.71 8.46 27.91 9.24 29.93 10.42 C 31.96 9.20 34.20 8.43 36.53 8.01 C 35.98 6.48 35.72 3.97 38.01 3.95 C 40.53 4.65 41.11 7.76 41.77 9.95 C 42.87 14.08 39.65 17.43 38.24 21.01 C 46.49 26.29 52.96 34.94 53.83 44.89 C 53.77 46.36 54.51 48.27 53.37 49.45 C 49.40 51.71 44.66 51.41 40.37 52.63 C 33.36 54.57 25.82 54.38 18.84 52.44 C 15.01 51.48 10.91 51.56 7.29 49.82 C 5.24 49.09 6.24 46.52 6.16 44.91 C 7.01 34.94 13.53 26.31 21.76 21.00 C 20.18 17.23 16.81 13.52 18.41 9.15 M 21.75 11.84 C 22.81 14.23 24.17 16.47 25.31 18.82 C 26.16 20.63 26.49 23.21 24.28 24.15 C 16.56 29.14 10.63 37.38 10.07 46.76 C 12.05 47.22 14.04 47.63 16.04 48.01 C 16.85 43.37 17.96 38.59 20.63 34.65 C 21.79 32.89 24.89 34.87 23.74 36.72 C 22.10 40.60 20.50 44.52 20.01 48.73 C 26.54 50.40 33.46 50.40 40.00 48.73 C 39.50 44.24 37.60 40.15 36.01 35.99 C 35.92 34.26 37.83 34.19 39.01 33.75 C 41.59 38.13 43.24 42.99 43.97 48.01 C 45.96 47.63 47.95 47.22 49.92 46.76 C 49.43 36.51 42.30 28.30 34.16 22.82 C 33.52 18.68 36.92 15.51 38.25 11.85 C 34.96 11.78 32.50 13.75 30.00 15.55 C 27.45 13.84 25.01 11.82 21.75 11.84 Z" />
</g>
</svg>
