<?xml version="1.0" encoding="UTF-8" ?>
<!DOCTYPE svg PUBLIC "-//W3C//DTD SVG 1.1//EN" "http://www.w3.org/Graphics/SVG/1.1/DTD/svg11.dtd">
<svg width="64pt" height="64pt" viewBox="0 0 64 64" version="1.1" xmlns="http://www.w3.org/2000/svg">
<g id="#ffffffff">
<path fill="#ffffff" opacity="1.00" d=" M 0.00 0.00 L 64.00 0.00 L 64.00 64.00 L 0.00 64.00 L 0.00 0.00 M 10.00 9.99 C 9.99 24.66 10.01 39.33 9.99 54.00 C 24.66 54.01 39.33 53.99 54.00 54.01 C 54.01 39.34 53.99 24.67 54.01 10.00 C 39.34 9.99 24.67 10.01 10.00 9.99 Z" />
<path fill="#ffffff" opacity="1.00" d=" M 14.00 14.00 C 15.33 14.00 16.67 14.00 18.00 14.00 C 18.00 15.33 18.00 16.67 18.00 18.00 C 16.67 18.00 15.33 18.00 14.00 18.00 C 14.00 16.67 14.00 15.33 14.00 14.00 Z" />
<path fill="#ffffff" opacity="1.00" d=" M 22.00 14.00 C 23.33 14.00 24.67 14.00 26.00 14.00 C 26.00 15.33 26.00 16.67 26.00 18.00 C 24.67 18.00 23.33 18.00 22.00 18.00 C 22.00 16.67 22.00 15.33 22.00 14.00 Z" />
<path fill="#ffffff" opacity="1.00" d=" M 30.00 14.00 C 31.33 14.00 32.67 14.00 34.00 14.00 C 34.00 15.33 34.00 16.67 34.00 18.00 C 32.67 18.00 31.33 18.00 30.00 18.00 C 30.00 16.67 30.00 15.33 30.00 14.00 Z" />
<path fill="#ffffff" opacity="1.00" d=" M 38.00 14.00 C 39.33 14.00 40.67 14.00 42.00 14.00 C 42.00 15.33 42.00 16.67 42.00 18.00 C 40.67 18.00 39.33 18.00 38.00 18.00 C 38.00 16.67 38.00 15.33 38.00 14.00 Z" />
<path fill="#ffffff" opacity="1.00" d=" M 46.00 14.00 C 47.33 14.00 48.67 14.00 50.00 14.00 C 50.00 15.33 50.00 16.67 50.00 18.00 C 48.67 18.00 47.33 18.00 46.00 18.00 C 46.00 16.67 46.00 15.33 46.00 14.00 Z" />
<path fill="#ffffff" opacity="1.00" d=" M 14.00 22.00 C 15.33 22.00 16.67 22.00 18.00 22.00 C 18.00 31.33 18.00 40.66 18.00 50.00 C 16.67 50.00 15.33 50.00 14.00 50.00 C 14.00 40.67 14.00 31.34 14.00 22.00 Z" />
<path fill="#ffffff" opacity="1.00" d=" M 22.00 22.00 C 23.33 22.00 24.67 22.00 26.00 22.00 C 26.00 31.33 26.00 40.66 26.00 50.00 C 24.67 50.00 23.33 50.00 22.00 50.00 C 22.00 40.67 22.00 31.34 22.00 22.00 Z" />
<path fill="#ffffff" opacity="1.00" d=" M 30.00 22.00 C 31.33 22.00 32.67 22.00 34.00 22.00 C 34.00 31.33 34.00 40.66 34.00 50.00 C 32.67 50.00 31.33 50.00 30.00 50.00 C 30.00 40.67 30.00 31.34 30.00 22.00 Z" />
<path fill="#ffffff" opacity="1.00" d=" M 38.00 22.00 C 39.33 22.00 40.67 22.00 42.00 22.00 C 42.00 31.33 42.00 40.66 42.00 50.00 C 40.67 50.00 39.33 50.00 38.00 50.00 C 38.00 40.67 38.00 31.34 38.00 22.00 Z" />
<path fill="#ffffff" opacity="1.00" d=" M 46.00 22.00 C 47.33 22.00 48.67 22.00 50.00 22.00 C 50.00 31.33 50.00 40.66 50.00 50.00 C 48.67 50.00 47.33 50.00 46.00 50.00 C 46.00 40.67 46.00 31.34 46.00 22.00 Z" />
</g>
<g id="#000000ff">
<path fill="#000000" opacity="1.00" d=" M 10.00 9.99 C 24.67 10.01 39.34 9.99 54.01 10.00 C 53.99 24.67 54.01 39.34 54.00 54.01 C 39.33 53.99 24.66 54.01 9.99 54.00 C 10.01 39.33 9.99 24.66 10.00 9.99 M 14.00 14.00 C 14.00 15.33 14.00 16.67 14.00 18.00 C 15.33 18.00 16.67 18.00 18.00 18.00 C 18.00 16.67 18.00 15.33 18.00 14.00 C 16.67 14.00 15.33 14.00 14.00 14.00 M 22.00 14.00 C 22.00 15.33 22.00 16.67 22.00 18.00 C 23.33 18.00 24.67 18.00 26.00 18.00 C 26.00 16.67 26.00 15.33 26.00 14.00 C 24.67 14.00 23.33 14.00 22.00 14.00 M 30.00 14.00 C 30.00 15.33 30.00 16.67 30.00 18.00 C 31.33 18.00 32.67 18.00 34.00 18.00 C 34.00 16.67 34.00 15.33 34.00 14.00 C 32.67 14.00 31.33 14.00 30.00 14.00 M 38.00 14.00 C 38.00 15.33 38.00 16.67 38.00 18.00 C 39.33 18.00 40.67 18.00 42.00 18.00 C 42.00 16.67 42.00 15.33 42.00 14.00 C 40.67 14.00 39.33 14.00 38.00 14.00 M 46.00 14.00 C 46.00 15.33 46.00 16.67 46.00 18.00 C 47.33 18.00 48.67 18.00 50.00 18.00 C 50.00 16.67 50.00 15.33 50.00 14.00 C 48.67 14.00 47.33 14.00 46.00 14.00 M 14.00 22.00 C 14.00 31.34 14.00 40.67 14.00 50.00 C 15.33 50.00 16.67 50.00 18.00 50.00 C 18.00 40.66 18.00 31.33 18.00 22.00 C 16.67 22.00 15.33 22.00 14.00 22.00 M 22.00 22.00 C 22.00 31.34 22.00 40.67 22.00 50.00 C 23.33 50.00 24.67 50.00 26.00 50.00 C 26.00 40.66 26.00 31.33 26.00 22.00 C 24.67 22.00 23.33 22.00 22.00 22.00 M 30.00 22.00 C 30.00 31.34 30.00 40.67 30.00 50.00 C 31.33 50.00 32.67 50.00 34.00 50.00 C 34.00 40.66 34.00 31.33 34.00 22.00 C 32.67 22.00 31.33 22.00 30.00 22.00 M 38.00 22.00 C 38.00 31.34 38.00 40.67 38.00 50.00 C 39.33 50.00 40.67 50.00 42.00 50.00 C 42.00 40.66 42.00 31.33 42.00 22.00 C 40.67 22.00 39.33 22.00 38.00 22.00 M 46.00 22.00 C 46.00 31.34 46.00 40.67 46.00 50.00 C 47.33 50.00 48.67 50.00 50.00 50.00 C 50.00 40.66 50.00 31.33 50.00 22.00 C 48.67 22.00 47.33 22.00 46.00 22.00 Z" />
</g>
</svg>
