<?xml version="1.0" encoding="UTF-8" ?>
<!DOCTYPE svg PUBLIC "-//W3C//DTD SVG 1.1//EN" "http://www.w3.org/Graphics/SVG/1.1/DTD/svg11.dtd">
<svg width="64pt" height="64pt" viewBox="0 0 64 64" version="1.1" xmlns="http://www.w3.org/2000/svg">
<g id="#ffffffff">
<path fill="#ffffff" opacity="1.00" d=" M 0.00 0.00 L 64.00 0.00 L 64.00 64.00 L 0.00 64.00 L 0.00 0.00 M 38.01 10.00 C 38.01 10.50 37.99 11.50 37.99 12.00 C 34.58 12.00 31.17 12.00 27.76 12.00 C 26.02 15.55 24.19 19.06 22.45 22.61 C 21.62 24.03 22.11 25.78 22.92 27.09 C 26.11 32.05 35.91 30.51 36.00 24.05 C 35.20 21.19 33.44 18.71 32.24 16.00 C 34.16 16.00 36.08 16.00 38.00 16.00 C 38.00 21.33 38.00 26.67 38.00 32.00 C 39.33 32.00 40.67 32.00 42.00 32.00 C 42.00 26.67 42.00 21.33 42.00 16.00 C 43.92 16.00 45.84 16.00 47.76 16.00 C 46.61 19.45 42.76 22.76 44.62 26.57 C 47.43 32.16 58.04 30.71 58.01 23.94 C 56.42 19.80 54.11 15.97 52.20 11.98 C 48.80 12.02 45.41 12.00 42.01 12.00 C 42.01 11.50 41.99 10.50 41.99 10.00 C 40.66 10.00 39.34 10.00 38.01 10.00 M 6.01 39.00 C 7.33 42.71 8.65 46.42 9.98 50.12 C 13.28 48.92 16.57 47.67 19.84 46.36 C 24.60 48.97 29.38 51.56 34.11 54.22 C 42.34 50.84 50.56 47.43 58.77 44.01 C 58.25 42.78 57.74 41.55 57.24 40.32 C 49.64 43.46 42.04 46.59 34.46 49.79 C 29.66 47.22 24.93 44.55 20.14 41.96 C 17.55 42.97 14.95 43.94 12.35 44.94 C 11.94 43.73 11.53 42.53 11.10 41.32 C 14.42 40.26 17.53 38.37 21.04 38.01 C 23.97 37.85 25.97 40.27 28.20 41.77 C 31.56 44.35 36.03 43.88 40.00 44.01 C 40.00 42.68 40.00 41.35 40.00 40.02 C 36.40 39.84 32.19 40.45 29.36 37.67 C 26.57 35.10 22.75 33.27 18.89 34.24 C 14.48 35.48 10.35 37.53 6.01 39.00 Z" />
<path fill="#ffffff" opacity="1.00" d=" M 28.83 18.75 C 30.08 20.34 30.90 22.19 31.75 24.00 C 29.91 24.00 28.08 23.99 26.24 24.00 C 27.12 22.26 27.98 20.51 28.83 18.75 Z" />
<path fill="#ffffff" opacity="1.00" d=" M 48.24 24.00 C 49.16 22.16 50.08 20.32 51.00 18.48 C 51.92 20.32 52.84 22.16 53.76 24.00 C 51.92 23.99 50.08 24.00 48.24 24.00 Z" />
</g>
<g id="#000000ff">
<path fill="#000000" opacity="1.00" d=" M 38.01 10.00 C 39.34 10.00 40.66 10.00 41.99 10.00 C 41.99 10.50 42.01 11.50 42.01 12.00 C 45.41 12.00 48.80 12.02 52.20 11.98 C 54.11 15.97 56.42 19.80 58.01 23.94 C 58.04 30.71 47.43 32.16 44.62 26.57 C 42.76 22.76 46.61 19.45 47.76 16.00 C 45.84 16.00 43.92 16.00 42.00 16.00 C 42.00 21.33 42.00 26.67 42.00 32.00 C 40.67 32.00 39.33 32.00 38.00 32.00 C 38.00 26.67 38.00 21.33 38.00 16.00 C 36.08 16.00 34.16 16.00 32.24 16.00 C 33.44 18.71 35.20 21.19 36.00 24.05 C 35.91 30.51 26.11 32.05 22.92 27.09 C 22.11 25.78 21.62 24.03 22.45 22.61 C 24.19 19.06 26.02 15.55 27.76 12.00 C 31.17 12.00 34.58 12.00 37.99 12.00 C 37.99 11.50 38.01 10.50 38.01 10.00 M 28.83 18.75 C 27.98 20.51 27.12 22.26 26.24 24.00 C 28.08 23.99 29.91 24.00 31.75 24.00 C 30.90 22.19 30.08 20.34 28.83 18.75 M 48.24 24.00 C 50.08 24.00 51.92 23.99 53.76 24.00 C 52.84 22.16 51.92 20.32 51.00 18.48 C 50.08 20.32 49.16 22.16 48.24 24.00 Z" />
<path fill="#000000" opacity="1.00" d=" M 6.01 39.00 C 10.35 37.53 14.48 35.48 18.89 34.24 C 22.75 33.27 26.57 35.10 29.36 37.67 C 32.19 40.45 36.40 39.84 40.00 40.02 C 40.00 41.35 40.00 42.68 40.00 44.01 C 36.03 43.88 31.56 44.35 28.20 41.77 C 25.97 40.27 23.97 37.85 21.04 38.01 C 17.53 38.37 14.42 40.26 11.10 41.32 C 11.53 42.53 11.94 43.73 12.35 44.94 C 14.95 43.94 17.55 42.97 20.14 41.96 C 24.93 44.55 29.66 47.22 34.46 49.79 C 42.04 46.59 49.64 43.46 57.24 40.32 C 57.74 41.55 58.25 42.78 58.77 44.01 C 50.56 47.43 42.34 50.84 34.11 54.22 C 29.38 51.56 24.60 48.97 19.84 46.36 C 16.57 47.67 13.28 48.92 9.98 50.12 C 8.65 46.42 7.33 42.71 6.01 39.00 Z" />
</g>
</svg>
