<?xml version="1.0" encoding="UTF-8" ?>
<!DOCTYPE svg PUBLIC "-//W3C//DTD SVG 1.1//EN" "http://www.w3.org/Graphics/SVG/1.1/DTD/svg11.dtd">
<svg width="64pt" height="64pt" viewBox="0 0 64 64" version="1.1" xmlns="http://www.w3.org/2000/svg">
<g id="#ffffffff">
<path fill="#ffffff" opacity="1.00" d=" M 0.00 0.00 L 64.00 0.00 L 64.00 64.00 L 0.00 64.00 L 0.00 0.00 M 8.00 6.00 C 8.00 23.34 8.00 40.67 8.00 58.00 C 21.33 58.00 34.67 58.00 48.00 58.00 C 48.00 44.00 48.00 30.00 48.00 16.00 C 48.50 16.00 49.50 16.00 50.00 16.00 C 50.00 18.67 50.00 21.33 50.00 24.00 C 52.67 24.00 55.33 24.00 58.00 24.00 C 58.00 22.67 58.00 21.33 58.00 20.00 C 56.66 20.00 55.33 20.00 54.00 20.00 C 54.00 17.33 54.00 14.67 54.00 12.00 C 52.00 12.00 50.00 12.00 48.00 12.00 C 48.00 10.00 48.00 8.00 48.00 6.00 C 46.67 5.99 45.33 5.99 44.00 6.00 C 44.00 8.00 44.00 10.00 44.00 12.00 C 33.33 12.00 22.67 12.00 12.00 12.00 C 12.00 10.00 12.00 8.00 12.00 6.00 C 10.67 5.99 9.33 5.99 8.00 6.00 Z" />
<path fill="#ffffff" opacity="1.00" d=" M 12.00 16.00 C 16.67 16.00 21.33 16.00 26.00 16.00 C 26.00 18.00 26.00 20.00 26.00 22.00 C 27.33 22.00 28.67 22.00 30.00 22.00 C 30.00 20.00 30.00 18.00 30.00 16.00 C 34.67 16.00 39.33 16.00 44.00 16.00 C 44.00 25.33 44.00 34.67 44.00 44.00 C 40.79 44.00 37.59 44.00 34.38 44.00 C 34.76 38.52 37.96 32.44 34.49 27.36 C 31.57 22.94 24.34 22.97 21.45 27.43 C 18.07 32.50 21.23 38.54 21.62 44.00 C 18.41 44.00 15.21 44.00 12.00 44.00 C 12.00 34.67 12.00 25.33 12.00 16.00 Z" />
<path fill="#ffffff" opacity="1.00" d=" M 23.72 31.96 C 24.37 30.01 25.65 27.85 28.02 27.98 C 30.37 27.88 31.61 30.03 32.28 31.95 C 29.43 32.02 26.57 32.02 23.72 31.96 Z" />
<path fill="#ffffff" opacity="1.00" d=" M 24.38 36.00 C 26.79 36.00 29.21 36.00 31.63 36.00 C 31.16 38.67 30.70 41.33 30.25 44.00 C 28.75 44.00 27.25 44.00 25.75 44.00 C 25.29 41.33 24.84 38.66 24.38 36.00 Z" />
<path fill="#ffffff" opacity="1.00" d=" M 12.00 48.00 C 22.67 48.00 33.33 48.00 44.00 48.00 C 44.00 50.00 44.00 52.00 44.00 54.00 C 33.33 54.00 22.67 54.00 12.00 54.00 C 12.00 52.00 12.00 50.00 12.00 48.00 Z" />
</g>
<g id="#000000ff">
<path fill="#000000" opacity="1.00" d=" M 8.00 6.00 C 9.33 5.99 10.67 5.99 12.00 6.00 C 12.00 8.00 12.00 10.00 12.00 12.00 C 22.67 12.00 33.33 12.00 44.00 12.00 C 44.00 10.00 44.00 8.00 44.00 6.00 C 45.33 5.99 46.67 5.99 48.00 6.00 C 48.00 8.00 48.00 10.00 48.00 12.00 C 50.00 12.00 52.00 12.00 54.00 12.00 C 54.00 14.67 54.00 17.33 54.00 20.00 C 55.33 20.00 56.66 20.00 58.00 20.00 C 58.00 21.33 58.00 22.67 58.00 24.00 C 55.33 24.00 52.67 24.00 50.00 24.00 C 50.00 21.33 50.00 18.67 50.00 16.00 C 49.50 16.00 48.50 16.00 48.00 16.00 C 48.00 30.00 48.00 44.00 48.00 58.00 C 34.67 58.00 21.33 58.00 8.00 58.00 C 8.00 40.67 8.00 23.34 8.00 6.00 M 12.00 16.00 C 12.00 25.33 12.00 34.67 12.00 44.00 C 15.21 44.00 18.41 44.00 21.62 44.00 C 21.23 38.54 18.07 32.50 21.45 27.43 C 24.34 22.97 31.57 22.94 34.49 27.36 C 37.96 32.44 34.76 38.52 34.38 44.00 C 37.59 44.00 40.79 44.00 44.00 44.00 C 44.00 34.67 44.00 25.33 44.00 16.00 C 39.33 16.00 34.67 16.00 30.00 16.00 C 30.00 18.00 30.00 20.00 30.00 22.00 C 28.67 22.00 27.33 22.00 26.00 22.00 C 26.00 20.00 26.00 18.00 26.00 16.00 C 21.33 16.00 16.67 16.00 12.00 16.00 M 23.72 31.96 C 26.57 32.02 29.43 32.02 32.28 31.95 C 31.61 30.03 30.37 27.88 28.02 27.98 C 25.65 27.85 24.37 30.01 23.72 31.96 M 24.38 36.00 C 24.84 38.66 25.29 41.33 25.75 44.00 C 27.25 44.00 28.75 44.00 30.25 44.00 C 30.70 41.33 31.16 38.67 31.63 36.00 C 29.21 36.00 26.79 36.00 24.38 36.00 M 12.00 48.00 C 12.00 50.00 12.00 52.00 12.00 54.00 C 22.67 54.00 33.33 54.00 44.00 54.00 C 44.00 52.00 44.00 50.00 44.00 48.00 C 33.33 48.00 22.67 48.00 12.00 48.00 Z" />
</g>
</svg>
