<?xml version="1.0" encoding="UTF-8" ?>
<!DOCTYPE svg PUBLIC "-//W3C//DTD SVG 1.1//EN" "http://www.w3.org/Graphics/SVG/1.1/DTD/svg11.dtd">
<svg width="60pt" height="60pt" viewBox="0 0 60 60" version="1.1" xmlns="http://www.w3.org/2000/svg">
<g id="#ffffffff">
<path fill="#ffffff" opacity="1.00" d=" M 0.00 0.00 L 60.00 0.00 L 60.00 60.00 L 0.00 60.00 L 0.00 0.00 M 27.78 6.02 C 18.54 7.02 10.40 13.47 7.24 22.19 C 9.82 21.35 12.62 20.46 14.13 18.01 C 17.24 13.48 22.42 11.09 27.65 9.99 C 28.14 11.42 27.92 14.09 30.10 14.02 C 32.16 13.86 31.82 11.33 32.36 9.93 C 41.38 11.31 48.62 18.67 50.07 27.64 C 48.77 28.17 45.83 27.87 46.07 29.97 C 45.78 32.10 48.75 31.84 50.07 32.36 C 49.01 36.65 47.40 40.99 44.11 44.08 C 41.01 47.39 36.65 49.00 32.35 50.07 C 31.85 48.74 32.13 45.80 30.01 46.04 C 27.90 45.77 28.14 48.68 27.67 50.01 C 22.42 48.90 17.22 46.50 14.10 41.95 C 12.59 39.53 9.81 38.64 7.24 37.81 C 10.40 46.53 18.54 52.95 27.76 53.97 C 28.14 55.32 27.88 58.14 29.97 57.93 C 32.08 58.21 31.87 55.34 32.24 53.99 C 43.45 52.86 52.86 43.45 53.99 32.24 C 55.47 31.88 58.01 32.10 58.04 29.94 C 57.88 27.86 55.45 28.15 53.99 27.76 C 52.87 16.54 43.45 7.12 32.22 6.01 C 31.88 4.64 32.13 1.84 30.01 2.04 C 27.88 1.78 28.11 4.65 27.78 6.02 M 3.20 28.28 C 1.19 28.95 1.94 31.77 3.82 32.04 C 7.43 33.34 10.92 35.56 14.77 35.86 C 17.35 34.44 14.84 31.80 14.11 30.00 C 15.13 28.23 17.55 24.47 13.99 24.05 C 10.29 25.15 6.71 26.67 3.20 28.28 Z" />
</g>
<g id="#000000ff">
<path fill="#000000" opacity="1.00" d=" M 27.78 6.02 C 28.11 4.65 27.88 1.78 30.01 2.04 C 32.13 1.84 31.88 4.64 32.22 6.01 C 43.45 7.12 52.87 16.54 53.99 27.76 C 55.45 28.15 57.88 27.86 58.04 29.94 C 58.01 32.10 55.47 31.88 53.99 32.24 C 52.86 43.45 43.45 52.86 32.24 53.99 C 31.87 55.34 32.08 58.21 29.97 57.93 C 27.88 58.14 28.14 55.32 27.76 53.97 C 18.54 52.95 10.40 46.53 7.24 37.81 C 9.81 38.64 12.59 39.53 14.10 41.95 C 17.22 46.50 22.42 48.90 27.67 50.01 C 28.14 48.68 27.90 45.77 30.01 46.04 C 32.13 45.80 31.85 48.74 32.35 50.07 C 36.65 49.00 41.01 47.39 44.11 44.08 C 47.40 40.99 49.01 36.65 50.07 32.36 C 48.75 31.84 45.78 32.10 46.07 29.97 C 45.83 27.87 48.77 28.17 50.07 27.64 C 48.62 18.67 41.38 11.31 32.36 9.93 C 31.82 11.33 32.16 13.86 30.10 14.02 C 27.92 14.09 28.14 11.42 27.65 9.99 C 22.42 11.09 17.24 13.48 14.13 18.01 C 12.62 20.46 9.82 21.35 7.24 22.19 C 10.40 13.47 18.54 7.02 27.78 6.02 Z" />
<path fill="#000000" opacity="1.00" d=" M 3.20 28.28 C 6.71 26.67 10.29 25.15 13.99 24.05 C 17.55 24.47 15.13 28.23 14.11 30.00 C 14.84 31.80 17.35 34.44 14.77 35.86 C 10.92 35.56 7.43 33.34 3.82 32.04 C 1.94 31.77 1.19 28.95 3.20 28.28 Z" />
</g>
</svg>
