<?xml version="1.0" encoding="UTF-8" ?>
<!DOCTYPE svg PUBLIC "-//W3C//DTD SVG 1.1//EN" "http://www.w3.org/Graphics/SVG/1.1/DTD/svg11.dtd">
<svg width="64pt" height="64pt" viewBox="0 0 64 64" version="1.1" xmlns="http://www.w3.org/2000/svg">
<g id="#ffffffff">
<path fill="#ffffff" opacity="1.00" d=" M 0.00 0.00 L 64.00 0.00 L 64.00 64.00 L 0.00 64.00 L 0.00 0.00 M 24.94 13.00 C 24.20 18.63 24.23 24.33 24.06 30.00 C 23.55 30.00 22.52 30.00 22.00 30.00 C 21.83 27.00 22.83 23.13 20.04 21.03 C 17.08 18.48 11.89 20.92 12.05 24.84 C 12.19 28.93 11.03 33.72 13.89 37.14 C 16.35 40.33 20.69 40.10 24.30 40.01 C 24.60 43.27 24.83 46.53 25.01 49.80 C 26.34 49.80 27.67 49.80 29.01 49.80 C 28.43 40.21 27.56 30.62 28.29 21.01 C 28.68 18.21 28.11 15.07 29.46 12.52 C 31.20 11.84 34.99 11.19 34.94 14.02 C 36.32 26.63 36.31 39.40 34.64 51.99 C 27.76 52.01 20.88 52.00 14.00 52.00 C 14.00 53.33 14.00 54.67 14.00 56.00 C 26.00 56.00 38.00 56.00 50.00 56.00 C 50.00 54.67 50.00 53.33 50.00 52.00 C 46.25 52.00 42.50 52.00 38.76 52.00 C 39.56 46.04 39.77 40.02 40.00 34.02 C 43.33 34.05 47.22 34.32 49.68 31.60 C 53.04 28.24 51.83 23.09 51.95 18.83 C 52.09 14.89 46.83 12.45 43.89 15.09 C 41.16 17.20 42.18 21.03 42.00 24.00 C 41.44 24.00 40.32 24.00 39.76 24.01 C 38.98 19.28 40.27 13.77 37.29 9.68 C 33.66 6.45 25.84 7.58 24.94 13.00 Z" />
<path fill="#ffffff" opacity="1.00" d=" M 46.14 18.36 C 46.58 18.31 47.45 18.19 47.88 18.14 C 47.95 21.26 48.30 24.44 47.74 27.53 C 46.58 30.79 42.60 29.89 39.94 30.01 C 39.94 29.52 39.94 28.52 39.94 28.03 C 41.86 27.71 44.54 28.79 45.83 26.87 C 46.23 24.05 45.79 21.19 46.14 18.36 Z" />
<path fill="#ffffff" opacity="1.00" d=" M 16.07 24.27 C 16.54 24.28 17.49 24.30 17.96 24.31 C 18.05 27.16 17.84 30.02 18.16 32.85 C 19.44 34.80 22.14 33.71 24.06 34.03 C 24.08 34.52 24.11 35.51 24.13 36.01 C 21.46 35.87 17.49 36.82 16.28 33.60 C 15.68 30.54 16.09 27.37 16.07 24.27 Z" />
</g>
<g id="#000000ff">
<path fill="#000000" opacity="1.00" d=" M 24.94 13.00 C 25.84 7.58 33.66 6.45 37.29 9.68 C 40.27 13.77 38.98 19.28 39.76 24.01 C 40.32 24.00 41.44 24.00 42.00 24.00 C 42.18 21.03 41.16 17.20 43.89 15.09 C 46.83 12.45 52.09 14.89 51.95 18.83 C 51.83 23.09 53.04 28.24 49.68 31.60 C 47.22 34.32 43.33 34.05 40.00 34.02 C 39.77 40.02 39.56 46.04 38.76 52.00 C 42.50 52.00 46.25 52.00 50.00 52.00 C 50.00 53.33 50.00 54.67 50.00 56.00 C 38.00 56.00 26.00 56.00 14.00 56.00 C 14.00 54.67 14.00 53.33 14.00 52.00 C 20.88 52.00 27.76 52.01 34.64 51.99 C 36.31 39.40 36.32 26.63 34.94 14.02 C 34.99 11.19 31.20 11.84 29.46 12.52 C 28.11 15.07 28.68 18.21 28.29 21.01 C 27.56 30.62 28.43 40.21 29.01 49.80 C 27.67 49.80 26.34 49.80 25.01 49.80 C 24.83 46.53 24.60 43.27 24.30 40.01 C 20.69 40.10 16.35 40.33 13.89 37.14 C 11.03 33.72 12.19 28.93 12.05 24.84 C 11.89 20.92 17.08 18.48 20.04 21.03 C 22.83 23.13 21.83 27.00 22.00 30.00 C 22.52 30.00 23.55 30.00 24.06 30.00 C 24.23 24.33 24.20 18.63 24.94 13.00 M 46.14 18.36 C 45.79 21.19 46.23 24.05 45.83 26.87 C 44.54 28.79 41.86 27.71 39.94 28.03 C 39.94 28.52 39.94 29.52 39.94 30.01 C 42.60 29.89 46.58 30.79 47.74 27.53 C 48.30 24.44 47.95 21.26 47.88 18.14 C 47.45 18.19 46.58 18.31 46.14 18.36 M 16.07 24.27 C 16.09 27.37 15.68 30.54 16.28 33.60 C 17.49 36.82 21.46 35.87 24.13 36.01 C 24.11 35.51 24.08 34.52 24.06 34.03 C 22.14 33.71 19.44 34.80 18.16 32.85 C 17.84 30.02 18.05 27.16 17.96 24.31 C 17.49 24.30 16.54 24.28 16.07 24.27 Z" />
</g>
</svg>
