<?xml version="1.0" encoding="UTF-8" ?>
<!DOCTYPE svg PUBLIC "-//W3C//DTD SVG 1.1//EN" "http://www.w3.org/Graphics/SVG/1.1/DTD/svg11.dtd">
<svg width="200pt" height="200pt" viewBox="0 0 200 200" version="1.1" xmlns="http://www.w3.org/2000/svg">
<g id="#ffffffff">
<path fill="#ffffff" opacity="1.00" d=" M 0.00 0.00 L 200.00 0.00 L 200.00 60.55 C 199.60 56.62 199.61 52.22 197.07 48.96 C 194.97 46.74 191.73 48.47 189.43 49.45 C 156.68 68.26 119.55 79.20 81.93 82.09 C 74.79 82.43 67.51 82.30 60.54 80.58 C 51.31 78.18 44.19 71.54 36.01 67.04 C 35.00 66.30 33.13 65.65 33.54 64.05 C 33.99 57.91 35.46 50.90 31.41 45.59 C 30.23 44.33 29.04 42.09 27.06 42.41 C 21.49 45.04 18.27 50.80 16.78 56.55 C 12.19 59.14 7.09 61.60 4.25 66.26 C 2.15 69.36 0.74 72.88 0.01 76.55 C 5.19 76.52 10.23 75.27 15.25 74.13 C 19.22 73.11 23.36 72.21 26.73 69.76 C 28.58 87.45 34.44 105.77 47.99 118.02 C 59.90 128.54 73.29 138.87 89.37 141.62 C 91.55 135.97 94.90 130.88 97.52 125.43 C 98.54 123.66 99.15 121.27 101.39 120.68 C 98.06 127.45 94.63 134.23 90.77 140.69 C 85.52 145.19 80.98 150.48 77.10 156.19 C 77.14 156.54 77.24 157.23 77.29 157.57 C 85.76 158.29 94.24 154.97 101.01 149.99 C 105.17 147.03 109.64 143.71 115.01 143.88 C 130.81 143.70 146.55 140.86 161.44 135.60 C 173.14 131.13 183.98 123.29 190.18 112.21 C 197.57 99.36 199.51 84.26 200.00 69.68 L 200.00 200.00 L 0.00 200.00 L 0.00 0.00 Z" />
<path fill="#ffffff" opacity="1.00" d=" M 188.00 65.48 C 191.48 61.88 194.66 58.00 197.71 54.03 C 198.55 72.27 197.88 91.36 190.05 108.19 C 192.79 94.07 193.30 79.10 188.00 65.48 Z" />
<path fill="#ffffff" opacity="1.00" d=" M 179.65 73.64 C 181.51 71.89 183.37 70.13 185.23 68.37 C 190.53 84.45 188.57 101.91 183.84 117.86 C 182.69 120.09 180.35 121.37 178.53 122.98 C 182.98 107.01 185.14 89.65 179.65 73.64 Z" />
<path fill="#ffffff" opacity="1.00" d=" M 171.03 80.51 C 172.96 79.13 174.85 77.68 176.72 76.20 C 181.47 92.55 178.86 109.89 174.11 125.91 C 172.53 126.89 170.94 127.85 169.35 128.81 C 173.83 113.19 175.83 96.32 171.03 80.51 Z" />
<path fill="#ffffff" opacity="1.00" d=" M 162.79 86.13 C 164.46 85.03 166.13 83.94 167.81 82.86 C 172.22 98.73 169.65 115.49 165.09 131.01 C 163.20 131.94 161.28 132.82 159.35 133.68 C 163.91 118.36 166.72 101.90 162.79 86.13 Z" />
<path fill="#ffffff" opacity="1.00" d=" M 130.38 88.33 C 132.43 86.28 135.79 89.60 133.59 91.61 C 131.50 93.52 128.44 90.37 130.38 88.33 Z" />
<path fill="#ffffff" opacity="1.00" d=" M 154.37 91.03 C 156.11 90.06 157.85 89.09 159.59 88.12 C 162.94 103.88 159.89 120.10 155.26 135.27 C 153.41 135.88 151.56 136.48 149.71 137.06 C 154.13 122.22 157.32 106.48 154.37 91.03 Z" />
<path fill="#ffffff" opacity="1.00" d=" M 145.67 95.23 C 147.42 94.44 149.17 93.64 150.92 92.84 C 153.48 108.09 150.24 123.54 145.76 138.11 C 143.94 138.51 142.12 138.89 140.30 139.27 C 144.65 125.08 147.88 110.11 145.67 95.23 Z" />
<path fill="#ffffff" opacity="1.00" d=" M 136.92 98.80 C 138.41 97.68 140.43 97.43 142.14 96.71 C 144.07 111.31 140.75 125.90 136.60 139.82 C 133.81 140.23 131.00 140.53 128.18 140.73 C 131.10 126.76 133.87 112.74 136.92 98.80 Z" />
</g>
<g id="#000000ff">
<path fill="#968176" opacity="1.00" d=" M 16.78 56.55 C 18.27 50.80 21.49 45.04 27.06 42.41 C 29.04 42.09 30.23 44.33 31.41 45.59 C 35.46 50.90 33.99 57.91 33.54 64.05 C 33.13 65.65 35.00 66.30 36.01 67.04 C 44.19 71.54 51.31 78.18 60.54 80.58 C 67.51 82.30 74.79 82.43 81.93 82.09 C 119.55 79.20 156.68 68.26 189.43 49.45 C 191.73 48.47 194.97 46.74 197.07 48.96 C 199.61 52.22 199.60 56.62 200.00 60.55 L 200.00 69.68 C 199.51 84.26 197.57 99.36 190.18 112.21 C 183.98 123.29 173.14 131.13 161.44 135.60 C 146.55 140.86 130.81 143.70 115.01 143.88 C 109.64 143.71 105.17 147.03 101.01 149.99 C 94.24 154.97 85.76 158.29 77.29 157.57 C 77.24 157.23 77.14 156.54 77.10 156.19 C 80.98 150.48 85.52 145.19 90.77 140.69 C 94.63 134.23 98.06 127.45 101.39 120.68 C 99.15 121.27 98.54 123.66 97.52 125.43 C 94.90 130.88 91.55 135.97 89.37 141.62 C 73.29 138.87 59.90 128.54 47.99 118.02 C 34.44 105.77 28.58 87.45 26.73 69.76 C 23.36 72.21 19.22 73.11 15.25 74.13 C 10.23 75.27 5.19 76.52 0.01 76.55 C 0.74 72.88 2.15 69.36 4.25 66.26 C 7.09 61.60 12.19 59.14 16.78 56.55 M 188.00 65.48 C 193.30 79.10 192.79 94.07 190.05 108.19 C 197.88 91.36 198.55 72.27 197.71 54.03 C 194.66 58.00 191.48 61.88 188.00 65.48 M 179.65 73.64 C 185.14 89.65 182.98 107.01 178.53 122.98 C 180.35 121.37 182.69 120.09 183.84 117.86 C 188.57 101.91 190.53 84.45 185.23 68.37 C 183.37 70.13 181.51 71.89 179.65 73.64 M 171.03 80.51 C 175.83 96.32 173.83 113.19 169.35 128.81 C 170.94 127.85 172.53 126.89 174.11 125.91 C 178.86 109.89 181.47 92.55 176.72 76.20 C 174.85 77.68 172.96 79.13 171.03 80.51 M 162.79 86.13 C 166.72 101.90 163.91 118.36 159.35 133.68 C 161.28 132.82 163.20 131.94 165.09 131.01 C 169.65 115.49 172.22 98.73 167.81 82.86 C 166.13 83.94 164.46 85.03 162.79 86.13 M 130.38 88.33 C 128.44 90.37 131.50 93.52 133.59 91.61 C 135.79 89.60 132.43 86.28 130.38 88.33 M 154.37 91.03 C 157.32 106.48 154.13 122.22 149.71 137.06 C 151.56 136.48 153.41 135.88 155.26 135.27 C 159.89 120.10 162.94 103.88 159.59 88.12 C 157.85 89.09 156.11 90.06 154.37 91.03 M 145.67 95.23 C 147.88 110.11 144.65 125.08 140.30 139.27 C 142.12 138.89 143.94 138.51 145.76 138.11 C 150.24 123.54 153.48 108.09 150.92 92.84 C 149.17 93.64 147.42 94.44 145.67 95.23 M 136.92 98.80 C 133.87 112.74 131.10 126.76 128.18 140.73 C 131.00 140.53 133.81 140.23 136.60 139.82 C 140.75 125.90 144.07 111.31 142.14 96.71 C 140.43 97.43 138.41 97.68 136.92 98.80 Z" />
</g>
</svg>
