<?xml version="1.0" encoding="UTF-8" ?>
<!DOCTYPE svg PUBLIC "-//W3C//DTD SVG 1.1//EN" "http://www.w3.org/Graphics/SVG/1.1/DTD/svg11.dtd">
<svg width="64pt" height="64pt" viewBox="0 0 64 64" version="1.1" xmlns="http://www.w3.org/2000/svg">
<g id="#ffffffff">
<path fill="#ffffff" opacity="1.00" d=" M 0.00 0.00 L 64.00 0.00 L 64.00 64.00 L 0.00 64.00 L 0.00 0.00 M 48.01 6.00 C 48.01 6.50 47.99 7.50 47.99 8.00 C 43.63 8.05 39.27 7.91 34.91 8.03 C 32.17 7.89 29.63 10.17 29.45 12.90 C 28.88 17.86 28.62 22.85 28.13 27.81 C 24.17 27.54 21.07 31.07 22.15 34.96 C 18.34 36.55 14.82 39.04 12.69 42.64 C 9.67 47.18 9.92 52.80 10.00 58.00 C 24.67 58.00 39.33 58.00 54.00 58.00 C 54.01 53.31 54.38 48.30 52.06 44.02 C 50.03 39.76 46.14 36.71 41.86 34.88 C 42.90 30.99 39.74 27.51 35.80 27.82 C 35.21 22.56 34.60 17.30 34.07 12.04 C 38.71 11.98 43.35 12.00 47.99 12.00 C 47.99 12.50 48.01 13.50 48.01 14.00 C 49.34 14.00 50.67 14.00 52.00 14.00 C 52.00 11.33 52.00 8.67 52.00 6.00 C 50.67 6.00 49.34 6.00 48.01 6.00 Z" />
<path fill="#ffffff" opacity="1.00" d=" M 26.20 32.02 C 30.06 31.99 33.93 31.99 37.79 32.02 C 37.79 32.51 37.79 33.49 37.79 33.98 C 33.93 34.01 30.08 34.01 26.22 33.99 C 26.21 33.49 26.21 32.51 26.20 32.02 Z" />
<path fill="#ffffff" opacity="1.00" d=" M 19.18 41.18 C 24.15 36.93 31.11 38.04 37.13 38.12 C 45.06 38.47 50.81 46.34 50.09 54.00 C 38.03 54.00 25.97 54.00 13.92 54.00 C 13.77 49.23 15.27 44.19 19.18 41.18 M 30.39 42.36 C 27.93 43.37 27.13 46.96 29.16 48.79 C 30.99 50.83 34.59 50.12 35.62 47.62 C 37.30 44.55 33.49 40.68 30.39 42.36 Z" />
</g>
<g id="#000000ff">
<path fill="#000000" opacity="1.00" d=" M 48.01 6.00 C 49.34 6.00 50.67 6.00 52.00 6.00 C 52.00 8.67 52.00 11.33 52.00 14.00 C 50.67 14.00 49.34 14.00 48.01 14.00 C 48.01 13.50 47.99 12.50 47.99 12.00 C 43.35 12.00 38.71 11.98 34.07 12.04 C 34.60 17.30 35.21 22.56 35.80 27.82 C 39.74 27.51 42.90 30.99 41.86 34.88 C 46.14 36.71 50.03 39.76 52.06 44.02 C 54.38 48.30 54.01 53.31 54.00 58.00 C 39.33 58.00 24.67 58.00 10.00 58.00 C 9.92 52.80 9.67 47.18 12.69 42.64 C 14.82 39.04 18.34 36.55 22.15 34.96 C 21.07 31.07 24.17 27.54 28.13 27.81 C 28.62 22.85 28.88 17.86 29.45 12.90 C 29.63 10.17 32.17 7.89 34.91 8.03 C 39.27 7.91 43.63 8.05 47.99 8.00 C 47.99 7.50 48.01 6.50 48.01 6.00 M 26.20 32.02 C 26.21 32.51 26.21 33.49 26.22 33.99 C 30.08 34.01 33.93 34.01 37.79 33.98 C 37.79 33.49 37.79 32.51 37.79 32.02 C 33.93 31.99 30.06 31.99 26.20 32.02 M 19.18 41.18 C 15.27 44.19 13.77 49.23 13.92 54.00 C 25.97 54.00 38.03 54.00 50.09 54.00 C 50.81 46.34 45.06 38.47 37.13 38.12 C 31.11 38.04 24.15 36.93 19.18 41.18 Z" />
<path fill="#000000" opacity="1.00" d=" M 30.39 42.36 C 33.49 40.68 37.30 44.55 35.62 47.62 C 34.59 50.12 30.99 50.83 29.16 48.79 C 27.13 46.96 27.93 43.37 30.39 42.36 Z" />
</g>
</svg>
