<?xml version="1.0" encoding="UTF-8" ?>
<!DOCTYPE svg PUBLIC "-//W3C//DTD SVG 1.1//EN" "http://www.w3.org/Graphics/SVG/1.1/DTD/svg11.dtd">
<svg width="64pt" height="64pt" viewBox="0 0 64 64" version="1.1" xmlns="http://www.w3.org/2000/svg">
<g id="#ffffffff">
<path fill="#ffffff" opacity="1.00" d=" M 0.00 0.00 L 64.00 0.00 L 64.00 64.00 L 0.00 64.00 L 0.00 0.00 M 24.00 2.00 C 24.00 3.28 24.00 4.56 24.00 5.85 C 26.17 6.08 28.34 6.44 30.08 7.86 C 19.51 9.03 9.98 17.24 8.36 27.93 C 6.81 36.42 10.33 45.56 17.16 50.82 C 23.41 55.85 32.26 57.36 39.82 54.66 C 47.22 52.18 53.13 45.80 55.15 38.27 C 57.29 30.63 55.26 22.01 49.95 16.12 C 45.87 11.42 39.93 8.68 33.79 8.00 C 33.57 7.51 33.12 6.52 32.90 6.02 C 34.60 6.05 36.30 6.00 38.00 5.98 C 38.00 4.65 38.00 3.32 38.00 2.00 C 33.33 2.00 28.67 2.00 24.00 2.00 Z" />
<path fill="#ffffff" opacity="1.00" d=" M 16.99 18.64 C 20.71 14.92 25.58 12.20 30.93 12.04 C 36.24 11.63 41.34 13.78 45.43 17.03 C 42.81 18.35 40.20 19.69 37.55 20.98 C 38.23 23.05 38.94 25.11 39.62 27.18 C 38.04 28.24 36.46 29.28 34.89 30.34 C 35.64 31.45 36.38 32.56 37.12 33.68 C 39.53 32.04 41.97 30.45 44.37 28.81 C 43.74 26.87 43.08 24.94 42.45 23.01 C 44.37 22.06 46.28 21.10 48.19 20.14 C 52.17 25.96 53.27 33.80 50.20 40.27 C 47.36 46.81 40.79 51.15 33.81 52.05 C 34.72 50.61 35.63 49.17 36.55 47.73 C 35.14 46.30 33.71 44.88 32.29 43.46 C 32.82 41.85 33.36 40.24 33.90 38.63 C 32.63 38.20 31.37 37.79 30.10 37.37 C 29.30 39.76 28.51 42.15 27.71 44.54 C 28.95 45.77 30.18 47.02 31.43 48.25 C 30.62 49.45 29.83 50.66 29.04 51.87 C 22.77 50.70 16.96 46.81 14.14 40.99 C 11.07 35.15 11.51 27.98 14.47 22.18 C 16.31 22.64 18.15 23.10 19.99 23.55 C 20.01 25.52 19.99 27.49 20.01 29.46 C 22.46 30.27 24.92 31.07 27.36 31.90 C 27.68 30.95 28.32 29.05 28.64 28.10 C 27.09 27.62 25.56 27.08 24.02 26.56 C 23.99 24.52 24.01 22.47 23.98 20.43 C 21.64 19.86 19.31 19.26 16.99 18.64 Z" />
</g>
<g id="#000000ff">
<path fill="#000000" opacity="1.00" d=" M 24.00 2.00 C 28.67 2.00 33.33 2.00 38.00 2.00 C 38.00 3.32 38.00 4.65 38.00 5.98 C 36.30 6.00 34.60 6.05 32.90 6.02 C 33.12 6.52 33.57 7.51 33.79 8.00 C 39.93 8.68 45.87 11.42 49.95 16.12 C 55.26 22.01 57.29 30.63 55.15 38.27 C 53.13 45.80 47.22 52.18 39.82 54.66 C 32.26 57.36 23.41 55.85 17.16 50.82 C 10.33 45.56 6.81 36.42 8.36 27.93 C 9.98 17.24 19.51 9.03 30.08 7.86 C 28.34 6.44 26.17 6.08 24.00 5.85 C 24.00 4.56 24.00 3.28 24.00 2.00 M 16.99 18.64 C 19.31 19.26 21.64 19.86 23.98 20.43 C 24.01 22.47 23.99 24.52 24.02 26.56 C 25.56 27.08 27.09 27.62 28.64 28.10 C 28.32 29.05 27.68 30.95 27.36 31.90 C 24.92 31.07 22.46 30.27 20.01 29.46 C 19.99 27.49 20.01 25.52 19.99 23.55 C 18.15 23.10 16.31 22.64 14.47 22.18 C 11.51 27.98 11.07 35.15 14.14 40.99 C 16.96 46.81 22.77 50.70 29.04 51.87 C 29.83 50.66 30.62 49.45 31.43 48.25 C 30.18 47.02 28.95 45.77 27.71 44.54 C 28.51 42.15 29.30 39.76 30.10 37.37 C 31.37 37.79 32.63 38.20 33.90 38.63 C 33.36 40.24 32.82 41.85 32.29 43.46 C 33.71 44.88 35.14 46.30 36.55 47.73 C 35.63 49.17 34.72 50.61 33.81 52.05 C 40.79 51.15 47.36 46.81 50.20 40.27 C 53.27 33.80 52.17 25.96 48.19 20.14 C 46.28 21.10 44.37 22.06 42.45 23.01 C 43.08 24.94 43.74 26.87 44.37 28.81 C 41.97 30.45 39.53 32.04 37.12 33.68 C 36.38 32.56 35.64 31.45 34.89 30.34 C 36.46 29.28 38.04 28.24 39.62 27.18 C 38.94 25.11 38.23 23.05 37.55 20.98 C 40.20 19.69 42.81 18.35 45.43 17.03 C 41.34 13.78 36.24 11.63 30.93 12.04 C 25.58 12.20 20.71 14.92 16.99 18.64 Z" />
</g>
</svg>
