<?xml version="1.0" encoding="UTF-8" ?>
<!DOCTYPE svg PUBLIC "-//W3C//DTD SVG 1.1//EN" "http://www.w3.org/Graphics/SVG/1.1/DTD/svg11.dtd">
<svg width="60pt" height="60pt" viewBox="0 0 60 60" version="1.1" xmlns="http://www.w3.org/2000/svg">
<g id="#ffffffff">
<path fill="#ffffff" opacity="1.00" d=" M 0.00 0.00 L 60.00 0.00 L 60.00 60.00 L 0.00 60.00 L 0.00 0.00 M 4.78 4.21 C 4.77 7.40 4.77 10.60 4.78 13.79 C 6.72 13.71 8.69 13.88 10.59 13.43 C 13.54 12.31 13.89 8.04 12.25 5.71 C 10.41 3.55 7.24 4.49 4.78 4.21 M 15.00 4.25 C 14.98 7.42 14.98 10.59 15.01 13.76 C 15.61 13.75 16.80 13.72 17.40 13.71 C 17.39 10.57 17.39 7.43 17.40 4.29 C 16.80 4.28 15.60 4.26 15.00 4.25 M 19.64 4.20 C 19.63 7.35 19.63 10.50 19.62 13.66 C 20.15 13.71 21.21 13.82 21.74 13.87 C 22.00 12.42 22.30 10.97 22.63 9.53 C 23.43 10.91 24.21 12.30 24.97 13.70 C 25.85 13.72 26.74 13.74 27.63 13.76 C 27.09 12.71 26.55 11.66 26.01 10.61 C 26.54 9.13 27.88 7.58 27.06 5.95 C 25.50 3.43 22.07 4.55 19.64 4.20 M 29.27 4.26 C 29.27 7.42 29.27 10.58 29.27 13.74 C 31.47 13.74 33.66 13.73 35.85 13.71 C 35.81 13.22 35.74 12.26 35.70 11.78 C 34.70 11.79 32.70 11.81 31.69 11.82 C 31.69 11.22 31.69 10.63 31.69 10.03 C 33.29 9.87 34.88 9.64 36.45 9.35 C 34.70 8.03 32.45 7.82 30.49 6.95 C 32.19 6.41 33.95 6.18 35.71 6.00 C 35.75 5.57 35.82 4.72 35.86 4.29 C 33.66 4.27 31.47 4.26 29.27 4.26 M 40.94 13.91 C 43.48 14.55 45.48 12.67 46.73 10.70 C 46.12 10.55 44.89 10.24 44.28 10.08 C 43.88 10.64 43.07 11.76 42.67 12.32 C 40.31 11.91 39.10 9.42 40.20 7.28 C 41.44 4.31 44.40 7.87 46.30 8.30 C 46.27 5.48 43.68 3.49 40.95 4.07 C 36.16 4.85 36.17 13.12 40.94 13.91 M 46.40 4.69 C 47.31 5.16 49.15 6.11 50.07 6.59 C 50.08 8.97 50.08 11.36 50.09 13.74 C 50.69 13.74 51.89 13.73 52.49 13.72 C 52.48 11.22 52.48 8.71 52.48 6.21 C 53.17 6.20 54.54 6.20 55.23 6.19 C 55.22 5.54 55.22 4.90 55.21 4.25 C 52.27 4.26 49.30 4.13 46.40 4.69 M 3.64 20.55 C 1.36 23.90 2.14 28.14 1.99 31.94 C 2.09 36.20 1.27 41.14 4.48 44.55 C 7.00 47.70 11.22 48.16 14.97 48.09 C 23.12 55.93 36.92 55.80 45.12 48.09 C 50.42 48.69 56.45 46.05 57.66 40.44 C 58.33 35.64 57.93 30.75 57.96 25.91 C 58.06 20.65 53.36 15.94 48.09 16.04 C 36.37 15.94 24.64 16.02 12.91 16.00 C 9.30 15.80 5.59 17.44 3.64 20.55 Z" />
<path fill="#ffffff" opacity="1.00" d=" M 7.31 5.71 C 8.87 6.28 11.03 6.83 10.72 8.98 C 11.02 11.16 8.90 11.71 7.31 12.28 C 7.20 10.09 7.20 7.90 7.31 5.71 Z" />
<path fill="#ffffff" opacity="1.00" d=" M 22.09 5.64 C 23.22 5.90 24.20 6.39 25.02 7.11 C 24.88 8.55 23.27 8.64 22.27 9.22 C 22.22 8.33 22.13 6.54 22.09 5.64 Z" />
<path fill="#ffffff" opacity="1.00" d=" M 30.34 24.03 C 31.21 21.27 34.18 19.71 36.98 20.00 C 40.68 19.99 44.39 19.92 48.10 20.05 C 51.22 19.96 54.02 22.75 53.95 25.87 C 54.06 29.98 54.07 34.09 53.94 38.20 C 53.99 41.30 51.18 44.04 48.09 43.95 C 40.48 43.94 32.84 44.29 25.25 43.69 C 27.13 43.06 29.14 42.03 29.66 39.93 C 30.61 34.69 29.39 29.27 30.34 24.03 M 36.00 25.98 C 36.00 29.98 36.00 33.99 36.00 38.00 C 36.61 38.00 37.82 38.00 38.42 38.00 C 38.42 36.27 38.42 34.54 38.42 32.82 C 39.78 32.80 41.15 32.79 42.51 32.77 C 42.48 32.28 42.44 31.29 42.42 30.80 C 41.09 30.80 39.76 30.80 38.43 30.80 C 38.42 30.13 38.39 28.79 38.38 28.12 C 40.18 27.84 42.85 28.74 43.22 26.22 C 40.82 26.00 38.41 25.98 36.00 25.98 M 43.99 26.14 C 42.75 27.61 45.28 29.24 46.32 27.81 C 47.56 26.39 45.00 24.78 43.99 26.14 M 44.01 29.05 C 44.00 32.03 44.00 35.02 44.00 38.00 C 44.57 38.00 45.72 38.00 46.29 38.00 C 46.29 35.03 46.29 32.05 46.30 29.08 C 45.72 29.07 44.58 29.06 44.01 29.05 Z" />
<path fill="#ffffff" opacity="1.00" d=" M 7.80 25.64 C 8.35 25.83 9.45 26.20 10.00 26.39 C 10.75 29.23 10.98 32.17 11.72 35.01 C 11.80 33.74 11.95 31.20 12.02 29.92 C 12.56 30.70 13.09 31.48 13.62 32.27 C 13.25 34.16 12.93 36.05 12.62 37.95 C 11.96 37.94 10.64 37.93 9.98 37.93 C 9.24 33.83 8.44 29.75 7.80 25.64 Z" />
<path fill="#ffffff" opacity="1.00" d=" M 11.98 29.26 C 11.82 26.95 14.78 24.21 15.92 27.21 L 16.08 28.13 C 16.50 30.90 13.36 30.71 11.98 29.26 Z" />
<path fill="#ffffff" opacity="1.00" d=" M 17.98 26.40 C 18.54 26.21 19.64 25.82 20.20 25.63 C 19.56 29.75 18.75 33.83 18.02 37.93 C 17.36 37.93 16.03 37.94 15.36 37.94 C 15.01 35.73 14.65 33.53 14.28 31.33 C 14.66 31.32 15.43 31.30 15.81 31.29 C 16.09 32.40 16.34 33.51 16.58 34.63 C 17.05 31.89 17.24 29.08 17.98 26.40 Z" />
<path fill="#ffffff" opacity="1.00" d=" M 21.98 26.14 C 23.00 24.79 25.55 26.39 24.32 27.81 C 23.28 29.23 20.74 27.61 21.98 26.14 Z" />
<path fill="#ffffff" opacity="1.00" d=" M 22.01 29.05 C 22.58 29.06 23.72 29.07 24.30 29.08 C 24.29 32.05 24.29 35.03 24.29 38.00 C 23.72 38.00 22.57 38.00 22.00 38.00 C 22.00 35.02 22.00 32.03 22.01 29.05 Z" />
</g>
<g id="#000000ff">
<path fill="#968176" opacity="1.00" d=" M 4.78 4.21 C 7.24 4.49 10.41 3.55 12.25 5.71 C 13.89 8.04 13.54 12.31 10.59 13.43 C 8.69 13.88 6.72 13.71 4.78 13.79 C 4.77 10.60 4.77 7.40 4.78 4.21 M 7.31 5.71 C 7.20 7.90 7.20 10.09 7.31 12.28 C 8.90 11.71 11.02 11.16 10.72 8.98 C 11.03 6.83 8.87 6.28 7.31 5.71 Z" />
<path fill="#968176" opacity="1.00" d=" M 15.00 4.25 C 15.60 4.26 16.80 4.28 17.40 4.29 C 17.39 7.43 17.39 10.57 17.40 13.71 C 16.80 13.72 15.61 13.75 15.01 13.76 C 14.98 10.59 14.98 7.42 15.00 4.25 Z" />
<path fill="#968176" opacity="1.00" d=" M 19.64 4.20 C 22.07 4.55 25.50 3.43 27.06 5.95 C 27.88 7.58 26.54 9.13 26.01 10.61 C 26.55 11.66 27.09 12.71 27.63 13.76 C 26.74 13.74 25.85 13.72 24.97 13.70 C 24.21 12.30 23.43 10.91 22.63 9.53 C 22.30 10.97 22.00 12.42 21.74 13.87 C 21.21 13.82 20.15 13.71 19.62 13.66 C 19.63 10.50 19.63 7.35 19.64 4.20 M 22.09 5.64 C 22.13 6.54 22.22 8.33 22.27 9.22 C 23.27 8.64 24.88 8.55 25.02 7.11 C 24.20 6.39 23.22 5.90 22.09 5.64 Z" />
<path fill="#968176" opacity="1.00" d=" M 29.27 4.26 C 31.47 4.26 33.66 4.27 35.86 4.29 C 35.82 4.72 35.75 5.57 35.71 6.00 C 33.95 6.18 32.19 6.41 30.49 6.95 C 32.45 7.82 34.70 8.03 36.45 9.35 C 34.88 9.64 33.29 9.87 31.69 10.03 C 31.69 10.63 31.69 11.22 31.69 11.82 C 32.70 11.81 34.70 11.79 35.70 11.78 C 35.74 12.26 35.81 13.22 35.85 13.71 C 33.66 13.73 31.47 13.74 29.27 13.74 C 29.27 10.58 29.27 7.42 29.27 4.26 Z" />
<path fill="#968176" opacity="1.00" d=" M 40.94 13.91 C 36.17 13.12 36.16 4.85 40.95 4.07 C 43.68 3.49 46.27 5.48 46.30 8.30 C 44.40 7.87 41.44 4.31 40.20 7.28 C 39.10 9.42 40.31 11.91 42.67 12.32 C 43.07 11.76 43.88 10.64 44.28 10.08 C 44.89 10.24 46.12 10.55 46.73 10.70 C 45.48 12.67 43.48 14.55 40.94 13.91 Z" />
<path fill="#968176" opacity="1.00" d=" M 46.40 4.69 C 49.30 4.13 52.27 4.26 55.21 4.25 C 55.22 4.90 55.22 5.54 55.23 6.19 C 54.54 6.20 53.17 6.20 52.48 6.21 C 52.48 8.71 52.48 11.22 52.49 13.72 C 51.89 13.73 50.69 13.74 50.09 13.74 C 50.08 11.36 50.08 8.97 50.07 6.59 C 49.15 6.11 47.31 5.16 46.40 4.69 Z" />
<path fill="#968176" opacity="1.00" d=" M 3.64 20.55 C 5.59 17.44 9.30 15.80 12.91 16.00 C 24.64 16.02 36.37 15.94 48.09 16.04 C 53.36 15.94 58.06 20.65 57.96 25.91 C 57.93 30.75 58.33 35.64 57.66 40.44 C 56.45 46.05 50.42 48.69 45.12 48.09 C 36.92 55.80 23.12 55.93 14.97 48.09 C 11.22 48.16 7.00 47.70 4.48 44.55 C 1.27 41.14 2.09 36.20 1.99 31.94 C 2.14 28.14 1.36 23.90 3.64 20.55 M 30.34 24.03 C 29.39 29.27 30.61 34.69 29.66 39.93 C 29.14 42.03 27.13 43.06 25.25 43.69 C 32.84 44.29 40.48 43.94 48.09 43.95 C 51.18 44.04 53.99 41.30 53.94 38.20 C 54.07 34.09 54.06 29.98 53.95 25.87 C 54.02 22.75 51.22 19.96 48.10 20.05 C 44.39 19.92 40.68 19.99 36.98 20.00 C 34.18 19.71 31.21 21.27 30.34 24.03 M 7.80 25.64 C 8.44 29.75 9.24 33.83 9.98 37.93 C 10.64 37.93 11.96 37.94 12.62 37.95 C 12.93 36.05 13.25 34.16 13.62 32.27 C 13.09 31.48 12.56 30.70 12.02 29.92 C 11.95 31.20 11.80 33.74 11.72 35.01 C 10.98 32.17 10.75 29.23 10.00 26.39 C 9.45 26.20 8.35 25.83 7.80 25.64 M 11.98 29.26 C 13.36 30.71 16.50 30.90 16.08 28.13 L 15.92 27.21 C 14.78 24.21 11.82 26.95 11.98 29.26 M 17.98 26.40 C 17.24 29.08 17.05 31.89 16.58 34.63 C 16.34 33.51 16.09 32.40 15.81 31.29 C 15.43 31.30 14.66 31.32 14.28 31.33 C 14.65 33.53 15.01 35.73 15.36 37.94 C 16.03 37.94 17.36 37.93 18.02 37.93 C 18.75 33.83 19.56 29.75 20.20 25.63 C 19.64 25.82 18.54 26.21 17.98 26.40 M 21.98 26.14 C 20.74 27.61 23.28 29.23 24.32 27.81 C 25.55 26.39 23.00 24.79 21.98 26.14 M 22.01 29.05 C 22.00 32.03 22.00 35.02 22.00 38.00 C 22.57 38.00 23.72 38.00 24.29 38.00 C 24.29 35.03 24.29 32.05 24.30 29.08 C 23.72 29.07 22.58 29.06 22.01 29.05 Z" />
<path fill="#968176" opacity="1.00" d=" M 36.00 25.98 C 38.41 25.98 40.82 26.00 43.22 26.22 C 42.85 28.74 40.18 27.84 38.38 28.12 C 38.39 28.79 38.42 30.13 38.43 30.80 C 39.76 30.80 41.09 30.80 42.42 30.80 C 42.44 31.29 42.48 32.28 42.51 32.77 C 41.15 32.79 39.78 32.80 38.42 32.82 C 38.42 34.54 38.42 36.27 38.42 38.00 C 37.82 38.00 36.61 38.00 36.00 38.00 C 36.00 33.99 36.00 29.98 36.00 25.98 Z" />
<path fill="#968176" opacity="1.00" d=" M 43.99 26.14 C 45.00 24.78 47.56 26.39 46.32 27.81 C 45.28 29.24 42.75 27.61 43.99 26.14 Z" />
<path fill="#968176" opacity="1.00" d=" M 44.01 29.05 C 44.58 29.06 45.72 29.07 46.30 29.08 C 46.29 32.05 46.29 35.03 46.29 38.00 C 45.72 38.00 44.57 38.00 44.00 38.00 C 44.00 35.02 44.00 32.03 44.01 29.05 Z" />
</g>
</svg>
