<?xml version="1.0" encoding="UTF-8" ?>
<!DOCTYPE svg PUBLIC "-//W3C//DTD SVG 1.1//EN" "http://www.w3.org/Graphics/SVG/1.1/DTD/svg11.dtd">
<svg width="60pt" height="60pt" viewBox="0 0 60 60" version="1.1" xmlns="http://www.w3.org/2000/svg">
<g id="#ffffffff">
<path fill="#ffffff" opacity="1.00" d=" M 0.00 0.00 L 60.00 0.00 L 60.00 60.00 L 0.00 60.00 L 0.00 0.00 M 33.86 5.12 C 32.08 7.91 36.08 9.78 36.77 12.34 C 39.55 18.02 37.25 24.46 33.32 28.93 C 33.51 33.32 38.15 30.40 38.99 27.92 C 43.26 21.64 42.86 12.70 38.09 6.80 C 37.13 5.52 35.56 3.79 33.86 5.12 M 8.07 8.00 C 7.88 17.24 8.08 26.48 7.99 35.72 C 6.42 36.42 4.45 37.12 4.13 39.08 C 3.88 42.35 3.88 45.66 4.14 48.93 C 4.53 51.11 6.89 52.22 8.94 52.00 C 22.99 52.00 37.04 52.01 51.09 52.00 C 53.14 52.24 55.34 51.07 55.86 48.98 C 56.13 45.95 56.08 42.90 55.94 39.86 C 55.97 37.83 54.12 35.94 52.06 36.05 C 42.71 35.92 33.35 36.04 24.00 36.00 C 24.00 30.65 23.99 25.29 24.02 19.94 C 23.88 18.57 24.31 16.77 22.75 16.06 C 21.48 15.66 19.89 16.54 20.07 17.99 C 19.87 23.99 20.07 30.00 20.00 36.00 C 17.33 36.00 14.67 36.00 12.00 36.00 C 12.01 27.31 11.98 18.62 12.02 9.93 C 11.89 8.58 12.27 6.90 10.86 6.09 C 9.57 5.64 7.88 6.48 8.07 8.00 M 28.10 10.90 C 26.70 13.09 29.67 14.82 29.90 16.94 C 30.68 19.67 28.21 21.59 27.63 24.03 C 27.93 25.92 30.56 26.18 31.46 24.62 C 34.74 21.03 34.79 14.99 31.47 11.41 C 30.54 10.15 29.41 9.98 28.10 10.90 Z" />
<path fill="#ffffff" opacity="1.00" d=" M 9.19 42.10 C 11.60 41.16 13.14 44.81 10.81 45.89 C 8.39 46.86 6.85 43.16 9.19 42.10 Z" />
<path fill="#ffffff" opacity="1.00" d=" M 17.17 42.12 C 19.60 41.09 21.18 44.91 18.74 45.91 C 16.35 46.80 14.89 43.17 17.17 42.12 Z" />
</g>
<g id="#000000ff">
<path fill="#000000" opacity="1.00" d=" M 33.86 5.12 C 35.56 3.79 37.13 5.52 38.09 6.80 C 42.86 12.70 43.26 21.64 38.99 27.92 C 38.15 30.40 33.51 33.32 33.32 28.93 C 37.25 24.46 39.55 18.02 36.77 12.34 C 36.08 9.78 32.08 7.91 33.86 5.12 Z" />
<path fill="#000000" opacity="1.00" d=" M 8.07 8.00 C 7.88 6.48 9.57 5.64 10.86 6.09 C 12.27 6.90 11.89 8.58 12.02 9.93 C 11.98 18.62 12.01 27.31 12.00 36.00 C 14.67 36.00 17.33 36.00 20.00 36.00 C 20.07 30.00 19.87 23.99 20.07 17.99 C 19.89 16.54 21.48 15.66 22.75 16.06 C 24.31 16.77 23.88 18.57 24.02 19.94 C 23.99 25.29 24.00 30.65 24.00 36.00 C 33.35 36.04 42.71 35.92 52.06 36.05 C 54.12 35.94 55.97 37.83 55.94 39.86 C 56.08 42.90 56.13 45.95 55.86 48.98 C 55.34 51.07 53.14 52.24 51.09 52.00 C 37.04 52.01 22.99 52.00 8.94 52.00 C 6.89 52.22 4.53 51.11 4.14 48.93 C 3.88 45.66 3.88 42.35 4.13 39.08 C 4.45 37.12 6.42 36.42 7.99 35.72 C 8.08 26.48 7.88 17.24 8.07 8.00 M 9.19 42.10 C 6.85 43.16 8.39 46.86 10.81 45.89 C 13.14 44.81 11.60 41.16 9.19 42.10 M 17.17 42.12 C 14.89 43.17 16.35 46.80 18.74 45.91 C 21.18 44.91 19.60 41.09 17.17 42.12 Z" />
<path fill="#000000" opacity="1.00" d=" M 28.10 10.90 C 29.41 9.98 30.54 10.15 31.47 11.41 C 34.79 14.99 34.74 21.03 31.46 24.62 C 30.56 26.18 27.93 25.92 27.63 24.03 C 28.21 21.59 30.68 19.67 29.90 16.94 C 29.67 14.82 26.70 13.09 28.10 10.90 Z" />
</g>
</svg>
