<?xml version="1.0" encoding="UTF-8" ?>
<!DOCTYPE svg PUBLIC "-//W3C//DTD SVG 1.1//EN" "http://www.w3.org/Graphics/SVG/1.1/DTD/svg11.dtd">
<svg width="60pt" height="60pt" viewBox="0 0 60 60" version="1.1" xmlns="http://www.w3.org/2000/svg">
<g id="#ffffffff">
<path fill="#ffffff" opacity="1.00" d=" M 0.00 0.00 L 60.00 0.00 L 60.00 60.00 L 0.00 60.00 L 0.00 0.00 M 1.68 21.69 C 4.03 24.04 6.39 26.39 8.74 28.74 C 14.18 23.60 21.36 20.20 28.91 20.04 C 37.19 19.62 45.31 23.08 51.26 28.75 C 53.60 26.39 55.96 24.05 58.31 21.70 C 51.32 14.83 41.87 10.48 32.04 10.09 C 20.85 9.39 9.66 13.88 1.68 21.69 M 11.60 31.55 C 13.92 33.93 16.28 36.27 18.63 38.61 C 22.07 35.69 26.43 33.57 31.06 34.04 C 34.98 34.14 38.42 36.24 41.39 38.61 C 43.74 36.26 46.09 33.92 48.42 31.57 C 43.72 27.17 37.58 24.21 31.08 24.04 C 23.86 23.63 16.79 26.63 11.60 31.55 M 21.42 41.35 C 24.26 44.26 27.16 47.10 30.00 50.00 C 32.85 47.14 35.71 44.30 38.55 41.43 C 33.83 36.95 26.23 37.08 21.42 41.35 Z" />
</g>
<g id="#000000ff">
<path fill="#000000" opacity="1.00" d=" M 1.68 21.69 C 9.66 13.88 20.85 9.39 32.04 10.09 C 41.87 10.48 51.32 14.83 58.31 21.70 C 55.96 24.05 53.60 26.39 51.26 28.75 C 45.31 23.08 37.19 19.62 28.91 20.04 C 21.36 20.20 14.18 23.60 8.74 28.74 C 6.39 26.39 4.03 24.04 1.68 21.69 Z" />
<path fill="#000000" opacity="1.00" d=" M 11.60 31.55 C 16.79 26.63 23.86 23.63 31.08 24.04 C 37.58 24.21 43.72 27.17 48.42 31.57 C 46.09 33.92 43.74 36.26 41.39 38.61 C 38.42 36.24 34.98 34.14 31.06 34.04 C 26.43 33.57 22.07 35.69 18.63 38.61 C 16.28 36.27 13.92 33.93 11.60 31.55 Z" />
<path fill="#000000" opacity="1.00" d=" M 21.42 41.35 C 26.23 37.08 33.83 36.95 38.55 41.43 C 35.71 44.30 32.85 47.14 30.00 50.00 C 27.16 47.10 24.26 44.26 21.42 41.35 Z" />
</g>
</svg>
