<?xml version="1.0" encoding="UTF-8" ?>
<!DOCTYPE svg PUBLIC "-//W3C//DTD SVG 1.1//EN" "http://www.w3.org/Graphics/SVG/1.1/DTD/svg11.dtd">
<svg width="60pt" height="60pt" viewBox="0 0 60 60" version="1.1" xmlns="http://www.w3.org/2000/svg">
<g id="#ffffffff">
<path fill="#ffffff" opacity="1.00" d=" M 0.00 0.00 L 60.00 0.00 L 60.00 60.00 L 0.00 60.00 L 0.00 0.00 M 3.15 0.67 C 2.41 1.47 1.69 2.30 1.00 3.15 C 1.00 4.38 2.42 5.02 3.08 5.93 C 20.10 22.93 37.13 39.92 54.11 56.96 C 54.99 57.66 55.65 58.92 56.85 59.06 C 57.69 58.22 60.04 56.90 58.46 55.64 C 52.82 49.91 47.07 44.29 41.42 38.56 C 43.75 36.26 46.05 33.93 48.39 31.64 C 42.87 26.07 34.81 23.28 27.02 24.16 C 25.85 23.02 24.70 21.87 23.56 20.71 C 33.41 18.47 44.08 21.69 51.23 28.76 C 53.59 26.41 55.94 24.06 58.29 21.71 C 47.42 10.66 29.97 6.98 15.55 12.71 C 11.37 8.74 7.61 4.32 3.15 0.67 M 1.71 21.66 C 4.03 24.07 6.41 26.41 8.77 28.78 C 10.83 26.92 13.04 25.25 15.39 23.80 C 12.97 21.37 10.55 18.94 8.14 16.52 C 5.88 18.09 3.75 19.82 1.71 21.66 M 18.30 26.73 C 15.91 28.13 13.60 29.67 11.62 31.63 C 13.98 33.93 16.28 36.30 18.62 38.62 C 20.81 36.72 23.34 35.32 26.08 34.40 C 23.45 31.88 20.90 29.28 18.30 26.73 M 21.46 41.38 C 24.26 44.30 27.18 47.10 30.00 50.00 C 31.94 48.06 33.88 46.12 35.81 44.18 C 33.74 42.10 31.63 40.05 29.58 37.94 C 26.56 38.23 23.83 39.54 21.46 41.38 Z" />
</g>
<g id="#000000ff">
<path fill="#968176" opacity="1.00" d=" M 3.15 0.67 C 7.61 4.32 11.37 8.74 15.55 12.71 C 29.97 6.98 47.42 10.66 58.29 21.71 C 55.94 24.06 53.59 26.41 51.23 28.76 C 44.08 21.69 33.41 18.47 23.56 20.71 C 24.70 21.87 25.85 23.02 27.02 24.16 C 34.81 23.28 42.87 26.07 48.39 31.64 C 46.05 33.93 43.75 36.26 41.42 38.56 C 47.07 44.29 52.82 49.91 58.46 55.64 C 60.04 56.90 57.69 58.22 56.85 59.06 C 55.65 58.92 54.99 57.66 54.11 56.96 C 37.13 39.92 20.10 22.93 3.08 5.93 C 2.42 5.02 1.00 4.38 1.00 3.15 C 1.69 2.30 2.41 1.47 3.15 0.67 Z" />
<path fill="#968176" opacity="1.00" d=" M 1.71 21.66 C 3.75 19.82 5.88 18.09 8.14 16.52 C 10.55 18.94 12.97 21.37 15.39 23.80 C 13.04 25.25 10.83 26.92 8.77 28.78 C 6.41 26.41 4.03 24.07 1.71 21.66 Z" />
<path fill="#968176" opacity="1.00" d=" M 18.30 26.73 C 20.90 29.28 23.45 31.88 26.08 34.40 C 23.34 35.32 20.81 36.72 18.62 38.62 C 16.28 36.30 13.98 33.93 11.62 31.63 C 13.60 29.67 15.91 28.13 18.30 26.73 Z" />
<path fill="#968176" opacity="1.00" d=" M 21.46 41.38 C 23.83 39.54 26.56 38.23 29.58 37.94 C 31.63 40.05 33.74 42.10 35.81 44.18 C 33.88 46.12 31.94 48.06 30.00 50.00 C 27.18 47.10 24.26 44.30 21.46 41.38 Z" />
</g>
</svg>
