<?xml version="1.0" encoding="UTF-8" ?>
<!DOCTYPE svg PUBLIC "-//W3C//DTD SVG 1.1//EN" "http://www.w3.org/Graphics/SVG/1.1/DTD/svg11.dtd">
<svg width="60pt" height="60pt" viewBox="0 0 60 60" version="1.1" xmlns="http://www.w3.org/2000/svg">
<g id="#ffffffff">
<path fill="#ffffff" opacity="1.00" d=" M 0.00 0.00 L 60.00 0.00 L 60.00 60.00 L 0.00 60.00 L 0.00 0.00 M 39.78 6.86 C 36.50 7.83 34.90 11.05 33.88 14.05 C 36.90 14.42 39.97 14.41 42.87 13.41 C 42.78 15.37 42.76 17.33 42.78 19.28 C 45.79 17.29 47.69 14.16 48.65 10.74 C 48.35 13.16 48.22 15.58 48.02 18.00 C 50.00 18.00 51.97 18.00 53.95 18.00 C 53.60 14.01 53.57 9.99 53.94 6.00 C 49.23 6.16 44.36 5.53 39.78 6.86 M 17.48 14.77 C 15.76 13.23 13.61 11.30 11.10 12.20 C 5.81 13.84 3.84 22.39 9.62 24.81 C 7.52 30.57 6.92 37.80 11.31 42.68 C 16.51 48.42 24.28 51.74 31.98 51.96 C 36.99 52.14 41.08 48.77 44.43 45.43 C 44.37 43.38 44.30 41.32 44.23 39.27 C 41.43 42.77 38.37 46.71 33.80 47.81 C 29.56 48.37 25.29 47.08 21.49 45.28 C 17.83 43.40 13.92 40.90 12.50 36.82 C 10.97 30.97 13.29 24.59 17.30 20.24 C 20.47 16.60 25.59 16.32 29.91 14.91 C 30.13 13.50 30.40 12.10 30.71 10.71 C 26.21 11.72 21.65 12.74 17.48 14.77 M 48.07 22.00 C 48.48 25.99 48.45 30.01 48.05 34.00 C 50.02 34.00 51.99 34.00 53.95 34.00 C 53.60 30.01 53.56 25.99 53.94 22.00 C 51.98 22.00 50.02 22.00 48.07 22.00 M 33.37 23.38 C 30.01 25.04 30.58 29.83 32.80 32.22 C 34.84 34.99 39.82 36.48 42.05 33.16 C 44.86 28.13 38.71 21.17 33.37 23.38 M 20.40 27.30 C 16.55 30.08 16.19 37.46 20.98 39.44 C 26.25 40.64 29.35 33.64 27.38 29.45 C 26.46 26.64 22.73 25.28 20.40 27.30 M 28.42 39.97 C 29.18 41.90 31.10 42.91 33.03 43.31 C 35.09 42.45 35.56 40.06 35.92 38.11 C 33.43 38.77 30.95 39.47 28.42 39.97 M 48.07 38.00 C 48.49 41.99 48.44 46.01 48.05 50.00 C 50.02 50.00 51.99 50.00 53.95 50.00 C 53.59 46.01 53.57 41.99 53.94 38.00 C 51.98 38.00 50.02 38.00 48.07 38.00 Z" />
<path fill="#ffffff" opacity="1.00" d=" M 33.49 27.47 C 35.09 25.24 38.15 28.63 35.97 30.04 C 34.44 31.54 31.83 28.83 33.49 27.47 Z" />
<path fill="#ffffff" opacity="1.00" d=" M 22.62 33.30 C 22.71 32.24 22.08 30.86 23.16 30.11 C 24.64 28.73 27.05 31.14 25.72 32.65 C 25.04 33.71 23.63 33.11 22.62 33.30 Z" />
</g>
<g id="#000000ff">
<path fill="#000000" opacity="1.00" d=" M 39.78 6.86 C 44.36 5.53 49.23 6.16 53.94 6.00 C 53.57 9.99 53.60 14.01 53.95 18.00 C 51.97 18.00 50.00 18.00 48.02 18.00 C 48.22 15.58 48.35 13.16 48.65 10.74 C 47.69 14.16 45.79 17.29 42.78 19.28 C 42.76 17.33 42.78 15.37 42.87 13.41 C 39.97 14.41 36.90 14.42 33.88 14.05 C 34.90 11.05 36.50 7.83 39.78 6.86 Z" />
<path fill="#000000" opacity="1.00" d=" M 17.48 14.77 C 21.65 12.74 26.21 11.72 30.71 10.71 C 30.40 12.10 30.13 13.50 29.91 14.91 C 25.59 16.32 20.47 16.60 17.30 20.24 C 13.29 24.59 10.97 30.97 12.50 36.82 C 13.92 40.90 17.83 43.40 21.49 45.28 C 25.29 47.08 29.56 48.37 33.80 47.81 C 38.37 46.71 41.43 42.77 44.23 39.27 C 44.30 41.32 44.37 43.38 44.43 45.43 C 41.08 48.77 36.99 52.14 31.98 51.96 C 24.28 51.74 16.51 48.42 11.31 42.68 C 6.92 37.80 7.52 30.57 9.62 24.81 C 3.84 22.39 5.81 13.84 11.10 12.20 C 13.61 11.30 15.76 13.23 17.48 14.77 Z" />
<path fill="#000000" opacity="1.00" d=" M 48.07 22.00 C 50.02 22.00 51.98 22.00 53.94 22.00 C 53.56 25.99 53.60 30.01 53.95 34.00 C 51.99 34.00 50.02 34.00 48.05 34.00 C 48.45 30.01 48.48 25.99 48.07 22.00 Z" />
<path fill="#000000" opacity="1.00" d=" M 33.37 23.38 C 38.71 21.17 44.86 28.13 42.05 33.16 C 39.82 36.48 34.84 34.99 32.80 32.22 C 30.58 29.83 30.01 25.04 33.37 23.38 M 33.49 27.47 C 31.83 28.83 34.44 31.54 35.97 30.04 C 38.15 28.63 35.09 25.24 33.49 27.47 Z" />
<path fill="#000000" opacity="1.00" d=" M 20.40 27.30 C 22.73 25.28 26.46 26.64 27.38 29.45 C 29.35 33.64 26.25 40.64 20.98 39.44 C 16.19 37.46 16.55 30.08 20.40 27.30 M 22.62 33.30 C 23.63 33.11 25.04 33.71 25.72 32.65 C 27.05 31.14 24.64 28.73 23.16 30.11 C 22.08 30.86 22.71 32.24 22.62 33.30 Z" />
<path fill="#000000" opacity="1.00" d=" M 28.42 39.97 C 30.95 39.47 33.43 38.77 35.92 38.11 C 35.56 40.06 35.09 42.45 33.03 43.31 C 31.10 42.91 29.18 41.90 28.42 39.97 Z" />
<path fill="#000000" opacity="1.00" d=" M 48.07 38.00 C 50.02 38.00 51.98 38.00 53.94 38.00 C 53.57 41.99 53.59 46.01 53.95 50.00 C 51.99 50.00 50.02 50.00 48.05 50.00 C 48.44 46.01 48.49 41.99 48.07 38.00 Z" />
</g>
</svg>
