<?xml version="1.0" encoding="UTF-8" ?>
<!DOCTYPE svg PUBLIC "-//W3C//DTD SVG 1.1//EN" "http://www.w3.org/Graphics/SVG/1.1/DTD/svg11.dtd">
<svg width="64pt" height="64pt" viewBox="0 0 64 64" version="1.1" xmlns="http://www.w3.org/2000/svg">
<g id="#ffffffff">
<path fill="#ffffff" opacity="1.00" d=" M 0.00 0.00 L 64.00 0.00 L 64.00 64.00 L 0.00 64.00 L 0.00 0.00 M 13.64 21.15 C 16.15 22.27 18.78 23.11 21.45 23.77 C 17.67 27.58 13.86 31.36 10.12 35.21 C 12.11 36.04 14.12 36.80 16.16 37.51 C 12.95 40.69 9.77 43.91 6.60 47.14 C 12.01 49.89 18.03 50.99 24.00 51.66 C 24.00 53.78 24.00 55.89 24.00 58.00 C 25.33 58.00 26.67 58.00 28.00 58.00 C 28.00 55.99 28.00 53.97 28.00 51.96 C 29.33 51.97 30.65 51.97 31.98 51.97 C 31.99 53.98 32.00 55.99 32.01 58.00 C 33.34 58.00 34.67 58.00 36.00 58.00 C 36.00 57.52 35.98 56.57 35.98 56.09 C 41.56 58.79 48.76 58.75 53.73 54.77 C 57.95 51.36 59.09 45.11 56.82 40.26 C 53.86 33.73 49.03 28.28 44.07 23.20 C 42.86 24.36 41.66 25.53 40.45 26.68 C 39.47 25.71 38.48 24.73 37.50 23.76 C 40.17 23.11 42.79 22.27 45.30 21.14 C 40.07 15.77 34.75 10.49 29.48 5.16 C 24.21 10.50 18.91 15.81 13.64 21.15 Z" />
<path fill="#ffffff" opacity="1.00" d=" M 20.78 19.66 C 23.66 16.70 26.59 13.79 29.49 10.84 C 32.40 13.76 35.31 16.67 38.17 19.65 C 32.45 21.08 26.50 21.06 20.78 19.66 Z" />
<path fill="#ffffff" opacity="1.00" d=" M 17.22 33.77 C 21.23 29.56 25.40 25.49 29.48 21.34 C 32.22 24.10 34.97 26.86 37.71 29.63 C 33.50 34.83 29.19 40.96 30.10 48.03 C 24.54 47.95 18.94 47.49 13.61 45.78 C 17.03 42.25 20.50 38.78 23.98 35.31 C 21.72 34.82 19.47 34.31 17.22 33.77 Z" />
<path fill="#ffffff" opacity="1.00" d=" M 34.18 44.02 C 35.62 38.05 39.76 33.22 43.94 28.90 C 48.03 33.45 52.16 38.36 53.83 44.36 C 54.52 47.01 53.07 49.47 51.68 51.60 C 51.60 44.56 48.41 37.97 43.18 33.31 C 43.31 36.64 43.33 39.98 42.97 43.29 C 41.99 41.93 41.03 40.56 40.07 39.20 C 37.85 43.06 36.79 47.41 36.51 51.83 C 34.88 49.59 33.43 46.89 34.18 44.02 Z" />
<path fill="#ffffff" opacity="1.00" d=" M 40.96 47.30 C 43.21 47.70 45.38 47.11 46.83 45.25 C 47.05 47.17 47.48 49.09 47.43 51.04 C 47.29 53.70 43.70 54.90 41.83 53.14 C 40.15 51.67 41.03 49.22 40.96 47.30 Z" />
</g>
<g id="#000000ff">
<path fill="#000000" opacity="1.00" d=" M 13.64 21.15 C 18.91 15.81 24.21 10.50 29.48 5.16 C 34.75 10.49 40.07 15.77 45.30 21.14 C 42.79 22.27 40.17 23.11 37.50 23.76 C 38.48 24.73 39.47 25.71 40.45 26.68 C 41.66 25.53 42.86 24.36 44.07 23.20 C 49.03 28.28 53.86 33.73 56.82 40.26 C 59.09 45.11 57.95 51.36 53.73 54.77 C 48.76 58.75 41.56 58.79 35.98 56.09 C 35.98 56.57 36.00 57.52 36.00 58.00 C 34.67 58.00 33.34 58.00 32.01 58.00 C 32.00 55.99 31.99 53.98 31.98 51.97 C 30.65 51.97 29.33 51.97 28.00 51.96 C 28.00 53.97 28.00 55.99 28.00 58.00 C 26.67 58.00 25.33 58.00 24.00 58.00 C 24.00 55.89 24.00 53.78 24.00 51.66 C 18.03 50.99 12.01 49.89 6.60 47.14 C 9.77 43.91 12.95 40.69 16.16 37.51 C 14.12 36.80 12.11 36.04 10.12 35.21 C 13.86 31.36 17.67 27.58 21.45 23.77 C 18.78 23.11 16.15 22.27 13.64 21.15 M 20.78 19.66 C 26.50 21.06 32.45 21.08 38.17 19.65 C 35.31 16.67 32.40 13.76 29.49 10.84 C 26.59 13.79 23.66 16.70 20.78 19.66 M 17.22 33.77 C 19.47 34.31 21.72 34.82 23.98 35.31 C 20.50 38.78 17.03 42.25 13.61 45.78 C 18.94 47.49 24.54 47.95 30.10 48.03 C 29.19 40.96 33.50 34.83 37.71 29.63 C 34.97 26.86 32.22 24.10 29.48 21.34 C 25.40 25.49 21.23 29.56 17.22 33.77 M 34.18 44.02 C 33.43 46.89 34.88 49.59 36.51 51.83 C 36.79 47.41 37.85 43.06 40.07 39.20 C 41.03 40.56 41.99 41.93 42.97 43.29 C 43.33 39.98 43.31 36.64 43.18 33.31 C 48.41 37.97 51.60 44.56 51.68 51.60 C 53.07 49.47 54.52 47.01 53.83 44.36 C 52.16 38.36 48.03 33.45 43.94 28.90 C 39.76 33.22 35.62 38.05 34.18 44.02 M 40.96 47.30 C 41.03 49.22 40.15 51.67 41.83 53.14 C 43.70 54.90 47.29 53.70 47.43 51.04 C 47.48 49.09 47.05 47.17 46.83 45.25 C 45.38 47.11 43.21 47.70 40.96 47.30 Z" />
</g>
</svg>
