<?xml version="1.0" encoding="UTF-8" ?>
<!DOCTYPE svg PUBLIC "-//W3C//DTD SVG 1.1//EN" "http://www.w3.org/Graphics/SVG/1.1/DTD/svg11.dtd">
<svg width="60pt" height="60pt" viewBox="0 0 60 60" version="1.1" xmlns="http://www.w3.org/2000/svg">
<g id="#ffffffff">
<path fill="#ffffff" opacity="1.00" d=" M 0.00 0.00 L 60.00 0.00 L 60.00 60.00 L 0.00 60.00 L 0.00 0.00 M 15.85 16.11 C 16.12 16.54 16.67 17.41 16.94 17.84 C 15.70 19.63 14.31 21.32 13.22 23.20 C 12.36 24.63 14.00 25.79 15.07 26.36 C 13.40 28.65 11.62 30.86 10.16 33.29 C 9.37 35.25 11.61 36.25 13.21 36.19 C 11.51 38.48 9.72 40.72 8.24 43.16 C 7.46 44.25 8.59 46.17 9.96 45.95 C 13.30 46.10 16.65 45.95 20.00 46.00 C 20.04 48.26 19.83 50.55 20.18 52.79 C 20.75 54.36 23.20 54.39 23.80 52.83 C 24.55 46.94 23.05 40.75 25.17 35.05 C 26.58 31.05 29.32 27.75 31.39 24.10 C 30.04 21.96 28.57 19.91 27.07 17.87 C 27.34 17.42 27.87 16.53 28.14 16.08 C 26.56 12.88 25.21 9.45 22.99 6.65 C 22.49 6.65 21.50 6.65 21.00 6.65 C 18.80 9.48 17.42 12.90 15.85 16.11 M 36.00 17.79 C 35.68 20.19 35.49 22.63 34.68 24.94 C 33.13 29.85 29.19 33.71 28.29 38.87 C 26.92 44.63 30.23 51.09 35.77 53.23 C 42.17 55.86 50.23 51.81 51.61 44.95 C 52.72 38.40 50.73 31.69 48.06 25.74 C 46.54 27.03 45.70 30.54 43.22 29.72 C 41.44 25.48 40.79 19.81 36.00 17.79 Z" />
<path fill="#ffffff" opacity="1.00" d=" M 42.10 36.03 C 43.32 39.55 44.25 43.30 43.86 47.05 C 43.21 49.87 39.17 51.00 37.24 48.76 C 34.74 46.33 36.67 42.73 37.80 40.15 C 38.46 40.83 39.11 41.53 39.87 42.10 C 42.09 41.07 41.58 38.05 42.10 36.03 Z" />
</g>
<g id="#000000ff">
<path fill="#000000" opacity="1.00" d=" M 15.85 16.11 C 17.42 12.90 18.80 9.48 21.00 6.65 C 21.50 6.65 22.49 6.65 22.99 6.65 C 25.21 9.45 26.56 12.88 28.14 16.08 C 27.87 16.53 27.34 17.42 27.07 17.87 C 28.57 19.91 30.04 21.96 31.39 24.10 C 29.32 27.75 26.58 31.05 25.17 35.05 C 23.05 40.75 24.55 46.94 23.80 52.83 C 23.20 54.39 20.75 54.36 20.18 52.79 C 19.83 50.55 20.04 48.26 20.00 46.00 C 16.65 45.95 13.30 46.10 9.96 45.95 C 8.59 46.17 7.46 44.25 8.24 43.16 C 9.72 40.72 11.51 38.48 13.21 36.19 C 11.61 36.25 9.37 35.25 10.16 33.29 C 11.62 30.86 13.40 28.65 15.07 26.36 C 14.00 25.79 12.36 24.63 13.22 23.20 C 14.31 21.32 15.70 19.63 16.94 17.84 C 16.67 17.41 16.12 16.54 15.85 16.11 Z" />
<path fill="#000000" opacity="1.00" d=" M 36.00 17.79 C 40.79 19.81 41.44 25.48 43.22 29.72 C 45.70 30.54 46.54 27.03 48.06 25.74 C 50.73 31.69 52.72 38.40 51.61 44.95 C 50.23 51.81 42.17 55.86 35.77 53.23 C 30.23 51.09 26.92 44.63 28.29 38.87 C 29.19 33.71 33.13 29.85 34.68 24.94 C 35.49 22.63 35.68 20.19 36.00 17.79 M 42.10 36.03 C 41.58 38.05 42.09 41.07 39.87 42.10 C 39.11 41.53 38.46 40.83 37.80 40.15 C 36.67 42.73 34.74 46.33 37.24 48.76 C 39.17 51.00 43.21 49.87 43.86 47.05 C 44.25 43.30 43.32 39.55 42.10 36.03 Z" />
</g>
</svg>
