<?xml version="1.0" encoding="UTF-8" ?>
<!DOCTYPE svg PUBLIC "-//W3C//DTD SVG 1.1//EN" "http://www.w3.org/Graphics/SVG/1.1/DTD/svg11.dtd">
<svg width="60pt" height="60pt" viewBox="0 0 60 60" version="1.1" xmlns="http://www.w3.org/2000/svg">
<g id="#ffffffff">
<path fill="#ffffff" opacity="1.00" d=" M 0.00 0.00 L 60.00 0.00 L 60.00 60.00 L 0.00 60.00 L 0.00 0.00 M 6.14 9.07 C 5.32 11.38 8.09 12.78 7.99 14.97 C 8.09 27.32 7.87 39.68 8.08 52.03 C 7.89 54.08 10.99 54.75 11.77 52.90 C 12.33 48.08 11.82 43.19 12.02 38.35 C 14.44 37.45 14.46 34.54 12.02 33.65 C 11.99 29.89 11.98 26.12 12.03 22.36 C 14.45 21.35 14.45 18.62 12.00 17.63 C 11.92 15.68 11.81 13.61 13.20 12.06 C 14.76 10.25 13.76 7.26 11.65 6.38 C 9.49 5.31 6.61 6.70 6.14 9.07 M 17.18 16.13 C 16.93 16.38 16.42 16.90 16.17 17.16 C 15.82 24.11 16.00 31.11 16.08 38.07 C 16.00 40.24 18.62 40.07 20.07 39.70 C 31.61 37.66 43.24 36.00 54.75 33.78 C 55.01 33.56 55.54 33.12 55.81 32.90 C 56.15 29.65 56.17 26.33 55.79 23.07 C 54.83 21.67 52.83 21.92 51.36 21.51 C 39.95 19.87 28.63 17.33 17.18 16.13 Z" />
<path fill="#ffffff" opacity="1.00" d=" M 24.01 21.02 C 26.66 21.47 29.31 21.91 31.97 22.33 C 32.02 26.10 32.01 29.88 31.98 33.66 C 29.32 34.08 26.66 34.53 24.01 34.98 C 24.00 30.33 24.00 25.67 24.01 21.02 Z" />
<path fill="#ffffff" opacity="1.00" d=" M 40.00 23.70 C 42.67 24.10 45.34 24.53 48.00 24.99 C 48.00 27.00 48.00 29.00 48.00 31.01 C 45.34 31.47 42.67 31.90 40.00 32.30 C 40.00 29.43 40.00 26.56 40.00 23.70 Z" />
</g>
<g id="#000000ff">
<path fill="#000000" opacity="1.00" d=" M 6.14 9.07 C 6.61 6.70 9.49 5.31 11.65 6.38 C 13.76 7.26 14.76 10.25 13.20 12.06 C 11.81 13.61 11.92 15.68 12.00 17.63 C 14.45 18.62 14.45 21.35 12.03 22.36 C 11.98 26.12 11.99 29.89 12.02 33.65 C 14.46 34.54 14.44 37.45 12.02 38.35 C 11.82 43.19 12.33 48.08 11.77 52.90 C 10.99 54.75 7.89 54.08 8.08 52.03 C 7.87 39.68 8.09 27.32 7.99 14.97 C 8.09 12.78 5.32 11.38 6.14 9.07 Z" />
<path fill="#000000" opacity="1.00" d=" M 17.18 16.13 C 28.63 17.33 39.95 19.87 51.36 21.51 C 52.83 21.92 54.83 21.67 55.79 23.07 C 56.17 26.33 56.15 29.65 55.81 32.90 C 55.54 33.12 55.01 33.56 54.75 33.78 C 43.24 36.00 31.61 37.66 20.07 39.70 C 18.62 40.07 16.00 40.24 16.08 38.07 C 16.00 31.11 15.82 24.11 16.17 17.16 C 16.42 16.90 16.93 16.38 17.18 16.13 M 24.01 21.02 C 24.00 25.67 24.00 30.33 24.01 34.98 C 26.66 34.53 29.32 34.08 31.98 33.66 C 32.01 29.88 32.02 26.10 31.97 22.33 C 29.31 21.91 26.66 21.47 24.01 21.02 M 40.00 23.70 C 40.00 26.56 40.00 29.43 40.00 32.30 C 42.67 31.90 45.34 31.47 48.00 31.01 C 48.00 29.00 48.00 27.00 48.00 24.99 C 45.34 24.53 42.67 24.10 40.00 23.70 Z" />
</g>
</svg>
