<?xml version="1.0" encoding="UTF-8" ?>
<!DOCTYPE svg PUBLIC "-//W3C//DTD SVG 1.1//EN" "http://www.w3.org/Graphics/SVG/1.1/DTD/svg11.dtd">
<svg width="60pt" height="60pt" viewBox="0 0 60 60" version="1.1" xmlns="http://www.w3.org/2000/svg">
<g id="#ffffffff">
<path fill="#ffffff" opacity="1.00" d=" M 0.00 0.00 L 60.00 0.00 L 60.00 60.00 L 0.00 60.00 L 0.00 0.00 M 9.21 6.09 C 2.22 7.91 2.24 20.13 9.25 21.92 C 12.87 22.55 14.99 18.95 15.95 16.02 C 18.02 15.99 20.08 16.01 22.14 16.01 C 23.23 18.73 25.27 20.76 27.98 21.87 C 28.00 24.58 28.00 27.29 28.00 30.00 C 24.63 30.05 21.25 29.88 17.88 30.05 C 15.84 30.02 14.01 31.88 14.05 33.92 C 13.95 38.63 13.94 43.35 14.05 48.06 C 13.92 50.61 16.55 52.30 18.89 52.00 C 26.91 51.91 34.94 52.21 42.95 51.85 C 47.58 50.47 45.61 44.60 46.00 41.04 C 45.57 37.53 47.46 32.43 43.62 30.34 C 39.81 29.58 35.86 30.17 32.00 30.00 C 31.99 27.28 32.00 24.57 32.02 21.85 C 34.74 20.77 36.76 18.72 37.86 16.02 C 39.92 16.01 41.98 15.99 44.04 16.02 C 45.00 18.96 47.14 22.57 50.78 21.91 C 57.73 20.09 57.77 8.00 50.85 6.10 C 47.18 5.36 45.00 9.02 44.04 11.98 C 41.99 12.01 39.94 11.99 37.89 11.98 C 36.57 8.73 33.71 5.83 29.96 6.01 C 26.23 5.87 23.41 8.76 22.10 11.98 C 20.05 11.99 18.00 12.01 15.95 11.98 C 15.00 9.03 12.85 5.41 9.21 6.09 Z" />
<path fill="#ffffff" opacity="1.00" d=" M 18.00 34.00 C 26.00 34.00 34.00 34.00 42.00 34.00 C 41.99 36.00 41.99 38.00 42.00 40.00 C 34.00 40.00 26.00 40.00 18.00 40.00 C 18.01 38.00 18.01 36.00 18.00 34.00 Z" />
</g>
<g id="#000000ff">
<path fill="#000000" opacity="1.00" d=" M 9.21 6.09 C 12.85 5.41 15.00 9.03 15.95 11.98 C 18.00 12.01 20.05 11.99 22.10 11.98 C 23.41 8.76 26.23 5.87 29.96 6.01 C 33.71 5.83 36.57 8.73 37.89 11.98 C 39.94 11.99 41.99 12.01 44.04 11.98 C 45.00 9.02 47.18 5.36 50.85 6.10 C 57.77 8.00 57.73 20.09 50.78 21.91 C 47.14 22.57 45.00 18.96 44.04 16.02 C 41.98 15.99 39.92 16.01 37.86 16.02 C 36.76 18.72 34.74 20.77 32.02 21.85 C 32.00 24.57 31.99 27.28 32.00 30.00 C 35.86 30.17 39.81 29.58 43.62 30.34 C 47.46 32.43 45.57 37.53 46.00 41.04 C 45.61 44.60 47.58 50.47 42.95 51.85 C 34.94 52.21 26.91 51.91 18.89 52.00 C 16.55 52.30 13.92 50.61 14.05 48.06 C 13.94 43.35 13.95 38.63 14.05 33.92 C 14.01 31.88 15.84 30.02 17.88 30.05 C 21.25 29.88 24.63 30.05 28.00 30.00 C 28.00 27.29 28.00 24.58 27.98 21.87 C 25.27 20.76 23.23 18.73 22.14 16.01 C 20.08 16.01 18.02 15.99 15.95 16.02 C 14.99 18.95 12.87 22.55 9.25 21.92 C 2.24 20.13 2.22 7.91 9.21 6.09 M 18.00 34.00 C 18.01 36.00 18.01 38.00 18.00 40.00 C 26.00 40.00 34.00 40.00 42.00 40.00 C 41.99 38.00 41.99 36.00 42.00 34.00 C 34.00 34.00 26.00 34.00 18.00 34.00 Z" />
</g>
</svg>
