<?xml version="1.0" encoding="UTF-8" ?>
<!DOCTYPE svg PUBLIC "-//W3C//DTD SVG 1.1//EN" "http://www.w3.org/Graphics/SVG/1.1/DTD/svg11.dtd">
<svg width="60pt" height="60pt" viewBox="0 0 60 60" version="1.1" xmlns="http://www.w3.org/2000/svg">
<g id="#ffffffff">
<path fill="#ffffff" opacity="1.00" d=" M 0.00 0.00 L 60.00 0.00 L 60.00 60.00 L 0.00 60.00 L 0.00 0.00 M 2.23 20.72 C 3.49 23.38 5.24 25.77 6.65 28.35 C 7.69 29.91 8.53 32.43 10.90 31.99 C 22.67 32.04 34.44 31.95 46.21 32.03 C 47.67 35.08 51.43 37.09 54.64 35.37 C 58.81 33.57 59.09 27.06 55.11 24.88 C 51.91 22.78 47.71 24.70 46.22 27.97 C 37.19 28.04 28.17 27.98 19.14 28.00 C 17.15 24.89 15.50 21.57 13.34 18.57 C 12.26 17.13 9.88 18.33 9.94 20.00 C 11.08 22.85 12.97 25.32 14.47 27.99 C 13.64 27.99 11.97 28.00 11.14 28.00 C 9.59 25.47 8.11 22.91 6.57 20.36 C 5.91 19.41 5.35 18.02 3.98 17.96 C 2.65 18.00 1.55 19.47 2.23 20.72 Z" />
</g>
<g id="#000000ff">
<path fill="#000000" opacity="1.00" d=" M 2.23 20.72 C 1.55 19.47 2.65 18.00 3.98 17.96 C 5.35 18.02 5.91 19.41 6.57 20.36 C 8.11 22.91 9.59 25.47 11.14 28.00 C 11.97 28.00 13.64 27.99 14.47 27.99 C 12.97 25.32 11.08 22.85 9.94 20.00 C 9.88 18.33 12.26 17.13 13.34 18.57 C 15.50 21.57 17.15 24.89 19.14 28.00 C 28.17 27.98 37.19 28.04 46.22 27.97 C 47.71 24.70 51.91 22.78 55.11 24.88 C 59.09 27.06 58.81 33.57 54.64 35.37 C 51.43 37.09 47.67 35.08 46.21 32.03 C 34.44 31.95 22.67 32.04 10.90 31.99 C 8.53 32.43 7.69 29.91 6.65 28.35 C 5.24 25.77 3.49 23.38 2.23 20.72 Z" />
</g>
</svg>
