<?xml version="1.0" encoding="UTF-8" ?>
<!DOCTYPE svg PUBLIC "-//W3C//DTD SVG 1.1//EN" "http://www.w3.org/Graphics/SVG/1.1/DTD/svg11.dtd">
<svg width="60pt" height="60pt" viewBox="0 0 60 60" version="1.1" xmlns="http://www.w3.org/2000/svg">
<g id="#ffffffff">
<path fill="#ffffff" opacity="1.00" d=" M 0.00 0.00 L 60.00 0.00 L 60.00 60.00 L 0.00 60.00 L 0.00 0.00 M 28.21 7.18 C 27.43 11.65 27.41 16.22 26.80 20.71 C 28.92 19.96 31.08 19.97 33.20 20.71 C 32.59 16.20 32.56 11.62 31.78 7.12 C 31.13 5.63 28.77 5.61 28.21 7.18 M 29.20 24.20 C 26.76 25.03 28.51 29.05 30.78 27.81 C 33.26 26.97 31.46 22.94 29.20 24.20 M 12.65 34.03 C 11.82 35.39 13.25 37.57 14.78 36.84 C 18.98 35.39 22.85 33.14 26.96 31.46 C 25.34 29.92 24.20 28.09 23.81 25.88 C 20.17 28.72 16.15 31.02 12.65 34.03 M 36.18 25.89 C 35.80 28.10 34.67 29.93 33.04 31.44 C 37.16 33.10 41.02 35.35 45.20 36.85 C 46.77 37.53 48.25 35.35 47.32 34.00 C 43.85 30.98 39.83 28.68 36.18 25.89 M 28.22 37.22 C 27.21 42.77 26.80 48.42 26.00 54.00 C 28.67 54.00 31.33 54.00 34.00 54.00 C 33.28 48.66 32.74 43.29 31.96 37.96 C 32.06 35.86 28.81 35.15 28.22 37.22 M 11.15 50.11 C 8.89 51.21 10.38 54.81 12.78 53.90 C 15.17 52.83 13.60 49.13 11.15 50.11 M 19.21 50.13 C 16.82 51.15 18.41 54.88 20.83 53.89 C 23.12 52.82 21.61 49.14 19.21 50.13 M 39.10 50.10 C 36.92 51.26 38.40 54.84 40.78 53.87 C 43.21 52.84 41.54 49.07 39.10 50.10 M 47.15 50.10 C 44.86 51.25 46.43 54.89 48.86 53.88 C 51.13 52.72 49.56 49.15 47.15 50.10 Z" />
</g>
<g id="#000000ff">
<path fill="#000000" opacity="1.00" d=" M 28.21 7.18 C 28.77 5.61 31.13 5.63 31.78 7.12 C 32.56 11.62 32.59 16.20 33.20 20.71 C 31.08 19.97 28.92 19.96 26.80 20.71 C 27.41 16.22 27.43 11.65 28.21 7.18 Z" />
<path fill="#000000" opacity="1.00" d=" M 29.20 24.20 C 31.46 22.94 33.26 26.97 30.78 27.81 C 28.51 29.05 26.76 25.03 29.20 24.20 Z" />
<path fill="#000000" opacity="1.00" d=" M 12.65 34.03 C 16.15 31.02 20.17 28.72 23.81 25.88 C 24.20 28.09 25.34 29.92 26.96 31.46 C 22.85 33.14 18.98 35.39 14.78 36.84 C 13.25 37.57 11.82 35.39 12.65 34.03 Z" />
<path fill="#000000" opacity="1.00" d=" M 36.18 25.89 C 39.83 28.68 43.85 30.98 47.32 34.00 C 48.25 35.35 46.77 37.53 45.20 36.85 C 41.02 35.35 37.16 33.10 33.04 31.44 C 34.67 29.93 35.80 28.10 36.18 25.89 Z" />
<path fill="#000000" opacity="1.00" d=" M 28.22 37.22 C 28.81 35.15 32.06 35.86 31.96 37.96 C 32.74 43.29 33.28 48.66 34.00 54.00 C 31.33 54.00 28.67 54.00 26.00 54.00 C 26.80 48.42 27.21 42.77 28.22 37.22 Z" />
<path fill="#000000" opacity="1.00" d=" M 11.15 50.11 C 13.60 49.13 15.17 52.83 12.78 53.90 C 10.38 54.81 8.89 51.21 11.15 50.11 Z" />
<path fill="#000000" opacity="1.00" d=" M 19.21 50.13 C 21.61 49.14 23.12 52.82 20.83 53.89 C 18.41 54.88 16.82 51.15 19.21 50.13 Z" />
<path fill="#000000" opacity="1.00" d=" M 39.10 50.10 C 41.54 49.07 43.21 52.84 40.78 53.87 C 38.40 54.84 36.92 51.26 39.10 50.10 Z" />
<path fill="#000000" opacity="1.00" d=" M 47.15 50.10 C 49.56 49.15 51.13 52.72 48.86 53.88 C 46.43 54.89 44.86 51.25 47.15 50.10 Z" />
</g>
</svg>
