<?xml version="1.0" encoding="UTF-8" ?>
<!DOCTYPE svg PUBLIC "-//W3C//DTD SVG 1.1//EN" "http://www.w3.org/Graphics/SVG/1.1/DTD/svg11.dtd">
<svg width="60pt" height="60pt" viewBox="0 0 60 60" version="1.1" xmlns="http://www.w3.org/2000/svg">
<g id="#ffffffff">
<path fill="#ffffff" opacity="1.00" d=" M 0.00 0.00 L 60.00 0.00 L 60.00 60.00 L 0.00 60.00 L 0.00 0.00 M 6.41 10.40 C 3.67 11.25 4.10 14.68 3.96 16.93 C 4.19 26.89 3.66 36.89 4.21 46.83 C 4.40 49.69 7.67 50.09 9.92 50.02 C 23.30 50.00 36.69 50.00 50.08 50.02 C 52.33 50.08 55.60 49.71 55.79 46.83 C 56.37 39.91 55.82 32.94 56.00 26.00 C 55.86 21.47 56.47 16.87 55.60 12.40 C 54.92 10.02 52.08 10.05 50.08 9.98 C 37.71 9.96 25.35 10.07 12.98 9.95 C 10.79 10.00 8.55 9.84 6.41 10.40 Z" />
<path fill="#ffffff" opacity="1.00" d=" M 10.00 14.00 C 23.33 14.00 36.67 14.00 50.00 14.00 C 50.00 17.29 49.74 20.60 50.22 23.87 C 50.76 26.68 52.92 29.50 51.41 32.38 C 49.42 36.66 49.99 41.43 50.00 46.00 C 36.67 46.00 23.33 46.00 10.00 46.00 C 10.00 35.33 10.00 24.67 10.00 14.00 M 31.97 20.83 C 31.99 23.22 32.00 25.61 32.01 27.99 C 34.67 28.00 37.34 28.00 40.00 27.99 C 40.00 25.32 40.00 22.65 39.98 19.97 C 37.31 20.27 34.64 20.56 31.97 20.83 M 20.03 22.01 C 20.01 24.01 20.00 26.00 19.99 27.99 C 22.66 28.00 25.33 28.00 27.99 27.99 C 28.00 25.73 28.00 23.47 28.01 21.21 C 25.35 21.47 22.69 21.74 20.03 22.01 M 19.99 32.01 C 20.00 34.00 20.01 35.99 20.03 37.99 C 22.69 38.26 25.35 38.53 28.01 38.80 C 28.00 36.53 28.00 34.27 28.00 32.01 C 25.33 32.00 22.66 32.00 19.99 32.01 M 31.99 32.00 C 32.00 34.39 32.01 36.78 32.04 39.17 C 34.69 39.45 37.33 39.73 39.98 40.02 C 39.99 37.35 40.00 34.67 40.01 32.00 C 37.33 32.00 34.66 32.00 31.99 32.00 Z" />
</g>
<g id="#000000ff">
<path fill="#968176" opacity="1.00" d=" M 6.41 10.40 C 8.55 9.84 10.79 10.00 12.98 9.95 C 25.35 10.07 37.71 9.96 50.08 9.98 C 52.08 10.05 54.92 10.02 55.60 12.40 C 56.47 16.87 55.86 21.47 56.00 26.00 C 55.82 32.94 56.37 39.91 55.79 46.83 C 55.60 49.71 52.33 50.08 50.08 50.02 C 36.69 50.00 23.30 50.00 9.92 50.02 C 7.67 50.09 4.40 49.69 4.21 46.83 C 3.66 36.89 4.19 26.89 3.96 16.93 C 4.10 14.68 3.67 11.25 6.41 10.40 M 10.00 14.00 C 10.00 24.67 10.00 35.33 10.00 46.00 C 23.33 46.00 36.67 46.00 50.00 46.00 C 49.99 41.43 49.42 36.66 51.41 32.38 C 52.92 29.50 50.76 26.68 50.22 23.87 C 49.74 20.60 50.00 17.29 50.00 14.00 C 36.67 14.00 23.33 14.00 10.00 14.00 Z" />
<path fill="#968176" opacity="1.00" d=" M 31.97 20.83 C 34.64 20.56 37.31 20.27 39.98 19.97 C 40.00 22.65 40.00 25.32 40.00 27.99 C 37.34 28.00 34.67 28.00 32.01 27.99 C 32.00 25.61 31.99 23.22 31.97 20.83 Z" />
<path fill="#968176" opacity="1.00" d=" M 20.03 22.01 C 22.69 21.74 25.35 21.47 28.01 21.21 C 28.00 23.47 28.00 25.73 27.99 27.99 C 25.33 28.00 22.66 28.00 19.99 27.99 C 20.00 26.00 20.01 24.01 20.03 22.01 Z" />
<path fill="#968176" opacity="1.00" d=" M 19.99 32.01 C 22.66 32.00 25.33 32.00 28.00 32.01 C 28.00 34.27 28.00 36.53 28.01 38.80 C 25.35 38.53 22.69 38.26 20.03 37.99 C 20.01 35.99 20.00 34.00 19.99 32.01 Z" />
<path fill="#968176" opacity="1.00" d=" M 31.99 32.00 C 34.66 32.00 37.33 32.00 40.01 32.00 C 40.00 34.67 39.99 37.35 39.98 40.02 C 37.33 39.73 34.69 39.45 32.04 39.17 C 32.01 36.78 32.00 34.39 31.99 32.00 Z" />
</g>
</svg>
