<?xml version="1.0" encoding="UTF-8" ?>
<!DOCTYPE svg PUBLIC "-//W3C//DTD SVG 1.1//EN" "http://www.w3.org/Graphics/SVG/1.1/DTD/svg11.dtd">
<svg width="60pt" height="60pt" viewBox="0 0 60 60" version="1.1" xmlns="http://www.w3.org/2000/svg">
<g id="#ffffffff">
<path fill="#ffffff" opacity="1.00" d=" M 0.00 0.00 L 60.00 0.00 L 60.00 60.00 L 0.00 60.00 L 0.00 0.00 M 2.28 20.79 C 3.76 23.86 5.75 26.65 7.41 29.61 C 8.12 30.48 8.62 32.10 10.01 31.91 C 22.06 32.15 34.13 31.90 46.19 32.03 C 47.69 35.02 51.32 37.08 54.56 35.42 C 58.79 33.66 59.13 27.08 55.12 24.88 C 51.89 22.76 47.73 24.72 46.20 27.97 C 39.85 28.04 33.49 27.98 27.14 28.00 C 25.16 24.91 23.54 21.58 21.35 18.63 C 20.33 17.14 17.72 18.32 18.00 20.04 C 19.05 22.91 21.01 25.33 22.47 27.99 C 21.64 27.99 19.97 28.00 19.14 28.00 C 17.02 24.71 15.34 21.13 12.90 18.05 C 11.51 17.68 9.99 18.42 9.94 19.99 C 11.08 22.85 12.96 25.32 14.47 27.99 C 13.64 27.99 11.97 28.00 11.14 28.00 C 9.16 24.92 7.56 21.58 5.35 18.66 C 4.16 16.85 1.03 18.96 2.28 20.79 Z" />
</g>
<g id="#000000ff">
<path fill="#000000" opacity="1.00" d=" M 2.28 20.79 C 1.03 18.96 4.16 16.85 5.35 18.66 C 7.56 21.58 9.16 24.92 11.14 28.00 C 11.97 28.00 13.64 27.99 14.47 27.99 C 12.96 25.32 11.08 22.85 9.94 19.99 C 9.99 18.42 11.51 17.68 12.90 18.05 C 15.34 21.13 17.02 24.71 19.14 28.00 C 19.97 28.00 21.64 27.99 22.47 27.99 C 21.01 25.33 19.05 22.91 18.00 20.04 C 17.72 18.32 20.33 17.14 21.35 18.63 C 23.54 21.58 25.16 24.91 27.14 28.00 C 33.49 27.98 39.85 28.04 46.20 27.97 C 47.73 24.72 51.89 22.76 55.12 24.88 C 59.13 27.08 58.79 33.66 54.56 35.42 C 51.32 37.08 47.69 35.02 46.19 32.03 C 34.13 31.90 22.06 32.15 10.01 31.91 C 8.62 32.10 8.12 30.48 7.41 29.61 C 5.75 26.65 3.76 23.86 2.28 20.79 Z" />
</g>
</svg>
