<?xml version="1.0" encoding="UTF-8" ?>
<!DOCTYPE svg PUBLIC "-//W3C//DTD SVG 1.1//EN" "http://www.w3.org/Graphics/SVG/1.1/DTD/svg11.dtd">
<svg width="60pt" height="60pt" viewBox="0 0 60 60" version="1.1" xmlns="http://www.w3.org/2000/svg">
<g id="#ffffffff">
<path fill="#ffffff" opacity="1.00" d=" M 0.00 0.00 L 60.00 0.00 L 60.00 60.00 L 0.00 60.00 L 0.00 0.00 M 17.16 6.21 C 15.23 6.62 13.42 7.67 12.17 9.20 C 11.54 10.57 12.42 11.99 13.89 12.19 C 16.21 11.00 18.89 8.91 21.52 10.67 C 25.09 12.53 24.62 18.42 20.78 19.67 C 16.29 20.55 11.66 19.53 7.14 20.20 C 5.61 20.84 5.64 23.21 7.18 23.81 C 11.14 24.21 15.15 23.99 19.12 23.96 C 24.22 24.05 28.62 19.08 27.92 14.03 C 27.50 8.93 22.14 5.01 17.16 6.21 M 39.41 10.63 C 37.11 11.46 32.50 14.06 35.23 16.78 C 37.59 17.48 38.95 14.75 41.05 14.29 C 44.94 13.01 49.42 15.90 49.91 19.94 C 50.66 23.96 47.21 28.08 43.10 27.95 C 31.41 28.13 19.70 27.85 8.01 28.08 C 6.49 27.93 5.70 29.54 6.10 30.84 C 6.92 32.24 8.64 31.92 10.00 32.02 C 21.03 31.95 32.05 32.08 43.08 31.96 C 49.69 32.11 55.26 25.34 53.76 18.88 C 52.68 12.56 45.44 8.31 39.41 10.63 M 7.09 36.21 C 5.26 37.01 5.91 40.11 7.97 39.91 C 17.69 40.18 27.43 39.85 37.15 40.05 C 40.18 39.95 42.62 43.14 41.88 46.04 C 41.34 49.19 37.29 51.17 34.60 49.24 C 33.30 48.73 31.84 46.99 30.56 48.50 C 29.33 49.24 30.12 51.20 31.16 51.81 C 34.36 54.66 39.62 54.68 42.82 51.81 C 46.09 49.12 46.97 44.01 44.70 40.42 C 42.99 37.40 39.47 35.79 36.06 36.00 C 26.41 36.14 16.72 35.72 7.09 36.21 Z" />
</g>
<g id="#000000ff">
<path fill="#000000" opacity="1.00" d=" M 17.16 6.21 C 22.14 5.01 27.50 8.93 27.92 14.03 C 28.62 19.08 24.22 24.05 19.12 23.96 C 15.15 23.99 11.14 24.21 7.18 23.81 C 5.64 23.21 5.61 20.84 7.14 20.20 C 11.66 19.53 16.29 20.55 20.78 19.67 C 24.62 18.42 25.09 12.53 21.52 10.67 C 18.89 8.91 16.21 11.00 13.89 12.19 C 12.42 11.99 11.54 10.57 12.17 9.20 C 13.42 7.67 15.23 6.62 17.16 6.21 Z" />
<path fill="#000000" opacity="1.00" d=" M 39.41 10.63 C 45.44 8.31 52.68 12.56 53.76 18.88 C 55.26 25.34 49.69 32.11 43.08 31.96 C 32.05 32.08 21.03 31.95 10.00 32.02 C 8.64 31.92 6.92 32.24 6.10 30.84 C 5.70 29.54 6.49 27.93 8.01 28.08 C 19.70 27.85 31.41 28.13 43.10 27.95 C 47.21 28.08 50.66 23.96 49.91 19.94 C 49.42 15.90 44.94 13.01 41.05 14.29 C 38.95 14.75 37.59 17.48 35.23 16.78 C 32.50 14.06 37.11 11.46 39.41 10.63 Z" />
<path fill="#000000" opacity="1.00" d=" M 7.09 36.21 C 16.72 35.72 26.41 36.14 36.06 36.00 C 39.47 35.79 42.99 37.40 44.70 40.42 C 46.97 44.01 46.09 49.12 42.82 51.81 C 39.62 54.68 34.36 54.66 31.16 51.81 C 30.12 51.20 29.33 49.24 30.56 48.50 C 31.84 46.99 33.30 48.73 34.60 49.24 C 37.29 51.17 41.34 49.19 41.88 46.04 C 42.62 43.14 40.18 39.95 37.15 40.05 C 27.43 39.85 17.69 40.18 7.97 39.91 C 5.91 40.11 5.26 37.01 7.09 36.21 Z" />
</g>
</svg>
