<?xml version="1.0" encoding="UTF-8" ?>
<!DOCTYPE svg PUBLIC "-//W3C//DTD SVG 1.1//EN" "http://www.w3.org/Graphics/SVG/1.1/DTD/svg11.dtd">
<svg width="60pt" height="60pt" viewBox="0 0 60 60" version="1.1" xmlns="http://www.w3.org/2000/svg">
<g id="#ffffffff">
<path fill="#ffffff" opacity="1.00" d=" M 0.00 0.00 L 60.00 0.00 L 60.00 60.00 L 0.00 60.00 L 0.00 0.00 M 6.24 20.77 C 7.44 23.29 9.10 25.57 10.47 28.00 C 8.03 28.01 5.57 27.84 3.15 28.19 C 1.26 28.91 1.88 32.13 3.97 31.92 C 18.05 32.13 32.14 31.91 46.22 32.02 C 47.66 35.07 51.38 37.07 54.59 35.40 C 58.79 33.62 59.11 27.07 55.12 24.89 C 51.92 22.78 47.70 24.70 46.23 27.98 C 35.86 28.03 25.50 27.98 15.14 28.00 C 13.16 24.91 11.54 21.59 9.36 18.64 C 8.17 16.90 5.05 18.90 6.24 20.77 Z" />
</g>
<g id="#000000ff">
<path fill="#000000" opacity="1.00" d=" M 6.24 20.77 C 5.05 18.90 8.17 16.90 9.36 18.64 C 11.54 21.59 13.16 24.91 15.14 28.00 C 25.50 27.98 35.86 28.03 46.23 27.98 C 47.70 24.70 51.92 22.78 55.12 24.89 C 59.11 27.07 58.79 33.62 54.59 35.40 C 51.38 37.07 47.66 35.07 46.22 32.02 C 32.14 31.91 18.05 32.13 3.97 31.92 C 1.88 32.13 1.26 28.91 3.15 28.19 C 5.57 27.84 8.03 28.01 10.47 28.00 C 9.10 25.57 7.44 23.29 6.24 20.77 Z" />
</g>
</svg>
