<?xml version="1.0" encoding="UTF-8" ?>
<!DOCTYPE svg PUBLIC "-//W3C//DTD SVG 1.1//EN" "http://www.w3.org/Graphics/SVG/1.1/DTD/svg11.dtd">
<svg width="64pt" height="64pt" viewBox="0 0 64 64" version="1.1" xmlns="http://www.w3.org/2000/svg">
<g id="#ffffffff">
<path fill="#ffffff" opacity="1.00" d=" M 0.00 0.00 L 64.00 0.00 L 64.00 64.00 L 0.00 64.00 L 0.00 0.00 M 27.94 8.00 C 27.22 14.60 26.48 21.21 25.76 27.82 C 20.42 31.65 15.29 35.78 9.83 39.45 C 10.95 41.89 12.22 44.26 13.59 46.57 C 19.09 44.22 24.52 41.72 30.00 39.32 C 30.00 43.55 30.00 47.78 30.00 52.00 C 22.67 52.00 15.33 52.00 8.00 52.00 C 8.00 53.33 8.00 54.67 8.00 56.00 C 24.00 56.00 40.00 56.00 56.00 56.00 C 56.00 54.67 56.00 53.33 56.00 52.00 C 48.67 52.00 41.33 52.00 34.00 52.00 C 34.00 47.78 34.00 43.55 34.00 39.33 C 39.47 41.74 44.96 44.11 50.42 46.56 C 51.77 44.25 53.04 41.90 54.18 39.48 C 48.78 35.68 43.52 31.69 38.22 27.77 C 37.44 21.18 36.63 14.59 35.86 8.00 C 33.22 8.00 30.58 8.00 27.94 8.00 Z" />
<path fill="#ffffff" opacity="1.00" d=" M 31.66 11.56 C 33.89 17.14 32.94 23.55 34.63 29.33 C 32.88 29.20 31.12 29.20 29.36 29.33 C 30.61 23.48 30.68 17.46 31.66 11.56 Z" />
<path fill="#ffffff" opacity="1.00" d=" M 29.24 29.34 C 29.95 30.95 30.08 33.15 32.14 33.72 C 26.58 36.79 20.61 39.09 14.74 41.51 C 18.86 36.68 25.43 34.42 29.24 29.34 Z" />
<path fill="#ffffff" opacity="1.00" d=" M 32.21 34.09 C 33.31 32.64 34.27 31.10 34.76 29.34 C 38.58 34.43 45.15 36.65 49.27 41.50 C 43.48 39.29 37.87 36.62 32.21 34.09 Z" />
</g>
<g id="#000000ff">
<path fill="#000000" opacity="1.00" d=" M 27.94 8.00 C 30.58 8.00 33.22 8.00 35.86 8.00 C 36.63 14.59 37.44 21.18 38.22 27.77 C 43.52 31.69 48.78 35.68 54.18 39.48 C 53.04 41.90 51.77 44.25 50.42 46.56 C 44.96 44.11 39.47 41.74 34.00 39.33 C 34.00 43.55 34.00 47.78 34.00 52.00 C 41.33 52.00 48.67 52.00 56.00 52.00 C 56.00 53.33 56.00 54.67 56.00 56.00 C 40.00 56.00 24.00 56.00 8.00 56.00 C 8.00 54.67 8.00 53.33 8.00 52.00 C 15.33 52.00 22.67 52.00 30.00 52.00 C 30.00 47.78 30.00 43.55 30.00 39.32 C 24.52 41.72 19.09 44.22 13.59 46.57 C 12.22 44.26 10.95 41.89 9.83 39.45 C 15.29 35.78 20.42 31.65 25.76 27.82 C 26.48 21.21 27.22 14.60 27.94 8.00 M 31.66 11.56 C 30.68 17.46 30.61 23.48 29.36 29.33 C 31.12 29.20 32.88 29.20 34.63 29.33 C 32.94 23.55 33.89 17.14 31.66 11.56 M 29.24 29.34 C 25.43 34.42 18.86 36.68 14.74 41.51 C 20.61 39.09 26.58 36.79 32.14 33.72 C 30.08 33.15 29.95 30.95 29.24 29.34 M 32.21 34.09 C 37.87 36.62 43.48 39.29 49.27 41.50 C 45.15 36.65 38.58 34.43 34.76 29.34 C 34.27 31.10 33.31 32.64 32.21 34.09 Z" />
</g>
</svg>
