<?xml version="1.0" encoding="UTF-8" ?>
<!DOCTYPE svg PUBLIC "-//W3C//DTD SVG 1.1//EN" "http://www.w3.org/Graphics/SVG/1.1/DTD/svg11.dtd">
<svg width="60pt" height="60pt" viewBox="0 0 60 60" version="1.1" xmlns="http://www.w3.org/2000/svg">
<g id="#ffffffff">
<path fill="#ffffff" opacity="1.00" d=" M 0.00 0.00 L 60.00 0.00 L 60.00 45.20 C 58.78 43.93 56.95 44.07 55.34 43.80 C 54.94 42.85 54.54 41.90 54.15 40.95 C 54.92 39.79 56.19 38.73 55.96 37.19 C 54.77 34.91 52.23 36.62 50.99 37.92 C 50.07 37.45 49.15 36.98 48.23 36.51 C 47.90 35.00 48.26 31.96 46.05 32.04 C 43.79 31.79 44.12 34.83 43.80 36.26 C 41.60 36.38 38.97 35.44 37.19 37.18 C 35.44 38.95 36.39 41.60 36.25 43.79 C 34.88 44.17 31.86 43.78 32.06 45.97 C 31.91 48.25 35.03 47.90 36.56 48.23 C 36.98 49.18 37.39 50.13 37.79 51.09 C 37.10 52.32 35.03 54.03 36.61 55.39 C 37.94 56.94 39.75 54.90 40.96 54.15 C 41.90 54.54 42.84 54.94 43.79 55.34 C 43.99 56.93 44.23 58.52 44.87 60.00 L 0.00 60.00 L 0.00 0.00 M 6.00 13.00 C 6.00 26.67 6.00 40.33 6.00 54.00 C 14.71 54.00 23.43 53.99 32.14 54.01 C 32.89 51.47 30.23 49.95 28.05 50.01 C 22.04 49.95 16.02 50.03 10.00 50.00 C 10.00 39.33 10.00 28.67 10.00 18.00 C 23.33 18.00 36.66 18.00 50.00 18.00 C 50.05 21.37 49.91 24.74 50.02 28.11 C 49.97 30.27 51.50 32.88 54.01 32.14 C 53.94 25.38 54.10 18.63 53.95 11.87 C 53.99 9.35 51.40 7.61 49.03 8.00 C 35.97 8.03 22.91 7.93 9.86 8.05 C 7.34 8.02 5.63 10.65 6.00 13.00 Z" />
<path fill="#ffffff" opacity="1.00" d=" M 44.70 46.90 C 44.87 45.61 45.60 44.87 46.90 44.70 C 50.00 46.77 52.25 49.86 55.17 52.17 C 55.57 50.89 55.90 49.59 56.18 48.28 C 57.46 47.93 58.74 47.57 60.00 47.12 L 60.00 60.00 L 46.80 60.00 C 47.74 58.93 47.93 57.51 48.26 56.18 C 49.58 55.89 50.88 55.55 52.18 55.17 C 49.87 52.25 46.77 50.01 44.70 46.90 Z" />
</g>
<g id="#000000ff">
<path fill="#968176" opacity="1.00" d=" M 6.00 13.00 C 5.63 10.65 7.34 8.02 9.86 8.05 C 22.91 7.93 35.97 8.03 49.03 8.00 C 51.40 7.61 53.99 9.35 53.95 11.87 C 54.10 18.63 53.94 25.38 54.01 32.14 C 51.50 32.88 49.97 30.27 50.02 28.11 C 49.91 24.74 50.05 21.37 50.00 18.00 C 36.66 18.00 23.33 18.00 10.00 18.00 C 10.00 28.67 10.00 39.33 10.00 50.00 C 16.02 50.03 22.04 49.95 28.05 50.01 C 30.23 49.95 32.89 51.47 32.14 54.01 C 23.43 53.99 14.71 54.00 6.00 54.00 C 6.00 40.33 6.00 26.67 6.00 13.00 Z" />
<path fill="#968176" opacity="1.00" d=" M 43.80 36.26 C 44.12 34.83 43.79 31.79 46.05 32.04 C 48.26 31.96 47.90 35.00 48.23 36.51 C 49.15 36.98 50.07 37.45 50.99 37.92 C 52.23 36.62 54.77 34.91 55.96 37.19 C 56.19 38.73 54.92 39.79 54.15 40.95 C 54.54 41.90 54.94 42.85 55.34 43.80 C 56.95 44.07 58.78 43.93 60.00 45.20 L 60.00 47.12 C 58.74 47.57 57.46 47.93 56.18 48.28 C 55.90 49.59 55.57 50.89 55.17 52.17 C 52.25 49.86 50.00 46.77 46.90 44.70 C 45.60 44.87 44.87 45.61 44.70 46.90 C 46.77 50.01 49.87 52.25 52.18 55.17 C 50.88 55.55 49.58 55.89 48.26 56.18 C 47.93 57.51 47.74 58.93 46.80 60.00 L 44.87 60.00 C 44.23 58.52 43.99 56.93 43.79 55.34 C 42.84 54.94 41.90 54.54 40.96 54.15 C 39.75 54.90 37.94 56.94 36.61 55.39 C 35.03 54.03 37.10 52.32 37.79 51.09 C 37.39 50.13 36.98 49.18 36.56 48.23 C 35.03 47.90 31.91 48.25 32.06 45.97 C 31.86 43.78 34.88 44.17 36.25 43.79 C 36.39 41.60 35.44 38.95 37.19 37.18 C 38.97 35.44 41.60 36.38 43.80 36.26 Z" />
</g>
</svg>
