<?xml version="1.0" encoding="UTF-8" ?>
<!DOCTYPE svg PUBLIC "-//W3C//DTD SVG 1.1//EN" "http://www.w3.org/Graphics/SVG/1.1/DTD/svg11.dtd">
<svg width="64pt" height="64pt" viewBox="0 0 64 64" version="1.1" xmlns="http://www.w3.org/2000/svg">
<g id="#ffffffff">
<path fill="#ffffff" opacity="1.00" d=" M 0.00 0.00 L 64.00 0.00 L 64.00 64.00 L 0.00 64.00 L 0.00 0.00 M 7.19 12.14 C 5.30 12.28 3.96 14.13 4.06 15.95 C 3.90 25.99 4.06 36.03 3.99 46.06 C 4.09 47.69 3.82 49.64 5.13 50.88 C 6.38 52.18 8.32 51.91 9.93 52.01 C 25.29 51.94 40.65 52.09 56.00 51.94 C 58.17 52.11 60.08 50.22 59.94 48.05 C 60.10 38.02 59.94 27.99 60.02 17.96 C 59.92 16.32 60.18 14.34 58.84 13.10 C 57.28 11.61 54.92 12.13 52.97 11.98 C 37.71 12.12 22.44 11.80 7.19 12.14 Z" />
<path fill="#ffffff" opacity="1.00" d=" M 8.00 16.00 C 24.00 16.00 40.00 16.00 56.00 16.00 C 56.00 26.67 56.00 37.33 56.00 48.00 C 40.00 48.00 24.00 48.00 8.00 48.00 C 8.00 37.33 8.00 26.67 8.00 16.00 M 32.19 23.81 C 32.19 26.54 32.19 29.27 32.19 32.00 C 35.46 32.00 38.73 32.00 42.00 32.00 C 42.00 28.73 42.00 25.46 42.00 22.19 C 38.73 22.73 35.46 23.27 32.19 23.81 M 22.00 25.05 C 22.00 27.37 22.00 29.68 22.00 32.00 C 24.67 32.00 27.33 32.00 30.00 32.00 C 30.00 29.33 30.00 26.67 30.00 24.00 C 27.33 24.37 24.67 24.70 22.00 25.05 M 22.00 34.00 C 22.00 36.33 22.00 38.65 22.00 40.98 C 24.67 41.37 27.34 41.75 30.00 42.19 C 30.00 39.46 30.00 36.73 30.00 34.00 C 27.33 34.00 24.67 34.00 22.00 34.00 M 32.19 34.00 C 32.18 36.79 32.19 39.59 32.19 42.38 C 35.46 42.86 38.73 43.33 42.00 43.81 C 42.00 40.54 42.00 37.27 42.00 34.00 C 38.73 34.00 35.46 34.00 32.19 34.00 Z" />
</g>
<g id="#000000ff">
<path fill="#000000" opacity="1.00" d=" M 7.19 12.14 C 22.44 11.80 37.71 12.12 52.97 11.98 C 54.92 12.13 57.28 11.61 58.84 13.10 C 60.18 14.34 59.92 16.32 60.02 17.96 C 59.94 27.99 60.10 38.02 59.94 48.05 C 60.08 50.22 58.17 52.11 56.00 51.94 C 40.65 52.09 25.29 51.94 9.93 52.01 C 8.32 51.91 6.38 52.18 5.13 50.88 C 3.82 49.64 4.09 47.69 3.99 46.06 C 4.06 36.03 3.90 25.99 4.06 15.95 C 3.96 14.13 5.30 12.28 7.19 12.14 M 8.00 16.00 C 8.00 26.67 8.00 37.33 8.00 48.00 C 24.00 48.00 40.00 48.00 56.00 48.00 C 56.00 37.33 56.00 26.67 56.00 16.00 C 40.00 16.00 24.00 16.00 8.00 16.00 Z" />
<path fill="#000000" opacity="1.00" d=" M 32.19 23.81 C 35.46 23.27 38.73 22.73 42.00 22.19 C 42.00 25.46 42.00 28.73 42.00 32.00 C 38.73 32.00 35.46 32.00 32.19 32.00 C 32.19 29.27 32.19 26.54 32.19 23.81 Z" />
<path fill="#000000" opacity="1.00" d=" M 22.00 25.05 C 24.67 24.70 27.33 24.37 30.00 24.00 C 30.00 26.67 30.00 29.33 30.00 32.00 C 27.33 32.00 24.67 32.00 22.00 32.00 C 22.00 29.68 22.00 27.37 22.00 25.05 Z" />
<path fill="#000000" opacity="1.00" d=" M 22.00 34.00 C 24.67 34.00 27.33 34.00 30.00 34.00 C 30.00 36.73 30.00 39.46 30.00 42.19 C 27.34 41.75 24.67 41.37 22.00 40.98 C 22.00 38.65 22.00 36.33 22.00 34.00 Z" />
<path fill="#000000" opacity="1.00" d=" M 32.19 34.00 C 35.46 34.00 38.73 34.00 42.00 34.00 C 42.00 37.27 42.00 40.54 42.00 43.81 C 38.73 43.33 35.46 42.86 32.19 42.38 C 32.19 39.59 32.18 36.79 32.19 34.00 Z" />
</g>
</svg>
