<?xml version="1.0" encoding="UTF-8" ?>
<!DOCTYPE svg PUBLIC "-//W3C//DTD SVG 1.1//EN" "http://www.w3.org/Graphics/SVG/1.1/DTD/svg11.dtd">
<svg width="60pt" height="60pt" viewBox="0 0 60 60" version="1.1" xmlns="http://www.w3.org/2000/svg">
<g id="#ffffffff">
<path fill="#ffffff" opacity="1.00" d=" M 0.00 0.00 L 60.00 0.00 L 60.00 60.00 L 0.00 60.00 L 0.00 0.00 M 2.25 20.73 C 4.03 24.21 6.16 27.51 8.23 30.83 C 8.90 32.29 10.65 31.88 11.93 32.02 C 23.36 32.00 34.78 31.97 46.20 32.03 C 47.69 35.04 51.37 37.09 54.60 35.39 C 58.80 33.61 59.11 27.06 55.11 24.88 C 51.88 22.76 47.73 24.73 46.20 27.97 C 42.51 28.03 38.82 27.99 35.13 28.01 C 33.87 25.91 32.79 23.63 31.01 21.91 C 26.85 21.81 28.94 26.09 30.41 28.02 C 29.59 28.01 27.96 28.00 27.14 28.00 C 25.16 24.92 23.54 21.60 21.37 18.65 C 20.34 17.12 17.71 18.32 18.00 20.08 C 19.09 22.92 20.99 25.35 22.47 27.99 C 21.64 27.99 19.97 28.00 19.14 28.00 C 17.16 24.92 15.53 21.60 13.38 18.64 C 12.36 17.09 9.85 18.31 9.93 20.01 C 11.09 22.85 12.96 25.33 14.47 27.99 C 13.64 27.99 11.97 28.00 11.14 28.00 C 9.59 25.48 8.11 22.92 6.58 20.38 C 5.90 19.42 5.32 17.95 3.91 17.96 C 2.66 18.04 1.45 19.58 2.25 20.73 Z" />
</g>
<g id="#000000ff">
<path fill="#968176" opacity="1.00" d=" M 2.25 20.73 C 1.45 19.58 2.66 18.04 3.91 17.96 C 5.32 17.95 5.90 19.42 6.58 20.38 C 8.11 22.92 9.59 25.48 11.14 28.00 C 11.97 28.00 13.64 27.99 14.47 27.99 C 12.96 25.33 11.09 22.85 9.93 20.01 C 9.85 18.31 12.36 17.09 13.38 18.64 C 15.53 21.60 17.16 24.92 19.14 28.00 C 19.97 28.00 21.64 27.99 22.47 27.99 C 20.99 25.35 19.09 22.92 18.00 20.08 C 17.71 18.32 20.34 17.12 21.37 18.65 C 23.54 21.60 25.16 24.92 27.14 28.00 C 27.96 28.00 29.59 28.01 30.41 28.02 C 28.94 26.09 26.85 21.81 31.01 21.91 C 32.79 23.63 33.87 25.91 35.13 28.01 C 38.82 27.99 42.51 28.03 46.20 27.97 C 47.73 24.73 51.88 22.76 55.11 24.88 C 59.11 27.06 58.80 33.61 54.60 35.39 C 51.37 37.09 47.69 35.04 46.20 32.03 C 34.78 31.97 23.36 32.00 11.93 32.02 C 10.65 31.88 8.90 32.29 8.23 30.83 C 6.16 27.51 4.03 24.21 2.25 20.73 Z" />
</g>
</svg>
