<?xml version="1.0" encoding="UTF-8" ?>
<!DOCTYPE svg PUBLIC "-//W3C//DTD SVG 1.1//EN" "http://www.w3.org/Graphics/SVG/1.1/DTD/svg11.dtd">
<svg width="60pt" height="60pt" viewBox="0 0 60 60" version="1.1" xmlns="http://www.w3.org/2000/svg">
<g id="#ffffffff">
<path fill="#ffffff" opacity="1.00" d=" M 0.00 0.00 L 60.00 0.00 L 60.00 60.00 L 0.00 60.00 L 0.00 0.00 M 15.16 8.15 C 14.92 8.41 14.44 8.95 14.21 9.21 C 13.02 14.39 12.06 19.70 12.05 25.03 C 12.37 33.59 19.60 40.89 27.99 41.95 C 28.05 44.13 28.00 46.31 27.89 48.49 C 25.00 49.01 22.08 49.46 19.23 50.21 C 17.19 50.75 17.88 54.21 19.96 53.94 C 26.65 54.05 33.35 54.05 40.04 53.94 C 42.13 54.20 42.80 50.81 40.81 50.19 C 38.04 49.32 35.11 49.15 32.30 48.42 C 31.58 46.48 32.17 44.06 32.01 41.94 C 38.37 41.10 44.16 36.83 46.62 30.87 C 49.27 24.66 47.30 17.84 46.33 11.48 C 46.05 10.16 45.89 7.88 44.01 8.05 C 34.40 8.02 24.76 7.84 15.16 8.15 Z" />
<path fill="#ffffff" opacity="1.00" d=" M 17.94 31.03 C 14.43 25.20 16.69 18.20 17.67 11.98 C 25.90 12.02 34.12 12.00 42.35 11.99 C 42.70 13.99 43.06 16.00 43.40 18.00 C 35.79 18.01 28.17 17.99 20.56 18.01 C 20.02 21.94 19.50 26.12 21.17 29.86 C 21.50 30.92 22.55 32.56 21.01 33.24 C 19.45 34.14 18.66 31.98 17.94 31.03 Z" />
</g>
<g id="#000000ff">
<path fill="#000000" opacity="1.00" d=" M 15.16 8.15 C 24.76 7.84 34.40 8.02 44.01 8.05 C 45.89 7.88 46.05 10.16 46.33 11.48 C 47.30 17.84 49.27 24.66 46.62 30.87 C 44.16 36.83 38.37 41.10 32.01 41.94 C 32.17 44.06 31.58 46.48 32.30 48.42 C 35.11 49.15 38.04 49.32 40.81 50.19 C 42.80 50.81 42.13 54.20 40.04 53.94 C 33.35 54.05 26.65 54.05 19.96 53.94 C 17.88 54.21 17.19 50.75 19.23 50.21 C 22.08 49.46 25.00 49.01 27.89 48.49 C 28.00 46.31 28.05 44.13 27.99 41.95 C 19.60 40.89 12.37 33.59 12.05 25.03 C 12.06 19.70 13.02 14.39 14.21 9.21 C 14.44 8.95 14.92 8.41 15.16 8.15 M 17.94 31.03 C 18.66 31.98 19.45 34.14 21.01 33.24 C 22.55 32.56 21.50 30.92 21.17 29.86 C 19.50 26.12 20.02 21.94 20.56 18.01 C 28.17 17.99 35.79 18.01 43.40 18.00 C 43.06 16.00 42.70 13.99 42.35 11.99 C 34.12 12.00 25.90 12.02 17.67 11.98 C 16.69 18.20 14.43 25.20 17.94 31.03 Z" />
</g>
</svg>
