<?xml version="1.0" encoding="UTF-8" ?>
<!DOCTYPE svg PUBLIC "-//W3C//DTD SVG 1.1//EN" "http://www.w3.org/Graphics/SVG/1.1/DTD/svg11.dtd">
<svg width="60pt" height="60pt" viewBox="0 0 60 60" version="1.1" xmlns="http://www.w3.org/2000/svg">
<g id="#ffffffff">
<path fill="#ffffff" opacity="1.00" d=" M 0.00 0.00 L 60.00 0.00 L 60.00 60.00 L 0.00 60.00 L 0.00 0.00 M 26.08 4.18 C 24.66 4.94 24.65 7.10 26.12 7.82 C 28.66 8.14 31.26 8.15 33.80 7.83 C 35.35 7.19 35.35 4.93 33.90 4.18 C 31.31 3.85 28.67 3.86 26.08 4.18 M 26.00 12.00 C 26.00 14.60 26.00 17.19 25.98 19.79 C 23.02 21.02 20.21 23.42 20.13 26.87 C 19.86 34.61 20.00 42.38 20.05 50.13 C 19.97 52.21 21.91 53.98 23.94 53.95 C 27.98 54.06 32.03 54.06 36.08 53.95 C 38.12 53.99 39.99 52.13 39.95 50.08 C 40.10 43.75 39.93 37.42 40.02 31.08 C 39.97 28.28 40.22 25.10 38.32 22.79 C 37.27 21.32 35.52 20.67 34.02 19.79 C 33.99 17.19 34.00 14.60 34.00 12.00 C 31.33 12.00 28.67 12.00 26.00 12.00 Z" />
<path fill="#ffffff" opacity="1.00" d=" M 25.16 28.16 C 28.40 27.86 31.68 27.86 34.92 28.18 C 37.13 31.04 35.70 35.44 35.82 38.89 C 33.01 41.16 28.57 39.68 25.13 39.83 C 22.82 37.05 24.33 32.59 24.17 29.16 C 24.41 28.91 24.91 28.41 25.16 28.16 Z" />
<path fill="#ffffff" opacity="1.00" d=" M 25.10 44.17 C 28.34 43.86 31.63 43.86 34.88 44.17 C 36.34 44.91 36.33 47.09 34.88 47.82 C 31.65 48.14 28.37 48.14 25.14 47.83 C 23.65 47.12 23.66 44.94 25.10 44.17 Z" />
</g>
<g id="#000000ff">
<path fill="#968176" opacity="1.00" d=" M 26.08 4.18 C 28.67 3.86 31.31 3.85 33.90 4.18 C 35.35 4.93 35.35 7.19 33.80 7.83 C 31.26 8.15 28.66 8.14 26.12 7.82 C 24.65 7.10 24.66 4.94 26.08 4.18 Z" />
<path fill="#968176" opacity="1.00" d=" M 26.00 12.00 C 28.67 12.00 31.33 12.00 34.00 12.00 C 34.00 14.60 33.99 17.19 34.02 19.79 C 35.52 20.67 37.27 21.32 38.32 22.79 C 40.22 25.10 39.97 28.28 40.02 31.08 C 39.93 37.42 40.10 43.75 39.95 50.08 C 39.99 52.13 38.12 53.99 36.08 53.95 C 32.03 54.06 27.98 54.06 23.94 53.95 C 21.91 53.98 19.97 52.21 20.05 50.13 C 20.00 42.38 19.86 34.61 20.13 26.87 C 20.21 23.42 23.02 21.02 25.98 19.79 C 26.00 17.19 26.00 14.60 26.00 12.00 M 25.16 28.16 C 24.91 28.41 24.41 28.91 24.17 29.16 C 24.33 32.59 22.82 37.05 25.13 39.83 C 28.57 39.68 33.01 41.16 35.82 38.89 C 35.70 35.44 37.13 31.04 34.92 28.18 C 31.68 27.86 28.40 27.86 25.16 28.16 M 25.10 44.17 C 23.66 44.94 23.65 47.12 25.14 47.83 C 28.37 48.14 31.65 48.14 34.88 47.82 C 36.33 47.09 36.34 44.91 34.88 44.17 C 31.63 43.86 28.34 43.86 25.10 44.17 Z" />
</g>
</svg>
