<?xml version="1.0" encoding="UTF-8" ?>
<!DOCTYPE svg PUBLIC "-//W3C//DTD SVG 1.1//EN" "http://www.w3.org/Graphics/SVG/1.1/DTD/svg11.dtd">
<svg width="64pt" height="64pt" viewBox="0 0 64 64" version="1.1" xmlns="http://www.w3.org/2000/svg">
<g id="#ffffffff">
<path fill="#ffffff" opacity="1.00" d=" M 0.00 0.00 L 64.00 0.00 L 64.00 64.00 L 0.00 64.00 L 0.00 0.00 M 12.00 6.00 C 12.00 23.33 12.00 40.67 12.00 58.00 C 25.33 58.00 38.67 58.00 52.00 58.00 C 52.00 45.06 51.99 32.11 52.00 19.17 C 47.62 14.77 43.23 10.38 38.83 5.99 C 29.89 6.01 20.94 6.00 12.00 6.00 Z" />
<path fill="#ffffff" opacity="1.00" d=" M 16.00 10.00 C 22.67 10.00 29.33 10.00 36.00 10.00 C 36.00 14.00 36.00 18.00 36.00 22.00 C 40.00 22.00 44.00 22.00 48.00 22.00 C 48.00 32.67 48.00 43.33 48.00 54.00 C 37.33 54.00 26.67 54.00 16.00 54.00 C 16.00 39.33 16.00 24.67 16.00 10.00 M 22.00 30.00 C 22.00 31.33 22.00 32.67 22.00 34.00 C 24.67 34.00 27.33 34.00 30.00 34.00 C 30.00 32.67 30.00 31.33 30.00 30.00 C 27.33 30.00 24.67 30.00 22.00 30.00 M 37.17 30.19 C 34.81 31.07 36.46 34.93 38.72 33.85 C 41.27 33.04 39.51 28.92 37.17 30.19 M 22.43 41.45 C 25.09 43.83 28.27 46.04 31.99 45.98 C 35.73 46.04 38.90 43.82 41.57 41.45 C 40.54 40.55 39.53 39.63 38.52 38.71 C 36.60 40.20 34.56 41.92 32.00 42.00 C 29.43 41.93 27.40 40.18 25.45 38.72 C 24.46 39.64 23.45 40.55 22.43 41.45 Z" />
<path fill="#ffffff" opacity="1.00" d=" M 40.00 12.81 C 41.73 14.54 43.46 16.27 45.19 18.00 C 43.46 18.00 41.73 18.00 40.00 18.00 C 40.00 16.27 40.00 14.54 40.00 12.81 Z" />
</g>
<g id="#000000ff">
<path fill="#000000" opacity="1.00" d=" M 12.00 6.00 C 20.94 6.00 29.89 6.01 38.83 5.99 C 43.23 10.38 47.62 14.77 52.00 19.17 C 51.99 32.11 52.00 45.06 52.00 58.00 C 38.67 58.00 25.33 58.00 12.00 58.00 C 12.00 40.67 12.00 23.33 12.00 6.00 M 16.00 10.00 C 16.00 24.67 16.00 39.33 16.00 54.00 C 26.67 54.00 37.33 54.00 48.00 54.00 C 48.00 43.33 48.00 32.67 48.00 22.00 C 44.00 22.00 40.00 22.00 36.00 22.00 C 36.00 18.00 36.00 14.00 36.00 10.00 C 29.33 10.00 22.67 10.00 16.00 10.00 M 40.00 12.81 C 40.00 14.54 40.00 16.27 40.00 18.00 C 41.73 18.00 43.46 18.00 45.19 18.00 C 43.46 16.27 41.73 14.54 40.00 12.81 Z" />
<path fill="#000000" opacity="1.00" d=" M 22.00 30.00 C 24.67 30.00 27.33 30.00 30.00 30.00 C 30.00 31.33 30.00 32.67 30.00 34.00 C 27.33 34.00 24.67 34.00 22.00 34.00 C 22.00 32.67 22.00 31.33 22.00 30.00 Z" />
<path fill="#000000" opacity="1.00" d=" M 37.17 30.19 C 39.51 28.92 41.27 33.04 38.72 33.85 C 36.46 34.93 34.81 31.07 37.17 30.19 Z" />
<path fill="#000000" opacity="1.00" d=" M 22.43 41.45 C 23.45 40.55 24.46 39.64 25.45 38.72 C 27.40 40.18 29.43 41.93 32.00 42.00 C 34.56 41.92 36.60 40.20 38.52 38.71 C 39.53 39.63 40.54 40.55 41.57 41.45 C 38.90 43.82 35.73 46.04 31.99 45.98 C 28.27 46.04 25.09 43.83 22.43 41.45 Z" />
</g>
</svg>
