<?xml version="1.0" encoding="UTF-8" ?>
<!DOCTYPE svg PUBLIC "-//W3C//DTD SVG 1.1//EN" "http://www.w3.org/Graphics/SVG/1.1/DTD/svg11.dtd">
<svg width="64pt" height="64pt" viewBox="0 0 64 64" version="1.1" xmlns="http://www.w3.org/2000/svg">
<g id="#ffffffff">
<path fill="#ffffff" opacity="1.00" d=" M 0.00 0.00 L 64.00 0.00 L 64.00 59.46 C 62.26 58.20 60.67 56.76 59.16 55.24 C 60.06 52.84 61.30 50.55 61.92 48.06 C 61.38 45.57 60.31 43.16 59.03 40.98 C 56.81 39.67 54.33 38.89 52.00 37.81 C 52.00 31.59 52.00 25.37 52.00 19.15 C 47.61 14.77 43.23 10.39 38.85 6.00 C 29.90 6.00 20.95 6.00 12.00 6.00 C 12.00 23.33 12.00 40.67 12.00 58.00 C 21.99 58.00 31.99 58.00 41.98 58.00 C 41.49 58.50 40.51 59.50 40.01 60.00 C 41.00 60.00 42.98 60.00 43.97 60.00 C 44.06 61.33 44.15 62.66 44.23 64.00 L 0.00 64.00 L 0.00 0.00 Z" />
<path fill="#ffffff" opacity="1.00" d=" M 16.00 10.00 C 22.67 10.00 29.33 10.00 36.00 10.00 C 36.00 14.00 36.00 18.00 36.00 22.00 C 40.00 22.00 44.00 22.00 48.00 22.00 C 48.00 27.81 48.00 33.63 48.00 39.44 C 43.83 40.16 43.36 44.78 41.97 48.01 C 42.56 50.07 43.61 51.95 44.33 53.95 C 34.89 54.06 25.44 53.97 16.00 54.00 C 16.00 39.33 16.00 24.67 16.00 10.00 M 22.00 28.00 C 22.00 29.33 22.00 30.67 22.00 32.00 C 28.67 32.00 35.33 32.00 42.00 32.00 C 42.00 30.67 42.00 29.33 42.00 28.00 C 35.33 28.00 28.67 28.00 22.00 28.00 M 22.00 36.00 C 22.00 37.33 22.00 38.67 22.00 40.00 C 28.67 40.00 35.33 40.00 42.00 40.00 C 42.00 38.67 42.00 37.33 42.00 36.00 C 35.33 36.00 28.67 36.00 22.00 36.00 M 22.00 44.00 C 22.00 45.33 22.00 46.67 22.00 48.00 C 26.67 48.00 31.33 48.00 36.00 48.00 C 36.00 46.67 36.00 45.33 36.00 44.00 C 31.33 44.00 26.67 44.00 22.00 44.00 Z" />
<path fill="#ffffff" opacity="1.00" d=" M 40.00 12.82 C 41.73 14.54 43.46 16.27 45.18 17.99 C 43.45 18.00 41.73 18.00 40.00 18.00 C 40.00 16.27 40.00 14.55 40.00 12.82 Z" />
<path fill="#ffffff" opacity="1.00" d=" M 47.99 43.98 C 49.36 43.45 50.72 42.88 52.06 42.27 C 53.36 42.88 54.68 43.46 56.02 43.99 C 56.55 45.35 57.13 46.68 57.74 48.00 C 57.13 49.32 56.54 50.66 56.01 52.01 C 54.65 52.54 53.32 53.13 52.00 53.75 C 50.68 53.13 49.34 52.55 47.99 52.01 C 47.45 50.66 46.87 49.32 46.26 48.00 C 46.87 46.68 47.46 45.34 47.99 43.98 Z" />
<path fill="#ffffff" opacity="1.00" d=" M 44.60 64.00 C 46.17 61.70 48.18 59.75 50.16 57.80 C 51.39 57.81 52.63 57.81 53.86 57.81 C 55.90 59.85 57.91 61.92 59.90 64.00 L 44.60 64.00 Z" />
<path fill="#ffffff" opacity="1.00" d=" M 59.95 59.96 C 61.30 59.93 62.65 59.92 64.00 59.93 L 64.00 64.00 L 60.14 64.00 C 60.06 62.65 60.00 61.31 59.95 59.96 Z" />
</g>
<g id="#000000ff">
<path fill="#000000" opacity="1.00" d=" M 12.00 6.00 C 20.95 6.00 29.90 6.00 38.85 6.00 C 43.23 10.39 47.61 14.77 52.00 19.15 C 52.00 25.37 52.00 31.59 52.00 37.81 C 54.33 38.89 56.81 39.67 59.03 40.98 C 60.31 43.16 61.38 45.57 61.92 48.06 C 61.30 50.55 60.06 52.84 59.16 55.24 C 60.67 56.76 62.26 58.20 64.00 59.46 L 64.00 59.93 C 62.65 59.92 61.30 59.93 59.95 59.96 C 60.00 61.31 60.06 62.65 60.14 64.00 L 59.90 64.00 C 57.91 61.92 55.90 59.85 53.86 57.81 C 52.63 57.81 51.39 57.81 50.16 57.80 C 48.18 59.75 46.17 61.70 44.60 64.00 L 44.23 64.00 C 44.15 62.66 44.06 61.33 43.97 60.00 C 42.98 60.00 41.00 60.00 40.01 60.00 C 40.51 59.50 41.49 58.50 41.98 58.00 C 31.99 58.00 21.99 58.00 12.00 58.00 C 12.00 40.67 12.00 23.33 12.00 6.00 M 16.00 10.00 C 16.00 24.67 16.00 39.33 16.00 54.00 C 25.44 53.97 34.89 54.06 44.33 53.95 C 43.61 51.95 42.56 50.07 41.97 48.01 C 43.36 44.78 43.83 40.16 48.00 39.44 C 48.00 33.63 48.00 27.81 48.00 22.00 C 44.00 22.00 40.00 22.00 36.00 22.00 C 36.00 18.00 36.00 14.00 36.00 10.00 C 29.33 10.00 22.67 10.00 16.00 10.00 M 40.00 12.82 C 40.00 14.55 40.00 16.27 40.00 18.00 C 41.73 18.00 43.45 18.00 45.18 17.99 C 43.46 16.27 41.73 14.54 40.00 12.82 M 47.99 43.98 C 47.46 45.34 46.87 46.68 46.26 48.00 C 46.87 49.32 47.45 50.66 47.99 52.01 C 49.34 52.55 50.68 53.13 52.00 53.75 C 53.32 53.13 54.65 52.54 56.01 52.01 C 56.54 50.66 57.13 49.32 57.74 48.00 C 57.13 46.68 56.55 45.35 56.02 43.99 C 54.68 43.46 53.36 42.88 52.06 42.27 C 50.72 42.88 49.36 43.45 47.99 43.98 Z" />
<path fill="#000000" opacity="1.00" d=" M 22.00 28.00 C 28.67 28.00 35.33 28.00 42.00 28.00 C 42.00 29.33 42.00 30.67 42.00 32.00 C 35.33 32.00 28.67 32.00 22.00 32.00 C 22.00 30.67 22.00 29.33 22.00 28.00 Z" />
<path fill="#000000" opacity="1.00" d=" M 22.00 36.00 C 28.67 36.00 35.33 36.00 42.00 36.00 C 42.00 37.33 42.00 38.67 42.00 40.00 C 35.33 40.00 28.67 40.00 22.00 40.00 C 22.00 38.67 22.00 37.33 22.00 36.00 Z" />
<path fill="#000000" opacity="1.00" d=" M 22.00 44.00 C 26.67 44.00 31.33 44.00 36.00 44.00 C 36.00 45.33 36.00 46.67 36.00 48.00 C 31.33 48.00 26.67 48.00 22.00 48.00 C 22.00 46.67 22.00 45.33 22.00 44.00 Z" />
</g>
</svg>
