<?xml version="1.0" encoding="UTF-8" ?>
<!DOCTYPE svg PUBLIC "-//W3C//DTD SVG 1.1//EN" "http://www.w3.org/Graphics/SVG/1.1/DTD/svg11.dtd">
<svg width="64pt" height="64pt" viewBox="0 0 64 64" version="1.1" xmlns="http://www.w3.org/2000/svg">
<g id="#ffffffff">
<path fill="#ffffff" opacity="1.00" d=" M 0.00 0.00 L 64.00 0.00 L 64.00 64.00 L 0.00 64.00 L 0.00 0.00 M 18.58 19.86 C 14.11 19.80 10.42 23.19 9.82 27.56 C 3.35 31.45 1.98 41.30 7.59 46.52 C 12.52 51.56 20.08 49.62 26.36 50.01 C 25.05 48.71 23.76 47.39 22.48 46.06 C 19.68 45.97 16.86 46.18 14.09 45.74 C 9.37 44.75 6.59 39.01 8.72 34.69 C 9.65 32.32 11.95 31.07 14.09 29.97 C 13.03 26.22 16.46 22.89 20.18 24.22 C 23.42 19.98 28.76 17.13 34.20 18.20 C 40.26 19.00 44.80 24.19 46.02 29.99 C 50.79 29.87 55.08 32.21 59.41 33.88 C 57.55 29.62 53.64 26.54 49.02 25.91 C 46.65 20.01 41.38 15.24 34.99 14.28 C 28.97 13.12 22.79 15.56 18.58 19.86 M 24.16 42.15 C 25.09 43.09 26.02 44.02 26.96 44.96 C 31.76 40.38 38.34 37.60 45.03 37.99 C 51.04 38.16 56.74 40.89 61.06 44.99 C 61.96 44.01 62.86 43.04 63.77 42.07 C 59.64 38.28 54.56 35.42 48.99 34.48 C 40.08 32.74 30.63 35.89 24.16 42.15 M 29.76 47.78 C 30.69 48.70 31.62 49.63 32.55 50.55 C 38.77 44.62 49.22 44.62 55.44 50.55 C 56.37 49.63 57.30 48.72 58.24 47.80 C 50.76 40.12 37.26 40.12 29.76 47.78 M 35.53 53.49 C 36.44 54.42 37.35 55.35 38.27 56.28 C 41.58 53.55 46.41 53.55 49.72 56.29 C 50.64 55.36 51.56 54.43 52.48 53.49 C 47.91 48.93 40.11 48.96 35.53 53.49 M 41.04 58.95 C 42.02 59.98 43.01 61.00 44.00 62.02 C 44.99 61.00 45.98 59.98 46.97 58.96 C 45.08 57.84 42.93 57.82 41.04 58.95 Z" />
</g>
<g id="#000000ff">
<path fill="#000000" opacity="1.00" d=" M 18.58 19.86 C 22.79 15.56 28.97 13.12 34.99 14.28 C 41.38 15.24 46.65 20.01 49.02 25.91 C 53.64 26.54 57.55 29.62 59.41 33.88 C 55.08 32.21 50.79 29.87 46.02 29.99 C 44.80 24.19 40.26 19.00 34.20 18.20 C 28.76 17.13 23.42 19.98 20.18 24.22 C 16.46 22.89 13.03 26.22 14.09 29.97 C 11.95 31.07 9.65 32.32 8.72 34.69 C 6.59 39.01 9.37 44.75 14.09 45.74 C 16.86 46.18 19.68 45.97 22.48 46.06 C 23.76 47.39 25.05 48.71 26.36 50.01 C 20.08 49.62 12.52 51.56 7.59 46.52 C 1.98 41.30 3.35 31.45 9.82 27.56 C 10.42 23.19 14.11 19.80 18.58 19.86 Z" />
<path fill="#000000" opacity="1.00" d=" M 24.16 42.15 C 30.63 35.89 40.08 32.74 48.99 34.48 C 54.56 35.42 59.64 38.28 63.77 42.07 C 62.86 43.04 61.96 44.01 61.06 44.99 C 56.74 40.89 51.04 38.16 45.03 37.99 C 38.34 37.60 31.76 40.38 26.96 44.96 C 26.02 44.02 25.09 43.09 24.16 42.15 Z" />
<path fill="#000000" opacity="1.00" d=" M 29.76 47.78 C 37.26 40.12 50.76 40.12 58.24 47.80 C 57.30 48.72 56.37 49.63 55.44 50.55 C 49.22 44.62 38.77 44.62 32.55 50.55 C 31.62 49.63 30.69 48.70 29.76 47.78 Z" />
<path fill="#000000" opacity="1.00" d=" M 35.53 53.49 C 40.11 48.96 47.91 48.93 52.48 53.49 C 51.56 54.43 50.64 55.36 49.72 56.29 C 46.41 53.55 41.58 53.55 38.27 56.28 C 37.35 55.35 36.44 54.42 35.53 53.49 Z" />
<path fill="#000000" opacity="1.00" d=" M 41.04 58.95 C 42.93 57.82 45.08 57.84 46.97 58.96 C 45.98 59.98 44.99 61.00 44.00 62.02 C 43.01 61.00 42.02 59.98 41.04 58.95 Z" />
</g>
</svg>
