<?xml version="1.0" encoding="UTF-8" ?>
<!DOCTYPE svg PUBLIC "-//W3C//DTD SVG 1.1//EN" "http://www.w3.org/Graphics/SVG/1.1/DTD/svg11.dtd">
<svg width="60pt" height="60pt" viewBox="0 0 60 60" version="1.1" xmlns="http://www.w3.org/2000/svg">
<g id="#ffffffff">
<path fill="#ffffff" opacity="1.00" d=" M 0.00 0.00 L 60.00 0.00 L 60.00 60.00 L 0.00 60.00 L 0.00 0.00 M 4.03 5.99 C 4.05 10.51 3.77 15.04 4.28 19.54 C 5.53 19.78 6.78 20.00 8.03 20.21 C 8.02 30.11 7.91 40.03 8.06 49.93 C 7.91 51.39 9.47 52.33 10.77 51.93 C 12.21 51.13 11.96 49.44 12.01 48.06 C 11.98 38.77 12.04 29.49 11.97 20.21 C 13.23 20.00 14.48 19.77 15.73 19.53 C 16.22 15.03 15.95 10.50 15.97 5.99 C 14.80 5.99 13.62 5.99 12.45 5.99 C 12.42 8.90 7.58 8.90 7.55 5.99 C 6.38 5.99 5.20 5.99 4.03 5.99 M 20.00 8.01 C 20.00 9.34 20.00 10.66 20.00 11.99 C 30.00 12.01 40.00 12.00 50.00 12.00 C 50.00 20.00 50.00 28.00 50.00 36.00 C 38.67 35.99 27.33 36.01 15.99 36.00 C 16.01 38.67 16.01 41.33 15.99 44.00 C 27.33 43.96 38.66 44.07 49.99 43.96 C 52.11 44.05 54.04 42.12 53.96 40.00 C 54.03 30.67 54.03 21.33 53.96 12.00 C 54.04 9.88 52.15 7.91 50.00 8.04 C 40.00 7.94 30.00 8.03 20.00 8.01 M 19.21 48.16 C 17.20 48.92 17.91 52.16 20.05 51.93 C 26.68 52.06 33.31 52.06 39.93 51.93 C 42.60 52.22 42.64 47.75 39.94 48.07 C 33.03 48.00 26.10 47.82 19.21 48.16 Z" />
<path fill="#ffffff" opacity="1.00" d=" M 29.20 38.09 C 31.62 37.18 33.14 40.84 30.79 41.90 C 28.38 42.84 26.86 39.15 29.20 38.09 Z" />
</g>
<g id="#000000ff">
<path fill="#000000" opacity="1.00" d=" M 4.03 5.99 C 5.20 5.99 6.38 5.99 7.55 5.99 C 7.58 8.90 12.42 8.90 12.45 5.99 C 13.62 5.99 14.80 5.99 15.97 5.99 C 15.95 10.50 16.22 15.03 15.73 19.53 C 14.48 19.77 13.23 20.00 11.97 20.21 C 12.04 29.49 11.98 38.77 12.01 48.06 C 11.96 49.44 12.21 51.13 10.77 51.93 C 9.47 52.33 7.91 51.39 8.06 49.93 C 7.91 40.03 8.02 30.11 8.03 20.21 C 6.78 20.00 5.53 19.78 4.28 19.54 C 3.77 15.04 4.05 10.51 4.03 5.99 Z" />
<path fill="#000000" opacity="1.00" d=" M 20.00 8.01 C 30.00 8.03 40.00 7.94 50.00 8.04 C 52.15 7.91 54.04 9.88 53.96 12.00 C 54.03 21.33 54.03 30.67 53.96 40.00 C 54.04 42.12 52.11 44.05 49.99 43.96 C 38.66 44.07 27.33 43.96 15.99 44.00 C 16.01 41.33 16.01 38.67 15.99 36.00 C 27.33 36.01 38.67 35.99 50.00 36.00 C 50.00 28.00 50.00 20.00 50.00 12.00 C 40.00 12.00 30.00 12.01 20.00 11.99 C 20.00 10.66 20.00 9.34 20.00 8.01 M 29.20 38.09 C 26.86 39.15 28.38 42.84 30.79 41.90 C 33.14 40.84 31.62 37.18 29.20 38.09 Z" />
<path fill="#000000" opacity="1.00" d=" M 19.21 48.16 C 26.10 47.82 33.03 48.00 39.94 48.07 C 42.64 47.75 42.60 52.22 39.93 51.93 C 33.31 52.06 26.68 52.06 20.05 51.93 C 17.91 52.16 17.20 48.92 19.21 48.16 Z" />
</g>
</svg>
