<?xml version="1.0" encoding="UTF-8" ?>
<!DOCTYPE svg PUBLIC "-//W3C//DTD SVG 1.1//EN" "http://www.w3.org/Graphics/SVG/1.1/DTD/svg11.dtd">
<svg width="60pt" height="60pt" viewBox="0 0 60 60" version="1.1" xmlns="http://www.w3.org/2000/svg">
<g id="#ffffffff">
<path fill="#ffffff" opacity="1.00" d=" M 0.00 0.00 L 60.00 0.00 L 60.00 60.00 L 0.00 60.00 L 0.00 0.00 M 10.30 8.40 C 8.57 9.20 7.82 11.14 8.00 12.95 C 8.03 24.66 7.93 36.37 8.05 48.07 C 7.92 50.66 10.65 52.35 13.01 52.00 C 24.37 52.00 35.74 52.01 47.10 52.00 C 49.45 52.34 52.01 50.57 51.95 48.08 C 52.07 36.36 51.97 24.64 52.00 12.92 C 52.33 10.57 50.61 7.91 48.06 8.05 C 37.04 7.91 26.02 8.07 15.00 7.98 C 13.44 8.07 11.78 7.79 10.30 8.40 Z" />
<path fill="#ffffff" opacity="1.00" d=" M 12.00 12.00 C 24.00 12.00 36.00 12.00 48.00 12.00 C 48.00 18.67 48.00 25.33 48.00 32.00 C 36.00 32.00 24.00 32.00 12.00 32.00 C 12.00 25.33 12.00 18.67 12.00 12.00 M 13.98 16.01 C 15.28 17.99 16.82 19.84 17.82 22.01 C 18.23 24.17 17.22 28.83 20.93 27.87 C 22.84 26.27 21.34 23.37 22.47 21.38 C 23.53 19.51 24.81 17.78 26.01 16.01 C 22.00 16.00 17.99 16.00 13.98 16.01 M 41.11 16.09 C 38.87 18.96 40.27 23.40 40.21 26.86 C 41.36 29.28 44.75 27.42 43.98 25.02 C 43.52 22.18 45.81 15.61 41.11 16.09 M 35.06 18.09 C 33.37 19.52 34.15 21.99 33.96 23.92 C 33.99 25.34 33.81 28.18 35.98 27.92 C 38.54 28.08 37.92 24.65 38.05 23.00 C 38.20 20.93 38.21 17.16 35.06 18.09 M 29.10 22.11 C 26.97 23.59 27.59 28.94 30.91 27.89 C 32.94 26.32 32.48 21.06 29.10 22.11 Z" />
<path fill="#ffffff" opacity="1.00" d=" M 13.13 44.19 C 16.36 43.85 19.64 43.86 22.87 44.18 C 24.34 44.86 24.34 47.08 22.92 47.80 C 19.67 48.15 16.36 48.15 13.11 47.81 C 11.65 47.14 11.64 44.83 13.13 44.19 Z" />
</g>
<g id="#000000ff">
<path fill="#000000" opacity="1.00" d=" M 10.30 8.40 C 11.78 7.79 13.44 8.07 15.00 7.98 C 26.02 8.07 37.04 7.91 48.06 8.05 C 50.61 7.91 52.33 10.57 52.00 12.92 C 51.97 24.64 52.07 36.36 51.95 48.08 C 52.01 50.57 49.45 52.34 47.10 52.00 C 35.74 52.01 24.37 52.00 13.01 52.00 C 10.65 52.35 7.92 50.66 8.05 48.07 C 7.93 36.37 8.03 24.66 8.00 12.95 C 7.82 11.14 8.57 9.20 10.30 8.40 M 12.00 12.00 C 12.00 18.67 12.00 25.33 12.00 32.00 C 24.00 32.00 36.00 32.00 48.00 32.00 C 48.00 25.33 48.00 18.67 48.00 12.00 C 36.00 12.00 24.00 12.00 12.00 12.00 M 13.13 44.19 C 11.64 44.83 11.65 47.14 13.11 47.81 C 16.36 48.15 19.67 48.15 22.92 47.80 C 24.34 47.08 24.34 44.86 22.87 44.18 C 19.64 43.86 16.36 43.85 13.13 44.19 Z" />
<path fill="#000000" opacity="1.00" d=" M 13.98 16.01 C 17.99 16.00 22.00 16.00 26.01 16.01 C 24.81 17.78 23.53 19.51 22.47 21.38 C 21.34 23.37 22.84 26.27 20.93 27.87 C 17.22 28.83 18.23 24.17 17.82 22.01 C 16.82 19.84 15.28 17.99 13.98 16.01 Z" />
<path fill="#000000" opacity="1.00" d=" M 41.11 16.09 C 45.81 15.61 43.52 22.18 43.98 25.02 C 44.75 27.42 41.36 29.28 40.21 26.86 C 40.27 23.40 38.87 18.96 41.11 16.09 Z" />
<path fill="#000000" opacity="1.00" d=" M 35.06 18.09 C 38.21 17.16 38.20 20.93 38.05 23.00 C 37.92 24.65 38.54 28.08 35.98 27.92 C 33.81 28.18 33.99 25.34 33.96 23.92 C 34.15 21.99 33.37 19.52 35.06 18.09 Z" />
<path fill="#000000" opacity="1.00" d=" M 29.10 22.11 C 32.48 21.06 32.94 26.32 30.91 27.89 C 27.59 28.94 26.97 23.59 29.10 22.11 Z" />
</g>
</svg>
