<?xml version="1.0" encoding="UTF-8" ?>
<!DOCTYPE svg PUBLIC "-//W3C//DTD SVG 1.1//EN" "http://www.w3.org/Graphics/SVG/1.1/DTD/svg11.dtd">
<svg width="60pt" height="60pt" viewBox="0 0 60 60" version="1.1" xmlns="http://www.w3.org/2000/svg">
<g id="#ffffffff">
<path fill="#ffffff" opacity="1.00" d=" M 0.00 0.00 L 60.00 0.00 L 60.00 60.00 L 0.00 60.00 L 0.00 0.00 M 8.35 12.38 C 6.62 13.15 5.83 15.07 6.00 16.88 C 6.03 25.96 5.92 35.05 6.06 44.13 C 5.96 46.55 8.55 48.46 10.85 47.92 C 12.93 47.16 14.30 45.29 15.91 43.88 C 18.52 41.02 23.10 38.61 21.97 34.01 C 21.94 30.55 16.01 33.43 16.06 30.00 C 16.01 26.56 21.89 29.44 21.97 26.01 C 23.12 21.39 18.51 18.96 15.88 16.10 C 13.79 14.30 11.53 10.85 8.35 12.38 M 48.35 12.39 C 45.12 14.79 42.42 17.84 39.50 20.60 C 37.64 22.13 37.82 24.77 38.17 26.92 C 39.51 28.93 43.88 26.92 43.93 30.00 C 43.88 33.09 39.44 31.04 38.16 33.12 C 37.83 35.22 37.65 37.80 39.43 39.34 C 42.15 41.99 44.82 44.73 47.72 47.19 C 50.05 49.27 54.08 47.09 53.95 44.07 C 54.04 34.69 54.04 25.29 53.95 15.91 C 54.04 13.18 50.79 11.04 48.35 12.39 M 27.11 22.17 C 26.87 22.42 26.40 22.90 26.17 23.15 C 25.87 27.70 25.87 32.31 26.17 36.86 C 27.90 38.67 32.15 38.70 33.83 36.83 C 34.14 32.28 34.13 27.68 33.83 23.14 C 32.30 21.13 29.27 22.13 27.11 22.17 M 18.83 49.01 C 18.38 51.80 15.94 54.81 17.38 57.54 C 19.99 58.07 23.78 58.92 25.83 56.86 C 25.88 51.44 26.72 45.76 25.25 40.48 C 22.58 42.88 19.48 45.24 18.83 49.01 M 34.17 52.82 C 35.66 54.71 39.55 54.54 41.21 53.00 C 41.96 47.83 38.78 43.34 34.73 40.48 C 33.45 44.44 34.00 48.73 34.17 52.82 Z" />
</g>
<g id="#000000ff">
<path fill="#000000" opacity="1.00" d=" M 8.35 12.38 C 11.53 10.85 13.79 14.30 15.88 16.10 C 18.51 18.96 23.12 21.39 21.97 26.01 C 21.89 29.44 16.01 26.56 16.06 30.00 C 16.01 33.43 21.94 30.55 21.97 34.01 C 23.10 38.61 18.52 41.02 15.91 43.88 C 14.30 45.29 12.93 47.16 10.85 47.92 C 8.55 48.46 5.96 46.55 6.06 44.13 C 5.92 35.05 6.03 25.96 6.00 16.88 C 5.83 15.07 6.62 13.15 8.35 12.38 Z" />
<path fill="#000000" opacity="1.00" d=" M 48.35 12.39 C 50.79 11.04 54.04 13.18 53.95 15.91 C 54.04 25.29 54.04 34.69 53.95 44.07 C 54.08 47.09 50.05 49.27 47.72 47.19 C 44.82 44.73 42.15 41.99 39.43 39.34 C 37.65 37.80 37.83 35.22 38.16 33.12 C 39.44 31.04 43.88 33.09 43.93 30.00 C 43.88 26.92 39.51 28.93 38.17 26.92 C 37.82 24.77 37.64 22.13 39.50 20.60 C 42.42 17.84 45.12 14.79 48.35 12.39 Z" />
<path fill="#000000" opacity="1.00" d=" M 27.11 22.17 C 29.27 22.13 32.30 21.13 33.83 23.14 C 34.13 27.68 34.14 32.28 33.83 36.83 C 32.15 38.70 27.90 38.67 26.17 36.86 C 25.87 32.31 25.87 27.70 26.17 23.15 C 26.40 22.90 26.87 22.42 27.11 22.17 Z" />
<path fill="#000000" opacity="1.00" d=" M 18.83 49.01 C 19.48 45.24 22.58 42.88 25.25 40.48 C 26.72 45.76 25.88 51.44 25.83 56.86 C 23.78 58.92 19.99 58.07 17.38 57.54 C 15.94 54.81 18.38 51.80 18.83 49.01 Z" />
<path fill="#000000" opacity="1.00" d=" M 34.17 52.82 C 34.00 48.73 33.45 44.44 34.73 40.48 C 38.78 43.34 41.96 47.83 41.21 53.00 C 39.55 54.54 35.66 54.71 34.17 52.82 Z" />
</g>
</svg>
