<?xml version="1.0" encoding="UTF-8" ?>
<!DOCTYPE svg PUBLIC "-//W3C//DTD SVG 1.1//EN" "http://www.w3.org/Graphics/SVG/1.1/DTD/svg11.dtd">
<svg width="64pt" height="64pt" viewBox="0 0 64 64" version="1.1" xmlns="http://www.w3.org/2000/svg">
<g id="#ffffffff">
<path fill="#ffffff" opacity="1.00" d=" M 0.00 0.00 L 64.00 0.00 L 64.00 64.00 L 0.00 64.00 L 0.00 0.00 M 14.33 12.61 C 11.79 12.18 9.23 11.93 6.66 11.81 C 9.30 16.59 11.09 21.82 11.86 27.23 C 9.78 30.06 8.19 33.36 8.07 36.94 C 7.62 41.97 10.73 46.49 14.32 49.69 C 17.34 52.31 21.87 52.30 24.55 55.39 C 28.14 58.75 33.16 59.70 37.87 60.28 C 37.99 56.14 38.40 52.02 39.45 48.01 C 41.66 47.60 44.01 47.24 45.80 45.75 C 52.60 40.73 55.75 32.47 57.56 24.50 C 52.55 28.82 46.95 32.50 40.61 34.54 C 39.36 30.58 37.57 26.12 33.53 24.29 C 32.06 23.58 30.55 24.49 29.13 24.85 C 33.00 27.39 36.13 31.02 37.58 35.46 L 35.64 35.15 C 33.76 32.22 32.03 28.98 28.87 27.23 C 26.50 25.62 22.70 25.40 20.96 28.03 C 19.22 30.51 20.33 33.60 21.08 36.22 C 17.64 37.34 15.41 40.15 13.65 43.16 C 10.29 38.16 12.78 32.04 16.39 27.99 C 17.45 27.99 18.50 27.99 19.56 28.00 C 20.37 27.16 21.19 26.34 22.02 25.53 C 21.98 24.26 21.94 22.98 21.89 21.71 C 18.98 22.34 16.55 24.23 15.88 27.21 C 15.48 23.53 14.41 19.98 13.37 16.45 C 14.94 17.86 16.49 19.29 17.97 20.78 C 18.09 18.38 17.71 15.88 18.47 13.56 C 19.42 11.06 22.00 9.91 24.17 8.68 C 23.97 12.16 23.98 15.64 24.00 19.12 C 26.13 16.07 27.41 11.72 31.34 10.50 C 33.89 9.43 36.56 10.42 38.98 11.36 C 35.87 12.01 32.77 12.69 29.68 13.42 C 33.87 15.06 38.61 16.79 39.96 21.63 C 36.21 19.74 32.25 18.18 28.02 17.85 C 28.01 19.18 28.00 20.52 27.99 21.85 C 34.17 22.31 39.44 25.91 43.63 30.23 C 44.37 25.23 44.15 19.96 41.44 15.53 C 43.71 16.00 45.98 16.49 48.26 16.97 C 46.00 13.29 43.62 9.34 39.57 7.41 C 36.72 5.81 33.35 5.89 30.23 6.45 C 31.11 5.64 31.98 4.81 32.86 3.99 C 25.78 3.24 17.36 5.51 14.33 12.61 Z" />
<path fill="#ffffff" opacity="1.00" d=" M 24.01 29.78 C 28.99 30.59 32.27 35.65 32.13 40.51 C 31.18 37.66 29.74 34.97 26.83 33.73 C 26.40 34.57 25.96 35.40 25.53 36.23 C 24.68 34.17 24.05 32.02 24.01 29.78 Z" />
<path fill="#ffffff" opacity="1.00" d=" M 36.27 39.43 C 40.99 38.79 45.49 37.14 49.76 35.06 C 48.00 37.79 46.17 40.59 43.47 42.48 C 41.53 44.15 38.81 43.81 36.45 44.20 C 35.22 47.96 34.48 51.85 34.05 55.78 C 30.69 54.79 27.17 53.43 25.36 50.20 C 22.60 49.25 19.85 48.29 17.20 47.06 C 17.59 43.53 19.76 40.27 23.51 39.83 C 26.00 42.10 29.21 44.87 32.84 43.67 C 34.80 43.12 35.44 41.04 36.27 39.43 M 21.25 46.60 C 21.99 46.40 23.47 46.00 24.20 45.81 C 26.84 48.81 29.30 52.13 33.12 53.72 C 33.38 51.13 33.78 48.55 34.45 46.03 C 31.78 46.06 29.11 45.97 26.44 45.77 C 26.14 45.18 25.53 43.99 25.22 43.39 C 23.56 44.03 22.08 44.98 21.25 46.60 Z" />
<path fill="#ffffff" opacity="1.00" d=" M 26.95 36.27 C 28.36 36.00 28.87 36.57 28.49 37.95 C 27.11 38.20 26.59 37.64 26.95 36.27 Z" />
<path fill="#ffffff" opacity="1.00" d=" M 27.32 47.04 C 28.25 47.22 30.10 47.58 31.03 47.76 C 31.06 48.61 31.12 50.31 31.15 51.16 C 29.62 50.04 28.30 48.66 27.32 47.04 Z" />
</g>
<g id="#000000ff">
<path fill="#000000" opacity="1.00" d=" M 14.33 12.61 C 17.36 5.51 25.78 3.24 32.86 3.99 C 31.98 4.81 31.11 5.64 30.23 6.45 C 33.35 5.89 36.72 5.81 39.57 7.41 C 43.62 9.34 46.00 13.29 48.26 16.97 C 45.98 16.49 43.71 16.00 41.44 15.53 C 44.15 19.96 44.37 25.23 43.63 30.23 C 39.44 25.91 34.17 22.31 27.99 21.85 C 28.00 20.52 28.01 19.18 28.02 17.85 C 32.25 18.18 36.21 19.74 39.96 21.63 C 38.61 16.79 33.87 15.06 29.68 13.42 C 32.77 12.69 35.87 12.01 38.98 11.36 C 36.56 10.42 33.89 9.43 31.34 10.50 C 27.41 11.72 26.13 16.07 24.00 19.12 C 23.98 15.64 23.97 12.16 24.17 8.68 C 22.00 9.91 19.42 11.06 18.47 13.56 C 17.71 15.88 18.09 18.38 17.97 20.78 C 16.49 19.29 14.94 17.86 13.37 16.45 C 14.41 19.98 15.48 23.53 15.88 27.21 C 16.55 24.23 18.98 22.34 21.89 21.71 C 21.94 22.98 21.98 24.26 22.02 25.53 C 21.19 26.34 20.37 27.16 19.56 28.00 C 18.50 27.99 17.45 27.99 16.39 27.99 C 12.78 32.04 10.29 38.16 13.65 43.16 C 15.41 40.15 17.64 37.34 21.08 36.22 C 20.33 33.60 19.22 30.51 20.96 28.03 C 22.70 25.40 26.50 25.62 28.87 27.23 C 32.03 28.98 33.76 32.22 35.64 35.15 L 37.58 35.46 C 36.13 31.02 33.00 27.39 29.13 24.85 C 30.55 24.49 32.06 23.58 33.53 24.29 C 37.57 26.12 39.36 30.58 40.61 34.54 C 46.95 32.50 52.55 28.82 57.56 24.50 C 55.75 32.47 52.60 40.73 45.80 45.75 C 44.01 47.24 41.66 47.60 39.45 48.01 C 38.40 52.02 37.99 56.14 37.87 60.28 C 33.16 59.70 28.14 58.75 24.55 55.39 C 21.87 52.30 17.34 52.31 14.32 49.69 C 10.73 46.49 7.62 41.97 8.07 36.94 C 8.19 33.36 9.78 30.06 11.86 27.23 C 11.09 21.82 9.30 16.59 6.66 11.81 C 9.23 11.93 11.79 12.18 14.33 12.61 M 24.01 29.78 C 24.05 32.02 24.68 34.17 25.53 36.23 C 25.96 35.40 26.40 34.57 26.83 33.73 C 29.74 34.97 31.18 37.66 32.13 40.51 C 32.27 35.65 28.99 30.59 24.01 29.78 M 36.27 39.43 C 35.44 41.04 34.80 43.12 32.84 43.67 C 29.21 44.87 26.00 42.10 23.51 39.83 C 19.76 40.27 17.59 43.53 17.20 47.06 C 19.85 48.29 22.60 49.25 25.36 50.20 C 27.17 53.43 30.69 54.79 34.05 55.78 C 34.48 51.85 35.22 47.96 36.45 44.20 C 38.81 43.81 41.53 44.15 43.47 42.48 C 46.17 40.59 48.00 37.79 49.76 35.06 C 45.49 37.14 40.99 38.79 36.27 39.43 M 26.95 36.27 C 26.59 37.64 27.11 38.20 28.49 37.95 C 28.87 36.57 28.36 36.00 26.95 36.27 Z" />
<path fill="#000000" opacity="1.00" d=" M 21.25 46.60 C 22.08 44.98 23.56 44.03 25.22 43.39 C 25.53 43.99 26.14 45.18 26.44 45.77 C 29.11 45.97 31.78 46.06 34.45 46.03 C 33.78 48.55 33.38 51.13 33.12 53.72 C 29.30 52.13 26.84 48.81 24.20 45.81 C 23.47 46.00 21.99 46.40 21.25 46.60 M 27.32 47.04 C 28.30 48.66 29.62 50.04 31.15 51.16 C 31.12 50.31 31.06 48.61 31.03 47.76 C 30.10 47.58 28.25 47.22 27.32 47.04 Z" />
</g>
</svg>
