<?xml version="1.0" encoding="UTF-8" ?>
<!DOCTYPE svg PUBLIC "-//W3C//DTD SVG 1.1//EN" "http://www.w3.org/Graphics/SVG/1.1/DTD/svg11.dtd">
<svg width="64pt" height="64pt" viewBox="0 0 64 64" version="1.1" xmlns="http://www.w3.org/2000/svg">
<g id="#ffffffff">
<path fill="#ffffff" opacity="1.00" d=" M 0.00 0.00 L 64.00 0.00 L 64.00 64.00 L 0.00 64.00 L 0.00 0.00 M 14.08 12.99 C 13.61 15.52 14.91 17.79 16.27 19.79 C 11.27 24.49 11.50 31.87 9.56 38.01 C 10.92 38.00 12.29 37.99 13.65 37.99 C 14.75 33.87 15.40 29.63 16.83 25.61 C 17.83 22.86 21.13 21.21 23.90 22.36 C 26.24 23.27 27.39 25.74 27.92 28.03 C 29.23 33.33 30.31 38.68 31.56 44.00 C 26.37 44.00 21.19 44.00 16.00 44.00 C 16.00 48.67 16.00 53.33 16.00 58.00 C 17.33 58.00 18.67 58.00 20.00 58.00 C 19.99 54.67 20.01 51.33 20.00 48.00 C 21.33 48.00 22.67 48.00 24.00 48.00 C 23.99 51.33 24.01 54.67 24.00 58.00 C 25.33 58.00 26.67 58.00 28.00 58.00 C 27.99 54.67 28.01 51.33 28.00 48.00 C 30.81 48.01 33.63 47.99 36.44 48.00 C 34.78 40.71 33.35 33.37 31.55 26.12 C 31.02 23.69 29.42 21.77 27.84 19.93 C 30.36 18.16 32.71 16.16 34.89 13.99 C 31.64 10.94 28.28 7.62 23.89 6.31 C 19.46 4.94 14.51 8.44 14.08 12.99 M 43.15 37.60 C 39.53 40.66 39.84 45.53 40.00 49.82 C 40.67 50.49 41.34 51.16 42.00 51.84 C 42.01 53.89 41.99 55.95 42.00 58.00 C 43.33 58.00 44.67 58.00 46.00 58.00 C 46.01 55.39 45.99 52.78 46.00 50.18 C 45.32 49.50 44.65 48.83 43.97 48.15 C 44.06 46.22 43.77 44.22 44.35 42.34 C 45.34 39.84 49.00 39.20 50.83 41.16 C 52.62 43.02 51.81 45.84 52.03 48.15 C 51.35 48.83 50.67 49.50 50.00 50.18 C 50.01 52.78 49.99 55.39 50.00 58.00 C 51.33 58.00 52.67 58.00 54.00 58.00 C 54.01 55.95 53.99 53.89 54.00 51.84 C 54.66 51.16 55.33 50.49 56.00 49.82 C 56.16 45.53 56.46 40.65 52.83 37.59 C 55.66 33.79 52.89 27.74 48.00 28.00 C 43.10 27.74 40.34 33.79 43.15 37.60 M 8.00 42.00 C 8.00 46.00 8.00 50.00 8.00 54.00 C 9.33 54.00 10.67 54.00 12.00 54.00 C 12.00 50.00 12.00 46.00 12.00 42.00 C 10.67 42.00 9.33 42.00 8.00 42.00 Z" />
<path fill="#ffffff" opacity="1.00" d=" M 18.00 14.02 C 17.92 11.62 20.52 9.36 22.88 10.18 C 25.28 10.86 27.14 12.61 29.14 14.00 C 27.14 15.40 25.26 17.14 22.85 17.83 C 20.52 18.59 17.92 16.42 18.00 14.02 Z" />
<path fill="#ffffff" opacity="1.00" d=" M 47.17 32.08 C 49.65 30.95 51.24 35.10 48.74 35.86 C 46.32 36.98 44.84 33.05 47.17 32.08 Z" />
</g>
<g id="#000000ff">
<path fill="#000000" opacity="1.00" d=" M 14.08 12.99 C 14.51 8.44 19.46 4.94 23.89 6.31 C 28.28 7.62 31.64 10.94 34.89 13.99 C 32.71 16.16 30.36 18.16 27.84 19.93 C 29.42 21.77 31.02 23.69 31.55 26.12 C 33.35 33.37 34.78 40.71 36.44 48.00 C 33.63 47.99 30.81 48.01 28.00 48.00 C 28.01 51.33 27.99 54.67 28.00 58.00 C 26.67 58.00 25.33 58.00 24.00 58.00 C 24.01 54.67 23.99 51.33 24.00 48.00 C 22.67 48.00 21.33 48.00 20.00 48.00 C 20.01 51.33 19.99 54.67 20.00 58.00 C 18.67 58.00 17.33 58.00 16.00 58.00 C 16.00 53.33 16.00 48.67 16.00 44.00 C 21.19 44.00 26.37 44.00 31.56 44.00 C 30.31 38.68 29.23 33.33 27.92 28.03 C 27.39 25.74 26.24 23.27 23.90 22.36 C 21.13 21.21 17.83 22.86 16.83 25.61 C 15.40 29.63 14.75 33.87 13.65 37.99 C 12.29 37.99 10.92 38.00 9.56 38.01 C 11.50 31.87 11.27 24.49 16.27 19.79 C 14.91 17.79 13.61 15.52 14.08 12.99 M 18.00 14.02 C 17.92 16.42 20.52 18.59 22.85 17.83 C 25.26 17.14 27.14 15.40 29.14 14.00 C 27.14 12.61 25.28 10.86 22.88 10.18 C 20.52 9.36 17.92 11.62 18.00 14.02 Z" />
<path fill="#000000" opacity="1.00" d=" M 43.15 37.60 C 40.34 33.79 43.10 27.74 48.00 28.00 C 52.89 27.74 55.66 33.79 52.83 37.59 C 56.46 40.65 56.16 45.53 56.00 49.82 C 55.33 50.49 54.66 51.16 54.00 51.84 C 53.99 53.89 54.01 55.95 54.00 58.00 C 52.67 58.00 51.33 58.00 50.00 58.00 C 49.99 55.39 50.01 52.78 50.00 50.18 C 50.67 49.50 51.35 48.83 52.03 48.15 C 51.81 45.84 52.62 43.02 50.83 41.16 C 49.00 39.20 45.34 39.84 44.35 42.34 C 43.77 44.22 44.06 46.22 43.97 48.15 C 44.65 48.83 45.32 49.50 46.00 50.18 C 45.99 52.78 46.01 55.39 46.00 58.00 C 44.67 58.00 43.33 58.00 42.00 58.00 C 41.99 55.95 42.01 53.89 42.00 51.84 C 41.34 51.16 40.67 50.49 40.00 49.82 C 39.84 45.53 39.53 40.66 43.15 37.60 M 47.17 32.08 C 44.84 33.05 46.32 36.98 48.74 35.86 C 51.24 35.10 49.65 30.95 47.17 32.08 Z" />
<path fill="#000000" opacity="1.00" d=" M 8.00 42.00 C 9.33 42.00 10.67 42.00 12.00 42.00 C 12.00 46.00 12.00 50.00 12.00 54.00 C 10.67 54.00 9.33 54.00 8.00 54.00 C 8.00 50.00 8.00 46.00 8.00 42.00 Z" />
</g>
</svg>
