<?xml version="1.0" encoding="UTF-8" ?>
<!DOCTYPE svg PUBLIC "-//W3C//DTD SVG 1.1//EN" "http://www.w3.org/Graphics/SVG/1.1/DTD/svg11.dtd">
<svg width="60pt" height="60pt" viewBox="0 0 60 60" version="1.1" xmlns="http://www.w3.org/2000/svg">
<g id="#ffffffff">
<path fill="#ffffff" opacity="1.00" d=" M 0.00 0.00 L 60.00 0.00 L 60.00 60.00 L 0.00 60.00 L 0.00 0.00 M 13.75 9.83 C 10.19 9.96 7.86 12.74 7.76 16.20 C 10.80 16.05 13.62 14.39 14.01 11.15 C 14.96 15.06 19.72 17.44 23.21 15.06 C 27.45 12.65 26.55 5.54 21.82 4.29 C 17.97 2.90 14.35 6.13 13.75 9.83 M 39.45 4.57 C 35.49 6.23 34.81 12.22 38.31 14.71 C 41.64 17.58 47.43 15.30 47.92 10.94 C 48.86 6.41 43.54 2.40 39.45 4.57 M 34.16 24.88 C 33.78 29.61 34.04 34.36 34.09 39.10 C 34.57 39.37 35.53 39.92 36.01 40.19 C 36.07 44.13 35.83 48.07 36.08 52.00 C 35.90 54.07 39.14 54.79 39.87 52.86 C 40.71 47.94 40.55 42.91 41.13 37.96 C 41.56 38.09 42.42 38.36 42.85 38.50 C 43.64 43.22 43.18 48.08 44.12 52.77 C 44.68 54.83 48.06 54.10 47.91 52.04 C 48.18 48.19 47.89 44.32 48.03 40.46 C 48.48 40.00 49.38 39.10 49.83 38.65 C 50.17 34.09 50.10 29.48 49.85 24.93 C 49.54 21.89 46.58 20.35 43.93 19.70 C 42.45 23.71 43.62 27.90 44.02 31.98 C 43.51 32.49 42.50 33.51 41.99 34.01 C 41.49 33.49 40.49 32.45 39.98 31.93 C 40.37 27.87 41.57 23.69 40.07 19.70 C 37.44 20.34 34.48 21.86 34.16 24.88 M 13.21 25.21 C 12.16 29.59 10.49 33.95 10.19 38.43 C 11.86 40.23 11.92 42.98 13.97 44.48 C 14.05 47.25 13.79 50.04 14.21 52.79 C 14.80 54.36 17.37 54.43 17.89 52.76 C 18.49 49.88 18.43 46.92 18.65 44.00 C 19.32 44.00 20.67 44.00 21.35 44.00 C 21.56 46.94 21.53 49.92 22.11 52.83 C 22.75 54.44 25.13 54.33 25.80 52.80 C 26.20 50.05 25.95 47.25 26.03 44.47 C 27.73 43.35 27.89 41.29 28.94 39.74 C 30.83 37.94 29.23 35.40 28.91 33.30 C 27.47 28.48 27.41 22.05 21.81 20.03 C 20.50 23.95 21.65 28.01 22.02 31.98 C 21.51 32.49 20.50 33.51 19.99 34.01 C 19.49 33.49 18.49 32.45 17.98 31.93 C 18.34 27.98 19.53 23.92 18.18 20.02 C 16.07 21.22 13.73 22.63 13.21 25.21 Z" />
</g>
<g id="#000000ff">
<path fill="#000000" opacity="1.00" d=" M 13.75 9.83 C 14.35 6.13 17.97 2.90 21.82 4.29 C 26.55 5.54 27.45 12.65 23.21 15.06 C 19.72 17.44 14.96 15.06 14.01 11.15 C 13.62 14.39 10.80 16.05 7.76 16.20 C 7.86 12.74 10.19 9.96 13.75 9.83 Z" />
<path fill="#000000" opacity="1.00" d=" M 39.45 4.57 C 43.54 2.40 48.86 6.41 47.92 10.94 C 47.43 15.30 41.64 17.58 38.31 14.71 C 34.81 12.22 35.49 6.23 39.45 4.57 Z" />
<path fill="#000000" opacity="1.00" d=" M 34.16 24.88 C 34.48 21.86 37.44 20.34 40.07 19.70 C 41.57 23.69 40.37 27.87 39.98 31.93 C 40.49 32.45 41.49 33.49 41.99 34.01 C 42.50 33.51 43.51 32.49 44.02 31.98 C 43.62 27.90 42.45 23.71 43.93 19.70 C 46.58 20.35 49.54 21.89 49.85 24.93 C 50.10 29.48 50.17 34.09 49.83 38.65 C 49.38 39.10 48.48 40.00 48.03 40.46 C 47.89 44.32 48.18 48.19 47.91 52.04 C 48.06 54.10 44.68 54.83 44.12 52.77 C 43.18 48.08 43.64 43.22 42.85 38.50 C 42.42 38.36 41.56 38.09 41.13 37.96 C 40.55 42.91 40.71 47.94 39.87 52.86 C 39.14 54.79 35.90 54.07 36.08 52.00 C 35.83 48.07 36.07 44.13 36.01 40.19 C 35.53 39.92 34.57 39.37 34.09 39.10 C 34.04 34.36 33.78 29.61 34.16 24.88 Z" />
<path fill="#000000" opacity="1.00" d=" M 13.21 25.21 C 13.73 22.63 16.07 21.22 18.18 20.02 C 19.53 23.92 18.34 27.98 17.98 31.93 C 18.49 32.45 19.49 33.49 19.99 34.01 C 20.50 33.51 21.51 32.49 22.02 31.98 C 21.65 28.01 20.50 23.95 21.81 20.03 C 27.41 22.05 27.47 28.48 28.91 33.30 C 29.23 35.40 30.83 37.94 28.94 39.74 C 27.89 41.29 27.73 43.35 26.03 44.47 C 25.95 47.25 26.20 50.05 25.80 52.80 C 25.13 54.33 22.75 54.44 22.11 52.83 C 21.53 49.92 21.56 46.94 21.35 44.00 C 20.67 44.00 19.32 44.00 18.65 44.00 C 18.43 46.92 18.49 49.88 17.89 52.76 C 17.37 54.43 14.80 54.36 14.21 52.79 C 13.79 50.04 14.05 47.25 13.97 44.48 C 11.92 42.98 11.86 40.23 10.19 38.43 C 10.49 33.95 12.16 29.59 13.21 25.21 Z" />
</g>
</svg>
