<?xml version="1.0" encoding="UTF-8" ?>
<!DOCTYPE svg PUBLIC "-//W3C//DTD SVG 1.1//EN" "http://www.w3.org/Graphics/SVG/1.1/DTD/svg11.dtd">
<svg width="60pt" height="60pt" viewBox="0 0 60 60" version="1.1" xmlns="http://www.w3.org/2000/svg">
<g id="#ffffffff">
<path fill="#ffffff" opacity="1.00" d=" M 0.00 0.00 L 60.00 0.00 L 60.00 60.00 L 0.00 60.00 L 0.00 0.00 M 45.14 5.06 C 42.24 7.58 39.54 10.35 36.97 13.20 C 36.97 13.60 36.97 14.40 36.98 14.80 C 39.88 17.66 42.42 21.30 46.02 23.20 C 49.41 21.44 51.73 18.00 54.53 15.39 C 56.50 13.01 52.78 11.16 51.51 9.49 C 49.46 8.07 47.97 4.37 45.14 5.06 M 11.33 6.47 C 5.64 8.19 4.16 16.52 8.87 20.11 C 13.05 23.94 20.57 21.50 21.73 15.96 C 23.54 10.09 17.01 4.13 11.33 6.47 M 27.15 12.20 C 25.24 12.92 25.90 16.11 27.96 15.94 C 29.97 15.91 33.58 16.88 34.04 14.04 C 33.51 10.91 29.37 12.09 27.15 12.20 M 13.16 26.08 C 11.72 26.89 12.02 28.62 11.96 30.00 C 12.09 31.29 11.65 33.29 13.26 33.83 C 14.43 34.50 16.11 33.32 15.95 31.98 C 16.13 29.81 16.68 25.27 13.16 26.08 M 45.10 26.09 C 43.30 27.49 44.12 30.07 44.05 32.03 C 43.86 34.59 48.14 34.58 47.95 32.02 C 48.14 29.82 48.68 25.21 45.10 26.09 M 12.67 38.62 C 9.79 42.50 7.21 46.62 4.54 50.65 C 3.34 51.81 4.31 54.14 6.01 53.94 C 11.35 54.04 16.70 54.07 22.04 53.93 C 23.33 54.15 24.55 52.33 23.78 51.26 C 21.46 47.27 18.70 43.55 16.17 39.69 C 15.55 38.43 13.83 37.26 12.67 38.62 M 40.30 38.41 C 36.34 40.82 38.51 46.31 38.05 50.11 C 37.99 53.74 42.19 54.40 44.98 54.03 C 48.24 54.12 53.76 54.72 53.95 50.09 C 53.51 46.29 55.65 40.77 51.67 38.36 C 47.98 37.77 43.96 37.69 40.30 38.41 Z" />
</g>
<g id="#000000ff">
<path fill="#000000" opacity="1.00" d=" M 45.14 5.06 C 47.97 4.37 49.46 8.07 51.51 9.49 C 52.78 11.16 56.50 13.01 54.53 15.39 C 51.73 18.00 49.41 21.44 46.02 23.20 C 42.42 21.30 39.88 17.66 36.98 14.80 C 36.97 14.40 36.97 13.60 36.97 13.20 C 39.54 10.35 42.24 7.58 45.14 5.06 Z" />
<path fill="#000000" opacity="1.00" d=" M 11.33 6.47 C 17.01 4.13 23.54 10.09 21.73 15.96 C 20.57 21.50 13.05 23.94 8.87 20.11 C 4.16 16.52 5.64 8.19 11.33 6.47 Z" />
<path fill="#000000" opacity="1.00" d=" M 27.15 12.20 C 29.37 12.09 33.51 10.91 34.04 14.04 C 33.58 16.88 29.97 15.91 27.96 15.94 C 25.90 16.11 25.24 12.92 27.15 12.20 Z" />
<path fill="#000000" opacity="1.00" d=" M 13.16 26.08 C 16.68 25.27 16.13 29.81 15.95 31.98 C 16.11 33.32 14.43 34.50 13.26 33.83 C 11.65 33.29 12.09 31.29 11.96 30.00 C 12.02 28.62 11.72 26.89 13.16 26.08 Z" />
<path fill="#000000" opacity="1.00" d=" M 45.10 26.09 C 48.68 25.21 48.14 29.82 47.95 32.02 C 48.14 34.58 43.86 34.59 44.05 32.03 C 44.12 30.07 43.30 27.49 45.10 26.09 Z" />
<path fill="#000000" opacity="1.00" d=" M 12.67 38.62 C 13.83 37.26 15.55 38.43 16.17 39.69 C 18.70 43.55 21.46 47.27 23.78 51.26 C 24.55 52.33 23.33 54.15 22.04 53.93 C 16.70 54.07 11.35 54.04 6.01 53.94 C 4.31 54.14 3.34 51.81 4.54 50.65 C 7.21 46.62 9.79 42.50 12.67 38.62 Z" />
<path fill="#000000" opacity="1.00" d=" M 40.30 38.41 C 43.96 37.69 47.98 37.77 51.67 38.36 C 55.65 40.77 53.51 46.29 53.95 50.09 C 53.76 54.72 48.24 54.12 44.98 54.03 C 42.19 54.40 37.99 53.74 38.05 50.11 C 38.51 46.31 36.34 40.82 40.30 38.41 Z" />
</g>
</svg>
