<?xml version="1.0" encoding="UTF-8" ?>
<!DOCTYPE svg PUBLIC "-//W3C//DTD SVG 1.1//EN" "http://www.w3.org/Graphics/SVG/1.1/DTD/svg11.dtd">
<svg width="64pt" height="64pt" viewBox="0 0 64 64" version="1.1" xmlns="http://www.w3.org/2000/svg">
<g id="#ffffffff">
<path fill="#ffffff" opacity="1.00" d=" M 0.00 0.00 L 64.00 0.00 L 64.00 64.00 L 0.00 64.00 L 0.00 0.00 M 34.60 9.78 C 33.43 13.02 34.19 16.61 34.01 19.99 C 33.51 19.99 32.50 20.01 32.00 20.01 C 32.00 21.34 32.00 22.67 32.00 24.00 C 40.00 24.00 48.00 24.00 56.00 24.00 C 56.00 22.67 56.00 21.34 56.00 20.01 C 55.50 20.01 54.49 19.99 53.99 19.99 C 53.81 16.61 54.56 13.03 53.40 9.79 C 51.23 6.87 47.05 8.37 43.96 7.98 C 40.89 8.36 36.76 6.89 34.60 9.78 M 16.12 13.02 C 12.91 14.67 11.69 18.42 12.05 21.83 C 10.08 22.84 7.89 24.35 8.05 26.88 C 7.92 36.58 8.05 46.29 8.00 56.00 C 11.33 56.00 14.67 56.00 18.00 56.00 C 18.00 54.67 18.00 53.33 18.00 52.00 C 27.33 52.00 36.67 52.00 46.00 52.00 C 46.00 53.33 46.00 54.67 46.00 56.00 C 49.33 56.00 52.67 56.00 56.00 56.00 C 55.94 49.28 56.10 42.56 55.95 35.85 C 55.99 32.75 53.20 29.97 50.10 30.05 C 42.48 29.91 34.86 30.05 27.24 30.00 C 26.60 28.69 25.97 27.38 25.34 26.07 C 27.40 23.70 28.78 20.41 27.51 17.32 C 26.05 12.80 20.21 10.57 16.12 13.02 Z" />
<path fill="#ffffff" opacity="1.00" d=" M 38.00 12.00 C 42.00 12.00 46.00 12.00 50.00 12.00 C 50.00 14.67 50.00 17.33 50.00 20.00 C 46.00 20.00 42.00 20.00 38.00 20.00 C 38.00 17.33 38.00 14.67 38.00 12.00 Z" />
<path fill="#ffffff" opacity="1.00" d=" M 18.31 16.36 C 20.84 15.06 24.17 17.21 24.00 20.05 C 24.11 23.16 20.11 25.18 17.67 23.26 C 15.20 21.66 15.58 17.47 18.31 16.36 Z" />
<path fill="#ffffff" opacity="1.00" d=" M 12.02 26.33 C 12.51 26.31 13.47 26.28 13.95 26.26 C 14.05 32.17 13.98 38.09 14.00 44.00 C 26.67 44.00 39.33 44.00 52.00 44.00 C 52.00 46.67 52.00 49.33 52.00 52.00 C 51.50 52.00 50.50 52.00 50.00 52.00 C 50.00 50.67 50.00 49.33 50.00 48.00 C 38.00 48.00 26.00 48.00 14.00 48.00 C 14.00 49.33 14.00 50.67 14.00 52.00 C 13.50 52.00 12.50 52.00 12.00 52.00 C 12.01 43.44 11.97 34.88 12.02 26.33 Z" />
<path fill="#ffffff" opacity="1.00" d=" M 17.99 27.83 C 19.22 27.87 20.45 27.90 21.68 27.93 C 24.34 31.44 24.21 35.83 23.99 40.00 C 21.99 40.00 20.00 40.00 18.00 40.00 C 18.00 35.95 18.00 31.89 17.99 27.83 Z" />
<path fill="#ffffff" opacity="1.00" d=" M 28.00 34.00 C 35.63 34.13 43.28 33.75 50.89 34.18 C 52.75 35.47 51.70 38.10 52.05 40.00 C 44.03 40.00 36.02 40.00 28.00 40.00 C 28.00 38.00 28.00 36.00 28.00 34.00 Z" />
</g>
<g id="#000000ff">
<path fill="#000000" opacity="1.00" d=" M 34.60 9.78 C 36.76 6.89 40.89 8.36 43.96 7.98 C 47.05 8.37 51.23 6.87 53.40 9.79 C 54.56 13.03 53.81 16.61 53.99 19.99 C 54.49 19.99 55.50 20.01 56.00 20.01 C 56.00 21.34 56.00 22.67 56.00 24.00 C 48.00 24.00 40.00 24.00 32.00 24.00 C 32.00 22.67 32.00 21.34 32.00 20.01 C 32.50 20.01 33.51 19.99 34.01 19.99 C 34.19 16.61 33.43 13.02 34.60 9.78 M 38.00 12.00 C 38.00 14.67 38.00 17.33 38.00 20.00 C 42.00 20.00 46.00 20.00 50.00 20.00 C 50.00 17.33 50.00 14.67 50.00 12.00 C 46.00 12.00 42.00 12.00 38.00 12.00 Z" />
<path fill="#000000" opacity="1.00" d=" M 16.12 13.02 C 20.21 10.57 26.05 12.80 27.51 17.32 C 28.78 20.41 27.40 23.70 25.34 26.07 C 25.97 27.38 26.60 28.69 27.24 30.00 C 34.86 30.05 42.48 29.91 50.10 30.05 C 53.20 29.97 55.99 32.75 55.95 35.85 C 56.10 42.56 55.94 49.28 56.00 56.00 C 52.67 56.00 49.33 56.00 46.00 56.00 C 46.00 54.67 46.00 53.33 46.00 52.00 C 36.67 52.00 27.33 52.00 18.00 52.00 C 18.00 53.33 18.00 54.67 18.00 56.00 C 14.67 56.00 11.33 56.00 8.00 56.00 C 8.05 46.29 7.92 36.58 8.05 26.88 C 7.89 24.35 10.08 22.84 12.05 21.83 C 11.69 18.42 12.91 14.67 16.12 13.02 M 18.31 16.36 C 15.58 17.47 15.20 21.66 17.67 23.26 C 20.11 25.18 24.11 23.16 24.00 20.05 C 24.17 17.21 20.84 15.06 18.31 16.36 M 12.02 26.33 C 11.97 34.88 12.01 43.44 12.00 52.00 C 12.50 52.00 13.50 52.00 14.00 52.00 C 14.00 50.67 14.00 49.33 14.00 48.00 C 26.00 48.00 38.00 48.00 50.00 48.00 C 50.00 49.33 50.00 50.67 50.00 52.00 C 50.50 52.00 51.50 52.00 52.00 52.00 C 52.00 49.33 52.00 46.67 52.00 44.00 C 39.33 44.00 26.67 44.00 14.00 44.00 C 13.98 38.09 14.05 32.17 13.95 26.26 C 13.47 26.28 12.51 26.31 12.02 26.33 M 17.99 27.83 C 18.00 31.89 18.00 35.95 18.00 40.00 C 20.00 40.00 21.99 40.00 23.99 40.00 C 24.21 35.83 24.34 31.44 21.68 27.93 C 20.45 27.90 19.22 27.87 17.99 27.83 M 28.00 34.00 C 28.00 36.00 28.00 38.00 28.00 40.00 C 36.02 40.00 44.03 40.00 52.05 40.00 C 51.70 38.10 52.75 35.47 50.89 34.18 C 43.28 33.75 35.63 34.13 28.00 34.00 Z" />
</g>
</svg>
