<?xml version="1.0" encoding="UTF-8" ?>
<!DOCTYPE svg PUBLIC "-//W3C//DTD SVG 1.1//EN" "http://www.w3.org/Graphics/SVG/1.1/DTD/svg11.dtd">
<svg width="64pt" height="64pt" viewBox="0 0 64 64" version="1.1" xmlns="http://www.w3.org/2000/svg">
<g id="#ffffffff">
<path fill="#ffffff" opacity="1.00" d=" M 0.00 0.00 L 64.00 0.00 L 64.00 64.00 L 0.00 64.00 L 0.00 0.00 M 35.24 16.01 C 32.81 16.01 30.39 15.99 27.97 15.98 C 26.82 12.67 24.61 9.52 21.08 8.50 C 15.34 6.43 8.57 10.85 8.09 16.90 C 7.34 22.02 11.21 26.62 15.98 27.97 C 16.00 30.65 16.01 33.32 16.00 36.00 C 13.33 35.99 10.67 36.01 8.00 36.00 C 8.00 42.67 8.00 49.33 8.00 56.00 C 14.67 56.00 21.33 56.00 28.00 56.00 C 28.00 49.33 28.00 42.67 28.00 36.00 C 25.33 36.01 22.67 35.99 20.00 36.00 C 19.99 33.33 20.00 30.65 20.02 27.97 C 23.87 26.81 26.81 23.87 27.97 20.02 C 30.32 20.01 32.66 19.99 35.00 20.00 C 37.99 22.99 40.97 26.00 43.99 28.96 C 44.00 31.31 43.99 33.67 43.98 36.03 C 40.96 37.13 37.97 38.97 36.81 42.14 C 34.34 47.46 37.79 54.32 43.48 55.65 C 49.14 57.33 55.47 52.90 55.91 47.04 C 56.63 41.92 52.76 37.39 48.02 36.03 C 48.01 33.68 47.99 31.34 48.00 28.99 C 51.64 25.38 55.26 21.74 58.89 18.11 C 54.57 13.85 50.30 9.54 46.01 5.24 C 42.42 8.83 38.83 12.42 35.24 16.01 Z" />
<path fill="#ffffff" opacity="1.00" d=" M 38.82 18.14 C 41.21 15.73 43.60 13.33 46.00 10.94 C 48.39 13.33 50.79 15.73 53.19 18.12 C 50.79 20.52 48.40 22.92 46.00 25.31 C 43.61 22.92 41.22 20.53 38.82 18.14 Z" />
<path fill="#ffffff" opacity="1.00" d=" M 15.42 12.58 C 19.60 10.33 25.03 14.54 23.88 19.14 C 23.26 23.38 17.66 25.49 14.37 22.78 C 10.83 20.32 11.43 14.25 15.42 12.58 Z" />
<path fill="#ffffff" opacity="1.00" d=" M 12.00 40.00 C 16.00 40.00 20.00 40.00 24.00 40.00 C 24.00 44.00 24.00 48.00 24.00 52.00 C 20.00 52.00 16.00 52.00 12.00 52.00 C 12.00 48.00 12.00 44.00 12.00 40.00 Z" />
<path fill="#ffffff" opacity="1.00" d=" M 43.36 40.61 C 47.53 38.31 53.01 42.48 51.88 47.11 C 51.29 51.38 45.62 53.51 42.33 50.75 C 38.86 48.28 39.44 42.31 43.36 40.61 Z" />
</g>
<g id="#000000ff">
<path fill="#000000" opacity="1.00" d=" M 35.24 16.01 C 38.83 12.42 42.42 8.83 46.01 5.24 C 50.30 9.54 54.57 13.85 58.89 18.11 C 55.26 21.74 51.64 25.38 48.00 28.99 C 47.99 31.34 48.01 33.68 48.02 36.03 C 52.76 37.39 56.63 41.92 55.91 47.04 C 55.47 52.90 49.14 57.33 43.48 55.65 C 37.79 54.32 34.34 47.46 36.81 42.14 C 37.97 38.97 40.96 37.13 43.98 36.03 C 43.99 33.67 44.00 31.31 43.99 28.96 C 40.97 26.00 37.99 22.99 35.00 20.00 C 32.66 19.99 30.32 20.01 27.97 20.02 C 26.81 23.87 23.87 26.81 20.02 27.97 C 20.00 30.65 19.99 33.33 20.00 36.00 C 22.67 35.99 25.33 36.01 28.00 36.00 C 28.00 42.67 28.00 49.33 28.00 56.00 C 21.33 56.00 14.67 56.00 8.00 56.00 C 8.00 49.33 8.00 42.67 8.00 36.00 C 10.67 36.01 13.33 35.99 16.00 36.00 C 16.01 33.32 16.00 30.65 15.98 27.97 C 11.21 26.62 7.34 22.02 8.09 16.90 C 8.57 10.85 15.34 6.43 21.08 8.50 C 24.61 9.52 26.82 12.67 27.97 15.98 C 30.39 15.99 32.81 16.01 35.24 16.01 M 38.82 18.14 C 41.22 20.53 43.61 22.92 46.00 25.31 C 48.40 22.92 50.79 20.52 53.19 18.12 C 50.79 15.73 48.39 13.33 46.00 10.94 C 43.60 13.33 41.21 15.73 38.82 18.14 M 15.42 12.58 C 11.43 14.25 10.83 20.32 14.37 22.78 C 17.66 25.49 23.26 23.38 23.88 19.14 C 25.03 14.54 19.60 10.33 15.42 12.58 M 12.00 40.00 C 12.00 44.00 12.00 48.00 12.00 52.00 C 16.00 52.00 20.00 52.00 24.00 52.00 C 24.00 48.00 24.00 44.00 24.00 40.00 C 20.00 40.00 16.00 40.00 12.00 40.00 M 43.36 40.61 C 39.44 42.31 38.86 48.28 42.33 50.75 C 45.62 53.51 51.29 51.38 51.88 47.11 C 53.01 42.48 47.53 38.31 43.36 40.61 Z" />
</g>
</svg>
