<?xml version="1.0" encoding="UTF-8" ?>
<!DOCTYPE svg PUBLIC "-//W3C//DTD SVG 1.1//EN" "http://www.w3.org/Graphics/SVG/1.1/DTD/svg11.dtd">
<svg width="60pt" height="60pt" viewBox="0 0 60 60" version="1.1" xmlns="http://www.w3.org/2000/svg">
<g id="#ffffffff">
<path fill="#ffffff" opacity="1.00" d=" M 0.00 0.00 L 60.00 0.00 L 60.00 60.00 L 0.00 60.00 L 0.00 0.00 M 20.16 11.56 C 19.66 11.96 18.65 12.75 18.14 13.15 C 17.71 19.97 19.14 26.87 21.95 33.09 C 23.40 36.32 24.82 40.06 23.39 43.57 C 22.27 46.23 20.95 48.82 20.12 51.61 C 18.36 52.27 16.97 54.72 19.16 55.80 C 25.75 56.30 32.39 55.83 39.00 56.03 C 40.64 55.86 42.74 56.45 43.89 54.91 C 44.48 53.25 43.09 52.38 41.91 51.59 C 40.96 47.67 39.14 44.02 38.21 40.10 C 37.38 37.29 39.13 34.70 39.81 32.07 C 41.41 26.20 42.06 20.07 41.93 14.00 C 42.19 12.64 40.53 12.32 39.79 11.54 C 38.42 6.91 33.79 3.39 28.88 4.08 C 24.68 4.41 21.48 7.74 20.16 11.56 Z" />
<path fill="#ffffff" opacity="1.00" d=" M 27.41 15.74 C 30.53 13.59 35.16 16.30 35.01 20.03 C 35.12 23.71 30.56 26.37 27.45 24.29 C 24.27 22.57 24.23 17.48 27.41 15.74 Z" />
<path fill="#ffffff" opacity="1.00" d=" M 23.52 26.29 C 27.85 28.64 33.16 28.43 37.27 25.71 C 36.40 29.72 35.45 33.77 33.42 37.37 C 32.07 40.13 29.99 42.79 30.03 46.00 C 29.97 47.50 31.50 48.31 32.83 47.91 C 34.18 46.72 34.25 44.74 34.73 43.11 C 35.96 45.97 36.89 48.94 37.56 51.99 C 33.11 52.00 28.66 52.02 24.21 51.97 C 25.57 48.03 28.14 44.34 27.96 40.01 C 27.85 35.09 25.09 30.82 23.52 26.29 Z" />
</g>
<g id="#000000ff">
<path fill="#000000" opacity="1.00" d=" M 20.16 11.56 C 21.48 7.74 24.68 4.41 28.88 4.08 C 33.79 3.39 38.42 6.91 39.79 11.54 C 40.53 12.32 42.19 12.64 41.93 14.00 C 42.06 20.07 41.41 26.20 39.81 32.07 C 39.13 34.70 37.38 37.29 38.21 40.10 C 39.14 44.02 40.96 47.67 41.91 51.59 C 43.09 52.38 44.48 53.25 43.89 54.91 C 42.74 56.45 40.64 55.86 39.00 56.03 C 32.39 55.83 25.75 56.30 19.16 55.80 C 16.97 54.72 18.36 52.27 20.12 51.61 C 20.95 48.82 22.27 46.23 23.39 43.57 C 24.82 40.06 23.40 36.32 21.95 33.09 C 19.14 26.87 17.71 19.97 18.14 13.15 C 18.65 12.75 19.66 11.96 20.16 11.56 M 27.41 15.74 C 24.23 17.48 24.27 22.57 27.45 24.29 C 30.56 26.37 35.12 23.71 35.01 20.03 C 35.16 16.30 30.53 13.59 27.41 15.74 M 23.52 26.29 C 25.09 30.82 27.85 35.09 27.96 40.01 C 28.14 44.34 25.57 48.03 24.21 51.97 C 28.66 52.02 33.11 52.00 37.56 51.99 C 36.89 48.94 35.96 45.97 34.73 43.11 C 34.25 44.74 34.18 46.72 32.83 47.91 C 31.50 48.31 29.97 47.50 30.03 46.00 C 29.99 42.79 32.07 40.13 33.42 37.37 C 35.45 33.77 36.40 29.72 37.27 25.71 C 33.16 28.43 27.85 28.64 23.52 26.29 Z" />
</g>
</svg>
