<?xml version="1.0" encoding="UTF-8" ?>
<!DOCTYPE svg PUBLIC "-//W3C//DTD SVG 1.1//EN" "http://www.w3.org/Graphics/SVG/1.1/DTD/svg11.dtd">
<svg width="64pt" height="64pt" viewBox="0 0 64 64" version="1.1" xmlns="http://www.w3.org/2000/svg">
<g id="#ffffffff">
<path fill="#ffffff" opacity="1.00" d=" M 0.00 0.00 L 64.00 0.00 L 64.00 64.00 L 0.00 64.00 L 0.00 0.00 M 22.34 7.32 C 17.98 11.30 14.01 15.68 9.76 19.77 C 6.93 22.48 4.23 25.84 4.09 29.94 C 3.96 36.80 2.85 44.69 8.13 50.09 C 8.70 48.72 9.27 47.36 9.87 46.01 C 7.20 41.78 8.12 36.68 8.00 31.96 C 7.81 29.01 8.97 26.15 11.10 24.13 C 15.61 19.62 20.04 15.01 24.66 10.61 C 25.97 8.95 28.87 10.96 27.80 12.74 C 25.14 16.11 21.77 18.86 18.83 22.00 C 29.25 22.06 39.67 21.88 50.09 22.08 C 52.12 21.89 52.71 25.07 50.87 25.81 C 45.26 26.27 39.62 25.87 34.00 26.00 C 34.00 27.33 34.00 28.67 34.00 30.00 C 40.66 30.06 47.32 29.88 53.97 30.06 C 56.54 29.73 56.62 34.13 54.10 33.92 C 47.40 34.13 40.70 33.93 34.00 34.00 C 34.00 35.33 34.00 36.67 34.00 38.00 C 39.36 38.07 44.73 37.86 50.08 38.07 C 52.15 37.92 52.71 41.08 50.86 41.82 C 45.25 42.26 39.62 41.87 34.00 42.00 C 34.00 43.34 34.00 44.67 34.00 46.01 C 36.96 46.04 39.94 45.81 42.89 46.19 C 44.70 47.00 44.12 50.07 42.05 49.93 C 37.31 50.14 32.57 49.93 27.83 50.00 C 27.89 51.33 27.91 52.67 27.90 54.01 C 32.97 53.88 38.06 54.23 43.13 53.84 C 46.73 53.35 48.53 49.44 47.89 46.12 C 52.61 46.98 57.79 42.50 55.35 37.64 C 57.71 36.66 60.15 34.82 60.00 31.96 C 60.10 29.14 57.69 27.32 55.35 26.36 C 57.26 22.70 54.28 17.98 50.20 18.05 C 43.01 17.92 35.81 18.02 28.62 18.03 C 30.40 16.11 32.58 13.86 31.90 10.96 C 31.35 6.68 25.58 4.39 22.34 7.32 M 24.33 26.90 C 22.32 29.92 20.30 32.95 18.28 35.97 C 19.17 37.04 20.06 38.11 20.95 39.17 C 23.19 35.82 25.43 32.46 27.67 29.11 C 26.55 28.37 25.44 27.63 24.33 26.90 M 12.57 54.53 C 14.43 59.04 21.54 59.05 23.41 54.54 C 25.40 49.58 20.60 45.50 18.00 41.83 C 15.40 45.50 10.61 49.56 12.57 54.53 Z" />
<path fill="#ffffff" opacity="1.00" d=" M 16.11 52.02 C 16.41 50.60 17.33 49.42 18.00 48.15 C 18.80 49.82 21.40 52.65 18.75 53.82 C 17.71 54.50 15.63 53.30 16.11 52.02 Z" />
</g>
<g id="#000000ff">
<path fill="#000000" opacity="1.00" d=" M 22.34 7.32 C 25.58 4.39 31.35 6.68 31.90 10.96 C 32.58 13.86 30.40 16.11 28.62 18.03 C 35.81 18.02 43.01 17.92 50.20 18.05 C 54.28 17.98 57.26 22.70 55.35 26.36 C 57.69 27.32 60.10 29.14 60.00 31.96 C 60.15 34.82 57.71 36.66 55.35 37.64 C 57.79 42.50 52.61 46.98 47.89 46.12 C 48.53 49.44 46.73 53.35 43.13 53.84 C 38.06 54.23 32.97 53.88 27.90 54.01 C 27.91 52.67 27.89 51.33 27.83 50.00 C 32.57 49.93 37.31 50.14 42.05 49.93 C 44.12 50.07 44.70 47.00 42.89 46.19 C 39.94 45.81 36.96 46.04 34.00 46.01 C 34.00 44.67 34.00 43.34 34.00 42.00 C 39.62 41.87 45.25 42.26 50.86 41.82 C 52.71 41.08 52.15 37.92 50.08 38.07 C 44.73 37.86 39.36 38.07 34.00 38.00 C 34.00 36.67 34.00 35.33 34.00 34.00 C 40.70 33.93 47.40 34.13 54.10 33.92 C 56.62 34.13 56.54 29.73 53.97 30.06 C 47.32 29.88 40.66 30.06 34.00 30.00 C 34.00 28.67 34.00 27.33 34.00 26.00 C 39.62 25.87 45.26 26.27 50.87 25.81 C 52.71 25.07 52.12 21.89 50.09 22.08 C 39.67 21.88 29.25 22.06 18.83 22.00 C 21.77 18.86 25.14 16.11 27.80 12.74 C 28.87 10.96 25.97 8.95 24.66 10.61 C 20.04 15.01 15.61 19.62 11.10 24.13 C 8.97 26.15 7.81 29.01 8.00 31.96 C 8.12 36.68 7.20 41.78 9.87 46.01 C 9.27 47.36 8.70 48.72 8.13 50.09 C 2.85 44.69 3.96 36.80 4.09 29.94 C 4.23 25.84 6.93 22.48 9.76 19.77 C 14.01 15.68 17.98 11.30 22.34 7.32 Z" />
<path fill="#000000" opacity="1.00" d=" M 24.33 26.90 C 25.44 27.63 26.55 28.37 27.67 29.11 C 25.43 32.46 23.19 35.82 20.95 39.17 C 20.06 38.11 19.17 37.04 18.28 35.97 C 20.30 32.95 22.32 29.92 24.33 26.90 Z" />
<path fill="#000000" opacity="1.00" d=" M 12.57 54.53 C 10.61 49.56 15.40 45.50 18.00 41.83 C 20.60 45.50 25.40 49.58 23.41 54.54 C 21.54 59.05 14.43 59.04 12.57 54.53 M 16.11 52.02 C 15.63 53.30 17.71 54.50 18.75 53.82 C 21.40 52.65 18.80 49.82 18.00 48.15 C 17.33 49.42 16.41 50.60 16.11 52.02 Z" />
</g>
</svg>
