<?xml version="1.0" encoding="UTF-8" ?>
<!DOCTYPE svg PUBLIC "-//W3C//DTD SVG 1.1//EN" "http://www.w3.org/Graphics/SVG/1.1/DTD/svg11.dtd">
<svg width="64pt" height="64pt" viewBox="0 0 64 64" version="1.1" xmlns="http://www.w3.org/2000/svg">
<g id="#ffffffff">
<path fill="#ffffff" opacity="1.00" d=" M 0.00 0.00 L 64.00 0.00 L 64.00 64.00 L 0.00 64.00 L 0.00 0.00 M 28.00 13.99 C 24.66 12.00 21.34 9.99 18.00 8.00 C 17.33 10.67 16.66 13.33 16.00 16.00 C 12.67 16.00 9.34 16.00 6.00 16.00 C 7.35 18.67 8.71 21.34 10.07 24.00 C 11.56 24.00 13.05 23.99 14.55 23.99 C 13.87 22.66 13.20 21.33 12.52 20.01 C 14.72 20.00 16.92 20.00 19.12 20.00 C 19.61 18.07 20.08 16.14 20.57 14.21 C 23.25 15.82 25.93 17.43 28.63 19.03 C 30.88 16.78 33.12 14.53 35.38 12.29 C 36.31 13.67 37.24 15.06 38.16 16.45 C 40.77 15.92 43.38 15.40 45.99 14.88 C 46.00 17.25 46.00 19.62 46.00 22.00 C 48.09 22.00 50.18 22.00 52.28 22.00 C 52.10 22.50 51.74 23.50 51.56 24.00 C 52.98 24.00 54.40 24.00 55.81 24.00 C 56.54 22.00 57.27 20.00 58.00 18.00 C 55.33 18.00 52.67 18.00 50.00 18.00 C 50.00 15.33 50.00 12.66 50.00 10.00 C 46.66 10.67 43.33 11.33 40.00 12.00 C 38.68 9.99 37.34 8.00 36.00 6.00 C 33.33 8.66 30.67 11.33 28.00 13.99 M 6.00 26.20 C 6.98 30.73 7.97 35.27 8.96 39.80 C 10.30 39.80 11.64 39.80 12.97 39.80 C 13.76 36.96 14.53 34.11 15.31 31.26 C 16.09 34.10 16.87 36.95 17.64 39.79 C 18.98 39.79 20.32 39.80 21.66 39.80 C 22.63 35.27 23.62 30.73 24.60 26.20 C 23.31 26.20 22.01 26.21 20.72 26.21 C 20.25 28.74 19.78 31.26 19.31 33.79 C 18.62 31.27 17.93 28.74 17.25 26.21 C 15.95 26.21 14.66 26.20 13.36 26.20 C 12.68 28.74 11.99 31.27 11.30 33.80 C 10.84 31.26 10.37 28.73 9.90 26.20 C 8.60 26.20 7.30 26.20 6.00 26.20 M 30.24 26.15 C 23.35 27.08 23.40 38.93 30.26 39.82 C 34.59 41.07 39.39 37.68 38.86 33.01 C 39.47 28.29 34.56 24.95 30.24 26.15 M 39.40 26.20 C 40.39 30.73 41.38 35.27 42.37 39.80 C 43.71 39.80 45.05 39.79 46.39 39.79 C 47.16 36.95 47.93 34.10 48.71 31.26 C 49.49 34.11 50.27 36.96 51.05 39.80 C 52.39 39.80 53.72 39.80 55.06 39.80 C 56.04 35.27 57.03 30.73 58.00 26.20 C 56.71 26.20 55.42 26.20 54.13 26.20 C 53.66 28.73 53.19 31.26 52.72 33.79 C 52.03 31.26 51.34 28.73 50.66 26.20 C 49.36 26.20 48.06 26.21 46.77 26.21 C 46.09 28.74 45.40 31.27 44.71 33.79 C 44.24 31.27 43.77 28.74 43.30 26.21 C 42.00 26.21 40.70 26.20 39.40 26.20 M 10.00 42.00 C 9.33 44.00 8.66 46.00 8.00 48.00 C 10.67 48.00 13.33 48.00 16.00 48.00 C 16.00 50.67 16.00 53.33 16.00 56.00 C 19.34 54.67 22.66 53.33 26.00 52.00 C 27.34 53.99 28.68 55.99 30.00 58.00 C 32.00 56.00 34.00 54.00 36.00 52.00 C 39.33 53.33 42.66 54.67 46.00 56.00 C 46.66 54.00 47.33 52.00 48.01 50.00 C 50.67 50.00 53.33 50.00 56.00 50.00 C 55.33 47.33 54.67 44.67 54.00 42.00 C 52.63 42.00 51.26 42.00 49.88 42.00 C 50.21 43.33 50.54 44.67 50.87 46.00 C 48.95 46.00 47.04 46.00 45.13 46.00 C 44.60 47.57 44.07 49.14 43.55 50.71 C 40.71 49.57 37.87 48.44 35.03 47.31 C 33.56 48.78 32.09 50.25 30.62 51.72 C 29.59 50.18 28.57 48.63 27.54 47.08 C 25.03 48.08 22.51 49.08 20.00 50.09 C 20.00 48.06 20.00 46.03 20.00 44.00 C 17.85 44.00 15.70 44.00 13.55 44.00 C 13.72 43.50 14.04 42.50 14.20 42.00 C 12.80 42.00 11.40 42.00 10.00 42.00 Z" />
<path fill="#ffffff" opacity="1.00" d=" M 30.49 29.60 C 33.36 27.85 35.55 31.51 34.68 34.06 C 35.02 36.88 30.64 37.95 29.63 35.34 C 29.03 33.51 28.88 30.98 30.49 29.60 Z" />
</g>
<g id="#000000ff">
<path fill="#000000" opacity="1.00" d=" M 28.00 13.99 C 30.67 11.33 33.33 8.66 36.00 6.00 C 37.34 8.00 38.68 9.99 40.00 12.00 C 43.33 11.33 46.66 10.67 50.00 10.00 C 50.00 12.66 50.00 15.33 50.00 18.00 C 52.67 18.00 55.33 18.00 58.00 18.00 C 57.27 20.00 56.54 22.00 55.81 24.00 C 54.40 24.00 52.98 24.00 51.56 24.00 C 51.74 23.50 52.10 22.50 52.28 22.00 C 50.18 22.00 48.09 22.00 46.00 22.00 C 46.00 19.62 46.00 17.25 45.99 14.88 C 43.38 15.40 40.77 15.92 38.16 16.45 C 37.24 15.06 36.31 13.67 35.38 12.29 C 33.12 14.53 30.88 16.78 28.63 19.03 C 25.93 17.43 23.25 15.82 20.57 14.21 C 20.08 16.14 19.61 18.07 19.12 20.00 C 16.92 20.00 14.72 20.00 12.52 20.01 C 13.20 21.33 13.87 22.66 14.55 23.99 C 13.05 23.99 11.56 24.00 10.07 24.00 C 8.71 21.34 7.35 18.67 6.00 16.00 C 9.34 16.00 12.67 16.00 16.00 16.00 C 16.66 13.33 17.33 10.67 18.00 8.00 C 21.34 9.99 24.66 12.00 28.00 13.99 Z" />
<path fill="#000000" opacity="1.00" d=" M 6.00 26.20 C 7.30 26.20 8.60 26.20 9.90 26.20 C 10.37 28.73 10.84 31.26 11.30 33.80 C 11.99 31.27 12.68 28.74 13.36 26.20 C 14.66 26.20 15.95 26.21 17.25 26.21 C 17.93 28.74 18.62 31.27 19.31 33.79 C 19.78 31.26 20.25 28.74 20.72 26.21 C 22.01 26.21 23.31 26.20 24.60 26.20 C 23.62 30.73 22.63 35.27 21.66 39.80 C 20.32 39.80 18.98 39.79 17.64 39.79 C 16.87 36.95 16.09 34.10 15.31 31.26 C 14.53 34.11 13.76 36.96 12.97 39.80 C 11.64 39.80 10.30 39.80 8.96 39.80 C 7.97 35.27 6.98 30.73 6.00 26.20 Z" />
<path fill="#000000" opacity="1.00" d=" M 30.24 26.15 C 34.56 24.95 39.47 28.29 38.86 33.01 C 39.39 37.68 34.59 41.07 30.26 39.82 C 23.40 38.93 23.35 27.08 30.24 26.15 M 30.49 29.60 C 28.88 30.98 29.03 33.51 29.63 35.34 C 30.64 37.95 35.02 36.88 34.68 34.06 C 35.55 31.51 33.36 27.85 30.49 29.60 Z" />
<path fill="#000000" opacity="1.00" d=" M 39.40 26.20 C 40.70 26.20 42.00 26.21 43.30 26.21 C 43.77 28.74 44.24 31.27 44.71 33.79 C 45.40 31.27 46.09 28.74 46.77 26.21 C 48.06 26.21 49.36 26.20 50.66 26.20 C 51.34 28.73 52.03 31.26 52.72 33.79 C 53.19 31.26 53.66 28.73 54.13 26.20 C 55.42 26.20 56.71 26.20 58.00 26.20 C 57.03 30.73 56.04 35.27 55.06 39.80 C 53.72 39.80 52.39 39.80 51.05 39.80 C 50.27 36.96 49.49 34.11 48.71 31.26 C 47.93 34.10 47.16 36.95 46.39 39.79 C 45.05 39.79 43.71 39.80 42.37 39.80 C 41.38 35.27 40.39 30.73 39.40 26.20 Z" />
<path fill="#000000" opacity="1.00" d=" M 10.00 42.00 C 11.40 42.00 12.80 42.00 14.20 42.00 C 14.04 42.50 13.72 43.50 13.55 44.00 C 15.70 44.00 17.85 44.00 20.00 44.00 C 20.00 46.03 20.00 48.06 20.00 50.09 C 22.51 49.08 25.03 48.08 27.54 47.08 C 28.57 48.63 29.59 50.18 30.62 51.72 C 32.09 50.25 33.56 48.78 35.03 47.31 C 37.87 48.44 40.71 49.57 43.55 50.71 C 44.07 49.14 44.60 47.57 45.13 46.00 C 47.04 46.00 48.95 46.00 50.87 46.00 C 50.54 44.67 50.21 43.33 49.88 42.00 C 51.26 42.00 52.63 42.00 54.00 42.00 C 54.67 44.67 55.33 47.33 56.00 50.00 C 53.33 50.00 50.67 50.00 48.01 50.00 C 47.33 52.00 46.66 54.00 46.00 56.00 C 42.66 54.67 39.33 53.33 36.00 52.00 C 34.00 54.00 32.00 56.00 30.00 58.00 C 28.68 55.99 27.34 53.99 26.00 52.00 C 22.66 53.33 19.34 54.67 16.00 56.00 C 16.00 53.33 16.00 50.67 16.00 48.00 C 13.33 48.00 10.67 48.00 8.00 48.00 C 8.66 46.00 9.33 44.00 10.00 42.00 Z" />
</g>
</svg>
