<?xml version="1.0" encoding="UTF-8" ?>
<!DOCTYPE svg PUBLIC "-//W3C//DTD SVG 1.1//EN" "http://www.w3.org/Graphics/SVG/1.1/DTD/svg11.dtd">
<svg width="64pt" height="64pt" viewBox="0 0 64 64" version="1.1" xmlns="http://www.w3.org/2000/svg">
<g id="#ffffffff">
<path fill="#ffffff" opacity="1.00" d=" M 0.00 0.00 L 64.00 0.00 L 64.00 64.00 L 0.00 64.00 L 0.00 0.00 M 28.72 26.11 C 22.49 32.45 16.11 38.65 9.90 45.01 C 7.60 47.20 7.39 51.08 9.39 53.54 C 11.61 56.53 16.45 56.80 19.00 54.09 C 25.37 47.89 31.58 41.54 37.90 35.29 C 44.94 37.70 53.17 33.37 55.28 26.28 C 56.83 22.02 55.56 17.48 53.62 13.59 C 50.79 16.37 47.98 19.19 45.18 22.00 C 44.39 22.00 42.80 22.00 42.00 22.00 C 42.00 21.21 42.00 19.62 42.00 18.83 C 44.80 16.02 47.61 13.22 50.42 10.41 C 46.64 8.51 42.28 7.20 38.10 8.59 C 30.82 10.53 26.22 18.93 28.72 26.11 Z" />
<path fill="#ffffff" opacity="1.00" d=" M 33.59 16.62 C 35.55 13.33 39.41 11.91 43.09 11.89 C 41.46 13.71 39.75 15.47 38.00 17.18 C 37.99 20.12 38.01 23.06 38.00 26.00 C 40.94 25.99 43.88 26.00 46.81 26.00 C 48.54 24.26 50.30 22.55 52.12 20.91 C 52.12 24.86 50.36 29.00 46.68 30.81 C 43.60 32.60 39.90 31.99 36.73 30.79 C 29.84 37.55 23.15 44.53 16.18 51.22 C 14.58 53.05 11.61 51.34 11.96 49.06 C 13.19 46.96 15.13 45.43 16.81 43.70 C 22.29 38.23 27.78 32.76 33.23 27.26 C 31.85 23.87 31.41 19.78 33.59 16.62 Z" />
</g>
<g id="#000000ff">
<path fill="#000000" opacity="1.00" d=" M 28.72 26.11 C 26.22 18.93 30.82 10.53 38.10 8.59 C 42.28 7.20 46.64 8.51 50.42 10.41 C 47.61 13.22 44.80 16.02 42.00 18.83 C 42.00 19.62 42.00 21.21 42.00 22.00 C 42.80 22.00 44.39 22.00 45.18 22.00 C 47.98 19.19 50.79 16.37 53.62 13.59 C 55.56 17.48 56.83 22.02 55.28 26.28 C 53.17 33.37 44.94 37.70 37.90 35.29 C 31.58 41.54 25.37 47.89 19.00 54.09 C 16.45 56.80 11.61 56.53 9.39 53.54 C 7.39 51.08 7.60 47.20 9.90 45.01 C 16.11 38.65 22.49 32.45 28.72 26.11 M 33.59 16.62 C 31.41 19.78 31.85 23.87 33.23 27.26 C 27.78 32.76 22.29 38.23 16.81 43.70 C 15.13 45.43 13.19 46.96 11.96 49.06 C 11.61 51.34 14.58 53.05 16.18 51.22 C 23.15 44.53 29.84 37.55 36.73 30.79 C 39.90 31.99 43.60 32.60 46.68 30.81 C 50.36 29.00 52.12 24.86 52.12 20.91 C 50.30 22.55 48.54 24.26 46.81 26.00 C 43.88 26.00 40.94 25.99 38.00 26.00 C 38.01 23.06 37.99 20.12 38.00 17.18 C 39.75 15.47 41.46 13.71 43.09 11.89 C 39.41 11.91 35.55 13.33 33.59 16.62 Z" />
</g>
</svg>
