<?xml version="1.0" encoding="UTF-8" ?>
<!DOCTYPE svg PUBLIC "-//W3C//DTD SVG 1.1//EN" "http://www.w3.org/Graphics/SVG/1.1/DTD/svg11.dtd">
<svg width="64pt" height="64pt" viewBox="0 0 64 64" version="1.1" xmlns="http://www.w3.org/2000/svg">
<g id="#ffffffff">
<path fill="#ffffff" opacity="1.00" d=" M 0.00 0.00 L 64.00 0.00 L 64.00 64.00 L 0.00 64.00 L 0.00 0.00 M 2.00 10.00 C 2.00 18.00 2.00 26.00 2.00 34.00 C 22.00 34.00 42.00 34.00 62.00 34.00 C 62.00 26.00 62.00 18.00 62.00 10.00 C 42.00 10.00 22.00 10.00 2.00 10.00 M 25.43 38.56 C 24.48 39.53 23.52 40.49 22.57 41.45 C 24.76 43.62 26.94 45.81 29.12 48.00 C 26.94 50.19 24.75 52.37 22.58 54.56 C 23.54 55.52 24.50 56.47 25.46 57.43 C 27.65 55.25 29.82 53.07 32.02 50.90 C 34.20 53.07 36.38 55.25 38.55 57.43 C 39.51 56.47 40.48 55.52 41.45 54.57 C 39.28 52.36 37.08 50.20 34.91 48.00 C 37.08 45.80 39.27 43.63 41.46 41.45 C 40.49 40.49 39.53 39.52 38.57 38.55 C 36.39 40.74 34.21 42.92 32.01 45.10 C 29.82 42.92 27.63 40.73 25.43 38.56 Z" />
<path fill="#ffffff" opacity="1.00" d=" M 6.00 14.00 C 23.33 14.00 40.67 14.00 58.00 14.00 C 58.00 19.33 58.00 24.67 58.00 30.00 C 40.67 30.00 23.33 30.00 6.00 30.00 C 6.00 24.67 6.00 19.33 6.00 14.00 M 12.36 18.38 C 9.64 19.49 9.13 23.67 11.70 25.22 C 14.10 27.27 18.11 25.04 17.99 22.01 C 18.10 19.27 14.84 17.02 12.36 18.38 M 24.36 18.37 C 21.63 19.48 21.13 23.70 23.73 25.25 C 26.14 27.25 30.11 25.03 29.99 22.01 C 30.11 19.27 26.85 17.03 24.36 18.37 M 36.32 18.40 C 33.61 19.53 33.16 23.72 35.73 25.25 C 38.14 27.25 42.13 25.02 41.98 21.99 C 42.10 19.24 38.79 16.99 36.32 18.40 M 48.30 18.41 C 45.61 19.54 45.16 23.71 47.72 25.23 C 50.13 27.25 54.10 25.04 53.99 22.00 C 54.10 19.24 50.78 16.98 48.30 18.41 Z" />
</g>
<g id="#000000ff">
<path fill="#000000" opacity="1.00" d=" M 2.00 10.00 C 22.00 10.00 42.00 10.00 62.00 10.00 C 62.00 18.00 62.00 26.00 62.00 34.00 C 42.00 34.00 22.00 34.00 2.00 34.00 C 2.00 26.00 2.00 18.00 2.00 10.00 M 6.00 14.00 C 6.00 19.33 6.00 24.67 6.00 30.00 C 23.33 30.00 40.67 30.00 58.00 30.00 C 58.00 24.67 58.00 19.33 58.00 14.00 C 40.67 14.00 23.33 14.00 6.00 14.00 Z" />
<path fill="#000000" opacity="1.00" d=" M 12.36 18.38 C 14.84 17.02 18.10 19.27 17.99 22.01 C 18.11 25.04 14.10 27.27 11.70 25.22 C 9.13 23.67 9.64 19.49 12.36 18.38 Z" />
<path fill="#000000" opacity="1.00" d=" M 24.36 18.37 C 26.85 17.03 30.11 19.27 29.99 22.01 C 30.11 25.03 26.14 27.25 23.73 25.25 C 21.13 23.70 21.63 19.48 24.36 18.37 Z" />
<path fill="#000000" opacity="1.00" d=" M 36.32 18.40 C 38.79 16.99 42.10 19.24 41.98 21.99 C 42.13 25.02 38.14 27.25 35.73 25.25 C 33.16 23.72 33.61 19.53 36.32 18.40 Z" />
<path fill="#000000" opacity="1.00" d=" M 48.30 18.41 C 50.78 16.98 54.10 19.24 53.99 22.00 C 54.10 25.04 50.13 27.25 47.72 25.23 C 45.16 23.71 45.61 19.54 48.30 18.41 Z" />
<path fill="#000000" opacity="1.00" d=" M 25.43 38.56 C 27.63 40.73 29.82 42.92 32.01 45.10 C 34.21 42.92 36.39 40.74 38.57 38.55 C 39.53 39.52 40.49 40.49 41.46 41.45 C 39.27 43.63 37.08 45.80 34.91 48.00 C 37.08 50.20 39.28 52.36 41.45 54.57 C 40.48 55.52 39.51 56.47 38.55 57.43 C 36.38 55.25 34.20 53.07 32.02 50.90 C 29.82 53.07 27.65 55.25 25.46 57.43 C 24.50 56.47 23.54 55.52 22.58 54.56 C 24.75 52.37 26.94 50.19 29.12 48.00 C 26.94 45.81 24.76 43.62 22.57 41.45 C 23.52 40.49 24.48 39.53 25.43 38.56 Z" />
</g>
</svg>
