<?xml version="1.0" encoding="UTF-8" ?>
<!DOCTYPE svg PUBLIC "-//W3C//DTD SVG 1.1//EN" "http://www.w3.org/Graphics/SVG/1.1/DTD/svg11.dtd">
<svg width="60pt" height="60pt" viewBox="0 0 60 60" version="1.1" xmlns="http://www.w3.org/2000/svg">
<g id="#ffffffff">
<path fill="#ffffff" opacity="1.00" d=" M 0.00 0.00 L 60.00 0.00 L 60.00 60.00 L 0.00 60.00 L 0.00 0.00 M 10.33 6.38 C 6.82 8.22 8.26 12.82 7.96 16.00 C 7.59 18.61 8.76 21.99 11.88 21.94 C 23.59 22.09 35.32 21.96 47.04 22.00 C 49.39 22.31 51.99 20.65 51.93 18.11 C 52.02 14.86 52.36 11.51 51.61 8.33 C 50.31 5.31 46.58 6.09 43.96 5.97 C 32.76 6.29 21.46 5.47 10.33 6.38 M 25.50 26.77 C 19.25 28.80 15.04 35.62 16.21 42.13 C 17.15 49.53 24.81 55.16 32.16 53.78 C 39.92 52.79 45.60 44.44 43.60 36.85 C 42.03 29.03 33.00 23.98 25.50 26.77 Z" />
<path fill="#ffffff" opacity="1.00" d=" M 17.16 12.11 C 19.57 11.12 21.12 14.75 18.84 15.90 C 16.42 16.87 14.86 13.23 17.16 12.11 Z" />
<path fill="#ffffff" opacity="1.00" d=" M 25.20 12.21 C 27.45 10.90 29.28 15.03 26.75 15.80 C 24.54 17.07 22.74 13.00 25.20 12.21 Z" />
<path fill="#ffffff" opacity="1.00" d=" M 33.16 12.11 C 35.55 11.08 37.23 14.89 34.76 15.82 C 32.45 16.93 30.83 13.14 33.16 12.11 Z" />
<path fill="#ffffff" opacity="1.00" d=" M 41.14 12.09 C 43.55 11.14 45.09 14.64 42.89 15.89 C 40.47 16.89 38.86 13.31 41.14 12.09 Z" />
<path fill="#ffffff" opacity="1.00" d=" M 24.11 35.14 C 26.04 32.34 28.45 35.71 30.02 37.07 C 31.49 35.62 34.16 32.32 35.90 35.23 C 36.32 37.35 34.05 38.53 32.95 40.00 C 34.09 41.50 36.39 42.70 35.89 44.90 C 33.97 47.57 31.51 44.35 30.01 42.93 C 28.43 44.32 26.07 47.60 24.08 44.88 C 23.67 42.68 25.92 41.48 27.10 40.00 C 25.95 38.52 23.63 37.33 24.11 35.14 Z" />
</g>
<g id="#000000ff">
<path fill="#968176" opacity="1.00" d=" M 10.33 6.38 C 21.46 5.47 32.76 6.29 43.96 5.97 C 46.58 6.09 50.31 5.31 51.61 8.33 C 52.36 11.51 52.02 14.86 51.93 18.11 C 51.99 20.65 49.39 22.31 47.04 22.00 C 35.32 21.96 23.59 22.09 11.88 21.94 C 8.76 21.99 7.59 18.61 7.96 16.00 C 8.26 12.82 6.82 8.22 10.33 6.38 M 17.16 12.11 C 14.86 13.23 16.42 16.87 18.84 15.90 C 21.12 14.75 19.57 11.12 17.16 12.11 M 25.20 12.21 C 22.74 13.00 24.54 17.07 26.75 15.80 C 29.28 15.03 27.45 10.90 25.20 12.21 M 33.16 12.11 C 30.83 13.14 32.45 16.93 34.76 15.82 C 37.23 14.89 35.55 11.08 33.16 12.11 M 41.14 12.09 C 38.86 13.31 40.47 16.89 42.89 15.89 C 45.09 14.64 43.55 11.14 41.14 12.09 Z" />
<path fill="#968176" opacity="1.00" d=" M 25.50 26.77 C 33.00 23.98 42.03 29.03 43.60 36.85 C 45.60 44.44 39.92 52.79 32.16 53.78 C 24.81 55.16 17.15 49.53 16.21 42.13 C 15.04 35.62 19.25 28.80 25.50 26.77 M 24.11 35.14 C 23.63 37.33 25.95 38.52 27.10 40.00 C 25.92 41.48 23.67 42.68 24.08 44.88 C 26.07 47.60 28.43 44.32 30.01 42.93 C 31.51 44.35 33.97 47.57 35.89 44.90 C 36.39 42.70 34.09 41.50 32.95 40.00 C 34.05 38.53 36.32 37.35 35.90 35.23 C 34.16 32.32 31.49 35.62 30.02 37.07 C 28.45 35.71 26.04 32.34 24.11 35.14 Z" />
</g>
</svg>
