<?xml version="1.0" encoding="UTF-8" ?>
<!DOCTYPE svg PUBLIC "-//W3C//DTD SVG 1.1//EN" "http://www.w3.org/Graphics/SVG/1.1/DTD/svg11.dtd">
<svg width="60pt" height="60pt" viewBox="0 0 60 60" version="1.1" xmlns="http://www.w3.org/2000/svg">
<g id="#ffffffff">
<path fill="#ffffff" opacity="1.00" d=" M 0.00 0.00 L 60.00 0.00 L 60.00 31.35 C 57.51 29.02 53.83 28.92 50.78 27.68 C 49.25 18.55 41.56 11.36 32.48 9.96 C 31.36 7.65 28.63 7.63 27.52 9.96 C 18.46 11.38 10.75 18.53 9.22 27.67 C 6.12 28.64 3.04 29.67 0.00 30.81 L 0.00 0.00 Z" />
<path fill="#ffffff" opacity="1.00" d=" M 0.00 32.62 C 0.82 34.10 2.54 33.96 4.00 34.01 C 21.37 34.00 38.74 33.98 56.11 34.02 C 57.48 34.10 58.79 33.73 60.00 33.11 L 60.00 60.00 L 0.00 60.00 L 0.00 32.62 M 15.38 38.49 C 15.18 38.86 14.79 39.60 14.59 39.96 C 16.52 44.65 18.61 49.35 21.42 53.58 C 25.04 59.20 34.26 59.50 38.19 54.09 C 41.10 50.04 43.06 45.38 45.09 40.85 C 46.20 39.06 43.86 37.11 42.20 38.24 C 39.10 42.99 37.84 48.95 33.74 53.03 C 31.15 54.60 26.97 54.52 25.10 51.84 C 21.95 47.71 20.59 42.55 17.75 38.24 C 17.32 38.17 16.45 38.02 16.02 37.95 L 15.38 38.49 Z" />
</g>
<g id="#000000ff">
<path fill="#000000" opacity="1.00" d=" M 27.52 9.96 C 28.63 7.63 31.36 7.65 32.48 9.96 C 41.56 11.36 49.25 18.55 50.78 27.68 C 53.83 28.92 57.51 29.02 60.00 31.35 L 60.00 33.11 C 58.79 33.73 57.48 34.10 56.11 34.02 C 38.74 33.98 21.37 34.00 4.00 34.01 C 2.54 33.96 0.82 34.10 0.00 32.62 L 0.00 30.81 C 3.04 29.67 6.12 28.64 9.22 27.67 C 10.75 18.53 18.46 11.38 27.52 9.96 Z" />
<path fill="#000000" opacity="1.00" d=" M 15.38 38.49 L 16.02 37.95 C 16.45 38.02 17.32 38.17 17.75 38.24 C 20.59 42.55 21.95 47.71 25.10 51.84 C 26.97 54.52 31.15 54.60 33.74 53.03 C 37.84 48.95 39.10 42.99 42.20 38.24 C 43.86 37.11 46.20 39.06 45.09 40.85 C 43.06 45.38 41.10 50.04 38.19 54.09 C 34.26 59.50 25.04 59.20 21.42 53.58 C 18.61 49.35 16.52 44.65 14.59 39.96 C 14.79 39.60 15.18 38.86 15.38 38.49 Z" />
</g>
</svg>
