<?xml version="1.0" encoding="UTF-8" ?>
<!DOCTYPE svg PUBLIC "-//W3C//DTD SVG 1.1//EN" "http://www.w3.org/Graphics/SVG/1.1/DTD/svg11.dtd">
<svg width="60pt" height="60pt" viewBox="0 0 60 60" version="1.1" xmlns="http://www.w3.org/2000/svg">
<g id="#ffffffff">
<path fill="#ffffff" opacity="1.00" d=" M 0.00 0.00 L 60.00 0.00 L 60.00 60.00 L 0.00 60.00 L 0.00 0.00 M 10.35 8.39 C 8.58 9.17 7.76 11.17 8.00 13.02 C 8.03 24.72 7.95 36.42 8.04 48.12 C 7.95 50.18 9.93 52.01 11.94 51.97 C 23.65 52.05 35.35 51.97 47.06 52.00 C 49.39 52.39 51.98 50.59 51.96 48.13 C 52.06 36.39 51.97 24.64 52.00 12.89 C 52.35 10.60 50.63 7.98 48.16 8.04 C 37.11 7.93 26.04 8.05 14.99 7.99 C 13.46 8.11 11.78 7.71 10.35 8.39 Z" />
<path fill="#ffffff" opacity="1.00" d=" M 22.99 21.20 C 25.00 21.20 27.01 21.20 29.03 21.21 C 29.58 23.07 30.15 24.93 30.75 26.78 C 32.05 25.00 33.29 23.18 34.46 21.30 C 36.59 21.20 38.73 21.18 40.86 21.15 C 38.30 23.99 35.98 27.02 33.53 29.96 C 34.68 32.84 35.84 35.72 37.00 38.59 C 35.06 38.60 33.11 38.60 31.17 38.60 C 30.57 36.80 29.92 35.01 29.21 33.25 C 27.88 35.01 26.58 36.79 25.29 38.58 C 23.32 38.65 21.34 38.64 19.38 38.43 C 21.81 35.68 24.06 32.79 26.39 29.96 C 25.25 27.04 24.11 24.13 22.99 21.20 Z" />
</g>
<g id="#000000ff">
<path fill="#968176" opacity="1.00" d=" M 10.35 8.39 C 11.78 7.71 13.46 8.11 14.99 7.99 C 26.04 8.05 37.11 7.93 48.16 8.04 C 50.63 7.98 52.35 10.60 52.00 12.89 C 51.97 24.64 52.06 36.39 51.96 48.13 C 51.98 50.59 49.39 52.39 47.06 52.00 C 35.35 51.97 23.65 52.05 11.94 51.97 C 9.93 52.01 7.95 50.18 8.04 48.12 C 7.95 36.42 8.03 24.72 8.00 13.02 C 7.76 11.17 8.58 9.17 10.35 8.39 M 22.99 21.20 C 24.11 24.13 25.25 27.04 26.39 29.96 C 24.06 32.79 21.81 35.68 19.38 38.43 C 21.34 38.64 23.32 38.65 25.29 38.58 C 26.58 36.79 27.88 35.01 29.21 33.25 C 29.92 35.01 30.57 36.80 31.17 38.60 C 33.11 38.60 35.06 38.60 37.00 38.59 C 35.84 35.72 34.68 32.84 33.53 29.96 C 35.98 27.02 38.30 23.99 40.86 21.15 C 38.73 21.18 36.59 21.20 34.46 21.30 C 33.29 23.18 32.05 25.00 30.75 26.78 C 30.15 24.93 29.58 23.07 29.03 21.21 C 27.01 21.20 25.00 21.20 22.99 21.20 Z" />
</g>
</svg>
