<?xml version="1.0" encoding="UTF-8" ?>
<!DOCTYPE svg PUBLIC "-//W3C//DTD SVG 1.1//EN" "http://www.w3.org/Graphics/SVG/1.1/DTD/svg11.dtd">
<svg width="64pt" height="64pt" viewBox="0 0 64 64" version="1.1" xmlns="http://www.w3.org/2000/svg">
<g id="#ffffffff">
<path fill="#ffffff" opacity="1.00" d=" M 0.00 0.00 L 64.00 0.00 L 64.00 64.00 L 0.00 64.00 L 0.00 0.00 M 26.46 8.64 C 19.35 10.31 13.10 15.39 10.14 22.09 C 6.89 29.15 7.40 37.77 11.45 44.40 C 15.14 50.59 21.77 54.91 28.91 55.78 C 35.93 56.73 43.33 54.37 48.45 49.47 C 53.46 44.79 56.28 37.89 55.96 31.04 C 55.74 24.13 52.32 17.43 46.89 13.17 C 41.24 8.64 33.49 6.98 26.46 8.64 Z" />
<path fill="#ffffff" opacity="1.00" d=" M 21.51 17.23 C 27.76 13.02 36.24 13.04 42.49 17.23 C 39.03 20.77 35.50 24.24 32.00 27.75 C 28.51 24.24 24.98 20.76 21.51 17.23 Z" />
<path fill="#ffffff" opacity="1.00" d=" M 17.23 21.51 C 20.77 24.98 24.25 28.51 27.77 32.00 C 24.25 35.49 20.77 39.02 17.23 42.49 C 13.03 36.24 13.02 27.75 17.23 21.51 Z" />
<path fill="#ffffff" opacity="1.00" d=" M 36.26 32.00 C 39.76 28.50 43.24 24.98 46.77 21.51 C 50.97 27.76 50.96 36.23 46.77 42.49 C 43.24 39.02 39.76 35.50 36.26 32.00 Z" />
<path fill="#ffffff" opacity="1.00" d=" M 21.51 46.77 C 24.98 43.24 28.51 39.76 32.00 36.25 C 35.50 39.75 39.02 43.23 42.49 46.77 C 36.24 50.96 27.76 50.97 21.51 46.77 Z" />
</g>
<g id="#000000ff">
<path fill="#000000" opacity="1.00" d=" M 26.46 8.64 C 33.49 6.98 41.24 8.64 46.89 13.17 C 52.32 17.43 55.74 24.13 55.96 31.04 C 56.28 37.89 53.46 44.79 48.45 49.47 C 43.33 54.37 35.93 56.73 28.91 55.78 C 21.77 54.91 15.14 50.59 11.45 44.40 C 7.40 37.77 6.89 29.15 10.14 22.09 C 13.10 15.39 19.35 10.31 26.46 8.64 M 21.51 17.23 C 24.98 20.76 28.51 24.24 32.00 27.75 C 35.50 24.24 39.03 20.77 42.49 17.23 C 36.24 13.04 27.76 13.02 21.51 17.23 M 17.23 21.51 C 13.02 27.75 13.03 36.24 17.23 42.49 C 20.77 39.02 24.25 35.49 27.77 32.00 C 24.25 28.51 20.77 24.98 17.23 21.51 M 36.26 32.00 C 39.76 35.50 43.24 39.02 46.77 42.49 C 50.96 36.23 50.97 27.76 46.77 21.51 C 43.24 24.98 39.76 28.50 36.26 32.00 M 21.51 46.77 C 27.76 50.97 36.24 50.96 42.49 46.77 C 39.02 43.23 35.50 39.75 32.00 36.25 C 28.51 39.76 24.98 43.24 21.51 46.77 Z" />
</g>
</svg>
