<?xml version="1.0" encoding="UTF-8" ?>
<!DOCTYPE svg PUBLIC "-//W3C//DTD SVG 1.1//EN" "http://www.w3.org/Graphics/SVG/1.1/DTD/svg11.dtd">
<svg width="300pt" height="300pt" viewBox="0 0 300 300" version="1.1" xmlns="http://www.w3.org/2000/svg">
<g id="#ffffffff">
<path fill="#ffffff" opacity="1.00" d=" M 0.00 0.00 L 300.00 0.00 L 300.00 300.00 L 0.00 300.00 L 0.00 0.00 M 157.29 49.23 C 154.71 49.37 152.13 49.50 149.54 49.59 C 149.50 51.84 149.50 54.08 149.48 56.32 C 147.73 56.17 145.98 56.02 144.24 55.88 C 142.77 60.43 141.73 65.51 137.37 68.25 C 137.46 68.80 137.64 69.91 137.73 70.47 C 135.48 74.05 133.68 77.95 132.65 82.07 C 132.01 88.04 131.99 94.10 132.98 100.04 C 131.09 101.67 129.79 103.76 129.39 106.26 C 130.47 108.49 131.50 110.74 132.54 112.99 C 131.35 116.31 130.49 119.76 129.05 122.99 C 127.60 123.58 126.05 123.85 124.55 124.26 C 124.04 125.53 123.53 126.79 123.03 128.06 C 117.94 127.51 112.60 127.61 107.93 129.91 C 104.68 131.84 102.05 134.86 98.48 136.19 C 94.44 136.64 90.20 138.58 86.23 136.88 C 83.34 135.55 80.22 136.63 77.25 136.94 C 77.25 137.59 77.25 138.89 77.25 139.54 C 75.69 140.15 74.14 140.78 72.61 141.46 C 78.36 141.40 84.09 141.78 89.84 141.78 C 89.31 142.42 88.24 143.71 87.71 144.35 C 88.00 144.64 88.59 145.21 88.88 145.50 C 87.39 146.66 85.91 147.85 84.44 149.05 C 85.37 150.93 86.87 152.27 88.86 152.98 C 89.97 152.01 91.09 151.04 92.20 150.07 C 95.65 152.43 96.56 156.77 99.14 159.85 C 101.33 161.17 103.87 161.75 106.11 162.98 C 106.71 164.41 106.93 165.97 107.33 167.47 C 108.45 167.74 109.57 168.01 110.69 168.28 C 111.41 169.59 112.14 170.89 112.88 172.21 C 111.14 173.42 109.40 174.63 107.67 175.85 C 108.74 178.77 109.77 181.71 110.43 184.76 C 111.54 185.16 112.65 185.56 113.76 185.97 C 114.62 189.78 114.89 194.13 118.58 196.37 C 118.95 199.56 119.51 202.77 119.17 206.00 C 118.46 206.00 117.06 206.01 116.36 206.01 C 115.06 207.31 113.76 208.61 112.46 209.90 C 112.60 211.98 112.75 214.06 112.86 216.15 C 113.54 216.51 114.91 217.22 115.59 217.58 C 115.23 218.04 114.49 218.95 114.13 219.40 C 116.40 218.81 116.49 221.42 117.36 222.69 C 119.15 223.43 120.87 224.33 122.57 225.26 C 123.33 224.45 124.07 223.63 124.80 222.79 C 126.19 222.91 127.59 223.02 128.98 223.12 C 128.29 224.06 127.59 224.99 126.90 225.93 C 129.19 228.57 131.48 231.30 132.60 234.69 C 133.14 233.83 133.69 232.97 134.23 232.12 C 136.81 232.99 139.40 233.83 141.98 234.67 C 141.54 235.59 141.08 236.49 140.64 237.41 C 141.27 238.74 141.92 240.08 142.58 241.40 C 143.55 240.24 144.53 239.08 145.51 237.93 C 146.01 238.08 147.01 238.39 147.52 238.55 C 148.17 241.93 150.32 244.61 152.53 247.13 C 154.19 245.10 156.64 243.46 157.66 241.03 C 157.17 235.69 156.23 230.40 155.66 225.06 C 156.93 224.32 158.20 223.58 159.47 222.84 C 161.82 223.76 164.14 224.74 166.43 225.80 C 167.14 224.49 168.41 224.25 169.78 224.31 C 171.32 222.82 172.84 221.30 174.36 219.77 C 173.54 218.65 172.72 217.54 171.90 216.43 C 173.06 215.33 174.00 214.10 173.50 212.41 C 173.94 212.15 174.82 211.63 175.26 211.37 C 175.25 209.25 175.25 207.13 175.22 205.02 C 173.09 203.74 171.82 201.58 170.49 199.57 C 166.87 200.20 163.86 197.79 160.77 196.36 C 160.41 196.68 159.68 197.33 159.32 197.65 L 157.41 198.04 C 157.70 194.47 158.23 190.92 158.64 187.36 C 156.44 186.06 154.25 184.74 152.11 183.36 C 153.15 183.53 154.19 183.70 155.24 183.88 C 155.39 180.60 156.99 177.50 159.14 175.10 C 160.37 173.46 161.95 174.95 163.30 175.52 C 163.24 172.84 163.24 170.16 163.24 167.47 C 162.73 167.34 161.71 167.07 161.20 166.94 C 160.44 165.76 159.67 164.59 158.86 163.44 C 160.14 164.81 161.61 165.58 163.23 164.05 C 163.06 161.17 162.46 158.33 162.06 155.48 C 163.79 156.38 165.53 157.27 167.27 158.15 C 167.59 157.28 168.22 155.54 168.54 154.67 C 169.89 155.53 171.25 156.40 172.61 157.25 C 172.77 156.71 173.10 155.62 173.26 155.08 C 174.58 155.65 175.90 156.23 177.22 156.82 C 179.27 156.24 181.33 155.66 183.39 155.09 C 184.66 156.08 185.93 157.06 187.20 158.04 L 187.31 155.48 L 188.71 157.34 C 189.11 156.06 189.50 154.79 189.89 153.51 C 189.38 153.13 188.35 152.37 187.84 151.99 C 189.28 148.67 186.03 145.28 187.25 141.83 C 187.24 139.05 189.12 136.99 190.83 135.03 C 190.10 134.19 189.36 133.34 188.63 132.50 C 189.65 131.89 190.67 131.28 191.70 130.67 C 191.73 130.11 191.79 128.97 191.82 128.40 C 192.65 128.31 194.30 128.11 195.12 128.02 C 195.48 126.81 195.84 125.61 196.22 124.41 C 197.78 124.28 199.35 124.15 200.91 124.01 C 201.34 122.39 201.76 120.77 202.21 119.15 C 199.01 117.98 195.84 116.76 192.63 115.63 C 192.85 114.94 193.28 113.58 193.50 112.89 C 191.05 109.30 187.24 107.23 183.41 105.41 C 178.78 107.77 173.63 106.91 169.02 105.04 C 165.07 102.61 161.24 99.97 157.38 97.41 C 159.33 94.06 161.44 90.81 163.40 87.47 C 165.83 83.68 164.00 78.42 167.18 74.99 C 170.05 71.26 172.89 67.50 175.72 63.73 C 175.74 62.60 175.76 61.46 175.78 60.33 C 174.13 59.71 172.48 59.10 170.83 58.49 C 170.12 54.23 169.44 49.97 168.66 45.73 C 166.17 45.75 163.67 45.75 161.18 45.76 C 159.89 46.92 158.59 48.08 157.29 49.23 M 135.21 236.51 C 135.22 237.05 135.26 238.13 135.28 238.67 C 136.72 238.21 138.17 237.75 139.64 237.37 C 139.94 236.86 140.53 235.85 140.82 235.34 C 138.94 235.67 137.07 236.09 135.21 236.51 Z" />
</g>
<g id="#000000ff">
<path fill="#968176" opacity="1.00" d=" M 157.29 49.23 C 158.59 48.08 159.89 46.92 161.18 45.76 C 163.67 45.75 166.17 45.75 168.66 45.73 C 169.44 49.97 170.12 54.23 170.83 58.49 C 172.48 59.10 174.13 59.71 175.78 60.33 C 175.76 61.46 175.74 62.60 175.72 63.73 C 172.89 67.50 170.05 71.26 167.18 74.99 C 164.00 78.42 165.83 83.68 163.40 87.47 C 161.44 90.81 159.33 94.06 157.38 97.41 C 161.24 99.97 165.07 102.61 169.02 105.04 C 173.63 106.91 178.78 107.77 183.41 105.41 C 187.24 107.23 191.05 109.30 193.50 112.89 C 193.28 113.58 192.85 114.94 192.63 115.63 C 195.84 116.76 199.01 117.98 202.21 119.15 C 201.76 120.77 201.34 122.39 200.91 124.01 C 199.35 124.15 197.78 124.28 196.22 124.41 C 195.84 125.61 195.48 126.81 195.12 128.02 C 194.30 128.11 192.65 128.31 191.82 128.40 C 191.79 128.97 191.73 130.11 191.70 130.67 C 190.67 131.28 189.65 131.89 188.63 132.50 C 189.36 133.34 190.10 134.19 190.83 135.03 C 189.12 136.99 187.24 139.05 187.25 141.83 C 186.03 145.28 189.28 148.67 187.84 151.99 C 188.35 152.37 189.38 153.13 189.89 153.51 C 189.50 154.79 189.11 156.06 188.71 157.34 L 187.31 155.48 L 187.20 158.04 C 185.93 157.06 184.66 156.08 183.39 155.09 C 181.33 155.66 179.27 156.24 177.22 156.82 C 175.90 156.23 174.58 155.65 173.26 155.08 C 173.10 155.62 172.77 156.71 172.61 157.25 C 171.25 156.40 169.89 155.53 168.54 154.67 C 168.22 155.54 167.59 157.28 167.27 158.15 C 165.53 157.27 163.79 156.38 162.06 155.48 C 162.46 158.33 163.06 161.17 163.23 164.05 C 161.61 165.58 160.14 164.81 158.86 163.44 C 159.67 164.59 160.44 165.76 161.20 166.94 C 161.71 167.07 162.73 167.34 163.24 167.47 C 163.24 170.16 163.24 172.84 163.30 175.52 C 161.95 174.95 160.37 173.46 159.14 175.10 C 156.99 177.50 155.39 180.60 155.24 183.88 C 154.19 183.70 153.15 183.53 152.11 183.36 C 154.25 184.74 156.44 186.06 158.64 187.36 C 158.23 190.92 157.70 194.47 157.41 198.04 L 159.32 197.65 C 159.68 197.33 160.41 196.68 160.77 196.36 C 163.86 197.79 166.87 200.20 170.49 199.57 C 171.82 201.58 173.09 203.74 175.22 205.02 C 175.25 207.13 175.25 209.25 175.26 211.37 C 174.82 211.63 173.94 212.15 173.50 212.41 C 174.00 214.10 173.06 215.33 171.90 216.43 C 172.72 217.54 173.54 218.65 174.36 219.77 C 172.84 221.30 171.32 222.82 169.78 224.31 C 168.41 224.25 167.14 224.49 166.43 225.80 C 164.14 224.74 161.82 223.76 159.47 222.84 C 158.20 223.58 156.93 224.32 155.66 225.06 C 156.23 230.40 157.17 235.69 157.66 241.03 C 156.64 243.46 154.19 245.10 152.53 247.13 C 150.32 244.61 148.17 241.93 147.52 238.55 C 147.01 238.39 146.01 238.08 145.51 237.93 C 144.53 239.08 143.55 240.24 142.58 241.40 C 141.92 240.08 141.27 238.74 140.64 237.41 C 141.08 236.49 141.54 235.59 141.98 234.67 C 139.40 233.83 136.81 232.99 134.23 232.12 C 133.69 232.97 133.14 233.83 132.60 234.69 C 131.48 231.30 129.19 228.57 126.90 225.93 C 127.59 224.99 128.29 224.06 128.98 223.12 C 127.59 223.02 126.19 222.91 124.80 222.79 C 124.07 223.63 123.33 224.45 122.57 225.26 C 120.87 224.33 119.15 223.43 117.36 222.69 C 116.49 221.42 116.40 218.81 114.13 219.40 C 114.49 218.95 115.23 218.04 115.59 217.58 C 114.91 217.22 113.54 216.51 112.86 216.15 C 112.75 214.06 112.60 211.98 112.46 209.90 C 113.76 208.61 115.06 207.31 116.36 206.01 C 117.06 206.01 118.46 206.00 119.17 206.00 C 119.51 202.77 118.95 199.56 118.58 196.37 C 114.89 194.13 114.62 189.78 113.76 185.97 C 112.65 185.56 111.54 185.16 110.43 184.76 C 109.77 181.71 108.74 178.77 107.67 175.85 C 109.40 174.63 111.14 173.42 112.88 172.21 C 112.14 170.89 111.41 169.59 110.69 168.28 C 109.57 168.01 108.45 167.74 107.33 167.47 C 106.93 165.97 106.71 164.41 106.11 162.98 C 103.87 161.75 101.33 161.17 99.14 159.85 C 96.56 156.77 95.65 152.43 92.20 150.07 C 91.09 151.04 89.97 152.01 88.86 152.98 C 86.87 152.27 85.37 150.93 84.44 149.05 C 85.91 147.85 87.39 146.66 88.88 145.50 C 88.59 145.21 88.00 144.64 87.71 144.35 C 88.24 143.71 89.31 142.42 89.84 141.78 C 84.09 141.78 78.36 141.40 72.61 141.46 C 74.14 140.78 75.69 140.15 77.25 139.54 C 77.25 138.89 77.25 137.59 77.25 136.94 C 80.22 136.63 83.34 135.55 86.23 136.88 C 90.20 138.58 94.44 136.64 98.48 136.19 C 102.05 134.86 104.68 131.84 107.93 129.91 C 112.60 127.61 117.94 127.51 123.03 128.06 C 123.53 126.79 124.04 125.53 124.55 124.26 C 126.05 123.85 127.60 123.58 129.05 122.99 C 130.49 119.76 131.35 116.31 132.54 112.99 C 131.50 110.74 130.47 108.49 129.39 106.26 C 129.79 103.76 131.09 101.67 132.98 100.04 C 131.99 94.10 132.01 88.04 132.65 82.07 C 133.68 77.95 135.48 74.05 137.73 70.47 C 137.64 69.91 137.46 68.80 137.37 68.25 C 141.73 65.51 142.77 60.43 144.24 55.88 C 145.98 56.02 147.73 56.17 149.48 56.32 C 149.50 54.08 149.50 51.84 149.54 49.59 C 152.13 49.50 154.71 49.37 157.29 49.23 Z" />
<path fill="#968176" opacity="1.00" d=" M 135.21 236.51 C 137.07 236.09 138.94 235.67 140.82 235.34 C 140.53 235.85 139.94 236.86 139.64 237.37 C 138.17 237.75 136.72 238.21 135.28 238.67 C 135.26 238.13 135.22 237.05 135.21 236.51 Z" />
</g>
</svg>
