<?xml version="1.0" encoding="UTF-8" ?>
<!DOCTYPE svg PUBLIC "-//W3C//DTD SVG 1.1//EN" "http://www.w3.org/Graphics/SVG/1.1/DTD/svg11.dtd">
<svg width="60pt" height="60pt" viewBox="0 0 60 60" version="1.1" xmlns="http://www.w3.org/2000/svg">
<g id="#ffffffff">
<path fill="#ffffff" opacity="1.00" d=" M 0.00 0.00 L 60.00 0.00 L 60.00 60.00 L 0.00 60.00 L 0.00 0.00 M 10.36 8.38 C 8.64 9.14 7.78 11.08 8.00 12.89 C 8.03 24.64 7.94 36.40 8.04 48.15 C 7.97 50.61 10.56 52.32 12.84 52.00 C 24.60 51.97 36.37 52.06 48.12 51.96 C 50.57 51.99 52.36 49.44 52.00 47.11 C 52.00 35.72 52.00 24.32 52.00 12.92 C 52.35 10.60 50.63 7.94 48.12 8.04 C 36.06 7.97 24.00 7.98 11.94 8.04 C 11.54 8.12 10.75 8.29 10.36 8.38 Z" />
<path fill="#ffffff" opacity="1.00" d=" M 11.63 24.01 C 12.51 24.01 14.29 24.00 15.17 23.99 C 15.92 25.37 16.67 26.74 17.42 28.12 C 18.14 26.67 18.99 25.29 19.83 23.91 C 20.64 23.94 22.26 24.00 23.06 24.03 C 21.77 26.01 20.50 28.01 19.22 30.00 C 20.50 32.00 21.76 34.01 23.02 36.03 C 21.83 35.97 20.64 35.93 19.44 35.90 C 18.71 34.62 17.98 33.35 17.25 32.08 C 16.45 33.39 15.64 34.69 14.85 36.01 C 14.05 36.00 12.44 35.99 11.63 35.99 C 12.86 33.98 14.07 31.97 15.30 29.96 C 14.08 27.98 12.87 25.99 11.63 24.01 Z" />
<path fill="#ffffff" opacity="1.00" d=" M 25.17 24.00 C 26.37 24.01 27.57 24.00 28.76 24.00 C 29.72 26.49 30.73 28.98 31.77 31.44 C 32.78 28.96 33.76 26.48 34.74 24.00 C 35.64 24.00 37.43 24.00 38.32 24.00 C 38.32 28.00 38.32 32.00 38.32 36.00 C 37.62 36.00 36.21 36.00 35.51 36.00 C 35.52 33.39 35.50 30.79 35.48 28.18 C 34.51 30.46 33.72 32.81 32.64 35.04 C 32.20 35.05 31.32 35.06 30.88 35.06 C 29.80 32.82 28.99 30.46 28.01 28.17 C 27.98 30.78 27.98 33.39 27.99 36.00 C 27.29 36.00 25.88 36.00 25.17 35.99 C 25.18 32.00 25.18 28.00 25.17 24.00 Z" />
<path fill="#ffffff" opacity="1.00" d=" M 41.14 24.00 C 41.90 24.00 43.43 24.00 44.19 24.00 C 44.19 27.15 44.20 30.31 44.19 33.46 C 45.89 33.47 47.58 33.47 49.28 33.47 C 49.28 34.10 49.28 35.36 49.28 35.99 C 46.57 36.00 43.85 36.00 41.14 35.99 C 41.15 32.00 41.15 28.00 41.14 24.00 Z" />
</g>
<g id="#000000ff">
<path fill="#000000" opacity="1.00" d=" M 10.36 8.38 C 10.75 8.29 11.54 8.12 11.94 8.04 C 24.00 7.98 36.06 7.97 48.12 8.04 C 50.63 7.94 52.35 10.60 52.00 12.92 C 52.00 24.32 52.00 35.72 52.00 47.11 C 52.36 49.44 50.57 51.99 48.12 51.96 C 36.37 52.06 24.60 51.97 12.84 52.00 C 10.56 52.32 7.97 50.61 8.04 48.15 C 7.94 36.40 8.03 24.64 8.00 12.89 C 7.78 11.08 8.64 9.14 10.36 8.38 M 11.63 24.01 C 12.87 25.99 14.08 27.98 15.30 29.96 C 14.07 31.97 12.86 33.98 11.63 35.99 C 12.44 35.99 14.05 36.00 14.85 36.01 C 15.64 34.69 16.45 33.39 17.25 32.08 C 17.98 33.35 18.71 34.62 19.44 35.90 C 20.64 35.93 21.83 35.97 23.02 36.03 C 21.76 34.01 20.50 32.00 19.22 30.00 C 20.50 28.01 21.77 26.01 23.06 24.03 C 22.26 24.00 20.64 23.94 19.83 23.91 C 18.99 25.29 18.14 26.67 17.42 28.12 C 16.67 26.74 15.92 25.37 15.17 23.99 C 14.29 24.00 12.51 24.01 11.63 24.01 M 25.17 24.00 C 25.18 28.00 25.18 32.00 25.17 35.99 C 25.88 36.00 27.29 36.00 27.99 36.00 C 27.98 33.39 27.98 30.78 28.01 28.17 C 28.99 30.46 29.80 32.82 30.88 35.06 C 31.32 35.06 32.20 35.05 32.64 35.04 C 33.72 32.81 34.51 30.46 35.48 28.18 C 35.50 30.79 35.52 33.39 35.51 36.00 C 36.21 36.00 37.62 36.00 38.32 36.00 C 38.32 32.00 38.32 28.00 38.32 24.00 C 37.43 24.00 35.64 24.00 34.74 24.00 C 33.76 26.48 32.78 28.96 31.77 31.44 C 30.73 28.98 29.72 26.49 28.76 24.00 C 27.57 24.00 26.37 24.01 25.17 24.00 M 41.14 24.00 C 41.15 28.00 41.15 32.00 41.14 35.99 C 43.85 36.00 46.57 36.00 49.28 35.99 C 49.28 35.36 49.28 34.10 49.28 33.47 C 47.58 33.47 45.89 33.47 44.19 33.46 C 44.20 30.31 44.19 27.15 44.19 24.00 C 43.43 24.00 41.90 24.00 41.14 24.00 Z" />
</g>
</svg>
