<?xml version="1.0" encoding="UTF-8" ?>
<!DOCTYPE svg PUBLIC "-//W3C//DTD SVG 1.1//EN" "http://www.w3.org/Graphics/SVG/1.1/DTD/svg11.dtd">
<svg width="64pt" height="64pt" viewBox="0 0 64 64" version="1.1" xmlns="http://www.w3.org/2000/svg">
<g id="#ffffffff">
<path fill="#ffffff" opacity="1.00" d=" M 0.00 0.00 L 64.00 0.00 L 64.00 64.00 L 0.00 64.00 L 0.00 0.00 M 10.37 13.31 C 9.50 14.52 10.38 15.96 10.76 17.17 C 14.04 25.17 17.15 33.22 20.44 41.21 C 19.40 43.74 18.25 47.34 14.89 47.27 C 13.47 47.62 11.23 47.12 10.70 48.97 C 10.68 52.38 14.81 51.99 17.11 51.58 C 20.59 51.16 22.80 48.06 23.98 45.03 C 27.99 35.28 31.89 25.49 35.77 15.69 C 37.21 13.06 33.12 10.91 31.69 13.37 C 28.65 20.55 26.17 27.97 23.31 35.22 C 20.48 28.11 17.90 20.90 15.03 13.82 C 14.43 11.79 11.38 11.49 10.37 13.31 M 37.83 25.38 C 42.60 24.73 47.03 22.52 51.14 20.10 C 53.21 18.82 51.25 16.74 49.98 15.76 C 45.61 18.49 41.04 21.27 37.83 25.38 M 41.64 32.59 C 46.30 33.91 51.21 34.28 56.03 34.10 C 58.55 34.13 58.64 29.91 56.13 29.87 C 51.29 30.27 46.00 30.21 41.64 32.59 M 37.94 38.87 C 41.06 42.60 45.15 45.45 49.31 47.89 C 51.51 48.95 53.21 45.01 51.09 43.93 C 47.00 41.66 42.69 39.29 37.94 38.87 Z" />
</g>
<g id="#000000ff">
<path fill="#000000" opacity="1.00" d=" M 10.37 13.31 C 11.38 11.49 14.43 11.79 15.03 13.82 C 17.90 20.90 20.48 28.11 23.31 35.22 C 26.17 27.97 28.65 20.55 31.69 13.37 C 33.12 10.91 37.21 13.06 35.77 15.69 C 31.89 25.49 27.99 35.28 23.98 45.03 C 22.80 48.06 20.59 51.16 17.11 51.58 C 14.81 51.99 10.68 52.38 10.70 48.97 C 11.23 47.12 13.47 47.62 14.89 47.27 C 18.25 47.34 19.40 43.74 20.44 41.21 C 17.15 33.22 14.04 25.17 10.76 17.17 C 10.38 15.96 9.50 14.52 10.37 13.31 Z" />
<path fill="#000000" opacity="1.00" d=" M 37.83 25.38 C 41.04 21.27 45.61 18.49 49.98 15.76 C 51.25 16.74 53.21 18.82 51.14 20.10 C 47.03 22.52 42.60 24.73 37.83 25.38 Z" />
<path fill="#000000" opacity="1.00" d=" M 41.64 32.59 C 46.00 30.21 51.29 30.27 56.13 29.87 C 58.64 29.91 58.55 34.13 56.03 34.10 C 51.21 34.28 46.30 33.91 41.64 32.59 Z" />
<path fill="#000000" opacity="1.00" d=" M 37.94 38.87 C 42.69 39.29 47.00 41.66 51.09 43.93 C 53.21 45.01 51.51 48.95 49.31 47.89 C 45.15 45.45 41.06 42.60 37.94 38.87 Z" />
</g>
</svg>
