<?xml version="1.0" encoding="UTF-8" ?>
<!DOCTYPE svg PUBLIC "-//W3C//DTD SVG 1.1//EN" "http://www.w3.org/Graphics/SVG/1.1/DTD/svg11.dtd">
<svg width="60pt" height="60pt" viewBox="0 0 60 60" version="1.1" xmlns="http://www.w3.org/2000/svg">
<g id="#ffffffff">
<path fill="#ffffff" opacity="1.00" d=" M 0.00 0.00 L 60.00 0.00 L 60.00 60.00 L 0.00 60.00 L 0.00 0.00 M 8.19 9.21 C 4.66 13.56 5.61 20.32 9.80 23.91 C 9.23 25.19 8.66 26.48 8.08 27.76 C 9.44 29.48 10.93 31.11 12.06 33.00 C 11.07 35.07 8.36 32.71 6.71 32.40 C 6.37 34.93 6.11 37.48 5.94 40.03 C 10.13 43.65 14.84 46.61 19.77 49.11 C 22.23 58.18 37.76 58.18 40.21 49.12 C 45.15 46.61 49.87 43.66 54.06 40.03 C 53.87 37.48 53.63 34.94 53.29 32.42 C 51.52 33.11 49.71 33.69 47.87 34.17 C 48.38 31.58 50.36 29.76 51.91 27.76 C 51.34 26.48 50.77 25.19 50.19 23.91 C 54.39 20.33 55.34 13.55 51.81 9.22 C 49.37 6.53 46.04 9.53 43.18 9.69 C 38.62 10.95 34.56 7.59 30.00 8.02 C 25.43 7.59 21.36 10.96 16.78 9.69 C 13.94 9.51 10.62 6.54 8.19 9.21 Z" />
<path fill="#ffffff" opacity="1.00" d=" M 19.81 15.93 C 25.39 10.76 34.60 10.76 40.18 15.92 C 37.60 16.00 35.01 16.01 32.42 15.98 C 33.69 17.26 34.93 18.58 36.12 19.94 C 32.04 20.03 27.96 20.03 23.88 19.94 C 25.06 18.57 26.31 17.26 27.58 15.98 C 24.99 16.01 22.40 16.00 19.81 15.93 Z" />
<path fill="#ffffff" opacity="1.00" d=" M 10.67 12.14 C 12.39 12.69 14.12 13.21 15.86 13.68 C 14.12 15.69 12.68 17.92 11.20 20.13 C 9.93 17.61 9.80 14.81 10.67 12.14 Z" />
<path fill="#ffffff" opacity="1.00" d=" M 44.13 13.68 C 45.88 13.21 47.61 12.69 49.33 12.14 C 50.20 14.82 50.07 17.62 48.82 20.15 C 47.32 17.95 45.89 15.69 44.13 13.68 Z" />
<path fill="#ffffff" opacity="1.00" d=" M 15.75 26.03 C 17.77 26.30 20.55 25.18 21.90 27.19 C 22.31 28.47 21.42 30.23 19.90 29.94 C 17.67 30.02 16.83 27.52 15.75 26.03 Z" />
<path fill="#ffffff" opacity="1.00" d=" M 26.12 26.00 C 28.71 26.00 31.29 26.00 33.88 26.00 C 34.18 28.48 34.03 31.24 35.54 33.37 C 37.98 34.57 40.27 36.03 42.19 37.97 C 41.73 39.90 41.96 42.78 39.61 43.52 C 36.88 44.21 34.03 43.92 31.24 44.06 C 31.97 42.32 32.01 40.43 32.12 38.58 C 33.53 37.42 34.51 35.89 35.24 34.24 C 31.75 34.59 28.25 34.60 24.75 34.24 C 25.48 35.90 26.46 37.43 27.88 38.58 C 27.99 40.43 28.03 42.31 28.74 44.06 C 25.33 43.53 19.48 45.42 18.27 40.92 C 16.64 36.74 21.68 34.99 24.47 33.35 C 25.95 31.21 25.81 28.47 26.12 26.00 Z" />
<path fill="#ffffff" opacity="1.00" d=" M 38.10 28.82 C 37.31 25.12 42.04 26.08 44.25 26.03 C 43.31 28.27 40.28 31.85 38.10 28.82 Z" />
<path fill="#ffffff" opacity="1.00" d=" M 25.32 46.39 C 28.01 48.82 31.99 48.81 34.68 46.39 C 34.95 47.64 35.23 48.88 35.51 50.13 C 32.21 52.50 27.78 52.50 24.49 50.13 C 24.77 48.88 25.05 47.64 25.32 46.39 Z" />
</g>
<g id="#000000ff">
<path fill="#000000" opacity="1.00" d=" M 8.19 9.21 C 10.62 6.54 13.94 9.51 16.78 9.69 C 21.36 10.96 25.43 7.59 30.00 8.02 C 34.56 7.59 38.62 10.95 43.18 9.69 C 46.04 9.53 49.37 6.53 51.81 9.22 C 55.34 13.55 54.39 20.33 50.19 23.91 C 50.77 25.19 51.34 26.48 51.91 27.76 C 50.36 29.76 48.38 31.58 47.87 34.17 C 49.71 33.69 51.52 33.11 53.29 32.42 C 53.63 34.94 53.87 37.48 54.06 40.03 C 49.87 43.66 45.15 46.61 40.21 49.12 C 37.76 58.18 22.23 58.18 19.77 49.11 C 14.84 46.61 10.13 43.65 5.94 40.03 C 6.11 37.48 6.37 34.93 6.71 32.40 C 8.36 32.71 11.07 35.07 12.06 33.00 C 10.93 31.11 9.44 29.48 8.08 27.76 C 8.66 26.48 9.23 25.19 9.80 23.91 C 5.61 20.32 4.66 13.56 8.19 9.21 M 19.81 15.93 C 22.40 16.00 24.99 16.01 27.58 15.98 C 26.31 17.26 25.06 18.57 23.88 19.94 C 27.96 20.03 32.04 20.03 36.12 19.94 C 34.93 18.58 33.69 17.26 32.42 15.98 C 35.01 16.01 37.60 16.00 40.18 15.92 C 34.60 10.76 25.39 10.76 19.81 15.93 M 10.67 12.14 C 9.80 14.81 9.93 17.61 11.20 20.13 C 12.68 17.92 14.12 15.69 15.86 13.68 C 14.12 13.21 12.39 12.69 10.67 12.14 M 44.13 13.68 C 45.89 15.69 47.32 17.95 48.82 20.15 C 50.07 17.62 50.20 14.82 49.33 12.14 C 47.61 12.69 45.88 13.21 44.13 13.68 M 15.75 26.03 C 16.83 27.52 17.67 30.02 19.90 29.94 C 21.42 30.23 22.31 28.47 21.90 27.19 C 20.55 25.18 17.77 26.30 15.75 26.03 M 26.12 26.00 C 25.81 28.47 25.95 31.21 24.47 33.35 C 21.68 34.99 16.64 36.74 18.27 40.92 C 19.48 45.42 25.33 43.53 28.74 44.06 C 28.03 42.31 27.99 40.43 27.88 38.58 C 26.46 37.43 25.48 35.90 24.75 34.24 C 28.25 34.60 31.75 34.59 35.24 34.24 C 34.51 35.89 33.53 37.42 32.12 38.58 C 32.01 40.43 31.97 42.32 31.24 44.06 C 34.03 43.92 36.88 44.21 39.61 43.52 C 41.96 42.78 41.73 39.90 42.19 37.97 C 40.27 36.03 37.98 34.57 35.54 33.37 C 34.03 31.24 34.18 28.48 33.88 26.00 C 31.29 26.00 28.71 26.00 26.12 26.00 M 38.10 28.82 C 40.28 31.85 43.31 28.27 44.25 26.03 C 42.04 26.08 37.31 25.12 38.10 28.82 M 25.32 46.39 C 25.05 47.64 24.77 48.88 24.49 50.13 C 27.78 52.50 32.21 52.50 35.51 50.13 C 35.23 48.88 34.95 47.64 34.68 46.39 C 31.99 48.81 28.01 48.82 25.32 46.39 Z" />
</g>
</svg>
