<?xml version="1.0" encoding="UTF-8" ?>
<!DOCTYPE svg PUBLIC "-//W3C//DTD SVG 1.1//EN" "http://www.w3.org/Graphics/SVG/1.1/DTD/svg11.dtd">
<svg width="60pt" height="60pt" viewBox="0 0 60 60" version="1.1" xmlns="http://www.w3.org/2000/svg">
<g id="#ffffffff">
<path fill="#ffffff" opacity="1.00" d=" M 0.00 0.00 L 60.00 0.00 L 60.00 60.00 L 0.00 60.00 L 0.00 0.00 M 12.21 26.19 C 8.58 29.61 6.37 35.61 9.67 39.99 C 8.16 39.93 6.65 40.00 5.16 40.20 C 3.65 40.78 3.62 43.16 5.13 43.78 C 9.44 44.39 13.81 43.69 18.14 44.10 C 18.33 44.62 18.71 45.66 18.89 46.18 C 15.69 46.93 12.39 47.27 9.24 48.25 C 7.11 48.72 7.91 52.35 10.02 51.90 C 13.47 51.58 16.81 50.58 20.22 50.00 C 22.00 52.78 24.53 55.36 27.96 55.81 C 32.62 56.81 37.49 54.31 39.59 50.07 C 43.05 50.48 46.40 51.53 49.87 51.89 C 52.01 52.48 52.94 48.79 50.79 48.26 C 47.63 47.27 44.32 46.92 41.10 46.17 C 41.29 45.66 41.67 44.62 41.86 44.10 C 46.18 43.69 50.54 44.37 54.85 43.79 C 56.37 43.18 56.37 40.82 54.86 40.20 C 53.36 40.00 51.84 39.93 50.33 39.99 C 53.59 35.63 51.48 29.63 47.82 26.25 C 50.78 23.67 52.72 19.83 51.85 15.83 C 51.50 10.45 46.71 5.47 41.13 6.10 C 39.45 7.90 38.69 10.32 37.54 12.46 C 34.97 11.85 32.33 12.04 29.99 13.32 C 27.66 12.03 25.01 11.88 22.44 12.47 C 21.25 10.35 20.61 7.75 18.76 6.08 C 8.49 5.19 4.10 20.60 12.21 26.19 Z" />
<path fill="#ffffff" opacity="1.00" d=" M 14.49 23.21 C 10.49 19.54 11.47 12.37 16.37 9.95 C 17.46 11.45 18.38 13.06 19.14 14.75 C 17.08 17.28 15.69 20.22 14.49 23.21 Z" />
<path fill="#ffffff" opacity="1.00" d=" M 40.88 14.77 C 41.63 13.25 42.36 11.73 43.04 10.18 C 48.70 11.57 49.52 19.63 45.51 23.21 C 44.31 20.22 42.92 17.29 40.88 14.77 Z" />
<path fill="#ffffff" opacity="1.00" d=" M 23.13 30.10 C 25.53 29.06 27.24 32.90 24.75 33.82 C 22.46 34.94 20.86 31.19 23.13 30.10 Z" />
<path fill="#ffffff" opacity="1.00" d=" M 35.19 30.09 C 37.56 29.11 39.22 32.90 36.77 33.81 C 34.46 34.98 32.82 31.11 35.19 30.09 Z" />
<path fill="#ffffff" opacity="1.00" d=" M 28.26 46.21 C 30.16 45.76 32.27 46.04 33.85 47.23 C 34.25 50.52 28.97 50.48 26.90 49.22 C 24.79 48.28 26.78 46.31 28.26 46.21 Z" />
</g>
<g id="#000000ff">
<path fill="#000000" opacity="1.00" d=" M 12.21 26.19 C 4.10 20.60 8.49 5.19 18.76 6.08 C 20.61 7.75 21.25 10.35 22.44 12.47 C 25.01 11.88 27.66 12.03 29.99 13.32 C 32.33 12.04 34.97 11.85 37.54 12.46 C 38.69 10.32 39.45 7.90 41.13 6.10 C 46.71 5.47 51.50 10.45 51.85 15.83 C 52.72 19.83 50.78 23.67 47.82 26.25 C 51.48 29.63 53.59 35.63 50.33 39.99 C 51.84 39.93 53.36 40.00 54.86 40.20 C 56.37 40.82 56.37 43.18 54.85 43.79 C 50.54 44.37 46.18 43.69 41.86 44.10 C 41.67 44.62 41.29 45.66 41.10 46.17 C 44.32 46.92 47.63 47.27 50.79 48.26 C 52.94 48.79 52.01 52.48 49.87 51.89 C 46.40 51.53 43.05 50.48 39.59 50.07 C 37.49 54.31 32.62 56.81 27.96 55.81 C 24.53 55.36 22.00 52.78 20.22 50.00 C 16.81 50.58 13.47 51.58 10.02 51.90 C 7.91 52.35 7.11 48.72 9.24 48.25 C 12.39 47.27 15.69 46.93 18.89 46.18 C 18.71 45.66 18.33 44.62 18.14 44.10 C 13.81 43.69 9.44 44.39 5.13 43.78 C 3.62 43.16 3.65 40.78 5.16 40.20 C 6.65 40.00 8.16 39.93 9.67 39.99 C 6.37 35.61 8.58 29.61 12.21 26.19 M 14.49 23.21 C 15.69 20.22 17.08 17.28 19.14 14.75 C 18.38 13.06 17.46 11.45 16.37 9.95 C 11.47 12.37 10.49 19.54 14.49 23.21 M 40.88 14.77 C 42.92 17.29 44.31 20.22 45.51 23.21 C 49.52 19.63 48.70 11.57 43.04 10.18 C 42.36 11.73 41.63 13.25 40.88 14.77 M 23.13 30.10 C 20.86 31.19 22.46 34.94 24.75 33.82 C 27.24 32.90 25.53 29.06 23.13 30.10 M 35.19 30.09 C 32.82 31.11 34.46 34.98 36.77 33.81 C 39.22 32.90 37.56 29.11 35.19 30.09 M 28.26 46.21 C 26.78 46.31 24.79 48.28 26.90 49.22 C 28.97 50.48 34.25 50.52 33.85 47.23 C 32.27 46.04 30.16 45.76 28.26 46.21 Z" />
</g>
</svg>
