<?xml version="1.0" encoding="UTF-8" ?>
<!DOCTYPE svg PUBLIC "-//W3C//DTD SVG 1.1//EN" "http://www.w3.org/Graphics/SVG/1.1/DTD/svg11.dtd">
<svg width="60pt" height="60pt" viewBox="0 0 60 60" version="1.1" xmlns="http://www.w3.org/2000/svg">
<g id="#ffffffff">
<path fill="#ffffff" opacity="1.00" d=" M 0.00 0.00 L 60.00 0.00 L 60.00 60.00 L 0.00 60.00 L 0.00 0.00 M 10.46 20.42 C 7.08 26.47 7.22 34.28 10.82 40.21 C 14.33 46.18 21.10 50.08 28.05 49.98 C 32.82 50.10 37.07 47.64 41.54 46.36 C 44.13 48.83 46.45 51.58 49.24 53.84 C 50.87 54.50 52.57 52.91 51.85 51.25 C 49.39 48.26 46.44 45.71 43.73 42.97 C 44.72 40.84 45.95 38.82 46.80 36.63 C 48.98 30.71 48.07 23.77 44.42 18.62 C 40.59 13.01 33.76 9.62 26.97 10.04 C 20.15 10.31 13.69 14.42 10.46 20.42 Z" />
<path fill="#ffffff" opacity="1.00" d=" M 12.07 28.93 C 12.34 21.54 18.36 15.67 25.31 14.00 C 22.34 16.18 19.63 18.74 17.79 21.96 C 25.83 22.04 33.87 21.99 41.91 21.99 C 42.46 23.32 43.00 24.64 43.54 25.97 C 42.66 25.98 40.88 26.00 40.00 26.01 C 40.00 27.34 40.00 28.67 40.00 29.99 C 38.67 30.00 37.33 30.00 36.00 30.00 C 36.00 28.67 36.00 27.33 36.00 26.00 C 34.67 26.00 33.33 26.00 32.00 26.00 C 32.00 27.33 32.00 28.67 32.00 30.00 C 30.67 30.00 29.33 30.00 28.00 30.00 C 28.00 28.67 28.00 27.34 28.00 26.01 C 24.39 26.06 20.75 25.77 17.15 26.19 C 15.25 27.43 16.13 30.11 16.05 32.01 C 15.91 33.40 17.65 33.62 18.46 34.37 C 18.08 36.89 16.67 42.45 20.81 41.92 C 22.98 40.07 21.80 36.84 21.55 34.40 C 23.47 33.66 24.15 31.92 24.31 30.00 C 25.54 30.00 26.77 30.00 28.00 30.00 C 28.00 31.33 28.00 32.67 28.00 34.00 C 29.33 34.00 30.67 34.00 32.00 34.00 C 32.00 32.67 32.00 31.33 32.00 30.00 C 33.33 30.00 34.67 30.00 36.00 30.00 C 36.00 31.33 36.00 32.67 36.00 34.00 C 37.33 34.00 38.67 34.00 40.00 34.00 C 40.00 32.66 40.00 31.33 40.00 29.99 C 41.38 30.01 42.76 30.02 44.14 30.03 C 43.83 32.79 43.12 35.49 41.97 38.01 C 37.01 38.10 32.03 37.76 27.08 38.18 C 25.02 40.10 26.38 43.44 25.95 45.96 C 17.89 44.77 11.29 37.20 12.07 28.93 Z" />
</g>
<g id="#000000ff">
<path fill="#000000" opacity="1.00" d=" M 10.46 20.42 C 13.69 14.42 20.15 10.31 26.97 10.04 C 33.76 9.62 40.59 13.01 44.42 18.62 C 48.07 23.77 48.98 30.71 46.80 36.63 C 45.95 38.82 44.72 40.84 43.73 42.97 C 46.44 45.71 49.39 48.26 51.85 51.25 C 52.57 52.91 50.87 54.50 49.24 53.84 C 46.45 51.58 44.13 48.83 41.54 46.36 C 37.07 47.64 32.82 50.10 28.05 49.98 C 21.10 50.08 14.33 46.18 10.82 40.21 C 7.22 34.28 7.08 26.47 10.46 20.42 M 12.07 28.93 C 11.29 37.20 17.89 44.77 25.95 45.96 C 26.38 43.44 25.02 40.10 27.08 38.18 C 32.03 37.76 37.01 38.10 41.97 38.01 C 43.12 35.49 43.83 32.79 44.14 30.03 C 42.76 30.02 41.38 30.01 40.00 29.99 C 40.00 28.67 40.00 27.34 40.00 26.01 C 40.88 26.00 42.66 25.98 43.54 25.97 C 43.00 24.64 42.46 23.32 41.91 21.99 C 33.87 21.99 25.83 22.04 17.79 21.96 C 19.63 18.74 22.34 16.18 25.31 14.00 C 18.36 15.67 12.34 21.54 12.07 28.93 Z" />
<path fill="#000000" opacity="1.00" d=" M 17.15 26.19 C 20.75 25.77 24.39 26.06 28.00 26.01 C 28.00 27.34 28.00 28.67 28.00 30.00 C 26.77 30.00 25.54 30.00 24.31 30.00 C 24.15 31.92 23.47 33.66 21.55 34.40 C 21.80 36.84 22.98 40.07 20.81 41.92 C 16.67 42.45 18.08 36.89 18.46 34.37 C 17.65 33.62 15.91 33.40 16.05 32.01 C 16.13 30.11 15.25 27.43 17.15 26.19 Z" />
<path fill="#000000" opacity="1.00" d=" M 32.00 26.00 C 33.33 26.00 34.67 26.00 36.00 26.00 C 36.00 27.33 36.00 28.67 36.00 30.00 C 34.67 30.00 33.33 30.00 32.00 30.00 C 32.00 28.67 32.00 27.33 32.00 26.00 Z" />
<path fill="#000000" opacity="1.00" d=" M 28.00 30.00 C 29.33 30.00 30.67 30.00 32.00 30.00 C 32.00 31.33 32.00 32.67 32.00 34.00 C 30.67 34.00 29.33 34.00 28.00 34.00 C 28.00 32.67 28.00 31.33 28.00 30.00 Z" />
<path fill="#000000" opacity="1.00" d=" M 36.00 30.00 C 37.33 30.00 38.67 30.00 40.00 29.99 C 40.00 31.33 40.00 32.66 40.00 34.00 C 38.67 34.00 37.33 34.00 36.00 34.00 C 36.00 32.67 36.00 31.33 36.00 30.00 Z" />
</g>
</svg>
