<?xml version="1.0" encoding="UTF-8" ?>
<!DOCTYPE svg PUBLIC "-//W3C//DTD SVG 1.1//EN" "http://www.w3.org/Graphics/SVG/1.1/DTD/svg11.dtd">
<svg width="64pt" height="64pt" viewBox="0 0 64 64" version="1.1" xmlns="http://www.w3.org/2000/svg">
<g id="#ffffffff">
<path fill="#ffffff" opacity="1.00" d=" M 0.00 0.00 L 64.00 0.00 L 64.00 64.00 L 0.00 64.00 L 0.00 0.00 M 21.56 9.50 C 14.80 13.53 10.30 21.08 10.04 28.96 C 9.71 34.94 11.86 40.89 15.65 45.48 C 12.53 48.73 9.29 51.86 6.13 55.07 C 7.07 56.00 8.00 56.94 8.94 57.87 C 12.17 54.72 15.26 51.43 18.56 48.35 C 24.65 53.55 33.41 55.35 41.04 52.92 C 50.19 50.22 57.19 41.59 57.89 32.07 C 58.86 22.48 53.33 12.71 44.67 8.51 C 37.47 4.88 28.43 5.23 21.56 9.50 Z" />
<path fill="#ffffff" opacity="1.00" d=" M 16.50 20.19 C 20.76 12.82 29.74 8.51 38.14 10.43 C 46.53 12.03 52.91 19.51 53.99 27.85 C 53.50 27.90 52.50 28.00 52.00 28.05 C 52.00 28.54 51.99 29.51 51.99 30.00 C 51.50 30.00 50.51 30.00 50.01 30.00 C 50.01 29.50 49.99 28.50 49.99 28.00 C 49.49 28.00 48.51 28.00 48.01 28.00 C 48.01 28.50 47.99 29.50 47.99 30.00 C 47.49 30.00 46.51 30.00 46.01 30.00 C 46.01 29.50 45.99 28.50 45.99 28.00 C 45.49 28.00 44.51 28.00 44.01 28.00 C 44.01 28.50 43.99 29.50 43.99 30.00 C 43.49 30.00 42.51 30.00 42.01 30.00 C 42.01 29.50 41.99 28.50 41.99 28.00 C 41.49 28.00 40.50 28.00 40.00 28.00 C 40.00 29.33 40.00 30.66 40.00 31.99 C 40.50 31.99 41.49 32.00 41.99 32.01 C 42.00 32.51 42.01 33.50 42.01 34.00 C 42.51 34.00 43.49 34.00 43.99 34.00 C 43.99 33.50 44.01 32.50 44.02 32.00 C 44.51 32.00 45.49 32.00 45.99 32.00 C 45.99 32.50 46.01 33.50 46.01 34.00 C 46.51 34.00 47.49 34.00 47.99 34.00 C 47.99 33.50 48.01 32.50 48.01 32.00 C 48.51 32.00 49.49 32.00 49.99 32.00 C 49.99 32.50 50.01 33.50 50.01 34.00 C 50.51 34.00 51.49 34.00 51.99 34.00 C 51.99 33.49 52.00 32.48 52.01 31.98 C 52.50 32.00 53.48 32.06 53.97 32.08 C 53.06 38.71 49.05 44.95 42.94 47.88 C 34.80 52.14 23.88 49.70 18.31 42.45 C 18.92 42.34 20.13 42.13 20.73 42.02 C 19.45 40.81 17.99 39.82 16.27 39.37 C 13.43 33.72 13.30 26.91 15.97 21.17 C 16.35 21.50 17.11 22.16 17.49 22.49 C 18.25 21.96 19.76 20.89 20.52 20.35 C 19.53 18.93 18.19 18.87 16.50 20.19 M 18.22 24.59 C 18.65 24.94 19.52 25.63 19.95 25.98 C 20.85 25.05 21.76 24.13 22.67 23.20 C 21.44 20.66 19.52 23.78 18.22 24.59 M 23.87 24.47 C 23.06 25.50 22.24 26.54 21.42 27.57 C 22.06 27.97 22.70 28.39 23.33 28.83 C 24.01 27.73 24.69 26.63 25.38 25.53 C 24.88 25.17 24.37 24.82 23.87 24.47 M 24.81 30.08 L 26.18 29.35 C 26.18 30.43 26.17 31.52 26.17 32.60 L 24.78 32.14 C 25.59 33.29 26.41 34.43 27.11 35.65 C 27.45 35.47 28.13 35.11 28.46 34.93 C 28.06 33.35 27.70 31.75 27.35 30.16 C 27.78 29.10 28.22 28.03 28.65 26.97 C 26.37 25.67 25.90 28.76 24.81 30.08 M 30.00 28.00 C 30.00 30.00 30.00 32.00 30.00 34.00 C 32.67 34.00 35.33 34.00 38.00 34.00 C 38.00 32.00 38.00 30.00 38.00 28.00 C 35.33 28.00 32.67 28.00 30.00 28.00 M 21.39 34.28 C 22.58 35.42 23.25 38.25 25.44 37.03 C 24.80 35.74 24.13 34.47 23.45 33.20 C 22.77 33.57 22.08 33.93 21.39 34.28 M 19.42 36.01 C 19.15 36.43 18.62 37.28 18.36 37.71 C 19.47 38.53 20.59 39.35 21.73 40.15 C 23.60 38.29 20.72 36.98 19.42 36.01 M 32.00 36.00 C 32.00 39.33 32.00 42.67 32.00 46.00 C 33.33 46.00 34.67 46.00 36.00 46.00 C 36.00 42.67 36.00 39.33 36.00 36.00 C 34.67 36.00 33.33 36.00 32.00 36.00 Z" />
</g>
<g id="#000000ff">
<path fill="#000000" opacity="1.00" d=" M 21.56 9.50 C 28.43 5.23 37.47 4.88 44.67 8.51 C 53.33 12.71 58.86 22.48 57.89 32.07 C 57.19 41.59 50.19 50.22 41.04 52.92 C 33.41 55.35 24.65 53.55 18.56 48.35 C 15.26 51.43 12.17 54.72 8.94 57.87 C 8.00 56.94 7.07 56.00 6.13 55.07 C 9.29 51.86 12.53 48.73 15.65 45.48 C 11.86 40.89 9.71 34.94 10.04 28.96 C 10.30 21.08 14.80 13.53 21.56 9.50 M 16.50 20.19 C 18.19 18.87 19.53 18.93 20.52 20.35 C 19.76 20.89 18.25 21.96 17.49 22.49 C 17.11 22.16 16.35 21.50 15.97 21.17 C 13.30 26.91 13.43 33.72 16.27 39.37 C 17.99 39.82 19.45 40.81 20.73 42.02 C 20.13 42.13 18.92 42.34 18.31 42.45 C 23.88 49.70 34.80 52.14 42.94 47.88 C 49.05 44.95 53.06 38.71 53.97 32.08 C 53.48 32.06 52.50 32.00 52.01 31.98 C 52.00 32.48 51.99 33.49 51.99 34.00 C 51.49 34.00 50.51 34.00 50.01 34.00 C 50.01 33.50 49.99 32.50 49.99 32.00 C 49.49 32.00 48.51 32.00 48.01 32.00 C 48.01 32.50 47.99 33.50 47.99 34.00 C 47.49 34.00 46.51 34.00 46.01 34.00 C 46.01 33.50 45.99 32.50 45.99 32.00 C 45.49 32.00 44.51 32.00 44.02 32.00 C 44.01 32.50 43.99 33.50 43.99 34.00 C 43.49 34.00 42.51 34.00 42.01 34.00 C 42.01 33.50 42.00 32.51 41.99 32.01 C 41.49 32.00 40.50 31.99 40.00 31.99 C 40.00 30.66 40.00 29.33 40.00 28.00 C 40.50 28.00 41.49 28.00 41.99 28.00 C 41.99 28.50 42.01 29.50 42.01 30.00 C 42.51 30.00 43.49 30.00 43.99 30.00 C 43.99 29.50 44.01 28.50 44.01 28.00 C 44.51 28.00 45.49 28.00 45.99 28.00 C 45.99 28.50 46.01 29.50 46.01 30.00 C 46.51 30.00 47.49 30.00 47.99 30.00 C 47.99 29.50 48.01 28.50 48.01 28.00 C 48.51 28.00 49.49 28.00 49.99 28.00 C 49.99 28.50 50.01 29.50 50.01 30.00 C 50.51 30.00 51.50 30.00 51.99 30.00 C 51.99 29.51 52.00 28.54 52.00 28.05 C 52.50 28.00 53.50 27.90 53.99 27.85 C 52.91 19.51 46.53 12.03 38.14 10.43 C 29.74 8.51 20.76 12.82 16.50 20.19 Z" />
<path fill="#000000" opacity="1.00" d=" M 18.22 24.59 C 19.52 23.78 21.44 20.66 22.67 23.20 C 21.76 24.13 20.85 25.05 19.95 25.98 C 19.52 25.63 18.65 24.94 18.22 24.59 Z" />
<path fill="#000000" opacity="1.00" d=" M 23.87 24.47 C 24.37 24.82 24.88 25.17 25.38 25.53 C 24.69 26.63 24.01 27.73 23.33 28.83 C 22.70 28.39 22.06 27.97 21.42 27.57 C 22.24 26.54 23.06 25.50 23.87 24.47 Z" />
<path fill="#000000" opacity="1.00" d=" M 24.81 30.08 C 25.90 28.76 26.37 25.67 28.65 26.97 C 28.22 28.03 27.78 29.10 27.35 30.16 C 27.70 31.75 28.06 33.35 28.46 34.93 C 28.13 35.11 27.45 35.47 27.11 35.65 C 26.41 34.43 25.59 33.29 24.78 32.14 L 26.17 32.60 C 26.17 31.52 26.18 30.43 26.18 29.35 L 24.81 30.08 Z" />
<path fill="#000000" opacity="1.00" d=" M 30.00 28.00 C 32.67 28.00 35.33 28.00 38.00 28.00 C 38.00 30.00 38.00 32.00 38.00 34.00 C 35.33 34.00 32.67 34.00 30.00 34.00 C 30.00 32.00 30.00 30.00 30.00 28.00 Z" />
<path fill="#000000" opacity="1.00" d=" M 21.39 34.28 C 22.08 33.93 22.77 33.57 23.45 33.20 C 24.13 34.47 24.80 35.74 25.44 37.03 C 23.25 38.25 22.58 35.42 21.39 34.28 Z" />
<path fill="#000000" opacity="1.00" d=" M 19.42 36.01 C 20.72 36.98 23.60 38.29 21.73 40.15 C 20.59 39.35 19.47 38.53 18.36 37.71 C 18.62 37.28 19.15 36.43 19.42 36.01 Z" />
<path fill="#000000" opacity="1.00" d=" M 32.00 36.00 C 33.33 36.00 34.67 36.00 36.00 36.00 C 36.00 39.33 36.00 42.67 36.00 46.00 C 34.67 46.00 33.33 46.00 32.00 46.00 C 32.00 42.67 32.00 39.33 32.00 36.00 Z" />
</g>
</svg>
