<?xml version="1.0" encoding="UTF-8" ?>
<!DOCTYPE svg PUBLIC "-//W3C//DTD SVG 1.1//EN" "http://www.w3.org/Graphics/SVG/1.1/DTD/svg11.dtd">
<svg width="64pt" height="64pt" viewBox="0 0 64 64" version="1.1" xmlns="http://www.w3.org/2000/svg">
<g id="#ffffffff">
<path fill="#ffffff" opacity="1.00" d=" M 0.00 0.00 L 64.00 0.00 L 64.00 64.00 L 0.00 64.00 L 0.00 0.00 M 10.00 10.00 C 10.00 24.67 10.00 39.33 10.00 54.00 C 24.67 54.00 39.33 54.00 54.00 54.00 C 54.00 39.33 54.00 24.67 54.00 10.00 C 39.33 10.00 24.67 10.00 10.00 10.00 Z" />
<path fill="#ffffff" opacity="1.00" d=" M 14.00 14.00 C 26.00 14.00 38.00 14.00 50.00 14.00 C 50.00 26.00 50.00 38.00 50.00 50.00 C 38.00 50.00 26.00 50.00 14.00 50.00 C 14.00 38.00 14.00 26.00 14.00 14.00 M 31.35 22.03 C 30.65 24.88 29.02 27.56 26.00 28.35 C 26.00 29.63 26.02 30.92 26.05 32.21 C 28.14 31.66 30.13 30.80 32.00 29.73 C 31.99 33.82 32.01 37.91 32.01 42.00 C 33.33 42.00 34.66 42.00 35.99 42.00 C 36.00 35.33 36.01 28.66 35.98 21.98 C 34.44 22.00 32.89 22.01 31.35 22.03 Z" />
</g>
<g id="#000000ff">
<path fill="#000000" opacity="1.00" d=" M 10.00 10.00 C 24.67 10.00 39.33 10.00 54.00 10.00 C 54.00 24.67 54.00 39.33 54.00 54.00 C 39.33 54.00 24.67 54.00 10.00 54.00 C 10.00 39.33 10.00 24.67 10.00 10.00 M 14.00 14.00 C 14.00 26.00 14.00 38.00 14.00 50.00 C 26.00 50.00 38.00 50.00 50.00 50.00 C 50.00 38.00 50.00 26.00 50.00 14.00 C 38.00 14.00 26.00 14.00 14.00 14.00 Z" />
<path fill="#000000" opacity="1.00" d=" M 31.35 22.03 C 32.89 22.01 34.44 22.00 35.98 21.98 C 36.01 28.66 36.00 35.33 35.99 42.00 C 34.66 42.00 33.33 42.00 32.01 42.00 C 32.01 37.91 31.99 33.82 32.00 29.73 C 30.13 30.80 28.14 31.66 26.05 32.21 C 26.02 30.92 26.00 29.63 26.00 28.35 C 29.02 27.56 30.65 24.88 31.35 22.03 Z" />
</g>
</svg>
