<?xml version="1.0" encoding="UTF-8" ?>
<!DOCTYPE svg PUBLIC "-//W3C//DTD SVG 1.1//EN" "http://www.w3.org/Graphics/SVG/1.1/DTD/svg11.dtd">
<svg width="64pt" height="64pt" viewBox="0 0 64 64" version="1.1" xmlns="http://www.w3.org/2000/svg">
<g id="#ffffffff">
<path fill="#ffffff" opacity="1.00" d=" M 0.00 0.00 L 64.00 0.00 L 64.00 64.00 L 0.00 64.00 L 0.00 0.00 M 26.56 8.64 C 18.94 10.41 12.38 16.11 9.61 23.43 C 7.03 30.00 7.62 37.71 11.16 43.82 C 15.13 50.89 22.88 55.68 31.00 55.96 C 38.83 56.35 46.67 52.54 51.27 46.21 C 55.95 40.00 57.27 31.44 54.63 24.12 C 50.93 12.85 38.10 5.66 26.56 8.64 Z" />
<path fill="#ffffff" opacity="1.00" d=" M 13.25 25.08 C 15.99 17.33 23.83 12.05 31.98 11.90 C 32.02 18.60 31.99 25.29 32.00 31.99 C 35.36 26.21 38.68 20.41 42.04 14.63 C 47.05 17.79 50.91 22.96 51.72 28.91 C 53.07 36.56 49.32 44.68 42.79 48.80 C 36.00 53.32 26.46 52.97 20.02 47.98 C 13.06 42.92 10.11 33.12 13.25 25.08 Z" />
</g>
<g id="#000000ff">
<path fill="#000000" opacity="1.00" d=" M 26.56 8.64 C 38.10 5.66 50.93 12.85 54.63 24.12 C 57.27 31.44 55.95 40.00 51.27 46.21 C 46.67 52.54 38.83 56.35 31.00 55.96 C 22.88 55.68 15.13 50.89 11.16 43.82 C 7.62 37.71 7.03 30.00 9.61 23.43 C 12.38 16.11 18.94 10.41 26.56 8.64 M 13.25 25.08 C 10.11 33.12 13.06 42.92 20.02 47.98 C 26.46 52.97 36.00 53.32 42.79 48.80 C 49.32 44.68 53.07 36.56 51.72 28.91 C 50.91 22.96 47.05 17.79 42.04 14.63 C 38.68 20.41 35.36 26.21 32.00 31.99 C 31.99 25.29 32.02 18.60 31.98 11.90 C 23.83 12.05 15.99 17.33 13.25 25.08 Z" />
</g>
</svg>
