<?xml version="1.0" encoding="UTF-8" ?>
<!DOCTYPE svg PUBLIC "-//W3C//DTD SVG 1.1//EN" "http://www.w3.org/Graphics/SVG/1.1/DTD/svg11.dtd">
<svg width="64pt" height="64pt" viewBox="0 0 64 64" version="1.1" xmlns="http://www.w3.org/2000/svg">
<g id="#ffffffff">
<path fill="#ffffff" opacity="1.00" d=" M 0.00 0.00 L 64.00 0.00 L 64.00 64.00 L 0.00 64.00 L 0.00 0.00 M 30.30 10.01 C 28.39 15.17 26.37 20.30 24.45 25.46 C 23.88 26.90 24.03 28.48 23.94 30.00 C 25.27 30.00 26.61 30.00 27.94 30.00 C 28.00 28.71 28.08 27.42 28.19 26.14 C 30.71 25.96 33.25 25.95 35.78 26.11 C 35.90 27.40 35.99 28.70 36.07 30.00 C 37.40 30.00 38.73 30.00 40.06 30.00 C 40.00 28.27 40.08 26.47 39.34 24.85 C 37.45 19.91 35.54 14.98 33.71 10.01 C 32.57 10.02 31.44 10.01 30.30 10.01 M 10.00 34.00 C 10.00 40.67 10.00 47.33 10.00 54.00 C 13.97 53.84 18.00 54.38 21.92 53.66 C 25.97 52.43 27.10 47.18 24.57 44.00 C 27.10 40.83 25.99 35.60 21.96 34.34 C 18.03 33.61 13.98 34.16 10.00 34.00 M 38.17 39.92 C 37.92 44.26 36.99 50.01 41.30 52.76 C 46.46 56.29 54.48 52.54 54.15 46.01 C 52.84 46.00 51.53 46.00 50.22 46.00 C 50.44 50.28 43.88 51.64 42.27 47.88 C 41.80 45.34 41.82 42.68 42.25 40.14 C 43.84 36.36 50.45 37.70 50.22 42.00 C 51.53 42.00 52.84 42.00 54.15 41.99 C 53.83 40.17 53.66 38.16 52.33 36.73 C 48.56 31.91 39.17 33.53 38.17 39.92 Z" />
<path fill="#ffffff" opacity="1.00" d=" M 30.03 22.00 C 30.68 20.29 31.35 18.59 32.00 16.89 C 32.65 18.59 33.31 20.29 33.96 22.00 C 32.65 22.00 31.34 21.99 30.03 22.00 Z" />
<path fill="#ffffff" opacity="1.00" d=" M 14.00 38.00 C 16.55 38.38 22.32 36.52 21.88 40.76 C 20.02 43.04 16.56 41.62 14.00 42.00 C 14.00 40.67 14.00 39.33 14.00 38.00 Z" />
<path fill="#ffffff" opacity="1.00" d=" M 14.00 46.00 C 16.52 46.47 21.12 44.59 21.97 47.96 C 21.22 51.43 16.52 49.53 14.00 50.00 C 14.00 48.67 14.00 47.33 14.00 46.00 Z" />
</g>
<g id="#000000ff">
<path fill="#000000" opacity="1.00" d=" M 30.30 10.01 C 31.44 10.01 32.57 10.02 33.71 10.01 C 35.54 14.98 37.45 19.91 39.34 24.85 C 40.08 26.47 40.00 28.27 40.06 30.00 C 38.73 30.00 37.40 30.00 36.07 30.00 C 35.99 28.70 35.90 27.40 35.78 26.11 C 33.25 25.95 30.71 25.96 28.19 26.14 C 28.08 27.42 28.00 28.71 27.94 30.00 C 26.61 30.00 25.27 30.00 23.94 30.00 C 24.03 28.48 23.88 26.90 24.45 25.46 C 26.37 20.30 28.39 15.17 30.30 10.01 M 30.03 22.00 C 31.34 21.99 32.65 22.00 33.96 22.00 C 33.31 20.29 32.65 18.59 32.00 16.89 C 31.35 18.59 30.68 20.29 30.03 22.00 Z" />
<path fill="#000000" opacity="1.00" d=" M 10.00 34.00 C 13.98 34.16 18.03 33.61 21.96 34.34 C 25.99 35.60 27.10 40.83 24.57 44.00 C 27.10 47.18 25.97 52.43 21.92 53.66 C 18.00 54.38 13.97 53.84 10.00 54.00 C 10.00 47.33 10.00 40.67 10.00 34.00 M 14.00 38.00 C 14.00 39.33 14.00 40.67 14.00 42.00 C 16.56 41.62 20.02 43.04 21.88 40.76 C 22.32 36.52 16.55 38.38 14.00 38.00 M 14.00 46.00 C 14.00 47.33 14.00 48.67 14.00 50.00 C 16.52 49.53 21.22 51.43 21.97 47.96 C 21.12 44.59 16.52 46.47 14.00 46.00 Z" />
<path fill="#000000" opacity="1.00" d=" M 38.17 39.92 C 39.17 33.53 48.56 31.91 52.33 36.73 C 53.66 38.16 53.83 40.17 54.15 41.99 C 52.84 42.00 51.53 42.00 50.22 42.00 C 50.45 37.70 43.84 36.36 42.25 40.14 C 41.82 42.68 41.80 45.34 42.27 47.88 C 43.88 51.64 50.44 50.28 50.22 46.00 C 51.53 46.00 52.84 46.00 54.15 46.01 C 54.48 52.54 46.46 56.29 41.30 52.76 C 36.99 50.01 37.92 44.26 38.17 39.92 Z" />
</g>
</svg>
