<?xml version="1.0" encoding="UTF-8" ?>
<!DOCTYPE svg PUBLIC "-//W3C//DTD SVG 1.1//EN" "http://www.w3.org/Graphics/SVG/1.1/DTD/svg11.dtd">
<svg width="64pt" height="64pt" viewBox="0 0 64 64" version="1.1" xmlns="http://www.w3.org/2000/svg">
<g id="#ffffffff">
<path fill="#ffffff" opacity="1.00" d=" M 0.00 0.00 L 64.00 0.00 L 64.00 40.29 C 59.32 38.22 54.69 36.05 49.99 34.01 C 45.34 36.15 40.67 38.22 36.00 40.32 C 36.01 45.73 35.97 51.14 36.02 56.55 C 40.56 58.98 45.02 61.55 49.54 64.00 L 0.00 64.00 L 0.00 0.00 M 8.00 8.00 C 8.00 24.00 8.00 40.00 8.00 56.00 C 16.00 56.00 24.00 56.00 32.00 56.00 C 32.00 54.67 32.00 53.33 32.00 52.00 C 25.33 51.99 18.67 52.00 12.00 52.00 C 12.00 42.67 12.00 33.33 12.00 24.00 C 25.34 24.00 38.67 24.00 52.00 24.00 C 51.97 26.21 51.98 28.42 52.09 30.63 C 53.40 31.16 54.71 31.72 56.00 32.30 C 56.00 24.20 56.00 16.10 56.00 8.00 C 40.00 8.00 24.00 8.00 8.00 8.00 M 16.00 28.00 C 16.00 29.33 16.00 30.67 16.00 32.00 C 26.67 32.00 37.33 32.00 48.00 32.00 C 48.00 30.67 48.00 29.33 48.00 28.00 C 37.33 28.00 26.67 28.00 16.00 28.00 M 16.00 36.00 C 16.00 37.33 16.00 38.67 16.00 40.00 C 21.33 40.00 26.67 40.00 32.00 40.00 C 32.00 38.67 32.00 37.33 32.00 36.00 C 26.67 36.00 21.33 36.00 16.00 36.00 M 16.00 44.00 C 16.00 45.33 16.00 46.67 16.00 48.00 C 21.33 48.00 26.67 48.00 32.00 48.00 C 32.00 46.67 32.00 45.33 32.00 44.00 C 26.67 44.00 21.33 44.00 16.00 44.00 Z" />
<path fill="#ffffff" opacity="1.00" d=" M 12.00 12.00 C 25.33 12.00 38.67 12.00 52.00 12.00 C 52.00 14.67 52.00 17.33 52.00 20.00 C 38.67 20.00 25.33 20.00 12.00 20.00 C 12.00 17.33 12.00 14.67 12.00 12.00 M 14.00 14.00 C 14.00 15.33 14.00 16.67 14.00 18.00 C 15.33 18.00 16.67 18.00 18.00 18.00 C 18.00 16.67 18.00 15.33 18.00 14.00 C 16.67 14.00 15.33 14.00 14.00 14.00 M 20.00 14.00 C 20.00 15.33 20.00 16.67 20.00 18.00 C 21.33 18.00 22.67 18.00 24.00 18.00 C 24.00 16.67 24.00 15.33 24.00 14.00 C 22.67 14.00 21.33 14.00 20.00 14.00 M 26.00 14.00 C 26.00 15.33 26.00 16.67 26.00 18.00 C 27.33 18.00 28.67 18.00 30.00 18.00 C 30.00 16.67 30.00 15.33 30.00 14.00 C 28.67 14.00 27.33 14.00 26.00 14.00 Z" />
<path fill="#ffffff" opacity="1.00" d=" M 42.67 41.68 C 45.11 40.59 47.57 39.54 49.99 38.40 C 52.45 39.47 54.89 40.59 57.33 41.71 C 54.89 42.95 52.44 44.15 49.99 45.36 C 47.56 44.13 45.13 42.87 42.67 41.68 Z" />
<path fill="#ffffff" opacity="1.00" d=" M 40.01 44.85 C 42.68 46.16 45.35 47.48 48.00 48.84 C 48.00 52.10 48.00 55.35 48.00 58.60 C 45.34 57.11 42.67 55.64 40.00 54.16 C 40.00 51.06 39.99 47.95 40.01 44.85 Z" />
<path fill="#ffffff" opacity="1.00" d=" M 52.00 48.83 C 54.69 47.55 57.34 46.20 59.98 44.83 C 60.01 47.94 60.00 51.04 60.00 54.15 C 57.37 55.69 54.67 57.11 52.01 58.60 C 51.99 55.34 52.00 52.09 52.00 48.83 Z" />
<path fill="#ffffff" opacity="1.00" d=" M 50.57 64.00 C 55.06 61.53 59.53 59.03 64.00 56.52 L 64.00 64.00 L 50.57 64.00 Z" />
</g>
<g id="#000000ff">
<path fill="#000000" opacity="1.00" d=" M 8.00 8.00 C 24.00 8.00 40.00 8.00 56.00 8.00 C 56.00 16.10 56.00 24.20 56.00 32.30 C 54.71 31.72 53.40 31.16 52.09 30.63 C 51.98 28.42 51.97 26.21 52.00 24.00 C 38.67 24.00 25.34 24.00 12.00 24.00 C 12.00 33.33 12.00 42.67 12.00 52.00 C 18.67 52.00 25.33 51.99 32.00 52.00 C 32.00 53.33 32.00 54.67 32.00 56.00 C 24.00 56.00 16.00 56.00 8.00 56.00 C 8.00 40.00 8.00 24.00 8.00 8.00 M 12.00 12.00 C 12.00 14.67 12.00 17.33 12.00 20.00 C 25.33 20.00 38.67 20.00 52.00 20.00 C 52.00 17.33 52.00 14.67 52.00 12.00 C 38.67 12.00 25.33 12.00 12.00 12.00 Z" />
<path fill="#000000" opacity="1.00" d=" M 14.00 14.00 C 15.33 14.00 16.67 14.00 18.00 14.00 C 18.00 15.33 18.00 16.67 18.00 18.00 C 16.67 18.00 15.33 18.00 14.00 18.00 C 14.00 16.67 14.00 15.33 14.00 14.00 Z" />
<path fill="#000000" opacity="1.00" d=" M 20.00 14.00 C 21.33 14.00 22.67 14.00 24.00 14.00 C 24.00 15.33 24.00 16.67 24.00 18.00 C 22.67 18.00 21.33 18.00 20.00 18.00 C 20.00 16.67 20.00 15.33 20.00 14.00 Z" />
<path fill="#000000" opacity="1.00" d=" M 26.00 14.00 C 27.33 14.00 28.67 14.00 30.00 14.00 C 30.00 15.33 30.00 16.67 30.00 18.00 C 28.67 18.00 27.33 18.00 26.00 18.00 C 26.00 16.67 26.00 15.33 26.00 14.00 Z" />
<path fill="#000000" opacity="1.00" d=" M 16.00 28.00 C 26.67 28.00 37.33 28.00 48.00 28.00 C 48.00 29.33 48.00 30.67 48.00 32.00 C 37.33 32.00 26.67 32.00 16.00 32.00 C 16.00 30.67 16.00 29.33 16.00 28.00 Z" />
<path fill="#000000" opacity="1.00" d=" M 36.00 40.32 C 40.67 38.22 45.34 36.15 49.99 34.01 C 54.69 36.05 59.32 38.22 64.00 40.29 L 64.00 56.52 C 59.53 59.03 55.06 61.53 50.57 64.00 L 49.54 64.00 C 45.02 61.55 40.56 58.98 36.02 56.55 C 35.97 51.14 36.01 45.73 36.00 40.32 M 42.67 41.68 C 45.13 42.87 47.56 44.13 49.99 45.36 C 52.44 44.15 54.89 42.95 57.33 41.71 C 54.89 40.59 52.45 39.47 49.99 38.40 C 47.57 39.54 45.11 40.59 42.67 41.68 M 40.01 44.85 C 39.99 47.95 40.00 51.06 40.00 54.16 C 42.67 55.64 45.34 57.11 48.00 58.60 C 48.00 55.35 48.00 52.10 48.00 48.84 C 45.35 47.48 42.68 46.16 40.01 44.85 M 52.00 48.83 C 52.00 52.09 51.99 55.34 52.01 58.60 C 54.67 57.11 57.37 55.69 60.00 54.15 C 60.00 51.04 60.01 47.94 59.98 44.83 C 57.34 46.20 54.69 47.55 52.00 48.83 Z" />
<path fill="#000000" opacity="1.00" d=" M 16.00 36.00 C 21.33 36.00 26.67 36.00 32.00 36.00 C 32.00 37.33 32.00 38.67 32.00 40.00 C 26.67 40.00 21.33 40.00 16.00 40.00 C 16.00 38.67 16.00 37.33 16.00 36.00 Z" />
<path fill="#000000" opacity="1.00" d=" M 16.00 44.00 C 21.33 44.00 26.67 44.00 32.00 44.00 C 32.00 45.33 32.00 46.67 32.00 48.00 C 26.67 48.00 21.33 48.00 16.00 48.00 C 16.00 46.67 16.00 45.33 16.00 44.00 Z" />
</g>
</svg>
