<?xml version="1.0" encoding="UTF-8" ?>
<!DOCTYPE svg PUBLIC "-//W3C//DTD SVG 1.1//EN" "http://www.w3.org/Graphics/SVG/1.1/DTD/svg11.dtd">
<svg width="64pt" height="64pt" viewBox="0 0 64 64" version="1.1" xmlns="http://www.w3.org/2000/svg">
<g id="#ffffffff">
<path fill="#ffffff" opacity="1.00" d=" M 0.00 0.00 L 64.00 0.00 L 64.00 64.00 L 0.00 64.00 L 0.00 0.00 M 47.62 18.57 C 46.69 19.54 45.76 20.51 44.83 21.47 C 47.70 24.29 50.53 27.15 53.38 29.99 C 44.92 30.01 36.46 29.99 28.00 30.00 C 28.00 31.33 28.00 32.67 28.00 34.00 C 36.46 34.01 44.92 33.99 53.38 34.01 C 50.53 36.86 47.69 39.71 44.82 42.54 C 45.77 43.50 46.71 44.46 47.65 45.43 C 52.08 40.93 56.61 36.53 61.01 32.00 C 56.59 27.47 52.09 23.04 47.62 18.57 M 4.00 30.00 C 4.00 31.33 4.00 32.67 4.00 34.00 C 5.33 34.00 6.67 34.00 8.00 34.00 C 8.00 32.67 8.00 31.33 8.00 30.00 C 6.67 30.00 5.33 30.00 4.00 30.00 M 12.00 30.00 C 12.00 31.33 12.00 32.67 12.00 34.00 C 13.33 34.00 14.67 34.00 16.00 34.00 C 16.00 32.67 16.00 31.33 16.00 30.00 C 14.67 30.00 13.33 30.00 12.00 30.00 M 20.00 30.00 C 20.00 31.33 20.00 32.67 20.00 34.00 C 21.33 34.00 22.67 34.00 24.00 34.00 C 24.00 32.67 24.00 31.33 24.00 30.00 C 22.67 30.00 21.33 30.00 20.00 30.00 Z" />
</g>
<g id="#000000ff">
<path fill="#000000" opacity="1.00" d=" M 47.62 18.57 C 52.09 23.04 56.59 27.47 61.01 32.00 C 56.61 36.53 52.08 40.93 47.65 45.43 C 46.71 44.46 45.77 43.50 44.82 42.54 C 47.69 39.71 50.53 36.86 53.38 34.01 C 44.92 33.99 36.46 34.01 28.00 34.00 C 28.00 32.67 28.00 31.33 28.00 30.00 C 36.46 29.99 44.92 30.01 53.38 29.99 C 50.53 27.15 47.70 24.29 44.83 21.47 C 45.76 20.51 46.69 19.54 47.62 18.57 Z" />
<path fill="#000000" opacity="1.00" d=" M 4.00 30.00 C 5.33 30.00 6.67 30.00 8.00 30.00 C 8.00 31.33 8.00 32.67 8.00 34.00 C 6.67 34.00 5.33 34.00 4.00 34.00 C 4.00 32.67 4.00 31.33 4.00 30.00 Z" />
<path fill="#000000" opacity="1.00" d=" M 12.00 30.00 C 13.33 30.00 14.67 30.00 16.00 30.00 C 16.00 31.33 16.00 32.67 16.00 34.00 C 14.67 34.00 13.33 34.00 12.00 34.00 C 12.00 32.67 12.00 31.33 12.00 30.00 Z" />
<path fill="#000000" opacity="1.00" d=" M 20.00 30.00 C 21.33 30.00 22.67 30.00 24.00 30.00 C 24.00 31.33 24.00 32.67 24.00 34.00 C 22.67 34.00 21.33 34.00 20.00 34.00 C 20.00 32.67 20.00 31.33 20.00 30.00 Z" />
</g>
</svg>
