<?xml version="1.0" encoding="UTF-8" ?>
<!DOCTYPE svg PUBLIC "-//W3C//DTD SVG 1.1//EN" "http://www.w3.org/Graphics/SVG/1.1/DTD/svg11.dtd">
<svg width="64pt" height="64pt" viewBox="0 0 64 64" version="1.1" xmlns="http://www.w3.org/2000/svg">
<g id="#ffffffff">
<path fill="#ffffff" opacity="1.00" d=" M 0.00 0.00 L 64.00 0.00 L 64.00 64.00 L 0.00 64.00 L 0.00 0.00 M 13.98 5.52 C 13.20 6.62 12.40 7.71 11.58 8.79 C 11.46 12.15 7.72 13.04 6.36 15.69 C 5.44 16.94 7.19 18.00 7.61 19.05 C 7.16 20.61 6.59 22.14 5.98 23.64 C 8.06 25.42 9.85 27.63 12.32 28.87 C 14.97 29.10 17.60 28.39 20.23 28.12 C 22.12 28.43 23.61 29.86 25.40 30.51 C 26.09 32.33 25.69 34.45 26.71 36.16 C 27.55 37.96 29.21 39.85 28.34 41.97 C 28.07 43.70 26.63 45.60 27.77 47.29 C 30.17 51.18 30.87 55.83 33.25 59.74 C 35.17 60.22 37.20 59.54 38.98 58.85 C 41.93 57.43 41.96 53.42 44.90 51.99 C 45.77 50.85 44.05 49.72 43.77 48.67 C 45.11 47.37 46.77 46.41 47.95 44.97 C 47.97 41.46 45.44 37.45 48.58 34.53 C 51.95 31.57 55.41 28.42 56.61 23.90 C 54.88 24.36 53.04 25.70 51.24 24.95 C 49.61 22.89 47.88 20.92 46.18 18.92 C 44.88 15.96 44.65 12.64 43.25 9.71 C 40.39 9.90 37.84 8.50 35.10 8.05 C 34.73 8.49 33.99 9.38 33.63 9.82 C 31.02 9.38 28.73 7.78 26.20 6.98 C 26.21 6.20 26.22 4.64 26.22 3.86 C 22.02 3.68 18.16 6.18 13.98 5.52 M 52.35 43.54 C 52.24 45.92 51.33 48.90 53.77 50.42 C 55.11 47.06 55.81 43.47 56.16 39.88 C 54.94 41.15 53.68 42.39 52.35 43.54 Z" />
<path fill="#ffffff" opacity="1.00" d=" M 15.56 10.26 C 17.46 9.71 19.36 9.13 21.23 8.48 C 24.39 10.68 28.00 12.07 31.50 13.62 C 33.33 14.53 35.26 13.57 36.95 12.82 C 38.14 13.11 39.33 13.39 40.52 13.68 C 41.31 16.85 41.71 20.44 44.18 22.84 C 45.93 24.69 47.42 26.77 49.07 28.71 C 44.21 31.67 41.43 37.66 43.68 43.17 C 39.07 46.00 40.13 52.08 36.95 55.98 C 33.37 53.61 34.08 48.76 31.47 45.67 C 33.42 41.71 32.51 37.26 29.99 33.80 C 30.35 29.99 28.25 25.96 24.37 24.97 C 20.79 23.20 16.88 24.63 13.14 24.89 C 12.42 24.16 11.71 23.43 11.00 22.70 C 11.44 20.61 11.52 18.48 11.01 16.40 C 13.29 14.98 14.99 12.92 15.56 10.26 Z" />
</g>
<g id="#000000ff">
<path fill="#000000" opacity="1.00" d=" M 13.98 5.52 C 18.16 6.18 22.02 3.68 26.22 3.86 C 26.22 4.64 26.21 6.20 26.20 6.98 C 28.73 7.78 31.02 9.38 33.63 9.82 C 33.99 9.38 34.73 8.49 35.10 8.05 C 37.84 8.50 40.39 9.90 43.25 9.71 C 44.65 12.64 44.88 15.96 46.18 18.92 C 47.88 20.92 49.61 22.89 51.24 24.95 C 53.04 25.70 54.88 24.36 56.61 23.90 C 55.41 28.42 51.95 31.57 48.58 34.53 C 45.44 37.45 47.97 41.46 47.95 44.97 C 46.77 46.41 45.11 47.37 43.77 48.67 C 44.05 49.72 45.77 50.85 44.90 51.99 C 41.96 53.42 41.93 57.43 38.98 58.85 C 37.20 59.54 35.17 60.22 33.25 59.74 C 30.87 55.83 30.17 51.18 27.77 47.29 C 26.63 45.60 28.07 43.70 28.34 41.97 C 29.21 39.85 27.55 37.96 26.71 36.16 C 25.69 34.45 26.09 32.33 25.40 30.51 C 23.61 29.86 22.12 28.43 20.23 28.12 C 17.60 28.39 14.97 29.10 12.32 28.87 C 9.85 27.63 8.06 25.42 5.98 23.64 C 6.59 22.14 7.16 20.61 7.61 19.05 C 7.19 18.00 5.44 16.94 6.36 15.69 C 7.72 13.04 11.46 12.15 11.58 8.79 C 12.40 7.71 13.20 6.62 13.98 5.52 M 15.56 10.26 C 14.99 12.92 13.29 14.98 11.01 16.40 C 11.52 18.48 11.44 20.61 11.00 22.70 C 11.71 23.43 12.42 24.16 13.14 24.89 C 16.88 24.63 20.79 23.20 24.37 24.97 C 28.25 25.96 30.35 29.99 29.99 33.80 C 32.51 37.26 33.42 41.71 31.47 45.67 C 34.08 48.76 33.37 53.61 36.95 55.98 C 40.13 52.08 39.07 46.00 43.68 43.17 C 41.43 37.66 44.21 31.67 49.07 28.71 C 47.42 26.77 45.93 24.69 44.18 22.84 C 41.71 20.44 41.31 16.85 40.52 13.68 C 39.33 13.39 38.14 13.11 36.95 12.82 C 35.26 13.57 33.33 14.53 31.50 13.62 C 28.00 12.07 24.39 10.68 21.23 8.48 C 19.36 9.13 17.46 9.71 15.56 10.26 Z" />
<path fill="#000000" opacity="1.00" d=" M 52.35 43.54 C 53.68 42.39 54.94 41.15 56.16 39.88 C 55.81 43.47 55.11 47.06 53.77 50.42 C 51.33 48.90 52.24 45.92 52.35 43.54 Z" />
</g>
</svg>
