<?xml version="1.0" encoding="UTF-8" ?>
<!DOCTYPE svg PUBLIC "-//W3C//DTD SVG 1.1//EN" "http://www.w3.org/Graphics/SVG/1.1/DTD/svg11.dtd">
<svg width="64pt" height="64pt" viewBox="0 0 64 64" version="1.1" xmlns="http://www.w3.org/2000/svg">
<g id="#ffffffff">
<path fill="#ffffff" opacity="1.00" d=" M 0.00 0.00 L 64.00 0.00 L 64.00 64.00 L 0.00 64.00 L 0.00 0.00 M 10.00 4.00 C 10.00 10.67 10.00 17.33 10.00 24.00 C 8.67 24.00 7.34 24.00 6.01 24.00 C 6.04 27.04 5.84 30.09 6.14 33.12 C 6.57 35.84 9.15 37.98 11.89 37.96 C 15.82 38.10 19.75 37.95 23.68 38.00 C 22.84 43.85 20.20 50.71 24.05 56.01 C 27.70 61.22 36.27 61.23 39.93 56.03 C 43.81 50.73 41.14 43.86 40.31 38.00 C 45.05 37.67 50.00 38.71 54.60 37.38 C 59.61 34.87 57.62 28.47 57.99 24.00 C 56.66 24.00 55.33 24.00 54.00 24.00 C 54.00 17.33 54.00 10.67 54.00 4.00 C 52.67 4.00 51.33 4.00 50.00 4.00 C 50.00 10.67 50.00 17.33 50.00 24.00 C 48.67 24.00 47.33 24.00 46.00 24.00 C 46.00 17.33 46.00 10.67 46.00 4.00 C 44.67 4.00 43.33 4.00 42.00 4.00 C 42.00 10.67 42.00 17.33 42.00 24.00 C 40.67 24.00 39.33 24.00 38.00 24.00 C 38.00 17.33 38.00 10.67 38.00 4.00 C 36.67 4.00 35.33 4.00 34.00 4.00 C 34.00 10.67 34.00 17.33 34.00 24.00 C 32.67 24.00 31.33 24.00 30.00 24.00 C 30.00 17.33 30.00 10.67 30.00 4.00 C 28.67 4.00 27.33 4.00 26.00 4.00 C 26.00 10.67 26.00 17.33 26.00 24.00 C 24.67 24.00 23.33 24.00 22.00 24.00 C 22.00 17.33 22.00 10.67 22.00 4.00 C 20.67 4.00 19.33 4.00 18.00 4.00 C 18.00 10.67 18.00 17.33 18.00 24.00 C 16.67 24.00 15.33 24.00 14.00 24.00 C 14.00 17.33 14.00 10.67 14.00 4.00 C 12.67 4.00 11.33 4.00 10.00 4.00 Z" />
<path fill="#ffffff" opacity="1.00" d=" M 9.96 28.00 C 24.65 28.00 39.34 28.00 54.04 28.00 C 53.70 29.90 54.79 32.58 52.86 33.84 C 48.56 34.30 44.23 33.75 39.92 34.08 C 37.95 34.13 36.22 36.04 36.36 38.00 C 36.67 42.84 38.94 47.82 37.40 52.60 C 35.44 57.33 27.75 56.91 26.34 51.97 C 25.39 47.28 27.28 42.61 27.64 37.94 C 27.72 35.99 26.02 34.12 24.06 34.08 C 19.75 33.76 15.42 34.30 11.12 33.84 C 9.21 32.57 10.30 29.90 9.96 28.00 M 31.15 48.10 C 28.84 49.17 30.47 52.99 32.82 51.82 C 35.20 50.79 33.53 47.11 31.15 48.10 Z" />
</g>
<g id="#000000ff">
<path fill="#000000" opacity="1.00" d=" M 10.00 4.00 C 11.33 4.00 12.67 4.00 14.00 4.00 C 14.00 10.67 14.00 17.33 14.00 24.00 C 15.33 24.00 16.67 24.00 18.00 24.00 C 18.00 17.33 18.00 10.67 18.00 4.00 C 19.33 4.00 20.67 4.00 22.00 4.00 C 22.00 10.67 22.00 17.33 22.00 24.00 C 23.33 24.00 24.67 24.00 26.00 24.00 C 26.00 17.33 26.00 10.67 26.00 4.00 C 27.33 4.00 28.67 4.00 30.00 4.00 C 30.00 10.67 30.00 17.33 30.00 24.00 C 31.33 24.00 32.67 24.00 34.00 24.00 C 34.00 17.33 34.00 10.67 34.00 4.00 C 35.33 4.00 36.67 4.00 38.00 4.00 C 38.00 10.67 38.00 17.33 38.00 24.00 C 39.33 24.00 40.67 24.00 42.00 24.00 C 42.00 17.33 42.00 10.67 42.00 4.00 C 43.33 4.00 44.67 4.00 46.00 4.00 C 46.00 10.67 46.00 17.33 46.00 24.00 C 47.33 24.00 48.67 24.00 50.00 24.00 C 50.00 17.33 50.00 10.67 50.00 4.00 C 51.33 4.00 52.67 4.00 54.00 4.00 C 54.00 10.67 54.00 17.33 54.00 24.00 C 55.33 24.00 56.66 24.00 57.99 24.00 C 57.62 28.47 59.61 34.87 54.60 37.38 C 50.00 38.71 45.05 37.67 40.31 38.00 C 41.14 43.86 43.81 50.73 39.93 56.03 C 36.27 61.23 27.70 61.22 24.05 56.01 C 20.20 50.71 22.84 43.85 23.68 38.00 C 19.75 37.95 15.82 38.10 11.89 37.96 C 9.15 37.98 6.57 35.84 6.14 33.12 C 5.84 30.09 6.04 27.04 6.01 24.00 C 7.34 24.00 8.67 24.00 10.00 24.00 C 10.00 17.33 10.00 10.67 10.00 4.00 M 9.96 28.00 C 10.30 29.90 9.21 32.57 11.12 33.84 C 15.42 34.30 19.75 33.76 24.06 34.08 C 26.02 34.12 27.72 35.99 27.64 37.94 C 27.28 42.61 25.39 47.28 26.34 51.97 C 27.75 56.91 35.44 57.33 37.40 52.60 C 38.94 47.82 36.67 42.84 36.36 38.00 C 36.22 36.04 37.95 34.13 39.92 34.08 C 44.23 33.75 48.56 34.30 52.86 33.84 C 54.79 32.58 53.70 29.90 54.04 28.00 C 39.34 28.00 24.65 28.00 9.96 28.00 Z" />
<path fill="#000000" opacity="1.00" d=" M 31.15 48.10 C 33.53 47.11 35.20 50.79 32.82 51.82 C 30.47 52.99 28.84 49.17 31.15 48.10 Z" />
</g>
</svg>
