<?xml version="1.0" encoding="UTF-8" ?>
<!DOCTYPE svg PUBLIC "-//W3C//DTD SVG 1.1//EN" "http://www.w3.org/Graphics/SVG/1.1/DTD/svg11.dtd">
<svg width="64pt" height="64pt" viewBox="0 0 64 64" version="1.1" xmlns="http://www.w3.org/2000/svg">
<g id="#ffffffff">
<path fill="#ffffff" opacity="1.00" d=" M 0.00 0.00 L 64.00 0.00 L 64.00 64.00 L 0.00 64.00 L 0.00 0.00 M 18.02 8.00 C 18.01 8.50 17.99 9.50 17.98 10.00 C 15.32 10.00 12.66 10.00 10.00 10.00 C 10.00 24.67 10.00 39.33 10.00 54.00 C 24.67 54.00 39.33 54.00 54.00 54.00 C 54.00 39.33 54.00 24.67 54.00 10.00 C 51.34 10.00 48.68 10.00 46.02 10.00 C 46.01 9.50 45.99 8.50 45.98 8.00 C 44.66 8.00 43.34 8.00 42.02 8.00 C 42.01 8.50 41.99 9.50 41.98 10.00 C 35.33 10.00 28.67 10.00 22.02 10.00 C 22.01 9.50 21.99 8.50 21.98 8.00 C 20.66 8.00 19.34 8.00 18.02 8.00 Z" />
<path fill="#ffffff" opacity="1.00" d=" M 14.00 14.00 C 15.33 14.00 16.66 14.00 17.98 14.00 C 17.99 14.50 18.01 15.50 18.02 16.00 C 19.34 16.00 20.66 16.00 21.98 16.00 C 21.99 15.50 22.01 14.50 22.02 14.00 C 28.67 14.00 35.33 14.00 41.98 14.00 C 41.99 14.50 42.01 15.50 42.02 16.00 C 43.34 16.00 44.66 16.00 45.98 16.00 C 45.99 15.50 46.01 14.50 46.02 14.00 C 47.34 14.00 48.67 14.00 50.00 14.00 C 50.00 15.33 50.00 16.67 50.00 18.00 C 38.00 18.00 26.00 18.00 14.00 18.00 C 14.00 16.67 14.00 15.33 14.00 14.00 Z" />
<path fill="#ffffff" opacity="1.00" d=" M 14.00 22.00 C 26.00 22.00 38.00 22.00 50.00 22.00 C 50.00 31.33 50.00 40.67 50.00 50.00 C 38.00 50.00 26.00 50.00 14.00 50.00 C 14.00 40.67 14.00 31.33 14.00 22.00 M 24.01 34.00 C 29.35 34.00 34.69 34.00 40.03 34.00 C 37.36 31.32 34.69 28.65 32.02 25.99 C 29.34 28.65 26.67 31.32 24.01 34.00 M 24.04 38.00 C 26.69 40.67 29.37 43.31 32.00 46.00 C 34.66 43.33 37.33 40.67 39.99 38.00 C 34.67 38.00 29.36 38.00 24.04 38.00 Z" />
</g>
<g id="#000000ff">
<path fill="#000000" opacity="1.00" d=" M 18.02 8.00 C 19.34 8.00 20.66 8.00 21.98 8.00 C 21.99 8.50 22.01 9.50 22.02 10.00 C 28.67 10.00 35.33 10.00 41.98 10.00 C 41.99 9.50 42.01 8.50 42.02 8.00 C 43.34 8.00 44.66 8.00 45.98 8.00 C 45.99 8.50 46.01 9.50 46.02 10.00 C 48.68 10.00 51.34 10.00 54.00 10.00 C 54.00 24.67 54.00 39.33 54.00 54.00 C 39.33 54.00 24.67 54.00 10.00 54.00 C 10.00 39.33 10.00 24.67 10.00 10.00 C 12.66 10.00 15.32 10.00 17.98 10.00 C 17.99 9.50 18.01 8.50 18.02 8.00 M 14.00 14.00 C 14.00 15.33 14.00 16.67 14.00 18.00 C 26.00 18.00 38.00 18.00 50.00 18.00 C 50.00 16.67 50.00 15.33 50.00 14.00 C 48.67 14.00 47.34 14.00 46.02 14.00 C 46.01 14.50 45.99 15.50 45.98 16.00 C 44.66 16.00 43.34 16.00 42.02 16.00 C 42.01 15.50 41.99 14.50 41.98 14.00 C 35.33 14.00 28.67 14.00 22.02 14.00 C 22.01 14.50 21.99 15.50 21.98 16.00 C 20.66 16.00 19.34 16.00 18.02 16.00 C 18.01 15.50 17.99 14.50 17.98 14.00 C 16.66 14.00 15.33 14.00 14.00 14.00 M 14.00 22.00 C 14.00 31.33 14.00 40.67 14.00 50.00 C 26.00 50.00 38.00 50.00 50.00 50.00 C 50.00 40.67 50.00 31.33 50.00 22.00 C 38.00 22.00 26.00 22.00 14.00 22.00 Z" />
<path fill="#000000" opacity="1.00" d=" M 24.01 34.00 C 26.67 31.32 29.34 28.65 32.02 25.99 C 34.69 28.65 37.36 31.32 40.03 34.00 C 34.69 34.00 29.35 34.00 24.01 34.00 Z" />
<path fill="#000000" opacity="1.00" d=" M 24.04 38.00 C 29.36 38.00 34.67 38.00 39.99 38.00 C 37.33 40.67 34.66 43.33 32.00 46.00 C 29.37 43.31 26.69 40.67 24.04 38.00 Z" />
</g>
</svg>
