<?xml version="1.0" encoding="UTF-8" ?>
<!DOCTYPE svg PUBLIC "-//W3C//DTD SVG 1.1//EN" "http://www.w3.org/Graphics/SVG/1.1/DTD/svg11.dtd">
<svg width="64pt" height="64pt" viewBox="0 0 64 64" version="1.1" xmlns="http://www.w3.org/2000/svg">
<g id="#ffffffff">
<path fill="#ffffff" opacity="1.00" d=" M 0.00 0.00 L 64.00 0.00 L 64.00 64.00 L 0.00 64.00 L 0.00 0.00 M 12.00 6.00 C 12.00 23.33 12.00 40.67 12.00 58.00 C 25.33 58.00 38.67 58.00 52.00 58.00 C 52.00 40.67 52.00 23.33 52.00 6.00 C 38.67 6.00 25.33 6.00 12.00 6.00 Z" />
<path fill="#ffffff" opacity="1.00" d=" M 16.00 10.00 C 26.67 10.00 37.33 10.00 48.00 10.00 C 48.00 24.67 48.00 39.33 48.00 54.00 C 37.33 54.00 26.67 54.00 16.00 54.00 C 16.00 39.33 16.00 24.67 16.00 10.00 M 26.25 24.06 C 24.87 29.38 22.38 34.45 21.86 39.97 C 23.11 39.99 24.36 40.00 25.60 40.01 C 25.50 37.09 30.50 37.09 30.40 40.01 C 31.65 40.00 32.89 39.99 34.14 39.97 C 33.62 34.45 31.12 29.38 29.75 24.05 C 28.58 24.04 27.42 24.05 26.25 24.06 M 36.01 24.00 C 35.99 29.33 35.99 34.67 36.01 40.00 C 37.34 40.00 38.66 40.00 39.98 40.00 C 40.01 34.67 40.01 29.33 39.99 24.00 C 38.66 23.99 37.34 23.99 36.01 24.00 Z" />
</g>
<g id="#000000ff">
<path fill="#000000" opacity="1.00" d=" M 12.00 6.00 C 25.33 6.00 38.67 6.00 52.00 6.00 C 52.00 23.33 52.00 40.67 52.00 58.00 C 38.67 58.00 25.33 58.00 12.00 58.00 C 12.00 40.67 12.00 23.33 12.00 6.00 M 16.00 10.00 C 16.00 24.67 16.00 39.33 16.00 54.00 C 26.67 54.00 37.33 54.00 48.00 54.00 C 48.00 39.33 48.00 24.67 48.00 10.00 C 37.33 10.00 26.67 10.00 16.00 10.00 Z" />
<path fill="#000000" opacity="1.00" d=" M 26.25 24.06 C 27.42 24.05 28.58 24.04 29.75 24.05 C 31.12 29.38 33.62 34.45 34.14 39.97 C 32.89 39.99 31.65 40.00 30.40 40.01 C 30.50 37.09 25.50 37.09 25.60 40.01 C 24.36 40.00 23.11 39.99 21.86 39.97 C 22.38 34.45 24.87 29.38 26.25 24.06 Z" />
<path fill="#000000" opacity="1.00" d=" M 36.01 24.00 C 37.34 23.99 38.66 23.99 39.99 24.00 C 40.01 29.33 40.01 34.67 39.98 40.00 C 38.66 40.00 37.34 40.00 36.01 40.00 C 35.99 34.67 35.99 29.33 36.01 24.00 Z" />
</g>
</svg>
