<?xml version="1.0" encoding="UTF-8" ?>
<!DOCTYPE svg PUBLIC "-//W3C//DTD SVG 1.1//EN" "http://www.w3.org/Graphics/SVG/1.1/DTD/svg11.dtd">
<svg width="64pt" height="64pt" viewBox="0 0 64 64" version="1.1" xmlns="http://www.w3.org/2000/svg">
<g id="#ffffffff">
<path fill="#ffffff" opacity="1.00" d=" M 0.00 0.00 L 64.00 0.00 L 64.00 64.00 L 0.00 64.00 L 0.00 0.00 M 26.43 6.61 C 17.79 8.44 10.37 15.01 7.49 23.36 C 4.31 32.10 6.36 42.47 12.66 49.33 C 18.87 56.40 29.11 59.58 38.24 57.22 C 48.13 54.88 56.13 46.22 57.65 36.15 C 59.07 27.81 56.03 18.91 49.85 13.14 C 43.76 7.26 34.69 4.75 26.43 6.61 Z" />
<path fill="#ffffff" opacity="1.00" d=" M 27.13 10.45 C 29.37 10.17 31.63 10.06 33.88 9.92 C 33.92 10.46 34.01 11.55 34.05 12.09 C 35.59 11.82 37.57 12.50 38.63 10.97 C 43.15 12.55 47.11 15.46 50.00 19.26 C 50.04 21.48 49.81 23.73 50.16 25.94 C 50.91 27.94 51.89 29.86 52.25 32.00 C 52.71 32.01 53.64 32.03 54.10 32.05 C 54.04 42.75 45.63 52.38 35.03 53.85 C 38.88 50.37 44.21 48.14 46.48 43.19 C 47.38 41.58 47.92 39.82 48.23 38.02 C 44.59 36.27 40.41 35.66 38.04 32.02 C 36.65 32.00 35.26 31.97 33.87 31.94 C 32.07 33.69 31.91 36.41 30.06 38.13 C 30.03 39.41 30.00 40.70 29.98 41.99 C 31.33 43.04 32.65 44.14 34.00 45.20 C 32.67 48.12 31.35 51.05 30.01 53.97 C 22.24 53.12 15.00 48.14 11.90 40.89 C 7.81 32.09 10.57 20.78 18.27 14.86 C 17.74 16.10 16.81 17.09 16.02 18.15 C 15.63 22.23 16.94 26.13 18.02 30.01 C 22.06 31.45 25.88 33.68 30.20 34.22 C 30.58 30.73 26.26 31.08 24.00 29.96 C 24.00 28.64 24.00 27.32 24.00 26.00 C 26.00 26.01 27.99 25.99 29.99 26.00 C 30.84 22.51 32.98 19.83 35.94 17.89 C 35.95 17.44 35.96 16.55 35.96 16.11 C 33.24 13.90 30.17 12.16 27.13 10.45 M 30.00 28.00 C 30.00 28.50 30.00 29.50 30.00 30.00 C 31.33 30.00 32.67 30.00 34.00 30.00 C 34.00 29.50 34.00 28.50 34.00 28.00 C 32.67 28.00 31.33 28.00 30.00 28.00 Z" />
</g>
<g id="#000000ff">
<path fill="#000000" opacity="1.00" d=" M 26.43 6.61 C 34.69 4.75 43.76 7.26 49.85 13.14 C 56.03 18.91 59.07 27.81 57.65 36.15 C 56.13 46.22 48.13 54.88 38.24 57.22 C 29.11 59.58 18.87 56.40 12.66 49.33 C 6.36 42.47 4.31 32.10 7.49 23.36 C 10.37 15.01 17.79 8.44 26.43 6.61 M 27.13 10.45 C 30.17 12.16 33.24 13.90 35.96 16.11 C 35.96 16.55 35.95 17.44 35.94 17.89 C 32.98 19.83 30.84 22.51 29.99 26.00 C 27.99 25.99 26.00 26.01 24.00 26.00 C 24.00 27.32 24.00 28.64 24.00 29.96 C 26.26 31.08 30.58 30.73 30.20 34.22 C 25.88 33.68 22.06 31.45 18.02 30.01 C 16.94 26.13 15.63 22.23 16.02 18.15 C 16.81 17.09 17.74 16.10 18.27 14.86 C 10.57 20.78 7.81 32.09 11.90 40.89 C 15.00 48.14 22.24 53.12 30.01 53.97 C 31.35 51.05 32.67 48.12 34.00 45.20 C 32.65 44.14 31.33 43.04 29.98 41.99 C 30.00 40.70 30.03 39.41 30.06 38.13 C 31.91 36.41 32.07 33.69 33.87 31.94 C 35.26 31.97 36.65 32.00 38.04 32.02 C 40.41 35.66 44.59 36.27 48.23 38.02 C 47.92 39.82 47.38 41.58 46.48 43.19 C 44.21 48.14 38.88 50.37 35.03 53.85 C 45.63 52.38 54.04 42.75 54.10 32.05 C 53.64 32.03 52.71 32.01 52.25 32.00 C 51.89 29.86 50.91 27.94 50.16 25.94 C 49.81 23.73 50.04 21.48 50.00 19.26 C 47.11 15.46 43.15 12.55 38.63 10.97 C 37.57 12.50 35.59 11.82 34.05 12.09 C 34.01 11.55 33.92 10.46 33.88 9.92 C 31.63 10.06 29.37 10.17 27.13 10.45 Z" />
<path fill="#000000" opacity="1.00" d=" M 30.00 28.00 C 31.33 28.00 32.67 28.00 34.00 28.00 C 34.00 28.50 34.00 29.50 34.00 30.00 C 32.67 30.00 31.33 30.00 30.00 30.00 C 30.00 29.50 30.00 28.50 30.00 28.00 Z" />
</g>
</svg>
