<?xml version="1.0" encoding="UTF-8" ?>
<!DOCTYPE svg PUBLIC "-//W3C//DTD SVG 1.1//EN" "http://www.w3.org/Graphics/SVG/1.1/DTD/svg11.dtd">
<svg width="64pt" height="64pt" viewBox="0 0 64 64" version="1.1" xmlns="http://www.w3.org/2000/svg">
<g id="#ffffffff">
<path fill="#ffffff" opacity="1.00" d=" M 0.00 0.00 L 64.00 0.00 L 64.00 64.00 L 0.00 64.00 L 0.00 0.00 M 7.98 10.90 C 8.31 19.88 7.39 28.95 8.50 37.88 C 11.63 48.92 22.32 55.34 31.94 60.22 C 38.04 57.69 43.98 54.44 48.70 49.76 C 52.95 45.63 56.01 40.00 55.97 33.96 C 56.08 26.27 55.94 18.59 56.02 10.90 C 41.88 1.64 22.14 1.72 7.98 10.90 Z" />
<path fill="#ffffff" opacity="1.00" d=" M 11.98 13.10 C 24.02 6.20 39.97 6.21 52.02 13.10 C 51.76 21.13 52.48 29.21 51.61 37.20 C 49.54 45.85 41.50 51.24 34.01 54.99 C 34.00 52.66 33.99 50.33 34.00 48.00 C 32.67 48.00 31.33 48.00 30.00 48.00 C 30.01 50.26 30.00 52.52 29.98 54.78 C 22.79 50.55 14.86 45.37 12.40 36.90 C 11.50 29.02 12.26 21.03 11.98 13.10 M 13.84 19.94 C 16.14 18.74 18.27 16.76 20.99 16.68 C 24.02 16.89 25.27 20.00 27.19 21.86 C 28.58 22.40 29.93 21.38 30.07 19.95 C 28.49 16.21 24.23 12.95 20.02 14.34 C 17.22 15.21 15.45 17.66 13.84 19.94 M 34.13 19.31 C 33.53 20.97 35.20 22.51 36.82 21.85 C 39.01 19.73 40.51 16.16 43.99 16.01 C 46.52 16.31 48.21 18.53 50.20 19.92 C 48.89 17.43 47.36 14.33 44.15 14.12 C 40.01 13.19 36.07 15.80 34.13 19.31 M 15.68 23.99 C 18.78 26.55 23.22 26.55 26.32 23.99 C 23.21 21.45 18.78 21.44 15.68 23.99 M 37.68 24.00 C 40.78 26.55 45.21 26.55 48.32 23.99 C 45.21 21.45 40.78 21.45 37.68 24.00 M 16.01 34.00 C 17.99 37.34 20.01 40.67 22.00 44.00 C 24.66 44.00 27.33 44.00 29.99 44.00 C 30.49 43.50 31.50 42.51 32.00 42.01 C 32.50 42.51 33.51 43.50 34.01 44.00 C 36.67 44.00 39.34 44.00 42.00 44.00 C 43.98 40.69 45.98 37.39 47.95 34.07 C 44.65 36.08 42.07 39.55 38.10 40.21 C 36.78 38.76 35.40 37.37 34.00 36.00 C 32.67 36.00 31.33 36.00 30.00 36.00 C 28.60 37.37 27.22 38.76 25.90 40.21 C 21.90 39.55 19.31 36.05 16.01 34.00 Z" />
</g>
<g id="#000000ff">
<path fill="#000000" opacity="1.00" d=" M 7.98 10.90 C 22.14 1.72 41.88 1.64 56.02 10.90 C 55.94 18.59 56.08 26.27 55.97 33.96 C 56.01 40.00 52.95 45.63 48.70 49.76 C 43.98 54.44 38.04 57.69 31.94 60.22 C 22.32 55.34 11.63 48.92 8.50 37.88 C 7.39 28.95 8.31 19.88 7.98 10.90 M 11.98 13.10 C 12.26 21.03 11.50 29.02 12.40 36.90 C 14.86 45.37 22.79 50.55 29.98 54.78 C 30.00 52.52 30.01 50.26 30.00 48.00 C 31.33 48.00 32.67 48.00 34.00 48.00 C 33.99 50.33 34.00 52.66 34.01 54.99 C 41.50 51.24 49.54 45.85 51.61 37.20 C 52.48 29.21 51.76 21.13 52.02 13.10 C 39.97 6.21 24.02 6.20 11.98 13.10 Z" />
<path fill="#000000" opacity="1.00" d=" M 13.84 19.94 C 15.45 17.66 17.22 15.21 20.02 14.34 C 24.23 12.95 28.49 16.21 30.07 19.95 C 29.93 21.38 28.58 22.40 27.19 21.86 C 25.27 20.00 24.02 16.89 20.99 16.68 C 18.27 16.76 16.14 18.74 13.84 19.94 Z" />
<path fill="#000000" opacity="1.00" d=" M 34.13 19.31 C 36.07 15.80 40.01 13.19 44.15 14.12 C 47.36 14.33 48.89 17.43 50.20 19.92 C 48.21 18.53 46.52 16.31 43.99 16.01 C 40.51 16.16 39.01 19.73 36.82 21.85 C 35.20 22.51 33.53 20.97 34.13 19.31 Z" />
<path fill="#000000" opacity="1.00" d=" M 15.68 23.99 C 18.78 21.44 23.21 21.45 26.32 23.99 C 23.22 26.55 18.78 26.55 15.68 23.99 Z" />
<path fill="#000000" opacity="1.00" d=" M 37.68 24.00 C 40.78 21.45 45.21 21.45 48.32 23.99 C 45.21 26.55 40.78 26.55 37.68 24.00 Z" />
<path fill="#000000" opacity="1.00" d=" M 16.01 34.00 C 19.31 36.05 21.90 39.55 25.90 40.21 C 27.22 38.76 28.60 37.37 30.00 36.00 C 31.33 36.00 32.67 36.00 34.00 36.00 C 35.40 37.37 36.78 38.76 38.10 40.21 C 42.07 39.55 44.65 36.08 47.95 34.07 C 45.98 37.39 43.98 40.69 42.00 44.00 C 39.34 44.00 36.67 44.00 34.01 44.00 C 33.51 43.50 32.50 42.51 32.00 42.01 C 31.50 42.51 30.49 43.50 29.99 44.00 C 27.33 44.00 24.66 44.00 22.00 44.00 C 20.01 40.67 17.99 37.34 16.01 34.00 Z" />
</g>
</svg>
