<?xml version="1.0" encoding="UTF-8" ?>
<!DOCTYPE svg PUBLIC "-//W3C//DTD SVG 1.1//EN" "http://www.w3.org/Graphics/SVG/1.1/DTD/svg11.dtd">
<svg width="64pt" height="64pt" viewBox="0 0 64 64" version="1.1" xmlns="http://www.w3.org/2000/svg">
<g id="#ffffffff">
<path fill="#ffffff" opacity="1.00" d=" M 0.00 0.00 L 64.00 0.00 L 64.00 64.00 L 0.00 64.00 L 0.00 0.00 M 35.85 7.61 C 31.56 5.66 27.64 8.36 24.92 11.50 C 22.84 12.00 20.61 12.45 19.03 14.01 C 14.81 18.07 10.77 22.31 6.57 26.40 C 8.34 28.16 10.11 29.92 11.88 31.68 C 8.98 34.59 6.08 37.48 3.18 40.39 C 9.94 47.24 16.79 54.00 23.59 60.82 C 26.56 57.91 29.46 54.93 32.40 52.00 C 34.13 53.74 35.86 55.48 37.59 57.23 C 41.37 53.46 45.14 49.68 48.92 45.90 C 50.35 44.54 51.47 42.87 51.98 40.95 C 52.53 37.72 56.22 36.31 56.81 33.11 C 57.26 31.43 56.58 29.76 56.32 28.11 C 58.71 24.94 60.98 21.03 59.82 16.92 C 58.33 11.12 53.41 6.49 47.90 4.44 C 43.61 2.82 39.18 4.93 35.85 7.61 Z" />
<path fill="#ffffff" opacity="1.00" d=" M 42.24 8.27 C 45.91 6.97 49.58 9.32 52.14 11.78 C 54.90 14.32 57.20 18.39 55.47 22.14 C 53.57 26.12 49.14 30.15 44.41 28.50 C 40.42 26.88 36.92 23.60 35.36 19.54 C 33.90 14.68 38.05 10.06 42.24 8.27 M 38.62 14.99 C 42.14 18.54 45.66 22.08 49.19 25.62 C 50.60 24.19 52.01 22.76 53.42 21.33 C 51.17 16.73 47.65 12.85 42.93 10.75 C 41.48 12.16 40.05 13.57 38.62 14.99 Z" />
<path fill="#ffffff" opacity="1.00" d=" M 29.45 12.28 C 30.67 11.66 31.91 11.07 33.16 10.51 C 32.61 11.71 32.05 12.91 31.50 14.11 C 30.81 13.50 30.13 12.89 29.45 12.28 Z" />
<path fill="#ffffff" opacity="1.00" d=" M 17.63 21.00 C 19.39 19.29 20.98 17.32 23.09 16.01 C 25.28 14.85 27.92 15.79 29.53 17.48 C 31.67 19.28 31.82 22.31 33.39 24.49 C 35.85 28.06 39.36 30.97 43.49 32.36 C 46.78 33.40 49.77 37.35 47.94 40.78 C 46.61 42.92 44.60 44.52 42.87 46.31 C 42.08 45.54 41.29 44.77 40.50 44.00 C 41.03 43.45 42.09 42.36 42.62 41.81 C 41.68 40.87 40.75 39.93 39.81 39.00 C 36.03 42.90 32.00 46.57 28.36 50.60 C 27.06 47.92 24.98 45.77 22.34 44.40 C 23.23 43.54 24.12 42.69 25.01 41.83 C 24.06 40.88 23.12 39.93 22.17 38.98 C 21.53 39.66 20.25 41.01 19.61 41.68 C 18.22 39.04 16.10 36.93 13.40 35.65 C 17.38 31.94 21.13 28.00 25.00 24.19 C 24.07 23.25 23.15 22.32 22.22 21.38 C 21.66 21.92 20.55 23.01 20.00 23.55 C 19.21 22.70 18.42 21.85 17.63 21.00 M 25.37 31.57 C 27.73 33.92 30.08 36.27 32.44 38.62 C 33.60 37.44 34.77 36.25 35.94 35.06 C 33.58 32.71 31.23 30.35 28.87 28.00 C 27.71 29.19 26.54 30.38 25.37 31.57 Z" />
<path fill="#ffffff" opacity="1.00" d=" M 14.74 23.87 C 15.56 24.71 16.37 25.55 17.19 26.39 C 16.35 27.22 15.52 28.04 14.69 28.87 C 13.88 28.04 13.06 27.21 12.25 26.38 C 12.87 25.75 14.12 24.50 14.74 23.87 Z" />
<path fill="#ffffff" opacity="1.00" d=" M 50.28 32.26 C 51.00 31.21 51.92 30.88 53.07 31.25 C 53.89 32.41 52.49 34.31 51.16 34.13 C 50.94 33.66 50.50 32.73 50.28 32.26 Z" />
<path fill="#ffffff" opacity="1.00" d=" M 8.52 39.89 C 12.13 38.08 15.65 41.47 16.32 44.91 C 15.94 45.27 15.18 46.00 14.80 46.36 C 12.67 44.24 10.51 42.15 8.52 39.89 Z" />
<path fill="#ffffff" opacity="1.00" d=" M 37.62 46.80 C 38.43 47.59 39.24 48.38 40.06 49.17 C 39.44 49.78 38.22 51.00 37.60 51.61 C 36.82 50.83 36.04 50.04 35.26 49.25 C 35.85 48.64 37.03 47.41 37.62 46.80 Z" />
<path fill="#ffffff" opacity="1.00" d=" M 17.41 48.92 C 20.93 46.32 24.47 50.54 24.98 53.89 C 24.65 54.22 23.99 54.87 23.66 55.20 C 21.57 53.12 19.46 51.05 17.41 48.92 Z" />
</g>
<g id="#000000ff">
<path fill="#000000" opacity="1.00" d=" M 35.85 7.61 C 39.18 4.93 43.61 2.82 47.90 4.44 C 53.41 6.49 58.33 11.12 59.82 16.92 C 60.98 21.03 58.71 24.94 56.32 28.11 C 56.58 29.76 57.26 31.43 56.81 33.11 C 56.22 36.31 52.53 37.72 51.98 40.95 C 51.47 42.87 50.35 44.54 48.92 45.90 C 45.14 49.68 41.37 53.46 37.59 57.23 C 35.86 55.48 34.13 53.74 32.40 52.00 C 29.46 54.93 26.56 57.91 23.59 60.82 C 16.79 54.00 9.94 47.24 3.18 40.39 C 6.08 37.48 8.98 34.59 11.88 31.68 C 10.11 29.92 8.34 28.16 6.57 26.40 C 10.77 22.31 14.81 18.07 19.03 14.01 C 20.61 12.45 22.84 12.00 24.92 11.50 C 27.64 8.36 31.56 5.66 35.85 7.61 M 42.24 8.27 C 38.05 10.06 33.90 14.68 35.36 19.54 C 36.92 23.60 40.42 26.88 44.41 28.50 C 49.14 30.15 53.57 26.12 55.47 22.14 C 57.20 18.39 54.90 14.32 52.14 11.78 C 49.58 9.32 45.91 6.97 42.24 8.27 M 29.45 12.28 C 30.13 12.89 30.81 13.50 31.50 14.11 C 32.05 12.91 32.61 11.71 33.16 10.51 C 31.91 11.07 30.67 11.66 29.45 12.28 M 17.63 21.00 C 18.42 21.85 19.21 22.70 20.00 23.55 C 20.55 23.01 21.66 21.92 22.22 21.38 C 23.15 22.32 24.07 23.25 25.00 24.19 C 21.13 28.00 17.38 31.94 13.40 35.65 C 16.10 36.93 18.22 39.04 19.61 41.68 C 20.25 41.01 21.53 39.66 22.17 38.98 C 23.12 39.93 24.06 40.88 25.01 41.83 C 24.12 42.69 23.23 43.54 22.34 44.40 C 24.98 45.77 27.06 47.92 28.36 50.60 C 32.00 46.57 36.03 42.90 39.81 39.00 C 40.75 39.93 41.68 40.87 42.62 41.81 C 42.09 42.36 41.03 43.45 40.50 44.00 C 41.29 44.77 42.08 45.54 42.87 46.31 C 44.60 44.52 46.61 42.92 47.94 40.78 C 49.77 37.35 46.78 33.40 43.49 32.36 C 39.36 30.97 35.85 28.06 33.39 24.49 C 31.82 22.31 31.67 19.28 29.53 17.48 C 27.92 15.79 25.28 14.85 23.09 16.01 C 20.98 17.32 19.39 19.29 17.63 21.00 M 14.74 23.87 C 14.12 24.50 12.87 25.75 12.25 26.38 C 13.06 27.21 13.88 28.04 14.69 28.87 C 15.52 28.04 16.35 27.22 17.19 26.39 C 16.37 25.55 15.56 24.71 14.74 23.87 M 50.28 32.26 C 50.50 32.73 50.94 33.66 51.16 34.13 C 52.49 34.31 53.89 32.41 53.07 31.25 C 51.92 30.88 51.00 31.21 50.28 32.26 M 8.52 39.89 C 10.51 42.15 12.67 44.24 14.80 46.36 C 15.18 46.00 15.94 45.27 16.32 44.91 C 15.65 41.47 12.13 38.08 8.52 39.89 M 37.62 46.80 C 37.03 47.41 35.85 48.64 35.26 49.25 C 36.04 50.04 36.82 50.83 37.60 51.61 C 38.22 51.00 39.44 49.78 40.06 49.17 C 39.24 48.38 38.43 47.59 37.62 46.80 M 17.41 48.92 C 19.46 51.05 21.57 53.12 23.66 55.20 C 23.99 54.87 24.65 54.22 24.98 53.89 C 24.47 50.54 20.93 46.32 17.41 48.92 Z" />
<path fill="#000000" opacity="1.00" d=" M 38.62 14.99 C 40.05 13.57 41.48 12.16 42.93 10.75 C 47.65 12.85 51.17 16.73 53.42 21.33 C 52.01 22.76 50.60 24.19 49.19 25.62 C 45.66 22.08 42.14 18.54 38.62 14.99 Z" />
<path fill="#000000" opacity="1.00" d=" M 25.37 31.57 C 26.54 30.38 27.71 29.19 28.87 28.00 C 31.23 30.35 33.58 32.71 35.94 35.06 C 34.77 36.25 33.60 37.44 32.44 38.62 C 30.08 36.27 27.73 33.92 25.37 31.57 Z" />
</g>
</svg>
