<?xml version="1.0" encoding="UTF-8" ?>
<!DOCTYPE svg PUBLIC "-//W3C//DTD SVG 1.1//EN" "http://www.w3.org/Graphics/SVG/1.1/DTD/svg11.dtd">
<svg width="64pt" height="64pt" viewBox="0 0 64 64" version="1.1" xmlns="http://www.w3.org/2000/svg">
<g id="#ffffffff">
<path fill="#ffffff" opacity="1.00" d=" M 0.00 0.00 L 64.00 0.00 L 64.00 64.00 L 0.00 64.00 L 0.00 0.00 M 32.56 4.60 C 27.00 10.19 21.42 15.75 15.85 21.34 C 16.73 22.25 17.60 23.16 18.48 24.07 C 18.88 23.79 19.69 23.21 20.09 22.93 C 23.13 25.94 26.15 28.96 29.16 32.00 C 22.32 38.88 15.45 45.72 8.60 52.58 C 9.55 53.52 10.49 54.46 11.44 55.40 C 18.29 48.54 25.16 41.70 32.00 34.83 C 35.05 37.84 38.06 40.88 41.09 43.91 C 40.80 44.31 40.21 45.11 39.92 45.51 C 40.85 46.39 41.77 47.27 42.70 48.15 C 48.27 42.56 53.86 37.00 59.42 31.40 C 58.49 30.47 57.55 29.54 56.62 28.61 C 56.27 28.94 55.57 29.59 55.22 29.91 C 48.19 22.86 41.14 15.82 34.10 8.77 C 34.42 8.41 35.07 7.68 35.40 7.32 C 34.45 6.41 33.50 5.51 32.56 4.60 Z" />
<path fill="#ffffff" opacity="1.00" d=" M 22.86 20.00 C 25.64 17.18 28.45 14.39 31.25 11.59 C 32.31 12.65 33.36 13.71 34.42 14.76 C 31.61 17.57 28.81 20.38 25.99 23.17 C 24.95 22.11 23.90 21.06 22.86 20.00 Z" />
<path fill="#ffffff" opacity="1.00" d=" M 28.85 26.01 C 31.61 23.17 34.45 20.40 37.25 17.60 C 40.31 20.65 43.37 23.70 46.41 26.77 C 43.61 29.56 40.82 32.38 38.00 35.16 C 34.95 32.11 31.90 29.06 28.85 26.01 Z" />
<path fill="#ffffff" opacity="1.00" d=" M 40.86 38.00 C 43.64 35.18 46.44 32.38 49.25 29.59 C 50.30 30.65 51.36 31.70 52.41 32.75 C 49.62 35.56 46.82 38.37 44.01 41.16 C 42.96 40.11 41.91 39.05 40.86 38.00 Z" />
</g>
<g id="#000000ff">
<path fill="#000000" opacity="1.00" d=" M 32.56 4.60 C 33.50 5.51 34.45 6.41 35.40 7.32 C 35.07 7.68 34.42 8.41 34.10 8.77 C 41.14 15.82 48.19 22.86 55.22 29.91 C 55.57 29.59 56.27 28.94 56.62 28.61 C 57.55 29.54 58.49 30.47 59.42 31.40 C 53.86 37.00 48.27 42.56 42.70 48.15 C 41.77 47.27 40.85 46.39 39.92 45.51 C 40.21 45.11 40.80 44.31 41.09 43.91 C 38.06 40.88 35.05 37.84 32.00 34.83 C 25.16 41.70 18.29 48.54 11.44 55.40 C 10.49 54.46 9.55 53.52 8.60 52.58 C 15.45 45.72 22.32 38.88 29.16 32.00 C 26.15 28.96 23.13 25.94 20.09 22.93 C 19.69 23.21 18.88 23.79 18.48 24.07 C 17.60 23.16 16.73 22.25 15.85 21.34 C 21.42 15.75 27.00 10.19 32.56 4.60 M 22.86 20.00 C 23.90 21.06 24.95 22.11 25.99 23.17 C 28.81 20.38 31.61 17.57 34.42 14.76 C 33.36 13.71 32.31 12.65 31.25 11.59 C 28.45 14.39 25.64 17.18 22.86 20.00 M 28.85 26.01 C 31.90 29.06 34.95 32.11 38.00 35.16 C 40.82 32.38 43.61 29.56 46.41 26.77 C 43.37 23.70 40.31 20.65 37.25 17.60 C 34.45 20.40 31.61 23.17 28.85 26.01 M 40.86 38.00 C 41.91 39.05 42.96 40.11 44.01 41.16 C 46.82 38.37 49.62 35.56 52.41 32.75 C 51.36 31.70 50.30 30.65 49.25 29.59 C 46.44 32.38 43.64 35.18 40.86 38.00 Z" />
</g>
</svg>
