<?xml version="1.0" encoding="UTF-8" ?>
<!DOCTYPE svg PUBLIC "-//W3C//DTD SVG 1.1//EN" "http://www.w3.org/Graphics/SVG/1.1/DTD/svg11.dtd">
<svg width="64pt" height="64pt" viewBox="0 0 64 64" version="1.1" xmlns="http://www.w3.org/2000/svg">
<g id="#ffffffff">
<path fill="#ffffff" opacity="1.00" d=" M 0.00 0.00 L 64.00 0.00 L 64.00 64.00 L 0.00 64.00 L 0.00 0.00 M 37.38 8.72 C 39.91 11.70 35.52 15.94 32.61 13.32 C 32.11 14.50 31.61 15.69 31.10 16.88 C 32.07 17.30 33.04 17.72 34.02 18.14 C 34.03 19.39 34.03 20.65 34.01 21.90 C 33.09 22.28 32.18 22.66 31.26 23.04 C 31.77 24.28 32.27 25.52 32.78 26.75 C 33.46 26.47 34.81 25.89 35.48 25.60 C 36.38 26.51 37.28 27.42 38.19 28.32 C 37.87 29.05 37.25 30.50 36.93 31.23 C 37.85 31.62 39.69 32.39 40.61 32.78 C 41.03 31.83 41.44 30.88 41.84 29.92 C 43.19 29.92 44.53 29.92 45.88 29.94 C 46.26 30.88 46.66 31.81 47.05 32.75 C 48.25 32.26 49.44 31.77 50.64 31.28 C 48.89 29.00 50.37 27.25 52.13 25.73 C 53.07 26.14 54.02 26.55 54.96 26.95 C 55.48 25.73 56.00 24.50 56.52 23.27 C 55.84 22.98 54.47 22.39 53.78 22.09 C 53.79 20.78 53.81 19.47 53.83 18.16 C 54.81 17.77 55.78 17.36 56.75 16.96 C 56.24 15.72 55.74 14.49 55.24 13.25 C 54.52 13.56 53.08 14.17 52.36 14.47 C 51.41 13.51 50.46 12.56 49.50 11.61 C 49.80 10.94 50.39 9.60 50.69 8.93 C 49.46 8.40 48.23 7.88 47.00 7.37 C 46.70 8.06 46.11 9.45 45.81 10.14 C 44.59 10.12 43.38 10.11 42.16 10.11 C 41.76 9.16 41.36 8.21 40.96 7.25 C 39.77 7.74 38.57 8.23 37.38 8.72 M 22.01 24.00 C 22.00 25.33 21.99 26.66 21.98 27.99 C 20.32 28.71 18.67 29.43 17.01 30.14 C 16.04 29.19 15.07 28.24 14.10 27.28 C 13.15 28.22 12.21 29.15 11.28 30.10 C 12.24 31.06 13.20 32.04 14.15 33.01 C 13.44 34.67 12.71 36.32 11.99 37.98 C 10.66 37.99 9.33 38.00 8.00 38.01 C 8.00 39.34 8.00 40.66 8.00 41.99 C 9.33 42.00 10.67 42.01 12.00 42.02 C 12.72 43.68 13.44 45.33 14.16 46.99 C 13.20 47.96 12.25 48.93 11.29 49.90 C 12.22 50.84 13.15 51.78 14.09 52.72 C 15.07 51.76 16.06 50.80 17.04 49.84 C 18.69 50.56 20.33 51.29 21.98 52.01 C 21.99 53.34 22.00 54.67 22.01 56.00 C 23.34 56.00 24.66 56.00 25.99 56.00 C 26.00 54.67 26.01 53.33 26.02 52.00 C 27.69 51.29 29.35 50.58 31.01 49.86 C 31.97 50.81 32.94 51.76 33.90 52.72 C 34.85 51.78 35.79 50.85 36.74 49.91 C 35.77 48.94 34.81 47.96 33.85 46.99 C 34.56 45.33 35.28 43.67 36.00 42.02 C 37.33 42.01 38.67 42.00 40.00 41.99 C 40.00 40.66 40.00 39.34 40.00 38.01 C 38.66 38.00 37.33 37.99 36.00 37.98 C 35.28 36.32 34.56 34.67 33.85 33.01 C 34.80 32.04 35.76 31.06 36.72 30.10 C 35.78 29.15 34.85 28.22 33.90 27.28 C 32.93 28.24 31.96 29.19 30.99 30.14 C 29.33 29.43 27.68 28.71 26.02 27.99 C 26.01 26.66 26.00 25.33 25.99 24.00 C 24.66 24.00 23.34 24.00 22.01 24.00 Z" />
<path fill="#ffffff" opacity="1.00" d=" M 41.44 14.56 C 45.56 12.48 50.80 16.49 49.81 21.02 C 49.32 25.37 43.53 27.58 40.21 24.76 C 36.69 22.25 37.41 16.16 41.44 14.56 Z" />
<path fill="#ffffff" opacity="1.00" d=" M 21.35 32.46 C 26.68 30.32 32.93 35.38 31.91 41.04 C 31.43 47.09 23.33 50.21 18.87 46.13 C 14.15 42.54 15.63 34.15 21.35 32.46 Z" />
</g>
<g id="#000000ff">
<path fill="#000000" opacity="1.00" d=" M 37.38 8.72 C 38.57 8.23 39.77 7.74 40.96 7.25 C 41.36 8.21 41.76 9.16 42.16 10.11 C 43.38 10.11 44.59 10.12 45.81 10.14 C 46.11 9.45 46.70 8.06 47.00 7.37 C 48.23 7.88 49.46 8.40 50.69 8.93 C 50.39 9.60 49.80 10.94 49.50 11.61 C 50.46 12.56 51.41 13.51 52.36 14.47 C 53.08 14.17 54.52 13.56 55.24 13.25 C 55.74 14.49 56.24 15.72 56.75 16.96 C 55.78 17.36 54.81 17.77 53.83 18.16 C 53.81 19.47 53.79 20.78 53.78 22.09 C 54.47 22.39 55.84 22.98 56.52 23.27 C 56.00 24.50 55.48 25.73 54.96 26.95 C 54.02 26.55 53.07 26.14 52.13 25.73 C 50.37 27.25 48.89 29.00 50.64 31.28 C 49.44 31.77 48.25 32.26 47.05 32.75 C 46.66 31.81 46.26 30.88 45.88 29.94 C 44.53 29.92 43.19 29.92 41.84 29.92 C 41.44 30.88 41.03 31.83 40.61 32.78 C 39.69 32.39 37.85 31.62 36.93 31.23 C 37.25 30.50 37.87 29.05 38.19 28.32 C 37.28 27.42 36.38 26.51 35.48 25.60 C 34.81 25.89 33.46 26.47 32.78 26.75 C 32.27 25.52 31.77 24.28 31.26 23.04 C 32.18 22.66 33.09 22.28 34.01 21.90 C 34.03 20.65 34.03 19.39 34.02 18.14 C 33.04 17.72 32.07 17.30 31.10 16.88 C 31.61 15.69 32.11 14.50 32.61 13.32 C 35.52 15.94 39.91 11.70 37.38 8.72 M 41.44 14.56 C 37.41 16.16 36.69 22.25 40.21 24.76 C 43.53 27.58 49.32 25.37 49.81 21.02 C 50.80 16.49 45.56 12.48 41.44 14.56 Z" />
<path fill="#000000" opacity="1.00" d=" M 22.01 24.00 C 23.34 24.00 24.66 24.00 25.99 24.00 C 26.00 25.33 26.01 26.66 26.02 27.99 C 27.68 28.71 29.33 29.43 30.99 30.14 C 31.96 29.19 32.93 28.24 33.90 27.28 C 34.85 28.22 35.78 29.15 36.72 30.10 C 35.76 31.06 34.80 32.04 33.85 33.01 C 34.56 34.67 35.28 36.32 36.00 37.98 C 37.33 37.99 38.66 38.00 40.00 38.01 C 40.00 39.34 40.00 40.66 40.00 41.99 C 38.67 42.00 37.33 42.01 36.00 42.02 C 35.28 43.67 34.56 45.33 33.85 46.99 C 34.81 47.96 35.77 48.94 36.74 49.91 C 35.79 50.85 34.85 51.78 33.90 52.72 C 32.94 51.76 31.97 50.81 31.01 49.86 C 29.35 50.58 27.69 51.29 26.02 52.00 C 26.01 53.33 26.00 54.67 25.99 56.00 C 24.66 56.00 23.34 56.00 22.01 56.00 C 22.00 54.67 21.99 53.34 21.98 52.01 C 20.33 51.29 18.69 50.56 17.04 49.84 C 16.06 50.80 15.07 51.76 14.09 52.72 C 13.15 51.78 12.22 50.84 11.29 49.90 C 12.25 48.93 13.20 47.96 14.16 46.99 C 13.44 45.33 12.72 43.68 12.00 42.02 C 10.67 42.01 9.33 42.00 8.00 41.99 C 8.00 40.66 8.00 39.34 8.00 38.01 C 9.33 38.00 10.66 37.99 11.99 37.98 C 12.71 36.32 13.44 34.67 14.15 33.01 C 13.20 32.04 12.24 31.06 11.28 30.10 C 12.21 29.15 13.15 28.22 14.10 27.28 C 15.07 28.24 16.04 29.19 17.01 30.14 C 18.67 29.43 20.32 28.71 21.98 27.99 C 21.99 26.66 22.00 25.33 22.01 24.00 M 21.35 32.46 C 15.63 34.15 14.15 42.54 18.87 46.13 C 23.33 50.21 31.43 47.09 31.91 41.04 C 32.93 35.38 26.68 30.32 21.35 32.46 Z" />
</g>
</svg>
