<?xml version="1.0" encoding="UTF-8" ?>
<!DOCTYPE svg PUBLIC "-//W3C//DTD SVG 1.1//EN" "http://www.w3.org/Graphics/SVG/1.1/DTD/svg11.dtd">
<svg width="64pt" height="64pt" viewBox="0 0 64 64" version="1.1" xmlns="http://www.w3.org/2000/svg">
<g id="#ffffffff">
<path fill="#ffffff" opacity="1.00" d=" M 0.00 0.00 L 64.00 0.00 L 64.00 64.00 L 0.00 64.00 L 0.00 0.00 M 25.96 11.94 C 24.04 12.77 21.99 13.25 20.00 13.87 C 20.93 17.67 21.85 21.48 22.82 25.28 C 21.22 24.18 19.60 23.09 17.99 22.00 C 14.96 26.00 10.49 28.09 5.94 29.87 C 6.85 32.35 8.01 34.74 8.77 37.27 C 8.71 39.55 8.26 41.80 7.99 44.06 C 12.66 44.66 17.34 45.21 22.00 45.83 C 22.00 47.22 22.00 48.61 22.00 50.00 C 24.67 50.00 27.33 50.00 30.00 50.00 C 30.00 52.67 30.00 55.33 30.00 58.00 C 31.33 58.00 32.67 58.00 34.00 58.00 C 34.00 55.33 34.00 52.67 34.00 50.00 C 36.67 50.00 39.33 50.00 42.00 50.00 C 42.00 48.60 42.00 47.21 42.00 45.82 C 46.67 45.22 51.34 44.65 56.01 44.06 C 55.74 41.80 55.29 39.56 55.23 37.29 C 55.99 34.75 57.14 32.35 58.07 29.88 C 53.53 28.03 49.04 26.02 46.00 21.99 C 44.40 23.11 42.80 24.22 41.19 25.31 C 42.12 21.50 43.08 17.69 44.00 13.87 C 41.97 13.22 39.90 12.70 37.94 11.86 C 35.76 10.15 34.02 7.95 32.00 6.06 C 29.96 7.98 28.22 10.25 25.96 11.94 Z" />
<path fill="#ffffff" opacity="1.00" d=" M 24.75 16.60 C 27.85 16.16 30.03 13.97 32.01 11.76 C 33.99 13.97 36.16 16.17 39.25 16.60 C 37.76 22.62 36.24 28.63 34.83 34.67 C 38.38 32.19 41.90 29.67 45.46 27.21 C 47.36 29.60 50.12 30.90 52.90 31.96 C 51.66 34.68 50.64 37.55 51.45 40.56 C 46.98 41.14 42.50 41.73 38.02 42.22 C 38.01 43.48 38.00 44.74 37.99 46.00 C 34.00 46.00 30.00 46.00 26.00 46.00 C 26.00 44.74 26.00 43.49 25.99 42.23 C 21.52 41.59 17.03 41.10 12.54 40.57 C 13.37 37.56 12.35 34.70 11.07 31.99 C 13.90 30.98 16.63 29.60 18.52 27.20 C 22.10 29.65 25.65 32.16 29.18 34.68 C 27.74 28.64 26.24 22.62 24.75 16.60 Z" />
</g>
<g id="#000000ff">
<path fill="#000000" opacity="1.00" d=" M 25.96 11.94 C 28.22 10.25 29.96 7.98 32.00 6.06 C 34.02 7.95 35.76 10.15 37.94 11.86 C 39.90 12.70 41.97 13.22 44.00 13.87 C 43.08 17.69 42.12 21.50 41.19 25.31 C 42.80 24.22 44.40 23.11 46.00 21.99 C 49.04 26.02 53.53 28.03 58.07 29.88 C 57.14 32.35 55.99 34.75 55.23 37.29 C 55.29 39.56 55.74 41.80 56.01 44.06 C 51.34 44.65 46.67 45.22 42.00 45.82 C 42.00 47.21 42.00 48.60 42.00 50.00 C 39.33 50.00 36.67 50.00 34.00 50.00 C 34.00 52.67 34.00 55.33 34.00 58.00 C 32.67 58.00 31.33 58.00 30.00 58.00 C 30.00 55.33 30.00 52.67 30.00 50.00 C 27.33 50.00 24.67 50.00 22.00 50.00 C 22.00 48.61 22.00 47.22 22.00 45.83 C 17.34 45.21 12.66 44.66 7.99 44.06 C 8.26 41.80 8.71 39.55 8.77 37.27 C 8.01 34.74 6.85 32.35 5.94 29.87 C 10.49 28.09 14.96 26.00 17.99 22.00 C 19.60 23.09 21.22 24.18 22.82 25.28 C 21.85 21.48 20.93 17.67 20.00 13.87 C 21.99 13.25 24.04 12.77 25.96 11.94 M 24.75 16.60 C 26.24 22.62 27.74 28.64 29.18 34.68 C 25.65 32.16 22.10 29.65 18.52 27.20 C 16.63 29.60 13.90 30.98 11.07 31.99 C 12.35 34.70 13.37 37.56 12.54 40.57 C 17.03 41.10 21.52 41.59 25.99 42.23 C 26.00 43.49 26.00 44.74 26.00 46.00 C 30.00 46.00 34.00 46.00 37.99 46.00 C 38.00 44.74 38.01 43.48 38.02 42.22 C 42.50 41.73 46.98 41.14 51.45 40.56 C 50.64 37.55 51.66 34.68 52.90 31.96 C 50.12 30.90 47.36 29.60 45.46 27.21 C 41.90 29.67 38.38 32.19 34.83 34.67 C 36.24 28.63 37.76 22.62 39.25 16.60 C 36.16 16.17 33.99 13.97 32.01 11.76 C 30.03 13.97 27.85 16.16 24.75 16.60 Z" />
</g>
</svg>
