<?xml version="1.0" encoding="UTF-8" ?>
<!DOCTYPE svg PUBLIC "-//W3C//DTD SVG 1.1//EN" "http://www.w3.org/Graphics/SVG/1.1/DTD/svg11.dtd">
<svg width="64pt" height="64pt" viewBox="0 0 64 64" version="1.1" xmlns="http://www.w3.org/2000/svg">
<g id="#ffffffff">
<path fill="#ffffff" opacity="1.00" d=" M 0.00 0.00 L 64.00 0.00 L 64.00 64.00 L 0.00 64.00 L 0.00 0.00 M 48.00 10.00 C 48.00 24.67 48.00 39.33 48.00 54.00 C 49.33 54.00 50.67 54.00 52.00 54.00 C 52.00 39.33 52.00 24.67 52.00 10.00 C 50.67 10.00 49.33 10.00 48.00 10.00 M 8.51 32.00 C 19.01 39.27 29.52 46.52 40.00 53.81 C 40.00 39.27 40.00 24.73 40.00 10.19 C 29.52 17.48 19.01 24.74 8.51 32.00 Z" />
<path fill="#ffffff" opacity="1.00" d=" M 15.52 32.00 C 22.36 27.30 29.18 22.57 35.99 17.83 C 36.00 27.28 36.00 36.72 35.99 46.17 C 29.18 41.43 22.36 36.70 15.52 32.00 Z" />
</g>
<g id="#000000ff">
<path fill="#000000" opacity="1.00" d=" M 48.00 10.00 C 49.33 10.00 50.67 10.00 52.00 10.00 C 52.00 24.67 52.00 39.33 52.00 54.00 C 50.67 54.00 49.33 54.00 48.00 54.00 C 48.00 39.33 48.00 24.67 48.00 10.00 Z" />
<path fill="#000000" opacity="1.00" d=" M 8.51 32.00 C 19.01 24.74 29.52 17.48 40.00 10.19 C 40.00 24.73 40.00 39.27 40.00 53.81 C 29.52 46.52 19.01 39.27 8.51 32.00 M 15.52 32.00 C 22.36 36.70 29.18 41.43 35.99 46.17 C 36.00 36.72 36.00 27.28 35.99 17.83 C 29.18 22.57 22.36 27.30 15.52 32.00 Z" />
</g>
</svg>
