<?xml version="1.0" encoding="UTF-8" ?>
<!DOCTYPE svg PUBLIC "-//W3C//DTD SVG 1.1//EN" "http://www.w3.org/Graphics/SVG/1.1/DTD/svg11.dtd">
<svg width="64pt" height="64pt" viewBox="0 0 64 64" version="1.1" xmlns="http://www.w3.org/2000/svg">
<g id="#ffffffff">
<path fill="#ffffff" opacity="1.00" d=" M 0.00 0.00 L 64.00 0.00 L 64.00 64.00 L 0.00 64.00 L 0.00 0.00 M 14.48 8.11 C 12.90 12.81 11.04 17.42 9.33 22.08 C 10.77 22.06 12.20 22.05 13.64 22.04 C 14.87 18.69 16.14 15.36 17.37 12.02 C 27.13 11.99 36.88 11.99 46.63 12.01 C 47.85 15.35 49.14 18.66 50.33 22.00 C 51.77 22.03 53.21 22.06 54.65 22.09 C 52.90 17.39 51.16 12.68 49.36 7.99 C 37.74 8.08 26.11 7.86 14.48 8.11 M 4.00 24.00 C 4.00 27.99 4.00 31.99 4.00 35.98 C 4.64 36.00 5.91 36.03 6.55 36.04 C 8.47 42.69 10.58 49.27 12.44 55.93 C 25.46 56.07 38.49 55.99 51.52 55.97 C 53.47 49.31 55.51 42.67 57.48 36.01 C 58.11 36.01 59.37 36.00 60.00 35.99 C 60.00 31.99 60.00 28.00 60.00 24.00 C 41.33 24.00 22.67 24.00 4.00 24.00 Z" />
<path fill="#ffffff" opacity="1.00" d=" M 8.00 28.00 C 24.00 28.00 40.00 28.00 56.00 28.00 C 56.00 29.27 56.00 30.53 56.00 31.80 C 55.61 31.91 54.85 32.15 54.47 32.27 C 52.39 38.81 50.51 45.42 48.52 51.99 C 37.50 52.00 26.48 52.02 15.46 51.98 C 13.49 45.42 11.60 38.83 9.54 32.29 C 9.15 32.17 8.39 31.91 8.00 31.79 C 8.00 30.52 8.00 29.26 8.00 28.00 M 22.00 34.00 C 22.00 38.67 22.00 43.33 22.00 48.00 C 23.33 48.00 24.67 48.00 26.00 48.00 C 26.00 43.33 26.00 38.67 26.00 34.00 C 24.67 34.00 23.33 34.00 22.00 34.00 M 30.00 34.00 C 30.00 38.67 30.00 43.33 30.00 48.00 C 31.33 48.00 32.67 48.00 34.00 48.00 C 34.00 43.33 34.00 38.67 34.00 34.00 C 32.67 34.00 31.33 34.00 30.00 34.00 M 38.00 34.00 C 38.00 38.67 38.00 43.33 38.00 48.00 C 39.33 48.00 40.67 48.00 42.00 48.00 C 42.00 43.33 42.00 38.67 42.00 34.00 C 40.67 34.00 39.33 34.00 38.00 34.00 Z" />
</g>
<g id="#000000ff">
<path fill="#000000" opacity="1.00" d=" M 14.48 8.11 C 26.11 7.86 37.74 8.08 49.36 7.99 C 51.16 12.68 52.90 17.39 54.65 22.09 C 53.21 22.06 51.77 22.03 50.33 22.00 C 49.14 18.66 47.85 15.35 46.63 12.01 C 36.88 11.99 27.13 11.99 17.37 12.02 C 16.14 15.36 14.87 18.69 13.64 22.04 C 12.20 22.05 10.77 22.06 9.33 22.08 C 11.04 17.42 12.90 12.81 14.48 8.11 Z" />
<path fill="#000000" opacity="1.00" d=" M 4.00 24.00 C 22.67 24.00 41.33 24.00 60.00 24.00 C 60.00 28.00 60.00 31.99 60.00 35.99 C 59.37 36.00 58.11 36.01 57.48 36.01 C 55.51 42.67 53.47 49.31 51.52 55.97 C 38.49 55.99 25.46 56.07 12.44 55.93 C 10.58 49.27 8.47 42.69 6.55 36.04 C 5.91 36.03 4.64 36.00 4.00 35.98 C 4.00 31.99 4.00 27.99 4.00 24.00 M 8.00 28.00 C 8.00 29.26 8.00 30.52 8.00 31.79 C 8.39 31.91 9.15 32.17 9.54 32.29 C 11.60 38.83 13.49 45.42 15.46 51.98 C 26.48 52.02 37.50 52.00 48.52 51.99 C 50.51 45.42 52.39 38.81 54.47 32.27 C 54.85 32.15 55.61 31.91 56.00 31.80 C 56.00 30.53 56.00 29.27 56.00 28.00 C 40.00 28.00 24.00 28.00 8.00 28.00 Z" />
<path fill="#000000" opacity="1.00" d=" M 22.00 34.00 C 23.33 34.00 24.67 34.00 26.00 34.00 C 26.00 38.67 26.00 43.33 26.00 48.00 C 24.67 48.00 23.33 48.00 22.00 48.00 C 22.00 43.33 22.00 38.67 22.00 34.00 Z" />
<path fill="#000000" opacity="1.00" d=" M 30.00 34.00 C 31.33 34.00 32.67 34.00 34.00 34.00 C 34.00 38.67 34.00 43.33 34.00 48.00 C 32.67 48.00 31.33 48.00 30.00 48.00 C 30.00 43.33 30.00 38.67 30.00 34.00 Z" />
<path fill="#000000" opacity="1.00" d=" M 38.00 34.00 C 39.33 34.00 40.67 34.00 42.00 34.00 C 42.00 38.67 42.00 43.33 42.00 48.00 C 40.67 48.00 39.33 48.00 38.00 48.00 C 38.00 43.33 38.00 38.67 38.00 34.00 Z" />
</g>
</svg>
