<?xml version="1.0" encoding="UTF-8" ?>
<!DOCTYPE svg PUBLIC "-//W3C//DTD SVG 1.1//EN" "http://www.w3.org/Graphics/SVG/1.1/DTD/svg11.dtd">
<svg width="64pt" height="64pt" viewBox="0 0 64 64" version="1.1" xmlns="http://www.w3.org/2000/svg">
<g id="#ffffffff">
<path fill="#ffffff" opacity="1.00" d=" M 0.00 0.00 L 64.00 0.00 L 64.00 48.08 C 62.78 48.00 61.56 47.97 60.34 48.00 C 58.82 49.70 56.58 50.28 54.36 49.90 C 55.52 44.14 58.53 38.98 61.53 34.01 C 57.69 33.98 53.85 34.03 50.00 33.98 C 50.01 33.40 50.03 32.22 50.04 31.64 C 52.81 31.04 55.61 30.61 58.37 29.97 C 58.15 28.66 57.89 27.36 57.61 26.07 C 55.12 26.51 52.63 27.02 50.16 27.58 L 49.90 26.00 C 46.60 25.98 43.31 26.03 40.01 25.99 C 39.97 23.33 40.03 20.67 39.99 18.01 C 38.00 17.97 36.00 18.03 34.01 17.99 C 33.97 16.00 34.03 14.00 33.99 12.01 C 32.66 11.98 31.34 11.98 30.01 12.01 C 29.97 14.00 30.03 16.00 29.99 17.99 C 28.00 18.03 26.00 17.97 24.01 18.01 C 24.00 19.34 24.00 20.66 23.99 21.99 C 20.66 22.03 17.34 21.97 14.01 22.01 C 14.00 22.90 13.99 24.67 13.99 25.55 C 11.45 25.09 8.94 24.51 6.39 24.06 C 6.12 25.34 5.86 26.62 5.62 27.91 C 8.40 28.49 11.18 29.06 13.96 29.64 C 14.04 31.09 14.01 32.54 13.99 33.99 C 10.39 34.03 6.80 33.98 3.20 34.01 C 4.90 39.44 7.58 44.61 11.25 48.97 C 8.92 50.68 5.53 50.14 3.65 48.00 C 2.44 47.99 1.22 48.00 0.00 48.05 L 0.00 0.00 Z" />
<path fill="#ffffff" opacity="1.00" d=" M 28.01 22.01 C 30.67 21.99 33.33 21.99 35.99 22.01 C 36.01 23.34 36.01 24.66 35.99 25.99 C 33.33 26.01 30.67 26.01 28.01 25.99 C 27.99 24.66 27.99 23.34 28.01 22.01 Z" />
<path fill="#ffffff" opacity="1.00" d=" M 18.01 26.01 C 20.00 25.99 22.00 25.99 23.99 26.01 C 24.01 28.67 24.01 31.33 23.99 33.99 C 22.00 34.01 20.00 34.01 18.01 33.99 C 17.99 31.33 17.99 28.67 18.01 26.01 Z" />
<path fill="#ffffff" opacity="1.00" d=" M 28.01 30.01 C 34.00 30.00 40.00 29.99 45.99 30.01 C 46.01 31.34 46.01 32.66 45.99 33.99 C 40.00 34.01 34.00 34.01 28.01 33.99 C 27.99 32.66 27.99 31.33 28.01 30.01 Z" />
<path fill="#ffffff" opacity="1.00" d=" M 9.01 38.01 C 24.21 38.00 39.40 38.00 54.60 38.01 C 53.07 41.24 51.49 44.48 50.60 47.96 C 50.02 47.97 48.87 47.99 48.29 48.00 C 46.18 50.63 41.83 50.63 39.72 48.00 C 38.57 47.99 37.43 47.99 36.28 48.00 C 34.18 50.64 29.82 50.62 27.72 48.00 C 26.57 47.99 25.43 47.99 24.28 48.00 C 22.87 49.70 20.53 50.38 18.41 49.77 C 14.04 47.07 11.20 42.53 9.01 38.01 Z" />
<path fill="#ffffff" opacity="1.00" d=" M 0.00 48.83 C 1.85 54.48 9.72 55.39 14.00 51.98 C 17.47 54.61 22.52 54.62 26.00 51.98 C 29.47 54.62 34.52 54.62 38.00 51.98 C 41.47 54.61 46.52 54.62 49.99 51.98 C 54.28 55.38 62.10 54.47 64.00 48.85 L 64.00 64.00 L 0.00 64.00 L 0.00 48.83 Z" />
</g>
<g id="#000000ff">
<path fill="#000000" opacity="1.00" d=" M 30.01 12.01 C 31.34 11.98 32.66 11.98 33.99 12.01 C 34.03 14.00 33.97 16.00 34.01 17.99 C 36.00 18.03 38.00 17.97 39.99 18.01 C 40.03 20.67 39.97 23.33 40.01 25.99 C 43.31 26.03 46.60 25.98 49.90 26.00 L 50.16 27.58 C 52.63 27.02 55.12 26.51 57.61 26.07 C 57.89 27.36 58.15 28.66 58.37 29.97 C 55.61 30.61 52.81 31.04 50.04 31.64 C 50.03 32.22 50.01 33.40 50.00 33.98 C 53.85 34.03 57.69 33.98 61.53 34.01 C 58.53 38.98 55.52 44.14 54.36 49.90 C 56.58 50.28 58.82 49.70 60.34 48.00 C 61.56 47.97 62.78 48.00 64.00 48.08 L 64.00 48.85 C 62.10 54.47 54.28 55.38 49.99 51.98 C 46.52 54.62 41.47 54.61 38.00 51.98 C 34.52 54.62 29.47 54.62 26.00 51.98 C 22.52 54.62 17.47 54.61 14.00 51.98 C 9.72 55.39 1.85 54.48 0.00 48.83 L 0.00 48.05 C 1.22 48.00 2.44 47.99 3.65 48.00 C 5.53 50.14 8.92 50.68 11.25 48.97 C 7.58 44.61 4.90 39.44 3.20 34.01 C 6.80 33.98 10.39 34.03 13.99 33.99 C 14.01 32.54 14.04 31.09 13.96 29.64 C 11.18 29.06 8.40 28.49 5.62 27.91 C 5.86 26.62 6.12 25.34 6.39 24.06 C 8.94 24.51 11.45 25.09 13.99 25.55 C 13.99 24.67 14.00 22.90 14.01 22.01 C 17.34 21.97 20.66 22.03 23.99 21.99 C 24.00 20.66 24.00 19.34 24.01 18.01 C 26.00 17.97 28.00 18.03 29.99 17.99 C 30.03 16.00 29.97 14.00 30.01 12.01 M 28.01 22.01 C 27.99 23.34 27.99 24.66 28.01 25.99 C 30.67 26.01 33.33 26.01 35.99 25.99 C 36.01 24.66 36.01 23.34 35.99 22.01 C 33.33 21.99 30.67 21.99 28.01 22.01 M 18.01 26.01 C 17.99 28.67 17.99 31.33 18.01 33.99 C 20.00 34.01 22.00 34.01 23.99 33.99 C 24.01 31.33 24.01 28.67 23.99 26.01 C 22.00 25.99 20.00 25.99 18.01 26.01 M 28.01 30.01 C 27.99 31.33 27.99 32.66 28.01 33.99 C 34.00 34.01 40.00 34.01 45.99 33.99 C 46.01 32.66 46.01 31.34 45.99 30.01 C 40.00 29.99 34.00 30.00 28.01 30.01 M 9.01 38.01 C 11.20 42.53 14.04 47.07 18.41 49.77 C 20.53 50.38 22.87 49.70 24.28 48.00 C 25.43 47.99 26.57 47.99 27.72 48.00 C 29.82 50.62 34.18 50.64 36.28 48.00 C 37.43 47.99 38.57 47.99 39.72 48.00 C 41.83 50.63 46.18 50.63 48.29 48.00 C 48.87 47.99 50.02 47.97 50.60 47.96 C 51.49 44.48 53.07 41.24 54.60 38.01 C 39.40 38.00 24.21 38.00 9.01 38.01 Z" />
</g>
</svg>
