<?xml version="1.0" encoding="UTF-8" ?>
<!DOCTYPE svg PUBLIC "-//W3C//DTD SVG 1.1//EN" "http://www.w3.org/Graphics/SVG/1.1/DTD/svg11.dtd">
<svg width="64pt" height="64pt" viewBox="0 0 64 64" version="1.1" xmlns="http://www.w3.org/2000/svg">
<g id="#ffffffff">
<path fill="#ffffff" opacity="1.00" d=" M 0.00 0.00 L 64.00 0.00 L 64.00 64.00 L 0.00 64.00 L 0.00 0.00 M 21.01 11.93 C 18.44 14.36 17.64 18.25 18.33 21.65 C 16.31 20.37 13.46 20.25 12.31 17.88 C 11.18 19.81 9.89 21.64 8.72 23.55 C 6.20 28.05 10.36 35.50 15.89 33.72 C 19.80 32.56 20.56 27.75 19.63 24.31 C 22.19 26.81 25.81 26.07 28.40 24.10 C 29.99 27.86 34.72 29.15 37.90 26.49 C 38.68 29.82 41.41 32.45 45.00 32.05 C 43.74 34.90 43.45 38.71 46.21 40.81 C 49.59 43.68 54.78 40.83 55.69 36.91 C 56.98 32.91 54.24 29.40 52.91 25.85 C 51.76 26.86 50.59 27.85 49.39 28.81 C 49.56 26.86 50.15 24.91 49.89 22.95 C 48.99 20.49 47.74 18.19 46.94 15.69 C 46.24 16.39 45.55 17.08 44.85 17.78 C 43.23 18.16 41.65 18.69 40.15 19.40 C 39.40 16.06 37.88 12.98 36.85 9.73 C 36.20 10.41 35.56 11.08 34.91 11.75 C 32.96 12.26 31.22 13.27 29.73 14.62 C 28.67 12.35 27.24 10.26 26.50 7.85 C 24.71 9.26 22.80 10.52 21.01 11.93 M 19.45 35.69 C 16.80 36.27 13.91 36.92 12.16 39.19 C 8.78 42.94 9.56 49.40 13.72 52.25 C 17.28 54.96 21.95 53.65 26.05 53.79 C 31.45 53.52 36.51 56.74 41.91 55.74 C 46.89 54.68 49.64 48.38 46.92 44.04 C 45.49 41.23 42.34 40.22 39.46 39.72 C 37.82 35.82 35.88 30.92 31.09 30.25 C 26.39 28.98 21.85 31.77 19.45 35.69 Z" />
<path fill="#ffffff" opacity="1.00" d=" M 23.20 22.48 C 21.04 19.52 22.29 15.50 25.13 13.50 C 25.86 16.62 27.27 21.16 23.20 22.48 Z" />
<path fill="#ffffff" opacity="1.00" d=" M 32.98 23.98 C 31.15 21.09 32.07 17.28 34.99 15.51 C 36.03 18.14 37.26 24.12 32.98 23.98 Z" />
<path fill="#ffffff" opacity="1.00" d=" M 43.09 22.14 C 47.37 20.77 46.55 28.24 43.00 28.16 C 41.58 26.43 41.78 23.87 43.09 22.14 Z" />
<path fill="#ffffff" opacity="1.00" d=" M 13.31 24.15 C 16.54 23.19 16.49 28.31 15.05 30.09 C 12.08 30.34 10.91 25.65 13.31 24.15 Z" />
<path fill="#ffffff" opacity="1.00" d=" M 48.34 37.61 C 47.25 35.04 49.19 32.36 51.69 31.69 C 52.41 34.02 51.90 39.26 48.34 37.61 Z" />
<path fill="#ffffff" opacity="1.00" d=" M 26.31 34.40 C 28.79 33.54 32.21 33.91 33.45 36.55 C 35.12 39.40 36.00 43.71 40.00 43.99 C 43.43 43.97 45.38 48.44 42.84 50.82 C 40.15 53.19 36.34 51.28 33.26 50.77 C 28.28 49.13 23.03 50.18 17.93 49.86 C 14.43 49.29 12.76 44.60 15.05 41.92 C 16.13 40.32 18.22 40.27 19.89 39.74 C 22.85 39.19 23.77 35.68 26.31 34.40 Z" />
</g>
<g id="#000000ff">
<path fill="#000000" opacity="1.00" d=" M 21.01 11.93 C 22.80 10.52 24.71 9.26 26.50 7.85 C 27.24 10.26 28.67 12.35 29.73 14.62 C 31.22 13.27 32.96 12.26 34.91 11.75 C 35.56 11.08 36.20 10.41 36.85 9.73 C 37.88 12.98 39.40 16.06 40.15 19.40 C 41.65 18.69 43.23 18.16 44.85 17.78 C 45.55 17.08 46.24 16.39 46.94 15.69 C 47.74 18.19 48.99 20.49 49.89 22.95 C 50.15 24.91 49.56 26.86 49.39 28.81 C 50.59 27.85 51.76 26.86 52.91 25.85 C 54.24 29.40 56.98 32.91 55.69 36.91 C 54.78 40.83 49.59 43.68 46.21 40.81 C 43.45 38.71 43.74 34.90 45.00 32.05 C 41.41 32.45 38.68 29.82 37.90 26.49 C 34.72 29.15 29.99 27.86 28.40 24.10 C 25.81 26.07 22.19 26.81 19.63 24.31 C 20.56 27.75 19.80 32.56 15.89 33.72 C 10.36 35.50 6.20 28.05 8.72 23.55 C 9.89 21.64 11.18 19.81 12.31 17.88 C 13.46 20.25 16.31 20.37 18.33 21.65 C 17.64 18.25 18.44 14.36 21.01 11.93 M 23.20 22.48 C 27.27 21.16 25.86 16.62 25.13 13.50 C 22.29 15.50 21.04 19.52 23.20 22.48 M 32.98 23.98 C 37.26 24.12 36.03 18.14 34.99 15.51 C 32.07 17.28 31.15 21.09 32.98 23.98 M 43.09 22.14 C 41.78 23.87 41.58 26.43 43.00 28.16 C 46.55 28.24 47.37 20.77 43.09 22.14 M 13.31 24.15 C 10.91 25.65 12.08 30.34 15.05 30.09 C 16.49 28.31 16.54 23.19 13.31 24.15 M 48.34 37.61 C 51.90 39.26 52.41 34.02 51.69 31.69 C 49.19 32.36 47.25 35.04 48.34 37.61 Z" />
<path fill="#000000" opacity="1.00" d=" M 19.45 35.69 C 21.85 31.77 26.39 28.98 31.09 30.25 C 35.88 30.92 37.82 35.82 39.46 39.72 C 42.34 40.22 45.49 41.23 46.92 44.04 C 49.64 48.38 46.89 54.68 41.91 55.74 C 36.51 56.74 31.45 53.52 26.05 53.79 C 21.95 53.65 17.28 54.96 13.72 52.25 C 9.56 49.40 8.78 42.94 12.16 39.19 C 13.91 36.92 16.80 36.27 19.45 35.69 M 26.31 34.40 C 23.77 35.68 22.85 39.19 19.89 39.74 C 18.22 40.27 16.13 40.32 15.05 41.92 C 12.76 44.60 14.43 49.29 17.93 49.86 C 23.03 50.18 28.28 49.13 33.26 50.77 C 36.34 51.28 40.15 53.19 42.84 50.82 C 45.38 48.44 43.43 43.97 40.00 43.99 C 36.00 43.71 35.12 39.40 33.45 36.55 C 32.21 33.91 28.79 33.54 26.31 34.40 Z" />
</g>
</svg>
