<?xml version="1.0" encoding="UTF-8" ?>
<!DOCTYPE svg PUBLIC "-//W3C//DTD SVG 1.1//EN" "http://www.w3.org/Graphics/SVG/1.1/DTD/svg11.dtd">
<svg width="64pt" height="64pt" viewBox="0 0 64 64" version="1.1" xmlns="http://www.w3.org/2000/svg">
<g id="#ffffffff">
<path fill="#ffffff" opacity="1.00" d=" M 0.00 0.00 L 47.52 0.00 C 46.61 1.63 45.21 2.88 43.87 4.15 C 41.68 3.77 39.19 3.66 37.67 5.59 C 32.13 11.20 26.37 16.61 21.04 22.42 C 18.26 28.41 15.00 36.93 7.09 36.84 C 3.53 39.73 0.67 43.68 0.00 48.31 L 0.00 0.00 Z" />
<path fill="#ffffff" opacity="1.00" d=" M 48.83 0.00 L 64.00 0.00 L 64.00 15.89 C 62.84 14.73 61.64 13.59 60.44 12.47 C 59.07 13.85 57.69 15.24 56.31 16.61 C 55.43 15.70 54.54 14.78 53.66 13.87 C 55.03 12.49 56.40 11.12 57.77 9.75 C 56.60 8.57 55.43 7.40 54.25 6.22 C 52.65 7.32 50.99 11.18 48.72 9.28 C 46.31 6.66 52.41 5.21 50.60 2.41 C 50.03 1.60 49.44 0.79 48.83 0.00 Z" />
<path fill="#ffffff" opacity="1.00" d=" M 38.45 11.79 C 39.49 10.79 40.55 9.80 41.62 8.82 C 46.00 13.55 50.85 17.84 55.16 22.65 C 54.15 23.59 53.15 24.54 52.16 25.50 C 47.58 20.93 43.02 16.36 38.45 11.79 Z" />
<path fill="#ffffff" opacity="1.00" d=" M 23.52 28.96 C 25.43 23.09 31.12 19.86 34.94 15.33 C 39.54 19.87 44.07 24.48 48.65 29.04 C 45.03 32.33 42.02 36.40 37.99 39.18 C 30.89 41.90 23.18 46.94 22.12 55.12 C 20.25 57.06 17.85 58.57 15.13 58.90 C 9.67 59.66 4.30 54.39 5.13 48.89 C 5.55 45.98 6.96 42.35 10.16 41.67 C 16.51 40.19 20.94 34.63 23.52 28.96 M 32.48 24.77 C 29.34 26.31 28.99 31.18 31.90 33.14 C 34.62 35.39 39.14 33.56 39.73 30.14 C 40.73 26.22 35.96 22.62 32.48 24.77 M 23.18 37.30 C 21.87 38.44 22.30 40.97 24.05 41.45 C 25.64 42.07 27.50 40.70 27.40 39.01 C 27.37 36.98 24.60 35.77 23.18 37.30 Z" />
<path fill="#ffffff" opacity="1.00" d=" M 59.86 20.18 C 61.18 18.78 62.52 17.40 63.89 16.06 L 64.00 16.89 L 64.00 64.00 L 15.62 64.00 C 20.26 63.29 24.26 60.52 27.15 56.92 C 27.05 48.99 35.61 45.71 41.62 42.93 C 47.41 37.61 52.82 31.86 58.40 26.31 C 60.25 24.78 60.18 22.34 59.86 20.18 Z" />
<path fill="#ffffff" opacity="1.00" d=" M 0.00 51.23 C 0.84 57.70 6.14 63.01 12.56 64.00 L 0.00 64.00 L 0.00 51.23 Z" />
</g>
<g id="#000000ff">
<path fill="#000000" opacity="1.00" d=" M 47.52 0.00 L 48.83 0.00 C 49.44 0.79 50.03 1.60 50.60 2.41 C 52.41 5.21 46.31 6.66 48.72 9.28 C 50.99 11.18 52.65 7.32 54.25 6.22 C 55.43 7.40 56.60 8.57 57.77 9.75 C 56.40 11.12 55.03 12.49 53.66 13.87 C 54.54 14.78 55.43 15.70 56.31 16.61 C 57.69 15.24 59.07 13.85 60.44 12.47 C 61.64 13.59 62.84 14.73 64.00 15.89 L 64.00 16.89 L 63.89 16.06 C 62.52 17.40 61.18 18.78 59.86 20.18 C 60.18 22.34 60.25 24.78 58.40 26.31 C 52.82 31.86 47.41 37.61 41.62 42.93 C 35.61 45.71 27.05 48.99 27.15 56.92 C 24.26 60.52 20.26 63.29 15.62 64.00 L 12.56 64.00 C 6.14 63.01 0.84 57.70 0.00 51.23 L 0.00 48.31 C 0.67 43.68 3.53 39.73 7.09 36.84 C 15.00 36.93 18.26 28.41 21.04 22.42 C 26.37 16.61 32.13 11.20 37.67 5.59 C 39.19 3.66 41.68 3.77 43.87 4.15 C 45.21 2.88 46.61 1.63 47.52 0.00 M 38.45 11.79 C 43.02 16.36 47.58 20.93 52.16 25.50 C 53.15 24.54 54.15 23.59 55.16 22.65 C 50.85 17.84 46.00 13.55 41.62 8.82 C 40.55 9.80 39.49 10.79 38.45 11.79 M 23.52 28.96 C 20.94 34.63 16.51 40.19 10.16 41.67 C 6.96 42.35 5.55 45.98 5.13 48.89 C 4.30 54.39 9.67 59.66 15.13 58.90 C 17.85 58.57 20.25 57.06 22.12 55.12 C 23.18 46.94 30.89 41.90 37.99 39.18 C 42.02 36.40 45.03 32.33 48.65 29.04 C 44.07 24.48 39.54 19.87 34.94 15.33 C 31.12 19.86 25.43 23.09 23.52 28.96 Z" />
<path fill="#000000" opacity="1.00" d=" M 32.48 24.77 C 35.96 22.62 40.73 26.22 39.73 30.14 C 39.14 33.56 34.62 35.39 31.90 33.14 C 28.99 31.18 29.34 26.31 32.48 24.77 Z" />
<path fill="#000000" opacity="1.00" d=" M 23.18 37.30 C 24.60 35.77 27.37 36.98 27.40 39.01 C 27.50 40.70 25.64 42.07 24.05 41.45 C 22.30 40.97 21.87 38.44 23.18 37.30 Z" />
</g>
</svg>
