<?xml version="1.0" encoding="UTF-8" ?>
<!DOCTYPE svg PUBLIC "-//W3C//DTD SVG 1.1//EN" "http://www.w3.org/Graphics/SVG/1.1/DTD/svg11.dtd">
<svg width="64pt" height="64pt" viewBox="0 0 64 64" version="1.1" xmlns="http://www.w3.org/2000/svg">
<g id="#ffffffff">
<path fill="#ffffff" opacity="1.00" d=" M 0.00 0.00 L 64.00 0.00 L 64.00 64.00 L 0.00 64.00 L 0.00 0.00 M 25.07 11.96 C 22.85 12.03 20.59 11.82 18.41 12.32 C 15.25 13.35 15.24 18.64 18.40 19.67 C 20.59 20.19 22.86 19.97 25.09 20.04 C 27.03 21.81 29.00 24.18 31.92 23.97 C 37.29 24.03 42.68 24.06 48.05 23.95 C 52.32 24.07 56.10 20.22 55.98 15.97 C 56.06 11.77 52.35 7.95 48.12 8.05 C 42.73 7.94 37.34 7.97 31.95 8.03 C 29.01 7.80 27.02 10.18 25.07 11.96 M 8.06 26.84 C 7.90 36.56 8.06 46.28 8.00 56.00 C 11.33 56.00 14.67 56.00 18.00 56.00 C 18.00 54.67 18.00 53.33 18.00 52.00 C 27.33 52.00 36.67 52.00 46.00 52.00 C 46.00 53.33 46.00 54.67 46.00 56.00 C 49.33 56.00 52.67 56.00 56.00 56.00 C 55.94 48.63 56.11 41.25 55.94 33.88 C 56.00 30.77 53.23 27.98 50.12 28.06 C 43.74 27.87 37.34 28.10 30.95 27.97 C 29.09 28.03 27.08 27.64 25.43 28.75 C 23.03 27.80 20.46 27.95 18.10 28.94 C 18.00 26.67 17.85 23.90 15.56 22.71 C 12.53 20.67 7.91 23.17 8.06 26.84 Z" />
<path fill="#ffffff" opacity="1.00" d=" M 28.75 13.98 C 29.48 13.33 30.21 12.67 30.93 12.02 C 36.91 12.10 42.89 11.79 48.86 12.13 C 53.03 12.47 53.00 19.57 48.82 19.87 C 42.87 20.21 36.90 19.90 30.94 19.98 C 30.21 19.32 29.48 18.67 28.75 18.02 C 32.50 18.02 36.25 17.97 40.00 18.01 C 40.00 16.67 40.00 15.33 40.00 13.99 C 36.25 14.03 32.50 13.98 28.75 13.98 Z" />
<path fill="#ffffff" opacity="1.00" d=" M 12.03 26.29 C 12.51 26.30 13.49 26.31 13.98 26.32 C 14.01 32.21 14.00 38.11 14.00 44.00 C 26.67 44.00 39.33 44.00 52.00 44.00 C 52.00 46.67 52.00 49.33 52.00 52.00 C 51.50 52.00 50.50 52.00 50.00 52.00 C 50.00 50.67 50.00 49.33 50.00 48.00 C 38.00 48.00 26.00 48.00 14.00 48.00 C 14.00 49.33 14.00 50.67 14.00 52.00 C 13.50 52.00 12.50 52.00 12.00 52.00 C 12.01 43.43 11.97 34.86 12.03 26.29 Z" />
<path fill="#ffffff" opacity="1.00" d=" M 20.28 32.37 C 22.79 31.06 26.12 33.16 26.00 35.99 C 26.16 39.10 22.20 41.17 19.73 39.30 C 17.21 37.74 17.55 33.51 20.28 32.37 Z" />
<path fill="#ffffff" opacity="1.00" d=" M 30.00 32.00 C 36.93 32.13 43.89 31.74 50.81 32.17 C 53.06 33.97 51.61 37.49 52.01 40.00 C 44.67 40.00 37.33 40.00 30.00 40.00 C 30.00 37.33 30.00 34.67 30.00 32.00 Z" />
</g>
<g id="#000000ff">
<path fill="#000000" opacity="1.00" d=" M 25.07 11.96 C 27.02 10.18 29.01 7.80 31.95 8.03 C 37.34 7.97 42.73 7.94 48.12 8.05 C 52.35 7.95 56.06 11.77 55.98 15.97 C 56.10 20.22 52.32 24.07 48.05 23.95 C 42.68 24.06 37.29 24.03 31.92 23.97 C 29.00 24.18 27.03 21.81 25.09 20.04 C 22.86 19.97 20.59 20.19 18.40 19.67 C 15.24 18.64 15.25 13.35 18.41 12.32 C 20.59 11.82 22.85 12.03 25.07 11.96 M 28.75 13.98 C 32.50 13.98 36.25 14.03 40.00 13.99 C 40.00 15.33 40.00 16.67 40.00 18.01 C 36.25 17.97 32.50 18.02 28.75 18.02 C 29.48 18.67 30.21 19.32 30.94 19.98 C 36.90 19.90 42.87 20.21 48.82 19.87 C 53.00 19.57 53.03 12.47 48.86 12.13 C 42.89 11.79 36.91 12.10 30.93 12.02 C 30.21 12.67 29.48 13.33 28.75 13.98 Z" />
<path fill="#000000" opacity="1.00" d=" M 8.06 26.84 C 7.91 23.17 12.53 20.67 15.56 22.71 C 17.85 23.90 18.00 26.67 18.10 28.94 C 20.46 27.95 23.03 27.80 25.43 28.75 C 27.08 27.64 29.09 28.03 30.95 27.97 C 37.34 28.10 43.74 27.87 50.12 28.06 C 53.23 27.98 56.00 30.77 55.94 33.88 C 56.11 41.25 55.94 48.63 56.00 56.00 C 52.67 56.00 49.33 56.00 46.00 56.00 C 46.00 54.67 46.00 53.33 46.00 52.00 C 36.67 52.00 27.33 52.00 18.00 52.00 C 18.00 53.33 18.00 54.67 18.00 56.00 C 14.67 56.00 11.33 56.00 8.00 56.00 C 8.06 46.28 7.90 36.56 8.06 26.84 M 12.03 26.29 C 11.97 34.86 12.01 43.43 12.00 52.00 C 12.50 52.00 13.50 52.00 14.00 52.00 C 14.00 50.67 14.00 49.33 14.00 48.00 C 26.00 48.00 38.00 48.00 50.00 48.00 C 50.00 49.33 50.00 50.67 50.00 52.00 C 50.50 52.00 51.50 52.00 52.00 52.00 C 52.00 49.33 52.00 46.67 52.00 44.00 C 39.33 44.00 26.67 44.00 14.00 44.00 C 14.00 38.11 14.01 32.21 13.98 26.32 C 13.49 26.31 12.51 26.30 12.03 26.29 M 20.28 32.37 C 17.55 33.51 17.21 37.74 19.73 39.30 C 22.20 41.17 26.16 39.10 26.00 35.99 C 26.12 33.16 22.79 31.06 20.28 32.37 M 30.00 32.00 C 30.00 34.67 30.00 37.33 30.00 40.00 C 37.33 40.00 44.67 40.00 52.01 40.00 C 51.61 37.49 53.06 33.97 50.81 32.17 C 43.89 31.74 36.93 32.13 30.00 32.00 Z" />
</g>
</svg>
