<?xml version="1.0" encoding="UTF-8" ?>
<!DOCTYPE svg PUBLIC "-//W3C//DTD SVG 1.1//EN" "http://www.w3.org/Graphics/SVG/1.1/DTD/svg11.dtd">
<svg width="64pt" height="64pt" viewBox="0 0 64 64" version="1.1" xmlns="http://www.w3.org/2000/svg">
<g id="#ffffffff">
<path fill="#ffffff" opacity="1.00" d=" M 0.00 0.00 L 64.00 0.00 L 64.00 64.00 L 0.00 64.00 L 0.00 0.00 M 32.15 24.42 C 27.82 23.50 23.32 24.30 19.49 26.47 C 18.10 24.71 16.70 22.95 15.31 21.19 C 14.27 22.02 13.23 22.85 12.19 23.69 C 14.37 26.46 16.57 29.22 18.81 31.95 C 22.12 28.74 27.08 27.06 31.57 28.56 C 34.58 29.76 37.11 31.88 39.95 33.41 C 40.38 32.19 40.82 30.98 41.26 29.77 C 39.69 28.68 37.87 27.71 37.00 25.91 C 34.74 22.02 36.51 16.47 40.69 14.73 C 45.00 12.60 50.73 15.34 51.74 20.05 C 52.78 23.89 50.50 27.47 48.12 30.26 C 47.91 33.72 47.14 37.25 44.94 40.02 C 40.57 46.06 31.48 47.82 25.20 43.77 C 21.42 41.68 19.44 37.71 18.05 33.82 C 14.82 29.82 10.91 26.40 7.42 22.62 C 6.47 23.55 5.52 24.47 4.57 25.39 C 8.53 30.08 14.22 33.61 16.27 39.65 C 18.20 43.71 21.80 46.81 25.90 48.56 C 26.01 51.04 26.03 53.52 26.00 56.00 C 27.33 56.00 28.67 56.00 30.00 56.00 C 30.00 53.92 30.00 51.85 30.00 49.77 C 31.33 49.86 32.67 49.94 34.00 50.02 C 34.00 51.35 34.00 52.67 34.00 54.00 C 35.33 54.00 36.66 54.00 37.99 54.00 C 38.00 52.45 38.01 50.91 38.02 49.36 C 43.50 47.61 48.27 43.57 50.39 38.16 C 51.51 35.78 51.21 32.89 52.80 30.72 C 54.17 28.91 55.10 26.85 55.81 24.71 C 57.19 23.79 58.59 22.89 59.99 22.00 C 58.56 21.09 57.15 20.16 55.74 19.22 C 54.12 13.32 48.03 8.88 41.85 10.23 C 35.37 11.25 30.96 18.05 32.15 24.42 M 43.41 18.48 C 41.61 19.50 41.57 22.42 43.36 23.47 C 45.16 24.85 48.16 23.27 47.95 20.98 C 48.13 18.74 45.22 17.19 43.41 18.48 M 22.88 32.69 C 24.83 37.08 29.23 39.84 33.97 40.15 C 33.98 38.83 34.00 37.51 34.00 36.19 C 30.80 35.83 28.03 34.02 26.47 31.19 C 25.28 31.69 24.08 32.19 22.88 32.69 Z" />
</g>
<g id="#000000ff">
<path fill="#000000" opacity="1.00" d=" M 32.15 24.42 C 30.96 18.05 35.37 11.25 41.85 10.23 C 48.03 8.88 54.12 13.32 55.74 19.22 C 57.15 20.16 58.56 21.09 59.99 22.00 C 58.59 22.89 57.19 23.79 55.81 24.71 C 55.10 26.85 54.17 28.91 52.80 30.72 C 51.21 32.89 51.51 35.78 50.39 38.16 C 48.27 43.57 43.50 47.61 38.02 49.36 C 38.01 50.91 38.00 52.45 37.99 54.00 C 36.66 54.00 35.33 54.00 34.00 54.00 C 34.00 52.67 34.00 51.35 34.00 50.02 C 32.67 49.94 31.33 49.86 30.00 49.77 C 30.00 51.85 30.00 53.92 30.00 56.00 C 28.67 56.00 27.33 56.00 26.00 56.00 C 26.03 53.52 26.01 51.04 25.90 48.56 C 21.80 46.81 18.20 43.71 16.27 39.65 C 14.22 33.61 8.53 30.08 4.57 25.39 C 5.52 24.47 6.47 23.55 7.42 22.62 C 10.91 26.40 14.82 29.82 18.05 33.82 C 19.44 37.71 21.42 41.68 25.20 43.77 C 31.48 47.82 40.57 46.06 44.94 40.02 C 47.14 37.25 47.91 33.72 48.12 30.26 C 50.50 27.47 52.78 23.89 51.74 20.05 C 50.73 15.34 45.00 12.60 40.69 14.73 C 36.51 16.47 34.74 22.02 37.00 25.91 C 37.87 27.71 39.69 28.68 41.26 29.77 C 40.82 30.98 40.38 32.19 39.95 33.41 C 37.11 31.88 34.58 29.76 31.57 28.56 C 27.08 27.06 22.12 28.74 18.81 31.95 C 16.57 29.22 14.37 26.46 12.19 23.69 C 13.23 22.85 14.27 22.02 15.31 21.19 C 16.70 22.95 18.10 24.71 19.49 26.47 C 23.32 24.30 27.82 23.50 32.15 24.42 Z" />
<path fill="#000000" opacity="1.00" d=" M 43.41 18.48 C 45.22 17.19 48.13 18.74 47.95 20.98 C 48.16 23.27 45.16 24.85 43.36 23.47 C 41.57 22.42 41.61 19.50 43.41 18.48 Z" />
<path fill="#000000" opacity="1.00" d=" M 22.88 32.69 C 24.08 32.19 25.28 31.69 26.47 31.19 C 28.03 34.02 30.80 35.83 34.00 36.19 C 34.00 37.51 33.98 38.83 33.97 40.15 C 29.23 39.84 24.83 37.08 22.88 32.69 Z" />
</g>
</svg>
