<?xml version="1.0" encoding="UTF-8" ?>
<!DOCTYPE svg PUBLIC "-//W3C//DTD SVG 1.1//EN" "http://www.w3.org/Graphics/SVG/1.1/DTD/svg11.dtd">
<svg width="64pt" height="64pt" viewBox="0 0 64 64" version="1.1" xmlns="http://www.w3.org/2000/svg">
<g id="#ffffffff">
<path fill="#ffffff" opacity="1.00" d=" M 0.00 0.00 L 64.00 0.00 L 64.00 64.00 L 0.00 64.00 L 0.00 0.00 M 14.75 10.72 C 10.56 15.21 11.63 22.29 15.19 26.83 C 14.50 29.14 13.94 31.52 13.99 33.95 C 14.00 41.97 14.01 49.98 14.00 58.00 C 15.33 58.00 16.67 58.00 18.00 58.00 C 18.09 49.28 17.83 40.56 18.12 31.85 C 18.56 25.19 25.71 20.67 32.03 22.27 C 32.00 20.89 31.98 19.52 31.95 18.14 C 26.46 17.26 21.08 19.41 17.19 23.24 C 15.94 19.97 15.13 15.67 18.02 13.01 C 22.59 8.73 30.06 9.31 34.66 13.27 C 35.63 12.35 36.61 11.42 37.57 10.48 C 31.32 4.84 20.64 4.28 14.75 10.72 M 34.00 18.19 C 34.33 23.50 33.26 29.02 34.67 34.21 C 37.89 42.12 51.05 41.72 53.58 33.48 C 54.50 28.45 53.77 23.28 54.00 18.19 C 51.91 19.66 49.81 21.12 47.71 22.57 C 45.27 21.79 42.73 21.79 40.29 22.57 C 38.19 21.12 36.09 19.66 34.00 18.19 M 22.04 43.91 C 21.90 48.61 22.05 53.30 22.00 58.00 C 23.33 58.00 24.66 58.00 26.00 58.00 C 26.11 53.01 25.77 48.00 26.15 43.02 C 26.93 39.09 33.16 39.09 33.85 43.07 C 34.23 48.04 33.89 53.03 34.00 58.00 C 35.33 58.00 36.67 58.00 38.00 58.00 C 37.84 52.69 38.33 47.35 37.74 42.07 C 36.53 38.21 32.20 35.02 28.07 36.25 C 24.62 37.05 21.99 40.37 22.04 43.91 M 42.00 42.00 C 42.00 47.33 42.00 52.67 42.00 58.00 C 43.33 58.00 44.67 58.00 46.00 58.00 C 46.00 52.62 46.00 47.24 46.00 41.86 C 44.67 41.92 43.33 41.97 42.00 42.00 Z" />
<path fill="#ffffff" opacity="1.00" d=" M 37.92 26.14 C 39.87 27.36 41.92 26.05 43.95 25.85 C 46.02 26.00 48.10 27.39 50.08 26.14 C 49.93 28.31 50.23 30.55 49.64 32.67 C 47.67 37.08 40.38 37.09 38.37 32.72 C 37.75 30.59 38.07 28.32 37.92 26.14 Z" />
</g>
<g id="#000000ff">
<path fill="#000000" opacity="1.00" d=" M 14.75 10.72 C 20.64 4.28 31.32 4.84 37.57 10.48 C 36.61 11.42 35.63 12.35 34.66 13.27 C 30.06 9.31 22.59 8.73 18.02 13.01 C 15.13 15.67 15.94 19.97 17.19 23.24 C 21.08 19.41 26.46 17.26 31.95 18.14 C 31.98 19.52 32.00 20.89 32.03 22.27 C 25.71 20.67 18.56 25.19 18.12 31.85 C 17.83 40.56 18.09 49.28 18.00 58.00 C 16.67 58.00 15.33 58.00 14.00 58.00 C 14.01 49.98 14.00 41.97 13.99 33.95 C 13.94 31.52 14.50 29.14 15.19 26.83 C 11.63 22.29 10.56 15.21 14.75 10.72 Z" />
<path fill="#000000" opacity="1.00" d=" M 34.00 18.19 C 36.09 19.66 38.19 21.12 40.29 22.57 C 42.73 21.79 45.27 21.79 47.71 22.57 C 49.81 21.12 51.91 19.66 54.00 18.19 C 53.77 23.28 54.50 28.45 53.58 33.48 C 51.05 41.72 37.89 42.12 34.67 34.21 C 33.26 29.02 34.33 23.50 34.00 18.19 M 37.92 26.14 C 38.07 28.32 37.75 30.59 38.37 32.72 C 40.38 37.09 47.67 37.08 49.64 32.67 C 50.23 30.55 49.93 28.31 50.08 26.14 C 48.10 27.39 46.02 26.00 43.95 25.85 C 41.92 26.05 39.87 27.36 37.92 26.14 Z" />
<path fill="#000000" opacity="1.00" d=" M 22.04 43.91 C 21.99 40.37 24.62 37.05 28.07 36.25 C 32.20 35.02 36.53 38.21 37.74 42.07 C 38.33 47.35 37.84 52.69 38.00 58.00 C 36.67 58.00 35.33 58.00 34.00 58.00 C 33.89 53.03 34.23 48.04 33.85 43.07 C 33.16 39.09 26.93 39.09 26.15 43.02 C 25.77 48.00 26.11 53.01 26.00 58.00 C 24.66 58.00 23.33 58.00 22.00 58.00 C 22.05 53.30 21.90 48.61 22.04 43.91 Z" />
<path fill="#000000" opacity="1.00" d=" M 42.00 42.00 C 43.33 41.97 44.67 41.92 46.00 41.86 C 46.00 47.24 46.00 52.62 46.00 58.00 C 44.67 58.00 43.33 58.00 42.00 58.00 C 42.00 52.67 42.00 47.33 42.00 42.00 Z" />
</g>
</svg>
