<?xml version="1.0" encoding="UTF-8" ?>
<!DOCTYPE svg PUBLIC "-//W3C//DTD SVG 1.1//EN" "http://www.w3.org/Graphics/SVG/1.1/DTD/svg11.dtd">
<svg width="64pt" height="64pt" viewBox="0 0 64 64" version="1.1" xmlns="http://www.w3.org/2000/svg">
<g id="#ffffffff">
<path fill="#ffffff" opacity="1.00" d=" M 0.00 0.00 L 64.00 0.00 L 64.00 64.00 L 0.00 64.00 L 0.00 0.00 M 12.22 10.24 C 5.77 8.39 -0.68 16.04 3.08 21.88 C 6.67 27.88 14.49 25.52 20.23 26.04 C 19.57 27.42 19.10 28.94 18.06 30.10 C 15.79 32.15 12.22 32.62 10.68 35.48 C 8.76 38.74 11.18 43.34 14.87 43.82 C 20.10 44.45 26.10 43.93 30.26 47.81 C 25.94 48.14 21.60 47.98 17.26 47.99 C 19.25 51.99 21.27 55.98 23.24 59.99 C 29.41 60.01 35.59 60.00 41.76 59.99 C 43.73 55.99 45.75 52.00 47.74 48.00 C 43.18 48.00 38.63 48.01 34.08 47.98 C 31.57 40.42 22.50 40.34 15.93 39.92 C 13.83 40.05 13.28 36.89 15.38 36.30 C 21.16 33.61 28.17 34.68 33.85 37.17 C 35.61 39.97 37.53 43.32 41.20 43.78 C 45.81 44.19 50.48 44.07 55.10 43.87 C 60.48 43.38 63.81 36.66 60.94 32.07 C 58.81 28.04 53.44 26.99 49.64 29.26 C 47.53 27.38 44.94 25.56 41.94 26.07 C 38.19 26.40 35.42 29.42 34.14 32.77 C 30.38 31.53 26.47 30.77 22.50 30.71 C 23.10 29.15 23.64 27.57 24.17 25.99 C 27.48 25.95 30.81 26.21 34.10 25.79 C 38.52 25.12 41.49 19.74 39.22 15.74 C 37.94 12.98 34.91 11.90 32.10 11.56 C 31.58 6.47 27.30 1.87 22.00 2.03 C 17.18 1.87 13.31 5.78 12.22 10.24 Z" />
<path fill="#ffffff" opacity="1.00" d=" M 19.45 6.56 C 22.11 5.27 25.60 6.29 27.10 8.84 C 28.38 10.71 27.69 13.04 27.68 15.14 C 28.95 18.30 32.58 14.42 34.67 16.41 C 37.08 17.89 35.79 21.88 33.03 21.89 C 25.34 22.11 17.62 22.04 9.92 21.92 C 6.24 22.02 4.50 16.67 7.77 14.78 C 10.15 12.68 13.16 15.84 15.53 14.57 C 16.28 11.71 16.06 7.82 19.45 6.56 Z" />
<path fill="#ffffff" opacity="1.00" d=" M 40.43 30.70 C 43.17 28.91 46.33 30.72 47.87 33.16 C 49.96 35.93 52.29 31.02 54.88 32.08 C 58.88 32.72 58.98 39.16 54.97 39.84 C 50.64 40.13 46.26 40.12 41.93 39.84 C 37.61 39.22 36.60 32.70 40.43 30.70 Z" />
<path fill="#ffffff" opacity="1.00" d=" M 23.74 52.00 C 29.58 52.00 35.43 52.00 41.27 52.00 C 40.61 53.35 39.90 54.68 39.23 56.02 C 34.74 55.98 30.25 55.99 25.77 56.01 C 25.08 54.68 24.41 53.34 23.74 52.00 Z" />
</g>
<g id="#000000ff">
<path fill="#000000" opacity="1.00" d=" M 12.22 10.24 C 13.31 5.78 17.18 1.87 22.00 2.03 C 27.30 1.87 31.58 6.47 32.10 11.56 C 34.91 11.90 37.94 12.98 39.22 15.74 C 41.49 19.74 38.52 25.12 34.10 25.79 C 30.81 26.21 27.48 25.95 24.17 25.99 C 23.64 27.57 23.10 29.15 22.50 30.71 C 26.47 30.77 30.38 31.53 34.14 32.77 C 35.42 29.42 38.19 26.40 41.94 26.07 C 44.94 25.56 47.53 27.38 49.64 29.26 C 53.44 26.99 58.81 28.04 60.94 32.07 C 63.81 36.66 60.48 43.38 55.10 43.87 C 50.48 44.07 45.81 44.19 41.20 43.78 C 37.53 43.32 35.61 39.97 33.85 37.17 C 28.17 34.68 21.16 33.61 15.38 36.30 C 13.28 36.89 13.83 40.05 15.93 39.92 C 22.50 40.34 31.57 40.42 34.08 47.98 C 38.63 48.01 43.18 48.00 47.74 48.00 C 45.75 52.00 43.73 55.99 41.76 59.99 C 35.59 60.00 29.41 60.01 23.24 59.99 C 21.27 55.98 19.25 51.99 17.26 47.99 C 21.60 47.98 25.94 48.14 30.26 47.81 C 26.10 43.93 20.10 44.45 14.87 43.82 C 11.18 43.34 8.76 38.74 10.68 35.48 C 12.22 32.62 15.79 32.15 18.06 30.10 C 19.10 28.94 19.57 27.42 20.23 26.04 C 14.49 25.52 6.67 27.88 3.08 21.88 C -0.68 16.04 5.77 8.39 12.22 10.24 M 19.45 6.56 C 16.06 7.82 16.28 11.71 15.53 14.57 C 13.16 15.84 10.15 12.68 7.77 14.78 C 4.50 16.67 6.24 22.02 9.92 21.92 C 17.62 22.04 25.34 22.11 33.03 21.89 C 35.79 21.88 37.08 17.89 34.67 16.41 C 32.58 14.42 28.95 18.30 27.68 15.14 C 27.69 13.04 28.38 10.71 27.10 8.84 C 25.60 6.29 22.11 5.27 19.45 6.56 M 40.43 30.70 C 36.60 32.70 37.61 39.22 41.93 39.84 C 46.26 40.12 50.64 40.13 54.97 39.84 C 58.98 39.16 58.88 32.72 54.88 32.08 C 52.29 31.02 49.96 35.93 47.87 33.16 C 46.33 30.72 43.17 28.91 40.43 30.70 M 23.74 52.00 C 24.41 53.34 25.08 54.68 25.77 56.01 C 30.25 55.99 34.74 55.98 39.23 56.02 C 39.90 54.68 40.61 53.35 41.27 52.00 C 35.43 52.00 29.58 52.00 23.74 52.00 Z" />
</g>
</svg>
