<?xml version="1.0" encoding="UTF-8" ?>
<!DOCTYPE svg PUBLIC "-//W3C//DTD SVG 1.1//EN" "http://www.w3.org/Graphics/SVG/1.1/DTD/svg11.dtd">
<svg width="64pt" height="64pt" viewBox="0 0 64 64" version="1.1" xmlns="http://www.w3.org/2000/svg">
<g id="#ffffffff">
<path fill="#ffffff" opacity="1.00" d=" M 0.00 0.00 L 64.00 0.00 L 64.00 64.00 L 0.00 64.00 L 0.00 0.00 M 44.94 7.97 C 42.00 12.37 39.21 16.89 35.86 20.99 C 34.57 22.37 33.12 24.10 31.03 23.99 C 25.48 24.29 19.28 22.94 14.39 26.31 C 10.02 29.01 7.92 34.13 7.86 39.12 C 7.75 43.87 4.01 47.10 1.02 50.29 C 1.08 51.66 2.68 52.39 3.42 53.44 C 4.95 51.89 6.48 50.35 8.00 48.79 C 8.00 51.86 8.00 54.93 8.00 58.00 C 9.33 58.00 10.67 58.00 12.00 58.00 C 12.05 50.67 11.89 43.35 12.11 36.03 C 19.27 35.67 26.57 36.64 33.65 35.50 C 39.33 33.66 38.87 27.02 40.14 22.34 C 42.14 18.95 44.67 15.88 46.74 12.53 C 47.12 13.67 47.50 14.82 47.88 15.96 C 49.53 16.00 51.19 15.92 52.83 16.16 C 53.90 16.87 53.88 18.37 54.50 19.40 C 55.61 20.21 56.91 20.68 58.14 21.28 C 57.71 22.19 57.27 23.10 56.82 24.00 C 55.25 24.00 53.68 24.00 52.12 24.00 C 52.36 30.18 48.16 35.13 44.01 39.19 C 43.98 45.46 44.01 51.73 44.00 58.00 C 45.33 58.00 46.67 58.00 48.00 58.00 C 48.00 52.28 47.99 46.56 48.00 40.84 C 51.55 37.32 54.55 33.07 55.51 28.08 C 56.74 28.03 57.97 27.99 59.20 27.98 C 60.87 25.16 62.56 22.20 62.07 18.78 C 60.55 18.06 59.05 17.30 57.56 16.52 C 56.38 13.69 53.93 11.61 50.72 11.83 C 50.31 10.57 49.91 9.32 49.52 8.06 C 47.99 8.07 46.46 7.98 44.94 7.97 M 21.03 42.02 C 19.65 43.94 17.97 45.63 16.02 46.98 C 15.98 50.66 16.01 54.33 16.00 58.00 C 17.33 58.00 18.67 58.00 20.00 58.00 C 19.99 55.02 20.00 52.05 20.01 49.07 C 20.98 48.05 21.95 47.03 22.92 46.01 C 27.28 45.99 31.64 46.00 36.00 46.00 C 36.00 50.00 36.00 54.00 36.00 58.00 C 37.33 58.00 38.67 58.00 40.00 58.00 C 40.00 52.67 40.00 47.33 40.00 42.00 C 33.68 42.01 27.35 41.98 21.03 42.02 Z" />
</g>
<g id="#000000ff">
<path fill="#000000" opacity="1.00" d=" M 44.94 7.97 C 46.46 7.98 47.99 8.07 49.52 8.06 C 49.91 9.32 50.31 10.57 50.72 11.83 C 53.93 11.61 56.38 13.69 57.56 16.52 C 59.05 17.30 60.55 18.06 62.07 18.78 C 62.56 22.20 60.87 25.16 59.20 27.98 C 57.97 27.99 56.74 28.03 55.51 28.08 C 54.55 33.07 51.55 37.32 48.00 40.84 C 47.99 46.56 48.00 52.28 48.00 58.00 C 46.67 58.00 45.33 58.00 44.00 58.00 C 44.01 51.73 43.98 45.46 44.01 39.19 C 48.16 35.13 52.36 30.18 52.12 24.00 C 53.68 24.00 55.25 24.00 56.82 24.00 C 57.27 23.10 57.71 22.19 58.14 21.28 C 56.91 20.68 55.61 20.21 54.50 19.40 C 53.88 18.37 53.90 16.87 52.83 16.16 C 51.19 15.92 49.53 16.00 47.88 15.96 C 47.50 14.82 47.12 13.67 46.74 12.53 C 44.67 15.88 42.14 18.95 40.14 22.34 C 38.87 27.02 39.33 33.66 33.65 35.50 C 26.57 36.64 19.27 35.67 12.11 36.03 C 11.89 43.35 12.05 50.67 12.00 58.00 C 10.67 58.00 9.33 58.00 8.00 58.00 C 8.00 54.93 8.00 51.86 8.00 48.79 C 6.48 50.35 4.95 51.89 3.42 53.44 C 2.68 52.39 1.08 51.66 1.02 50.29 C 4.01 47.10 7.75 43.87 7.86 39.12 C 7.92 34.13 10.02 29.01 14.39 26.31 C 19.28 22.94 25.48 24.29 31.03 23.99 C 33.12 24.10 34.57 22.37 35.86 20.99 C 39.21 16.89 42.00 12.37 44.94 7.97 Z" />
<path fill="#000000" opacity="1.00" d=" M 21.03 42.02 C 27.35 41.98 33.68 42.01 40.00 42.00 C 40.00 47.33 40.00 52.67 40.00 58.00 C 38.67 58.00 37.33 58.00 36.00 58.00 C 36.00 54.00 36.00 50.00 36.00 46.00 C 31.64 46.00 27.28 45.99 22.92 46.01 C 21.95 47.03 20.98 48.05 20.01 49.07 C 20.00 52.05 19.99 55.02 20.00 58.00 C 18.67 58.00 17.33 58.00 16.00 58.00 C 16.01 54.33 15.98 50.66 16.02 46.98 C 17.97 45.63 19.65 43.94 21.03 42.02 Z" />
</g>
</svg>
