<?xml version="1.0" encoding="UTF-8" ?>
<!DOCTYPE svg PUBLIC "-//W3C//DTD SVG 1.1//EN" "http://www.w3.org/Graphics/SVG/1.1/DTD/svg11.dtd">
<svg width="64pt" height="64pt" viewBox="0 0 64 64" version="1.1" xmlns="http://www.w3.org/2000/svg">
<g id="#ffffffff">
<path fill="#ffffff" opacity="1.00" d=" M 0.00 0.00 L 64.00 0.00 L 64.00 64.00 L 0.00 64.00 L 0.00 0.00 M 21.44 8.57 C 19.11 9.57 18.30 12.10 17.75 14.36 C 13.85 15.55 10.29 18.79 10.14 23.08 C 10.20 26.26 7.89 28.87 8.01 32.04 C 7.85 35.53 10.00 38.43 12.19 40.91 C 11.17 45.57 14.14 50.04 18.47 51.64 C 19.46 53.13 20.28 55.00 22.09 55.64 C 25.69 57.10 30.04 53.97 29.95 50.12 C 30.04 38.05 30.04 25.97 29.95 13.89 C 30.08 9.72 25.14 6.65 21.44 8.57 M 35.33 10.27 C 33.71 12.13 34.05 14.74 33.98 17.01 C 34.07 28.06 33.90 39.11 34.05 50.15 C 33.96 54.01 38.36 57.13 41.96 55.62 C 43.74 54.96 44.54 53.11 45.52 51.64 C 49.84 50.03 52.83 45.58 51.81 40.91 C 53.74 38.66 55.74 36.19 55.93 33.09 C 56.56 29.52 53.85 26.59 53.86 23.09 C 53.70 18.79 50.15 15.55 46.24 14.35 C 45.69 12.55 45.31 10.48 43.69 9.30 C 41.26 7.23 37.24 7.75 35.33 10.27 Z" />
<path fill="#ffffff" opacity="1.00" d=" M 23.18 12.09 C 24.43 11.70 26.07 12.44 25.93 13.92 C 26.09 16.57 26.21 19.28 25.68 21.90 C 24.97 24.49 22.39 25.67 20.00 26.23 C 20.00 27.55 20.02 28.86 20.03 30.18 C 22.13 29.79 24.15 29.09 26.03 28.08 C 25.90 35.39 26.15 42.71 25.92 50.01 C 26.07 51.54 24.37 52.29 23.09 51.90 C 21.88 51.07 22.09 49.52 21.84 48.27 C 19.61 47.80 16.94 47.06 16.31 44.53 C 15.29 42.06 18.00 40.36 19.99 39.76 C 19.99 38.43 19.98 37.11 19.97 35.79 C 18.02 36.27 16.14 36.99 14.36 37.92 C 11.42 34.61 11.37 29.70 14.15 26.29 C 13.99 24.03 13.89 21.41 15.74 19.76 C 17.31 17.99 19.81 18.07 21.96 17.88 C 22.22 15.96 21.35 13.43 23.18 12.09 Z" />
<path fill="#ffffff" opacity="1.00" d=" M 39.21 12.08 C 42.64 11.34 41.97 15.77 42.04 17.89 C 44.19 18.07 46.69 17.99 48.26 19.77 C 50.10 21.42 50.00 24.03 49.85 26.28 C 52.62 29.71 52.58 34.63 49.62 37.93 C 47.85 36.98 45.97 36.28 44.03 35.79 C 44.02 37.11 44.01 38.43 44.01 39.75 C 46.00 40.37 48.66 42.04 47.74 44.52 C 47.03 47.02 44.43 47.82 42.17 48.27 C 42.79 50.71 39.92 53.67 38.18 50.84 C 37.73 43.27 38.17 35.67 37.97 28.09 C 39.85 29.09 41.87 29.79 43.97 30.18 C 43.98 28.86 44.00 27.54 44.00 26.23 C 40.95 25.73 37.90 23.49 38.04 20.10 C 38.30 17.52 36.95 13.96 39.21 12.08 Z" />
</g>
<g id="#000000ff">
<path fill="#000000" opacity="1.00" d=" M 21.44 8.57 C 25.14 6.65 30.08 9.72 29.95 13.89 C 30.04 25.97 30.04 38.05 29.95 50.12 C 30.04 53.97 25.69 57.10 22.09 55.64 C 20.28 55.00 19.46 53.13 18.47 51.64 C 14.14 50.04 11.17 45.57 12.19 40.91 C 10.00 38.43 7.85 35.53 8.01 32.04 C 7.89 28.87 10.20 26.26 10.14 23.08 C 10.29 18.79 13.85 15.55 17.75 14.36 C 18.30 12.10 19.11 9.57 21.44 8.57 M 23.18 12.09 C 21.35 13.43 22.22 15.96 21.96 17.88 C 19.81 18.07 17.31 17.99 15.74 19.76 C 13.89 21.41 13.99 24.03 14.15 26.29 C 11.37 29.70 11.42 34.61 14.36 37.92 C 16.14 36.99 18.02 36.27 19.97 35.79 C 19.98 37.11 19.99 38.43 19.99 39.76 C 18.00 40.36 15.29 42.06 16.31 44.53 C 16.94 47.06 19.61 47.80 21.84 48.27 C 22.09 49.52 21.88 51.07 23.09 51.90 C 24.37 52.29 26.07 51.54 25.92 50.01 C 26.15 42.71 25.90 35.39 26.03 28.08 C 24.15 29.09 22.13 29.79 20.03 30.18 C 20.02 28.86 20.00 27.55 20.00 26.23 C 22.39 25.67 24.97 24.49 25.68 21.90 C 26.21 19.28 26.09 16.57 25.93 13.92 C 26.07 12.44 24.43 11.70 23.18 12.09 Z" />
<path fill="#000000" opacity="1.00" d=" M 35.33 10.27 C 37.24 7.75 41.26 7.23 43.69 9.30 C 45.31 10.48 45.69 12.55 46.24 14.35 C 50.15 15.55 53.70 18.79 53.86 23.09 C 53.85 26.59 56.56 29.52 55.93 33.09 C 55.74 36.19 53.74 38.66 51.81 40.91 C 52.83 45.58 49.84 50.03 45.52 51.64 C 44.54 53.11 43.74 54.96 41.96 55.62 C 38.36 57.13 33.96 54.01 34.05 50.15 C 33.90 39.11 34.07 28.06 33.98 17.01 C 34.05 14.74 33.71 12.13 35.33 10.27 M 39.21 12.08 C 36.95 13.96 38.30 17.52 38.04 20.10 C 37.90 23.49 40.95 25.73 44.00 26.23 C 44.00 27.54 43.98 28.86 43.97 30.18 C 41.87 29.79 39.85 29.09 37.97 28.09 C 38.17 35.67 37.73 43.27 38.18 50.84 C 39.92 53.67 42.79 50.71 42.17 48.27 C 44.43 47.82 47.03 47.02 47.74 44.52 C 48.66 42.04 46.00 40.37 44.01 39.75 C 44.01 38.43 44.02 37.11 44.03 35.79 C 45.97 36.28 47.85 36.98 49.62 37.93 C 52.58 34.63 52.62 29.71 49.85 26.28 C 50.00 24.03 50.10 21.42 48.26 19.77 C 46.69 17.99 44.19 18.07 42.04 17.89 C 41.97 15.77 42.64 11.34 39.21 12.08 Z" />
</g>
</svg>
