<?xml version="1.0" encoding="UTF-8" ?>
<!DOCTYPE svg PUBLIC "-//W3C//DTD SVG 1.1//EN" "http://www.w3.org/Graphics/SVG/1.1/DTD/svg11.dtd">
<svg width="64pt" height="64pt" viewBox="0 0 64 64" version="1.1" xmlns="http://www.w3.org/2000/svg">
<g id="#ffffffff">
<path fill="#ffffff" opacity="1.00" d=" M 0.00 0.00 L 64.00 0.00 L 64.00 64.00 L 0.00 64.00 L 0.00 0.00 M 33.69 12.30 C 27.34 11.27 20.83 15.39 19.42 21.73 C 16.63 22.97 13.70 24.49 12.26 27.32 C 10.68 29.90 10.73 33.00 10.83 35.91 C 8.43 39.99 7.27 44.96 8.52 49.61 C 9.43 52.57 11.66 55.68 15.00 55.94 C 19.25 56.03 22.74 53.18 26.01 50.83 C 33.92 44.53 41.00 37.26 47.88 29.87 C 51.12 26.04 54.84 22.10 55.86 17.02 C 56.73 13.21 53.68 9.79 50.22 8.72 C 44.58 6.95 38.17 8.52 33.69 12.30 Z" />
<path fill="#ffffff" opacity="1.00" d=" M 37.87 13.79 C 41.78 12.05 46.74 10.96 50.61 13.35 C 53.05 14.74 51.59 17.75 50.59 19.62 C 46.70 26.18 40.93 31.31 35.67 36.73 C 29.78 42.09 24.32 48.39 16.91 51.67 C 14.60 52.94 12.78 50.44 12.30 48.46 C 11.49 45.03 12.44 41.50 13.81 38.35 C 15.69 39.06 17.54 39.87 19.26 40.93 C 20.13 39.92 21.00 38.91 21.89 37.92 C 19.67 36.28 17.19 35.08 14.54 34.32 C 14.60 31.06 15.88 27.51 19.07 26.10 C 22.25 24.12 25.71 26.44 28.49 28.02 C 29.38 27.07 30.27 26.12 31.16 25.17 C 28.85 23.30 26.13 22.12 23.32 21.24 C 24.79 18.80 26.96 16.55 29.92 16.13 C 33.64 15.32 36.77 17.93 39.42 20.13 C 40.35 19.20 41.29 18.26 42.24 17.34 C 40.79 16.15 39.34 14.96 37.87 13.79 Z" />
</g>
<g id="#000000ff">
<path fill="#000000" opacity="1.00" d=" M 33.69 12.30 C 38.17 8.52 44.58 6.95 50.22 8.72 C 53.68 9.79 56.73 13.21 55.86 17.02 C 54.84 22.10 51.12 26.04 47.88 29.87 C 41.00 37.26 33.92 44.53 26.01 50.83 C 22.74 53.18 19.25 56.03 15.00 55.94 C 11.66 55.68 9.43 52.57 8.52 49.61 C 7.27 44.96 8.43 39.99 10.83 35.91 C 10.73 33.00 10.68 29.90 12.26 27.32 C 13.70 24.49 16.63 22.97 19.42 21.73 C 20.83 15.39 27.34 11.27 33.69 12.30 M 37.87 13.79 C 39.34 14.96 40.79 16.15 42.24 17.34 C 41.29 18.26 40.35 19.20 39.42 20.13 C 36.77 17.93 33.64 15.32 29.92 16.13 C 26.96 16.55 24.79 18.80 23.32 21.24 C 26.13 22.12 28.85 23.30 31.16 25.17 C 30.27 26.12 29.38 27.07 28.49 28.02 C 25.71 26.44 22.25 24.12 19.07 26.10 C 15.88 27.51 14.60 31.06 14.54 34.32 C 17.19 35.08 19.67 36.28 21.89 37.92 C 21.00 38.91 20.13 39.92 19.26 40.93 C 17.54 39.87 15.69 39.06 13.81 38.35 C 12.44 41.50 11.49 45.03 12.30 48.46 C 12.78 50.44 14.60 52.94 16.91 51.67 C 24.32 48.39 29.78 42.09 35.67 36.73 C 40.93 31.31 46.70 26.18 50.59 19.62 C 51.59 17.75 53.05 14.74 50.61 13.35 C 46.74 10.96 41.78 12.05 37.87 13.79 Z" />
</g>
</svg>
