<?xml version="1.0" encoding="UTF-8" ?>
<!DOCTYPE svg PUBLIC "-//W3C//DTD SVG 1.1//EN" "http://www.w3.org/Graphics/SVG/1.1/DTD/svg11.dtd">
<svg width="64pt" height="64pt" viewBox="0 0 64 64" version="1.1" xmlns="http://www.w3.org/2000/svg">
<g id="#ffffffff">
<path fill="#ffffff" opacity="1.00" d=" M 0.00 0.00 L 64.00 0.00 L 64.00 64.00 L 0.00 64.00 L 0.00 0.00 M 9.75 17.83 C 4.76 23.23 5.43 31.48 8.03 37.84 C 10.86 44.97 17.69 49.98 25.15 51.32 C 32.77 52.71 41.17 52.04 47.80 47.75 C 55.59 42.69 59.46 32.42 57.36 23.45 C 54.40 13.28 40.85 9.28 32.00 14.12 C 24.87 10.26 15.31 12.04 9.75 17.83 Z" />
<path fill="#ffffff" opacity="1.00" d=" M 12.59 22.38 C 15.12 16.49 22.96 14.86 28.54 16.95 C 24.83 21.54 25.59 28.14 28.87 32.73 C 24.99 34.68 20.74 35.86 16.39 35.87 C 13.26 32.21 10.75 27.24 12.59 22.38 Z" />
<path fill="#ffffff" opacity="1.00" d=" M 35.46 16.94 C 41.07 14.88 48.98 16.50 51.44 22.49 C 53.24 27.43 50.63 32.51 47.21 36.00 C 43.03 35.62 38.93 34.60 35.18 32.72 C 38.41 28.11 39.15 21.54 35.46 16.94 Z" />
<path fill="#ffffff" opacity="1.00" d=" M 32.00 30.10 C 29.65 26.89 29.16 22.21 32.00 19.12 C 34.84 22.22 34.33 26.88 32.00 30.10 Z" />
<path fill="#ffffff" opacity="1.00" d=" M 21.44 39.43 C 25.18 38.70 28.84 37.53 32.06 35.45 C 35.22 37.46 38.78 38.63 42.42 39.41 C 35.85 42.75 28.03 42.69 21.44 39.43 Z" />
<path fill="#ffffff" opacity="1.00" d=" M 12.14 37.51 C 22.26 48.78 41.74 48.71 51.87 37.48 C 48.32 44.39 40.62 48.07 33.04 47.96 C 24.84 48.55 16.03 45.12 12.14 37.51 Z" />
</g>
<g id="#000000ff">
<path fill="#000000" opacity="1.00" d=" M 9.75 17.83 C 15.31 12.04 24.87 10.26 32.00 14.12 C 40.85 9.28 54.40 13.28 57.36 23.45 C 59.46 32.42 55.59 42.69 47.80 47.75 C 41.17 52.04 32.77 52.71 25.15 51.32 C 17.69 49.98 10.86 44.97 8.03 37.84 C 5.43 31.48 4.76 23.23 9.75 17.83 M 12.59 22.38 C 10.75 27.24 13.26 32.21 16.39 35.87 C 20.74 35.86 24.99 34.68 28.87 32.73 C 25.59 28.14 24.83 21.54 28.54 16.95 C 22.96 14.86 15.12 16.49 12.59 22.38 M 35.46 16.94 C 39.15 21.54 38.41 28.11 35.18 32.72 C 38.93 34.60 43.03 35.62 47.21 36.00 C 50.63 32.51 53.24 27.43 51.44 22.49 C 48.98 16.50 41.07 14.88 35.46 16.94 M 32.00 30.10 C 34.33 26.88 34.84 22.22 32.00 19.12 C 29.16 22.21 29.65 26.89 32.00 30.10 M 21.44 39.43 C 28.03 42.69 35.85 42.75 42.42 39.41 C 38.78 38.63 35.22 37.46 32.06 35.45 C 28.84 37.53 25.18 38.70 21.44 39.43 M 12.14 37.51 C 16.03 45.12 24.84 48.55 33.04 47.96 C 40.62 48.07 48.32 44.39 51.87 37.48 C 41.74 48.71 22.26 48.78 12.14 37.51 Z" />
</g>
</svg>
