<?xml version="1.0" encoding="UTF-8" ?>
<!DOCTYPE svg PUBLIC "-//W3C//DTD SVG 1.1//EN" "http://www.w3.org/Graphics/SVG/1.1/DTD/svg11.dtd">
<svg width="64pt" height="64pt" viewBox="0 0 64 64" version="1.1" xmlns="http://www.w3.org/2000/svg">
<g id="#ffffffff">
<path fill="#ffffff" opacity="1.00" d=" M 0.00 0.00 L 64.00 0.00 L 64.00 64.00 L 0.00 64.00 L 0.00 0.00 M 40.41 7.99 C 40.09 10.92 36.72 11.09 35.08 12.99 C 33.16 14.68 33.19 18.40 30.00 18.33 C 30.00 21.55 30.00 24.78 30.00 28.00 C 22.00 28.00 14.00 28.00 6.00 28.00 C 6.10 33.04 5.79 38.09 6.15 43.12 C 6.42 45.50 8.39 47.09 10.00 48.64 C 10.00 51.09 10.00 53.54 10.00 56.00 C 11.33 56.00 12.67 56.00 14.00 56.00 C 14.00 54.02 14.00 52.04 14.00 50.06 C 17.60 50.20 21.20 49.36 24.00 47.00 C 28.47 50.93 35.52 50.92 40.00 47.00 C 42.79 49.37 46.41 50.20 50.00 50.05 C 50.00 52.04 50.00 54.02 50.00 56.00 C 51.33 56.00 52.67 56.00 54.00 56.00 C 54.00 53.55 54.00 51.09 54.00 48.64 C 55.60 47.09 57.56 45.50 57.84 43.13 C 58.22 38.10 57.90 33.04 58.00 28.00 C 56.67 28.00 55.33 28.00 54.00 28.00 C 54.00 24.78 54.00 21.56 54.00 18.33 C 50.80 18.40 50.87 14.76 48.98 13.06 C 47.36 11.10 43.92 10.97 43.59 8.00 C 42.53 8.00 41.47 7.99 40.41 7.99 M 10.00 16.00 C 10.00 17.33 10.00 18.67 10.00 20.00 C 15.33 20.00 20.67 20.00 26.00 20.00 C 26.00 18.67 26.00 17.33 26.00 16.00 C 20.67 16.00 15.33 16.00 10.00 16.00 M 10.00 22.00 C 10.00 23.33 10.00 24.67 10.00 26.00 C 15.33 26.00 20.67 26.00 26.00 26.00 C 26.00 24.67 26.00 23.33 26.00 22.00 C 20.67 22.00 15.33 22.00 10.00 22.00 Z" />
<path fill="#ffffff" opacity="1.00" d=" M 36.52 17.87 C 37.93 16.12 39.51 13.86 42.06 13.98 C 44.57 13.92 46.08 16.16 47.50 17.88 C 43.84 18.06 40.17 18.06 36.52 17.87 Z" />
<path fill="#ffffff" opacity="1.00" d=" M 34.00 22.00 C 39.33 22.00 44.67 22.00 50.00 22.00 C 50.00 24.00 50.00 26.00 50.00 28.00 C 44.67 28.00 39.33 28.00 34.00 28.00 C 34.00 26.00 34.00 24.00 34.00 22.00 Z" />
<path fill="#ffffff" opacity="1.00" d=" M 10.00 32.00 C 24.67 32.00 39.33 32.00 54.00 32.00 C 53.92 35.65 54.23 39.31 53.82 42.94 C 51.30 47.50 43.47 46.82 41.52 42.00 C 40.51 41.99 39.49 41.99 38.48 41.99 C 36.26 47.32 27.74 47.32 25.52 41.99 C 24.51 41.99 23.49 41.99 22.48 41.99 C 20.54 46.83 12.63 47.52 10.17 42.89 C 9.78 39.28 10.08 35.63 10.00 32.00 Z" />
</g>
<g id="#000000ff">
<path fill="#000000" opacity="1.00" d=" M 40.41 7.99 C 41.47 7.99 42.53 8.00 43.59 8.00 C 43.92 10.97 47.36 11.10 48.98 13.06 C 50.87 14.76 50.80 18.40 54.00 18.33 C 54.00 21.56 54.00 24.78 54.00 28.00 C 55.33 28.00 56.67 28.00 58.00 28.00 C 57.90 33.04 58.22 38.10 57.84 43.13 C 57.56 45.50 55.60 47.09 54.00 48.64 C 54.00 51.09 54.00 53.55 54.00 56.00 C 52.67 56.00 51.33 56.00 50.00 56.00 C 50.00 54.02 50.00 52.04 50.00 50.05 C 46.41 50.20 42.79 49.37 40.00 47.00 C 35.52 50.92 28.47 50.93 24.00 47.00 C 21.20 49.36 17.60 50.20 14.00 50.06 C 14.00 52.04 14.00 54.02 14.00 56.00 C 12.67 56.00 11.33 56.00 10.00 56.00 C 10.00 53.54 10.00 51.09 10.00 48.64 C 8.39 47.09 6.42 45.50 6.15 43.12 C 5.79 38.09 6.10 33.04 6.00 28.00 C 14.00 28.00 22.00 28.00 30.00 28.00 C 30.00 24.78 30.00 21.55 30.00 18.33 C 33.19 18.40 33.16 14.68 35.08 12.99 C 36.72 11.09 40.09 10.92 40.41 7.99 M 36.52 17.87 C 40.17 18.06 43.84 18.06 47.50 17.88 C 46.08 16.16 44.57 13.92 42.06 13.98 C 39.51 13.86 37.93 16.12 36.52 17.87 M 34.00 22.00 C 34.00 24.00 34.00 26.00 34.00 28.00 C 39.33 28.00 44.67 28.00 50.00 28.00 C 50.00 26.00 50.00 24.00 50.00 22.00 C 44.67 22.00 39.33 22.00 34.00 22.00 M 10.00 32.00 C 10.08 35.63 9.78 39.28 10.17 42.89 C 12.63 47.52 20.54 46.83 22.48 41.99 C 23.49 41.99 24.51 41.99 25.52 41.99 C 27.74 47.32 36.26 47.32 38.48 41.99 C 39.49 41.99 40.51 41.99 41.52 42.00 C 43.47 46.82 51.30 47.50 53.82 42.94 C 54.23 39.31 53.92 35.65 54.00 32.00 C 39.33 32.00 24.67 32.00 10.00 32.00 Z" />
<path fill="#000000" opacity="1.00" d=" M 10.00 16.00 C 15.33 16.00 20.67 16.00 26.00 16.00 C 26.00 17.33 26.00 18.67 26.00 20.00 C 20.67 20.00 15.33 20.00 10.00 20.00 C 10.00 18.67 10.00 17.33 10.00 16.00 Z" />
<path fill="#000000" opacity="1.00" d=" M 10.00 22.00 C 15.33 22.00 20.67 22.00 26.00 22.00 C 26.00 23.33 26.00 24.67 26.00 26.00 C 20.67 26.00 15.33 26.00 10.00 26.00 C 10.00 24.67 10.00 23.33 10.00 22.00 Z" />
</g>
</svg>
