<?xml version="1.0" encoding="UTF-8" ?>
<!DOCTYPE svg PUBLIC "-//W3C//DTD SVG 1.1//EN" "http://www.w3.org/Graphics/SVG/1.1/DTD/svg11.dtd">
<svg width="64pt" height="64pt" viewBox="0 0 64 64" version="1.1" xmlns="http://www.w3.org/2000/svg">
<g id="#ffffffff">
<path fill="#ffffff" opacity="1.00" d=" M 0.00 0.00 L 64.00 0.00 L 64.00 64.00 L 0.00 64.00 L 0.00 0.00 M 7.83 19.51 C 7.97 24.43 11.14 28.92 16.08 29.97 C 16.06 30.64 16.03 31.99 16.01 32.66 C 19.46 36.66 22.06 41.55 22.11 46.94 C 22.87 47.61 23.64 48.27 24.40 48.93 C 23.79 51.71 23.78 54.91 25.83 57.14 C 28.82 60.96 35.23 60.90 38.18 57.05 C 40.11 54.84 40.11 51.75 39.54 49.03 C 40.32 48.33 41.10 47.63 41.89 46.94 C 41.98 41.54 44.72 36.74 47.99 32.63 C 47.97 31.97 47.94 30.63 47.92 29.97 C 52.83 28.85 55.93 24.34 56.18 19.46 C 60.95 13.84 55.87 6.21 50.15 3.76 C 52.42 6.34 54.57 9.48 54.20 13.10 C 53.98 15.05 51.67 15.76 50.02 15.96 C 46.27 15.85 42.28 15.14 39.35 12.63 C 36.15 10.00 31.57 9.28 27.71 10.76 C 24.71 11.81 22.70 14.78 19.44 15.26 C 16.36 15.94 12.15 16.90 10.00 13.90 C 8.98 10.07 11.44 6.49 13.86 3.76 C 8.10 6.21 3.04 13.88 7.83 19.51 Z" />
<path fill="#ffffff" opacity="1.00" d=" M 25.64 16.61 C 28.76 13.33 34.47 13.10 37.74 16.28 C 41.73 20.24 43.39 25.95 43.96 31.42 C 40.77 35.29 38.61 39.98 38.12 45.00 C 37.02 44.44 35.76 43.42 34.62 44.54 C 34.12 45.59 33.81 46.71 33.68 47.90 C 32.56 47.90 31.45 47.90 30.33 47.90 C 29.94 46.42 30.06 44.03 27.96 43.97 C 27.44 44.23 26.39 44.75 25.87 45.01 C 25.41 39.98 23.34 35.24 20.07 31.42 C 20.40 26.10 21.90 20.56 25.64 16.61 M 24.40 33.54 C 26.40 34.68 28.36 32.91 30.09 32.07 C 27.39 30.68 24.68 29.31 21.92 28.03 C 22.10 30.05 22.23 32.60 24.40 33.54 M 33.89 32.10 C 35.64 32.89 37.58 34.68 39.59 33.55 C 41.76 32.60 41.92 30.06 42.04 28.02 C 39.29 29.33 36.58 30.69 33.89 32.10 Z" />
<path fill="#ffffff" opacity="1.00" d=" M 12.24 22.06 C 14.08 22.08 15.93 22.15 17.78 22.22 C 17.37 23.53 16.96 24.84 16.55 26.15 C 14.56 25.44 13.02 24.04 12.24 22.06 Z" />
<path fill="#ffffff" opacity="1.00" d=" M 45.97 22.22 C 47.87 22.15 49.77 22.09 51.67 22.07 C 50.79 23.97 49.32 25.44 47.33 26.15 C 46.87 24.84 46.42 23.53 45.97 22.22 Z" />
<path fill="#ffffff" opacity="1.00" d=" M 27.78 51.27 C 30.56 52.04 33.44 52.04 36.22 51.27 C 35.92 53.54 34.62 56.10 31.97 56.01 C 29.35 56.06 28.06 53.52 27.78 51.27 Z" />
</g>
<g id="#000000ff">
<path fill="#000000" opacity="1.00" d=" M 7.83 19.51 C 3.04 13.88 8.10 6.21 13.86 3.76 C 11.44 6.49 8.98 10.07 10.00 13.90 C 12.15 16.90 16.36 15.94 19.44 15.26 C 22.70 14.78 24.71 11.81 27.71 10.76 C 31.57 9.28 36.15 10.00 39.35 12.63 C 42.28 15.14 46.27 15.85 50.02 15.96 C 51.67 15.76 53.98 15.05 54.20 13.10 C 54.57 9.48 52.42 6.34 50.15 3.76 C 55.87 6.21 60.95 13.84 56.18 19.46 C 55.93 24.34 52.83 28.85 47.92 29.97 C 47.94 30.63 47.97 31.97 47.99 32.63 C 44.72 36.74 41.98 41.54 41.89 46.94 C 41.10 47.63 40.32 48.33 39.54 49.03 C 40.11 51.75 40.11 54.84 38.18 57.05 C 35.23 60.90 28.82 60.96 25.83 57.14 C 23.78 54.91 23.79 51.71 24.40 48.93 C 23.64 48.27 22.87 47.61 22.11 46.94 C 22.06 41.55 19.46 36.66 16.01 32.66 C 16.03 31.99 16.06 30.64 16.08 29.97 C 11.14 28.92 7.97 24.43 7.83 19.51 M 25.64 16.61 C 21.90 20.56 20.40 26.10 20.07 31.42 C 23.34 35.24 25.41 39.98 25.87 45.01 C 26.39 44.75 27.44 44.23 27.96 43.97 C 30.06 44.03 29.94 46.42 30.33 47.90 C 31.45 47.90 32.56 47.90 33.68 47.90 C 33.81 46.71 34.12 45.59 34.62 44.54 C 35.76 43.42 37.02 44.44 38.12 45.00 C 38.61 39.98 40.77 35.29 43.96 31.42 C 43.39 25.95 41.73 20.24 37.74 16.28 C 34.47 13.10 28.76 13.33 25.64 16.61 M 12.24 22.06 C 13.02 24.04 14.56 25.44 16.55 26.15 C 16.96 24.84 17.37 23.53 17.78 22.22 C 15.93 22.15 14.08 22.08 12.24 22.06 M 45.97 22.22 C 46.42 23.53 46.87 24.84 47.33 26.15 C 49.32 25.44 50.79 23.97 51.67 22.07 C 49.77 22.09 47.87 22.15 45.97 22.22 M 27.78 51.27 C 28.06 53.52 29.35 56.06 31.97 56.01 C 34.62 56.10 35.92 53.54 36.22 51.27 C 33.44 52.04 30.56 52.04 27.78 51.27 Z" />
<path fill="#000000" opacity="1.00" d=" M 24.40 33.54 C 22.23 32.60 22.10 30.05 21.92 28.03 C 24.68 29.31 27.39 30.68 30.09 32.07 C 28.36 32.91 26.40 34.68 24.40 33.54 Z" />
<path fill="#000000" opacity="1.00" d=" M 33.89 32.10 C 36.58 30.69 39.29 29.33 42.04 28.02 C 41.92 30.06 41.76 32.60 39.59 33.55 C 37.58 34.68 35.64 32.89 33.89 32.10 Z" />
</g>
</svg>
