<?xml version="1.0" encoding="UTF-8" ?>
<!DOCTYPE svg PUBLIC "-//W3C//DTD SVG 1.1//EN" "http://www.w3.org/Graphics/SVG/1.1/DTD/svg11.dtd">
<svg width="64pt" height="64pt" viewBox="0 0 64 64" version="1.1" xmlns="http://www.w3.org/2000/svg">
<g id="#ffffffff">
<path fill="#ffffff" opacity="1.00" d=" M 0.00 0.00 L 64.00 0.00 L 64.00 64.00 L 0.00 64.00 L 0.00 0.00 M 10.84 9.98 C 8.52 14.26 5.99 18.61 5.60 23.58 C 7.07 23.83 8.55 24.07 10.03 24.30 C 9.97 34.20 10.00 44.10 10.01 54.01 C 11.34 54.01 12.66 54.01 13.99 54.01 C 14.02 44.01 13.99 34.01 14.01 24.01 C 26.00 23.99 38.00 24.00 49.99 24.01 C 50.01 34.01 49.98 44.01 50.01 54.01 C 51.34 54.01 52.66 54.01 53.99 54.00 C 54.00 44.10 54.03 34.20 53.97 24.30 C 55.45 24.07 56.92 23.83 58.40 23.59 C 58.02 18.61 55.49 14.26 53.17 9.98 C 39.06 10.02 24.95 10.01 10.84 9.98 M 17.99 44.00 C 17.98 45.24 17.97 46.48 17.95 47.72 C 19.29 47.89 20.62 48.06 21.95 48.24 C 21.99 50.16 22.04 52.08 22.10 54.00 C 23.37 54.01 24.64 54.01 25.91 54.02 C 25.97 52.01 26.03 50.01 26.09 48.00 C 30.03 48.00 33.97 48.00 37.91 48.00 C 37.97 50.01 38.03 52.01 38.09 54.02 C 39.36 54.01 40.63 54.01 41.90 54.00 C 41.96 52.08 42.01 50.16 42.05 48.24 C 43.38 48.06 44.71 47.89 46.05 47.71 C 46.03 46.48 46.02 45.24 46.01 44.00 C 36.67 44.00 27.33 44.00 17.99 44.00 Z" />
<path fill="#ffffff" opacity="1.00" d=" M 13.22 14.02 C 25.75 13.98 38.27 13.98 50.80 14.03 C 51.79 16.00 52.78 17.98 53.79 19.94 C 39.27 20.04 24.75 20.03 10.22 19.95 C 11.23 17.98 12.23 16.01 13.22 14.02 Z" />
</g>
<g id="#000000ff">
<path fill="#000000" opacity="1.00" d=" M 10.84 9.98 C 24.95 10.01 39.06 10.02 53.17 9.98 C 55.49 14.26 58.02 18.61 58.40 23.59 C 56.92 23.83 55.45 24.07 53.97 24.30 C 54.03 34.20 54.00 44.10 53.99 54.00 C 52.66 54.01 51.34 54.01 50.01 54.01 C 49.98 44.01 50.01 34.01 49.99 24.01 C 38.00 24.00 26.00 23.99 14.01 24.01 C 13.99 34.01 14.02 44.01 13.99 54.01 C 12.66 54.01 11.34 54.01 10.01 54.01 C 10.00 44.10 9.97 34.20 10.03 24.30 C 8.55 24.07 7.07 23.83 5.60 23.58 C 5.99 18.61 8.52 14.26 10.84 9.98 M 13.22 14.02 C 12.23 16.01 11.23 17.98 10.22 19.95 C 24.75 20.03 39.27 20.04 53.79 19.94 C 52.78 17.98 51.79 16.00 50.80 14.03 C 38.27 13.98 25.75 13.98 13.22 14.02 Z" />
<path fill="#000000" opacity="1.00" d=" M 17.99 44.00 C 27.33 44.00 36.67 44.00 46.01 44.00 C 46.02 45.24 46.03 46.48 46.05 47.71 C 44.71 47.89 43.38 48.06 42.05 48.24 C 42.01 50.16 41.96 52.08 41.90 54.00 C 40.63 54.01 39.36 54.01 38.09 54.02 C 38.03 52.01 37.97 50.01 37.91 48.00 C 33.97 48.00 30.03 48.00 26.09 48.00 C 26.03 50.01 25.97 52.01 25.91 54.02 C 24.64 54.01 23.37 54.01 22.10 54.00 C 22.04 52.08 21.99 50.16 21.95 48.24 C 20.62 48.06 19.29 47.89 17.95 47.72 C 17.97 46.48 17.98 45.24 17.99 44.00 Z" />
</g>
</svg>
