<?xml version="1.0" encoding="UTF-8" ?>
<!DOCTYPE svg PUBLIC "-//W3C//DTD SVG 1.1//EN" "http://www.w3.org/Graphics/SVG/1.1/DTD/svg11.dtd">
<svg width="64pt" height="64pt" viewBox="0 0 64 64" version="1.1" xmlns="http://www.w3.org/2000/svg">
<g id="#ffffffff">
<path fill="#ffffff" opacity="1.00" d=" M 0.00 0.00 L 64.00 0.00 L 64.00 64.00 L 0.00 64.00 L 0.00 0.00 M 38.00 4.00 C 38.00 6.73 37.98 9.45 38.02 12.18 C 32.18 6.28 23.42 8.36 16.00 8.00 C 16.00 9.33 16.00 10.67 16.00 12.00 C 21.04 12.25 26.21 11.42 31.16 12.54 C 36.52 14.15 38.71 20.11 38.04 25.26 C 40.70 26.57 43.35 27.89 46.00 29.24 C 46.00 29.93 46.00 31.31 46.00 32.00 C 43.33 31.99 40.67 32.01 38.00 32.00 C 37.74 36.15 38.61 40.48 37.43 44.52 C 34.46 50.16 27.07 47.32 22.00 48.00 C 22.00 52.00 22.00 56.00 22.00 60.00 C 23.33 60.00 24.67 60.00 26.00 60.00 C 25.99 57.33 26.00 54.66 26.00 52.00 C 30.07 52.00 34.48 52.53 38.02 50.05 C 37.98 53.36 38.01 56.68 38.00 60.00 C 39.33 60.00 40.67 60.00 42.00 60.00 C 42.00 52.00 42.00 44.00 42.00 36.00 C 43.33 36.00 44.67 36.00 46.00 36.00 C 46.00 44.00 46.00 52.00 46.00 60.00 C 47.33 60.00 48.67 60.00 50.00 60.00 C 50.00 41.33 50.00 22.67 50.00 4.00 C 48.67 4.00 47.33 4.00 46.00 4.00 C 46.00 10.91 46.00 17.83 46.00 24.75 C 44.67 24.08 43.34 23.41 42.00 22.76 C 42.00 16.50 42.00 10.25 42.00 4.00 C 40.67 4.00 39.33 4.00 38.00 4.00 M 31.27 22.14 C 28.74 22.95 30.48 27.06 32.78 25.80 C 35.21 24.98 33.55 21.06 31.27 22.14 Z" />
</g>
<g id="#000000ff">
<path fill="#000000" opacity="1.00" d=" M 38.00 4.00 C 39.33 4.00 40.67 4.00 42.00 4.00 C 42.00 10.25 42.00 16.50 42.00 22.76 C 43.34 23.41 44.67 24.08 46.00 24.75 C 46.00 17.83 46.00 10.91 46.00 4.00 C 47.33 4.00 48.67 4.00 50.00 4.00 C 50.00 22.67 50.00 41.33 50.00 60.00 C 48.67 60.00 47.33 60.00 46.00 60.00 C 46.00 52.00 46.00 44.00 46.00 36.00 C 44.67 36.00 43.33 36.00 42.00 36.00 C 42.00 44.00 42.00 52.00 42.00 60.00 C 40.67 60.00 39.33 60.00 38.00 60.00 C 38.01 56.68 37.98 53.36 38.02 50.05 C 34.48 52.53 30.07 52.00 26.00 52.00 C 26.00 54.66 25.99 57.33 26.00 60.00 C 24.67 60.00 23.33 60.00 22.00 60.00 C 22.00 56.00 22.00 52.00 22.00 48.00 C 27.07 47.32 34.46 50.16 37.43 44.52 C 38.61 40.48 37.74 36.15 38.00 32.00 C 40.67 32.01 43.33 31.99 46.00 32.00 C 46.00 31.31 46.00 29.93 46.00 29.24 C 43.35 27.89 40.70 26.57 38.04 25.26 C 38.71 20.11 36.52 14.15 31.16 12.54 C 26.21 11.42 21.04 12.25 16.00 12.00 C 16.00 10.67 16.00 9.33 16.00 8.00 C 23.42 8.36 32.18 6.28 38.02 12.18 C 37.98 9.45 38.00 6.73 38.00 4.00 Z" />
<path fill="#000000" opacity="1.00" d=" M 31.27 22.14 C 33.55 21.06 35.21 24.98 32.78 25.80 C 30.48 27.06 28.74 22.95 31.27 22.14 Z" />
</g>
</svg>
