<?xml version="1.0" encoding="UTF-8" ?>
<!DOCTYPE svg PUBLIC "-//W3C//DTD SVG 1.1//EN" "http://www.w3.org/Graphics/SVG/1.1/DTD/svg11.dtd">
<svg width="64pt" height="64pt" viewBox="0 0 64 64" version="1.1" xmlns="http://www.w3.org/2000/svg">
<g id="#ffffffff">
<path fill="#ffffff" opacity="1.00" d=" M 0.00 0.00 L 64.00 0.00 L 64.00 64.00 L 0.00 64.00 L 0.00 0.00 M 26.45 6.61 C 17.55 8.48 9.96 15.39 7.26 24.06 C 4.41 32.66 6.54 42.67 12.67 49.34 C 18.88 56.40 29.09 59.58 38.21 57.23 C 47.66 54.99 55.41 47.02 57.39 37.52 C 59.42 28.59 56.23 18.75 49.37 12.69 C 43.30 7.12 34.48 4.81 26.45 6.61 Z" />
<path fill="#ffffff" opacity="1.00" d=" M 26.48 10.70 C 33.86 8.75 42.18 10.96 47.53 16.42 C 52.41 21.20 54.77 28.36 53.76 35.12 C 52.81 42.23 48.10 48.68 41.63 51.77 C 34.51 55.31 25.50 54.55 19.11 49.81 C 12.57 45.20 9.01 36.81 10.23 28.90 C 11.33 20.29 18.05 12.77 26.48 10.70 M 21.56 24.44 C 24.08 26.96 26.61 29.47 29.12 32.00 C 26.61 34.53 24.08 37.04 21.56 39.56 C 22.53 40.52 23.50 41.47 24.47 42.43 C 26.97 39.91 29.47 37.37 32.02 34.90 C 34.53 37.41 37.05 39.92 39.55 42.43 C 40.51 41.47 41.47 40.51 42.44 39.56 C 39.92 37.05 37.41 34.53 34.91 32.00 C 37.41 29.47 39.91 26.95 42.44 24.46 C 41.48 23.49 40.51 22.53 39.56 21.55 C 37.05 24.08 34.54 26.59 32.02 29.10 C 29.47 26.62 26.96 24.10 24.47 21.56 C 23.50 22.52 22.53 23.48 21.56 24.44 Z" />
</g>
<g id="#000000ff">
<path fill="#000000" opacity="1.00" d=" M 26.45 6.61 C 34.48 4.81 43.30 7.12 49.37 12.69 C 56.23 18.75 59.42 28.59 57.39 37.52 C 55.41 47.02 47.66 54.99 38.21 57.23 C 29.09 59.58 18.88 56.40 12.67 49.34 C 6.54 42.67 4.41 32.66 7.26 24.06 C 9.96 15.39 17.55 8.48 26.45 6.61 M 26.48 10.70 C 18.05 12.77 11.33 20.29 10.23 28.90 C 9.01 36.81 12.57 45.20 19.11 49.81 C 25.50 54.55 34.51 55.31 41.63 51.77 C 48.10 48.68 52.81 42.23 53.76 35.12 C 54.77 28.36 52.41 21.20 47.53 16.42 C 42.18 10.96 33.86 8.75 26.48 10.70 Z" />
<path fill="#000000" opacity="1.00" d=" M 21.56 24.44 C 22.53 23.48 23.50 22.52 24.47 21.56 C 26.96 24.10 29.47 26.62 32.02 29.10 C 34.54 26.59 37.05 24.08 39.56 21.55 C 40.51 22.53 41.48 23.49 42.44 24.46 C 39.91 26.95 37.41 29.47 34.91 32.00 C 37.41 34.53 39.92 37.05 42.44 39.56 C 41.47 40.51 40.51 41.47 39.55 42.43 C 37.05 39.92 34.53 37.41 32.02 34.90 C 29.47 37.37 26.97 39.91 24.47 42.43 C 23.50 41.47 22.53 40.52 21.56 39.56 C 24.08 37.04 26.61 34.53 29.12 32.00 C 26.61 29.47 24.08 26.96 21.56 24.44 Z" />
</g>
</svg>
