<?xml version="1.0" encoding="UTF-8" ?>
<!DOCTYPE svg PUBLIC "-//W3C//DTD SVG 1.1//EN" "http://www.w3.org/Graphics/SVG/1.1/DTD/svg11.dtd">
<svg width="64pt" height="64pt" viewBox="0 0 64 64" version="1.1" xmlns="http://www.w3.org/2000/svg">
<g id="#ffffffff">
<path fill="#ffffff" opacity="1.00" d=" M 0.00 0.00 L 64.00 0.00 L 64.00 64.00 L 0.00 64.00 L 0.00 0.00 M 19.22 8.95 C 20.61 11.67 21.96 14.42 23.35 17.14 C 16.32 21.55 9.71 28.02 8.29 36.55 C 7.41 42.21 8.40 49.12 13.54 52.52 C 19.28 56.13 26.40 55.83 32.93 55.98 C 39.05 55.76 45.79 55.85 51.00 52.13 C 55.85 48.43 56.62 41.56 55.56 35.95 C 54.53 30.25 50.83 25.57 46.84 21.58 C 48.85 22.68 50.80 23.89 52.61 25.30 C 53.59 24.38 54.57 23.46 55.55 22.54 C 51.50 19.02 46.44 16.89 41.14 16.13 C 42.40 13.76 43.54 11.33 44.78 8.95 C 36.75 5.12 27.25 5.12 19.22 8.95 Z" />
<path fill="#ffffff" opacity="1.00" d=" M 24.80 11.07 C 29.50 9.70 34.50 9.70 39.20 11.07 C 38.39 12.71 37.57 14.35 36.77 16.00 C 33.59 16.00 30.42 16.00 27.24 16.00 C 26.43 14.35 25.61 12.71 24.80 11.07 Z" />
<path fill="#ffffff" opacity="1.00" d=" M 26.32 20.25 C 30.06 19.82 33.99 19.78 37.72 20.27 C 45.20 24.43 52.46 31.85 51.95 41.04 C 52.07 44.62 50.50 48.53 46.96 49.90 C 40.30 52.45 32.95 52.05 25.95 51.76 C 21.30 51.29 15.33 50.82 13.00 46.05 C 10.96 40.59 12.13 34.19 15.60 29.55 C 18.45 25.75 22.11 22.46 26.32 20.25 M 26.00 26.00 C 26.00 30.66 26.00 35.32 26.00 39.99 C 25.50 39.99 24.50 40.01 24.00 40.01 C 24.00 41.34 24.00 42.66 24.00 43.99 C 24.50 43.99 25.50 44.01 26.00 44.01 C 26.00 45.34 26.00 46.67 26.00 48.00 C 27.33 48.00 28.67 48.00 30.00 48.00 C 30.00 46.67 30.00 45.33 30.00 44.00 C 31.33 44.00 32.67 44.00 34.00 44.00 C 34.00 42.67 34.00 41.33 34.00 40.00 C 32.67 40.00 31.33 40.00 30.00 40.00 C 30.00 39.50 30.00 38.50 30.00 38.00 C 32.67 38.01 35.33 37.99 38.00 38.00 C 38.00 36.67 38.00 35.33 38.00 34.00 C 35.33 34.01 32.67 33.99 30.00 34.00 C 30.00 32.67 30.00 31.33 30.00 30.00 C 33.33 30.01 36.67 29.99 40.00 30.00 C 40.00 28.67 40.00 27.33 40.00 26.00 C 35.33 26.00 30.67 26.00 26.00 26.00 Z" />
</g>
<g id="#000000ff">
<path fill="#000000" opacity="1.00" d=" M 19.22 8.95 C 27.25 5.12 36.75 5.12 44.78 8.95 C 43.54 11.33 42.40 13.76 41.14 16.13 C 46.44 16.89 51.50 19.02 55.55 22.54 C 54.57 23.46 53.59 24.38 52.61 25.30 C 50.80 23.89 48.85 22.68 46.84 21.58 C 50.83 25.57 54.53 30.25 55.56 35.95 C 56.62 41.56 55.85 48.43 51.00 52.13 C 45.79 55.85 39.05 55.76 32.93 55.98 C 26.40 55.83 19.28 56.13 13.54 52.52 C 8.40 49.12 7.41 42.21 8.29 36.55 C 9.71 28.02 16.32 21.55 23.35 17.14 C 21.96 14.42 20.61 11.67 19.22 8.95 M 24.80 11.07 C 25.61 12.71 26.43 14.35 27.24 16.00 C 30.42 16.00 33.59 16.00 36.77 16.00 C 37.57 14.35 38.39 12.71 39.20 11.07 C 34.50 9.70 29.50 9.70 24.80 11.07 M 26.32 20.25 C 22.11 22.46 18.45 25.75 15.60 29.55 C 12.13 34.19 10.96 40.59 13.00 46.05 C 15.33 50.82 21.30 51.29 25.95 51.76 C 32.95 52.05 40.30 52.45 46.96 49.90 C 50.50 48.53 52.07 44.62 51.95 41.04 C 52.46 31.85 45.20 24.43 37.72 20.27 C 33.99 19.78 30.06 19.82 26.32 20.25 Z" />
<path fill="#000000" opacity="1.00" d=" M 26.00 26.00 C 30.67 26.00 35.33 26.00 40.00 26.00 C 40.00 27.33 40.00 28.67 40.00 30.00 C 36.67 29.99 33.33 30.01 30.00 30.00 C 30.00 31.33 30.00 32.67 30.00 34.00 C 32.67 33.99 35.33 34.01 38.00 34.00 C 38.00 35.33 38.00 36.67 38.00 38.00 C 35.33 37.99 32.67 38.01 30.00 38.00 C 30.00 38.50 30.00 39.50 30.00 40.00 C 31.33 40.00 32.67 40.00 34.00 40.00 C 34.00 41.33 34.00 42.67 34.00 44.00 C 32.67 44.00 31.33 44.00 30.00 44.00 C 30.00 45.33 30.00 46.67 30.00 48.00 C 28.67 48.00 27.33 48.00 26.00 48.00 C 26.00 46.67 26.00 45.34 26.00 44.01 C 25.50 44.01 24.50 43.99 24.00 43.99 C 24.00 42.66 24.00 41.34 24.00 40.01 C 24.50 40.01 25.50 39.99 26.00 39.99 C 26.00 35.32 26.00 30.66 26.00 26.00 Z" />
</g>
</svg>
