<?xml version="1.0" encoding="UTF-8" ?>
<!DOCTYPE svg PUBLIC "-//W3C//DTD SVG 1.1//EN" "http://www.w3.org/Graphics/SVG/1.1/DTD/svg11.dtd">
<svg width="64pt" height="64pt" viewBox="0 0 64 64" version="1.1" xmlns="http://www.w3.org/2000/svg">
<g id="#ffffffff">
<path fill="#ffffff" opacity="1.00" d=" M 0.00 0.00 L 64.00 0.00 L 64.00 64.00 L 0.00 64.00 L 0.00 0.00 M 43.59 9.42 C 44.45 10.78 45.83 12.07 45.68 13.82 C 45.51 15.85 43.80 17.20 42.55 18.62 C 38.85 15.61 34.37 13.58 29.58 13.24 C 23.13 24.41 16.47 35.53 11.16 47.30 C 10.43 49.32 8.72 52.41 11.25 53.87 C 13.92 54.58 16.50 52.75 18.94 51.86 C 29.86 46.61 40.34 40.51 50.79 34.39 C 50.36 29.62 48.39 25.12 45.35 21.44 C 48.34 17.56 53.75 17.76 57.54 20.28 C 58.35 19.24 59.16 18.21 59.97 17.17 C 57.67 15.75 55.14 14.77 52.47 14.35 C 53.83 13.05 55.17 11.72 56.50 10.39 C 55.53 9.43 54.57 8.47 53.61 7.50 C 52.25 8.86 50.90 10.22 49.58 11.61 C 48.74 9.55 47.47 7.74 45.85 6.23 C 45.10 7.29 44.34 8.36 43.59 9.42 Z" />
<path fill="#ffffff" opacity="1.00" d=" M 27.54 24.68 C 28.92 22.28 30.31 19.89 31.71 17.51 C 38.91 19.04 44.92 25.12 46.49 32.30 C 45.35 32.98 44.20 33.66 43.06 34.34 C 42.19 32.86 41.32 31.39 40.43 29.92 C 39.36 30.73 38.30 31.55 37.22 32.36 C 38.01 33.67 38.80 34.99 39.58 36.32 C 36.28 38.22 32.91 40.02 29.59 41.91 C 28.89 40.60 28.19 39.29 27.49 37.97 C 26.41 38.74 25.32 39.51 24.23 40.28 C 24.82 41.43 25.44 42.57 26.04 43.72 C 22.29 45.67 18.61 47.77 14.68 49.32 C 17.74 42.03 21.70 35.16 25.57 28.27 C 26.15 28.90 27.32 30.17 27.90 30.80 C 28.95 29.98 29.99 29.15 31.04 28.33 C 29.88 27.11 28.72 25.89 27.54 24.68 Z" />
</g>
<g id="#000000ff">
<path fill="#000000" opacity="1.00" d=" M 43.59 9.42 C 44.34 8.36 45.10 7.29 45.85 6.23 C 47.47 7.74 48.74 9.55 49.58 11.61 C 50.90 10.22 52.25 8.86 53.61 7.50 C 54.57 8.47 55.53 9.43 56.50 10.39 C 55.17 11.72 53.83 13.05 52.47 14.35 C 55.14 14.77 57.67 15.75 59.97 17.17 C 59.16 18.21 58.35 19.24 57.54 20.28 C 53.75 17.76 48.34 17.56 45.35 21.44 C 48.39 25.12 50.36 29.62 50.79 34.39 C 40.34 40.51 29.86 46.61 18.94 51.86 C 16.50 52.75 13.92 54.58 11.25 53.87 C 8.72 52.41 10.43 49.32 11.16 47.30 C 16.47 35.53 23.13 24.41 29.58 13.24 C 34.37 13.58 38.85 15.61 42.55 18.62 C 43.80 17.20 45.51 15.85 45.68 13.82 C 45.83 12.07 44.45 10.78 43.59 9.42 M 27.54 24.68 C 28.72 25.89 29.88 27.11 31.04 28.33 C 29.99 29.15 28.95 29.98 27.90 30.80 C 27.32 30.17 26.15 28.90 25.57 28.27 C 21.70 35.16 17.74 42.03 14.68 49.32 C 18.61 47.77 22.29 45.67 26.04 43.72 C 25.44 42.57 24.82 41.43 24.23 40.28 C 25.32 39.51 26.41 38.74 27.49 37.97 C 28.19 39.29 28.89 40.60 29.59 41.91 C 32.91 40.02 36.28 38.22 39.58 36.32 C 38.80 34.99 38.01 33.67 37.22 32.36 C 38.30 31.55 39.36 30.73 40.43 29.92 C 41.32 31.39 42.19 32.86 43.06 34.34 C 44.20 33.66 45.35 32.98 46.49 32.30 C 44.92 25.12 38.91 19.04 31.71 17.51 C 30.31 19.89 28.92 22.28 27.54 24.68 Z" />
</g>
</svg>
