<?xml version="1.0" encoding="UTF-8" ?>
<!DOCTYPE svg PUBLIC "-//W3C//DTD SVG 1.1//EN" "http://www.w3.org/Graphics/SVG/1.1/DTD/svg11.dtd">
<svg width="64pt" height="64pt" viewBox="0 0 64 64" version="1.1" xmlns="http://www.w3.org/2000/svg">
<g id="#ffffffff">
<path fill="#ffffff" opacity="1.00" d=" M 0.00 0.00 L 64.00 0.00 L 64.00 64.00 L 0.00 64.00 L 0.00 0.00 M 26.45 6.61 C 17.52 8.48 9.91 15.44 7.22 24.16 C 4.42 32.76 6.57 42.74 12.71 49.39 C 19.11 56.64 29.75 59.75 39.04 57.01 C 51.91 53.66 60.54 39.43 57.39 26.47 C 54.74 12.85 39.97 3.27 26.45 6.61 Z" />
<path fill="#ffffff" opacity="1.00" d=" M 10.96 25.38 C 13.91 16.16 23.22 9.42 32.98 10.06 C 42.06 10.28 50.24 16.82 53.03 25.37 C 47.90 19.78 40.60 16.20 32.98 16.04 C 24.70 15.65 16.51 19.28 10.96 25.38 Z" />
<path fill="#ffffff" opacity="1.00" d=" M 11.35 32.00 C 15.59 24.37 24.27 19.56 32.99 20.06 C 41.07 20.25 48.69 25.00 52.67 32.00 C 48.70 38.97 41.10 43.71 33.05 43.94 C 24.31 44.45 15.61 39.64 11.35 32.00 M 28.43 22.69 C 21.60 24.98 19.78 34.99 25.44 39.49 C 30.79 44.66 40.76 41.17 41.80 33.84 C 43.53 26.55 35.30 19.67 28.43 22.69 Z" />
<path fill="#ffffff" opacity="1.00" d=" M 29.41 26.58 C 33.56 24.35 38.96 28.46 37.89 33.04 C 37.34 37.36 31.63 39.53 28.31 36.74 C 24.83 34.26 25.46 28.25 29.41 26.58 Z" />
<path fill="#ffffff" opacity="1.00" d=" M 10.96 38.62 C 15.86 43.94 22.71 47.47 29.97 47.90 C 38.58 48.63 47.25 44.98 53.04 38.62 C 50.34 46.81 42.77 53.13 34.12 53.88 C 24.03 55.05 14.02 48.24 10.96 38.62 Z" />
</g>
<g id="#000000ff">
<path fill="#000000" opacity="1.00" d=" M 26.45 6.61 C 39.97 3.27 54.74 12.85 57.39 26.47 C 60.54 39.43 51.91 53.66 39.04 57.01 C 29.75 59.75 19.11 56.64 12.71 49.39 C 6.57 42.74 4.42 32.76 7.22 24.16 C 9.91 15.44 17.52 8.48 26.45 6.61 M 10.96 25.38 C 16.51 19.28 24.70 15.65 32.98 16.04 C 40.60 16.20 47.90 19.78 53.03 25.37 C 50.24 16.82 42.06 10.28 32.98 10.06 C 23.22 9.42 13.91 16.16 10.96 25.38 M 11.35 32.00 C 15.61 39.64 24.31 44.45 33.05 43.94 C 41.10 43.71 48.70 38.97 52.67 32.00 C 48.69 25.00 41.07 20.25 32.99 20.06 C 24.27 19.56 15.59 24.37 11.35 32.00 M 10.96 38.62 C 14.02 48.24 24.03 55.05 34.12 53.88 C 42.77 53.13 50.34 46.81 53.04 38.62 C 47.25 44.98 38.58 48.63 29.97 47.90 C 22.71 47.47 15.86 43.94 10.96 38.62 Z" />
<path fill="#000000" opacity="1.00" d=" M 28.43 22.69 C 35.30 19.67 43.53 26.55 41.80 33.84 C 40.76 41.17 30.79 44.66 25.44 39.49 C 19.78 34.99 21.60 24.98 28.43 22.69 M 29.41 26.58 C 25.46 28.25 24.83 34.26 28.31 36.74 C 31.63 39.53 37.34 37.36 37.89 33.04 C 38.96 28.46 33.56 24.35 29.41 26.58 Z" />
</g>
</svg>
