<?xml version="1.0" encoding="UTF-8" ?>
<!DOCTYPE svg PUBLIC "-//W3C//DTD SVG 1.1//EN" "http://www.w3.org/Graphics/SVG/1.1/DTD/svg11.dtd">
<svg width="64pt" height="64pt" viewBox="0 0 64 64" version="1.1" xmlns="http://www.w3.org/2000/svg">
<g id="#ffffffff">
<path fill="#ffffff" opacity="1.00" d=" M 0.00 0.00 L 64.00 0.00 L 64.00 64.00 L 0.00 64.00 L 0.00 0.00 M 6.04 16.04 C 5.97 26.68 5.97 37.32 6.04 47.95 C 22.01 48.03 37.99 48.03 53.96 47.96 C 54.13 44.66 53.86 41.36 54.05 38.06 C 55.35 38.02 56.65 37.98 57.95 37.94 C 58.06 33.98 58.05 30.02 57.95 26.06 C 56.65 26.02 55.35 25.99 54.05 25.95 C 53.86 22.65 54.13 19.34 53.96 16.04 C 37.99 15.97 22.01 15.97 6.04 16.04 Z" />
<path fill="#ffffff" opacity="1.00" d=" M 10.04 20.04 C 23.34 19.98 36.65 19.96 49.96 20.05 C 50.04 28.02 50.02 35.99 49.96 43.96 C 36.66 44.03 23.35 44.03 10.05 43.96 C 9.95 35.99 9.98 28.01 10.04 20.04 M 22.01 30.09 C 21.06 30.68 19.53 30.71 19.11 31.91 C 22.37 32.06 25.64 31.87 28.89 32.12 C 29.71 33.97 30.04 36.03 31.11 37.78 C 35.04 36.39 38.74 34.42 42.56 32.76 L 42.92 32.08 C 39.65 31.94 36.37 32.13 33.10 31.88 C 32.31 30.01 31.93 27.96 30.89 26.20 C 27.84 27.28 25.03 28.93 22.01 30.09 Z" />
</g>
<g id="#000000ff">
<path fill="#000000" opacity="1.00" d=" M 6.04 16.04 C 22.01 15.97 37.99 15.97 53.96 16.04 C 54.13 19.34 53.86 22.65 54.05 25.95 C 55.35 25.99 56.65 26.02 57.95 26.06 C 58.05 30.02 58.06 33.98 57.95 37.94 C 56.65 37.98 55.35 38.02 54.05 38.06 C 53.86 41.36 54.13 44.66 53.96 47.96 C 37.99 48.03 22.01 48.03 6.04 47.95 C 5.97 37.32 5.97 26.68 6.04 16.04 M 10.04 20.04 C 9.98 28.01 9.95 35.99 10.05 43.96 C 23.35 44.03 36.66 44.03 49.96 43.96 C 50.02 35.99 50.04 28.02 49.96 20.05 C 36.65 19.96 23.34 19.98 10.04 20.04 Z" />
<path fill="#000000" opacity="1.00" d=" M 22.01 30.09 C 25.03 28.93 27.84 27.28 30.89 26.20 C 31.93 27.96 32.31 30.01 33.10 31.88 C 36.37 32.13 39.65 31.94 42.92 32.08 L 42.56 32.76 C 38.74 34.42 35.04 36.39 31.11 37.78 C 30.04 36.03 29.71 33.97 28.89 32.12 C 25.64 31.87 22.37 32.06 19.11 31.91 C 19.53 30.71 21.06 30.68 22.01 30.09 Z" />
</g>
</svg>
