<?xml version="1.0" encoding="UTF-8" ?>
<!DOCTYPE svg PUBLIC "-//W3C//DTD SVG 1.1//EN" "http://www.w3.org/Graphics/SVG/1.1/DTD/svg11.dtd">
<svg width="64pt" height="64pt" viewBox="0 0 64 64" version="1.1" xmlns="http://www.w3.org/2000/svg">
<g id="#ffffffff">
<path fill="#ffffff" opacity="1.00" d=" M 0.00 0.00 L 64.00 0.00 L 64.00 64.00 L 0.00 64.00 L 0.00 0.00 M 7.19 30.00 C 10.07 33.00 13.03 35.92 16.00 38.82 C 21.40 33.58 26.65 28.18 32.02 22.90 C 37.35 28.20 42.63 33.56 48.00 38.82 C 51.01 35.95 53.92 32.97 56.83 30.00 C 48.60 21.68 40.34 13.38 32.00 5.18 C 23.70 13.42 15.40 21.67 7.19 30.00 M 7.19 52.00 C 10.07 54.99 13.03 57.92 16.00 60.82 C 21.40 55.58 26.66 50.19 32.02 44.89 C 37.35 50.19 42.63 55.56 48.00 60.82 C 51.00 57.94 53.93 54.98 56.83 52.00 C 48.61 43.67 40.32 35.40 32.00 27.18 C 23.69 35.41 15.40 43.67 7.19 52.00 Z" />
<path fill="#ffffff" opacity="1.00" d=" M 12.91 30.00 C 19.26 23.62 25.64 17.26 32.01 10.89 C 38.39 17.26 44.76 23.63 51.12 30.00 C 50.08 31.04 49.04 32.08 48.00 33.12 C 42.67 27.81 37.40 22.42 32.00 17.18 C 26.62 22.45 21.34 27.82 15.99 33.12 C 14.97 32.08 13.94 31.04 12.91 30.00 Z" />
<path fill="#ffffff" opacity="1.00" d=" M 12.90 52.00 C 19.26 45.62 25.64 39.26 32.00 32.88 C 38.38 39.25 44.75 45.62 51.12 52.00 C 50.08 53.03 49.05 54.07 48.01 55.11 C 42.65 49.82 37.41 44.41 32.00 39.18 C 26.62 44.44 21.35 49.81 16.01 55.11 C 14.98 54.07 13.94 53.04 12.90 52.00 Z" />
</g>
<g id="#000000ff">
<path fill="#000000" opacity="1.00" d=" M 7.19 30.00 C 15.40 21.67 23.70 13.42 32.00 5.18 C 40.34 13.38 48.60 21.68 56.83 30.00 C 53.92 32.97 51.01 35.95 48.00 38.82 C 42.63 33.56 37.35 28.20 32.02 22.90 C 26.65 28.18 21.40 33.58 16.00 38.82 C 13.03 35.92 10.07 33.00 7.19 30.00 M 12.91 30.00 C 13.94 31.04 14.97 32.08 15.99 33.12 C 21.34 27.82 26.62 22.45 32.00 17.18 C 37.40 22.42 42.67 27.81 48.00 33.12 C 49.04 32.08 50.08 31.04 51.12 30.00 C 44.76 23.63 38.39 17.26 32.01 10.89 C 25.64 17.26 19.26 23.62 12.91 30.00 Z" />
<path fill="#000000" opacity="1.00" d=" M 7.19 52.00 C 15.40 43.67 23.69 35.41 32.00 27.18 C 40.32 35.40 48.61 43.67 56.83 52.00 C 53.93 54.98 51.00 57.94 48.00 60.82 C 42.63 55.56 37.35 50.19 32.02 44.89 C 26.66 50.19 21.40 55.58 16.00 60.82 C 13.03 57.92 10.07 54.99 7.19 52.00 M 12.90 52.00 C 13.94 53.04 14.98 54.07 16.01 55.11 C 21.35 49.81 26.62 44.44 32.00 39.18 C 37.41 44.41 42.65 49.82 48.01 55.11 C 49.05 54.07 50.08 53.03 51.12 52.00 C 44.75 45.62 38.38 39.25 32.00 32.88 C 25.64 39.26 19.26 45.62 12.90 52.00 Z" />
</g>
</svg>
