<?xml version="1.0" encoding="UTF-8" ?>
<!DOCTYPE svg PUBLIC "-//W3C//DTD SVG 1.1//EN" "http://www.w3.org/Graphics/SVG/1.1/DTD/svg11.dtd">
<svg width="64pt" height="64pt" viewBox="0 0 64 64" version="1.1" xmlns="http://www.w3.org/2000/svg">
<g id="#ffffffff">
<path fill="#ffffff" opacity="1.00" d=" M 0.00 0.00 L 64.00 0.00 L 64.00 64.00 L 0.00 64.00 L 0.00 0.00 M 18.07 10.05 C 12.32 13.80 8.47 19.79 5.96 26.06 C 7.27 25.38 8.57 24.70 9.86 24.00 C 7.04 28.86 6.47 34.55 5.95 40.03 C 6.93 39.52 8.90 38.50 9.88 37.99 C 6.84 44.20 6.28 51.20 5.95 58.00 C 11.14 56.31 16.31 54.54 21.50 52.85 C 24.46 55.41 27.87 58.04 31.99 57.99 C 36.09 58.04 39.54 55.48 42.43 52.85 C 47.65 54.52 52.83 56.32 58.05 58.00 C 57.63 51.20 56.81 44.32 54.09 38.00 C 55.08 38.51 57.07 39.52 58.07 40.02 C 57.51 34.55 56.95 28.86 54.14 24.00 C 55.43 24.70 56.73 25.39 58.03 26.06 C 55.66 20.19 52.17 14.57 46.98 10.80 C 38.75 4.60 26.61 4.28 18.07 10.05 Z" />
<path fill="#ffffff" opacity="1.00" d=" M 34.39 14.19 C 41.57 15.47 46.61 22.40 46.11 29.61 C 48.13 30.01 50.83 31.43 49.80 33.95 C 49.30 36.10 46.76 35.87 45.08 36.14 C 44.68 41.77 42.60 47.55 38.15 51.23 C 35.82 53.20 32.49 54.83 29.47 53.40 C 22.78 50.61 18.92 43.25 19.05 36.18 C 17.33 35.86 14.66 36.14 14.18 33.90 C 13.18 31.38 15.89 30.01 17.89 29.61 C 17.84 25.47 19.09 21.42 21.79 18.24 C 22.93 19.68 24.06 21.12 25.19 22.57 C 24.59 23.02 23.41 23.92 22.81 24.37 C 23.60 25.46 24.39 26.54 25.18 27.62 C 26.02 27.00 26.86 26.38 27.69 25.75 C 28.61 26.92 29.52 28.09 30.44 29.26 C 31.48 28.41 32.52 27.57 33.56 26.73 C 32.66 25.59 31.77 24.45 30.87 23.32 C 31.45 22.89 32.61 22.05 33.18 21.63 C 32.40 20.54 31.61 19.46 30.82 18.38 C 30.02 18.98 29.22 19.58 28.42 20.18 C 27.28 18.71 26.13 17.24 25.01 15.76 C 25.78 15.49 27.32 14.95 28.08 14.68 C 29.86 13.39 31.03 16.59 32.79 15.78 C 33.19 15.38 33.99 14.59 34.39 14.19 M 21.79 29.94 C 22.12 31.94 22.02 34.75 24.31 35.66 C 26.46 36.68 28.47 35.26 30.23 34.16 C 27.45 32.68 24.63 31.29 21.79 29.94 M 33.75 34.18 C 35.52 35.26 37.55 36.69 39.69 35.66 C 41.98 34.75 41.87 31.94 42.21 29.93 C 39.37 31.30 36.55 32.71 33.75 34.18 M 26.10 44.75 C 28.03 49.20 35.98 49.24 37.84 44.74 C 38.65 43.32 36.82 42.46 36.08 41.59 C 35.95 42.01 35.68 42.87 35.55 43.30 C 33.18 43.25 30.81 43.25 28.45 43.30 C 28.32 42.88 28.07 42.02 27.94 41.60 C 27.00 42.45 25.56 43.22 26.10 44.75 Z" />
</g>
<g id="#000000ff">
<path fill="#000000" opacity="1.00" d=" M 18.07 10.05 C 26.61 4.28 38.75 4.60 46.98 10.80 C 52.17 14.57 55.66 20.19 58.03 26.06 C 56.73 25.39 55.43 24.70 54.14 24.00 C 56.95 28.86 57.51 34.55 58.07 40.02 C 57.07 39.52 55.08 38.51 54.09 38.00 C 56.81 44.32 57.63 51.20 58.05 58.00 C 52.83 56.32 47.65 54.52 42.43 52.85 C 39.54 55.48 36.09 58.04 31.99 57.99 C 27.87 58.04 24.46 55.41 21.50 52.85 C 16.31 54.54 11.14 56.31 5.95 58.00 C 6.28 51.20 6.84 44.20 9.88 37.99 C 8.90 38.50 6.93 39.52 5.95 40.03 C 6.47 34.55 7.04 28.86 9.86 24.00 C 8.57 24.70 7.27 25.38 5.96 26.06 C 8.47 19.79 12.32 13.80 18.07 10.05 M 34.39 14.19 C 33.99 14.59 33.19 15.38 32.79 15.78 C 31.03 16.59 29.86 13.39 28.08 14.68 C 27.32 14.95 25.78 15.49 25.01 15.76 C 26.13 17.24 27.28 18.71 28.42 20.18 C 29.22 19.58 30.02 18.98 30.82 18.38 C 31.61 19.46 32.40 20.54 33.18 21.63 C 32.61 22.05 31.45 22.89 30.87 23.32 C 31.77 24.45 32.66 25.59 33.56 26.73 C 32.52 27.57 31.48 28.41 30.44 29.26 C 29.52 28.09 28.61 26.92 27.69 25.75 C 26.86 26.38 26.02 27.00 25.18 27.62 C 24.39 26.54 23.60 25.46 22.81 24.37 C 23.41 23.92 24.59 23.02 25.19 22.57 C 24.06 21.12 22.93 19.68 21.79 18.24 C 19.09 21.42 17.84 25.47 17.89 29.61 C 15.89 30.01 13.18 31.38 14.18 33.90 C 14.66 36.14 17.33 35.86 19.05 36.18 C 18.92 43.25 22.78 50.61 29.47 53.40 C 32.49 54.83 35.82 53.20 38.15 51.23 C 42.60 47.55 44.68 41.77 45.08 36.14 C 46.76 35.87 49.30 36.10 49.80 33.95 C 50.83 31.43 48.13 30.01 46.11 29.61 C 46.61 22.40 41.57 15.47 34.39 14.19 Z" />
<path fill="#000000" opacity="1.00" d=" M 21.79 29.94 C 24.63 31.29 27.45 32.68 30.23 34.16 C 28.47 35.26 26.46 36.68 24.31 35.66 C 22.02 34.75 22.12 31.94 21.79 29.94 Z" />
<path fill="#000000" opacity="1.00" d=" M 33.75 34.18 C 36.55 32.71 39.37 31.30 42.21 29.93 C 41.87 31.94 41.98 34.75 39.69 35.66 C 37.55 36.69 35.52 35.26 33.75 34.18 Z" />
<path fill="#000000" opacity="1.00" d=" M 26.10 44.75 C 25.56 43.22 27.00 42.45 27.94 41.60 C 28.07 42.02 28.32 42.88 28.45 43.30 C 30.81 43.25 33.18 43.25 35.55 43.30 C 35.68 42.87 35.95 42.01 36.08 41.59 C 36.82 42.46 38.65 43.32 37.84 44.74 C 35.98 49.24 28.03 49.20 26.10 44.75 Z" />
</g>
</svg>
