<?xml version="1.0" encoding="UTF-8" ?>
<!DOCTYPE svg PUBLIC "-//W3C//DTD SVG 1.1//EN" "http://www.w3.org/Graphics/SVG/1.1/DTD/svg11.dtd">
<svg width="64pt" height="64pt" viewBox="0 0 64 64" version="1.1" xmlns="http://www.w3.org/2000/svg">
<g id="#ffffffff">
<path fill="#ffffff" opacity="1.00" d=" M 0.00 0.00 L 64.00 0.00 L 64.00 64.00 L 0.00 64.00 L 0.00 0.00 M 26.50 8.65 C 19.37 10.30 13.15 15.40 10.16 22.08 C 7.09 28.73 7.34 36.79 10.81 43.24 C 14.36 49.99 21.30 54.84 28.88 55.78 C 35.68 56.69 42.85 54.53 47.93 49.91 C 53.25 45.22 56.31 38.08 55.96 30.98 C 55.72 24.33 52.51 17.89 47.41 13.63 C 41.75 8.77 33.73 6.92 26.50 8.65 Z" />
<path fill="#ffffff" opacity="1.00" d=" M 29.23 12.19 C 35.59 11.28 42.31 13.63 46.64 18.38 C 51.72 23.71 53.35 31.95 50.79 38.84 C 48.41 45.55 42.20 50.70 35.15 51.73 C 28.44 52.87 21.26 50.26 16.86 45.06 C 12.16 39.74 10.74 31.84 13.19 25.19 C 15.59 18.33 22.02 13.11 29.23 12.19 M 29.32 22.48 C 25.82 23.62 23.72 27.33 23.98 30.92 C 23.53 34.85 24.62 39.55 28.62 41.23 C 33.23 43.62 39.46 40.21 39.89 35.03 C 40.06 31.81 40.50 28.17 38.51 25.38 C 36.55 22.51 32.58 21.25 29.32 22.48 Z" />
<path fill="#ffffff" opacity="1.00" d=" M 31.18 26.07 C 33.23 25.61 35.68 26.92 35.89 29.14 C 36.09 31.27 36.20 33.46 35.73 35.56 C 34.61 39.09 28.52 38.67 28.12 34.90 C 27.92 31.87 27.07 26.81 31.18 26.07 Z" />
</g>
<g id="#000000ff">
<path fill="#000000" opacity="1.00" d=" M 26.50 8.65 C 33.73 6.92 41.75 8.77 47.41 13.63 C 52.51 17.89 55.72 24.33 55.96 30.98 C 56.31 38.08 53.25 45.22 47.93 49.91 C 42.85 54.53 35.68 56.69 28.88 55.78 C 21.30 54.84 14.36 49.99 10.81 43.24 C 7.34 36.79 7.09 28.73 10.16 22.08 C 13.15 15.40 19.37 10.30 26.50 8.65 M 29.23 12.19 C 22.02 13.11 15.59 18.33 13.19 25.19 C 10.74 31.84 12.16 39.74 16.86 45.06 C 21.26 50.26 28.44 52.87 35.15 51.73 C 42.20 50.70 48.41 45.55 50.79 38.84 C 53.35 31.95 51.72 23.71 46.64 18.38 C 42.31 13.63 35.59 11.28 29.23 12.19 Z" />
<path fill="#000000" opacity="1.00" d=" M 29.32 22.48 C 32.58 21.25 36.55 22.51 38.51 25.38 C 40.50 28.17 40.06 31.81 39.89 35.03 C 39.46 40.21 33.23 43.62 28.62 41.23 C 24.62 39.55 23.53 34.85 23.98 30.92 C 23.72 27.33 25.82 23.62 29.32 22.48 M 31.18 26.07 C 27.07 26.81 27.92 31.87 28.12 34.90 C 28.52 38.67 34.61 39.09 35.73 35.56 C 36.20 33.46 36.09 31.27 35.89 29.14 C 35.68 26.92 33.23 25.61 31.18 26.07 Z" />
</g>
</svg>
