<?xml version="1.0" encoding="UTF-8" ?>
<!DOCTYPE svg PUBLIC "-//W3C//DTD SVG 1.1//EN" "http://www.w3.org/Graphics/SVG/1.1/DTD/svg11.dtd">
<svg width="64pt" height="64pt" viewBox="0 0 64 64" version="1.1" xmlns="http://www.w3.org/2000/svg">
<g id="#ffffffff">
<path fill="#ffffff" opacity="1.00" d=" M 0.00 0.00 L 64.00 0.00 L 64.00 64.00 L 0.00 64.00 L 0.00 0.00 M 12.00 8.00 C 11.96 12.36 12.06 16.72 12.00 21.09 C 12.04 23.56 9.90 25.49 10.01 27.99 C 9.92 30.13 11.17 31.94 12.19 33.71 C 9.75 35.85 8.17 38.73 7.79 41.97 C 9.10 41.98 10.41 42.00 11.72 42.01 C 12.30 38.93 14.57 35.85 18.01 36.00 C 21.44 35.86 23.68 38.94 24.28 42.00 C 25.57 42.00 26.85 41.99 28.14 41.98 C 27.83 40.65 27.52 39.32 27.22 37.99 C 36.81 38.01 46.41 37.99 56.00 38.00 C 56.00 36.67 56.00 35.33 56.00 34.00 C 54.67 34.00 53.33 34.00 52.00 34.00 C 52.00 25.33 52.00 16.67 52.00 8.00 C 38.67 8.00 25.33 8.00 12.00 8.00 M 12.83 44.92 C 9.12 47.03 9.13 53.00 12.86 55.08 C 15.06 56.64 17.77 55.82 20.00 54.78 C 22.54 56.23 25.46 56.22 28.00 54.79 C 30.54 56.23 33.46 56.22 36.00 54.79 C 38.54 56.23 41.46 56.22 44.00 54.79 C 47.92 57.57 54.15 55.05 53.99 49.96 C 54.08 44.90 47.90 42.45 44.00 45.21 C 41.46 43.76 38.54 43.77 36.00 45.21 C 33.47 43.77 30.54 43.76 28.00 45.21 C 25.46 43.76 22.54 43.77 20.00 45.22 C 17.77 44.17 15.04 43.35 12.83 44.92 Z" />
<path fill="#ffffff" opacity="1.00" d=" M 16.00 12.00 C 26.67 12.00 37.33 12.00 48.00 12.00 C 48.00 19.33 48.00 26.67 48.00 34.00 C 39.88 34.01 31.76 33.97 23.63 34.02 C 25.32 31.51 26.79 28.38 25.52 25.35 C 24.26 21.38 19.91 19.50 16.00 20.07 C 16.00 17.38 16.00 14.69 16.00 12.00 Z" />
<path fill="#ffffff" opacity="1.00" d=" M 16.30 24.36 C 18.80 23.07 22.10 25.15 22.00 27.97 C 22.19 31.11 18.16 33.20 15.68 31.27 C 13.20 29.69 13.57 25.48 16.30 24.36 Z" />
<path fill="#ffffff" opacity="1.00" d=" M 15.19 48.10 C 17.63 47.15 19.16 50.85 16.78 51.91 C 14.36 52.83 12.86 49.16 15.19 48.10 Z" />
<path fill="#ffffff" opacity="1.00" d=" M 23.20 48.19 C 25.47 46.93 27.28 51.00 24.79 51.78 C 22.55 53.11 20.71 49.00 23.20 48.19 Z" />
<path fill="#ffffff" opacity="1.00" d=" M 31.19 48.20 C 33.46 46.90 35.30 51.02 32.77 51.79 C 30.57 53.10 28.71 49.02 31.19 48.20 Z" />
<path fill="#ffffff" opacity="1.00" d=" M 39.28 48.16 C 41.56 46.99 43.25 51.10 40.73 51.81 C 38.46 53.05 36.72 48.89 39.28 48.16 Z" />
<path fill="#ffffff" opacity="1.00" d=" M 47.22 48.20 C 49.54 46.98 51.20 50.93 48.80 51.89 C 46.45 52.98 44.78 49.04 47.22 48.20 Z" />
</g>
<g id="#000000ff">
<path fill="#000000" opacity="1.00" d=" M 12.00 8.00 C 25.33 8.00 38.67 8.00 52.00 8.00 C 52.00 16.67 52.00 25.33 52.00 34.00 C 53.33 34.00 54.67 34.00 56.00 34.00 C 56.00 35.33 56.00 36.67 56.00 38.00 C 46.41 37.99 36.81 38.01 27.22 37.99 C 27.52 39.32 27.83 40.65 28.14 41.98 C 26.85 41.99 25.57 42.00 24.28 42.00 C 23.68 38.94 21.44 35.86 18.01 36.00 C 14.57 35.85 12.30 38.93 11.72 42.01 C 10.41 42.00 9.10 41.98 7.79 41.97 C 8.17 38.73 9.75 35.85 12.19 33.71 C 11.17 31.94 9.92 30.13 10.01 27.99 C 9.90 25.49 12.04 23.56 12.00 21.09 C 12.06 16.72 11.96 12.36 12.00 8.00 M 16.00 12.00 C 16.00 14.69 16.00 17.38 16.00 20.07 C 19.91 19.50 24.26 21.38 25.52 25.35 C 26.79 28.38 25.32 31.51 23.63 34.02 C 31.76 33.97 39.88 34.01 48.00 34.00 C 48.00 26.67 48.00 19.33 48.00 12.00 C 37.33 12.00 26.67 12.00 16.00 12.00 M 16.30 24.36 C 13.57 25.48 13.20 29.69 15.68 31.27 C 18.16 33.20 22.19 31.11 22.00 27.97 C 22.10 25.15 18.80 23.07 16.30 24.36 Z" />
<path fill="#000000" opacity="1.00" d=" M 12.83 44.92 C 15.04 43.35 17.77 44.17 20.00 45.22 C 22.54 43.77 25.46 43.76 28.00 45.21 C 30.54 43.76 33.47 43.77 36.00 45.21 C 38.54 43.77 41.46 43.76 44.00 45.21 C 47.90 42.45 54.08 44.90 53.99 49.96 C 54.15 55.05 47.92 57.57 44.00 54.79 C 41.46 56.22 38.54 56.23 36.00 54.79 C 33.46 56.22 30.54 56.23 28.00 54.79 C 25.46 56.22 22.54 56.23 20.00 54.78 C 17.77 55.82 15.06 56.64 12.86 55.08 C 9.13 53.00 9.12 47.03 12.83 44.92 M 15.19 48.10 C 12.86 49.16 14.36 52.83 16.78 51.91 C 19.16 50.85 17.63 47.15 15.19 48.10 M 23.20 48.19 C 20.71 49.00 22.55 53.11 24.79 51.78 C 27.28 51.00 25.47 46.93 23.20 48.19 M 31.19 48.20 C 28.71 49.02 30.57 53.10 32.77 51.79 C 35.30 51.02 33.46 46.90 31.19 48.20 M 39.28 48.16 C 36.72 48.89 38.46 53.05 40.73 51.81 C 43.25 51.10 41.56 46.99 39.28 48.16 M 47.22 48.20 C 44.78 49.04 46.45 52.98 48.80 51.89 C 51.20 50.93 49.54 46.98 47.22 48.20 Z" />
</g>
</svg>
