<?xml version="1.0" encoding="UTF-8" ?>
<!DOCTYPE svg PUBLIC "-//W3C//DTD SVG 1.1//EN" "http://www.w3.org/Graphics/SVG/1.1/DTD/svg11.dtd">
<svg width="64pt" height="64pt" viewBox="0 0 64 64" version="1.1" xmlns="http://www.w3.org/2000/svg">
<g id="#ffffffff">
<path fill="#ffffff" opacity="1.00" d=" M 0.00 0.00 L 64.00 0.00 L 64.00 64.00 L 0.00 64.00 L 0.00 0.00 M 12.13 12.87 C 11.71 18.17 12.30 23.51 11.87 28.79 C 9.55 32.03 9.28 36.78 12.37 39.64 C 16.18 43.80 23.84 42.04 25.51 36.67 C 26.88 33.64 25.11 30.68 23.81 28.01 C 24.36 28.00 25.46 27.99 26.00 27.99 C 26.00 26.66 26.00 25.34 26.00 24.02 C 25.50 24.01 24.50 23.99 24.00 23.98 C 24.00 23.49 24.00 22.51 24.00 22.02 C 24.50 22.01 25.50 21.99 26.00 21.99 C 26.00 20.66 26.00 19.34 26.00 18.01 C 25.50 18.01 24.50 17.99 24.00 17.98 C 24.00 17.49 24.00 16.51 24.00 16.02 C 24.50 16.01 25.50 15.99 26.00 15.99 C 26.00 14.66 26.00 13.33 26.00 12.01 C 25.32 12.00 23.95 11.99 23.27 11.98 C 22.36 10.45 21.30 8.87 19.54 8.24 C 16.34 7.20 12.65 9.59 12.13 12.87 M 50.00 22.00 C 50.00 33.33 50.00 44.67 50.00 56.00 C 51.33 55.99 52.67 55.99 54.00 56.00 C 54.00 44.67 54.00 33.33 54.00 22.00 C 52.67 22.00 51.33 22.00 50.00 22.00 M 42.00 28.00 C 42.00 37.33 42.00 46.67 42.00 56.00 C 43.33 55.99 44.67 55.99 46.00 56.00 C 46.00 46.67 46.00 37.33 46.00 28.00 C 44.67 28.00 43.33 28.00 42.00 28.00 M 34.00 34.00 C 34.00 41.33 34.00 48.67 34.00 56.00 C 35.33 55.99 36.67 55.99 38.00 56.00 C 38.00 48.67 38.00 41.33 38.00 34.00 C 36.67 34.00 35.33 34.00 34.00 34.00 M 26.00 40.00 C 26.00 45.33 26.00 50.67 26.00 56.00 C 27.33 55.99 28.67 55.99 30.00 56.00 C 30.00 50.67 30.00 45.33 30.00 40.00 C 28.67 40.00 27.33 40.00 26.00 40.00 M 18.00 46.00 C 18.00 49.33 18.00 52.67 18.00 56.00 C 19.33 55.99 20.67 55.99 22.00 56.00 C 22.00 52.67 22.00 49.33 22.00 46.00 C 20.67 46.00 19.33 46.00 18.00 46.00 M 10.00 52.00 C 10.00 53.33 10.00 54.67 10.00 56.00 C 11.33 55.99 12.67 56.00 14.00 56.00 C 14.00 54.67 14.00 53.33 14.00 52.00 C 12.67 52.00 11.33 52.00 10.00 52.00 Z" />
<path fill="#ffffff" opacity="1.00" d=" M 16.16 13.13 C 16.94 11.25 20.20 11.90 19.94 14.02 C 20.12 19.45 19.91 24.88 20.03 30.31 C 21.65 31.81 22.83 34.31 21.27 36.31 C 19.49 39.12 14.62 38.17 14.09 34.87 C 13.50 33.00 15.04 31.61 15.92 30.18 C 16.25 24.51 15.70 18.80 16.16 13.13 Z" />
</g>
<g id="#000000ff">
<path fill="#000000" opacity="1.00" d=" M 12.13 12.87 C 12.65 9.59 16.34 7.20 19.54 8.24 C 21.30 8.87 22.36 10.45 23.27 11.98 C 23.95 11.99 25.32 12.00 26.00 12.01 C 26.00 13.33 26.00 14.66 26.00 15.99 C 25.50 15.99 24.50 16.01 24.00 16.02 C 24.00 16.51 24.00 17.49 24.00 17.98 C 24.50 17.99 25.50 18.01 26.00 18.01 C 26.00 19.34 26.00 20.66 26.00 21.99 C 25.50 21.99 24.50 22.01 24.00 22.02 C 24.00 22.51 24.00 23.49 24.00 23.98 C 24.50 23.99 25.50 24.01 26.00 24.02 C 26.00 25.34 26.00 26.66 26.00 27.99 C 25.46 27.99 24.36 28.00 23.81 28.01 C 25.11 30.68 26.88 33.64 25.51 36.67 C 23.84 42.04 16.18 43.80 12.37 39.64 C 9.28 36.78 9.55 32.03 11.87 28.79 C 12.30 23.51 11.71 18.17 12.13 12.87 M 16.16 13.13 C 15.70 18.80 16.25 24.51 15.92 30.18 C 15.04 31.61 13.50 33.00 14.09 34.87 C 14.62 38.17 19.49 39.12 21.27 36.31 C 22.83 34.31 21.65 31.81 20.03 30.31 C 19.91 24.88 20.12 19.45 19.94 14.02 C 20.20 11.90 16.94 11.25 16.16 13.13 Z" />
<path fill="#000000" opacity="1.00" d=" M 50.00 22.00 C 51.33 22.00 52.67 22.00 54.00 22.00 C 54.00 33.33 54.00 44.67 54.00 56.00 C 52.67 55.99 51.33 55.99 50.00 56.00 C 50.00 44.67 50.00 33.33 50.00 22.00 Z" />
<path fill="#000000" opacity="1.00" d=" M 42.00 28.00 C 43.33 28.00 44.67 28.00 46.00 28.00 C 46.00 37.33 46.00 46.67 46.00 56.00 C 44.67 55.99 43.33 55.99 42.00 56.00 C 42.00 46.67 42.00 37.33 42.00 28.00 Z" />
<path fill="#000000" opacity="1.00" d=" M 34.00 34.00 C 35.33 34.00 36.67 34.00 38.00 34.00 C 38.00 41.33 38.00 48.67 38.00 56.00 C 36.67 55.99 35.33 55.99 34.00 56.00 C 34.00 48.67 34.00 41.33 34.00 34.00 Z" />
<path fill="#000000" opacity="1.00" d=" M 26.00 40.00 C 27.33 40.00 28.67 40.00 30.00 40.00 C 30.00 45.33 30.00 50.67 30.00 56.00 C 28.67 55.99 27.33 55.99 26.00 56.00 C 26.00 50.67 26.00 45.33 26.00 40.00 Z" />
<path fill="#000000" opacity="1.00" d=" M 18.00 46.00 C 19.33 46.00 20.67 46.00 22.00 46.00 C 22.00 49.33 22.00 52.67 22.00 56.00 C 20.67 55.99 19.33 55.99 18.00 56.00 C 18.00 52.67 18.00 49.33 18.00 46.00 Z" />
<path fill="#000000" opacity="1.00" d=" M 10.00 52.00 C 11.33 52.00 12.67 52.00 14.00 52.00 C 14.00 53.33 14.00 54.67 14.00 56.00 C 12.67 56.00 11.33 55.99 10.00 56.00 C 10.00 54.67 10.00 53.33 10.00 52.00 Z" />
</g>
</svg>
