<?xml version="1.0" encoding="UTF-8" ?>
<!DOCTYPE svg PUBLIC "-//W3C//DTD SVG 1.1//EN" "http://www.w3.org/Graphics/SVG/1.1/DTD/svg11.dtd">
<svg width="64pt" height="64pt" viewBox="0 0 64 64" version="1.1" xmlns="http://www.w3.org/2000/svg">
<g id="#ffffffff">
<path fill="#ffffff" opacity="1.00" d=" M 0.00 0.00 L 64.00 0.00 L 64.00 34.47 C 63.60 28.98 59.47 24.77 54.55 22.86 C 50.82 13.98 38.48 11.33 30.99 16.95 C 28.17 18.94 26.92 22.26 25.69 25.33 C 23.73 26.37 21.84 27.53 20.01 28.79 C 19.96 30.51 19.92 32.24 19.90 33.97 C 17.42 33.80 13.89 35.04 13.26 31.56 C 11.26 33.08 12.24 35.78 12.03 37.90 C 13.72 37.91 15.42 37.98 17.12 38.05 C 18.34 43.35 22.57 47.96 28.18 48.45 C 32.76 48.61 36.37 52.27 41.03 51.96 C 44.57 52.13 47.75 50.42 50.52 48.40 C 57.40 48.26 63.84 42.93 64.00 35.81 L 64.00 64.00 L 0.00 64.00 L 0.00 23.75 C 1.30 23.85 2.59 23.96 3.89 24.07 C 3.88 22.73 3.90 21.39 3.94 20.06 C 2.62 20.09 1.31 20.10 -0.00 20.10 L 0.00 0.00 M 18.06 16.08 C 18.08 17.36 18.08 18.64 18.08 19.92 C 19.35 19.91 20.61 19.93 21.88 19.96 C 21.91 18.67 21.92 17.37 21.93 16.07 C 20.64 16.08 19.35 16.09 18.06 16.08 M 8.07 20.10 C 7.98 22.70 7.98 25.29 8.09 27.89 C 10.69 28.02 13.30 28.02 15.90 27.89 C 16.02 25.30 16.01 22.70 15.92 20.10 C 13.31 19.98 10.69 19.98 8.07 20.10 M 2.05 30.08 C 2.07 31.38 2.09 32.67 2.11 33.96 C 3.38 33.93 4.65 33.91 5.92 33.92 C 5.92 32.63 5.91 31.35 5.92 30.07 C 4.63 30.08 3.34 30.09 2.05 30.08 Z" />
<path fill="#ffffff" opacity="1.00" d=" M 31.56 24.36 C 34.29 22.24 37.27 20.01 40.90 20.02 C 46.06 19.80 52.14 22.62 53.41 28.02 C 54.09 30.82 52.22 33.22 50.91 35.48 C 53.55 33.60 55.42 30.87 55.84 27.60 C 57.07 30.25 58.52 33.07 57.83 36.09 C 56.89 42.15 49.79 46.26 44.08 43.95 C 41.60 43.15 40.49 40.64 39.13 38.65 C 39.11 42.77 41.91 45.82 45.52 47.36 C 40.84 48.48 35.03 48.35 31.81 44.22 C 29.79 41.94 30.20 38.79 30.93 36.09 C 28.55 38.65 27.70 42.05 28.06 45.48 C 25.81 43.70 23.12 41.91 22.49 38.90 C 20.77 32.72 26.87 26.47 33.03 27.13 C 36.67 27.09 39.86 29.04 42.44 31.44 C 40.51 27.08 36.11 24.87 31.56 24.36 Z" />
</g>
<g id="#000000ff">
<path fill="#000000" opacity="1.00" d=" M 30.99 16.95 C 38.48 11.33 50.82 13.98 54.55 22.86 C 59.47 24.77 63.60 28.98 64.00 34.47 L 64.00 35.81 C 63.84 42.93 57.40 48.26 50.52 48.40 C 47.75 50.42 44.57 52.13 41.03 51.96 C 36.37 52.27 32.76 48.61 28.18 48.45 C 22.57 47.96 18.34 43.35 17.12 38.05 C 15.42 37.98 13.72 37.91 12.03 37.90 C 12.24 35.78 11.26 33.08 13.26 31.56 C 13.89 35.04 17.42 33.80 19.90 33.97 C 19.92 32.24 19.96 30.51 20.01 28.79 C 21.84 27.53 23.73 26.37 25.69 25.33 C 26.92 22.26 28.17 18.94 30.99 16.95 M 31.56 24.36 C 36.11 24.87 40.51 27.08 42.44 31.44 C 39.86 29.04 36.67 27.09 33.03 27.13 C 26.87 26.47 20.77 32.72 22.49 38.90 C 23.12 41.91 25.81 43.70 28.06 45.48 C 27.70 42.05 28.55 38.65 30.93 36.09 C 30.20 38.79 29.79 41.94 31.81 44.22 C 35.03 48.35 40.84 48.48 45.52 47.36 C 41.91 45.82 39.11 42.77 39.13 38.65 C 40.49 40.64 41.60 43.15 44.08 43.95 C 49.79 46.26 56.89 42.15 57.83 36.09 C 58.52 33.07 57.07 30.25 55.84 27.60 C 55.42 30.87 53.55 33.60 50.91 35.48 C 52.22 33.22 54.09 30.82 53.41 28.02 C 52.14 22.62 46.06 19.80 40.90 20.02 C 37.27 20.01 34.29 22.24 31.56 24.36 Z" />
<path fill="#000000" opacity="1.00" d=" M 18.06 16.08 C 19.35 16.09 20.64 16.08 21.93 16.07 C 21.92 17.37 21.91 18.67 21.88 19.96 C 20.61 19.93 19.35 19.91 18.08 19.92 C 18.08 18.64 18.08 17.36 18.06 16.08 Z" />
<path fill="#000000" opacity="1.00" d=" M -0.00 20.10 C 1.31 20.10 2.62 20.09 3.94 20.06 C 3.90 21.39 3.88 22.73 3.89 24.07 C 2.59 23.96 1.30 23.85 0.00 23.75 L 0.00 20.10 Z" />
<path fill="#000000" opacity="1.00" d=" M 8.07 20.10 C 10.69 19.98 13.31 19.98 15.92 20.10 C 16.01 22.70 16.02 25.30 15.90 27.89 C 13.30 28.02 10.69 28.02 8.09 27.89 C 7.98 25.29 7.98 22.70 8.07 20.10 Z" />
<path fill="#000000" opacity="1.00" d=" M 2.05 30.08 C 3.34 30.09 4.63 30.08 5.92 30.07 C 5.91 31.35 5.92 32.63 5.92 33.92 C 4.65 33.91 3.38 33.93 2.11 33.96 C 2.09 32.67 2.07 31.38 2.05 30.08 Z" />
</g>
</svg>
