<?xml version="1.0" encoding="UTF-8" ?>
<!DOCTYPE svg PUBLIC "-//W3C//DTD SVG 1.1//EN" "http://www.w3.org/Graphics/SVG/1.1/DTD/svg11.dtd">
<svg width="64pt" height="64pt" viewBox="0 0 64 64" version="1.1" xmlns="http://www.w3.org/2000/svg">
<g id="#ffffffff">
<path fill="#ffffff" opacity="1.00" d=" M 0.00 0.00 L 64.00 0.00 L 64.00 64.00 L 0.00 64.00 L 0.00 0.00 M 28.19 8.10 C 25.87 8.44 24.37 10.72 24.10 12.91 C 23.67 16.40 24.90 19.80 25.88 23.09 C 23.29 20.91 20.51 18.40 16.97 18.06 C 14.51 17.70 12.04 19.56 11.74 22.03 C 11.50 24.22 11.81 26.42 11.57 28.61 C 10.93 31.29 8.43 33.20 8.09 36.00 C 7.60 38.64 9.62 41.24 12.17 41.78 C 15.05 42.41 17.92 41.44 20.67 40.68 C 18.03 43.73 14.47 48.09 16.83 52.25 C 19.61 56.25 25.11 52.85 28.65 55.30 C 31.15 56.87 34.28 59.17 37.26 57.29 C 40.09 55.78 40.08 52.25 39.91 49.49 C 44.20 53.67 50.03 55.92 55.99 56.10 C 55.99 54.76 56.00 53.43 56.01 52.10 C 50.97 51.99 46.21 50.00 42.44 46.71 C 44.99 47.75 48.36 48.84 50.62 46.58 C 53.20 44.17 52.06 40.42 52.35 37.33 C 53.31 33.83 57.42 30.63 55.40 26.74 C 52.88 22.90 47.58 23.88 43.83 24.98 C 46.46 21.97 49.85 17.14 46.60 13.39 C 43.62 10.05 38.74 13.03 35.33 10.82 C 33.09 9.66 30.90 7.70 28.19 8.10 Z" />
<path fill="#ffffff" opacity="1.00" d=" M 28.23 11.89 C 31.47 12.51 33.77 15.43 37.11 15.70 C 39.46 15.78 41.81 15.61 44.15 15.82 C 42.81 21.90 37.28 25.76 32.99 29.80 C 30.50 24.16 27.54 18.25 28.23 11.89 Z" />
<path fill="#ffffff" opacity="1.00" d=" M 15.78 21.71 C 21.43 23.21 25.16 28.12 28.76 32.37 C 23.47 34.89 17.60 39.24 11.53 37.21 C 12.97 34.19 15.64 31.52 15.63 28.00 C 15.69 25.90 15.66 23.81 15.78 21.71 Z" />
<path fill="#ffffff" opacity="1.00" d=" M 35.30 33.39 C 40.39 30.78 45.86 27.66 51.76 28.28 C 52.21 30.35 50.28 31.84 49.53 33.60 C 47.43 36.77 48.65 40.66 48.17 44.19 C 42.40 42.96 38.86 37.64 35.30 33.39 Z" />
<path fill="#ffffff" opacity="1.00" d=" M 19.73 50.23 C 21.39 44.25 26.70 40.37 31.13 36.44 C 33.51 42.00 36.50 47.78 35.78 54.03 C 32.41 53.90 30.23 50.62 26.87 50.42 C 24.49 50.25 22.11 50.37 19.73 50.23 Z" />
</g>
<g id="#000000ff">
<path fill="#000000" opacity="1.00" d=" M 28.19 8.10 C 30.90 7.70 33.09 9.66 35.33 10.82 C 38.74 13.03 43.62 10.05 46.60 13.39 C 49.85 17.14 46.46 21.97 43.83 24.98 C 47.58 23.88 52.88 22.90 55.40 26.74 C 57.42 30.63 53.31 33.83 52.35 37.33 C 52.06 40.42 53.20 44.17 50.62 46.58 C 48.36 48.84 44.99 47.75 42.44 46.71 C 46.21 50.00 50.97 51.99 56.01 52.10 C 56.00 53.43 55.99 54.76 55.99 56.10 C 50.03 55.92 44.20 53.67 39.91 49.49 C 40.08 52.25 40.09 55.78 37.26 57.29 C 34.28 59.17 31.15 56.87 28.65 55.30 C 25.11 52.85 19.61 56.25 16.83 52.25 C 14.47 48.09 18.03 43.73 20.67 40.68 C 17.92 41.44 15.05 42.41 12.17 41.78 C 9.62 41.24 7.60 38.64 8.09 36.00 C 8.43 33.20 10.93 31.29 11.57 28.61 C 11.81 26.42 11.50 24.22 11.74 22.03 C 12.04 19.56 14.51 17.70 16.97 18.06 C 20.51 18.40 23.29 20.91 25.88 23.09 C 24.90 19.80 23.67 16.40 24.10 12.91 C 24.37 10.72 25.87 8.44 28.19 8.10 M 28.23 11.89 C 27.54 18.25 30.50 24.16 32.99 29.80 C 37.28 25.76 42.81 21.90 44.15 15.82 C 41.81 15.61 39.46 15.78 37.11 15.70 C 33.77 15.43 31.47 12.51 28.23 11.89 M 15.78 21.71 C 15.66 23.81 15.69 25.90 15.63 28.00 C 15.64 31.52 12.97 34.19 11.53 37.21 C 17.60 39.24 23.47 34.89 28.76 32.37 C 25.16 28.12 21.43 23.21 15.78 21.71 M 35.30 33.39 C 38.86 37.64 42.40 42.96 48.17 44.19 C 48.65 40.66 47.43 36.77 49.53 33.60 C 50.28 31.84 52.21 30.35 51.76 28.28 C 45.86 27.66 40.39 30.78 35.30 33.39 M 19.73 50.23 C 22.11 50.37 24.49 50.25 26.87 50.42 C 30.23 50.62 32.41 53.90 35.78 54.03 C 36.50 47.78 33.51 42.00 31.13 36.44 C 26.70 40.37 21.39 44.25 19.73 50.23 Z" />
</g>
</svg>
