<?xml version="1.0" encoding="UTF-8" ?>
<!DOCTYPE svg PUBLIC "-//W3C//DTD SVG 1.1//EN" "http://www.w3.org/Graphics/SVG/1.1/DTD/svg11.dtd">
<svg width="64pt" height="64pt" viewBox="0 0 64 64" version="1.1" xmlns="http://www.w3.org/2000/svg">
<g id="#ffffffff">
<path fill="#ffffff" opacity="1.00" d=" M 0.00 0.00 L 64.00 0.00 L 64.00 64.00 L 0.00 64.00 L 0.00 0.00 M 8.40 20.15 C 6.93 29.57 10.56 38.81 14.35 47.25 C 12.91 49.27 11.74 51.51 11.77 54.07 C 26.59 54.07 41.41 54.07 56.22 54.07 C 56.38 47.91 49.21 44.29 50.03 38.01 C 50.10 32.01 50.04 26.00 50.06 20.00 C 48.70 20.00 47.33 20.00 45.96 20.00 C 45.94 20.49 45.91 21.46 45.89 21.95 C 43.93 21.95 41.96 21.94 40.00 21.92 C 40.00 23.30 40.00 24.68 40.00 26.07 C 41.98 26.06 43.96 26.07 45.94 26.07 C 45.94 30.69 45.94 35.31 45.94 39.94 C 37.98 39.93 30.02 39.93 22.06 39.94 C 22.06 35.31 22.06 30.69 22.06 26.07 C 24.04 26.07 26.02 26.06 28.00 26.07 C 28.00 24.69 28.00 23.30 28.00 21.92 C 26.04 21.94 24.07 21.95 22.11 21.95 C 22.09 21.46 22.06 20.49 22.04 20.00 C 20.67 20.00 19.30 20.00 17.94 20.00 C 17.95 25.01 17.92 30.01 17.94 35.02 C 17.92 37.76 18.32 40.64 17.06 43.20 C 14.12 36.20 11.19 28.62 12.31 20.90 C 12.76 17.12 16.29 14.63 19.89 14.30 C 24.13 13.79 29.78 13.41 32.18 17.79 L 30.00 18.05 C 30.00 22.70 30.00 27.34 30.00 31.99 C 30.50 31.99 31.50 32.01 32.00 32.01 C 32.00 33.34 32.00 34.67 32.00 36.00 C 33.33 36.00 34.67 36.00 36.00 36.00 C 36.00 34.67 36.00 33.34 36.00 32.01 C 36.50 32.01 37.50 31.99 38.00 31.99 C 38.00 27.40 38.00 22.81 38.00 18.22 C 35.04 18.38 35.53 14.72 33.73 13.26 C 29.63 9.34 23.30 9.71 18.11 10.57 C 13.27 11.35 9.08 15.22 8.40 20.15 Z" />
<path fill="#ffffff" opacity="1.00" d=" M 21.13 44.06 C 29.71 44.07 38.29 44.07 46.87 44.06 C 48.06 46.02 49.25 47.97 50.43 49.93 C 39.48 49.93 28.52 49.94 17.56 49.93 C 18.75 47.97 19.94 46.02 21.13 44.06 Z" />
</g>
<g id="#000000ff">
<path fill="#000000" opacity="1.00" d=" M 8.40 20.15 C 9.08 15.22 13.27 11.35 18.11 10.57 C 23.30 9.71 29.63 9.34 33.73 13.26 C 35.53 14.72 35.04 18.38 38.00 18.22 C 38.00 22.81 38.00 27.40 38.00 31.99 C 37.50 31.99 36.50 32.01 36.00 32.01 C 36.00 33.34 36.00 34.67 36.00 36.00 C 34.67 36.00 33.33 36.00 32.00 36.00 C 32.00 34.67 32.00 33.34 32.00 32.01 C 31.50 32.01 30.50 31.99 30.00 31.99 C 30.00 27.34 30.00 22.70 30.00 18.05 L 32.18 17.79 C 29.78 13.41 24.13 13.79 19.89 14.30 C 16.29 14.63 12.76 17.12 12.31 20.90 C 11.19 28.62 14.12 36.20 17.06 43.20 C 18.32 40.64 17.92 37.76 17.94 35.02 C 17.92 30.01 17.95 25.01 17.94 20.00 C 19.30 20.00 20.67 20.00 22.04 20.00 C 22.06 20.49 22.09 21.46 22.11 21.95 C 24.07 21.95 26.04 21.94 28.00 21.92 C 28.00 23.30 28.00 24.69 28.00 26.07 C 26.02 26.06 24.04 26.07 22.06 26.07 C 22.06 30.69 22.06 35.31 22.06 39.94 C 30.02 39.93 37.98 39.93 45.94 39.94 C 45.94 35.31 45.94 30.69 45.94 26.07 C 43.96 26.07 41.98 26.06 40.00 26.07 C 40.00 24.68 40.00 23.30 40.00 21.92 C 41.96 21.94 43.93 21.95 45.89 21.95 C 45.91 21.46 45.94 20.49 45.96 20.00 C 47.33 20.00 48.70 20.00 50.06 20.00 C 50.04 26.00 50.10 32.01 50.03 38.01 C 49.21 44.29 56.38 47.91 56.22 54.07 C 41.41 54.07 26.59 54.07 11.77 54.07 C 11.74 51.51 12.91 49.27 14.35 47.25 C 10.56 38.81 6.93 29.57 8.40 20.15 M 21.13 44.06 C 19.94 46.02 18.75 47.97 17.56 49.93 C 28.52 49.94 39.48 49.93 50.43 49.93 C 49.25 47.97 48.06 46.02 46.87 44.06 C 38.29 44.07 29.71 44.07 21.13 44.06 Z" />
</g>
</svg>
