<?xml version="1.0" encoding="UTF-8" ?>
<!DOCTYPE svg PUBLIC "-//W3C//DTD SVG 1.1//EN" "http://www.w3.org/Graphics/SVG/1.1/DTD/svg11.dtd">
<svg width="64pt" height="64pt" viewBox="0 0 64 64" version="1.1" xmlns="http://www.w3.org/2000/svg">
<g id="#ffffffff">
<path fill="#ffffff" opacity="1.00" d=" M 0.00 0.00 L 64.00 0.00 L 64.00 64.00 L 0.00 64.00 L 0.00 0.00 M 15.14 11.57 C 11.13 12.67 9.42 16.83 9.19 20.63 C 7.38 24.06 7.04 27.90 8.23 31.60 C 7.39 35.06 7.94 38.60 10.18 41.42 C 10.18 43.98 10.31 46.79 12.16 48.77 C 15.52 53.31 23.60 52.78 26.27 47.82 C 27.54 44.52 25.80 41.10 24.04 38.34 C 24.44 35.47 24.13 32.58 23.19 29.85 C 23.59 28.38 23.96 26.90 24.28 25.42 C 27.09 26.25 30.00 26.01 32.59 24.65 C 34.77 25.05 36.98 25.13 39.18 24.89 C 39.49 26.86 39.89 28.82 40.41 30.75 C 38.64 34.40 40.59 38.58 38.11 42.02 C 36.38 42.93 34.38 43.69 33.33 45.46 C 31.70 48.03 32.08 51.33 32.90 54.11 C 33.53 56.25 35.47 58.46 37.92 57.91 C 40.57 57.20 41.04 54.11 41.93 51.93 C 46.55 50.88 50.80 47.82 51.78 42.96 C 52.88 41.57 54.11 40.21 54.71 38.52 C 55.85 35.71 54.63 32.61 55.63 29.78 C 56.40 27.37 56.53 24.70 55.20 22.45 C 53.89 20.37 54.25 17.83 53.52 15.57 C 52.21 12.27 48.50 10.36 45.04 10.75 C 40.52 11.25 36.02 9.17 31.56 10.81 C 26.18 8.08 20.60 10.90 15.14 11.57 Z" />
<path fill="#ffffff" opacity="1.00" d=" M 19.89 15.14 C 23.45 12.82 27.90 12.96 31.38 15.36 C 34.38 13.55 38.02 13.59 41.14 15.08 C 43.74 14.68 47.15 13.54 49.12 15.96 C 50.63 17.66 49.65 19.89 49.25 21.81 C 52.60 24.02 52.67 28.61 50.00 31.37 C 52.42 34.39 51.36 38.72 48.04 40.54 C 47.63 42.19 47.65 44.13 46.34 45.39 C 44.27 47.63 41.06 47.87 38.22 48.17 C 37.92 49.99 37.57 51.81 37.10 53.60 C 36.16 51.72 35.36 49.29 36.70 47.40 C 37.90 45.78 40.15 46.17 41.91 45.88 C 41.60 43.04 42.83 40.58 44.97 38.77 C 42.67 36.36 43.22 33.28 45.36 30.99 C 44.50 29.27 43.73 27.50 43.04 25.71 C 44.82 25.90 46.61 26.09 48.39 26.29 C 48.33 24.99 48.28 23.69 48.23 22.39 C 45.55 22.17 42.93 21.44 41.21 19.24 C 38.81 21.50 35.15 22.52 32.68 19.78 C 29.93 22.66 25.49 22.52 22.77 19.72 C 20.75 21.11 18.42 21.89 16.00 22.20 C 16.00 23.49 16.01 24.78 16.02 26.06 C 17.50 25.89 18.99 25.71 20.48 25.53 C 19.78 27.09 19.02 28.62 18.23 30.14 C 20.76 32.91 21.08 37.23 18.22 39.92 C 21.29 40.77 22.62 43.50 22.92 46.47 C 20.74 47.95 17.32 49.09 15.28 46.79 C 13.32 45.12 14.34 42.46 14.61 40.32 C 13.47 38.68 11.60 37.14 11.80 34.93 C 11.91 33.53 13.05 32.54 13.73 31.41 C 10.75 29.16 10.28 23.97 14.36 22.59 C 13.67 20.81 12.60 18.67 13.99 16.92 C 15.23 14.82 17.80 15.03 19.89 15.14 Z" />
</g>
<g id="#000000ff">
<path fill="#000000" opacity="1.00" d=" M 15.14 11.57 C 20.60 10.90 26.18 8.08 31.56 10.81 C 36.02 9.17 40.52 11.25 45.04 10.75 C 48.50 10.36 52.21 12.27 53.52 15.57 C 54.25 17.83 53.89 20.37 55.20 22.45 C 56.53 24.70 56.40 27.37 55.63 29.78 C 54.63 32.61 55.85 35.71 54.71 38.52 C 54.11 40.21 52.88 41.57 51.78 42.96 C 50.80 47.82 46.55 50.88 41.93 51.93 C 41.04 54.11 40.57 57.20 37.92 57.91 C 35.47 58.46 33.53 56.25 32.90 54.11 C 32.08 51.33 31.70 48.03 33.33 45.46 C 34.38 43.69 36.38 42.93 38.11 42.02 C 40.59 38.58 38.64 34.40 40.41 30.75 C 39.89 28.82 39.49 26.86 39.18 24.89 C 36.98 25.13 34.77 25.05 32.59 24.65 C 30.00 26.01 27.09 26.25 24.28 25.42 C 23.96 26.90 23.59 28.38 23.19 29.85 C 24.13 32.58 24.44 35.47 24.04 38.34 C 25.80 41.10 27.54 44.52 26.27 47.82 C 23.60 52.78 15.52 53.31 12.16 48.77 C 10.31 46.79 10.18 43.98 10.18 41.42 C 7.94 38.60 7.39 35.06 8.23 31.60 C 7.04 27.90 7.38 24.06 9.19 20.63 C 9.42 16.83 11.13 12.67 15.14 11.57 M 19.89 15.14 C 17.80 15.03 15.23 14.82 13.99 16.92 C 12.60 18.67 13.67 20.81 14.36 22.59 C 10.28 23.97 10.75 29.16 13.73 31.41 C 13.05 32.54 11.91 33.53 11.80 34.93 C 11.60 37.14 13.47 38.68 14.61 40.32 C 14.34 42.46 13.32 45.12 15.28 46.79 C 17.32 49.09 20.74 47.95 22.92 46.47 C 22.62 43.50 21.29 40.77 18.22 39.92 C 21.08 37.23 20.76 32.91 18.23 30.14 C 19.02 28.62 19.78 27.09 20.48 25.53 C 18.99 25.71 17.50 25.89 16.02 26.06 C 16.01 24.78 16.00 23.49 16.00 22.20 C 18.42 21.89 20.75 21.11 22.77 19.72 C 25.49 22.52 29.93 22.66 32.68 19.78 C 35.15 22.52 38.81 21.50 41.21 19.24 C 42.93 21.44 45.55 22.17 48.23 22.39 C 48.28 23.69 48.33 24.99 48.39 26.29 C 46.61 26.09 44.82 25.90 43.04 25.71 C 43.73 27.50 44.50 29.27 45.36 30.99 C 43.22 33.28 42.67 36.36 44.97 38.77 C 42.83 40.58 41.60 43.04 41.91 45.88 C 40.15 46.17 37.90 45.78 36.70 47.40 C 35.36 49.29 36.16 51.72 37.10 53.60 C 37.57 51.81 37.92 49.99 38.22 48.17 C 41.06 47.87 44.27 47.63 46.34 45.39 C 47.65 44.13 47.63 42.19 48.04 40.54 C 51.36 38.72 52.42 34.39 50.00 31.37 C 52.67 28.61 52.60 24.02 49.25 21.81 C 49.65 19.89 50.63 17.66 49.12 15.96 C 47.15 13.54 43.74 14.68 41.14 15.08 C 38.02 13.59 34.38 13.55 31.38 15.36 C 27.90 12.96 23.45 12.82 19.89 15.14 Z" />
</g>
</svg>
