<?xml version="1.0" encoding="UTF-8" ?>
<!DOCTYPE svg PUBLIC "-//W3C//DTD SVG 1.1//EN" "http://www.w3.org/Graphics/SVG/1.1/DTD/svg11.dtd">
<svg width="64pt" height="64pt" viewBox="0 0 64 64" version="1.1" xmlns="http://www.w3.org/2000/svg">
<g id="#ffffffff">
<path fill="#ffffff" opacity="1.00" d=" M 0.00 0.00 L 64.00 0.00 L 64.00 64.00 L 0.00 64.00 L 0.00 0.00 M 26.41 8.67 C 19.80 10.24 13.95 14.76 10.80 20.78 C 7.33 27.23 7.09 35.28 10.16 41.92 C 13.49 49.36 20.84 54.80 28.93 55.78 C 37.39 56.96 46.29 53.16 51.28 46.23 C 57.83 37.69 57.44 24.77 50.40 16.63 C 44.77 9.70 35.07 6.51 26.41 8.67 Z" />
<path fill="#ffffff" opacity="1.00" d=" M 29.23 12.19 C 35.10 11.36 41.31 13.26 45.62 17.35 C 50.70 21.98 53.02 29.35 51.57 36.06 C 50.09 43.71 43.71 50.10 36.06 51.57 C 29.34 53.02 21.97 50.69 17.34 45.60 C 12.50 40.51 10.78 32.75 12.90 26.07 C 15.05 18.79 21.71 13.15 29.23 12.19 M 22.13 22.12 C 19.27 24.42 19.24 29.70 22.23 31.91 C 27.37 32.34 27.30 21.49 22.13 22.12 M 40.18 22.11 C 37.26 24.36 37.25 29.65 40.19 31.88 C 45.34 32.41 45.32 21.57 40.18 22.11 M 40.43 37.09 C 38.89 38.44 37.31 40.33 35.00 39.94 C 32.38 39.24 29.85 37.63 27.03 38.23 C 24.16 38.66 22.00 40.73 20.22 42.86 C 21.32 43.56 22.42 44.27 23.52 44.97 C 25.46 42.77 28.45 41.07 31.25 42.93 C 35.76 45.38 41.13 43.06 43.84 39.08 C 42.71 38.41 41.57 37.74 40.43 37.09 Z" />
</g>
<g id="#000000ff">
<path fill="#000000" opacity="1.00" d=" M 26.41 8.67 C 35.07 6.51 44.77 9.70 50.40 16.63 C 57.44 24.77 57.83 37.69 51.28 46.23 C 46.29 53.16 37.39 56.96 28.93 55.78 C 20.84 54.80 13.49 49.36 10.16 41.92 C 7.09 35.28 7.33 27.23 10.80 20.78 C 13.95 14.76 19.80 10.24 26.41 8.67 M 29.23 12.19 C 21.71 13.15 15.05 18.79 12.90 26.07 C 10.78 32.75 12.50 40.51 17.34 45.60 C 21.97 50.69 29.34 53.02 36.06 51.57 C 43.71 50.10 50.09 43.71 51.57 36.06 C 53.02 29.35 50.70 21.98 45.62 17.35 C 41.31 13.26 35.10 11.36 29.23 12.19 Z" />
<path fill="#000000" opacity="1.00" d=" M 22.13 22.12 C 27.30 21.49 27.37 32.34 22.23 31.91 C 19.24 29.70 19.27 24.42 22.13 22.12 Z" />
<path fill="#000000" opacity="1.00" d=" M 40.18 22.11 C 45.32 21.57 45.34 32.41 40.19 31.88 C 37.25 29.65 37.26 24.36 40.18 22.11 Z" />
<path fill="#000000" opacity="1.00" d=" M 40.43 37.09 C 41.57 37.74 42.71 38.41 43.84 39.08 C 41.13 43.06 35.76 45.38 31.25 42.93 C 28.45 41.07 25.46 42.77 23.52 44.97 C 22.42 44.27 21.32 43.56 20.22 42.86 C 22.00 40.73 24.16 38.66 27.03 38.23 C 29.85 37.63 32.38 39.24 35.00 39.94 C 37.31 40.33 38.89 38.44 40.43 37.09 Z" />
</g>
</svg>
