<?xml version="1.0" encoding="UTF-8" ?>
<!DOCTYPE svg PUBLIC "-//W3C//DTD SVG 1.1//EN" "http://www.w3.org/Graphics/SVG/1.1/DTD/svg11.dtd">
<svg width="64pt" height="64pt" viewBox="0 0 64 64" version="1.1" xmlns="http://www.w3.org/2000/svg">
<g id="#ffffffff">
<path fill="#ffffff" opacity="1.00" d=" M 0.00 0.00 L 64.00 0.00 L 64.00 64.00 L 0.00 64.00 L 0.00 0.00 M 26.50 8.64 C 15.56 11.04 7.30 21.87 8.04 33.07 C 8.33 41.93 14.04 50.27 22.13 53.85 C 30.08 57.55 40.04 56.34 46.86 50.81 C 52.53 46.36 56.03 39.25 55.98 32.03 C 56.04 25.02 52.78 18.10 47.39 13.62 C 41.74 8.77 33.73 6.92 26.50 8.64 Z" />
<path fill="#ffffff" opacity="1.00" d=" M 14.61 21.96 C 18.28 16.02 24.89 11.89 31.97 12.03 C 39.08 11.87 45.71 16.02 49.41 21.97 C 37.81 22.02 26.21 22.04 14.61 21.96 Z" />
<path fill="#ffffff" opacity="1.00" d=" M 20.60 48.43 C 13.43 43.65 10.43 34.17 12.81 25.99 C 13.57 26.00 15.10 26.00 15.86 26.00 C 16.00 28.06 16.03 30.70 18.32 31.60 C 21.10 32.36 24.11 32.04 26.97 31.84 C 29.72 31.36 30.10 28.28 30.14 26.00 C 31.38 26.00 32.62 26.00 33.86 26.00 C 33.87 28.30 34.29 31.28 37.01 31.84 C 39.88 32.05 42.90 32.34 45.71 31.61 C 47.96 30.69 47.99 28.04 48.14 26.00 C 48.90 26.00 50.43 26.00 51.19 25.99 C 53.13 33.00 51.45 41.01 46.15 46.12 C 39.64 52.91 28.22 53.92 20.60 48.43 M 42.37 34.00 C 41.55 35.26 40.62 36.56 39.15 37.11 C 33.76 39.44 27.79 39.77 22.00 40.04 C 22.00 41.37 22.00 42.70 22.00 44.03 C 28.57 43.71 35.48 43.44 41.45 40.37 C 43.97 39.14 45.67 36.76 46.25 34.04 C 44.96 34.03 43.66 34.01 42.37 34.00 Z" />
</g>
<g id="#000000ff">
<path fill="#000000" opacity="1.00" d=" M 26.50 8.64 C 33.73 6.92 41.74 8.77 47.39 13.62 C 52.78 18.10 56.04 25.02 55.98 32.03 C 56.03 39.25 52.53 46.36 46.86 50.81 C 40.04 56.34 30.08 57.55 22.13 53.85 C 14.04 50.27 8.33 41.93 8.04 33.07 C 7.30 21.87 15.56 11.04 26.50 8.64 M 14.61 21.96 C 26.21 22.04 37.81 22.02 49.41 21.97 C 45.71 16.02 39.08 11.87 31.97 12.03 C 24.89 11.89 18.28 16.02 14.61 21.96 M 20.60 48.43 C 28.22 53.92 39.64 52.91 46.15 46.12 C 51.45 41.01 53.13 33.00 51.19 25.99 C 50.43 26.00 48.90 26.00 48.14 26.00 C 47.99 28.04 47.96 30.69 45.71 31.61 C 42.90 32.34 39.88 32.05 37.01 31.84 C 34.29 31.28 33.87 28.30 33.86 26.00 C 32.62 26.00 31.38 26.00 30.14 26.00 C 30.10 28.28 29.72 31.36 26.97 31.84 C 24.11 32.04 21.10 32.36 18.32 31.60 C 16.03 30.70 16.00 28.06 15.86 26.00 C 15.10 26.00 13.57 26.00 12.81 25.99 C 10.43 34.17 13.43 43.65 20.60 48.43 Z" />
<path fill="#000000" opacity="1.00" d=" M 42.37 34.00 C 43.66 34.01 44.96 34.03 46.25 34.04 C 45.67 36.76 43.97 39.14 41.45 40.37 C 35.48 43.44 28.57 43.71 22.00 44.03 C 22.00 42.70 22.00 41.37 22.00 40.04 C 27.79 39.77 33.76 39.44 39.15 37.11 C 40.62 36.56 41.55 35.26 42.37 34.00 Z" />
</g>
</svg>
