<?xml version="1.0" encoding="UTF-8" ?>
<!DOCTYPE svg PUBLIC "-//W3C//DTD SVG 1.1//EN" "http://www.w3.org/Graphics/SVG/1.1/DTD/svg11.dtd">
<svg width="64pt" height="64pt" viewBox="0 0 64 64" version="1.1" xmlns="http://www.w3.org/2000/svg">
<g id="#ffffffff">
<path fill="#ffffff" opacity="1.00" d=" M 0.00 0.00 L 64.00 0.00 L 64.00 64.00 L 0.00 64.00 L 0.00 0.00 M 23.00 30.95 C 18.14 35.51 11.70 37.65 5.93 40.78 C 5.09 50.31 13.73 58.83 23.22 58.07 C 25.62 53.53 27.59 48.75 30.27 44.37 C 39.46 33.05 48.73 21.81 57.99 10.55 C 56.48 9.03 54.97 7.52 53.47 6.00 C 43.25 14.24 33.16 22.63 23.00 30.95 Z" />
<path fill="#ffffff" opacity="1.00" d=" M 35.08 26.20 C 40.05 22.14 45.02 18.07 50.00 14.01 C 45.95 18.99 41.89 23.96 37.82 28.93 C 36.90 28.02 35.99 27.11 35.08 26.20 Z" />
<path fill="#ffffff" opacity="1.00" d=" M 23.01 36.13 C 25.99 33.69 28.97 31.25 31.95 28.82 C 33.02 29.90 34.10 30.98 35.19 32.06 C 32.76 35.05 30.32 38.02 27.88 41.00 C 26.26 39.37 24.64 37.75 23.01 36.13 Z" />
<path fill="#ffffff" opacity="1.00" d=" M 10.21 43.14 C 13.34 41.61 16.44 40.02 19.54 38.44 C 21.58 40.43 23.59 42.44 25.57 44.50 C 23.96 47.61 22.41 50.76 20.83 53.88 C 17.94 53.45 15.24 52.24 13.14 50.18 C 15.14 48.65 17.16 47.14 19.18 45.63 C 18.39 44.55 17.60 43.46 16.81 42.37 C 14.90 43.84 12.98 45.28 11.05 46.72 C 10.84 45.82 10.42 44.03 10.21 43.14 Z" />
</g>
<g id="#000000ff">
<path fill="#000000" opacity="1.00" d=" M 23.00 30.95 C 33.16 22.63 43.25 14.24 53.47 6.00 C 54.97 7.52 56.48 9.03 57.99 10.55 C 48.73 21.81 39.46 33.05 30.27 44.37 C 27.59 48.75 25.62 53.53 23.22 58.07 C 13.73 58.83 5.09 50.31 5.93 40.78 C 11.70 37.65 18.14 35.51 23.00 30.95 M 35.08 26.20 C 35.99 27.11 36.90 28.02 37.82 28.93 C 41.89 23.96 45.95 18.99 50.00 14.01 C 45.02 18.07 40.05 22.14 35.08 26.20 M 23.01 36.13 C 24.64 37.75 26.26 39.37 27.88 41.00 C 30.32 38.02 32.76 35.05 35.19 32.06 C 34.10 30.98 33.02 29.90 31.95 28.82 C 28.97 31.25 25.99 33.69 23.01 36.13 M 10.21 43.14 C 10.42 44.03 10.84 45.82 11.05 46.72 C 12.98 45.28 14.90 43.84 16.81 42.37 C 17.60 43.46 18.39 44.55 19.18 45.63 C 17.16 47.14 15.14 48.65 13.14 50.18 C 15.24 52.24 17.94 53.45 20.83 53.88 C 22.41 50.76 23.96 47.61 25.57 44.50 C 23.59 42.44 21.58 40.43 19.54 38.44 C 16.44 40.02 13.34 41.61 10.21 43.14 Z" />
</g>
</svg>
