<?xml version="1.0" encoding="UTF-8" ?>
<!DOCTYPE svg PUBLIC "-//W3C//DTD SVG 1.1//EN" "http://www.w3.org/Graphics/SVG/1.1/DTD/svg11.dtd">
<svg width="64pt" height="64pt" viewBox="0 0 64 64" version="1.1" xmlns="http://www.w3.org/2000/svg">
<g id="#ffffffff">
<path fill="#ffffff" opacity="1.00" d=" M 0.00 0.00 L 64.00 0.00 L 64.00 64.00 L 0.00 64.00 L 0.00 0.00 M 34.17 8.26 C 32.13 8.81 30.89 10.65 29.27 11.85 C 26.48 12.20 23.50 12.37 21.19 14.17 C 17.33 16.71 15.61 21.49 16.06 25.99 C 13.88 28.61 13.45 32.17 15.25 35.12 C 13.60 38.47 13.73 42.34 15.50 45.61 C 12.53 48.59 9.57 51.58 6.57 54.53 C 7.54 55.50 8.50 56.47 9.46 57.43 C 12.43 54.54 15.27 51.50 18.29 48.65 C 22.38 50.48 27.20 50.43 30.68 47.32 C 35.58 49.34 40.81 46.45 43.26 42.13 C 45.58 41.85 48.08 41.41 49.71 39.56 C 52.19 37.17 51.66 33.36 53.37 30.52 C 54.48 28.70 53.71 26.64 53.14 24.79 C 55.86 21.65 57.02 16.98 54.76 13.25 C 52.21 8.25 45.54 6.63 40.80 9.48 C 38.74 8.59 36.46 7.47 34.17 8.26 Z" />
<path fill="#ffffff" opacity="1.00" d=" M 31.51 16.53 C 32.24 14.17 33.96 11.31 36.91 12.11 C 39.89 12.68 40.38 16.14 39.54 18.58 C 40.60 19.30 41.65 20.02 42.72 20.74 C 44.06 18.09 44.18 15.15 43.45 12.31 C 46.66 11.45 50.63 12.57 51.67 16.05 C 52.97 19.31 50.62 22.24 48.12 24.02 C 50.36 26.39 50.50 29.82 47.86 31.97 C 48.55 34.82 47.11 37.41 44.34 38.31 C 43.75 35.07 42.47 31.91 39.81 29.82 C 39.09 30.87 38.38 31.91 37.67 32.95 C 40.15 35.40 40.98 39.76 38.19 42.31 C 35.90 44.70 32.35 44.06 29.72 42.64 C 28.34 43.91 27.08 45.60 25.10 45.88 C 21.54 46.70 17.86 43.60 18.00 39.97 C 17.91 37.86 19.48 36.29 20.56 34.66 C 19.70 33.50 17.91 32.65 18.03 31.02 C 17.82 29.34 19.63 28.53 20.58 27.48 C 19.57 24.15 19.95 20.12 22.88 17.86 C 25.24 15.70 28.60 15.88 31.51 16.53 M 32.35 25.00 C 31.69 26.54 30.53 27.68 29.00 28.35 C 29.01 29.65 29.03 30.95 29.05 32.25 C 32.83 31.72 35.72 28.83 36.25 25.06 C 34.95 25.03 33.65 25.01 32.35 25.00 Z" />
</g>
<g id="#000000ff">
<path fill="#000000" opacity="1.00" d=" M 34.17 8.26 C 36.46 7.47 38.74 8.59 40.80 9.48 C 45.54 6.63 52.21 8.25 54.76 13.25 C 57.02 16.98 55.86 21.65 53.14 24.79 C 53.71 26.64 54.48 28.70 53.37 30.52 C 51.66 33.36 52.19 37.17 49.71 39.56 C 48.08 41.41 45.58 41.85 43.26 42.13 C 40.81 46.45 35.58 49.34 30.68 47.32 C 27.20 50.43 22.38 50.48 18.29 48.65 C 15.27 51.50 12.43 54.54 9.46 57.43 C 8.50 56.47 7.54 55.50 6.57 54.53 C 9.57 51.58 12.53 48.59 15.50 45.61 C 13.73 42.34 13.60 38.47 15.25 35.12 C 13.45 32.17 13.88 28.61 16.06 25.99 C 15.61 21.49 17.33 16.71 21.19 14.17 C 23.50 12.37 26.48 12.20 29.27 11.85 C 30.89 10.65 32.13 8.81 34.17 8.26 M 31.51 16.53 C 28.60 15.88 25.24 15.70 22.88 17.86 C 19.95 20.12 19.57 24.15 20.58 27.48 C 19.63 28.53 17.82 29.34 18.03 31.02 C 17.91 32.65 19.70 33.50 20.56 34.66 C 19.48 36.29 17.91 37.86 18.00 39.97 C 17.86 43.60 21.54 46.70 25.10 45.88 C 27.08 45.60 28.34 43.91 29.72 42.64 C 32.35 44.06 35.90 44.70 38.19 42.31 C 40.98 39.76 40.15 35.40 37.67 32.95 C 38.38 31.91 39.09 30.87 39.81 29.82 C 42.47 31.91 43.75 35.07 44.34 38.31 C 47.11 37.41 48.55 34.82 47.86 31.97 C 50.50 29.82 50.36 26.39 48.12 24.02 C 50.62 22.24 52.97 19.31 51.67 16.05 C 50.63 12.57 46.66 11.45 43.45 12.31 C 44.18 15.15 44.06 18.09 42.72 20.74 C 41.65 20.02 40.60 19.30 39.54 18.58 C 40.38 16.14 39.89 12.68 36.91 12.11 C 33.96 11.31 32.24 14.17 31.51 16.53 Z" />
<path fill="#000000" opacity="1.00" d=" M 32.35 25.00 C 33.65 25.01 34.95 25.03 36.25 25.06 C 35.72 28.83 32.83 31.72 29.05 32.25 C 29.03 30.95 29.01 29.65 29.00 28.35 C 30.53 27.68 31.69 26.54 32.35 25.00 Z" />
</g>
</svg>
