<?xml version="1.0" encoding="UTF-8" ?>
<!DOCTYPE svg PUBLIC "-//W3C//DTD SVG 1.1//EN" "http://www.w3.org/Graphics/SVG/1.1/DTD/svg11.dtd">
<svg width="64pt" height="64pt" viewBox="0 0 64 64" version="1.1" xmlns="http://www.w3.org/2000/svg">
<g id="#ffffffff">
<path fill="#ffffff" opacity="1.00" d=" M 0.00 0.00 L 64.00 0.00 L 64.00 64.00 L 0.00 64.00 L 0.00 0.00 M 10.00 9.60 C 10.02 24.40 9.97 39.20 10.01 54.00 C 24.67 53.98 39.33 54.03 54.00 53.99 C 53.99 39.32 54.02 24.65 53.99 9.98 C 48.21 10.02 42.43 10.08 36.65 10.14 C 36.29 11.70 35.58 14.82 35.22 16.38 C 33.15 15.60 31.08 14.71 29.25 13.46 C 24.32 8.10 16.35 10.72 10.00 9.60 Z" />
<path fill="#ffffff" opacity="1.00" d=" M 13.97 13.83 C 16.90 14.20 22.76 14.94 25.69 15.32 C 23.63 18.80 19.62 19.37 16.21 20.74 C 16.12 21.80 16.02 22.85 15.93 23.90 C 18.62 23.94 21.31 23.98 24.00 24.02 C 23.99 30.01 23.99 36.01 24.00 42.00 C 21.34 42.00 18.67 42.00 16.00 42.00 C 16.00 43.33 16.00 44.67 16.00 46.00 C 18.67 46.00 21.33 46.00 24.00 46.00 C 24.00 47.33 24.00 48.67 24.00 50.00 C 21.50 50.00 16.50 50.00 14.00 50.00 C 14.00 37.94 14.00 25.89 13.97 13.83 Z" />
<path fill="#ffffff" opacity="1.00" d=" M 39.97 13.83 C 42.90 14.20 48.76 14.94 51.69 15.32 C 49.63 18.80 45.62 19.37 42.21 20.74 C 42.12 21.80 42.02 22.85 41.93 23.90 C 44.62 23.94 47.31 23.98 50.00 24.02 C 49.99 30.01 49.99 36.01 50.00 42.00 C 47.33 42.00 44.67 42.00 42.00 42.00 C 42.00 43.33 42.00 44.67 42.00 46.00 C 44.67 46.00 47.33 46.00 50.00 46.00 C 50.00 47.33 50.00 48.67 50.00 50.00 C 47.50 50.00 42.50 50.00 40.00 50.00 C 40.00 37.94 40.00 25.89 39.97 13.83 Z" />
<path fill="#ffffff" opacity="1.00" d=" M 27.98 19.64 C 30.97 20.02 33.95 20.42 36.93 20.85 C 34.59 22.58 32.11 24.09 29.68 25.67 C 31.84 26.64 34.04 27.52 36.23 28.45 C 35.15 33.61 39.06 43.31 30.16 42.84 C 30.19 43.62 30.22 44.39 30.25 45.16 C 32.50 46.20 34.76 47.29 36.92 48.51 C 33.95 49.10 30.97 49.68 27.99 50.25 C 28.02 40.05 28.01 29.85 27.98 19.64 Z" />
</g>
<g id="#000000ff">
<path fill="#000000" opacity="1.00" d=" M 10.00 9.60 C 16.35 10.72 24.32 8.10 29.25 13.46 C 31.08 14.71 33.15 15.60 35.22 16.38 C 35.58 14.82 36.29 11.70 36.65 10.14 C 42.43 10.08 48.21 10.02 53.99 9.98 C 54.02 24.65 53.99 39.32 54.00 53.99 C 39.33 54.03 24.67 53.98 10.01 54.00 C 9.97 39.20 10.02 24.40 10.00 9.60 M 13.97 13.83 C 14.00 25.89 14.00 37.94 14.00 50.00 C 16.50 50.00 21.50 50.00 24.00 50.00 C 24.00 48.67 24.00 47.33 24.00 46.00 C 21.33 46.00 18.67 46.00 16.00 46.00 C 16.00 44.67 16.00 43.33 16.00 42.00 C 18.67 42.00 21.34 42.00 24.00 42.00 C 23.99 36.01 23.99 30.01 24.00 24.02 C 21.31 23.98 18.62 23.94 15.93 23.90 C 16.02 22.85 16.12 21.80 16.21 20.74 C 19.62 19.37 23.63 18.80 25.69 15.32 C 22.76 14.94 16.90 14.20 13.97 13.83 M 39.97 13.83 C 40.00 25.89 40.00 37.94 40.00 50.00 C 42.50 50.00 47.50 50.00 50.00 50.00 C 50.00 48.67 50.00 47.33 50.00 46.00 C 47.33 46.00 44.67 46.00 42.00 46.00 C 42.00 44.67 42.00 43.33 42.00 42.00 C 44.67 42.00 47.33 42.00 50.00 42.00 C 49.99 36.01 49.99 30.01 50.00 24.02 C 47.31 23.98 44.62 23.94 41.93 23.90 C 42.02 22.85 42.12 21.80 42.21 20.74 C 45.62 19.37 49.63 18.80 51.69 15.32 C 48.76 14.94 42.90 14.20 39.97 13.83 M 27.98 19.64 C 28.01 29.85 28.02 40.05 27.99 50.25 C 30.97 49.68 33.95 49.10 36.92 48.51 C 34.76 47.29 32.50 46.20 30.25 45.16 C 30.22 44.39 30.19 43.62 30.16 42.84 C 39.06 43.31 35.15 33.61 36.23 28.45 C 34.04 27.52 31.84 26.64 29.68 25.67 C 32.11 24.09 34.59 22.58 36.93 20.85 C 33.95 20.42 30.97 20.02 27.98 19.64 Z" />
</g>
</svg>
