<?xml version="1.0" encoding="UTF-8" ?>
<!DOCTYPE svg PUBLIC "-//W3C//DTD SVG 1.1//EN" "http://www.w3.org/Graphics/SVG/1.1/DTD/svg11.dtd">
<svg width="64pt" height="64pt" viewBox="0 0 64 64" version="1.1" xmlns="http://www.w3.org/2000/svg">
<g id="#ffffffff">
<path fill="#ffffff" opacity="1.00" d=" M 0.00 0.00 L 64.00 0.00 L 64.00 64.00 L 0.00 64.00 L 0.00 60.00 C 7.51 59.56 15.27 61.05 22.59 58.92 C 27.87 60.62 33.56 60.07 39.01 59.80 C 46.51 57.36 54.44 56.92 62.16 55.46 C 60.53 48.79 58.93 42.12 57.33 35.45 C 56.83 33.58 56.37 31.49 54.74 30.25 C 52.79 28.54 50.04 29.19 47.68 29.14 C 46.46 21.32 45.21 13.51 43.98 5.69 C 42.66 5.90 41.34 6.10 40.02 6.31 C 41.28 14.11 42.46 21.93 43.77 29.72 C 41.66 30.47 39.04 30.70 37.61 32.66 C 35.96 34.67 36.57 37.42 36.50 39.80 C 34.51 40.19 32.16 40.10 30.65 41.68 C 29.17 43.23 28.16 45.15 26.81 46.81 C 26.88 42.50 27.72 38.25 27.92 33.96 C 28.07 30.36 25.31 27.02 21.85 26.24 C 18.03 25.23 13.66 27.57 12.51 31.37 C 11.92 33.53 11.79 35.79 11.50 38.00 C 7.67 38.00 3.83 38.00 0.00 38.00 L 0.00 0.00 Z" />
<path fill="#ffffff" opacity="1.00" d=" M 16.37 32.31 C 17.67 28.89 23.34 29.47 23.88 33.11 C 23.92 37.21 23.03 41.24 22.76 45.32 C 20.24 44.05 17.40 43.64 14.78 44.88 C 15.41 40.70 15.49 36.44 16.37 32.31 Z" />
<path fill="#ffffff" opacity="1.00" d=" M 40.73 34.93 C 44.28 33.63 48.17 33.28 51.93 33.04 C 52.70 34.08 53.29 35.22 53.70 36.47 C 49.25 37.33 44.77 38.03 40.28 38.59 C 40.39 37.68 40.62 35.85 40.73 34.93 Z" />
<path fill="#ffffff" opacity="1.00" d=" M 40.41 42.78 C 45.06 41.89 49.75 41.25 54.42 40.48 C 55.36 44.38 56.30 48.28 57.25 52.18 C 55.98 52.38 54.72 52.58 53.46 52.78 C 53.15 50.80 52.83 48.83 52.52 46.86 C 51.21 47.07 49.89 47.27 48.57 47.49 C 48.88 49.45 49.19 51.42 49.51 53.38 C 48.61 53.53 46.83 53.83 45.94 53.98 C 47.03 49.12 43.02 46.11 40.41 42.78 Z" />
<path fill="#ffffff" opacity="1.00" d=" M 4.00 42.00 C 6.37 42.00 8.73 42.00 11.10 42.00 C 10.79 44.83 10.46 47.66 10.16 50.50 C 11.35 50.68 12.55 50.86 13.75 51.03 C 15.04 49.13 17.24 47.07 19.70 48.37 C 23.03 49.73 22.56 55.22 18.97 55.84 C 13.99 56.23 8.99 55.89 4.00 56.00 C 4.00 51.33 4.00 46.67 4.00 42.00 Z" />
<path fill="#ffffff" opacity="1.00" d=" M 32.19 48.90 C 32.03 47.16 31.91 44.68 34.09 44.17 C 36.43 43.23 37.92 45.41 38.48 47.34 C 42.00 48.48 43.50 53.85 39.71 55.62 C 35.05 56.44 30.23 55.90 25.51 55.86 C 25.73 53.82 26.05 51.79 26.36 49.75 C 27.45 50.11 28.53 50.51 29.60 50.94 C 30.46 50.26 31.34 49.59 32.19 48.90 Z" />
</g>
<g id="#000000ff">
<path fill="#000000" opacity="1.00" d=" M 40.02 6.31 C 41.34 6.10 42.66 5.90 43.98 5.69 C 45.21 13.51 46.46 21.32 47.68 29.14 C 50.04 29.19 52.79 28.54 54.74 30.25 C 56.37 31.49 56.83 33.58 57.33 35.45 C 58.93 42.12 60.53 48.79 62.16 55.46 C 54.44 56.92 46.51 57.36 39.01 59.80 C 33.56 60.07 27.87 60.62 22.59 58.92 C 15.27 61.05 7.51 59.56 0.00 60.00 L 0.00 38.00 C 3.83 38.00 7.67 38.00 11.50 38.00 C 11.79 35.79 11.92 33.53 12.51 31.37 C 13.66 27.57 18.03 25.23 21.85 26.24 C 25.31 27.02 28.07 30.36 27.92 33.96 C 27.72 38.25 26.88 42.50 26.81 46.81 C 28.16 45.15 29.17 43.23 30.65 41.68 C 32.16 40.10 34.51 40.19 36.50 39.80 C 36.57 37.42 35.96 34.67 37.61 32.66 C 39.04 30.70 41.66 30.47 43.77 29.72 C 42.46 21.93 41.28 14.11 40.02 6.31 M 16.37 32.31 C 15.49 36.44 15.41 40.70 14.78 44.88 C 17.40 43.64 20.24 44.05 22.76 45.32 C 23.03 41.24 23.92 37.21 23.88 33.11 C 23.34 29.47 17.67 28.89 16.37 32.31 M 40.73 34.93 C 40.62 35.85 40.39 37.68 40.28 38.59 C 44.77 38.03 49.25 37.33 53.70 36.47 C 53.29 35.22 52.70 34.08 51.93 33.04 C 48.17 33.28 44.28 33.63 40.73 34.93 M 40.41 42.78 C 43.02 46.11 47.03 49.12 45.94 53.98 C 46.83 53.83 48.61 53.53 49.51 53.38 C 49.19 51.42 48.88 49.45 48.57 47.49 C 49.89 47.27 51.21 47.07 52.52 46.86 C 52.83 48.83 53.15 50.80 53.46 52.78 C 54.72 52.58 55.98 52.38 57.25 52.18 C 56.30 48.28 55.36 44.38 54.42 40.48 C 49.75 41.25 45.06 41.89 40.41 42.78 M 4.00 42.00 C 4.00 46.67 4.00 51.33 4.00 56.00 C 8.99 55.89 13.99 56.23 18.97 55.84 C 22.56 55.22 23.03 49.73 19.70 48.37 C 17.24 47.07 15.04 49.13 13.75 51.03 C 12.55 50.86 11.35 50.68 10.16 50.50 C 10.46 47.66 10.79 44.83 11.10 42.00 C 8.73 42.00 6.37 42.00 4.00 42.00 M 32.19 48.90 C 31.34 49.59 30.46 50.26 29.60 50.94 C 28.53 50.51 27.45 50.11 26.36 49.75 C 26.05 51.79 25.73 53.82 25.51 55.86 C 30.23 55.90 35.05 56.44 39.71 55.62 C 43.50 53.85 42.00 48.48 38.48 47.34 C 37.92 45.41 36.43 43.23 34.09 44.17 C 31.91 44.68 32.03 47.16 32.19 48.90 Z" />
</g>
</svg>
