<?xml version="1.0" encoding="UTF-8" ?>
<!DOCTYPE svg PUBLIC "-//W3C//DTD SVG 1.1//EN" "http://www.w3.org/Graphics/SVG/1.1/DTD/svg11.dtd">
<svg width="64pt" height="64pt" viewBox="0 0 64 64" version="1.1" xmlns="http://www.w3.org/2000/svg">
<g id="#ffffffff">
<path fill="#ffffff" opacity="1.00" d=" M 0.00 0.00 L 64.00 0.00 L 64.00 64.00 L 0.00 64.00 L 0.00 0.00 M 25.99 8.67 C 26.00 9.47 26.01 11.07 26.01 11.88 C 31.50 13.26 36.14 18.14 35.97 24.01 C 36.19 31.17 28.98 37.24 21.95 35.80 C 16.88 35.06 13.16 30.79 11.87 26.01 C 11.07 26.01 9.47 26.00 8.66 25.99 C 6.34 35.52 10.14 46.23 18.36 51.71 C 25.90 57.08 36.57 57.38 44.43 52.51 C 51.78 48.09 56.43 39.53 55.95 30.94 C 55.68 22.84 50.90 15.13 43.86 11.14 C 38.49 8.01 32.01 7.39 25.99 8.67 Z" />
<path fill="#ffffff" opacity="1.00" d=" M 35.08 12.46 C 40.74 13.68 46.11 16.88 49.15 21.90 C 53.76 29.18 52.59 39.39 46.67 45.58 C 41.43 51.38 32.62 53.56 25.30 50.81 C 18.53 48.40 13.85 42.00 12.46 35.08 C 15.70 37.84 19.63 40.13 24.02 39.99 C 32.53 40.17 40.20 32.50 39.99 23.99 C 40.12 19.60 37.82 15.69 35.08 12.46 Z" />
</g>
<g id="#000000ff">
<path fill="#000000" opacity="1.00" d=" M 25.99 8.67 C 32.01 7.39 38.49 8.01 43.86 11.14 C 50.90 15.13 55.68 22.84 55.95 30.94 C 56.43 39.53 51.78 48.09 44.43 52.51 C 36.57 57.38 25.90 57.08 18.36 51.71 C 10.14 46.23 6.34 35.52 8.66 25.99 C 9.47 26.00 11.07 26.01 11.87 26.01 C 13.16 30.79 16.88 35.06 21.95 35.80 C 28.98 37.24 36.19 31.17 35.97 24.01 C 36.14 18.14 31.50 13.26 26.01 11.88 C 26.01 11.07 26.00 9.47 25.99 8.67 M 35.08 12.46 C 37.82 15.69 40.12 19.60 39.99 23.99 C 40.20 32.50 32.53 40.17 24.02 39.99 C 19.63 40.13 15.70 37.84 12.46 35.08 C 13.85 42.00 18.53 48.40 25.30 50.81 C 32.62 53.56 41.43 51.38 46.67 45.58 C 52.59 39.39 53.76 29.18 49.15 21.90 C 46.11 16.88 40.74 13.68 35.08 12.46 Z" />
</g>
</svg>
