<?xml version="1.0" encoding="UTF-8" ?>
<!DOCTYPE svg PUBLIC "-//W3C//DTD SVG 1.1//EN" "http://www.w3.org/Graphics/SVG/1.1/DTD/svg11.dtd">
<svg width="64pt" height="64pt" viewBox="0 0 64 64" version="1.1" xmlns="http://www.w3.org/2000/svg">
<g id="#ffffffff">
<path fill="#ffffff" opacity="1.00" d=" M 0.00 0.00 L 64.00 0.00 L 64.00 64.00 L 0.00 64.00 L 0.00 0.00 M 4.00 12.00 C 4.00 25.33 4.00 38.67 4.00 52.00 C 22.67 52.00 41.33 52.00 60.00 52.00 C 60.00 38.67 60.00 25.33 60.00 12.00 C 41.33 12.00 22.67 12.00 4.00 12.00 Z" />
<path fill="#ffffff" opacity="1.00" d=" M 8.00 16.00 C 24.00 16.00 40.00 16.00 56.00 16.00 C 56.00 26.67 56.00 37.33 56.00 48.00 C 40.00 48.00 24.00 48.00 8.00 48.00 C 8.00 37.33 8.00 26.67 8.00 16.00 M 20.51 24.78 C 15.49 26.31 14.13 33.70 17.85 37.17 C 20.31 39.32 23.81 38.94 26.72 38.12 C 26.73 37.44 26.74 36.08 26.74 35.40 C 24.96 35.70 23.04 36.49 21.28 35.64 C 18.26 34.15 18.29 28.93 21.39 27.51 C 23.15 26.67 25.11 27.43 26.93 27.59 C 27.77 23.53 23.05 24.04 20.51 24.78 M 44.56 23.74 C 44.56 28.67 44.56 33.60 44.56 38.53 C 45.32 38.53 46.85 38.54 47.62 38.54 C 47.63 33.60 47.63 28.66 47.62 23.73 C 46.85 23.73 45.32 23.74 44.56 23.74 M 29.41 28.19 C 29.05 28.36 28.32 28.71 27.96 28.88 L 27.92 30.07 C 28.32 30.42 29.12 31.13 29.52 31.48 C 29.69 33.55 29.19 35.82 30.19 37.74 C 31.28 39.04 33.13 38.62 34.62 38.85 C 34.72 38.29 34.93 37.16 35.04 36.60 C 31.59 36.92 32.90 33.00 32.56 30.85 C 33.17 30.82 34.37 30.74 34.98 30.71 C 34.93 30.16 34.85 29.06 34.80 28.51 C 34.26 28.51 33.18 28.53 32.64 28.54 C 32.63 27.75 32.60 26.18 32.59 25.39 C 31.22 26.03 28.97 26.06 29.41 28.19 M 36.64 28.35 C 36.61 31.74 36.63 35.13 36.62 38.52 C 37.38 38.53 38.90 38.54 39.65 38.55 C 39.77 35.66 38.67 30.34 43.28 30.97 C 43.63 29.04 42.26 27.39 40.58 29.07 C 39.28 28.78 37.96 28.55 36.64 28.35 Z" />
</g>
<g id="#000000ff">
<path fill="#000000" opacity="1.00" d=" M 4.00 12.00 C 22.67 12.00 41.33 12.00 60.00 12.00 C 60.00 25.33 60.00 38.67 60.00 52.00 C 41.33 52.00 22.67 52.00 4.00 52.00 C 4.00 38.67 4.00 25.33 4.00 12.00 M 8.00 16.00 C 8.00 26.67 8.00 37.33 8.00 48.00 C 24.00 48.00 40.00 48.00 56.00 48.00 C 56.00 37.33 56.00 26.67 56.00 16.00 C 40.00 16.00 24.00 16.00 8.00 16.00 Z" />
<path fill="#000000" opacity="1.00" d=" M 20.51 24.78 C 23.05 24.04 27.77 23.53 26.93 27.59 C 25.11 27.43 23.15 26.67 21.39 27.51 C 18.29 28.93 18.26 34.15 21.28 35.64 C 23.04 36.49 24.96 35.70 26.74 35.40 C 26.74 36.08 26.73 37.44 26.72 38.12 C 23.81 38.94 20.31 39.32 17.85 37.17 C 14.13 33.70 15.49 26.31 20.51 24.78 Z" />
<path fill="#000000" opacity="1.00" d=" M 44.56 23.74 C 45.32 23.74 46.85 23.73 47.62 23.73 C 47.63 28.66 47.63 33.60 47.62 38.54 C 46.85 38.54 45.32 38.53 44.56 38.53 C 44.56 33.60 44.56 28.67 44.56 23.74 Z" />
<path fill="#000000" opacity="1.00" d=" M 29.41 28.19 C 28.97 26.06 31.22 26.03 32.59 25.39 C 32.60 26.18 32.63 27.75 32.64 28.54 C 33.18 28.53 34.26 28.51 34.80 28.51 C 34.85 29.06 34.93 30.16 34.98 30.71 C 34.37 30.74 33.17 30.82 32.56 30.85 C 32.90 33.00 31.59 36.92 35.04 36.60 C 34.93 37.16 34.72 38.29 34.62 38.85 C 33.13 38.62 31.28 39.04 30.19 37.74 C 29.19 35.82 29.69 33.55 29.52 31.48 C 29.12 31.13 28.32 30.42 27.92 30.07 L 27.96 28.88 C 28.32 28.71 29.05 28.36 29.41 28.19 Z" />
<path fill="#000000" opacity="1.00" d=" M 36.64 28.35 C 37.96 28.55 39.28 28.78 40.58 29.07 C 42.26 27.39 43.63 29.04 43.28 30.97 C 38.67 30.34 39.77 35.66 39.65 38.55 C 38.90 38.54 37.38 38.53 36.62 38.52 C 36.63 35.13 36.61 31.74 36.64 28.35 Z" />
</g>
</svg>
