<?xml version="1.0" encoding="UTF-8" ?>
<!DOCTYPE svg PUBLIC "-//W3C//DTD SVG 1.1//EN" "http://www.w3.org/Graphics/SVG/1.1/DTD/svg11.dtd">
<svg width="64pt" height="64pt" viewBox="0 0 64 64" version="1.1" xmlns="http://www.w3.org/2000/svg">
<g id="#ffffffff">
<path fill="#ffffff" opacity="1.00" d=" M 0.00 0.00 L 64.00 0.00 L 64.00 64.00 L 0.00 64.00 L 0.00 0.00 M 9.95 10.01 C 10.02 21.09 15.70 31.96 24.95 38.12 C 31.17 42.48 38.85 44.23 46.37 44.06 C 43.49 46.86 40.68 49.73 37.82 52.55 C 38.79 53.50 39.74 54.47 40.69 55.44 C 45.15 50.95 49.66 46.52 54.09 42.00 C 49.65 37.49 45.16 33.05 40.69 28.57 C 39.74 29.52 38.78 30.48 37.82 31.42 C 40.66 34.30 43.55 37.14 46.38 40.04 C 39.64 40.23 32.73 38.73 27.16 34.80 C 18.97 29.38 14.03 19.77 13.93 10.00 C 12.60 10.00 11.27 10.00 9.95 10.01 Z" />
</g>
<g id="#000000ff">
<path fill="#000000" opacity="1.00" d=" M 9.95 10.01 C 11.27 10.00 12.60 10.00 13.93 10.00 C 14.03 19.77 18.97 29.38 27.16 34.80 C 32.73 38.73 39.64 40.23 46.38 40.04 C 43.55 37.14 40.66 34.30 37.82 31.42 C 38.78 30.48 39.74 29.52 40.69 28.57 C 45.16 33.05 49.65 37.49 54.09 42.00 C 49.66 46.52 45.15 50.95 40.69 55.44 C 39.74 54.47 38.79 53.50 37.82 52.55 C 40.68 49.73 43.49 46.86 46.37 44.06 C 38.85 44.23 31.17 42.48 24.95 38.12 C 15.70 31.96 10.02 21.09 9.95 10.01 Z" />
</g>
</svg>
