<?xml version="1.0" encoding="UTF-8" ?>
<!DOCTYPE svg PUBLIC "-//W3C//DTD SVG 1.1//EN" "http://www.w3.org/Graphics/SVG/1.1/DTD/svg11.dtd">
<svg width="64pt" height="64pt" viewBox="0 0 64 64" version="1.1" xmlns="http://www.w3.org/2000/svg">
<g id="#ffffffff">
<path fill="#ffffff" opacity="1.00" d=" M 0.00 0.00 L 64.00 0.00 L 64.00 64.00 L 0.00 64.00 L 0.00 0.00 M 28.83 14.10 C 30.25 15.76 29.99 17.96 30.10 19.99 C 27.19 20.83 24.60 22.41 22.38 24.46 C 21.06 23.67 19.73 22.87 18.40 22.08 C 17.60 20.52 16.85 18.51 14.90 18.10 C 11.85 17.24 8.86 20.89 10.38 23.70 C 11.41 26.03 14.25 26.24 16.42 25.64 C 17.79 26.39 19.15 27.15 20.52 27.90 C 19.99 30.62 19.98 33.38 20.53 36.10 C 19.17 36.85 17.81 37.61 16.45 38.35 C 14.48 37.98 11.98 37.73 10.76 39.72 C 8.75 42.14 10.92 46.10 13.97 46.00 C 16.38 46.15 17.56 43.75 18.40 41.92 C 19.73 41.13 21.06 40.33 22.39 39.54 C 24.58 41.56 27.13 43.14 30.01 43.98 C 30.01 45.39 29.99 46.80 29.97 48.21 C 28.77 49.73 27.28 51.63 28.39 53.65 C 29.59 56.70 34.42 56.69 35.61 53.64 C 36.71 51.62 35.21 49.74 34.03 48.21 C 34.01 46.80 33.99 45.39 33.99 43.98 C 36.86 43.13 39.41 41.56 41.61 39.54 C 42.93 40.33 44.26 41.12 45.59 41.91 C 46.42 43.74 47.59 46.13 49.98 46.00 C 53.01 46.12 55.24 42.17 53.25 39.74 C 52.09 37.72 49.52 37.95 47.58 38.35 C 46.21 37.60 44.84 36.84 43.47 36.09 C 44.02 33.38 44.01 30.62 43.47 27.91 C 44.83 27.15 46.20 26.40 47.57 25.65 C 49.55 26.04 52.06 26.23 53.27 24.23 C 55.20 21.82 53.05 17.85 50.01 18.00 C 47.61 17.86 46.42 20.24 45.60 22.08 C 44.27 22.88 42.93 23.66 41.61 24.46 C 39.40 22.41 36.81 20.84 33.91 19.99 C 34.01 17.95 33.74 15.73 35.18 14.06 C 37.20 11.69 34.96 7.84 31.98 8.02 C 28.99 7.88 26.78 11.75 28.83 14.10 Z" />
<path fill="#ffffff" opacity="1.00" d=" M 28.74 25.75 C 30.50 22.85 35.29 23.83 35.91 27.12 C 36.57 29.25 34.73 30.68 33.39 31.97 C 36.00 33.00 37.66 35.25 38.33 37.92 C 34.11 38.04 29.89 38.05 25.67 37.92 C 26.32 35.23 28.01 33.01 30.61 31.96 C 28.64 30.61 26.94 27.98 28.74 25.75 Z" />
</g>
<g id="#000000ff">
<path fill="#000000" opacity="1.00" d=" M 28.83 14.10 C 26.78 11.75 28.99 7.88 31.98 8.02 C 34.96 7.84 37.20 11.69 35.18 14.06 C 33.74 15.73 34.01 17.95 33.91 19.99 C 36.81 20.84 39.40 22.41 41.61 24.46 C 42.93 23.66 44.27 22.88 45.60 22.08 C 46.42 20.24 47.61 17.86 50.01 18.00 C 53.05 17.85 55.20 21.82 53.27 24.23 C 52.06 26.23 49.55 26.04 47.57 25.65 C 46.20 26.40 44.83 27.15 43.47 27.91 C 44.01 30.62 44.02 33.38 43.47 36.09 C 44.84 36.84 46.21 37.60 47.58 38.35 C 49.52 37.95 52.09 37.72 53.25 39.74 C 55.24 42.17 53.01 46.12 49.98 46.00 C 47.59 46.13 46.42 43.74 45.59 41.91 C 44.26 41.12 42.93 40.33 41.61 39.54 C 39.41 41.56 36.86 43.13 33.99 43.98 C 33.99 45.39 34.01 46.80 34.03 48.21 C 35.21 49.74 36.71 51.62 35.61 53.64 C 34.42 56.69 29.59 56.70 28.39 53.65 C 27.28 51.63 28.77 49.73 29.97 48.21 C 29.99 46.80 30.01 45.39 30.01 43.98 C 27.13 43.14 24.58 41.56 22.39 39.54 C 21.06 40.33 19.73 41.13 18.40 41.92 C 17.56 43.75 16.38 46.15 13.97 46.00 C 10.92 46.10 8.75 42.14 10.76 39.72 C 11.98 37.73 14.48 37.98 16.45 38.35 C 17.81 37.61 19.17 36.85 20.53 36.10 C 19.98 33.38 19.99 30.62 20.52 27.90 C 19.15 27.15 17.79 26.39 16.42 25.64 C 14.25 26.24 11.41 26.03 10.38 23.70 C 8.86 20.89 11.85 17.24 14.90 18.10 C 16.85 18.51 17.60 20.52 18.40 22.08 C 19.73 22.87 21.06 23.67 22.38 24.46 C 24.60 22.41 27.19 20.83 30.10 19.99 C 29.99 17.96 30.25 15.76 28.83 14.10 M 28.74 25.75 C 26.94 27.98 28.64 30.61 30.61 31.96 C 28.01 33.01 26.32 35.23 25.67 37.92 C 29.89 38.05 34.11 38.04 38.33 37.92 C 37.66 35.25 36.00 33.00 33.39 31.97 C 34.73 30.68 36.57 29.25 35.91 27.12 C 35.29 23.83 30.50 22.85 28.74 25.75 Z" />
</g>
</svg>
