<?xml version="1.0" encoding="UTF-8" ?>
<!DOCTYPE svg PUBLIC "-//W3C//DTD SVG 1.1//EN" "http://www.w3.org/Graphics/SVG/1.1/DTD/svg11.dtd">
<svg width="64pt" height="64pt" viewBox="0 0 64 64" version="1.1" xmlns="http://www.w3.org/2000/svg">
<g id="#ffffffff">
<path fill="#ffffff" opacity="1.00" d=" M 0.00 0.00 L 64.00 0.00 L 64.00 64.00 L 0.00 64.00 L 0.00 0.00 M 20.20 8.75 C 22.90 16.75 25.86 24.66 28.63 32.64 C 29.41 35.05 31.63 36.48 33.40 38.11 C 30.31 39.32 27.79 42.64 29.15 46.04 C 30.53 49.87 31.42 53.98 33.54 57.48 C 36.69 61.53 43.89 59.22 44.07 54.09 C 43.54 49.24 41.10 44.82 39.77 40.14 C 38.63 35.71 33.17 34.36 31.92 29.99 C 29.46 22.94 26.93 15.92 24.45 8.87 C 23.88 7.87 23.64 5.70 22.03 6.06 C 20.64 5.79 19.59 7.56 20.20 8.75 M 6.68 19.38 C 12.39 23.36 18.43 26.87 24.24 30.71 C 23.55 28.69 22.84 26.67 22.16 24.65 C 17.70 21.83 13.34 18.82 8.74 16.24 C 6.90 15.02 4.86 18.24 6.68 19.38 M 35.39 30.00 C 35.84 31.28 36.29 32.56 36.76 33.84 C 39.58 33.64 41.59 35.70 43.65 37.27 C 46.35 39.17 47.26 43.28 50.93 43.78 C 56.82 45.39 61.91 37.77 58.14 32.95 C 55.22 28.43 48.23 29.44 45.88 34.00 C 44.15 32.68 42.43 31.34 40.70 30.01 C 38.93 30.01 37.16 30.00 35.39 30.00 Z" />
<path fill="#ffffff" opacity="1.00" d=" M 51.21 34.20 C 53.45 33.11 56.22 35.62 55.20 37.94 C 54.60 40.10 51.41 40.59 50.10 38.85 C 48.82 37.40 49.46 34.94 51.21 34.20 Z" />
<path fill="#ffffff" opacity="1.00" d=" M 33.59 42.56 C 34.57 41.78 36.09 42.17 36.52 43.34 C 37.83 46.52 38.97 49.78 39.93 53.08 C 40.88 55.08 37.47 56.68 36.51 54.73 C 35.00 51.26 33.79 47.65 32.79 44.01 C 32.99 43.65 33.39 42.92 33.59 42.56 Z" />
</g>
<g id="#000000ff">
<path fill="#000000" opacity="1.00" d=" M 20.20 8.75 C 19.59 7.56 20.64 5.79 22.03 6.06 C 23.64 5.70 23.88 7.87 24.45 8.87 C 26.93 15.92 29.46 22.94 31.92 29.99 C 33.17 34.36 38.63 35.71 39.77 40.14 C 41.10 44.82 43.54 49.24 44.07 54.09 C 43.89 59.22 36.69 61.53 33.54 57.48 C 31.42 53.98 30.53 49.87 29.15 46.04 C 27.79 42.64 30.31 39.32 33.40 38.11 C 31.63 36.48 29.41 35.05 28.63 32.64 C 25.86 24.66 22.90 16.75 20.20 8.75 M 33.59 42.56 C 33.39 42.92 32.99 43.65 32.79 44.01 C 33.79 47.65 35.00 51.26 36.51 54.73 C 37.47 56.68 40.88 55.08 39.93 53.08 C 38.97 49.78 37.83 46.52 36.52 43.34 C 36.09 42.17 34.57 41.78 33.59 42.56 Z" />
<path fill="#000000" opacity="1.00" d=" M 6.68 19.38 C 4.86 18.24 6.90 15.02 8.74 16.24 C 13.34 18.82 17.70 21.83 22.16 24.65 C 22.84 26.67 23.55 28.69 24.24 30.71 C 18.43 26.87 12.39 23.36 6.68 19.38 Z" />
<path fill="#000000" opacity="1.00" d=" M 35.39 30.00 C 37.16 30.00 38.93 30.01 40.70 30.01 C 42.43 31.34 44.15 32.68 45.88 34.00 C 48.23 29.44 55.22 28.43 58.14 32.95 C 61.91 37.77 56.82 45.39 50.93 43.78 C 47.26 43.28 46.35 39.17 43.65 37.27 C 41.59 35.70 39.58 33.64 36.76 33.84 C 36.29 32.56 35.84 31.28 35.39 30.00 M 51.21 34.20 C 49.46 34.94 48.82 37.40 50.10 38.85 C 51.41 40.59 54.60 40.10 55.20 37.94 C 56.22 35.62 53.45 33.11 51.21 34.20 Z" />
</g>
</svg>
