<?xml version="1.0" encoding="UTF-8" ?>
<!DOCTYPE svg PUBLIC "-//W3C//DTD SVG 1.1//EN" "http://www.w3.org/Graphics/SVG/1.1/DTD/svg11.dtd">
<svg width="64pt" height="64pt" viewBox="0 0 64 64" version="1.1" xmlns="http://www.w3.org/2000/svg">
<g id="#ffffffff">
<path fill="#ffffff" opacity="1.00" d=" M 0.00 0.00 L 64.00 0.00 L 64.00 64.00 L 0.00 64.00 L 0.00 0.00 M 6.17 14.95 C 2.49 23.60 3.23 35.02 10.40 41.68 C 16.13 46.59 25.67 47.83 31.80 43.00 C 30.70 42.25 29.61 41.50 28.51 40.75 C 22.31 43.48 13.93 41.68 10.47 35.55 C 7.36 29.91 7.27 22.84 9.67 16.92 C 8.49 16.28 7.33 15.63 6.17 14.95 M 54.35 16.96 C 56.71 22.86 56.63 29.89 53.54 35.51 C 50.09 41.67 41.70 43.49 35.49 40.75 C 34.39 41.50 33.30 42.25 32.20 43.00 C 39.91 48.94 52.64 45.79 57.14 37.25 C 60.77 30.44 60.86 21.99 57.81 14.94 C 56.67 15.64 55.51 16.30 54.35 16.96 Z" />
</g>
<g id="#000000ff">
<path fill="#000000" opacity="1.00" d=" M 6.17 14.95 C 7.33 15.63 8.49 16.28 9.67 16.92 C 7.27 22.84 7.36 29.91 10.47 35.55 C 13.93 41.68 22.31 43.48 28.51 40.75 C 29.61 41.50 30.70 42.25 31.80 43.00 C 25.67 47.83 16.13 46.59 10.40 41.68 C 3.23 35.02 2.49 23.60 6.17 14.95 Z" />
<path fill="#000000" opacity="1.00" d=" M 54.35 16.96 C 55.51 16.30 56.67 15.64 57.81 14.94 C 60.86 21.99 60.77 30.44 57.14 37.25 C 52.64 45.79 39.91 48.94 32.20 43.00 C 33.30 42.25 34.39 41.50 35.49 40.75 C 41.70 43.49 50.09 41.67 53.54 35.51 C 56.63 29.89 56.71 22.86 54.35 16.96 Z" />
</g>
</svg>
