<?xml version="1.0" encoding="UTF-8" ?>
<!DOCTYPE svg PUBLIC "-//W3C//DTD SVG 1.1//EN" "http://www.w3.org/Graphics/SVG/1.1/DTD/svg11.dtd">
<svg width="64pt" height="64pt" viewBox="0 0 64 64" version="1.1" xmlns="http://www.w3.org/2000/svg">
<g id="#ffffffff">
<path fill="#ffffff" opacity="1.00" d=" M 0.00 0.00 L 64.00 0.00 L 64.00 46.82 C 63.59 42.46 61.43 38.35 58.04 35.57 C 57.94 26.38 58.04 17.20 57.99 8.01 C 40.66 7.99 23.34 7.99 6.01 8.01 C 6.00 19.62 5.97 31.23 6.02 42.83 C 7.26 44.27 8.73 45.48 9.98 46.90 C 10.13 49.56 9.78 52.24 10.16 54.87 C 12.02 57.08 15.44 55.57 17.96 55.98 C 18.15 55.49 18.54 54.50 18.73 54.00 C 23.54 54.00 28.34 53.98 33.15 54.01 C 35.56 59.64 41.17 63.74 47.34 64.00 L 0.00 64.00 L 0.00 0.00 Z" />
<path fill="#ffffff" opacity="1.00" d=" M 10.01 12.01 C 24.67 11.99 39.33 11.99 53.99 12.01 C 54.01 19.06 54.00 26.11 54.00 33.16 C 52.70 32.71 51.37 32.36 50.01 32.11 C 49.97 29.36 50.03 26.62 49.99 23.87 C 49.97 20.78 47.24 18.02 44.15 18.01 C 36.06 17.99 27.96 17.99 19.87 18.01 C 16.74 18.01 13.96 20.82 14.01 23.95 C 13.98 26.74 14.02 29.53 14.00 32.33 C 12.05 33.19 10.57 34.82 10.25 36.98 C 9.71 28.68 10.13 20.33 10.01 12.01 Z" />
<path fill="#ffffff" opacity="1.00" d=" M 19.06 22.18 C 27.03 21.76 35.07 22.12 43.07 22.00 C 44.37 21.74 46.09 22.45 45.98 24.00 C 46.02 26.67 46.00 29.33 45.99 31.99 C 36.66 32.01 27.34 32.01 18.01 31.99 C 18.54 28.83 16.81 24.74 19.06 22.18 Z" />
<path fill="#ffffff" opacity="1.00" d=" M 15.15 36.15 C 22.55 35.80 29.99 36.10 37.40 36.00 C 35.57 37.67 34.18 39.74 33.16 41.99 C 30.77 42.02 28.39 41.98 26.01 42.01 C 25.99 43.33 25.99 44.66 26.01 45.99 C 28.04 46.02 30.07 45.98 32.10 46.01 C 32.01 47.34 32.01 48.66 32.10 49.99 C 26.07 50.01 20.04 50.00 14.01 49.99 C 14.10 45.71 13.78 41.38 14.17 37.12 C 14.42 36.88 14.91 36.39 15.15 36.15 M 17.29 40.55 C 15.36 41.79 15.75 45.08 17.95 45.79 C 20.17 46.78 22.78 44.25 21.79 42.02 C 21.28 40.18 18.80 39.42 17.29 40.55 Z" />
<path fill="#ffffff" opacity="1.00" d=" M 44.41 36.58 C 49.50 34.87 55.55 37.15 58.24 41.80 C 60.82 45.94 60.46 51.67 57.36 55.45 C 54.00 59.93 47.28 61.29 42.41 58.57 C 38.20 56.46 35.58 51.61 36.09 46.94 C 36.40 42.22 39.88 37.92 44.41 36.58 M 53.53 42.58 C 51.36 44.75 49.22 46.94 47.02 49.08 C 45.44 47.64 43.99 46.08 42.47 44.58 C 41.46 45.50 40.51 46.47 39.58 47.46 C 42.06 49.89 44.46 52.42 47.00 54.80 C 50.20 51.75 53.28 48.57 56.42 45.46 C 55.50 44.47 54.54 43.50 53.53 42.58 Z" />
<path fill="#ffffff" opacity="1.00" d=" M 49.25 64.00 C 56.84 63.41 63.32 56.95 64.00 49.38 L 64.00 64.00 L 49.25 64.00 Z" />
</g>
<g id="#000000ff">
<path fill="#000000" opacity="1.00" d=" M 6.01 8.01 C 23.34 7.99 40.66 7.99 57.99 8.01 C 58.04 17.20 57.94 26.38 58.04 35.57 C 61.43 38.35 63.59 42.46 64.00 46.82 L 64.00 49.38 C 63.32 56.95 56.84 63.41 49.25 64.00 L 47.34 64.00 C 41.17 63.74 35.56 59.64 33.15 54.01 C 28.34 53.98 23.54 54.00 18.73 54.00 C 18.54 54.50 18.15 55.49 17.96 55.98 C 15.44 55.57 12.02 57.08 10.16 54.87 C 9.78 52.24 10.13 49.56 9.98 46.90 C 8.73 45.48 7.26 44.27 6.02 42.83 C 5.97 31.23 6.00 19.62 6.01 8.01 M 10.01 12.01 C 10.13 20.33 9.71 28.68 10.25 36.98 C 10.57 34.82 12.05 33.19 14.00 32.33 C 14.02 29.53 13.98 26.74 14.01 23.95 C 13.96 20.82 16.74 18.01 19.87 18.01 C 27.96 17.99 36.06 17.99 44.15 18.01 C 47.24 18.02 49.97 20.78 49.99 23.87 C 50.03 26.62 49.97 29.36 50.01 32.11 C 51.37 32.36 52.70 32.71 54.00 33.16 C 54.00 26.11 54.01 19.06 53.99 12.01 C 39.33 11.99 24.67 11.99 10.01 12.01 M 19.06 22.18 C 16.81 24.74 18.54 28.83 18.01 31.99 C 27.34 32.01 36.66 32.01 45.99 31.99 C 46.00 29.33 46.02 26.67 45.98 24.00 C 46.09 22.45 44.37 21.74 43.07 22.00 C 35.07 22.12 27.03 21.76 19.06 22.18 M 15.15 36.15 C 14.91 36.39 14.42 36.88 14.17 37.12 C 13.78 41.38 14.10 45.71 14.01 49.99 C 20.04 50.00 26.07 50.01 32.10 49.99 C 32.01 48.66 32.01 47.34 32.10 46.01 C 30.07 45.98 28.04 46.02 26.01 45.99 C 25.99 44.66 25.99 43.33 26.01 42.01 C 28.39 41.98 30.77 42.02 33.16 41.99 C 34.18 39.74 35.57 37.67 37.40 36.00 C 29.99 36.10 22.55 35.80 15.15 36.15 M 44.41 36.58 C 39.88 37.92 36.40 42.22 36.09 46.94 C 35.58 51.61 38.20 56.46 42.41 58.57 C 47.28 61.29 54.00 59.93 57.36 55.45 C 60.46 51.67 60.82 45.94 58.24 41.80 C 55.55 37.15 49.50 34.87 44.41 36.58 Z" />
<path fill="#000000" opacity="1.00" d=" M 17.29 40.55 C 18.80 39.42 21.28 40.18 21.79 42.02 C 22.78 44.25 20.17 46.78 17.95 45.79 C 15.75 45.08 15.36 41.79 17.29 40.55 Z" />
<path fill="#000000" opacity="1.00" d=" M 53.53 42.58 C 54.54 43.50 55.50 44.47 56.42 45.46 C 53.28 48.57 50.20 51.75 47.00 54.80 C 44.46 52.42 42.06 49.89 39.58 47.46 C 40.51 46.47 41.46 45.50 42.47 44.58 C 43.99 46.08 45.44 47.64 47.02 49.08 C 49.22 46.94 51.36 44.75 53.53 42.58 Z" />
</g>
</svg>
