<?xml version="1.0" encoding="UTF-8" ?>
<!DOCTYPE svg PUBLIC "-//W3C//DTD SVG 1.1//EN" "http://www.w3.org/Graphics/SVG/1.1/DTD/svg11.dtd">
<svg width="64pt" height="64pt" viewBox="0 0 64 64" version="1.1" xmlns="http://www.w3.org/2000/svg">
<g id="#ffffffff">
<path fill="#ffffff" opacity="1.00" d=" M 0.00 0.00 L 64.00 0.00 L 64.00 64.00 L 0.00 64.00 L 0.00 0.00 M 20.89 6.89 C 17.62 8.69 17.94 12.77 17.96 15.95 C 16.64 15.99 15.32 16.03 14.00 16.07 C 14.01 30.04 13.99 44.02 14.01 57.99 C 26.00 58.00 38.00 58.00 49.99 57.99 C 50.01 44.02 49.99 30.04 50.00 16.07 C 48.68 16.03 47.36 15.99 46.04 15.95 C 46.06 12.77 46.37 8.69 43.11 6.89 C 39.69 5.20 35.67 6.30 32.00 6.00 C 28.33 6.30 24.31 5.20 20.89 6.89 Z" />
<path fill="#ffffff" opacity="1.00" d=" M 21.95 15.97 C 22.29 14.03 21.02 10.05 24.10 10.07 C 29.36 9.94 34.64 9.93 39.91 10.07 C 42.98 10.06 41.71 14.03 42.05 15.97 C 35.35 16.02 28.65 16.02 21.95 15.97 Z" />
<path fill="#ffffff" opacity="1.00" d=" M 18.01 20.01 C 27.34 20.00 36.66 19.99 45.99 20.01 C 46.00 31.34 46.02 42.67 45.98 54.00 C 44.66 54.00 43.34 54.00 42.02 54.00 C 41.99 51.34 42.01 48.67 41.99 46.01 C 35.33 45.99 28.67 45.99 22.01 46.00 C 21.99 48.67 22.01 51.34 21.98 54.00 C 20.66 54.00 19.34 54.00 18.02 54.00 C 17.98 42.67 18.00 31.34 18.01 20.01 M 22.01 26.01 C 21.99 30.67 21.99 35.33 22.01 39.99 C 28.67 40.01 35.33 40.01 41.99 39.99 C 42.01 35.33 42.01 30.67 41.99 26.01 C 35.33 25.99 28.67 25.99 22.01 26.01 Z" />
<path fill="#ffffff" opacity="1.00" d=" M 26.00 30.02 C 30.00 29.99 34.00 29.99 38.00 30.02 C 38.00 32.01 38.00 33.99 38.00 35.98 C 34.00 36.01 30.00 36.01 26.00 35.98 C 26.00 33.99 26.00 32.01 26.00 30.02 Z" />
<path fill="#ffffff" opacity="1.00" d=" M 26.00 50.00 C 27.33 50.00 28.67 50.00 30.00 50.00 C 30.00 51.33 30.00 52.67 30.00 54.00 C 28.66 54.00 27.33 54.00 26.00 54.00 C 26.00 52.66 26.00 51.33 26.00 50.00 Z" />
<path fill="#ffffff" opacity="1.00" d=" M 34.00 50.00 C 35.33 50.00 36.67 50.00 38.00 50.00 C 38.00 51.33 38.00 52.67 38.00 54.00 C 36.66 54.00 35.33 54.00 34.00 54.00 C 34.00 52.66 34.00 51.33 34.00 50.00 Z" />
</g>
<g id="#000000ff">
<path fill="#000000" opacity="1.00" d=" M 20.89 6.89 C 24.31 5.20 28.33 6.30 32.00 6.00 C 35.67 6.30 39.69 5.20 43.11 6.89 C 46.37 8.69 46.06 12.77 46.04 15.95 C 47.36 15.99 48.68 16.03 50.00 16.07 C 49.99 30.04 50.01 44.02 49.99 57.99 C 38.00 58.00 26.00 58.00 14.01 57.99 C 13.99 44.02 14.01 30.04 14.00 16.07 C 15.32 16.03 16.64 15.99 17.96 15.95 C 17.94 12.77 17.62 8.69 20.89 6.89 M 21.95 15.97 C 28.65 16.02 35.35 16.02 42.05 15.97 C 41.71 14.03 42.98 10.06 39.91 10.07 C 34.64 9.93 29.36 9.94 24.10 10.07 C 21.02 10.05 22.29 14.03 21.95 15.97 M 18.01 20.01 C 18.00 31.34 17.98 42.67 18.02 54.00 C 19.34 54.00 20.66 54.00 21.98 54.00 C 22.01 51.34 21.99 48.67 22.01 46.00 C 28.67 45.99 35.33 45.99 41.99 46.01 C 42.01 48.67 41.99 51.34 42.02 54.00 C 43.34 54.00 44.66 54.00 45.98 54.00 C 46.02 42.67 46.00 31.34 45.99 20.01 C 36.66 19.99 27.34 20.00 18.01 20.01 M 26.00 50.00 C 26.00 51.33 26.00 52.66 26.00 54.00 C 27.33 54.00 28.66 54.00 30.00 54.00 C 30.00 52.67 30.00 51.33 30.00 50.00 C 28.67 50.00 27.33 50.00 26.00 50.00 M 34.00 50.00 C 34.00 51.33 34.00 52.66 34.00 54.00 C 35.33 54.00 36.66 54.00 38.00 54.00 C 38.00 52.67 38.00 51.33 38.00 50.00 C 36.67 50.00 35.33 50.00 34.00 50.00 Z" />
<path fill="#000000" opacity="1.00" d=" M 22.01 26.01 C 28.67 25.99 35.33 25.99 41.99 26.01 C 42.01 30.67 42.01 35.33 41.99 39.99 C 35.33 40.01 28.67 40.01 22.01 39.99 C 21.99 35.33 21.99 30.67 22.01 26.01 M 26.00 30.02 C 26.00 32.01 26.00 33.99 26.00 35.98 C 30.00 36.01 34.00 36.01 38.00 35.98 C 38.00 33.99 38.00 32.01 38.00 30.02 C 34.00 29.99 30.00 29.99 26.00 30.02 Z" />
</g>
</svg>
