<?xml version="1.0" encoding="UTF-8" ?>
<!DOCTYPE svg PUBLIC "-//W3C//DTD SVG 1.1//EN" "http://www.w3.org/Graphics/SVG/1.1/DTD/svg11.dtd">
<svg width="64pt" height="64pt" viewBox="0 0 64 64" version="1.1" xmlns="http://www.w3.org/2000/svg">
<g id="#ffffffff">
<path fill="#ffffff" opacity="1.00" d=" M 0.00 0.00 L 64.00 0.00 L 64.00 64.00 L 0.00 64.00 L 0.00 0.00 M 10.00 10.00 C 10.01 26.00 10.01 42.00 10.00 58.00 C 11.33 58.00 12.66 58.00 14.00 58.00 C 14.00 51.33 14.00 44.67 14.01 38.01 C 20.67 38.00 27.33 38.00 34.00 38.00 C 34.00 28.66 34.00 19.33 34.00 10.00 C 26.00 10.00 18.00 10.00 10.00 10.00 M 36.00 16.00 C 36.00 25.33 36.00 34.67 36.00 44.00 C 42.00 44.00 48.00 44.00 54.00 44.00 C 54.00 34.67 54.00 25.33 54.00 16.00 C 48.00 16.00 42.00 16.00 36.00 16.00 Z" />
</g>
<g id="#000000ff">
<path fill="#000000" opacity="1.00" d=" M 10.00 10.00 C 18.00 10.00 26.00 10.00 34.00 10.00 C 34.00 19.33 34.00 28.66 34.00 38.00 C 27.33 38.00 20.67 38.00 14.01 38.01 C 14.00 44.67 14.00 51.33 14.00 58.00 C 12.66 58.00 11.33 58.00 10.00 58.00 C 10.01 42.00 10.01 26.00 10.00 10.00 Z" />
<path fill="#000000" opacity="1.00" d=" M 36.00 16.00 C 42.00 16.00 48.00 16.00 54.00 16.00 C 54.00 25.33 54.00 34.67 54.00 44.00 C 48.00 44.00 42.00 44.00 36.00 44.00 C 36.00 34.67 36.00 25.33 36.00 16.00 Z" />
</g>
</svg>
