<?xml version="1.0" encoding="UTF-8" ?>
<!DOCTYPE svg PUBLIC "-//W3C//DTD SVG 1.1//EN" "http://www.w3.org/Graphics/SVG/1.1/DTD/svg11.dtd">
<svg width="64pt" height="64pt" viewBox="0 0 64 64" version="1.1" xmlns="http://www.w3.org/2000/svg">
<g id="#ffffffff">
<path fill="#ffffff" opacity="1.00" d=" M 0.00 0.00 L 64.00 0.00 L 64.00 64.00 L 0.00 64.00 L 0.00 0.00 M 20.13 22.87 C 19.52 27.89 21.26 32.89 24.20 36.91 C 18.34 42.82 12.41 48.65 6.59 54.59 C 7.54 55.53 8.49 56.47 9.43 57.41 C 15.37 51.60 21.20 45.67 27.08 39.80 C 34.22 45.52 45.31 45.36 51.93 38.89 C 58.09 33.34 59.80 23.59 55.86 16.28 C 52.27 9.11 43.81 4.81 35.90 6.26 C 27.72 7.49 20.92 14.64 20.13 22.87 Z" />
<path fill="#ffffff" opacity="1.00" d=" M 30.06 12.98 C 35.92 8.44 45.11 9.28 50.03 14.85 C 52.49 17.39 53.57 20.86 54.14 24.27 C 50.41 19.70 45.09 15.93 38.97 16.00 C 32.87 15.95 27.57 19.71 23.85 24.26 C 24.46 19.91 26.37 15.58 30.06 12.98 Z" />
<path fill="#ffffff" opacity="1.00" d=" M 28.63 24.97 C 31.75 21.53 36.39 19.24 41.11 20.18 C 44.42 20.60 47.13 22.68 49.39 25.00 C 46.70 27.90 43.06 30.14 38.98 29.98 C 34.92 30.14 31.28 27.88 28.63 24.97 M 35.37 23.36 C 33.70 26.41 37.39 30.16 40.49 28.71 C 42.46 28.07 42.86 25.91 43.24 24.15 C 41.97 24.76 39.87 25.64 39.12 23.82 C 39.30 23.05 39.65 21.49 39.82 20.72 C 38.14 21.13 36.10 21.54 35.37 23.36 Z" />
<path fill="#ffffff" opacity="1.00" d=" M 23.87 25.79 C 27.62 30.30 32.90 34.08 39.01 33.99 C 45.12 34.06 50.41 30.29 54.14 25.74 C 53.52 30.82 50.79 35.78 46.12 38.16 C 40.24 41.48 32.26 40.09 27.84 34.99 C 25.45 32.49 24.43 29.11 23.87 25.79 Z" />
</g>
<g id="#000000ff">
<path fill="#000000" opacity="1.00" d=" M 20.13 22.87 C 20.92 14.64 27.72 7.49 35.90 6.26 C 43.81 4.81 52.27 9.11 55.86 16.28 C 59.80 23.59 58.09 33.34 51.93 38.89 C 45.31 45.36 34.22 45.52 27.08 39.80 C 21.20 45.67 15.37 51.60 9.43 57.41 C 8.49 56.47 7.54 55.53 6.59 54.59 C 12.41 48.65 18.34 42.82 24.20 36.91 C 21.26 32.89 19.52 27.89 20.13 22.87 M 30.06 12.98 C 26.37 15.58 24.46 19.91 23.85 24.26 C 27.57 19.71 32.87 15.95 38.97 16.00 C 45.09 15.93 50.41 19.70 54.14 24.27 C 53.57 20.86 52.49 17.39 50.03 14.85 C 45.11 9.28 35.92 8.44 30.06 12.98 M 28.63 24.97 C 31.28 27.88 34.92 30.14 38.98 29.98 C 43.06 30.14 46.70 27.90 49.39 25.00 C 47.13 22.68 44.42 20.60 41.11 20.18 C 36.39 19.24 31.75 21.53 28.63 24.97 M 23.87 25.79 C 24.43 29.11 25.45 32.49 27.84 34.99 C 32.26 40.09 40.24 41.48 46.12 38.16 C 50.79 35.78 53.52 30.82 54.14 25.74 C 50.41 30.29 45.12 34.06 39.01 33.99 C 32.90 34.08 27.62 30.30 23.87 25.79 Z" />
<path fill="#000000" opacity="1.00" d=" M 35.37 23.36 C 36.10 21.54 38.14 21.13 39.82 20.72 C 39.65 21.49 39.30 23.05 39.12 23.82 C 39.87 25.64 41.97 24.76 43.24 24.15 C 42.86 25.91 42.46 28.07 40.49 28.71 C 37.39 30.16 33.70 26.41 35.37 23.36 Z" />
</g>
</svg>
