<?xml version="1.0" encoding="UTF-8" ?>
<!DOCTYPE svg PUBLIC "-//W3C//DTD SVG 1.1//EN" "http://www.w3.org/Graphics/SVG/1.1/DTD/svg11.dtd">
<svg width="64pt" height="64pt" viewBox="0 0 64 64" version="1.1" xmlns="http://www.w3.org/2000/svg">
<g id="#ffffffff">
<path fill="#ffffff" opacity="1.00" d=" M 0.00 0.00 L 64.00 0.00 L 64.00 64.00 L 0.00 64.00 L 0.00 0.00 M 14.05 13.90 C 13.92 23.93 14.04 33.97 14.00 44.00 C 13.50 44.00 12.50 44.00 12.00 44.00 C 12.00 40.00 12.00 36.00 12.00 32.00 C 10.67 32.00 9.33 32.00 8.00 32.00 C 8.05 36.03 7.89 40.06 8.05 44.09 C 8.00 46.57 10.54 48.32 12.88 48.00 C 25.61 48.01 38.34 48.00 51.07 48.00 C 53.40 48.33 55.97 46.62 55.94 44.14 C 56.11 40.09 55.95 36.05 56.00 32.00 C 54.67 32.00 53.33 32.00 52.00 32.00 C 52.00 36.00 52.00 40.00 52.00 44.00 C 51.50 44.00 50.50 44.00 50.00 44.00 C 49.96 33.96 50.08 23.92 49.95 13.88 C 50.00 10.79 47.25 7.99 44.15 8.05 C 36.07 7.96 27.98 7.96 19.91 8.05 C 16.78 7.97 13.97 10.77 14.05 13.90 M 13.72 50.06 C 14.36 53.05 16.54 56.08 19.92 55.95 C 27.98 56.04 36.05 56.04 44.12 55.95 C 47.48 56.07 49.62 53.02 50.28 50.06 C 49.00 50.03 47.72 50.01 46.44 50.00 C 46.02 50.46 45.19 51.37 44.77 51.82 C 38.21 52.27 31.60 51.85 25.02 52.01 C 22.43 51.81 18.98 52.93 17.56 50.00 C 16.28 50.01 15.00 50.03 13.72 50.06 Z" />
<path fill="#ffffff" opacity="1.00" d=" M 19.21 12.15 C 27.47 11.84 35.77 12.00 44.05 12.07 C 46.61 12.08 45.88 15.32 46.04 16.99 C 45.69 19.21 46.87 22.20 44.91 23.82 C 37.63 24.26 30.31 23.86 23.02 24.02 C 21.41 23.78 19.11 24.62 18.17 22.83 C 17.86 19.62 17.87 16.35 18.17 13.13 C 18.43 12.89 18.95 12.40 19.21 12.15 Z" />
<path fill="#ffffff" opacity="1.00" d=" M 18.00 27.81 C 27.32 28.12 36.68 28.12 46.00 27.81 C 46.00 33.21 46.00 38.60 46.00 44.00 C 36.67 44.00 27.33 44.00 18.00 44.00 C 18.00 38.60 18.00 33.21 18.00 27.81 M 28.00 38.05 C 27.84 41.78 33.35 43.49 35.27 40.23 C 37.38 36.61 33.51 33.06 32.00 29.95 C 30.50 32.54 28.50 35.03 28.00 38.05 Z" />
</g>
<g id="#000000ff">
<path fill="#000000" opacity="1.00" d=" M 14.05 13.90 C 13.97 10.77 16.78 7.97 19.91 8.05 C 27.98 7.96 36.07 7.96 44.15 8.05 C 47.25 7.99 50.00 10.79 49.95 13.88 C 50.08 23.92 49.96 33.96 50.00 44.00 C 50.50 44.00 51.50 44.00 52.00 44.00 C 52.00 40.00 52.00 36.00 52.00 32.00 C 53.33 32.00 54.67 32.00 56.00 32.00 C 55.95 36.05 56.11 40.09 55.94 44.14 C 55.97 46.62 53.40 48.33 51.07 48.00 C 38.34 48.00 25.61 48.01 12.88 48.00 C 10.54 48.32 8.00 46.57 8.05 44.09 C 7.89 40.06 8.05 36.03 8.00 32.00 C 9.33 32.00 10.67 32.00 12.00 32.00 C 12.00 36.00 12.00 40.00 12.00 44.00 C 12.50 44.00 13.50 44.00 14.00 44.00 C 14.04 33.97 13.92 23.93 14.05 13.90 M 19.21 12.15 C 18.95 12.40 18.43 12.89 18.17 13.13 C 17.87 16.35 17.86 19.62 18.17 22.83 C 19.11 24.62 21.41 23.78 23.02 24.02 C 30.31 23.86 37.63 24.26 44.91 23.82 C 46.87 22.20 45.69 19.21 46.04 16.99 C 45.88 15.32 46.61 12.08 44.05 12.07 C 35.77 12.00 27.47 11.84 19.21 12.15 M 18.00 27.81 C 18.00 33.21 18.00 38.60 18.00 44.00 C 27.33 44.00 36.67 44.00 46.00 44.00 C 46.00 38.60 46.00 33.21 46.00 27.81 C 36.68 28.12 27.32 28.12 18.00 27.81 Z" />
<path fill="#000000" opacity="1.00" d=" M 28.00 38.05 C 28.50 35.03 30.50 32.54 32.00 29.95 C 33.51 33.06 37.38 36.61 35.27 40.23 C 33.35 43.49 27.84 41.78 28.00 38.05 Z" />
<path fill="#000000" opacity="1.00" d=" M 13.72 50.06 C 15.00 50.03 16.28 50.01 17.56 50.00 C 18.98 52.93 22.43 51.81 25.02 52.01 C 31.60 51.85 38.21 52.27 44.77 51.82 C 45.19 51.37 46.02 50.46 46.44 50.00 C 47.72 50.01 49.00 50.03 50.28 50.06 C 49.62 53.02 47.48 56.07 44.12 55.95 C 36.05 56.04 27.98 56.04 19.92 55.95 C 16.54 56.08 14.36 53.05 13.72 50.06 Z" />
</g>
</svg>
