<?xml version="1.0" encoding="UTF-8" ?>
<!DOCTYPE svg PUBLIC "-//W3C//DTD SVG 1.1//EN" "http://www.w3.org/Graphics/SVG/1.1/DTD/svg11.dtd">
<svg width="64pt" height="64pt" viewBox="0 0 64 64" version="1.1" xmlns="http://www.w3.org/2000/svg">
<g id="#ffffffff">
<path fill="#ffffff" opacity="1.00" d=" M 0.00 0.00 L 64.00 0.00 L 64.00 64.00 L 0.00 64.00 L 0.00 0.00 M 8.36 22.90 C 7.01 28.12 9.50 34.10 14.36 36.55 C 16.66 37.94 19.41 37.90 22.00 38.02 C 22.24 43.08 21.41 48.27 22.57 53.24 C 24.54 59.76 33.62 62.20 38.56 57.49 C 44.06 52.54 41.37 44.47 42.00 38.02 C 48.28 38.75 54.81 34.53 55.78 28.11 C 57.17 20.35 51.17 13.84 44.98 10.17 C 44.36 11.34 43.73 12.50 43.10 13.66 C 47.65 16.85 52.95 21.60 51.79 27.78 C 51.04 32.29 46.25 34.52 42.04 34.01 C 41.98 29.34 42.00 24.67 42.00 20.00 C 40.67 20.00 39.33 20.00 38.00 20.00 C 38.02 26.63 37.96 33.27 38.03 39.90 C 34.35 37.49 29.65 37.48 25.97 39.90 C 26.04 33.27 25.98 26.63 26.00 20.00 C 24.67 20.00 23.33 20.00 22.00 20.00 C 22.00 24.67 22.02 29.34 21.96 34.01 C 17.77 34.51 12.99 32.33 12.22 27.83 C 11.01 21.64 16.35 16.87 20.90 13.66 C 20.27 12.50 19.64 11.34 19.02 10.17 C 14.28 13.14 9.66 17.23 8.36 22.90 Z" />
<path fill="#ffffff" opacity="1.00" d=" M 29.43 42.58 C 33.16 40.61 38.08 43.72 38.00 47.91 C 38.62 51.17 36.91 54.23 34.09 55.80 C 34.06 54.85 34.00 52.95 33.97 52.00 C 32.66 51.99 31.34 51.99 30.03 52.00 C 30.00 52.95 29.94 54.85 29.91 55.80 C 24.88 53.46 24.36 45.09 29.43 42.58 Z" />
</g>
<g id="#000000ff">
<path fill="#000000" opacity="1.00" d=" M 8.36 22.90 C 9.66 17.23 14.28 13.14 19.02 10.17 C 19.64 11.34 20.27 12.50 20.90 13.66 C 16.35 16.87 11.01 21.64 12.22 27.83 C 12.99 32.33 17.77 34.51 21.96 34.01 C 22.02 29.34 22.00 24.67 22.00 20.00 C 23.33 20.00 24.67 20.00 26.00 20.00 C 25.98 26.63 26.04 33.27 25.97 39.90 C 29.65 37.48 34.35 37.49 38.03 39.90 C 37.96 33.27 38.02 26.63 38.00 20.00 C 39.33 20.00 40.67 20.00 42.00 20.00 C 42.00 24.67 41.98 29.34 42.04 34.01 C 46.25 34.52 51.04 32.29 51.79 27.78 C 52.95 21.60 47.65 16.85 43.10 13.66 C 43.73 12.50 44.36 11.34 44.98 10.17 C 51.17 13.84 57.17 20.35 55.78 28.11 C 54.81 34.53 48.28 38.75 42.00 38.02 C 41.37 44.47 44.06 52.54 38.56 57.49 C 33.62 62.20 24.54 59.76 22.57 53.24 C 21.41 48.27 22.24 43.08 22.00 38.02 C 19.41 37.90 16.66 37.94 14.36 36.55 C 9.50 34.10 7.01 28.12 8.36 22.90 M 29.43 42.58 C 24.36 45.09 24.88 53.46 29.91 55.80 C 29.94 54.85 30.00 52.95 30.03 52.00 C 31.34 51.99 32.66 51.99 33.97 52.00 C 34.00 52.95 34.06 54.85 34.09 55.80 C 36.91 54.23 38.62 51.17 38.00 47.91 C 38.08 43.72 33.16 40.61 29.43 42.58 Z" />
</g>
</svg>
