<?xml version="1.0" encoding="UTF-8" ?>
<!DOCTYPE svg PUBLIC "-//W3C//DTD SVG 1.1//EN" "http://www.w3.org/Graphics/SVG/1.1/DTD/svg11.dtd">
<svg width="64pt" height="64pt" viewBox="0 0 64 64" version="1.1" xmlns="http://www.w3.org/2000/svg">
<g id="#ffffffff">
<path fill="#ffffff" opacity="1.00" d=" M 0.00 0.00 L 64.00 0.00 L 64.00 64.00 L 0.00 64.00 L 0.00 0.00 M 26.13 12.08 C 23.36 11.12 19.91 8.72 17.20 11.07 C 15.14 12.79 16.05 15.61 16.29 17.88 C 8.66 23.60 4.15 33.85 6.77 43.26 C 8.89 50.61 15.92 55.35 23.08 56.97 C 31.41 58.84 40.60 58.31 48.18 54.15 C 53.36 51.33 57.28 46.06 57.86 40.11 C 58.65 31.51 54.46 22.78 47.55 17.67 C 47.91 15.54 48.85 12.90 46.94 11.21 C 44.27 8.61 40.67 11.06 37.87 12.08 C 36.50 9.68 35.35 6.09 32.04 6.01 C 28.67 6.01 27.52 9.67 26.13 12.08 Z" />
<path fill="#ffffff" opacity="1.00" d=" M 25.96 15.99 C 29.38 15.97 30.53 12.19 31.96 9.76 C 33.37 11.96 34.27 15.18 37.14 15.89 C 39.66 16.24 41.94 14.72 44.23 13.89 C 43.00 17.82 42.10 21.86 41.91 25.99 C 43.26 25.99 44.60 26.00 45.95 26.00 C 46.06 24.58 46.18 23.15 46.31 21.73 C 51.64 26.77 55.27 34.46 53.49 41.85 C 51.83 48.25 45.42 51.99 39.32 53.23 C 32.71 54.48 25.59 54.26 19.38 51.49 C 15.04 49.58 11.23 45.87 10.32 41.08 C 8.99 33.94 12.16 26.47 17.66 21.88 C 17.80 23.25 17.93 24.63 18.06 26.00 C 19.40 26.00 20.75 25.99 22.09 25.99 C 21.88 21.84 20.86 17.81 19.71 13.84 C 21.76 14.66 23.78 15.59 25.96 15.99 M 30.00 18.00 C 30.00 20.67 30.00 23.33 30.00 26.00 C 31.33 26.00 32.67 26.00 34.00 26.00 C 34.00 23.33 34.00 20.67 34.00 18.00 C 32.67 18.00 31.33 18.00 30.00 18.00 M 24.00 20.00 C 24.00 22.67 24.00 25.33 24.00 28.00 C 25.33 28.00 26.67 28.00 28.00 28.00 C 28.00 25.33 28.00 22.67 28.00 20.00 C 26.67 20.00 25.33 20.00 24.00 20.00 M 36.06 20.00 C 36.04 22.67 36.02 25.33 36.00 28.00 C 37.33 28.00 38.67 28.00 40.00 28.00 C 40.02 25.33 40.04 22.67 40.06 20.00 C 38.73 20.00 37.39 20.00 36.06 20.00 Z" />
</g>
<g id="#000000ff">
<path fill="#000000" opacity="1.00" d=" M 26.13 12.08 C 27.52 9.67 28.67 6.01 32.04 6.01 C 35.35 6.09 36.50 9.68 37.87 12.08 C 40.67 11.06 44.27 8.61 46.94 11.21 C 48.85 12.90 47.91 15.54 47.55 17.67 C 54.46 22.78 58.65 31.51 57.86 40.11 C 57.28 46.06 53.36 51.33 48.18 54.15 C 40.60 58.31 31.41 58.84 23.08 56.97 C 15.92 55.35 8.89 50.61 6.77 43.26 C 4.15 33.85 8.66 23.60 16.29 17.88 C 16.05 15.61 15.14 12.79 17.20 11.07 C 19.91 8.72 23.36 11.12 26.13 12.08 M 25.96 15.99 C 23.78 15.59 21.76 14.66 19.71 13.84 C 20.86 17.81 21.88 21.84 22.09 25.99 C 20.75 25.99 19.40 26.00 18.06 26.00 C 17.93 24.63 17.80 23.25 17.66 21.88 C 12.16 26.47 8.99 33.94 10.32 41.08 C 11.23 45.87 15.04 49.58 19.38 51.49 C 25.59 54.26 32.71 54.48 39.32 53.23 C 45.42 51.99 51.83 48.25 53.49 41.85 C 55.27 34.46 51.64 26.77 46.31 21.73 C 46.18 23.15 46.06 24.58 45.95 26.00 C 44.60 26.00 43.26 25.99 41.91 25.99 C 42.10 21.86 43.00 17.82 44.23 13.89 C 41.94 14.72 39.66 16.24 37.14 15.89 C 34.27 15.18 33.37 11.96 31.96 9.76 C 30.53 12.19 29.38 15.97 25.96 15.99 Z" />
<path fill="#000000" opacity="1.00" d=" M 30.00 18.00 C 31.33 18.00 32.67 18.00 34.00 18.00 C 34.00 20.67 34.00 23.33 34.00 26.00 C 32.67 26.00 31.33 26.00 30.00 26.00 C 30.00 23.33 30.00 20.67 30.00 18.00 Z" />
<path fill="#000000" opacity="1.00" d=" M 24.00 20.00 C 25.33 20.00 26.67 20.00 28.00 20.00 C 28.00 22.67 28.00 25.33 28.00 28.00 C 26.67 28.00 25.33 28.00 24.00 28.00 C 24.00 25.33 24.00 22.67 24.00 20.00 Z" />
<path fill="#000000" opacity="1.00" d=" M 36.06 20.00 C 37.39 20.00 38.73 20.00 40.06 20.00 C 40.04 22.67 40.02 25.33 40.00 28.00 C 38.67 28.00 37.33 28.00 36.00 28.00 C 36.02 25.33 36.04 22.67 36.06 20.00 Z" />
</g>
</svg>
