<?xml version="1.0" encoding="UTF-8" ?>
<!DOCTYPE svg PUBLIC "-//W3C//DTD SVG 1.1//EN" "http://www.w3.org/Graphics/SVG/1.1/DTD/svg11.dtd">
<svg width="64pt" height="64pt" viewBox="0 0 64 64" version="1.1" xmlns="http://www.w3.org/2000/svg">
<g id="#ffffffff">
<path fill="#ffffff" opacity="1.00" d=" M 0.00 0.00 L 64.00 0.00 L 64.00 64.00 L 0.00 64.00 L 0.00 0.00 M 9.88 10.00 C 10.02 12.47 10.28 14.92 10.78 17.34 C 9.16 19.77 10.43 22.72 10.80 25.34 C 9.14 27.75 10.43 30.73 10.80 33.34 C 9.03 35.97 10.56 39.19 10.98 42.01 C 10.23 42.01 8.74 42.00 8.00 42.00 C 8.00 43.33 8.00 44.67 8.00 46.00 C 9.33 46.00 10.67 46.00 12.00 46.00 C 12.00 48.67 12.00 51.33 12.00 54.00 C 13.33 54.00 14.67 54.00 16.00 54.00 C 16.00 51.33 16.00 48.67 16.00 46.00 C 26.67 46.00 37.33 46.00 48.00 46.00 C 48.00 48.67 48.00 51.33 48.00 54.00 C 49.33 54.00 50.67 54.00 52.00 54.00 C 52.00 51.33 52.00 48.67 52.00 46.00 C 53.33 46.00 54.67 46.00 56.00 46.00 C 56.00 44.67 56.00 43.33 56.00 42.00 C 55.12 42.00 53.36 42.00 52.48 42.00 C 53.57 36.74 54.02 31.37 54.04 26.00 C 48.68 26.00 43.32 26.00 37.96 26.00 C 37.98 31.37 38.42 36.74 39.52 42.00 C 37.36 42.00 35.19 42.00 33.03 42.01 C 33.43 39.18 34.94 35.97 33.20 33.33 C 33.56 30.71 34.85 27.75 33.21 25.33 C 33.57 22.71 34.82 19.77 33.23 17.33 C 33.71 14.92 33.97 12.46 34.12 10.00 C 26.04 10.00 17.96 10.00 9.88 10.00 Z" />
<path fill="#ffffff" opacity="1.00" d=" M 14.35 14.00 C 19.45 14.00 24.54 14.00 29.64 14.00 C 29.35 15.31 29.07 16.62 28.78 17.92 C 24.27 18.05 19.76 18.02 15.25 17.95 C 14.94 16.63 14.64 15.32 14.35 14.00 Z" />
<path fill="#ffffff" opacity="1.00" d=" M 14.37 22.00 C 19.46 22.00 24.55 22.01 29.64 21.99 C 29.36 23.32 29.06 24.63 28.75 25.95 C 24.23 26.01 19.70 26.07 15.18 25.90 C 14.91 24.60 14.64 23.30 14.37 22.00 Z" />
<path fill="#ffffff" opacity="1.00" d=" M 14.36 30.00 C 19.45 30.00 24.54 30.00 29.64 30.00 C 29.35 31.31 29.07 32.62 28.78 33.93 C 24.26 34.04 19.73 34.05 15.21 33.92 C 14.93 32.61 14.64 31.31 14.36 30.00 Z" />
<path fill="#ffffff" opacity="1.00" d=" M 42.16 30.01 C 44.72 30.00 47.28 30.00 49.83 30.00 C 49.60 34.03 49.11 38.05 48.36 42.01 C 46.79 42.00 45.21 42.00 43.64 42.02 C 42.89 38.05 42.39 34.04 42.16 30.01 Z" />
<path fill="#ffffff" opacity="1.00" d=" M 14.36 38.00 C 19.46 38.00 24.55 38.00 29.65 38.00 C 29.35 39.32 29.05 40.64 28.74 41.95 C 24.23 42.02 19.72 42.05 15.22 41.93 C 14.93 40.62 14.64 39.31 14.36 38.00 Z" />
</g>
<g id="#000000ff">
<path fill="#000000" opacity="1.00" d=" M 9.88 10.00 C 17.96 10.00 26.04 10.00 34.12 10.00 C 33.97 12.46 33.71 14.92 33.23 17.33 C 34.82 19.77 33.57 22.71 33.21 25.33 C 34.85 27.75 33.56 30.71 33.20 33.33 C 34.94 35.97 33.43 39.18 33.03 42.01 C 35.19 42.00 37.36 42.00 39.52 42.00 C 38.42 36.74 37.98 31.37 37.96 26.00 C 43.32 26.00 48.68 26.00 54.04 26.00 C 54.02 31.37 53.57 36.74 52.48 42.00 C 53.36 42.00 55.12 42.00 56.00 42.00 C 56.00 43.33 56.00 44.67 56.00 46.00 C 54.67 46.00 53.33 46.00 52.00 46.00 C 52.00 48.67 52.00 51.33 52.00 54.00 C 50.67 54.00 49.33 54.00 48.00 54.00 C 48.00 51.33 48.00 48.67 48.00 46.00 C 37.33 46.00 26.67 46.00 16.00 46.00 C 16.00 48.67 16.00 51.33 16.00 54.00 C 14.67 54.00 13.33 54.00 12.00 54.00 C 12.00 51.33 12.00 48.67 12.00 46.00 C 10.67 46.00 9.33 46.00 8.00 46.00 C 8.00 44.67 8.00 43.33 8.00 42.00 C 8.74 42.00 10.23 42.01 10.98 42.01 C 10.56 39.19 9.03 35.97 10.80 33.34 C 10.43 30.73 9.14 27.75 10.80 25.34 C 10.43 22.72 9.16 19.77 10.78 17.34 C 10.28 14.92 10.02 12.47 9.88 10.00 M 14.35 14.00 C 14.64 15.32 14.94 16.63 15.25 17.95 C 19.76 18.02 24.27 18.05 28.78 17.92 C 29.07 16.62 29.35 15.31 29.64 14.00 C 24.54 14.00 19.45 14.00 14.35 14.00 M 14.37 22.00 C 14.64 23.30 14.91 24.60 15.18 25.90 C 19.70 26.07 24.23 26.01 28.75 25.95 C 29.06 24.63 29.36 23.32 29.64 21.99 C 24.55 22.01 19.46 22.00 14.37 22.00 M 14.36 30.00 C 14.64 31.31 14.93 32.61 15.21 33.92 C 19.73 34.05 24.26 34.04 28.78 33.93 C 29.07 32.62 29.35 31.31 29.64 30.00 C 24.54 30.00 19.45 30.00 14.36 30.00 M 42.16 30.01 C 42.39 34.04 42.89 38.05 43.64 42.02 C 45.21 42.00 46.79 42.00 48.36 42.01 C 49.11 38.05 49.60 34.03 49.83 30.00 C 47.28 30.00 44.72 30.00 42.16 30.01 M 14.36 38.00 C 14.64 39.31 14.93 40.62 15.22 41.93 C 19.72 42.05 24.23 42.02 28.74 41.95 C 29.05 40.64 29.35 39.32 29.65 38.00 C 24.55 38.00 19.46 38.00 14.36 38.00 Z" />
</g>
</svg>
