<?xml version="1.0" encoding="UTF-8" ?>
<!DOCTYPE svg PUBLIC "-//W3C//DTD SVG 1.1//EN" "http://www.w3.org/Graphics/SVG/1.1/DTD/svg11.dtd">
<svg width="64pt" height="64pt" viewBox="0 0 64 64" version="1.1" xmlns="http://www.w3.org/2000/svg">
<g id="#ffffffff">
<path fill="#ffffff" opacity="1.00" d=" M 0.00 0.00 L 64.00 0.00 L 64.00 64.00 L 0.00 64.00 L 0.00 0.00 M 24.04 12.17 C 20.39 13.11 17.96 16.30 17.85 20.05 C 20.34 19.89 22.89 19.44 24.73 17.61 C 25.33 18.29 25.93 18.97 26.54 19.65 C 22.95 24.64 16.36 25.44 11.22 28.14 C 11.74 29.38 12.26 30.61 12.79 31.84 C 15.86 30.55 18.92 29.25 21.97 27.90 C 20.49 34.60 18.99 41.30 17.51 48.00 C 19.55 47.99 21.60 48.00 23.64 48.00 C 23.09 51.22 22.57 54.45 22.03 57.68 C 23.34 57.89 24.66 58.11 25.97 58.33 C 26.54 54.88 27.13 51.44 27.70 48.00 C 30.56 48.00 33.43 48.00 36.30 48.00 C 36.87 51.44 37.46 54.88 38.03 58.33 C 39.34 58.11 40.65 57.89 41.97 57.68 C 41.43 54.45 40.91 51.22 40.36 48.00 C 42.40 48.00 44.45 47.99 46.49 48.00 C 45.01 41.31 43.52 34.61 42.03 27.92 C 45.10 29.20 48.17 30.48 51.20 31.84 C 51.73 30.61 52.26 29.39 52.79 28.16 C 47.66 25.40 41.17 24.62 37.41 19.79 C 37.88 19.21 38.81 18.05 39.28 17.47 C 41.15 19.25 43.65 19.83 46.15 19.97 C 46.07 16.21 43.59 13.04 39.94 12.14 C 38.71 8.81 35.77 5.88 32.01 6.01 C 28.23 5.87 25.26 8.82 24.04 12.17 Z" />
<path fill="#ffffff" opacity="1.00" d=" M 30.28 10.37 C 32.80 9.05 36.13 11.17 36.01 14.01 C 36.14 17.12 32.17 19.18 29.71 17.28 C 27.21 15.72 27.56 11.51 30.28 10.37 Z" />
<path fill="#ffffff" opacity="1.00" d=" M 26.31 27.11 C 26.91 24.48 29.03 21.86 31.96 22.00 C 34.95 21.87 37.07 24.60 37.72 27.25 C 39.13 32.80 40.21 38.42 41.51 44.00 C 35.17 44.00 28.83 44.00 22.49 44.00 C 23.80 38.38 24.89 32.70 26.31 27.11 Z" />
</g>
<g id="#000000ff">
<path fill="#000000" opacity="1.00" d=" M 24.04 12.17 C 25.26 8.82 28.23 5.87 32.01 6.01 C 35.77 5.88 38.71 8.81 39.94 12.14 C 43.59 13.04 46.07 16.21 46.15 19.97 C 43.65 19.83 41.15 19.25 39.28 17.47 C 38.81 18.05 37.88 19.21 37.41 19.79 C 41.17 24.62 47.66 25.40 52.79 28.16 C 52.26 29.39 51.73 30.61 51.20 31.84 C 48.17 30.48 45.10 29.20 42.03 27.92 C 43.52 34.61 45.01 41.31 46.49 48.00 C 44.45 47.99 42.40 48.00 40.36 48.00 C 40.91 51.22 41.43 54.45 41.97 57.68 C 40.65 57.89 39.34 58.11 38.03 58.33 C 37.46 54.88 36.87 51.44 36.30 48.00 C 33.43 48.00 30.56 48.00 27.70 48.00 C 27.13 51.44 26.54 54.88 25.97 58.33 C 24.66 58.11 23.34 57.89 22.03 57.68 C 22.57 54.45 23.09 51.22 23.64 48.00 C 21.60 48.00 19.55 47.99 17.51 48.00 C 18.99 41.30 20.49 34.60 21.97 27.90 C 18.92 29.25 15.86 30.55 12.79 31.84 C 12.26 30.61 11.74 29.38 11.22 28.14 C 16.36 25.44 22.95 24.64 26.54 19.65 C 25.93 18.97 25.33 18.29 24.73 17.61 C 22.89 19.44 20.34 19.89 17.85 20.05 C 17.96 16.30 20.39 13.11 24.04 12.17 M 30.28 10.37 C 27.56 11.51 27.21 15.72 29.71 17.28 C 32.17 19.18 36.14 17.12 36.01 14.01 C 36.13 11.17 32.80 9.05 30.28 10.37 M 26.31 27.11 C 24.89 32.70 23.80 38.38 22.49 44.00 C 28.83 44.00 35.17 44.00 41.51 44.00 C 40.21 38.42 39.13 32.80 37.72 27.25 C 37.07 24.60 34.95 21.87 31.96 22.00 C 29.03 21.86 26.91 24.48 26.31 27.11 Z" />
</g>
</svg>
