<?xml version="1.0" encoding="UTF-8" ?>
<!DOCTYPE svg PUBLIC "-//W3C//DTD SVG 1.1//EN" "http://www.w3.org/Graphics/SVG/1.1/DTD/svg11.dtd">
<svg width="64pt" height="64pt" viewBox="0 0 64 64" version="1.1" xmlns="http://www.w3.org/2000/svg">
<g id="#ffffffff">
<path fill="#ffffff" opacity="1.00" d=" M 0.00 0.00 L 64.00 0.00 L 64.00 64.00 L 0.00 64.00 L 0.00 0.00 M 9.98 12.88 C 10.01 25.63 10.01 38.37 9.98 51.12 C 14.19 53.78 18.93 55.98 24.01 55.97 C 29.08 55.97 33.81 53.77 38.02 51.12 C 37.98 43.83 38.01 36.53 38.00 29.24 C 42.91 28.70 47.91 28.83 52.77 27.87 C 57.08 26.41 56.94 19.55 52.55 18.29 C 47.74 17.62 42.84 18.18 38.00 18.00 C 38.00 16.29 38.01 14.58 38.02 12.87 C 34.38 10.61 30.43 8.61 26.11 8.16 C 20.33 7.42 14.75 9.83 9.98 12.88 Z" />
<path fill="#ffffff" opacity="1.00" d=" M 13.99 15.12 C 17.11 13.58 20.41 12.00 23.98 12.01 C 27.56 11.98 30.87 13.57 34.02 15.12 C 34.01 15.84 34.00 17.28 34.00 18.00 C 29.83 18.26 25.48 17.37 21.44 18.58 C 16.67 20.55 17.09 28.24 22.06 29.66 C 25.99 30.39 30.03 29.51 34.00 29.51 C 34.01 35.96 33.99 42.42 34.01 48.87 C 30.87 50.41 27.57 52.00 24.00 51.98 C 20.42 52.00 17.13 50.41 13.99 48.87 C 14.01 37.62 14.01 26.37 13.99 15.12 M 20.80 40.10 C 22.38 41.70 22.00 43.96 22.03 46.00 C 23.35 46.00 24.66 46.00 25.98 46.00 C 26.00 44.54 26.02 43.07 26.06 41.61 C 28.49 39.82 28.67 35.69 25.68 34.39 C 22.34 32.53 18.24 37.13 20.80 40.10 Z" />
<path fill="#ffffff" opacity="1.00" d=" M 24.01 25.92 C 21.40 26.27 21.39 21.74 24.01 22.06 C 33.19 21.99 42.40 21.88 51.58 22.12 C 51.71 22.60 51.97 23.57 52.10 24.06 C 42.76 24.91 33.39 25.73 24.01 25.92 Z" />
</g>
<g id="#000000ff">
<path fill="#000000" opacity="1.00" d=" M 9.98 12.88 C 14.75 9.83 20.33 7.42 26.11 8.16 C 30.43 8.61 34.38 10.61 38.02 12.87 C 38.01 14.58 38.00 16.29 38.00 18.00 C 42.84 18.18 47.74 17.62 52.55 18.29 C 56.94 19.55 57.08 26.41 52.77 27.87 C 47.91 28.83 42.91 28.70 38.00 29.24 C 38.01 36.53 37.98 43.83 38.02 51.12 C 33.81 53.77 29.08 55.97 24.01 55.97 C 18.93 55.98 14.19 53.78 9.98 51.12 C 10.01 38.37 10.01 25.63 9.98 12.88 M 13.99 15.12 C 14.01 26.37 14.01 37.62 13.99 48.87 C 17.13 50.41 20.42 52.00 24.00 51.98 C 27.57 52.00 30.87 50.41 34.01 48.87 C 33.99 42.42 34.01 35.96 34.00 29.51 C 30.03 29.51 25.99 30.39 22.06 29.66 C 17.09 28.24 16.67 20.55 21.44 18.58 C 25.48 17.37 29.83 18.26 34.00 18.00 C 34.00 17.28 34.01 15.84 34.02 15.12 C 30.87 13.57 27.56 11.98 23.98 12.01 C 20.41 12.00 17.11 13.58 13.99 15.12 M 24.01 25.92 C 33.39 25.73 42.76 24.91 52.10 24.06 C 51.97 23.57 51.71 22.60 51.58 22.12 C 42.40 21.88 33.19 21.99 24.01 22.06 C 21.39 21.74 21.40 26.27 24.01 25.92 Z" />
<path fill="#000000" opacity="1.00" d=" M 20.80 40.10 C 18.24 37.13 22.34 32.53 25.68 34.39 C 28.67 35.69 28.49 39.82 26.06 41.61 C 26.02 43.07 26.00 44.54 25.98 46.00 C 24.66 46.00 23.35 46.00 22.03 46.00 C 22.00 43.96 22.38 41.70 20.80 40.10 Z" />
</g>
</svg>
