<?xml version="1.0" encoding="UTF-8" ?>
<!DOCTYPE svg PUBLIC "-//W3C//DTD SVG 1.1//EN" "http://www.w3.org/Graphics/SVG/1.1/DTD/svg11.dtd">
<svg width="64pt" height="64pt" viewBox="0 0 64 64" version="1.1" xmlns="http://www.w3.org/2000/svg">
<g id="#ffffffff">
<path fill="#ffffff" opacity="1.00" d=" M 0.00 0.00 L 64.00 0.00 L 64.00 64.00 L 0.00 64.00 L 0.00 0.00 M 30.00 8.00 C 29.99 21.38 30.01 34.76 29.99 48.14 C 25.46 43.63 20.96 39.08 16.40 34.59 C 15.47 35.53 14.53 36.46 13.59 37.39 C 19.71 43.55 25.87 49.67 32.00 55.82 C 38.16 49.72 44.26 43.55 50.42 37.44 C 49.48 36.48 48.54 35.53 47.60 34.58 C 43.07 39.11 38.54 43.65 34.01 48.17 C 33.99 34.78 34.01 21.39 34.00 8.00 C 32.67 8.00 31.33 8.00 30.00 8.00 Z" />
</g>
<g id="#000000ff">
<path fill="#000000" opacity="1.00" d=" M 30.00 8.00 C 31.33 8.00 32.67 8.00 34.00 8.00 C 34.01 21.39 33.99 34.78 34.01 48.17 C 38.54 43.65 43.07 39.11 47.60 34.58 C 48.54 35.53 49.48 36.48 50.42 37.44 C 44.26 43.55 38.16 49.72 32.00 55.82 C 25.87 49.67 19.71 43.55 13.59 37.39 C 14.53 36.46 15.47 35.53 16.40 34.59 C 20.96 39.08 25.46 43.63 29.99 48.14 C 30.01 34.76 29.99 21.38 30.00 8.00 Z" />
</g>
</svg>
