<?xml version="1.0" encoding="UTF-8" ?>
<!DOCTYPE svg PUBLIC "-//W3C//DTD SVG 1.1//EN" "http://www.w3.org/Graphics/SVG/1.1/DTD/svg11.dtd">
<svg width="64pt" height="64pt" viewBox="0 0 64 64" version="1.1" xmlns="http://www.w3.org/2000/svg">
<g id="#ffffffff">
<path fill="#ffffff" opacity="1.00" d=" M 0.00 0.00 L 64.00 0.00 L 64.00 64.00 L 0.00 64.00 L 0.00 0.00 M 24.05 16.76 C 18.50 14.12 11.51 11.39 5.72 14.89 C 5.98 19.78 10.48 22.43 14.32 24.51 C 10.77 25.33 7.12 26.77 5.37 30.21 C 11.29 37.33 21.46 34.58 29.00 32.10 C 29.00 33.40 29.00 34.70 29.00 36.00 C 31.00 36.00 33.00 36.00 35.00 36.00 C 35.00 34.70 34.99 33.40 35.00 32.10 C 42.54 34.58 52.68 37.31 58.63 30.23 C 56.89 26.77 53.24 25.34 49.69 24.51 C 53.52 22.42 58.03 19.77 58.28 14.87 C 52.47 11.42 45.51 14.10 39.95 16.76 C 39.88 14.99 40.08 12.89 38.42 11.73 C 36.13 9.81 33.35 6.91 30.06 8.41 C 27.04 10.23 23.23 12.64 24.05 16.76 M 29.00 38.00 C 29.00 40.00 29.00 42.00 29.00 44.00 C 31.00 44.00 33.00 44.00 35.00 44.00 C 35.00 42.00 35.00 40.00 35.00 38.00 C 33.00 38.00 31.00 38.00 29.00 38.00 M 29.50 46.00 C 29.49 47.33 29.49 48.67 29.50 50.00 C 31.17 50.00 32.83 50.00 34.50 50.00 C 34.51 48.67 34.51 47.33 34.50 46.00 C 32.83 46.00 31.17 46.00 29.50 46.00 M 30.00 52.00 C 29.99 53.33 29.99 54.66 30.00 56.00 C 31.33 56.01 32.67 56.01 34.00 56.00 C 34.01 54.66 34.01 53.33 34.00 52.00 C 32.67 51.99 31.33 51.99 30.00 52.00 Z" />
<path fill="#ffffff" opacity="1.00" d=" M 31.55 11.83 C 33.26 12.82 34.95 13.84 36.50 15.09 C 33.74 16.24 30.39 16.10 27.59 15.17 C 28.94 14.10 30.28 13.00 31.55 11.83 Z" />
<path fill="#ffffff" opacity="1.00" d=" M 10.57 17.10 C 16.70 17.27 22.63 19.81 27.14 23.95 C 21.16 23.20 15.06 21.28 10.57 17.10 Z" />
<path fill="#ffffff" opacity="1.00" d=" M 36.85 23.94 C 41.36 19.81 47.30 17.28 53.43 17.10 C 48.93 21.26 42.84 23.24 36.85 23.94 Z" />
<path fill="#ffffff" opacity="1.00" d=" M 29.71 19.91 C 31.24 19.83 32.76 19.82 34.28 19.91 C 33.67 21.93 32.34 23.71 32.33 25.90 C 32.16 25.89 31.81 25.88 31.64 25.88 C 31.71 23.68 30.31 21.93 29.71 19.91 Z" />
<path fill="#ffffff" opacity="1.00" d=" M 35.93 28.01 C 41.55 27.64 47.36 27.66 52.70 29.66 C 47.26 32.05 41.16 29.98 35.93 28.01 Z" />
<path fill="#ffffff" opacity="1.00" d=" M 11.30 29.68 C 16.63 27.62 22.45 27.61 28.06 28.00 C 22.83 30.00 16.75 32.03 11.30 29.68 Z" />
</g>
<g id="#000000ff">
<path fill="#000000" opacity="1.00" d=" M 24.05 16.76 C 23.23 12.64 27.04 10.23 30.06 8.41 C 33.35 6.91 36.13 9.81 38.42 11.73 C 40.08 12.89 39.88 14.99 39.95 16.76 C 45.51 14.10 52.47 11.42 58.28 14.87 C 58.03 19.77 53.52 22.42 49.69 24.51 C 53.24 25.34 56.89 26.77 58.63 30.23 C 52.68 37.31 42.54 34.58 35.00 32.10 C 34.99 33.40 35.00 34.70 35.00 36.00 C 33.00 36.00 31.00 36.00 29.00 36.00 C 29.00 34.70 29.00 33.40 29.00 32.10 C 21.46 34.58 11.29 37.33 5.37 30.21 C 7.12 26.77 10.77 25.33 14.32 24.51 C 10.48 22.43 5.98 19.78 5.72 14.89 C 11.51 11.39 18.50 14.12 24.05 16.76 M 31.55 11.83 C 30.28 13.00 28.94 14.10 27.59 15.17 C 30.39 16.10 33.74 16.24 36.50 15.09 C 34.95 13.84 33.26 12.82 31.55 11.83 M 10.57 17.10 C 15.06 21.28 21.16 23.20 27.14 23.95 C 22.63 19.81 16.70 17.27 10.57 17.10 M 36.85 23.94 C 42.84 23.24 48.93 21.26 53.43 17.10 C 47.30 17.28 41.36 19.81 36.85 23.94 M 29.71 19.91 C 30.31 21.93 31.71 23.68 31.64 25.88 C 31.81 25.88 32.16 25.89 32.33 25.90 C 32.34 23.71 33.67 21.93 34.28 19.91 C 32.76 19.82 31.24 19.83 29.71 19.91 M 35.93 28.01 C 41.16 29.98 47.26 32.05 52.70 29.66 C 47.36 27.66 41.55 27.64 35.93 28.01 M 11.30 29.68 C 16.75 32.03 22.83 30.00 28.06 28.00 C 22.45 27.61 16.63 27.62 11.30 29.68 Z" />
<path fill="#000000" opacity="1.00" d=" M 29.00 38.00 C 31.00 38.00 33.00 38.00 35.00 38.00 C 35.00 40.00 35.00 42.00 35.00 44.00 C 33.00 44.00 31.00 44.00 29.00 44.00 C 29.00 42.00 29.00 40.00 29.00 38.00 Z" />
<path fill="#000000" opacity="1.00" d=" M 29.50 46.00 C 31.17 46.00 32.83 46.00 34.50 46.00 C 34.51 47.33 34.51 48.67 34.50 50.00 C 32.83 50.00 31.17 50.00 29.50 50.00 C 29.49 48.67 29.49 47.33 29.50 46.00 Z" />
<path fill="#000000" opacity="1.00" d=" M 30.00 52.00 C 31.33 51.99 32.67 51.99 34.00 52.00 C 34.01 53.33 34.01 54.66 34.00 56.00 C 32.67 56.01 31.33 56.01 30.00 56.00 C 29.99 54.66 29.99 53.33 30.00 52.00 Z" />
</g>
</svg>
