<?xml version="1.0" encoding="UTF-8" ?>
<!DOCTYPE svg PUBLIC "-//W3C//DTD SVG 1.1//EN" "http://www.w3.org/Graphics/SVG/1.1/DTD/svg11.dtd">
<svg width="64pt" height="64pt" viewBox="0 0 64 64" version="1.1" xmlns="http://www.w3.org/2000/svg">
<g id="#ffffffff">
<path fill="#ffffff" opacity="1.00" d=" M 0.00 0.00 L 64.00 0.00 L 64.00 64.00 L 0.00 64.00 L 0.00 0.00 M 8.00 8.00 C 8.00 14.00 8.00 20.00 8.00 26.00 C 9.33 26.00 10.67 26.00 12.00 26.00 C 12.00 22.29 11.99 18.59 12.01 14.88 C 17.71 20.59 23.42 26.29 29.12 32.00 C 23.42 37.71 17.72 43.42 12.01 49.11 C 12.00 45.41 12.00 41.70 12.00 38.00 C 10.67 38.00 9.33 38.00 8.00 38.00 C 8.00 44.00 8.00 50.00 8.00 56.00 C 14.00 56.00 20.00 56.00 26.00 56.00 C 26.00 54.67 26.00 53.33 26.00 52.00 C 22.30 52.00 18.60 52.00 14.91 51.99 C 20.61 46.29 26.31 40.59 32.02 34.89 C 37.73 40.59 43.42 46.30 49.13 52.00 C 45.42 52.00 41.71 52.00 38.00 52.00 C 38.00 53.33 38.00 54.67 38.00 56.00 C 44.00 56.00 50.00 56.00 56.00 56.00 C 56.00 50.00 56.00 44.00 56.00 38.00 C 54.67 38.00 53.33 38.00 52.00 38.00 C 52.00 41.70 52.00 45.40 52.00 49.10 C 46.31 43.39 40.59 37.71 34.91 32.00 C 40.58 26.29 46.31 20.63 51.97 14.91 C 52.01 18.60 52.00 22.30 52.00 26.00 C 53.33 26.00 54.67 26.00 56.00 26.00 C 56.00 20.00 56.00 14.00 56.00 8.00 C 50.00 8.00 44.00 8.00 38.00 8.00 C 38.00 9.33 38.00 10.67 38.00 12.00 C 41.71 12.00 45.41 12.00 49.12 12.01 C 43.42 17.71 37.72 23.41 32.01 29.11 C 26.31 23.41 20.61 17.71 14.91 12.01 C 18.61 12.00 22.30 12.00 26.00 12.00 C 26.00 10.67 26.00 9.33 26.00 8.00 C 20.00 8.00 14.00 8.00 8.00 8.00 Z" />
</g>
<g id="#000000ff">
<path fill="#000000" opacity="1.00" d=" M 8.00 8.00 C 14.00 8.00 20.00 8.00 26.00 8.00 C 26.00 9.33 26.00 10.67 26.00 12.00 C 22.30 12.00 18.61 12.00 14.91 12.01 C 20.61 17.71 26.31 23.41 32.01 29.11 C 37.72 23.41 43.42 17.71 49.12 12.01 C 45.41 12.00 41.71 12.00 38.00 12.00 C 38.00 10.67 38.00 9.33 38.00 8.00 C 44.00 8.00 50.00 8.00 56.00 8.00 C 56.00 14.00 56.00 20.00 56.00 26.00 C 54.67 26.00 53.33 26.00 52.00 26.00 C 52.00 22.30 52.01 18.60 51.97 14.91 C 46.31 20.63 40.58 26.29 34.91 32.00 C 40.59 37.71 46.31 43.39 52.00 49.10 C 52.00 45.40 52.00 41.70 52.00 38.00 C 53.33 38.00 54.67 38.00 56.00 38.00 C 56.00 44.00 56.00 50.00 56.00 56.00 C 50.00 56.00 44.00 56.00 38.00 56.00 C 38.00 54.67 38.00 53.33 38.00 52.00 C 41.71 52.00 45.42 52.00 49.13 52.00 C 43.42 46.30 37.73 40.59 32.02 34.89 C 26.31 40.59 20.61 46.29 14.91 51.99 C 18.60 52.00 22.30 52.00 26.00 52.00 C 26.00 53.33 26.00 54.67 26.00 56.00 C 20.00 56.00 14.00 56.00 8.00 56.00 C 8.00 50.00 8.00 44.00 8.00 38.00 C 9.33 38.00 10.67 38.00 12.00 38.00 C 12.00 41.70 12.00 45.41 12.01 49.11 C 17.72 43.42 23.42 37.71 29.12 32.00 C 23.42 26.29 17.71 20.59 12.01 14.88 C 11.99 18.59 12.00 22.29 12.00 26.00 C 10.67 26.00 9.33 26.00 8.00 26.00 C 8.00 20.00 8.00 14.00 8.00 8.00 Z" />
</g>
</svg>
