<?xml version="1.0" encoding="UTF-8" ?>
<!DOCTYPE svg PUBLIC "-//W3C//DTD SVG 1.1//EN" "http://www.w3.org/Graphics/SVG/1.1/DTD/svg11.dtd">
<svg width="64pt" height="64pt" viewBox="0 0 64 64" version="1.1" xmlns="http://www.w3.org/2000/svg">
<g id="#ffffffff">
<path fill="#ffffff" opacity="1.00" d=" M 0.00 0.00 L 64.00 0.00 L 64.00 64.00 L 0.00 64.00 L 0.00 0.00 M 4.02 15.93 C 4.02 20.32 3.88 24.72 4.10 29.11 C 4.24 32.08 7.10 33.79 9.76 34.25 C 9.16 39.16 8.60 44.07 8.09 48.99 C 7.50 51.37 9.45 54.00 11.93 53.96 C 16.62 54.09 21.31 53.95 26.00 54.00 C 25.99 52.67 25.99 51.33 26.00 50.00 C 24.67 50.00 23.33 50.00 22.00 50.00 C 22.60 44.67 23.20 39.33 23.81 34.00 C 28.54 34.00 33.27 34.00 38.00 34.00 C 38.00 32.67 38.00 31.33 38.00 30.00 C 40.28 30.00 42.57 29.99 44.85 30.00 C 46.77 28.09 48.88 26.34 50.35 24.03 C 53.56 23.97 56.78 24.01 60.00 24.00 C 59.99 22.67 59.99 21.33 60.00 20.00 C 56.78 19.99 53.56 20.03 50.34 19.97 C 48.89 17.66 46.77 15.92 44.85 14.01 C 42.57 14.01 40.29 13.99 38.00 14.00 C 38.00 12.67 38.00 11.33 38.00 10.00 C 28.63 10.02 19.26 9.97 9.89 10.02 C 6.65 9.75 3.74 12.70 4.02 15.93 Z" />
<path fill="#ffffff" opacity="1.00" d=" M 8.09 14.98 C 8.32 14.76 8.77 14.31 8.99 14.09 C 17.32 13.86 25.67 14.07 34.00 14.00 C 34.00 19.33 34.00 24.67 34.00 30.00 C 25.67 29.93 17.33 30.14 9.01 29.91 C 8.78 29.69 8.32 29.26 8.09 29.05 C 7.93 24.37 7.92 19.66 8.09 14.98 Z" />
<path fill="#ffffff" opacity="1.00" d=" M 38.00 18.00 C 39.71 18.01 41.41 18.01 43.12 17.99 C 44.44 19.44 46.75 20.72 45.95 23.05 C 45.11 24.13 44.09 25.06 43.12 26.01 C 41.41 25.99 39.71 25.99 38.00 26.00 C 38.00 23.33 38.00 20.67 38.00 18.00 Z" />
<path fill="#ffffff" opacity="1.00" d=" M 13.81 34.00 C 15.79 34.01 17.77 34.00 19.75 34.00 C 19.15 39.34 18.56 44.67 17.97 50.01 C 15.98 49.99 13.99 50.00 11.99 50.00 C 12.60 44.66 13.20 39.33 13.81 34.00 Z" />
</g>
<g id="#000000ff">
<path fill="#000000" opacity="1.00" d=" M 4.02 15.93 C 3.74 12.70 6.65 9.75 9.89 10.02 C 19.26 9.97 28.63 10.02 38.00 10.00 C 38.00 11.33 38.00 12.67 38.00 14.00 C 40.29 13.99 42.57 14.01 44.85 14.01 C 46.77 15.92 48.89 17.66 50.34 19.97 C 53.56 20.03 56.78 19.99 60.00 20.00 C 59.99 21.33 59.99 22.67 60.00 24.00 C 56.78 24.01 53.56 23.97 50.35 24.03 C 48.88 26.34 46.77 28.09 44.85 30.00 C 42.57 29.99 40.28 30.00 38.00 30.00 C 38.00 31.33 38.00 32.67 38.00 34.00 C 33.27 34.00 28.54 34.00 23.81 34.00 C 23.20 39.33 22.60 44.67 22.00 50.00 C 23.33 50.00 24.67 50.00 26.00 50.00 C 25.99 51.33 25.99 52.67 26.00 54.00 C 21.31 53.95 16.62 54.09 11.93 53.96 C 9.45 54.00 7.50 51.37 8.09 48.99 C 8.60 44.07 9.16 39.16 9.76 34.25 C 7.10 33.79 4.24 32.08 4.10 29.11 C 3.88 24.72 4.02 20.32 4.02 15.93 M 8.09 14.98 C 7.92 19.66 7.93 24.37 8.09 29.05 C 8.32 29.26 8.78 29.69 9.01 29.91 C 17.33 30.14 25.67 29.93 34.00 30.00 C 34.00 24.67 34.00 19.33 34.00 14.00 C 25.67 14.07 17.32 13.86 8.99 14.09 C 8.77 14.31 8.32 14.76 8.09 14.98 M 38.00 18.00 C 38.00 20.67 38.00 23.33 38.00 26.00 C 39.71 25.99 41.41 25.99 43.12 26.01 C 44.09 25.06 45.11 24.13 45.95 23.05 C 46.75 20.72 44.44 19.44 43.12 17.99 C 41.41 18.01 39.71 18.01 38.00 18.00 M 13.81 34.00 C 13.20 39.33 12.60 44.66 11.99 50.00 C 13.99 50.00 15.98 49.99 17.97 50.01 C 18.56 44.67 19.15 39.34 19.75 34.00 C 17.77 34.00 15.79 34.01 13.81 34.00 Z" />
</g>
</svg>
