<?xml version="1.0" encoding="UTF-8" ?>
<!DOCTYPE svg PUBLIC "-//W3C//DTD SVG 1.1//EN" "http://www.w3.org/Graphics/SVG/1.1/DTD/svg11.dtd">
<svg width="64pt" height="64pt" viewBox="0 0 64 64" version="1.1" xmlns="http://www.w3.org/2000/svg">
<g id="#ffffffff">
<path fill="#ffffff" opacity="1.00" d=" M 0.00 0.00 L 64.00 0.00 L 64.00 36.00 C 56.00 36.00 48.00 36.00 40.00 36.00 C 40.00 37.61 40.00 39.22 40.00 40.82 C 43.33 44.17 46.70 47.49 50.01 50.86 C 50.00 53.90 50.00 56.95 50.00 59.99 C 48.66 60.00 47.33 60.00 46.00 60.01 C 46.00 61.34 46.00 62.67 46.00 64.00 L 0.00 64.00 L 0.00 0.00 M 11.12 20.19 C 7.72 26.12 7.07 33.52 9.37 39.95 C 11.90 47.32 18.28 53.19 25.81 55.17 C 32.42 56.99 39.70 55.64 45.41 51.91 C 44.46 50.94 43.50 49.98 42.55 49.01 C 37.36 52.07 30.84 52.94 25.15 50.78 C 17.42 48.05 11.87 40.19 12.01 31.97 C 11.91 24.28 16.76 16.87 23.77 13.78 C 30.68 10.57 39.35 11.82 45.05 16.87 C 49.45 20.60 51.94 26.27 52.04 32.00 C 53.37 32.00 54.70 31.99 56.03 31.99 C 55.95 25.46 53.23 18.99 48.43 14.54 C 43.33 9.63 35.94 7.28 28.93 8.21 C 21.55 9.11 14.75 13.71 11.12 20.19 M 30.00 16.00 C 30.00 20.67 30.00 25.33 30.00 30.00 C 26.67 30.01 23.33 29.99 20.00 30.00 C 20.00 31.33 20.00 32.67 20.00 34.00 C 24.67 34.00 29.33 34.00 34.00 34.00 C 34.00 28.00 34.00 22.00 34.00 16.00 C 32.67 16.00 31.33 16.00 30.00 16.00 Z" />
<path fill="#ffffff" opacity="1.00" d=" M 44.84 40.01 C 49.61 39.99 54.39 40.00 59.16 40.01 C 56.78 42.40 54.40 44.79 52.00 47.16 C 49.60 44.79 47.24 42.38 44.84 40.01 Z" />
<path fill="#ffffff" opacity="1.00" d=" M 53.99 50.87 C 57.28 47.46 60.72 44.20 64.00 40.79 L 64.00 64.00 L 58.00 64.00 C 58.00 62.67 58.00 61.34 58.00 60.01 C 56.66 60.00 55.33 60.00 54.00 59.99 C 54.00 56.95 54.00 53.91 53.99 50.87 Z" />
</g>
<g id="#000000ff">
<path fill="#000000" opacity="1.00" d=" M 11.12 20.19 C 14.75 13.71 21.55 9.11 28.93 8.21 C 35.94 7.28 43.33 9.63 48.43 14.54 C 53.23 18.99 55.95 25.46 56.03 31.99 C 54.70 31.99 53.37 32.00 52.04 32.00 C 51.94 26.27 49.45 20.60 45.05 16.87 C 39.35 11.82 30.68 10.57 23.77 13.78 C 16.76 16.87 11.91 24.28 12.01 31.97 C 11.87 40.19 17.42 48.05 25.15 50.78 C 30.84 52.94 37.36 52.07 42.55 49.01 C 43.50 49.98 44.46 50.94 45.41 51.91 C 39.70 55.64 32.42 56.99 25.81 55.17 C 18.28 53.19 11.90 47.32 9.37 39.95 C 7.07 33.52 7.72 26.12 11.12 20.19 Z" />
<path fill="#000000" opacity="1.00" d=" M 30.00 16.00 C 31.33 16.00 32.67 16.00 34.00 16.00 C 34.00 22.00 34.00 28.00 34.00 34.00 C 29.33 34.00 24.67 34.00 20.00 34.00 C 20.00 32.67 20.00 31.33 20.00 30.00 C 23.33 29.99 26.67 30.01 30.00 30.00 C 30.00 25.33 30.00 20.67 30.00 16.00 Z" />
<path fill="#000000" opacity="1.00" d=" M 40.00 36.00 C 48.00 36.00 56.00 36.00 64.00 36.00 L 64.00 40.79 C 60.72 44.20 57.28 47.46 53.99 50.87 C 54.00 53.91 54.00 56.95 54.00 59.99 C 55.33 60.00 56.66 60.00 58.00 60.01 C 58.00 61.34 58.00 62.67 58.00 64.00 L 46.00 64.00 C 46.00 62.67 46.00 61.34 46.00 60.01 C 47.33 60.00 48.66 60.00 50.00 59.99 C 50.00 56.95 50.00 53.90 50.01 50.86 C 46.70 47.49 43.33 44.17 40.00 40.82 C 40.00 39.22 40.00 37.61 40.00 36.00 M 44.84 40.01 C 47.24 42.38 49.60 44.79 52.00 47.16 C 54.40 44.79 56.78 42.40 59.16 40.01 C 54.39 40.00 49.61 39.99 44.84 40.01 Z" />
</g>
</svg>
