<?xml version="1.0" encoding="UTF-8" ?>
<!DOCTYPE svg PUBLIC "-//W3C//DTD SVG 1.1//EN" "http://www.w3.org/Graphics/SVG/1.1/DTD/svg11.dtd">
<svg width="64pt" height="64pt" viewBox="0 0 64 64" version="1.1" xmlns="http://www.w3.org/2000/svg">
<g id="#ffffffff">
<path fill="#ffffff" opacity="1.00" d=" M 0.00 0.00 L 64.00 0.00 L 64.00 64.00 L 0.00 64.00 L 0.00 0.00 M 2.00 10.00 C 2.00 11.33 2.00 12.67 2.00 14.00 C 5.33 14.00 8.67 14.00 12.00 14.00 C 12.00 15.33 12.00 16.67 12.00 18.00 C 10.67 18.00 9.33 18.00 8.00 18.00 C 8.00 19.33 8.00 20.67 8.00 22.00 C 13.33 22.00 18.67 22.00 24.00 22.00 C 24.00 23.30 24.00 24.60 24.00 25.90 C 17.34 26.10 11.05 31.19 10.22 37.92 C 9.73 43.26 10.12 48.64 10.00 54.00 C 11.33 54.00 12.67 54.00 14.00 54.00 C 14.08 48.96 13.82 43.90 14.12 38.87 C 14.51 33.98 19.08 29.93 23.98 30.03 C 29.34 29.97 34.71 29.96 40.07 30.04 C 44.94 29.95 49.48 33.99 49.87 38.86 C 50.18 43.90 49.91 48.95 50.00 54.00 C 51.33 54.00 52.67 54.00 54.00 54.00 C 53.88 48.63 54.27 43.24 53.78 37.89 C 52.93 31.16 46.66 26.10 40.00 25.90 C 40.00 24.60 40.00 23.30 40.00 22.00 C 45.33 22.00 50.67 22.00 56.00 22.00 C 56.00 20.67 56.00 19.33 56.00 18.00 C 54.67 18.00 53.33 18.00 52.00 18.00 C 52.00 15.33 52.00 12.67 52.00 10.00 C 47.33 10.00 42.67 10.00 38.00 10.00 C 38.00 11.33 38.00 12.67 38.00 14.00 C 41.33 14.00 44.67 14.00 48.00 14.00 C 48.00 15.33 48.00 16.67 48.00 18.00 C 37.33 18.00 26.67 18.00 16.00 18.00 C 16.00 15.33 16.00 12.67 16.00 10.00 C 11.33 10.00 6.67 10.00 2.00 10.00 M 18.00 10.00 C 18.00 11.33 18.00 12.67 18.00 14.00 C 20.67 14.00 23.33 14.00 26.00 14.00 C 26.00 12.67 26.00 11.33 26.00 10.00 C 23.33 10.00 20.67 10.00 18.00 10.00 M 54.00 10.00 C 54.00 11.33 54.00 12.67 54.00 14.00 C 56.67 14.00 59.33 14.00 62.00 14.00 C 62.00 12.67 62.00 11.33 62.00 10.00 C 59.33 10.00 56.67 10.00 54.00 10.00 Z" />
<path fill="#ffffff" opacity="1.00" d=" M 28.00 22.00 C 30.67 22.00 33.33 22.00 36.00 22.00 C 36.00 23.33 36.00 24.67 36.00 26.00 C 33.33 26.00 30.67 26.00 28.00 26.00 C 28.00 24.67 28.00 23.33 28.00 22.00 Z" />
</g>
<g id="#000000ff">
<path fill="#000000" opacity="1.00" d=" M 2.00 10.00 C 6.67 10.00 11.33 10.00 16.00 10.00 C 16.00 12.67 16.00 15.33 16.00 18.00 C 26.67 18.00 37.33 18.00 48.00 18.00 C 48.00 16.67 48.00 15.33 48.00 14.00 C 44.67 14.00 41.33 14.00 38.00 14.00 C 38.00 12.67 38.00 11.33 38.00 10.00 C 42.67 10.00 47.33 10.00 52.00 10.00 C 52.00 12.67 52.00 15.33 52.00 18.00 C 53.33 18.00 54.67 18.00 56.00 18.00 C 56.00 19.33 56.00 20.67 56.00 22.00 C 50.67 22.00 45.33 22.00 40.00 22.00 C 40.00 23.30 40.00 24.60 40.00 25.90 C 46.66 26.10 52.93 31.16 53.78 37.89 C 54.27 43.24 53.88 48.63 54.00 54.00 C 52.67 54.00 51.33 54.00 50.00 54.00 C 49.91 48.95 50.18 43.90 49.87 38.86 C 49.48 33.99 44.94 29.95 40.07 30.04 C 34.71 29.96 29.34 29.97 23.98 30.03 C 19.08 29.93 14.51 33.98 14.12 38.87 C 13.82 43.90 14.08 48.96 14.00 54.00 C 12.67 54.00 11.33 54.00 10.00 54.00 C 10.12 48.64 9.73 43.26 10.22 37.92 C 11.05 31.19 17.34 26.10 24.00 25.90 C 24.00 24.60 24.00 23.30 24.00 22.00 C 18.67 22.00 13.33 22.00 8.00 22.00 C 8.00 20.67 8.00 19.33 8.00 18.00 C 9.33 18.00 10.67 18.00 12.00 18.00 C 12.00 16.67 12.00 15.33 12.00 14.00 C 8.67 14.00 5.33 14.00 2.00 14.00 C 2.00 12.67 2.00 11.33 2.00 10.00 M 28.00 22.00 C 28.00 23.33 28.00 24.67 28.00 26.00 C 30.67 26.00 33.33 26.00 36.00 26.00 C 36.00 24.67 36.00 23.33 36.00 22.00 C 33.33 22.00 30.67 22.00 28.00 22.00 Z" />
<path fill="#000000" opacity="1.00" d=" M 18.00 10.00 C 20.67 10.00 23.33 10.00 26.00 10.00 C 26.00 11.33 26.00 12.67 26.00 14.00 C 23.33 14.00 20.67 14.00 18.00 14.00 C 18.00 12.67 18.00 11.33 18.00 10.00 Z" />
<path fill="#000000" opacity="1.00" d=" M 54.00 10.00 C 56.67 10.00 59.33 10.00 62.00 10.00 C 62.00 11.33 62.00 12.67 62.00 14.00 C 59.33 14.00 56.67 14.00 54.00 14.00 C 54.00 12.67 54.00 11.33 54.00 10.00 Z" />
</g>
</svg>
