<?xml version="1.0" encoding="UTF-8" ?>
<!DOCTYPE svg PUBLIC "-//W3C//DTD SVG 1.1//EN" "http://www.w3.org/Graphics/SVG/1.1/DTD/svg11.dtd">
<svg width="64pt" height="64pt" viewBox="0 0 64 64" version="1.1" xmlns="http://www.w3.org/2000/svg">
<g id="#ffffffff">
<path fill="#ffffff" opacity="1.00" d=" M 0.00 0.00 L 64.00 0.00 L 64.00 64.00 L 0.00 64.00 L 0.00 0.00 M 26.43 8.66 C 18.85 10.44 12.32 16.14 9.59 23.44 C 6.66 30.93 7.88 39.87 12.74 46.28 C 17.77 53.17 26.67 57.00 35.13 55.76 C 46.25 54.35 55.34 44.21 55.95 33.09 C 56.36 25.73 53.05 18.33 47.40 13.61 C 41.72 8.76 33.68 6.91 26.43 8.66 Z" />
<path fill="#ffffff" opacity="1.00" d=" M 13.62 23.96 C 17.17 16.29 25.58 11.05 34.10 12.15 C 41.21 12.73 47.33 17.65 50.39 23.97 C 38.13 24.02 25.88 24.03 13.62 23.96 Z" />
<path fill="#ffffff" opacity="1.00" d=" M 12.70 36.01 C 11.95 33.36 11.97 30.64 12.71 27.99 C 14.12 27.99 15.52 28.00 16.93 28.00 C 18.33 29.84 19.51 31.84 20.33 34.00 C 21.55 34.00 22.78 34.00 24.00 34.00 C 24.00 33.35 24.00 32.04 23.99 31.38 C 23.24 30.26 22.51 29.13 21.76 28.01 C 25.24 27.99 28.73 28.02 32.22 27.98 C 30.89 29.75 29.79 31.72 29.82 34.00 C 31.11 34.00 32.39 34.00 33.68 34.00 C 34.54 31.86 35.51 29.68 37.22 28.06 C 40.34 27.65 41.14 31.85 42.32 34.01 C 43.61 34.00 44.89 34.00 46.18 34.00 C 46.19 31.73 45.12 29.75 43.80 27.98 C 46.30 28.02 48.79 28.01 51.29 27.98 C 52.02 30.63 52.05 33.36 51.30 36.01 C 38.43 35.99 25.57 35.99 12.70 36.01 Z" />
<path fill="#ffffff" opacity="1.00" d=" M 13.61 40.05 C 15.08 40.02 16.54 40.00 18.00 39.98 C 18.00 41.42 18.00 42.86 17.98 44.30 C 15.70 43.98 14.82 41.68 13.61 40.05 Z" />
<path fill="#ffffff" opacity="1.00" d=" M 22.00 40.00 C 23.33 40.00 24.67 40.00 26.00 40.00 C 26.00 41.33 26.00 42.67 26.00 44.00 C 24.67 44.00 23.33 44.00 22.00 44.00 C 22.00 42.67 22.00 41.33 22.00 40.00 Z" />
<path fill="#ffffff" opacity="1.00" d=" M 30.00 40.00 C 31.33 40.00 32.67 40.00 34.00 40.00 C 34.00 41.33 34.00 42.67 34.00 44.00 C 32.67 44.00 31.33 44.00 30.00 44.00 C 30.00 42.67 30.00 41.33 30.00 40.00 Z" />
<path fill="#ffffff" opacity="1.00" d=" M 38.00 40.00 C 39.33 40.00 40.67 40.00 42.00 40.00 C 42.00 41.33 42.00 42.67 42.00 44.00 C 40.67 44.00 39.33 44.00 38.00 44.00 C 38.00 42.67 38.00 41.33 38.00 40.00 Z" />
<path fill="#ffffff" opacity="1.00" d=" M 46.00 39.98 C 47.46 40.00 48.92 40.02 50.39 40.05 C 49.18 41.68 48.31 43.98 46.02 44.30 C 46.00 42.86 45.99 41.42 46.00 39.98 Z" />
<path fill="#ffffff" opacity="1.00" d=" M 21.52 48.04 C 23.02 48.00 24.52 47.98 26.02 47.99 C 26.00 48.72 25.96 50.18 25.94 50.90 C 24.35 50.14 22.65 49.47 21.52 48.04 Z" />
<path fill="#ffffff" opacity="1.00" d=" M 29.97 48.00 C 31.32 48.00 32.67 48.00 34.03 48.00 C 34.00 49.28 33.97 50.57 33.93 51.85 C 32.64 51.80 31.36 51.80 30.08 51.86 C 30.04 50.57 30.00 49.28 29.97 48.00 Z" />
<path fill="#ffffff" opacity="1.00" d=" M 37.98 47.99 C 39.48 47.98 40.98 48.00 42.48 48.04 C 41.35 49.46 39.64 50.14 38.06 50.90 C 38.04 50.18 38.00 48.72 37.98 47.99 Z" />
</g>
<g id="#000000ff">
<path fill="#000000" opacity="1.00" d=" M 26.43 8.66 C 33.68 6.91 41.72 8.76 47.40 13.61 C 53.05 18.33 56.36 25.73 55.95 33.09 C 55.34 44.21 46.25 54.35 35.13 55.76 C 26.67 57.00 17.77 53.17 12.74 46.28 C 7.88 39.87 6.66 30.93 9.59 23.44 C 12.32 16.14 18.85 10.44 26.43 8.66 M 13.62 23.96 C 25.88 24.03 38.13 24.02 50.39 23.97 C 47.33 17.65 41.21 12.73 34.10 12.15 C 25.58 11.05 17.17 16.29 13.62 23.96 M 12.70 36.01 C 25.57 35.99 38.43 35.99 51.30 36.01 C 52.05 33.36 52.02 30.63 51.29 27.98 C 48.79 28.01 46.30 28.02 43.80 27.98 C 45.12 29.75 46.19 31.73 46.18 34.00 C 44.89 34.00 43.61 34.00 42.32 34.01 C 41.14 31.85 40.34 27.65 37.22 28.06 C 35.51 29.68 34.54 31.86 33.68 34.00 C 32.39 34.00 31.11 34.00 29.82 34.00 C 29.79 31.72 30.89 29.75 32.22 27.98 C 28.73 28.02 25.24 27.99 21.76 28.01 C 22.51 29.13 23.24 30.26 23.99 31.38 C 24.00 32.04 24.00 33.35 24.00 34.00 C 22.78 34.00 21.55 34.00 20.33 34.00 C 19.51 31.84 18.33 29.84 16.93 28.00 C 15.52 28.00 14.12 27.99 12.71 27.99 C 11.97 30.64 11.95 33.36 12.70 36.01 M 13.61 40.05 C 14.82 41.68 15.70 43.98 17.98 44.30 C 18.00 42.86 18.00 41.42 18.00 39.98 C 16.54 40.00 15.08 40.02 13.61 40.05 M 22.00 40.00 C 22.00 41.33 22.00 42.67 22.00 44.00 C 23.33 44.00 24.67 44.00 26.00 44.00 C 26.00 42.67 26.00 41.33 26.00 40.00 C 24.67 40.00 23.33 40.00 22.00 40.00 M 30.00 40.00 C 30.00 41.33 30.00 42.67 30.00 44.00 C 31.33 44.00 32.67 44.00 34.00 44.00 C 34.00 42.67 34.00 41.33 34.00 40.00 C 32.67 40.00 31.33 40.00 30.00 40.00 M 38.00 40.00 C 38.00 41.33 38.00 42.67 38.00 44.00 C 39.33 44.00 40.67 44.00 42.00 44.00 C 42.00 42.67 42.00 41.33 42.00 40.00 C 40.67 40.00 39.33 40.00 38.00 40.00 M 46.00 39.98 C 45.99 41.42 46.00 42.86 46.02 44.30 C 48.31 43.98 49.18 41.68 50.39 40.05 C 48.92 40.02 47.46 40.00 46.00 39.98 M 21.52 48.04 C 22.65 49.47 24.35 50.14 25.94 50.90 C 25.96 50.18 26.00 48.72 26.02 47.99 C 24.52 47.98 23.02 48.00 21.52 48.04 M 29.97 48.00 C 30.00 49.28 30.04 50.57 30.08 51.86 C 31.36 51.80 32.64 51.80 33.93 51.85 C 33.97 50.57 34.00 49.28 34.03 48.00 C 32.67 48.00 31.32 48.00 29.97 48.00 M 37.98 47.99 C 38.00 48.72 38.04 50.18 38.06 50.90 C 39.64 50.14 41.35 49.46 42.48 48.04 C 40.98 48.00 39.48 47.98 37.98 47.99 Z" />
</g>
</svg>
