<?xml version="1.0" encoding="UTF-8" ?>
<!DOCTYPE svg PUBLIC "-//W3C//DTD SVG 1.1//EN" "http://www.w3.org/Graphics/SVG/1.1/DTD/svg11.dtd">
<svg width="64pt" height="64pt" viewBox="0 0 64 64" version="1.1" xmlns="http://www.w3.org/2000/svg">
<g id="#ffffffff">
<path fill="#ffffff" opacity="1.00" d=" M 0.00 0.00 L 64.00 0.00 L 64.00 64.00 L 0.00 64.00 L 0.00 0.00 M 26.40 4.89 C 25.82 5.87 25.23 6.85 24.65 7.83 C 23.58 7.43 22.52 7.03 21.46 6.63 C 21.01 7.75 20.57 8.88 20.12 10.00 C 19.30 9.89 17.64 9.68 16.81 9.57 C 16.58 10.76 16.34 11.95 16.11 13.14 C 15.00 13.25 13.89 13.36 12.79 13.47 C 12.81 14.37 12.84 16.18 12.86 17.08 C 11.79 17.45 10.71 17.82 9.64 18.19 C 9.88 19.36 10.12 20.53 10.37 21.71 C 9.65 22.14 8.22 22.99 7.51 23.42 C 7.96 24.52 8.42 25.63 8.87 26.73 C 8.05 27.53 7.22 28.33 6.39 29.12 C 7.06 30.08 7.73 31.04 8.40 31.99 C 7.74 32.96 7.07 33.92 6.39 34.88 C 7.22 35.67 8.05 36.47 8.87 37.27 C 8.42 38.37 7.96 39.48 7.51 40.59 C 8.22 41.01 9.65 41.86 10.37 42.29 C 10.12 43.46 9.88 44.63 9.63 45.80 C 10.71 46.18 11.78 46.55 12.86 46.92 C 12.84 47.83 12.81 49.63 12.79 50.53 C 13.90 50.64 15.00 50.75 16.11 50.86 C 16.34 52.05 16.58 53.24 16.81 54.43 C 17.64 54.32 19.30 54.11 20.12 54.00 C 20.57 55.12 21.01 56.25 21.46 57.37 C 22.50 56.98 23.54 56.59 24.57 56.20 C 25.28 57.21 25.99 58.21 26.72 59.20 C 27.40 58.73 28.75 57.81 29.43 57.35 C 30.28 58.17 31.14 58.99 32.00 59.81 C 32.83 59.01 33.66 58.23 34.49 57.44 C 35.16 57.80 36.48 58.54 37.15 58.91 C 38.30 58.62 38.63 57.02 39.44 56.21 C 40.48 56.59 41.52 56.98 42.56 57.36 C 42.99 56.24 43.43 55.12 43.87 54.00 C 44.70 54.11 46.36 54.32 47.19 54.43 C 47.42 53.24 47.66 52.05 47.89 50.86 C 49.00 50.75 50.10 50.64 51.21 50.53 C 51.19 49.63 51.16 47.83 51.14 46.92 C 52.21 46.55 53.29 46.18 54.37 45.80 C 54.12 44.63 53.88 43.46 53.63 42.29 C 54.35 41.86 55.78 41.01 56.49 40.58 C 56.04 39.48 55.58 38.37 55.13 37.27 C 55.95 36.47 56.77 35.68 57.60 34.88 C 56.94 33.92 56.28 32.96 55.62 32.00 C 56.28 31.04 56.94 30.08 57.60 29.12 C 56.78 28.32 55.95 27.53 55.13 26.74 C 55.58 25.63 56.04 24.52 56.49 23.41 C 55.78 22.99 54.35 22.14 53.63 21.71 C 53.88 20.54 54.12 19.36 54.37 18.19 C 53.29 17.82 52.21 17.45 51.14 17.08 C 51.16 16.17 51.19 14.37 51.21 13.46 C 50.10 13.36 49.00 13.25 47.89 13.15 C 47.66 11.95 47.42 10.76 47.19 9.57 C 46.36 9.68 44.71 9.89 43.88 10.00 C 43.43 8.88 42.98 7.75 42.54 6.63 C 41.50 7.02 40.47 7.42 39.44 7.81 C 38.71 6.82 38.05 5.79 37.31 4.81 C 36.63 5.27 35.26 6.19 34.58 6.65 C 33.72 5.83 32.86 5.01 32.00 4.19 C 31.16 4.99 30.33 5.79 29.49 6.59 C 28.48 5.99 27.44 5.43 26.40 4.89 Z" />
<path fill="#ffffff" opacity="1.00" d=" M 27.82 10.46 C 29.38 11.92 30.78 11.49 32.00 9.96 C 33.22 11.48 34.62 11.92 36.18 10.46 C 37.08 12.29 38.46 12.91 40.33 11.80 C 40.58 12.42 41.06 13.67 41.30 14.30 C 41.98 14.23 43.33 14.08 44.01 14.00 C 44.13 14.70 44.37 16.09 44.49 16.79 C 45.15 16.86 46.46 17.00 47.12 17.07 C 47.12 17.79 47.13 19.22 47.13 19.94 C 47.77 20.17 49.05 20.62 49.69 20.84 C 49.56 21.55 49.29 22.96 49.15 23.66 C 49.72 24.01 50.86 24.71 51.43 25.07 C 51.16 25.73 50.64 27.06 50.38 27.72 C 50.88 28.21 51.88 29.20 52.38 29.69 C 51.98 30.27 51.18 31.42 50.78 32.00 C 51.18 32.58 51.98 33.73 52.38 34.31 C 51.88 34.80 50.88 35.79 50.38 36.28 C 50.64 36.94 51.17 38.27 51.43 38.94 C 50.86 39.29 49.72 39.99 49.15 40.33 C 49.29 41.04 49.56 42.45 49.69 43.16 C 49.05 43.38 47.77 43.83 47.13 44.06 C 47.13 44.78 47.12 46.21 47.12 46.93 C 46.46 47.00 45.15 47.14 44.49 47.22 C 44.37 47.91 44.13 49.30 44.01 50.00 C 43.33 49.92 41.98 49.77 41.31 49.70 C 41.07 50.32 40.57 51.58 40.33 52.20 C 38.46 51.09 37.07 51.69 36.18 53.54 C 34.62 52.08 33.22 52.52 32.00 54.04 C 30.78 52.50 29.38 52.08 27.82 53.54 C 26.91 51.73 25.54 51.07 23.67 52.21 C 23.43 51.58 22.93 50.32 22.69 49.70 C 22.01 49.77 20.67 49.92 19.99 50.00 C 19.87 49.30 19.63 47.91 19.51 47.21 C 18.85 47.14 17.54 47.00 16.88 46.93 C 16.88 46.21 16.87 44.78 16.87 44.06 C 16.23 43.83 14.95 43.38 14.31 43.16 C 14.44 42.45 14.71 41.04 14.85 40.33 C 14.30 39.99 13.20 39.32 12.65 38.98 C 13.68 37.15 13.54 35.48 11.70 34.24 C 12.21 33.49 12.73 32.74 13.25 31.99 C 12.84 31.42 12.03 30.28 11.62 29.71 C 12.12 29.21 13.12 28.21 13.62 27.70 C 13.36 27.04 12.83 25.72 12.57 25.06 C 13.14 24.72 14.28 24.02 14.85 23.67 C 14.71 22.96 14.44 21.55 14.31 20.84 C 14.95 20.62 16.23 20.17 16.87 19.94 C 16.88 19.22 16.88 17.79 16.88 17.07 C 17.54 17.00 18.85 16.86 19.51 16.78 C 19.63 16.09 19.87 14.70 19.99 14.00 C 20.67 14.08 22.02 14.23 22.69 14.30 C 22.94 13.68 23.42 12.42 23.67 11.80 C 25.53 12.91 26.92 12.29 27.82 10.46 M 27.47 14.72 C 22.16 16.44 18.18 21.14 16.66 26.43 C 14.34 34.15 17.21 43.46 24.22 47.75 C 29.68 51.31 37.35 50.48 42.06 46.04 C 49.50 39.45 50.12 26.91 43.57 19.49 C 39.77 14.90 33.18 12.77 27.47 14.72 Z" />
<path fill="#ffffff" opacity="1.00" d=" M 19.89 29.95 C 20.76 24.50 24.43 19.47 29.94 18.06 C 29.95 21.67 30.22 25.30 29.82 28.89 C 27.27 31.20 23.09 29.51 19.89 29.95 Z" />
<path fill="#ffffff" opacity="1.00" d=" M 34.06 18.05 C 39.56 19.48 43.23 24.50 44.11 29.96 C 40.91 29.50 36.70 31.22 34.17 28.88 C 33.79 25.28 34.05 21.66 34.06 18.05 Z" />
<path fill="#ffffff" opacity="1.00" d=" M 19.89 34.05 C 23.08 34.50 27.32 32.77 29.82 35.14 C 30.22 38.72 29.95 42.34 29.94 45.94 C 24.44 44.50 20.76 39.50 19.89 34.05 Z" />
<path fill="#ffffff" opacity="1.00" d=" M 34.18 35.11 C 36.72 32.79 40.91 34.49 44.11 34.05 C 43.23 39.50 39.56 44.50 34.06 45.94 C 34.05 42.33 33.78 38.70 34.18 35.11 Z" />
</g>
<g id="#000000ff">
<path fill="#000000" opacity="1.00" d=" M 26.40 4.89 C 27.44 5.43 28.48 5.99 29.49 6.59 C 30.33 5.79 31.16 4.99 32.00 4.19 C 32.86 5.01 33.72 5.83 34.58 6.65 C 35.26 6.19 36.63 5.27 37.31 4.81 C 38.05 5.79 38.71 6.82 39.44 7.81 C 40.47 7.42 41.50 7.02 42.54 6.63 C 42.98 7.75 43.43 8.88 43.88 10.00 C 44.71 9.89 46.36 9.68 47.19 9.57 C 47.42 10.76 47.66 11.95 47.89 13.15 C 49.00 13.25 50.10 13.36 51.21 13.46 C 51.19 14.37 51.16 16.17 51.14 17.08 C 52.21 17.45 53.29 17.82 54.37 18.19 C 54.12 19.36 53.88 20.54 53.63 21.71 C 54.35 22.14 55.78 22.99 56.49 23.41 C 56.04 24.52 55.58 25.63 55.13 26.74 C 55.95 27.53 56.78 28.32 57.60 29.12 C 56.94 30.08 56.28 31.04 55.62 32.00 C 56.28 32.96 56.94 33.92 57.60 34.88 C 56.77 35.68 55.95 36.47 55.13 37.27 C 55.58 38.37 56.04 39.48 56.49 40.58 C 55.78 41.01 54.35 41.86 53.63 42.29 C 53.88 43.46 54.12 44.63 54.37 45.80 C 53.29 46.18 52.21 46.55 51.14 46.92 C 51.16 47.83 51.19 49.63 51.21 50.53 C 50.10 50.64 49.00 50.75 47.89 50.86 C 47.66 52.05 47.42 53.24 47.19 54.43 C 46.36 54.32 44.70 54.11 43.87 54.00 C 43.43 55.12 42.99 56.24 42.56 57.36 C 41.52 56.98 40.48 56.59 39.44 56.21 C 38.63 57.02 38.30 58.62 37.15 58.91 C 36.48 58.54 35.16 57.80 34.49 57.44 C 33.66 58.23 32.83 59.01 32.00 59.81 C 31.14 58.99 30.28 58.17 29.43 57.35 C 28.75 57.81 27.40 58.73 26.72 59.20 C 25.99 58.21 25.28 57.21 24.57 56.20 C 23.54 56.59 22.50 56.98 21.46 57.37 C 21.01 56.25 20.57 55.12 20.12 54.00 C 19.30 54.11 17.64 54.32 16.81 54.43 C 16.58 53.24 16.34 52.05 16.11 50.86 C 15.00 50.75 13.90 50.64 12.79 50.53 C 12.81 49.63 12.84 47.83 12.86 46.92 C 11.78 46.55 10.71 46.18 9.63 45.80 C 9.88 44.63 10.12 43.46 10.37 42.29 C 9.65 41.86 8.22 41.01 7.51 40.59 C 7.96 39.48 8.42 38.37 8.87 37.27 C 8.05 36.47 7.22 35.67 6.39 34.88 C 7.07 33.92 7.74 32.96 8.40 31.99 C 7.73 31.04 7.06 30.08 6.39 29.12 C 7.22 28.33 8.05 27.53 8.87 26.73 C 8.42 25.63 7.96 24.52 7.51 23.42 C 8.22 22.99 9.65 22.14 10.37 21.71 C 10.12 20.53 9.88 19.36 9.64 18.19 C 10.71 17.82 11.79 17.45 12.86 17.08 C 12.84 16.18 12.81 14.37 12.79 13.47 C 13.89 13.36 15.00 13.25 16.11 13.14 C 16.34 11.95 16.58 10.76 16.81 9.57 C 17.64 9.68 19.30 9.89 20.12 10.00 C 20.57 8.88 21.01 7.75 21.46 6.63 C 22.52 7.03 23.58 7.43 24.65 7.83 C 25.23 6.85 25.82 5.87 26.40 4.89 M 27.82 10.46 C 26.92 12.29 25.53 12.91 23.67 11.80 C 23.42 12.42 22.94 13.68 22.69 14.30 C 22.02 14.23 20.67 14.08 19.99 14.00 C 19.87 14.70 19.63 16.09 19.51 16.78 C 18.85 16.86 17.54 17.00 16.88 17.07 C 16.88 17.79 16.88 19.22 16.87 19.94 C 16.23 20.17 14.95 20.62 14.31 20.84 C 14.44 21.55 14.71 22.96 14.85 23.67 C 14.28 24.02 13.14 24.72 12.57 25.06 C 12.83 25.72 13.36 27.04 13.62 27.70 C 13.12 28.21 12.12 29.21 11.62 29.71 C 12.03 30.28 12.84 31.42 13.25 31.99 C 12.73 32.74 12.21 33.49 11.70 34.24 C 13.54 35.48 13.68 37.15 12.65 38.98 C 13.20 39.32 14.30 39.99 14.85 40.33 C 14.71 41.04 14.44 42.45 14.31 43.16 C 14.95 43.38 16.23 43.83 16.87 44.06 C 16.87 44.78 16.88 46.21 16.88 46.93 C 17.54 47.00 18.85 47.14 19.51 47.21 C 19.63 47.91 19.87 49.30 19.99 50.00 C 20.67 49.92 22.01 49.77 22.69 49.70 C 22.93 50.32 23.43 51.58 23.67 52.21 C 25.54 51.07 26.91 51.73 27.82 53.54 C 29.38 52.08 30.78 52.50 32.00 54.04 C 33.22 52.52 34.62 52.08 36.18 53.54 C 37.07 51.69 38.46 51.09 40.33 52.20 C 40.57 51.58 41.07 50.32 41.31 49.70 C 41.98 49.77 43.33 49.92 44.01 50.00 C 44.13 49.30 44.37 47.91 44.49 47.22 C 45.15 47.14 46.46 47.00 47.12 46.93 C 47.12 46.21 47.13 44.78 47.13 44.06 C 47.77 43.83 49.05 43.38 49.69 43.16 C 49.56 42.45 49.29 41.04 49.15 40.33 C 49.72 39.99 50.86 39.29 51.43 38.94 C 51.17 38.27 50.64 36.94 50.38 36.28 C 50.88 35.79 51.88 34.80 52.38 34.31 C 51.98 33.73 51.18 32.58 50.78 32.00 C 51.18 31.42 51.98 30.27 52.38 29.69 C 51.88 29.20 50.88 28.21 50.38 27.72 C 50.64 27.06 51.16 25.73 51.43 25.07 C 50.86 24.71 49.72 24.01 49.15 23.66 C 49.29 22.96 49.56 21.55 49.69 20.84 C 49.05 20.62 47.77 20.17 47.13 19.94 C 47.13 19.22 47.12 17.79 47.12 17.07 C 46.46 17.00 45.15 16.86 44.49 16.79 C 44.37 16.09 44.13 14.70 44.01 14.00 C 43.33 14.08 41.98 14.23 41.30 14.30 C 41.06 13.67 40.58 12.42 40.33 11.80 C 38.46 12.91 37.08 12.29 36.18 10.46 C 34.62 11.92 33.22 11.48 32.00 9.96 C 30.78 11.49 29.38 11.92 27.82 10.46 Z" />
<path fill="#000000" opacity="1.00" d=" M 27.47 14.72 C 33.18 12.77 39.77 14.90 43.57 19.49 C 50.12 26.91 49.50 39.45 42.06 46.04 C 37.35 50.48 29.68 51.31 24.22 47.75 C 17.21 43.46 14.34 34.15 16.66 26.43 C 18.18 21.14 22.16 16.44 27.47 14.72 M 19.89 29.95 C 23.09 29.51 27.27 31.20 29.82 28.89 C 30.22 25.30 29.95 21.67 29.94 18.06 C 24.43 19.47 20.76 24.50 19.89 29.95 M 34.06 18.05 C 34.05 21.66 33.79 25.28 34.17 28.88 C 36.70 31.22 40.91 29.50 44.11 29.96 C 43.23 24.50 39.56 19.48 34.06 18.05 M 19.89 34.05 C 20.76 39.50 24.44 44.50 29.94 45.94 C 29.95 42.34 30.22 38.72 29.82 35.14 C 27.32 32.77 23.08 34.50 19.89 34.05 M 34.18 35.11 C 33.78 38.70 34.05 42.33 34.06 45.94 C 39.56 44.50 43.23 39.50 44.11 34.05 C 40.91 34.49 36.72 32.79 34.18 35.11 Z" />
</g>
</svg>
