<?xml version="1.0" encoding="UTF-8" ?>
<!DOCTYPE svg PUBLIC "-//W3C//DTD SVG 1.1//EN" "http://www.w3.org/Graphics/SVG/1.1/DTD/svg11.dtd">
<svg width="64pt" height="64pt" viewBox="0 0 64 64" version="1.1" xmlns="http://www.w3.org/2000/svg">
<g id="#ffffffff">
<path fill="#ffffff" opacity="1.00" d=" M 0.00 0.00 L 64.00 0.00 L 64.00 64.00 L 0.00 64.00 L 0.00 0.00 M 16.60 9.95 C 13.43 10.54 9.92 11.13 7.65 13.65 C 6.03 15.27 6.09 17.68 5.91 19.80 C 7.29 19.92 8.65 20.18 9.98 20.59 C 7.26 21.95 7.61 25.63 9.72 27.29 C 14.19 31.62 21.07 30.72 26.03 34.21 C 26.07 36.46 26.07 38.76 24.96 40.79 C 22.32 46.15 21.92 52.22 21.98 58.11 C 24.89 58.21 27.65 57.25 29.86 55.35 C 31.40 56.65 33.08 57.76 34.86 58.69 C 35.70 57.02 36.53 55.36 37.29 53.65 C 38.77 53.79 40.24 53.91 41.72 53.98 C 42.02 51.79 42.22 49.59 42.29 47.38 C 44.20 47.76 46.14 47.99 48.08 48.11 C 47.98 45.98 47.80 43.85 47.49 41.74 C 49.02 41.88 50.55 41.99 52.08 42.07 C 52.04 39.21 51.62 36.37 50.76 33.64 C 54.56 32.68 58.32 30.29 58.64 25.99 C 56.51 25.91 54.08 26.24 52.30 24.78 C 48.57 22.03 46.98 17.47 44.20 13.92 C 39.45 7.34 30.53 5.20 22.84 6.32 C 20.33 6.60 18.25 8.14 16.60 9.95 Z" />
<path fill="#ffffff" opacity="1.00" d=" M 22.29 10.35 C 27.55 9.63 33.28 10.06 37.78 13.12 C 42.81 16.67 44.14 23.35 48.93 27.14 C 49.56 27.88 50.77 28.29 50.90 29.36 C 49.04 29.82 47.15 30.09 45.27 30.40 C 46.19 32.80 47.04 35.22 47.69 37.70 C 44.84 36.34 42.44 34.26 39.97 32.33 C 41.19 36.09 42.64 39.78 43.71 43.59 C 41.59 42.61 39.56 41.44 37.57 40.22 C 37.93 43.22 38.21 46.24 38.22 49.27 C 36.87 47.97 35.64 46.56 34.44 45.14 C 34.23 47.39 34.08 49.66 33.63 51.89 C 31.51 52.47 31.26 49.51 30.25 48.27 C 29.01 50.04 27.63 51.71 26.10 53.23 C 26.23 49.07 27.28 45.01 29.09 41.27 C 30.59 38.54 29.57 35.32 30.26 32.43 C 31.62 30.36 34.00 28.63 33.98 25.93 C 34.07 23.24 31.44 21.86 29.58 20.48 C 27.10 18.93 26.03 16.07 24.64 13.65 C 26.56 14.55 27.96 16.09 29.29 17.69 C 31.52 17.82 33.77 17.59 35.99 18.02 C 36.00 16.73 36.00 15.43 36.00 14.14 C 32.86 13.80 29.84 12.70 27.44 10.61 C 26.44 11.60 25.46 12.61 24.49 13.63 C 23.78 12.52 23.04 11.43 22.29 10.35 Z" />
<path fill="#ffffff" opacity="1.00" d=" M 14.23 14.35 C 16.07 14.25 17.95 13.81 19.77 14.22 C 21.88 15.49 21.89 18.95 24.29 19.81 C 23.92 20.48 23.55 21.16 23.19 21.83 C 20.14 19.42 17.37 16.66 14.23 14.35 Z" />
<path fill="#ffffff" opacity="1.00" d=" M 9.46 18.64 C 13.22 16.69 15.64 20.88 18.04 23.01 C 14.83 22.39 10.86 22.15 9.46 18.64 Z" />
<path fill="#ffffff" opacity="1.00" d=" M 23.89 25.78 C 23.88 24.18 24.00 22.56 24.64 21.07 C 25.97 23.24 28.31 24.41 30.27 25.91 C 29.18 27.31 28.06 28.69 26.94 30.07 C 23.96 28.39 20.62 27.66 17.37 26.75 C 17.50 26.46 17.78 25.88 17.91 25.59 L 18.25 26.92 C 20.13 26.54 22.01 26.17 23.89 25.78 Z" />
</g>
<g id="#000000ff">
<path fill="#000000" opacity="1.00" d=" M 16.60 9.95 C 18.25 8.14 20.33 6.60 22.84 6.32 C 30.53 5.20 39.45 7.34 44.20 13.92 C 46.98 17.47 48.57 22.03 52.30 24.78 C 54.08 26.24 56.51 25.91 58.64 25.99 C 58.32 30.29 54.56 32.68 50.76 33.64 C 51.62 36.37 52.04 39.21 52.08 42.07 C 50.55 41.99 49.02 41.88 47.49 41.74 C 47.80 43.85 47.98 45.98 48.08 48.11 C 46.14 47.99 44.20 47.76 42.29 47.38 C 42.22 49.59 42.02 51.79 41.72 53.98 C 40.24 53.91 38.77 53.79 37.29 53.65 C 36.53 55.36 35.70 57.02 34.86 58.69 C 33.08 57.76 31.40 56.65 29.86 55.35 C 27.65 57.25 24.89 58.21 21.98 58.11 C 21.92 52.22 22.32 46.15 24.96 40.79 C 26.07 38.76 26.07 36.46 26.03 34.21 C 21.07 30.72 14.19 31.62 9.72 27.29 C 7.61 25.63 7.26 21.95 9.98 20.59 C 8.65 20.18 7.29 19.92 5.91 19.80 C 6.09 17.68 6.03 15.27 7.65 13.65 C 9.92 11.13 13.43 10.54 16.60 9.95 M 22.29 10.35 C 23.04 11.43 23.78 12.52 24.49 13.63 C 25.46 12.61 26.44 11.60 27.44 10.61 C 29.84 12.70 32.86 13.80 36.00 14.14 C 36.00 15.43 36.00 16.73 35.99 18.02 C 33.77 17.59 31.52 17.82 29.29 17.69 C 27.96 16.09 26.56 14.55 24.64 13.65 C 26.03 16.07 27.10 18.93 29.58 20.48 C 31.44 21.86 34.07 23.24 33.98 25.93 C 34.00 28.63 31.62 30.36 30.26 32.43 C 29.57 35.32 30.59 38.54 29.09 41.27 C 27.28 45.01 26.23 49.07 26.10 53.23 C 27.63 51.71 29.01 50.04 30.25 48.27 C 31.26 49.51 31.51 52.47 33.63 51.89 C 34.08 49.66 34.23 47.39 34.44 45.14 C 35.64 46.56 36.87 47.97 38.22 49.27 C 38.21 46.24 37.93 43.22 37.57 40.22 C 39.56 41.44 41.59 42.61 43.71 43.59 C 42.64 39.78 41.19 36.09 39.97 32.33 C 42.44 34.26 44.84 36.34 47.69 37.70 C 47.04 35.22 46.19 32.80 45.27 30.40 C 47.15 30.09 49.04 29.82 50.90 29.36 C 50.77 28.29 49.56 27.88 48.93 27.14 C 44.14 23.35 42.81 16.67 37.78 13.12 C 33.28 10.06 27.55 9.63 22.29 10.35 M 14.23 14.35 C 17.37 16.66 20.14 19.42 23.19 21.83 C 23.55 21.16 23.92 20.48 24.29 19.81 C 21.89 18.95 21.88 15.49 19.77 14.22 C 17.95 13.81 16.07 14.25 14.23 14.35 M 9.46 18.64 C 10.86 22.15 14.83 22.39 18.04 23.01 C 15.64 20.88 13.22 16.69 9.46 18.64 M 23.89 25.78 C 22.01 26.17 20.13 26.54 18.25 26.92 L 17.91 25.59 C 17.78 25.88 17.50 26.46 17.37 26.75 C 20.62 27.66 23.96 28.39 26.94 30.07 C 28.06 28.69 29.18 27.31 30.27 25.91 C 28.31 24.41 25.97 23.24 24.64 21.07 C 24.00 22.56 23.88 24.18 23.89 25.78 Z" />
</g>
</svg>
