<?xml version="1.0" encoding="UTF-8" ?>
<!DOCTYPE svg PUBLIC "-//W3C//DTD SVG 1.1//EN" "http://www.w3.org/Graphics/SVG/1.1/DTD/svg11.dtd">
<svg width="64pt" height="64pt" viewBox="0 0 64 64" version="1.1" xmlns="http://www.w3.org/2000/svg">
<g id="#ffffffff">
<path fill="#ffffff" opacity="1.00" d=" M 0.00 0.00 L 64.00 0.00 L 64.00 64.00 L 0.00 64.00 L 0.00 0.00 M 29.14 7.83 C 29.29 8.82 29.59 10.80 29.74 11.79 C 26.74 12.62 24.37 14.66 21.87 16.39 C 18.14 16.68 14.36 17.28 11.99 20.51 C 11.99 21.17 11.97 22.49 11.96 23.15 C 12.50 23.41 13.57 23.92 14.11 24.18 C 14.55 26.65 15.29 29.07 15.67 31.55 C 13.28 32.79 10.59 33.72 8.70 35.73 C 7.57 36.99 8.25 39.39 9.98 39.71 C 11.88 40.28 13.72 39.26 15.45 38.65 C 16.51 44.06 20.65 48.73 26.17 49.78 C 24.10 49.89 21.98 49.77 19.94 50.25 C 18.68 50.80 19.57 52.14 19.63 53.11 C 21.85 52.91 24.07 52.74 26.29 52.57 C 26.42 53.21 26.67 54.49 26.79 55.13 C 29.42 55.81 32.11 55.67 34.77 55.27 C 36.74 55.59 37.26 54.07 37.44 52.51 C 43.24 52.60 49.01 51.74 54.57 50.10 C 54.07 49.86 53.07 49.37 52.57 49.13 C 52.72 48.31 53.02 46.66 53.17 45.84 C 51.25 46.56 49.27 47.13 47.28 46.25 C 47.54 47.19 48.07 49.07 48.33 50.02 C 44.47 50.46 40.59 50.48 36.72 50.57 C 42.74 49.26 47.73 44.70 48.92 38.55 C 51.44 39.54 54.67 40.89 56.52 38.06 C 54.65 35.38 51.83 33.65 49.10 31.97 C 48.75 29.46 49.03 26.96 49.52 24.50 C 51.00 23.70 52.00 22.46 51.98 20.72 C 49.73 18.00 46.64 16.50 43.08 16.51 C 41.87 15.60 40.65 14.69 39.35 13.90 C 39.89 13.28 40.43 12.65 40.97 12.01 C 42.34 11.79 43.70 11.56 45.07 11.33 C 42.97 10.47 40.55 9.16 38.52 11.03 L 40.17 12.24 C 39.40 12.55 38.64 12.86 37.88 13.16 C 36.68 12.52 35.42 12.03 34.10 11.69 C 34.18 11.07 34.34 9.84 34.42 9.23 C 32.43 10.27 30.86 8.55 29.14 7.83 M 19.02 11.55 C 21.23 11.88 23.44 12.20 25.66 12.49 C 25.69 8.57 21.15 10.29 19.02 11.55 Z" />
<path fill="#ffffff" opacity="1.00" d=" M 17.54 19.73 C 20.47 18.86 23.72 18.83 26.71 19.44 C 29.92 20.57 28.78 24.70 28.20 27.21 C 27.66 30.62 23.43 29.89 20.93 29.93 C 18.14 30.23 17.31 27.15 16.83 25.05 C 16.61 23.34 15.82 20.93 17.54 19.73 M 23.10 22.14 C 20.89 23.35 22.44 26.81 24.85 25.91 C 27.14 24.72 25.52 21.05 23.10 22.14 Z" />
<path fill="#ffffff" opacity="1.00" d=" M 36.54 19.70 C 39.79 18.79 43.89 18.53 46.91 20.21 C 47.99 23.33 46.79 27.18 44.70 29.62 C 41.97 30.03 38.59 30.54 36.23 28.83 C 35.17 26.10 33.85 21.81 36.54 19.70 M 39.19 22.10 C 36.85 23.17 38.40 26.92 40.85 25.87 C 43.12 24.76 41.59 21.18 39.19 22.10 Z" />
<path fill="#ffffff" opacity="1.00" d=" M 29.90 28.74 C 30.66 27.39 30.58 24.71 32.78 25.18 C 33.30 26.22 33.68 27.32 34.07 28.41 C 33.61 28.79 32.67 29.55 32.21 29.93 C 31.63 29.63 30.48 29.04 29.90 28.74 Z" />
</g>
<g id="#000000ff">
<path fill="#000000" opacity="1.00" d=" M 29.14 7.83 C 30.86 8.55 32.43 10.27 34.42 9.23 C 34.34 9.84 34.18 11.07 34.10 11.69 C 35.42 12.03 36.68 12.52 37.88 13.16 C 38.64 12.86 39.40 12.55 40.17 12.24 L 38.52 11.03 C 40.55 9.16 42.97 10.47 45.07 11.33 C 43.70 11.56 42.34 11.79 40.97 12.01 C 40.43 12.65 39.89 13.28 39.35 13.90 C 40.65 14.69 41.87 15.60 43.08 16.51 C 46.64 16.50 49.73 18.00 51.98 20.72 C 52.00 22.46 51.00 23.70 49.52 24.50 C 49.03 26.96 48.75 29.46 49.10 31.97 C 51.83 33.65 54.65 35.38 56.52 38.06 C 54.67 40.89 51.44 39.54 48.92 38.55 C 47.73 44.70 42.74 49.26 36.72 50.57 C 40.59 50.48 44.47 50.46 48.33 50.02 C 48.07 49.07 47.54 47.19 47.28 46.25 C 49.27 47.13 51.25 46.56 53.17 45.84 C 53.02 46.66 52.72 48.31 52.57 49.13 C 53.07 49.37 54.07 49.86 54.57 50.10 C 49.01 51.74 43.24 52.60 37.44 52.51 C 37.26 54.07 36.74 55.59 34.77 55.27 C 32.11 55.67 29.42 55.81 26.79 55.13 C 26.67 54.49 26.42 53.21 26.29 52.57 C 24.07 52.74 21.85 52.91 19.63 53.11 C 19.57 52.14 18.68 50.80 19.94 50.25 C 21.98 49.77 24.10 49.89 26.17 49.78 C 20.65 48.73 16.51 44.06 15.45 38.65 C 13.72 39.26 11.88 40.28 9.98 39.71 C 8.25 39.39 7.57 36.99 8.70 35.73 C 10.59 33.72 13.28 32.79 15.67 31.55 C 15.29 29.07 14.55 26.65 14.11 24.18 C 13.57 23.92 12.50 23.41 11.96 23.15 C 11.97 22.49 11.99 21.17 11.99 20.51 C 14.36 17.28 18.14 16.68 21.87 16.39 C 24.37 14.66 26.74 12.62 29.74 11.79 C 29.59 10.80 29.29 8.82 29.14 7.83 M 17.54 19.73 C 15.82 20.93 16.61 23.34 16.83 25.05 C 17.31 27.15 18.14 30.23 20.93 29.93 C 23.43 29.89 27.66 30.62 28.20 27.21 C 28.78 24.70 29.92 20.57 26.71 19.44 C 23.72 18.83 20.47 18.86 17.54 19.73 M 36.54 19.70 C 33.85 21.81 35.17 26.10 36.23 28.83 C 38.59 30.54 41.97 30.03 44.70 29.62 C 46.79 27.18 47.99 23.33 46.91 20.21 C 43.89 18.53 39.79 18.79 36.54 19.70 M 29.90 28.74 C 30.48 29.04 31.63 29.63 32.21 29.93 C 32.67 29.55 33.61 28.79 34.07 28.41 C 33.68 27.32 33.30 26.22 32.78 25.18 C 30.58 24.71 30.66 27.39 29.90 28.74 Z" />
<path fill="#000000" opacity="1.00" d=" M 19.02 11.55 C 21.15 10.29 25.69 8.57 25.66 12.49 C 23.44 12.20 21.23 11.88 19.02 11.55 Z" />
<path fill="#000000" opacity="1.00" d=" M 23.10 22.14 C 25.52 21.05 27.14 24.72 24.85 25.91 C 22.44 26.81 20.89 23.35 23.10 22.14 Z" />
<path fill="#000000" opacity="1.00" d=" M 39.19 22.10 C 41.59 21.18 43.12 24.76 40.85 25.87 C 38.40 26.92 36.85 23.17 39.19 22.10 Z" />
</g>
</svg>
