<?xml version="1.0" encoding="UTF-8" ?>
<!DOCTYPE svg PUBLIC "-//W3C//DTD SVG 1.1//EN" "http://www.w3.org/Graphics/SVG/1.1/DTD/svg11.dtd">
<svg width="64pt" height="64pt" viewBox="0 0 64 64" version="1.1" xmlns="http://www.w3.org/2000/svg">
<g id="#ffffffff">
<path fill="#ffffff" opacity="1.00" d=" M 0.00 0.00 L 64.00 0.00 L 64.00 64.00 L 0.00 64.00 L 0.00 0.00 M 6.01 35.51 C 7.05 36.34 8.09 37.16 9.13 37.99 C 14.83 30.82 20.49 23.62 26.19 16.44 C 31.12 22.27 36.04 28.10 40.94 33.95 C 41.95 33.07 42.98 32.21 44.01 31.36 C 42.07 29.01 39.98 26.78 38.13 24.36 C 38.60 23.79 39.56 22.67 40.04 22.11 C 45.08 27.42 50.06 32.79 55.07 38.13 C 56.02 37.20 56.98 36.28 57.95 35.38 C 51.96 28.97 45.92 22.60 39.93 16.19 C 38.46 17.88 36.98 19.55 35.52 21.24 C 32.36 17.58 29.24 13.88 26.12 10.19 C 19.34 18.57 12.70 27.06 6.01 35.51 M 6.00 42.00 C 6.00 43.33 6.00 44.67 6.00 46.00 C 23.33 46.00 40.67 46.00 58.00 46.00 C 58.00 44.67 58.00 43.33 58.00 42.00 C 40.67 42.00 23.33 42.00 6.00 42.00 M 6.00 50.00 C 6.00 51.33 6.00 52.67 6.00 54.00 C 23.33 54.00 40.67 54.00 58.00 54.00 C 58.00 52.67 58.00 51.33 58.00 50.00 C 40.67 50.00 23.33 50.00 6.00 50.00 Z" />
</g>
<g id="#000000ff">
<path fill="#000000" opacity="1.00" d=" M 6.01 35.51 C 12.70 27.06 19.34 18.57 26.12 10.19 C 29.24 13.88 32.36 17.58 35.52 21.24 C 36.98 19.55 38.46 17.88 39.93 16.19 C 45.92 22.60 51.96 28.97 57.95 35.38 C 56.98 36.28 56.02 37.20 55.07 38.13 C 50.06 32.79 45.08 27.42 40.04 22.11 C 39.56 22.67 38.60 23.79 38.13 24.36 C 39.98 26.78 42.07 29.01 44.01 31.36 C 42.98 32.21 41.95 33.07 40.94 33.95 C 36.04 28.10 31.12 22.27 26.19 16.44 C 20.49 23.62 14.83 30.82 9.13 37.99 C 8.09 37.16 7.05 36.34 6.01 35.51 Z" />
<path fill="#000000" opacity="1.00" d=" M 6.00 42.00 C 23.33 42.00 40.67 42.00 58.00 42.00 C 58.00 43.33 58.00 44.67 58.00 46.00 C 40.67 46.00 23.33 46.00 6.00 46.00 C 6.00 44.67 6.00 43.33 6.00 42.00 Z" />
<path fill="#000000" opacity="1.00" d=" M 6.00 50.00 C 23.33 50.00 40.67 50.00 58.00 50.00 C 58.00 51.33 58.00 52.67 58.00 54.00 C 40.67 54.00 23.33 54.00 6.00 54.00 C 6.00 52.67 6.00 51.33 6.00 50.00 Z" />
</g>
</svg>
