<?xml version="1.0" encoding="UTF-8" ?>
<!DOCTYPE svg PUBLIC "-//W3C//DTD SVG 1.1//EN" "http://www.w3.org/Graphics/SVG/1.1/DTD/svg11.dtd">
<svg width="64pt" height="64pt" viewBox="0 0 64 64" version="1.1" xmlns="http://www.w3.org/2000/svg">
<g id="#ffffffff">
<path fill="#ffffff" opacity="1.00" d=" M 0.00 0.00 L 64.00 0.00 L 64.00 64.00 L 0.00 64.00 L 0.00 0.00 M 10.00 18.17 C 10.01 26.63 9.98 35.09 10.01 43.55 C 17.37 47.55 24.68 51.66 31.99 55.74 C 39.33 51.76 46.57 47.59 53.93 43.64 C 54.09 35.15 53.96 26.64 54.00 18.14 C 46.67 14.84 39.35 11.51 31.99 8.27 C 24.67 11.59 17.34 14.89 10.00 18.17 Z" />
<path fill="#ffffff" opacity="1.00" d=" M 16.66 19.53 C 21.79 17.26 26.91 14.99 32.00 12.65 C 37.13 14.89 42.22 17.22 47.32 19.54 C 42.24 22.14 37.14 24.69 32.02 27.21 C 26.91 24.63 21.78 22.09 16.66 19.53 Z" />
<path fill="#ffffff" opacity="1.00" d=" M 14.01 22.68 C 19.36 25.32 24.68 28.01 30.00 30.70 C 30.00 37.15 30.00 43.59 30.00 50.04 C 24.68 47.05 19.33 44.13 14.00 41.17 C 14.01 35.01 13.99 28.84 14.01 22.68 Z" />
<path fill="#ffffff" opacity="1.00" d=" M 33.99 30.70 C 39.32 28.02 44.68 25.40 50.00 22.70 C 50.00 28.86 49.99 35.01 50.01 41.17 C 44.68 44.15 39.35 47.12 34.00 50.06 C 33.99 43.61 34.02 37.15 33.99 30.70 M 42.00 31.10 C 42.05 32.94 41.98 34.78 41.89 36.62 C 40.57 37.30 39.25 37.99 37.96 38.74 C 37.99 40.25 38.01 41.76 38.03 43.27 C 40.68 41.78 43.35 40.33 46.00 38.84 C 46.00 35.59 46.01 32.34 45.99 29.09 C 44.66 29.77 43.33 30.43 42.00 31.10 Z" />
</g>
<g id="#000000ff">
<path fill="#000000" opacity="1.00" d=" M 10.00 18.17 C 17.34 14.89 24.67 11.59 31.99 8.27 C 39.35 11.51 46.67 14.84 54.00 18.14 C 53.96 26.64 54.09 35.15 53.93 43.64 C 46.57 47.59 39.33 51.76 31.99 55.74 C 24.68 51.66 17.37 47.55 10.01 43.55 C 9.98 35.09 10.01 26.63 10.00 18.17 M 16.66 19.53 C 21.78 22.09 26.91 24.63 32.02 27.21 C 37.14 24.69 42.24 22.14 47.32 19.54 C 42.22 17.22 37.13 14.89 32.00 12.65 C 26.91 14.99 21.79 17.26 16.66 19.53 M 14.01 22.68 C 13.99 28.84 14.01 35.01 14.00 41.17 C 19.33 44.13 24.68 47.05 30.00 50.04 C 30.00 43.59 30.00 37.15 30.00 30.70 C 24.68 28.01 19.36 25.32 14.01 22.68 M 33.99 30.70 C 34.02 37.15 33.99 43.61 34.00 50.06 C 39.35 47.12 44.68 44.15 50.01 41.17 C 49.99 35.01 50.00 28.86 50.00 22.70 C 44.68 25.40 39.32 28.02 33.99 30.70 Z" />
<path fill="#000000" opacity="1.00" d=" M 42.00 31.10 C 43.33 30.43 44.66 29.77 45.99 29.09 C 46.01 32.34 46.00 35.59 46.00 38.84 C 43.35 40.33 40.68 41.78 38.03 43.27 C 38.01 41.76 37.99 40.25 37.96 38.74 C 39.25 37.99 40.57 37.30 41.89 36.62 C 41.98 34.78 42.05 32.94 42.00 31.10 Z" />
</g>
</svg>
