<?xml version="1.0" encoding="UTF-8" ?>
<!DOCTYPE svg PUBLIC "-//W3C//DTD SVG 1.1//EN" "http://www.w3.org/Graphics/SVG/1.1/DTD/svg11.dtd">
<svg width="64pt" height="64pt" viewBox="0 0 64 64" version="1.1" xmlns="http://www.w3.org/2000/svg">
<g id="#ffffffff">
<path fill="#ffffff" opacity="1.00" d=" M 0.00 0.00 L 64.00 0.00 L 64.00 64.00 L 0.00 64.00 L 0.00 0.00 M 21.15 8.17 C 19.18 12.30 15.17 16.04 15.97 21.04 C 16.16 31.68 15.73 42.34 16.18 52.96 C 18.76 55.64 20.36 60.61 24.93 60.00 C 30.33 59.92 35.74 60.21 41.12 59.84 C 43.96 59.39 44.70 56.18 46.66 54.52 C 48.38 53.22 47.93 50.91 48.03 49.05 C 47.86 38.39 48.22 27.71 47.85 17.06 C 46.33 14.05 44.61 11.00 42.82 8.17 C 35.61 7.88 28.35 7.88 21.15 8.17 Z" />
<path fill="#ffffff" opacity="1.00" d=" M 23.52 12.04 C 29.17 11.97 34.83 11.98 40.48 12.04 C 41.24 13.35 41.96 14.68 42.66 16.02 C 37.78 15.97 32.89 16.01 28.00 16.00 C 28.00 17.33 28.00 18.67 28.00 20.00 C 33.33 20.00 38.67 20.00 44.00 20.00 C 44.00 29.33 44.00 38.67 44.00 48.00 C 38.67 48.00 33.33 48.00 28.00 48.00 C 28.00 49.33 28.00 50.67 28.00 52.00 C 33.11 51.93 38.23 52.15 43.34 51.87 C 42.32 53.06 41.96 54.70 40.86 55.83 C 34.98 56.13 29.04 56.11 23.16 55.84 C 22.05 54.72 21.66 53.10 20.68 51.87 C 21.51 51.91 23.17 52.00 24.00 52.04 C 24.00 50.69 24.00 49.35 24.00 48.00 C 22.67 48.00 21.33 48.00 20.00 48.00 C 20.00 38.67 20.00 29.33 20.00 20.00 C 21.33 20.00 22.67 20.00 24.00 20.00 C 24.00 18.66 24.00 17.33 24.00 15.99 C 23.35 16.00 22.04 16.03 21.38 16.04 C 22.07 14.69 22.78 13.36 23.52 12.04 M 31.93 24.02 C 30.00 28.04 27.99 32.01 26.00 36.00 C 28.00 36.00 30.00 36.00 32.00 36.00 C 31.98 38.66 32.03 41.32 32.05 43.98 C 34.00 39.97 36.00 35.99 38.00 32.00 C 36.00 32.00 34.00 32.00 32.00 32.00 C 32.03 29.34 31.96 26.68 31.93 24.02 Z" />
</g>
<g id="#000000ff">
<path fill="#000000" opacity="1.00" d=" M 21.15 8.17 C 28.35 7.88 35.61 7.88 42.82 8.17 C 44.61 11.00 46.33 14.05 47.85 17.06 C 48.22 27.71 47.86 38.39 48.03 49.05 C 47.93 50.91 48.38 53.22 46.66 54.52 C 44.70 56.18 43.96 59.39 41.12 59.84 C 35.74 60.21 30.33 59.92 24.93 60.00 C 20.36 60.61 18.76 55.64 16.18 52.96 C 15.73 42.34 16.16 31.68 15.97 21.04 C 15.17 16.04 19.18 12.30 21.15 8.17 M 23.52 12.04 C 22.78 13.36 22.07 14.69 21.38 16.04 C 22.04 16.03 23.35 16.00 24.00 15.99 C 24.00 17.33 24.00 18.66 24.00 20.00 C 22.67 20.00 21.33 20.00 20.00 20.00 C 20.00 29.33 20.00 38.67 20.00 48.00 C 21.33 48.00 22.67 48.00 24.00 48.00 C 24.00 49.35 24.00 50.69 24.00 52.04 C 23.17 52.00 21.51 51.91 20.68 51.87 C 21.66 53.10 22.05 54.72 23.16 55.84 C 29.04 56.11 34.98 56.13 40.86 55.83 C 41.96 54.70 42.32 53.06 43.34 51.87 C 38.23 52.15 33.11 51.93 28.00 52.00 C 28.00 50.67 28.00 49.33 28.00 48.00 C 33.33 48.00 38.67 48.00 44.00 48.00 C 44.00 38.67 44.00 29.33 44.00 20.00 C 38.67 20.00 33.33 20.00 28.00 20.00 C 28.00 18.67 28.00 17.33 28.00 16.00 C 32.89 16.01 37.78 15.97 42.66 16.02 C 41.96 14.68 41.24 13.35 40.48 12.04 C 34.83 11.98 29.17 11.97 23.52 12.04 Z" />
<path fill="#000000" opacity="1.00" d=" M 31.93 24.02 C 31.96 26.68 32.03 29.34 32.00 32.00 C 34.00 32.00 36.00 32.00 38.00 32.00 C 36.00 35.99 34.00 39.97 32.05 43.98 C 32.03 41.32 31.98 38.66 32.00 36.00 C 30.00 36.00 28.00 36.00 26.00 36.00 C 27.99 32.01 30.00 28.04 31.93 24.02 Z" />
</g>
</svg>
