<?xml version="1.0" encoding="UTF-8" ?>
<!DOCTYPE svg PUBLIC "-//W3C//DTD SVG 1.1//EN" "http://www.w3.org/Graphics/SVG/1.1/DTD/svg11.dtd">
<svg width="64pt" height="64pt" viewBox="0 0 64 64" version="1.1" xmlns="http://www.w3.org/2000/svg">
<g id="#ffffffff">
<path fill="#ffffff" opacity="1.00" d=" M 0.00 0.00 L 64.00 0.00 L 64.00 64.00 L 0.00 64.00 L 0.00 0.00 M 30.00 8.00 C 30.00 15.33 30.00 22.67 30.00 30.00 C 27.56 30.00 25.13 30.00 22.69 30.00 C 25.80 34.66 28.89 39.34 32.00 44.00 C 35.11 39.33 38.21 34.66 41.33 30.00 C 38.88 30.00 36.44 30.00 34.00 30.00 C 34.00 22.67 34.00 15.33 34.00 8.00 C 32.67 8.00 31.33 8.00 30.00 8.00 M 9.03 42.93 C 6.97 45.60 8.33 49.44 11.01 51.10 C 16.85 54.96 24.11 55.71 30.93 55.97 C 38.26 55.94 46.05 55.31 52.47 51.45 C 55.37 49.87 57.19 45.89 55.01 42.99 C 52.01 39.01 46.78 37.92 42.20 36.84 C 41.40 38.08 40.59 39.30 39.76 40.52 C 44.19 41.48 49.40 42.09 52.35 45.96 C 47.42 51.64 38.90 51.56 31.97 51.98 C 25.04 51.58 16.63 51.59 11.64 46.02 C 14.53 42.06 19.81 41.49 24.24 40.52 C 23.41 39.30 22.60 38.08 21.80 36.84 C 17.23 37.91 12.04 39.01 9.03 42.93 Z" />
</g>
<g id="#000000ff">
<path fill="#000000" opacity="1.00" d=" M 30.00 8.00 C 31.33 8.00 32.67 8.00 34.00 8.00 C 34.00 15.33 34.00 22.67 34.00 30.00 C 36.44 30.00 38.88 30.00 41.33 30.00 C 38.21 34.66 35.11 39.33 32.00 44.00 C 28.89 39.34 25.80 34.66 22.69 30.00 C 25.13 30.00 27.56 30.00 30.00 30.00 C 30.00 22.67 30.00 15.33 30.00 8.00 Z" />
<path fill="#000000" opacity="1.00" d=" M 9.03 42.93 C 12.04 39.01 17.23 37.91 21.80 36.84 C 22.60 38.08 23.41 39.30 24.24 40.52 C 19.81 41.49 14.53 42.06 11.64 46.02 C 16.63 51.59 25.04 51.58 31.97 51.98 C 38.90 51.56 47.42 51.64 52.35 45.96 C 49.40 42.09 44.19 41.48 39.76 40.52 C 40.59 39.30 41.40 38.08 42.20 36.84 C 46.78 37.92 52.01 39.01 55.01 42.99 C 57.19 45.89 55.37 49.87 52.47 51.45 C 46.05 55.31 38.26 55.94 30.93 55.97 C 24.11 55.71 16.85 54.96 11.01 51.10 C 8.33 49.44 6.97 45.60 9.03 42.93 Z" />
</g>
</svg>
