<?xml version="1.0" encoding="UTF-8" ?>
<!DOCTYPE svg PUBLIC "-//W3C//DTD SVG 1.1//EN" "http://www.w3.org/Graphics/SVG/1.1/DTD/svg11.dtd">
<svg width="64pt" height="64pt" viewBox="0 0 64 64" version="1.1" xmlns="http://www.w3.org/2000/svg">
<g id="#ffffffff">
<path fill="#ffffff" opacity="1.00" d=" M 0.00 0.00 L 64.00 0.00 L 64.00 64.00 L 0.00 64.00 L 0.00 0.00 M 27.99 10.00 C 28.03 14.00 27.97 18.00 28.01 22.00 C 22.00 21.99 16.00 22.01 10.00 22.00 C 10.00 32.66 10.00 43.33 9.99 54.00 C 24.66 54.00 39.33 54.00 54.00 54.01 C 54.00 39.34 54.00 24.67 54.00 10.00 C 45.33 10.00 36.66 10.00 27.99 10.00 Z" />
<path fill="#ffffff" opacity="1.00" d=" M 31.99 14.00 C 38.00 14.00 44.00 14.00 50.00 13.99 C 50.00 26.00 50.00 38.00 50.00 50.00 C 38.00 50.00 26.00 50.00 13.99 50.00 C 14.00 42.00 14.00 34.00 13.99 26.00 C 20.00 26.01 26.00 25.99 32.01 26.01 C 31.97 22.00 32.03 18.00 31.99 14.00 M 37.99 26.00 C 38.04 29.33 37.96 32.67 38.01 36.00 C 34.24 35.98 30.48 36.04 26.72 35.97 C 27.68 34.70 29.12 33.70 29.68 32.17 C 28.80 31.41 27.75 29.28 26.39 30.35 C 23.93 32.83 21.00 35.09 19.12 38.00 C 20.81 40.76 23.63 42.78 25.84 45.18 C 27.17 47.07 28.76 44.89 29.70 43.82 C 29.06 42.32 27.71 41.29 26.72 40.03 C 31.82 39.97 36.91 40.01 42.01 40.00 C 42.00 35.33 42.00 30.66 42.00 26.00 C 40.67 26.00 39.33 26.00 37.99 26.00 Z" />
</g>
<g id="#000000ff">
<path fill="#000000" opacity="1.00" d=" M 27.99 10.00 C 36.66 10.00 45.33 10.00 54.00 10.00 C 54.00 24.67 54.00 39.34 54.00 54.01 C 39.33 54.00 24.66 54.00 9.99 54.00 C 10.00 43.33 10.00 32.66 10.00 22.00 C 16.00 22.01 22.00 21.99 28.01 22.00 C 27.97 18.00 28.03 14.00 27.99 10.00 M 31.99 14.00 C 32.03 18.00 31.97 22.00 32.01 26.01 C 26.00 25.99 20.00 26.01 13.99 26.00 C 14.00 34.00 14.00 42.00 13.99 50.00 C 26.00 50.00 38.00 50.00 50.00 50.00 C 50.00 38.00 50.00 26.00 50.00 13.99 C 44.00 14.00 38.00 14.00 31.99 14.00 Z" />
<path fill="#000000" opacity="1.00" d=" M 37.99 26.00 C 39.33 26.00 40.67 26.00 42.00 26.00 C 42.00 30.66 42.00 35.33 42.01 40.00 C 36.91 40.01 31.82 39.97 26.72 40.03 C 27.71 41.29 29.06 42.32 29.70 43.82 C 28.76 44.89 27.17 47.07 25.84 45.18 C 23.63 42.78 20.81 40.76 19.12 38.00 C 21.00 35.09 23.93 32.83 26.39 30.35 C 27.75 29.28 28.80 31.41 29.68 32.17 C 29.12 33.70 27.68 34.70 26.72 35.97 C 30.48 36.04 34.24 35.98 38.01 36.00 C 37.96 32.67 38.04 29.33 37.99 26.00 Z" />
</g>
</svg>
