<?xml version="1.0" encoding="UTF-8" ?>
<!DOCTYPE svg PUBLIC "-//W3C//DTD SVG 1.1//EN" "http://www.w3.org/Graphics/SVG/1.1/DTD/svg11.dtd">
<svg width="64pt" height="64pt" viewBox="0 0 64 64" version="1.1" xmlns="http://www.w3.org/2000/svg">
<g id="#ffffffff">
<path fill="#ffffff" opacity="1.00" d=" M 0.00 0.00 L 64.00 0.00 L 64.00 64.00 L 0.00 64.00 L 0.00 0.00 M 12.00 6.00 C 12.00 10.67 12.00 15.33 12.00 20.00 C 13.33 20.00 14.67 20.00 16.00 20.00 C 16.00 16.67 16.00 13.33 16.00 10.00 C 26.67 10.00 37.33 10.00 48.00 10.00 C 48.00 13.33 48.00 16.67 48.00 20.00 C 49.33 20.00 50.67 20.00 52.00 20.00 C 52.00 15.33 52.00 10.67 52.00 6.00 C 38.67 6.00 25.33 6.00 12.00 6.00 M 14.00 24.00 C 14.00 29.33 14.00 34.67 14.00 40.00 C 17.33 40.00 20.67 40.00 24.00 40.00 C 24.00 38.67 24.00 37.33 24.00 36.00 C 22.00 36.00 20.00 36.00 18.00 36.00 C 18.00 35.50 18.00 34.50 18.00 34.00 C 19.33 34.00 20.67 34.00 22.00 34.00 C 22.00 32.67 22.00 31.33 22.00 30.00 C 20.67 30.00 19.33 30.00 18.00 30.00 C 18.00 29.50 18.00 28.50 18.00 28.00 C 20.00 28.00 22.00 28.00 24.00 28.00 C 24.00 26.67 24.00 25.33 24.00 24.00 C 20.67 24.00 17.33 24.00 14.00 24.00 M 28.00 23.95 C 28.00 29.30 28.00 34.65 28.00 40.00 C 29.33 40.00 30.67 40.00 32.00 40.00 C 32.00 38.76 32.00 37.52 32.00 36.27 C 36.05 35.75 39.47 31.45 37.41 27.46 C 35.85 23.72 31.39 23.85 28.00 23.95 M 40.68 31.52 C 41.69 34.10 45.80 33.11 46.22 36.02 C 44.08 35.50 41.90 35.14 39.70 35.12 C 40.29 37.27 41.40 39.73 43.96 39.91 C 47.69 40.83 51.26 36.57 49.61 33.08 C 48.76 30.62 45.96 30.14 43.83 29.40 C 44.82 26.84 48.26 29.46 50.31 28.89 C 49.65 26.78 48.52 24.37 46.01 24.09 C 41.98 23.04 38.38 28.04 40.68 31.52 M 12.00 44.00 C 12.00 48.67 12.00 53.33 12.00 58.00 C 25.33 58.00 38.67 58.00 52.00 58.00 C 52.00 53.33 52.00 48.67 52.00 44.00 C 50.67 44.00 49.33 44.00 48.00 44.00 C 48.00 47.33 48.00 50.67 48.00 54.00 C 37.33 54.00 26.67 54.00 16.00 54.00 C 16.00 50.67 16.00 47.33 16.00 44.00 C 14.67 44.00 13.33 44.00 12.00 44.00 Z" />
<path fill="#ffffff" opacity="1.00" d=" M 32.08 27.54 C 34.41 28.80 34.40 31.19 32.08 32.45 C 32.03 30.82 32.03 29.18 32.08 27.54 Z" />
</g>
<g id="#000000ff">
<path fill="#000000" opacity="1.00" d=" M 12.00 6.00 C 25.33 6.00 38.67 6.00 52.00 6.00 C 52.00 10.67 52.00 15.33 52.00 20.00 C 50.67 20.00 49.33 20.00 48.00 20.00 C 48.00 16.67 48.00 13.33 48.00 10.00 C 37.33 10.00 26.67 10.00 16.00 10.00 C 16.00 13.33 16.00 16.67 16.00 20.00 C 14.67 20.00 13.33 20.00 12.00 20.00 C 12.00 15.33 12.00 10.67 12.00 6.00 Z" />
<path fill="#000000" opacity="1.00" d=" M 14.00 24.00 C 17.33 24.00 20.67 24.00 24.00 24.00 C 24.00 25.33 24.00 26.67 24.00 28.00 C 22.00 28.00 20.00 28.00 18.00 28.00 C 18.00 28.50 18.00 29.50 18.00 30.00 C 19.33 30.00 20.67 30.00 22.00 30.00 C 22.00 31.33 22.00 32.67 22.00 34.00 C 20.67 34.00 19.33 34.00 18.00 34.00 C 18.00 34.50 18.00 35.50 18.00 36.00 C 20.00 36.00 22.00 36.00 24.00 36.00 C 24.00 37.33 24.00 38.67 24.00 40.00 C 20.67 40.00 17.33 40.00 14.00 40.00 C 14.00 34.67 14.00 29.33 14.00 24.00 Z" />
<path fill="#000000" opacity="1.00" d=" M 28.00 23.95 C 31.39 23.85 35.85 23.72 37.41 27.46 C 39.47 31.45 36.05 35.75 32.00 36.27 C 32.00 37.52 32.00 38.76 32.00 40.00 C 30.67 40.00 29.33 40.00 28.00 40.00 C 28.00 34.65 28.00 29.30 28.00 23.95 M 32.08 27.54 C 32.03 29.18 32.03 30.82 32.08 32.45 C 34.40 31.19 34.41 28.80 32.08 27.54 Z" />
<path fill="#000000" opacity="1.00" d=" M 40.68 31.52 C 38.38 28.04 41.98 23.04 46.01 24.09 C 48.52 24.37 49.65 26.78 50.31 28.89 C 48.26 29.46 44.82 26.84 43.83 29.40 C 45.96 30.14 48.76 30.62 49.61 33.08 C 51.26 36.57 47.69 40.83 43.96 39.91 C 41.40 39.73 40.29 37.27 39.70 35.12 C 41.90 35.14 44.08 35.50 46.22 36.02 C 45.80 33.11 41.69 34.10 40.68 31.52 Z" />
<path fill="#000000" opacity="1.00" d=" M 12.00 44.00 C 13.33 44.00 14.67 44.00 16.00 44.00 C 16.00 47.33 16.00 50.67 16.00 54.00 C 26.67 54.00 37.33 54.00 48.00 54.00 C 48.00 50.67 48.00 47.33 48.00 44.00 C 49.33 44.00 50.67 44.00 52.00 44.00 C 52.00 48.67 52.00 53.33 52.00 58.00 C 38.67 58.00 25.33 58.00 12.00 58.00 C 12.00 53.33 12.00 48.67 12.00 44.00 Z" />
</g>
</svg>
