<?xml version="1.0" encoding="UTF-8" ?>
<!DOCTYPE svg PUBLIC "-//W3C//DTD SVG 1.1//EN" "http://www.w3.org/Graphics/SVG/1.1/DTD/svg11.dtd">
<svg width="64pt" height="64pt" viewBox="0 0 64 64" version="1.1" xmlns="http://www.w3.org/2000/svg">
<g id="#ffffffff">
<path fill="#ffffff" opacity="1.00" d=" M 0.00 0.00 L 47.49 0.00 C 46.83 2.84 44.82 5.19 43.64 7.84 C 33.10 8.21 22.55 7.90 12.00 8.00 C 12.00 11.32 12.00 14.64 12.00 17.97 C 11.50 17.98 10.50 18.02 10.00 18.03 C 10.00 19.35 10.00 20.68 10.00 22.00 C 12.00 22.00 14.00 22.00 16.00 22.00 C 16.00 18.67 16.00 15.33 16.00 12.00 C 24.38 12.00 32.76 12.00 41.13 12.00 C 38.10 17.34 35.05 22.66 32.00 28.00 C 37.33 28.01 42.67 27.99 48.00 28.00 C 48.00 29.30 48.00 30.59 48.00 31.88 C 37.97 31.89 29.73 42.22 32.44 52.01 C 26.96 51.99 21.48 52.01 16.00 52.00 C 16.00 49.33 16.00 46.67 16.00 44.00 C 14.67 44.00 13.33 44.00 12.00 44.00 C 12.00 48.00 12.00 52.00 12.00 56.00 C 19.37 56.01 26.73 55.98 34.10 56.01 C 36.94 60.53 41.80 63.72 47.20 64.00 L 0.00 64.00 L 0.00 0.00 M 12.00 24.00 C 12.00 25.33 12.00 26.66 12.00 27.98 C 11.50 27.99 10.50 28.01 10.00 28.02 C 10.00 29.34 10.00 30.67 10.00 32.00 C 12.00 32.00 14.00 32.00 16.00 32.00 C 16.00 29.33 16.00 26.67 16.00 24.00 C 14.67 24.00 13.33 24.00 12.00 24.00 M 12.00 34.00 C 12.00 35.33 12.00 36.66 12.00 37.98 C 11.50 37.99 10.50 38.01 10.00 38.02 C 10.00 39.34 10.00 40.67 10.00 42.00 C 12.00 42.00 14.00 42.00 16.00 42.00 C 16.00 39.33 16.00 36.67 16.00 34.00 C 14.67 34.00 13.33 34.00 12.00 34.00 Z" />
<path fill="#ffffff" opacity="1.00" d=" M 48.57 0.00 L 64.00 0.00 L 64.00 27.47 C 59.98 21.58 56.81 15.11 53.14 8.99 C 51.68 5.96 49.29 3.34 48.57 0.00 Z" />
<path fill="#ffffff" opacity="1.00" d=" M 46.00 10.00 C 47.33 10.00 48.66 10.00 50.00 10.00 C 50.02 12.67 50.04 15.33 50.06 18.00 C 48.71 18.00 47.35 18.00 46.00 18.00 C 46.00 15.33 46.00 12.67 46.00 10.00 Z" />
<path fill="#ffffff" opacity="1.00" d=" M 46.00 20.00 C 47.33 20.00 48.67 20.00 50.00 20.00 C 50.00 21.33 50.00 22.67 50.00 24.00 C 48.67 24.00 47.33 24.00 46.00 24.00 C 46.00 22.67 46.00 21.33 46.00 20.00 Z" />
<path fill="#ffffff" opacity="1.00" d=" M 51.98 28.00 C 55.99 27.98 60.00 28.12 64.00 27.79 L 64.00 46.58 C 63.29 40.02 58.47 34.24 52.07 32.55 C 52.03 31.03 52.00 29.52 51.98 28.00 Z" />
<path fill="#ffffff" opacity="1.00" d=" M 44.48 36.56 C 51.06 34.29 58.73 39.05 59.77 45.88 C 61.07 52.12 56.45 58.73 50.19 59.76 C 43.95 61.09 37.26 56.47 36.24 50.19 C 35.00 44.39 38.84 38.22 44.48 36.56 M 43.27 40.61 C 42.36 41.57 41.49 42.55 40.65 43.56 C 42.21 44.98 43.72 46.48 45.19 48.00 C 43.65 49.53 42.11 51.06 40.65 52.66 C 41.54 53.54 42.41 54.43 43.26 55.35 C 44.94 53.95 46.44 52.36 48.00 50.82 C 49.53 52.28 51.03 53.77 52.44 55.35 C 53.45 54.51 54.43 53.63 55.39 52.73 C 53.94 51.10 52.37 49.58 50.87 47.99 C 52.29 46.45 53.78 44.97 55.35 43.57 C 54.51 42.53 53.61 41.54 52.66 40.60 C 51.10 42.10 49.57 43.62 48.05 45.15 C 46.42 43.67 44.92 42.07 43.27 40.61 Z" />
<path fill="#ffffff" opacity="1.00" d=" M 49.55 64.00 C 56.95 63.20 63.18 56.97 64.00 49.57 L 64.00 64.00 L 49.55 64.00 Z" />
</g>
<g id="#000000ff">
<path fill="#000000" opacity="1.00" d=" M 47.49 0.00 L 48.57 0.00 C 49.29 3.34 51.68 5.96 53.14 8.99 C 56.81 15.11 59.98 21.58 64.00 27.47 L 64.00 27.79 C 60.00 28.12 55.99 27.98 51.98 28.00 C 52.00 29.52 52.03 31.03 52.07 32.55 C 58.47 34.24 63.29 40.02 64.00 46.58 L 64.00 49.57 C 63.18 56.97 56.95 63.20 49.55 64.00 L 47.20 64.00 C 41.80 63.72 36.94 60.53 34.10 56.01 C 26.73 55.98 19.37 56.01 12.00 56.00 C 12.00 52.00 12.00 48.00 12.00 44.00 C 13.33 44.00 14.67 44.00 16.00 44.00 C 16.00 46.67 16.00 49.33 16.00 52.00 C 21.48 52.01 26.96 51.99 32.44 52.01 C 29.73 42.22 37.97 31.89 48.00 31.88 C 48.00 30.59 48.00 29.30 48.00 28.00 C 42.67 27.99 37.33 28.01 32.00 28.00 C 35.05 22.66 38.10 17.34 41.13 12.00 C 32.76 12.00 24.38 12.00 16.00 12.00 C 16.00 15.33 16.00 18.67 16.00 22.00 C 14.00 22.00 12.00 22.00 10.00 22.00 C 10.00 20.68 10.00 19.35 10.00 18.03 C 10.50 18.02 11.50 17.98 12.00 17.97 C 12.00 14.64 12.00 11.32 12.00 8.00 C 22.55 7.90 33.10 8.21 43.64 7.84 C 44.82 5.19 46.83 2.84 47.49 0.00 M 46.00 10.00 C 46.00 12.67 46.00 15.33 46.00 18.00 C 47.35 18.00 48.71 18.00 50.06 18.00 C 50.04 15.33 50.02 12.67 50.00 10.00 C 48.66 10.00 47.33 10.00 46.00 10.00 M 46.00 20.00 C 46.00 21.33 46.00 22.67 46.00 24.00 C 47.33 24.00 48.67 24.00 50.00 24.00 C 50.00 22.67 50.00 21.33 50.00 20.00 C 48.67 20.00 47.33 20.00 46.00 20.00 M 44.48 36.56 C 38.84 38.22 35.00 44.39 36.24 50.19 C 37.26 56.47 43.95 61.09 50.19 59.76 C 56.45 58.73 61.07 52.12 59.77 45.88 C 58.73 39.05 51.06 34.29 44.48 36.56 Z" />
<path fill="#000000" opacity="1.00" d=" M 12.00 24.00 C 13.33 24.00 14.67 24.00 16.00 24.00 C 16.00 26.67 16.00 29.33 16.00 32.00 C 14.00 32.00 12.00 32.00 10.00 32.00 C 10.00 30.67 10.00 29.34 10.00 28.02 C 10.50 28.01 11.50 27.99 12.00 27.98 C 12.00 26.66 12.00 25.33 12.00 24.00 Z" />
<path fill="#000000" opacity="1.00" d=" M 12.00 34.00 C 13.33 34.00 14.67 34.00 16.00 34.00 C 16.00 36.67 16.00 39.33 16.00 42.00 C 14.00 42.00 12.00 42.00 10.00 42.00 C 10.00 40.67 10.00 39.34 10.00 38.02 C 10.50 38.01 11.50 37.99 12.00 37.98 C 12.00 36.66 12.00 35.33 12.00 34.00 Z" />
<path fill="#000000" opacity="1.00" d=" M 43.27 40.61 C 44.92 42.07 46.42 43.67 48.05 45.15 C 49.57 43.62 51.10 42.10 52.66 40.60 C 53.61 41.54 54.51 42.53 55.35 43.57 C 53.78 44.97 52.29 46.45 50.87 47.99 C 52.37 49.58 53.94 51.10 55.39 52.73 C 54.43 53.63 53.45 54.51 52.44 55.35 C 51.03 53.77 49.53 52.28 48.00 50.82 C 46.44 52.36 44.94 53.95 43.26 55.35 C 42.41 54.43 41.54 53.54 40.65 52.66 C 42.11 51.06 43.65 49.53 45.19 48.00 C 43.72 46.48 42.21 44.98 40.65 43.56 C 41.49 42.55 42.36 41.57 43.27 40.61 Z" />
</g>
</svg>
