<?xml version="1.0" encoding="UTF-8" ?>
<!DOCTYPE svg PUBLIC "-//W3C//DTD SVG 1.1//EN" "http://www.w3.org/Graphics/SVG/1.1/DTD/svg11.dtd">
<svg width="64pt" height="64pt" viewBox="0 0 64 64" version="1.1" xmlns="http://www.w3.org/2000/svg">
<g id="#ffffffff">
<path fill="#ffffff" opacity="1.00" d=" M 0.00 0.00 L 64.00 0.00 L 64.00 64.00 L 0.00 64.00 L 0.00 0.00 M 8.85 17.95 C 4.94 24.90 5.10 33.91 9.24 40.73 C 13.78 48.55 23.25 53.18 32.21 51.73 C 36.45 51.15 40.25 48.97 43.60 46.41 C 47.25 50.09 50.94 53.74 54.59 57.42 C 55.52 56.45 56.46 55.50 57.43 54.57 C 53.74 50.93 50.09 47.25 46.41 43.60 C 52.29 36.81 53.78 26.61 49.50 18.62 C 45.73 11.01 37.47 5.90 28.96 6.01 C 20.74 5.94 12.74 10.72 8.85 17.95 Z" />
<path fill="#ffffff" opacity="1.00" d=" M 24.33 10.58 C 31.16 8.79 38.85 11.19 43.40 16.60 C 48.07 21.92 49.31 29.94 46.48 36.43 C 43.92 42.62 37.84 47.17 31.18 47.86 C 24.54 48.71 17.61 45.67 13.69 40.26 C 9.89 35.19 8.97 28.17 11.23 22.26 C 13.35 16.55 18.40 12.03 24.33 10.58 M 20.52 19.43 C 17.58 22.89 17.56 27.90 19.00 32.02 C 21.65 31.99 24.29 31.99 26.94 32.01 C 27.75 27.95 28.98 23.26 26.51 19.54 C 25.16 17.50 22.01 17.61 20.52 19.43 M 31.50 19.51 C 29.01 23.24 30.24 27.94 31.06 32.00 C 33.71 31.99 36.35 31.99 39.00 32.02 C 40.44 27.89 40.42 22.88 37.47 19.42 C 35.99 17.61 32.86 17.52 31.50 19.51 M 19.47 36.01 C 19.75 38.30 20.07 41.79 23.07 41.94 C 26.24 42.25 26.62 38.30 26.45 35.99 C 24.12 36.01 21.80 36.01 19.47 36.01 M 31.56 35.99 C 31.38 38.32 31.76 42.30 34.97 41.94 C 37.93 41.74 38.24 38.29 38.54 36.01 C 36.21 36.01 33.89 36.01 31.56 35.99 Z" />
</g>
<g id="#000000ff">
<path fill="#000000" opacity="1.00" d=" M 8.85 17.95 C 12.74 10.72 20.74 5.94 28.96 6.01 C 37.47 5.90 45.73 11.01 49.50 18.62 C 53.78 26.61 52.29 36.81 46.41 43.60 C 50.09 47.25 53.74 50.93 57.43 54.57 C 56.46 55.50 55.52 56.45 54.59 57.42 C 50.94 53.74 47.25 50.09 43.60 46.41 C 40.25 48.97 36.45 51.15 32.21 51.73 C 23.25 53.18 13.78 48.55 9.24 40.73 C 5.10 33.91 4.94 24.90 8.85 17.95 M 24.33 10.58 C 18.40 12.03 13.35 16.55 11.23 22.26 C 8.97 28.17 9.89 35.19 13.69 40.26 C 17.61 45.67 24.54 48.71 31.18 47.86 C 37.84 47.17 43.92 42.62 46.48 36.43 C 49.31 29.94 48.07 21.92 43.40 16.60 C 38.85 11.19 31.16 8.79 24.33 10.58 Z" />
<path fill="#000000" opacity="1.00" d=" M 20.52 19.43 C 22.01 17.61 25.16 17.50 26.51 19.54 C 28.98 23.26 27.75 27.95 26.94 32.01 C 24.29 31.99 21.65 31.99 19.00 32.02 C 17.56 27.90 17.58 22.89 20.52 19.43 Z" />
<path fill="#000000" opacity="1.00" d=" M 31.50 19.51 C 32.86 17.52 35.99 17.61 37.47 19.42 C 40.42 22.88 40.44 27.89 39.00 32.02 C 36.35 31.99 33.71 31.99 31.06 32.00 C 30.24 27.94 29.01 23.24 31.50 19.51 Z" />
<path fill="#000000" opacity="1.00" d=" M 19.47 36.01 C 21.80 36.01 24.12 36.01 26.45 35.99 C 26.62 38.30 26.24 42.25 23.07 41.94 C 20.07 41.79 19.75 38.30 19.47 36.01 Z" />
<path fill="#000000" opacity="1.00" d=" M 31.56 35.99 C 33.89 36.01 36.21 36.01 38.54 36.01 C 38.24 38.29 37.93 41.74 34.97 41.94 C 31.76 42.30 31.38 38.32 31.56 35.99 Z" />
</g>
</svg>
