<?xml version="1.0" encoding="UTF-8" ?>
<!DOCTYPE svg PUBLIC "-//W3C//DTD SVG 1.1//EN" "http://www.w3.org/Graphics/SVG/1.1/DTD/svg11.dtd">
<svg width="64pt" height="64pt" viewBox="0 0 64 64" version="1.1" xmlns="http://www.w3.org/2000/svg">
<g id="#ffffffff">
<path fill="#ffffff" opacity="1.00" d=" M 0.00 0.00 L 64.00 0.00 L 64.00 64.00 L 0.00 64.00 L 0.00 0.00 M 10.00 8.00 C 10.59 11.66 11.23 15.32 11.79 18.99 C 5.98 28.00 7.00 40.78 14.58 48.47 C 20.66 55.02 30.56 57.67 39.08 54.90 C 47.86 52.32 54.65 44.23 55.77 35.15 C 56.56 29.54 55.11 23.80 52.22 18.98 C 52.75 15.31 53.49 11.66 53.91 7.97 C 51.38 9.60 48.80 11.13 46.20 12.66 C 37.95 6.53 26.04 6.53 17.79 12.67 C 15.19 11.11 12.60 9.55 10.00 8.00 Z" />
<path fill="#ffffff" opacity="1.00" d=" M 29.09 12.21 C 35.50 11.24 42.29 13.60 46.66 18.39 C 51.48 23.50 53.23 31.24 51.09 37.92 C 49.06 44.75 43.07 50.19 36.09 51.56 C 29.38 53.03 22.01 50.71 17.37 45.64 C 12.50 40.54 10.76 32.74 12.91 26.04 C 15.05 18.83 21.63 13.21 29.09 12.21 M 21.15 23.88 C 19.92 25.94 19.40 28.82 21.37 30.61 C 23.16 32.60 26.06 32.09 28.12 30.85 C 25.87 28.45 23.55 26.12 21.15 23.88 M 42.75 23.91 C 40.42 26.19 38.10 28.48 35.88 30.86 C 37.94 32.09 40.86 32.60 42.64 30.60 C 44.59 28.80 44.14 25.89 42.75 23.91 M 26.99 40.26 C 25.52 40.59 24.49 39.26 23.31 38.66 C 22.37 39.63 21.43 40.59 20.50 41.55 C 22.42 42.93 24.53 44.46 27.05 44.23 C 30.50 43.96 32.96 41.21 36.04 39.96 C 37.79 39.11 39.41 40.48 40.80 41.35 C 41.67 40.38 42.55 39.42 43.42 38.45 C 41.54 37.08 39.48 35.57 37.02 35.69 C 33.14 35.84 30.54 39.19 26.99 40.26 Z" />
</g>
<g id="#000000ff">
<path fill="#000000" opacity="1.00" d=" M 10.00 8.00 C 12.60 9.55 15.19 11.11 17.79 12.67 C 26.04 6.53 37.95 6.53 46.20 12.66 C 48.80 11.13 51.38 9.60 53.91 7.97 C 53.49 11.66 52.75 15.31 52.22 18.98 C 55.11 23.80 56.56 29.54 55.77 35.15 C 54.65 44.23 47.86 52.32 39.08 54.90 C 30.56 57.67 20.66 55.02 14.58 48.47 C 7.00 40.78 5.98 28.00 11.79 18.99 C 11.23 15.32 10.59 11.66 10.00 8.00 M 29.09 12.21 C 21.63 13.21 15.05 18.83 12.91 26.04 C 10.76 32.74 12.50 40.54 17.37 45.64 C 22.01 50.71 29.38 53.03 36.09 51.56 C 43.07 50.19 49.06 44.75 51.09 37.92 C 53.23 31.24 51.48 23.50 46.66 18.39 C 42.29 13.60 35.50 11.24 29.09 12.21 Z" />
<path fill="#000000" opacity="1.00" d=" M 21.15 23.88 C 23.55 26.12 25.87 28.45 28.12 30.85 C 26.06 32.09 23.16 32.60 21.37 30.61 C 19.40 28.82 19.92 25.94 21.15 23.88 Z" />
<path fill="#000000" opacity="1.00" d=" M 42.75 23.91 C 44.14 25.89 44.59 28.80 42.64 30.60 C 40.86 32.60 37.94 32.09 35.88 30.86 C 38.10 28.48 40.42 26.19 42.75 23.91 Z" />
<path fill="#000000" opacity="1.00" d=" M 26.99 40.26 C 30.54 39.19 33.14 35.84 37.02 35.69 C 39.48 35.57 41.54 37.08 43.42 38.45 C 42.55 39.42 41.67 40.38 40.80 41.35 C 39.41 40.48 37.79 39.11 36.04 39.96 C 32.96 41.21 30.50 43.96 27.05 44.23 C 24.53 44.46 22.42 42.93 20.50 41.55 C 21.43 40.59 22.37 39.63 23.31 38.66 C 24.49 39.26 25.52 40.59 26.99 40.26 Z" />
</g>
</svg>
