<?xml version="1.0" encoding="UTF-8" ?>
<!DOCTYPE svg PUBLIC "-//W3C//DTD SVG 1.1//EN" "http://www.w3.org/Graphics/SVG/1.1/DTD/svg11.dtd">
<svg width="64pt" height="64pt" viewBox="0 0 64 64" version="1.1" xmlns="http://www.w3.org/2000/svg">
<g id="#ffffffff">
<path fill="#ffffff" opacity="1.00" d=" M 0.00 0.00 L 64.00 0.00 L 64.00 64.00 L 0.00 64.00 L 0.00 0.00 M 10.07 11.98 C 6.78 16.00 7.74 22.06 11.38 25.53 C 6.94 28.13 4.14 32.85 3.84 37.97 C 5.17 37.99 6.50 38.00 7.83 38.01 C 8.14 32.72 12.50 27.84 18.00 28.03 C 23.49 27.84 27.86 32.72 28.17 38.00 C 30.72 37.98 33.28 37.98 35.83 38.00 C 36.14 32.71 40.52 27.82 46.02 28.03 C 51.50 27.85 55.86 32.73 56.17 38.00 C 57.50 38.00 58.82 37.99 60.15 37.97 C 59.85 32.86 57.07 28.13 52.63 25.55 C 56.24 22.06 57.22 16.00 53.92 11.97 C 50.27 6.76 41.68 6.78 38.05 12.00 C 34.79 16.03 35.75 22.06 39.38 25.53 C 35.27 28.00 32.37 32.26 32.00 37.09 C 31.63 32.26 28.74 28.01 24.63 25.55 C 28.22 22.07 29.22 16.06 25.97 12.03 C 22.35 6.77 13.73 6.75 10.07 11.98 M 12.59 40.55 C 10.09 43.01 7.63 45.50 5.18 48.00 C 7.62 50.50 10.08 52.97 12.56 55.43 C 13.52 54.47 14.48 53.52 15.44 52.56 C 14.60 51.70 13.76 50.85 12.91 50.00 C 15.94 50.00 18.97 50.00 22.00 50.00 C 22.00 48.67 22.00 47.33 22.00 46.00 C 18.97 46.00 15.94 46.00 12.91 46.00 C 13.76 45.14 14.61 44.29 15.45 43.43 C 14.49 42.48 13.54 41.52 12.59 40.55 M 51.44 40.56 C 50.48 41.52 49.52 42.48 48.56 43.44 C 49.42 44.29 50.27 45.14 51.13 46.00 C 48.08 46.00 45.04 46.00 42.00 46.00 C 42.00 47.33 42.00 48.67 42.00 50.00 C 45.04 49.99 48.08 50.00 51.13 50.00 C 50.27 50.85 49.42 51.70 48.57 52.55 C 49.54 53.51 50.51 54.47 51.48 55.43 C 53.94 52.96 56.40 50.49 58.84 48.00 C 56.40 45.49 53.93 43.02 51.44 40.56 M 26.00 46.00 C 26.00 47.33 26.00 48.67 26.00 50.00 C 27.33 50.00 28.67 50.00 30.00 50.00 C 30.00 48.67 30.00 47.33 30.00 46.00 C 28.67 46.00 27.33 46.00 26.00 46.00 M 34.00 46.00 C 34.00 47.33 34.00 48.67 34.00 50.00 C 35.33 50.00 36.67 50.00 38.00 50.00 C 38.00 48.67 38.00 47.33 38.00 46.00 C 36.67 46.00 35.33 46.00 34.00 46.00 Z" />
<path fill="#ffffff" opacity="1.00" d=" M 15.44 12.57 C 19.21 10.60 24.18 13.77 23.99 18.00 C 24.20 22.51 18.61 25.64 14.87 23.12 C 10.86 20.92 11.20 14.31 15.44 12.57 Z" />
<path fill="#ffffff" opacity="1.00" d=" M 43.40 12.59 C 47.55 10.34 52.96 14.46 51.89 19.05 C 51.34 23.37 45.60 25.54 42.29 22.72 C 38.84 20.23 39.47 14.26 43.40 12.59 Z" />
</g>
<g id="#000000ff">
<path fill="#000000" opacity="1.00" d=" M 10.07 11.98 C 13.73 6.75 22.35 6.77 25.97 12.03 C 29.22 16.06 28.22 22.07 24.63 25.55 C 28.74 28.01 31.63 32.26 32.00 37.09 C 32.37 32.26 35.27 28.00 39.38 25.53 C 35.75 22.06 34.79 16.03 38.05 12.00 C 41.68 6.78 50.27 6.76 53.92 11.97 C 57.22 16.00 56.24 22.06 52.63 25.55 C 57.07 28.13 59.85 32.86 60.15 37.97 C 58.82 37.99 57.50 38.00 56.17 38.00 C 55.86 32.73 51.50 27.85 46.02 28.03 C 40.52 27.82 36.14 32.71 35.83 38.00 C 33.28 37.98 30.72 37.98 28.17 38.00 C 27.86 32.72 23.49 27.84 18.00 28.03 C 12.50 27.84 8.14 32.72 7.83 38.01 C 6.50 38.00 5.17 37.99 3.84 37.97 C 4.14 32.85 6.94 28.13 11.38 25.53 C 7.74 22.06 6.78 16.00 10.07 11.98 M 15.44 12.57 C 11.20 14.31 10.86 20.92 14.87 23.12 C 18.61 25.64 24.20 22.51 23.99 18.00 C 24.18 13.77 19.21 10.60 15.44 12.57 M 43.40 12.59 C 39.47 14.26 38.84 20.23 42.29 22.72 C 45.60 25.54 51.34 23.37 51.89 19.05 C 52.96 14.46 47.55 10.34 43.40 12.59 Z" />
<path fill="#000000" opacity="1.00" d=" M 12.59 40.55 C 13.54 41.52 14.49 42.48 15.45 43.43 C 14.61 44.29 13.76 45.14 12.91 46.00 C 15.94 46.00 18.97 46.00 22.00 46.00 C 22.00 47.33 22.00 48.67 22.00 50.00 C 18.97 50.00 15.94 50.00 12.91 50.00 C 13.76 50.85 14.60 51.70 15.44 52.56 C 14.48 53.52 13.52 54.47 12.56 55.43 C 10.08 52.97 7.62 50.50 5.18 48.00 C 7.63 45.50 10.09 43.01 12.59 40.55 Z" />
<path fill="#000000" opacity="1.00" d=" M 51.44 40.56 C 53.93 43.02 56.40 45.49 58.84 48.00 C 56.40 50.49 53.94 52.96 51.48 55.43 C 50.51 54.47 49.54 53.51 48.57 52.55 C 49.42 51.70 50.27 50.85 51.13 50.00 C 48.08 50.00 45.04 49.99 42.00 50.00 C 42.00 48.67 42.00 47.33 42.00 46.00 C 45.04 46.00 48.08 46.00 51.13 46.00 C 50.27 45.14 49.42 44.29 48.56 43.44 C 49.52 42.48 50.48 41.52 51.44 40.56 Z" />
<path fill="#000000" opacity="1.00" d=" M 26.00 46.00 C 27.33 46.00 28.67 46.00 30.00 46.00 C 30.00 47.33 30.00 48.67 30.00 50.00 C 28.67 50.00 27.33 50.00 26.00 50.00 C 26.00 48.67 26.00 47.33 26.00 46.00 Z" />
<path fill="#000000" opacity="1.00" d=" M 34.00 46.00 C 35.33 46.00 36.67 46.00 38.00 46.00 C 38.00 47.33 38.00 48.67 38.00 50.00 C 36.67 50.00 35.33 50.00 34.00 50.00 C 34.00 48.67 34.00 47.33 34.00 46.00 Z" />
</g>
</svg>
