<?xml version="1.0" encoding="UTF-8" ?>
<!DOCTYPE svg PUBLIC "-//W3C//DTD SVG 1.1//EN" "http://www.w3.org/Graphics/SVG/1.1/DTD/svg11.dtd">
<svg width="64pt" height="64pt" viewBox="0 0 64 64" version="1.1" xmlns="http://www.w3.org/2000/svg">
<g id="#ffffffff">
<path fill="#ffffff" opacity="1.00" d=" M 0.00 0.00 L 64.00 0.00 L 64.00 64.00 L 0.00 64.00 L 0.00 0.00 M 26.00 8.00 C 26.00 18.67 26.00 29.33 25.99 40.00 C 30.00 40.00 34.00 40.00 38.00 40.00 C 38.00 29.33 38.00 18.67 38.01 8.00 C 34.00 8.00 30.00 8.00 26.00 8.00 M 26.00 44.00 C 26.00 48.00 26.00 52.00 26.00 56.00 C 30.00 56.00 34.00 56.00 38.00 56.00 C 38.00 52.00 38.00 48.00 38.00 44.00 C 34.00 44.00 30.00 44.00 26.00 44.00 Z" />
<path fill="#ffffff" opacity="1.00" d=" M 30.00 12.01 C 31.33 12.00 32.67 12.00 34.00 11.99 C 34.01 19.99 34.02 27.99 34.00 35.99 C 32.66 35.99 31.33 36.00 30.00 36.01 C 29.99 28.01 29.98 20.01 30.00 12.01 Z" />
<path fill="#ffffff" opacity="1.00" d=" M 30.00 48.00 C 31.33 48.00 32.67 48.00 34.00 48.00 C 34.00 49.33 34.00 50.67 34.00 52.00 C 32.67 52.00 31.33 52.00 30.00 52.00 C 30.00 50.67 30.00 49.33 30.00 48.00 Z" />
</g>
<g id="#000000ff">
<path fill="#000000" opacity="1.00" d=" M 26.00 8.00 C 30.00 8.00 34.00 8.00 38.01 8.00 C 38.00 18.67 38.00 29.33 38.00 40.00 C 34.00 40.00 30.00 40.00 25.99 40.00 C 26.00 29.33 26.00 18.67 26.00 8.00 M 30.00 12.01 C 29.98 20.01 29.99 28.01 30.00 36.01 C 31.33 36.00 32.66 35.99 34.00 35.99 C 34.02 27.99 34.01 19.99 34.00 11.99 C 32.67 12.00 31.33 12.00 30.00 12.01 Z" />
<path fill="#000000" opacity="1.00" d=" M 26.00 44.00 C 30.00 44.00 34.00 44.00 38.00 44.00 C 38.00 48.00 38.00 52.00 38.00 56.00 C 34.00 56.00 30.00 56.00 26.00 56.00 C 26.00 52.00 26.00 48.00 26.00 44.00 M 30.00 48.00 C 30.00 49.33 30.00 50.67 30.00 52.00 C 31.33 52.00 32.67 52.00 34.00 52.00 C 34.00 50.67 34.00 49.33 34.00 48.00 C 32.67 48.00 31.33 48.00 30.00 48.00 Z" />
</g>
</svg>
