<?xml version="1.0" encoding="UTF-8" ?>
<!DOCTYPE svg PUBLIC "-//W3C//DTD SVG 1.1//EN" "http://www.w3.org/Graphics/SVG/1.1/DTD/svg11.dtd">
<svg width="64pt" height="64pt" viewBox="0 0 64 64" version="1.1" xmlns="http://www.w3.org/2000/svg">
<g id="#ffffffff">
<path fill="#ffffff" opacity="1.00" d=" M 0.00 0.00 L 64.00 0.00 L 64.00 64.00 L 0.00 64.00 L 0.00 0.00 M 12.00 6.00 C 12.00 10.67 12.00 15.33 12.00 20.00 C 13.33 20.00 14.67 20.00 16.00 20.00 C 16.00 16.67 16.00 13.33 16.00 10.00 C 26.67 10.00 37.33 10.00 48.00 10.00 C 48.00 13.33 48.00 16.67 48.00 20.00 C 49.33 20.00 50.67 20.00 52.00 20.00 C 52.00 15.33 52.00 10.67 52.00 6.00 C 38.67 6.00 25.33 6.00 12.00 6.00 M 14.00 24.00 C 14.00 29.33 14.00 34.67 14.00 40.00 C 17.33 40.00 20.67 40.00 24.00 40.00 C 24.00 38.67 24.00 37.33 24.00 36.00 C 22.00 36.00 20.00 36.00 18.00 36.00 C 18.00 35.50 18.00 34.50 18.00 34.00 C 19.33 34.00 20.67 34.00 22.00 34.00 C 22.00 32.67 22.00 31.33 22.00 30.00 C 20.67 30.00 19.33 30.00 18.00 30.00 C 18.00 29.50 18.00 28.50 18.00 28.00 C 20.00 28.00 22.00 28.00 24.00 28.00 C 24.00 26.67 24.00 25.33 24.00 24.00 C 20.67 24.00 17.33 24.00 14.00 24.00 M 26.01 24.00 C 27.34 26.69 28.70 29.35 29.99 32.06 C 28.64 34.69 27.33 37.35 26.00 39.99 C 27.33 40.00 28.66 40.00 29.99 40.00 C 30.66 38.67 31.33 37.34 32.00 36.01 C 32.67 37.34 33.34 38.67 34.01 40.00 C 35.34 40.00 36.67 39.99 38.00 39.99 C 36.67 37.35 35.36 34.69 34.01 32.06 C 35.29 29.35 36.66 26.69 37.99 24.00 C 37.00 24.00 35.01 24.00 34.01 24.00 C 33.24 24.98 33.17 27.53 31.42 26.84 C 30.92 25.90 30.44 24.96 29.99 24.00 C 28.99 24.00 27.00 24.00 26.01 24.00 M 40.00 24.00 C 40.00 29.33 40.00 34.67 40.00 40.00 C 43.33 40.00 46.67 40.00 50.00 40.00 C 50.00 38.67 50.00 37.33 50.00 36.00 C 48.00 36.00 46.00 36.00 44.00 36.00 C 44.00 35.50 44.00 34.50 44.00 34.00 C 45.33 34.00 46.67 34.00 48.00 34.00 C 48.00 32.66 48.00 31.33 48.00 30.00 C 46.67 30.00 45.33 30.00 44.00 30.00 C 44.00 29.50 44.00 28.50 44.00 28.00 C 46.00 28.00 48.00 28.00 50.00 28.00 C 50.00 26.67 50.00 25.33 50.00 24.00 C 46.67 24.00 43.33 24.00 40.00 24.00 M 12.00 44.00 C 12.00 48.67 12.00 53.33 12.00 58.00 C 25.33 58.00 38.67 58.00 52.00 58.00 C 52.00 53.33 52.00 48.67 52.00 44.00 C 50.67 44.00 49.33 44.00 48.00 44.00 C 48.00 47.33 48.00 50.67 48.00 54.00 C 37.33 54.00 26.67 54.00 16.00 54.00 C 16.00 50.67 16.00 47.33 16.00 44.00 C 14.67 44.00 13.33 44.00 12.00 44.00 Z" />
</g>
<g id="#000000ff">
<path fill="#000000" opacity="1.00" d=" M 12.00 6.00 C 25.33 6.00 38.67 6.00 52.00 6.00 C 52.00 10.67 52.00 15.33 52.00 20.00 C 50.67 20.00 49.33 20.00 48.00 20.00 C 48.00 16.67 48.00 13.33 48.00 10.00 C 37.33 10.00 26.67 10.00 16.00 10.00 C 16.00 13.33 16.00 16.67 16.00 20.00 C 14.67 20.00 13.33 20.00 12.00 20.00 C 12.00 15.33 12.00 10.67 12.00 6.00 Z" />
<path fill="#000000" opacity="1.00" d=" M 14.00 24.00 C 17.33 24.00 20.67 24.00 24.00 24.00 C 24.00 25.33 24.00 26.67 24.00 28.00 C 22.00 28.00 20.00 28.00 18.00 28.00 C 18.00 28.50 18.00 29.50 18.00 30.00 C 19.33 30.00 20.67 30.00 22.00 30.00 C 22.00 31.33 22.00 32.67 22.00 34.00 C 20.67 34.00 19.33 34.00 18.00 34.00 C 18.00 34.50 18.00 35.50 18.00 36.00 C 20.00 36.00 22.00 36.00 24.00 36.00 C 24.00 37.33 24.00 38.67 24.00 40.00 C 20.67 40.00 17.33 40.00 14.00 40.00 C 14.00 34.67 14.00 29.33 14.00 24.00 Z" />
<path fill="#000000" opacity="1.00" d=" M 26.01 24.00 C 27.00 24.00 28.99 24.00 29.99 24.00 C 30.44 24.96 30.92 25.90 31.42 26.84 C 33.17 27.53 33.24 24.98 34.01 24.00 C 35.01 24.00 37.00 24.00 37.99 24.00 C 36.66 26.69 35.29 29.35 34.01 32.06 C 35.36 34.69 36.67 37.35 38.00 39.99 C 36.67 39.99 35.34 40.00 34.01 40.00 C 33.34 38.67 32.67 37.34 32.00 36.01 C 31.33 37.34 30.66 38.67 29.99 40.00 C 28.66 40.00 27.33 40.00 26.00 39.99 C 27.33 37.35 28.64 34.69 29.99 32.06 C 28.70 29.35 27.34 26.69 26.01 24.00 Z" />
<path fill="#000000" opacity="1.00" d=" M 40.00 24.00 C 43.33 24.00 46.67 24.00 50.00 24.00 C 50.00 25.33 50.00 26.67 50.00 28.00 C 48.00 28.00 46.00 28.00 44.00 28.00 C 44.00 28.50 44.00 29.50 44.00 30.00 C 45.33 30.00 46.67 30.00 48.00 30.00 C 48.00 31.33 48.00 32.66 48.00 34.00 C 46.67 34.00 45.33 34.00 44.00 34.00 C 44.00 34.50 44.00 35.50 44.00 36.00 C 46.00 36.00 48.00 36.00 50.00 36.00 C 50.00 37.33 50.00 38.67 50.00 40.00 C 46.67 40.00 43.33 40.00 40.00 40.00 C 40.00 34.67 40.00 29.33 40.00 24.00 Z" />
<path fill="#000000" opacity="1.00" d=" M 12.00 44.00 C 13.33 44.00 14.67 44.00 16.00 44.00 C 16.00 47.33 16.00 50.67 16.00 54.00 C 26.67 54.00 37.33 54.00 48.00 54.00 C 48.00 50.67 48.00 47.33 48.00 44.00 C 49.33 44.00 50.67 44.00 52.00 44.00 C 52.00 48.67 52.00 53.33 52.00 58.00 C 38.67 58.00 25.33 58.00 12.00 58.00 C 12.00 53.33 12.00 48.67 12.00 44.00 Z" />
</g>
</svg>
