<?xml version="1.0" encoding="UTF-8" ?>
<!DOCTYPE svg PUBLIC "-//W3C//DTD SVG 1.1//EN" "http://www.w3.org/Graphics/SVG/1.1/DTD/svg11.dtd">
<svg width="64pt" height="64pt" viewBox="0 0 64 64" version="1.1" xmlns="http://www.w3.org/2000/svg">
<g id="#ffffffff">
<path fill="#ffffff" opacity="1.00" d=" M 0.00 0.00 L 64.00 0.00 L 64.00 64.00 L 0.00 64.00 L 0.00 0.00 M 46.40 11.60 C 42.50 13.29 41.82 19.22 45.31 21.70 C 48.59 24.55 54.24 22.35 54.89 18.10 C 55.98 13.53 50.55 9.32 46.40 11.60 M 23.07 14.44 C 23.42 15.73 23.77 17.02 24.12 18.31 C 26.67 17.58 29.22 16.85 31.77 16.13 C 33.05 16.88 34.34 17.62 35.62 18.37 C 32.57 21.42 28.29 23.49 26.34 27.46 C 25.42 31.82 28.24 35.86 29.25 40.00 C 26.17 40.00 23.08 40.00 20.00 40.00 C 20.00 41.33 20.00 42.66 20.00 44.00 C 23.28 43.94 26.56 44.16 29.83 43.89 C 31.74 43.73 33.18 41.87 33.19 40.01 C 32.57 36.24 30.66 32.83 30.00 29.07 C 32.20 25.82 35.84 23.80 38.63 21.06 C 39.27 22.04 39.92 23.02 40.56 24.00 C 38.12 26.69 34.84 28.77 33.09 32.00 C 32.83 35.87 35.95 38.95 37.38 42.35 C 35.98 45.58 34.59 48.80 33.17 52.02 C 34.63 52.00 36.09 51.98 37.55 51.95 C 38.75 48.60 40.91 45.51 41.32 41.95 C 40.32 38.81 38.40 36.07 36.94 33.13 C 38.59 31.53 40.24 29.93 41.81 28.25 C 41.86 30.47 42.47 33.24 44.98 33.84 C 47.97 34.18 50.99 33.96 54.00 33.99 C 54.00 32.66 54.00 31.33 54.00 30.00 C 51.35 30.00 48.69 30.00 46.04 30.00 C 46.00 28.35 46.08 26.69 45.81 25.05 C 43.50 20.34 40.40 15.68 35.35 13.60 C 31.59 10.65 27.06 13.67 23.07 14.44 M 6.00 22.00 C 6.00 23.33 6.00 24.67 6.00 26.00 C 11.51 25.99 17.01 26.02 22.52 25.98 C 23.36 24.62 24.23 23.28 25.12 21.96 C 18.75 22.04 12.37 21.98 6.00 22.00 M 6.00 30.00 C 6.00 31.33 6.00 32.67 6.00 34.00 C 11.64 34.00 17.29 34.00 22.93 34.01 C 22.61 32.67 22.28 31.34 21.96 30.00 C 16.64 30.00 11.32 30.00 6.00 30.00 Z" />
<path fill="#ffffff" opacity="1.00" d=" M 48.17 15.11 C 50.61 14.11 52.16 17.85 49.78 18.90 C 47.37 19.83 45.87 16.18 48.17 15.11 Z" />
</g>
<g id="#000000ff">
<path fill="#000000" opacity="1.00" d=" M 46.40 11.60 C 50.55 9.32 55.98 13.53 54.89 18.10 C 54.24 22.35 48.59 24.55 45.31 21.70 C 41.82 19.22 42.50 13.29 46.40 11.60 M 48.17 15.11 C 45.87 16.18 47.37 19.83 49.78 18.90 C 52.16 17.85 50.61 14.11 48.17 15.11 Z" />
<path fill="#000000" opacity="1.00" d=" M 23.07 14.44 C 27.06 13.67 31.59 10.65 35.35 13.60 C 40.40 15.68 43.50 20.34 45.81 25.05 C 46.08 26.69 46.00 28.35 46.04 30.00 C 48.69 30.00 51.35 30.00 54.00 30.00 C 54.00 31.33 54.00 32.66 54.00 33.99 C 50.99 33.96 47.97 34.18 44.98 33.84 C 42.47 33.24 41.86 30.47 41.81 28.25 C 40.24 29.93 38.59 31.53 36.94 33.13 C 38.40 36.07 40.32 38.81 41.32 41.95 C 40.91 45.51 38.75 48.60 37.55 51.95 C 36.09 51.98 34.63 52.00 33.17 52.02 C 34.59 48.80 35.98 45.58 37.38 42.35 C 35.95 38.95 32.83 35.87 33.09 32.00 C 34.84 28.77 38.12 26.69 40.56 24.00 C 39.92 23.02 39.27 22.04 38.63 21.06 C 35.84 23.80 32.20 25.82 30.00 29.07 C 30.66 32.83 32.57 36.24 33.19 40.01 C 33.18 41.87 31.74 43.73 29.83 43.89 C 26.56 44.16 23.28 43.94 20.00 44.00 C 20.00 42.66 20.00 41.33 20.00 40.00 C 23.08 40.00 26.17 40.00 29.25 40.00 C 28.24 35.86 25.42 31.82 26.34 27.46 C 28.29 23.49 32.57 21.42 35.62 18.37 C 34.34 17.62 33.05 16.88 31.77 16.13 C 29.22 16.85 26.67 17.58 24.12 18.31 C 23.77 17.02 23.42 15.73 23.07 14.44 Z" />
<path fill="#000000" opacity="1.00" d=" M 6.00 22.00 C 12.37 21.98 18.75 22.04 25.12 21.96 C 24.23 23.28 23.36 24.62 22.52 25.98 C 17.01 26.02 11.51 25.99 6.00 26.00 C 6.00 24.67 6.00 23.33 6.00 22.00 Z" />
<path fill="#000000" opacity="1.00" d=" M 6.00 30.00 C 11.32 30.00 16.64 30.00 21.96 30.00 C 22.28 31.34 22.61 32.67 22.93 34.01 C 17.29 34.00 11.64 34.00 6.00 34.00 C 6.00 32.67 6.00 31.33 6.00 30.00 Z" />
</g>
</svg>
