<?xml version="1.0" encoding="UTF-8" ?>
<!DOCTYPE svg PUBLIC "-//W3C//DTD SVG 1.1//EN" "http://www.w3.org/Graphics/SVG/1.1/DTD/svg11.dtd">
<svg width="64pt" height="64pt" viewBox="0 0 64 64" version="1.1" xmlns="http://www.w3.org/2000/svg">
<g id="#ffffffff">
<path fill="#ffffff" opacity="1.00" d=" M 0.00 0.00 L 64.00 0.00 L 64.00 64.00 L 0.00 64.00 L 0.00 0.00 M 21.60 9.49 C 14.51 13.68 9.90 21.72 9.95 29.97 C 9.85 35.67 12.09 41.19 15.60 45.61 C 12.40 48.75 9.24 51.94 6.07 55.11 C 7.01 56.05 7.95 56.99 8.89 57.94 C 12.07 54.77 15.24 51.58 18.42 48.41 C 26.86 55.63 40.25 55.95 48.84 48.83 C 55.08 43.95 58.60 35.83 57.82 27.93 C 57.19 19.95 52.19 12.51 45.09 8.83 C 37.85 4.94 28.60 5.20 21.60 9.49 Z" />
<path fill="#ffffff" opacity="1.00" d=" M 28.00 10.92 C 31.93 9.85 36.08 9.85 40.00 10.96 C 40.00 12.64 40.00 14.32 40.00 16.00 C 41.33 16.00 42.66 16.00 43.98 16.00 C 44.00 15.19 44.03 13.55 44.05 12.74 C 45.42 13.71 46.74 14.74 48.03 15.81 C 48.00 17.87 47.99 19.94 48.00 22.00 C 49.42 22.00 50.84 22.00 52.26 21.99 C 54.42 27.07 54.46 32.94 52.29 38.03 C 50.86 38.01 49.43 38.00 48.00 37.99 C 47.99 40.08 48.00 42.16 48.04 44.24 C 46.79 45.38 45.46 46.43 44.07 47.40 C 44.05 46.55 44.00 44.85 43.98 44.00 C 42.65 44.00 41.33 44.00 40.00 44.00 C 40.00 45.72 40.00 47.43 40.00 49.15 C 36.08 50.25 31.93 50.28 28.00 49.20 C 28.00 47.46 28.00 45.73 28.00 44.00 C 26.67 44.00 25.34 44.00 24.01 44.00 C 24.00 44.86 23.98 46.58 23.97 47.44 C 22.69 46.50 21.39 45.58 20.10 44.67 C 20.02 42.46 19.94 40.24 20.00 38.03 C 18.48 37.99 16.97 37.96 15.45 37.92 C 13.62 32.95 13.36 27.32 15.47 22.38 C 16.78 21.57 18.52 22.16 20.00 21.99 C 20.01 19.90 20.00 17.81 19.96 15.73 C 21.24 14.65 22.57 13.62 23.95 12.67 C 23.97 13.50 24.00 15.17 24.01 16.00 C 25.34 16.00 26.67 16.00 28.00 16.00 C 28.00 14.31 28.00 12.61 28.00 10.92 M 32.00 14.00 C 32.00 16.67 32.00 19.33 32.00 22.00 C 33.33 22.00 34.67 22.00 36.00 22.00 C 36.00 19.33 36.00 16.67 36.00 14.00 C 34.67 14.00 33.33 14.00 32.00 14.00 M 24.00 20.00 C 24.00 22.67 24.00 25.33 24.00 28.00 C 25.33 28.00 26.67 28.00 28.00 28.00 C 28.00 25.33 28.00 22.67 28.00 20.00 C 26.67 20.00 25.33 20.00 24.00 20.00 M 40.00 20.00 C 40.00 22.67 40.00 25.33 40.00 28.00 C 41.33 28.00 42.67 28.00 44.00 28.00 C 44.00 25.33 44.00 22.67 44.00 20.00 C 42.67 20.00 41.33 20.00 40.00 20.00 M 16.00 26.00 C 16.00 28.67 16.00 31.33 16.00 34.00 C 17.33 34.00 18.67 34.00 20.00 34.00 C 20.00 31.33 20.00 28.67 20.00 26.00 C 18.67 26.00 17.33 26.00 16.00 26.00 M 32.00 26.00 C 32.00 28.67 32.00 31.33 32.00 34.00 C 33.33 34.00 34.67 34.00 36.00 34.00 C 36.00 31.33 36.00 28.67 36.00 26.00 C 34.67 26.00 33.33 26.00 32.00 26.00 M 48.00 26.00 C 48.00 28.67 48.00 31.33 48.00 34.00 C 49.33 34.00 50.67 34.00 52.00 34.00 C 52.00 31.33 52.00 28.67 52.00 26.00 C 50.67 26.00 49.33 26.00 48.00 26.00 M 24.00 32.00 C 24.00 34.67 24.00 37.33 24.00 40.00 C 25.33 40.00 26.67 40.00 28.00 40.00 C 28.00 37.33 28.00 34.67 28.00 32.00 C 26.67 32.00 25.33 32.00 24.00 32.00 M 40.00 32.00 C 40.00 34.67 40.00 37.33 40.00 40.00 C 41.33 40.00 42.67 40.00 44.00 40.00 C 44.00 37.33 44.00 34.67 44.00 32.00 C 42.67 32.00 41.33 32.00 40.00 32.00 M 32.00 38.00 C 32.00 40.67 32.00 43.33 32.00 46.00 C 33.33 46.00 34.67 46.00 36.00 46.00 C 36.00 43.33 36.00 40.67 36.00 38.00 C 34.67 38.00 33.33 38.00 32.00 38.00 Z" />
</g>
<g id="#000000ff">
<path fill="#000000" opacity="1.00" d=" M 21.60 9.49 C 28.60 5.20 37.85 4.94 45.09 8.83 C 52.19 12.51 57.19 19.95 57.82 27.93 C 58.60 35.83 55.08 43.95 48.84 48.83 C 40.25 55.95 26.86 55.63 18.42 48.41 C 15.24 51.58 12.07 54.77 8.89 57.94 C 7.95 56.99 7.01 56.05 6.07 55.11 C 9.24 51.94 12.40 48.75 15.60 45.61 C 12.09 41.19 9.85 35.67 9.95 29.97 C 9.90 21.72 14.51 13.68 21.60 9.49 M 28.00 10.92 C 28.00 12.61 28.00 14.31 28.00 16.00 C 26.67 16.00 25.34 16.00 24.01 16.00 C 24.00 15.17 23.97 13.50 23.95 12.67 C 22.57 13.62 21.24 14.65 19.96 15.73 C 20.00 17.81 20.01 19.90 20.00 21.99 C 18.52 22.16 16.78 21.57 15.47 22.38 C 13.36 27.32 13.62 32.95 15.45 37.92 C 16.97 37.96 18.48 37.99 20.00 38.03 C 19.94 40.24 20.02 42.46 20.10 44.67 C 21.39 45.58 22.69 46.50 23.97 47.44 C 23.98 46.58 24.00 44.86 24.01 44.00 C 25.34 44.00 26.67 44.00 28.00 44.00 C 28.00 45.73 28.00 47.46 28.00 49.20 C 31.93 50.28 36.08 50.25 40.00 49.15 C 40.00 47.43 40.00 45.72 40.00 44.00 C 41.33 44.00 42.65 44.00 43.98 44.00 C 44.00 44.85 44.05 46.55 44.07 47.40 C 45.46 46.43 46.79 45.38 48.04 44.24 C 48.00 42.16 47.99 40.08 48.00 37.99 C 49.43 38.00 50.86 38.01 52.29 38.03 C 54.46 32.94 54.42 27.07 52.26 21.99 C 50.84 22.00 49.42 22.00 48.00 22.00 C 47.99 19.94 48.00 17.87 48.03 15.81 C 46.74 14.74 45.42 13.71 44.05 12.74 C 44.03 13.55 44.00 15.19 43.98 16.00 C 42.66 16.00 41.33 16.00 40.00 16.00 C 40.00 14.32 40.00 12.64 40.00 10.96 C 36.08 9.85 31.93 9.85 28.00 10.92 Z" />
<path fill="#000000" opacity="1.00" d=" M 32.00 14.00 C 33.33 14.00 34.67 14.00 36.00 14.00 C 36.00 16.67 36.00 19.33 36.00 22.00 C 34.67 22.00 33.33 22.00 32.00 22.00 C 32.00 19.33 32.00 16.67 32.00 14.00 Z" />
<path fill="#000000" opacity="1.00" d=" M 24.00 20.00 C 25.33 20.00 26.67 20.00 28.00 20.00 C 28.00 22.67 28.00 25.33 28.00 28.00 C 26.67 28.00 25.33 28.00 24.00 28.00 C 24.00 25.33 24.00 22.67 24.00 20.00 Z" />
<path fill="#000000" opacity="1.00" d=" M 40.00 20.00 C 41.33 20.00 42.67 20.00 44.00 20.00 C 44.00 22.67 44.00 25.33 44.00 28.00 C 42.67 28.00 41.33 28.00 40.00 28.00 C 40.00 25.33 40.00 22.67 40.00 20.00 Z" />
<path fill="#000000" opacity="1.00" d=" M 16.00 26.00 C 17.33 26.00 18.67 26.00 20.00 26.00 C 20.00 28.67 20.00 31.33 20.00 34.00 C 18.67 34.00 17.33 34.00 16.00 34.00 C 16.00 31.33 16.00 28.67 16.00 26.00 Z" />
<path fill="#000000" opacity="1.00" d=" M 32.00 26.00 C 33.33 26.00 34.67 26.00 36.00 26.00 C 36.00 28.67 36.00 31.33 36.00 34.00 C 34.67 34.00 33.33 34.00 32.00 34.00 C 32.00 31.33 32.00 28.67 32.00 26.00 Z" />
<path fill="#000000" opacity="1.00" d=" M 48.00 26.00 C 49.33 26.00 50.67 26.00 52.00 26.00 C 52.00 28.67 52.00 31.33 52.00 34.00 C 50.67 34.00 49.33 34.00 48.00 34.00 C 48.00 31.33 48.00 28.67 48.00 26.00 Z" />
<path fill="#000000" opacity="1.00" d=" M 24.00 32.00 C 25.33 32.00 26.67 32.00 28.00 32.00 C 28.00 34.67 28.00 37.33 28.00 40.00 C 26.67 40.00 25.33 40.00 24.00 40.00 C 24.00 37.33 24.00 34.67 24.00 32.00 Z" />
<path fill="#000000" opacity="1.00" d=" M 40.00 32.00 C 41.33 32.00 42.67 32.00 44.00 32.00 C 44.00 34.67 44.00 37.33 44.00 40.00 C 42.67 40.00 41.33 40.00 40.00 40.00 C 40.00 37.33 40.00 34.67 40.00 32.00 Z" />
<path fill="#000000" opacity="1.00" d=" M 32.00 38.00 C 33.33 38.00 34.67 38.00 36.00 38.00 C 36.00 40.67 36.00 43.33 36.00 46.00 C 34.67 46.00 33.33 46.00 32.00 46.00 C 32.00 43.33 32.00 40.67 32.00 38.00 Z" />
</g>
</svg>
