<?xml version="1.0" encoding="UTF-8" ?>
<!DOCTYPE svg PUBLIC "-//W3C//DTD SVG 1.1//EN" "http://www.w3.org/Graphics/SVG/1.1/DTD/svg11.dtd">
<svg width="64pt" height="64pt" viewBox="0 0 64 64" version="1.1" xmlns="http://www.w3.org/2000/svg">
<g id="#ffffffff">
<path fill="#ffffff" opacity="1.00" d=" M 0.00 0.00 L 64.00 0.00 L 64.00 64.00 L 0.00 64.00 L 0.00 0.00 M 5.99 20.94 C 6.02 32.62 5.99 44.31 6.00 56.00 C 23.33 56.00 40.67 56.00 58.00 56.00 C 58.00 44.31 57.99 32.62 58.00 20.93 C 49.37 15.10 40.71 9.31 31.99 3.60 C 23.31 9.36 14.64 15.14 5.99 20.94 Z" />
<path fill="#ffffff" opacity="1.00" d=" M 11.51 22.13 C 18.33 17.56 25.18 13.02 32.00 8.44 C 38.85 12.97 45.69 17.52 52.48 22.13 C 46.34 26.77 40.18 31.39 34.01 35.99 C 33.99 31.29 34.00 26.59 34.01 21.89 C 35.52 23.39 37.03 24.90 38.52 26.43 C 39.50 25.47 40.47 24.51 41.44 23.54 C 38.27 20.44 35.22 17.23 32.00 14.18 C 28.82 17.28 25.68 20.43 22.56 23.59 C 23.55 24.53 24.55 25.47 25.55 26.41 C 27.01 24.89 28.49 23.38 29.99 21.88 C 30.01 26.59 30.01 31.29 29.99 36.00 C 23.85 31.34 17.67 26.75 11.51 22.13 Z" />
<path fill="#ffffff" opacity="1.00" d=" M 10.01 26.01 C 17.35 31.49 24.67 36.99 31.99 42.50 C 39.35 37.03 46.68 31.53 53.99 26.00 C 54.01 34.67 54.00 43.33 54.00 52.00 C 39.33 52.00 24.67 52.00 10.00 52.00 C 10.01 43.34 9.99 34.67 10.01 26.01 Z" />
</g>
<g id="#000000ff">
<path fill="#000000" opacity="1.00" d=" M 5.99 20.94 C 14.64 15.14 23.31 9.36 31.99 3.60 C 40.71 9.31 49.37 15.10 58.00 20.93 C 57.99 32.62 58.00 44.31 58.00 56.00 C 40.67 56.00 23.33 56.00 6.00 56.00 C 5.99 44.31 6.02 32.62 5.99 20.94 M 11.51 22.13 C 17.67 26.75 23.85 31.34 29.99 36.00 C 30.01 31.29 30.01 26.59 29.99 21.88 C 28.49 23.38 27.01 24.89 25.55 26.41 C 24.55 25.47 23.55 24.53 22.56 23.59 C 25.68 20.43 28.82 17.28 32.00 14.18 C 35.22 17.23 38.27 20.44 41.44 23.54 C 40.47 24.51 39.50 25.47 38.52 26.43 C 37.03 24.90 35.52 23.39 34.01 21.89 C 34.00 26.59 33.99 31.29 34.01 35.99 C 40.18 31.39 46.34 26.77 52.48 22.13 C 45.69 17.52 38.85 12.97 32.00 8.44 C 25.18 13.02 18.33 17.56 11.51 22.13 M 10.01 26.01 C 9.99 34.67 10.01 43.34 10.00 52.00 C 24.67 52.00 39.33 52.00 54.00 52.00 C 54.00 43.33 54.01 34.67 53.99 26.00 C 46.68 31.53 39.35 37.03 31.99 42.50 C 24.67 36.99 17.35 31.49 10.01 26.01 Z" />
</g>
</svg>
