<?xml version="1.0" encoding="UTF-8" ?>
<!DOCTYPE svg PUBLIC "-//W3C//DTD SVG 1.1//EN" "http://www.w3.org/Graphics/SVG/1.1/DTD/svg11.dtd">
<svg width="64pt" height="64pt" viewBox="0 0 64 64" version="1.1" xmlns="http://www.w3.org/2000/svg">
<g id="#ffffffff">
<path fill="#ffffff" opacity="1.00" d=" M 0.00 0.00 L 64.00 0.00 L 64.00 64.00 L 0.00 64.00 L 0.00 0.00 M 20.85 8.83 C 19.34 11.14 20.17 13.94 21.28 16.21 C 19.92 18.60 19.91 21.33 19.95 24.00 C 18.65 24.00 17.35 24.00 16.04 24.00 C 15.36 20.53 14.63 17.07 13.96 13.60 C 12.65 13.87 11.34 14.14 10.03 14.41 C 11.23 19.76 11.99 25.20 13.39 30.50 C 13.94 32.80 16.00 34.12 17.72 35.52 C 16.49 42.91 15.25 50.29 14.03 57.67 C 15.34 57.89 16.66 58.11 17.97 58.33 C 18.43 55.55 18.90 52.78 19.35 50.00 C 23.78 50.00 28.21 50.00 32.65 50.00 C 33.09 52.78 33.57 55.55 34.02 58.33 C 35.34 58.11 36.65 57.89 37.97 57.68 C 36.77 50.37 35.50 43.08 34.35 35.77 C 37.00 35.92 38.85 37.92 40.72 39.54 C 41.57 38.51 42.42 37.48 43.28 36.46 C 41.53 35.03 39.82 33.58 38.11 32.10 C 38.61 28.10 36.18 24.28 32.05 23.75 C 32.09 21.17 32.03 18.52 30.72 16.21 C 31.82 13.93 32.66 11.13 31.14 8.82 C 29.05 5.10 22.92 5.10 20.85 8.83 M 35.86 10.00 C 35.91 12.81 36.41 16.19 39.38 17.38 C 42.62 19.14 46.34 17.07 47.83 14.03 C 49.89 14.00 51.94 13.99 54.00 14.00 C 54.00 12.67 54.00 11.33 54.00 10.00 C 47.95 10.00 41.91 10.00 35.86 10.00 Z" />
<path fill="#ffffff" opacity="1.00" d=" M 25.17 10.15 C 27.63 8.87 29.26 13.12 26.75 13.86 C 24.37 15.05 22.79 10.99 25.17 10.15 Z" />
<path fill="#ffffff" opacity="1.00" d=" M 23.94 24.00 C 24.06 21.80 23.26 17.21 26.91 18.11 C 28.68 19.52 27.74 22.05 28.06 24.00 C 26.69 24.00 25.31 24.00 23.94 24.00 Z" />
<path fill="#ffffff" opacity="1.00" d=" M 16.60 28.04 C 22.01 28.08 27.45 27.76 32.85 28.17 C 34.27 28.90 33.83 30.72 34.17 32.00 C 29.45 31.88 24.72 32.26 20.02 31.83 C 18.03 31.62 17.40 29.53 16.60 28.04 Z" />
<path fill="#ffffff" opacity="1.00" d=" M 21.69 36.00 C 24.56 36.01 27.43 36.00 30.31 36.00 C 30.85 39.33 31.42 42.67 31.97 46.00 C 27.99 46.00 24.01 46.00 20.02 46.00 C 20.59 42.67 21.13 39.34 21.69 36.00 Z" />
</g>
<g id="#000000ff">
<path fill="#000000" opacity="1.00" d=" M 20.85 8.83 C 22.92 5.10 29.05 5.10 31.14 8.82 C 32.66 11.13 31.82 13.93 30.72 16.21 C 32.03 18.52 32.09 21.17 32.05 23.75 C 36.18 24.28 38.61 28.10 38.11 32.10 C 39.82 33.58 41.53 35.03 43.28 36.46 C 42.42 37.48 41.57 38.51 40.72 39.54 C 38.85 37.92 37.00 35.92 34.35 35.77 C 35.50 43.08 36.77 50.37 37.97 57.68 C 36.65 57.89 35.34 58.11 34.02 58.33 C 33.57 55.55 33.09 52.78 32.65 50.00 C 28.21 50.00 23.78 50.00 19.35 50.00 C 18.90 52.78 18.43 55.55 17.97 58.33 C 16.66 58.11 15.34 57.89 14.03 57.67 C 15.25 50.29 16.49 42.91 17.72 35.52 C 16.00 34.12 13.94 32.80 13.39 30.50 C 11.99 25.20 11.23 19.76 10.03 14.41 C 11.34 14.14 12.65 13.87 13.96 13.60 C 14.63 17.07 15.36 20.53 16.04 24.00 C 17.35 24.00 18.65 24.00 19.95 24.00 C 19.91 21.33 19.92 18.60 21.28 16.21 C 20.17 13.94 19.34 11.14 20.85 8.83 M 25.17 10.15 C 22.79 10.99 24.37 15.05 26.75 13.86 C 29.26 13.12 27.63 8.87 25.17 10.15 M 23.94 24.00 C 25.31 24.00 26.69 24.00 28.06 24.00 C 27.74 22.05 28.68 19.52 26.91 18.11 C 23.26 17.21 24.06 21.80 23.94 24.00 M 16.60 28.04 C 17.40 29.53 18.03 31.62 20.02 31.83 C 24.72 32.26 29.45 31.88 34.17 32.00 C 33.83 30.72 34.27 28.90 32.85 28.17 C 27.45 27.76 22.01 28.08 16.60 28.04 M 21.69 36.00 C 21.13 39.34 20.59 42.67 20.02 46.00 C 24.01 46.00 27.99 46.00 31.97 46.00 C 31.42 42.67 30.85 39.33 30.31 36.00 C 27.43 36.00 24.56 36.01 21.69 36.00 Z" />
<path fill="#000000" opacity="1.00" d=" M 35.86 10.00 C 41.91 10.00 47.95 10.00 54.00 10.00 C 54.00 11.33 54.00 12.67 54.00 14.00 C 51.94 13.99 49.89 14.00 47.83 14.03 C 46.34 17.07 42.62 19.14 39.38 17.38 C 36.41 16.19 35.91 12.81 35.86 10.00 Z" />
</g>
</svg>
