<?xml version="1.0" encoding="UTF-8" ?>
<!DOCTYPE svg PUBLIC "-//W3C//DTD SVG 1.1//EN" "http://www.w3.org/Graphics/SVG/1.1/DTD/svg11.dtd">
<svg width="64pt" height="64pt" viewBox="0 0 64 64" version="1.1" xmlns="http://www.w3.org/2000/svg">
<g id="#ffffffff">
<path fill="#ffffff" opacity="1.00" d=" M 0.00 0.00 L 64.00 0.00 L 64.00 64.00 L 0.00 64.00 L 0.00 0.00 M 8.01 8.01 C 7.99 12.66 8.00 17.32 8.00 21.98 C 10.37 22.00 12.73 22.00 15.10 22.04 C 14.75 28.02 14.20 33.99 13.90 39.98 C 25.97 40.02 38.03 40.02 50.10 39.98 C 49.80 33.99 49.24 28.02 48.90 22.04 C 51.26 22.00 53.63 22.00 56.00 21.98 C 56.00 17.32 56.01 12.66 55.99 8.01 C 40.00 8.00 24.00 8.00 8.01 8.01 M 14.00 42.02 C 14.00 43.34 14.00 44.66 14.00 45.98 C 26.00 46.01 38.00 46.02 50.00 45.98 C 50.00 44.66 50.00 43.34 50.00 42.02 C 38.00 41.99 26.00 41.98 14.00 42.02 M 14.00 48.02 C 14.00 49.34 14.00 50.66 14.00 51.98 C 26.00 52.01 38.00 52.02 50.00 51.98 C 50.00 50.66 50.00 49.34 50.00 48.02 C 38.00 47.98 26.00 47.98 14.00 48.02 Z" />
<path fill="#ffffff" opacity="1.00" d=" M 12.00 12.00 C 13.29 12.00 14.57 12.00 15.86 11.99 C 15.72 14.00 15.58 16.00 15.44 18.00 C 14.29 18.00 13.15 18.00 12.01 18.01 C 12.01 16.00 12.01 14.00 12.00 12.00 Z" />
<path fill="#ffffff" opacity="1.00" d=" M 19.89 12.03 C 27.96 11.98 36.03 11.98 44.11 12.03 C 44.74 20.01 45.29 28.00 45.87 35.98 C 36.62 36.01 27.38 36.01 18.13 35.99 C 18.71 28.00 19.26 20.01 19.89 12.03 Z" />
<path fill="#ffffff" opacity="1.00" d=" M 48.14 11.99 C 49.42 12.00 50.71 12.00 52.00 12.00 C 51.99 14.00 51.99 16.00 51.99 18.01 C 50.85 18.00 49.70 18.00 48.56 18.00 C 48.42 16.00 48.28 14.00 48.14 11.99 Z" />
</g>
<g id="#000000ff">
<path fill="#000000" opacity="1.00" d=" M 8.01 8.01 C 24.00 8.00 40.00 8.00 55.99 8.01 C 56.01 12.66 56.00 17.32 56.00 21.98 C 53.63 22.00 51.26 22.00 48.90 22.04 C 49.24 28.02 49.80 33.99 50.10 39.98 C 38.03 40.02 25.97 40.02 13.90 39.98 C 14.20 33.99 14.75 28.02 15.10 22.04 C 12.73 22.00 10.37 22.00 8.00 21.98 C 8.00 17.32 7.99 12.66 8.01 8.01 M 12.00 12.00 C 12.01 14.00 12.01 16.00 12.01 18.01 C 13.15 18.00 14.29 18.00 15.44 18.00 C 15.58 16.00 15.72 14.00 15.86 11.99 C 14.57 12.00 13.29 12.00 12.00 12.00 M 19.89 12.03 C 19.26 20.01 18.71 28.00 18.13 35.99 C 27.38 36.01 36.62 36.01 45.87 35.98 C 45.29 28.00 44.74 20.01 44.11 12.03 C 36.03 11.98 27.96 11.98 19.89 12.03 M 48.14 11.99 C 48.28 14.00 48.42 16.00 48.56 18.00 C 49.70 18.00 50.85 18.00 51.99 18.01 C 51.99 16.00 51.99 14.00 52.00 12.00 C 50.71 12.00 49.42 12.00 48.14 11.99 Z" />
<path fill="#000000" opacity="1.00" d=" M 14.00 42.02 C 26.00 41.98 38.00 41.99 50.00 42.02 C 50.00 43.34 50.00 44.66 50.00 45.98 C 38.00 46.02 26.00 46.01 14.00 45.98 C 14.00 44.66 14.00 43.34 14.00 42.02 Z" />
<path fill="#000000" opacity="1.00" d=" M 14.00 48.02 C 26.00 47.98 38.00 47.98 50.00 48.02 C 50.00 49.34 50.00 50.66 50.00 51.98 C 38.00 52.02 26.00 52.01 14.00 51.98 C 14.00 50.66 14.00 49.34 14.00 48.02 Z" />
</g>
</svg>
