<?xml version="1.0" encoding="UTF-8" ?>
<!DOCTYPE svg PUBLIC "-//W3C//DTD SVG 1.1//EN" "http://www.w3.org/Graphics/SVG/1.1/DTD/svg11.dtd">
<svg width="64pt" height="64pt" viewBox="0 0 64 64" version="1.1" xmlns="http://www.w3.org/2000/svg">
<g id="#ffffffff">
<path fill="#ffffff" opacity="1.00" d=" M 0.00 0.00 L 64.00 0.00 L 64.00 64.00 L 0.00 64.00 L 0.00 0.00 M 19.98 10.00 C 20.01 11.49 20.02 12.98 20.03 14.46 C 17.80 15.65 16.34 13.57 14.88 12.18 C 13.96 13.09 13.05 14.01 12.13 14.93 C 13.11 15.93 14.10 16.92 15.09 17.91 C 14.89 18.43 14.47 19.48 14.26 20.01 C 12.84 20.00 11.42 20.00 10.00 20.00 C 10.00 21.31 10.00 22.61 10.00 23.92 C 11.87 24.11 14.22 23.48 15.33 25.45 C 16.33 25.11 17.33 24.76 18.33 24.42 C 17.63 21.96 18.19 18.87 20.99 18.11 C 23.84 17.25 25.64 19.92 26.41 22.22 C 29.12 21.49 32.30 21.93 34.57 20.06 C 32.98 20.02 31.40 20.00 29.82 20.00 C 29.57 19.50 29.06 18.50 28.81 18.00 C 29.83 16.97 30.85 15.96 31.89 14.94 C 30.96 14.00 30.02 13.06 29.07 12.13 C 28.08 13.11 27.09 14.10 26.10 15.08 C 25.57 14.87 24.52 14.43 24.00 14.21 C 24.00 12.81 24.00 11.40 24.00 10.00 C 22.66 10.00 21.32 10.00 19.98 10.00 M 26.01 26.41 C 20.39 27.76 14.60 29.33 9.98 32.98 C 10.02 39.99 9.99 46.99 10.00 54.00 C 24.67 54.00 39.33 54.00 54.00 54.00 C 54.00 44.00 54.00 33.99 54.00 23.99 C 44.63 24.00 35.19 24.40 26.01 26.41 Z" />
<path fill="#ffffff" opacity="1.00" d=" M 13.99 34.91 C 24.98 29.03 37.82 28.59 49.99 28.11 C 50.00 29.42 50.00 30.72 50.00 32.03 C 36.96 32.52 24.19 37.33 14.00 45.46 C 14.00 41.94 14.00 38.42 13.99 34.91 Z" />
<path fill="#ffffff" opacity="1.00" d=" M 14.96 49.94 C 24.60 41.49 37.17 36.53 49.98 36.02 C 49.99 37.40 50.00 38.77 50.00 40.15 C 42.29 41.38 35.15 45.03 29.18 50.00 C 24.44 49.98 19.70 50.05 14.96 49.94 Z" />
<path fill="#ffffff" opacity="1.00" d=" M 36.14 49.89 C 40.44 47.31 45.04 45.19 49.96 44.16 C 49.99 46.10 50.00 48.05 50.01 50.00 C 45.39 49.98 40.76 50.08 36.14 49.89 Z" />
</g>
<g id="#000000ff">
<path fill="#000000" opacity="1.00" d=" M 19.98 10.00 C 21.32 10.00 22.66 10.00 24.00 10.00 C 24.00 11.40 24.00 12.81 24.00 14.21 C 24.52 14.43 25.57 14.87 26.10 15.08 C 27.09 14.10 28.08 13.11 29.07 12.13 C 30.02 13.06 30.96 14.00 31.89 14.94 C 30.85 15.96 29.83 16.97 28.81 18.00 C 29.06 18.50 29.57 19.50 29.82 20.00 C 31.40 20.00 32.98 20.02 34.57 20.06 C 32.30 21.93 29.12 21.49 26.41 22.22 C 25.64 19.92 23.84 17.25 20.99 18.11 C 18.19 18.87 17.63 21.96 18.33 24.42 C 17.33 24.76 16.33 25.11 15.33 25.45 C 14.22 23.48 11.87 24.11 10.00 23.92 C 10.00 22.61 10.00 21.31 10.00 20.00 C 11.42 20.00 12.84 20.00 14.26 20.01 C 14.47 19.48 14.89 18.43 15.09 17.91 C 14.10 16.92 13.11 15.93 12.13 14.93 C 13.05 14.01 13.96 13.09 14.88 12.18 C 16.34 13.57 17.80 15.65 20.03 14.46 C 20.02 12.98 20.01 11.49 19.98 10.00 Z" />
<path fill="#000000" opacity="1.00" d=" M 26.01 26.41 C 35.19 24.40 44.63 24.00 54.00 23.99 C 54.00 33.99 54.00 44.00 54.00 54.00 C 39.33 54.00 24.67 54.00 10.00 54.00 C 9.99 46.99 10.02 39.99 9.98 32.98 C 14.60 29.33 20.39 27.76 26.01 26.41 M 13.99 34.91 C 14.00 38.42 14.00 41.94 14.00 45.46 C 24.19 37.33 36.96 32.52 50.00 32.03 C 50.00 30.72 50.00 29.42 49.99 28.11 C 37.82 28.59 24.98 29.03 13.99 34.91 M 14.96 49.94 C 19.70 50.05 24.44 49.98 29.18 50.00 C 35.15 45.03 42.29 41.38 50.00 40.15 C 50.00 38.77 49.99 37.40 49.98 36.02 C 37.17 36.53 24.60 41.49 14.96 49.94 M 36.14 49.89 C 40.76 50.08 45.39 49.98 50.01 50.00 C 50.00 48.05 49.99 46.10 49.96 44.16 C 45.04 45.19 40.44 47.31 36.14 49.89 Z" />
</g>
</svg>
