<?xml version="1.0" encoding="UTF-8" ?>
<!DOCTYPE svg PUBLIC "-//W3C//DTD SVG 1.1//EN" "http://www.w3.org/Graphics/SVG/1.1/DTD/svg11.dtd">
<svg width="64pt" height="64pt" viewBox="0 0 64 64" version="1.1" xmlns="http://www.w3.org/2000/svg">
<g id="#ffffffff">
<path fill="#ffffff" opacity="1.00" d=" M 0.00 0.00 L 64.00 0.00 L 64.00 64.00 L 0.00 64.00 L 0.00 0.00 M 16.25 11.04 C 17.41 15.18 19.79 18.85 21.50 22.77 C 20.37 25.99 19.60 29.34 18.32 32.51 C 16.82 35.55 13.99 37.71 12.61 40.83 C 11.40 43.82 12.05 47.43 14.21 49.84 C 17.71 53.89 21.19 58.95 26.93 59.75 C 32.29 60.14 37.75 60.27 43.08 59.60 C 49.28 58.31 54.04 52.36 53.96 46.03 C 53.97 39.66 54.19 33.26 53.84 26.89 C 53.29 22.90 48.64 21.05 45.14 22.55 C 42.31 19.10 37.24 19.51 34.46 22.80 C 34.96 18.02 38.07 13.77 37.84 8.92 C 37.10 3.80 30.01 2.41 27.01 6.45 C 25.57 5.31 24.06 3.88 22.06 4.02 C 18.50 3.90 15.34 7.51 16.25 11.04 Z" />
<path fill="#ffffff" opacity="1.00" d=" M 20.29 10.83 C 18.88 8.68 22.99 6.69 23.69 9.19 C 27.31 16.04 30.54 23.09 34.03 30.00 C 35.34 30.00 36.65 30.00 37.95 30.00 C 38.26 28.05 37.28 25.45 39.14 24.09 C 42.74 23.27 41.95 27.82 42.05 30.00 C 43.32 30.00 44.58 30.00 45.84 30.00 C 45.48 27.94 47.05 24.58 49.43 26.59 C 50.69 29.79 49.72 33.56 49.99 36.99 C 49.67 42.36 51.38 48.85 47.05 53.07 C 42.53 57.55 35.64 55.62 29.96 55.98 C 23.98 56.38 20.36 50.96 17.04 46.87 C 15.07 44.73 16.47 41.88 17.73 39.80 L 18.06 42.00 C 19.38 42.00 20.70 42.00 22.02 42.00 C 21.68 37.19 22.06 32.35 24.01 27.89 C 24.81 29.54 25.63 31.18 26.44 32.82 C 27.35 32.38 29.16 31.50 30.06 31.06 C 26.84 24.30 23.37 17.65 20.29 10.83 Z" />
<path fill="#ffffff" opacity="1.00" d=" M 29.22 11.21 C 29.64 9.10 32.25 6.45 33.86 9.18 C 34.04 11.77 32.61 14.16 31.93 16.61 C 31.05 14.80 30.15 13.00 29.22 11.21 Z" />
</g>
<g id="#000000ff">
<path fill="#000000" opacity="1.00" d=" M 16.25 11.04 C 15.34 7.51 18.50 3.90 22.06 4.02 C 24.06 3.88 25.57 5.31 27.01 6.45 C 30.01 2.41 37.10 3.80 37.84 8.92 C 38.07 13.77 34.96 18.02 34.46 22.80 C 37.24 19.51 42.31 19.10 45.14 22.55 C 48.64 21.05 53.29 22.90 53.84 26.89 C 54.19 33.26 53.97 39.66 53.96 46.03 C 54.04 52.36 49.28 58.31 43.08 59.60 C 37.75 60.27 32.29 60.14 26.93 59.75 C 21.19 58.95 17.71 53.89 14.21 49.84 C 12.05 47.43 11.40 43.82 12.61 40.83 C 13.99 37.71 16.82 35.55 18.32 32.51 C 19.60 29.34 20.37 25.99 21.50 22.77 C 19.79 18.85 17.41 15.18 16.25 11.04 M 20.29 10.83 C 23.37 17.65 26.84 24.30 30.06 31.06 C 29.16 31.50 27.35 32.38 26.44 32.82 C 25.63 31.18 24.81 29.54 24.01 27.89 C 22.06 32.35 21.68 37.19 22.02 42.00 C 20.70 42.00 19.38 42.00 18.06 42.00 L 17.73 39.80 C 16.47 41.88 15.07 44.73 17.04 46.87 C 20.36 50.96 23.98 56.38 29.96 55.98 C 35.64 55.62 42.53 57.55 47.05 53.07 C 51.38 48.85 49.67 42.36 49.99 36.99 C 49.72 33.56 50.69 29.79 49.43 26.59 C 47.05 24.58 45.48 27.94 45.84 30.00 C 44.58 30.00 43.32 30.00 42.05 30.00 C 41.95 27.82 42.74 23.27 39.14 24.09 C 37.28 25.45 38.26 28.05 37.95 30.00 C 36.65 30.00 35.34 30.00 34.03 30.00 C 30.54 23.09 27.31 16.04 23.69 9.19 C 22.99 6.69 18.88 8.68 20.29 10.83 M 29.22 11.21 C 30.15 13.00 31.05 14.80 31.93 16.61 C 32.61 14.16 34.04 11.77 33.86 9.18 C 32.25 6.45 29.64 9.10 29.22 11.21 Z" />
</g>
</svg>
