<?xml version="1.0" encoding="UTF-8" ?>
<!DOCTYPE svg PUBLIC "-//W3C//DTD SVG 1.1//EN" "http://www.w3.org/Graphics/SVG/1.1/DTD/svg11.dtd">
<svg width="64pt" height="64pt" viewBox="0 0 64 64" version="1.1" xmlns="http://www.w3.org/2000/svg">
<g id="#ffffffff">
<path fill="#ffffff" opacity="1.00" d=" M 0.00 0.00 L 64.00 0.00 L 64.00 64.00 L 0.00 64.00 L 0.00 0.00 M 6.00 8.00 C 6.00 12.66 6.00 17.32 6.00 21.98 C 6.50 21.99 7.50 22.01 8.00 22.02 C 8.00 33.34 8.00 44.67 8.00 56.00 C 24.00 56.00 40.00 56.00 56.00 56.00 C 56.00 44.67 56.00 33.34 56.00 22.02 C 56.50 22.01 57.50 21.99 58.00 21.98 C 58.00 17.32 58.00 12.66 58.00 8.00 C 40.67 8.00 23.33 8.00 6.00 8.00 Z" />
<path fill="#ffffff" opacity="1.00" d=" M 10.00 12.00 C 24.67 12.00 39.33 12.00 54.00 12.00 C 54.00 14.00 54.00 16.00 54.00 18.00 C 39.33 18.00 24.67 18.00 10.00 18.00 C 10.00 16.00 10.00 14.00 10.00 12.00 Z" />
<path fill="#ffffff" opacity="1.00" d=" M 12.00 22.00 C 25.33 22.00 38.67 22.00 52.00 22.00 C 52.00 32.00 52.00 42.00 52.00 52.00 C 50.67 51.99 49.33 51.99 48.00 52.00 C 47.92 47.97 48.18 43.93 47.84 39.91 C 47.01 32.56 40.39 26.41 33.01 26.04 C 26.26 25.48 19.63 29.88 17.15 36.11 C 15.16 41.16 16.30 46.72 16.00 52.00 C 14.67 51.99 13.33 51.99 12.00 52.00 C 12.00 42.00 12.00 32.00 12.00 22.00 Z" />
<path fill="#ffffff" opacity="1.00" d=" M 23.06 34.01 C 27.67 28.56 37.14 28.78 41.39 34.56 C 45.37 39.49 43.62 46.19 44.00 52.00 C 42.31 52.00 40.63 52.00 38.95 52.01 C 39.69 50.16 40.44 48.10 39.69 46.11 C 38.04 41.44 34.94 37.48 32.00 33.57 C 29.06 37.47 25.98 41.42 24.32 46.07 C 23.54 48.06 24.29 50.15 25.06 52.01 C 23.37 52.00 21.69 52.00 20.00 52.00 C 20.38 46.00 18.54 38.91 23.06 34.01 Z" />
<path fill="#ffffff" opacity="1.00" d=" M 29.41 51.54 C 26.24 47.78 29.94 43.60 32.01 40.34 C 34.04 43.61 37.76 47.78 34.59 51.54 C 34.92 49.10 33.35 47.20 32.00 45.38 C 30.65 47.20 29.07 49.10 29.41 51.54 Z" />
</g>
<g id="#000000ff">
<path fill="#000000" opacity="1.00" d=" M 6.00 8.00 C 23.33 8.00 40.67 8.00 58.00 8.00 C 58.00 12.66 58.00 17.32 58.00 21.98 C 57.50 21.99 56.50 22.01 56.00 22.02 C 56.00 33.34 56.00 44.67 56.00 56.00 C 40.00 56.00 24.00 56.00 8.00 56.00 C 8.00 44.67 8.00 33.34 8.00 22.02 C 7.50 22.01 6.50 21.99 6.00 21.98 C 6.00 17.32 6.00 12.66 6.00 8.00 M 10.00 12.00 C 10.00 14.00 10.00 16.00 10.00 18.00 C 24.67 18.00 39.33 18.00 54.00 18.00 C 54.00 16.00 54.00 14.00 54.00 12.00 C 39.33 12.00 24.67 12.00 10.00 12.00 M 12.00 22.00 C 12.00 32.00 12.00 42.00 12.00 52.00 C 13.33 51.99 14.67 51.99 16.00 52.00 C 16.30 46.72 15.16 41.16 17.15 36.11 C 19.63 29.88 26.26 25.48 33.01 26.04 C 40.39 26.41 47.01 32.56 47.84 39.91 C 48.18 43.93 47.92 47.97 48.00 52.00 C 49.33 51.99 50.67 51.99 52.00 52.00 C 52.00 42.00 52.00 32.00 52.00 22.00 C 38.67 22.00 25.33 22.00 12.00 22.00 M 23.06 34.01 C 18.54 38.91 20.38 46.00 20.00 52.00 C 21.69 52.00 23.37 52.00 25.06 52.01 C 24.29 50.15 23.54 48.06 24.32 46.07 C 25.98 41.42 29.06 37.47 32.00 33.57 C 34.94 37.48 38.04 41.44 39.69 46.11 C 40.44 48.10 39.69 50.16 38.95 52.01 C 40.63 52.00 42.31 52.00 44.00 52.00 C 43.62 46.19 45.37 39.49 41.39 34.56 C 37.14 28.78 27.67 28.56 23.06 34.01 M 29.41 51.54 C 29.07 49.10 30.65 47.20 32.00 45.38 C 33.35 47.20 34.92 49.10 34.59 51.54 C 37.76 47.78 34.04 43.61 32.01 40.34 C 29.94 43.60 26.24 47.78 29.41 51.54 Z" />
</g>
</svg>
