<?xml version="1.0" encoding="UTF-8" ?>
<!DOCTYPE svg PUBLIC "-//W3C//DTD SVG 1.1//EN" "http://www.w3.org/Graphics/SVG/1.1/DTD/svg11.dtd">
<svg width="64pt" height="64pt" viewBox="0 0 64 64" version="1.1" xmlns="http://www.w3.org/2000/svg">
<g id="#ffffffff">
<path fill="#ffffff" opacity="1.00" d=" M 0.00 0.00 L 64.00 0.00 L 64.00 64.00 L 0.00 64.00 L 0.00 0.00 M 10.00 10.00 C 10.00 24.67 10.00 39.33 10.00 54.00 C 24.67 54.00 39.33 54.00 54.00 54.00 C 54.00 39.33 54.00 24.67 54.00 10.00 C 39.33 10.00 24.67 10.00 10.00 10.00 Z" />
<path fill="#ffffff" opacity="1.00" d=" M 14.00 14.00 C 26.00 14.00 38.00 14.00 50.00 14.00 C 50.00 26.00 50.00 38.00 50.00 50.00 C 38.00 50.00 26.00 50.00 14.00 50.00 C 14.00 38.00 14.00 26.00 14.00 14.00 M 25.01 22.17 C 25.95 23.11 26.89 24.05 27.83 24.99 C 29.23 23.61 30.62 22.22 32.02 20.84 C 33.40 22.22 34.79 23.61 36.18 25.00 C 37.12 24.05 38.06 23.11 39.01 22.17 C 36.68 19.83 34.35 17.49 32.00 15.18 C 29.67 17.51 27.34 19.84 25.01 22.17 M 25.00 41.82 C 27.34 44.15 29.67 46.48 32.00 48.82 C 34.35 46.50 36.67 44.17 39.00 41.84 C 38.07 40.89 37.13 39.94 36.19 39.00 C 34.79 40.39 33.40 41.77 32.01 43.16 C 30.62 41.78 29.24 40.39 27.85 39.01 C 26.90 39.94 25.95 40.88 25.00 41.82 Z" />
</g>
<g id="#000000ff">
<path fill="#000000" opacity="1.00" d=" M 10.00 10.00 C 24.67 10.00 39.33 10.00 54.00 10.00 C 54.00 24.67 54.00 39.33 54.00 54.00 C 39.33 54.00 24.67 54.00 10.00 54.00 C 10.00 39.33 10.00 24.67 10.00 10.00 M 14.00 14.00 C 14.00 26.00 14.00 38.00 14.00 50.00 C 26.00 50.00 38.00 50.00 50.00 50.00 C 50.00 38.00 50.00 26.00 50.00 14.00 C 38.00 14.00 26.00 14.00 14.00 14.00 Z" />
<path fill="#000000" opacity="1.00" d=" M 25.01 22.17 C 27.34 19.84 29.67 17.51 32.00 15.18 C 34.35 17.49 36.68 19.83 39.01 22.17 C 38.06 23.11 37.12 24.05 36.18 25.00 C 34.79 23.61 33.40 22.22 32.02 20.84 C 30.62 22.22 29.23 23.61 27.83 24.99 C 26.89 24.05 25.95 23.11 25.01 22.17 Z" />
<path fill="#000000" opacity="1.00" d=" M 25.00 41.82 C 25.95 40.88 26.90 39.94 27.85 39.01 C 29.24 40.39 30.62 41.78 32.01 43.16 C 33.40 41.77 34.79 40.39 36.19 39.00 C 37.13 39.94 38.07 40.89 39.00 41.84 C 36.67 44.17 34.35 46.50 32.00 48.82 C 29.67 46.48 27.34 44.15 25.00 41.82 Z" />
</g>
</svg>
