<?xml version="1.0" encoding="UTF-8" ?>
<!DOCTYPE svg PUBLIC "-//W3C//DTD SVG 1.1//EN" "http://www.w3.org/Graphics/SVG/1.1/DTD/svg11.dtd">
<svg width="64pt" height="64pt" viewBox="0 0 64 64" version="1.1" xmlns="http://www.w3.org/2000/svg">
<g id="#ffffffff">
<path fill="#ffffff" opacity="1.00" d=" M 0.00 0.00 L 64.00 0.00 L 64.00 64.00 L 0.00 64.00 L 0.00 0.00 M 19.80 16.43 C 16.99 17.01 14.10 17.87 12.06 20.01 C 7.04 24.72 6.62 33.49 11.56 38.41 C 13.29 39.80 12.37 42.08 12.56 43.96 C 12.82 50.34 18.62 55.80 24.97 55.93 C 27.55 56.09 29.95 55.00 32.23 53.94 C 35.77 55.67 39.99 56.52 43.71 54.83 C 49.80 52.49 52.98 45.50 51.53 39.27 C 54.71 36.04 56.73 31.46 55.71 26.88 C 54.80 21.06 49.64 16.67 43.87 16.12 C 41.55 11.25 36.54 7.48 30.96 8.04 C 25.89 8.25 21.83 12.00 19.80 16.43 Z" />
<path fill="#ffffff" opacity="1.00" d=" M 22.65 20.07 C 24.07 16.00 27.15 11.68 31.98 12.00 C 36.64 11.82 39.57 15.95 41.11 19.83 C 45.49 19.96 50.48 21.79 51.66 26.50 C 53.24 30.94 50.34 35.08 47.18 37.89 C 48.25 42.14 48.26 47.52 44.18 50.23 C 40.57 53.08 35.76 51.51 32.27 49.31 C 28.82 51.53 24.15 53.31 20.44 50.61 C 16.23 48.04 16.06 42.62 17.05 38.31 C 13.57 35.47 10.55 30.94 12.53 26.31 C 13.91 21.97 18.58 20.49 22.65 20.07 M 30.13 25.16 C 29.91 27.58 31.09 29.86 31.08 32.28 C 31.75 32.39 33.09 32.61 33.76 32.72 C 33.47 32.46 32.88 31.95 32.59 31.70 C 33.07 29.55 34.01 27.42 33.88 25.18 C 33.14 23.66 30.87 23.63 30.13 25.16 M 23.18 32.78 C 25.88 33.90 28.89 33.61 31.74 33.75 L 31.64 32.85 C 28.90 32.76 27.30 30.09 24.82 29.27 C 22.95 28.90 21.58 31.54 23.18 32.78 M 34.85 31.56 C 34.74 32.14 34.52 33.30 34.41 33.88 C 36.56 33.09 41.53 34.41 41.53 30.84 C 40.13 27.50 36.86 30.76 34.85 31.56 M 30.36 35.08 C 28.47 35.96 26.69 37.70 25.11 39.22 C 23.62 41.68 28.04 43.49 28.77 40.67 C 29.25 39.02 32.03 36.55 30.36 35.08 M 32.58 36.00 C 33.93 37.82 34.71 40.07 36.33 41.68 C 37.60 42.71 39.18 41.32 39.46 40.00 C 38.70 38.03 36.60 37.17 35.07 35.90 C 34.35 34.29 33.26 35.38 32.58 36.00 Z" />
</g>
<g id="#000000ff">
<path fill="#000000" opacity="1.00" d=" M 19.80 16.43 C 21.83 12.00 25.89 8.25 30.96 8.04 C 36.54 7.48 41.55 11.25 43.87 16.12 C 49.64 16.67 54.80 21.06 55.71 26.88 C 56.73 31.46 54.71 36.04 51.53 39.27 C 52.98 45.50 49.80 52.49 43.71 54.83 C 39.99 56.52 35.77 55.67 32.23 53.94 C 29.95 55.00 27.55 56.09 24.97 55.93 C 18.62 55.80 12.82 50.34 12.56 43.96 C 12.37 42.08 13.29 39.80 11.56 38.41 C 6.62 33.49 7.04 24.72 12.06 20.01 C 14.10 17.87 16.99 17.01 19.80 16.43 M 22.65 20.07 C 18.58 20.49 13.91 21.97 12.53 26.31 C 10.55 30.94 13.57 35.47 17.05 38.31 C 16.06 42.62 16.23 48.04 20.44 50.61 C 24.15 53.31 28.82 51.53 32.27 49.31 C 35.76 51.51 40.57 53.08 44.18 50.23 C 48.26 47.52 48.25 42.14 47.18 37.89 C 50.34 35.08 53.24 30.94 51.66 26.50 C 50.48 21.79 45.49 19.96 41.11 19.83 C 39.57 15.95 36.64 11.82 31.98 12.00 C 27.15 11.68 24.07 16.00 22.65 20.07 Z" />
<path fill="#000000" opacity="1.00" d=" M 30.13 25.16 C 30.87 23.63 33.14 23.66 33.88 25.18 C 34.01 27.42 33.07 29.55 32.59 31.70 C 32.88 31.95 33.47 32.46 33.76 32.72 C 33.09 32.61 31.75 32.39 31.08 32.28 C 31.09 29.86 29.91 27.58 30.13 25.16 Z" />
<path fill="#000000" opacity="1.00" d=" M 23.18 32.78 C 21.58 31.54 22.95 28.90 24.82 29.27 C 27.30 30.09 28.90 32.76 31.64 32.85 L 31.74 33.75 C 28.89 33.61 25.88 33.90 23.18 32.78 Z" />
<path fill="#000000" opacity="1.00" d=" M 34.85 31.56 C 36.86 30.76 40.13 27.50 41.53 30.84 C 41.53 34.41 36.56 33.09 34.41 33.88 C 34.52 33.30 34.74 32.14 34.85 31.56 Z" />
<path fill="#000000" opacity="1.00" d=" M 30.36 35.08 C 32.03 36.55 29.25 39.02 28.77 40.67 C 28.04 43.49 23.62 41.68 25.11 39.22 C 26.69 37.70 28.47 35.96 30.36 35.08 Z" />
<path fill="#000000" opacity="1.00" d=" M 32.58 36.00 C 33.26 35.38 34.35 34.29 35.07 35.90 C 36.60 37.17 38.70 38.03 39.46 40.00 C 39.18 41.32 37.60 42.71 36.33 41.68 C 34.71 40.07 33.93 37.82 32.58 36.00 Z" />
</g>
</svg>
