<?xml version="1.0" encoding="UTF-8" ?>
<!DOCTYPE svg PUBLIC "-//W3C//DTD SVG 1.1//EN" "http://www.w3.org/Graphics/SVG/1.1/DTD/svg11.dtd">
<svg width="64pt" height="64pt" viewBox="0 0 64 64" version="1.1" xmlns="http://www.w3.org/2000/svg">
<g id="#ffffffff">
<path fill="#ffffff" opacity="1.00" d=" M 0.00 0.00 L 64.00 0.00 L 64.00 64.00 L 0.00 64.00 L 0.00 0.00 M 8.38 26.08 C 7.24 30.72 8.66 35.50 10.96 39.54 C 8.03 42.25 3.54 45.36 4.22 49.83 C 5.81 53.41 9.96 51.21 12.77 50.82 C 19.00 50.11 25.50 50.90 31.48 48.59 C 36.87 46.99 40.99 42.14 46.88 42.09 C 51.39 41.96 57.44 42.36 60.03 37.86 C 59.53 35.58 56.29 36.04 54.49 35.37 C 52.34 29.52 44.84 28.96 39.98 31.57 C 40.02 26.32 39.98 21.07 40.00 15.82 C 34.58 15.72 29.43 18.11 25.75 22.04 C 23.15 19.11 20.51 16.21 17.91 13.28 C 13.61 16.50 9.52 20.63 8.38 26.08 Z" />
<path fill="#ffffff" opacity="1.00" d=" M 12.07 27.97 C 12.48 24.27 14.98 21.34 17.53 18.84 C 22.61 24.56 27.77 30.22 32.83 35.96 C 36.67 36.18 40.52 35.88 44.10 34.41 C 46.51 33.38 51.34 34.49 50.16 37.95 C 46.37 37.96 42.45 38.30 39.03 40.09 C 36.06 41.68 33.36 43.83 30.11 44.86 C 23.25 47.44 15.78 45.68 8.77 47.43 C 10.96 44.62 13.53 42.08 16.77 40.51 C 13.84 37.05 11.40 32.67 12.07 27.97 Z" />
<path fill="#ffffff" opacity="1.00" d=" M 28.46 25.08 C 30.48 22.84 32.99 21.16 35.98 20.53 C 36.01 24.45 36.01 28.38 35.98 32.30 C 32.64 30.95 31.04 27.40 28.46 25.08 Z" />
</g>
<g id="#000000ff">
<path fill="#000000" opacity="1.00" d=" M 8.38 26.08 C 9.52 20.63 13.61 16.50 17.91 13.28 C 20.51 16.21 23.15 19.11 25.75 22.04 C 29.43 18.11 34.58 15.72 40.00 15.82 C 39.98 21.07 40.02 26.32 39.98 31.57 C 44.84 28.96 52.34 29.52 54.49 35.37 C 56.29 36.04 59.53 35.58 60.03 37.86 C 57.44 42.36 51.39 41.96 46.88 42.09 C 40.99 42.14 36.87 46.99 31.48 48.59 C 25.50 50.90 19.00 50.11 12.77 50.82 C 9.96 51.21 5.81 53.41 4.22 49.83 C 3.54 45.36 8.03 42.25 10.96 39.54 C 8.66 35.50 7.24 30.72 8.38 26.08 M 12.07 27.97 C 11.40 32.67 13.84 37.05 16.77 40.51 C 13.53 42.08 10.96 44.62 8.77 47.43 C 15.78 45.68 23.25 47.44 30.11 44.86 C 33.36 43.83 36.06 41.68 39.03 40.09 C 42.45 38.30 46.37 37.96 50.16 37.95 C 51.34 34.49 46.51 33.38 44.10 34.41 C 40.52 35.88 36.67 36.18 32.83 35.96 C 27.77 30.22 22.61 24.56 17.53 18.84 C 14.98 21.34 12.48 24.27 12.07 27.97 M 28.46 25.08 C 31.04 27.40 32.64 30.95 35.98 32.30 C 36.01 28.38 36.01 24.45 35.98 20.53 C 32.99 21.16 30.48 22.84 28.46 25.08 Z" />
</g>
</svg>
