<?xml version="1.0" encoding="UTF-8" ?>
<!DOCTYPE svg PUBLIC "-//W3C//DTD SVG 1.1//EN" "http://www.w3.org/Graphics/SVG/1.1/DTD/svg11.dtd">
<svg width="64pt" height="64pt" viewBox="0 0 64 64" version="1.1" xmlns="http://www.w3.org/2000/svg">
<g id="#ffffffff">
<path fill="#ffffff" opacity="1.00" d=" M 0.00 0.00 L 64.00 0.00 L 64.00 64.00 L 0.00 64.00 L 0.00 0.00 M 12.00 6.00 C 12.00 23.33 12.00 40.67 12.00 58.00 C 25.33 58.00 38.67 58.00 52.00 58.00 C 51.98 48.99 52.04 39.97 51.97 30.96 C 53.31 29.59 54.66 28.22 56.00 26.85 C 56.00 19.90 56.00 12.95 56.00 6.00 C 41.33 6.00 26.67 6.00 12.00 6.00 Z" />
<path fill="#ffffff" opacity="1.00" d=" M 16.00 10.00 C 25.33 10.00 34.67 10.00 44.00 10.00 C 43.99 15.61 44.01 21.22 44.00 26.84 C 45.35 28.21 46.70 29.58 48.03 30.96 C 47.96 38.64 48.01 46.32 48.00 54.00 C 37.33 54.00 26.67 54.00 16.00 54.00 C 16.00 39.33 16.00 24.67 16.00 10.00 Z" />
<path fill="#ffffff" opacity="1.00" d=" M 48.01 10.00 C 49.34 10.00 50.66 10.00 51.99 10.00 C 51.92 14.96 52.17 19.92 51.91 24.88 C 51.32 25.73 50.69 26.55 50.00 27.33 C 49.31 26.55 48.67 25.73 48.09 24.88 C 47.83 19.92 48.08 14.96 48.01 10.00 Z" />
</g>
<g id="#000000ff">
<path fill="#000000" opacity="1.00" d=" M 12.00 6.00 C 26.67 6.00 41.33 6.00 56.00 6.00 C 56.00 12.95 56.00 19.90 56.00 26.85 C 54.66 28.22 53.31 29.59 51.97 30.96 C 52.04 39.97 51.98 48.99 52.00 58.00 C 38.67 58.00 25.33 58.00 12.00 58.00 C 12.00 40.67 12.00 23.33 12.00 6.00 M 16.00 10.00 C 16.00 24.67 16.00 39.33 16.00 54.00 C 26.67 54.00 37.33 54.00 48.00 54.00 C 48.01 46.32 47.96 38.64 48.03 30.96 C 46.70 29.58 45.35 28.21 44.00 26.84 C 44.01 21.22 43.99 15.61 44.00 10.00 C 34.67 10.00 25.33 10.00 16.00 10.00 M 48.01 10.00 C 48.08 14.96 47.83 19.92 48.09 24.88 C 48.67 25.73 49.31 26.55 50.00 27.33 C 50.69 26.55 51.32 25.73 51.91 24.88 C 52.17 19.92 51.92 14.96 51.99 10.00 C 50.66 10.00 49.34 10.00 48.01 10.00 Z" />
</g>
</svg>
