<?xml version="1.0" encoding="UTF-8" ?>
<!DOCTYPE svg PUBLIC "-//W3C//DTD SVG 1.1//EN" "http://www.w3.org/Graphics/SVG/1.1/DTD/svg11.dtd">
<svg width="64pt" height="64pt" viewBox="0 0 64 64" version="1.1" xmlns="http://www.w3.org/2000/svg">
<g id="#ffffffff">
<path fill="#ffffff" opacity="1.00" d=" M 0.00 0.00 L 64.00 0.00 L 64.00 64.00 L 0.00 64.00 L 0.00 0.00 M 14.00 6.00 C 14.00 14.67 14.00 23.33 14.00 32.00 C 12.67 32.00 11.33 32.00 10.00 32.00 C 10.00 33.31 10.00 34.62 10.00 35.93 C 11.45 36.12 13.11 35.70 14.38 36.61 C 19.06 39.57 23.67 42.64 28.32 45.65 C 23.87 48.56 19.41 51.45 14.93 54.32 C 15.65 55.44 16.37 56.56 17.08 57.68 C 22.09 54.49 27.04 51.22 32.06 48.04 C 37.02 51.24 41.97 54.46 46.92 57.67 C 47.63 56.55 48.36 55.43 49.08 54.32 C 44.64 51.40 40.16 48.52 35.69 45.65 C 40.36 42.68 44.95 39.62 49.62 36.66 C 50.88 35.70 52.53 36.09 54.00 35.93 C 54.00 34.62 54.00 33.31 54.00 32.00 C 52.67 32.00 51.33 32.00 50.00 32.00 C 50.00 23.33 50.00 14.67 50.00 6.00 C 48.67 6.00 47.33 6.00 46.00 6.00 C 46.00 7.33 46.00 8.67 46.00 10.00 C 36.67 10.00 27.33 10.00 18.00 10.00 C 18.00 8.67 18.00 7.33 18.00 6.00 C 16.67 6.00 15.33 6.00 14.00 6.00 Z" />
<path fill="#ffffff" opacity="1.00" d=" M 18.00 14.00 C 27.33 14.00 36.67 14.00 46.00 14.00 C 46.00 15.33 46.00 16.67 46.00 18.00 C 36.67 18.00 27.33 18.00 18.00 18.00 C 18.00 16.67 18.00 15.33 18.00 14.00 Z" />
<path fill="#ffffff" opacity="1.00" d=" M 18.00 22.00 C 27.33 22.00 36.67 22.00 46.00 22.00 C 46.00 25.33 46.00 28.67 46.00 32.00 C 36.67 32.00 27.33 32.00 18.00 32.00 C 18.00 28.67 18.00 25.33 18.00 22.00 Z" />
<path fill="#ffffff" opacity="1.00" d=" M 20.85 36.01 C 28.32 35.99 35.79 36.00 43.26 36.00 C 39.52 38.43 35.77 40.86 32.01 43.27 C 28.31 40.82 24.55 38.46 20.85 36.01 Z" />
</g>
<g id="#000000ff">
<path fill="#000000" opacity="1.00" d=" M 14.00 6.00 C 15.33 6.00 16.67 6.00 18.00 6.00 C 18.00 7.33 18.00 8.67 18.00 10.00 C 27.33 10.00 36.67 10.00 46.00 10.00 C 46.00 8.67 46.00 7.33 46.00 6.00 C 47.33 6.00 48.67 6.00 50.00 6.00 C 50.00 14.67 50.00 23.33 50.00 32.00 C 51.33 32.00 52.67 32.00 54.00 32.00 C 54.00 33.31 54.00 34.62 54.00 35.93 C 52.53 36.09 50.88 35.70 49.62 36.66 C 44.95 39.62 40.36 42.68 35.69 45.65 C 40.16 48.52 44.64 51.40 49.08 54.32 C 48.36 55.43 47.63 56.55 46.92 57.67 C 41.97 54.46 37.02 51.24 32.06 48.04 C 27.04 51.22 22.09 54.49 17.08 57.68 C 16.37 56.56 15.65 55.44 14.93 54.32 C 19.41 51.45 23.87 48.56 28.32 45.65 C 23.67 42.64 19.06 39.57 14.38 36.61 C 13.11 35.70 11.45 36.12 10.00 35.93 C 10.00 34.62 10.00 33.31 10.00 32.00 C 11.33 32.00 12.67 32.00 14.00 32.00 C 14.00 23.33 14.00 14.67 14.00 6.00 M 18.00 14.00 C 18.00 15.33 18.00 16.67 18.00 18.00 C 27.33 18.00 36.67 18.00 46.00 18.00 C 46.00 16.67 46.00 15.33 46.00 14.00 C 36.67 14.00 27.33 14.00 18.00 14.00 M 18.00 22.00 C 18.00 25.33 18.00 28.67 18.00 32.00 C 27.33 32.00 36.67 32.00 46.00 32.00 C 46.00 28.67 46.00 25.33 46.00 22.00 C 36.67 22.00 27.33 22.00 18.00 22.00 M 20.85 36.01 C 24.55 38.46 28.31 40.82 32.01 43.27 C 35.77 40.86 39.52 38.43 43.26 36.00 C 35.79 36.00 28.32 35.99 20.85 36.01 Z" />
</g>
</svg>
