<?xml version="1.0" encoding="UTF-8" ?>
<!DOCTYPE svg PUBLIC "-//W3C//DTD SVG 1.1//EN" "http://www.w3.org/Graphics/SVG/1.1/DTD/svg11.dtd">
<svg width="64pt" height="64pt" viewBox="0 0 64 64" version="1.1" xmlns="http://www.w3.org/2000/svg">
<g id="#ffffffff">
<path fill="#ffffff" opacity="1.00" d=" M 0.00 0.00 L 64.00 0.00 L 64.00 64.00 L 0.00 64.00 L 0.00 0.00 M 24.00 8.00 C 24.00 12.67 24.00 17.33 24.00 22.00 C 18.66 22.00 13.33 21.99 8.00 22.00 C 8.00 33.33 8.00 44.67 8.00 56.00 C 18.67 56.00 29.33 56.00 40.00 56.00 C 40.00 51.33 40.00 46.67 40.00 42.00 C 45.33 42.00 50.67 42.00 56.00 42.00 C 56.00 30.67 56.00 19.33 56.00 8.00 C 45.33 8.00 34.67 8.00 24.00 8.00 Z" />
<path fill="#ffffff" opacity="1.00" d=" M 30.71 12.04 C 37.80 11.94 44.90 12.03 52.00 12.00 C 52.00 20.67 52.00 29.33 52.00 38.00 C 48.00 38.00 44.00 38.00 40.00 38.00 C 39.98 33.04 40.05 28.09 39.95 23.13 C 36.86 19.45 33.44 16.02 30.71 12.04 Z" />
<path fill="#ffffff" opacity="1.00" d=" M 28.05 15.79 C 30.10 17.58 31.83 19.68 33.29 21.97 C 31.53 21.99 29.76 21.99 27.99 22.02 C 28.00 19.94 28.00 17.87 28.05 15.79 Z" />
<path fill="#ffffff" opacity="1.00" d=" M 12.00 26.00 C 20.00 26.00 28.00 26.00 36.00 26.00 C 36.00 34.67 36.00 43.33 36.00 52.00 C 28.00 52.00 20.00 52.00 12.00 52.00 C 12.00 43.33 12.00 34.67 12.00 26.00 M 15.99 30.00 C 16.01 32.00 16.01 34.00 15.99 36.00 C 21.33 36.00 26.67 36.00 32.01 36.00 C 31.99 34.00 31.99 32.00 32.01 30.00 C 26.67 30.00 21.33 30.00 15.99 30.00 M 16.00 40.00 C 16.00 41.33 16.00 42.66 16.00 44.00 C 21.33 44.01 26.67 44.00 32.00 44.00 C 32.00 42.66 32.00 41.33 32.00 40.00 C 26.67 39.99 21.33 40.00 16.00 40.00 Z" />
</g>
<g id="#000000ff">
<path fill="#000000" opacity="1.00" d=" M 24.00 8.00 C 34.67 8.00 45.33 8.00 56.00 8.00 C 56.00 19.33 56.00 30.67 56.00 42.00 C 50.67 42.00 45.33 42.00 40.00 42.00 C 40.00 46.67 40.00 51.33 40.00 56.00 C 29.33 56.00 18.67 56.00 8.00 56.00 C 8.00 44.67 8.00 33.33 8.00 22.00 C 13.33 21.99 18.66 22.00 24.00 22.00 C 24.00 17.33 24.00 12.67 24.00 8.00 M 30.71 12.04 C 33.44 16.02 36.86 19.45 39.95 23.13 C 40.05 28.09 39.98 33.04 40.00 38.00 C 44.00 38.00 48.00 38.00 52.00 38.00 C 52.00 29.33 52.00 20.67 52.00 12.00 C 44.90 12.03 37.80 11.94 30.71 12.04 M 28.05 15.79 C 28.00 17.87 28.00 19.94 27.99 22.02 C 29.76 21.99 31.53 21.99 33.29 21.97 C 31.83 19.68 30.10 17.58 28.05 15.79 M 12.00 26.00 C 12.00 34.67 12.00 43.33 12.00 52.00 C 20.00 52.00 28.00 52.00 36.00 52.00 C 36.00 43.33 36.00 34.67 36.00 26.00 C 28.00 26.00 20.00 26.00 12.00 26.00 Z" />
<path fill="#000000" opacity="1.00" d=" M 15.99 30.00 C 21.33 30.00 26.67 30.00 32.01 30.00 C 31.99 32.00 31.99 34.00 32.01 36.00 C 26.67 36.00 21.33 36.00 15.99 36.00 C 16.01 34.00 16.01 32.00 15.99 30.00 Z" />
<path fill="#000000" opacity="1.00" d=" M 16.00 40.00 C 21.33 40.00 26.67 39.99 32.00 40.00 C 32.00 41.33 32.00 42.66 32.00 44.00 C 26.67 44.00 21.33 44.01 16.00 44.00 C 16.00 42.66 16.00 41.33 16.00 40.00 Z" />
</g>
</svg>
