<?xml version="1.0" encoding="UTF-8" ?>
<!DOCTYPE svg PUBLIC "-//W3C//DTD SVG 1.1//EN" "http://www.w3.org/Graphics/SVG/1.1/DTD/svg11.dtd">
<svg width="64pt" height="64pt" viewBox="0 0 64 64" version="1.1" xmlns="http://www.w3.org/2000/svg">
<g id="#ffffffff">
<path fill="#ffffff" opacity="1.00" d=" M 0.00 0.00 L 64.00 0.00 L 64.00 64.00 L 0.00 64.00 L 0.00 0.00 M 10.00 10.00 C 10.00 24.67 10.00 39.33 10.00 54.00 C 24.67 54.00 39.33 54.00 54.00 54.00 C 54.00 39.33 54.00 24.67 54.00 10.00 C 39.33 10.00 24.67 10.00 10.00 10.00 Z" />
<path fill="#ffffff" opacity="1.00" d=" M 14.00 14.00 C 26.00 14.00 38.00 14.00 50.00 14.00 C 50.00 26.00 50.00 38.00 50.00 50.00 C 38.00 50.00 26.00 50.00 14.00 50.00 C 14.00 38.00 14.00 26.00 14.00 14.00 M 18.18 22.19 C 17.90 26.46 22.71 28.76 25.00 31.84 C 27.27 29.49 29.74 27.28 31.60 24.56 C 32.48 22.87 31.58 20.67 29.75 20.13 C 27.78 19.63 26.43 21.40 25.00 22.39 C 23.36 20.35 19.12 18.65 18.18 22.19 M 36.00 20.01 C 36.00 21.34 36.00 22.66 36.00 23.99 C 39.33 24.01 42.67 24.01 46.00 23.99 C 46.00 22.66 46.00 21.34 46.00 20.01 C 42.67 19.99 39.33 19.99 36.00 20.01 M 32.00 30.00 C 32.00 31.33 32.00 32.66 32.00 33.99 C 36.67 34.01 41.33 34.01 46.00 34.00 C 46.00 32.66 46.00 31.33 46.00 30.01 C 41.33 29.99 36.67 30.00 32.00 30.00 M 18.00 40.01 C 18.00 41.34 18.00 42.66 18.00 43.99 C 27.33 44.01 36.67 44.00 46.00 43.99 C 46.00 42.66 46.00 41.34 46.00 40.01 C 36.67 40.00 27.33 39.99 18.00 40.01 Z" />
</g>
<g id="#000000ff">
<path fill="#000000" opacity="1.00" d=" M 10.00 10.00 C 24.67 10.00 39.33 10.00 54.00 10.00 C 54.00 24.67 54.00 39.33 54.00 54.00 C 39.33 54.00 24.67 54.00 10.00 54.00 C 10.00 39.33 10.00 24.67 10.00 10.00 M 14.00 14.00 C 14.00 26.00 14.00 38.00 14.00 50.00 C 26.00 50.00 38.00 50.00 50.00 50.00 C 50.00 38.00 50.00 26.00 50.00 14.00 C 38.00 14.00 26.00 14.00 14.00 14.00 Z" />
<path fill="#000000" opacity="1.00" d=" M 18.18 22.19 C 19.12 18.65 23.36 20.35 25.00 22.39 C 26.43 21.40 27.78 19.63 29.75 20.13 C 31.58 20.67 32.48 22.87 31.60 24.56 C 29.74 27.28 27.27 29.49 25.00 31.84 C 22.71 28.76 17.90 26.46 18.18 22.19 Z" />
<path fill="#000000" opacity="1.00" d=" M 36.00 20.01 C 39.33 19.99 42.67 19.99 46.00 20.01 C 46.00 21.34 46.00 22.66 46.00 23.99 C 42.67 24.01 39.33 24.01 36.00 23.99 C 36.00 22.66 36.00 21.34 36.00 20.01 Z" />
<path fill="#000000" opacity="1.00" d=" M 32.00 30.00 C 36.67 30.00 41.33 29.99 46.00 30.01 C 46.00 31.33 46.00 32.66 46.00 34.00 C 41.33 34.01 36.67 34.01 32.00 33.99 C 32.00 32.66 32.00 31.33 32.00 30.00 Z" />
<path fill="#000000" opacity="1.00" d=" M 18.00 40.01 C 27.33 39.99 36.67 40.00 46.00 40.01 C 46.00 41.34 46.00 42.66 46.00 43.99 C 36.67 44.00 27.33 44.01 18.00 43.99 C 18.00 42.66 18.00 41.34 18.00 40.01 Z" />
</g>
</svg>
