<?xml version="1.0" encoding="UTF-8" ?>
<!DOCTYPE svg PUBLIC "-//W3C//DTD SVG 1.1//EN" "http://www.w3.org/Graphics/SVG/1.1/DTD/svg11.dtd">
<svg width="64pt" height="64pt" viewBox="0 0 64 64" version="1.1" xmlns="http://www.w3.org/2000/svg">
<g id="#ffffffff">
<path fill="#ffffff" opacity="1.00" d=" M 0.00 0.00 L 64.00 0.00 L 64.00 64.00 L 0.00 64.00 L 0.00 0.00 M 23.96 4.07 C 23.08 7.78 26.56 10.35 26.09 13.99 C 25.57 13.99 24.52 14.01 24.00 14.01 C 24.00 16.68 24.00 19.34 24.00 22.00 C 22.00 22.00 20.00 22.00 18.00 22.00 C 18.03 30.69 17.95 39.37 18.03 48.06 C 18.08 52.90 21.10 57.38 25.18 59.82 C 29.69 60.15 34.27 60.11 38.79 59.84 C 42.89 57.40 45.91 52.89 45.97 48.03 C 46.05 39.36 45.97 30.68 46.00 22.00 C 44.00 22.00 42.00 22.00 40.00 22.00 C 40.00 19.34 40.00 16.67 40.00 14.01 C 39.50 14.01 38.50 13.99 38.00 13.99 C 38.00 11.61 38.00 9.24 38.01 6.87 C 33.56 5.01 28.73 4.45 23.96 4.07 Z" />
<path fill="#ffffff" opacity="1.00" d=" M 29.53 8.53 C 31.01 8.97 32.52 9.33 34.03 9.67 C 34.01 11.11 34.00 12.56 33.99 14.00 C 32.68 14.00 31.36 14.00 30.05 14.00 C 30.04 12.17 29.95 10.33 29.53 8.53 Z" />
<path fill="#ffffff" opacity="1.00" d=" M 28.00 18.00 C 30.67 18.00 33.33 18.00 36.00 18.00 C 36.00 19.33 36.00 20.67 36.00 22.00 C 33.33 22.00 30.67 22.00 28.00 22.00 C 28.00 20.67 28.00 19.33 28.00 18.00 Z" />
<path fill="#ffffff" opacity="1.00" d=" M 22.00 26.00 C 28.67 26.00 35.33 26.00 42.00 26.00 C 41.96 33.33 42.08 40.67 41.96 48.00 C 41.99 51.14 40.07 53.91 37.71 55.81 C 34.13 56.19 30.49 56.03 26.90 55.92 C 23.67 54.41 21.81 50.53 22.00 47.01 C 21.98 40.01 22.01 33.00 22.00 26.00 Z" />
</g>
<g id="#000000ff">
<path fill="#000000" opacity="1.00" d=" M 23.96 4.07 C 28.73 4.45 33.56 5.01 38.01 6.87 C 38.00 9.24 38.00 11.61 38.00 13.99 C 38.50 13.99 39.50 14.01 40.00 14.01 C 40.00 16.67 40.00 19.34 40.00 22.00 C 42.00 22.00 44.00 22.00 46.00 22.00 C 45.97 30.68 46.05 39.36 45.97 48.03 C 45.91 52.89 42.89 57.40 38.79 59.84 C 34.27 60.11 29.69 60.15 25.18 59.82 C 21.10 57.38 18.08 52.90 18.03 48.06 C 17.95 39.37 18.03 30.69 18.00 22.00 C 20.00 22.00 22.00 22.00 24.00 22.00 C 24.00 19.34 24.00 16.68 24.00 14.01 C 24.52 14.01 25.57 13.99 26.09 13.99 C 26.56 10.35 23.08 7.78 23.96 4.07 M 29.53 8.53 C 29.95 10.33 30.04 12.17 30.05 14.00 C 31.36 14.00 32.68 14.00 33.99 14.00 C 34.00 12.56 34.01 11.11 34.03 9.67 C 32.52 9.33 31.01 8.97 29.53 8.53 M 28.00 18.00 C 28.00 19.33 28.00 20.67 28.00 22.00 C 30.67 22.00 33.33 22.00 36.00 22.00 C 36.00 20.67 36.00 19.33 36.00 18.00 C 33.33 18.00 30.67 18.00 28.00 18.00 M 22.00 26.00 C 22.01 33.00 21.98 40.01 22.00 47.01 C 21.81 50.53 23.67 54.41 26.90 55.92 C 30.49 56.03 34.13 56.19 37.71 55.81 C 40.07 53.91 41.99 51.14 41.96 48.00 C 42.08 40.67 41.96 33.33 42.00 26.00 C 35.33 26.00 28.67 26.00 22.00 26.00 Z" />
</g>
</svg>
