<?xml version="1.0" encoding="UTF-8" ?>
<!DOCTYPE svg PUBLIC "-//W3C//DTD SVG 1.1//EN" "http://www.w3.org/Graphics/SVG/1.1/DTD/svg11.dtd">
<svg width="64pt" height="64pt" viewBox="0 0 64 64" version="1.1" xmlns="http://www.w3.org/2000/svg">
<g id="#ffffffff">
<path fill="#ffffff" opacity="1.00" d=" M 0.00 0.00 L 64.00 0.00 L 64.00 64.00 L 0.00 64.00 L 0.00 0.00 M 18.35 14.33 C 14.64 18.48 13.96 24.27 13.91 29.61 C 12.95 31.18 11.65 32.84 12.06 34.81 C 12.38 36.97 14.32 38.21 15.97 39.34 C 17.47 43.26 18.55 47.44 21.05 50.88 C 25.56 56.53 34.51 57.56 40.31 53.32 C 44.94 50.14 45.98 44.21 48.02 39.36 C 49.67 38.22 51.61 36.98 51.94 34.82 C 52.35 32.86 51.04 31.19 50.09 29.62 C 49.89 24.82 49.69 19.49 46.38 15.65 C 44.63 13.51 41.89 12.73 39.31 12.12 C 38.65 10.77 38.00 9.41 37.36 8.06 C 30.62 7.79 23.04 9.01 18.35 14.33 Z" />
<path fill="#ffffff" opacity="1.00" d=" M 21.60 16.66 C 24.97 13.02 30.21 12.50 34.85 12.08 C 35.76 14.00 36.62 15.95 37.35 17.95 C 33.73 18.71 29.93 18.37 26.39 19.50 C 23.62 20.46 22.30 23.27 21.76 25.95 C 23.06 25.98 24.36 25.99 25.66 26.00 C 26.71 21.46 32.38 23.06 35.78 22.33 C 39.11 22.40 41.28 19.58 41.52 16.46 C 44.75 19.00 45.78 23.08 46.02 27.00 C 37.29 31.05 26.72 31.05 17.98 27.01 C 18.41 23.37 18.93 19.40 21.60 16.66 Z" />
<path fill="#ffffff" opacity="1.00" d=" M 16.97 31.71 C 17.44 32.09 18.39 32.84 18.87 33.21 L 19.32 33.77 C 20.14 34.65 19.77 35.86 19.52 36.88 C 16.89 36.24 14.93 34.13 16.97 31.71 Z" />
<path fill="#ffffff" opacity="1.00" d=" M 25.22 32.10 C 27.62 31.17 29.13 34.84 26.81 35.88 C 24.38 36.86 22.83 33.13 25.22 32.10 Z" />
<path fill="#ffffff" opacity="1.00" d=" M 37.23 32.20 C 39.53 30.99 41.17 34.91 38.80 35.91 C 36.45 36.93 34.78 33.05 37.23 32.20 Z" />
<path fill="#ffffff" opacity="1.00" d=" M 45.12 33.15 C 45.98 32.38 47.38 31.54 47.78 33.26 C 48.89 35.34 45.71 36.01 44.49 36.90 C 44.23 35.86 43.87 34.66 44.65 33.74 L 45.12 33.15 Z" />
<path fill="#ffffff" opacity="1.00" d=" M 25.96 39.96 C 29.01 40.01 29.72 35.33 32.88 36.12 C 34.75 37.63 36.18 40.43 39.01 39.96 C 41.28 40.01 42.26 36.85 44.57 37.40 C 43.01 41.15 41.97 45.20 39.64 48.58 C 35.74 53.31 27.52 53.11 23.99 48.07 C 21.95 44.75 20.88 40.98 19.43 37.40 C 22.01 36.90 23.16 40.78 25.96 39.96 Z" />
</g>
<g id="#000000ff">
<path fill="#000000" opacity="1.00" d=" M 18.35 14.33 C 23.04 9.01 30.62 7.79 37.36 8.06 C 38.00 9.41 38.65 10.77 39.31 12.12 C 41.89 12.73 44.63 13.51 46.38 15.65 C 49.69 19.49 49.89 24.82 50.09 29.62 C 51.04 31.19 52.35 32.86 51.94 34.82 C 51.61 36.98 49.67 38.22 48.02 39.36 C 45.98 44.21 44.94 50.14 40.31 53.32 C 34.51 57.56 25.56 56.53 21.05 50.88 C 18.55 47.44 17.47 43.26 15.97 39.34 C 14.32 38.21 12.38 36.97 12.06 34.81 C 11.65 32.84 12.95 31.18 13.91 29.61 C 13.96 24.27 14.64 18.48 18.35 14.33 M 21.60 16.66 C 18.93 19.40 18.41 23.37 17.98 27.01 C 26.72 31.05 37.29 31.05 46.02 27.00 C 45.78 23.08 44.75 19.00 41.52 16.46 C 41.28 19.58 39.11 22.40 35.78 22.33 C 32.38 23.06 26.71 21.46 25.66 26.00 C 24.36 25.99 23.06 25.98 21.76 25.95 C 22.30 23.27 23.62 20.46 26.39 19.50 C 29.93 18.37 33.73 18.71 37.35 17.95 C 36.62 15.95 35.76 14.00 34.85 12.08 C 30.21 12.50 24.97 13.02 21.60 16.66 M 16.97 31.71 C 14.93 34.13 16.89 36.24 19.52 36.88 C 19.77 35.86 20.14 34.65 19.32 33.77 L 18.87 33.21 C 18.39 32.84 17.44 32.09 16.97 31.71 M 25.22 32.10 C 22.83 33.13 24.38 36.86 26.81 35.88 C 29.13 34.84 27.62 31.17 25.22 32.10 M 37.23 32.20 C 34.78 33.05 36.45 36.93 38.80 35.91 C 41.17 34.91 39.53 30.99 37.23 32.20 M 45.12 33.15 L 44.65 33.74 C 43.87 34.66 44.23 35.86 44.49 36.90 C 45.71 36.01 48.89 35.34 47.78 33.26 C 47.38 31.54 45.98 32.38 45.12 33.15 M 25.96 39.96 C 23.16 40.78 22.01 36.90 19.43 37.40 C 20.88 40.98 21.95 44.75 23.99 48.07 C 27.52 53.11 35.74 53.31 39.64 48.58 C 41.97 45.20 43.01 41.15 44.57 37.40 C 42.26 36.85 41.28 40.01 39.01 39.96 C 36.18 40.43 34.75 37.63 32.88 36.12 C 29.72 35.33 29.01 40.01 25.96 39.96 Z" />
</g>
</svg>
