<?xml version="1.0" encoding="UTF-8" ?>
<!DOCTYPE svg PUBLIC "-//W3C//DTD SVG 1.1//EN" "http://www.w3.org/Graphics/SVG/1.1/DTD/svg11.dtd">
<svg width="64pt" height="64pt" viewBox="0 0 64 64" version="1.1" xmlns="http://www.w3.org/2000/svg">
<g id="#ffffffff">
<path fill="#ffffff" opacity="1.00" d=" M 0.00 0.00 L 64.00 0.00 L 64.00 64.00 L 0.00 64.00 L 0.00 0.00 M 23.84 6.89 C 19.02 10.02 17.83 16.09 16.04 21.13 C 13.63 24.00 9.41 23.77 6.01 24.10 C 5.99 24.90 5.96 26.50 5.94 27.30 C 7.93 28.27 9.95 29.18 12.00 30.02 C 12.03 33.06 11.82 36.11 12.16 39.14 C 12.48 41.31 14.62 42.35 16.24 43.45 C 17.73 50.94 24.34 57.37 32.03 57.99 C 39.70 57.35 46.28 50.92 47.75 43.44 C 49.41 42.35 51.55 41.28 51.84 39.08 C 52.17 36.07 51.97 33.04 51.99 30.01 C 53.89 29.21 55.78 28.41 57.67 27.58 L 58.00 27.04 C 58.00 26.31 58.00 24.84 58.00 24.10 C 54.60 23.76 50.38 24.01 47.97 21.14 C 46.17 16.08 44.97 10.00 40.13 6.88 C 37.56 5.24 34.45 6.25 32.00 7.57 C 29.54 6.25 26.41 5.24 23.84 6.89 Z" />
<path fill="#ffffff" opacity="1.00" d=" M 26.16 10.14 C 27.86 9.54 29.16 11.07 30.37 11.97 C 31.45 11.97 32.54 11.97 33.62 11.97 C 34.83 11.04 36.08 9.63 37.79 10.09 C 41.33 12.49 42.35 16.97 43.67 20.77 C 35.99 22.37 27.95 22.46 20.29 20.71 C 21.69 16.98 22.66 12.51 26.16 10.14 Z" />
<path fill="#ffffff" opacity="1.00" d=" M 14.83 26.80 C 16.18 26.02 17.53 25.23 18.87 24.43 C 27.46 26.50 36.54 26.50 45.14 24.43 C 46.48 25.24 47.83 26.03 49.18 26.82 C 38.15 30.92 25.85 30.96 14.83 26.80 Z" />
<path fill="#ffffff" opacity="1.00" d=" M 20.00 32.54 C 27.87 34.42 36.12 34.42 44.00 32.54 C 44.00 33.22 44.01 34.57 44.01 35.25 C 45.35 34.58 46.69 33.91 48.03 33.25 C 47.61 35.32 48.89 38.27 46.95 39.75 C 46.23 39.85 44.81 40.04 44.10 40.14 C 44.52 46.43 39.48 51.65 33.86 53.58 C 31.46 54.59 29.00 53.22 26.95 52.05 C 22.75 49.64 19.55 45.15 19.90 40.14 C 19.21 40.05 17.84 39.86 17.15 39.77 C 15.03 38.42 16.42 35.30 15.97 33.25 C 17.31 33.91 18.65 34.58 19.99 35.25 C 20.00 34.57 20.00 33.22 20.00 32.54 M 21.74 33.97 C 22.02 36.04 22.03 38.98 24.48 39.75 C 26.57 40.58 28.52 39.27 30.14 38.09 C 27.37 36.66 24.57 35.28 21.74 33.97 M 33.76 38.19 C 35.51 39.36 37.59 40.68 39.74 39.62 C 41.92 38.61 41.88 35.96 42.02 33.92 C 39.27 35.34 36.50 36.74 33.76 38.19 M 26.15 46.82 C 28.10 51.19 35.94 51.20 37.83 46.78 C 38.66 45.34 36.89 44.41 36.02 43.63 C 35.91 44.05 35.67 44.89 35.56 45.31 C 33.19 45.25 30.81 45.25 28.45 45.31 C 28.33 44.90 28.11 44.07 27.99 43.65 C 26.99 44.44 25.45 45.27 26.15 46.82 Z" />
</g>
<g id="#000000ff">
<path fill="#000000" opacity="1.00" d=" M 23.84 6.89 C 26.41 5.24 29.54 6.25 32.00 7.57 C 34.45 6.25 37.56 5.24 40.13 6.88 C 44.97 10.00 46.17 16.08 47.97 21.14 C 50.38 24.01 54.60 23.76 58.00 24.10 C 58.00 24.84 58.00 26.31 58.00 27.04 L 57.67 27.58 C 55.78 28.41 53.89 29.21 51.99 30.01 C 51.97 33.04 52.17 36.07 51.84 39.08 C 51.55 41.28 49.41 42.35 47.75 43.44 C 46.28 50.92 39.70 57.35 32.03 57.99 C 24.34 57.37 17.73 50.94 16.24 43.45 C 14.62 42.35 12.48 41.31 12.16 39.14 C 11.82 36.11 12.03 33.06 12.00 30.02 C 9.95 29.18 7.93 28.27 5.94 27.30 C 5.96 26.50 5.99 24.90 6.01 24.10 C 9.41 23.77 13.63 24.00 16.04 21.13 C 17.83 16.09 19.02 10.02 23.84 6.89 M 26.16 10.14 C 22.66 12.51 21.69 16.98 20.29 20.71 C 27.95 22.46 35.99 22.37 43.67 20.77 C 42.35 16.97 41.33 12.49 37.79 10.09 C 36.08 9.63 34.83 11.04 33.62 11.97 C 32.54 11.97 31.45 11.97 30.37 11.97 C 29.16 11.07 27.86 9.54 26.16 10.14 M 14.83 26.80 C 25.85 30.96 38.15 30.92 49.18 26.82 C 47.83 26.03 46.48 25.24 45.14 24.43 C 36.54 26.50 27.46 26.50 18.87 24.43 C 17.53 25.23 16.18 26.02 14.83 26.80 M 20.00 32.54 C 20.00 33.22 20.00 34.57 19.99 35.25 C 18.65 34.58 17.31 33.91 15.97 33.25 C 16.42 35.30 15.03 38.42 17.15 39.77 C 17.84 39.86 19.21 40.05 19.90 40.14 C 19.55 45.15 22.75 49.64 26.95 52.05 C 29.00 53.22 31.46 54.59 33.86 53.58 C 39.48 51.65 44.52 46.43 44.10 40.14 C 44.81 40.04 46.23 39.85 46.95 39.75 C 48.89 38.27 47.61 35.32 48.03 33.25 C 46.69 33.91 45.35 34.58 44.01 35.25 C 44.01 34.57 44.00 33.22 44.00 32.54 C 36.12 34.42 27.87 34.42 20.00 32.54 Z" />
<path fill="#000000" opacity="1.00" d=" M 21.74 33.97 C 24.57 35.28 27.37 36.66 30.14 38.09 C 28.52 39.27 26.57 40.58 24.48 39.75 C 22.03 38.98 22.02 36.04 21.74 33.97 Z" />
<path fill="#000000" opacity="1.00" d=" M 33.76 38.19 C 36.50 36.74 39.27 35.34 42.02 33.92 C 41.88 35.96 41.92 38.61 39.74 39.62 C 37.59 40.68 35.51 39.36 33.76 38.19 Z" />
<path fill="#000000" opacity="1.00" d=" M 26.15 46.82 C 25.45 45.27 26.99 44.44 27.99 43.65 C 28.11 44.07 28.33 44.90 28.45 45.31 C 30.81 45.25 33.19 45.25 35.56 45.31 C 35.67 44.89 35.91 44.05 36.02 43.63 C 36.89 44.41 38.66 45.34 37.83 46.78 C 35.94 51.20 28.10 51.19 26.15 46.82 Z" />
</g>
</svg>
