<?xml version="1.0" encoding="UTF-8" ?>
<!DOCTYPE svg PUBLIC "-//W3C//DTD SVG 1.1//EN" "http://www.w3.org/Graphics/SVG/1.1/DTD/svg11.dtd">
<svg width="64pt" height="64pt" viewBox="0 0 64 64" version="1.1" xmlns="http://www.w3.org/2000/svg">
<g id="#ffffffff">
<path fill="#ffffff" opacity="1.00" d=" M 0.00 0.00 L 64.00 0.00 L 64.00 64.00 L 0.00 64.00 L 0.00 0.00 M 24.43 8.50 C 19.57 10.19 18.46 17.39 22.63 20.43 C 26.51 23.89 33.36 21.16 33.91 16.03 C 34.90 10.97 29.15 6.37 24.43 8.50 M 44.00 10.00 C 44.00 11.33 44.00 12.67 44.00 14.00 C 48.00 14.00 52.00 14.00 56.00 14.00 C 56.00 12.67 56.00 11.33 56.00 10.00 C 52.00 10.00 48.00 10.00 44.00 10.00 M 38.74 13.51 C 37.77 15.89 36.78 18.26 35.80 20.64 C 34.20 21.59 32.63 22.61 30.92 23.34 C 28.32 23.68 25.69 23.32 23.08 23.48 C 17.19 24.33 12.47 28.19 8.44 32.33 C 9.34 33.30 10.24 34.28 11.14 35.25 C 14.02 32.70 16.57 29.56 20.42 28.45 C 19.37 33.46 18.21 38.44 17.13 43.43 C 14.54 44.32 11.96 45.24 9.37 46.14 C 9.68 47.07 10.31 48.94 10.63 49.87 C 13.85 48.38 18.02 48.27 20.51 45.55 C 22.40 39.67 23.21 33.48 24.68 27.47 C 25.87 27.47 27.05 27.47 28.24 27.47 C 26.88 33.67 23.90 39.84 25.76 46.29 C 23.96 49.53 22.18 52.77 20.38 56.00 C 21.90 56.00 23.42 56.00 24.94 56.00 C 26.49 52.99 28.50 50.20 29.65 47.00 C 29.76 44.04 28.65 41.05 29.58 38.14 C 30.53 34.51 31.50 30.88 32.39 27.23 C 34.58 25.87 37.08 24.86 38.91 23.01 C 40.43 20.50 41.29 17.67 42.43 14.98 C 41.20 14.49 39.97 14.00 38.74 13.51 Z" />
<path fill="#ffffff" opacity="1.00" d=" M 25.34 12.49 C 27.23 11.19 30.05 12.67 30.00 14.98 C 30.09 17.28 27.26 18.81 25.38 17.51 C 23.59 16.47 23.59 13.57 25.34 12.49 Z" />
</g>
<g id="#000000ff">
<path fill="#000000" opacity="1.00" d=" M 24.43 8.50 C 29.15 6.37 34.90 10.97 33.91 16.03 C 33.36 21.16 26.51 23.89 22.63 20.43 C 18.46 17.39 19.57 10.19 24.43 8.50 M 25.34 12.49 C 23.59 13.57 23.59 16.47 25.38 17.51 C 27.26 18.81 30.09 17.28 30.00 14.98 C 30.05 12.67 27.23 11.19 25.34 12.49 Z" />
<path fill="#000000" opacity="1.00" d=" M 44.00 10.00 C 48.00 10.00 52.00 10.00 56.00 10.00 C 56.00 11.33 56.00 12.67 56.00 14.00 C 52.00 14.00 48.00 14.00 44.00 14.00 C 44.00 12.67 44.00 11.33 44.00 10.00 Z" />
<path fill="#000000" opacity="1.00" d=" M 38.74 13.51 C 39.97 14.00 41.20 14.49 42.43 14.98 C 41.29 17.67 40.43 20.50 38.91 23.01 C 37.08 24.86 34.58 25.87 32.39 27.23 C 31.50 30.88 30.53 34.51 29.58 38.14 C 28.65 41.05 29.76 44.04 29.65 47.00 C 28.50 50.20 26.49 52.99 24.94 56.00 C 23.42 56.00 21.90 56.00 20.38 56.00 C 22.18 52.77 23.96 49.53 25.76 46.29 C 23.90 39.84 26.88 33.67 28.24 27.47 C 27.05 27.47 25.87 27.47 24.68 27.47 C 23.21 33.48 22.40 39.67 20.51 45.55 C 18.02 48.27 13.85 48.38 10.63 49.87 C 10.31 48.94 9.68 47.07 9.37 46.14 C 11.96 45.24 14.54 44.32 17.13 43.43 C 18.21 38.44 19.37 33.46 20.42 28.45 C 16.57 29.56 14.02 32.70 11.14 35.25 C 10.24 34.28 9.34 33.30 8.44 32.33 C 12.47 28.19 17.19 24.33 23.08 23.48 C 25.69 23.32 28.32 23.68 30.92 23.34 C 32.63 22.61 34.20 21.59 35.80 20.64 C 36.78 18.26 37.77 15.89 38.74 13.51 Z" />
</g>
</svg>
