<?xml version="1.0" encoding="UTF-8" ?>
<!DOCTYPE svg PUBLIC "-//W3C//DTD SVG 1.1//EN" "http://www.w3.org/Graphics/SVG/1.1/DTD/svg11.dtd">
<svg width="64pt" height="64pt" viewBox="0 0 64 64" version="1.1" xmlns="http://www.w3.org/2000/svg">
<g id="#ffffffff">
<path fill="#ffffff" opacity="1.00" d=" M 0.00 0.00 L 64.00 0.00 L 64.00 64.00 L 0.00 64.00 L 0.00 0.00 M 7.99 8.00 C 7.74 10.93 8.89 14.39 6.87 16.87 C 5.30 19.30 2.91 21.25 1.96 24.02 C 1.94 27.41 4.93 29.68 8.00 30.26 C 8.00 38.84 8.00 47.42 8.00 56.00 C 9.33 56.00 10.67 56.00 12.00 56.00 C 11.97 46.90 12.06 37.80 11.96 28.70 C 14.47 30.24 17.44 30.22 20.00 28.78 C 22.54 30.21 25.46 30.21 28.00 28.78 C 30.54 30.22 33.46 30.20 36.00 28.79 C 38.54 30.21 41.46 30.20 44.00 28.79 C 46.56 30.21 49.53 30.26 52.04 28.69 C 51.95 37.80 52.03 46.90 52.00 56.00 C 53.33 56.00 54.67 56.00 56.00 56.00 C 56.00 47.42 56.00 38.84 56.00 30.26 C 58.30 29.65 60.83 28.53 61.61 26.06 C 63.10 22.55 59.18 20.16 57.59 17.49 C 55.09 14.95 56.19 11.18 56.02 8.00 C 40.01 8.00 24.00 8.00 7.99 8.00 M 24.27 34.38 C 20.78 36.26 22.31 40.82 22.00 44.00 C 20.00 44.00 18.00 44.00 16.00 44.00 C 16.00 45.33 16.00 46.66 16.00 47.99 C 16.50 47.99 17.50 48.01 18.00 48.01 C 18.00 50.67 18.00 53.34 18.00 56.00 C 27.33 56.00 36.67 56.00 46.00 56.00 C 46.00 53.34 46.00 50.67 46.00 48.01 C 46.50 48.01 47.50 47.99 48.00 47.99 C 48.00 46.66 48.00 45.33 48.00 44.00 C 46.00 44.00 44.00 44.00 42.00 44.00 C 42.00 41.64 42.15 39.26 41.81 36.92 C 41.28 34.86 39.06 33.76 37.04 34.00 C 32.79 34.13 28.45 33.57 24.27 34.38 Z" />
<path fill="#ffffff" opacity="1.00" d=" M 12.00 12.00 C 25.33 12.00 38.67 12.00 52.00 12.00 C 52.00 12.50 52.00 13.50 52.00 14.00 C 38.67 14.00 25.33 14.00 12.00 14.00 C 12.00 13.50 12.00 12.50 12.00 12.00 Z" />
<path fill="#ffffff" opacity="1.00" d=" M 11.01 18.00 C 25.00 18.00 38.99 18.00 52.99 18.00 C 54.54 20.33 56.81 22.32 57.71 25.00 C 56.55 26.99 54.31 25.52 53.59 24.02 C 52.53 24.01 51.46 24.01 50.40 24.02 C 49.45 26.40 46.54 26.41 45.59 24.02 C 44.53 24.01 43.47 24.01 42.40 24.02 C 41.45 26.41 38.54 26.41 37.59 24.01 C 36.54 24.02 35.49 24.02 34.44 24.03 C 33.60 25.19 32.48 25.98 31.05 26.17 C 30.74 25.62 30.11 24.52 29.80 23.96 C 28.67 23.99 27.54 24.01 26.40 24.04 C 25.42 26.42 22.55 26.42 21.59 24.02 C 20.54 24.02 19.49 24.02 18.44 24.03 C 17.60 25.19 16.48 26.00 15.03 26.16 C 14.72 25.61 14.11 24.52 13.81 23.97 C 12.67 23.99 11.53 24.01 10.39 24.03 C 9.72 25.80 6.71 27.06 6.26 24.47 C 7.71 22.22 9.42 20.16 11.01 18.00 Z" />
<path fill="#ffffff" opacity="1.00" d=" M 26.00 38.00 C 30.00 38.00 34.00 38.00 38.00 38.00 C 38.00 40.00 38.00 42.00 38.00 44.00 C 34.00 44.00 30.00 44.00 26.00 44.00 C 26.00 42.00 26.00 40.00 26.00 38.00 Z" />
<path fill="#ffffff" opacity="1.00" d=" M 22.00 48.00 C 28.67 48.00 35.33 48.00 42.00 48.00 C 42.00 49.33 42.00 50.67 42.00 52.00 C 35.33 52.00 28.67 52.00 22.00 52.00 C 22.00 50.67 22.00 49.33 22.00 48.00 Z" />
</g>
<g id="#000000ff">
<path fill="#000000" opacity="1.00" d=" M 7.99 8.00 C 24.00 8.00 40.01 8.00 56.02 8.00 C 56.19 11.18 55.09 14.95 57.59 17.49 C 59.18 20.16 63.10 22.55 61.61 26.06 C 60.83 28.53 58.30 29.65 56.00 30.26 C 56.00 38.84 56.00 47.42 56.00 56.00 C 54.67 56.00 53.33 56.00 52.00 56.00 C 52.03 46.90 51.95 37.80 52.04 28.69 C 49.53 30.26 46.56 30.21 44.00 28.79 C 41.46 30.20 38.54 30.21 36.00 28.79 C 33.46 30.20 30.54 30.22 28.00 28.78 C 25.46 30.21 22.54 30.21 20.00 28.78 C 17.44 30.22 14.47 30.24 11.96 28.70 C 12.06 37.80 11.97 46.90 12.00 56.00 C 10.67 56.00 9.33 56.00 8.00 56.00 C 8.00 47.42 8.00 38.84 8.00 30.26 C 4.93 29.68 1.94 27.41 1.96 24.02 C 2.91 21.25 5.30 19.30 6.87 16.87 C 8.89 14.39 7.74 10.93 7.99 8.00 M 12.00 12.00 C 12.00 12.50 12.00 13.50 12.00 14.00 C 25.33 14.00 38.67 14.00 52.00 14.00 C 52.00 13.50 52.00 12.50 52.00 12.00 C 38.67 12.00 25.33 12.00 12.00 12.00 M 11.01 18.00 C 9.42 20.16 7.71 22.22 6.26 24.47 C 6.71 27.06 9.72 25.80 10.39 24.03 C 11.53 24.01 12.67 23.99 13.81 23.97 C 14.11 24.52 14.72 25.61 15.03 26.16 C 16.48 26.00 17.60 25.19 18.44 24.03 C 19.49 24.02 20.54 24.02 21.59 24.02 C 22.55 26.42 25.42 26.42 26.40 24.04 C 27.54 24.01 28.67 23.99 29.80 23.96 C 30.11 24.52 30.74 25.62 31.05 26.17 C 32.48 25.98 33.60 25.19 34.44 24.03 C 35.49 24.02 36.54 24.02 37.59 24.01 C 38.54 26.41 41.45 26.41 42.40 24.02 C 43.47 24.01 44.53 24.01 45.59 24.02 C 46.54 26.41 49.45 26.40 50.40 24.02 C 51.46 24.01 52.53 24.01 53.59 24.02 C 54.31 25.52 56.55 26.99 57.71 25.00 C 56.81 22.32 54.54 20.33 52.99 18.00 C 38.99 18.00 25.00 18.00 11.01 18.00 Z" />
<path fill="#000000" opacity="1.00" d=" M 24.27 34.38 C 28.45 33.57 32.79 34.13 37.04 34.00 C 39.06 33.76 41.28 34.86 41.81 36.92 C 42.15 39.26 42.00 41.64 42.00 44.00 C 44.00 44.00 46.00 44.00 48.00 44.00 C 48.00 45.33 48.00 46.66 48.00 47.99 C 47.50 47.99 46.50 48.01 46.00 48.01 C 46.00 50.67 46.00 53.34 46.00 56.00 C 36.67 56.00 27.33 56.00 18.00 56.00 C 18.00 53.34 18.00 50.67 18.00 48.01 C 17.50 48.01 16.50 47.99 16.00 47.99 C 16.00 46.66 16.00 45.33 16.00 44.00 C 18.00 44.00 20.00 44.00 22.00 44.00 C 22.31 40.82 20.78 36.26 24.27 34.38 M 26.00 38.00 C 26.00 40.00 26.00 42.00 26.00 44.00 C 30.00 44.00 34.00 44.00 38.00 44.00 C 38.00 42.00 38.00 40.00 38.00 38.00 C 34.00 38.00 30.00 38.00 26.00 38.00 M 22.00 48.00 C 22.00 49.33 22.00 50.67 22.00 52.00 C 28.67 52.00 35.33 52.00 42.00 52.00 C 42.00 50.67 42.00 49.33 42.00 48.00 C 35.33 48.00 28.67 48.00 22.00 48.00 Z" />
</g>
</svg>
