<?xml version="1.0" encoding="UTF-8" ?>
<!DOCTYPE svg PUBLIC "-//W3C//DTD SVG 1.1//EN" "http://www.w3.org/Graphics/SVG/1.1/DTD/svg11.dtd">
<svg width="64pt" height="64pt" viewBox="0 0 64 64" version="1.1" xmlns="http://www.w3.org/2000/svg">
<g id="#ffffffff">
<path fill="#ffffff" opacity="1.00" d=" M 0.00 0.00 L 64.00 0.00 L 64.00 64.00 L 0.00 64.00 L 0.00 0.00 M 6.87 18.57 C 6.03 26.06 4.81 33.52 4.04 41.02 C 3.51 47.00 9.09 52.54 15.07 51.97 C 19.54 51.72 23.16 48.18 24.39 44.01 C 29.46 43.99 34.53 43.99 39.60 44.01 C 40.91 48.55 45.16 52.29 50.04 51.99 C 55.63 51.88 60.44 46.58 59.95 41.00 C 59.20 33.51 57.95 26.08 57.15 18.60 C 41.08 12.57 22.95 12.60 6.87 18.57 Z" />
<path fill="#ffffff" opacity="1.00" d=" M 10.50 21.53 C 24.36 16.90 39.63 16.91 53.49 21.53 C 54.27 28.35 55.40 35.14 55.95 41.98 C 55.95 46.44 50.52 49.45 46.68 47.28 C 43.85 46.01 43.14 42.79 42.89 40.00 C 35.63 40.00 28.37 40.00 21.11 40.00 C 20.91 43.02 19.87 46.52 16.67 47.57 C 12.51 49.35 7.35 45.54 8.08 41.01 C 8.78 34.51 9.73 28.03 10.50 21.53 M 18.00 24.00 C 18.00 25.33 18.00 26.67 18.00 28.00 C 16.67 28.00 15.33 28.00 14.00 28.00 C 14.00 29.33 14.00 30.67 14.00 32.00 C 15.33 32.00 16.67 32.00 18.00 32.00 C 18.00 33.33 18.00 34.67 18.00 36.00 C 19.33 36.00 20.67 36.00 22.00 36.00 C 22.00 34.67 22.00 33.33 22.00 32.00 C 23.33 32.00 24.67 32.00 26.00 32.00 C 26.00 30.67 26.00 29.33 26.00 28.00 C 24.67 28.00 23.33 28.00 22.00 28.00 C 22.00 26.67 22.00 25.33 22.00 24.00 C 20.67 24.00 19.33 24.00 18.00 24.00 M 43.21 24.17 C 40.81 25.03 42.42 28.91 44.72 27.86 C 47.23 27.03 45.58 23.01 43.21 24.17 M 39.22 28.10 C 36.83 29.05 38.39 32.93 40.77 31.83 C 43.18 30.92 41.58 27.12 39.22 28.10 M 46.57 28.64 C 44.64 30.29 47.71 33.37 49.41 31.39 C 51.36 29.70 48.25 26.59 46.57 28.64 M 42.56 32.59 C 40.65 34.39 43.81 37.37 45.42 35.36 C 47.34 33.63 44.26 30.67 42.56 32.59 Z" />
</g>
<g id="#000000ff">
<path fill="#000000" opacity="1.00" d=" M 6.87 18.57 C 22.95 12.60 41.08 12.57 57.15 18.60 C 57.95 26.08 59.20 33.51 59.95 41.00 C 60.44 46.58 55.63 51.88 50.04 51.99 C 45.16 52.29 40.91 48.55 39.60 44.01 C 34.53 43.99 29.46 43.99 24.39 44.01 C 23.16 48.18 19.54 51.72 15.07 51.97 C 9.09 52.54 3.51 47.00 4.04 41.02 C 4.81 33.52 6.03 26.06 6.87 18.57 M 10.50 21.53 C 9.73 28.03 8.78 34.51 8.08 41.01 C 7.35 45.54 12.51 49.35 16.67 47.57 C 19.87 46.52 20.91 43.02 21.11 40.00 C 28.37 40.00 35.63 40.00 42.89 40.00 C 43.14 42.79 43.85 46.01 46.68 47.28 C 50.52 49.45 55.95 46.44 55.95 41.98 C 55.40 35.14 54.27 28.35 53.49 21.53 C 39.63 16.91 24.36 16.90 10.50 21.53 Z" />
<path fill="#000000" opacity="1.00" d=" M 18.00 24.00 C 19.33 24.00 20.67 24.00 22.00 24.00 C 22.00 25.33 22.00 26.67 22.00 28.00 C 23.33 28.00 24.67 28.00 26.00 28.00 C 26.00 29.33 26.00 30.67 26.00 32.00 C 24.67 32.00 23.33 32.00 22.00 32.00 C 22.00 33.33 22.00 34.67 22.00 36.00 C 20.67 36.00 19.33 36.00 18.00 36.00 C 18.00 34.67 18.00 33.33 18.00 32.00 C 16.67 32.00 15.33 32.00 14.00 32.00 C 14.00 30.67 14.00 29.33 14.00 28.00 C 15.33 28.00 16.67 28.00 18.00 28.00 C 18.00 26.67 18.00 25.33 18.00 24.00 Z" />
<path fill="#000000" opacity="1.00" d=" M 43.21 24.17 C 45.58 23.01 47.23 27.03 44.72 27.86 C 42.42 28.91 40.81 25.03 43.21 24.17 Z" />
<path fill="#000000" opacity="1.00" d=" M 39.22 28.10 C 41.58 27.12 43.18 30.92 40.77 31.83 C 38.39 32.93 36.83 29.05 39.22 28.10 Z" />
<path fill="#000000" opacity="1.00" d=" M 46.57 28.64 C 48.25 26.59 51.36 29.70 49.41 31.39 C 47.71 33.37 44.64 30.29 46.57 28.64 Z" />
<path fill="#000000" opacity="1.00" d=" M 42.56 32.59 C 44.26 30.67 47.34 33.63 45.42 35.36 C 43.81 37.37 40.65 34.39 42.56 32.59 Z" />
</g>
</svg>
