<?xml version="1.0" encoding="UTF-8" ?>
<!DOCTYPE svg PUBLIC "-//W3C//DTD SVG 1.1//EN" "http://www.w3.org/Graphics/SVG/1.1/DTD/svg11.dtd">
<svg width="64pt" height="64pt" viewBox="0 0 64 64" version="1.1" xmlns="http://www.w3.org/2000/svg">
<g id="#ffffffff">
<path fill="#ffffff" opacity="1.00" d=" M 0.00 0.00 L 64.00 0.00 L 64.00 64.00 L 0.00 64.00 L 0.00 0.00 M 6.77 15.68 C 8.25 16.44 9.72 17.20 11.18 17.99 C 9.06 21.30 9.93 26.57 14.09 27.69 C 18.41 29.27 22.52 25.29 22.14 20.97 C 23.96 21.17 25.78 21.36 27.60 21.54 C 26.33 23.63 25.33 26.23 26.55 28.60 C 28.26 32.79 34.86 33.13 37.10 29.24 C 38.73 26.80 37.85 23.81 36.40 21.54 C 38.22 21.36 40.04 21.17 41.86 20.97 C 42.15 22.83 42.22 24.98 43.75 26.32 C 46.49 29.11 51.91 28.28 53.44 24.59 C 54.56 22.43 53.73 20.05 52.81 17.99 C 54.28 17.20 55.75 16.44 57.23 15.68 C 56.44 14.62 55.65 13.55 54.88 12.47 C 48.57 16.11 41.29 17.69 34.07 17.92 C 25.49 18.20 16.64 16.82 9.12 12.47 C 8.34 13.55 7.56 14.62 6.77 15.68 M 6.77 37.68 C 8.25 38.44 9.72 39.20 11.18 39.99 C 10.27 42.06 9.43 44.45 10.56 46.62 C 12.12 50.32 17.57 51.10 20.30 48.26 C 21.72 46.96 21.80 44.92 22.23 43.17 C 23.94 43.38 25.64 43.59 27.35 43.78 C 26.13 46.04 25.34 48.87 26.87 51.20 C 29.08 55.15 35.75 54.80 37.45 50.57 C 38.60 48.32 37.69 45.86 36.66 43.78 C 38.36 43.59 40.06 43.38 41.77 43.16 C 42.19 44.92 42.27 46.95 43.69 48.26 C 46.41 51.12 51.91 50.31 53.45 46.58 C 54.56 44.42 53.72 42.05 52.81 39.99 C 54.28 39.21 55.75 38.44 57.23 37.68 C 56.44 36.62 55.65 35.55 54.88 34.47 C 48.56 38.12 41.25 39.70 34.01 39.93 C 25.46 40.20 16.62 38.81 9.12 34.47 C 8.34 35.55 7.56 36.62 6.77 37.68 Z" />
<path fill="#ffffff" opacity="1.00" d=" M 15.26 20.14 C 18.19 18.73 19.15 24.31 15.98 23.96 C 13.79 24.37 13.22 20.55 15.26 20.14 Z" />
<path fill="#ffffff" opacity="1.00" d=" M 47.22 20.14 C 49.66 18.90 51.25 23.17 48.71 23.88 C 46.31 25.01 44.81 20.90 47.22 20.14 Z" />
<path fill="#ffffff" opacity="1.00" d=" M 31.25 24.12 C 33.69 22.94 35.21 27.17 32.73 27.86 C 30.33 29.06 28.77 24.87 31.25 24.12 Z" />
<path fill="#ffffff" opacity="1.00" d=" M 15.25 42.13 C 17.71 40.93 19.23 45.22 16.70 45.87 C 14.30 47.03 12.80 42.85 15.25 42.13 Z" />
<path fill="#ffffff" opacity="1.00" d=" M 47.27 42.09 C 50.24 40.81 51.11 46.32 47.96 45.95 C 45.80 46.35 45.22 42.60 47.27 42.09 Z" />
<path fill="#ffffff" opacity="1.00" d=" M 31.17 46.10 C 34.12 44.76 35.19 50.17 32.04 49.96 C 29.83 50.39 29.23 46.76 31.17 46.10 Z" />
</g>
<g id="#000000ff">
<path fill="#000000" opacity="1.00" d=" M 6.77 15.68 C 7.56 14.62 8.34 13.55 9.12 12.47 C 16.64 16.82 25.49 18.20 34.07 17.92 C 41.29 17.69 48.57 16.11 54.88 12.47 C 55.65 13.55 56.44 14.62 57.23 15.68 C 55.75 16.44 54.28 17.20 52.81 17.99 C 53.73 20.05 54.56 22.43 53.44 24.59 C 51.91 28.28 46.49 29.11 43.75 26.32 C 42.22 24.98 42.15 22.83 41.86 20.97 C 40.04 21.17 38.22 21.36 36.40 21.54 C 37.85 23.81 38.73 26.80 37.10 29.24 C 34.86 33.13 28.26 32.79 26.55 28.60 C 25.33 26.23 26.33 23.63 27.60 21.54 C 25.78 21.36 23.96 21.17 22.14 20.97 C 22.52 25.29 18.41 29.27 14.09 27.69 C 9.93 26.57 9.06 21.30 11.18 17.99 C 9.72 17.20 8.25 16.44 6.77 15.68 M 15.26 20.14 C 13.22 20.55 13.79 24.37 15.98 23.96 C 19.15 24.31 18.19 18.73 15.26 20.14 M 47.22 20.14 C 44.81 20.90 46.31 25.01 48.71 23.88 C 51.25 23.17 49.66 18.90 47.22 20.14 M 31.25 24.12 C 28.77 24.87 30.33 29.06 32.73 27.86 C 35.21 27.17 33.69 22.94 31.25 24.12 Z" />
<path fill="#000000" opacity="1.00" d=" M 6.77 37.68 C 7.56 36.62 8.34 35.55 9.12 34.47 C 16.62 38.81 25.46 40.20 34.01 39.93 C 41.25 39.70 48.56 38.12 54.88 34.47 C 55.65 35.55 56.44 36.62 57.23 37.68 C 55.75 38.44 54.28 39.21 52.81 39.99 C 53.72 42.05 54.56 44.42 53.45 46.58 C 51.91 50.31 46.41 51.12 43.69 48.26 C 42.27 46.95 42.19 44.92 41.77 43.16 C 40.06 43.38 38.36 43.59 36.66 43.78 C 37.69 45.86 38.60 48.32 37.45 50.57 C 35.75 54.80 29.08 55.15 26.87 51.20 C 25.34 48.87 26.13 46.04 27.35 43.78 C 25.64 43.59 23.94 43.38 22.23 43.17 C 21.80 44.92 21.72 46.96 20.30 48.26 C 17.57 51.10 12.12 50.32 10.56 46.62 C 9.43 44.45 10.27 42.06 11.18 39.99 C 9.72 39.20 8.25 38.44 6.77 37.68 M 15.25 42.13 C 12.80 42.85 14.30 47.03 16.70 45.87 C 19.23 45.22 17.71 40.93 15.25 42.13 M 47.27 42.09 C 45.22 42.60 45.80 46.35 47.96 45.95 C 51.11 46.32 50.24 40.81 47.27 42.09 M 31.17 46.10 C 29.23 46.76 29.83 50.39 32.04 49.96 C 35.19 50.17 34.12 44.76 31.17 46.10 Z" />
</g>
</svg>
