<?xml version="1.0" encoding="UTF-8" ?>
<!DOCTYPE svg PUBLIC "-//W3C//DTD SVG 1.1//EN" "http://www.w3.org/Graphics/SVG/1.1/DTD/svg11.dtd">
<svg width="64pt" height="64pt" viewBox="0 0 64 64" version="1.1" xmlns="http://www.w3.org/2000/svg">
<g id="#ffffffff">
<path fill="#ffffff" opacity="1.00" d=" M 0.00 0.00 L 64.00 0.00 L 64.00 64.00 L 0.00 64.00 L 0.00 0.00 M 44.58 10.55 C 45.53 11.51 46.48 12.47 47.43 13.44 C 48.06 12.80 49.32 11.52 49.95 10.89 C 49.01 9.94 48.07 9.00 47.13 8.07 C 46.28 8.89 45.43 9.72 44.58 10.55 M 38.56 13.43 C 43.22 18.10 47.89 22.76 52.56 27.43 C 53.52 26.47 54.48 25.52 55.44 24.56 C 50.79 19.88 46.10 15.25 41.47 10.56 C 40.50 11.52 39.52 12.47 38.56 13.43 M 48.57 14.53 C 49.52 15.50 50.48 16.47 51.43 17.44 C 52.06 16.80 53.32 15.52 53.95 14.88 C 53.01 13.94 52.07 13.00 51.13 12.07 C 50.28 12.89 49.42 13.71 48.57 14.53 M 34.56 17.44 C 39.23 22.10 43.89 26.77 48.56 31.43 C 49.52 30.48 50.48 29.53 51.44 28.58 C 46.81 23.87 42.09 19.26 37.46 14.56 C 36.50 15.52 35.53 16.48 34.56 17.44 M 52.57 18.54 C 53.52 19.50 54.47 20.47 55.43 21.44 C 56.06 20.80 57.32 19.52 57.95 18.89 C 57.01 17.94 56.07 17.00 55.13 16.07 C 54.28 16.89 53.42 17.71 52.57 18.54 M 25.00 30.12 C 24.24 29.42 23.49 28.71 22.74 28.01 C 21.76 28.99 20.78 29.96 19.81 30.94 C 17.69 28.81 15.57 26.69 13.46 24.55 C 12.50 25.52 11.53 26.48 10.56 27.44 C 12.69 29.56 14.81 31.69 16.94 33.81 C 15.59 35.17 14.23 36.52 12.88 37.88 C 13.41 38.41 14.48 39.46 15.01 39.99 C 13.83 41.04 12.76 42.22 11.48 43.17 C 10.66 41.67 9.68 40.08 10.18 38.30 C 9.25 37.41 8.31 36.52 7.36 35.65 C 4.80 38.92 6.21 43.09 8.80 45.82 C 5.78 50.77 11.24 54.49 14.57 57.25 C 19.61 59.58 22.64 53.41 25.94 50.75 C 26.47 51.24 27.54 52.24 28.07 52.74 C 31.36 49.45 34.65 46.16 37.94 42.87 C 37.44 42.38 36.46 41.40 35.96 40.91 C 39.12 37.76 42.27 34.59 45.45 31.46 C 44.48 30.50 43.52 29.53 42.56 28.56 C 39.44 31.57 36.52 34.81 33.30 37.73 C 32.08 38.34 31.86 36.43 32.84 36.02 C 35.70 33.15 38.61 30.32 41.45 27.41 C 40.49 26.46 39.53 25.51 38.57 24.56 C 34.93 27.54 32.34 32.11 28.02 34.05 C 29.79 29.61 34.52 27.10 37.45 23.40 C 36.49 22.45 35.52 21.51 34.55 20.57 C 31.37 23.76 28.19 26.94 25.00 30.12 Z" />
<path fill="#ffffff" opacity="1.00" d=" M 18.56 37.81 C 19.96 36.42 21.35 35.02 22.75 33.63 C 25.92 36.73 29.09 39.83 32.25 42.94 C 30.85 44.33 29.46 45.73 28.06 47.12 C 24.89 44.02 21.73 40.92 18.56 37.81 Z" />
<path fill="#ffffff" opacity="1.00" d=" M 11.65 49.00 C 13.66 46.87 15.73 44.80 17.82 42.76 C 19.57 44.48 21.31 46.21 23.06 47.93 C 21.03 49.99 18.97 52.02 16.91 54.05 C 15.07 52.47 13.32 50.77 11.65 49.00 Z" />
</g>
<g id="#000000ff">
<path fill="#000000" opacity="1.00" d=" M 44.58 10.55 C 45.43 9.72 46.28 8.89 47.13 8.07 C 48.07 9.00 49.01 9.94 49.95 10.89 C 49.32 11.52 48.06 12.80 47.43 13.44 C 46.48 12.47 45.53 11.51 44.58 10.55 Z" />
<path fill="#000000" opacity="1.00" d=" M 38.56 13.43 C 39.52 12.47 40.50 11.52 41.47 10.56 C 46.10 15.25 50.79 19.88 55.44 24.56 C 54.48 25.52 53.52 26.47 52.56 27.43 C 47.89 22.76 43.22 18.10 38.56 13.43 Z" />
<path fill="#000000" opacity="1.00" d=" M 48.57 14.53 C 49.42 13.71 50.28 12.89 51.13 12.07 C 52.07 13.00 53.01 13.94 53.95 14.88 C 53.32 15.52 52.06 16.80 51.43 17.44 C 50.48 16.47 49.52 15.50 48.57 14.53 Z" />
<path fill="#000000" opacity="1.00" d=" M 34.56 17.44 C 35.53 16.48 36.50 15.52 37.46 14.56 C 42.09 19.26 46.81 23.87 51.44 28.58 C 50.48 29.53 49.52 30.48 48.56 31.43 C 43.89 26.77 39.23 22.10 34.56 17.44 Z" />
<path fill="#000000" opacity="1.00" d=" M 52.57 18.54 C 53.42 17.71 54.28 16.89 55.13 16.07 C 56.07 17.00 57.01 17.94 57.95 18.89 C 57.32 19.52 56.06 20.80 55.43 21.44 C 54.47 20.47 53.52 19.50 52.57 18.54 Z" />
<path fill="#000000" opacity="1.00" d=" M 25.00 30.12 C 28.19 26.94 31.37 23.76 34.55 20.57 C 35.52 21.51 36.49 22.45 37.45 23.40 C 34.52 27.10 29.79 29.61 28.02 34.05 C 32.34 32.11 34.93 27.54 38.57 24.56 C 39.53 25.51 40.49 26.46 41.45 27.41 C 38.61 30.32 35.70 33.15 32.84 36.02 C 31.86 36.43 32.08 38.34 33.30 37.73 C 36.52 34.81 39.44 31.57 42.56 28.56 C 43.52 29.53 44.48 30.50 45.45 31.46 C 42.27 34.59 39.12 37.76 35.96 40.91 C 36.46 41.40 37.44 42.38 37.94 42.87 C 34.65 46.16 31.36 49.45 28.07 52.74 C 27.54 52.24 26.47 51.24 25.94 50.75 C 22.64 53.41 19.61 59.58 14.57 57.25 C 11.24 54.49 5.78 50.77 8.80 45.82 C 6.21 43.09 4.80 38.92 7.36 35.65 C 8.31 36.52 9.25 37.41 10.18 38.30 C 9.68 40.08 10.66 41.67 11.48 43.17 C 12.76 42.22 13.83 41.04 15.01 39.99 C 14.48 39.46 13.41 38.41 12.88 37.88 C 14.23 36.52 15.59 35.17 16.94 33.81 C 14.81 31.69 12.69 29.56 10.56 27.44 C 11.53 26.48 12.50 25.52 13.46 24.55 C 15.57 26.69 17.69 28.81 19.81 30.94 C 20.78 29.96 21.76 28.99 22.74 28.01 C 23.49 28.71 24.24 29.42 25.00 30.12 M 18.56 37.81 C 21.73 40.92 24.89 44.02 28.06 47.12 C 29.46 45.73 30.85 44.33 32.25 42.94 C 29.09 39.83 25.92 36.73 22.75 33.63 C 21.35 35.02 19.96 36.42 18.56 37.81 M 11.65 49.00 C 13.32 50.77 15.07 52.47 16.91 54.05 C 18.97 52.02 21.03 49.99 23.06 47.93 C 21.31 46.21 19.57 44.48 17.82 42.76 C 15.73 44.80 13.66 46.87 11.65 49.00 Z" />
</g>
</svg>
