<?xml version="1.0" encoding="UTF-8" ?>
<!DOCTYPE svg PUBLIC "-//W3C//DTD SVG 1.1//EN" "http://www.w3.org/Graphics/SVG/1.1/DTD/svg11.dtd">
<svg width="64pt" height="64pt" viewBox="0 0 64 64" version="1.1" xmlns="http://www.w3.org/2000/svg">
<g id="#ffffffff">
<path fill="#ffffff" opacity="1.00" d=" M 0.00 0.00 L 64.00 0.00 L 64.00 64.00 L 0.00 64.00 L 0.00 0.00 M 30.00 6.00 C 30.00 7.45 30.00 8.91 30.00 10.36 C 27.57 10.74 25.17 11.27 22.83 12.00 C 22.14 10.82 21.46 9.65 20.78 8.47 C 19.62 9.14 18.46 9.81 17.30 10.48 C 18.05 11.75 18.79 13.01 19.53 14.28 C 17.90 15.69 16.34 17.17 14.84 18.71 C 13.59 17.93 12.35 17.15 11.11 16.37 C 10.41 17.50 9.70 18.62 8.99 19.74 C 10.19 20.50 11.38 21.27 12.58 22.03 C 11.49 24.58 10.77 27.26 10.32 29.99 C 8.88 30.00 7.44 30.00 6.00 30.00 C 6.00 31.33 6.00 32.66 6.00 33.99 C 7.45 34.00 8.91 34.01 10.36 34.01 C 10.74 36.44 11.27 38.83 12.00 41.17 C 10.82 41.86 9.64 42.54 8.46 43.23 C 9.13 44.38 9.79 45.54 10.46 46.69 C 11.74 45.95 13.02 45.22 14.30 44.48 C 15.70 46.10 17.18 47.67 18.72 49.17 C 17.94 50.40 17.15 51.63 16.37 52.87 C 17.49 53.58 18.62 54.30 19.74 55.01 C 20.50 53.82 21.27 52.62 22.04 51.42 C 24.59 52.50 27.27 53.22 30.00 53.67 C 30.00 55.11 30.00 56.56 30.00 58.00 C 31.33 58.00 32.66 58.00 33.99 58.00 C 34.00 56.55 34.01 55.09 34.01 53.64 C 36.43 53.25 38.83 52.73 41.17 52.00 C 41.86 53.18 42.54 54.36 43.23 55.54 C 44.38 54.87 45.54 54.21 46.69 53.54 C 45.95 52.26 45.22 50.98 44.48 49.70 C 46.10 48.30 47.66 46.82 49.16 45.29 C 50.40 46.06 51.64 46.84 52.89 47.63 C 53.59 46.50 54.30 45.38 55.01 44.26 C 53.81 43.49 52.61 42.73 51.42 41.97 C 52.50 39.41 53.22 36.73 53.67 34.00 C 55.11 34.00 56.56 34.00 58.00 34.00 C 58.00 32.67 58.00 31.34 58.00 30.00 C 56.55 30.00 55.09 29.99 53.64 29.99 C 53.25 27.57 52.73 25.17 52.00 22.83 C 53.17 22.14 54.36 21.46 55.54 20.77 C 54.87 19.62 54.21 18.46 53.55 17.31 C 52.26 18.05 50.98 18.78 49.70 19.52 C 48.30 17.89 46.82 16.33 45.29 14.83 C 46.06 13.60 46.84 12.37 47.62 11.14 C 46.51 10.41 45.40 9.69 44.28 8.96 C 43.51 10.17 42.74 11.37 41.96 12.58 C 39.42 11.48 36.74 10.77 34.01 10.32 C 34.00 8.88 34.00 7.44 34.00 6.00 C 32.66 6.00 31.33 6.00 30.00 6.00 Z" />
<path fill="#ffffff" opacity="1.00" d=" M 17.47 21.58 C 20.41 17.51 25.12 15.15 29.99 14.34 C 30.00 16.24 30.00 18.15 29.99 20.05 C 22.53 21.08 18.25 29.33 20.59 36.26 C 18.87 37.25 17.14 38.22 15.40 39.19 C 13.18 33.44 13.55 26.52 17.47 21.58 Z" />
<path fill="#ffffff" opacity="1.00" d=" M 34.01 14.34 C 40.33 15.26 46.24 19.30 48.67 25.31 C 50.71 29.96 50.18 35.31 48.12 39.86 C 46.47 38.82 44.81 37.78 43.16 36.74 C 46.04 29.73 41.39 21.44 34.01 20.07 C 34.00 18.16 34.00 16.25 34.01 14.34 Z" />
<path fill="#ffffff" opacity="1.00" d=" M 30.14 24.18 C 35.70 22.70 41.38 28.35 39.75 33.91 C 38.63 39.51 31.08 41.88 26.79 38.29 C 21.94 34.43 23.71 25.10 30.14 24.18 Z" />
<path fill="#ffffff" opacity="1.00" d=" M 17.69 42.55 C 19.28 41.62 20.86 40.70 22.45 39.79 C 27.18 45.15 36.08 45.30 40.96 40.07 C 42.60 41.11 44.24 42.15 45.87 43.20 C 42.19 47.45 36.74 50.42 30.99 49.95 C 25.66 49.74 20.95 46.61 17.69 42.55 Z" />
</g>
<g id="#000000ff">
<path fill="#000000" opacity="1.00" d=" M 30.00 6.00 C 31.33 6.00 32.66 6.00 34.00 6.00 C 34.00 7.44 34.00 8.88 34.01 10.32 C 36.74 10.77 39.42 11.48 41.96 12.58 C 42.74 11.37 43.51 10.17 44.28 8.96 C 45.40 9.69 46.51 10.41 47.62 11.14 C 46.84 12.37 46.06 13.60 45.29 14.83 C 46.82 16.33 48.30 17.89 49.70 19.52 C 50.98 18.78 52.26 18.05 53.55 17.31 C 54.21 18.46 54.87 19.62 55.54 20.77 C 54.36 21.46 53.17 22.14 52.00 22.83 C 52.73 25.17 53.25 27.57 53.64 29.99 C 55.09 29.99 56.55 30.00 58.00 30.00 C 58.00 31.34 58.00 32.67 58.00 34.00 C 56.56 34.00 55.11 34.00 53.67 34.00 C 53.22 36.73 52.50 39.41 51.42 41.97 C 52.61 42.73 53.81 43.49 55.01 44.26 C 54.30 45.38 53.59 46.50 52.89 47.63 C 51.64 46.84 50.40 46.06 49.16 45.29 C 47.66 46.82 46.10 48.30 44.48 49.70 C 45.22 50.98 45.95 52.26 46.69 53.54 C 45.54 54.21 44.38 54.87 43.23 55.54 C 42.54 54.36 41.86 53.18 41.17 52.00 C 38.83 52.73 36.43 53.25 34.01 53.64 C 34.01 55.09 34.00 56.55 33.99 58.00 C 32.66 58.00 31.33 58.00 30.00 58.00 C 30.00 56.56 30.00 55.11 30.00 53.67 C 27.27 53.22 24.59 52.50 22.04 51.42 C 21.27 52.62 20.50 53.82 19.74 55.01 C 18.62 54.30 17.49 53.58 16.37 52.87 C 17.15 51.63 17.94 50.40 18.72 49.17 C 17.18 47.67 15.70 46.10 14.30 44.48 C 13.02 45.22 11.74 45.95 10.46 46.69 C 9.79 45.54 9.13 44.38 8.46 43.23 C 9.64 42.54 10.82 41.86 12.00 41.17 C 11.27 38.83 10.74 36.44 10.36 34.01 C 8.91 34.01 7.45 34.00 6.00 33.99 C 6.00 32.66 6.00 31.33 6.00 30.00 C 7.44 30.00 8.88 30.00 10.32 29.99 C 10.77 27.26 11.49 24.58 12.58 22.03 C 11.38 21.27 10.19 20.50 8.99 19.74 C 9.70 18.62 10.41 17.50 11.11 16.37 C 12.35 17.15 13.59 17.93 14.84 18.71 C 16.34 17.17 17.90 15.69 19.53 14.28 C 18.79 13.01 18.05 11.75 17.30 10.48 C 18.46 9.81 19.62 9.14 20.78 8.47 C 21.46 9.65 22.14 10.82 22.83 12.00 C 25.17 11.27 27.57 10.74 30.00 10.36 C 30.00 8.91 30.00 7.45 30.00 6.00 M 17.47 21.58 C 13.55 26.52 13.18 33.44 15.40 39.19 C 17.14 38.22 18.87 37.25 20.59 36.26 C 18.25 29.33 22.53 21.08 29.99 20.05 C 30.00 18.15 30.00 16.24 29.99 14.34 C 25.12 15.15 20.41 17.51 17.47 21.58 M 34.01 14.34 C 34.00 16.25 34.00 18.16 34.01 20.07 C 41.39 21.44 46.04 29.73 43.16 36.74 C 44.81 37.78 46.47 38.82 48.12 39.86 C 50.18 35.31 50.71 29.96 48.67 25.31 C 46.24 19.30 40.33 15.26 34.01 14.34 M 30.14 24.18 C 23.71 25.10 21.94 34.43 26.79 38.29 C 31.08 41.88 38.63 39.51 39.75 33.91 C 41.38 28.35 35.70 22.70 30.14 24.18 M 17.69 42.55 C 20.95 46.61 25.66 49.74 30.99 49.95 C 36.74 50.42 42.19 47.45 45.87 43.20 C 44.24 42.15 42.60 41.11 40.96 40.07 C 36.08 45.30 27.18 45.15 22.45 39.79 C 20.86 40.70 19.28 41.62 17.69 42.55 Z" />
</g>
</svg>
