<?xml version="1.0" encoding="UTF-8" ?>
<!DOCTYPE svg PUBLIC "-//W3C//DTD SVG 1.1//EN" "http://www.w3.org/Graphics/SVG/1.1/DTD/svg11.dtd">
<svg width="64pt" height="64pt" viewBox="0 0 64 64" version="1.1" xmlns="http://www.w3.org/2000/svg">
<g id="#ffffffff">
<path fill="#ffffff" opacity="1.00" d=" M 0.00 0.00 L 64.00 0.00 L 64.00 64.00 L 0.00 64.00 L 0.00 0.00 M 26.47 8.65 C 19.10 10.36 12.73 15.78 9.86 22.77 C 7.01 29.49 7.49 37.52 11.13 43.84 C 14.77 50.30 21.54 54.88 28.91 55.78 C 35.47 56.68 42.34 54.65 47.40 50.38 C 53.07 45.69 56.35 38.26 55.95 30.90 C 55.67 23.54 51.71 16.46 45.65 12.29 C 40.15 8.42 32.99 7.09 26.47 8.65 Z" />
<path fill="#ffffff" opacity="1.00" d=" M 26.42 11.58 C 32.91 9.79 40.21 11.30 45.38 15.63 C 51.07 20.22 54.06 27.89 52.90 35.12 C 51.90 42.42 46.72 48.94 39.87 51.62 C 32.88 54.49 24.39 53.21 18.59 48.36 C 12.88 43.78 9.92 36.10 11.07 28.87 C 12.17 20.73 18.49 13.65 26.42 11.58 M 24.05 15.08 C 18.84 17.45 15.45 23.11 15.61 28.80 C 15.76 30.87 18.30 32.69 16.85 34.71 C 13.16 34.78 13.96 30.08 13.29 27.66 C 13.36 31.35 13.11 35.18 14.52 38.68 C 16.29 43.50 20.67 47.53 25.92 48.00 C 26.27 48.86 26.46 49.85 27.23 50.46 C 32.17 51.09 37.57 50.66 41.83 47.84 C 45.19 45.68 47.55 42.03 47.98 38.04 C 49.06 37.69 50.66 37.36 50.69 35.93 C 50.88 31.46 50.62 26.70 48.22 22.78 C 45.63 18.26 40.40 15.51 35.24 15.61 C 33.13 15.71 31.23 18.46 29.25 16.75 C 29.41 13.19 33.84 13.94 36.31 13.24 C 32.19 13.35 27.84 13.13 24.05 15.08 Z" />
<path fill="#ffffff" opacity="1.00" d=" M 27.50 20.23 C 28.85 19.55 30.95 20.34 30.68 22.08 C 30.64 25.65 27.01 27.35 25.47 30.18 C 29.00 29.89 29.43 25.75 32.41 24.57 C 31.85 26.69 30.93 28.69 30.05 30.69 C 31.72 29.76 33.36 28.78 34.96 27.74 C 34.74 24.45 36.51 18.87 40.80 20.30 C 43.41 23.37 39.02 26.31 37.13 28.38 C 38.94 28.83 40.77 29.25 42.52 29.91 C 40.01 30.91 36.49 30.46 35.10 33.26 C 33.23 36.30 34.71 41.91 38.90 41.62 C 42.35 41.62 43.66 35.55 40.04 34.82 C 37.81 35.20 39.21 37.45 39.56 38.73 C 39.11 38.91 38.21 39.26 37.76 39.44 C 36.95 37.89 35.82 35.82 37.39 34.31 C 39.32 32.04 43.48 33.06 44.06 36.03 C 45.48 39.81 41.90 44.04 37.96 43.53 C 34.20 43.42 31.60 39.50 32.11 35.95 C 32.16 32.80 34.98 30.96 36.67 28.67 C 34.49 29.82 32.43 31.18 30.30 32.42 C 29.82 36.40 29.27 41.64 24.93 43.30 C 22.16 44.62 18.88 41.89 19.91 38.92 C 21.19 34.73 25.84 33.28 29.13 31.05 C 25.72 32.31 23.46 29.54 21.19 27.59 C 19.69 26.03 20.86 23.83 21.96 22.43 C 22.22 24.17 22.33 25.97 22.95 27.64 C 24.06 25.02 24.56 21.51 27.50 20.23 M 25.60 27.59 C 27.57 26.17 29.01 24.17 29.27 21.71 C 27.23 23.06 25.96 25.16 25.60 27.59 M 38.60 22.33 C 37.46 22.85 36.24 24.48 36.96 25.72 C 38.49 26.34 40.60 22.64 38.60 22.33 M 22.78 41.11 C 26.97 41.50 27.69 36.39 28.51 33.42 C 25.84 35.10 21.47 37.22 22.78 41.11 Z" />
<path fill="#ffffff" opacity="1.00" d=" M 47.31 29.25 C 49.87 29.21 50.34 32.15 50.28 34.13 C 50.04 34.57 49.56 35.45 49.31 35.89 C 48.61 33.75 45.24 31.45 47.31 29.25 Z" />
<path fill="#ffffff" opacity="1.00" d=" M 28.22 49.82 C 28.96 48.10 31.75 47.62 33.19 46.29 C 33.69 46.73 34.69 47.62 35.19 48.06 C 33.47 50.05 30.68 50.90 28.22 49.82 Z" />
</g>
<g id="#000000ff">
<path fill="#000000" opacity="1.00" d=" M 26.47 8.65 C 32.99 7.09 40.15 8.42 45.65 12.29 C 51.71 16.46 55.67 23.54 55.95 30.90 C 56.35 38.26 53.07 45.69 47.40 50.38 C 42.34 54.65 35.47 56.68 28.91 55.78 C 21.54 54.88 14.77 50.30 11.13 43.84 C 7.49 37.52 7.01 29.49 9.86 22.77 C 12.73 15.78 19.10 10.36 26.47 8.65 M 26.42 11.58 C 18.49 13.65 12.17 20.73 11.07 28.87 C 9.92 36.10 12.88 43.78 18.59 48.36 C 24.39 53.21 32.88 54.49 39.87 51.62 C 46.72 48.94 51.90 42.42 52.90 35.12 C 54.06 27.89 51.07 20.22 45.38 15.63 C 40.21 11.30 32.91 9.79 26.42 11.58 Z" />
<path fill="#000000" opacity="1.00" d=" M 24.05 15.08 C 27.84 13.13 32.19 13.35 36.31 13.24 C 33.84 13.94 29.41 13.19 29.25 16.75 C 31.23 18.46 33.13 15.71 35.24 15.61 C 40.40 15.51 45.63 18.26 48.22 22.78 C 50.62 26.70 50.88 31.46 50.69 35.93 C 50.66 37.36 49.06 37.69 47.98 38.04 C 47.55 42.03 45.19 45.68 41.83 47.84 C 37.57 50.66 32.17 51.09 27.23 50.46 C 26.46 49.85 26.27 48.86 25.92 48.00 C 20.67 47.53 16.29 43.50 14.52 38.68 C 13.11 35.18 13.36 31.35 13.29 27.66 C 13.96 30.08 13.16 34.78 16.85 34.71 C 18.30 32.69 15.76 30.87 15.61 28.80 C 15.45 23.11 18.84 17.45 24.05 15.08 M 27.50 20.23 C 24.56 21.51 24.06 25.02 22.95 27.64 C 22.33 25.97 22.22 24.17 21.96 22.43 C 20.86 23.83 19.69 26.03 21.19 27.59 C 23.46 29.54 25.72 32.31 29.13 31.05 C 25.84 33.28 21.19 34.73 19.91 38.92 C 18.88 41.89 22.16 44.62 24.93 43.30 C 29.27 41.64 29.82 36.40 30.30 32.42 C 32.43 31.18 34.49 29.82 36.67 28.67 C 34.98 30.96 32.16 32.80 32.11 35.95 C 31.60 39.50 34.20 43.42 37.96 43.53 C 41.90 44.04 45.48 39.81 44.06 36.03 C 43.48 33.06 39.32 32.04 37.39 34.31 C 35.82 35.82 36.95 37.89 37.76 39.44 C 38.21 39.26 39.11 38.91 39.56 38.73 C 39.21 37.45 37.81 35.20 40.04 34.82 C 43.66 35.55 42.35 41.62 38.90 41.62 C 34.71 41.91 33.23 36.30 35.10 33.26 C 36.49 30.46 40.01 30.91 42.52 29.91 C 40.77 29.25 38.94 28.83 37.13 28.38 C 39.02 26.31 43.41 23.37 40.80 20.30 C 36.51 18.87 34.74 24.45 34.96 27.74 C 33.36 28.78 31.72 29.76 30.05 30.69 C 30.93 28.69 31.85 26.69 32.41 24.57 C 29.43 25.75 29.00 29.89 25.47 30.18 C 27.01 27.35 30.64 25.65 30.68 22.08 C 30.95 20.34 28.85 19.55 27.50 20.23 M 47.31 29.25 C 45.24 31.45 48.61 33.75 49.31 35.89 C 49.56 35.45 50.04 34.57 50.28 34.13 C 50.34 32.15 49.87 29.21 47.31 29.25 M 28.22 49.82 C 30.68 50.90 33.47 50.05 35.19 48.06 C 34.69 47.62 33.69 46.73 33.19 46.29 C 31.75 47.62 28.96 48.10 28.22 49.82 Z" />
<path fill="#000000" opacity="1.00" d=" M 25.60 27.59 C 25.96 25.16 27.23 23.06 29.27 21.71 C 29.01 24.17 27.57 26.17 25.60 27.59 Z" />
<path fill="#000000" opacity="1.00" d=" M 38.60 22.33 C 40.60 22.64 38.49 26.34 36.96 25.72 C 36.24 24.48 37.46 22.85 38.60 22.33 Z" />
<path fill="#000000" opacity="1.00" d=" M 22.78 41.11 C 21.47 37.22 25.84 35.10 28.51 33.42 C 27.69 36.39 26.97 41.50 22.78 41.11 Z" />
</g>
</svg>
