<?xml version="1.0" encoding="UTF-8" ?>
<!DOCTYPE svg PUBLIC "-//W3C//DTD SVG 1.1//EN" "http://www.w3.org/Graphics/SVG/1.1/DTD/svg11.dtd">
<svg width="64pt" height="64pt" viewBox="0 0 64 64" version="1.1" xmlns="http://www.w3.org/2000/svg">
<g id="#ffffffff">
<path fill="#ffffff" opacity="1.00" d=" M 0.00 0.00 L 64.00 0.00 L 64.00 64.00 L 0.00 64.00 L 0.00 0.00 M 26.65 4.09 C 26.78 6.46 26.40 8.86 26.98 11.20 C 25.56 11.97 24.96 13.44 24.38 14.87 C 23.56 14.05 22.74 13.24 21.93 12.42 C 19.85 12.20 18.24 12.64 18.68 15.20 C 17.89 17.78 13.99 19.51 16.21 22.54 C 14.73 23.67 13.20 24.73 11.49 25.48 C 11.00 28.86 10.02 32.23 10.94 35.64 C 9.33 38.55 10.63 41.91 12.21 44.53 C 14.48 45.19 16.68 46.08 18.85 47.03 C 17.48 49.71 16.27 52.47 15.36 55.34 C 15.58 55.87 16.01 56.92 16.22 57.44 C 20.74 57.39 25.28 57.97 29.57 59.44 C 34.54 59.96 39.15 57.05 44.07 58.40 C 43.87 57.57 43.47 55.90 43.27 55.07 C 45.02 53.57 46.79 52.08 48.40 50.43 C 44.76 47.10 40.99 43.75 39.40 38.90 C 43.91 38.31 47.75 35.86 51.03 32.85 C 52.05 33.48 53.06 34.10 54.08 34.72 C 53.50 28.10 49.87 21.72 51.56 15.00 C 49.02 12.66 46.44 10.36 43.81 8.12 C 40.95 9.32 38.15 10.64 35.34 11.94 C 34.84 10.76 34.34 9.58 33.85 8.40 C 31.67 8.29 30.83 6.95 31.11 4.86 C 29.62 4.60 28.14 4.35 26.65 4.09 Z" />
<path fill="#ffffff" opacity="1.00" d=" M 27.17 18.15 C 28.59 16.53 29.79 14.71 31.18 13.05 C 32.34 14.53 33.81 16.39 35.97 15.86 C 38.46 15.12 40.73 13.81 43.08 12.73 C 44.37 13.91 45.77 14.99 46.88 16.35 C 46.64 20.81 47.98 25.09 48.97 29.39 C 46.23 31.55 43.57 34.13 39.95 34.63 C 37.62 34.85 35.15 36.32 35.33 38.98 C 36.65 43.28 38.86 47.43 42.44 50.26 C 41.38 51.40 40.33 52.56 39.34 53.78 C 37.59 54.24 35.85 54.77 34.12 55.33 C 29.44 54.98 24.82 54.17 20.18 53.44 C 21.25 50.77 24.02 47.80 22.18 44.88 C 20.19 42.63 16.94 42.22 14.48 40.64 C 15.14 36.56 14.28 32.41 15.24 28.38 C 17.90 26.35 21.26 24.06 20.27 20.17 C 20.63 19.72 21.36 18.81 21.72 18.35 C 23.48 18.57 25.71 19.73 27.17 18.15 Z" />
</g>
<g id="#000000ff">
<path fill="#000000" opacity="1.00" d=" M 26.65 4.09 C 28.14 4.35 29.62 4.60 31.11 4.86 C 30.83 6.95 31.67 8.29 33.85 8.40 C 34.34 9.58 34.84 10.76 35.34 11.94 C 38.15 10.64 40.95 9.32 43.81 8.12 C 46.44 10.36 49.02 12.66 51.56 15.00 C 49.87 21.72 53.50 28.10 54.08 34.72 C 53.06 34.10 52.05 33.48 51.03 32.85 C 47.75 35.86 43.91 38.31 39.40 38.90 C 40.99 43.75 44.76 47.10 48.40 50.43 C 46.79 52.08 45.02 53.57 43.27 55.07 C 43.47 55.90 43.87 57.57 44.07 58.40 C 39.15 57.05 34.54 59.96 29.57 59.44 C 25.28 57.97 20.74 57.39 16.22 57.44 C 16.01 56.92 15.58 55.87 15.36 55.34 C 16.27 52.47 17.48 49.71 18.85 47.03 C 16.68 46.08 14.48 45.19 12.21 44.53 C 10.63 41.91 9.33 38.55 10.94 35.64 C 10.02 32.23 11.00 28.86 11.49 25.48 C 13.20 24.73 14.73 23.67 16.21 22.54 C 13.99 19.51 17.89 17.78 18.68 15.20 C 18.24 12.64 19.85 12.20 21.93 12.42 C 22.74 13.24 23.56 14.05 24.38 14.87 C 24.96 13.44 25.56 11.97 26.98 11.20 C 26.40 8.86 26.78 6.46 26.65 4.09 M 27.17 18.15 C 25.71 19.73 23.48 18.57 21.72 18.35 C 21.36 18.81 20.63 19.72 20.27 20.17 C 21.26 24.06 17.90 26.35 15.24 28.38 C 14.28 32.41 15.14 36.56 14.48 40.64 C 16.94 42.22 20.19 42.63 22.18 44.88 C 24.02 47.80 21.25 50.77 20.18 53.44 C 24.82 54.17 29.44 54.98 34.12 55.33 C 35.85 54.77 37.59 54.24 39.34 53.78 C 40.33 52.56 41.38 51.40 42.44 50.26 C 38.86 47.43 36.65 43.28 35.33 38.98 C 35.15 36.32 37.62 34.85 39.95 34.63 C 43.57 34.13 46.23 31.55 48.97 29.39 C 47.98 25.09 46.64 20.81 46.88 16.35 C 45.77 14.99 44.37 13.91 43.08 12.73 C 40.73 13.81 38.46 15.12 35.97 15.86 C 33.81 16.39 32.34 14.53 31.18 13.05 C 29.79 14.71 28.59 16.53 27.17 18.15 Z" />
</g>
</svg>
