<?xml version="1.0" encoding="UTF-8" ?>
<!DOCTYPE svg PUBLIC "-//W3C//DTD SVG 1.1//EN" "http://www.w3.org/Graphics/SVG/1.1/DTD/svg11.dtd">
<svg width="64pt" height="64pt" viewBox="0 0 64 64" version="1.1" xmlns="http://www.w3.org/2000/svg">
<g id="#ffffffff">
<path fill="#ffffff" opacity="1.00" d=" M 0.00 0.00 L 64.00 0.00 L 64.00 64.00 L 0.00 64.00 L 0.00 0.00 M 18.00 8.00 C 17.99 10.16 18.01 12.31 17.99 14.47 C 15.68 13.06 13.34 11.69 11.02 10.28 C 10.35 11.43 9.67 12.58 8.96 13.71 C 10.23 14.47 11.50 15.23 12.76 16.00 C 10.51 16.01 8.25 15.99 6.00 16.00 C 6.00 28.67 6.00 41.33 6.00 54.00 C 10.00 54.00 14.00 54.00 18.00 54.00 C 18.00 52.67 18.00 51.33 18.00 50.00 C 15.33 50.01 12.67 49.99 10.00 50.00 C 10.00 40.00 10.00 30.00 10.00 20.00 C 15.30 19.84 20.65 20.32 25.91 19.79 C 28.49 18.64 31.12 17.68 34.01 18.07 C 34.01 17.56 34.00 16.52 34.00 16.00 C 31.77 15.99 29.53 16.00 27.30 15.98 C 28.54 15.22 29.79 14.46 31.03 13.71 C 30.33 12.58 29.65 11.44 28.98 10.29 C 26.67 11.70 24.35 13.11 22.01 14.46 C 21.98 12.30 22.01 10.15 22.00 8.00 C 20.67 8.00 19.33 8.00 18.00 8.00 M 26.17 30.01 C 24.78 30.01 23.39 30.00 22.00 30.00 C 22.00 38.00 22.00 46.00 22.00 54.00 C 34.00 54.00 46.00 54.00 58.00 54.00 C 58.00 46.00 58.00 38.00 58.00 30.00 C 56.61 30.00 55.22 30.01 53.83 30.01 C 54.64 26.61 52.71 22.67 49.07 22.10 C 45.04 21.32 42.10 24.69 40.00 27.60 C 37.90 24.70 34.98 21.34 30.97 22.09 C 27.30 22.64 25.34 26.59 26.17 30.01 Z" />
<path fill="#ffffff" opacity="1.00" d=" M 31.16 29.86 C 29.22 29.03 29.91 25.85 32.05 25.98 C 34.26 26.35 35.42 28.43 36.78 29.95 C 34.91 30.02 33.03 30.08 31.16 29.86 Z" />
<path fill="#ffffff" opacity="1.00" d=" M 43.22 29.95 C 44.64 28.05 47.57 24.21 49.89 27.11 C 50.73 31.07 45.51 29.88 43.22 29.95 Z" />
<path fill="#ffffff" opacity="1.00" d=" M 26.00 34.00 C 30.00 34.00 34.00 34.00 38.00 34.00 C 38.00 39.33 38.00 44.67 38.00 50.00 C 34.00 50.00 30.00 50.00 26.00 50.00 C 26.00 44.67 26.00 39.33 26.00 34.00 Z" />
<path fill="#ffffff" opacity="1.00" d=" M 42.00 34.00 C 46.00 34.00 50.00 34.00 54.00 34.00 C 54.00 39.33 54.00 44.67 54.00 50.00 C 50.00 50.00 46.00 50.00 42.00 50.00 C 42.00 44.67 42.00 39.33 42.00 34.00 Z" />
</g>
<g id="#000000ff">
<path fill="#000000" opacity="1.00" d=" M 18.00 8.00 C 19.33 8.00 20.67 8.00 22.00 8.00 C 22.01 10.15 21.98 12.30 22.01 14.46 C 24.35 13.11 26.67 11.70 28.98 10.29 C 29.65 11.44 30.33 12.58 31.03 13.71 C 29.79 14.46 28.54 15.22 27.30 15.98 C 29.53 16.00 31.77 15.99 34.00 16.00 C 34.00 16.52 34.01 17.56 34.01 18.07 C 31.12 17.68 28.49 18.64 25.91 19.79 C 20.65 20.32 15.30 19.84 10.00 20.00 C 10.00 30.00 10.00 40.00 10.00 50.00 C 12.67 49.99 15.33 50.01 18.00 50.00 C 18.00 51.33 18.00 52.67 18.00 54.00 C 14.00 54.00 10.00 54.00 6.00 54.00 C 6.00 41.33 6.00 28.67 6.00 16.00 C 8.25 15.99 10.51 16.01 12.76 16.00 C 11.50 15.23 10.23 14.47 8.96 13.71 C 9.67 12.58 10.35 11.43 11.02 10.28 C 13.34 11.69 15.68 13.06 17.99 14.47 C 18.01 12.31 17.99 10.16 18.00 8.00 Z" />
<path fill="#000000" opacity="1.00" d=" M 26.17 30.01 C 25.34 26.59 27.30 22.64 30.97 22.09 C 34.98 21.34 37.90 24.70 40.00 27.60 C 42.10 24.69 45.04 21.32 49.07 22.10 C 52.71 22.67 54.64 26.61 53.83 30.01 C 55.22 30.01 56.61 30.00 58.00 30.00 C 58.00 38.00 58.00 46.00 58.00 54.00 C 46.00 54.00 34.00 54.00 22.00 54.00 C 22.00 46.00 22.00 38.00 22.00 30.00 C 23.39 30.00 24.78 30.01 26.17 30.01 M 31.16 29.86 C 33.03 30.08 34.91 30.02 36.78 29.95 C 35.42 28.43 34.26 26.35 32.05 25.98 C 29.91 25.85 29.22 29.03 31.16 29.86 M 43.22 29.95 C 45.51 29.88 50.73 31.07 49.89 27.11 C 47.57 24.21 44.64 28.05 43.22 29.95 M 26.00 34.00 C 26.00 39.33 26.00 44.67 26.00 50.00 C 30.00 50.00 34.00 50.00 38.00 50.00 C 38.00 44.67 38.00 39.33 38.00 34.00 C 34.00 34.00 30.00 34.00 26.00 34.00 M 42.00 34.00 C 42.00 39.33 42.00 44.67 42.00 50.00 C 46.00 50.00 50.00 50.00 54.00 50.00 C 54.00 44.67 54.00 39.33 54.00 34.00 C 50.00 34.00 46.00 34.00 42.00 34.00 Z" />
</g>
</svg>
