<?xml version="1.0" encoding="UTF-8" ?>
<!DOCTYPE svg PUBLIC "-//W3C//DTD SVG 1.1//EN" "http://www.w3.org/Graphics/SVG/1.1/DTD/svg11.dtd">
<svg width="64pt" height="64pt" viewBox="0 0 64 64" version="1.1" xmlns="http://www.w3.org/2000/svg">
<g id="#ffffffff">
<path fill="#ffffff" opacity="1.00" d=" M 0.00 0.00 L 64.00 0.00 L 64.00 64.00 L 0.00 64.00 L 0.00 0.00 M 2.00 11.94 C 2.00 13.29 2.00 14.64 2.00 15.99 C 2.51 15.99 3.54 16.01 4.05 16.02 C 4.56 21.90 6.88 27.92 11.98 31.31 C 12.20 35.69 11.56 40.16 12.39 44.50 C 13.40 48.14 17.11 49.69 20.35 50.80 C 25.32 52.51 30.62 55.10 35.95 53.37 C 40.45 51.99 45.12 50.72 49.12 48.17 C 53.90 43.91 51.36 36.86 52.02 31.30 C 57.12 27.93 59.42 21.89 59.95 16.02 C 60.46 16.01 61.49 15.99 62.00 15.99 C 62.00 14.64 62.00 13.29 62.00 11.94 C 55.43 11.68 48.52 13.43 43.94 18.41 C 39.88 17.63 35.60 18.02 32.00 20.17 C 28.39 18.02 24.12 17.63 20.05 18.42 C 15.48 13.41 8.57 11.69 2.00 11.94 Z" />
<path fill="#ffffff" opacity="1.00" d=" M 8.02 16.21 C 11.04 16.85 13.87 18.11 16.23 20.13 C 14.38 21.83 13.01 23.93 12.10 26.26 C 9.73 23.40 8.41 19.89 8.02 16.21 Z" />
<path fill="#ffffff" opacity="1.00" d=" M 47.68 20.06 C 50.16 18.21 52.93 16.81 55.98 16.21 C 55.59 19.89 54.24 23.39 51.92 26.30 C 50.86 24.00 49.70 21.67 47.68 20.06 Z" />
<path fill="#ffffff" opacity="1.00" d=" M 16.34 26.40 C 18.46 20.94 26.17 20.95 30.33 23.96 C 31.45 23.97 32.57 23.97 33.69 23.96 C 37.86 20.93 45.62 20.95 47.68 26.47 C 48.37 31.62 47.92 36.90 47.94 42.10 C 48.02 45.28 44.50 46.16 42.15 47.10 C 37.78 48.53 33.14 50.95 28.49 49.31 C 24.82 48.19 21.09 47.07 17.70 45.24 C 15.57 43.91 16.08 41.10 15.98 38.99 C 16.19 34.80 15.58 30.53 16.34 26.40 M 16.67 30.28 C 17.52 31.37 18.37 32.46 19.22 33.56 C 20.01 33.11 20.80 32.67 21.59 32.23 C 22.21 33.87 22.81 36.04 24.99 36.02 C 27.21 36.04 27.98 33.85 28.13 32.02 C 28.60 32.01 29.53 31.99 30.00 31.98 C 30.00 30.66 30.00 29.33 30.00 28.00 C 25.45 27.84 20.67 27.74 16.67 30.28 M 34.00 28.00 C 34.00 29.33 34.00 30.66 34.00 31.98 C 34.47 31.99 35.40 32.01 35.87 32.02 C 36.17 33.46 36.32 35.48 38.12 35.82 C 40.44 36.71 42.09 34.28 42.22 32.24 C 42.83 32.51 44.06 33.06 44.68 33.33 C 45.63 32.36 46.59 31.40 47.55 30.43 C 43.63 27.45 38.61 27.97 34.00 28.00 M 30.40 36.44 C 28.12 38.23 25.45 39.59 23.62 41.89 C 26.97 46.92 35.08 47.18 39.34 43.25 C 41.01 41.42 38.53 39.78 37.08 38.95 C 35.04 37.77 33.01 34.91 30.40 36.44 Z" />
</g>
<g id="#000000ff">
<path fill="#000000" opacity="1.00" d=" M 2.00 11.94 C 8.57 11.69 15.48 13.41 20.05 18.42 C 24.12 17.63 28.39 18.02 32.00 20.17 C 35.60 18.02 39.88 17.63 43.94 18.41 C 48.52 13.43 55.43 11.68 62.00 11.94 C 62.00 13.29 62.00 14.64 62.00 15.99 C 61.49 15.99 60.46 16.01 59.95 16.02 C 59.42 21.89 57.12 27.93 52.02 31.30 C 51.36 36.86 53.90 43.91 49.12 48.17 C 45.12 50.72 40.45 51.99 35.95 53.37 C 30.62 55.10 25.32 52.51 20.35 50.80 C 17.11 49.69 13.40 48.14 12.39 44.50 C 11.56 40.16 12.20 35.69 11.98 31.31 C 6.88 27.92 4.56 21.90 4.05 16.02 C 3.54 16.01 2.51 15.99 2.00 15.99 C 2.00 14.64 2.00 13.29 2.00 11.94 M 8.02 16.21 C 8.41 19.89 9.73 23.40 12.10 26.26 C 13.01 23.93 14.38 21.83 16.23 20.13 C 13.87 18.11 11.04 16.85 8.02 16.21 M 47.68 20.06 C 49.70 21.67 50.86 24.00 51.92 26.30 C 54.24 23.39 55.59 19.89 55.98 16.21 C 52.93 16.81 50.16 18.21 47.68 20.06 M 16.34 26.40 C 15.58 30.53 16.19 34.80 15.98 38.99 C 16.08 41.10 15.57 43.91 17.70 45.24 C 21.09 47.07 24.82 48.19 28.49 49.31 C 33.14 50.95 37.78 48.53 42.15 47.10 C 44.50 46.16 48.02 45.28 47.94 42.10 C 47.92 36.90 48.37 31.62 47.68 26.47 C 45.62 20.95 37.86 20.93 33.69 23.96 C 32.57 23.97 31.45 23.97 30.33 23.96 C 26.17 20.95 18.46 20.94 16.34 26.40 Z" />
<path fill="#000000" opacity="1.00" d=" M 16.67 30.28 C 20.67 27.74 25.45 27.84 30.00 28.00 C 30.00 29.33 30.00 30.66 30.00 31.98 C 29.53 31.99 28.60 32.01 28.13 32.02 C 27.98 33.85 27.21 36.04 24.99 36.02 C 22.81 36.04 22.21 33.87 21.59 32.23 C 20.80 32.67 20.01 33.11 19.22 33.56 C 18.37 32.46 17.52 31.37 16.67 30.28 Z" />
<path fill="#000000" opacity="1.00" d=" M 34.00 28.00 C 38.61 27.97 43.63 27.45 47.55 30.43 C 46.59 31.40 45.63 32.36 44.68 33.33 C 44.06 33.06 42.83 32.51 42.22 32.24 C 42.09 34.28 40.44 36.71 38.12 35.82 C 36.32 35.48 36.17 33.46 35.87 32.02 C 35.40 32.01 34.47 31.99 34.00 31.98 C 34.00 30.66 34.00 29.33 34.00 28.00 Z" />
<path fill="#000000" opacity="1.00" d=" M 30.40 36.44 C 33.01 34.91 35.04 37.77 37.08 38.95 C 38.53 39.78 41.01 41.42 39.34 43.25 C 35.08 47.18 26.97 46.92 23.62 41.89 C 25.45 39.59 28.12 38.23 30.40 36.44 Z" />
</g>
</svg>
