<?xml version="1.0" encoding="UTF-8" ?>
<!DOCTYPE svg PUBLIC "-//W3C//DTD SVG 1.1//EN" "http://www.w3.org/Graphics/SVG/1.1/DTD/svg11.dtd">
<svg width="64pt" height="64pt" viewBox="0 0 64 64" version="1.1" xmlns="http://www.w3.org/2000/svg">
<g id="#ffffffff">
<path fill="#ffffff" opacity="1.00" d=" M 0.00 0.00 L 64.00 0.00 L 64.00 64.00 L 0.00 64.00 L 0.00 0.00 M 9.64 14.00 C 11.85 27.33 14.09 40.66 16.29 53.99 C 26.77 54.00 37.24 54.02 47.71 53.98 C 49.90 40.65 52.15 27.33 54.35 14.00 C 39.45 14.00 24.54 14.00 9.64 14.00 Z" />
<path fill="#ffffff" opacity="1.00" d=" M 14.37 18.00 C 26.12 18.00 37.88 18.00 49.63 18.00 C 48.54 24.67 47.42 31.33 46.30 38.00 C 37.98 38.00 29.66 38.00 21.34 38.00 C 21.56 39.33 21.78 40.66 22.00 42.00 C 29.88 42.00 37.76 42.00 45.63 42.00 C 45.20 44.67 44.76 47.33 44.30 50.00 C 36.10 50.00 27.90 50.00 19.70 50.00 C 17.91 39.33 16.13 28.67 14.37 18.00 Z" />
</g>
<g id="#000000ff">
<path fill="#000000" opacity="1.00" d=" M 9.64 14.00 C 24.54 14.00 39.45 14.00 54.35 14.00 C 52.15 27.33 49.90 40.65 47.71 53.98 C 37.24 54.02 26.77 54.00 16.29 53.99 C 14.09 40.66 11.85 27.33 9.64 14.00 M 14.37 18.00 C 16.13 28.67 17.91 39.33 19.70 50.00 C 27.90 50.00 36.10 50.00 44.30 50.00 C 44.76 47.33 45.20 44.67 45.63 42.00 C 37.76 42.00 29.88 42.00 22.00 42.00 C 21.78 40.66 21.56 39.33 21.34 38.00 C 29.66 38.00 37.98 38.00 46.30 38.00 C 47.42 31.33 48.54 24.67 49.63 18.00 C 37.88 18.00 26.12 18.00 14.37 18.00 Z" />
</g>
</svg>
