<?xml version="1.0" encoding="UTF-8" ?>
<!DOCTYPE svg PUBLIC "-//W3C//DTD SVG 1.1//EN" "http://www.w3.org/Graphics/SVG/1.1/DTD/svg11.dtd">
<svg width="64pt" height="64pt" viewBox="0 0 64 64" version="1.1" xmlns="http://www.w3.org/2000/svg">
<g id="#ffffffff">
<path fill="#ffffff" opacity="1.00" d=" M 0.00 0.00 L 64.00 0.00 L 64.00 64.00 L 0.00 64.00 L 0.00 0.00 M 35.20 5.98 C 28.79 12.30 22.47 18.73 16.11 25.11 C 13.24 27.71 13.55 32.32 16.06 35.05 C 14.42 36.67 12.82 38.33 11.20 39.97 C 11.67 40.48 12.61 41.50 13.08 42.01 C 9.52 45.76 7.57 50.84 7.97 56.03 C 13.14 56.37 18.35 54.62 22.07 50.97 C 22.56 51.43 23.53 52.35 24.01 52.81 C 25.66 51.19 27.32 49.58 28.94 47.94 C 31.70 50.45 36.31 50.75 38.92 47.86 C 45.27 41.45 51.89 35.29 57.97 28.64 C 50.31 21.17 42.84 13.49 35.20 5.98 Z" />
<path fill="#ffffff" opacity="1.00" d=" M 18.94 27.93 C 24.31 22.47 29.77 17.10 35.21 11.70 C 40.92 17.40 46.64 23.09 52.30 28.84 C 46.88 34.20 41.54 39.63 36.12 44.99 C 35.10 46.32 32.95 46.33 31.90 45.03 C 27.52 40.72 23.16 36.39 18.87 32.00 C 17.68 30.95 17.71 28.92 18.94 27.93 M 27.41 24.56 C 26.47 25.53 25.52 26.49 24.57 27.46 C 28.57 31.44 32.56 35.44 36.55 39.43 C 37.51 38.47 38.48 37.51 39.45 36.56 C 35.43 32.57 31.45 28.53 27.41 24.56 Z" />
<path fill="#ffffff" opacity="1.00" d=" M 16.89 39.98 C 17.60 39.30 18.30 38.60 18.99 37.88 C 21.38 40.24 23.75 42.62 26.12 45.01 C 25.40 45.69 24.69 46.40 24.01 47.12 C 21.62 44.76 19.25 42.37 16.89 39.98 Z" />
<path fill="#ffffff" opacity="1.00" d=" M 12.41 51.59 C 13.01 49.06 14.18 46.74 15.93 44.82 C 17.04 45.92 18.15 47.03 19.24 48.14 C 17.33 49.92 14.95 51.03 12.41 51.59 Z" />
</g>
<g id="#000000ff">
<path fill="#000000" opacity="1.00" d=" M 35.20 5.98 C 42.84 13.49 50.31 21.17 57.97 28.64 C 51.89 35.29 45.27 41.45 38.92 47.86 C 36.31 50.75 31.70 50.45 28.94 47.94 C 27.32 49.58 25.66 51.19 24.01 52.81 C 23.53 52.35 22.56 51.43 22.07 50.97 C 18.35 54.62 13.14 56.37 7.97 56.03 C 7.57 50.84 9.52 45.76 13.08 42.01 C 12.61 41.50 11.67 40.48 11.20 39.97 C 12.82 38.33 14.42 36.67 16.06 35.05 C 13.55 32.32 13.24 27.71 16.11 25.11 C 22.47 18.73 28.79 12.30 35.20 5.98 M 18.94 27.93 C 17.71 28.92 17.68 30.95 18.87 32.00 C 23.16 36.39 27.52 40.72 31.90 45.03 C 32.95 46.33 35.10 46.32 36.12 44.99 C 41.54 39.63 46.88 34.20 52.30 28.84 C 46.64 23.09 40.92 17.40 35.21 11.70 C 29.77 17.10 24.31 22.47 18.94 27.93 M 16.89 39.98 C 19.25 42.37 21.62 44.76 24.01 47.12 C 24.69 46.40 25.40 45.69 26.12 45.01 C 23.75 42.62 21.38 40.24 18.99 37.88 C 18.30 38.60 17.60 39.30 16.89 39.98 M 12.41 51.59 C 14.95 51.03 17.33 49.92 19.24 48.14 C 18.15 47.03 17.04 45.92 15.93 44.82 C 14.18 46.74 13.01 49.06 12.41 51.59 Z" />
<path fill="#000000" opacity="1.00" d=" M 27.41 24.56 C 31.45 28.53 35.43 32.57 39.45 36.56 C 38.48 37.51 37.51 38.47 36.55 39.43 C 32.56 35.44 28.57 31.44 24.57 27.46 C 25.52 26.49 26.47 25.53 27.41 24.56 Z" />
</g>
</svg>
