<?xml version="1.0" encoding="UTF-8" ?>
<!DOCTYPE svg PUBLIC "-//W3C//DTD SVG 1.1//EN" "http://www.w3.org/Graphics/SVG/1.1/DTD/svg11.dtd">
<svg width="64pt" height="64pt" viewBox="0 0 64 64" version="1.1" xmlns="http://www.w3.org/2000/svg">
<g id="#ffffffff">
<path fill="#ffffff" opacity="1.00" d=" M 0.00 0.00 L 64.00 0.00 L 64.00 64.00 L 0.00 64.00 L 0.00 0.00 M 8.02 10.00 C 8.00 10.64 7.97 11.93 7.96 12.57 C 6.16 13.91 4.35 15.59 4.12 17.96 C 3.42 21.19 5.69 23.98 8.21 25.65 C 9.27 31.18 11.48 36.55 15.16 40.86 C 17.28 43.25 16.93 46.76 18.61 49.40 C 20.68 53.60 25.38 55.75 29.89 55.91 C 35.18 56.35 41.50 55.43 44.64 50.62 C 47.10 47.58 46.51 43.15 49.27 40.30 C 52.71 36.10 54.72 30.93 55.79 25.64 C 57.71 24.24 59.66 22.47 59.92 19.95 C 60.47 16.90 58.47 14.17 56.04 12.57 C 56.03 11.93 56.00 10.64 55.98 10.00 C 54.65 10.00 53.32 10.00 51.99 10.00 C 52.00 11.87 52.01 13.74 52.01 15.61 C 53.76 16.06 56.14 16.78 56.01 19.06 C 56.04 21.23 53.82 21.87 52.15 22.36 C 51.77 26.59 50.39 30.62 48.64 34.47 C 46.88 33.76 44.68 33.74 43.17 35.00 C 41.33 36.54 40.54 39.08 38.37 40.26 C 38.22 38.55 38.10 36.84 37.98 35.14 C 34.07 33.87 29.91 33.80 26.02 35.21 C 25.90 36.87 25.77 38.53 25.63 40.19 C 23.17 39.00 22.53 35.91 20.18 34.57 C 18.71 33.66 16.93 34.01 15.36 34.43 C 13.59 30.59 12.20 26.56 11.85 22.31 C 10.19 21.90 7.81 21.18 8.03 18.97 C 7.84 16.72 10.32 16.07 11.99 15.62 C 11.99 13.74 12.00 11.87 12.01 10.00 C 10.68 10.00 9.35 10.00 8.02 10.00 M 21.34 12.52 C 19.60 13.59 19.61 16.45 21.37 17.50 C 22.91 18.57 25.34 17.75 25.82 15.91 C 26.86 13.38 23.51 10.88 21.34 12.52 M 39.38 12.50 C 36.06 14.43 39.48 19.80 42.65 17.48 C 45.90 15.52 42.53 10.25 39.38 12.50 M 22.97 29.35 C 23.64 30.52 24.29 31.71 24.92 32.90 C 29.56 31.66 34.45 31.69 39.09 32.88 C 39.73 31.76 40.38 30.64 41.04 29.52 C 35.28 27.37 28.79 27.48 22.97 29.35 Z" />
</g>
<g id="#000000ff">
<path fill="#000000" opacity="1.00" d=" M 8.02 10.00 C 9.35 10.00 10.68 10.00 12.01 10.00 C 12.00 11.87 11.99 13.74 11.99 15.62 C 10.32 16.07 7.84 16.72 8.03 18.97 C 7.81 21.18 10.19 21.90 11.85 22.31 C 12.20 26.56 13.59 30.59 15.36 34.43 C 16.93 34.01 18.71 33.66 20.18 34.57 C 22.53 35.91 23.17 39.00 25.63 40.19 C 25.77 38.53 25.90 36.87 26.02 35.21 C 29.91 33.80 34.07 33.87 37.98 35.14 C 38.10 36.84 38.22 38.55 38.37 40.26 C 40.54 39.08 41.33 36.54 43.17 35.00 C 44.68 33.74 46.88 33.76 48.64 34.47 C 50.39 30.62 51.77 26.59 52.15 22.36 C 53.82 21.87 56.04 21.23 56.01 19.06 C 56.14 16.78 53.76 16.06 52.01 15.61 C 52.01 13.74 52.00 11.87 51.99 10.00 C 53.32 10.00 54.65 10.00 55.98 10.00 C 56.00 10.64 56.03 11.93 56.04 12.57 C 58.47 14.17 60.47 16.90 59.92 19.95 C 59.66 22.47 57.71 24.24 55.79 25.64 C 54.72 30.93 52.71 36.10 49.27 40.30 C 46.51 43.15 47.10 47.58 44.64 50.62 C 41.50 55.43 35.18 56.35 29.89 55.91 C 25.38 55.75 20.68 53.60 18.61 49.40 C 16.93 46.76 17.28 43.25 15.16 40.86 C 11.48 36.55 9.27 31.18 8.21 25.65 C 5.69 23.98 3.42 21.19 4.12 17.96 C 4.35 15.59 6.16 13.91 7.96 12.57 C 7.97 11.93 8.00 10.64 8.02 10.00 Z" />
<path fill="#000000" opacity="1.00" d=" M 21.34 12.52 C 23.51 10.88 26.86 13.38 25.82 15.91 C 25.34 17.75 22.91 18.57 21.37 17.50 C 19.61 16.45 19.60 13.59 21.34 12.52 Z" />
<path fill="#000000" opacity="1.00" d=" M 39.38 12.50 C 42.53 10.25 45.90 15.52 42.65 17.48 C 39.48 19.80 36.06 14.43 39.38 12.50 Z" />
<path fill="#000000" opacity="1.00" d=" M 22.97 29.35 C 28.79 27.48 35.28 27.37 41.04 29.52 C 40.38 30.64 39.73 31.76 39.09 32.88 C 34.45 31.69 29.56 31.66 24.92 32.90 C 24.29 31.71 23.64 30.52 22.97 29.35 Z" />
</g>
</svg>
