<?xml version="1.0" encoding="UTF-8" ?>
<!DOCTYPE svg PUBLIC "-//W3C//DTD SVG 1.1//EN" "http://www.w3.org/Graphics/SVG/1.1/DTD/svg11.dtd">
<svg width="64pt" height="64pt" viewBox="0 0 64 64" version="1.1" xmlns="http://www.w3.org/2000/svg">
<g id="#ffffffff">
<path fill="#ffffff" opacity="1.00" d=" M 0.00 0.00 L 64.00 0.00 L 64.00 64.00 L 0.00 64.00 L 0.00 0.00 M 19.21 7.26 C 15.93 9.93 16.87 14.58 18.06 18.06 C 14.39 16.71 9.16 15.94 6.82 19.93 C 4.07 24.82 9.64 29.89 7.45 34.89 C 6.68 38.05 4.81 41.88 7.25 44.76 C 9.91 48.06 14.57 47.12 18.06 45.94 C 16.69 49.62 15.95 54.86 19.96 57.19 C 24.87 59.90 29.95 54.33 34.95 56.56 C 38.10 57.33 41.90 59.17 44.76 56.75 C 48.06 54.09 47.14 49.43 45.94 45.94 C 49.62 47.29 54.83 48.04 57.17 44.06 C 59.92 39.18 54.37 34.10 56.55 29.12 C 57.30 25.96 59.17 22.16 56.78 19.27 C 54.13 15.94 49.44 16.85 45.93 18.06 C 47.28 14.40 48.05 9.23 44.12 6.86 C 39.23 4.03 34.12 9.66 29.11 7.45 C 25.94 6.67 22.10 4.80 19.21 7.26 Z" />
<path fill="#ffffff" opacity="1.00" d=" M 22.00 9.81 C 24.77 10.38 27.46 11.25 30.20 11.93 C 34.19 12.90 37.78 10.01 41.72 10.09 C 44.85 13.27 41.39 17.82 40.16 21.19 C 41.04 22.08 41.92 22.96 42.80 23.84 C 46.30 22.45 50.62 19.40 54.20 22.08 C 53.59 24.81 52.74 27.47 52.07 30.18 C 51.05 34.19 54.06 37.81 53.87 41.77 C 50.66 44.81 46.17 41.39 42.81 40.16 C 41.92 41.04 41.04 41.92 40.16 42.81 C 41.58 46.32 44.52 50.55 41.98 54.19 C 38.61 53.57 35.42 52.17 32.01 51.82 C 28.63 52.16 25.50 53.68 22.12 54.10 C 19.42 50.55 22.46 46.26 23.84 42.80 C 22.96 41.92 22.08 41.04 21.19 40.16 C 17.69 41.58 13.51 44.45 9.83 42.04 C 10.36 39.27 11.23 36.59 11.91 33.86 C 12.95 29.84 9.97 26.22 10.12 22.24 C 13.30 19.16 17.84 22.62 21.19 23.84 C 22.08 22.96 22.96 22.08 23.84 21.20 C 22.42 17.70 19.50 13.47 22.00 9.81 M 32.56 26.02 C 31.71 26.77 30.86 27.52 30.01 28.26 C 30.01 29.54 30.00 30.82 29.99 32.10 C 30.49 31.91 31.50 31.52 32.00 31.32 C 32.00 33.55 32.00 35.77 32.00 38.00 C 33.33 38.00 34.67 38.00 36.00 38.00 C 36.00 34.00 36.00 29.99 36.00 25.99 C 34.85 26.00 33.70 26.01 32.56 26.02 M 40.49 26.69 C 36.49 29.12 37.07 36.87 41.98 37.89 C 45.40 38.73 48.53 35.35 48.04 32.01 C 48.74 28.00 44.05 24.38 40.49 26.69 M 16.00 28.82 C 17.06 29.88 18.12 30.94 19.17 32.00 C 18.11 33.06 17.06 34.12 16.00 35.18 C 16.94 36.12 17.88 37.06 18.82 38.00 C 19.88 36.94 20.94 35.89 22.00 34.83 C 23.06 35.89 24.12 36.94 25.18 38.00 C 26.12 37.06 27.05 36.12 27.99 35.18 C 26.94 34.11 25.90 33.05 24.85 31.99 C 25.90 30.93 26.95 29.88 28.00 28.82 C 27.06 27.88 26.12 26.94 25.18 26.00 C 24.12 27.06 23.06 28.11 22.00 29.17 C 20.94 28.11 19.88 27.06 18.82 26.00 C 17.88 26.94 16.94 27.88 16.00 28.82 Z" />
<path fill="#ffffff" opacity="1.00" d=" M 42.02 30.20 C 42.51 30.20 43.49 30.20 43.98 30.19 C 43.99 31.39 43.99 32.60 43.97 33.80 C 43.49 33.80 42.51 33.80 42.02 33.80 C 42.01 32.60 42.00 31.40 42.02 30.20 Z" />
</g>
<g id="#000000ff">
<path fill="#000000" opacity="1.00" d=" M 19.21 7.26 C 22.10 4.80 25.94 6.67 29.11 7.45 C 34.12 9.66 39.23 4.03 44.12 6.86 C 48.05 9.23 47.28 14.40 45.93 18.06 C 49.44 16.85 54.13 15.94 56.78 19.27 C 59.17 22.16 57.30 25.96 56.55 29.12 C 54.37 34.10 59.92 39.18 57.17 44.06 C 54.83 48.04 49.62 47.29 45.94 45.94 C 47.14 49.43 48.06 54.09 44.76 56.75 C 41.90 59.17 38.10 57.33 34.95 56.56 C 29.95 54.33 24.87 59.90 19.96 57.19 C 15.95 54.86 16.69 49.62 18.06 45.94 C 14.57 47.12 9.91 48.06 7.25 44.76 C 4.81 41.88 6.68 38.05 7.45 34.89 C 9.64 29.89 4.07 24.82 6.82 19.93 C 9.16 15.94 14.39 16.71 18.06 18.06 C 16.87 14.58 15.93 9.93 19.21 7.26 M 22.00 9.81 C 19.50 13.47 22.42 17.70 23.84 21.20 C 22.96 22.08 22.08 22.96 21.19 23.84 C 17.84 22.62 13.30 19.16 10.12 22.24 C 9.97 26.22 12.95 29.84 11.91 33.86 C 11.23 36.59 10.36 39.27 9.83 42.04 C 13.51 44.45 17.69 41.58 21.19 40.16 C 22.08 41.04 22.96 41.92 23.84 42.80 C 22.46 46.26 19.42 50.55 22.12 54.10 C 25.50 53.68 28.63 52.16 32.01 51.82 C 35.42 52.17 38.61 53.57 41.98 54.19 C 44.52 50.55 41.58 46.32 40.16 42.81 C 41.04 41.92 41.92 41.04 42.81 40.16 C 46.17 41.39 50.66 44.81 53.87 41.77 C 54.06 37.81 51.05 34.19 52.07 30.18 C 52.74 27.47 53.59 24.81 54.20 22.08 C 50.62 19.40 46.30 22.45 42.80 23.84 C 41.92 22.96 41.04 22.08 40.16 21.19 C 41.39 17.82 44.85 13.27 41.72 10.09 C 37.78 10.01 34.19 12.90 30.20 11.93 C 27.46 11.25 24.77 10.38 22.00 9.81 Z" />
<path fill="#000000" opacity="1.00" d=" M 32.56 26.02 C 33.70 26.01 34.85 26.00 36.00 25.99 C 36.00 29.99 36.00 34.00 36.00 38.00 C 34.67 38.00 33.33 38.00 32.00 38.00 C 32.00 35.77 32.00 33.55 32.00 31.32 C 31.50 31.52 30.49 31.91 29.99 32.10 C 30.00 30.82 30.01 29.54 30.01 28.26 C 30.86 27.52 31.71 26.77 32.56 26.02 Z" />
<path fill="#000000" opacity="1.00" d=" M 40.49 26.69 C 44.05 24.38 48.74 28.00 48.04 32.01 C 48.53 35.35 45.40 38.73 41.98 37.89 C 37.07 36.87 36.49 29.12 40.49 26.69 M 42.02 30.20 C 42.00 31.40 42.01 32.60 42.02 33.80 C 42.51 33.80 43.49 33.80 43.97 33.80 C 43.99 32.60 43.99 31.39 43.98 30.19 C 43.49 30.20 42.51 30.20 42.02 30.20 Z" />
<path fill="#000000" opacity="1.00" d=" M 16.00 28.82 C 16.94 27.88 17.88 26.94 18.82 26.00 C 19.88 27.06 20.94 28.11 22.00 29.17 C 23.06 28.11 24.12 27.06 25.18 26.00 C 26.12 26.94 27.06 27.88 28.00 28.82 C 26.95 29.88 25.90 30.93 24.85 31.99 C 25.90 33.05 26.94 34.11 27.99 35.18 C 27.05 36.12 26.12 37.06 25.18 38.00 C 24.12 36.94 23.06 35.89 22.00 34.83 C 20.94 35.89 19.88 36.94 18.82 38.00 C 17.88 37.06 16.94 36.12 16.00 35.18 C 17.06 34.12 18.11 33.06 19.17 32.00 C 18.12 30.94 17.06 29.88 16.00 28.82 Z" />
</g>
</svg>
