<?xml version="1.0" encoding="UTF-8" ?>
<!DOCTYPE svg PUBLIC "-//W3C//DTD SVG 1.1//EN" "http://www.w3.org/Graphics/SVG/1.1/DTD/svg11.dtd">
<svg width="64pt" height="64pt" viewBox="0 0 64 64" version="1.1" xmlns="http://www.w3.org/2000/svg">
<g id="#ffffffff">
<path fill="#ffffff" opacity="1.00" d=" M 0.00 0.00 L 64.00 0.00 L 64.00 64.00 L 0.00 64.00 L 0.00 0.00 M 12.00 6.00 C 12.00 10.67 12.00 15.34 12.00 20.00 C 13.33 20.00 14.67 20.00 16.00 20.00 C 16.00 16.67 16.00 13.33 16.00 10.00 C 26.67 10.00 37.33 10.00 48.00 10.00 C 48.00 13.33 48.00 16.67 48.00 20.00 C 49.33 20.00 50.67 20.00 52.00 20.00 C 52.00 15.34 52.00 10.67 52.00 6.00 C 38.67 6.00 25.33 6.00 12.00 6.00 M 14.29 28.29 C 14.17 31.22 13.81 34.28 14.66 37.12 C 16.33 40.85 20.92 39.89 24.19 40.03 C 24.19 37.35 24.19 34.67 24.19 32.00 C 22.86 32.01 21.53 32.01 20.20 32.00 C 20.19 33.48 20.17 34.96 20.14 36.45 C 19.70 36.18 18.84 35.65 18.41 35.39 C 18.08 32.83 17.65 29.92 19.08 27.61 C 19.72 30.37 22.23 30.09 24.44 30.09 C 24.00 28.30 23.88 26.11 22.18 24.99 C 19.39 22.68 14.54 24.64 14.29 28.29 M 28.00 23.95 C 28.00 29.30 28.00 34.65 28.00 40.00 C 29.33 39.99 30.67 39.99 32.00 40.00 C 31.99 38.76 31.99 37.52 32.00 36.27 C 36.04 35.75 39.45 31.47 37.43 27.49 C 35.87 23.72 31.40 23.86 28.00 23.95 M 40.00 24.00 C 41.33 26.67 42.67 29.33 44.00 32.00 C 42.67 34.67 41.33 37.33 40.00 40.00 C 41.33 39.99 42.67 39.99 44.00 40.01 C 44.66 38.67 45.34 37.34 46.00 36.00 C 46.66 37.34 47.34 38.67 48.00 40.01 C 49.33 39.99 50.67 39.99 52.00 40.00 C 50.67 37.33 49.33 34.67 48.00 32.00 C 49.32 29.33 50.68 26.67 52.00 24.00 C 50.67 24.01 49.34 24.00 48.01 23.99 C 47.32 25.32 46.68 26.67 46.00 28.00 C 45.33 26.66 44.68 25.32 44.00 24.00 C 43.00 24.00 41.00 24.00 40.00 24.00 M 12.00 44.00 C 12.00 48.66 12.00 53.33 12.00 58.00 C 25.33 58.00 38.67 58.00 52.00 58.00 C 52.00 53.33 52.00 48.66 52.00 44.00 C 50.67 44.00 49.33 44.00 48.00 44.00 C 48.00 47.33 48.00 50.67 48.00 54.00 C 37.33 54.00 26.67 54.00 16.00 54.00 C 16.00 50.67 16.00 47.33 16.00 44.00 C 14.67 44.00 13.33 44.00 12.00 44.00 Z" />
<path fill="#ffffff" opacity="1.00" d=" M 32.23 28.32 C 34.15 27.43 34.56 31.59 32.73 31.92 C 31.42 31.40 31.73 29.35 32.23 28.32 Z" />
</g>
<g id="#000000ff">
<path fill="#000000" opacity="1.00" d=" M 12.00 6.00 C 25.33 6.00 38.67 6.00 52.00 6.00 C 52.00 10.67 52.00 15.34 52.00 20.00 C 50.67 20.00 49.33 20.00 48.00 20.00 C 48.00 16.67 48.00 13.33 48.00 10.00 C 37.33 10.00 26.67 10.00 16.00 10.00 C 16.00 13.33 16.00 16.67 16.00 20.00 C 14.67 20.00 13.33 20.00 12.00 20.00 C 12.00 15.34 12.00 10.67 12.00 6.00 Z" />
<path fill="#000000" opacity="1.00" d=" M 14.29 28.29 C 14.54 24.64 19.39 22.68 22.18 24.99 C 23.88 26.11 24.00 28.30 24.44 30.09 C 22.23 30.09 19.72 30.37 19.08 27.61 C 17.65 29.92 18.08 32.83 18.41 35.39 C 18.84 35.65 19.70 36.18 20.14 36.45 C 20.17 34.96 20.19 33.48 20.20 32.00 C 21.53 32.01 22.86 32.01 24.19 32.00 C 24.19 34.67 24.19 37.35 24.19 40.03 C 20.92 39.89 16.33 40.85 14.66 37.12 C 13.81 34.28 14.17 31.22 14.29 28.29 Z" />
<path fill="#000000" opacity="1.00" d=" M 28.00 23.95 C 31.40 23.86 35.87 23.72 37.43 27.49 C 39.45 31.47 36.04 35.75 32.00 36.27 C 31.99 37.52 31.99 38.76 32.00 40.00 C 30.67 39.99 29.33 39.99 28.00 40.00 C 28.00 34.65 28.00 29.30 28.00 23.95 M 32.23 28.32 C 31.73 29.35 31.42 31.40 32.73 31.92 C 34.56 31.59 34.15 27.43 32.23 28.32 Z" />
<path fill="#000000" opacity="1.00" d=" M 40.00 24.00 C 41.00 24.00 43.00 24.00 44.00 24.00 C 44.68 25.32 45.33 26.66 46.00 28.00 C 46.68 26.67 47.32 25.32 48.01 23.99 C 49.34 24.00 50.67 24.01 52.00 24.00 C 50.68 26.67 49.32 29.33 48.00 32.00 C 49.33 34.67 50.67 37.33 52.00 40.00 C 50.67 39.99 49.33 39.99 48.00 40.01 C 47.34 38.67 46.66 37.34 46.00 36.00 C 45.34 37.34 44.66 38.67 44.00 40.01 C 42.67 39.99 41.33 39.99 40.00 40.00 C 41.33 37.33 42.67 34.67 44.00 32.00 C 42.67 29.33 41.33 26.67 40.00 24.00 Z" />
<path fill="#000000" opacity="1.00" d=" M 12.00 44.00 C 13.33 44.00 14.67 44.00 16.00 44.00 C 16.00 47.33 16.00 50.67 16.00 54.00 C 26.67 54.00 37.33 54.00 48.00 54.00 C 48.00 50.67 48.00 47.33 48.00 44.00 C 49.33 44.00 50.67 44.00 52.00 44.00 C 52.00 48.66 52.00 53.33 52.00 58.00 C 38.67 58.00 25.33 58.00 12.00 58.00 C 12.00 53.33 12.00 48.66 12.00 44.00 Z" />
</g>
</svg>
