<?xml version="1.0" encoding="UTF-8" ?>
<!DOCTYPE svg PUBLIC "-//W3C//DTD SVG 1.1//EN" "http://www.w3.org/Graphics/SVG/1.1/DTD/svg11.dtd">
<svg width="64pt" height="64pt" viewBox="0 0 64 64" version="1.1" xmlns="http://www.w3.org/2000/svg">
<g id="#ffffffff">
<path fill="#ffffff" opacity="1.00" d=" M 0.00 0.00 L 64.00 0.00 L 64.00 64.00 L 0.00 64.00 L 0.00 0.00 M 16.03 5.76 C 16.02 7.06 16.01 8.36 16.00 9.66 C 19.82 10.80 20.87 15.74 24.87 16.26 C 24.64 14.56 24.36 12.87 24.11 11.17 C 22.02 8.60 19.42 6.31 16.03 5.76 M 25.95 6.00 C 25.91 10.07 26.22 14.19 27.71 18.02 C 23.88 18.32 19.04 16.83 16.08 20.05 C 13.74 22.45 14.67 25.99 14.88 28.95 C 15.18 32.89 16.03 36.82 15.81 40.77 C 15.67 42.48 12.41 42.51 12.22 40.83 C 11.33 35.21 13.02 29.29 11.10 23.83 C 10.37 21.52 8.18 20.36 6.02 19.72 C 6.02 20.98 6.03 22.24 6.05 23.50 C 10.46 29.07 6.10 36.99 8.87 43.15 C 11.39 47.75 19.28 46.35 19.88 41.08 C 20.00 35.33 18.59 29.67 18.53 23.93 C 18.39 22.07 20.64 21.97 21.93 22.00 C 29.30 22.09 36.68 21.79 44.04 22.15 C 44.36 22.38 45.00 22.83 45.32 23.06 C 45.74 26.99 44.74 30.92 44.48 34.84 C 44.28 37.96 43.11 41.82 45.76 44.25 C 48.32 46.94 53.20 46.38 55.11 43.20 C 57.93 37.04 53.50 29.07 57.95 23.50 C 57.97 22.24 57.98 20.98 57.97 19.72 C 56.05 20.38 53.91 21.22 53.16 23.31 C 50.79 28.86 52.75 35.07 51.77 40.85 C 51.64 42.48 48.31 42.46 48.22 40.83 C 47.75 34.58 50.12 28.31 49.15 22.10 C 47.25 16.72 40.70 18.10 36.29 18.02 C 37.77 14.18 38.09 10.07 38.05 6.00 C 36.72 6.00 35.38 6.00 34.05 6.00 C 34.05 9.91 33.92 13.96 32.00 17.48 C 30.08 13.95 29.94 9.91 29.95 6.00 C 28.62 6.00 27.28 6.00 25.95 6.00 M 39.11 16.25 C 43.13 15.79 44.16 10.77 48.00 9.66 C 47.99 8.36 47.98 7.06 47.97 5.75 C 42.94 6.62 38.84 11.01 39.11 16.25 M 11.73 12.05 C 12.34 14.24 13.62 16.10 15.21 17.69 C 16.86 16.97 18.56 16.32 20.31 15.89 C 18.44 15.00 16.84 13.70 15.64 12.02 C 14.33 12.02 13.03 12.03 11.73 12.05 M 48.35 12.02 C 47.17 13.72 45.56 15.02 43.68 15.88 C 45.44 16.33 47.14 16.97 48.81 17.69 C 50.38 16.09 51.64 14.23 52.27 12.06 C 50.97 12.03 49.66 12.02 48.35 12.02 M 21.72 24.04 C 23.25 27.78 25.78 31.10 26.57 35.12 C 27.89 41.00 27.74 47.61 32.00 52.39 C 36.24 47.60 36.11 40.99 37.42 35.10 C 38.22 31.09 40.75 27.77 42.28 24.04 C 35.43 23.97 28.57 23.97 21.72 24.04 M 24.02 50.05 C 24.69 52.41 27.19 53.45 28.67 55.24 C 29.92 56.24 30.79 58.46 32.73 57.86 C 34.91 55.66 37.20 53.58 39.43 51.43 C 41.05 49.54 38.81 47.62 37.62 46.30 C 36.47 48.77 35.71 51.67 33.48 53.44 C 32.39 54.45 30.86 53.95 29.98 52.95 C 28.24 51.07 27.52 48.53 26.44 46.27 C 25.49 47.42 24.10 48.43 24.02 50.05 Z" />
<path fill="#ffffff" opacity="1.00" d=" M 25.77 25.95 C 27.31 26.68 28.84 27.42 30.37 28.18 C 29.52 29.14 28.66 30.33 27.19 29.89 C 26.45 28.69 26.17 27.29 25.77 25.95 Z" />
<path fill="#ffffff" opacity="1.00" d=" M 33.62 28.19 C 35.15 27.43 36.69 26.68 38.23 25.95 C 37.83 27.29 37.54 28.68 36.81 29.89 C 35.34 30.33 34.48 29.13 33.62 28.19 Z" />
</g>
<g id="#000000ff">
<path fill="#000000" opacity="1.00" d=" M 16.03 5.76 C 19.42 6.31 22.02 8.60 24.11 11.17 C 24.36 12.87 24.64 14.56 24.87 16.26 C 20.87 15.74 19.82 10.80 16.00 9.66 C 16.01 8.36 16.02 7.06 16.03 5.76 Z" />
<path fill="#000000" opacity="1.00" d=" M 25.95 6.00 C 27.28 6.00 28.62 6.00 29.95 6.00 C 29.94 9.91 30.08 13.95 32.00 17.48 C 33.92 13.96 34.05 9.91 34.05 6.00 C 35.38 6.00 36.72 6.00 38.05 6.00 C 38.09 10.07 37.77 14.18 36.29 18.02 C 40.70 18.10 47.25 16.72 49.15 22.10 C 50.12 28.31 47.75 34.58 48.22 40.83 C 48.31 42.46 51.64 42.48 51.77 40.85 C 52.75 35.07 50.79 28.86 53.16 23.31 C 53.91 21.22 56.05 20.38 57.97 19.72 C 57.98 20.98 57.97 22.24 57.95 23.50 C 53.50 29.07 57.93 37.04 55.11 43.20 C 53.20 46.38 48.32 46.94 45.76 44.25 C 43.11 41.82 44.28 37.96 44.48 34.84 C 44.74 30.92 45.74 26.99 45.32 23.06 C 45.00 22.83 44.36 22.38 44.04 22.15 C 36.68 21.79 29.30 22.09 21.93 22.00 C 20.64 21.97 18.39 22.07 18.53 23.93 C 18.59 29.67 20.00 35.33 19.88 41.08 C 19.28 46.35 11.39 47.75 8.87 43.15 C 6.10 36.99 10.46 29.07 6.05 23.50 C 6.03 22.24 6.02 20.98 6.02 19.72 C 8.18 20.36 10.37 21.52 11.10 23.83 C 13.02 29.29 11.33 35.21 12.22 40.83 C 12.41 42.51 15.67 42.48 15.81 40.77 C 16.03 36.82 15.18 32.89 14.88 28.95 C 14.67 25.99 13.74 22.45 16.08 20.05 C 19.04 16.83 23.88 18.32 27.71 18.02 C 26.22 14.19 25.91 10.07 25.95 6.00 Z" />
<path fill="#000000" opacity="1.00" d=" M 39.11 16.25 C 38.84 11.01 42.94 6.62 47.97 5.75 C 47.98 7.06 47.99 8.36 48.00 9.66 C 44.16 10.77 43.13 15.79 39.11 16.25 Z" />
<path fill="#000000" opacity="1.00" d=" M 11.73 12.05 C 13.03 12.03 14.33 12.02 15.64 12.02 C 16.84 13.70 18.44 15.00 20.31 15.89 C 18.56 16.32 16.86 16.97 15.21 17.69 C 13.62 16.10 12.34 14.24 11.73 12.05 Z" />
<path fill="#000000" opacity="1.00" d=" M 48.35 12.02 C 49.66 12.02 50.97 12.03 52.27 12.06 C 51.64 14.23 50.38 16.09 48.81 17.69 C 47.14 16.97 45.44 16.33 43.68 15.88 C 45.56 15.02 47.17 13.72 48.35 12.02 Z" />
<path fill="#000000" opacity="1.00" d=" M 21.72 24.04 C 28.57 23.97 35.43 23.97 42.28 24.04 C 40.75 27.77 38.22 31.09 37.42 35.10 C 36.11 40.99 36.24 47.60 32.00 52.39 C 27.74 47.61 27.89 41.00 26.57 35.12 C 25.78 31.10 23.25 27.78 21.72 24.04 M 25.77 25.95 C 26.17 27.29 26.45 28.69 27.19 29.89 C 28.66 30.33 29.52 29.14 30.37 28.18 C 28.84 27.42 27.31 26.68 25.77 25.95 M 33.62 28.19 C 34.48 29.13 35.34 30.33 36.81 29.89 C 37.54 28.68 37.83 27.29 38.23 25.95 C 36.69 26.68 35.15 27.43 33.62 28.19 Z" />
<path fill="#000000" opacity="1.00" d=" M 24.02 50.05 C 24.10 48.43 25.49 47.42 26.44 46.27 C 27.52 48.53 28.24 51.07 29.98 52.95 C 30.86 53.95 32.39 54.45 33.48 53.44 C 35.71 51.67 36.47 48.77 37.62 46.30 C 38.81 47.62 41.05 49.54 39.43 51.43 C 37.20 53.58 34.91 55.66 32.73 57.86 C 30.79 58.46 29.92 56.24 28.67 55.24 C 27.19 53.45 24.69 52.41 24.02 50.05 Z" />
</g>
</svg>
