<?xml version="1.0" encoding="UTF-8" ?>
<!DOCTYPE svg PUBLIC "-//W3C//DTD SVG 1.1//EN" "http://www.w3.org/Graphics/SVG/1.1/DTD/svg11.dtd">
<svg width="64pt" height="64pt" viewBox="0 0 64 64" version="1.1" xmlns="http://www.w3.org/2000/svg">
<g id="#ffffffff">
<path fill="#ffffff" opacity="1.00" d=" M 0.00 0.00 L 64.00 0.00 L 64.00 64.00 L 0.00 64.00 L 0.00 0.00 M 15.01 13.09 C 9.23 17.81 7.25 25.92 8.32 33.06 C 9.60 39.39 15.41 43.08 20.51 46.23 C 22.04 51.31 26.20 56.29 31.97 55.99 C 37.73 56.31 41.92 51.38 43.47 46.30 C 48.51 43.07 54.35 39.44 55.66 33.12 C 56.68 26.38 55.01 18.82 49.98 13.97 C 45.48 9.68 39.07 8.15 33.01 8.03 C 26.72 7.89 20.00 9.01 15.01 13.09 Z" />
<path fill="#ffffff" opacity="1.00" d=" M 25.47 12.60 C 31.96 11.55 39.17 11.59 44.95 15.10 C 50.55 18.61 52.55 25.83 51.80 32.08 C 50.70 37.28 45.66 39.99 41.58 42.67 C 38.24 44.59 38.67 49.56 35.29 51.38 C 32.79 52.27 29.55 52.37 27.46 50.51 C 25.48 48.13 25.25 44.47 22.48 42.71 C 18.75 40.25 14.25 38.04 12.59 33.57 C 10.02 24.60 15.74 13.74 25.47 12.60 M 15.37 22.68 C 13.25 24.63 14.21 28.09 14.66 30.58 C 16.12 36.56 23.24 39.19 28.73 37.59 C 30.25 36.61 29.97 34.51 29.99 32.97 C 30.46 25.49 22.11 20.07 15.37 22.68 M 41.43 22.66 C 37.27 23.72 34.27 27.66 34.09 31.91 C 34.03 33.87 33.40 37.19 35.96 37.82 C 40.40 38.54 45.74 37.33 48.17 33.21 C 49.83 30.31 50.48 26.57 49.34 23.39 C 47.38 21.25 43.93 22.14 41.43 22.66 M 28.47 43.64 C 29.06 43.80 30.22 44.13 30.80 44.30 C 30.80 42.69 30.78 41.08 30.74 39.47 C 29.82 40.76 28.80 42.05 28.47 43.64 M 34.72 44.07 C 35.69 42.78 34.68 40.86 33.56 40.02 C 32.08 40.70 32.66 44.97 34.72 44.07 Z" />
<path fill="#ffffff" opacity="1.00" d=" M 17.99 25.93 C 20.08 26.25 22.43 26.33 24.05 27.89 C 25.80 29.48 25.87 31.98 26.16 34.16 C 23.99 33.87 21.49 33.79 19.90 32.06 C 18.32 30.43 18.23 28.05 17.99 25.93 Z" />
<path fill="#ffffff" opacity="1.00" d=" M 39.90 27.92 C 41.52 26.34 43.89 26.25 45.99 25.92 C 45.77 28.05 45.69 30.44 44.08 32.07 C 42.49 33.79 40.01 33.86 37.85 34.16 C 38.12 32.00 38.13 29.49 39.90 27.92 Z" />
</g>
<g id="#000000ff">
<path fill="#000000" opacity="1.00" d=" M 15.01 13.09 C 20.00 9.01 26.72 7.89 33.01 8.03 C 39.07 8.15 45.48 9.68 49.98 13.97 C 55.01 18.82 56.68 26.38 55.66 33.12 C 54.35 39.44 48.51 43.07 43.47 46.30 C 41.92 51.38 37.73 56.31 31.97 55.99 C 26.20 56.29 22.04 51.31 20.51 46.23 C 15.41 43.08 9.60 39.39 8.32 33.06 C 7.25 25.92 9.23 17.81 15.01 13.09 M 25.47 12.60 C 15.74 13.74 10.02 24.60 12.59 33.57 C 14.25 38.04 18.75 40.25 22.48 42.71 C 25.25 44.47 25.48 48.13 27.46 50.51 C 29.55 52.37 32.79 52.27 35.29 51.38 C 38.67 49.56 38.24 44.59 41.58 42.67 C 45.66 39.99 50.70 37.28 51.80 32.08 C 52.55 25.83 50.55 18.61 44.95 15.10 C 39.17 11.59 31.96 11.55 25.47 12.60 Z" />
<path fill="#000000" opacity="1.00" d=" M 15.37 22.68 C 22.11 20.07 30.46 25.49 29.99 32.97 C 29.97 34.51 30.25 36.61 28.73 37.59 C 23.24 39.19 16.12 36.56 14.66 30.58 C 14.21 28.09 13.25 24.63 15.37 22.68 M 17.99 25.93 C 18.23 28.05 18.32 30.43 19.90 32.06 C 21.49 33.79 23.99 33.87 26.16 34.16 C 25.87 31.98 25.80 29.48 24.05 27.89 C 22.43 26.33 20.08 26.25 17.99 25.93 Z" />
<path fill="#000000" opacity="1.00" d=" M 41.43 22.66 C 43.93 22.14 47.38 21.25 49.34 23.39 C 50.48 26.57 49.83 30.31 48.17 33.21 C 45.74 37.33 40.40 38.54 35.96 37.82 C 33.40 37.19 34.03 33.87 34.09 31.91 C 34.27 27.66 37.27 23.72 41.43 22.66 M 39.90 27.92 C 38.13 29.49 38.12 32.00 37.85 34.16 C 40.01 33.86 42.49 33.79 44.08 32.07 C 45.69 30.44 45.77 28.05 45.99 25.92 C 43.89 26.25 41.52 26.34 39.90 27.92 Z" />
<path fill="#000000" opacity="1.00" d=" M 28.47 43.64 C 28.80 42.05 29.82 40.76 30.74 39.47 C 30.78 41.08 30.80 42.69 30.80 44.30 C 30.22 44.13 29.06 43.80 28.47 43.64 Z" />
<path fill="#000000" opacity="1.00" d=" M 34.72 44.07 C 32.66 44.97 32.08 40.70 33.56 40.02 C 34.68 40.86 35.69 42.78 34.72 44.07 Z" />
</g>
</svg>
