<?xml version="1.0" encoding="UTF-8" ?>
<!DOCTYPE svg PUBLIC "-//W3C//DTD SVG 1.1//EN" "http://www.w3.org/Graphics/SVG/1.1/DTD/svg11.dtd">
<svg width="64pt" height="64pt" viewBox="0 0 64 64" version="1.1" xmlns="http://www.w3.org/2000/svg">
<g id="#ffffffff">
<path fill="#ffffff" opacity="1.00" d=" M 0.00 0.00 L 64.00 0.00 L 64.00 64.00 L 0.00 64.00 L 0.00 0.00 M 30.00 10.00 C 30.00 18.00 30.00 25.99 29.99 33.99 C 23.33 34.00 16.66 34.00 10.00 34.00 C 10.00 35.34 10.00 36.67 10.00 38.00 C 24.67 37.99 39.33 37.99 54.00 38.01 C 54.00 36.67 54.00 35.34 54.00 34.00 C 47.33 34.00 40.67 34.00 34.00 34.00 C 34.00 26.00 34.00 18.00 34.00 10.00 C 32.66 10.00 31.33 10.00 30.00 10.00 M 16.00 41.99 C 16.00 43.33 16.00 44.67 16.00 46.00 C 26.67 45.99 37.33 45.99 48.00 46.01 C 48.00 44.67 48.00 43.33 48.00 42.00 C 37.33 42.01 26.67 42.01 16.00 41.99 M 22.00 50.00 C 22.00 51.33 22.00 52.67 22.00 54.00 C 28.67 54.00 35.33 54.00 42.00 54.00 C 42.00 52.67 42.00 51.33 42.00 50.00 C 35.33 50.00 28.67 50.00 22.00 50.00 Z" />
</g>
<g id="#000000ff">
<path fill="#000000" opacity="1.00" d=" M 30.00 10.00 C 31.33 10.00 32.66 10.00 34.00 10.00 C 34.00 18.00 34.00 26.00 34.00 34.00 C 40.67 34.00 47.33 34.00 54.00 34.00 C 54.00 35.34 54.00 36.67 54.00 38.01 C 39.33 37.99 24.67 37.99 10.00 38.00 C 10.00 36.67 10.00 35.34 10.00 34.00 C 16.66 34.00 23.33 34.00 29.99 33.99 C 30.00 25.99 30.00 18.00 30.00 10.00 Z" />
<path fill="#000000" opacity="1.00" d=" M 16.00 41.99 C 26.67 42.01 37.33 42.01 48.00 42.00 C 48.00 43.33 48.00 44.67 48.00 46.01 C 37.33 45.99 26.67 45.99 16.00 46.00 C 16.00 44.67 16.00 43.33 16.00 41.99 Z" />
<path fill="#000000" opacity="1.00" d=" M 22.00 50.00 C 28.67 50.00 35.33 50.00 42.00 50.00 C 42.00 51.33 42.00 52.67 42.00 54.00 C 35.33 54.00 28.67 54.00 22.00 54.00 C 22.00 52.67 22.00 51.33 22.00 50.00 Z" />
</g>
</svg>
