<?xml version="1.0" encoding="UTF-8" ?>
<!DOCTYPE svg PUBLIC "-//W3C//DTD SVG 1.1//EN" "http://www.w3.org/Graphics/SVG/1.1/DTD/svg11.dtd">
<svg width="64pt" height="64pt" viewBox="0 0 64 64" version="1.1" xmlns="http://www.w3.org/2000/svg">
<g id="#ffffffff">
<path fill="#ffffff" opacity="1.00" d=" M 0.00 0.00 L 64.00 0.00 L 64.00 64.00 L 0.00 64.00 L 0.00 0.00 M 48.01 12.00 C 48.01 12.50 47.99 13.50 47.99 14.00 C 35.62 14.00 23.26 14.00 10.89 14.00 C 8.97 17.86 5.24 21.24 5.92 25.92 C 7.32 26.06 8.71 26.13 10.11 26.15 C 9.82 35.06 4.65 43.11 3.86 52.00 C 9.08 52.00 14.29 52.01 19.51 51.99 C 20.92 47.34 22.36 42.71 23.79 38.08 C 28.40 38.05 33.55 37.43 36.90 33.90 C 39.06 31.84 39.77 28.85 40.13 26.00 C 46.09 26.00 52.04 26.00 57.99 26.00 C 57.99 25.50 58.00 24.50 58.01 24.01 C 58.51 24.00 59.50 23.99 60.00 23.99 C 60.00 21.33 60.00 18.67 60.00 16.01 C 59.50 16.01 58.50 16.00 58.01 15.99 C 58.00 15.49 57.99 14.50 57.99 14.00 C 56.66 14.00 55.34 14.00 54.01 14.00 C 54.01 13.50 53.99 12.50 53.99 12.00 C 52.00 12.00 50.00 12.00 48.01 12.00 Z" />
<path fill="#ffffff" opacity="1.00" d=" M 10.60 22.16 C 11.43 20.77 12.27 19.39 13.08 18.00 C 26.72 18.00 40.36 18.00 54.00 18.00 C 54.00 19.33 54.00 20.67 54.00 22.00 C 41.57 21.98 29.14 22.03 16.72 21.98 C 17.24 23.32 17.75 24.66 18.25 26.01 C 19.92 25.99 21.58 26.00 23.25 26.01 C 21.01 33.34 18.74 40.66 16.51 47.99 C 13.90 48.00 11.29 48.00 8.69 48.00 C 10.47 41.63 12.75 35.39 14.23 28.94 C 14.94 26.04 13.02 23.48 10.60 22.16 Z" />
<path fill="#ffffff" opacity="1.00" d=" M 29.67 26.04 C 31.84 26.03 34.01 26.00 36.18 26.01 C 36.23 31.89 30.04 34.24 25.06 34.12 C 25.55 32.42 26.05 30.73 26.52 29.03 C 27.98 30.66 29.87 31.75 32.00 32.23 C 32.49 29.73 31.62 27.60 29.67 26.04 Z" />
</g>
<g id="#000000ff">
<path fill="#000000" opacity="1.00" d=" M 48.01 12.00 C 50.00 12.00 52.00 12.00 53.99 12.00 C 53.99 12.50 54.01 13.50 54.01 14.00 C 55.34 14.00 56.66 14.00 57.99 14.00 C 57.99 14.50 58.00 15.49 58.01 15.99 C 58.50 16.00 59.50 16.01 60.00 16.01 C 60.00 18.67 60.00 21.33 60.00 23.99 C 59.50 23.99 58.51 24.00 58.01 24.01 C 58.00 24.50 57.99 25.50 57.99 26.00 C 52.04 26.00 46.09 26.00 40.13 26.00 C 39.77 28.85 39.06 31.84 36.90 33.90 C 33.55 37.43 28.40 38.05 23.79 38.08 C 22.36 42.71 20.92 47.34 19.51 51.99 C 14.29 52.01 9.08 52.00 3.86 52.00 C 4.65 43.11 9.82 35.06 10.11 26.15 C 8.71 26.13 7.32 26.06 5.92 25.92 C 5.24 21.24 8.97 17.86 10.89 14.00 C 23.26 14.00 35.62 14.00 47.99 14.00 C 47.99 13.50 48.01 12.50 48.01 12.00 M 10.60 22.16 C 13.02 23.48 14.94 26.04 14.23 28.94 C 12.75 35.39 10.47 41.63 8.69 48.00 C 11.29 48.00 13.90 48.00 16.51 47.99 C 18.74 40.66 21.01 33.34 23.25 26.01 C 21.58 26.00 19.92 25.99 18.25 26.01 C 17.75 24.66 17.24 23.32 16.72 21.98 C 29.14 22.03 41.57 21.98 54.00 22.00 C 54.00 20.67 54.00 19.33 54.00 18.00 C 40.36 18.00 26.72 18.00 13.08 18.00 C 12.27 19.39 11.43 20.77 10.60 22.16 M 29.67 26.04 C 31.62 27.60 32.49 29.73 32.00 32.23 C 29.87 31.75 27.98 30.66 26.52 29.03 C 26.05 30.73 25.55 32.42 25.06 34.12 C 30.04 34.24 36.23 31.89 36.18 26.01 C 34.01 26.00 31.84 26.03 29.67 26.04 Z" />
</g>
</svg>
