<?xml version="1.0" encoding="UTF-8" ?>
<!DOCTYPE svg PUBLIC "-//W3C//DTD SVG 1.1//EN" "http://www.w3.org/Graphics/SVG/1.1/DTD/svg11.dtd">
<svg width="64pt" height="64pt" viewBox="0 0 64 64" version="1.1" xmlns="http://www.w3.org/2000/svg">
<g id="#ffffffff">
<path fill="#ffffff" opacity="1.00" d=" M 0.00 0.00 L 64.00 0.00 L 64.00 36.83 C 63.53 33.04 61.32 29.59 58.05 27.61 C 57.82 20.52 50.72 14.68 43.71 16.23 C 40.83 12.20 35.93 9.52 30.90 10.08 C 25.08 10.46 19.87 14.92 18.48 20.57 C 16.05 21.73 13.99 23.59 12.77 26.02 C 6.31 25.55 0.28 30.88 0.00 37.36 L 0.00 0.00 Z" />
<path fill="#ffffff" opacity="1.00" d=" M 29.55 14.34 C 34.59 12.86 39.98 16.17 41.66 20.99 C 43.93 20.32 46.37 19.47 48.69 20.49 C 52.56 21.75 54.66 26.12 53.86 30.01 C 59.31 31.47 62.03 38.70 58.16 43.07 C 54.74 47.38 48.76 45.64 44.03 46.02 C 42.96 47.29 42.01 48.65 41.02 49.99 C 45.06 49.96 49.11 50.12 53.15 49.89 C 58.91 49.48 63.67 44.38 64.00 38.66 L 64.00 64.00 L 0.00 64.00 L 0.00 38.59 C 0.28 42.46 2.38 46.25 5.79 48.19 C 10.02 50.90 15.25 49.77 19.97 49.98 C 21.04 48.71 22.00 47.35 22.97 46.01 C 18.68 45.85 14.33 46.31 10.07 45.74 C 5.08 44.69 2.37 38.36 5.07 34.02 C 7.10 30.22 11.93 29.29 15.77 30.56 C 15.82 27.11 18.51 24.27 21.89 23.84 C 22.24 19.51 25.19 15.35 29.55 14.34 M 34.02 40.00 C 35.31 42.02 36.67 43.99 38.00 45.99 C 39.28 43.96 40.65 42.00 41.97 40.00 C 40.70 37.97 39.32 36.01 38.00 34.01 C 36.67 36.00 35.32 37.98 34.02 40.00 M 26.02 50.01 C 27.34 52.00 28.67 54.00 30.00 55.99 C 31.27 53.96 32.66 52.01 33.96 50.00 C 32.71 47.96 31.31 46.01 30.00 44.01 C 28.67 46.01 27.31 47.99 26.02 50.01 Z" />
</g>
<g id="#000000ff">
<path fill="#000000" opacity="1.00" d=" M 18.48 20.57 C 19.87 14.92 25.08 10.46 30.90 10.08 C 35.93 9.52 40.83 12.20 43.71 16.23 C 50.72 14.68 57.82 20.52 58.05 27.61 C 61.32 29.59 63.53 33.04 64.00 36.83 L 64.00 38.66 C 63.67 44.38 58.91 49.48 53.15 49.89 C 49.11 50.12 45.06 49.96 41.02 49.99 C 42.01 48.65 42.96 47.29 44.03 46.02 C 48.76 45.64 54.74 47.38 58.16 43.07 C 62.03 38.70 59.31 31.47 53.86 30.01 C 54.66 26.12 52.56 21.75 48.69 20.49 C 46.37 19.47 43.93 20.32 41.66 20.99 C 39.98 16.17 34.59 12.86 29.55 14.34 C 25.19 15.35 22.24 19.51 21.89 23.84 C 18.51 24.27 15.82 27.11 15.77 30.56 C 11.93 29.29 7.10 30.22 5.07 34.02 C 2.37 38.36 5.08 44.69 10.07 45.74 C 14.33 46.31 18.68 45.85 22.97 46.01 C 22.00 47.35 21.04 48.71 19.97 49.98 C 15.25 49.77 10.02 50.90 5.79 48.19 C 2.38 46.25 0.28 42.46 0.00 38.59 L 0.00 37.36 C 0.28 30.88 6.31 25.55 12.77 26.02 C 13.99 23.59 16.05 21.73 18.48 20.57 Z" />
<path fill="#000000" opacity="1.00" d=" M 34.02 40.00 C 35.32 37.98 36.67 36.00 38.00 34.01 C 39.32 36.01 40.70 37.97 41.97 40.00 C 40.65 42.00 39.28 43.96 38.00 45.99 C 36.67 43.99 35.31 42.02 34.02 40.00 Z" />
<path fill="#000000" opacity="1.00" d=" M 26.02 50.01 C 27.31 47.99 28.67 46.01 30.00 44.01 C 31.31 46.01 32.71 47.96 33.96 50.00 C 32.66 52.01 31.27 53.96 30.00 55.99 C 28.67 54.00 27.34 52.00 26.02 50.01 Z" />
</g>
</svg>
