<?xml version="1.0" encoding="UTF-8" ?>
<!DOCTYPE svg PUBLIC "-//W3C//DTD SVG 1.1//EN" "http://www.w3.org/Graphics/SVG/1.1/DTD/svg11.dtd">
<svg width="64pt" height="64pt" viewBox="0 0 64 64" version="1.1" xmlns="http://www.w3.org/2000/svg">
<g id="#ffffffff">
<path fill="#ffffff" opacity="1.00" d=" M 0.00 0.00 L 64.00 0.00 L 64.00 64.00 L 0.00 64.00 L 0.00 0.00 M 37.69 4.57 C 36.73 5.52 35.78 6.47 34.82 7.42 C 38.05 10.86 41.67 13.96 44.72 17.55 C 44.75 17.96 44.81 18.76 44.84 19.17 C 40.65 16.17 37.46 12.02 33.67 8.56 C 32.73 9.53 31.77 10.49 30.82 11.46 C 34.38 15.00 37.95 18.55 41.47 22.13 C 41.09 22.27 40.33 22.55 39.95 22.69 C 36.37 19.49 33.15 15.91 29.70 12.56 C 28.74 13.53 27.78 14.49 26.81 15.45 C 30.37 19.01 33.96 22.54 37.47 26.14 C 37.09 26.28 36.34 26.56 35.96 26.70 C 32.39 23.50 29.17 19.93 25.72 16.59 C 24.74 17.50 23.77 18.43 22.79 19.33 C 26.27 23.00 29.94 26.48 33.45 30.12 C 33.09 30.27 32.35 30.58 31.99 30.73 C 28.40 27.50 25.14 23.91 21.67 20.54 C 20.70 21.53 19.81 22.60 18.79 23.54 C 22.34 26.85 25.70 30.35 29.13 33.78 C 24.22 38.66 19.33 43.57 14.46 48.50 C 12.48 50.32 12.52 53.74 14.46 55.57 C 16.32 57.48 19.71 57.48 21.52 55.51 C 25.87 51.16 30.15 46.74 34.46 42.35 C 39.63 43.23 44.23 40.10 47.91 36.86 C 52.42 32.81 56.19 27.22 56.24 20.97 C 56.13 17.28 52.51 15.29 50.34 12.78 C 49.78 13.33 48.68 14.45 48.13 15.01 C 44.65 11.53 41.18 8.04 37.69 4.57 Z" />
<path fill="#ffffff" opacity="1.00" d=" M 31.32 37.31 C 37.96 31.09 44.04 24.29 50.81 18.24 C 53.39 21.42 51.69 25.59 49.74 28.59 C 47.03 32.60 43.32 36.06 38.90 38.09 C 37.16 39.00 35.18 38.80 33.76 37.39 C 28.51 42.58 23.57 48.11 18.09 53.05 C 17.80 52.76 17.24 52.18 16.95 51.89 C 21.52 46.83 26.57 42.21 31.32 37.31 Z" />
</g>
<g id="#000000ff">
<path fill="#000000" opacity="1.00" d=" M 37.69 4.57 C 41.18 8.04 44.65 11.53 48.13 15.01 C 48.68 14.45 49.78 13.33 50.34 12.78 C 52.51 15.29 56.13 17.28 56.24 20.97 C 56.19 27.22 52.42 32.81 47.91 36.86 C 44.23 40.10 39.63 43.23 34.46 42.35 C 30.15 46.74 25.87 51.16 21.52 55.51 C 19.71 57.48 16.32 57.48 14.46 55.57 C 12.52 53.74 12.48 50.32 14.46 48.50 C 19.33 43.57 24.22 38.66 29.13 33.78 C 25.70 30.35 22.34 26.85 18.79 23.54 C 19.81 22.60 20.70 21.53 21.67 20.54 C 25.14 23.91 28.40 27.50 31.99 30.73 C 32.35 30.58 33.09 30.27 33.45 30.12 C 29.94 26.48 26.27 23.00 22.79 19.33 C 23.77 18.43 24.74 17.50 25.72 16.59 C 29.17 19.93 32.39 23.50 35.96 26.70 C 36.34 26.56 37.09 26.28 37.47 26.14 C 33.96 22.54 30.37 19.01 26.81 15.45 C 27.78 14.49 28.74 13.53 29.70 12.56 C 33.15 15.91 36.37 19.49 39.95 22.69 C 40.33 22.55 41.09 22.27 41.47 22.13 C 37.95 18.55 34.38 15.00 30.82 11.46 C 31.77 10.49 32.73 9.53 33.67 8.56 C 37.46 12.02 40.65 16.17 44.84 19.17 C 44.81 18.76 44.75 17.96 44.72 17.55 C 41.67 13.96 38.05 10.86 34.82 7.42 C 35.78 6.47 36.73 5.52 37.69 4.57 M 31.32 37.31 C 26.57 42.21 21.52 46.83 16.95 51.89 C 17.24 52.18 17.80 52.76 18.09 53.05 C 23.57 48.11 28.51 42.58 33.76 37.39 C 35.18 38.80 37.16 39.00 38.90 38.09 C 43.32 36.06 47.03 32.60 49.74 28.59 C 51.69 25.59 53.39 21.42 50.81 18.24 C 44.04 24.29 37.96 31.09 31.32 37.31 Z" />
</g>
</svg>
