<?xml version="1.0" encoding="UTF-8" ?>
<!DOCTYPE svg PUBLIC "-//W3C//DTD SVG 1.1//EN" "http://www.w3.org/Graphics/SVG/1.1/DTD/svg11.dtd">
<svg width="64pt" height="64pt" viewBox="0 0 64 64" version="1.1" xmlns="http://www.w3.org/2000/svg">
<g id="#ffffffff">
<path fill="#ffffff" opacity="1.00" d=" M 0.00 0.00 L 64.00 0.00 L 64.00 64.00 L 0.00 64.00 L 0.00 0.00 M 6.17 20.47 C 5.77 31.64 6.11 42.83 6.00 54.00 C 23.33 54.00 40.67 54.00 58.00 54.00 C 58.00 42.89 57.99 31.79 58.00 20.68 C 49.39 16.96 40.69 13.42 32.02 9.81 C 23.40 13.36 14.87 17.12 6.17 20.47 Z" />
<path fill="#ffffff" opacity="1.00" d=" M 10.01 23.37 C 17.34 20.33 24.68 17.30 31.99 14.18 C 39.34 17.17 46.64 20.31 53.98 23.35 C 54.03 32.23 53.99 41.12 54.00 50.00 C 52.67 50.00 51.33 49.99 50.00 50.00 C 50.00 42.67 50.00 35.33 50.00 28.00 C 38.00 28.00 26.00 28.00 14.00 28.00 C 14.00 35.33 14.00 42.67 14.00 50.00 C 12.67 49.99 11.33 49.99 10.00 50.00 C 10.00 41.13 9.99 32.25 10.01 23.37 Z" />
<path fill="#ffffff" opacity="1.00" d=" M 18.00 32.00 C 27.33 32.00 36.67 32.00 46.00 32.00 C 46.00 38.00 46.00 44.00 46.00 50.00 C 36.67 50.00 27.33 50.00 18.00 50.00 C 18.00 44.00 18.00 38.00 18.00 32.00 Z" />
</g>
<g id="#000000ff">
<path fill="#000000" opacity="1.00" d=" M 6.17 20.47 C 14.87 17.12 23.40 13.36 32.02 9.81 C 40.69 13.42 49.39 16.96 58.00 20.68 C 57.99 31.79 58.00 42.89 58.00 54.00 C 40.67 54.00 23.33 54.00 6.00 54.00 C 6.11 42.83 5.77 31.64 6.17 20.47 M 10.01 23.37 C 9.99 32.25 10.00 41.13 10.00 50.00 C 11.33 49.99 12.67 49.99 14.00 50.00 C 14.00 42.67 14.00 35.33 14.00 28.00 C 26.00 28.00 38.00 28.00 50.00 28.00 C 50.00 35.33 50.00 42.67 50.00 50.00 C 51.33 49.99 52.67 50.00 54.00 50.00 C 53.99 41.12 54.03 32.23 53.98 23.35 C 46.64 20.31 39.34 17.17 31.99 14.18 C 24.68 17.30 17.34 20.33 10.01 23.37 M 18.00 32.00 C 18.00 38.00 18.00 44.00 18.00 50.00 C 27.33 50.00 36.67 50.00 46.00 50.00 C 46.00 44.00 46.00 38.00 46.00 32.00 C 36.67 32.00 27.33 32.00 18.00 32.00 Z" />
</g>
</svg>
