<?xml version="1.0" encoding="UTF-8" ?>
<!DOCTYPE svg PUBLIC "-//W3C//DTD SVG 1.1//EN" "http://www.w3.org/Graphics/SVG/1.1/DTD/svg11.dtd">
<svg width="64pt" height="64pt" viewBox="0 0 64 64" version="1.1" xmlns="http://www.w3.org/2000/svg">
<g id="#ffffffff">
<path fill="#ffffff" opacity="1.00" d=" M 0.00 0.00 L 64.00 0.00 L 64.00 64.00 L 0.00 64.00 L 0.00 0.00 M 10.47 23.43 C 7.89 29.26 7.67 35.83 8.40 42.08 C 8.73 45.85 9.98 49.83 8.22 53.43 C 8.99 54.23 9.78 55.02 10.57 55.79 C 14.23 53.95 18.32 55.19 22.16 55.56 C 28.60 56.42 35.38 56.00 41.32 53.20 C 48.90 49.67 54.28 42.21 55.96 34.11 C 56.04 27.05 51.76 20.81 46.89 16.07 C 42.32 11.73 36.46 7.84 29.92 8.06 C 21.55 9.76 13.85 15.48 10.47 23.43 Z" />
<path fill="#ffffff" opacity="1.00" d=" M 28.51 13.46 C 30.37 10.82 33.99 12.52 36.36 13.49 C 43.57 17.25 50.06 23.79 51.86 31.93 C 52.61 34.18 50.30 36.62 48.02 35.85 C 46.42 35.54 46.09 33.79 45.44 32.56 C 44.33 32.34 43.22 32.13 42.11 31.91 C 41.42 32.63 40.74 33.35 40.06 34.07 C 36.65 34.58 36.26 31.22 34.94 29.06 C 32.78 27.73 29.42 27.36 29.92 23.93 C 30.67 23.24 31.41 22.54 32.15 21.84 C 31.96 20.74 31.76 19.63 31.57 18.53 C 29.24 18.16 26.93 15.84 28.51 13.46 M 37.92 17.88 C 38.37 21.97 42.01 25.65 46.13 26.05 C 45.52 22.01 42.02 18.36 37.92 17.88 Z" />
<path fill="#ffffff" opacity="1.00" d=" M 13.07 27.95 C 14.59 22.16 18.71 17.45 23.73 14.33 C 24.01 16.92 25.04 19.29 26.93 21.08 C 24.54 25.47 27.05 30.99 31.89 32.11 C 33.00 36.95 38.53 39.45 42.91 37.06 C 44.73 38.97 47.12 40.00 49.73 40.27 C 46.61 45.30 41.87 49.45 36.04 50.93 C 28.57 53.27 20.85 50.94 13.28 50.71 C 12.99 43.15 10.75 35.41 13.07 27.95 Z" />
</g>
<g id="#000000ff">
<path fill="#000000" opacity="1.00" d=" M 10.47 23.43 C 13.85 15.48 21.55 9.76 29.92 8.06 C 36.46 7.84 42.32 11.73 46.89 16.07 C 51.76 20.81 56.04 27.05 55.96 34.11 C 54.28 42.21 48.90 49.67 41.32 53.20 C 35.38 56.00 28.60 56.42 22.16 55.56 C 18.32 55.19 14.23 53.95 10.57 55.79 C 9.78 55.02 8.99 54.23 8.22 53.43 C 9.98 49.83 8.73 45.85 8.40 42.08 C 7.67 35.83 7.89 29.26 10.47 23.43 M 28.51 13.46 C 26.93 15.84 29.24 18.16 31.57 18.53 C 31.76 19.63 31.96 20.74 32.15 21.84 C 31.41 22.54 30.67 23.24 29.92 23.93 C 29.42 27.36 32.78 27.73 34.94 29.06 C 36.26 31.22 36.65 34.58 40.06 34.07 C 40.74 33.35 41.42 32.63 42.11 31.91 C 43.22 32.13 44.33 32.34 45.44 32.56 C 46.09 33.79 46.42 35.54 48.02 35.85 C 50.30 36.62 52.61 34.18 51.86 31.93 C 50.06 23.79 43.57 17.25 36.36 13.49 C 33.99 12.52 30.37 10.82 28.51 13.46 M 13.07 27.95 C 10.75 35.41 12.99 43.15 13.28 50.71 C 20.85 50.94 28.57 53.27 36.04 50.93 C 41.87 49.45 46.61 45.30 49.73 40.27 C 47.12 40.00 44.73 38.97 42.91 37.06 C 38.53 39.45 33.00 36.95 31.89 32.11 C 27.05 30.99 24.54 25.47 26.93 21.08 C 25.04 19.29 24.01 16.92 23.73 14.33 C 18.71 17.45 14.59 22.16 13.07 27.95 Z" />
<path fill="#000000" opacity="1.00" d=" M 37.92 17.88 C 42.02 18.36 45.52 22.01 46.13 26.05 C 42.01 25.65 38.37 21.97 37.92 17.88 Z" />
</g>
</svg>
