<?xml version="1.0" encoding="UTF-8" ?>
<!DOCTYPE svg PUBLIC "-//W3C//DTD SVG 1.1//EN" "http://www.w3.org/Graphics/SVG/1.1/DTD/svg11.dtd">
<svg width="64pt" height="64pt" viewBox="0 0 64 64" version="1.1" xmlns="http://www.w3.org/2000/svg">
<g id="#ffffffff">
<path fill="#ffffff" opacity="1.00" d=" M 0.00 0.00 L 64.00 0.00 L 64.00 64.00 L 0.00 64.00 L 0.00 0.00 M 11.03 9.02 C 6.35 11.67 2.00 16.24 2.03 21.95 C 2.03 26.68 1.76 31.44 2.25 36.15 C 3.40 42.11 8.72 46.06 13.93 48.43 C 14.02 50.94 13.85 53.48 14.19 55.98 C 14.72 58.55 17.38 60.22 19.94 59.99 C 27.99 60.01 36.04 60.02 44.09 59.99 C 46.62 60.20 49.24 58.55 49.80 56.01 C 50.14 53.50 49.98 50.94 50.08 48.41 C 54.27 46.48 58.35 43.74 60.55 39.56 C 62.53 36.04 61.90 31.85 62.01 27.98 C 61.96 23.65 62.56 18.84 59.79 15.13 C 55.40 8.89 47.76 6.01 40.51 4.71 C 30.59 3.14 19.92 4.05 11.03 9.02 Z" />
<path fill="#ffffff" opacity="1.00" d=" M 14.88 11.57 C 25.40 6.90 37.91 6.87 48.52 11.29 C 53.73 13.46 59.19 18.20 57.86 24.48 C 49.12 17.04 37.00 15.11 25.89 16.38 C 18.71 17.15 11.69 19.78 6.15 24.48 C 4.84 18.46 9.88 13.76 14.88 11.57 Z" />
<path fill="#ffffff" opacity="1.00" d=" M 8.47 28.03 C 14.71 22.08 23.63 20.08 32.01 20.02 C 40.38 20.08 49.29 22.09 55.54 28.01 C 53.82 29.47 51.99 30.77 50.10 31.98 C 48.94 30.20 47.52 28.07 45.13 28.07 C 36.38 27.94 27.62 27.95 18.87 28.07 C 16.48 28.06 15.05 30.18 13.94 31.99 C 12.03 30.80 10.19 29.49 8.47 28.03 Z" />
<path fill="#ffffff" opacity="1.00" d=" M 5.90 31.18 C 8.32 33.28 10.96 35.13 13.91 36.41 C 14.03 38.96 14.01 41.51 13.96 44.06 C 9.19 41.56 5.00 36.99 5.90 31.18 Z" />
<path fill="#ffffff" opacity="1.00" d=" M 18.30 32.35 C 26.12 31.51 34.11 32.26 42.00 31.98 C 43.42 32.09 46.34 31.45 45.97 33.83 C 46.03 40.60 46.02 47.37 45.98 54.14 C 46.38 56.50 43.48 55.92 42.08 56.03 C 34.16 55.73 26.14 56.50 18.29 55.64 C 17.81 47.94 17.78 40.05 18.30 32.35 M 29.36 36.46 C 25.53 37.71 23.16 42.13 24.28 46.01 C 25.25 50.12 29.83 52.87 33.91 51.75 C 38.09 50.81 40.91 46.16 39.73 42.02 C 38.73 37.62 33.60 34.83 29.36 36.46 Z" />
<path fill="#ffffff" opacity="1.00" d=" M 50.10 36.39 C 53.06 35.13 55.68 33.26 58.10 31.18 C 58.99 36.99 54.80 41.56 50.04 44.06 C 49.99 41.50 49.97 38.94 50.10 36.39 Z" />
<path fill="#ffffff" opacity="1.00" d=" M 30.30 40.41 C 32.79 38.98 36.12 41.26 35.99 44.04 C 36.13 47.12 32.08 49.24 29.69 47.21 C 27.17 45.66 27.62 41.54 30.30 40.41 Z" />
</g>
<g id="#000000ff">
<path fill="#000000" opacity="1.00" d=" M 11.03 9.02 C 19.92 4.05 30.59 3.14 40.51 4.71 C 47.76 6.01 55.40 8.89 59.79 15.13 C 62.56 18.84 61.96 23.65 62.01 27.98 C 61.90 31.85 62.53 36.04 60.55 39.56 C 58.35 43.74 54.27 46.48 50.08 48.41 C 49.98 50.94 50.14 53.50 49.80 56.01 C 49.24 58.55 46.62 60.20 44.09 59.99 C 36.04 60.02 27.99 60.01 19.94 59.99 C 17.38 60.22 14.72 58.55 14.19 55.98 C 13.85 53.48 14.02 50.94 13.93 48.43 C 8.72 46.06 3.40 42.11 2.25 36.15 C 1.76 31.44 2.03 26.68 2.03 21.95 C 2.00 16.24 6.35 11.67 11.03 9.02 M 14.88 11.57 C 9.88 13.76 4.84 18.46 6.15 24.48 C 11.69 19.78 18.71 17.15 25.89 16.38 C 37.00 15.11 49.12 17.04 57.86 24.48 C 59.19 18.20 53.73 13.46 48.52 11.29 C 37.91 6.87 25.40 6.90 14.88 11.57 M 8.47 28.03 C 10.19 29.49 12.03 30.80 13.94 31.99 C 15.05 30.18 16.48 28.06 18.87 28.07 C 27.62 27.95 36.38 27.94 45.13 28.07 C 47.52 28.07 48.94 30.20 50.10 31.98 C 51.99 30.77 53.82 29.47 55.54 28.01 C 49.29 22.09 40.38 20.08 32.01 20.02 C 23.63 20.08 14.71 22.08 8.47 28.03 M 5.90 31.18 C 5.00 36.99 9.19 41.56 13.96 44.06 C 14.01 41.51 14.03 38.96 13.91 36.41 C 10.96 35.13 8.32 33.28 5.90 31.18 M 18.30 32.35 C 17.78 40.05 17.81 47.94 18.29 55.64 C 26.14 56.50 34.16 55.73 42.08 56.03 C 43.48 55.92 46.38 56.50 45.98 54.14 C 46.02 47.37 46.03 40.60 45.97 33.83 C 46.34 31.45 43.42 32.09 42.00 31.98 C 34.11 32.26 26.12 31.51 18.30 32.35 M 50.10 36.39 C 49.97 38.94 49.99 41.50 50.04 44.06 C 54.80 41.56 58.99 36.99 58.10 31.18 C 55.68 33.26 53.06 35.13 50.10 36.39 Z" />
<path fill="#000000" opacity="1.00" d=" M 29.36 36.46 C 33.60 34.83 38.73 37.62 39.73 42.02 C 40.91 46.16 38.09 50.81 33.91 51.75 C 29.83 52.87 25.25 50.12 24.28 46.01 C 23.16 42.13 25.53 37.71 29.36 36.46 M 30.30 40.41 C 27.62 41.54 27.17 45.66 29.69 47.21 C 32.08 49.24 36.13 47.12 35.99 44.04 C 36.12 41.26 32.79 38.98 30.30 40.41 Z" />
</g>
</svg>
