<?xml version="1.0" encoding="UTF-8" ?>
<!DOCTYPE svg PUBLIC "-//W3C//DTD SVG 1.1//EN" "http://www.w3.org/Graphics/SVG/1.1/DTD/svg11.dtd">
<svg width="64pt" height="64pt" viewBox="0 0 64 64" version="1.1" xmlns="http://www.w3.org/2000/svg">
<g id="#ffffffff">
<path fill="#ffffff" opacity="1.00" d=" M 0.00 0.00 L 64.00 0.00 L 64.00 64.00 L 0.00 64.00 L 0.00 0.00 M 26.00 6.00 C 26.00 12.67 26.00 19.33 26.00 26.00 C 22.36 25.99 18.72 26.01 15.08 26.00 C 20.74 33.06 26.35 40.14 32.00 47.20 C 37.64 40.14 43.29 33.08 48.92 26.01 C 45.28 26.00 41.64 25.99 38.00 26.00 C 38.00 19.33 38.00 12.67 38.00 6.00 C 34.00 6.00 30.00 6.00 26.00 6.00 M 8.66 45.51 C 6.95 48.42 8.84 51.93 11.51 53.45 C 17.64 57.15 25.05 57.85 32.06 57.98 C 39.03 57.84 46.39 57.13 52.47 53.44 C 55.16 51.92 57.07 48.37 55.30 45.45 C 52.78 41.44 47.81 40.25 43.53 39.12 C 42.60 40.30 41.68 41.48 40.74 42.66 C 44.59 43.60 48.94 44.23 51.82 47.23 C 52.52 49.47 49.68 50.37 48.15 51.23 C 39.05 54.71 28.79 54.69 19.39 52.45 C 16.70 51.53 13.15 50.81 11.93 47.95 C 14.18 44.09 19.35 43.76 23.26 42.66 C 22.32 41.49 21.38 40.31 20.45 39.12 C 16.16 40.27 11.16 41.45 8.66 45.51 Z" />
<path fill="#ffffff" opacity="1.00" d=" M 30.00 10.00 C 31.33 10.00 32.67 10.00 34.00 10.00 C 34.00 16.67 34.00 23.33 34.00 30.00 C 36.20 30.00 38.41 29.99 40.62 30.00 C 37.75 33.61 34.87 37.20 32.00 40.80 C 29.14 37.20 26.28 33.60 23.40 30.01 C 25.60 30.00 27.80 30.00 30.00 30.00 C 30.00 23.33 30.00 16.67 30.00 10.00 Z" />
</g>
<g id="#000000ff">
<path fill="#000000" opacity="1.00" d=" M 26.00 6.00 C 30.00 6.00 34.00 6.00 38.00 6.00 C 38.00 12.67 38.00 19.33 38.00 26.00 C 41.64 25.99 45.28 26.00 48.92 26.01 C 43.29 33.08 37.64 40.14 32.00 47.20 C 26.35 40.14 20.74 33.06 15.08 26.00 C 18.72 26.01 22.36 25.99 26.00 26.00 C 26.00 19.33 26.00 12.67 26.00 6.00 M 30.00 10.00 C 30.00 16.67 30.00 23.33 30.00 30.00 C 27.80 30.00 25.60 30.00 23.40 30.01 C 26.28 33.60 29.14 37.20 32.00 40.80 C 34.87 37.20 37.75 33.61 40.62 30.00 C 38.41 29.99 36.20 30.00 34.00 30.00 C 34.00 23.33 34.00 16.67 34.00 10.00 C 32.67 10.00 31.33 10.00 30.00 10.00 Z" />
<path fill="#000000" opacity="1.00" d=" M 8.66 45.51 C 11.16 41.45 16.16 40.27 20.45 39.12 C 21.38 40.31 22.32 41.49 23.26 42.66 C 19.35 43.76 14.18 44.09 11.93 47.95 C 13.15 50.81 16.70 51.53 19.39 52.45 C 28.79 54.69 39.05 54.71 48.15 51.23 C 49.68 50.37 52.52 49.47 51.82 47.23 C 48.94 44.23 44.59 43.60 40.74 42.66 C 41.68 41.48 42.60 40.30 43.53 39.12 C 47.81 40.25 52.78 41.44 55.30 45.45 C 57.07 48.37 55.16 51.92 52.47 53.44 C 46.39 57.13 39.03 57.84 32.06 57.98 C 25.05 57.85 17.64 57.15 11.51 53.45 C 8.84 51.93 6.95 48.42 8.66 45.51 Z" />
</g>
</svg>
