<?xml version="1.0" encoding="UTF-8" ?>
<!DOCTYPE svg PUBLIC "-//W3C//DTD SVG 1.1//EN" "http://www.w3.org/Graphics/SVG/1.1/DTD/svg11.dtd">
<svg width="64pt" height="64pt" viewBox="0 0 64 64" version="1.1" xmlns="http://www.w3.org/2000/svg">
<g id="#ffffffff">
<path fill="#ffffff" opacity="1.00" d=" M 0.00 0.00 L 64.00 0.00 L 64.00 64.00 L 0.00 64.00 L 0.00 0.00 M 30.00 6.00 C 30.00 8.00 30.00 10.00 30.00 12.00 C 31.33 12.00 32.67 12.00 34.00 12.00 C 34.00 10.00 34.00 8.00 34.00 6.00 C 32.67 6.00 31.33 6.00 30.00 6.00 M 6.55 9.44 C 8.03 10.87 9.48 12.30 10.94 13.74 C 11.88 12.81 12.82 11.88 13.76 10.96 C 12.32 9.49 10.90 8.02 9.47 6.55 C 8.50 7.52 7.53 8.49 6.55 9.44 M 56.62 6.61 C 55.20 8.06 53.79 9.52 52.39 10.98 C 53.34 11.90 54.30 12.83 55.25 13.75 C 56.65 12.30 58.03 10.84 59.44 9.40 C 58.49 8.47 57.55 7.54 56.62 6.61 M 10.00 16.00 C 10.00 19.71 10.00 23.41 10.00 27.12 C 8.38 28.72 6.78 30.36 5.19 32.00 C 6.78 33.64 8.38 35.28 10.00 36.88 C 10.00 40.59 10.00 44.29 10.00 48.00 C 25.33 48.00 40.67 48.00 56.00 48.00 C 56.00 37.33 56.00 26.67 56.00 16.00 C 40.67 16.00 25.33 16.00 10.00 16.00 M 6.56 54.56 C 7.54 55.51 8.52 56.47 9.49 57.43 C 10.91 55.96 12.33 54.50 13.76 53.04 C 12.82 52.11 11.88 51.18 10.94 50.26 C 9.49 51.69 8.03 53.13 6.56 54.56 M 52.39 53.02 C 53.79 54.48 55.19 55.92 56.59 57.38 C 57.53 56.45 58.48 55.53 59.44 54.62 C 58.04 53.16 56.65 51.70 55.25 50.25 C 54.29 51.17 53.34 52.09 52.39 53.02 M 30.00 52.00 C 30.00 54.00 30.00 56.00 30.00 58.00 C 31.33 58.00 32.67 58.00 34.00 58.00 C 34.00 56.00 34.00 54.00 34.00 52.00 C 32.67 52.00 31.33 52.00 30.00 52.00 Z" />
<path fill="#ffffff" opacity="1.00" d=" M 14.00 20.00 C 26.67 20.00 39.33 20.00 52.00 20.00 C 52.00 28.00 52.00 36.00 52.00 44.00 C 39.33 44.00 26.67 44.00 14.00 44.00 C 14.01 41.05 14.00 38.10 13.99 35.15 C 12.97 34.10 11.95 33.05 10.92 32.00 C 11.95 30.95 12.97 29.90 14.00 28.84 C 14.00 25.90 14.00 22.95 14.00 20.00 M 22.00 24.00 C 22.00 25.33 22.00 26.67 22.00 28.00 C 29.33 28.00 36.67 28.00 44.00 28.00 C 44.00 26.67 44.00 25.33 44.00 24.00 C 36.67 24.00 29.33 24.00 22.00 24.00 M 22.00 30.00 C 22.00 31.33 22.00 32.67 22.00 34.00 C 28.00 34.00 34.00 34.00 40.00 34.00 C 40.00 32.67 40.00 31.33 40.00 30.00 C 34.00 30.00 28.00 30.00 22.00 30.00 M 22.00 36.00 C 22.00 37.33 22.00 38.67 22.00 40.00 C 29.33 40.00 36.67 40.00 44.00 40.00 C 44.00 38.67 44.00 37.33 44.00 36.00 C 36.67 36.00 29.33 36.00 22.00 36.00 Z" />
</g>
<g id="#000000ff">
<path fill="#000000" opacity="1.00" d=" M 30.00 6.00 C 31.33 6.00 32.67 6.00 34.00 6.00 C 34.00 8.00 34.00 10.00 34.00 12.00 C 32.67 12.00 31.33 12.00 30.00 12.00 C 30.00 10.00 30.00 8.00 30.00 6.00 Z" />
<path fill="#000000" opacity="1.00" d=" M 6.55 9.44 C 7.53 8.49 8.50 7.52 9.47 6.55 C 10.90 8.02 12.32 9.49 13.76 10.96 C 12.82 11.88 11.88 12.81 10.94 13.74 C 9.48 12.30 8.03 10.87 6.55 9.44 Z" />
<path fill="#000000" opacity="1.00" d=" M 56.62 6.61 C 57.55 7.54 58.49 8.47 59.44 9.40 C 58.03 10.84 56.65 12.30 55.25 13.75 C 54.30 12.83 53.34 11.90 52.39 10.98 C 53.79 9.52 55.20 8.06 56.62 6.61 Z" />
<path fill="#000000" opacity="1.00" d=" M 10.00 16.00 C 25.33 16.00 40.67 16.00 56.00 16.00 C 56.00 26.67 56.00 37.33 56.00 48.00 C 40.67 48.00 25.33 48.00 10.00 48.00 C 10.00 44.29 10.00 40.59 10.00 36.88 C 8.38 35.28 6.78 33.64 5.19 32.00 C 6.78 30.36 8.38 28.72 10.00 27.12 C 10.00 23.41 10.00 19.71 10.00 16.00 M 14.00 20.00 C 14.00 22.95 14.00 25.90 14.00 28.84 C 12.97 29.90 11.95 30.95 10.92 32.00 C 11.95 33.05 12.97 34.10 13.99 35.15 C 14.00 38.10 14.01 41.05 14.00 44.00 C 26.67 44.00 39.33 44.00 52.00 44.00 C 52.00 36.00 52.00 28.00 52.00 20.00 C 39.33 20.00 26.67 20.00 14.00 20.00 Z" />
<path fill="#000000" opacity="1.00" d=" M 22.00 24.00 C 29.33 24.00 36.67 24.00 44.00 24.00 C 44.00 25.33 44.00 26.67 44.00 28.00 C 36.67 28.00 29.33 28.00 22.00 28.00 C 22.00 26.67 22.00 25.33 22.00 24.00 Z" />
<path fill="#000000" opacity="1.00" d=" M 22.00 30.00 C 28.00 30.00 34.00 30.00 40.00 30.00 C 40.00 31.33 40.00 32.67 40.00 34.00 C 34.00 34.00 28.00 34.00 22.00 34.00 C 22.00 32.67 22.00 31.33 22.00 30.00 Z" />
<path fill="#000000" opacity="1.00" d=" M 22.00 36.00 C 29.33 36.00 36.67 36.00 44.00 36.00 C 44.00 37.33 44.00 38.67 44.00 40.00 C 36.67 40.00 29.33 40.00 22.00 40.00 C 22.00 38.67 22.00 37.33 22.00 36.00 Z" />
<path fill="#000000" opacity="1.00" d=" M 6.56 54.56 C 8.03 53.13 9.49 51.69 10.94 50.26 C 11.88 51.18 12.82 52.11 13.76 53.04 C 12.33 54.50 10.91 55.96 9.49 57.43 C 8.52 56.47 7.54 55.51 6.56 54.56 Z" />
<path fill="#000000" opacity="1.00" d=" M 52.39 53.02 C 53.34 52.09 54.29 51.17 55.25 50.25 C 56.65 51.70 58.04 53.16 59.44 54.62 C 58.48 55.53 57.53 56.45 56.59 57.38 C 55.19 55.92 53.79 54.48 52.39 53.02 Z" />
<path fill="#000000" opacity="1.00" d=" M 30.00 52.00 C 31.33 52.00 32.67 52.00 34.00 52.00 C 34.00 54.00 34.00 56.00 34.00 58.00 C 32.67 58.00 31.33 58.00 30.00 58.00 C 30.00 56.00 30.00 54.00 30.00 52.00 Z" />
</g>
</svg>
