<?xml version="1.0" encoding="UTF-8" ?>
<!DOCTYPE svg PUBLIC "-//W3C//DTD SVG 1.1//EN" "http://www.w3.org/Graphics/SVG/1.1/DTD/svg11.dtd">
<svg width="64pt" height="64pt" viewBox="0 0 64 64" version="1.1" xmlns="http://www.w3.org/2000/svg">
<g id="#ffffffff">
<path fill="#ffffff" opacity="1.00" d=" M 0.00 0.00 L 64.00 0.00 L 64.00 64.00 L 0.00 64.00 L 0.00 0.00 M 4.57 32.52 C 5.51 33.57 6.60 34.47 7.62 35.43 C 8.36 34.58 9.11 33.74 9.85 32.90 C 10.18 40.59 9.91 48.30 10.00 56.00 C 16.00 56.00 22.00 56.00 28.00 56.00 C 28.00 49.33 28.00 42.67 28.00 36.00 C 30.67 36.00 33.33 36.00 36.00 36.00 C 36.00 42.67 36.00 49.33 36.00 56.00 C 42.00 56.00 48.00 56.00 54.00 56.00 C 54.06 48.29 53.88 40.58 54.10 32.87 C 54.89 33.73 55.69 34.58 56.49 35.44 C 57.49 34.49 58.45 33.51 59.46 32.57 C 50.31 23.43 41.23 14.23 32.00 5.18 C 22.80 14.24 13.75 23.45 4.57 32.52 Z" />
<path fill="#ffffff" opacity="1.00" d=" M 14.00 28.87 C 20.03 22.91 26.00 16.88 32.01 10.90 C 38.02 16.88 44.01 22.88 50.00 28.88 C 50.00 36.59 50.00 44.29 50.00 52.00 C 46.67 52.00 43.33 52.00 40.00 52.00 C 40.00 45.33 40.00 38.67 40.00 32.00 C 34.67 32.00 29.33 32.00 24.00 32.00 C 24.00 38.67 24.00 45.33 24.00 52.00 C 20.67 52.00 17.33 52.00 14.00 52.00 C 14.00 44.29 14.00 36.58 14.00 28.87 Z" />
</g>
<g id="#000000ff">
<path fill="#000000" opacity="1.00" d=" M 4.57 32.52 C 13.75 23.45 22.80 14.24 32.00 5.18 C 41.23 14.23 50.31 23.43 59.46 32.57 C 58.45 33.51 57.49 34.49 56.49 35.44 C 55.69 34.58 54.89 33.73 54.10 32.87 C 53.88 40.58 54.06 48.29 54.00 56.00 C 48.00 56.00 42.00 56.00 36.00 56.00 C 36.00 49.33 36.00 42.67 36.00 36.00 C 33.33 36.00 30.67 36.00 28.00 36.00 C 28.00 42.67 28.00 49.33 28.00 56.00 C 22.00 56.00 16.00 56.00 10.00 56.00 C 9.91 48.30 10.18 40.59 9.85 32.90 C 9.11 33.74 8.36 34.58 7.62 35.43 C 6.60 34.47 5.51 33.57 4.57 32.52 M 14.00 28.87 C 14.00 36.58 14.00 44.29 14.00 52.00 C 17.33 52.00 20.67 52.00 24.00 52.00 C 24.00 45.33 24.00 38.67 24.00 32.00 C 29.33 32.00 34.67 32.00 40.00 32.00 C 40.00 38.67 40.00 45.33 40.00 52.00 C 43.33 52.00 46.67 52.00 50.00 52.00 C 50.00 44.29 50.00 36.59 50.00 28.88 C 44.01 22.88 38.02 16.88 32.01 10.90 C 26.00 16.88 20.03 22.91 14.00 28.87 Z" />
</g>
</svg>
