<?xml version="1.0" encoding="UTF-8" ?>
<!DOCTYPE svg PUBLIC "-//W3C//DTD SVG 1.1//EN" "http://www.w3.org/Graphics/SVG/1.1/DTD/svg11.dtd">
<svg width="64pt" height="64pt" viewBox="0 0 64 64" version="1.1" xmlns="http://www.w3.org/2000/svg">
<g id="#ffffffff">
<path fill="#ffffff" opacity="1.00" d=" M 0.00 0.00 L 64.00 0.00 L 64.00 25.49 C 62.26 23.96 58.21 23.72 58.26 26.83 C 58.30 30.03 62.52 30.31 64.00 27.90 L 64.00 30.60 C 62.07 30.60 60.14 30.60 58.21 30.60 C 58.21 34.29 58.21 37.98 58.21 41.67 C 60.14 41.67 62.07 41.67 64.00 41.67 L 64.00 64.00 L 0.00 64.00 L 0.00 25.38 C 1.12 29.01 3.83 31.75 6.48 34.34 C 6.48 33.57 6.49 32.02 6.49 31.25 C 8.33 33.06 10.22 34.82 12.11 36.58 C 12.35 34.64 12.08 32.33 14.08 31.21 C 15.02 33.78 12.96 38.59 16.81 39.19 C 15.78 39.87 14.75 40.54 13.66 41.13 C 15.66 41.21 17.37 41.84 18.80 43.02 C 18.32 42.19 17.37 40.53 16.89 39.70 C 17.84 40.41 19.75 41.83 20.70 42.54 C 24.53 42.87 28.46 42.35 32.04 40.99 C 36.48 38.29 35.93 29.48 30.43 28.33 C 27.61 27.63 24.27 28.16 22.28 30.42 C 21.12 32.59 21.21 35.21 21.56 37.58 C 22.02 40.21 24.75 41.24 26.83 42.29 C 24.62 41.98 22.40 41.76 20.20 41.41 C 20.12 37.28 20.76 33.02 19.35 29.04 C 20.11 29.18 21.62 29.46 22.38 29.60 C 21.49 29.26 19.72 28.58 18.83 28.24 C 17.56 27.08 16.16 26.08 14.71 25.16 C 14.12 25.25 12.93 25.42 12.33 25.50 C 12.35 24.67 12.39 23.02 12.41 22.19 C 11.62 22.51 10.82 22.82 10.01 23.12 C 6.80 22.09 2.96 20.68 0.00 23.13 L 0.00 0.00 M 50.84 24.89 C 50.87 30.49 50.78 36.10 50.89 41.71 C 52.80 41.68 54.72 41.67 56.63 41.65 C 56.62 35.15 56.63 28.65 56.63 22.15 C 54.70 23.06 52.77 23.97 50.84 24.89 M 39.43 28.62 C 35.66 30.01 35.50 34.69 36.26 38.00 C 37.67 42.22 43.37 42.87 46.83 40.93 C 49.86 39.13 49.72 35.12 49.16 32.09 C 47.97 28.09 42.85 27.29 39.43 28.62 M 6.50 34.32 C 6.51 36.77 6.51 39.22 6.51 41.67 C 8.50 41.67 10.48 41.66 12.47 41.64 C 12.97 37.82 8.68 36.61 6.50 34.32 Z" />
<path fill="#ffffff" opacity="1.00" d=" M 2.65 23.88 C 4.02 21.54 7.21 23.14 9.26 23.13 C 8.59 23.59 7.23 24.50 6.55 24.96 C 6.54 27.06 6.48 29.16 6.45 31.26 C 4.88 29.04 2.60 26.81 2.65 23.88 Z" />
<path fill="#ffffff" opacity="1.00" d=" M 12.61 28.43 C 11.07 26.01 16.17 24.93 15.72 27.74 C 14.81 28.73 13.78 28.97 12.61 28.43 Z" />
<path fill="#ffffff" opacity="1.00" d=" M 27.20 32.02 C 27.62 31.98 28.46 31.91 28.88 31.87 C 29.33 33.92 29.34 36.09 28.84 38.14 C 25.72 38.33 27.33 33.95 27.20 32.02 Z" />
<path fill="#ffffff" opacity="1.00" d=" M 41.70 32.37 C 44.66 30.38 44.39 37.16 42.83 38.36 C 40.65 37.28 41.83 34.29 41.70 32.37 Z" />
</g>
<g id="#000000ff">
<path fill="#000000" opacity="1.00" d=" M 0.00 23.13 C 2.96 20.68 6.80 22.09 10.01 23.12 C 10.82 22.82 11.62 22.51 12.41 22.19 C 12.39 23.02 12.35 24.67 12.33 25.50 C 12.93 25.42 14.12 25.25 14.71 25.16 C 16.16 26.08 17.56 27.08 18.83 28.24 C 19.72 28.58 21.49 29.26 22.38 29.60 C 21.62 29.46 20.11 29.18 19.35 29.04 C 20.76 33.02 20.12 37.28 20.20 41.41 C 22.40 41.76 24.62 41.98 26.83 42.29 C 24.75 41.24 22.02 40.21 21.56 37.58 C 21.21 35.21 21.12 32.59 22.28 30.42 C 24.27 28.16 27.61 27.63 30.43 28.33 C 35.93 29.48 36.48 38.29 32.04 40.99 C 28.46 42.35 24.53 42.87 20.70 42.54 C 19.75 41.83 17.84 40.41 16.89 39.70 C 17.37 40.53 18.32 42.19 18.80 43.02 C 17.37 41.84 15.66 41.21 13.66 41.13 C 14.75 40.54 15.78 39.87 16.81 39.19 C 12.96 38.59 15.02 33.78 14.08 31.21 C 12.08 32.33 12.35 34.64 12.11 36.58 C 10.22 34.82 8.33 33.06 6.49 31.25 C 6.49 32.02 6.48 33.57 6.48 34.34 C 3.83 31.75 1.12 29.01 0.00 25.38 L 0.00 23.13 M 2.65 23.88 C 2.60 26.81 4.88 29.04 6.45 31.26 C 6.48 29.16 6.54 27.06 6.55 24.96 C 7.23 24.50 8.59 23.59 9.26 23.13 C 7.21 23.14 4.02 21.54 2.65 23.88 M 12.61 28.43 C 13.78 28.97 14.81 28.73 15.72 27.74 C 16.17 24.93 11.07 26.01 12.61 28.43 M 27.20 32.02 C 27.33 33.95 25.72 38.33 28.84 38.14 C 29.34 36.09 29.33 33.92 28.88 31.87 C 28.46 31.91 27.62 31.98 27.20 32.02 Z" />
<path fill="#000000" opacity="1.00" d=" M 50.84 24.89 C 52.77 23.97 54.70 23.06 56.63 22.15 C 56.63 28.65 56.62 35.15 56.63 41.65 C 54.72 41.67 52.80 41.68 50.89 41.71 C 50.78 36.10 50.87 30.49 50.84 24.89 Z" />
<path fill="#000000" opacity="1.00" d=" M 58.26 26.83 C 58.21 23.72 62.26 23.96 64.00 25.49 L 64.00 27.90 C 62.52 30.31 58.30 30.03 58.26 26.83 Z" />
<path fill="#000000" opacity="1.00" d=" M 39.43 28.62 C 42.85 27.29 47.97 28.09 49.16 32.09 C 49.72 35.12 49.86 39.13 46.83 40.93 C 43.37 42.87 37.67 42.22 36.26 38.00 C 35.50 34.69 35.66 30.01 39.43 28.62 M 41.70 32.37 C 41.83 34.29 40.65 37.28 42.83 38.36 C 44.39 37.16 44.66 30.38 41.70 32.37 Z" />
<path fill="#000000" opacity="1.00" d=" M 58.21 30.60 C 60.14 30.60 62.07 30.60 64.00 30.60 L 64.00 41.67 C 62.07 41.67 60.14 41.67 58.21 41.67 C 58.21 37.98 58.21 34.29 58.21 30.60 Z" />
<path fill="#000000" opacity="1.00" d=" M 6.50 34.32 C 8.68 36.61 12.97 37.82 12.47 41.64 C 10.48 41.66 8.50 41.67 6.51 41.67 C 6.51 39.22 6.51 36.77 6.50 34.32 Z" />
</g>
</svg>
