<?xml version="1.0" encoding="UTF-8" ?>
<!DOCTYPE svg PUBLIC "-//W3C//DTD SVG 1.1//EN" "http://www.w3.org/Graphics/SVG/1.1/DTD/svg11.dtd">
<svg width="64pt" height="64pt" viewBox="0 0 64 64" version="1.1" xmlns="http://www.w3.org/2000/svg">
<g id="#ffffffff">
<path fill="#ffffff" opacity="1.00" d=" M 0.00 0.00 L 64.00 0.00 L 64.00 64.00 L 0.00 64.00 L 0.00 0.00 M 25.91 6.03 C 26.10 8.59 26.50 11.12 26.99 13.63 C 26.53 15.22 26.10 16.82 25.71 18.43 C 19.51 14.56 12.30 11.94 4.92 12.06 C 3.05 12.08 1.52 14.12 2.04 15.95 C 2.82 20.71 6.72 24.37 10.88 26.42 C 15.70 28.81 21.29 28.04 26.32 26.84 C 26.73 27.77 27.13 28.69 27.54 29.61 C 25.01 32.10 22.50 34.62 20.00 37.14 C 20.00 39.13 20.00 41.13 20.00 43.12 C 18.18 44.93 16.38 46.76 14.56 48.57 C 15.52 49.51 16.47 50.47 17.43 51.43 C 19.65 49.27 21.82 47.06 24.01 44.86 C 24.00 42.87 23.99 40.88 24.00 38.88 C 24.68 38.20 25.36 37.52 26.03 36.84 C 26.28 44.02 27.22 51.71 32.00 57.43 C 36.73 51.68 37.71 44.02 37.97 36.83 C 38.62 37.50 39.28 38.16 39.94 38.83 C 39.95 40.82 39.93 42.82 39.94 44.81 C 42.15 47.01 44.34 49.23 46.56 51.43 C 47.51 50.47 48.45 49.51 49.39 48.54 C 47.54 46.76 45.78 44.91 43.93 43.13 C 43.93 41.13 43.95 39.14 43.94 37.14 C 41.46 34.62 38.97 32.12 36.45 29.66 C 36.86 28.72 37.27 27.79 37.68 26.85 C 40.78 27.52 43.94 28.19 47.14 27.94 C 53.35 27.59 59.31 23.44 61.53 17.59 C 62.34 15.65 62.15 12.93 59.85 12.16 C 52.25 11.66 44.74 14.45 38.35 18.41 C 37.88 16.69 37.35 14.99 36.72 13.33 C 37.16 10.92 37.51 8.49 37.71 6.05 C 36.70 6.03 34.67 6.00 33.65 5.98 C 33.50 7.30 33.33 8.62 33.16 9.94 C 32.47 9.94 31.09 9.93 30.41 9.93 C 30.25 8.62 30.11 7.31 29.97 5.99 C 28.61 6.00 27.26 6.01 25.91 6.03 M 18.14 31.07 C 16.95 32.22 15.77 33.39 14.58 34.54 C 15.53 35.50 16.47 36.47 17.42 37.43 C 19.75 35.15 22.01 32.80 24.32 30.50 C 22.26 30.67 20.20 30.85 18.14 31.07 M 39.64 30.50 C 41.96 32.80 44.23 35.14 46.56 37.42 C 47.51 36.48 48.45 35.53 49.38 34.57 C 48.20 33.40 47.01 32.23 45.83 31.07 C 43.77 30.86 41.70 30.67 39.64 30.50 Z" />
<path fill="#ffffff" opacity="1.00" d=" M 29.61 17.87 C 30.31 16.60 31.06 15.35 32.01 14.25 C 32.91 15.38 33.71 16.59 34.38 17.87 C 32.79 17.85 31.20 17.85 29.61 17.87 Z" />
<path fill="#ffffff" opacity="1.00" d=" M 6.11 16.18 C 13.04 16.55 19.67 19.13 25.39 22.98 C 20.94 24.06 15.92 24.78 11.76 22.37 C 9.15 21.10 7.46 18.66 6.11 16.18 Z" />
<path fill="#ffffff" opacity="1.00" d=" M 38.54 22.99 C 44.27 19.15 50.90 16.57 57.83 16.18 C 56.42 18.84 54.51 21.38 51.68 22.63 C 47.60 24.76 42.82 23.99 38.54 22.99 Z" />
<path fill="#ffffff" opacity="1.00" d=" M 30.04 22.14 C 31.36 22.31 32.68 22.32 34.00 22.18 C 33.78 24.16 34.28 28.53 31.16 27.82 C 30.03 26.14 30.09 24.07 30.04 22.14 Z" />
<path fill="#ffffff" opacity="1.00" d=" M 29.70 35.92 C 30.48 34.49 30.42 31.39 32.80 32.19 C 33.43 33.38 33.85 34.66 34.30 35.92 C 32.77 35.99 31.23 35.99 29.70 35.92 Z" />
<path fill="#ffffff" opacity="1.00" d=" M 29.72 40.16 C 31.23 40.05 32.75 40.05 34.27 40.16 C 33.98 42.78 30.02 42.77 29.72 40.16 Z" />
<path fill="#ffffff" opacity="1.00" d=" M 31.98 48.88 C 30.42 48.68 30.24 45.82 31.98 45.71 C 33.79 45.78 33.57 48.70 31.98 48.88 Z" />
</g>
<g id="#000000ff">
<path fill="#000000" opacity="1.00" d=" M 25.91 6.03 C 27.26 6.01 28.61 6.00 29.97 5.99 C 30.11 7.31 30.25 8.62 30.41 9.93 C 31.09 9.93 32.47 9.94 33.16 9.94 C 33.33 8.62 33.50 7.30 33.65 5.98 C 34.67 6.00 36.70 6.03 37.71 6.05 C 37.51 8.49 37.16 10.92 36.72 13.33 C 37.35 14.99 37.88 16.69 38.35 18.41 C 44.74 14.45 52.25 11.66 59.85 12.16 C 62.15 12.93 62.34 15.65 61.53 17.59 C 59.31 23.44 53.35 27.59 47.14 27.94 C 43.94 28.19 40.78 27.52 37.68 26.85 C 37.27 27.79 36.86 28.72 36.45 29.66 C 38.97 32.12 41.46 34.62 43.94 37.14 C 43.95 39.14 43.93 41.13 43.93 43.13 C 45.78 44.91 47.54 46.76 49.39 48.54 C 48.45 49.51 47.51 50.47 46.56 51.43 C 44.34 49.23 42.15 47.01 39.94 44.81 C 39.93 42.82 39.95 40.82 39.94 38.83 C 39.28 38.16 38.62 37.50 37.97 36.83 C 37.71 44.02 36.73 51.68 32.00 57.43 C 27.22 51.71 26.28 44.02 26.03 36.84 C 25.36 37.52 24.68 38.20 24.00 38.88 C 23.99 40.88 24.00 42.87 24.01 44.86 C 21.82 47.06 19.65 49.27 17.43 51.43 C 16.47 50.47 15.52 49.51 14.56 48.57 C 16.38 46.76 18.18 44.93 20.00 43.12 C 20.00 41.13 20.00 39.13 20.00 37.14 C 22.50 34.62 25.01 32.10 27.54 29.61 C 27.13 28.69 26.73 27.77 26.32 26.84 C 21.29 28.04 15.70 28.81 10.88 26.42 C 6.72 24.37 2.82 20.71 2.04 15.95 C 1.52 14.12 3.05 12.08 4.92 12.06 C 12.30 11.94 19.51 14.56 25.71 18.43 C 26.10 16.82 26.53 15.22 26.99 13.63 C 26.50 11.12 26.10 8.59 25.91 6.03 M 29.61 17.87 C 31.20 17.85 32.79 17.85 34.38 17.87 C 33.71 16.59 32.91 15.38 32.01 14.25 C 31.06 15.35 30.31 16.60 29.61 17.87 M 6.11 16.18 C 7.46 18.66 9.15 21.10 11.76 22.37 C 15.92 24.78 20.94 24.06 25.39 22.98 C 19.67 19.13 13.04 16.55 6.11 16.18 M 38.54 22.99 C 42.82 23.99 47.60 24.76 51.68 22.63 C 54.51 21.38 56.42 18.84 57.83 16.18 C 50.90 16.57 44.27 19.15 38.54 22.99 M 30.04 22.14 C 30.09 24.07 30.03 26.14 31.16 27.82 C 34.28 28.53 33.78 24.16 34.00 22.18 C 32.68 22.32 31.36 22.31 30.04 22.14 M 29.70 35.92 C 31.23 35.99 32.77 35.99 34.30 35.92 C 33.85 34.66 33.43 33.38 32.80 32.19 C 30.42 31.39 30.48 34.49 29.70 35.92 M 29.72 40.16 C 30.02 42.77 33.98 42.78 34.27 40.16 C 32.75 40.05 31.23 40.05 29.72 40.16 M 31.98 48.88 C 33.57 48.70 33.79 45.78 31.98 45.71 C 30.24 45.82 30.42 48.68 31.98 48.88 Z" />
<path fill="#000000" opacity="1.00" d=" M 18.14 31.07 C 20.20 30.85 22.26 30.67 24.32 30.50 C 22.01 32.80 19.75 35.15 17.42 37.43 C 16.47 36.47 15.53 35.50 14.58 34.54 C 15.77 33.39 16.95 32.22 18.14 31.07 Z" />
<path fill="#000000" opacity="1.00" d=" M 39.64 30.50 C 41.70 30.67 43.77 30.86 45.83 31.07 C 47.01 32.23 48.20 33.40 49.38 34.57 C 48.45 35.53 47.51 36.48 46.56 37.42 C 44.23 35.14 41.96 32.80 39.64 30.50 Z" />
</g>
</svg>
