<?xml version="1.0" encoding="UTF-8" ?>
<!DOCTYPE svg PUBLIC "-//W3C//DTD SVG 1.1//EN" "http://www.w3.org/Graphics/SVG/1.1/DTD/svg11.dtd">
<svg width="64pt" height="64pt" viewBox="0 0 64 64" version="1.1" xmlns="http://www.w3.org/2000/svg">
<g id="#ffffffff">
<path fill="#ffffff" opacity="1.00" d=" M 0.00 0.00 L 64.00 0.00 L 64.00 64.00 L 0.00 64.00 L 0.00 0.00 M 2.00 14.00 C 2.00 26.00 2.00 38.00 2.00 50.00 C 5.22 50.00 8.44 50.00 11.67 50.00 C 12.37 46.69 12.64 42.79 15.43 40.46 C 17.26 38.78 19.84 38.62 22.12 37.98 C 20.44 40.30 18.99 43.51 20.92 46.15 C 24.56 51.05 31.31 52.04 37.02 51.96 C 42.25 51.69 48.45 50.40 51.38 45.58 C 52.89 42.92 51.40 40.01 49.62 37.94 C 52.41 38.01 55.21 38.02 58.00 37.99 C 58.00 39.33 58.00 40.66 58.00 42.00 C 59.33 42.00 60.67 42.00 62.00 42.00 C 62.00 35.33 62.00 28.67 62.00 22.00 C 60.67 22.00 59.33 22.00 58.00 22.00 C 58.00 23.33 58.00 24.67 58.00 26.00 C 45.39 25.75 32.73 26.52 20.16 25.58 C 14.27 25.14 12.15 18.99 11.65 14.00 C 8.44 14.00 5.22 14.00 2.00 14.00 Z" />
<path fill="#ffffff" opacity="1.00" d=" M 6.00 17.99 C 6.62 18.00 7.87 18.01 8.49 18.01 C 9.61 21.62 10.93 25.63 14.35 27.70 C 18.14 29.98 22.72 29.95 26.99 30.01 C 37.33 29.99 47.66 30.01 58.00 30.00 C 58.00 31.33 58.00 32.67 58.00 34.00 C 47.00 34.01 36.00 33.98 25.01 34.01 C 20.94 34.12 16.46 34.41 13.20 37.14 C 10.53 39.35 9.53 42.81 8.50 45.98 C 7.88 45.99 6.63 46.00 6.00 46.01 C 6.00 36.67 6.00 27.33 6.00 17.99 Z" />
<path fill="#ffffff" opacity="1.00" d=" M 30.45 38.63 C 35.50 37.56 41.10 37.74 45.71 40.25 C 47.13 40.97 48.90 42.86 47.40 44.36 C 44.19 47.55 39.25 47.99 34.96 47.96 C 31.13 47.69 26.64 47.06 24.15 43.80 C 23.63 40.47 27.98 39.38 30.45 38.63 Z" />
</g>
<g id="#000000ff">
<path fill="#000000" opacity="1.00" d=" M 2.00 14.00 C 5.22 14.00 8.44 14.00 11.65 14.00 C 12.15 18.99 14.27 25.14 20.16 25.58 C 32.73 26.52 45.39 25.75 58.00 26.00 C 58.00 24.67 58.00 23.33 58.00 22.00 C 59.33 22.00 60.67 22.00 62.00 22.00 C 62.00 28.67 62.00 35.33 62.00 42.00 C 60.67 42.00 59.33 42.00 58.00 42.00 C 58.00 40.66 58.00 39.33 58.00 37.99 C 55.21 38.02 52.41 38.01 49.62 37.94 C 51.40 40.01 52.89 42.92 51.38 45.58 C 48.45 50.40 42.25 51.69 37.02 51.96 C 31.31 52.04 24.56 51.05 20.92 46.15 C 18.99 43.51 20.44 40.30 22.12 37.98 C 19.84 38.62 17.26 38.78 15.43 40.46 C 12.64 42.79 12.37 46.69 11.67 50.00 C 8.44 50.00 5.22 50.00 2.00 50.00 C 2.00 38.00 2.00 26.00 2.00 14.00 M 6.00 17.99 C 6.00 27.33 6.00 36.67 6.00 46.01 C 6.63 46.00 7.88 45.99 8.50 45.98 C 9.53 42.81 10.53 39.35 13.20 37.14 C 16.46 34.41 20.94 34.12 25.01 34.01 C 36.00 33.98 47.00 34.01 58.00 34.00 C 58.00 32.67 58.00 31.33 58.00 30.00 C 47.66 30.01 37.33 29.99 26.99 30.01 C 22.72 29.95 18.14 29.98 14.35 27.70 C 10.93 25.63 9.61 21.62 8.49 18.01 C 7.87 18.01 6.62 18.00 6.00 17.99 M 30.45 38.63 C 27.98 39.38 23.63 40.47 24.15 43.80 C 26.64 47.06 31.13 47.69 34.96 47.96 C 39.25 47.99 44.19 47.55 47.40 44.36 C 48.90 42.86 47.13 40.97 45.71 40.25 C 41.10 37.74 35.50 37.56 30.45 38.63 Z" />
</g>
</svg>
