<?xml version="1.0" encoding="UTF-8" ?>
<!DOCTYPE svg PUBLIC "-//W3C//DTD SVG 1.1//EN" "http://www.w3.org/Graphics/SVG/1.1/DTD/svg11.dtd">
<svg width="64pt" height="64pt" viewBox="0 0 64 64" version="1.1" xmlns="http://www.w3.org/2000/svg">
<g id="#ffffffff">
<path fill="#ffffff" opacity="1.00" d=" M 0.00 0.00 L 64.00 0.00 L 64.00 64.00 L 0.00 64.00 L 0.00 0.00 M 46.73 9.44 C 46.70 9.84 46.66 10.63 46.63 11.02 C 46.33 10.71 45.72 10.08 45.41 9.77 C 31.86 22.56 18.58 35.62 5.19 48.57 C 7.63 51.00 9.87 53.64 12.42 55.95 C 16.35 55.89 20.39 54.98 23.84 53.05 C 27.89 50.76 29.33 46.08 31.95 42.53 C 32.95 43.56 33.95 44.59 34.96 45.63 C 42.10 38.44 49.62 31.35 54.77 22.53 C 57.87 17.30 58.10 11.10 58.01 5.20 C 57.31 5.20 55.91 5.21 55.21 5.21 C 52.64 7.10 49.77 8.49 46.73 9.44 M 49.18 35.96 C 50.08 39.03 55.10 38.25 54.96 35.02 C 54.52 32.20 53.11 29.65 52.01 27.05 C 50.97 29.92 48.82 32.78 49.18 35.96 M 45.09 46.75 C 45.64 48.40 48.35 48.42 48.88 46.76 C 49.28 44.93 47.70 43.44 47.00 41.90 C 46.28 43.44 44.77 44.91 45.09 46.75 Z" />
<path fill="#ffffff" opacity="1.00" d=" M 46.91 13.85 C 48.98 12.41 51.66 12.11 53.89 10.93 C 53.58 14.44 52.88 17.98 51.01 21.02 C 46.73 28.14 40.73 33.99 35.00 39.94 C 32.54 37.38 30.10 34.80 27.62 32.26 C 34.06 26.13 40.49 19.99 46.91 13.85 Z" />
<path fill="#ffffff" opacity="1.00" d=" M 10.83 48.58 C 15.53 44.13 20.19 39.62 24.87 35.13 C 26.27 36.60 27.69 38.05 29.14 39.47 C 27.38 41.96 25.97 44.67 24.32 47.22 C 21.98 50.56 17.62 51.23 13.91 51.95 C 12.88 50.82 11.86 49.69 10.83 48.58 Z" />
</g>
<g id="#000000ff">
<path fill="#000000" opacity="1.00" d=" M 46.73 9.44 C 49.77 8.49 52.64 7.10 55.21 5.21 C 55.91 5.21 57.31 5.20 58.01 5.20 C 58.10 11.10 57.87 17.30 54.77 22.53 C 49.62 31.35 42.10 38.44 34.96 45.63 C 33.95 44.59 32.95 43.56 31.95 42.53 C 29.33 46.08 27.89 50.76 23.84 53.05 C 20.39 54.98 16.35 55.89 12.42 55.95 C 9.87 53.64 7.63 51.00 5.19 48.57 C 18.58 35.62 31.86 22.56 45.41 9.77 C 45.72 10.08 46.33 10.71 46.63 11.02 C 46.66 10.63 46.70 9.84 46.73 9.44 M 46.91 13.85 C 40.49 19.99 34.06 26.13 27.62 32.26 C 30.10 34.80 32.54 37.38 35.00 39.94 C 40.73 33.99 46.73 28.14 51.01 21.02 C 52.88 17.98 53.58 14.44 53.89 10.93 C 51.66 12.11 48.98 12.41 46.91 13.85 M 10.83 48.58 C 11.86 49.69 12.88 50.82 13.91 51.95 C 17.62 51.23 21.98 50.56 24.32 47.22 C 25.97 44.67 27.38 41.96 29.14 39.47 C 27.69 38.05 26.27 36.60 24.87 35.13 C 20.19 39.62 15.53 44.13 10.83 48.58 Z" />
<path fill="#000000" opacity="1.00" d=" M 49.18 35.96 C 48.82 32.78 50.97 29.92 52.01 27.05 C 53.11 29.65 54.52 32.20 54.96 35.02 C 55.10 38.25 50.08 39.03 49.18 35.96 Z" />
<path fill="#000000" opacity="1.00" d=" M 45.09 46.75 C 44.77 44.91 46.28 43.44 47.00 41.90 C 47.70 43.44 49.28 44.93 48.88 46.76 C 48.35 48.42 45.64 48.40 45.09 46.75 Z" />
</g>
</svg>
