<?xml version="1.0" encoding="UTF-8" ?>
<!DOCTYPE svg PUBLIC "-//W3C//DTD SVG 1.1//EN" "http://www.w3.org/Graphics/SVG/1.1/DTD/svg11.dtd">
<svg width="64pt" height="64pt" viewBox="0 0 64 64" version="1.1" xmlns="http://www.w3.org/2000/svg">
<g id="#ffffffff">
<path fill="#ffffff" opacity="1.00" d=" M 0.00 0.00 L 64.00 0.00 L 64.00 64.00 L 0.00 64.00 L 0.00 0.00 M 26.42 6.61 C 17.20 8.54 9.41 15.90 6.97 25.00 C 4.63 33.15 6.63 42.40 12.19 48.81 C 17.46 55.10 25.83 58.60 34.00 57.90 C 41.36 57.38 48.38 53.51 52.78 47.59 C 58.11 40.62 59.47 30.86 56.26 22.70 C 52.02 10.96 38.57 3.68 26.42 6.61 Z" />
<path fill="#ffffff" opacity="1.00" d=" M 30.09 10.09 C 38.48 9.25 46.72 13.84 51.11 20.91 C 47.11 20.33 43.05 20.68 39.02 20.63 C 35.09 31.57 31.25 42.55 27.21 53.45 C 18.47 51.60 11.46 43.94 10.24 35.12 C 8.64 25.16 14.90 14.80 24.36 11.41 C 20.58 21.75 16.99 32.16 13.14 42.48 L 13.34 43.44 C 14.92 43.41 16.50 43.39 18.08 43.39 C 20.57 37.12 22.39 30.41 25.22 24.38 C 26.44 24.39 27.66 24.40 28.88 24.40 C 26.64 30.75 24.28 37.05 22.06 43.40 C 23.66 43.41 25.27 43.40 26.88 43.39 C 29.11 36.89 31.62 30.47 33.65 23.91 C 33.78 19.89 28.98 20.57 26.29 20.60 C 27.54 17.09 28.78 13.58 30.09 10.09 Z" />
<path fill="#ffffff" opacity="1.00" d=" M 52.36 23.08 C 53.84 27.85 54.69 33.01 53.17 37.89 C 50.73 47.21 41.60 54.09 31.99 54.02 C 33.18 50.49 34.55 47.03 35.76 43.51 C 38.46 43.07 41.31 43.85 43.96 43.10 C 45.72 42.43 46.01 40.42 46.65 38.91 C 48.52 33.62 50.77 28.46 52.36 23.08 Z" />
<path fill="#ffffff" opacity="1.00" d=" M 43.19 24.40 C 44.47 24.40 45.75 24.39 47.03 24.38 C 45.28 29.50 43.30 34.55 41.37 39.61 C 40.39 39.60 38.45 39.59 37.47 39.59 C 39.39 34.53 41.24 29.44 43.19 24.40 Z" />
</g>
<g id="#000000ff">
<path fill="#000000" opacity="1.00" d=" M 26.42 6.61 C 38.57 3.68 52.02 10.96 56.26 22.70 C 59.47 30.86 58.11 40.62 52.78 47.59 C 48.38 53.51 41.36 57.38 34.00 57.90 C 25.83 58.60 17.46 55.10 12.19 48.81 C 6.63 42.40 4.63 33.15 6.97 25.00 C 9.41 15.90 17.20 8.54 26.42 6.61 M 30.09 10.09 C 28.78 13.58 27.54 17.09 26.29 20.60 C 28.98 20.57 33.78 19.89 33.65 23.91 C 31.62 30.47 29.11 36.89 26.88 43.39 C 25.27 43.40 23.66 43.41 22.06 43.40 C 24.28 37.05 26.64 30.75 28.88 24.40 C 27.66 24.40 26.44 24.39 25.22 24.38 C 22.39 30.41 20.57 37.12 18.08 43.39 C 16.50 43.39 14.92 43.41 13.34 43.44 L 13.14 42.48 C 16.99 32.16 20.58 21.75 24.36 11.41 C 14.90 14.80 8.64 25.16 10.24 35.12 C 11.46 43.94 18.47 51.60 27.21 53.45 C 31.25 42.55 35.09 31.57 39.02 20.63 C 43.05 20.68 47.11 20.33 51.11 20.91 C 46.72 13.84 38.48 9.25 30.09 10.09 M 52.36 23.08 C 50.77 28.46 48.52 33.62 46.65 38.91 C 46.01 40.42 45.72 42.43 43.96 43.10 C 41.31 43.85 38.46 43.07 35.76 43.51 C 34.55 47.03 33.18 50.49 31.99 54.02 C 41.60 54.09 50.73 47.21 53.17 37.89 C 54.69 33.01 53.84 27.85 52.36 23.08 M 43.19 24.40 C 41.24 29.44 39.39 34.53 37.47 39.59 C 38.45 39.59 40.39 39.60 41.37 39.61 C 43.30 34.55 45.28 29.50 47.03 24.38 C 45.75 24.39 44.47 24.40 43.19 24.40 Z" />
</g>
</svg>
