<?xml version="1.0" encoding="UTF-8" ?>
<!DOCTYPE svg PUBLIC "-//W3C//DTD SVG 1.1//EN" "http://www.w3.org/Graphics/SVG/1.1/DTD/svg11.dtd">
<svg width="64pt" height="64pt" viewBox="0 0 64 64" version="1.1" xmlns="http://www.w3.org/2000/svg">
<g id="#ffffffff">
<path fill="#ffffff" opacity="1.00" d=" M 0.00 0.00 L 64.00 0.00 L 64.00 64.00 L 0.00 64.00 L 0.00 0.00 M 31.64 15.36 C 29.88 12.44 30.61 9.11 31.47 6.04 C 27.11 7.94 25.70 12.49 25.53 16.88 C 23.84 14.47 23.68 11.28 21.33 9.29 C 21.59 13.06 20.33 16.61 18.92 20.03 C 17.05 19.20 15.16 18.44 13.24 17.74 C 14.24 19.62 16.04 21.61 15.00 23.87 C 13.99 26.71 13.66 29.77 15.28 32.47 C 13.74 33.94 11.93 35.57 12.02 37.91 C 11.75 40.65 14.24 42.24 16.24 43.51 C 17.45 51.14 24.23 57.63 32.02 57.99 C 39.80 57.61 46.54 51.13 47.76 43.50 C 49.43 42.36 51.51 41.25 51.89 39.05 C 52.46 36.79 51.03 34.82 49.81 33.08 C 52.41 28.42 53.09 22.45 49.72 17.98 C 49.78 20.35 50.54 24.71 46.80 24.13 C 47.22 19.19 48.85 14.12 46.87 9.30 C 46.04 12.70 46.15 16.90 43.02 19.17 C 43.13 16.60 43.34 14.03 43.10 11.46 C 41.78 12.82 40.57 16.24 38.20 14.69 C 37.87 11.45 39.90 8.68 41.55 6.10 C 36.70 7.07 33.23 10.81 31.64 15.36 Z" />
<path fill="#ffffff" opacity="1.00" d=" M 30.27 29.34 C 30.37 25.51 32.76 22.62 35.16 19.90 C 35.53 21.80 35.67 23.79 36.43 25.59 C 37.47 27.04 39.12 27.88 40.44 29.03 C 40.25 26.80 40.16 24.55 40.15 22.31 C 41.56 23.71 43.33 24.95 43.95 26.93 C 45.39 30.75 43.28 34.99 45.27 38.66 C 45.89 38.19 47.09 35.03 47.80 37.14 C 48.88 39.57 45.81 40.20 44.09 40.16 C 44.57 47.02 38.72 53.38 31.99 53.96 C 25.27 53.33 19.42 47.01 19.90 40.13 C 17.79 40.22 15.82 39.50 15.80 37.07 C 16.20 36.82 17.01 36.30 17.42 36.05 C 17.73 36.91 18.36 38.62 18.67 39.48 C 19.61 37.04 19.46 34.48 19.03 31.95 C 18.61 29.24 20.72 27.12 21.95 24.95 C 22.71 26.88 23.91 28.54 25.37 29.99 C 25.00 26.97 25.97 24.18 28.02 21.97 C 28.19 24.58 28.92 27.09 30.27 29.34 M 21.62 36.24 C 22.77 40.22 27.12 40.78 30.18 38.66 C 27.58 37.13 24.54 36.77 21.62 36.24 M 33.81 38.68 C 36.88 40.78 41.22 40.22 42.37 36.24 C 39.46 36.78 36.40 37.12 33.81 38.68 Z" />
</g>
<g id="#000000ff">
<path fill="#000000" opacity="1.00" d=" M 31.64 15.36 C 33.23 10.81 36.70 7.07 41.55 6.10 C 39.90 8.68 37.87 11.45 38.20 14.69 C 40.57 16.24 41.78 12.82 43.10 11.46 C 43.34 14.03 43.13 16.60 43.02 19.17 C 46.15 16.90 46.04 12.70 46.87 9.30 C 48.85 14.12 47.22 19.19 46.80 24.13 C 50.54 24.71 49.78 20.35 49.72 17.98 C 53.09 22.45 52.41 28.42 49.81 33.08 C 51.03 34.82 52.46 36.79 51.89 39.05 C 51.51 41.25 49.43 42.36 47.76 43.50 C 46.54 51.13 39.80 57.61 32.02 57.99 C 24.23 57.63 17.45 51.14 16.24 43.51 C 14.24 42.24 11.75 40.65 12.02 37.91 C 11.93 35.57 13.74 33.94 15.28 32.47 C 13.66 29.77 13.99 26.71 15.00 23.87 C 16.04 21.61 14.24 19.62 13.24 17.74 C 15.16 18.44 17.05 19.20 18.92 20.03 C 20.33 16.61 21.59 13.06 21.33 9.29 C 23.68 11.28 23.84 14.47 25.53 16.88 C 25.70 12.49 27.11 7.94 31.47 6.04 C 30.61 9.11 29.88 12.44 31.64 15.36 M 30.27 29.34 C 28.92 27.09 28.19 24.58 28.02 21.97 C 25.97 24.18 25.00 26.97 25.37 29.99 C 23.91 28.54 22.71 26.88 21.95 24.95 C 20.72 27.12 18.61 29.24 19.03 31.95 C 19.46 34.48 19.61 37.04 18.67 39.48 C 18.36 38.62 17.73 36.91 17.42 36.05 C 17.01 36.30 16.20 36.82 15.80 37.07 C 15.82 39.50 17.79 40.22 19.90 40.13 C 19.42 47.01 25.27 53.33 31.99 53.96 C 38.72 53.38 44.57 47.02 44.09 40.16 C 45.81 40.20 48.88 39.57 47.80 37.14 C 47.09 35.03 45.89 38.19 45.27 38.66 C 43.28 34.99 45.39 30.75 43.95 26.93 C 43.33 24.95 41.56 23.71 40.15 22.31 C 40.16 24.55 40.25 26.80 40.44 29.03 C 39.12 27.88 37.47 27.04 36.43 25.59 C 35.67 23.79 35.53 21.80 35.16 19.90 C 32.76 22.62 30.37 25.51 30.27 29.34 Z" />
<path fill="#000000" opacity="1.00" d=" M 21.62 36.24 C 24.54 36.77 27.58 37.13 30.18 38.66 C 27.12 40.78 22.77 40.22 21.62 36.24 Z" />
<path fill="#000000" opacity="1.00" d=" M 33.81 38.68 C 36.40 37.12 39.46 36.78 42.37 36.24 C 41.22 40.22 36.88 40.78 33.81 38.68 Z" />
</g>
</svg>
