<?xml version="1.0" encoding="UTF-8" ?>
<!DOCTYPE svg PUBLIC "-//W3C//DTD SVG 1.1//EN" "http://www.w3.org/Graphics/SVG/1.1/DTD/svg11.dtd">
<svg width="64pt" height="64pt" viewBox="0 0 64 64" version="1.1" xmlns="http://www.w3.org/2000/svg">
<g id="#ffffffff">
<path fill="#ffffff" opacity="1.00" d=" M 0.00 0.00 L 64.00 0.00 L 64.00 64.00 L 0.00 64.00 L 0.00 0.00 M 38.28 15.50 C 34.25 12.43 29.47 9.66 24.20 10.29 C 16.00 11.09 10.03 18.41 8.01 25.96 C 8.93 30.33 12.95 25.65 15.49 25.72 C 12.45 29.77 9.65 34.54 10.30 39.82 C 11.11 48.02 18.44 53.97 25.98 56.00 C 30.31 55.01 25.66 51.05 25.72 48.51 C 29.78 51.55 34.56 54.35 39.85 53.69 C 48.03 52.87 53.96 45.55 56.00 38.03 C 55.03 33.67 51.05 38.33 48.50 38.28 C 51.51 34.26 54.28 29.55 53.71 24.33 C 52.99 16.07 45.62 10.06 38.05 8.00 C 33.69 8.90 38.28 12.99 38.28 15.50 Z" />
<path fill="#ffffff" opacity="1.00" d=" M 13.94 21.68 C 16.68 17.75 20.70 14.01 25.83 14.21 C 30.96 14.08 34.90 17.72 38.17 21.20 C 42.12 22.35 41.67 16.35 42.29 13.92 C 46.26 16.69 50.04 20.77 49.77 25.95 C 49.85 31.02 46.22 34.87 42.85 38.17 C 42.19 41.92 47.60 41.59 50.06 42.30 C 47.30 46.27 43.22 50.04 38.05 49.78 C 32.98 49.85 29.13 46.24 25.85 42.86 C 22.08 42.16 22.40 47.61 21.69 50.06 C 17.73 47.30 13.97 43.24 14.21 38.07 C 14.12 32.98 17.77 29.11 21.17 25.81 C 21.77 22.08 16.39 22.41 13.94 21.68 M 30.25 26.25 C 25.65 27.30 24.53 34.07 28.27 36.77 C 31.65 39.52 37.57 37.37 37.93 32.88 C 38.78 28.65 34.28 24.85 30.25 26.25 Z" />
<path fill="#ffffff" opacity="1.00" d=" M 31.26 30.06 C 33.71 29.12 35.13 32.89 32.83 33.92 C 30.32 34.98 28.77 30.99 31.26 30.06 Z" />
</g>
<g id="#000000ff">
<path fill="#000000" opacity="1.00" d=" M 38.28 15.50 C 38.28 12.99 33.69 8.90 38.05 8.00 C 45.62 10.06 52.99 16.07 53.71 24.33 C 54.28 29.55 51.51 34.26 48.50 38.28 C 51.05 38.33 55.03 33.67 56.00 38.03 C 53.96 45.55 48.03 52.87 39.85 53.69 C 34.56 54.35 29.78 51.55 25.72 48.51 C 25.66 51.05 30.31 55.01 25.98 56.00 C 18.44 53.97 11.11 48.02 10.30 39.82 C 9.65 34.54 12.45 29.77 15.49 25.72 C 12.95 25.65 8.93 30.33 8.01 25.96 C 10.03 18.41 16.00 11.09 24.20 10.29 C 29.47 9.66 34.25 12.43 38.28 15.50 M 13.94 21.68 C 16.39 22.41 21.77 22.08 21.17 25.81 C 17.77 29.11 14.12 32.98 14.21 38.07 C 13.97 43.24 17.73 47.30 21.69 50.06 C 22.40 47.61 22.08 42.16 25.85 42.86 C 29.13 46.24 32.98 49.85 38.05 49.78 C 43.22 50.04 47.30 46.27 50.06 42.30 C 47.60 41.59 42.19 41.92 42.85 38.17 C 46.22 34.87 49.85 31.02 49.77 25.95 C 50.04 20.77 46.26 16.69 42.29 13.92 C 41.67 16.35 42.12 22.35 38.17 21.20 C 34.90 17.72 30.96 14.08 25.83 14.21 C 20.70 14.01 16.68 17.75 13.94 21.68 Z" />
<path fill="#000000" opacity="1.00" d=" M 30.25 26.25 C 34.28 24.85 38.78 28.65 37.93 32.88 C 37.57 37.37 31.65 39.52 28.27 36.77 C 24.53 34.07 25.65 27.30 30.25 26.25 M 31.26 30.06 C 28.77 30.99 30.32 34.98 32.83 33.92 C 35.13 32.89 33.71 29.12 31.26 30.06 Z" />
</g>
</svg>
