<?xml version="1.0" encoding="UTF-8" ?>
<!DOCTYPE svg PUBLIC "-//W3C//DTD SVG 1.1//EN" "http://www.w3.org/Graphics/SVG/1.1/DTD/svg11.dtd">
<svg width="64pt" height="64pt" viewBox="0 0 64 64" version="1.1" xmlns="http://www.w3.org/2000/svg">
<g id="#ffffffff">
<path fill="#ffffff" opacity="1.00" d=" M 0.00 0.00 L 64.00 0.00 L 64.00 32.00 C 56.00 32.00 48.00 32.00 40.00 32.00 C 40.00 33.33 40.00 34.67 40.00 36.00 C 37.98 36.00 35.96 36.00 33.95 36.00 C 34.14 33.40 33.48 30.41 35.21 28.20 C 37.70 24.72 41.64 22.78 45.35 20.87 C 44.86 19.67 44.37 18.46 43.89 17.26 C 42.46 17.91 41.02 18.56 39.57 19.16 C 41.40 14.06 47.35 15.88 51.09 17.47 C 49.62 19.43 48.56 21.89 46.49 23.32 C 44.22 24.07 41.93 24.77 39.90 26.06 C 42.17 28.06 45.46 28.75 48.13 27.09 C 52.16 24.41 54.26 19.82 56.74 15.83 C 51.81 12.88 45.48 9.80 39.87 12.82 C 36.61 14.50 35.72 18.33 36.10 21.70 C 35.21 22.54 34.33 23.38 33.45 24.23 C 32.76 22.92 32.07 21.61 31.39 20.30 C 32.89 15.73 31.36 10.35 27.04 7.92 C 20.90 4.15 13.37 6.70 7.58 9.92 C 9.16 15.19 10.92 20.97 15.44 24.49 C 18.55 26.77 22.65 26.06 25.81 24.30 C 24.92 23.32 24.02 22.34 23.13 21.36 C 21.38 21.62 19.31 22.57 17.75 21.24 C 14.89 18.91 13.75 15.24 12.38 11.96 C 16.23 10.53 20.83 8.93 24.70 11.18 C 26.90 12.27 27.63 14.69 28.29 16.86 C 25.21 14.94 22.03 13.18 18.63 11.89 C 18.25 13.15 17.87 14.42 17.49 15.68 C 22.12 17.68 27.42 20.09 29.45 25.08 C 30.41 28.63 29.91 32.37 29.99 36.00 C 27.99 36.00 26.00 36.00 24.00 36.00 C 24.00 34.67 24.00 33.33 24.00 32.00 C 16.00 32.00 8.00 32.00 0.00 32.00 L 0.00 0.00 Z" />
<path fill="#ffffff" opacity="1.00" d=" M 0.00 36.00 C 6.67 36.00 13.33 36.00 20.00 36.00 C 20.00 37.33 20.00 38.67 20.00 40.00 C 28.00 40.00 36.00 40.00 44.00 40.00 C 44.00 38.67 44.00 37.33 44.00 36.00 C 50.67 36.00 57.33 36.00 64.00 36.00 L 64.00 46.03 C 62.84 46.03 61.68 46.05 60.52 46.06 C 57.99 48.52 54.00 48.53 51.48 46.06 C 50.49 46.05 49.50 46.05 48.51 46.05 C 45.99 48.53 42.01 48.53 39.48 46.06 C 38.49 46.05 37.50 46.05 36.52 46.06 C 33.99 48.52 30.00 48.54 27.48 46.06 C 26.49 46.05 25.51 46.05 24.52 46.05 C 21.99 48.53 18.01 48.53 15.48 46.05 C 14.49 46.05 13.50 46.05 12.52 46.06 C 10.00 48.53 6.02 48.53 3.48 46.07 C 2.32 46.05 1.16 46.02 -0.00 46.00 L 0.00 36.00 Z" />
<path fill="#ffffff" opacity="1.00" d=" M 0.00 46.90 C 1.94 52.66 9.46 53.04 14.00 50.25 C 17.73 52.45 22.27 52.44 26.00 50.25 C 29.73 52.45 34.27 52.44 38.00 50.26 C 41.73 52.45 46.27 52.44 50.00 50.25 C 54.54 53.04 62.00 52.65 64.00 46.95 L 64.00 64.00 L 0.00 64.00 L 0.00 46.90 Z" />
</g>
<g id="#000000ff">
<path fill="#000000" opacity="1.00" d=" M 7.58 9.92 C 13.37 6.70 20.90 4.15 27.04 7.92 C 31.36 10.35 32.89 15.73 31.39 20.30 C 32.07 21.61 32.76 22.92 33.45 24.23 C 34.33 23.38 35.21 22.54 36.10 21.70 C 35.72 18.33 36.61 14.50 39.87 12.82 C 45.48 9.80 51.81 12.88 56.74 15.83 C 54.26 19.82 52.16 24.41 48.13 27.09 C 45.46 28.75 42.17 28.06 39.90 26.06 C 41.93 24.77 44.22 24.07 46.49 23.32 C 48.56 21.89 49.62 19.43 51.09 17.47 C 47.35 15.88 41.40 14.06 39.57 19.16 C 41.02 18.56 42.46 17.91 43.89 17.26 C 44.37 18.46 44.86 19.67 45.35 20.87 C 41.64 22.78 37.70 24.72 35.21 28.20 C 33.48 30.41 34.14 33.40 33.95 36.00 C 35.96 36.00 37.98 36.00 40.00 36.00 C 40.00 34.67 40.00 33.33 40.00 32.00 C 48.00 32.00 56.00 32.00 64.00 32.00 L 64.00 36.00 C 57.33 36.00 50.67 36.00 44.00 36.00 C 44.00 37.33 44.00 38.67 44.00 40.00 C 36.00 40.00 28.00 40.00 20.00 40.00 C 20.00 38.67 20.00 37.33 20.00 36.00 C 13.33 36.00 6.67 36.00 0.00 36.00 L 0.00 32.00 C 8.00 32.00 16.00 32.00 24.00 32.00 C 24.00 33.33 24.00 34.67 24.00 36.00 C 26.00 36.00 27.99 36.00 29.99 36.00 C 29.91 32.37 30.41 28.63 29.45 25.08 C 27.42 20.09 22.12 17.68 17.49 15.68 C 17.87 14.42 18.25 13.15 18.63 11.89 C 22.03 13.18 25.21 14.94 28.29 16.86 C 27.63 14.69 26.90 12.27 24.70 11.18 C 20.83 8.93 16.23 10.53 12.38 11.96 C 13.75 15.24 14.89 18.91 17.75 21.24 C 19.31 22.57 21.38 21.62 23.13 21.36 C 24.02 22.34 24.92 23.32 25.81 24.30 C 22.65 26.06 18.55 26.77 15.44 24.49 C 10.92 20.97 9.16 15.19 7.58 9.92 Z" />
<path fill="#000000" opacity="1.00" d=" M -0.00 46.00 C 1.16 46.02 2.32 46.05 3.48 46.07 C 6.02 48.53 10.00 48.53 12.52 46.06 C 13.50 46.05 14.49 46.05 15.48 46.05 C 18.01 48.53 21.99 48.53 24.52 46.05 C 25.51 46.05 26.49 46.05 27.48 46.06 C 30.00 48.54 33.99 48.52 36.52 46.06 C 37.50 46.05 38.49 46.05 39.48 46.06 C 42.01 48.53 45.99 48.53 48.51 46.05 C 49.50 46.05 50.49 46.05 51.48 46.06 C 54.00 48.53 57.99 48.52 60.52 46.06 C 61.68 46.05 62.84 46.03 64.00 46.03 L 64.00 46.95 C 62.00 52.65 54.54 53.04 50.00 50.25 C 46.27 52.44 41.73 52.45 38.00 50.26 C 34.27 52.44 29.73 52.45 26.00 50.25 C 22.27 52.44 17.73 52.45 14.00 50.25 C 9.46 53.04 1.94 52.66 0.00 46.90 L 0.00 46.00 Z" />
</g>
</svg>
