<?xml version="1.0" encoding="UTF-8" ?>
<!DOCTYPE svg PUBLIC "-//W3C//DTD SVG 1.1//EN" "http://www.w3.org/Graphics/SVG/1.1/DTD/svg11.dtd">
<svg width="64pt" height="64pt" viewBox="0 0 64 64" version="1.1" xmlns="http://www.w3.org/2000/svg">
<g id="#ffffffff">
<path fill="#ffffff" opacity="1.00" d=" M 0.00 0.00 L 64.00 0.00 L 64.00 64.00 L 0.00 64.00 L 0.00 0.00 M 12.00 6.00 C 12.00 23.33 12.00 40.67 12.00 58.00 C 25.33 58.00 38.67 58.00 52.00 58.00 C 51.97 47.66 52.05 37.32 51.96 26.98 C 53.30 25.60 54.65 24.24 56.00 22.86 C 56.00 17.24 56.00 11.62 56.00 6.00 C 41.33 6.00 26.66 6.00 12.00 6.00 Z" />
<path fill="#ffffff" opacity="1.00" d=" M 16.00 10.00 C 25.33 10.00 34.67 10.00 44.01 10.00 C 43.96 14.29 44.04 18.57 44.00 22.86 C 45.35 24.23 46.88 25.47 47.91 27.11 C 48.14 36.07 47.92 45.04 48.00 54.00 C 37.33 54.00 26.67 54.00 16.00 54.00 C 16.00 39.34 16.00 24.67 16.00 10.00 M 28.10 25.10 C 26.43 26.62 24.02 25.81 21.98 26.05 C 22.01 30.70 22.00 35.35 22.00 40.00 C 28.67 40.00 35.33 40.00 42.00 40.00 C 42.00 35.35 41.99 30.70 42.02 26.05 C 39.98 25.81 37.58 26.62 35.91 25.10 C 33.77 23.41 30.23 23.41 28.10 25.10 Z" />
<path fill="#ffffff" opacity="1.00" d=" M 48.01 10.00 C 49.34 9.99 50.66 9.99 51.99 10.00 C 51.75 13.85 52.56 17.88 51.57 21.62 C 50.81 23.56 48.35 22.69 48.12 20.89 C 47.81 17.27 48.08 13.63 48.01 10.00 Z" />
<path fill="#ffffff" opacity="1.00" d=" M 30.44 28.32 C 32.94 27.06 36.07 29.30 36.03 32.00 C 36.08 34.99 32.22 37.25 29.77 35.29 C 27.09 33.73 27.61 29.42 30.44 28.32 Z" />
</g>
<g id="#000000ff">
<path fill="#000000" opacity="1.00" d=" M 12.00 6.00 C 26.66 6.00 41.33 6.00 56.00 6.00 C 56.00 11.62 56.00 17.24 56.00 22.86 C 54.65 24.24 53.30 25.60 51.96 26.98 C 52.05 37.32 51.97 47.66 52.00 58.00 C 38.67 58.00 25.33 58.00 12.00 58.00 C 12.00 40.67 12.00 23.33 12.00 6.00 M 16.00 10.00 C 16.00 24.67 16.00 39.34 16.00 54.00 C 26.67 54.00 37.33 54.00 48.00 54.00 C 47.92 45.04 48.14 36.07 47.91 27.11 C 46.88 25.47 45.35 24.23 44.00 22.86 C 44.04 18.57 43.96 14.29 44.01 10.00 C 34.67 10.00 25.33 10.00 16.00 10.00 M 48.01 10.00 C 48.08 13.63 47.81 17.27 48.12 20.89 C 48.35 22.69 50.81 23.56 51.57 21.62 C 52.56 17.88 51.75 13.85 51.99 10.00 C 50.66 9.99 49.34 9.99 48.01 10.00 Z" />
<path fill="#000000" opacity="1.00" d=" M 28.10 25.10 C 30.23 23.41 33.77 23.41 35.91 25.10 C 37.58 26.62 39.98 25.81 42.02 26.05 C 41.99 30.70 42.00 35.35 42.00 40.00 C 35.33 40.00 28.67 40.00 22.00 40.00 C 22.00 35.35 22.01 30.70 21.98 26.05 C 24.02 25.81 26.43 26.62 28.10 25.10 M 30.44 28.32 C 27.61 29.42 27.09 33.73 29.77 35.29 C 32.22 37.25 36.08 34.99 36.03 32.00 C 36.07 29.30 32.94 27.06 30.44 28.32 Z" />
</g>
</svg>
