<?xml version="1.0" encoding="UTF-8" ?>
<!DOCTYPE svg PUBLIC "-//W3C//DTD SVG 1.1//EN" "http://www.w3.org/Graphics/SVG/1.1/DTD/svg11.dtd">
<svg width="64pt" height="64pt" viewBox="0 0 64 64" version="1.1" xmlns="http://www.w3.org/2000/svg">
<g id="#ffffffff">
<path fill="#ffffff" opacity="1.00" d=" M 0.00 0.00 L 64.00 0.00 L 64.00 64.00 L 0.00 64.00 L 0.00 0.00 M 3.99 18.00 C 4.01 19.24 4.02 20.47 4.02 21.71 C 22.72 27.35 41.32 33.31 60.02 38.94 C 60.42 33.89 57.56 29.43 56.31 24.69 C 57.54 23.47 58.76 22.24 60.00 21.03 C 60.00 20.27 60.00 18.76 60.00 18.00 C 41.33 18.00 22.66 18.00 3.99 18.00 M 17.44 30.59 C 13.47 32.26 12.83 38.27 16.35 40.74 C 19.63 43.53 25.25 41.34 25.88 37.11 C 26.99 32.55 21.58 28.33 17.44 30.59 M 28.00 32.33 C 28.01 34.90 27.99 37.48 28.00 40.05 C 26.38 42.06 24.74 44.05 23.04 46.00 C 20.03 45.99 17.01 46.00 14.00 46.00 C 14.00 47.33 14.00 48.67 14.00 50.00 C 17.64 50.00 21.29 50.00 24.93 50.00 C 26.61 48.01 28.27 46.00 29.94 44.00 C 33.23 44.12 36.56 43.75 39.83 44.17 C 44.96 46.65 50.02 49.26 55.12 51.81 C 55.56 50.92 56.44 49.13 56.88 48.24 C 51.31 45.31 45.67 42.53 39.99 39.81 C 40.00 38.48 40.01 37.16 40.04 35.83 C 38.71 35.37 37.36 34.94 36.01 34.56 C 36.00 36.37 36.00 38.19 36.00 40.00 C 34.66 40.00 33.33 40.00 32.00 40.00 C 32.03 37.81 31.99 35.62 31.94 33.43 C 30.63 33.07 29.31 32.70 28.00 32.33 Z" />
<path fill="#ffffff" opacity="1.00" d=" M 18.62 22.26 C 30.16 21.69 41.73 22.15 53.29 22.00 C 52.89 22.40 52.10 23.22 51.70 23.62 C 52.85 26.81 53.91 30.03 54.99 33.24 C 42.86 29.62 30.88 25.46 18.62 22.26 Z" />
<path fill="#ffffff" opacity="1.00" d=" M 19.23 34.20 C 21.48 33.01 23.20 36.93 20.79 37.83 C 18.50 38.96 16.79 35.05 19.23 34.20 Z" />
</g>
<g id="#000000ff">
<path fill="#000000" opacity="1.00" d=" M 3.99 18.00 C 22.66 18.00 41.33 18.00 60.00 18.00 C 60.00 18.76 60.00 20.27 60.00 21.03 C 58.76 22.24 57.54 23.47 56.31 24.69 C 57.56 29.43 60.42 33.89 60.02 38.94 C 41.32 33.31 22.72 27.35 4.02 21.71 C 4.02 20.47 4.01 19.24 3.99 18.00 M 18.62 22.26 C 30.88 25.46 42.86 29.62 54.99 33.24 C 53.91 30.03 52.85 26.81 51.70 23.62 C 52.10 23.22 52.89 22.40 53.29 22.00 C 41.73 22.15 30.16 21.69 18.62 22.26 Z" />
<path fill="#000000" opacity="1.00" d=" M 17.44 30.59 C 21.58 28.33 26.99 32.55 25.88 37.11 C 25.25 41.34 19.63 43.53 16.35 40.74 C 12.83 38.27 13.47 32.26 17.44 30.59 M 19.23 34.20 C 16.79 35.05 18.50 38.96 20.79 37.83 C 23.20 36.93 21.48 33.01 19.23 34.20 Z" />
<path fill="#000000" opacity="1.00" d=" M 28.00 32.33 C 29.31 32.70 30.63 33.07 31.94 33.43 C 31.99 35.62 32.03 37.81 32.00 40.00 C 33.33 40.00 34.66 40.00 36.00 40.00 C 36.00 38.19 36.00 36.37 36.01 34.56 C 37.36 34.94 38.71 35.37 40.04 35.83 C 40.01 37.16 40.00 38.48 39.99 39.81 C 45.67 42.53 51.31 45.31 56.88 48.24 C 56.44 49.13 55.56 50.92 55.12 51.81 C 50.02 49.26 44.96 46.65 39.83 44.17 C 36.56 43.75 33.23 44.12 29.94 44.00 C 28.27 46.00 26.61 48.01 24.93 50.00 C 21.29 50.00 17.64 50.00 14.00 50.00 C 14.00 48.67 14.00 47.33 14.00 46.00 C 17.01 46.00 20.03 45.99 23.04 46.00 C 24.74 44.05 26.38 42.06 28.00 40.05 C 27.99 37.48 28.01 34.90 28.00 32.33 Z" />
</g>
</svg>
