<?xml version="1.0" encoding="UTF-8" ?>
<!DOCTYPE svg PUBLIC "-//W3C//DTD SVG 1.1//EN" "http://www.w3.org/Graphics/SVG/1.1/DTD/svg11.dtd">
<svg width="64pt" height="64pt" viewBox="0 0 64 64" version="1.1" xmlns="http://www.w3.org/2000/svg">
<g id="#ffffffff">
<path fill="#ffffff" opacity="1.00" d=" M 0.00 0.00 L 64.00 0.00 L 64.00 64.00 L 0.00 64.00 L 0.00 0.00 M 49.74 10.71 C 47.85 11.85 47.93 14.21 48.34 16.09 C 46.05 20.17 43.54 24.13 41.20 28.18 C 40.64 29.48 39.44 30.16 38.13 30.54 C 35.04 28.30 31.55 26.64 28.51 24.33 C 27.57 22.44 26.61 19.84 24.01 19.99 C 20.97 19.91 19.49 23.17 20.14 25.80 C 17.68 29.13 15.19 32.44 12.68 35.73 C 11.05 36.17 9.09 36.57 8.38 38.35 C 6.65 41.45 10.52 45.28 13.63 43.64 C 15.82 42.79 16.12 40.29 15.86 38.25 C 18.29 34.85 20.88 31.58 23.31 28.19 C 23.97 28.03 25.30 27.73 25.96 27.57 C 29.17 29.57 32.37 31.59 35.60 33.56 C 36.13 35.99 38.09 38.70 40.93 37.88 C 43.64 37.33 44.41 34.26 43.67 31.92 C 46.30 27.44 48.83 22.87 51.72 18.56 C 53.52 17.50 56.19 16.56 55.98 13.98 C 56.11 10.92 52.20 8.80 49.74 10.71 M 8.00 52.00 C 8.00 53.33 8.00 54.67 8.00 56.00 C 24.00 56.00 40.00 56.00 56.00 56.00 C 56.00 54.67 56.00 53.33 56.00 52.00 C 40.00 52.00 24.00 52.00 8.00 52.00 Z" />
</g>
<g id="#000000ff">
<path fill="#000000" opacity="1.00" d=" M 49.74 10.71 C 52.20 8.80 56.11 10.92 55.98 13.98 C 56.19 16.56 53.52 17.50 51.72 18.56 C 48.83 22.87 46.30 27.44 43.67 31.92 C 44.41 34.26 43.64 37.33 40.93 37.88 C 38.09 38.70 36.13 35.99 35.60 33.56 C 32.37 31.59 29.17 29.57 25.96 27.57 C 25.30 27.73 23.97 28.03 23.31 28.19 C 20.88 31.58 18.29 34.85 15.86 38.25 C 16.12 40.29 15.82 42.79 13.63 43.64 C 10.52 45.28 6.65 41.45 8.38 38.35 C 9.09 36.57 11.05 36.17 12.68 35.73 C 15.19 32.44 17.68 29.13 20.14 25.80 C 19.49 23.17 20.97 19.91 24.01 19.99 C 26.61 19.84 27.57 22.44 28.51 24.33 C 31.55 26.64 35.04 28.30 38.13 30.54 C 39.44 30.16 40.64 29.48 41.20 28.18 C 43.54 24.13 46.05 20.17 48.34 16.09 C 47.93 14.21 47.85 11.85 49.74 10.71 Z" />
<path fill="#000000" opacity="1.00" d=" M 8.00 52.00 C 24.00 52.00 40.00 52.00 56.00 52.00 C 56.00 53.33 56.00 54.67 56.00 56.00 C 40.00 56.00 24.00 56.00 8.00 56.00 C 8.00 54.67 8.00 53.33 8.00 52.00 Z" />
</g>
</svg>
