<?xml version="1.0" encoding="UTF-8" ?>
<!DOCTYPE svg PUBLIC "-//W3C//DTD SVG 1.1//EN" "http://www.w3.org/Graphics/SVG/1.1/DTD/svg11.dtd">
<svg width="64pt" height="64pt" viewBox="0 0 64 64" version="1.1" xmlns="http://www.w3.org/2000/svg">
<g id="#ffffffff">
<path fill="#ffffff" opacity="1.00" d=" M 0.00 0.00 L 64.00 0.00 L 64.00 64.00 L 0.00 64.00 L 0.00 0.00 M 30.41 7.51 C 23.06 10.44 17.91 18.05 18.01 25.97 C 17.90 30.57 19.98 34.87 22.70 38.46 C 17.34 43.83 12.00 49.22 6.60 54.56 C 7.54 55.50 8.48 56.45 9.42 57.41 C 14.83 52.06 20.16 46.64 25.56 41.30 C 29.11 44.03 33.40 46.06 37.97 45.99 C 46.16 46.11 54.01 40.60 56.75 32.89 C 59.49 25.75 57.57 17.15 52.08 11.83 C 46.59 6.21 37.64 4.42 30.41 7.51 Z" />
<path fill="#ffffff" opacity="1.00" d=" M 33.49 10.64 C 42.16 7.80 52.12 13.98 53.69 22.90 C 55.67 31.59 48.95 40.85 40.14 41.84 C 31.71 43.22 23.06 36.58 22.15 28.11 C 20.94 20.51 26.14 12.70 33.49 10.64 M 26.00 26.00 C 28.02 28.43 30.04 30.85 32.07 33.27 C 33.09 32.42 34.11 31.57 35.14 30.72 C 33.83 29.15 32.52 27.58 31.22 26.00 C 32.52 24.42 33.83 22.85 35.14 21.28 C 34.11 20.43 33.09 19.58 32.07 18.73 C 30.04 21.15 28.02 23.57 26.00 26.00 M 40.89 21.28 C 42.19 22.86 43.50 24.43 44.82 26.00 C 43.50 27.57 42.19 29.15 40.89 30.74 C 41.91 31.58 42.94 32.43 43.96 33.27 C 45.99 30.85 48.01 28.42 50.04 26.00 C 48.01 23.58 45.99 21.15 43.96 18.73 C 42.93 19.58 41.91 20.43 40.89 21.28 Z" />
</g>
<g id="#000000ff">
<path fill="#000000" opacity="1.00" d=" M 30.41 7.51 C 37.64 4.42 46.59 6.21 52.08 11.83 C 57.57 17.15 59.49 25.75 56.75 32.89 C 54.01 40.60 46.16 46.11 37.97 45.99 C 33.40 46.06 29.11 44.03 25.56 41.30 C 20.16 46.64 14.83 52.06 9.42 57.41 C 8.48 56.45 7.54 55.50 6.60 54.56 C 12.00 49.22 17.34 43.83 22.70 38.46 C 19.98 34.87 17.90 30.57 18.01 25.97 C 17.91 18.05 23.06 10.44 30.41 7.51 M 33.49 10.64 C 26.14 12.70 20.94 20.51 22.15 28.11 C 23.06 36.58 31.71 43.22 40.14 41.84 C 48.95 40.85 55.67 31.59 53.69 22.90 C 52.12 13.98 42.16 7.80 33.49 10.64 Z" />
<path fill="#000000" opacity="1.00" d=" M 26.00 26.00 C 28.02 23.57 30.04 21.15 32.07 18.73 C 33.09 19.58 34.11 20.43 35.14 21.28 C 33.83 22.85 32.52 24.42 31.22 26.00 C 32.52 27.58 33.83 29.15 35.14 30.72 C 34.11 31.57 33.09 32.42 32.07 33.27 C 30.04 30.85 28.02 28.43 26.00 26.00 Z" />
<path fill="#000000" opacity="1.00" d=" M 40.89 21.28 C 41.91 20.43 42.93 19.58 43.96 18.73 C 45.99 21.15 48.01 23.58 50.04 26.00 C 48.01 28.42 45.99 30.85 43.96 33.27 C 42.94 32.43 41.91 31.58 40.89 30.74 C 42.19 29.15 43.50 27.57 44.82 26.00 C 43.50 24.43 42.19 22.86 40.89 21.28 Z" />
</g>
</svg>
