<?xml version="1.0" encoding="UTF-8" ?>
<!DOCTYPE svg PUBLIC "-//W3C//DTD SVG 1.1//EN" "http://www.w3.org/Graphics/SVG/1.1/DTD/svg11.dtd">
<svg width="64pt" height="64pt" viewBox="0 0 64 64" version="1.1" xmlns="http://www.w3.org/2000/svg">
<g id="#ffffffff">
<path fill="#ffffff" opacity="1.00" d=" M 0.00 0.00 L 64.00 0.00 L 64.00 64.00 L 0.00 64.00 L 0.00 0.00 M 30.00 8.00 C 29.99 18.76 30.02 29.52 29.98 40.28 C 28.47 38.78 26.97 37.27 25.48 35.76 C 24.51 36.68 23.54 37.61 22.57 38.53 C 25.69 41.71 28.89 44.81 32.00 48.00 C 35.14 44.85 38.31 41.71 41.44 38.55 C 40.48 37.61 39.52 36.68 38.57 35.75 C 37.05 37.27 35.53 38.79 34.01 40.30 C 33.99 29.54 34.01 18.77 34.00 8.00 C 32.67 8.00 31.33 8.00 30.00 8.00 M 4.00 46.00 C 4.00 49.33 4.00 52.67 4.00 56.00 C 22.67 56.00 41.33 56.00 60.00 56.00 C 60.00 52.67 60.00 49.33 60.00 46.00 C 58.67 46.00 57.33 46.00 56.00 46.00 C 56.00 48.00 56.00 50.00 56.00 52.00 C 40.00 52.00 24.00 52.00 8.00 52.00 C 8.00 50.00 8.00 48.00 8.00 46.00 C 6.67 46.00 5.33 46.00 4.00 46.00 Z" />
</g>
<g id="#000000ff">
<path fill="#000000" opacity="1.00" d=" M 30.00 8.00 C 31.33 8.00 32.67 8.00 34.00 8.00 C 34.01 18.77 33.99 29.54 34.01 40.30 C 35.53 38.79 37.05 37.27 38.57 35.75 C 39.52 36.68 40.48 37.61 41.44 38.55 C 38.31 41.71 35.14 44.85 32.00 48.00 C 28.89 44.81 25.69 41.71 22.57 38.53 C 23.54 37.61 24.51 36.68 25.48 35.76 C 26.97 37.27 28.47 38.78 29.98 40.28 C 30.02 29.52 29.99 18.76 30.00 8.00 Z" />
<path fill="#000000" opacity="1.00" d=" M 4.00 46.00 C 5.33 46.00 6.67 46.00 8.00 46.00 C 8.00 48.00 8.00 50.00 8.00 52.00 C 24.00 52.00 40.00 52.00 56.00 52.00 C 56.00 50.00 56.00 48.00 56.00 46.00 C 57.33 46.00 58.67 46.00 60.00 46.00 C 60.00 49.33 60.00 52.67 60.00 56.00 C 41.33 56.00 22.67 56.00 4.00 56.00 C 4.00 52.67 4.00 49.33 4.00 46.00 Z" />
</g>
</svg>
