<?xml version="1.0" encoding="UTF-8" ?>
<!DOCTYPE svg PUBLIC "-//W3C//DTD SVG 1.1//EN" "http://www.w3.org/Graphics/SVG/1.1/DTD/svg11.dtd">
<svg width="64pt" height="64pt" viewBox="0 0 64 64" version="1.1" xmlns="http://www.w3.org/2000/svg">
<g id="#ffffffff">
<path fill="#ffffff" opacity="1.00" d=" M 0.00 0.00 L 64.00 0.00 L 64.00 64.00 L 0.00 64.00 L 0.00 0.00 M 16.01 8.01 C 15.99 24.00 15.99 40.00 16.01 55.99 C 26.67 56.01 37.33 56.01 47.99 55.99 C 48.01 40.00 48.01 24.00 47.99 8.01 C 37.33 7.99 26.67 7.99 16.01 8.01 M 8.00 18.01 C 8.00 19.34 8.00 20.66 8.00 21.99 C 10.00 22.00 12.00 22.00 14.00 21.99 C 14.00 20.66 14.00 19.34 14.00 18.01 C 12.00 18.00 10.00 18.00 8.00 18.01 M 50.00 18.01 C 50.00 19.34 50.00 20.66 50.00 21.99 C 52.00 22.00 54.00 22.00 56.00 21.99 C 56.00 20.66 56.00 19.34 56.00 18.01 C 54.00 18.00 52.00 18.00 50.00 18.01 M 8.00 30.01 C 8.00 31.34 8.00 32.66 8.00 33.99 C 10.00 34.00 12.00 34.00 14.00 33.99 C 14.00 32.66 14.00 31.34 14.00 30.01 C 12.00 30.00 10.00 30.00 8.00 30.01 M 50.00 30.01 C 50.00 31.34 50.00 32.66 50.00 33.99 C 52.00 34.00 54.00 34.00 56.00 33.99 C 56.00 32.66 56.00 31.34 56.00 30.01 C 54.00 30.00 52.00 30.00 50.00 30.01 M 8.00 42.01 C 8.00 43.34 8.00 44.66 8.00 45.99 C 10.00 46.00 12.00 46.00 14.00 45.99 C 14.00 44.66 14.00 43.34 14.00 42.01 C 12.00 42.00 10.00 42.00 8.00 42.01 M 50.00 42.01 C 50.00 43.34 50.00 44.66 50.00 45.99 C 52.00 46.00 54.00 46.00 56.00 45.99 C 56.00 44.66 56.00 43.34 56.00 42.01 C 54.00 42.00 52.00 42.00 50.00 42.01 Z" />
<path fill="#ffffff" opacity="1.00" d=" M 20.01 12.01 C 28.00 11.99 36.00 11.99 43.99 12.01 C 44.01 25.34 44.01 38.66 43.99 51.99 C 36.00 52.01 28.00 52.01 20.01 51.99 C 19.99 38.66 19.99 25.34 20.01 12.01 M 25.49 16.45 C 22.54 17.85 24.55 23.06 27.77 21.83 C 32.03 20.97 29.24 14.02 25.49 16.45 Z" />
</g>
<g id="#000000ff">
<path fill="#000000" opacity="1.00" d=" M 16.01 8.01 C 26.67 7.99 37.33 7.99 47.99 8.01 C 48.01 24.00 48.01 40.00 47.99 55.99 C 37.33 56.01 26.67 56.01 16.01 55.99 C 15.99 40.00 15.99 24.00 16.01 8.01 M 20.01 12.01 C 19.99 25.34 19.99 38.66 20.01 51.99 C 28.00 52.01 36.00 52.01 43.99 51.99 C 44.01 38.66 44.01 25.34 43.99 12.01 C 36.00 11.99 28.00 11.99 20.01 12.01 Z" />
<path fill="#000000" opacity="1.00" d=" M 25.49 16.45 C 29.24 14.02 32.03 20.97 27.77 21.83 C 24.55 23.06 22.54 17.85 25.49 16.45 Z" />
<path fill="#000000" opacity="1.00" d=" M 8.00 18.01 C 10.00 18.00 12.00 18.00 14.00 18.01 C 14.00 19.34 14.00 20.66 14.00 21.99 C 12.00 22.00 10.00 22.00 8.00 21.99 C 8.00 20.66 8.00 19.34 8.00 18.01 Z" />
<path fill="#000000" opacity="1.00" d=" M 50.00 18.01 C 52.00 18.00 54.00 18.00 56.00 18.01 C 56.00 19.34 56.00 20.66 56.00 21.99 C 54.00 22.00 52.00 22.00 50.00 21.99 C 50.00 20.66 50.00 19.34 50.00 18.01 Z" />
<path fill="#000000" opacity="1.00" d=" M 8.00 30.01 C 10.00 30.00 12.00 30.00 14.00 30.01 C 14.00 31.34 14.00 32.66 14.00 33.99 C 12.00 34.00 10.00 34.00 8.00 33.99 C 8.00 32.66 8.00 31.34 8.00 30.01 Z" />
<path fill="#000000" opacity="1.00" d=" M 50.00 30.01 C 52.00 30.00 54.00 30.00 56.00 30.01 C 56.00 31.34 56.00 32.66 56.00 33.99 C 54.00 34.00 52.00 34.00 50.00 33.99 C 50.00 32.66 50.00 31.34 50.00 30.01 Z" />
<path fill="#000000" opacity="1.00" d=" M 8.00 42.01 C 10.00 42.00 12.00 42.00 14.00 42.01 C 14.00 43.34 14.00 44.66 14.00 45.99 C 12.00 46.00 10.00 46.00 8.00 45.99 C 8.00 44.66 8.00 43.34 8.00 42.01 Z" />
<path fill="#000000" opacity="1.00" d=" M 50.00 42.01 C 52.00 42.00 54.00 42.00 56.00 42.01 C 56.00 43.34 56.00 44.66 56.00 45.99 C 54.00 46.00 52.00 46.00 50.00 45.99 C 50.00 44.66 50.00 43.34 50.00 42.01 Z" />
</g>
</svg>
