<?xml version="1.0" encoding="UTF-8" ?>
<!DOCTYPE svg PUBLIC "-//W3C//DTD SVG 1.1//EN" "http://www.w3.org/Graphics/SVG/1.1/DTD/svg11.dtd">
<svg width="64pt" height="64pt" viewBox="0 0 64 64" version="1.1" xmlns="http://www.w3.org/2000/svg">
<g id="#ffffffff">
<path fill="#ffffff" opacity="1.00" d=" M 0.00 0.00 L 64.00 0.00 L 64.00 64.00 L 0.00 64.00 L 0.00 0.00 M 22.00 6.00 C 22.03 8.21 21.97 10.42 21.96 12.63 C 17.26 13.96 11.54 15.66 9.94 20.91 C 7.26 33.09 8.14 45.63 8.00 58.00 C 12.00 58.00 16.00 58.00 20.00 58.00 C 20.00 56.00 20.00 54.00 20.00 52.00 C 28.00 52.00 36.00 52.00 44.00 52.00 C 44.00 54.00 44.00 56.00 44.00 58.00 C 48.00 58.00 52.00 58.00 56.00 58.00 C 55.87 45.62 56.74 33.08 54.06 20.90 C 52.41 15.69 46.77 13.87 42.03 12.60 C 42.02 10.40 41.98 8.20 42.00 6.00 C 35.33 6.00 28.67 6.00 22.00 6.00 Z" />
<path fill="#ffffff" opacity="1.00" d=" M 27.07 10.00 C 30.35 10.00 33.64 10.00 36.93 10.00 C 35.30 13.70 33.67 17.40 32.00 21.09 C 30.33 17.40 28.70 13.70 27.07 10.00 Z" />
<path fill="#ffffff" opacity="1.00" d=" M 20.02 17.41 C 21.76 16.84 23.50 16.26 25.24 15.68 C 27.51 20.75 29.76 25.84 32.00 30.93 C 34.24 25.84 36.49 20.75 38.76 15.68 C 40.50 16.26 42.24 16.84 43.98 17.41 C 44.03 27.61 43.99 37.80 44.00 48.00 C 36.00 48.00 28.00 48.00 20.00 48.00 C 20.01 37.80 19.98 27.61 20.02 17.41 Z" />
<path fill="#ffffff" opacity="1.00" d=" M 12.76 28.52 C 13.33 25.26 13.01 21.36 15.93 19.10 C 16.09 30.73 15.96 42.37 16.00 54.00 C 14.67 53.99 13.33 53.99 12.00 54.00 C 12.15 45.51 11.52 36.96 12.76 28.52 Z" />
<path fill="#ffffff" opacity="1.00" d=" M 48.07 19.29 C 48.87 20.28 50.13 21.04 50.30 22.42 C 52.47 32.81 51.98 43.46 52.00 54.00 C 50.67 53.99 49.33 53.99 48.00 54.00 C 48.04 42.43 47.91 30.86 48.07 19.29 Z" />
</g>
<g id="#000000ff">
<path fill="#000000" opacity="1.00" d=" M 22.00 6.00 C 28.67 6.00 35.33 6.00 42.00 6.00 C 41.98 8.20 42.02 10.40 42.03 12.60 C 46.77 13.87 52.41 15.69 54.06 20.90 C 56.74 33.08 55.87 45.62 56.00 58.00 C 52.00 58.00 48.00 58.00 44.00 58.00 C 44.00 56.00 44.00 54.00 44.00 52.00 C 36.00 52.00 28.00 52.00 20.00 52.00 C 20.00 54.00 20.00 56.00 20.00 58.00 C 16.00 58.00 12.00 58.00 8.00 58.00 C 8.14 45.63 7.26 33.09 9.94 20.91 C 11.54 15.66 17.26 13.96 21.96 12.63 C 21.97 10.42 22.03 8.21 22.00 6.00 M 27.07 10.00 C 28.70 13.70 30.33 17.40 32.00 21.09 C 33.67 17.40 35.30 13.70 36.93 10.00 C 33.64 10.00 30.35 10.00 27.07 10.00 M 20.02 17.41 C 19.98 27.61 20.01 37.80 20.00 48.00 C 28.00 48.00 36.00 48.00 44.00 48.00 C 43.99 37.80 44.03 27.61 43.98 17.41 C 42.24 16.84 40.50 16.26 38.76 15.68 C 36.49 20.75 34.24 25.84 32.00 30.93 C 29.76 25.84 27.51 20.75 25.24 15.68 C 23.50 16.26 21.76 16.84 20.02 17.41 M 12.76 28.52 C 11.52 36.96 12.15 45.51 12.00 54.00 C 13.33 53.99 14.67 53.99 16.00 54.00 C 15.96 42.37 16.09 30.73 15.93 19.10 C 13.01 21.36 13.33 25.26 12.76 28.52 M 48.07 19.29 C 47.91 30.86 48.04 42.43 48.00 54.00 C 49.33 53.99 50.67 53.99 52.00 54.00 C 51.98 43.46 52.47 32.81 50.30 22.42 C 50.13 21.04 48.87 20.28 48.07 19.29 Z" />
</g>
</svg>
