<?xml version="1.0" encoding="UTF-8" ?>
<!DOCTYPE svg PUBLIC "-//W3C//DTD SVG 1.1//EN" "http://www.w3.org/Graphics/SVG/1.1/DTD/svg11.dtd">
<svg width="64pt" height="64pt" viewBox="0 0 64 64" version="1.1" xmlns="http://www.w3.org/2000/svg">
<g id="#ffffffff">
<path fill="#ffffff" opacity="1.00" d=" M 0.00 0.00 L 64.00 0.00 L 64.00 64.00 L 0.00 64.00 L 0.00 0.00 M 18.81 9.62 C 14.84 10.63 10.64 13.14 9.82 17.47 C 8.17 28.23 7.79 39.13 8.00 50.00 C 10.67 50.00 13.33 50.00 16.00 50.00 C 16.00 52.67 16.00 55.33 16.00 58.00 C 26.67 58.00 37.33 58.00 48.00 58.00 C 48.00 55.33 48.00 52.67 48.00 50.00 C 50.67 50.00 53.33 50.00 56.00 50.00 C 56.16 39.37 55.92 28.70 54.39 18.16 C 53.55 14.05 49.88 11.03 45.98 9.87 C 42.16 8.64 38.39 7.18 34.47 6.26 C 28.99 5.24 23.93 8.20 18.81 9.62 Z" />
<path fill="#ffffff" opacity="1.00" d=" M 26.58 11.22 C 30.10 9.85 33.90 9.85 37.42 11.22 C 34.79 14.83 29.20 14.84 26.58 11.22 Z" />
<path fill="#ffffff" opacity="1.00" d=" M 20.05 13.34 C 20.72 13.13 22.07 12.72 22.75 12.52 C 24.80 15.62 28.11 18.11 31.99 18.00 C 35.88 18.12 39.19 15.62 41.25 12.51 C 41.94 12.73 43.30 13.17 43.98 13.39 C 44.02 26.93 43.99 40.47 44.00 54.00 C 36.00 54.00 28.00 54.00 20.00 54.00 C 20.03 40.45 19.94 26.89 20.05 13.34 Z" />
<path fill="#ffffff" opacity="1.00" d=" M 13.58 19.14 C 13.72 17.45 14.90 16.17 15.89 14.90 C 16.13 25.27 15.93 35.63 16.00 46.00 C 14.67 46.00 13.34 46.00 12.00 46.00 C 11.76 37.02 12.44 28.04 13.58 19.14 Z" />
<path fill="#ffffff" opacity="1.00" d=" M 48.09 15.04 C 49.18 16.48 50.56 17.90 50.59 19.83 C 51.65 28.51 52.21 37.25 52.00 46.00 C 50.66 46.00 49.33 46.00 48.00 46.00 C 48.05 35.68 47.89 25.36 48.09 15.04 Z" />
</g>
<g id="#000000ff">
<path fill="#000000" opacity="1.00" d=" M 18.81 9.62 C 23.93 8.20 28.99 5.24 34.47 6.26 C 38.39 7.18 42.16 8.64 45.98 9.87 C 49.88 11.03 53.55 14.05 54.39 18.16 C 55.92 28.70 56.16 39.37 56.00 50.00 C 53.33 50.00 50.67 50.00 48.00 50.00 C 48.00 52.67 48.00 55.33 48.00 58.00 C 37.33 58.00 26.67 58.00 16.00 58.00 C 16.00 55.33 16.00 52.67 16.00 50.00 C 13.33 50.00 10.67 50.00 8.00 50.00 C 7.79 39.13 8.17 28.23 9.82 17.47 C 10.64 13.14 14.84 10.63 18.81 9.62 M 26.58 11.22 C 29.20 14.84 34.79 14.83 37.42 11.22 C 33.90 9.85 30.10 9.85 26.58 11.22 M 20.05 13.34 C 19.94 26.89 20.03 40.45 20.00 54.00 C 28.00 54.00 36.00 54.00 44.00 54.00 C 43.99 40.47 44.02 26.93 43.98 13.39 C 43.30 13.17 41.94 12.73 41.25 12.51 C 39.19 15.62 35.88 18.12 31.99 18.00 C 28.11 18.11 24.80 15.62 22.75 12.52 C 22.07 12.72 20.72 13.13 20.05 13.34 M 13.58 19.14 C 12.44 28.04 11.76 37.02 12.00 46.00 C 13.34 46.00 14.67 46.00 16.00 46.00 C 15.93 35.63 16.13 25.27 15.89 14.90 C 14.90 16.17 13.72 17.45 13.58 19.14 M 48.09 15.04 C 47.89 25.36 48.05 35.68 48.00 46.00 C 49.33 46.00 50.66 46.00 52.00 46.00 C 52.21 37.25 51.65 28.51 50.59 19.83 C 50.56 17.90 49.18 16.48 48.09 15.04 Z" />
</g>
</svg>
