<?xml version="1.0" encoding="UTF-8" ?>
<!DOCTYPE svg PUBLIC "-//W3C//DTD SVG 1.1//EN" "http://www.w3.org/Graphics/SVG/1.1/DTD/svg11.dtd">
<svg width="64pt" height="64pt" viewBox="0 0 64 64" version="1.1" xmlns="http://www.w3.org/2000/svg">
<g id="#ffffffff">
<path fill="#ffffff" opacity="1.00" d=" M 0.00 0.00 L 64.00 0.00 L 64.00 64.00 L 0.00 64.00 L 0.00 0.00 M 12.00 6.00 C 12.00 10.67 12.00 15.33 12.00 20.00 C 13.33 20.00 14.67 20.00 16.00 20.00 C 16.01 16.67 15.99 13.33 16.00 10.00 C 26.67 10.00 37.33 10.00 48.00 10.00 C 48.01 13.33 47.99 16.67 48.00 20.00 C 49.33 20.00 50.67 20.00 52.00 20.00 C 52.00 15.33 52.00 10.67 52.00 6.00 C 38.67 6.00 25.33 6.00 12.00 6.00 M 14.00 24.00 C 14.00 29.33 14.00 34.67 14.00 40.00 C 15.33 40.00 16.66 40.00 17.99 40.00 C 17.98 38.46 18.01 36.93 18.10 35.39 C 18.81 36.90 19.42 38.44 20.00 40.00 C 21.33 40.00 22.66 40.00 23.99 40.00 C 22.82 37.03 21.61 34.08 20.44 31.11 C 21.62 28.74 22.82 26.38 23.99 24.00 C 22.99 24.00 20.99 24.00 20.00 24.00 C 19.35 25.31 18.73 26.65 18.15 27.99 C 18.07 26.66 18.01 25.33 17.96 24.00 C 16.64 24.00 15.32 24.00 14.00 24.00 M 26.00 24.00 C 26.00 29.33 26.00 34.67 26.00 40.00 C 27.33 40.00 28.67 40.00 30.00 40.00 C 30.00 36.90 30.00 33.81 30.00 30.72 C 30.67 31.58 31.34 32.44 32.01 33.30 C 32.68 32.44 33.34 31.57 34.00 30.70 C 34.00 33.80 34.00 36.90 34.00 40.00 C 35.33 40.00 36.67 40.00 38.00 40.00 C 38.00 34.67 38.00 29.33 38.00 24.00 C 36.67 24.00 35.34 24.00 34.01 24.00 C 33.33 24.87 32.68 25.74 32.00 26.60 C 31.33 25.73 30.66 24.87 29.99 24.00 C 28.66 24.00 27.33 24.00 26.00 24.00 M 40.00 24.00 C 40.00 25.33 40.00 26.67 40.00 28.00 C 41.71 28.00 43.42 28.00 45.14 28.01 C 43.29 31.95 39.20 35.28 40.00 40.00 C 43.33 40.00 46.66 40.00 50.00 40.00 C 50.00 38.67 50.00 37.33 50.00 36.00 C 48.29 36.00 46.59 36.00 44.88 35.99 C 46.72 32.05 50.81 28.71 50.00 24.00 C 46.67 24.00 43.33 24.00 40.00 24.00 M 12.00 44.00 C 12.00 48.67 12.00 53.33 12.00 58.00 C 25.33 58.00 38.67 58.00 52.00 58.00 C 52.00 53.33 52.00 48.67 52.00 44.00 C 50.66 44.00 49.33 44.00 48.00 44.00 C 47.99 47.33 48.01 50.66 48.00 54.00 C 37.33 54.00 26.67 54.00 16.00 54.00 C 15.99 50.66 16.01 47.33 16.00 44.00 C 14.67 44.00 13.33 44.00 12.00 44.00 Z" />
</g>
<g id="#000000ff">
<path fill="#000000" opacity="1.00" d=" M 12.00 6.00 C 25.33 6.00 38.67 6.00 52.00 6.00 C 52.00 10.67 52.00 15.33 52.00 20.00 C 50.67 20.00 49.33 20.00 48.00 20.00 C 47.99 16.67 48.01 13.33 48.00 10.00 C 37.33 10.00 26.67 10.00 16.00 10.00 C 15.99 13.33 16.01 16.67 16.00 20.00 C 14.67 20.00 13.33 20.00 12.00 20.00 C 12.00 15.33 12.00 10.67 12.00 6.00 Z" />
<path fill="#000000" opacity="1.00" d=" M 14.00 24.00 C 15.32 24.00 16.64 24.00 17.96 24.00 C 18.01 25.33 18.07 26.66 18.15 27.99 C 18.73 26.65 19.35 25.31 20.00 24.00 C 20.99 24.00 22.99 24.00 23.99 24.00 C 22.82 26.38 21.62 28.74 20.44 31.11 C 21.61 34.08 22.82 37.03 23.99 40.00 C 22.66 40.00 21.33 40.00 20.00 40.00 C 19.42 38.44 18.81 36.90 18.10 35.39 C 18.01 36.93 17.98 38.46 17.99 40.00 C 16.66 40.00 15.33 40.00 14.00 40.00 C 14.00 34.67 14.00 29.33 14.00 24.00 Z" />
<path fill="#000000" opacity="1.00" d=" M 26.00 24.00 C 27.33 24.00 28.66 24.00 29.99 24.00 C 30.66 24.87 31.33 25.73 32.00 26.60 C 32.68 25.74 33.33 24.87 34.01 24.00 C 35.34 24.00 36.67 24.00 38.00 24.00 C 38.00 29.33 38.00 34.67 38.00 40.00 C 36.67 40.00 35.33 40.00 34.00 40.00 C 34.00 36.90 34.00 33.80 34.00 30.70 C 33.34 31.57 32.68 32.44 32.01 33.30 C 31.34 32.44 30.67 31.58 30.00 30.72 C 30.00 33.81 30.00 36.90 30.00 40.00 C 28.67 40.00 27.33 40.00 26.00 40.00 C 26.00 34.67 26.00 29.33 26.00 24.00 Z" />
<path fill="#000000" opacity="1.00" d=" M 40.00 24.00 C 43.33 24.00 46.67 24.00 50.00 24.00 C 50.81 28.71 46.72 32.05 44.88 35.99 C 46.59 36.00 48.29 36.00 50.00 36.00 C 50.00 37.33 50.00 38.67 50.00 40.00 C 46.66 40.00 43.33 40.00 40.00 40.00 C 39.20 35.28 43.29 31.95 45.14 28.01 C 43.42 28.00 41.71 28.00 40.00 28.00 C 40.00 26.67 40.00 25.33 40.00 24.00 Z" />
<path fill="#000000" opacity="1.00" d=" M 12.00 44.00 C 13.33 44.00 14.67 44.00 16.00 44.00 C 16.01 47.33 15.99 50.66 16.00 54.00 C 26.67 54.00 37.33 54.00 48.00 54.00 C 48.01 50.66 47.99 47.33 48.00 44.00 C 49.33 44.00 50.66 44.00 52.00 44.00 C 52.00 48.67 52.00 53.33 52.00 58.00 C 38.67 58.00 25.33 58.00 12.00 58.00 C 12.00 53.33 12.00 48.67 12.00 44.00 Z" />
</g>
</svg>
