<?xml version="1.0" encoding="UTF-8" ?>
<!DOCTYPE svg PUBLIC "-//W3C//DTD SVG 1.1//EN" "http://www.w3.org/Graphics/SVG/1.1/DTD/svg11.dtd">
<svg width="64pt" height="64pt" viewBox="0 0 64 64" version="1.1" xmlns="http://www.w3.org/2000/svg">
<g id="#ffffffff">
<path fill="#ffffff" opacity="1.00" d=" M 0.00 0.00 L 64.00 0.00 L 64.00 64.00 L 0.00 64.00 L 0.00 0.00 M 6.58 50.52 C 7.53 51.49 8.49 52.46 9.44 53.44 C 14.99 47.94 20.49 42.38 26.03 36.88 C 28.72 39.55 31.42 42.21 34.08 44.92 C 40.05 38.95 46.02 32.98 52.00 27.00 C 54.97 24.21 56.62 19.98 55.78 15.92 C 55.22 12.29 52.53 9.60 50.02 7.15 C 35.49 21.56 21.09 36.10 6.58 50.52 Z" />
<path fill="#ffffff" opacity="1.00" d=" M 49.60 13.32 C 50.87 12.82 51.04 14.65 51.52 15.40 C 52.65 18.23 51.82 21.59 49.65 23.69 C 44.53 28.92 39.31 34.05 34.13 39.23 C 32.38 37.50 30.64 35.75 28.91 34.00 C 35.82 27.12 42.64 20.15 49.60 13.32 Z" />
</g>
<g id="#000000ff">
<path fill="#000000" opacity="1.00" d=" M 6.58 50.52 C 21.09 36.10 35.49 21.56 50.02 7.15 C 52.53 9.60 55.22 12.29 55.78 15.92 C 56.62 19.98 54.97 24.21 52.00 27.00 C 46.02 32.98 40.05 38.95 34.08 44.92 C 31.42 42.21 28.72 39.55 26.03 36.88 C 20.49 42.38 14.99 47.94 9.44 53.44 C 8.49 52.46 7.53 51.49 6.58 50.52 M 49.60 13.32 C 42.64 20.15 35.82 27.12 28.91 34.00 C 30.64 35.75 32.38 37.50 34.13 39.23 C 39.31 34.05 44.53 28.92 49.65 23.69 C 51.82 21.59 52.65 18.23 51.52 15.40 C 51.04 14.65 50.87 12.82 49.60 13.32 Z" />
</g>
</svg>
