<?xml version="1.0" encoding="UTF-8" ?>
<!DOCTYPE svg PUBLIC "-//W3C//DTD SVG 1.1//EN" "http://www.w3.org/Graphics/SVG/1.1/DTD/svg11.dtd">
<svg width="64pt" height="64pt" viewBox="0 0 64 64" version="1.1" xmlns="http://www.w3.org/2000/svg">
<g id="#ffffffff">
<path fill="#ffffff" opacity="1.00" d=" M 0.00 0.00 L 64.00 0.00 L 64.00 64.00 L 0.00 64.00 L 0.00 0.00 M 29.40 8.59 C 26.28 10.00 22.56 10.69 20.61 13.80 C 18.58 14.42 16.14 14.96 15.18 17.11 C 13.61 20.49 11.66 23.94 12.04 27.81 C 9.20 30.38 7.27 34.24 8.28 38.13 C 8.83 41.57 12.20 43.46 13.32 46.66 C 14.68 50.37 19.02 50.86 21.54 53.42 C 23.76 55.56 27.03 56.46 30.02 55.67 C 32.84 54.88 35.69 56.60 38.49 55.65 C 41.72 54.91 43.55 51.78 46.63 50.70 C 49.43 49.63 50.63 46.78 51.93 44.33 C 53.45 42.29 55.48 40.43 55.82 37.76 C 56.67 33.98 54.65 30.33 51.96 27.82 C 52.33 23.95 50.39 20.50 48.82 17.11 C 47.86 14.97 45.42 14.42 43.39 13.80 C 41.42 10.69 37.69 9.99 34.57 8.58 C 32.93 7.90 31.02 7.91 29.40 8.59 Z" />
<path fill="#ffffff" opacity="1.00" d=" M 28.25 13.89 C 30.34 11.61 33.64 11.56 35.75 13.87 C 38.53 13.66 40.24 15.72 40.41 18.37 C 42.05 18.31 44.68 17.28 45.45 19.37 C 46.11 21.92 48.18 24.10 47.95 26.84 C 47.37 28.31 46.09 29.32 45.08 30.46 C 45.74 31.56 46.39 32.67 47.05 33.78 C 48.02 32.95 49.00 32.12 49.98 31.30 C 53.17 34.45 52.19 39.73 48.26 41.75 C 47.82 45.23 45.22 47.82 41.74 48.27 C 39.86 51.86 35.40 52.92 32.00 50.79 C 28.60 52.90 24.13 51.88 22.26 48.27 C 18.78 47.82 16.17 45.23 15.74 41.74 C 11.79 39.73 10.83 34.44 14.00 31.27 C 14.99 32.10 15.97 32.94 16.95 33.78 C 17.61 32.67 18.27 31.56 18.93 30.46 C 17.56 28.94 15.34 27.35 16.14 24.99 C 17.04 22.93 17.99 20.89 18.80 18.80 C 20.07 17.44 22.02 18.37 23.59 18.34 C 23.84 15.81 25.38 13.52 28.25 13.89 M 21.85 32.02 C 21.80 36.69 25.69 39.43 28.52 42.53 C 30.33 44.43 33.65 44.43 35.47 42.54 C 38.30 39.43 42.21 36.71 42.15 32.02 C 40.89 32.02 39.63 32.02 38.37 32.03 C 37.39 34.47 34.61 34.47 33.63 32.04 C 32.49 32.01 31.34 31.99 30.20 31.98 C 29.90 32.50 29.30 33.54 29.01 34.06 C 27.52 34.09 26.37 33.27 25.63 32.03 C 24.37 32.02 23.11 32.02 21.85 32.02 Z" />
</g>
<g id="#000000ff">
<path fill="#000000" opacity="1.00" d=" M 29.40 8.59 C 31.02 7.91 32.93 7.90 34.57 8.58 C 37.69 9.99 41.42 10.69 43.39 13.80 C 45.42 14.42 47.86 14.97 48.82 17.11 C 50.39 20.50 52.33 23.95 51.96 27.82 C 54.65 30.33 56.67 33.98 55.82 37.76 C 55.48 40.43 53.45 42.29 51.93 44.33 C 50.63 46.78 49.43 49.63 46.63 50.70 C 43.55 51.78 41.72 54.91 38.49 55.65 C 35.69 56.60 32.84 54.88 30.02 55.67 C 27.03 56.46 23.76 55.56 21.54 53.42 C 19.02 50.86 14.68 50.37 13.32 46.66 C 12.20 43.46 8.83 41.57 8.28 38.13 C 7.27 34.24 9.20 30.38 12.04 27.81 C 11.66 23.94 13.61 20.49 15.18 17.11 C 16.14 14.96 18.58 14.42 20.61 13.80 C 22.56 10.69 26.28 10.00 29.40 8.59 M 28.25 13.89 C 25.38 13.52 23.84 15.81 23.59 18.34 C 22.02 18.37 20.07 17.44 18.80 18.80 C 17.99 20.89 17.04 22.93 16.14 24.99 C 15.34 27.35 17.56 28.94 18.93 30.46 C 18.27 31.56 17.61 32.67 16.95 33.78 C 15.97 32.94 14.99 32.10 14.00 31.27 C 10.83 34.44 11.79 39.73 15.74 41.74 C 16.17 45.23 18.78 47.82 22.26 48.27 C 24.13 51.88 28.60 52.90 32.00 50.79 C 35.40 52.92 39.86 51.86 41.74 48.27 C 45.22 47.82 47.82 45.23 48.26 41.75 C 52.19 39.73 53.17 34.45 49.98 31.30 C 49.00 32.12 48.02 32.95 47.05 33.78 C 46.39 32.67 45.74 31.56 45.08 30.46 C 46.09 29.32 47.37 28.31 47.95 26.84 C 48.18 24.10 46.11 21.92 45.45 19.37 C 44.68 17.28 42.05 18.31 40.41 18.37 C 40.24 15.72 38.53 13.66 35.75 13.87 C 33.64 11.56 30.34 11.61 28.25 13.89 Z" />
<path fill="#000000" opacity="1.00" d=" M 21.85 32.02 C 23.11 32.02 24.37 32.02 25.63 32.03 C 26.37 33.27 27.52 34.09 29.01 34.06 C 29.30 33.54 29.90 32.50 30.20 31.98 C 31.34 31.99 32.49 32.01 33.63 32.04 C 34.61 34.47 37.39 34.47 38.37 32.03 C 39.63 32.02 40.89 32.02 42.15 32.02 C 42.21 36.71 38.30 39.43 35.47 42.54 C 33.65 44.43 30.33 44.43 28.52 42.53 C 25.69 39.43 21.80 36.69 21.85 32.02 Z" />
</g>
</svg>
