<?xml version="1.0" encoding="UTF-8" ?>
<!DOCTYPE svg PUBLIC "-//W3C//DTD SVG 1.1//EN" "http://www.w3.org/Graphics/SVG/1.1/DTD/svg11.dtd">
<svg width="64pt" height="64pt" viewBox="0 0 64 64" version="1.1" xmlns="http://www.w3.org/2000/svg">
<g id="#ffffffff">
<path fill="#ffffff" opacity="1.00" d=" M 0.00 0.00 L 64.00 0.00 L 64.00 64.00 L 0.00 64.00 L 0.00 0.00 M 22.14 14.13 C 15.95 19.92 17.08 30.71 23.88 35.56 C 15.63 38.79 10.07 47.18 9.91 55.99 C 11.25 55.99 12.58 56.00 13.91 56.00 C 14.03 47.51 20.40 39.90 28.71 38.21 C 29.15 39.47 29.58 40.74 30.01 42.00 C 31.33 42.00 32.66 42.00 33.99 42.00 C 34.43 40.72 34.87 39.45 35.32 38.17 C 38.06 39.01 40.76 40.06 43.05 41.82 C 42.11 39.68 42.72 36.47 40.18 35.45 C 45.62 31.16 47.89 23.04 44.05 16.96 C 39.89 9.20 28.13 7.68 22.14 14.13 M 46.12 38.08 C 46.37 40.44 48.23 42.06 49.97 43.45 C 50.01 46.97 50.03 50.49 49.95 54.02 C 51.08 54.95 52.16 56.60 53.87 55.93 C 54.63 55.34 55.35 54.71 56.05 54.05 C 56.03 52.70 56.00 51.36 55.99 50.02 C 55.50 49.51 54.52 48.48 54.03 47.97 C 54.52 47.48 55.50 46.49 55.99 46.00 C 56.00 45.36 56.03 44.09 56.04 43.45 C 57.59 42.15 59.31 40.77 59.77 38.68 C 61.00 34.48 57.35 29.88 53.00 30.01 C 48.89 29.90 45.29 34.00 46.12 38.08 M 30.00 44.00 C 29.34 48.00 28.67 52.00 28.00 56.00 C 30.66 56.00 33.33 56.00 36.00 56.00 C 35.33 52.00 34.67 48.00 34.00 44.00 C 32.67 44.00 31.33 44.00 30.00 44.00 Z" />
<path fill="#ffffff" opacity="1.00" d=" M 28.47 14.66 C 35.33 11.71 43.48 18.50 41.81 25.78 C 40.81 33.15 30.81 36.67 25.43 31.50 C 19.76 26.98 21.60 16.93 28.47 14.66 Z" />
<path fill="#ffffff" opacity="1.00" d=" M 49.76 37.96 C 50.06 36.16 50.79 33.88 53.05 33.99 C 55.27 33.95 55.91 36.20 56.24 37.95 C 54.08 37.97 51.92 37.96 49.76 37.96 Z" />
</g>
<g id="#000000ff">
<path fill="#000000" opacity="1.00" d=" M 22.14 14.13 C 28.13 7.68 39.89 9.20 44.05 16.96 C 47.89 23.04 45.62 31.16 40.18 35.45 C 42.72 36.47 42.11 39.68 43.05 41.82 C 40.76 40.06 38.06 39.01 35.32 38.17 C 34.87 39.45 34.43 40.72 33.99 42.00 C 32.66 42.00 31.33 42.00 30.01 42.00 C 29.58 40.74 29.15 39.47 28.71 38.21 C 20.40 39.90 14.03 47.51 13.91 56.00 C 12.58 56.00 11.25 55.99 9.91 55.99 C 10.07 47.18 15.63 38.79 23.88 35.56 C 17.08 30.71 15.95 19.92 22.14 14.13 M 28.47 14.66 C 21.60 16.93 19.76 26.98 25.43 31.50 C 30.81 36.67 40.81 33.15 41.81 25.78 C 43.48 18.50 35.33 11.71 28.47 14.66 Z" />
<path fill="#000000" opacity="1.00" d=" M 46.12 38.08 C 45.29 34.00 48.89 29.90 53.00 30.01 C 57.35 29.88 61.00 34.48 59.77 38.68 C 59.31 40.77 57.59 42.15 56.04 43.45 C 56.03 44.09 56.00 45.36 55.99 46.00 C 55.50 46.49 54.52 47.48 54.03 47.97 C 54.52 48.48 55.50 49.51 55.99 50.02 C 56.00 51.36 56.03 52.70 56.05 54.05 C 55.35 54.71 54.63 55.34 53.87 55.93 C 52.16 56.60 51.08 54.95 49.95 54.02 C 50.03 50.49 50.01 46.97 49.97 43.45 C 48.23 42.06 46.37 40.44 46.12 38.08 M 49.76 37.96 C 51.92 37.96 54.08 37.97 56.24 37.95 C 55.91 36.20 55.27 33.95 53.05 33.99 C 50.79 33.88 50.06 36.16 49.76 37.96 Z" />
<path fill="#000000" opacity="1.00" d=" M 30.00 44.00 C 31.33 44.00 32.67 44.00 34.00 44.00 C 34.67 48.00 35.33 52.00 36.00 56.00 C 33.33 56.00 30.66 56.00 28.00 56.00 C 28.67 52.00 29.34 48.00 30.00 44.00 Z" />
</g>
</svg>
