<?xml version="1.0" encoding="UTF-8" ?>
<!DOCTYPE svg PUBLIC "-//W3C//DTD SVG 1.1//EN" "http://www.w3.org/Graphics/SVG/1.1/DTD/svg11.dtd">
<svg width="64pt" height="64pt" viewBox="0 0 64 64" version="1.1" xmlns="http://www.w3.org/2000/svg">
<g id="#ffffffff">
<path fill="#ffffff" opacity="1.00" d=" M 0.00 0.00 L 64.00 0.00 L 64.00 64.00 L 0.00 64.00 L 0.00 0.00 M 19.85 19.64 C 16.58 18.33 13.29 17.08 9.98 15.87 C 8.65 19.58 7.33 23.29 6.01 27.00 C 11.37 28.56 16.34 32.12 22.09 31.83 C 26.02 31.75 28.61 28.54 31.74 26.69 C 34.35 25.64 37.25 25.97 40.00 25.84 C 40.00 24.50 40.00 23.17 40.00 21.84 C 36.24 21.97 32.08 21.55 28.81 23.78 C 26.34 25.33 24.26 28.09 21.06 27.89 C 17.53 27.68 14.41 25.74 11.10 24.68 C 11.52 23.47 11.94 22.27 12.35 21.06 C 14.95 22.06 17.56 23.02 20.15 24.04 C 24.87 21.43 29.62 18.89 34.31 16.22 C 41.98 19.30 49.58 22.56 57.24 25.68 C 57.74 24.45 58.25 23.22 58.76 21.99 C 50.56 18.56 42.34 15.17 34.12 11.78 C 29.37 14.41 24.61 17.03 19.85 19.64 M 12.00 36.47 C 12.00 41.65 12.00 46.82 12.00 52.00 C 13.33 52.00 14.67 52.00 16.00 52.00 C 16.00 49.18 16.00 46.36 16.00 43.54 C 19.36 45.49 22.68 47.51 26.00 49.51 C 26.00 47.52 26.00 45.53 26.00 43.54 C 29.36 45.49 32.68 47.51 36.00 49.51 C 36.00 47.52 36.00 45.53 36.00 43.54 C 39.36 45.49 42.68 47.51 46.00 49.51 C 46.00 47.52 46.00 45.53 46.00 43.54 C 48.02 44.70 50.01 45.91 52.00 47.10 C 52.00 48.73 52.00 50.37 52.00 52.00 C 53.33 52.00 54.67 52.00 56.00 52.00 C 56.00 49.62 56.00 47.25 56.00 44.87 C 51.34 42.07 46.67 39.27 42.01 36.47 C 42.00 38.47 42.00 40.47 41.99 42.46 C 38.67 40.47 35.34 38.47 32.01 36.47 C 32.00 38.47 32.00 40.47 31.99 42.46 C 28.67 40.47 25.34 38.47 22.01 36.47 C 22.00 38.47 22.00 40.47 21.99 42.46 C 18.66 40.47 15.34 38.46 12.00 36.47 Z" />
</g>
<g id="#000000ff">
<path fill="#000000" opacity="1.00" d=" M 19.85 19.64 C 24.61 17.03 29.37 14.41 34.12 11.78 C 42.34 15.17 50.56 18.56 58.76 21.99 C 58.25 23.22 57.74 24.45 57.24 25.68 C 49.58 22.56 41.98 19.30 34.31 16.22 C 29.62 18.89 24.87 21.43 20.15 24.04 C 17.56 23.02 14.95 22.06 12.35 21.06 C 11.94 22.27 11.52 23.47 11.10 24.68 C 14.41 25.74 17.53 27.68 21.06 27.89 C 24.26 28.09 26.34 25.33 28.81 23.78 C 32.08 21.55 36.24 21.97 40.00 21.84 C 40.00 23.17 40.00 24.50 40.00 25.84 C 37.25 25.97 34.35 25.64 31.74 26.69 C 28.61 28.54 26.02 31.75 22.09 31.83 C 16.34 32.12 11.37 28.56 6.01 27.00 C 7.33 23.29 8.65 19.58 9.98 15.87 C 13.29 17.08 16.58 18.33 19.85 19.64 Z" />
<path fill="#000000" opacity="1.00" d=" M 12.00 36.47 C 15.34 38.46 18.66 40.47 21.99 42.46 C 22.00 40.47 22.00 38.47 22.01 36.47 C 25.34 38.47 28.67 40.47 31.99 42.46 C 32.00 40.47 32.00 38.47 32.01 36.47 C 35.34 38.47 38.67 40.47 41.99 42.46 C 42.00 40.47 42.00 38.47 42.01 36.47 C 46.67 39.27 51.34 42.07 56.00 44.87 C 56.00 47.25 56.00 49.62 56.00 52.00 C 54.67 52.00 53.33 52.00 52.00 52.00 C 52.00 50.37 52.00 48.73 52.00 47.10 C 50.01 45.91 48.02 44.70 46.00 43.54 C 46.00 45.53 46.00 47.52 46.00 49.51 C 42.68 47.51 39.36 45.49 36.00 43.54 C 36.00 45.53 36.00 47.52 36.00 49.51 C 32.68 47.51 29.36 45.49 26.00 43.54 C 26.00 45.53 26.00 47.52 26.00 49.51 C 22.68 47.51 19.36 45.49 16.00 43.54 C 16.00 46.36 16.00 49.18 16.00 52.00 C 14.67 52.00 13.33 52.00 12.00 52.00 C 12.00 46.82 12.00 41.65 12.00 36.47 Z" />
</g>
</svg>
