<?xml version="1.0" encoding="UTF-8" ?>
<!DOCTYPE svg PUBLIC "-//W3C//DTD SVG 1.1//EN" "http://www.w3.org/Graphics/SVG/1.1/DTD/svg11.dtd">
<svg width="64pt" height="64pt" viewBox="0 0 64 64" version="1.1" xmlns="http://www.w3.org/2000/svg">
<g id="#ffffffff">
<path fill="#ffffff" opacity="1.00" d=" M 0.00 0.00 L 64.00 0.00 L 64.00 64.00 L 19.99 64.00 C 19.44 60.13 19.76 56.11 21.49 52.56 C 26.20 42.23 33.94 33.71 41.44 25.34 C 40.47 24.43 39.53 23.52 38.58 22.61 C 32.36 29.26 26.57 36.30 21.44 43.82 C 18.53 42.05 15.25 40.03 14.32 36.50 C 13.05 30.86 15.55 24.51 20.73 21.72 C 28.96 17.19 38.60 16.52 47.35 13.32 C 49.40 22.39 50.39 31.77 49.79 41.07 C 49.37 46.10 47.37 52.24 41.92 53.70 C 36.51 55.11 32.22 50.73 28.32 47.74 C 27.61 48.87 26.89 50.01 26.18 51.14 C 29.45 53.74 32.73 56.68 36.90 57.64 C 42.20 58.93 48.09 56.36 50.76 51.60 C 54.69 44.80 54.10 36.61 53.70 29.07 C 53.06 21.97 52.31 14.73 49.85 8.01 C 39.72 13.12 27.54 12.66 17.86 18.84 C 11.50 22.78 8.50 31.15 10.72 38.25 C 12.11 42.46 15.83 45.25 19.57 47.29 C 16.76 52.36 14.96 58.15 15.92 64.00 L 0.00 64.00 L 0.00 0.00 Z" />
</g>
<g id="#000000ff">
<path fill="#000000" opacity="1.00" d=" M 17.86 18.84 C 27.54 12.66 39.72 13.12 49.85 8.01 C 52.31 14.73 53.06 21.97 53.70 29.07 C 54.10 36.61 54.69 44.80 50.76 51.60 C 48.09 56.36 42.20 58.93 36.90 57.64 C 32.73 56.68 29.45 53.74 26.18 51.14 C 26.89 50.01 27.61 48.87 28.32 47.74 C 32.22 50.73 36.51 55.11 41.92 53.70 C 47.37 52.24 49.37 46.10 49.79 41.07 C 50.39 31.77 49.40 22.39 47.35 13.32 C 38.60 16.52 28.96 17.19 20.73 21.72 C 15.55 24.51 13.05 30.86 14.32 36.50 C 15.25 40.03 18.53 42.05 21.44 43.82 C 26.57 36.30 32.36 29.26 38.58 22.61 C 39.53 23.52 40.47 24.43 41.44 25.34 C 33.94 33.71 26.20 42.23 21.49 52.56 C 19.76 56.11 19.44 60.13 19.99 64.00 L 15.92 64.00 C 14.96 58.15 16.76 52.36 19.57 47.29 C 15.83 45.25 12.11 42.46 10.72 38.25 C 8.50 31.15 11.50 22.78 17.86 18.84 Z" />
</g>
</svg>
