<?xml version="1.0" encoding="UTF-8" ?>
<!DOCTYPE svg PUBLIC "-//W3C//DTD SVG 1.1//EN" "http://www.w3.org/Graphics/SVG/1.1/DTD/svg11.dtd">
<svg width="64pt" height="64pt" viewBox="0 0 64 64" version="1.1" xmlns="http://www.w3.org/2000/svg">
<g id="#ffffffff">
<path fill="#ffffff" opacity="1.00" d=" M 0.00 0.00 L 64.00 0.00 L 64.00 64.00 L 0.00 64.00 L 0.00 0.00 M 14.00 8.00 C 14.34 18.52 12.41 28.91 11.53 39.36 C 10.89 38.51 10.24 37.65 9.60 36.80 C 8.54 37.62 7.47 38.43 6.40 39.25 C 7.63 40.81 8.82 42.39 9.99 43.98 C 8.66 43.99 7.33 44.00 6.00 44.01 C 6.00 45.34 6.00 46.67 6.00 48.00 C 7.54 48.00 9.08 48.00 10.62 48.00 C 10.34 50.67 10.06 53.33 9.78 56.00 C 15.71 56.00 21.65 56.02 27.58 55.98 C 29.04 50.10 30.49 44.21 32.00 38.34 C 33.51 44.21 34.96 50.10 36.43 55.99 C 42.36 56.01 48.29 56.00 54.22 56.00 C 53.93 53.33 53.66 50.67 53.38 48.00 C 54.92 48.00 56.46 48.00 58.00 48.00 C 58.00 46.67 58.00 45.33 58.00 44.00 C 56.66 44.00 55.33 44.00 54.00 43.99 C 55.25 42.41 56.40 40.76 57.57 39.12 C 56.52 38.36 55.47 37.59 54.44 36.82 C 53.78 37.66 53.12 38.50 52.46 39.34 C 51.59 28.90 49.64 18.51 50.00 8.00 C 38.00 8.00 26.00 8.00 14.00 8.00 Z" />
<path fill="#ffffff" opacity="1.00" d=" M 18.01 12.00 C 19.34 12.00 20.67 12.00 22.00 12.00 C 22.00 15.97 22.01 19.94 21.99 23.91 C 22.49 24.44 23.49 25.49 23.99 26.01 C 24.50 25.50 25.50 24.48 26.01 23.96 C 26.01 22.51 26.01 21.06 26.00 19.60 C 27.99 20.41 29.99 21.19 31.99 21.99 C 34.02 21.25 36.02 20.45 38.01 19.61 C 38.00 21.05 37.99 22.49 37.99 23.92 C 38.49 24.44 39.49 25.49 39.99 26.01 C 40.50 25.50 41.50 24.47 42.01 23.96 C 41.99 19.97 42.00 15.99 42.00 12.00 C 43.33 12.00 44.66 12.00 45.98 12.00 C 46.22 22.71 48.03 33.33 48.94 44.00 C 45.12 43.97 41.29 44.10 37.47 43.90 C 36.44 39.24 35.19 34.63 34.06 30.00 C 32.69 30.00 31.31 30.00 29.94 30.00 C 28.78 34.66 27.60 39.32 26.45 43.98 C 22.66 44.02 18.86 44.00 15.06 44.00 C 15.98 33.33 17.74 22.71 18.01 12.00 Z" />
<path fill="#ffffff" opacity="1.00" d=" M 27.28 12.16 C 29.58 11.04 31.21 15.06 28.73 15.83 C 26.43 16.99 24.77 12.91 27.28 12.16 Z" />
<path fill="#ffffff" opacity="1.00" d=" M 35.17 12.12 C 37.53 11.07 39.24 14.92 36.76 15.82 C 34.44 16.94 32.84 13.13 35.17 12.12 Z" />
<path fill="#ffffff" opacity="1.00" d=" M 14.61 48.03 C 18.22 47.97 21.83 48.00 25.44 48.00 C 25.11 49.33 24.78 50.66 24.45 51.98 C 21.04 52.01 17.63 52.00 14.22 52.00 C 14.35 50.67 14.48 49.35 14.61 48.03 Z" />
<path fill="#ffffff" opacity="1.00" d=" M 38.57 48.00 C 42.16 48.00 45.76 48.00 49.35 48.00 C 49.49 49.33 49.64 50.66 49.79 51.99 C 46.37 52.00 42.96 52.01 39.55 51.98 C 39.22 50.65 38.89 49.33 38.57 48.00 Z" />
</g>
<g id="#000000ff">
<path fill="#000000" opacity="1.00" d=" M 14.00 8.00 C 26.00 8.00 38.00 8.00 50.00 8.00 C 49.64 18.51 51.59 28.90 52.46 39.34 C 53.12 38.50 53.78 37.66 54.44 36.82 C 55.47 37.59 56.52 38.36 57.57 39.12 C 56.40 40.76 55.25 42.41 54.00 43.99 C 55.33 44.00 56.66 44.00 58.00 44.00 C 58.00 45.33 58.00 46.67 58.00 48.00 C 56.46 48.00 54.92 48.00 53.38 48.00 C 53.66 50.67 53.93 53.33 54.22 56.00 C 48.29 56.00 42.36 56.01 36.43 55.99 C 34.96 50.10 33.51 44.21 32.00 38.34 C 30.49 44.21 29.04 50.10 27.58 55.98 C 21.65 56.02 15.71 56.00 9.78 56.00 C 10.06 53.33 10.34 50.67 10.62 48.00 C 9.08 48.00 7.54 48.00 6.00 48.00 C 6.00 46.67 6.00 45.34 6.00 44.01 C 7.33 44.00 8.66 43.99 9.99 43.98 C 8.82 42.39 7.63 40.81 6.40 39.25 C 7.47 38.43 8.54 37.62 9.60 36.80 C 10.24 37.65 10.89 38.51 11.53 39.36 C 12.41 28.91 14.34 18.52 14.00 8.00 M 18.01 12.00 C 17.74 22.71 15.98 33.33 15.06 44.00 C 18.86 44.00 22.66 44.02 26.45 43.98 C 27.60 39.32 28.78 34.66 29.94 30.00 C 31.31 30.00 32.69 30.00 34.06 30.00 C 35.19 34.63 36.44 39.24 37.47 43.90 C 41.29 44.10 45.12 43.97 48.94 44.00 C 48.03 33.33 46.22 22.71 45.98 12.00 C 44.66 12.00 43.33 12.00 42.00 12.00 C 42.00 15.99 41.99 19.97 42.01 23.96 C 41.50 24.47 40.50 25.50 39.99 26.01 C 39.49 25.49 38.49 24.44 37.99 23.92 C 37.99 22.49 38.00 21.05 38.01 19.61 C 36.02 20.45 34.02 21.25 31.99 21.99 C 29.99 21.19 27.99 20.41 26.00 19.60 C 26.01 21.06 26.01 22.51 26.01 23.96 C 25.50 24.48 24.50 25.50 23.99 26.01 C 23.49 25.49 22.49 24.44 21.99 23.91 C 22.01 19.94 22.00 15.97 22.00 12.00 C 20.67 12.00 19.34 12.00 18.01 12.00 M 27.28 12.16 C 24.77 12.91 26.43 16.99 28.73 15.83 C 31.21 15.06 29.58 11.04 27.28 12.16 M 35.17 12.12 C 32.84 13.13 34.44 16.94 36.76 15.82 C 39.24 14.92 37.53 11.07 35.17 12.12 M 14.61 48.03 C 14.48 49.35 14.35 50.67 14.22 52.00 C 17.63 52.00 21.04 52.01 24.45 51.98 C 24.78 50.66 25.11 49.33 25.44 48.00 C 21.83 48.00 18.22 47.97 14.61 48.03 M 38.57 48.00 C 38.89 49.33 39.22 50.65 39.55 51.98 C 42.96 52.01 46.37 52.00 49.79 51.99 C 49.64 50.66 49.49 49.33 49.35 48.00 C 45.76 48.00 42.16 48.00 38.57 48.00 Z" />
</g>
</svg>
