<?xml version="1.0" encoding="UTF-8" ?>
<!DOCTYPE svg PUBLIC "-//W3C//DTD SVG 1.1//EN" "http://www.w3.org/Graphics/SVG/1.1/DTD/svg11.dtd">
<svg width="64pt" height="64pt" viewBox="0 0 64 64" version="1.1" xmlns="http://www.w3.org/2000/svg">
<g id="#ffffffff">
<path fill="#ffffff" opacity="1.00" d=" M 0.00 0.00 L 64.00 0.00 L 64.00 64.00 L 0.00 64.00 L 0.00 0.00 M 14.41 8.00 C 16.66 15.38 19.83 22.71 25.28 28.32 C 24.31 30.89 23.40 33.85 24.77 36.46 C 26.74 39.70 25.84 43.60 25.96 47.19 C 25.04 48.64 23.67 50.12 24.08 51.99 C 24.34 54.31 26.54 56.10 28.85 55.96 C 35.89 56.06 42.94 55.99 49.98 55.97 C 49.97 53.35 49.72 50.20 47.10 48.82 C 44.44 47.66 41.43 47.49 38.82 46.20 C 37.34 45.39 38.17 43.44 38.10 42.13 C 38.59 36.10 39.47 30.09 39.66 24.05 C 38.84 18.60 36.92 13.37 35.66 8.01 C 34.28 8.01 32.89 8.00 31.51 7.99 C 32.99 15.26 36.77 22.37 35.25 29.94 C 34.94 35.33 33.77 40.71 34.10 46.11 C 35.14 50.41 40.20 50.82 43.68 51.96 C 38.36 52.00 33.04 52.07 27.73 51.91 C 28.45 50.83 29.19 49.77 29.96 48.72 C 30.02 44.94 30.02 41.17 29.96 37.39 C 26.85 34.60 28.29 30.34 30.64 27.60 C 24.30 22.86 21.01 15.33 18.62 8.01 C 17.22 8.01 15.81 8.00 14.41 8.00 Z" />
</g>
<g id="#000000ff">
<path fill="#000000" opacity="1.00" d=" M 14.41 8.00 C 15.81 8.00 17.22 8.01 18.62 8.01 C 21.01 15.33 24.30 22.86 30.64 27.60 C 28.29 30.34 26.85 34.60 29.96 37.39 C 30.02 41.17 30.02 44.94 29.96 48.72 C 29.19 49.77 28.45 50.83 27.73 51.91 C 33.04 52.07 38.36 52.00 43.68 51.96 C 40.20 50.82 35.14 50.41 34.10 46.11 C 33.77 40.71 34.94 35.33 35.25 29.94 C 36.77 22.37 32.99 15.26 31.51 7.99 C 32.89 8.00 34.28 8.01 35.66 8.01 C 36.92 13.37 38.84 18.60 39.66 24.05 C 39.47 30.09 38.59 36.10 38.10 42.13 C 38.17 43.44 37.34 45.39 38.82 46.20 C 41.43 47.49 44.44 47.66 47.10 48.82 C 49.72 50.20 49.97 53.35 49.98 55.97 C 42.94 55.99 35.89 56.06 28.85 55.96 C 26.54 56.10 24.34 54.31 24.08 51.99 C 23.67 50.12 25.04 48.64 25.96 47.19 C 25.84 43.60 26.74 39.70 24.77 36.46 C 23.40 33.85 24.31 30.89 25.28 28.32 C 19.83 22.71 16.66 15.38 14.41 8.00 Z" />
</g>
</svg>
