<?xml version="1.0" encoding="UTF-8" ?>
<!DOCTYPE svg PUBLIC "-//W3C//DTD SVG 1.1//EN" "http://www.w3.org/Graphics/SVG/1.1/DTD/svg11.dtd">
<svg width="64pt" height="64pt" viewBox="0 0 64 64" version="1.1" xmlns="http://www.w3.org/2000/svg">
<g id="#ffffffff">
<path fill="#ffffff" opacity="1.00" d=" M 0.00 0.00 L 64.00 0.00 L 64.00 64.00 L 0.00 64.00 L 0.00 0.00 M 19.85 13.97 C 17.90 14.01 15.94 13.92 14.02 14.28 C 10.59 15.08 7.98 18.40 8.05 21.93 C 7.95 28.64 7.95 35.36 8.05 42.07 C 7.94 46.28 11.71 50.04 15.92 49.95 C 26.30 50.07 36.69 49.97 47.08 50.00 C 50.19 50.18 53.42 48.74 54.93 45.93 C 56.69 42.58 55.80 38.63 56.00 35.01 C 55.75 29.79 56.56 24.47 55.51 19.33 C 54.01 14.53 48.53 13.49 44.15 13.98 C 43.87 12.37 44.13 10.40 42.78 9.20 C 41.30 7.60 38.94 8.10 37.00 7.97 C 32.33 8.13 27.64 7.75 22.99 8.17 C 20.27 8.68 19.92 11.72 19.85 13.97 M 18.00 52.00 C 18.00 53.33 18.00 54.67 18.00 56.00 C 27.33 56.00 36.67 56.00 46.00 56.00 C 46.00 54.67 46.00 53.33 46.00 52.00 C 36.67 52.00 27.33 52.00 18.00 52.00 Z" />
<path fill="#ffffff" opacity="1.00" d=" M 24.00 12.00 C 29.33 12.00 34.67 12.00 40.00 12.00 C 40.00 12.50 40.00 13.50 40.00 14.00 C 34.67 14.00 29.33 14.00 24.00 14.00 C 24.00 13.50 24.00 12.50 24.00 12.00 Z" />
<path fill="#ffffff" opacity="1.00" d=" M 14.31 18.36 C 16.14 17.81 18.09 18.03 19.98 17.98 C 29.36 18.08 38.74 17.89 48.12 18.06 C 50.18 17.98 52.01 19.82 51.94 21.88 C 52.05 28.62 52.05 35.38 51.94 42.12 C 52.01 44.19 50.15 46.02 48.09 45.94 C 37.71 46.08 27.32 45.97 16.93 45.99 C 14.55 46.34 11.92 44.66 12.05 42.07 C 11.91 35.70 12.02 29.32 12.00 22.94 C 11.87 21.14 12.50 19.09 14.31 18.36 M 25.19 24.09 C 22.83 25.10 24.46 28.97 26.75 27.82 C 29.22 26.93 27.56 23.09 25.19 24.09 M 37.20 24.17 C 34.80 25.05 36.44 28.94 38.75 27.85 C 41.23 26.99 39.55 23.00 37.20 24.17 M 25.13 33.90 C 24.31 34.91 23.49 35.93 22.68 36.94 C 28.15 40.95 35.82 40.85 41.35 37.00 C 40.53 35.96 39.70 34.92 38.87 33.88 C 34.73 36.62 29.28 36.62 25.13 33.90 Z" />
</g>
<g id="#000000ff">
<path fill="#000000" opacity="1.00" d=" M 19.85 13.97 C 19.92 11.72 20.27 8.68 22.99 8.17 C 27.64 7.75 32.33 8.13 37.00 7.97 C 38.94 8.10 41.30 7.60 42.78 9.20 C 44.13 10.40 43.87 12.37 44.15 13.98 C 48.53 13.49 54.01 14.53 55.51 19.33 C 56.56 24.47 55.75 29.79 56.00 35.01 C 55.80 38.63 56.69 42.58 54.93 45.93 C 53.42 48.74 50.19 50.18 47.08 50.00 C 36.69 49.97 26.30 50.07 15.92 49.95 C 11.71 50.04 7.94 46.28 8.05 42.07 C 7.95 35.36 7.95 28.64 8.05 21.93 C 7.98 18.40 10.59 15.08 14.02 14.28 C 15.94 13.92 17.90 14.01 19.85 13.97 M 24.00 12.00 C 24.00 12.50 24.00 13.50 24.00 14.00 C 29.33 14.00 34.67 14.00 40.00 14.00 C 40.00 13.50 40.00 12.50 40.00 12.00 C 34.67 12.00 29.33 12.00 24.00 12.00 M 14.31 18.36 C 12.50 19.09 11.87 21.14 12.00 22.94 C 12.02 29.32 11.91 35.70 12.05 42.07 C 11.92 44.66 14.55 46.34 16.93 45.99 C 27.32 45.97 37.71 46.08 48.09 45.94 C 50.15 46.02 52.01 44.19 51.94 42.12 C 52.05 35.38 52.05 28.62 51.94 21.88 C 52.01 19.82 50.18 17.98 48.12 18.06 C 38.74 17.89 29.36 18.08 19.98 17.98 C 18.09 18.03 16.14 17.81 14.31 18.36 Z" />
<path fill="#000000" opacity="1.00" d=" M 25.19 24.09 C 27.56 23.09 29.22 26.93 26.75 27.82 C 24.46 28.97 22.83 25.10 25.19 24.09 Z" />
<path fill="#000000" opacity="1.00" d=" M 37.20 24.17 C 39.55 23.00 41.23 26.99 38.75 27.85 C 36.44 28.94 34.80 25.05 37.20 24.17 Z" />
<path fill="#000000" opacity="1.00" d=" M 25.13 33.90 C 29.28 36.62 34.73 36.62 38.87 33.88 C 39.70 34.92 40.53 35.96 41.35 37.00 C 35.82 40.85 28.15 40.95 22.68 36.94 C 23.49 35.93 24.31 34.91 25.13 33.90 Z" />
<path fill="#000000" opacity="1.00" d=" M 18.00 52.00 C 27.33 52.00 36.67 52.00 46.00 52.00 C 46.00 53.33 46.00 54.67 46.00 56.00 C 36.67 56.00 27.33 56.00 18.00 56.00 C 18.00 54.67 18.00 53.33 18.00 52.00 Z" />
</g>
</svg>
