<?xml version="1.0" encoding="UTF-8" ?>
<!DOCTYPE svg PUBLIC "-//W3C//DTD SVG 1.1//EN" "http://www.w3.org/Graphics/SVG/1.1/DTD/svg11.dtd">
<svg width="64pt" height="64pt" viewBox="0 0 64 64" version="1.1" xmlns="http://www.w3.org/2000/svg">
<g id="#ffffffff">
<path fill="#ffffff" opacity="1.00" d=" M 0.00 0.00 L 64.00 0.00 L 64.00 64.00 L 0.00 64.00 L 0.00 0.00 M 26.47 12.68 C 18.95 14.40 11.94 20.88 12.01 29.00 C 11.90 33.41 14.77 37.05 17.71 40.02 C 13.80 39.98 9.90 40.01 6.00 40.00 C 6.00 41.33 6.00 42.67 6.00 44.00 C 12.00 44.00 18.00 44.00 24.00 44.00 C 24.00 42.74 24.00 41.47 23.99 40.21 C 19.52 37.53 15.08 32.82 16.18 27.17 C 17.78 19.76 25.89 15.55 33.04 16.07 C 39.76 16.31 46.94 20.86 47.93 27.90 C 48.52 33.31 44.28 37.61 40.01 40.21 C 40.00 41.47 40.00 42.74 40.00 44.00 C 46.00 44.00 52.00 44.00 58.00 44.00 C 58.00 42.67 58.00 41.33 58.00 40.00 C 54.10 40.01 50.20 39.98 46.30 40.02 C 50.09 36.43 53.17 31.26 51.64 25.85 C 49.14 15.21 36.43 9.97 26.47 12.68 M 6.00 48.00 C 6.00 49.33 6.00 50.67 6.00 52.00 C 23.33 52.00 40.67 52.00 58.00 52.00 C 58.00 50.67 58.00 49.33 58.00 48.00 C 40.67 48.00 23.33 48.00 6.00 48.00 Z" />
</g>
<g id="#000000ff">
<path fill="#000000" opacity="1.00" d=" M 26.47 12.68 C 36.43 9.97 49.14 15.21 51.64 25.85 C 53.17 31.26 50.09 36.43 46.30 40.02 C 50.20 39.98 54.10 40.01 58.00 40.00 C 58.00 41.33 58.00 42.67 58.00 44.00 C 52.00 44.00 46.00 44.00 40.00 44.00 C 40.00 42.74 40.00 41.47 40.01 40.21 C 44.28 37.61 48.52 33.31 47.93 27.90 C 46.94 20.86 39.76 16.31 33.04 16.07 C 25.89 15.55 17.78 19.76 16.18 27.17 C 15.08 32.82 19.52 37.53 23.99 40.21 C 24.00 41.47 24.00 42.74 24.00 44.00 C 18.00 44.00 12.00 44.00 6.00 44.00 C 6.00 42.67 6.00 41.33 6.00 40.00 C 9.90 40.01 13.80 39.98 17.71 40.02 C 14.77 37.05 11.90 33.41 12.01 29.00 C 11.94 20.88 18.95 14.40 26.47 12.68 Z" />
<path fill="#000000" opacity="1.00" d=" M 6.00 48.00 C 23.33 48.00 40.67 48.00 58.00 48.00 C 58.00 49.33 58.00 50.67 58.00 52.00 C 40.67 52.00 23.33 52.00 6.00 52.00 C 6.00 50.67 6.00 49.33 6.00 48.00 Z" />
</g>
</svg>
