<?xml version="1.0" encoding="UTF-8" ?>
<!DOCTYPE svg PUBLIC "-//W3C//DTD SVG 1.1//EN" "http://www.w3.org/Graphics/SVG/1.1/DTD/svg11.dtd">
<svg width="64pt" height="64pt" viewBox="0 0 64 64" version="1.1" xmlns="http://www.w3.org/2000/svg">
<g id="#ffffffff">
<path fill="#ffffff" opacity="1.00" d=" M 0.00 0.00 L 64.00 0.00 L 64.00 64.00 L 0.00 64.00 L 0.00 0.00 M 21.68 10.64 C 17.64 14.68 17.86 20.71 18.00 26.00 C 16.00 26.00 14.00 26.00 12.00 26.00 C 12.00 36.67 12.00 47.33 12.00 58.00 C 25.33 58.00 38.67 58.00 52.00 58.00 C 52.00 47.33 52.00 36.67 52.00 26.00 C 50.00 26.00 48.00 26.00 46.00 26.00 C 46.09 20.93 46.40 15.22 42.78 11.16 C 37.79 4.64 26.99 4.36 21.68 10.64 Z" />
<path fill="#ffffff" opacity="1.00" d=" M 24.48 13.46 C 28.18 8.91 35.88 8.92 39.55 13.50 C 42.70 16.88 41.93 21.79 42.00 26.00 C 35.33 26.00 28.67 26.00 22.00 26.00 C 22.06 21.77 21.30 16.85 24.48 13.46 Z" />
<path fill="#ffffff" opacity="1.00" d=" M 16.00 30.00 C 26.67 30.00 37.33 30.00 48.00 30.00 C 48.00 38.00 48.00 46.00 48.00 54.00 C 37.33 54.00 26.67 54.00 16.00 54.00 C 16.00 46.00 16.00 38.00 16.00 30.00 Z" />
</g>
<g id="#000000ff">
<path fill="#000000" opacity="1.00" d=" M 21.68 10.64 C 26.99 4.36 37.79 4.64 42.78 11.16 C 46.40 15.22 46.09 20.93 46.00 26.00 C 48.00 26.00 50.00 26.00 52.00 26.00 C 52.00 36.67 52.00 47.33 52.00 58.00 C 38.67 58.00 25.33 58.00 12.00 58.00 C 12.00 47.33 12.00 36.67 12.00 26.00 C 14.00 26.00 16.00 26.00 18.00 26.00 C 17.86 20.71 17.64 14.68 21.68 10.64 M 24.48 13.46 C 21.30 16.85 22.06 21.77 22.00 26.00 C 28.67 26.00 35.33 26.00 42.00 26.00 C 41.93 21.79 42.70 16.88 39.55 13.50 C 35.88 8.92 28.18 8.91 24.48 13.46 M 16.00 30.00 C 16.00 38.00 16.00 46.00 16.00 54.00 C 26.67 54.00 37.33 54.00 48.00 54.00 C 48.00 46.00 48.00 38.00 48.00 30.00 C 37.33 30.00 26.67 30.00 16.00 30.00 Z" />
</g>
</svg>
