<?xml version="1.0" encoding="UTF-8" ?>
<!DOCTYPE svg PUBLIC "-//W3C//DTD SVG 1.1//EN" "http://www.w3.org/Graphics/SVG/1.1/DTD/svg11.dtd">
<svg width="64pt" height="64pt" viewBox="0 0 64 64" version="1.1" xmlns="http://www.w3.org/2000/svg">
<g id="#ffffffff">
<path fill="#ffffff" opacity="1.00" d=" M 0.00 0.00 L 64.00 0.00 L 64.00 64.00 L 0.00 64.00 L 0.00 0.00 M 12.13 6.00 C 11.69 16.00 13.28 26.64 8.92 35.98 C 11.99 42.88 11.88 50.60 12.45 57.99 C 26.30 58.01 40.15 58.00 54.00 58.00 C 54.00 40.67 54.00 23.33 54.00 6.00 C 40.04 6.00 26.09 6.00 12.13 6.00 Z" />
<path fill="#ffffff" opacity="1.00" d=" M 15.86 10.00 C 27.24 10.00 38.62 9.99 50.00 10.00 C 49.99 24.67 50.01 39.33 50.00 54.00 C 38.68 53.99 27.36 54.01 16.04 54.00 C 15.98 50.20 15.87 42.61 15.82 38.82 C 17.23 38.18 18.63 37.54 20.03 36.88 C 14.42 29.15 16.34 19.00 15.86 10.00 M 22.00 14.00 C 22.00 19.33 22.00 24.66 22.00 30.00 C 29.33 30.01 36.67 30.01 44.00 30.00 C 44.00 24.67 44.00 19.34 44.00 14.00 C 36.67 13.99 29.33 13.99 22.00 14.00 M 24.00 42.00 C 24.00 43.33 24.00 44.67 24.00 46.00 C 30.00 46.00 36.00 46.00 42.00 46.00 C 42.00 44.67 42.00 43.33 42.00 42.00 C 36.00 42.00 30.00 42.00 24.00 42.00 Z" />
<path fill="#ffffff" opacity="1.00" d=" M 27.31 26.25 C 27.07 23.41 26.81 20.59 26.69 17.75 C 26.92 20.58 27.19 23.41 27.31 26.25 Z" />
<path fill="#ffffff" opacity="1.00" d=" M 33.31 26.25 C 33.06 23.41 32.81 20.59 32.69 17.75 C 32.91 20.58 33.19 23.41 33.31 26.25 Z" />
<path fill="#ffffff" opacity="1.00" d=" M 39.31 26.25 C 39.06 23.41 38.81 20.59 38.69 17.75 C 38.91 20.58 39.19 23.41 39.31 26.25 Z" />
</g>
<g id="#000000ff">
<path fill="#000000" opacity="1.00" d=" M 12.13 6.00 C 26.09 6.00 40.04 6.00 54.00 6.00 C 54.00 23.33 54.00 40.67 54.00 58.00 C 40.15 58.00 26.30 58.01 12.45 57.99 C 11.88 50.60 11.99 42.88 8.92 35.98 C 13.28 26.64 11.69 16.00 12.13 6.00 M 15.86 10.00 C 16.34 19.00 14.42 29.15 20.03 36.88 C 18.63 37.54 17.23 38.18 15.82 38.82 C 15.87 42.61 15.98 50.20 16.04 54.00 C 27.36 54.01 38.68 53.99 50.00 54.00 C 50.01 39.33 49.99 24.67 50.00 10.00 C 38.62 9.99 27.24 10.00 15.86 10.00 Z" />
<path fill="#000000" opacity="1.00" d=" M 22.00 14.00 C 29.33 13.99 36.67 13.99 44.00 14.00 C 44.00 19.34 44.00 24.67 44.00 30.00 C 36.67 30.01 29.33 30.01 22.00 30.00 C 22.00 24.66 22.00 19.33 22.00 14.00 M 27.31 26.25 C 27.19 23.41 26.92 20.58 26.69 17.75 C 26.81 20.59 27.07 23.41 27.31 26.25 M 33.31 26.25 C 33.19 23.41 32.91 20.58 32.69 17.75 C 32.81 20.59 33.06 23.41 33.31 26.25 M 39.31 26.25 C 39.19 23.41 38.91 20.58 38.69 17.75 C 38.81 20.59 39.06 23.41 39.31 26.25 Z" />
<path fill="#000000" opacity="1.00" d=" M 24.00 42.00 C 30.00 42.00 36.00 42.00 42.00 42.00 C 42.00 43.33 42.00 44.67 42.00 46.00 C 36.00 46.00 30.00 46.00 24.00 46.00 C 24.00 44.67 24.00 43.33 24.00 42.00 Z" />
</g>
</svg>
