<?xml version="1.0" encoding="UTF-8" ?>
<!DOCTYPE svg PUBLIC "-//W3C//DTD SVG 1.1//EN" "http://www.w3.org/Graphics/SVG/1.1/DTD/svg11.dtd">
<svg width="64pt" height="64pt" viewBox="0 0 64 64" version="1.1" xmlns="http://www.w3.org/2000/svg">
<g id="#ffffffff">
<path fill="#ffffff" opacity="1.00" d=" M 0.00 0.00 L 64.00 0.00 L 64.00 64.00 L 0.00 64.00 L 0.00 0.00 M 10.01 6.00 C 9.99 10.00 9.98 14.00 10.02 18.00 C 11.34 18.00 12.66 18.00 13.98 18.00 C 14.00 15.34 14.00 12.67 14.01 10.00 C 23.34 10.00 32.67 9.99 42.00 10.01 C 41.99 14.29 41.98 18.57 42.03 22.85 C 43.37 24.22 44.92 25.44 45.92 27.10 C 46.12 36.06 45.94 45.03 46.00 53.99 C 35.35 54.01 24.71 53.99 14.06 54.00 C 14.01 52.64 13.95 51.29 13.88 49.93 C 12.68 50.72 11.47 51.49 10.32 52.36 C 9.72 54.16 10.08 56.12 9.97 57.99 C 23.31 58.02 36.65 58.00 50.00 58.00 C 50.07 47.70 49.88 37.39 50.08 27.10 C 51.09 25.46 52.63 24.23 53.97 22.85 C 54.04 17.24 53.99 11.62 54.00 6.00 C 39.33 6.00 24.67 6.00 10.01 6.00 M 6.00 22.00 C 5.99 28.65 6.01 35.30 5.99 41.95 C 7.32 41.98 8.66 42.01 9.99 42.04 C 10.00 43.90 10.01 45.75 10.07 47.61 C 13.18 45.96 15.82 43.43 19.07 42.07 C 23.37 41.86 27.69 42.07 32.00 42.00 C 32.01 35.33 32.00 28.67 32.00 22.01 C 23.33 21.99 14.67 22.00 6.00 22.00 Z" />
<path fill="#ffffff" opacity="1.00" d=" M 46.02 10.00 C 47.34 10.00 48.66 10.00 49.98 10.00 C 49.94 13.63 50.19 17.28 49.89 20.91 C 49.65 22.74 47.21 23.61 46.40 21.66 C 45.48 17.89 46.21 13.86 46.02 10.00 Z" />
<path fill="#ffffff" opacity="1.00" d=" M 10.01 26.00 C 16.00 26.00 22.00 25.99 27.99 26.00 C 28.01 30.00 28.01 34.00 27.99 38.00 C 23.45 38.42 18.19 36.66 14.41 39.93 C 14.28 37.42 11.74 38.11 10.00 37.86 C 9.99 33.91 9.99 29.96 10.01 26.00 Z" />
</g>
<g id="#000000ff">
<path fill="#000000" opacity="1.00" d=" M 10.01 6.00 C 24.67 6.00 39.33 6.00 54.00 6.00 C 53.99 11.62 54.04 17.24 53.97 22.85 C 52.63 24.23 51.09 25.46 50.08 27.10 C 49.88 37.39 50.07 47.70 50.00 58.00 C 36.65 58.00 23.31 58.02 9.97 57.99 C 10.08 56.12 9.72 54.16 10.32 52.36 C 11.47 51.49 12.68 50.72 13.88 49.93 C 13.95 51.29 14.01 52.64 14.06 54.00 C 24.71 53.99 35.35 54.01 46.00 53.99 C 45.94 45.03 46.12 36.06 45.92 27.10 C 44.92 25.44 43.37 24.22 42.03 22.85 C 41.98 18.57 41.99 14.29 42.00 10.01 C 32.67 9.99 23.34 10.00 14.01 10.00 C 14.00 12.67 14.00 15.34 13.98 18.00 C 12.66 18.00 11.34 18.00 10.02 18.00 C 9.98 14.00 9.99 10.00 10.01 6.00 M 46.02 10.00 C 46.21 13.86 45.48 17.89 46.40 21.66 C 47.21 23.61 49.65 22.74 49.89 20.91 C 50.19 17.28 49.94 13.63 49.98 10.00 C 48.66 10.00 47.34 10.00 46.02 10.00 Z" />
<path fill="#000000" opacity="1.00" d=" M 6.00 22.00 C 14.67 22.00 23.33 21.99 32.00 22.01 C 32.00 28.67 32.01 35.33 32.00 42.00 C 27.69 42.07 23.37 41.86 19.07 42.07 C 15.82 43.43 13.18 45.96 10.07 47.61 C 10.01 45.75 10.00 43.90 9.99 42.04 C 8.66 42.01 7.32 41.98 5.99 41.95 C 6.01 35.30 5.99 28.65 6.00 22.00 M 10.01 26.00 C 9.99 29.96 9.99 33.91 10.00 37.86 C 11.74 38.11 14.28 37.42 14.41 39.93 C 18.19 36.66 23.45 38.42 27.99 38.00 C 28.01 34.00 28.01 30.00 27.99 26.00 C 22.00 25.99 16.00 26.00 10.01 26.00 Z" />
</g>
</svg>
