<?xml version="1.0" encoding="UTF-8" ?>
<!DOCTYPE svg PUBLIC "-//W3C//DTD SVG 1.1//EN" "http://www.w3.org/Graphics/SVG/1.1/DTD/svg11.dtd">
<svg width="64pt" height="64pt" viewBox="0 0 64 64" version="1.1" xmlns="http://www.w3.org/2000/svg">
<g id="#ffffffff">
<path fill="#ffffff" opacity="1.00" d=" M 0.00 0.00 L 64.00 0.00 L 64.00 64.00 L 0.00 64.00 L 0.00 0.00 M 22.57 8.52 C 17.47 11.45 14.09 16.69 12.28 22.17 C 11.69 23.66 11.58 25.56 10.03 26.43 C 9.95 30.44 10.11 34.47 10.31 38.48 C 11.33 40.53 12.30 42.62 12.28 44.97 C 14.88 46.85 17.08 49.19 19.01 51.73 C 22.27 51.59 24.83 54.44 28.11 53.73 C 28.58 54.17 29.53 55.05 30.00 55.49 C 30.00 56.99 30.00 58.50 30.00 60.00 C 31.33 60.00 32.67 60.00 34.00 60.00 C 34.00 58.50 34.00 57.00 33.99 55.50 C 34.46 55.06 35.40 54.19 35.87 53.76 C 39.12 54.30 41.79 51.93 44.96 51.71 C 47.20 49.45 49.46 47.21 51.69 44.94 C 52.03 42.62 53.02 40.48 53.73 38.27 C 53.99 34.32 54.03 30.35 53.97 26.40 C 52.61 25.72 52.41 24.19 51.96 22.93 C 50.35 17.61 47.31 12.54 42.70 9.31 C 36.89 5.21 28.69 4.95 22.57 8.52 Z" />
<path fill="#ffffff" opacity="1.00" d=" M 21.40 14.33 C 26.69 8.74 36.53 8.54 42.08 13.84 C 45.57 17.05 47.44 21.53 48.77 25.98 C 37.59 26.01 26.41 26.01 15.23 25.98 C 16.49 21.75 18.23 17.50 21.40 14.33 Z" />
<path fill="#ffffff" opacity="1.00" d=" M 17.26 30.17 C 19.54 29.04 21.22 32.96 18.79 33.81 C 16.49 35.06 14.74 30.95 17.26 30.17 Z" />
<path fill="#ffffff" opacity="1.00" d=" M 29.14 30.12 C 31.62 29.11 33.20 32.91 30.72 33.91 C 28.34 34.77 26.92 31.21 29.14 30.12 Z" />
<path fill="#ffffff" opacity="1.00" d=" M 23.23 34.08 C 25.62 33.22 27.11 36.78 24.83 37.90 C 22.37 38.86 20.84 35.13 23.23 34.08 Z" />
<path fill="#ffffff" opacity="1.00" d=" M 17.23 38.17 C 19.54 37.09 21.11 40.75 18.89 41.89 C 16.48 42.95 14.75 39.13 17.23 38.17 Z" />
<path fill="#ffffff" opacity="1.00" d=" M 29.28 38.15 C 31.57 37.03 33.23 41.06 30.74 41.81 C 28.46 43.04 26.74 38.90 29.28 38.15 Z" />
<path fill="#ffffff" opacity="1.00" d=" M 23.09 42.11 C 25.49 41.12 27.12 44.61 24.92 45.87 C 22.51 46.91 20.86 43.37 23.09 42.11 Z" />
<path fill="#ffffff" opacity="1.00" d=" M 29.20 46.09 C 31.62 45.18 33.11 48.79 30.83 49.89 C 28.41 50.90 26.85 47.17 29.20 46.09 Z" />
</g>
<g id="#000000ff">
<path fill="#000000" opacity="1.00" d=" M 22.57 8.52 C 28.69 4.95 36.89 5.21 42.70 9.31 C 47.31 12.54 50.35 17.61 51.96 22.93 C 52.41 24.19 52.61 25.72 53.97 26.40 C 54.03 30.35 53.99 34.32 53.73 38.27 C 53.02 40.48 52.03 42.62 51.69 44.94 C 49.46 47.21 47.20 49.45 44.96 51.71 C 41.79 51.93 39.12 54.30 35.87 53.76 C 35.40 54.19 34.46 55.06 33.99 55.50 C 34.00 57.00 34.00 58.50 34.00 60.00 C 32.67 60.00 31.33 60.00 30.00 60.00 C 30.00 58.50 30.00 56.99 30.00 55.49 C 29.53 55.05 28.58 54.17 28.11 53.73 C 24.83 54.44 22.27 51.59 19.01 51.73 C 17.08 49.19 14.88 46.85 12.28 44.97 C 12.30 42.62 11.33 40.53 10.31 38.48 C 10.11 34.47 9.95 30.44 10.03 26.43 C 11.58 25.56 11.69 23.66 12.28 22.17 C 14.09 16.69 17.47 11.45 22.57 8.52 M 21.40 14.33 C 18.23 17.50 16.49 21.75 15.23 25.98 C 26.41 26.01 37.59 26.01 48.77 25.98 C 47.44 21.53 45.57 17.05 42.08 13.84 C 36.53 8.54 26.69 8.74 21.40 14.33 M 17.26 30.17 C 14.74 30.95 16.49 35.06 18.79 33.81 C 21.22 32.96 19.54 29.04 17.26 30.17 M 29.14 30.12 C 26.92 31.21 28.34 34.77 30.72 33.91 C 33.20 32.91 31.62 29.11 29.14 30.12 M 23.23 34.08 C 20.84 35.13 22.37 38.86 24.83 37.90 C 27.11 36.78 25.62 33.22 23.23 34.08 M 17.23 38.17 C 14.75 39.13 16.48 42.95 18.89 41.89 C 21.11 40.75 19.54 37.09 17.23 38.17 M 29.28 38.15 C 26.74 38.90 28.46 43.04 30.74 41.81 C 33.23 41.06 31.57 37.03 29.28 38.15 M 23.09 42.11 C 20.86 43.37 22.51 46.91 24.92 45.87 C 27.12 44.61 25.49 41.12 23.09 42.11 M 29.20 46.09 C 26.85 47.17 28.41 50.90 30.83 49.89 C 33.11 48.79 31.62 45.18 29.20 46.09 Z" />
</g>
</svg>
