<?xml version="1.0" encoding="UTF-8" ?>
<!DOCTYPE svg PUBLIC "-//W3C//DTD SVG 1.1//EN" "http://www.w3.org/Graphics/SVG/1.1/DTD/svg11.dtd">
<svg width="64pt" height="64pt" viewBox="0 0 64 64" version="1.1" xmlns="http://www.w3.org/2000/svg">
<g id="#ffffffff">
<path fill="#ffffff" opacity="1.00" d=" M 0.00 0.00 L 64.00 0.00 L 64.00 64.00 L 0.00 64.00 L 0.00 0.00 M 16.25 8.34 C 11.50 10.15 6.06 15.77 8.91 21.12 C 13.12 25.82 19.50 32.33 26.33 28.74 C 28.83 29.51 31.42 30.42 34.07 29.81 C 38.39 29.22 41.59 25.94 45.54 24.40 C 47.62 23.69 50.65 23.90 51.71 26.13 C 52.55 28.82 51.46 31.73 49.69 33.79 C 35.81 34.29 21.89 33.85 8.00 34.00 C 8.00 41.33 8.00 48.67 8.00 56.00 C 22.67 56.00 37.33 56.00 52.00 56.00 C 52.02 49.66 51.95 43.32 52.04 36.99 C 54.47 34.25 56.46 30.78 55.92 26.98 C 55.62 23.05 51.91 19.91 48.02 20.01 C 41.04 19.76 36.48 27.80 29.20 25.71 C 30.93 21.46 28.83 17.15 26.00 13.96 C 23.57 11.10 20.60 6.87 16.25 8.34 Z" />
<path fill="#ffffff" opacity="1.00" d=" M 17.24 12.19 L 18.01 11.86 C 21.41 14.01 24.03 17.52 25.77 21.14 C 26.87 23.34 24.35 24.82 22.93 26.02 C 19.10 25.88 16.31 22.72 13.56 20.41 C 9.83 17.73 14.50 13.50 17.24 12.19 M 19.16 18.11 C 16.87 19.22 18.38 22.82 20.80 21.89 C 23.15 20.83 21.60 17.13 19.16 18.11 Z" />
<path fill="#ffffff" opacity="1.00" d=" M 12.00 38.00 C 24.00 38.00 36.00 38.00 48.00 38.00 C 48.00 42.67 48.00 47.33 48.00 52.00 C 36.00 52.00 24.00 52.00 12.00 52.00 C 12.00 47.33 12.00 42.67 12.00 38.00 M 16.00 40.00 C 16.00 43.33 16.00 46.67 16.00 50.00 C 17.33 50.00 18.67 50.00 20.00 50.00 C 20.00 46.67 20.00 43.33 20.00 40.00 C 18.67 40.00 17.33 40.00 16.00 40.00 M 22.00 40.00 C 22.00 43.33 22.00 46.67 22.00 50.00 C 23.33 50.00 24.67 50.00 26.00 50.00 C 26.00 46.67 26.00 43.33 26.00 40.00 C 24.67 40.00 23.33 40.00 22.00 40.00 M 30.00 40.00 C 30.00 41.33 30.00 42.67 30.00 44.00 C 34.67 44.00 39.33 44.00 44.00 44.00 C 44.00 42.67 44.00 41.33 44.00 40.00 C 39.33 40.00 34.67 40.00 30.00 40.00 M 31.16 46.11 C 28.87 47.17 30.41 50.90 32.81 49.84 C 35.19 48.82 33.53 45.07 31.16 46.11 M 41.22 46.18 C 38.73 47.00 40.53 51.06 42.78 49.80 C 45.23 48.98 43.50 44.97 41.22 46.18 Z" />
</g>
<g id="#000000ff">
<path fill="#000000" opacity="1.00" d=" M 16.25 8.34 C 20.60 6.87 23.57 11.10 26.00 13.96 C 28.83 17.15 30.93 21.46 29.20 25.71 C 36.48 27.80 41.04 19.76 48.02 20.01 C 51.91 19.91 55.62 23.05 55.92 26.98 C 56.46 30.78 54.47 34.25 52.04 36.99 C 51.95 43.32 52.02 49.66 52.00 56.00 C 37.33 56.00 22.67 56.00 8.00 56.00 C 8.00 48.67 8.00 41.33 8.00 34.00 C 21.89 33.85 35.81 34.29 49.69 33.79 C 51.46 31.73 52.55 28.82 51.71 26.13 C 50.65 23.90 47.62 23.69 45.54 24.40 C 41.59 25.94 38.39 29.22 34.07 29.81 C 31.42 30.42 28.83 29.51 26.33 28.74 C 19.50 32.33 13.12 25.82 8.91 21.12 C 6.06 15.77 11.50 10.15 16.25 8.34 M 17.24 12.19 C 14.50 13.50 9.83 17.73 13.56 20.41 C 16.31 22.72 19.10 25.88 22.93 26.02 C 24.35 24.82 26.87 23.34 25.77 21.14 C 24.03 17.52 21.41 14.01 18.01 11.86 L 17.24 12.19 M 12.00 38.00 C 12.00 42.67 12.00 47.33 12.00 52.00 C 24.00 52.00 36.00 52.00 48.00 52.00 C 48.00 47.33 48.00 42.67 48.00 38.00 C 36.00 38.00 24.00 38.00 12.00 38.00 Z" />
<path fill="#000000" opacity="1.00" d=" M 19.16 18.11 C 21.60 17.13 23.15 20.83 20.80 21.89 C 18.38 22.82 16.87 19.22 19.16 18.11 Z" />
<path fill="#000000" opacity="1.00" d=" M 16.00 40.00 C 17.33 40.00 18.67 40.00 20.00 40.00 C 20.00 43.33 20.00 46.67 20.00 50.00 C 18.67 50.00 17.33 50.00 16.00 50.00 C 16.00 46.67 16.00 43.33 16.00 40.00 Z" />
<path fill="#000000" opacity="1.00" d=" M 22.00 40.00 C 23.33 40.00 24.67 40.00 26.00 40.00 C 26.00 43.33 26.00 46.67 26.00 50.00 C 24.67 50.00 23.33 50.00 22.00 50.00 C 22.00 46.67 22.00 43.33 22.00 40.00 Z" />
<path fill="#000000" opacity="1.00" d=" M 30.00 40.00 C 34.67 40.00 39.33 40.00 44.00 40.00 C 44.00 41.33 44.00 42.67 44.00 44.00 C 39.33 44.00 34.67 44.00 30.00 44.00 C 30.00 42.67 30.00 41.33 30.00 40.00 Z" />
<path fill="#000000" opacity="1.00" d=" M 31.16 46.11 C 33.53 45.07 35.19 48.82 32.81 49.84 C 30.41 50.90 28.87 47.17 31.16 46.11 Z" />
<path fill="#000000" opacity="1.00" d=" M 41.22 46.18 C 43.50 44.97 45.23 48.98 42.78 49.80 C 40.53 51.06 38.73 47.00 41.22 46.18 Z" />
</g>
</svg>
