<?xml version="1.0" encoding="UTF-8" ?>
<!DOCTYPE svg PUBLIC "-//W3C//DTD SVG 1.1//EN" "http://www.w3.org/Graphics/SVG/1.1/DTD/svg11.dtd">
<svg width="64pt" height="64pt" viewBox="0 0 64 64" version="1.1" xmlns="http://www.w3.org/2000/svg">
<g id="#ffffffff">
<path fill="#ffffff" opacity="1.00" d=" M 0.00 0.00 L 64.00 0.00 L 64.00 64.00 L 0.00 64.00 L 0.00 0.00 M 4.20 23.20 C 3.16 26.95 5.61 30.28 8.44 32.40 C 5.95 39.21 13.81 46.51 20.32 43.10 C 26.38 49.60 37.63 49.58 43.70 43.10 C 50.20 46.51 58.04 39.19 55.55 32.40 C 58.39 30.29 60.82 26.95 59.80 23.22 C 59.03 18.61 54.51 16.06 50.19 15.70 C 50.34 19.29 48.64 22.70 45.46 24.45 C 37.22 29.27 26.09 29.24 18.01 24.08 C 15.04 22.35 13.74 19.02 13.81 15.70 C 9.49 16.04 4.97 18.61 4.20 23.20 Z" />
<path fill="#ffffff" opacity="1.00" d=" M 8.09 25.76 C 7.56 23.58 9.27 22.01 10.72 20.71 C 13.97 29.12 23.77 31.95 31.99 31.96 C 40.23 31.96 50.02 29.11 53.30 20.69 C 54.74 22.02 56.46 23.63 55.90 25.81 C 55.57 28.66 52.66 29.71 50.32 30.50 C 51.96 33.04 52.95 36.91 50.05 38.96 C 47.64 41.02 44.57 39.52 42.40 37.93 C 38.56 45.98 25.44 46.00 21.61 37.93 C 19.42 39.53 16.31 41.03 13.90 38.93 C 11.04 36.86 12.05 33.04 13.68 30.53 C 11.33 29.71 8.38 28.64 8.09 25.76 Z" />
</g>
<g id="#000000ff">
<path fill="#000000" opacity="1.00" d=" M 4.20 23.20 C 4.97 18.61 9.49 16.04 13.81 15.70 C 13.74 19.02 15.04 22.35 18.01 24.08 C 26.09 29.24 37.22 29.27 45.46 24.45 C 48.64 22.70 50.34 19.29 50.19 15.70 C 54.51 16.06 59.03 18.61 59.80 23.22 C 60.82 26.95 58.39 30.29 55.55 32.40 C 58.04 39.19 50.20 46.51 43.70 43.10 C 37.63 49.58 26.38 49.60 20.32 43.10 C 13.81 46.51 5.95 39.21 8.44 32.40 C 5.61 30.28 3.16 26.95 4.20 23.20 M 8.09 25.76 C 8.38 28.64 11.33 29.71 13.68 30.53 C 12.05 33.04 11.04 36.86 13.90 38.93 C 16.31 41.03 19.42 39.53 21.61 37.93 C 25.44 46.00 38.56 45.98 42.40 37.93 C 44.57 39.52 47.64 41.02 50.05 38.96 C 52.95 36.91 51.96 33.04 50.32 30.50 C 52.66 29.71 55.57 28.66 55.90 25.81 C 56.46 23.63 54.74 22.02 53.30 20.69 C 50.02 29.11 40.23 31.96 31.99 31.96 C 23.77 31.95 13.97 29.12 10.72 20.71 C 9.27 22.01 7.56 23.58 8.09 25.76 Z" />
</g>
</svg>
