<?xml version="1.0" encoding="UTF-8" ?>
<!DOCTYPE svg PUBLIC "-//W3C//DTD SVG 1.1//EN" "http://www.w3.org/Graphics/SVG/1.1/DTD/svg11.dtd">
<svg width="64pt" height="64pt" viewBox="0 0 64 64" version="1.1" xmlns="http://www.w3.org/2000/svg">
<g id="#ffffffff">
<path fill="#ffffff" opacity="1.00" d=" M 0.00 0.00 L 64.00 0.00 L 64.00 64.00 L 0.00 64.00 L 0.00 0.00 M 34.55 13.37 C 32.72 17.13 35.86 20.42 38.46 22.72 C 37.25 23.93 36.03 25.14 34.82 26.35 C 33.08 24.74 31.55 22.55 29.08 22.06 C 25.33 21.26 22.26 24.46 20.57 27.40 C 18.88 31.08 21.87 34.37 24.52 36.52 C 22.45 38.83 20.19 40.96 18.01 43.16 C 18.00 41.44 18.00 39.72 18.00 38.00 C 16.66 38.00 15.33 38.00 14.00 38.00 C 14.00 41.05 13.99 44.10 14.01 47.15 C 12.22 48.97 10.42 50.78 8.59 52.56 C 9.55 53.50 10.51 54.45 11.46 55.41 C 16.73 50.07 22.08 44.80 27.35 39.46 C 29.11 41.08 30.65 43.30 33.15 43.76 C 37.00 44.51 40.29 41.16 41.76 37.96 C 43.13 34.30 40.05 31.41 37.65 29.18 C 38.86 27.97 40.07 26.76 41.27 25.54 C 43.49 27.89 46.29 30.95 49.92 29.70 C 52.95 28.39 55.99 25.51 55.98 21.98 C 55.96 19.02 53.40 17.19 51.57 15.24 C 52.85 13.97 54.13 12.70 55.41 11.43 C 54.49 10.48 53.56 9.55 52.66 8.59 C 51.35 9.86 50.02 11.11 48.75 12.43 C 46.82 10.58 44.96 8.03 42.01 8.01 C 38.66 7.93 36.14 10.75 34.55 13.37 Z" />
<path fill="#ffffff" opacity="1.00" d=" M 41.13 12.06 C 41.53 12.11 42.33 12.20 42.73 12.24 C 45.85 15.11 48.88 18.12 51.73 21.25 C 52.58 23.42 49.49 26.50 47.31 25.74 C 44.19 22.86 41.15 19.85 38.30 16.72 C 37.30 14.66 39.84 13.22 41.13 12.06 Z" />
<path fill="#ffffff" opacity="1.00" d=" M 27.07 26.09 C 28.50 25.38 29.54 26.82 30.46 27.65 C 32.87 30.19 35.52 32.52 37.82 35.18 C 38.78 37.24 36.28 38.67 34.98 39.83 C 33.31 40.26 32.33 38.64 31.25 37.70 C 28.98 35.29 26.45 33.12 24.32 30.58 C 23.46 28.55 25.83 27.25 27.07 26.09 Z" />
</g>
<g id="#000000ff">
<path fill="#000000" opacity="1.00" d=" M 34.55 13.37 C 36.14 10.75 38.66 7.93 42.01 8.01 C 44.96 8.03 46.82 10.58 48.75 12.43 C 50.02 11.11 51.35 9.86 52.66 8.59 C 53.56 9.55 54.49 10.48 55.41 11.43 C 54.13 12.70 52.85 13.97 51.57 15.24 C 53.40 17.19 55.96 19.02 55.98 21.98 C 55.99 25.51 52.95 28.39 49.92 29.70 C 46.29 30.95 43.49 27.89 41.27 25.54 C 40.07 26.76 38.86 27.97 37.65 29.18 C 40.05 31.41 43.13 34.30 41.76 37.96 C 40.29 41.16 37.00 44.51 33.15 43.76 C 30.65 43.30 29.11 41.08 27.35 39.46 C 22.08 44.80 16.73 50.07 11.46 55.41 C 10.51 54.45 9.55 53.50 8.59 52.56 C 10.42 50.78 12.22 48.97 14.01 47.15 C 13.99 44.10 14.00 41.05 14.00 38.00 C 15.33 38.00 16.66 38.00 18.00 38.00 C 18.00 39.72 18.00 41.44 18.01 43.16 C 20.19 40.96 22.45 38.83 24.52 36.52 C 21.87 34.37 18.88 31.08 20.57 27.40 C 22.26 24.46 25.33 21.26 29.08 22.06 C 31.55 22.55 33.08 24.74 34.82 26.35 C 36.03 25.14 37.25 23.93 38.46 22.72 C 35.86 20.42 32.72 17.13 34.55 13.37 M 41.13 12.06 C 39.84 13.22 37.30 14.66 38.30 16.72 C 41.15 19.85 44.19 22.86 47.31 25.74 C 49.49 26.50 52.58 23.42 51.73 21.25 C 48.88 18.12 45.85 15.11 42.73 12.24 C 42.33 12.20 41.53 12.11 41.13 12.06 M 27.07 26.09 C 25.83 27.25 23.46 28.55 24.32 30.58 C 26.45 33.12 28.98 35.29 31.25 37.70 C 32.33 38.64 33.31 40.26 34.98 39.83 C 36.28 38.67 38.78 37.24 37.82 35.18 C 35.52 32.52 32.87 30.19 30.46 27.65 C 29.54 26.82 28.50 25.38 27.07 26.09 Z" />
</g>
</svg>
