<?xml version="1.0" encoding="UTF-8" ?>
<!DOCTYPE svg PUBLIC "-//W3C//DTD SVG 1.1//EN" "http://www.w3.org/Graphics/SVG/1.1/DTD/svg11.dtd">
<svg width="64pt" height="64pt" viewBox="0 0 64 64" version="1.1" xmlns="http://www.w3.org/2000/svg">
<g id="#ffffffff">
<path fill="#ffffff" opacity="1.00" d=" M 0.00 0.00 L 64.00 0.00 L 64.00 64.00 L 0.00 64.00 L 0.00 0.00 M 8.20 12.83 C 10.34 16.51 10.49 21.50 14.81 23.57 C 14.47 25.53 14.21 27.49 14.00 29.46 C 12.40 30.39 10.93 31.54 9.63 32.86 C 10.47 35.78 11.84 38.58 14.38 40.38 C 16.29 45.93 20.03 50.89 25.13 53.88 C 28.36 55.99 32.59 56.66 36.22 55.19 C 42.67 52.59 47.16 46.74 49.76 40.47 C 51.89 38.27 53.56 35.71 54.39 32.73 C 53.08 31.41 51.61 30.27 50.00 29.33 C 49.78 27.40 49.53 25.48 49.19 23.57 C 51.54 22.08 53.47 19.93 53.92 17.10 C 54.26 14.78 56.92 12.78 55.62 10.35 C 54.41 7.26 49.66 7.30 48.39 10.32 C 47.15 12.42 48.91 14.44 50.19 15.97 C 49.64 17.31 48.95 18.58 48.21 19.82 C 45.22 13.56 39.43 7.87 32.06 8.02 C 24.61 7.78 18.75 13.50 15.71 19.81 C 14.97 18.57 14.35 17.26 13.83 15.91 C 15.74 14.22 17.00 11.13 14.77 9.13 C 12.29 6.27 6.93 9.25 8.20 12.83 Z" />
<path fill="#ffffff" opacity="1.00" d=" M 23.56 15.55 C 27.60 11.24 34.89 10.84 39.43 14.60 C 44.78 18.80 46.25 26.04 46.06 32.50 C 47.38 32.95 48.69 33.41 50.00 33.88 C 49.00 35.31 47.83 36.61 46.30 37.48 C 44.82 43.57 40.48 49.11 34.60 51.45 C 31.73 52.65 28.58 51.47 26.17 49.82 C 21.98 46.91 18.69 42.49 17.74 37.41 C 15.99 36.79 14.90 35.37 14.05 33.80 C 15.35 33.47 16.66 33.16 17.96 32.86 C 17.71 26.70 18.94 20.00 23.56 15.55 M 23.37 26.39 C 18.61 29.08 18.79 37.98 24.14 39.88 C 28.34 40.62 30.46 35.49 29.94 32.03 C 29.87 28.80 26.94 24.77 23.37 26.39 M 37.35 26.39 C 32.63 29.10 32.79 37.91 38.08 39.86 C 42.33 40.68 44.49 35.45 43.94 31.96 C 43.85 28.75 40.89 24.76 37.35 26.39 M 28.00 42.00 C 28.00 43.33 28.00 44.67 28.00 46.00 C 30.67 46.00 33.33 46.00 36.00 46.00 C 36.00 44.67 36.00 43.33 36.00 42.00 C 33.33 42.00 30.67 42.00 28.00 42.00 Z" />
<path fill="#ffffff" opacity="1.00" d=" M 25.00 36.62 C 23.80 34.29 23.80 31.71 25.00 29.38 C 26.20 31.71 26.19 34.29 25.00 36.62 Z" />
<path fill="#ffffff" opacity="1.00" d=" M 39.00 36.62 C 37.81 34.29 37.79 31.71 39.00 29.38 C 40.21 31.71 40.19 34.29 39.00 36.62 Z" />
</g>
<g id="#000000ff">
<path fill="#000000" opacity="1.00" d=" M 8.20 12.83 C 6.93 9.25 12.29 6.27 14.77 9.13 C 17.00 11.13 15.74 14.22 13.83 15.91 C 14.35 17.26 14.97 18.57 15.71 19.81 C 18.75 13.50 24.61 7.78 32.06 8.02 C 39.43 7.87 45.22 13.56 48.21 19.82 C 48.95 18.58 49.64 17.31 50.19 15.97 C 48.91 14.44 47.15 12.42 48.39 10.32 C 49.66 7.30 54.41 7.26 55.62 10.35 C 56.92 12.78 54.26 14.78 53.92 17.10 C 53.47 19.93 51.54 22.08 49.19 23.57 C 49.53 25.48 49.78 27.40 50.00 29.33 C 51.61 30.27 53.08 31.41 54.39 32.73 C 53.56 35.71 51.89 38.27 49.76 40.47 C 47.16 46.74 42.67 52.59 36.22 55.19 C 32.59 56.66 28.36 55.99 25.13 53.88 C 20.03 50.89 16.29 45.93 14.38 40.38 C 11.84 38.58 10.47 35.78 9.63 32.86 C 10.93 31.54 12.40 30.39 14.00 29.46 C 14.21 27.49 14.47 25.53 14.81 23.57 C 10.49 21.50 10.34 16.51 8.20 12.83 M 23.56 15.55 C 18.94 20.00 17.71 26.70 17.96 32.86 C 16.66 33.16 15.35 33.47 14.05 33.80 C 14.90 35.37 15.99 36.79 17.74 37.41 C 18.69 42.49 21.98 46.91 26.17 49.82 C 28.58 51.47 31.73 52.65 34.60 51.45 C 40.48 49.11 44.82 43.57 46.30 37.48 C 47.83 36.61 49.00 35.31 50.00 33.88 C 48.69 33.41 47.38 32.95 46.06 32.50 C 46.25 26.04 44.78 18.80 39.43 14.60 C 34.89 10.84 27.60 11.24 23.56 15.55 Z" />
<path fill="#000000" opacity="1.00" d=" M 23.37 26.39 C 26.94 24.77 29.87 28.80 29.94 32.03 C 30.46 35.49 28.34 40.62 24.14 39.88 C 18.79 37.98 18.61 29.08 23.37 26.39 M 25.00 36.62 C 26.19 34.29 26.20 31.71 25.00 29.38 C 23.80 31.71 23.80 34.29 25.00 36.62 Z" />
<path fill="#000000" opacity="1.00" d=" M 37.35 26.39 C 40.89 24.76 43.85 28.75 43.94 31.96 C 44.49 35.45 42.33 40.68 38.08 39.86 C 32.79 37.91 32.63 29.10 37.35 26.39 M 39.00 36.62 C 40.19 34.29 40.21 31.71 39.00 29.38 C 37.79 31.71 37.81 34.29 39.00 36.62 Z" />
<path fill="#000000" opacity="1.00" d=" M 28.00 42.00 C 30.67 42.00 33.33 42.00 36.00 42.00 C 36.00 43.33 36.00 44.67 36.00 46.00 C 33.33 46.00 30.67 46.00 28.00 46.00 C 28.00 44.67 28.00 43.33 28.00 42.00 Z" />
</g>
</svg>
