<?xml version="1.0" encoding="UTF-8" ?>
<!DOCTYPE svg PUBLIC "-//W3C//DTD SVG 1.1//EN" "http://www.w3.org/Graphics/SVG/1.1/DTD/svg11.dtd">
<svg width="64pt" height="64pt" viewBox="0 0 64 64" version="1.1" xmlns="http://www.w3.org/2000/svg">
<g id="#ffffffff">
<path fill="#ffffff" opacity="1.00" d=" M 0.00 0.00 L 64.00 0.00 L 64.00 19.68 C 63.42 17.47 61.41 15.78 59.07 16.02 C 46.07 15.94 33.07 16.06 20.06 15.97 C 18.03 15.94 16.00 16.15 13.99 16.46 C 10.44 15.91 6.80 15.73 3.23 16.21 C 1.60 16.50 0.75 18.04 0.00 19.35 L 0.00 0.00 Z" />
<path fill="#ffffff" opacity="1.00" d=" M 4.03 20.03 C 6.68 19.99 9.32 19.99 11.97 20.02 C 11.99 21.35 12.00 22.67 12.00 24.00 C 9.33 24.00 6.67 24.00 4.00 24.00 C 4.00 22.67 4.01 21.35 4.03 20.03 Z" />
<path fill="#ffffff" opacity="1.00" d=" M 16.03 20.03 C 30.68 19.98 45.32 19.98 59.97 20.03 C 59.99 21.35 60.00 22.67 60.01 24.00 C 45.33 24.00 30.66 24.00 15.99 24.00 C 16.00 22.67 16.01 21.35 16.03 20.03 Z" />
<path fill="#ffffff" opacity="1.00" d=" M 0.00 28.00 C 5.33 28.00 10.67 28.00 16.00 28.00 C 16.00 34.67 16.00 41.33 16.00 48.00 C 17.33 48.00 18.66 48.00 19.99 48.00 C 20.00 47.21 20.00 45.63 20.00 44.84 C 22.29 42.55 24.56 40.26 26.87 37.99 C 34.30 38.01 41.74 38.00 49.17 38.00 C 51.46 40.27 53.74 42.54 56.00 44.84 C 56.00 45.63 56.00 47.21 56.00 48.00 C 57.34 48.00 58.67 48.00 60.00 48.00 C 60.00 41.33 60.00 34.67 60.00 28.00 C 61.33 28.00 62.67 28.00 64.00 28.00 L 64.00 64.00 L 0.00 64.00 L 0.00 28.00 Z" />
<path fill="#ffffff" opacity="1.00" d=" M 22.16 28.00 C 25.16 28.00 28.17 28.00 31.17 28.01 C 29.51 29.68 27.84 31.34 26.16 33.00 C 24.83 31.34 23.51 29.66 22.16 28.00 Z" />
<path fill="#ffffff" opacity="1.00" d=" M 30.86 33.99 C 33.58 32.03 35.31 27.51 39.12 28.04 C 41.27 29.88 43.13 32.04 45.18 34.00 C 40.41 34.00 35.63 34.01 30.86 33.99 Z" />
<path fill="#ffffff" opacity="1.00" d=" M 44.86 28.01 C 47.85 28.00 50.84 28.00 53.83 28.01 C 52.51 29.68 51.17 31.35 49.83 33.01 C 48.17 31.34 46.52 29.67 44.86 28.01 Z" />
<path fill="#ffffff" opacity="1.00" d=" M 20.01 31.72 C 21.11 33.10 22.23 34.47 23.33 35.85 C 22.22 36.96 21.12 38.07 20.01 39.17 C 20.00 36.69 20.00 34.20 20.01 31.72 Z" />
<path fill="#ffffff" opacity="1.00" d=" M 52.69 35.84 C 53.78 34.46 54.89 33.09 55.99 31.72 C 56.00 34.19 56.00 36.67 55.99 39.14 C 54.89 38.04 53.79 36.94 52.69 35.84 Z" />
</g>
<g id="#000000ff">
<path fill="#000000" opacity="1.00" d=" M 3.23 16.21 C 6.80 15.73 10.44 15.91 13.99 16.46 C 16.00 16.15 18.03 15.94 20.06 15.97 C 33.07 16.06 46.07 15.94 59.07 16.02 C 61.41 15.78 63.42 17.47 64.00 19.68 L 64.00 28.00 C 62.67 28.00 61.33 28.00 60.00 28.00 C 60.00 34.67 60.00 41.33 60.00 48.00 C 58.67 48.00 57.34 48.00 56.00 48.00 C 56.00 47.21 56.00 45.63 56.00 44.84 C 53.74 42.54 51.46 40.27 49.17 38.00 C 41.74 38.00 34.30 38.01 26.87 37.99 C 24.56 40.26 22.29 42.55 20.00 44.84 C 20.00 45.63 20.00 47.21 19.99 48.00 C 18.66 48.00 17.33 48.00 16.00 48.00 C 16.00 41.33 16.00 34.67 16.00 28.00 C 10.67 28.00 5.33 28.00 0.00 28.00 L 0.00 19.35 C 0.75 18.04 1.60 16.50 3.23 16.21 M 4.03 20.03 C 4.01 21.35 4.00 22.67 4.00 24.00 C 6.67 24.00 9.33 24.00 12.00 24.00 C 12.00 22.67 11.99 21.35 11.97 20.02 C 9.32 19.99 6.68 19.99 4.03 20.03 M 16.03 20.03 C 16.01 21.35 16.00 22.67 15.99 24.00 C 30.66 24.00 45.33 24.00 60.01 24.00 C 60.00 22.67 59.99 21.35 59.97 20.03 C 45.32 19.98 30.68 19.98 16.03 20.03 M 22.16 28.00 C 23.51 29.66 24.83 31.34 26.16 33.00 C 27.84 31.34 29.51 29.68 31.17 28.01 C 28.17 28.00 25.16 28.00 22.16 28.00 M 30.86 33.99 C 35.63 34.01 40.41 34.00 45.18 34.00 C 43.13 32.04 41.27 29.88 39.12 28.04 C 35.31 27.51 33.58 32.03 30.86 33.99 M 44.86 28.01 C 46.52 29.67 48.17 31.34 49.83 33.01 C 51.17 31.35 52.51 29.68 53.83 28.01 C 50.84 28.00 47.85 28.00 44.86 28.01 M 20.01 31.72 C 20.00 34.20 20.00 36.69 20.01 39.17 C 21.12 38.07 22.22 36.96 23.33 35.85 C 22.23 34.47 21.11 33.10 20.01 31.72 M 52.69 35.84 C 53.79 36.94 54.89 38.04 55.99 39.14 C 56.00 36.67 56.00 34.19 55.99 31.72 C 54.89 33.09 53.78 34.46 52.69 35.84 Z" />
</g>
</svg>
