<?xml version="1.0" encoding="UTF-8" ?>
<!DOCTYPE svg PUBLIC "-//W3C//DTD SVG 1.1//EN" "http://www.w3.org/Graphics/SVG/1.1/DTD/svg11.dtd">
<svg width="64pt" height="64pt" viewBox="0 0 64 64" version="1.1" xmlns="http://www.w3.org/2000/svg">
<g id="#ffffffff">
<path fill="#ffffff" opacity="1.00" d=" M 0.00 0.00 L 64.00 0.00 L 64.00 64.00 L 0.00 64.00 L 0.00 0.00 M 10.91 22.77 C 7.82 30.69 5.02 39.29 6.44 47.88 C 7.22 52.52 11.33 55.91 15.97 56.16 C 15.98 54.86 15.99 53.56 16.00 52.26 C 13.67 51.75 11.29 49.92 12.14 47.22 C 14.39 40.77 18.43 35.12 22.10 29.41 C 23.69 32.13 25.64 34.83 26.02 38.05 C 25.40 39.72 23.41 39.71 22.00 40.22 C 22.00 41.51 22.00 42.79 22.00 44.08 C 25.03 43.90 28.43 44.00 30.89 41.91 C 34.32 38.99 34.55 33.82 33.25 29.79 C 30.38 21.03 25.17 13.28 19.93 5.78 C 16.41 11.15 13.33 16.82 10.91 22.77 M 29.88 46.63 C 24.52 44.28 16.40 49.30 18.46 55.44 C 22.42 61.16 32.00 56.30 32.11 50.02 C 40.70 45.11 49.37 40.35 57.99 35.51 C 57.33 34.34 56.67 33.17 56.00 32.00 C 47.29 36.86 38.63 41.83 29.88 46.63 Z" />
<path fill="#ffffff" opacity="1.00" d=" M 10.04 41.54 C 11.06 31.39 15.19 21.87 20.13 13.06 C 24.32 20.25 30.02 27.48 30.02 36.19 C 28.14 31.22 25.24 26.74 21.94 22.61 C 17.69 28.73 13.47 34.90 10.04 41.54 Z" />
<path fill="#ffffff" opacity="1.00" d=" M 21.81 54.10 C 22.43 51.12 25.42 49.87 28.20 49.90 C 27.60 52.89 24.57 54.11 21.81 54.10 Z" />
</g>
<g id="#000000ff">
<path fill="#000000" opacity="1.00" d=" M 10.91 22.77 C 13.33 16.82 16.41 11.15 19.93 5.78 C 25.17 13.28 30.38 21.03 33.25 29.79 C 34.55 33.82 34.32 38.99 30.89 41.91 C 28.43 44.00 25.03 43.90 22.00 44.08 C 22.00 42.79 22.00 41.51 22.00 40.22 C 23.41 39.71 25.40 39.72 26.02 38.05 C 25.64 34.83 23.69 32.13 22.10 29.41 C 18.43 35.12 14.39 40.77 12.14 47.22 C 11.29 49.92 13.67 51.75 16.00 52.26 C 15.99 53.56 15.98 54.86 15.97 56.16 C 11.33 55.91 7.22 52.52 6.44 47.88 C 5.02 39.29 7.82 30.69 10.91 22.77 M 10.04 41.54 C 13.47 34.90 17.69 28.73 21.94 22.61 C 25.24 26.74 28.14 31.22 30.02 36.19 C 30.02 27.48 24.32 20.25 20.13 13.06 C 15.19 21.87 11.06 31.39 10.04 41.54 Z" />
<path fill="#000000" opacity="1.00" d=" M 29.88 46.63 C 38.63 41.83 47.29 36.86 56.00 32.00 C 56.67 33.17 57.33 34.34 57.99 35.51 C 49.37 40.35 40.70 45.11 32.11 50.02 C 32.00 56.30 22.42 61.16 18.46 55.44 C 16.40 49.30 24.52 44.28 29.88 46.63 M 21.81 54.10 C 24.57 54.11 27.60 52.89 28.20 49.90 C 25.42 49.87 22.43 51.12 21.81 54.10 Z" />
</g>
</svg>
