<?xml version="1.0" encoding="UTF-8" ?>
<!DOCTYPE svg PUBLIC "-//W3C//DTD SVG 1.1//EN" "http://www.w3.org/Graphics/SVG/1.1/DTD/svg11.dtd">
<svg width="64pt" height="64pt" viewBox="0 0 64 64" version="1.1" xmlns="http://www.w3.org/2000/svg">
<g id="#ffffffff">
<path fill="#ffffff" opacity="1.00" d=" M 0.00 0.00 L 64.00 0.00 L 64.00 50.00 C 62.00 50.00 60.00 50.00 58.00 50.00 C 58.00 48.67 58.00 47.33 58.00 46.00 C 56.66 46.00 55.33 46.00 54.00 46.00 C 54.00 47.33 54.00 48.67 54.00 50.00 C 50.00 50.00 46.00 50.00 42.00 50.00 C 42.00 51.33 42.00 52.67 42.00 54.00 C 49.33 54.00 56.67 54.00 64.00 54.00 L 64.00 60.00 C 60.00 60.00 56.00 60.00 52.00 60.00 C 52.00 58.67 52.00 57.33 52.00 56.00 C 50.66 56.00 49.33 56.00 48.00 56.00 C 48.00 57.33 48.00 58.67 48.00 60.00 C 46.00 60.00 44.00 60.00 42.00 60.00 C 42.00 61.33 42.00 62.67 42.00 64.00 L 0.00 64.00 L 0.00 0.00 M 18.99 11.86 C 11.94 16.33 7.58 24.69 8.04 33.04 C 8.31 41.65 13.70 49.80 21.45 53.53 C 26.53 56.13 32.49 56.51 38.00 55.26 C 38.00 53.87 38.00 52.48 38.00 51.09 C 37.50 51.21 36.50 51.45 36.00 51.57 C 36.00 49.05 36.00 46.52 36.00 44.00 C 38.67 44.00 41.33 44.00 44.00 44.00 C 44.00 41.33 44.00 38.67 44.00 36.00 C 46.54 36.00 49.08 36.00 51.62 36.02 C 50.97 38.06 50.22 40.06 49.36 42.02 C 50.86 42.01 52.37 42.00 53.87 41.99 C 59.21 30.63 54.05 15.84 42.66 10.50 C 35.25 6.77 25.92 7.27 18.99 11.86 Z" />
<path fill="#ffffff" opacity="1.00" d=" M 19.97 15.93 C 22.46 14.36 25.16 13.16 27.96 12.27 C 28.00 14.84 28.00 17.42 28.00 20.00 C 25.34 20.00 22.67 20.00 20.01 20.01 C 20.00 18.65 19.99 17.29 19.97 15.93 Z" />
<path fill="#ffffff" opacity="1.00" d=" M 36.04 12.27 C 38.84 13.16 41.54 14.37 44.03 15.94 C 44.01 17.29 44.00 18.65 44.00 20.01 C 41.33 20.00 38.66 20.00 36.00 20.00 C 35.99 17.42 36.00 14.84 36.04 12.27 Z" />
<path fill="#ffffff" opacity="1.00" d=" M 15.93 19.97 C 17.29 19.99 18.65 20.00 20.01 20.01 C 20.00 22.67 20.00 25.34 20.00 28.00 C 17.42 28.00 14.84 28.00 12.27 27.96 C 13.17 25.16 14.36 22.46 15.93 19.97 Z" />
<path fill="#ffffff" opacity="1.00" d=" M 28.00 20.00 C 30.67 20.00 33.33 20.00 36.00 20.00 C 36.00 22.67 36.00 25.33 36.00 28.00 C 33.33 28.00 30.67 28.00 28.00 28.00 C 28.00 25.33 28.00 22.67 28.00 20.00 Z" />
<path fill="#ffffff" opacity="1.00" d=" M 44.00 20.01 C 45.35 20.00 46.71 19.98 48.06 19.97 C 49.62 22.47 50.83 25.15 51.73 27.96 C 49.15 28.00 46.58 28.00 44.00 28.00 C 44.00 25.34 44.00 22.67 44.00 20.01 Z" />
<path fill="#ffffff" opacity="1.00" d=" M 20.00 28.00 C 22.67 28.00 25.33 28.00 28.00 28.00 C 28.00 30.67 28.00 33.33 28.00 36.00 C 25.33 36.00 22.67 36.00 20.00 36.00 C 20.00 33.33 20.00 30.67 20.00 28.00 Z" />
<path fill="#ffffff" opacity="1.00" d=" M 36.00 28.00 C 38.67 28.00 41.33 28.00 44.00 28.00 C 44.00 30.67 44.00 33.33 44.00 36.00 C 41.33 36.00 38.67 36.00 36.00 36.00 C 36.00 33.33 36.00 30.67 36.00 28.00 Z" />
<path fill="#ffffff" opacity="1.00" d=" M 12.26 36.04 C 14.84 36.00 17.42 35.99 20.00 36.00 C 20.00 38.66 20.00 41.33 20.01 44.00 C 18.65 44.00 17.29 44.01 15.93 44.03 C 14.37 41.54 13.17 38.84 12.26 36.04 Z" />
<path fill="#ffffff" opacity="1.00" d=" M 28.00 36.00 C 30.67 36.00 33.33 36.00 36.00 36.00 C 36.00 38.67 36.00 41.33 36.00 44.00 C 33.33 44.00 30.67 44.00 28.00 44.00 C 28.00 41.33 28.00 38.67 28.00 36.00 Z" />
<path fill="#ffffff" opacity="1.00" d=" M 20.01 44.00 C 22.67 44.00 25.34 44.00 28.00 44.00 C 28.00 46.58 28.00 49.15 27.96 51.73 C 25.16 50.83 22.47 49.62 19.97 48.07 C 19.99 46.71 20.00 45.35 20.01 44.00 Z" />
</g>
<g id="#000000ff">
<path fill="#000000" opacity="1.00" d=" M 18.99 11.86 C 25.92 7.27 35.25 6.77 42.66 10.50 C 54.05 15.84 59.21 30.63 53.87 41.99 C 52.37 42.00 50.86 42.01 49.36 42.02 C 50.22 40.06 50.97 38.06 51.62 36.02 C 49.08 36.00 46.54 36.00 44.00 36.00 C 44.00 33.33 44.00 30.67 44.00 28.00 C 46.58 28.00 49.15 28.00 51.73 27.96 C 50.83 25.15 49.62 22.47 48.06 19.97 C 46.71 19.98 45.35 20.00 44.00 20.01 C 44.00 18.65 44.01 17.29 44.03 15.94 C 41.54 14.37 38.84 13.16 36.04 12.27 C 36.00 14.84 35.99 17.42 36.00 20.00 C 33.33 20.00 30.67 20.00 28.00 20.00 C 28.00 17.42 28.00 14.84 27.96 12.27 C 25.16 13.16 22.46 14.36 19.97 15.93 C 19.99 17.29 20.00 18.65 20.01 20.01 C 18.65 20.00 17.29 19.99 15.93 19.97 C 14.36 22.46 13.17 25.16 12.27 27.96 C 14.84 28.00 17.42 28.00 20.00 28.00 C 20.00 30.67 20.00 33.33 20.00 36.00 C 17.42 35.99 14.84 36.00 12.26 36.04 C 13.17 38.84 14.37 41.54 15.93 44.03 C 17.29 44.01 18.65 44.00 20.01 44.00 C 20.00 45.35 19.99 46.71 19.97 48.07 C 22.47 49.62 25.16 50.83 27.96 51.73 C 28.00 49.15 28.00 46.58 28.00 44.00 C 30.67 44.00 33.33 44.00 36.00 44.00 C 36.00 46.52 36.00 49.05 36.00 51.57 C 36.50 51.45 37.50 51.21 38.00 51.09 C 38.00 52.48 38.00 53.87 38.00 55.26 C 32.49 56.51 26.53 56.13 21.45 53.53 C 13.70 49.80 8.31 41.65 8.04 33.04 C 7.58 24.69 11.94 16.33 18.99 11.86 Z" />
<path fill="#000000" opacity="1.00" d=" M 20.01 20.01 C 22.67 20.00 25.34 20.00 28.00 20.00 C 28.00 22.67 28.00 25.33 28.00 28.00 C 25.33 28.00 22.67 28.00 20.00 28.00 C 20.00 25.34 20.00 22.67 20.01 20.01 Z" />
<path fill="#000000" opacity="1.00" d=" M 36.00 20.00 C 38.66 20.00 41.33 20.00 44.00 20.01 C 44.00 22.67 44.00 25.34 44.00 28.00 C 41.33 28.00 38.67 28.00 36.00 28.00 C 36.00 25.33 36.00 22.67 36.00 20.00 Z" />
<path fill="#000000" opacity="1.00" d=" M 28.00 28.00 C 30.67 28.00 33.33 28.00 36.00 28.00 C 36.00 30.67 36.00 33.33 36.00 36.00 C 33.33 36.00 30.67 36.00 28.00 36.00 C 28.00 33.33 28.00 30.67 28.00 28.00 Z" />
<path fill="#000000" opacity="1.00" d=" M 20.00 36.00 C 22.67 36.00 25.33 36.00 28.00 36.00 C 28.00 38.67 28.00 41.33 28.00 44.00 C 25.34 44.00 22.67 44.00 20.01 44.00 C 20.00 41.33 20.00 38.66 20.00 36.00 Z" />
<path fill="#000000" opacity="1.00" d=" M 36.00 36.00 C 38.67 36.00 41.33 36.00 44.00 36.00 C 44.00 38.67 44.00 41.33 44.00 44.00 C 41.33 44.00 38.67 44.00 36.00 44.00 C 36.00 41.33 36.00 38.67 36.00 36.00 Z" />
<path fill="#000000" opacity="1.00" d=" M 54.00 46.00 C 55.33 46.00 56.66 46.00 58.00 46.00 C 58.00 47.33 58.00 48.67 58.00 50.00 C 60.00 50.00 62.00 50.00 64.00 50.00 L 64.00 54.00 C 56.67 54.00 49.33 54.00 42.00 54.00 C 42.00 52.67 42.00 51.33 42.00 50.00 C 46.00 50.00 50.00 50.00 54.00 50.00 C 54.00 48.67 54.00 47.33 54.00 46.00 Z" />
<path fill="#000000" opacity="1.00" d=" M 48.00 56.00 C 49.33 56.00 50.66 56.00 52.00 56.00 C 52.00 57.33 52.00 58.67 52.00 60.00 C 56.00 60.00 60.00 60.00 64.00 60.00 L 64.00 64.00 L 42.00 64.00 C 42.00 62.67 42.00 61.33 42.00 60.00 C 44.00 60.00 46.00 60.00 48.00 60.00 C 48.00 58.67 48.00 57.33 48.00 56.00 Z" />
</g>
</svg>
