<?xml version="1.0" encoding="UTF-8" ?>
<!DOCTYPE svg PUBLIC "-//W3C//DTD SVG 1.1//EN" "http://www.w3.org/Graphics/SVG/1.1/DTD/svg11.dtd">
<svg width="64pt" height="64pt" viewBox="0 0 64 64" version="1.1" xmlns="http://www.w3.org/2000/svg">
<g id="#ffffffff">
<path fill="#ffffff" opacity="1.00" d=" M 0.00 0.00 L 64.00 0.00 L 64.00 64.00 L 0.00 64.00 L 0.00 0.00 M 40.61 11.42 C 38.63 14.01 37.20 16.96 35.58 19.78 C 31.58 20.19 27.36 20.12 23.80 18.01 C 26.62 16.28 29.94 16.04 33.16 15.94 C 33.87 14.68 34.58 13.42 35.29 12.16 C 30.91 11.93 26.17 11.93 22.31 14.29 C 18.64 17.47 16.63 22.05 13.88 25.97 C 9.95 32.80 7.99 42.27 13.05 49.05 C 21.45 60.37 40.22 60.95 49.67 50.67 C 52.84 47.28 54.46 42.53 53.90 37.91 C 53.36 29.09 47.68 21.88 42.71 15.02 C 44.86 12.03 48.51 11.08 51.79 9.88 C 51.32 8.63 50.85 7.38 50.38 6.12 C 46.97 7.50 43.02 8.39 40.61 11.42 Z" />
<path fill="#ffffff" opacity="1.00" d=" M 19.87 24.65 C 20.37 23.53 20.89 22.41 21.41 21.29 C 27.80 24.93 36.18 24.93 42.58 21.30 C 42.99 22.40 44.03 23.38 43.84 24.62 C 41.50 26.81 38.19 27.40 35.12 27.80 C 29.90 28.33 24.26 27.78 19.87 24.65 Z" />
<path fill="#ffffff" opacity="1.00" d=" M 15.91 46.05 C 12.16 40.44 14.70 33.25 17.66 27.89 C 22.60 31.64 29.11 32.32 35.10 31.84 C 39.15 31.55 43.14 30.27 46.44 27.88 C 49.21 33.33 51.84 40.40 48.14 46.04 C 40.97 56.62 23.11 56.59 15.91 46.05 Z" />
</g>
<g id="#000000ff">
<path fill="#000000" opacity="1.00" d=" M 40.61 11.42 C 43.02 8.39 46.97 7.50 50.38 6.12 C 50.85 7.38 51.32 8.63 51.79 9.88 C 48.51 11.08 44.86 12.03 42.71 15.02 C 47.68 21.88 53.36 29.09 53.90 37.91 C 54.46 42.53 52.84 47.28 49.67 50.67 C 40.22 60.95 21.45 60.37 13.05 49.05 C 7.99 42.27 9.95 32.80 13.88 25.97 C 16.63 22.05 18.64 17.47 22.31 14.29 C 26.17 11.93 30.91 11.93 35.29 12.16 C 34.58 13.42 33.87 14.68 33.16 15.94 C 29.94 16.04 26.62 16.28 23.80 18.01 C 27.36 20.12 31.58 20.19 35.58 19.78 C 37.20 16.96 38.63 14.01 40.61 11.42 M 19.87 24.65 C 24.26 27.78 29.90 28.33 35.12 27.80 C 38.19 27.40 41.50 26.81 43.84 24.62 C 44.03 23.38 42.99 22.40 42.58 21.30 C 36.18 24.93 27.80 24.93 21.41 21.29 C 20.89 22.41 20.37 23.53 19.87 24.65 M 15.91 46.05 C 23.11 56.59 40.97 56.62 48.14 46.04 C 51.84 40.40 49.21 33.33 46.44 27.88 C 43.14 30.27 39.15 31.55 35.10 31.84 C 29.11 32.32 22.60 31.64 17.66 27.89 C 14.70 33.25 12.16 40.44 15.91 46.05 Z" />
</g>
</svg>
