<?xml version="1.0" encoding="UTF-8" ?>
<!DOCTYPE svg PUBLIC "-//W3C//DTD SVG 1.1//EN" "http://www.w3.org/Graphics/SVG/1.1/DTD/svg11.dtd">
<svg width="64pt" height="64pt" viewBox="0 0 64 64" version="1.1" xmlns="http://www.w3.org/2000/svg">
<g id="#ffffffff">
<path fill="#ffffff" opacity="1.00" d=" M 0.00 0.00 L 64.00 0.00 L 64.00 64.00 L 0.00 64.00 L 0.00 0.00 M 9.15 45.17 C 16.35 53.44 28.88 56.43 38.89 51.80 C 48.44 47.73 54.72 37.32 53.93 26.98 C 53.60 20.14 50.18 13.73 45.17 9.15 C 33.16 21.15 21.15 33.15 9.15 45.17 Z" />
<path fill="#ffffff" opacity="1.00" d=" M 40.67 19.30 C 42.11 17.91 43.51 16.48 44.95 15.07 C 48.60 19.90 50.64 26.07 49.62 32.13 C 48.41 40.96 40.92 48.44 32.08 49.63 C 26.04 50.64 19.88 48.59 15.07 44.94 C 16.53 43.48 17.99 42.01 19.45 40.55 C 23.25 42.45 27.85 42.72 31.62 40.60 C 36.50 37.86 40.63 33.33 42.22 27.90 C 43.18 24.93 42.14 21.90 40.67 19.30 Z" />
<path fill="#ffffff" opacity="1.00" d=" M 34.57 24.92 C 37.09 24.36 39.64 25.58 40.42 28.13 C 39.34 27.85 37.19 27.29 36.12 27.02 C 36.61 28.63 37.04 30.27 37.43 31.91 C 35.10 31.76 33.79 29.93 32.98 27.93 C 34.00 27.36 35.00 26.75 36.01 26.15 L 34.57 24.92 Z" />
<path fill="#ffffff" opacity="1.00" d=" M 30.45 30.18 C 32.87 30.68 34.50 32.50 34.88 34.92 C 32.28 34.67 30.76 32.64 30.45 30.18 Z" />
<path fill="#ffffff" opacity="1.00" d=" M 26.16 35.84 C 26.74 34.92 27.33 34.00 27.89 33.07 C 29.90 33.83 31.62 35.17 31.95 37.41 C 30.31 37.05 28.68 36.64 27.07 36.18 C 27.22 37.19 27.54 39.21 27.69 40.22 C 25.66 39.00 24.28 36.96 24.85 34.49 L 26.16 35.84 Z" />
</g>
<g id="#000000ff">
<path fill="#000000" opacity="1.00" d=" M 9.15 45.17 C 21.15 33.15 33.16 21.15 45.17 9.15 C 50.18 13.73 53.60 20.14 53.93 26.98 C 54.72 37.32 48.44 47.73 38.89 51.80 C 28.88 56.43 16.35 53.44 9.15 45.17 M 40.67 19.30 C 42.14 21.90 43.18 24.93 42.22 27.90 C 40.63 33.33 36.50 37.86 31.62 40.60 C 27.85 42.72 23.25 42.45 19.45 40.55 C 17.99 42.01 16.53 43.48 15.07 44.94 C 19.88 48.59 26.04 50.64 32.08 49.63 C 40.92 48.44 48.41 40.96 49.62 32.13 C 50.64 26.07 48.60 19.90 44.95 15.07 C 43.51 16.48 42.11 17.91 40.67 19.30 M 34.57 24.92 L 36.01 26.15 C 35.00 26.75 34.00 27.36 32.98 27.93 C 33.79 29.93 35.10 31.76 37.43 31.91 C 37.04 30.27 36.61 28.63 36.12 27.02 C 37.19 27.29 39.34 27.85 40.42 28.13 C 39.64 25.58 37.09 24.36 34.57 24.92 M 30.45 30.18 C 30.76 32.64 32.28 34.67 34.88 34.92 C 34.50 32.50 32.87 30.68 30.45 30.18 M 26.16 35.84 L 24.85 34.49 C 24.28 36.96 25.66 39.00 27.69 40.22 C 27.54 39.21 27.22 37.19 27.07 36.18 C 28.68 36.64 30.31 37.05 31.95 37.41 C 31.62 35.17 29.90 33.83 27.89 33.07 C 27.33 34.00 26.74 34.92 26.16 35.84 Z" />
</g>
</svg>
