<?xml version="1.0" encoding="UTF-8" ?>
<!DOCTYPE svg PUBLIC "-//W3C//DTD SVG 1.1//EN" "http://www.w3.org/Graphics/SVG/1.1/DTD/svg11.dtd">
<svg width="64pt" height="64pt" viewBox="0 0 64 64" version="1.1" xmlns="http://www.w3.org/2000/svg">
<g id="#ffffffff">
<path fill="#ffffff" opacity="1.00" d=" M 0.00 0.00 L 64.00 0.00 L 64.00 64.00 L 0.00 64.00 L 0.00 0.00 M 4.00 14.00 C 4.00 26.00 4.00 38.00 4.00 50.00 C 12.59 50.01 21.18 49.99 29.77 50.01 C 30.00 48.74 30.25 47.48 30.52 46.23 C 31.50 46.22 32.49 46.22 33.47 46.23 C 33.75 47.49 34.00 48.74 34.23 50.01 C 42.82 49.99 51.41 50.01 60.00 50.00 C 60.00 38.00 60.00 26.00 60.00 14.00 C 41.33 14.00 22.67 14.00 4.00 14.00 Z" />
<path fill="#ffffff" opacity="1.00" d=" M 8.00 18.00 C 24.00 18.00 40.00 18.00 56.00 18.00 C 56.00 24.00 56.00 30.00 56.00 36.00 C 40.00 36.00 24.00 36.00 8.00 36.00 C 8.00 30.00 8.00 24.00 8.00 18.00 M 12.01 22.01 C 11.99 25.33 11.99 28.66 12.01 31.99 C 16.00 32.01 20.00 32.01 24.00 31.99 C 24.01 28.66 24.01 25.33 23.99 22.00 C 20.00 21.99 16.00 21.99 12.01 22.01 M 26.01 22.00 C 25.99 25.33 25.99 28.66 26.01 32.00 C 30.00 32.01 34.00 32.01 37.99 31.99 C 38.01 28.66 38.01 25.33 37.99 22.00 C 34.00 21.99 30.00 21.99 26.01 22.00 M 40.01 22.01 C 39.99 25.33 39.99 28.66 40.01 31.99 C 44.00 32.01 48.00 32.01 51.99 32.00 C 52.01 28.67 52.01 25.33 51.99 22.00 C 48.00 21.99 44.00 21.99 40.01 22.01 Z" />
<path fill="#ffffff" opacity="1.00" d=" M 16.00 26.00 C 17.33 26.00 18.67 26.00 20.00 26.00 C 20.00 26.50 20.00 27.50 20.00 28.00 C 18.67 28.00 17.33 28.00 16.00 28.00 C 16.00 27.50 16.00 26.50 16.00 26.00 Z" />
<path fill="#ffffff" opacity="1.00" d=" M 30.00 26.00 C 31.33 26.00 32.67 26.00 34.00 26.00 C 34.00 26.50 34.00 27.50 34.00 28.00 C 32.67 28.00 31.33 28.00 30.00 28.00 C 30.00 27.50 30.00 26.50 30.00 26.00 Z" />
<path fill="#ffffff" opacity="1.00" d=" M 44.00 26.00 C 45.33 26.00 46.67 26.00 48.00 26.00 C 48.00 26.50 48.00 27.50 48.00 28.00 C 46.67 28.00 45.33 28.00 44.00 28.00 C 44.00 27.50 44.00 26.50 44.00 26.00 Z" />
<path fill="#ffffff" opacity="1.00" d=" M 7.99 40.01 C 24.00 39.99 40.00 39.99 56.01 40.01 C 55.99 42.00 55.99 44.00 56.01 45.99 C 49.80 46.00 43.59 46.04 37.38 45.96 C 36.07 44.15 34.52 41.90 32.00 41.97 C 29.48 41.90 27.92 44.14 26.62 45.96 C 20.41 46.04 14.20 45.99 7.99 45.99 C 8.01 44.00 8.01 42.00 7.99 40.01 Z" />
</g>
<g id="#000000ff">
<path fill="#000000" opacity="1.00" d=" M 4.00 14.00 C 22.67 14.00 41.33 14.00 60.00 14.00 C 60.00 26.00 60.00 38.00 60.00 50.00 C 51.41 50.01 42.82 49.99 34.23 50.01 C 34.00 48.74 33.75 47.49 33.47 46.23 C 32.49 46.22 31.50 46.22 30.52 46.23 C 30.25 47.48 30.00 48.74 29.77 50.01 C 21.18 49.99 12.59 50.01 4.00 50.00 C 4.00 38.00 4.00 26.00 4.00 14.00 M 8.00 18.00 C 8.00 24.00 8.00 30.00 8.00 36.00 C 24.00 36.00 40.00 36.00 56.00 36.00 C 56.00 30.00 56.00 24.00 56.00 18.00 C 40.00 18.00 24.00 18.00 8.00 18.00 M 7.99 40.01 C 8.01 42.00 8.01 44.00 7.99 45.99 C 14.20 45.99 20.41 46.04 26.62 45.96 C 27.92 44.14 29.48 41.90 32.00 41.97 C 34.52 41.90 36.07 44.15 37.38 45.96 C 43.59 46.04 49.80 46.00 56.01 45.99 C 55.99 44.00 55.99 42.00 56.01 40.01 C 40.00 39.99 24.00 39.99 7.99 40.01 Z" />
<path fill="#000000" opacity="1.00" d=" M 12.01 22.01 C 16.00 21.99 20.00 21.99 23.99 22.00 C 24.01 25.33 24.01 28.66 24.00 31.99 C 20.00 32.01 16.00 32.01 12.01 31.99 C 11.99 28.66 11.99 25.33 12.01 22.01 M 16.00 26.00 C 16.00 26.50 16.00 27.50 16.00 28.00 C 17.33 28.00 18.67 28.00 20.00 28.00 C 20.00 27.50 20.00 26.50 20.00 26.00 C 18.67 26.00 17.33 26.00 16.00 26.00 Z" />
<path fill="#000000" opacity="1.00" d=" M 26.01 22.00 C 30.00 21.99 34.00 21.99 37.99 22.00 C 38.01 25.33 38.01 28.66 37.99 31.99 C 34.00 32.01 30.00 32.01 26.01 32.00 C 25.99 28.66 25.99 25.33 26.01 22.00 M 30.00 26.00 C 30.00 26.50 30.00 27.50 30.00 28.00 C 31.33 28.00 32.67 28.00 34.00 28.00 C 34.00 27.50 34.00 26.50 34.00 26.00 C 32.67 26.00 31.33 26.00 30.00 26.00 Z" />
<path fill="#000000" opacity="1.00" d=" M 40.01 22.01 C 44.00 21.99 48.00 21.99 51.99 22.00 C 52.01 25.33 52.01 28.67 51.99 32.00 C 48.00 32.01 44.00 32.01 40.01 31.99 C 39.99 28.66 39.99 25.33 40.01 22.01 M 44.00 26.00 C 44.00 26.50 44.00 27.50 44.00 28.00 C 45.33 28.00 46.67 28.00 48.00 28.00 C 48.00 27.50 48.00 26.50 48.00 26.00 C 46.67 26.00 45.33 26.00 44.00 26.00 Z" />
</g>
</svg>
