<?xml version="1.0" encoding="UTF-8" ?>
<!DOCTYPE svg PUBLIC "-//W3C//DTD SVG 1.1//EN" "http://www.w3.org/Graphics/SVG/1.1/DTD/svg11.dtd">
<svg width="64pt" height="64pt" viewBox="0 0 64 64" version="1.1" xmlns="http://www.w3.org/2000/svg">
<g id="#ffffffff">
<path fill="#ffffff" opacity="1.00" d=" M 0.00 0.00 L 64.00 0.00 L 64.00 64.00 L 0.00 64.00 L 0.00 0.00 M 8.00 10.00 C 8.00 18.00 8.00 26.00 8.00 34.00 C 14.00 34.00 20.00 34.00 26.00 34.00 C 26.01 41.37 25.98 48.73 26.02 56.10 C 28.67 53.52 31.29 50.92 33.93 48.33 C 35.25 51.16 36.53 54.00 37.85 56.83 C 39.06 56.27 40.27 55.71 41.48 55.15 C 40.21 52.40 38.93 49.65 37.69 46.88 C 41.20 46.65 44.71 46.45 48.22 46.22 C 43.86 42.15 39.50 38.07 35.14 34.00 C 42.09 33.99 49.04 34.00 56.00 34.00 C 56.00 26.00 56.00 18.00 56.00 10.00 C 40.00 10.00 24.00 10.00 8.00 10.00 Z" />
<path fill="#ffffff" opacity="1.00" d=" M 12.00 14.00 C 25.33 14.00 38.67 14.00 52.00 14.00 C 52.00 19.33 52.00 24.67 52.00 30.00 C 44.95 30.00 37.91 30.00 30.86 30.00 C 29.24 28.50 27.62 26.99 26.01 25.49 C 26.00 26.99 26.00 28.49 26.00 30.00 C 21.33 30.00 16.67 30.00 12.00 30.00 C 12.00 24.67 12.00 19.33 12.00 14.00 M 16.00 20.00 C 16.00 21.33 16.00 22.67 16.00 24.00 C 18.00 24.00 20.00 24.00 22.00 24.00 C 22.00 22.67 22.00 21.33 22.00 20.00 C 20.00 20.00 18.00 20.00 16.00 20.00 M 26.00 20.00 C 26.00 21.33 26.00 22.67 26.00 24.00 C 28.67 24.00 31.33 24.00 34.00 24.00 C 34.00 22.67 34.00 21.33 34.00 20.00 C 31.33 20.00 28.67 20.00 26.00 20.00 M 38.00 20.00 C 38.00 21.33 38.00 22.67 38.00 24.00 C 41.33 24.00 44.67 24.00 48.00 24.00 C 48.00 22.67 48.00 21.33 48.00 20.00 C 44.67 20.00 41.33 20.00 38.00 20.00 Z" />
<path fill="#ffffff" opacity="1.00" d=" M 30.01 34.69 C 32.91 37.38 35.80 40.09 38.68 42.79 C 36.94 42.91 35.20 43.02 33.45 43.16 C 32.32 44.31 31.17 45.44 30.01 46.57 C 29.99 42.61 29.99 38.65 30.01 34.69 Z" />
</g>
<g id="#000000ff">
<path fill="#000000" opacity="1.00" d=" M 8.00 10.00 C 24.00 10.00 40.00 10.00 56.00 10.00 C 56.00 18.00 56.00 26.00 56.00 34.00 C 49.04 34.00 42.09 33.99 35.14 34.00 C 39.50 38.07 43.86 42.15 48.22 46.22 C 44.71 46.45 41.20 46.65 37.69 46.88 C 38.93 49.65 40.21 52.40 41.48 55.15 C 40.27 55.71 39.06 56.27 37.85 56.83 C 36.53 54.00 35.25 51.16 33.93 48.33 C 31.29 50.92 28.67 53.52 26.02 56.10 C 25.98 48.73 26.01 41.37 26.00 34.00 C 20.00 34.00 14.00 34.00 8.00 34.00 C 8.00 26.00 8.00 18.00 8.00 10.00 M 12.00 14.00 C 12.00 19.33 12.00 24.67 12.00 30.00 C 16.67 30.00 21.33 30.00 26.00 30.00 C 26.00 28.49 26.00 26.99 26.01 25.49 C 27.62 26.99 29.24 28.50 30.86 30.00 C 37.91 30.00 44.95 30.00 52.00 30.00 C 52.00 24.67 52.00 19.33 52.00 14.00 C 38.67 14.00 25.33 14.00 12.00 14.00 M 30.01 34.69 C 29.99 38.65 29.99 42.61 30.01 46.57 C 31.17 45.44 32.32 44.31 33.45 43.16 C 35.20 43.02 36.94 42.91 38.68 42.79 C 35.80 40.09 32.91 37.38 30.01 34.69 Z" />
<path fill="#000000" opacity="1.00" d=" M 16.00 20.00 C 18.00 20.00 20.00 20.00 22.00 20.00 C 22.00 21.33 22.00 22.67 22.00 24.00 C 20.00 24.00 18.00 24.00 16.00 24.00 C 16.00 22.67 16.00 21.33 16.00 20.00 Z" />
<path fill="#000000" opacity="1.00" d=" M 26.00 20.00 C 28.67 20.00 31.33 20.00 34.00 20.00 C 34.00 21.33 34.00 22.67 34.00 24.00 C 31.33 24.00 28.67 24.00 26.00 24.00 C 26.00 22.67 26.00 21.33 26.00 20.00 Z" />
<path fill="#000000" opacity="1.00" d=" M 38.00 20.00 C 41.33 20.00 44.67 20.00 48.00 20.00 C 48.00 21.33 48.00 22.67 48.00 24.00 C 44.67 24.00 41.33 24.00 38.00 24.00 C 38.00 22.67 38.00 21.33 38.00 20.00 Z" />
</g>
</svg>
