<?xml version="1.0" encoding="UTF-8" ?>
<!DOCTYPE svg PUBLIC "-//W3C//DTD SVG 1.1//EN" "http://www.w3.org/Graphics/SVG/1.1/DTD/svg11.dtd">
<svg width="64pt" height="64pt" viewBox="0 0 64 64" version="1.1" xmlns="http://www.w3.org/2000/svg">
<g id="#ffffffff">
<path fill="#ffffff" opacity="1.00" d=" M 0.00 0.00 L 64.00 0.00 L 64.00 64.00 L 0.00 64.00 L 0.00 0.00 M 34.00 8.00 C 34.00 9.33 34.00 10.67 34.00 12.00 C 36.67 12.00 39.33 12.00 42.00 12.00 C 42.00 10.67 42.00 9.33 42.00 8.00 C 39.33 8.00 36.67 8.00 34.00 8.00 M 32.00 14.00 C 32.00 15.33 32.00 16.66 32.00 17.98 C 28.16 17.86 23.78 17.88 20.97 20.94 C 16.75 24.91 18.28 31.13 17.99 36.27 C 15.86 37.44 13.89 39.43 14.00 42.04 C 13.93 44.62 15.89 46.56 17.98 47.73 C 17.99 49.15 18.00 50.58 18.00 52.00 C 16.67 52.00 15.33 52.00 14.00 52.00 C 14.00 53.33 14.00 54.67 14.00 56.00 C 25.33 56.00 36.67 56.00 48.00 56.00 C 48.00 54.67 48.00 53.33 48.00 52.00 C 39.33 52.00 30.67 52.00 22.00 52.00 C 22.00 50.59 22.00 49.18 22.01 47.77 C 23.58 46.85 24.86 45.59 25.76 44.02 C 33.17 43.98 40.59 44.01 48.00 44.00 C 48.00 42.67 48.00 41.33 48.00 40.00 C 40.60 40.00 33.21 40.00 25.81 40.00 C 24.87 38.44 23.59 37.17 22.03 36.23 C 22.30 32.47 21.18 28.34 22.91 24.84 C 24.74 21.59 28.81 21.93 32.00 21.98 C 32.00 25.99 32.00 29.99 32.00 34.00 C 36.00 34.00 40.00 34.00 44.00 34.00 C 44.00 27.33 44.00 20.67 44.00 14.00 C 40.00 14.00 36.00 14.00 32.00 14.00 Z" />
<path fill="#ffffff" opacity="1.00" d=" M 36.00 18.00 C 37.33 18.00 38.67 18.00 40.00 18.00 C 40.00 22.00 40.00 26.00 40.00 30.00 C 38.67 30.00 37.33 30.00 36.00 30.00 C 36.00 26.00 36.00 22.00 36.00 18.00 Z" />
<path fill="#ffffff" opacity="1.00" d=" M 19.15 40.10 C 21.58 39.11 23.13 42.75 20.85 43.89 C 18.44 44.89 16.85 41.25 19.15 40.10 Z" />
</g>
<g id="#000000ff">
<path fill="#000000" opacity="1.00" d=" M 34.00 8.00 C 36.67 8.00 39.33 8.00 42.00 8.00 C 42.00 9.33 42.00 10.67 42.00 12.00 C 39.33 12.00 36.67 12.00 34.00 12.00 C 34.00 10.67 34.00 9.33 34.00 8.00 Z" />
<path fill="#000000" opacity="1.00" d=" M 32.00 14.00 C 36.00 14.00 40.00 14.00 44.00 14.00 C 44.00 20.67 44.00 27.33 44.00 34.00 C 40.00 34.00 36.00 34.00 32.00 34.00 C 32.00 29.99 32.00 25.99 32.00 21.98 C 28.81 21.93 24.74 21.59 22.91 24.84 C 21.18 28.34 22.30 32.47 22.03 36.23 C 23.59 37.17 24.87 38.44 25.81 40.00 C 33.21 40.00 40.60 40.00 48.00 40.00 C 48.00 41.33 48.00 42.67 48.00 44.00 C 40.59 44.01 33.17 43.98 25.76 44.02 C 24.86 45.59 23.58 46.85 22.01 47.77 C 22.00 49.18 22.00 50.59 22.00 52.00 C 30.67 52.00 39.33 52.00 48.00 52.00 C 48.00 53.33 48.00 54.67 48.00 56.00 C 36.67 56.00 25.33 56.00 14.00 56.00 C 14.00 54.67 14.00 53.33 14.00 52.00 C 15.33 52.00 16.67 52.00 18.00 52.00 C 18.00 50.58 17.99 49.15 17.98 47.73 C 15.89 46.56 13.93 44.62 14.00 42.04 C 13.89 39.43 15.86 37.44 17.99 36.27 C 18.28 31.13 16.75 24.91 20.97 20.94 C 23.78 17.88 28.16 17.86 32.00 17.98 C 32.00 16.66 32.00 15.33 32.00 14.00 M 36.00 18.00 C 36.00 22.00 36.00 26.00 36.00 30.00 C 37.33 30.00 38.67 30.00 40.00 30.00 C 40.00 26.00 40.00 22.00 40.00 18.00 C 38.67 18.00 37.33 18.00 36.00 18.00 M 19.15 40.10 C 16.85 41.25 18.44 44.89 20.85 43.89 C 23.13 42.75 21.58 39.11 19.15 40.10 Z" />
</g>
</svg>
