<?xml version="1.0" encoding="UTF-8" ?>
<!DOCTYPE svg PUBLIC "-//W3C//DTD SVG 1.1//EN" "http://www.w3.org/Graphics/SVG/1.1/DTD/svg11.dtd">
<svg width="64pt" height="64pt" viewBox="0 0 64 64" version="1.1" xmlns="http://www.w3.org/2000/svg">
<g id="#ffffffff">
<path fill="#ffffff" opacity="1.00" d=" M 0.00 0.00 L 64.00 0.00 L 64.00 64.00 L 0.00 64.00 L 0.00 0.00 M 32.00 8.00 C 32.01 10.69 32.00 13.38 31.99 16.07 C 29.72 16.64 27.55 17.52 25.53 18.71 C 23.65 16.81 21.76 14.93 19.89 13.03 C 18.94 13.98 17.98 14.92 17.03 15.86 C 18.95 17.76 20.84 19.68 22.77 21.57 C 22.38 22.23 21.61 23.54 21.22 24.20 C 14.21 25.55 8.42 31.71 8.07 38.93 C 7.13 48.17 15.81 56.89 25.07 55.93 C 32.29 55.56 38.41 49.77 39.80 42.78 C 40.46 42.39 41.77 41.62 42.42 41.23 C 44.32 43.15 46.24 45.06 48.14 46.97 C 49.08 46.02 50.02 45.08 50.97 44.15 C 49.09 42.24 47.18 40.36 45.28 38.47 C 46.46 36.44 47.34 34.27 47.93 32.01 C 50.62 32.00 53.31 31.99 56.00 32.00 C 56.00 30.67 56.00 29.33 56.00 28.00 C 53.31 28.01 50.62 28.00 47.94 27.99 C 47.34 25.73 46.46 23.56 45.28 21.54 C 47.18 19.65 49.08 17.76 50.97 15.85 C 50.02 14.92 49.09 13.98 48.16 13.03 C 46.26 14.93 44.35 16.82 42.46 18.72 C 40.44 17.53 38.27 16.64 36.01 16.06 C 36.00 13.37 35.99 10.69 36.00 8.00 C 34.67 8.00 33.33 8.00 32.00 8.00 Z" />
<path fill="#ffffff" opacity="1.00" d=" M 25.88 23.98 C 28.20 21.47 31.50 19.56 35.03 20.08 C 39.98 20.47 44.07 25.03 43.98 29.99 C 44.09 33.19 42.23 35.99 40.01 38.12 C 38.94 30.94 33.07 25.06 25.88 23.98 Z" />
<path fill="#ffffff" opacity="1.00" d=" M 20.42 28.57 C 27.76 25.96 36.27 32.22 35.96 39.99 C 36.18 46.80 29.65 52.75 22.89 51.92 C 16.50 51.49 11.30 45.24 12.08 38.87 C 12.46 34.17 15.90 29.91 20.42 28.57 M 22.01 32.00 C 22.00 33.46 21.98 34.91 21.95 36.37 C 20.87 37.61 19.54 39.09 20.14 40.88 C 20.68 44.16 25.50 45.08 27.25 42.28 C 28.77 40.29 27.64 37.85 26.04 36.35 C 26.02 34.90 26.00 33.45 25.99 32.00 C 24.66 32.00 23.34 32.00 22.01 32.00 Z" />
</g>
<g id="#000000ff">
<path fill="#000000" opacity="1.00" d=" M 32.00 8.00 C 33.33 8.00 34.67 8.00 36.00 8.00 C 35.99 10.69 36.00 13.37 36.01 16.06 C 38.27 16.64 40.44 17.53 42.46 18.72 C 44.35 16.82 46.26 14.93 48.16 13.03 C 49.09 13.98 50.02 14.92 50.97 15.85 C 49.08 17.76 47.18 19.65 45.28 21.54 C 46.46 23.56 47.34 25.73 47.94 27.99 C 50.62 28.00 53.31 28.01 56.00 28.00 C 56.00 29.33 56.00 30.67 56.00 32.00 C 53.31 31.99 50.62 32.00 47.93 32.01 C 47.34 34.27 46.46 36.44 45.28 38.47 C 47.18 40.36 49.09 42.24 50.97 44.15 C 50.02 45.08 49.08 46.02 48.14 46.97 C 46.24 45.06 44.32 43.15 42.42 41.23 C 41.77 41.62 40.46 42.39 39.80 42.78 C 38.41 49.77 32.29 55.56 25.07 55.93 C 15.81 56.89 7.13 48.17 8.07 38.93 C 8.42 31.71 14.21 25.55 21.22 24.20 C 21.61 23.54 22.38 22.23 22.77 21.57 C 20.84 19.68 18.95 17.76 17.03 15.86 C 17.98 14.92 18.94 13.98 19.89 13.03 C 21.76 14.93 23.65 16.81 25.53 18.71 C 27.55 17.52 29.72 16.64 31.99 16.07 C 32.00 13.38 32.01 10.69 32.00 8.00 M 25.88 23.98 C 33.07 25.06 38.94 30.94 40.01 38.12 C 42.23 35.99 44.09 33.19 43.98 29.99 C 44.07 25.03 39.98 20.47 35.03 20.08 C 31.50 19.56 28.20 21.47 25.88 23.98 M 20.42 28.57 C 15.90 29.91 12.46 34.17 12.08 38.87 C 11.30 45.24 16.50 51.49 22.89 51.92 C 29.65 52.75 36.18 46.80 35.96 39.99 C 36.27 32.22 27.76 25.96 20.42 28.57 Z" />
<path fill="#000000" opacity="1.00" d=" M 22.01 32.00 C 23.34 32.00 24.66 32.00 25.99 32.00 C 26.00 33.45 26.02 34.90 26.04 36.35 C 27.64 37.85 28.77 40.29 27.25 42.28 C 25.50 45.08 20.68 44.16 20.14 40.88 C 19.54 39.09 20.87 37.61 21.95 36.37 C 21.98 34.91 22.00 33.46 22.01 32.00 Z" />
</g>
</svg>
