<?xml version="1.0" encoding="UTF-8" ?>
<!DOCTYPE svg PUBLIC "-//W3C//DTD SVG 1.1//EN" "http://www.w3.org/Graphics/SVG/1.1/DTD/svg11.dtd">
<svg width="64pt" height="64pt" viewBox="0 0 64 64" version="1.1" xmlns="http://www.w3.org/2000/svg">
<g id="#ffffffff">
<path fill="#ffffff" opacity="1.00" d=" M 0.00 0.00 L 64.00 0.00 L 64.00 64.00 L 0.00 64.00 L 0.00 0.00 M 10.00 12.00 C 10.00 25.33 10.00 38.67 10.00 52.00 C 24.67 52.00 39.33 52.00 54.00 52.00 C 54.00 38.67 54.00 25.33 54.00 12.00 C 39.33 12.00 24.67 12.00 10.00 12.00 Z" />
<path fill="#ffffff" opacity="1.00" d=" M 13.90 20.57 C 20.48 20.32 27.14 19.66 32.92 16.24 C 38.18 18.93 44.14 19.57 49.90 20.51 C 49.97 23.20 50.13 28.59 50.21 31.28 C 48.65 31.47 45.55 31.85 43.99 32.04 C 44.20 33.79 44.40 35.53 44.62 37.28 C 41.92 36.54 39.23 35.81 36.54 35.07 C 34.04 33.71 31.48 32.47 28.94 31.19 C 28.55 32.76 28.17 34.34 27.80 35.91 C 25.16 36.30 22.53 36.70 19.90 37.11 C 19.22 34.33 17.33 32.30 14.85 30.89 C 14.52 27.45 14.20 24.01 13.90 20.57 M 20.00 24.00 C 20.00 25.33 20.00 26.67 20.00 28.00 C 22.67 28.00 25.33 28.00 28.00 28.00 C 28.00 26.67 28.00 25.33 28.00 24.00 C 25.33 24.00 22.67 24.00 20.00 24.00 M 36.00 24.00 C 36.00 25.33 36.00 26.67 36.00 28.00 C 38.67 28.00 41.33 28.00 44.00 28.00 C 44.00 26.67 44.00 25.33 44.00 24.00 C 41.33 24.00 38.66 24.00 36.00 24.00 Z" />
<path fill="#ffffff" opacity="1.00" d=" M 14.14 35.18 C 15.58 35.66 18.46 36.63 19.90 37.11 C 22.58 38.14 25.23 39.22 27.91 40.25 C 27.89 43.10 27.88 45.95 27.86 48.80 C 23.06 47.76 18.57 45.78 14.09 43.81 C 14.10 40.93 14.12 38.06 14.14 35.18 Z" />
<path fill="#ffffff" opacity="1.00" d=" M 27.80 35.91 C 30.71 35.64 33.62 35.36 36.54 35.07 C 36.36 36.84 36.19 38.62 36.02 40.39 C 33.32 40.34 30.61 40.29 27.91 40.25 C 27.87 38.80 27.83 37.36 27.80 35.91 Z" />
<path fill="#ffffff" opacity="1.00" d=" M 44.62 37.28 C 45.89 36.82 48.45 35.90 49.73 35.44 C 49.84 37.38 50.06 41.26 50.17 43.20 C 45.56 45.13 40.91 46.96 36.19 48.59 C 36.13 45.85 36.08 43.12 36.02 40.39 C 38.90 39.38 41.76 38.35 44.62 37.28 Z" />
</g>
<g id="#000000ff">
<path fill="#000000" opacity="1.00" d=" M 10.00 12.00 C 24.67 12.00 39.33 12.00 54.00 12.00 C 54.00 25.33 54.00 38.67 54.00 52.00 C 39.33 52.00 24.67 52.00 10.00 52.00 C 10.00 38.67 10.00 25.33 10.00 12.00 M 13.90 20.57 C 14.20 24.01 14.52 27.45 14.85 30.89 C 17.33 32.30 19.22 34.33 19.90 37.11 C 18.46 36.63 15.58 35.66 14.14 35.18 C 14.12 38.06 14.10 40.93 14.09 43.81 C 18.57 45.78 23.06 47.76 27.86 48.80 C 27.88 45.95 27.89 43.10 27.91 40.25 C 30.61 40.29 33.32 40.34 36.02 40.39 C 36.08 43.12 36.13 45.85 36.19 48.59 C 40.91 46.96 45.56 45.13 50.17 43.20 C 50.06 41.26 49.84 37.38 49.73 35.44 C 48.45 35.90 45.89 36.82 44.62 37.28 C 44.40 35.53 44.20 33.79 43.99 32.04 C 45.55 31.85 48.65 31.47 50.21 31.28 C 50.13 28.59 49.97 23.20 49.90 20.51 C 44.14 19.57 38.18 18.93 32.92 16.24 C 27.14 19.66 20.48 20.32 13.90 20.57 Z" />
<path fill="#000000" opacity="1.00" d=" M 20.00 24.00 C 22.67 24.00 25.33 24.00 28.00 24.00 C 28.00 25.33 28.00 26.67 28.00 28.00 C 25.33 28.00 22.67 28.00 20.00 28.00 C 20.00 26.67 20.00 25.33 20.00 24.00 Z" />
<path fill="#000000" opacity="1.00" d=" M 36.00 24.00 C 38.66 24.00 41.33 24.00 44.00 24.00 C 44.00 25.33 44.00 26.67 44.00 28.00 C 41.33 28.00 38.67 28.00 36.00 28.00 C 36.00 26.67 36.00 25.33 36.00 24.00 Z" />
<path fill="#000000" opacity="1.00" d=" M 27.80 35.91 C 28.17 34.34 28.55 32.76 28.94 31.19 C 31.48 32.47 34.04 33.71 36.54 35.07 C 33.62 35.36 30.71 35.64 27.80 35.91 Z" />
<path fill="#000000" opacity="1.00" d=" M 19.90 37.11 C 22.53 36.70 25.16 36.30 27.80 35.91 C 27.83 37.36 27.87 38.80 27.91 40.25 C 25.23 39.22 22.58 38.14 19.90 37.11 Z" />
<path fill="#000000" opacity="1.00" d=" M 36.54 35.07 C 39.23 35.81 41.92 36.54 44.62 37.28 C 41.76 38.35 38.90 39.38 36.02 40.39 C 36.19 38.62 36.36 36.84 36.54 35.07 Z" />
</g>
</svg>
