<?xml version="1.0" encoding="UTF-8" ?>
<!DOCTYPE svg PUBLIC "-//W3C//DTD SVG 1.1//EN" "http://www.w3.org/Graphics/SVG/1.1/DTD/svg11.dtd">
<svg width="64pt" height="64pt" viewBox="0 0 64 64" version="1.1" xmlns="http://www.w3.org/2000/svg">
<g id="#ffffffff">
<path fill="#ffffff" opacity="1.00" d=" M 0.00 0.00 L 64.00 0.00 L 64.00 64.00 L 0.00 64.00 L 0.00 0.00 M 16.47 15.97 C 15.85 15.98 14.62 16.01 14.00 16.02 C 14.00 17.34 14.00 18.67 14.00 19.99 C 14.50 19.99 15.50 20.01 16.00 20.01 C 16.00 24.17 16.01 28.34 15.99 32.50 C 7.70 37.50 7.50 48.31 8.16 56.86 C 9.37 58.77 12.06 57.54 13.93 57.85 C 14.97 56.71 15.50 55.23 16.30 53.93 C 15.00 52.19 13.51 50.60 11.95 49.09 C 12.19 44.91 13.16 40.64 15.91 37.35 C 16.19 41.52 15.68 45.73 16.26 49.88 C 17.07 53.89 21.11 56.11 24.95 56.17 C 25.45 57.44 25.92 58.72 26.37 60.01 C 27.40 60.00 28.42 59.99 29.45 59.98 C 30.26 58.83 31.12 57.72 31.99 56.62 C 32.88 57.72 33.74 58.83 34.56 59.98 C 35.58 59.99 36.60 60.00 37.62 60.01 C 38.08 58.72 38.56 57.44 39.05 56.17 C 42.87 56.10 46.89 53.90 47.73 49.93 C 48.33 45.76 47.80 41.53 48.09 37.34 C 50.84 40.64 51.80 44.92 52.04 49.12 C 50.66 50.68 48.64 51.93 47.97 53.98 C 48.44 55.35 49.03 56.75 50.06 57.79 C 51.89 57.46 54.66 58.80 55.83 56.84 C 56.50 48.31 56.29 37.48 48.01 32.50 C 47.99 28.34 48.00 24.17 48.00 20.01 C 48.50 20.01 49.50 19.99 50.00 19.99 C 50.00 18.66 50.00 17.34 50.00 16.01 C 49.36 16.01 48.07 15.99 47.42 15.98 C 45.39 9.35 39.22 3.91 32.08 4.03 C 24.89 3.85 18.39 9.15 16.47 15.97 Z" />
<path fill="#ffffff" opacity="1.00" d=" M 20.55 15.94 C 22.62 11.05 27.66 7.40 33.11 8.06 C 37.75 8.38 41.32 11.93 43.30 15.90 C 42.46 15.94 40.77 16.01 39.93 16.05 C 38.62 12.82 35.78 9.89 32.05 10.01 C 28.31 9.84 25.39 12.73 24.11 16.01 C 23.22 15.99 21.44 15.96 20.55 15.94 Z" />
<path fill="#ffffff" opacity="1.00" d=" M 27.70 16.33 C 29.35 15.09 31.40 13.20 33.62 14.34 C 36.72 15.51 36.75 20.44 33.66 21.64 C 31.44 22.82 29.36 20.91 27.71 19.68 C 29.28 19.98 32.03 20.37 31.96 17.99 C 32.03 15.62 29.27 16.02 27.70 16.33 Z" />
<path fill="#ffffff" opacity="1.00" d=" M 20.00 20.00 C 21.37 20.00 22.74 20.00 24.12 20.01 C 25.40 23.27 28.31 26.13 32.03 25.99 C 35.73 26.10 38.59 23.24 39.88 20.01 C 41.25 20.00 42.62 20.00 44.00 20.00 C 44.00 24.25 44.00 28.50 44.00 32.75 C 41.71 33.83 39.56 35.32 37.09 35.93 C 33.51 36.03 29.89 36.20 26.32 35.82 C 24.15 34.95 22.10 33.79 20.00 32.76 C 20.00 28.51 20.00 24.25 20.00 20.00 M 27.22 28.73 C 26.30 29.69 25.38 30.65 24.47 31.62 C 28.97 34.71 35.07 34.73 39.55 31.58 C 38.62 30.63 37.68 29.68 36.75 28.74 C 33.73 30.31 30.23 30.25 27.22 28.73 Z" />
<path fill="#ffffff" opacity="1.00" d=" M 20.01 37.23 C 21.34 37.90 22.68 38.56 24.01 39.23 C 24.00 40.81 23.98 42.40 23.96 43.98 C 22.63 43.66 21.31 43.33 19.99 43.00 C 20.00 41.08 20.00 39.16 20.01 37.23 Z" />
<path fill="#ffffff" opacity="1.00" d=" M 39.99 39.28 C 41.33 38.60 42.66 37.92 44.00 37.23 C 44.00 39.16 44.00 41.08 44.01 43.00 C 42.69 43.33 41.36 43.66 40.04 43.98 C 40.02 42.41 40.00 40.84 39.99 39.28 Z" />
<path fill="#ffffff" opacity="1.00" d=" M 28.00 40.00 C 30.67 40.00 33.33 40.00 36.00 40.00 C 36.00 42.69 36.00 45.39 36.00 48.08 C 38.78 48.00 41.54 47.71 44.29 47.33 C 43.83 49.19 43.16 51.59 40.90 51.86 C 35.26 52.16 29.60 51.99 23.96 51.95 C 21.33 52.13 20.05 49.54 19.71 47.33 C 22.46 47.71 25.22 48.00 28.00 48.08 C 28.00 45.39 28.00 42.69 28.00 40.00 Z" />
</g>
<g id="#000000ff">
<path fill="#000000" opacity="1.00" d=" M 16.47 15.97 C 18.39 9.15 24.89 3.85 32.08 4.03 C 39.22 3.91 45.39 9.35 47.42 15.98 C 48.07 15.99 49.36 16.01 50.00 16.01 C 50.00 17.34 50.00 18.66 50.00 19.99 C 49.50 19.99 48.50 20.01 48.00 20.01 C 48.00 24.17 47.99 28.34 48.01 32.50 C 56.29 37.48 56.50 48.31 55.83 56.84 C 54.66 58.80 51.89 57.46 50.06 57.79 C 49.03 56.75 48.44 55.35 47.97 53.98 C 48.64 51.93 50.66 50.68 52.04 49.12 C 51.80 44.92 50.84 40.64 48.09 37.34 C 47.80 41.53 48.33 45.76 47.73 49.93 C 46.89 53.90 42.87 56.10 39.05 56.17 C 38.56 57.44 38.08 58.72 37.62 60.01 C 36.60 60.00 35.58 59.99 34.56 59.98 C 33.74 58.83 32.88 57.72 31.99 56.62 C 31.12 57.72 30.26 58.83 29.45 59.98 C 28.42 59.99 27.40 60.00 26.37 60.01 C 25.92 58.72 25.45 57.44 24.95 56.17 C 21.11 56.11 17.07 53.89 16.26 49.88 C 15.68 45.73 16.19 41.52 15.91 37.35 C 13.16 40.64 12.19 44.91 11.95 49.09 C 13.51 50.60 15.00 52.19 16.30 53.93 C 15.50 55.23 14.97 56.71 13.93 57.85 C 12.06 57.54 9.37 58.77 8.16 56.86 C 7.50 48.31 7.70 37.50 15.99 32.50 C 16.01 28.34 16.00 24.17 16.00 20.01 C 15.50 20.01 14.50 19.99 14.00 19.99 C 14.00 18.67 14.00 17.34 14.00 16.02 C 14.62 16.01 15.85 15.98 16.47 15.97 M 20.55 15.94 C 21.44 15.96 23.22 15.99 24.11 16.01 C 25.39 12.73 28.31 9.84 32.05 10.01 C 35.78 9.89 38.62 12.82 39.93 16.05 C 40.77 16.01 42.46 15.94 43.30 15.90 C 41.32 11.93 37.75 8.38 33.11 8.06 C 27.66 7.40 22.62 11.05 20.55 15.94 M 27.70 16.33 C 29.27 16.02 32.03 15.62 31.96 17.99 C 32.03 20.37 29.28 19.98 27.71 19.68 C 29.36 20.91 31.44 22.82 33.66 21.64 C 36.75 20.44 36.72 15.51 33.62 14.34 C 31.40 13.20 29.35 15.09 27.70 16.33 M 20.00 20.00 C 20.00 24.25 20.00 28.51 20.00 32.76 C 22.10 33.79 24.15 34.95 26.32 35.82 C 29.89 36.20 33.51 36.03 37.09 35.93 C 39.56 35.32 41.71 33.83 44.00 32.75 C 44.00 28.50 44.00 24.25 44.00 20.00 C 42.62 20.00 41.25 20.00 39.88 20.01 C 38.59 23.24 35.73 26.10 32.03 25.99 C 28.31 26.13 25.40 23.27 24.12 20.01 C 22.74 20.00 21.37 20.00 20.00 20.00 M 20.01 37.23 C 20.00 39.16 20.00 41.08 19.99 43.00 C 21.31 43.33 22.63 43.66 23.96 43.98 C 23.98 42.40 24.00 40.81 24.01 39.23 C 22.68 38.56 21.34 37.90 20.01 37.23 M 39.99 39.28 C 40.00 40.84 40.02 42.41 40.04 43.98 C 41.36 43.66 42.69 43.33 44.01 43.00 C 44.00 41.08 44.00 39.16 44.00 37.23 C 42.66 37.92 41.33 38.60 39.99 39.28 M 28.00 40.00 C 28.00 42.69 28.00 45.39 28.00 48.08 C 25.22 48.00 22.46 47.71 19.71 47.33 C 20.05 49.54 21.33 52.13 23.96 51.95 C 29.60 51.99 35.26 52.16 40.90 51.86 C 43.16 51.59 43.83 49.19 44.29 47.33 C 41.54 47.71 38.78 48.00 36.00 48.08 C 36.00 45.39 36.00 42.69 36.00 40.00 C 33.33 40.00 30.67 40.00 28.00 40.00 Z" />
<path fill="#000000" opacity="1.00" d=" M 27.22 28.73 C 30.23 30.25 33.73 30.31 36.75 28.74 C 37.68 29.68 38.62 30.63 39.55 31.58 C 35.07 34.73 28.97 34.71 24.47 31.62 C 25.38 30.65 26.30 29.69 27.22 28.73 Z" />
</g>
</svg>
