<?xml version="1.0" encoding="UTF-8" ?>
<!DOCTYPE svg PUBLIC "-//W3C//DTD SVG 1.1//EN" "http://www.w3.org/Graphics/SVG/1.1/DTD/svg11.dtd">
<svg width="64pt" height="64pt" viewBox="0 0 64 64" version="1.1" xmlns="http://www.w3.org/2000/svg">
<g id="#ffffffff">
<path fill="#ffffff" opacity="1.00" d=" M 0.00 0.00 L 64.00 0.00 L 64.00 64.00 L 0.00 64.00 L 0.00 0.00 M 8.00 8.00 C 8.00 24.00 8.00 40.00 8.00 56.00 C 24.00 56.00 40.00 56.00 56.00 56.00 C 56.00 54.67 56.00 53.33 56.00 52.00 C 41.33 52.00 26.67 52.00 12.00 52.00 C 12.00 37.33 12.00 22.67 12.00 8.00 C 10.67 8.00 9.33 8.00 8.00 8.00 M 16.00 10.25 C 17.08 17.47 18.65 24.66 21.30 31.48 C 23.39 36.58 26.43 42.03 31.99 43.89 C 31.99 45.26 32.00 46.63 32.01 48.00 C 33.33 48.00 34.66 48.00 35.99 48.00 C 36.00 46.63 36.01 45.26 36.02 43.88 C 41.31 42.10 44.37 37.03 46.41 32.15 C 49.27 25.15 50.86 17.70 52.00 10.24 C 50.67 10.08 49.34 9.92 48.01 9.75 C 46.72 17.83 45.14 26.04 41.40 33.39 C 39.91 36.07 38.06 39.15 34.85 39.89 C 31.36 40.46 28.88 37.29 27.30 34.64 C 22.99 27.04 21.38 18.28 19.99 9.75 C 18.66 9.92 17.33 10.08 16.00 10.25 M 16.00 44.00 C 16.00 45.33 16.00 46.67 16.00 48.00 C 17.33 48.00 18.67 48.00 20.00 48.00 C 20.00 46.67 20.00 45.33 20.00 44.00 C 18.67 44.00 17.33 44.00 16.00 44.00 M 24.00 44.00 C 24.00 45.33 24.00 46.67 24.00 48.00 C 25.33 48.00 26.67 48.00 28.00 48.00 C 28.00 46.67 28.00 45.33 28.00 44.00 C 26.67 44.00 25.33 44.00 24.00 44.00 M 40.00 44.00 C 40.00 45.33 40.00 46.67 40.00 48.00 C 41.33 48.00 42.67 48.00 44.00 48.00 C 44.00 46.67 44.00 45.33 44.00 44.00 C 42.67 44.00 41.33 44.00 40.00 44.00 M 48.00 44.00 C 48.00 45.33 48.00 46.67 48.00 48.00 C 49.33 48.00 50.67 48.00 52.00 48.00 C 52.00 46.67 52.00 45.33 52.00 44.00 C 50.67 44.00 49.33 44.00 48.00 44.00 Z" />
</g>
<g id="#000000ff">
<path fill="#000000" opacity="1.00" d=" M 8.00 8.00 C 9.33 8.00 10.67 8.00 12.00 8.00 C 12.00 22.67 12.00 37.33 12.00 52.00 C 26.67 52.00 41.33 52.00 56.00 52.00 C 56.00 53.33 56.00 54.67 56.00 56.00 C 40.00 56.00 24.00 56.00 8.00 56.00 C 8.00 40.00 8.00 24.00 8.00 8.00 Z" />
<path fill="#000000" opacity="1.00" d=" M 16.00 10.25 C 17.33 10.08 18.66 9.92 19.99 9.75 C 21.38 18.28 22.99 27.04 27.30 34.64 C 28.88 37.29 31.36 40.46 34.85 39.89 C 38.06 39.15 39.91 36.07 41.40 33.39 C 45.14 26.04 46.72 17.83 48.01 9.75 C 49.34 9.92 50.67 10.08 52.00 10.24 C 50.86 17.70 49.27 25.15 46.41 32.15 C 44.37 37.03 41.31 42.10 36.02 43.88 C 36.01 45.26 36.00 46.63 35.99 48.00 C 34.66 48.00 33.33 48.00 32.01 48.00 C 32.00 46.63 31.99 45.26 31.99 43.89 C 26.43 42.03 23.39 36.58 21.30 31.48 C 18.65 24.66 17.08 17.47 16.00 10.25 Z" />
<path fill="#000000" opacity="1.00" d=" M 16.00 44.00 C 17.33 44.00 18.67 44.00 20.00 44.00 C 20.00 45.33 20.00 46.67 20.00 48.00 C 18.67 48.00 17.33 48.00 16.00 48.00 C 16.00 46.67 16.00 45.33 16.00 44.00 Z" />
<path fill="#000000" opacity="1.00" d=" M 24.00 44.00 C 25.33 44.00 26.67 44.00 28.00 44.00 C 28.00 45.33 28.00 46.67 28.00 48.00 C 26.67 48.00 25.33 48.00 24.00 48.00 C 24.00 46.67 24.00 45.33 24.00 44.00 Z" />
<path fill="#000000" opacity="1.00" d=" M 40.00 44.00 C 41.33 44.00 42.67 44.00 44.00 44.00 C 44.00 45.33 44.00 46.67 44.00 48.00 C 42.67 48.00 41.33 48.00 40.00 48.00 C 40.00 46.67 40.00 45.33 40.00 44.00 Z" />
<path fill="#000000" opacity="1.00" d=" M 48.00 44.00 C 49.33 44.00 50.67 44.00 52.00 44.00 C 52.00 45.33 52.00 46.67 52.00 48.00 C 50.67 48.00 49.33 48.00 48.00 48.00 C 48.00 46.67 48.00 45.33 48.00 44.00 Z" />
</g>
</svg>
