<?xml version="1.0" encoding="UTF-8" ?>
<!DOCTYPE svg PUBLIC "-//W3C//DTD SVG 1.1//EN" "http://www.w3.org/Graphics/SVG/1.1/DTD/svg11.dtd">
<svg width="64pt" height="64pt" viewBox="0 0 64 64" version="1.1" xmlns="http://www.w3.org/2000/svg">
<g id="#ffffffff">
<path fill="#ffffff" opacity="1.00" d=" M 0.00 0.00 L 64.00 0.00 L 64.00 64.00 L 0.00 64.00 L 0.00 0.00 M 27.46 8.66 C 20.54 10.72 15.39 17.81 16.04 25.09 C 16.47 33.56 24.57 40.76 33.07 39.95 C 41.96 39.56 49.31 30.67 47.84 21.85 C 46.83 12.51 36.44 5.67 27.46 8.66 M 9.89 24.02 C 9.91 35.09 18.97 44.97 30.00 45.96 C 30.00 47.97 30.00 49.99 30.00 52.00 C 28.00 52.00 26.00 52.00 24.00 52.00 C 24.00 53.33 24.00 54.67 24.00 56.00 C 29.33 56.00 34.67 56.00 40.00 56.00 C 40.00 54.67 40.00 53.33 40.00 52.00 C 38.00 52.00 36.00 52.00 34.00 52.00 C 34.00 49.99 34.00 47.97 34.00 45.96 C 45.03 44.96 54.07 35.09 54.10 24.02 C 52.78 24.01 51.45 24.00 50.12 24.00 C 49.81 29.17 47.76 34.35 43.68 37.69 C 37.44 43.21 27.33 43.40 20.87 38.15 C 16.46 34.83 14.16 29.41 13.87 24.00 C 12.54 24.00 11.22 24.01 9.89 24.02 Z" />
<path fill="#ffffff" opacity="1.00" d=" M 28.38 12.59 C 35.36 10.08 43.51 15.56 43.92 22.93 C 44.81 30.10 38.03 36.85 30.86 35.91 C 24.49 35.48 19.32 29.25 20.08 22.90 C 20.43 18.20 23.88 13.96 28.38 12.59 Z" />
</g>
<g id="#000000ff">
<path fill="#000000" opacity="1.00" d=" M 27.46 8.66 C 36.44 5.67 46.83 12.51 47.84 21.85 C 49.31 30.67 41.96 39.56 33.07 39.95 C 24.57 40.76 16.47 33.56 16.04 25.09 C 15.39 17.81 20.54 10.72 27.46 8.66 M 28.38 12.59 C 23.88 13.96 20.43 18.20 20.08 22.90 C 19.32 29.25 24.49 35.48 30.86 35.91 C 38.03 36.85 44.81 30.10 43.92 22.93 C 43.51 15.56 35.36 10.08 28.38 12.59 Z" />
<path fill="#000000" opacity="1.00" d=" M 9.89 24.02 C 11.22 24.01 12.54 24.00 13.87 24.00 C 14.16 29.41 16.46 34.83 20.87 38.15 C 27.33 43.40 37.44 43.21 43.68 37.69 C 47.76 34.35 49.81 29.17 50.12 24.00 C 51.45 24.00 52.78 24.01 54.10 24.02 C 54.07 35.09 45.03 44.96 34.00 45.96 C 34.00 47.97 34.00 49.99 34.00 52.00 C 36.00 52.00 38.00 52.00 40.00 52.00 C 40.00 53.33 40.00 54.67 40.00 56.00 C 34.67 56.00 29.33 56.00 24.00 56.00 C 24.00 54.67 24.00 53.33 24.00 52.00 C 26.00 52.00 28.00 52.00 30.00 52.00 C 30.00 49.99 30.00 47.97 30.00 45.96 C 18.97 44.97 9.91 35.09 9.89 24.02 Z" />
</g>
</svg>
