<?xml version="1.0" encoding="UTF-8" ?>
<!DOCTYPE svg PUBLIC "-//W3C//DTD SVG 1.1//EN" "http://www.w3.org/Graphics/SVG/1.1/DTD/svg11.dtd">
<svg width="64pt" height="64pt" viewBox="0 0 64 64" version="1.1" xmlns="http://www.w3.org/2000/svg">
<g id="#ffffffff">
<path fill="#ffffff" opacity="1.00" d=" M 0.00 0.00 L 64.00 0.00 L 64.00 64.00 L 0.00 64.00 L 0.00 0.00 M 21.99 11.69 C 22.00 15.21 22.03 18.73 21.97 22.25 C 25.28 24.17 28.67 25.97 31.99 27.87 C 35.36 26.06 38.68 24.18 42.01 22.30 C 42.00 18.80 41.96 15.30 42.05 11.80 C 38.77 9.78 35.37 7.97 31.99 6.13 C 28.68 8.02 25.32 9.82 21.99 11.69 M 10.00 21.94 C 10.00 25.70 9.98 29.46 10.02 33.23 C 8.71 33.97 7.39 34.70 6.06 35.41 C 5.95 38.98 6.01 42.56 6.00 46.13 C 9.36 47.94 12.67 49.83 16.00 51.68 C 19.34 49.85 22.69 48.01 26.00 46.12 C 25.99 42.56 26.03 39.00 25.96 35.43 C 22.60 33.71 19.42 31.64 15.99 30.05 C 15.49 30.28 14.48 30.76 13.98 31.00 C 14.00 28.79 14.00 26.58 14.01 24.37 C 16.01 23.32 18.01 22.25 20.00 21.18 C 20.00 19.69 20.00 18.20 20.01 16.72 C 16.66 18.44 13.34 20.21 10.00 21.94 M 44.01 16.69 C 44.00 18.19 44.00 19.69 43.99 21.19 C 45.99 22.23 47.97 23.29 49.97 24.31 C 50.00 26.54 50.00 28.77 50.01 31.01 L 48.06 30.03 C 44.62 31.63 41.43 33.72 38.04 35.43 C 37.97 38.99 38.00 42.56 38.00 46.13 C 41.36 47.94 44.67 49.83 48.00 51.68 C 51.34 49.85 54.69 48.01 58.00 46.12 C 57.99 42.56 58.03 39.00 57.95 35.44 C 56.63 34.71 55.31 33.98 53.99 33.25 C 54.01 29.48 54.00 25.71 54.00 21.94 C 50.68 20.17 47.33 18.45 44.01 16.69 M 20.44 51.50 C 24.31 53.61 28.16 55.76 31.99 57.94 C 35.89 55.85 39.71 53.63 43.57 51.48 C 42.19 50.74 40.81 50.00 39.43 49.25 C 36.99 50.68 34.50 52.04 32.01 53.38 C 29.52 52.00 27.02 50.64 24.54 49.26 C 23.18 50.01 21.81 50.76 20.44 51.50 Z" />
<path fill="#ffffff" opacity="1.00" d=" M 28.22 12.84 C 29.49 12.15 30.75 11.45 32.00 10.75 C 33.27 11.47 34.55 12.18 35.82 12.88 C 34.54 13.57 33.26 14.25 31.99 14.94 C 30.74 14.24 29.48 13.54 28.22 12.84 Z" />
<path fill="#ffffff" opacity="1.00" d=" M 26.00 16.20 C 27.33 16.91 28.65 17.62 29.98 18.33 C 29.98 19.59 29.99 20.86 30.00 22.13 C 28.67 21.39 27.33 20.66 26.00 19.92 C 26.00 18.68 26.00 17.44 26.00 16.20 Z" />
<path fill="#ffffff" opacity="1.00" d=" M 34.01 18.39 C 35.34 17.66 36.67 16.93 38.00 16.19 C 38.00 17.45 38.00 18.70 38.00 19.96 C 36.67 20.68 35.33 21.40 34.00 22.12 C 34.00 20.87 34.01 19.63 34.01 18.39 Z" />
<path fill="#ffffff" opacity="1.00" d=" M 12.20 36.64 C 13.47 35.95 14.74 35.26 16.01 34.57 C 17.28 35.28 18.55 36.00 19.83 36.71 C 18.54 37.39 17.26 38.07 15.99 38.76 C 14.73 38.05 13.47 37.34 12.20 36.64 Z" />
<path fill="#ffffff" opacity="1.00" d=" M 44.20 36.65 C 45.47 35.96 46.74 35.26 48.01 34.56 C 49.28 35.28 50.55 36.00 51.83 36.71 C 50.54 37.39 49.27 38.07 47.99 38.76 C 46.73 38.05 45.47 37.35 44.20 36.65 Z" />
<path fill="#ffffff" opacity="1.00" d=" M 18.00 42.20 C 19.33 41.48 20.67 40.76 22.00 40.03 C 22.00 41.28 22.00 42.53 22.00 43.78 C 20.67 44.50 19.34 45.21 18.00 45.93 C 18.00 44.69 18.00 43.45 18.00 42.20 Z" />
<path fill="#ffffff" opacity="1.00" d=" M 50.00 42.21 C 51.33 41.48 52.67 40.76 54.00 40.03 C 54.00 41.28 54.00 42.53 54.00 43.78 C 52.67 44.49 51.34 45.21 50.01 45.93 C 50.00 44.69 50.00 43.45 50.00 42.21 Z" />
<path fill="#ffffff" opacity="1.00" d=" M 10.00 40.00 C 11.34 40.72 12.67 41.45 14.01 42.17 C 14.00 43.43 13.99 44.68 13.99 45.94 C 12.66 45.20 11.33 44.46 10.00 43.73 C 10.00 42.80 10.00 40.93 10.00 40.00 Z" />
<path fill="#ffffff" opacity="1.00" d=" M 42.00 40.00 C 43.34 40.72 44.67 41.45 46.01 42.17 C 46.00 43.43 45.99 44.68 45.99 45.94 C 44.66 45.20 43.33 44.46 42.00 43.73 C 42.00 42.80 42.00 40.93 42.00 40.00 Z" />
</g>
<g id="#000000ff">
<path fill="#000000" opacity="1.00" d=" M 21.99 11.69 C 25.32 9.82 28.68 8.02 31.99 6.13 C 35.37 7.97 38.77 9.78 42.05 11.80 C 41.96 15.30 42.00 18.80 42.01 22.30 C 38.68 24.18 35.36 26.06 31.99 27.87 C 28.67 25.97 25.28 24.17 21.97 22.25 C 22.03 18.73 22.00 15.21 21.99 11.69 M 28.22 12.84 C 29.48 13.54 30.74 14.24 31.99 14.94 C 33.26 14.25 34.54 13.57 35.82 12.88 C 34.55 12.18 33.27 11.47 32.00 10.75 C 30.75 11.45 29.49 12.15 28.22 12.84 M 26.00 16.20 C 26.00 17.44 26.00 18.68 26.00 19.92 C 27.33 20.66 28.67 21.39 30.00 22.13 C 29.99 20.86 29.98 19.59 29.98 18.33 C 28.65 17.62 27.33 16.91 26.00 16.20 M 34.01 18.39 C 34.01 19.63 34.00 20.87 34.00 22.12 C 35.33 21.40 36.67 20.68 38.00 19.96 C 38.00 18.70 38.00 17.45 38.00 16.19 C 36.67 16.93 35.34 17.66 34.01 18.39 Z" />
<path fill="#000000" opacity="1.00" d=" M 10.00 21.94 C 13.34 20.21 16.66 18.44 20.01 16.72 C 20.00 18.20 20.00 19.69 20.00 21.18 C 18.01 22.25 16.01 23.32 14.01 24.37 C 14.00 26.58 14.00 28.79 13.98 31.00 C 14.48 30.76 15.49 30.28 15.99 30.05 C 19.42 31.64 22.60 33.71 25.96 35.43 C 26.03 39.00 25.99 42.56 26.00 46.12 C 22.69 48.01 19.34 49.85 16.00 51.68 C 12.67 49.83 9.36 47.94 6.00 46.13 C 6.01 42.56 5.95 38.98 6.06 35.41 C 7.39 34.70 8.71 33.97 10.02 33.23 C 9.98 29.46 10.00 25.70 10.00 21.94 M 12.20 36.64 C 13.47 37.34 14.73 38.05 15.99 38.76 C 17.26 38.07 18.54 37.39 19.83 36.71 C 18.55 36.00 17.28 35.28 16.01 34.57 C 14.74 35.26 13.47 35.95 12.20 36.64 M 18.00 42.20 C 18.00 43.45 18.00 44.69 18.00 45.93 C 19.34 45.21 20.67 44.50 22.00 43.78 C 22.00 42.53 22.00 41.28 22.00 40.03 C 20.67 40.76 19.33 41.48 18.00 42.20 M 10.00 40.00 C 10.00 40.93 10.00 42.80 10.00 43.73 C 11.33 44.46 12.66 45.20 13.99 45.94 C 13.99 44.68 14.00 43.43 14.01 42.17 C 12.67 41.45 11.34 40.72 10.00 40.00 Z" />
<path fill="#000000" opacity="1.00" d=" M 44.01 16.69 C 47.33 18.45 50.68 20.17 54.00 21.94 C 54.00 25.71 54.01 29.48 53.99 33.25 C 55.31 33.98 56.63 34.71 57.95 35.44 C 58.03 39.00 57.99 42.56 58.00 46.12 C 54.69 48.01 51.34 49.85 48.00 51.68 C 44.67 49.83 41.36 47.94 38.00 46.13 C 38.00 42.56 37.97 38.99 38.04 35.43 C 41.43 33.72 44.62 31.63 48.06 30.03 L 50.01 31.01 C 50.00 28.77 50.00 26.54 49.97 24.31 C 47.97 23.29 45.99 22.23 43.99 21.19 C 44.00 19.69 44.00 18.19 44.01 16.69 M 44.20 36.65 C 45.47 37.35 46.73 38.05 47.99 38.76 C 49.27 38.07 50.54 37.39 51.83 36.71 C 50.55 36.00 49.28 35.28 48.01 34.56 C 46.74 35.26 45.47 35.96 44.20 36.65 M 50.00 42.21 C 50.00 43.45 50.00 44.69 50.01 45.93 C 51.34 45.21 52.67 44.49 54.00 43.78 C 54.00 42.53 54.00 41.28 54.00 40.03 C 52.67 40.76 51.33 41.48 50.00 42.21 M 42.00 40.00 C 42.00 40.93 42.00 42.80 42.00 43.73 C 43.33 44.46 44.66 45.20 45.99 45.94 C 45.99 44.68 46.00 43.43 46.01 42.17 C 44.67 41.45 43.34 40.72 42.00 40.00 Z" />
<path fill="#000000" opacity="1.00" d=" M 20.44 51.50 C 21.81 50.76 23.18 50.01 24.54 49.26 C 27.02 50.64 29.52 52.00 32.01 53.38 C 34.50 52.04 36.99 50.68 39.43 49.25 C 40.81 50.00 42.19 50.74 43.57 51.48 C 39.71 53.63 35.89 55.85 31.99 57.94 C 28.16 55.76 24.31 53.61 20.44 51.50 Z" />
</g>
</svg>
