<?xml version="1.0" encoding="UTF-8" ?>
<!DOCTYPE svg PUBLIC "-//W3C//DTD SVG 1.1//EN" "http://www.w3.org/Graphics/SVG/1.1/DTD/svg11.dtd">
<svg width="64pt" height="64pt" viewBox="0 0 64 64" version="1.1" xmlns="http://www.w3.org/2000/svg">
<g id="#ffffffff">
<path fill="#ffffff" opacity="1.00" d=" M 0.00 0.00 L 64.00 0.00 L 64.00 64.00 L 0.00 64.00 L 0.00 0.00 M 30.00 4.00 C 30.00 5.91 30.00 7.82 30.00 9.73 C 26.60 11.61 23.57 14.12 20.11 15.88 C 16.17 16.20 12.21 15.89 8.27 16.00 C 12.81 22.77 17.31 29.57 21.83 36.34 C 19.69 44.23 17.53 52.11 15.38 60.00 C 26.46 60.00 37.54 60.00 48.62 60.00 C 46.53 51.96 44.05 44.00 42.19 35.91 C 43.05 30.56 44.54 25.32 45.59 20.01 C 47.35 20.01 49.12 20.00 50.89 19.99 C 51.89 23.02 52.82 26.08 53.66 29.16 C 52.08 30.21 50.49 31.26 48.90 32.32 C 49.64 33.44 50.38 34.55 51.11 35.67 C 53.50 34.09 55.90 32.52 58.29 30.93 C 57.04 25.88 55.63 20.87 53.77 16.01 C 50.66 15.90 47.51 16.25 44.43 15.82 C 40.85 13.98 37.56 11.63 34.00 9.75 C 34.00 7.83 34.00 5.92 34.00 4.00 C 32.67 4.00 31.33 4.00 30.00 4.00 Z" />
<path fill="#ffffff" opacity="1.00" d=" M 21.28 19.89 C 24.76 18.30 27.53 15.41 31.09 14.02 C 35.23 13.63 38.18 17.39 41.73 18.94 C 40.63 23.96 39.52 28.99 38.39 34.00 C 33.96 34.00 29.52 34.00 25.09 34.00 C 21.96 29.35 18.86 24.68 15.76 20.01 C 17.60 20.01 19.45 20.11 21.28 19.89 Z" />
<path fill="#ffffff" opacity="1.00" d=" M 25.53 38.01 C 29.84 38.00 34.16 37.99 38.48 38.01 C 40.10 44.01 41.74 50.00 43.39 56.00 C 35.80 56.00 28.21 56.00 20.62 56.00 C 22.26 50.00 23.89 44.00 25.53 38.01 Z" />
</g>
<g id="#000000ff">
<path fill="#000000" opacity="1.00" d=" M 30.00 4.00 C 31.33 4.00 32.67 4.00 34.00 4.00 C 34.00 5.92 34.00 7.83 34.00 9.75 C 37.56 11.63 40.85 13.98 44.43 15.82 C 47.51 16.25 50.66 15.90 53.77 16.01 C 55.63 20.87 57.04 25.88 58.29 30.93 C 55.90 32.52 53.50 34.09 51.11 35.67 C 50.38 34.55 49.64 33.44 48.90 32.32 C 50.49 31.26 52.08 30.21 53.66 29.16 C 52.82 26.08 51.89 23.02 50.89 19.99 C 49.12 20.00 47.35 20.01 45.59 20.01 C 44.54 25.32 43.05 30.56 42.19 35.91 C 44.05 44.00 46.53 51.96 48.62 60.00 C 37.54 60.00 26.46 60.00 15.38 60.00 C 17.53 52.11 19.69 44.23 21.83 36.34 C 17.31 29.57 12.81 22.77 8.27 16.00 C 12.21 15.89 16.17 16.20 20.11 15.88 C 23.57 14.12 26.60 11.61 30.00 9.73 C 30.00 7.82 30.00 5.91 30.00 4.00 M 21.28 19.89 C 19.45 20.11 17.60 20.01 15.76 20.01 C 18.86 24.68 21.96 29.35 25.09 34.00 C 29.52 34.00 33.96 34.00 38.39 34.00 C 39.52 28.99 40.63 23.96 41.73 18.94 C 38.18 17.39 35.23 13.63 31.09 14.02 C 27.53 15.41 24.76 18.30 21.28 19.89 M 25.53 38.01 C 23.89 44.00 22.26 50.00 20.62 56.00 C 28.21 56.00 35.80 56.00 43.39 56.00 C 41.74 50.00 40.10 44.01 38.48 38.01 C 34.16 37.99 29.84 38.00 25.53 38.01 Z" />
</g>
</svg>
