<?xml version="1.0" encoding="UTF-8" ?>
<!DOCTYPE svg PUBLIC "-//W3C//DTD SVG 1.1//EN" "http://www.w3.org/Graphics/SVG/1.1/DTD/svg11.dtd">
<svg width="64pt" height="64pt" viewBox="0 0 64 64" version="1.1" xmlns="http://www.w3.org/2000/svg">
<g id="#ffffffff">
<path fill="#ffffff" opacity="1.00" d=" M 0.00 0.00 L 64.00 0.00 L 64.00 64.00 L 0.00 64.00 L 0.00 0.00 M 16.03 13.08 C 10.41 17.77 10.90 27.23 16.87 31.44 C 10.40 34.31 6.08 40.93 5.90 47.98 C 7.23 47.99 8.57 48.00 9.90 48.00 C 10.08 41.36 15.07 35.11 21.77 34.22 C 28.99 32.83 36.26 38.10 37.77 45.17 C 35.52 47.61 34.16 50.67 33.87 53.98 C 35.19 53.99 36.50 54.00 37.82 54.00 C 38.17 49.80 41.54 45.88 45.97 46.01 C 50.42 45.85 53.81 49.78 54.18 54.00 C 55.51 54.00 56.83 53.99 58.16 53.97 C 57.83 49.77 55.67 45.88 52.10 43.58 C 55.06 39.70 54.53 33.22 49.86 30.93 C 45.05 28.26 38.45 31.50 38.00 37.11 C 36.21 34.92 33.99 33.15 31.55 31.74 C 35.88 29.29 39.49 25.82 42.65 22.00 C 38.83 17.46 34.41 13.11 28.80 10.91 C 24.57 9.22 19.41 9.97 16.03 13.08 M 48.00 10.00 C 48.00 11.33 48.00 12.67 48.00 14.00 C 46.67 14.00 45.33 14.00 44.00 14.00 C 44.00 15.33 44.00 16.67 44.00 18.00 C 45.33 18.00 46.67 18.00 48.00 18.00 C 48.00 19.33 48.00 20.67 48.00 22.00 C 49.33 22.00 50.67 22.00 52.00 22.00 C 52.00 20.67 52.00 19.33 52.00 18.00 C 53.33 18.00 54.67 18.00 56.00 18.00 C 56.00 16.67 56.00 15.33 56.00 14.00 C 54.67 14.00 53.33 14.00 52.00 14.00 C 52.00 12.67 52.00 11.33 52.00 10.00 C 50.67 10.00 49.33 10.00 48.00 10.00 Z" />
<path fill="#ffffff" opacity="1.00" d=" M 16.01 21.98 C 15.87 17.35 20.39 13.35 24.97 14.08 C 29.95 14.95 33.91 18.48 37.32 22.00 C 33.92 25.48 30.01 28.94 25.09 29.90 C 20.47 30.71 15.84 26.67 16.01 21.98 Z" />
<path fill="#ffffff" opacity="1.00" d=" M 43.57 34.68 C 46.10 32.82 50.26 34.68 49.96 38.00 C 50.16 40.66 47.40 42.69 44.89 41.90 C 41.71 41.26 41.08 36.51 43.57 34.68 Z" />
</g>
<g id="#000000ff">
<path fill="#000000" opacity="1.00" d=" M 16.03 13.08 C 19.41 9.97 24.57 9.22 28.80 10.91 C 34.41 13.11 38.83 17.46 42.65 22.00 C 39.49 25.82 35.88 29.29 31.55 31.74 C 33.99 33.15 36.21 34.92 38.00 37.11 C 38.45 31.50 45.05 28.26 49.86 30.93 C 54.53 33.22 55.06 39.70 52.10 43.58 C 55.67 45.88 57.83 49.77 58.16 53.97 C 56.83 53.99 55.51 54.00 54.18 54.00 C 53.81 49.78 50.42 45.85 45.97 46.01 C 41.54 45.88 38.17 49.80 37.82 54.00 C 36.50 54.00 35.19 53.99 33.87 53.98 C 34.16 50.67 35.52 47.61 37.77 45.17 C 36.26 38.10 28.99 32.83 21.77 34.22 C 15.07 35.11 10.08 41.36 9.90 48.00 C 8.57 48.00 7.23 47.99 5.90 47.98 C 6.08 40.93 10.40 34.31 16.87 31.44 C 10.90 27.23 10.41 17.77 16.03 13.08 M 16.01 21.98 C 15.84 26.67 20.47 30.71 25.09 29.90 C 30.01 28.94 33.92 25.48 37.32 22.00 C 33.91 18.48 29.95 14.95 24.97 14.08 C 20.39 13.35 15.87 17.35 16.01 21.98 M 43.57 34.68 C 41.08 36.51 41.71 41.26 44.89 41.90 C 47.40 42.69 50.16 40.66 49.96 38.00 C 50.26 34.68 46.10 32.82 43.57 34.68 Z" />
<path fill="#000000" opacity="1.00" d=" M 48.00 10.00 C 49.33 10.00 50.67 10.00 52.00 10.00 C 52.00 11.33 52.00 12.67 52.00 14.00 C 53.33 14.00 54.67 14.00 56.00 14.00 C 56.00 15.33 56.00 16.67 56.00 18.00 C 54.67 18.00 53.33 18.00 52.00 18.00 C 52.00 19.33 52.00 20.67 52.00 22.00 C 50.67 22.00 49.33 22.00 48.00 22.00 C 48.00 20.67 48.00 19.33 48.00 18.00 C 46.67 18.00 45.33 18.00 44.00 18.00 C 44.00 16.67 44.00 15.33 44.00 14.00 C 45.33 14.00 46.67 14.00 48.00 14.00 C 48.00 12.67 48.00 11.33 48.00 10.00 Z" />
</g>
</svg>
