<?xml version="1.0" encoding="UTF-8" ?>
<!DOCTYPE svg PUBLIC "-//W3C//DTD SVG 1.1//EN" "http://www.w3.org/Graphics/SVG/1.1/DTD/svg11.dtd">
<svg width="64pt" height="64pt" viewBox="0 0 64 64" version="1.1" xmlns="http://www.w3.org/2000/svg">
<g id="#ffffffff">
<path fill="#ffffff" opacity="1.00" d=" M 0.00 0.00 L 64.00 0.00 L 64.00 64.00 L 0.00 64.00 L 0.00 0.00 M 26.35 14.00 C 25.00 17.23 27.31 20.26 29.97 21.82 C 29.98 23.88 30.03 25.94 30.00 28.00 C 27.33 28.00 24.66 28.00 22.00 28.00 C 22.00 32.00 22.00 36.00 22.00 40.00 C 23.33 40.00 24.67 40.00 26.00 40.00 C 26.00 37.33 26.00 34.67 26.00 32.00 C 35.33 32.00 44.67 32.00 54.00 32.00 C 54.00 34.66 54.00 37.33 54.00 40.00 C 55.33 40.00 56.67 40.00 58.00 40.00 C 58.00 36.00 58.00 32.00 58.00 28.00 C 50.00 28.00 42.00 28.00 34.00 28.00 C 33.98 25.94 34.02 23.87 34.03 21.81 C 37.18 20.16 39.31 16.16 37.11 12.89 C 34.79 8.62 27.75 9.36 26.35 14.00 M 6.35 42.38 C 3.91 43.41 3.14 47.01 5.18 48.81 C 7.00 50.82 10.56 50.11 11.61 47.65 C 13.33 44.57 9.46 40.64 6.35 42.38 M 22.36 42.38 C 19.62 43.50 19.15 47.69 21.73 49.26 C 23.90 50.97 27.30 49.51 27.89 46.91 C 28.76 43.89 25.17 40.83 22.36 42.38 M 38.39 42.36 C 35.93 43.37 35.13 46.96 37.15 48.78 C 38.97 50.83 42.58 50.12 43.62 47.63 C 45.30 44.56 41.50 40.68 38.39 42.36 M 54.28 42.42 C 51.88 43.48 51.17 47.03 53.18 48.80 C 54.99 50.82 58.57 50.12 59.61 47.65 C 61.35 44.53 57.38 40.58 54.28 42.42 Z" />
<path fill="#ffffff" opacity="1.00" d=" M 31.19 14.09 C 33.54 13.08 35.21 16.89 32.79 17.80 C 30.45 19.01 28.81 15.09 31.19 14.09 Z" />
</g>
<g id="#000000ff">
<path fill="#000000" opacity="1.00" d=" M 26.35 14.00 C 27.75 9.36 34.79 8.62 37.11 12.89 C 39.31 16.16 37.18 20.16 34.03 21.81 C 34.02 23.87 33.98 25.94 34.00 28.00 C 42.00 28.00 50.00 28.00 58.00 28.00 C 58.00 32.00 58.00 36.00 58.00 40.00 C 56.67 40.00 55.33 40.00 54.00 40.00 C 54.00 37.33 54.00 34.66 54.00 32.00 C 44.67 32.00 35.33 32.00 26.00 32.00 C 26.00 34.67 26.00 37.33 26.00 40.00 C 24.67 40.00 23.33 40.00 22.00 40.00 C 22.00 36.00 22.00 32.00 22.00 28.00 C 24.66 28.00 27.33 28.00 30.00 28.00 C 30.03 25.94 29.98 23.88 29.97 21.82 C 27.31 20.26 25.00 17.23 26.35 14.00 M 31.19 14.09 C 28.81 15.09 30.45 19.01 32.79 17.80 C 35.21 16.89 33.54 13.08 31.19 14.09 Z" />
<path fill="#000000" opacity="1.00" d=" M 6.35 42.38 C 9.46 40.64 13.33 44.57 11.61 47.65 C 10.56 50.11 7.00 50.82 5.18 48.81 C 3.14 47.01 3.91 43.41 6.35 42.38 Z" />
<path fill="#000000" opacity="1.00" d=" M 22.36 42.38 C 25.17 40.83 28.76 43.89 27.89 46.91 C 27.30 49.51 23.90 50.97 21.73 49.26 C 19.15 47.69 19.62 43.50 22.36 42.38 Z" />
<path fill="#000000" opacity="1.00" d=" M 38.39 42.36 C 41.50 40.68 45.30 44.56 43.62 47.63 C 42.58 50.12 38.97 50.83 37.15 48.78 C 35.13 46.96 35.93 43.37 38.39 42.36 Z" />
<path fill="#000000" opacity="1.00" d=" M 54.28 42.42 C 57.38 40.58 61.35 44.53 59.61 47.65 C 58.57 50.12 54.99 50.82 53.18 48.80 C 51.17 47.03 51.88 43.48 54.28 42.42 Z" />
</g>
</svg>
