<?xml version="1.0" encoding="UTF-8" ?>
<!DOCTYPE svg PUBLIC "-//W3C//DTD SVG 1.1//EN" "http://www.w3.org/Graphics/SVG/1.1/DTD/svg11.dtd">
<svg width="64pt" height="64pt" viewBox="0 0 64 64" version="1.1" xmlns="http://www.w3.org/2000/svg">
<g id="#ffffffff">
<path fill="#ffffff" opacity="1.00" d=" M 0.00 0.00 L 64.00 0.00 L 64.00 64.00 L 0.00 64.00 L 0.00 0.00 M 23.99 7.98 C 23.95 12.76 24.24 17.55 25.22 22.24 C 18.27 23.02 11.30 24.97 5.62 29.19 C 7.01 33.98 9.73 38.23 12.80 42.11 C 17.37 47.88 22.64 53.25 29.04 56.98 C 31.02 51.74 32.85 46.44 34.44 41.06 C 35.57 42.29 36.70 43.53 37.83 44.76 C 46.11 38.20 52.39 29.33 56.38 19.58 C 48.01 11.08 35.66 7.68 23.99 7.98 Z" />
<path fill="#ffffff" opacity="1.00" d=" M 28.31 12.24 C 36.60 12.79 45.23 14.97 51.56 20.64 C 48.30 27.59 43.78 33.96 38.07 39.12 C 37.29 38.30 36.50 37.49 35.72 36.68 C 36.91 32.10 38.26 27.55 38.99 22.86 C 35.76 22.32 32.50 22.04 29.24 21.95 C 28.74 18.73 28.47 15.49 28.31 12.24 M 33.21 16.18 C 30.80 17.13 32.44 20.88 34.81 19.90 C 37.16 18.87 35.54 15.02 33.21 16.18 M 42.16 18.18 C 41.67 19.81 42.22 20.36 43.84 19.81 C 44.33 18.18 43.77 17.64 42.16 18.18 M 43.11 24.14 C 40.89 25.29 42.42 28.84 44.81 27.89 C 47.18 26.79 45.54 23.08 43.11 24.14 M 40.17 30.18 C 39.66 31.80 40.21 32.35 41.83 31.82 C 42.34 30.19 41.78 29.65 40.17 30.18 Z" />
<path fill="#ffffff" opacity="1.00" d=" M 10.57 30.86 C 17.76 26.96 26.18 25.58 34.28 26.33 C 32.36 34.58 29.86 42.67 26.98 50.63 C 20.18 45.33 14.25 38.71 10.57 30.86 M 21.20 30.10 C 18.83 31.19 20.43 34.89 22.86 33.88 C 25.10 32.74 23.60 29.17 21.20 30.10 M 16.17 32.17 C 15.65 33.79 16.20 34.34 17.82 33.83 C 18.34 32.20 17.79 31.65 16.17 32.17 M 28.17 32.17 C 27.65 33.79 28.20 34.34 29.82 33.83 C 30.35 32.21 29.80 31.66 28.17 32.17 M 20.18 36.17 C 19.65 37.78 20.19 38.34 21.82 37.83 C 22.35 36.21 21.80 35.66 20.18 36.17 M 25.14 38.12 C 22.85 39.19 24.47 42.94 26.78 41.83 C 29.23 40.87 27.54 37.08 25.14 38.12 Z" />
</g>
<g id="#000000ff">
<path fill="#000000" opacity="1.00" d=" M 23.99 7.98 C 35.66 7.68 48.01 11.08 56.38 19.58 C 52.39 29.33 46.11 38.20 37.83 44.76 C 36.70 43.53 35.57 42.29 34.44 41.06 C 32.85 46.44 31.02 51.74 29.04 56.98 C 22.64 53.25 17.37 47.88 12.80 42.11 C 9.73 38.23 7.01 33.98 5.62 29.19 C 11.30 24.97 18.27 23.02 25.22 22.24 C 24.24 17.55 23.95 12.76 23.99 7.98 M 28.31 12.24 C 28.47 15.49 28.74 18.73 29.24 21.95 C 32.50 22.04 35.76 22.32 38.99 22.86 C 38.26 27.55 36.91 32.10 35.72 36.68 C 36.50 37.49 37.29 38.30 38.07 39.12 C 43.78 33.96 48.30 27.59 51.56 20.64 C 45.23 14.97 36.60 12.79 28.31 12.24 M 10.57 30.86 C 14.25 38.71 20.18 45.33 26.98 50.63 C 29.86 42.67 32.36 34.58 34.28 26.33 C 26.18 25.58 17.76 26.96 10.57 30.86 Z" />
<path fill="#000000" opacity="1.00" d=" M 33.21 16.18 C 35.54 15.02 37.16 18.87 34.81 19.90 C 32.44 20.88 30.80 17.13 33.21 16.18 Z" />
<path fill="#000000" opacity="1.00" d=" M 42.16 18.18 C 43.77 17.64 44.33 18.18 43.84 19.81 C 42.22 20.36 41.67 19.81 42.16 18.18 Z" />
<path fill="#000000" opacity="1.00" d=" M 43.11 24.14 C 45.54 23.08 47.18 26.79 44.81 27.89 C 42.42 28.84 40.89 25.29 43.11 24.14 Z" />
<path fill="#000000" opacity="1.00" d=" M 21.20 30.10 C 23.60 29.17 25.10 32.74 22.86 33.88 C 20.43 34.89 18.83 31.19 21.20 30.10 Z" />
<path fill="#000000" opacity="1.00" d=" M 40.17 30.18 C 41.78 29.65 42.34 30.19 41.83 31.82 C 40.21 32.35 39.66 31.80 40.17 30.18 Z" />
<path fill="#000000" opacity="1.00" d=" M 16.17 32.17 C 17.79 31.65 18.34 32.20 17.82 33.83 C 16.20 34.34 15.65 33.79 16.17 32.17 Z" />
<path fill="#000000" opacity="1.00" d=" M 28.17 32.17 C 29.80 31.66 30.35 32.21 29.82 33.83 C 28.20 34.34 27.65 33.79 28.17 32.17 Z" />
<path fill="#000000" opacity="1.00" d=" M 20.18 36.17 C 21.80 35.66 22.35 36.21 21.82 37.83 C 20.19 38.34 19.65 37.78 20.18 36.17 Z" />
<path fill="#000000" opacity="1.00" d=" M 25.14 38.12 C 27.54 37.08 29.23 40.87 26.78 41.83 C 24.47 42.94 22.85 39.19 25.14 38.12 Z" />
</g>
</svg>
