<?xml version="1.0" encoding="UTF-8" ?>
<!DOCTYPE svg PUBLIC "-//W3C//DTD SVG 1.1//EN" "http://www.w3.org/Graphics/SVG/1.1/DTD/svg11.dtd">
<svg width="64pt" height="64pt" viewBox="0 0 64 64" version="1.1" xmlns="http://www.w3.org/2000/svg">
<g id="#ffffffff">
<path fill="#ffffff" opacity="1.00" d=" M 0.00 0.00 L 64.00 0.00 L 64.00 64.00 L 0.00 64.00 L 0.00 0.00 M 26.47 6.60 C 17.79 8.43 10.33 15.04 7.46 23.44 C 4.32 32.17 6.39 42.52 12.68 49.35 C 18.90 56.41 29.12 59.58 38.24 57.22 C 47.66 54.97 55.39 47.04 57.38 37.56 C 59.43 28.61 56.24 18.76 49.37 12.69 C 43.30 7.13 34.50 4.81 26.47 6.60 Z" />
<path fill="#ffffff" opacity="1.00" d=" M 26.50 10.69 C 32.51 9.14 39.15 10.26 44.29 13.75 C 50.28 17.72 54.05 24.79 53.97 31.99 C 54.08 39.95 49.41 47.73 42.35 51.40 C 34.92 55.46 25.17 54.66 18.54 49.38 C 12.33 44.70 9.05 36.53 10.24 28.85 C 11.35 20.25 18.08 12.75 26.50 10.69 M 25.56 21.44 C 29.09 24.96 32.61 28.48 36.12 32.00 C 32.61 35.51 29.11 39.03 25.58 42.53 C 26.53 43.49 27.48 44.47 28.43 45.44 C 32.91 40.98 37.40 36.52 41.84 32.00 C 37.41 27.48 32.91 23.04 28.44 18.56 C 27.48 19.53 26.53 20.49 25.56 21.44 Z" />
</g>
<g id="#000000ff">
<path fill="#000000" opacity="1.00" d=" M 26.47 6.60 C 34.50 4.81 43.30 7.13 49.37 12.69 C 56.24 18.76 59.43 28.61 57.38 37.56 C 55.39 47.04 47.66 54.97 38.24 57.22 C 29.12 59.58 18.90 56.41 12.68 49.35 C 6.39 42.52 4.32 32.17 7.46 23.44 C 10.33 15.04 17.79 8.43 26.47 6.60 M 26.50 10.69 C 18.08 12.75 11.35 20.25 10.24 28.85 C 9.05 36.53 12.33 44.70 18.54 49.38 C 25.17 54.66 34.92 55.46 42.35 51.40 C 49.41 47.73 54.08 39.95 53.97 31.99 C 54.05 24.79 50.28 17.72 44.29 13.75 C 39.15 10.26 32.51 9.14 26.50 10.69 Z" />
<path fill="#000000" opacity="1.00" d=" M 25.56 21.44 C 26.53 20.49 27.48 19.53 28.44 18.56 C 32.91 23.04 37.41 27.48 41.84 32.00 C 37.40 36.52 32.91 40.98 28.43 45.44 C 27.48 44.47 26.53 43.49 25.58 42.53 C 29.11 39.03 32.61 35.51 36.12 32.00 C 32.61 28.48 29.09 24.96 25.56 21.44 Z" />
</g>
</svg>
