<?xml version="1.0" encoding="UTF-8" ?>
<!DOCTYPE svg PUBLIC "-//W3C//DTD SVG 1.1//EN" "http://www.w3.org/Graphics/SVG/1.1/DTD/svg11.dtd">
<svg width="64pt" height="64pt" viewBox="0 0 64 64" version="1.1" xmlns="http://www.w3.org/2000/svg">
<g id="#ffffffff">
<path fill="#ffffff" opacity="1.00" d=" M 0.00 0.00 L 64.00 0.00 L 64.00 64.00 L 0.00 64.00 L 0.00 0.00 M 10.01 12.00 C 10.00 25.33 10.00 38.67 10.00 52.00 C 16.20 52.00 22.40 52.00 28.60 52.00 C 28.60 47.64 28.60 43.27 28.60 38.91 C 31.49 43.28 34.40 47.63 37.29 52.00 C 42.86 52.00 48.43 52.00 54.00 52.00 C 54.00 38.67 54.00 25.33 54.00 12.00 C 47.81 12.00 41.62 12.00 35.43 12.00 C 35.42 16.33 35.43 20.67 35.42 25.00 C 32.56 20.66 29.68 16.33 26.81 12.00 C 21.21 12.00 15.61 12.00 10.01 12.00 Z" />
<path fill="#ffffff" opacity="1.00" d=" M 14.00 16.00 C 17.56 16.00 21.12 16.00 24.68 16.00 C 29.59 23.43 34.48 30.86 39.42 38.25 C 39.43 30.84 39.43 23.43 39.42 16.01 C 42.94 15.99 46.47 16.00 50.00 16.00 C 50.00 26.67 50.00 37.33 50.00 48.00 C 46.45 47.99 42.90 48.03 39.35 47.95 C 34.52 40.48 29.52 33.12 24.61 25.71 C 24.59 33.13 24.60 40.56 24.61 47.99 C 21.07 48.01 17.54 48.00 14.00 48.00 C 14.00 37.33 14.01 26.67 14.00 16.00 Z" />
</g>
<g id="#000000ff">
<path fill="#000000" opacity="1.00" d=" M 10.01 12.00 C 15.61 12.00 21.21 12.00 26.81 12.00 C 29.68 16.33 32.56 20.66 35.42 25.00 C 35.43 20.67 35.42 16.33 35.43 12.00 C 41.62 12.00 47.81 12.00 54.00 12.00 C 54.00 25.33 54.00 38.67 54.00 52.00 C 48.43 52.00 42.86 52.00 37.29 52.00 C 34.40 47.63 31.49 43.28 28.60 38.91 C 28.60 43.27 28.60 47.64 28.60 52.00 C 22.40 52.00 16.20 52.00 10.00 52.00 C 10.00 38.67 10.00 25.33 10.01 12.00 M 14.00 16.00 C 14.01 26.67 14.00 37.33 14.00 48.00 C 17.54 48.00 21.07 48.01 24.61 47.99 C 24.60 40.56 24.59 33.13 24.61 25.71 C 29.52 33.12 34.52 40.48 39.35 47.95 C 42.90 48.03 46.45 47.99 50.00 48.00 C 50.00 37.33 50.00 26.67 50.00 16.00 C 46.47 16.00 42.94 15.99 39.42 16.01 C 39.43 23.43 39.43 30.84 39.42 38.25 C 34.48 30.86 29.59 23.43 24.68 16.00 C 21.12 16.00 17.56 16.00 14.00 16.00 Z" />
</g>
</svg>
