<?xml version="1.0" encoding="UTF-8" ?>
<!DOCTYPE svg PUBLIC "-//W3C//DTD SVG 1.1//EN" "http://www.w3.org/Graphics/SVG/1.1/DTD/svg11.dtd">
<svg width="64pt" height="64pt" viewBox="0 0 64 64" version="1.1" xmlns="http://www.w3.org/2000/svg">
<g id="#ffffffff">
<path fill="#ffffff" opacity="1.00" d=" M 0.00 0.00 L 64.00 0.00 L 64.00 64.00 L 0.00 64.00 L 0.00 0.00 M 36.69 10.63 C 28.83 7.50 21.00 17.25 25.08 24.43 C 20.52 26.47 18.64 32.11 21.18 36.46 C 19.60 38.32 17.91 40.38 18.01 42.99 C 17.87 45.85 20.03 47.95 22.10 49.57 C 17.85 52.24 13.05 53.98 7.99 54.10 C 8.01 55.43 8.01 56.76 8.01 58.08 C 14.96 57.96 21.65 55.25 26.89 50.72 C 28.72 52.68 31.17 54.47 34.04 53.90 C 37.77 53.44 40.20 49.79 40.07 46.18 C 45.16 45.79 49.14 40.84 47.74 35.76 C 51.59 34.74 55.15 31.90 55.81 27.79 C 56.72 23.75 54.50 19.80 51.27 17.49 C 53.26 13.06 50.79 7.35 45.96 6.27 C 42.21 5.11 38.56 7.48 36.69 10.63 Z" />
<path fill="#ffffff" opacity="1.00" d=" M 39.72 13.66 C 40.61 11.28 43.05 9.02 45.71 10.38 C 48.41 11.53 48.42 14.99 46.87 17.10 C 47.11 18.08 47.35 19.06 47.61 20.04 C 50.29 21.25 52.63 23.91 51.89 27.06 C 51.41 30.52 47.84 32.33 44.60 32.07 C 44.07 33.06 43.53 34.04 42.99 35.03 C 43.81 36.65 44.57 38.72 43.25 40.32 C 42.15 42.13 39.92 42.00 38.10 41.75 C 37.27 42.47 36.45 43.20 35.62 43.92 C 35.77 45.76 36.60 48.31 34.63 49.50 C 32.99 50.62 30.89 49.68 30.08 48.02 C 30.89 46.03 32.60 44.57 33.75 42.79 C 38.78 35.45 41.91 26.99 43.98 18.39 C 42.68 18.14 41.39 17.89 40.10 17.63 C 37.60 27.47 33.87 37.37 26.97 45.01 C 25.48 47.11 21.81 45.51 22.04 43.03 C 21.94 41.13 23.38 39.78 24.56 38.51 C 24.73 37.80 25.06 36.36 25.23 35.64 C 24.52 33.98 23.40 32.10 24.37 30.29 C 25.06 28.47 27.11 28.18 28.74 27.72 C 29.17 26.72 29.59 25.72 30.02 24.72 C 27.33 21.97 27.28 16.93 30.84 14.89 C 33.58 12.79 37.01 15.85 39.72 13.66 Z" />
</g>
<g id="#000000ff">
<path fill="#000000" opacity="1.00" d=" M 36.69 10.63 C 38.56 7.48 42.21 5.11 45.96 6.27 C 50.79 7.35 53.26 13.06 51.27 17.49 C 54.50 19.80 56.72 23.75 55.81 27.79 C 55.15 31.90 51.59 34.74 47.74 35.76 C 49.14 40.84 45.16 45.79 40.07 46.18 C 40.20 49.79 37.77 53.44 34.04 53.90 C 31.17 54.47 28.72 52.68 26.89 50.72 C 21.65 55.25 14.96 57.96 8.01 58.08 C 8.01 56.76 8.01 55.43 7.99 54.10 C 13.05 53.98 17.85 52.24 22.10 49.57 C 20.03 47.95 17.87 45.85 18.01 42.99 C 17.91 40.38 19.60 38.32 21.18 36.46 C 18.64 32.11 20.52 26.47 25.08 24.43 C 21.00 17.25 28.83 7.50 36.69 10.63 M 39.72 13.66 C 37.01 15.85 33.58 12.79 30.84 14.89 C 27.28 16.93 27.33 21.97 30.02 24.72 C 29.59 25.72 29.17 26.72 28.74 27.72 C 27.11 28.18 25.06 28.47 24.37 30.29 C 23.40 32.10 24.52 33.98 25.23 35.64 C 25.06 36.36 24.73 37.80 24.56 38.51 C 23.38 39.78 21.94 41.13 22.04 43.03 C 21.81 45.51 25.48 47.11 26.97 45.01 C 33.87 37.37 37.60 27.47 40.10 17.63 C 41.39 17.89 42.68 18.14 43.98 18.39 C 41.91 26.99 38.78 35.45 33.75 42.79 C 32.60 44.57 30.89 46.03 30.08 48.02 C 30.89 49.68 32.99 50.62 34.63 49.50 C 36.60 48.31 35.77 45.76 35.62 43.92 C 36.45 43.20 37.27 42.47 38.10 41.75 C 39.92 42.00 42.15 42.13 43.25 40.32 C 44.57 38.72 43.81 36.65 42.99 35.03 C 43.53 34.04 44.07 33.06 44.60 32.07 C 47.84 32.33 51.41 30.52 51.89 27.06 C 52.63 23.91 50.29 21.25 47.61 20.04 C 47.35 19.06 47.11 18.08 46.87 17.10 C 48.42 14.99 48.41 11.53 45.71 10.38 C 43.05 9.02 40.61 11.28 39.72 13.66 Z" />
</g>
</svg>
