<?xml version="1.0" encoding="UTF-8" ?>
<!DOCTYPE svg PUBLIC "-//W3C//DTD SVG 1.1//EN" "http://www.w3.org/Graphics/SVG/1.1/DTD/svg11.dtd">
<svg width="64pt" height="64pt" viewBox="0 0 64 64" version="1.1" xmlns="http://www.w3.org/2000/svg">
<g id="#ffffffff">
<path fill="#ffffff" opacity="1.00" d=" M 0.00 0.00 L 64.00 0.00 L 64.00 64.00 L 0.00 64.00 L 0.00 0.00 M 10.00 10.00 C 10.00 14.00 10.00 18.00 10.00 22.00 C 11.33 22.00 12.67 22.00 14.00 22.00 C 14.00 19.33 14.00 16.67 14.00 14.00 C 16.67 14.00 19.33 14.00 22.00 14.00 C 22.00 12.67 22.00 11.33 22.00 10.00 C 18.00 10.00 14.00 10.00 10.00 10.00 M 42.00 10.00 C 42.00 11.33 42.00 12.67 42.00 14.00 C 44.67 14.00 47.33 14.00 50.00 14.00 C 50.00 16.67 50.00 19.33 50.00 22.00 C 51.33 22.00 52.66 22.00 54.00 22.00 C 54.00 18.00 54.00 14.00 54.00 10.00 C 50.00 10.00 46.00 10.00 42.00 10.00 M 30.46 20.02 C 28.41 25.76 26.22 31.46 24.19 37.21 C 23.76 39.44 24.09 41.74 24.01 44.00 C 25.34 44.00 26.67 44.00 28.00 44.00 C 28.00 42.67 28.00 41.33 28.00 40.00 C 30.67 40.00 33.33 40.00 36.00 40.00 C 36.00 41.33 36.00 42.67 36.00 44.00 C 37.33 44.00 38.66 44.00 39.99 44.00 C 39.91 41.73 40.25 39.41 39.80 37.18 C 37.77 31.44 35.59 25.75 33.54 20.02 C 32.51 20.02 31.49 20.02 30.46 20.02 M 10.00 42.00 C 10.00 46.00 10.00 50.00 10.00 54.00 C 14.00 54.00 18.00 54.00 22.00 54.00 C 22.00 52.67 22.00 51.33 22.00 50.00 C 19.33 50.00 16.67 50.00 14.00 50.00 C 14.00 47.33 14.00 44.67 14.00 42.00 C 12.67 42.00 11.33 42.00 10.00 42.00 M 50.00 42.00 C 50.00 44.67 50.00 47.33 50.00 50.00 C 47.33 50.00 44.67 50.00 42.00 50.00 C 42.00 51.33 42.00 52.67 42.00 54.00 C 46.00 54.00 50.00 54.00 54.00 54.00 C 54.00 50.00 54.00 46.00 54.00 42.00 C 52.67 42.00 51.33 42.00 50.00 42.00 Z" />
<path fill="#ffffff" opacity="1.00" d=" M 28.88 35.99 C 29.94 33.24 30.75 30.38 32.06 27.73 C 33.14 30.46 34.11 33.24 35.12 36.00 C 33.04 36.00 30.96 36.00 28.88 35.99 Z" />
</g>
<g id="#000000ff">
<path fill="#000000" opacity="1.00" d=" M 10.00 10.00 C 14.00 10.00 18.00 10.00 22.00 10.00 C 22.00 11.33 22.00 12.67 22.00 14.00 C 19.33 14.00 16.67 14.00 14.00 14.00 C 14.00 16.67 14.00 19.33 14.00 22.00 C 12.67 22.00 11.33 22.00 10.00 22.00 C 10.00 18.00 10.00 14.00 10.00 10.00 Z" />
<path fill="#000000" opacity="1.00" d=" M 42.00 10.00 C 46.00 10.00 50.00 10.00 54.00 10.00 C 54.00 14.00 54.00 18.00 54.00 22.00 C 52.66 22.00 51.33 22.00 50.00 22.00 C 50.00 19.33 50.00 16.67 50.00 14.00 C 47.33 14.00 44.67 14.00 42.00 14.00 C 42.00 12.67 42.00 11.33 42.00 10.00 Z" />
<path fill="#000000" opacity="1.00" d=" M 30.46 20.02 C 31.49 20.02 32.51 20.02 33.54 20.02 C 35.59 25.75 37.77 31.44 39.80 37.18 C 40.25 39.41 39.91 41.73 39.99 44.00 C 38.66 44.00 37.33 44.00 36.00 44.00 C 36.00 42.67 36.00 41.33 36.00 40.00 C 33.33 40.00 30.67 40.00 28.00 40.00 C 28.00 41.33 28.00 42.67 28.00 44.00 C 26.67 44.00 25.34 44.00 24.01 44.00 C 24.09 41.74 23.76 39.44 24.19 37.21 C 26.22 31.46 28.41 25.76 30.46 20.02 M 28.88 35.99 C 30.96 36.00 33.04 36.00 35.12 36.00 C 34.11 33.24 33.14 30.46 32.06 27.73 C 30.75 30.38 29.94 33.24 28.88 35.99 Z" />
<path fill="#000000" opacity="1.00" d=" M 10.00 42.00 C 11.33 42.00 12.67 42.00 14.00 42.00 C 14.00 44.67 14.00 47.33 14.00 50.00 C 16.67 50.00 19.33 50.00 22.00 50.00 C 22.00 51.33 22.00 52.67 22.00 54.00 C 18.00 54.00 14.00 54.00 10.00 54.00 C 10.00 50.00 10.00 46.00 10.00 42.00 Z" />
<path fill="#000000" opacity="1.00" d=" M 50.00 42.00 C 51.33 42.00 52.67 42.00 54.00 42.00 C 54.00 46.00 54.00 50.00 54.00 54.00 C 50.00 54.00 46.00 54.00 42.00 54.00 C 42.00 52.67 42.00 51.33 42.00 50.00 C 44.67 50.00 47.33 50.00 50.00 50.00 C 50.00 47.33 50.00 44.67 50.00 42.00 Z" />
</g>
</svg>
