<?xml version="1.0" encoding="UTF-8" ?>
<!DOCTYPE svg PUBLIC "-//W3C//DTD SVG 1.1//EN" "http://www.w3.org/Graphics/SVG/1.1/DTD/svg11.dtd">
<svg width="64pt" height="64pt" viewBox="0 0 64 64" version="1.1" xmlns="http://www.w3.org/2000/svg">
<g id="#ffffffff">
<path fill="#ffffff" opacity="1.00" d=" M 0.00 0.00 L 64.00 0.00 L 64.00 64.00 L 0.00 64.00 L 0.00 0.00 M 26.09 10.97 C 25.58 13.51 26.94 15.75 28.23 17.79 C 22.83 23.06 23.49 31.23 21.55 38.00 C 22.92 38.01 24.28 38.00 25.64 37.99 C 26.74 33.23 27.22 28.30 28.80 23.66 C 29.81 20.86 33.18 19.16 35.98 20.40 C 38.56 21.45 39.58 24.31 40.11 26.82 C 41.31 32.54 42.39 38.28 43.56 44.00 C 38.37 44.00 33.19 44.00 28.00 44.00 C 28.00 49.33 28.00 54.66 28.00 60.00 C 29.33 60.00 30.67 60.00 32.00 60.00 C 31.99 56.00 32.01 52.00 32.00 48.00 C 33.33 48.00 34.67 48.00 36.00 48.00 C 35.99 52.00 36.01 56.00 36.00 60.00 C 37.33 60.00 38.67 60.00 40.00 60.00 C 39.99 56.00 40.01 52.00 40.00 48.00 C 42.81 48.00 45.63 48.00 48.44 48.00 C 46.86 40.32 45.45 32.60 43.77 24.94 C 43.30 22.20 41.63 19.97 39.87 17.92 C 42.37 16.14 44.71 14.15 46.90 11.99 C 43.65 8.96 40.31 5.65 35.95 4.32 C 31.52 2.92 26.53 6.40 26.09 10.97 M 20.00 42.00 C 20.00 46.00 20.00 50.00 20.00 54.00 C 21.33 54.00 22.67 54.00 24.00 54.00 C 24.00 50.00 24.00 46.00 24.00 42.00 C 22.67 42.00 21.33 42.00 20.00 42.00 Z" />
<path fill="#ffffff" opacity="1.00" d=" M 30.01 11.98 C 29.94 10.15 31.42 8.60 33.08 8.06 C 36.29 7.80 38.70 10.37 41.16 12.00 C 39.14 13.38 37.27 15.14 34.86 15.82 C 32.51 16.60 29.89 14.39 30.01 11.98 Z" />
</g>
<g id="#000000ff">
<path fill="#000000" opacity="1.00" d=" M 26.09 10.97 C 26.53 6.40 31.52 2.92 35.95 4.32 C 40.31 5.65 43.65 8.96 46.90 11.99 C 44.71 14.15 42.37 16.14 39.87 17.92 C 41.63 19.97 43.30 22.20 43.77 24.94 C 45.45 32.60 46.86 40.32 48.44 48.00 C 45.63 48.00 42.81 48.00 40.00 48.00 C 40.01 52.00 39.99 56.00 40.00 60.00 C 38.67 60.00 37.33 60.00 36.00 60.00 C 36.01 56.00 35.99 52.00 36.00 48.00 C 34.67 48.00 33.33 48.00 32.00 48.00 C 32.01 52.00 31.99 56.00 32.00 60.00 C 30.67 60.00 29.33 60.00 28.00 60.00 C 28.00 54.66 28.00 49.33 28.00 44.00 C 33.19 44.00 38.37 44.00 43.56 44.00 C 42.39 38.28 41.31 32.54 40.11 26.82 C 39.58 24.31 38.56 21.45 35.98 20.40 C 33.18 19.16 29.81 20.86 28.80 23.66 C 27.22 28.30 26.74 33.23 25.64 37.99 C 24.28 38.00 22.92 38.01 21.55 38.00 C 23.49 31.23 22.83 23.06 28.23 17.79 C 26.94 15.75 25.58 13.51 26.09 10.97 M 30.01 11.98 C 29.89 14.39 32.51 16.60 34.86 15.82 C 37.27 15.14 39.14 13.38 41.16 12.00 C 38.70 10.37 36.29 7.80 33.08 8.06 C 31.42 8.60 29.94 10.15 30.01 11.98 Z" />
<path fill="#000000" opacity="1.00" d=" M 20.00 42.00 C 21.33 42.00 22.67 42.00 24.00 42.00 C 24.00 46.00 24.00 50.00 24.00 54.00 C 22.67 54.00 21.33 54.00 20.00 54.00 C 20.00 50.00 20.00 46.00 20.00 42.00 Z" />
</g>
</svg>
