<?xml version="1.0" encoding="UTF-8" ?>
<!DOCTYPE svg PUBLIC "-//W3C//DTD SVG 1.1//EN" "http://www.w3.org/Graphics/SVG/1.1/DTD/svg11.dtd">
<svg width="64pt" height="64pt" viewBox="0 0 64 64" version="1.1" xmlns="http://www.w3.org/2000/svg">
<g id="#ffffffff">
<path fill="#ffffff" opacity="1.00" d=" M 0.00 0.00 L 64.00 0.00 L 64.00 64.00 L 0.00 64.00 L 0.00 0.00 M 36.57 16.52 C 38.42 21.01 45.50 21.06 47.39 16.59 C 49.63 11.88 44.87 8.19 42.00 5.18 C 39.14 8.18 34.43 11.82 36.57 16.52 M 21.42 10.47 C 13.66 14.22 8.28 22.40 8.04 31.03 C 7.62 39.11 11.70 47.21 18.39 51.74 C 24.76 56.22 33.37 57.23 40.61 54.36 C 48.96 51.19 55.18 43.06 55.88 34.13 C 56.52 28.33 54.62 22.55 51.37 17.79 C 50.57 18.99 49.75 20.18 48.90 21.34 C 49.36 22.23 49.82 23.11 50.28 24.00 C 46.19 24.00 42.09 24.00 38.00 24.00 C 38.00 25.33 38.00 26.67 38.00 28.00 C 42.57 28.01 47.13 27.98 51.70 28.03 C 51.99 30.67 51.99 33.33 51.71 35.97 C 38.57 36.02 25.43 36.02 12.28 35.97 C 12.00 33.33 12.01 30.67 12.29 28.02 C 14.19 28.04 16.09 27.96 18.00 28.00 C 18.00 26.67 18.00 25.34 18.00 24.01 C 16.54 24.00 15.08 23.98 13.61 23.96 C 16.91 16.79 24.34 11.93 32.26 11.91 C 32.82 10.58 33.38 9.26 33.98 7.95 C 29.68 7.94 25.29 8.46 21.42 10.47 M 22.59 28.56 C 24.46 33.03 31.51 33.04 33.39 28.58 C 35.62 23.87 30.87 20.19 28.00 17.18 C 25.13 20.19 20.40 23.85 22.59 28.56 Z" />
<path fill="#ffffff" opacity="1.00" d=" M 39.75 14.25 C 40.46 13.08 41.21 11.94 42.00 10.82 C 42.79 11.93 43.54 13.07 44.24 14.24 C 43.30 16.42 40.69 16.39 39.75 14.25 Z" />
<path fill="#ffffff" opacity="1.00" d=" M 25.74 26.22 C 26.46 25.06 27.22 23.94 28.00 22.83 C 28.79 23.94 29.54 25.07 30.24 26.24 C 29.28 28.44 26.68 28.38 25.74 26.22 Z" />
<path fill="#ffffff" opacity="1.00" d=" M 13.61 40.04 C 15.07 40.01 16.54 39.99 18.00 39.99 C 18.00 41.39 18.00 42.79 17.99 44.18 C 15.44 44.44 14.73 41.74 13.61 40.04 Z" />
<path fill="#ffffff" opacity="1.00" d=" M 22.00 40.00 C 23.33 40.00 24.67 40.00 26.00 40.00 C 26.00 41.33 26.00 42.67 26.00 44.00 C 24.67 44.00 23.33 44.00 22.00 44.00 C 22.00 42.67 22.00 41.33 22.00 40.00 Z" />
<path fill="#ffffff" opacity="1.00" d=" M 30.00 40.00 C 31.33 40.00 32.67 40.00 34.00 40.00 C 34.00 41.33 34.00 42.67 34.00 44.00 C 32.67 44.00 31.33 44.00 30.00 44.00 C 30.00 42.67 30.00 41.33 30.00 40.00 Z" />
<path fill="#ffffff" opacity="1.00" d=" M 38.00 40.00 C 39.33 40.00 40.67 40.00 42.00 40.00 C 42.00 41.33 42.00 42.67 42.00 44.00 C 40.67 44.00 39.33 44.00 38.00 44.00 C 38.00 42.67 38.00 41.33 38.00 40.00 Z" />
<path fill="#ffffff" opacity="1.00" d=" M 46.00 39.99 C 47.46 39.99 48.93 40.01 50.39 40.04 C 49.27 41.74 48.56 44.44 46.01 44.18 C 46.00 42.79 45.99 41.39 46.00 39.99 Z" />
<path fill="#ffffff" opacity="1.00" d=" M 21.67 48.03 C 23.12 48.00 24.57 47.99 26.02 48.00 C 26.00 48.79 25.98 50.37 25.96 51.16 C 24.39 50.34 22.19 50.03 21.67 48.03 Z" />
<path fill="#ffffff" opacity="1.00" d=" M 29.99 48.00 C 31.33 48.00 32.67 48.00 34.01 48.00 C 34.01 49.32 33.99 50.64 33.97 51.96 C 32.65 51.98 31.34 51.98 30.03 51.96 C 30.01 50.64 29.99 49.32 29.99 48.00 Z" />
<path fill="#ffffff" opacity="1.00" d=" M 37.98 48.00 C 39.43 47.99 40.88 48.00 42.33 48.03 C 41.81 50.03 39.61 50.34 38.04 51.16 C 38.02 50.37 38.00 48.79 37.98 48.00 Z" />
</g>
<g id="#000000ff">
<path fill="#000000" opacity="1.00" d=" M 36.57 16.52 C 34.43 11.82 39.14 8.18 42.00 5.18 C 44.87 8.19 49.63 11.88 47.39 16.59 C 45.50 21.06 38.42 21.01 36.57 16.52 M 39.75 14.25 C 40.69 16.39 43.30 16.42 44.24 14.24 C 43.54 13.07 42.79 11.93 42.00 10.82 C 41.21 11.94 40.46 13.08 39.75 14.25 Z" />
<path fill="#000000" opacity="1.00" d=" M 21.42 10.47 C 25.29 8.46 29.68 7.94 33.98 7.95 C 33.38 9.26 32.82 10.58 32.26 11.91 C 24.34 11.93 16.91 16.79 13.61 23.96 C 15.08 23.98 16.54 24.00 18.00 24.01 C 18.00 25.34 18.00 26.67 18.00 28.00 C 16.09 27.96 14.19 28.04 12.29 28.02 C 12.01 30.67 12.00 33.33 12.28 35.97 C 25.43 36.02 38.57 36.02 51.71 35.97 C 51.99 33.33 51.99 30.67 51.70 28.03 C 47.13 27.98 42.57 28.01 38.00 28.00 C 38.00 26.67 38.00 25.33 38.00 24.00 C 42.09 24.00 46.19 24.00 50.28 24.00 C 49.82 23.11 49.36 22.23 48.90 21.34 C 49.75 20.18 50.57 18.99 51.37 17.79 C 54.62 22.55 56.52 28.33 55.88 34.13 C 55.18 43.06 48.96 51.19 40.61 54.36 C 33.37 57.23 24.76 56.22 18.39 51.74 C 11.70 47.21 7.62 39.11 8.04 31.03 C 8.28 22.40 13.66 14.22 21.42 10.47 M 13.61 40.04 C 14.73 41.74 15.44 44.44 17.99 44.18 C 18.00 42.79 18.00 41.39 18.00 39.99 C 16.54 39.99 15.07 40.01 13.61 40.04 M 22.00 40.00 C 22.00 41.33 22.00 42.67 22.00 44.00 C 23.33 44.00 24.67 44.00 26.00 44.00 C 26.00 42.67 26.00 41.33 26.00 40.00 C 24.67 40.00 23.33 40.00 22.00 40.00 M 30.00 40.00 C 30.00 41.33 30.00 42.67 30.00 44.00 C 31.33 44.00 32.67 44.00 34.00 44.00 C 34.00 42.67 34.00 41.33 34.00 40.00 C 32.67 40.00 31.33 40.00 30.00 40.00 M 38.00 40.00 C 38.00 41.33 38.00 42.67 38.00 44.00 C 39.33 44.00 40.67 44.00 42.00 44.00 C 42.00 42.67 42.00 41.33 42.00 40.00 C 40.67 40.00 39.33 40.00 38.00 40.00 M 46.00 39.99 C 45.99 41.39 46.00 42.79 46.01 44.18 C 48.56 44.44 49.27 41.74 50.39 40.04 C 48.93 40.01 47.46 39.99 46.00 39.99 M 21.67 48.03 C 22.19 50.03 24.39 50.34 25.96 51.16 C 25.98 50.37 26.00 48.79 26.02 48.00 C 24.57 47.99 23.12 48.00 21.67 48.03 M 29.99 48.00 C 29.99 49.32 30.01 50.64 30.03 51.96 C 31.34 51.98 32.65 51.98 33.97 51.96 C 33.99 50.64 34.01 49.32 34.01 48.00 C 32.67 48.00 31.33 48.00 29.99 48.00 M 37.98 48.00 C 38.00 48.79 38.02 50.37 38.04 51.16 C 39.61 50.34 41.81 50.03 42.33 48.03 C 40.88 48.00 39.43 47.99 37.98 48.00 Z" />
<path fill="#000000" opacity="1.00" d=" M 22.59 28.56 C 20.40 23.85 25.13 20.19 28.00 17.18 C 30.87 20.19 35.62 23.87 33.39 28.58 C 31.51 33.04 24.46 33.03 22.59 28.56 M 25.74 26.22 C 26.68 28.38 29.28 28.44 30.24 26.24 C 29.54 25.07 28.79 23.94 28.00 22.83 C 27.22 23.94 26.46 25.06 25.74 26.22 Z" />
</g>
</svg>
