<?xml version="1.0" encoding="UTF-8" ?>
<!DOCTYPE svg PUBLIC "-//W3C//DTD SVG 1.1//EN" "http://www.w3.org/Graphics/SVG/1.1/DTD/svg11.dtd">
<svg width="64pt" height="64pt" viewBox="0 0 64 64" version="1.1" xmlns="http://www.w3.org/2000/svg">
<g id="#ffffffff">
<path fill="#ffffff" opacity="1.00" d=" M 0.00 0.00 L 64.00 0.00 L 64.00 64.00 L 0.00 64.00 L 0.00 0.00 M 14.38 12.60 C 9.55 14.09 5.98 18.85 6.04 23.93 C 6.00 29.65 5.87 35.38 6.12 41.10 C 6.48 47.47 12.77 52.61 19.07 51.91 C 25.04 51.50 30.06 46.02 29.96 40.03 C 30.00 34.34 30.12 28.62 29.89 22.93 C 29.51 15.59 21.33 10.08 14.38 12.60 M 34.00 12.00 C 34.00 25.33 34.00 38.67 34.00 52.00 C 35.33 52.00 36.67 52.00 38.00 52.00 C 38.08 47.60 37.84 43.19 38.09 38.79 C 39.24 36.55 40.91 34.64 42.33 32.58 C 46.00 39.06 49.75 45.48 53.40 51.97 C 54.93 51.97 56.47 51.98 58.01 52.01 C 53.62 44.33 49.25 36.65 44.87 28.98 C 48.88 23.32 52.87 17.65 56.91 12.01 C 55.27 12.01 53.64 12.00 52.01 11.99 C 47.33 18.57 42.69 25.16 38.00 31.72 C 38.00 25.15 38.00 18.57 38.00 12.00 C 36.67 12.00 35.33 12.00 34.00 12.00 Z" />
<path fill="#ffffff" opacity="1.00" d=" M 15.31 16.47 C 19.83 14.68 25.43 18.01 25.87 22.88 C 26.15 28.60 25.99 34.35 25.96 40.08 C 26.04 43.94 22.90 47.48 19.07 47.91 C 14.49 48.68 9.87 44.72 10.04 40.06 C 9.96 34.68 9.96 29.29 10.04 23.91 C 9.99 20.63 12.21 17.51 15.31 16.47 Z" />
</g>
<g id="#000000ff">
<path fill="#000000" opacity="1.00" d=" M 14.38 12.60 C 21.33 10.08 29.51 15.59 29.89 22.93 C 30.12 28.62 30.00 34.34 29.96 40.03 C 30.06 46.02 25.04 51.50 19.07 51.91 C 12.77 52.61 6.48 47.47 6.12 41.10 C 5.87 35.38 6.00 29.65 6.04 23.93 C 5.98 18.85 9.55 14.09 14.38 12.60 M 15.31 16.47 C 12.21 17.51 9.99 20.63 10.04 23.91 C 9.96 29.29 9.96 34.68 10.04 40.06 C 9.87 44.72 14.49 48.68 19.07 47.91 C 22.90 47.48 26.04 43.94 25.96 40.08 C 25.99 34.35 26.15 28.60 25.87 22.88 C 25.43 18.01 19.83 14.68 15.31 16.47 Z" />
<path fill="#000000" opacity="1.00" d=" M 34.00 12.00 C 35.33 12.00 36.67 12.00 38.00 12.00 C 38.00 18.57 38.00 25.15 38.00 31.72 C 42.69 25.16 47.33 18.57 52.01 11.99 C 53.64 12.00 55.27 12.01 56.91 12.01 C 52.87 17.65 48.88 23.32 44.87 28.98 C 49.25 36.65 53.62 44.33 58.01 52.01 C 56.47 51.98 54.93 51.97 53.40 51.97 C 49.75 45.48 46.00 39.06 42.33 32.58 C 40.91 34.64 39.24 36.55 38.09 38.79 C 37.84 43.19 38.08 47.60 38.00 52.00 C 36.67 52.00 35.33 52.00 34.00 52.00 C 34.00 38.67 34.00 25.33 34.00 12.00 Z" />
</g>
</svg>
