<?xml version="1.0" encoding="UTF-8" ?>
<!DOCTYPE svg PUBLIC "-//W3C//DTD SVG 1.1//EN" "http://www.w3.org/Graphics/SVG/1.1/DTD/svg11.dtd">
<svg width="64pt" height="64pt" viewBox="0 0 64 64" version="1.1" xmlns="http://www.w3.org/2000/svg">
<g id="#ffffffff">
<path fill="#ffffff" opacity="1.00" d=" M 0.00 0.00 L 64.00 0.00 L 64.00 64.00 L 0.00 64.00 L 0.00 0.00 M 16.01 12.95 C 11.35 17.67 9.64 24.44 9.92 30.91 C 8.41 33.15 7.29 36.01 8.52 38.64 C 9.44 41.29 12.71 42.15 13.46 44.89 C 16.28 52.87 24.60 58.52 33.08 57.95 C 38.91 57.76 44.27 54.64 47.92 50.19 C 53.25 49.96 55.71 44.89 57.85 40.81 C 58.13 36.93 58.12 33.01 57.84 29.13 C 57.74 27.05 55.59 26.33 53.95 25.77 C 52.98 18.38 48.41 11.48 41.62 8.25 C 33.25 3.97 22.32 6.02 16.01 12.95 Z" />
<path fill="#ffffff" opacity="1.00" d=" M 13.93 25.49 C 15.53 17.01 23.14 9.79 31.99 10.03 C 40.42 9.87 47.90 16.38 49.71 24.48 C 47.24 23.94 44.58 23.83 42.33 22.58 C 40.20 21.11 40.27 18.27 39.87 16.00 C 38.62 16.00 37.37 16.00 36.12 16.00 C 35.81 18.52 35.45 21.65 32.75 22.77 C 26.76 25.30 19.88 22.66 13.93 25.49 Z" />
<path fill="#ffffff" opacity="1.00" d=" M 16.12 28.95 C 23.19 26.66 32.20 30.10 37.80 23.82 C 40.31 26.90 44.27 27.72 48.00 28.22 C 48.00 33.46 48.00 38.71 48.00 43.96 C 48.93 44.00 50.79 44.08 51.72 44.12 C 50.62 44.92 49.56 46.07 48.06 45.95 C 44.05 46.13 40.03 45.93 36.01 46.01 C 35.36 45.31 34.70 44.61 34.06 43.90 C 30.83 43.29 28.41 47.59 31.39 49.51 C 35.01 50.58 38.95 49.70 42.69 50.09 C 37.74 54.13 30.45 55.29 24.74 52.17 C 20.12 49.89 17.23 45.27 16.03 40.38 C 14.49 39.55 12.34 38.90 12.10 36.85 C 11.47 34.28 13.71 32.37 15.95 31.75 C 15.99 31.05 16.08 29.65 16.12 28.95 M 23.36 32.50 C 21.34 33.70 21.72 37.23 24.07 37.79 C 26.20 38.74 28.71 36.25 27.81 34.11 C 27.37 32.24 24.90 31.43 23.36 32.50 M 37.41 32.47 C 35.30 33.65 35.72 37.29 38.13 37.82 C 40.26 38.69 42.69 36.23 41.81 34.11 C 41.38 32.27 38.96 31.44 37.41 32.47 Z" />
<path fill="#ffffff" opacity="1.00" d=" M 52.00 30.00 C 52.50 30.00 53.50 30.00 54.00 30.00 C 54.00 33.33 54.00 36.67 54.00 40.00 C 53.50 40.00 52.50 40.00 52.00 40.00 C 52.00 36.67 52.00 33.33 52.00 30.00 Z" />
</g>
<g id="#000000ff">
<path fill="#000000" opacity="1.00" d=" M 16.01 12.95 C 22.32 6.02 33.25 3.97 41.62 8.25 C 48.41 11.48 52.98 18.38 53.95 25.77 C 55.59 26.33 57.74 27.05 57.84 29.13 C 58.12 33.01 58.13 36.93 57.85 40.81 C 55.71 44.89 53.25 49.96 47.92 50.19 C 44.27 54.64 38.91 57.76 33.08 57.95 C 24.60 58.52 16.28 52.87 13.46 44.89 C 12.71 42.15 9.44 41.29 8.52 38.64 C 7.29 36.01 8.41 33.15 9.92 30.91 C 9.64 24.44 11.35 17.67 16.01 12.95 M 13.93 25.49 C 19.88 22.66 26.76 25.30 32.75 22.77 C 35.45 21.65 35.81 18.52 36.12 16.00 C 37.37 16.00 38.62 16.00 39.87 16.00 C 40.27 18.27 40.20 21.11 42.33 22.58 C 44.58 23.83 47.24 23.94 49.71 24.48 C 47.90 16.38 40.42 9.87 31.99 10.03 C 23.14 9.79 15.53 17.01 13.93 25.49 M 16.12 28.95 C 16.08 29.65 15.99 31.05 15.95 31.75 C 13.71 32.37 11.47 34.28 12.10 36.85 C 12.34 38.90 14.49 39.55 16.03 40.38 C 17.23 45.27 20.12 49.89 24.74 52.17 C 30.45 55.29 37.74 54.13 42.69 50.09 C 38.95 49.70 35.01 50.58 31.39 49.51 C 28.41 47.59 30.83 43.29 34.06 43.90 C 34.70 44.61 35.36 45.31 36.01 46.01 C 40.03 45.93 44.05 46.13 48.06 45.95 C 49.56 46.07 50.62 44.92 51.72 44.12 C 50.79 44.08 48.93 44.00 48.00 43.96 C 48.00 38.71 48.00 33.46 48.00 28.22 C 44.27 27.72 40.31 26.90 37.80 23.82 C 32.20 30.10 23.19 26.66 16.12 28.95 M 52.00 30.00 C 52.00 33.33 52.00 36.67 52.00 40.00 C 52.50 40.00 53.50 40.00 54.00 40.00 C 54.00 36.67 54.00 33.33 54.00 30.00 C 53.50 30.00 52.50 30.00 52.00 30.00 Z" />
<path fill="#000000" opacity="1.00" d=" M 23.36 32.50 C 24.90 31.43 27.37 32.24 27.81 34.11 C 28.71 36.25 26.20 38.74 24.07 37.79 C 21.72 37.23 21.34 33.70 23.36 32.50 Z" />
<path fill="#000000" opacity="1.00" d=" M 37.41 32.47 C 38.96 31.44 41.38 32.27 41.81 34.11 C 42.69 36.23 40.26 38.69 38.13 37.82 C 35.72 37.29 35.30 33.65 37.41 32.47 Z" />
</g>
</svg>
