<?xml version="1.0" encoding="UTF-8" ?>
<!DOCTYPE svg PUBLIC "-//W3C//DTD SVG 1.1//EN" "http://www.w3.org/Graphics/SVG/1.1/DTD/svg11.dtd">
<svg width="64pt" height="64pt" viewBox="0 0 64 64" version="1.1" xmlns="http://www.w3.org/2000/svg">
<g id="#ffffffff">
<path fill="#ffffff" opacity="1.00" d=" M 0.00 0.00 L 64.00 0.00 L 64.00 64.00 L 0.00 64.00 L 0.00 0.00 M 6.60 16.58 C 7.55 17.52 8.49 18.46 9.44 19.40 C 10.95 17.89 12.47 16.37 13.99 14.85 C 14.01 23.99 14.00 33.12 13.99 42.26 C 11.00 43.47 9.13 46.85 10.32 50.00 C 11.51 54.16 17.44 55.30 20.32 52.24 C 23.35 49.24 22.04 43.68 18.02 42.27 C 17.98 33.12 18.01 23.97 18.00 14.82 C 19.53 16.36 21.07 17.88 22.61 19.41 C 23.54 18.46 24.48 17.51 25.41 16.56 C 22.26 13.44 19.16 10.28 16.00 7.18 C 12.87 10.32 9.73 13.45 6.60 16.58 M 47.41 38.59 C 46.47 39.53 45.53 40.46 44.59 41.40 C 46.11 42.93 47.64 44.47 49.16 45.99 C 46.78 46.00 44.39 46.00 42.00 46.00 C 42.00 47.33 42.00 48.67 42.00 50.00 C 44.39 50.00 46.78 50.00 49.16 50.01 C 47.64 51.53 46.12 53.05 44.59 54.56 C 45.55 55.51 46.50 56.46 47.45 57.41 C 50.56 54.26 53.70 51.13 56.82 48.00 C 53.68 44.87 50.56 41.71 47.41 38.59 M 26.00 46.00 C 26.00 47.33 26.00 48.67 26.00 50.00 C 27.33 50.00 28.67 50.00 30.00 50.00 C 30.00 48.67 30.00 47.33 30.00 46.00 C 28.67 46.00 27.33 46.00 26.00 46.00 M 34.00 46.00 C 34.00 47.33 34.00 48.67 34.00 50.00 C 35.33 50.00 36.67 50.00 38.00 50.00 C 38.00 48.67 38.00 47.33 38.00 46.00 C 36.67 46.00 35.33 46.00 34.00 46.00 Z" />
<path fill="#ffffff" opacity="1.00" d=" M 15.21 46.14 C 17.61 44.90 19.23 49.05 16.80 49.85 C 14.38 51.11 12.77 46.94 15.21 46.14 Z" />
</g>
<g id="#000000ff">
<path fill="#000000" opacity="1.00" d=" M 6.60 16.58 C 9.73 13.45 12.87 10.32 16.00 7.18 C 19.16 10.28 22.26 13.44 25.41 16.56 C 24.48 17.51 23.54 18.46 22.61 19.41 C 21.07 17.88 19.53 16.36 18.00 14.82 C 18.01 23.97 17.98 33.12 18.02 42.27 C 22.04 43.68 23.35 49.24 20.32 52.24 C 17.44 55.30 11.51 54.16 10.32 50.00 C 9.13 46.85 11.00 43.47 13.99 42.26 C 14.00 33.12 14.01 23.99 13.99 14.85 C 12.47 16.37 10.95 17.89 9.44 19.40 C 8.49 18.46 7.55 17.52 6.60 16.58 M 15.21 46.14 C 12.77 46.94 14.38 51.11 16.80 49.85 C 19.23 49.05 17.61 44.90 15.21 46.14 Z" />
<path fill="#000000" opacity="1.00" d=" M 47.41 38.59 C 50.56 41.71 53.68 44.87 56.82 48.00 C 53.70 51.13 50.56 54.26 47.45 57.41 C 46.50 56.46 45.55 55.51 44.59 54.56 C 46.12 53.05 47.64 51.53 49.16 50.01 C 46.78 50.00 44.39 50.00 42.00 50.00 C 42.00 48.67 42.00 47.33 42.00 46.00 C 44.39 46.00 46.78 46.00 49.16 45.99 C 47.64 44.47 46.11 42.93 44.59 41.40 C 45.53 40.46 46.47 39.53 47.41 38.59 Z" />
<path fill="#000000" opacity="1.00" d=" M 26.00 46.00 C 27.33 46.00 28.67 46.00 30.00 46.00 C 30.00 47.33 30.00 48.67 30.00 50.00 C 28.67 50.00 27.33 50.00 26.00 50.00 C 26.00 48.67 26.00 47.33 26.00 46.00 Z" />
<path fill="#000000" opacity="1.00" d=" M 34.00 46.00 C 35.33 46.00 36.67 46.00 38.00 46.00 C 38.00 47.33 38.00 48.67 38.00 50.00 C 36.67 50.00 35.33 50.00 34.00 50.00 C 34.00 48.67 34.00 47.33 34.00 46.00 Z" />
</g>
</svg>
