<?xml version="1.0" encoding="UTF-8" ?>
<!DOCTYPE svg PUBLIC "-//W3C//DTD SVG 1.1//EN" "http://www.w3.org/Graphics/SVG/1.1/DTD/svg11.dtd">
<svg width="64pt" height="64pt" viewBox="0 0 64 64" version="1.1" xmlns="http://www.w3.org/2000/svg">
<g id="#ffffffff">
<path fill="#ffffff" opacity="1.00" d=" M 0.00 0.00 L 64.00 0.00 L 64.00 64.00 L 0.00 64.00 L 0.00 0.00 M 22.00 10.87 C 23.71 12.58 25.41 14.28 27.11 15.99 C 20.74 16.01 14.37 16.00 8.00 16.00 C 8.00 20.00 8.00 23.99 8.00 27.99 C 8.50 27.99 9.50 28.01 10.00 28.01 C 10.00 37.34 10.00 46.67 10.00 56.00 C 24.67 56.00 39.33 56.00 54.00 56.00 C 54.00 46.67 54.00 37.34 54.00 28.01 C 54.50 28.01 55.50 27.99 56.00 27.99 C 56.00 23.99 56.00 20.00 56.00 16.00 C 49.63 15.99 43.25 16.01 36.88 15.99 C 38.59 14.27 40.30 12.54 42.01 10.83 C 41.07 9.88 40.13 8.94 39.19 8.00 C 36.80 10.37 34.43 12.76 32.01 15.10 C 29.64 12.74 27.27 10.38 24.91 8.01 C 23.94 8.96 22.97 9.92 22.00 10.87 Z" />
<path fill="#ffffff" opacity="1.00" d=" M 12.00 20.00 C 18.00 20.00 24.00 20.00 30.00 20.00 C 30.00 21.33 30.00 22.67 30.00 24.00 C 24.00 24.00 18.00 24.00 12.00 24.00 C 12.00 22.67 12.00 21.33 12.00 20.00 Z" />
<path fill="#ffffff" opacity="1.00" d=" M 34.00 20.00 C 40.00 20.00 46.00 20.00 52.00 20.00 C 52.00 21.33 52.00 22.67 52.00 24.00 C 46.00 24.00 40.00 24.00 34.00 24.00 C 34.00 22.67 34.00 21.33 34.00 20.00 Z" />
<path fill="#ffffff" opacity="1.00" d=" M 14.00 28.00 C 19.33 28.00 24.67 28.00 30.00 28.00 C 30.00 36.00 30.00 44.00 30.00 52.00 C 24.67 52.00 19.33 52.00 14.00 52.00 C 14.00 44.00 14.00 36.00 14.00 28.00 Z" />
<path fill="#ffffff" opacity="1.00" d=" M 34.00 28.00 C 39.33 28.00 44.67 28.00 50.00 28.00 C 50.00 36.00 50.00 44.00 50.00 52.00 C 44.67 52.00 39.33 52.00 34.00 52.00 C 34.00 44.00 34.00 36.00 34.00 28.00 Z" />
</g>
<g id="#000000ff">
<path fill="#000000" opacity="1.00" d=" M 22.00 10.87 C 22.97 9.92 23.94 8.96 24.91 8.01 C 27.27 10.38 29.64 12.74 32.01 15.10 C 34.43 12.76 36.80 10.37 39.19 8.00 C 40.13 8.94 41.07 9.88 42.01 10.83 C 40.30 12.54 38.59 14.27 36.88 15.99 C 43.25 16.01 49.63 15.99 56.00 16.00 C 56.00 20.00 56.00 23.99 56.00 27.99 C 55.50 27.99 54.50 28.01 54.00 28.01 C 54.00 37.34 54.00 46.67 54.00 56.00 C 39.33 56.00 24.67 56.00 10.00 56.00 C 10.00 46.67 10.00 37.34 10.00 28.01 C 9.50 28.01 8.50 27.99 8.00 27.99 C 8.00 23.99 8.00 20.00 8.00 16.00 C 14.37 16.00 20.74 16.01 27.11 15.99 C 25.41 14.28 23.71 12.58 22.00 10.87 M 12.00 20.00 C 12.00 21.33 12.00 22.67 12.00 24.00 C 18.00 24.00 24.00 24.00 30.00 24.00 C 30.00 22.67 30.00 21.33 30.00 20.00 C 24.00 20.00 18.00 20.00 12.00 20.00 M 34.00 20.00 C 34.00 21.33 34.00 22.67 34.00 24.00 C 40.00 24.00 46.00 24.00 52.00 24.00 C 52.00 22.67 52.00 21.33 52.00 20.00 C 46.00 20.00 40.00 20.00 34.00 20.00 M 14.00 28.00 C 14.00 36.00 14.00 44.00 14.00 52.00 C 19.33 52.00 24.67 52.00 30.00 52.00 C 30.00 44.00 30.00 36.00 30.00 28.00 C 24.67 28.00 19.33 28.00 14.00 28.00 M 34.00 28.00 C 34.00 36.00 34.00 44.00 34.00 52.00 C 39.33 52.00 44.67 52.00 50.00 52.00 C 50.00 44.00 50.00 36.00 50.00 28.00 C 44.67 28.00 39.33 28.00 34.00 28.00 Z" />
</g>
</svg>
