<?xml version="1.0" encoding="UTF-8" ?>
<!DOCTYPE svg PUBLIC "-//W3C//DTD SVG 1.1//EN" "http://www.w3.org/Graphics/SVG/1.1/DTD/svg11.dtd">
<svg width="64pt" height="64pt" viewBox="0 0 64 64" version="1.1" xmlns="http://www.w3.org/2000/svg">
<g id="#ffffffff">
<path fill="#ffffff" opacity="1.00" d=" M 0.00 0.00 L 64.00 0.00 L 64.00 64.00 L 0.00 64.00 L 0.00 0.00 M 12.22 26.18 C 7.06 28.82 3.93 34.26 3.68 39.99 C 10.14 39.94 16.60 40.12 23.05 39.93 C 26.39 39.87 29.36 38.22 32.00 36.33 C 34.63 38.21 37.59 39.86 40.91 39.93 C 47.38 40.13 53.85 39.94 60.32 39.99 C 59.88 36.58 59.18 32.99 56.81 30.34 C 52.49 25.14 45.57 23.27 39.13 22.44 C 30.10 21.56 20.41 21.86 12.22 26.18 Z" />
<path fill="#ffffff" opacity="1.00" d=" M 8.72 35.95 C 11.38 29.50 18.60 27.26 24.94 26.47 C 32.91 25.61 41.37 25.79 48.79 29.15 C 51.83 30.42 53.80 33.12 55.27 35.95 C 48.10 35.32 38.93 38.36 33.59 32.02 C 32.53 32.02 31.46 32.02 30.40 32.02 C 28.60 34.20 26.02 35.68 23.18 35.87 C 18.37 36.19 13.54 35.95 8.72 35.95 Z" />
</g>
<g id="#000000ff">
<path fill="#000000" opacity="1.00" d=" M 12.22 26.18 C 20.41 21.86 30.10 21.56 39.13 22.44 C 45.57 23.27 52.49 25.14 56.81 30.34 C 59.18 32.99 59.88 36.58 60.32 39.99 C 53.85 39.94 47.38 40.13 40.91 39.93 C 37.59 39.86 34.63 38.21 32.00 36.33 C 29.36 38.22 26.39 39.87 23.05 39.93 C 16.60 40.12 10.14 39.94 3.68 39.99 C 3.93 34.26 7.06 28.82 12.22 26.18 M 8.72 35.95 C 13.54 35.95 18.37 36.19 23.18 35.87 C 26.02 35.68 28.60 34.20 30.40 32.02 C 31.46 32.02 32.53 32.02 33.59 32.02 C 38.93 38.36 48.10 35.32 55.27 35.95 C 53.80 33.12 51.83 30.42 48.79 29.15 C 41.37 25.79 32.91 25.61 24.94 26.47 C 18.60 27.26 11.38 29.50 8.72 35.95 Z" />
</g>
</svg>
