<?xml version="1.0" encoding="UTF-8" ?>
<!DOCTYPE svg PUBLIC "-//W3C//DTD SVG 1.1//EN" "http://www.w3.org/Graphics/SVG/1.1/DTD/svg11.dtd">
<svg width="64pt" height="64pt" viewBox="0 0 64 64" version="1.1" xmlns="http://www.w3.org/2000/svg">
<g id="#ffffffff">
<path fill="#ffffff" opacity="1.00" d=" M 0.00 0.00 L 64.00 0.00 L 64.00 64.00 L 0.00 64.00 L 0.00 0.00 M 17.18 7.93 C 14.06 11.08 10.91 14.20 7.79 17.34 C 9.18 23.07 10.64 28.78 12.06 34.50 C 13.35 34.17 14.65 33.83 15.94 33.50 C 14.83 29.02 13.70 24.54 12.63 20.05 C 25.76 21.59 38.57 29.80 43.45 42.41 C 40.51 42.95 37.57 43.48 34.63 44.00 C 34.85 45.31 35.08 46.63 35.31 47.94 C 39.15 47.15 43.10 46.82 46.88 45.77 C 50.25 43.00 53.06 39.62 56.24 36.64 C 52.56 19.09 34.26 8.14 17.18 7.93 M 23.39 30.61 C 19.20 32.41 18.89 38.94 22.90 41.11 C 26.64 43.65 32.18 40.44 31.99 35.98 C 32.12 31.77 27.14 28.57 23.39 30.61 M 12.76 37.00 C 13.42 39.25 14.08 41.51 14.71 43.77 C 13.34 45.95 11.41 48.31 12.18 51.08 C 12.79 54.47 16.61 56.83 19.91 55.74 C 22.66 55.06 23.79 52.22 25.52 50.30 C 27.77 49.28 30.30 49.11 32.69 48.57 C 32.49 47.58 32.08 45.61 31.87 44.62 C 29.57 45.10 27.28 45.66 24.94 45.93 C 22.64 45.08 20.63 43.59 18.51 42.38 C 17.86 40.21 17.21 38.05 16.56 35.88 C 15.29 36.25 14.02 36.62 12.76 37.00 Z" />
<path fill="#ffffff" opacity="1.00" d=" M 14.60 16.26 C 16.02 14.87 17.31 13.28 18.98 12.17 C 32.98 12.83 47.55 21.43 51.75 35.38 C 50.11 37.00 48.48 38.63 46.86 40.28 C 41.52 27.12 28.39 18.33 14.60 16.26 Z" />
<path fill="#ffffff" opacity="1.00" d=" M 25.25 34.19 C 27.51 32.96 29.25 37.00 26.78 37.82 C 24.46 39.05 22.75 34.95 25.25 34.19 Z" />
<path fill="#ffffff" opacity="1.00" d=" M 17.26 51.85 C 14.93 50.58 16.62 48.08 17.59 46.51 C 18.95 47.32 20.31 48.13 21.67 48.95 C 20.39 50.18 19.49 52.83 17.26 51.85 Z" />
</g>
<g id="#000000ff">
<path fill="#000000" opacity="1.00" d=" M 17.18 7.93 C 34.26 8.14 52.56 19.09 56.24 36.64 C 53.06 39.62 50.25 43.00 46.88 45.77 C 43.10 46.82 39.15 47.15 35.31 47.94 C 35.08 46.63 34.85 45.31 34.63 44.00 C 37.57 43.48 40.51 42.95 43.45 42.41 C 38.57 29.80 25.76 21.59 12.63 20.05 C 13.70 24.54 14.83 29.02 15.94 33.50 C 14.65 33.83 13.35 34.17 12.06 34.50 C 10.64 28.78 9.18 23.07 7.79 17.34 C 10.91 14.20 14.06 11.08 17.18 7.93 M 14.60 16.26 C 28.39 18.33 41.52 27.12 46.86 40.28 C 48.48 38.63 50.11 37.00 51.75 35.38 C 47.55 21.43 32.98 12.83 18.98 12.17 C 17.31 13.28 16.02 14.87 14.60 16.26 Z" />
<path fill="#000000" opacity="1.00" d=" M 23.39 30.61 C 27.14 28.57 32.12 31.77 31.99 35.98 C 32.18 40.44 26.64 43.65 22.90 41.11 C 18.89 38.94 19.20 32.41 23.39 30.61 M 25.25 34.19 C 22.75 34.95 24.46 39.05 26.78 37.82 C 29.25 37.00 27.51 32.96 25.25 34.19 Z" />
<path fill="#000000" opacity="1.00" d=" M 12.76 37.00 C 14.02 36.62 15.29 36.25 16.56 35.88 C 17.21 38.05 17.86 40.21 18.51 42.38 C 20.63 43.59 22.64 45.08 24.94 45.93 C 27.28 45.66 29.57 45.10 31.87 44.62 C 32.08 45.61 32.49 47.58 32.69 48.57 C 30.30 49.11 27.77 49.28 25.52 50.30 C 23.79 52.22 22.66 55.06 19.91 55.74 C 16.61 56.83 12.79 54.47 12.18 51.08 C 11.41 48.31 13.34 45.95 14.71 43.77 C 14.08 41.51 13.42 39.25 12.76 37.00 M 17.26 51.85 C 19.49 52.83 20.39 50.18 21.67 48.95 C 20.31 48.13 18.95 47.32 17.59 46.51 C 16.62 48.08 14.93 50.58 17.26 51.85 Z" />
</g>
</svg>
