<?xml version="1.0" encoding="UTF-8" ?>
<!DOCTYPE svg PUBLIC "-//W3C//DTD SVG 1.1//EN" "http://www.w3.org/Graphics/SVG/1.1/DTD/svg11.dtd">
<svg width="64pt" height="64pt" viewBox="0 0 64 64" version="1.1" xmlns="http://www.w3.org/2000/svg">
<g id="#ffffffff">
<path fill="#ffffff" opacity="1.00" d=" M 0.00 0.00 L 64.00 0.00 L 64.00 64.00 L 0.00 64.00 L 0.00 0.00 M 13.33 11.46 C 11.15 14.64 11.89 18.88 14.12 21.81 C 8.07 26.50 10.45 34.70 10.00 41.24 C 11.34 41.90 12.67 42.57 14.00 43.24 C 14.00 47.49 14.00 51.74 14.00 56.00 C 18.00 56.00 22.00 56.00 26.00 56.00 C 26.00 51.59 26.00 47.18 26.00 42.77 C 24.66 42.23 23.33 41.70 22.00 41.17 C 22.00 44.78 22.00 48.39 22.00 52.00 C 20.67 52.00 19.33 52.00 18.00 52.00 C 18.00 48.25 18.00 44.51 18.00 40.76 C 16.66 40.10 15.33 39.43 14.00 38.76 C 14.32 34.82 13.15 30.51 14.91 26.83 C 17.02 22.94 22.25 24.87 25.18 22.20 C 28.70 19.35 28.92 13.48 25.73 10.30 C 22.39 6.87 15.92 7.35 13.33 11.46 M 34.08 15.03 C 33.65 17.56 34.91 19.89 36.41 21.83 C 35.84 22.48 34.69 23.79 34.12 24.44 C 35.32 24.94 36.53 25.44 37.74 25.93 C 40.23 23.25 45.29 23.36 46.64 27.12 C 47.96 32.00 48.54 37.05 49.59 42.00 C 47.73 42.00 45.86 42.00 44.00 42.00 C 44.00 45.33 44.00 48.67 44.00 52.00 C 42.67 52.00 41.33 52.00 40.00 52.00 C 40.00 49.75 40.00 47.50 40.01 45.24 C 38.67 45.54 37.34 45.83 36.00 46.11 C 36.00 49.40 36.00 52.70 36.00 56.00 C 40.00 56.00 44.00 56.00 48.00 56.00 C 48.00 52.67 48.00 49.33 48.00 46.00 C 50.14 46.00 52.27 46.00 54.41 46.00 C 53.19 39.74 52.14 33.45 50.84 27.21 C 50.48 25.16 49.12 23.56 47.87 22.00 C 50.36 20.22 52.68 18.21 54.82 16.02 C 51.64 12.83 48.26 9.37 43.77 8.20 C 39.34 7.08 34.51 10.48 34.08 15.03 M 23.46 26.62 C 20.53 27.88 19.12 31.70 20.60 34.55 C 22.07 37.65 25.80 38.21 28.61 39.52 C 31.94 40.66 35.73 43.34 39.18 41.03 C 42.89 38.95 42.86 32.93 39.11 30.91 C 36.12 29.40 32.92 28.37 29.85 27.05 C 27.86 26.19 25.51 25.50 23.46 26.62 Z" />
<path fill="#ffffff" opacity="1.00" d=" M 17.57 12.68 C 19.54 11.35 22.85 11.89 23.66 14.34 C 24.78 16.82 22.96 20.28 20.03 20.00 C 16.16 20.43 14.64 14.78 17.57 12.68 Z" />
<path fill="#ffffff" opacity="1.00" d=" M 40.39 12.32 C 43.75 11.19 46.65 14.15 49.12 15.98 C 46.63 17.79 43.72 20.82 40.36 19.65 C 37.24 18.47 37.26 13.49 40.39 12.32 Z" />
<path fill="#ffffff" opacity="1.00" d=" M 25.15 30.07 C 27.60 29.12 29.20 32.85 26.77 33.88 C 24.34 34.80 22.89 31.21 25.15 30.07 Z" />
<path fill="#ffffff" opacity="1.00" d=" M 32.20 32.30 C 34.22 33.50 38.63 33.62 37.88 36.87 C 35.96 39.40 32.94 36.55 30.66 36.03 C 31.20 34.79 31.71 33.55 32.20 32.30 Z" />
</g>
<g id="#000000ff">
<path fill="#000000" opacity="1.00" d=" M 13.33 11.46 C 15.92 7.35 22.39 6.87 25.73 10.30 C 28.92 13.48 28.70 19.35 25.18 22.20 C 22.25 24.87 17.02 22.94 14.91 26.83 C 13.15 30.51 14.32 34.82 14.00 38.76 C 15.33 39.43 16.66 40.10 18.00 40.76 C 18.00 44.51 18.00 48.25 18.00 52.00 C 19.33 52.00 20.67 52.00 22.00 52.00 C 22.00 48.39 22.00 44.78 22.00 41.17 C 23.33 41.70 24.66 42.23 26.00 42.77 C 26.00 47.18 26.00 51.59 26.00 56.00 C 22.00 56.00 18.00 56.00 14.00 56.00 C 14.00 51.74 14.00 47.49 14.00 43.24 C 12.67 42.57 11.34 41.90 10.00 41.24 C 10.45 34.70 8.07 26.50 14.12 21.81 C 11.89 18.88 11.15 14.64 13.33 11.46 M 17.57 12.68 C 14.64 14.78 16.16 20.43 20.03 20.00 C 22.96 20.28 24.78 16.82 23.66 14.34 C 22.85 11.89 19.54 11.35 17.57 12.68 Z" />
<path fill="#000000" opacity="1.00" d=" M 34.08 15.03 C 34.51 10.48 39.34 7.08 43.77 8.20 C 48.26 9.37 51.64 12.83 54.82 16.02 C 52.68 18.21 50.36 20.22 47.87 22.00 C 49.12 23.56 50.48 25.16 50.84 27.21 C 52.14 33.45 53.19 39.74 54.41 46.00 C 52.27 46.00 50.14 46.00 48.00 46.00 C 48.00 49.33 48.00 52.67 48.00 56.00 C 44.00 56.00 40.00 56.00 36.00 56.00 C 36.00 52.70 36.00 49.40 36.00 46.11 C 37.34 45.83 38.67 45.54 40.01 45.24 C 40.00 47.50 40.00 49.75 40.00 52.00 C 41.33 52.00 42.67 52.00 44.00 52.00 C 44.00 48.67 44.00 45.33 44.00 42.00 C 45.86 42.00 47.73 42.00 49.59 42.00 C 48.54 37.05 47.96 32.00 46.64 27.12 C 45.29 23.36 40.23 23.25 37.74 25.93 C 36.53 25.44 35.32 24.94 34.12 24.44 C 34.69 23.79 35.84 22.48 36.41 21.83 C 34.91 19.89 33.65 17.56 34.08 15.03 M 40.39 12.32 C 37.26 13.49 37.24 18.47 40.36 19.65 C 43.72 20.82 46.63 17.79 49.12 15.98 C 46.65 14.15 43.75 11.19 40.39 12.32 Z" />
<path fill="#000000" opacity="1.00" d=" M 23.46 26.62 C 25.51 25.50 27.86 26.19 29.85 27.05 C 32.92 28.37 36.12 29.40 39.11 30.91 C 42.86 32.93 42.89 38.95 39.18 41.03 C 35.73 43.34 31.94 40.66 28.61 39.52 C 25.80 38.21 22.07 37.65 20.60 34.55 C 19.12 31.70 20.53 27.88 23.46 26.62 M 25.15 30.07 C 22.89 31.21 24.34 34.80 26.77 33.88 C 29.20 32.85 27.60 29.12 25.15 30.07 M 32.20 32.30 C 31.71 33.55 31.20 34.79 30.66 36.03 C 32.94 36.55 35.96 39.40 37.88 36.87 C 38.63 33.62 34.22 33.50 32.20 32.30 Z" />
</g>
</svg>
