<?xml version="1.0" encoding="UTF-8" ?>
<!DOCTYPE svg PUBLIC "-//W3C//DTD SVG 1.1//EN" "http://www.w3.org/Graphics/SVG/1.1/DTD/svg11.dtd">
<svg width="64pt" height="64pt" viewBox="0 0 64 64" version="1.1" xmlns="http://www.w3.org/2000/svg">
<g id="#ffffffff">
<path fill="#ffffff" opacity="1.00" d=" M 0.00 0.00 L 64.00 0.00 L 64.00 64.00 L 0.00 64.00 L 0.00 0.00 M 21.65 10.65 C 17.63 14.70 17.87 20.72 18.00 26.00 C 16.00 26.00 14.00 26.00 12.00 26.00 C 12.00 36.67 12.00 47.33 12.00 58.00 C 25.33 58.00 38.67 58.00 52.00 58.00 C 52.00 47.33 52.00 36.67 52.00 26.00 C 50.00 26.00 48.00 26.00 46.00 26.00 C 46.09 20.94 46.41 15.25 42.82 11.19 C 37.82 4.62 26.97 4.35 21.65 10.65 Z" />
<path fill="#ffffff" opacity="1.00" d=" M 24.47 13.43 C 28.17 8.93 35.82 8.92 39.52 13.43 C 42.69 16.82 41.93 21.76 42.00 26.00 C 35.33 26.00 28.67 26.00 22.00 26.00 C 22.06 21.76 21.30 16.83 24.47 13.43 Z" />
<path fill="#ffffff" opacity="1.00" d=" M 16.00 30.00 C 26.67 30.00 37.33 30.00 48.00 30.00 C 48.00 38.00 48.00 46.00 48.00 54.00 C 37.33 54.00 26.67 54.00 16.00 54.00 C 16.00 46.00 16.00 38.00 16.00 30.00 M 23.17 40.10 C 20.84 41.14 22.44 44.92 24.74 43.83 C 27.23 42.92 25.57 39.10 23.17 40.10 M 31.16 40.10 C 28.87 41.25 30.43 44.86 32.83 43.89 C 35.13 42.77 33.58 39.14 31.16 40.10 M 39.10 40.11 C 36.89 41.25 38.45 44.88 40.73 43.84 C 43.27 42.91 41.52 39.05 39.10 40.11 Z" />
</g>
<g id="#000000ff">
<path fill="#000000" opacity="1.00" d=" M 21.65 10.65 C 26.97 4.35 37.82 4.62 42.82 11.19 C 46.41 15.25 46.09 20.94 46.00 26.00 C 48.00 26.00 50.00 26.00 52.00 26.00 C 52.00 36.67 52.00 47.33 52.00 58.00 C 38.67 58.00 25.33 58.00 12.00 58.00 C 12.00 47.33 12.00 36.67 12.00 26.00 C 14.00 26.00 16.00 26.00 18.00 26.00 C 17.87 20.72 17.63 14.70 21.65 10.65 M 24.47 13.43 C 21.30 16.83 22.06 21.76 22.00 26.00 C 28.67 26.00 35.33 26.00 42.00 26.00 C 41.93 21.76 42.69 16.82 39.52 13.43 C 35.82 8.92 28.17 8.93 24.47 13.43 M 16.00 30.00 C 16.00 38.00 16.00 46.00 16.00 54.00 C 26.67 54.00 37.33 54.00 48.00 54.00 C 48.00 46.00 48.00 38.00 48.00 30.00 C 37.33 30.00 26.67 30.00 16.00 30.00 Z" />
<path fill="#000000" opacity="1.00" d=" M 23.17 40.10 C 25.57 39.10 27.23 42.92 24.74 43.83 C 22.44 44.92 20.84 41.14 23.17 40.10 Z" />
<path fill="#000000" opacity="1.00" d=" M 31.16 40.10 C 33.58 39.14 35.13 42.77 32.83 43.89 C 30.43 44.86 28.87 41.25 31.16 40.10 Z" />
<path fill="#000000" opacity="1.00" d=" M 39.10 40.11 C 41.52 39.05 43.27 42.91 40.73 43.84 C 38.45 44.88 36.89 41.25 39.10 40.11 Z" />
</g>
</svg>
