<?xml version="1.0" encoding="UTF-8" ?>
<!DOCTYPE svg PUBLIC "-//W3C//DTD SVG 1.1//EN" "http://www.w3.org/Graphics/SVG/1.1/DTD/svg11.dtd">
<svg width="64pt" height="64pt" viewBox="0 0 64 64" version="1.1" xmlns="http://www.w3.org/2000/svg">
<g id="#ffffffff">
<path fill="#ffffff" opacity="1.00" d=" M 0.00 0.00 L 64.00 0.00 L 64.00 64.00 L 0.00 64.00 L 0.00 0.00 M 5.29 12.42 C 7.68 14.74 11.05 16.97 14.51 15.59 C 17.48 14.30 21.10 13.09 23.85 15.56 C 21.74 16.54 21.93 18.61 23.06 20.25 C 22.87 22.63 21.77 25.28 23.48 27.42 C 26.76 31.82 33.05 33.45 35.12 38.88 C 37.35 44.37 34.83 50.15 32.31 55.04 C 33.48 55.69 34.64 56.35 35.80 57.03 C 39.26 50.73 41.77 42.93 38.17 36.11 C 43.84 36.29 47.61 31.80 51.41 28.35 C 53.61 27.71 55.67 30.16 58.08 29.63 C 57.90 26.53 58.12 23.20 56.50 20.41 C 55.10 17.73 52.13 16.10 49.14 16.07 C 40.90 15.78 32.08 15.87 24.79 11.44 C 21.40 9.19 17.24 10.01 13.77 11.60 C 11.73 12.78 10.02 10.78 8.39 9.84 C 7.39 10.73 6.36 11.59 5.29 12.42 M 8.10 17.07 C 7.50 18.25 6.89 19.43 6.28 20.61 C 8.23 21.03 10.17 21.47 12.11 21.90 C 12.85 27.01 17.00 30.20 20.43 33.58 C 23.25 36.29 23.86 40.29 24.11 44.00 C 25.43 43.99 26.76 43.99 28.09 43.99 C 27.78 40.66 27.43 37.24 25.74 34.28 C 23.74 30.35 19.86 27.95 17.27 24.49 C 15.86 22.68 16.12 20.28 15.91 18.14 C 13.27 18.10 10.65 17.77 8.10 17.07 Z" />
<path fill="#ffffff" opacity="1.00" d=" M 27.70 17.43 C 34.64 19.55 41.90 19.91 49.09 20.08 C 51.00 19.87 52.31 21.26 53.45 22.56 C 46.98 21.76 40.44 22.73 33.97 21.96 C 31.38 21.56 27.82 20.66 27.70 17.43 Z" />
<path fill="#ffffff" opacity="1.00" d=" M 26.06 23.52 C 32.68 27.12 40.36 26.20 47.60 26.35 C 44.52 29.68 40.33 33.53 35.40 31.50 C 31.90 29.48 27.79 27.36 26.06 23.52 Z" />
</g>
<g id="#000000ff">
<path fill="#000000" opacity="1.00" d=" M 5.29 12.42 C 6.36 11.59 7.39 10.73 8.39 9.84 C 10.02 10.78 11.73 12.78 13.77 11.60 C 17.24 10.01 21.40 9.19 24.79 11.44 C 32.08 15.87 40.90 15.78 49.14 16.07 C 52.13 16.10 55.10 17.73 56.50 20.41 C 58.12 23.20 57.90 26.53 58.08 29.63 C 55.67 30.16 53.61 27.71 51.41 28.35 C 47.61 31.80 43.84 36.29 38.17 36.11 C 41.77 42.93 39.26 50.73 35.80 57.03 C 34.64 56.35 33.48 55.69 32.31 55.04 C 34.83 50.15 37.35 44.37 35.12 38.88 C 33.05 33.45 26.76 31.82 23.48 27.42 C 21.77 25.28 22.87 22.63 23.06 20.25 C 21.93 18.61 21.74 16.54 23.85 15.56 C 21.10 13.09 17.48 14.30 14.51 15.59 C 11.05 16.97 7.68 14.74 5.29 12.42 M 27.70 17.43 C 27.82 20.66 31.38 21.56 33.97 21.96 C 40.44 22.73 46.98 21.76 53.45 22.56 C 52.31 21.26 51.00 19.87 49.09 20.08 C 41.90 19.91 34.64 19.55 27.70 17.43 M 26.06 23.52 C 27.79 27.36 31.90 29.48 35.40 31.50 C 40.33 33.53 44.52 29.68 47.60 26.35 C 40.36 26.20 32.68 27.12 26.06 23.52 Z" />
<path fill="#000000" opacity="1.00" d=" M 8.10 17.07 C 10.65 17.77 13.27 18.10 15.91 18.14 C 16.12 20.28 15.86 22.68 17.27 24.49 C 19.86 27.95 23.74 30.35 25.74 34.28 C 27.43 37.24 27.78 40.66 28.09 43.99 C 26.76 43.99 25.43 43.99 24.11 44.00 C 23.86 40.29 23.25 36.29 20.43 33.58 C 17.00 30.20 12.85 27.01 12.11 21.90 C 10.17 21.47 8.23 21.03 6.28 20.61 C 6.89 19.43 7.50 18.25 8.10 17.07 Z" />
</g>
</svg>
