<?xml version="1.0" encoding="UTF-8" ?>
<!DOCTYPE svg PUBLIC "-//W3C//DTD SVG 1.1//EN" "http://www.w3.org/Graphics/SVG/1.1/DTD/svg11.dtd">
<svg width="64pt" height="64pt" viewBox="0 0 64 64" version="1.1" xmlns="http://www.w3.org/2000/svg">
<g id="#ffffffff">
<path fill="#ffffff" opacity="1.00" d=" M 0.00 0.00 L 64.00 0.00 L 64.00 64.00 L 0.00 64.00 L 0.00 0.00 M 24.07 19.98 C 20.78 24.00 21.75 30.06 25.37 33.54 C 23.44 34.86 21.73 36.45 20.22 38.23 C 19.40 37.38 18.57 36.55 17.74 35.71 C 19.89 33.01 20.86 29.14 18.92 26.04 C 16.46 21.30 9.17 20.65 5.89 24.86 C 3.11 27.95 3.72 32.64 6.22 35.70 C 3.75 37.83 2.16 40.72 1.80 43.98 C 3.12 43.98 4.44 43.99 5.76 44.00 C 6.22 40.20 9.95 36.86 13.86 38.31 C 17.22 39.24 18.23 42.91 18.14 46.00 C 19.36 46.00 20.59 46.00 21.82 46.00 C 22.17 40.72 26.53 35.83 32.03 36.03 C 37.51 35.88 41.82 40.75 42.18 46.00 C 43.41 46.00 44.64 46.00 45.86 46.00 C 45.77 42.93 46.75 39.28 50.08 38.32 C 54.01 36.83 57.77 40.18 58.24 44.00 C 59.56 43.99 60.87 43.98 62.19 43.98 C 61.80 40.74 60.25 37.83 57.78 35.70 C 58.60 34.18 59.78 32.77 59.91 30.98 C 60.55 26.78 57.24 22.54 53.04 22.09 C 48.82 21.41 44.52 24.73 44.09 28.97 C 43.59 31.48 44.94 33.72 46.26 35.71 C 45.43 36.55 44.60 37.38 43.78 38.23 C 42.26 36.45 40.55 34.86 38.63 33.54 C 42.23 30.06 43.23 24.02 39.94 19.99 C 36.31 14.77 27.71 14.77 24.07 19.98 Z" />
<path fill="#ffffff" opacity="1.00" d=" M 29.41 20.58 C 33.18 18.59 38.19 21.76 37.99 26.01 C 38.19 30.50 32.63 33.62 28.89 31.13 C 24.87 28.95 25.19 22.35 29.41 20.58 Z" />
<path fill="#ffffff" opacity="1.00" d=" M 10.29 26.37 C 12.83 25.05 16.17 27.21 16.00 30.06 C 16.11 33.15 12.14 35.17 9.69 33.28 C 7.20 31.70 7.56 27.49 10.29 26.37 Z" />
<path fill="#ffffff" opacity="1.00" d=" M 50.31 26.36 C 52.82 25.08 56.12 27.17 56.00 29.99 C 56.17 33.12 52.16 35.19 49.69 33.28 C 47.19 31.69 47.57 27.47 50.31 26.36 Z" />
</g>
<g id="#000000ff">
<path fill="#000000" opacity="1.00" d=" M 24.07 19.98 C 27.71 14.77 36.31 14.77 39.94 19.99 C 43.23 24.02 42.23 30.06 38.63 33.54 C 40.55 34.86 42.26 36.45 43.78 38.23 C 44.60 37.38 45.43 36.55 46.26 35.71 C 44.94 33.72 43.59 31.48 44.09 28.97 C 44.52 24.73 48.82 21.41 53.04 22.09 C 57.24 22.54 60.55 26.78 59.91 30.98 C 59.78 32.77 58.60 34.18 57.78 35.70 C 60.25 37.83 61.80 40.74 62.19 43.98 C 60.87 43.98 59.56 43.99 58.24 44.00 C 57.77 40.18 54.01 36.83 50.08 38.32 C 46.75 39.28 45.77 42.93 45.86 46.00 C 44.64 46.00 43.41 46.00 42.18 46.00 C 41.82 40.75 37.51 35.88 32.03 36.03 C 26.53 35.83 22.17 40.72 21.82 46.00 C 20.59 46.00 19.36 46.00 18.14 46.00 C 18.23 42.91 17.22 39.24 13.86 38.31 C 9.95 36.86 6.22 40.20 5.76 44.00 C 4.44 43.99 3.12 43.98 1.80 43.98 C 2.16 40.72 3.75 37.83 6.22 35.70 C 3.72 32.64 3.11 27.95 5.89 24.86 C 9.17 20.65 16.46 21.30 18.92 26.04 C 20.86 29.14 19.89 33.01 17.74 35.71 C 18.57 36.55 19.40 37.38 20.22 38.23 C 21.73 36.45 23.44 34.86 25.37 33.54 C 21.75 30.06 20.78 24.00 24.07 19.98 M 29.41 20.58 C 25.19 22.35 24.87 28.95 28.89 31.13 C 32.63 33.62 38.19 30.50 37.99 26.01 C 38.19 21.76 33.18 18.59 29.41 20.58 M 10.29 26.37 C 7.56 27.49 7.20 31.70 9.69 33.28 C 12.14 35.17 16.11 33.15 16.00 30.06 C 16.17 27.21 12.83 25.05 10.29 26.37 M 50.31 26.36 C 47.57 27.47 47.19 31.69 49.69 33.28 C 52.16 35.19 56.17 33.12 56.00 29.99 C 56.12 27.17 52.82 25.08 50.31 26.36 Z" />
</g>
</svg>
