<?xml version="1.0" encoding="UTF-8" ?>
<!DOCTYPE svg PUBLIC "-//W3C//DTD SVG 1.1//EN" "http://www.w3.org/Graphics/SVG/1.1/DTD/svg11.dtd">
<svg width="64pt" height="64pt" viewBox="0 0 64 64" version="1.1" xmlns="http://www.w3.org/2000/svg">
<g id="#ffffffff">
<path fill="#ffffff" opacity="1.00" d=" M 0.00 0.00 L 64.00 0.00 L 64.00 64.00 L 0.00 64.00 L 0.00 0.00 M 24.00 6.00 C 24.00 10.67 24.00 15.33 24.00 20.00 C 25.33 20.00 26.66 20.00 28.00 20.00 C 28.00 21.33 28.00 22.67 28.00 24.00 C 25.33 24.00 22.67 24.00 20.01 24.00 C 20.00 25.36 19.99 26.71 19.99 28.07 C 14.90 30.44 9.95 34.95 10.02 40.99 C 9.94 47.04 14.91 51.54 19.99 53.93 C 19.99 55.29 20.00 56.64 20.01 58.00 C 26.67 58.00 33.33 58.00 39.99 58.00 C 40.00 56.64 40.01 55.29 40.01 53.93 C 45.10 51.54 50.06 47.02 49.97 40.97 C 50.03 34.94 45.09 30.44 40.01 28.07 C 40.01 26.71 40.00 25.36 39.99 24.00 C 37.33 24.00 34.67 24.00 32.00 24.00 C 32.00 22.67 32.00 21.33 32.00 20.00 C 33.33 20.00 34.67 20.00 36.00 20.00 C 36.00 18.17 36.00 16.34 35.99 14.51 C 39.79 16.66 43.68 18.84 47.96 19.86 C 52.03 20.71 56.14 17.04 55.98 12.93 C 56.06 8.90 52.03 5.33 48.02 6.13 C 43.72 7.14 39.80 9.32 35.99 11.49 C 36.00 9.66 36.00 7.83 36.00 6.00 C 32.00 6.00 28.00 6.00 24.00 6.00 Z" />
<path fill="#ffffff" opacity="1.00" d=" M 28.00 10.00 C 29.33 10.00 30.67 10.00 32.00 10.00 C 32.00 12.00 32.00 14.00 32.00 16.00 C 30.67 16.00 29.33 16.00 28.00 16.00 C 28.00 14.00 28.00 12.00 28.00 10.00 Z" />
<path fill="#ffffff" opacity="1.00" d=" M 41.66 13.00 C 44.29 11.88 46.88 9.91 49.86 10.14 C 52.62 10.78 52.63 15.21 49.87 15.85 C 46.90 16.12 44.29 14.11 41.66 13.00 Z" />
<path fill="#ffffff" opacity="1.00" d=" M 24.00 28.00 C 28.00 28.00 32.00 28.00 36.00 28.00 C 36.00 28.67 36.00 30.01 36.01 30.69 C 40.62 32.31 45.93 35.53 45.98 41.04 C 45.87 46.50 40.58 49.68 36.01 51.32 C 36.00 51.99 36.00 53.33 36.00 54.00 C 32.00 54.00 28.00 54.00 24.00 54.00 C 24.00 53.33 24.00 51.98 23.99 51.31 C 19.41 49.69 14.12 46.51 14.02 41.04 C 14.05 35.53 19.38 32.31 23.99 30.69 C 24.00 30.01 24.00 28.67 24.00 28.00 M 28.30 32.01 C 28.07 33.17 27.38 33.90 26.23 34.17 C 23.20 35.42 19.30 36.62 18.14 40.04 C 17.30 43.76 21.33 45.67 23.99 47.08 C 24.43 45.86 24.88 44.64 25.33 43.42 C 24.18 42.52 22.97 41.71 21.70 40.98 C 24.77 38.74 28.37 37.50 31.99 36.48 C 31.99 34.98 31.99 33.49 32.01 32.00 C 30.77 32.00 29.54 32.00 28.30 32.01 Z" />
</g>
<g id="#000000ff">
<path fill="#000000" opacity="1.00" d=" M 24.00 6.00 C 28.00 6.00 32.00 6.00 36.00 6.00 C 36.00 7.83 36.00 9.66 35.99 11.49 C 39.80 9.32 43.72 7.14 48.02 6.13 C 52.03 5.33 56.06 8.90 55.98 12.93 C 56.14 17.04 52.03 20.71 47.96 19.86 C 43.68 18.84 39.79 16.66 35.99 14.51 C 36.00 16.34 36.00 18.17 36.00 20.00 C 34.67 20.00 33.33 20.00 32.00 20.00 C 32.00 21.33 32.00 22.67 32.00 24.00 C 34.67 24.00 37.33 24.00 39.99 24.00 C 40.00 25.36 40.01 26.71 40.01 28.07 C 45.09 30.44 50.03 34.94 49.97 40.97 C 50.06 47.02 45.10 51.54 40.01 53.93 C 40.01 55.29 40.00 56.64 39.99 58.00 C 33.33 58.00 26.67 58.00 20.01 58.00 C 20.00 56.64 19.99 55.29 19.99 53.93 C 14.91 51.54 9.94 47.04 10.02 40.99 C 9.95 34.95 14.90 30.44 19.99 28.07 C 19.99 26.71 20.00 25.36 20.01 24.00 C 22.67 24.00 25.33 24.00 28.00 24.00 C 28.00 22.67 28.00 21.33 28.00 20.00 C 26.66 20.00 25.33 20.00 24.00 20.00 C 24.00 15.33 24.00 10.67 24.00 6.00 M 28.00 10.00 C 28.00 12.00 28.00 14.00 28.00 16.00 C 29.33 16.00 30.67 16.00 32.00 16.00 C 32.00 14.00 32.00 12.00 32.00 10.00 C 30.67 10.00 29.33 10.00 28.00 10.00 M 41.66 13.00 C 44.29 14.11 46.90 16.12 49.87 15.85 C 52.63 15.21 52.62 10.78 49.86 10.14 C 46.88 9.91 44.29 11.88 41.66 13.00 M 24.00 28.00 C 24.00 28.67 24.00 30.01 23.99 30.69 C 19.38 32.31 14.05 35.53 14.02 41.04 C 14.12 46.51 19.41 49.69 23.99 51.31 C 24.00 51.98 24.00 53.33 24.00 54.00 C 28.00 54.00 32.00 54.00 36.00 54.00 C 36.00 53.33 36.00 51.99 36.01 51.32 C 40.58 49.68 45.87 46.50 45.98 41.04 C 45.93 35.53 40.62 32.31 36.01 30.69 C 36.00 30.01 36.00 28.67 36.00 28.00 C 32.00 28.00 28.00 28.00 24.00 28.00 Z" />
<path fill="#000000" opacity="1.00" d=" M 28.30 32.01 C 29.54 32.00 30.77 32.00 32.01 32.00 C 31.99 33.49 31.99 34.98 31.99 36.48 C 28.37 37.50 24.77 38.74 21.70 40.98 C 22.97 41.71 24.18 42.52 25.33 43.42 C 24.88 44.64 24.43 45.86 23.99 47.08 C 21.33 45.67 17.30 43.76 18.14 40.04 C 19.30 36.62 23.20 35.42 26.23 34.17 C 27.38 33.90 28.07 33.17 28.30 32.01 Z" />
</g>
</svg>
