<?xml version="1.0" encoding="UTF-8" ?>
<!DOCTYPE svg PUBLIC "-//W3C//DTD SVG 1.1//EN" "http://www.w3.org/Graphics/SVG/1.1/DTD/svg11.dtd">
<svg width="64pt" height="64pt" viewBox="0 0 64 64" version="1.1" xmlns="http://www.w3.org/2000/svg">
<g id="#ffffffff">
<path fill="#ffffff" opacity="1.00" d=" M 0.00 0.00 L 64.00 0.00 L 64.00 49.80 C 62.43 44.26 55.58 46.39 51.35 46.02 C 50.12 52.01 49.01 58.03 47.68 64.00 L 21.81 64.00 C 22.31 62.10 22.72 60.18 23.11 58.25 C 26.17 58.09 29.82 58.64 32.16 56.20 C 34.67 53.85 35.75 48.70 32.29 46.71 C 28.99 45.45 25.32 46.16 21.86 46.01 C 20.61 52.00 19.51 58.02 18.19 64.00 L 0.00 64.00 L 0.00 0.00 M 12.00 8.00 C 12.00 24.00 12.00 40.00 12.00 56.00 C 13.26 56.00 14.52 56.00 15.78 56.00 C 15.93 55.17 16.23 53.50 16.38 52.67 C 15.67 49.15 16.11 45.55 16.00 42.00 C 22.01 42.00 28.02 42.00 34.04 42.00 C 34.30 40.67 34.57 39.33 34.84 38.00 C 28.56 38.00 22.28 38.00 16.00 38.00 C 16.00 34.00 16.00 30.00 16.00 26.00 C 26.67 26.00 37.33 26.00 48.00 26.00 C 48.00 31.33 48.00 36.67 48.00 42.00 C 49.33 42.00 50.67 42.00 52.00 42.00 C 52.00 30.67 52.00 19.33 52.00 8.00 C 38.67 8.00 25.33 8.00 12.00 8.00 M 38.11 42.00 C 36.91 47.96 35.70 53.91 34.49 59.86 C 35.70 59.86 36.90 59.87 38.11 59.87 C 38.73 56.80 39.39 53.75 39.99 50.68 C 41.66 50.74 43.32 50.82 44.98 50.97 C 44.64 53.96 44.04 56.92 43.39 59.86 C 44.61 59.86 45.84 59.87 47.06 59.87 C 47.57 56.59 48.75 53.37 48.61 50.03 C 46.99 47.23 43.17 48.33 40.52 47.97 C 40.92 45.98 41.32 43.99 41.72 42.00 C 40.82 42.00 39.01 42.00 38.11 42.00 Z" />
<path fill="#ffffff" opacity="1.00" d=" M 16.00 12.00 C 26.67 12.00 37.33 12.00 48.00 12.00 C 48.00 15.33 48.00 18.67 48.00 22.00 C 37.33 22.00 26.67 22.00 16.00 22.00 C 16.00 18.67 16.00 15.33 16.00 12.00 Z" />
<path fill="#ffffff" opacity="1.00" d=" M 24.99 48.53 C 26.76 48.61 28.52 48.74 30.28 48.90 C 30.82 50.74 30.81 52.90 29.46 54.41 C 27.93 55.93 25.57 55.42 23.63 55.68 C 24.08 53.29 24.54 50.91 24.99 48.53 Z" />
<path fill="#ffffff" opacity="1.00" d=" M 54.50 48.53 C 56.44 48.80 60.41 47.87 60.20 51.01 C 60.43 54.95 56.32 56.09 53.13 55.69 C 53.57 53.30 54.04 50.91 54.50 48.53 Z" />
<path fill="#ffffff" opacity="1.00" d=" M 59.70 57.54 C 62.11 56.54 63.40 54.07 64.00 51.66 L 64.00 64.00 L 51.33 64.00 C 51.82 62.10 52.21 60.17 52.61 58.26 C 54.98 58.15 57.44 58.38 59.70 57.54 Z" />
</g>
<g id="#000000ff">
<path fill="#000000" opacity="1.00" d=" M 12.00 8.00 C 25.33 8.00 38.67 8.00 52.00 8.00 C 52.00 19.33 52.00 30.67 52.00 42.00 C 50.67 42.00 49.33 42.00 48.00 42.00 C 48.00 36.67 48.00 31.33 48.00 26.00 C 37.33 26.00 26.67 26.00 16.00 26.00 C 16.00 30.00 16.00 34.00 16.00 38.00 C 22.28 38.00 28.56 38.00 34.84 38.00 C 34.57 39.33 34.30 40.67 34.04 42.00 C 28.02 42.00 22.01 42.00 16.00 42.00 C 16.11 45.55 15.67 49.15 16.38 52.67 C 16.23 53.50 15.93 55.17 15.78 56.00 C 14.52 56.00 13.26 56.00 12.00 56.00 C 12.00 40.00 12.00 24.00 12.00 8.00 M 16.00 12.00 C 16.00 15.33 16.00 18.67 16.00 22.00 C 26.67 22.00 37.33 22.00 48.00 22.00 C 48.00 18.67 48.00 15.33 48.00 12.00 C 37.33 12.00 26.67 12.00 16.00 12.00 Z" />
<path fill="#000000" opacity="1.00" d=" M 38.11 42.00 C 39.01 42.00 40.82 42.00 41.72 42.00 C 41.32 43.99 40.92 45.98 40.52 47.97 C 43.17 48.33 46.99 47.23 48.61 50.03 C 48.75 53.37 47.57 56.59 47.06 59.87 C 45.84 59.87 44.61 59.86 43.39 59.86 C 44.04 56.92 44.64 53.96 44.98 50.97 C 43.32 50.82 41.66 50.74 39.99 50.68 C 39.39 53.75 38.73 56.80 38.11 59.87 C 36.90 59.87 35.70 59.86 34.49 59.86 C 35.70 53.91 36.91 47.96 38.11 42.00 Z" />
<path fill="#000000" opacity="1.00" d=" M 18.19 64.00 C 19.51 58.02 20.61 52.00 21.86 46.01 C 25.32 46.16 28.99 45.45 32.29 46.71 C 35.75 48.70 34.67 53.85 32.16 56.20 C 29.82 58.64 26.17 58.09 23.11 58.25 C 22.72 60.18 22.31 62.10 21.81 64.00 L 18.19 64.00 M 24.99 48.53 C 24.54 50.91 24.08 53.29 23.63 55.68 C 25.57 55.42 27.93 55.93 29.46 54.41 C 30.81 52.90 30.82 50.74 30.28 48.90 C 28.52 48.74 26.76 48.61 24.99 48.53 Z" />
<path fill="#000000" opacity="1.00" d=" M 51.35 46.02 C 55.58 46.39 62.43 44.26 64.00 49.80 L 64.00 51.66 C 63.40 54.07 62.11 56.54 59.70 57.54 C 57.44 58.38 54.98 58.15 52.61 58.26 C 52.21 60.17 51.82 62.10 51.33 64.00 L 47.68 64.00 C 49.01 58.03 50.12 52.01 51.35 46.02 M 54.50 48.53 C 54.04 50.91 53.57 53.30 53.13 55.69 C 56.32 56.09 60.43 54.95 60.20 51.01 C 60.41 47.87 56.44 48.80 54.50 48.53 Z" />
</g>
</svg>
