<?xml version="1.0" encoding="UTF-8" ?>
<!DOCTYPE svg PUBLIC "-//W3C//DTD SVG 1.1//EN" "http://www.w3.org/Graphics/SVG/1.1/DTD/svg11.dtd">
<svg width="64pt" height="64pt" viewBox="0 0 64 64" version="1.1" xmlns="http://www.w3.org/2000/svg">
<g id="#ffffffff">
<path fill="#ffffff" opacity="1.00" d=" M 0.00 0.00 L 64.00 0.00 L 64.00 64.00 L 0.00 64.00 L 0.00 0.00 M 13.97 14.13 C 14.00 15.28 14.03 16.42 14.04 17.57 C 15.31 17.85 16.59 18.14 17.87 18.42 C 18.32 28.94 17.69 39.48 18.11 50.01 C 19.37 50.00 20.63 50.00 21.88 50.01 C 22.29 39.38 21.72 28.73 22.10 18.10 C 28.70 17.90 35.31 17.90 41.90 18.10 C 42.38 26.63 41.51 35.21 42.26 43.72 C 42.85 48.56 47.41 51.87 52.09 52.09 C 51.98 50.90 51.86 49.71 51.73 48.53 C 50.05 47.49 48.21 46.60 46.88 45.11 C 45.63 42.62 46.08 39.70 45.96 37.01 C 46.12 30.81 45.77 24.61 46.13 18.42 C 47.41 18.14 48.68 17.85 49.96 17.57 C 49.97 16.42 50.00 15.28 50.03 14.13 C 38.02 13.90 25.98 13.90 13.97 14.13 Z" />
</g>
<g id="#000000ff">
<path fill="#000000" opacity="1.00" d=" M 13.97 14.13 C 25.98 13.90 38.02 13.90 50.03 14.13 C 50.00 15.28 49.97 16.42 49.96 17.57 C 48.68 17.85 47.41 18.14 46.13 18.42 C 45.77 24.61 46.12 30.81 45.96 37.01 C 46.08 39.70 45.63 42.62 46.88 45.11 C 48.21 46.60 50.05 47.49 51.73 48.53 C 51.86 49.71 51.98 50.90 52.09 52.09 C 47.41 51.87 42.85 48.56 42.26 43.72 C 41.51 35.21 42.38 26.63 41.90 18.10 C 35.31 17.90 28.70 17.90 22.10 18.10 C 21.72 28.73 22.29 39.38 21.88 50.01 C 20.63 50.00 19.37 50.00 18.11 50.01 C 17.69 39.48 18.32 28.94 17.87 18.42 C 16.59 18.14 15.31 17.85 14.04 17.57 C 14.03 16.42 14.00 15.28 13.97 14.13 Z" />
</g>
</svg>
