<?xml version="1.0" encoding="UTF-8" ?>
<!DOCTYPE svg PUBLIC "-//W3C//DTD SVG 1.1//EN" "http://www.w3.org/Graphics/SVG/1.1/DTD/svg11.dtd">
<svg width="64pt" height="64pt" viewBox="0 0 64 64" version="1.1" xmlns="http://www.w3.org/2000/svg">
<g id="#ffffffff">
<path fill="#ffffff" opacity="1.00" d=" M 0.00 0.00 L 64.00 0.00 L 64.00 64.00 L 0.00 64.00 L 0.00 0.00 M 10.94 20.03 C 6.43 26.91 7.07 37.06 13.20 42.79 C 8.03 44.97 7.81 51.15 8.04 55.94 C 12.95 56.18 19.28 55.83 21.33 50.42 C 24.18 53.88 28.50 56.47 33.13 55.93 C 37.85 55.53 41.70 52.19 44.24 48.40 C 44.80 50.40 45.31 52.66 47.14 53.92 C 50.21 56.19 54.25 55.86 57.86 55.94 C 58.26 50.74 57.49 43.55 51.21 42.42 C 57.11 36.45 57.59 26.09 52.49 19.47 C 49.44 15.45 44.69 12.98 39.76 12.17 C 39.02 10.82 38.29 9.48 37.59 8.10 C 27.64 7.76 16.72 11.52 10.94 20.03 Z" />
<path fill="#ffffff" opacity="1.00" d=" M 14.64 21.60 C 19.35 15.22 27.53 12.75 35.11 12.09 C 35.83 13.35 36.55 14.60 37.26 15.86 C 42.52 16.23 47.84 18.91 50.48 23.60 C 53.23 28.98 52.27 36.25 47.65 40.33 C 47.75 39.25 47.93 37.09 48.02 36.01 C 46.71 36.00 45.40 36.00 44.08 36.00 C 43.62 41.56 41.37 47.38 36.59 50.59 C 33.70 52.60 29.58 52.39 26.84 50.19 C 22.51 46.85 20.16 41.31 20.03 35.92 C 19.80 34.57 20.98 33.56 22.16 33.28 C 26.84 31.88 32.13 32.91 36.49 30.40 C 38.80 29.10 39.76 26.50 40.18 24.03 C 38.86 24.01 37.54 24.00 36.23 24.00 C 35.77 25.15 35.63 26.72 34.23 27.14 C 29.06 29.27 22.66 27.43 18.04 31.07 C 15.31 33.38 16.09 37.28 16.31 40.40 C 11.21 35.67 10.61 27.17 14.64 21.60 M 25.16 36.10 C 22.89 37.23 24.40 40.86 26.82 39.90 C 29.14 38.79 27.59 35.14 25.16 36.10 M 37.19 36.10 C 34.86 37.17 36.38 40.85 38.80 39.90 C 41.14 38.82 39.60 35.15 37.19 36.10 Z" />
<path fill="#ffffff" opacity="1.00" d=" M 13.35 47.44 C 14.67 46.49 16.39 46.43 17.93 46.05 C 17.56 47.58 17.40 49.22 16.53 50.58 C 15.16 51.45 13.51 51.61 11.96 51.98 C 12.37 50.46 12.47 48.79 13.35 47.44 Z" />
<path fill="#ffffff" opacity="1.00" d=" M 47.98 46.02 C 49.53 46.41 51.21 46.55 52.56 47.47 C 53.38 48.84 53.55 50.46 53.92 51.98 C 52.40 51.60 50.74 51.47 49.39 50.59 C 48.46 49.25 48.35 47.56 47.98 46.02 Z" />
</g>
<g id="#000000ff">
<path fill="#000000" opacity="1.00" d=" M 10.94 20.03 C 16.72 11.52 27.64 7.76 37.59 8.10 C 38.29 9.48 39.02 10.82 39.76 12.17 C 44.69 12.98 49.44 15.45 52.49 19.47 C 57.59 26.09 57.11 36.45 51.21 42.42 C 57.49 43.55 58.26 50.74 57.86 55.94 C 54.25 55.86 50.21 56.19 47.14 53.92 C 45.31 52.66 44.80 50.40 44.24 48.40 C 41.70 52.19 37.85 55.53 33.13 55.93 C 28.50 56.47 24.18 53.88 21.33 50.42 C 19.28 55.83 12.95 56.18 8.04 55.94 C 7.81 51.15 8.03 44.97 13.20 42.79 C 7.07 37.06 6.43 26.91 10.94 20.03 M 14.64 21.60 C 10.61 27.17 11.21 35.67 16.31 40.40 C 16.09 37.28 15.31 33.38 18.04 31.07 C 22.66 27.43 29.06 29.27 34.23 27.14 C 35.63 26.72 35.77 25.15 36.23 24.00 C 37.54 24.00 38.86 24.01 40.18 24.03 C 39.76 26.50 38.80 29.10 36.49 30.40 C 32.13 32.91 26.84 31.88 22.16 33.28 C 20.98 33.56 19.80 34.57 20.03 35.92 C 20.16 41.31 22.51 46.85 26.84 50.19 C 29.58 52.39 33.70 52.60 36.59 50.59 C 41.37 47.38 43.62 41.56 44.08 36.00 C 45.40 36.00 46.71 36.00 48.02 36.01 C 47.93 37.09 47.75 39.25 47.65 40.33 C 52.27 36.25 53.23 28.98 50.48 23.60 C 47.84 18.91 42.52 16.23 37.26 15.86 C 36.55 14.60 35.83 13.35 35.11 12.09 C 27.53 12.75 19.35 15.22 14.64 21.60 M 13.35 47.44 C 12.47 48.79 12.37 50.46 11.96 51.98 C 13.51 51.61 15.16 51.45 16.53 50.58 C 17.40 49.22 17.56 47.58 17.93 46.05 C 16.39 46.43 14.67 46.49 13.35 47.44 M 47.98 46.02 C 48.35 47.56 48.46 49.25 49.39 50.59 C 50.74 51.47 52.40 51.60 53.92 51.98 C 53.55 50.46 53.38 48.84 52.56 47.47 C 51.21 46.55 49.53 46.41 47.98 46.02 Z" />
<path fill="#000000" opacity="1.00" d=" M 25.16 36.10 C 27.59 35.14 29.14 38.79 26.82 39.90 C 24.40 40.86 22.89 37.23 25.16 36.10 Z" />
<path fill="#000000" opacity="1.00" d=" M 37.19 36.10 C 39.60 35.15 41.14 38.82 38.80 39.90 C 36.38 40.85 34.86 37.17 37.19 36.10 Z" />
</g>
</svg>
