<?xml version="1.0" encoding="UTF-8" ?>
<!DOCTYPE svg PUBLIC "-//W3C//DTD SVG 1.1//EN" "http://www.w3.org/Graphics/SVG/1.1/DTD/svg11.dtd">
<svg width="64pt" height="64pt" viewBox="0 0 64 64" version="1.1" xmlns="http://www.w3.org/2000/svg">
<g id="#ffffffff">
<path fill="#ffffff" opacity="1.00" d=" M 0.00 0.00 L 64.00 0.00 L 64.00 64.00 L 0.00 64.00 L 0.00 0.00 M 28.59 9.44 C 26.84 12.70 29.05 16.23 31.97 17.80 C 32.03 23.22 31.99 28.64 32.00 34.06 C 31.22 34.17 29.66 34.39 28.88 34.50 C 26.10 29.75 23.27 25.03 20.52 20.27 C 22.80 17.19 22.33 12.26 18.58 10.60 C 14.44 8.33 9.02 12.52 10.11 17.09 C 10.60 20.37 13.89 22.06 16.93 22.19 C 19.64 26.61 22.20 31.13 24.90 35.56 C 22.69 36.72 20.32 37.78 18.67 39.73 C 17.12 41.39 16.87 44.63 13.89 44.22 C 14.08 48.93 14.51 53.78 16.74 58.04 C 28.26 57.97 39.78 58.00 51.30 58.02 C 53.42 53.73 53.94 48.93 54.11 44.21 C 52.64 44.16 51.28 43.77 50.89 42.19 C 48.20 36.63 41.67 34.71 36.00 33.99 C 36.01 28.59 35.98 23.20 36.02 17.80 C 38.95 16.24 41.15 12.68 39.40 9.43 C 37.53 4.95 30.45 4.95 28.59 9.44 Z" />
<path fill="#ffffff" opacity="1.00" d=" M 33.21 10.07 C 35.63 9.21 37.12 12.77 34.84 13.89 C 32.40 14.93 30.79 11.07 33.21 10.07 Z" />
<path fill="#ffffff" opacity="1.00" d=" M 15.09 14.09 C 17.54 13.10 19.16 16.71 16.85 17.89 C 14.44 18.90 12.86 15.25 15.09 14.09 Z" />
<path fill="#ffffff" opacity="1.00" d=" M 20.22 43.92 C 23.62 39.35 29.64 37.79 35.09 38.05 C 39.86 38.23 44.84 39.97 47.77 43.92 C 38.59 44.05 29.40 44.05 20.22 43.92 Z" />
<path fill="#ffffff" opacity="1.00" d=" M 17.97 48.04 C 28.63 47.97 39.30 47.97 49.96 48.04 C 49.54 50.02 49.10 51.99 48.65 53.95 C 38.87 54.04 29.09 54.01 19.30 53.97 C 18.84 52.00 18.39 50.02 17.97 48.04 Z" />
</g>
<g id="#000000ff">
<path fill="#000000" opacity="1.00" d=" M 28.59 9.44 C 30.45 4.95 37.53 4.95 39.40 9.43 C 41.15 12.68 38.95 16.24 36.02 17.80 C 35.98 23.20 36.01 28.59 36.00 33.99 C 41.67 34.71 48.20 36.63 50.89 42.19 C 51.28 43.77 52.64 44.16 54.11 44.21 C 53.94 48.93 53.42 53.73 51.30 58.02 C 39.78 58.00 28.26 57.97 16.74 58.04 C 14.51 53.78 14.08 48.93 13.89 44.22 C 16.87 44.63 17.12 41.39 18.67 39.73 C 20.32 37.78 22.69 36.72 24.90 35.56 C 22.20 31.13 19.64 26.61 16.93 22.19 C 13.89 22.06 10.60 20.37 10.11 17.09 C 9.02 12.52 14.44 8.33 18.58 10.60 C 22.33 12.26 22.80 17.19 20.52 20.27 C 23.27 25.03 26.10 29.75 28.88 34.50 C 29.66 34.39 31.22 34.17 32.00 34.06 C 31.99 28.64 32.03 23.22 31.97 17.80 C 29.05 16.23 26.84 12.70 28.59 9.44 M 33.21 10.07 C 30.79 11.07 32.40 14.93 34.84 13.89 C 37.12 12.77 35.63 9.21 33.21 10.07 M 15.09 14.09 C 12.86 15.25 14.44 18.90 16.85 17.89 C 19.16 16.71 17.54 13.10 15.09 14.09 M 20.22 43.92 C 29.40 44.05 38.59 44.05 47.77 43.92 C 44.84 39.97 39.86 38.23 35.09 38.05 C 29.64 37.79 23.62 39.35 20.22 43.92 M 17.97 48.04 C 18.39 50.02 18.84 52.00 19.30 53.97 C 29.09 54.01 38.87 54.04 48.65 53.95 C 49.10 51.99 49.54 50.02 49.96 48.04 C 39.30 47.97 28.63 47.97 17.97 48.04 Z" />
</g>
</svg>
