<?xml version="1.0" encoding="UTF-8" ?>
<!DOCTYPE svg PUBLIC "-//W3C//DTD SVG 1.1//EN" "http://www.w3.org/Graphics/SVG/1.1/DTD/svg11.dtd">
<svg width="64pt" height="64pt" viewBox="0 0 64 64" version="1.1" xmlns="http://www.w3.org/2000/svg">
<g id="#ffffffff">
<path fill="#ffffff" opacity="1.00" d=" M 0.00 0.00 L 64.00 0.00 L 64.00 64.00 L 0.00 64.00 L 0.00 0.00 M 28.61 8.60 C 25.06 12.88 25.32 19.39 28.73 23.67 C 25.13 27.89 21.57 32.14 17.92 36.31 C 18.29 41.40 22.26 45.33 23.91 50.04 C 24.11 52.02 24.00 54.01 23.99 56.00 C 20.66 56.00 17.33 56.00 14.00 56.00 C 14.00 57.33 14.00 58.67 14.00 60.00 C 22.00 60.00 30.00 60.00 38.00 60.00 C 38.00 58.67 38.00 57.33 38.00 56.00 C 34.67 56.00 31.33 56.00 28.00 56.00 C 28.00 54.28 28.00 52.56 28.00 50.83 C 30.00 48.86 31.98 46.86 33.97 44.88 C 32.78 42.66 31.59 40.44 30.38 38.22 C 31.57 36.73 32.77 35.24 33.98 33.76 C 34.00 31.63 34.00 29.51 33.99 27.38 C 38.99 28.97 44.89 27.23 47.82 22.80 C 51.45 17.85 50.28 10.26 45.37 6.59 C 40.47 2.49 32.43 3.51 28.61 8.60 Z" />
<path fill="#ffffff" opacity="1.00" d=" M 35.36 8.46 C 41.06 6.15 47.56 12.11 45.73 17.98 C 44.57 23.54 37.00 25.93 32.83 22.10 C 28.15 18.49 29.65 10.13 35.36 8.46 M 36.36 12.37 C 31.57 14.27 35.05 22.02 39.64 19.61 C 44.42 17.74 40.94 9.97 36.36 12.37 Z" />
<path fill="#ffffff" opacity="1.00" d=" M 23.49 36.00 C 25.65 33.44 27.83 30.90 29.99 28.35 C 30.00 29.32 30.02 31.26 30.03 32.23 C 29.04 33.49 28.04 34.75 27.03 36.00 C 26.15 36.00 24.38 36.00 23.49 36.00 Z" />
<path fill="#ffffff" opacity="1.00" d=" M 23.31 40.00 C 24.18 40.00 25.94 40.00 26.81 40.00 C 27.55 41.37 28.28 42.75 29.03 44.13 C 28.26 44.92 27.48 45.71 26.70 46.49 C 25.56 44.33 24.43 42.17 23.31 40.00 Z" />
</g>
<g id="#000000ff">
<path fill="#000000" opacity="1.00" d=" M 28.61 8.60 C 32.43 3.51 40.47 2.49 45.37 6.59 C 50.28 10.26 51.45 17.85 47.82 22.80 C 44.89 27.23 38.99 28.97 33.99 27.38 C 34.00 29.51 34.00 31.63 33.98 33.76 C 32.77 35.24 31.57 36.73 30.38 38.22 C 31.59 40.44 32.78 42.66 33.97 44.88 C 31.98 46.86 30.00 48.86 28.00 50.83 C 28.00 52.56 28.00 54.28 28.00 56.00 C 31.33 56.00 34.67 56.00 38.00 56.00 C 38.00 57.33 38.00 58.67 38.00 60.00 C 30.00 60.00 22.00 60.00 14.00 60.00 C 14.00 58.67 14.00 57.33 14.00 56.00 C 17.33 56.00 20.66 56.00 23.99 56.00 C 24.00 54.01 24.11 52.02 23.91 50.04 C 22.26 45.33 18.29 41.40 17.92 36.31 C 21.57 32.14 25.13 27.89 28.73 23.67 C 25.32 19.39 25.06 12.88 28.61 8.60 M 35.36 8.46 C 29.65 10.13 28.15 18.49 32.83 22.10 C 37.00 25.93 44.57 23.54 45.73 17.98 C 47.56 12.11 41.06 6.15 35.36 8.46 M 23.49 36.00 C 24.38 36.00 26.15 36.00 27.03 36.00 C 28.04 34.75 29.04 33.49 30.03 32.23 C 30.02 31.26 30.00 29.32 29.99 28.35 C 27.83 30.90 25.65 33.44 23.49 36.00 M 23.31 40.00 C 24.43 42.17 25.56 44.33 26.70 46.49 C 27.48 45.71 28.26 44.92 29.03 44.13 C 28.28 42.75 27.55 41.37 26.81 40.00 C 25.94 40.00 24.18 40.00 23.31 40.00 Z" />
<path fill="#000000" opacity="1.00" d=" M 36.36 12.37 C 40.94 9.97 44.42 17.74 39.64 19.61 C 35.05 22.02 31.57 14.27 36.36 12.37 Z" />
</g>
</svg>
