<?xml version="1.0" encoding="UTF-8" ?>
<!DOCTYPE svg PUBLIC "-//W3C//DTD SVG 1.1//EN" "http://www.w3.org/Graphics/SVG/1.1/DTD/svg11.dtd">
<svg width="64pt" height="64pt" viewBox="0 0 64 64" version="1.1" xmlns="http://www.w3.org/2000/svg">
<g id="#ffffffff">
<path fill="#ffffff" opacity="1.00" d=" M 0.00 0.00 L 64.00 0.00 L 64.00 64.00 L 0.00 64.00 L 0.00 0.00 M 10.00 10.00 C 10.00 24.67 10.00 39.33 10.00 54.00 C 11.33 54.00 12.67 54.00 14.00 54.00 C 14.00 47.33 14.00 40.66 14.00 33.99 C 16.14 33.98 18.29 34.02 20.43 34.05 C 21.71 39.42 22.76 45.24 26.45 49.57 C 29.29 52.74 34.71 52.75 37.55 49.56 C 41.27 45.23 42.24 39.36 43.63 34.00 C 47.09 34.01 50.54 34.00 54.00 34.00 C 54.00 32.67 54.00 31.33 54.00 30.00 C 50.85 30.01 47.71 30.00 44.56 30.00 C 46.16 25.07 46.34 17.88 51.99 15.78 C 51.99 14.47 51.98 13.15 51.97 11.84 C 43.41 13.02 42.21 23.19 40.46 29.98 C 34.79 29.97 29.12 30.10 23.45 29.91 C 22.35 24.74 21.29 19.26 17.98 14.98 C 16.69 13.09 13.20 12.98 13.89 10.00 C 12.59 10.00 11.30 10.00 10.00 10.00 Z" />
<path fill="#ffffff" opacity="1.00" d=" M 14.08 16.51 C 17.40 20.24 18.23 25.33 19.44 30.00 C 17.62 30.00 15.81 30.00 14.00 30.00 C 14.03 25.51 13.92 21.01 14.08 16.51 Z" />
<path fill="#ffffff" opacity="1.00" d=" M 24.50 34.00 C 29.50 34.00 34.50 34.00 39.49 34.00 C 38.31 38.36 37.67 43.18 34.66 46.75 C 33.34 48.40 30.57 48.37 29.30 46.68 C 26.32 43.13 25.68 38.33 24.50 34.00 Z" />
</g>
<g id="#000000ff">
<path fill="#000000" opacity="1.00" d=" M 10.00 10.00 C 11.30 10.00 12.59 10.00 13.89 10.00 C 13.20 12.98 16.69 13.09 17.98 14.98 C 21.29 19.26 22.35 24.74 23.45 29.91 C 29.12 30.10 34.79 29.97 40.46 29.98 C 42.21 23.19 43.41 13.02 51.97 11.84 C 51.98 13.15 51.99 14.47 51.99 15.78 C 46.34 17.88 46.16 25.07 44.56 30.00 C 47.71 30.00 50.85 30.01 54.00 30.00 C 54.00 31.33 54.00 32.67 54.00 34.00 C 50.54 34.00 47.09 34.01 43.63 34.00 C 42.24 39.36 41.27 45.23 37.55 49.56 C 34.71 52.75 29.29 52.74 26.45 49.57 C 22.76 45.24 21.71 39.42 20.43 34.05 C 18.29 34.02 16.14 33.98 14.00 33.99 C 14.00 40.66 14.00 47.33 14.00 54.00 C 12.67 54.00 11.33 54.00 10.00 54.00 C 10.00 39.33 10.00 24.67 10.00 10.00 M 14.08 16.51 C 13.92 21.01 14.03 25.51 14.00 30.00 C 15.81 30.00 17.62 30.00 19.44 30.00 C 18.23 25.33 17.40 20.24 14.08 16.51 M 24.50 34.00 C 25.68 38.33 26.32 43.13 29.30 46.68 C 30.57 48.37 33.34 48.40 34.66 46.75 C 37.67 43.18 38.31 38.36 39.49 34.00 C 34.50 34.00 29.50 34.00 24.50 34.00 Z" />
</g>
</svg>
