<?xml version="1.0" encoding="UTF-8" ?>
<!DOCTYPE svg PUBLIC "-//W3C//DTD SVG 1.1//EN" "http://www.w3.org/Graphics/SVG/1.1/DTD/svg11.dtd">
<svg width="64pt" height="64pt" viewBox="0 0 64 64" version="1.1" xmlns="http://www.w3.org/2000/svg">
<g id="#ffffffff">
<path fill="#ffffff" opacity="1.00" d=" M 0.00 0.00 L 64.00 0.00 L 64.00 64.00 L 0.00 64.00 L 0.00 0.00 M 21.61 11.53 C 18.96 12.26 15.28 12.21 14.30 15.43 C 13.05 18.36 15.55 20.81 17.97 21.96 C 17.33 27.83 19.07 34.02 23.99 37.63 C 16.85 40.83 12.12 48.16 11.87 55.95 C 13.20 55.98 14.53 56.00 15.85 56.02 C 16.04 48.14 22.23 41.49 29.94 40.28 C 30.06 45.52 29.98 50.76 30.00 56.00 C 31.33 56.00 32.67 56.00 34.00 56.00 C 34.02 50.76 33.94 45.52 34.06 40.28 C 41.78 41.43 47.94 48.18 48.14 56.02 C 49.47 56.00 50.79 55.98 52.12 55.95 C 51.86 48.16 47.15 40.83 40.00 37.62 C 44.90 34.02 46.66 27.83 46.03 21.97 C 48.44 20.81 50.93 18.39 49.71 15.47 C 48.76 12.21 45.05 12.26 42.39 11.53 C 39.18 9.30 36.22 5.89 31.97 6.01 C 27.74 5.91 24.81 9.32 21.61 11.53 M 38.00 52.00 C 38.00 53.33 38.00 54.67 38.00 56.00 C 40.00 56.00 42.00 56.00 44.00 56.00 C 44.00 54.67 44.00 53.33 44.00 52.00 C 42.00 52.00 40.00 52.00 38.00 52.00 Z" />
<path fill="#ffffff" opacity="1.00" d=" M 25.01 14.13 C 27.39 12.31 29.73 9.33 33.12 10.12 C 36.39 11.00 38.22 14.30 41.31 15.53 C 43.11 15.99 44.97 16.23 46.76 16.77 C 42.78 19.25 37.75 17.47 33.33 18.02 C 33.59 17.08 33.80 16.13 33.96 15.17 C 33.07 13.68 30.88 13.67 29.99 15.17 C 30.16 16.13 30.38 17.08 30.65 18.02 C 26.24 17.47 21.22 19.24 17.24 16.77 C 19.82 15.88 22.90 16.13 25.01 14.13 Z" />
<path fill="#ffffff" opacity="1.00" d=" M 21.96 21.46 C 28.18 24.74 35.82 24.73 42.04 21.46 C 42.02 25.26 42.36 29.62 39.49 32.60 C 35.77 37.09 28.14 37.05 24.45 32.54 C 21.64 29.55 21.98 25.24 21.96 21.46 Z" />
</g>
<g id="#000000ff">
<path fill="#000000" opacity="1.00" d=" M 21.61 11.53 C 24.81 9.32 27.74 5.91 31.97 6.01 C 36.22 5.89 39.18 9.30 42.39 11.53 C 45.05 12.26 48.76 12.21 49.71 15.47 C 50.93 18.39 48.44 20.81 46.03 21.97 C 46.66 27.83 44.90 34.02 40.00 37.62 C 47.15 40.83 51.86 48.16 52.12 55.95 C 50.79 55.98 49.47 56.00 48.14 56.02 C 47.94 48.18 41.78 41.43 34.06 40.28 C 33.94 45.52 34.02 50.76 34.00 56.00 C 32.67 56.00 31.33 56.00 30.00 56.00 C 29.98 50.76 30.06 45.52 29.94 40.28 C 22.23 41.49 16.04 48.14 15.85 56.02 C 14.53 56.00 13.20 55.98 11.87 55.95 C 12.12 48.16 16.85 40.83 23.99 37.63 C 19.07 34.02 17.33 27.83 17.97 21.96 C 15.55 20.81 13.05 18.36 14.30 15.43 C 15.28 12.21 18.96 12.26 21.61 11.53 M 25.01 14.13 C 22.90 16.13 19.82 15.88 17.24 16.77 C 21.22 19.24 26.24 17.47 30.65 18.02 C 30.38 17.08 30.16 16.13 29.99 15.17 C 30.88 13.67 33.07 13.68 33.96 15.17 C 33.80 16.13 33.59 17.08 33.33 18.02 C 37.75 17.47 42.78 19.25 46.76 16.77 C 44.97 16.23 43.11 15.99 41.31 15.53 C 38.22 14.30 36.39 11.00 33.12 10.12 C 29.73 9.33 27.39 12.31 25.01 14.13 M 21.96 21.46 C 21.98 25.24 21.64 29.55 24.45 32.54 C 28.14 37.05 35.77 37.09 39.49 32.60 C 42.36 29.62 42.02 25.26 42.04 21.46 C 35.82 24.73 28.18 24.74 21.96 21.46 Z" />
<path fill="#000000" opacity="1.00" d=" M 38.00 52.00 C 40.00 52.00 42.00 52.00 44.00 52.00 C 44.00 53.33 44.00 54.67 44.00 56.00 C 42.00 56.00 40.00 56.00 38.00 56.00 C 38.00 54.67 38.00 53.33 38.00 52.00 Z" />
</g>
</svg>
