<?xml version="1.0" encoding="UTF-8" ?>
<!DOCTYPE svg PUBLIC "-//W3C//DTD SVG 1.1//EN" "http://www.w3.org/Graphics/SVG/1.1/DTD/svg11.dtd">
<svg width="64pt" height="64pt" viewBox="0 0 64 64" version="1.1" xmlns="http://www.w3.org/2000/svg">
<g id="#ffffffff">
<path fill="#ffffff" opacity="1.00" d=" M 0.00 0.00 L 64.00 0.00 L 64.00 64.00 L 0.00 64.00 L 0.00 0.00 M 19.49 10.58 C 16.31 9.85 12.57 9.57 9.98 11.95 C 5.48 15.92 5.04 22.98 7.61 28.15 C 8.34 31.94 8.21 35.98 10.32 39.40 C 9.03 40.97 7.57 42.77 8.07 44.96 C 8.53 48.16 12.26 48.72 13.85 51.13 C 17.12 55.51 22.55 58.09 28.01 57.99 C 34.74 57.94 40.90 54.20 45.47 49.48 C 47.66 46.92 51.34 45.87 52.80 42.65 C 55.07 38.82 54.00 33.66 50.37 31.07 C 53.34 28.78 56.24 26.40 59.13 24.01 C 57.52 22.05 55.92 20.08 54.31 18.12 C 52.77 19.37 51.24 20.63 49.69 21.87 C 50.44 22.81 51.19 23.74 51.93 24.68 C 48.69 27.26 45.58 30.07 41.79 31.85 C 41.15 30.60 40.54 29.32 39.96 28.04 C 41.99 27.35 45.00 27.29 45.82 24.88 C 46.65 22.83 44.60 21.45 43.26 20.34 C 43.87 17.69 44.56 14.64 42.77 12.27 C 37.64 4.77 25.71 3.93 19.49 10.58 Z" />
<path fill="#ffffff" opacity="1.00" d=" M 28.19 10.20 C 32.31 9.51 37.13 10.92 39.43 14.61 C 40.49 16.03 39.51 17.79 39.31 19.33 C 29.45 17.43 17.98 16.72 9.91 23.83 C 10.18 20.58 10.01 16.23 13.33 14.41 C 14.19 14.27 15.93 13.98 16.79 13.84 C 16.43 14.58 15.71 16.07 15.34 16.82 C 16.18 17.28 17.86 18.19 18.69 18.65 C 20.83 14.94 23.79 11.18 28.19 10.20 Z" />
<path fill="#ffffff" opacity="1.00" d=" M 15.77 24.63 C 21.37 21.64 28.16 21.40 34.22 22.93 C 36.55 23.12 35.97 25.83 36.20 27.47 C 33.48 28.93 33.22 32.99 36.18 34.35 C 36.48 34.01 37.10 33.34 37.41 33.01 C 38.85 34.37 40.47 35.54 42.26 36.41 C 41.63 40.76 35.80 40.97 33.69 37.62 C 29.00 38.35 24.23 37.86 19.51 38.02 C 20.53 42.50 21.82 48.56 26.98 49.89 C 31.13 50.80 33.42 46.55 33.97 43.12 C 37.83 44.80 42.95 43.94 45.18 40.11 C 46.59 38.22 45.86 35.83 45.48 33.74 C 47.68 34.13 50.44 35.18 49.98 37.97 C 50.34 42.05 46.08 43.41 43.62 45.62 C 39.42 49.82 34.19 53.76 28.03 53.99 C 22.68 54.15 17.74 50.91 15.25 46.26 C 14.00 45.89 11.82 45.77 12.02 43.95 C 11.98 41.82 14.56 42.06 16.00 41.85 C 16.00 40.66 16.00 39.48 16.00 38.30 C 12.64 37.76 12.25 33.75 12.03 31.02 C 11.53 28.25 13.41 25.82 15.77 24.63 M 17.77 29.95 C 19.04 29.97 20.31 29.98 21.59 29.98 C 22.67 27.12 25.62 28.08 27.18 29.87 C 26.39 29.91 24.79 30.00 24.00 30.04 C 24.00 31.36 24.00 32.68 24.00 34.00 C 26.66 34.00 29.32 34.00 31.99 34.00 C 32.00 32.73 32.02 31.46 32.04 30.19 C 30.08 27.12 27.22 23.38 23.08 24.11 C 20.08 24.48 18.36 27.23 17.77 29.95 Z" />
<path fill="#ffffff" opacity="1.00" d=" M 24.56 42.02 C 26.40 42.01 28.25 42.03 30.09 42.06 C 29.36 43.42 29.52 46.76 27.20 45.82 C 25.96 44.85 25.35 43.33 24.56 42.02 Z" />
</g>
<g id="#000000ff">
<path fill="#000000" opacity="1.00" d=" M 19.49 10.58 C 25.71 3.93 37.64 4.77 42.77 12.27 C 44.56 14.64 43.87 17.69 43.26 20.34 C 44.60 21.45 46.65 22.83 45.82 24.88 C 45.00 27.29 41.99 27.35 39.96 28.04 C 40.54 29.32 41.15 30.60 41.79 31.85 C 45.58 30.07 48.69 27.26 51.93 24.68 C 51.19 23.74 50.44 22.81 49.69 21.87 C 51.24 20.63 52.77 19.37 54.31 18.12 C 55.92 20.08 57.52 22.05 59.13 24.01 C 56.24 26.40 53.34 28.78 50.37 31.07 C 54.00 33.66 55.07 38.82 52.80 42.65 C 51.34 45.87 47.66 46.92 45.47 49.48 C 40.90 54.20 34.74 57.94 28.01 57.99 C 22.55 58.09 17.12 55.51 13.85 51.13 C 12.26 48.72 8.53 48.16 8.07 44.96 C 7.57 42.77 9.03 40.97 10.32 39.40 C 8.21 35.98 8.34 31.94 7.61 28.15 C 5.04 22.98 5.48 15.92 9.98 11.95 C 12.57 9.57 16.31 9.85 19.49 10.58 M 28.19 10.20 C 23.79 11.18 20.83 14.94 18.69 18.65 C 17.86 18.19 16.18 17.28 15.34 16.82 C 15.71 16.07 16.43 14.58 16.79 13.84 C 15.93 13.98 14.19 14.27 13.33 14.41 C 10.01 16.23 10.18 20.58 9.91 23.83 C 17.98 16.72 29.45 17.43 39.31 19.33 C 39.51 17.79 40.49 16.03 39.43 14.61 C 37.13 10.92 32.31 9.51 28.19 10.20 M 15.77 24.63 C 13.41 25.82 11.53 28.25 12.03 31.02 C 12.25 33.75 12.64 37.76 16.00 38.30 C 16.00 39.48 16.00 40.66 16.00 41.85 C 14.56 42.06 11.98 41.82 12.02 43.95 C 11.82 45.77 14.00 45.89 15.25 46.26 C 17.74 50.91 22.68 54.15 28.03 53.99 C 34.19 53.76 39.42 49.82 43.62 45.62 C 46.08 43.41 50.34 42.05 49.98 37.97 C 50.44 35.18 47.68 34.13 45.48 33.74 C 45.86 35.83 46.59 38.22 45.18 40.11 C 42.95 43.94 37.83 44.80 33.97 43.12 C 33.42 46.55 31.13 50.80 26.98 49.89 C 21.82 48.56 20.53 42.50 19.51 38.02 C 24.23 37.86 29.00 38.35 33.69 37.62 C 35.80 40.97 41.63 40.76 42.26 36.41 C 40.47 35.54 38.85 34.37 37.41 33.01 C 37.10 33.34 36.48 34.01 36.18 34.35 C 33.22 32.99 33.48 28.93 36.20 27.47 C 35.97 25.83 36.55 23.12 34.22 22.93 C 28.16 21.40 21.37 21.64 15.77 24.63 M 24.56 42.02 C 25.35 43.33 25.96 44.85 27.20 45.82 C 29.52 46.76 29.36 43.42 30.09 42.06 C 28.25 42.03 26.40 42.01 24.56 42.02 Z" />
<path fill="#000000" opacity="1.00" d=" M 17.77 29.95 C 18.36 27.23 20.08 24.48 23.08 24.11 C 27.22 23.38 30.08 27.12 32.04 30.19 C 32.02 31.46 32.00 32.73 31.99 34.00 C 29.32 34.00 26.66 34.00 24.00 34.00 C 24.00 32.68 24.00 31.36 24.00 30.04 C 24.79 30.00 26.39 29.91 27.18 29.87 C 25.62 28.08 22.67 27.12 21.59 29.98 C 20.31 29.98 19.04 29.97 17.77 29.95 Z" />
</g>
</svg>
