<?xml version="1.0" encoding="UTF-8" ?>
<!DOCTYPE svg PUBLIC "-//W3C//DTD SVG 1.1//EN" "http://www.w3.org/Graphics/SVG/1.1/DTD/svg11.dtd">
<svg width="64pt" height="64pt" viewBox="0 0 64 64" version="1.1" xmlns="http://www.w3.org/2000/svg">
<g id="#ffffffff">
<path fill="#ffffff" opacity="1.00" d=" M 0.00 0.00 L 64.00 0.00 L 64.00 64.00 L 0.00 64.00 L 0.00 0.00 M 6.00 10.00 C 6.00 22.00 6.00 34.00 6.00 46.00 C 9.33 46.00 12.67 46.00 16.00 46.00 C 16.01 49.40 15.99 52.79 16.01 56.19 C 19.54 53.32 23.12 50.53 26.63 47.64 C 27.63 46.96 28.52 45.70 29.91 45.99 C 39.27 46.00 48.63 46.00 58.00 46.00 C 58.00 34.00 58.00 22.00 58.00 10.00 C 40.67 10.00 23.33 10.00 6.00 10.00 Z" />
<path fill="#ffffff" opacity="1.00" d=" M 10.00 14.00 C 24.67 14.00 39.33 14.00 54.00 14.00 C 54.00 23.33 54.00 32.67 54.00 42.00 C 45.08 42.02 36.16 41.97 27.25 42.02 C 24.87 43.99 22.44 45.90 20.01 47.80 C 20.00 45.87 20.00 43.94 20.00 42.00 C 16.67 42.00 13.33 42.00 10.00 42.00 C 10.00 32.67 10.00 23.33 10.00 14.00 M 32.00 18.02 C 30.97 20.31 29.96 22.60 28.93 24.88 C 26.52 25.14 24.11 25.39 21.71 25.68 C 23.27 27.44 25.12 28.92 26.92 30.42 C 26.75 33.01 25.98 35.52 25.50 38.07 C 27.68 36.84 29.84 35.58 31.99 34.31 C 34.17 35.53 36.33 36.78 38.50 38.00 C 37.98 35.51 37.33 33.03 37.03 30.50 C 38.92 28.97 40.72 27.35 42.49 25.70 C 40.02 25.41 37.55 25.14 35.07 24.88 C 34.04 22.59 33.04 20.30 32.00 18.02 Z" />
</g>
<g id="#000000ff">
<path fill="#000000" opacity="1.00" d=" M 6.00 10.00 C 23.33 10.00 40.67 10.00 58.00 10.00 C 58.00 22.00 58.00 34.00 58.00 46.00 C 48.63 46.00 39.27 46.00 29.91 45.99 C 28.52 45.70 27.63 46.96 26.63 47.64 C 23.12 50.53 19.54 53.32 16.01 56.19 C 15.99 52.79 16.01 49.40 16.00 46.00 C 12.67 46.00 9.33 46.00 6.00 46.00 C 6.00 34.00 6.00 22.00 6.00 10.00 M 10.00 14.00 C 10.00 23.33 10.00 32.67 10.00 42.00 C 13.33 42.00 16.67 42.00 20.00 42.00 C 20.00 43.94 20.00 45.87 20.01 47.80 C 22.44 45.90 24.87 43.99 27.25 42.02 C 36.16 41.97 45.08 42.02 54.00 42.00 C 54.00 32.67 54.00 23.33 54.00 14.00 C 39.33 14.00 24.67 14.00 10.00 14.00 Z" />
<path fill="#000000" opacity="1.00" d=" M 32.00 18.02 C 33.04 20.30 34.04 22.59 35.07 24.88 C 37.55 25.14 40.02 25.41 42.49 25.70 C 40.72 27.35 38.92 28.97 37.03 30.50 C 37.33 33.03 37.98 35.51 38.50 38.00 C 36.33 36.78 34.17 35.53 31.99 34.31 C 29.84 35.58 27.68 36.84 25.50 38.07 C 25.98 35.52 26.75 33.01 26.92 30.42 C 25.12 28.92 23.27 27.44 21.71 25.68 C 24.11 25.39 26.52 25.14 28.93 24.88 C 29.96 22.60 30.97 20.31 32.00 18.02 Z" />
</g>
</svg>
