<?xml version="1.0" encoding="UTF-8" ?>
<!DOCTYPE svg PUBLIC "-//W3C//DTD SVG 1.1//EN" "http://www.w3.org/Graphics/SVG/1.1/DTD/svg11.dtd">
<svg width="64pt" height="64pt" viewBox="0 0 64 64" version="1.1" xmlns="http://www.w3.org/2000/svg">
<g id="#ffffffff">
<path fill="#ffffff" opacity="1.00" d=" M 0.00 0.00 L 64.00 0.00 L 64.00 64.00 L 0.00 64.00 L 0.00 0.00 M 48.45 5.86 C 45.41 11.55 42.36 17.25 39.36 22.96 C 36.86 22.13 34.50 20.95 32.02 20.08 C 29.41 19.57 27.10 21.10 25.26 22.75 C 21.90 21.22 18.03 22.37 16.28 25.69 C 12.88 26.12 10.24 28.59 9.73 32.00 C 8.46 32.01 7.18 32.01 5.91 32.00 C 5.82 41.21 10.17 51.05 18.78 55.17 C 27.21 59.02 37.52 59.00 45.83 54.85 C 54.09 50.55 58.09 40.97 58.10 32.00 C 56.82 32.01 55.55 32.00 54.28 32.00 C 53.70 30.57 53.42 28.87 52.13 27.87 C 49.52 25.89 47.89 22.63 44.49 21.82 C 47.01 17.14 49.51 12.44 51.99 7.74 C 50.81 7.11 49.63 6.48 48.45 5.86 Z" />
<path fill="#ffffff" opacity="1.00" d=" M 27.57 27.99 C 28.18 26.59 28.37 24.50 30.18 24.12 C 31.97 23.46 33.14 25.16 34.39 26.07 C 36.10 25.89 37.57 26.41 38.42 27.99 C 39.48 27.99 40.53 27.99 41.59 28.00 C 42.40 26.91 43.25 25.63 44.82 26.08 C 46.14 26.90 45.87 28.55 46.14 29.86 C 47.88 29.86 49.46 30.37 50.44 31.89 C 47.55 32.03 44.66 32.01 41.77 32.00 C 41.77 31.50 41.76 30.50 41.76 30.00 C 41.38 30.00 40.62 30.00 40.23 30.00 C 40.23 30.50 40.23 31.50 40.23 32.00 C 36.07 32.00 31.92 32.00 27.77 32.00 C 27.77 31.50 27.76 30.50 27.76 30.00 C 27.38 30.00 26.62 30.00 26.23 30.00 C 26.23 30.50 26.23 31.50 26.22 32.00 C 22.00 31.98 17.78 32.08 13.56 31.90 C 14.61 30.00 16.52 29.72 18.29 30.85 C 18.72 30.55 19.59 29.95 20.02 29.65 C 20.16 28.37 19.89 26.85 21.17 26.06 C 22.81 25.67 23.67 27.14 24.65 28.13 C 25.38 28.09 26.84 28.02 27.57 27.99 M 30.17 28.17 C 29.65 29.79 30.20 30.34 31.83 29.83 C 32.34 28.20 31.79 27.65 30.17 28.17 Z" />
<path fill="#ffffff" opacity="1.00" d=" M 10.09 36.04 C 24.72 35.98 39.34 35.97 53.97 36.04 C 52.89 42.34 49.57 48.65 43.59 51.50 C 36.42 54.87 27.61 54.88 20.44 51.52 C 14.46 48.66 11.15 42.34 10.09 36.04 Z" />
</g>
<g id="#000000ff">
<path fill="#000000" opacity="1.00" d=" M 48.45 5.86 C 49.63 6.48 50.81 7.11 51.99 7.74 C 49.51 12.44 47.01 17.14 44.49 21.82 C 47.89 22.63 49.52 25.89 52.13 27.87 C 53.42 28.87 53.70 30.57 54.28 32.00 C 55.55 32.00 56.82 32.01 58.10 32.00 C 58.09 40.97 54.09 50.55 45.83 54.85 C 37.52 59.00 27.21 59.02 18.78 55.17 C 10.17 51.05 5.82 41.21 5.91 32.00 C 7.18 32.01 8.46 32.01 9.73 32.00 C 10.24 28.59 12.88 26.12 16.28 25.69 C 18.03 22.37 21.90 21.22 25.26 22.75 C 27.10 21.10 29.41 19.57 32.02 20.08 C 34.50 20.95 36.86 22.13 39.36 22.96 C 42.36 17.25 45.41 11.55 48.45 5.86 M 27.57 27.99 C 26.84 28.02 25.38 28.09 24.65 28.13 C 23.67 27.14 22.81 25.67 21.17 26.06 C 19.89 26.85 20.16 28.37 20.02 29.65 C 19.59 29.95 18.72 30.55 18.29 30.85 C 16.52 29.72 14.61 30.00 13.56 31.90 C 17.78 32.08 22.00 31.98 26.22 32.00 C 26.23 31.50 26.23 30.50 26.23 30.00 C 26.62 30.00 27.38 30.00 27.76 30.00 C 27.76 30.50 27.77 31.50 27.77 32.00 C 31.92 32.00 36.07 32.00 40.23 32.00 C 40.23 31.50 40.23 30.50 40.23 30.00 C 40.62 30.00 41.38 30.00 41.76 30.00 C 41.76 30.50 41.77 31.50 41.77 32.00 C 44.66 32.01 47.55 32.03 50.44 31.89 C 49.46 30.37 47.88 29.86 46.14 29.86 C 45.87 28.55 46.14 26.90 44.82 26.08 C 43.25 25.63 42.40 26.91 41.59 28.00 C 40.53 27.99 39.48 27.99 38.42 27.99 C 37.57 26.41 36.10 25.89 34.39 26.07 C 33.14 25.16 31.97 23.46 30.18 24.12 C 28.37 24.50 28.18 26.59 27.57 27.99 M 10.09 36.04 C 11.15 42.34 14.46 48.66 20.44 51.52 C 27.61 54.88 36.42 54.87 43.59 51.50 C 49.57 48.65 52.89 42.34 53.97 36.04 C 39.34 35.97 24.72 35.98 10.09 36.04 Z" />
<path fill="#000000" opacity="1.00" d=" M 30.17 28.17 C 31.79 27.65 32.34 28.20 31.83 29.83 C 30.20 30.34 29.65 29.79 30.17 28.17 Z" />
</g>
</svg>
