<?xml version="1.0" encoding="UTF-8" ?>
<!DOCTYPE svg PUBLIC "-//W3C//DTD SVG 1.1//EN" "http://www.w3.org/Graphics/SVG/1.1/DTD/svg11.dtd">
<svg width="64pt" height="64pt" viewBox="0 0 64 64" version="1.1" xmlns="http://www.w3.org/2000/svg">
<g id="#ffffffff">
<path fill="#ffffff" opacity="1.00" d=" M 0.00 0.00 L 64.00 0.00 L 64.00 64.00 L 0.00 64.00 L 0.00 0.00 M 18.40 13.98 C 14.94 14.01 11.47 14.01 8.00 14.00 C 8.00 15.33 8.00 16.67 8.00 18.00 C 10.90 18.00 13.80 18.00 16.70 17.99 C 16.10 20.62 15.91 23.31 15.96 26.00 C 17.30 26.00 18.64 26.00 19.97 26.00 C 19.79 21.61 20.09 16.69 23.54 13.50 C 28.20 8.64 36.49 9.13 41.02 13.92 C 35.58 14.35 28.56 12.45 25.00 17.92 C 31.17 18.13 37.35 17.87 43.53 18.08 C 43.91 20.70 44.06 23.35 44.03 26.00 C 45.36 26.00 46.69 26.00 48.03 26.00 C 48.06 23.32 47.93 20.65 47.58 17.99 C 50.38 18.00 53.19 18.00 56.00 18.00 C 56.00 16.67 56.00 15.33 56.00 14.00 C 52.63 14.00 49.27 14.01 45.90 13.98 C 43.78 10.83 40.89 8.09 37.22 6.90 C 30.22 4.22 22.12 7.67 18.40 13.98 M 27.16 20.09 C 24.89 21.23 26.39 24.85 28.80 23.90 C 31.15 22.82 29.60 19.13 27.16 20.09 M 35.28 24.14 C 32.79 24.96 34.37 28.92 36.76 27.86 C 39.19 26.98 37.59 23.08 35.28 24.14 M 10.00 30.00 C 10.06 34.40 9.87 38.80 10.08 43.20 C 10.50 50.83 17.21 57.57 24.86 57.92 C 29.59 58.07 34.34 58.06 39.07 57.93 C 46.75 57.60 53.54 50.86 53.92 43.17 C 54.13 38.78 53.94 34.39 54.00 30.00 C 39.33 30.00 24.67 30.00 10.00 30.00 Z" />
<path fill="#ffffff" opacity="1.00" d=" M 14.01 34.00 C 26.00 34.00 38.00 34.00 49.99 34.00 C 49.91 39.60 51.01 46.26 46.42 50.51 C 41.62 55.52 34.15 53.65 27.98 54.01 C 23.51 54.35 18.70 52.69 16.16 48.83 C 13.05 44.52 14.21 38.95 14.01 34.00 Z" />
</g>
<g id="#000000ff">
<path fill="#000000" opacity="1.00" d=" M 18.40 13.98 C 22.12 7.67 30.22 4.22 37.22 6.90 C 40.89 8.09 43.78 10.83 45.90 13.98 C 49.27 14.01 52.63 14.00 56.00 14.00 C 56.00 15.33 56.00 16.67 56.00 18.00 C 53.19 18.00 50.38 18.00 47.58 17.99 C 47.93 20.65 48.06 23.32 48.03 26.00 C 46.69 26.00 45.36 26.00 44.03 26.00 C 44.06 23.35 43.91 20.70 43.53 18.08 C 37.35 17.87 31.17 18.13 25.00 17.92 C 28.56 12.45 35.58 14.35 41.02 13.92 C 36.49 9.13 28.20 8.64 23.54 13.50 C 20.09 16.69 19.79 21.61 19.97 26.00 C 18.64 26.00 17.30 26.00 15.96 26.00 C 15.91 23.31 16.10 20.62 16.70 17.99 C 13.80 18.00 10.90 18.00 8.00 18.00 C 8.00 16.67 8.00 15.33 8.00 14.00 C 11.47 14.01 14.94 14.01 18.40 13.98 Z" />
<path fill="#000000" opacity="1.00" d=" M 27.16 20.09 C 29.60 19.13 31.15 22.82 28.80 23.90 C 26.39 24.85 24.89 21.23 27.16 20.09 Z" />
<path fill="#000000" opacity="1.00" d=" M 35.28 24.14 C 37.59 23.08 39.19 26.98 36.76 27.86 C 34.37 28.92 32.79 24.96 35.28 24.14 Z" />
<path fill="#000000" opacity="1.00" d=" M 10.00 30.00 C 24.67 30.00 39.33 30.00 54.00 30.00 C 53.94 34.39 54.13 38.78 53.92 43.17 C 53.54 50.86 46.75 57.60 39.07 57.93 C 34.34 58.06 29.59 58.07 24.86 57.92 C 17.21 57.57 10.50 50.83 10.08 43.20 C 9.87 38.80 10.06 34.40 10.00 30.00 M 14.01 34.00 C 14.21 38.95 13.05 44.52 16.16 48.83 C 18.70 52.69 23.51 54.35 27.98 54.01 C 34.15 53.65 41.62 55.52 46.42 50.51 C 51.01 46.26 49.91 39.60 49.99 34.00 C 38.00 34.00 26.00 34.00 14.01 34.00 Z" />
</g>
</svg>
