<?xml version="1.0" encoding="UTF-8" ?>
<!DOCTYPE svg PUBLIC "-//W3C//DTD SVG 1.1//EN" "http://www.w3.org/Graphics/SVG/1.1/DTD/svg11.dtd">
<svg width="64pt" height="64pt" viewBox="0 0 64 64" version="1.1" xmlns="http://www.w3.org/2000/svg">
<g id="#ffffffff">
<path fill="#ffffff" opacity="1.00" d=" M 0.00 0.00 L 64.00 0.00 L 64.00 64.00 L 0.00 64.00 L 0.00 0.00 M 24.91 8.84 C 23.53 11.95 23.57 15.48 22.86 18.78 C 22.29 24.06 19.99 28.88 18.31 33.86 C 17.73 33.91 16.58 34.02 16.01 34.08 C 16.00 33.56 16.00 32.52 15.99 32.00 C 12.66 32.00 9.33 32.00 6.00 32.00 C 6.00 40.67 6.00 49.33 6.00 58.00 C 9.33 58.00 12.67 58.00 16.00 58.00 C 16.00 56.00 16.00 54.00 16.00 52.00 C 21.53 52.05 28.02 52.86 32.02 48.12 C 35.97 52.90 42.49 52.02 48.00 52.00 C 48.00 54.00 48.00 56.00 48.00 58.00 C 51.33 58.00 54.67 58.00 58.00 58.00 C 58.00 49.33 58.00 40.67 58.00 32.00 C 54.67 32.00 51.35 32.00 48.02 32.00 C 48.00 32.56 47.97 33.68 47.96 34.24 C 47.43 34.12 46.38 33.88 45.85 33.75 C 42.67 27.18 41.06 20.03 40.18 12.82 C 40.06 9.82 38.30 6.48 35.03 6.16 C 31.56 6.18 26.97 5.21 24.91 8.84 Z" />
<path fill="#ffffff" opacity="1.00" d=" M 28.30 11.18 C 28.68 10.77 29.44 9.96 29.82 9.56 C 30.22 20.06 29.90 30.57 30.01 41.08 C 30.41 44.21 28.16 47.42 24.99 47.85 C 22.01 48.16 19.00 47.96 16.00 47.99 C 16.00 44.72 16.00 41.44 16.00 38.16 C 17.83 37.87 20.11 38.10 21.35 36.41 C 22.87 33.64 23.66 30.54 24.83 27.62 C 26.91 22.36 26.86 16.60 28.30 11.18 Z" />
<path fill="#ffffff" opacity="1.00" d=" M 34.18 9.56 C 36.84 11.52 36.24 15.19 36.98 18.07 C 37.60 24.24 39.93 30.03 42.26 35.72 C 43.18 38.02 45.95 37.92 48.00 38.16 C 48.00 41.44 48.00 44.71 48.00 47.99 C 45.00 47.96 41.99 48.16 38.99 47.85 C 35.80 47.41 33.56 44.16 33.99 41.01 C 34.10 30.53 33.79 20.03 34.18 9.56 Z" />
<path fill="#ffffff" opacity="1.00" d=" M 10.00 36.00 C 10.50 36.00 11.50 36.00 12.00 36.00 C 12.00 42.00 12.00 48.00 12.00 54.00 C 11.50 54.00 10.50 54.00 10.00 54.00 C 10.00 48.00 10.00 42.00 10.00 36.00 Z" />
<path fill="#ffffff" opacity="1.00" d=" M 52.00 36.00 C 52.50 36.00 53.50 36.00 54.00 36.00 C 54.00 42.00 54.00 48.00 54.00 54.00 C 53.50 54.00 52.50 54.00 52.00 54.00 C 52.00 48.00 52.00 42.00 52.00 36.00 Z" />
</g>
<g id="#000000ff">
<path fill="#000000" opacity="1.00" d=" M 24.91 8.84 C 26.97 5.21 31.56 6.18 35.03 6.16 C 38.30 6.48 40.06 9.82 40.18 12.82 C 41.06 20.03 42.67 27.18 45.85 33.75 C 46.38 33.88 47.43 34.12 47.96 34.24 C 47.97 33.68 48.00 32.56 48.02 32.00 C 51.35 32.00 54.67 32.00 58.00 32.00 C 58.00 40.67 58.00 49.33 58.00 58.00 C 54.67 58.00 51.33 58.00 48.00 58.00 C 48.00 56.00 48.00 54.00 48.00 52.00 C 42.49 52.02 35.97 52.90 32.02 48.12 C 28.02 52.86 21.53 52.05 16.00 52.00 C 16.00 54.00 16.00 56.00 16.00 58.00 C 12.67 58.00 9.33 58.00 6.00 58.00 C 6.00 49.33 6.00 40.67 6.00 32.00 C 9.33 32.00 12.66 32.00 15.99 32.00 C 16.00 32.52 16.00 33.56 16.01 34.08 C 16.58 34.02 17.73 33.91 18.31 33.86 C 19.99 28.88 22.29 24.06 22.86 18.78 C 23.57 15.48 23.53 11.95 24.91 8.84 M 28.30 11.18 C 26.86 16.60 26.91 22.36 24.83 27.62 C 23.66 30.54 22.87 33.64 21.35 36.41 C 20.11 38.10 17.83 37.87 16.00 38.16 C 16.00 41.44 16.00 44.72 16.00 47.99 C 19.00 47.96 22.01 48.16 24.99 47.85 C 28.16 47.42 30.41 44.21 30.01 41.08 C 29.90 30.57 30.22 20.06 29.82 9.56 C 29.44 9.96 28.68 10.77 28.30 11.18 M 34.18 9.56 C 33.79 20.03 34.10 30.53 33.99 41.01 C 33.56 44.16 35.80 47.41 38.99 47.85 C 41.99 48.16 45.00 47.96 48.00 47.99 C 48.00 44.71 48.00 41.44 48.00 38.16 C 45.95 37.92 43.18 38.02 42.26 35.72 C 39.93 30.03 37.60 24.24 36.98 18.07 C 36.24 15.19 36.84 11.52 34.18 9.56 M 10.00 36.00 C 10.00 42.00 10.00 48.00 10.00 54.00 C 10.50 54.00 11.50 54.00 12.00 54.00 C 12.00 48.00 12.00 42.00 12.00 36.00 C 11.50 36.00 10.50 36.00 10.00 36.00 M 52.00 36.00 C 52.00 42.00 52.00 48.00 52.00 54.00 C 52.50 54.00 53.50 54.00 54.00 54.00 C 54.00 48.00 54.00 42.00 54.00 36.00 C 53.50 36.00 52.50 36.00 52.00 36.00 Z" />
</g>
</svg>
