<?xml version="1.0" encoding="UTF-8" ?>
<!DOCTYPE svg PUBLIC "-//W3C//DTD SVG 1.1//EN" "http://www.w3.org/Graphics/SVG/1.1/DTD/svg11.dtd">
<svg width="64pt" height="64pt" viewBox="0 0 64 64" version="1.1" xmlns="http://www.w3.org/2000/svg">
<g id="#ffffffff">
<path fill="#ffffff" opacity="1.00" d=" M 0.00 0.00 L 64.00 0.00 L 64.00 64.00 L 0.00 64.00 L 0.00 0.00 M 6.07 24.02 C 6.35 31.34 11.95 37.62 18.88 39.56 C 20.04 38.41 21.20 37.26 22.37 36.11 C 15.75 35.52 9.85 29.85 10.04 23.02 C 9.76 15.29 17.54 8.67 25.14 10.22 C 31.14 11.06 35.49 16.51 36.11 22.37 C 37.26 21.20 38.41 20.04 39.57 18.88 C 37.54 11.57 30.65 5.85 22.94 6.02 C 13.53 5.76 5.17 14.63 6.07 24.02 M 55.21 6.16 C 52.75 7.05 54.52 11.03 56.78 9.81 C 59.24 8.95 57.55 5.05 55.21 6.16 M 49.23 12.18 C 46.78 13.10 48.41 16.85 50.79 15.90 C 53.17 14.93 51.56 11.03 49.23 12.18 M 19.40 15.99 C 19.14 18.40 18.86 20.81 18.59 23.22 C 20.63 23.38 22.72 22.73 24.72 23.33 C 25.52 24.76 25.42 26.89 23.84 27.74 C 21.74 27.56 20.20 25.62 17.99 25.64 C 18.51 28.45 21.03 30.55 23.95 29.95 C 27.33 29.76 28.98 25.63 27.43 22.86 C 26.45 20.47 23.52 20.83 21.44 20.86 C 21.52 20.21 21.68 18.91 21.76 18.26 C 23.67 18.27 25.58 18.27 27.49 18.27 C 27.54 17.72 27.64 16.62 27.69 16.06 C 24.93 15.97 22.16 16.02 19.40 15.99 M 43.13 18.13 C 40.86 19.28 42.44 22.85 44.85 21.89 C 47.14 20.74 45.55 17.11 43.13 18.13 M 37.11 24.12 C 34.88 25.32 36.45 28.85 38.86 27.89 C 41.13 26.70 39.53 23.10 37.11 24.12 M 42.19 27.91 C 47.55 28.75 52.49 32.61 53.63 38.07 C 55.58 45.44 49.72 53.47 42.13 53.91 C 35.13 54.74 28.79 49.00 27.91 42.19 C 26.78 43.34 25.65 44.49 24.53 45.64 C 26.79 52.66 33.48 58.11 40.99 57.98 C 50.42 58.27 58.80 49.41 57.94 40.01 C 57.67 32.84 52.32 26.73 45.65 24.52 C 44.49 25.65 43.34 26.78 42.19 27.91 M 31.24 30.20 C 28.76 31.04 30.48 34.97 32.84 33.88 C 35.17 32.88 33.51 29.01 31.24 30.20 M 36.67 38.40 C 38.11 38.04 39.55 37.69 40.98 37.33 C 40.94 40.89 40.96 44.44 40.95 48.00 C 41.71 48.00 43.24 48.00 44.00 48.00 C 44.01 43.25 43.98 38.51 44.02 33.76 C 41.49 35.03 37.04 34.89 36.67 38.40 M 25.23 36.20 C 22.77 37.07 24.46 40.93 26.81 39.88 C 29.19 38.91 27.53 35.01 25.23 36.20 M 19.23 42.16 C 16.74 43.01 18.47 46.98 20.77 45.82 C 23.23 44.94 21.56 41.07 19.23 42.16 M 13.12 48.13 C 10.83 49.17 12.50 52.98 14.76 51.80 C 17.27 50.93 15.49 47.01 13.12 48.13 M 7.16 54.19 C 4.81 55.22 6.46 58.86 8.82 57.88 C 11.19 56.86 9.53 53.01 7.16 54.19 Z" />
</g>
<g id="#000000ff">
<path fill="#000000" opacity="1.00" d=" M 6.07 24.02 C 5.17 14.63 13.53 5.76 22.94 6.02 C 30.65 5.85 37.54 11.57 39.57 18.88 C 38.41 20.04 37.26 21.20 36.11 22.37 C 35.49 16.51 31.14 11.06 25.14 10.22 C 17.54 8.67 9.76 15.29 10.04 23.02 C 9.85 29.85 15.75 35.52 22.37 36.11 C 21.20 37.26 20.04 38.41 18.88 39.56 C 11.95 37.62 6.35 31.34 6.07 24.02 Z" />
<path fill="#000000" opacity="1.00" d=" M 55.21 6.16 C 57.55 5.05 59.24 8.95 56.78 9.81 C 54.52 11.03 52.75 7.05 55.21 6.16 Z" />
<path fill="#000000" opacity="1.00" d=" M 49.23 12.18 C 51.56 11.03 53.17 14.93 50.79 15.90 C 48.41 16.85 46.78 13.10 49.23 12.18 Z" />
<path fill="#000000" opacity="1.00" d=" M 19.40 15.99 C 22.16 16.02 24.93 15.97 27.69 16.06 C 27.64 16.62 27.54 17.72 27.49 18.27 C 25.58 18.27 23.67 18.27 21.76 18.26 C 21.68 18.91 21.52 20.21 21.44 20.86 C 23.52 20.83 26.45 20.47 27.43 22.86 C 28.98 25.63 27.33 29.76 23.95 29.95 C 21.03 30.55 18.51 28.45 17.99 25.64 C 20.20 25.62 21.74 27.56 23.84 27.74 C 25.42 26.89 25.52 24.76 24.72 23.33 C 22.72 22.73 20.63 23.38 18.59 23.22 C 18.86 20.81 19.14 18.40 19.40 15.99 Z" />
<path fill="#000000" opacity="1.00" d=" M 43.13 18.13 C 45.55 17.11 47.14 20.74 44.85 21.89 C 42.44 22.85 40.86 19.28 43.13 18.13 Z" />
<path fill="#000000" opacity="1.00" d=" M 37.11 24.12 C 39.53 23.10 41.13 26.70 38.86 27.89 C 36.45 28.85 34.88 25.32 37.11 24.12 Z" />
<path fill="#000000" opacity="1.00" d=" M 42.19 27.91 C 43.34 26.78 44.49 25.65 45.65 24.52 C 52.32 26.73 57.67 32.84 57.94 40.01 C 58.80 49.41 50.42 58.27 40.99 57.98 C 33.48 58.11 26.79 52.66 24.53 45.64 C 25.65 44.49 26.78 43.34 27.91 42.19 C 28.79 49.00 35.13 54.74 42.13 53.91 C 49.72 53.47 55.58 45.44 53.63 38.07 C 52.49 32.61 47.55 28.75 42.19 27.91 Z" />
<path fill="#000000" opacity="1.00" d=" M 31.24 30.20 C 33.51 29.01 35.17 32.88 32.84 33.88 C 30.48 34.97 28.76 31.04 31.24 30.20 Z" />
<path fill="#000000" opacity="1.00" d=" M 36.67 38.40 C 37.04 34.89 41.49 35.03 44.02 33.76 C 43.98 38.51 44.01 43.25 44.00 48.00 C 43.24 48.00 41.71 48.00 40.95 48.00 C 40.96 44.44 40.94 40.89 40.98 37.33 C 39.55 37.69 38.11 38.04 36.67 38.40 Z" />
<path fill="#000000" opacity="1.00" d=" M 25.23 36.20 C 27.53 35.01 29.19 38.91 26.81 39.88 C 24.46 40.93 22.77 37.07 25.23 36.20 Z" />
<path fill="#000000" opacity="1.00" d=" M 19.23 42.16 C 21.56 41.07 23.23 44.94 20.77 45.82 C 18.47 46.98 16.74 43.01 19.23 42.16 Z" />
<path fill="#000000" opacity="1.00" d=" M 13.12 48.13 C 15.49 47.01 17.27 50.93 14.76 51.80 C 12.50 52.98 10.83 49.17 13.12 48.13 Z" />
<path fill="#000000" opacity="1.00" d=" M 7.16 54.19 C 9.53 53.01 11.19 56.86 8.82 57.88 C 6.46 58.86 4.81 55.22 7.16 54.19 Z" />
</g>
</svg>
