<?xml version="1.0" encoding="UTF-8" ?>
<!DOCTYPE svg PUBLIC "-//W3C//DTD SVG 1.1//EN" "http://www.w3.org/Graphics/SVG/1.1/DTD/svg11.dtd">
<svg width="64pt" height="64pt" viewBox="0 0 64 64" version="1.1" xmlns="http://www.w3.org/2000/svg">
<g id="#ffffffff">
<path fill="#ffffff" opacity="1.00" d=" M 0.00 0.00 L 64.00 0.00 L 64.00 64.00 L 0.00 64.00 L 0.00 0.00 M 30.00 8.00 C 30.00 12.00 30.00 16.00 30.00 20.00 C 31.33 20.00 32.67 20.00 34.00 20.00 C 34.00 16.00 34.00 12.00 34.00 8.00 C 32.67 8.00 31.33 8.00 30.00 8.00 M 16.46 13.61 C 15.52 14.56 14.57 15.51 13.61 16.44 C 16.46 19.25 19.28 22.10 22.11 24.93 C 23.04 23.98 23.99 23.03 24.94 22.10 C 22.12 19.26 19.28 16.45 16.46 13.61 M 47.58 13.61 C 44.74 16.43 41.91 19.27 39.08 22.11 C 40.02 23.04 40.96 23.98 41.90 24.92 C 44.74 22.10 47.59 19.28 50.39 16.42 C 49.45 15.49 48.51 14.56 47.58 13.61 M 8.00 30.00 C 8.00 31.33 8.00 32.67 8.00 34.00 C 12.00 34.00 16.00 34.00 20.00 34.00 C 19.99 32.67 19.99 31.33 20.00 30.00 C 16.00 30.00 12.00 30.00 8.00 30.00 M 44.00 30.00 C 44.00 31.33 44.00 32.67 44.00 34.00 C 48.00 34.00 52.00 34.00 56.00 34.00 C 55.99 32.67 55.99 31.33 56.00 30.00 C 52.00 30.00 48.00 30.00 44.00 30.00 M 13.61 47.55 C 14.57 48.49 15.52 49.43 16.45 50.39 C 19.28 47.55 22.12 44.74 24.94 41.90 C 23.99 40.97 23.04 40.02 22.11 39.07 C 19.28 41.89 16.46 44.74 13.61 47.55 M 39.08 41.89 C 41.90 44.72 44.74 47.53 47.54 50.38 C 48.51 49.44 49.46 48.48 50.38 47.49 C 47.53 44.71 44.74 41.87 41.90 39.08 C 40.96 40.01 40.02 40.95 39.08 41.89 M 30.00 44.00 C 30.00 48.00 30.00 52.00 30.00 56.00 C 31.33 55.99 32.67 55.99 34.00 56.00 C 34.00 52.00 34.00 48.00 34.00 44.00 C 32.67 44.00 31.33 44.00 30.00 44.00 Z" />
</g>
<g id="#000000ff">
<path fill="#000000" opacity="1.00" d=" M 30.00 8.00 C 31.33 8.00 32.67 8.00 34.00 8.00 C 34.00 12.00 34.00 16.00 34.00 20.00 C 32.67 20.00 31.33 20.00 30.00 20.00 C 30.00 16.00 30.00 12.00 30.00 8.00 Z" />
<path fill="#000000" opacity="1.00" d=" M 16.46 13.61 C 19.28 16.45 22.12 19.26 24.94 22.10 C 23.99 23.03 23.04 23.98 22.11 24.93 C 19.28 22.10 16.46 19.25 13.61 16.44 C 14.57 15.51 15.52 14.56 16.46 13.61 Z" />
<path fill="#000000" opacity="1.00" d=" M 47.58 13.61 C 48.51 14.56 49.45 15.49 50.39 16.42 C 47.59 19.28 44.74 22.10 41.90 24.92 C 40.96 23.98 40.02 23.04 39.08 22.11 C 41.91 19.27 44.74 16.43 47.58 13.61 Z" />
<path fill="#000000" opacity="1.00" d=" M 8.00 30.00 C 12.00 30.00 16.00 30.00 20.00 30.00 C 19.99 31.33 19.99 32.67 20.00 34.00 C 16.00 34.00 12.00 34.00 8.00 34.00 C 8.00 32.67 8.00 31.33 8.00 30.00 Z" />
<path fill="#000000" opacity="1.00" d=" M 44.00 30.00 C 48.00 30.00 52.00 30.00 56.00 30.00 C 55.99 31.33 55.99 32.67 56.00 34.00 C 52.00 34.00 48.00 34.00 44.00 34.00 C 44.00 32.67 44.00 31.33 44.00 30.00 Z" />
<path fill="#000000" opacity="1.00" d=" M 13.61 47.55 C 16.46 44.74 19.28 41.89 22.11 39.07 C 23.04 40.02 23.99 40.97 24.94 41.90 C 22.12 44.74 19.28 47.55 16.45 50.39 C 15.52 49.43 14.57 48.49 13.61 47.55 Z" />
<path fill="#000000" opacity="1.00" d=" M 39.08 41.89 C 40.02 40.95 40.96 40.01 41.90 39.08 C 44.74 41.87 47.53 44.71 50.38 47.49 C 49.46 48.48 48.51 49.44 47.54 50.38 C 44.74 47.53 41.90 44.72 39.08 41.89 Z" />
<path fill="#000000" opacity="1.00" d=" M 30.00 44.00 C 31.33 44.00 32.67 44.00 34.00 44.00 C 34.00 48.00 34.00 52.00 34.00 56.00 C 32.67 55.99 31.33 55.99 30.00 56.00 C 30.00 52.00 30.00 48.00 30.00 44.00 Z" />
</g>
</svg>
