<?xml version="1.0" encoding="UTF-8" ?>
<!DOCTYPE svg PUBLIC "-//W3C//DTD SVG 1.1//EN" "http://www.w3.org/Graphics/SVG/1.1/DTD/svg11.dtd">
<svg width="64pt" height="64pt" viewBox="0 0 64 64" version="1.1" xmlns="http://www.w3.org/2000/svg">
<g id="#ffffffff">
<path fill="#ffffff" opacity="1.00" d=" M 0.00 0.00 L 64.00 0.00 L 64.00 64.00 L 0.00 64.00 L 0.00 0.00 M 6.00 10.00 C 6.00 24.67 6.00 39.33 6.00 54.00 C 23.33 54.00 40.67 54.00 58.00 54.00 C 58.00 40.67 58.00 27.33 58.00 14.00 C 47.62 14.01 37.25 13.99 26.88 14.01 C 25.54 12.66 24.17 11.36 22.85 10.00 C 17.23 10.00 11.62 10.00 6.00 10.00 Z" />
<path fill="#ffffff" opacity="1.00" d=" M 10.00 14.00 C 13.73 14.00 17.45 14.00 21.18 14.00 C 22.50 15.34 23.86 16.65 25.18 18.00 C 34.78 18.00 44.39 18.00 54.00 18.00 C 54.00 28.67 54.00 39.33 54.00 50.00 C 39.33 50.00 24.67 50.00 10.00 50.00 C 10.00 38.00 10.00 26.00 10.00 14.00 M 22.54 27.47 C 24.41 29.29 26.25 31.14 28.09 33.00 C 26.27 34.85 24.43 36.70 22.54 38.49 C 23.50 39.45 24.47 40.41 25.46 41.34 C 28.15 38.50 30.98 35.79 33.73 33.00 C 30.97 30.21 28.15 27.49 25.45 24.65 C 24.47 25.58 23.47 26.50 22.54 27.47 M 34.00 38.00 C 34.01 39.33 34.00 40.67 34.00 42.00 C 37.33 42.00 40.67 42.00 44.00 42.00 C 43.99 40.67 43.99 39.33 44.00 38.00 C 40.67 38.00 37.33 38.00 34.00 38.00 Z" />
</g>
<g id="#000000ff">
<path fill="#000000" opacity="1.00" d=" M 6.00 10.00 C 11.62 10.00 17.23 10.00 22.85 10.00 C 24.17 11.36 25.54 12.66 26.88 14.01 C 37.25 13.99 47.62 14.01 58.00 14.00 C 58.00 27.33 58.00 40.67 58.00 54.00 C 40.67 54.00 23.33 54.00 6.00 54.00 C 6.00 39.33 6.00 24.67 6.00 10.00 M 10.00 14.00 C 10.00 26.00 10.00 38.00 10.00 50.00 C 24.67 50.00 39.33 50.00 54.00 50.00 C 54.00 39.33 54.00 28.67 54.00 18.00 C 44.39 18.00 34.78 18.00 25.18 18.00 C 23.86 16.65 22.50 15.34 21.18 14.00 C 17.45 14.00 13.73 14.00 10.00 14.00 Z" />
<path fill="#000000" opacity="1.00" d=" M 22.54 27.47 C 23.47 26.50 24.47 25.58 25.45 24.65 C 28.15 27.49 30.97 30.21 33.73 33.00 C 30.98 35.79 28.15 38.50 25.46 41.34 C 24.47 40.41 23.50 39.45 22.54 38.49 C 24.43 36.70 26.27 34.85 28.09 33.00 C 26.25 31.14 24.41 29.29 22.54 27.47 Z" />
<path fill="#000000" opacity="1.00" d=" M 34.00 38.00 C 37.33 38.00 40.67 38.00 44.00 38.00 C 43.99 39.33 43.99 40.67 44.00 42.00 C 40.67 42.00 37.33 42.00 34.00 42.00 C 34.00 40.67 34.01 39.33 34.00 38.00 Z" />
</g>
</svg>
