<?xml version="1.0" encoding="UTF-8" ?>
<!DOCTYPE svg PUBLIC "-//W3C//DTD SVG 1.1//EN" "http://www.w3.org/Graphics/SVG/1.1/DTD/svg11.dtd">
<svg width="64pt" height="64pt" viewBox="0 0 64 64" version="1.1" xmlns="http://www.w3.org/2000/svg">
<g id="#ffffffff">
<path fill="#ffffff" opacity="1.00" d=" M 0.00 0.00 L 64.00 0.00 L 64.00 64.00 L 0.00 64.00 L 0.00 0.00 M 2.00 10.00 C 2.00 11.33 2.00 12.67 2.00 14.00 C 5.33 13.99 8.67 14.01 12.00 14.00 C 12.00 15.33 12.00 16.67 12.00 18.00 C 10.67 18.00 9.33 18.00 8.00 18.00 C 8.00 19.33 8.00 20.67 8.00 22.00 C 13.33 22.00 18.67 22.00 24.00 22.00 C 24.00 23.30 24.00 24.59 24.00 25.89 C 17.39 26.12 11.12 31.10 10.24 37.79 C 9.71 43.17 10.13 48.60 10.00 54.00 C 11.33 54.00 12.67 54.00 14.00 54.00 C 14.00 52.67 14.00 51.33 14.00 50.00 C 16.67 50.00 19.33 50.00 22.00 50.00 C 22.00 51.33 22.00 52.67 22.00 54.00 C 28.67 54.00 35.33 54.00 42.00 54.00 C 42.00 52.67 42.00 51.33 42.00 50.00 C 44.67 50.00 47.33 50.00 50.00 50.00 C 50.00 51.33 50.00 52.66 50.00 54.00 C 51.33 54.00 52.67 54.00 54.00 54.00 C 53.87 48.61 54.29 43.19 53.76 37.81 C 52.88 31.11 46.63 26.12 40.00 25.89 C 40.00 24.59 40.00 23.30 40.00 22.00 C 45.33 22.00 50.67 22.00 56.00 22.00 C 56.00 20.67 56.00 19.33 56.00 18.00 C 54.67 18.00 53.33 18.00 52.00 18.00 C 52.00 15.33 52.00 12.67 52.00 10.00 C 47.33 10.00 42.67 10.00 38.00 10.00 C 38.00 11.33 38.00 12.67 38.00 14.00 C 41.33 13.99 44.67 14.01 48.00 14.00 C 48.00 15.33 48.00 16.67 48.00 18.00 C 37.33 18.00 26.67 18.00 16.00 18.00 C 16.00 15.33 16.00 12.67 16.00 10.00 C 11.33 10.00 6.67 10.00 2.00 10.00 M 18.00 10.00 C 18.00 11.33 18.00 12.67 18.00 14.00 C 20.67 14.00 23.33 14.00 26.00 14.00 C 26.00 12.67 26.00 11.33 26.00 10.00 C 23.33 10.00 20.67 10.00 18.00 10.00 M 54.00 10.00 C 54.00 11.33 54.00 12.67 54.00 14.00 C 56.67 14.00 59.33 14.00 62.00 14.00 C 62.00 12.67 62.00 11.33 62.00 10.00 C 59.33 10.00 56.67 10.00 54.00 10.00 Z" />
<path fill="#ffffff" opacity="1.00" d=" M 28.00 22.00 C 30.67 22.00 33.33 22.00 36.00 22.00 C 36.00 23.33 36.00 24.67 36.00 26.00 C 33.33 26.00 30.67 26.00 28.00 26.00 C 28.00 24.67 28.00 23.33 28.00 22.00 Z" />
<path fill="#ffffff" opacity="1.00" d=" M 16.94 32.95 C 20.86 28.83 26.96 30.22 32.02 30.00 C 37.08 30.22 43.15 28.83 47.06 32.96 C 50.67 36.30 49.99 41.57 50.00 46.00 C 47.33 46.00 44.67 46.00 42.00 46.00 C 42.00 43.33 42.00 40.67 42.00 38.00 C 40.42 38.00 38.85 38.00 37.27 38.00 C 37.01 37.50 36.49 36.50 36.23 35.99 C 33.41 36.00 30.59 36.00 27.77 36.00 C 27.51 36.50 26.99 37.50 26.73 38.00 C 25.16 38.00 23.58 38.00 22.00 38.00 C 22.00 40.67 22.00 43.33 22.00 46.00 C 19.33 46.00 16.67 46.00 14.00 46.00 C 14.00 41.56 13.33 36.30 16.94 32.95 Z" />
<path fill="#ffffff" opacity="1.00" d=" M 30.27 40.00 C 31.43 39.99 32.59 40.00 33.75 40.00 C 34.00 40.50 34.51 41.50 34.76 42.00 C 35.57 42.00 37.19 42.00 38.00 42.00 C 38.00 44.67 38.00 47.33 38.00 50.00 C 34.00 50.00 30.00 50.00 26.00 50.00 C 26.00 47.33 26.00 44.67 26.00 42.00 C 26.81 42.00 28.42 42.00 29.23 42.00 C 29.49 41.50 30.01 40.50 30.27 40.00 M 31.14 44.11 C 28.86 45.23 30.43 48.89 32.82 47.85 C 35.19 46.79 33.54 43.10 31.14 44.11 Z" />
</g>
<g id="#000000ff">
<path fill="#000000" opacity="1.00" d=" M 2.00 10.00 C 6.67 10.00 11.33 10.00 16.00 10.00 C 16.00 12.67 16.00 15.33 16.00 18.00 C 26.67 18.00 37.33 18.00 48.00 18.00 C 48.00 16.67 48.00 15.33 48.00 14.00 C 44.67 14.01 41.33 13.99 38.00 14.00 C 38.00 12.67 38.00 11.33 38.00 10.00 C 42.67 10.00 47.33 10.00 52.00 10.00 C 52.00 12.67 52.00 15.33 52.00 18.00 C 53.33 18.00 54.67 18.00 56.00 18.00 C 56.00 19.33 56.00 20.67 56.00 22.00 C 50.67 22.00 45.33 22.00 40.00 22.00 C 40.00 23.30 40.00 24.59 40.00 25.89 C 46.63 26.12 52.88 31.11 53.76 37.81 C 54.29 43.19 53.87 48.61 54.00 54.00 C 52.67 54.00 51.33 54.00 50.00 54.00 C 50.00 52.66 50.00 51.33 50.00 50.00 C 47.33 50.00 44.67 50.00 42.00 50.00 C 42.00 51.33 42.00 52.67 42.00 54.00 C 35.33 54.00 28.67 54.00 22.00 54.00 C 22.00 52.67 22.00 51.33 22.00 50.00 C 19.33 50.00 16.67 50.00 14.00 50.00 C 14.00 51.33 14.00 52.67 14.00 54.00 C 12.67 54.00 11.33 54.00 10.00 54.00 C 10.13 48.60 9.71 43.17 10.24 37.79 C 11.12 31.10 17.39 26.12 24.00 25.89 C 24.00 24.59 24.00 23.30 24.00 22.00 C 18.67 22.00 13.33 22.00 8.00 22.00 C 8.00 20.67 8.00 19.33 8.00 18.00 C 9.33 18.00 10.67 18.00 12.00 18.00 C 12.00 16.67 12.00 15.33 12.00 14.00 C 8.67 14.01 5.33 13.99 2.00 14.00 C 2.00 12.67 2.00 11.33 2.00 10.00 M 28.00 22.00 C 28.00 23.33 28.00 24.67 28.00 26.00 C 30.67 26.00 33.33 26.00 36.00 26.00 C 36.00 24.67 36.00 23.33 36.00 22.00 C 33.33 22.00 30.67 22.00 28.00 22.00 M 16.94 32.95 C 13.33 36.30 14.00 41.56 14.00 46.00 C 16.67 46.00 19.33 46.00 22.00 46.00 C 22.00 43.33 22.00 40.67 22.00 38.00 C 23.58 38.00 25.16 38.00 26.73 38.00 C 26.99 37.50 27.51 36.50 27.77 36.00 C 30.59 36.00 33.41 36.00 36.23 35.99 C 36.49 36.50 37.01 37.50 37.27 38.00 C 38.85 38.00 40.42 38.00 42.00 38.00 C 42.00 40.67 42.00 43.33 42.00 46.00 C 44.67 46.00 47.33 46.00 50.00 46.00 C 49.99 41.57 50.67 36.30 47.06 32.96 C 43.15 28.83 37.08 30.22 32.02 30.00 C 26.96 30.22 20.86 28.83 16.94 32.95 M 30.27 40.00 C 30.01 40.50 29.49 41.50 29.23 42.00 C 28.42 42.00 26.81 42.00 26.00 42.00 C 26.00 44.67 26.00 47.33 26.00 50.00 C 30.00 50.00 34.00 50.00 38.00 50.00 C 38.00 47.33 38.00 44.67 38.00 42.00 C 37.19 42.00 35.57 42.00 34.76 42.00 C 34.51 41.50 34.00 40.50 33.75 40.00 C 32.59 40.00 31.43 39.99 30.27 40.00 Z" />
<path fill="#000000" opacity="1.00" d=" M 18.00 10.00 C 20.67 10.00 23.33 10.00 26.00 10.00 C 26.00 11.33 26.00 12.67 26.00 14.00 C 23.33 14.00 20.67 14.00 18.00 14.00 C 18.00 12.67 18.00 11.33 18.00 10.00 Z" />
<path fill="#000000" opacity="1.00" d=" M 54.00 10.00 C 56.67 10.00 59.33 10.00 62.00 10.00 C 62.00 11.33 62.00 12.67 62.00 14.00 C 59.33 14.00 56.67 14.00 54.00 14.00 C 54.00 12.67 54.00 11.33 54.00 10.00 Z" />
<path fill="#000000" opacity="1.00" d=" M 31.14 44.11 C 33.54 43.10 35.19 46.79 32.82 47.85 C 30.43 48.89 28.86 45.23 31.14 44.11 Z" />
</g>
</svg>
