<?xml version="1.0" encoding="UTF-8" ?>
<!DOCTYPE svg PUBLIC "-//W3C//DTD SVG 1.1//EN" "http://www.w3.org/Graphics/SVG/1.1/DTD/svg11.dtd">
<svg width="64pt" height="64pt" viewBox="0 0 64 64" version="1.1" xmlns="http://www.w3.org/2000/svg">
<g id="#ffffffff">
<path fill="#ffffff" opacity="1.00" d=" M 0.00 0.00 L 64.00 0.00 L 64.00 64.00 L 0.00 64.00 L 0.00 0.00 M 26.55 6.71 C 18.88 8.91 14.04 17.91 16.73 25.49 C 18.95 33.14 27.94 37.94 35.50 35.26 C 43.15 33.05 47.92 24.06 45.27 16.51 C 43.07 8.87 34.10 4.08 26.55 6.71 M 4.00 40.00 C 4.00 45.33 4.00 50.67 4.00 56.00 C 22.67 56.00 41.33 56.00 60.00 56.00 C 60.00 50.67 60.00 45.33 60.00 40.00 C 41.33 40.00 22.67 40.00 4.00 40.00 Z" />
<path fill="#ffffff" opacity="1.00" d=" M 28.00 12.00 C 30.00 12.00 32.00 12.00 34.00 12.00 C 34.00 14.00 34.00 16.00 34.00 18.00 C 36.00 18.00 38.00 18.00 40.00 18.00 C 40.00 20.00 40.00 22.00 40.00 24.00 C 38.00 24.00 36.00 24.00 34.00 24.00 C 34.00 26.00 34.00 28.00 34.00 30.00 C 32.00 30.00 30.00 30.00 28.00 30.00 C 28.00 28.00 28.00 26.00 28.00 24.00 C 26.00 24.00 24.00 24.00 22.00 24.00 C 22.00 22.00 22.00 20.00 22.00 18.00 C 24.00 18.00 26.00 18.00 28.00 18.00 C 28.00 16.00 28.00 14.00 28.00 12.00 Z" />
<path fill="#ffffff" opacity="1.00" d=" M 8.00 44.00 C 9.89 44.00 11.78 44.00 13.66 44.00 C 11.79 46.77 10.03 49.61 8.04 52.30 C 7.98 49.53 7.99 46.77 8.00 44.00 Z" />
<path fill="#ffffff" opacity="1.00" d=" M 13.33 51.99 C 15.16 49.32 16.87 46.57 18.77 43.95 C 21.07 44.00 23.36 44.02 25.66 44.00 C 23.95 46.62 22.13 49.18 20.53 51.87 C 18.13 52.03 15.73 52.05 13.33 51.99 Z" />
<path fill="#ffffff" opacity="1.00" d=" M 25.33 52.00 C 27.12 49.33 28.89 46.66 30.68 44.00 C 33.00 44.00 35.33 44.00 37.66 44.00 C 35.87 46.68 34.12 49.38 32.27 52.03 C 29.96 52.00 27.65 51.99 25.33 52.00 Z" />
<path fill="#ffffff" opacity="1.00" d=" M 37.33 52.00 C 39.12 49.33 40.89 46.64 42.70 43.99 C 45.02 44.00 47.34 44.00 49.66 44.00 C 47.88 46.68 46.11 49.35 44.31 52.01 C 41.98 52.00 39.66 52.00 37.33 52.00 Z" />
<path fill="#ffffff" opacity="1.00" d=" M 49.33 52.00 C 51.70 49.46 52.56 45.01 55.99 43.83 C 56.01 46.55 56.00 49.28 56.00 52.00 C 53.78 52.00 51.55 52.00 49.33 52.00 Z" />
</g>
<g id="#000000ff">
<path fill="#000000" opacity="1.00" d=" M 26.55 6.71 C 34.10 4.08 43.07 8.87 45.27 16.51 C 47.92 24.06 43.15 33.05 35.50 35.26 C 27.94 37.94 18.95 33.14 16.73 25.49 C 14.04 17.91 18.88 8.91 26.55 6.71 M 28.00 12.00 C 28.00 14.00 28.00 16.00 28.00 18.00 C 26.00 18.00 24.00 18.00 22.00 18.00 C 22.00 20.00 22.00 22.00 22.00 24.00 C 24.00 24.00 26.00 24.00 28.00 24.00 C 28.00 26.00 28.00 28.00 28.00 30.00 C 30.00 30.00 32.00 30.00 34.00 30.00 C 34.00 28.00 34.00 26.00 34.00 24.00 C 36.00 24.00 38.00 24.00 40.00 24.00 C 40.00 22.00 40.00 20.00 40.00 18.00 C 38.00 18.00 36.00 18.00 34.00 18.00 C 34.00 16.00 34.00 14.00 34.00 12.00 C 32.00 12.00 30.00 12.00 28.00 12.00 Z" />
<path fill="#000000" opacity="1.00" d=" M 4.00 40.00 C 22.67 40.00 41.33 40.00 60.00 40.00 C 60.00 45.33 60.00 50.67 60.00 56.00 C 41.33 56.00 22.67 56.00 4.00 56.00 C 4.00 50.67 4.00 45.33 4.00 40.00 M 8.00 44.00 C 7.99 46.77 7.98 49.53 8.04 52.30 C 10.03 49.61 11.79 46.77 13.66 44.00 C 11.78 44.00 9.89 44.00 8.00 44.00 M 13.33 51.99 C 15.73 52.05 18.13 52.03 20.53 51.87 C 22.13 49.18 23.95 46.62 25.66 44.00 C 23.36 44.02 21.07 44.00 18.77 43.95 C 16.87 46.57 15.16 49.32 13.33 51.99 M 25.33 52.00 C 27.65 51.99 29.96 52.00 32.27 52.03 C 34.12 49.38 35.87 46.68 37.66 44.00 C 35.33 44.00 33.00 44.00 30.68 44.00 C 28.89 46.66 27.12 49.33 25.33 52.00 M 37.33 52.00 C 39.66 52.00 41.98 52.00 44.31 52.01 C 46.11 49.35 47.88 46.68 49.66 44.00 C 47.34 44.00 45.02 44.00 42.70 43.99 C 40.89 46.64 39.12 49.33 37.33 52.00 M 49.33 52.00 C 51.55 52.00 53.78 52.00 56.00 52.00 C 56.00 49.28 56.01 46.55 55.99 43.83 C 52.56 45.01 51.70 49.46 49.33 52.00 Z" />
</g>
</svg>
