<?xml version="1.0" encoding="UTF-8" ?>
<!DOCTYPE svg PUBLIC "-//W3C//DTD SVG 1.1//EN" "http://www.w3.org/Graphics/SVG/1.1/DTD/svg11.dtd">
<svg width="64pt" height="64pt" viewBox="0 0 64 64" version="1.1" xmlns="http://www.w3.org/2000/svg">
<g id="#ffffffff">
<path fill="#ffffff" opacity="1.00" d=" M 0.00 0.00 L 64.00 0.00 L 64.00 64.00 L 0.00 64.00 L 0.00 0.00 M 30.28 7.99 C 30.89 10.35 29.21 12.21 28.04 14.05 C 26.74 13.15 25.44 12.26 24.15 11.35 C 24.25 9.40 22.60 6.79 20.56 8.55 C 18.89 10.39 21.15 11.81 22.66 12.54 C 23.09 14.36 23.54 16.18 24.00 18.00 C 29.33 18.00 34.67 18.00 40.00 18.00 C 40.46 16.18 40.91 14.36 41.34 12.53 C 42.78 11.84 45.25 10.29 43.35 8.60 C 41.59 6.70 39.58 9.47 39.88 11.37 C 38.60 12.27 37.29 13.15 36.00 14.02 C 35.13 12.70 34.27 11.38 33.42 10.05 C 33.54 9.33 33.77 7.91 33.89 7.20 C 33.20 5.30 29.71 5.76 30.28 7.99 M 23.92 28.41 C 19.83 26.81 14.57 24.43 10.62 27.57 C 6.94 30.30 7.28 36.52 11.21 38.86 C 14.77 41.27 19.04 39.19 22.52 37.76 C 22.35 39.17 22.19 40.58 22.02 41.99 C 28.67 42.00 35.32 42.00 41.98 42.00 C 41.81 40.58 41.65 39.17 41.48 37.76 C 44.97 39.21 49.26 41.27 52.81 38.84 C 56.97 36.36 56.98 29.66 52.83 27.17 C 48.83 24.63 44.01 26.89 40.07 28.41 C 38.79 25.03 35.95 21.88 32.05 22.01 C 28.12 21.82 25.18 24.97 23.92 28.41 M 22.14 46.03 C 22.46 47.35 22.78 48.67 23.10 49.99 C 29.04 50.01 34.98 50.01 40.92 49.98 C 41.23 48.66 41.53 47.34 41.83 46.01 C 35.27 46.00 28.70 45.97 22.14 46.03 M 25.07 54.12 C 26.99 55.93 29.12 58.06 31.98 57.96 C 34.87 58.07 37.01 55.92 38.96 54.11 C 34.33 53.94 29.70 53.93 25.07 54.12 Z" />
<path fill="#ffffff" opacity="1.00" d=" M 27.59 29.91 C 28.51 28.16 29.66 25.85 32.02 25.99 C 34.39 25.84 35.46 28.17 36.40 29.91 C 33.47 30.03 30.53 30.03 27.59 29.91 Z" />
<path fill="#ffffff" opacity="1.00" d=" M 14.05 35.83 C 11.39 35.10 11.40 30.89 14.05 30.15 C 17.36 29.72 20.37 31.61 23.35 32.74 C 20.40 34.07 17.42 36.23 14.05 35.83 Z" />
<path fill="#ffffff" opacity="1.00" d=" M 40.68 32.71 C 43.67 31.60 46.69 29.70 49.99 30.17 C 52.59 30.95 52.58 35.08 49.97 35.84 C 46.58 36.24 43.62 34.06 40.68 32.71 Z" />
<path fill="#ffffff" opacity="1.00" d=" M 27.35 34.08 C 30.44 33.97 33.54 33.97 36.63 34.07 C 36.94 35.38 37.23 36.69 37.52 38.00 C 33.84 38.00 30.16 38.00 26.48 38.00 C 26.76 36.69 27.05 35.39 27.35 34.08 Z" />
</g>
<g id="#000000ff">
<path fill="#000000" opacity="1.00" d=" M 30.28 7.99 C 29.71 5.76 33.20 5.30 33.89 7.20 C 33.77 7.91 33.54 9.33 33.42 10.05 C 34.27 11.38 35.13 12.70 36.00 14.02 C 37.29 13.15 38.60 12.27 39.88 11.37 C 39.58 9.47 41.59 6.70 43.35 8.60 C 45.25 10.29 42.78 11.84 41.34 12.53 C 40.91 14.36 40.46 16.18 40.00 18.00 C 34.67 18.00 29.33 18.00 24.00 18.00 C 23.54 16.18 23.09 14.36 22.66 12.54 C 21.15 11.81 18.89 10.39 20.56 8.55 C 22.60 6.79 24.25 9.40 24.15 11.35 C 25.44 12.26 26.74 13.15 28.04 14.05 C 29.21 12.21 30.89 10.35 30.28 7.99 Z" />
<path fill="#000000" opacity="1.00" d=" M 23.92 28.41 C 25.18 24.97 28.12 21.82 32.05 22.01 C 35.95 21.88 38.79 25.03 40.07 28.41 C 44.01 26.89 48.83 24.63 52.83 27.17 C 56.98 29.66 56.97 36.36 52.81 38.84 C 49.26 41.27 44.97 39.21 41.48 37.76 C 41.65 39.17 41.81 40.58 41.98 42.00 C 35.32 42.00 28.67 42.00 22.02 41.99 C 22.19 40.58 22.35 39.17 22.52 37.76 C 19.04 39.19 14.77 41.27 11.21 38.86 C 7.28 36.52 6.94 30.30 10.62 27.57 C 14.57 24.43 19.83 26.81 23.92 28.41 M 27.59 29.91 C 30.53 30.03 33.47 30.03 36.40 29.91 C 35.46 28.17 34.39 25.84 32.02 25.99 C 29.66 25.85 28.51 28.16 27.59 29.91 M 14.05 35.83 C 17.42 36.23 20.40 34.07 23.35 32.74 C 20.37 31.61 17.36 29.72 14.05 30.15 C 11.40 30.89 11.39 35.10 14.05 35.83 M 40.68 32.71 C 43.62 34.06 46.58 36.24 49.97 35.84 C 52.58 35.08 52.59 30.95 49.99 30.17 C 46.69 29.70 43.67 31.60 40.68 32.71 M 27.35 34.08 C 27.05 35.39 26.76 36.69 26.48 38.00 C 30.16 38.00 33.84 38.00 37.52 38.00 C 37.23 36.69 36.94 35.38 36.63 34.07 C 33.54 33.97 30.44 33.97 27.35 34.08 Z" />
<path fill="#000000" opacity="1.00" d=" M 22.14 46.03 C 28.70 45.97 35.27 46.00 41.83 46.01 C 41.53 47.34 41.23 48.66 40.92 49.98 C 34.98 50.01 29.04 50.01 23.10 49.99 C 22.78 48.67 22.46 47.35 22.14 46.03 Z" />
<path fill="#000000" opacity="1.00" d=" M 25.07 54.12 C 29.70 53.93 34.33 53.94 38.96 54.11 C 37.01 55.92 34.87 58.07 31.98 57.96 C 29.12 58.06 26.99 55.93 25.07 54.12 Z" />
</g>
</svg>
