<?xml version="1.0" encoding="UTF-8" ?>
<!DOCTYPE svg PUBLIC "-//W3C//DTD SVG 1.1//EN" "http://www.w3.org/Graphics/SVG/1.1/DTD/svg11.dtd">
<svg width="64pt" height="64pt" viewBox="0 0 64 64" version="1.1" xmlns="http://www.w3.org/2000/svg">
<g id="#ffffffff">
<path fill="#ffffff" opacity="1.00" d=" M 0.00 0.00 L 64.00 0.00 L 64.00 64.00 L 0.00 64.00 L 0.00 0.00 M 19.51 12.35 C 16.57 13.89 13.20 13.92 9.97 14.09 C 9.34 30.46 16.05 49.16 31.99 56.11 C 38.11 53.73 43.00 48.86 46.60 43.48 C 52.30 34.84 54.11 24.28 54.04 14.09 C 50.81 13.92 47.44 13.89 44.51 12.36 C 40.53 10.44 36.60 7.88 32.00 8.00 C 27.41 7.87 23.48 10.43 19.51 12.35 Z" />
<path fill="#ffffff" opacity="1.00" d=" M 28.34 12.57 C 36.22 9.93 42.24 17.57 49.90 17.76 C 49.63 30.98 44.24 45.32 32.00 51.84 C 19.85 45.24 14.32 31.02 14.11 17.77 C 19.28 17.28 23.69 14.56 28.34 12.57 M 23.77 27.96 C 25.08 27.97 26.38 27.99 27.69 28.00 C 28.40 26.44 29.06 24.44 31.01 24.11 C 34.13 23.15 37.15 26.82 35.63 29.69 C 34.74 31.99 32.04 31.96 30.00 32.15 C 30.00 34.10 30.00 36.05 30.00 38.00 C 31.26 38.00 32.53 38.00 33.80 38.00 C 33.42 34.55 37.87 34.66 38.91 31.92 C 41.86 27.32 38.44 20.60 33.06 20.09 C 28.27 19.28 24.24 23.41 23.77 27.96 M 30.00 40.00 C 30.00 41.33 30.00 42.67 30.00 44.00 C 31.33 44.00 32.67 44.00 34.00 44.00 C 34.00 42.67 34.00 41.33 34.00 40.00 C 32.67 40.00 31.33 40.00 30.00 40.00 Z" />
</g>
<g id="#000000ff">
<path fill="#000000" opacity="1.00" d=" M 19.51 12.35 C 23.48 10.43 27.41 7.87 32.00 8.00 C 36.60 7.88 40.53 10.44 44.51 12.36 C 47.44 13.89 50.81 13.92 54.04 14.09 C 54.11 24.28 52.30 34.84 46.60 43.48 C 43.00 48.86 38.11 53.73 31.99 56.11 C 16.05 49.16 9.34 30.46 9.97 14.09 C 13.20 13.92 16.57 13.89 19.51 12.35 M 28.34 12.57 C 23.69 14.56 19.28 17.28 14.11 17.77 C 14.32 31.02 19.85 45.24 32.00 51.84 C 44.24 45.32 49.63 30.98 49.90 17.76 C 42.24 17.57 36.22 9.93 28.34 12.57 Z" />
<path fill="#000000" opacity="1.00" d=" M 23.77 27.96 C 24.24 23.41 28.27 19.28 33.06 20.09 C 38.44 20.60 41.86 27.32 38.91 31.92 C 37.87 34.66 33.42 34.55 33.80 38.00 C 32.53 38.00 31.26 38.00 30.00 38.00 C 30.00 36.05 30.00 34.10 30.00 32.15 C 32.04 31.96 34.74 31.99 35.63 29.69 C 37.15 26.82 34.13 23.15 31.01 24.11 C 29.06 24.44 28.40 26.44 27.69 28.00 C 26.38 27.99 25.08 27.97 23.77 27.96 Z" />
<path fill="#000000" opacity="1.00" d=" M 30.00 40.00 C 31.33 40.00 32.67 40.00 34.00 40.00 C 34.00 41.33 34.00 42.67 34.00 44.00 C 32.67 44.00 31.33 44.00 30.00 44.00 C 30.00 42.67 30.00 41.33 30.00 40.00 Z" />
</g>
</svg>
