<?xml version="1.0" encoding="UTF-8" ?>
<!DOCTYPE svg PUBLIC "-//W3C//DTD SVG 1.1//EN" "http://www.w3.org/Graphics/SVG/1.1/DTD/svg11.dtd">
<svg width="64pt" height="64pt" viewBox="0 0 64 64" version="1.1" xmlns="http://www.w3.org/2000/svg">
<g id="#ffffffff">
<path fill="#ffffff" opacity="1.00" d=" M 0.00 0.00 L 64.00 0.00 L 64.00 64.00 L 0.00 64.00 L 0.00 0.00 M 24.54 9.70 C 22.02 10.19 19.11 11.25 18.45 14.06 C 17.75 17.04 15.16 19.77 16.30 22.99 C 17.22 26.28 20.66 28.33 24.00 28.00 C 30.03 27.93 36.08 28.19 42.11 27.86 C 46.62 27.36 49.48 21.77 47.19 17.82 C 46.16 15.60 43.76 14.73 41.67 13.84 C 40.49 9.91 37.28 6.41 33.02 6.07 C 29.72 5.54 26.77 7.48 24.54 9.70 M 18.10 36.77 C 18.81 38.38 21.18 38.37 21.90 36.77 C 22.18 34.92 20.69 33.42 20.00 31.84 C 19.30 33.42 17.83 34.92 18.10 36.77 M 42.13 36.90 C 42.98 38.36 45.11 38.29 45.92 36.82 C 46.15 34.94 44.74 33.43 44.00 31.84 C 43.30 33.45 41.74 35.00 42.13 36.90 M 30.08 38.79 C 30.83 40.34 33.09 40.36 33.89 38.84 C 34.21 36.96 32.71 35.44 32.00 33.84 C 31.27 35.42 29.87 36.92 30.08 38.79 M 10.12 39.39 C 12.21 45.58 14.48 51.70 16.48 57.92 C 26.83 58.04 37.19 58.08 47.55 57.90 C 49.50 51.67 51.82 45.57 53.88 39.38 C 52.62 38.95 51.36 38.53 50.11 38.11 C 49.30 40.29 48.79 42.63 47.50 44.61 C 45.32 46.88 41.67 46.03 39.60 44.04 C 38.54 44.03 37.47 44.03 36.41 44.03 C 34.00 46.51 30.02 46.52 27.60 44.04 C 26.54 44.03 25.47 44.03 24.41 44.03 C 22.33 46.03 18.59 46.92 16.43 44.59 C 15.24 42.58 14.68 40.28 13.89 38.10 C 12.63 38.53 11.37 38.96 10.12 39.39 Z" />
<path fill="#ffffff" opacity="1.00" d=" M 25.94 14.23 C 27.56 11.50 30.59 8.99 33.96 10.33 C 37.23 11.29 38.23 14.89 38.11 17.93 C 39.89 18.18 42.30 17.55 43.48 19.31 C 44.79 21.12 43.40 24.07 41.08 23.93 C 34.71 23.97 28.30 24.24 21.95 23.78 C 19.01 22.73 19.97 19.07 22.07 17.65 C 21.41 14.98 23.40 13.35 25.94 14.23 Z" />
<path fill="#ffffff" opacity="1.00" d=" M 17.99 49.92 C 20.81 50.19 23.59 49.59 26.01 48.13 C 29.64 50.53 34.38 50.51 38.01 48.13 C 40.42 49.59 43.18 50.20 45.99 49.91 C 45.54 51.24 45.10 52.58 44.68 53.92 C 36.25 54.08 27.81 54.00 19.37 53.96 C 18.92 52.61 18.46 51.26 17.99 49.92 Z" />
</g>
<g id="#000000ff">
<path fill="#000000" opacity="1.00" d=" M 24.54 9.70 C 26.77 7.48 29.72 5.54 33.02 6.07 C 37.28 6.41 40.49 9.91 41.67 13.84 C 43.76 14.73 46.16 15.60 47.19 17.82 C 49.48 21.77 46.62 27.36 42.11 27.86 C 36.08 28.19 30.03 27.93 24.00 28.00 C 20.66 28.33 17.22 26.28 16.30 22.99 C 15.16 19.77 17.75 17.04 18.45 14.06 C 19.11 11.25 22.02 10.19 24.54 9.70 M 25.94 14.23 C 23.40 13.35 21.41 14.98 22.07 17.65 C 19.97 19.07 19.01 22.73 21.95 23.78 C 28.30 24.24 34.71 23.97 41.08 23.93 C 43.40 24.07 44.79 21.12 43.48 19.31 C 42.30 17.55 39.89 18.18 38.11 17.93 C 38.23 14.89 37.23 11.29 33.96 10.33 C 30.59 8.99 27.56 11.50 25.94 14.23 Z" />
<path fill="#000000" opacity="1.00" d=" M 18.10 36.77 C 17.83 34.92 19.30 33.42 20.00 31.84 C 20.69 33.42 22.18 34.92 21.90 36.77 C 21.18 38.37 18.81 38.38 18.10 36.77 Z" />
<path fill="#000000" opacity="1.00" d=" M 42.13 36.90 C 41.74 35.00 43.30 33.45 44.00 31.84 C 44.74 33.43 46.15 34.94 45.92 36.82 C 45.11 38.29 42.98 38.36 42.13 36.90 Z" />
<path fill="#000000" opacity="1.00" d=" M 30.08 38.79 C 29.87 36.92 31.27 35.42 32.00 33.84 C 32.71 35.44 34.21 36.96 33.89 38.84 C 33.09 40.36 30.83 40.34 30.08 38.79 Z" />
<path fill="#000000" opacity="1.00" d=" M 10.12 39.39 C 11.37 38.96 12.63 38.53 13.89 38.10 C 14.68 40.28 15.24 42.58 16.43 44.59 C 18.59 46.92 22.33 46.03 24.41 44.03 C 25.47 44.03 26.54 44.03 27.60 44.04 C 30.02 46.52 34.00 46.51 36.41 44.03 C 37.47 44.03 38.54 44.03 39.60 44.04 C 41.67 46.03 45.32 46.88 47.50 44.61 C 48.79 42.63 49.30 40.29 50.11 38.11 C 51.36 38.53 52.62 38.95 53.88 39.38 C 51.82 45.57 49.50 51.67 47.55 57.90 C 37.19 58.08 26.83 58.04 16.48 57.92 C 14.48 51.70 12.21 45.58 10.12 39.39 M 17.99 49.92 C 18.46 51.26 18.92 52.61 19.37 53.96 C 27.81 54.00 36.25 54.08 44.68 53.92 C 45.10 52.58 45.54 51.24 45.99 49.91 C 43.18 50.20 40.42 49.59 38.01 48.13 C 34.38 50.51 29.64 50.53 26.01 48.13 C 23.59 49.59 20.81 50.19 17.99 49.92 Z" />
</g>
</svg>
