<?xml version="1.0" encoding="UTF-8" ?>
<!DOCTYPE svg PUBLIC "-//W3C//DTD SVG 1.1//EN" "http://www.w3.org/Graphics/SVG/1.1/DTD/svg11.dtd">
<svg width="64pt" height="64pt" viewBox="0 0 64 64" version="1.1" xmlns="http://www.w3.org/2000/svg">
<g id="#ffffffff">
<path fill="#ffffff" opacity="1.00" d=" M 0.00 0.00 L 64.00 0.00 L 64.00 64.00 L 0.00 64.00 L 0.00 0.00 M 21.70 14.16 C 22.21 14.79 23.24 16.06 23.76 16.70 C 18.59 18.42 14.29 22.50 12.89 27.84 C 11.29 34.28 10.81 40.93 9.74 47.46 C 13.09 48.47 16.68 48.60 19.96 49.82 C 20.08 52.54 19.98 55.27 20.00 58.00 C 28.00 58.00 36.00 58.00 44.00 58.00 C 44.03 55.29 43.90 52.58 44.06 49.88 C 47.23 48.57 50.97 48.63 54.26 47.45 C 53.23 41.13 52.69 34.72 51.29 28.46 C 49.96 22.99 45.74 18.41 40.26 16.96 C 40.93 16.00 41.60 15.05 42.27 14.09 C 40.72 9.45 37.49 4.05 31.96 4.02 C 26.44 4.08 23.31 9.57 21.70 14.16 Z" />
<path fill="#ffffff" opacity="1.00" d=" M 26.90 11.92 C 28.24 10.25 29.59 7.97 32.04 8.04 C 34.45 8.04 35.82 10.24 37.14 11.92 C 33.73 12.04 30.32 12.04 26.90 11.92 Z" />
<path fill="#ffffff" opacity="1.00" d=" M 28.16 16.00 C 30.72 16.00 33.29 16.00 35.85 16.00 C 34.57 17.69 33.29 19.37 32.00 21.04 C 30.71 19.37 29.43 17.69 28.16 16.00 Z" />
<path fill="#ffffff" opacity="1.00" d=" M 17.24 27.57 C 18.67 23.65 22.36 21.16 26.29 20.22 C 28.22 22.67 30.12 25.15 32.00 27.64 C 33.87 25.18 35.74 22.73 37.66 20.31 C 41.53 21.25 45.28 23.57 46.70 27.47 C 48.66 32.90 48.72 38.78 49.75 44.41 C 47.83 44.80 45.91 45.18 44.00 45.56 C 44.00 39.71 44.00 33.85 44.00 28.00 C 42.67 28.00 41.33 28.00 40.00 28.00 C 40.00 33.33 40.00 38.67 40.00 44.00 C 38.67 44.00 37.33 44.00 36.00 44.00 C 36.00 45.33 36.00 46.67 36.00 48.00 C 37.33 48.00 38.67 48.00 40.00 48.00 C 40.00 50.00 40.00 52.00 40.00 54.00 C 34.67 54.00 29.33 54.00 24.00 54.00 C 24.00 52.00 24.00 50.00 24.00 48.00 C 25.33 48.00 26.67 48.00 28.00 48.00 C 28.00 46.67 28.00 45.33 28.00 44.00 C 26.67 44.00 25.33 44.00 24.00 44.00 C 24.00 38.67 24.00 33.33 24.00 28.00 C 22.67 28.00 21.33 28.00 20.00 28.00 C 20.00 33.85 20.00 39.71 20.00 45.56 C 18.08 45.18 16.17 44.79 14.25 44.41 C 15.26 38.81 15.36 32.98 17.24 27.57 M 31.14 30.13 C 28.82 31.28 30.49 34.94 32.92 33.86 C 35.10 32.65 33.52 29.11 31.14 30.13 M 31.21 38.13 C 28.76 39.10 30.49 43.03 32.88 41.81 C 35.15 40.77 33.55 37.13 31.21 38.13 Z" />
</g>
<g id="#000000ff">
<path fill="#000000" opacity="1.00" d=" M 21.70 14.16 C 23.31 9.57 26.44 4.08 31.96 4.02 C 37.49 4.05 40.72 9.45 42.27 14.09 C 41.60 15.05 40.93 16.00 40.26 16.96 C 45.74 18.41 49.96 22.99 51.29 28.46 C 52.69 34.72 53.23 41.13 54.26 47.45 C 50.97 48.63 47.23 48.57 44.06 49.88 C 43.90 52.58 44.03 55.29 44.00 58.00 C 36.00 58.00 28.00 58.00 20.00 58.00 C 19.98 55.27 20.08 52.54 19.96 49.82 C 16.68 48.60 13.09 48.47 9.74 47.46 C 10.81 40.93 11.29 34.28 12.89 27.84 C 14.29 22.50 18.59 18.42 23.76 16.70 C 23.24 16.06 22.21 14.79 21.70 14.16 M 26.90 11.92 C 30.32 12.04 33.73 12.04 37.14 11.92 C 35.82 10.24 34.45 8.04 32.04 8.04 C 29.59 7.97 28.24 10.25 26.90 11.92 M 28.16 16.00 C 29.43 17.69 30.71 19.37 32.00 21.04 C 33.29 19.37 34.57 17.69 35.85 16.00 C 33.29 16.00 30.72 16.00 28.16 16.00 M 17.24 27.57 C 15.36 32.98 15.26 38.81 14.25 44.41 C 16.17 44.79 18.08 45.18 20.00 45.56 C 20.00 39.71 20.00 33.85 20.00 28.00 C 21.33 28.00 22.67 28.00 24.00 28.00 C 24.00 33.33 24.00 38.67 24.00 44.00 C 25.33 44.00 26.67 44.00 28.00 44.00 C 28.00 45.33 28.00 46.67 28.00 48.00 C 26.67 48.00 25.33 48.00 24.00 48.00 C 24.00 50.00 24.00 52.00 24.00 54.00 C 29.33 54.00 34.67 54.00 40.00 54.00 C 40.00 52.00 40.00 50.00 40.00 48.00 C 38.67 48.00 37.33 48.00 36.00 48.00 C 36.00 46.67 36.00 45.33 36.00 44.00 C 37.33 44.00 38.67 44.00 40.00 44.00 C 40.00 38.67 40.00 33.33 40.00 28.00 C 41.33 28.00 42.67 28.00 44.00 28.00 C 44.00 33.85 44.00 39.71 44.00 45.56 C 45.91 45.18 47.83 44.80 49.75 44.41 C 48.72 38.78 48.66 32.90 46.70 27.47 C 45.28 23.57 41.53 21.25 37.66 20.31 C 35.74 22.73 33.87 25.18 32.00 27.64 C 30.12 25.15 28.22 22.67 26.29 20.22 C 22.36 21.16 18.67 23.65 17.24 27.57 Z" />
<path fill="#000000" opacity="1.00" d=" M 31.14 30.13 C 33.52 29.11 35.10 32.65 32.92 33.86 C 30.49 34.94 28.82 31.28 31.14 30.13 Z" />
<path fill="#000000" opacity="1.00" d=" M 31.21 38.13 C 33.55 37.13 35.15 40.77 32.88 41.81 C 30.49 43.03 28.76 39.10 31.21 38.13 Z" />
</g>
</svg>
