<?xml version="1.0" encoding="UTF-8" ?>
<!DOCTYPE svg PUBLIC "-//W3C//DTD SVG 1.1//EN" "http://www.w3.org/Graphics/SVG/1.1/DTD/svg11.dtd">
<svg width="64pt" height="64pt" viewBox="0 0 64 64" version="1.1" xmlns="http://www.w3.org/2000/svg">
<g id="#ffffffff">
<path fill="#ffffff" opacity="1.00" d=" M 0.00 0.00 L 64.00 0.00 L 64.00 64.00 L 0.00 64.00 L 0.00 0.00 M 14.21 8.25 C 8.76 12.66 8.46 22.10 14.24 26.41 C 10.93 30.10 9.58 35.13 10.13 40.01 C 8.75 40.00 7.38 40.00 6.00 40.00 C 6.00 41.33 6.00 42.67 6.00 44.00 C 10.67 44.00 15.33 44.00 20.00 44.00 C 20.06 44.56 20.18 45.69 20.24 46.25 C 16.06 46.83 11.88 47.42 7.69 48.00 C 7.90 49.33 8.10 50.66 8.30 52.00 C 12.59 51.38 16.88 50.75 21.17 50.15 C 22.46 53.16 24.52 56.06 27.72 57.22 C 33.59 59.65 40.92 56.42 42.68 50.22 C 47.04 50.64 51.35 51.42 55.70 52.00 C 55.90 50.66 56.10 49.33 56.31 48.00 C 52.12 47.42 47.94 46.83 43.76 46.25 C 43.82 45.69 43.93 44.56 43.99 44.00 C 48.66 44.00 53.33 44.00 58.00 44.00 C 58.00 42.67 58.00 41.33 58.00 40.00 C 56.62 40.00 55.25 40.00 53.87 40.01 C 54.40 35.14 53.09 30.11 49.77 26.43 C 52.80 23.82 54.72 19.87 53.84 15.81 C 53.38 10.22 48.44 5.88 42.89 5.78 C 41.78 8.01 40.65 10.23 39.59 12.48 C 37.00 11.84 34.36 12.12 32.00 13.36 C 29.64 12.14 27.02 11.80 24.44 12.48 C 23.34 10.26 22.23 8.04 21.14 5.81 C 18.70 6.13 16.14 6.58 14.21 8.25 Z" />
<path fill="#ffffff" opacity="1.00" d=" M 16.72 23.37 C 12.31 19.88 13.51 12.07 18.81 10.13 C 19.65 11.78 20.49 13.43 21.32 15.09 C 19.43 17.64 17.98 20.46 16.72 23.37 Z" />
<path fill="#ffffff" opacity="1.00" d=" M 42.67 15.09 C 43.52 13.38 44.40 11.68 45.41 10.05 C 50.41 12.36 51.69 19.85 47.27 23.36 C 46.01 20.46 44.58 17.62 42.67 15.09 Z" />
<path fill="#ffffff" opacity="1.00" d=" M 25.83 16.55 C 28.04 15.00 29.95 17.62 32.01 18.05 C 34.08 17.61 36.00 14.96 38.21 16.57 C 41.73 19.07 42.88 23.50 44.43 27.30 C 48.87 29.78 50.45 35.13 49.88 39.93 C 46.57 40.00 43.26 40.04 39.96 39.99 C 40.02 43.66 40.09 47.62 38.04 50.84 C 35.62 55.02 28.64 55.08 26.06 51.02 C 23.91 47.78 23.97 43.73 24.04 39.99 C 20.73 40.04 17.42 40.01 14.11 39.91 C 13.57 35.13 15.11 29.77 19.56 27.31 C 21.11 23.49 22.28 19.04 25.83 16.55 M 25.25 30.12 C 22.81 31.06 24.39 34.89 26.80 33.88 C 29.13 32.87 27.64 29.16 25.25 30.12 M 37.18 30.10 C 34.82 31.15 36.45 34.96 38.83 33.82 C 41.18 32.79 39.55 29.13 37.18 30.10 M 30.15 48.24 C 29.01 48.52 27.36 49.37 28.25 50.80 C 30.39 52.42 33.61 52.38 35.76 50.81 C 36.57 47.88 32.04 47.73 30.15 48.24 Z" />
</g>
<g id="#000000ff">
<path fill="#000000" opacity="1.00" d=" M 14.21 8.25 C 16.14 6.58 18.70 6.13 21.14 5.81 C 22.23 8.04 23.34 10.26 24.44 12.48 C 27.02 11.80 29.64 12.14 32.00 13.36 C 34.36 12.12 37.00 11.84 39.59 12.48 C 40.65 10.23 41.78 8.01 42.89 5.78 C 48.44 5.88 53.38 10.22 53.84 15.81 C 54.72 19.87 52.80 23.82 49.77 26.43 C 53.09 30.11 54.40 35.14 53.87 40.01 C 55.25 40.00 56.62 40.00 58.00 40.00 C 58.00 41.33 58.00 42.67 58.00 44.00 C 53.33 44.00 48.66 44.00 43.99 44.00 C 43.93 44.56 43.82 45.69 43.76 46.25 C 47.94 46.83 52.12 47.42 56.31 48.00 C 56.10 49.33 55.90 50.66 55.70 52.00 C 51.35 51.42 47.04 50.64 42.68 50.22 C 40.92 56.42 33.59 59.65 27.72 57.22 C 24.52 56.06 22.46 53.16 21.17 50.15 C 16.88 50.75 12.59 51.38 8.30 52.00 C 8.10 50.66 7.90 49.33 7.69 48.00 C 11.88 47.42 16.06 46.83 20.24 46.25 C 20.18 45.69 20.06 44.56 20.00 44.00 C 15.33 44.00 10.67 44.00 6.00 44.00 C 6.00 42.67 6.00 41.33 6.00 40.00 C 7.38 40.00 8.75 40.00 10.13 40.01 C 9.58 35.13 10.93 30.10 14.24 26.41 C 8.46 22.10 8.76 12.66 14.21 8.25 M 16.72 23.37 C 17.98 20.46 19.43 17.64 21.32 15.09 C 20.49 13.43 19.65 11.78 18.81 10.13 C 13.51 12.07 12.31 19.88 16.72 23.37 M 42.67 15.09 C 44.58 17.62 46.01 20.46 47.27 23.36 C 51.69 19.85 50.41 12.36 45.41 10.05 C 44.40 11.68 43.52 13.38 42.67 15.09 M 25.83 16.55 C 22.28 19.04 21.11 23.49 19.56 27.31 C 15.11 29.77 13.57 35.13 14.11 39.91 C 17.42 40.01 20.73 40.04 24.04 39.99 C 23.97 43.73 23.91 47.78 26.06 51.02 C 28.64 55.08 35.62 55.02 38.04 50.84 C 40.09 47.62 40.02 43.66 39.96 39.99 C 43.26 40.04 46.57 40.00 49.88 39.93 C 50.45 35.13 48.87 29.78 44.43 27.30 C 42.88 23.50 41.73 19.07 38.21 16.57 C 36.00 14.96 34.08 17.61 32.01 18.05 C 29.95 17.62 28.04 15.00 25.83 16.55 Z" />
<path fill="#000000" opacity="1.00" d=" M 25.25 30.12 C 27.64 29.16 29.13 32.87 26.80 33.88 C 24.39 34.89 22.81 31.06 25.25 30.12 Z" />
<path fill="#000000" opacity="1.00" d=" M 37.18 30.10 C 39.55 29.13 41.18 32.79 38.83 33.82 C 36.45 34.96 34.82 31.15 37.18 30.10 Z" />
<path fill="#000000" opacity="1.00" d=" M 30.15 48.24 C 32.04 47.73 36.57 47.88 35.76 50.81 C 33.61 52.38 30.39 52.42 28.25 50.80 C 27.36 49.37 29.01 48.52 30.15 48.24 Z" />
</g>
</svg>
