<?xml version="1.0" encoding="UTF-8" ?>
<!DOCTYPE svg PUBLIC "-//W3C//DTD SVG 1.1//EN" "http://www.w3.org/Graphics/SVG/1.1/DTD/svg11.dtd">
<svg width="64pt" height="64pt" viewBox="0 0 64 64" version="1.1" xmlns="http://www.w3.org/2000/svg">
<g id="#ffffffff">
<path fill="#ffffff" opacity="1.00" d=" M 0.00 0.00 L 64.00 0.00 L 64.00 18.00 C 62.00 18.00 60.00 18.00 58.00 18.00 C 58.00 19.32 58.00 20.64 58.00 21.97 C 58.50 21.98 59.50 22.02 60.00 22.03 C 60.00 28.68 60.00 35.32 60.00 41.97 C 59.50 41.98 58.50 42.02 58.00 42.03 C 58.00 43.36 58.00 44.68 58.00 46.00 C 60.00 46.00 62.00 46.00 64.00 46.00 L 64.00 64.00 L 0.00 64.00 L 0.00 46.00 C 2.00 46.00 4.00 46.00 6.00 46.00 C 6.00 44.68 6.00 43.35 6.00 42.03 C 5.50 42.02 4.50 41.98 4.00 41.97 C 4.00 35.32 4.00 28.68 4.00 22.03 C 4.50 22.02 5.50 21.98 6.00 21.97 C 6.00 20.64 6.00 19.32 6.00 18.00 C 4.00 18.00 2.00 18.00 0.00 18.00 L 0.00 0.00 M 6.56 27.44 C 8.09 28.95 9.60 30.48 11.12 32.00 C 9.60 33.52 8.10 35.04 6.57 36.55 C 7.54 37.51 8.50 38.47 9.47 39.43 C 10.97 37.90 12.50 36.41 14.02 34.89 C 15.53 36.41 17.05 37.91 18.56 39.43 C 19.51 38.47 20.48 37.51 21.44 36.55 C 19.92 35.05 18.42 33.52 16.91 32.00 C 18.42 30.47 19.93 28.95 21.46 27.45 C 20.49 26.47 19.51 25.51 18.51 24.57 C 17.03 26.10 15.53 27.61 14.01 29.10 C 12.49 27.59 10.96 26.09 9.46 24.56 C 8.50 25.52 7.53 26.48 6.56 27.44 M 24.56 27.44 C 26.09 28.95 27.60 30.48 29.12 32.00 C 27.61 33.52 26.10 35.04 24.57 36.54 C 25.54 37.50 26.50 38.47 27.46 39.44 C 28.96 37.91 30.50 36.41 32.01 34.90 C 33.53 36.41 35.05 37.91 36.55 39.43 C 37.51 38.47 38.48 37.51 39.44 36.55 C 37.92 35.05 36.42 33.52 34.91 32.00 C 36.41 30.48 37.92 28.96 39.45 27.46 C 38.49 26.49 37.53 25.52 36.57 24.55 C 35.06 26.08 33.53 27.59 32.02 29.10 C 30.50 27.59 28.96 26.09 27.47 24.56 C 26.50 25.52 25.53 26.48 24.56 27.44 M 42.56 27.44 C 44.09 28.95 45.60 30.48 47.12 32.00 C 45.60 33.52 44.10 35.04 42.57 36.55 C 43.54 37.51 44.50 38.47 45.47 39.43 C 46.97 37.90 48.50 36.41 50.01 34.89 C 51.53 36.41 53.05 37.91 54.55 39.43 C 55.51 38.47 56.48 37.51 57.44 36.55 C 55.92 35.05 54.42 33.52 52.91 32.00 C 54.42 30.47 55.92 28.96 57.45 27.45 C 56.49 26.49 55.53 25.52 54.57 24.55 C 53.06 26.08 51.53 27.59 50.02 29.10 C 48.49 27.59 46.96 26.09 45.47 24.56 C 44.50 25.52 43.53 26.48 42.56 27.44 Z" />
</g>
<g id="#000000ff">
<path fill="#000000" opacity="1.00" d=" M 0.00 18.00 C 2.00 18.00 4.00 18.00 6.00 18.00 C 6.00 19.32 6.00 20.64 6.00 21.97 C 5.50 21.98 4.50 22.02 4.00 22.03 C 4.00 28.68 4.00 35.32 4.00 41.97 C 4.50 41.98 5.50 42.02 6.00 42.03 C 6.00 43.35 6.00 44.68 6.00 46.00 C 4.00 46.00 2.00 46.00 0.00 46.00 L 0.00 18.00 Z" />
<path fill="#000000" opacity="1.00" d=" M 58.00 18.00 C 60.00 18.00 62.00 18.00 64.00 18.00 L 64.00 46.00 C 62.00 46.00 60.00 46.00 58.00 46.00 C 58.00 44.68 58.00 43.36 58.00 42.03 C 58.50 42.02 59.50 41.98 60.00 41.97 C 60.00 35.32 60.00 28.68 60.00 22.03 C 59.50 22.02 58.50 21.98 58.00 21.97 C 58.00 20.64 58.00 19.32 58.00 18.00 Z" />
<path fill="#000000" opacity="1.00" d=" M 6.56 27.44 C 7.53 26.48 8.50 25.52 9.46 24.56 C 10.96 26.09 12.49 27.59 14.01 29.10 C 15.53 27.61 17.03 26.10 18.51 24.57 C 19.51 25.51 20.49 26.47 21.46 27.45 C 19.93 28.95 18.42 30.47 16.91 32.00 C 18.42 33.52 19.92 35.05 21.44 36.55 C 20.48 37.51 19.51 38.47 18.56 39.43 C 17.05 37.91 15.53 36.41 14.02 34.89 C 12.50 36.41 10.97 37.90 9.47 39.43 C 8.50 38.47 7.54 37.51 6.57 36.55 C 8.10 35.04 9.60 33.52 11.12 32.00 C 9.60 30.48 8.09 28.95 6.56 27.44 Z" />
<path fill="#000000" opacity="1.00" d=" M 24.56 27.44 C 25.53 26.48 26.50 25.52 27.47 24.56 C 28.96 26.09 30.50 27.59 32.02 29.10 C 33.53 27.59 35.06 26.08 36.57 24.55 C 37.53 25.52 38.49 26.49 39.45 27.46 C 37.92 28.96 36.41 30.48 34.91 32.00 C 36.42 33.52 37.92 35.05 39.44 36.55 C 38.48 37.51 37.51 38.47 36.55 39.43 C 35.05 37.91 33.53 36.41 32.01 34.90 C 30.50 36.41 28.96 37.91 27.46 39.44 C 26.50 38.47 25.54 37.50 24.57 36.54 C 26.10 35.04 27.61 33.52 29.12 32.00 C 27.60 30.48 26.09 28.95 24.56 27.44 Z" />
<path fill="#000000" opacity="1.00" d=" M 42.56 27.44 C 43.53 26.48 44.50 25.52 45.47 24.56 C 46.96 26.09 48.49 27.59 50.02 29.10 C 51.53 27.59 53.06 26.08 54.57 24.55 C 55.53 25.52 56.49 26.49 57.45 27.45 C 55.92 28.96 54.42 30.47 52.91 32.00 C 54.42 33.52 55.92 35.05 57.44 36.55 C 56.48 37.51 55.51 38.47 54.55 39.43 C 53.05 37.91 51.53 36.41 50.01 34.89 C 48.50 36.41 46.97 37.90 45.47 39.43 C 44.50 38.47 43.54 37.51 42.57 36.55 C 44.10 35.04 45.60 33.52 47.12 32.00 C 45.60 30.48 44.09 28.95 42.56 27.44 Z" />
</g>
</svg>
