<?xml version="1.0" encoding="UTF-8" ?>
<!DOCTYPE svg PUBLIC "-//W3C//DTD SVG 1.1//EN" "http://www.w3.org/Graphics/SVG/1.1/DTD/svg11.dtd">
<svg width="64pt" height="64pt" viewBox="0 0 64 64" version="1.1" xmlns="http://www.w3.org/2000/svg">
<g id="#ffffffff">
<path fill="#ffffff" opacity="1.00" d=" M 0.00 0.00 L 64.00 0.00 L 64.00 64.00 L 0.00 64.00 L 0.00 0.00 M 35.56 13.44 C 39.75 17.61 43.93 21.81 48.12 25.99 C 39.41 26.04 30.70 25.94 22.00 26.03 C 15.34 25.93 9.11 31.23 8.23 37.84 C 7.73 43.21 8.12 48.61 8.00 54.00 C 9.33 54.00 10.67 54.00 12.00 54.00 C 12.08 48.96 11.83 43.90 12.11 38.87 C 12.52 34.00 17.05 29.95 21.93 30.04 C 30.66 29.94 39.39 30.03 48.11 30.01 C 43.94 34.18 39.77 38.38 35.57 42.54 C 36.54 43.50 37.50 44.46 38.46 45.44 C 44.25 39.63 50.08 33.85 55.83 28.00 C 50.11 22.11 44.23 16.38 38.46 10.55 C 37.50 11.53 36.53 12.49 35.56 13.44 Z" />
</g>
<g id="#000000ff">
<path fill="#000000" opacity="1.00" d=" M 35.56 13.44 C 36.53 12.49 37.50 11.53 38.46 10.55 C 44.23 16.38 50.11 22.11 55.83 28.00 C 50.08 33.85 44.25 39.63 38.46 45.44 C 37.50 44.46 36.54 43.50 35.57 42.54 C 39.77 38.38 43.94 34.18 48.11 30.01 C 39.39 30.03 30.66 29.94 21.93 30.04 C 17.05 29.95 12.52 34.00 12.11 38.87 C 11.83 43.90 12.08 48.96 12.00 54.00 C 10.67 54.00 9.33 54.00 8.00 54.00 C 8.12 48.61 7.73 43.21 8.23 37.84 C 9.11 31.23 15.34 25.93 22.00 26.03 C 30.70 25.94 39.41 26.04 48.12 25.99 C 43.93 21.81 39.75 17.61 35.56 13.44 Z" />
</g>
</svg>
