<?xml version="1.0" encoding="UTF-8" ?>
<!DOCTYPE svg PUBLIC "-//W3C//DTD SVG 1.1//EN" "http://www.w3.org/Graphics/SVG/1.1/DTD/svg11.dtd">
<svg width="64pt" height="64pt" viewBox="0 0 64 64" version="1.1" xmlns="http://www.w3.org/2000/svg">
<g id="#ffffffff">
<path fill="#ffffff" opacity="1.00" d=" M 0.00 0.00 L 64.00 0.00 L 64.00 64.00 L 0.00 64.00 L 0.00 0.00 M 15.70 10.59 C 9.91 16.53 11.30 27.02 18.06 31.66 C 10.90 34.81 6.07 42.17 5.91 49.98 C 7.23 49.99 8.55 50.00 9.87 50.00 C 10.00 42.27 16.06 35.02 23.85 34.15 C 28.68 33.34 33.41 35.37 37.05 38.42 C 34.02 41.66 30.65 44.56 27.74 47.91 C 26.62 51.36 26.33 55.03 25.45 58.55 C 29.68 57.08 35.20 58.13 38.26 54.29 C 44.05 48.38 49.97 42.59 55.79 36.71 C 57.79 34.93 58.65 31.90 57.41 29.43 C 55.97 26.07 51.18 24.87 48.39 27.26 C 45.40 29.85 42.79 32.83 39.94 35.56 C 38.08 34.05 36.08 32.73 33.95 31.62 C 40.22 27.27 41.99 17.85 37.26 11.75 C 32.48 4.73 21.21 4.12 15.70 10.59 Z" />
<path fill="#ffffff" opacity="1.00" d=" M 22.50 10.64 C 29.39 7.72 37.54 14.55 35.80 21.85 C 34.78 29.20 24.80 32.64 19.43 27.52 C 13.76 22.99 15.59 12.88 22.50 10.64 Z" />
<path fill="#ffffff" opacity="1.00" d=" M 50.60 30.66 C 52.27 28.66 55.40 31.57 53.41 33.32 C 47.51 39.46 41.35 45.36 35.40 51.45 C 34.20 53.00 32.19 53.12 30.44 53.56 C 30.49 49.46 34.12 47.27 36.61 44.58 C 41.29 39.97 45.85 35.21 50.60 30.66 Z" />
</g>
<g id="#000000ff">
<path fill="#000000" opacity="1.00" d=" M 15.70 10.59 C 21.21 4.12 32.48 4.73 37.26 11.75 C 41.99 17.85 40.22 27.27 33.95 31.62 C 36.08 32.73 38.08 34.05 39.94 35.56 C 42.79 32.83 45.40 29.85 48.39 27.26 C 51.18 24.87 55.97 26.07 57.41 29.43 C 58.65 31.90 57.79 34.93 55.79 36.71 C 49.97 42.59 44.05 48.38 38.26 54.29 C 35.20 58.13 29.68 57.08 25.45 58.55 C 26.33 55.03 26.62 51.36 27.74 47.91 C 30.65 44.56 34.02 41.66 37.05 38.42 C 33.41 35.37 28.68 33.34 23.85 34.15 C 16.06 35.02 10.00 42.27 9.87 50.00 C 8.55 50.00 7.23 49.99 5.91 49.98 C 6.07 42.17 10.90 34.81 18.06 31.66 C 11.30 27.02 9.91 16.53 15.70 10.59 M 22.50 10.64 C 15.59 12.88 13.76 22.99 19.43 27.52 C 24.80 32.64 34.78 29.20 35.80 21.85 C 37.54 14.55 29.39 7.72 22.50 10.64 M 50.60 30.66 C 45.85 35.21 41.29 39.97 36.61 44.58 C 34.12 47.27 30.49 49.46 30.44 53.56 C 32.19 53.12 34.20 53.00 35.40 51.45 C 41.35 45.36 47.51 39.46 53.41 33.32 C 55.40 31.57 52.27 28.66 50.60 30.66 Z" />
</g>
</svg>
