<?xml version="1.0" encoding="UTF-8" ?>
<!DOCTYPE svg PUBLIC "-//W3C//DTD SVG 1.1//EN" "http://www.w3.org/Graphics/SVG/1.1/DTD/svg11.dtd">
<svg width="64pt" height="64pt" viewBox="0 0 64 64" version="1.1" xmlns="http://www.w3.org/2000/svg">
<g id="#ffffffff">
<path fill="#ffffff" opacity="1.00" d=" M 0.00 0.00 L 64.00 0.00 L 64.00 46.04 C 62.81 46.03 61.62 46.04 60.44 46.05 C 57.97 48.52 54.02 48.50 51.56 46.05 C 50.52 46.04 49.48 46.04 48.44 46.05 C 45.98 48.52 42.02 48.50 39.56 46.05 C 38.52 46.04 37.48 46.04 36.44 46.05 C 33.98 48.52 30.03 48.50 27.56 46.05 C 26.52 46.04 25.48 46.04 24.45 46.05 C 21.98 48.52 18.03 48.50 15.55 46.05 C 14.52 46.04 13.48 46.04 12.45 46.05 C 9.99 48.52 6.03 48.50 3.56 46.06 C 2.37 46.04 1.19 46.02 0.00 46.01 L 0.00 0.00 M 14.74 22.60 C 12.00 24.07 9.34 25.70 7.21 28.01 C 9.86 30.75 13.13 32.91 16.94 33.61 C 17.14 36.43 17.53 39.23 18.14 41.99 C 19.54 41.99 20.95 41.99 22.35 42.01 C 21.20 38.11 20.83 34.03 21.18 29.98 C 18.99 29.41 14.58 30.24 14.08 27.41 C 15.36 26.79 16.67 26.26 17.98 25.71 C 18.71 24.05 19.58 22.46 20.50 20.91 C 21.74 23.39 22.29 26.11 22.31 28.87 C 26.15 28.42 30.05 28.56 33.77 29.68 C 35.81 28.04 37.46 26.02 38.90 23.84 C 41.11 27.15 43.27 30.90 42.71 35.05 C 44.55 37.05 46.00 39.36 46.73 42.00 C 47.75 42.00 49.78 41.99 50.80 41.98 C 50.16 38.98 48.87 36.21 46.98 33.80 C 46.58 27.04 42.46 21.26 37.65 16.79 C 36.33 19.81 35.05 22.97 32.65 25.33 C 30.49 24.85 28.29 24.62 26.08 24.57 C 25.22 20.83 23.18 17.53 20.45 14.86 C 17.94 16.98 16.47 19.89 14.74 22.60 Z" />
<path fill="#ffffff" opacity="1.00" d=" M 0.00 46.85 C 1.96 52.55 9.52 53.18 14.00 50.13 C 17.66 52.50 22.33 52.50 26.00 50.13 C 29.66 52.49 34.33 52.50 38.00 50.13 C 41.66 52.49 46.33 52.50 50.00 50.14 C 54.47 53.18 61.96 52.54 64.00 46.90 L 64.00 64.00 L 0.00 64.00 L 0.00 46.85 Z" />
</g>
<g id="#000000ff">
<path fill="#000000" opacity="1.00" d=" M 14.74 22.60 C 16.47 19.89 17.94 16.98 20.45 14.86 C 23.18 17.53 25.22 20.83 26.08 24.57 C 28.29 24.62 30.49 24.85 32.65 25.33 C 35.05 22.97 36.33 19.81 37.65 16.79 C 42.46 21.26 46.58 27.04 46.98 33.80 C 48.87 36.21 50.16 38.98 50.80 41.98 C 49.78 41.99 47.75 42.00 46.73 42.00 C 46.00 39.36 44.55 37.05 42.71 35.05 C 43.27 30.90 41.11 27.15 38.90 23.84 C 37.46 26.02 35.81 28.04 33.77 29.68 C 30.05 28.56 26.15 28.42 22.31 28.87 C 22.29 26.11 21.74 23.39 20.50 20.91 C 19.58 22.46 18.71 24.05 17.98 25.71 C 16.67 26.26 15.36 26.79 14.08 27.41 C 14.58 30.24 18.99 29.41 21.18 29.98 C 20.83 34.03 21.20 38.11 22.35 42.01 C 20.95 41.99 19.54 41.99 18.14 41.99 C 17.53 39.23 17.14 36.43 16.94 33.61 C 13.13 32.91 9.86 30.75 7.21 28.01 C 9.34 25.70 12.00 24.07 14.74 22.60 Z" />
<path fill="#000000" opacity="1.00" d=" M 0.00 46.01 C 1.19 46.02 2.37 46.04 3.56 46.06 C 6.03 48.50 9.99 48.52 12.45 46.05 C 13.48 46.04 14.52 46.04 15.55 46.05 C 18.03 48.50 21.98 48.52 24.45 46.05 C 25.48 46.04 26.52 46.04 27.56 46.05 C 30.03 48.50 33.98 48.52 36.44 46.05 C 37.48 46.04 38.52 46.04 39.56 46.05 C 42.02 48.50 45.98 48.52 48.44 46.05 C 49.48 46.04 50.52 46.04 51.56 46.05 C 54.02 48.50 57.97 48.52 60.44 46.05 C 61.62 46.04 62.81 46.03 64.00 46.04 L 64.00 46.90 C 61.96 52.54 54.47 53.18 50.00 50.14 C 46.33 52.50 41.66 52.49 38.00 50.13 C 34.33 52.50 29.66 52.49 26.00 50.13 C 22.33 52.50 17.66 52.50 14.00 50.13 C 9.52 53.18 1.96 52.55 0.00 46.85 L 0.00 46.01 Z" />
</g>
</svg>
