<?xml version="1.0" encoding="UTF-8" ?>
<!DOCTYPE svg PUBLIC "-//W3C//DTD SVG 1.1//EN" "http://www.w3.org/Graphics/SVG/1.1/DTD/svg11.dtd">
<svg width="64pt" height="64pt" viewBox="0 0 64 64" version="1.1" xmlns="http://www.w3.org/2000/svg">
<g id="#ffffffff">
<path fill="#ffffff" opacity="1.00" d=" M 0.00 0.00 L 64.00 0.00 L 64.00 64.00 L 0.00 64.00 L 0.00 0.00 M 28.01 5.97 C 28.00 8.65 27.99 11.32 28.00 14.00 C 21.33 14.00 14.67 14.00 8.00 14.00 C 8.00 26.00 8.00 38.00 8.00 50.00 C 13.34 49.99 18.69 50.03 24.03 49.97 C 23.53 49.48 22.52 48.48 22.02 47.99 C 22.51 47.49 23.50 46.50 23.99 46.00 C 19.99 46.00 16.00 46.00 12.00 46.00 C 12.00 36.67 12.00 27.33 12.00 18.00 C 17.33 18.00 22.67 18.00 28.00 18.00 C 28.00 20.67 28.00 23.33 28.00 26.00 C 31.34 22.66 34.68 19.32 38.01 15.98 C 34.68 12.64 31.34 9.31 28.01 5.97 M 40.04 14.00 C 40.53 14.50 41.52 15.49 42.01 15.98 C 41.51 16.49 40.51 17.50 40.00 18.00 C 44.00 18.00 48.00 18.00 52.00 18.00 C 52.00 27.33 52.00 36.67 52.00 46.00 C 46.67 46.00 41.33 46.00 36.00 46.00 C 36.00 43.33 36.00 40.67 36.00 38.00 C 32.67 41.33 29.34 44.65 26.02 47.98 C 29.34 51.33 32.70 54.64 36.00 58.01 C 36.00 55.34 36.00 52.67 36.00 50.00 C 42.67 50.00 49.33 50.00 56.00 50.00 C 56.00 38.00 56.00 26.00 56.00 14.00 C 50.68 14.00 45.36 14.00 40.04 14.00 Z" />
</g>
<g id="#000000ff">
<path fill="#000000" opacity="1.00" d=" M 28.01 5.97 C 31.34 9.31 34.68 12.64 38.01 15.98 C 34.68 19.32 31.34 22.66 28.00 26.00 C 28.00 23.33 28.00 20.67 28.00 18.00 C 22.67 18.00 17.33 18.00 12.00 18.00 C 12.00 27.33 12.00 36.67 12.00 46.00 C 16.00 46.00 19.99 46.00 23.99 46.00 C 23.50 46.50 22.51 47.49 22.02 47.99 C 22.52 48.48 23.53 49.48 24.03 49.97 C 18.69 50.03 13.34 49.99 8.00 50.00 C 8.00 38.00 8.00 26.00 8.00 14.00 C 14.67 14.00 21.33 14.00 28.00 14.00 C 27.99 11.32 28.00 8.65 28.01 5.97 Z" />
<path fill="#000000" opacity="1.00" d=" M 40.04 14.00 C 45.36 14.00 50.68 14.00 56.00 14.00 C 56.00 26.00 56.00 38.00 56.00 50.00 C 49.33 50.00 42.67 50.00 36.00 50.00 C 36.00 52.67 36.00 55.34 36.00 58.01 C 32.70 54.64 29.34 51.33 26.02 47.98 C 29.34 44.65 32.67 41.33 36.00 38.00 C 36.00 40.67 36.00 43.33 36.00 46.00 C 41.33 46.00 46.67 46.00 52.00 46.00 C 52.00 36.67 52.00 27.33 52.00 18.00 C 48.00 18.00 44.00 18.00 40.00 18.00 C 40.51 17.50 41.51 16.49 42.01 15.98 C 41.52 15.49 40.53 14.50 40.04 14.00 Z" />
</g>
</svg>
