<?xml version="1.0" encoding="UTF-8" ?>
<!DOCTYPE svg PUBLIC "-//W3C//DTD SVG 1.1//EN" "http://www.w3.org/Graphics/SVG/1.1/DTD/svg11.dtd">
<svg width="64pt" height="64pt" viewBox="0 0 64 64" version="1.1" xmlns="http://www.w3.org/2000/svg">
<g id="#ffffffff">
<path fill="#ffffff" opacity="1.00" d=" M 0.00 0.00 L 64.00 0.00 L 64.00 64.00 L 0.00 64.00 L 0.00 0.00 M 20.00 10.00 C 22.67 12.35 25.33 14.71 28.00 17.07 C 27.99 15.37 28.00 13.68 28.00 11.98 C 31.64 11.98 35.40 11.87 38.85 13.21 C 45.91 15.70 51.20 22.47 51.87 29.92 C 52.70 37.00 49.34 44.34 43.47 48.38 C 37.01 53.01 27.76 53.18 21.13 48.79 C 14.91 44.85 11.26 37.27 12.12 29.94 C 12.61 24.23 15.90 19.12 20.37 15.66 C 19.33 14.78 18.31 13.88 17.31 12.95 C 12.51 16.96 8.94 22.59 8.23 28.88 C 7.00 37.35 10.83 46.26 17.75 51.27 C 23.97 55.96 32.55 57.28 39.88 54.63 C 48.63 51.70 55.19 43.28 55.89 34.08 C 56.70 25.89 52.84 17.52 46.22 12.68 C 41.07 8.69 34.36 7.64 28.00 7.99 C 28.00 6.31 27.99 4.63 27.99 2.96 C 25.33 5.30 22.67 7.65 20.00 10.00 M 24.12 22.03 C 23.36 24.00 22.16 25.71 20.01 26.29 C 20.02 27.60 20.02 28.92 20.03 30.23 C 21.35 29.74 22.69 29.27 24.04 28.83 C 23.95 33.22 24.02 37.61 24.00 42.00 C 25.33 41.99 26.67 41.99 28.00 42.00 C 28.00 35.33 28.00 28.66 28.00 21.99 C 26.71 22.00 25.41 22.02 24.12 22.03 M 35.39 22.61 C 30.41 25.14 32.28 31.60 32.06 36.08 C 31.84 40.52 37.44 43.62 41.10 41.11 C 45.51 38.27 43.69 32.28 43.94 27.91 C 44.12 23.71 39.08 20.58 35.39 22.61 Z" />
<path fill="#ffffff" opacity="1.00" d=" M 37.18 26.10 C 38.33 25.81 39.22 26.15 39.83 27.13 C 40.14 30.37 40.14 33.64 39.83 36.88 C 39.13 38.35 36.85 38.35 36.17 36.86 C 35.85 33.62 35.86 30.34 36.18 27.09 C 36.43 26.84 36.93 26.35 37.18 26.10 Z" />
</g>
<g id="#000000ff">
<path fill="#000000" opacity="1.00" d=" M 20.00 10.00 C 22.67 7.65 25.33 5.30 27.99 2.96 C 27.99 4.63 28.00 6.31 28.00 7.99 C 34.36 7.64 41.07 8.69 46.22 12.68 C 52.84 17.52 56.70 25.89 55.89 34.08 C 55.19 43.28 48.63 51.70 39.88 54.63 C 32.55 57.28 23.97 55.96 17.75 51.27 C 10.83 46.26 7.00 37.35 8.23 28.88 C 8.94 22.59 12.51 16.96 17.31 12.95 C 18.31 13.88 19.33 14.78 20.37 15.66 C 15.90 19.12 12.61 24.23 12.12 29.94 C 11.26 37.27 14.91 44.85 21.13 48.79 C 27.76 53.18 37.01 53.01 43.47 48.38 C 49.34 44.34 52.70 37.00 51.87 29.92 C 51.20 22.47 45.91 15.70 38.85 13.21 C 35.40 11.87 31.64 11.98 28.00 11.98 C 28.00 13.68 27.99 15.37 28.00 17.07 C 25.33 14.71 22.67 12.35 20.00 10.00 Z" />
<path fill="#000000" opacity="1.00" d=" M 24.12 22.03 C 25.41 22.02 26.71 22.00 28.00 21.99 C 28.00 28.66 28.00 35.33 28.00 42.00 C 26.67 41.99 25.33 41.99 24.00 42.00 C 24.02 37.61 23.95 33.22 24.04 28.83 C 22.69 29.27 21.35 29.74 20.03 30.23 C 20.02 28.92 20.02 27.60 20.01 26.29 C 22.16 25.71 23.36 24.00 24.12 22.03 Z" />
<path fill="#000000" opacity="1.00" d=" M 35.39 22.61 C 39.08 20.58 44.12 23.71 43.94 27.91 C 43.69 32.28 45.51 38.27 41.10 41.11 C 37.44 43.62 31.84 40.52 32.06 36.08 C 32.28 31.60 30.41 25.14 35.39 22.61 M 37.18 26.10 C 36.93 26.35 36.43 26.84 36.18 27.09 C 35.86 30.34 35.85 33.62 36.17 36.86 C 36.85 38.35 39.13 38.35 39.83 36.88 C 40.14 33.64 40.14 30.37 39.83 27.13 C 39.22 26.15 38.33 25.81 37.18 26.10 Z" />
</g>
</svg>
