<?xml version="1.0" encoding="UTF-8" ?>
<!DOCTYPE svg PUBLIC "-//W3C//DTD SVG 1.1//EN" "http://www.w3.org/Graphics/SVG/1.1/DTD/svg11.dtd">
<svg width="64pt" height="64pt" viewBox="0 0 64 64" version="1.1" xmlns="http://www.w3.org/2000/svg">
<g id="#ffffffff">
<path fill="#ffffff" opacity="1.00" d=" M 0.00 0.00 L 64.00 0.00 L 64.00 64.00 L 0.00 64.00 L 0.00 0.00 M 9.85 22.78 C 6.25 31.11 8.08 41.25 14.07 48.01 C 12.71 48.01 11.36 48.00 10.00 48.00 C 10.00 49.33 10.00 50.67 10.00 52.00 C 14.00 52.00 18.00 52.00 22.00 52.00 C 22.00 48.00 22.00 44.00 22.00 40.00 C 20.67 40.00 19.34 40.00 18.01 40.00 C 18.00 42.10 18.00 44.20 17.95 46.29 C 12.53 40.84 10.45 32.29 13.24 25.05 C 15.96 17.28 23.84 12.00 32.00 11.92 C 32.00 10.59 31.99 9.26 31.98 7.93 C 22.52 8.01 13.40 13.96 9.85 22.78 M 35.38 12.26 C 36.67 12.62 37.96 12.97 39.26 13.33 C 39.61 12.04 39.97 10.76 40.32 9.48 C 39.06 9.12 37.80 8.75 36.53 8.39 C 36.15 9.68 35.76 10.97 35.38 12.26 M 42.00 12.00 C 42.00 16.00 42.00 20.00 42.00 24.00 C 43.33 24.00 44.66 24.00 45.99 24.00 C 46.00 21.90 46.00 19.80 46.05 17.71 C 51.65 23.31 53.63 32.20 50.52 39.54 C 47.62 47.00 39.94 51.97 32.00 52.09 C 32.00 53.42 32.01 54.74 32.02 56.07 C 41.47 55.99 50.57 50.05 54.12 41.24 C 57.77 32.89 55.89 22.74 49.87 15.99 C 51.25 15.99 52.62 16.00 54.00 16.00 C 54.00 14.67 54.00 13.33 54.00 12.00 C 50.00 12.00 46.00 12.00 42.00 12.00 M 23.67 54.49 C 24.94 54.86 26.20 55.23 27.47 55.62 C 27.85 54.32 28.24 53.03 28.62 51.73 C 27.33 51.38 26.03 51.03 24.75 50.67 C 24.39 51.94 24.03 53.22 23.67 54.49 Z" />
</g>
<g id="#000000ff">
<path fill="#000000" opacity="1.00" d=" M 9.85 22.78 C 13.40 13.96 22.52 8.01 31.98 7.93 C 31.99 9.26 32.00 10.59 32.00 11.92 C 23.84 12.00 15.96 17.28 13.24 25.05 C 10.45 32.29 12.53 40.84 17.95 46.29 C 18.00 44.20 18.00 42.10 18.01 40.00 C 19.34 40.00 20.67 40.00 22.00 40.00 C 22.00 44.00 22.00 48.00 22.00 52.00 C 18.00 52.00 14.00 52.00 10.00 52.00 C 10.00 50.67 10.00 49.33 10.00 48.00 C 11.36 48.00 12.71 48.01 14.07 48.01 C 8.08 41.25 6.25 31.11 9.85 22.78 Z" />
<path fill="#000000" opacity="1.00" d=" M 35.38 12.26 C 35.76 10.97 36.15 9.68 36.53 8.39 C 37.80 8.75 39.06 9.12 40.32 9.48 C 39.97 10.76 39.61 12.04 39.26 13.33 C 37.96 12.97 36.67 12.62 35.38 12.26 Z" />
<path fill="#000000" opacity="1.00" d=" M 42.00 12.00 C 46.00 12.00 50.00 12.00 54.00 12.00 C 54.00 13.33 54.00 14.67 54.00 16.00 C 52.62 16.00 51.25 15.99 49.87 15.99 C 55.89 22.74 57.77 32.89 54.12 41.24 C 50.57 50.05 41.47 55.99 32.02 56.07 C 32.01 54.74 32.00 53.42 32.00 52.09 C 39.94 51.97 47.62 47.00 50.52 39.54 C 53.63 32.20 51.65 23.31 46.05 17.71 C 46.00 19.80 46.00 21.90 45.99 24.00 C 44.66 24.00 43.33 24.00 42.00 24.00 C 42.00 20.00 42.00 16.00 42.00 12.00 Z" />
<path fill="#000000" opacity="1.00" d=" M 23.67 54.49 C 24.03 53.22 24.39 51.94 24.75 50.67 C 26.03 51.03 27.33 51.38 28.62 51.73 C 28.24 53.03 27.85 54.32 27.47 55.62 C 26.20 55.23 24.94 54.86 23.67 54.49 Z" />
</g>
</svg>
