<?xml version="1.0" encoding="UTF-8" ?>
<!DOCTYPE svg PUBLIC "-//W3C//DTD SVG 1.1//EN" "http://www.w3.org/Graphics/SVG/1.1/DTD/svg11.dtd">
<svg width="64pt" height="64pt" viewBox="0 0 64 64" version="1.1" xmlns="http://www.w3.org/2000/svg">
<g id="#ffffffff">
<path fill="#ffffff" opacity="1.00" d=" M 0.00 0.00 L 64.00 0.00 L 64.00 64.00 L 0.00 64.00 L 0.00 0.00 M 54.59 6.55 C 52.48 8.64 50.38 10.74 48.29 12.84 C 45.90 9.70 41.31 6.87 37.59 9.58 C 34.40 12.67 30.43 15.46 29.11 19.91 C 28.12 23.01 25.33 24.93 23.20 27.21 C 20.91 29.92 16.81 29.73 14.52 32.44 C 12.51 34.64 9.90 36.43 8.53 39.11 C 7.38 42.85 10.31 45.98 12.84 48.29 C 10.74 50.38 8.65 52.48 6.56 54.58 C 7.53 55.53 8.51 56.48 9.49 57.42 C 11.55 55.31 13.66 53.25 15.73 51.15 C 17.80 53.11 19.78 55.95 22.98 55.80 C 26.56 55.64 28.53 52.13 31.01 50.03 C 33.46 48.13 34.23 45.08 35.52 42.42 C 37.00 40.33 38.97 38.64 40.78 36.84 C 43.02 34.41 46.78 34.41 49.03 31.99 C 51.14 29.77 53.64 27.82 55.26 25.19 C 56.90 21.42 53.75 18.05 51.16 15.72 C 53.25 13.63 55.34 11.55 57.44 9.47 C 56.50 8.49 55.55 7.52 54.59 6.55 Z" />
<path fill="#ffffff" opacity="1.00" d=" M 35.78 16.79 C 37.78 15.16 39.72 11.36 42.75 13.17 C 45.14 15.12 47.18 17.45 49.40 19.58 C 50.40 20.69 51.97 21.86 51.61 23.56 C 48.74 26.84 45.76 30.48 41.30 31.52 C 39.55 29.79 37.77 28.08 36.00 26.37 C 35.07 27.34 34.13 28.30 33.19 29.25 C 34.82 30.79 36.43 32.34 38.06 33.87 C 36.68 35.28 35.27 36.66 33.88 38.07 C 32.34 36.44 30.79 34.82 29.25 33.19 C 28.30 34.13 27.34 35.06 26.38 35.99 C 28.09 37.78 29.81 39.56 31.54 41.33 C 30.47 45.69 26.96 48.63 23.75 51.46 C 23.32 51.48 22.44 51.51 22.01 51.53 C 19.02 49.02 16.37 46.13 13.61 43.37 C 12.79 42.51 11.59 40.93 12.82 39.88 C 14.57 37.94 16.39 36.03 18.43 34.38 C 20.55 33.16 23.17 32.82 24.96 31.04 C 26.69 29.41 28.36 27.70 30.05 26.02 C 32.96 23.59 32.75 19.15 35.78 16.79 Z" />
</g>
<g id="#000000ff">
<path fill="#000000" opacity="1.00" d=" M 54.59 6.55 C 55.55 7.52 56.50 8.49 57.44 9.47 C 55.34 11.55 53.25 13.63 51.16 15.72 C 53.75 18.05 56.90 21.42 55.26 25.19 C 53.64 27.82 51.14 29.77 49.03 31.99 C 46.78 34.41 43.02 34.41 40.78 36.84 C 38.97 38.64 37.00 40.33 35.52 42.42 C 34.23 45.08 33.46 48.13 31.01 50.03 C 28.53 52.13 26.56 55.64 22.98 55.80 C 19.78 55.95 17.80 53.11 15.73 51.15 C 13.66 53.25 11.55 55.31 9.49 57.42 C 8.51 56.48 7.53 55.53 6.56 54.58 C 8.65 52.48 10.74 50.38 12.84 48.29 C 10.31 45.98 7.38 42.85 8.53 39.11 C 9.90 36.43 12.51 34.64 14.52 32.44 C 16.81 29.73 20.91 29.92 23.20 27.21 C 25.33 24.93 28.12 23.01 29.11 19.91 C 30.43 15.46 34.40 12.67 37.59 9.58 C 41.31 6.87 45.90 9.70 48.29 12.84 C 50.38 10.74 52.48 8.64 54.59 6.55 M 35.78 16.79 C 32.75 19.15 32.96 23.59 30.05 26.02 C 28.36 27.70 26.69 29.41 24.96 31.04 C 23.17 32.82 20.55 33.16 18.43 34.38 C 16.39 36.03 14.57 37.94 12.82 39.88 C 11.59 40.93 12.79 42.51 13.61 43.37 C 16.37 46.13 19.02 49.02 22.01 51.53 C 22.44 51.51 23.32 51.48 23.75 51.46 C 26.96 48.63 30.47 45.69 31.54 41.33 C 29.81 39.56 28.09 37.78 26.38 35.99 C 27.34 35.06 28.30 34.13 29.25 33.19 C 30.79 34.82 32.34 36.44 33.88 38.07 C 35.27 36.66 36.68 35.28 38.06 33.87 C 36.43 32.34 34.82 30.79 33.19 29.25 C 34.13 28.30 35.07 27.34 36.00 26.37 C 37.77 28.08 39.55 29.79 41.30 31.52 C 45.76 30.48 48.74 26.84 51.61 23.56 C 51.97 21.86 50.40 20.69 49.40 19.58 C 47.18 17.45 45.14 15.12 42.75 13.17 C 39.72 11.36 37.78 15.16 35.78 16.79 Z" />
</g>
</svg>
