<?xml version="1.0" encoding="UTF-8" ?>
<!DOCTYPE svg PUBLIC "-//W3C//DTD SVG 1.1//EN" "http://www.w3.org/Graphics/SVG/1.1/DTD/svg11.dtd">
<svg width="64pt" height="64pt" viewBox="0 0 64 64" version="1.1" xmlns="http://www.w3.org/2000/svg">
<g id="#ffffffff">
<path fill="#ffffff" opacity="1.00" d=" M 0.00 0.00 L 64.00 0.00 L 64.00 64.00 L 0.00 64.00 L 0.00 0.00 M 8.65 8.72 C 5.14 12.09 5.45 17.90 8.56 21.44 C 9.50 20.53 10.44 19.61 11.38 18.71 C 9.67 16.38 9.46 12.78 12.07 10.99 C 14.06 9.31 16.74 10.08 18.73 11.32 C 19.65 10.41 20.57 9.49 21.48 8.57 C 17.96 5.32 11.99 5.10 8.65 8.72 M 42.57 8.46 C 43.47 9.42 44.37 10.37 45.28 11.33 C 47.31 10.06 50.06 9.29 52.06 11.06 C 54.56 12.87 54.35 16.39 52.68 18.70 C 53.62 19.61 54.56 20.53 55.50 21.45 C 58.60 17.88 58.92 12.04 55.36 8.66 C 51.99 5.09 46.17 5.40 42.57 8.46 M 22.34 12.25 C 15.25 15.66 10.31 23.11 10.04 30.99 C 9.69 36.94 12.06 42.83 16.08 47.18 C 14.73 49.43 13.37 51.69 11.91 53.88 C 13.07 54.57 14.22 55.25 15.34 56.00 C 16.60 53.95 17.90 51.92 19.19 49.88 C 26.71 55.28 37.30 55.19 44.86 49.92 C 46.10 51.95 47.35 53.96 48.60 55.99 C 49.73 55.28 50.87 54.59 52.02 53.91 C 50.64 51.70 49.28 49.47 47.91 47.26 C 51.35 43.35 53.77 38.41 53.95 33.14 C 54.45 25.31 50.30 17.46 43.64 13.36 C 37.36 9.35 29.00 8.91 22.34 12.25 Z" />
<path fill="#ffffff" opacity="1.00" d=" M 27.42 14.59 C 33.24 13.04 39.79 14.62 44.19 18.75 C 48.66 22.81 50.80 29.20 49.71 35.13 C 48.68 41.39 44.04 46.88 38.04 48.94 C 31.90 51.20 24.59 49.72 19.81 45.25 C 15.34 41.22 13.20 34.84 14.27 28.91 C 15.35 22.11 20.74 16.26 27.42 14.59 M 30.00 18.00 C 30.00 22.00 30.00 26.00 30.00 30.00 C 27.33 30.00 24.67 30.00 22.00 30.00 C 22.00 31.33 22.00 32.67 22.00 34.00 C 26.00 34.00 30.00 34.00 34.00 34.00 C 34.00 28.67 34.00 23.33 34.00 18.00 C 32.67 18.00 31.33 18.00 30.00 18.00 Z" />
</g>
<g id="#000000ff">
<path fill="#000000" opacity="1.00" d=" M 8.65 8.72 C 11.99 5.10 17.96 5.32 21.48 8.57 C 20.57 9.49 19.65 10.41 18.73 11.32 C 16.74 10.08 14.06 9.31 12.07 10.99 C 9.46 12.78 9.67 16.38 11.38 18.71 C 10.44 19.61 9.50 20.53 8.56 21.44 C 5.45 17.90 5.14 12.09 8.65 8.72 Z" />
<path fill="#000000" opacity="1.00" d=" M 42.57 8.46 C 46.17 5.40 51.99 5.09 55.36 8.66 C 58.92 12.04 58.60 17.88 55.50 21.45 C 54.56 20.53 53.62 19.61 52.68 18.70 C 54.35 16.39 54.56 12.87 52.06 11.06 C 50.06 9.29 47.31 10.06 45.28 11.33 C 44.37 10.37 43.47 9.42 42.57 8.46 Z" />
<path fill="#000000" opacity="1.00" d=" M 22.34 12.25 C 29.00 8.91 37.36 9.35 43.64 13.36 C 50.30 17.46 54.45 25.31 53.95 33.14 C 53.77 38.41 51.35 43.35 47.91 47.26 C 49.28 49.47 50.64 51.70 52.02 53.91 C 50.87 54.59 49.73 55.28 48.60 55.99 C 47.35 53.96 46.10 51.95 44.86 49.92 C 37.30 55.19 26.71 55.28 19.19 49.88 C 17.90 51.92 16.60 53.95 15.34 56.00 C 14.22 55.25 13.07 54.57 11.91 53.88 C 13.37 51.69 14.73 49.43 16.08 47.18 C 12.06 42.83 9.69 36.94 10.04 30.99 C 10.31 23.11 15.25 15.66 22.34 12.25 M 27.42 14.59 C 20.74 16.26 15.35 22.11 14.27 28.91 C 13.20 34.84 15.34 41.22 19.81 45.25 C 24.59 49.72 31.90 51.20 38.04 48.94 C 44.04 46.88 48.68 41.39 49.71 35.13 C 50.80 29.20 48.66 22.81 44.19 18.75 C 39.79 14.62 33.24 13.04 27.42 14.59 Z" />
<path fill="#000000" opacity="1.00" d=" M 30.00 18.00 C 31.33 18.00 32.67 18.00 34.00 18.00 C 34.00 23.33 34.00 28.67 34.00 34.00 C 30.00 34.00 26.00 34.00 22.00 34.00 C 22.00 32.67 22.00 31.33 22.00 30.00 C 24.67 30.00 27.33 30.00 30.00 30.00 C 30.00 26.00 30.00 22.00 30.00 18.00 Z" />
</g>
</svg>
