<?xml version="1.0" encoding="UTF-8" ?>
<!DOCTYPE svg PUBLIC "-//W3C//DTD SVG 1.1//EN" "http://www.w3.org/Graphics/SVG/1.1/DTD/svg11.dtd">
<svg width="64pt" height="64pt" viewBox="0 0 64 64" version="1.1" xmlns="http://www.w3.org/2000/svg">
<g id="#ffffffff">
<path fill="#ffffff" opacity="1.00" d=" M 0.00 0.00 L 64.00 0.00 L 64.00 64.00 L 0.00 64.00 L 0.00 0.00 M 16.58 10.55 C 12.11 15.04 7.60 19.48 3.17 24.00 C 7.59 28.52 12.10 32.95 16.56 37.44 C 17.51 36.47 18.47 35.51 19.44 34.55 C 16.59 31.70 13.74 28.85 10.89 26.01 C 22.94 26.06 35.00 25.86 47.05 26.10 C 54.51 26.50 58.74 36.33 53.92 42.04 C 50.78 46.55 44.84 46.13 40.00 46.00 C 40.00 47.33 40.00 48.66 40.00 50.00 C 44.17 49.95 48.64 50.48 52.44 48.36 C 57.96 45.60 61.11 38.86 59.59 32.85 C 58.25 26.68 52.32 21.95 46.00 22.03 C 34.31 21.95 22.61 22.04 10.91 21.99 C 13.76 19.14 16.61 16.30 19.45 13.45 C 18.49 12.49 17.53 11.52 16.58 10.55 M 16.00 46.00 C 16.00 47.33 16.00 48.67 16.00 50.00 C 17.33 50.00 18.67 50.00 20.00 50.00 C 20.00 48.67 20.00 47.33 20.00 46.00 C 18.67 46.00 17.33 46.00 16.00 46.00 M 24.00 46.00 C 24.00 47.33 24.00 48.67 24.00 50.00 C 25.33 50.00 26.67 50.00 28.00 50.00 C 28.00 48.67 28.00 47.33 28.00 46.00 C 26.67 46.00 25.33 46.00 24.00 46.00 M 32.00 46.00 C 32.00 47.33 32.00 48.67 32.00 50.00 C 33.33 50.00 34.67 50.00 36.00 50.00 C 36.00 48.67 36.00 47.33 36.00 46.00 C 34.67 46.00 33.33 46.00 32.00 46.00 Z" />
</g>
<g id="#000000ff">
<path fill="#000000" opacity="1.00" d=" M 16.58 10.55 C 17.53 11.52 18.49 12.49 19.45 13.45 C 16.61 16.30 13.76 19.14 10.91 21.99 C 22.61 22.04 34.31 21.95 46.00 22.03 C 52.32 21.95 58.25 26.68 59.59 32.85 C 61.11 38.86 57.96 45.60 52.44 48.36 C 48.64 50.48 44.17 49.95 40.00 50.00 C 40.00 48.66 40.00 47.33 40.00 46.00 C 44.84 46.13 50.78 46.55 53.92 42.04 C 58.74 36.33 54.51 26.50 47.05 26.10 C 35.00 25.86 22.94 26.06 10.89 26.01 C 13.74 28.85 16.59 31.70 19.44 34.55 C 18.47 35.51 17.51 36.47 16.56 37.44 C 12.10 32.95 7.59 28.52 3.17 24.00 C 7.60 19.48 12.11 15.04 16.58 10.55 Z" />
<path fill="#000000" opacity="1.00" d=" M 16.00 46.00 C 17.33 46.00 18.67 46.00 20.00 46.00 C 20.00 47.33 20.00 48.67 20.00 50.00 C 18.67 50.00 17.33 50.00 16.00 50.00 C 16.00 48.67 16.00 47.33 16.00 46.00 Z" />
<path fill="#000000" opacity="1.00" d=" M 24.00 46.00 C 25.33 46.00 26.67 46.00 28.00 46.00 C 28.00 47.33 28.00 48.67 28.00 50.00 C 26.67 50.00 25.33 50.00 24.00 50.00 C 24.00 48.67 24.00 47.33 24.00 46.00 Z" />
<path fill="#000000" opacity="1.00" d=" M 32.00 46.00 C 33.33 46.00 34.67 46.00 36.00 46.00 C 36.00 47.33 36.00 48.67 36.00 50.00 C 34.67 50.00 33.33 50.00 32.00 50.00 C 32.00 48.67 32.00 47.33 32.00 46.00 Z" />
</g>
</svg>
