<?xml version="1.0" encoding="UTF-8" ?>
<!DOCTYPE svg PUBLIC "-//W3C//DTD SVG 1.1//EN" "http://www.w3.org/Graphics/SVG/1.1/DTD/svg11.dtd">
<svg width="64pt" height="64pt" viewBox="0 0 64 64" version="1.1" xmlns="http://www.w3.org/2000/svg">
<g id="#ffffffff">
<path fill="#ffffff" opacity="1.00" d=" M 0.00 0.00 L 64.00 0.00 L 64.00 64.00 L 0.00 64.00 L 0.00 0.00 M 30.52 10.45 C 25.92 12.07 21.36 13.84 16.93 15.88 C 12.95 17.61 10.15 21.60 9.99 25.96 C 9.29 35.30 8.01 44.62 7.97 54.00 C 15.32 54.00 22.67 54.00 30.02 54.00 C 30.37 46.27 28.07 38.78 27.00 31.18 C 29.01 30.32 31.04 29.50 33.05 28.63 C 35.08 35.60 33.19 42.95 34.36 50.00 C 36.23 55.26 42.67 53.91 47.02 54.00 C 50.49 54.43 54.06 51.68 53.95 48.06 C 54.11 42.71 53.94 37.35 54.00 32.00 C 51.80 31.99 49.59 32.00 47.39 31.99 C 46.79 29.92 46.19 27.86 45.53 25.81 C 49.32 26.57 53.69 25.04 55.26 21.29 C 57.58 16.70 54.20 10.66 49.14 10.10 C 45.98 9.52 43.14 11.37 41.16 13.66 C 38.38 11.01 34.38 9.10 30.52 10.45 Z" />
<path fill="#ffffff" opacity="1.00" d=" M 22.88 17.62 C 25.89 16.50 28.76 14.94 31.90 14.15 C 34.92 13.42 38.28 15.39 39.15 18.37 C 40.61 22.88 41.81 27.47 43.19 32.00 C 41.46 31.99 39.73 32.00 38.00 32.00 C 37.29 29.12 36.53 26.25 35.81 23.37 C 31.41 25.24 27.05 27.19 22.62 28.99 C 23.78 36.00 25.00 42.99 26.10 50.00 C 24.40 50.00 22.70 50.00 21.00 50.00 C 20.08 44.57 19.08 39.16 18.33 33.71 C 17.72 39.12 17.39 44.57 17.00 50.00 C 15.31 50.00 13.63 50.00 11.95 50.00 C 12.52 42.69 13.22 35.38 13.80 28.07 C 14.06 25.85 14.04 23.36 15.64 21.61 C 17.51 19.48 20.37 18.71 22.88 17.62 Z" />
<path fill="#ffffff" opacity="1.00" d=" M 46.30 14.36 C 48.83 13.06 52.14 15.20 52.01 18.03 C 52.12 21.12 48.20 23.16 45.74 21.31 C 43.20 19.75 43.55 15.49 46.30 14.36 Z" />
<path fill="#ffffff" opacity="1.00" d=" M 38.00 36.00 C 42.00 36.00 46.00 36.00 50.00 36.00 C 49.89 40.29 50.25 44.59 49.83 48.87 C 49.59 49.10 49.12 49.58 48.89 49.82 C 45.64 50.15 42.35 50.15 39.10 49.82 C 38.87 49.59 38.41 49.12 38.18 48.89 C 37.74 44.61 38.12 40.29 38.00 36.00 Z" />
</g>
<g id="#000000ff">
<path fill="#000000" opacity="1.00" d=" M 30.52 10.45 C 34.38 9.10 38.38 11.01 41.16 13.66 C 43.14 11.37 45.98 9.52 49.14 10.10 C 54.20 10.66 57.58 16.70 55.26 21.29 C 53.69 25.04 49.32 26.57 45.53 25.81 C 46.19 27.86 46.79 29.92 47.39 31.99 C 49.59 32.00 51.80 31.99 54.00 32.00 C 53.94 37.35 54.11 42.71 53.95 48.06 C 54.06 51.68 50.49 54.43 47.02 54.00 C 42.67 53.91 36.23 55.26 34.36 50.00 C 33.19 42.95 35.08 35.60 33.05 28.63 C 31.04 29.50 29.01 30.32 27.00 31.18 C 28.07 38.78 30.37 46.27 30.02 54.00 C 22.67 54.00 15.32 54.00 7.97 54.00 C 8.01 44.62 9.29 35.30 9.99 25.96 C 10.15 21.60 12.95 17.61 16.93 15.88 C 21.36 13.84 25.92 12.07 30.52 10.45 M 22.88 17.62 C 20.37 18.71 17.51 19.48 15.64 21.61 C 14.04 23.36 14.06 25.85 13.80 28.07 C 13.22 35.38 12.52 42.69 11.95 50.00 C 13.63 50.00 15.31 50.00 17.00 50.00 C 17.39 44.57 17.72 39.12 18.33 33.71 C 19.08 39.16 20.08 44.57 21.00 50.00 C 22.70 50.00 24.40 50.00 26.10 50.00 C 25.00 42.99 23.78 36.00 22.62 28.99 C 27.05 27.19 31.41 25.24 35.81 23.37 C 36.53 26.25 37.29 29.12 38.00 32.00 C 39.73 32.00 41.46 31.99 43.19 32.00 C 41.81 27.47 40.61 22.88 39.15 18.37 C 38.28 15.39 34.92 13.42 31.90 14.15 C 28.76 14.94 25.89 16.50 22.88 17.62 M 46.30 14.36 C 43.55 15.49 43.20 19.75 45.74 21.31 C 48.20 23.16 52.12 21.12 52.01 18.03 C 52.14 15.20 48.83 13.06 46.30 14.36 M 38.00 36.00 C 38.12 40.29 37.74 44.61 38.18 48.89 C 38.41 49.12 38.87 49.59 39.10 49.82 C 42.35 50.15 45.64 50.15 48.89 49.82 C 49.12 49.58 49.59 49.10 49.83 48.87 C 50.25 44.59 49.89 40.29 50.00 36.00 C 46.00 36.00 42.00 36.00 38.00 36.00 Z" />
</g>
</svg>
