<?xml version="1.0" encoding="UTF-8" ?>
<!DOCTYPE svg PUBLIC "-//W3C//DTD SVG 1.1//EN" "http://www.w3.org/Graphics/SVG/1.1/DTD/svg11.dtd">
<svg width="64pt" height="64pt" viewBox="0 0 64 64" version="1.1" xmlns="http://www.w3.org/2000/svg">
<g id="#ffffffff">
<path fill="#ffffff" opacity="1.00" d=" M 0.00 0.00 L 64.00 0.00 L 64.00 64.00 L 0.00 64.00 L 0.00 0.00 M 6.67 13.66 C 7.53 14.68 8.38 15.70 9.24 16.72 C 11.64 14.93 14.13 13.26 16.67 11.67 C 15.99 10.54 15.32 9.42 14.65 8.29 C 11.89 9.94 9.21 11.70 6.67 13.66 M 11.03 18.86 C 9.15 20.34 7.26 21.99 6.22 24.19 C 5.58 26.68 6.71 29.21 7.79 31.41 C 8.63 33.17 10.79 34.71 12.76 33.74 C 15.77 32.23 18.89 30.75 21.51 28.62 C 23.52 24.86 23.10 20.32 23.86 16.21 C 27.98 14.63 32.26 13.46 36.62 12.76 C 39.15 15.72 41.10 19.37 44.37 21.59 C 47.99 22.34 51.88 22.14 55.56 21.72 C 59.28 20.36 57.91 15.61 57.12 12.72 C 56.21 8.97 51.80 8.84 48.71 8.35 C 35.46 7.21 21.74 10.92 11.03 18.86 M 26.00 22.00 C 26.00 23.69 26.00 25.37 25.99 27.06 C 21.52 30.52 17.23 34.40 14.15 39.19 C 10.84 44.18 12.32 50.40 12.00 56.00 C 14.95 56.00 17.89 56.00 20.84 56.00 C 21.51 55.33 22.19 54.66 22.86 54.00 C 30.30 54.00 37.74 54.00 45.17 54.00 C 45.84 54.66 46.52 55.33 47.19 56.00 C 50.13 56.00 53.06 56.00 56.00 56.00 C 55.69 50.39 57.16 44.16 53.83 39.17 C 50.77 34.38 46.47 30.52 42.01 27.06 C 42.00 25.37 42.00 23.69 42.00 22.00 C 40.00 22.00 38.01 22.00 36.01 22.00 C 36.01 22.50 35.99 23.50 35.99 24.00 C 34.66 24.00 33.34 24.00 32.01 24.00 C 32.01 23.50 31.99 22.50 31.99 22.00 C 29.99 22.00 28.00 22.00 26.00 22.00 M 48.00 24.00 C 48.00 25.33 48.00 26.67 48.00 28.00 C 50.67 28.00 53.33 28.00 56.00 28.00 C 56.00 26.67 56.00 25.33 56.00 24.00 C 53.33 24.00 50.67 24.00 48.00 24.00 Z" />
<path fill="#ffffff" opacity="1.00" d=" M 41.38 12.43 C 45.20 12.25 49.14 11.98 52.82 13.26 C 53.89 14.55 53.66 16.45 54.10 17.99 C 51.37 18.00 48.64 18.00 45.91 18.01 C 44.39 16.16 42.87 14.30 41.38 12.43 Z" />
<path fill="#ffffff" opacity="1.00" d=" M 10.10 25.28 C 12.55 22.16 16.24 20.43 19.57 18.43 C 19.27 21.03 18.92 23.61 18.39 26.17 C 16.06 27.42 13.76 28.72 11.44 29.99 C 10.97 28.44 9.99 26.95 10.10 25.28 Z" />
<path fill="#ffffff" opacity="1.00" d=" M 30.40 28.03 C 32.80 27.98 35.20 27.98 37.60 28.03 C 41.60 32.48 47.07 35.65 50.08 41.02 C 52.51 44.18 52.01 48.28 52.00 52.00 C 51.21 52.00 49.64 52.00 48.86 52.00 C 48.19 51.33 47.51 50.67 46.84 50.00 C 38.29 50.00 29.74 50.00 21.19 50.00 C 20.52 50.67 19.84 51.33 19.17 52.00 C 18.38 52.00 16.79 52.00 16.00 52.00 C 15.98 48.24 15.49 44.10 17.97 40.93 C 21.01 35.62 26.42 32.45 30.40 28.03 M 26.00 36.00 C 26.00 37.33 26.00 38.67 26.00 40.00 C 27.33 40.00 28.67 40.00 30.00 40.00 C 30.00 38.67 30.00 37.33 30.00 36.00 C 28.67 36.00 27.33 36.00 26.00 36.00 M 32.00 36.00 C 32.00 37.33 32.00 38.67 32.00 40.00 C 33.33 40.00 34.67 40.00 36.00 40.00 C 36.00 38.67 36.00 37.33 36.00 36.00 C 34.67 36.00 33.33 36.00 32.00 36.00 M 38.00 36.00 C 38.00 37.33 38.00 38.67 38.00 40.00 C 39.33 40.00 40.67 40.00 42.00 40.00 C 42.00 38.67 42.00 37.33 42.00 36.00 C 40.67 36.00 39.33 36.00 38.00 36.00 M 26.00 42.00 C 26.00 43.33 26.00 44.67 26.00 46.00 C 27.33 46.00 28.67 46.00 30.00 46.00 C 30.00 44.67 30.00 43.33 30.00 42.00 C 28.67 42.00 27.33 42.00 26.00 42.00 M 32.00 42.00 C 32.00 43.33 32.00 44.67 32.00 46.00 C 33.33 46.00 34.67 46.00 36.00 46.00 C 36.00 44.67 36.00 43.33 36.00 42.00 C 34.67 42.00 33.33 42.00 32.00 42.00 M 38.00 42.00 C 38.00 43.33 38.00 44.67 38.00 46.00 C 39.33 46.00 40.67 46.00 42.00 46.00 C 42.00 44.67 42.00 43.33 42.00 42.00 C 40.67 42.00 39.33 42.00 38.00 42.00 Z" />
</g>
<g id="#000000ff">
<path fill="#000000" opacity="1.00" d=" M 6.67 13.66 C 9.21 11.70 11.89 9.94 14.65 8.29 C 15.32 9.42 15.99 10.54 16.67 11.67 C 14.13 13.26 11.64 14.93 9.24 16.72 C 8.38 15.70 7.53 14.68 6.67 13.66 Z" />
<path fill="#000000" opacity="1.00" d=" M 11.03 18.86 C 21.74 10.92 35.46 7.21 48.71 8.35 C 51.80 8.84 56.21 8.97 57.12 12.72 C 57.91 15.61 59.28 20.36 55.56 21.72 C 51.88 22.14 47.99 22.34 44.37 21.59 C 41.10 19.37 39.15 15.72 36.62 12.76 C 32.26 13.46 27.98 14.63 23.86 16.21 C 23.10 20.32 23.52 24.86 21.51 28.62 C 18.89 30.75 15.77 32.23 12.76 33.74 C 10.79 34.71 8.63 33.17 7.79 31.41 C 6.71 29.21 5.58 26.68 6.22 24.19 C 7.26 21.99 9.15 20.34 11.03 18.86 M 41.38 12.43 C 42.87 14.30 44.39 16.16 45.91 18.01 C 48.64 18.00 51.37 18.00 54.10 17.99 C 53.66 16.45 53.89 14.55 52.82 13.26 C 49.14 11.98 45.20 12.25 41.38 12.43 M 10.10 25.28 C 9.99 26.95 10.97 28.44 11.44 29.99 C 13.76 28.72 16.06 27.42 18.39 26.17 C 18.92 23.61 19.27 21.03 19.57 18.43 C 16.24 20.43 12.55 22.16 10.10 25.28 Z" />
<path fill="#000000" opacity="1.00" d=" M 26.00 22.00 C 28.00 22.00 29.99 22.00 31.99 22.00 C 31.99 22.50 32.01 23.50 32.01 24.00 C 33.34 24.00 34.66 24.00 35.99 24.00 C 35.99 23.50 36.01 22.50 36.01 22.00 C 38.01 22.00 40.00 22.00 42.00 22.00 C 42.00 23.69 42.00 25.37 42.01 27.06 C 46.47 30.52 50.77 34.38 53.83 39.17 C 57.16 44.16 55.69 50.39 56.00 56.00 C 53.06 56.00 50.13 56.00 47.19 56.00 C 46.52 55.33 45.84 54.66 45.17 54.00 C 37.74 54.00 30.30 54.00 22.86 54.00 C 22.19 54.66 21.51 55.33 20.84 56.00 C 17.89 56.00 14.95 56.00 12.00 56.00 C 12.32 50.40 10.84 44.18 14.15 39.19 C 17.23 34.40 21.52 30.52 25.99 27.06 C 26.00 25.37 26.00 23.69 26.00 22.00 M 30.40 28.03 C 26.42 32.45 21.01 35.62 17.97 40.93 C 15.49 44.10 15.98 48.24 16.00 52.00 C 16.79 52.00 18.38 52.00 19.17 52.00 C 19.84 51.33 20.52 50.67 21.19 50.00 C 29.74 50.00 38.29 50.00 46.84 50.00 C 47.51 50.67 48.19 51.33 48.86 52.00 C 49.64 52.00 51.21 52.00 52.00 52.00 C 52.01 48.28 52.51 44.18 50.08 41.02 C 47.07 35.65 41.60 32.48 37.60 28.03 C 35.20 27.98 32.80 27.98 30.40 28.03 Z" />
<path fill="#000000" opacity="1.00" d=" M 48.00 24.00 C 50.67 24.00 53.33 24.00 56.00 24.00 C 56.00 25.33 56.00 26.67 56.00 28.00 C 53.33 28.00 50.67 28.00 48.00 28.00 C 48.00 26.67 48.00 25.33 48.00 24.00 Z" />
<path fill="#000000" opacity="1.00" d=" M 26.00 36.00 C 27.33 36.00 28.67 36.00 30.00 36.00 C 30.00 37.33 30.00 38.67 30.00 40.00 C 28.67 40.00 27.33 40.00 26.00 40.00 C 26.00 38.67 26.00 37.33 26.00 36.00 Z" />
<path fill="#000000" opacity="1.00" d=" M 32.00 36.00 C 33.33 36.00 34.67 36.00 36.00 36.00 C 36.00 37.33 36.00 38.67 36.00 40.00 C 34.67 40.00 33.33 40.00 32.00 40.00 C 32.00 38.67 32.00 37.33 32.00 36.00 Z" />
<path fill="#000000" opacity="1.00" d=" M 38.00 36.00 C 39.33 36.00 40.67 36.00 42.00 36.00 C 42.00 37.33 42.00 38.67 42.00 40.00 C 40.67 40.00 39.33 40.00 38.00 40.00 C 38.00 38.67 38.00 37.33 38.00 36.00 Z" />
<path fill="#000000" opacity="1.00" d=" M 26.00 42.00 C 27.33 42.00 28.67 42.00 30.00 42.00 C 30.00 43.33 30.00 44.67 30.00 46.00 C 28.67 46.00 27.33 46.00 26.00 46.00 C 26.00 44.67 26.00 43.33 26.00 42.00 Z" />
<path fill="#000000" opacity="1.00" d=" M 32.00 42.00 C 33.33 42.00 34.67 42.00 36.00 42.00 C 36.00 43.33 36.00 44.67 36.00 46.00 C 34.67 46.00 33.33 46.00 32.00 46.00 C 32.00 44.67 32.00 43.33 32.00 42.00 Z" />
<path fill="#000000" opacity="1.00" d=" M 38.00 42.00 C 39.33 42.00 40.67 42.00 42.00 42.00 C 42.00 43.33 42.00 44.67 42.00 46.00 C 40.67 46.00 39.33 46.00 38.00 46.00 C 38.00 44.67 38.00 43.33 38.00 42.00 Z" />
</g>
</svg>
