<?xml version="1.0" encoding="UTF-8" ?>
<!DOCTYPE svg PUBLIC "-//W3C//DTD SVG 1.1//EN" "http://www.w3.org/Graphics/SVG/1.1/DTD/svg11.dtd">
<svg width="64pt" height="64pt" viewBox="0 0 64 64" version="1.1" xmlns="http://www.w3.org/2000/svg">
<g id="#ffffffff">
<path fill="#ffffff" opacity="1.00" d=" M 0.00 0.00 L 64.00 0.00 L 64.00 64.00 L 0.00 64.00 L 0.00 0.00 M 35.12 9.10 C 33.24 11.86 33.97 15.46 35.80 18.03 C 32.65 17.98 29.49 18.00 26.33 18.00 C 24.11 14.92 21.85 11.87 19.61 8.81 C 18.55 9.62 17.47 10.41 16.39 11.18 C 19.03 14.79 21.68 18.40 24.33 22.00 C 26.75 21.99 29.16 22.01 31.58 22.00 C 30.85 25.21 30.53 28.50 29.60 31.66 C 27.44 35.41 20.42 34.56 19.73 30.01 C 18.58 30.01 17.42 30.01 16.27 30.01 C 15.42 35.33 6.56 35.31 5.73 30.00 C 4.42 30.02 3.12 30.04 1.81 30.03 C 2.25 37.88 12.87 40.48 18.00 35.28 C 21.81 38.87 28.19 38.87 32.00 35.28 C 35.81 38.87 42.19 38.87 46.00 35.28 C 51.13 40.48 61.73 37.88 62.19 30.03 C 60.88 30.03 59.58 30.02 58.27 30.00 C 57.56 34.85 49.68 35.45 48.10 30.98 C 48.30 27.94 49.16 25.00 49.65 22.00 C 51.67 22.00 53.68 22.00 55.70 22.00 C 58.31 18.36 61.06 14.82 63.56 11.10 C 62.47 10.38 61.41 9.61 60.39 8.80 C 58.17 11.88 55.90 14.93 53.66 18.00 C 51.17 17.98 48.68 17.99 46.20 18.03 C 48.01 15.46 48.75 11.88 46.89 9.11 C 44.41 5.00 37.61 5.00 35.12 9.10 M 34.01 41.96 C 34.00 43.98 34.00 45.99 34.00 48.00 C 28.67 47.99 23.33 48.01 18.00 48.00 C 18.00 49.33 18.00 50.67 18.00 52.00 C 23.33 51.99 28.66 52.01 34.00 52.00 C 34.00 54.00 34.00 56.00 34.00 58.00 C 38.01 55.32 42.03 52.65 46.04 49.97 C 42.03 47.31 38.02 44.63 34.01 41.96 Z" />
<path fill="#ffffff" opacity="1.00" d=" M 39.32 10.44 C 42.60 8.11 45.91 13.53 42.68 15.56 C 39.39 17.88 36.07 12.46 39.32 10.44 Z" />
<path fill="#ffffff" opacity="1.00" d=" M 34.08 30.89 C 34.33 27.88 35.13 24.96 35.65 22.00 C 38.96 22.00 42.27 22.00 45.58 22.00 C 44.88 25.25 44.53 28.59 43.57 31.78 C 41.54 35.02 35.23 34.77 34.08 30.89 Z" />
</g>
<g id="#000000ff">
<path fill="#000000" opacity="1.00" d=" M 35.12 9.10 C 37.61 5.00 44.41 5.00 46.89 9.11 C 48.75 11.88 48.01 15.46 46.20 18.03 C 48.68 17.99 51.17 17.98 53.66 18.00 C 55.90 14.93 58.17 11.88 60.39 8.80 C 61.41 9.61 62.47 10.38 63.56 11.10 C 61.06 14.82 58.31 18.36 55.70 22.00 C 53.68 22.00 51.67 22.00 49.65 22.00 C 49.16 25.00 48.30 27.94 48.10 30.98 C 49.68 35.45 57.56 34.85 58.27 30.00 C 59.58 30.02 60.88 30.03 62.19 30.03 C 61.73 37.88 51.13 40.48 46.00 35.28 C 42.19 38.87 35.81 38.87 32.00 35.28 C 28.19 38.87 21.81 38.87 18.00 35.28 C 12.87 40.48 2.25 37.88 1.81 30.03 C 3.12 30.04 4.42 30.02 5.73 30.00 C 6.56 35.31 15.42 35.33 16.27 30.01 C 17.42 30.01 18.58 30.01 19.73 30.01 C 20.42 34.56 27.44 35.41 29.60 31.66 C 30.53 28.50 30.85 25.21 31.58 22.00 C 29.16 22.01 26.75 21.99 24.33 22.00 C 21.68 18.40 19.03 14.79 16.39 11.18 C 17.47 10.41 18.55 9.62 19.61 8.81 C 21.85 11.87 24.11 14.92 26.33 18.00 C 29.49 18.00 32.65 17.98 35.80 18.03 C 33.97 15.46 33.24 11.86 35.12 9.10 M 39.32 10.44 C 36.07 12.46 39.39 17.88 42.68 15.56 C 45.91 13.53 42.60 8.11 39.32 10.44 M 34.08 30.89 C 35.23 34.77 41.54 35.02 43.57 31.78 C 44.53 28.59 44.88 25.25 45.58 22.00 C 42.27 22.00 38.96 22.00 35.65 22.00 C 35.13 24.96 34.33 27.88 34.08 30.89 Z" />
<path fill="#000000" opacity="1.00" d=" M 34.01 41.96 C 38.02 44.63 42.03 47.31 46.04 49.97 C 42.03 52.65 38.01 55.32 34.00 58.00 C 34.00 56.00 34.00 54.00 34.00 52.00 C 28.66 52.01 23.33 51.99 18.00 52.00 C 18.00 50.67 18.00 49.33 18.00 48.00 C 23.33 48.01 28.67 47.99 34.00 48.00 C 34.00 45.99 34.00 43.98 34.01 41.96 Z" />
</g>
</svg>
