<?xml version="1.0" encoding="UTF-8" ?>
<!DOCTYPE svg PUBLIC "-//W3C//DTD SVG 1.1//EN" "http://www.w3.org/Graphics/SVG/1.1/DTD/svg11.dtd">
<svg width="64pt" height="64pt" viewBox="0 0 64 64" version="1.1" xmlns="http://www.w3.org/2000/svg">
<g id="#ffffffff">
<path fill="#ffffff" opacity="1.00" d=" M 0.00 0.00 L 64.00 0.00 L 64.00 64.00 L 0.00 64.00 L 0.00 0.00 M 11.41 10.60 C 7.47 12.29 6.83 18.28 10.35 20.73 C 13.66 23.55 19.30 21.30 19.90 17.04 C 20.93 12.49 15.54 8.34 11.41 10.60 M 41.44 10.58 C 37.20 12.35 36.86 18.95 40.92 21.12 C 44.65 23.64 50.16 20.44 50.00 16.00 C 50.14 11.81 45.20 8.58 41.44 10.58 M 30.01 18.30 C 30.65 21.47 30.84 24.76 31.95 27.82 C 33.00 30.15 35.91 30.20 38.01 29.49 C 38.00 30.99 38.00 32.50 38.00 34.00 C 36.00 34.00 34.00 34.00 32.00 34.00 C 32.00 35.33 32.00 36.67 32.00 38.00 C 40.00 38.00 48.00 38.00 56.00 38.00 C 55.99 36.67 55.99 35.33 56.00 34.00 C 54.00 34.00 52.00 34.00 50.00 34.00 C 50.00 32.55 50.00 31.09 49.99 29.64 C 52.02 30.16 54.80 30.09 55.80 27.89 C 57.03 24.86 57.21 21.53 57.94 18.37 C 56.64 18.13 55.35 17.88 54.06 17.62 C 53.51 20.39 52.96 23.17 52.44 25.95 C 47.28 23.10 40.51 23.11 35.35 25.95 C 34.93 23.19 34.47 20.44 34.00 17.69 C 32.67 17.90 31.34 18.10 30.01 18.30 M 8.06 28.92 C 7.90 37.28 8.06 45.64 8.00 54.00 C 9.33 53.99 10.66 53.99 12.00 54.00 C 12.11 45.24 11.88 36.47 12.20 27.72 C 15.71 28.86 15.96 33.25 17.72 36.00 C 20.48 36.00 23.24 36.00 26.00 36.00 C 26.00 34.67 26.00 33.33 26.00 32.00 C 27.33 32.00 28.67 32.00 30.00 32.00 C 29.99 30.67 29.99 29.33 30.00 28.00 C 28.00 28.00 26.00 28.00 24.00 28.00 C 23.67 29.34 23.33 30.67 23.00 32.01 C 22.33 32.00 20.99 31.99 20.32 31.99 C 18.83 29.29 18.08 25.58 14.92 24.33 C 11.84 23.03 8.03 25.59 8.06 28.92 M 13.16 40.81 C 15.30 44.88 15.40 49.53 15.99 54.00 C 17.32 53.99 18.66 53.99 19.99 54.00 C 19.37 48.43 18.74 42.77 15.94 37.79 C 13.92 37.26 11.95 38.76 13.16 40.81 Z" />
<path fill="#ffffff" opacity="1.00" d=" M 13.21 14.18 C 15.54 13.03 17.18 16.85 14.84 17.88 C 12.46 18.95 10.76 15.12 13.21 14.18 Z" />
<path fill="#ffffff" opacity="1.00" d=" M 43.27 14.19 C 45.56 12.97 47.19 17.00 44.75 17.92 C 42.38 18.91 40.80 14.97 43.27 14.19 Z" />
<path fill="#ffffff" opacity="1.00" d=" M 42.00 28.00 C 43.33 28.00 44.67 28.00 46.00 28.00 C 46.00 30.00 46.00 32.00 46.00 34.00 C 44.67 33.99 43.33 33.99 42.00 34.00 C 42.00 32.00 42.00 30.00 42.00 28.00 Z" />
</g>
<g id="#000000ff">
<path fill="#000000" opacity="1.00" d=" M 11.41 10.60 C 15.54 8.34 20.93 12.49 19.90 17.04 C 19.30 21.30 13.66 23.55 10.35 20.73 C 6.83 18.28 7.47 12.29 11.41 10.60 M 13.21 14.18 C 10.76 15.12 12.46 18.95 14.84 17.88 C 17.18 16.85 15.54 13.03 13.21 14.18 Z" />
<path fill="#000000" opacity="1.00" d=" M 41.44 10.58 C 45.20 8.58 50.14 11.81 50.00 16.00 C 50.16 20.44 44.65 23.64 40.92 21.12 C 36.86 18.95 37.20 12.35 41.44 10.58 M 43.27 14.19 C 40.80 14.97 42.38 18.91 44.75 17.92 C 47.19 17.00 45.56 12.97 43.27 14.19 Z" />
<path fill="#000000" opacity="1.00" d=" M 30.01 18.30 C 31.34 18.10 32.67 17.90 34.00 17.69 C 34.47 20.44 34.93 23.19 35.35 25.95 C 40.51 23.11 47.28 23.10 52.44 25.95 C 52.96 23.17 53.51 20.39 54.06 17.62 C 55.35 17.88 56.64 18.13 57.94 18.37 C 57.21 21.53 57.03 24.86 55.80 27.89 C 54.80 30.09 52.02 30.16 49.99 29.64 C 50.00 31.09 50.00 32.55 50.00 34.00 C 52.00 34.00 54.00 34.00 56.00 34.00 C 55.99 35.33 55.99 36.67 56.00 38.00 C 48.00 38.00 40.00 38.00 32.00 38.00 C 32.00 36.67 32.00 35.33 32.00 34.00 C 34.00 34.00 36.00 34.00 38.00 34.00 C 38.00 32.50 38.00 30.99 38.01 29.49 C 35.91 30.20 33.00 30.15 31.95 27.82 C 30.84 24.76 30.65 21.47 30.01 18.30 M 42.00 28.00 C 42.00 30.00 42.00 32.00 42.00 34.00 C 43.33 33.99 44.67 33.99 46.00 34.00 C 46.00 32.00 46.00 30.00 46.00 28.00 C 44.67 28.00 43.33 28.00 42.00 28.00 Z" />
<path fill="#000000" opacity="1.00" d=" M 8.06 28.92 C 8.03 25.59 11.84 23.03 14.92 24.33 C 18.08 25.58 18.83 29.29 20.32 31.99 C 20.99 31.99 22.33 32.00 23.00 32.01 C 23.33 30.67 23.67 29.34 24.00 28.00 C 26.00 28.00 28.00 28.00 30.00 28.00 C 29.99 29.33 29.99 30.67 30.00 32.00 C 28.67 32.00 27.33 32.00 26.00 32.00 C 26.00 33.33 26.00 34.67 26.00 36.00 C 23.24 36.00 20.48 36.00 17.72 36.00 C 15.96 33.25 15.71 28.86 12.20 27.72 C 11.88 36.47 12.11 45.24 12.00 54.00 C 10.66 53.99 9.33 53.99 8.00 54.00 C 8.06 45.64 7.90 37.28 8.06 28.92 Z" />
<path fill="#000000" opacity="1.00" d=" M 13.16 40.81 C 11.95 38.76 13.92 37.26 15.94 37.79 C 18.74 42.77 19.37 48.43 19.99 54.00 C 18.66 53.99 17.32 53.99 15.99 54.00 C 15.40 49.53 15.30 44.88 13.16 40.81 Z" />
</g>
</svg>
