<?xml version="1.0" encoding="UTF-8" ?>
<!DOCTYPE svg PUBLIC "-//W3C//DTD SVG 1.1//EN" "http://www.w3.org/Graphics/SVG/1.1/DTD/svg11.dtd">
<svg width="64pt" height="64pt" viewBox="0 0 64 64" version="1.1" xmlns="http://www.w3.org/2000/svg">
<g id="#ffffffff">
<path fill="#ffffff" opacity="1.00" d=" M 0.00 0.00 L 64.00 0.00 L 64.00 64.00 L 0.00 64.00 L 0.00 0.00 M 14.93 13.99 C 8.46 19.53 8.46 30.50 14.96 36.02 C 20.38 41.24 28.76 40.61 35.34 38.22 C 41.61 35.62 47.83 32.90 54.05 30.18 C 54.02 28.72 54.00 27.27 53.98 25.82 C 47.35 28.65 40.80 31.68 34.12 34.39 C 28.71 36.26 21.68 37.29 17.28 32.74 C 12.59 28.38 13.14 20.05 18.35 16.33 C 22.40 12.99 28.39 13.57 32.41 16.65 C 33.25 15.64 34.08 14.62 34.91 13.61 C 29.23 8.94 20.31 8.76 14.93 13.99 M 49.71 15.93 C 50.00 16.40 50.58 17.33 50.87 17.80 C 50.52 17.95 49.83 18.27 49.48 18.43 C 49.02 15.49 45.49 14.97 44.70 17.97 C 45.04 18.42 45.71 19.31 46.05 19.76 L 44.61 20.39 C 45.33 22.16 46.05 23.93 46.83 25.68 C 49.27 24.84 51.65 23.87 54.00 22.82 C 53.98 20.25 54.15 17.66 53.82 15.10 C 52.71 13.12 50.41 14.23 49.71 15.93 M 37.03 21.00 C 37.57 21.65 38.10 22.30 38.63 22.95 C 38.21 23.17 37.37 23.60 36.95 23.81 C 37.23 20.72 33.39 20.12 32.52 22.98 C 32.83 23.43 33.47 24.33 33.78 24.78 C 31.60 26.59 31.17 29.48 32.87 31.81 C 36.81 30.36 40.59 28.51 44.49 26.94 C 44.07 24.99 43.48 23.09 42.88 21.20 C 42.52 21.35 41.81 21.67 41.46 21.82 C 41.80 18.69 37.95 18.20 37.03 21.00 M 9.96 32.96 C 10.05 39.98 9.98 46.99 10.00 54.00 C 11.33 54.00 12.67 54.00 14.00 54.00 C 13.99 48.63 14.01 43.26 13.99 37.88 C 12.53 36.34 11.17 34.71 9.96 32.96 M 45.99 35.83 C 46.01 41.89 46.00 47.94 46.00 54.00 C 47.33 54.00 48.67 54.00 50.00 54.00 C 50.00 47.39 50.00 40.79 50.00 34.18 C 48.66 34.73 47.32 35.28 45.99 35.83 M 28.00 41.88 C 28.00 45.92 28.00 49.96 28.00 54.00 C 29.33 54.00 30.67 54.00 32.00 54.00 C 32.00 49.75 32.00 45.51 32.00 41.26 C 30.67 41.48 29.34 41.69 28.00 41.88 Z" />
</g>
<g id="#000000ff">
<path fill="#000000" opacity="1.00" d=" M 14.93 13.99 C 20.31 8.76 29.23 8.94 34.91 13.61 C 34.08 14.62 33.25 15.64 32.41 16.65 C 28.39 13.57 22.40 12.99 18.35 16.33 C 13.14 20.05 12.59 28.38 17.28 32.74 C 21.68 37.29 28.71 36.26 34.12 34.39 C 40.80 31.68 47.35 28.65 53.98 25.82 C 54.00 27.27 54.02 28.72 54.05 30.18 C 47.83 32.90 41.61 35.62 35.34 38.22 C 28.76 40.61 20.38 41.24 14.96 36.02 C 8.46 30.50 8.46 19.53 14.93 13.99 Z" />
<path fill="#000000" opacity="1.00" d=" M 49.71 15.93 C 50.41 14.23 52.71 13.12 53.82 15.10 C 54.15 17.66 53.98 20.25 54.00 22.82 C 51.65 23.87 49.27 24.84 46.83 25.68 C 46.05 23.93 45.33 22.16 44.61 20.39 L 46.05 19.76 C 45.71 19.31 45.04 18.42 44.70 17.97 C 45.49 14.97 49.02 15.49 49.48 18.43 C 49.83 18.27 50.52 17.95 50.87 17.80 C 50.58 17.33 50.00 16.40 49.71 15.93 Z" />
<path fill="#000000" opacity="1.00" d=" M 37.03 21.00 C 37.95 18.20 41.80 18.69 41.46 21.82 C 41.81 21.67 42.52 21.35 42.88 21.20 C 43.48 23.09 44.07 24.99 44.49 26.94 C 40.59 28.51 36.81 30.36 32.87 31.81 C 31.17 29.48 31.60 26.59 33.78 24.78 C 33.47 24.33 32.83 23.43 32.52 22.98 C 33.39 20.12 37.23 20.72 36.95 23.81 C 37.37 23.60 38.21 23.17 38.63 22.95 C 38.10 22.30 37.57 21.65 37.03 21.00 Z" />
<path fill="#000000" opacity="1.00" d=" M 9.96 32.96 C 11.17 34.71 12.53 36.34 13.99 37.88 C 14.01 43.26 13.99 48.63 14.00 54.00 C 12.67 54.00 11.33 54.00 10.00 54.00 C 9.98 46.99 10.05 39.98 9.96 32.96 Z" />
<path fill="#000000" opacity="1.00" d=" M 45.99 35.83 C 47.32 35.28 48.66 34.73 50.00 34.18 C 50.00 40.79 50.00 47.39 50.00 54.00 C 48.67 54.00 47.33 54.00 46.00 54.00 C 46.00 47.94 46.01 41.89 45.99 35.83 Z" />
<path fill="#000000" opacity="1.00" d=" M 28.00 41.88 C 29.34 41.69 30.67 41.48 32.00 41.26 C 32.00 45.51 32.00 49.75 32.00 54.00 C 30.67 54.00 29.33 54.00 28.00 54.00 C 28.00 49.96 28.00 45.92 28.00 41.88 Z" />
</g>
</svg>
