<?xml version="1.0" encoding="UTF-8" ?>
<!DOCTYPE svg PUBLIC "-//W3C//DTD SVG 1.1//EN" "http://www.w3.org/Graphics/SVG/1.1/DTD/svg11.dtd">
<svg width="64pt" height="64pt" viewBox="0 0 64 64" version="1.1" xmlns="http://www.w3.org/2000/svg">
<g id="#ffffffff">
<path fill="#ffffff" opacity="1.00" d=" M 0.00 0.00 L 64.00 0.00 L 64.00 64.00 L 0.00 64.00 L 0.00 0.00 M 19.57 11.50 C 14.22 14.67 10.44 20.04 8.72 25.98 C 10.11 25.99 11.50 26.00 12.90 26.01 C 13.10 25.51 13.51 24.50 13.71 24.00 C 21.62 24.01 29.54 23.99 37.45 24.01 C 38.12 29.32 38.13 34.69 37.44 40.00 C 29.53 40.00 21.62 40.00 13.71 40.00 C 13.51 39.50 13.10 38.49 12.90 37.99 C 11.50 38.00 10.11 38.01 8.72 38.02 C 10.72 45.13 15.88 51.32 22.76 54.13 C 30.81 57.61 40.72 56.09 47.37 50.38 C 53.33 45.46 56.65 37.54 55.88 29.84 C 55.31 22.84 51.39 16.25 45.63 12.26 C 38.09 6.94 27.40 6.57 19.57 11.50 M 28.00 26.01 C 28.00 27.01 28.00 29.00 28.00 30.00 C 21.33 30.00 14.67 30.00 8.00 30.00 C 8.00 31.33 8.00 32.67 8.00 34.00 C 14.67 34.00 21.33 34.00 28.00 34.00 C 28.00 35.00 28.00 37.00 28.00 38.00 C 30.01 36.00 32.01 33.98 34.02 31.98 C 32.01 29.99 30.01 27.99 28.00 26.01 Z" />
<path fill="#ffffff" opacity="1.00" d=" M 27.59 19.99 C 28.41 16.90 29.22 13.50 32.04 11.59 C 34.68 13.67 35.75 16.90 36.69 19.98 C 33.66 20.01 30.62 20.01 27.59 19.99 Z" />
<path fill="#ffffff" opacity="1.00" d=" M 15.98 19.96 C 18.55 16.84 21.86 14.44 25.62 12.93 C 24.80 15.26 24.06 17.61 23.43 19.98 C 20.95 20.00 18.47 20.00 15.98 19.96 Z" />
<path fill="#ffffff" opacity="1.00" d=" M 38.44 12.95 C 42.17 14.47 45.47 16.85 48.03 19.96 C 45.62 20.00 43.20 20.01 40.79 20.00 C 40.12 17.61 39.33 15.27 38.44 12.95 Z" />
<path fill="#ffffff" opacity="1.00" d=" M 41.48 24.00 C 44.45 24.00 47.42 24.01 50.39 23.99 C 51.02 25.96 51.54 27.96 51.98 29.98 C 48.64 30.01 45.30 30.00 41.96 30.00 C 41.80 28.00 41.64 26.00 41.48 24.00 Z" />
<path fill="#ffffff" opacity="1.00" d=" M 41.96 34.00 C 45.30 34.00 48.63 33.99 51.97 34.02 C 51.53 35.99 51.03 37.96 50.53 39.92 C 47.51 40.00 44.50 40.04 41.48 39.99 C 41.64 37.99 41.80 36.00 41.96 34.00 Z" />
<path fill="#ffffff" opacity="1.00" d=" M 15.98 44.04 C 18.46 44.00 20.94 43.99 23.43 44.01 C 24.07 46.39 24.80 48.74 25.62 51.06 C 21.87 49.55 18.55 47.16 15.98 44.04 Z" />
<path fill="#ffffff" opacity="1.00" d=" M 27.59 44.01 C 30.62 43.99 33.66 43.99 36.69 44.02 C 35.73 47.10 34.69 50.38 31.99 52.40 C 29.24 50.44 28.40 47.09 27.59 44.01 Z" />
<path fill="#ffffff" opacity="1.00" d=" M 38.44 51.04 C 39.33 48.73 40.13 46.39 40.79 44.00 C 43.20 43.99 45.62 44.00 48.04 44.05 C 45.47 47.15 42.17 49.52 38.44 51.04 Z" />
</g>
<g id="#000000ff">
<path fill="#000000" opacity="1.00" d=" M 19.57 11.50 C 27.40 6.57 38.09 6.94 45.63 12.26 C 51.39 16.25 55.31 22.84 55.88 29.84 C 56.65 37.54 53.33 45.46 47.37 50.38 C 40.72 56.09 30.81 57.61 22.76 54.13 C 15.88 51.32 10.72 45.13 8.72 38.02 C 10.11 38.01 11.50 38.00 12.90 37.99 C 13.10 38.49 13.51 39.50 13.71 40.00 C 21.62 40.00 29.53 40.00 37.44 40.00 C 38.13 34.69 38.12 29.32 37.45 24.01 C 29.54 23.99 21.62 24.01 13.71 24.00 C 13.51 24.50 13.10 25.51 12.90 26.01 C 11.50 26.00 10.11 25.99 8.72 25.98 C 10.44 20.04 14.22 14.67 19.57 11.50 M 27.59 19.99 C 30.62 20.01 33.66 20.01 36.69 19.98 C 35.75 16.90 34.68 13.67 32.04 11.59 C 29.22 13.50 28.41 16.90 27.59 19.99 M 15.98 19.96 C 18.47 20.00 20.95 20.00 23.43 19.98 C 24.06 17.61 24.80 15.26 25.62 12.93 C 21.86 14.44 18.55 16.84 15.98 19.96 M 38.44 12.95 C 39.33 15.27 40.12 17.61 40.79 20.00 C 43.20 20.01 45.62 20.00 48.03 19.96 C 45.47 16.85 42.17 14.47 38.44 12.95 M 41.48 24.00 C 41.64 26.00 41.80 28.00 41.96 30.00 C 45.30 30.00 48.64 30.01 51.98 29.98 C 51.54 27.96 51.02 25.96 50.39 23.99 C 47.42 24.01 44.45 24.00 41.48 24.00 M 41.96 34.00 C 41.80 36.00 41.64 37.99 41.48 39.99 C 44.50 40.04 47.51 40.00 50.53 39.92 C 51.03 37.96 51.53 35.99 51.97 34.02 C 48.63 33.99 45.30 34.00 41.96 34.00 M 15.98 44.04 C 18.55 47.16 21.87 49.55 25.62 51.06 C 24.80 48.74 24.07 46.39 23.43 44.01 C 20.94 43.99 18.46 44.00 15.98 44.04 M 27.59 44.01 C 28.40 47.09 29.24 50.44 31.99 52.40 C 34.69 50.38 35.73 47.10 36.69 44.02 C 33.66 43.99 30.62 43.99 27.59 44.01 M 38.44 51.04 C 42.17 49.52 45.47 47.15 48.04 44.05 C 45.62 44.00 43.20 43.99 40.79 44.00 C 40.13 46.39 39.33 48.73 38.44 51.04 Z" />
<path fill="#000000" opacity="1.00" d=" M 28.00 26.01 C 30.01 27.99 32.01 29.99 34.02 31.98 C 32.01 33.98 30.01 36.00 28.00 38.00 C 28.00 37.00 28.00 35.00 28.00 34.00 C 21.33 34.00 14.67 34.00 8.00 34.00 C 8.00 32.67 8.00 31.33 8.00 30.00 C 14.67 30.00 21.33 30.00 28.00 30.00 C 28.00 29.00 28.00 27.01 28.00 26.01 Z" />
</g>
</svg>
