<?xml version="1.0" encoding="UTF-8" ?>
<!DOCTYPE svg PUBLIC "-//W3C//DTD SVG 1.1//EN" "http://www.w3.org/Graphics/SVG/1.1/DTD/svg11.dtd">
<svg width="64pt" height="64pt" viewBox="0 0 64 64" version="1.1" xmlns="http://www.w3.org/2000/svg">
<g id="#ffffffff">
<path fill="#ffffff" opacity="1.00" d=" M 0.00 0.00 L 64.00 0.00 L 64.00 64.00 L 0.00 64.00 L 0.00 0.00 M 20.39 10.52 C 15.85 12.15 14.50 18.70 18.09 21.95 C 21.53 25.70 28.47 23.89 29.70 18.97 C 31.56 13.68 25.48 8.14 20.39 10.52 M 10.13 28.11 C 8.84 31.37 7.38 34.58 6.32 37.93 C 5.14 41.60 8.13 45.50 11.86 45.90 C 8.57 45.89 5.29 46.08 2.00 46.00 C 2.00 47.33 2.00 48.67 2.00 50.00 C 6.37 50.07 10.75 49.86 15.12 50.07 C 18.93 50.89 21.91 54.45 26.03 54.02 C 33.82 53.78 41.73 54.41 49.43 53.72 C 51.50 48.61 53.32 43.40 55.23 38.23 C 57.46 37.86 59.96 37.26 61.11 35.08 C 63.39 31.70 61.01 26.66 57.03 26.09 C 54.09 25.43 51.57 27.56 50.25 29.98 C 46.17 30.02 42.08 29.99 38.00 30.00 C 38.00 31.33 38.00 32.67 38.00 34.00 C 42.07 33.97 46.14 34.07 50.22 33.92 C 50.69 34.79 51.20 35.64 51.74 36.46 C 49.95 40.93 48.32 45.46 46.65 49.98 C 40.63 50.13 34.60 49.76 28.59 50.20 C 29.23 48.84 29.93 47.50 30.67 46.19 C 27.47 44.49 24.45 42.47 21.24 40.79 C 19.68 39.71 17.81 40.42 16.17 40.88 L 15.97 39.81 L 16.15 41.15 C 14.05 41.46 10.43 43.19 9.96 39.88 C 11.08 35.94 12.75 32.14 14.51 28.44 C 16.10 27.26 17.78 29.17 19.22 29.77 C 23.29 32.74 28.50 32.75 33.21 33.94 C 33.46 32.64 33.72 31.34 33.99 30.05 C 29.76 28.99 25.10 28.99 21.42 26.37 L 21.23 27.20 L 21.17 26.01 C 19.12 25.32 17.26 23.66 14.95 24.12 C 12.71 24.34 10.87 26.03 10.13 28.11 Z" />
<path fill="#ffffff" opacity="1.00" d=" M 21.33 14.51 C 22.86 13.43 25.34 14.20 25.81 16.07 C 26.73 18.25 24.22 20.76 22.04 19.80 C 19.73 19.22 19.32 15.71 21.33 14.51 Z" />
<path fill="#ffffff" opacity="1.00" d=" M 55.19 30.10 C 57.60 29.16 59.12 32.74 56.87 33.88 C 54.42 34.90 52.83 31.19 55.19 30.10 Z" />
<path fill="#ffffff" opacity="1.00" d=" M 13.09 45.54 C 15.23 45.41 17.28 44.45 19.40 44.44 C 22.63 45.86 25.32 48.38 28.82 49.22 C 23.22 52.21 18.80 45.05 13.09 45.54 Z" />
</g>
<g id="#000000ff">
<path fill="#000000" opacity="1.00" d=" M 20.39 10.52 C 25.48 8.14 31.56 13.68 29.70 18.97 C 28.47 23.89 21.53 25.70 18.09 21.95 C 14.50 18.70 15.85 12.15 20.39 10.52 M 21.33 14.51 C 19.32 15.71 19.73 19.22 22.04 19.80 C 24.22 20.76 26.73 18.25 25.81 16.07 C 25.34 14.20 22.86 13.43 21.33 14.51 Z" />
<path fill="#000000" opacity="1.00" d=" M 10.13 28.11 C 10.87 26.03 12.71 24.34 14.95 24.12 C 17.26 23.66 19.12 25.32 21.17 26.01 L 21.23 27.20 L 21.42 26.37 C 25.10 28.99 29.76 28.99 33.99 30.05 C 33.72 31.34 33.46 32.64 33.21 33.94 C 28.50 32.75 23.29 32.74 19.22 29.77 C 17.78 29.17 16.10 27.26 14.51 28.44 C 12.75 32.14 11.08 35.94 9.96 39.88 C 10.43 43.19 14.05 41.46 16.15 41.15 L 15.97 39.81 L 16.17 40.88 C 17.81 40.42 19.68 39.71 21.24 40.79 C 24.45 42.47 27.47 44.49 30.67 46.19 C 29.93 47.50 29.23 48.84 28.59 50.20 C 34.60 49.76 40.63 50.13 46.65 49.98 C 48.32 45.46 49.95 40.93 51.74 36.46 C 51.20 35.64 50.69 34.79 50.22 33.92 C 46.14 34.07 42.07 33.97 38.00 34.00 C 38.00 32.67 38.00 31.33 38.00 30.00 C 42.08 29.99 46.17 30.02 50.25 29.98 C 51.57 27.56 54.09 25.43 57.03 26.09 C 61.01 26.66 63.39 31.70 61.11 35.08 C 59.96 37.26 57.46 37.86 55.23 38.23 C 53.32 43.40 51.50 48.61 49.43 53.72 C 41.73 54.41 33.82 53.78 26.03 54.02 C 21.91 54.45 18.93 50.89 15.12 50.07 C 10.75 49.86 6.37 50.07 2.00 50.00 C 2.00 48.67 2.00 47.33 2.00 46.00 C 5.29 46.08 8.57 45.89 11.86 45.90 C 8.13 45.50 5.14 41.60 6.32 37.93 C 7.38 34.58 8.84 31.37 10.13 28.11 M 55.19 30.10 C 52.83 31.19 54.42 34.90 56.87 33.88 C 59.12 32.74 57.60 29.16 55.19 30.10 M 13.09 45.54 C 18.80 45.05 23.22 52.21 28.82 49.22 C 25.32 48.38 22.63 45.86 19.40 44.44 C 17.28 44.45 15.23 45.41 13.09 45.54 Z" />
</g>
</svg>
