<?xml version="1.0" encoding="UTF-8" ?>
<!DOCTYPE svg PUBLIC "-//W3C//DTD SVG 1.1//EN" "http://www.w3.org/Graphics/SVG/1.1/DTD/svg11.dtd">
<svg width="64pt" height="64pt" viewBox="0 0 64 64" version="1.1" xmlns="http://www.w3.org/2000/svg">
<g id="#ffffffff">
<path fill="#ffffff" opacity="1.00" d=" M 0.00 0.00 L 64.00 0.00 L 64.00 64.00 L 0.00 64.00 L 0.00 0.00 M 9.41 16.60 C 7.02 17.73 5.61 20.49 6.14 23.09 C 6.80 28.73 7.80 34.33 8.48 39.97 C 8.88 42.15 8.93 44.70 10.70 46.29 C 12.58 48.30 15.53 47.96 18.02 48.03 C 28.39 47.92 38.76 48.10 49.13 47.95 C 52.42 48.10 55.08 45.18 55.21 42.00 C 56.10 35.67 57.09 29.36 57.89 23.02 C 58.62 19.54 55.64 15.92 52.07 16.06 C 39.73 15.89 27.38 16.09 15.03 15.97 C 13.16 16.04 11.17 15.85 9.41 16.60 Z" />
<path fill="#ffffff" opacity="1.00" d=" M 15.12 26.12 C 17.46 25.02 19.25 28.84 16.81 29.79 C 14.51 31.02 12.84 27.19 15.12 26.12 Z" />
<path fill="#ffffff" opacity="1.00" d=" M 23.16 26.12 C 25.47 25.07 27.22 28.80 24.85 29.77 C 22.52 31.04 20.78 27.16 23.16 26.12 Z" />
<path fill="#ffffff" opacity="1.00" d=" M 31.22 26.09 C 33.55 25.13 35.21 28.90 32.80 29.78 C 30.50 31.06 28.77 27.05 31.22 26.09 Z" />
<path fill="#ffffff" opacity="1.00" d=" M 39.18 26.21 C 41.45 24.88 43.29 29.03 40.75 29.81 C 38.54 31.03 36.74 27.04 39.18 26.21 Z" />
<path fill="#ffffff" opacity="1.00" d=" M 47.19 26.20 C 49.50 24.92 51.28 29.06 48.72 29.84 C 46.46 30.94 44.79 27.05 47.19 26.20 Z" />
<path fill="#ffffff" opacity="1.00" d=" M 19.16 34.20 C 21.50 32.96 23.24 36.92 20.77 37.88 C 18.43 38.85 16.81 35.17 19.16 34.20 Z" />
<path fill="#ffffff" opacity="1.00" d=" M 27.24 34.16 C 29.58 33.11 31.13 36.81 28.86 37.88 C 26.43 38.90 24.76 35.11 27.24 34.16 Z" />
<path fill="#ffffff" opacity="1.00" d=" M 35.07 34.11 C 37.49 33.09 39.17 36.68 36.85 37.89 C 34.46 38.82 32.91 35.39 35.07 34.11 Z" />
<path fill="#ffffff" opacity="1.00" d=" M 43.12 34.10 C 45.56 33.12 47.16 36.77 44.82 37.89 C 42.43 38.84 40.90 35.29 43.12 34.10 Z" />
</g>
<g id="#000000ff">
<path fill="#000000" opacity="1.00" d=" M 9.41 16.60 C 11.17 15.85 13.16 16.04 15.03 15.97 C 27.38 16.09 39.73 15.89 52.07 16.06 C 55.64 15.92 58.62 19.54 57.89 23.02 C 57.09 29.36 56.10 35.67 55.21 42.00 C 55.08 45.18 52.42 48.10 49.13 47.95 C 38.76 48.10 28.39 47.92 18.02 48.03 C 15.53 47.96 12.58 48.30 10.70 46.29 C 8.93 44.70 8.88 42.15 8.48 39.97 C 7.80 34.33 6.80 28.73 6.14 23.09 C 5.61 20.49 7.02 17.73 9.41 16.60 M 15.12 26.12 C 12.84 27.19 14.51 31.02 16.81 29.79 C 19.25 28.84 17.46 25.02 15.12 26.12 M 23.16 26.12 C 20.78 27.16 22.52 31.04 24.85 29.77 C 27.22 28.80 25.47 25.07 23.16 26.12 M 31.22 26.09 C 28.77 27.05 30.50 31.06 32.80 29.78 C 35.21 28.90 33.55 25.13 31.22 26.09 M 39.18 26.21 C 36.74 27.04 38.54 31.03 40.75 29.81 C 43.29 29.03 41.45 24.88 39.18 26.21 M 47.19 26.20 C 44.79 27.05 46.46 30.94 48.72 29.84 C 51.28 29.06 49.50 24.92 47.19 26.20 M 19.16 34.20 C 16.81 35.17 18.43 38.85 20.77 37.88 C 23.24 36.92 21.50 32.96 19.16 34.20 M 27.24 34.16 C 24.76 35.11 26.43 38.90 28.86 37.88 C 31.13 36.81 29.58 33.11 27.24 34.16 M 35.07 34.11 C 32.91 35.39 34.46 38.82 36.85 37.89 C 39.17 36.68 37.49 33.09 35.07 34.11 M 43.12 34.10 C 40.90 35.29 42.43 38.84 44.82 37.89 C 47.16 36.77 45.56 33.12 43.12 34.10 Z" />
</g>
</svg>
