<?xml version="1.0" encoding="UTF-8" ?>
<!DOCTYPE svg PUBLIC "-//W3C//DTD SVG 1.1//EN" "http://www.w3.org/Graphics/SVG/1.1/DTD/svg11.dtd">
<svg width="64pt" height="64pt" viewBox="0 0 64 64" version="1.1" xmlns="http://www.w3.org/2000/svg">
<g id="#ffffffff">
<path fill="#ffffff" opacity="1.00" d=" M 0.00 0.00 L 64.00 0.00 L 64.00 64.00 L 0.00 64.00 L 0.00 0.00 M 25.19 12.16 C 21.43 14.60 19.83 19.16 19.91 23.48 C 22.04 24.05 22.26 26.32 22.98 28.05 C 22.71 27.59 22.18 26.67 21.91 26.21 C 21.15 26.94 20.38 27.65 19.60 28.35 C 19.05 27.48 18.49 26.61 17.92 25.74 C 16.49 24.91 15.09 24.04 13.67 23.19 C 13.75 24.95 13.78 26.71 13.79 28.48 C 12.66 27.86 11.62 27.13 10.66 26.27 C 8.95 29.54 4.50 27.35 1.54 28.13 C 4.60 31.63 9.67 31.61 13.93 32.11 C 14.27 32.40 14.95 32.99 15.28 33.28 L 16.53 31.99 C 19.12 33.63 20.56 37.01 22.36 39.54 C 22.25 40.16 22.04 41.39 21.93 42.01 C 23.62 42.00 25.31 41.99 27.00 42.00 C 28.15 45.61 29.03 49.32 30.35 52.88 C 30.74 54.39 33.27 54.40 33.65 52.87 C 34.95 49.31 35.84 45.61 36.99 42.00 C 38.66 41.99 40.32 42.00 41.99 42.01 C 41.89 41.39 41.70 40.13 41.60 39.50 C 43.43 36.98 44.89 33.66 47.46 31.98 L 48.71 33.28 C 49.05 32.99 49.74 32.40 50.08 32.10 C 54.34 31.58 59.35 31.54 62.46 28.14 C 59.50 27.35 55.05 29.54 53.34 26.27 C 52.38 27.13 51.34 27.86 50.21 28.48 C 50.21 26.72 50.25 24.96 50.32 23.19 C 48.91 24.04 47.51 24.91 46.08 25.73 C 45.51 26.60 44.95 27.48 44.39 28.36 C 43.62 27.66 42.86 26.94 42.11 26.22 C 41.84 26.66 41.32 27.55 41.05 27.99 C 41.76 26.28 41.98 24.03 44.10 23.48 C 43.97 20.37 43.49 17.09 41.42 14.63 C 37.78 9.67 30.15 8.56 25.19 12.16 Z" />
<path fill="#ffffff" opacity="1.00" d=" M 24.02 19.90 C 25.46 16.74 28.27 13.84 32.01 14.01 C 35.74 13.85 38.53 16.75 39.97 19.90 C 34.66 20.06 29.34 20.06 24.02 19.90 Z" />
<path fill="#ffffff" opacity="1.00" d=" M 23.59 23.80 C 26.06 23.49 27.68 25.19 29.42 26.57 C 29.40 25.93 29.34 24.64 29.31 24.00 C 31.10 24.00 32.90 24.00 34.69 24.00 C 34.66 24.64 34.60 25.93 34.58 26.57 C 36.32 25.19 37.94 23.49 40.41 23.80 C 38.26 31.07 36.02 38.31 33.83 45.57 C 34.25 42.04 34.69 38.51 35.13 34.98 C 34.68 34.64 33.77 33.95 33.32 33.61 C 32.88 37.18 32.45 40.75 32.00 44.33 C 31.55 40.75 31.12 37.17 30.68 33.59 C 30.23 33.97 29.33 34.71 28.88 35.09 C 29.30 38.47 29.75 41.84 30.08 45.23 C 27.87 38.10 25.71 30.96 23.59 23.80 M 28.07 28.33 C 28.68 28.72 29.91 29.50 30.52 29.89 C 30.27 30.67 29.75 32.22 29.49 33.00 C 30.33 32.38 31.16 31.75 32.00 31.13 C 32.83 31.75 33.67 32.37 34.50 33.00 C 34.16 31.96 33.82 30.92 33.48 29.89 C 34.09 29.50 35.32 28.73 35.93 28.34 C 33.63 28.55 32.36 27.36 32.00 25.21 C 31.64 27.36 30.37 28.55 28.07 28.33 Z" />
<path fill="#ffffff" opacity="1.00" d=" M 21.67 31.86 C 22.32 32.13 23.63 32.67 24.28 32.94 C 24.85 34.85 25.41 36.75 25.90 38.68 C 24.32 36.52 22.95 34.21 21.67 31.86 Z" />
<path fill="#ffffff" opacity="1.00" d=" M 39.71 32.95 C 40.36 32.68 41.68 32.12 42.33 31.85 C 41.06 34.21 39.69 36.52 38.10 38.68 C 38.59 36.76 39.15 34.86 39.71 32.95 Z" />
</g>
<g id="#000000ff">
<path fill="#000000" opacity="1.00" d=" M 25.19 12.16 C 30.15 8.56 37.78 9.67 41.42 14.63 C 43.49 17.09 43.97 20.37 44.10 23.48 C 41.98 24.03 41.76 26.28 41.05 27.99 C 41.32 27.55 41.84 26.66 42.11 26.22 C 42.86 26.94 43.62 27.66 44.39 28.36 C 44.95 27.48 45.51 26.60 46.08 25.73 C 47.51 24.91 48.91 24.04 50.32 23.19 C 50.25 24.96 50.21 26.72 50.21 28.48 C 51.34 27.86 52.38 27.13 53.34 26.27 C 55.05 29.54 59.50 27.35 62.46 28.14 C 59.35 31.54 54.34 31.58 50.08 32.10 C 49.74 32.40 49.05 32.99 48.71 33.28 L 47.46 31.98 C 44.89 33.66 43.43 36.98 41.60 39.50 C 41.70 40.13 41.89 41.39 41.99 42.01 C 40.32 42.00 38.66 41.99 36.99 42.00 C 35.84 45.61 34.95 49.31 33.65 52.87 C 33.27 54.40 30.74 54.39 30.35 52.88 C 29.03 49.32 28.15 45.61 27.00 42.00 C 25.31 41.99 23.62 42.00 21.93 42.01 C 22.04 41.39 22.25 40.16 22.36 39.54 C 20.56 37.01 19.12 33.63 16.53 31.99 L 15.28 33.28 C 14.95 32.99 14.27 32.40 13.93 32.11 C 9.67 31.61 4.60 31.63 1.54 28.13 C 4.50 27.35 8.95 29.54 10.66 26.27 C 11.62 27.13 12.66 27.86 13.79 28.48 C 13.78 26.71 13.75 24.95 13.67 23.19 C 15.09 24.04 16.49 24.91 17.92 25.74 C 18.49 26.61 19.05 27.48 19.60 28.35 C 20.38 27.65 21.15 26.94 21.91 26.21 C 22.18 26.67 22.71 27.59 22.98 28.05 C 22.26 26.32 22.04 24.05 19.91 23.48 C 19.83 19.16 21.43 14.60 25.19 12.16 M 24.02 19.90 C 29.34 20.06 34.66 20.06 39.97 19.90 C 38.53 16.75 35.74 13.85 32.01 14.01 C 28.27 13.84 25.46 16.74 24.02 19.90 M 23.59 23.80 C 25.71 30.96 27.87 38.10 30.08 45.23 C 29.75 41.84 29.30 38.47 28.88 35.09 C 29.33 34.71 30.23 33.97 30.68 33.59 C 31.12 37.17 31.55 40.75 32.00 44.33 C 32.45 40.75 32.88 37.18 33.32 33.61 C 33.77 33.95 34.68 34.64 35.13 34.98 C 34.69 38.51 34.25 42.04 33.83 45.57 C 36.02 38.31 38.26 31.07 40.41 23.80 C 37.94 23.49 36.32 25.19 34.58 26.57 C 34.60 25.93 34.66 24.64 34.69 24.00 C 32.90 24.00 31.10 24.00 29.31 24.00 C 29.34 24.64 29.40 25.93 29.42 26.57 C 27.68 25.19 26.06 23.49 23.59 23.80 M 21.67 31.86 C 22.95 34.21 24.32 36.52 25.90 38.68 C 25.41 36.75 24.85 34.85 24.28 32.94 C 23.63 32.67 22.32 32.13 21.67 31.86 M 39.71 32.95 C 39.15 34.86 38.59 36.76 38.10 38.68 C 39.69 36.52 41.06 34.21 42.33 31.85 C 41.68 32.12 40.36 32.68 39.71 32.95 Z" />
<path fill="#000000" opacity="1.00" d=" M 28.07 28.33 C 30.37 28.55 31.64 27.36 32.00 25.21 C 32.36 27.36 33.63 28.55 35.93 28.34 C 35.32 28.73 34.09 29.50 33.48 29.89 C 33.82 30.92 34.16 31.96 34.50 33.00 C 33.67 32.37 32.83 31.75 32.00 31.13 C 31.16 31.75 30.33 32.38 29.49 33.00 C 29.75 32.22 30.27 30.67 30.52 29.89 C 29.91 29.50 28.68 28.72 28.07 28.33 Z" />
</g>
</svg>
