<?xml version="1.0" encoding="UTF-8" ?>
<!DOCTYPE svg PUBLIC "-//W3C//DTD SVG 1.1//EN" "http://www.w3.org/Graphics/SVG/1.1/DTD/svg11.dtd">
<svg width="64pt" height="64pt" viewBox="0 0 64 64" version="1.1" xmlns="http://www.w3.org/2000/svg">
<g id="#ffffffff">
<path fill="#ffffff" opacity="1.00" d=" M 0.00 0.00 L 64.00 0.00 L 64.00 64.00 L 0.00 64.00 L 0.00 0.00 M 8.00 8.00 C 8.00 24.00 8.00 40.00 8.00 56.00 C 24.00 56.00 40.00 56.00 56.00 56.00 C 56.00 40.00 56.00 24.00 56.00 8.00 C 40.00 8.00 24.00 8.00 8.00 8.00 Z" />
<path fill="#ffffff" opacity="1.00" d=" M 12.00 12.00 C 25.33 12.00 38.66 12.00 52.00 12.00 C 52.00 25.33 52.00 38.66 52.00 52.00 C 38.66 52.00 25.33 52.00 12.00 52.00 C 12.00 38.66 12.00 25.33 12.00 12.00 M 16.00 16.01 C 16.00 24.00 16.00 32.00 16.00 40.00 C 20.67 40.00 25.33 40.00 30.00 40.01 C 30.00 41.33 30.00 42.66 30.00 43.99 C 27.33 44.00 24.67 44.00 22.00 44.01 C 22.00 45.34 22.00 46.67 22.00 48.00 C 28.67 48.00 35.33 48.00 42.00 48.00 C 42.00 46.67 42.00 45.34 42.00 44.01 C 39.33 44.00 36.67 43.99 34.00 43.99 C 34.00 42.66 34.00 41.33 34.00 40.00 C 38.67 40.00 43.33 39.99 48.00 40.00 C 48.00 32.00 48.00 24.00 48.00 16.00 C 37.33 15.99 26.67 15.99 16.00 16.01 Z" />
<path fill="#ffffff" opacity="1.00" d=" M 20.00 20.00 C 28.00 19.99 36.00 19.99 44.00 20.00 C 44.00 25.33 44.00 30.67 44.00 36.00 C 36.00 36.00 28.00 36.01 20.00 36.00 C 20.00 30.67 20.00 25.33 20.00 20.00 Z" />
</g>
<g id="#000000ff">
<path fill="#000000" opacity="1.00" d=" M 8.00 8.00 C 24.00 8.00 40.00 8.00 56.00 8.00 C 56.00 24.00 56.00 40.00 56.00 56.00 C 40.00 56.00 24.00 56.00 8.00 56.00 C 8.00 40.00 8.00 24.00 8.00 8.00 M 12.00 12.00 C 12.00 25.33 12.00 38.66 12.00 52.00 C 25.33 52.00 38.66 52.00 52.00 52.00 C 52.00 38.66 52.00 25.33 52.00 12.00 C 38.66 12.00 25.33 12.00 12.00 12.00 Z" />
<path fill="#000000" opacity="1.00" d=" M 16.00 16.01 C 26.67 15.99 37.33 15.99 48.00 16.00 C 48.00 24.00 48.00 32.00 48.00 40.00 C 43.33 39.99 38.67 40.00 34.00 40.00 C 34.00 41.33 34.00 42.66 34.00 43.99 C 36.67 43.99 39.33 44.00 42.00 44.01 C 42.00 45.34 42.00 46.67 42.00 48.00 C 35.33 48.00 28.67 48.00 22.00 48.00 C 22.00 46.67 22.00 45.34 22.00 44.01 C 24.67 44.00 27.33 44.00 30.00 43.99 C 30.00 42.66 30.00 41.33 30.00 40.01 C 25.33 40.00 20.67 40.00 16.00 40.00 C 16.00 32.00 16.00 24.00 16.00 16.01 M 20.00 20.00 C 20.00 25.33 20.00 30.67 20.00 36.00 C 28.00 36.01 36.00 36.00 44.00 36.00 C 44.00 30.67 44.00 25.33 44.00 20.00 C 36.00 19.99 28.00 19.99 20.00 20.00 Z" />
</g>
</svg>
