<?xml version="1.0" encoding="UTF-8" ?>
<!DOCTYPE svg PUBLIC "-//W3C//DTD SVG 1.1//EN" "http://www.w3.org/Graphics/SVG/1.1/DTD/svg11.dtd">
<svg width="64pt" height="64pt" viewBox="0 0 64 64" version="1.1" xmlns="http://www.w3.org/2000/svg">
<g id="#ffffffff">
<path fill="#ffffff" opacity="1.00" d=" M 0.00 0.00 L 64.00 0.00 L 64.00 64.00 L 0.00 64.00 L 0.00 0.00 M 29.42 8.51 C 24.57 10.20 23.47 17.39 27.62 20.42 C 31.49 23.89 38.36 21.17 38.90 16.04 C 39.91 10.97 34.14 6.35 29.42 8.51 M 23.14 28.17 C 21.05 31.32 20.82 35.25 19.73 38.79 C 22.78 41.04 25.77 43.35 28.81 45.60 C 29.59 44.53 30.39 43.45 31.19 42.39 C 28.90 40.64 26.60 38.90 24.26 37.21 C 24.82 35.12 25.13 32.94 26.06 30.98 C 27.97 27.58 32.91 27.16 36.04 28.98 C 38.83 30.73 38.89 34.36 39.73 37.20 C 37.42 38.93 35.13 40.68 32.81 42.40 C 33.61 43.46 34.40 44.53 35.19 45.60 C 38.21 43.35 41.21 41.07 44.26 38.87 C 43.39 35.72 42.96 32.43 41.62 29.43 C 38.30 22.61 27.42 22.05 23.14 28.17 M 12.00 26.00 C 12.00 29.33 12.00 32.67 12.00 36.00 C 13.33 35.99 14.67 35.99 16.00 36.00 C 16.00 32.67 16.00 29.33 16.00 26.00 C 14.67 26.01 13.33 26.01 12.00 26.00 M 48.00 26.00 C 48.00 29.33 48.00 32.67 48.00 36.00 C 49.33 35.99 50.67 35.99 52.00 36.00 C 52.00 32.67 52.00 29.33 52.00 26.00 C 50.67 26.01 49.33 26.01 48.00 26.00 M 10.00 40.00 C 10.00 45.33 10.00 50.67 10.00 56.00 C 11.33 55.99 12.67 55.99 14.00 56.00 C 14.00 52.00 14.00 48.00 14.00 44.00 C 15.33 44.00 16.67 44.00 18.00 44.00 C 17.99 42.66 17.99 41.33 18.00 40.00 C 15.34 40.00 12.67 40.00 10.00 40.00 M 46.00 40.00 C 46.01 41.33 46.01 42.66 46.00 44.00 C 47.33 44.00 48.66 44.00 50.00 44.00 C 50.00 48.00 50.00 52.00 50.00 56.00 C 51.33 55.99 52.67 55.99 54.00 56.00 C 54.00 50.67 54.00 45.33 54.00 40.00 C 51.33 40.00 48.66 40.00 46.00 40.00 M 20.53 42.84 C 19.18 47.37 22.38 51.63 23.25 56.00 C 24.65 55.98 26.06 55.99 27.46 56.00 C 26.42 52.80 25.42 49.59 24.38 46.39 C 23.96 44.52 22.03 43.72 20.53 42.84 M 39.62 46.39 C 38.58 49.59 37.58 52.80 36.54 56.00 C 37.94 55.99 39.34 55.99 40.75 56.00 C 41.64 51.64 44.75 47.41 43.51 42.87 C 41.96 43.66 40.05 44.53 39.62 46.39 Z" />
<path fill="#ffffff" opacity="1.00" d=" M 30.34 12.49 C 33.54 10.23 36.90 15.51 33.65 17.50 C 30.46 19.77 27.10 14.49 30.34 12.49 Z" />
</g>
<g id="#000000ff">
<path fill="#000000" opacity="1.00" d=" M 29.42 8.51 C 34.14 6.35 39.91 10.97 38.90 16.04 C 38.36 21.17 31.49 23.89 27.62 20.42 C 23.47 17.39 24.57 10.20 29.42 8.51 M 30.34 12.49 C 27.10 14.49 30.46 19.77 33.65 17.50 C 36.90 15.51 33.54 10.23 30.34 12.49 Z" />
<path fill="#000000" opacity="1.00" d=" M 23.14 28.17 C 27.42 22.05 38.30 22.61 41.62 29.43 C 42.96 32.43 43.39 35.72 44.26 38.87 C 41.21 41.07 38.21 43.35 35.19 45.60 C 34.40 44.53 33.61 43.46 32.81 42.40 C 35.13 40.68 37.42 38.93 39.73 37.20 C 38.89 34.36 38.83 30.73 36.04 28.98 C 32.91 27.16 27.97 27.58 26.06 30.98 C 25.13 32.94 24.82 35.12 24.26 37.21 C 26.60 38.90 28.90 40.64 31.19 42.39 C 30.39 43.45 29.59 44.53 28.81 45.60 C 25.77 43.35 22.78 41.04 19.73 38.79 C 20.82 35.25 21.05 31.32 23.14 28.17 Z" />
<path fill="#000000" opacity="1.00" d=" M 12.00 26.00 C 13.33 26.01 14.67 26.01 16.00 26.00 C 16.00 29.33 16.00 32.67 16.00 36.00 C 14.67 35.99 13.33 35.99 12.00 36.00 C 12.00 32.67 12.00 29.33 12.00 26.00 Z" />
<path fill="#000000" opacity="1.00" d=" M 48.00 26.00 C 49.33 26.01 50.67 26.01 52.00 26.00 C 52.00 29.33 52.00 32.67 52.00 36.00 C 50.67 35.99 49.33 35.99 48.00 36.00 C 48.00 32.67 48.00 29.33 48.00 26.00 Z" />
<path fill="#000000" opacity="1.00" d=" M 10.00 40.00 C 12.67 40.00 15.34 40.00 18.00 40.00 C 17.99 41.33 17.99 42.66 18.00 44.00 C 16.67 44.00 15.33 44.00 14.00 44.00 C 14.00 48.00 14.00 52.00 14.00 56.00 C 12.67 55.99 11.33 55.99 10.00 56.00 C 10.00 50.67 10.00 45.33 10.00 40.00 Z" />
<path fill="#000000" opacity="1.00" d=" M 46.00 40.00 C 48.66 40.00 51.33 40.00 54.00 40.00 C 54.00 45.33 54.00 50.67 54.00 56.00 C 52.67 55.99 51.33 55.99 50.00 56.00 C 50.00 52.00 50.00 48.00 50.00 44.00 C 48.66 44.00 47.33 44.00 46.00 44.00 C 46.01 42.66 46.01 41.33 46.00 40.00 Z" />
<path fill="#000000" opacity="1.00" d=" M 20.53 42.84 C 22.03 43.72 23.96 44.52 24.38 46.39 C 25.42 49.59 26.42 52.80 27.46 56.00 C 26.06 55.99 24.65 55.98 23.25 56.00 C 22.38 51.63 19.18 47.37 20.53 42.84 Z" />
<path fill="#000000" opacity="1.00" d=" M 39.62 46.39 C 40.05 44.53 41.96 43.66 43.51 42.87 C 44.75 47.41 41.64 51.64 40.75 56.00 C 39.34 55.99 37.94 55.99 36.54 56.00 C 37.58 52.80 38.58 49.59 39.62 46.39 Z" />
</g>
</svg>
