<?xml version="1.0" encoding="UTF-8" ?>
<!DOCTYPE svg PUBLIC "-//W3C//DTD SVG 1.1//EN" "http://www.w3.org/Graphics/SVG/1.1/DTD/svg11.dtd">
<svg width="64pt" height="64pt" viewBox="0 0 64 64" version="1.1" xmlns="http://www.w3.org/2000/svg">
<g id="#ffffffff">
<path fill="#ffffff" opacity="1.00" d=" M 0.00 0.00 L 64.00 0.00 L 64.00 36.00 C 60.00 36.00 56.00 36.00 52.00 36.00 C 52.00 26.00 52.00 16.00 52.00 6.00 C 38.67 6.00 25.33 6.00 12.00 6.00 C 12.00 23.33 12.00 40.67 12.00 58.00 C 20.00 58.00 28.00 58.00 36.00 58.00 C 35.99 60.00 36.00 62.00 36.00 64.00 L 0.00 64.00 L 0.00 0.00 Z" />
<path fill="#ffffff" opacity="1.00" d=" M 16.00 10.00 C 20.66 10.00 25.32 10.00 29.99 10.00 C 29.99 10.50 30.01 11.50 30.01 12.00 C 31.34 12.00 32.66 12.00 33.99 12.00 C 33.99 11.50 34.01 10.50 34.01 10.00 C 38.68 10.00 43.34 10.00 48.00 10.00 C 48.00 18.67 48.00 27.33 48.00 36.00 C 47.29 36.00 45.86 36.00 45.14 36.00 C 42.08 39.03 39.03 42.08 36.00 45.15 C 36.01 48.10 35.99 51.05 36.00 54.00 C 29.33 54.00 22.67 54.00 16.00 54.00 C 16.00 39.33 16.00 24.67 16.00 10.00 M 30.00 14.00 C 30.00 15.33 30.00 16.67 30.00 18.00 C 31.33 18.00 32.67 18.00 34.00 18.00 C 34.00 16.67 34.00 15.33 34.00 14.00 C 32.67 14.00 31.33 14.00 30.00 14.00 M 30.00 20.00 C 30.00 21.33 30.00 22.67 30.00 24.00 C 31.33 24.00 32.67 24.00 34.00 24.00 C 34.00 22.67 34.00 21.33 34.00 20.00 C 32.67 20.00 31.33 20.00 30.00 20.00 M 30.01 26.00 C 30.00 27.42 29.99 28.84 29.97 30.25 C 26.72 31.75 24.73 35.90 26.89 39.11 C 29.11 43.14 35.67 42.77 37.42 38.52 C 39.11 35.32 37.00 31.70 34.02 30.25 C 34.01 28.83 34.00 27.42 33.99 26.00 C 32.66 26.00 31.34 26.00 30.01 26.00 Z" />
<path fill="#ffffff" opacity="1.00" d=" M 31.18 34.10 C 33.58 33.13 35.09 36.69 32.90 37.88 C 30.45 38.93 28.81 35.22 31.18 34.10 Z" />
<path fill="#ffffff" opacity="1.00" d=" M 39.99 46.88 C 42.30 44.59 44.60 42.30 46.89 39.99 C 51.26 40.01 55.63 40.00 60.00 40.00 C 60.00 46.67 60.00 53.33 60.00 60.00 C 53.33 60.00 46.67 60.00 40.00 60.00 C 40.00 55.62 40.01 51.25 39.99 46.88 M 48.00 42.00 C 48.00 43.33 48.00 44.67 48.00 46.00 C 50.67 46.00 53.33 46.00 56.00 46.00 C 56.00 44.67 56.00 43.33 56.00 42.00 C 53.33 42.00 50.67 42.00 48.00 42.00 M 48.34 50.39 C 45.60 51.52 45.15 55.73 47.75 57.26 C 49.65 58.78 52.65 57.82 53.60 55.66 C 55.35 52.58 51.45 48.62 48.34 50.39 Z" />
</g>
<g id="#000000ff">
<path fill="#000000" opacity="1.00" d=" M 12.00 6.00 C 25.33 6.00 38.67 6.00 52.00 6.00 C 52.00 16.00 52.00 26.00 52.00 36.00 C 56.00 36.00 60.00 36.00 64.00 36.00 L 64.00 64.00 L 36.00 64.00 C 36.00 62.00 35.99 60.00 36.00 58.00 C 28.00 58.00 20.00 58.00 12.00 58.00 C 12.00 40.67 12.00 23.33 12.00 6.00 M 16.00 10.00 C 16.00 24.67 16.00 39.33 16.00 54.00 C 22.67 54.00 29.33 54.00 36.00 54.00 C 35.99 51.05 36.01 48.10 36.00 45.15 C 39.03 42.08 42.08 39.03 45.14 36.00 C 45.86 36.00 47.29 36.00 48.00 36.00 C 48.00 27.33 48.00 18.67 48.00 10.00 C 43.34 10.00 38.68 10.00 34.01 10.00 C 34.01 10.50 33.99 11.50 33.99 12.00 C 32.66 12.00 31.34 12.00 30.01 12.00 C 30.01 11.50 29.99 10.50 29.99 10.00 C 25.32 10.00 20.66 10.00 16.00 10.00 M 39.99 46.88 C 40.01 51.25 40.00 55.62 40.00 60.00 C 46.67 60.00 53.33 60.00 60.00 60.00 C 60.00 53.33 60.00 46.67 60.00 40.00 C 55.63 40.00 51.26 40.01 46.89 39.99 C 44.60 42.30 42.30 44.59 39.99 46.88 Z" />
<path fill="#000000" opacity="1.00" d=" M 30.00 14.00 C 31.33 14.00 32.67 14.00 34.00 14.00 C 34.00 15.33 34.00 16.67 34.00 18.00 C 32.67 18.00 31.33 18.00 30.00 18.00 C 30.00 16.67 30.00 15.33 30.00 14.00 Z" />
<path fill="#000000" opacity="1.00" d=" M 30.00 20.00 C 31.33 20.00 32.67 20.00 34.00 20.00 C 34.00 21.33 34.00 22.67 34.00 24.00 C 32.67 24.00 31.33 24.00 30.00 24.00 C 30.00 22.67 30.00 21.33 30.00 20.00 Z" />
<path fill="#000000" opacity="1.00" d=" M 30.01 26.00 C 31.34 26.00 32.66 26.00 33.99 26.00 C 34.00 27.42 34.01 28.83 34.02 30.25 C 37.00 31.70 39.11 35.32 37.42 38.52 C 35.67 42.77 29.11 43.14 26.89 39.11 C 24.73 35.90 26.72 31.75 29.97 30.25 C 29.99 28.84 30.00 27.42 30.01 26.00 M 31.18 34.10 C 28.81 35.22 30.45 38.93 32.90 37.88 C 35.09 36.69 33.58 33.13 31.18 34.10 Z" />
<path fill="#000000" opacity="1.00" d=" M 48.00 42.00 C 50.67 42.00 53.33 42.00 56.00 42.00 C 56.00 43.33 56.00 44.67 56.00 46.00 C 53.33 46.00 50.67 46.00 48.00 46.00 C 48.00 44.67 48.00 43.33 48.00 42.00 Z" />
<path fill="#000000" opacity="1.00" d=" M 48.34 50.39 C 51.45 48.62 55.35 52.58 53.60 55.66 C 52.65 57.82 49.65 58.78 47.75 57.26 C 45.15 55.73 45.60 51.52 48.34 50.39 Z" />
</g>
</svg>
