<?xml version="1.0" encoding="UTF-8" ?>
<!DOCTYPE svg PUBLIC "-//W3C//DTD SVG 1.1//EN" "http://www.w3.org/Graphics/SVG/1.1/DTD/svg11.dtd">
<svg width="64pt" height="64pt" viewBox="0 0 64 64" version="1.1" xmlns="http://www.w3.org/2000/svg">
<g id="#ffffffff">
<path fill="#ffffff" opacity="1.00" d=" M 0.00 0.00 L 64.00 0.00 L 64.00 64.00 L 0.00 64.00 L 0.00 0.00 M 7.65 6.05 C 12.07 23.01 12.61 40.55 12.07 58.00 C 25.36 58.00 38.65 58.00 51.93 58.00 C 52.08 46.41 51.20 34.71 53.08 23.23 C 54.40 17.53 55.63 11.82 56.55 6.04 C 40.25 5.97 23.95 5.98 7.65 6.05 Z" />
<path fill="#ffffff" opacity="1.00" d=" M 12.00 10.00 C 25.33 10.00 38.67 10.00 52.00 10.00 C 52.00 11.33 52.00 12.67 52.00 14.00 C 38.67 14.00 25.33 14.00 12.00 14.00 C 12.00 12.67 12.00 11.33 12.00 10.00 Z" />
<path fill="#ffffff" opacity="1.00" d=" M 16.00 18.00 C 26.67 18.00 37.33 17.99 48.00 18.00 C 48.00 30.00 48.00 42.00 48.00 54.00 C 37.33 54.00 26.67 54.00 16.00 54.00 C 16.00 42.00 16.00 30.00 16.00 18.00 M 19.81 22.01 C 20.21 31.35 20.96 40.67 22.07 49.95 C 23.31 49.98 24.56 50.01 25.81 50.04 C 26.16 47.26 26.86 41.72 27.21 38.95 C 28.96 41.35 30.44 43.90 31.96 46.45 C 33.12 44.20 34.11 41.84 35.21 39.58 C 37.24 41.32 39.18 43.16 41.22 44.89 C 44.58 37.74 43.88 29.68 44.36 22.01 C 36.17 21.98 27.99 21.99 19.81 22.01 M 38.00 46.00 C 38.00 47.33 38.00 48.67 38.00 50.00 C 39.33 50.00 40.67 50.00 42.00 50.00 C 42.00 48.67 42.00 47.33 42.00 46.00 C 40.67 46.00 39.33 46.00 38.00 46.00 Z" />
<path fill="#ffffff" opacity="1.00" d=" M 24.00 26.00 C 29.33 26.00 34.67 26.00 40.00 26.00 C 40.00 28.67 40.00 31.33 40.00 34.00 C 34.67 34.00 29.33 34.00 24.00 34.00 C 24.00 31.33 24.00 28.66 24.00 26.00 Z" />
</g>
<g id="#000000ff">
<path fill="#000000" opacity="1.00" d=" M 7.65 6.05 C 23.95 5.98 40.25 5.97 56.55 6.04 C 55.63 11.82 54.40 17.53 53.08 23.23 C 51.20 34.71 52.08 46.41 51.93 58.00 C 38.65 58.00 25.36 58.00 12.07 58.00 C 12.61 40.55 12.07 23.01 7.65 6.05 M 12.00 10.00 C 12.00 11.33 12.00 12.67 12.00 14.00 C 25.33 14.00 38.67 14.00 52.00 14.00 C 52.00 12.67 52.00 11.33 52.00 10.00 C 38.67 10.00 25.33 10.00 12.00 10.00 M 16.00 18.00 C 16.00 30.00 16.00 42.00 16.00 54.00 C 26.67 54.00 37.33 54.00 48.00 54.00 C 48.00 42.00 48.00 30.00 48.00 18.00 C 37.33 17.99 26.67 18.00 16.00 18.00 Z" />
<path fill="#000000" opacity="1.00" d=" M 19.81 22.01 C 27.99 21.99 36.17 21.98 44.36 22.01 C 43.88 29.68 44.58 37.74 41.22 44.89 C 39.18 43.16 37.24 41.32 35.21 39.58 C 34.11 41.84 33.12 44.20 31.96 46.45 C 30.44 43.90 28.96 41.35 27.21 38.95 C 26.86 41.72 26.16 47.26 25.81 50.04 C 24.56 50.01 23.31 49.98 22.07 49.95 C 20.96 40.67 20.21 31.35 19.81 22.01 M 24.00 26.00 C 24.00 28.66 24.00 31.33 24.00 34.00 C 29.33 34.00 34.67 34.00 40.00 34.00 C 40.00 31.33 40.00 28.67 40.00 26.00 C 34.67 26.00 29.33 26.00 24.00 26.00 Z" />
<path fill="#000000" opacity="1.00" d=" M 38.00 46.00 C 39.33 46.00 40.67 46.00 42.00 46.00 C 42.00 47.33 42.00 48.67 42.00 50.00 C 40.67 50.00 39.33 50.00 38.00 50.00 C 38.00 48.67 38.00 47.33 38.00 46.00 Z" />
</g>
</svg>
