<?xml version="1.0" encoding="UTF-8" ?>
<!DOCTYPE svg PUBLIC "-//W3C//DTD SVG 1.1//EN" "http://www.w3.org/Graphics/SVG/1.1/DTD/svg11.dtd">
<svg width="64pt" height="64pt" viewBox="0 0 64 64" version="1.1" xmlns="http://www.w3.org/2000/svg">
<g id="#ffffffff">
<path fill="#ffffff" opacity="1.00" d=" M 0.00 0.00 L 64.00 0.00 L 64.00 14.04 C 62.92 14.03 61.84 14.02 60.76 14.01 C 57.94 16.43 54.05 16.39 51.21 14.01 C 50.40 14.01 49.60 14.01 48.79 14.01 C 45.95 16.42 42.05 16.39 39.21 14.01 C 38.40 14.01 37.59 14.01 36.78 14.00 C 33.95 16.42 30.06 16.39 27.22 14.01 C 26.41 14.01 25.59 14.01 24.78 14.01 C 21.95 16.42 18.06 16.39 15.22 14.01 C 14.40 14.01 13.59 14.01 12.78 14.01 C 9.96 16.42 6.07 16.40 3.24 14.03 C 2.16 14.01 1.08 14.00 0.00 13.99 L 0.00 0.00 Z" />
<path fill="#ffffff" opacity="1.00" d=" M 0.00 15.21 C 2.46 20.57 9.41 21.00 13.99 18.25 C 17.74 20.41 22.25 20.41 26.00 18.24 C 29.74 20.40 34.25 20.41 38.00 18.24 C 41.74 20.41 46.25 20.40 49.99 18.25 C 54.59 21.01 61.50 20.55 64.00 15.22 L 64.00 30.04 C 62.92 30.03 61.84 30.02 60.77 30.01 C 57.94 32.43 54.05 32.39 51.21 30.01 C 50.40 30.01 49.59 30.01 48.78 30.01 C 45.95 32.42 42.06 32.40 39.22 30.01 C 38.41 30.01 37.60 30.01 36.79 30.01 C 33.95 32.41 30.05 32.40 27.22 30.01 C 26.41 30.01 25.60 30.01 24.78 30.01 C 21.95 32.42 18.05 32.40 15.21 30.01 C 14.40 30.01 13.60 30.01 12.79 30.01 C 9.96 32.40 6.09 32.41 3.25 30.03 C 2.17 30.01 1.08 30.00 0.00 29.98 L 0.00 15.21 Z" />
<path fill="#ffffff" opacity="1.00" d=" M 0.00 31.20 C 2.46 36.56 9.41 37.01 14.00 34.25 C 17.75 36.40 22.25 36.41 26.00 34.24 C 29.74 36.41 34.25 36.41 38.00 34.24 C 41.74 36.41 46.25 36.41 50.00 34.25 C 54.59 37.01 61.49 36.55 64.00 31.23 L 64.00 46.04 C 62.92 46.03 61.84 46.02 60.76 46.01 C 57.94 48.42 54.04 48.39 51.22 46.01 C 50.40 46.01 49.59 46.01 48.78 46.01 C 45.95 48.42 42.06 48.40 39.22 46.01 C 38.41 46.01 37.59 46.01 36.78 46.01 C 33.95 48.42 30.05 48.40 27.22 46.01 C 26.40 46.01 25.59 46.01 24.78 46.01 C 21.95 48.42 18.05 48.39 15.21 46.01 C 14.41 46.01 13.60 46.01 12.79 46.01 C 9.97 48.39 6.08 48.42 3.25 46.02 C 2.17 46.02 1.08 46.02 -0.00 46.03 L 0.00 31.20 Z" />
<path fill="#ffffff" opacity="1.00" d=" M 0.00 47.18 C 2.43 52.56 9.41 53.01 14.00 50.25 C 17.75 52.40 22.25 52.41 26.00 50.24 C 29.74 52.40 34.25 52.41 37.99 50.24 C 41.74 52.40 46.24 52.41 49.99 50.25 C 54.58 53.01 61.49 52.55 64.00 47.22 L 64.00 64.00 L 0.00 64.00 L 0.00 47.18 Z" />
</g>
<g id="#000000ff">
<path fill="#000000" opacity="1.00" d=" M 0.00 13.99 C 1.08 14.00 2.16 14.01 3.24 14.03 C 6.07 16.40 9.96 16.42 12.78 14.01 C 13.59 14.01 14.40 14.01 15.22 14.01 C 18.06 16.39 21.95 16.42 24.78 14.01 C 25.59 14.01 26.41 14.01 27.22 14.01 C 30.06 16.39 33.95 16.42 36.78 14.00 C 37.59 14.01 38.40 14.01 39.21 14.01 C 42.05 16.39 45.95 16.42 48.79 14.01 C 49.60 14.01 50.40 14.01 51.21 14.01 C 54.05 16.39 57.94 16.43 60.76 14.01 C 61.84 14.02 62.92 14.03 64.00 14.04 L 64.00 15.22 C 61.50 20.55 54.59 21.01 49.99 18.25 C 46.25 20.40 41.74 20.41 38.00 18.24 C 34.25 20.41 29.74 20.40 26.00 18.24 C 22.25 20.41 17.74 20.41 13.99 18.25 C 9.41 21.00 2.46 20.57 0.00 15.21 L 0.00 13.99 Z" />
<path fill="#000000" opacity="1.00" d=" M 0.00 29.98 C 1.08 30.00 2.17 30.01 3.25 30.03 C 6.09 32.41 9.96 32.40 12.79 30.01 C 13.60 30.01 14.40 30.01 15.21 30.01 C 18.05 32.40 21.95 32.42 24.78 30.01 C 25.60 30.01 26.41 30.01 27.22 30.01 C 30.05 32.40 33.95 32.41 36.79 30.01 C 37.60 30.01 38.41 30.01 39.22 30.01 C 42.06 32.40 45.95 32.42 48.78 30.01 C 49.59 30.01 50.40 30.01 51.21 30.01 C 54.05 32.39 57.94 32.43 60.77 30.01 C 61.84 30.02 62.92 30.03 64.00 30.04 L 64.00 31.23 C 61.49 36.55 54.59 37.01 50.00 34.25 C 46.25 36.41 41.74 36.41 38.00 34.24 C 34.25 36.41 29.74 36.41 26.00 34.24 C 22.25 36.41 17.75 36.40 14.00 34.25 C 9.41 37.01 2.46 36.56 0.00 31.20 L 0.00 29.98 Z" />
<path fill="#000000" opacity="1.00" d=" M -0.00 46.03 C 1.08 46.02 2.17 46.02 3.25 46.02 C 6.08 48.42 9.97 48.39 12.79 46.01 C 13.60 46.01 14.41 46.01 15.21 46.01 C 18.05 48.39 21.95 48.42 24.78 46.01 C 25.59 46.01 26.40 46.01 27.22 46.01 C 30.05 48.40 33.95 48.42 36.78 46.01 C 37.59 46.01 38.41 46.01 39.22 46.01 C 42.06 48.40 45.95 48.42 48.78 46.01 C 49.59 46.01 50.40 46.01 51.22 46.01 C 54.04 48.39 57.94 48.42 60.76 46.01 C 61.84 46.02 62.92 46.03 64.00 46.04 L 64.00 47.22 C 61.49 52.55 54.58 53.01 49.99 50.25 C 46.24 52.41 41.74 52.40 37.99 50.24 C 34.25 52.41 29.74 52.40 26.00 50.24 C 22.25 52.41 17.75 52.40 14.00 50.25 C 9.41 53.01 2.43 52.56 0.00 47.18 L 0.00 46.03 Z" />
</g>
</svg>
