<?xml version="1.0" encoding="UTF-8" ?>
<!DOCTYPE svg PUBLIC "-//W3C//DTD SVG 1.1//EN" "http://www.w3.org/Graphics/SVG/1.1/DTD/svg11.dtd">
<svg width="64pt" height="64pt" viewBox="0 0 64 64" version="1.1" xmlns="http://www.w3.org/2000/svg">
<g id="#ffffffff">
<path fill="#ffffff" opacity="1.00" d=" M 0.00 0.00 L 64.00 0.00 L 64.00 64.00 L 0.00 64.00 L 0.00 0.00 M 10.00 8.00 C 10.00 12.67 10.00 17.33 10.00 22.00 C 11.33 22.00 12.67 22.00 14.00 22.00 C 14.00 18.67 14.00 15.33 14.00 12.00 C 26.00 12.00 38.00 12.00 50.00 12.00 C 50.00 15.33 50.00 18.67 50.00 22.00 C 51.33 22.00 52.67 22.00 54.00 22.00 C 54.00 17.33 54.00 12.67 54.00 8.00 C 39.33 8.00 24.67 8.00 10.00 8.00 M 17.39 22.06 C 16.21 25.52 15.39 29.09 14.24 32.56 C 12.53 33.56 10.50 34.71 10.14 36.86 C 9.81 40.56 10.08 44.29 10.00 48.00 C 11.33 48.00 12.67 48.00 14.00 48.00 C 14.08 44.36 13.78 40.70 14.17 37.08 C 14.89 35.88 16.41 36.09 17.58 35.81 C 17.95 34.54 18.32 33.27 18.69 32.00 C 27.57 32.00 36.44 32.00 45.31 32.00 C 45.68 33.26 46.04 34.53 46.40 35.80 C 47.57 36.10 49.09 35.88 49.81 37.06 C 50.23 40.69 49.91 44.36 50.00 48.00 C 51.33 48.00 52.66 48.00 54.00 48.00 C 53.92 44.28 54.19 40.55 53.85 36.84 C 53.47 34.70 51.45 33.56 49.75 32.55 C 48.61 29.09 47.79 25.53 46.61 22.08 C 45.88 19.71 43.52 17.96 41.03 18.03 C 34.97 17.97 28.91 17.96 22.85 18.04 C 20.41 18.00 18.10 19.74 17.39 22.06 M 6.00 24.00 C 6.00 26.67 6.00 29.33 6.00 32.00 C 7.33 32.00 8.67 32.00 10.00 32.00 C 10.00 29.33 10.00 26.67 10.00 24.00 C 8.67 24.00 7.33 24.00 6.00 24.00 M 54.00 24.00 C 54.00 26.67 54.00 29.33 54.00 32.00 C 55.33 32.00 56.67 32.00 58.00 32.00 C 58.00 29.33 58.00 26.67 58.00 24.00 C 56.67 24.00 55.33 24.00 54.00 24.00 M 26.34 36.37 C 22.74 38.17 24.33 42.81 24.00 46.00 C 25.33 46.00 26.67 46.00 28.00 46.00 C 28.00 44.00 28.00 42.00 28.00 40.00 C 30.67 40.00 33.33 40.00 36.00 40.00 C 36.00 42.00 36.00 44.00 36.00 46.00 C 37.33 46.00 38.66 46.00 40.00 46.00 C 39.77 42.66 41.24 37.51 37.02 36.14 C 33.49 36.00 29.81 35.63 26.34 36.37 M 17.33 40.54 C 15.63 41.58 15.60 44.33 17.26 45.42 C 18.77 46.62 21.32 45.81 21.80 43.94 C 22.90 41.41 19.48 38.84 17.33 40.54 M 43.36 40.52 C 40.08 42.44 43.48 47.80 46.63 45.49 C 49.94 43.57 46.50 38.19 43.36 40.52 M 9.97 50.00 C 10.30 51.90 9.20 54.60 11.15 55.83 C 13.38 56.14 15.64 56.00 17.89 55.98 C 18.09 55.53 18.49 54.63 18.69 54.18 C 27.51 53.73 36.39 54.17 45.23 53.97 C 45.43 54.47 45.84 55.49 46.04 56.00 C 48.32 55.99 50.62 56.15 52.88 55.82 C 54.77 54.55 53.71 51.90 54.03 50.00 C 39.34 50.00 24.66 50.00 9.97 50.00 Z" />
<path fill="#ffffff" opacity="1.00" d=" M 22.09 22.17 C 28.67 21.88 35.31 21.89 41.89 22.16 C 43.45 23.63 43.45 26.08 44.19 28.00 C 36.04 28.00 27.89 28.01 19.75 27.99 C 20.49 26.08 20.46 23.57 22.09 22.17 Z" />
</g>
<g id="#000000ff">
<path fill="#000000" opacity="1.00" d=" M 10.00 8.00 C 24.67 8.00 39.33 8.00 54.00 8.00 C 54.00 12.67 54.00 17.33 54.00 22.00 C 52.67 22.00 51.33 22.00 50.00 22.00 C 50.00 18.67 50.00 15.33 50.00 12.00 C 38.00 12.00 26.00 12.00 14.00 12.00 C 14.00 15.33 14.00 18.67 14.00 22.00 C 12.67 22.00 11.33 22.00 10.00 22.00 C 10.00 17.33 10.00 12.67 10.00 8.00 Z" />
<path fill="#000000" opacity="1.00" d=" M 17.39 22.06 C 18.10 19.74 20.41 18.00 22.85 18.04 C 28.91 17.96 34.97 17.97 41.03 18.03 C 43.52 17.96 45.88 19.71 46.61 22.08 C 47.79 25.53 48.61 29.09 49.75 32.55 C 51.45 33.56 53.47 34.70 53.85 36.84 C 54.19 40.55 53.92 44.28 54.00 48.00 C 52.66 48.00 51.33 48.00 50.00 48.00 C 49.91 44.36 50.23 40.69 49.81 37.06 C 49.09 35.88 47.57 36.10 46.40 35.80 C 46.04 34.53 45.68 33.26 45.31 32.00 C 36.44 32.00 27.57 32.00 18.69 32.00 C 18.32 33.27 17.95 34.54 17.58 35.81 C 16.41 36.09 14.89 35.88 14.17 37.08 C 13.78 40.70 14.08 44.36 14.00 48.00 C 12.67 48.00 11.33 48.00 10.00 48.00 C 10.08 44.29 9.81 40.56 10.14 36.86 C 10.50 34.71 12.53 33.56 14.24 32.56 C 15.39 29.09 16.21 25.52 17.39 22.06 M 22.09 22.17 C 20.46 23.57 20.49 26.08 19.75 27.99 C 27.89 28.01 36.04 28.00 44.19 28.00 C 43.45 26.08 43.45 23.63 41.89 22.16 C 35.31 21.89 28.67 21.88 22.09 22.17 Z" />
<path fill="#000000" opacity="1.00" d=" M 6.00 24.00 C 7.33 24.00 8.67 24.00 10.00 24.00 C 10.00 26.67 10.00 29.33 10.00 32.00 C 8.67 32.00 7.33 32.00 6.00 32.00 C 6.00 29.33 6.00 26.67 6.00 24.00 Z" />
<path fill="#000000" opacity="1.00" d=" M 54.00 24.00 C 55.33 24.00 56.67 24.00 58.00 24.00 C 58.00 26.67 58.00 29.33 58.00 32.00 C 56.67 32.00 55.33 32.00 54.00 32.00 C 54.00 29.33 54.00 26.67 54.00 24.00 Z" />
<path fill="#000000" opacity="1.00" d=" M 26.34 36.37 C 29.81 35.63 33.49 36.00 37.02 36.14 C 41.24 37.51 39.77 42.66 40.00 46.00 C 38.66 46.00 37.33 46.00 36.00 46.00 C 36.00 44.00 36.00 42.00 36.00 40.00 C 33.33 40.00 30.67 40.00 28.00 40.00 C 28.00 42.00 28.00 44.00 28.00 46.00 C 26.67 46.00 25.33 46.00 24.00 46.00 C 24.33 42.81 22.74 38.17 26.34 36.37 Z" />
<path fill="#000000" opacity="1.00" d=" M 17.33 40.54 C 19.48 38.84 22.90 41.41 21.80 43.94 C 21.32 45.81 18.77 46.62 17.26 45.42 C 15.60 44.33 15.63 41.58 17.33 40.54 Z" />
<path fill="#000000" opacity="1.00" d=" M 43.36 40.52 C 46.50 38.19 49.94 43.57 46.63 45.49 C 43.48 47.80 40.08 42.44 43.36 40.52 Z" />
<path fill="#000000" opacity="1.00" d=" M 9.97 50.00 C 24.66 50.00 39.34 50.00 54.03 50.00 C 53.71 51.90 54.77 54.55 52.88 55.82 C 50.62 56.15 48.32 55.99 46.04 56.00 C 45.84 55.49 45.43 54.47 45.23 53.97 C 36.39 54.17 27.51 53.73 18.69 54.18 C 18.49 54.63 18.09 55.53 17.89 55.98 C 15.64 56.00 13.38 56.14 11.15 55.83 C 9.20 54.60 10.30 51.90 9.97 50.00 Z" />
</g>
</svg>
