<?xml version="1.0" encoding="UTF-8" ?>
<!DOCTYPE svg PUBLIC "-//W3C//DTD SVG 1.1//EN" "http://www.w3.org/Graphics/SVG/1.1/DTD/svg11.dtd">
<svg width="64pt" height="64pt" viewBox="0 0 64 64" version="1.1" xmlns="http://www.w3.org/2000/svg">
<g id="#ffffffff">
<path fill="#ffffff" opacity="1.00" d=" M 0.00 0.00 L 64.00 0.00 L 64.00 64.00 L 0.00 64.00 L 0.00 0.00 M 26.46 6.60 C 17.78 8.43 10.32 15.05 7.46 23.44 C 4.32 32.18 6.39 42.51 12.67 49.34 C 18.90 56.42 29.15 59.59 38.29 57.21 C 47.44 55.00 55.00 47.43 57.21 38.28 C 59.51 29.40 56.61 19.45 49.91 13.19 C 43.82 7.28 34.73 4.75 26.46 6.60 Z" />
<path fill="#ffffff" opacity="1.00" d=" M 15.02 18.01 C 18.65 13.44 24.19 10.84 29.88 9.97 C 29.92 10.48 30.00 11.49 30.04 12.00 C 31.34 12.00 32.65 12.00 33.96 12.00 C 34.00 11.50 34.09 10.49 34.14 9.99 C 40.27 10.92 46.21 13.95 49.82 19.11 C 55.50 26.72 55.33 38.01 49.40 45.43 C 45.78 50.30 40.03 53.09 34.13 54.00 C 34.09 53.50 34.00 52.50 33.96 52.00 C 32.65 52.00 31.35 52.00 30.04 52.00 C 30.00 52.50 29.91 53.50 29.87 54.00 C 23.70 53.08 17.75 50.01 14.13 44.82 C 8.34 37.03 8.72 25.40 15.02 18.01 M 27.39 14.60 C 18.97 16.68 12.92 25.49 14.13 34.11 C 15.01 43.29 23.87 50.73 33.07 49.95 C 43.03 49.62 51.31 39.80 49.86 29.91 C 48.94 19.41 37.54 11.56 27.39 14.60 Z" />
<path fill="#ffffff" opacity="1.00" d=" M 22.02 21.90 C 27.50 16.86 36.38 16.83 41.85 21.90 C 39.23 22.00 36.62 22.01 34.00 22.01 C 34.00 23.34 34.00 24.67 34.00 26.00 C 37.58 26.00 41.16 25.99 44.73 26.03 C 45.13 27.34 45.51 28.66 45.88 29.98 C 41.92 30.01 37.96 30.00 34.00 30.00 C 34.00 31.33 34.00 32.67 34.00 34.00 C 37.96 34.00 41.92 33.99 45.88 34.02 C 45.51 35.34 45.13 36.66 44.73 37.97 C 41.15 38.01 37.58 38.00 34.00 38.00 C 34.00 39.33 34.00 40.66 34.00 41.99 C 36.62 41.99 39.23 41.99 41.85 42.10 C 36.38 47.17 27.51 47.14 22.03 42.10 C 24.68 41.99 27.34 41.99 30.00 41.99 C 30.00 40.66 30.00 39.33 30.00 38.00 C 26.42 38.00 22.84 38.01 19.27 37.97 C 18.87 36.66 18.49 35.34 18.12 34.03 C 22.08 33.99 26.04 34.00 30.00 34.00 C 30.00 32.67 30.00 31.33 30.00 30.00 C 26.04 30.00 22.08 30.01 18.12 29.98 C 18.49 28.66 18.87 27.35 19.26 26.04 C 22.84 25.99 26.42 26.00 30.00 26.00 C 30.00 24.67 30.00 23.34 30.00 22.01 C 27.34 22.01 24.68 22.01 22.02 21.90 Z" />
</g>
<g id="#000000ff">
<path fill="#000000" opacity="1.00" d=" M 26.46 6.60 C 34.73 4.75 43.82 7.28 49.91 13.19 C 56.61 19.45 59.51 29.40 57.21 38.28 C 55.00 47.43 47.44 55.00 38.29 57.21 C 29.15 59.59 18.90 56.42 12.67 49.34 C 6.39 42.51 4.32 32.18 7.46 23.44 C 10.32 15.05 17.78 8.43 26.46 6.60 M 15.02 18.01 C 8.72 25.40 8.34 37.03 14.13 44.82 C 17.75 50.01 23.70 53.08 29.87 54.00 C 29.91 53.50 30.00 52.50 30.04 52.00 C 31.35 52.00 32.65 52.00 33.96 52.00 C 34.00 52.50 34.09 53.50 34.13 54.00 C 40.03 53.09 45.78 50.30 49.40 45.43 C 55.33 38.01 55.50 26.72 49.82 19.11 C 46.21 13.95 40.27 10.92 34.14 9.99 C 34.09 10.49 34.00 11.50 33.96 12.00 C 32.65 12.00 31.34 12.00 30.04 12.00 C 30.00 11.49 29.92 10.48 29.88 9.97 C 24.19 10.84 18.65 13.44 15.02 18.01 Z" />
<path fill="#000000" opacity="1.00" d=" M 27.39 14.60 C 37.54 11.56 48.94 19.41 49.86 29.91 C 51.31 39.80 43.03 49.62 33.07 49.95 C 23.87 50.73 15.01 43.29 14.13 34.11 C 12.92 25.49 18.97 16.68 27.39 14.60 M 22.02 21.90 C 24.68 22.01 27.34 22.01 30.00 22.01 C 30.00 23.34 30.00 24.67 30.00 26.00 C 26.42 26.00 22.84 25.99 19.26 26.04 C 18.87 27.35 18.49 28.66 18.12 29.98 C 22.08 30.01 26.04 30.00 30.00 30.00 C 30.00 31.33 30.00 32.67 30.00 34.00 C 26.04 34.00 22.08 33.99 18.12 34.03 C 18.49 35.34 18.87 36.66 19.27 37.97 C 22.84 38.01 26.42 38.00 30.00 38.00 C 30.00 39.33 30.00 40.66 30.00 41.99 C 27.34 41.99 24.68 41.99 22.03 42.10 C 27.51 47.14 36.38 47.17 41.85 42.10 C 39.23 41.99 36.62 41.99 34.00 41.99 C 34.00 40.66 34.00 39.33 34.00 38.00 C 37.58 38.00 41.15 38.01 44.73 37.97 C 45.13 36.66 45.51 35.34 45.88 34.02 C 41.92 33.99 37.96 34.00 34.00 34.00 C 34.00 32.67 34.00 31.33 34.00 30.00 C 37.96 30.00 41.92 30.01 45.88 29.98 C 45.51 28.66 45.13 27.34 44.73 26.03 C 41.16 25.99 37.58 26.00 34.00 26.00 C 34.00 24.67 34.00 23.34 34.00 22.01 C 36.62 22.01 39.23 22.00 41.85 21.90 C 36.38 16.83 27.50 16.86 22.02 21.90 Z" />
</g>
</svg>
