<?xml version="1.0" encoding="UTF-8" ?>
<!DOCTYPE svg PUBLIC "-//W3C//DTD SVG 1.1//EN" "http://www.w3.org/Graphics/SVG/1.1/DTD/svg11.dtd">
<svg width="64pt" height="64pt" viewBox="0 0 64 64" version="1.1" xmlns="http://www.w3.org/2000/svg">
<g id="#ffffffff">
<path fill="#ffffff" opacity="1.00" d=" M 0.00 0.00 L 64.00 0.00 L 64.00 64.00 L 0.00 64.00 L 0.00 0.00 M 26.47 8.65 C 19.13 10.36 12.76 15.74 9.88 22.71 C 6.91 29.67 7.53 38.02 11.50 44.45 C 15.20 50.58 21.77 54.89 28.89 55.78 C 35.90 56.73 43.29 54.38 48.41 49.47 C 53.45 44.77 56.32 37.82 55.95 30.93 C 55.70 24.06 52.26 17.44 46.88 13.19 C 41.25 8.65 33.49 6.97 26.47 8.65 Z" />
<path fill="#ffffff" opacity="1.00" d=" M 29.18 12.20 C 35.32 11.31 41.83 13.43 46.17 17.89 C 51.36 22.98 53.30 31.03 51.08 37.95 C 49.12 44.52 43.47 49.81 36.81 51.41 C 29.91 53.17 22.18 50.90 17.37 45.64 C 12.30 40.32 10.63 32.08 13.20 25.20 C 15.57 18.34 21.99 13.14 29.18 12.20 M 21.41 26.60 C 17.23 28.38 16.87 34.87 20.85 37.08 C 24.58 39.67 30.18 36.47 29.99 31.99 C 30.13 27.78 25.16 24.58 21.41 26.60 M 37.42 26.60 C 33.22 28.37 32.87 34.89 36.87 37.09 C 40.60 39.66 46.16 36.47 45.99 32.00 C 46.14 27.79 41.17 24.58 37.42 26.60 Z" />
<path fill="#ffffff" opacity="1.00" d=" M 23.21 30.16 C 25.58 29.01 27.25 33.05 24.72 33.86 C 22.42 34.92 20.80 31.03 23.21 30.16 Z" />
<path fill="#ffffff" opacity="1.00" d=" M 39.12 30.10 C 41.55 29.15 43.14 32.66 40.88 33.88 C 38.47 34.89 36.85 31.31 39.12 30.10 Z" />
</g>
<g id="#000000ff">
<path fill="#000000" opacity="1.00" d=" M 26.47 8.65 C 33.49 6.97 41.25 8.65 46.88 13.19 C 52.26 17.44 55.70 24.06 55.95 30.93 C 56.32 37.82 53.45 44.77 48.41 49.47 C 43.29 54.38 35.90 56.73 28.89 55.78 C 21.77 54.89 15.20 50.58 11.50 44.45 C 7.53 38.02 6.91 29.67 9.88 22.71 C 12.76 15.74 19.13 10.36 26.47 8.65 M 29.18 12.20 C 21.99 13.14 15.57 18.34 13.20 25.20 C 10.63 32.08 12.30 40.32 17.37 45.64 C 22.18 50.90 29.91 53.17 36.81 51.41 C 43.47 49.81 49.12 44.52 51.08 37.95 C 53.30 31.03 51.36 22.98 46.17 17.89 C 41.83 13.43 35.32 11.31 29.18 12.20 Z" />
<path fill="#000000" opacity="1.00" d=" M 21.41 26.60 C 25.16 24.58 30.13 27.78 29.99 31.99 C 30.18 36.47 24.58 39.67 20.85 37.08 C 16.87 34.87 17.23 28.38 21.41 26.60 M 23.21 30.16 C 20.80 31.03 22.42 34.92 24.72 33.86 C 27.25 33.05 25.58 29.01 23.21 30.16 Z" />
<path fill="#000000" opacity="1.00" d=" M 37.42 26.60 C 41.17 24.58 46.14 27.79 45.99 32.00 C 46.16 36.47 40.60 39.66 36.87 37.09 C 32.87 34.89 33.22 28.37 37.42 26.60 M 39.12 30.10 C 36.85 31.31 38.47 34.89 40.88 33.88 C 43.14 32.66 41.55 29.15 39.12 30.10 Z" />
</g>
</svg>
