<?xml version="1.0" encoding="UTF-8" ?>
<!DOCTYPE svg PUBLIC "-//W3C//DTD SVG 1.1//EN" "http://www.w3.org/Graphics/SVG/1.1/DTD/svg11.dtd">
<svg width="64pt" height="64pt" viewBox="0 0 64 64" version="1.1" xmlns="http://www.w3.org/2000/svg">
<g id="#ffffffff">
<path fill="#ffffff" opacity="1.00" d=" M 0.00 0.00 L 64.00 0.00 L 64.00 64.00 L 0.00 64.00 L 0.00 0.00 M 27.67 6.83 C 23.20 8.54 19.99 13.08 20.05 17.90 C 19.91 31.26 20.05 44.63 20.00 58.00 C 28.00 58.01 36.00 58.01 44.00 58.00 C 43.97 44.74 44.06 31.48 43.95 18.22 C 40.82 16.48 38.41 13.77 37.67 10.20 C 39.12 10.10 40.57 10.00 42.02 9.91 C 42.01 8.61 42.00 7.32 42.00 6.02 C 37.23 6.14 32.30 5.39 27.67 6.83 Z" />
<path fill="#ffffff" opacity="1.00" d=" M 26.84 11.87 C 28.68 10.20 31.30 10.19 33.61 9.85 C 34.48 12.68 35.63 15.40 37.04 18.00 C 32.59 18.01 28.13 18.05 23.67 17.88 C 24.48 15.78 25.01 13.36 26.84 11.87 Z" />
<path fill="#ffffff" opacity="1.00" d=" M 24.00 22.01 C 29.33 21.99 34.66 21.99 40.00 22.01 C 40.00 32.67 40.01 43.33 39.99 54.00 C 34.66 54.01 29.33 54.01 24.00 53.99 C 24.00 43.33 24.00 32.67 24.00 22.01 Z" />
</g>
<g id="#000000ff">
<path fill="#000000" opacity="1.00" d=" M 27.67 6.83 C 32.30 5.39 37.23 6.14 42.00 6.02 C 42.00 7.32 42.01 8.61 42.02 9.91 C 40.57 10.00 39.12 10.10 37.67 10.20 C 38.41 13.77 40.82 16.48 43.95 18.22 C 44.06 31.48 43.97 44.74 44.00 58.00 C 36.00 58.01 28.00 58.01 20.00 58.00 C 20.05 44.63 19.91 31.26 20.05 17.90 C 19.99 13.08 23.20 8.54 27.67 6.83 M 26.84 11.87 C 25.01 13.36 24.48 15.78 23.67 17.88 C 28.13 18.05 32.59 18.01 37.04 18.00 C 35.63 15.40 34.48 12.68 33.61 9.85 C 31.30 10.19 28.68 10.20 26.84 11.87 M 24.00 22.01 C 24.00 32.67 24.00 43.33 24.00 53.99 C 29.33 54.01 34.66 54.01 39.99 54.00 C 40.01 43.33 40.00 32.67 40.00 22.01 C 34.66 21.99 29.33 21.99 24.00 22.01 Z" />
</g>
</svg>
