<?xml version="1.0" encoding="UTF-8" ?>
<!DOCTYPE svg PUBLIC "-//W3C//DTD SVG 1.1//EN" "http://www.w3.org/Graphics/SVG/1.1/DTD/svg11.dtd">
<svg width="64pt" height="64pt" viewBox="0 0 64 64" version="1.1" xmlns="http://www.w3.org/2000/svg">
<g id="#ffffffff">
<path fill="#ffffff" opacity="1.00" d=" M 0.00 0.00 L 64.00 0.00 L 64.00 64.00 L 0.00 64.00 L 0.00 0.00 M 19.90 15.26 C 17.34 14.69 14.78 14.13 12.22 13.56 C 10.75 29.04 9.27 44.52 7.80 60.00 C 23.93 60.00 40.07 60.00 56.20 60.00 C 54.72 44.52 53.25 29.04 51.78 13.56 C 49.22 14.13 46.66 14.69 44.10 15.26 C 43.46 9.23 38.29 3.88 32.04 4.03 C 25.77 3.84 20.52 9.19 19.90 15.26 Z" />
<path fill="#ffffff" opacity="1.00" d=" M 23.82 16.14 C 24.09 11.84 27.54 7.83 32.05 8.01 C 36.52 7.89 39.87 11.89 40.19 16.13 C 37.46 16.67 34.79 17.55 32.01 17.79 C 29.22 17.56 26.55 16.68 23.82 16.14 Z" />
<path fill="#ffffff" opacity="1.00" d=" M 12.20 56.00 C 13.39 43.49 14.58 30.97 15.78 18.45 C 17.18 18.76 18.59 19.06 19.99 19.37 C 19.99 22.25 20.01 25.12 20.00 28.00 C 21.33 28.00 22.67 28.00 24.00 28.00 C 24.00 25.42 24.00 22.84 24.00 20.27 C 26.68 20.79 29.31 21.66 32.04 21.90 C 34.75 21.67 37.35 20.84 39.99 20.25 C 40.00 22.83 40.00 25.41 40.00 28.00 C 41.33 28.00 42.67 28.00 44.00 28.00 C 43.99 25.12 44.01 22.25 44.01 19.37 C 45.41 19.06 46.82 18.76 48.23 18.45 C 49.41 30.97 50.61 43.49 51.80 56.00 C 38.60 56.00 25.40 56.00 12.20 56.00 M 22.85 41.21 C 25.67 44.37 29.02 47.00 32.00 50.00 C 35.01 47.02 38.37 44.38 41.17 41.19 C 43.25 38.60 41.18 34.56 38.06 34.11 C 35.66 33.42 33.70 35.18 32.00 36.57 C 30.30 35.19 28.35 33.45 25.95 34.10 C 22.81 34.54 20.73 38.62 22.85 41.21 Z" />
</g>
<g id="#000000ff">
<path fill="#000000" opacity="1.00" d=" M 19.90 15.26 C 20.52 9.19 25.77 3.84 32.04 4.03 C 38.29 3.88 43.46 9.23 44.10 15.26 C 46.66 14.69 49.22 14.13 51.78 13.56 C 53.25 29.04 54.72 44.52 56.20 60.00 C 40.07 60.00 23.93 60.00 7.80 60.00 C 9.27 44.52 10.75 29.04 12.22 13.56 C 14.78 14.13 17.34 14.69 19.90 15.26 M 23.82 16.14 C 26.55 16.68 29.22 17.56 32.01 17.79 C 34.79 17.55 37.46 16.67 40.19 16.13 C 39.87 11.89 36.52 7.89 32.05 8.01 C 27.54 7.83 24.09 11.84 23.82 16.14 M 12.20 56.00 C 25.40 56.00 38.60 56.00 51.80 56.00 C 50.61 43.49 49.41 30.97 48.23 18.45 C 46.82 18.76 45.41 19.06 44.01 19.37 C 44.01 22.25 43.99 25.12 44.00 28.00 C 42.67 28.00 41.33 28.00 40.00 28.00 C 40.00 25.41 40.00 22.83 39.99 20.25 C 37.35 20.84 34.75 21.67 32.04 21.90 C 29.31 21.66 26.68 20.79 24.00 20.27 C 24.00 22.84 24.00 25.42 24.00 28.00 C 22.67 28.00 21.33 28.00 20.00 28.00 C 20.01 25.12 19.99 22.25 19.99 19.37 C 18.59 19.06 17.18 18.76 15.78 18.45 C 14.58 30.97 13.39 43.49 12.20 56.00 Z" />
<path fill="#000000" opacity="1.00" d=" M 22.85 41.21 C 20.73 38.62 22.81 34.54 25.95 34.10 C 28.35 33.45 30.30 35.19 32.00 36.57 C 33.70 35.18 35.66 33.42 38.06 34.11 C 41.18 34.56 43.25 38.60 41.17 41.19 C 38.37 44.38 35.01 47.02 32.00 50.00 C 29.02 47.00 25.67 44.37 22.85 41.21 Z" />
</g>
</svg>
