<?xml version="1.0" encoding="UTF-8" ?>
<!DOCTYPE svg PUBLIC "-//W3C//DTD SVG 1.1//EN" "http://www.w3.org/Graphics/SVG/1.1/DTD/svg11.dtd">
<svg width="64pt" height="64pt" viewBox="0 0 64 64" version="1.1" xmlns="http://www.w3.org/2000/svg">
<g id="#ffffffff">
<path fill="#ffffff" opacity="1.00" d=" M 0.00 0.00 L 64.00 0.00 L 64.00 64.00 L 0.00 64.00 L 0.00 0.00 M 26.57 8.00 C 21.04 7.99 15.52 8.01 10.00 8.00 C 10.00 24.67 10.00 41.33 10.00 58.00 C 24.67 58.00 39.33 58.00 54.00 58.00 C 54.00 41.33 54.00 24.67 54.00 8.00 C 48.48 8.00 42.96 7.99 37.43 8.00 C 36.08 6.20 34.54 3.90 32.00 3.97 C 29.45 3.90 27.91 6.20 26.57 8.00 Z" />
<path fill="#ffffff" opacity="1.00" d=" M 30.53 8.21 C 31.51 8.19 32.49 8.19 33.47 8.22 C 33.74 9.48 34.00 10.74 34.23 12.01 C 36.15 12.01 38.08 12.01 40.00 12.01 C 40.00 13.34 40.00 14.66 40.00 15.99 C 34.67 16.01 29.33 16.01 24.00 15.99 C 24.00 14.66 24.00 13.34 24.00 12.01 C 25.92 12.01 27.85 12.01 29.77 12.01 C 30.00 10.74 30.25 9.47 30.53 8.21 Z" />
<path fill="#ffffff" opacity="1.00" d=" M 14.01 12.00 C 16.00 12.00 17.99 12.00 19.99 12.00 C 20.01 14.66 19.99 17.33 20.01 20.00 C 28.00 20.00 36.00 20.00 43.99 20.00 C 44.01 17.33 43.99 14.66 44.01 12.00 C 46.01 12.00 48.00 12.00 49.99 12.00 C 50.01 26.00 50.00 40.00 50.00 54.00 C 38.00 54.00 26.00 54.00 14.00 54.00 C 14.00 40.00 13.99 26.00 14.01 12.00 M 20.00 28.00 C 20.00 29.33 20.00 30.67 20.00 32.00 C 21.33 32.00 22.67 32.00 24.00 32.00 C 24.00 30.67 24.00 29.33 24.00 28.00 C 22.67 28.00 21.33 28.00 20.00 28.00 M 28.00 28.01 C 28.00 29.34 28.00 30.66 28.00 31.99 C 33.33 32.01 38.67 32.01 44.00 31.99 C 44.00 30.66 44.00 29.34 44.00 28.01 C 38.67 27.99 33.33 27.99 28.00 28.01 M 20.00 36.00 C 20.00 37.33 20.00 38.67 20.00 40.00 C 21.33 40.00 22.67 40.00 24.00 40.00 C 24.00 38.67 24.00 37.33 24.00 36.00 C 22.67 36.00 21.33 36.00 20.00 36.00 M 28.00 36.01 C 28.00 37.34 28.00 38.66 28.00 39.99 C 33.33 40.01 38.67 40.01 44.00 39.99 C 44.00 38.66 44.00 37.34 44.00 36.01 C 38.67 35.99 33.33 35.99 28.00 36.01 M 20.00 44.00 C 20.00 45.33 20.00 46.67 20.00 48.00 C 21.33 48.00 22.67 48.00 24.00 48.00 C 24.00 46.67 24.00 45.33 24.00 44.00 C 22.67 44.00 21.33 44.00 20.00 44.00 M 28.00 44.01 C 28.00 45.34 28.00 46.66 28.00 47.99 C 33.33 48.01 38.67 48.01 44.00 47.99 C 44.00 46.66 44.00 45.34 44.00 44.01 C 38.67 43.99 33.33 43.99 28.00 44.01 Z" />
</g>
<g id="#000000ff">
<path fill="#000000" opacity="1.00" d=" M 26.57 8.00 C 27.91 6.20 29.45 3.90 32.00 3.97 C 34.54 3.90 36.08 6.20 37.43 8.00 C 42.96 7.99 48.48 8.00 54.00 8.00 C 54.00 24.67 54.00 41.33 54.00 58.00 C 39.33 58.00 24.67 58.00 10.00 58.00 C 10.00 41.33 10.00 24.67 10.00 8.00 C 15.52 8.01 21.04 7.99 26.57 8.00 M 30.53 8.21 C 30.25 9.47 30.00 10.74 29.77 12.01 C 27.85 12.01 25.92 12.01 24.00 12.01 C 24.00 13.34 24.00 14.66 24.00 15.99 C 29.33 16.01 34.67 16.01 40.00 15.99 C 40.00 14.66 40.00 13.34 40.00 12.01 C 38.08 12.01 36.15 12.01 34.23 12.01 C 34.00 10.74 33.74 9.48 33.47 8.22 C 32.49 8.19 31.51 8.19 30.53 8.21 M 14.01 12.00 C 13.99 26.00 14.00 40.00 14.00 54.00 C 26.00 54.00 38.00 54.00 50.00 54.00 C 50.00 40.00 50.01 26.00 49.99 12.00 C 48.00 12.00 46.01 12.00 44.01 12.00 C 43.99 14.66 44.01 17.33 43.99 20.00 C 36.00 20.00 28.00 20.00 20.01 20.00 C 19.99 17.33 20.01 14.66 19.99 12.00 C 17.99 12.00 16.00 12.00 14.01 12.00 Z" />
<path fill="#000000" opacity="1.00" d=" M 20.00 28.00 C 21.33 28.00 22.67 28.00 24.00 28.00 C 24.00 29.33 24.00 30.67 24.00 32.00 C 22.67 32.00 21.33 32.00 20.00 32.00 C 20.00 30.67 20.00 29.33 20.00 28.00 Z" />
<path fill="#000000" opacity="1.00" d=" M 28.00 28.01 C 33.33 27.99 38.67 27.99 44.00 28.01 C 44.00 29.34 44.00 30.66 44.00 31.99 C 38.67 32.01 33.33 32.01 28.00 31.99 C 28.00 30.66 28.00 29.34 28.00 28.01 Z" />
<path fill="#000000" opacity="1.00" d=" M 20.00 36.00 C 21.33 36.00 22.67 36.00 24.00 36.00 C 24.00 37.33 24.00 38.67 24.00 40.00 C 22.67 40.00 21.33 40.00 20.00 40.00 C 20.00 38.67 20.00 37.33 20.00 36.00 Z" />
<path fill="#000000" opacity="1.00" d=" M 28.00 36.01 C 33.33 35.99 38.67 35.99 44.00 36.01 C 44.00 37.34 44.00 38.66 44.00 39.99 C 38.67 40.01 33.33 40.01 28.00 39.99 C 28.00 38.66 28.00 37.34 28.00 36.01 Z" />
<path fill="#000000" opacity="1.00" d=" M 20.00 44.00 C 21.33 44.00 22.67 44.00 24.00 44.00 C 24.00 45.33 24.00 46.67 24.00 48.00 C 22.67 48.00 21.33 48.00 20.00 48.00 C 20.00 46.67 20.00 45.33 20.00 44.00 Z" />
<path fill="#000000" opacity="1.00" d=" M 28.00 44.01 C 33.33 43.99 38.67 43.99 44.00 44.01 C 44.00 45.34 44.00 46.66 44.00 47.99 C 38.67 48.01 33.33 48.01 28.00 47.99 C 28.00 46.66 28.00 45.34 28.00 44.01 Z" />
</g>
</svg>
