<?xml version="1.0" encoding="UTF-8" ?>
<!DOCTYPE svg PUBLIC "-//W3C//DTD SVG 1.1//EN" "http://www.w3.org/Graphics/SVG/1.1/DTD/svg11.dtd">
<svg width="64pt" height="64pt" viewBox="0 0 64 64" version="1.1" xmlns="http://www.w3.org/2000/svg">
<g id="#ffffffff">
<path fill="#ffffff" opacity="1.00" d=" M 0.00 0.00 L 64.00 0.00 L 64.00 64.00 L 0.00 64.00 L 0.00 0.00 M 14.74 12.69 C 10.38 15.21 9.17 20.74 10.66 25.30 C 8.90 28.25 7.98 31.59 7.90 35.03 C 9.83 36.76 11.70 38.55 13.55 40.37 C 15.40 39.66 17.07 38.58 18.54 37.26 C 18.93 40.15 19.11 43.10 18.32 45.95 C 17.13 50.05 20.02 53.79 23.18 56.03 C 29.06 55.98 34.95 55.99 40.84 56.02 C 43.97 53.77 46.86 50.06 45.69 45.97 C 44.89 43.12 45.06 40.18 45.46 37.29 C 46.94 38.54 48.55 39.61 50.30 40.44 C 52.23 38.62 54.17 36.82 56.11 35.03 C 56.02 31.53 55.02 28.16 53.36 25.10 C 54.78 20.81 53.67 15.67 49.80 13.04 C 46.38 10.08 41.26 11.06 37.91 8.03 C 33.96 7.98 30.02 7.98 26.08 8.03 C 22.93 11.00 18.09 10.05 14.74 12.69 Z" />
<path fill="#ffffff" opacity="1.00" d=" M 27.32 12.00 C 30.44 12.00 33.57 12.00 36.69 12.01 C 37.54 12.67 38.40 13.34 39.25 14.00 C 39.13 16.70 39.32 19.40 39.87 22.05 C 42.83 23.58 45.88 24.95 49.10 25.81 C 50.42 28.22 51.36 30.82 51.87 33.52 C 51.32 34.01 50.23 35.00 49.69 35.50 C 48.03 34.01 47.06 32.01 46.47 29.89 C 45.36 30.17 43.54 29.62 43.10 31.05 C 41.08 35.91 40.41 41.47 41.71 46.61 C 42.44 48.72 40.91 51.05 39.02 51.90 C 34.34 52.09 29.64 52.09 24.97 51.90 C 23.05 51.03 21.54 48.68 22.30 46.55 C 23.57 41.45 22.91 35.93 20.92 31.10 C 20.49 29.62 18.66 30.15 17.53 29.90 C 16.92 32.02 15.98 34.04 14.26 35.49 C 13.73 35.00 12.66 34.00 12.13 33.50 C 12.74 30.88 13.38 28.15 15.03 25.95 C 17.97 24.52 21.19 23.65 24.08 22.07 C 24.62 19.41 24.86 16.71 24.75 14.00 C 25.61 13.34 26.46 12.67 27.32 12.00 Z" />
</g>
<g id="#000000ff">
<path fill="#000000" opacity="1.00" d=" M 14.74 12.69 C 18.09 10.05 22.93 11.00 26.08 8.03 C 30.02 7.98 33.96 7.98 37.91 8.03 C 41.26 11.06 46.38 10.08 49.80 13.04 C 53.67 15.67 54.78 20.81 53.36 25.10 C 55.02 28.16 56.02 31.53 56.11 35.03 C 54.17 36.82 52.23 38.62 50.30 40.44 C 48.55 39.61 46.94 38.54 45.46 37.29 C 45.06 40.18 44.89 43.12 45.69 45.97 C 46.86 50.06 43.97 53.77 40.84 56.02 C 34.95 55.99 29.06 55.98 23.18 56.03 C 20.02 53.79 17.13 50.05 18.32 45.95 C 19.11 43.10 18.93 40.15 18.54 37.26 C 17.07 38.58 15.40 39.66 13.55 40.37 C 11.70 38.55 9.83 36.76 7.90 35.03 C 7.98 31.59 8.90 28.25 10.66 25.30 C 9.17 20.74 10.38 15.21 14.74 12.69 M 27.32 12.00 C 26.46 12.67 25.61 13.34 24.75 14.00 C 24.86 16.71 24.62 19.41 24.08 22.07 C 21.19 23.65 17.97 24.52 15.03 25.95 C 13.38 28.15 12.74 30.88 12.13 33.50 C 12.66 34.00 13.73 35.00 14.26 35.49 C 15.98 34.04 16.92 32.02 17.53 29.90 C 18.66 30.15 20.49 29.62 20.92 31.10 C 22.91 35.93 23.57 41.45 22.30 46.55 C 21.54 48.68 23.05 51.03 24.97 51.90 C 29.64 52.09 34.34 52.09 39.02 51.90 C 40.91 51.05 42.44 48.72 41.71 46.61 C 40.41 41.47 41.08 35.91 43.10 31.05 C 43.54 29.62 45.36 30.17 46.47 29.89 C 47.06 32.01 48.03 34.01 49.69 35.50 C 50.23 35.00 51.32 34.01 51.87 33.52 C 51.36 30.82 50.42 28.22 49.10 25.81 C 45.88 24.95 42.83 23.58 39.87 22.05 C 39.32 19.40 39.13 16.70 39.25 14.00 C 38.40 13.34 37.54 12.67 36.69 12.01 C 33.57 12.00 30.44 12.00 27.32 12.00 Z" />
</g>
</svg>
