<?xml version="1.0" encoding="UTF-8" ?>
<!DOCTYPE svg PUBLIC "-//W3C//DTD SVG 1.1//EN" "http://www.w3.org/Graphics/SVG/1.1/DTD/svg11.dtd">
<svg width="64pt" height="64pt" viewBox="0 0 64 64" version="1.1" xmlns="http://www.w3.org/2000/svg">
<g id="#ffffffff">
<path fill="#ffffff" opacity="1.00" d=" M 0.00 0.00 L 64.00 0.00 L 64.00 64.00 L 0.00 64.00 L 0.00 0.00 M 10.00 10.00 C 10.00 24.67 10.00 39.33 10.00 54.00 C 11.33 54.00 12.67 54.00 14.00 54.00 C 14.00 47.33 14.00 40.67 14.00 34.00 C 20.19 34.01 26.39 33.98 32.59 34.02 C 34.69 39.72 36.11 46.09 40.48 50.56 C 43.78 53.66 48.95 51.18 50.73 47.62 C 53.49 42.21 53.96 35.97 54.04 30.00 C 47.82 30.00 41.59 30.01 35.37 29.99 C 33.33 24.50 31.86 18.51 28.00 13.95 C 25.57 10.92 20.86 11.80 18.63 14.59 C 15.02 18.96 14.65 24.96 14.48 30.38 C 13.80 23.61 14.03 16.80 14.00 10.00 C 12.67 10.00 11.33 10.00 10.00 10.00 Z" />
<path fill="#ffffff" opacity="1.00" d=" M 21.46 17.47 C 22.22 16.25 24.25 15.24 25.22 16.82 C 28.20 20.68 29.45 25.52 31.19 30.00 C 26.79 30.00 22.40 30.01 18.00 29.98 C 18.59 25.72 18.94 21.12 21.46 17.47 Z" />
<path fill="#ffffff" opacity="1.00" d=" M 36.68 34.01 C 41.12 34.00 45.55 33.99 49.99 34.01 C 49.47 38.30 49.12 42.92 46.57 46.57 C 45.81 47.76 43.77 48.72 42.78 47.24 C 39.66 43.44 38.43 38.52 36.68 34.01 Z" />
</g>
<g id="#000000ff">
<path fill="#000000" opacity="1.00" d=" M 10.00 10.00 C 11.33 10.00 12.67 10.00 14.00 10.00 C 14.03 16.80 13.80 23.61 14.48 30.38 C 14.65 24.96 15.02 18.96 18.63 14.59 C 20.86 11.80 25.57 10.92 28.00 13.95 C 31.86 18.51 33.33 24.50 35.37 29.99 C 41.59 30.01 47.82 30.00 54.04 30.00 C 53.96 35.97 53.49 42.21 50.73 47.62 C 48.95 51.18 43.78 53.66 40.48 50.56 C 36.11 46.09 34.69 39.72 32.59 34.02 C 26.39 33.98 20.19 34.01 14.00 34.00 C 14.00 40.67 14.00 47.33 14.00 54.00 C 12.67 54.00 11.33 54.00 10.00 54.00 C 10.00 39.33 10.00 24.67 10.00 10.00 M 21.46 17.47 C 18.94 21.12 18.59 25.72 18.00 29.98 C 22.40 30.01 26.79 30.00 31.19 30.00 C 29.45 25.52 28.20 20.68 25.22 16.82 C 24.25 15.24 22.22 16.25 21.46 17.47 M 36.68 34.01 C 38.43 38.52 39.66 43.44 42.78 47.24 C 43.77 48.72 45.81 47.76 46.57 46.57 C 49.12 42.92 49.47 38.30 49.99 34.01 C 45.55 33.99 41.12 34.00 36.68 34.01 Z" />
</g>
</svg>
