<?xml version="1.0" encoding="UTF-8" ?>
<!DOCTYPE svg PUBLIC "-//W3C//DTD SVG 1.1//EN" "http://www.w3.org/Graphics/SVG/1.1/DTD/svg11.dtd">
<svg width="64pt" height="64pt" viewBox="0 0 64 64" version="1.1" xmlns="http://www.w3.org/2000/svg">
<g id="#ffffffff">
<path fill="#ffffff" opacity="1.00" d=" M 0.00 0.00 L 64.00 0.00 L 64.00 64.00 L 0.00 64.00 L 0.00 0.00 M 7.99 7.96 C 10.47 12.23 12.98 16.47 15.47 20.72 C 13.65 20.48 11.83 20.24 10.01 20.00 C 12.15 22.70 14.32 25.38 16.45 28.09 C 15.92 30.67 15.92 33.33 16.45 35.91 C 14.32 38.62 12.16 41.31 10.01 44.00 C 11.83 43.76 13.65 43.52 15.47 43.28 C 12.98 47.52 10.50 51.75 8.01 55.99 C 12.26 53.54 16.49 51.04 20.72 48.54 C 20.48 50.36 20.24 52.17 20.00 53.99 C 22.70 51.85 25.37 49.67 28.09 47.55 C 30.67 48.08 33.32 48.07 35.91 47.55 C 38.66 49.63 41.32 51.83 44.00 54.00 C 43.76 52.18 43.52 50.36 43.28 48.54 C 47.55 50.97 51.75 53.51 55.98 55.99 C 53.53 51.74 51.01 47.52 48.54 43.28 C 50.35 43.52 52.17 43.75 53.99 43.99 C 51.85 41.29 49.67 38.62 47.55 35.91 C 48.08 33.32 48.08 30.67 47.55 28.09 C 49.67 25.38 51.85 22.71 53.99 20.01 C 52.17 20.24 50.35 20.48 48.54 20.72 C 51.01 16.48 53.52 12.26 55.98 8.01 C 51.76 10.52 47.54 13.02 43.28 15.46 C 43.52 13.64 43.75 11.83 43.99 10.01 C 41.28 12.13 38.65 14.35 35.91 16.45 C 33.32 15.92 30.67 15.92 28.08 16.45 C 25.38 14.30 22.72 12.10 20.00 9.97 C 20.24 11.80 20.48 13.63 20.72 15.46 C 16.49 12.95 12.23 10.47 7.99 7.96 Z" />
<path fill="#ffffff" opacity="1.00" d=" M 28.44 20.57 C 35.42 18.11 43.50 23.61 43.92 30.95 C 44.85 38.49 37.28 45.42 29.85 43.77 C 23.28 42.71 18.57 35.57 20.38 29.12 C 21.34 25.12 24.51 21.77 28.44 20.57 M 29.35 24.47 C 23.63 26.17 22.15 34.54 26.89 38.13 C 31.08 41.93 38.59 39.48 39.74 33.94 C 41.52 28.09 35.02 22.14 29.35 24.47 Z" />
</g>
<g id="#000000ff">
<path fill="#000000" opacity="1.00" d=" M 7.99 7.96 C 12.23 10.47 16.49 12.95 20.72 15.46 C 20.48 13.63 20.24 11.80 20.00 9.97 C 22.72 12.10 25.38 14.30 28.08 16.45 C 30.67 15.92 33.32 15.92 35.91 16.45 C 38.65 14.35 41.28 12.13 43.99 10.01 C 43.75 11.83 43.52 13.64 43.28 15.46 C 47.54 13.02 51.76 10.52 55.98 8.01 C 53.52 12.26 51.01 16.48 48.54 20.72 C 50.35 20.48 52.17 20.24 53.99 20.01 C 51.85 22.71 49.67 25.38 47.55 28.09 C 48.08 30.67 48.08 33.32 47.55 35.91 C 49.67 38.62 51.85 41.29 53.99 43.99 C 52.17 43.75 50.35 43.52 48.54 43.28 C 51.01 47.52 53.53 51.74 55.98 55.99 C 51.75 53.51 47.55 50.97 43.28 48.54 C 43.52 50.36 43.76 52.18 44.00 54.00 C 41.32 51.83 38.66 49.63 35.91 47.55 C 33.32 48.07 30.67 48.08 28.09 47.55 C 25.37 49.67 22.70 51.85 20.00 53.99 C 20.24 52.17 20.48 50.36 20.72 48.54 C 16.49 51.04 12.26 53.54 8.01 55.99 C 10.50 51.75 12.98 47.52 15.47 43.28 C 13.65 43.52 11.83 43.76 10.01 44.00 C 12.16 41.31 14.32 38.62 16.45 35.91 C 15.92 33.33 15.92 30.67 16.45 28.09 C 14.32 25.38 12.15 22.70 10.01 20.00 C 11.83 20.24 13.65 20.48 15.47 20.72 C 12.98 16.47 10.47 12.23 7.99 7.96 M 28.44 20.57 C 24.51 21.77 21.34 25.12 20.38 29.12 C 18.57 35.57 23.28 42.71 29.85 43.77 C 37.28 45.42 44.85 38.49 43.92 30.95 C 43.50 23.61 35.42 18.11 28.44 20.57 Z" />
<path fill="#000000" opacity="1.00" d=" M 29.35 24.47 C 35.02 22.14 41.52 28.09 39.74 33.94 C 38.59 39.48 31.08 41.93 26.89 38.13 C 22.15 34.54 23.63 26.17 29.35 24.47 Z" />
</g>
</svg>
