<?xml version="1.0" encoding="UTF-8" ?>
<!DOCTYPE svg PUBLIC "-//W3C//DTD SVG 1.1//EN" "http://www.w3.org/Graphics/SVG/1.1/DTD/svg11.dtd">
<svg width="64pt" height="64pt" viewBox="0 0 64 64" version="1.1" xmlns="http://www.w3.org/2000/svg">
<g id="#ffffffff">
<path fill="#ffffff" opacity="1.00" d=" M 0.00 0.00 L 64.00 0.00 L 64.00 64.00 L 0.00 64.00 L 0.00 0.00 M 45.45 8.58 C 41.20 10.35 40.85 16.98 44.94 19.14 C 48.69 21.64 54.20 18.40 53.99 13.95 C 54.10 9.78 49.18 6.60 45.45 8.58 M 13.75 11.62 C 17.91 14.65 22.07 17.69 26.24 20.70 C 23.80 23.21 23.14 27.53 25.77 30.14 C 28.35 32.37 31.41 33.97 34.18 35.94 C 31.65 37.44 29.11 38.93 26.58 40.44 C 21.38 37.48 16.20 34.47 11.00 31.50 C 10.34 32.67 9.67 33.84 9.00 35.00 C 20.43 41.55 31.86 48.09 43.27 54.66 C 46.54 56.81 50.87 56.20 53.74 53.66 C 52.75 52.73 51.71 51.86 50.65 51.01 C 49.18 52.19 47.11 52.31 45.50 51.32 C 40.48 48.49 35.53 45.56 30.51 42.74 C 33.11 40.74 37.72 39.91 38.09 36.07 C 38.16 32.70 34.41 31.57 32.20 29.86 C 30.64 28.56 27.50 27.66 28.11 25.09 C 30.44 21.81 33.61 18.40 37.93 18.27 C 37.95 21.47 37.99 24.67 38.00 27.88 C 40.92 30.11 43.84 32.34 46.77 34.58 C 47.56 33.50 48.36 32.44 49.17 31.38 C 46.75 29.60 44.38 27.75 41.99 25.93 C 41.58 22.21 43.36 16.91 39.28 14.72 C 35.67 13.33 31.95 15.74 29.14 17.82 C 24.77 14.72 20.43 11.56 16.06 8.44 C 15.30 9.50 14.53 10.56 13.75 11.62 Z" />
<path fill="#ffffff" opacity="1.00" d=" M 47.23 12.13 C 49.62 11.12 51.12 14.85 48.83 15.89 C 46.40 16.91 44.80 13.08 47.23 12.13 Z" />
</g>
<g id="#000000ff">
<path fill="#000000" opacity="1.00" d=" M 45.45 8.58 C 49.18 6.60 54.10 9.78 53.99 13.95 C 54.20 18.40 48.69 21.64 44.94 19.14 C 40.85 16.98 41.20 10.35 45.45 8.58 M 47.23 12.13 C 44.80 13.08 46.40 16.91 48.83 15.89 C 51.12 14.85 49.62 11.12 47.23 12.13 Z" />
<path fill="#000000" opacity="1.00" d=" M 13.75 11.62 C 14.53 10.56 15.30 9.50 16.06 8.44 C 20.43 11.56 24.77 14.72 29.14 17.82 C 31.95 15.74 35.67 13.33 39.28 14.72 C 43.36 16.91 41.58 22.21 41.99 25.93 C 44.38 27.75 46.75 29.60 49.17 31.38 C 48.36 32.44 47.56 33.50 46.77 34.58 C 43.84 32.34 40.92 30.11 38.00 27.88 C 37.99 24.67 37.95 21.47 37.93 18.27 C 33.61 18.40 30.44 21.81 28.11 25.09 C 27.50 27.66 30.64 28.56 32.20 29.86 C 34.41 31.57 38.16 32.70 38.09 36.07 C 37.72 39.91 33.11 40.74 30.51 42.74 C 35.53 45.56 40.48 48.49 45.50 51.32 C 47.11 52.31 49.18 52.19 50.65 51.01 C 51.71 51.86 52.75 52.73 53.74 53.66 C 50.87 56.20 46.54 56.81 43.27 54.66 C 31.86 48.09 20.43 41.55 9.00 35.00 C 9.67 33.84 10.34 32.67 11.00 31.50 C 16.20 34.47 21.38 37.48 26.58 40.44 C 29.11 38.93 31.65 37.44 34.18 35.94 C 31.41 33.97 28.35 32.37 25.77 30.14 C 23.14 27.53 23.80 23.21 26.24 20.70 C 22.07 17.69 17.91 14.65 13.75 11.62 Z" />
</g>
</svg>
