<?xml version="1.0" encoding="UTF-8" ?>
<!DOCTYPE svg PUBLIC "-//W3C//DTD SVG 1.1//EN" "http://www.w3.org/Graphics/SVG/1.1/DTD/svg11.dtd">
<svg width="64pt" height="64pt" viewBox="0 0 64 64" version="1.1" xmlns="http://www.w3.org/2000/svg">
<g id="#ffffffff">
<path fill="#ffffff" opacity="1.00" d=" M 0.00 0.00 L 64.00 0.00 L 64.00 64.00 L 0.00 64.00 L 0.00 0.00 M 6.00 11.93 C 6.05 18.64 5.91 25.36 6.05 32.08 C 6.02 35.67 8.14 39.13 11.31 40.80 C 13.95 42.30 17.09 41.93 20.01 42.04 C 19.99 44.03 19.99 46.01 20.00 48.00 C 16.00 47.99 12.00 48.01 8.00 48.00 C 8.00 49.33 8.00 50.67 8.00 52.00 C 20.37 51.94 32.74 52.12 45.10 51.92 C 51.97 51.87 57.73 45.76 57.94 39.00 C 58.57 33.74 54.34 28.46 49.02 28.12 C 43.29 27.81 37.56 28.10 31.82 27.99 C 27.56 17.94 16.94 11.21 6.00 11.93 Z" />
<path fill="#ffffff" opacity="1.00" d=" M 10.02 16.23 C 18.88 17.14 26.64 23.49 29.28 32.00 C 35.90 32.12 42.52 31.76 49.12 32.16 C 52.10 32.47 53.65 35.34 54.24 37.97 C 41.46 38.00 28.66 38.07 15.87 37.94 C 12.74 38.03 9.94 35.22 10.05 32.09 C 9.89 26.80 10.05 21.51 10.02 16.23 M 13.19 20.10 C 10.89 21.12 12.33 24.79 14.72 23.89 C 17.20 22.95 15.64 19.13 13.19 20.10 M 19.17 24.11 C 16.85 25.22 18.42 28.89 20.86 27.89 C 23.11 26.73 21.58 23.15 19.17 24.11 M 23.17 30.11 C 20.85 31.22 22.41 34.86 24.84 33.88 C 27.13 32.76 25.59 29.14 23.17 30.11 Z" />
<path fill="#ffffff" opacity="1.00" d=" M 24.00 42.00 C 28.00 42.00 32.00 42.00 36.00 42.00 C 35.99 44.00 35.99 46.00 36.00 48.00 C 32.00 48.00 28.00 48.00 24.00 48.00 C 24.00 46.00 24.01 44.00 24.00 42.00 Z" />
<path fill="#ffffff" opacity="1.00" d=" M 40.00 42.00 C 44.47 42.02 48.94 41.95 53.42 42.06 C 52.29 43.66 51.35 45.52 49.58 46.51 C 46.74 48.35 43.21 47.91 40.00 48.04 C 40.00 46.02 40.00 44.01 40.00 42.00 Z" />
</g>
<g id="#000000ff">
<path fill="#000000" opacity="1.00" d=" M 6.00 11.93 C 16.94 11.21 27.56 17.94 31.82 27.99 C 37.56 28.10 43.29 27.81 49.02 28.12 C 54.34 28.46 58.57 33.74 57.94 39.00 C 57.73 45.76 51.97 51.87 45.10 51.92 C 32.74 52.12 20.37 51.94 8.00 52.00 C 8.00 50.67 8.00 49.33 8.00 48.00 C 12.00 48.01 16.00 47.99 20.00 48.00 C 19.99 46.01 19.99 44.03 20.01 42.04 C 17.09 41.93 13.95 42.30 11.31 40.80 C 8.14 39.13 6.02 35.67 6.05 32.08 C 5.91 25.36 6.05 18.64 6.00 11.93 M 10.02 16.23 C 10.05 21.51 9.89 26.80 10.05 32.09 C 9.94 35.22 12.74 38.03 15.87 37.94 C 28.66 38.07 41.46 38.00 54.24 37.97 C 53.65 35.34 52.10 32.47 49.12 32.16 C 42.52 31.76 35.90 32.12 29.28 32.00 C 26.64 23.49 18.88 17.14 10.02 16.23 M 24.00 42.00 C 24.01 44.00 24.00 46.00 24.00 48.00 C 28.00 48.00 32.00 48.00 36.00 48.00 C 35.99 46.00 35.99 44.00 36.00 42.00 C 32.00 42.00 28.00 42.00 24.00 42.00 M 40.00 42.00 C 40.00 44.01 40.00 46.02 40.00 48.04 C 43.21 47.91 46.74 48.35 49.58 46.51 C 51.35 45.52 52.29 43.66 53.42 42.06 C 48.94 41.95 44.47 42.02 40.00 42.00 Z" />
<path fill="#000000" opacity="1.00" d=" M 13.19 20.10 C 15.64 19.13 17.20 22.95 14.72 23.89 C 12.33 24.79 10.89 21.12 13.19 20.10 Z" />
<path fill="#000000" opacity="1.00" d=" M 19.17 24.11 C 21.58 23.15 23.11 26.73 20.86 27.89 C 18.42 28.89 16.85 25.22 19.17 24.11 Z" />
<path fill="#000000" opacity="1.00" d=" M 23.17 30.11 C 25.59 29.14 27.13 32.76 24.84 33.88 C 22.41 34.86 20.85 31.22 23.17 30.11 Z" />
</g>
</svg>
