<?xml version="1.0" encoding="UTF-8" ?>
<!DOCTYPE svg PUBLIC "-//W3C//DTD SVG 1.1//EN" "http://www.w3.org/Graphics/SVG/1.1/DTD/svg11.dtd">
<svg width="64pt" height="64pt" viewBox="0 0 64 64" version="1.1" xmlns="http://www.w3.org/2000/svg">
<g id="#ffffffff">
<path fill="#ffffff" opacity="1.00" d=" M 0.00 0.00 L 64.00 0.00 L 64.00 64.00 L 0.00 64.00 L 0.00 0.00 M 10.00 8.00 C 10.00 9.33 10.00 10.67 10.00 12.00 C 15.43 12.01 20.87 11.98 26.30 12.02 C 20.88 17.40 15.43 22.75 10.00 28.13 C 10.00 29.42 10.00 30.71 10.00 32.00 C 17.33 32.00 24.67 32.00 32.00 32.00 C 32.00 30.67 32.00 29.33 32.00 28.00 C 26.61 28.00 21.21 28.00 15.82 28.00 C 21.21 22.67 26.61 17.35 32.00 12.02 C 32.00 10.68 32.00 9.34 32.00 8.00 C 24.67 8.00 17.33 8.00 10.00 8.00 M 36.00 20.00 C 36.00 21.33 36.00 22.67 36.00 24.00 C 40.10 24.00 44.20 23.99 48.30 24.02 C 44.21 28.06 40.10 32.09 36.00 36.13 C 36.00 37.42 36.00 38.71 36.00 40.00 C 42.00 40.00 48.00 40.00 54.00 40.00 C 54.00 38.67 54.00 37.33 54.00 36.00 C 49.94 36.00 45.88 36.00 41.82 36.00 C 45.89 32.02 49.93 28.01 54.00 24.02 C 54.00 22.68 54.00 21.34 54.00 20.00 C 48.00 20.00 42.00 20.00 36.00 20.00 M 16.00 38.00 C 16.00 39.33 16.00 40.67 16.00 42.00 C 19.44 42.00 22.87 41.99 26.31 42.02 C 22.87 45.38 19.45 48.76 16.00 52.11 C 16.00 53.41 16.00 54.70 16.00 56.00 C 21.33 56.00 26.67 56.00 32.00 56.00 C 32.00 54.67 32.00 53.33 32.00 52.00 C 28.61 52.00 25.21 52.00 21.82 52.00 C 25.22 48.68 28.61 45.35 32.00 42.02 C 32.00 40.68 32.00 39.34 32.00 38.00 C 26.67 38.00 21.33 38.00 16.00 38.00 Z" />
</g>
<g id="#000000ff">
<path fill="#000000" opacity="1.00" d=" M 10.00 8.00 C 17.33 8.00 24.67 8.00 32.00 8.00 C 32.00 9.34 32.00 10.68 32.00 12.02 C 26.61 17.35 21.21 22.67 15.82 28.00 C 21.21 28.00 26.61 28.00 32.00 28.00 C 32.00 29.33 32.00 30.67 32.00 32.00 C 24.67 32.00 17.33 32.00 10.00 32.00 C 10.00 30.71 10.00 29.42 10.00 28.13 C 15.43 22.75 20.88 17.40 26.30 12.02 C 20.87 11.98 15.43 12.01 10.00 12.00 C 10.00 10.67 10.00 9.33 10.00 8.00 Z" />
<path fill="#000000" opacity="1.00" d=" M 36.00 20.00 C 42.00 20.00 48.00 20.00 54.00 20.00 C 54.00 21.34 54.00 22.68 54.00 24.02 C 49.93 28.01 45.89 32.02 41.82 36.00 C 45.88 36.00 49.94 36.00 54.00 36.00 C 54.00 37.33 54.00 38.67 54.00 40.00 C 48.00 40.00 42.00 40.00 36.00 40.00 C 36.00 38.71 36.00 37.42 36.00 36.13 C 40.10 32.09 44.21 28.06 48.30 24.02 C 44.20 23.99 40.10 24.00 36.00 24.00 C 36.00 22.67 36.00 21.33 36.00 20.00 Z" />
<path fill="#000000" opacity="1.00" d=" M 16.00 38.00 C 21.33 38.00 26.67 38.00 32.00 38.00 C 32.00 39.34 32.00 40.68 32.00 42.02 C 28.61 45.35 25.22 48.68 21.82 52.00 C 25.21 52.00 28.61 52.00 32.00 52.00 C 32.00 53.33 32.00 54.67 32.00 56.00 C 26.67 56.00 21.33 56.00 16.00 56.00 C 16.00 54.70 16.00 53.41 16.00 52.11 C 19.45 48.76 22.87 45.38 26.31 42.02 C 22.87 41.99 19.44 42.00 16.00 42.00 C 16.00 40.67 16.00 39.33 16.00 38.00 Z" />
</g>
</svg>
