<?xml version="1.0" encoding="UTF-8" ?>
<!DOCTYPE svg PUBLIC "-//W3C//DTD SVG 1.1//EN" "http://www.w3.org/Graphics/SVG/1.1/DTD/svg11.dtd">
<svg width="64pt" height="64pt" viewBox="0 0 64 64" version="1.1" xmlns="http://www.w3.org/2000/svg">
<g id="#ffffffff">
<path fill="#ffffff" opacity="1.00" d=" M 0.00 0.00 L 64.00 0.00 L 64.00 64.00 L 0.00 64.00 L 0.00 0.00 M 20.01 6.00 C 19.86 11.00 20.01 16.02 20.97 20.94 C 21.22 23.88 22.56 27.02 21.09 29.84 C 17.40 38.73 15.85 48.40 15.97 58.00 C 26.66 58.00 37.34 58.00 48.03 58.00 C 48.10 49.02 46.81 39.96 43.55 31.56 C 42.93 29.72 41.83 27.88 42.30 25.87 C 43.33 19.29 44.41 12.69 43.99 6.00 C 42.66 6.00 41.33 6.00 40.00 6.00 C 40.00 8.00 40.00 9.99 40.00 11.99 C 37.28 12.34 34.60 12.92 32.00 13.80 C 29.40 12.92 26.72 12.34 24.00 11.99 C 24.00 9.99 24.00 8.00 24.00 6.00 C 22.67 6.00 21.34 6.00 20.01 6.00 Z" />
<path fill="#ffffff" opacity="1.00" d=" M 24.34 16.01 C 26.94 16.49 29.51 17.15 32.00 18.05 C 34.49 17.15 37.05 16.49 39.66 16.02 C 39.38 20.31 37.91 24.62 38.28 28.90 C 41.67 36.84 43.46 45.38 43.81 54.00 C 35.94 54.00 28.06 54.00 20.19 54.00 C 20.52 45.37 22.32 36.83 25.73 28.89 C 26.08 24.61 24.62 20.31 24.34 16.01 Z" />
</g>
<g id="#000000ff">
<path fill="#000000" opacity="1.00" d=" M 20.01 6.00 C 21.34 6.00 22.67 6.00 24.00 6.00 C 24.00 8.00 24.00 9.99 24.00 11.99 C 26.72 12.34 29.40 12.92 32.00 13.80 C 34.60 12.92 37.28 12.34 40.00 11.99 C 40.00 9.99 40.00 8.00 40.00 6.00 C 41.33 6.00 42.66 6.00 43.99 6.00 C 44.41 12.69 43.33 19.29 42.30 25.87 C 41.83 27.88 42.93 29.72 43.55 31.56 C 46.81 39.96 48.10 49.02 48.03 58.00 C 37.34 58.00 26.66 58.00 15.97 58.00 C 15.85 48.40 17.40 38.73 21.09 29.84 C 22.56 27.02 21.22 23.88 20.97 20.94 C 20.01 16.02 19.86 11.00 20.01 6.00 M 24.34 16.01 C 24.62 20.31 26.08 24.61 25.73 28.89 C 22.32 36.83 20.52 45.37 20.19 54.00 C 28.06 54.00 35.94 54.00 43.81 54.00 C 43.46 45.38 41.67 36.84 38.28 28.90 C 37.91 24.62 39.38 20.31 39.66 16.02 C 37.05 16.49 34.49 17.15 32.00 18.05 C 29.51 17.15 26.94 16.49 24.34 16.01 Z" />
</g>
</svg>
