<?xml version="1.0" encoding="UTF-8" ?>
<!DOCTYPE svg PUBLIC "-//W3C//DTD SVG 1.1//EN" "http://www.w3.org/Graphics/SVG/1.1/DTD/svg11.dtd">
<svg width="64pt" height="64pt" viewBox="0 0 64 64" version="1.1" xmlns="http://www.w3.org/2000/svg">
<g id="#ffffffff">
<path fill="#ffffff" opacity="1.00" d=" M 0.00 0.00 L 64.00 0.00 L 64.00 64.00 L 0.00 64.00 L 0.00 0.00 M 9.78 8.60 C 7.87 9.68 8.04 12.09 7.98 13.96 C 8.03 22.35 7.96 30.73 8.01 39.11 C 7.94 40.91 8.47 43.12 10.44 43.69 C 13.54 44.28 16.72 43.94 19.84 43.99 C 20.10 46.07 19.96 49.04 22.52 49.72 C 25.59 50.26 28.74 49.95 31.85 49.99 C 32.19 51.83 31.82 54.25 33.72 55.36 C 35.65 56.31 37.92 55.91 40.01 56.02 C 44.29 55.88 48.59 56.24 52.86 55.84 C 54.75 55.70 56.01 53.83 55.93 52.03 C 56.11 43.33 55.94 34.63 56.01 25.94 C 56.06 23.86 55.96 21.01 53.53 20.30 C 50.44 19.73 47.28 20.05 44.16 20.01 C 43.89 17.94 44.05 15.02 41.53 14.30 C 38.45 13.73 35.28 14.05 32.16 14.01 C 31.88 11.97 32.06 9.11 29.62 8.32 C 25.48 7.61 21.24 8.17 17.06 7.98 C 14.65 8.11 12.05 7.61 9.78 8.60 Z" />
<path fill="#ffffff" opacity="1.00" d=" M 12.00 12.00 C 17.33 12.00 22.67 12.00 28.00 12.00 C 28.00 12.49 28.00 13.46 28.00 13.94 C 25.38 14.17 21.41 13.25 20.29 16.48 C 19.61 22.28 20.19 28.16 20.00 34.00 C 19.25 34.00 17.75 34.00 17.00 34.00 C 17.00 35.33 17.00 36.67 17.00 38.00 C 17.75 38.00 19.25 38.00 20.00 38.00 C 20.00 38.50 20.00 39.50 20.00 40.00 C 17.33 40.00 14.67 40.00 12.00 40.00 C 12.00 30.67 12.00 21.33 12.00 12.00 Z" />
<path fill="#ffffff" opacity="1.00" d=" M 24.00 18.00 C 29.33 18.00 34.67 18.00 40.00 18.00 C 40.00 18.49 40.00 19.46 40.00 19.94 C 37.39 20.17 33.44 19.26 32.30 22.45 C 31.60 28.26 32.19 34.16 32.00 40.00 C 31.25 40.00 29.75 40.00 29.00 40.00 C 29.00 41.33 29.00 42.67 29.00 44.00 C 29.75 44.00 31.25 44.00 32.00 44.00 C 32.00 44.50 32.00 45.50 32.00 46.00 C 29.33 46.00 26.67 46.00 24.00 46.00 C 24.00 36.67 24.00 27.33 24.00 18.00 Z" />
<path fill="#ffffff" opacity="1.00" d=" M 36.00 24.00 C 41.33 24.00 46.67 24.00 52.00 24.00 C 52.00 33.33 52.00 42.67 52.00 52.00 C 46.67 52.00 41.33 52.00 36.00 52.00 C 36.00 42.67 36.00 33.33 36.00 24.00 M 41.00 46.00 C 41.00 47.33 41.00 48.67 41.00 50.00 C 43.00 50.00 45.00 50.00 47.00 50.00 C 47.00 48.67 47.00 47.33 47.00 46.00 C 45.00 46.00 43.00 46.00 41.00 46.00 Z" />
</g>
<g id="#000000ff">
<path fill="#000000" opacity="1.00" d=" M 9.78 8.60 C 12.05 7.61 14.65 8.11 17.06 7.98 C 21.24 8.17 25.48 7.61 29.62 8.32 C 32.06 9.11 31.88 11.97 32.16 14.01 C 35.28 14.05 38.45 13.73 41.53 14.30 C 44.05 15.02 43.89 17.94 44.16 20.01 C 47.28 20.05 50.44 19.73 53.53 20.30 C 55.96 21.01 56.06 23.86 56.01 25.94 C 55.94 34.63 56.11 43.33 55.93 52.03 C 56.01 53.83 54.75 55.70 52.86 55.84 C 48.59 56.24 44.29 55.88 40.01 56.02 C 37.92 55.91 35.65 56.31 33.72 55.36 C 31.82 54.25 32.19 51.83 31.85 49.99 C 28.74 49.95 25.59 50.26 22.52 49.72 C 19.96 49.04 20.10 46.07 19.84 43.99 C 16.72 43.94 13.54 44.28 10.44 43.69 C 8.47 43.12 7.94 40.91 8.01 39.11 C 7.96 30.73 8.03 22.35 7.98 13.96 C 8.04 12.09 7.87 9.68 9.78 8.60 M 12.00 12.00 C 12.00 21.33 12.00 30.67 12.00 40.00 C 14.67 40.00 17.33 40.00 20.00 40.00 C 20.00 39.50 20.00 38.50 20.00 38.00 C 19.25 38.00 17.75 38.00 17.00 38.00 C 17.00 36.67 17.00 35.33 17.00 34.00 C 17.75 34.00 19.25 34.00 20.00 34.00 C 20.19 28.16 19.61 22.28 20.29 16.48 C 21.41 13.25 25.38 14.17 28.00 13.94 C 28.00 13.46 28.00 12.49 28.00 12.00 C 22.67 12.00 17.33 12.00 12.00 12.00 M 24.00 18.00 C 24.00 27.33 24.00 36.67 24.00 46.00 C 26.67 46.00 29.33 46.00 32.00 46.00 C 32.00 45.50 32.00 44.50 32.00 44.00 C 31.25 44.00 29.75 44.00 29.00 44.00 C 29.00 42.67 29.00 41.33 29.00 40.00 C 29.75 40.00 31.25 40.00 32.00 40.00 C 32.19 34.16 31.60 28.26 32.30 22.45 C 33.44 19.26 37.39 20.17 40.00 19.94 C 40.00 19.46 40.00 18.49 40.00 18.00 C 34.67 18.00 29.33 18.00 24.00 18.00 M 36.00 24.00 C 36.00 33.33 36.00 42.67 36.00 52.00 C 41.33 52.00 46.67 52.00 52.00 52.00 C 52.00 42.67 52.00 33.33 52.00 24.00 C 46.67 24.00 41.33 24.00 36.00 24.00 Z" />
<path fill="#000000" opacity="1.00" d=" M 41.00 46.00 C 43.00 46.00 45.00 46.00 47.00 46.00 C 47.00 47.33 47.00 48.67 47.00 50.00 C 45.00 50.00 43.00 50.00 41.00 50.00 C 41.00 48.67 41.00 47.33 41.00 46.00 Z" />
</g>
</svg>
