<?xml version="1.0" encoding="UTF-8" ?>
<!DOCTYPE svg PUBLIC "-//W3C//DTD SVG 1.1//EN" "http://www.w3.org/Graphics/SVG/1.1/DTD/svg11.dtd">
<svg width="64pt" height="64pt" viewBox="0 0 64 64" version="1.1" xmlns="http://www.w3.org/2000/svg">
<g id="#ffffffff">
<path fill="#ffffff" opacity="1.00" d=" M 0.00 0.00 L 64.00 0.00 L 64.00 64.00 L 0.00 64.00 L 0.00 0.00 M 24.41 2.00 C 23.51 5.45 22.49 8.90 20.70 12.01 C 17.47 12.93 14.38 15.39 14.12 18.96 C 13.80 25.96 14.12 32.98 13.98 39.98 C 14.07 42.81 13.60 45.99 15.38 48.42 C 16.51 50.39 18.91 50.84 20.43 52.37 C 22.32 55.27 23.09 58.71 24.04 62.00 C 29.34 62.00 34.63 62.00 39.92 62.00 C 41.13 57.99 41.47 52.54 45.93 50.75 C 48.45 49.60 49.96 46.80 49.96 44.08 C 50.10 39.39 49.95 34.70 50.00 30.01 C 50.50 30.01 51.50 29.99 52.00 29.99 C 52.00 27.33 52.00 24.67 52.00 22.01 C 51.53 22.01 50.58 22.00 50.11 22.00 C 49.91 19.76 50.01 17.28 48.52 15.42 C 47.25 13.31 44.33 13.01 43.19 10.78 C 41.61 8.05 40.74 4.99 39.81 2.00 C 34.68 2.00 29.55 2.00 24.41 2.00 Z" />
<path fill="#ffffff" opacity="1.00" d=" M 27.54 6.02 C 30.64 6.02 33.73 5.97 36.82 6.01 C 37.59 8.01 38.30 10.04 39.14 12.01 C 34.55 11.99 29.95 11.99 25.35 12.01 C 26.13 10.03 26.82 8.02 27.54 6.02 Z" />
<path fill="#ffffff" opacity="1.00" d=" M 20.32 16.40 C 26.12 15.45 32.15 16.29 38.03 15.98 C 40.84 15.94 45.02 15.45 45.86 19.03 C 46.20 27.03 45.92 35.05 46.00 43.06 C 46.34 45.41 44.61 48.00 42.11 47.95 C 35.39 48.05 28.67 48.04 21.95 47.95 C 19.90 48.00 17.95 46.18 18.05 44.08 C 17.92 36.35 18.03 28.62 18.00 20.89 C 17.83 19.10 18.60 17.16 20.32 16.40 M 25.39 20.48 C 22.10 22.39 25.41 27.74 28.59 25.51 C 31.92 23.62 28.59 18.24 25.39 20.48 M 35.38 20.51 C 32.06 22.43 35.51 27.81 38.65 25.47 C 41.91 23.53 38.51 18.23 35.38 20.51 M 30.38 28.37 C 27.92 29.38 27.13 32.99 29.17 34.80 C 31.00 36.82 34.58 36.11 35.61 33.64 C 37.32 30.57 33.48 26.66 30.38 28.37 M 21.14 30.11 C 18.85 31.19 20.45 34.93 22.81 33.82 C 25.21 32.81 23.52 29.09 21.14 30.11 M 41.13 30.11 C 40.02 30.75 39.50 32.54 40.62 33.40 C 41.79 34.75 43.98 33.66 44.05 32.02 C 43.92 30.52 42.53 29.66 41.13 30.11 M 25.37 38.51 C 23.58 39.56 23.61 42.47 25.39 43.52 C 26.93 44.56 29.37 43.75 29.80 41.90 C 30.87 39.40 27.51 36.88 25.37 38.51 M 35.38 38.48 C 32.07 40.43 35.46 45.79 38.65 43.49 C 41.88 41.53 38.56 36.26 35.38 38.48 Z" />
<path fill="#ffffff" opacity="1.00" d=" M 24.98 51.99 C 29.62 52.01 34.26 52.00 38.91 51.99 C 38.12 53.97 37.45 55.99 36.74 58.00 C 33.55 58.00 30.35 58.01 27.15 57.99 C 26.44 55.98 25.75 53.97 24.98 51.99 Z" />
</g>
<g id="#000000ff">
<path fill="#000000" opacity="1.00" d=" M 24.41 2.00 C 29.55 2.00 34.68 2.00 39.81 2.00 C 40.74 4.99 41.61 8.05 43.19 10.78 C 44.33 13.01 47.25 13.31 48.52 15.42 C 50.01 17.28 49.91 19.76 50.11 22.00 C 50.58 22.00 51.53 22.01 52.00 22.01 C 52.00 24.67 52.00 27.33 52.00 29.99 C 51.50 29.99 50.50 30.01 50.00 30.01 C 49.95 34.70 50.10 39.39 49.96 44.08 C 49.96 46.80 48.45 49.60 45.93 50.75 C 41.47 52.54 41.13 57.99 39.92 62.00 C 34.63 62.00 29.34 62.00 24.04 62.00 C 23.09 58.71 22.32 55.27 20.43 52.37 C 18.91 50.84 16.51 50.39 15.38 48.42 C 13.60 45.99 14.07 42.81 13.98 39.98 C 14.12 32.98 13.80 25.96 14.12 18.96 C 14.38 15.39 17.47 12.93 20.70 12.01 C 22.49 8.90 23.51 5.45 24.41 2.00 M 27.54 6.02 C 26.82 8.02 26.13 10.03 25.35 12.01 C 29.95 11.99 34.55 11.99 39.14 12.01 C 38.30 10.04 37.59 8.01 36.82 6.01 C 33.73 5.97 30.64 6.02 27.54 6.02 M 20.32 16.40 C 18.60 17.16 17.83 19.10 18.00 20.89 C 18.03 28.62 17.92 36.35 18.05 44.08 C 17.95 46.18 19.90 48.00 21.95 47.95 C 28.67 48.04 35.39 48.05 42.11 47.95 C 44.61 48.00 46.34 45.41 46.00 43.06 C 45.92 35.05 46.20 27.03 45.86 19.03 C 45.02 15.45 40.84 15.94 38.03 15.98 C 32.15 16.29 26.12 15.45 20.32 16.40 M 24.98 51.99 C 25.75 53.97 26.44 55.98 27.15 57.99 C 30.35 58.01 33.55 58.00 36.74 58.00 C 37.45 55.99 38.12 53.97 38.91 51.99 C 34.26 52.00 29.62 52.01 24.98 51.99 Z" />
<path fill="#000000" opacity="1.00" d=" M 25.39 20.48 C 28.59 18.24 31.92 23.62 28.59 25.51 C 25.41 27.74 22.10 22.39 25.39 20.48 Z" />
<path fill="#000000" opacity="1.00" d=" M 35.38 20.51 C 38.51 18.23 41.91 23.53 38.65 25.47 C 35.51 27.81 32.06 22.43 35.38 20.51 Z" />
<path fill="#000000" opacity="1.00" d=" M 30.38 28.37 C 33.48 26.66 37.32 30.57 35.61 33.64 C 34.58 36.11 31.00 36.82 29.17 34.80 C 27.13 32.99 27.92 29.38 30.38 28.37 Z" />
<path fill="#000000" opacity="1.00" d=" M 21.14 30.11 C 23.52 29.09 25.21 32.81 22.81 33.82 C 20.45 34.93 18.85 31.19 21.14 30.11 Z" />
<path fill="#000000" opacity="1.00" d=" M 41.13 30.11 C 42.53 29.66 43.92 30.52 44.05 32.02 C 43.98 33.66 41.79 34.75 40.62 33.40 C 39.50 32.54 40.02 30.75 41.13 30.11 Z" />
<path fill="#000000" opacity="1.00" d=" M 25.37 38.51 C 27.51 36.88 30.87 39.40 29.80 41.90 C 29.37 43.75 26.93 44.56 25.39 43.52 C 23.61 42.47 23.58 39.56 25.37 38.51 Z" />
<path fill="#000000" opacity="1.00" d=" M 35.38 38.48 C 38.56 36.26 41.88 41.53 38.65 43.49 C 35.46 45.79 32.07 40.43 35.38 38.48 Z" />
</g>
</svg>
