<?xml version="1.0" encoding="UTF-8" ?>
<!DOCTYPE svg PUBLIC "-//W3C//DTD SVG 1.1//EN" "http://www.w3.org/Graphics/SVG/1.1/DTD/svg11.dtd">
<svg width="64pt" height="64pt" viewBox="0 0 64 64" version="1.1" xmlns="http://www.w3.org/2000/svg">
<g id="#ffffffff">
<path fill="#ffffff" opacity="1.00" d=" M 0.00 0.00 L 64.00 0.00 L 64.00 64.00 L 0.00 64.00 L 0.00 0.00 M 14.08 16.06 C 9.22 21.38 7.24 28.89 8.27 35.97 C 9.62 36.00 10.98 36.01 12.33 36.01 C 10.88 28.35 14.05 20.02 20.55 15.62 C 27.93 10.24 38.95 10.98 45.53 17.31 C 50.71 21.92 52.88 29.25 51.67 36.01 C 53.02 36.01 54.38 36.00 55.73 35.97 C 57.53 25.31 51.38 13.94 41.32 9.89 C 32.13 5.87 20.64 8.48 14.08 16.06 M 15.86 31.98 C 17.20 32.00 18.54 32.00 19.88 32.00 C 20.05 25.50 25.51 20.08 32.00 19.87 C 32.00 18.53 32.00 17.20 31.98 15.86 C 23.41 16.01 16.01 23.41 15.86 31.98 M 27.28 28.31 C 25.37 30.51 26.01 33.55 27.17 35.93 C 30.39 36.03 33.61 36.03 36.83 35.93 C 37.68 33.89 38.59 31.54 37.40 29.42 C 35.72 25.48 29.76 24.83 27.28 28.31 M 8.00 38.00 C 8.00 43.33 8.00 48.67 8.00 54.00 C 24.00 54.00 40.00 54.00 56.00 54.00 C 56.00 48.67 56.00 43.33 56.00 38.00 C 40.00 38.00 24.00 38.00 8.00 38.00 Z" />
<path fill="#ffffff" opacity="1.00" d=" M 31.18 30.10 C 33.58 29.14 35.17 32.84 32.78 33.90 C 30.39 34.82 28.88 31.20 31.18 30.10 Z" />
<path fill="#ffffff" opacity="1.00" d=" M 12.00 42.00 C 25.33 42.00 38.67 42.00 52.00 42.00 C 52.00 44.67 52.00 47.33 52.00 50.00 C 38.67 50.00 25.33 50.00 12.00 50.00 C 12.00 47.33 12.00 44.67 12.00 42.00 Z" />
</g>
<g id="#000000ff">
<path fill="#000000" opacity="1.00" d=" M 14.08 16.06 C 20.64 8.48 32.13 5.87 41.32 9.89 C 51.38 13.94 57.53 25.31 55.73 35.97 C 54.38 36.00 53.02 36.01 51.67 36.01 C 52.88 29.25 50.71 21.92 45.53 17.31 C 38.95 10.98 27.93 10.24 20.55 15.62 C 14.05 20.02 10.88 28.35 12.33 36.01 C 10.98 36.01 9.62 36.00 8.27 35.97 C 7.24 28.89 9.22 21.38 14.08 16.06 Z" />
<path fill="#000000" opacity="1.00" d=" M 15.86 31.98 C 16.01 23.41 23.41 16.01 31.98 15.86 C 32.00 17.20 32.00 18.53 32.00 19.87 C 25.51 20.08 20.05 25.50 19.88 32.00 C 18.54 32.00 17.20 32.00 15.86 31.98 Z" />
<path fill="#000000" opacity="1.00" d=" M 27.28 28.31 C 29.76 24.83 35.72 25.48 37.40 29.42 C 38.59 31.54 37.68 33.89 36.83 35.93 C 33.61 36.03 30.39 36.03 27.17 35.93 C 26.01 33.55 25.37 30.51 27.28 28.31 M 31.18 30.10 C 28.88 31.20 30.39 34.82 32.78 33.90 C 35.17 32.84 33.58 29.14 31.18 30.10 Z" />
<path fill="#000000" opacity="1.00" d=" M 8.00 38.00 C 24.00 38.00 40.00 38.00 56.00 38.00 C 56.00 43.33 56.00 48.67 56.00 54.00 C 40.00 54.00 24.00 54.00 8.00 54.00 C 8.00 48.67 8.00 43.33 8.00 38.00 M 12.00 42.00 C 12.00 44.67 12.00 47.33 12.00 50.00 C 25.33 50.00 38.67 50.00 52.00 50.00 C 52.00 47.33 52.00 44.67 52.00 42.00 C 38.67 42.00 25.33 42.00 12.00 42.00 Z" />
</g>
</svg>
