<?xml version="1.0" encoding="UTF-8" ?>
<!DOCTYPE svg PUBLIC "-//W3C//DTD SVG 1.1//EN" "http://www.w3.org/Graphics/SVG/1.1/DTD/svg11.dtd">
<svg width="64pt" height="64pt" viewBox="0 0 64 64" version="1.1" xmlns="http://www.w3.org/2000/svg">
<g id="#ffffffff">
<path fill="#ffffff" opacity="1.00" d=" M 0.00 0.00 L 64.00 0.00 L 64.00 64.00 L 0.00 64.00 L 0.00 0.00 M 29.68 19.60 C 26.71 22.70 28.11 27.54 31.09 30.08 C 29.03 32.06 27.16 34.24 24.97 36.09 C 23.10 37.32 20.56 37.33 18.97 39.02 C 14.65 43.34 10.34 47.67 6.02 51.98 C 8.02 53.98 10.02 55.98 12.00 58.00 C 16.31 53.66 20.66 49.36 24.98 45.03 C 26.86 43.27 26.63 40.31 28.38 38.47 C 30.16 36.55 32.10 34.78 33.94 32.91 C 36.46 35.89 41.25 37.26 44.35 34.36 C 49.31 29.71 53.98 24.76 58.82 20.00 C 53.90 15.04 48.96 10.10 44.00 5.17 C 39.26 10.01 34.33 14.68 29.68 19.60 Z" />
<path fill="#ffffff" opacity="1.00" d=" M 32.57 22.41 C 36.20 18.38 40.24 14.73 44.02 10.83 C 45.07 11.89 46.12 12.94 47.18 14.00 C 42.75 18.42 38.33 22.86 33.88 27.28 C 32.84 25.96 31.05 24.09 32.57 22.41 Z" />
<path fill="#ffffff" opacity="1.00" d=" M 36.75 30.10 C 41.16 25.66 45.58 21.24 50.02 16.83 C 51.07 17.89 52.12 18.94 53.17 20.00 C 49.26 23.79 45.60 27.85 41.53 31.46 C 39.86 32.91 38.04 31.16 36.75 30.10 Z" />
</g>
<g id="#000000ff">
<path fill="#000000" opacity="1.00" d=" M 29.68 19.60 C 34.33 14.68 39.26 10.01 44.00 5.17 C 48.96 10.10 53.90 15.04 58.82 20.00 C 53.98 24.76 49.31 29.71 44.35 34.36 C 41.25 37.26 36.46 35.89 33.94 32.91 C 32.10 34.78 30.16 36.55 28.38 38.47 C 26.63 40.31 26.86 43.27 24.98 45.03 C 20.66 49.36 16.31 53.66 12.00 58.00 C 10.02 55.98 8.02 53.98 6.02 51.98 C 10.34 47.67 14.65 43.34 18.97 39.02 C 20.56 37.33 23.10 37.32 24.97 36.09 C 27.16 34.24 29.03 32.06 31.09 30.08 C 28.11 27.54 26.71 22.70 29.68 19.60 M 32.57 22.41 C 31.05 24.09 32.84 25.96 33.88 27.28 C 38.33 22.86 42.75 18.42 47.18 14.00 C 46.12 12.94 45.07 11.89 44.02 10.83 C 40.24 14.73 36.20 18.38 32.57 22.41 M 36.75 30.10 C 38.04 31.16 39.86 32.91 41.53 31.46 C 45.60 27.85 49.26 23.79 53.17 20.00 C 52.12 18.94 51.07 17.89 50.02 16.83 C 45.58 21.24 41.16 25.66 36.75 30.10 Z" />
</g>
</svg>
