<?xml version="1.0" encoding="UTF-8" ?>
<!DOCTYPE svg PUBLIC "-//W3C//DTD SVG 1.1//EN" "http://www.w3.org/Graphics/SVG/1.1/DTD/svg11.dtd">
<svg width="64pt" height="64pt" viewBox="0 0 64 64" version="1.1" xmlns="http://www.w3.org/2000/svg">
<g id="#ffffffff">
<path fill="#ffffff" opacity="1.00" d=" M 0.00 0.00 L 33.04 0.00 C 32.48 1.06 31.27 2.36 32.64 3.38 C 33.74 4.93 35.52 3.14 36.43 2.27 C 36.06 1.70 35.32 0.57 34.96 0.00 L 64.00 0.00 L 64.00 64.00 L 47.90 64.00 C 48.63 49.33 49.37 34.67 50.10 20.00 C 38.03 20.00 25.96 20.00 13.90 20.00 C 14.63 34.67 15.36 49.33 16.10 64.00 L 0.00 64.00 L 0.00 0.00 M 25.15 4.11 C 22.86 5.24 24.43 8.89 26.86 7.88 C 29.11 6.73 27.57 3.12 25.15 4.11 M 33.36 10.52 C 30.05 12.47 33.54 17.86 36.68 15.45 C 39.91 13.47 36.46 8.21 33.36 10.52 Z" />
<path fill="#ffffff" opacity="1.00" d=" M 18.10 24.00 C 27.36 24.00 36.63 24.00 45.90 24.00 C 45.83 25.33 45.77 26.66 45.70 27.99 C 37.97 28.01 30.24 28.00 22.50 28.00 C 22.57 29.33 22.64 30.67 22.71 32.00 C 30.30 32.00 37.90 32.00 45.50 32.00 C 45.03 41.33 44.57 50.67 44.09 60.00 C 36.03 60.00 27.97 60.00 19.90 60.00 C 19.30 48.00 18.71 36.00 18.10 24.00 M 35.13 36.12 C 32.87 37.25 34.43 40.88 36.84 39.88 C 39.15 38.76 37.57 35.11 35.13 36.12 M 27.14 40.15 C 24.86 41.20 26.42 44.88 28.80 43.89 C 31.17 42.86 29.58 39.04 27.14 40.15 M 33.17 46.10 C 30.87 47.16 32.38 50.89 34.80 49.85 C 37.18 48.87 35.58 45.11 33.17 46.10 M 29.08 52.11 C 26.95 53.33 28.40 56.81 30.77 55.90 C 33.20 54.82 31.55 51.06 29.08 52.11 Z" />
</g>
<g id="#000000ff">
<path fill="#000000" opacity="1.00" d=" M 33.04 0.00 L 34.96 0.00 C 35.32 0.57 36.06 1.70 36.43 2.27 C 35.52 3.14 33.74 4.93 32.64 3.38 C 31.27 2.36 32.48 1.06 33.04 0.00 Z" />
<path fill="#000000" opacity="1.00" d=" M 25.15 4.11 C 27.57 3.12 29.11 6.73 26.86 7.88 C 24.43 8.89 22.86 5.24 25.15 4.11 Z" />
<path fill="#000000" opacity="1.00" d=" M 33.36 10.52 C 36.46 8.21 39.91 13.47 36.68 15.45 C 33.54 17.86 30.05 12.47 33.36 10.52 Z" />
<path fill="#000000" opacity="1.00" d=" M 13.90 20.00 C 25.96 20.00 38.03 20.00 50.10 20.00 C 49.37 34.67 48.63 49.33 47.90 64.00 L 16.10 64.00 C 15.36 49.33 14.63 34.67 13.90 20.00 M 18.10 24.00 C 18.71 36.00 19.30 48.00 19.90 60.00 C 27.97 60.00 36.03 60.00 44.09 60.00 C 44.57 50.67 45.03 41.33 45.50 32.00 C 37.90 32.00 30.30 32.00 22.71 32.00 C 22.64 30.67 22.57 29.33 22.50 28.00 C 30.24 28.00 37.97 28.01 45.70 27.99 C 45.77 26.66 45.83 25.33 45.90 24.00 C 36.63 24.00 27.36 24.00 18.10 24.00 Z" />
<path fill="#000000" opacity="1.00" d=" M 35.13 36.12 C 37.57 35.11 39.15 38.76 36.84 39.88 C 34.43 40.88 32.87 37.25 35.13 36.12 Z" />
<path fill="#000000" opacity="1.00" d=" M 27.14 40.15 C 29.58 39.04 31.17 42.86 28.80 43.89 C 26.42 44.88 24.86 41.20 27.14 40.15 Z" />
<path fill="#000000" opacity="1.00" d=" M 33.17 46.10 C 35.58 45.11 37.18 48.87 34.80 49.85 C 32.38 50.89 30.87 47.16 33.17 46.10 Z" />
<path fill="#000000" opacity="1.00" d=" M 29.08 52.11 C 31.55 51.06 33.20 54.82 30.77 55.90 C 28.40 56.81 26.95 53.33 29.08 52.11 Z" />
</g>
</svg>
