<?xml version="1.0" encoding="UTF-8" ?>
<!DOCTYPE svg PUBLIC "-//W3C//DTD SVG 1.1//EN" "http://www.w3.org/Graphics/SVG/1.1/DTD/svg11.dtd">
<svg width="64pt" height="64pt" viewBox="0 0 64 64" version="1.1" xmlns="http://www.w3.org/2000/svg">
<g id="#ffffffff">
<path fill="#ffffff" opacity="1.00" d=" M 0.00 0.00 L 64.00 0.00 L 64.00 64.00 L 0.00 64.00 L 0.00 0.00 M 30.00 4.00 C 30.00 5.95 30.00 7.90 30.00 9.86 C 24.79 12.98 19.54 16.02 14.28 19.06 C 12.53 17.97 10.76 16.93 8.99 15.87 C 8.30 17.03 7.63 18.21 6.99 19.40 C 8.69 20.36 10.38 21.35 12.05 22.37 C 12.04 28.81 12.02 35.26 11.99 41.70 C 10.28 42.67 8.62 43.71 6.94 44.72 C 7.64 45.85 8.32 46.98 9.01 48.12 C 10.77 47.06 12.54 46.02 14.29 44.95 C 19.55 47.96 24.75 51.10 29.99 54.16 C 30.00 56.10 30.00 58.05 30.00 60.00 C 31.33 60.00 32.67 60.00 34.00 60.00 C 34.00 58.05 34.00 56.11 34.00 54.16 C 39.24 51.08 44.46 47.99 49.72 44.94 C 51.49 45.99 53.25 47.03 55.01 48.09 C 55.69 46.96 56.37 45.84 57.06 44.71 C 55.37 43.67 53.68 42.61 51.95 41.65 C 51.95 35.19 51.97 28.74 52.01 22.28 C 53.74 21.35 55.41 20.32 57.06 19.25 C 56.37 18.14 55.68 17.03 55.01 15.91 C 53.26 16.95 51.51 18.00 49.76 19.05 C 44.46 16.05 39.28 12.85 34.01 9.81 C 34.00 7.87 34.00 5.94 34.00 4.00 C 32.67 4.00 31.33 4.00 30.00 4.00 Z" />
<path fill="#ffffff" opacity="1.00" d=" M 18.23 21.33 C 22.16 19.07 26.10 16.82 29.99 14.50 C 29.99 15.95 30.00 17.41 30.01 18.87 C 27.34 20.47 24.66 22.04 21.99 23.64 C 20.73 22.88 19.48 22.11 18.23 21.33 Z" />
<path fill="#ffffff" opacity="1.00" d=" M 34.00 14.45 C 37.98 16.68 41.86 19.08 45.82 21.36 C 44.54 22.13 43.27 22.91 42.00 23.69 C 39.33 22.08 36.67 20.47 34.00 18.87 C 34.00 17.40 34.00 15.93 34.00 14.45 Z" />
<path fill="#ffffff" opacity="1.00" d=" M 25.93 25.99 C 27.29 25.15 28.64 24.33 30.00 23.50 C 30.00 25.15 29.99 26.80 29.99 28.44 C 28.64 27.63 27.28 26.81 25.93 25.99 Z" />
<path fill="#ffffff" opacity="1.00" d=" M 34.00 23.51 C 35.37 24.34 36.73 25.17 38.10 26.01 C 36.73 26.81 35.36 27.62 34.00 28.43 C 34.00 26.79 34.00 25.15 34.00 23.51 Z" />
<path fill="#ffffff" opacity="1.00" d=" M 16.07 24.80 C 17.41 25.59 18.74 26.39 20.06 27.19 C 20.04 30.43 20.02 33.67 20.00 36.91 C 18.67 37.69 17.33 38.46 16.00 39.24 C 16.02 34.42 16.03 29.61 16.07 24.80 Z" />
<path fill="#ffffff" opacity="1.00" d=" M 44.00 27.12 C 45.34 26.35 46.67 25.58 48.01 24.79 C 47.98 29.58 47.95 34.37 47.95 39.16 C 46.61 38.37 45.27 37.58 43.94 36.79 C 43.96 33.57 43.97 30.35 44.00 27.12 Z" />
<path fill="#ffffff" opacity="1.00" d=" M 24.07 29.56 C 25.45 30.36 26.82 31.17 28.20 31.98 C 26.80 32.80 25.40 33.62 24.00 34.43 C 24.02 32.81 24.05 31.18 24.07 29.56 Z" />
<path fill="#ffffff" opacity="1.00" d=" M 35.93 32.02 C 37.29 31.20 38.65 30.39 40.01 29.57 C 39.98 31.19 39.95 32.81 39.93 34.43 C 38.60 33.63 37.26 32.82 35.93 32.02 Z" />
<path fill="#ffffff" opacity="1.00" d=" M 26.03 38.00 C 27.35 37.18 28.67 36.36 29.99 35.55 C 30.00 37.20 29.99 38.86 29.99 40.51 C 28.67 39.68 27.34 38.84 26.03 38.00 Z" />
<path fill="#ffffff" opacity="1.00" d=" M 34.00 35.57 C 35.40 36.39 36.80 37.20 38.20 38.01 C 36.80 38.83 35.40 39.66 34.00 40.48 C 34.00 38.85 34.00 37.21 34.00 35.57 Z" />
<path fill="#ffffff" opacity="1.00" d=" M 18.20 42.60 C 19.47 41.84 20.74 41.08 22.00 40.32 C 24.67 41.93 27.37 43.48 30.01 45.14 C 30.00 46.61 29.99 48.09 29.99 49.56 C 26.09 47.20 22.10 44.97 18.20 42.60 Z" />
<path fill="#ffffff" opacity="1.00" d=" M 34.00 45.12 C 36.69 43.58 39.33 41.95 42.00 40.37 C 43.27 41.13 44.54 41.89 45.82 42.65 C 41.86 44.90 37.96 47.25 34.00 49.49 C 34.00 48.03 34.00 46.58 34.00 45.12 Z" />
</g>
<g id="#000000ff">
<path fill="#000000" opacity="1.00" d=" M 30.00 4.00 C 31.33 4.00 32.67 4.00 34.00 4.00 C 34.00 5.94 34.00 7.87 34.01 9.81 C 39.28 12.85 44.46 16.05 49.76 19.05 C 51.51 18.00 53.26 16.95 55.01 15.91 C 55.68 17.03 56.37 18.14 57.06 19.25 C 55.41 20.32 53.74 21.35 52.01 22.28 C 51.97 28.74 51.95 35.19 51.95 41.65 C 53.68 42.61 55.37 43.67 57.06 44.71 C 56.37 45.84 55.69 46.96 55.01 48.09 C 53.25 47.03 51.49 45.99 49.72 44.94 C 44.46 47.99 39.24 51.08 34.00 54.16 C 34.00 56.11 34.00 58.05 34.00 60.00 C 32.67 60.00 31.33 60.00 30.00 60.00 C 30.00 58.05 30.00 56.10 29.99 54.16 C 24.75 51.10 19.55 47.96 14.29 44.95 C 12.54 46.02 10.77 47.06 9.01 48.12 C 8.32 46.98 7.64 45.85 6.94 44.72 C 8.62 43.71 10.28 42.67 11.99 41.70 C 12.02 35.26 12.04 28.81 12.05 22.37 C 10.38 21.35 8.69 20.36 6.99 19.40 C 7.63 18.21 8.30 17.03 8.99 15.87 C 10.76 16.93 12.53 17.97 14.28 19.06 C 19.54 16.02 24.79 12.98 30.00 9.86 C 30.00 7.90 30.00 5.95 30.00 4.00 M 18.23 21.33 C 19.48 22.11 20.73 22.88 21.99 23.64 C 24.66 22.04 27.34 20.47 30.01 18.87 C 30.00 17.41 29.99 15.95 29.99 14.50 C 26.10 16.82 22.16 19.07 18.23 21.33 M 34.00 14.45 C 34.00 15.93 34.00 17.40 34.00 18.87 C 36.67 20.47 39.33 22.08 42.00 23.69 C 43.27 22.91 44.54 22.13 45.82 21.36 C 41.86 19.08 37.98 16.68 34.00 14.45 M 25.93 25.99 C 27.28 26.81 28.64 27.63 29.99 28.44 C 29.99 26.80 30.00 25.15 30.00 23.50 C 28.64 24.33 27.29 25.15 25.93 25.99 M 34.00 23.51 C 34.00 25.15 34.00 26.79 34.00 28.43 C 35.36 27.62 36.73 26.81 38.10 26.01 C 36.73 25.17 35.37 24.34 34.00 23.51 M 16.07 24.80 C 16.03 29.61 16.02 34.42 16.00 39.24 C 17.33 38.46 18.67 37.69 20.00 36.91 C 20.02 33.67 20.04 30.43 20.06 27.19 C 18.74 26.39 17.41 25.59 16.07 24.80 M 44.00 27.12 C 43.97 30.35 43.96 33.57 43.94 36.79 C 45.27 37.58 46.61 38.37 47.95 39.16 C 47.95 34.37 47.98 29.58 48.01 24.79 C 46.67 25.58 45.34 26.35 44.00 27.12 M 24.07 29.56 C 24.05 31.18 24.02 32.81 24.00 34.43 C 25.40 33.62 26.80 32.80 28.20 31.98 C 26.82 31.17 25.45 30.36 24.07 29.56 M 35.93 32.02 C 37.26 32.82 38.60 33.63 39.93 34.43 C 39.95 32.81 39.98 31.19 40.01 29.57 C 38.65 30.39 37.29 31.20 35.93 32.02 M 26.03 38.00 C 27.34 38.84 28.67 39.68 29.99 40.51 C 29.99 38.86 30.00 37.20 29.99 35.55 C 28.67 36.36 27.35 37.18 26.03 38.00 M 34.00 35.57 C 34.00 37.21 34.00 38.85 34.00 40.48 C 35.40 39.66 36.80 38.83 38.20 38.01 C 36.80 37.20 35.40 36.39 34.00 35.57 M 18.20 42.60 C 22.10 44.97 26.09 47.20 29.99 49.56 C 29.99 48.09 30.00 46.61 30.01 45.14 C 27.37 43.48 24.67 41.93 22.00 40.32 C 20.74 41.08 19.47 41.84 18.20 42.60 M 34.00 45.12 C 34.00 46.58 34.00 48.03 34.00 49.49 C 37.96 47.25 41.86 44.90 45.82 42.65 C 44.54 41.89 43.27 41.13 42.00 40.37 C 39.33 41.95 36.69 43.58 34.00 45.12 Z" />
</g>
</svg>
