<?xml version="1.0" encoding="UTF-8" ?>
<!DOCTYPE svg PUBLIC "-//W3C//DTD SVG 1.1//EN" "http://www.w3.org/Graphics/SVG/1.1/DTD/svg11.dtd">
<svg width="64pt" height="64pt" viewBox="0 0 64 64" version="1.1" xmlns="http://www.w3.org/2000/svg">
<g id="#ffffffff">
<path fill="#ffffff" opacity="1.00" d=" M 0.00 0.00 L 64.00 0.00 L 64.00 64.00 L 0.00 64.00 L 0.00 0.00 M 25.08 10.12 C 21.91 12.99 18.06 16.13 17.98 20.79 C 17.88 25.71 22.10 28.77 25.19 31.93 C 23.13 34.00 21.07 36.06 19.00 38.12 C 17.34 36.46 15.68 34.81 14.00 33.17 C 11.69 35.42 9.41 37.69 7.17 40.00 C 12.46 45.37 17.81 50.67 23.14 56.00 C 34.09 56.00 45.05 56.00 56.00 56.00 C 56.00 52.67 56.00 49.33 56.00 46.00 C 46.30 46.00 36.61 46.00 26.91 46.00 C 25.23 44.33 23.56 42.66 21.88 41.00 C 23.94 38.94 26.00 36.87 28.07 34.81 C 31.19 37.79 34.15 42.07 38.98 41.90 C 43.52 42.24 46.61 38.43 49.42 35.46 C 52.59 32.22 52.80 26.58 49.78 23.17 C 45.98 18.97 41.77 15.15 37.82 11.09 C 34.65 7.58 28.70 6.92 25.08 10.12 M 48.56 8.56 C 46.96 10.19 45.36 11.81 43.75 13.43 C 44.69 14.38 45.63 15.31 46.57 16.24 C 48.19 14.64 49.81 13.04 51.44 11.45 C 50.48 10.48 49.52 9.52 48.56 8.56 Z" />
<path fill="#ffffff" opacity="1.00" d=" M 22.26 18.80 C 24.09 16.56 26.15 14.52 28.31 12.60 C 27.93 14.84 27.55 17.07 27.26 19.32 C 25.59 19.16 23.92 19.00 22.26 18.80 Z" />
<path fill="#ffffff" opacity="1.00" d=" M 32.69 12.08 C 34.80 14.04 38.77 15.87 37.21 19.39 C 35.24 19.42 33.28 19.46 31.31 19.47 C 31.64 16.98 32.07 14.51 32.69 12.08 Z" />
<path fill="#ffffff" opacity="1.00" d=" M 22.19 22.90 C 23.88 23.02 25.57 23.16 27.27 23.31 C 27.37 24.99 27.46 26.66 27.51 28.34 C 25.54 26.74 23.76 24.90 22.19 22.90 Z" />
<path fill="#ffffff" opacity="1.00" d=" M 40.59 23.21 C 41.42 23.10 43.09 22.89 43.92 22.79 C 45.42 24.34 46.87 25.94 48.23 27.62 C 45.68 28.21 43.08 28.50 40.47 28.65 C 40.48 26.84 40.52 25.02 40.59 23.21 Z" />
<path fill="#ffffff" opacity="1.00" d=" M 31.31 23.47 C 33.07 23.47 34.83 23.46 36.59 23.46 C 36.53 25.23 36.49 27.00 36.46 28.76 C 34.89 28.69 33.32 28.63 31.75 28.56 C 31.60 26.86 31.46 25.16 31.31 23.47 Z" />
<path fill="#ffffff" opacity="1.00" d=" M 40.87 32.69 C 42.94 32.50 45.01 32.31 47.09 32.13 C 45.37 33.89 43.63 35.63 41.85 37.33 C 41.51 35.78 41.19 34.24 40.87 32.69 Z" />
<path fill="#ffffff" opacity="1.00" d=" M 32.10 32.68 C 33.69 32.66 35.28 32.67 36.87 32.71 C 37.16 34.50 37.43 36.30 37.68 38.09 C 35.48 36.67 33.59 34.83 32.10 32.68 Z" />
<path fill="#ffffff" opacity="1.00" d=" M 12.84 38.99 C 13.91 39.15 14.81 39.61 15.54 40.39 C 18.74 43.59 21.92 46.82 25.14 50.00 C 34.09 50.00 43.05 50.00 52.00 50.00 C 52.00 50.50 52.00 51.50 52.00 52.00 C 42.97 52.00 33.94 52.00 24.91 52.00 C 21.02 47.56 15.82 44.10 12.84 38.99 Z" />
</g>
<g id="#000000ff">
<path fill="#000000" opacity="1.00" d=" M 25.08 10.12 C 28.70 6.92 34.65 7.58 37.82 11.09 C 41.77 15.15 45.98 18.97 49.78 23.17 C 52.80 26.58 52.59 32.22 49.42 35.46 C 46.61 38.43 43.52 42.24 38.98 41.90 C 34.15 42.07 31.19 37.79 28.07 34.81 C 26.00 36.87 23.94 38.94 21.88 41.00 C 23.56 42.66 25.23 44.33 26.91 46.00 C 36.61 46.00 46.30 46.00 56.00 46.00 C 56.00 49.33 56.00 52.67 56.00 56.00 C 45.05 56.00 34.09 56.00 23.14 56.00 C 17.81 50.67 12.46 45.37 7.17 40.00 C 9.41 37.69 11.69 35.42 14.00 33.17 C 15.68 34.81 17.34 36.46 19.00 38.12 C 21.07 36.06 23.13 34.00 25.19 31.93 C 22.10 28.77 17.88 25.71 17.98 20.79 C 18.06 16.13 21.91 12.99 25.08 10.12 M 22.26 18.80 C 23.92 19.00 25.59 19.16 27.26 19.32 C 27.55 17.07 27.93 14.84 28.31 12.60 C 26.15 14.52 24.09 16.56 22.26 18.80 M 32.69 12.08 C 32.07 14.51 31.64 16.98 31.31 19.47 C 33.28 19.46 35.24 19.42 37.21 19.39 C 38.77 15.87 34.80 14.04 32.69 12.08 M 22.19 22.90 C 23.76 24.90 25.54 26.74 27.51 28.34 C 27.46 26.66 27.37 24.99 27.27 23.31 C 25.57 23.16 23.88 23.02 22.19 22.90 M 40.59 23.21 C 40.52 25.02 40.48 26.84 40.47 28.65 C 43.08 28.50 45.68 28.21 48.23 27.62 C 46.87 25.94 45.42 24.34 43.92 22.79 C 43.09 22.89 41.42 23.10 40.59 23.21 M 31.31 23.47 C 31.46 25.16 31.60 26.86 31.75 28.56 C 33.32 28.63 34.89 28.69 36.46 28.76 C 36.49 27.00 36.53 25.23 36.59 23.46 C 34.83 23.46 33.07 23.47 31.31 23.47 M 40.87 32.69 C 41.19 34.24 41.51 35.78 41.85 37.33 C 43.63 35.63 45.37 33.89 47.09 32.13 C 45.01 32.31 42.94 32.50 40.87 32.69 M 32.10 32.68 C 33.59 34.83 35.48 36.67 37.68 38.09 C 37.43 36.30 37.16 34.50 36.87 32.71 C 35.28 32.67 33.69 32.66 32.10 32.68 M 12.84 38.99 C 15.82 44.10 21.02 47.56 24.91 52.00 C 33.94 52.00 42.97 52.00 52.00 52.00 C 52.00 51.50 52.00 50.50 52.00 50.00 C 43.05 50.00 34.09 50.00 25.14 50.00 C 21.92 46.82 18.74 43.59 15.54 40.39 C 14.81 39.61 13.91 39.15 12.84 38.99 Z" />
<path fill="#000000" opacity="1.00" d=" M 48.56 8.56 C 49.52 9.52 50.48 10.48 51.44 11.45 C 49.81 13.04 48.19 14.64 46.57 16.24 C 45.63 15.31 44.69 14.38 43.75 13.43 C 45.36 11.81 46.96 10.19 48.56 8.56 Z" />
</g>
</svg>
