<?xml version="1.0" encoding="UTF-8" ?>
<!DOCTYPE svg PUBLIC "-//W3C//DTD SVG 1.1//EN" "http://www.w3.org/Graphics/SVG/1.1/DTD/svg11.dtd">
<svg width="64pt" height="64pt" viewBox="0 0 64 64" version="1.1" xmlns="http://www.w3.org/2000/svg">
<g id="#ffffffff">
<path fill="#ffffff" opacity="1.00" d=" M 0.00 0.00 L 64.00 0.00 L 64.00 64.00 L 0.00 64.00 L 0.00 0.00 M 5.89 19.98 C 7.21 19.99 8.53 20.00 9.85 20.00 C 10.09 14.56 14.58 10.10 20.00 9.84 C 20.00 8.52 20.00 7.21 19.99 5.89 C 12.47 6.04 6.03 12.45 5.89 19.98 M 5.17 36.36 C 12.65 43.86 20.16 51.33 27.63 58.83 C 38.03 48.43 48.43 38.03 58.83 27.64 C 51.34 20.15 43.86 12.66 36.36 5.17 C 25.97 15.57 15.57 25.97 5.17 36.36 M 13.77 19.98 C 15.05 19.98 16.33 19.98 17.61 19.97 C 18.37 19.16 19.16 18.37 19.97 17.60 C 19.98 16.32 19.98 15.05 19.98 13.77 C 16.72 14.23 14.24 16.72 13.77 19.98 M 46.39 44.03 C 45.62 44.83 44.83 45.62 44.03 46.39 C 44.02 47.67 44.02 48.95 44.02 50.23 C 47.27 49.75 49.75 47.27 50.23 44.03 C 48.95 44.02 47.67 44.02 46.39 44.03 M 54.15 44.00 C 53.87 49.44 49.44 53.87 44.00 54.15 C 44.00 55.47 44.01 56.79 44.01 58.11 C 51.54 57.94 57.93 51.54 58.11 44.02 C 56.79 44.01 55.47 44.00 54.15 44.00 Z" />
<path fill="#ffffff" opacity="1.00" d=" M 36.36 10.83 C 37.59 12.06 38.84 13.29 40.09 14.50 C 38.64 15.98 37.17 17.44 35.73 18.91 C 38.85 22.03 41.96 25.16 45.08 28.28 C 46.55 26.83 48.00 25.37 49.47 23.92 C 50.70 25.16 51.93 26.39 53.17 27.63 C 49.39 31.43 45.60 35.21 41.81 39.00 C 40.87 38.04 39.92 37.08 38.98 36.12 C 40.45 32.93 40.32 28.87 37.63 26.36 C 35.12 23.67 31.06 23.54 27.88 25.02 C 26.92 24.08 25.96 23.13 25.00 22.19 C 28.78 18.40 32.57 14.62 36.36 10.83 Z" />
<path fill="#ffffff" opacity="1.00" d=" M 41.38 18.90 C 41.76 18.52 42.52 17.76 42.90 17.38 C 44.14 18.61 45.39 19.84 46.64 21.07 C 46.25 21.46 45.48 22.24 45.09 22.62 C 43.86 21.38 42.62 20.14 41.38 18.90 Z" />
<path fill="#ffffff" opacity="1.00" d=" M 10.83 36.36 C 14.62 32.58 18.40 28.79 22.19 25.00 C 23.13 25.96 24.08 26.92 25.02 27.88 C 23.55 31.04 23.67 35.08 26.32 37.59 C 28.82 40.32 32.91 40.46 36.12 38.98 C 37.08 39.92 38.04 40.87 39.00 41.82 C 35.21 45.60 31.43 49.40 27.63 53.17 C 26.40 51.92 25.17 50.68 23.93 49.44 C 25.38 47.99 26.84 46.54 28.29 45.09 C 25.16 41.97 22.04 38.85 18.92 35.72 C 17.45 37.17 16.00 38.63 14.53 40.08 C 13.30 38.84 12.07 37.59 10.83 36.36 Z" />
<path fill="#ffffff" opacity="1.00" d=" M 30.87 27.85 C 33.99 27.61 36.37 30.03 36.15 33.13 C 34.26 31.50 32.50 29.74 30.87 27.85 Z" />
<path fill="#ffffff" opacity="1.00" d=" M 33.13 36.15 C 30.02 36.38 27.61 34.00 27.92 30.89 C 29.77 32.53 31.51 34.29 33.13 36.15 Z" />
<path fill="#ffffff" opacity="1.00" d=" M 21.08 46.64 C 19.91 44.97 15.99 43.25 18.84 41.25 C 20.08 42.55 21.35 43.83 22.63 45.09 C 22.25 45.47 21.47 46.25 21.08 46.64 Z" />
</g>
<g id="#000000ff">
<path fill="#000000" opacity="1.00" d=" M 5.89 19.98 C 6.03 12.45 12.47 6.04 19.99 5.89 C 20.00 7.21 20.00 8.52 20.00 9.84 C 14.58 10.10 10.09 14.56 9.85 20.00 C 8.53 20.00 7.21 19.99 5.89 19.98 Z" />
<path fill="#000000" opacity="1.00" d=" M 5.17 36.36 C 15.57 25.97 25.97 15.57 36.36 5.17 C 43.86 12.66 51.34 20.15 58.83 27.64 C 48.43 38.03 38.03 48.43 27.63 58.83 C 20.16 51.33 12.65 43.86 5.17 36.36 M 36.36 10.83 C 32.57 14.62 28.78 18.40 25.00 22.19 C 25.96 23.13 26.92 24.08 27.88 25.02 C 31.06 23.54 35.12 23.67 37.63 26.36 C 40.32 28.87 40.45 32.93 38.98 36.12 C 39.92 37.08 40.87 38.04 41.81 39.00 C 45.60 35.21 49.39 31.43 53.17 27.63 C 51.93 26.39 50.70 25.16 49.47 23.92 C 48.00 25.37 46.55 26.83 45.08 28.28 C 41.96 25.16 38.85 22.03 35.73 18.91 C 37.17 17.44 38.64 15.98 40.09 14.50 C 38.84 13.29 37.59 12.06 36.36 10.83 M 41.38 18.90 C 42.62 20.14 43.86 21.38 45.09 22.62 C 45.48 22.24 46.25 21.46 46.64 21.07 C 45.39 19.84 44.14 18.61 42.90 17.38 C 42.52 17.76 41.76 18.52 41.38 18.90 M 10.83 36.36 C 12.07 37.59 13.30 38.84 14.53 40.08 C 16.00 38.63 17.45 37.17 18.92 35.72 C 22.04 38.85 25.16 41.97 28.29 45.09 C 26.84 46.54 25.38 47.99 23.93 49.44 C 25.17 50.68 26.40 51.92 27.63 53.17 C 31.43 49.40 35.21 45.60 39.00 41.82 C 38.04 40.87 37.08 39.92 36.12 38.98 C 32.91 40.46 28.82 40.32 26.32 37.59 C 23.67 35.08 23.55 31.04 25.02 27.88 C 24.08 26.92 23.13 25.96 22.19 25.00 C 18.40 28.79 14.62 32.58 10.83 36.36 M 30.87 27.85 C 32.50 29.74 34.26 31.50 36.15 33.13 C 36.37 30.03 33.99 27.61 30.87 27.85 M 33.13 36.15 C 31.51 34.29 29.77 32.53 27.92 30.89 C 27.61 34.00 30.02 36.38 33.13 36.15 M 21.08 46.64 C 21.47 46.25 22.25 45.47 22.63 45.09 C 21.35 43.83 20.08 42.55 18.84 41.25 C 15.99 43.25 19.91 44.97 21.08 46.64 Z" />
<path fill="#000000" opacity="1.00" d=" M 13.77 19.98 C 14.24 16.72 16.72 14.23 19.98 13.77 C 19.98 15.05 19.98 16.32 19.97 17.60 C 19.16 18.37 18.37 19.16 17.61 19.97 C 16.33 19.98 15.05 19.98 13.77 19.98 Z" />
<path fill="#000000" opacity="1.00" d=" M 46.39 44.03 C 47.67 44.02 48.95 44.02 50.23 44.03 C 49.75 47.27 47.27 49.75 44.02 50.23 C 44.02 48.95 44.02 47.67 44.03 46.39 C 44.83 45.62 45.62 44.83 46.39 44.03 Z" />
<path fill="#000000" opacity="1.00" d=" M 54.15 44.00 C 55.47 44.00 56.79 44.01 58.11 44.02 C 57.93 51.54 51.54 57.94 44.01 58.11 C 44.01 56.79 44.00 55.47 44.00 54.15 C 49.44 53.87 53.87 49.44 54.15 44.00 Z" />
</g>
</svg>
