<?xml version="1.0" encoding="UTF-8" ?>
<!DOCTYPE svg PUBLIC "-//W3C//DTD SVG 1.1//EN" "http://www.w3.org/Graphics/SVG/1.1/DTD/svg11.dtd">
<svg width="64pt" height="64pt" viewBox="0 0 64 64" version="1.1" xmlns="http://www.w3.org/2000/svg">
<g id="#ffffffff">
<path fill="#ffffff" opacity="1.00" d=" M 0.00 0.00 L 64.00 0.00 L 64.00 14.00 C 42.67 14.00 21.33 14.00 0.00 14.00 L 0.00 0.00 Z" />
<path fill="#ffffff" opacity="1.00" d=" M 4.00 18.00 C 22.67 18.00 41.33 18.00 60.00 18.00 C 60.00 27.33 60.00 36.67 60.00 46.00 C 41.33 46.00 22.67 46.00 4.00 46.00 C 4.00 36.67 4.00 27.33 4.00 18.00 M 16.41 30.96 C 17.27 33.35 19.96 33.90 22.12 34.44 C 21.77 37.49 17.76 34.48 15.74 35.22 C 16.23 37.38 17.44 39.77 19.95 39.92 C 23.75 40.89 27.34 36.58 25.59 33.04 C 24.70 30.60 21.94 30.10 19.75 29.50 C 20.64 26.66 24.17 29.74 26.27 28.82 C 25.66 26.77 24.55 24.44 22.17 24.12 C 18.39 23.03 14.64 27.40 16.41 30.96 M 28.41 27.00 C 27.73 30.25 27.72 33.75 28.42 37.00 C 29.45 39.67 32.50 40.12 35.01 40.11 C 35.26 40.58 35.76 41.52 36.01 41.99 C 37.00 42.00 38.98 42.01 39.97 42.02 C 36.58 37.59 38.85 31.94 37.57 26.99 C 36.06 23.08 29.91 23.09 28.41 27.00 M 42.00 24.00 C 42.00 29.33 42.00 34.67 42.00 40.00 C 44.67 40.00 47.33 40.00 50.00 40.00 C 50.00 38.67 50.00 37.33 50.00 36.00 C 48.67 36.00 47.33 36.00 46.00 36.00 C 46.01 32.00 45.99 28.00 46.00 24.00 C 44.67 24.00 43.33 24.00 42.00 24.00 Z" />
<path fill="#ffffff" opacity="1.00" d=" M 32.05 28.01 C 35.36 27.72 33.54 31.98 34.03 33.99 L 32.21 33.99 C 32.34 34.62 32.60 35.88 32.73 36.51 C 31.41 33.87 32.18 30.83 32.05 28.01 Z" />
<path fill="#ffffff" opacity="1.00" d=" M 0.00 50.00 C 21.33 50.00 42.67 50.00 64.00 50.00 L 64.00 64.00 L 0.00 64.00 L 0.00 50.00 Z" />
</g>
<g id="#000000ff">
<path fill="#000000" opacity="1.00" d=" M 0.00 14.00 C 21.33 14.00 42.67 14.00 64.00 14.00 L 64.00 50.00 C 42.67 50.00 21.33 50.00 0.00 50.00 L 0.00 14.00 M 4.00 18.00 C 4.00 27.33 4.00 36.67 4.00 46.00 C 22.67 46.00 41.33 46.00 60.00 46.00 C 60.00 36.67 60.00 27.33 60.00 18.00 C 41.33 18.00 22.67 18.00 4.00 18.00 Z" />
<path fill="#000000" opacity="1.00" d=" M 16.41 30.96 C 14.64 27.40 18.39 23.03 22.17 24.12 C 24.55 24.44 25.66 26.77 26.27 28.82 C 24.17 29.74 20.64 26.66 19.75 29.50 C 21.94 30.10 24.70 30.60 25.59 33.04 C 27.34 36.58 23.75 40.89 19.95 39.92 C 17.44 39.77 16.23 37.38 15.74 35.22 C 17.76 34.48 21.77 37.49 22.12 34.44 C 19.96 33.90 17.27 33.35 16.41 30.96 Z" />
<path fill="#000000" opacity="1.00" d=" M 28.41 27.00 C 29.91 23.09 36.06 23.08 37.57 26.99 C 38.85 31.94 36.58 37.59 39.97 42.02 C 38.98 42.01 37.00 42.00 36.01 41.99 C 35.76 41.52 35.26 40.58 35.01 40.11 C 32.50 40.12 29.45 39.67 28.42 37.00 C 27.72 33.75 27.73 30.25 28.41 27.00 M 32.05 28.01 C 32.18 30.83 31.41 33.87 32.73 36.51 C 32.60 35.88 32.34 34.62 32.21 33.99 L 34.03 33.99 C 33.54 31.98 35.36 27.72 32.05 28.01 Z" />
<path fill="#000000" opacity="1.00" d=" M 42.00 24.00 C 43.33 24.00 44.67 24.00 46.00 24.00 C 45.99 28.00 46.01 32.00 46.00 36.00 C 47.33 36.00 48.67 36.00 50.00 36.00 C 50.00 37.33 50.00 38.67 50.00 40.00 C 47.33 40.00 44.67 40.00 42.00 40.00 C 42.00 34.67 42.00 29.33 42.00 24.00 Z" />
</g>
</svg>
