<?xml version="1.0" encoding="UTF-8" ?>
<!DOCTYPE svg PUBLIC "-//W3C//DTD SVG 1.1//EN" "http://www.w3.org/Graphics/SVG/1.1/DTD/svg11.dtd">
<svg width="64pt" height="64pt" viewBox="0 0 64 64" version="1.1" xmlns="http://www.w3.org/2000/svg">
<g id="#ffffffff">
<path fill="#ffffff" opacity="1.00" d=" M 0.00 0.00 L 64.00 0.00 L 64.00 64.00 L 0.00 64.00 L 0.00 0.00 M 22.24 14.88 C 20.82 26.19 26.76 36.84 25.88 48.13 C 25.44 51.46 22.27 54.08 18.93 53.99 C 15.29 54.03 11.96 50.82 12.04 47.15 C 11.94 36.10 12.03 25.05 12.00 14.00 C 10.67 14.00 9.33 14.00 8.00 14.00 C 8.03 25.01 7.95 36.01 8.03 47.02 C 7.98 51.39 10.84 55.56 14.89 57.17 C 20.97 59.89 28.64 55.64 29.75 49.14 C 31.18 37.84 25.26 27.19 26.11 15.91 C 26.48 12.96 29.01 10.48 31.94 10.09 C 35.97 9.33 40.08 12.80 39.96 16.91 C 40.11 24.96 39.87 33.02 40.06 41.07 C 40.14 43.62 41.18 46.25 43.31 47.76 C 45.80 49.64 49.03 49.71 52.00 49.99 C 52.00 51.99 52.00 53.99 52.00 55.99 C 54.67 53.33 57.34 50.67 60.00 48.00 C 57.33 45.32 54.64 42.67 52.00 39.96 C 52.00 41.97 52.00 43.97 51.99 45.98 C 49.12 45.68 44.61 45.66 44.20 41.87 C 43.66 33.24 44.29 24.56 43.89 15.91 C 43.55 11.75 40.54 7.96 36.59 6.63 C 30.57 4.31 23.29 8.56 22.24 14.88 Z" />
</g>
<g id="#000000ff">
<path fill="#000000" opacity="1.00" d=" M 22.24 14.88 C 23.29 8.56 30.57 4.31 36.59 6.63 C 40.54 7.96 43.55 11.75 43.89 15.91 C 44.29 24.56 43.66 33.24 44.20 41.87 C 44.61 45.66 49.12 45.68 51.99 45.98 C 52.00 43.97 52.00 41.97 52.00 39.96 C 54.64 42.67 57.33 45.32 60.00 48.00 C 57.34 50.67 54.67 53.33 52.00 55.99 C 52.00 53.99 52.00 51.99 52.00 49.99 C 49.03 49.71 45.80 49.64 43.31 47.76 C 41.18 46.25 40.14 43.62 40.06 41.07 C 39.87 33.02 40.11 24.96 39.96 16.91 C 40.08 12.80 35.97 9.33 31.94 10.09 C 29.01 10.48 26.48 12.96 26.11 15.91 C 25.26 27.19 31.18 37.84 29.75 49.14 C 28.64 55.64 20.97 59.89 14.89 57.17 C 10.84 55.56 7.98 51.39 8.03 47.02 C 7.95 36.01 8.03 25.01 8.00 14.00 C 9.33 14.00 10.67 14.00 12.00 14.00 C 12.03 25.05 11.94 36.10 12.04 47.15 C 11.96 50.82 15.29 54.03 18.93 53.99 C 22.27 54.08 25.44 51.46 25.88 48.13 C 26.76 36.84 20.82 26.19 22.24 14.88 Z" />
</g>
</svg>
