<?xml version="1.0" encoding="UTF-8" ?>
<!DOCTYPE svg PUBLIC "-//W3C//DTD SVG 1.1//EN" "http://www.w3.org/Graphics/SVG/1.1/DTD/svg11.dtd">
<svg width="64pt" height="64pt" viewBox="0 0 64 64" version="1.1" xmlns="http://www.w3.org/2000/svg">
<g id="#ffffffff">
<path fill="#ffffff" opacity="1.00" d=" M 0.00 0.00 L 64.00 0.00 L 64.00 64.00 L 0.00 64.00 L 0.00 0.00 M 12.43 12.01 C 10.40 20.33 8.22 28.61 6.24 36.94 C 5.69 41.94 6.14 46.98 6.00 52.00 C 23.33 52.00 40.67 52.00 58.00 52.00 C 57.72 45.69 58.82 39.19 56.85 33.06 C 55.05 26.05 53.33 19.03 51.57 12.01 C 38.53 11.99 25.48 12.00 12.43 12.01 Z" />
<path fill="#ffffff" opacity="1.00" d=" M 15.55 16.01 C 26.52 15.99 37.48 15.99 48.44 16.01 C 50.10 22.67 51.77 29.34 53.44 36.00 C 39.15 36.00 24.85 36.00 10.56 36.00 C 12.23 29.34 13.90 22.67 15.55 16.01 Z" />
<path fill="#ffffff" opacity="1.00" d=" M 10.00 40.00 C 24.67 40.00 39.33 40.00 54.00 40.00 C 54.00 42.67 54.00 45.33 54.00 48.00 C 39.33 48.00 24.67 48.00 10.00 48.00 C 10.00 45.33 10.00 42.67 10.00 40.00 M 14.00 42.00 C 14.00 43.33 14.00 44.67 14.00 46.00 C 15.33 46.00 16.67 46.00 18.00 46.00 C 18.00 44.67 18.00 43.33 18.00 42.00 C 16.67 42.00 15.33 42.00 14.00 42.00 M 20.00 42.00 C 20.00 43.33 20.00 44.67 20.00 46.00 C 21.33 46.00 22.67 46.00 24.00 46.00 C 24.00 44.67 24.00 43.33 24.00 42.00 C 22.67 42.00 21.33 42.00 20.00 42.00 M 26.00 42.00 C 26.00 43.33 26.00 44.67 26.00 46.00 C 27.33 46.00 28.67 46.00 30.00 46.00 C 30.00 44.67 30.00 43.33 30.00 42.00 C 28.67 42.00 27.33 42.00 26.00 42.00 M 32.00 42.00 C 32.00 43.33 32.00 44.67 32.00 46.00 C 33.33 46.00 34.67 46.00 36.00 46.00 C 36.00 44.67 36.00 43.33 36.00 42.00 C 34.67 42.00 33.33 42.00 32.00 42.00 M 47.18 42.11 C 44.87 43.20 46.37 46.82 48.80 45.89 C 51.15 44.83 49.61 41.14 47.18 42.11 Z" />
</g>
<g id="#000000ff">
<path fill="#000000" opacity="1.00" d=" M 12.43 12.01 C 25.48 12.00 38.53 11.99 51.57 12.01 C 53.33 19.03 55.05 26.05 56.85 33.06 C 58.82 39.19 57.72 45.69 58.00 52.00 C 40.67 52.00 23.33 52.00 6.00 52.00 C 6.14 46.98 5.69 41.94 6.24 36.94 C 8.22 28.61 10.40 20.33 12.43 12.01 M 15.55 16.01 C 13.90 22.67 12.23 29.34 10.56 36.00 C 24.85 36.00 39.15 36.00 53.44 36.00 C 51.77 29.34 50.10 22.67 48.44 16.01 C 37.48 15.99 26.52 15.99 15.55 16.01 M 10.00 40.00 C 10.00 42.67 10.00 45.33 10.00 48.00 C 24.67 48.00 39.33 48.00 54.00 48.00 C 54.00 45.33 54.00 42.67 54.00 40.00 C 39.33 40.00 24.67 40.00 10.00 40.00 Z" />
<path fill="#000000" opacity="1.00" d=" M 14.00 42.00 C 15.33 42.00 16.67 42.00 18.00 42.00 C 18.00 43.33 18.00 44.67 18.00 46.00 C 16.67 46.00 15.33 46.00 14.00 46.00 C 14.00 44.67 14.00 43.33 14.00 42.00 Z" />
<path fill="#000000" opacity="1.00" d=" M 20.00 42.00 C 21.33 42.00 22.67 42.00 24.00 42.00 C 24.00 43.33 24.00 44.67 24.00 46.00 C 22.67 46.00 21.33 46.00 20.00 46.00 C 20.00 44.67 20.00 43.33 20.00 42.00 Z" />
<path fill="#000000" opacity="1.00" d=" M 26.00 42.00 C 27.33 42.00 28.67 42.00 30.00 42.00 C 30.00 43.33 30.00 44.67 30.00 46.00 C 28.67 46.00 27.33 46.00 26.00 46.00 C 26.00 44.67 26.00 43.33 26.00 42.00 Z" />
<path fill="#000000" opacity="1.00" d=" M 32.00 42.00 C 33.33 42.00 34.67 42.00 36.00 42.00 C 36.00 43.33 36.00 44.67 36.00 46.00 C 34.67 46.00 33.33 46.00 32.00 46.00 C 32.00 44.67 32.00 43.33 32.00 42.00 Z" />
<path fill="#000000" opacity="1.00" d=" M 47.18 42.11 C 49.61 41.14 51.15 44.83 48.80 45.89 C 46.37 46.82 44.87 43.20 47.18 42.11 Z" />
</g>
</svg>
