<?xml version="1.0" encoding="UTF-8" ?>
<!DOCTYPE svg PUBLIC "-//W3C//DTD SVG 1.1//EN" "http://www.w3.org/Graphics/SVG/1.1/DTD/svg11.dtd">
<svg width="64pt" height="64pt" viewBox="0 0 64 64" version="1.1" xmlns="http://www.w3.org/2000/svg">
<g id="#ffffffff">
<path fill="#ffffff" opacity="1.00" d=" M 0.00 0.00 L 64.00 0.00 L 64.00 64.00 L 0.00 64.00 L 0.00 0.00 M 14.12 16.03 C 8.54 22.13 6.57 31.22 9.09 39.09 C 11.49 47.07 18.36 53.47 26.47 55.34 C 34.19 57.24 42.75 54.92 48.47 49.41 C 52.98 45.23 55.53 39.28 56.03 33.20 C 47.62 24.79 39.21 16.38 30.80 7.97 C 24.48 8.45 18.31 11.22 14.12 16.03 Z" />
<path fill="#ffffff" opacity="1.00" d=" M 13.82 23.75 C 16.50 18.06 21.99 14.04 28.06 12.66 C 28.31 24.98 39.02 35.67 51.33 35.93 C 50.10 41.04 47.18 45.82 42.74 48.72 C 35.43 53.84 24.73 52.76 18.35 46.62 C 12.15 41.01 10.19 31.30 13.82 23.75 Z" />
<path fill="#ffffff" opacity="1.00" d=" M 32.68 15.56 C 37.98 20.76 43.23 26.01 48.43 31.32 C 40.58 29.86 34.12 23.42 32.68 15.56 Z" />
</g>
<g id="#000000ff">
<path fill="#000000" opacity="1.00" d=" M 14.12 16.03 C 18.31 11.22 24.48 8.45 30.80 7.97 C 39.21 16.38 47.62 24.79 56.03 33.20 C 55.53 39.28 52.98 45.23 48.47 49.41 C 42.75 54.92 34.19 57.24 26.47 55.34 C 18.36 53.47 11.49 47.07 9.09 39.09 C 6.57 31.22 8.54 22.13 14.12 16.03 M 13.82 23.75 C 10.19 31.30 12.15 41.01 18.35 46.62 C 24.73 52.76 35.43 53.84 42.74 48.72 C 47.18 45.82 50.10 41.04 51.33 35.93 C 39.02 35.67 28.31 24.98 28.06 12.66 C 21.99 14.04 16.50 18.06 13.82 23.75 M 32.68 15.56 C 34.12 23.42 40.58 29.86 48.43 31.32 C 43.23 26.01 37.98 20.76 32.68 15.56 Z" />
</g>
</svg>
