<?xml version="1.0" encoding="UTF-8" ?>
<!DOCTYPE svg PUBLIC "-//W3C//DTD SVG 1.1//EN" "http://www.w3.org/Graphics/SVG/1.1/DTD/svg11.dtd">
<svg width="64pt" height="64pt" viewBox="0 0 64 64" version="1.1" xmlns="http://www.w3.org/2000/svg">
<g id="#ffffffff">
<path fill="#ffffff" opacity="1.00" d=" M 0.00 0.00 L 64.00 0.00 L 64.00 64.00 L 0.00 64.00 L 0.00 0.00 M 25.94 10.01 C 26.09 14.99 26.59 20.34 30.06 24.24 C 29.91 28.22 30.22 32.32 29.15 36.19 C 28.83 37.64 27.44 38.43 26.03 37.84 C 22.29 36.91 17.98 34.63 14.44 37.40 C 9.66 41.39 10.23 48.38 9.99 54.00 C 11.32 54.00 12.66 54.00 13.99 54.00 C 14.41 49.46 13.33 43.53 17.28 40.30 C 21.85 39.44 27.20 44.46 31.26 40.29 C 36.49 33.48 31.50 23.61 36.65 16.70 C 38.81 13.64 43.57 13.12 46.34 15.64 C 50.34 19.19 51.53 24.83 51.91 29.95 C 52.37 35.81 51.07 42.41 46.27 46.28 C 41.79 49.80 35.01 51.45 29.97 48.13 C 26.76 46.45 23.48 42.74 19.54 44.47 C 16.09 46.27 16.15 50.64 15.90 53.99 C 17.23 54.00 18.55 54.00 19.88 54.00 C 20.04 51.86 20.49 49.75 21.04 47.68 C 25.21 49.65 28.87 52.78 33.45 53.76 C 41.86 55.01 50.97 50.22 54.09 42.18 C 57.10 34.40 56.44 25.34 52.97 17.83 C 50.67 12.69 44.89 8.55 39.12 10.46 C 35.04 11.42 32.63 15.08 30.97 18.63 C 30.46 15.78 30.03 12.90 29.93 10.00 C 28.60 10.00 27.27 10.00 25.94 10.01 Z" />
</g>
<g id="#000000ff">
<path fill="#000000" opacity="1.00" d=" M 25.94 10.01 C 27.27 10.00 28.60 10.00 29.93 10.00 C 30.03 12.90 30.46 15.78 30.97 18.63 C 32.63 15.08 35.04 11.42 39.12 10.46 C 44.89 8.55 50.67 12.69 52.97 17.83 C 56.44 25.34 57.10 34.40 54.09 42.18 C 50.97 50.22 41.86 55.01 33.45 53.76 C 28.87 52.78 25.21 49.65 21.04 47.68 C 20.49 49.75 20.04 51.86 19.88 54.00 C 18.55 54.00 17.23 54.00 15.90 53.99 C 16.15 50.64 16.09 46.27 19.54 44.47 C 23.48 42.74 26.76 46.45 29.97 48.13 C 35.01 51.45 41.79 49.80 46.27 46.28 C 51.07 42.41 52.37 35.81 51.91 29.95 C 51.53 24.83 50.34 19.19 46.34 15.64 C 43.57 13.12 38.81 13.64 36.65 16.70 C 31.50 23.61 36.49 33.48 31.26 40.29 C 27.20 44.46 21.85 39.44 17.28 40.30 C 13.33 43.53 14.41 49.46 13.99 54.00 C 12.66 54.00 11.32 54.00 9.99 54.00 C 10.23 48.38 9.66 41.39 14.44 37.40 C 17.98 34.63 22.29 36.91 26.03 37.84 C 27.44 38.43 28.83 37.64 29.15 36.19 C 30.22 32.32 29.91 28.22 30.06 24.24 C 26.59 20.34 26.09 14.99 25.94 10.01 Z" />
</g>
</svg>
