<?xml version="1.0" encoding="UTF-8" ?>
<!DOCTYPE svg PUBLIC "-//W3C//DTD SVG 1.1//EN" "http://www.w3.org/Graphics/SVG/1.1/DTD/svg11.dtd">
<svg width="64pt" height="64pt" viewBox="0 0 64 64" version="1.1" xmlns="http://www.w3.org/2000/svg">
<g id="#ffffffff">
<path fill="#ffffff" opacity="1.00" d=" M 0.00 0.00 L 64.00 0.00 L 64.00 64.00 L 0.00 64.00 L 0.00 0.00 M 10.92 11.96 C 5.76 14.91 2.96 21.35 4.37 27.14 C 4.96 30.25 7.03 32.74 9.11 35.01 C 6.55 40.26 8.72 47.34 14.43 49.35 C 19.57 50.73 25.00 49.81 30.26 50.05 C 30.57 47.33 27.79 47.02 25.85 46.42 C 22.49 45.56 18.88 46.65 15.57 45.51 C 11.82 44.03 10.79 38.57 13.74 35.82 C 15.26 34.05 17.72 34.15 19.83 33.92 C 20.16 32.34 19.88 30.41 21.19 29.21 C 22.30 27.87 24.17 28.20 25.69 27.91 C 26.39 24.22 28.89 20.52 32.91 20.12 C 37.05 19.37 40.51 22.47 42.04 26.04 C 44.18 26.13 46.65 26.00 48.21 27.77 C 49.96 29.24 49.90 31.64 50.12 33.71 C 52.12 34.49 54.47 35.26 55.38 37.42 C 57.05 40.54 55.17 44.80 51.79 45.74 C 48.89 46.32 45.92 46.01 42.99 46.07 C 42.37 47.40 41.76 48.73 41.14 50.06 C 44.79 50.00 48.46 50.32 52.08 49.77 C 57.64 48.77 61.37 42.43 59.54 37.07 C 58.78 34.22 56.42 32.30 54.11 30.70 C 53.08 26.01 49.25 22.45 44.48 21.85 C 41.85 18.19 37.53 15.52 32.88 16.10 C 28.58 16.36 25.14 19.39 22.95 22.90 C 21.34 21.52 19.41 20.17 18.95 17.96 C 18.02 15.09 19.69 12.36 20.73 9.79 C 17.39 10.04 13.83 10.09 10.92 11.96 M 33.94 30.02 C 32.01 34.35 29.99 38.64 28.00 42.94 C 30.00 43.60 32.00 44.27 34.00 44.94 C 34.00 48.62 33.99 52.31 34.02 56.00 C 35.99 51.65 38.00 47.33 40.00 43.00 C 38.00 42.33 36.00 41.66 34.00 41.00 C 34.00 37.34 34.02 33.68 33.94 30.02 Z" />
<path fill="#ffffff" opacity="1.00" d=" M 8.25 21.82 C 8.86 18.40 11.73 16.17 14.53 14.49 C 14.43 18.67 16.12 22.64 19.36 25.31 C 18.02 26.74 16.94 28.37 16.02 30.10 C 14.61 30.71 13.22 31.36 11.85 32.05 C 9.14 29.43 7.27 25.65 8.25 21.82 Z" />
</g>
<g id="#000000ff">
<path fill="#000000" opacity="1.00" d=" M 10.92 11.96 C 13.83 10.09 17.39 10.04 20.73 9.79 C 19.69 12.36 18.02 15.09 18.95 17.96 C 19.41 20.17 21.34 21.52 22.95 22.90 C 25.14 19.39 28.58 16.36 32.88 16.10 C 37.53 15.52 41.85 18.19 44.48 21.85 C 49.25 22.45 53.08 26.01 54.11 30.70 C 56.42 32.30 58.78 34.22 59.54 37.07 C 61.37 42.43 57.64 48.77 52.08 49.77 C 48.46 50.32 44.79 50.00 41.14 50.06 C 41.76 48.73 42.37 47.40 42.99 46.07 C 45.92 46.01 48.89 46.32 51.79 45.74 C 55.17 44.80 57.05 40.54 55.38 37.42 C 54.47 35.26 52.12 34.49 50.12 33.71 C 49.90 31.64 49.96 29.24 48.21 27.77 C 46.65 26.00 44.18 26.13 42.04 26.04 C 40.51 22.47 37.05 19.37 32.91 20.12 C 28.89 20.52 26.39 24.22 25.69 27.91 C 24.17 28.20 22.30 27.87 21.19 29.21 C 19.88 30.41 20.16 32.34 19.83 33.92 C 17.72 34.15 15.26 34.05 13.74 35.82 C 10.79 38.57 11.82 44.03 15.57 45.51 C 18.88 46.65 22.49 45.56 25.85 46.42 C 27.79 47.02 30.57 47.33 30.26 50.05 C 25.00 49.81 19.57 50.73 14.43 49.35 C 8.72 47.34 6.55 40.26 9.11 35.01 C 7.03 32.74 4.96 30.25 4.37 27.14 C 2.96 21.35 5.76 14.91 10.92 11.96 M 8.25 21.82 C 7.27 25.65 9.14 29.43 11.85 32.05 C 13.22 31.36 14.61 30.71 16.02 30.10 C 16.94 28.37 18.02 26.74 19.36 25.31 C 16.12 22.64 14.43 18.67 14.53 14.49 C 11.73 16.17 8.86 18.40 8.25 21.82 Z" />
<path fill="#000000" opacity="1.00" d=" M 33.94 30.02 C 34.02 33.68 34.00 37.34 34.00 41.00 C 36.00 41.66 38.00 42.33 40.00 43.00 C 38.00 47.33 35.99 51.65 34.02 56.00 C 33.99 52.31 34.00 48.62 34.00 44.94 C 32.00 44.27 30.00 43.60 28.00 42.94 C 29.99 38.64 32.01 34.35 33.94 30.02 Z" />
</g>
</svg>
