<?xml version="1.0" encoding="UTF-8" ?>
<!DOCTYPE svg PUBLIC "-//W3C//DTD SVG 1.1//EN" "http://www.w3.org/Graphics/SVG/1.1/DTD/svg11.dtd">
<svg width="64pt" height="64pt" viewBox="0 0 64 64" version="1.1" xmlns="http://www.w3.org/2000/svg">
<g id="#ffffffff">
<path fill="#ffffff" opacity="1.00" d=" M 0.00 0.00 L 64.00 0.00 L 64.00 64.00 L 0.00 64.00 L 0.00 0.00 M 8.73 22.53 C 7.16 25.82 8.42 29.47 10.55 32.16 C 5.53 36.58 8.33 45.72 14.02 48.31 C 14.97 51.22 16.58 54.16 19.58 55.35 C 23.70 56.90 27.37 60.10 31.98 60.00 C 36.61 60.11 40.30 56.91 44.44 55.33 C 47.43 54.14 49.03 51.21 49.97 48.30 C 55.63 45.73 58.40 36.74 53.57 32.23 C 55.66 29.47 56.80 25.78 55.26 22.47 C 51.50 13.34 43.43 4.74 33.07 4.05 C 21.88 3.62 12.68 12.74 8.73 22.53 Z" />
<path fill="#ffffff" opacity="1.00" d=" M 12.81 23.09 C 16.26 15.50 23.22 8.26 32.04 8.02 C 40.88 8.18 47.78 15.53 51.19 23.10 C 52.42 25.33 52.06 27.98 50.15 29.70 C 49.75 27.25 50.65 24.27 48.76 22.28 C 45.48 18.61 40.55 17.04 35.84 16.24 C 37.77 14.13 34.99 11.98 34.11 10.02 C 33.58 10.48 32.53 11.41 32.00 11.87 C 31.48 11.40 30.44 10.46 29.92 9.99 C 28.97 11.61 27.99 13.22 27.01 14.83 C 27.55 15.21 28.09 15.60 28.63 15.99 C 29.13 14.64 29.64 13.30 30.16 11.96 C 30.64 12.44 31.59 13.40 32.07 13.88 C 32.49 13.42 33.32 12.50 33.74 12.04 C 34.34 13.43 34.95 14.82 35.54 16.21 C 28.61 15.54 20.93 16.82 15.71 21.76 C 13.35 23.70 14.19 26.99 13.86 29.64 C 12.02 27.90 11.55 25.31 12.81 23.09 Z" />
<path fill="#ffffff" opacity="1.00" d=" M 17.63 25.64 C 21.03 21.38 26.83 20.10 32.02 20.03 C 37.20 20.11 42.97 21.39 46.37 25.63 C 37.53 20.83 26.46 20.82 17.63 25.64 Z" />
<path fill="#ffffff" opacity="1.00" d=" M 26.71 26.36 C 30.23 25.99 33.77 25.99 37.29 26.36 C 36.25 27.25 35.21 28.14 34.13 29.00 C 35.22 29.56 36.30 30.14 37.38 30.71 C 40.13 29.71 43.08 29.99 45.93 30.05 C 45.99 35.70 46.13 41.35 45.91 46.99 C 45.94 49.07 44.69 51.04 42.69 51.71 C 38.47 53.22 34.71 57.02 29.90 55.79 C 26.91 54.70 24.24 52.87 21.28 51.69 C 19.34 51.04 18.08 49.13 18.10 47.10 C 17.87 41.42 18.02 35.74 18.06 30.06 C 20.92 29.99 23.87 29.71 26.62 30.71 C 27.70 30.14 28.78 29.57 29.87 29.00 C 28.79 28.15 27.75 27.26 26.71 26.36 M 24.85 39.66 C 24.62 40.44 24.15 42.00 23.92 42.78 C 22.70 41.91 21.47 41.06 20.25 40.19 C 20.29 42.16 19.39 44.52 20.93 46.12 C 22.56 48.02 23.61 51.29 26.74 50.26 C 27.79 50.80 28.65 52.16 29.99 51.79 C 32.52 51.38 35.33 52.47 37.29 50.28 C 37.94 50.27 39.26 50.26 39.91 50.25 C 42.49 47.50 44.93 44.12 43.74 40.12 C 42.59 40.98 41.46 41.86 40.32 42.74 C 39.90 41.74 39.50 40.74 39.12 39.73 C 40.00 37.95 40.45 35.69 38.84 34.15 C 36.91 33.42 36.47 35.45 35.77 36.73 C 33.31 35.91 30.71 35.91 28.24 36.72 C 27.88 36.08 27.16 34.79 26.80 34.15 C 23.66 33.42 23.58 37.80 24.85 39.66 Z" />
<path fill="#ffffff" opacity="1.00" d=" M 12.06 35.79 C 15.55 36.51 13.51 41.07 13.86 43.55 C 12.31 41.26 11.84 38.52 12.06 35.79 Z" />
<path fill="#ffffff" opacity="1.00" d=" M 50.14 43.55 C 50.48 41.05 48.46 36.54 51.91 35.74 C 52.18 38.48 51.69 41.24 50.14 43.55 Z" />
<path fill="#ffffff" opacity="1.00" d=" M 29.54 40.67 C 31.76 39.28 35.57 40.11 36.04 43.00 C 35.40 46.99 28.52 46.95 27.94 42.93 C 28.17 41.95 28.70 41.19 29.54 40.67 Z" />
</g>
<g id="#000000ff">
<path fill="#000000" opacity="1.00" d=" M 8.73 22.53 C 12.68 12.74 21.88 3.62 33.07 4.05 C 43.43 4.74 51.50 13.34 55.26 22.47 C 56.80 25.78 55.66 29.47 53.57 32.23 C 58.40 36.74 55.63 45.73 49.97 48.30 C 49.03 51.21 47.43 54.14 44.44 55.33 C 40.30 56.91 36.61 60.11 31.98 60.00 C 27.37 60.10 23.70 56.90 19.58 55.35 C 16.58 54.16 14.97 51.22 14.02 48.31 C 8.33 45.72 5.53 36.58 10.55 32.16 C 8.42 29.47 7.16 25.82 8.73 22.53 M 12.81 23.09 C 11.55 25.31 12.02 27.90 13.86 29.64 C 14.19 26.99 13.35 23.70 15.71 21.76 C 20.93 16.82 28.61 15.54 35.54 16.21 C 34.95 14.82 34.34 13.43 33.74 12.04 C 33.32 12.50 32.49 13.42 32.07 13.88 C 31.59 13.40 30.64 12.44 30.16 11.96 C 29.64 13.30 29.13 14.64 28.63 15.99 C 28.09 15.60 27.55 15.21 27.01 14.83 C 27.99 13.22 28.97 11.61 29.92 9.99 C 30.44 10.46 31.48 11.40 32.00 11.87 C 32.53 11.41 33.58 10.48 34.11 10.02 C 34.99 11.98 37.77 14.13 35.84 16.24 C 40.55 17.04 45.48 18.61 48.76 22.28 C 50.65 24.27 49.75 27.25 50.15 29.70 C 52.06 27.98 52.42 25.33 51.19 23.10 C 47.78 15.53 40.88 8.18 32.04 8.02 C 23.22 8.26 16.26 15.50 12.81 23.09 M 17.63 25.64 C 26.46 20.82 37.53 20.83 46.37 25.63 C 42.97 21.39 37.20 20.11 32.02 20.03 C 26.83 20.10 21.03 21.38 17.63 25.64 M 26.71 26.36 C 27.75 27.26 28.79 28.15 29.87 29.00 C 28.78 29.57 27.70 30.14 26.62 30.71 C 23.87 29.71 20.92 29.99 18.06 30.06 C 18.02 35.74 17.87 41.42 18.10 47.10 C 18.08 49.13 19.34 51.04 21.28 51.69 C 24.24 52.87 26.91 54.70 29.90 55.79 C 34.71 57.02 38.47 53.22 42.69 51.71 C 44.69 51.04 45.94 49.07 45.91 46.99 C 46.13 41.35 45.99 35.70 45.93 30.05 C 43.08 29.99 40.13 29.71 37.38 30.71 C 36.30 30.14 35.22 29.56 34.13 29.00 C 35.21 28.14 36.25 27.25 37.29 26.36 C 33.77 25.99 30.23 25.99 26.71 26.36 M 12.06 35.79 C 11.84 38.52 12.31 41.26 13.86 43.55 C 13.51 41.07 15.55 36.51 12.06 35.79 M 50.14 43.55 C 51.69 41.24 52.18 38.48 51.91 35.74 C 48.46 36.54 50.48 41.05 50.14 43.55 Z" />
<path fill="#000000" opacity="1.00" d=" M 24.85 39.66 C 23.58 37.80 23.66 33.42 26.80 34.15 C 27.16 34.79 27.88 36.08 28.24 36.72 C 30.71 35.91 33.31 35.91 35.77 36.73 C 36.47 35.45 36.91 33.42 38.84 34.15 C 40.45 35.69 40.00 37.95 39.12 39.73 C 39.50 40.74 39.90 41.74 40.32 42.74 C 41.46 41.86 42.59 40.98 43.74 40.12 C 44.93 44.12 42.49 47.50 39.91 50.25 C 39.26 50.26 37.94 50.27 37.29 50.28 C 35.33 52.47 32.52 51.38 29.99 51.79 C 28.65 52.16 27.79 50.80 26.74 50.26 C 23.61 51.29 22.56 48.02 20.93 46.12 C 19.39 44.52 20.29 42.16 20.25 40.19 C 21.47 41.06 22.70 41.91 23.92 42.78 C 24.15 42.00 24.62 40.44 24.85 39.66 M 29.54 40.67 C 28.70 41.19 28.17 41.95 27.94 42.93 C 28.52 46.95 35.40 46.99 36.04 43.00 C 35.57 40.11 31.76 39.28 29.54 40.67 Z" />
</g>
</svg>
