<?xml version="1.0" encoding="UTF-8" ?>
<!DOCTYPE svg PUBLIC "-//W3C//DTD SVG 1.1//EN" "http://www.w3.org/Graphics/SVG/1.1/DTD/svg11.dtd">
<svg width="64pt" height="64pt" viewBox="0 0 64 64" version="1.1" xmlns="http://www.w3.org/2000/svg">
<g id="#ffffffff">
<path fill="#ffffff" opacity="1.00" d=" M 0.00 0.00 L 64.00 0.00 L 64.00 64.00 L 0.00 64.00 L 0.00 0.00 M 33.04 22.44 C 26.16 19.20 17.51 18.96 10.78 22.68 C 6.18 25.52 8.58 31.66 8.01 36.06 C 6.61 36.81 5.22 37.58 3.83 38.36 C 4.45 39.50 5.07 40.65 5.68 41.81 C 6.26 41.51 7.42 40.93 8.00 40.63 C 8.00 42.06 8.00 43.48 8.00 44.91 C 6.71 45.34 5.42 45.78 4.13 46.22 C 4.54 47.48 4.96 48.73 5.37 49.99 C 6.40 49.66 7.43 49.33 8.46 49.00 C 11.18 52.49 15.66 53.78 19.91 53.90 C 24.65 54.06 29.96 53.92 33.81 50.78 C 37.17 48.14 35.72 43.46 35.99 39.81 C 43.96 37.20 51.92 34.54 59.87 31.87 C 59.46 30.62 59.04 29.38 58.63 28.13 C 51.08 30.62 43.54 33.14 35.99 35.63 C 36.04 32.24 36.03 28.86 35.86 25.48 C 43.25 21.45 50.66 17.48 58.06 13.48 C 57.40 12.32 56.78 11.15 56.18 9.97 C 48.43 14.06 40.80 18.37 33.04 22.44 Z" />
<path fill="#ffffff" opacity="1.00" d=" M 15.69 24.84 C 21.15 23.53 27.74 23.33 32.34 27.07 C 26.58 31.00 18.33 30.97 12.33 27.60 C 11.80 25.66 14.42 25.46 15.69 24.84 M 18.01 27.57 C 20.48 27.55 24.68 29.25 25.97 26.42 C 23.50 26.44 19.33 24.75 18.01 27.57 Z" />
<path fill="#ffffff" opacity="1.00" d=" M 11.99 32.13 C 18.37 34.62 25.64 34.61 32.01 32.13 C 32.00 33.74 32.00 35.36 31.99 36.97 C 25.31 39.11 18.67 41.38 12.00 43.57 C 11.99 39.75 12.01 35.94 11.99 32.13 Z" />
<path fill="#ffffff" opacity="1.00" d=" M 12.39 47.75 C 18.91 45.48 25.46 43.33 32.00 41.12 C 31.78 43.73 33.11 47.70 29.74 48.73 C 24.19 50.59 17.61 50.65 12.39 47.75 Z" />
</g>
<g id="#000000ff">
<path fill="#000000" opacity="1.00" d=" M 33.04 22.44 C 40.80 18.37 48.43 14.06 56.18 9.97 C 56.78 11.15 57.40 12.32 58.06 13.48 C 50.66 17.48 43.25 21.45 35.86 25.48 C 36.03 28.86 36.04 32.24 35.99 35.63 C 43.54 33.14 51.08 30.62 58.63 28.13 C 59.04 29.38 59.46 30.62 59.87 31.87 C 51.92 34.54 43.96 37.20 35.99 39.81 C 35.72 43.46 37.17 48.14 33.81 50.78 C 29.96 53.92 24.65 54.06 19.91 53.90 C 15.66 53.78 11.18 52.49 8.46 49.00 C 7.43 49.33 6.40 49.66 5.37 49.99 C 4.96 48.73 4.54 47.48 4.13 46.22 C 5.42 45.78 6.71 45.34 8.00 44.91 C 8.00 43.48 8.00 42.06 8.00 40.63 C 7.42 40.93 6.26 41.51 5.68 41.81 C 5.07 40.65 4.45 39.50 3.83 38.36 C 5.22 37.58 6.61 36.81 8.01 36.06 C 8.58 31.66 6.18 25.52 10.78 22.68 C 17.51 18.96 26.16 19.20 33.04 22.44 M 15.69 24.84 C 14.42 25.46 11.80 25.66 12.33 27.60 C 18.33 30.97 26.58 31.00 32.34 27.07 C 27.74 23.33 21.15 23.53 15.69 24.84 M 11.99 32.13 C 12.01 35.94 11.99 39.75 12.00 43.57 C 18.67 41.38 25.31 39.11 31.99 36.97 C 32.00 35.36 32.00 33.74 32.01 32.13 C 25.64 34.61 18.37 34.62 11.99 32.13 M 12.39 47.75 C 17.61 50.65 24.19 50.59 29.74 48.73 C 33.11 47.70 31.78 43.73 32.00 41.12 C 25.46 43.33 18.91 45.48 12.39 47.75 Z" />
<path fill="#000000" opacity="1.00" d=" M 18.01 27.57 C 19.33 24.75 23.50 26.44 25.97 26.42 C 24.68 29.25 20.48 27.55 18.01 27.57 Z" />
</g>
</svg>
