<?xml version="1.0" encoding="UTF-8" ?>
<!DOCTYPE svg PUBLIC "-//W3C//DTD SVG 1.1//EN" "http://www.w3.org/Graphics/SVG/1.1/DTD/svg11.dtd">
<svg width="64pt" height="64pt" viewBox="0 0 64 64" version="1.1" xmlns="http://www.w3.org/2000/svg">
<g id="#ffffffff">
<path fill="#ffffff" opacity="1.00" d=" M 0.00 0.00 L 64.00 0.00 L 64.00 64.00 L 48.00 64.00 C 48.00 62.00 48.00 60.00 48.00 58.00 C 50.67 58.00 53.33 58.00 56.00 58.00 C 55.97 44.48 56.47 30.85 54.23 17.47 C 52.69 12.03 46.94 9.90 42.02 8.59 C 42.01 6.39 42.00 4.20 41.99 2.00 C 35.33 2.00 28.67 2.00 22.01 2.00 C 22.00 4.19 21.99 6.38 21.98 8.58 C 17.33 9.96 11.48 11.51 9.98 16.81 C 7.57 30.40 7.99 44.25 8.00 58.00 C 10.67 58.00 13.33 58.00 16.00 58.00 C 16.00 60.00 16.00 62.00 16.00 64.00 L 0.00 64.00 L 0.00 0.00 Z" />
<path fill="#ffffff" opacity="1.00" d=" M 25.95 6.00 C 29.98 6.00 34.02 6.00 38.05 6.00 C 37.93 7.94 38.24 10.16 36.84 11.73 C 34.58 14.77 29.39 14.77 27.15 11.72 C 25.75 10.15 26.07 7.93 25.95 6.00 Z" />
<path fill="#ffffff" opacity="1.00" d=" M 20.02 13.40 C 20.71 13.17 22.09 12.71 22.78 12.48 C 24.73 15.66 28.11 18.06 31.94 18.00 C 35.81 18.10 39.26 15.70 41.21 12.48 C 41.91 12.71 43.29 13.17 43.98 13.40 C 44.03 22.03 43.98 30.67 44.01 39.31 C 43.12 39.96 42.23 40.62 41.34 41.27 C 39.78 40.13 38.22 38.98 36.66 37.84 C 35.11 38.99 33.55 40.13 31.99 41.26 C 30.44 40.14 28.90 39.01 27.36 37.87 C 25.81 38.98 24.26 40.10 22.73 41.24 C 21.82 40.60 20.91 39.96 19.99 39.32 C 20.02 30.68 19.97 22.04 20.02 13.40 Z" />
<path fill="#ffffff" opacity="1.00" d=" M 13.58 19.07 C 13.69 17.40 14.87 16.15 15.92 14.96 C 16.10 25.30 15.95 35.65 16.00 46.00 C 14.67 46.00 13.33 46.00 12.00 46.00 C 11.75 36.99 12.45 28.00 13.58 19.07 Z" />
<path fill="#ffffff" opacity="1.00" d=" M 48.06 15.10 C 48.98 16.32 50.32 17.41 50.47 19.03 C 51.64 27.97 52.21 36.99 52.00 46.00 C 50.67 46.00 49.33 46.00 48.00 46.00 C 48.04 35.70 47.92 25.40 48.06 15.10 Z" />
<path fill="#ffffff" opacity="1.00" d=" M 22.67 46.22 C 24.23 45.08 25.80 43.94 27.38 42.82 C 28.91 43.97 30.46 45.10 32.01 46.22 C 33.57 45.07 35.15 43.93 36.73 42.81 C 38.27 43.98 39.84 45.12 41.43 46.22 C 42.07 45.73 43.36 44.75 44.00 44.26 C 44.00 46.84 44.00 49.42 44.00 52.00 C 36.00 52.00 28.00 52.00 20.00 52.00 C 20.00 49.43 20.00 46.86 20.00 44.29 C 20.67 44.77 22.00 45.74 22.67 46.22 Z" />
<path fill="#ffffff" opacity="1.00" d=" M 12.00 50.00 C 13.33 50.00 14.67 50.00 16.00 50.00 C 16.00 51.33 16.00 52.67 16.00 54.00 C 14.67 54.00 13.33 54.00 12.00 54.00 C 12.00 52.67 12.00 51.33 12.00 50.00 Z" />
<path fill="#ffffff" opacity="1.00" d=" M 48.00 50.00 C 49.33 50.00 50.67 50.00 52.00 50.00 C 52.00 51.33 52.00 52.67 52.00 54.00 C 50.67 54.00 49.33 54.00 48.00 54.00 C 48.00 52.67 48.00 51.33 48.00 50.00 Z" />
<path fill="#ffffff" opacity="1.00" d=" M 20.00 56.00 C 28.00 56.00 36.00 56.00 44.00 56.00 C 44.00 57.33 44.00 58.67 44.00 60.00 C 36.00 60.00 28.00 60.00 20.00 60.00 C 20.00 58.67 20.00 57.33 20.00 56.00 Z" />
</g>
<g id="#000000ff">
<path fill="#000000" opacity="1.00" d=" M 22.01 2.00 C 28.67 2.00 35.33 2.00 41.99 2.00 C 42.00 4.20 42.01 6.39 42.02 8.59 C 46.94 9.90 52.69 12.03 54.23 17.47 C 56.47 30.85 55.97 44.48 56.00 58.00 C 53.33 58.00 50.67 58.00 48.00 58.00 C 48.00 60.00 48.00 62.00 48.00 64.00 L 16.00 64.00 C 16.00 62.00 16.00 60.00 16.00 58.00 C 13.33 58.00 10.67 58.00 8.00 58.00 C 7.99 44.25 7.57 30.40 9.98 16.81 C 11.48 11.51 17.33 9.96 21.98 8.58 C 21.99 6.38 22.00 4.19 22.01 2.00 M 25.95 6.00 C 26.07 7.93 25.75 10.15 27.15 11.72 C 29.39 14.77 34.58 14.77 36.84 11.73 C 38.24 10.16 37.93 7.94 38.05 6.00 C 34.02 6.00 29.98 6.00 25.95 6.00 M 20.02 13.40 C 19.97 22.04 20.02 30.68 19.99 39.32 C 20.91 39.96 21.82 40.60 22.73 41.24 C 24.26 40.10 25.81 38.98 27.36 37.87 C 28.90 39.01 30.44 40.14 31.99 41.26 C 33.55 40.13 35.11 38.99 36.66 37.84 C 38.22 38.98 39.78 40.13 41.34 41.27 C 42.23 40.62 43.12 39.96 44.01 39.31 C 43.98 30.67 44.03 22.03 43.98 13.40 C 43.29 13.17 41.91 12.71 41.21 12.48 C 39.26 15.70 35.81 18.10 31.94 18.00 C 28.11 18.06 24.73 15.66 22.78 12.48 C 22.09 12.71 20.71 13.17 20.02 13.40 M 13.58 19.07 C 12.45 28.00 11.75 36.99 12.00 46.00 C 13.33 46.00 14.67 46.00 16.00 46.00 C 15.95 35.65 16.10 25.30 15.92 14.96 C 14.87 16.15 13.69 17.40 13.58 19.07 M 48.06 15.10 C 47.92 25.40 48.04 35.70 48.00 46.00 C 49.33 46.00 50.67 46.00 52.00 46.00 C 52.21 36.99 51.64 27.97 50.47 19.03 C 50.32 17.41 48.98 16.32 48.06 15.10 M 22.67 46.22 C 22.00 45.74 20.67 44.77 20.00 44.29 C 20.00 46.86 20.00 49.43 20.00 52.00 C 28.00 52.00 36.00 52.00 44.00 52.00 C 44.00 49.42 44.00 46.84 44.00 44.26 C 43.36 44.75 42.07 45.73 41.43 46.22 C 39.84 45.12 38.27 43.98 36.73 42.81 C 35.15 43.93 33.57 45.07 32.01 46.22 C 30.46 45.10 28.91 43.97 27.38 42.82 C 25.80 43.94 24.23 45.08 22.67 46.22 M 12.00 50.00 C 12.00 51.33 12.00 52.67 12.00 54.00 C 13.33 54.00 14.67 54.00 16.00 54.00 C 16.00 52.67 16.00 51.33 16.00 50.00 C 14.67 50.00 13.33 50.00 12.00 50.00 M 48.00 50.00 C 48.00 51.33 48.00 52.67 48.00 54.00 C 49.33 54.00 50.67 54.00 52.00 54.00 C 52.00 52.67 52.00 51.33 52.00 50.00 C 50.67 50.00 49.33 50.00 48.00 50.00 M 20.00 56.00 C 20.00 57.33 20.00 58.67 20.00 60.00 C 28.00 60.00 36.00 60.00 44.00 60.00 C 44.00 58.67 44.00 57.33 44.00 56.00 C 36.00 56.00 28.00 56.00 20.00 56.00 Z" />
</g>
</svg>
