<?xml version="1.0" encoding="UTF-8" ?>
<!DOCTYPE svg PUBLIC "-//W3C//DTD SVG 1.1//EN" "http://www.w3.org/Graphics/SVG/1.1/DTD/svg11.dtd">
<svg width="64pt" height="64pt" viewBox="0 0 64 64" version="1.1" xmlns="http://www.w3.org/2000/svg">
<g id="#ffffffff">
<path fill="#ffffff" opacity="1.00" d=" M 0.00 0.00 L 64.00 0.00 L 64.00 64.00 L 0.00 64.00 L 0.00 0.00 M 20.00 6.00 C 19.75 10.03 20.79 14.32 18.91 18.08 C 16.35 23.37 20.45 28.49 22.09 33.38 C 17.82 37.76 15.70 43.86 15.94 49.94 C 18.86 50.03 21.94 50.01 24.57 51.47 C 28.03 53.17 30.06 56.59 32.00 59.75 C 33.85 56.79 35.69 53.59 38.82 51.80 C 41.57 50.06 44.92 50.01 48.06 49.94 C 48.34 43.77 46.04 37.72 41.86 33.20 C 43.35 29.87 45.08 26.59 45.87 23.01 C 46.45 20.23 44.73 17.78 44.09 15.20 C 43.84 12.14 44.06 9.06 44.00 6.00 C 42.67 6.00 41.33 6.00 40.00 6.00 C 40.00 8.67 40.00 11.34 39.99 14.01 C 36.83 14.55 34.04 16.21 31.99 18.67 C 29.97 16.19 27.16 14.56 24.01 14.01 C 24.00 11.34 24.00 8.67 24.00 6.00 C 22.67 6.00 21.33 6.00 20.00 6.00 Z" />
<path fill="#ffffff" opacity="1.00" d=" M 23.13 17.93 C 26.13 18.45 28.95 20.04 30.17 22.95 C 30.57 24.52 32.24 23.83 33.38 23.97 C 34.44 20.59 37.45 18.44 40.87 17.93 C 43.66 23.48 39.01 28.77 37.13 33.82 C 40.33 37.31 42.76 41.50 43.74 46.16 C 39.19 46.88 35.01 49.18 32.00 52.68 C 28.98 49.19 24.81 46.89 20.25 46.16 C 21.22 41.49 23.68 37.31 26.87 33.81 C 24.96 28.76 20.35 23.48 23.13 17.93 Z" />
</g>
<g id="#000000ff">
<path fill="#000000" opacity="1.00" d=" M 20.00 6.00 C 21.33 6.00 22.67 6.00 24.00 6.00 C 24.00 8.67 24.00 11.34 24.01 14.01 C 27.16 14.56 29.97 16.19 31.99 18.67 C 34.04 16.21 36.83 14.55 39.99 14.01 C 40.00 11.34 40.00 8.67 40.00 6.00 C 41.33 6.00 42.67 6.00 44.00 6.00 C 44.06 9.06 43.84 12.14 44.09 15.20 C 44.73 17.78 46.45 20.23 45.87 23.01 C 45.08 26.59 43.35 29.87 41.86 33.20 C 46.04 37.72 48.34 43.77 48.06 49.94 C 44.92 50.01 41.57 50.06 38.82 51.80 C 35.69 53.59 33.85 56.79 32.00 59.75 C 30.06 56.59 28.03 53.17 24.57 51.47 C 21.94 50.01 18.86 50.03 15.94 49.94 C 15.70 43.86 17.82 37.76 22.09 33.38 C 20.45 28.49 16.35 23.37 18.91 18.08 C 20.79 14.32 19.75 10.03 20.00 6.00 M 23.13 17.93 C 20.35 23.48 24.96 28.76 26.87 33.81 C 23.68 37.31 21.22 41.49 20.25 46.16 C 24.81 46.89 28.98 49.19 32.00 52.68 C 35.01 49.18 39.19 46.88 43.74 46.16 C 42.76 41.50 40.33 37.31 37.13 33.82 C 39.01 28.77 43.66 23.48 40.87 17.93 C 37.45 18.44 34.44 20.59 33.38 23.97 C 32.24 23.83 30.57 24.52 30.17 22.95 C 28.95 20.04 26.13 18.45 23.13 17.93 Z" />
</g>
</svg>
