<?xml version="1.0" encoding="UTF-8" ?>
<!DOCTYPE svg PUBLIC "-//W3C//DTD SVG 1.1//EN" "http://www.w3.org/Graphics/SVG/1.1/DTD/svg11.dtd">
<svg width="64pt" height="64pt" viewBox="0 0 64 64" version="1.1" xmlns="http://www.w3.org/2000/svg">
<g id="#ffffffff">
<path fill="#ffffff" opacity="1.00" d=" M 0.00 0.00 L 64.00 0.00 L 64.00 64.00 L 0.00 64.00 L 0.00 0.00 M 8.82 20.54 C 9.72 23.32 11.90 25.34 14.01 27.23 C 10.13 31.55 7.76 37.19 8.01 43.06 C 7.69 47.76 10.90 51.78 14.44 54.48 C 22.68 60.63 34.20 61.51 43.64 57.78 C 48.75 55.63 53.80 51.94 55.62 46.48 C 56.98 39.63 54.70 32.38 50.00 27.26 C 52.10 25.33 54.28 23.29 55.19 20.50 C 57.12 14.89 55.28 8.73 52.10 3.95 C 48.36 6.68 44.68 9.50 40.95 12.23 C 35.29 9.48 28.71 9.47 23.05 12.23 C 19.32 9.49 15.64 6.68 11.91 3.93 C 8.73 8.73 6.85 14.91 8.82 20.54 Z" />
<path fill="#ffffff" opacity="1.00" d=" M 13.09 9.89 C 15.24 11.47 17.37 13.07 19.52 14.65 C 17.34 17.02 15.78 19.83 14.55 22.79 C 11.51 19.13 11.58 14.17 13.09 9.89 Z" />
<path fill="#ffffff" opacity="1.00" d=" M 44.48 14.65 C 46.63 13.07 48.76 11.47 50.92 9.89 C 52.42 14.17 52.48 19.14 49.45 22.79 C 48.22 19.83 46.66 17.02 44.48 14.65 Z" />
<path fill="#ffffff" opacity="1.00" d=" M 22.43 17.43 C 28.41 12.60 37.87 13.15 43.07 18.87 C 45.53 21.56 45.88 25.31 46.10 28.77 C 49.54 32.33 52.34 36.84 52.01 41.99 C 52.49 46.01 49.70 49.41 46.63 51.60 C 40.16 56.23 31.48 57.00 23.95 54.86 C 19.13 53.38 14.27 50.35 12.34 45.49 C 10.83 39.33 13.45 33.05 17.90 28.77 C 18.01 24.63 18.88 20.05 22.43 17.43 M 25.17 28.11 C 22.86 29.14 24.39 32.89 26.77 31.84 C 29.21 30.89 27.54 27.08 25.17 28.11 M 37.18 28.17 C 34.78 29.10 36.48 32.94 38.75 31.83 C 41.26 30.99 39.52 26.98 37.18 28.17 M 27.50 34.74 C 22.92 36.13 19.05 40.81 20.22 45.78 C 21.66 52.12 29.23 55.09 35.12 53.63 C 40.39 52.69 45.26 47.45 43.69 41.86 C 41.87 35.22 33.54 32.59 27.50 34.74 Z" />
<path fill="#ffffff" opacity="1.00" d=" M 28.46 38.63 C 32.89 36.72 40.46 39.07 39.90 44.80 C 38.04 51.49 26.91 51.75 24.28 45.50 C 23.17 42.49 25.72 39.54 28.46 38.63 M 27.13 42.12 C 24.85 43.29 26.44 46.84 28.86 45.88 C 31.15 44.72 29.54 41.13 27.13 42.12 M 35.25 42.09 C 32.83 43.08 34.36 46.88 36.82 45.90 C 39.09 44.81 37.66 41.22 35.25 42.09 Z" />
</g>
<g id="#000000ff">
<path fill="#000000" opacity="1.00" d=" M 8.82 20.54 C 6.85 14.91 8.73 8.73 11.91 3.93 C 15.64 6.68 19.32 9.49 23.05 12.23 C 28.71 9.47 35.29 9.48 40.95 12.23 C 44.68 9.50 48.36 6.68 52.10 3.95 C 55.28 8.73 57.12 14.89 55.19 20.50 C 54.28 23.29 52.10 25.33 50.00 27.26 C 54.70 32.38 56.98 39.63 55.62 46.48 C 53.80 51.94 48.75 55.63 43.64 57.78 C 34.20 61.51 22.68 60.63 14.44 54.48 C 10.90 51.78 7.69 47.76 8.01 43.06 C 7.76 37.19 10.13 31.55 14.01 27.23 C 11.90 25.34 9.72 23.32 8.82 20.54 M 13.09 9.89 C 11.58 14.17 11.51 19.13 14.55 22.79 C 15.78 19.83 17.34 17.02 19.52 14.65 C 17.37 13.07 15.24 11.47 13.09 9.89 M 44.48 14.65 C 46.66 17.02 48.22 19.83 49.45 22.79 C 52.48 19.14 52.42 14.17 50.92 9.89 C 48.76 11.47 46.63 13.07 44.48 14.65 M 22.43 17.43 C 18.88 20.05 18.01 24.63 17.90 28.77 C 13.45 33.05 10.83 39.33 12.34 45.49 C 14.27 50.35 19.13 53.38 23.95 54.86 C 31.48 57.00 40.16 56.23 46.63 51.60 C 49.70 49.41 52.49 46.01 52.01 41.99 C 52.34 36.84 49.54 32.33 46.10 28.77 C 45.88 25.31 45.53 21.56 43.07 18.87 C 37.87 13.15 28.41 12.60 22.43 17.43 Z" />
<path fill="#000000" opacity="1.00" d=" M 25.17 28.11 C 27.54 27.08 29.21 30.89 26.77 31.84 C 24.39 32.89 22.86 29.14 25.17 28.11 Z" />
<path fill="#000000" opacity="1.00" d=" M 37.18 28.17 C 39.52 26.98 41.26 30.99 38.75 31.83 C 36.48 32.94 34.78 29.10 37.18 28.17 Z" />
<path fill="#000000" opacity="1.00" d=" M 27.50 34.74 C 33.54 32.59 41.87 35.22 43.69 41.86 C 45.26 47.45 40.39 52.69 35.12 53.63 C 29.23 55.09 21.66 52.12 20.22 45.78 C 19.05 40.81 22.92 36.13 27.50 34.74 M 28.46 38.63 C 25.72 39.54 23.17 42.49 24.28 45.50 C 26.91 51.75 38.04 51.49 39.90 44.80 C 40.46 39.07 32.89 36.72 28.46 38.63 Z" />
<path fill="#000000" opacity="1.00" d=" M 27.13 42.12 C 29.54 41.13 31.15 44.72 28.86 45.88 C 26.44 46.84 24.85 43.29 27.13 42.12 Z" />
<path fill="#000000" opacity="1.00" d=" M 35.25 42.09 C 37.66 41.22 39.09 44.81 36.82 45.90 C 34.36 46.88 32.83 43.08 35.25 42.09 Z" />
</g>
</svg>
