<?xml version="1.0" encoding="UTF-8" ?>
<!DOCTYPE svg PUBLIC "-//W3C//DTD SVG 1.1//EN" "http://www.w3.org/Graphics/SVG/1.1/DTD/svg11.dtd">
<svg width="64pt" height="64pt" viewBox="0 0 64 64" version="1.1" xmlns="http://www.w3.org/2000/svg">
<g id="#ffffffff">
<path fill="#ffffff" opacity="1.00" d=" M 0.00 0.00 L 64.00 0.00 L 64.00 64.00 L 0.00 64.00 L 0.00 0.00 M 18.25 8.25 C 13.61 9.31 12.52 16.17 16.34 18.83 C 19.71 21.47 25.48 19.39 25.91 14.99 C 26.85 10.74 22.33 6.83 18.25 8.25 M 13.43 27.68 C 9.95 31.09 14.42 35.45 15.66 38.89 C 16.85 38.30 18.04 37.70 19.23 37.10 C 18.11 34.96 17.09 32.77 16.02 30.61 C 17.32 29.75 18.62 28.89 19.91 28.03 C 22.52 31.68 25.58 35.04 27.94 38.87 C 28.11 44.57 27.94 50.29 28.00 56.00 C 29.33 56.00 30.67 56.00 32.00 56.00 C 31.99 50.65 32.02 45.31 32.00 39.96 C 32.04 38.59 31.90 37.14 30.99 36.04 C 28.47 32.57 25.78 29.22 23.24 25.76 C 29.20 21.74 35.15 17.69 41.12 13.66 C 40.37 12.56 39.62 11.45 38.88 10.34 C 30.41 16.14 21.82 21.77 13.43 27.68 M 36.18 29.60 C 34.69 27.63 33.20 25.66 31.71 23.68 C 30.60 24.42 29.49 25.16 28.38 25.90 C 30.10 28.09 31.59 30.46 33.50 32.50 C 34.80 33.91 37.11 33.84 38.58 32.73 C 43.58 29.33 48.52 25.84 53.47 22.36 C 52.71 21.27 51.95 20.18 51.19 19.10 C 46.18 22.59 41.21 26.13 36.18 29.60 Z" />
<path fill="#ffffff" opacity="1.00" d=" M 19.18 12.11 C 22.15 10.72 23.16 16.26 20.01 15.95 C 17.84 16.37 17.22 12.76 19.18 12.11 Z" />
</g>
<g id="#000000ff">
<path fill="#000000" opacity="1.00" d=" M 18.25 8.25 C 22.33 6.83 26.85 10.74 25.91 14.99 C 25.48 19.39 19.71 21.47 16.34 18.83 C 12.52 16.17 13.61 9.31 18.25 8.25 M 19.18 12.11 C 17.22 12.76 17.84 16.37 20.01 15.95 C 23.16 16.26 22.15 10.72 19.18 12.11 Z" />
<path fill="#000000" opacity="1.00" d=" M 13.43 27.68 C 21.82 21.77 30.41 16.14 38.88 10.34 C 39.62 11.45 40.37 12.56 41.12 13.66 C 35.15 17.69 29.20 21.74 23.24 25.76 C 25.78 29.22 28.47 32.57 30.99 36.04 C 31.90 37.14 32.04 38.59 32.00 39.96 C 32.02 45.31 31.99 50.65 32.00 56.00 C 30.67 56.00 29.33 56.00 28.00 56.00 C 27.94 50.29 28.11 44.57 27.94 38.87 C 25.58 35.04 22.52 31.68 19.91 28.03 C 18.62 28.89 17.32 29.75 16.02 30.61 C 17.09 32.77 18.11 34.96 19.23 37.10 C 18.04 37.70 16.85 38.30 15.66 38.89 C 14.42 35.45 9.95 31.09 13.43 27.68 Z" />
<path fill="#000000" opacity="1.00" d=" M 36.18 29.60 C 41.21 26.13 46.18 22.59 51.19 19.10 C 51.95 20.18 52.71 21.27 53.47 22.36 C 48.52 25.84 43.58 29.33 38.58 32.73 C 37.11 33.84 34.80 33.91 33.50 32.50 C 31.59 30.46 30.10 28.09 28.38 25.90 C 29.49 25.16 30.60 24.42 31.71 23.68 C 33.20 25.66 34.69 27.63 36.18 29.60 Z" />
</g>
</svg>
