<?xml version="1.0" encoding="UTF-8" ?>
<!DOCTYPE svg PUBLIC "-//W3C//DTD SVG 1.1//EN" "http://www.w3.org/Graphics/SVG/1.1/DTD/svg11.dtd">
<svg width="64pt" height="64pt" viewBox="0 0 64 64" version="1.1" xmlns="http://www.w3.org/2000/svg">
<g id="#ffffffff">
<path fill="#ffffff" opacity="1.00" d=" M 0.00 0.00 L 64.00 0.00 L 64.00 64.00 L 0.00 64.00 L 0.00 0.00 M 12.00 6.00 C 12.00 10.67 12.00 15.33 12.00 20.00 C 13.33 20.00 14.67 20.00 16.00 20.00 C 16.00 16.67 16.00 13.33 16.00 10.00 C 26.67 10.00 37.33 10.00 48.00 10.00 C 48.00 13.33 48.00 16.67 48.00 20.00 C 49.33 20.00 50.67 20.00 52.00 20.00 C 52.00 15.33 52.00 10.67 52.00 6.00 C 38.67 6.00 25.33 6.00 12.00 6.00 M 16.00 24.00 C 16.00 25.33 16.00 26.66 16.00 27.99 C 16.50 27.99 17.50 28.01 18.00 28.01 C 18.00 32.01 18.00 36.00 18.00 40.00 C 19.33 40.00 20.67 40.00 22.00 40.00 C 22.00 36.00 22.00 32.01 22.00 28.01 C 22.50 28.01 23.50 27.99 24.00 27.99 C 24.00 26.66 24.00 25.33 24.00 24.00 C 21.33 24.00 18.67 24.00 16.00 24.00 M 30.44 24.01 C 28.97 29.35 26.44 34.44 25.84 39.99 C 27.22 40.00 28.60 40.00 29.98 40.00 C 29.99 39.50 30.02 38.50 30.03 38.00 C 31.34 38.00 32.65 38.00 33.97 38.00 C 33.98 38.50 34.01 39.50 34.02 40.00 C 35.40 40.00 36.78 40.00 38.16 39.99 C 37.56 34.44 35.04 29.35 33.56 24.00 C 32.52 24.01 31.48 24.01 30.44 24.01 M 40.00 23.98 C 40.00 29.32 40.00 34.66 40.00 40.00 C 41.33 40.00 42.67 40.00 44.00 40.00 C 44.00 37.98 44.00 35.97 44.00 33.95 C 44.68 35.97 45.34 37.98 46.01 40.00 C 47.35 40.00 48.68 40.00 50.02 40.00 C 49.27 37.82 48.56 35.64 47.84 33.46 C 49.46 31.58 50.89 28.88 49.31 26.51 C 47.46 23.16 43.16 24.12 40.00 23.98 M 12.00 44.00 C 12.00 48.67 12.00 53.33 12.00 58.00 C 25.33 58.00 38.67 58.00 52.00 58.00 C 52.00 53.33 52.00 48.67 52.00 44.00 C 50.67 44.00 49.33 44.00 48.00 44.00 C 48.00 47.33 48.00 50.67 48.00 54.00 C 37.33 54.00 26.67 54.00 16.00 54.00 C 16.00 50.67 16.00 47.33 16.00 44.00 C 14.67 44.00 13.33 44.00 12.00 44.00 Z" />
<path fill="#ffffff" opacity="1.00" d=" M 44.07 28.17 C 45.70 27.62 46.25 28.18 45.74 29.85 C 44.11 30.35 43.56 29.79 44.07 28.17 Z" />
</g>
<g id="#000000ff">
<path fill="#000000" opacity="1.00" d=" M 12.00 6.00 C 25.33 6.00 38.67 6.00 52.00 6.00 C 52.00 10.67 52.00 15.33 52.00 20.00 C 50.67 20.00 49.33 20.00 48.00 20.00 C 48.00 16.67 48.00 13.33 48.00 10.00 C 37.33 10.00 26.67 10.00 16.00 10.00 C 16.00 13.33 16.00 16.67 16.00 20.00 C 14.67 20.00 13.33 20.00 12.00 20.00 C 12.00 15.33 12.00 10.67 12.00 6.00 Z" />
<path fill="#000000" opacity="1.00" d=" M 16.00 24.00 C 18.67 24.00 21.33 24.00 24.00 24.00 C 24.00 25.33 24.00 26.66 24.00 27.99 C 23.50 27.99 22.50 28.01 22.00 28.01 C 22.00 32.01 22.00 36.00 22.00 40.00 C 20.67 40.00 19.33 40.00 18.00 40.00 C 18.00 36.00 18.00 32.01 18.00 28.01 C 17.50 28.01 16.50 27.99 16.00 27.99 C 16.00 26.66 16.00 25.33 16.00 24.00 Z" />
<path fill="#000000" opacity="1.00" d=" M 30.44 24.01 C 31.48 24.01 32.52 24.01 33.56 24.00 C 35.04 29.35 37.56 34.44 38.16 39.99 C 36.78 40.00 35.40 40.00 34.02 40.00 C 34.01 39.50 33.98 38.50 33.97 38.00 C 32.65 38.00 31.34 38.00 30.03 38.00 C 30.02 38.50 29.99 39.50 29.98 40.00 C 28.60 40.00 27.22 40.00 25.84 39.99 C 26.44 34.44 28.97 29.35 30.44 24.01 Z" />
<path fill="#000000" opacity="1.00" d=" M 40.00 23.98 C 43.16 24.12 47.46 23.16 49.31 26.51 C 50.89 28.88 49.46 31.58 47.84 33.46 C 48.56 35.64 49.27 37.82 50.02 40.00 C 48.68 40.00 47.35 40.00 46.01 40.00 C 45.34 37.98 44.68 35.97 44.00 33.95 C 44.00 35.97 44.00 37.98 44.00 40.00 C 42.67 40.00 41.33 40.00 40.00 40.00 C 40.00 34.66 40.00 29.32 40.00 23.98 M 44.07 28.17 C 43.56 29.79 44.11 30.35 45.74 29.85 C 46.25 28.18 45.70 27.62 44.07 28.17 Z" />
<path fill="#000000" opacity="1.00" d=" M 12.00 44.00 C 13.33 44.00 14.67 44.00 16.00 44.00 C 16.00 47.33 16.00 50.67 16.00 54.00 C 26.67 54.00 37.33 54.00 48.00 54.00 C 48.00 50.67 48.00 47.33 48.00 44.00 C 49.33 44.00 50.67 44.00 52.00 44.00 C 52.00 48.67 52.00 53.33 52.00 58.00 C 38.67 58.00 25.33 58.00 12.00 58.00 C 12.00 53.33 12.00 48.67 12.00 44.00 Z" />
</g>
</svg>
