<?xml version="1.0" encoding="UTF-8" ?>
<!DOCTYPE svg PUBLIC "-//W3C//DTD SVG 1.1//EN" "http://www.w3.org/Graphics/SVG/1.1/DTD/svg11.dtd">
<svg width="64pt" height="64pt" viewBox="0 0 64 64" version="1.1" xmlns="http://www.w3.org/2000/svg">
<g id="#ffffffff">
<path fill="#ffffff" opacity="1.00" d=" M 0.00 0.00 L 64.00 0.00 L 64.00 64.00 L 0.00 64.00 L 0.00 0.00 M 10.02 7.90 C 10.01 9.23 10.00 10.55 10.00 11.88 C 12.55 12.22 15.67 12.31 17.26 14.70 C 19.52 18.50 20.07 23.37 23.88 26.15 C 15.65 30.88 13.30 43.09 19.77 50.21 C 25.66 57.88 38.46 57.82 44.31 50.13 C 50.67 43.01 48.33 30.88 40.15 26.17 C 43.90 23.34 44.49 18.50 46.75 14.69 C 48.34 12.30 51.45 12.22 54.00 11.88 C 54.00 10.55 53.99 9.23 53.98 7.90 C 50.58 8.22 46.83 8.66 44.36 11.31 C 40.77 14.66 41.51 21.30 36.55 23.33 C 33.06 24.27 28.81 24.53 25.72 22.35 C 22.49 19.18 22.70 13.82 19.15 10.83 C 16.68 8.56 13.20 8.23 10.02 7.90 Z" />
<path fill="#ffffff" opacity="1.00" d=" M 28.40 28.58 C 35.37 26.10 43.52 31.56 43.91 38.93 C 44.79 46.07 38.10 52.83 30.93 51.92 C 23.84 51.51 18.43 43.92 20.38 37.08 C 21.35 33.10 24.49 29.78 28.40 28.58 Z" />
</g>
<g id="#000000ff">
<path fill="#000000" opacity="1.00" d=" M 10.02 7.90 C 13.20 8.23 16.68 8.56 19.15 10.83 C 22.70 13.82 22.49 19.18 25.72 22.35 C 28.81 24.53 33.06 24.27 36.55 23.33 C 41.51 21.30 40.77 14.66 44.36 11.31 C 46.83 8.66 50.58 8.22 53.98 7.90 C 53.99 9.23 54.00 10.55 54.00 11.88 C 51.45 12.22 48.34 12.30 46.75 14.69 C 44.49 18.50 43.90 23.34 40.15 26.17 C 48.33 30.88 50.67 43.01 44.31 50.13 C 38.46 57.82 25.66 57.88 19.77 50.21 C 13.30 43.09 15.65 30.88 23.88 26.15 C 20.07 23.37 19.52 18.50 17.26 14.70 C 15.67 12.31 12.55 12.22 10.00 11.88 C 10.00 10.55 10.01 9.23 10.02 7.90 M 28.40 28.58 C 24.49 29.78 21.35 33.10 20.38 37.08 C 18.43 43.92 23.84 51.51 30.93 51.92 C 38.10 52.83 44.79 46.07 43.91 38.93 C 43.52 31.56 35.37 26.10 28.40 28.58 Z" />
</g>
</svg>
