<?xml version="1.0" encoding="UTF-8" ?>
<!DOCTYPE svg PUBLIC "-//W3C//DTD SVG 1.1//EN" "http://www.w3.org/Graphics/SVG/1.1/DTD/svg11.dtd">
<svg width="64pt" height="64pt" viewBox="0 0 64 64" version="1.1" xmlns="http://www.w3.org/2000/svg">
<g id="#ffffffff">
<path fill="#ffffff" opacity="1.00" d=" M 0.00 0.00 L 64.00 0.00 L 64.00 25.84 C 59.95 21.28 55.37 16.76 49.55 14.59 C 42.96 12.25 35.21 17.08 34.21 23.95 C 33.26 28.40 35.42 32.84 38.78 35.68 C 36.07 37.31 33.74 39.45 32.00 42.09 C 30.25 39.46 27.93 37.29 25.23 35.68 C 30.84 31.43 31.63 22.42 26.44 17.54 C 21.52 12.28 12.04 13.15 8.15 19.22 C 4.42 24.33 5.85 31.87 10.77 35.67 C 5.54 38.53 2.11 44.00 1.87 49.98 C 3.19 49.99 4.52 50.00 5.85 50.00 C 6.26 46.19 7.85 42.30 11.18 40.15 C 16.12 36.57 23.68 37.68 27.37 42.54 C 29.16 44.62 29.70 47.37 30.15 50.00 C 31.38 50.00 32.62 50.00 33.85 50.00 C 34.28 46.71 35.35 43.33 37.96 41.11 C 42.30 37.04 49.66 37.03 54.01 41.09 C 56.64 43.31 57.71 46.70 58.15 50.00 C 59.47 50.00 60.80 49.99 62.13 49.97 C 61.89 43.99 58.45 38.53 53.26 35.60 C 57.31 33.03 60.88 29.76 64.00 26.13 L 64.00 64.00 L 0.00 64.00 L 0.00 0.00 Z" />
<path fill="#ffffff" opacity="1.00" d=" M 15.37 18.45 C 19.13 17.06 23.72 19.00 25.27 22.70 C 27.12 26.53 25.24 31.60 21.33 33.25 C 17.48 35.15 12.35 33.23 10.71 29.27 C 8.74 25.20 11.04 19.80 15.37 18.45 Z" />
<path fill="#ffffff" opacity="1.00" d=" M 38.02 25.97 C 37.86 21.32 42.51 17.23 47.11 18.13 C 51.69 19.41 55.35 22.69 58.62 26.00 C 55.33 29.26 51.68 32.50 47.14 33.84 C 42.52 34.81 37.84 30.65 38.02 25.97 Z" />
</g>
<g id="#000000ff">
<path fill="#000000" opacity="1.00" d=" M 8.15 19.22 C 12.04 13.15 21.52 12.28 26.44 17.54 C 31.63 22.42 30.84 31.43 25.23 35.68 C 27.93 37.29 30.25 39.46 32.00 42.09 C 33.74 39.45 36.07 37.31 38.78 35.68 C 35.42 32.84 33.26 28.40 34.21 23.95 C 35.21 17.08 42.96 12.25 49.55 14.59 C 55.37 16.76 59.95 21.28 64.00 25.84 L 64.00 26.13 C 60.88 29.76 57.31 33.03 53.26 35.60 C 58.45 38.53 61.89 43.99 62.13 49.97 C 60.80 49.99 59.47 50.00 58.15 50.00 C 57.71 46.70 56.64 43.31 54.01 41.09 C 49.66 37.03 42.30 37.04 37.96 41.11 C 35.35 43.33 34.28 46.71 33.85 50.00 C 32.62 50.00 31.38 50.00 30.15 50.00 C 29.70 47.37 29.16 44.62 27.37 42.54 C 23.68 37.68 16.12 36.57 11.18 40.15 C 7.85 42.30 6.26 46.19 5.85 50.00 C 4.52 50.00 3.19 49.99 1.87 49.98 C 2.11 44.00 5.54 38.53 10.77 35.67 C 5.85 31.87 4.42 24.33 8.15 19.22 M 15.37 18.45 C 11.04 19.80 8.74 25.20 10.71 29.27 C 12.35 33.23 17.48 35.15 21.33 33.25 C 25.24 31.60 27.12 26.53 25.27 22.70 C 23.72 19.00 19.13 17.06 15.37 18.45 M 38.02 25.97 C 37.84 30.65 42.52 34.81 47.14 33.84 C 51.68 32.50 55.33 29.26 58.62 26.00 C 55.35 22.69 51.69 19.41 47.11 18.13 C 42.51 17.23 37.86 21.32 38.02 25.97 Z" />
</g>
</svg>
