<?xml version="1.0" encoding="UTF-8" ?>
<!DOCTYPE svg PUBLIC "-//W3C//DTD SVG 1.1//EN" "http://www.w3.org/Graphics/SVG/1.1/DTD/svg11.dtd">
<svg width="64pt" height="64pt" viewBox="0 0 64 64" version="1.1" xmlns="http://www.w3.org/2000/svg">
<g id="#ffffffff">
<path fill="#ffffff" opacity="1.00" d=" M 0.00 0.00 L 64.00 0.00 L 64.00 64.00 L 0.00 64.00 L 0.00 0.00 M 17.19 10.25 C 9.43 15.07 4.26 23.83 4.05 32.99 C 3.92 39.99 4.05 47.00 4.00 54.00 C 9.63 54.01 15.26 53.96 20.89 54.03 C 27.25 59.27 36.89 59.12 43.30 54.04 C 48.87 53.96 54.43 54.02 60.00 54.00 C 59.95 46.95 60.09 39.91 59.94 32.86 C 59.69 24.45 55.29 16.33 48.49 11.40 C 39.57 4.70 26.58 4.23 17.19 10.25 Z" />
<path fill="#ffffff" opacity="1.00" d=" M 8.83 27.75 C 11.56 16.80 22.82 8.89 34.05 10.10 C 44.99 10.81 54.57 19.98 55.77 30.86 C 56.27 37.23 55.88 43.62 56.00 50.00 C 53.02 49.99 50.04 50.00 47.07 50.01 C 48.37 47.56 49.44 44.97 50.15 42.28 C 55.41 41.23 55.44 32.68 50.10 31.73 C 49.86 29.58 50.06 27.13 48.54 25.36 C 46.73 23.17 43.55 23.78 41.18 22.73 C 39.98 21.48 40.26 19.56 39.85 18.00 C 38.62 18.00 37.40 18.00 36.17 18.00 C 35.76 19.74 35.66 22.03 33.70 22.81 C 28.26 25.28 21.77 22.59 16.42 25.40 C 14.47 26.44 14.18 28.76 13.80 30.71 C 11.98 31.96 9.88 33.58 9.99 36.04 C 9.87 38.68 12.19 40.25 14.15 41.47 C 14.68 44.47 15.64 47.37 17.15 50.02 C 14.10 49.99 11.05 49.99 8.00 50.00 C 8.31 42.60 7.24 35.04 8.83 27.75 Z" />
<path fill="#ffffff" opacity="1.00" d=" M 37.59 25.02 C 39.90 27.02 42.96 27.45 45.88 27.88 C 45.80 33.33 46.68 38.98 45.27 44.31 C 43.08 47.09 39.04 45.66 36.01 46.01 C 35.36 45.31 34.70 44.60 34.06 43.90 C 30.84 43.28 28.41 47.58 31.38 49.50 C 34.76 50.57 38.46 49.73 41.96 50.07 C 36.90 54.74 28.51 55.38 23.18 50.83 C 19.29 47.85 17.79 42.86 17.92 38.13 C 16.53 37.95 13.83 38.13 14.07 36.01 C 13.83 33.84 16.58 34.04 18.00 33.86 C 18.01 32.18 18.04 30.51 18.02 28.83 C 24.42 26.93 32.04 29.66 37.59 25.02 M 25.22 34.15 C 22.76 35.13 24.48 38.95 26.91 37.89 C 29.07 36.69 27.59 33.15 25.22 34.15 M 37.14 34.11 C 34.84 35.15 36.48 38.99 38.77 37.80 C 41.24 36.90 39.51 33.05 37.14 34.11 Z" />
</g>
<g id="#000000ff">
<path fill="#000000" opacity="1.00" d=" M 17.19 10.25 C 26.58 4.23 39.57 4.70 48.49 11.40 C 55.29 16.33 59.69 24.45 59.94 32.86 C 60.09 39.91 59.95 46.95 60.00 54.00 C 54.43 54.02 48.87 53.96 43.30 54.04 C 36.89 59.12 27.25 59.27 20.89 54.03 C 15.26 53.96 9.63 54.01 4.00 54.00 C 4.05 47.00 3.92 39.99 4.05 32.99 C 4.26 23.83 9.43 15.07 17.19 10.25 M 8.83 27.75 C 7.24 35.04 8.31 42.60 8.00 50.00 C 11.05 49.99 14.10 49.99 17.15 50.02 C 15.64 47.37 14.68 44.47 14.15 41.47 C 12.19 40.25 9.87 38.68 9.99 36.04 C 9.88 33.58 11.98 31.96 13.80 30.71 C 14.18 28.76 14.47 26.44 16.42 25.40 C 21.77 22.59 28.26 25.28 33.70 22.81 C 35.66 22.03 35.76 19.74 36.17 18.00 C 37.40 18.00 38.62 18.00 39.85 18.00 C 40.26 19.56 39.98 21.48 41.18 22.73 C 43.55 23.78 46.73 23.17 48.54 25.36 C 50.06 27.13 49.86 29.58 50.10 31.73 C 55.44 32.68 55.41 41.23 50.15 42.28 C 49.44 44.97 48.37 47.56 47.07 50.01 C 50.04 50.00 53.02 49.99 56.00 50.00 C 55.88 43.62 56.27 37.23 55.77 30.86 C 54.57 19.98 44.99 10.81 34.05 10.10 C 22.82 8.89 11.56 16.80 8.83 27.75 M 37.59 25.02 C 32.04 29.66 24.42 26.93 18.02 28.83 C 18.04 30.51 18.01 32.18 18.00 33.86 C 16.58 34.04 13.83 33.84 14.07 36.01 C 13.83 38.13 16.53 37.95 17.92 38.13 C 17.79 42.86 19.29 47.85 23.18 50.83 C 28.51 55.38 36.90 54.74 41.96 50.07 C 38.46 49.73 34.76 50.57 31.38 49.50 C 28.41 47.58 30.84 43.28 34.06 43.90 C 34.70 44.60 35.36 45.31 36.01 46.01 C 39.04 45.66 43.08 47.09 45.27 44.31 C 46.68 38.98 45.80 33.33 45.88 27.88 C 42.96 27.45 39.90 27.02 37.59 25.02 Z" />
<path fill="#000000" opacity="1.00" d=" M 25.22 34.15 C 27.59 33.15 29.07 36.69 26.91 37.89 C 24.48 38.95 22.76 35.13 25.22 34.15 Z" />
<path fill="#000000" opacity="1.00" d=" M 37.14 34.11 C 39.51 33.05 41.24 36.90 38.77 37.80 C 36.48 38.99 34.84 35.15 37.14 34.11 Z" />
</g>
</svg>
