<?xml version="1.0" encoding="UTF-8" ?>
<!DOCTYPE svg PUBLIC "-//W3C//DTD SVG 1.1//EN" "http://www.w3.org/Graphics/SVG/1.1/DTD/svg11.dtd">
<svg width="64pt" height="64pt" viewBox="0 0 64 64" version="1.1" xmlns="http://www.w3.org/2000/svg">
<g id="#ffffffff">
<path fill="#ffffff" opacity="1.00" d=" M 0.00 0.00 L 64.00 0.00 L 64.00 64.00 L 0.00 64.00 L 0.00 0.00 M 16.00 8.00 C 16.00 9.33 16.00 10.66 16.00 12.00 C 12.67 12.00 9.33 12.00 6.00 12.00 C 6.00 13.33 6.00 14.67 6.00 16.00 C 9.33 16.00 12.67 16.00 16.00 16.00 C 16.00 17.33 16.00 18.67 16.00 20.00 C 14.67 20.00 13.33 20.00 12.00 20.00 C 12.00 21.33 12.00 22.67 12.00 24.00 C 13.71 24.00 15.42 24.00 17.14 23.98 C 21.46 28.25 25.76 32.54 30.02 36.88 C 29.98 43.25 30.01 49.63 30.00 56.00 C 31.33 56.00 32.67 56.00 34.00 56.00 C 34.00 49.61 34.00 43.22 34.00 36.84 C 38.29 32.56 42.56 28.26 46.86 24.00 C 48.57 24.00 50.29 24.00 52.00 24.00 C 52.00 22.67 52.00 21.33 52.00 20.00 C 50.67 20.00 49.33 20.00 48.00 20.00 C 48.00 18.67 48.00 17.33 48.00 16.00 C 51.33 16.00 54.67 16.00 58.00 16.00 C 58.00 14.67 58.00 13.33 58.00 12.00 C 54.67 12.00 51.34 12.00 48.00 12.00 C 48.00 10.67 48.00 9.33 48.00 8.00 C 46.66 8.00 45.33 8.00 44.00 8.00 C 44.00 9.33 44.00 10.67 44.00 12.00 C 40.67 12.00 37.33 12.00 34.00 12.00 C 34.00 10.66 34.00 9.33 34.00 8.00 C 32.67 8.00 31.33 8.00 30.00 8.00 C 30.00 9.33 30.00 10.67 30.00 12.00 C 26.67 12.00 23.33 12.00 20.00 12.00 C 20.00 10.67 20.00 9.33 20.00 8.00 C 18.67 8.00 17.33 8.00 16.00 8.00 Z" />
<path fill="#ffffff" opacity="1.00" d=" M 20.00 16.00 C 23.33 16.00 26.67 16.00 30.00 16.00 C 30.00 17.33 30.00 18.67 30.00 20.00 C 26.67 20.00 23.33 20.00 20.00 20.00 C 20.00 18.67 20.00 17.33 20.00 16.00 Z" />
<path fill="#ffffff" opacity="1.00" d=" M 34.00 16.00 C 37.33 16.00 40.67 16.00 44.00 16.00 C 44.00 17.33 44.00 18.67 44.00 20.00 C 40.67 20.00 37.33 20.00 34.00 20.00 C 34.00 18.67 34.00 17.33 34.00 16.00 Z" />
<path fill="#ffffff" opacity="1.00" d=" M 22.86 24.01 C 25.24 24.00 27.62 24.00 30.00 24.00 C 30.00 26.38 30.00 28.76 29.98 31.14 C 27.62 28.76 25.23 26.39 22.86 24.01 Z" />
<path fill="#ffffff" opacity="1.00" d=" M 34.00 24.00 C 36.39 24.00 38.78 24.00 41.17 24.01 C 38.79 26.40 36.40 28.79 34.01 31.17 C 34.00 28.78 34.00 26.39 34.00 24.00 Z" />
</g>
<g id="#000000ff">
<path fill="#000000" opacity="1.00" d=" M 16.00 8.00 C 17.33 8.00 18.67 8.00 20.00 8.00 C 20.00 9.33 20.00 10.67 20.00 12.00 C 23.33 12.00 26.67 12.00 30.00 12.00 C 30.00 10.67 30.00 9.33 30.00 8.00 C 31.33 8.00 32.67 8.00 34.00 8.00 C 34.00 9.33 34.00 10.66 34.00 12.00 C 37.33 12.00 40.67 12.00 44.00 12.00 C 44.00 10.67 44.00 9.33 44.00 8.00 C 45.33 8.00 46.66 8.00 48.00 8.00 C 48.00 9.33 48.00 10.67 48.00 12.00 C 51.34 12.00 54.67 12.00 58.00 12.00 C 58.00 13.33 58.00 14.67 58.00 16.00 C 54.67 16.00 51.33 16.00 48.00 16.00 C 48.00 17.33 48.00 18.67 48.00 20.00 C 49.33 20.00 50.67 20.00 52.00 20.00 C 52.00 21.33 52.00 22.67 52.00 24.00 C 50.29 24.00 48.57 24.00 46.86 24.00 C 42.56 28.26 38.29 32.56 34.00 36.84 C 34.00 43.22 34.00 49.61 34.00 56.00 C 32.67 56.00 31.33 56.00 30.00 56.00 C 30.01 49.63 29.98 43.25 30.02 36.88 C 25.76 32.54 21.46 28.25 17.14 23.98 C 15.42 24.00 13.71 24.00 12.00 24.00 C 12.00 22.67 12.00 21.33 12.00 20.00 C 13.33 20.00 14.67 20.00 16.00 20.00 C 16.00 18.67 16.00 17.33 16.00 16.00 C 12.67 16.00 9.33 16.00 6.00 16.00 C 6.00 14.67 6.00 13.33 6.00 12.00 C 9.33 12.00 12.67 12.00 16.00 12.00 C 16.00 10.66 16.00 9.33 16.00 8.00 M 20.00 16.00 C 20.00 17.33 20.00 18.67 20.00 20.00 C 23.33 20.00 26.67 20.00 30.00 20.00 C 30.00 18.67 30.00 17.33 30.00 16.00 C 26.67 16.00 23.33 16.00 20.00 16.00 M 34.00 16.00 C 34.00 17.33 34.00 18.67 34.00 20.00 C 37.33 20.00 40.67 20.00 44.00 20.00 C 44.00 18.67 44.00 17.33 44.00 16.00 C 40.67 16.00 37.33 16.00 34.00 16.00 M 22.86 24.01 C 25.23 26.39 27.62 28.76 29.98 31.14 C 30.00 28.76 30.00 26.38 30.00 24.00 C 27.62 24.00 25.24 24.00 22.86 24.01 M 34.00 24.00 C 34.00 26.39 34.00 28.78 34.01 31.17 C 36.40 28.79 38.79 26.40 41.17 24.01 C 38.78 24.00 36.39 24.00 34.00 24.00 Z" />
</g>
</svg>
