<?xml version="1.0" encoding="UTF-8" ?>
<!DOCTYPE svg PUBLIC "-//W3C//DTD SVG 1.1//EN" "http://www.w3.org/Graphics/SVG/1.1/DTD/svg11.dtd">
<svg width="64pt" height="64pt" viewBox="0 0 64 64" version="1.1" xmlns="http://www.w3.org/2000/svg">
<g id="#ffffffff">
<path fill="#ffffff" opacity="1.00" d=" M 0.00 0.00 L 64.00 0.00 L 64.00 64.00 L 0.00 64.00 L 0.00 0.00 M 10.04 22.07 C 11.23 22.85 12.44 23.61 13.65 24.35 C 11.47 27.18 9.34 30.06 7.21 32.93 C 8.28 33.67 9.36 34.41 10.44 35.14 C 8.37 38.16 6.25 41.16 4.03 44.08 C 8.11 47.10 12.84 49.23 17.93 49.67 C 17.98 51.78 18.01 53.89 18.01 56.00 C 19.34 56.00 20.66 56.00 21.99 56.00 C 21.99 53.90 22.02 51.80 22.03 49.71 C 27.12 49.18 31.91 47.18 35.99 44.13 C 33.87 41.16 31.76 38.19 29.61 35.25 C 30.85 34.35 32.09 33.40 32.85 32.04 C 36.90 31.96 40.95 32.01 45.00 32.00 C 42.22 38.66 39.44 45.32 36.68 51.99 C 33.12 52.00 29.56 52.00 26.00 52.00 C 26.00 53.33 26.00 54.67 26.00 56.00 C 37.67 56.00 49.34 56.00 61.01 56.00 C 57.10 46.67 53.23 37.33 49.33 28.00 C 42.60 28.00 35.88 28.00 29.16 28.00 C 28.23 26.78 27.30 25.56 26.36 24.35 C 27.57 23.62 28.77 22.87 29.96 22.10 C 26.65 17.39 23.33 12.68 20.00 7.98 C 16.69 12.68 13.36 17.38 10.04 22.07 Z" />
<path fill="#ffffff" opacity="1.00" d=" M 15.75 20.98 C 17.15 18.94 18.57 16.93 20.00 14.92 C 21.43 16.94 22.86 18.96 24.27 21.00 C 21.51 22.50 18.50 22.45 15.75 20.98 Z" />
<path fill="#ffffff" opacity="1.00" d=" M 12.90 31.98 C 15.27 28.81 17.65 25.64 20.00 22.45 C 22.37 25.64 24.75 28.81 27.11 31.99 C 25.95 32.59 24.78 33.17 23.62 33.76 C 25.85 36.82 28.06 39.90 30.25 42.99 C 24.10 46.83 15.96 47.03 9.84 43.00 C 12.11 40.00 14.20 36.88 16.26 33.74 C 15.14 33.15 14.02 32.57 12.90 31.98 Z" />
<path fill="#ffffff" opacity="1.00" d=" M 41.00 52.00 C 43.34 46.40 45.65 40.80 48.00 35.21 C 50.35 40.80 52.66 46.41 55.01 52.00 C 53.34 52.00 51.67 52.00 50.00 52.00 C 49.34 49.35 48.68 46.70 48.00 44.05 C 47.32 46.70 46.66 49.35 46.00 52.00 C 44.33 52.00 42.66 52.00 41.00 52.00 Z" />
</g>
<g id="#000000ff">
<path fill="#000000" opacity="1.00" d=" M 10.04 22.07 C 13.36 17.38 16.69 12.68 20.00 7.98 C 23.33 12.68 26.65 17.39 29.96 22.10 C 28.77 22.87 27.57 23.62 26.36 24.35 C 27.30 25.56 28.23 26.78 29.16 28.00 C 35.88 28.00 42.60 28.00 49.33 28.00 C 53.23 37.33 57.10 46.67 61.01 56.00 C 49.34 56.00 37.67 56.00 26.00 56.00 C 26.00 54.67 26.00 53.33 26.00 52.00 C 29.56 52.00 33.12 52.00 36.68 51.99 C 39.44 45.32 42.22 38.66 45.00 32.00 C 40.95 32.01 36.90 31.96 32.85 32.04 C 32.09 33.40 30.85 34.35 29.61 35.25 C 31.76 38.19 33.87 41.16 35.99 44.13 C 31.91 47.18 27.12 49.18 22.03 49.71 C 22.02 51.80 21.99 53.90 21.99 56.00 C 20.66 56.00 19.34 56.00 18.01 56.00 C 18.01 53.89 17.98 51.78 17.93 49.67 C 12.84 49.23 8.11 47.10 4.03 44.08 C 6.25 41.16 8.37 38.16 10.44 35.14 C 9.36 34.41 8.28 33.67 7.21 32.93 C 9.34 30.06 11.47 27.18 13.65 24.35 C 12.44 23.61 11.23 22.85 10.04 22.07 M 15.75 20.98 C 18.50 22.45 21.51 22.50 24.27 21.00 C 22.86 18.96 21.43 16.94 20.00 14.92 C 18.57 16.93 17.15 18.94 15.75 20.98 M 12.90 31.98 C 14.02 32.57 15.14 33.15 16.26 33.74 C 14.20 36.88 12.11 40.00 9.84 43.00 C 15.96 47.03 24.10 46.83 30.25 42.99 C 28.06 39.90 25.85 36.82 23.62 33.76 C 24.78 33.17 25.95 32.59 27.11 31.99 C 24.75 28.81 22.37 25.64 20.00 22.45 C 17.65 25.64 15.27 28.81 12.90 31.98 M 41.00 52.00 C 42.66 52.00 44.33 52.00 46.00 52.00 C 46.66 49.35 47.32 46.70 48.00 44.05 C 48.68 46.70 49.34 49.35 50.00 52.00 C 51.67 52.00 53.34 52.00 55.01 52.00 C 52.66 46.41 50.35 40.80 48.00 35.21 C 45.65 40.80 43.34 46.40 41.00 52.00 Z" />
</g>
</svg>
