<?xml version="1.0" encoding="UTF-8" ?>
<!DOCTYPE svg PUBLIC "-//W3C//DTD SVG 1.1//EN" "http://www.w3.org/Graphics/SVG/1.1/DTD/svg11.dtd">
<svg width="64pt" height="64pt" viewBox="0 0 64 64" version="1.1" xmlns="http://www.w3.org/2000/svg">
<g id="#ffffffff">
<path fill="#ffffff" opacity="1.00" d=" M 0.00 0.00 L 64.00 0.00 L 64.00 64.00 L 0.00 64.00 L 0.00 0.00 M 10.00 10.00 C 9.96 12.99 10.10 15.97 9.96 18.96 C 9.22 22.79 5.61 25.78 5.98 29.89 C 6.02 37.93 5.99 45.96 6.00 54.00 C 14.00 54.00 22.00 54.00 30.00 54.00 C 29.95 45.32 30.09 36.64 29.94 27.97 C 29.21 24.81 26.82 22.26 26.06 19.11 C 25.89 16.08 26.04 13.04 26.00 10.00 C 20.67 10.00 15.33 10.00 10.00 10.00 M 40.00 22.00 C 40.00 24.67 40.00 27.33 40.00 30.00 C 41.33 30.00 42.67 30.00 44.00 30.00 C 44.00 27.33 44.00 24.67 44.00 22.00 C 42.67 22.00 41.33 22.00 40.00 22.00 M 48.00 26.00 C 48.00 27.33 48.00 28.67 48.00 30.00 C 49.33 30.00 50.67 30.00 52.00 30.00 C 52.00 28.67 52.00 27.33 52.00 26.00 C 50.67 26.00 49.33 26.00 48.00 26.00 M 34.00 34.00 C 34.05 37.68 33.86 41.36 34.11 45.03 C 34.45 49.60 38.43 53.55 43.00 53.90 C 47.14 54.23 52.00 54.33 55.07 51.02 C 59.59 46.52 57.55 39.66 58.00 34.00 C 50.00 34.00 42.00 34.00 34.00 34.00 Z" />
<path fill="#ffffff" opacity="1.00" d=" M 14.00 14.00 C 16.67 14.00 19.33 14.00 22.00 14.00 C 22.00 15.33 22.00 16.67 22.00 18.00 C 19.33 18.00 16.67 18.00 14.00 18.00 C 14.00 16.67 14.00 15.33 14.00 14.00 Z" />
<path fill="#ffffff" opacity="1.00" d=" M 13.26 22.00 C 16.43 22.00 19.59 22.00 22.75 22.00 C 23.80 24.28 25.27 26.40 25.94 28.83 C 26.10 35.88 25.95 42.94 26.00 50.00 C 20.67 50.00 15.33 50.00 10.00 50.00 C 10.05 42.98 9.91 35.96 10.05 28.94 C 10.66 26.46 12.20 24.31 13.26 22.00 Z" />
<path fill="#ffffff" opacity="1.00" d=" M 38.00 38.00 C 43.33 38.00 48.67 38.00 54.00 38.00 C 53.83 41.74 55.03 46.77 51.17 49.09 C 48.20 50.51 44.49 50.31 41.40 49.40 C 36.97 47.39 38.09 41.91 38.00 38.00 Z" />
</g>
<g id="#000000ff">
<path fill="#000000" opacity="1.00" d=" M 10.00 10.00 C 15.33 10.00 20.67 10.00 26.00 10.00 C 26.04 13.04 25.89 16.08 26.06 19.11 C 26.82 22.26 29.21 24.81 29.94 27.97 C 30.09 36.64 29.95 45.32 30.00 54.00 C 22.00 54.00 14.00 54.00 6.00 54.00 C 5.99 45.96 6.02 37.93 5.98 29.89 C 5.61 25.78 9.22 22.79 9.96 18.96 C 10.10 15.97 9.96 12.99 10.00 10.00 M 14.00 14.00 C 14.00 15.33 14.00 16.67 14.00 18.00 C 16.67 18.00 19.33 18.00 22.00 18.00 C 22.00 16.67 22.00 15.33 22.00 14.00 C 19.33 14.00 16.67 14.00 14.00 14.00 M 13.26 22.00 C 12.20 24.31 10.66 26.46 10.05 28.94 C 9.91 35.96 10.05 42.98 10.00 50.00 C 15.33 50.00 20.67 50.00 26.00 50.00 C 25.95 42.94 26.10 35.88 25.94 28.83 C 25.27 26.40 23.80 24.28 22.75 22.00 C 19.59 22.00 16.43 22.00 13.26 22.00 Z" />
<path fill="#000000" opacity="1.00" d=" M 40.00 22.00 C 41.33 22.00 42.67 22.00 44.00 22.00 C 44.00 24.67 44.00 27.33 44.00 30.00 C 42.67 30.00 41.33 30.00 40.00 30.00 C 40.00 27.33 40.00 24.67 40.00 22.00 Z" />
<path fill="#000000" opacity="1.00" d=" M 48.00 26.00 C 49.33 26.00 50.67 26.00 52.00 26.00 C 52.00 27.33 52.00 28.67 52.00 30.00 C 50.67 30.00 49.33 30.00 48.00 30.00 C 48.00 28.67 48.00 27.33 48.00 26.00 Z" />
<path fill="#000000" opacity="1.00" d=" M 34.00 34.00 C 42.00 34.00 50.00 34.00 58.00 34.00 C 57.55 39.66 59.59 46.52 55.07 51.02 C 52.00 54.33 47.14 54.23 43.00 53.90 C 38.43 53.55 34.45 49.60 34.11 45.03 C 33.86 41.36 34.05 37.68 34.00 34.00 M 38.00 38.00 C 38.09 41.91 36.97 47.39 41.40 49.40 C 44.49 50.31 48.20 50.51 51.17 49.09 C 55.03 46.77 53.83 41.74 54.00 38.00 C 48.67 38.00 43.33 38.00 38.00 38.00 Z" />
</g>
</svg>
