<?xml version="1.0" encoding="UTF-8" ?>
<!DOCTYPE svg PUBLIC "-//W3C//DTD SVG 1.1//EN" "http://www.w3.org/Graphics/SVG/1.1/DTD/svg11.dtd">
<svg width="64pt" height="64pt" viewBox="0 0 64 64" version="1.1" xmlns="http://www.w3.org/2000/svg">
<g id="#ffffffff">
<path fill="#ffffff" opacity="1.00" d=" M 0.00 0.00 L 64.00 0.00 L 64.00 46.93 C 63.53 38.69 56.14 32.09 48.02 31.84 C 48.01 33.17 48.00 34.50 48.00 35.83 C 53.04 36.24 57.98 39.35 59.42 44.39 C 61.71 50.98 56.99 58.83 50.07 59.78 C 43.82 61.06 37.19 56.44 36.22 50.14 C 35.39 46.43 36.93 42.83 39.01 39.84 C 38.02 38.95 37.03 38.07 36.04 37.18 C 33.69 40.32 31.91 44.03 32.03 48.04 C 31.85 56.11 38.73 63.36 46.71 64.00 L 0.00 64.00 L 0.00 0.00 M 8.00 10.00 C 8.00 24.67 8.00 39.33 8.00 54.00 C 15.31 54.00 22.62 53.99 29.94 54.01 C 29.67 52.67 29.37 51.33 29.06 50.00 C 23.38 50.00 17.69 50.00 12.00 50.00 C 12.00 40.67 12.00 31.33 12.00 22.00 C 25.33 22.00 38.67 22.00 52.00 22.00 C 51.99 24.46 52.01 26.93 52.01 29.39 C 53.33 29.87 54.67 30.32 56.01 30.74 C 55.99 23.83 56.00 16.91 56.00 10.00 C 40.00 10.00 24.00 10.00 8.00 10.00 M 18.00 28.00 C 18.00 29.33 18.00 30.67 18.00 32.00 C 19.33 32.00 20.67 32.00 22.00 32.00 C 22.00 30.67 22.00 29.33 22.00 28.00 C 20.67 28.00 19.33 28.00 18.00 28.00 M 26.00 28.00 C 26.00 29.33 26.00 30.67 26.00 32.00 C 30.85 31.55 36.14 33.16 40.60 30.66 C 41.87 29.86 44.22 29.97 44.18 28.01 C 38.12 27.99 32.06 28.01 26.00 28.00 M 18.00 36.00 C 18.00 37.33 18.00 38.67 18.00 40.00 C 19.33 40.00 20.67 40.00 22.00 40.00 C 22.00 38.67 22.00 37.33 22.00 36.00 C 20.67 36.00 19.33 36.00 18.00 36.00 M 26.00 36.00 C 26.00 37.33 26.00 38.67 26.00 40.00 C 27.58 40.00 29.16 39.99 30.74 39.99 C 31.57 38.66 32.41 37.32 33.24 35.98 C 30.82 36.00 28.41 36.01 26.00 36.00 M 40.54 43.45 C 42.23 45.15 44.27 46.65 45.26 48.92 C 45.71 50.42 47.41 51.42 48.93 50.82 C 51.15 50.27 51.78 46.74 49.67 45.67 C 47.12 44.61 45.30 42.51 43.45 40.55 C 42.49 41.52 41.52 42.49 40.54 43.45 Z" />
<path fill="#ffffff" opacity="1.00" d=" M 12.00 14.00 C 25.33 14.00 38.67 14.00 52.00 14.00 C 52.00 15.33 52.00 16.67 52.00 18.00 C 38.67 18.00 25.33 18.00 12.00 18.00 C 12.00 16.67 12.00 15.33 12.00 14.00 Z" />
<path fill="#ffffff" opacity="1.00" d=" M 49.09 64.00 C 56.79 63.50 63.37 56.95 64.00 49.28 L 64.00 64.00 L 49.09 64.00 Z" />
</g>
<g id="#000000ff">
<path fill="#000000" opacity="1.00" d=" M 8.00 10.00 C 24.00 10.00 40.00 10.00 56.00 10.00 C 56.00 16.91 55.99 23.83 56.01 30.74 C 54.67 30.32 53.33 29.87 52.01 29.39 C 52.01 26.93 51.99 24.46 52.00 22.00 C 38.67 22.00 25.33 22.00 12.00 22.00 C 12.00 31.33 12.00 40.67 12.00 50.00 C 17.69 50.00 23.38 50.00 29.06 50.00 C 29.37 51.33 29.67 52.67 29.94 54.01 C 22.62 53.99 15.31 54.00 8.00 54.00 C 8.00 39.33 8.00 24.67 8.00 10.00 M 12.00 14.00 C 12.00 15.33 12.00 16.67 12.00 18.00 C 25.33 18.00 38.67 18.00 52.00 18.00 C 52.00 16.67 52.00 15.33 52.00 14.00 C 38.67 14.00 25.33 14.00 12.00 14.00 Z" />
<path fill="#000000" opacity="1.00" d=" M 18.00 28.00 C 19.33 28.00 20.67 28.00 22.00 28.00 C 22.00 29.33 22.00 30.67 22.00 32.00 C 20.67 32.00 19.33 32.00 18.00 32.00 C 18.00 30.67 18.00 29.33 18.00 28.00 Z" />
<path fill="#000000" opacity="1.00" d=" M 26.00 28.00 C 32.06 28.01 38.12 27.99 44.18 28.01 C 44.22 29.97 41.87 29.86 40.60 30.66 C 36.14 33.16 30.85 31.55 26.00 32.00 C 26.00 30.67 26.00 29.33 26.00 28.00 Z" />
<path fill="#000000" opacity="1.00" d=" M 48.02 31.84 C 56.14 32.09 63.53 38.69 64.00 46.93 L 64.00 49.28 C 63.37 56.95 56.79 63.50 49.09 64.00 L 46.71 64.00 C 38.73 63.36 31.85 56.11 32.03 48.04 C 31.91 44.03 33.69 40.32 36.04 37.18 C 37.03 38.07 38.02 38.95 39.01 39.84 C 36.93 42.83 35.39 46.43 36.22 50.14 C 37.19 56.44 43.82 61.06 50.07 59.78 C 56.99 58.83 61.71 50.98 59.42 44.39 C 57.98 39.35 53.04 36.24 48.00 35.83 C 48.00 34.50 48.01 33.17 48.02 31.84 Z" />
<path fill="#000000" opacity="1.00" d=" M 18.00 36.00 C 19.33 36.00 20.67 36.00 22.00 36.00 C 22.00 37.33 22.00 38.67 22.00 40.00 C 20.67 40.00 19.33 40.00 18.00 40.00 C 18.00 38.67 18.00 37.33 18.00 36.00 Z" />
<path fill="#000000" opacity="1.00" d=" M 26.00 36.00 C 28.41 36.01 30.82 36.00 33.24 35.98 C 32.41 37.32 31.57 38.66 30.74 39.99 C 29.16 39.99 27.58 40.00 26.00 40.00 C 26.00 38.67 26.00 37.33 26.00 36.00 Z" />
<path fill="#000000" opacity="1.00" d=" M 40.54 43.45 C 41.52 42.49 42.49 41.52 43.45 40.55 C 45.30 42.51 47.12 44.61 49.67 45.67 C 51.78 46.74 51.15 50.27 48.93 50.82 C 47.41 51.42 45.71 50.42 45.26 48.92 C 44.27 46.65 42.23 45.15 40.54 43.45 Z" />
</g>
</svg>
