<?xml version="1.0" encoding="UTF-8" ?>
<!DOCTYPE svg PUBLIC "-//W3C//DTD SVG 1.1//EN" "http://www.w3.org/Graphics/SVG/1.1/DTD/svg11.dtd">
<svg width="64pt" height="64pt" viewBox="0 0 64 64" version="1.1" xmlns="http://www.w3.org/2000/svg">
<g id="#ffffffff">
<path fill="#ffffff" opacity="1.00" d=" M 0.00 0.00 L 64.00 0.00 L 64.00 64.00 L 0.00 64.00 L 0.00 0.00 M 7.30 9.90 C 14.64 12.26 22.29 13.63 30.00 13.95 C 30.00 16.62 30.00 19.29 30.00 21.97 C 26.88 22.01 23.41 21.66 20.80 23.74 C 15.88 27.50 14.05 34.05 14.03 40.01 C 14.06 45.95 15.88 52.47 20.77 56.23 C 23.97 58.71 28.21 57.86 31.95 58.01 C 35.70 57.85 39.95 58.72 43.17 56.26 C 48.11 52.52 49.93 45.97 49.97 40.02 C 49.94 34.07 48.13 27.52 43.21 23.76 C 40.60 21.66 37.12 22.01 34.00 21.97 C 34.00 19.29 34.00 16.62 34.00 13.94 C 41.71 13.63 49.36 12.26 56.70 9.90 C 56.36 8.96 55.67 7.10 55.32 6.16 C 40.27 11.21 23.73 11.13 8.67 6.18 C 8.32 7.11 7.64 8.97 7.30 9.90 Z" />
<path fill="#ffffff" opacity="1.00" d=" M 20.34 29.93 C 22.42 26.29 26.49 25.48 30.37 25.94 C 29.56 27.29 28.73 28.64 27.92 29.99 C 25.39 30.00 22.87 30.01 20.34 29.93 Z" />
<path fill="#ffffff" opacity="1.00" d=" M 37.18 26.10 C 39.77 25.60 41.99 27.59 43.28 29.63 C 46.23 34.54 46.61 40.70 45.13 46.15 C 44.22 49.16 42.61 52.40 39.55 53.69 C 36.71 54.79 33.97 52.53 32.62 50.20 C 29.65 45.12 29.35 38.74 31.07 33.19 C 32.09 30.24 33.88 26.89 37.18 26.10 M 36.30 30.36 C 32.43 32.27 31.93 37.25 32.07 41.07 C 32.18 44.52 33.36 48.91 37.14 49.92 C 40.09 50.50 42.50 47.88 43.22 45.26 C 44.30 41.41 44.32 37.08 42.67 33.39 C 41.67 31.05 38.82 29.16 36.30 30.36 Z" />
<path fill="#ffffff" opacity="1.00" d=" M 18.06 37.98 C 18.30 36.65 18.54 35.32 18.79 34.00 C 21.41 34.00 24.02 34.00 26.64 34.00 C 26.43 35.33 26.24 36.67 26.04 38.00 C 23.38 38.00 20.72 38.00 18.06 37.98 Z" />
<path fill="#ffffff" opacity="1.00" d=" M 36.77 35.50 C 37.05 34.57 37.71 34.07 38.77 34.02 C 40.22 38.04 40.74 42.90 38.01 46.51 C 35.64 43.39 35.59 39.10 36.77 35.50 Z" />
<path fill="#ffffff" opacity="1.00" d=" M 18.06 42.02 C 20.72 42.00 23.38 42.00 26.04 42.00 C 26.23 43.33 26.43 44.67 26.64 46.00 C 24.02 46.00 21.41 46.00 18.79 46.01 C 18.55 44.68 18.30 43.35 18.06 42.02 Z" />
<path fill="#ffffff" opacity="1.00" d=" M 20.34 50.07 C 22.87 49.99 25.40 50.00 27.93 50.00 C 28.73 51.35 29.54 52.70 30.33 54.06 C 26.46 54.52 22.42 53.68 20.34 50.07 Z" />
</g>
<g id="#000000ff">
<path fill="#000000" opacity="1.00" d=" M 7.30 9.90 C 7.64 8.97 8.32 7.11 8.67 6.18 C 23.73 11.13 40.27 11.21 55.32 6.16 C 55.67 7.10 56.36 8.96 56.70 9.90 C 49.36 12.26 41.71 13.63 34.00 13.94 C 34.00 16.62 34.00 19.29 34.00 21.97 C 37.12 22.01 40.60 21.66 43.21 23.76 C 48.13 27.52 49.94 34.07 49.97 40.02 C 49.93 45.97 48.11 52.52 43.17 56.26 C 39.95 58.72 35.70 57.85 31.95 58.01 C 28.21 57.86 23.97 58.71 20.77 56.23 C 15.88 52.47 14.06 45.95 14.03 40.01 C 14.05 34.05 15.88 27.50 20.80 23.74 C 23.41 21.66 26.88 22.01 30.00 21.97 C 30.00 19.29 30.00 16.62 30.00 13.95 C 22.29 13.63 14.64 12.26 7.30 9.90 M 20.34 29.93 C 22.87 30.01 25.39 30.00 27.92 29.99 C 28.73 28.64 29.56 27.29 30.37 25.94 C 26.49 25.48 22.42 26.29 20.34 29.93 M 37.18 26.10 C 33.88 26.89 32.09 30.24 31.07 33.19 C 29.35 38.74 29.65 45.12 32.62 50.20 C 33.97 52.53 36.71 54.79 39.55 53.69 C 42.61 52.40 44.22 49.16 45.13 46.15 C 46.61 40.70 46.23 34.54 43.28 29.63 C 41.99 27.59 39.77 25.60 37.18 26.10 M 18.06 37.98 C 20.72 38.00 23.38 38.00 26.04 38.00 C 26.24 36.67 26.43 35.33 26.64 34.00 C 24.02 34.00 21.41 34.00 18.79 34.00 C 18.54 35.32 18.30 36.65 18.06 37.98 M 18.06 42.02 C 18.30 43.35 18.55 44.68 18.79 46.01 C 21.41 46.00 24.02 46.00 26.64 46.00 C 26.43 44.67 26.23 43.33 26.04 42.00 C 23.38 42.00 20.72 42.00 18.06 42.02 M 20.34 50.07 C 22.42 53.68 26.46 54.52 30.33 54.06 C 29.54 52.70 28.73 51.35 27.93 50.00 C 25.40 50.00 22.87 49.99 20.34 50.07 Z" />
<path fill="#000000" opacity="1.00" d=" M 36.30 30.36 C 38.82 29.16 41.67 31.05 42.67 33.39 C 44.32 37.08 44.30 41.41 43.22 45.26 C 42.50 47.88 40.09 50.50 37.14 49.92 C 33.36 48.91 32.18 44.52 32.07 41.07 C 31.93 37.25 32.43 32.27 36.30 30.36 M 36.77 35.50 C 35.59 39.10 35.64 43.39 38.01 46.51 C 40.74 42.90 40.22 38.04 38.77 34.02 C 37.71 34.07 37.05 34.57 36.77 35.50 Z" />
</g>
</svg>
