<?xml version="1.0" encoding="UTF-8" ?>
<!DOCTYPE svg PUBLIC "-//W3C//DTD SVG 1.1//EN" "http://www.w3.org/Graphics/SVG/1.1/DTD/svg11.dtd">
<svg width="64pt" height="64pt" viewBox="0 0 64 64" version="1.1" xmlns="http://www.w3.org/2000/svg">
<g id="#ffffffff">
<path fill="#ffffff" opacity="1.00" d=" M 0.00 0.00 L 64.00 0.00 L 64.00 64.00 L 0.00 64.00 L 0.00 0.00 M 30.00 8.00 C 29.99 12.27 30.02 16.54 29.98 20.81 C 28.84 21.34 27.76 22.00 26.91 22.94 C 21.61 28.31 16.21 33.59 10.93 38.97 C 7.45 42.33 7.07 48.25 10.06 52.04 C 13.31 56.54 20.42 57.27 24.52 53.53 C 30.14 48.16 35.51 42.53 41.08 37.10 C 42.63 35.80 43.18 33.79 43.96 32.00 C 47.97 31.99 51.98 32.00 56.00 32.00 C 56.00 28.00 56.00 24.00 56.00 20.00 C 53.68 20.01 51.36 20.00 49.04 19.96 C 50.31 17.06 51.54 14.14 52.76 11.22 C 49.21 12.81 45.60 14.29 42.01 15.80 C 42.00 13.20 42.00 10.60 42.00 8.00 C 38.00 8.00 34.00 8.00 30.00 8.00 Z" />
<path fill="#ffffff" opacity="1.00" d=" M 34.00 12.00 C 35.33 12.00 36.67 12.00 38.00 12.00 C 38.05 13.90 38.01 15.79 37.84 17.68 C 36.55 18.15 35.27 18.65 34.00 19.16 C 34.00 16.77 34.00 14.39 34.00 12.00 Z" />
<path fill="#ffffff" opacity="1.00" d=" M 31.46 24.57 C 36.09 22.79 40.58 20.65 45.19 18.82 C 43.29 23.40 41.30 27.95 39.40 32.54 C 36.74 29.89 34.06 27.27 31.46 24.57 Z" />
<path fill="#ffffff" opacity="1.00" d=" M 47.24 24.08 C 48.83 24.02 50.41 24.00 52.00 23.98 C 52.00 25.32 52.00 26.66 52.00 28.00 C 49.89 28.00 47.78 28.00 45.68 28.00 C 46.21 26.70 46.73 25.39 47.24 24.08 Z" />
<path fill="#ffffff" opacity="1.00" d=" M 18.18 37.35 C 21.56 33.95 24.96 30.58 28.33 27.18 C 31.19 29.98 34.01 32.82 36.83 35.67 C 33.45 39.05 30.05 42.40 26.71 45.81 C 23.79 43.06 21.04 40.15 18.18 37.35 Z" />
<path fill="#ffffff" opacity="1.00" d=" M 12.10 44.86 C 12.41 42.89 14.02 41.56 15.26 40.15 C 18.16 42.89 20.87 45.81 23.80 48.52 C 22.38 50.32 20.49 52.06 18.04 52.02 C 14.41 52.12 11.29 48.44 12.10 44.86 Z" />
</g>
<g id="#000000ff">
<path fill="#000000" opacity="1.00" d=" M 30.00 8.00 C 34.00 8.00 38.00 8.00 42.00 8.00 C 42.00 10.60 42.00 13.20 42.01 15.80 C 45.60 14.29 49.21 12.81 52.76 11.22 C 51.54 14.14 50.31 17.06 49.04 19.96 C 51.36 20.00 53.68 20.01 56.00 20.00 C 56.00 24.00 56.00 28.00 56.00 32.00 C 51.98 32.00 47.97 31.99 43.96 32.00 C 43.18 33.79 42.63 35.80 41.08 37.10 C 35.51 42.53 30.14 48.16 24.52 53.53 C 20.42 57.27 13.31 56.54 10.06 52.04 C 7.07 48.25 7.45 42.33 10.93 38.97 C 16.21 33.59 21.61 28.31 26.91 22.94 C 27.76 22.00 28.84 21.34 29.98 20.81 C 30.02 16.54 29.99 12.27 30.00 8.00 M 34.00 12.00 C 34.00 14.39 34.00 16.77 34.00 19.16 C 35.27 18.65 36.55 18.15 37.84 17.68 C 38.01 15.79 38.05 13.90 38.00 12.00 C 36.67 12.00 35.33 12.00 34.00 12.00 M 31.46 24.57 C 34.06 27.27 36.74 29.89 39.40 32.54 C 41.30 27.95 43.29 23.40 45.19 18.82 C 40.58 20.65 36.09 22.79 31.46 24.57 M 47.24 24.08 C 46.73 25.39 46.21 26.70 45.68 28.00 C 47.78 28.00 49.89 28.00 52.00 28.00 C 52.00 26.66 52.00 25.32 52.00 23.98 C 50.41 24.00 48.83 24.02 47.24 24.08 M 18.18 37.35 C 21.04 40.15 23.79 43.06 26.71 45.81 C 30.05 42.40 33.45 39.05 36.83 35.67 C 34.01 32.82 31.19 29.98 28.33 27.18 C 24.96 30.58 21.56 33.95 18.18 37.35 M 12.10 44.86 C 11.29 48.44 14.41 52.12 18.04 52.02 C 20.49 52.06 22.38 50.32 23.80 48.52 C 20.87 45.81 18.16 42.89 15.26 40.15 C 14.02 41.56 12.41 42.89 12.10 44.86 Z" />
</g>
</svg>
