<?xml version="1.0" encoding="UTF-8" ?>
<!DOCTYPE svg PUBLIC "-//W3C//DTD SVG 1.1//EN" "http://www.w3.org/Graphics/SVG/1.1/DTD/svg11.dtd">
<svg width="64pt" height="64pt" viewBox="0 0 64 64" version="1.1" xmlns="http://www.w3.org/2000/svg">
<g id="#ffffffff">
<path fill="#ffffff" opacity="1.00" d=" M 0.00 0.00 L 64.00 0.00 L 64.00 64.00 L 0.00 64.00 L 0.00 0.00 M 10.00 10.00 C 10.00 24.67 10.00 39.33 10.00 54.00 C 24.67 54.00 39.33 54.00 54.00 54.00 C 54.00 39.33 54.00 24.67 54.00 10.00 C 39.33 10.00 24.67 10.00 10.00 10.00 Z" />
<path fill="#ffffff" opacity="1.00" d=" M 14.00 14.00 C 26.00 14.00 38.00 14.00 50.00 14.00 C 50.00 26.00 50.00 38.00 50.00 50.00 C 38.00 50.00 26.00 50.00 14.00 50.00 C 14.00 38.00 14.00 26.00 14.00 14.00 M 23.57 25.55 C 24.54 26.51 25.50 27.47 26.47 28.43 C 27.65 27.25 28.83 26.07 30.00 24.88 C 30.00 29.63 30.00 34.37 30.00 39.12 C 28.82 37.93 27.64 36.74 26.46 35.56 C 25.50 36.52 24.53 37.48 23.56 38.44 C 26.38 41.23 29.15 44.06 32.00 46.82 C 34.87 44.08 37.67 41.25 40.45 38.42 C 39.49 37.47 38.53 36.51 37.58 35.56 C 36.39 36.74 35.20 37.93 34.01 39.11 C 34.00 34.37 33.99 29.63 34.01 24.89 C 35.19 26.07 36.38 27.25 37.56 28.43 C 38.51 27.47 39.47 26.52 40.44 25.56 C 37.65 22.74 34.86 19.92 32.00 17.18 C 29.16 19.93 26.38 22.76 23.57 25.55 Z" />
</g>
<g id="#000000ff">
<path fill="#000000" opacity="1.00" d=" M 10.00 10.00 C 24.67 10.00 39.33 10.00 54.00 10.00 C 54.00 24.67 54.00 39.33 54.00 54.00 C 39.33 54.00 24.67 54.00 10.00 54.00 C 10.00 39.33 10.00 24.67 10.00 10.00 M 14.00 14.00 C 14.00 26.00 14.00 38.00 14.00 50.00 C 26.00 50.00 38.00 50.00 50.00 50.00 C 50.00 38.00 50.00 26.00 50.00 14.00 C 38.00 14.00 26.00 14.00 14.00 14.00 Z" />
<path fill="#000000" opacity="1.00" d=" M 23.57 25.55 C 26.38 22.76 29.16 19.93 32.00 17.18 C 34.86 19.92 37.65 22.74 40.44 25.56 C 39.47 26.52 38.51 27.47 37.56 28.43 C 36.38 27.25 35.19 26.07 34.01 24.89 C 33.99 29.63 34.00 34.37 34.01 39.11 C 35.20 37.93 36.39 36.74 37.58 35.56 C 38.53 36.51 39.49 37.47 40.45 38.42 C 37.67 41.25 34.87 44.08 32.00 46.82 C 29.15 44.06 26.38 41.23 23.56 38.44 C 24.53 37.48 25.50 36.52 26.46 35.56 C 27.64 36.74 28.82 37.93 30.00 39.12 C 30.00 34.37 30.00 29.63 30.00 24.88 C 28.83 26.07 27.65 27.25 26.47 28.43 C 25.50 27.47 24.54 26.51 23.57 25.55 Z" />
</g>
</svg>
