<?xml version="1.0" encoding="UTF-8" ?>
<!DOCTYPE svg PUBLIC "-//W3C//DTD SVG 1.1//EN" "http://www.w3.org/Graphics/SVG/1.1/DTD/svg11.dtd">
<svg width="64pt" height="64pt" viewBox="0 0 64 64" version="1.1" xmlns="http://www.w3.org/2000/svg">
<g id="#ffffffff">
<path fill="#ffffff" opacity="1.00" d=" M 0.00 0.00 L 64.00 0.00 L 64.00 64.00 L 0.00 64.00 L 0.00 0.00 M 6.00 10.75 C 6.00 14.45 6.00 18.14 6.00 21.84 C 7.83 21.82 10.74 22.32 9.88 24.86 C 8.72 26.92 6.39 25.72 5.59 24.02 C 4.31 24.02 3.03 24.02 1.75 24.03 C 2.35 26.41 3.57 28.98 6.14 29.68 C 9.80 31.06 14.05 27.94 13.99 24.08 C 14.15 21.52 11.91 19.86 10.00 18.62 C 10.19 16.53 9.33 14.02 10.99 12.33 C 14.96 19.52 18.77 26.79 22.69 34.00 C 15.79 34.00 8.90 34.00 2.00 34.00 C 2.00 39.33 2.00 44.67 2.00 50.00 C 4.05 50.00 6.10 50.00 8.15 50.01 C 9.42 53.27 12.31 56.15 16.04 55.99 C 19.74 56.11 22.57 53.24 23.85 50.01 C 29.28 49.99 34.71 49.99 40.14 50.01 C 41.36 52.89 43.65 55.62 46.96 55.92 C 50.89 56.56 54.53 53.77 55.70 50.11 C 57.79 49.92 59.90 50.07 62.00 49.97 C 62.00 43.03 62.00 36.08 62.00 29.14 C 57.63 24.75 53.25 20.36 48.86 15.99 C 43.90 16.01 38.95 16.00 34.00 16.00 C 34.00 20.37 34.00 24.74 34.00 29.12 C 26.80 21.94 19.64 14.72 12.43 7.56 C 10.28 8.61 8.15 9.70 6.00 10.75 Z" />
<path fill="#ffffff" opacity="1.00" d=" M 38.00 20.00 C 41.04 20.00 44.08 20.00 47.12 20.00 C 50.75 23.62 54.38 27.25 58.00 30.88 C 57.99 35.99 58.01 41.10 57.99 46.21 C 55.41 46.50 54.90 43.88 53.58 42.34 C 51.00 39.63 46.44 39.23 43.44 41.47 C 41.18 42.69 41.17 46.53 38.01 46.21 C 37.98 37.47 38.01 28.74 38.00 20.00 Z" />
<path fill="#ffffff" opacity="1.00" d=" M 20.28 21.16 C 24.57 25.43 28.84 29.72 33.12 34.00 C 31.15 34.00 29.17 34.00 27.20 34.00 C 24.89 29.72 22.57 25.45 20.28 21.16 Z" />
<path fill="#ffffff" opacity="1.00" d=" M 6.00 38.00 C 15.33 38.00 24.67 38.00 34.00 38.00 C 34.00 40.67 34.00 43.33 34.00 46.00 C 30.62 46.00 27.24 46.00 23.85 45.99 C 22.36 41.24 16.57 38.29 12.11 41.04 C 9.32 42.04 9.40 46.43 6.01 46.22 C 5.99 43.48 6.00 40.74 6.00 38.00 Z" />
<path fill="#ffffff" opacity="1.00" d=" M 14.34 44.35 C 16.84 43.09 20.09 45.17 20.01 47.97 C 20.18 51.11 16.16 53.20 13.68 51.27 C 11.18 49.68 11.58 45.44 14.34 44.35 Z" />
<path fill="#ffffff" opacity="1.00" d=" M 46.36 44.34 C 48.85 43.10 52.09 45.17 52.00 47.96 C 52.19 51.09 48.19 53.19 45.70 51.28 C 43.18 49.69 43.57 45.43 46.36 44.34 Z" />
</g>
<g id="#000000ff">
<path fill="#000000" opacity="1.00" d=" M 6.00 10.75 C 8.15 9.70 10.28 8.61 12.43 7.56 C 19.64 14.72 26.80 21.94 34.00 29.12 C 34.00 24.74 34.00 20.37 34.00 16.00 C 38.95 16.00 43.90 16.01 48.86 15.99 C 53.25 20.36 57.63 24.75 62.00 29.14 C 62.00 36.08 62.00 43.03 62.00 49.97 C 59.90 50.07 57.79 49.92 55.70 50.11 C 54.53 53.77 50.89 56.56 46.96 55.92 C 43.65 55.62 41.36 52.89 40.14 50.01 C 34.71 49.99 29.28 49.99 23.85 50.01 C 22.57 53.24 19.74 56.11 16.04 55.99 C 12.31 56.15 9.42 53.27 8.15 50.01 C 6.10 50.00 4.05 50.00 2.00 50.00 C 2.00 44.67 2.00 39.33 2.00 34.00 C 8.90 34.00 15.79 34.00 22.69 34.00 C 18.77 26.79 14.96 19.52 10.99 12.33 C 9.33 14.02 10.19 16.53 10.00 18.62 C 11.91 19.86 14.15 21.52 13.99 24.08 C 14.05 27.94 9.80 31.06 6.14 29.68 C 3.57 28.98 2.35 26.41 1.75 24.03 C 3.03 24.02 4.31 24.02 5.59 24.02 C 6.39 25.72 8.72 26.92 9.88 24.86 C 10.74 22.32 7.83 21.82 6.00 21.84 C 6.00 18.14 6.00 14.45 6.00 10.75 M 38.00 20.00 C 38.01 28.74 37.98 37.47 38.01 46.21 C 41.17 46.53 41.18 42.69 43.44 41.47 C 46.44 39.23 51.00 39.63 53.58 42.34 C 54.90 43.88 55.41 46.50 57.99 46.21 C 58.01 41.10 57.99 35.99 58.00 30.88 C 54.38 27.25 50.75 23.62 47.12 20.00 C 44.08 20.00 41.04 20.00 38.00 20.00 M 20.28 21.16 C 22.57 25.45 24.89 29.72 27.20 34.00 C 29.17 34.00 31.15 34.00 33.12 34.00 C 28.84 29.72 24.57 25.43 20.28 21.16 M 6.00 38.00 C 6.00 40.74 5.99 43.48 6.01 46.22 C 9.40 46.43 9.32 42.04 12.11 41.04 C 16.57 38.29 22.36 41.24 23.85 45.99 C 27.24 46.00 30.62 46.00 34.00 46.00 C 34.00 43.33 34.00 40.67 34.00 38.00 C 24.67 38.00 15.33 38.00 6.00 38.00 M 14.34 44.35 C 11.58 45.44 11.18 49.68 13.68 51.27 C 16.16 53.20 20.18 51.11 20.01 47.97 C 20.09 45.17 16.84 43.09 14.34 44.35 M 46.36 44.34 C 43.57 45.43 43.18 49.69 45.70 51.28 C 48.19 53.19 52.19 51.09 52.00 47.96 C 52.09 45.17 48.85 43.10 46.36 44.34 Z" />
</g>
</svg>
