<?xml version="1.0" encoding="UTF-8" ?>
<!DOCTYPE svg PUBLIC "-//W3C//DTD SVG 1.1//EN" "http://www.w3.org/Graphics/SVG/1.1/DTD/svg11.dtd">
<svg width="64pt" height="64pt" viewBox="0 0 64 64" version="1.1" xmlns="http://www.w3.org/2000/svg">
<g id="#ffffffff">
<path fill="#ffffff" opacity="1.00" d=" M 0.00 0.00 L 64.00 0.00 L 64.00 64.00 L 0.00 64.00 L 0.00 0.00 M 7.16 21.36 C 16.16 25.57 25.28 29.53 34.21 33.87 C 37.20 35.51 35.37 40.45 32.05 39.99 C 27.13 38.13 22.51 35.52 17.69 33.39 C 18.50 32.81 19.30 32.24 20.12 31.67 C 18.64 31.02 17.16 30.36 15.70 29.68 C 12.80 31.43 9.28 32.53 7.20 35.34 C 4.75 38.80 6.35 44.10 10.23 45.75 C 17.82 49.43 25.41 53.09 32.98 56.79 C 41.84 51.38 50.64 45.87 59.47 40.42 C 57.71 39.49 55.94 38.57 54.17 37.66 C 52.94 38.28 51.72 38.89 50.50 39.50 C 50.57 39.87 50.72 40.62 50.79 40.99 C 44.87 44.86 38.79 48.50 32.76 52.22 C 25.67 48.66 18.39 45.45 11.36 41.77 C 8.45 40.10 10.64 35.04 13.86 36.12 C 19.18 38.28 24.21 41.09 29.49 43.34 C 32.26 44.54 35.38 43.46 37.84 42.02 C 43.43 38.86 49.15 35.92 54.70 32.70 C 59.36 29.94 58.82 22.24 53.89 20.07 C 46.24 16.42 38.47 13.02 30.77 9.50 C 22.91 13.47 15.05 17.44 7.16 21.36 Z" />
<path fill="#ffffff" opacity="1.00" d=" M 16.40 21.19 C 21.25 18.79 26.08 16.37 30.91 13.92 C 38.01 17.24 45.22 20.34 52.26 23.76 C 54.46 24.74 54.58 28.30 52.43 29.40 C 48.28 31.82 43.99 34.00 39.81 36.39 C 39.33 33.90 38.24 31.29 35.79 30.17 C 29.40 27.03 22.84 24.23 16.40 21.19 Z" />
</g>
<g id="#000000ff">
<path fill="#000000" opacity="1.00" d=" M 7.16 21.36 C 15.05 17.44 22.91 13.47 30.77 9.50 C 38.47 13.02 46.24 16.42 53.89 20.07 C 58.82 22.24 59.36 29.94 54.70 32.70 C 49.15 35.92 43.43 38.86 37.84 42.02 C 35.38 43.46 32.26 44.54 29.49 43.34 C 24.21 41.09 19.18 38.28 13.86 36.12 C 10.64 35.04 8.45 40.10 11.36 41.77 C 18.39 45.45 25.67 48.66 32.76 52.22 C 38.79 48.50 44.87 44.86 50.79 40.99 C 50.72 40.62 50.57 39.87 50.50 39.50 C 51.72 38.89 52.94 38.28 54.17 37.66 C 55.94 38.57 57.71 39.49 59.47 40.42 C 50.64 45.87 41.84 51.38 32.98 56.79 C 25.41 53.09 17.82 49.43 10.23 45.75 C 6.35 44.10 4.75 38.80 7.20 35.34 C 9.28 32.53 12.80 31.43 15.70 29.68 C 17.16 30.36 18.64 31.02 20.12 31.67 C 19.30 32.24 18.50 32.81 17.69 33.39 C 22.51 35.52 27.13 38.13 32.05 39.99 C 35.37 40.45 37.20 35.51 34.21 33.87 C 25.28 29.53 16.16 25.57 7.16 21.36 M 16.40 21.19 C 22.84 24.23 29.40 27.03 35.79 30.17 C 38.24 31.29 39.33 33.90 39.81 36.39 C 43.99 34.00 48.28 31.82 52.43 29.40 C 54.58 28.30 54.46 24.74 52.26 23.76 C 45.22 20.34 38.01 17.24 30.91 13.92 C 26.08 16.37 21.25 18.79 16.40 21.19 Z" />
</g>
</svg>
