<?xml version="1.0" encoding="UTF-8" ?>
<!DOCTYPE svg PUBLIC "-//W3C//DTD SVG 1.1//EN" "http://www.w3.org/Graphics/SVG/1.1/DTD/svg11.dtd">
<svg width="64pt" height="64pt" viewBox="0 0 64 64" version="1.1" xmlns="http://www.w3.org/2000/svg">
<g id="#ffffffff">
<path fill="#ffffff" opacity="1.00" d=" M 0.00 0.00 L 64.00 0.00 L 64.00 64.00 L 0.00 64.00 L 0.00 0.00 M 11.74 13.96 C 10.49 13.99 9.25 14.02 8.00 14.05 C 8.00 15.35 8.00 16.66 8.00 17.96 C 9.34 17.99 10.67 18.01 12.01 18.03 C 11.99 27.36 12.01 36.68 12.00 46.00 C 22.67 46.00 33.33 46.00 44.00 46.00 C 44.00 36.67 44.00 27.33 44.00 18.00 C 48.00 18.01 52.00 18.00 56.00 17.99 C 56.00 16.68 56.00 15.37 56.00 14.06 C 54.75 14.02 53.49 13.99 52.24 13.95 C 51.62 10.94 49.42 7.87 46.03 8.03 C 36.68 7.97 27.32 7.97 17.97 8.03 C 14.56 7.86 12.37 10.95 11.74 13.96 M 48.01 20.00 C 47.99 30.67 48.00 41.33 48.00 52.00 C 40.01 52.00 32.02 51.99 24.03 52.01 C 24.01 50.67 23.99 49.33 23.97 48.00 C 22.65 48.00 21.33 48.00 20.01 48.00 C 20.01 50.67 20.01 53.33 19.99 56.00 C 30.66 56.00 41.33 56.00 52.00 56.00 C 51.99 44.00 52.01 32.00 51.99 20.00 C 50.66 20.00 49.33 20.00 48.01 20.00 Z" />
<path fill="#ffffff" opacity="1.00" d=" M 16.01 14.99 C 15.90 13.63 16.33 11.80 18.09 12.07 C 25.56 11.87 33.03 12.09 40.50 11.98 C 39.42 19.26 40.26 26.67 40.00 34.00 C 32.00 34.00 24.00 34.00 16.00 34.00 C 16.03 27.66 15.95 21.32 16.01 14.99 Z" />
<path fill="#ffffff" opacity="1.00" d=" M 45.12 12.20 C 46.07 11.66 48.43 12.40 47.65 13.75 C 46.44 15.03 42.42 13.57 45.12 12.20 Z" />
<path fill="#ffffff" opacity="1.00" d=" M 16.00 38.01 C 24.00 38.00 32.00 38.00 40.00 38.01 C 40.00 39.34 40.00 40.66 40.00 41.99 C 32.00 42.00 24.00 42.00 16.00 41.99 C 16.00 40.66 16.00 39.34 16.00 38.01 Z" />
</g>
<g id="#000000ff">
<path fill="#000000" opacity="1.00" d=" M 11.74 13.96 C 12.37 10.95 14.56 7.86 17.97 8.03 C 27.32 7.97 36.68 7.97 46.03 8.03 C 49.42 7.87 51.62 10.94 52.24 13.95 C 53.49 13.99 54.75 14.02 56.00 14.06 C 56.00 15.37 56.00 16.68 56.00 17.99 C 52.00 18.00 48.00 18.01 44.00 18.00 C 44.00 27.33 44.00 36.67 44.00 46.00 C 33.33 46.00 22.67 46.00 12.00 46.00 C 12.01 36.68 11.99 27.36 12.01 18.03 C 10.67 18.01 9.34 17.99 8.00 17.96 C 8.00 16.66 8.00 15.35 8.00 14.05 C 9.25 14.02 10.49 13.99 11.74 13.96 M 16.01 14.99 C 15.95 21.32 16.03 27.66 16.00 34.00 C 24.00 34.00 32.00 34.00 40.00 34.00 C 40.26 26.67 39.42 19.26 40.50 11.98 C 33.03 12.09 25.56 11.87 18.09 12.07 C 16.33 11.80 15.90 13.63 16.01 14.99 M 45.12 12.20 C 42.42 13.57 46.44 15.03 47.65 13.75 C 48.43 12.40 46.07 11.66 45.12 12.20 M 16.00 38.01 C 16.00 39.34 16.00 40.66 16.00 41.99 C 24.00 42.00 32.00 42.00 40.00 41.99 C 40.00 40.66 40.00 39.34 40.00 38.01 C 32.00 38.00 24.00 38.00 16.00 38.01 Z" />
<path fill="#000000" opacity="1.00" d=" M 48.01 20.00 C 49.33 20.00 50.66 20.00 51.99 20.00 C 52.01 32.00 51.99 44.00 52.00 56.00 C 41.33 56.00 30.66 56.00 19.99 56.00 C 20.01 53.33 20.01 50.67 20.01 48.00 C 21.33 48.00 22.65 48.00 23.97 48.00 C 23.99 49.33 24.01 50.67 24.03 52.01 C 32.02 51.99 40.01 52.00 48.00 52.00 C 48.00 41.33 47.99 30.67 48.01 20.00 Z" />
</g>
</svg>
