<?xml version="1.0" encoding="UTF-8" ?>
<!DOCTYPE svg PUBLIC "-//W3C//DTD SVG 1.1//EN" "http://www.w3.org/Graphics/SVG/1.1/DTD/svg11.dtd">
<svg width="64pt" height="64pt" viewBox="0 0 64 64" version="1.1" xmlns="http://www.w3.org/2000/svg">
<g id="#ffffffff">
<path fill="#ffffff" opacity="1.00" d=" M 0.00 0.00 L 64.00 0.00 L 64.00 64.00 L 0.00 64.00 L 0.00 0.00 M 40.00 14.00 C 42.66 16.67 45.34 19.32 48.00 22.00 C 48.00 20.00 48.00 18.00 48.00 16.00 C 50.67 16.00 53.33 16.00 56.00 16.00 C 56.00 14.67 56.00 13.33 56.00 12.00 C 53.33 12.00 50.67 12.00 48.00 12.00 C 48.00 10.00 48.00 8.00 48.00 6.00 C 45.33 8.67 42.66 11.33 40.00 14.00 M 19.45 8.66 C 12.54 10.73 7.41 17.78 8.04 25.05 C 8.44 33.52 16.53 40.74 25.03 39.96 C 33.91 39.59 41.29 30.73 39.85 21.90 C 38.86 12.53 28.45 5.66 19.45 8.66 M 42.36 32.01 C 45.57 32.00 48.79 32.00 52.00 32.00 C 52.00 38.67 52.00 45.33 52.00 52.00 C 45.33 52.00 38.67 52.00 32.00 52.00 C 32.00 48.79 32.00 45.57 32.00 42.36 C 30.67 42.81 29.34 43.24 28.00 43.65 C 28.00 47.76 28.00 51.88 28.00 56.00 C 37.33 56.00 46.67 56.00 56.00 56.00 C 56.00 46.67 56.00 37.33 56.00 28.00 C 51.90 28.00 47.80 28.01 43.69 27.98 C 43.22 29.31 42.80 30.66 42.36 32.01 M 39.11 36.21 C 37.27 36.98 37.90 40.03 39.90 39.94 C 41.94 39.89 45.65 40.91 46.04 37.97 C 45.41 34.90 41.32 36.10 39.11 36.21 M 16.00 42.01 C 16.00 44.01 16.00 46.00 16.00 48.00 C 13.33 48.00 10.67 48.00 8.00 48.00 C 8.00 49.33 8.00 50.67 8.00 52.00 C 10.67 52.00 13.33 52.00 16.00 52.00 C 16.00 54.00 16.00 56.00 16.00 58.00 C 18.67 55.33 21.34 52.65 24.01 49.98 C 21.35 47.31 18.69 44.65 16.00 42.01 Z" />
<path fill="#ffffff" opacity="1.00" d=" M 20.38 12.58 C 27.36 10.09 35.51 15.56 35.91 22.93 C 36.79 30.07 30.09 36.84 22.92 35.91 C 15.83 35.50 10.43 27.92 12.38 21.07 C 13.35 17.10 16.48 13.80 20.38 12.58 M 19.79 17.00 C 19.36 19.61 18.82 22.21 18.43 24.83 C 20.63 25.39 25.69 23.23 25.79 26.66 C 23.20 28.00 20.74 25.06 17.92 26.05 C 18.38 30.46 23.52 32.62 27.21 30.41 C 30.29 28.81 30.50 24.49 28.15 22.14 C 26.86 22.31 26.06 21.69 26.75 20.56 L 28.00 21.68 C 28.00 20.51 28.00 18.17 28.00 17.00 C 25.26 17.00 22.52 17.00 19.79 17.00 Z" />
</g>
<g id="#000000ff">
<path fill="#000000" opacity="1.00" d=" M 40.00 14.00 C 42.66 11.33 45.33 8.67 48.00 6.00 C 48.00 8.00 48.00 10.00 48.00 12.00 C 50.67 12.00 53.33 12.00 56.00 12.00 C 56.00 13.33 56.00 14.67 56.00 16.00 C 53.33 16.00 50.67 16.00 48.00 16.00 C 48.00 18.00 48.00 20.00 48.00 22.00 C 45.34 19.32 42.66 16.67 40.00 14.00 Z" />
<path fill="#000000" opacity="1.00" d=" M 19.45 8.66 C 28.45 5.66 38.86 12.53 39.85 21.90 C 41.29 30.73 33.91 39.59 25.03 39.96 C 16.53 40.74 8.44 33.52 8.04 25.05 C 7.41 17.78 12.54 10.73 19.45 8.66 M 20.38 12.58 C 16.48 13.80 13.35 17.10 12.38 21.07 C 10.43 27.92 15.83 35.50 22.92 35.91 C 30.09 36.84 36.79 30.07 35.91 22.93 C 35.51 15.56 27.36 10.09 20.38 12.58 Z" />
<path fill="#000000" opacity="1.00" d=" M 19.79 17.00 C 22.52 17.00 25.26 17.00 28.00 17.00 C 28.00 18.17 28.00 20.51 28.00 21.68 L 26.75 20.56 C 26.06 21.69 26.86 22.31 28.15 22.14 C 30.50 24.49 30.29 28.81 27.21 30.41 C 23.52 32.62 18.38 30.46 17.92 26.05 C 20.74 25.06 23.20 28.00 25.79 26.66 C 25.69 23.23 20.63 25.39 18.43 24.83 C 18.82 22.21 19.36 19.61 19.79 17.00 Z" />
<path fill="#000000" opacity="1.00" d=" M 42.36 32.01 C 42.80 30.66 43.22 29.31 43.69 27.98 C 47.80 28.01 51.90 28.00 56.00 28.00 C 56.00 37.33 56.00 46.67 56.00 56.00 C 46.67 56.00 37.33 56.00 28.00 56.00 C 28.00 51.88 28.00 47.76 28.00 43.65 C 29.34 43.24 30.67 42.81 32.00 42.36 C 32.00 45.57 32.00 48.79 32.00 52.00 C 38.67 52.00 45.33 52.00 52.00 52.00 C 52.00 45.33 52.00 38.67 52.00 32.00 C 48.79 32.00 45.57 32.00 42.36 32.01 Z" />
<path fill="#000000" opacity="1.00" d=" M 39.11 36.21 C 41.32 36.10 45.41 34.90 46.04 37.97 C 45.65 40.91 41.94 39.89 39.90 39.94 C 37.90 40.03 37.27 36.98 39.11 36.21 Z" />
<path fill="#000000" opacity="1.00" d=" M 16.00 42.01 C 18.69 44.65 21.35 47.31 24.01 49.98 C 21.34 52.65 18.67 55.33 16.00 58.00 C 16.00 56.00 16.00 54.00 16.00 52.00 C 13.33 52.00 10.67 52.00 8.00 52.00 C 8.00 50.67 8.00 49.33 8.00 48.00 C 10.67 48.00 13.33 48.00 16.00 48.00 C 16.00 46.00 16.00 44.01 16.00 42.01 Z" />
</g>
</svg>
