<?xml version="1.0" encoding="UTF-8" ?>
<!DOCTYPE svg PUBLIC "-//W3C//DTD SVG 1.1//EN" "http://www.w3.org/Graphics/SVG/1.1/DTD/svg11.dtd">
<svg width="64pt" height="64pt" viewBox="0 0 64 64" version="1.1" xmlns="http://www.w3.org/2000/svg">
<g id="#ffffffff">
<path fill="#ffffff" opacity="1.00" d=" M 0.00 0.00 L 64.00 0.00 L 64.00 64.00 L 0.00 64.00 L 0.00 0.00 M 39.94 15.87 C 34.61 13.86 29.30 11.79 23.94 9.86 C 18.73 12.38 13.03 14.13 8.06 16.95 C 7.91 29.64 8.05 42.35 8.00 55.05 C 13.35 52.73 18.71 50.45 24.06 48.12 C 29.39 50.13 34.72 52.11 40.04 54.14 C 45.39 51.89 50.73 49.60 56.04 47.24 C 55.95 34.48 56.03 21.71 56.00 8.94 C 50.67 11.32 45.31 13.60 39.94 15.87 Z" />
<path fill="#ffffff" opacity="1.00" d=" M 12.00 19.32 C 16.03 17.61 20.04 15.84 24.06 14.12 C 29.38 16.14 34.73 18.10 40.04 20.14 C 44.05 18.49 48.01 16.71 52.00 15.00 C 52.00 24.91 52.01 34.81 51.99 44.71 C 47.99 46.47 43.94 48.13 39.94 49.87 C 34.60 47.89 29.30 45.79 23.95 43.86 C 19.98 45.60 15.99 47.29 12.00 49.00 C 12.00 39.10 12.00 29.21 12.00 19.32 M 41.11 22.11 C 38.89 23.22 40.43 26.89 42.77 25.84 C 45.24 24.86 43.51 21.05 41.11 22.11 M 16.55 29.44 C 18.08 30.95 19.60 32.48 21.12 34.00 C 19.60 35.52 18.08 37.05 16.56 38.57 C 17.54 39.52 18.51 40.47 19.48 41.43 C 20.97 39.90 22.49 38.39 24.00 36.88 C 25.52 38.40 27.04 39.91 28.56 41.44 C 29.51 40.47 30.47 39.51 31.44 38.55 C 29.91 37.04 28.40 35.52 26.88 34.00 C 28.40 32.48 29.91 30.96 31.44 29.45 C 30.48 28.49 29.52 27.53 28.59 26.55 C 27.06 28.07 25.52 29.59 24.00 31.12 C 22.48 29.61 20.97 28.09 19.48 26.55 C 18.52 27.53 17.54 28.49 16.55 29.44 M 45.15 28.11 C 42.82 29.14 44.48 33.00 46.79 31.80 C 49.24 30.87 47.50 27.06 45.15 28.11 M 33.15 32.15 C 32.00 32.73 31.53 34.48 32.59 35.37 C 33.59 36.72 36.21 35.73 35.93 34.01 C 36.18 32.55 34.38 31.61 33.15 32.15 M 45.23 34.19 C 42.78 35.06 44.43 38.90 46.80 37.89 C 49.19 36.91 47.54 33.02 45.23 34.19 M 39.18 36.11 C 36.86 37.12 38.38 40.89 40.78 39.85 C 43.18 38.88 41.57 35.10 39.18 36.11 Z" />
</g>
<g id="#000000ff">
<path fill="#000000" opacity="1.00" d=" M 39.94 15.87 C 45.31 13.60 50.67 11.32 56.00 8.94 C 56.03 21.71 55.95 34.48 56.04 47.24 C 50.73 49.60 45.39 51.89 40.04 54.14 C 34.72 52.11 29.39 50.13 24.06 48.12 C 18.71 50.45 13.35 52.73 8.00 55.05 C 8.05 42.35 7.91 29.64 8.06 16.95 C 13.03 14.13 18.73 12.38 23.94 9.86 C 29.30 11.79 34.61 13.86 39.94 15.87 M 12.00 19.32 C 12.00 29.21 12.00 39.10 12.00 49.00 C 15.99 47.29 19.98 45.60 23.95 43.86 C 29.30 45.79 34.60 47.89 39.94 49.87 C 43.94 48.13 47.99 46.47 51.99 44.71 C 52.01 34.81 52.00 24.91 52.00 15.00 C 48.01 16.71 44.05 18.49 40.04 20.14 C 34.73 18.10 29.38 16.14 24.06 14.12 C 20.04 15.84 16.03 17.61 12.00 19.32 Z" />
<path fill="#000000" opacity="1.00" d=" M 41.11 22.11 C 43.51 21.05 45.24 24.86 42.77 25.84 C 40.43 26.89 38.89 23.22 41.11 22.11 Z" />
<path fill="#000000" opacity="1.00" d=" M 16.55 29.44 C 17.54 28.49 18.52 27.53 19.48 26.55 C 20.97 28.09 22.48 29.61 24.00 31.12 C 25.52 29.59 27.06 28.07 28.59 26.55 C 29.52 27.53 30.48 28.49 31.44 29.45 C 29.91 30.96 28.40 32.48 26.88 34.00 C 28.40 35.52 29.91 37.04 31.44 38.55 C 30.47 39.51 29.51 40.47 28.56 41.44 C 27.04 39.91 25.52 38.40 24.00 36.88 C 22.49 38.39 20.97 39.90 19.48 41.43 C 18.51 40.47 17.54 39.52 16.56 38.57 C 18.08 37.05 19.60 35.52 21.12 34.00 C 19.60 32.48 18.08 30.95 16.55 29.44 Z" />
<path fill="#000000" opacity="1.00" d=" M 45.15 28.11 C 47.50 27.06 49.24 30.87 46.79 31.80 C 44.48 33.00 42.82 29.14 45.15 28.11 Z" />
<path fill="#000000" opacity="1.00" d=" M 33.15 32.15 C 34.38 31.61 36.18 32.55 35.93 34.01 C 36.21 35.73 33.59 36.72 32.59 35.37 C 31.53 34.48 32.00 32.73 33.15 32.15 Z" />
<path fill="#000000" opacity="1.00" d=" M 45.23 34.19 C 47.54 33.02 49.19 36.91 46.80 37.89 C 44.43 38.90 42.78 35.06 45.23 34.19 Z" />
<path fill="#000000" opacity="1.00" d=" M 39.18 36.11 C 41.57 35.10 43.18 38.88 40.78 39.85 C 38.38 40.89 36.86 37.12 39.18 36.11 Z" />
</g>
</svg>
