<?xml version="1.0" encoding="UTF-8" ?>
<!DOCTYPE svg PUBLIC "-//W3C//DTD SVG 1.1//EN" "http://www.w3.org/Graphics/SVG/1.1/DTD/svg11.dtd">
<svg width="64pt" height="64pt" viewBox="0 0 64 64" version="1.1" xmlns="http://www.w3.org/2000/svg">
<g id="#ffffffff">
<path fill="#ffffff" opacity="1.00" d=" M 0.00 0.00 L 64.00 0.00 L 64.00 64.00 L 0.00 64.00 L 0.00 0.00 M 27.31 12.29 C 24.62 15.41 26.41 20.22 29.98 21.72 C 30.01 23.81 30.00 25.91 30.00 28.00 C 27.33 27.99 24.67 28.01 22.00 28.00 C 22.00 32.00 22.00 36.00 22.00 40.00 C 23.33 39.99 24.67 39.99 26.00 40.00 C 25.99 37.33 26.01 34.67 26.00 32.00 C 28.67 32.01 31.33 31.99 34.00 32.00 C 34.06 28.63 33.88 25.26 34.05 21.89 C 36.58 20.23 38.99 17.34 37.67 14.10 C 36.42 9.70 29.97 8.56 27.31 12.29 M 6.36 42.37 C 3.62 43.49 3.13 47.71 5.74 49.25 C 7.65 50.78 10.67 49.81 11.61 47.64 C 13.32 44.56 9.47 40.66 6.36 42.37 M 22.33 42.40 C 19.62 43.52 19.15 47.70 21.72 49.24 C 23.65 50.81 26.73 49.80 27.65 47.57 C 29.27 44.47 25.40 40.64 22.33 42.40 M 38.41 42.35 C 33.57 44.20 37.01 52.00 41.62 49.62 C 46.38 47.77 43.01 40.03 38.41 42.35 M 54.34 42.38 C 51.64 43.50 51.14 47.65 53.69 49.22 C 55.62 50.81 58.72 49.81 59.64 47.58 C 61.27 44.48 57.43 40.66 54.34 42.38 Z" />
<path fill="#ffffff" opacity="1.00" d=" M 31.16 14.10 C 33.56 13.04 35.23 16.95 32.75 17.83 C 30.43 18.95 28.85 15.12 31.16 14.10 Z" />
</g>
<g id="#000000ff">
<path fill="#000000" opacity="1.00" d=" M 27.31 12.29 C 29.97 8.56 36.42 9.70 37.67 14.10 C 38.99 17.34 36.58 20.23 34.05 21.89 C 33.88 25.26 34.06 28.63 34.00 32.00 C 31.33 31.99 28.67 32.01 26.00 32.00 C 26.01 34.67 25.99 37.33 26.00 40.00 C 24.67 39.99 23.33 39.99 22.00 40.00 C 22.00 36.00 22.00 32.00 22.00 28.00 C 24.67 28.01 27.33 27.99 30.00 28.00 C 30.00 25.91 30.01 23.81 29.98 21.72 C 26.41 20.22 24.62 15.41 27.31 12.29 M 31.16 14.10 C 28.85 15.12 30.43 18.95 32.75 17.83 C 35.23 16.95 33.56 13.04 31.16 14.10 Z" />
<path fill="#000000" opacity="1.00" d=" M 6.36 42.37 C 9.47 40.66 13.32 44.56 11.61 47.64 C 10.67 49.81 7.65 50.78 5.74 49.25 C 3.13 47.71 3.62 43.49 6.36 42.37 Z" />
<path fill="#000000" opacity="1.00" d=" M 22.33 42.40 C 25.40 40.64 29.27 44.47 27.65 47.57 C 26.73 49.80 23.65 50.81 21.72 49.24 C 19.15 47.70 19.62 43.52 22.33 42.40 Z" />
<path fill="#000000" opacity="1.00" d=" M 38.41 42.35 C 43.01 40.03 46.38 47.77 41.62 49.62 C 37.01 52.00 33.57 44.20 38.41 42.35 Z" />
<path fill="#000000" opacity="1.00" d=" M 54.34 42.38 C 57.43 40.66 61.27 44.48 59.64 47.58 C 58.72 49.81 55.62 50.81 53.69 49.22 C 51.14 47.65 51.64 43.50 54.34 42.38 Z" />
</g>
</svg>
