<?xml version="1.0" encoding="UTF-8" ?>
<!DOCTYPE svg PUBLIC "-//W3C//DTD SVG 1.1//EN" "http://www.w3.org/Graphics/SVG/1.1/DTD/svg11.dtd">
<svg width="64pt" height="64pt" viewBox="0 0 64 64" version="1.1" xmlns="http://www.w3.org/2000/svg">
<g id="#ffffffff">
<path fill="#ffffff" opacity="1.00" d=" M 0.00 0.00 L 64.00 0.00 L 64.00 64.00 L 0.00 64.00 L 0.00 0.00 M 13.59 26.57 C 14.53 27.52 15.47 28.47 16.41 29.41 C 21.00 24.98 25.46 20.41 29.99 15.91 C 30.02 29.27 29.99 42.64 30.00 56.00 C 31.33 56.00 32.67 56.00 34.00 56.00 C 34.01 42.63 33.98 29.25 34.01 15.88 C 38.52 20.40 43.05 24.90 47.54 29.43 C 48.51 28.47 49.48 27.52 50.44 26.56 C 44.31 20.42 38.21 14.24 32.00 8.18 C 25.82 14.27 19.70 20.42 13.59 26.57 Z" />
</g>
<g id="#000000ff">
<path fill="#000000" opacity="1.00" d=" M 13.59 26.57 C 19.70 20.42 25.82 14.27 32.00 8.18 C 38.21 14.24 44.31 20.42 50.44 26.56 C 49.48 27.52 48.51 28.47 47.54 29.43 C 43.05 24.90 38.52 20.40 34.01 15.88 C 33.98 29.25 34.01 42.63 34.00 56.00 C 32.67 56.00 31.33 56.00 30.00 56.00 C 29.99 42.64 30.02 29.27 29.99 15.91 C 25.46 20.41 21.00 24.98 16.41 29.41 C 15.47 28.47 14.53 27.52 13.59 26.57 Z" />
</g>
</svg>
