<?xml version="1.0" encoding="UTF-8" ?>
<!DOCTYPE svg PUBLIC "-//W3C//DTD SVG 1.1//EN" "http://www.w3.org/Graphics/SVG/1.1/DTD/svg11.dtd">
<svg width="64pt" height="64pt" viewBox="0 0 64 64" version="1.1" xmlns="http://www.w3.org/2000/svg">
<g id="#ffffffff">
<path fill="#ffffff" opacity="1.00" d=" M 0.00 0.00 L 64.00 0.00 L 64.00 38.81 C 63.61 34.80 59.99 32.30 59.25 28.45 C 57.99 22.65 52.54 18.64 46.80 18.03 C 43.99 12.00 37.76 7.36 30.90 8.08 C 23.38 8.41 17.36 14.83 16.29 22.07 C 12.85 23.02 10.07 25.36 8.54 28.57 C 4.01 30.29 0.30 34.24 0.00 39.24 L 0.00 0.00 Z" />
<path fill="#ffffff" opacity="1.00" d=" M 22.56 16.54 C 26.44 11.40 34.64 10.50 39.55 14.67 C 41.88 16.45 43.06 19.22 44.00 21.91 C 50.42 21.09 56.50 26.36 56.13 32.93 C 58.72 35.06 60.70 38.36 59.79 41.83 C 59.05 45.82 54.96 48.38 51.04 48.00 C 37.67 47.92 24.29 48.16 10.93 47.88 C 5.71 47.56 2.43 41.29 4.72 36.70 C 5.89 33.81 8.89 32.42 11.76 31.84 C 12.22 27.81 16.02 25.33 19.94 25.93 C 19.96 22.64 20.37 19.15 22.56 16.54 M 22.56 32.56 C 23.53 33.51 24.49 34.47 25.45 35.44 C 26.96 33.92 28.48 32.40 30.00 30.89 C 30.00 35.26 30.00 39.63 30.00 44.00 C 31.33 44.00 32.67 44.00 34.00 44.00 C 34.00 39.63 33.99 35.26 34.01 30.89 C 35.53 32.41 37.05 33.93 38.57 35.45 C 39.52 34.46 40.48 33.47 41.44 32.47 C 38.22 29.44 35.18 26.23 32.00 23.17 C 28.82 26.27 25.71 29.43 22.56 32.56 Z" />
<path fill="#ffffff" opacity="1.00" d=" M 0.00 40.57 C 0.26 46.76 5.74 52.10 11.97 51.96 C 25.32 52.03 38.68 52.04 52.03 51.95 C 58.25 52.14 63.64 46.80 64.00 40.67 L 64.00 64.00 L 0.00 64.00 L 0.00 40.57 Z" />
</g>
<g id="#000000ff">
<path fill="#000000" opacity="1.00" d=" M 16.29 22.07 C 17.36 14.83 23.38 8.41 30.90 8.08 C 37.76 7.36 43.99 12.00 46.80 18.03 C 52.54 18.64 57.99 22.65 59.25 28.45 C 59.99 32.30 63.61 34.80 64.00 38.81 L 64.00 40.67 C 63.64 46.80 58.25 52.14 52.03 51.95 C 38.68 52.04 25.32 52.03 11.97 51.96 C 5.74 52.10 0.26 46.76 0.00 40.57 L 0.00 39.24 C 0.30 34.24 4.01 30.29 8.54 28.57 C 10.07 25.36 12.85 23.02 16.29 22.07 M 22.56 16.54 C 20.37 19.15 19.96 22.64 19.94 25.93 C 16.02 25.33 12.22 27.81 11.76 31.84 C 8.89 32.42 5.89 33.81 4.72 36.70 C 2.43 41.29 5.71 47.56 10.93 47.88 C 24.29 48.16 37.67 47.92 51.04 48.00 C 54.96 48.38 59.05 45.82 59.79 41.83 C 60.70 38.36 58.72 35.06 56.13 32.93 C 56.50 26.36 50.42 21.09 44.00 21.91 C 43.06 19.22 41.88 16.45 39.55 14.67 C 34.64 10.50 26.44 11.40 22.56 16.54 Z" />
<path fill="#000000" opacity="1.00" d=" M 22.56 32.56 C 25.71 29.43 28.82 26.27 32.00 23.17 C 35.18 26.23 38.22 29.44 41.44 32.47 C 40.48 33.47 39.52 34.46 38.57 35.45 C 37.05 33.93 35.53 32.41 34.01 30.89 C 33.99 35.26 34.00 39.63 34.00 44.00 C 32.67 44.00 31.33 44.00 30.00 44.00 C 30.00 39.63 30.00 35.26 30.00 30.89 C 28.48 32.40 26.96 33.92 25.45 35.44 C 24.49 34.47 23.53 33.51 22.56 32.56 Z" />
</g>
</svg>
