<?xml version="1.0" encoding="UTF-8" ?>
<!DOCTYPE svg PUBLIC "-//W3C//DTD SVG 1.1//EN" "http://www.w3.org/Graphics/SVG/1.1/DTD/svg11.dtd">
<svg width="64pt" height="64pt" viewBox="0 0 64 64" version="1.1" xmlns="http://www.w3.org/2000/svg">
<g id="#ffffffff">
<path fill="#ffffff" opacity="1.00" d=" M 0.00 0.00 L 64.00 0.00 L 64.00 64.00 L 0.00 64.00 L 0.00 0.00 M 6.08 15.85 C 5.87 19.56 6.92 23.25 8.52 26.56 C 9.58 28.75 13.28 28.25 13.82 25.90 C 14.66 23.78 12.62 22.32 10.90 21.71 C 10.20 18.96 9.16 15.59 11.22 13.17 C 13.10 11.08 16.55 12.12 18.08 14.09 C 19.79 17.49 19.71 21.39 20.35 25.06 C 20.84 28.30 23.13 30.88 23.96 34.01 C 23.20 36.98 21.64 39.86 22.05 43.02 C 22.50 47.39 23.87 51.60 24.09 56.00 C 25.42 56.00 26.75 56.00 28.07 55.98 C 27.96 51.60 26.75 47.38 26.13 43.07 C 25.38 39.51 28.49 36.47 27.88 32.93 C 27.23 30.05 25.20 27.71 24.40 24.89 C 23.86 22.01 23.69 19.07 23.08 16.19 C 26.09 15.60 28.96 14.39 32.01 14.03 C 35.05 14.41 37.92 15.60 40.92 16.20 C 40.32 19.06 40.12 21.98 39.61 24.85 C 38.86 27.73 36.72 30.05 36.10 32.98 C 35.55 36.48 38.58 39.49 37.87 43.02 C 37.24 47.35 36.06 51.59 35.91 55.99 C 37.24 56.00 38.57 56.00 39.90 56.00 C 40.13 51.61 41.50 47.39 41.95 43.03 C 42.35 39.88 40.81 37.01 40.05 34.05 C 40.85 30.91 43.14 28.33 43.64 25.09 C 44.28 21.43 44.20 17.53 45.90 14.13 C 47.40 12.10 50.96 11.06 52.82 13.22 C 54.82 15.64 53.80 18.98 53.10 21.71 C 51.39 22.32 49.31 23.80 50.20 25.91 C 50.70 28.22 54.35 28.76 55.42 26.62 C 58.06 21.41 59.82 13.58 54.43 9.48 C 50.86 6.64 46.19 8.51 42.99 10.94 C 40.57 13.07 37.58 10.93 34.92 10.45 C 30.84 8.99 26.97 11.53 22.99 11.99 C 19.97 10.70 17.47 7.97 13.98 8.02 C 9.76 7.94 6.35 11.81 6.08 15.85 Z" />
</g>
<g id="#000000ff">
<path fill="#000000" opacity="1.00" d=" M 6.08 15.85 C 6.35 11.81 9.76 7.94 13.98 8.02 C 17.47 7.97 19.97 10.70 22.99 11.99 C 26.97 11.53 30.84 8.99 34.92 10.45 C 37.58 10.93 40.57 13.07 42.99 10.94 C 46.19 8.51 50.86 6.64 54.43 9.48 C 59.82 13.58 58.06 21.41 55.42 26.62 C 54.35 28.76 50.70 28.22 50.20 25.91 C 49.31 23.80 51.39 22.32 53.10 21.71 C 53.80 18.98 54.82 15.64 52.82 13.22 C 50.96 11.06 47.40 12.10 45.90 14.13 C 44.20 17.53 44.28 21.43 43.64 25.09 C 43.14 28.33 40.85 30.91 40.05 34.05 C 40.81 37.01 42.35 39.88 41.95 43.03 C 41.50 47.39 40.13 51.61 39.90 56.00 C 38.57 56.00 37.24 56.00 35.91 55.99 C 36.06 51.59 37.24 47.35 37.87 43.02 C 38.58 39.49 35.55 36.48 36.10 32.98 C 36.72 30.05 38.86 27.73 39.61 24.85 C 40.12 21.98 40.32 19.06 40.92 16.20 C 37.92 15.60 35.05 14.41 32.01 14.03 C 28.96 14.39 26.09 15.60 23.08 16.19 C 23.69 19.07 23.86 22.01 24.40 24.89 C 25.20 27.71 27.23 30.05 27.88 32.93 C 28.49 36.47 25.38 39.51 26.13 43.07 C 26.75 47.38 27.96 51.60 28.07 55.98 C 26.75 56.00 25.42 56.00 24.09 56.00 C 23.87 51.60 22.50 47.39 22.05 43.02 C 21.64 39.86 23.20 36.98 23.96 34.01 C 23.13 30.88 20.84 28.30 20.35 25.06 C 19.71 21.39 19.79 17.49 18.08 14.09 C 16.55 12.12 13.10 11.08 11.22 13.17 C 9.16 15.59 10.20 18.96 10.90 21.71 C 12.62 22.32 14.66 23.78 13.82 25.90 C 13.28 28.25 9.58 28.75 8.52 26.56 C 6.92 23.25 5.87 19.56 6.08 15.85 Z" />
</g>
</svg>
