<?xml version="1.0" encoding="UTF-8" ?>
<!DOCTYPE svg PUBLIC "-//W3C//DTD SVG 1.1//EN" "http://www.w3.org/Graphics/SVG/1.1/DTD/svg11.dtd">
<svg width="64pt" height="64pt" viewBox="0 0 64 64" version="1.1" xmlns="http://www.w3.org/2000/svg">
<g id="#ffffffff">
<path fill="#ffffff" opacity="1.00" d=" M 0.00 0.00 L 64.00 0.00 L 64.00 64.00 L 0.00 64.00 L 0.00 0.00 M 18.30 10.29 C 13.72 14.46 13.77 21.04 14.00 26.74 C 12.68 26.09 11.36 25.44 10.03 24.80 C 9.98 30.72 9.81 39.00 16.34 41.71 C 17.44 47.02 20.53 51.83 24.97 54.95 C 27.68 56.93 31.20 58.96 34.62 57.47 C 41.17 54.70 46.27 48.65 47.62 41.62 C 54.12 38.93 53.91 30.66 54.04 24.77 C 52.69 25.42 51.34 26.08 50.00 26.75 C 49.93 22.64 50.50 18.26 48.61 14.44 C 46.43 9.62 41.43 6.22 36.13 6.07 C 30.02 5.80 22.84 5.36 18.30 10.29 Z" />
<path fill="#ffffff" opacity="1.00" d=" M 22.40 11.59 C 28.47 9.22 35.62 9.23 41.68 11.60 C 37.68 11.72 34.17 13.77 32.03 17.12 C 29.87 13.80 26.38 11.75 22.40 11.59 Z" />
<path fill="#ffffff" opacity="1.00" d=" M 18.32 20.15 C 18.93 16.90 22.71 15.15 25.67 16.40 C 28.51 17.90 29.55 21.18 30.58 23.99 C 31.54 23.99 32.51 23.99 33.47 23.99 C 34.50 21.41 35.37 18.47 37.73 16.75 C 40.63 14.90 45.09 16.60 45.70 20.10 C 46.35 24.43 45.85 28.85 46.00 33.22 C 47.24 32.63 48.49 32.06 49.74 31.49 C 49.23 34.51 48.08 38.69 44.11 38.00 C 44.32 44.73 39.45 50.63 33.67 53.48 C 31.91 54.60 30.00 53.39 28.45 52.49 C 23.59 49.42 19.60 44.12 19.92 38.13 C 15.83 38.86 14.68 34.55 14.18 31.44 C 15.46 32.03 16.73 32.62 18.00 33.22 C 18.16 28.87 17.62 24.46 18.32 20.15 M 19.75 31.82 C 20.92 34.53 22.90 37.45 26.01 37.99 C 28.30 38.12 29.59 35.95 30.24 34.07 C 26.75 33.29 23.27 32.48 19.75 31.82 M 33.76 34.07 C 34.32 36.28 36.29 38.63 38.82 37.85 C 41.45 36.78 43.18 34.35 44.25 31.82 C 40.73 32.48 37.25 33.29 33.76 34.07 M 24.00 42.00 C 24.00 43.33 24.00 44.67 24.00 46.00 C 25.33 46.00 26.66 46.00 27.98 46.00 C 28.00 47.00 28.03 49.01 28.05 50.02 C 28.87 48.70 29.70 47.40 30.52 46.09 C 31.51 46.08 32.50 46.09 33.49 46.10 C 34.31 47.41 35.13 48.71 35.96 50.02 C 35.97 49.01 36.00 47.00 36.01 46.00 C 37.34 46.00 38.67 46.00 40.00 46.00 C 40.00 44.67 40.00 43.33 40.00 42.00 C 34.67 42.00 29.33 42.00 24.00 42.00 Z" />
</g>
<g id="#000000ff">
<path fill="#000000" opacity="1.00" d=" M 18.30 10.29 C 22.84 5.36 30.02 5.80 36.13 6.07 C 41.43 6.22 46.43 9.62 48.61 14.44 C 50.50 18.26 49.93 22.64 50.00 26.75 C 51.34 26.08 52.69 25.42 54.04 24.77 C 53.91 30.66 54.12 38.93 47.62 41.62 C 46.27 48.65 41.17 54.70 34.62 57.47 C 31.20 58.96 27.68 56.93 24.97 54.95 C 20.53 51.83 17.44 47.02 16.34 41.71 C 9.81 39.00 9.98 30.72 10.03 24.80 C 11.36 25.44 12.68 26.09 14.00 26.74 C 13.77 21.04 13.72 14.46 18.30 10.29 M 22.40 11.59 C 26.38 11.75 29.87 13.80 32.03 17.12 C 34.17 13.77 37.68 11.72 41.68 11.60 C 35.62 9.23 28.47 9.22 22.40 11.59 M 18.32 20.15 C 17.62 24.46 18.16 28.87 18.00 33.22 C 16.73 32.62 15.46 32.03 14.18 31.44 C 14.68 34.55 15.83 38.86 19.92 38.13 C 19.60 44.12 23.59 49.42 28.45 52.49 C 30.00 53.39 31.91 54.60 33.67 53.48 C 39.45 50.63 44.32 44.73 44.11 38.00 C 48.08 38.69 49.23 34.51 49.74 31.49 C 48.49 32.06 47.24 32.63 46.00 33.22 C 45.85 28.85 46.35 24.43 45.70 20.10 C 45.09 16.60 40.63 14.90 37.73 16.75 C 35.37 18.47 34.50 21.41 33.47 23.99 C 32.51 23.99 31.54 23.99 30.58 23.99 C 29.55 21.18 28.51 17.90 25.67 16.40 C 22.71 15.15 18.93 16.90 18.32 20.15 Z" />
<path fill="#000000" opacity="1.00" d=" M 19.75 31.82 C 23.27 32.48 26.75 33.29 30.24 34.07 C 29.59 35.95 28.30 38.12 26.01 37.99 C 22.90 37.45 20.92 34.53 19.75 31.82 Z" />
<path fill="#000000" opacity="1.00" d=" M 33.76 34.07 C 37.25 33.29 40.73 32.48 44.25 31.82 C 43.18 34.35 41.45 36.78 38.82 37.85 C 36.29 38.63 34.32 36.28 33.76 34.07 Z" />
<path fill="#000000" opacity="1.00" d=" M 24.00 42.00 C 29.33 42.00 34.67 42.00 40.00 42.00 C 40.00 43.33 40.00 44.67 40.00 46.00 C 38.67 46.00 37.34 46.00 36.01 46.00 C 36.00 47.00 35.97 49.01 35.96 50.02 C 35.13 48.71 34.31 47.41 33.49 46.10 C 32.50 46.09 31.51 46.08 30.52 46.09 C 29.70 47.40 28.87 48.70 28.05 50.02 C 28.03 49.01 28.00 47.00 27.98 46.00 C 26.66 46.00 25.33 46.00 24.00 46.00 C 24.00 44.67 24.00 43.33 24.00 42.00 Z" />
</g>
</svg>
