<?xml version="1.0" encoding="UTF-8" ?>
<!DOCTYPE svg PUBLIC "-//W3C//DTD SVG 1.1//EN" "http://www.w3.org/Graphics/SVG/1.1/DTD/svg11.dtd">
<svg width="64pt" height="64pt" viewBox="0 0 64 64" version="1.1" xmlns="http://www.w3.org/2000/svg">
<g id="#ffffffff">
<path fill="#ffffff" opacity="1.00" d=" M 0.00 0.00 L 64.00 0.00 L 64.00 64.00 L 0.00 64.00 L 0.00 0.00 M 36.60 4.57 C 33.89 7.72 30.00 10.08 28.40 14.04 C 27.19 20.41 28.88 27.12 27.50 33.42 C 23.94 37.58 19.79 41.21 16.00 45.17 C 16.14 41.16 15.70 37.10 16.23 33.12 C 18.09 30.12 21.10 28.02 23.43 25.39 C 22.46 24.47 21.51 23.53 20.56 22.59 C 17.42 26.41 11.77 29.29 12.01 34.93 C 11.96 39.67 12.02 44.41 12.01 49.15 C 10.22 50.97 8.42 52.78 6.59 54.56 C 7.55 55.50 8.51 56.45 9.46 57.41 C 13.91 52.91 18.38 48.45 22.87 43.99 C 28.63 43.95 34.39 44.12 40.15 43.92 C 42.45 43.88 44.39 42.49 45.93 40.91 C 49.10 37.75 52.23 34.57 55.41 31.43 C 54.47 30.49 53.54 29.54 52.61 28.57 C 49.42 31.72 46.28 34.91 43.11 38.08 C 42.22 38.86 41.32 39.93 40.02 39.92 C 35.63 40.14 31.23 39.93 26.84 39.99 C 28.20 38.63 29.66 37.33 30.77 35.73 C 32.30 33.46 31.95 30.59 32.03 28.00 C 35.68 27.90 40.01 28.72 42.88 25.87 C 47.15 21.83 51.20 17.56 55.40 13.44 C 54.48 12.49 53.56 11.54 52.65 10.58 C 48.54 14.51 44.64 18.65 40.55 22.60 C 38.34 24.91 34.82 23.73 32.00 24.00 C 32.10 21.02 31.71 17.99 32.26 15.04 C 34.15 12.10 37.10 10.00 39.43 7.41 C 38.48 6.48 37.53 5.53 36.60 4.57 Z" />
</g>
<g id="#000000ff">
<path fill="#000000" opacity="1.00" d=" M 36.60 4.57 C 37.53 5.53 38.48 6.48 39.43 7.41 C 37.10 10.00 34.15 12.10 32.26 15.04 C 31.71 17.99 32.10 21.02 32.00 24.00 C 34.82 23.73 38.34 24.91 40.55 22.60 C 44.64 18.65 48.54 14.51 52.65 10.58 C 53.56 11.54 54.48 12.49 55.40 13.44 C 51.20 17.56 47.15 21.83 42.88 25.87 C 40.01 28.72 35.68 27.90 32.03 28.00 C 31.95 30.59 32.30 33.46 30.77 35.73 C 29.66 37.33 28.20 38.63 26.84 39.99 C 31.23 39.93 35.63 40.14 40.02 39.92 C 41.32 39.93 42.22 38.86 43.11 38.08 C 46.28 34.91 49.42 31.72 52.61 28.57 C 53.54 29.54 54.47 30.49 55.41 31.43 C 52.23 34.57 49.10 37.75 45.93 40.91 C 44.39 42.49 42.45 43.88 40.15 43.92 C 34.39 44.12 28.63 43.95 22.87 43.99 C 18.38 48.45 13.91 52.91 9.46 57.41 C 8.51 56.45 7.55 55.50 6.59 54.56 C 8.42 52.78 10.22 50.97 12.01 49.15 C 12.02 44.41 11.96 39.67 12.01 34.93 C 11.77 29.29 17.42 26.41 20.56 22.59 C 21.51 23.53 22.46 24.47 23.43 25.39 C 21.10 28.02 18.09 30.12 16.23 33.12 C 15.70 37.10 16.14 41.16 16.00 45.17 C 19.79 41.21 23.94 37.58 27.50 33.42 C 28.88 27.12 27.19 20.41 28.40 14.04 C 30.00 10.08 33.89 7.72 36.60 4.57 Z" />
</g>
</svg>
