<?xml version="1.0" encoding="UTF-8" ?>
<!DOCTYPE svg PUBLIC "-//W3C//DTD SVG 1.1//EN" "http://www.w3.org/Graphics/SVG/1.1/DTD/svg11.dtd">
<svg width="64pt" height="64pt" viewBox="0 0 64 64" version="1.1" xmlns="http://www.w3.org/2000/svg">
<g id="#ffffffff">
<path fill="#ffffff" opacity="1.00" d=" M 0.00 0.00 L 64.00 0.00 L 64.00 64.00 L 0.00 64.00 L 0.00 0.00 M 16.18 22.11 C 17.00 29.16 23.14 34.59 29.98 35.66 C 30.00 39.78 30.01 43.89 30.00 48.00 C 27.33 48.00 24.67 48.00 22.00 48.00 C 22.00 49.33 22.00 50.67 22.00 52.00 C 24.67 52.00 27.33 52.00 30.00 52.00 C 30.00 54.67 30.00 57.33 30.00 60.00 C 31.33 60.00 32.67 60.00 34.00 60.00 C 34.00 57.33 34.00 54.67 34.00 52.00 C 36.67 52.00 39.33 52.00 42.00 52.00 C 42.00 50.67 42.00 49.33 42.00 48.00 C 39.33 48.00 36.67 48.00 34.00 48.00 C 34.00 43.89 34.00 39.78 34.00 35.67 C 41.19 34.56 47.55 28.58 47.91 21.12 C 48.88 12.21 40.88 3.80 32.00 4.01 C 22.75 3.77 14.59 12.92 16.18 22.11 Z" />
<path fill="#ffffff" opacity="1.00" d=" M 28.32 8.61 C 35.32 6.05 43.54 11.55 43.92 18.96 C 44.71 25.69 38.81 32.15 32.03 31.96 C 25.23 32.20 19.26 25.70 20.08 18.94 C 20.41 14.24 23.83 9.99 28.32 8.61 Z" />
</g>
<g id="#000000ff">
<path fill="#000000" opacity="1.00" d=" M 16.18 22.11 C 14.59 12.92 22.75 3.77 32.00 4.01 C 40.88 3.80 48.88 12.21 47.91 21.12 C 47.55 28.58 41.19 34.56 34.00 35.67 C 34.00 39.78 34.00 43.89 34.00 48.00 C 36.67 48.00 39.33 48.00 42.00 48.00 C 42.00 49.33 42.00 50.67 42.00 52.00 C 39.33 52.00 36.67 52.00 34.00 52.00 C 34.00 54.67 34.00 57.33 34.00 60.00 C 32.67 60.00 31.33 60.00 30.00 60.00 C 30.00 57.33 30.00 54.67 30.00 52.00 C 27.33 52.00 24.67 52.00 22.00 52.00 C 22.00 50.67 22.00 49.33 22.00 48.00 C 24.67 48.00 27.33 48.00 30.00 48.00 C 30.01 43.89 30.00 39.78 29.98 35.66 C 23.14 34.59 17.00 29.16 16.18 22.11 M 28.32 8.61 C 23.83 9.99 20.41 14.24 20.08 18.94 C 19.26 25.70 25.23 32.20 32.03 31.96 C 38.81 32.15 44.71 25.69 43.92 18.96 C 43.54 11.55 35.32 6.05 28.32 8.61 Z" />
</g>
</svg>
