<?xml version="1.0" encoding="UTF-8" ?>
<!DOCTYPE svg PUBLIC "-//W3C//DTD SVG 1.1//EN" "http://www.w3.org/Graphics/SVG/1.1/DTD/svg11.dtd">
<svg width="64pt" height="64pt" viewBox="0 0 64 64" version="1.1" xmlns="http://www.w3.org/2000/svg">
<g id="#ffffffff">
<path fill="#ffffff" opacity="1.00" d=" M 0.00 0.00 L 64.00 0.00 L 64.00 64.00 L 0.00 64.00 L 0.00 0.00 M 14.49 11.96 C 13.47 9.81 12.11 7.84 10.58 6.01 C 9.76 7.07 8.90 8.10 8.01 9.11 C 10.28 11.89 11.90 15.27 11.92 18.92 C 12.12 27.94 11.94 36.97 12.00 46.00 C 13.33 46.00 14.67 46.00 16.00 46.00 C 16.02 37.31 15.96 28.60 16.01 19.91 C 16.04 15.95 18.74 12.73 21.22 9.91 C 23.73 13.04 26.21 16.70 26.02 20.90 C 25.98 29.27 26.01 37.63 26.00 46.00 C 27.33 46.00 28.67 46.00 30.00 46.00 C 30.02 37.30 29.97 28.60 30.01 19.90 C 30.03 16.06 32.30 12.74 34.70 9.93 C 36.95 12.89 39.80 15.93 39.98 19.85 C 40.11 26.58 39.86 33.32 40.06 40.05 C 40.12 43.55 42.04 46.61 43.86 49.47 C 40.84 51.21 37.45 51.92 34.00 52.08 C 34.00 53.41 34.01 54.73 34.00 56.06 C 38.43 55.89 42.82 54.83 46.55 52.36 C 48.78 54.46 51.18 56.38 53.69 58.15 C 54.38 57.03 55.08 55.91 55.78 54.80 C 53.59 53.22 51.46 51.54 49.46 49.73 C 54.13 42.99 55.66 33.55 51.95 26.06 C 50.67 23.11 46.89 20.61 43.99 23.05 C 44.85 16.62 41.28 10.41 36.44 6.45 C 32.25 4.60 29.80 9.71 27.87 12.50 C 26.22 10.18 24.98 6.96 22.02 6.06 C 18.38 5.70 16.51 9.60 14.49 11.96 Z" />
<path fill="#ffffff" opacity="1.00" d=" M 46.77 46.58 C 42.53 40.57 43.15 32.04 46.87 25.93 C 51.85 31.70 50.26 40.46 46.77 46.58 Z" />
</g>
<g id="#000000ff">
<path fill="#000000" opacity="1.00" d=" M 14.49 11.96 C 16.51 9.60 18.38 5.70 22.02 6.06 C 24.98 6.96 26.22 10.18 27.87 12.50 C 29.80 9.71 32.25 4.60 36.44 6.45 C 41.28 10.41 44.85 16.62 43.99 23.05 C 46.89 20.61 50.67 23.11 51.95 26.06 C 55.66 33.55 54.13 42.99 49.46 49.73 C 51.46 51.54 53.59 53.22 55.78 54.80 C 55.08 55.91 54.38 57.03 53.69 58.15 C 51.18 56.38 48.78 54.46 46.55 52.36 C 42.82 54.83 38.43 55.89 34.00 56.06 C 34.01 54.73 34.00 53.41 34.00 52.08 C 37.45 51.92 40.84 51.21 43.86 49.47 C 42.04 46.61 40.12 43.55 40.06 40.05 C 39.86 33.32 40.11 26.58 39.98 19.85 C 39.80 15.93 36.95 12.89 34.70 9.93 C 32.30 12.74 30.03 16.06 30.01 19.90 C 29.97 28.60 30.02 37.30 30.00 46.00 C 28.67 46.00 27.33 46.00 26.00 46.00 C 26.01 37.63 25.98 29.27 26.02 20.90 C 26.21 16.70 23.73 13.04 21.22 9.91 C 18.74 12.73 16.04 15.95 16.01 19.91 C 15.96 28.60 16.02 37.31 16.00 46.00 C 14.67 46.00 13.33 46.00 12.00 46.00 C 11.94 36.97 12.12 27.94 11.92 18.92 C 11.90 15.27 10.28 11.89 8.01 9.11 C 8.90 8.10 9.76 7.07 10.58 6.01 C 12.11 7.84 13.47 9.81 14.49 11.96 M 46.77 46.58 C 50.26 40.46 51.85 31.70 46.87 25.93 C 43.15 32.04 42.53 40.57 46.77 46.58 Z" />
</g>
</svg>
