<?xml version="1.0" encoding="UTF-8" ?>
<!DOCTYPE svg PUBLIC "-//W3C//DTD SVG 1.1//EN" "http://www.w3.org/Graphics/SVG/1.1/DTD/svg11.dtd">
<svg width="64pt" height="64pt" viewBox="0 0 64 64" version="1.1" xmlns="http://www.w3.org/2000/svg">
<g id="#ffffffff">
<path fill="#ffffff" opacity="1.00" d=" M 0.00 0.00 L 64.00 0.00 L 64.00 64.00 L 0.00 64.00 L 0.00 0.00 M 12.00 6.00 C 12.00 9.37 12.01 12.74 11.99 16.11 C 4.11 24.85 4.10 39.13 11.98 47.87 C 12.01 51.25 12.00 54.62 12.00 58.00 C 13.33 58.00 14.66 58.00 16.00 58.00 C 16.01 55.83 16.00 53.66 15.99 51.49 C 24.18 57.43 35.81 57.40 44.02 51.51 C 44.00 53.67 44.00 55.84 44.00 58.00 C 45.33 58.00 46.67 58.00 48.00 58.00 C 48.08 54.65 47.81 51.30 48.10 47.96 C 50.61 44.35 52.92 40.52 53.59 36.09 C 55.06 36.08 56.54 36.08 58.01 35.92 C 58.00 33.29 58.00 30.67 58.00 28.04 C 56.19 27.80 53.12 28.93 53.13 26.08 C 52.41 22.31 50.17 19.21 48.12 16.07 C 47.80 12.73 48.08 9.36 48.00 6.00 C 46.67 6.00 45.33 6.00 44.00 6.00 C 43.99 8.16 44.00 10.32 44.02 12.49 C 35.81 6.60 24.18 6.57 15.99 12.50 C 16.00 10.34 16.01 8.17 16.00 6.00 C 14.66 6.00 13.33 6.00 12.00 6.00 Z" />
<path fill="#ffffff" opacity="1.00" d=" M 27.10 12.21 C 33.50 11.25 40.29 13.59 44.65 18.39 C 49.49 23.49 51.24 31.26 49.07 37.95 C 46.96 45.07 40.51 50.66 33.15 51.73 C 26.69 52.83 19.77 50.45 15.35 45.61 C 10.50 40.51 8.77 32.75 10.91 26.06 C 13.04 18.83 19.63 13.22 27.10 12.21 M 28.00 18.00 C 28.00 23.33 28.00 28.67 28.00 34.00 C 31.33 34.00 34.67 34.00 38.00 34.00 C 38.00 32.67 38.00 31.33 38.00 30.00 C 36.00 30.00 34.00 30.00 32.00 30.00 C 32.00 26.00 32.00 22.00 32.00 18.00 C 30.67 18.00 29.33 18.00 28.00 18.00 Z" />
</g>
<g id="#000000ff">
<path fill="#000000" opacity="1.00" d=" M 12.00 6.00 C 13.33 6.00 14.66 6.00 16.00 6.00 C 16.01 8.17 16.00 10.34 15.99 12.50 C 24.18 6.57 35.81 6.60 44.02 12.49 C 44.00 10.32 43.99 8.16 44.00 6.00 C 45.33 6.00 46.67 6.00 48.00 6.00 C 48.08 9.36 47.80 12.73 48.12 16.07 C 50.17 19.21 52.41 22.31 53.13 26.08 C 53.12 28.93 56.19 27.80 58.00 28.04 C 58.00 30.67 58.00 33.29 58.01 35.92 C 56.54 36.08 55.06 36.08 53.59 36.09 C 52.92 40.52 50.61 44.35 48.10 47.96 C 47.81 51.30 48.08 54.65 48.00 58.00 C 46.67 58.00 45.33 58.00 44.00 58.00 C 44.00 55.84 44.00 53.67 44.02 51.51 C 35.81 57.40 24.18 57.43 15.99 51.49 C 16.00 53.66 16.01 55.83 16.00 58.00 C 14.66 58.00 13.33 58.00 12.00 58.00 C 12.00 54.62 12.01 51.25 11.98 47.87 C 4.10 39.13 4.11 24.85 11.99 16.11 C 12.01 12.74 12.00 9.37 12.00 6.00 M 27.10 12.21 C 19.63 13.22 13.04 18.83 10.91 26.06 C 8.77 32.75 10.50 40.51 15.35 45.61 C 19.77 50.45 26.69 52.83 33.15 51.73 C 40.51 50.66 46.96 45.07 49.07 37.95 C 51.24 31.26 49.49 23.49 44.65 18.39 C 40.29 13.59 33.50 11.25 27.10 12.21 Z" />
<path fill="#000000" opacity="1.00" d=" M 28.00 18.00 C 29.33 18.00 30.67 18.00 32.00 18.00 C 32.00 22.00 32.00 26.00 32.00 30.00 C 34.00 30.00 36.00 30.00 38.00 30.00 C 38.00 31.33 38.00 32.67 38.00 34.00 C 34.67 34.00 31.33 34.00 28.00 34.00 C 28.00 28.67 28.00 23.33 28.00 18.00 Z" />
</g>
</svg>
