<?xml version="1.0" encoding="UTF-8" ?>
<!DOCTYPE svg PUBLIC "-//W3C//DTD SVG 1.1//EN" "http://www.w3.org/Graphics/SVG/1.1/DTD/svg11.dtd">
<svg width="64pt" height="64pt" viewBox="0 0 64 64" version="1.1" xmlns="http://www.w3.org/2000/svg">
<g id="#ffffffff">
<path fill="#ffffff" opacity="1.00" d=" M 0.00 0.00 L 64.00 0.00 L 64.00 64.00 L 0.00 64.00 L 0.00 0.00 M 24.16 22.90 C 23.79 27.77 24.10 32.67 24.00 37.55 C 18.17 32.39 12.43 27.13 6.57 22.01 C 5.08 23.56 3.55 25.09 2.02 26.61 C 9.37 35.96 16.70 45.33 24.01 54.71 C 24.01 55.53 24.00 57.18 24.00 58.00 C 34.00 58.00 44.00 58.00 54.00 58.00 C 54.01 52.16 53.97 46.32 54.02 40.47 C 60.60 35.75 63.74 26.75 61.02 19.04 C 58.42 10.75 49.60 5.00 40.95 6.12 C 32.34 6.91 24.95 14.30 24.16 22.90 Z" />
<path fill="#ffffff" opacity="1.00" d=" M 28.01 23.99 C 28.51 15.58 36.76 8.74 45.13 10.17 C 53.07 11.14 59.23 19.27 57.79 27.18 C 57.44 30.19 55.88 32.84 54.07 35.20 C 53.95 31.47 54.01 27.73 54.00 24.00 C 45.34 23.99 36.67 24.01 28.01 23.99 Z" />
<path fill="#ffffff" opacity="1.00" d=" M 28.00 28.00 C 35.33 28.00 42.67 28.00 50.00 28.00 C 50.00 29.33 50.00 30.67 50.00 32.00 C 42.67 32.00 35.33 32.00 28.00 32.00 C 28.00 30.67 28.00 29.33 28.00 28.00 Z" />
<path fill="#ffffff" opacity="1.00" d=" M 10.29 30.72 C 16.20 35.95 22.10 41.18 28.00 46.42 C 28.00 42.95 28.00 39.48 28.00 36.00 C 35.33 36.00 42.67 36.00 50.00 36.00 C 50.00 42.00 50.00 48.00 50.00 54.00 C 42.77 53.99 35.54 54.02 28.31 53.99 C 22.59 46.02 16.23 38.53 10.29 30.72 Z" />
</g>
<g id="#000000ff">
<path fill="#000000" opacity="1.00" d=" M 24.16 22.90 C 24.95 14.30 32.34 6.91 40.95 6.12 C 49.60 5.00 58.42 10.75 61.02 19.04 C 63.74 26.75 60.60 35.75 54.02 40.47 C 53.97 46.32 54.01 52.16 54.00 58.00 C 44.00 58.00 34.00 58.00 24.00 58.00 C 24.00 57.18 24.01 55.53 24.01 54.71 C 16.70 45.33 9.37 35.96 2.02 26.61 C 3.55 25.09 5.08 23.56 6.57 22.01 C 12.43 27.13 18.17 32.39 24.00 37.55 C 24.10 32.67 23.79 27.77 24.16 22.90 M 28.01 23.99 C 36.67 24.01 45.34 23.99 54.00 24.00 C 54.01 27.73 53.95 31.47 54.07 35.20 C 55.88 32.84 57.44 30.19 57.79 27.18 C 59.23 19.27 53.07 11.14 45.13 10.17 C 36.76 8.74 28.51 15.58 28.01 23.99 M 28.00 28.00 C 28.00 29.33 28.00 30.67 28.00 32.00 C 35.33 32.00 42.67 32.00 50.00 32.00 C 50.00 30.67 50.00 29.33 50.00 28.00 C 42.67 28.00 35.33 28.00 28.00 28.00 M 10.29 30.72 C 16.23 38.53 22.59 46.02 28.31 53.99 C 35.54 54.02 42.77 53.99 50.00 54.00 C 50.00 48.00 50.00 42.00 50.00 36.00 C 42.67 36.00 35.33 36.00 28.00 36.00 C 28.00 39.48 28.00 42.95 28.00 46.42 C 22.10 41.18 16.20 35.95 10.29 30.72 Z" />
</g>
</svg>
