<?xml version="1.0" encoding="UTF-8" ?>
<!DOCTYPE svg PUBLIC "-//W3C//DTD SVG 1.1//EN" "http://www.w3.org/Graphics/SVG/1.1/DTD/svg11.dtd">
<svg width="64pt" height="64pt" viewBox="0 0 64 64" version="1.1" xmlns="http://www.w3.org/2000/svg">
<g id="#ffffffff">
<path fill="#ffffff" opacity="1.00" d=" M 0.00 0.00 L 64.00 0.00 L 64.00 64.00 L 0.00 64.00 L 0.00 0.00 M 12.00 6.00 C 12.00 10.67 12.00 15.33 12.00 20.00 C 13.33 20.00 14.67 20.00 16.00 20.00 C 16.00 16.67 16.00 13.33 16.00 10.00 C 26.67 10.00 37.33 10.00 48.00 10.00 C 48.00 13.33 48.00 16.67 48.00 20.00 C 49.33 20.00 50.67 20.00 52.00 20.00 C 52.00 15.33 52.00 10.67 52.00 6.00 C 38.67 6.00 25.33 6.00 12.00 6.00 M 29.91 40.00 C 31.27 40.00 32.62 40.00 33.98 40.00 C 33.99 39.50 34.01 38.50 34.03 38.00 C 35.34 38.00 36.66 38.00 37.97 38.00 C 37.99 38.50 38.01 39.50 38.02 40.00 C 39.38 40.00 40.73 40.00 42.09 40.00 C 41.20 32.99 37.88 26.51 36.00 19.72 C 34.12 26.52 30.80 32.99 29.91 40.00 M 11.91 24.00 C 12.26 29.57 14.94 34.64 16.30 39.99 C 17.44 39.99 18.58 39.98 19.72 39.97 C 20.07 38.58 20.44 37.18 21.13 35.91 C 21.52 37.26 21.90 38.62 22.26 39.98 C 23.41 39.98 24.55 39.99 25.70 40.00 C 27.05 34.64 29.74 29.57 30.09 24.00 C 28.77 24.00 27.46 24.00 26.15 24.00 C 25.80 26.58 24.96 29.04 24.08 31.48 C 23.57 30.01 23.17 28.51 22.71 27.03 C 21.57 27.02 20.42 27.02 19.28 27.01 C 18.93 28.45 18.55 29.90 17.79 31.18 C 16.94 28.84 16.22 26.46 15.85 24.00 C 14.54 24.00 13.23 24.00 11.91 24.00 M 41.91 24.00 C 42.66 30.57 45.83 36.60 47.55 42.95 C 47.98 42.57 48.83 41.82 49.25 41.45 C 50.18 35.46 53.66 30.08 54.09 24.00 C 52.77 24.00 51.46 24.00 50.14 24.00 C 49.87 26.67 48.88 29.17 48.00 31.67 C 47.11 29.17 46.13 26.67 45.86 24.00 C 44.54 24.00 43.23 24.00 41.91 24.00 M 12.00 44.00 C 12.00 48.67 12.00 53.33 12.00 58.00 C 25.33 58.00 38.67 58.00 52.00 58.00 C 52.00 53.34 51.99 48.69 52.01 44.04 C 50.77 44.06 48.57 43.14 48.02 44.76 C 47.81 47.83 48.13 50.92 47.99 54.00 C 37.33 54.00 26.66 54.00 16.00 54.00 C 16.00 50.67 16.00 47.33 16.00 44.00 C 14.67 44.00 13.33 44.00 12.00 44.00 Z" />
</g>
<g id="#000000ff">
<path fill="#000000" opacity="1.00" d=" M 12.00 6.00 C 25.33 6.00 38.67 6.00 52.00 6.00 C 52.00 10.67 52.00 15.33 52.00 20.00 C 50.67 20.00 49.33 20.00 48.00 20.00 C 48.00 16.67 48.00 13.33 48.00 10.00 C 37.33 10.00 26.67 10.00 16.00 10.00 C 16.00 13.33 16.00 16.67 16.00 20.00 C 14.67 20.00 13.33 20.00 12.00 20.00 C 12.00 15.33 12.00 10.67 12.00 6.00 Z" />
<path fill="#000000" opacity="1.00" d=" M 29.91 40.00 C 30.80 32.99 34.12 26.52 36.00 19.72 C 37.88 26.51 41.20 32.99 42.09 40.00 C 40.73 40.00 39.38 40.00 38.02 40.00 C 38.01 39.50 37.99 38.50 37.97 38.00 C 36.66 38.00 35.34 38.00 34.03 38.00 C 34.01 38.50 33.99 39.50 33.98 40.00 C 32.62 40.00 31.27 40.00 29.91 40.00 Z" />
<path fill="#000000" opacity="1.00" d=" M 11.91 24.00 C 13.23 24.00 14.54 24.00 15.85 24.00 C 16.22 26.46 16.94 28.84 17.79 31.18 C 18.55 29.90 18.93 28.45 19.28 27.01 C 20.42 27.02 21.57 27.02 22.71 27.03 C 23.17 28.51 23.57 30.01 24.08 31.48 C 24.96 29.04 25.80 26.58 26.15 24.00 C 27.46 24.00 28.77 24.00 30.09 24.00 C 29.74 29.57 27.05 34.64 25.70 40.00 C 24.55 39.99 23.41 39.98 22.26 39.98 C 21.90 38.62 21.52 37.26 21.13 35.91 C 20.44 37.18 20.07 38.58 19.72 39.97 C 18.58 39.98 17.44 39.99 16.30 39.99 C 14.94 34.64 12.26 29.57 11.91 24.00 Z" />
<path fill="#000000" opacity="1.00" d=" M 41.91 24.00 C 43.23 24.00 44.54 24.00 45.86 24.00 C 46.13 26.67 47.11 29.17 48.00 31.67 C 48.88 29.17 49.87 26.67 50.14 24.00 C 51.46 24.00 52.77 24.00 54.09 24.00 C 53.66 30.08 50.18 35.46 49.25 41.45 C 48.83 41.82 47.98 42.57 47.55 42.95 C 45.83 36.60 42.66 30.57 41.91 24.00 Z" />
<path fill="#000000" opacity="1.00" d=" M 12.00 44.00 C 13.33 44.00 14.67 44.00 16.00 44.00 C 16.00 47.33 16.00 50.67 16.00 54.00 C 26.66 54.00 37.33 54.00 47.99 54.00 C 48.13 50.92 47.81 47.83 48.02 44.76 C 48.57 43.14 50.77 44.06 52.01 44.04 C 51.99 48.69 52.00 53.34 52.00 58.00 C 38.67 58.00 25.33 58.00 12.00 58.00 C 12.00 53.33 12.00 48.67 12.00 44.00 Z" />
</g>
</svg>
