<?xml version="1.0" encoding="UTF-8" ?>
<!DOCTYPE svg PUBLIC "-//W3C//DTD SVG 1.1//EN" "http://www.w3.org/Graphics/SVG/1.1/DTD/svg11.dtd">
<svg width="64pt" height="64pt" viewBox="0 0 64 64" version="1.1" xmlns="http://www.w3.org/2000/svg">
<g id="#ffffffff">
<path fill="#ffffff" opacity="1.00" d=" M 0.00 0.00 L 64.00 0.00 L 64.00 64.00 L 0.00 64.00 L 0.00 0.00 M 20.38 4.07 C 19.50 8.35 17.79 12.52 17.98 16.94 C 18.03 29.96 17.98 42.98 18.01 56.00 C 21.98 56.00 25.94 56.00 29.91 55.99 C 29.97 57.33 30.03 58.67 30.09 60.01 C 31.36 60.01 32.64 60.01 33.91 60.01 C 33.97 58.67 34.03 57.33 34.08 55.99 C 38.05 56.00 42.02 56.00 45.99 56.00 C 46.02 42.98 45.97 29.96 46.02 16.94 C 46.20 12.52 44.49 8.35 43.62 4.07 C 35.88 3.95 28.12 3.95 20.38 4.07 Z" />
<path fill="#ffffff" opacity="1.00" d=" M 23.43 8.11 C 29.14 7.93 34.86 7.93 40.57 8.11 C 40.84 9.40 41.11 10.69 41.39 11.98 C 35.13 12.01 28.87 12.01 22.61 11.98 C 22.89 10.69 23.16 9.40 23.43 8.11 Z" />
<path fill="#ffffff" opacity="1.00" d=" M 22.00 16.02 C 28.67 15.99 35.33 15.99 42.00 16.02 C 42.00 17.34 42.00 18.66 42.00 19.98 C 39.33 20.00 36.67 20.00 34.00 20.02 C 34.00 21.34 34.00 22.66 34.00 23.98 C 36.67 24.00 39.33 24.00 42.00 24.02 C 42.00 25.34 42.00 26.66 42.00 27.98 C 39.33 28.00 36.67 28.00 34.00 28.02 C 34.00 29.34 34.00 30.66 34.00 31.98 C 36.67 32.00 39.33 32.00 42.00 32.02 C 42.00 33.34 42.00 34.66 42.00 35.98 C 39.33 36.00 36.67 36.00 34.00 36.02 C 34.00 37.34 34.00 38.66 34.00 39.98 C 36.67 40.00 39.33 40.00 42.00 40.02 C 42.00 41.34 42.00 42.66 42.00 43.98 C 39.33 44.00 36.67 44.00 34.00 44.02 C 34.00 45.34 34.00 46.66 34.00 47.98 C 36.67 48.00 39.33 48.00 42.00 48.02 C 42.00 49.34 42.00 50.66 42.00 51.98 C 35.33 52.01 28.67 52.01 22.00 51.98 C 22.00 50.66 22.00 49.34 22.00 48.02 C 24.67 48.00 27.33 48.00 30.00 47.98 C 30.00 46.66 30.00 45.34 30.00 44.02 C 27.33 44.00 24.67 44.00 22.00 43.98 C 22.00 42.66 22.00 41.34 22.00 40.02 C 24.67 40.00 27.33 40.00 30.00 39.98 C 30.00 38.66 30.00 37.34 30.00 36.02 C 27.33 36.00 24.67 36.00 22.00 35.98 C 22.00 34.66 22.00 33.34 22.00 32.02 C 24.67 32.00 27.33 32.00 30.00 31.98 C 30.00 30.66 30.00 29.34 30.00 28.02 C 27.33 28.00 24.67 28.00 22.00 27.98 C 22.00 26.66 22.00 25.34 22.00 24.02 C 24.67 24.00 27.33 24.00 30.00 23.98 C 30.00 22.66 30.00 21.34 30.00 20.02 C 27.33 20.00 24.67 20.00 22.00 19.98 C 22.00 18.66 22.00 17.34 22.00 16.02 Z" />
</g>
<g id="#000000ff">
<path fill="#000000" opacity="1.00" d=" M 20.38 4.07 C 28.12 3.95 35.88 3.95 43.62 4.07 C 44.49 8.35 46.20 12.52 46.02 16.94 C 45.97 29.96 46.02 42.98 45.99 56.00 C 42.02 56.00 38.05 56.00 34.08 55.99 C 34.03 57.33 33.97 58.67 33.91 60.01 C 32.64 60.01 31.36 60.01 30.09 60.01 C 30.03 58.67 29.97 57.33 29.91 55.99 C 25.94 56.00 21.98 56.00 18.01 56.00 C 17.98 42.98 18.03 29.96 17.98 16.94 C 17.79 12.52 19.50 8.35 20.38 4.07 M 23.43 8.11 C 23.16 9.40 22.89 10.69 22.61 11.98 C 28.87 12.01 35.13 12.01 41.39 11.98 C 41.11 10.69 40.84 9.40 40.57 8.11 C 34.86 7.93 29.14 7.93 23.43 8.11 M 22.00 16.02 C 22.00 17.34 22.00 18.66 22.00 19.98 C 24.67 20.00 27.33 20.00 30.00 20.02 C 30.00 21.34 30.00 22.66 30.00 23.98 C 27.33 24.00 24.67 24.00 22.00 24.02 C 22.00 25.34 22.00 26.66 22.00 27.98 C 24.67 28.00 27.33 28.00 30.00 28.02 C 30.00 29.34 30.00 30.66 30.00 31.98 C 27.33 32.00 24.67 32.00 22.00 32.02 C 22.00 33.34 22.00 34.66 22.00 35.98 C 24.67 36.00 27.33 36.00 30.00 36.02 C 30.00 37.34 30.00 38.66 30.00 39.98 C 27.33 40.00 24.67 40.00 22.00 40.02 C 22.00 41.34 22.00 42.66 22.00 43.98 C 24.67 44.00 27.33 44.00 30.00 44.02 C 30.00 45.34 30.00 46.66 30.00 47.98 C 27.33 48.00 24.67 48.00 22.00 48.02 C 22.00 49.34 22.00 50.66 22.00 51.98 C 28.67 52.01 35.33 52.01 42.00 51.98 C 42.00 50.66 42.00 49.34 42.00 48.02 C 39.33 48.00 36.67 48.00 34.00 47.98 C 34.00 46.66 34.00 45.34 34.00 44.02 C 36.67 44.00 39.33 44.00 42.00 43.98 C 42.00 42.66 42.00 41.34 42.00 40.02 C 39.33 40.00 36.67 40.00 34.00 39.98 C 34.00 38.66 34.00 37.34 34.00 36.02 C 36.67 36.00 39.33 36.00 42.00 35.98 C 42.00 34.66 42.00 33.34 42.00 32.02 C 39.33 32.00 36.67 32.00 34.00 31.98 C 34.00 30.66 34.00 29.34 34.00 28.02 C 36.67 28.00 39.33 28.00 42.00 27.98 C 42.00 26.66 42.00 25.34 42.00 24.02 C 39.33 24.00 36.67 24.00 34.00 23.98 C 34.00 22.66 34.00 21.34 34.00 20.02 C 36.67 20.00 39.33 20.00 42.00 19.98 C 42.00 18.66 42.00 17.34 42.00 16.02 C 35.33 15.99 28.67 15.99 22.00 16.02 Z" />
</g>
</svg>
