<?xml version="1.0" encoding="UTF-8" ?>
<!DOCTYPE svg PUBLIC "-//W3C//DTD SVG 1.1//EN" "http://www.w3.org/Graphics/SVG/1.1/DTD/svg11.dtd">
<svg width="64pt" height="64pt" viewBox="0 0 64 64" version="1.1" xmlns="http://www.w3.org/2000/svg">
<g id="#ffffffff">
<path fill="#ffffff" opacity="1.00" d=" M 0.00 0.00 L 64.00 0.00 L 64.00 64.00 L 0.00 64.00 L 0.00 0.00 M 10.99 14.95 C 9.45 25.01 5.99 34.86 5.97 45.10 C 7.87 46.28 9.84 47.34 11.87 48.30 C 12.11 50.07 11.89 52.22 13.46 53.44 C 15.39 54.75 17.82 55.11 20.09 55.35 C 22.53 55.29 23.39 52.72 24.79 51.19 C 26.86 52.01 25.51 54.79 26.79 56.25 C 28.85 58.82 32.82 58.20 35.64 57.56 C 38.60 56.50 37.18 52.71 39.18 50.96 C 40.42 52.70 41.43 55.31 43.95 55.35 C 46.22 55.10 48.64 54.75 50.56 53.43 C 52.11 52.19 51.89 50.03 52.14 48.27 C 54.15 47.30 56.13 46.26 58.04 45.10 C 58.04 42.43 58.06 39.73 57.46 37.12 C 55.77 29.12 54.30 21.08 52.58 13.09 C 51.66 8.83 47.40 5.77 43.07 6.01 C 35.37 6.02 27.66 5.92 19.96 6.06 C 15.19 6.12 11.37 10.33 10.99 14.95 Z" />
<path fill="#ffffff" opacity="1.00" d=" M 15.28 14.04 C 15.79 11.53 18.33 9.82 20.84 10.02 C 28.26 9.98 35.68 9.98 43.10 10.01 C 45.65 9.80 48.23 11.53 48.74 14.09 C 50.58 22.35 52.08 30.69 53.81 38.98 C 53.38 39.22 52.52 39.71 52.09 39.96 C 50.40 35.31 44.73 36.49 41.44 38.57 C 39.94 39.84 40.06 41.98 39.70 43.74 C 39.29 43.68 38.47 43.55 38.05 43.49 C 36.42 38.49 27.61 38.49 25.94 43.45 C 25.56 43.55 24.79 43.74 24.40 43.83 C 23.92 42.05 24.06 39.85 22.53 38.55 C 19.23 36.49 13.59 35.31 11.91 39.95 C 11.48 39.71 10.62 39.23 10.19 38.98 C 11.92 30.68 13.42 22.32 15.28 14.04 Z" />
<path fill="#ffffff" opacity="1.00" d=" M 16.01 40.57 C 17.33 40.89 18.66 41.21 19.99 41.53 C 20.00 44.82 20.00 48.11 20.00 51.40 C 18.69 51.11 17.38 50.83 16.07 50.55 C 15.97 47.22 15.99 43.90 16.01 40.57 Z" />
<path fill="#ffffff" opacity="1.00" d=" M 44.05 41.48 C 45.36 41.18 46.68 40.89 47.99 40.59 C 48.01 43.92 48.04 47.25 47.91 50.57 C 46.61 50.84 45.30 51.12 44.00 51.40 C 43.99 48.09 43.98 44.78 44.05 41.48 Z" />
<path fill="#ffffff" opacity="1.00" d=" M 30.01 44.01 C 31.34 44.00 32.66 44.00 33.99 44.01 C 34.00 47.34 34.00 50.66 33.99 54.00 C 32.66 54.00 31.33 54.00 30.01 53.99 C 30.00 50.66 30.00 47.33 30.01 44.01 Z" />
</g>
<g id="#000000ff">
<path fill="#000000" opacity="1.00" d=" M 10.99 14.95 C 11.37 10.33 15.19 6.12 19.96 6.06 C 27.66 5.92 35.37 6.02 43.07 6.01 C 47.40 5.77 51.66 8.83 52.58 13.09 C 54.30 21.08 55.77 29.12 57.46 37.12 C 58.06 39.73 58.04 42.43 58.04 45.10 C 56.13 46.26 54.15 47.30 52.14 48.27 C 51.89 50.03 52.11 52.19 50.56 53.43 C 48.64 54.75 46.22 55.10 43.95 55.35 C 41.43 55.31 40.42 52.70 39.18 50.96 C 37.18 52.71 38.60 56.50 35.64 57.56 C 32.82 58.20 28.85 58.82 26.79 56.25 C 25.51 54.79 26.86 52.01 24.79 51.19 C 23.39 52.72 22.53 55.29 20.09 55.35 C 17.82 55.11 15.39 54.75 13.46 53.44 C 11.89 52.22 12.11 50.07 11.87 48.30 C 9.84 47.34 7.87 46.28 5.97 45.10 C 5.99 34.86 9.45 25.01 10.99 14.95 M 15.28 14.04 C 13.42 22.32 11.92 30.68 10.19 38.98 C 10.62 39.23 11.48 39.71 11.91 39.95 C 13.59 35.31 19.23 36.49 22.53 38.55 C 24.06 39.85 23.92 42.05 24.40 43.83 C 24.79 43.74 25.56 43.55 25.94 43.45 C 27.61 38.49 36.42 38.49 38.05 43.49 C 38.47 43.55 39.29 43.68 39.70 43.74 C 40.06 41.98 39.94 39.84 41.44 38.57 C 44.73 36.49 50.40 35.31 52.09 39.96 C 52.52 39.71 53.38 39.22 53.81 38.98 C 52.08 30.69 50.58 22.35 48.74 14.09 C 48.23 11.53 45.65 9.80 43.10 10.01 C 35.68 9.98 28.26 9.98 20.84 10.02 C 18.33 9.82 15.79 11.53 15.28 14.04 M 16.01 40.57 C 15.99 43.90 15.97 47.22 16.07 50.55 C 17.38 50.83 18.69 51.11 20.00 51.40 C 20.00 48.11 20.00 44.82 19.99 41.53 C 18.66 41.21 17.33 40.89 16.01 40.57 M 44.05 41.48 C 43.98 44.78 43.99 48.09 44.00 51.40 C 45.30 51.12 46.61 50.84 47.91 50.57 C 48.04 47.25 48.01 43.92 47.99 40.59 C 46.68 40.89 45.36 41.18 44.05 41.48 M 30.01 44.01 C 30.00 47.33 30.00 50.66 30.01 53.99 C 31.33 54.00 32.66 54.00 33.99 54.00 C 34.00 50.66 34.00 47.34 33.99 44.01 C 32.66 44.00 31.34 44.00 30.01 44.01 Z" />
</g>
</svg>
