<?xml version="1.0" encoding="UTF-8" ?>
<!DOCTYPE svg PUBLIC "-//W3C//DTD SVG 1.1//EN" "http://www.w3.org/Graphics/SVG/1.1/DTD/svg11.dtd">
<svg width="64pt" height="64pt" viewBox="0 0 64 64" version="1.1" xmlns="http://www.w3.org/2000/svg">
<g id="#ffffffff">
<path fill="#ffffff" opacity="1.00" d=" M 0.00 0.00 L 64.00 0.00 L 64.00 64.00 L 0.00 64.00 L 0.00 0.00 M 30.00 6.00 C 30.00 8.33 30.00 10.66 30.00 12.99 C 26.00 15.89 22.05 18.86 18.00 21.70 C 18.00 20.78 18.00 18.92 18.00 18.00 C 16.67 18.00 15.33 18.00 14.00 18.00 C 14.00 19.33 14.00 20.67 14.00 22.00 C 10.67 22.00 7.33 22.00 4.00 22.00 C 4.00 23.33 4.00 24.66 4.00 25.99 C 4.50 25.99 5.50 26.01 6.00 26.01 C 6.00 34.01 6.00 42.00 6.00 50.00 C 23.33 50.00 40.67 50.00 58.00 50.00 C 58.00 42.00 58.00 34.01 58.00 26.01 C 58.50 26.01 59.50 25.99 60.00 25.99 C 60.00 24.66 60.00 23.33 60.00 22.00 C 56.67 22.00 53.33 22.00 50.00 22.00 C 50.00 20.67 50.00 19.33 50.00 18.00 C 48.66 18.00 47.33 18.00 46.00 18.00 C 46.00 18.93 46.01 20.78 46.01 21.71 C 42.00 18.79 37.99 15.89 34.00 12.95 C 34.00 12.22 34.00 10.75 34.00 10.01 C 34.50 10.01 35.50 9.99 36.00 9.99 C 36.00 8.66 36.00 7.33 36.00 6.00 C 34.00 6.00 32.00 6.00 30.00 6.00 Z" />
<path fill="#ffffff" opacity="1.00" d=" M 21.84 23.76 C 25.31 21.44 28.64 18.92 32.01 16.46 C 35.43 18.93 38.86 21.38 42.20 23.96 C 35.41 23.91 28.61 24.27 21.84 23.76 Z" />
<path fill="#ffffff" opacity="1.00" d=" M 10.00 26.00 C 12.67 26.00 15.33 26.00 18.00 26.00 C 18.00 32.67 18.00 39.33 18.00 46.00 C 15.33 46.00 12.67 46.00 10.00 46.00 C 10.00 44.67 10.00 43.33 10.00 42.00 C 11.33 42.00 12.67 42.00 14.00 42.00 C 14.00 40.67 14.00 39.33 14.00 38.00 C 12.67 38.00 11.33 38.00 10.00 38.00 C 10.00 36.67 10.00 35.33 10.00 34.00 C 11.33 34.00 12.67 34.00 14.00 34.00 C 14.00 32.67 14.00 31.33 14.00 30.00 C 12.67 30.00 11.33 30.00 10.00 30.00 C 10.00 28.67 10.00 27.33 10.00 26.00 Z" />
<path fill="#ffffff" opacity="1.00" d=" M 46.00 26.00 C 48.67 26.00 51.33 26.00 54.00 26.00 C 54.00 27.33 54.00 28.67 54.00 30.00 C 52.67 30.00 51.33 30.00 50.00 30.00 C 50.00 31.33 50.00 32.67 50.00 34.00 C 51.33 34.00 52.67 34.00 54.00 34.00 C 54.00 35.33 54.00 36.67 54.00 38.00 C 52.67 38.00 51.33 38.00 50.00 38.00 C 50.00 39.33 50.00 40.67 50.00 42.00 C 51.33 42.00 52.67 42.00 54.00 42.00 C 54.00 43.33 54.00 44.67 54.00 46.00 C 51.33 46.00 48.67 46.00 46.00 46.00 C 46.00 39.33 46.00 32.67 46.00 26.00 Z" />
<path fill="#ffffff" opacity="1.00" d=" M 22.00 28.00 C 23.33 28.00 24.67 28.00 26.00 28.00 C 26.00 34.00 26.00 40.00 26.00 46.00 C 24.67 46.00 23.33 46.00 22.00 46.00 C 22.00 40.00 22.00 34.00 22.00 28.00 Z" />
<path fill="#ffffff" opacity="1.00" d=" M 30.00 28.00 C 31.33 28.00 32.67 28.00 34.00 28.00 C 34.00 34.00 34.00 40.00 34.00 46.00 C 32.67 46.00 31.33 46.00 30.00 46.00 C 30.00 40.00 30.00 34.00 30.00 28.00 Z" />
<path fill="#ffffff" opacity="1.00" d=" M 38.00 28.00 C 39.33 28.00 40.67 28.00 42.00 28.00 C 42.00 34.00 42.00 40.00 42.00 46.00 C 40.67 46.00 39.33 46.00 38.00 46.00 C 38.00 40.00 38.00 34.00 38.00 28.00 Z" />
</g>
<g id="#000000ff">
<path fill="#000000" opacity="1.00" d=" M 30.00 6.00 C 32.00 6.00 34.00 6.00 36.00 6.00 C 36.00 7.33 36.00 8.66 36.00 9.99 C 35.50 9.99 34.50 10.01 34.00 10.01 C 34.00 10.75 34.00 12.22 34.00 12.95 C 37.99 15.89 42.00 18.79 46.01 21.71 C 46.01 20.78 46.00 18.93 46.00 18.00 C 47.33 18.00 48.66 18.00 50.00 18.00 C 50.00 19.33 50.00 20.67 50.00 22.00 C 53.33 22.00 56.67 22.00 60.00 22.00 C 60.00 23.33 60.00 24.66 60.00 25.99 C 59.50 25.99 58.50 26.01 58.00 26.01 C 58.00 34.01 58.00 42.00 58.00 50.00 C 40.67 50.00 23.33 50.00 6.00 50.00 C 6.00 42.00 6.00 34.01 6.00 26.01 C 5.50 26.01 4.50 25.99 4.00 25.99 C 4.00 24.66 4.00 23.33 4.00 22.00 C 7.33 22.00 10.67 22.00 14.00 22.00 C 14.00 20.67 14.00 19.33 14.00 18.00 C 15.33 18.00 16.67 18.00 18.00 18.00 C 18.00 18.92 18.00 20.78 18.00 21.70 C 22.05 18.86 26.00 15.89 30.00 12.99 C 30.00 10.66 30.00 8.33 30.00 6.00 M 21.84 23.76 C 28.61 24.27 35.41 23.91 42.20 23.96 C 38.86 21.38 35.43 18.93 32.01 16.46 C 28.64 18.92 25.31 21.44 21.84 23.76 M 10.00 26.00 C 10.00 27.33 10.00 28.67 10.00 30.00 C 11.33 30.00 12.67 30.00 14.00 30.00 C 14.00 31.33 14.00 32.67 14.00 34.00 C 12.67 34.00 11.33 34.00 10.00 34.00 C 10.00 35.33 10.00 36.67 10.00 38.00 C 11.33 38.00 12.67 38.00 14.00 38.00 C 14.00 39.33 14.00 40.67 14.00 42.00 C 12.67 42.00 11.33 42.00 10.00 42.00 C 10.00 43.33 10.00 44.67 10.00 46.00 C 12.67 46.00 15.33 46.00 18.00 46.00 C 18.00 39.33 18.00 32.67 18.00 26.00 C 15.33 26.00 12.67 26.00 10.00 26.00 M 46.00 26.00 C 46.00 32.67 46.00 39.33 46.00 46.00 C 48.67 46.00 51.33 46.00 54.00 46.00 C 54.00 44.67 54.00 43.33 54.00 42.00 C 52.67 42.00 51.33 42.00 50.00 42.00 C 50.00 40.67 50.00 39.33 50.00 38.00 C 51.33 38.00 52.67 38.00 54.00 38.00 C 54.00 36.67 54.00 35.33 54.00 34.00 C 52.67 34.00 51.33 34.00 50.00 34.00 C 50.00 32.67 50.00 31.33 50.00 30.00 C 51.33 30.00 52.67 30.00 54.00 30.00 C 54.00 28.67 54.00 27.33 54.00 26.00 C 51.33 26.00 48.67 26.00 46.00 26.00 M 22.00 28.00 C 22.00 34.00 22.00 40.00 22.00 46.00 C 23.33 46.00 24.67 46.00 26.00 46.00 C 26.00 40.00 26.00 34.00 26.00 28.00 C 24.67 28.00 23.33 28.00 22.00 28.00 M 30.00 28.00 C 30.00 34.00 30.00 40.00 30.00 46.00 C 31.33 46.00 32.67 46.00 34.00 46.00 C 34.00 40.00 34.00 34.00 34.00 28.00 C 32.67 28.00 31.33 28.00 30.00 28.00 M 38.00 28.00 C 38.00 34.00 38.00 40.00 38.00 46.00 C 39.33 46.00 40.67 46.00 42.00 46.00 C 42.00 40.00 42.00 34.00 42.00 28.00 C 40.67 28.00 39.33 28.00 38.00 28.00 Z" />
</g>
</svg>
