<?xml version="1.0" encoding="UTF-8" ?>
<!DOCTYPE svg PUBLIC "-//W3C//DTD SVG 1.1//EN" "http://www.w3.org/Graphics/SVG/1.1/DTD/svg11.dtd">
<svg width="64pt" height="64pt" viewBox="0 0 64 64" version="1.1" xmlns="http://www.w3.org/2000/svg">
<g id="#ffffffff">
<path fill="#ffffff" opacity="1.00" d=" M 0.00 0.00 L 64.00 0.00 L 64.00 64.00 L 0.00 64.00 L 0.00 0.00 M 14.19 11.11 C 10.76 14.64 12.05 19.88 13.50 24.00 C 9.08 23.11 4.68 27.50 6.32 31.90 C 8.17 35.46 11.14 38.30 13.54 41.49 C 15.73 44.40 19.27 46.16 22.94 45.99 C 29.68 45.93 36.44 46.20 43.17 45.84 C 49.79 44.99 52.70 38.13 56.70 33.68 C 60.32 29.42 55.81 22.77 50.50 24.00 C 51.94 19.89 53.23 14.68 49.84 11.15 C 45.25 6.47 38.10 6.19 31.96 6.03 C 25.84 6.17 18.78 6.53 14.19 11.11 M 30.00 48.00 C 30.00 50.00 30.00 52.00 30.00 54.00 C 27.33 54.00 24.67 54.00 22.00 54.00 C 22.00 55.33 22.00 56.67 22.00 58.00 C 28.67 58.00 35.33 58.00 42.00 58.00 C 42.00 56.67 42.00 55.33 42.00 54.00 C 39.33 54.00 36.67 54.00 34.00 54.00 C 34.00 52.00 34.00 50.00 34.00 48.00 C 32.67 48.00 31.33 48.00 30.00 48.00 Z" />
<path fill="#ffffff" opacity="1.00" d=" M 21.56 11.31 C 27.70 9.62 34.27 9.71 40.51 10.80 C 43.46 11.51 47.33 12.63 48.03 16.03 C 48.01 20.41 45.96 24.41 44.61 28.49 C 43.98 30.62 42.51 32.32 41.14 34.01 C 35.04 33.99 28.95 33.99 22.86 34.01 C 18.93 29.63 17.56 23.62 16.10 18.08 C 14.97 14.49 18.56 12.06 21.56 11.31 Z" />
<path fill="#ffffff" opacity="1.00" d=" M 11.23 28.09 C 11.62 28.10 12.41 28.12 12.81 28.12 C 15.97 31.01 17.87 35.08 21.22 37.76 C 28.36 38.18 35.63 38.15 42.78 37.77 C 46.15 35.12 48.03 31.01 51.19 28.12 C 53.64 27.20 54.91 30.50 53.02 31.94 C 50.02 35.15 48.04 39.71 43.93 41.63 C 36.98 42.45 29.90 41.81 22.90 41.99 C 17.56 42.44 15.33 36.82 12.26 33.56 C 11.00 32.11 8.63 29.50 11.23 28.09 Z" />
</g>
<g id="#000000ff">
<path fill="#000000" opacity="1.00" d=" M 14.19 11.11 C 18.78 6.53 25.84 6.17 31.96 6.03 C 38.10 6.19 45.25 6.47 49.84 11.15 C 53.23 14.68 51.94 19.89 50.50 24.00 C 55.81 22.77 60.32 29.42 56.70 33.68 C 52.70 38.13 49.79 44.99 43.17 45.84 C 36.44 46.20 29.68 45.93 22.94 45.99 C 19.27 46.16 15.73 44.40 13.54 41.49 C 11.14 38.30 8.17 35.46 6.32 31.90 C 4.68 27.50 9.08 23.11 13.50 24.00 C 12.05 19.88 10.76 14.64 14.19 11.11 M 21.56 11.31 C 18.56 12.06 14.97 14.49 16.10 18.08 C 17.56 23.62 18.93 29.63 22.86 34.01 C 28.95 33.99 35.04 33.99 41.14 34.01 C 42.51 32.32 43.98 30.62 44.61 28.49 C 45.96 24.41 48.01 20.41 48.03 16.03 C 47.33 12.63 43.46 11.51 40.51 10.80 C 34.27 9.71 27.70 9.62 21.56 11.31 M 11.23 28.09 C 8.63 29.50 11.00 32.11 12.26 33.56 C 15.33 36.82 17.56 42.44 22.90 41.99 C 29.90 41.81 36.98 42.45 43.93 41.63 C 48.04 39.71 50.02 35.15 53.02 31.94 C 54.91 30.50 53.64 27.20 51.19 28.12 C 48.03 31.01 46.15 35.12 42.78 37.77 C 35.63 38.15 28.36 38.18 21.22 37.76 C 17.87 35.08 15.97 31.01 12.81 28.12 C 12.41 28.12 11.62 28.10 11.23 28.09 Z" />
<path fill="#000000" opacity="1.00" d=" M 30.00 48.00 C 31.33 48.00 32.67 48.00 34.00 48.00 C 34.00 50.00 34.00 52.00 34.00 54.00 C 36.67 54.00 39.33 54.00 42.00 54.00 C 42.00 55.33 42.00 56.67 42.00 58.00 C 35.33 58.00 28.67 58.00 22.00 58.00 C 22.00 56.67 22.00 55.33 22.00 54.00 C 24.67 54.00 27.33 54.00 30.00 54.00 C 30.00 52.00 30.00 50.00 30.00 48.00 Z" />
</g>
</svg>
