<?xml version="1.0" encoding="UTF-8" ?>
<!DOCTYPE svg PUBLIC "-//W3C//DTD SVG 1.1//EN" "http://www.w3.org/Graphics/SVG/1.1/DTD/svg11.dtd">
<svg width="64pt" height="64pt" viewBox="0 0 64 64" version="1.1" xmlns="http://www.w3.org/2000/svg">
<g id="#ffffffff">
<path fill="#ffffff" opacity="1.00" d=" M 0.00 0.00 L 64.00 0.00 L 64.00 64.00 L 0.00 64.00 L 0.00 0.00 M 10.00 6.00 C 10.00 10.67 10.00 15.33 10.00 20.00 C 11.33 20.00 12.67 20.00 14.00 20.00 C 14.00 16.67 14.00 13.33 14.00 10.00 C 24.66 10.00 35.33 10.00 45.99 10.00 C 45.92 13.41 46.30 16.86 45.66 20.24 C 47.10 20.09 48.55 20.01 50.00 19.92 C 50.00 15.28 50.00 10.64 50.00 6.00 C 36.67 6.00 23.33 6.00 10.00 6.00 M 44.88 22.07 C 43.91 28.23 40.43 33.76 39.87 39.99 C 41.24 40.00 42.61 40.00 43.98 40.00 C 43.99 39.50 44.01 38.50 44.02 38.00 C 45.34 38.00 46.66 38.00 47.98 38.00 C 47.99 38.50 48.01 39.50 48.02 40.00 C 49.39 40.00 50.76 40.00 52.13 39.99 C 51.56 33.76 48.09 28.23 47.12 22.08 C 46.37 22.07 45.63 22.06 44.88 22.07 M 5.88 24.01 C 6.31 29.56 8.91 34.65 10.30 39.99 C 11.43 39.99 12.56 39.98 13.69 39.96 C 14.13 38.59 14.56 37.21 15.02 35.84 C 15.46 37.22 15.88 38.60 16.30 39.98 C 17.43 39.98 18.57 39.99 19.70 39.99 C 21.08 34.64 23.70 29.56 24.12 24.01 C 22.80 24.00 21.49 24.00 20.18 24.00 C 19.76 26.49 19.03 28.92 18.12 31.27 C 17.59 29.87 17.13 28.45 16.67 27.02 C 15.54 27.02 14.42 27.01 13.30 27.01 C 12.85 28.52 12.40 30.04 11.93 31.54 C 11.05 29.08 10.25 26.58 9.82 24.00 C 8.51 24.00 7.20 24.00 5.88 24.01 M 26.00 24.00 C 26.00 29.33 26.00 34.67 26.00 40.00 C 27.33 40.00 28.67 40.00 30.00 40.00 C 30.00 36.90 30.00 33.80 30.00 30.71 C 30.66 31.57 31.33 32.43 32.00 33.29 C 32.66 32.44 33.32 31.59 33.98 30.74 C 34.01 33.82 34.00 36.91 34.00 40.00 C 35.33 40.00 36.67 40.00 38.00 40.00 C 38.00 34.67 38.00 29.33 38.00 24.00 C 36.67 24.00 35.34 24.00 34.01 24.00 C 33.34 24.86 32.68 25.73 32.01 26.59 C 31.33 25.73 30.66 24.86 29.98 24.00 C 28.65 24.00 27.33 24.00 26.00 24.00 M 10.00 44.00 C 10.00 48.67 10.00 53.33 10.00 58.00 C 23.33 58.00 36.67 58.00 50.00 58.00 C 50.00 53.33 50.00 48.67 50.00 44.00 C 48.67 44.00 47.33 44.00 46.00 44.00 C 46.00 47.33 46.00 50.67 46.00 54.00 C 35.33 54.00 24.67 54.00 14.00 54.00 C 14.00 50.67 14.00 47.33 14.00 44.00 C 12.67 44.00 11.33 44.00 10.00 44.00 Z" />
</g>
<g id="#000000ff">
<path fill="#000000" opacity="1.00" d=" M 10.00 6.00 C 23.33 6.00 36.67 6.00 50.00 6.00 C 50.00 10.64 50.00 15.28 50.00 19.92 C 48.55 20.01 47.10 20.09 45.66 20.24 C 46.30 16.86 45.92 13.41 45.99 10.00 C 35.33 10.00 24.66 10.00 14.00 10.00 C 14.00 13.33 14.00 16.67 14.00 20.00 C 12.67 20.00 11.33 20.00 10.00 20.00 C 10.00 15.33 10.00 10.67 10.00 6.00 Z" />
<path fill="#000000" opacity="1.00" d=" M 44.88 22.07 C 45.63 22.06 46.37 22.07 47.12 22.08 C 48.09 28.23 51.56 33.76 52.13 39.99 C 50.76 40.00 49.39 40.00 48.02 40.00 C 48.01 39.50 47.99 38.50 47.98 38.00 C 46.66 38.00 45.34 38.00 44.02 38.00 C 44.01 38.50 43.99 39.50 43.98 40.00 C 42.61 40.00 41.24 40.00 39.87 39.99 C 40.43 33.76 43.91 28.23 44.88 22.07 Z" />
<path fill="#000000" opacity="1.00" d=" M 5.88 24.01 C 7.20 24.00 8.51 24.00 9.82 24.00 C 10.25 26.58 11.05 29.08 11.93 31.54 C 12.40 30.04 12.85 28.52 13.30 27.01 C 14.42 27.01 15.54 27.02 16.67 27.02 C 17.13 28.45 17.59 29.87 18.12 31.27 C 19.03 28.92 19.76 26.49 20.18 24.00 C 21.49 24.00 22.80 24.00 24.12 24.01 C 23.70 29.56 21.08 34.64 19.70 39.99 C 18.57 39.99 17.43 39.98 16.30 39.98 C 15.88 38.60 15.46 37.22 15.02 35.84 C 14.56 37.21 14.13 38.59 13.69 39.96 C 12.56 39.98 11.43 39.99 10.30 39.99 C 8.91 34.65 6.31 29.56 5.88 24.01 Z" />
<path fill="#000000" opacity="1.00" d=" M 26.00 24.00 C 27.33 24.00 28.65 24.00 29.98 24.00 C 30.66 24.86 31.33 25.73 32.01 26.59 C 32.68 25.73 33.34 24.86 34.01 24.00 C 35.34 24.00 36.67 24.00 38.00 24.00 C 38.00 29.33 38.00 34.67 38.00 40.00 C 36.67 40.00 35.33 40.00 34.00 40.00 C 34.00 36.91 34.01 33.82 33.98 30.74 C 33.32 31.59 32.66 32.44 32.00 33.29 C 31.33 32.43 30.66 31.57 30.00 30.71 C 30.00 33.80 30.00 36.90 30.00 40.00 C 28.67 40.00 27.33 40.00 26.00 40.00 C 26.00 34.67 26.00 29.33 26.00 24.00 Z" />
<path fill="#000000" opacity="1.00" d=" M 10.00 44.00 C 11.33 44.00 12.67 44.00 14.00 44.00 C 14.00 47.33 14.00 50.67 14.00 54.00 C 24.67 54.00 35.33 54.00 46.00 54.00 C 46.00 50.67 46.00 47.33 46.00 44.00 C 47.33 44.00 48.67 44.00 50.00 44.00 C 50.00 48.67 50.00 53.33 50.00 58.00 C 36.67 58.00 23.33 58.00 10.00 58.00 C 10.00 53.33 10.00 48.67 10.00 44.00 Z" />
</g>
</svg>
