<?xml version="1.0" encoding="UTF-8" ?>
<!DOCTYPE svg PUBLIC "-//W3C//DTD SVG 1.1//EN" "http://www.w3.org/Graphics/SVG/1.1/DTD/svg11.dtd">
<svg width="64pt" height="64pt" viewBox="0 0 64 64" version="1.1" xmlns="http://www.w3.org/2000/svg">
<g id="#ffffffff">
<path fill="#ffffff" opacity="1.00" d=" M 0.00 0.00 L 64.00 0.00 L 64.00 64.00 L 0.00 64.00 L 0.00 0.00 M 14.75 5.83 C 13.78 10.09 13.60 14.54 14.64 18.81 C 18.38 18.64 17.58 13.79 16.15 11.46 C 17.93 13.43 20.76 16.02 19.12 18.90 C 17.66 21.68 14.27 21.75 11.71 22.80 C 9.51 23.69 8.65 26.07 7.54 27.95 L 9.94 27.08 C 9.64 28.96 9.35 30.85 9.12 32.74 C 9.75 32.60 11.02 32.31 11.66 32.16 C 10.99 34.98 10.92 37.89 11.03 40.77 C 11.98 40.32 12.92 39.87 13.86 39.43 C 14.01 40.24 14.29 41.88 14.43 42.70 C 16.47 42.18 18.91 42.80 19.74 44.93 C 19.69 44.02 19.78 43.14 20.02 42.28 C 20.49 42.33 21.43 42.43 21.90 42.48 L 21.50 44.06 L 23.33 43.65 C 21.20 41.22 19.06 38.82 17.00 36.34 C 16.90 37.31 16.71 39.23 16.62 40.20 L 18.38 38.90 C 18.76 39.73 19.65 42.57 17.73 41.38 L 16.96 41.00 L 16.15 40.91 C 15.90 39.86 15.59 38.83 15.24 37.81 C 14.69 37.99 13.60 38.35 13.06 38.53 C 13.10 38.10 13.18 37.23 13.23 36.80 C 14.12 36.74 15.90 36.62 16.78 36.56 C 16.60 35.27 16.22 32.69 16.03 31.40 C 14.74 33.20 13.63 35.12 12.34 36.92 C 12.71 35.47 13.45 32.56 13.81 31.11 C 13.04 30.89 11.48 30.47 10.71 30.25 C 11.81 27.22 14.22 25.07 17.51 24.77 C 18.04 27.59 17.98 30.46 17.36 33.26 C 19.79 35.28 22.24 37.46 23.60 40.38 C 26.40 46.12 24.54 53.03 27.64 58.68 C 27.78 57.66 28.06 55.63 28.20 54.61 C 29.43 54.85 30.61 55.25 31.81 55.60 C 32.09 55.11 32.65 54.14 32.94 53.66 C 33.78 55.12 34.46 56.65 34.99 58.25 C 37.19 53.34 36.56 47.84 37.83 42.72 C 38.93 38.36 42.28 35.10 45.79 32.53 C 45.64 33.51 45.33 35.46 45.18 36.44 C 46.14 36.61 48.05 36.93 49.01 37.10 C 48.36 35.39 47.65 33.71 46.90 32.04 L 44.92 32.81 C 44.43 30.09 44.38 27.32 44.86 24.59 C 48.08 24.99 50.63 26.97 51.63 30.08 C 50.87 30.30 49.34 30.75 48.57 30.97 C 49.33 33.22 49.83 35.54 50.15 37.89 C 49.35 37.84 47.76 37.75 46.97 37.71 C 46.65 38.86 46.33 40.01 46.01 41.16 L 44.16 40.41 L 43.94 43.20 C 43.37 42.01 42.90 40.77 42.46 39.52 C 41.06 41.00 39.08 42.35 39.25 44.67 C 40.24 44.09 40.62 42.40 41.78 42.30 C 42.06 42.78 42.63 43.74 42.91 44.22 L 43.31 44.76 L 43.71 44.99 C 44.03 44.37 44.68 43.13 45.00 42.51 C 45.56 42.61 46.68 42.82 47.24 42.92 C 47.43 42.05 47.80 40.29 47.98 39.41 C 48.88 39.87 49.79 40.33 50.69 40.79 C 50.84 37.91 50.72 35.01 50.22 32.16 C 50.83 32.31 52.06 32.61 52.67 32.77 C 52.45 30.87 52.14 28.98 51.75 27.12 C 52.41 27.33 53.74 27.75 54.41 27.96 C 53.39 26.00 52.44 23.67 50.23 22.80 C 47.42 21.68 43.72 21.22 42.46 18.01 C 41.91 15.25 44.17 13.24 45.84 11.43 C 45.34 12.94 44.74 14.43 44.38 15.99 C 44.94 17.19 45.69 19.17 47.35 18.85 C 48.39 14.58 48.20 10.13 47.26 5.86 C 41.83 9.04 38.21 14.74 37.88 21.06 C 36.06 22.25 34.23 23.42 32.40 24.60 C 32.26 27.73 32.13 30.87 32.00 34.00 C 35.76 32.01 39.41 29.80 43.37 28.22 C 40.64 30.02 38.56 33.32 35.05 33.50 C 31.36 38.26 32.68 44.42 32.20 49.99 C 32.93 50.54 33.66 51.09 34.39 51.65 C 33.33 52.16 32.26 52.67 31.20 53.19 C 30.14 52.66 29.07 52.14 28.01 51.62 C 28.74 51.08 29.47 50.53 30.19 49.99 C 29.77 44.16 31.04 37.73 27.05 32.84 C 26.63 32.96 25.79 33.22 25.37 33.35 C 23.27 31.41 21.01 29.66 18.89 27.77 C 22.71 29.62 26.31 31.90 30.00 34.01 C 29.87 30.87 29.74 27.73 29.60 24.60 C 27.77 23.42 25.94 22.25 24.12 21.06 C 23.78 14.74 20.25 8.96 14.75 5.83 M 11.41 29.43 C 13.01 30.05 14.62 30.65 16.24 31.22 C 16.28 29.67 16.31 28.12 16.32 26.56 C 14.66 27.47 13.02 28.43 11.41 29.43 M 45.68 26.56 C 45.69 28.13 45.72 29.70 45.76 31.27 C 47.35 30.68 48.94 30.08 50.52 29.46 C 48.99 28.37 47.35 27.43 45.68 26.56 M 44.03 37.60 L 43.61 38.39 C 44.24 40.99 46.49 36.87 44.03 37.60 Z" />
</g>
<g id="#000000ff">
<path fill="#000000" opacity="1.00" d=" M 14.75 5.83 C 20.25 8.96 23.78 14.74 24.12 21.06 C 25.94 22.25 27.77 23.42 29.60 24.60 C 29.74 27.73 29.87 30.87 30.00 34.01 C 26.31 31.90 22.71 29.62 18.89 27.77 C 21.01 29.66 23.27 31.41 25.37 33.35 C 25.79 33.22 26.63 32.96 27.05 32.84 C 31.04 37.73 29.77 44.16 30.19 49.99 C 29.47 50.53 28.74 51.08 28.01 51.62 C 29.07 52.14 30.14 52.66 31.20 53.19 C 32.26 52.67 33.33 52.16 34.39 51.65 C 33.66 51.09 32.93 50.54 32.20 49.99 C 32.68 44.42 31.36 38.26 35.05 33.50 C 38.56 33.32 40.64 30.02 43.37 28.22 C 39.41 29.80 35.76 32.01 32.00 34.00 C 32.13 30.87 32.26 27.73 32.40 24.60 C 34.23 23.42 36.06 22.25 37.88 21.06 C 38.21 14.74 41.83 9.04 47.26 5.86 C 48.20 10.13 48.39 14.58 47.35 18.85 C 45.69 19.17 44.94 17.19 44.38 15.99 C 44.74 14.43 45.34 12.94 45.84 11.43 C 44.17 13.24 41.91 15.25 42.46 18.01 C 43.72 21.22 47.42 21.68 50.23 22.80 C 52.44 23.67 53.39 26.00 54.41 27.96 C 53.74 27.75 52.41 27.33 51.75 27.12 C 52.14 28.98 52.45 30.87 52.67 32.77 C 52.06 32.61 50.83 32.31 50.22 32.16 C 50.72 35.01 50.84 37.91 50.69 40.79 C 49.79 40.33 48.88 39.87 47.98 39.41 C 47.80 40.29 47.43 42.05 47.24 42.92 C 46.68 42.82 45.56 42.61 45.00 42.51 C 44.68 43.13 44.03 44.37 43.71 44.99 L 43.31 44.76 L 42.91 44.22 C 42.63 43.74 42.06 42.78 41.78 42.30 C 40.62 42.40 40.24 44.09 39.25 44.67 C 39.08 42.35 41.06 41.00 42.46 39.52 C 42.90 40.77 43.37 42.01 43.94 43.20 L 44.16 40.41 L 46.01 41.16 C 46.33 40.01 46.65 38.86 46.97 37.71 C 47.76 37.75 49.35 37.84 50.15 37.89 C 49.83 35.54 49.33 33.22 48.57 30.97 C 49.34 30.75 50.87 30.30 51.63 30.08 C 50.63 26.97 48.08 24.99 44.86 24.59 C 44.38 27.32 44.43 30.09 44.92 32.81 L 46.90 32.04 C 47.65 33.71 48.36 35.39 49.01 37.10 C 48.05 36.93 46.14 36.61 45.18 36.44 C 45.33 35.46 45.64 33.51 45.79 32.53 C 42.28 35.10 38.93 38.36 37.83 42.72 C 36.56 47.84 37.19 53.34 34.99 58.25 C 34.46 56.65 33.78 55.12 32.94 53.66 C 32.65 54.14 32.09 55.11 31.81 55.60 C 30.61 55.25 29.43 54.85 28.20 54.61 C 28.06 55.63 27.78 57.66 27.64 58.68 C 24.54 53.03 26.40 46.12 23.60 40.38 C 22.24 37.46 19.79 35.28 17.36 33.26 C 17.98 30.46 18.04 27.59 17.51 24.77 C 14.22 25.07 11.81 27.22 10.71 30.25 C 11.48 30.47 13.04 30.89 13.81 31.11 C 13.45 32.56 12.71 35.47 12.34 36.92 C 13.63 35.12 14.74 33.20 16.03 31.40 C 16.22 32.69 16.60 35.27 16.78 36.56 C 15.90 36.62 14.12 36.74 13.23 36.80 C 13.18 37.23 13.10 38.10 13.06 38.53 C 13.60 38.35 14.69 37.99 15.24 37.81 C 15.59 38.83 15.90 39.86 16.15 40.91 L 16.96 41.00 L 17.73 41.38 C 19.65 42.57 18.76 39.73 18.38 38.90 L 16.62 40.20 C 16.71 39.23 16.90 37.31 17.00 36.34 C 19.06 38.82 21.20 41.22 23.33 43.65 L 21.50 44.06 L 21.90 42.48 C 21.43 42.43 20.49 42.33 20.02 42.28 C 19.78 43.14 19.69 44.02 19.74 44.93 C 18.91 42.80 16.47 42.18 14.43 42.70 C 14.29 41.88 14.01 40.24 13.86 39.43 C 12.92 39.87 11.98 40.32 11.03 40.77 C 10.92 37.89 10.99 34.98 11.66 32.16 C 11.02 32.31 9.75 32.60 9.12 32.74 C 9.35 30.85 9.64 28.96 9.94 27.08 L 7.54 27.95 C 8.65 26.07 9.51 23.69 11.71 22.80 C 14.27 21.75 17.66 21.68 19.12 18.90 C 20.76 16.02 17.93 13.43 16.15 11.46 C 17.58 13.79 18.38 18.64 14.64 18.81 C 13.60 14.54 13.78 10.09 14.75 5.83 Z" />
<path fill="#000000" opacity="1.00" d=" M 11.41 29.43 C 13.02 28.43 14.66 27.47 16.32 26.56 C 16.31 28.12 16.28 29.67 16.24 31.22 C 14.62 30.65 13.01 30.05 11.41 29.43 Z" />
<path fill="#000000" opacity="1.00" d=" M 45.68 26.56 C 47.35 27.43 48.99 28.37 50.52 29.46 C 48.94 30.08 47.35 30.68 45.76 31.27 C 45.72 29.70 45.69 28.13 45.68 26.56 Z" />
<path fill="#000000" opacity="1.00" d=" M 44.03 37.60 C 46.49 36.87 44.24 40.99 43.61 38.39 L 44.03 37.60 Z" />
</g>
</svg>
