<?xml version="1.0" encoding="UTF-8" ?>
<!DOCTYPE svg PUBLIC "-//W3C//DTD SVG 1.1//EN" "http://www.w3.org/Graphics/SVG/1.1/DTD/svg11.dtd">
<svg width="64pt" height="64pt" viewBox="0 0 64 64" version="1.1" xmlns="http://www.w3.org/2000/svg">
<g id="#ffffffff">
<path fill="#ffffff" opacity="1.00" d=" M 0.00 0.00 L 64.00 0.00 L 64.00 64.00 L 0.00 64.00 L 0.00 0.00 M 25.35 10.38 C 20.41 14.41 19.50 21.49 20.28 27.45 C 20.83 31.76 23.68 35.40 27.44 37.43 C 24.23 43.62 20.75 49.66 17.77 55.96 C 19.70 56.00 21.64 55.94 23.57 55.91 C 26.47 49.91 29.53 43.99 32.49 38.01 C 33.11 38.01 34.37 38.00 35.00 37.99 C 35.00 43.99 34.96 49.99 35.01 55.99 C 36.67 55.97 38.32 55.97 39.97 55.99 C 40.01 40.01 40.03 24.03 39.96 8.05 C 35.07 8.16 29.48 7.04 25.35 10.38 Z" />
<path fill="#ffffff" opacity="1.00" d=" M 27.50 14.46 C 29.11 11.89 32.32 11.93 35.00 11.93 C 35.00 19.31 35.00 26.69 35.00 34.06 C 31.84 34.23 28.03 33.82 26.48 30.59 C 24.14 25.58 24.51 19.13 27.50 14.46 Z" />
</g>
<g id="#000000ff">
<path fill="#000000" opacity="1.00" d=" M 25.35 10.38 C 29.48 7.04 35.07 8.16 39.96 8.05 C 40.03 24.03 40.01 40.01 39.97 55.99 C 38.32 55.97 36.67 55.97 35.01 55.99 C 34.96 49.99 35.00 43.99 35.00 37.99 C 34.37 38.00 33.11 38.01 32.49 38.01 C 29.53 43.99 26.47 49.91 23.57 55.91 C 21.64 55.94 19.70 56.00 17.77 55.96 C 20.75 49.66 24.23 43.62 27.44 37.43 C 23.68 35.40 20.83 31.76 20.28 27.45 C 19.50 21.49 20.41 14.41 25.35 10.38 M 27.50 14.46 C 24.51 19.13 24.14 25.58 26.48 30.59 C 28.03 33.82 31.84 34.23 35.00 34.06 C 35.00 26.69 35.00 19.31 35.00 11.93 C 32.32 11.93 29.11 11.89 27.50 14.46 Z" />
</g>
</svg>
